<?xml version="1.0" encoding="utf-8"?>
<!-- Generator: Adobe Illustrator 25.4.1, SVG Export Plug-In . SVG Version: 6.00 Build 0)  -->
<svg version="1.1" id="Layer_2" xmlns="http://www.w3.org/2000/svg" xmlns:xlink="http://www.w3.org/1999/xlink" x="0px" y="0px"
	 viewBox="0 0 51.29 80" style="enable-background:new 0 0 51.29 80;" xml:space="preserve">
<style type="text/css">
	.st0{fill:#00C0F3;}
	.st1{fill:url(#SVGID_1_);}
	.st2{fill:#21409A;}
</style>
<path class="st0" d="M0.96,0c0,0,30.7,2.97,33.32,9.33c2.62,6.35-20.32,35.84-20.32,35.84S28.53,22.89,24.6,13.31
	C20.67,3.68,0.96,0,0.96,0z"/>
<linearGradient id="SVGID_1_" gradientUnits="userSpaceOnUse" x1="-26.0694" y1="139.4943" x2="-2.9004" y2="143.5797" gradientTransform="matrix(1.7084 0 0 -1.7084 59.2386 288.7632)">
	<stop  offset="0" style="stop-color:#21409A"/>
	<stop  offset="0.0753" style="stop-color:#20429B"/>
	<stop  offset="0.146" style="stop-color:#1E489E"/>
	<stop  offset="0.2149" style="stop-color:#1A53A5"/>
	<stop  offset="0.2826" style="stop-color:#1560AE"/>
	<stop  offset="0.3495" style="stop-color:#0D71BA"/>
	<stop  offset="0.4158" style="stop-color:#0088CA"/>
	<stop  offset="0.4803" style="stop-color:#00A4DF"/>
	<stop  offset="0.5301" style="stop-color:#00C0F3"/>
	<stop  offset="0.5653" style="stop-color:#00B2E9"/>
	<stop  offset="0.7258" style="stop-color:#017FC3"/>
	<stop  offset="0.8566" style="stop-color:#165EAC"/>
	<stop  offset="0.9511" style="stop-color:#1E489E"/>
	<stop  offset="1" style="stop-color:#21409A"/>
</linearGradient>
<path class="st1" d="M50.96,25.15c-1.46-3.53-8.57-6.4-17.04-8.57c-1.01,2.12-2.32,4.54-3.78,6.96c2.67,2.22,4.84,4.79,6,7.71
	C42.19,45.97,19.91,80,19.91,80S55,34.88,50.96,25.15L50.96,25.15z"/>
<path class="st2" d="M23.64,14.32C11.49,12,0,10.89,0,10.89s13.21,2.52,23.89,8.47C24.1,17.49,24.05,15.78,23.64,14.32z"/>
</svg>
