<?xml version="1.0" encoding="utf-8"?>
<!-- Generator: Adobe Illustrator 25.4.1, SVG Export Plug-In . SVG Version: 6.00 Build 0)  -->
<svg version="1.1" id="Layer_2" xmlns="http://www.w3.org/2000/svg" xmlns:xlink="http://www.w3.org/1999/xlink" x="0px" y="0px"
	 viewBox="0 0 272.36 80" style="enable-background:new 0 0 272.36 80;" xml:space="preserve">
<style type="text/css">
	.st0{fill:#21409A;}
	.st1{fill-rule:evenodd;clip-rule:evenodd;fill:#21409A;}
	.st2{fill:#00C0F3;}
	.st3{fill:url(#SVGID_1_);}
</style>
<g>
	<path class="st0" d="M198.71,51.62l-7.56,8.87h-5.95l25.05-29.39h11.85l3.13,29.39h-11.8l-0.96-8.87H198.71z M212.02,47.18
		l-1.06-9.88l-8.42,9.88H212.02z"/>
	<path class="st1" d="M89.98,31.1c0,0,6.35-0.2,4.74,5.24l-1.41,4.49c-1.41,3.78-3.88,4.28-7.61,4.28c3.83,0,5.85,1.06,5.04,3.78
		l-1.97,6.2c-1.71,4.44-4.89,5.34-11.29,5.34H51.47l9.48-29.39h29.04V31.1z M67.65,46.93l-2.47,7.66h9.73
		c1.01,0,2.32-0.55,2.67-1.61l1.31-4.13c0.3-0.96-0.1-1.92-1.51-1.92L67.65,46.93z M71.28,35.54l-2.22,6.96h9.68
		c1.46,0,2.32-0.55,2.67-1.61l1.11-3.43c0.3-0.96-0.1-1.92-1.56-1.92H71.28z M153.7,38.82h20.62c3.48,0,5.6,2.07,4.69,4.99
		l-2.52,7.81h-20.77l-0.81,2.52c-0.35,1.26,0.2,1.97,1.97,1.97h18.15l-1.41,4.44h-27.37c-4.18,0-4.34-2.67-3.23-6.3l3.13-9.73
		C147.35,40.73,149.82,38.82,153.7,38.82L153.7,38.82z M157.18,47.18l0.71-2.27c0.35-1.11,0.91-1.66,2.32-1.66h5.24
		c1.11,0,1.66,0.66,1.46,1.21l-0.86,2.72L157.18,47.18z"/>
	<path class="st0" d="M238.59,60.49h-11.85l6.91-21.68h11.85L238.59,60.49z M248.67,38.82h11.85l-1.06,3.28
		c0.66-1.31,2.32-3.28,5.55-3.28h7.36l-1.92,5.95h-7.36c-2.62,0-4.84,1.06-5.54,3.18l-4.03,12.55h-11.85L248.67,38.82z
		 M102.03,60.49H90.18l9.38-29.39h11.9L102.03,60.49z"/>
	<path class="st1" d="M112.16,38.82h11.85l-4.44,13.86c-0.35,1.06,0.4,1.92,2.02,1.92h3.63c0,0,2.62,0.1,3.38-2.17l4.39-13.61h11.85
		l-6.91,21.68h-26.31c-3.93,0-5.34-3.38-4.03-7.31L112.16,38.82z"/>
	<path class="st2" d="M0.96,0c0,0,30.7,2.97,33.32,9.33c2.62,6.35-20.32,35.84-20.32,35.84S28.53,22.89,24.6,13.31
		C20.67,3.68,0.96,0,0.96,0z"/>
	
		<linearGradient id="SVGID_1_" gradientUnits="userSpaceOnUse" x1="-26.0694" y1="139.4943" x2="-2.9004" y2="143.5797" gradientTransform="matrix(1.7084 0 0 -1.7084 59.2386 288.7632)">
		<stop  offset="0" style="stop-color:#21409A"/>
		<stop  offset="0.0753" style="stop-color:#20429B"/>
		<stop  offset="0.146" style="stop-color:#1E489E"/>
		<stop  offset="0.2149" style="stop-color:#1A53A5"/>
		<stop  offset="0.2826" style="stop-color:#1560AE"/>
		<stop  offset="0.3495" style="stop-color:#0D71BA"/>
		<stop  offset="0.4158" style="stop-color:#0088CA"/>
		<stop  offset="0.4803" style="stop-color:#00A4DF"/>
		<stop  offset="0.5301" style="stop-color:#00C0F3"/>
		<stop  offset="0.5653" style="stop-color:#00B2E9"/>
		<stop  offset="0.7258" style="stop-color:#017FC3"/>
		<stop  offset="0.8566" style="stop-color:#165EAC"/>
		<stop  offset="0.9511" style="stop-color:#1E489E"/>
		<stop  offset="1" style="stop-color:#21409A"/>
	</linearGradient>
	<path class="st3" d="M50.96,25.15c-1.46-3.53-8.57-6.4-17.04-8.57c-1.01,2.12-2.32,4.54-3.78,6.96c2.67,2.22,4.84,4.79,6,7.71
		C42.19,45.97,19.91,80,19.91,80S55,34.88,50.96,25.15L50.96,25.15z"/>
	<path class="st0" d="M23.64,14.32C11.49,12,0,10.89,0,10.89s13.21,2.52,23.89,8.47C24.1,17.49,24.05,15.78,23.64,14.32z"/>
</g>
</svg>
