<svg width="81" height="80" viewBox="0 0 81 80" fill="none" xmlns="http://www.w3.org/2000/svg">
<g clip-path="url(#clip0_4762_43873)">
<path d="M40.1452 0C32.2327 1.69516e-07 24.4979 2.34643 17.919 6.74256C11.3401 11.1387 6.21262 17.387 3.18502 24.6974C0.157409 32.0077 -0.63433 40.0517 0.909925 47.8121C2.45418 55.5724 6.26507 62.7005 11.8606 68.295C17.4562 73.8894 24.5851 77.6988 32.3458 79.2414C40.1064 80.7841 48.1503 79.9907 55.46 76.9615C62.7697 73.9324 69.017 68.8037 73.4118 62.2239C77.8065 55.644 80.1514 47.9088 80.1497 39.9963C80.1475 29.3878 75.9318 19.2146 68.4297 11.7141C60.9277 4.21361 50.7536 -2.27273e-07 40.1452 0V0ZM46.7119 59.3982L36.2946 69.8154V32.3862L46.7119 42.8035V59.3982ZM61.2198 32.4111L50.8026 42.8283V28.2955H15.4353L25.8194 17.87H61.2198V32.4111Z" fill="black"/>
</g>
<defs>
<clipPath id="clip0_4762_43873">
<rect width="80.0008" height="80.0008" fill="white" transform="translate(0.148438)"/>
</clipPath>
</defs>
</svg>
