<?xml version="1.0" encoding="utf-8"?>
<!-- Generator: Adobe Illustrator 25.4.1, SVG Export Plug-In . SVG Version: 6.00 Build 0)  -->
<svg version="1.1" id="Layer_1" xmlns="http://www.w3.org/2000/svg" xmlns:xlink="http://www.w3.org/1999/xlink" x="0px" y="0px"
	 viewBox="0 0 120.6 80" style="enable-background:new 0 0 120.6 80;" xml:space="preserve">
<style type="text/css">
	.st0{fill-rule:evenodd;clip-rule:evenodd;fill:url(#SVGID_1_);}
</style>
<linearGradient id="SVGID_1_" gradientUnits="userSpaceOnUse" x1="42301.5703" y1="-7461.6685" x2="42301.5703" y2="-6350.4189" gradientTransform="matrix(7.199103e-02 0 0 -7.199103e-02 -2985.0198 -457.1732)">
	<stop  offset="0" style="stop-color:#420507"/>
	<stop  offset="0.702" style="stop-color:#5D0E12"/>
	<stop  offset="0.702" style="stop-color:#F22435"/>
	<stop  offset="1" style="stop-color:#78181E"/>
</linearGradient>
<path class="st0" d="M120.6,0c-36.1,8-73,15.9-109.2,23.9l74.2-3.2C95.5,12.7,107,5.8,120.6,0z M5.9,25.1l-4.2,1l69,8.6
	c3.3-3.7,6.8-7.2,10.7-10.6L5.9,25.1z M0,26.8c8.7,1.7,16,4.3,21.9,7.8L62.5,45c1.8-2.5,3.6-4.9,5.6-7.2L0,26.8z M25.9,37.2
	C39.2,46.8,44.5,61.6,44.1,80c4.2-11.3,9.5-22.1,16.2-32L25.9,37.2z"/>
</svg>
