<?xml version="1.0" encoding="utf-8"?>
<!-- Generator: Adobe Illustrator 25.4.1, SVG Export Plug-In . SVG Version: 6.00 Build 0)  -->
<svg version="1.1" id="Layer_1" xmlns="http://www.w3.org/2000/svg" xmlns:xlink="http://www.w3.org/1999/xlink" x="0px" y="0px"
	 viewBox="0 0 383.7 80" style="enable-background:new 0 0 383.7 80;" xml:space="preserve">
<style type="text/css">
	.st0{fill-rule:evenodd;clip-rule:evenodd;fill:url(#SVGID_1_);}
	.st1{fill-rule:evenodd;clip-rule:evenodd;fill:url(#SVGID_00000118354813816564619760000016419442926880591494_);}
</style>
<g id="Layer_x0020_1">
	<g id="_815298000">
		
			<linearGradient id="SVGID_1_" gradientUnits="userSpaceOnUse" x1="42564.6133" y1="-7461.6685" x2="42564.6133" y2="-6350.4189" gradientTransform="matrix(7.199103e-02 0 0 -7.199103e-02 -2740.9138 -457.1732)">
			<stop  offset="0" style="stop-color:#420507"/>
			<stop  offset="0.702" style="stop-color:#5D0E12"/>
			<stop  offset="0.702" style="stop-color:#F22435"/>
			<stop  offset="1" style="stop-color:#78181E"/>
		</linearGradient>
		<path class="st0" d="M383.7,0c-36.1,8-73,15.9-109.2,23.9l74.2-3.2C358.5,12.7,370.1,5.8,383.7,0z M269,25.1l-4.2,1l69,8.6
			c3.3-3.7,6.8-7.2,10.7-10.6L269,25.1z M263,26.8c8.7,1.7,16,4.3,21.9,7.8L325.5,45c1.8-2.5,3.6-4.9,5.6-7.2L263,26.8z M288.9,37.2
			c13.3,9.7,18.6,24.4,18.2,42.8c4.2-11.3,9.5-22.1,16.2-32L288.9,37.2z"/>
		
			<linearGradient id="SVGID_00000016769997727778885250000007967163288099391664_" gradientUnits="userSpaceOnUse" x1="38072.9883" y1="-7122.0361" x2="42203.3242" y2="-7122.0361" gradientTransform="matrix(7.199103e-02 0 0 -7.199103e-02 -2740.9138 -457.1732)">
			<stop  offset="0" style="stop-color:#7D1316"/>
			<stop  offset="0.7412" style="stop-color:#F22435"/>
			<stop  offset="1" style="stop-color:#A81E27"/>
		</linearGradient>
		<path style="fill-rule:evenodd;clip-rule:evenodd;fill:url(#SVGID_00000016769997727778885250000007967163288099391664_);" d="
			M9.2,68.6c-1.8,0-3.3-0.2-4.5-0.5c-1.2-0.3-2.1-0.8-2.8-1.3c-0.7-0.6-1.2-1.3-1.5-2.1C0.1,63.9,0,62.9,0,61.9v-2.4
			c0-1,0.1-2,0.4-2.8s0.7-1.5,1.4-2.1c0.6-0.6,1.5-1,2.7-1.3c1.1-0.3,2.6-0.4,4.3-0.4h18.7v-0.6c0-1.6-0.3-2.7-1-3.2
			c-0.6-0.6-1.8-0.8-3.3-0.8h-6.9v-4.9h6.9c2,0,3.7,0.2,5.2,0.6c1.4,0.3,2.6,0.9,3.5,1.7c0.9,0.8,1.6,1.7,2,2.9
			c0.4,1.2,0.6,2.6,0.6,4.2v6.2c0,1.8-0.2,3.4-0.5,4.6c-0.3,1.3-1,2.3-1.9,3c-0.9,0.8-2.1,1.3-3.6,1.6c-1.5,0.3-3.3,0.5-5.5,0.5H9.2
			z M27.4,57.2H9.5c-0.8,0-1.4,0.2-1.9,0.6c-0.4,0.3-0.7,1-0.7,2v1.7c0,0.9,0.3,1.5,0.7,1.9c0.5,0.3,1.2,0.5,2.1,0.5h13
			c0.8,0,1.5-0.1,2.1-0.2c0.6-0.1,1.1-0.3,1.4-0.7c0.4-0.3,0.6-0.8,0.9-1.4c0.2-0.6,0.3-1.3,0.3-2.3V57.2z M39.6,68.6V35.2h7.1v33.4
			H39.6z M64.1,68.6c-2.3,0-4.2-0.2-5.8-0.6c-1.6-0.4-2.8-1-3.7-1.9c-1-0.9-1.6-1.9-2-3.3c-0.4-1.4-0.6-3.1-0.6-5.1V35.2H59v8.2h14
			c2.3,0,4.3,0.2,5.8,0.6c1.6,0.4,2.8,1,3.7,1.9c0.9,0.9,1.6,2,2,3.4c0.4,1.4,0.6,3.1,0.6,5.1v3.4c0,2-0.2,3.7-0.6,5.1
			c-0.4,1.4-1.1,2.5-2,3.3c-1,0.9-2.2,1.5-3.7,1.9c-1.6,0.4-3.5,0.6-5.8,0.6H64.1z M78.2,54.5c0-1.1-0.1-2-0.2-2.7
			c-0.2-0.6-0.4-1.2-0.9-1.6c-0.4-0.4-1-0.6-1.6-0.8c-0.7-0.1-1.6-0.2-2.7-0.2H59v8.2c0,1,0.1,1.9,0.2,2.5c0.2,0.7,0.4,1.2,0.9,1.6
			c0.4,0.4,1,0.6,1.6,0.8c0.7,0.1,1.6,0.2,2.7,0.2h8.4c1.1,0,2-0.1,2.7-0.2c0.7-0.2,1.3-0.4,1.6-0.8c0.4-0.4,0.7-0.9,0.9-1.6
			c0.1-0.6,0.2-1.5,0.2-2.6V54.5z M98.6,68.6c-1.9,0-3.3-0.2-4.5-0.5c-1.2-0.3-2.1-0.8-2.8-1.3c-0.7-0.6-1.2-1.3-1.4-2.1
			c-0.3-0.8-0.4-1.8-0.4-2.8v-2.4c0-1,0.1-2,0.4-2.8c0.3-0.8,0.7-1.5,1.4-2.1c0.6-0.6,1.5-1,2.6-1.3c1.2-0.3,2.6-0.4,4.3-0.4h18.7
			v-0.6c0-1.6-0.3-2.7-1-3.2c-0.6-0.6-1.7-0.8-3.3-0.8h-6.9v-4.9h6.9c2,0,3.7,0.2,5.2,0.6c1.4,0.3,2.6,0.9,3.5,1.7
			c0.9,0.8,1.6,1.7,2,2.9c0.4,1.2,0.6,2.6,0.6,4.2v6.2c0,1.8-0.2,3.4-0.5,4.6c-0.3,1.3-1,2.3-1.9,3c-0.9,0.8-2.1,1.3-3.6,1.6
			c-1.5,0.3-3.3,0.5-5.5,0.5H98.6z M116.8,57.2H98.9c-0.8,0-1.4,0.2-1.9,0.6c-0.5,0.3-0.7,1-0.7,2v1.7c0,0.9,0.3,1.5,0.7,1.9
			c0.5,0.3,1.2,0.5,2.1,0.5h13c0.8,0,1.5-0.1,2.1-0.2c0.6-0.1,1.1-0.3,1.4-0.7c0.4-0.3,0.6-0.8,0.9-1.4c0.2-0.6,0.3-1.3,0.3-2.3
			V57.2z M150.7,51.2l-7.5,15.5c-0.4,0.8-0.9,1.4-1.5,1.8c-0.6,0.4-1.4,0.7-2.4,0.7c-1,0-1.8-0.3-2.4-0.7c-0.6-0.4-1-1-1.3-1.8
			l-10.1-23.4h7l7.3,17l7.2-15.1c0.4-0.8,0.9-1.5,1.5-1.9c0.5-0.4,1.3-0.6,2.3-0.6c1,0,1.8,0.2,2.3,0.6c0.6,0.4,1,1.1,1.4,2
			l6.8,15.1l7.6-17h6.9l-10.6,23.4c-0.3,0.7-0.8,1.3-1.5,1.8c-0.6,0.5-1.4,0.7-2.3,0.7c-0.9,0-1.6-0.3-2.3-0.7
			c-0.6-0.5-1.1-1.1-1.5-1.8L150.7,51.2z M179.1,68.6V44h7.1v24.6H179.1z M181.5,41.9c-0.9,0-1.5-0.2-1.8-0.5
			c-0.3-0.3-0.6-0.9-0.6-1.6v-2.7c0-0.7,0.2-1.3,0.6-1.6c0.3-0.3,1-0.5,1.8-0.5h2.3c0.9,0,1.5,0.2,1.9,0.5c0.4,0.3,0.6,0.9,0.6,1.6
			v2.7c0,0.7-0.2,1.3-0.6,1.6c-0.3,0.3-1,0.5-1.9,0.5H181.5z M217.3,68.6V54.5c0-1-0.1-1.9-0.3-2.6c-0.2-0.6-0.5-1.2-0.9-1.6
			c-0.4-0.4-1-0.7-1.7-0.8c-0.7-0.2-1.6-0.3-2.8-0.3h-7.5c-1.1,0-2,0.1-2.7,0.3c-0.7,0.1-1.3,0.4-1.8,0.8c-0.4,0.4-0.7,0.9-0.9,1.6
			c-0.2,0.7-0.3,1.6-0.3,2.6v14.1h-7V54.3c0-2,0.2-3.7,0.6-5.1c0.4-1.4,1-2.5,2-3.4c0.9-0.8,2.2-1.5,3.7-1.9
			c1.5-0.4,3.5-0.6,5.8-0.6h8.4c2.4,0,4.3,0.2,5.9,0.6c1.6,0.4,2.8,1,3.7,1.9c0.9,0.9,1.6,2,2,3.4c0.4,1.4,0.6,3.1,0.6,5.1v14.3
			H217.3z M243.2,76.1v-5.7h9.7c1,0,1.8-0.2,2.2-0.6c0.4-0.4,0.6-1.1,0.6-2.1v-2h-15.9c-1.9,0-3.6-0.2-4.9-0.5
			c-1.3-0.3-2.5-0.8-3.3-1.5c-0.8-0.6-1.4-1.5-1.8-2.6c-0.4-1.1-0.6-2.4-0.6-3.9v-3.9c0-1.9,0.2-3.5,0.5-4.8
			c0.3-1.3,0.9-2.3,1.7-3.1c0.8-0.8,1.9-1.3,3.4-1.6c1.4-0.3,3.2-0.5,5.3-0.5h11.3c2.1,0,3.8,0.2,5.2,0.6c1.4,0.3,2.5,1,3.4,1.8
			c0.9,0.8,1.5,1.8,1.8,3.1c0.3,1.3,0.5,2.8,0.5,4.6v14.7c0,2.8-0.7,4.9-2.1,6.1c-1.4,1.3-3.7,1.9-6.8,1.9H243.2z M255.7,53.5
			c0-1.6-0.3-2.8-1-3.4c-0.6-0.6-1.8-0.9-3.6-0.9h-10.9c-1.6,0-2.7,0.3-3.3,0.9c-0.6,0.6-0.9,1.8-0.9,3.4v3.3c0,0.6,0.1,1.2,0.2,1.6
			c0.1,0.4,0.3,0.8,0.7,1.1c0.3,0.3,0.7,0.4,1.3,0.5c0.5,0.1,1.2,0.1,2,0.1h15.4V53.5z M297.3,61.9c0,1.2-0.1,2.3-0.3,3.1
			c-0.2,0.9-0.6,1.6-1.3,2.1c-0.6,0.5-1.5,0.9-2.6,1.1c-1.1,0.3-2.5,0.4-4.3,0.4h-21.7v-5.5h20.8c1,0,1.6-0.2,2-0.5
			c0.3-0.3,0.6-0.9,0.6-1.8v-0.8c0-1-0.2-1.5-0.6-1.8c-0.3-0.2-1-0.3-1.8-0.3h-14.2c-1.4,0-2.6-0.1-3.5-0.4
			c-0.9-0.3-1.6-0.7-2.1-1.3c-0.5-0.6-0.8-1.3-1-2.1s-0.3-1.8-0.3-2.9v-1.9c0-1.1,0.1-2,0.3-2.8c0.2-0.8,0.6-1.4,1.1-1.9
			c0.6-0.5,1.3-0.9,2.2-1.1s2-0.3,3.4-0.3h9.6v5.2h-7.9c-0.7,0-1.2,0.1-1.5,0.4c-0.3,0.3-0.4,0.7-0.4,1.3v1.2c0,0.7,0.1,1.2,0.4,1.4
			c0.3,0.3,0.7,0.4,1.3,0.4h13.7c1.6,0,2.9,0.1,3.9,0.4s1.8,0.7,2.4,1.3c0.6,0.6,1,1.3,1.2,2.3c0.2,0.9,0.3,2,0.3,3.4V61.9z"/>
	</g>
</g>
</svg>
