<?xml version="1.0" encoding="utf-8"?>
<!-- Generator: Adobe Illustrator 25.4.1, SVG Export Plug-In . SVG Version: 6.00 Build 0)  -->
<svg version="1.1" id="Layer_1" xmlns="http://www.w3.org/2000/svg" xmlns:xlink="http://www.w3.org/1999/xlink" x="0px" y="0px"
	 viewBox="0 0 97.8 80" style="enable-background:new 0 0 97.8 80;" xml:space="preserve">
<style type="text/css">
	.st0{fill:#0C0C11;}
	.st1{fill:#0000A0;}
</style>
<path class="st0" d="M84.9-885.5c-0.7-0.1-1.8,0-2.5,0c0.5-0.4,1.2-0.7,1.6-0.5c0.1,0,0.1,0,0.2,0.1
	C84.4-885.8,84.7-885.6,84.9-885.5z"/>
<path id="path2818" class="st1" d="M47.6,0C37.6-0.1,27.4,2.7,19,8.4c-0.7,0.3-2.2,1.9-0.5,1.8c4.2,0.3,8.4,0.1,12.6,0.2
	C40.1,24,49,37.8,57.9,51.4c7.6,0,15.3,0,22.9,0c2.9,3.7,5.1,8.2,8.1,11.7c2.8-2.4,4.4-6.1,6.2-9.3c3-7.2,3.4-15.5,1.7-23.1
	c-4.6-15.3-19-25.6-33.9-29.2C57.9,0.2,52.8-0.1,47.6,0L47.6,0z"/>
<path id="path2820" class="st1" d="M15.2,10.8c-5.5,4.6-10.6,10-13,17C-0.4,33.5-0.3,40,0.5,46c0.5,1.8,1,3.7,1.9,5.4
	c12.9-0.2,25.8,0.3,38.7-0.3c1.4-0.4-0.8-2-0.9-2.8c-7.2-11.1-14.3-22.3-21.6-33.2C17.4,13.8,16.6,11.7,15.2,10.8z"/>
<path id="path2822" class="st1" d="M41.1,63.7c-10.3,0.1-20.7-0.1-31,0.4c0.6,2.1,3.1,3.2,4.6,4.6c10,7.5,22.4,12,34.9,11.2
	c7.7,0.1,15.5-1.2,22.5-4.5c6-2.6,11.8-6.3,16.1-11.4c-2.8-0.6-6.2-0.1-9.2-0.3C66.4,63.7,53.7,63.6,41.1,63.7L41.1,63.7z"/>
</svg>
