<?xml version="1.0" encoding="utf-8"?>
<!-- Generator: Adobe Illustrator 27.0.0, SVG Export Plug-In . SVG Version: 6.00 Build 0)  -->
<svg version="1.1" id="Layer_1" xmlns="http://www.w3.org/2000/svg" xmlns:xlink="http://www.w3.org/1999/xlink" x="0px" y="0px"
	 viewBox="0 0 369.7 80" style="enable-background:new 0 0 369.7 80;" xml:space="preserve">
<style type="text/css">
	.st0{fill:#192946;}
	.st1{fill:#EFA20E;}
	.st2{fill:#8BB4C5;}
	.st3{fill:#C1DAE1;}
</style>
<g>
	<path class="st0" d="M0,22.5v34.9h20v-7.7H9.2v-6h10.3v-7.7H9.2v-5.8H20v-7.7H0z"/>
	<path class="st0" d="M41.7,51.4l-2.4,6.1h-9.7l13.5-34.9h10l13.3,34.9h-9.8l-2.3-6.1H41.7z M48.1,33.3L48.1,33.3l-3.9,11.1h7.6
		L48.1,33.3z"/>
	<path class="st0" d="M94.4,31.5c-1.7-1.4-3.8-2.3-6.1-2.3c-1.7,0-3.9,1-3.9,2.9c0,2,2.5,2.8,4.1,3.3l2.3,0.7
		c4.9,1.4,8.7,3.9,8.7,9.5c0,3.5-0.8,7-3.6,9.4c-2.8,2.3-6.4,3.3-10,3.3c-4.4,0-8.8-1.5-12.4-4l3.9-7.3c2.3,2,5,3.6,8.1,3.6
		c2.1,0,4.4-1.1,4.4-3.5c0-2.5-3.6-3.4-5.6-4c-5.7-1.6-9.5-3.1-9.5-9.9c0-7.1,5.1-11.7,12.1-11.7c3.5,0,7.9,1.1,11,2.9L94.4,31.5z"
		/>
	<path class="st0" d="M125.2,57.5h-9.2V30.2h-7.6v-7.7h24.3v7.7h-7.6V57.5z"/>
	<path class="st0" d="M154.5,30.2v5.8h10.3v7.7h-10.3v6h10.9v7.7h-20V22.5h20v7.7H154.5z"/>
	<path class="st0" d="M209.2,57.5h-11.4L189.2,44h-0.1v13.4h-9.2V22.5h13.7c7,0,12.2,3.3,12.2,10.8c0,4.8-2.7,9-7.7,9.9L209.2,57.5z
		 M189.1,38.2h0.9c3,0,6.4-0.6,6.4-4.4c0-3.8-3.4-4.4-6.4-4.4h-0.9V38.2z"/>
	<path class="st0" d="M219.1,22.5h9.2l16.8,21.4h0.1V22.5h9.1v34.9h-9.1l-16.8-21.4h-0.1v21.4h-9.2V22.5z"/>
	<path class="st1" d="M336.9,68.8c-1-2.1-2-4.2-3.2-6.1c-2.3-3.8-5.6-6.6-9.8-8.4c-4.1-1.8-8.9-1.7-13.5-1.6c-0.4,0-0.9,0-1.3,0
		c-5.1,0.1-10.8-0.3-13.7-6.1c-0.7-1.4-1.2-2.9-1.6-4.3c-0.7-2.1-1.3-4-2.5-5.5c-0.7-0.8-1.5-1.2-2.3-1.5v16.3
		c0.1,0.1,0.2,0.3,0.2,0.4c1.2,2.1,2.4,4.2,3.9,5.6c3.8,3.6,9.1,3.6,14.6,3.3c4.6-0.3,12.3-0.7,16.7,4.7c3.1,3.8,3.8,9.4,4.1,14.4
		h15.1c-1.1-1.3-2.3-2.9-3.5-4.8C339,73.1,337.9,70.9,336.9,68.8z"/>
	<path class="st2" d="M308.1,65.1c-5.9,0.4-12.7,0.3-17.8-4.4c-0.4-0.4-0.8-0.9-1.2-1.3v7.1c0.6,0.5,1.2,1.1,1.8,1.5
		c2.4,1.6,5.8,2.2,10.1,1.7c0.6-0.1,1.2-0.2,1.9-0.3c3.1-0.5,7.2-1.2,10.2,2c2.4,2.6,2,6,1.2,8.7h10.2c-0.3-4.3-0.9-9-3.2-11.8
		C318.5,64.8,313.2,64.8,308.1,65.1z"/>
	<path class="st3" d="M310,74.1c-1.3-1.4-3.3-1.2-6.4-0.7c-0.7,0.1-1.4,0.2-2.1,0.3c-5,0.6-9.2-0.1-12.4-2V80h20.8
		C310.7,77.4,311.2,75.4,310,74.1z"/>
	<path class="st0" d="M352.2,13l-0.7,0.1c-2.3,0.4-4.5,0.7-6.4,1.7c-1.9,1-3.4,2.8-4.1,4.7c-1.3,3.5-0.2,7.8,2.7,10.9
		c1.8,1.9,3.9,3.5,6.1,5.2c1.5,1.2,3.1,2.4,4.6,3.8c2.6,2.3,4.4,5.2,6.1,7.9c0.8,1.3,1.6,2.5,2.4,3.6c1.7,2.4,4.1,4.2,6.9,5.2V0
		h-5.3c-0.4,3.1-1.5,6-3.3,8.4C359.3,10.9,356.3,12.4,352.2,13z"/>
	<path class="st0" d="M312,28.1c-0.5-0.8-1-1.6-1.5-2.4c-2.2-4-2-8.4-1.8-11.9l0-0.3c0.1-1.4,0.2-2.9-0.6-3.6
		c-0.1-0.1-0.3-0.2-0.5-0.2c-0.4,0-0.9,0.2-1.2,0.5c-0.3,0.3-0.6,0.6-0.8,1c-0.7,1.2-1,2.7-1.4,4.3c-0.1,0.5-0.2,1-0.3,1.5l-0.1,0.5
		c-0.6,2.5-1.1,4.9-1.3,7.4c-0.1,1.9,0,3.5,0.5,4.9c0.4,1.3,1.2,2.5,2.4,3.7l0,0c1.1,1,2.3,1.8,3.8,2.4c1.8,0.8,4.2,1.4,5.2,0
		c0.3-0.5,0.4-1,0.3-1.8C314.5,31.9,313.3,30,312,28.1z"/>
	<path class="st0" d="M359.4,53.4c-0.9-1.3-1.7-2.6-2.5-3.9c-1.6-2.6-3.2-5.1-5.3-7c-1.4-1.2-2.8-2.4-4.4-3.6
		c-2.2-1.7-4.5-3.5-6.5-5.6c-4.1-4.2-5.5-10.2-3.6-15.2c1.1-2.8,3.3-5.3,6-6.9c2.5-1.4,5.2-1.8,7.8-2.2l0.6-0.1c3-0.5,5-1.5,6.2-3
		c1.2-1.7,2-3.7,2.4-5.9h-17.3c-0.8,1.6-1.7,3.1-3,4.4c-1.7,1.7-3.6,2.8-5.4,3.8c-0.6,0.3-1.2,0.7-1.8,1c-4.2,2.5-6.8,6.6-7.1,11.1
		c-0.2,2.6,0.3,5.4,1.4,8.3c1.6,4.1,5.2,7,9,9.5l0,0c4.4,3,9,6.1,12.6,10.4c2,2.4,3.3,5,4.6,7.6c1,2,1.9,3.9,3.1,5.6
		c2.9,4.1,7.6,6.9,13.4,8.2v-9.5C365.5,59.4,361.9,56.9,359.4,53.4z"/>
	<path class="st2" d="M317.9,38c-0.8,1.2-2.4,2.8-5.4,2.8c-1.4,0-3-0.3-5-1.2c-1.9-0.8-3.6-1.9-5-3.2c-1.7-1.6-2.9-3.4-3.6-5.5
		c-0.6-1.9-0.8-4.1-0.7-6.5c0.2-2.8,0.8-5.4,1.4-8l0.1-0.5c0.1-0.5,0.2-0.9,0.3-1.4c0.4-1.8,0.8-3.9,1.9-5.7c0.5-0.8,1.1-1.4,1.8-2
		c2.2-1.8,5.3-1.9,7.2-0.2c2.2,2,2.1,4.9,2,6.9l0,0.3c-0.2,3.2-0.3,6.8,1.3,9.7c0.4,0.7,0.9,1.4,1.4,2.2c1.4,2.2,3,4.6,3.3,7.7
		C319,35.3,318.7,36.7,317.9,38z M352.9,64.2c-1.4-2-2.4-4.1-3.5-6.2c-1.2-2.5-2.4-4.8-4-6.8c-3.2-3.8-7.4-6.6-11.7-9.6l0,0
		c-4.3-2.9-8.5-6.3-10.5-11.5c-1.3-3.5-1.9-6.9-1.7-10.1c0.4-5.9,3.7-11.1,9.1-14.4c0.7-0.4,1.3-0.8,2-1.1c1.6-0.9,3.2-1.8,4.4-3.1
		c0.4-0.5,0.8-1,1.2-1.5h-49v31c2.1,0.4,4,1.5,5.4,3.1c1.8,2.1,2.6,4.6,3.4,7c0.4,1.3,0.8,2.6,1.4,3.7c1.6,3.3,4.7,3.9,9.9,3.8
		c0.4,0,0.9,0,1.3,0c5-0.1,10.2-0.2,15.2,1.9c5,2.1,8.9,5.5,11.7,10c1.3,2.1,2.4,4.4,3.4,6.5c1,2.1,1.9,4.1,3.1,6
		c1.9,3.1,3.7,5,5.6,6.9c0,0,0,0,0.1,0.1h20.2v-5.7C362.4,72.9,356.5,69.4,352.9,64.2z"/>
</g>
</svg>
