<?xml version="1.0" encoding="utf-8"?>
<!-- Generator: Adobe Illustrator 25.4.1, SVG Export Plug-In . SVG Version: 6.00 Build 0)  -->
<svg version="1.1" xmlns="http://www.w3.org/2000/svg" xmlns:xlink="http://www.w3.org/1999/xlink" x="0px" y="0px"
	 viewBox="0 0 111 80" style="enable-background:new 0 0 111 80;" xml:space="preserve">
<style type="text/css">
	.st0{fill:#D92A23;}
	.st1{fill:#1C86A9;}
</style>
<g id="Layer_2">
</g>
<g id="Layer_1">
	<polygon class="st0" points="0,0 5,15.8 42.7,15.8 28.8,0 	"/>
	<path class="st1" d="M5.6,18.2L17.4,61c0,0,23.8-42.7,23.1-42.8C39.7,18.1,5.6,18.2,5.6,18.2z"/>
	<path class="st1" d="M111,77.8c0,0-12-0.5-16-4.5c-4.3-4.3-8-9-8-9H18.3L22.1,80H111V77.8z"/>
	<polygon class="st1" points="24.7,61.5 31.3,49.1 47.5,49.1 50.3,61.5 	"/>
	<path class="st1" d="M33,44.6c0.4-0.4,10.7-16.9,10.7-16.9l3,16.9H33z"/>
	<path class="st1" d="M55.5,29.6l0.1,0.6l5.2,28c0,0-0.2,3.9,5.3,3.9s18.7,0,18.7,0L55.5,29.6z"/>
</g>
</svg>
