<?xml version="1.0" encoding="utf-8"?>
<!-- Generator: Adobe Illustrator 25.4.1, SVG Export Plug-In . SVG Version: 6.00 Build 0)  -->
<svg version="1.1" xmlns="http://www.w3.org/2000/svg" xmlns:xlink="http://www.w3.org/1999/xlink" x="0px" y="0px"
	 viewBox="0 0 291.9 80" style="enable-background:new 0 0 291.9 80;" xml:space="preserve">
<style type="text/css">
	.st0{fill:#D92A23;}
	.st1{fill:#1C86A9;}
</style>
<g id="Layer_2">
</g>
<g id="Layer_1">
	<g>
		<polygon class="st0" points="0,0 5,15.8 42.7,15.8 28.8,0 		"/>
		<path class="st1" d="M5.6,18.2L17.4,61c0,0,23.8-42.7,23.1-42.8C39.7,18.1,5.6,18.2,5.6,18.2z"/>
		<path class="st1" d="M18.3,64.2L22.1,80h263.3v-2.2H150.8h-28.7H111c0,0-14.3-0.6-17.8-5.1s-6.2-8.5-6.2-8.5H18.3z"/>
		<polygon class="st1" points="24.7,61.5 31.3,49.1 47.5,49.1 50.3,61.5 		"/>
		<path class="st1" d="M33,44.6c0.4-0.4,10.7-16.9,10.7-16.9l3,16.9H33z"/>
		<path class="st1" d="M55.5,29.6l0.1,0.6l5.2,28c0,0-0.2,3.9,5.3,3.9s18.7,0,18.7,0L55.5,29.6z"/>
		<g>
			<path class="st1" d="M121.5,32.5c0,0-1.3-0.2-1.3,0.7c0,0.9,0,0.9,0,0.9s0.1,0.9,1.4,0.9c1.2,0,2.1,1.1,1.2,3.5l-11.2,30.8h4.1
				l4.2-11.9h11.8l4.5,11.9h8.6l-13.1-36.9H121.5z M120.7,54.7l4.7-13.4l5.1,13.4H120.7z"/>
			<path class="st1" d="M212.9,35.2c0,0-1.2-0.2-1.2,0.7c0,0.9,0,0.9,0,0.9s0.1,0.9,1.3,0.9c1.1,0,1.9,1,1.1,3.3l-10.3,28.6h3.8
				l3.9-11h11l4.2,11h8l-12.2-34.2H212.9z M212.2,55.8l4.3-12.4l4.7,12.4H212.2z"/>
			<path class="st1" d="M283.9,69.4h8l-12.2-34.2h-9.4c0,0-1.2-0.2-1.2,0.7c0,0.9,0,0.9,0,0.9s0.1,0.9,1.3,0.9s1.9,1,1.1,3.3
				l-9.6,26.4l-8.4-13.1c7.7,0,8.1-9.1,8.1-9.1c0-10.3-13.5-10-13.5-10h-16l4,4.8v29.4h8l0.1-14.6h1l9.2,14.6h6.7h0h3.8l3.9-11h11
				L283.9,69.4z M244.1,51.8V37.9c0,0,9.5-0.8,9.5,7.8C253.6,45.8,253.6,52.5,244.1,51.8z M269.6,55.8l4.3-12.4l4.7,12.4H269.6z"/>
			<path class="st1" d="M168.8,57l-15.1-22.2h-11.9c0,0,0.4,2.3,2.5,2.3c1.3,0,1.7,1.1,1.8,2v30.3h3.7V42.3l17.1,27.1h2.1h1.8h1.8
				V34.8h-3.7V57z"/>
			<path class="st1" d="M193.4,52.5c1.8,0,2,1.2,2,1.9c0,0.6,0,8.3,0,8.3s-0.7,3.9-5.8,3.9c-5.1,0-7-5.6-7-10.1s0-8.8,0.7-12.3
				c0.7-3.6,2.9-6.9,6.3-6.9c3.5,0,4.9,3.1,4.9,4.9h7c0,0,0-7.3-11.6-7.3s-13.7,8.3-14.5,12.1c-0.8,3.8-1.2,14.2,3.2,18.6
				c4.4,4.3,10.3,4,12.4,3.6c0,0,2.4-0.7,4.8-2.5c2.4-1.8,6,1.7,6.6,2.8V50h-11.3C191.1,50,191.6,52.5,193.4,52.5z"/>
		</g>
	</g>
</g>
</svg>
