<?xml version="1.0" encoding="utf-8"?>
<!-- Generator: Adobe Illustrator 25.4.1, SVG Export Plug-In . SVG Version: 6.00 Build 0)  -->
<svg version="1.1" id="Layer_1" xmlns="http://www.w3.org/2000/svg" xmlns:xlink="http://www.w3.org/1999/xlink" x="0px" y="0px"
	 viewBox="0 0 201.8 80" style="enable-background:new 0 0 201.8 80;" xml:space="preserve">
<style type="text/css">
	.st0{fill-rule:evenodd;clip-rule:evenodd;}
	.st1{fill-rule:evenodd;clip-rule:evenodd;fill:#E0BB15;}
	.st2{fill-rule:evenodd;clip-rule:evenodd;fill:#398334;}
	.st3{fill-rule:evenodd;clip-rule:evenodd;fill:#B53220;}
</style>
<g>
	<path class="st0" d="M76.9,2.5c0.1,1.8,0.5,3.5,0.4,5.3c-0.1,0.7-1,1.1-0.9,2c0.2,0.9,5.4,2.4,7.5,3.6c2.1,1.2,1.6,3.1,3.5,4.6
		c4,3.3,10.7,7,11.3,8.7c0.5,1.4,1.7,4.7,1.4,5.7c-0.2,0.5-1.4,1.2-2.7,2.2c-1.7,1.2-3.8,2.6-5.4,2.5c-4.1-0.2-8.2-1.9-12.1-5.7
		c-7.6,0.9-10.5-2.5-12.2-7.1c-0.8,4.2,0.4,8.8,6.9,10.9C74,37.5,74.6,40,76,42.6c1.7,3.3,4.6,5.5,6.2,9.1c1.6,3.6,2.1,6.5,3.1,8.6
		c1.4,2.8,2.6,4.5,3.2,7.1c0.6,2.7,0.7,5.7-0.4,9.2c-0.1-7.1-7-15.7-16.5-15.2c-3.7-3.6-9-5.6-16.1-5.5c4.4-1.4,9.2-1.7,14.2-0.4
		c-8.1-7.9-9.9-18.3-9.5-25c0.3-6,2.8-11.7,7.9-14.4c2.1,1.8,4.4,2.6,6.9,1.8c-3-2.3-4.9-4-4.9-7.2C70.3,8.3,73.7,3.6,76.9,2.5
		L76.9,2.5z M66.9,10.4C68.2,8,69.4,5.5,71.4,4c0-1.4-0.2-2.7-1.2-4c-2.1,1.6-3.8,4.8-5.5,8.3c-7.1,2.3-9.1,6.5-18.5,8.7
		c0.5,1.2,1.3,2.2,2.3,2.8c-1.3,1.4-2.9,2.6-4.6,3.7c0.4,0.7,1,1.1,1.7,1.4c-3.4,1.9-5.8,4.2-7.3,6.9c1.3,0.1,2.9,0.6,3.7,1.3
		c-1,0.9-2,2.7-2.4,4.1c1.1,0.1,2.6-0.4,3.8-0.3c-1.6,1.1-3.5,2.9-4.2,4.7c1.1,0,2.9,0.4,3.6,0.7c-2.9,2.1-5.6,4.4-6.7,7.2
		c2.5-0.6,5-1.1,7.3-1.4c0.1,3-1.5,5.3-3.2,7.7c5.3-1.2,9.8-3.2,12.7-6.9C52.1,32.5,54.2,14.7,66.9,10.4L66.9,10.4z"/>
	<path class="st1" d="M25.1,25.7L11.9,10.1l-0.2,12.6C16.3,25,20.8,25.9,25.1,25.7L25.1,25.7z"/>
	<path class="st2" d="M0.6,27.6c7.1,3.5,13.4,6,20.8,8.2l0.3,1.5c-7-1.4-13.9-3.2-20.9-5.4L0.6,27.6L0.6,27.6z M0.9,34.3
		c7.2,2.7,15.2,3.9,21.2,5.3l0.3,2C16.4,40.8,1.9,40.9,0.9,34.3L0.9,34.3z M1.5,40.3c7.2,2.7,15.2,3.3,21.2,4.1l0.5,2.4
		c-4-0.6-12.1,0.4-17.2-1.7C3.6,44.1,1.8,42.4,1.5,40.3L1.5,40.3z M3.8,47.3C11,50,18,49.6,23.7,49.6l1.1,3c-3,0.1-9.9,1.1-14.9-0.4
		C7.3,51.6,4.2,49.5,3.8,47.3L3.8,47.3z M7.1,55c7.3,1.1,13.7,0.2,19.1-0.1l1,2C24.4,57.5,12.2,62.1,7.1,55L7.1,55z M12.5,62.1
		c7.1,0.7,13.5-2.3,16.5-3.4l2.5,2.2c-1.8,1.2-7.6,5.2-12.7,5C16.4,65.9,14.2,64.4,12.5,62.1L12.5,62.1z M20.5,68.2
		c6.1-0.8,9.9-3.9,12.4-5.6l1.9,1.2C30.6,68.5,24.8,72.6,20.5,68.2L20.5,68.2z M36.4,65.8c-0.2,2-0.8,4.2-2.4,5.5
		c-1.4,1.2-3.6,1.3-5.6,1.2C31.6,71,34.2,68.6,36.4,65.8L36.4,65.8z"/>
	<path class="st3" d="M0,18.6C11.4,28,23.9,29.2,28.1,31.9c2.9,1.9,7.8,3.3,7.6,9.3c-0.1,3.7-3.1,6.5-3.4,9.9c1.9,1,4.4,1.1,7.1,0.7
		c-0.3,1.9-1.6,3.3-2.6,5.1c3.7,0.8,6.9,0.5,10.1-0.9c0.7,1.7,1.8,3.1,3.3,3.2c25.9,2.7,27.8,11,30,19.2
		c-16.4,3.1-32.2,1.7-47.5-3.5c3.1-1.8,4.8-3.9,5.4-6.6c5,1,7.1-1.2,7.3-5.8c-6.6-0.8-12.8-3.3-16.7-10.7c-2.2-4.2-1.8-8.8-2.2-13.3
		c-0.3-3.6-3.3-4.9-7.5-6.2c-6.2-1.9-11-3.5-18.1-6.8C0.6,23.2,0.3,20.9,0,18.6L0,18.6z"/>
	<path class="st0" d="M124.9,2.5c-0.1,1.8-0.5,3.5-0.4,5.3c0.1,0.7,1,1.1,0.9,2c-0.2,0.9-5.4,2.4-7.5,3.6c-2.1,1.2-1.6,3.1-3.5,4.6
		c-4,3.3-10.7,7-11.3,8.7c-0.5,1.4-1.7,4.7-1.4,5.7c0.2,0.5,1.4,1.2,2.7,2.2c1.7,1.2,3.8,2.6,5.4,2.5c4.1-0.2,8.2-1.9,12.1-5.7
		c7.6,0.9,10.5-2.5,12.2-7.1c0.8,4.2-0.4,8.8-6.9,10.9c0.4,2.3-0.2,4.8-1.6,7.5c-1.7,3.3-4.6,5.5-6.2,9.1c-1.6,3.6-2.1,6.5-3.1,8.6
		c-1.4,2.8-2.6,4.5-3.2,7.1c-0.6,2.7-0.7,5.7,0.4,9.2c0.1-7.1,7-15.7,16.5-15.2c3.7-3.6,9-5.6,16.1-5.5c-4.4-1.4-9.2-1.7-14.2-0.4
		c8.1-7.9,9.9-18.3,9.5-25c-0.3-6-2.8-11.7-7.9-14.4c-2.1,1.8-4.4,2.6-6.9,1.8c3-2.3,4.9-4,4.9-7.2C131.4,8.3,128.1,3.6,124.9,2.5
		L124.9,2.5z M134.8,10.4c-1.3-2.4-2.5-4.9-4.4-6.4c0-1.4,0.2-2.7,1.2-4c2.1,1.6,3.8,4.8,5.5,8.3c7.1,2.3,9.1,6.5,18.5,8.7
		c-0.5,1.2-1.3,2.2-2.3,2.8c1.3,1.4,2.9,2.6,4.6,3.7c-0.4,0.7-1,1.1-1.7,1.4c3.4,1.9,5.8,4.2,7.3,6.9c-1.3,0.1-2.9,0.6-3.7,1.3
		c1,0.9,2,2.7,2.4,4.1c-1.1,0.1-2.6-0.4-3.8-0.3c1.6,1.1,3.5,2.9,4.2,4.7c-1.1,0-2.9,0.4-3.6,0.7c2.9,2.1,5.6,4.4,6.7,7.2
		c-2.5-0.6-5-1.1-7.3-1.4c-0.1,3,1.5,5.3,3.2,7.7c-5.3-1.2-9.8-3.2-12.7-6.9C149.7,32.5,147.5,14.7,134.8,10.4L134.8,10.4z"/>
	<path class="st1" d="M176.7,25.7l13.2-15.6l0.2,12.6C185.4,25,181,25.9,176.7,25.7L176.7,25.7z"/>
	<path class="st2" d="M201.1,27.6c-7.1,3.5-13.4,6-20.8,8.2l-0.3,1.5c7-1.4,13.9-3.2,20.9-5.4L201.1,27.6L201.1,27.6z M200.8,34.3
		c-7.2,2.7-15.2,3.9-21.2,5.3l-0.3,2C185.4,40.8,199.9,40.9,200.8,34.3L200.8,34.3z M200.2,40.3c-7.2,2.7-15.2,3.3-21.2,4.1
		l-0.5,2.4c4-0.6,12.1,0.4,17.2-1.7C198.2,44.1,199.9,42.4,200.2,40.3L200.2,40.3z M197.9,47.3c-7.2,2.7-14.2,2.3-19.9,2.3l-1.1,3
		c3,0.1,9.9,1.1,14.9-0.4C194.4,51.6,197.6,49.5,197.9,47.3L197.9,47.3z M194.7,55c-7.3,1.1-13.7,0.2-19.1-0.1l-1,2
		C177.3,57.5,189.5,62.1,194.7,55L194.7,55z M189.3,62.1c-7.1,0.7-13.5-2.3-16.5-3.4l-2.5,2.2c1.8,1.2,7.6,5.2,12.7,5
		C185.3,65.9,187.6,64.4,189.3,62.1L189.3,62.1z M181.3,68.2c-6.1-0.8-9.9-3.9-12.4-5.6l-1.9,1.2C171.1,68.5,176.9,72.6,181.3,68.2
		L181.3,68.2z M165.4,65.8c0.2,2,0.8,4.2,2.4,5.5c1.4,1.2,3.6,1.3,5.6,1.2C170.2,71,167.5,68.6,165.4,65.8L165.4,65.8z"/>
	<path class="st3" d="M201.8,18.6c-11.4,9.4-23.9,10.6-28.1,13.3c-2.9,1.9-7.8,3.3-7.6,9.3c0.1,3.7,3.1,6.5,3.4,9.9
		c-1.9,1-4.4,1.1-7.1,0.7c0.3,1.9,1.6,3.3,2.6,5.1c-3.7,0.8-6.9,0.5-10.1-0.9c-0.7,1.7-1.8,3.1-3.3,3.2c-25.9,2.7-27.8,11-30,19.2
		c16.4,3.1,32.2,1.7,47.5-3.5c-3.1-1.8-4.8-3.9-5.4-6.6c-5,1-7.1-1.2-7.3-5.8c6.6-0.8,12.9-3.3,16.7-10.7c2.2-4.2,1.8-8.8,2.2-13.3
		c0.3-3.6,3.3-4.9,7.5-6.2c6.2-1.9,11-3.5,18.1-6.8C201.1,23.2,201.4,20.9,201.8,18.6L201.8,18.6z"/>
</g>
</svg>
