<?xml version="1.0" encoding="utf-8"?>
<!-- Generator: Adobe Illustrator 25.4.1, SVG Export Plug-In . SVG Version: 6.00 Build 0)  -->
<svg version="1.1" id="Layer_1" xmlns="http://www.w3.org/2000/svg" xmlns:xlink="http://www.w3.org/1999/xlink" x="0px" y="0px"
	 viewBox="0 0 145.5 80" style="enable-background:new 0 0 145.5 80;" xml:space="preserve">
<style type="text/css">
	.st0{fill-rule:evenodd;clip-rule:evenodd;}
	.st1{fill-rule:evenodd;clip-rule:evenodd;fill:#E0BB15;}
	.st2{fill-rule:evenodd;clip-rule:evenodd;fill:#398334;}
	.st3{fill-rule:evenodd;clip-rule:evenodd;fill:#B53220;}
	.st4{fill-rule:evenodd;clip-rule:evenodd;fill:#5D3414;}
	.st5{fill:#332012;}
</style>
<g>
	<path class="st0" d="M58.2,1.6c0.1,1.1,0.3,2.2,0.3,3.4c0,0.5-0.7,0.7-0.6,1.3c0.1,0.6,3.5,1.5,4.8,2.3c1.4,0.8,1,2,2.2,2.9
		c2.6,2.1,6.8,4.5,7.2,5.6c0.3,0.9,1.1,3,0.9,3.7c-0.1,0.3-0.9,0.8-1.7,1.4c-1.1,0.8-2.5,1.6-3.4,1.6c-2.6-0.1-5.2-1.2-7.7-3.7
		c-4.8,0.6-6.7-1.6-7.8-4.5c-0.5,2.7,0.2,5.6,4.4,6.9c-0.2,1.5,0.1,3.1,1,4.8c1.1,2.1,3,3.5,3.9,5.8c1,2.3,1.3,4.2,2,5.5
		c0.9,1.8,1.7,2.9,2,4.5c0.4,1.7,0.4,3.6-0.3,5.9c0-4.5-4.5-10-10.5-9.7c-2.4-2.3-5.7-3.6-10.3-3.5c2.8-0.9,5.9-1.1,9-0.3
		c-5.2-5-6.3-11.7-6.1-15.9c0.2-3.8,1.8-7.5,5.1-9.2c1.4,1.2,2.8,1.6,4.4,1.1c-1.9-1.4-3.1-2.5-3.1-4.6C54,5.3,56.2,2.3,58.2,1.6
		L58.2,1.6z M51.9,6.6c0.8-1.5,1.6-3.1,2.8-4.1c0-0.9-0.1-1.7-0.8-2.5c-1.3,1-2.4,3.1-3.5,5.3c-4.5,1.5-5.8,4.1-11.8,5.6
		c0.3,0.8,0.8,1.4,1.5,1.8c-0.8,0.9-1.8,1.6-2.9,2.3c0.3,0.4,0.7,0.7,1.1,0.9c-2.2,1.2-3.7,2.7-4.7,4.4c0.8,0.1,1.9,0.4,2.4,0.8
		c-0.7,0.6-1.3,1.7-1.5,2.6c0.7,0,1.7-0.2,2.4-0.2c-1,0.7-2.2,1.9-2.7,3c0.7,0,1.9,0.3,2.3,0.5c-1.8,1.3-3.6,2.8-4.3,4.6
		c1.6-0.4,3.2-0.7,4.7-0.9c0.1,1.9-1,3.4-2,4.9c3.4-0.8,6.3-2.1,8.1-4.4C42.4,20.8,43.8,9.4,51.9,6.6L51.9,6.6z"/>
	<path class="st1" d="M25.2,16.4l-8.4-10l-0.1,8C19.6,15.9,22.4,16.5,25.2,16.4L25.2,16.4z"/>
	<path class="st2" d="M9.6,17.6c4.5,2.2,8.5,3.8,13.2,5.2l0.2,1c-4.4-0.9-8.9-2.1-13.3-3.5L9.6,17.6L9.6,17.6z M9.8,21.9
		c4.6,1.7,9.7,2.5,13.5,3.4l0.2,1.3C19.6,26,10.4,26.1,9.8,21.9L9.8,21.9z M10.1,25.7c4.6,1.7,9.7,2.1,13.5,2.6l0.3,1.5
		c-2.6-0.4-7.7,0.2-10.9-1.1C11.5,28.2,10.3,27,10.1,25.7L10.1,25.7z M11.6,30.2c4.6,1.7,9.1,1.5,12.7,1.5l0.7,1.9
		c-1.9,0.1-6.3,0.7-9.5-0.2C13.9,32.9,11.8,31.5,11.6,30.2L11.6,30.2z M13.7,35.1c4.7,0.7,8.7,0.1,12.2-0.1l0.6,1.3
		C24.7,36.7,17,39.6,13.7,35.1L13.7,35.1z M17.2,39.6c4.5,0.4,8.6-1.4,10.5-2.2l1.6,1.4c-1.2,0.8-4.8,3.3-8.1,3.2
		C19.7,42,18.2,41.1,17.2,39.6L17.2,39.6z M22.2,43.5c3.9-0.5,6.3-2.5,7.9-3.6l1.2,0.8C28.7,43.7,25,46.3,22.2,43.5L22.2,43.5z
		 M32.4,41.9c-0.2,1.3-0.5,2.7-1.5,3.5c-0.9,0.8-2.3,0.8-3.6,0.8C29.3,45.3,31,43.8,32.4,41.9L32.4,41.9z"/>
	<path class="st3" d="M9.2,11.9c7.3,6,15.3,6.7,17.9,8.5c1.9,1.2,4.9,2.1,4.9,5.9c0,2.4-2,4.1-2.2,6.3c1.2,0.6,2.8,0.7,4.5,0.4
		c-0.2,1.2-1,2.1-1.7,3.3c2.3,0.5,4.4,0.3,6.4-0.6c0.5,1.1,1.1,2,2.1,2.1c16.5,1.7,17.8,7,19.2,12.2c-10.4,2-20.5,1.1-30.3-2.3
		c2-1.1,3.1-2.5,3.5-4.2c3.2,0.7,4.5-0.8,4.6-3.7C34,39.3,30,37.7,27.5,33c-1.4-2.7-1.2-5.6-1.4-8.5c-0.2-2.3-2.1-3.2-4.8-4
		c-3.9-1.2-7-2.2-11.6-4.3C9.6,14.8,9.4,13.3,9.2,11.9L9.2,11.9z"/>
	<path class="st0" d="M88.8,1.6c-0.1,1.1-0.3,2.2-0.3,3.4c0,0.5,0.7,0.7,0.6,1.3c-0.1,0.6-3.5,1.5-4.8,2.3c-1.4,0.8-1,2-2.2,2.9
		c-2.6,2.1-6.8,4.5-7.2,5.6c-0.3,0.9-1.1,3-0.9,3.7c0.1,0.3,0.9,0.8,1.7,1.4c1.1,0.8,2.5,1.6,3.4,1.6c2.6-0.1,5.2-1.2,7.7-3.7
		c4.8,0.6,6.7-1.6,7.8-4.5c0.5,2.7-0.2,5.6-4.4,6.9c0.2,1.5-0.1,3.1-1,4.8c-1.1,2.1-3,3.5-3.9,5.8c-1,2.3-1.3,4.2-2,5.5
		c-0.9,1.8-1.7,2.9-2,4.5c-0.4,1.7-0.4,3.6,0.3,5.9c0-4.5,4.5-10,10.5-9.7c2.4-2.3,5.7-3.6,10.3-3.5c-2.8-0.9-5.9-1.1-9-0.3
		c5.2-5,6.3-11.7,6.1-15.9c-0.2-3.8-1.8-7.5-5.1-9.2C93,11.5,91.6,12,90,11.5c1.9-1.4,3.1-2.5,3.1-4.6C93,5.3,90.9,2.3,88.8,1.6
		L88.8,1.6z M95.2,6.6c-0.8-1.5-1.6-3.1-2.8-4.1c0-0.9,0.1-1.7,0.8-2.5c1.3,1,2.4,3.1,3.5,5.3c4.5,1.5,5.8,4.1,11.8,5.6
		c-0.3,0.8-0.8,1.4-1.5,1.8c0.8,0.9,1.8,1.6,2.9,2.3c-0.3,0.4-0.7,0.7-1.1,0.9c2.2,1.2,3.7,2.7,4.7,4.4c-0.8,0.1-1.9,0.4-2.4,0.8
		c0.7,0.6,1.3,1.7,1.5,2.6c-0.7,0-1.7-0.2-2.4-0.2c1,0.7,2.2,1.9,2.7,3c-0.7,0-1.9,0.3-2.3,0.5c1.8,1.3,3.6,2.8,4.3,4.6
		c-1.6-0.4-3.2-0.7-4.7-0.9c-0.1,1.9,1,3.4,2,4.9c-3.4-0.8-6.3-2.1-8.1-4.4C104.6,20.8,103.3,9.4,95.2,6.6L95.2,6.6z"/>
	<path class="st1" d="M121.8,16.4l8.4-10l0.1,8C127.5,15.9,124.6,16.5,121.8,16.4L121.8,16.4z"/>
	<path class="st2" d="M137.5,17.6c-4.5,2.2-8.5,3.8-13.2,5.2l-0.2,1c4.4-0.9,8.9-2.1,13.3-3.5L137.5,17.6L137.5,17.6z M137.3,21.9
		c-4.6,1.7-9.7,2.5-13.5,3.4l-0.2,1.3C127.4,26,136.7,26.1,137.3,21.9L137.3,21.9z M136.9,25.7c-4.6,1.7-9.7,2.1-13.5,2.6l-0.3,1.5
		c2.6-0.4,7.7,0.2,10.9-1.1C135.6,28.2,136.7,27,136.9,25.7L136.9,25.7z M135.4,30.2c-4.6,1.7-9.1,1.5-12.7,1.5l-0.7,1.9
		c1.9,0.1,6.3,0.7,9.5-0.2C133.2,32.9,135.2,31.5,135.4,30.2L135.4,30.2z M133.4,35.1c-4.7,0.7-8.7,0.1-12.2-0.1l-0.6,1.3
		C122.3,36.7,130.1,39.6,133.4,35.1L133.4,35.1z M129.9,39.6c-4.5,0.4-8.6-1.4-10.5-2.2l-1.6,1.4c1.2,0.8,4.8,3.3,8.1,3.2
		C127.4,42,128.8,41.1,129.9,39.6L129.9,39.6z M124.8,43.5c-3.9-0.5-6.3-2.5-7.9-3.6l-1.2,0.8C118.3,43.7,122,46.3,124.8,43.5
		L124.8,43.5z M114.6,41.9c0.2,1.3,0.5,2.7,1.5,3.5c0.9,0.8,2.3,0.8,3.6,0.8C117.7,45.3,116,43.8,114.6,41.9L114.6,41.9z"/>
	<path class="st3" d="M137.9,11.9c-7.3,6-15.3,6.7-17.9,8.5c-1.9,1.2-4.9,2.1-4.9,5.9c0,2.4,2,4.1,2.2,6.3c-1.2,0.6-2.8,0.7-4.5,0.4
		c0.2,1.2,1,2.1,1.7,3.3c-2.3,0.5-4.4,0.3-6.4-0.6c-0.5,1.1-1.1,2-2.1,2.1c-16.5,1.7-17.8,7-19.2,12.2c10.4,2,20.5,1.1,30.3-2.3
		c-2-1.1-3.1-2.5-3.5-4.2c-3.2,0.7-4.5-0.8-4.6-3.7c4.2-0.5,8.2-2.1,10.7-6.8c1.4-2.7,1.2-5.6,1.4-8.5c0.2-2.3,2.1-3.2,4.8-4
		c3.9-1.2,7-2.2,11.6-4.3C137.5,14.8,137.7,13.3,137.9,11.9L137.9,11.9z"/>
	<g>
		<path class="st4" d="M94.7,58.1v11.3l4.9-6h5l-6.4,7.8l7.1,8.7h-5l-5.6-6.9v6.4h-3.9V62.1L94.7,58.1L94.7,58.1z M106.5,63.4h3.9
			v11.3l-3.9,4.8V63.4L106.5,63.4z M110.4,62.4h-3.8l3.8-4.8V62.4L110.4,62.4z M17,63.4h3.9v11.3L17,79.5V63.4L17,63.4z M20.9,62.4
			h-3.8l3.8-4.8V62.4L20.9,62.4z M26.8,63.4h8.7l-3,4h-5.8v7.3l-3.9,4.8V67.4C22.9,64.5,24.3,63.4,26.8,63.4L26.8,63.4z M81.3,63.4
			h8.7l-3,4h-5.8v7.3l-3.9,4.8V67.4C77.5,64.5,78.9,63.4,81.3,63.4L81.3,63.4z M128.4,76.3V66c0-1.2-1.2-2.6-2.5-2.6h-10.6
			c-1.9,0-2.9,1.5-2.9,3.4v12.7h3.9l-0.1-12.3h8.5v12.3L128.4,76.3L128.4,76.3z M75.6,63.4l0,13.5c0,1.2-1.3,2.6-2.5,2.6H62.4
			c-1.9,0-2.9-1.5-2.9-3.4V63.4h3.9l-0.1,12.3h8.5V67L75.6,63.4L75.6,63.4z M48.6,63.4h6.3c1.2,0,2.6,1.1,2.6,2.2v11.3
			c0,1.2-1.3,2.6-2.5,2.6H44.3c-1.9,0-3-1.4-2.9-3.3l0.1-14.3l3.8-4.3l-0.1,18.1h8.5V67h-7.9L48.6,63.4L48.6,63.4z M132.8,63.4h10.3
			c1.1,0,2.4,1.1,2.4,2.2v11.3c0,1.2-1.2,2.6-2.3,2.6h-9.7c-1.3,0-2.6-0.7-2.6-1.9v-1.9h0v-4.1c0-1.2,0.7-1.8,2.3-1.8h8.1l-2.8,3.4
			h-4.4v2.6h7.4V67h-11.1L132.8,63.4L132.8,63.4z M2.4,63.4h10.3c1.1,0,2.4,1.1,2.4,2.2v11.3c0,1.2-1.2,2.6-2.3,2.6H3
			c-1.3,0-2.6-0.7-2.6-1.9v-1.9h0v-4.1c0-1.2,0.7-1.8,2.3-1.8h8.1l-2.8,3.4H3.8v2.6h7.4V67H0.1L2.4,63.4L2.4,63.4z"/>
		<path class="st5" d="M105.5,80h-5.2l0,0l-5.5-6.7v6.3h-4V62.1l0,0l4-4.1v11.3l4.8-5.8h5.2l-6.5,7.9L105.5,80z M100.3,79.9h4.8
			l-7.1-8.6l0,0l6.3-7.7h-4.8l-5,6.1V58.3l-3.7,3.9v17.3h3.7v-6.5L100.3,79.9z M77.4,79.7V67.4c0-2.7,1.3-4,3.9-4h8.9l-3.1,4.1h-5.7
			v7.2L77.4,79.7z M81.3,63.5c-2.6,0-3.8,1.2-3.8,3.9v11.9l3.7-4.7v-7.3h5.8l2.9-3.8H81.3z M22.8,79.7V67.4c0-2.7,1.3-4,3.9-4h8.9
			l-3.1,4.1h-5.7v7.2L22.8,79.7z M26.8,63.5c-2.6,0-3.8,1.2-3.8,3.9v11.9l3.7-4.7v-7.3h5.8l2.9-3.8H26.8z M16.9,79.7V63.4h4v11.4
			l0,0L16.9,79.7z M17.1,63.5v15.8l3.7-4.6V63.5H17.1z M106.4,79.7V63.4h4v11.4l0,0L106.4,79.7z M106.6,63.5v15.8l3.7-4.6V63.5
			H106.6z M124.6,79.6V67.3h-8.3l0.1,12.3h-4V66.8c0-1.1,0.3-2,0.9-2.7c0.5-0.5,1.2-0.8,2-0.8h10.6c1.3,0,2.6,1.5,2.6,2.7v10.3l0,0
			L124.6,79.6z M112.5,79.4h3.7l-0.1-12.3h8.6v12.2l3.6-3.1V66c0-1.1-1.2-2.5-2.4-2.5h-10.6c-0.8,0-1.4,0.3-1.9,0.7
			c-0.6,0.6-0.9,1.5-0.9,2.5V79.4z M143.1,79.6h-9.7c-1.3,0-2.6-0.7-2.6-2v-2h0v-4.1c0-1.3,0.7-1.9,2.4-1.9h8.3l-2.9,3.5h-4.3v2.5
			h7.3v-8.5h-11.1l2.4-3.7h10.3c1.2,0,2.4,1.2,2.4,2.3v11.3C145.5,78.1,144.4,79.6,143.1,79.6z M130.9,75.8v1.8
			c0,1.1,1.3,1.8,2.5,1.8h9.7c1.1,0,2.2-1.4,2.2-2.5V65.6c0-1-1.2-2.1-2.3-2.1h-10.2l-2.2,3.4h11v8.8h-7.6V73h4.4l2.6-3.2h-8
			c-1.5,0-2.2,0.5-2.2,1.8L130.9,75.8L130.9,75.8z M73,79.6H62.4c-0.8,0-1.5-0.3-2-0.8c-0.6-0.6-0.9-1.6-0.9-2.7V63.4h4l-0.1,12.3
			h8.3V67l0,0l3.9-3.7l0,13.6C75.6,78.1,74.4,79.6,73,79.6z M59.6,63.5v12.6c0,1.1,0.3,2,0.9,2.5c0.5,0.5,1.1,0.7,1.9,0.7H73
			c1.2,0,2.4-1.4,2.4-2.5l0-13.3L71.8,67v8.7h-8.6l0.1-12.3H59.6z M54.9,79.6H44.3c-0.9,0-1.6-0.3-2.1-0.8c-0.6-0.6-0.9-1.5-0.9-2.5
			l0.1-14.4l0,0l3.9-4.5l0,0.2l-0.1,18.1h8.3v-8.5h-8l3-3.7h6.3c1.3,0,2.7,1.2,2.7,2.3v11.3C57.5,78.1,56.2,79.6,54.9,79.6z
			 M41.5,61.9l-0.1,14.3c0,1,0.3,1.9,0.9,2.4c0.5,0.5,1.2,0.8,2,0.8h10.6c1.1,0,2.4-1.2,2.4-2.5V65.6c0-1-1.3-2.1-2.5-2.1h-6.2
			l-2.7,3.4h7.8v8.8h-8.6l0-0.1l0.1-17.9L41.5,61.9z M12.7,79.6H3c-1.3,0-2.6-0.7-2.6-2v-2h0v-4.1c0-1.3,0.7-1.9,2.4-1.9h8.3
			l-2.9,3.5H3.9v2.5h7.3v-8.5H0l2.4-3.7h10.3c1.2,0,2.4,1.2,2.4,2.3v11.3C15.1,78.1,14,79.6,12.7,79.6z M0.5,75.8v1.8
			c0,1.1,1.3,1.8,2.5,1.8h9.7c1.1,0,2.2-1.4,2.2-2.5V65.6c0-1-1.2-2.1-2.3-2.1H2.4l-2.2,3.4h11v8.8H3.7V73h4.4l2.6-3.2h-8
			c-1.5,0-2.2,0.5-2.2,1.8L0.5,75.8L0.5,75.8z M110.5,62.5h-4l4-5.1V62.5z M106.8,62.3h3.5v-4.5L106.8,62.3z M21,62.5h-4l4-5.1V62.5
			z M17.3,62.3h3.5v-4.5L17.3,62.3z"/>
	</g>
</g>
</svg>
