<?xml version="1.0" encoding="utf-8"?>
<!-- Generator: Adobe Illustrator 25.4.1, SVG Export Plug-In . SVG Version: 6.00 Build 0)  -->
<svg version="1.1" id="Layer_1" xmlns="http://www.w3.org/2000/svg" xmlns:xlink="http://www.w3.org/1999/xlink" x="0px" y="0px"
	 viewBox="0 0 315.4 80" style="enable-background:new 0 0 315.4 80;" xml:space="preserve">
<style type="text/css">
	.st0{fill:#878786;}
</style>
<g>
	<g>
		<path class="st0" d="M291.8,67.8c0,0,0-0.1,0.2-0.3c0.2-0.2,0.6-0.4,1-0.4l8,0l0.8-2.7l-7.9,0c-1.7,0-3,0.4-4,1.1
			c-0.7,0.5-1.2,1.3-1.5,2.2c-0.5,1.8,0.2,2.6,0.2,2.6s0.7,1.2,3.3,1.1c0,0,2.3,0,3.7,0c0.5,0,0.7,0.1,0.8,0.3
			c0.1,0.1,0.1,0.2,0.1,0.2c0,0.1,0,0.2,0,0.2s-0.1,0.2-0.1,0.4c0,0,0,0.1-0.2,0.3c-0.2,0.2-0.6,0.4-1,0.4l-8.2,0l-0.8,2.8l8.1,0
			c1.7,0,3-0.4,4-1.1c0.8-0.6,1.4-1.5,1.6-2.6c0,0,0.1-0.3,0.1-0.8c0-0.5-0.2-1-0.4-1.4c-0.3-0.3-1.1-1.1-3.4-1.1h-3.6
			c-0.5,0-0.7-0.2-0.7-0.3c-0.1-0.1-0.1-0.2-0.1-0.3c0-0.1,0-0.2,0-0.3C291.7,68.1,291.8,68,291.8,67.8"/>
		<path class="st0" d="M288.3,64.6h-4.7c0,0-4,6-4.6,6.8c0,0,0,0.1,0,0.1h0l0-0.1c-0.1-1-0.6-6.9-0.6-6.9h-4.1l1.6,11.5h0l-0.5,0.7
			c-0.1,0.1-0.2,0.2-0.3,0.3c-0.6,0.4-1.9,0.3-3.1,0.3l-0.4,0l-0.7,2.8l1.8,0c2.1,0,3.6-0.4,4.8-1.2c0.4-0.3,0.8-0.6,1.1-1
			c0.3-0.5,1.2-1.6,1.3-1.8h0L288.3,64.6z"/>
	</g>
	<g>
		<path class="st0" d="M266.9,75.3l-0.2,0.7l3.4,0l2.2-7.8c0.3-1.1,0.2-2-0.2-2.6c-0.6-0.7-1.7-1.1-3.3-1.1h-8l-0.7,2.7l8.1,0
			c0.4,0,0.7,0.2,0.8,0.4c0,0.1,0,0.3,0,0.3c-0.1,0.2-0.1,0.3-0.1,0.4c0,0-0.2,0.5-0.2,0.8h-4.7c-2.9,0-5,1-5.7,3.5
			c-0.1,0.2-0.1,0.6-0.1,0.8c0,0.5,0.1,1.1,0.4,1.5c0.6,0.8,1.7,1.1,3.4,1.1h2.7C265.6,76,266.4,75.7,266.9,75.3L266.9,75.3z
			 M267.5,72.4c-0.1,0.4-0.4,0.8-1.4,0.8l-1.7,0l-2,0c-0.4,0-0.6-0.1-0.7-0.3c-0.1-0.1-0.1-0.2-0.1-0.3c0-0.1,0-0.2,0-0.3
			c0,0,0-0.1,0-0.2c0.3-0.8,1.2-0.8,1.4-0.8h4.7L267.5,72.4z"/>
		<path class="st0" d="M254.7,64.6c0,0-4,6-4.6,6.8c0,0,0,0.1,0,0.1h0l0-0.1c-0.1-1-0.6-6.9-0.6-6.9h-4.1l0,0c0,0-4,6-4.6,6.8
			c0,0,0,0.1,0,0.1h0l0-0.1c-0.1-1-0.6-6.9-0.6-6.9h-4.1l1.6,11.5h3.9l4.5-6.5L247,76h3.9l8.5-11.5H254.7z"/>
		<path class="st0" d="M235.1,64.5h-1.4c-0.7,0-1.5,0.2-2.2,0.6l-0.1,0.1l0,0l0-0.2l0.1-0.5h-3.4L224.8,76h3.6l2-7.1
			c0.2-0.7,0.7-1.2,1.4-1.4c0.2,0,0.3-0.1,0.5-0.1c0,0,1-0.1,1.9,0L235.1,64.5z"/>
		<path class="st0" d="M221.9,64.5L218.7,76h3.6l3.2-11.6H221.9z M223.1,60.1l-0.8,2.8h3.6l0.8-2.8H223.1z"/>
		<path class="st0" d="M213.2,75.3L213,76l3.4,0l2.2-7.8c0.3-1.1,0.2-2-0.2-2.6c-0.6-0.7-1.7-1.1-3.3-1.1h-8l-0.7,2.7l8.1,0
			c0.4,0,0.7,0.2,0.8,0.4c0,0.1,0,0.3,0,0.3c-0.1,0.2-0.1,0.3-0.1,0.4c0,0-0.2,0.5-0.2,0.8h-4.7c-2.9,0-5,1-5.7,3.5
			c-0.1,0.2-0.1,0.6-0.1,0.8c0,0.5,0.1,1.1,0.4,1.5c0.6,0.8,1.7,1.1,3.4,1.1h2.7C211.9,76,212.7,75.7,213.2,75.3L213.2,75.3z
			 M213.8,72.4c-0.1,0.4-0.4,0.8-1.4,0.8l-1.7,0l-2,0c-0.4,0-0.6-0.1-0.7-0.3c-0.1-0.1-0.1-0.2-0.1-0.3c0-0.1,0-0.2,0-0.3
			c0,0,0-0.1,0-0.2c0.3-0.8,1.2-0.8,1.4-0.8h4.7L213.8,72.4z"/>
		<path class="st0" d="M296.4,14.8c-12,0-19.3,2.4-22.1,12.6c0,0-0.7,2-1.3,4.2c-1,3.4-2,7.6-2,7.6c-1.1,4-1,7.1,0.8,9.5
			c2.3,3.1,7.1,4.7,14.2,4.7h19l2.8-9.8l-19.6,0c-1.8,0-3.2-0.5-3.8-1.3c-0.5-0.7-0.5-1.7-0.2-2.9c0,0,0.6-2.9,1.3-5.6
			c0.7-2.5,1.6-4.8,1.6-4.8c1-3.1,3.6-4.5,7.2-4.5l7.1-0.1l11.4,0.1l2.7-9.6H296.4z"/>
		<path class="st0" d="M262.6,0L260,9.4h12.1l2.6-9.4C274.7,0,262.6,0,262.6,0z M258.5,14.7l-10.9,38.7h12.1l10.9-38.7H258.5z"/>
		<path class="st0" d="M231.9,0l-11,39.3c-1.1,4.1-0.8,7.4,1,9.7c2.2,2.9,6.5,4.3,13.1,4.3h5.7l2.6-9.6l-1,0c-3.8,0.1-8.2,0.5-9.4-1
			c-0.4-0.6-0.5-1.2-0.2-2.3l4.4-15.9h11.2l2.8-9.8h-11.3L244,0H231.9z"/>
		<path class="st0" d="M174.1,27.2c0,0-3.8,13.8-3.8,13.8c-1,3.7-0.8,6.5,0.7,8.6c1.9,2.5,5.6,3.8,11.2,3.8H209l2.6-9.4l-26.8,0
			c-1.1,0-2-0.3-2.5-1c-0.2-0.3-0.3-0.7-0.3-1.1c0-0.3,0.1-0.6,0.2-0.9c0,0,0.5-1.8,0.8-2.8h31.4l3.2-11.3c0.4-1.3,0.5-2.5,0.5-3.7
			c0-1.8-0.5-3.3-1.4-4.6c-1.9-2.5-5.6-3.8-11.4-3.8h-12.1C182.9,14.8,176.5,18.9,174.1,27.2z M186.3,26.4c0.4-1.2,1.4-2.6,4.6-2.6
			l6-0.1l6.3,0.1c1.3,0,2.3,0.3,2.7,0.9c0.2,0.2,0.3,0.5,0.3,0.8c0,0.2,0,0.4-0.1,0.6L205,30h-19.7L186.3,26.4z"/>
		<path class="st0" d="M160,15c0,0-13.3,19.9-15.2,22.9c0,0-0.1,0.4-0.1,0.4l0,0l0.1-0.3c-0.3-3.5-2.1-22.9-2.1-22.9h-13.6l5.2,38.4
			h13.1L175.8,15H160z"/>
		<polygon class="st0" points="116.1,0 101.1,53.4 113.8,53.4 128.9,0 		"/>
	</g>
	<g>
		<path class="st0" d="M58.5,27.2c0,0-3.8,13.8-3.8,13.8c-1,3.7-0.8,6.5,0.7,8.6c1.9,2.5,5.6,3.8,11.2,3.8h26.8l2.7-9.4l-26.9,0
			c-1.1,0-2-0.3-2.5-1c-0.2-0.3-0.3-0.7-0.3-1.1c0-0.3,0.1-0.6,0.2-0.9c0,0,0.5-1.8,0.8-2.8h31.5l3.2-11.3c0.4-1.3,0.5-2.5,0.5-3.7
			c0-1.8-0.5-3.3-1.4-4.6c-1.9-2.5-5.6-3.8-11.4-3.8H77.6C67.2,14.8,60.8,18.9,58.5,27.2z M70.7,26.4c0.4-1.2,1.4-2.6,4.6-2.6
			l5.7-0.1l6.6,0.1c1.3,0,2.3,0.3,2.7,0.9c0.2,0.2,0.3,0.5,0.3,0.8c0,0.2,0,0.4-0.1,0.6L89.3,30H69.6L70.7,26.4z"/>
		<path class="st0" d="M36.3,24.6c0.8,0,1.5,0.1,2.1,0.3c1.4,0.5,1.9,1.6,1.4,3.5c0,0-7,25.1-7,25.1h11.9l7.2-25.8
			c1.1-3.9,0.8-6.9-0.9-9c-1.9-2.3-6.3-3.8-11.4-3.8H29.5c-2.4,0-5.1,0.5-7.4,2l-0.5,0.4l-0.1,0l0.2-0.5L26.3,0H15L0,53.4h11.9
			l6.6-23.7c0.7-2.4,2.4-4.1,4.8-4.8c0.6-0.2,1-0.3,1.6-0.3c0,0,2.6-0.2,5.9-0.2C32.8,24.4,36.3,24.6,36.3,24.6"/>
	</g>
</g>
</svg>
