<?xml version="1.0" encoding="utf-8"?>
<!-- Generator: Adobe Illustrator 25.4.1, SVG Export Plug-In . SVG Version: 6.00 Build 0)  -->
<svg version="1.1" id="Layer_1" xmlns="http://www.w3.org/2000/svg" xmlns:xlink="http://www.w3.org/1999/xlink" x="0px" y="0px"
	 viewBox="0 0 554.4 80" style="enable-background:new 0 0 554.4 80;" xml:space="preserve">
<style type="text/css">
	.st0{fill:#1E7C34;}
</style>
<g>
	<path class="st0" d="M554.4,50.8v-2.6h-53.8L486.2,0c0,0-31.6,0.4-32.8,0l-36.7,48.3h-24L446.4,0h-37l-26.2,25.3L368.4,0h-36.9
		l28.3,48.3h-25.3L320,0c0,0-31.6,0.4-32.8,0l-36.7,48.3h-18.9l11.8-47.7h-41c0,0-22,30.6-23.3,32.1c-1.3,1.5-2.5-0.5-2.5-0.5
		l-9.5-31.6h-41.1l-14.6,47.7H86.9l-2.2,2.6h25.9l-1.4,4.7H80.9l-2.2,2.6h29.8L101.8,80h34.1l4.5-21.9h9.8l5.7,21.9h22.1l14.9-21.9
		h7.7L194,80h29.8l5.4-21.9h13.9L226.4,80h31.6l16.2-21.9h5.5l-4.6,6.7h30.5L310,80h34l-6.5-21.9H360L354.9,80h29.3l4.3-21.9h20.8
		L392.6,80h31.6l16.2-21.9h5.5l-4.6,6.7h30.5l4.3,15.2h34l-6.5-21.9h50.8v-2.6h-51.6l-1.4-4.7H554.4z M459.8,32.1h2.6l3.6,13.2
		h-11.2l-2,2.9h-4.9L459.8,32.1z M293.6,32.1h2.6l3.6,13.2h-11.2l-2,2.9h-4.9L293.6,32.1z M203.2,42.9h2l-1.6,5.4h-4L203.2,42.9z
		 M143.6,42.3h2.5l1.6,6h-5.2L143.6,42.3z M140.9,55.5l1-4.7h6.4l1.2,4.7H140.9z M194.7,55.5l3.2-4.7h5l-1.4,4.7H194.7z M229.8,55.5
		l1.2-4.7h17.6l-3.6,4.7H229.8z M276.2,55.5l3.5-4.7h5.1l-3.2,4.7H276.2z M336.6,55.5l-1.4-4.7h26.1l0.3,0.6l-1,4.1H336.6z
		 M389,55.5l0.9-4.7h24.9l-3.6,4.7H389z M447.7,55.5h-5.3l3.5-4.7h5.1L447.7,55.5z"/>
	<path class="st0" d="M100,32.7l-13,15.6l-2.2,2.6l-3.9,4.7l-2.2,2.6H0l56.1-30.8c2.5-1.2,2.2,0.1,1.8,0.5
		c-2.5,3.1-7.9,9.6-10.1,12.5c-3.2,4.1,2.2,5.1,2.2,5.1h30.1L100,32.7z"/>
</g>
</svg>
