<?xml version="1.0" encoding="utf-8"?>
<!-- Generator: Adobe Illustrator 25.4.1, SVG Export Plug-In . SVG Version: 6.00 Build 0)  -->
<svg version="1.1" id="Layer_1" xmlns="http://www.w3.org/2000/svg" xmlns:xlink="http://www.w3.org/1999/xlink" x="0px" y="0px"
	 viewBox="0 0 140.26 80" style="enable-background:new 0 0 140.26 80;" xml:space="preserve">
<style type="text/css">
	.st0{fill:#2E378F;}
	.st1{fill:#F6B624;}
	.st2{fill:#EE272B;}
</style>
<polygon class="st0" points="0,80 80.46,80 94.8,0 "/>
<path class="st1" d="M83.72,34.94l0.66-26.16l-2.2,1.86l-0.61,24.53l-2.96,10.88h0.01c-0.01,0-0.01,0-0.01,0l0.01,0l-5.08-9.28
	l-2.71-16.54l-1.91,1.61l2.39,14.93v11.68l0.07-0.02c-0.04,0.02-0.08,0.03-0.12,0.05l0.05-0.03l-7-8.21l-6.03-9.42l-1.62,1.37
	l5.76,9.01l2.74,10.49l0.07-0.04c-0.05,0.03-0.1,0.07-0.15,0.1l0.07-0.06l-9.35-6.32l-5.92-7.47l-1.59,1.34l5.86,7.4l5.27,9.42
	l-10.75-4.3l-7.87-6.2l-1.59,1.34l8.1,6.4l7.43,7.85l0.07-0.08c-0.04,0.05-0.08,0.09-0.12,0.15l0.04-0.07l-11.66-2.01l-12.08-5.32
	l-1.69,1.43l12.76,5.62L51,67.13l0.06-0.1c-0.04,0.08-0.07,0.15-0.11,0.23L51,67.13l-11.47-0.79l-17.67-4.78l-1.83,1.55l18.82,5.09
	l9.71,5.2l-11.37,1.34l-29-1.65l-2.18,1.84l30.88,1.75l10.51,2.93l39.55-32.76L83.72,34.94L83.72,34.94z"/>
<polygon class="st2" points="45.46,80 125.92,80 140.26,0 "/>
</svg>
