<?xml version="1.0" encoding="utf-8"?>
<!-- Generator: Adobe Illustrator 25.4.1, SVG Export Plug-In . SVG Version: 6.00 Build 0)  -->
<svg version="1.1" id="Layer_1" xmlns="http://www.w3.org/2000/svg" xmlns:xlink="http://www.w3.org/1999/xlink" x="0px" y="0px"
	 viewBox="0 0 405.35 80" style="enable-background:new 0 0 405.35 80;" xml:space="preserve">
<style type="text/css">
	.st0{fill:#2E378F;}
	.st1{fill:#F6B624;}
	.st2{fill:#EE272B;}
</style>
<g>
	<g>
		<polygon class="st0" points="0,70.62 71.03,70.62 83.68,0 		"/>
		<path class="st1" d="M73.9,30.85l0.59-23.09L72.55,9.4l-0.54,21.65l-2.62,9.61h0c0,0-0.01,0-0.01,0l0.01,0l-4.48-8.19l-2.39-14.6
			l-1.69,1.42l2.11,13.18v10.31L63,42.75c-0.03,0.02-0.07,0.03-0.1,0.05l0.04-0.02l-6.18-7.25l-5.32-8.32l-1.43,1.21l5.09,7.96
			l2.42,9.26l0.07-0.03c-0.05,0.03-0.09,0.06-0.13,0.09l0.07-0.05l-8.26-5.58l-5.22-6.59l-1.4,1.18l5.17,6.53l4.66,8.32l-9.49-3.8
			l-6.95-5.47l-1.4,1.18l7.15,5.65l6.56,6.93l0.06-0.07c-0.04,0.04-0.07,0.08-0.1,0.13l0.04-0.06L38.05,52.2l-10.66-4.7l-1.49,1.26
			l11.26,4.96l7.86,5.53l0.06-0.09c-0.03,0.07-0.06,0.13-0.1,0.2l0.04-0.11l-10.13-0.7L19.3,54.34l-1.62,1.37l16.61,4.5l8.57,4.59
			l-10.04,1.18l-25.6-1.46l-1.92,1.63l27.26,1.55l9.28,2.59l34.91-28.92L73.9,30.85L73.9,30.85z"/>
		<polygon class="st2" points="40.13,70.62 111.15,70.62 123.81,0 		"/>
		<g>
			<path class="st0" d="M140.21,70.86h-6.91l7.03-33.56h13.65c2.43,0,4.35,0.29,5.76,0.86c1.41,0.57,2.53,1.52,3.35,2.84
				c0.82,1.32,1.24,2.9,1.24,4.73c0,1.69-0.33,3.34-0.98,4.95s-1.46,2.88-2.42,3.85c-0.95,0.96-1.98,1.69-3.08,2.19
				c-1.1,0.5-2.58,0.87-4.44,1.13c-1.08,0.15-3.11,0.23-6.09,0.23h-4.42L140.21,70.86z M144.03,52.5h2.13c3.65,0,6.08-0.23,7.3-0.69
				c1.22-0.46,2.18-1.19,2.88-2.2c0.7-1.01,1.05-2.11,1.05-3.32c0-0.81-0.18-1.47-0.54-1.99c-0.36-0.52-0.86-0.9-1.51-1.13
				c-0.65-0.24-2.1-0.35-4.34-0.35h-4.95L144.03,52.5z"/>
			<path class="st0" d="M183.09,63.44h-13.3l-4.03,7.42h-7.1l18.98-33.56h7.67l5.45,33.56h-6.55L183.09,63.44z M182.25,57.86
				l-1.95-13.51l-8.1,13.51H182.25z"/>
			<path class="st0" d="M195.16,70.86l7.03-33.56h6.89l-5.84,27.95h17.08l-1.17,5.61H195.16z"/>
		</g>
		<g>
			<g>
				<path class="st0" d="M286.5,46.22h6.26l-0.53,2.51c1.33-1.11,2.59-1.9,3.75-2.37c1.17-0.48,2.42-0.71,3.75-0.71
					c2.56,0,4.62,0.88,6.18,2.65c1.56,1.77,2.34,4.4,2.34,7.9c0,4.41-1.34,8.13-4.03,11.17c-2.3,2.59-5.03,3.89-8.17,3.89
					c-3.24,0-5.69-1.31-7.35-3.94L286.06,80h-6.61L286.5,46.22z M290.48,60.24c0,1.9,0.46,3.38,1.39,4.43
					c0.93,1.05,2.02,1.58,3.28,1.58c1.09,0,2.14-0.4,3.16-1.19c1.01-0.79,1.85-2.1,2.52-3.94c0.67-1.83,1-3.53,1-5.1
					c0-1.83-0.44-3.23-1.31-4.2c-0.87-0.98-1.99-1.46-3.34-1.46c-1.26,0-2.41,0.45-3.44,1.35s-1.84,2.22-2.41,3.96
					C290.77,57.41,290.48,58.94,290.48,60.24z"/>
				<path class="st0" d="M315.15,46.22h6.17l-0.99,4.74c2.3-3.55,4.8-5.32,7.48-5.32c0.95,0,1.97,0.24,3.06,0.71l-2.53,5.41
					c-0.6-0.21-1.24-0.32-1.91-0.32c-1.14,0-2.29,0.43-3.47,1.29c-1.18,0.86-2.09,2.01-2.75,3.44c-0.66,1.43-1.31,3.71-1.96,6.83
					l-1.61,7.67h-6.61L315.15,46.22z"/>
				<path class="st0" d="M352.57,60.5h-16.58c-0.02,0.26-0.02,0.46-0.02,0.6c0,1.63,0.46,2.94,1.39,3.94c0.93,1,2.06,1.5,3.4,1.5
					c2.2,0,3.91-1.14,5.14-3.41l5.92,0.99c-1.15,2.38-2.69,4.16-4.62,5.35c-1.93,1.19-4.09,1.78-6.48,1.78
					c-3.29,0-5.96-1.04-8.01-3.12c-2.06-2.08-3.08-4.83-3.08-8.25c0-3.35,0.93-6.33,2.79-8.94c2.53-3.53,6.15-5.3,10.85-5.3
					c2.99,0,5.37,0.93,7.14,2.77c1.77,1.85,2.65,4.44,2.65,7.77C353.03,57.78,352.87,59.22,352.57,60.5z M346.99,56.47
					c0.02-0.29,0.02-0.51,0.02-0.67c0-1.81-0.41-3.17-1.22-4.08c-0.81-0.9-1.9-1.36-3.27-1.36c-1.37,0-2.59,0.51-3.67,1.54
					c-1.08,1.03-1.81,2.55-2.2,4.56L346.99,56.47L346.99,56.47z"/>
				<path class="st0" d="M354.13,63.84l6.4-1.01c0.57,1.35,1.27,2.31,2.12,2.87c0.84,0.56,2,0.84,3.45,0.84
					c1.5,0,2.71-0.34,3.62-1.01c0.63-0.46,0.94-1.02,0.94-1.68c0-0.44-0.16-0.84-0.48-1.2c-0.34-0.34-1.25-0.75-2.74-1.24
					c-3.99-1.32-6.46-2.36-7.41-3.13c-1.49-1.2-2.23-2.76-2.23-4.7c0-1.94,0.72-3.6,2.17-5c2.01-1.95,5-2.92,8.96-2.92
					c3.15,0,5.53,0.58,7.14,1.73c1.61,1.15,2.63,2.71,3.06,4.67l-6.1,1.06c-0.32-0.89-0.84-1.56-1.57-2c-0.98-0.6-2.17-0.9-3.55-0.9
					c-1.38,0-2.38,0.23-2.98,0.69c-0.61,0.46-0.91,0.99-0.91,1.59c0,0.62,0.31,1.12,0.92,1.52c0.38,0.25,1.62,0.68,3.71,1.29
					c3.22,0.94,5.38,1.86,6.47,2.76c1.53,1.27,2.3,2.81,2.3,4.61c0,2.32-0.98,4.33-2.93,6.03c-1.95,1.7-4.7,2.56-8.24,2.56
					c-3.53,0-6.26-0.65-8.19-1.95C356.13,68.01,354.82,66.18,354.13,63.84z"/>
				<path class="st0" d="M380.36,63.84l6.4-1.01c0.57,1.35,1.27,2.31,2.12,2.87c0.84,0.56,2,0.84,3.45,0.84
					c1.51,0,2.71-0.34,3.62-1.01c0.63-0.46,0.94-1.02,0.94-1.68c0-0.44-0.16-0.84-0.48-1.2c-0.34-0.34-1.25-0.75-2.74-1.24
					c-3.99-1.32-6.46-2.36-7.41-3.13c-1.49-1.2-2.23-2.76-2.23-4.7c0-1.94,0.72-3.6,2.16-5c2.01-1.95,5-2.92,8.96-2.92
					c3.15,0,5.53,0.58,7.14,1.73c1.61,1.15,2.63,2.71,3.06,4.67l-6.1,1.06c-0.32-0.89-0.84-1.56-1.57-2c-0.98-0.6-2.16-0.9-3.55-0.9
					c-1.38,0-2.38,0.23-2.98,0.69c-0.61,0.46-0.91,0.99-0.91,1.59c0,0.62,0.31,1.12,0.92,1.52c0.38,0.25,1.62,0.68,3.71,1.29
					c3.22,0.94,5.38,1.86,6.47,2.76c1.53,1.27,2.3,2.81,2.3,4.61c0,2.32-0.97,4.33-2.92,6.03c-1.95,1.7-4.7,2.56-8.24,2.56
					c-3.53,0-6.26-0.65-8.19-1.95C382.36,68.01,381.05,66.18,380.36,63.84z"/>
			</g>
			<g>
				<path class="st0" d="M257.57,46.21h8.37l3.02,7.56l5.57-7.56h8.29l-9.76,11.9l6.14,12.67h-8.54l-3.46-7.9l-6.25,7.9h-8.49
					l10.74-12.81L257.57,46.21z"/>
			</g>
		</g>
	</g>
	<path class="st0" d="M253.68,60.21H237.1c-0.02,0.26-0.02,0.46-0.02,0.6c0,1.63,0.46,2.94,1.39,3.94c0.93,1,2.06,1.5,3.4,1.5
		c2.2,0,3.91-1.14,5.14-3.41l5.92,0.99c-1.15,2.38-2.69,4.16-4.62,5.35c-1.93,1.19-4.09,1.78-6.48,1.78c-3.29,0-5.96-1.04-8.01-3.12
		c-2.06-2.08-3.08-4.83-3.08-8.25c0-3.35,0.93-6.33,2.79-8.94c2.53-3.53,6.15-5.3,10.85-5.3c2.99,0,5.37,0.93,7.14,2.77
		c1.77,1.85,2.65,4.44,2.65,7.77C254.14,57.5,253.98,58.93,253.68,60.21z M248.1,56.18c0.02-0.29,0.02-0.51,0.02-0.67
		c0-1.81-0.41-3.17-1.22-4.08c-0.81-0.9-1.9-1.36-3.27-1.36c-1.37,0-2.59,0.51-3.67,1.54c-1.08,1.03-1.81,2.55-2.2,4.56L248.1,56.18
		L248.1,56.18z"/>
</g>
</svg>
