<?xml version="1.0" encoding="utf-8"?>
<!-- Generator: Adobe Illustrator 25.4.1, SVG Export Plug-In . SVG Version: 6.00 Build 0)  -->
<svg version="1.1" id="Layer_2_00000159471598350358213750000014612203606435250611_"
	 xmlns="http://www.w3.org/2000/svg" xmlns:xlink="http://www.w3.org/1999/xlink" x="0px" y="0px" viewBox="0 0 223.4 80"
	 style="enable-background:new 0 0 223.4 80;" xml:space="preserve">
<style type="text/css">
	.st0{fill:#FBDA00;}
	.st1{fill:url(#path112_00000088103013491461868330000017367412168781659272_);}
</style>
<g>
	<g id="g72">
		<g id="g78" transform="translate(298.8008,380.9507)">
			<path id="path80" class="st0" d="M-298.8-342.1c0,0,7.2-5.8,13.5-5.8c6.3,0,19.7,8.1,28.7,19.2c9,11,22.8,25,33.7,27.1
				c0,0-11.8,3.3-21.9-4.8C-254.9-314.4-281.8-342.8-298.8-342.1"/>
		</g>
		<g id="g82" transform="translate(721.5034,470.6147)">
			<path id="path84" class="st0" d="M-541.5-470c0,0-22.2-4.1-41.3,8.4c-19,12.5-44.9,58.9-57.5,59.1c0,0,11.9,2.9,21.4-3
				C-601.9-416.2-565-467.1-541.5-470"/>
		</g>
		<g id="g86" transform="translate(628.7124,462.2554)">
			<path id="path88" class="st0" d="M-488.2-458.1c0,0-10.8-1.4-20.9,9.1c-10.1,10.5-29.4,43.9-40.4,50.9c0,0,10.9-5.7,17.3-13.7
				C-525.8-419.8-501.7-456.1-488.2-458.1"/>
		</g>
	</g>
	<g id="g90">
		<g id="g92">
			<g id="g98">
				<g id="g100">
					
						<linearGradient id="path112_00000115477094886415950360000017077643704358490294_" gradientUnits="userSpaceOnUse" x1="-666.329" y1="541.0612" x2="-666.0096" y2="541.0612" gradientTransform="matrix(-2.040000e-05 244.9043 244.9043 2.040000e-05 -132388.9375 163187.9375)">
						<stop  offset="0" style="stop-color:#FBDA00"/>
						<stop  offset="0.2043" style="stop-color:#FBDA00"/>
						<stop  offset="0.6126" style="stop-color:#C9A200"/>
						<stop  offset="1" style="stop-color:#C9A200"/>
					</linearGradient>
					<path id="path112" style="fill:url(#path112_00000115477094886415950360000017077643704358490294_);" d="M193.2,1.4
						c-37,5.3-78,72.7-102,72.7l0,0c-24.1,0-37.3-35.9-47.7-42.5l0,0C33,25.1,19.2,26.7,15.2,30l0,0c0,0,9.9,2.3,17.3,7.7l0,0
						c16.5,12.1,31.8,41.7,59,41.7l0,0c47.2,0,85.3-67.1,131.9-67.1l0,0c0,0-10.3-11.1-25.7-11.1l0,0C196.2,1.1,194.7,1.2,193.2,1.4
						"/>
				</g>
			</g>
		</g>
	</g>
</g>
</svg>
