<?xml version="1.0" encoding="utf-8"?>
<!-- Generator: Adobe Illustrator 25.4.1, SVG Export Plug-In . SVG Version: 6.00 Build 0)  -->
<svg version="1.1" id="Layer_2_00000159471598350358213750000014612203606435250611_"
	 xmlns="http://www.w3.org/2000/svg" xmlns:xlink="http://www.w3.org/1999/xlink" x="0px" y="0px" viewBox="0 0 182.7 80"
	 style="enable-background:new 0 0 182.7 80;" xml:space="preserve">
<style type="text/css">
	.st0{fill:#72706F;}
	.st1{fill:#FBDA00;}
	.st2{fill:url(#path112_00000107590721573593149470000014244979105932819074_);}
</style>
<g>
	<g id="g28">
		<g id="g34" transform="translate(53.1255,175.3955)">
			<path id="path36" class="st0" d="M-46.9-107.4l-2.3,0v-6.2h2.3c0,0,2.4-0.1,2.4,3.1C-44.6-107.2-46.9-107.4-46.9-107.4
				 M-46.8-117.1h-6.3v20.7l3.6,0v-7.5h2.8c5.3,0,5.5-6.6,5.5-6.6C-41.3-117.3-46.8-117.1-46.8-117.1"/>
		</g>
		<g id="g38" transform="translate(569.1724,138.7236)">
			<path id="path40" class="st0" d="M-444.7-62.3c-2.4,0-4.5-3.4-4.5-7.5c0-4.1,1.9-7.5,4.5-7.5c2.4,0,4.6,3.4,4.6,7.5
				C-440.1-65.8-442-62.3-444.7-62.3 M-444.7-80.9c-4.5,0-8.1,5-8.1,11.1c0,6.1,3.3,11.1,8.1,11.1c4.3,0,7.9-5,7.9-11.1
				C-436.8-75.9-440.4-80.9-444.7-80.9"/>
		</g>
		<g id="g42" transform="translate(250.4565,198.8818)">
			<path id="path44" class="st0" d="M-199-136.2l0.5-3.6c0,0-1.9-1.3-4-1.3s-5.6,1.4-5.6,6.3s6.2,6.3,6.2,9.5c0,2.7-2.1,2.5-2.1,2.5
				s-1.8-0.3-2.8-1.2l-1.1,4.1c0,0,2.6,0.9,4.3,0.9c2.1,0,5.4-1.6,5.4-6.2c0-4.6-6.5-7.7-6.5-9.6c0-1.4,0.9-2.6,2.5-2.6
				C-200.6-137.4-199-136.2-199-136.2"/>
		</g>
		<g id="g46" transform="translate(196.0317,198.8818)">
			<path id="path48" class="st0" d="M-157.1-136.2l0.5-3.6c0,0-1.9-1.3-4-1.3s-5.6,1.4-5.6,6.3s6.2,6.3,6.2,9.5
				c0,2.7-2.1,2.5-2.1,2.5s-1.8-0.3-2.8-1.2l-1.1,4.1c0,0,2.6,0.9,4.3,0.9c2.1,0,5.4-1.6,5.4-6.2c0-4.6-6.5-7.7-6.5-9.6
				c0-1.4,0.9-2.6,2.5-2.6C-158.7-137.4-157.1-136.2-157.1-136.2"/>
		</g>
		<g id="g50" transform="translate(282.2617,162.7822)">
			<path id="path52" class="st0" d="M-223.6-91.9l2.1-7.9l2,7.9H-223.6z M-219.6-104.9c-3.5,0-4.4,3.4-4.4,3.4l-5.1,17.8l3.6,0
				l1.4-5h5.1l1.3,5h3.6L-219.6-104.9z"/>
		</g>
		<g id="g54" transform="translate(106.4878,162.7822)">
			<path id="path56" class="st0" d="M-88.1-91.9l2.1-7.9l2,7.9H-88.1z M-84.1-104.9c-3.5,0-4.4,3.4-4.4,3.4l-5.1,17.8l3.6,0l1.4-5
				h5.1l1.3,5h3.6L-84.1-104.9z"/>
		</g>
		<g id="g58" transform="translate(444.8442,217.8994)">
			<path id="path60" class="st0" d="M-348.9-159.6h-10v17.6c0,0,0,3.1,3.6,3.1h6.4v-3.5h-5c0,0-1.7,0.3-1.7-1.8v-3.7h6.1v-3.6h-6.1
				v-4.5h6.7V-159.6z"/>
		</g>
		<g id="g62" transform="translate(491.8892,142.2607)">
			<path id="path64" class="st0" d="M-385.1-66.6h-3.5v-13.8h3.6c0,0,3.9,0.1,3.9,6.9C-381.2-66.8-385.1-66.6-385.1-66.6 M-385.2-84
				h-7v20.7h6.9c0,0,7.7-0.2,7.7-10.4C-377.7-83.8-385.2-84-385.2-84"/>
		</g>
		<g id="g66" transform="translate(361.8677,175.3955)">
			<path id="path68" class="st0" d="M-284.9-107.4l-2.3,0v-6.2h2.3c0,0,2.4-0.1,2.4,3.1C-282.5-107.2-284.9-107.4-284.9-107.4
				 M-281.5-105.1c2.1-1.9,2.2-5.4,2.2-5.4c0-6.8-5.5-6.6-5.5-6.6h-6.3v20.7l3.6,0v-7.5h2.8c0.1,0,0.2,0,0.3,0
				c0.4,0.6,1.7,2.6,2.1,7.5l3.6,0C-278.8-96.4-278.8-101.6-281.5-105.1"/>
		</g>
	</g>
	<g id="g72">
		<g id="g78" transform="translate(298.8008,380.9507)">
			<path id="path80" class="st1" d="M-236.3-360c0,0,3.9-3.1,7.3-3.1c3.4,0,10.6,4.4,15.4,10.3c4.8,5.9,12.3,13.4,18.1,14.6
				c0,0-6.4,1.8-11.8-2.6C-212.6-345.1-227.1-360.4-236.3-360"/>
		</g>
		<g id="g82" transform="translate(721.5034,470.6147)">
			<path id="path84" class="st1" d="M-562.1-470.3c0,0-12-2.2-22.2,4.5c-10.3,6.7-24.1,31.7-30.9,31.8c0,0,6.4,1.6,11.5-1.6
				C-594.6-441.3-574.8-468.7-562.1-470.3"/>
		</g>
		<g id="g86" transform="translate(628.7124,462.2554)">
			<path id="path88" class="st1" d="M-490.6-460c0,0-5.8-0.8-11.2,4.9c-5.4,5.7-15.8,23.6-21.7,27.4c0,0,5.8-3.1,9.3-7.4
				C-510.8-439.4-497.8-458.9-490.6-460"/>
		</g>
	</g>
	<g id="g90">
		<g id="g92">
			<g id="g98">
				<g id="g100">
					
						<linearGradient id="path112_00000063608382202437261950000002696956996039552394_" gradientUnits="userSpaceOnUse" x1="-666.3311" y1="541.0915" x2="-666.1592" y2="541.0915" gradientTransform="matrix(-2.040000e-05 244.9043 244.9043 2.040000e-05 -132388.9375 163187.9375)">
						<stop  offset="0" style="stop-color:#FBDA00"/>
						<stop  offset="0.2043" style="stop-color:#FBDA00"/>
						<stop  offset="0.6126" style="stop-color:#C9A200"/>
						<stop  offset="1" style="stop-color:#C9A200"/>
					</linearGradient>
					<path id="path112" style="fill:url(#path112_00000063608382202437261950000002696956996039552394_);" d="M166.5,0.8
						c-19.9,2.8-42,39.2-54.9,39.2l0,0c-13,0-20.1-19.3-25.7-22.9l0,0c-5.6-3.5-13-2.7-15.2-0.9l0,0c0,0,5.3,1.2,9.3,4.1l0,0
						c8.9,6.5,17.1,22.4,31.7,22.4l0,0c25.4,0,45.9-36.1,71-36.1l0,0c0,0-5.6-6-13.8-6l0,0C168.1,0.6,167.3,0.7,166.5,0.8"/>
				</g>
			</g>
		</g>
	</g>
</g>
</svg>
