<?xml version="1.0" encoding="utf-8"?>
<!-- Generator: Adobe Illustrator 25.4.1, SVG Export Plug-In . SVG Version: 6.00 Build 0)  -->
<svg version="1.1" id="Layer_1" xmlns="http://www.w3.org/2000/svg" xmlns:xlink="http://www.w3.org/1999/xlink" x="0px" y="0px"
	 viewBox="0 0 67.5 80" style="enable-background:new 0 0 67.5 80;" xml:space="preserve">
<style type="text/css">
	.st0{fill:#0E9C48;}
</style>
<path class="st0" d="M46.2,74.3c0,0-2.8-0.2-2,1c0.8,1.2,2.2,1.7,3.2,2.4s1.7,2.1,2.2,2.3c0.5,0.1,1.8,0.2,2.7-0.6
	c0.9-0.7,0.6-0.8,0.3-2.2s-0.1-6.2,0.3-6.6c0.4-0.4,1.4-1,2.1-1.7c0.6-0.7,1.4-0.8,1.2-2.2c-0.2-1.3-1-1.6-1.5-2.2
	c-0.5-0.6-0.8-3.1-2-3.1s-1.7,1.4-1.8,1.4c-0.1,0.1-1.8,0-3,0.8c-1.2,0.8-2.2,0.9-2.5,1.2c-0.3,0.4-0.4,1.1,0.4,1.6
	c0,0,1.6,1,1.4,2.8c0,0-1.8,0.1-1.4,2.4S46.2,74.3,46.2,74.3z"/>
<path class="st0" d="M66.2,4.4c-1.5,0.4-1.8,0.9-2.1,0.7c-0.3-0.2-0.4-0.9-1.7-0.8c-1.4,0.1-1.2,0.5-1.8,0.4c-0.6-0.2-1,0.1-1.4,0.5
	c-0.4,0.5-0.7,1.4-2.1,1.4c-1.4,0-16.9-0.2-16.9-0.2s-1.6-0.1-1.4-1.3c0.2-1.2-0.1-1.8-1.4-1.7c-1.4,0.1-3.1,0.5-4.5-0.8
	c-1.4-1.2-2.8-2.4-4.7-1.4c0,0-1.8-1.7-2.5-1.2s0.5,3.4,0.5,3.4S22.9,4.9,22.8,7c0,0-3.1-0.5-5.2,0.5c-2.1,1.1-4.1,1.7-6.2,0.7
	C9.3,7.2,8.7,5.4,8,5.5C7.3,5.7,7.1,7.3,8.1,8.8c1.1,1.5,0,2.2-1.6,2.4c-1.6,0.2-5,0.6-5,0.6s1.1,3.7-1.6,4c0,0,0,3.1,4.1,2.6
	c0,0,1.6-1.6,2.1,0c0,0,3.5-0.3,3.8-2.9c0,0,1.7,1.4,3.1,1.4c0.7-0.4,0.6-2.6,4.2-0.7c0,0,1.9-2.2,3.5-2.7c1.5-0.4,1.9,0.4,2.9,0.4
	c1,0.1,7.4,0.4,8.4,7.5c0,0,1.5,0.8,2,2.3c0.5,1.5,1.3,6-0.8,8.2c0,0-0.8-2.9-1.7-2.3c-0.9,0.6-0.6,2.3-0.6,2.3s-7.4,4.8-9.3,6.4
	c-1.9,1.6-1.4,3.7,1.5,4.1c0,0,1.2,7.3,2.9,9.7c0,0,1.9,1.7,5.3,0.8c3.4-0.9,4.7-4.2,8-6.3s5.8-1.5,5.8-1.5s1.1-1.2,2.9-1.2
	c1.8,0.1,5.7,0.6,6.3-1.4c0.6-2.1-1.8-2.6-3.5-2.7c-1.7-0.2-3.9-1.2-4.4-3.2c-0.5-2-0.6-9.6,0.1-11.7c0.8-2.2,4.1-9.2,5.1-11
	c1-1.8,4.1-4.7,5.3-5.2s1.5-0.3,2.1-0.2c0.6,0.1,2.9-0.5,4.1,1.2c1.2,1.7-0.3-1.5-0.5-2.1c-0.2-0.6,0.5-1.2,1.4-1.4
	c0.9-0.2,2.9-0.2,3.2-0.6C67.7,5.3,67.7,4,66.2,4.4z M50.7,14.3c-0.2,0.4-2.8,0.5-3.5,1c-0.6,0.5-0.2,2.2-0.6,2.6
	c-0.4,0.4-1.2-0.8-1.5-0.3c-0.4,0.5,0.6,6.4,0.6,7.3c0,0.9-1.2,1.6-1.5,3.2c-0.3,1.7,0.8,4.4-0.9,4.8c-1.7,0.4-3.4-0.9-4.1-2.2
	c-0.7-1.4,0.5-1.1,0.9-2.3c0.4-1.2-1.4-3.1-2.9-5.1c-1.5-1.9-1.4-4.7-1.4-4.7c3.2-0.1,3.1-2.1,4.4-3.2c1.3-1.1,3.1-1.1,3.1-1.1
	c-1.8-1.4-7.5-0.9-7.5-0.9c0.1-0.6-1.1-1.1-1.1-1.1c-3.3-1.4-2.2-3.5-2.2-3.5c1.5-0.4,1.3-1.8,1.3-1.8s2.1-0.2,2.6,0.4
	s2,1.7,2.8,1.4c0.8-0.3,1.9-1.1,4.1-1c2.2,0.1,4.5,1.2,6.1,2.6C51.1,11.7,50.9,13.9,50.7,14.3z M52.7,10c-0.4,0.1-1.5-0.5-2.3-0.8
	c-0.8-0.3,0.1-1,0.1-1c0.3-0.4,1.1-0.5,1.7-0.2c0.6,0.4,1,0.8,1.1,1.1C53.3,9.4,53.1,9.9,52.7,10z"/>
</svg>
