<?xml version="1.0" encoding="utf-8"?>
<!-- Generator: Adobe Illustrator 25.4.1, SVG Export Plug-In . SVG Version: 6.00 Build 0)  -->
<svg version="1.1" id="Layer_1" xmlns="http://www.w3.org/2000/svg" xmlns:xlink="http://www.w3.org/1999/xlink" x="0px" y="0px"
	 viewBox="0 0 206.2 80" style="enable-background:new 0 0 206.2 80;" xml:space="preserve">
<style type="text/css">
	.st0{fill:#0E9C48;}
	.st1{fill:#828083;}
</style>
<g>
	<path class="st0" d="M179.9,74.3c0,0-2.8-0.2-2,1s2.2,1.7,3.2,2.4c1,0.7,1.7,2.1,2.2,2.3s1.8,0.2,2.7-0.6c0.9-0.7,0.6-0.8,0.3-2.2
		c-0.3-1.5-0.1-6.2,0.3-6.6c0.4-0.4,1.4-1,2.1-1.7c0.6-0.7,1.4-0.8,1.2-2.2c-0.2-1.3-1-1.6-1.5-2.2c-0.5-0.6-0.8-3.1-2-3.1
		s-1.7,1.4-1.8,1.4c-0.1,0.1-1.8,0-3,0.8c-1.2,0.8-2.2,0.9-2.5,1.2c-0.3,0.4-0.4,1.1,0.4,1.6c0,0,1.6,1,1.4,2.8c0,0-1.8,0.1-1.4,2.4
		C179.9,74.1,179.9,74.3,179.9,74.3z"/>
	<rect y="40" class="st1" width="206.2" height="1.6"/>
	<g>
		<path class="st0" d="M13.4,33.8H6.7l-2,3.7H1.1l9.6-16.6h3.9l2.7,16.6h-3.3L13.4,33.8z M13,31.1l-1-6.7l-4.1,6.7H13z"/>
		<path class="st0" d="M21.9,25.4h3.3l-2.6,12.1h-3.3L21.9,25.4z M22.9,20.9h3.3l-0.6,3h-3.3L22.9,20.9z"/>
		<path class="st0" d="M28.3,25.4h3.1l-0.5,2.3c1.2-1.7,2.4-2.6,3.8-2.6c0.5,0,1,0.1,1.5,0.4l-1.3,2.7c-0.3-0.1-0.6-0.2-1-0.2
			c-0.6,0-1.1,0.2-1.7,0.6c-0.6,0.4-1,1-1.4,1.7c-0.3,0.7-0.7,1.8-1,3.4l-0.8,3.8h-3.3L28.3,25.4z"/>
		<path class="st0" d="M54,31.5l3.5,0.5c-0.7,1.9-1.7,3.3-3.1,4.3c-1.4,1-3,1.5-4.8,1.5c-2.1,0-3.7-0.6-4.9-1.8
			c-1.2-1.2-1.7-3-1.7-5.3c0-1.9,0.4-3.6,1.2-5.2c0.8-1.6,1.9-2.8,3.3-3.6c1.4-0.8,2.9-1.2,4.5-1.2c1.8,0,3.3,0.5,4.4,1.4
			c1.1,1,1.8,2.3,2,3.9l-3.3,0.3c-0.2-1-0.5-1.7-1.1-2.1c-0.5-0.4-1.2-0.7-2.1-0.7c-1,0-1.9,0.3-2.7,0.9c-0.8,0.6-1.5,1.5-2,2.7
			c-0.5,1.2-0.8,2.4-0.8,3.7c0,1.3,0.3,2.4,1,3.1c0.7,0.7,1.5,1.1,2.4,1.1c0.9,0,1.7-0.3,2.5-0.9C53.1,33.5,53.6,32.6,54,31.5z"/>
		<path class="st0" d="M62.1,37.5h-3.3l3.5-16.6h3.3l-1.3,5.9c0.7-0.6,1.4-1,2.1-1.2c0.6-0.3,1.3-0.4,2.1-0.4c1,0,1.8,0.3,2.4,0.8
			c0.6,0.6,0.9,1.3,0.9,2.2c0,0.5-0.1,1.2-0.3,2.2l-1.5,7h-3.3l1.5-7.2c0.2-0.8,0.2-1.3,0.2-1.5c0-0.4-0.1-0.7-0.4-1
			c-0.3-0.2-0.6-0.4-1-0.4c-0.6,0-1.1,0.2-1.6,0.6c-0.7,0.5-1.2,1.1-1.5,1.8c-0.2,0.4-0.4,1.3-0.8,2.8L62.1,37.5z"/>
		<path class="st0" d="M77.9,28.9l-3.2-0.3c0.4-1.1,1-1.9,1.9-2.5c0.9-0.6,2.1-0.9,3.7-0.9c1.6,0,2.7,0.3,3.5,0.9
			c0.8,0.6,1.1,1.4,1.1,2.3c0,0.4,0,0.7-0.1,1.2c-0.1,0.4-0.3,1.5-0.7,3.2c-0.3,1.4-0.5,2.4-0.5,3c0,0.5,0.1,1.1,0.3,1.7h-3.2
			c-0.1-0.4-0.2-0.9-0.2-1.4c-0.5,0.5-1,0.9-1.7,1.2c-0.6,0.3-1.3,0.4-1.9,0.4c-1,0-1.9-0.3-2.5-1c-0.7-0.7-1-1.5-1-2.5
			c0-1.2,0.4-2.1,1.1-2.8c0.7-0.7,2-1.1,3.9-1.2c1.6-0.1,2.6-0.3,3.2-0.5c0.1-0.5,0.2-0.8,0.2-1.1c0-0.3-0.1-0.6-0.4-0.9
			c-0.3-0.2-0.7-0.4-1.3-0.4c-0.6,0-1.1,0.1-1.4,0.4C78.3,28.1,78,28.4,77.9,28.9z M81.1,31.9c-0.2,0.1-0.5,0.1-0.8,0.1
			c-1.7,0.2-2.7,0.5-3.3,0.9c-0.4,0.3-0.5,0.6-0.5,1.1c0,0.4,0.1,0.7,0.4,1c0.3,0.3,0.6,0.4,1.1,0.4c0.5,0,1-0.1,1.4-0.4
			c0.4-0.2,0.8-0.5,1-0.9c0.2-0.4,0.4-1,0.6-1.8L81.1,31.9z"/>
		<path class="st0" d="M87.2,27.9l0.5-2.4h1.6l0.4-1.9l3.8-2.2l-0.9,4.2h2l-0.5,2.4h-2l-1.1,5.1c-0.2,0.9-0.3,1.4-0.3,1.6
			c0,0.2,0.1,0.4,0.2,0.6c0.2,0.1,0.5,0.2,0.9,0.2c0.1,0,0.5,0,1.1-0.1l-0.5,2.4c-0.6,0.1-1.2,0.2-1.8,0.2c-1.2,0-2-0.2-2.6-0.7
			c-0.5-0.4-0.8-1.1-0.8-1.8c0-0.4,0.1-1.2,0.4-2.6l1-4.8H87.2z"/>
		<path class="st0" d="M97.6,37.5h-3.3l3.5-16.6h3.3l-1.3,5.9c0.7-0.6,1.4-1,2.1-1.2c0.6-0.3,1.3-0.4,2.1-0.4c1,0,1.8,0.3,2.4,0.8
			c0.6,0.6,0.9,1.3,0.9,2.2c0,0.5-0.1,1.2-0.3,2.2l-1.5,7h-3.3l1.5-7.2c0.2-0.8,0.2-1.3,0.2-1.5c0-0.4-0.1-0.7-0.4-1
			c-0.3-0.2-0.6-0.4-1-0.4c-0.6,0-1.1,0.2-1.6,0.6c-0.7,0.5-1.2,1.1-1.5,1.8c-0.2,0.4-0.4,1.3-0.8,2.8L97.6,37.5z"/>
		<path class="st0" d="M113.4,28.9l-3.2-0.3c0.4-1.1,1-1.9,1.9-2.5c0.9-0.6,2.1-0.9,3.7-0.9c1.6,0,2.7,0.3,3.5,0.9
			c0.8,0.6,1.1,1.4,1.1,2.3c0,0.4,0,0.7-0.1,1.2c-0.1,0.4-0.3,1.5-0.7,3.2c-0.3,1.4-0.5,2.4-0.5,3c0,0.5,0.1,1.1,0.3,1.7h-3.2
			c-0.1-0.4-0.2-0.9-0.2-1.4c-0.5,0.5-1,0.9-1.7,1.2c-0.6,0.3-1.3,0.4-1.9,0.4c-1,0-1.9-0.3-2.5-1c-0.7-0.7-1-1.5-1-2.5
			c0-1.2,0.4-2.1,1.1-2.8c0.7-0.7,2-1.1,3.9-1.2c1.6-0.1,2.6-0.3,3.2-0.5c0.1-0.5,0.2-0.8,0.2-1.1c0-0.3-0.1-0.6-0.4-0.9
			c-0.3-0.2-0.7-0.4-1.3-0.4c-0.6,0-1.1,0.1-1.4,0.4C113.8,28.1,113.5,28.4,113.4,28.9z M116.6,31.9c-0.2,0.1-0.5,0.1-0.8,0.1
			c-1.7,0.2-2.7,0.5-3.3,0.9c-0.4,0.3-0.5,0.6-0.5,1.1c0,0.4,0.1,0.7,0.4,1c0.3,0.3,0.6,0.4,1.1,0.4c0.5,0,1-0.1,1.4-0.4
			c0.4-0.2,0.8-0.5,1-0.9c0.2-0.4,0.4-1,0.6-1.8L116.6,31.9z"/>
		<path class="st0" d="M124.3,25.4h3.1l-0.3,1.5c1.2-1.2,2.5-1.7,3.8-1.7c0.9,0,1.6,0.2,2.1,0.6c0.5,0.4,0.8,0.9,1,1.6
			c0.4-0.6,1-1.1,1.8-1.5c0.8-0.4,1.6-0.6,2.5-0.6c1,0,1.7,0.3,2.3,0.8c0.5,0.5,0.8,1.2,0.8,2c0,0.4-0.1,1.1-0.3,2.2l-1.6,7.4h-3.3
			l1.6-7.4c0.2-0.9,0.3-1.4,0.3-1.6c0-0.3-0.1-0.6-0.3-0.8c-0.2-0.2-0.5-0.3-0.9-0.3c-0.8,0-1.6,0.4-2.2,1.3
			c-0.5,0.6-0.9,1.7-1.2,3.3l-1.2,5.5H129l1.5-7.3c0.2-0.8,0.3-1.4,0.3-1.6c0-0.3-0.1-0.6-0.3-0.8c-0.2-0.2-0.5-0.3-0.9-0.3
			c-0.4,0-0.7,0.1-1.1,0.3c-0.4,0.2-0.7,0.5-1,0.9c-0.3,0.4-0.5,0.8-0.7,1.4c-0.1,0.3-0.2,0.9-0.5,1.8l-1.2,5.5h-3.3L124.3,25.4z"/>
		<path class="st0" d="M142.5,34.1l3.2-0.5c0.3,0.7,0.6,1.1,1.1,1.4c0.4,0.3,1,0.4,1.7,0.4c0.8,0,1.4-0.2,1.8-0.5
			c0.3-0.2,0.5-0.5,0.5-0.8c0-0.2-0.1-0.4-0.2-0.6c-0.2-0.2-0.6-0.4-1.4-0.6c-2-0.7-3.2-1.2-3.7-1.5c-0.7-0.6-1.1-1.4-1.1-2.3
			c0-1,0.4-1.8,1.1-2.5c1-1,2.5-1.4,4.5-1.4c1.6,0,2.8,0.3,3.6,0.9c0.8,0.6,1.3,1.3,1.5,2.3l-3.1,0.5c-0.2-0.4-0.4-0.8-0.8-1
			c-0.5-0.3-1.1-0.4-1.8-0.4c-0.7,0-1.2,0.1-1.5,0.3c-0.3,0.2-0.5,0.5-0.5,0.8c0,0.3,0.2,0.6,0.5,0.7c0.2,0.1,0.8,0.3,1.9,0.6
			c1.6,0.5,2.7,0.9,3.2,1.4c0.8,0.6,1.2,1.4,1.2,2.3c0,1.1-0.5,2.1-1.5,3c-1,0.8-2.4,1.3-4.1,1.3c-1.8,0-3.1-0.3-4.1-1
			C143.5,36.2,142.8,35.3,142.5,34.1z"/>
	</g>
	<path class="st0" d="M199.9,4.4c-1.5,0.4-1.8,0.9-2.1,0.7c-0.3-0.2-0.4-0.9-1.7-0.8c-1.4,0.1-1.2,0.5-1.8,0.4
		c-0.6-0.2-1,0.1-1.4,0.5c-0.4,0.5-0.7,1.4-2.1,1.4c-1.4,0-16.9-0.2-16.9-0.2s-1.6-0.1-1.4-1.3c0.2-1.2-0.1-1.8-1.4-1.7
		c-1.4,0.1-3.1,0.5-4.5-0.8c-1.4-1.2-2.8-2.4-4.7-1.4c0,0-1.8-1.7-2.5-1.2s0.5,3.4,0.5,3.4s-3.2,1.4-3.3,3.5c0,0-3.1-0.5-5.2,0.5
		c-2.1,1.1-4.1,1.7-6.2,0.7c-2.1-1-2.7-2.9-3.4-2.7c-0.7,0.2-0.9,1.8,0.1,3.2c1.1,1.5,0,2.2-1.6,2.4c-1.6,0.2-5,0.6-5,0.6
		s1.1,3.7-1.6,4c0,0,0,3.1,4.1,2.6c0,0,1.6-1.6,2.1,0c0,0,3.5-0.3,3.8-2.9c0,0,1.7,1.4,3.1,1.4c0.7-0.4,0.6-2.6,4.2-0.7
		c0,0,1.9-2.2,3.5-2.7c1.5-0.4,1.9,0.4,2.9,0.4c1,0.1,7.4,0.4,8.4,7.5c0,0,1.5,0.8,2,2.3c0.5,1.5,1.3,6-0.8,8.2c0,0-0.8-2.9-1.7-2.3
		c-0.9,0.6-0.6,2.3-0.6,2.3s-7.4,4.8-9.3,6.4c-1.9,1.6-1.4,3.7,1.5,4.1c0,0,1.2,7.3,2.9,9.7c0,0,1.9,1.7,5.3,0.8
		c3.4-0.9,4.7-4.2,8-6.3c3.4-2.1,5.8-1.5,5.8-1.5s1.1-1.2,2.9-1.2c1.8,0.1,5.7,0.6,6.3-1.4c0.6-2.1-1.8-2.6-3.5-2.7
		s-3.9-1.2-4.4-3.2c-0.5-2-0.6-9.6,0.1-11.7s4.1-9.2,5.1-11s4.1-4.7,5.3-5.2c1.2-0.5,1.5-0.3,2.1-0.2c0.6,0.1,2.9-0.5,4.1,1.2
		c1.2,1.7-0.3-1.5-0.5-2.1c-0.2-0.6,0.5-1.2,1.4-1.4s2.9-0.2,3.2-0.6C201.4,5.3,201.4,4,199.9,4.4z M184.4,14.3
		c-0.2,0.4-2.8,0.5-3.5,1c-0.6,0.5-0.2,2.2-0.6,2.6c-0.4,0.4-1.2-0.8-1.5-0.3c-0.4,0.5,0.6,6.4,0.6,7.3c0,0.9-1.2,1.6-1.5,3.2
		c-0.3,1.7,0.8,4.4-0.9,4.8c-1.7,0.4-3.4-0.9-4.1-2.2c-0.7-1.4,0.5-1.1,0.9-2.3c0.4-1.2-1.4-3.1-2.9-5.1s-1.4-4.7-1.4-4.7
		c3.2-0.1,3.1-2.1,4.4-3.2c1.3-1.1,3.1-1.1,3.1-1.1c-1.8-1.4-7.5-0.9-7.5-0.9c0.1-0.6-1.1-1.1-1.1-1.1c-3.3-1.4-2.2-3.5-2.2-3.5
		c1.5-0.4,1.3-1.8,1.3-1.8s2.1-0.2,2.6,0.4c0.5,0.6,2,1.7,2.8,1.4c0.8-0.3,1.9-1.1,4.1-1c2.2,0.1,4.5,1.2,6.1,2.6
		S184.6,13.9,184.4,14.3z M186.4,10c-0.4,0.1-1.5-0.5-2.3-0.8c-0.8-0.3,0.1-1,0.1-1c0.3-0.4,1.1-0.5,1.7-0.2c0.6,0.4,1,0.8,1.1,1.1
		C187,9.4,186.8,9.9,186.4,10z"/>
</g>
</svg>
