<?xml version="1.0" encoding="utf-8"?>
<!-- Generator: Adobe Illustrator 25.4.1, SVG Export Plug-In . SVG Version: 6.00 Build 0)  -->
<svg version="1.1" xmlns="http://www.w3.org/2000/svg" xmlns:xlink="http://www.w3.org/1999/xlink" x="0px" y="0px"
	 viewBox="0 0 219.6 80" style="enable-background:new 0 0 219.6 80;" xml:space="preserve">
<style type="text/css">
	.st0{fill:#282828;}
	.st1{fill:#1788BA;}
</style>
<g id="Layer_2">
</g>
<g id="Layer_1">
	<path class="st0" d="M108.7,2.7c-5.3,0-10.3,0.9-14.9,2.8c-4.6,1.9-8.7,4.6-12.2,8.2c-3.5,3.6-6.2,7.8-8.1,12.6
		c-1.8,4.8-2.8,9.8-2.8,15.2c0,5.4,1,10.5,2.8,15.3c1.9,4.8,4.6,8.9,8.1,12.5c3.5,3.6,7.6,6.3,12.2,8.1c4.6,1.8,9.6,2.7,15.1,2.7
		c2.1,0,4.2-0.2,6.2-0.5c2-0.3,3.9-0.7,5.7-1.2c3.7-1.2,7.1-2.9,10.2-5.2V59.5c-3.5,3.2-7.2,5.5-11,7c-2,0.8-4,1.4-5.9,1.8
		c-1.9,0.4-4,0.5-6.1,0.5c-7.2,0-13.2-2.6-18-7.7c-4.8-5.1-7.2-11.7-7.2-19.7c0-8.2,2.4-14.9,7.4-20.1c4.9-5.2,11.2-7.7,19-7.7
		c2,0,4,0.2,5.9,0.5c1.9,0.4,3.8,0.9,5.6,1.6c3.7,1.4,7.2,3.6,10.4,6.5v0l0.6-12c-3.5-2.6-7.2-4.5-11.1-5.7
		c-1.9-0.7-3.9-1.2-5.8-1.5C112.9,2.8,110.8,2.7,108.7,2.7L108.7,2.7z"/>
	<path class="st0" d="M35.3,4.1L35.3,4.1L0,79.9l12.5,0L21,61.1h28.9l8.3,18.8h12.5L35.3,4.1z M25.3,51.3l7.5-16.6
		c0.5-1.2,1-2.5,1.4-3.8c0.2-0.7,0.5-1.4,0.7-2.1c0.2-0.7,0.4-1.5,0.6-2.4l1.4,4.6l1.3,3.6l7.5,16.7H25.3z"/>
	<path class="st1" d="M216.4,24.6c-2.1-4.8-5.1-9.2-9.1-13c-4-3.8-8.5-6.7-13.5-8.6c-5-2-10.3-3-15.8-3c-5.6,0-11,1-16,3
		c-5,2-9.5,4.9-13.4,8.6c-3.9,3.8-6.9,8.1-9,12.9c-2.1,4.8-3.1,10-3.1,15.4c0,5.4,1.1,10.5,3.1,15.4c2.1,4.9,5.1,9.1,9,12.9
		c3.9,3.7,8.4,6.6,13.5,8.6c5.1,2,10.4,3,16,3c5.5,0,10.8-1,15.8-3.1c5.1-2.1,9.6-5,13.6-8.7c4-3.7,7-8,9-12.8
		c2.1-4.8,3.1-9.9,3.1-15.4C219.6,34.5,218.6,29.5,216.4,24.6z M204.2,50.9c-1.5,3.5-3.5,6.5-6.2,9.2c-2.6,2.7-5.6,4.7-9,6.1
		c-3.4,1.4-7,2.1-10.9,2.1c-3.9,0-7.5-0.7-11-2.2c-3.5-1.4-6.5-3.5-9.1-6.2c-1.4-1.4-2.6-2.8-3.6-4.3c-1-1.5-1.8-3.1-2.6-4.9
		c-1.4-3.4-2.1-7.1-2.1-10.9c0-2,0.2-4,0.5-5.7c0.4-1.7,0.9-3.5,1.6-5.3c1.5-3.5,3.6-6.6,6.2-9.2c2.7-2.7,5.8-4.8,9.2-6.2
		c3.4-1.4,7-2.1,10.9-2.1s7.5,0.7,10.9,2.2c3.4,1.5,6.5,3.5,9.1,6.2c2.7,2.6,4.7,5.7,6.1,9.2c1.4,3.4,2.1,7.1,2.1,11
		C206.5,43.7,205.7,47.4,204.2,50.9z"/>
</g>
</svg>
