<?xml version="1.0" encoding="utf-8"?>
<!-- Generator: Adobe Illustrator 25.4.1, SVG Export Plug-In . SVG Version: 6.00 Build 0)  -->
<svg version="1.1" xmlns="http://www.w3.org/2000/svg" xmlns:xlink="http://www.w3.org/1999/xlink" x="0px" y="0px"
	 viewBox="0 0 301.1 80" style="enable-background:new 0 0 301.1 80;" xml:space="preserve">
<style type="text/css">
	.st0{fill:#1788BA;}
	.st1{fill:#282828;}
</style>
<g id="Layer_2">
</g>
<g id="Layer_1">
	<g>
		<path id="path5" class="st0" d="M301.1,50.9c0,0-305.8-22.4-301.1,20.2C3.2,99.5,301.1,50.9,301.1,50.9z"/>
		<path id="path7" class="st1" d="M92.3,1.1c-2.2,0-4.3,0.4-6.2,1.1c-1.9,0.8-3.6,1.9-5.1,3.4c-1.5,1.5-2.6,3.2-3.4,5.2
			c-0.8,2-1.2,4.1-1.2,6.3c0,2.3,0.4,4.4,1.2,6.4c0.8,2,1.9,3.7,3.4,5.2c1.5,1.5,3.2,2.6,5.1,3.4c1.9,0.8,4,1.1,6.3,1.1
			c0.9,0,1.7-0.1,2.6-0.2c0.8-0.1,1.6-0.3,2.4-0.5c1.5-0.5,3-1.2,4.2-2.2v-5.6c-1.5,1.3-3,2.3-4.6,2.9c-0.8,0.3-1.7,0.6-2.5,0.7
			c-0.8,0.1-1.7,0.2-2.6,0.2c-3,0-5.5-1.1-7.5-3.2c-2-2.1-3-4.9-3-8.2c0-3.4,1-6.2,3.1-8.4c2-2.1,4.7-3.2,7.9-3.2
			c0.9,0,1.7,0.1,2.5,0.2c0.8,0.2,1.6,0.4,2.3,0.7c1.5,0.6,3,1.5,4.4,2.7v0l0.3-5c-1.5-1.1-3-1.9-4.6-2.4c-0.8-0.3-1.6-0.5-2.4-0.6
			C94,1.2,93.2,1.1,92.3,1.1L92.3,1.1z M19.3,1.7L4.6,33.3l5.2,0l3.5-7.8h12l3.5,7.8H34L19.3,1.7L19.3,1.7z M106.4,1.9v31.5h4.3
			v-8.8c0-1.6,0.1-2.7,0.2-3.5c0.1-0.7,0.3-1.3,0.6-1.8c0.4-0.7,1.1-1.2,1.8-1.6c0.8-0.4,1.7-0.5,2.7-0.5c1.5,0,2.6,0.4,3.2,1.3
			c0.6,0.8,0.9,2.5,0.9,5v9.9h4.3V21.7c0-0.9,0-1.7-0.1-2.3c0-0.6-0.1-1.1-0.2-1.4c-0.2-0.7-0.4-1.3-0.7-1.8c-0.6-0.9-1.3-1.6-2.3-2
			c-1-0.4-2.2-0.7-3.6-0.7c-1.7,0-3.1,0.3-4.3,0.9c-1.2,0.6-2.2,1.6-3,2.9V1.9C110.4,1.9,106.4,1.9,106.4,1.9z M37.7,5.1v4.2H42V5.1
			H37.7z M154.3,5.1v4.2h4.2V5.1H154.3z M19.4,11l0.6,1.9l0.6,1.5l3.1,6.9h-8.5l3.1-6.9c0.2-0.5,0.4-1,0.6-1.6
			c0.1-0.3,0.2-0.6,0.3-0.9C19.2,11.7,19.3,11.4,19.4,11z M59.5,13c-0.7,0-0.8,0-1.8,0c-1.1,0-2.1,0.4-2.9,1
			c-0.8,0.6-1.4,1.5-1.8,2.8v-3.1h-4.3v19.7H53v-9c0-2.7,0.3-3.9,0.9-5.1c0.6-1.2,1.7-1.8,3.1-1.8c0.5,0,0.9,0,1.4,0
			c0.5,0,0.8,0,1.2,0.2l0.9-4.5C60.2,13,60.1,13,59.5,13L59.5,13z M138.4,13c-1.3,0-2.6,0.2-3.9,0.8c-1.2,0.5-2.3,1.2-3.3,2.2
			c-0.9,0.9-1.7,2-2.2,3.3c-0.5,1.2-0.8,2.5-0.8,3.9c0,1.4,0.3,2.7,0.8,3.9c0.5,1.2,1.2,2.3,2.2,3.3c1,1,2,1.7,3.3,2.2
			c1.2,0.5,2.5,0.8,3.8,0.8c1.4,0,2.6-0.3,3.9-0.8c1.2-0.5,2.3-1.3,3.3-2.2c1-1,1.7-2.1,2.2-3.3c0.5-1.2,0.7-2.5,0.7-3.9
			c0-1.3-0.3-2.6-0.8-3.8c-0.5-1.2-1.2-2.3-2.2-3.3c-1-1-2.1-1.7-3.3-2.2C141.1,13.3,139.8,13,138.4,13z M192.7,13
			c-3,0-5.5,0.9-7.4,2.8c-1.9,1.9-2.9,4.3-2.9,7.3c0,3.1,0.9,5.6,2.8,7.4c1.9,1.8,4.4,2.8,7.5,2.8c1.1,0,2.1-0.1,3.1-0.4
			c1-0.2,1.8-0.6,2.6-1c1.6-0.9,3-2.4,4.1-4.2l-3.8-2c-0.7,1.3-1.6,2.3-2.5,2.9c-0.9,0.6-2.1,0.9-3.6,0.9c-1.6,0-2.9-0.5-3.9-1.5
			c-0.5-0.6-0.9-1.2-1.2-1.8c-0.3-0.7-0.4-1.4-0.4-2.3h15.7v-0.8c0-3.1-0.9-5.6-2.6-7.3C198.3,13.9,195.9,13,192.7,13z M37.7,13.4
			v19.9H42V13.4C42,13.4,37.7,13.4,37.7,13.4z M154.3,13.4v19.9h4.2V13.4C158.5,13.4,154.3,13.4,154.3,13.4z M173.8,13.6
			c-3.2,0-5.8,0.9-7.8,2.7c-2,1.8-3,4.2-3,7.1c0,1.5,0.2,2.8,0.7,4c0.5,1.2,1.2,2.2,2.2,3.1c1.9,1.8,4.4,2.7,7.5,2.7
			c1,0,2-0.1,3-0.3c0.9-0.2,1.8-0.6,2.7-1v-4.8c-0.7,0.8-1.4,1.4-2.2,1.7c-0.4,0.2-0.9,0.3-1.4,0.4c-0.5,0.1-1,0.1-1.5,0.1
			c-1.9,0-3.5-0.5-4.6-1.6c-1.1-1.1-1.7-2.6-1.7-4.5c0-1.8,0.5-3.3,1.6-4.4c1.1-1.1,2.6-1.7,4.4-1.7c1,0,2,0.2,2.9,0.6
			c0.9,0.4,1.7,0.9,2.4,1.6l0-4.7c-0.4-0.2-0.8-0.4-1.2-0.5c-0.4-0.1-0.8-0.2-1.2-0.3C175.7,13.7,174.8,13.6,173.8,13.6L173.8,13.6z
			 M192.8,16.7c1.5,0,2.8,0.3,3.7,1.1c0.9,0.7,1.4,1.8,1.6,3.1h-10.7c0.4-1.4,1-2.5,1.9-3.1C190.1,17,191.3,16.7,192.8,16.7z
			 M138.4,16.9c1.6,0,2.9,0.6,4,1.8s1.6,2.7,1.6,4.5c0,1.7-0.6,3.2-1.7,4.4c-1.1,1.2-2.4,1.8-4,1.8c-1.6,0-2.9-0.6-4-1.8
			c-1.1-1.2-1.6-2.7-1.6-4.4c0-1.8,0.5-3.2,1.6-4.5C135.5,17.5,136.9,16.9,138.4,16.9z"/>
		<path id="path29" class="st0" d="M235.8,0c-2.4,0-4.6,0.4-6.7,1.2c-2.1,0.8-4,2-5.6,3.6c-1.6,1.6-2.9,3.4-3.7,5.4
			c-0.9,2-1.3,4.2-1.3,6.4c0,2.2,0.4,4.4,1.3,6.4c0.9,2,2.1,3.8,3.7,5.4c1.6,1.6,3.5,2.8,5.6,3.6c2.1,0.8,4.3,1.3,6.7,1.3
			c2.3,0,4.5-0.4,6.6-1.3c2.1-0.9,4-2.1,5.6-3.6c1.7-1.6,2.9-3.3,3.8-5.3c0.9-2,1.3-4.1,1.3-6.4c0-2.2-0.4-4.4-1.3-6.4
			c-0.9-2-2.1-3.8-3.8-5.4c-1.7-1.6-3.5-2.8-5.6-3.6C240.3,0.4,238.1,0,235.8,0z M235.8,4.7c1.6,0,3.1,0.3,4.6,0.9
			c1.4,0.6,2.7,1.5,3.8,2.6c1.1,1.1,2,2.4,2.5,3.8c0.6,1.4,0.9,3,0.9,4.6c0,1.6-0.3,3.1-0.9,4.6c-0.6,1.4-1.5,2.7-2.6,3.8
			c-1.1,1.1-2.3,2-3.8,2.6c-1.4,0.6-2.9,0.9-4.5,0.9s-3.1-0.3-4.6-0.9c-1.4-0.6-2.7-1.5-3.8-2.6c-0.6-0.6-1.1-1.2-1.5-1.8
			c-0.4-0.6-0.8-1.3-1.1-2c-0.6-1.4-0.9-2.9-0.9-4.5c0-0.8,0.1-1.7,0.2-2.4c0.1-0.7,0.4-1.5,0.7-2.2c0.6-1.5,1.5-2.8,2.6-3.8
			c1.1-1.1,2.4-2,3.8-2.6C232.7,5,234.2,4.7,235.8,4.7z M289.7,13.1c-3,0-5.5,1-7.4,2.9c-1.9,1.9-2.9,4.3-2.9,7.3
			c0,3.1,0.9,5.6,2.8,7.4c1.9,1.8,4.4,2.8,7.5,2.8c1.1,0,2.1-0.1,3.1-0.4c1-0.2,1.8-0.6,2.6-1c1.6-0.9,3-2.3,4.1-4.2l-3.8-2
			c-0.7,1.3-1.6,2.3-2.5,2.8c-0.9,0.6-2.1,0.9-3.6,0.9c-1.6,0-2.9-0.5-3.9-1.5c-0.5-0.5-0.9-1.2-1.2-1.8c-0.3-0.7-0.4-1.4-0.4-2.3
			h15.6V23c0-3.1-0.9-5.6-2.6-7.3C295.3,13.9,292.9,13.1,289.7,13.1z M268.4,13.4c-1.7,0-3.1,0.3-4.3,0.9c-1.2,0.6-2.2,1.6-3,2.9V14
			h-4v19.3h4.3v-8.8c0-1.6,0.1-2.8,0.2-3.5c0.1-0.7,0.3-1.3,0.7-1.8c0.4-0.7,1.1-1.2,1.8-1.6c0.8-0.4,1.7-0.6,2.7-0.6
			c1.5,0,2.6,0.4,3.2,1.3c0.6,0.8,0.9,2.5,0.9,5v9.9h4.3V21.6c0-0.9,0-1.7-0.1-2.3c-0.1-0.6-0.1-1.1-0.2-1.4
			c-0.2-0.7-0.4-1.3-0.7-1.9c-0.6-0.9-1.3-1.6-2.3-2C271,13.6,269.8,13.4,268.4,13.4z M289.8,16.7c1.6,0,2.8,0.4,3.7,1.1
			c0.9,0.7,1.4,1.7,1.6,3.1v0h-10.7c0.4-1.4,1-2.4,1.9-3.1C287.1,17.1,288.3,16.7,289.8,16.7L289.8,16.7z"/>
	</g>
</g>
</svg>
