<?xml version="1.0" encoding="utf-8"?>
<!-- Generator: Adobe Illustrator 25.4.1, SVG Export Plug-In . SVG Version: 6.00 Build 0)  -->
<svg version="1.1" id="Layer_1" xmlns="http://www.w3.org/2000/svg" xmlns:xlink="http://www.w3.org/1999/xlink" x="0px" y="0px"
	 viewBox="0 0 80 80" style="enable-background:new 0 0 80 80;" xml:space="preserve">
<style type="text/css">
	.st0{fill:#FFFFFF;}
	.st1{fill:#E64413;}
</style>
<g>
	<circle class="st0" cx="40" cy="40" r="40"/>
	<path class="st1" d="M58.1,75.7C58.1,75.7,58.1,75.7,58.1,75.7c2.6-1.3,5-2.9,7.3-4.7C64.5,70.9,58.3,70.8,58.1,75.7z"/>
	<circle class="st1" cx="15.2" cy="25.7" r="0.6"/>
	<polygon class="st1" points="36.8,44.4 36.4,43.5 37.3,43.8 36.9,44 	"/>
	<polygon class="st1" points="33.9,42.8 33.9,41.8 34.5,42.6 34.1,42.5 	"/>
	<path class="st1" d="M73,24.6c-1.3-1.4-2.8-3.4-2-5.2c0.4-0.9,1.3-1.5,2.1-1.8C65.9,7,53.8,0,40,0C17.9,0,0,17.9,0,40
		c0,13.5,6.7,25.5,16.9,32.7c0.4-0.1,2-0.5,4.1,0c0,0,0.8-6.5,6.1-8.1c5.3-1.6,10,1.6,11.9,2.7c1.9,1.1,5.5,3.1,9.5,2.6
		c4.1-0.5,9.9-4.9,15.3-5.7c0,0,2.2-0.4,4.2-0.2c1.7,0.2,3.4,0.2,3.9,0.2c0.3-0.4,0.6-0.8,0.9-1.2l0,0l-0.9-0.8c0,0-0.2-1.9-3.5-2
		c-3.3-0.1-3.8,1.5-9.1,1.4c-5.3-0.2-6-3.2-6-4.5c0.1-1.4,0.9-3.2,2.3-4.8c1.5-1.6,5.5-5.2,5.5-8.8s-4.5-5.7-9.4-5.8
		c-4.9-0.2-9.5,0.4-9.3,1.8c0,0,0.1,1.5,2.2,1.5s4.3,0.1,4.3,2s-2,1.8-2.9,1.2s-1.8-1.1-2.4,0.3c-0.6,1.4,0.6,1.6,1.3,1.6
		c0.7,0,4.2-0.1,3.5,2s-2.3,0.3-2.7,0.1c-0.4-0.2-1.6-0.2-1.6,0.6c0,0.8,0.5,1.2,1.6,1.4c1.1,0.1,2.4,0.3,2.4,1.8S45.9,53,44.8,53
		c-1.1,0-8.1-0.5-11.9-6.4S29.7,36,26.6,33.1c-3.1-2.9-4.8-3.6-7.4-4.3c-2.6-0.6-11.2-2-11.2-2s3.2-0.5,3.9-0.8
		c0.7-0.4,2.3-2.1,4.2-2.3c1.9-0.2,3,0.6,5.2,1.7c2.2,1.1,5.8,3.5,8.9,3.3c3.1-0.2,4.3-1,5.4-2.1c1.1-1,5.5-5.1,6.9-6.2
		c1.5-1,7.2-4.3,14.7-2.8c7.5,1.5,8.1,2.8,7.7,3.3c-0.3,0.6-1.4,0.7-2.4,0.4c-1.1-0.3-2.1-0.3-2.3,0.2c-0.2,0.5,0.1,0.8,0.8,1
		c0.7,0.2,1.4,0.4,1,0.9c-0.3,0.6-1.5,0.6-2.5,0.3s-1.7-0.8-2.2,0.1c-0.5,0.9,0.2,1.5,1,1.5s1.9,0.2,1.5,1.1c-0.4,1-1.5,1.3-3.7,0.7
		c-2.3-0.6-4.1-1.8-4.9-0.9c-0.8,0.9,0.4,2,1.8,2.6c1.5,0.6,10.6,4.6,15.8,4.7c5.2,0.1,6.5-2.5,6.7-3.9C75.6,28.2,74.3,26,73,24.6z
		 M68.7,61.5c0.3,0,0.5,0.2,0.5,0.5s-0.2,0.5-0.5,0.5c-0.3,0-0.5-0.2-0.5-0.5S68.5,61.5,68.7,61.5z M61.9,63.1l0.8,0.4l-0.8,0.3
		l0.2-0.3L61.9,63.1z M60.8,64.4l-0.3,0.4l0-0.2l-0.2-0.1L60.8,64.4z M59.6,63.4l-0.5,0.7l-0.1-0.3l-0.3-0.1L59.6,63.4z M58.6,64.5
		l-0.5,0.6l0-0.3l-0.3-0.2L58.6,64.5z M56.9,64.1l-0.6,0.6l0-0.3l-0.3-0.2L56.9,64.1z M55,66.5l0-0.4l-0.3-0.2l0.9-0.1L55,66.5z
		 M54.1,63.2l0.9,0.6l-1,0.1l0.3-0.3L54.1,63.2z M53,65l0.9,0.6l-1,0.1l0.3-0.3L53,65z M52,67.9l0-0.4l-0.3-0.1l0.9-0.2L52,67.9z
		 M51.1,63.4L52,64l-1,0.1l0.2-0.3L51.1,63.4z M51,65.7l-0.6,0.8l0-0.4L50,65.9L51,65.7z M49,68.8l0-0.3l-0.3-0.1l0.7-0.2L49,68.8z
		 M49.2,64.5l-0.8,0.3l0.2-0.3l-0.2-0.3L49.2,64.5z M48.1,66.7L47.2,67l0.2-0.3l-0.2-0.3L48.1,66.7z M46.6,62.9l-0.9,0.5l0.1-0.4
		l-0.3-0.3L46.6,62.9z M45.2,67.9l-0.9,0.3l0.2-0.3l-0.2-0.3L45.2,67.9z M42.5,64.3l0.9,0.5l-1,0.2l0.2-0.3L42.5,64.3z"/>
	<polygon class="st1" points="34.8,40.1 34.3,39.2 35.2,39.6 34.8,39.8 	"/>
	<polygon class="st1" points="32.2,38.8 31.8,37.9 32.6,38.3 32.3,38.5 	"/>
	<polygon class="st1" points="31.8,36.2 31.4,35.3 32.3,35.5 31.9,35.8 	"/>
	<polygon class="st1" points="31.9,33.9 31.5,33.1 32.3,33.3 31.9,33.5 	"/>
	<polygon class="st1" points="29.7,33.4 29.4,32.7 30.2,32.9 29.8,33 	"/>
	<polygon class="st1" points="31.3,32 30.8,31.3 31.7,31.5 31.3,31.7 	"/>
	<polygon class="st1" points="29.2,31.6 28.7,31 29.4,31.1 29.2,31.3 	"/>
	<polygon class="st1" points="27.1,31.6 26.7,30.9 27.4,31.1 27.1,31.3 	"/>
	<polygon class="st1" points="26.6,30.2 26.1,29.6 26.9,29.7 26.6,29.9 	"/>
	<polygon class="st1" points="24.9,30.5 24.5,29.9 25.4,30.1 25,30.2 	"/>
	<polygon class="st1" points="23.7,29 23.3,28.5 23.9,28.6 23.7,28.7 	"/>
	<polygon class="st1" points="34.6,37.3 34.2,36.3 35.1,36.8 34.8,36.9 	"/>
	<polygon class="st1" points="34.7,34.4 34.2,33.8 34.9,33.9 34.7,34.1 	"/>
	<polygon class="st1" points="34,32.4 33.5,31.9 34.4,32 33.9,32.1 	"/>
	<polygon class="st1" points="37.5,37.6 37,36.7 38,37.1 37.6,37.2 	"/>
	<polygon class="st1" points="37.7,34.6 37.1,33.8 38.1,34 37.7,34.2 	"/>
	<polygon class="st1" points="36.9,32.4 36.2,31.7 37.2,31.8 36.9,32.1 	"/>
	<polygon class="st1" points="38.6,41.1 37.9,40.4 38.9,40.5 38.6,40.7 	"/>
	<polygon class="st1" points="42.1,34.6 41.4,33.8 42.4,33.9 42.1,34.2 	"/>
	<polygon class="st1" points="40,32.8 39.3,32.1 40.2,32.2 39.9,32.4 	"/>
	<polygon class="st1" points="40.4,36.7 39.8,35.9 40.8,36.1 40.4,36.3 	"/>
	<polygon class="st1" points="42.7,31.4 42,30.7 43,30.7 42.7,31 	"/>
	<polygon class="st1" points="39.9,29.9 38.9,29.6 39.8,29.2 39.7,29.6 	"/>
	<polygon class="st1" points="45.7,30.3 44.8,29.8 45.8,29.6 45.5,29.9 	"/>
	<polygon class="st1" points="43.7,28.5 42.6,28.6 43.4,27.9 43.4,28.3 	"/>
</g>
</svg>
