<?xml version="1.0" encoding="utf-8"?>
<!-- Generator: Adobe Illustrator 25.4.1, SVG Export Plug-In . SVG Version: 6.00 Build 0)  -->
<svg version="1.1" id="Layer_1" xmlns="http://www.w3.org/2000/svg" xmlns:xlink="http://www.w3.org/1999/xlink" x="0px" y="0px"
	 viewBox="0 0 174.5 80" style="enable-background:new 0 0 174.5 80;" xml:space="preserve">
<style type="text/css">
	.st0{fill:#231F20;}
	.st1{fill:#F1471D;}
</style>
<path class="st0" d="M12.4,46.1c-0.2,0-0.5,0.2-0.6,0.4L0.5,78.7c-0.1,0.3,0,0.7,0.3,0.7h6.1c0.2,0,0.5-0.2,0.6-0.4l1.8-5.7h12.2
	l1.8,5.7c0.1,0.2,0.3,0.4,0.6,0.4h6.1c0.3,0,0.4-0.3,0.3-0.7L18.9,46.6c-0.1-0.2-0.3-0.4-0.6-0.4L12.4,46.1z M104,54.3
	c-3.2,0-5.9,1.3-7.5,4.1l-0.4-3.1c0-0.2-0.3-0.4-0.5-0.4h-4.2c-0.2,0-0.4,0.2-0.4,0.4V79c0,0.2,0.2,0.4,0.4,0.4h5.7
	c0.3,0,0.5-0.2,0.5-0.4V66.4c0-4.1,1.8-6.1,4.5-6.1c2.3,0,3.7,1.6,3.7,4.7v14c0,0.2,0.2,0.4,0.4,0.4h5.8c0.2,0,0.4-0.2,0.4-0.4V63
	C112.5,57.7,109.1,54.3,104,54.3 M127,80c3.2,0,5.7-1.3,7.3-4.1l0.4,3.1c0,0.2,0.3,0.4,0.5,0.4h4.2c0.2,0,0.4-0.2,0.4-0.4V55.3
	c0-0.2-0.2-0.4-0.4-0.4h-5.7c-0.3,0-0.5,0.2-0.5,0.4v12.5c0,4.1-1.8,6.2-4.3,6.2c-2.2,0-3.5-1.6-3.5-4.7v-14c0-0.2-0.2-0.4-0.4-0.4
	h-5.8c-0.2,0-0.4,0.2-0.4,0.4v15.9C118.7,76.6,122,80,127,80 M161.3,72.4c0,5.2,2.8,7.6,7.8,7.6c2.2,0,5-0.6,5-0.6
	c0.2,0,0.4-0.3,0.4-0.6v-4.6c0-0.4-0.3-0.4-0.5-0.4c-0.6,0.1-1.8,0.2-3.3,0.2c-1.9,0-2.8-0.8-2.8-2.7v-11h5.7c0.2,0,0.4-0.2,0.4-0.5
	v-4.5c0-0.2-0.2-0.4-0.4-0.4h-5.7v-7.2c0-0.3-0.3-0.5-0.6-0.4l-5.6,1.9c-0.2,0.1-0.4,0.3-0.4,0.6v5.1h-3.8c-0.2,0-0.4,0.2-0.4,0.4
	v4.5c0,0.3,0.2,0.5,0.4,0.5h3.8V72.4z M83.4,46.1h-6c-0.3,0-0.5,0.2-0.5,0.5v32.3c0,0.3,0.2,0.5,0.5,0.5h6c0.3,0,0.5-0.2,0.5-0.5
	V46.6C83.9,46.4,83.7,46.1,83.4,46.1 M62,54.4c-0.4-0.1-1.2-0.1-1.9-0.1c-2.8,0-5.3,1.5-6.5,4.4l-0.4-3.3c0-0.2-0.2-0.4-0.5-0.4
	h-4.3c-0.2,0-0.4,0.2-0.4,0.4v23.6c0,0.3,0.2,0.5,0.4,0.5h5.8c0.3,0,0.5-0.2,0.5-0.5V66.4c0-4,2-6.2,5.3-6.2c0.6,0,1.9,0.1,2.6,0.2
	c0.3,0,0.4,0,0.4-0.3v-4.7C62.9,54.6,62.9,54.6,62,54.4 M40.4,54.9h-5.8c-0.3,0-0.5,0.2-0.5,0.4v23.6c0,0.3,0.2,0.5,0.5,0.5h5.8
	c0.3,0,0.5-0.2,0.5-0.5V55.3C40.8,55.1,40.6,54.9,40.4,54.9 M153,54.9h-5.8c-0.2,0-0.4,0.2-0.4,0.4v23.6c0,0.3,0.2,0.5,0.4,0.5h5.8
	c0.2,0,0.5-0.2,0.5-0.5V55.3C153.5,55.1,153.2,54.9,153,54.9 M15.4,54.3l4.1,12.8h-8.2L15.4,54.3z M153.1,44.9H147
	c-0.2,0-0.4,0.2-0.4,0.5v5.7c0,0.2,0.2,0.5,0.4,0.5h6.2c0.3,0,0.5-0.2,0.5-0.5v-5.7C153.6,45.1,153.4,44.9,153.1,44.9 M40.5,44.9
	h-6.2c-0.2,0-0.4,0.2-0.4,0.5v5.7c0,0.2,0.2,0.5,0.4,0.5h6.2c0.3,0,0.5-0.2,0.5-0.5v-5.7C41,45.1,40.8,44.9,40.5,44.9"/>
<path class="st1" d="M11.9,1.2c-0.2,0-0.5,0.2-0.6,0.4L0.1,33.8c-0.1,0.3,0,0.7,0.3,0.7h29.1c0.3,0,0.4-0.3,0.3-0.7L18.4,1.7
	c-0.1-0.2-0.3-0.4-0.6-0.4L11.9,1.2z M77.4,1.2c-0.2,0-0.5,0.2-0.6,0.4L65.6,33.8c-0.1,0.3,0,0.7,0.3,0.7h29.1
	c0.3,0,0.4-0.3,0.3-0.7L84,1.7c-0.1-0.2-0.3-0.4-0.6-0.4L77.4,1.2z M53.4,9.4c-6.9,0-11.7,5-11.7,12.4c0,2.8,0.9,5.7,2.3,7.6
	c-4.1,0-10.1-0.5-12-0.6c-0.3,0-0.5,0.1-0.5,0.4v4.6c0,0.3,0.1,0.5,0.4,0.5c5.1,0.4,13.5,0.9,19.4,0.9c9.3,0,13.8-4.8,13.8-13
	C65.1,14,60.5,9.4,53.4,9.4 M103.8,5.1c1.3,0,2.8,0.1,2.8,0.1c0.3,0,0.5-0.2,0.5-0.5V0.9c0-0.3-0.2-0.5-0.5-0.6c0,0-1.6-0.3-3.1-0.3
	C96,0,91.9,4.5,91.9,11.3c0,7.4,4.3,11.4,11.6,11.4c1.3,0,3.1-0.3,3.1-0.3c0.3,0,0.5-0.3,0.5-0.5v-4c0-0.2-0.2-0.5-0.5-0.4
	c0,0-1.5,0.1-2.8,0.1c-3.8,0-5.9-2.2-5.9-6.3C97.9,7.3,100.1,5.1,103.8,5.1 M53.4,29.5c-3.1,0-5-2.5-5-7.3s2.1-7,5.1-7
	c3.2,0,5,2.4,5,7C58.4,27.1,56.4,29.5,53.4,29.5 M14.9,9.5l6,18.9H8.8L14.9,9.5z M80.4,9.5l6,18.9H74.3L80.4,9.5z"/>
</svg>
