<?xml version="1.0" encoding="utf-8"?>
<!-- Generator: Adobe Illustrator 25.4.1, SVG Export Plug-In . SVG Version: 6.00 Build 0)  -->
<svg version="1.1" id="Layer_1" xmlns="http://www.w3.org/2000/svg" xmlns:xlink="http://www.w3.org/1999/xlink" x="0px" y="0px"
	 viewBox="0 0 428.34 80" style="enable-background:new 0 0 428.34 80;" xml:space="preserve">
<style type="text/css">
	.st0{fill:#949494;}
	.st1{fill:#030303;}
	.st2{fill:#EA6E46;}
</style>
<g>
	<path class="st0" d="M247.36,7.15c3.46,0,6.91,0.05,10.37-0.03c1.05-0.03,1.4,0.47,1.68,1.28c0.8,2.3,1.64,4.59,2.44,6.88
		c0.78,2.24,1.4,4.54,2.34,6.71c1.03,2.39,1.65,4.91,2.7,7.29c0.77,1.75,1.21,3.63,1.9,5.42c0.97,2.53,1.71,5.14,2.73,7.66
		c0.87,2.15,1.52,4.39,2.35,6.57c0.78,2.04,1.49,4.11,2.17,6.19c0.73,2.24,1.66,4.42,2.45,6.64c0.9,2.52,1.63,5.11,2.63,7.59
		c0.63,1.55,1.09,3.16,1.77,4.69c0.41,0.93,0.6,1.94,1.05,2.88c0.31,0.66-0.18,0.86-0.86,0.86c-5.57-0.02-11.14-0.01-16.72-0.01
		c-0.14,0-0.28,0-0.42,0c-1.93,0.01-1.88,0-2.29-1.95c-0.22-1.04-0.65-2.02-0.94-3.04c-0.55-1.88-1.11-3.75-1.57-5.65
		c-0.22-0.91-0.82-1.66-0.92-2.63c-0.04-0.39-0.53-0.23-0.82-0.23c-3.91-0.01-7.83-0.01-11.74-0.01c-3.95,0-7.9,0-11.85,0
		c-1.53,0-1.44,0.02-1.81,1.53c-0.37,1.49-0.96,2.92-1.41,4.39c-0.53,1.74-1.04,3.49-1.5,5.25c-0.16,0.6-0.46,1.15-0.56,1.78
		c-0.06,0.37-0.48,0.58-0.99,0.58c-6.03-0.02-12.06-0.01-18.09-0.02c-0.7,0-0.96-0.52-0.62-1.35c1.34-3.26,2.36-6.64,3.66-9.92
		c1.28-3.23,2.26-6.58,3.49-9.84c0.95-2.52,1.94-5.03,2.81-7.56c1.03-2.99,2.08-5.97,3.11-8.95c0.74-2.13,1.58-4.22,2.32-6.35
		c0.46-1.32,1.73-1.6,2.72-2.21c3.08-1.89,6.19-3.73,9.31-5.54c0.92-0.53,1.75-1.21,2.75-1.62c0.23-0.09,0.69-0.23,0.57-0.62
		c-0.1-0.33-0.49-0.17-0.75-0.17c-3.17-0.01-6.35,0-9.52-0.01c-1.07,0-1.35-0.42-0.98-1.42c1.26-3.48,2.47-6.99,3.79-10.45
		c0.5-1.31,0.83-2.67,1.48-3.93c0.29-0.56,0.54-0.67,1.08-0.66C240.24,7.17,243.8,7.16,247.36,7.15
		C247.36,7.16,247.36,7.15,247.36,7.15z M247.29,49.91c2.47,0,4.94,0.01,7.4,0c0.77,0,0.82-0.04,0.75-0.37
		c-0.4-1.99-1.08-3.91-1.71-5.83c-0.68-2.09-1.14-4.24-1.94-6.28c-0.63-1.6-1.05-3.26-1.5-4.9c-0.34-1.22-0.83-2.39-1.09-3.64
		c-0.3-1.44-0.84-2.83-1.33-4.22c-0.08-0.24-0.28-0.57-0.69-0.56c-0.48,0.01-0.4,0.39-0.49,0.67c-0.27,0.89-0.54,1.79-0.82,2.67
		c-0.38,1.2-0.9,2.38-1.12,3.61c-0.19,1.04-0.71,1.94-0.94,2.93c-0.41,1.77-1.11,3.45-1.5,5.23c-0.34,1.56-0.98,3.06-1.48,4.59
		c-0.54,1.62-0.85,3.31-1.55,4.89c-0.39,0.87-0.16,1.2,0.81,1.21C242.5,49.91,244.9,49.91,247.29,49.91z"/>
	<path class="st0" d="M406.13,70.24c-2.16,3.47-5.15,5.9-8.69,7.64c-1.76,0.86-3.67,1.3-5.61,1.67c-1.77,0.34-3.54,0.35-5.31,0.35
		c-2.59,0-5.02-0.68-7.46-1.52c-2.78-0.96-4.85-2.73-6.75-4.83c-1.1-1.22-1.76-2.73-2.3-4.23c-0.97-2.69-1.46-5.53-1.25-8.39
		c0.21-2.88,0.89-5.66,2.63-8.12c1.87-2.64,4.53-4.01,7.45-5.06c2.58-0.92,5.22-1.45,7.95-1.77c2.58-0.3,5.17-0.57,7.75-0.84
		c2.56-0.27,5.22-0.26,7.66-1.23c1.9-0.75,3.48-1.77,3.79-4.16c0.39-3.03-0.83-5.47-3.8-6.77c-3.5-1.53-8.45-0.15-10.51,3.02
		c-0.49,0.76-0.75,1.7-0.97,2.6c-0.14,0.55-0.36,0.66-0.85,0.65c-5.4-0.01-10.79,0.02-16.19-0.04c-0.73-0.01-1.45,0.05-2.18,0.03
		c-0.68-0.02-0.88-0.18-0.81-1.05c0.19-2.26,1.18-4.18,2.23-6.07c1.16-2.08,2.83-3.71,4.74-5.16c1.39-1.05,2.86-1.92,4.46-2.56
		c1.62-0.65,3.27-1.24,5-1.61c2.11-0.46,4.26-0.59,6.37-0.94c2.74-0.45,5.47-0.4,8.17-0.19c2.38,0.18,4.79,0.48,7.15,1.07
		c2.94,0.72,5.74,1.77,8.22,3.43c3.02,2.02,5.51,4.57,6.76,8.18c0.61,1.75,0.91,3.51,1.27,5.3c0.39,1.93,0.3,3.84,0.31,5.75
		c0.06,6.73-0.12,13.47,0.11,20.19c0.11,3.02,0.34,6.15,1.82,8.97c0.42,0.8,0.52,1.77,0.98,2.59c0.17,0.3,0.03,0.63-0.43,0.62
		c-0.14,0-0.28,0-0.42,0c-6.1,0-12.2-0.02-18.3,0.01c-1.06,0-1.42-0.38-1.57-1.45c-0.22-1.55-0.7-3.07-1.1-4.6
		C406.32,71.28,406.47,70.76,406.13,70.24z M405.8,49.97c-2.45,1.96-5.23,2.9-8.05,3.85c-1.9,0.64-3.82,1.2-5.59,2.27
		c-3.39,2.05-3.88,5.51-2.61,8.37c1.1,2.48,3.36,3.76,6.11,3.98c0.97,0.08,1.92-0.16,2.88-0.29c2.34-0.32,3.95-1.6,5.18-3.44
		c1.92-2.86,2.13-6.21,2.52-9.48C406.45,53.52,406.08,51.83,405.8,49.97z"/>
	<path class="st1" d="M89.45,52.87c-5.96,0-11.92,0.02-17.88-0.02c-0.79,0-1.07,0.15-0.93,0.98c0.57,3.33,1.53,6.45,4.17,8.82
		c1.9,1.71,4.17,2.29,6.61,2.25c3.56-0.05,6.01-1.85,7.49-5.05c0.24-0.52,0.58-0.89,1.31-0.89c5.36,0.03,10.72,0.01,16.08-0.01
		c0.59,0,0.93,0.17,0.69,0.8c-0.96,2.54-2.04,5.02-3.6,7.28c-2.34,3.39-5.39,5.96-9.05,7.77c-2.86,1.41-5.91,2.24-9.11,2.68
		c-2.54,0.35-5.06,0.43-7.57,0.24c-7.16-0.52-13.23-3.45-17.9-8.95c-2.38-2.81-4.1-6.01-5.24-9.55c-1.47-4.6-1.92-9.31-1.5-14.06
		c0.28-3.22,1.06-6.36,2.27-9.44c1.54-3.91,3.96-7.1,6.97-9.82c2.45-2.22,5.34-3.87,8.57-4.86c1.99-0.61,3.98-0.99,6.03-1.31
		c2.01-0.31,4-0.35,5.98-0.22c6.05,0.39,11.63,2.12,16.26,6.26c3.04,2.71,5.25,5.99,6.73,9.77c1.14,2.91,1.81,5.9,2.2,9.02
		c0.3,2.42,0.21,4.83,0.32,7.24c0.05,0.92-0.3,1.08-1.13,1.07C101.3,52.86,95.37,52.87,89.45,52.87z M80.94,30.52
		c-1.83,0.35-3.81,0.59-5.56,1.94c-2.66,2.05-4.02,4.74-4.72,7.9c-0.18,0.79,0.43,0.95,0.92,0.88c2.21-0.33,4.42-0.14,6.63-0.13
		c3.75,0.02,7.51-0.2,11.26,0.09c0.25,0.02,1.26,0.18,0.94-0.77c-0.49-1.47-0.87-2.97-1.47-4.41C87.61,32.81,84.59,30.6,80.94,30.52
		z"/>
	<path class="st0" d="M295.09,61.79c2.75,0,5.5,0.02,8.25-0.01c0.81-0.01,1.24,0.2,1.43,1.11c0.57,2.72,2.07,4.77,4.7,5.87
		c0.19,0.08,0.4,0.11,0.61,0.14c1.2,0.19,2.43,0.16,3.64,0.31c1.02,0.13,2.2-0.25,3.16-0.8c2.9-1.66,3.41-3,3.09-6.04
		c-0.15-1.42-1.4-2.13-2.49-2.68c-1.83-0.93-3.85-1.42-5.89-1.79c-2.65-0.47-5.32-0.85-7.96-1.34c-2.92-0.54-5.92-0.95-8.6-2.44
		c-2.95-1.64-5.52-3.7-6.98-6.8c-0.59-1.25-1.12-2.59-1.1-4.05c0.02-1.83-0.11-3.67,0.05-5.49c0.16-1.85,0.86-3.57,1.77-5.21
		c1.8-3.21,4.46-5.47,7.62-7.26c2.12-1.2,4.35-1.98,6.71-2.54c1.59-0.38,3.19-0.59,4.78-0.87c3.61-0.62,7.24-0.45,10.83-0.22
		c3,0.2,5.98,0.91,8.82,2.09c1.89,0.78,3.63,1.8,5.27,2.97c1.51,1.08,2.6,2.6,3.52,4.18c1.27,2.18,2.02,4.53,1.9,7.11
		c-0.03,0.65-0.13,0.92-0.87,0.92c-5.5-0.03-11-0.04-16.5,0.01c-0.99,0.01-1.31-0.24-1.32-1.27c-0.02-2.61-2.34-4.99-4.97-5.64
		c-1.23-0.3-2.41-0.28-3.63-0.32c-1.59-0.06-2.91,0.65-4.06,1.57c-1.83,1.46-2.01,5.29,0.74,6.85c1.97,1.12,4.1,1.74,6.31,2.19
		c2.3,0.47,4.62,0.87,6.91,1.34c3.01,0.62,6.04,1.35,8.9,2.49c2.77,1.11,5.48,2.45,7.26,4.99c0.96,1.37,1.64,2.89,2.08,4.55
		c0.66,2.47,0.49,4.96,0.27,7.4c-0.21,2.35-1.12,4.61-2.5,6.59c-0.69,0.99-1.26,2.07-2.17,2.87c-1.6,1.41-3.24,2.86-5.15,3.76
		c-2.06,0.98-4.18,1.93-6.48,2.38c-1.81,0.36-3.63,0.58-5.44,0.88c-3.13,0.52-6.26,0.49-9.34,0.2c-3.54-0.33-7.07-0.84-10.48-2.23
		c-3.24-1.32-5.91-3.22-8.15-5.79c-1.49-1.7-2.36-3.78-3.11-5.91c-0.31-0.88-0.37-1.82-0.74-2.69c-0.41-0.97-0.05-1.4,1.04-1.4
		C289.59,61.77,292.34,61.78,295.09,61.79C295.09,61.78,295.09,61.78,295.09,61.79z"/>
	<path class="st1" d="M49.89,31.3c0,6.38-0.05,12.76,0.02,19.14c0.03,2.69-0.11,5.36-0.48,8c-0.63,4.51-1.91,8.81-4.99,12.37
		c-2.23,2.58-5.02,4.26-8.25,5.36c-5.06,1.72-10.26,1.93-15.48,1.52c-3.91-0.31-7.76-1.18-11.22-3.24c-3.06-1.82-5.4-4.29-6.94-7.48
		c-1.25-2.6-1.88-5.35-2.26-8.23c-0.5-3.8-0.13-7.58-0.31-11.36c-0.03-0.62,0.15-0.86,0.82-0.86c5.54,0.02,11.07,0.02,16.61-0.01
		c0.77,0,0.73,0.41,0.73,0.93c0.01,3.21-0.12,6.42,0.09,9.62c0.17,2.61,1.14,5.03,3.79,6.13c1.33,0.56,2.77,0.83,4.34,0.42
		c1.48-0.38,2.8-0.8,3.7-2.07c0.87-1.23,1.12-2.67,1.24-4.12c0.81-9.49,0.25-19.01,0.37-28.51c0.09-6.84,0.02-13.67,0.02-20.51
		c0-1.51,0.01-1.52,1.57-1.52c5.08-0.01,10.16-0.01,15.24-0.01c1.17,0,1.36,0.19,1.36,1.39c0,7.68,0,15.37,0,23.05
		C49.88,31.3,49.89,31.3,49.89,31.3z"/>
	<path class="st1" d="M114.69,51.96c0-5.69-0.03-10.3,0.03-14.92c0.01-0.91-0.26-1.12-1.11-1.09c-1.66,0.06-3.31,0-4.97,0.03
		c-0.56,0.01-0.8-0.09-0.79-0.73c0.03-3.52,0.03-7.05,0.01-10.57c0-0.7,0.2-0.99,0.96-0.97c1.66,0.06,3.32-0.02,4.97,0.04
		c0.74,0.02,0.93-0.19,0.93-0.93c-0.04-4.9,0-9.8-0.04-14.7c-0.01-0.97,0.25-1.28,1.25-1.27c4.62,0.05,9.24,0.05,13.86,0
		c0.89-0.01,1.08,0.31,1.07,1.1c-0.02,4.93,0.02,9.87-0.03,14.8c-0.01,0.84,0.26,0.99,1.02,0.98c2.57-0.04,5.15,0.02,7.72-0.02
		c0.73-0.01,0.98,0.21,0.97,0.96c-0.03,3.49-0.04,6.98,0,10.47c0.01,0.76-0.28,0.85-0.91,0.84c-2.5-0.03-5.01,0.04-7.51-0.03
		c-1.06-0.03-1.31,0.35-1.3,1.34c0.04,4.86-0.08,9.73,0.06,14.59c0.07,2.56,0.14,5.13,0.41,7.67c0.15,1.45,0.55,2.94,2.15,3.66
		c0.45,0.2,0.88,0.23,1.32,0.24c2.04,0.03,4.09,0.06,6.14,0.04c0.64-0.01,0.97,0.12,0.97,0.85c-0.02,4.26-0.02,8.53-0.01,12.79
		c0,0.54-0.14,0.71-0.71,0.72c-5.4,0.06-10.8,0.16-16.18-0.15c-2.77-0.16-5.54-0.83-7.48-3.24c-1.12-1.39-1.57-3.01-1.95-4.68
		C114.11,63.53,114.93,57.18,114.69,51.96z"/>
	<path class="st0" d="M345.34,50.63c0-8.56,0.01-17.12-0.02-25.68c0-0.94,0.22-1.28,1.23-1.27c4.9,0.05,9.8,0.03,14.7,0.03
		c1.34,0,1.48,0.14,1.48,1.43c0,17.19,0,34.39,0.01,51.58c0,0.71-0.11,1.08-0.97,1.07c-5.15-0.04-10.3-0.04-15.44,0.01
		c-0.96,0.01-0.99-0.45-0.99-1.17C345.35,67.96,345.35,59.3,345.34,50.63C345.34,50.63,345.34,50.63,345.34,50.63z"/>
	<polygon class="st2" points="201.28,25.57 200.23,0 181.46,25.57 149.45,25.56 168.96,44.89 150.56,72.86 183.9,57.11 207.33,78.9 
		202.69,44.45 233.47,25.93 	"/>
</g>
</svg>
