<?xml version="1.0" encoding="utf-8"?>
<!-- Generator: Adobe Illustrator 25.4.1, SVG Export Plug-In . SVG Version: 6.00 Build 0)  -->
<svg version="1.1" id="Layer_2_00000159471598350358213750000014612203606435250611_"
	 xmlns="http://www.w3.org/2000/svg" xmlns:xlink="http://www.w3.org/1999/xlink" x="0px" y="0px" viewBox="0 0 240.8 80"
	 style="enable-background:new 0 0 240.8 80;" xml:space="preserve">
<style type="text/css">
	.st0{fill:#B0B7BC;}
	.st1{fill:#EC098D;}
	.st2{fill:#CFD4D8;}
</style>
<g>
	<path class="st0" d="M229.8,32.9c2.8-4.5,10.9-4.1,10.9-4.1l-0.7,6c-9.3,0-9.5,8.1-9.5,8.1l-0.1,16.6h-7.2v-30h5.8
		C229.4,30.7,229.7,31.8,229.8,32.9"/>
	<path class="st0" d="M157.8,29.6h7.7c3.5,13.6,6.6,22.2,6.6,22.2c2.7-7.2,4.8-14.7,6.3-22.2h7.1c-3.9,18.3-9.8,30-9.8,30h-8.4
		C160.5,41.9,157.8,29.6,157.8,29.6"/>
	<path class="st0" d="M215.8,45.9c0.2-1.6,0.4-3.1,0.4-4.7c-0.1-13.3-13.2-12.4-13.2-12.4c-12.6,0.5-13.6,11.2-13.6,11.2
		c-1.1,7.6,1.1,12.7,1.1,12.7c3.3,8.2,13.5,7.6,13.5,7.6c8.5,0,11.1-1.9,11.1-1.9l-1-5.2c-6.5,1.9-11,1.3-11,1.3
		c-7.2-0.3-6.9-8.7-6.9-8.7L215.8,45.9z M203,34.2c6.7,0,5.8,7.1,5.8,7.1h-12.6C196.5,34.2,203,34.2,203,34.2"/>
	<path class="st0" d="M144.4,15.9h7.2v25.4c-0.2,13,4.6,12.6,4.6,12.6v5.9C144,61,144.4,46,144.4,46L144.4,15.9z"/>
	<path class="st0" d="M136,59.6h-7.2V43.7c0.2-8.2-2.4-8.2-2.4-8.2v-5.9c10.3-1.3,9.5,8.1,9.5,8.1V59.6z"/>
	<path class="st0" d="M136.8,20.5c0.1,2.6-2,4.7-4.5,4.8c-2.6,0.1-4.7-2-4.8-4.5s2-4.7,4.5-4.8c0,0,0.1,0,0.1,0
		C134.6,15.9,136.7,17.9,136.8,20.5C136.8,20.5,136.8,20.5,136.8,20.5"/>
	<path class="st0" d="M116.8,25.4l1.3-5.9c-12.1-3.2-17.2,0.3-17.2,0.3c-5,3.3-6.2,7.9-5.4,11.8c0.9,4.7,5,7.2,5,7.2
		c2.8,1.9,5.7,3.5,8.8,4.9c3.6,1.7,4,4.5,3.3,6.9c-0.8,2.6-4.8,3.3-4.8,3.3c-7.6,0.7-11.7-1.3-11.7-1.3l-1.1,6
		c7.2,2.6,15.2,1.2,15.2,1.2c6.4-1.1,9.6-6,10.3-9c1.9-8.3-3.3-11.2-3.3-11.2c-3.2-2.3-7.6-4.3-10.6-5.8c-1.4-0.7-2.5-1.9-3-3.3
		c-1.3-4.6,3.4-5.9,3.4-5.9C113.1,23.4,116.8,25.3,116.8,25.4"/>
	<path class="st1" d="M138.8,79.7c-0.3-1-0.6-2.1-0.9-3.1h-5.1c-0.3,1.1-0.6,2.1-0.9,3.1h-2.5c1.4-4.6,2.9-8.9,4.6-13.3h3
		c1.8,4.4,3.4,9,4.7,13.3H138.8z M137.4,74.6c-0.5-1.5-1-3-1.6-4.6c-0.1-0.4-0.3-0.8-0.4-1.2l0,0c-0.1,0.4-0.3,0.8-0.4,1.2
		c-0.5,1.5-1.1,3.1-1.6,4.6H137.4z"/>
	<rect x="147.2" y="66.4" class="st1" width="2.5" height="13.3"/>
	<path class="st1" d="M163.4,79.7l-2.9-5.5h-1.3v5.5h-2.5V66.4h4.3c2.8,0,4.6,1.2,4.6,3.6c0.1,1.6-1,3.1-2.6,3.6l3.3,6.1H163.4z
		 M160.7,68.4h-1.5v3.9h1.3c1.6,0,2.4-0.9,2.4-2C162.9,69.3,162.4,68.4,160.7,68.4"/>
	<path class="st1" d="M189.4,66.4c-0.9,4.5-2,8.9-3.3,13.3h-3.3l-2.1-8.5l-0.3-1.4h0l-0.3,1.4l-2.1,8.5h-3.3
		c-1.3-4.4-2.4-8.8-3.3-13.3h2.7c0.5,3,1.3,6.4,2.1,9.4c0.1,0.4,0.2,0.9,0.3,1.3h0l0.4-1.7l2.2-9h2.9l2.2,8.9l0.4,1.7l0,0
		c0.1-0.5,0.2-1,0.4-1.4c0.9-3.3,1.6-6.4,2-9.2L189.4,66.4z"/>
	<path class="st1" d="M202.3,79.7c-0.3-1-0.6-2.1-0.9-3.1h-5.1c-0.3,1.1-0.6,2.1-0.9,3.1h-2.5c1.3-4.6,2.9-8.9,4.6-13.3h3
		c1.8,4.4,3.4,9,4.7,13.3H202.3z M200.9,74.6c-0.5-1.5-1-3-1.6-4.6c-0.1-0.4-0.3-0.8-0.4-1.2l0,0c-0.1,0.4-0.3,0.8-0.4,1.2
		c-0.5,1.5-1.1,3.1-1.6,4.6H200.9z"/>
	<path class="st1" d="M218.5,66.4c-1.1,2.8-2.6,5.4-4.3,7.9v5.4h-2.5v-5.4c-1.7-2.5-3.1-5.2-4.3-7.9h2.9c0.8,2,1.7,3.9,2.8,5.7
		c1.1-1.8,2-3.7,2.8-5.7H218.5z"/>
	<path class="st1" d="M226.1,80c-1.1,0-2.2-0.2-3.3-0.5l0.3-2.1c1,0.3,2,0.5,3,0.5c1.6,0,2.4-0.7,2.4-1.8s-0.9-1.6-2.5-2.2
		c-1.9-0.8-3.2-1.8-3.2-3.9c0-2.5,2-3.8,4.6-3.8c1,0,2,0.2,2.9,0.5l-0.4,2c-0.8-0.3-1.7-0.4-2.5-0.4c-1.3,0-1.9,0.6-1.9,1.5
		c0,1.1,0.9,1.6,2.1,2.1c1.8,0.8,3.5,1.5,3.5,3.9C231.2,78.6,229,80,226.1,80"/>
	<path class="st2" d="M68.8,14.1c-0.9-0.7-2.4-1.9-2.4-1.9c-0.1-0.1-0.2-0.2-0.3-0.3c0,0-1.2-1.6-1.9-2.4c-0.3-0.4-0.6-0.8-1-1.2
		c-14.2-11-34-11-48.2,0c-0.4,0.4-0.7,0.8-1,1.2c-0.7,0.9-1.9,2.4-1.9,2.4c-0.1,0.1-0.2,0.2-0.3,0.3c0,0-1.6,1.2-2.4,1.9
		c-0.4,0.3-0.8,0.6-1.2,1c-11,14.2-11,34,0,48.2l0,0c0.4,0.4,0.8,0.7,1.2,1c0.9,0.7,2.4,1.9,2.4,1.9c0.1,0.1,0.2,0.2,0.3,0.3
		c0,0,1.2,1.6,1.9,2.4c0.3,0.4,0.6,0.8,1,1.2c14.2,11,34,11,48.2,0c0.4-0.4,0.7-0.8,1-1.2c0.7-0.9,1.9-2.4,1.9-2.4
		c0.1-0.1,0.2-0.2,0.3-0.3c0,0,1.6-1.2,2.4-1.9c0.4-0.3,0.8-0.6,1.2-1c11-14.2,11-34,0-48.2C69.6,14.7,69.2,14.3,68.8,14.1
		 M66.1,12.4c0.7,1.2,1.2,2.1,1.2,2.1c0.3,0.6,0.7,1.2,1.1,1.8c10.5,13.4,10.5,32.3,0,45.7c-0.4,0.6-0.8,1.2-1.1,1.8
		c0,0-0.5,0.9-1.2,2.1c-0.1,0.1-0.2,0.2-0.3,0.3c-1.2,0.7-2.1,1.2-2.1,1.2c-0.6,0.3-1.2,0.7-1.8,1.1c-13.4,10.5-32.3,10.5-45.7,0
		c-0.6-0.4-1.2-0.8-1.8-1.1c0,0-0.9-0.5-2.1-1.2c-0.1-0.1-0.2-0.2-0.3-0.3c-0.7-1.2-1.2-2.1-1.2-2.1c-0.3-0.6-0.7-1.2-1.1-1.8l0,0
		c-10.5-13.4-10.5-32.3,0-45.7c0.4-0.6,0.8-1.2,1.1-1.8c0,0,0.5-0.9,1.2-2.1c0.1-0.1,0.2-0.2,0.3-0.3c1.2-0.7,2.1-1.2,2.1-1.2
		c0.6-0.3,1.2-0.7,1.8-1.1C29.7-0.7,48.6-0.7,62,9.8c0.6,0.4,1.2,0.8,1.8,1.1l2.1,1.2C66,12.2,66.1,12.3,66.1,12.4"/>
	<path class="st2" d="M64.9,18l-2.9-1.4c-0.1-0.1-0.2-0.1-0.2-0.2c0,0-0.8-1.7-1.4-2.9c-0.1-0.3-0.3-0.5-0.5-0.7
		c-12.1-9.5-29.1-9.5-41.2,0c-0.2,0.2-0.4,0.4-0.5,0.7l-1.4,2.9c-0.1,0.1-0.1,0.2-0.2,0.2L13.4,18c-0.3,0.1-0.5,0.3-0.7,0.5
		c-9.5,12.1-9.5,29.1,0,41.2l0,0c0.2,0.2,0.4,0.4,0.7,0.5l2.9,1.4c0.1,0.1,0.2,0.1,0.2,0.2l1.4,2.9c0.1,0.3,0.3,0.5,0.5,0.7
		c12.1,9.5,29.1,9.5,41.2,0c0.2-0.2,0.4-0.4,0.5-0.7c0.6-1.2,1.4-2.9,1.4-2.9c0.1-0.1,0.1-0.2,0.2-0.2l2.9-1.4
		c0.3-0.1,0.5-0.3,0.7-0.5c9.4-12.1,9.4-29.1,0-41.2l0,0C65.4,18.3,65.2,18.1,64.9,18 M61.7,16.8c0.4,1.3,0.7,2.1,0.7,2.1
		c0.1,0.6,0.3,1.1,0.7,1.6l0,0c8.6,11,8.6,26.4,0,37.4c-0.3,0.5-0.6,1-0.7,1.6c0,0-0.2,0.7-0.7,2.1c0,0.1-0.1,0.2-0.2,0.2
		c-1.3,0.4-2.1,0.7-2.1,0.7c-0.6,0.1-1.1,0.3-1.6,0.7c-11,8.6-26.4,8.6-37.4,0c-0.5-0.3-1-0.6-1.6-0.7c0,0-0.7-0.2-2.1-0.7
		c-0.1,0-0.2-0.1-0.2-0.2c-0.4-1.3-0.7-2.1-0.7-2.1c-0.1-0.6-0.3-1.1-0.7-1.6l0,0c-8.6-11-8.6-26.4,0-37.4c0.3-0.5,0.6-1,0.7-1.6
		c0,0,0.2-0.7,0.7-2.1c0-0.1,0.1-0.2,0.2-0.2l2.1-0.7c0.6-0.1,1.1-0.3,1.6-0.7c11-8.6,26.4-8.6,37.4,0c0.5,0.3,1,0.5,1.6,0.7
		c0,0,0.7,0.2,2.1,0.7C61.6,16.6,61.7,16.7,61.7,16.8"/>
	<path class="st2" d="M59.7,22.2l-2.1-1.3c-0.1-0.1-0.2-0.1-0.2-0.2c0,0-0.7-1.2-1.3-2.1c-0.1-0.2-0.3-0.4-0.5-0.5
		c-9.7-7.6-23.3-7.6-32.9,0l0,0c-0.2,0.2-0.3,0.3-0.5,0.5c-0.6,0.9-1.3,2.1-1.3,2.1c-0.1,0.1-0.1,0.2-0.2,0.2l-2.1,1.3
		c-0.2,0.1-0.4,0.3-0.5,0.5c-7.5,9.7-7.5,23.3,0,32.9l0,0c0.2,0.2,0.3,0.3,0.5,0.5c0.9,0.6,2.1,1.3,2.1,1.3c0.1,0.1,0.2,0.1,0.2,0.2
		l1.3,2.1c0.1,0.2,0.3,0.4,0.5,0.5c9.7,7.5,23.3,7.5,32.9,0c0.2-0.2,0.3-0.3,0.5-0.5l1.3-2.1c0.1-0.1,0.1-0.2,0.2-0.2l2.1-1.3
		c0.2-0.1,0.4-0.3,0.5-0.5c7.6-9.7,7.6-23.3,0-32.9l0,0C60.1,22.5,59.9,22.3,59.7,22.2 M57.4,21.2c0.6,1.3,0.8,1.7,0.8,1.7
		c0.1,0.4,0.3,0.7,0.5,1l0,0c7,9,7,21.5,0,30.5c-0.2,0.3-0.4,0.6-0.5,1l-0.8,1.7c-0.1,0.1-0.1,0.2-0.2,0.2l-1.7,0.8
		c-0.4,0.1-0.7,0.3-1,0.5c-9,7-21.5,7-30.5,0c-0.3-0.2-0.6-0.4-1-0.5l-1.7-0.8c-0.1,0-0.2-0.1-0.2-0.2l-0.8-1.7
		c-0.1-0.4-0.3-0.7-0.5-1l0,0c-7-9-7-21.5,0-30.5c0.2-0.3,0.4-0.6,0.5-1c0,0,0.2-0.4,0.8-1.7c0-0.1,0.1-0.2,0.2-0.2l1.7-0.8
		c0.4-0.1,0.7-0.3,1-0.5c9-7,21.5-7,30.5,0c0.3,0.2,0.6,0.4,1,0.5l1.7,0.8C57.2,21,57.3,21,57.4,21.2"/>
	<path class="st0" d="M234.7,66.6h-0.8v-0.4h2.1v0.4h-0.8v2.3h-0.5V66.6z"/>
	<path class="st0" d="M238.6,67.8c0-0.4,0-0.8,0-1.2l0,0c-0.1,0.3-0.2,0.7-0.3,1.1l-0.4,1.2h-0.4l-0.4-1.2c-0.1-0.3-0.2-0.7-0.3-1.1
		l0,0c0,0.4,0,0.8-0.1,1.2l-0.1,1.1h-0.5l0.2-2.7h0.7l0.4,1.1c0.1,0.3,0.2,0.7,0.2,1l0,0c0.1-0.3,0.2-0.6,0.3-1l0.4-1.1h0.7l0.2,2.7
		h-0.5L238.6,67.8z"/>
</g>
</svg>
