<?xml version="1.0" encoding="utf-8"?>
<!-- Generator: Adobe Illustrator 25.4.1, SVG Export Plug-In . SVG Version: 6.00 Build 0)  -->
<svg version="1.1" id="Layer_1" xmlns="http://www.w3.org/2000/svg" xmlns:xlink="http://www.w3.org/1999/xlink" x="0px" y="0px"
	 viewBox="0 0 582.2 80" style="enable-background:new 0 0 582.2 80;" xml:space="preserve">
<style type="text/css">
	.st0{fill:#FEED03;}
	.st1{fill:#004BBE;}
	.st2{fill:#006CB3;}
</style>
<g>
	<path class="st0" d="M216.1,35.2c-0.4-1-2.1-2.5-5-1.6c-2.9,0.9-7.6,3.3-11.9,3.3c-4.3,0-24.4,0.1-31,0.1c-6.6,0-24.8-1.1-24.8-1.1
		l-3.3,15.4l-7.3,7.7l-6.5,6.6c0,0-9.5,3.6-9.8,3.7s-8.4,1.4-8.4,1.4s-8.1-1.4-8.4-1.4s-9.8-3.7-9.8-3.7L83.4,59l-7.3-7.7l-3.3-15.4
		c0,0-18.2,1.1-24.8,1.1c-6.6,0-26.7-0.1-31-0.1s-9-2.4-11.9-3.3c-2.9-0.9-4.7,0.6-5,1.6c-0.4,1-0.7,3.9,3.5,8.2s8.3,4.4,8.3,4.4
		s-0.6,0.2-1.1,1.5s1.7,3.4,6.1,6c4.4,2.6,12.3,2.6,12.3,2.6s0,0-0.6,1.2c-0.6,1.2,2.3,4.3,7.7,6c5.4,1.7,11.4,0.6,11.4,0.6
		s-1,3.5,6.2,4.3c7.2,0.8,14.1-2.1,14.1-2.1s0.4,1.6,2.6,2.5c2.2,0.9,7.1-1,7.1-1s0,0-0.9,1c-0.9,1-1.3,2.5,0,4.1
		c1.3,1.6,7.3,0.7,7.3,0.7s-0.8,2,3,3.6c3.8,1.6,5.7-0.9,5.7-0.9s-0.3,0.4,0,1.4c0.3,1,15.4,0.4,15.4,0.4s15.1,0.7,15.4-0.4
		c0.3-1,0-1.4,0-1.4s1.8,2.5,5.7,0.9c3.8-1.6,3-3.6,3-3.6s6,0.9,7.3-0.7c1.3-1.6,0.9-3.1,0-4.1c-0.9-1-0.9-1-0.9-1s4.9,1.9,7.1,1
		c2.2-0.9,2.6-2.5,2.6-2.5s6.8,2.9,14.1,2.1c7.2-0.8,6.2-4.3,6.2-4.3s6,1.1,11.4-0.6c5.4-1.7,8.3-4.9,7.7-6C187,58,187,58,187,58
		s7.9-0.1,12.3-2.6c4.4-2.6,6.6-4.7,6.1-6c-0.6-1.3-1.1-1.5-1.1-1.5s4.1-0.1,8.3-4.4C216.8,39.1,216.5,36.2,216.1,35.2z"/>
	<path class="st1" d="M114,42.2H95.2c0,0,6.6-5.3,6.2-10.5c-0.4-5.2-10.6-9.1-20.5-9.4c-9.9-0.2-12.1-3.7-12.1-3.7h37.8
		c0.1,0,0.2,0,0.3,0c5.8,0.1,11.8,3.9,13.3,10.1c0.1,0.4,0.2,0.9,0.2,1.3C121.2,37.1,114,42.2,114,42.2z"/>
	<path class="st0" d="M127.1,32.8c0,5.8-4.7,9.4-4.7,9.4h-6c5.2-5.3,5.5-9.8,3.7-13.5c-1.5-6.2-7.5-10-13.3-10.1c0,0,0,0,0,0H68.7
		l-2.9-3.2c0,0,33.1,0,44.1,0C120.8,15.4,127.1,27.1,127.1,32.8z"/>
	<path class="st1" d="M80.7,58.9h-2.3c0.1-2.1-1.8-4.6-4.1-5.4c-2.3-0.9-3.5-6.8-4.5-8.9c-1-2.1-4.7-1.6-8.2-2.3
		C58,41.5,58.1,38,58.1,38l14.2-0.8h0C72.6,45.4,75.7,53,80.7,58.9z"/>
	<path class="st1" d="M101.8,71.1c0,0-2.3,0-3.6,0.1c-1.3,0.1-2.3,1.3-3.1,1.1c-0.8-0.2-1.4-1-3.7-1.2c-2.3-0.1-1.5-0.3-1.4-1.4
		c0.1-1.1-1-2.4-2.8-3.1c-1.8-0.7-2.9,0.6-3.7,0c-0.7-0.5-0.4-1.9-1.4-2.6c-1-0.7-3.3-3.3-3.3-3.3h3.6
		C87.6,66.1,94.3,69.8,101.8,71.1z"/>
	<path class="st1" d="M108.2,73.3v-2.8h-3.8v0.9C104.4,71.5,106.4,71.4,108.2,73.3z"/>
	<path class="st1" d="M97.5,73.3c0,0-1.1-0.1-1.8,1s-2.2,3.3-1.3,3.6s6.9-0.1,8.7-0.6s3.4-1.1,3.2-2c-0.2-0.9-0.8-1.7-2.9-1.8
		C101.4,73.4,97.5,73.3,97.5,73.3z"/>
	<path class="st1" d="M93.6,74.3c-0.1-0.1-3-1.6-4.3-1.5c-1.3,0.1-3.9,2.8-3.8,3.2c0,0.4,2.9,2.2,4.6,2
		C91.9,77.7,93.6,74.3,93.6,74.3z"/>
	<path class="st1" d="M79.3,70.1c0,0-3.3,3.2-1.4,3.5c2,0.3,5.5,0.6,6.9-0.2c1.4-0.8,3.1-2.4,3.4-2.9c0.3-0.5,0.5-1.2-0.9-1.9
		S84,68,82.9,68.2C81.8,68.5,80,69.5,79.3,70.1z"/>
	<path class="st1" d="M70.3,67.4c0,0-1.3,0.8-0.5,1c0.8,0.2,5.4,0.4,8.2-0.5c2.8-0.9,3.7-1.4,3.2-2.1s-2.9-2.3-3.3-2.8
		s-1.1,0.2-1.6,0.6S70.3,67.4,70.3,67.4z"/>
	<path class="st1" d="M50.3,66.1c0,0-2,0.6-1,1.3c1,0.7,1.9,1.3,7.8,1.1s10.9-1.7,12.6-2.5c1.6-0.8,6-4.1,6.6-4.7
		c0.6-0.7,0.8-2.5,0.5-3.6c-0.3-1.1-2.5-2.1-3.5-1.9c-1,0.2-2.9,1.8-3.9,2.6c-1,0.8-11.9,4.9-14.8,6C51.6,65.3,50.3,66.1,50.3,66.1z
		"/>
	<path class="st1" d="M32.2,59.2c0,0-2.6-0.4-1.9,0.7s3,3.7,8.4,4.4s12.5-0.8,15-1.4c2.4-0.6,7.1-2.2,9.3-3.3
		c2.2-1.1,6.1-3.5,6.9-4.2s1.9-1.2,1.3-2s-1-2.4-1.3-2.4c0,0-0.3,0.2-0.7,0.6c-0.4,0.4-6.7,3.9-12.5,5.5c-5.8,1.6-12.6,2-16.8,2.1
		C35.6,59.4,32.2,59.2,32.2,59.2z"/>
	<path class="st1" d="M15.1,49.3c0,0-1.8-0.3-2.1,0.2c-0.2,0.4,0.2,1.4,1.7,2.5s5.2,2.7,9.7,3.7c4.6,1,8.3,1.4,12.6,1.5
		c4.3,0.1,12.8-0.8,14.8-1.2s10.8-2.6,13.9-4.3c3.1-1.7,3.5-2.7,3.4-3.4c-0.1-0.7-1-1.7-2.1-2.4s-2.5-0.5-3.5-0.6
		c-0.9-0.2-1.8-0.6-2.2-0.6c0,0-0.4,0-0.9,0.8s-3.7,2.2-13.8,3.4S28.3,50,24.6,49.9S14.9,49.3,15.1,49.3z"/>
	<path class="st1" d="M58.5,42.7c0,0,0.7,0.7-0.2,1.5c-0.9,0.8-9.2,2.7-16.7,3.1s-18.5,1-24.4,0.2c-5.9-0.7-10-2.7-12-5
		c0,0-4.5-5-3.6-6.8s4.8,0.3,6.3,1c1.5,0.6,15,2.5,21.3,2.5c6.2-0.1,17.9-0.3,20.8-0.7c2.9-0.4,5.2-0.5,5.7,0.4
		C56.1,39.7,58.5,42.7,58.5,42.7z"/>
	<path class="st1" d="M154.7,42.2c-3.6,0.7-7.2,0.2-8.2,2.3c-1,2.1-2.3,8-4.5,8.9c-2.3,0.9-4.2,3.4-4.1,5.4h-2.3
		c5-5.9,8.1-13.5,8.4-21.7l14.2,0.8C158.2,38,158.3,41.5,154.7,42.2z"/>
	<path class="st1" d="M137.4,60.8c0,0-2.3,2.6-3.3,3.3c-1,0.7-0.6,2-1.4,2.6c-0.7,0.6-1.8-0.7-3.7,0c-1.8,0.7-2.9,2-2.8,3.1
		c0.1,1.1,0.9,1.3-1.4,1.4c-2.3,0.1-2.9,1-3.7,1.2c-0.8,0.2-1.8-1-3.1-1.1c-1.3-0.1-3.6-0.1-3.6-0.1c7.5-1.3,14.3-5,19.4-10.3H137.4
		z"/>
	<path class="st1" d="M108.2,73.3v-2.8h3.8v0.9C111.9,71.5,109.9,71.4,108.2,73.3z"/>
	<path class="st1" d="M118.8,73.3c0,0,1.1-0.1,1.8,1s2.2,3.3,1.3,3.6s-6.9-0.1-8.7-0.6s-3.4-1.1-3.2-2c0.2-0.9,0.8-1.7,2.9-1.8
		C114.9,73.4,118.8,73.3,118.8,73.3z"/>
	<path class="st1" d="M122.7,74.3c0.1-0.1,3-1.6,4.3-1.5c1.3,0.1,3.9,2.8,3.8,3.2c0,0.4-2.9,2.2-4.6,2
		C124.4,77.7,122.7,74.3,122.7,74.3z"/>
	<path class="st1" d="M137,70.1c0,0,3.3,3.2,1.4,3.5c-2,0.3-5.5,0.6-6.9-0.2c-1.4-0.8-3.1-2.4-3.4-2.9c-0.3-0.5-0.5-1.2,0.9-1.9
		c1.4-0.7,3.4-0.7,4.5-0.4S136.3,69.5,137,70.1z"/>
	<path class="st1" d="M146,67.4c0,0,1.3,0.8,0.5,1c-0.8,0.2-5.4,0.4-8.2-0.5c-2.8-0.9-3.7-1.4-3.2-2.1s2.9-2.3,3.3-2.8
		c0.5-0.5,1.1,0.2,1.6,0.6S146,67.4,146,67.4z"/>
	<path class="st1" d="M166,66.1c0,0,2,0.6,1,1.3c-1,0.7-1.9,1.3-7.8,1.1c-5.8-0.2-10.9-1.7-12.6-2.5c-1.6-0.8-6-4.1-6.6-4.7
		s-0.8-2.5-0.5-3.6c0.3-1.1,2.5-2.1,3.5-1.9c1,0.2,2.9,1.8,3.9,2.6s11.9,4.9,14.8,6C164.7,65.3,166,66.1,166,66.1z"/>
	<path class="st1" d="M184.1,59.2c0,0,2.6-0.4,1.9,0.7s-3,3.7-8.4,4.4s-12.5-0.8-15-1.4c-2.4-0.6-7.1-2.2-9.3-3.3
		c-2.2-1.1-6.1-3.5-6.9-4.2c-0.9-0.7-1.9-1.2-1.3-2c0.6-0.8,1-2.4,1.3-2.4c0,0,0.3,0.2,0.7,0.6c0.4,0.4,6.7,3.9,12.5,5.5
		c5.8,1.6,12.6,2,16.8,2.1C180.7,59.4,184.1,59.2,184.1,59.2z"/>
	<path class="st1" d="M201.2,49.3c0,0,1.8-0.3,2.1,0.2c0.2,0.4-0.2,1.4-1.7,2.5c-1.4,1.1-5.2,2.7-9.7,3.7c-4.6,1-8.3,1.4-12.6,1.5
		c-4.3,0.1-12.8-0.8-14.8-1.2s-10.8-2.6-13.9-4.3c-3.1-1.7-3.5-2.7-3.4-3.4c0.1-0.7,1-1.7,2.1-2.4c1.1-0.7,2.5-0.5,3.5-0.6
		c0.9-0.2,1.8-0.6,2.2-0.6c0,0,0.4,0,0.9,0.8c0.5,0.8,3.7,2.2,13.8,3.4c10.1,1.2,18.5,1.2,22.2,1.2
		C195.5,49.9,201.4,49.3,201.2,49.3z"/>
	<path class="st1" d="M157.8,42.7c0,0-0.7,0.7,0.2,1.5c0.9,0.8,9.2,2.7,16.7,3.1c7.4,0.4,18.5,1,24.4,0.2c5.9-0.7,10-2.7,12-5
		c0,0,4.5-5,3.6-6.8c-1-1.9-4.8,0.3-6.3,1c-1.5,0.6-15,2.5-21.3,2.5c-6.2-0.1-17.9-0.3-20.8-0.7c-2.9-0.4-5.2-0.5-5.7,0.4
		S157.8,42.7,157.8,42.7z"/>
	<rect x="74.8" y="58.9" class="st0" width="66.7" height="2.6"/>
	<g>
		<path class="st1" d="M95.9,44.7c0,0-2,4.6-2.9,6.3c-0.9,1.7-1.5,2.3-2.7,2.6c-1.2,0.3-2.2-0.1-2.2-1.2c0.1-1.1,3.5-7.7,3.5-7.7
			s-2.9,0-3.1,0l-3.5,6.7c-0.6,1.1-1.4,5,3,5c4.4,0,7.2-4,7.2-4l3.6-7.7H95.9z"/>
		<path class="st1" d="M108.2,44.7c-1.5,0-2.5,0-3.1,0h-0.9h-2.4l-5.4,11.4c0,0,3.2,0,3.4,0c0.1,0,1-2.1,2.1-4.5
			c0.6,0,1.5,0.1,1.6,1c0.1,1.4,0,3.6,0,3.6h3.9c0,0,0.2-4.4-1.4-5.2c1.2-0.2,2.6-0.6,3.6-1.6C111.7,47.3,111.3,44.7,108.2,44.7z
			 M106.7,48.2c-0.5,0.8-1.3,1.6-2,1.6c-0.7,0-1.9-0.3-1.5-1.1c0,0,0,0,0,0c0.2-0.5,0.5-1,0.7-1.5v0h1.9
			C105.8,47.2,107.3,47.4,106.7,48.2z"/>
		<path class="st1" d="M130.7,44.7l-9.6,11.4h3.3l1.5-1.9c1,0,2.8,0,3.9,0l-0.3,1.9h3.8l0.9-11.4H130.7z M127.8,51.9l3-3.7l-0.5,3.7
			H127.8z"/>
		<path class="st1" d="M117.5,49.6l-1,2.3h2.2c0,0-0.9,1.9-3.3,1.9c-2.3,0-1.7-2.6-0.9-3.7c0.7-1.1,2.5-3.2,4.2-3.2
			c1.7,0,1.4,1.3,1.5,1.2c0.1,0,3.6-0.6,3.6-0.6s-0.1-3-4.1-3c-4,0-7.5,3.2-9.2,6.4c-1.6,3.3,0.6,5.4,3.3,5.4c2.7,0,5.4-1,6.7-2.5
			c1.3-1.4,2.1-4.3,2.1-4.3H117.5z"/>
	</g>
	<g>
		<path class="st1" d="M93.6,11.1l-0.8,0.5L92,11.1L90.6,12l0.3,1l-0.7,0.5l-1-4.3l0.7-0.5L93.6,11.1z M91.4,10.6L90,9.7l0.4,1.6
			L91.4,10.6z"/>
		<path class="st1" d="M92,7.3l0.8-0.4l1,2c0.2,0.3,0.3,0.5,0.3,0.6c0.1,0.1,0.2,0.2,0.4,0.3c0.2,0,0.4,0,0.6-0.1
			c0.2-0.1,0.4-0.2,0.4-0.4c0.1-0.1,0.1-0.3,0-0.4c0-0.1-0.1-0.4-0.3-0.6l-1-2.1l0.8-0.4l1,2c0.2,0.4,0.4,0.8,0.4,1
			c0.1,0.2,0.1,0.4,0,0.6c0,0.2-0.1,0.4-0.3,0.5c-0.1,0.2-0.4,0.3-0.7,0.5c-0.4,0.2-0.6,0.3-0.9,0.3c-0.2,0-0.4,0-0.6-0.1
			c-0.2-0.1-0.3-0.2-0.4-0.3C93.4,10,93.2,9.7,93,9.3L92,7.3z"/>
		<path class="st1" d="M98.9,7.1l-0.2-0.7l1.7-0.6l0.5,1.6c-0.1,0.2-0.3,0.4-0.6,0.7s-0.6,0.4-0.9,0.5c-0.4,0.1-0.8,0.2-1.2,0.1
			c-0.4-0.1-0.7-0.2-0.9-0.5c-0.3-0.3-0.5-0.6-0.6-1c-0.1-0.4-0.2-0.8-0.1-1.2c0.1-0.4,0.2-0.7,0.5-1c0.2-0.2,0.5-0.4,0.9-0.5
			c0.5-0.2,0.9-0.2,1.3-0.1c0.3,0.1,0.6,0.3,0.8,0.7l-0.7,0.4c-0.1-0.2-0.3-0.3-0.5-0.4c-0.2-0.1-0.4-0.1-0.6,0
			c-0.3,0.1-0.6,0.3-0.7,0.6c-0.1,0.3-0.1,0.7,0,1.1c0.2,0.5,0.4,0.8,0.7,1c0.3,0.2,0.6,0.2,0.9,0.1c0.2-0.1,0.3-0.1,0.5-0.3
			c0.1-0.1,0.3-0.2,0.4-0.4l-0.2-0.5L98.9,7.1z"/>
		<path class="st1" d="M101,3.8l0.8-0.1l0.4,2.2c0.1,0.4,0.1,0.6,0.1,0.7c0.1,0.2,0.2,0.3,0.3,0.4C102.8,7,103,7,103.2,7
			c0.2,0,0.4-0.1,0.5-0.2c0.1-0.1,0.2-0.2,0.2-0.4c0-0.1,0-0.4-0.1-0.7l-0.4-2.3l0.8-0.1l0.4,2.2c0.1,0.5,0.1,0.8,0.1,1.1
			c0,0.2-0.1,0.4-0.2,0.6c-0.1,0.2-0.2,0.3-0.4,0.4c-0.2,0.1-0.4,0.2-0.8,0.3c-0.4,0.1-0.7,0.1-0.9,0c-0.2-0.1-0.4-0.1-0.5-0.3
			c-0.1-0.1-0.2-0.3-0.3-0.4c-0.1-0.2-0.2-0.6-0.3-1L101,3.8z"/>
		<path class="st1" d="M105.4,5.9l0.8-0.1c0.1,0.3,0.2,0.5,0.3,0.6c0.2,0.1,0.4,0.2,0.6,0.2c0.3,0,0.5-0.1,0.6-0.2
			c0.1-0.1,0.2-0.3,0.2-0.4c0-0.1,0-0.2-0.1-0.2c-0.1-0.1-0.2-0.1-0.3-0.2c-0.1,0-0.3-0.1-0.7-0.2c-0.5-0.1-0.8-0.2-1-0.4
			c-0.3-0.2-0.4-0.5-0.4-0.8c0-0.2,0-0.4,0.2-0.6c0.1-0.2,0.3-0.3,0.5-0.4c0.2-0.1,0.5-0.2,0.8-0.2c0.5,0,0.9,0.1,1.2,0.3
			c0.3,0.2,0.4,0.5,0.4,0.9l-0.8,0.1c0-0.2-0.1-0.4-0.2-0.5c-0.1-0.1-0.3-0.1-0.5-0.1c-0.2,0-0.4,0.1-0.6,0.2
			c-0.1,0.1-0.1,0.2-0.1,0.3c0,0.1,0,0.2,0.1,0.2c0.1,0.1,0.4,0.2,0.8,0.3s0.7,0.2,0.9,0.3c0.2,0.1,0.4,0.2,0.5,0.4
			c0.1,0.2,0.2,0.4,0.2,0.7c0,0.2-0.1,0.5-0.2,0.7c-0.1,0.2-0.3,0.4-0.5,0.5c-0.2,0.1-0.5,0.2-0.9,0.2c-0.5,0-0.9-0.1-1.2-0.3
			C105.7,6.7,105.5,6.4,105.4,5.9z"/>
		<path class="st1" d="M110.4,7.3l0.3-3.4l-1.2-0.1l0.1-0.7l3.3,0.3L112.8,4l-1.2-0.1l-0.3,3.4L110.4,7.3z"/>
		<path class="st1" d="M116.2,8.4l-0.8-0.2l0.8-2.9c-0.4,0.2-0.7,0.3-1.2,0.3l0.2-0.7c0.2,0,0.5-0.1,0.8-0.2
			c0.3-0.1,0.5-0.3,0.7-0.5l0.6,0.2L116.2,8.4z"/>
		<path class="st1" d="M117.6,7.8l0.8,0.2c0,0.2,0,0.3,0,0.4c0,0.1,0.1,0.2,0.3,0.2c0.2,0.1,0.3,0,0.5-0.1c0.2-0.1,0.3-0.4,0.5-0.8
			c-0.3,0.1-0.5,0.2-0.8,0.1c-0.3-0.1-0.5-0.3-0.7-0.7c-0.1-0.3-0.1-0.7,0-1c0.2-0.4,0.4-0.7,0.7-0.8c0.3-0.1,0.7-0.2,1,0
			c0.4,0.2,0.7,0.4,0.8,0.8c0.1,0.4,0.1,1-0.2,1.6c-0.3,0.7-0.6,1.2-1,1.4c-0.4,0.2-0.8,0.2-1.2,0.1c-0.3-0.1-0.5-0.3-0.6-0.5
			C117.6,8.4,117.5,8.1,117.6,7.8z M119.9,6.8c0.1-0.2,0.1-0.4,0.1-0.6s-0.2-0.3-0.3-0.3c-0.1-0.1-0.3,0-0.4,0
			c-0.1,0.1-0.2,0.2-0.3,0.5c-0.1,0.3-0.1,0.5-0.1,0.6c0.1,0.2,0.2,0.3,0.3,0.3c0.1,0.1,0.3,0,0.4,0C119.7,7.2,119.8,7,119.9,6.8z"
			/>
		<path class="st1" d="M120.6,9l0.7,0.3c-0.1,0.1-0.1,0.3,0,0.4c0,0.1,0.1,0.2,0.2,0.2c0.1,0.1,0.3,0.1,0.5,0
			c0.2-0.1,0.4-0.3,0.6-0.7c-0.3,0.1-0.6,0.1-0.8,0c-0.3-0.2-0.5-0.4-0.6-0.7c-0.1-0.3,0-0.7,0.1-1c0.2-0.4,0.5-0.6,0.8-0.7
			c0.3-0.1,0.7-0.1,1,0.1c0.4,0.2,0.6,0.5,0.7,0.9c0.1,0.4,0,1-0.4,1.6c-0.4,0.7-0.7,1.1-1.1,1.3s-0.8,0.1-1.2-0.1
			c-0.3-0.2-0.5-0.3-0.6-0.6C120.5,9.6,120.5,9.3,120.6,9z M123,8.3c0.1-0.2,0.2-0.4,0.1-0.6c0-0.2-0.1-0.3-0.3-0.4
			c-0.1-0.1-0.3-0.1-0.4,0c-0.1,0.1-0.3,0.2-0.4,0.4c-0.1,0.2-0.2,0.4-0.1,0.6c0,0.2,0.1,0.3,0.3,0.4c0.1,0.1,0.3,0.1,0.4,0
			C122.8,8.6,122.9,8.5,123,8.3z"/>
		<path class="st1" d="M123.5,10.3l0.7,0.4c-0.1,0.2-0.1,0.3-0.1,0.5s0.1,0.3,0.2,0.3c0.1,0.1,0.3,0.1,0.5,0.1
			c0.2,0,0.3-0.1,0.4-0.3c0.1-0.2,0.2-0.3,0.1-0.5c0-0.2-0.1-0.3-0.2-0.4c-0.1-0.1-0.2-0.1-0.3-0.2l0.4-0.5c0.2,0.1,0.3,0.2,0.5,0.2
			c0.1,0,0.3-0.1,0.4-0.2c0.1-0.1,0.1-0.2,0.1-0.3c0-0.1-0.1-0.2-0.2-0.3C125.9,9,125.7,9,125.6,9c-0.1,0-0.3,0.1-0.4,0.2l-0.5-0.5
			c0.2-0.2,0.4-0.3,0.5-0.4c0.2-0.1,0.4-0.1,0.6-0.1c0.2,0,0.4,0.1,0.6,0.2c0.3,0.2,0.5,0.5,0.6,0.8c0,0.3,0,0.5-0.1,0.7
			c-0.2,0.3-0.5,0.4-1,0.4c0.2,0.2,0.3,0.4,0.3,0.6c0,0.2,0,0.4-0.2,0.7c-0.2,0.3-0.5,0.5-0.9,0.6c-0.4,0.1-0.7,0-1-0.2
			c-0.3-0.2-0.5-0.5-0.6-0.8C123.3,11,123.4,10.7,123.5,10.3z"/>
	</g>
	<g>
		<path class="st2" d="M240.8,34.9L227,63.8h5.5l2.9-6.3c2.5,0,7.8,0,10.6,0l1.1,6.3h5.7l-5.6-28.9H240.8z M237.5,52.8l5.5-12.2
			l2.1,12.2H237.5z"/>
		<polygon class="st2" points="258,63.8 263.3,63.8 267.3,34.9 262.3,34.9 		"/>
		<polygon class="st2" points="318.2,63.8 323.5,63.8 327.5,34.9 322.5,34.9 		"/>
		<path class="st2" d="M350.1,55.5c-1.9-5.2-6.3-16.9-6.9-18.5c-0.8-2.1-2.8-2.1-2.8-2.1h-5l-4.3,28.9h5.3l3-21.5
			c1.7,4.6,5.6,15.2,6.7,18.1c1.4,3.6,2.8,3.4,2.8,3.4h5.3l4-28.9h-5L350.1,55.5z"/>
		<path class="st2" d="M307.1,34.9h-5l-4.3,28.9h2.4l0,0l0.3,0h2.6c3.6,0,9.6,0,9.6,0l0.7-4.4h-9.8L307.1,34.9z"/>
		<path class="st2" d="M370.5,34.9h-4.1L362,63.8h2.3h3c4,0,10.5,0,10.5,0l0.6-4.4h-10.4l1.1-8.2c4,0,9.6,0,9.6,0l0.6-4.4h-9.5
			l1-7.4c3.9,0,10.9,0,10.9,0l0.6-4.4L370.5,34.9L370.5,34.9z"/>
		<path class="st2" d="M286.7,34.9c-3,0-4.9,0-6,0h-1h-3.9l-4.3,28.9h5.3l1.6-11.7h2.4c0,0,2.8-0.2,3.8,4.2c1,4.5,1.9,7.6,1.9,7.6
			h5.3c0,0-2.3-10.1-2.3-10.2c0-0.1-0.8-2.5-2.5-3c0,0,5.4-1.7,6.4-6.5C294.3,39.4,291.7,34.9,286.7,34.9z M287.8,42.7
			c-0.3,3.1-3.5,5.2-6.1,5.2c-1.3,0-2.2,0-2.8,0l1.1-8.2h5.2C285.2,39.7,288,39.7,287.8,42.7z"/>
		<path class="st2" d="M430.2,46.3c-0.8,6.1-7.3,9.6-12.1,9.6s-7.2-3.9-6.9-8.6c0.2-4.7,4.7-34.5,4.7-34.5h-9.5
			c0,0-4.2,29.1-4.5,31.8c-0.4,2.7-3.3,19.7,15.4,19.7c18.6,0,21.4-14.6,21.4-14.6l5.2-37h-8.6C435.2,12.8,431,40.1,430.2,46.3z"/>
		<path class="st2" d="M475.5,12.3c-5,0-7.5,0-8.8,0h-1.2h-5.8c0,0-2.5,0.2-3.2,4.5s-6.6,47-6.6,47h9.4l3.1-21.2c2.2,0,5.4,0,5.4,0
			s3.4,0.5,4.5,6.9c1,6.4,2.7,13.8,2.7,13.8h9.7c0,0-3.2-16.5-3.9-18.4c-0.7-1.9-2.5-4.2-4.2-4.8c0,0,9.9-3.3,10.8-12.2
			C488.1,19.1,484.2,12.3,475.5,12.3z M467.3,34.9c-1.8,0-3.1,0-3.9,0l2.1-14.4h6.5c0,0,5.5-0.4,5.5,5.2
			C477.4,31.3,473.5,34.9,467.3,34.9z"/>
		<path class="st2" d="M572.7,63.3h9.5l-9-51h-11.4l-22.8,51c0,0,9.2-0.1,9.3,0c0,0,2.3-5.1,5.2-11.8h17.4L572.7,63.3z M556.8,43.7
			c4.6-10.6,9.4-21.6,9.4-21.6l3.4,21.6H556.8z"/>
		<path class="st2" d="M521.8,11.5c-9.3,0-23.3,4.4-27.1,27.1c-3.9,22.7,14.6,25.7,19.5,25.7c5-0.1,13.1-1.9,16.2-4.2l3.5-25.5
			l-17.8-0.1c0,0-2.1,3.3-1.4,7.7h9.5l-1.7,11.7c0,0-1.9,2-7.7,2s-12.8-6.2-10.7-17.8c2-11.6,11.1-18.2,17.9-18.2
			c6.8,0,11.4,3.6,12.3,4.2c0.9,0.6,2-0.1,2-1.2s0.4-6.5,0.4-6.7S531.2,11.5,521.8,11.5z"/>
	</g>
	<path class="st0" d="M108.2,0C88.4,0,72.3,16,72.3,35.8c0,0.4,0,0.9,0,1.3c0.3,8.3,3.4,15.8,8.4,21.7c0.6,0.7,1.1,1.3,1.8,1.9
		c5.1,5.3,11.8,9,19.4,10.3c2.1,0.4,4.2,0.6,6.3,0.6c2.2,0,4.3-0.2,6.3-0.6c7.5-1.3,14.3-5,19.4-10.3c0.6-0.6,1.2-1.3,1.8-1.9
		c5-5.9,8.1-13.5,8.4-21.7c0-0.4,0-0.9,0-1.3C144,16,127.9,0,108.2,0z M108.2,69.2c-18.4,0-33.4-14.9-33.4-33.4S89.7,2.5,108.2,2.5
		s33.4,14.9,33.4,33.4S126.6,69.2,108.2,69.2z"/>
</g>
</svg>
