<?xml version="1.0" encoding="utf-8"?>
<!-- Generator: Adobe Illustrator 25.4.1, SVG Export Plug-In . SVG Version: 6.00 Build 0)  -->
<svg version="1.1" id="Layer_1" xmlns="http://www.w3.org/2000/svg" xmlns:xlink="http://www.w3.org/1999/xlink" x="0px" y="0px"
	 viewBox="0 0 206.6 80" style="enable-background:new 0 0 206.6 80;" xml:space="preserve">
<style type="text/css">
	.st0{fill:#00A850;}
</style>
<path class="st0" d="M204.7,15.8c-11-4.1-20.4-12.5-33.5-10.7c-6.7,0.9-13.8,1.1-19.6-3c-2.2-1.5-4-1.4-6.2-1.8
	c-12.7-2.1-24.4,6.9-37.2,2.8c-1.4-0.4-3.3,0.9-4.9,1.2c-1.7,0.4-3.6,1.2-5,0.7c-9.7-3.8-19.5-4.6-29.5-1.2
	c-2.3,0.8-4.7-0.2-7.1-0.8c-8.2-1.9-17-0.5-23.8,2.9C32.3,8.9,24.5,5.6,21,12.6c-0.1,0.2-0.9,0.1-1.4,0C14.8,12,10.4,14,5.9,15
	c-2.7,0.6-6.4,1.5-5.8,5.4c0.5,3.4,3.1,5.5,6.8,5.6c3.2,0.1,6.8,0.1,8.9,2.8C22,36.6,29.4,40,39.1,35.1c0.7,3.1,0.7,5.4,1.7,7.2
	c2.1,3.8,2.1,5.8-1.5,9.5c-3.8,3.9-3.4,11.2-3.4,16.5C35.9,75.5,47,81.1,55.2,79.8c-0.5-4-1.9-7.9-5.4-10c-6.1-3.6-4.4-7.8-1.9-12.4
	c1.5-2.8,4.9-4.5,5.2-7.8c0.7-7.2,6.5-10.1,11.8-11.6c6.3-1.9,13.3-1.8,20-1.8c11.6,0.1,23.4,3.1,34.9-0.2
	c6.6-1.9,14.6,1.4,19.8-3.7c4.1-4,8.1-3.5,12.6-3.1c1.2,0.1,2.8,0.9,3.4,0.4c7.3-5.9,16.1-2,24-3.8c8.1-1.8,16.4-2.5,24.1-5.6
	C205.9,19.3,208.4,17.2,204.7,15.8z M50.1,39.9c-0.7-0.2-1.4-1.2-1.6-2c-0.4-1.4,0.8-2.4,1.9-2.5c1.4-0.1,1.6,1.4,1.9,2.5
	C52.1,39.3,51.5,40.3,50.1,39.9z"/>
</svg>
