<?xml version="1.0" encoding="utf-8"?>
<!-- Generator: Adobe Illustrator 25.4.1, SVG Export Plug-In . SVG Version: 6.00 Build 0)  -->
<svg version="1.1" id="Layer_1" xmlns="http://www.w3.org/2000/svg" xmlns:xlink="http://www.w3.org/1999/xlink" x="0px" y="0px"
	 viewBox="0 0 161.1 80" style="enable-background:new 0 0 161.1 80;" xml:space="preserve">
<style type="text/css">
	.st0{fill:#04AA53;}
	.st1{fill:#04AA52;}
	.st2{fill:#0AAC57;}
	.st3{fill:#09AB56;}
	.st4{fill:#08AB55;}
	.st5{fill:#00A850;}
	.st6{fill:#03A952;}
</style>
<g>
	<path class="st0" d="M91.4,69.8c3-3.5,3.6-7.8,5.7-11.4c0.9-1.6,1.3-4.4,4-3.1c2.7,1.3,0.5,3.1-0.2,4.6c-2.6,5.7-5.2,11.3-6.2,17.5
		c-0.2,1.3-0.5,2.4-2,2.6c-1.5,0.1-2.2-0.9-2.6-2.1c-2.5-6.4-3.9-13-5.1-19.7c-0.3-1.7,0.2-3.2,2.2-3.3c1.7-0.1,2,1.1,2.2,2.7
		C89.9,61.6,90.7,65.5,91.4,69.8z"/>
	<path class="st1" d="M32.7,70.9c2.3-5.1,3.9-9.1,5.8-13c0.7-1.6,1.3-3.9,3.8-2.6c2.3,1.2,0.6,2.9-0.1,4.3
		c-2.7,5.8-5.4,11.6-6.4,17.9c-0.2,1.1-0.4,2.1-1.7,2.4c-1.5,0.3-2.3-0.6-2.8-1.8c-2.6-6.5-4-13.3-5.3-20.2c-0.3-1.5,0.3-2.8,2-3
		c1.7-0.2,2.2,0.9,2.4,2.5C31,61.5,31.8,65.5,32.7,70.9z"/>
	<path class="st2" d="M44.3,71.8c0.4-4.6,0.8-9.7,1.1-14.8c0.1-1.6,0.2-2.8,2.1-2.7c2,0.2,2.4,1.4,2.2,3.2c-0.4,5-0.8,9.9-1.2,14.9
		c-0.1,1.4-0.1,2.7-0.1,4.1c0,1.4,0.9,3.3-1.6,3.4c-1.9,0.1-2.6-1.4-2.7-3C44.3,75.3,44.3,73.8,44.3,71.8z"/>
	<path class="st3" d="M103.2,73.2c0.5-6.1,0.9-11.2,1.2-16.4c0.1-1.4,0.3-2.5,1.9-2.5c1.6,0,2.7,0.9,2.5,2.6
		c-0.8,7.1-1.6,14.2-1.1,21.4c0.1,1.1-0.7,1.6-1.7,1.7c-1.2,0-2.2-0.7-2.4-1.8C103.3,76.2,103.3,74.2,103.2,73.2z"/>
	<path class="st4" d="M18.4,71.6c0.4-4.8,0.8-9.6,1.1-14.5c0.1-1.5,0-2.9,2-2.8c1.9,0.1,2.6,1.2,2.4,3.1c-0.8,6.9-1.8,13.8-1.1,20.8
		c0.1,1.2-0.7,1.7-1.6,1.7c-1.4,0.1-2.5-0.7-2.6-2c-0.2-2.1-0.1-4.2-0.1-6.3C18.5,71.6,18.4,71.6,18.4,71.6z"/>
	<path class="st4" d="M136.3,70.6c0.3-4,0.8-8.7,1-13.4c0.1-1.6,0-3.2,2.3-2.9c2,0.3,2.2,1.7,2.1,3.4c-0.5,4.8-0.9,9.6-1.3,14.5
		c-0.1,1.5-0.2,3-0.1,4.5c0.1,1.4,0.9,2.9-1.2,3.2c-1.9,0.3-2.8-1-2.9-2.7C136.2,75.2,136.3,73.2,136.3,70.6z"/>
	<path class="st4" d="M77.3,71.1c0.4-4.7,0.8-9.3,1.1-14c0.1-1.5,0-2.9,2-2.8c1.9,0.1,2.6,1.2,2.4,3.1c-0.8,6.9-1.9,13.8-1.1,20.8
		c0.1,1.2-0.7,1.7-1.6,1.7c-1.4,0.1-2.5-0.7-2.6-2c-0.2-2.3-0.1-4.5-0.1-6.8C77.4,71.1,77.3,71.1,77.3,71.1z"/>
	<path class="st5" d="M159.9,9.9c-6.8-2.5-12.7-7.8-20.8-6.7c-4.2,0.6-8.6,0.7-12.2-1.9c-1.4-0.9-2.5-0.9-3.9-1.1
		c-7.9-1.3-15.2,4.3-23.2,1.7c-0.9-0.3-2,0.6-3.1,0.8c-1,0.2-2.2,0.8-3.1,0.4c-6.1-2.4-12.1-2.9-18.4-0.7c-1.4,0.5-2.9-0.1-4.4-0.5
		C65.7,0.8,60.2,1.6,56,3.8c-3.4,1.7-8.3-0.3-10.5,4.1c-0.1,0.1-0.6,0.1-0.9,0c-3-0.4-5.7,0.9-8.5,1.5c-1.7,0.4-4,1-3.6,3.3
		c0.3,2.1,1.9,3.4,4.2,3.5c2,0.1,4.2,0.1,5.5,1.7c3.9,4.9,8.5,7.1,14.6,4c0.4,1.9,0.4,3.4,1.1,4.5c1.3,2.3,1.3,3.6-0.9,5.9
		c-2.4,2.4-2.1,7-2.1,10.3c0,4.5,6.9,7.9,12,7.1c-0.3-2.5-1.2-4.9-3.3-6.2c-3.8-2.2-2.8-4.8-1.2-7.7c1-1.7,3-2.8,3.2-4.9
		c0.4-4.5,4.1-6.3,7.3-7.3c3.9-1.2,8.3-1.1,12.4-1.1c7.3,0,14.6,1.9,21.7-0.1c4.1-1.2,9.1,0.8,12.3-2.3c2.6-2.5,5-2.2,7.8-2
		c0.7,0.1,1.7,0.5,2.1,0.2c4.6-3.7,10-1.3,14.9-2.3c5-1.1,10.2-1.5,15-3.5C160.7,12,162.2,10.7,159.9,9.9z M63.7,24.8
		c-0.4-0.1-0.9-0.8-1-1.2c-0.2-0.9,0.5-1.5,1.2-1.5c0.9,0,1,0.9,1.2,1.6C64.9,24.4,64.6,25.1,63.7,24.8z"/>
	<path class="st6" d="M158.1,76.2c-2-2.4-4-4.9-6.2-7.6c3.4-2.1,8-3.3,7.3-8c-0.8-5.2-5.9-4.9-9.7-6c-1-0.3-2-0.7-3.1-0.1
		c-1.2,0.6-3.2,1-2.4,2.7c1.8,3.9,0,7.7,0.1,11.6c0.1,2.9,0,5.8,0.2,8.6c0.1,1.5,0.9,2.7,2.6,2.6c2.2-0.1,1.5-1.8,1.5-3
		c0-1.7-0.5-3.5,0.4-5.7c2.4,2.9,4,6,6.9,8c1.5,1,2.9,1.2,4-0.4C160.8,77.1,158.7,77,158.1,76.2z M151.1,58.7
		c1.5-0.2,4.6,0.2,4.4,2.2c-0.2,3.6-4,3.3-6.7,4.2C149.7,62.7,147.2,59.2,151.1,58.7z"/>
	<path class="st1" d="M3.6,53.8c-1.6-0.2-3.9-0.1-3.3,1.8c1.6,5.2-0.9,10.2-0.2,14.5c0,2.6,0,4.2,0,5.9c0,3,0.7,4.5,4.4,3.6
		c7.1-1.7,11.2-5.7,11-11.9C15.5,61.4,9.8,54.8,3.6,53.8z M8,74.4c-1,0.6-2.1,1.5-3.4,0.8c-1.1-0.6-0.6-1.9-0.6-2.9
		c0-1.5,0.2-3,0.3-4.5c0.1-1.8,0.1-3.6,0.4-5.4c0.1-1.1-0.5-2.8,1-3.1c1.2-0.3,2.1,1,3,1.8C12.9,65.3,12.6,71.7,8,74.4z"/>
	<path class="st0" d="M62.5,53.8c-1.6-0.2-3.8-0.1-3.2,1.9c1.5,5.1-0.8,9.9-0.2,13.9c0,2.8,0,4.7,0,6.5c0,3,0.8,4.4,4.4,3.6
		c7-1.7,11.1-5.8,11-11.9C74.3,61.4,68.6,54.7,62.5,53.8z M69,72.5c-1.3,1.6-3,3.3-5,2.8c-2.3-0.7-0.9-3.1-0.9-4.7
		c0-3,0.4-6.1,0.5-9.1c0.1-2.2,0.8-2.7,2.7-1.4c2.3,1.6,4.2,5.1,4.2,7.9C70.4,69.6,70.1,71.2,69,72.5z"/>
	<path class="st6" d="M132.6,76c-0.4-1.1-0.4-1.8,0.5-2.8c0.8-0.8,0.6-2.2-0.6-2.7c-2.4-0.9-2.3-3-2.6-4.9c-0.6-3-1-6-1.5-8.9
		c-0.2-1.3-0.8-2.3-2.3-2.4c-1.3-0.1-2,0.7-2.5,1.7c-2.8,6.6-4.8,13.4-6.6,19.6c-0.3,2.1-0.3,3.6,1.4,4c1.5,0.4,2.2-0.5,2.2-2
		c-0.2-2.6,1-3.8,3.7-4c2.8-0.2,4.2,0.6,4.8,3.4c0.3,1.6,1.3,3.5,3.4,2.7C134.8,79,133.1,77.3,132.6,76z M126.4,69.5
		c-0.2,1.1-2.3,0.5-3.9,0.3c0.7-2.2,1.4-4.1,2.2-6.4C126.6,65.4,126.9,67.6,126.4,69.5z"/>
</g>
</svg>
