<?xml version="1.0" encoding="utf-8"?>
<!-- Generator: Adobe Illustrator 25.4.1, SVG Export Plug-In . SVG Version: 6.00 Build 0)  -->
<svg version="1.1" id="Layer_1" xmlns="http://www.w3.org/2000/svg" xmlns:xlink="http://www.w3.org/1999/xlink" x="0px" y="0px"
	 viewBox="0 0 150.4 80" style="enable-background:new 0 0 150.4 80;" xml:space="preserve">
<style type="text/css">
	.st0{fill:url(#SVGID_1_);}
	.st1{fill:#097A35;}
	.st2{fill:url(#SVGID_00000164477557280519516170000011494456779159265701_);}
	.st3{fill:url(#SVGID_00000072264188084109951680000005955693500098539943_);}
	.st4{fill:url(#SVGID_00000052786866427967593460000012691228631727285161_);}
	.st5{fill:url(#SVGID_00000049180236106912744720000016508029276530278801_);}
</style>
<radialGradient id="SVGID_1_" cx="65.423" cy="21.6774" r="42.7187" gradientUnits="userSpaceOnUse">
	<stop  offset="9.854570e-02" style="stop-color:#FFFFFD"/>
	<stop  offset="0.2408" style="stop-color:#FFF5B2"/>
	<stop  offset="0.3887" style="stop-color:#FFEC6B"/>
	<stop  offset="0.5123" style="stop-color:#FFE537"/>
	<stop  offset="0.6049" style="stop-color:#FFE117"/>
	<stop  offset="0.6559" style="stop-color:#FFDF0B"/>
	<stop  offset="0.8312" style="stop-color:#FDCD0C"/>
	<stop  offset="1" style="stop-color:#FAB80E"/>
</radialGradient>
<circle class="st0" cx="49.6" cy="29.2" r="28.6"/>
<g>
	<path class="st1" d="M10.2,62.3L0,79.4h4.3l1.7-3.1h6.4l0.4,3.1H17l-3.1-17H10.2z M7.7,73.4l3.6-6.4l0.8,6.4H7.7z"/>
	<polygon class="st1" points="21.9,62.3 18,79.4 22.3,79.4 26,62.3 	"/>
	<path class="st1" d="M107.8,62.3l-10.2,17h4.3l1.7-3.1h6.4l0.4,3.1h4.1l-3.1-17H107.8z M105.3,73.4l3.6-6.4l0.8,6.4H105.3z"/>
	<path class="st1" d="M80.4,71.5c-0.5,2.2-1.9,4.8-4.7,4.8c-2.8,0-1.9-5.1-1.9-5.1l1.9-8.9h-4.1l-2.1,8.9c0,0-0.3,2-0.2,3.5
		c0.1,1.5,0.8,5.3,7.3,5.3c6.5,0,7.7-6.9,7.7-6.9l2.3-10.8h-4.1L80.4,71.5z"/>
	<polygon class="st1" points="130.3,62.3 127.9,72.6 123.6,62.3 119.5,62.3 115.5,79.4 119.9,79.4 122.2,69 126.3,79.4 130.7,79.4 
		134.4,62.3 	"/>
	<path class="st1" d="M37,62.3c-1.5,0-2.9,0-3.9,0h-1.2H29l-4,17h4.4l1.4-6.6h3.6c0,0,2.1,0.4,2.2,2.7c0,2.3,0,3.9,0,3.9h3.8
		l-0.2-5.6c0,0,0-1.4-1.4-1.9c0,0,3.9-1.4,3.9-4.6S39.6,62.3,37,62.3z M39,67.9c-0.8,2-2.9,2.3-3.8,2.3c-0.7,0-2.7,0-3.7,0l1-4.8v0
		h4.2C36.6,65.4,39.8,65.9,39,67.9z"/>
	<polygon class="st1" points="149.8,65.9 150.4,62.3 141.3,62.3 141,62.3 137.3,62.3 133.3,79.4 137.7,79.4 147.1,79.4 147.6,75.8 
		138.4,75.8 139.1,72.6 147.7,72.6 148.3,69.1 139.9,69.1 140.6,65.9 	"/>
	<polygon class="st1" points="103.7,62.3 99,62.3 93.6,69.3 91.3,62.3 87.5,62.3 91.1,72.9 89.5,79.4 93.9,79.4 95.3,73.1 
		95.3,73.1 	"/>
	<path class="st1" d="M60.6,61.9c-7.7,0-9.9,7.2-9.9,9.3c0,2.1,1.1,8.8,5.8,8.8c3,0,5.2-1.6,6.3-2.8l-0.1,2.2l2.7,0l1.9-8.9h-4.1h-3
		l-0.7,3.1h3.1c0,0-0.5,3-4.2,3c-3.7,0-3.6-4-3.6-5.7s1.9-5.5,5.5-5.5c3.6,0,3.1,2.7,3.1,2.7h3.9C67.4,68.1,68.3,61.9,60.6,61.9z"/>
</g>
<linearGradient id="SVGID_00000103265579037949788260000008194355519257075072_" gradientUnits="userSpaceOnUse" x1="64.4889" y1="19.2666" x2="63.5241" y2="46.7623">
	<stop  offset="0.2192" style="stop-color:#B6CD36"/>
	<stop  offset="0.6566" style="stop-color:#3E9636"/>
	<stop  offset="0.7198" style="stop-color:#328432"/>
	<stop  offset="0.8459" style="stop-color:#125626"/>
	<stop  offset="0.876" style="stop-color:#0A4A23"/>
</linearGradient>
<path style="fill:url(#SVGID_00000103265579037949788260000008194355519257075072_);" d="M26.5,34.7c0,0,7.5,7.4,22.1,7.4
	s15.9-7.4,29-7.4s8.5,0.7,14.2,0.7s9.6-2.3,9.6-2.3s-6.9-4.2-11-4.2S85,30.6,80,30.6c-5.1,0-13.7-0.4-18.6-1.3
	C56.6,28.3,38.5,25.9,26.5,34.7z"/>
<linearGradient id="SVGID_00000074420957087138750310000015170085905386010517_" gradientUnits="userSpaceOnUse" x1="28.6766" y1="1.765" x2="33.5004" y2="38.426">
	<stop  offset="0.2192" style="stop-color:#B6CD36"/>
	<stop  offset="0.6566" style="stop-color:#3E9636"/>
	<stop  offset="0.7556" style="stop-color:#328432"/>
	<stop  offset="0.9528" style="stop-color:#125626"/>
	<stop  offset="1" style="stop-color:#0A4A23"/>
</linearGradient>
<path style="fill:url(#SVGID_00000074420957087138750310000015170085905386010517_);" d="M30.3,32.4c0,0,5.8,1,11.3-0.9
	c5.5-1.9,15.2-1,15.2-1s-9.6-10.7-19.9-14.6S10.8,6.7,4.1,0c0,0,4.3,7.9,12.5,14.1S28.9,29.2,30.3,32.4z"/>
<linearGradient id="SVGID_00000080917811360228664580000017419159877436410254_" gradientUnits="userSpaceOnUse" x1="76.4575" y1="32.2898" x2="76.4575" y2="53.6021">
	<stop  offset="0.2191" style="stop-color:#5EB030"/>
	<stop  offset="0.6566" style="stop-color:#3E9636"/>
	<stop  offset="0.7198" style="stop-color:#328432"/>
	<stop  offset="0.8459" style="stop-color:#125626"/>
	<stop  offset="0.876" style="stop-color:#0A4A23"/>
</linearGradient>
<path style="fill:url(#SVGID_00000080917811360228664580000017419159877436410254_);" d="M39,44.4c0,0,7.5,7.4,22.1,7.4
	s15.9-7.4,29-7.4s8.5,0.7,14.2,0.7s9.6-2.3,9.6-2.3s-6.9-4.2-11-4.2s-5.4,1.7-10.5,1.7c-5.1,0-13.7-0.4-18.6-1.3
	C69,38.1,51,35.7,39,44.4z"/>
<linearGradient id="SVGID_00000170265581530677865610000003164105099187592604_" gradientUnits="userSpaceOnUse" x1="65.8848" y1="44.5709" x2="12.0992" y2="15.1456">
	<stop  offset="0.2191" style="stop-color:#5EB030"/>
	<stop  offset="0.656" style="stop-color:#0B5327"/>
	<stop  offset="0.7313" style="stop-color:#08652C"/>
	<stop  offset="0.8756" style="stop-color:#009139"/>
</linearGradient>
<path style="fill:url(#SVGID_00000170265581530677865610000003164105099187592604_);" d="M42.8,42.1c0,0,5.8,1,11.3-0.9
	c5.5-1.9,15.2-1,15.2-1s-9.6-10.7-19.9-14.6S23.2,16.5,16.6,9.8c0,0,4.3,7.9,12.5,14.1S41.3,39,42.8,42.1z"/>
</svg>
