<?xml version="1.0" encoding="utf-8"?>
<!-- Generator: Adobe Illustrator 26.0.0, SVG Export Plug-In . SVG Version: 6.00 Build 0)  -->
<svg version="1.1" id="Layer_1" xmlns="http://www.w3.org/2000/svg" xmlns:xlink="http://www.w3.org/1999/xlink" x="0px" y="0px"
	 viewBox="0 0 59.57 80" style="enable-background:new 0 0 59.57 80;" xml:space="preserve">
<style type="text/css">
	.st0{fill:#EB1E25;}
	.st1{fill:#0A4DA1;}
</style>
<g>
	<path class="st0" d="M30.3,0c0,0,3.52,4.74-0.43,14.9c0,0,1.47-3.59,3.03-4.78c0,0,1.28,7.3-2.9,11.96l0.34,0.69
		c0,0,0.6-0.47,1.29-0.58c0,0-2.67,6.76-2.8,7.04s-14.81,37.5-14.81,37.5l0.89,1.97l0.63,2.19l0.13,0.52l-0.05,0.81l0.01,0.43
		L17.51,80l-1.86-1.95L7.7,68.02l-6.57-8.88c0,0-1.7-2-0.93-5.96c0,0,1.3-12.75,6-18.21c0,0,4.11-5.8,6.18-8.05l5.05-5.69l7.88-11
		C25.3,10.22,29.31,1.22,30.3,0z"/>
	<path class="st1" d="M57.51,20.55l-3.42,2.35l1.03-1.64l2.14-2.49c0,0,2.91-3.01,2.2-8.58c0,0-9.29,10.58-30.64,19.05l-5.04,4.9
		l3.54-1.96c0,0-4.06,7.94-8.86,11.15l2.66-1.16c0,0-3.45,7.32-7.57,11.35l2.22-1.1c0,0-3.81,16.7-0.15,19.8l0.42-0.53
		c0,0,1.71-10.47,5.41-14.67l3.59-4.58l-2.79-0.12c0,0,9.88-4.08,11.39-6.95l-0.47-1c0,0,6.94-2.57,10.41-5.43
		c0,0-0.06-0.45-3.35-0.11c0,0,8.18-2.04,11.93-8.24L48.7,31.7l3.42-2.52C52.12,29.19,56.67,27.27,57.51,20.55z"/>
</g>
</svg>
