<?xml version="1.0" encoding="utf-8"?>
<!-- Generator: Adobe Illustrator 26.0.0, SVG Export Plug-In . SVG Version: 6.00 Build 0)  -->
<svg version="1.1" id="Layer_1" xmlns="http://www.w3.org/2000/svg" xmlns:xlink="http://www.w3.org/1999/xlink" x="0px" y="0px"
	 viewBox="0 0 244.62 80" style="enable-background:new 0 0 244.62 80;" xml:space="preserve">
<style type="text/css">
	.st0{fill:#EB1E25;}
	.st1{fill:#0A4DA1;}
</style>
<g>
	<path class="st0" d="M180.29,0c0,0,3.43,4.61-0.42,14.52c0,0,1.43-3.5,2.95-4.65c0,0,1.24,7.11-2.83,11.65l0.33,0.67
		c0,0,0.58-0.46,1.26-0.56c0,0-2.6,6.59-2.73,6.86s-14.43,36.54-14.43,36.54l0.87,1.92l0.61,2.13l0.13,0.51l-0.05,0.79l0.01,0.42
		l1.84,7.15l-1.81-1.9l-7.74-9.77l-6.4-8.66c0,0-1.65-1.95-0.91-5.81c0,0,1.27-12.43,5.85-17.74c0,0,4-5.65,6.02-7.84l4.92-5.55
		l7.68-10.72C175.41,9.96,179.32,1.18,180.29,0z"/>
	<path class="st0" d="M30.27,61.53v-5.48H4.95C2.22,56.05,0,58.27,0,61v4.34h5.96v-3.81h7.63V80h5.72V61.41L30.27,61.53z"/>
	<path class="st0" d="M41.76,56.05c-4.78,0-8.66,3.87-8.66,8.66v14.6h5.16v-8.7h19.82v8.7h5.31V56.05H41.76z M58.28,65.62H38.16
		v-0.31c0-2.44,1.98-4.41,4.4-4.41h15.72V65.62z"/>
	<path class="st0" d="M66.14,79.3V56.05h27.79c1.94,0,3.54,1.5,3.68,3.44c0.27,3.99-0.48,10.26-7.38,12.24l6.93,7.57h-8.78
		l-6.76-6.76c-0.44-0.44-1.04-0.69-1.67-0.69h-4.86v-6.23h16c0.9,0,1.64-0.73,1.64-1.64v-0.85c0-0.9-0.73-1.64-1.64-1.64H72.42v17.8
		H66.14z"/>
	<path class="st0" d="M130.42,56.05h-22.74c-4.39,0-7.95,3.56-7.95,7.95v15.87h31.25v-5.88h-24.49v-7.66c0-1.78,1.44-3.21,3.21-3.21
		h20.79L130.42,56.05z"/>
	<path class="st0" d="M148.64,61.41c0,0-7.37-0.93-8.92,2.8v9.14h15.04l3.01-1.78l4.05,5.5c0,0-2.49,2.8-8.61,2.59h-20.54V64.68
		c0-5.41,4.39-9.8,9.8-9.8h2.65L148.64,61.41z"/>
	<path class="st1" d="M206.79,20.03l-3.34,2.29l1.01-1.6l2.08-2.43c0,0,2.84-2.93,2.15-8.36c0,0-9.06,10.31-29.85,18.56l-4.91,4.77
		l3.45-1.91c0,0-3.95,7.74-8.63,10.87l2.59-1.13c0,0-3.36,7.13-7.38,11.06l2.16-1.07c0,0-3.71,16.28-0.14,19.29l0.41-0.52
		c0,0,1.66-10.21,5.28-14.29l3.5-4.47l-2.72-0.12c0,0,9.63-3.97,11.1-6.77l-0.46-0.97c0,0,6.76-2.51,10.14-5.29
		c0,0-0.06-0.43-3.27-0.11c0,0,7.97-1.98,11.62-8.03l-3.36,1.09l3.33-2.45C201.55,28.44,205.98,26.57,206.79,20.03z"/>
	<path class="st1" d="M168.91,64.7v14.6h5.16v-5.23h19.82v5.23h5.31V56.05h-21.62C172.8,56.05,168.91,59.92,168.91,64.7z
		 M193.05,67.96h-18.16v-5.3h18.16V67.96z"/>
	<rect x="203.93" y="55.93" class="st1" width="5.56" height="23.23"/>
	<path class="st1" d="M242.74,67.68c1.52-1.66,1.75-6.19,1.75-6.19v-5.56h-24.87h-5.56v5.56v17.67h5.56V61.49h19.68
		c0,4.25-4.63,3.93-4.63,3.93h-12.43v5.23h7.26l6.48,6.87c3.27,2.29,3.82,1.64,3.82,1.64h4.69l-7.68-8.51
		C236.81,70.65,241.22,69.34,242.74,67.68z"/>
	<g>
		<path class="st1" d="M12.52,39.89c0,0,1.96,5.23,2.04,5.23c-0.57,0.65-6.62,1.96-8.59,0c-1.96-1.96,1.31-5.89,1.31-5.89
			c-1.96,1.64-2.94,2.62-3.6,4.25s-0.98,5.56,2.29,6.22c3.27,0.65,7.85,0,9.82-3.6s-1.23-8.12-1.23-8.12L12.52,39.89z"/>
		<path class="st1" d="M13.83,33.35l-2.62-2.26c0,0-1.96,0.62-2.62,2.91l2.62,1.96L13.83,33.35z"/>
		<path class="st1" d="M21.36,35.31c-0.65-5.23-0.65-5.56-0.65-5.56s-2.29,1.31-2.29,4.58c0,3.27,1.52,9.63,1.52,9.63
			S22.01,40.55,21.36,35.31z"/>
		<polygon class="st1" points="39.09,47.57 36.87,46.11 35.1,48.07 37.23,49.93 38.96,48.15 40.99,49.71 43.28,47.65 40.61,46.11 		
			"/>
		<path class="st1" d="M70.44,33.02c0.65,2.29,1.31,4.25,1.31,7.53h-3.27c0,0-1.72,0.41-1.68-1.6c0.04-2-1.02-10.51-1.02-10.51
			s-2.54,0.98-2.21,4.91s0.65,7.2,0.65,7.2h-2.94c0,0,0.33-3.27-2.29-4.58s-6.22,0.65-7.85,1.64c-1.02,0.61-2.17,1.1-2.89,1.38
			c0.32-1.22-0.03-4.34,0.92-5.3c0.98-0.98,1.31-1.96,1.31-1.96l-3.93-3.27c-0.98,0.98-1.64,3.6-0.98,4.91
			c0.65,1.31,0.65,3.18,0.65,3.18v4.01c0,0-1.31,0-2.62,0s-1.31-1.31-1.31-1.31v-3.6c-1.64,0.98-1.96,2.29-1.96,3.6
			c0,1.31-0.98,1.31-0.98,1.31s-4.25,0-5.89,0c-1.64,0-4.06-3.69-4.06-3.69s-1.83,1.4-1.5,2.38c0.33,0.98,1.64,3.6,1.64,3.6
			s-0.33,1.31-2.94,2.94c-2.62,1.64-6.87,0.65-6.87,0.65s2.29,3.6,5.89,2.94c3.6-0.65,5.89-4.82,5.89-4.82s5.23,0,6.78,0
			c1.55,0,2.38-2.38,2.38-2.38c0,1.64,1.96,2.29,1.96,2.29h4.58h14.07c0,0,1.96,0,3.27-1.96c0,0-0.34,1.96,1.3,1.96s6.88,0,6.88,0
			s0.57,0,0.78-0.98c0.21-0.98-0.12-6.87,0.21-8.18c0.33-1.31,1.96-1.96,2.29-3.27l-4.64-3.6C71.36,28.44,69.78,30.73,70.44,33.02z
			 M50.15,40.55c0,0,2.29-2.29,4.91-2.29s3.23,2.29,3.23,2.29H50.15z"/>
		<path class="st1" d="M120.17,43.17c0.65-1.31,0.98-4.91-0.65-5.89s-3.27-0.98-4.91-0.98s-15.86,0-15.86,0s-1.15,0-0.5-0.65
			c0.65-0.65,1.64-1.64,4.25-2.29c2.62-0.65,5.56-3.27,5.56-3.6c0-0.33,0-0.65-0.98-0.33c-0.98,0.33-7.53,2.29-10.8,5.56
			c-3.27,3.27-0.65,4.58,1.31,4.58s15.38,0,15.38,0s3.27,0,3.6,0.33c0.33,0.33-1.31,0.98-3.27,0.98s-20.61,0-20.61,0
			s-0.98-2.62-1.96-4.25c-0.98-1.64-1.64-1.96-2.94-0.98c-1.31,0.98-3.27,4.25-2.62,6.54c0.65,2.29,3.93,2.29,3.93,2.29
			s-1.31,1.96-4.58,2.62c-3.27,0.65-4.91,1.64-3.93,1.64c0,0,5.89,0.98,6.54,0.98c0,0,1.64,0,3.27-2.62s1.51-2.62,2.39-2.62
			s22.8,0,22.8,0S119.51,44.47,120.17,43.17z M89.41,40.55c0,0-1.31,0-2.29-0.33c-0.98-0.33,0-2.29,1.31-1.96
			C89.74,38.58,89.41,40.55,89.41,40.55z"/>
		<path class="st1" d="M124.57,36.17c0,0-1.45,1.25-1.89,2.9l2.94,2.87c0,0-0.63,2.1-2.61,3.43c-1.98,1.32-6.95,1.7-6.95,1.7
			s3.32,3.68,8.47,1.21C129.68,45.82,127.76,37.48,124.57,36.17z"/>
		<path class="st1" d="M143.13,33.8l-2.04,2.72c0,0,1.25,2.53,1.55,3.29c0.3,0.76,0,0.76,0,0.76c-7.26,0-7.43-0.27-7.43-0.27
			c-0.54-6.34-1.52-11.26-1.52-11.26s-1.55,2.23-1.63,5.17c-0.08,2.94,0.84,10.15,0.84,10.15h11.18c0,0,1.39-0.6,1.66-4.03
			S143.13,33.8,143.13,33.8z"/>
		<polygon class="st1" points="140.86,30.49 143.55,31.89 145.39,30.04 143.3,28.4 141.31,29.97 138.59,28.46 136.8,30.42 
			138.91,31.95 		"/>
	</g>
</g>
</svg>
