<?xml version="1.0" encoding="utf-8"?>
<!-- Generator: Adobe Illustrator 25.4.1, SVG Export Plug-In . SVG Version: 6.00 Build 0)  -->
<svg version="1.1" id="Layer_1" xmlns="http://www.w3.org/2000/svg" xmlns:xlink="http://www.w3.org/1999/xlink" x="0px" y="0px"
	 viewBox="0 0 79.87 80" style="enable-background:new 0 0 79.87 80;" xml:space="preserve">
<style type="text/css">
	.st0{fill:#D70220;}
</style>
<path class="st0" d="M0,37.44c0.11-1.06,0.18-2.12,0.34-3.17c1.29-8.3,4.74-15.54,10.53-21.66c4.52-4.78,9.82-8.4,16.09-10.39
	c14.87-4.71,28.3-1.94,39.97,8.4c6.86,6.08,11.04,13.84,12.4,22.9c2.03,13.5-1.76,25.25-11.43,34.97
	c-5.54,5.57-12.24,9.18-19.95,10.67c-12.4,2.39-23.67-0.32-33.45-8.33C6.57,64.32,1.84,55.84,0.34,45.63
	C0.19,44.6,0.11,43.55,0,42.51C0,40.82,0,39.13,0,37.44z M40.61,2.73c-1.12,0-2.25-0.07-3.37,0.01C33.47,3.01,29.8,3.75,26.31,5.2
	C14.76,10.01,7.25,18.43,3.77,30.45c-0.2,0.68-0.21,1.3,0.18,1.93c0.29,0.48,0.5,1.01,0.76,1.5c2.75,5.22,6.84,8.83,12.59,10.39
	c4.28,1.16,8.62,0.98,12.96,0.34c3.38-0.5,6.65-1.48,9.92-2.47c0.86-0.26,1.8-0.36,2.71-0.37c1.37-0.02,2.22,0.84,2.24,2.21
	c0.01,0.57-0.1,1.17-0.28,1.7c-0.39,1.13-0.92,2.22-1.29,3.35c-0.28,0.84-0.53,1.73-0.58,2.61c-0.07,1.24,0.72,1.9,1.97,1.94
	c2.17,0.07,4.13-0.67,5.89-1.79c2.54-1.62,4.97-3.42,7.42-5.18c4.09-2.95,8.13-5.98,12.26-8.88c1.82-1.28,3.76-2.41,6.02-2.82
	c0.4-0.07,0.41-0.32,0.35-0.62c-0.22-1.1-0.4-2.22-0.67-3.3C72.04,14.55,57.53,3,40.61,2.73z M56.47,73.52
	c-0.01-0.06-0.01-0.11-0.02-0.17c-0.23-0.07-0.45-0.16-0.69-0.21c-2.97-0.71-5.95-1.39-8.9-2.15c-2.75-0.7-5.39-1.71-7.78-3.29
	c-1.74-1.15-3.15-2.59-3.99-4.54c-0.96-2.21-0.92-4.53-0.79-6.86c0.01-0.19,0.03-0.38,0.04-0.57c-0.05-0.01-0.09-0.02-0.14-0.04
	c-0.1,0.17-0.21,0.34-0.3,0.51c-0.79,1.53-1.55,3.08-2.39,4.59c-0.9,1.62-1.79,3.26-2.84,4.77c-1.72,2.46-3.99,4.36-6.49,6.01
	c-0.33,0.22-0.65,0.46-1,0.71c3.36,2.69,12.41,5.15,18.83,5.11C45.8,77.37,51.29,76.07,56.47,73.52z M2.6,42.16
	c0,0.24-0.02,0.42,0,0.6C2.74,43.85,2.9,44.92,3.02,46c0.05,0.43,0.21,0.75,0.59,0.96c1.19,0.68,2.35,1.4,3.57,2.03
	c3.85,1.98,7.92,3.04,12.28,2.94c3.62-0.09,7.05-1,10.32-2.48c3.21-1.45,6.37-3.02,9.57-4.48c0.7-0.32,1.5-0.42,2.27-0.53
	c0.59-0.08,0.98,0.4,0.86,1c-0.09,0.43-0.27,0.86-0.44,1.27c-0.54,1.3-1.2,2.55-1.64,3.88c-1.05,3.19,0.41,5.95,3.58,6.87
	c0.64,0.18,1.33,0.24,2,0.26c3.2,0.13,6.19-0.78,9.15-1.84c4.13-1.49,7.96-3.58,11.77-5.73c1.13-0.64,2.28-1.23,3.43-1.82
	c1.75-0.9,3.58-1.44,5.57-1.28c0.53,0.04,0.83-0.09,0.88-0.7c0.08-0.95,0.27-1.89,0.38-2.84c0.09-0.77,0.05-0.8-0.74-0.89
	c-0.06-0.01-0.11-0.01-0.17-0.01c-2.01-0.2-3.84,0.4-5.52,1.41c-2.82,1.68-5.59,3.44-8.37,5.18c-3.49,2.18-7.05,4.22-10.88,5.74
	c-2.28,0.91-4.64,1.22-7.07,0.87c-1.93-0.28-3-1.56-3.03-3.5c-0.02-1.3,0.3-2.52,0.82-3.7c0.53-1.2,1.09-2.39,1.54-3.62
	c0.58-1.57,0.09-2.24-1.55-2c-1.19,0.17-2.37,0.55-3.51,0.95c-3.45,1.21-6.84,2.58-10.32,3.69c-7.92,2.53-15.41,1.37-22.42-3
	C4.8,43.9,3.76,43.02,2.6,42.16z M5.69,54.91c0.13,0.35,0.19,0.54,0.27,0.72c0.47,0.94,0.97,1.86,1.43,2.8
	c0.25,0.52,0.64,0.79,1.21,0.88c4.35,0.72,8.66,0.64,12.94-0.51c3.48-0.94,6.45-2.81,9.28-4.93c1.94-1.45,3.73-3.08,5.61-4.61
	c0.61-0.49,1.27-0.92,1.94-1.33c0.16-0.1,0.5-0.11,0.61,0c0.14,0.13,0.21,0.44,0.17,0.65c-0.08,0.4-0.25,0.78-0.39,1.17
	c-0.37,1.02-0.84,2.02-1.09,3.06c-1.01,4.14,0.92,7.42,5,8.66c1.52,0.46,3.09,0.73,4.66,0.62c2.15-0.15,4.31-0.32,6.42-0.73
	c4.34-0.84,8.64-1.87,12.97-2.77c1.75-0.37,3.51-0.6,5.3-0.21c0.17,0.04,0.51-0.16,0.6-0.33c0.57-1.12,1.1-2.25,1.63-3.39
	c0.07-0.16,0.08-0.35,0.13-0.58c-0.3-0.03-0.55-0.1-0.78-0.08c-1.24,0.16-2.53,0.18-3.71,0.54c-3.21,0.97-6.38,2.07-9.56,3.13
	c-4.05,1.35-8.13,2.54-12.43,2.68c-2.15,0.07-4.28-0.1-6.27-1.04c-1.76-0.84-2.81-2.22-3.1-4.14c-0.25-1.7,0.06-3.34,0.73-4.89
	c0.55-1.27,1.22-2.49,1.8-3.75c0.13-0.29,0.08-0.66,0.11-1c-0.3,0.04-0.64,0-0.88,0.14c-1.32,0.78-2.67,1.53-3.91,2.42
	c-2.35,1.68-4.64,3.45-7.18,4.84c-3.59,1.96-7.37,3.23-11.5,3.35c-3.53,0.1-6.99-0.41-10.44-1.1C6.8,55.08,6.31,55.01,5.69,54.91z
	 M37.99,49.34c-0.06-0.05-0.13-0.1-0.19-0.15c-0.34,0.27-0.72,0.51-1.02,0.83c-1.45,1.5-2.89,3-4.31,4.53
	c-1.57,1.7-3.07,3.46-4.95,4.83c-4.18,3.05-8.89,4.68-14,5.23c-0.49,0.05-0.97,0.12-1.45,0.18c-0.04,0.08-0.09,0.16-0.13,0.24
	c1,0.94,1.99,1.88,2.99,2.8c0.08,0.08,0.24,0.12,0.36,0.11c0.88-0.07,1.76-0.1,2.63-0.24c3.34-0.55,6.16-2.16,8.7-4.33
	c2.45-2.09,4.38-4.63,6.23-7.23c0.46-0.64,0.94-1.26,1.45-1.86c0.17-0.2,0.46-0.31,0.79-0.52c0.04,0.35,0.08,0.55,0.08,0.76
	c0.02,1.37,0.03,2.74,0.04,4.11c0,0.22,0,0.46,0.07,0.67c0.5,1.56,1.28,2.94,2.49,4.09c1.32,1.25,2.88,2.08,4.57,2.69
	c2.88,1.05,5.9,1.25,8.92,1.33c4.31,0.11,8.63,0.02,12.93,0.57c0.25,0.03,0.6-0.09,0.79-0.27c0.84-0.78,1.63-1.6,2.44-2.42
	c0.1-0.1,0.15-0.24,0.22-0.35c-0.58-0.4-1.72-0.72-2.9-0.66c-2.23,0.11-4.45,0.28-6.68,0.47c-4.25,0.37-8.5,0.57-12.75-0.06
	c-1.96-0.29-3.86-0.79-5.58-1.8c-2.45-1.43-3.66-3.57-3.67-6.4c-0.01-1.91,0.52-3.7,1.28-5.43C37.58,50.49,37.77,49.91,37.99,49.34z
	"/>
<path class="st0" d="M15.26,16.18c1.24-0.15,2.49-0.28,3.72-0.47c2.46-0.37,4.35,0.67,5.94,2.4c1.68,1.82,3.32,3.68,4.97,5.52
	c2.54,2.84,5.55,5.03,9.04,6.56c0.82,0.36,0.85,0.36,1.33-0.41c2.48-3.99,5.82-6.91,10.44-8.11c1.45-0.37,3-0.45,4.51-0.54
	c2.72-0.17,5.38-0.49,7.82-1.82c0.92-0.5,1.8-1.09,2.69-1.63c0.22-0.13,0.44-0.26,0.73-0.44c0.1,1.57-0.08,3-0.95,4.21
	c-0.54,0.74-1.31,1.32-2,1.95c-0.29,0.27-0.62,0.24-0.98,0.04c-0.96-0.54-1.99-0.82-3.08-1.01c-3.16-0.56-5.68,0.81-7.92,2.71
	c-1.8,1.52-3.36,3.31-5.04,4.98c-0.74,0.74-1.49,1.48-2.25,2.21c-0.52,0.5-0.52,0.77,0.15,1.07c0.77,0.34,1.58,0.57,2.36,0.89
	c0.28,0.11,0.52,0.32,0.78,0.49c-0.25,0.2-0.47,0.45-0.75,0.6c-0.16,0.08-0.46,0.08-0.61-0.01c-0.85-0.55-1.73-0.49-2.59-0.12
	c-3.02,1.32-5.92,0.96-8.76-0.53c-0.37-0.19-0.77-0.34-1.27-0.56c1.63-0.54,2.92-1.64,4.67-1.3c0.01-0.07,0.03-0.13,0.04-0.2
	c-0.12-0.22-0.2-0.46-0.35-0.64c-0.63-0.8-1.4-1.39-2.4-1.68c-2.45-0.7-4.89-1.42-7.33-2.14c-2.92-0.86-5.15-2.6-6.72-5.21
	c-0.62-1.03-1.32-2.01-1.98-3.01c-0.99-1.51-2.24-2.71-3.91-3.44c-0.1-0.04-0.19-0.11-0.29-0.16C15.27,16.3,15.27,16.24,15.26,16.18
	z"/>
</svg>
