<?xml version="1.0" encoding="utf-8"?>
<!-- Generator: Adobe Illustrator 25.4.1, SVG Export Plug-In . SVG Version: 6.00 Build 0)  -->
<svg version="1.1" id="Layer_1" xmlns="http://www.w3.org/2000/svg" xmlns:xlink="http://www.w3.org/1999/xlink" x="0px" y="0px"
	 viewBox="0 0 324.18 80" style="enable-background:new 0 0 324.18 80;" xml:space="preserve">
<style type="text/css">
	.st0{fill:#D70220;}
</style>
<g>
	<path class="st0" d="M0,37.44c0.11-1.06,0.18-2.12,0.34-3.17c1.29-8.3,4.74-15.54,10.53-21.66c4.52-4.78,9.82-8.4,16.09-10.39
		c14.87-4.71,28.3-1.94,39.97,8.4c6.86,6.08,11.04,13.84,12.4,22.9c2.03,13.5-1.76,25.25-11.43,34.97
		c-5.54,5.57-12.24,9.18-19.95,10.67c-12.4,2.39-23.67-0.32-33.45-8.33C6.57,64.32,1.84,55.84,0.34,45.63
		C0.19,44.6,0.11,43.55,0,42.51C0,40.82,0,39.13,0,37.44z M40.61,2.73c-1.12,0-2.25-0.07-3.37,0.01C33.47,3.01,29.8,3.75,26.31,5.2
		C14.76,10.01,7.25,18.43,3.77,30.45c-0.2,0.68-0.21,1.3,0.18,1.93c0.29,0.48,0.5,1.01,0.76,1.5c2.75,5.22,6.84,8.83,12.59,10.39
		c4.28,1.16,8.62,0.98,12.96,0.34c3.38-0.5,6.65-1.48,9.92-2.47c0.86-0.26,1.8-0.36,2.71-0.37c1.37-0.02,2.22,0.84,2.24,2.21
		c0.01,0.57-0.1,1.17-0.28,1.7c-0.39,1.13-0.92,2.22-1.29,3.35c-0.28,0.84-0.53,1.73-0.58,2.61c-0.07,1.24,0.72,1.9,1.97,1.94
		c2.17,0.07,4.13-0.67,5.89-1.79c2.54-1.62,4.97-3.42,7.42-5.18c4.09-2.95,8.13-5.98,12.26-8.88c1.82-1.28,3.76-2.41,6.02-2.82
		c0.4-0.07,0.41-0.32,0.35-0.62c-0.22-1.1-0.4-2.22-0.67-3.3C72.04,14.55,57.53,3,40.61,2.73z M56.47,73.52
		c-0.01-0.06-0.01-0.11-0.02-0.17c-0.23-0.07-0.45-0.16-0.69-0.21c-2.97-0.71-5.95-1.39-8.9-2.15c-2.75-0.7-5.39-1.71-7.78-3.29
		c-1.74-1.15-3.15-2.59-3.99-4.54c-0.96-2.21-0.92-4.53-0.79-6.86c0.01-0.19,0.03-0.38,0.04-0.57c-0.05-0.01-0.09-0.02-0.14-0.04
		c-0.1,0.17-0.21,0.34-0.3,0.51c-0.79,1.53-1.55,3.08-2.39,4.59c-0.9,1.62-1.79,3.26-2.84,4.77c-1.72,2.46-3.99,4.36-6.49,6.01
		c-0.33,0.22-0.65,0.46-1,0.71c3.36,2.69,12.41,5.15,18.83,5.11C45.8,77.37,51.29,76.07,56.47,73.52z M2.6,42.16
		c0,0.24-0.02,0.42,0,0.6C2.74,43.85,2.9,44.92,3.02,46c0.05,0.43,0.21,0.75,0.59,0.96c1.19,0.68,2.35,1.4,3.57,2.03
		c3.85,1.98,7.92,3.04,12.28,2.94c3.62-0.09,7.05-1,10.32-2.48c3.21-1.45,6.37-3.02,9.57-4.48c0.7-0.32,1.5-0.42,2.27-0.53
		c0.59-0.08,0.98,0.4,0.86,1c-0.09,0.43-0.27,0.86-0.44,1.27c-0.54,1.3-1.2,2.55-1.64,3.88c-1.05,3.19,0.41,5.95,3.58,6.87
		c0.64,0.18,1.33,0.24,2,0.26c3.2,0.13,6.19-0.78,9.15-1.84c4.13-1.49,7.96-3.58,11.77-5.73c1.13-0.64,2.28-1.23,3.43-1.82
		c1.75-0.9,3.58-1.44,5.57-1.28c0.53,0.04,0.83-0.09,0.88-0.7c0.08-0.95,0.27-1.89,0.38-2.84c0.09-0.77,0.05-0.8-0.74-0.89
		c-0.06-0.01-0.11-0.01-0.17-0.01c-2.01-0.2-3.84,0.4-5.52,1.41c-2.82,1.68-5.59,3.44-8.37,5.18c-3.49,2.18-7.05,4.22-10.88,5.74
		c-2.28,0.91-4.64,1.22-7.07,0.87c-1.93-0.28-3-1.56-3.03-3.5c-0.02-1.3,0.3-2.52,0.82-3.7c0.53-1.2,1.09-2.39,1.54-3.62
		c0.58-1.57,0.09-2.24-1.55-2c-1.19,0.17-2.37,0.55-3.51,0.95c-3.45,1.21-6.84,2.58-10.32,3.69c-7.92,2.53-15.41,1.37-22.42-3
		C4.8,43.9,3.76,43.02,2.6,42.16z M5.69,54.91c0.13,0.35,0.19,0.54,0.27,0.72c0.47,0.94,0.97,1.86,1.43,2.8
		c0.25,0.52,0.64,0.79,1.21,0.88c4.35,0.72,8.66,0.64,12.94-0.51c3.48-0.94,6.45-2.81,9.28-4.93c1.94-1.45,3.73-3.08,5.61-4.61
		c0.61-0.49,1.27-0.92,1.94-1.33c0.16-0.1,0.5-0.11,0.61,0c0.14,0.13,0.21,0.44,0.17,0.65c-0.08,0.4-0.25,0.78-0.39,1.17
		c-0.37,1.02-0.84,2.02-1.09,3.06c-1.01,4.14,0.92,7.42,5,8.66c1.52,0.46,3.09,0.73,4.66,0.62c2.15-0.15,4.31-0.32,6.42-0.73
		c4.34-0.84,8.64-1.87,12.97-2.77c1.75-0.37,3.51-0.6,5.3-0.21c0.17,0.04,0.51-0.16,0.6-0.33c0.57-1.12,1.1-2.25,1.63-3.39
		c0.07-0.16,0.08-0.35,0.13-0.58c-0.3-0.03-0.55-0.1-0.78-0.08c-1.24,0.16-2.53,0.18-3.71,0.54c-3.21,0.97-6.38,2.07-9.56,3.13
		c-4.05,1.35-8.13,2.54-12.43,2.68c-2.15,0.07-4.28-0.1-6.27-1.04c-1.76-0.84-2.81-2.22-3.1-4.14c-0.25-1.7,0.06-3.34,0.73-4.89
		c0.55-1.27,1.22-2.49,1.8-3.75c0.13-0.29,0.08-0.66,0.11-1c-0.3,0.04-0.64,0-0.88,0.14c-1.32,0.78-2.67,1.53-3.91,2.42
		c-2.35,1.68-4.64,3.45-7.18,4.84c-3.59,1.96-7.37,3.23-11.5,3.35c-3.53,0.1-6.99-0.41-10.44-1.1C6.8,55.08,6.31,55.01,5.69,54.91z
		 M37.99,49.34c-0.06-0.05-0.13-0.1-0.19-0.15c-0.34,0.27-0.72,0.51-1.02,0.83c-1.45,1.5-2.89,3-4.31,4.53
		c-1.57,1.7-3.07,3.46-4.95,4.83c-4.18,3.05-8.89,4.68-14,5.23c-0.49,0.05-0.97,0.12-1.45,0.18c-0.04,0.08-0.09,0.16-0.13,0.24
		c1,0.94,1.99,1.88,2.99,2.8c0.08,0.08,0.24,0.12,0.36,0.11c0.88-0.07,1.76-0.1,2.63-0.24c3.34-0.55,6.16-2.16,8.7-4.33
		c2.45-2.09,4.38-4.63,6.23-7.23c0.46-0.64,0.94-1.26,1.45-1.86c0.17-0.2,0.46-0.31,0.79-0.52c0.04,0.35,0.08,0.55,0.08,0.76
		c0.02,1.37,0.03,2.74,0.04,4.11c0,0.22,0,0.46,0.07,0.67c0.5,1.56,1.28,2.94,2.49,4.09c1.32,1.25,2.88,2.08,4.57,2.69
		c2.88,1.05,5.9,1.25,8.92,1.33c4.31,0.11,8.63,0.02,12.93,0.57c0.25,0.03,0.6-0.09,0.79-0.27c0.84-0.78,1.63-1.6,2.44-2.42
		c0.1-0.1,0.15-0.24,0.22-0.35c-0.58-0.4-1.72-0.72-2.9-0.66c-2.23,0.11-4.45,0.28-6.68,0.47c-4.25,0.37-8.5,0.57-12.75-0.06
		c-1.96-0.29-3.86-0.79-5.58-1.8c-2.45-1.43-3.66-3.57-3.67-6.4c-0.01-1.91,0.52-3.7,1.28-5.43C37.58,50.49,37.77,49.91,37.99,49.34
		z"/>
	<path class="st0" d="M114.59,16.82c-1.35,0.76-2.66,1.49-3.95,2.24c-0.73,0.42-1.41,0.93-2.15,1.33c-0.82,0.44-1.26,1.08-1.28,2.02
		c-0.03,1.2-0.05,2.38,0.37,3.55c0.26,0.73,0.28,1.54,0.43,2.32c0.1,0.51,0.23,1.03,0.4,1.52c0.73,2.04,1.46,4.09,2.23,6.11
		c0.63,1.67,0.91,3.41,0.91,5.18c0,1.61-0.81,2.9-1.93,3.99c-0.49,0.48-1.14,0.51-1.73,0.18c-0.9-0.51-1.57-1.24-1.79-2.27
		c-0.22-1.03-0.73-1.84-1.39-2.65c-0.73-0.89-1.47-1.84-1.89-2.89c-0.6-1.51-0.95-3.14-1.35-4.73c-0.39-1.58-0.77-3.17-1.05-4.77
		c-0.38-2.17-0.4-4.37-0.12-6.56c0.28-2.17,0.67-4.31,1.41-6.4c0.56-1.59,1.5-2.36,3.14-2.45c1.98-0.11,3.97-0.27,5.95-0.44
		c2.2-0.19,4.31-0.76,6.34-1.65c0.55-0.24,1.12-0.43,1.69-0.61c1.11-0.35,2.24-0.61,3.33-1.02c1.2-0.45,2.45-0.28,3.67-0.43
		c4.4-0.57,8.46,0.49,12.21,2.76c0.88,0.54,1.62,1.31,2.42,1.99c0.24,0.21,0.42,0.49,0.65,0.7c2.99,2.82,4.27,6.43,4.9,10.37
		c0.41,2.59,0.48,5.2,0.3,7.8c-0.07,0.99-0.39,1.99-0.75,2.92c-1.2,3.06-0.58,2.24-3.05,4.03c-2.34,1.69-4.66,3.42-7.06,5.01
		c-1.45,0.96-3.09,0.94-4.63,0.11c-0.45-0.24-0.78-0.3-1.22-0.03c-1.14,0.69-2.31,1.32-3.45,2.02c-1.37,0.84-2.89,1.18-4.46,1.19
		c-1.28,0.01-2.41-0.65-3.54-1.2c-0.82-0.4-1.64-0.81-2.47-1.19c-0.89-0.41-1.64-1.74-1.42-2.7c0.29-1.28,0.75-2.51,1.65-3.47
		c1.31-1.39,2.72-2.68,4.1-4.01c1.47-1.42,3-2.78,4.43-4.25c0.83-0.85,0.89-2.05,0.96-3.17c0.07-1.07,0.03-2.14,0-3.21
		c0-0.19-0.14-0.42-0.27-0.57c-0.51-0.57-1.03-1.14-1.59-1.67c-0.17-0.16-0.5-0.27-0.73-0.24c-0.86,0.12-1.5,0.63-1.88,1.38
		c-0.78,1.55-1.75,3-2.1,4.76c-0.27,1.36-1.21,2.39-2.14,3.38c-0.12,0.13-0.5,0.15-0.69,0.07c-1.85-0.83-2.7-2.4-3.08-4.29
		c-0.08-0.38-0.08-0.78-0.15-1.17c-0.19-1.15,0.06-2.16,0.85-3.03c0.66-0.72,0.84-1.62,0.92-2.54
		C114.62,19.1,115.05,18.06,114.59,16.82z M142.69,26.23c-0.06-0.92-0.1-1.84-0.19-2.75c-0.22-2.19-0.94-4.19-2.63-5.69
		c-2.81-2.49-5.86-4.62-9.35-6.07c-0.81-0.34-1.65-0.44-2.48-0.27c-3.32,0.7-6.38,2.03-9.28,3.77c-0.13,0.08-0.28,0.29-0.27,0.43
		c0.06,1.31,0.15,2.62,0.24,3.92c0.03,0.45,0.28,0.64,0.73,0.44c0.97-0.43,1.94-0.86,2.91-1.32c1.47-0.69,2.93-1.42,4.4-2.1
		c0.17-0.08,0.47-0.07,0.61,0.03c0.84,0.61,1.6,1.29,2.11,2.23c0.78,1.41,1.6,2.8,2.38,4.21c0.11,0.21,0.2,0.45,0.21,0.69
		c0.04,0.92,0.05,1.84,0.07,2.76c0.02,0.83-0.29,1.54-0.85,2.14c-0.5,0.54-1.02,1.05-1.52,1.58c-2.13,2.22-4.15,4.55-5.84,7.13
		c-0.19,0.3-0.27,0.67-0.39,1.01c0.4,0.01,0.81,0.09,1.18,0.01c0.75-0.17,1.47-0.47,2.21-0.63c1.73-0.38,3.3-0.06,4.62,1.19
		c0.71,0.67,1.1,0.68,1.83,0.04c0.93-0.82,1.99-1.4,3.16-1.79c1.07-0.35,2.07-0.86,2.75-1.77
		C141.35,32.71,142.89,29.79,142.69,26.23z"/>
	<path class="st0" d="M242.31,43.63c0.92-0.71,1.56-1.5,2.06-2.42c0.99-1.81,1.57-3.77,2.01-5.77c0.53-2.41,1.02-4.84,1.47-7.27
		c0.31-1.69,0.22-3.36-0.5-4.96c-0.25-0.56,0.15-1.18,0.76-1.3c0.13-0.02,0.26-0.02,0.39-0.02c2.72-0.1,5.44-0.25,8.16-0.28
		c1.11-0.01,2.23,0.19,3.33,0.38c0.76,0.13,0.93,0.4,0.8,1.15c-0.41,2.34-0.87,4.68-1.3,7.02c-0.29,1.59-0.7,3.17-0.77,4.77
		c-0.07,1.44,0.19,2.91,0.41,4.35c0.16,1.07,0.47,2.12,0.76,3.17c0.1,0.36,0.28,0.7,0.46,1.02c0.77,1.31,2.34,1.68,3.6,0.82
		c0.88-0.6,1.81-0.79,2.83-0.55c1.19,0.28,1.99,1.28,2.11,2.61c0.13,1.44-0.35,2.43-1.57,2.92c-0.98,0.4-2,0.77-3.04,0.98
		c-1.99,0.42-3.79-0.24-5.44-1.3c-1.98-1.27-3.47-2.95-3.9-5.34c-0.34-1.93-0.34-3.91-0.05-5.84c0.55-3.75,1.03-7.51,0.94-11.31
		c-0.03-1.19-0.5-1.62-1.69-1.5c-0.32,0.03-0.63,0.09-0.94,0.16c-0.97,0.23-1.36,0.68-1.45,1.67c-0.16,1.74-0.23,3.49-0.47,5.21
		c-0.39,2.76-0.72,5.55-1.4,8.25c-0.67,2.68-2.5,4.65-4.81,6.15c-0.35,0.22-0.66,0.2-0.98-0.06c-0.52-0.43-1.05-0.84-1.64-1.32
		c-0.19,0.44-0.36,0.83-0.51,1.22c-0.53,1.36-1.23,2.6-2.15,3.74c-0.95,1.18-2.11,1.58-3.59,1.21c-0.87-0.22-1.5-0.72-1.64-1.58
		c-0.21-1.29-0.3-2.6-0.4-3.91c-0.01-0.11,0.19-0.29,0.33-0.35c0.62-0.26,1.26-0.48,1.89-0.72c1.67-0.65,2.64-1.8,2.76-3.66
		c0.15-2.31,0.31-4.61,0-6.91c-0.12-0.9-0.45-1.77-0.76-2.63c-0.09-0.24-0.42-0.53-0.67-0.56c-1.66-0.18-3.32-0.3-4.99-0.42
		c-0.13-0.01-0.37,0.13-0.41,0.26c-0.31,0.91,0.22,1.87,1.14,2.12c0.05,0.01,0.11,0.03,0.16,0.04c0.98,0.17,1.95,0.39,2.47,1.35
		c0.64,1.18,0.92,2.46,0.67,3.8c-0.15,0.83-0.6,1.06-1.38,0.75c-0.63-0.24-1.25-0.5-1.86-0.8c-0.5-0.25-0.8-0.14-1.01,0.36
		c-0.44,1.01-0.93,2.01-1.35,3.03c-1.04,2.51-2.37,4.85-4.01,7.01c-0.92,1.22-2.17,1.99-3.5,2.67c-0.59,0.3-0.84-0.19-1.24-0.47
		c0.21-0.32,0.4-0.64,0.6-0.94c2.13-3.2,3.88-6.59,4.83-10.35c0.47-1.85,0.68-3.72,0.67-5.63c0-0.82-0.32-1.41-1.01-1.82
		c-0.8-0.48-1.62-0.95-2.41-1.46c-0.36-0.23-0.7-0.52-0.98-0.84c-0.47-0.54-0.37-1.15,0.29-1.43c0.9-0.4,1.84-0.76,2.79-1.03
		c0.65-0.19,0.91-0.54,1.08-1.17c0.43-1.58,0.03-3.08-0.26-4.61c-0.24-1.29-0.44-2.59-0.63-3.89c-0.19-1.25,0.18-2.18,1.36-2.86
		c2.37-1.35,3.87-3.44,4.67-6.04c0.07-0.23,0.13-0.47,0.22-0.7c0.46-1.24,1.02-1.72,1.96-1.69c1.4,0.04,2.34,0.67,2.66,1.91
		c0.27,1.05,0.48,2.12,0.64,3.19c0.16,1.01,0.57,1.73,1.62,2.02c0.43,0.12,0.81,0.39,1.22,0.57c1.53,0.65,2.33,1.86,2.32,3.47
		c-0.01,1.74-0.18,3.48-0.34,5.22c-0.12,1.27-0.32,2.53-0.51,3.79c-0.05,0.35,0.03,0.54,0.36,0.7c0.77,0.38,1.53,0.79,2.28,1.22
		c0.72,0.42,0.75,0.92,0.07,1.4c-0.98,0.7-2,1.33-2.98,2.02c-0.18,0.13-0.37,0.4-0.38,0.61c-0.11,3.62-0.2,7.24-0.29,10.87
		C242.27,43.27,242.29,43.4,242.31,43.63z M231.38,20.91c0.16,1.38,0.3,3.06,0.56,4.72c0.28,1.76,0.71,2.1,2.5,2.1
		c0.66,0,1.42,0,1.96-0.3c1.03-0.59,2.08-1.03,3.22-1.26c0.43-0.08,0.54-0.3,0.5-0.7c-0.11-1.34-0.16-2.69-0.33-4.03
		c-0.2-1.65-0.71-3.22-1.62-4.63c-0.4-0.62-0.94-1.03-1.7-1.03c-1.05-0.01-2.1-0.05-3.14,0.02c-0.99,0.07-1.5,0.58-1.63,1.56
		C231.57,18.43,231.51,19.52,231.38,20.91z"/>
	<path class="st0" d="M201.39,13.45c-0.11,2.02-0.15,4.03-0.35,6.02c-0.14,1.31-0.67,2.59-0.75,3.9c-0.12,1.9-0.11,3.83,0.07,5.72
		c0.32,3.47,0.89,6.92,1.17,10.39c0.15,1.89-0.02,3.82-0.15,5.73c-0.05,0.75-0.28,1.54-0.63,2.2c-0.73,1.37-1.57,2.68-2.43,3.97
		c-0.54,0.8-0.93,0.8-1.53,0.03c-1.26-1.63-2.35-3.38-2.44-5.52c-0.13-3.13-0.3-6.26-0.21-9.39c0.06-2.31,0.45-4.63,0.8-6.92
		c0.97-6.31,1.31-12.64,1.02-19.02c-0.05-1.14-0.06-2.29-0.05-3.43c0-0.22,0.14-0.5,0.31-0.64c0.44-0.38,0.91-0.73,1.41-1.02
		c1.07-0.62,2.27-0.32,2.96,0.68c0.53,0.78,0.83,1.62,0.81,2.58C201.37,10.31,201.39,11.89,201.39,13.45z"/>
	<path class="st0" d="M305.6,45.91c0.83-0.06,1.56-0.03,2.25-0.19c1.11-0.24,2.22-0.54,3.29-0.92c1.49-0.53,2.9-0.44,4.3,0.24
		c1.35,0.66,1.8,1.61,1.21,2.99c-0.25,0.59-0.72,1.14-1.22,1.56c-1.2,1-2.67,1.28-4.21,1.35c-3.24,0.14-6.47,0.41-9.68,0.92
		c-2.2,0.35-4.46,0.51-6.67,0.09c-0.96-0.18-1.86-0.67-2.78-1.04c-0.1-0.04-0.22-0.22-0.22-0.33c0.02-1.18,0.06-2.36,0.12-3.54
		c0.01-0.25,0.12-0.51,0.22-0.75c0.56-1.42,1.15-1.78,2.64-1.5c1.42,0.27,2.81,0.69,4.23,0.92c0.99,0.16,2.02,0.17,3.02,0.15
		c0.82-0.01,1.09-0.26,1.17-1.08c0.24-2.53,0.91-5.03,0.66-7.61c-0.1-1.06-0.4-1.46-1.47-1.56c-1.29-0.12-2.58-0.13-3.88-0.2
		c-0.11-0.01-0.23-0.01-0.34-0.01c-1.46-0.08-1.87-0.69-1.35-2.07c0.52-1.39,1.54-2.25,3.01-2.5c1.01-0.17,2.02-0.14,2.97,0.35
		c0.28,0.15,0.59,0.24,0.87,0.4c1.14,0.66,2.33,0.79,3.63,0.53c1.44-0.29,2.86,1.4,2.35,2.78c-1.26,3.43-2.57,6.84-3.86,10.26
		C305.8,45.35,305.74,45.54,305.6,45.91z"/>
	<path class="st0" d="M169.88,21.01c0-2.25-0.01-4.5,0-6.75c0.01-1.8,0.55-3.41,1.78-4.73c1.28-1.37,1.64-1.38,2.95-0.02
		c0.73,0.76,1.27,1.72,1.85,2.61c0.38,0.59,0.29,1.28,0.11,1.91c-0.19,0.64-0.5,1.25-0.69,1.9c-0.2,0.71-0.44,1.44-0.46,2.17
		c-0.06,2.21,0,4.43-0.04,6.64c-0.01,0.82-0.13,1.64-0.23,2.46c-0.04,0.29-0.12,0.61-0.28,0.85c-0.7,1.07-1.01,2.27-1.12,3.5
		c-0.24,2.82-1.19,5.44-2.19,8.05c-0.85,2.22-1.7,4.44-2.6,6.64c-0.74,1.8-1.22,1.89-2.75,0.69c-1.66-1.31-2.13-3.64-0.98-5.59
		c1.96-3.32,3.04-6.97,3.88-10.67c0.72-3.17,0.83-6.43,0.9-9.68C169.97,21.01,169.93,21.01,169.88,21.01z"/>
	<path class="st0" d="M315.55,15.6c0.29-0.24,0.53-0.45,0.77-0.64c0.85-0.66,0.98-1.65,0.35-2.55c-0.96-1.38-2.3-2.16-3.94-2.33
		c-1.38-0.14-2.77-0.13-4.16-0.16c-0.19,0-0.42,0.14-0.58,0.28c-0.74,0.61-1.46,1.24-2.19,1.86c-0.92,0.79-2.04,1.13-3.21,1.2
		c-0.42,0.03-0.93-0.25-1.29-0.53c-0.49-0.37-0.88-0.87-1.32-1.3c-1.4-1.34-3.85-1.07-4.94,0.55c-0.81,1.22-1.29,2.58-1.59,4
		c-0.09,0.44-0.3,0.67-0.71,0.83c-1.1,0.42-2.19,0.87-3.28,1.34c-0.35,0.15-0.59,0.11-0.85-0.15c-0.35-0.34-0.92-0.59-1.04-0.98
		c-0.12-0.38,0.26-0.89,0.35-1.36c0.39-2.12,0.74-4.24,1.13-6.35c0.04-0.23,0.18-0.52,0.37-0.64c0.71-0.48,1.46-0.73,2.31-0.28
		c1.55,0.82,3.17,1.29,4.97,1.15c1.09-0.09,1.88-0.45,2.35-1.5c0.28-0.63,0.65-1.23,1.06-1.79c0.91-1.26,2.23-1.59,3.62-0.91
		c0.55,0.27,1.06,0.64,1.54,1.02c0.62,0.5,1.29,0.78,2.1,0.8c2.91,0.09,5.81,0.22,8.72,0.32c3.9,0.13,7.1,2.63,8.02,6.24
		c0.16,0.62,0.06,1.15-0.32,1.64c-1.04,1.36-2.49,1.72-4.1,1.67c-1.32-0.05-2.53-0.48-3.69-1.09
		C315.86,15.88,315.74,15.75,315.55,15.6z"/>
	<path class="st0" d="M276.22,73.07c0-5.24,0-10.37,0-15.56c1.24,0,2.52,0.1,3.78-0.03c1.24-0.12,1.87,0.33,2.45,1.42
		c1.34,2.52,2.84,4.94,4.28,7.4c0.13,0.22,0.3,0.41,0.55,0.6c0.26-3.12,0-6.23-0.04-9.36c1.39,0,2.74,0,4.15,0
		c0,5.15,0,10.28,0,15.52c-0.42,0-0.86-0.01-1.31,0c-1.18,0.02-2.36,0.06-3.55,0.05c-0.2,0-0.49-0.17-0.6-0.34
		c-1.63-2.61-3.23-5.23-4.85-7.85c-0.17-0.28-0.41-0.52-0.69-0.75c-0.37,2.98-0.1,5.92,0.01,8.9
		C279.02,73.07,277.69,73.07,276.22,73.07z"/>
	<path class="st0" d="M201.72,66.88c-0.09-3.03-0.18-6.05-0.26-9.14c1.32,0,2.68,0,4.17,0c0,5.1,0,10.21,0,15.39
		c-0.22,0-0.56,0-0.89,0c-1.33,0-2.66-0.01-4,0.01c-0.31,0-0.49-0.08-0.66-0.37c-1.63-2.71-3.29-5.41-4.95-8.11
		c-0.12-0.2-0.31-0.35-0.56-0.5c-0.4,2.99,0,5.96-0.01,8.91c-1.36,0-2.68,0-4.1,0c0-5.14,0-10.21,0-15.35
		c0.13-0.01,0.31-0.02,0.49-0.02c1.41,0.01,2.81,0.05,4.22,0.03c0.47-0.01,0.73,0.14,0.97,0.55c1.52,2.61,3.06,5.2,4.61,7.79
		c0.19,0.33,0.46,0.61,0.69,0.91C201.53,66.95,201.63,66.91,201.72,66.88z"/>
	<path class="st0" d="M141.71,73.1c-1.56,0-3.06,0-4.58,0c0-5.1,0-10.18,0-15.3c1.57,0,3.12,0,4.75,0c-0.07,1.85-0.13,3.72-0.2,5.63
		c2.01,0,3.98,0,6,0c0-1.87,0-3.73,0-5.64c1.53,0,3.03,0,4.57,0c0,5.08,0,10.17,0,15.3c-1.54,0-3.07,0-4.7,0
		c0.06-2.06,0.13-4.13,0.2-6.23c-2.02,0-3.99,0-6.02,0C141.71,68.94,141.71,71.01,141.71,73.1z"/>
	<path class="st0" d="M244.22,73.1c-1.43,0-2.93,0-4.46,0c-0.06-5.18-0.11-10.35-0.17-15.61c0.1,0,0.27,0,0.45,0
		c2.83,0.04,5.67,0.12,8.5,0.11c2.63-0.01,4.02,2.26,4.23,3.97c0.2,1.62-0.28,2.92-1.58,3.97c-1.37,1.1-1.34,1.14-0.49,2.7
		c0.75,1.37,1.49,2.73,2.23,4.1c0.11,0.19,0.2,0.4,0.33,0.67c-0.27,0.03-0.48,0.08-0.69,0.08c-1.28,0.01-2.55,0.03-3.83,0.02
		c-0.16,0-0.41-0.13-0.47-0.26c-1.08-2.59-2.14-5.2-3.2-7.8c-0.03-0.07-0.03-0.14-0.07-0.31c0.3-0.05,0.58-0.11,0.86-0.15
		c0.46-0.08,0.94-0.1,1.37-0.25c0.8-0.28,1.26-1.06,1.19-1.85c-0.05-0.53-0.31-0.91-0.81-1.12c-0.73-0.31-2.85-0.47-3.73-0.26
		C244,65.09,244.11,69.08,244.22,73.1z"/>
	<path class="st0" d="M159.46,57.72c0,1.36-0.02,2.67,0,3.98c0.03,1.91,0.05,3.83,0.14,5.74c0.06,1.3,1.03,2.14,2.39,2.23
		c1.44,0.09,2.4-0.55,2.62-1.89c0.18-1.14,0.26-2.31,0.29-3.47c0.05-2.03,0.04-4.05,0.02-6.08c0-0.43,0.13-0.55,0.54-0.54
		c1.35,0.02,2.7,0.01,4.14,0.01c0,0.26,0,0.48,0,0.69c-0.03,3.12-0.11,6.23-0.08,9.35c0.03,2.74-0.85,4.02-3.77,4.86
		c-2.57,0.74-5.16,0.62-7.7-0.24c-1.37-0.47-2.44-1.32-2.97-2.71c-0.1-0.26-0.19-0.53-0.19-0.8c0-3.49,0.02-6.98,0.01-10.47
		c0-0.49,0.12-0.66,0.62-0.65C156.8,57.74,158.05,57.72,159.46,57.72z"/>
	<path class="st0" d="M230.85,72.95c-1.6,0-3.12,0.01-4.64-0.02c-0.14,0-0.35-0.24-0.41-0.41c-0.39-1.15-0.76-2.31-1.11-3.48
		c-0.1-0.32-0.25-0.44-0.59-0.44c-1.59,0.02-3.19,0.02-4.78,0c-0.35,0-0.54,0.1-0.66,0.44c-0.41,1.15-0.84,2.28-1.28,3.42
		c-0.06,0.16-0.24,0.4-0.37,0.41c-1.55,0.03-3.1,0.02-4.75,0.02c0.1-0.26,0.16-0.45,0.24-0.63c2.11-4.7,4.23-9.39,6.33-14.1
		c0.16-0.36,0.34-0.5,0.75-0.49c1.56,0.04,3.11,0.05,4.67,0.05c0.3,0,0.47,0.07,0.59,0.37c1.96,4.82,3.93,9.64,5.9,14.46
		C230.77,72.65,230.79,72.74,230.85,72.95z M222.07,61.39c-0.07-0.01-0.14-0.01-0.21-0.02c-0.76,1.23-1.17,2.62-1.75,4.02
		c1,0,1.91,0,2.82,0c0.29,0,0.4-0.15,0.3-0.44c-0.18-0.55-0.34-1.11-0.52-1.66C222.5,62.65,222.29,62.02,222.07,61.39z"/>
	<path class="st0" d="M189.09,73.03c-0.46,0.03-0.84,0.08-1.23,0.08c-1.05-0.01-2.1-0.06-3.15-0.05c-0.38,0-0.52-0.15-0.62-0.48
		c-0.37-1.14-0.78-2.27-1.14-3.41c-0.12-0.36-0.29-0.5-0.68-0.49c-1.54,0.02-3.08,0.02-4.62,0c-0.39-0.01-0.56,0.13-0.69,0.48
		c-0.42,1.16-0.87,2.32-1.32,3.47c-0.06,0.16-0.24,0.39-0.37,0.4c-0.99,0.05-1.99,0.07-2.98,0.08c-0.56,0.01-1.12,0-1.78,0
		c0.1-0.27,0.14-0.42,0.2-0.56c2.17-4.8,4.34-9.6,6.5-14.4c0.15-0.34,0.33-0.48,0.71-0.47c1.46,0.04,2.93,0.04,4.39,0.05
		c0.41,0,0.65,0.16,0.8,0.55c1.9,4.69,3.82,9.37,5.73,14.05C188.94,72.52,188.99,72.74,189.09,73.03z M181.68,65.49
		c-0.44-1.28-0.82-2.42-1.23-3.56c-0.04-0.12-0.2-0.27-0.3-0.27c-0.1,0-0.24,0.16-0.29,0.28c-0.3,0.68-0.59,1.37-0.87,2.06
		c-0.19,0.46-0.35,0.93-0.55,1.48C179.53,65.49,180.52,65.49,181.68,65.49z"/>
	<path class="st0" d="M251.94,12.98c-0.26-0.36-0.48-0.63-0.67-0.92c-0.48-0.71-1.04-1.39-1.42-2.15c-0.56-1.11-0.59-2.28,0.21-3.29
		c0.81-1.03,1.91-1.46,3.24-1.28c1.52,0.21,2.82,0.88,3.89,1.98c0.2,0.21,0.38,0.57,0.35,0.83c-0.08,0.73-0.26,1.46-0.44,2.18
		c-0.22,0.87-0.51,1.71-0.72,2.58c-0.11,0.46,0.11,0.68,0.62,0.66c2.06-0.09,4.13-0.16,6.19-0.23c1.14-0.04,3.07,1.18,3.51,2.22
		c0.08,0.19,0.13,0.46,0.06,0.65c-0.16,0.45-0.35,0.91-0.62,1.3c-0.41,0.58-0.91,0.81-1.72,0.62c-2.13-0.48-4.29-0.92-6.46-1.17
		c-2.85-0.33-5.57,0.55-8.29,1.27c-0.28,0.08-0.6,0.18-0.87,0.12c-0.99-0.21-1.99-0.4-2.93-0.76c-1.43-0.54-1.87-2.5-0.92-3.69
		c0.36-0.46,0.86-0.55,1.41-0.58c1.56-0.07,3.11-0.14,4.67-0.22C251.29,13.1,251.56,13.04,251.94,12.98z"/>
	<path class="st0" d="M294.32,73.09c0-5.19,0-10.36,0-15.55c3.87,0,7.84,0,11.84,0c0,1.05,0,2.07,0,3.12
		c-2.41,0.05-4.79-0.33-7.14,0.09c0,0.99,0,1.94,0,3c2.04,0,4.01,0,6.02,0c0,1.12,0,2.13,0,3.23c-2.02,0-4.03,0-6.06,0
		c0,1.03,0,1.96,0,2.94c2.39,0,4.76,0,7.18,0c0,1.04,0,2.08,0,3.17C302.25,73.09,298.35,73.09,294.32,73.09z"/>
	<path class="st0" d="M134.12,61.43c-1.41,0-2.72,0.05-4.03-0.01c-2.71-0.13-3.99,2.17-4.03,4.04c-0.04,2.22,1.55,4.02,3.83,4.21
		c1.1,0.09,2.21,0.08,3.32,0.11c0.87,0.02,1.05,0.2,1.06,1.07c0.01,0.75,0,1.49,0,2.29c-0.37,0-0.68,0.02-1,0
		c-2-0.14-4.03-0.12-5.99-0.47c-3.58-0.64-5.68-3.42-5.88-7.03c-0.27-4.82,3.61-7.56,7.12-7.79c1.55-0.1,3.11-0.08,4.67-0.12
		c0.51-0.01,0.74,0.17,0.75,0.72C133.96,59.38,134.05,60.31,134.12,61.43z"/>
	<path class="st0" d="M319.26,61.45c-1.05-0.24-1.95-0.53-2.87-0.62c-0.62-0.06-1.31,0.05-1.9,0.26c-0.7,0.25-0.83,0.91-0.32,1.45
		c0.58,0.61,1.23,1.15,1.87,1.7c0.64,0.55,1.32,1.06,1.94,1.63c1.21,1.11,1.8,2.47,1.31,4.1c-0.5,1.64-1.75,2.53-3.35,2.93
		c-1.51,0.37-3.02,0.14-4.53-0.04c-0.52-0.06-1.04-0.16-1.55-0.24c-0.46-0.07-0.69-0.36-0.69-0.81c-0.01-0.96,0-1.91,0-2.97
		c0.37,0.13,0.67,0.24,0.98,0.35c1.09,0.38,2.19,0.67,3.36,0.5c0.09-0.01,0.19-0.02,0.28-0.04c1.15-0.29,1.38-0.9,0.56-1.74
		c-1.08-1.1-2.25-2.09-3.37-3.15c-0.68-0.64-1.37-1.3-1.61-2.26c-0.6-2.47,0.92-4.55,3.57-4.87c2.03-0.25,4.05,0.02,6.06,0.23
		c0.11,0.01,0.28,0.2,0.28,0.31C319.27,59.24,319.26,60.3,319.26,61.45z"/>
	<path class="st0" d="M111.97,58.12c0,1.24,0,2.36,0,3.45c-1.08-0.17-2.13-0.39-3.18-0.49c-0.51-0.05-1.06,0.03-1.55,0.18
		c-0.7,0.21-0.88,0.81-0.4,1.35c0.54,0.61,1.18,1.15,1.8,1.69c0.8,0.71,1.69,1.32,2.42,2.09c2.07,2.16,1.07,5.53-1.84,6.29
		c-1.49,0.39-2.99,0.43-4.52,0.2c-0.92-0.14-1.85-0.21-2.78-0.31c0-1.21,0-2.37,0-3.54c0.94,0.24,1.83,0.52,2.75,0.66
		c0.6,0.09,1.24,0.06,1.84-0.05c1.05-0.19,1.3-0.94,0.56-1.69c-0.82-0.82-1.73-1.55-2.59-2.33c-0.57-0.52-1.17-1.01-1.65-1.6
		c-1.61-1.94-1.05-4.48,1.18-5.64c0.93-0.48,1.93-0.66,2.94-0.63C108.61,57.83,110.27,58,111.97,58.12z"/>
	<path class="st0" d="M266.95,73c-0.21,0.02-0.35,0.04-0.5,0.04c-2.98-0.01-5.97-0.01-8.95-0.02c-0.36,0-0.71-0.04-1.06-0.08
		c-0.69-0.09-1.04-0.46-1.07-1.15c-0.04-1.16-0.09-2.33-0.1-3.49c-0.04-3.4-0.06-6.79-0.08-10.19c0-0.18,0-0.36,0-0.57
		c1.58,0,3.09,0,4.68,0c0,0.23,0,0.45,0,0.67c0.03,3.49,0.06,6.98,0.1,10.47c0.01,0.82,0.06,0.86,0.87,0.88
		c1.82,0.03,3.64,0.04,5.46,0.06c0.22,0,0.44,0,0.65,0C266.95,70.78,266.95,71.88,266.95,73z"/>
	<path class="st0" d="M189.9,17.76c0.04,2.45-0.55,4.79-1.18,7.13c-0.54,2.03-0.9,4.09-1.08,6.19c-0.04,0.53-0.25,1.05-0.45,1.55
		c-0.26,0.66-0.6,1.29-0.9,1.93c-0.35,0.73-0.35,0.73-1.38,0.63c-0.58-0.05-0.97-0.38-1.06-0.92c-0.12-0.79-0.15-1.6-0.2-2.41
		c-0.1-1.68-0.18-3.37-0.26-5.05c-0.01-0.2-0.02-0.45,0.09-0.59c0.78-1.07,0.91-2.33,1.03-3.57c0.19-2.03,0.31-4.07,0.46-6.11
		c0.09-1.19,0.57-2.15,1.4-3.03c0.74-0.78,2.54-0.62,2.94,0.52c0.3,0.83,0.41,1.74,0.57,2.62C189.95,17,189.9,17.38,189.9,17.76z"/>
	<path class="st0" d="M268.93,57.52c1.55,0,3.03,0,4.57,0c0,5.2,0,10.38,0,15.58c-1.52,0-3.03,0-4.57,0
		C268.93,67.91,268.93,62.74,268.93,57.52z"/>
	<path class="st0" d="M119.25,73.02c-1.55,0-3.05,0-4.59,0c0-5.07,0-10.12,0-15.22c1.54,0,3.04,0,4.59,0
		C119.25,62.86,119.25,67.91,119.25,73.02z"/>
	<path class="st0" d="M236.74,73.1c-1.56,0-3.05,0-4.58,0c0-5.13,0-10.22,0-15.37c1.54,0,3.04,0,4.58,0
		C236.74,62.85,236.74,67.96,236.74,73.1z"/>
	<path class="st0" d="M311.13,17.77c1.36,0.57,2.71,1.03,3.96,1.68c1.34,0.69,2.31,3.08,1.97,4.56c-0.07,0.3-0.19,0.63-0.38,0.86
		c-1,1.16-2.08,2.19-3.78,2.09c-0.07,0-0.15-0.01-0.22,0.01c-1.24,0.26-1.91-0.41-2.44-1.41c-0.49-0.93-0.71-1.89-0.44-2.93
		c0.35-1.36,0.69-2.72,1.05-4.08C310.91,18.32,311.01,18.1,311.13,17.77z"/>
	<path class="st0" d="M298.2,17.4c1.63-0.05,2.8,0.87,3.99,1.71c0.14,0.1,0.28,0.32,0.26,0.47c-0.09,0.77-0.19,1.55-0.37,2.31
		c-0.05,0.2-0.39,0.41-0.63,0.48c-1.94,0.51-3.51,1.65-5.02,2.9c-0.36,0.3-0.7,0.74-1.21,0.53c-0.52-0.22-0.28-0.76-0.26-1.16
		c0.1-2.13,0.33-4.23,1.43-6.13C296.98,17.49,297.09,17.39,298.2,17.4z"/>
	<path class="st0" d="M15.26,16.18c1.24-0.15,2.49-0.28,3.72-0.47c2.46-0.37,4.35,0.67,5.94,2.4c1.68,1.82,3.32,3.68,4.97,5.52
		c2.54,2.84,5.55,5.03,9.04,6.56c0.82,0.36,0.85,0.36,1.33-0.41c2.48-3.99,5.82-6.91,10.44-8.11c1.45-0.37,3-0.45,4.51-0.54
		c2.72-0.17,5.38-0.49,7.82-1.82c0.92-0.5,1.8-1.09,2.69-1.63c0.22-0.13,0.44-0.26,0.73-0.44c0.1,1.57-0.08,3-0.95,4.21
		c-0.54,0.74-1.31,1.32-2,1.95c-0.29,0.27-0.62,0.24-0.98,0.04c-0.96-0.54-1.99-0.82-3.08-1.01c-3.16-0.56-5.68,0.81-7.92,2.71
		c-1.8,1.52-3.36,3.31-5.04,4.98c-0.74,0.74-1.49,1.48-2.25,2.21c-0.52,0.5-0.52,0.77,0.15,1.07c0.77,0.34,1.58,0.57,2.36,0.89
		c0.28,0.11,0.52,0.32,0.78,0.49c-0.25,0.2-0.47,0.45-0.75,0.6c-0.16,0.08-0.46,0.08-0.61-0.01c-0.85-0.55-1.73-0.49-2.59-0.12
		c-3.02,1.32-5.92,0.96-8.76-0.53c-0.37-0.19-0.77-0.34-1.27-0.56c1.63-0.54,2.92-1.64,4.67-1.3c0.01-0.07,0.03-0.13,0.04-0.2
		c-0.12-0.22-0.2-0.46-0.35-0.64c-0.63-0.8-1.4-1.39-2.4-1.68c-2.45-0.7-4.89-1.42-7.33-2.14c-2.92-0.86-5.15-2.6-6.72-5.21
		c-0.62-1.03-1.32-2.01-1.98-3.01c-0.99-1.51-2.24-2.71-3.91-3.44c-0.1-0.04-0.19-0.11-0.29-0.16
		C15.27,16.3,15.27,16.24,15.26,16.18z"/>
	<path class="st0" d="M233.79,23.3c0.1-0.85,0.17-1.72,0.32-2.56c0.08-0.48,0.34-0.55,0.65-0.22c0.86,0.93,2,1.37,3.14,1.81
		c0.38,0.14,0.5,0.3,0.39,0.69c-0.2,0.76-0.35,1.53-0.56,2.28c-0.11,0.41-0.42,0.65-0.87,0.67c-0.22,0.01-0.45,0.07-0.67,0.06
		c-1.65-0.09-2.46-0.54-2.33-2.27c0.01-0.15,0-0.3,0-0.45C233.84,23.31,233.82,23.3,233.79,23.3z"/>
</g>
</svg>
