<?xml version="1.0" encoding="utf-8"?>
<!-- Generator: Adobe Illustrator 25.4.1, SVG Export Plug-In . SVG Version: 6.00 Build 0)  -->
<svg version="1.1" id="Layer_1" xmlns="http://www.w3.org/2000/svg" xmlns:xlink="http://www.w3.org/1999/xlink" x="0px" y="0px"
	 viewBox="0 0 95.9 80" style="enable-background:new 0 0 95.9 80;" xml:space="preserve">
<style type="text/css">
	.st0{fill:#5BB95E;}
	.st1{fill:#DB372D;}
</style>
<g>
	<path class="st0" d="M0,80h74.7L95.9,0L76.1,2.5l-52,63.2C24.1,65.7,13.3,77.4,0,80z"/>
	<circle class="st1" cx="50" cy="74.2" r="3.5"/>
	<path class="st1" d="M40.1,74.2c0,0-7.2,0.9-9.4,0.9s-2.3-0.8-2-1.6s1.5-1,3.1-0.9C33.3,72.7,40.1,74.2,40.1,74.2z"/>
	<path class="st1" d="M40.9,71c0,0-11.7-0.6-11.3-3.3C30,65.2,40.9,71,40.9,71z"/>
	<path class="st1" d="M42,68.6c0,0-11-4.2-9.8-6.6C33.4,59.6,42,68.6,42,68.6z"/>
	<path class="st1" d="M43.7,66.5c0,0-9.5-6.9-7.7-8.9C37.8,55.6,43.7,66.5,43.7,66.5z"/>
	<path class="st1" d="M45.9,64.6c0,0-7.5-9.1-5.2-10.5C42.9,52.6,45.9,64.6,45.9,64.6z"/>
	<path class="st1" d="M48.4,63.8c0,0-4.3-10.9-1.8-11.6C49.2,51.4,48.4,63.8,48.4,63.8z"/>
	<path class="st1" d="M51.8,64.2c0,0-0.8-11.7,1.9-11.6C56.3,52.7,51.8,64.2,51.8,64.2z"/>
	<path class="st1" d="M54.7,65.2c0,0,2.6-11.5,5.1-10.6C62.3,55.4,54.7,65.2,54.7,65.2z"/>
	<path class="st1" d="M56.6,66.9c0,0,5.4-10.4,7.7-8.9C66.5,59.4,56.6,66.9,56.6,66.9z"/>
	<path class="st1" d="M58.4,69c0,0,8.2-8.4,9.9-6.3C70,64.7,58.4,69,58.4,69z"/>
	<path class="st1" d="M59.8,71.5c0,0,10.3-5.7,11.3-3.2C72.1,70.7,59.8,71.5,59.8,71.5z"/>
	<path class="st1" d="M60.1,74.6c0,0,11.4-2.9,11.8-0.3C72.2,77,60.1,74.6,60.1,74.6z"/>
</g>
</svg>
