<?xml version="1.0" encoding="utf-8"?>
<!-- Generator: Adobe Illustrator 25.4.1, SVG Export Plug-In . SVG Version: 6.00 Build 0)  -->
<svg version="1.1" id="Layer_1" xmlns="http://www.w3.org/2000/svg" xmlns:xlink="http://www.w3.org/1999/xlink" x="0px" y="0px"
	 viewBox="0 0 113 80" style="enable-background:new 0 0 113 80;" xml:space="preserve">
<style type="text/css">
	.st0{fill:#5BB95E;}
	.st1{fill:#DB372D;}
	.st2{fill:#2A200D;}
</style>
<g>
	<path class="st0" d="M62.1,42.5h39.7L113,0l-10.5,1.3L74.9,34.9C74.9,34.9,69.2,41.1,62.1,42.5z"/>
	<circle class="st1" cx="88.7" cy="39.4" r="1.8"/>
	<path class="st1" d="M83.4,39.4c0,0-3.8,0.5-5,0.5c-1.2,0-1.2-0.4-1.1-0.8c0.2-0.4,0.8-0.5,1.6-0.5S83.4,39.4,83.4,39.4z"/>
	<path class="st1" d="M83.8,37.7c0,0-6.2-0.3-6-1.7C78.1,34.6,83.8,37.7,83.8,37.7z"/>
	<path class="st1" d="M84.4,36.4c0,0-5.8-2.2-5.2-3.5C79.9,31.6,84.4,36.4,84.4,36.4z"/>
	<path class="st1" d="M85.3,35.3c0,0-5-3.7-4.1-4.7C82.2,29.5,85.3,35.3,85.3,35.3z"/>
	<path class="st1" d="M86.5,34.3c0,0-4-4.8-2.8-5.6C84.9,27.9,86.5,34.3,86.5,34.3z"/>
	<path class="st1" d="M87.8,33.9c0,0-2.3-5.8-0.9-6.2C88.2,27.3,87.8,33.9,87.8,33.9z"/>
	<path class="st1" d="M89.6,34.1c0,0-0.4-6.2,1-6.2C92,28,89.6,34.1,89.6,34.1z"/>
	<path class="st1" d="M91.1,34.6c0,0,1.4-6.1,2.7-5.6C95.2,29.4,91.1,34.6,91.1,34.6z"/>
	<path class="st1" d="M92.2,35.5c0,0,2.9-5.5,4.1-4.7C97.4,31.5,92.2,35.5,92.2,35.5z"/>
	<path class="st1" d="M93.1,36.6c0,0,4.4-4.4,5.3-3.4C99.3,34.4,93.1,36.6,93.1,36.6z"/>
	<path class="st1" d="M93.9,38c0,0,5.5-3,6-1.7C100.4,37.6,93.9,38,93.9,38z"/>
	<path class="st1" d="M94,39.6c0,0,6-1.5,6.3-0.1C100.5,40.9,94,39.6,94,39.6z"/>
	<path class="st2" d="M90.8,56.9c-0.6-0.1-0.6-0.8-0.6-0.8V47c0,0,0.1-2.2,0.1-2.4c0-0.3-0.2-0.2-0.2-0.2L85,45.7v0.6
		c0,0,0,0,1.1-0.1c0.6,0,0.8,0.4,0.8,0.7v9.2c0,0.7-0.6,0.7-0.8,0.8h-1.4v1.2h8v-1.2H90.8z"/>
	<path class="st2" d="M39.3,56.9c-0.2,0-0.9-0.1-0.9-1.2v-7.3c0,0-0.1-3.3-3.8-3.3c-3.8,0-5.1,2.4-5.2,3.5c0,0,0.2,0.2,0.4,0.1
		c0.2-0.1,1.6-1.7,3.1-1.7c1.5,0,2.4,1,2.4,2v1.5c0,0,0,0.2-0.3,0.3c-0.3,0-7.8,0.1-7.8,4.2c0,4.2,4.3,3.4,5.8,2.3
		c1.1-0.7,2-1.4,2.3-1.7v1.3v1.2h3.2H40v-1.2H39.3z M32,56.2c-1.8,0-2-1.6-2-2.2c0-0.6,0.7-1.7,2.2-2.2c1.5-0.5,3-0.6,3-0.2v3.3
		C35.2,54.8,33.8,56.2,32,56.2z"/>
	<path class="st2" d="M13.1,52.7L6.8,39.5H0v1.2h2c0,0,1.1,0.5,1.1,1.8v13.2C3,56.5,2,56.9,2,56.9l0.1,0H0v1.2h6.8v-1.2H5.4
		c-0.9,0-1-0.8-1-0.8V43.5l7.4,14.6h0.8l7-15.3V56c0,0.8-1.2,0.8-1.2,0.8h-1v1.2h8v-1.2h-1.2c0,0-0.1,0-0.2,0c-0.9,0-0.9-1-0.9-1V42
		c0-1,0.6-1.3,1-1.3h0.5h0.2h0.8v-1.2h-5.9L13.1,52.7z"/>
	<path class="st2" d="M46.1,56V38.9l-5.3,0.8v0.7c1.4-0.4,1.8,0.2,1.9,0.7v14.8c0,0.9-0.7,1-0.7,1h-1.5v1.2h8v-1.2h-1.6
		C46.1,56.9,46.1,56,46.1,56z"/>
	<path class="st2" d="M61.8,56.9c-0.2,0-0.9-0.1-0.9-1.2v-7.3c0,0-0.1-3.3-3.8-3.3c-3.8,0-5.1,2.4-5.2,3.5c0,0,0.2,0.2,0.4,0.1
		c0.2-0.1,1.6-1.7,3.1-1.7c1.5,0,2.4,1,2.4,2v1.5c0,0,0,0.2-0.3,0.3c-0.3,0-7.8,0.1-7.8,4.2c0,4.2,4.3,3.4,5.8,2.3
		c1.1-0.7,2-1.4,2.4-1.7v1.3v1.2h3.2h1.6v-1.2H61.8z M54.5,56.2c-1.8,0-2-1.6-2-2.2c0-0.6,0.7-1.7,2.2-2.2c1.5-0.5,3-0.6,3-0.2v3.3
		C57.7,54.8,56.3,56.2,54.5,56.2z"/>
	<path class="st2" d="M78.5,46.6h1.6l0,0c0.1,0,0.4,0.1,0.3,0.6c-0.2,0.8-2,6.5-2,6.5l-3.9-8.6h-1.3l-4,8.7l-2-6.9
		c0,0-0.2-0.3,0.4-0.3h1.3v-0.9h-7v0.9h0.3c0.5,0,1.5,0.2,1.8,1.5c0.4,1.6,3,10,3,10h1.6l4.1-8.5l3.8,8.5h2.1l3.7-10.9
		c0,0,0.2-0.6,1-0.6h0.8v-0.9h-5.6V46.6z"/>
	<g>
		<path class="st1" d="M45.1,79.1c-0.3,0-0.8-0.2-0.8-1.1V61.7h0v-0.9c0,0,0.1-0.5-0.4-0.3c-0.5,0.2-4.1,1.7-4.1,1.7l0.2,0.3
			c0,0,1.9-0.8,1.9,0.8c0,0,0,0,0,0.1v14.8c0,0,0,0.9-1,0.9h-0.7v0.6h1.8h2.4H46v-0.6H45.1z"/>
		<path class="st1" d="M20,79.1c-0.6-0.1-1.8-0.4-2.5-2.3C16.4,74.2,10.7,61,10.7,61h-0.4L3,77.4c0,0-0.8,1.6-2.2,1.6H0.3v0.6h5.9
			v-0.6H5.5c-0.1,0-1.8,0-1.1-2c0.2-0.6,0.8-2,1.5-3.6c1.2,0,5.5,0,7.5,0l1.6,3.6c0,0,0.2,1.9-0.8,1.9H13v0.6h7.6v-0.6H20z
			 M6.3,72.6c1.5-3.4,3.3-7.4,3.3-7.4l3.3,7.4H6.3z"/>
		<path class="st1" d="M26.4,78.3v-9.5h0v-1.5c0,0,0.1-0.5-0.4-0.3c-0.5,0.2-4.1,1.7-4.1,1.7l0.2,0.3c0,0,1.9-0.8,1.9,0.8
			c0,0.1,0,0.1,0,0.2v8.1c0,0.9-0.5,1.1-0.8,1.1h-1v0.6H24h2.4h1.8v-0.6h-0.9C26.5,79.1,26.4,78.3,26.4,78.3z"/>
		<path class="st1" d="M25.2,63.2c0.7,0,1.2-0.5,1.2-1.2c0-0.7-0.5-1.2-1.2-1.2c-0.7,0-1.2,0.5-1.2,1.2
			C24.1,62.6,24.6,63.2,25.2,63.2z"/>
		<path class="st1" d="M52.1,78.3v-8v-1.4v-1.5c0,0,0.1-0.5-0.4-0.3c-0.5,0.2-4.1,1.7-4.1,1.7l0.2,0.3c0,0,1.9-0.8,1.9,0.8v8.3
			c0,0.9-0.5,1.1-0.8,1.1h-1v0.6h1.8h2.4h1.8v-0.6h-0.9C52.2,79.1,52.1,78.3,52.1,78.3z"/>
		<path class="st1" d="M50.9,63.2c0.7,0,1.2-0.5,1.2-1.2c0-0.7-0.5-1.2-1.2-1.2s-1.2,0.5-1.2,1.2C49.7,62.6,50.3,63.2,50.9,63.2z"/>
		<path class="st1" d="M67.4,78.3v-7.7c0,0-0.1-3.5-3.1-3.5c-2.3,0-4,1.7-4.6,2.5v-0.8v-1.5c0,0,0.1-0.5-0.4-0.3
			c-0.5,0.2-4.1,1.7-4.1,1.7l0.2,0.3c0,0,1.9-0.8,1.9,0.8v8.3c0,0.9-0.5,1.1-0.8,1.1h-1v0.6h1.8h2.4h1.8v-0.6h-0.9
			c-0.8,0-0.8-0.8-0.8-0.8v-7.9c0,0,0.9-1.7,3.3-1.7c1.5,0,1.9,1.4,2,2.3v7c0,0.9-0.5,1.1-0.8,1.1h-1v0.6H65h2.4h1.8v-0.6h-0.9
			C67.5,79.1,67.4,78.3,67.4,78.3z"/>
		<path class="st1" d="M38.4,67.4L38.4,67.4C38.4,67.4,38.4,67.4,38.4,67.4C38.4,67.3,38.4,67.3,38.4,67.4c-0.2-0.1-1.5-0.9-3,0.3
			c-0.8,0.6-1.3,1.4-1.6,2.1v-0.9h0v-1.5c0,0,0.1-0.5-0.4-0.3c-0.5,0.2-4.1,1.7-4.1,1.7l0.2,0.3c0,0,1.9-0.8,1.9,0.8
			c0,0.1,0,0.1,0,0.2v8.4c0,0.7-0.6,0.8-0.9,0.9h-1v0.6h1.9h2.4H36v-0.6h-1.3c-0.9,0-0.9-0.7-0.9-0.7v-7.3c0.1-0.1,0.5-1.3,1.1-1.9
			c0.6-0.5,1.3-0.4,1.7,0.1c0,0,0,0,0,0c0.2,0.3,0.6,0.4,1,0.4c0.8,0,1.4-0.6,1.4-1.4C39,68,38.8,67.6,38.4,67.4z"/>
		<path class="st1" d="M76.2,66.9c-3.9,0-5.7,3.7-5.7,6.4c0,2.7,1.6,6.7,5.8,6.7c4.2,0,5.1-4.9,5.1-4.9h-0.5c0,0-0.1,2.8-4.2,2.8
			s-4.2-5.8-4.2-5.8l8.9,0C81.4,69.3,80,66.9,76.2,66.9z M72.6,71.2c0,0,0.3-3.2,2.9-3.2c2.6,0,2.9,2.4,2.9,3.2H72.6z"/>
		<path class="st1" d="M89.2,72.6c-1.8-0.8-3.7-1.7-3.7-3.1c0-1.4,1.2-1.8,2.3-1.8c1.1,0,3.3,1,3.3,3.7h0.5v-4.5h-0.5
			c0,0-0.1,0.8-0.8,0.6c-0.7-0.2-1.7-0.5-2.8-0.5s-3.7,0.8-3.7,3.5c0,0-0.5,1.7,2.3,3.2c2.9,1.5,4.4,2.2,4.4,3.7
			c0,1.5-1.5,1.9-2.2,1.9s-4-0.9-4-3.9h-0.5v4.5h0.5c0,0,0.2-0.8,0.8-0.5c0.7,0.3,1.2,0.6,3.2,0.6c2,0,4.2-1.3,4.2-3.4
			C92.5,74.5,90.9,73.4,89.2,72.6z"/>
	</g>
</g>
</svg>
