<?xml version="1.0" encoding="utf-8"?>
<!-- Generator: Adobe Illustrator 25.4.1, SVG Export Plug-In . SVG Version: 6.00 Build 0)  -->
<svg version="1.1" id="Layer_1" xmlns="http://www.w3.org/2000/svg" xmlns:xlink="http://www.w3.org/1999/xlink" x="0px" y="0px"
	 viewBox="0 0 144.3 80" style="enable-background:new 0 0 144.3 80;" xml:space="preserve">
<style type="text/css">
	.st0{fill:#666666;}
	.st1{fill:#7B9CD1;}
</style>
<path class="st0" d="M77.1,23.8C77.1,23.8,77.1,23.8,77.1,23.8c0,0-4.5,10.6-4.9,19.9c-0.4,8.9-0.4,14.5-2,17.1
	c-0.1,0.1-0.1,0.2-0.2,0.3c-1.8,2.5-3.7,4.9-6,6.8c-7.9,7-18,10.7-28.6,10.7C2,78.8,0,46.6,0,43.6V0h12.9v15.5
	c3.3-3.6,10.7-9.8,23-9.8c17.5,0,29,15.4,29,15.4S58,32.9,57.1,33.4c-6.2-13.4-22.4-13.7-22.4-13.7c-21.2,0-21.8,23.9-21.8,23.9
	s2.6,22.4,22.5,22.4C60.7,65.9,65,40.5,77.1,23.8z"/>
<path class="st1" d="M144.3,42.2v36.6h-12.9l-0.1-8.4c-3.3,3.6-10.7,9.7-22.9,9.7c-17.4,0-29-15.4-29-15.4s7-11.7,7.9-12.2
	c6.2,13.4,22.4,13.7,22.4,13.7c21.2,0,21.3-24.1,21.3-24.1s-2.1-22.2-22-22.2c-23.2,0-27.5,24.8-38.7,41.1c1.6-2.6,1.7-8.3,2-17.1
	c0.4-9.3,4.9-19.9,4.9-19.9s0,0,0,0c1.2-1.6,2.4-3.2,3.8-4.6C88.3,11.4,98.2,7,109,7C142.4,7,144.3,39.1,144.3,42.2z"/>
</svg>
