<?xml version="1.0" encoding="utf-8"?>
<!-- Generator: Adobe Illustrator 25.4.1, SVG Export Plug-In . SVG Version: 6.00 Build 0)  -->
<svg version="1.1" id="Layer_1" xmlns="http://www.w3.org/2000/svg" xmlns:xlink="http://www.w3.org/1999/xlink" x="0px" y="0px"
	 viewBox="0 0 705.7 80" style="enable-background:new 0 0 705.7 80;" xml:space="preserve">
<style type="text/css">
	.st0{fill:#666666;}
	.st1{fill:#2B2A29;}
	.st2{fill:#666769;}
	.st3{fill:#7B9CD1;}
</style>
<g>
	<path class="st0" d="M56,17.3C56,17.3,56,17.3,56,17.3c0,0-3.3,7.7-3.6,14.5c-0.3,6.5-0.3,10.6-1.5,12.5c-0.1,0.1-0.1,0.2-0.2,0.2
		c-1.3,1.8-2.7,3.5-4.3,5c-5.8,5.1-13.1,7.8-20.8,7.8C1.4,57.2,0,33.9,0,31.7V0h9.4v11.3c2.4-2.6,7.8-7.1,16.7-7.1
		c12.7,0,21.1,11.2,21.1,11.2s-5,8.5-5.7,8.9c-4.5-9.8-16.3-10-16.3-10C9.9,14.3,9.4,31.7,9.4,31.7s1.9,16.3,16.4,16.3
		C44.2,47.9,47.3,29.4,56,17.3z"/>
	<path class="st1" d="M601.1,57.9v-0.7c0.1,0,0.5,0,1-0.1c0.5-0.1,1.1-0.3,1.7-0.5c0.6-0.2,1.1-0.6,1.5-1c0.4-0.4,0.7-1,0.7-1.6
		c0-0.4-0.1-1.1-0.4-2.1c-0.3-1-0.6-2.2-1.1-3.6c-0.5-1.4-1-3-1.6-4.7c-0.6-1.7-1.3-3.5-2-5.4h-18.6c-0.7,1.8-1.4,3.5-2,5.2
		c-0.7,1.6-1.3,3.3-2,5c-1,2.6-1.5,4.4-1.5,5.4c0,0.6,0.2,1.1,0.6,1.5c0.4,0.4,0.8,0.7,1.4,1c0.6,0.3,1.2,0.5,1.9,0.6
		c0.7,0.1,1.3,0.2,1.9,0.3v0.7h-14.9v-0.8c1.2-0.1,2.2-0.5,3.1-1c0.9-0.5,1.4-0.9,1.5-1.1c0.3-0.3,0.9-1.1,1.6-2.4
		c0.7-1.2,1.7-3.1,2.7-5.5c1-2.2,2.1-4.8,3.3-7.7c1.2-2.9,2.5-5.8,3.7-8.9c1.9-4.4,3.7-8.9,5.5-13.3c0.9-2.2,1.8-4.5,2.7-6.7
		c0.4-1.1,0.9-2.2,1.3-3.3c0.4-1,0.6-2,1.1-2.9c0,0,0.6,0,0.6,0c0.3,0,1.4,2.9,1.6,3.3c1.2,2.5,2,5,3.2,7.5c1.2,2.6,2.6,5.6,3.6,8.3
		c2.1,5.4,4.4,10.4,6.2,15.8c1.5,4.5,3.2,9,5.2,13.2c0.1,0.2,0.3,0.5,0.6,1c0.3,0.5,0.8,1,1.3,1.5c0.5,0.5,1.2,0.9,2,1.3
		c0.8,0.4,1.7,0.6,2.8,0.6v0.9H601.1z M592,14.5c-0.3,0.6-0.7,1.6-1.2,2.9c-0.5,1.3-1.2,3-2,4.9c-0.8,1.9-1.7,4.1-2.6,6.5
		c-1,2.4-2,5-3.1,7.8h17.4c-0.8-2.1-1.6-4.3-2.4-6.4c-0.8-2.1-1.6-4.2-2.4-6.2c-0.8-2-1.5-3.8-2.1-5.4
		C592.9,16.9,592.4,15.6,592,14.5z"/>
	<path class="st1" d="M627.5,57.9v-0.7c1.2-0.2,2.3-0.5,3.3-0.9c1-0.4,1.9-1.1,2.6-1.9c0.2-0.3,0.4-0.7,0.5-1.2
		c0.1-0.5,0.2-1.1,0.3-1.9c0.1-0.7,0.1-1.5,0.1-2.3c0-0.8,0-1.6,0-2.3c0-0.7,0-1.6,0-2.7c0-1.1,0-2.4,0.1-3.8c0-1.4,0-2.8,0-4.2
		c0-1.5,0-2.9,0-4.2v-14c0-0.9,0-1.7,0-2.6c0-0.9,0-1.7-0.1-2.4c-0.1-0.7-0.2-1.4-0.3-2c-0.1-0.6-0.4-1.1-0.6-1.4
		c-0.7-0.8-1.5-1.4-2.5-1.8c-1-0.4-2.1-0.6-3.3-0.8V6.3h21.4v0.7c-1,0.1-2.1,0.4-3.2,0.8c-1.1,0.4-2,1.1-2.7,2.3
		c-0.4,0.8-0.7,1.8-0.7,3.1c0,1.2-0.1,2.4-0.1,3.5c0,1.2,0,2.4,0,3.5c0,1.2,0,2.4,0,3.5c0,1.2,0,2.4,0,3.7c0,1.2,0,2.6,0,4.1v16.2
		c0,1.4,0,2.7,0.1,4c0,1.3,0.3,2.2,0.6,2.7c0.6,0.8,1.5,1.4,2.7,1.9c1.2,0.4,2.4,0.7,3.4,0.8v0.7H627.5z"/>
	<path class="st1" d="M677.4,31.8c-1-0.1-0.7-0.1-2-0.2c-0.9-0.1-1.4-0.1-1.9-0.1c-0.4,0-1,0-1.6-0.1c0,3.1,0,8,0,10.3
		c0,2.3,0,4.2,0.1,5.8c0,1.5,0.1,2.8,0.1,3.9c0,1.1,0.3,2,0.8,2.7c0.4,0.6,1.1,1.3,2.2,1.9c1.1,0.6,2.6,1,4.6,1.1v0.7h-22.9v-0.7
		c1.2-0.2,2.3-0.5,3.4-0.9c1.1-0.4,2-1,2.6-1.7c0.2-0.3,0.4-0.7,0.6-1.3c0.1-0.6,0.3-1.2,0.3-1.9c0.1-0.7,0.1-1.5,0.2-2.3
		c0-0.8,0.1-1.6,0.1-2.4c0-0.7,0-1.6,0-2.7c0-1.1,0-2.4,0.1-3.8c0-1.4,0-2.8,0-4.2c0-1.5,0-2.9,0-4.2v-14c0-0.9,0-1.7,0-2.6
		c0-0.9-0.1-1.7-0.1-2.5c-0.1-0.8-0.2-1.5-0.4-2.1c-0.2-0.6-0.4-1.1-0.7-1.4c-0.7-0.8-1.5-1.3-2.4-1.5c-0.9-0.3-2-0.5-3.3-0.7V6.3
		c0.4,0,1.4,0,2.9,0c1.6,0,3.5,0,5.5,0c2.1,0,4.1,0,6.2,0c2.1,0,3.7,0,5,0c3.2,0,6,0.1,8.5,0.3c2.5,0.2,4.8,0.8,6.8,1.9
		c2.1,1.1,4.1,2.2,5.4,4.1c1.3,1.9,1.6,2.4,1.6,5.3c0,1.8-0.3,3.4-1,4.8c-0.6,1.4-1.5,2.7-2.6,3.7c-1.1,1.1-2.3,2-3.8,2.8
		c-1.4,0.8-2.9,1.4-4.5,1.9v0.2c0.8,0.4,1.6,1.1,2.4,1.9c0,0,4.2,3.7,4.6,9.7c0.4,6,8.3,14.2,11.4,14.2v0.9c0,0-15.9-0.7-18.7-13.2
		C684.4,33.2,677.4,31.8,677.4,31.8L677.4,31.8z M689.5,12.8c-1.2-1.9-3.3-2.9-5.6-4c-1.1-0.5-2.4-0.9-3.6-1.1
		c-1.3-0.2-2.6-0.4-4-0.4c-1,0-1.8,0-2.4,0.1c-0.6,0-1.1,0.1-1.4,0.1c0,0.3-0.1,0.5-0.1,0.8c0,0.2-0.1,0.5-0.1,0.8
		c0,0.3,0,0.8-0.1,1.4c0,0.6-0.1,1.4-0.1,2.5c0,1.7-0.1,3.6-0.1,5.7c0,2.1,0,1.9,0,3.9c0,2,0,3.7,0,5.2c0,1.4,0,2.3,0,2.7
		c2,0,3.8-0.1,5.5-0.3c1.7-0.2,3.3-0.5,4.9-1c1.5-0.5,2.8-1.1,3.9-1.9c1.1-0.8,2-1.7,2.7-2.8c0.7-1,1.2-2.1,1.5-3.3
		c0.3-1.2,0.5-2.4,0.5-3.7C690.9,15.1,690.7,14.7,689.5,12.8z"/>
	<g>
		<path class="st2" d="M157.7,34.8c-1.2-1.1-2.7-2-4.2-2.6c-1.6-0.6-3.2-1.1-4.8-1.3v-0.3c3.1-0.7,5.6-2,7.5-3.9
			c1.9-1.9,2.9-4.5,2.9-7.6c0-2.9-0.7-5.2-2.2-7.1c-1.5-1.9-3.4-3.2-5.7-4.2c-1.5-0.6-3-1-4.5-1.2c-1.6-0.2-3.2-0.3-4.9-0.3h-22.9
			v0.7c1.2,0.1,2.2,0.3,2.9,0.6c0.7,0.3,1.4,0.8,2,1.5c0.3,0.3,0.5,0.8,0.6,1.4c0.2,0.6,0.3,1.4,0.4,2.2c0.1,0.8,0.2,1.7,0.2,2.5
			c0,0.9,0.1,1.8,0.1,2.6c0,1.4,0,2.7,0,3.8c0,1.1,0,2.2,0,3.2c0,1,0,2.1,0,3.2c0,1.1,0,2.4,0,3.8c0,1.3,0,2.7,0,4.2
			c0,1.4,0,2.8,0,4.2c0,1.4,0,2.6-0.1,3.8c0,1.1,0,2.1,0,2.7c0,0.8,0,1.5-0.1,2.3c0,0.8-0.1,1.5-0.2,2.3c-0.1,0.7-0.2,1.4-0.4,1.9
			c-0.1,0.5-0.3,1-0.5,1.3c-0.6,0.8-1.5,1.4-2.5,1.8c-1,0.4-2.1,0.7-3.2,0.9v0.7h23.4c2,0,4.1-0.1,6.2-0.2c2.1-0.1,4.1-0.5,5.8-1.2
			c1-0.4,2-0.9,3-1.7c1-0.7,1.9-1.6,2.7-2.7c0.8-1.1,1.5-2.3,2-3.7c0.5-1.4,0.7-2.9,0.7-4.7c0-1.9-0.4-3.6-1.1-5.1
			C159.9,37.2,158.9,35.9,157.7,34.8z M132.5,28.7c0-1.3,0-2.8,0-4.6c0-1.8,0-3.7,0-5.7c0-2,0.1-3.8,0.1-5.5c0-0.9,0.1-1.6,0.1-2.1
			c0-0.5,0-1,0.1-1.3c0-0.4,0.1-0.7,0.1-0.9c0-0.2,0.1-0.5,0.1-0.8c0.4-0.1,1-0.3,1.8-0.4c0.8-0.1,1.6-0.1,2.6-0.1
			c3.2,0,5.8,0.5,7.8,1.4c1.7,0.8,3.2,2.1,4.3,4c1.2,1.9,1.7,4,1.7,6.4c0,3.2-1.1,6-3.2,8.2c-2.1,2.2-5.2,3.4-9.3,3.7
			c-0.6,0-1.5,0.1-2.5,0.1c-1,0-2.3,0-3.8,0C132.5,30.8,132.5,30,132.5,28.7z M152.3,50.9c-1,1.7-2.5,3.1-4.4,4.2
			c-1.5,0.8-2.9,1.3-4.5,1.5c-1.5,0.2-3,0.3-4.3,0.3c-1.5,0-2.7-0.2-3.5-0.5c-0.8-0.4-1.4-0.8-1.8-1.3c-0.5-0.8-0.9-1.7-1-2.9
			c-0.1-1.2-0.2-2.7-0.2-4.5c0-0.8,0-1.8,0-2.9c0-1.1,0-2.4,0-3.7c0-1.4,0-2.8,0-4.4c0-1.5,0-3.1,0-4.6h6.6c1.3,0,2.5,0.1,3.4,0.2
			c1,0.1,2,0.3,3,0.7c1.2,0.4,2.3,1,3.4,1.8c1,0.7,1.9,1.6,2.7,2.7c0.7,1,1.3,2.1,1.8,3.4c0.4,1.2,0.6,2.5,0.6,3.9
			C153.9,47,153.3,49.1,152.3,50.9z"/>
		<path class="st2" d="M214,13.5c-2.2-2.4-4.8-4.3-7.9-5.8c-3.1-1.4-6.6-2.1-10.5-2.1c-3.6,0-7,0.6-10.2,1.8c-3.2,1.2-6,3-8.4,5.2
			c-2.4,2.3-4.3,5-5.7,8.3c-1.4,3.3-2.1,7-2.1,11.1c0,3.9,0.7,7.4,2,10.6c1.3,3.2,3.2,6,5.5,8.3c2.3,2.3,5.1,4.1,8.2,5.4
			c3.1,1.3,6.4,1.9,9.9,1.9c3.5,0,6.9-0.6,10-1.9c3.1-1.3,5.9-3.1,8.2-5.5c2.4-2.4,4.2-5.2,5.6-8.5c1.4-3.2,2.1-6.8,2.1-10.6
			c0-3.4-0.6-6.7-1.7-9.9C217.8,18.7,216.1,16,214,13.5z M211.1,40.9c-0.7,3-1.8,5.7-3.2,8.1c-1.4,2.4-3.2,4.4-5.3,5.9
			c-2.1,1.5-4.6,2.3-7.5,2.3c-2.9,0-5.4-0.7-7.6-2.1c-2.2-1.4-4-3.2-5.4-5.5c-1.4-2.3-2.5-4.9-3.3-8c-0.7-3-1.1-6.1-1.1-9.4
			c0-3.1,0.3-6.2,1-9.2c0.7-3,1.7-5.7,3.1-8.1c1.4-2.4,3.2-4.3,5.4-5.8c2.2-1.5,4.7-2.3,7.7-2.3c2.9,0,5.5,0.8,7.6,2.3
			c2.2,1.5,3.9,3.5,5.4,5.9c1.4,2.4,2.5,5.1,3.2,8.1c0.7,3,1.1,5.9,1.1,8.8C212.1,34.9,211.8,37.9,211.1,40.9z"/>
		<path class="st2" d="M266.5,7.1c2.4,0.3,4.1,0.9,5.3,1.8c1.2,0.8,2,1.9,2.5,3.3c0.2,0.5,0.3,1.1,0.4,1.9c0.1,0.8,0.2,1.6,0.2,2.5
			c0,0.9,0.1,1.9,0.1,2.9c0,1,0,2,0,2.9c0,1,0,2,0,2.9c0,0.9,0,1.8,0,2.8c0,0.9,0,1.9,0,2.9c0,1.1,0,2.2,0,3.5c0,1.6-0.1,3.3-0.2,5
			c-0.1,1.7-0.4,3.4-0.7,5c-0.4,1.6-0.9,3.2-1.7,4.6c-0.8,1.4-1.8,2.7-3.1,3.8c-1.3,1.1-2.9,2-4.8,2.6c-1.9,0.6-4.3,0.9-7.1,0.9
			c-2.4,0-4.6-0.4-6.5-1.2c-1.9-0.8-3.5-1.9-4.8-3.4c-1.3-1.5-2.4-3.2-3.1-5.3c-0.7-2.1-1.1-4.4-1.2-6.9c0-1.1,0-2.2,0-3.3
			c0-1,0-2.1,0-3.2c0-1.1,0-2.4,0-3.7c0-1.3,0-2.7,0-4.4c0-1.3,0-2.4,0-3.4c0-1,0-2,0-2.9c0-0.9,0-1.8,0-2.8c0-1,0.1-2.1,0.1-3.3
			c0-1.1,0.3-2,0.7-2.7c0.4-0.7,1-1.3,1.6-1.7c0.6-0.4,1.3-0.7,2.1-0.9c0.8-0.2,1.5-0.3,2.2-0.4V6.3h-21.9v0.7
			c1.3,0.1,2.4,0.4,3.4,0.8c1,0.4,1.8,0.9,2.5,1.8c0.3,0.3,0.5,0.8,0.7,1.4c0.1,0.6,0.3,1.3,0.3,2c0.1,0.7,0.1,1.5,0.1,2.4
			c0,0.9,0,1.7,0,2.6v9.5c0,2.6,0,5,0,7.2c0,2.1,0,3.9,0,5.2c0,0.6,0,1.4,0.1,2.6c0.1,1.2,0.3,2.5,0.7,3.9c0.4,1.4,1.1,2.8,1.9,4.3
			c0.9,1.5,2.1,2.8,3.6,4c1.6,1.2,3.6,2.2,6,2.9c2.4,0.7,5.4,1.1,8.9,1.1c3.6,0,6.6-0.4,9-1.1c2.4-0.7,4.5-1.7,6-3
			c1.6-1.3,2.8-2.7,3.6-4.2c0.9-1.6,1.5-3.1,1.9-4.7c0.4-1.6,0.6-3,0.7-4.4c0.1-1.4,0.1-2.5,0.2-3.4c0.1-3.2,0.2-6.1,0.3-8.6
			c0.1-2.5,0.1-4.8,0.2-6.9c0-1.1,0-2.2,0.1-3.3c0-1.1,0.1-2.2,0.2-3.2c0.1-1,0.2-1.9,0.3-2.7c0.1-0.8,0.3-1.3,0.4-1.6
			c0.6-1.4,1.4-2.4,2.5-3.1c1.1-0.7,2.5-1.1,4.3-1.4V6.3h-18.2V7.1z"/>
		<path class="st2" d="M336.9,6.4c-1,0.2-2.3,0.3-3.9,0.4c-1.8,0-3.4,0-4.9,0c-1.4,0-2.8,0-4.2,0.1c-1.3,0-2.7,0-4.2,0
			c-1.4,0-3,0-4.7,0c-1.8,0-3.4,0-4.8,0c-1.4,0-2.7,0-4.1,0c-1.3,0-2.7,0-4.2,0c-1.4,0-3.1-0.1-4.9-0.1c-1.8,0-3.1-0.1-4-0.3
			c-0.9-0.1-3.3-0.3-4.4-0.6l-0.8,13.6l0.6,0.2c0.3-0.9,0.7-1.7,1.2-2.7c0.5-0.9,1-1.8,1.6-2.5c0.5-0.8,1.1-1.5,1.6-2.2
			c0.5-0.7,0.9-1.2,1.3-1.5c1-1,2.1-1.6,3.3-2c1.2-0.4,2.7-0.6,4.5-0.6c0.9,0,1.7,0,2.4,0c0.7,0,1.3,0,2,0c0.7,0,1.4,0,2.1,0
			c0.8,0,1.6,0,2.7,0v23.7c0,1.3,0,2.7,0,4.1c0,1.4,0,2.8,0,4.2c0,1.3,0,2.6-0.1,3.7c0,1.1,0,2,0,2.7c0,0.8,0,1.6,0,2.4
			c0,0.8-0.1,1.6-0.1,2.3c-0.1,0.7-0.2,1.3-0.3,1.9c-0.1,0.5-0.3,0.9-0.5,1.2c-1.1,1.2-2.2,2-3.4,2.4c-1.1,0.3-2.3,0.6-3.6,0.7v0.7
			h23.3v-0.7c-1.1-0.2-2.2-0.5-3.5-0.9c-1.3-0.4-2.3-1.1-3-2.1c-0.4-0.5-0.6-1.4-0.7-2.7c-0.1-1.3-0.1-2.6-0.1-4V31.6
			c0-1.5,0-3.3,0-5.4c0-2.2,0-4.4,0-6.7c0-2.2,0-4.4,0-6.4c0-2.1,0-3.7,0-4.9c1.1,0,1.9,0,2.7,0c0.8,0,1.5,0,2.1,0c0.7,0,1.3,0,2,0
			c0.7,0,1.5,0,2.4,0c1.8,0,3.3,0.2,4.5,0.5c1.2,0.3,2.3,0.9,3.3,1.9c0.4,0.3,0.8,0.8,1.4,1.5c0.5,0.7,1.1,1.4,1.6,2.3
			c0.5,0.8,1.1,1.7,1.6,2.6c0.5,0.9,1,1.8,1.4,2.7l0.6-0.2l-0.7-14C340.6,6,337.9,6.2,336.9,6.4z"/>
		<path class="st2" d="M364.7,54.6c-0.4-0.5-0.6-1.4-0.6-2.7c0-1.3-0.1-2.6-0.1-4V31.6c0-1.5,0-2.8,0-4.1c0-1.3,0-2.5,0-3.7
			c0-1.2,0-2.4,0-3.5c0-1.2,0-2.4,0-3.5c0-1.1,0.1-2.3,0.1-3.5c0-1.2,0.3-2.3,0.7-3.1c0.6-1.1,1.5-1.9,2.7-2.3
			c1.1-0.4,2.2-0.6,3.2-0.8V6.3h-21.4v0.7c1.2,0.1,2.4,0.4,3.3,0.8c1,0.4,1.8,0.9,2.5,1.8c0.3,0.3,0.5,0.8,0.6,1.4
			c0.1,0.6,0.3,1.3,0.3,2c0.1,0.7,0.1,1.5,0.1,2.4c0,0.9,0,1.7,0,2.6v14c0,1.3,0,2.7,0,4.2c0,1.4,0,2.8,0,4.2c0,1.4,0,2.6-0.1,3.8
			c0,1.1,0,2.1,0,2.7c0,0.8,0,1.5,0,2.3c0,0.8-0.1,1.5-0.1,2.3c-0.1,0.7-0.2,1.3-0.3,1.9c-0.1,0.5-0.3,0.9-0.5,1.2
			c-0.7,0.8-1.6,1.4-2.6,1.9c-1,0.4-2.1,0.7-3.3,0.9v0.7h21.7v-0.7c-1-0.1-2.1-0.4-3.4-0.8C366.2,56,365.3,55.4,364.7,54.6z"/>
		<path class="st2" d="M424.2,49c2-2.3,3.5-4.9,4.7-7.8c1.1-2.9,1.7-6.1,1.7-9.5c0-3.4-0.6-6.7-1.8-9.9c-1.2-3.2-2.9-5.9-5.2-8.3
			c-2.2-2.4-5-4.3-8.2-5.8c-3.2-1.4-6.9-2.1-10.9-2.1c-3.4,0-6.7,0.5-9.9,1.6c-3.1,1.1-6,2.7-8.5,4.8c-6.2,5.3-9.3,12-9.3,20.1
			c0,3.4,0.6,6.5,1.7,9.4c1.1,2.9,2.7,5.4,4.6,7.6c1.9,2.2,4.2,4.1,6.8,5.6c2.6,1.5,5.3,2.6,8.2,3.2c0,0,5.9,1,10.2-0.1
			c0.2,0,0.3-0.1,0.5-0.1c0,0,0,0,0,0c-2.1,1.8-15.4,5.8-20.6,9.2c-5.2,3.4-7,6-7,9.5c0,3.5,2.4,3.1,2.4,3.1c4.6,0,1.7-5.5,5.9-10.3
			c0.3-0.3,1.8-1.5,4.7,0.1c3.3,1.8,12,10.7,21.6,10.7s13.7-10.3,13.7-10.3s-5.4,5.1-11.3,5.1c-5.9,0-9.5-4.1-12.6-6.3
			c-3.1-2.2-6.6-3.7-8.6-3.7c0.4-0.1,0.8-0.3,1.2-0.4c13.6-4,20.1-10.3,20.1-10.3h0C420.5,52.6,422.5,51,424.2,49z M420.8,40.7
			c-0.6,3-1.7,5.8-3.1,8.3c-1.4,2.5-3.2,3.8-5.5,5.4c-2.3,1.6-5,2.4-8.3,2.4c-2.8,0-5.3-0.7-7.5-2.1c-2.2-1.4-4.2-2.5-5.7-4.9
			c-1.6-2.3-2.8-5-3.6-8.1c-0.8-3-1.3-6.2-1.3-9.4c0-3.1,0.3-6.2,1-9.2c0.7-3,1.8-5.7,3.2-8.1c1.5-2.4,3.3-4.3,5.6-5.8
			c2.3-1.5,5-2.3,8.1-2.3c3.1,0,5.7,0.8,8,2.3c2.2,1.5,4.1,3.5,5.6,5.9c1.5,2.4,2.6,5.1,3.4,8.1c0.7,3,1.1,5.9,1.1,8.8
			C421.8,34.7,421.4,37.7,420.8,40.7z"/>
		<path class="st2" d="M473.4,7.1c2.3,0.3,4,0.9,5.2,1.8c1.2,0.8,2,1.9,2.5,3.3c0.2,0.5,0.3,1.1,0.4,1.9c0.1,0.8,0.2,1.6,0.2,2.5
			c0,0.9,0.1,1.9,0.1,2.9c0,1,0,2,0,2.9c0,1,0,2,0,2.9c0,0.9,0,1.8,0,2.8c0,0.9,0,1.9,0,2.9c0,1.1,0,2.2,0,3.5c0,1.6-0.1,3.3-0.2,5
			c-0.1,1.7-0.4,3.4-0.7,5c-0.4,1.6-0.9,3.2-1.6,4.6c-0.7,1.4-1.7,2.7-3,3.8c-1.3,1.1-2.8,2-4.7,2.6c-1.9,0.6-4.2,0.9-6.9,0.9
			c-2.4,0-4.5-0.4-6.4-1.2c-1.9-0.8-3.4-1.9-4.7-3.4c-1.3-1.5-2.3-3.2-3-5.3c-0.7-2.1-1.1-4.4-1.1-6.9c0-1.1,0-2.2,0-3.3
			c0-1,0-2.1,0-3.2c0-1.1,0-2.4,0-3.7c0-1.3,0-2.7,0-4.4c0-1.3,0-2.4,0-3.4c0-1,0-2,0-2.9c0-0.9,0-1.8,0-2.8c0-1,0.1-2.1,0.1-3.3
			c0-1.1,0.3-2,0.7-2.7c0.4-0.7,1-1.3,1.6-1.7c0.6-0.4,1.3-0.7,2.1-0.9c0.8-0.2,1.5-0.3,2.1-0.4V6.3h-21.4v0.7
			c1.2,0.1,2.4,0.4,3.3,0.8c1,0.4,1.8,0.9,2.5,1.8c0.3,0.3,0.5,0.8,0.6,1.4c0.1,0.6,0.3,1.3,0.3,2c0.1,0.7,0.1,1.5,0.1,2.4
			c0,0.9,0,1.7,0,2.6v9.5c0,2.6,0,5,0,7.2c0,2.1,0,3.9,0,5.2c0,0.6,0,1.4,0.1,2.6c0.1,1.2,0.3,2.5,0.7,3.9c0.4,1.4,1,2.8,1.9,4.3
			c0.8,1.5,2,2.8,3.5,4c1.5,1.2,3.5,2.2,5.8,2.9c2.4,0.7,5.3,1.1,8.7,1.1c3.5,0,6.4-0.4,8.8-1.1c2.4-0.7,4.3-1.7,5.9-3
			c1.5-1.3,2.7-2.7,3.5-4.2c0.8-1.6,1.4-3.1,1.8-4.7c0.4-1.6,0.6-3,0.7-4.4c0.1-1.4,0.1-2.5,0.2-3.4c0.1-3.2,0.2-6.1,0.3-8.6
			c0.1-2.5,0.1-4.8,0.2-6.9c0-1.1,0-2.2,0.1-3.3c0-1.1,0.1-2.2,0.2-3.2c0.1-1,0.2-1.9,0.3-2.7c0.1-0.8,0.3-1.3,0.4-1.6
			c0.6-1.4,1.4-2.4,2.4-3.1c1-0.7,2.4-1.1,4.2-1.4V6.3h-17.8V7.1z"/>
		<path class="st2" d="M542.4,44c-1.2,2.1-2.4,3.8-3.5,5.3c-1.1,1.5-2.3,2.7-3.5,3.7c-1.2,1-2.4,1.8-3.7,2.3
			c-1.3,0.5-2.7,0.9-4.2,1.1c-1.4,0.2-2.7,0.3-4,0.4c-1.3,0-2.3,0.1-3.1,0.1c-1.9,0-3.7-0.1-5.3-0.4c-1.6-0.3-2.7-0.8-3.1-1.4
			c-0.4-0.7-0.7-1.7-0.8-3c-0.1-1.4-0.2-2.8-0.3-4.3c0-0.5,0-1.1,0-1.8c0-0.7,0-1.4,0-2.2c0-0.8,0-1.6,0-2.4c0-0.8,0-1.5,0-2.1
			c0-1.4,0-2.7,0-4c0-1.3,0-2.3,0.1-2.9c0.8,0,1.4,0,1.9,0c0.5,0,1,0,1.4,0c0.5,0,1,0,1.4,0c0.5,0,1.1,0.1,1.8,0.1
			c1.4,0.1,2.7,0.4,3.8,0.8c1.1,0.4,2,1,2.8,1.6c0.9,0.8,1.7,2,2.5,3.7c0.8,1.6,1.4,3.2,1.8,4.7h0.9V20.5h-0.9
			c-0.3,1.3-0.6,2.5-1,3.6c-0.4,1.1-0.8,2-1.4,2.8c-0.6,0.8-1.4,1.5-2.3,2.1c-1,0.6-2.1,1-3.6,1.4c-0.6,0.1-1.4,0.3-2.3,0.3
			s-1.9,0.1-2.8,0.2c-0.9,0-1.8,0.1-2.5,0.1c-0.7,0-1.2,0-1.4,0c0-0.1,0-0.4,0-0.8c0-0.4,0-1,0-1.8c0-0.8,0-1.8,0-3
			c0-1.2,0-2.8,0-4.6c0-3.2,0-5.9,0.1-8.3c0.1-2.4,0.2-4,0.3-4.7c0.5-0.1,1.3-0.2,2.3-0.3c1.1-0.1,2.1-0.1,3.1-0.1
			c3.2,0,5.8,0.1,8,0.4c2.2,0.3,3.7,0.6,4.5,1c3.4,1.7,7,4.9,10.9,9.7l0.7-0.4l-1.5-11.8h-42.9v0.7c1.3,0.2,2.3,0.4,3.2,0.6
			c0.8,0.2,1.6,0.7,2.3,1.5c0.3,0.3,0.5,0.8,0.7,1.4c0.2,0.6,0.3,1.4,0.4,2.2c0.1,0.8,0.1,1.7,0.1,2.6c0,0.9,0,1.8,0,2.7v14
			c0,1.3,0,2.7,0,4.2c0,1.4,0,2.8,0,4.2c0,1.4,0,2.6-0.1,3.8c0,1.1,0,2.1,0,2.7c0,0.8,0,1.5-0.1,2.3c0,0.8-0.1,1.5-0.3,2.3
			c-0.1,0.7-0.3,1.4-0.4,1.9c-0.1,0.5-0.3,1-0.6,1.3c-0.7,0.8-1.5,1.4-2.5,1.8c-1,0.4-2.1,0.7-3.3,0.9v0.7h46.1l1.4-13.7L542.4,44z"
			/>
	</g>
	<path class="st3" d="M104.9,30.6v26.6h-9.4l-0.1-6.1c-2.4,2.6-7.8,7-16.6,7c-12.7,0-21.1-11.2-21.1-11.2s5.1-8.5,5.7-8.9
		c4.5,9.8,16.3,10,16.3,10c15.4,0,15.5-17.6,15.5-17.6s-1.5-16.1-16-16.1c-16.9,0-20,18-28.1,29.9c1.2-1.9,1.2-6,1.5-12.5
		c0.3-6.7,3.6-14.4,3.6-14.4s0,0,0,0c0.9-1.2,1.8-2.3,2.7-3.3c5.4-5.7,12.6-8.9,20.5-8.9C103.5,5.1,104.9,28.4,104.9,30.6z"/>
</g>
</svg>
