<?xml version="1.0" encoding="utf-8"?>
<!-- Generator: Adobe Illustrator 25.4.1, SVG Export Plug-In . SVG Version: 6.00 Build 0)  -->
<svg version="1.1" id="Layer_1" xmlns="http://www.w3.org/2000/svg" xmlns:xlink="http://www.w3.org/1999/xlink" x="0px" y="0px"
	 viewBox="0 0 47.9 80" style="enable-background:new 0 0 47.9 80;" xml:space="preserve">
<style type="text/css">
	.st0{fill:#1179BE;}
</style>
<g>
	<path id="path4288_1_" class="st0" d="M44.2,14.5C42.5,7,38.3,1,37.7,0c-0.9,1.4-4.3,6.7-6.1,12.6c-1.9,6.6-2.1,12.4-1.5,18.2
		c0.6,5.8,3.1,11.7,3.1,11.7c1.3,3.1,3.2,6.4,4.5,8.1c1.9-2.4,6.1-9.6,7.4-19C45.9,26.4,45.9,21.9,44.2,14.5z M37.7,48.7
		c-0.8-1.6-2.1-4.6-2.3-9.2c0-4.5,1.8-8.3,2.3-9.1c0.5,0.8,2,4.1,2.2,8.7C40,43.6,38.6,47.1,37.7,48.7z M43.7,27.1
		c-0.1,2.8-0.4,5.8-0.8,7.6c0.2-3.1-0.2-7.4-0.9-10.8c-0.7-3.4-2.7-9.1-4.3-11.7c-1.5,2.5-3.3,7.4-4.3,11.6c-0.9,4.3-1,9.4-1,10.9
		c-0.3-1.3-0.9-5.9-0.7-10.6c0.1-3.8,1-7.8,1.5-9.6c1.9-6.1,4-10,4.4-10.6c0.4,0.6,3.1,5.4,4.5,10.4C43.5,19.4,43.8,24.2,43.7,27.1"
		/>
	<path id="path4290" class="st0" d="M40.6,52.3H27.7V61c0,0,0,0,0,0c3-3,8-3,11,0c3,3,3,8,0,11c0,0,0,0,0,0c0,0,0,0,0,0
		c0,0,0,0-0.1,0c-3,3-7,4.5-11,4.5c-4,0-8-1.5-11-4.6c-5.3-5.3-6-13.6-1.9-19.7c0.6-0.8,1.2-1.6,1.9-2.3c3-3,7-4.6,11-4.6V24.6
		C12.4,24.6,0,37,0,52.3C0,67.6,12.4,80,27.7,80c8,0,15.2-3.4,20.2-8.8V52.3H40.6"/>
</g>
</svg>
