<?xml version="1.0" encoding="utf-8"?>
<!-- Generator: Adobe Illustrator 25.4.1, SVG Export Plug-In . SVG Version: 6.00 Build 0)  -->
<svg version="1.1" id="Layer_1" xmlns="http://www.w3.org/2000/svg" xmlns:xlink="http://www.w3.org/1999/xlink" x="0px" y="0px"
	 viewBox="0 0 161.7 80" style="enable-background:new 0 0 161.7 80;" xml:space="preserve">
<style type="text/css">
	.st0{fill:#1179BE;}
	.st1{fill:#FFFFFF;}
</style>
<g id="Logo">
	<g>
		<g>
			<path id="path4292" class="st0" d="M63.3,46.9c0,1.9-0.2,4.8-4,4.8h-4.4c-3.7,0-4-2.9-4-4.8V29.8c0-1.9,0.2-4.8,4-4.8h4.4
				c3.7,0,4,2.9,4,4.8v3.8h-5.3v-4.3c0-0.5-0.3-0.9-0.8-0.9c-0.3,0-0.8,0.2-0.8,0.9v18.2c0,0.7,0.5,0.9,0.8,0.9
				c0.5,0,0.8-0.4,0.8-0.9v-5.8h-0.8v-2.9h6.1V46.9"/>
			<path id="path4294" class="st0" d="M71.3,41.7l0.9-13.3h0.3l0.9,13.3H71.3z M65.4,51.7h5.2l0.5-7.1h2.5l0.5,7.1h5.2l-2.8-26.6
				h-8.4L65.4,51.7"/>
			<path id="path4296" class="st0" d="M81.3,48.4l5.1-20h-4.6v-3.3h10v3.3l-5.1,19.9h5.4v3.4H81.3V48.4"/>
			<path id="path4298" class="st0" d="M100,39.3v-11h0.7c0.6,0,1,0.5,1,1.3V38c0,0.8-0.4,1.3-1,1.3L100,39.3L100,39.3z M94.7,51.7
				h5.3v-9.1h3c3.7,0,4-2.9,4-4.8v-8.1c0-1.9-0.2-4.8-4-4.8h-8.4L94.7,51.7"/>
			<path id="path4300" class="st0" d="M115.1,38.5V28.4h0.7c0.6,0,1,0.5,1,1.3v7.5c0,0.8-0.4,1.3-1,1.3H115.1z M122.8,51.7
				l-2.6-10.4c1.9-0.8,1.9-2.5,1.9-3.2v-8.3c0-1.9-0.2-4.8-4-4.8h-8.4v26.6h5.3v-9.9h0.4l1.8,9.9H122.8"/>
			<path id="path4302" class="st0" d="M132.7,47.4c0,0.5-0.3,0.9-0.8,0.9c-0.3,0-0.8-0.2-0.8-0.9V29.2c0-0.7,0.5-0.9,0.8-0.9
				c0.5,0,0.8,0.4,0.8,0.9V47.4z M125.7,46.9c0,1.9,0.2,4.8,4,4.8h4.4c3.7,0,4-2.9,4-4.8V29.8c0-1.9-0.2-4.8-4-4.8h-4.4
				c-3.7,0-4,2.9-4,4.8V46.9"/>
			<path id="path4304" class="st0" d="M154.7,25.1h6.9v26.6h-5.3V35h-0.2l-2.7,16.7h-4.3L146.4,35h-0.2v16.7h-5.3V25.1h6.9l3.5,18.7
				L154.7,25.1"/>
		</g>
		<g>
			<path id="path4288_1_" class="st0" d="M44.2,14.5C42.5,7,38.3,1,37.7,0c-0.9,1.4-4.3,6.7-6.1,12.6c-1.9,6.6-2.1,12.4-1.5,18.2
				c0.6,5.8,3.1,11.7,3.1,11.7c1.3,3.1,3.2,6.4,4.5,8.1c1.9-2.4,6.1-9.6,7.4-19C45.9,26.4,45.9,21.9,44.2,14.5z M37.7,48.7
				c-0.8-1.6-2.1-4.6-2.3-9.2c0-4.5,1.8-8.3,2.3-9.1c0.5,0.8,2,4.1,2.2,8.7C40,43.6,38.6,47.1,37.7,48.7z M43.7,27.1
				c-0.1,2.8-0.4,5.8-0.8,7.6c0.2-3.1-0.2-7.4-0.9-10.8c-0.7-3.4-2.7-9.1-4.3-11.7c-1.5,2.5-3.3,7.4-4.3,11.6c-0.9,4.3-1,9.4-1,10.9
				c-0.3-1.3-0.9-5.9-0.7-10.6c0.1-3.8,1-7.8,1.5-9.6c1.9-6.1,4-10,4.4-10.6c0.4,0.6,3.1,5.4,4.5,10.4
				C43.5,19.4,43.8,24.2,43.7,27.1"/>
			<path id="path4290" class="st0" d="M40.6,52.3H27.7V61c0,0,0,0,0,0c3-3,8-3,11,0c3,3,3,8,0,11c0,0,0,0,0,0c0,0,0,0,0,0
				c0,0,0,0-0.1,0c-3,3-7,4.5-11,4.5c-4,0-8-1.5-11-4.6c-5.3-5.3-6-13.6-1.9-19.7c0.6-0.8,1.2-1.6,1.9-2.3c3-3,7-4.6,11-4.6V24.6
				C12.4,24.6,0,37,0,52.3C0,67.6,12.4,80,27.7,80c8,0,15.2-3.4,20.2-8.8V52.3H40.6"/>
		</g>
		<g>
			<rect x="50.9" y="61.2" class="st0" width="110.7" height="18.8"/>
			<g>
				<path class="st1" d="M56.6,64.2h0.2h4l1.3,12.7h-0.2h-2.5l-0.3-3.4h-1l-0.2,3.4h-0.2h-2.5L56.6,64.2z M59.1,72.1L58.7,66
					l-0.4,6.1H59.1z"/>
				<path class="st1" d="M88.1,64.2h0.2h2.5l0.7,7.7l0.6-7.7h0.1h2.6l-1.6,12.7h-0.2h-3.4L88.1,64.2z"/>
				<path class="st1" d="M121.3,64.2h0.1h2.5v12.7h-0.2h-2.5L121.3,64.2L121.3,64.2z"/>
				<path class="st1" d="M151.7,64.2h0.1h4l1.3,12.7H157h-2.5l-0.3-3.4h-1l-0.2,3.4h-0.2h-2.5L151.7,64.2z M154.1,72.1l-0.4-6.1
					l-0.4,6.1H154.1z"/>
			</g>
		</g>
	</g>
</g>
</svg>
