<?xml version="1.0" encoding="utf-8"?>
<!-- Generator: Adobe Illustrator 25.4.1, SVG Export Plug-In . SVG Version: 6.00 Build 0)  -->
<svg version="1.1" id="Layer_1" xmlns="http://www.w3.org/2000/svg" xmlns:xlink="http://www.w3.org/1999/xlink" x="0px" y="0px"
	 viewBox="0 0 68.2 80" style="enable-background:new 0 0 68.2 80;" xml:space="preserve">
<style type="text/css">
	.st0{fill:#006D79;}
	.st1{fill:#DEC700;}
</style>
<path class="st0" d="M0,40.5c0,0,0.1,1.5,2,2.2c1.8,0.7,3.4,1.4,5.3,3.4c1.9,2,4.5,3.6,5.8,4.5c1.3,0.9,2.9,4.5,4.3,7.1
	c1.4,2.6,4.8,10,5.8,11.6c1,1.6,1.7,2.4,1.4,0s-0.7-5.7,0.9-7.7s2.3-4.5,2.8-6.9s-0.1-2.1-1.1-2.9c-1-0.8-5-1.8-5.6-4.5
	c-0.7-2.7-2.1-5.1-5-5.6s-6.5,0.2-8.1,0.5S2,41.4,0,40.5z"/>
<path class="st0" d="M30.1,58.6c0,0-0.4,1.2,0.8,0.4c1.1-0.9,4.3-2.2,7.1-2.4c2.8-0.2,6.5,0.2,8.1,0.7c1.6,0.5,5.9,2.5,7.6,3.7
	c1.7,1.1,2,2.1,2.3,1.3c0.2-0.8,0.3-3.6,0.3-4.6s0.1-1.5,0-3.1c-0.1-1.5-0.4-1.6,0.4-1.9c0.8-0.3,0.6-0.1,0.7-0.7
	c0.1-0.5,0.7-0.6,0.3-1.7c-0.4-1.1-0.6-1.6-2.9-2.8c-2.2-1.1-6.5-2-11.1-2s-9.9,4.1-10.8,4.9c-0.8,0.8-2.2,2-2.4,3
	C30.3,54.4,30.4,57.7,30.1,58.6z"/>
<path class="st1" d="M32.4,37.7c0,0-1.5,1.9-1.9,5.3c-0.4,3.5-0.1,5.4-0.5,6c-0.4,0.6-0.1,1.8,0.7,1.1s3.1-4.1,6.7-6.1
	s6.8-3.6,9.8-4.2s6.9,0.1,8.2,0.7c1.3,0.6,1.7,1.3,2.4,1.1c0.7-0.1,0.8-1.1,0.5-1.8s-1.1-1-0.7-1.6c0.4-0.6,1-0.8,0.7-1.8
	s-0.5-1.9,0.2-2.5c0.7-0.6,1.2-1.5,1.2-2c0-0.5,2.1-2.6,3.1-3.7s0.5-1.8-0.2-2.3c-0.7-0.4-0.3-1.6-1-2.2c-0.7-0.6-1.5-0.3-1.3-1.6
	c0.2-1.4-0.4-2-1.3-2c-0.9-0.1-3.3,0.3-4.4,0.6c-1.1,0.3-9.1,4.4-14.6,8.9S32.2,37.8,32.4,37.7z"/>
<path class="st0" d="M32.3,35.2c0,0-0.3,1.4,1-0.2c1.3-1.6,4.1-6.1,6.3-8.4s8.1-7.3,9.5-8.3s2.1-1.8,2.7-1.1
	c0.5,0.7,0.3,1.3,0.9,1.1c0.6-0.3,1.6-1.1,2.2-2.1c0.6-1,1.5-3,2.4-3.5c0.9-0.4,2.4,0.6,2.5,1.2c0.1,0.6,1,1.4,1.2,2
	c0.1,0.6,0.1,4.5,0,5.3c-0.1,0.8-0.1,1.9,0.4,2.4c0.5,0.4,0.7,1.1,0.7,1.2s1,0.3,1.3-0.5c0.3-0.9-0.1-1,0.5-1.7
	c0.6-0.7-0.6-1.8,0-2.7c0.6-0.9,1-0.5,1.4-1.6c0.4-1.1-0.4-1.5-0.6-2.4c-0.3-0.9,0.3-1.4,1.1-2.5s1.3-2.1,1-3
	c-0.3-0.9-0.1-0.8,0.4-1.5c0.6-0.8,0.4-0.6,0.4-1.5s0.3-1.3,0.1-2c-0.2-0.7,0.5-1.2-0.4-1.7s-0.7-1-0.1-1.8s1.5-1.9,0.5-1.8
	c-1,0.1-9.8,2.8-17.4,9.9S32.3,35.2,32.3,35.2z"/>
<path class="st1" d="M31.2,61.2c0,0-0.7-0.2-1.4,0.5c-0.7,0.6-3.1,3.3-3,6.6c0.1,3.4,2.1,1,4.3,0.5s5.9,0.9,7.3,2.2
	c1.3,1.4,6.9,7.1,7.8,7.8c0.9,0.7,1.4,1.2,2.2,1c0.8-0.2,0.7-1,1.5-2.4c0.8-1.3,2-1.6,2.4-2.5c0.4-0.9,0-1.5,0.8-2.8
	c0.8-1.2,1.4-1.9,1.8-2.9s0.1-1.5-1.6-2.6c-1.7-1-8.8-4.1-11.9-4.8C38.5,61.2,31.2,61.2,31.2,61.2z"/>
</svg>
