<?xml version="1.0" encoding="utf-8"?>
<!-- Generator: Adobe Illustrator 25.4.1, SVG Export Plug-In . SVG Version: 6.00 Build 0)  -->
<svg version="1.1" id="Layer_1" xmlns="http://www.w3.org/2000/svg" xmlns:xlink="http://www.w3.org/1999/xlink" x="0px" y="0px"
	 viewBox="0 0 160.9 80" style="enable-background:new 0 0 160.9 80;" xml:space="preserve">
<style type="text/css">
	.st0{fill:#006D79;}
	.st1{fill:#DEC700;}
</style>
<g>
	<path class="st0" d="M0,40.5c0,0,0.1,1.5,2,2.2c1.8,0.7,3.4,1.4,5.3,3.4c1.9,2,4.5,3.6,5.8,4.5c1.3,0.9,2.9,4.5,4.3,7.1
		c1.4,2.6,4.8,10,5.8,11.6c1,1.6,1.7,2.4,1.4,0s-0.7-5.7,0.9-7.7s2.3-4.5,2.8-6.9s-0.1-2.1-1.1-2.9c-1-0.8-5-1.8-5.6-4.5
		c-0.7-2.7-2.1-5.1-5-5.6s-6.5,0.2-8.1,0.5S2,41.4,0,40.5z"/>
	<path class="st0" d="M30.1,58.6c0,0-0.4,1.2,0.8,0.4c1.1-0.9,4.3-2.2,7.1-2.4c2.8-0.2,6.5,0.2,8.1,0.7c1.6,0.5,5.9,2.5,7.6,3.7
		c1.7,1.1,2,2.1,2.3,1.3c0.2-0.8,0.3-3.6,0.3-4.6s0.1-1.5,0-3.1c-0.1-1.5-0.4-1.6,0.4-1.9c0.8-0.3,0.6-0.1,0.7-0.7
		c0.1-0.5,0.7-0.6,0.3-1.7c-0.4-1.1-0.6-1.6-2.9-2.8c-2.2-1.1-6.5-2-11.1-2s-9.9,4.1-10.8,4.9c-0.8,0.8-2.2,2-2.4,3
		C30.3,54.4,30.4,57.7,30.1,58.6z"/>
	<path class="st1" d="M32.4,37.7c0,0-1.5,1.9-1.9,5.3c-0.4,3.5-0.1,5.4-0.5,6c-0.4,0.6-0.1,1.8,0.7,1.1s3.1-4.1,6.7-6.1
		s6.8-3.6,9.8-4.2s6.9,0.1,8.2,0.7c1.3,0.6,1.7,1.3,2.4,1.1c0.7-0.1,0.8-1.1,0.5-1.8s-1.1-1-0.7-1.6c0.4-0.6,1-0.8,0.7-1.8
		s-0.5-1.9,0.2-2.5c0.7-0.6,1.2-1.5,1.2-2c0-0.5,2.1-2.6,3.1-3.7s0.5-1.8-0.2-2.3c-0.7-0.4-0.3-1.6-1-2.2c-0.7-0.6-1.5-0.3-1.3-1.6
		c0.2-1.4-0.4-2-1.3-2c-0.9-0.1-3.3,0.3-4.4,0.6c-1.1,0.3-9.1,4.4-14.6,8.9S32.2,37.8,32.4,37.7z"/>
	<path class="st0" d="M32.3,35.2c0,0-0.3,1.4,1-0.2c1.3-1.6,4.1-6.1,6.3-8.4s8.1-7.3,9.5-8.3s2.1-1.8,2.7-1.1
		c0.5,0.7,0.3,1.3,0.9,1.1c0.6-0.3,1.6-1.1,2.2-2.1c0.6-1,1.5-3,2.4-3.5c0.9-0.4,2.4,0.6,2.5,1.2c0.1,0.6,1,1.4,1.2,2
		c0.1,0.6,0.1,4.5,0,5.3c-0.1,0.8-0.1,1.9,0.4,2.4c0.5,0.4,0.7,1.1,0.7,1.2s1,0.3,1.3-0.5c0.3-0.9-0.1-1,0.5-1.7
		c0.6-0.7-0.6-1.8,0-2.7c0.6-0.9,1-0.5,1.4-1.6c0.4-1.1-0.4-1.5-0.6-2.4c-0.3-0.9,0.3-1.4,1.1-2.5s1.3-2.1,1-3
		c-0.3-0.9-0.1-0.8,0.4-1.5c0.6-0.8,0.4-0.6,0.4-1.5s0.3-1.3,0.1-2c-0.2-0.7,0.5-1.2-0.4-1.7s-0.7-1-0.1-1.8s1.5-1.9,0.5-1.8
		c-1,0.1-9.8,2.8-17.4,9.9S32.3,35.2,32.3,35.2z"/>
	<path class="st1" d="M31.2,61.2c0,0-0.7-0.2-1.4,0.5c-0.7,0.6-3.1,3.3-3,6.6c0.1,3.4,2.1,1,4.3,0.5s5.9,0.9,7.3,2.2
		c1.3,1.4,6.9,7.1,7.8,7.8c0.9,0.7,1.4,1.2,2.2,1c0.8-0.2,0.7-1,1.5-2.4c0.8-1.3,2-1.6,2.4-2.5c0.4-0.9,0-1.5,0.8-2.8
		c0.8-1.2,1.4-1.9,1.8-2.9s0.1-1.5-1.6-2.6c-1.7-1-8.8-4.1-11.9-4.8C38.5,61.2,31.2,61.2,31.2,61.2z"/>
	<g>
		<path class="st0" d="M101.2,25h2.1c1.5,0,2.8,1.2,2.8,2.8v29.4c0,1.5-1.2,2.8-2.8,2.8h-2.1v1.2h17.4V60h-1.9
			c-1.5,0-2.8-1.3-2.8-2.8V27.8c0-1.5,1.2-2.8,2.8-2.8h1.9v-1.2h-17.4V25z"/>
		<path class="st0" d="M97.3,60c-3.4,0-4.8-2.5-4.8-2.5S80.3,24.6,79.9,23.8c-0.4-0.8-0.7-0.7-1-0.7c-0.3,0.1-3.9,4.6-3.9,4.6
			S64.3,55.1,63,57.8c-0.8,1.6-2.3,2.1-3.4,2.2h-1.3h0h0h-0.4v1.2h14V60h-1c0,0,0,0,0,0c-2.1,0-3.4-1.3-3.6-3.6
			c-0.1-0.9,1.1-4.6,2.6-8.9c2.4,0,8.5,0,11.7,0c1.8,5,3.3,9.5,3.4,10.4c0.2,1.7-1.9,2.1-2.9,2.2h-1.2v1.2h16.7V60H97.3L97.3,60z
			 M70.9,44.6c2.3-6.4,4.9-12.9,4.9-12.9s2.4,6.4,4.7,12.9H70.9z"/>
		<path class="st0" d="M156,57.9c-1.5-1.9-6.8-10.1-7.6-11.3S146,43,144.9,43c0,0,7.5-2.9,7.5-9.9c0-6.9-7.2-9.3-12.7-9.3h-17.4V25
			h2.1c1.5,0,2.8,1.2,2.8,2.8v29.4c0,1.5-1.2,2.8-2.8,2.8h-2.1v1.2h17.4V60h-1.9c-1.5,0-2.8-1.3-2.8-2.8V43.7h2.3
			c0.4,0.1,1.2,0.5,2.3,2.4c1.6,2.7,6.3,10.7,8,12.5c1.7,1.8,4.7,3.3,8,3.3c3.4,0,4.9-0.6,4.9-0.6V60C160.6,60,157.5,59.7,156,57.9z
			 M135,27.8c0-1.5,1.2-2.8,2.8-2.8h1.5c0,0,6.5,0.3,6.5,8.1c0,7.8-6.2,8.8-7.5,8.8H135V27.8z"/>
	</g>
	<g>
		<path class="st1" d="M102.4,64.3h0.7c0.5,0,1,0.4,1,1v10.3c0,0.5-0.4,1-1,1h-0.7v0.4h6.1v-0.4h-0.7c-0.5,0-1-0.4-1-1V65.3
			c0-0.5,0.4-1,1-1h0.7v-0.4h-6.1V64.3z"/>
		<path class="st1" d="M67.1,64.3h0.7c0.5,0,1,0.4,1,1v4.9h-6.5v-4.9c0-0.5,0.4-1,1-1H64v-0.4h-6.1v0.4h0.7c0.5,0,1,0.4,1,1v10.3
			c0,0.5-0.4,1-1,1h-0.7v0.4H64v-0.4h-0.7c-0.5,0-1-0.4-1-1V71h6.5v4.6c0,0.5-0.4,1-1,1h-0.7v0.4h6.1v-0.4h-0.7c-0.5,0-1-0.4-1-1
			V65.3c0-0.5,0.4-1,1-1h0.7v-0.4h-6.1V64.3z"/>
		<path class="st1" d="M134.8,76.7c-1.2,0-1.7-0.9-1.7-0.9s-4.3-11.6-4.4-11.9s-0.3-0.3-0.4-0.2c-0.1,0-1.4,1.6-1.4,1.6
			s-3.8,9.7-4.2,10.6c-0.3,0.6-0.8,0.7-1.2,0.8H121l0,0l0,0h-0.1v0.4h4.9v-0.4h-0.4c0,0,0,0,0,0c-0.7,0-1.2-0.5-1.3-1.3
			c0-0.3,0.4-1.6,0.9-3.2c0.9,0,3,0,4.1,0c0.6,1.8,1.2,3.3,1.2,3.7c0.1,0.6-0.7,0.7-1,0.8H129v0.4h5.9L134.8,76.7L134.8,76.7
			L134.8,76.7z M125.5,71.2c0.8-2.2,1.7-4.5,1.7-4.5s0.8,2.3,1.7,4.5H125.5z"/>
		<path class="st1" d="M83.7,76.7h-3.3c-0.5,0-1-0.4-1-1v-5.1h3.1c0,0,1.1,0.1,1.1,1.8h0.6V68h-0.6c0,0,0,1.9-1.2,1.9
			c-0.9,0-2.5,0-3.1,0v-4.6c0-0.5,0.4-1,1-1h3.7c0,0,1.5,0.4,1.5,2.6h0.7v-3h-1.7h-0.3h-9.2v0.4h0.7c0.5,0,1,0.4,1,1v10.3
			c0,0.5-0.4,1-1,1h-0.7v0.4h9.3h0.2h2.1v-2.9h-0.6C85.9,74.1,85.6,76.7,83.7,76.7z"/>
		<path class="st1" d="M160.3,74.1c0,0-0.4,2.5-2.2,2.5h-3.3c-0.5,0-1-0.4-1-1v-5.1h3.1c0,0,1.1,0.1,1.1,1.8h0.6V68H158
			c0,0,0,1.9-1.2,1.9c-0.9,0-2.5,0-3.1,0v-4.6c0-0.5,0.4-1,1-1h3.7c0,0,1.5,0.4,1.5,2.6h0.7v-3h-1.7h-0.3h-9.2v0.4h0.7
			c0.5,0,1,0.4,1,1v10.3c0,0.5-0.4,1-1,1h-0.7v0.4h9.3h0.2h2.1v-2.9H160.3z"/>
		<path class="st1" d="M98.5,73.5c-1-1.7-1.6-2.8-1.8-3.2c1.3-0.5,2.7-1.4,2.7-3.1c0-3.1-3-3.4-3-3.4h-1.9h-6.1v0.4h0.7
			c0.5,0,1,0.4,1,1v10.3c0,0.5-0.4,1-1,1h-0.7v0.4h6.1v-0.4h-0.7c-0.5,0-1-0.4-1-1v-4.8c0.4,0,1,0,1.3,0c0.1,0,0.2,0,0.4,0l3.1,5.5
			c0,0,0.3,0.7,1,0.7c0.7,0,2.9,0,2.9,0v-0.4H101C101,76.6,99.8,75.7,98.5,73.5z M92.8,70v-4.7c0-0.5,0.4-1,1-1h0.3
			c2.6,0,2.9,1.7,2.9,3.4c0,1.8-2.1,2.2-2.1,2.2H92.8z"/>
		<path class="st1" d="M121.4,65.2c0.3,0.7,0.6,1.5,0.6,1.5h0.7l-0.9-3.5h-0.7c0,0,0.1,0.5-0.4,0.5c-0.4,0-4.5,0-4.5,0s-4.1,0-4.5,0
			s-0.4-0.5-0.4-0.5h-0.7l-0.9,3.5h0.7c0,0,0.3-0.8,0.6-1.5s1.2-0.9,1.2-0.9h1h0.7c0.5,0,1,0.4,1,1v10.3c0,0.5-0.4,1-1,1h-0.7v0.4
			h6.1v-0.4h-0.7c-0.5,0-1-0.4-1-1V65.3c0-0.5,0.4-1,1-1h0.7h1C120.2,64.3,121.2,64.5,121.4,65.2z"/>
		<path class="st1" d="M144.5,70.8H143v0.9h0.8c0.4,0,0.7,0.3,0.7,0.7v2.4c0,0-0.3,1-2.2,1c-1.9,0-4.3-1.5-4.3-4.9
			c0-3.5,2.5-5.8,4.2-5.8c1.8,0,3.3,1.3,3.9,2.6h0.7v-2.3c0,0-1.7-1.7-4.4-1.7s-7.4,1.9-7.4,7.1s5.6,6.4,6.7,6.4
			c1.1,0,4.6-0.9,5.3-1.4v-3.4c0-0.4,0.3-0.7,0.7-0.7h0.3v-0.9h-1H144.5z"/>
	</g>
</g>
</svg>
