<?xml version="1.0" encoding="utf-8"?>
<!-- Generator: Adobe Illustrator 25.4.1, SVG Export Plug-In . SVG Version: 6.00 Build 0)  -->
<svg version="1.1" id="Layer_1" xmlns="http://www.w3.org/2000/svg" xmlns:xlink="http://www.w3.org/1999/xlink" x="0px" y="0px"
	 viewBox="0 0 43.5 80" style="enable-background:new 0 0 43.5 80;" xml:space="preserve">
<style type="text/css">
	.st0{fill:#0067B1;}
</style>
<g>
	<path class="st0" d="M36.5,58.7c3.8-0.4,6.9-0.4,6.9-0.4s-3.1,0-6.7-0.4c1.1-3.6,0.9-7-0.6-9.6c3.5-3,6.6-5.3,6.6-5.3
		s-3.2,2.3-7,4.6c-1.6-2.2-4-3.6-7.1-4c0.7-2.4,1.4-5.1,2.3-8l6.1-18.8C40.3,7.4,43,0,43,0s-2.8,7.7-6.5,17.3l-7.1,17.7
		c-1.3,3-2.5,5.9-3.7,8.4c-3.4,0.3-6.9,1.7-10,3.9c-2-2.3-3.5-4.5-3.5-4.5s1.4,2.2,2.6,5.1c-3.4,2.6-6.1,6-7.6,9.8
		C3.2,58.3,0,58.3,0,58.3s3.2,0.1,6.8,0.6c-1.1,3.5-0.8,6.8,0.6,9.3c-3.6,3.1-6.8,5.4-6.8,5.4S4,71.4,7.9,69c1.7,2.4,4.4,3.8,7.7,4
		c-0.9,3.8-2,7-2,7s1.2-3.2,3-7c0,0,0,0,0,0c3.7,0,7.7-1.4,11.1-3.8c2.1,2.3,3.6,4.4,3.6,4.4s-1.4-2.2-2.6-5.1
		C32.2,66,35.1,62.5,36.5,58.7z M34.9,57.6c-1-0.2-2-0.3-2.9-0.6c0.4-1.7,0.3-3.3-0.3-4.6c1-1,2-1.9,3.1-2.9
		C35.9,51.7,35.9,54.5,34.9,57.6z M28.2,45.4c2.5,0.3,4.6,1.3,5.9,3.1c-1.2,0.7-2.4,1.4-3.6,2c-0.8-0.8-1.8-1.4-3-1.7
		C27.7,47.8,27.9,46.7,28.2,45.4z M27.2,50c0.8,0.2,1.5,0.6,2.1,1.1c-0.8,0.4-1.6,0.7-2.4,1C26.9,51.5,27,50.8,27.2,50z M37,47.2
		c0,0-5.9,4.3-9.2,8c-0.3-0.2-0.6-0.5-0.7-0.8c-0.1-0.2-0.2-0.6-0.2-1.1C31.2,51.3,37,47.2,37,47.2z M28.6,55.8
		c0.6-0.8,1.3-1.6,2.1-2.4c0.3,1,0.3,2.1,0.1,3.3C29.9,56.4,29.2,56.1,28.6,55.8z M29.4,59.9C28.8,61,27.9,62,27,62.9
		c-0.1-0.8-0.2-1.5-0.2-2.2C27.6,60.4,28.5,60.1,29.4,59.9z M26.5,58.2c-1,2.6-3.8,4.6-6.4,4.6s-3.9-2.1-2.9-4.6
		c1-2.6,3.8-4.6,6.4-4.6C26.1,53.6,27.4,55.7,26.5,58.2z M21.9,64.3c0.6,0.3,1.1,0.6,1.7,1c-1.1,0.6-2.2,1-3.3,1.2
		C20.8,65.7,21.4,65,21.9,64.3z M21.1,52.1c-0.5-0.2-0.9-0.5-1.4-0.8c0.8-0.4,1.6-0.8,2.5-1.1C21.9,50.9,21.5,51.6,21.1,52.1z
		 M24.6,45.6c-0.5,1.1-1.1,2.2-1.6,3.1c-1.5,0.3-3,0.9-4.4,1.7c-0.6-0.5-1.2-1.1-1.8-1.7C19.3,47.2,21.9,46,24.6,45.6z M20.4,53.3
		c-0.4,0.5-0.7,0.9-1,1.1c-0.4,0.3-0.9,0.6-1.3,0.8c-0.6-3.7-3.2-8.1-3.2-8.1S17.4,51.3,20.4,53.3z M14.2,56.6c0.6-1,1.4-2,2.3-2.9
		c0.1,0.7,0.2,1.4,0.2,2.1C15.9,56.1,15.1,56.4,14.2,56.6z M14.8,60.8c-0.5,0.7-1.1,1.4-1.8,2.2c-0.2-0.9-0.3-1.8-0.1-2.9
		C13.6,60.3,14.2,60.5,14.8,60.8z M15.4,49.9c0.3,0.8,0.5,1.6,0.8,2.4c-1.5,1.3-2.8,2.9-3.6,4.7c-1.1,0.2-2.2,0.4-3.2,0.6
		C10.7,54.6,12.8,52,15.4,49.9z M8.7,59.2c1,0.2,2,0.4,2.9,0.6c-0.3,1.5-0.2,3,0.3,4.2c-1,1-2,2-3.1,2.9C7.8,64.8,7.8,62.1,8.7,59.2
		z M6.5,69.4c0,0,5.8-4.3,9.2-8c0.3,0.2,0.6,0.5,0.8,0.8c0.2,0.3,0.3,0.7,0.4,1.1C12.5,65.2,6.5,69.4,6.5,69.4z M16.1,71.1
		c-2.8-0.1-5.1-1.2-6.5-3.1c1.2-0.7,2.5-1.4,3.7-2c0.9,0.9,2.1,1.5,3.4,1.8C16.5,68.9,16.3,70,16.1,71.1z M16.9,66.5
		c-0.9-0.2-1.7-0.6-2.4-1.1c0.9-0.4,1.7-0.8,2.5-1.1C17,65,16.9,65.7,16.9,66.5z M17.7,71c0.5-1.1,1.1-2.1,1.7-3.1
		c1.8-0.2,3.6-0.8,5.3-1.7c0.6,0.5,1.2,1.1,1.8,1.7C23.7,69.7,20.6,70.8,17.7,71z M22.9,63.2c0.4-0.4,0.8-0.8,1.3-1.1
		c0.4-0.3,0.8-0.5,1.3-0.8c0.5,3.8,3.2,8,3.2,8S25.8,65.2,22.9,63.2z M28,66.7c-0.3-0.8-0.5-1.6-0.8-2.4c1.6-1.4,2.9-3,3.8-4.8
		c1.1-0.2,2.2-0.4,3.2-0.6C33,61.9,30.7,64.6,28,66.7z"/>
</g>
</svg>
