<?xml version="1.0" encoding="utf-8"?>
<!-- Generator: Adobe Illustrator 25.4.1, SVG Export Plug-In . SVG Version: 6.00 Build 0)  -->
<svg version="1.1" id="Layer_2_00000159471598350358213750000014612203606435250611_"
	 xmlns="http://www.w3.org/2000/svg" xmlns:xlink="http://www.w3.org/1999/xlink" x="0px" y="0px" viewBox="0 0 437.2 80"
	 style="enable-background:new 0 0 437.2 80;" xml:space="preserve">
<style type="text/css">
	.st0{fill:#04396F;}
	.st1{fill:#A11337;}
	.st2{fill:#FFFFFF;}
	.st3{fill:#ACABB5;}
</style>
<g>
	<path class="st0" d="M0,78.7c0,0,333.6-0.2,335.2-0.3c1.6-0.1,6,0.5,14.7-5.6c9.5-6.6,60.7-67.7,60.7-67.7s2.8-2.8,4.4-3.8
		c1.6-0.9,3.5-1.4,5.8-1.4h16.3l-22.3,79.7L0,80V78.7z"/>
	<path class="st1" d="M407.8,36.2c0,0,5.5,2.4,3.3,7.7c-2.2,5.5-25.8,8.5-27.4,12.2c-1.2,2.8,8.5,4,8.5,4s-14.2,0.2-11.5-5.8
		c2.5-5.5,25.6-7.1,28-10.1C411.9,40.2,407.8,36.2,407.8,36.2L407.8,36.2z"/>
	<path class="st2" d="M398.4,66.9l0.5-5.4l-4.9-2.3l4.9-2.1l-0.6-5.4l4.3,3.3L407,52l-0.5,5.4l4.9,2.3l-4.9,2.1l0.6,5.4l-4.3-3.3
		L398.4,66.9z M413.4,52.7l-0.4-2.3l-2.3-0.4l1.7-1.4l-0.9-2.1l2.2,0.9l1.4-1.8l0.4,2.3l2.3,0.4l-1.7,1.4l0.9,2.1l-2.2-0.9
		L413.4,52.7z M393,74.8l0.1-2.5l-2.3-1l2.2-1l-0.4-2.5l2,1.4l1.9-1.5l-0.1,2.5l2.2,1l-2.2,1l0.4,2.4l-2-1.4L393,74.8z M397.6,37.6
		l0.2-2.5l-2.3-1l2.2-1l-0.4-2.5l2,1.4l1.9-1.5l-0.1,2.5l2.3,1l-2.2,1l0.4,2.4l-2-1.4L397.6,37.6z M383.2,51.2l-1-2.1l-2.3,0.2
		l1.3-1.9l-1.5-1.9l2.4,0.3l0.9-2.1l1,2.2l2.4-0.2l-1.3,1.9l1.5,1.9l-2.4-0.3L383.2,51.2z"/>
	<path class="st3" d="M407.8,36.2c0,0,6,2.1,3.8,7.4c-1.9,4.6-25.9,7.9-27.5,11.5c-1.2,2.8,8.2,4.9,8.2,4.9s-13.5-1.3-11.5-5.8
		c2.4-5.5,26.6-8.1,28.8-11.2C412.3,38.9,407.8,36.2,407.8,36.2L407.8,36.2z"/>
	<path class="st0" d="M59.8,36c-0.9-2.7-5.1-2.4-5.1-2.4H23.4l-4,5.8c0,0,2.1-0.5,3.4-0.5h20.6c0,0,2.2,0.1,3.1,0.5
		c0.9,0.4,0.4,1.5,0.4,1.5l-2.1,3.8l-20.3-0.1c0,0-3.4-0.2-7.5,1.7C12.8,48.2,4.5,61.9,5.7,67.6c0.4,2.1,4.4,1.7,4.4,1.7h18.8
		c0.7,0,2.3-0.2,5-3.8c-0.1,1.9-0.6,3.8-0.6,3.8h12c-0.4-3.3,9.8-18.9,13.7-28.1C59.7,39.3,60.4,38,59.8,36L59.8,36z M36,60.4
		c0,0-1.2,2.2-1.7,2.8c-0.6,0.9-2.7,0.7-2.7,0.7H19.9c0,0-1.1-0.2-1.1-0.9c0-0.7,0.9-2.6,0.9-2.6l3.6-7.3c0,0,1.2-1.9,2.1-2.5
		c0.9-0.6,2.6-0.5,2.6-0.5H42L36,60.4z M53.1,69.2c2.1-2.4,3.7-5.7,3.7-5.7l13.9-26.4c0,0,1.1-1.8,0.9-3.6H86L69.9,63.2
		c0,0-2.4,3.7-2.2,6L53.1,69.2L53.1,69.2z M75.1,30.3c1.8-3.2,3.2-5.6,4.4-8.6c3.9,0.1,8.1,0,12.4,0c-0.9,2-3.4,5.8-4.6,8.5
		C84,30.3,78,30.3,75.1,30.3z M213.9,69.2c2.2-2.5,2.8-3.4,3.3-4.3c0.7-1.6,14.6-27.4,14.9-28c0.7-1.7,0.8-3.3,0.8-3.3h13l-1.6,3.4
		c0,0,3.5-3.4,6-3.4h12.3l-3.5,7.5c0,0-13.5-1.2-16,0.1c-2.4,1.2-12.6,22.6-13.1,23.5c-0.4,0.8-1.2,2.6-0.9,4.5H213.9L213.9,69.2z
		 M76.8,69.2c2.2-2.5,2.8-3.4,3.3-4.3c0.7-1.6,14.6-27.4,14.9-28c0.7-1.7,0.8-3.3,0.8-3.3h13l-1.6,3.4c0,0,3.5-3.4,6-3.4h12.3
		l-3.5,7.5c0,0-13.5-1.2-16,0.1c-2.4,1.2-12.6,22.6-13.1,23.5c-0.4,0.8-1.2,2.6-0.9,4.5H76.8L76.8,69.2z M111.9,69.2
		c1.6-1.6,4.4-5.8,4-5.2c-1.3,2.2,13.3-25.4,14.1-27c0.8-1.5,1.2-3.5,1.2-3.5h13.3l-1.6,3.1c0,0,3.1-3.1,4.7-3.1H166
		c0,0,4-0.4,4.9,2.4c1.5,4.9-10.9,22.3-14,30c-0.4,1.1-0.6,3.2-0.6,3.2H141c0,0,1.8-1.5,2.2-2.2c1.3-2,13-24.2,13-24.2
		s1.3-1.9,0.7-2.7c-0.6-0.9-1.7-0.6-1.7-0.6H145c0,0-1.9-0.2-2.5,0.2c-0.8,0.6-1.6,2.2-1.6,2.2s-11.8,21.5-12.1,22.5
		c-0.3,0.9-1.6,2.8-1.4,5C120.1,69.2,111.9,69.2,111.9,69.2L111.9,69.2z M221,35.5c-1.5-2-5.3-1.9-5.3-1.9h-23.8c0,0-5,0.1-7.6,1.6
		c-3.8,2.1-5.6,5.2-5.6,5.2l-10.2,18.4c0,0-2.7,5.1-2,7.8c0.7,2.8,4.6,2.6,4.6,2.6h26.2c0,0,3.5,0.5,8.6-2.8
		c2.9-1.9,5.2-7.3,5.2-7.3l9.8-18.2C221,40.9,222.3,37.2,221,35.5L221,35.5z M207.7,41.6l-10.2,19c0,0-0.6,1.1-1.4,1.9
		c-0.8,0.8-1.9,1.1-1.9,1.1h-13.1c0,0-0.7,0-0.8-0.8c-0.1-0.7,0.5-1.7,0.5-1.7l10.6-19.7c0,0,0.3-0.9,1.3-1.6
		c0.9-0.6,2.6-0.3,2.6-0.3h10.8c0,0,1.5-0.2,1.9,0.3C208.4,40.3,207.7,41.6,207.7,41.6L207.7,41.6z M272.6,33.6l3.8-7.2l13.7-1.8
		l-4.9,9h13l-2.6,5.3h-13l-11.6,22c0,0-0.8,1.1-0.6,1.8c0.1,0.6,1.2,0.8,1.2,0.8s8.1,0.2,14.1-0.6c-2.1,3-4.2,6.3-4.2,6.3h-19.9
		c0,0-3.8,0.6-4.6-2.5c-0.8-3.2,1.3-6.3,1.3-6.3l11.8-21.5h-7.5l3-5.3L272.6,33.6L272.6,33.6z M287.8,69.2
		c3.2-3.5,25.9-47.1,26.2-48.7h13.5l-8.1,16.1c0,0,1.6-1.7,2.5-2.3c0.9-0.6,3.2-0.6,3.2-0.6h16.3c0,0,3.8-0.6,4.9,1.9
		c0.9,2.2-0.6,5.6-0.6,5.6s-14,26-14.2,28h-14.7c1.5-1.7,15.2-27.4,15.2-27.4s1-1.5,0.6-2c-0.5-0.7-1.3-0.6-1.3-0.6h-11.8
		c0,0-1,0.1-1.6,0.6c-0.5,0.5-1.2,1.8-1.2,1.8s-14,24.7-14.1,27.6L287.8,69.2L287.8,69.2z"/>
</g>
</svg>
