<?xml version="1.0" encoding="utf-8"?>
<!-- Generator: Adobe Illustrator 25.4.1, SVG Export Plug-In . SVG Version: 6.00 Build 0)  -->
<svg version="1.1" xmlns="http://www.w3.org/2000/svg" xmlns:xlink="http://www.w3.org/1999/xlink" x="0px" y="0px"
	 viewBox="0 0 80 80" style="enable-background:new 0 0 80 80;" xml:space="preserve">
<style type="text/css">
	.st0{fill:#7D98CF;}
	.st1{fill:#121586;}
</style>
<g id="Layer_2">
</g>
<g id="Layer_1">
	<path class="st0" d="M75.08,35.08H51.88l16.4-16.4c1.92-1.92,1.92-5.04,0-6.96c-1.92-1.92-5.04-1.92-6.96,0l-16.4,16.4V4.92
		C44.92,2.2,42.72,0,40,0c-2.72,0-4.92,2.2-4.92,4.92v23.19l-16.4-16.4c-1.92-1.92-5.04-1.92-6.96,0c-1.92,1.92-1.92,5.04,0,6.96
		l16.4,16.4H4.92C2.2,35.07,0,37.28,0,40c0,2.72,2.2,4.92,4.92,4.92h23.19l-16.4,16.4c-1.92,1.92-1.92,5.04,0,6.96
		c0.96,0.96,2.22,1.44,3.48,1.44s2.52-0.48,3.48-1.44l16.4-16.4v23.19c0,2.72,2.2,4.93,4.92,4.93c2.72,0,4.92-2.21,4.92-4.93V51.88
		l16.4,16.4c0.96,0.96,2.22,1.44,3.48,1.44c1.26,0,2.52-0.48,3.48-1.44c1.92-1.92,1.92-5.04,0-6.96l-16.4-16.4l23.19,0
		C77.8,44.92,80,42.72,80,40C80,37.28,77.8,35.08,75.08,35.08L75.08,35.08z"/>
	<path class="st1" d="M68.41,34.88H52.71l9.7-9.69c1.92-1.92,1.92-5.04,0-6.96c-1.92-1.92-5.04-1.92-6.96,0h0L38.79,34.88H11.53
		c-2.72,0-4.92,2.2-4.92,4.92c0,2.72,2.2,4.92,4.92,4.92h26.54l17.8,17.81c0.96,0.96,2.22,1.44,3.48,1.44
		c1.26,0,2.52-0.48,3.48-1.44c1.92-1.93,1.92-5.04,0-6.96L52,44.73h16.41c2.72,0,4.92-2.21,4.92-4.92
		C73.33,37.09,71.13,34.88,68.41,34.88L68.41,34.88z"/>
</g>
</svg>
