<?xml version="1.0" encoding="utf-8"?>
<!-- Generator: Adobe Illustrator 25.4.1, SVG Export Plug-In . SVG Version: 6.00 Build 0)  -->
<svg version="1.1" xmlns="http://www.w3.org/2000/svg" xmlns:xlink="http://www.w3.org/1999/xlink" x="0px" y="0px"
	 viewBox="0 0 446.08 80" style="enable-background:new 0 0 446.08 80;" xml:space="preserve">
<style type="text/css">
	.st0{fill:#161482;}
	.st1{fill:#7D98CF;}
	.st2{fill:#121586;}
</style>
<g id="Layer_2">
</g>
<g id="Layer_1">
	<g>
		<path class="st0" d="M438.04,17.97h-3.35V9.43c0-4.44-3.6-8.04-8.04-8.04c-4.45,0-8.04,3.6-8.04,8.04v8.54h-3.42
			c-4.44,0-8.04,3.6-8.04,8.04c0,4.44,3.6,8.04,8.04,8.04h3.42v36.85c0,4.44,3.6,8.04,8.04,8.04c4.44,0,8.04-3.6,8.04-8.04V34.05
			h3.35c4.44,0,8.04-3.6,8.04-8.04C446.08,21.57,442.48,17.97,438.04,17.97z M99,70.91V25.2c0-4.44,3.6-8.04,8.04-8.04
			c4.44,0,8.04,3.6,8.04,8.04v45.71c0,4.44-3.6,8.04-8.04,8.04C102.6,78.95,99,75.35,99,70.91z M210.65,17.97h-3.36V9.43
			c0-4.44-3.6-8.04-8.04-8.04c-4.44,0-8.04,3.6-8.04,8.04v8.54h-3.42c-4.44,0-8.04,3.6-8.04,8.04c0,4.44,3.6,8.04,8.04,8.04h3.42
			v36.85c0,4.44,3.6,8.04,8.04,8.04c4.44,0,8.04-3.6,8.04-8.04V34.06h3.36c4.44,0,8.04-3.6,8.04-8.04
			C218.69,21.57,215.1,17.97,210.65,17.97z M170.22,21.46c-4.5-3.34-10.27-5.46-16.68-5.49c-6.08-0.02-11.17,1.83-15.26,4.43
			c-1.47-1.96-3.79-3.25-6.42-3.25c-4.44,0-8.04,3.6-8.04,8.04v45.71c0,4.44,3.6,8.04,8.04,8.04c4.44,0,8.04-3.6,8.04-8.04v-34.9
			c0.13-0.16,0.24-0.33,0.37-0.49c2.64-3.07,8.43-3.42,13.26-3.47c2.65-0.03,5.36,1,7.06,2.29c0.85,0.63,1.42,1.3,1.67,1.71
			c0.09,0.15,0.14,0.26,0.17,0.32v34.13c0,4.44,3.6,8.04,8.04,8.04c4.44,0,8.04-3.6,8.04-8.04V36.23
			C178.39,29.57,174.62,24.8,170.22,21.46z M264.81,59.83c0,0-0.71,0.34-1.98,0.91c-1.89,0.84-4.93,2.13-7.93,3.15
			c-2.95,1.04-6.1,1.71-7.04,1.65c-1.84,0.05-6.18-0.88-9.19-3.31c-2.37-1.95-4.44-4.45-5.28-9.15h34.17c0.21,0,0.41-0.04,0.61-0.06
			c0.2,0.02,0.39,0.06,0.6,0.06c3.99,0,7.24-3.24,7.24-7.24c-0.03-8.34-3.79-15.59-8.89-20.84c-5.15-5.21-11.79-8.83-19.25-8.92
			c-6.28,0.01-13.57,1.92-19.53,7.3c-6,5.37-9.88,14.1-9.81,25.26c-0.12,11.57,4.98,20.27,11.3,25.02
			c6.33,4.81,13.05,6.29,18.05,6.34c5.49-0.1,10.63-2,15.22-3.7c4.47-1.73,7.93-3.4,8.04-3.46c3.6-1.75,5.1-6.07,3.36-9.67
			C272.73,59.58,268.41,58.08,264.81,59.83L264.81,59.83z M238.05,34.11c2.67-2.46,6.44-3.56,9.82-3.55c2.18-0.08,6,1.52,8.89,4.55
			c1.9,1.93,3.34,4.28,4.12,6.71h-27.13C234.66,38.06,236.29,35.76,238.05,34.11z M397.29,59.83c0,0-0.71,0.34-1.98,0.91
			c-1.89,0.84-4.93,2.13-7.93,3.15c-2.95,1.04-6.1,1.71-7.04,1.65c-1.84,0.05-6.18-0.88-9.19-3.31c-2.37-1.95-4.44-4.45-5.28-9.15
			h34.17c0.21,0,0.41-0.04,0.61-0.06c0.2,0.02,0.39,0.06,0.6,0.06c3.99,0,7.24-3.24,7.24-7.24c-0.03-8.34-3.79-15.59-8.89-20.84
			c-5.15-5.21-11.79-8.83-19.25-8.92c-6.28,0.01-13.57,1.92-19.53,7.3c-6,5.37-9.88,14.1-9.81,25.26
			c-0.12,11.57,4.98,20.27,11.3,25.02c6.33,4.81,13.05,6.29,18.05,6.34c5.5-0.1,10.63-2,15.22-3.7c4.48-1.73,7.93-3.4,8.04-3.46
			c3.59-1.75,5.1-6.07,3.35-9.67C405.21,59.58,400.88,58.08,397.29,59.83L397.29,59.83z M370.52,34.11
			c2.67-2.46,6.44-3.56,9.82-3.55c2.18-0.08,6,1.52,8.89,4.55c1.9,1.93,3.34,4.28,4.12,6.71h-27.13
			C367.14,38.06,368.76,35.76,370.52,34.11z M308.54,18.3c-6.55,0-8,3.17-9.67,5.02c-0.37,0.4-0.7,0.83-1,1.25
			c-0.32-4.14-3.75-7.41-7.98-7.41c-4.44,0-8.04,3.6-8.04,8.04v45.71c0,4.44,3.6,8.04,8.04,8.04c4.44,0,8.04-3.6,8.04-8.04v-29.8
			c2.14-2.05,5.26-4.86,7.81-6.44c4.24-2.64,10.39-1.76,10.39-8.55C316.14,19.4,313.26,18.3,308.54,18.3z M347.19,25.2
			c0-4.44-3.6-8.04-8.04-8.04c-4.44,0-8.04,3.6-8.04,8.04v36.92c0,0.22,0.05,0.43,0.07,0.65c-0.31,1.79-1.13,3.65-3.31,3.65
			c-3.11,0-5.45-1.44-6.36-2.27c-0.91-0.83-5.6-2.5-7.5,0.08c-1.89,2.58-2.32,6.38,1.74,10.08c2.5,2.27,7.95,5.15,12.65,5.15
			c7.22,0,17.46-5.6,18.59-15.58c0.13-0.56,0.2-1.14,0.2-1.74V25.2z"/>
		<path class="st1" d="M73.57,34.38H50.85L66.92,18.3c1.88-1.88,1.88-4.94,0-6.82c-1.88-1.88-4.94-1.88-6.82,0L44.02,27.55V4.82
			C44.02,2.16,41.86,0,39.2,0c-2.67,0-4.83,2.16-4.83,4.82v22.73L18.31,11.48c-1.88-1.88-4.94-1.88-6.82,0
			c-1.88,1.88-1.88,4.94,0,6.82l16.07,16.07H4.83C2.16,34.37,0,36.53,0,39.2c0,2.67,2.16,4.83,4.83,4.83h22.73L11.48,60.09
			c-1.88,1.88-1.88,4.94,0,6.82c0.94,0.94,2.18,1.41,3.41,1.41s2.47-0.47,3.41-1.41l16.07-16.07v22.73c0,2.66,2.16,4.83,4.83,4.83
			c2.66,0,4.82-2.16,4.82-4.83V50.85l16.07,16.07c0.94,0.94,2.18,1.41,3.41,1.41s2.47-0.47,3.41-1.41c1.88-1.88,1.88-4.94,0-6.82
			L50.85,44.02l22.72,0c2.67,0,4.83-2.16,4.83-4.83C78.4,36.54,76.24,34.38,73.57,34.38L73.57,34.38z"/>
		<path class="st2" d="M67.04,34.19H51.66l9.5-9.5c1.88-1.88,1.88-4.94,0-6.82c-1.88-1.88-4.94-1.88-6.82,0h0L38.01,34.18H11.3
			c-2.67,0-4.82,2.16-4.82,4.82s2.16,4.83,4.82,4.83h26.01l17.44,17.45c0.94,0.94,2.18,1.41,3.41,1.41c1.24,0,2.47-0.47,3.41-1.41
			c1.88-1.89,1.88-4.94,0-6.82L50.96,43.84h16.08c2.67,0,4.83-2.16,4.83-4.83C71.86,36.35,69.7,34.19,67.04,34.19L67.04,34.19z"/>
	</g>
</g>
</svg>
