<?xml version="1.0" encoding="utf-8"?>
<!-- Generator: Adobe Illustrator 25.3.1, SVG Export Plug-In . SVG Version: 6.00 Build 0)  -->
<svg version="1.1" id="Layer_1" xmlns="http://www.w3.org/2000/svg" xmlns:xlink="http://www.w3.org/1999/xlink" x="0px" y="0px"
	 viewBox="0 0 133.18 80" style="enable-background:new 0 0 133.18 80;" xml:space="preserve">
<style type="text/css">
	.st0{fill:#ED4138;}
	.st1{fill:#00693A;}
	.st2{fill:#DF1804;}
	.st3{fill:#214078;}
	.st4{fill:#3487C7;}
	.st5{fill:url(#SVGID_1_);}
	.st6{fill:url(#SVGID_2_);}
	.st7{fill:#184A8A;}
	.st8{fill:url(#SVGID_3_);}
	.st9{fill:url(#SVGID_4_);}
	.st10{fill:url(#SVGID_5_);}
	.st11{fill:url(#SVGID_6_);}
	.st12{fill:#9E8266;}
	.st13{fill:#322E26;}
	.st14{fill:#332F27;}
	.st15{fill:#791722;}
	.st16{fill:url(#SVGID_7_);}
	.st17{fill:url(#SVGID_8_);}
	.st18{fill:url(#SVGID_9_);}
	.st19{fill:url(#SVGID_10_);}
	.st20{fill:url(#SVGID_11_);}
	.st21{fill:url(#SVGID_12_);}
	.st22{fill:url(#SVGID_13_);}
	.st23{fill:url(#SVGID_14_);}
	.st24{fill:url(#SVGID_15_);}
	.st25{fill:url(#SVGID_16_);}
	.st26{fill:url(#SVGID_17_);}
	.st27{fill:url(#SVGID_18_);}
	.st28{fill:url(#SVGID_19_);}
	.st29{fill:url(#SVGID_20_);}
	.st30{fill:url(#SVGID_21_);}
	.st31{fill:#222325;}
	.st32{fill:#A0925A;}
	.st33{fill:#061E34;}
	.st34{fill:#028E8F;}
	.st35{fill:#D5192C;}
	.st36{fill:#FAC201;}
	.st37{fill:url(#SVGID_22_);}
	.st38{fill:url(#SVGID_23_);}
	.st39{fill:url(#SVGID_24_);}
	.st40{fill:url(#SVGID_25_);}
	.st41{fill:#9F8A58;}
	.st42{fill:#749ED4;}
	.st43{fill:#045991;}
	.st44{fill:#1F9A8D;}
	.st45{fill:#222D68;}
	.st46{fill:#14152E;}
	.st47{fill:#62B3E4;}
	.st48{fill:#FEFEFE;}
	.st49{fill:none;}
	.st50{fill:#FC0302;}
	.st51{fill:#FE0807;}
	.st52{fill:#98684C;}
	.st53{fill:#86754D;}
	.st54{fill:#42484D;}
	.st55{fill:#41474C;}
	.st56{fill:#43494D;}
	.st57{fill:#DF073D;}
	.st58{fill:#DE023A;}
	.st59{fill:#FFFFFF;}
	.st60{fill:#6F6E6C;}
	.st61{fill:#072F67;}
	.st62{fill:#53A220;}
	.st63{fill:#FDC013;}
	.st64{fill:url(#SVGID_26_);}
	.st65{fill:url(#SVGID_27_);}
	.st66{fill:url(#SVGID_28_);}
	.st67{fill:#793A98;}
	.st68{fill:url(#SVGID_29_);}
	.st69{fill:url(#SVGID_30_);}
	.st70{fill:url(#SVGID_31_);}
	.st71{fill:url(#SVGID_32_);}
	.st72{fill:url(#SVGID_33_);}
</style>
<g>
	<path class="st47" d="M93.77,65.2c-0.7,0.56-1.09,1.36-1.62,2.05c-3.32,4.3-7.53,7.43-12.43,9.69c-0.41,0.19-0.76,0.37-1.37,0.55
		c-0.04-0.04,0.03-0.18,0.01-0.22c-0.02-0.03-0.04-0.07-0.03-0.1c0.08-0.29,0.14-0.59,0.25-0.87c3.98-10.93,7.97-21.86,11.97-32.83
		c2.88,0,5.7,0,8.53,0c-0.09,1.46,0.31,2.89,0.19,4.35c-0.15,1.6-0.3,3.2-0.46,4.8c-0.34,1.36-0.76,2.69-0.93,4.09
		c-0.36,1.15-0.7,2.31-1.32,3.36c-0.25,0.43-0.35,0.89-0.28,1.39c-0.11-0.01-0.21-0.02-0.4-0.03C95.28,62.71,94.48,63.93,93.77,65.2
		z"/>
	<path d="M35.1,38.61c-0.18,1.32-0.74,2.57-0.85,3.9c-0.03,0.3-0.06,0.6-0.09,0.89l0.02-0.02c-0.31,0.02-0.61,0.05-0.92,0.05
		c-8.96,0-17.92-0.01-26.88,0.01C4.53,43.46,3,42.89,1.78,41.52c-0.7-0.79-1.14-1.7-1.36-2.9C12.02,38.61,23.56,38.61,35.1,38.61z"
		/>
	<path d="M98.81,52.63c0.15-1.6,0.3-3.2,0.46-4.8c8.72,0,17.45,0,26.19,0c-0.4,2.89-2.35,4.7-5.16,4.8
		c-1.64,0.06-3.29,0.02-4.94,0.02C109.83,52.64,104.32,52.64,98.81,52.63z"/>
	<path d="M34.15,47.83c-0.1,1.6,0.24,3.17,0.3,4.76c-0.3,0.02-0.61,0.07-0.91,0.07c-6.47,0-12.94,0-19.4,0.01
		c-1.12,0-2.21-0.12-3.21-0.68c-1.58-0.88-2.39-2.28-2.74-4.15C16.87,47.83,25.51,47.83,34.15,47.83z"/>
	<path d="M96.28,61.47c-0.07-0.5,0.03-0.96,0.28-1.39c0.62-1.05,0.96-2.21,1.32-3.36c0.27-0.02,0.53-0.05,0.8-0.05
		c6.2,0,12.4,0,18.6,0c0.26,0,0.53-0.08,0.78,0.08c-0.28,2.47-2.04,4.3-4.45,4.62c-0.42,0.06-0.84,0.11-1.26,0.11
		C106.99,61.48,101.64,61.47,96.28,61.47z"/>
	<path d="M71.69,0.33c2.73,0.02,4.8,2.09,4.81,4.8c0,2.75-2.16,4.88-4.9,4.82c-2.71-0.06-4.77-2.16-4.75-4.86
		C66.87,2.39,68.98,0.32,71.69,0.33z M71.69,7.83c1.69-0.01,3.05-1.35,2.92-2.87c-0.13-1.52-1.52-2.61-3.16-2.5
		c-1.47,0.1-2.76,1.41-2.72,2.77C68.77,6.67,70.1,7.83,71.69,7.83z"/>
	<path d="M92.8,9.52c-0.63,0-1.16,0-1.82,0c-1.45-1.9-2.96-3.86-4.61-6.02c0,2.14,0,4.08,0,6.01c-0.64,0-1.14,0.01-1.81,0
		c0-2.98,0-6.06,0-9.02c1.13,0,1.1,0.01,1.75-0.01c1.51,1.97,3.01,3.93,4.68,6.11c0-2.18,0-4.19,0-6.1c0.82-0.01,1.2,0,1.81-0.01
		C92.8,3.52,92.8,6.49,92.8,9.52z"/>
	<path d="M48.78,8.64c-1.43,1.75-4.86,2.21-6.94,0.17c-1.85-1.82-1.91-4.85-0.16-6.76c1.53-1.67,4.53-2.24,6.63-0.18
		c-0.3,0.49-0.61,1-0.92,1.5c-2.29-1.04-3.7-0.87-4.64,0.54c-0.67,1.01-0.53,2.39,0.34,3.27c1.02,1.03,2.52,1.14,3.81,0.21
		c0-0.66,0-1.45,0-2.18c0.84-0.03,1.19-0.04,1.89-0.05C48.78,6.4,48.78,7.53,48.78,8.64z"/>
	<path d="M25.98,0.58c2.17,0,4.37,0,6.49,0c0.01,0.84,0,1.15-0.01,1.84c-1.57,0-3.05,0.01-4.57,0.01c0,0.67,0,1.22,0,1.86
		c1.36,0,2.75,0,4.09,0c0,0.61,0,0.98,0.01,1.65c-1.44,0-2.72,0-4.07,0c-0.13,0.74-0.09,1.35-0.05,2.07c1.56,0,3.11,0,4.68,0
		c0,0.6,0.02,0.97,0.02,1.49c-2.19,0-4.36,0-6.59,0C25.98,6.53,25.98,3.6,25.98,0.58z"/>
	<path d="M10.06,9.75c0-3,0-6.03,0-9c0.59,0,0.86-0.02,1.3-0.02c1.11,0.01,2.22-0.09,3.33,0.07c1.55,0.22,2.32,0.87,2.59,2.18
		c0.24,1.16-0.18,2.74-1.49,3.29c-0.07,0.03-0.12,0.09-0.26,0.21c0.69,0.96,1.38,1.93,2.16,3.01c-0.81,0-1.47,0-2.27,0
		c-0.63-0.87-1.32-1.83-2.03-2.8c-0.54-0.14-1.1-0.04-1.75-0.05c0,1.07,0,2.12,0,3.12C11.04,9.75,10.6,9.76,10.06,9.75z M11.9,5.08
		c0.87,0.14,1.66,0.08,2.45-0.07c0.87-0.17,1.23-0.58,1.21-1.37c-0.02-0.74-0.49-1.31-1.26-1.37c-0.78-0.06-1.58-0.01-2.4-0.01
		C11.9,3.22,11.9,4.09,11.9,5.08z"/>
	<path d="M108.19,9.5c-0.28-0.58-0.55-1.16-0.85-1.78c-1.22,0-2.43,0-3.7,0c-0.46,0.47-0.51,1.22-0.98,1.79c-0.53,0-1.09,0-1.8,0
		c1.33-3.01,2.66-6.02,3.95-8.94c0.61,0,0.78-0.01,1.28-0.01c1.29,2.93,2.62,5.92,3.95,8.94C109.36,9.57,108.8,9.58,108.19,9.5z
		 M104.31,6.13c0.82-0.01,1.5,0.03,2.37-0.02c-0.46-0.86-0.77-1.6-1.31-2.51C105,4.54,104.64,5.26,104.31,6.13z"/>
	<path d="M123.62,8.03c0.08,0.58,0.11,0.99-0.02,1.47c-1.81,0-3.63,0-5.51,0c0-2.96,0-6.01,0-8.92c0.55-0.01,0.53-0.01,0.78-0.01
		c0.28,0,0.38,0,0.85,0c0,2.41,0,4.94,0,7.46C121.06,8.03,122.3,8.03,123.62,8.03z"/>
	<path d="M58.78,9.51c-0.5,0-1.08,0-1.53,0c-0.01-0.94-0.01-6.65,0.01-8.95c0.51-0.01,0.96-0.03,1.52-0.01
		C58.78,3.53,58.78,6.45,58.78,9.51z"/>
	<path d="M62.46,47.99c0.7-1.11,1.2-1.92,1.78-2.88c1.18-1.96,2.25-3.99,3.37-5.98c0.09-0.16,0.23-0.3,0.37-0.48
		c1.8,0,3.59,0,5.57,0c-2.27,3.62-4.49,7.16-6.69,10.67c1.58,4.14,3.14,8.22,4.75,12.42c-1.89,0-3.59,0-5.43,0
		c-1.4-3.5-2.83-7.06-4.36-10.88c-0.44,3.78-0.85,7.3-1.27,10.89c-1.71,0-3.38,0-5.2,0c0.63-5.41,1.37-10.81,2.06-16.22
		c0.69-5.43,1.4-10.85,2.1-16.31c1.76,0,3.43,0,5.05,0c0.21,0.13,0.19,0.3,0.17,0.44c-0.39,2.33-0.63,4.67-0.92,7.01
		c-0.33,2.64-0.76,5.27-1.07,7.91"/>
	<g>
		<path class="st49" d="M67.61,39.13c-1.12,2-2.2,4.02-3.37,5.98c-0.58,0.96-0.92,2.08-1.77,2.87c0,0.01,0,0.01,0,0.02l-0.01-0.01
			c0,0,0-0.01,0.01-0.01c-0.16-1.15,0.15-2.27,0.28-3.4c0.3-2.64,0.74-5.27,1.07-7.91c0.29-2.34,0.53-4.69,0.92-7.01
			c0.02-0.14,0.04-0.31-0.17-0.44c-1.62,0-3.29,0-5.05,0c-0.71,5.46-1.42,10.88-2.1,16.31c-0.68,5.41-1.43,10.81-2.06,16.22
			c1.83,0,3.5,0,5.2,0c0.42-3.59,0.83-7.11,1.27-10.89c1.53,3.82,2.95,7.38,4.36,10.88c1.84,0,3.54,0,5.43,0
			c-1.61-4.21-3.17-8.29-4.75-12.42c2.2-3.51,4.42-7.05,6.69-10.67c-1.98,0-3.77,0-5.57,0C67.84,38.82,67.7,38.96,67.61,39.13z"/>
		<path class="st47" d="M97.9,37.8c-2.17-7.18-6.27-13.01-12.36-17.42c-5.54-4.01-11.79-5.96-18.59-6.1
			c-2.47-0.05-4.94,0.25-7.37,0.82c-9.85,2.31-17.05,8.02-21.85,16.85c-1.15,2.11-1.89,4.39-2.63,6.67
			c-0.18,1.32-0.74,2.57-0.85,3.9c0.13,0.31,0.2,0.62-0.09,0.89l0.02-0.02c-0.01,1.48-0.02,2.96-0.03,4.43
			c-0.1,1.6,0.24,3.17,0.3,4.76c0.32,0.37,0.26,0.88,0.34,1.3c0.16,0.93,0.65,1.8,0.54,2.78c2.64,0.01,5.28,0.08,7.92,0.01
			c1.12-0.03,2.29-0.14,3.25-0.9c1.44-1.14,1.65-2.65,1.37-4.33c-0.45-2.72-1.48-5.27-2.33-7.86c-0.7-2.11-1.21-4.29-1.15-6.48
			c0.09-3.26,1.35-5.9,5.2-7.28c1.63-0.58,4.09-0.87,5.7-0.54c-0.26,1.67-0.51,3.34-0.78,5.06c-0.76,0.11-1.47,0.22-2.17,0.33
			c-1.43,0.22-2.26,0.8-2.74,1.97c0.36,1.9,0.97,3.78,1.52,5.68c0.79,2.78,1.58,5.56,2.08,8.4c0.28,1.61,0.43,3.24-0.04,4.87
			c-0.73,2.49-2.47,3.97-4.82,4.81c-1.66,0.59-3.39,0.8-5.14,0.98c-1.87,0.19-3.74,0.06-5.61,0.22c0.08,0.5,0.39,0.9,0.61,1.34
			c0.39,0.78,0.97,1.45,1.28,2.27c0.26,0.11,0.42,0.33,0.57,0.55c1.26,1.93,2.85,3.58,4.51,5.17c3.31,3.16,7.15,5.45,11.47,6.96
			c2.6,0.91,5.28,1.39,8.03,1.67c2.19,0.23,4.35,0.06,6.51-0.1c0.63-0.05,1.26-0.22,2.02-0.35c0.12-0.64,0.09-1.01,0.26-1.47
			c1.78-5.02,3.57-10.05,5.38-15.06c0.29-0.81,0.41-1.56,0.22-2.44c-0.16-0.77-0.22-1.58-0.31-2.38c-0.16-1.44-0.33-2.87-0.52-4.31
			c-0.2-1.58-0.42-3.17-0.64-4.75c-0.18-1.36-0.36-2.72-0.53-4.07c-0.25-1.91-0.5-3.81-0.76-5.76c1.69,0,3.29,0,5.03,0
			c0.47,5.12,0.94,10.21,1.41,15.29c0.11,0.02,0.23,0.04,0.34,0.06c1.73-5.19,3.29-10.43,5.02-15.66c3.61,0,7.14,0,10.66,0
			C98.04,38.31,97.97,38.05,97.9,37.8z M66.85,49.32c1.58,4.14,3.14,8.22,4.75,12.42c-1.89,0-3.59,0-5.43,0
			c-1.4-3.5-2.83-7.06-4.36-10.88c-0.44,3.78-0.85,7.3-1.27,10.89c-1.71,0-3.38,0-5.2,0c0.63-5.41,1.37-10.81,2.06-16.22
			c0.69-5.43,1.4-10.85,2.1-16.31c1.76,0,3.43,0,5.05,0c0.21,0.13,0.19,0.3,0.17,0.44c-0.39,2.33-0.63,4.67-0.92,7.01
			c-0.33,2.64-0.76,5.27-1.07,7.91c-0.13,1.13-0.45,2.27-0.29,3.42c0.72-1.11,1.2-1.93,1.78-2.9c1.18-1.96,2.25-3.99,3.37-5.98
			c0.09-0.16,0.23-0.3,0.37-0.48c1.8,0,3.59,0,5.57,0C71.27,42.27,69.06,45.8,66.85,49.32z"/>
		<path class="st47" d="M34.24,42.52c-0.03,0.3-0.06,0.6-0.09,0.89C34.44,43.14,34.38,42.83,34.24,42.52z"/>
	</g>
	<path d="M78.45,76.86c0,0.04-0.01,0.55,0.03,0.59c-1.45,0.63-3.67,1.13-6.1,1.7c0.19-0.67,0.28-1.05,0.44-1.51
		c1.78-5.02,3.57-10.05,5.38-15.06c0.29-0.81,0.41-1.56,0.22-2.44c-0.16-0.77-0.22-1.58-0.31-2.38c-0.16-1.44-0.33-2.87-0.52-4.31
		c-0.2-1.58-0.42-3.17-0.64-4.75c-0.18-1.36-0.36-2.72-0.53-4.07c-0.25-1.91-0.5-3.81-0.76-5.76c1.69,0,3.29,0,5.03,0
		c0.47,5.12,0.94,10.21,1.41,15.29c0.11,0.02,0.23,0.04,0.34,0.06c1.73-5.19,3.29-10.43,5.02-15.66c3.61,0,7.14,0,10.66,0
		c0.42,0.02,0.84,0.05,1.26,0.05c10.81,0,21.62,0,32.43,0.01c0.41,0,0.83-0.09,1.26,0.09c-0.47,2.35-1.72,3.97-4.1,4.58
		c-0.72,0.19-1.45,0.15-2.17,0.15c-8.82,0-17.63,0-26.45,0c-0.42,0-0.84,0.02-1.26,0.03c-2.82,0-5.65,0-8.53,0
		c-4,10.96-7.99,21.89-11.97,32.83"/>
	<path d="M35.32,56.66c2.64,0.01,5.28,0.08,7.92,0.01c1.12-0.03,2.29-0.14,3.25-0.9c1.44-1.14,1.65-2.65,1.37-4.33
		c-0.45-2.72-1.48-5.27-2.33-7.86c-0.7-2.11-1.21-4.29-1.15-6.48c0.09-3.26,1.35-5.9,5.2-7.28c1.62-0.58,4.09-0.87,5.7-0.54
		l-0.78,5.06c-0.76,0.11-1.47,0.22-2.17,0.33c-0.94,0.14-1.62,0.44-2.11,0.96c-0.45,0.47-0.61,1.16-0.47,1.79
		c0.37,1.63,0.89,3.25,1.35,4.89c0.79,2.78,1.58,5.56,2.08,8.4c0.28,1.61,0.43,3.24-0.04,4.87c-0.73,2.49-2.47,3.97-4.82,4.82
		c-1.66,0.59-3.39,0.8-5.14,0.98c-1.87,0.19-3.74,0.06-5.61,0.22c-0.41-0.15-0.83-0.1-1.25-0.1c-4.94,0-9.89,0-14.83,0
		c-0.78,0-1.57-0.07-2.31-0.33c-2.07-0.71-3.21-2.23-3.64-4.5C22.17,56.66,28.74,56.66,35.32,56.66z"/>
</g>
</svg>
