<?xml version="1.0" encoding="utf-8"?>
<!-- Generator: Adobe Illustrator 25.4.1, SVG Export Plug-In . SVG Version: 6.00 Build 0)  -->
<svg version="1.1" id="Layer_1" xmlns="http://www.w3.org/2000/svg" xmlns:xlink="http://www.w3.org/1999/xlink" x="0px" y="0px"
	 viewBox="0 0 436.8 80" style="enable-background:new 0 0 436.8 80;" xml:space="preserve">
<style type="text/css">
	.st0{fill:#0C0C11;}
	.st1{fill:#0A3A68;}
	.st2{fill:#E54734;}
	.st3{fill:#1C6FAA;}
	.st4{fill:#65ACDD;}
</style>
<path class="st0" d="M84.9-885.5c-0.7-0.1-1.8,0-2.5,0c0.5-0.4,1.2-0.7,1.6-0.5c0.1,0,0.1,0,0.2,0.1
	C84.4-885.8,84.7-885.6,84.9-885.5z"/>
<g>
	<g>
		<polygon class="st1" points="184.7,33.8 178.3,33.8 178.3,59.4 184.7,59.4 196.2,59.4 196.2,55.1 184.7,55.1 		"/>
		<path class="st1" d="M277.4,33.8h-5.7H271l-7,16.7c-1.1,0.1-3.3,0.6-4.2,3.3h2.8l-2.3,5.6h6.5l2.3-5.6h5.1c0,0,4.1-0.3,4.1-3.3
			h-7.8l4.1-9.9l7.8,18.7h6.5l-10.7-25.5H277.4z"/>
		<polygon class="st1" points="310.5,50.7 297.4,33.8 292,33.8 292,59.4 297.4,59.4 297.4,43.1 310.5,59.4 315.3,59.4 315.3,33.8 
			310.5,33.8 		"/>
		<path class="st1" d="M155.2,33.8l-3.9,4.9h3.9v20.6h6.5v-9.6h6.1l2.4-4.6h-8.5v-6.4h9.3c0,0,5.5-0.9,5.5-4.9h-14.8H155.2z"/>
		<polygon class="st1" points="432,33.8 432,50.7 418.9,33.8 413.6,33.8 413.6,59.4 418.9,59.4 418.9,43.1 432,59.4 436.8,59.4 
			436.8,33.8 		"/>
		<polygon class="st1" points="208.4,45.2 202.2,33.8 196.4,33.8 206.1,51 206.1,59.4 211.1,59.4 211.1,51.1 221.3,33.8 215.6,33.8 
					"/>
		<path class="st1" d="M245.1,48.6h5.9v2.8c0,0-0.6,3.7-5.9,3.7c-5.3,0-8.6-3.6-8.6-8.6c0-5,5-8.6,8.4-8.6c3.4,0,8.1-1,8.1-4.8h-8.2
			c0,0-13.8,0.1-13.8,12.8c0,12.7,11.3,14,13.4,14c2,0,8.1-0.8,10.9-2.5V44.6h-7.7L245.1,48.6z"/>
		<path class="st1" d="M333.8,48.6h5.9v2.8c0,0-0.6,3.7-5.9,3.7c-5.3,0-8.6-3.6-8.6-8.6c0-5,5-8.6,8.4-8.6s8.1-1,8.1-4.8h-8.2
			c0,0-13.8,0.1-13.8,12.8c0,12.7,11.3,14,13.4,14c2,0,8.1-0.8,10.9-2.5V44.6h-7.7L333.8,48.6z"/>
		<polygon class="st1" points="370.7,49.8 366.2,33.8 360.7,33.8 356.3,49.5 351.9,33.8 346.4,33.8 353.6,59.4 359.1,59.4 
			363.5,43.7 367.9,59.4 368.1,59.4 373.4,59.4 373.6,59.4 380.7,33.8 375.2,33.8 		"/>
		<path class="st1" d="M396.4,33.5c-7.5,0-13.6,5.9-13.6,13.1s6.1,13.1,13.6,13.1c7.5,0,13.6-5.9,13.6-13.1S403.8,33.5,396.4,33.5z
			 M396.4,55.5c-4.7,0-8.6-4-8.6-8.9s3.8-8.9,8.6-8.9c4.7,0,8.6,4,8.6,8.9S401.1,55.5,396.4,55.5z"/>
	</g>
	<path class="st2" d="M70.7,55l2,3c0,0,4-6.2,13.4-12.2s38.4-17.8,42-19.4s11.9-6.2,11.9-26c0,0-3.9,7.5-12.5,13.9S91.3,37,83.1,43
		S70.7,55,70.7,55z"/>
	<path class="st2" d="M66.1,66.9l1.7,2.4c0,0,2.1-5.6,2.2-5.7c0.1-0.1-2.1-2.4-2.1-2.4S66.3,64.8,66.1,66.9z"/>
	<path class="st2" d="M65.2,72.8l1.2,1.9c0,0-1.2,2.3-1.2,5.3C65.2,80,64.2,76.1,65.2,72.8z"/>
	<path class="st2" d="M72.7,69.3l1.7-2.2c0,0,2.5,7.4,1.2,12.9C75.6,80,74.4,71.7,72.7,69.3z"/>
	<path class="st2" d="M72.9,60.1l-2,2.8c0,0-3.5-7.5-14-14.5S33.5,35.3,29.5,33.5c-4-1.8-20.1-8.2-23.4-11.8S0,11.8,0,0
		c0,0,4.7,8.9,13.1,14.7S54.5,40,61.4,46.2S72.9,60.1,72.9,60.1z"/>
	<path class="st3" d="M9.1,29.5c0,0,6.8,12.8,13.8,14s30.1,6.3,42.7,20.2l1.5-3.4c0,0-6.8-9.2-19.8-15.5S9.1,29.5,9.1,29.5z"/>
	<path class="st4" d="M24.8,49c0,0,1.8,5.8,8.1,6.5s11.5,0.2,20.5,4.5S67,73.2,68.7,79.6c0,0,0.4-10.8-8.6-18.4S32.7,49.3,24.8,49z"
		/>
	<path class="st3" d="M69.2,69.7c0,0,1.5,2.9,1.8,4.7c0,0,0.6-3.2-0.6-6.6C70.3,67.7,69.3,69.3,69.2,69.7z"/>
	<path class="st4" d="M72.3,72.8c0,0-1.4,4.4,0,7.2c0,0-0.2-3.7,1.1-5.4L72.3,72.8z"/>
	<path class="st3" d="M69.2,72.6l0.9,1.4c0,0-0.6,1.5-0.5,3.4C69.7,77.4,68.8,75.4,69.2,72.6z"/>
	<path class="st4" d="M75.6,67.1l0.8,2.2c0,0,3.1-4.6,9.5-8.4s14.7-4.6,18.7-4.7s10.1-3,11-6.8c0,0-14.2,1.4-24.3,5.5
		C80.3,59.3,75.6,67.1,75.6,67.1z"/>
	<path class="st3" d="M72.1,68.6l-1.2-2.7c0,0,3.9-8.2,12.1-14.4s21.4-11.9,29.1-14.8c7.6-2.9,19-6.8,19-6.8s-5.9,12.3-13,13.7
		c0,0-14.6,2.9-24.8,7.4S76.7,60.5,72.1,68.6z"/>
</g>
</svg>
