<?xml version="1.0" encoding="utf-8"?>
<!-- Generator: Adobe Illustrator 25.4.1, SVG Export Plug-In . SVG Version: 6.00 Build 0)  -->
<svg version="1.1" id="Layer_1" xmlns="http://www.w3.org/2000/svg" xmlns:xlink="http://www.w3.org/1999/xlink" x="0px" y="0px"
	 viewBox="0 0 103.8 80" style="enable-background:new 0 0 103.8 80;" xml:space="preserve">
<style type="text/css">
	.st0{fill:#0C0C11;}
	.st1{fill:#B92E39;}
	.st2{fill:#347DB4;}
</style>
<path class="st0" d="M84.9-885.5c-0.7-0.1-1.8,0-2.5,0c0.5-0.4,1.2-0.7,1.6-0.5c0.1,0,0.1,0,0.2,0.1
	C84.4-885.8,84.7-885.6,84.9-885.5z"/>
<g>
	<path class="st1" d="M0,37.3c0,0.3,7.5-22,40-28.5s57,5.2,63.7,10.8c0,0-21.3-27.8-66.4-17.2C37.3,2.4,0,10.6,0,37.3z"/>
	<path class="st2" d="M103.8,29.6c0-1.9,0-3-4.2-3h-16c0,0-3.7,0-3.7,2.8c0,2.8,2.5,2.8,4.6,2.8s4.9-0.5,2.8,3.2
		c-2.1,3.7-15,26.6-15,26.6l-8.6-35.4h-6L34.4,61.5l-4.6-26.6c0,0-0.7-3.7,2.3-3.7c3,0,4.9,0,4.9,0s3.7-0.7,3.7-2.3
		c0-1.6-2.3-2.3-2.3-2.3H10.8c0,0-5.6,0.9-2.3,4.2c3.2,3.2,3.2,2.8,4.6,8.1C14.5,44.2,24.4,80,24.4,80h5.3L54,44.6L63.8,80H70
		l28.2-48.1C98.2,31.9,103.8,31.4,103.8,29.6z"/>
</g>
</svg>
