<svg width="80" height="80" viewBox="0 0 80 80" fill="none" xmlns="http://www.w3.org/2000/svg">
<path d="M29.5114 18.1344C23.0995 17.2592 19.8439 20.8219 15.3542 24.097L0.00496384 36.1313L0 36.1338L2.9551 37.6933C2.96006 37.6982 2.96752 37.7007 2.97497 37.7057C6.8191 39.5924 12.1656 38.9478 15.8061 36.2553L22.2875 31.1133L24.7658 29.1448L37.1177 19.3467L29.5114 18.1344Z" fill="#7BCBE2"/>
<path d="M0.0195312 36.1323L2.96966 37.6967C2.97711 37.6992 2.98208 37.7041 2.98953 37.7066C6.83365 39.5958 12.1826 38.9512 15.8231 36.2562L22.302 31.1167L24.7828 29.1482L0.0195312 36.1323Z" fill="#089BC9"/>
<path d="M55.7298 25.5676L47.4902 24.0874C47.4902 24.0874 41.7538 22.7263 36.9611 26.4328C36.9611 26.4328 33.4224 29.0608 30.8125 31.0938L25.009 35.683L11.5844 46.3438L11.4727 46.433L15.5254 48.5727C19.372 50.4693 24.7309 49.8272 28.3764 47.1297L40.3806 37.6366L50.0604 30.0253L55.7298 25.5676Z" fill="#8F174F"/>
<path d="M30.8081 31.0938C33.4131 29.0608 36.9518 26.4328 36.9518 26.4328C37.8582 25.7311 38.7993 25.213 39.7281 24.8312L24.7713 29.1476L22.2905 31.1136L15.8141 36.2556C12.1736 38.9506 6.82459 39.5952 2.98047 37.706C6.2584 39.6671 11.3491 40.1183 19.0175 37.8349L24.2548 36.2779L25.0072 35.6829L30.8081 31.0938Z" fill="#C8C4C3"/>
<path d="M51.9134 35.6661C54.3843 33.7347 56.2492 32.3364 58.1042 31.5059L41.3619 36.866L40.3786 37.6396L28.3744 47.1302C24.7289 49.8276 19.37 50.4722 15.5234 48.5731C21.4336 51.8135 30.5349 49.4309 38.1883 46.7137L38.6452 46.3443C38.6427 46.3443 51.4565 35.9958 51.9134 35.6661Z" fill="#C8C4C3"/>
<path d="M71.5883 46.4326C64.8685 44.4839 62.8521 45.7161 54.9354 48.0937H54.9329L54.2724 48.6416V48.6391L54.2649 48.6466L54.2724 48.6416L54.2525 48.654L41.4934 58.7545C37.8579 61.4445 32.1761 61.9627 28.332 60.0834C33.0751 62.5527 37.9796 61.9478 46.3706 59.3347L79.9992 49.0284L71.5883 46.4326Z" fill="#C8C4C3"/>
<path d="M73.8291 32.505L64.934 30.8886C59.6049 29.9018 57.0843 31.6224 51.9091 35.6661C51.4522 35.9983 38.641 46.3443 38.641 46.3443L24.2578 57.9299L28.308 60.0695C32.1571 61.9686 37.8637 61.4529 41.5067 58.7555L54.2658 48.655L54.2832 48.6426L54.2757 48.6475L73.8291 32.505Z" fill="#8F174F"/>
<path d="M24.2459 36.2757L52.692 27.9404L41.3458 36.8633L11.457 46.4308L24.2459 36.2757Z" fill="#B4175E"/>
<path d="M38.1816 46.7087L69.1581 36.3578L54.9438 48.0921L24.2578 57.9274L38.1816 46.7087Z" fill="#B4175E"/>
</svg>
