<svg width="224" height="80" viewBox="0 0 224 80" fill="none" xmlns="http://www.w3.org/2000/svg">
<path fill-rule="evenodd" clip-rule="evenodd" d="M21.8129 52.1838L21.0439 51.6027C16.9645 48.52 8.51633 48.827 4.45414 52.2056C-1.40196 57.0761 -1.50752 71.9635 4.27938 76.8749C8.7192 80.6432 17.5405 80.7652 21.648 77.1152L22.442 76.4097V78.941H30.551V39.2148H21.8856L21.8129 52.1838ZM55.1198 49.7325C49.3761 50.737 46.4894 53.8164 46.4894 58.9385C46.4894 64.6598 49.2265 66.9122 57.6525 68.125C62.2996 68.7939 63.2379 69.213 63.3643 70.6756C63.6565 74.0566 54.9153 74.0229 54.0076 70.6395L53.8414 70.02H45.3709V70.7244C45.3709 81.6825 69.0447 83.5992 71.7986 72.8641C73.6286 65.7302 70.1041 62.1191 59.9811 60.7566C56.0126 60.2226 55.1577 59.8013 55.1577 58.381C55.1577 55.5033 62.0715 55.439 62.8467 58.3095L62.9978 58.8688H71.3757V58.2639C71.3757 52.0791 63.9588 48.1867 55.1198 49.7325ZM85.2439 49.7523C70.7228 52.1805 69.6 75.5477 83.8317 79.1399C93.7942 81.6543 102.104 77.3744 103.063 69.2343L103.151 68.4867H94.467L94.2384 69.1727C93.1877 72.3266 87.5077 73.1017 84.8112 70.459C81.7884 67.4966 82.1671 60.3533 85.4625 58.1772C88.4039 56.2346 93.0245 57.1415 94.1651 59.8853L94.4959 60.6809H103.145L103.045 59.8808C102.089 52.2562 94.8619 48.144 85.2439 49.7523ZM116.604 49.7325C108.885 50.9423 105.04 55.9002 105.033 64.6535C105.024 74.7232 110.133 79.7064 120.449 79.6919C129.791 79.6788 134.78 75.5719 135.699 67.1369C137.051 54.7416 129.362 47.7332 116.604 49.7325ZM176.266 49.7384C161.981 52.3201 160.9 75.6116 174.902 79.1526C184.349 81.5419 192.52 77.8139 193.772 70.5427L193.862 70.02H185.238L185.061 70.5079C184.439 72.2228 182.001 73.1057 178.995 72.7047C175.777 72.2755 174.521 70.9779 173.932 67.4762L173.844 66.9534H194.247L194.347 66.022C195.552 54.8049 187.643 47.6824 176.266 49.7384ZM209.98 49.8056C208.018 50.3184 206.344 51.4451 205.432 52.8675L205.035 53.4873V50.366H196.926V78.941H205.584L205.664 61.3082L205.984 60.5173C206.876 58.3174 208.914 57.4667 212.606 57.753C213.555 57.8266 214.379 57.8882 214.437 57.8899C214.494 57.8917 214.542 56.0113 214.542 53.7114V49.5297L212.759 49.5374C211.488 49.5428 210.691 49.6197 209.98 49.8056ZM34.1861 78.941H42.8544V50.366H34.1861V78.941ZM134.926 51.3069C135.119 51.8243 137.53 58.2381 140.284 65.5595L145.292 78.8713L155.751 78.9392L161.049 64.8268C163.963 57.065 166.376 50.6352 166.412 50.5385C166.465 50.3982 165.515 50.3698 161.76 50.3991L157.042 50.4357L153.822 59.8794C151.906 65.4997 150.522 68.3103 150.522 68.3103C150.522 68.3103 149.138 65.4884 147.223 59.844L144.007 50.3685L134.576 50.366L134.926 51.3069ZM181.824 56.4376C183.877 56.92 185.022 58.183 185.387 60.3673L185.486 60.9597H173.991L174.083 60.5764C174.698 57.9979 175.84 56.8325 178.261 56.3128C178.928 56.1695 180.991 56.2419 181.824 56.4376ZM17.518 57.4068C20.9964 58.2243 22.8233 62.1784 21.8968 66.8837C20.5894 73.5235 11.2113 74.0913 9.23566 67.6504C7.24644 61.1649 11.4402 55.978 17.518 57.4068ZM122.449 57.4041C128.234 58.9063 128.847 69.4778 123.271 71.5581C119.082 73.1205 115.021 71.2271 114.067 67.2671C112.483 60.6933 116.575 55.8785 122.449 57.4041ZM216.65 69.5443C211.378 71.4506 212.345 79.2096 217.919 79.7285C223.665 80.2635 225.865 72.3869 220.693 69.7916C219.72 69.3029 217.665 69.1773 216.65 69.5443Z" fill="#52B8DB"/>
<path d="M3.77344 14.0718V31.0758H14.4334L15.0213 28.2457H7.16991V23.9298H13.6663L14.2573 20.8663H7.16991V16.8978H14.3873L15.0213 14.0718H3.77344Z" fill="#8F174F"/>
<path d="M112.464 23.6606C113.1 23.7391 113.966 23.8636 114.396 24.078C114.826 24.2946 115.188 24.6096 115.444 24.9203C115.698 25.231 115.882 25.5815 115.993 25.9718C116.104 26.3621 116.161 26.7555 116.161 27.1541V27.3937C116.161 28.0947 116.033 28.6953 115.778 29.1964C115.522 29.6986 115.16 30.1035 114.69 30.4143C114.219 30.725 113.324 30.974 112.661 31.1184C111.999 31.2628 111.271 31.3329 110.472 31.3329C109.802 31.3329 109.085 31.2806 108.32 31.1791C107.554 31.0745 106.789 30.9039 106.024 30.6644L106.556 28.3332C107.305 28.5404 107.983 28.6649 108.589 28.7528C109.195 28.8407 109.801 28.871 110.407 28.8836C110.976 28.8961 111.342 28.892 111.72 28.8501C112.068 28.8114 112.328 28.7099 112.519 28.5833C112.712 28.4557 112.89 28.2579 112.945 28.0612C112.995 27.8959 113.008 27.7986 113.008 27.5601C113.008 27.1939 112.906 26.9354 112.723 26.6896C112.54 26.4426 112.16 26.3077 111.569 26.2281L109.793 25.9844C108.548 25.8264 107.27 25.4863 106.678 24.8983C106.088 24.3093 105.793 23.5288 105.793 22.5589V22.3193C105.793 21.0627 106.259 20.1179 107.193 19.4891C108.127 18.8603 109.835 18.4616 111.574 18.4616C112.434 18.4616 113.212 18.5255 113.906 18.6531C114.601 18.7808 115.153 18.9241 115.568 19.0831L114.999 21.3441C114.441 21.1987 113.873 21.0951 113.337 21.025C112.753 20.9476 112.238 20.912 111.632 20.912C110.532 20.912 109.821 20.9748 109.43 21.2029C109.04 21.4352 108.871 21.6538 108.871 22.1634C108.871 22.5923 109.012 22.8319 109.25 23.014C109.49 23.1981 109.873 23.3446 110.477 23.4252L112.464 23.6606Z" fill="#8F174F"/>
<path d="M101.121 18.6844C100.21 18.4532 99.3199 18.3946 98.2929 18.3946C97.3162 18.3946 96.1393 18.5159 95.369 18.7472C94.5998 18.9773 93.9448 19.332 93.4072 19.8091C92.8686 20.2873 92.4546 20.9004 92.1654 21.6485C91.8751 22.3966 91.7305 23.2869 91.7305 24.3238V25.1598C91.7305 27.1822 92.1402 28.6669 92.9597 29.6127C93.7793 30.5607 95.2978 31.1696 96.9221 31.1696C98.6104 31.1696 99.6668 30.7082 100.53 29.8785V30.4215C100.53 31.7429 100.306 32.5318 99.7516 33.2004C99.1973 33.869 98.2101 34.1609 96.9357 34.1044C96.045 34.0657 95.5315 34.0123 94.8534 33.9025C94.1743 33.7905 93.5414 33.6419 92.9618 33.4672L92.4054 35.9971C93.183 36.267 93.9826 36.4627 94.8021 36.582C95.6216 36.7012 96.5291 36.7379 97.5216 36.7619C99.5745 36.809 101.141 36.2043 102.226 35.09C103.311 33.9747 103.793 32.399 103.793 30.3608V19.6836C103.049 19.286 102.031 18.9156 101.121 18.6844ZM100.531 25.4423C100.531 26.5566 100.315 27.3768 99.8868 27.9021C99.4561 28.4273 98.7697 28.691 97.8286 28.691C97.2858 28.691 96.8446 28.6114 96.5008 28.4514C96.1571 28.2923 95.8909 28.058 95.6991 27.7472C95.5063 27.4354 95.3753 27.0588 95.3051 26.612C95.2328 26.1663 95.1961 25.6494 95.1961 25.0604V24.2014C95.1961 22.9281 95.4392 22.0189 95.9255 21.4779C96.4118 20.937 97.181 20.666 98.2342 20.666C98.6481 20.666 99.0631 20.7068 99.4781 20.7853C99.8931 20.8648 100.243 20.9925 100.53 21.1672V25.4423H100.531Z" fill="#8F174F"/>
<path d="M78.1289 31.0754V18.6812H81.1596L81.3504 20.0194C81.7486 19.4932 82.2632 19.0903 82.894 18.8131C83.5239 18.5348 84.2449 18.3946 85.0581 18.3946C85.7278 18.3946 86.4875 18.4825 87.0377 18.6572C87.5879 18.833 88.0626 19.0998 88.4609 19.4576C88.8591 19.8165 89.1703 20.2653 89.3936 20.8073C89.6178 21.3492 89.7289 21.9854 89.7289 22.7178V31.0754H86.4278V23.5046C86.4278 22.5022 86.2444 21.7887 85.8787 21.367C85.5108 20.9454 84.9638 20.7361 84.1023 20.7361C83.1623 20.7361 82.4644 21.2268 82.0462 21.795C81.6061 22.3934 81.5442 23.5946 81.5442 24.6774V31.0744H78.1289V31.0754Z" fill="#8F174F"/>
<path d="M38.7853 21.456C38.5925 21.4089 38.363 21.3618 38.0915 21.3126C37.8191 21.2656 37.5413 21.2425 37.2531 21.2425C36.201 21.2425 35.4402 21.5167 34.9686 22.0649C34.498 22.6142 34.3786 23.2106 34.3786 24.3406V31.0754H30.8008V18.6813H33.996L34.1878 20.1617C34.5861 19.6208 35.0817 19.2107 35.6707 18.9313C36.2607 18.653 36.9702 18.5139 37.7991 18.5139C38.1188 18.5139 38.4017 18.5337 38.649 18.5735C38.8964 18.6133 39.1542 18.6813 39.4266 18.7765L38.7853 21.456Z" fill="#8F174F"/>
<path d="M28.595 18.6815V31.0768H25.5654L25.3746 29.7396C24.9764 30.2648 24.4618 30.6677 23.831 30.9449C23.2011 31.2232 22.4791 31.3634 21.6669 31.3634C20.9962 31.3634 20.2375 31.2755 19.6862 31.0998C19.1371 30.924 18.6624 30.6582 18.2641 30.2994C17.8659 29.9405 17.5547 29.4916 17.3304 28.9497C17.1072 28.4087 16.9961 27.7716 16.9961 27.0392V18.6815H20.2962V26.2534C20.2962 27.2547 20.4806 27.9683 20.8463 28.391C21.2131 28.8116 21.7612 29.0208 22.6227 29.0208C23.5627 29.0208 24.2606 28.5301 24.6788 27.962C25.1189 27.3635 25.1808 26.1613 25.1808 25.0805V18.6815H28.595Z" fill="#8F174F"/>
<path d="M74.1489 13.6787C74.8165 13.6787 75.3268 13.8262 75.6255 14.1045C75.9242 14.3839 76.0741 14.8139 76.0741 15.3234C76.0741 15.833 75.9242 16.263 75.6255 16.5413C75.3268 16.8196 74.8165 16.9504 74.1489 16.9504C73.4835 16.9504 72.9542 16.8196 72.6556 16.5413C72.3569 16.263 72.207 15.833 72.207 15.3234C72.207 14.8139 72.3569 14.3839 72.6556 14.1045C72.9542 13.8262 73.4835 13.6787 74.1489 13.6787ZM72.4931 18.682H75.8624V31.0772H72.4931V18.682Z" fill="#8F174F"/>
<path d="M65.6219 26.2953L67.4485 18.6815H70.7653L67.1047 31.0767H64.0782L61.9152 23.5812L59.7794 31.0767H56.6418L52.8984 18.6815H56.4081L58.2557 26.3748L60.2898 19.2067H63.5909L65.6219 26.2953Z" fill="#8F174F"/>
<path d="M51.8988 21.987C51.7154 21.2557 51.4041 20.6258 50.9661 20.1006C50.527 19.5754 49.9401 19.161 49.2065 18.8587C48.474 18.5563 47.2835 18.4109 46.1831 18.4109C45.0828 18.4109 43.8514 18.5971 43.1189 18.8995C42.3842 19.2018 41.7984 19.6162 41.3604 20.1414C40.9213 20.6666 40.6058 21.2965 40.4151 22.0278C40.2244 22.7602 40.0703 23.5031 40.0703 24.3631V25.3665C40.0703 26.2244 40.2086 27.005 40.3931 27.7374C40.5765 28.4697 40.8877 29.1027 41.3268 29.6353C41.7649 30.1699 42.3507 30.5874 43.0843 30.8898C43.8179 31.1922 45.0691 31.3784 46.1842 31.3784C47.3003 31.3784 48.5212 31.2089 49.2631 30.8898C50.0051 30.5728 50.5909 30.1417 51.0216 29.6018C51.4523 29.0619 51.7552 28.4279 51.9302 27.7028C52.1063 26.9799 52.2519 26.2067 52.2519 25.3791V24.3757C52.2509 23.5156 52.0822 22.7205 51.8988 21.987ZM48.9351 25.558C48.9351 26.848 48.7328 27.7593 48.3252 28.2929C47.9186 28.8255 47.2133 29.0923 46.2083 29.0923C45.7126 29.0923 45.2913 29.0368 44.9402 28.9249C44.5892 28.815 44.2978 28.6246 44.0673 28.3526C43.8346 28.0816 43.668 27.7206 43.5653 27.2655C43.4605 26.8114 43.4102 26.2422 43.4102 25.558V24.1737C43.4102 22.9004 43.6208 21.9954 44.0432 21.4618C44.4655 20.9292 45.1876 20.6624 46.2083 20.6624C47.229 20.6624 47.9374 20.9292 48.3357 21.4618C48.736 21.9954 48.9341 22.9004 48.9341 24.1737V25.558H48.9351Z" fill="#8F174F"/>
<path d="M128.017 0.0567069C125.311 -0.312628 123.937 1.19087 122.042 2.573L115.565 7.65162L115.562 7.65267L116.81 8.31078C116.812 8.31287 116.815 8.31391 116.818 8.31601C118.44 9.11222 120.697 8.84019 122.233 7.70394L124.968 5.53396L126.014 4.70322L131.227 0.568336L128.017 0.0567069Z" fill="#7BCBE2"/>
<path d="M115.57 7.65192L116.815 8.31212C116.818 8.31316 116.821 8.31526 116.824 8.3163C118.446 9.11356 120.703 8.84153 122.24 7.70423L124.974 5.5353L126.021 4.70456L115.57 7.65192Z" fill="#089BC9"/>
<path d="M139.079 3.19353L135.602 2.56891C135.602 2.56891 133.181 1.9945 131.159 3.55868C131.159 3.55868 129.665 4.66774 128.564 5.52568L126.115 7.46234L120.45 11.9613L120.402 11.999L122.113 12.9019C123.736 13.7023 125.997 13.4313 127.536 12.293L132.602 8.28681L136.687 5.07474L139.079 3.19353Z" fill="#8F174F"/>
<path d="M128.564 5.52572C129.663 4.66777 131.157 3.55872 131.157 3.55872C131.539 3.26263 131.936 3.04395 132.328 2.88283L126.016 4.70439L124.969 5.53409L122.236 7.70407C120.7 8.84137 118.443 9.1134 116.82 8.31614C118.204 9.14374 120.352 9.33416 123.588 8.37054L125.798 7.71348L126.116 7.46238L128.564 5.52572Z" fill="#C8C4C3"/>
<path d="M137.47 7.4552C138.513 6.64016 139.3 6.05006 140.083 5.69955L133.017 7.9616L132.602 8.28804L127.537 12.2932C125.998 13.4315 123.737 13.7036 122.113 12.9021C124.607 14.2696 128.448 13.2641 131.678 12.1174L131.871 11.9615C131.87 11.9615 137.277 7.59436 137.47 7.4552Z" fill="#C8C4C3"/>
<path d="M145.774 11.9987C142.938 11.1764 142.087 11.6964 138.746 12.6998H138.745L138.467 12.931V12.9299L138.463 12.9331L138.467 12.931L138.458 12.9362L133.074 17.1987C131.54 18.3339 129.142 18.5526 127.52 17.7595C129.521 18.8016 131.591 18.5463 135.132 17.4436L149.324 13.0942L145.774 11.9987Z" fill="#C8C4C3"/>
<path d="M146.72 6.12125L142.967 5.43908C140.718 5.02266 139.654 5.74878 137.47 7.45525C137.277 7.59545 131.871 11.9616 131.871 11.9616L125.801 16.8508L127.51 17.7537C129.134 18.5552 131.543 18.3376 133.08 17.1992L138.464 12.9367L138.472 12.9315L138.469 12.9336L146.72 6.12125Z" fill="#8F174F"/>
<path d="M125.795 7.71253L137.8 4.19495L133.012 7.96049L120.398 11.9981L125.795 7.71253Z" fill="#B4175E"/>
<path d="M131.677 12.1153L144.749 7.74713L138.751 12.6992L125.801 16.8497L131.677 12.1153Z" fill="#B4175E"/>
</svg>
