<?xml version="1.0" encoding="utf-8"?>
<!-- Generator: Adobe Illustrator 25.4.1, SVG Export Plug-In . SVG Version: 6.00 Build 0)  -->
<svg version="1.1" id="Layer_4" xmlns="http://www.w3.org/2000/svg" xmlns:xlink="http://www.w3.org/1999/xlink" x="0px" y="0px"
	 viewBox="0 0 75.85 80.27" style="enable-background:new 0 0 75.85 80.27;" xml:space="preserve">
<style type="text/css">
	.st0{fill:url(#SVGID_1_);}
	.st1{fill:#231F20;}
	.st2{fill:#FFFFFF;}
	.st3{fill:#008A43;}
	.st4{fill:#013B82;}
	.st5{fill:#DF1B22;}
</style>
<linearGradient id="SVGID_1_" gradientUnits="userSpaceOnUse" x1="160.6109" y1="76.4436" x2="161.369" y2="76.4436" gradientTransform="matrix(-3.496 66.7071 66.7071 3.496 -4500.7183 -10951.75)">
	<stop  offset="0" style="stop-color:#FFE4AF"/>
	<stop  offset="1" style="stop-color:#CD8215"/>
</linearGradient>
<path class="st0" d="M9.8,53.27C9.08,67.24,20.14,79.19,34.5,79.96c14.36,0.77,26.58-9.92,27.3-23.89
	c0.72-13.97-10.34-25.92-24.7-26.69c-0.49-0.03-0.98-0.04-1.46-0.04C21.92,29.35,10.5,39.78,9.8,53.27"/>
<path class="st1" d="M38.83,37.87c0,0-0.19,5.52,2.79,6.35c0.77,0.21,1.23,0.26,1.23,0.26s0.73,0.5,4.72-1.15
	c2.34-0.97,5.78-0.67,5.78-0.67s4.31-0.22,6.72,2.55c0.02,0.02,5.12-0.47,6.6-0.28s5.65,0.55,9.16,4.53c0,0-4.34-3.49-9.22-3.29
	c-3.41,0.14-6.04,2.01-6.19,2.11c-0.15,0.1-5.59,3.95-6.75,5.3c-1.16,1.36-4.23,5.76-14.2,8.41c-7.22,1.92-18.44,1.73-18.44,1.73
	s-4.52,1.53-8.12,1.44c-3.6-0.09-4.91-1.61-4.91-1.61S1.71,62.87,0,57.92c0,0,6.57,0.32,6.83,0.26c0.26-0.06,9.4-0.06,14.89-4.26
	c5.03-3.85,4.99-6.32,4.99-6.32s-0.27-2.94-3.3-4.23c-3.38-1.45-3.22-3.56-3.22-3.56s-3.43-2.81-3.3-6.62c0,0,0.81,0.94,2.23,1.82
	c0,0,2.98,1.59,2.98,1.58c-2.74-1.96-7.6-7.77-8.17-12.14c0,0,3.03,4.37,5.67,5.52c0.15,0.07-5.73-5.74-5.89-9.86
	c0,0,2.56,3.97,5.69,5.55c0.16,0.08-5.53-7.17-5.24-12.82c0,0,2.77,7.09,10.02,12.01c0.04,0.03-7.59-9.02-7.1-20.71
	c0,0,1.76,11.14,11.44,18.32c0.05,0.04-9.91-13.99-7.88-22.38c0,0,0.96,9.75,9.23,20.12C29.9,20.25,22.31,9.95,25.74,0
	c0,0-1.33,10.21,5.83,18.32C38.72,26.43,38.83,37.87,38.83,37.87"/>
<path class="st2" d="M30.82,50.7c0,0,3.39-1.85,9.39-1.39c1.76,0.14,3.61,4.28,8.46,4.75c2.04,0.2,3.21-0.04,3.21-0.04
	s-3.89,4.43-7.17,4.6c-3.44,0.18-7.54-0.19-11.96-4.85C31.72,52.69,30.82,50.7,30.82,50.7"/>
<path class="st3" d="M2.72,59.48c0,0,6.03,0.32,8.39-0.26c2.36-0.58,6.04-1.39,7.47-2.24c0,0-4.06,5.46-9.65,5.16
	C3.33,61.86,2.72,59.48,2.72,59.48"/>
<path class="st4" d="M16.01,61.62c0,0,3.42-2.72,4.83-4.77c0.86-1.25,5.14-4.96,8.22-5.43c0.01,0,2.84,7.16,12.73,8.69
	c0,0-8.21,3.95-25.5,1.61L16.01,61.62z"/>
<path class="st2" d="M51.03,46.18c-2.65,1.88-5.73,2.42-5.73,2.42s4.06-0.15,5.54-0.84c4.09-1.88,9.31-2.6,9.31-2.6
	c-0.7-0.71-2.38-1.08-2.38-1.08c0.01,0.07,0.12,0.31,0.11,0.38c-0.03,0.65-0.6,1.15-1.27,1.12c-0.67-0.04-1.19-0.6-1.15-1.25
	c0.01-0.13,0.13-0.37,0.08-0.37C54.9,43.95,53.68,44.3,51.03,46.18"/>
<path class="st5" d="M61.91,46.2c0,0-6.32,3.37-9.02,6.5c-0.02,0.03-0.49,0.14-1.69,0.08c-1.2-0.06-3.43,0.13-5.17-0.77
	c-1.74-0.91-3.26-2.45-3.26-2.45s2.75,0.38,5.49,0.19c2.04-0.14,5.56-1.51,5.69-1.57C56.91,46.73,61.91,46.2,61.91,46.2"/>
<path class="st3" d="M26.46,50.68c0,0,2.66-2.6,0.32-6.13c-0.02-0.03,1.37,0.44,2.7,0.56c0.04,0,0.06-0.64,0.07-0.73
	c-2.93-0.86-7.09-2.38-7.83-4.22c0,0,4.83,2.32,7.99,2.56c0,0,0.25-0.79,0.25-0.79c-3.14-0.78-9.67-2.72-10.98-5.71
	c0,0,6.83,3.71,11.4,4.26c0.03,0.01,0.33-0.79,0.33-0.79c-2.93-0.84-9.15-3.92-12.15-9.1c0,0,7.33,6.07,12.88,7.69
	c-0.01-0.01,0.57-0.79,0.58-0.8c-3.24-1.71-10.98-5.07-12.66-10.61c-0.03-0.1,7.15,6.76,8.77,6.42c0,0-8.04-6.59-8.78-10.46
	c0,0,13.51,13.41,14.85,14.26c0.66,0.42,1.56,2.21,1.56,2.21s2.98,7.35,8.2,9.12c0.11,0.04-6.83-0.93-9.7-0.19
	C31.12,49.03,26.46,50.69,26.46,50.68"/>
<path class="st2" d="M22.27,18.53c0,0,6.05,7.07,9.2,9.28c5.94,4.16,6.05,9.32,5.94,11.44c0,0-4.27-6.25-6.34-8.49
	C29,28.53,23.89,23.38,22.27,18.53"/>
<path class="st2" d="M51.03,46.18c-2.65,1.88-5.73,2.42-5.73,2.42s4.06-0.16,5.54-0.84c4.09-1.88,9.31-2.6,9.31-2.6
	c-0.7-0.71-2.38-1.08-2.38-1.08c0.01,0.07,0.12,0.31,0.11,0.38c-0.03,0.65-0.61,1.15-1.28,1.12c-0.67-0.04-1.19-0.6-1.15-1.25
	c0.01-0.13,0.13-0.37,0.08-0.37C54.9,43.96,53.68,44.31,51.03,46.18"/>
<path class="st2" d="M23.24,62.37c-0.07-0.01,2.23-0.74,3.46-2.94c0,0,1.88,2.37,4.15,2.95C30.87,62.38,26.1,62.84,23.24,62.37"/>
</svg>
