<?xml version="1.0" encoding="utf-8"?>
<!-- Generator: Adobe Illustrator 25.4.1, SVG Export Plug-In . SVG Version: 6.00 Build 0)  -->
<svg version="1.1" id="Layer_1" xmlns="http://www.w3.org/2000/svg" xmlns:xlink="http://www.w3.org/1999/xlink" x="0px" y="0px"
	 viewBox="0 0 156.5 80" style="enable-background:new 0 0 156.5 80;" xml:space="preserve">
<style type="text/css">
	.st0{fill:#0C0C11;}
	.st1{fill:#DA2B38;}
	.st2{fill:#263980;}
</style>
<path class="st0" d="M84.9-885.5c-0.7-0.1-1.8,0-2.5,0c0.5-0.4,1.2-0.7,1.6-0.5c0.1,0,0.1,0,0.2,0.1
	C84.4-885.8,84.7-885.6,84.9-885.5z"/>
<path class="st1" d="M0,40.1c0,0,24.4,26.7,47.1,26.7s52.3-14.6,64.2-24.3s29-25.4,45.3-19.5c0,0-7.1-16-32-16
	c0,0-12.6-1.3-47.8,17.9S31.3,46.3,21.2,46.3S0,40.1,0,40.1z"/>
<path class="st2" d="M2.8,25.8c0,0,14,14.3,27.7,14.3s33.3-12,39.2-16.9c5.9-4.9,12.5-12.5,19.6-14c7.1-1.5,8.3,0,8.3,0
	S90.8,0,78.9,0S50.6,11.4,46,14.2S25.8,27.9,16.6,27.9S2.8,25.8,2.8,25.8z"/>
<path class="st2" d="M63.9,70.1c0,0,9.9,2.4,18-1.7s21.3-15.1,30-21.8s16.3-12,25.5-12s13.8,2.5,16.4,6.4c0,0-6.5-1.3-11.7,2.8
	S113.5,79.5,90.9,80C71.6,80.4,63.9,70.1,63.9,70.1z"/>
</svg>
