<?xml version="1.0" encoding="utf-8"?>
<!-- Generator: Adobe Illustrator 25.4.1, SVG Export Plug-In . SVG Version: 6.00 Build 0)  -->
<svg version="1.1" id="Layer_1" xmlns="http://www.w3.org/2000/svg" xmlns:xlink="http://www.w3.org/1999/xlink" x="0px" y="0px"
	 viewBox="0 0 471.2 80" style="enable-background:new 0 0 471.2 80;" xml:space="preserve">
<style type="text/css">
	.st0{fill:#0C0C11;}
	.st1{fill:#DA2B38;}
	.st2{fill:#263980;}
</style>
<path class="st0" d="M84.9-885.5c-0.7-0.1-1.8,0-2.5,0c0.5-0.4,1.2-0.7,1.6-0.5c0.1,0,0.1,0,0.2,0.1
	C84.4-885.8,84.7-885.6,84.9-885.5z"/>
<g>
	<path class="st1" d="M0,40.1c0,0,24.4,26.7,47.1,26.7s52.3-14.6,64.2-24.3s29-25.4,45.3-19.5c0,0-7.1-16-32-16
		c0,0-12.6-1.3-47.8,17.9S31.3,46.3,21.2,46.3S0,40.1,0,40.1z"/>
	<path class="st2" d="M2.8,25.8c0,0,14,14.3,27.7,14.3s33.3-12,39.2-16.9c5.9-4.9,12.5-12.5,19.6-14c7.1-1.5,8.3,0,8.3,0
		S90.8,0,78.9,0S50.6,11.4,46,14.2S25.8,27.9,16.6,27.9S2.8,25.8,2.8,25.8z"/>
	<path class="st2" d="M63.9,70.1c0,0,9.9,2.4,18-1.7s21.3-15.1,30-21.8s16.3-12,25.5-12s13.8,2.5,16.4,6.4c0,0-6.5-1.3-11.7,2.8
		S113.5,79.5,90.9,80C71.6,80.4,63.9,70.1,63.9,70.1z"/>
	<path class="st1" d="M431.1,24.8h-5H425h-4v0.8h2.1c0,0,1.9,0,1.9,1.6v25.5c0,1.7-2.1,1.9-2.1,1.9h-1.9v0.8h4h1.2h6.1v0h3.3v-0.8
		h-1.2c0,0-2.1-0.2-2.1-1.9c0,0,0,0,0,0V27.3c0,0,0,0,0,0c0-1.6,1.9-1.6,1.9-1.6h1.4v-0.8h-3.3H431.1z"/>
	<path class="st2" d="M188.2,39.6c0,0,7.3-1.9,7.3-7s-4.9-7.8-9.9-7.8c-2.6,0-4.4,0-5.5,0h-1.4H174h-1.2h-4v0.8h2.1
		c0,0,1.9,0,1.9,1.6v25.5c0,1.7-2.1,1.9-2.1,1.9h-1.9v0.8h4h1.2h6.1h6c0,0,10.8-0.2,10.8-8.2S188.2,39.6,188.2,39.6z M188,32
		c0,6.6-5.5,6.6-8,6.6v-12C180.1,26.5,188,25.4,188,32z M180.1,52.1v-12c0,0,8.9-1,8.9,7S180.6,54.3,180.1,52.1z"/>
	<path class="st2" d="M227.9,52.6C227.9,52.6,227.9,52.6,227.9,52.6l-12.2-27.7h-1.1l-11.8,27c0,0,0,0,0,0c-1.1,2.5-3.2,2.7-3.8,2.7
		h-0.1v0.8H209v-0.8h-2.1c-2.1,0-1.9-2.7-1.9-2.7l0,0l2.3-5.4H218l2.4,5.4c1,2.3-1.6,2.8-1.6,2.8h-2.1v0.8h5.3h7.3h1.9v-0.8h-0.3
		C230.2,54.5,228.7,54.3,227.9,52.6z M208,44.9l4.6-10.6l4.7,10.6H208z"/>
	<path class="st2" d="M311.9,52.6l-12.2-27.7h-1.1l-11.8,27c0,0,0,0,0,0c-1.1,2.5-3.2,2.7-3.8,2.7h-0.1v0.8H293v-0.8h-2.1
		c-2.1,0-1.9-2.7-1.9-2.7l2.3-5.4H302l2.4,5.4c0,0,0,0,0,0c1,2.3-1.6,2.8-1.6,2.8h-2.1v0.8h5.3h7.3h1.9v-0.8h-0.3
		C314.2,54.5,312.7,54.3,311.9,52.6z M292.1,44.9l4.6-10.6l4.7,10.6H292.1z"/>
	<path class="st2" d="M380.9,52.6C380.9,52.6,380.9,52.6,380.9,52.6l-12.2-27.7h-1.1l-11.8,27c0,0,0,0,0,0c-1.1,2.5-3.2,2.7-3.8,2.7
		h-0.1v0.8h10.1v-0.8h-2.1c-2.1,0-1.9-2.7-1.9-2.7l0,0l2.3-5.4h10.6l2.4,5.4c1,2.3-1.6,2.8-1.6,2.8h-2.1v0.8h5.3h7.3h1.9v-0.8h-0.3
		C383.2,54.5,381.7,54.3,380.9,52.6z M361,44.9l4.6-10.6l4.7,10.6H361z"/>
	<path class="st2" d="M347.3,52.4L347.3,52.4l-12.7-15.9l12.4-9.9l0,0c0,0,1.3-1,2.5-1h1v-0.8h-11.8v0.8h1.7c0.1,0,3.5,1,1,3
		l-13.2,10.9V27.3c0,0,0,0,0,0c0-1.6,1.9-1.6,1.9-1.6h1.4v-0.8h-3.3h-1.2h-5h-1.2h-4v0.8h2.1c0,0,1.9,0,1.9,1.6v25.5
		c0,1.7-2.1,1.9-2.1,1.9h-1.9v0.8h4h1.2h6.1v0h3.3v-0.8h-1.2c0,0-2.1-0.2-2.1-1.9c0,0,0,0,0,0v-11l1.3-1l9.2,11.2
		c1.7,2.1-1.1,2.7-1.1,2.7h-1.3v0.8h5.3h8.1h1.1v-0.8C350.8,54.6,348.7,54.1,347.3,52.4z"/>
	<path class="st1" d="M416,52.6C416,52.6,416,52.6,416,52.6l-12.2-27.7h-1.1l-11.8,27c0,0,0,0,0,0c-1.1,2.5-3.2,2.7-3.8,2.7h-0.1
		v0.8H397v-0.8h-2.1c-2.1,0-1.9-2.7-1.9-2.7l0,0l2.3-5.4H406l2.4,5.4c1,2.3-1.6,2.8-1.6,2.8h-2.1v0.8h5.3h7.3h1.9v-0.8h-0.3
		C418.3,54.5,416.7,54.3,416,52.6z M396.1,44.9l4.6-10.6l4.7,10.6H396.1z"/>
	<path class="st1" d="M470.6,54.6c0,0-0.8,0.3-2.4-1.7c-1.5-2.1-8.6-11.8-8.6-11.8s6.8-1.8,6.8-7.2c0-5.4-4.3-9-13.1-9h-3.3H449h-5
		h-1.2h-4v0.8h2.1c0,0,1.9,0,1.9,1.6v25.5c0,1.7-2.1,1.9-2.1,1.9h-1.9v0.8h4h1.2h6.1v0h3.3v-0.8h-1.2c0,0-2.1-0.2-2.1-1.9
		c0,0,0,0,0,0V41.4h1.7l10,14h9.4v-0.8H470.6z M453.1,39.7h-3V26.5h3.3c0,0,5.7,0.2,5.7,7.3C459.2,38.2,455.8,39.4,453.1,39.7z"/>
	<path class="st2" d="M247.5,37.1c-1.5-0.8-8.7-4-8.7-7.2c0-3.2,3.4-4.1,5.2-4.1c1.8,0,8.5,2.2,8.5,8.5h0.8V24.1h-0.8
		c0,0-0.3,2.8-2,2.1c-1.7-0.7-4.4-2.1-6.8-2.1c-2.4,0-9.7,1.6-9.7,8.6c0,7,8,9.9,11.8,11.8c0,0,4.5,2.1,4.5,5.7
		c0,3.6-4.7,4.2-5.7,4.2c-1,0-9.6-2.3-9.6-9.9h-0.8v11.3h0.8c0,0,0.3-1.9,2.2-1.9c1.9,0,3.5,1.9,7.3,1.9c3.9,0,10.9-2,10.9-8.7
		C255.3,40.5,249.1,37.9,247.5,37.1z"/>
	<path class="st2" d="M273.1,37.1c-1.5-0.8-8.7-4-8.7-7.2c0-3.2,3.4-4.1,5.2-4.1c1.8,0,8.5,2.2,8.5,8.5h0.8V24.1h-0.8
		c0,0-0.3,2.8-2,2.1c-1.7-0.7-4.4-2.1-6.8-2.1s-9.7,1.6-9.7,8.6c0,7,8,9.9,11.8,11.8c0,0,4.5,2.1,4.5,5.7c0,3.6-4.7,4.2-5.7,4.2
		c-1,0-9.6-2.3-9.6-9.9h-0.8v11.3h0.8c0,0,0.3-1.9,2.2-1.9c1.9,0,3.5,1.9,7.3,1.9c3.9,0,10.9-2,10.9-8.7
		C280.9,40.5,274.6,37.9,273.1,37.1z"/>
</g>
</svg>
