<?xml version="1.0" encoding="utf-8"?>
<!-- Generator: Adobe Illustrator 25.4.1, SVG Export Plug-In . SVG Version: 6.00 Build 0)  -->
<svg version="1.1" id="Layer_1" xmlns="http://www.w3.org/2000/svg" xmlns:xlink="http://www.w3.org/1999/xlink" x="0px" y="0px"
	 viewBox="0 0 94.6 80" style="enable-background:new 0 0 94.6 80;" xml:space="preserve">
<style type="text/css">
	.st0{fill:#0088C9;}
	.st1{fill:#2C2D81;}
</style>
<g>
	<path class="st0" d="M16.5,30.4H1.8c-1,0-1.8,0.8-1.8,1.8v21.6c0,1,0.8,1.8,1.8,1.8H4c1,0,1.8-0.8,1.8-1.8v-7.9h7.5
		c1,0,1.8-0.8,1.8-1.8v-2.3c0-1-0.8-1.8-1.8-1.8H5.8v-3.8h10.7c1,0,1.8-0.8,1.8-1.8v-2.3C18.3,31.1,17.5,30.4,16.5,30.4"/>
	<path class="st0" d="M35.5,49.7H25.3V32.1c0-1-0.8-1.8-1.8-1.8h-2.3c-1,0-1.8,0.8-1.8,1.8v21.6c0,1,0.8,1.8,1.8,1.8h14.3
		c1,0,1.8-0.8,1.8-1.8v-2.2C37.3,50.5,36.5,49.7,35.5,49.7"/>
	<path class="st0" d="M53.9,31.3c-0.3-0.6-0.9-1-1.6-1h-2.8c-0.6,0-1.1,0.3-1.4,0.7L43.1,38L38,31.1c-0.3-0.5-0.9-0.7-1.4-0.7h-2.8
		c-0.7,0-1.3,0.4-1.6,1c-0.3,0.6-0.3,1.3,0.2,1.9l7.8,10.7v9.8c0,1,0.8,1.8,1.8,1.8h2.3c1,0,1.8-0.8,1.8-1.8v-9.8l7.8-10.7
		C54.2,32.6,54.2,31.9,53.9,31.3"/>
</g>
<path class="st0" d="M60.7,65.3C53.4,69.4,45,71.8,36,71.8c-14.2,0-27-6-36-15.5C8.7,70.4,24.2,79.9,42,80
	C49.3,76.7,55.8,71.6,60.7,65.3"/>
<path class="st1" d="M94.6,15.4C94.8,7.7,94.3,0,94.3,0L58.1,21L70,24.9c0.8,3.1,1.1,6.8,1.1,9.8c0,11.5-3.9,22.1-10.5,30.5
	C55.7,71.6,49.3,76.6,41.9,80c0.1,0,0.3,0,0.4,0C67.2,80,85.7,62.6,91.5,38C92.6,33.1,94.3,26.7,94.6,15.4"/>
</svg>
