<?xml version="1.0" encoding="utf-8"?>
<!-- Generator: Adobe Illustrator 25.4.1, SVG Export Plug-In . SVG Version: 6.00 Build 0)  -->
<svg version="1.1" id="Layer_1" xmlns="http://www.w3.org/2000/svg" xmlns:xlink="http://www.w3.org/1999/xlink" x="0px" y="0px"
	 viewBox="0 0 152.4 80" style="enable-background:new 0 0 152.4 80;" xml:space="preserve">
<style type="text/css">
	.st0{fill:#0088C9;}
	.st1{fill:#2C2D81;}
</style>
<g>
	<g>
		<path class="st0" d="M16.5,30.4H1.8c-1,0-1.8,0.8-1.8,1.8v21.6c0,1,0.8,1.8,1.8,1.8H4c1,0,1.8-0.8,1.8-1.8v-7.9h7.5
			c1,0,1.8-0.8,1.8-1.8v-2.3c0-1-0.8-1.8-1.8-1.8H5.8v-3.8h10.7c1,0,1.8-0.8,1.8-1.8v-2.3C18.3,31.1,17.5,30.4,16.5,30.4"/>
		<path class="st0" d="M35.5,49.7H25.3V32.1c0-1-0.8-1.8-1.8-1.8h-2.3c-1,0-1.8,0.8-1.8,1.8v21.6c0,1,0.8,1.8,1.8,1.8h14.3
			c1,0,1.8-0.8,1.8-1.8v-2.2C37.3,50.5,36.5,49.7,35.5,49.7"/>
		<path class="st0" d="M53.9,31.3c-0.3-0.6-0.9-1-1.6-1h-2.8c-0.6,0-1.1,0.3-1.4,0.7L43.1,38L38,31.1c-0.3-0.5-0.9-0.7-1.4-0.7h-2.8
			c-0.7,0-1.3,0.4-1.6,1c-0.3,0.6-0.3,1.3,0.2,1.9l7.8,10.7v9.8c0,1,0.8,1.8,1.8,1.8h2.3c1,0,1.8-0.8,1.8-1.8v-9.8l7.8-10.7
			C54.2,32.6,54.2,31.9,53.9,31.3"/>
		<path class="st0" d="M118.5,65.3c-7.3,4.1-15.6,6.5-24.6,6.5c-14.2,0-27-6-36-15.5C66.5,70.4,82,79.9,99.8,80
			C107.1,76.7,113.6,71.6,118.5,65.3"/>
		<path class="st1" d="M152.4,15.4C152.6,7.7,152,0,152,0l-36.1,21l11.9,3.9c0.8,3.1,1.1,6.8,1.1,9.8c0,11.5-3.9,22.1-10.5,30.5
			c-4.9,6.3-11.3,11.4-18.7,14.7c0.1,0,0.3,0,0.4,0c24.8,0,43.4-17.4,49.1-41.9C150.4,33.1,152,26.7,152.4,15.4"/>
		<path class="st1" d="M64.8,30.4c-6.9,0-12.5,5.6-12.5,12.5s5.6,12.5,12.5,12.5c6.9,0,12.4-5.6,12.4-12.5S71.6,30.4,64.8,30.4
			 M64.8,49.6c-3.7,0-6.7-3-6.7-6.7c0-3.7,3-6.7,6.7-6.7c3.7,0,6.7,3,6.7,6.7C71.5,46.6,68.5,49.6,64.8,49.6"/>
		<path class="st1" d="M97.8,30.4h-2.3c-1,0-1.8,0.8-1.8,1.8v12.1L83.4,31c-0.3-0.4-0.9-0.7-1.4-0.7h-1.8c-1,0-1.8,0.8-1.8,1.8v21.6
			c0,1,0.8,1.8,1.8,1.8h2.3c1,0,1.8-0.8,1.8-1.8V41.6l10.3,13.2c0.3,0.4,0.9,0.7,1.4,0.7h1.8c1,0,1.8-0.8,1.8-1.8V32.1
			C99.5,31.1,98.7,30.4,97.8,30.4"/>
		<path class="st1" d="M118,36.1c0.8-0.2,1.4-0.9,1.4-1.7v-2.3c0-1-0.8-1.8-1.8-1.8h-14.1c-1,0-1.8,0.8-1.8,1.8v21.6
			c0,1,0.8,1.8,1.8,1.8h13.6c1,0,1.7-0.8,1.7-1.6l0.1-2.3c0-1.2-0.8-2-1.7-2h-9.6v-3.8h9.8c1,0,1.7-0.7,1.7-1.6l0-2.4
			c0-1-0.8-1.8-1.8-1.8h-9.8v-3.8C107.6,36.2,117.9,36.2,118,36.1"/>
	</g>
</g>
</svg>
