<?xml version="1.0" encoding="utf-8"?>
<!-- Generator: Adobe Illustrator 25.4.1, SVG Export Plug-In . SVG Version: 6.00 Build 0)  -->
<svg version="1.1" id="Layer_1" xmlns="http://www.w3.org/2000/svg" xmlns:xlink="http://www.w3.org/1999/xlink" x="0px" y="0px"
	 viewBox="0 0 158.8 80" style="enable-background:new 0 0 158.8 80;" xml:space="preserve">
<style type="text/css">
	.st0{fill-rule:evenodd;clip-rule:evenodd;fill:#FA6511;}
	.st1{fill-rule:evenodd;clip-rule:evenodd;fill:#FFFFFF;}
</style>
<path class="st0" d="M13.2,0h24.1c7.3,0,13.2,5.9,13.2,13.2v53.6c0,7.3-5.9,13.2-13.2,13.2H13.2C5.9,80,0,74.1,0,66.8V13.2
	C0,5.9,5.9,0,13.2,0L13.2,0z"/>
<path class="st0" d="M68.2,0h24.1c7.3,0,13.2,5.9,13.2,13.2v53.6c0,7.3-5.9,13.2-13.2,13.2H68.2C60.9,80,55,74.1,55,66.8V13.2
	C55,5.9,60.9,0,68.2,0L68.2,0z"/>
<path class="st1" d="M59.1,53.5v-5.9L84.1,8.2h1h6.3h1V47h8v6.6h-8v17.9h-7.3v-18H59.1L59.1,53.5z M85.1,47V18L66.5,47H85.1L85.1,47
	z"/>
<path class="st0" d="M126,5.8h16.2c6,0,10.9,4.9,10.9,10.9v46.1c0,6-4.9,10.9-10.9,10.9H126c-6,0-10.9-4.9-10.9-10.9V16.7
	C115.1,10.7,120,5.8,126,5.8L126,5.8z M126.1,0h15.3c9.5,0,17.3,7.8,17.3,17.3v45.4c0,9.5-7.8,17.3-17.3,17.3h-15.3
	c-9.5,0-17.3-7.8-17.3-17.3V17.3C108.8,7.8,116.6,0,126.1,0L126.1,0z"/>
<path class="st1" d="M24.8,34.5c-5.6,0-8.6,2.4-11.1,5.9l-7.3-0.8l5.4-31.5l30.3,0.1v7.3H18.2l-2.7,15.4c3.5-2,7.4-3.2,11.4-3.2
	c11.3,0,18.5,8.7,18.5,20.9c0,12.2-9.2,20.9-20.5,20.9c-10,0-18.8-6.2-19.6-17.2l7.8-0.7c1.1,6.5,5.6,11.4,11.6,11.4
	c7,0,12.7-6.5,12.7-14.6C37.3,40.4,31.8,34.5,24.8,34.5L24.8,34.5z"/>
</svg>
