<?xml version="1.0" encoding="utf-8"?>
<!-- Generator: Adobe Illustrator 25.4.1, SVG Export Plug-In . SVG Version: 6.00 Build 0)  -->
<svg version="1.1" id="Layer_1" xmlns="http://www.w3.org/2000/svg" xmlns:xlink="http://www.w3.org/1999/xlink" x="0px" y="0px"
	 viewBox="0 0 125.76 80" style="enable-background:new 0 0 125.76 80;" xml:space="preserve">
<style type="text/css">
	.st0{fill:#04897A;}
	.st1{fill:#13A1DB;}
</style>
<path class="st0" d="M123.7,32.83c0,0,4.72-5.79-0.14-9.13c-5.16-3.55-25.97-7.06-50.81,12.79C47.91,56.34,43.08,69.96,39.51,80
	c0,0,12.27-18.16,25.21-27.54c0,0-3.57,2.23-7.81,16.29c0,0,5.59-10.61,38.36-31.76C95.26,36.99,122.08,22.1,123.7,32.83"/>
<path class="st0" d="M112.21,18.44c0,0-2.3-2.65-8.73-2.88c0,0-2.1,2.85-5.84,2.96c-3.2,0.09-4.59-1.88-5.32-2.59
	c4,1.53,6.87-0.66,6.87-0.66s-12.35-2.07-30.89,0.94c0,0,5.21-2.84,16.45-5.01C94.57,9.31,115.11,9.03,112.21,18.44"/>
<path class="st1" d="M66.74,31.87c0,0-27.68,22.18-49.07,14.5c1.89,14.2,17.12,11.21,17.12,11.21S50.52,56.2,66.74,31.87"/>
<path class="st1" d="M65.39,16.91c0,0-30.51,5.52-48.28-16.91c0,0-6.89,15.1,9.33,20.66C26.43,20.66,45.32,27.43,65.39,16.91"/>
<path class="st1" d="M0.21,18.09c-0.73,4.3-0.11,18.06,11.57,21.44c28.48,8.36,61.91-17.46,61.91-17.46
	C27.68,36.31,9.05,23.85,0.21,18.09"/>
</svg>
