<?xml version="1.0" encoding="utf-8"?>
<!-- Generator: Adobe Illustrator 25.4.1, SVG Export Plug-In . SVG Version: 6.00 Build 0)  -->
<svg version="1.1" id="Layer_1" xmlns="http://www.w3.org/2000/svg" xmlns:xlink="http://www.w3.org/1999/xlink" x="0px" y="0px"
	 viewBox="0 0 368.28 80" style="enable-background:new 0 0 368.28 80;" xml:space="preserve">
<style type="text/css">
	.st0{fill:#026EB5;}
	.st1{fill:#04897A;}
	.st2{fill:#13A1DB;}
</style>
<g>
	<path class="st0" d="M113.21,62.86c0.83,0,1.58-0.09,2.26-0.28c0.68-0.19,1.27-0.42,1.8-0.71c0.53-0.28,0.98-0.58,1.35-0.9
		c0.38-0.32,0.66-0.59,0.85-0.82c0.41,0.45,0.83,1.11,1.27,1.97c0.43,0.86,0.65,1.6,0.65,2.2c0,0.38-0.08,0.75-0.23,1.1
		c-0.15,0.36-0.47,0.72-0.96,1.1c-0.71,0.53-1.73,1.02-3.04,1.46c-1.32,0.45-2.99,0.68-5.02,0.68c-1.35,0-2.81-0.19-4.4-0.57
		c-1.57-0.37-3.04-1.09-4.4-2.14c-1.35-1.05-2.48-2.51-3.38-4.37c-0.9-1.86-1.35-4.29-1.35-7.3c0-2.86,0.47-5.19,1.41-6.99
		c0.94-1.8,2.11-3.23,3.5-4.28c1.39-1.05,2.87-1.78,4.43-2.17c1.56-0.39,2.96-0.59,4.2-0.59c1.55,0,2.97,0.17,4.29,0.51
		c1.32,0.34,2.41,0.79,3.27,1.35c0.71,0.45,1.21,0.89,1.5,1.3c0.28,0.41,0.42,0.9,0.42,1.46c0,0.53-0.17,1.18-0.51,1.95
		c-0.34,0.77-0.77,1.47-1.3,2.12c-0.6-0.64-1.49-1.28-2.65-1.92c-1.17-0.64-2.47-0.96-3.89-0.96c-2.48,0-4.25,0.76-5.3,2.28
		c-1.06,1.53-1.58,3.47-1.58,5.84c0,1.2,0.11,2.33,0.34,3.38c0.22,1.05,0.61,1.97,1.15,2.76c0.54,0.79,1.25,1.41,2.12,1.86
		C110.86,62.63,111.93,62.86,113.21,62.86"/>
	<path class="st0" d="M137.93,62.92c0.94,0,1.77-0.11,2.49-0.31c0.72-0.21,1.36-0.46,1.92-0.76c0.57-0.3,1.06-0.63,1.47-0.99
		c0.42-0.35,0.79-0.69,1.13-0.99c0.45,0.57,0.92,1.29,1.41,2.17c0.49,0.88,0.74,1.61,0.74,2.17c0,0.83-0.47,1.58-1.41,2.25
		c-0.79,0.6-1.91,1.12-3.35,1.55c-1.45,0.43-3.15,0.65-5.1,0.65c-1.77,0-3.5-0.23-5.22-0.68c-1.71-0.45-3.23-1.24-4.56-2.37
		c-1.34-1.13-2.42-2.64-3.24-4.54c-0.83-1.9-1.24-4.29-1.24-7.19c0-2.37,0.36-4.41,1.1-6.12c0.74-1.71,1.71-3.13,2.93-4.26
		c1.22-1.13,2.6-1.95,4.14-2.48c1.54-0.53,3.12-0.79,4.74-0.79c2.1,0,3.89,0.33,5.36,0.98c1.46,0.66,2.66,1.54,3.58,2.65
		c0.92,1.11,1.59,2.38,2,3.81c0.41,1.43,0.62,2.93,0.62,4.51v0.79c0,0.3-0.01,0.62-0.03,0.96c-0.02,0.34-0.04,0.67-0.06,0.99
		c-0.02,0.32-0.05,0.58-0.09,0.76h-16.63c0.15,2.07,0.79,3.79,1.92,5.16C133.69,62.23,135.48,62.92,137.93,62.92 M140.5,51.47
		c0-1.8-0.35-3.27-1.05-4.4c-0.7-1.13-1.96-1.68-3.77-1.68c-1.55,0-2.79,0.53-3.71,1.6c-0.93,1.07-1.39,2.57-1.39,4.49H140.5z"/>
	<path class="st0" d="M158.48,42.73c0.57-0.56,1.4-1.12,2.49-1.66c1.09-0.54,2.5-0.82,4.23-0.82c1.47,0,2.87,0.21,4.2,0.65
		c1.33,0.44,2.52,1.18,3.55,2.23c1.03,1.05,1.86,2.44,2.48,4.14c0.62,1.71,0.93,3.84,0.93,6.4c0,2.93-0.34,5.35-1.01,7.27
		c-0.68,1.92-1.55,3.43-2.62,4.54c-1.07,1.11-2.28,1.89-3.61,2.33c-1.34,0.46-2.68,0.68-4.03,0.68c-1.2,0-2.25-0.14-3.13-0.43
		c-0.88-0.29-1.62-0.6-2.2-0.94c-0.58-0.35-1.03-0.68-1.35-1c-0.32-0.32-0.52-0.54-0.59-0.65c0,0.61-0.15,1.13-0.45,1.57
		c-0.3,0.44-0.83,0.65-1.58,0.65h-4.96V27.95c0-0.04,0.28-0.08,0.84-0.14c0.57-0.06,1.15-0.08,1.75-0.08c0.6,0,1.21,0.05,1.83,0.16
		c0.62,0.11,1.16,0.34,1.63,0.68c0.47,0.34,0.85,0.8,1.16,1.38c0.3,0.58,0.45,1.34,0.45,2.28V42.73z M168.36,53.75
		c0-1.16-0.09-2.24-0.28-3.23c-0.19-0.99-0.5-1.85-0.93-2.56c-0.43-0.71-1.01-1.27-1.75-1.69c-0.73-0.41-1.63-0.62-2.68-0.62
		c-1.58,0-2.68,0.3-3.3,0.9c-0.62,0.6-0.93,1.27-0.93,2.02v12.2c0.31,0.3,0.84,0.66,1.61,1.09c0.77,0.43,1.74,0.65,2.91,0.65
		c1.92,0,3.29-0.76,4.12-2.28C167.94,58.73,168.36,56.56,168.36,53.75"/>
	<path class="st0" d="M196.94,40.98c0.04,0,0.34-0.03,0.9-0.08c0.56-0.06,1.11-0.08,1.63-0.08c0.64,0,1.27,0.08,1.89,0.23
		c0.62,0.15,1.16,0.39,1.64,0.73c0.47,0.34,0.85,0.8,1.16,1.38c0.3,0.58,0.45,1.33,0.45,2.23v22.33h-5.13
		c-0.94,0-1.53-0.25-1.78-0.76c-0.24-0.51-0.37-1.25-0.37-2.23c-0.64,0.87-1.62,1.66-2.96,2.4c-1.34,0.73-3.11,1.1-5.33,1.1
		c-2.67,0-4.64-0.53-5.92-1.58c-1.28-1.05-2.11-2.45-2.48-4.17c-0.19-0.87-0.31-1.81-0.36-2.82c-0.06-1.01-0.09-2.01-0.09-2.99
		V40.98c0.26,0,0.55-0.02,0.85-0.06c0.26-0.04,0.53-0.07,0.82-0.09c0.28-0.02,0.55-0.03,0.81-0.03c1.51,0,2.75,0.32,3.72,0.96
		c0.98,0.64,1.47,1.79,1.47,3.44v11.11c0,0.83,0.03,1.6,0.09,2.31c0.05,0.71,0.21,1.33,0.45,1.83c0.24,0.51,0.64,0.9,1.19,1.18
		c0.54,0.28,1.3,0.42,2.28,0.42c1.39,0,2.58-0.29,3.58-0.88c1-0.58,1.5-1.31,1.5-2.17V40.98z"/>
	<path class="st0" d="M225.42,43.52c0.6-0.71,1.54-1.44,2.81-2.17c1.27-0.73,2.89-1.1,4.83-1.1c1.39,0,2.71,0.24,3.96,0.71
		c1.25,0.47,2.37,1.23,3.35,2.28c0.97,1.05,1.75,2.44,2.33,4.17c0.58,1.73,0.87,3.86,0.87,6.37c0,2.93-0.34,5.35-1.01,7.25
		c-0.68,1.9-1.54,3.4-2.61,4.51c-1.07,1.11-2.26,1.89-3.57,2.34c-1.31,0.45-2.62,0.68-3.94,0.68c-1.09,0-2.03-0.12-2.84-0.37
		c-0.81-0.24-1.49-0.52-2.05-0.82c-0.56-0.3-0.99-0.6-1.29-0.9c-0.3-0.3-0.49-0.51-0.57-0.62V80h-7.66V41.04
		c0.19-0.04,0.41-0.07,0.68-0.11c0.23-0.04,0.49-0.07,0.8-0.09c0.3-0.02,0.66-0.03,1.08-0.03c1.25,0,2.31,0.21,3.18,0.62
		C224.64,41.85,225.19,42.54,225.42,43.52 M235.57,53.95c0-1.13-0.09-2.18-0.28-3.16c-0.19-0.98-0.5-1.82-0.93-2.54
		c-0.43-0.71-1.01-1.27-1.74-1.67c-0.73-0.39-1.62-0.59-2.66-0.59c-1.57,0-2.66,0.3-3.28,0.9c-0.62,0.6-0.93,1.26-0.93,1.97v11.96
		c0.3,0.3,0.83,0.66,1.6,1.07c0.77,0.42,1.66,0.62,2.66,0.62c1.91,0,3.31-0.75,4.21-2.26C235.12,58.76,235.57,56.66,235.57,53.95"/>
	<path class="st0" d="M269.34,61.17c0,2.97,0.43,5.13,1.3,6.49c-0.68,0.26-1.31,0.45-1.89,0.56c-0.58,0.11-1.19,0.17-1.83,0.17
		c-1.35,0-2.38-0.26-3.07-0.79c-0.7-0.53-1.14-1.28-1.33-2.26c-0.83,0.87-1.92,1.6-3.27,2.2c-1.36,0.6-3.01,0.9-4.96,0.9
		c-1.01,0-2.03-0.14-3.04-0.42c-1.01-0.28-1.94-0.74-2.76-1.38c-0.83-0.64-1.51-1.49-2.03-2.56c-0.53-1.07-0.79-2.37-0.79-3.91
		c0-1.91,0.46-3.46,1.38-4.67c0.92-1.2,2.08-2.14,3.47-2.84c1.39-0.69,2.89-1.17,4.51-1.43c1.62-0.26,3.1-0.43,4.46-0.51
		c0.45-0.04,0.89-0.05,1.32-0.05h1.21v-1.03c0-1.45-0.38-2.47-1.16-3.08c-0.77-0.6-2.02-0.91-3.75-0.91c-1.62,0-3.05,0.26-4.31,0.79
		c-1.26,0.53-2.49,1.13-3.69,1.81c-0.53-0.64-0.95-1.34-1.27-2.12c-0.32-0.77-0.48-1.34-0.48-1.72c0-0.53,0.29-1.03,0.87-1.52
		c0.58-0.49,1.38-0.93,2.39-1.32c1.02-0.4,2.18-0.71,3.5-0.96c1.31-0.24,2.71-0.36,4.17-0.36c2.03,0,3.75,0.2,5.16,0.62
		c1.41,0.41,2.56,1.05,3.44,1.91c0.88,0.87,1.51,1.95,1.89,3.24c0.37,1.3,0.56,2.81,0.56,4.54V61.17z M262.13,54.63h-0.79
		c-0.26,0-0.53,0.02-0.79,0.06c-0.94,0.08-1.87,0.19-2.79,0.34c-0.92,0.15-1.74,0.41-2.45,0.79c-0.71,0.37-1.3,0.86-1.75,1.46
		c-0.45,0.6-0.68,1.37-0.68,2.31c0,1.05,0.3,1.94,0.9,2.68c0.6,0.73,1.62,1.1,3.04,1.1c0.71,0,1.39-0.09,2.03-0.28
		c0.64-0.19,1.2-0.43,1.69-0.73c0.49-0.3,0.88-0.63,1.16-0.99c0.28-0.35,0.43-0.69,0.43-0.99V54.63z"/>
	<path class="st0" d="M287.78,62.86c0.83,0,1.58-0.09,2.26-0.28c0.68-0.19,1.28-0.42,1.81-0.71c0.52-0.28,0.98-0.58,1.35-0.9
		c0.38-0.32,0.66-0.59,0.85-0.82c0.41,0.45,0.84,1.11,1.27,1.97c0.43,0.86,0.65,1.6,0.65,2.2c0,0.38-0.08,0.75-0.23,1.1
		c-0.15,0.36-0.47,0.72-0.96,1.1c-0.71,0.53-1.73,1.02-3.04,1.46c-1.32,0.45-2.99,0.68-5.02,0.68c-1.35,0-2.82-0.19-4.4-0.57
		c-1.58-0.37-3.04-1.09-4.4-2.14c-1.35-1.05-2.48-2.51-3.38-4.37c-0.9-1.86-1.35-4.29-1.35-7.3c0-2.86,0.47-5.19,1.41-6.99
		c0.94-1.8,2.11-3.23,3.5-4.28c1.39-1.05,2.87-1.78,4.43-2.17c1.56-0.39,2.96-0.59,4.2-0.59c1.54,0,2.97,0.17,4.28,0.51
		c1.31,0.34,2.41,0.79,3.27,1.35c0.71,0.45,1.21,0.89,1.49,1.3c0.28,0.41,0.42,0.9,0.42,1.46c0,0.53-0.17,1.18-0.51,1.95
		c-0.34,0.77-0.77,1.47-1.29,2.12c-0.61-0.64-1.49-1.28-2.65-1.92c-1.17-0.64-2.47-0.96-3.89-0.96c-2.48,0-4.25,0.76-5.3,2.28
		c-1.06,1.53-1.58,3.47-1.58,5.84c0,1.2,0.11,2.33,0.34,3.38c0.22,1.05,0.61,1.97,1.15,2.76c0.54,0.79,1.25,1.41,2.12,1.86
		C285.43,62.63,286.5,62.86,287.78,62.86"/>
	<path class="st0" d="M306.39,32.01c0,1.2-0.4,2.18-1.21,2.93c-0.81,0.75-1.78,1.13-2.91,1.13c-1.16,0-2.14-0.38-2.93-1.13
		c-0.79-0.75-1.18-1.73-1.18-2.93c0-1.2,0.4-2.19,1.18-2.96c0.79-0.77,1.77-1.16,2.93-1.16c1.13,0,2.1,0.39,2.91,1.16
		C305.99,29.83,306.39,30.81,306.39,32.01 M306.33,68.05c-0.15,0.07-0.49,0.13-1.01,0.17c-0.53,0.04-1.09,0.06-1.7,0.06
		c-0.75,0-1.43-0.06-2.02-0.2c-0.6-0.13-1.12-0.38-1.56-0.73c-0.43-0.36-0.77-0.83-1.01-1.44c-0.24-0.6-0.37-1.37-0.37-2.31V41.04
		c0-0.04,0.28-0.08,0.85-0.14c0.56-0.06,1.14-0.09,1.75-0.09c0.6,0,1.2,0.06,1.81,0.17c0.6,0.11,1.15,0.33,1.64,0.65
		c0.49,0.32,0.88,0.77,1.18,1.35c0.3,0.58,0.45,1.34,0.45,2.28V68.05z"/>
	<path class="st0" d="M341.49,32.01c0,1.2-0.41,2.18-1.21,2.93c-0.81,0.75-1.77,1.13-2.9,1.13c-1.17,0-2.14-0.38-2.93-1.13
		c-0.79-0.75-1.18-1.73-1.18-2.93c0-1.2,0.39-2.19,1.18-2.96c0.79-0.77,1.77-1.16,2.93-1.16c1.13,0,2.09,0.39,2.9,1.16
		C341.09,29.83,341.49,30.81,341.49,32.01 M341.44,68.05c-0.15,0.07-0.49,0.13-1.01,0.17c-0.53,0.04-1.09,0.06-1.69,0.06
		c-0.75,0-1.43-0.06-2.03-0.2c-0.6-0.13-1.12-0.38-1.55-0.73c-0.43-0.36-0.77-0.83-1.02-1.44c-0.24-0.6-0.36-1.37-0.36-2.31V41.04
		c0-0.04,0.28-0.08,0.85-0.14c0.56-0.06,1.14-0.09,1.75-0.09c0.6,0,1.2,0.06,1.81,0.17c0.6,0.11,1.15,0.33,1.64,0.65
		c0.49,0.32,0.88,0.77,1.18,1.35c0.3,0.58,0.45,1.34,0.45,2.28V68.05z"/>
	<path class="st0" d="M359.87,62.86c0.83,0,1.58-0.09,2.26-0.28c0.68-0.19,1.27-0.42,1.8-0.71c0.53-0.28,0.98-0.58,1.35-0.9
		c0.38-0.32,0.66-0.59,0.85-0.82c0.41,0.45,0.83,1.11,1.27,1.97c0.43,0.86,0.65,1.6,0.65,2.2c0,0.38-0.08,0.75-0.23,1.1
		c-0.15,0.36-0.47,0.72-0.96,1.1c-0.71,0.53-1.73,1.02-3.04,1.46c-1.32,0.45-2.99,0.68-5.02,0.68c-1.35,0-2.82-0.19-4.4-0.57
		c-1.57-0.37-3.04-1.09-4.4-2.14c-1.35-1.05-2.47-2.51-3.38-4.37c-0.9-1.86-1.35-4.29-1.35-7.3c0-2.86,0.47-5.19,1.41-6.99
		c0.94-1.8,2.11-3.23,3.5-4.28c1.39-1.05,2.87-1.78,4.43-2.17c1.56-0.39,2.96-0.59,4.2-0.59c1.54,0,2.97,0.17,4.29,0.51
		c1.32,0.34,2.4,0.79,3.27,1.35c0.71,0.45,1.21,0.89,1.49,1.3c0.28,0.41,0.43,0.9,0.43,1.46c0,0.53-0.17,1.18-0.51,1.95
		c-0.34,0.77-0.77,1.47-1.3,2.12c-0.6-0.64-1.49-1.28-2.65-1.92c-1.17-0.64-2.47-0.96-3.9-0.96c-2.48,0-4.25,0.76-5.3,2.28
		c-1.05,1.53-1.58,3.47-1.58,5.84c0,1.2,0.11,2.33,0.34,3.38c0.22,1.05,0.61,1.97,1.15,2.76c0.55,0.79,1.25,1.41,2.12,1.86
		C357.53,62.63,358.59,62.86,359.87,62.86"/>
	<path class="st0" d="M318.96,38.22c0-1.8,0.42-3.08,1.27-3.83c0.85-0.75,1.98-1.13,3.41-1.13c1.2,0,2.28,0.21,3.24,0.62
		c0.75,0.32,1.37,0.74,1.92,1.19l2.04-2.88c0,0,1.01-1.81-0.97-3.2c-0.88-0.56-1.96-0.98-3.26-1.27c-1.37-0.3-2.74-0.45-4.09-0.45
		c-3.58,0-6.35,0.95-8.3,2.85c-1.95,1.9-2.93,4.67-2.93,8.32v29.26h7.67V46.68h9.64v-5.81h-9.64V38.22z"/>
	<path class="st1" d="M110.18,29.24c0,0,4.2-5.15-0.12-8.13c-4.6-3.16-23.13-6.29-45.25,11.39C42.67,50.18,38.37,62.31,35.19,71.25
		c0,0,10.93-16.18,22.45-24.53c0,0-3.18,1.99-6.96,14.51c0,0,4.97-9.45,34.16-28.28C84.84,32.95,108.73,19.68,110.18,29.24"/>
	<path class="st1" d="M99.94,16.42c0,0-2.05-2.36-7.77-2.56c0,0-1.87,2.54-5.2,2.63c-2.85,0.08-4.09-1.68-4.74-2.3
		c3.56,1.36,6.12-0.59,6.12-0.59s-11-1.84-27.51,0.84c0,0,4.64-2.53,14.65-4.46C84.23,8.29,102.53,8.05,99.94,16.42"/>
	<path class="st2" d="M59.44,28.38c0,0-24.66,19.75-43.7,12.91c1.69,12.65,15.25,9.98,15.25,9.98S45,50.05,59.44,28.38"/>
	<path class="st2" d="M58.24,15.06c0,0-27.17,4.92-43-15.06c0,0-6.13,13.45,8.31,18.4C23.54,18.4,40.36,24.43,58.24,15.06"/>
	<path class="st2" d="M0.18,16.11c-0.65,3.83-0.1,16.08,10.3,19.1c25.36,7.45,55.14-15.55,55.14-15.55
		C24.65,32.34,8.06,21.24,0.18,16.11"/>
</g>
</svg>
