<?xml version="1.0" encoding="utf-8"?>
<!-- Generator: Adobe Illustrator 25.4.1, SVG Export Plug-In . SVG Version: 6.00 Build 0)  -->
<svg version="1.1" id="Layer_1" xmlns="http://www.w3.org/2000/svg" xmlns:xlink="http://www.w3.org/1999/xlink" x="0px" y="0px"
	 viewBox="0 0 239.7 80" style="enable-background:new 0 0 239.7 80;" xml:space="preserve">
<style type="text/css">
	.st0{fill:#F6D501;}
	.st1{fill:#026D3E;}
	.st2{fill:#FEC007;}
	.st3{fill:#2B2A29;}
</style>
<g>
	<path class="st0" d="M0,54.6v5.1c0,0,33,11.5,92.6,11.5c51.1,0,89.3-35.6,107.3-50.6S223.8,0,223.8,0h-8.4c0,0-21.3,18.9-29,25.3
		s-28.3,22.8-41.3,28s-23.8,10.3-40.8,12.1c-17,1.8-35.8,1.2-41.2,0.4c-5.4-0.8-29.8-3.6-35.5-4.5S0,54.6,0,54.6z"/>
	<path class="st1" d="M0,64.3v4.4c0,0,39.3,10.6,65.3,11.1s40.3,0.3,55.9-3.8s30.6-11.2,35.8-14s29.8-20.9,33.9-24.3
		c4.1-3.4,21.4-16.1,25.5-19.5c4.2-3.5,23.4-16.3,23.4-16.3V0h-7.4c0,0-20.3,14-23.9,16.8s-16.3,12.8-20.6,16.6s-19.9,15-24.3,18.1
		c-4.4,3.1-22.1,12.2-27.5,14.4c-5.4,2.2-17.8,7-31.7,8.7c-13.9,1.7-30.4,1.6-37.2,1.3c-6.9-0.4-28.4-2.9-33.3-4.1
		C29,70.6,0,64.3,0,64.3z"/>
	<path class="st2" d="M199,0c0,0-22.6,13.7-27.2,16.4S161,24,154.2,25.1c-6.8,1-12.4,0.1-18.1-0.8c-5.7-0.9-13.8-1.7-22.4,5.2
		l-0.2-9.6l-2.2,2c0,0,0.1,9.8-3.3,14.4c-3.4,4.6-5.5,5.6-8.9,4.9c-3.4-0.8-5.2-4.3-5.3-10.3c-0.1-6,0.1-6.7,0.1-6.7l-2.3,2.8
		c0,0-0.6,6.9-2.7,10.9c-2.1,4-6.3,6.5-8.4,6.5c-2.1,0-5.7-2-6.5-5.3c0,0,16.1-8.4,12.3-23.9c0,0-13.4,5.6-14.5,22
		c0,0-5.9,3.7-18.4,3.6c0,0,0-3,0-4.9c1.7-0.4,3.2-0.8,4.4-1.2c8.2-2.4,11.1-8.3,11.9-10.8c0.8-2.6,1.5-12.7-4.5-10.3
		c-6,2.5-10.4,11.9-11.4,14.6c-0.7,2-1.1,3.8-1.3,4.8c-6.9,1.7-16.5,3.8-24.1,5c-12.3,1.9-25.1,3-25.1,3l-2.1,3.9
		c0,0,9.2-0.8,19.2-2.2c8.1-1.1,22-4.1,31.4-6.4c-0.3,1.7-0.8,4.9-0.8,5c0,0.2-0.8,0.7-0.8,0.7l-1,3.4h0.7c0,0-3.3,22.3,4,28.4
		c0,0,6.5-3.9,5.2-13.4c-1.3-9.5-5.5-14.9-5.5-14.9s12.9-1,17.7-5.2c0,0,2,10.8,8.1,9.3c6.1-1.4,11.7-13.9,11.7-13.9
		s0.3,12.2,9.6,10.3c0,0-6.6,10.9-1.9,18c4.7,7.1,9.5,4.3,10,3.8c0.5-0.6,4.9-8.4,5.5-10.8s1.4-11.7,1-14.3s-1.9-10.1-1.9-10.1
		s4.3-3.6,11.6-4.3c7.4-0.6,17.4,2.1,22.5,1.9c5.1-0.1,13-2.7,25.4-10.9c12.4-8.2,19.4-12.3,23.3-14.3c3.9-2,9.7-5.1,9.7-5.1H199z
		 M77.3,25.2c2.5-4,4.6-5.2,5.7-4.9c1.1,0.3,2,2.8,1,5.7c-1,2.8-6.2,8.1-9.7,9.3C74.3,35.3,74.8,29.2,77.3,25.2z M64.3,17.7
		c1.9-0.1,2.7,2.5,2.7,5.9c0,3.4-2.5,5-5.9,6.6c-1.2,0.6-4,1.4-7.6,2.3C55.4,24.4,62.4,17.9,64.3,17.7z M56.5,62.7
		c0.1,1.2-0.5,2.8-1.7,2.6c-1.3-0.2-1.9-11.5-1.9-11.5S56.5,61.5,56.5,62.7z M109.8,62.9c-1.7,2.3-11.1,0-10-7.6
		c1.1-7.6,10.6-19.3,10.6-19.3s1,3,1.2,8.8C111.9,50.5,111.5,60.6,109.8,62.9z"/>
	<g>
		<path class="st3" d="M78.2,63.3c0.9-0.1,1.5-0.3,1.8-0.7c0.2-0.3,0.3-0.8,0.3-1.5L79,49.6c-0.1-0.7-0.3-1.1-0.6-1.3
			c-0.3-0.2-0.9-0.3-1.7-0.2l-0.1-0.6l6.1-0.6l6,10.7l0.2,0l3.6-11.8l6.1-0.6l0.1,0.6c-0.8,0.1-1.4,0.4-1.6,0.6
			c-0.3,0.3-0.4,0.9-0.3,1.8L97.9,59c0.1,0.9,0.3,1.5,0.6,1.7c0.3,0.2,0.9,0.3,1.7,0.3l0.1,0.6l-8.1,0.8l-0.1-0.6
			c0.7-0.1,1.2-0.3,1.6-0.5c0.3-0.3,0.5-0.8,0.4-1.5L93,48l-0.2,0l-4.5,14.9L87.7,63l-7.5-13.4l-0.1,0l1.2,11
			c0.1,0.8,0.3,1.4,0.6,1.7c0.3,0.3,1,0.5,2.1,0.4l0.1,0.6L78.3,64L78.2,63.3z"/>
		<path class="st3" d="M102,51.2c0.8-1.3,2-2.1,3.6-2.4c1.6-0.3,3,0,4.2,1c1.2,0.9,2,2.2,2.3,3.9c0.3,1.6,0.1,3.1-0.7,4.4
			c-0.8,1.3-2,2.2-3.6,2.5c-1.6,0.3-3,0-4.2-0.9c-1.2-0.9-2-2.2-2.3-3.9C100.9,54,101.1,52.5,102,51.2z M105.7,58.4
			c0.5,1,1.1,1.4,1.9,1.3c0.8-0.1,1.2-0.6,1.3-1.5c0.1-0.8,0-2.2-0.4-4c-0.3-1.8-0.7-3.1-1.1-3.8c-0.4-0.8-1-1.1-1.7-0.9
			c-0.8,0.2-1.3,0.8-1.3,1.9c0,0.7,0.1,1.9,0.4,3.6C105.1,56.7,105.4,57.8,105.7,58.4z"/>
		<path class="st3" d="M114.6,58.2c0.4-0.2,0.7-0.4,0.9-0.6c0.2-0.2,0.2-0.6,0-1.2l-1.8-7c-0.1-0.5-0.3-0.8-0.5-0.9
			c-0.2-0.1-0.6-0.2-1.1-0.1l-0.1-0.6l4.5-1.2l0.4,1.7c0.2-0.7,0.6-1.3,1.1-1.8c0.5-0.5,1.1-0.9,1.8-1.1c1-0.3,1.9-0.2,2.6,0.2
			c0.7,0.4,1.2,1.2,1.6,2.5l1.5,5.7c0.1,0.5,0.3,0.9,0.5,1c0.2,0.1,0.6,0.1,1,0.1l0.1,0.6l-5.6,1.4l-0.1-0.6
			c0.4-0.2,0.7-0.4,0.8-0.6c0.1-0.2,0.1-0.5,0-1.1l-1.5-5.7c-0.1-0.5-0.3-0.9-0.5-1.2c-0.3-0.4-0.7-0.6-1.3-0.4
			c-0.4,0.1-0.7,0.4-1,0.7c-0.3,0.4-0.5,0.8-0.6,1.1l1.6,6.3c0.1,0.5,0.3,0.8,0.5,0.9c0.2,0.1,0.5,0.1,1,0.1l0.1,0.6l-5.7,1.5
			L114.6,58.2z"/>
		<path class="st3" d="M125.4,45.4l-0.2-0.6c0.1-0.3,0.3-0.6,0.5-0.9c0.3-0.5,0.5-1,0.8-1.5c0.4-1,0.8-2,1.1-3.1l0.6-0.2l1.3,3.9
			l2.2-0.7l0.3,1l-2.2,0.7l2.3,7c0.1,0.3,0.2,0.6,0.4,0.8c0.3,0.3,0.6,0.4,0.9,0.3c0.3-0.1,0.5-0.3,0.7-0.6c0.1-0.3,0.2-0.6,0.3-1.1
			l0.6,0.1c-0.1,0.7-0.2,1.3-0.5,1.9c-0.4,0.9-1.1,1.5-2.1,1.9c-0.5,0.2-1.1,0.2-1.5,0.2c-0.9-0.1-1.5-0.7-1.9-1.8l-2.5-7.5
			L125.4,45.4z"/>
		<path class="st3" d="M135.7,48.8l0.6-0.3c0.7,1,1.4,1.6,2.2,1.8c0.8,0.2,1.5,0.2,2.1-0.1c0.6-0.2,1-0.5,1.1-0.9
			c0.2-0.4,0.2-0.8,0-1.2c-0.2-0.4-0.4-0.7-0.9-0.9c-0.2-0.1-0.6-0.2-1-0.2l-2-0.2c-1.1-0.1-1.9-0.3-2.5-0.7c-0.6-0.4-1-0.9-1.3-1.6
			c-0.3-0.9-0.3-1.8,0-2.6c0.4-0.9,1.1-1.5,2.2-2c0.5-0.2,1-0.3,1.6-0.4c0.6-0.1,1-0.1,1.1-0.2c0.2-0.1,0.3-0.2,0.3-0.3
			c0-0.1,0.1-0.2,0.1-0.4l0.5-0.2l1.3,3.3l-0.6,0.2c-0.5-0.7-1.1-1.2-1.8-1.4s-1.3-0.3-2,0c-0.5,0.2-0.8,0.5-1,0.9
			c-0.1,0.4-0.1,0.7,0,1.1c0.1,0.3,0.3,0.5,0.6,0.7c0.3,0.2,0.8,0.3,1.6,0.4l1.5,0.1c0.9,0.1,1.6,0.2,2.1,0.4c0.8,0.4,1.4,1,1.8,1.8
			c0.3,0.8,0.3,1.7,0,2.7c-0.3,1-1.1,1.7-2.3,2.2c-0.3,0.1-0.6,0.2-1,0.3c-0.3,0.1-0.8,0.1-1.3,0.1l-0.4,0c-0.2,0-0.3,0-0.3,0
			c0,0-0.1,0-0.1,0c-0.1,0.1-0.2,0.1-0.3,0.3c-0.1,0.1-0.1,0.3-0.1,0.6l-0.5,0.2L135.7,48.8z"/>
		<path class="st3" d="M143.6,38.8c0.4-1.4,1.3-2.4,2.6-3c0.7-0.4,1.5-0.5,2.3-0.4c0.8,0.1,1.6,0.4,2.2,0.9c0.5,0.4,1,1,1.5,1.7
			c0.2,0.4,0.4,0.6,0.5,0.8l-5.6,2.7c0.5,0.9,1,1.5,1.5,2.1c1,1,2.1,1.2,3.2,0.7c0.5-0.3,0.9-0.7,1.2-1.2c0.2-0.3,0.4-0.8,0.6-1.5
			l0.7,0.1c-0.1,1.4-0.5,2.6-1.2,3.5c-0.4,0.6-1,1-1.8,1.4c-1.1,0.5-2.3,0.6-3.7,0.2c-1.4-0.4-2.5-1.5-3.4-3.4
			C143.3,41.7,143.1,40.1,143.6,38.8z M149.6,39.2c-0.6-1.3-1.2-2.1-1.6-2.6c-0.4-0.4-0.9-0.5-1.5-0.2c-0.6,0.3-0.8,0.8-0.7,1.5
			c0.1,0.7,0.4,1.6,0.9,2.8L149.6,39.2z"/>
		<path class="st3" d="M156.8,42.6c0.4-0.3,0.6-0.6,0.7-0.8c0.1-0.2,0-0.6-0.3-1l-0.4-0.6l-3.5-5.6c-0.3-0.4-0.5-0.7-0.8-0.8
			c-0.2-0.1-0.6,0-1.1,0.2l-0.3-0.5l3.9-2.4l1,1.6c0.1-0.8,0.2-1.6,0.5-2.2c0.2-0.6,0.6-1.1,1.2-1.4c0.4-0.3,0.9-0.4,1.4-0.3
			c0.5,0.1,0.9,0.4,1.3,0.9c0.3,0.4,0.3,0.8,0.3,1.2c-0.1,0.4-0.3,0.7-0.7,1c-0.4,0.3-0.9,0.3-1.5,0.1c-0.6-0.2-0.9-0.3-1.1-0.2
			c-0.3,0.2-0.5,0.5-0.5,1c-0.1,0.5,0.1,1.1,0.5,1.7l2.4,3.9c0.4,0.7,0.8,1.1,1.1,1.1c0.3,0,0.8-0.1,1.4-0.4l0.3,0.5l-5.5,3.4
			L156.8,42.6z"/>
		<path class="st3" d="M167,36.2c0.3-0.3,0.5-0.6,0.6-0.9c0-0.2-0.1-0.6-0.4-0.9l-0.4-0.6l-4.1-5.2c-0.3-0.4-0.6-0.6-0.9-0.7
			c-0.3,0-0.6,0.1-1,0.4l-0.4-0.5L164,25l1.2,1.5c0-0.9,0-1.6,0.2-2.2c0.2-0.6,0.5-1.2,1-1.6c0.4-0.3,0.8-0.5,1.4-0.5
			c0.5,0,1,0.2,1.4,0.7c0.3,0.4,0.4,0.8,0.4,1.2c0,0.4-0.2,0.8-0.6,1.1c-0.4,0.3-0.9,0.4-1.5,0.3c-0.6-0.1-1-0.2-1.1-0.1
			c-0.3,0.2-0.4,0.6-0.4,1.1s0.2,1.1,0.7,1.7l2.9,3.6c0.5,0.6,0.9,1,1.2,1c0.3,0,0.8-0.2,1.3-0.6l0.4,0.5l-5.1,4.1L167,36.2z"/>
		<path class="st3" d="M174.6,24.2c0.2-1.2,0.9-2.9,2-5l-1.3-1.2c-0.5-0.5-1-0.7-1.5-0.8c-0.5,0-1,0.3-1.5,0.8
			c-0.3,0.3-0.5,0.6-0.6,1c-0.1,0.3,0,0.6,0.2,0.7c0.1,0.1,0.1,0.1,0.2,0.1c0.1,0,0.2,0,0.2,0l0.2,0c0.2,0,0.3,0,0.5,0.1
			s0.3,0.2,0.4,0.3c0.3,0.3,0.5,0.7,0.5,1.1c0,0.4-0.2,0.7-0.4,1c-0.3,0.3-0.7,0.5-1.1,0.6c-0.4,0.1-0.8-0.1-1.2-0.5
			c-0.7-0.6-0.9-1.5-0.7-2.5c0.2-1,0.7-2,1.6-2.9c0.9-1,1.9-1.7,2.9-2c1-0.3,2.1,0,3.1,1l4.3,4c0.1,0.1,0.3,0.2,0.4,0.2
			c0.2,0,0.3,0,0.3-0.1c0.1-0.1,0.1-0.1,0.1-0.2c0-0.1,0-0.2,0-0.5l0.6,0.1c0.1,0.7,0,1.4-0.2,2c-0.1,0.4-0.4,0.7-0.6,1
			c-0.5,0.5-1,0.8-1.5,0.7c-0.3,0-0.7-0.2-1.1-0.4c0,1-0.1,1.8-0.5,2.7c-0.2,0.5-0.5,0.9-0.8,1.3c-0.5,0.5-1,0.8-1.7,0.9
			c-0.7,0.1-1.4-0.1-2.1-0.7C174.6,26.4,174.3,25.4,174.6,24.2z M179.8,23.2c0-0.2,0-0.6,0-1l-2.6-2.4c-0.3,0.6-0.5,1.2-0.6,1.8
			c-0.1,1,0.1,1.8,0.8,2.4c0.4,0.4,0.8,0.5,1.1,0.6c0.4,0,0.7-0.1,0.9-0.3C179.6,24,179.7,23.6,179.8,23.2z"/>
		<path class="st3" d="M177.7,12.8l-0.6-0.4c0-0.3-0.1-0.6-0.1-1.1c-0.1-0.6-0.2-1.1-0.3-1.7c-0.3-1.1-0.6-2.1-1-3.1l0.3-0.5
			l3.4,2.3l1.3-1.9l0.9,0.6L180.3,9l6.1,4.1c0.3,0.2,0.5,0.3,0.8,0.4c0.4,0.1,0.7,0,0.9-0.3c0.2-0.3,0.2-0.5,0.2-0.9
			c-0.1-0.3-0.2-0.7-0.4-1.1l0.6-0.3c0.4,0.6,0.7,1.2,0.8,1.8c0.2,1,0,1.9-0.5,2.7c-0.3,0.5-0.7,0.8-1.1,1.1
			c-0.8,0.5-1.7,0.4-2.6-0.2l-6.6-4.5L177.7,12.8z"/>
	</g>
</g>
</svg>
