<?xml version="1.0" encoding="utf-8"?>
<!-- Generator: Adobe Illustrator 25.4.1, SVG Export Plug-In . SVG Version: 6.00 Build 0)  -->
<svg version="1.1" id="Layer_1" xmlns="http://www.w3.org/2000/svg" xmlns:xlink="http://www.w3.org/1999/xlink" x="0px" y="0px"
	 viewBox="0 0 301.43 80" style="enable-background:new 0 0 301.43 80;" xml:space="preserve">
<style type="text/css">
	.st0{fill:#330072;}
	.st1{fill:#FF585D;}
</style>
<g id="Clip-9">
</g>
<g id="Clip-2">
</g>
<g>
	<path class="st0" d="M9.04,80c-3.2,0-6.5-0.8-8.6-1.8c-0.4-0.2-0.5-0.6-0.4-0.9c0.4-1,1.3-3.1,1.8-4.2c0.2-0.4,0.6-0.5,1-0.4
		c1.6,0.8,4.2,1.5,6,1.5c2.6,0,4.3-1.2,4.3-3.1c0-2.1-1.9-3-4.4-3.9c-3.6-1.3-8.2-3-8.2-8.7c0-5,3.8-8.5,10.5-8.5
		c3.3,0,6.1,0.7,8.2,1.8c0.3,0.2,0.5,0.6,0.3,0.9c-0.4,0.9-1.2,2.7-1.6,3.6c-0.2,0.4-0.6,0.5-1,0.3c-1.3-0.7-3.4-1.3-5-1.3
		c-2.6,0-4,1.3-4,3c0,2.2,1.9,3,4.4,3.9c3.8,1.4,8.4,3,8.4,8.8C20.73,76.5,16.73,80,9.04,80z"/>
	<path class="st0" d="M58.53,79.4c-0.4,0-0.7-0.3-0.7-0.7V60.3c0-2.8-1.8-4.4-4.7-4.4c-1.8,0-3.2,0.5-4.3,1.4v21.3
		c0,0.4-0.3,0.7-0.7,0.7h-5.9c-0.4,0-0.7-0.3-0.7-0.7V60c0-2.6-1.9-4.1-5-4.1c-1.6,0-3,0.3-4,0.7v22.1c0,0.4-0.3,0.7-0.7,0.7h-5.8
		c-0.4,0-0.7-0.3-0.7-0.7V53.8c0-1,0.6-1.9,1.6-2.2c2.6-0.9,5.8-1.5,9.2-1.5c4.6,0,7.5,1.4,9.2,2.9c1.8-1.4,5.3-2.9,9.6-2.9
		c6.3,0,10.1,3.7,10.1,9.5v19.1c0,0.4-0.3,0.7-0.7,0.7C64.33,79.4,58.53,79.4,58.53,79.4z"/>
	<path class="st1" d="M177.52,79.4h-1c-2.2,0-4.2-1.4-4.9-3.5l-8.8-24.2c-0.2-0.5,0.2-0.9,0.7-0.9h6.6c0.3,0,0.6,0.2,0.7,0.5l6.3,21
		l6.2-21c0.1-0.3,0.4-0.5,0.7-0.5h6.6c0.5,0,0.8,0.5,0.7,0.9l-8.7,24.2C181.72,78,179.82,79.4,177.52,79.4z"/>
	<path class="st1" d="M199.42,46.1c-2.3,0-4.1-1.8-4.1-3.9c0-2.2,1.9-3.9,4.1-3.9c2.3,0,4.1,1.7,4.1,3.9
		C203.51,44.4,201.62,46.1,199.42,46.1z M195.72,78.7V51.4c0-0.4,0.3-0.7,0.7-0.7h5.8c0.4,0,0.7,0.3,0.7,0.7v27.2
		c0,0.4-0.3,0.7-0.7,0.7h-5.8C196.12,79.4,195.72,79,195.72,78.7z"/>
	<path class="st0" d="M81.73,50.1c-3.1,0-6.1,0.6-8.5,1.3c-0.4,0.1-0.6,0.5-0.5,0.9l1.5,3.9c0.1,0.3,0.5,0.5,0.9,0.4
		c1.9-0.6,4.1-1,6.1-1c3.3,0,5.2,0.8,5.2,3.8v1.5c-8.7,0.5-16.8,2-16.8,9.8c0,5.8,4.3,9.2,12.9,9.2c3,0,6.1-0.5,8.3-1.1
		c1.4-0.4,2.4-1.7,2.4-3.2v-14C93.33,51.9,88.13,50,81.73,50.1z M86.43,74.3c-0.7,0.3-2.6,0.6-4.1,0.6c-3.8,0-5.9-1.5-5.9-4.3
		c0-4.3,4.7-4.8,10-5V74.3z"/>
	<path class="st1" d="M147.62,50.1c-3.1,0-6.1,0.6-8.5,1.3c-0.4,0.1-0.6,0.5-0.5,0.9l1.5,3.9c0.1,0.3,0.5,0.5,0.9,0.4
		c1.9-0.6,4.1-1,6.1-1c3.3,0,5.2,0.8,5.2,3.8v1.5c-8.7,0.5-16.8,2-16.8,9.8c0,5.8,4.3,9.2,12.9,9.2c3,0,6.1-0.5,8.3-1.1
		c1.4-0.4,2.4-1.7,2.4-3.2v-14C159.22,51.9,154.02,50,147.62,50.1z M152.32,74.3c-0.7,0.3-2.6,0.6-4.1,0.6c-3.8,0-5.9-1.5-5.9-4.3
		c0-4.3,4.7-4.8,10-5V74.3z"/>
	<path class="st1" d="M220.31,50.1c-3.1,0-6.1,0.6-8.5,1.3c-0.4,0.1-0.6,0.5-0.5,0.9l1.5,3.9c0.1,0.3,0.5,0.5,0.9,0.4
		c1.9-0.6,4.1-1,6.1-1c3.3,0,5.2,0.8,5.2,3.8v1.5c-8.7,0.5-16.8,2-16.8,9.8c0,5.8,4.3,9.2,12.9,9.2c3,0,6.1-0.5,8.3-1.1
		c1.4-0.4,2.4-1.7,2.4-3.2v-14C231.81,51.9,226.61,50,220.31,50.1z M225.01,74.3c-0.7,0.3-2.6,0.6-4.1,0.6c-3.8,0-5.9-1.5-5.9-4.3
		c0-4.3,4.7-4.8,10-5V74.3z"/>
	<path class="st0" d="M130.72,56.1c0.4,0,0.7-0.3,0.7-0.7v-4c0-0.4-0.3-0.7-0.7-0.7h-4.7V44c0-0.4-0.3-0.7-0.7-0.7h-5.7
		c-0.4,0-0.7,0.3-0.7,0.7v26.8c0,6,2.6,9,8.1,9c1.5,0,3-0.3,3.9-0.6c0.3-0.1,0.5-0.4,0.5-0.7v-4.6c0-0.5-0.4-0.8-0.9-0.7
		c-0.4,0.1-0.8,0.2-1.2,0.2c-1.9,0-3.3-0.8-3.3-3.1V56.1H130.72z"/>
	<path class="st0" d="M114.22,51.4c0-0.4-0.4-0.7-0.8-0.7c-0.5,0-2.2,0-2.2,0c-6.4,0-11.5,4.8-11.5,11.1v16.8c0,0.4,0.3,0.7,0.7,0.7
		h5.8c0.4,0,0.7-0.3,0.7-0.7V62.8c0-4.5,3.1-6,6.7-6.4c0.3,0,0.6-0.3,0.6-0.7C114.22,55.7,114.22,51.4,114.22,51.4z"/>
	<path class="st1" d="M256.31,30.21l-4.8,17.6c-0.4,1.3,0.5,2.6,1.9,2.8l16.3,2c0.4,0,0.3,0.6,0,0.6l-17.1,1.8
		c-1.8,0.2-3.4,1.5-3.9,3.3l-5.4,20c-0.2,0.9,0.8,1.7,1.6,1.1l40.59-25.7c0.6-0.4,0.7-1.2,0.1-1.7L258,29.71
		C257.41,29.21,256.51,29.51,256.31,30.21z"/>
	<path class="st0" d="M288.41,49.3l4.8-17.6c0.4-1.3-0.5-2.6-1.9-2.8l-16.3-2c-0.4,0-0.3-0.6,0-0.6l17.1-1.7
		c1.8-0.2,3.4-1.5,3.9-3.3l5.4-20c0.2-0.9-0.8-1.7-1.6-1.1l-40.6,25.7c-0.6,0.4-0.7,1.2-0.1,1.7l27.6,22.4
		C287.31,50.3,288.21,50.1,288.41,49.3z"/>
</g>
</svg>
