<?xml version="1.0" encoding="utf-8"?>
<!-- Generator: Adobe Illustrator 25.4.1, SVG Export Plug-In . SVG Version: 6.00 Build 0)  -->
<svg version="1.1" id="Layer_1" xmlns="http://www.w3.org/2000/svg" xmlns:xlink="http://www.w3.org/1999/xlink" x="0px" y="0px"
	 viewBox="0 0 199.56 80" style="enable-background:new 0 0 199.56 80;" xml:space="preserve">
<style type="text/css">
	.st0{fill:#72CDF4;}
	.st1{fill:#00539B;}
</style>
<path class="st0" d="M126.17,50.12c-10.33,5-17.81,15.38-17.12,22.9C68.39,60.95,30.52,65.5,3.08,79.17
	C1.47,79.95,0,79.82,2.52,78.35C30.34,61.92,83.81,47.37,126.17,50.12"/>
<path class="st1" d="M199.56,34.7l-1.47,6.84c0,0-0.41,3.08-2.62,4.22c-2.16,1.15-5.74,1.1-5.74,1.1h-38.42l2.29-10.74
	c-3.81,8.35-13.72,12.3-31.3,12.3c-8.54,0-17.35-0.73-22.21-4.45l0.6,2.85h-19l-0.78-5.19H62.28l-3.03,5.19H40.3l25.01-39.2
	c0,0,2.48-4.04,4.41-5c2.2-1.1,6.24-1.06,6.24-1.06h15.19l6.75,31.62h20.47c-0.28,1.51,0.09,2.52,1.19,3.21
	c1.19,0.64,3.08,0.96,5.87,0.96c5.6,0,7.44-1.51,7.89-3.67c0.28-1.33-0.28-2.66-2.57-3.03l-19.78-3.03
	c-8.45-1.33-11.02-6.43-9.64-12.76C103.82,3.17,115.94,0,130.67,0c20.15,0,27.36,5.28,25.93,14.83h-20.79
	c0.41-1.84-0.46-2.98-1.97-3.63c-1.42-0.69-3.4-0.96-5.37-0.96c-5.32,0-7.44,1.33-7.85,3.21c-0.28,1.29,0.14,2.11,1.84,2.34
	l20.7,3.17c7.3,1.1,11.75,4.22,12.07,9.73l5.78-27.13h17.9l-7.02,33.09h27.68V34.7z M88.77,23.96c0,0-5.87-2.8-13.03-2.39
	c-10.83,0.64-14.55,7.39-14.55,7.39s4.59-3.21,12.99-2.8c5.83,0.28,9.18,2.43,9.18,2.43s0.78-2.43,2.16-3.44
	C86.88,24.14,88.77,23.96,88.77,23.96"/>
<path class="st1" d="M134.11,51.04h2.02l1.51,9.59h-2.16l-0.32-2.11h-4.04l-1.42,2.11h-2.25L134.11,51.04z M134.94,56.64l-0.41-3.12
	l-2.11,3.12H134.94z"/>
<polygon class="st1" points="141.46,51.13 143.52,51.13 141,60.63 138.89,60.63 "/>
<path class="st1" d="M145.91,51.13h3.49c1.42,0,2.39,0.32,3.03,0.96c0.46,0.46,0.73,1.15,0.73,1.93c0,1.7-1.06,2.94-3.08,3.4
	l1.61,3.26h-2.39l-1.47-3.03h-1.56l-0.83,3.03h-2.11L145.91,51.13z M148.66,55.77c1.29,0,2.29-0.55,2.29-1.56
	c0-0.32-0.09-0.55-0.32-0.78c-0.28-0.28-0.73-0.41-1.38-0.41h-1.74l-0.73,2.75H148.66z"/>
<polygon class="st1" points="155.82,51.13 157.89,51.13 155.87,58.75 160.6,58.75 160.09,60.63 153.25,60.63 "/>
<polygon class="st1" points="164.41,51.13 166.52,51.13 163.95,60.63 161.84,60.63 "/>
<polygon class="st1" points="168.9,51.13 170.83,51.13 173.59,57.19 175.24,51.13 177.3,51.13 174.73,60.63 172.94,60.63 
	170.05,54.39 168.4,60.63 166.33,60.63 "/>
<polygon class="st1" points="179.55,51.13 186.67,51.13 186.16,53.01 181.16,53.01 180.61,54.94 185.06,54.94 184.56,56.78 
	180.1,56.78 179.6,58.8 184.69,58.8 184.19,60.63 177.03,60.63 "/>
<path class="st1" d="M185.75,59.02l1.56-1.33c0.73,0.83,1.56,1.24,2.66,1.24c0.83,0,1.47-0.41,1.47-1.01c0-0.46-0.32-0.73-1.61-1.24
	c-1.24-0.5-2.34-1.15-2.34-2.57c0-1.93,1.74-3.12,3.76-3.12c1.65,0,2.75,0.55,3.58,1.42l-1.42,1.42c-0.73-0.64-1.38-1.01-2.29-1.01
	c-0.87,0-1.38,0.5-1.38,0.96c0,0.5,0.37,0.73,1.65,1.24c1.29,0.55,2.29,1.19,2.29,2.57c0,2.02-1.79,3.17-3.76,3.17
	C188.04,60.77,186.67,60.17,185.75,59.02"/>
<polygon class="st0" points="122.82,64.26 130.03,64.26 129.52,66.14 124.38,66.14 123.83,68.16 128.38,68.16 127.87,70.09 
	123.33,70.09 122.36,73.76 120.25,73.76 "/>
<path class="st0" d="M131.82,64.26h3.49c1.42,0,2.39,0.32,3.03,0.96c0.46,0.46,0.73,1.15,0.73,1.93c0,1.7-1.06,2.94-3.08,3.4
	l1.61,3.26h-2.39l-1.47-3.03h-1.56l-0.83,3.03h-2.11L131.82,64.26z M134.53,68.89c1.29,0,2.29-0.55,2.29-1.56
	c0-0.32-0.09-0.55-0.32-0.78c-0.28-0.28-0.73-0.41-1.38-0.41h-1.74l-0.73,2.75L134.53,68.89L134.53,68.89z"/>
<path class="st0" d="M144.72,64.17h2.02l1.51,9.59h-2.16l-0.32-2.11h-4.04l-1.42,2.11h-2.25L144.72,64.17z M145.54,69.76l-0.41-3.12
	l-2.11,3.12H145.54z"/>
<polygon class="st0" points="151.97,64.26 153.9,64.26 156.65,70.32 158.3,64.26 160.37,64.26 157.8,73.76 156.01,73.76 
	153.16,67.52 151.46,73.76 149.4,73.76 "/>
<path class="st0" d="M160.83,69.76c0-3.03,2.57-5.69,5.78-5.69c1.84,0,3.03,0.78,3.81,2.02l-1.74,1.19
	c-0.55-0.78-1.19-1.29-2.34-1.29c-1.74,0-3.35,1.65-3.35,3.67c0,1.38,0.96,2.29,2.34,2.29c0.92,0,1.51-0.37,2.25-0.92l1.38,1.42
	c-0.92,0.83-2.02,1.47-3.58,1.47C162.71,73.94,160.83,72.34,160.83,69.76"/>
<polygon class="st0" points="172.53,64.26 179.6,64.26 179.14,66.09 174.09,66.09 173.59,68.07 177.99,68.07 177.49,69.9 
	173.08,69.9 172.53,71.92 177.62,71.92 177.12,73.76 169.96,73.76 "/>
</svg>
