<?xml version="1.0" encoding="utf-8"?>
<!-- Generator: Adobe Illustrator 25.4.1, SVG Export Plug-In . SVG Version: 6.00 Build 0)  -->
<svg version="1.1" id="Layer_1" xmlns="http://www.w3.org/2000/svg" xmlns:xlink="http://www.w3.org/1999/xlink" x="0px" y="0px"
	 viewBox="0 0 72.1 80" style="enable-background:new 0 0 72.1 80;" xml:space="preserve">
<style type="text/css">
	.st0{fill:#FBDA05;}
	.st1{fill:#FFFFFF;}
</style>
<g>
	<g>
		<path class="st0" d="M49.1,59.8c-6.6,5.9-21.4,7.3-21.4,7.3c-7,2.8-13.3,5.7-14.7,6.3c0,0,0,0,0,0c0,0-0.1,0-0.1,0.1
			c0,0-0.1,0-0.1,0s0,0,0,0c-1.6,0.6,1.4-2.5,1.6-3.5c0.2-1-1.3-0.5-1.6-1.1c-0.1-0.1,0-0.2,0.2-0.3c0.2-0.1,0.3-0.2,0.5-0.2
			c0.7-0.4,1.8-1,2.7-2.8c1.5-2.9,7.6-11.1,10.1-12.6c2.5-1.5,12.7-4.3,12.7-4.3c1.5,0.3,4.1,0.6,4.1,0.6c1.7,2.9,3.4,1.3,6,2.5
			C51.7,53.1,49.1,59.8,49.1,59.8z"/>
	</g>
	<g>
		<path d="M40.5,48c0,0-2.1,2-4.1,3.8s-6.5,5.9-8.2,5.9s-0.9-2.2,1.4-4.4c2.3-2.2,6.2-4.8,7.2-5.4s1.8-1,1.8-1s0.2,0.6,0.9,0.5
			C40.2,47.2,40.9,47.7,40.5,48z"/>
		<path class="st1" d="M28.3,57.9C28.2,57.9,28.2,57.9,28.3,57.9c-0.7,0-1-0.4-1.1-0.6c-0.3-0.9,0.6-2.6,2.3-4.2
			c2.2-2.1,6-4.7,7.2-5.5c1-0.6,1.8-1,1.9-1.1l0.2-0.1l0.1,0.2c0,0,0.2,0.4,0.6,0.3c0.5-0.1,1.1,0.2,1.3,0.6
			c0.1,0.2,0.1,0.5-0.1,0.7c0,0-2.1,2.1-4.1,3.8c-0.3,0.2-0.6,0.5-0.9,0.8C32.7,55.4,29.7,57.9,28.3,57.9z M38.6,47.1
			c-0.3,0.2-0.9,0.5-1.6,0.9c-1.2,0.8-4.9,3.3-7.1,5.4c-1.7,1.7-2.4,3.1-2.2,3.7c0,0.1,0.1,0.3,0.6,0.3c0,0,0,0,0,0
			c1.4,0,5.1-3.2,7.1-5c0.3-0.3,0.7-0.6,0.9-0.8c2-1.7,4-3.7,4-3.7l0,0c0.1-0.1,0-0.1,0-0.1c-0.1-0.1-0.4-0.3-0.8-0.3
			C39.1,47.5,38.7,47.3,38.6,47.1z"/>
	</g>
	<g>
		<path d="M37.8,44.6c0,0,0.1-0.5-1.2,0.3c-1.3,0.8-7,5.5-8,6.2c-0.9,0.7-2.5,2.2-1.8,2.6s2,0.4,2.9-0.4c0.9-0.8,3.9-3.2,4.9-3.9
			c1.1-0.7,4-2.3,4.1-2.6s-0.4-0.8-0.5-1s0.2-0.2-0.1-0.7C37.8,44.6,37.8,44.6,37.8,44.6z"/>
		<path class="st1" d="M27.9,54.2c-0.5,0-0.9-0.1-1.2-0.3c-0.2-0.1-0.3-0.3-0.3-0.5c-0.1-0.7,1.1-1.7,2.1-2.5c0.2-0.2,0.7-0.5,1.3-1
			c2.1-1.7,5.7-4.6,6.7-5.2c0.8-0.5,1.2-0.6,1.4-0.4c0.1,0.1,0.1,0.2,0.2,0.3l0.3,0.4c0.3,0.4,0.2,0.6,0.1,0.7
			c0,0.1,0.1,0.2,0.2,0.3c0.2,0.3,0.4,0.6,0.3,0.9c-0.1,0.2-0.4,0.4-2.1,1.4c-0.8,0.5-1.6,0.9-2,1.3c-1.1,0.8-4,3.1-4.9,3.9
			C29.2,53.9,28.5,54.2,27.9,54.2z M37.5,44.6c-0.1,0-0.4,0.1-0.9,0.4c-1,0.6-4.7,3.6-6.7,5.2c-0.6,0.5-1,0.8-1.3,1
			c-1.3,1-1.9,1.8-1.9,2.1c0,0,0,0,0.1,0.1c0.7,0.4,1.8,0.4,2.6-0.4c0.9-0.8,3.8-3.2,5-3.9c0.5-0.3,1.3-0.8,2.1-1.3
			c0.8-0.5,1.7-1,1.9-1.2c0-0.1-0.2-0.3-0.3-0.5c-0.1-0.2-0.2-0.3-0.2-0.4c-0.1-0.2,0-0.3,0-0.4c0-0.1,0-0.1-0.1-0.3L37.5,44.6z"/>
	</g>
	<g>
		<path d="M33.7,24.2c0,0-3.4-1.3-9.4-5.2s-8.2-6.5-7.8-6.9s2.4-0.4,5.1,0.7s4.7,2.6,5.6,3.5c0.9,0.9,4.5,4.2,5.9,5.2
			c1.3,0.9,1.1,1.1,0.9,1.6C33.9,23.4,33.7,24.2,33.7,24.2z"/>
		<path class="st1" d="M33.9,24.5l-0.3-0.1c0,0-3.5-1.4-9.5-5.3c-5.3-3.5-7.9-6-7.9-6.9c0-0.2,0.1-0.3,0.1-0.4
			c0.5-0.5,2.8-0.5,5.4,0.6c2.6,1.1,4.7,2.6,5.7,3.6c0.8,0.8,4.5,4.2,5.8,5.1c1.2,0.8,1.3,1.2,1.1,1.8l0,0.1
			c-0.2,0.4-0.4,1.2-0.4,1.2L33.9,24.5z M17.6,12c-0.5,0-0.9,0.1-1,0.2c0,0.3,1.8,2.6,7.7,6.5c5,3.3,8.2,4.8,9.1,5.1
			c0.1-0.3,0.2-0.7,0.3-1l0-0.1c0.1-0.3,0.2-0.4-0.9-1.2c-1.4-1-5-4.4-5.9-5.2c-1-1-3-2.4-5.6-3.5C19.8,12.2,18.5,12,17.6,12z"/>
	</g>
	<g>
		<path d="M22.1,1c0,0,0.4-1.4,1.1-0.4c0.7,1,13,19,13.5,20.1s-1.9,0.7-1.9,0.7s-6-7.9-8.5-11.2S21.8,3.4,22.1,1z"/>
		<path class="st1" d="M35.7,21.8c-0.4,0-0.8-0.1-0.9-0.1l-0.1,0l-0.1-0.1c0,0-6-7.9-8.5-11.2c-2.2-2.8-4.6-6.7-4.3-9.5l0,0
			c0-0.1,0.3-0.8,0.7-0.9c0.3-0.1,0.5,0.1,0.8,0.4c0.8,1.1,13,19.1,13.6,20.2c0.2,0.4,0.1,0.6,0,0.8C36.7,21.7,36.2,21.8,35.7,21.8z
			 M35,21.2c0.7,0.1,1.4,0.1,1.6-0.1c0-0.1,0-0.2,0-0.2C36,19.8,23.8,1.8,23,0.7c-0.1-0.2-0.3-0.3-0.3-0.3c-0.1,0-0.3,0.3-0.3,0.5
			c-0.3,2,1.2,5.2,4.2,9.1C28.9,13.2,34.4,20.4,35,21.2z"/>
	</g>
	<g>
		<path d="M71.6,49c-1.4-1.2-3.8-1.7-5.6-1.4c-1.8,0.3-1.7,1.5-2.7,2.7c-1,1.2-4.1,1.9-6.7,5.2c-2.6,3.3-7.5,4.3-7.5,4.3
			s2.6-6.8,0-8c-2.6-1.2-4.3,0.4-6-2.5c0,0,1.5-2.5,2.2-2.9c0.7-0.4,1.2,0,2.2,0.4c1,0.4,2.5-1.1,3.8-1.9c1.3-0.7,4.9-2.6,8.7-2.6
			c3.8,0,6,2.7,6,2.7C71.8,46.5,72.9,50.2,71.6,49z"/>
	</g>
	<g>
		<path d="M14.4,70c-0.2,1-3.2,4-1.6,3.5c-0.4,0.3-6.3,5-7.4,5.9c-1.1,0.9,0-2.4,0.4-2.9c-0.5,0.4-3.9,3.3-5.2,3.5
			c-1.5,0.2,0.2-1.5,3-3.8c2.7-2.1,7-6.2,9.4-7.6c-0.2,0.1-0.2,0.2-0.2,0.3C13.1,69.5,14.7,69.1,14.4,70z"/>
	</g>
	<g>
		<circle class="st0" cx="61.9" cy="45.7" r="1.1"/>
	</g>
	<g>
		<path d="M44.4,45.4c0,0,1.6,0.4,1,1.4s-2.5,3.5-3.7,3.5c-1.2,0-2.1-1.4-1-2.4C41.8,46.7,44.4,45.4,44.4,45.4z"/>
		<path class="st1" d="M41.7,50.5c-0.7,0-1.4-0.4-1.6-1c-0.2-0.6-0.1-1.3,0.5-1.8c1.1-1.1,3.6-2.4,3.8-2.5l0.1,0l0.1,0
			c0.1,0,1,0.3,1.2,0.9c0.1,0.2,0.1,0.5-0.1,0.9C45.1,47.6,43.1,50.5,41.7,50.5z M44.4,45.6c-0.5,0.2-2.6,1.4-3.5,2.3
			c-0.4,0.4-0.5,0.8-0.3,1.3c0.2,0.4,0.6,0.7,1.2,0.7c1,0,2.8-2.2,3.5-3.3c0.1-0.2,0.1-0.4,0.1-0.4C45.1,45.9,44.7,45.7,44.4,45.6z"
			/>
	</g>
	<g>
		<path d="M44.8,45.5c0,0,0.5-2.2-0.6-1.9s-3.8,2.8-4,3.2c-0.3,0.4,0.4,1.1,0.8,0.8C41.3,47.3,44.8,45.5,44.8,45.5z"/>
		<path class="st1" d="M40.7,47.9c-0.2,0-0.4-0.1-0.5-0.2c-0.3-0.3-0.4-0.7-0.2-1c0.2-0.3,3-3,4.2-3.3c0.4-0.1,0.6,0.1,0.7,0.2
			c0.5,0.5,0.2,1.8,0.2,2.1l0,0.1l-0.1,0.1c-1.4,0.7-3.5,1.8-3.8,2C41,47.8,40.9,47.9,40.7,47.9z M44.4,43.8
			C44.3,43.8,44.3,43.8,44.4,43.8c-1.1,0.2-3.7,2.7-4,3.1c0,0.1,0,0.2,0.2,0.4c0,0,0.2,0.2,0.3,0.1c0.4-0.3,3.1-1.7,3.8-2
			c0.1-0.5,0.2-1.3-0.1-1.5C44.5,43.9,44.5,43.8,44.4,43.8z"/>
	</g>
	<g>
		<path d="M44.2,43.6c0,0,0.4-1.9-1.1-1.4s-5.5,3.3-5,3.9c0.4,0.7,1.2,1.5,2.2,0.5S44,43.6,44.2,43.6z"/>
		<path class="st1" d="M39.4,47.3c0,0-0.1,0-0.1,0c-0.5-0.1-0.9-0.4-1.4-1c-0.1-0.1-0.1-0.2,0-0.5c0.4-1,3.9-3.4,5.2-3.8
			c0.5-0.1,0.8-0.1,1.1,0.1c0.5,0.5,0.3,1.5,0.3,1.6l0,0.2l-0.2,0c-0.4,0.1-2.7,2-3.7,2.9C40.1,47.1,39.8,47.3,39.4,47.3z
			 M43.5,42.3c-0.1,0-0.2,0-0.3,0.1c-1.5,0.5-4.9,3-4.9,3.6c0.3,0.5,0.7,0.8,1,0.8c0.3,0,0.5-0.1,0.8-0.4c0.7-0.7,3-2.6,3.8-3
			c0-0.3,0-0.8-0.2-1C43.8,42.4,43.7,42.3,43.5,42.3z"/>
	</g>
	<g>
		<path d="M43.4,42.1c0,0,0.5-3.1-1.1-2.6c-1.7,0.5-4.5,3.4-4.5,4.1c0,0.7,0,2.2,1.3,1.2C40.2,43.8,42.6,42.4,43.4,42.1z"/>
		<path class="st1" d="M38.3,45.4c-0.1,0-0.2,0-0.3-0.1c-0.5-0.3-0.6-1.1-0.5-1.7c0-0.9,3.1-3.8,4.7-4.3c0.5-0.2,0.8,0,1,0.2
			c0.7,0.7,0.4,2.5,0.4,2.7l0,0.1l-0.1,0c-0.8,0.2-3.1,1.7-4.3,2.6C38.9,45.2,38.6,45.4,38.3,45.4z M42.6,39.7c-0.1,0-0.2,0-0.3,0
			c-1.7,0.5-4.3,3.4-4.4,3.8c0,0.8,0.1,1.2,0.3,1.3c0.1,0.1,0.3,0,0.6-0.2c1.2-0.9,3.3-2.3,4.3-2.7c0.1-0.7,0.1-1.8-0.3-2.1
			C42.9,39.8,42.8,39.7,42.6,39.7z"/>
	</g>
	<g>
		<path d="M42.5,39.5c0,0,0.6-2.4-1.2-2s-5.3,2.9-4.9,3.8c0.4,0.9,1.1,2.2,1.9,1.2C39.3,41.6,41.6,39.7,42.5,39.5z"/>
		<path class="st1" d="M37.8,43.1c0,0-0.1,0-0.1,0c-0.7-0.1-1.1-1-1.4-1.7c-0.1-0.2-0.1-0.4,0.1-0.7c0.6-1.2,3.4-3.1,5-3.5
			c0.5-0.1,1-0.1,1.2,0.2c0.6,0.6,0.3,1.9,0.2,2l0,0.1l-0.1,0c-0.9,0.2-3.1,2-4,3C38.3,43,38,43.1,37.8,43.1z M41.8,37.7
			c-0.1,0-0.2,0-0.4,0.1c-1.5,0.4-4.2,2.2-4.7,3.2c-0.1,0.1-0.1,0.2-0.1,0.3c0.5,1.1,0.8,1.4,1,1.4c0.1,0,0.2,0,0.5-0.2
			c0.8-0.9,3-2.7,4.1-3.1c0.1-0.4,0.2-1.1-0.1-1.4C42.1,37.7,41.9,37.7,41.8,37.7z"/>
	</g>
	<g>
		<path d="M41.8,37.4c0,0,0.6-1.5,0-2c-0.6-0.5-5.2,1.4-5.9,2.3c-0.7,0.9,0.3,2.7,1.3,2C38.3,39.1,40.7,37.8,41.8,37.4z"/>
		<path class="st1" d="M36.8,40.1c-0.3,0-0.6-0.1-0.9-0.4c-0.5-0.5-0.7-1.5-0.2-2.1c0.6-0.8,4-2.3,5.5-2.4c0.4,0,0.6,0,0.8,0.1
			c0.7,0.6,0.1,2.1,0.1,2.3l0,0.1l-0.1,0c-1.1,0.3-3.5,1.6-4.5,2.3C37.2,40,37,40.1,36.8,40.1z M41.5,35.6c-1,0-4.7,1.4-5.3,2.3
			c-0.3,0.4-0.2,1.1,0.2,1.5c0.2,0.2,0.4,0.4,0.8,0.2c1-0.6,3.4-1.9,4.5-2.3c0.1-0.4,0.4-1.3,0-1.6C41.6,35.6,41.6,35.6,41.5,35.6z"
			/>
	</g>
	<g>
		<path d="M40.9,35.4c0,0,0.8-0.3,0.9-0.7s0.2-2-0.9-2c-1,0-5.4,1-5.6,1.6c-0.3,0.6,0,3,0.8,2.9c0.8-0.1,1.3-0.5,2.2-0.8
			C39.2,36,40.9,35.4,40.9,35.4z"/>
		<path class="st1" d="M36,37.4c-0.2,0-0.4-0.1-0.6-0.3c-0.5-0.7-0.6-2.4-0.4-2.9c0.4-0.8,5-1.7,5.9-1.7c0.3,0,0.6,0.1,0.8,0.3
			c0.5,0.5,0.4,1.5,0.3,1.9c-0.1,0.6-0.9,0.9-1,0.9l0,0c0,0-1.7,0.6-2.6,0.9c-0.3,0.1-0.6,0.3-0.9,0.4C37,37.1,36.6,37.3,36,37.4
			C36,37.4,36,37.4,36,37.4z M40.8,32.9c-1.2,0-5.1,1-5.3,1.4c-0.2,0.4-0.1,1.9,0.3,2.4c0.1,0.1,0.2,0.1,0.2,0.1
			c0.5-0.1,0.8-0.2,1.2-0.4c0.3-0.1,0.6-0.3,0.9-0.4c0.9-0.3,2.5-0.8,2.6-0.9c0.3-0.1,0.7-0.4,0.7-0.5c0.1-0.5,0-1.2-0.2-1.6
			C41.1,33,41,32.9,40.8,32.9C40.8,32.9,40.8,32.9,40.8,32.9z"/>
	</g>
	<g>
		<path d="M34.5,30.5c0,0-1.3,0.3-1,1.4c0.3,1.1,0.9,2.4,2.2,1.9s4.3-1.1,4.9-1.2c0.6-0.1,0.5-0.8,0.3-1.2c-0.2-0.4-0.8-1.3-2-1.5
			C37.6,29.7,34.5,30.5,34.5,30.5z"/>
		<path class="st1" d="M35.2,34.2c-0.2,0-0.5-0.1-0.7-0.2c-0.7-0.4-1.1-1.3-1.2-2.1c-0.1-0.4,0-0.7,0.1-1c0.3-0.5,1-0.7,1-0.7
			c0.2,0,3.1-0.8,4.5-0.6c1.5,0.2,2.1,1.4,2.2,1.7c0.1,0.3,0.2,0.8,0,1.2c-0.1,0.2-0.3,0.3-0.5,0.4c-0.5,0.1-3.6,0.7-4.8,1.2
			C35.6,34.2,35.4,34.2,35.2,34.2z M38.4,30.1c-1.4,0-3.8,0.6-3.8,0.6l0,0c0,0-0.5,0.1-0.7,0.5c-0.1,0.2-0.1,0.4-0.1,0.6
			c0.1,0.5,0.4,1.4,1,1.7c0.3,0.1,0.5,0.1,0.9,0c1.3-0.5,4.4-1.1,4.9-1.2c0.1,0,0.1-0.1,0.2-0.1c0.1-0.2,0.1-0.5,0-0.8
			c-0.1-0.1-0.5-1.2-1.9-1.4C38.7,30.1,38.6,30.1,38.4,30.1z"/>
	</g>
	<g>
		<path d="M33.5,27.3c0,0-0.3,1.6-0.2,2s0.2,1.4,1.6,1.1s3.2-0.7,3.8-0.5c0.6,0.1,1.2,0.6,1.4,0.4c0.2-0.2,0-1-0.6-2.1
			S36.8,27,36,26.9C35.1,26.9,33.8,26.5,33.5,27.3z"/>
		<path class="st1" d="M34.5,30.7c-1.1,0-1.3-0.9-1.4-1.3l0-0.1c-0.1-0.4,0.1-1.8,0.2-2.1l0,0c0.3-0.9,1.5-0.7,2.3-0.6
			c0.1,0,0.3,0,0.4,0l0.2,0c1,0.1,2.9,0.3,3.5,1.4c0.5,0.9,0.9,2,0.6,2.4c-0.2,0.2-0.6,0.1-0.9-0.1c-0.2-0.1-0.5-0.2-0.7-0.3
			c-0.6-0.1-2.4,0.3-3.7,0.5l-0.1,0C34.8,30.7,34.6,30.7,34.5,30.7z M33.7,27.4c-0.1,0.7-0.3,1.6-0.2,1.8l0,0.1
			c0.1,0.4,0.3,1.1,1.3,0.8l0.1,0c1.4-0.3,3.2-0.7,3.9-0.5c0.3,0.1,0.6,0.2,0.8,0.3c0.1,0.1,0.3,0.1,0.3,0.1c0-0.2-0.1-0.8-0.6-1.8
			c-0.5-0.9-2.3-1.1-3.2-1.1l-0.2,0c-0.1,0-0.3,0-0.4,0C34.7,27,33.9,27,33.7,27.4z"/>
	</g>
	<g>
		<path d="M36.6,24.5c0,0-2.1-2.3-2.5-1.5c-0.4,0.8-0.8,2.8-0.4,3.2c0.4,0.4,0.5,0.6,1.3,0.7s3,0.4,3,0.4s1.3,0.3,1.6,1
			C39.5,28.2,38.5,25.5,36.6,24.5z"/>
		<path class="st1" d="M39.3,28.3c-0.2-0.5-1.1-0.8-1.4-0.9l0,0c0,0-2.2-0.3-3-0.4c-0.8-0.1-1-0.3-1.4-0.7l-0.1-0.1
			c-0.5-0.5,0-2.7,0.4-3.5c0.1-0.2,0.2-0.3,0.4-0.3c0.7-0.1,2.1,1.2,2.5,1.7c1.9,1.1,2.9,3.7,3,3.9L39.3,28.3z M34.4,23.1
			C34.4,23.1,34.3,23.1,34.4,23.1c-0.5,0.9-0.7,2.7-0.5,2.9l0.1,0.1c0.3,0.3,0.4,0.4,1,0.5c0.8,0.1,3,0.4,3,0.4
			c0.1,0,0.5,0.1,0.9,0.3c-0.5-0.8-1.3-2-2.3-2.6l-0.1,0C35.7,23.9,34.7,23.1,34.4,23.1z"/>
	</g>
	<g>
		<path d="M35.7,20.2c0,0-1,1.3-1.2,1.7s-0.1,0.7,0.4,1.1s1.8,1.5,2.1,1.7c0.3,0.3,1.9,2.4,1.9,2.4s-0.5-2.2-1.1-3.7
			S36.4,19.4,35.7,20.2z"/>
		<path class="st1" d="M39.6,28.3l-0.7-0.9c-0.6-0.8-1.7-2.2-1.9-2.4l-0.1,0c-0.4-0.3-1.6-1.3-2-1.7c-0.6-0.4-0.7-0.8-0.5-1.4
			c0.2-0.5,1.1-1.6,1.2-1.8c0.2-0.3,0.4-0.3,0.6-0.3c0.7,0.1,1.3,1.4,2.1,3.6c0.5,1.5,1.1,3.7,1.1,3.7L39.6,28.3z M36,20.3
			C36,20.3,36,20.4,36,20.3l-0.1,0.1c-0.4,0.5-1,1.4-1.1,1.6c-0.1,0.3-0.1,0.5,0.4,0.8c0.5,0.4,1.7,1.4,2.1,1.7l0.1,0
			c0.2,0.1,0.7,0.9,1.2,1.5c-0.2-0.7-0.5-1.7-0.8-2.5C37.4,22.8,36.5,20.4,36,20.3C36,20.3,36,20.3,36,20.3z"/>
	</g>
	<g>
		<path d="M34.5,21c0,0-10.2-13.7-13.9-15.1S18,5.6,19.7,8.1c1.7,2.5,10.8,11.5,12.8,12.8s2,1.4,2,1.4l0.4-0.9L34.5,21z"/>
		<path class="st1" d="M34.6,22.7l-2.3-1.6c-2.1-1.5-11.2-10.5-12.9-12.9C19.3,8,19.2,7.8,19,7.6c-0.9-1.3-1.4-2-1.1-2.4
			c0.2-0.3,0.8-0.3,2.7,0.4c3.7,1.5,13.6,14.6,14,15.2l0.5,0.6L34.6,22.7z M18.5,5.4c-0.1,0-0.1,0-0.1,0c0,0.2,0.6,1.1,1.1,1.8
			c0.1,0.2,0.3,0.4,0.5,0.7c1.6,2.4,10.6,11.3,12.7,12.8l1.8,1.2l0.2-0.5l-0.3-0.4C34.2,21,24.1,7.5,20.5,6.1
			C19.2,5.5,18.7,5.4,18.5,5.4z"/>
	</g>
	<g>
		<path d="M33.5,25.3c0,0-0.8,0.2-4.5-0.2s-9.8-1.6-12.2-3.6s-2.5-3-0.7-3.4c1.8-0.4,7.1,0,7.5,0.3c0.4,0.3,4,2.6,4.8,3
			c0.7,0.4,4.7,2.5,5.4,2.7L33.5,25.3z"/>
		<path class="st1" d="M32.7,25.6c-0.7,0-1.8-0.1-3.7-0.3c-3.5-0.5-9.8-1.5-12.4-3.6c-1.6-1.3-2.2-2.2-2-2.9
			c0.1-0.5,0.6-0.8,1.4-0.9c1.7-0.3,7.1-0.1,7.7,0.3c0.4,0.3,4,2.6,4.8,3c0.7,0.4,4.7,2.5,5.3,2.7L34,24l-0.2,1.5l-0.1,0
			C33.6,25.6,33.3,25.6,32.7,25.6z M18.4,18.2c-0.9,0-1.7,0-2.3,0.2c-0.4,0.1-0.9,0.3-1,0.6c-0.1,0.3,0.2,1,1.9,2.4
			c2.4,2,8.6,3,12.1,3.5c2.8,0.4,3.9,0.3,4.3,0.3l0.1-0.8c-1-0.5-4.5-2.3-5.2-2.7c-0.7-0.4-4.4-2.7-4.8-3
			C23.1,18.5,20.5,18.2,18.4,18.2z"/>
	</g>
	<g>
		<path d="M33.7,27.1c0,0-5.2,0.9-10.6,0.9s-6.6-2-6.1-2.4c0.5-0.4,3.6-2,6.2-1.4s5.9,1,6.6,1.1s3.6,0.1,3.6,0.1s0,0.8,0.4,1.1
			L33.7,27.1z"/>
		<path class="st1" d="M23.1,28.2c-4.5,0-6.1-1.3-6.4-2.1c-0.1-0.3,0-0.6,0.1-0.7c0.6-0.5,3.7-2.1,6.4-1.5c2.6,0.5,5.9,1,6.6,1.1
			c0.7,0.1,3.6,0.1,3.6,0.1l0.3,0l0,0.3c0,0.2,0,0.7,0.3,0.9l0.1,0.1l-0.3,1l-0.2,0C33.7,27.3,28.5,28.2,23.1,28.2z M22.1,24.2
			c-2.3,0-4.5,1.2-4.9,1.5c0,0,0,0.1,0,0.2c0.2,0.5,1.6,1.8,6,1.8c4.8,0,9.5-0.7,10.4-0.8l0.1-0.4c-0.2-0.3-0.3-0.7-0.3-0.9
			c-0.7,0-2.8-0.1-3.4-0.1c-0.7-0.1-4-0.6-6.7-1.1C22.8,24.2,22.5,24.2,22.1,24.2z"/>
	</g>
	<g>
		<path d="M33.3,28.6c0,0-6.5,2.8-11.2,3.8c-4.8,0.9-5.3-0.7-5.2-1c0.2-0.4,2-3.4,5.2-3.5c3.1,0,5.3-0.1,7.6-0.4
			c2.3-0.3,4-0.5,4-0.5S33.3,27.8,33.3,28.6z"/>
		<path class="st1" d="M19.5,32.9c-1.7,0-2.4-0.5-2.6-0.9c-0.2-0.3-0.3-0.6-0.1-0.8c0,0,2-3.6,5.4-3.6c3,0,5.3-0.1,7.6-0.4
			c2.3-0.3,4-0.5,4-0.5l0.5-0.1l-0.3,0.4c0,0-0.4,0.7-0.4,1.4l0,0.2l-0.2,0.1c-0.1,0-6.6,2.8-11.3,3.8C21,32.9,20.2,32.9,19.5,32.9z
			 M33.3,27.4c-0.6,0.1-1.9,0.3-3.5,0.5c-2.4,0.3-4.7,0.3-7.7,0.4c-3.1,0-4.9,3.3-4.9,3.3c0,0,0,0.2,0.1,0.3c0.2,0.3,1.2,1,4.8,0.3
			c4.3-0.8,10-3.3,11-3.7C33.1,28,33.2,27.6,33.3,27.4z"/>
	</g>
	<g>
		<path d="M33.3,29.5c0,0-7.1,3.4-9.7,4.5s-5.7,2.4-5.8,1.8c-0.1-0.6,1.8-3,2.7-3.1c0.9-0.1,3.1-0.5,4.8-1.1
			c1.6-0.5,6.8-2.4,7.1-2.6c0.3-0.1,0.9-0.4,0.9-0.4S33.3,29.2,33.3,29.5z"/>
		<path class="st1" d="M18.1,36.2c-0.1,0-0.3,0-0.3-0.1c-0.1-0.1-0.2-0.2-0.2-0.3c-0.1-0.3,0.1-0.8,0.6-1.4c0.5-0.8,1.6-1.9,2.3-2
			c0.8-0.1,3-0.5,4.7-1c1.6-0.5,6.8-2.5,7.1-2.6c0.3-0.1,0.9-0.4,0.9-0.4l0.4-0.2l0,0.4c0,0.2,0,0.6,0,0.7l0.1,0.2l-0.2,0.1
			c-0.1,0-7.1,3.4-9.7,4.5l-0.6,0.2C20.4,35.6,18.9,36.2,18.1,36.2z M18,35.7c0.5,0.1,3.1-1,4.9-1.7l0.6-0.2c2.3-1,8.4-3.9,9.5-4.4
			c0-0.1,0-0.2,0-0.3c-0.2,0.1-0.4,0.2-0.5,0.2c-0.3,0.1-5.5,2-7.1,2.6c-1.7,0.5-4,1-4.8,1.1c-0.4,0.1-1.3,0.9-2,1.8
			C18.2,35.3,18.1,35.6,18,35.7z"/>
	</g>
	<g>
		<path d="M18.7,36.6c0,0-1.5,1.8-0.9,2.6s2.8-1.1,5.1-2.6s8.9-5.1,9.9-5.3c0.9-0.2,1.1-0.4,1.1-0.4l0.3-0.4c0,0-0.8-0.1-0.9-1
			l-10.4,4.8C22.9,34.3,19.2,35.8,18.7,36.6z"/>
		<path class="st1" d="M18.2,39.7c-0.3,0-0.5-0.1-0.6-0.3c-0.7-1,0.7-2.7,0.9-2.9c0.6-0.8,4-2.2,4.4-2.4l10.7-4.9l0,0.4
			c0,0.6,0.6,0.7,0.7,0.8l0.4,0.1L34.1,31c-0.1,0.1-0.3,0.2-1.2,0.5c-0.9,0.2-7.4,3.8-9.8,5.3c-0.6,0.4-1.3,0.8-1.8,1.3
			C20,38.9,18.9,39.7,18.2,39.7z M33.2,29.8L23,34.5c-1.4,0.6-3.8,1.7-4.2,2.2l0,0c-0.4,0.4-1.3,1.7-0.9,2.3
			c0.3,0.5,1.7-0.5,2.9-1.4c0.6-0.4,1.2-0.9,1.9-1.3c2.2-1.4,8.9-5.1,9.9-5.4c0.8-0.2,1-0.3,1-0.3l0.1-0.1
			C33.5,30.4,33.3,30.2,33.2,29.8z"/>
	</g>
	<g>
		<path d="M18.8,41.2c0,0,0.1,0.4,1.6,0c1.5-0.4,7.1-4.6,8.6-5.9c1.5-1.2,4.7-2.9,4.7-2.9s0-1.6-0.9-1.2c-0.9,0.4-13.7,7.4-14,8.9
			C18.8,40.2,18.6,40.6,18.8,41.2z"/>
		<path class="st1" d="M19.3,41.6c-0.2,0-0.4,0-0.6-0.1c-0.1-0.1-0.2-0.2-0.2-0.2c-0.2-0.6,0-1.2,0-1.2c0.4-1.7,13.5-8.8,14.2-9.1
			c0.3-0.1,0.6-0.1,0.7,0c0.5,0.3,0.5,1.3,0.5,1.4l0,0.2l-0.1,0.1c0,0-3.2,1.7-4.7,2.9c-1.3,1.1-7.1,5.5-8.7,5.9
			C20,41.6,19.6,41.6,19.3,41.6z M19,41.1c0.1,0,0.3,0.1,1.3-0.1c1.4-0.4,7-4.5,8.5-5.8c1.3-1.1,4-2.5,4.6-2.8
			c0-0.3-0.1-0.8-0.3-0.9c0,0-0.1-0.1-0.2,0c-1.2,0.5-13.6,7.5-13.9,8.8C19,40.3,18.8,40.6,19,41.1z"/>
	</g>
	<g>
		<path d="M19.4,42.5c0,0,0.6,1.1,2.1,0.4c1.5-0.7,6.5-4.4,7.9-5.4c1.4-1,4.8-3.6,4.8-4s-0.4-1-0.9-0.7S21,41,21,41
			S19,41.7,19.4,42.5z"/>
		<path class="st1" d="M20.6,43.4c-0.9,0-1.4-0.7-1.4-0.7l0,0c-0.1-0.2-0.1-0.4,0-0.6c0.3-0.7,1.6-1.3,1.7-1.3
			c0.4-0.3,11.7-8,12.3-8.2c0.3-0.1,0.6-0.1,0.8,0c0.3,0.2,0.5,0.6,0.5,0.9c0,0.7-4.8,4.2-4.9,4.2c-0.3,0.2-0.9,0.6-1.6,1.1
			c-2.1,1.5-5.3,3.8-6.4,4.3C21.2,43.3,20.9,43.4,20.6,43.4z M19.6,42.4c0.1,0.1,0.6,0.8,1.8,0.3c1.1-0.5,4.3-2.8,6.3-4.3
			c0.7-0.5,1.2-0.9,1.6-1.1c1.6-1.1,4.5-3.4,4.7-3.8c0-0.1-0.1-0.4-0.3-0.5c-0.1-0.1-0.2-0.1-0.3,0c-0.4,0.2-9,6-12.3,8.2
			c-0.5,0.2-1.4,0.7-1.5,1.1C19.6,42.3,19.6,42.3,19.6,42.4z"/>
	</g>
	<g>
		<path d="M19.5,45.4c0,0,2.1,1.2,4.7-0.8s9.3-7.1,10-7.9c0.7-0.8,0.9-0.8,0.9-1.5c0-0.7,0-0.9-0.3-1.2c-0.3-0.2-0.8-0.2-1.2,0.1
			c-0.3,0.3-7.5,5.8-7.5,5.8s-4,2.8-4.7,3S18.7,44.1,19.5,45.4z"/>
		<path class="st1" d="M21.1,46c-1,0-1.6-0.3-1.7-0.4l-0.1-0.1c-0.2-0.4-0.3-0.8-0.2-1.1c0.3-1,1.8-1.6,2.3-1.7c0.5-0.1,3-1.9,4.6-3
			c2-1.5,7.2-5.5,7.5-5.8c0.4-0.4,1-0.4,1.5-0.1c0.4,0.3,0.4,0.8,0.4,1.4c0,0.6-0.2,0.7-0.5,1.1c-0.1,0.1-0.3,0.3-0.4,0.5
			c-0.8,1-9.9,7.9-10,8C23.1,45.7,22,46,21.1,46z M19.7,45.2c0.3,0.2,2.1,0.9,4.4-0.8c3.7-2.8,9.3-7.2,9.9-7.9
			c0.2-0.2,0.3-0.4,0.5-0.5c0.3-0.3,0.4-0.4,0.4-0.8c0-0.7,0-0.8-0.2-1c-0.2-0.1-0.6-0.2-0.8,0.1c-0.3,0.3-7.2,5.6-7.5,5.8
			c-0.4,0.3-4,2.8-4.8,3.1c-0.5,0.2-1.7,0.7-1.9,1.4C19.6,44.8,19.6,45,19.7,45.2z"/>
	</g>
	<g>
		<path d="M37.8,43.6c0,0,0.6,0.1-3.5,3c0,0-8.2,7.1-10.2,6.9c-2-0.2-1.1-2.6,0.9-3.7s9.9-6.9,10.8-7.4c0.9-0.5,0.9-0.5,1-0.4
			c0.1,0.1,0.7,0.9,1,0.9L37.8,43.6z"/>
		<path class="st1" d="M24.1,53.7c0,0-0.1,0-0.1,0c-1-0.1-1.2-0.7-1.3-1c-0.2-1,0.7-2.4,2.1-3.1c1.2-0.7,5-3.3,7.7-5.3
			c1.6-1.1,2.8-2,3.1-2.2c0.7-0.4,0.9-0.5,1.1-0.5c0.1,0,0.2,0.2,0.2,0.2c0.1,0.2,0.7,0.8,0.9,0.8l0.2,0l0,0.2l0,0.6l0,0.1
			c0.1,0.2,0.1,0.5-3.7,3.2C33.5,47.5,26.3,53.7,24.1,53.7z M36.6,42.1c-0.1,0-0.3,0.1-0.7,0.4c-0.3,0.2-1.6,1.1-3.1,2.2
			c-2.7,1.9-6.5,4.6-7.7,5.3c-1.3,0.7-2,1.9-1.8,2.6c0.1,0.4,0.4,0.6,0.9,0.6c1.6,0.2,7.7-4.9,10-6.8c2.7-1.9,3.3-2.5,3.5-2.7l0-0.6
			C37.1,42.9,36.7,42.3,36.6,42.1z"/>
	</g>
	<g>
		<path d="M26.1,43.1c0,0-4.6,3.7-5.7,4.7c-1.1,1-2,2.5-1.8,2.9c0.2,0.4,2.7-0.4,5.8-2.5c3.1-2.2,9.3-7.3,10-8.1s1.2-1.6,1.3-1.9
			c0.1-0.3,0.3-0.8,0.3-0.8s-1.1-0.3-0.9-1.7C35.1,35.8,30.9,39.9,26.1,43.1z"/>
		<path class="st1" d="M19,51.1c-0.1,0-0.2,0-0.2,0c-0.2,0-0.3-0.2-0.3-0.2c-0.3-0.6,0.7-2.3,1.8-3.2c1.1-0.9,5.6-4.7,5.7-4.7l0,0
			c4.7-3.1,8.9-7.3,8.9-7.3l0.5-0.5l-0.1,0.7c-0.1,1.1,0.7,1.4,0.8,1.4l0.3,0.1l-0.1,0.3c0,0-0.2,0.4-0.3,0.7
			c-0.1,0.4-0.6,1.2-1.3,2c-0.8,0.9-7,6-10,8.1C22.1,50.2,19.9,51.1,19,51.1z M26.3,43.3c-0.2,0.2-4.6,3.8-5.7,4.7
			c-1.2,1-1.8,2.4-1.7,2.7c0.3,0.1,2.5-0.6,5.4-2.6c3.1-2.2,9.3-7.3,10-8c0.7-0.8,1.1-1.6,1.2-1.8c0.1-0.2,0.1-0.4,0.2-0.6
			c-0.3-0.2-0.7-0.6-0.8-1.2C33.7,37.5,30.2,40.7,26.3,43.3z"/>
	</g>
	<g>
		<path d="M23.7,50.7c0,0-1,0.3-1.2,0c-0.2-0.3,0.2-1.2,1.2-1.9c1-0.7,5.4-4.2,7.6-6.1S35,39,35.4,39c0.4,0,0.7,0.7,1,0.8
			c0.4,0.1,0.4,0.6,0.2,0.9c-0.2,0.3-0.3,0.7-0.1,1c0,0-2.9,2.3-3.9,2.7c-1,0.5-4.5,3.3-5.3,3.7C26.6,48.6,23.7,50.7,23.7,50.7z"/>
		<path class="st1" d="M22.9,51c-0.3,0-0.5,0-0.6-0.2c-0.1-0.1-0.2-0.2-0.1-0.5c0.1-0.5,0.6-1.3,1.4-1.8c1-0.7,5.4-4.2,7.5-6.1
			c0.9-0.8,1.8-1.6,2.4-2.3c1.1-1.1,1.5-1.5,1.9-1.5c0,0,0,0,0,0c0.3,0,0.6,0.3,0.8,0.5c0.1,0.1,0.2,0.3,0.3,0.3
			c0.2,0.1,0.3,0.2,0.4,0.4c0.1,0.2,0.1,0.6-0.1,0.9c-0.1,0.3-0.3,0.6-0.1,0.7l0.2,0.2l-0.2,0.2c-0.1,0.1-3,2.3-3.9,2.8
			c-0.6,0.3-2.2,1.5-3.4,2.4c-0.8,0.6-1.5,1.1-1.8,1.3c-0.7,0.4-3.6,2.5-3.6,2.5l-0.1,0C23.6,50.9,23.3,51,22.9,51z M35.4,39.2
			C35.4,39.2,35.4,39.2,35.4,39.2c-0.2,0-0.9,0.7-1.5,1.4c-0.7,0.6-1.5,1.5-2.4,2.3c-2.2,1.9-6.6,5.4-7.6,6.1
			c-0.9,0.6-1.2,1.4-1.2,1.5c0.1,0.1,0.5,0,1-0.1c0.4-0.3,2.9-2.1,3.6-2.5c0.3-0.2,1-0.7,1.8-1.3c1.4-1,2.9-2.2,3.5-2.5
			c0.8-0.4,3.1-2.1,3.7-2.6c-0.1-0.4,0.1-0.8,0.2-1c0.1-0.2,0.1-0.4,0.1-0.5c0,0-0.1-0.1-0.1-0.1c-0.2-0.1-0.4-0.3-0.6-0.5
			C35.7,39.4,35.5,39.2,35.4,39.2z"/>
	</g>
</g>
</svg>
