<?xml version="1.0" encoding="utf-8"?>
<!-- Generator: Adobe Illustrator 25.4.1, SVG Export Plug-In . SVG Version: 6.00 Build 0)  -->
<svg version="1.1" id="Layer_1" xmlns="http://www.w3.org/2000/svg" xmlns:xlink="http://www.w3.org/1999/xlink" x="0px" y="0px"
	 viewBox="0 0 197.4 80" style="enable-background:new 0 0 197.4 80;" xml:space="preserve">
<style type="text/css">
	.st0{fill:#FBDA05;}
	.st1{fill:#FFFFFF;}
	.st2{fill:#231F20;}
</style>
<g>
	<g>
		<path class="st0" d="M30.7,37.4c-4.1,3.7-13.4,4.5-13.4,4.5c-4.4,1.8-8.3,3.5-9.2,3.9c0,0,0,0,0,0c0,0-0.1,0-0.1,0c0,0,0,0,0,0
			s0,0,0,0c-1,0.4,0.9-1.6,1-2.2c0.2-0.6-0.8-0.3-1-0.7c0-0.1,0-0.1,0.1-0.2c0.1-0.1,0.2-0.1,0.3-0.1c0.4-0.2,1.2-0.6,1.7-1.7
			c0.9-1.8,4.7-6.9,6.3-7.9c1.6-0.9,7.9-2.7,7.9-2.7c1,0.2,2.6,0.4,2.6,0.4c1.1,1.8,2.1,0.8,3.8,1.6C32.3,33.2,30.7,37.4,30.7,37.4z
			"/>
	</g>
	<g>
		<path d="M25.3,30c0,0-1.3,1.3-2.5,2.4c-1.2,1.1-4.1,3.7-5.1,3.7c-1,0-0.6-1.4,0.9-2.8c1.5-1.4,3.9-3,4.5-3.4
			c0.6-0.4,1.1-0.7,1.1-0.7s0.1,0.4,0.5,0.3S25.5,29.8,25.3,30z"/>
		<path class="st1" d="M17.7,36.2C17.7,36.2,17.6,36.2,17.7,36.2c-0.4,0-0.6-0.2-0.7-0.4c-0.2-0.6,0.4-1.6,1.5-2.6
			c1.4-1.3,3.7-2.9,4.5-3.4c0.6-0.4,1.1-0.7,1.2-0.7l0.1-0.1l0.1,0.2c0,0,0.1,0.2,0.4,0.2c0.3,0,0.7,0.1,0.8,0.4
			c0.1,0.1,0,0.3-0.1,0.4c0,0-1.3,1.3-2.5,2.4c-0.2,0.1-0.4,0.3-0.6,0.5C20.4,34.6,18.6,36.2,17.7,36.2z M24.1,29.4
			c-0.2,0.1-0.6,0.3-1,0.6c-0.8,0.5-3.1,2.1-4.5,3.4c-1.1,1-1.5,1.9-1.4,2.3c0,0,0.1,0.2,0.4,0.2c0,0,0,0,0,0c0.9,0,3.2-2,4.4-3.1
			c0.2-0.2,0.4-0.4,0.6-0.5c1.2-1.1,2.5-2.3,2.5-2.3l0,0c0,0,0,0,0-0.1c0-0.1-0.3-0.2-0.5-0.2C24.4,29.7,24.2,29.6,24.1,29.4z"/>
	</g>
	<g>
		<path d="M23.6,27.8c0,0,0.1-0.3-0.8,0.2s-4.4,3.4-5,3.9c-0.6,0.5-1.6,1.4-1.1,1.6c0.5,0.3,1.2,0.3,1.8-0.3c0.6-0.5,2.4-2,3.1-2.4
			c0.7-0.5,2.5-1.5,2.5-1.6c0.1-0.2-0.3-0.5-0.3-0.6c0-0.1,0.1-0.2-0.1-0.4C23.6,27.8,23.6,27.8,23.6,27.8z"/>
		<path class="st1" d="M17.4,33.8c-0.3,0-0.6-0.1-0.8-0.2c-0.2-0.1-0.2-0.2-0.2-0.3c0-0.4,0.7-1.1,1.3-1.6c0.1-0.1,0.4-0.3,0.8-0.6
			c1.3-1.1,3.6-2.9,4.2-3.3c0.5-0.3,0.7-0.4,0.9-0.3c0.1,0,0.1,0.1,0.1,0.2l0.2,0.3c0.2,0.2,0.1,0.4,0.1,0.5c0,0,0.1,0.1,0.1,0.2
			c0.1,0.2,0.3,0.4,0.2,0.6c0,0.1-0.2,0.3-1.3,0.9c-0.5,0.3-1,0.6-1.3,0.8c-0.7,0.5-2.5,1.9-3.1,2.4C18.3,33.7,17.8,33.8,17.4,33.8z
			 M23.4,27.9c-0.1,0-0.2,0.1-0.5,0.3c-0.6,0.4-2.9,2.3-4.2,3.3c-0.4,0.3-0.7,0.5-0.8,0.6c-0.8,0.7-1.2,1.1-1.2,1.3c0,0,0,0,0,0.1
			c0.4,0.2,1.1,0.2,1.6-0.2c0.6-0.5,2.4-2,3.1-2.5c0.3-0.2,0.8-0.5,1.3-0.8c0.5-0.3,1.1-0.6,1.2-0.7c0-0.1-0.1-0.2-0.2-0.3
			c-0.1-0.1-0.1-0.2-0.1-0.2c0-0.1,0-0.2,0-0.2c0,0,0-0.1-0.1-0.2L23.4,27.9z"/>
	</g>
	<g>
		<path d="M21.1,15.1c0,0-2.1-0.8-5.9-3.3s-5.1-4.1-4.9-4.3c0.3-0.3,1.5-0.3,3.2,0.4s3,1.7,3.5,2.2c0.6,0.6,2.8,2.7,3.7,3.2
			s0.7,0.7,0.6,1C21.2,14.6,21.1,15.1,21.1,15.1z"/>
		<path class="st1" d="M21.2,15.3L21,15.2c0,0-2.2-0.8-5.9-3.3c-3.3-2.2-4.9-3.8-5-4.3c0-0.1,0-0.2,0.1-0.2c0.3-0.3,1.7-0.3,3.4,0.4
			c1.6,0.7,2.9,1.6,3.6,2.2c0.5,0.5,2.8,2.6,3.7,3.2c0.8,0.5,0.8,0.8,0.7,1.1l0,0c-0.1,0.2-0.2,0.7-0.2,0.7L21.2,15.3z M11,7.5
			c-0.3,0-0.5,0.1-0.6,0.1c0,0.2,1.1,1.6,4.8,4.1c3.1,2.1,5.2,3,5.7,3.2c0.1-0.2,0.1-0.4,0.2-0.6l0-0.1c0.1-0.2,0.1-0.3-0.6-0.7
			c-0.9-0.6-3.2-2.7-3.7-3.2c-0.6-0.6-1.9-1.5-3.5-2.2C12.4,7.6,11.5,7.5,11,7.5z"/>
	</g>
	<g>
		<path d="M13.8,0.6c0,0,0.2-0.8,0.7-0.2S22.6,12.3,23,13c0.3,0.7-1.2,0.4-1.2,0.4s-3.8-4.9-5.3-7S13.6,2.1,13.8,0.6z"/>
		<path class="st1" d="M22.3,13.6c-0.3,0-0.5,0-0.6,0l-0.1,0l0,0c0,0-3.8-4.9-5.3-7c-1.3-1.8-2.9-4.2-2.7-5.9l0,0
			c0-0.1,0.2-0.5,0.5-0.6c0.2,0,0.3,0.1,0.5,0.3c0.5,0.7,8.1,11.9,8.5,12.6c0.1,0.2,0.1,0.4,0,0.5C23,13.6,22.6,13.6,22.3,13.6z
			 M21.9,13.3c0.4,0.1,0.9,0,1-0.1c0,0,0-0.1,0-0.2c-0.3-0.7-8-11.9-8.5-12.6c-0.1-0.1-0.2-0.2-0.2-0.2c-0.1,0-0.2,0.2-0.2,0.3
			c-0.2,1.2,0.8,3.3,2.6,5.7C18.1,8.3,21.5,12.7,21.9,13.3z"/>
	</g>
	<g>
		<path d="M27.2,47.3c0,0,14.7,0,19.6,8.4S49.8,80,64.3,80s14.3-14.2,14.3-14.2s-4.1,8.8-12.2,8.8S56,67.3,55.2,60.4
			S46.3,41.9,27.2,47.3z"/>
	</g>
	<g>
		<path d="M37,44.4c0,0,13.8-2.9,13.8-13.9S40.7,15.2,37.5,15c0,0,19.8-1.8,19.8,13.6S41.3,45.1,37,44.4z"/>
	</g>
	<g>
		<g>
			<g>
				<path class="st2" d="M75.4,54.2c-4.8,0-9.9-3.1-9.9-9V27.5h3.9v17.7c0,0.2,0.6,6.2,6.7,6.2c5.9,0,8.9-6,9.2-6.4V27.5h3.9v26.1
					h-3.9V49C84.1,50.1,79.9,54.2,75.4,54.2z"/>
			</g>
			<g>
				<path d="M89,27.7v25.8h-3.6v-4.8c0,0-4.9,5.4-10,5.4c-5.1,0-9.8-3.4-9.8-8.8V27.7h3.6v17.5c0,0,0.5,6.4,6.9,6.4
					c6.3,0,9.3-6.6,9.3-6.6V27.7H89 M89.3,27.3H89h-3.6h-0.3v0.3v17.3c-0.3,0.6-3.3,6.3-9,6.3c-6,0-6.5-5.9-6.6-6.1l0-17.5v-0.3
					h-0.3h-3.6h-0.3v0.3v17.5c0,5.9,5.2,9.1,10.1,9.1c2.7,0,5.4-1.5,7.1-2.7c1.2-0.8,2.1-1.7,2.6-2.2v4v0.3h0.3H89h0.3v-0.3V27.7
					V27.3L89.3,27.3z"/>
			</g>
		</g>
		<g>
			<g>
				<path class="st2" d="M103.6,54.2c-1.7,0-3-0.5-4-1.6c-2.1-2.2-2-5.7-2-5.8V21.8h2.3l1.7,3.5v2h7.8v2.4h-7.8v17
					c0,2.3,1.6,4.8,4.3,4.8c2.5,0,3-0.2,3-0.3l0.2-0.1l0,0.2v2.3l-0.1,0c-1.9,0.3-3.5,0.3-4.4,0.4C104.1,54.1,103.8,54.1,103.6,54.2
					L103.6,54.2L103.6,54.2z"/>
			</g>
			<g>
				<path d="M99.8,22l1.6,3.4v2.1h7.8v2.1h-7.8v17.2c0,2.6,1.8,4.9,4.5,4.9c2.6,0,3.1-0.3,3.1-0.3v2.2c-2.8,0.4-5.1,0.3-5.3,0.4
					c-6.1,0-5.9-7.3-5.9-7.3V22H99.8 M100,21.6h-0.2h-2h-0.3V22v24.8c0,0.1-0.1,3.7,2,5.9c1,1.1,2.4,1.6,4.2,1.6h0.1l0,0
					c0.1,0,0.4,0,0.8,0c1,0,2.6-0.1,4.4-0.4l0.3,0v-0.3v-2.2v-0.5l-0.5,0.3c0,0-0.5,0.2-2.9,0.2c-2,0-4.1-1.7-4.1-4.6V29.9h7.5h0.3
					v-0.3v-2.1v-0.3h-0.3h-7.5v-1.8v-0.1l0-0.1l-1.6-3.4L100,21.6L100,21.6z"/>
			</g>
		</g>
		<g>
			<g>
				<path class="st2" d="M124.2,54.6c-6.5,0-7.9-4-7.9-7.4c0-9.1,13-9.8,17-9.8c0.6,0,1,0,1.2,0c-0.1-7-4.1-8.5-7.5-8.5
					c-3.5,0-7.2,1.8-7.2,1.8l-0.1,0.1l-1.1-1.9l0.1-0.1c2.5-1.3,5.8-2,9.1-2c2.6,0,5,0.5,6.6,1.3c3.9,2,4.4,7.2,4.4,7.3
					c0,0.1,0,8.8,0,10.7c0,1.9,0,7.9,0,7.9l0,0.2l-0.2,0c0,0-1,0-1.8,0c-0.6,0-0.7,0-0.7,0c-0.9-0.1-1.1-2.8-1.1-3.9
					c-0.7,0.5-2.5,1.9-3.5,2.7C130.9,53.5,127.6,54.6,124.2,54.6z M132.9,39.6c-1.4,0-3.3,0.2-5.5,0.7c-6.4,1.4-6.9,5.3-6.9,6.5
					c0,1.5,1.2,5.5,6.7,5.5c5.2,0,7.2-5.7,7.3-5.8l0-6.7C134.4,39.7,133.9,39.6,132.9,39.6z"/>
			</g>
			<g>
				<path d="M127.7,26.9c2.5,0,4.9,0.4,6.6,1.3c3.8,2,4.3,7.1,4.3,7.1s0,8.7,0,10.7c0,2,0,7.9,0,7.9s-1,0-1.8,0c-0.4,0-0.7,0-0.7,0
					c-0.9-0.1-1-4-1-4s-2.5,1.9-3.8,2.9c-0.6,0.5-3.8,1.6-7.1,1.6c-3.8,0-7.8-1.5-7.8-7.3c0-8.9,12.6-9.7,16.8-9.7
					c0.9,0,1.4,0,1.4,0c0-7.1-4.1-8.8-7.6-8.8c-3.6,0-7.3,1.8-7.3,1.8l-1-1.6C121.3,27.6,124.6,26.9,127.7,26.9 M127.3,52.4
					c5.4,0,7.4-5.9,7.4-5.9v-6.9c0,0-0.4-0.2-1.7-0.2c-1.1,0-2.9,0.2-5.5,0.7c-5.8,1.3-7,4.7-7,6.6S121.9,52.4,127.3,52.4
					 M127.7,26.6c-3.3,0-6.6,0.8-9.1,2.1l-0.3,0.2l0.2,0.3l1,1.6l0.1,0.2l0.2-0.1c0,0,3.7-1.8,7.2-1.8c3.3,0,7.2,1.4,7.3,8.2
					c-0.2,0-0.6,0-1.1,0c-2.2,0-6.4,0.2-10.1,1.5c-4.7,1.7-7,4.5-7,8.5c0,4.9,2.9,7.6,8.1,7.6c3.4,0,6.7-1.2,7.3-1.6
					c0.9-0.7,2.5-1.9,3.3-2.5c0.1,1.4,0.3,3.6,1.2,3.7l0.1,0l0.1,0c0,0,0.1,0,0.7,0c0.7,0,1.8,0,1.8,0l0.3,0l0-0.3c0-0.1,0-6,0-7.9
					c0-2,0-10.6,0-10.7c0-0.1-0.1-1.4-0.7-2.9c-0.8-2.1-2.1-3.6-3.7-4.5C132.7,27.1,130.4,26.6,127.7,26.6L127.7,26.6z M127.3,52.1
					c-1.8,0-6.6-1-6.6-5.3c0-1.1,0.5-5,6.8-6.3c2.2-0.5,4.1-0.7,5.5-0.7c0.8,0,1.2,0.1,1.4,0.1v6.6C134.2,47,132.1,52.1,127.3,52.1
					L127.3,52.1z"/>
			</g>
		</g>
		<g>
			<g>
				<path class="st2" d="M181,54.6c-6.5,0-7.9-4-7.9-7.4c0-9.1,13-9.8,17-9.8c0.6,0,1,0,1.2,0c-0.1-7-4.1-8.5-7.5-8.5
					c-3.5,0-7.2,1.8-7.2,1.8l-0.1,0.1l-1.1-1.9l0.1-0.1c2.5-1.3,5.8-2.1,9.1-2.1c2.6,0,5,0.5,6.6,1.3c3.9,2,4.4,7.2,4.4,7.3
					c0,0.1,0,8.8,0,10.7c0,1.9,0,7.9,0,7.9l0,0.2l-0.2,0c0,0-1,0-1.8,0c-0.6,0-0.7,0-0.7,0c-0.9-0.1-1.1-2.8-1.1-3.9
					c-0.7,0.5-2.5,1.9-3.5,2.7C187.7,53.5,184.4,54.6,181,54.6z M189.7,39.6c-1.4,0-3.3,0.2-5.5,0.7c-6.4,1.4-6.9,5.3-6.9,6.5
					c0,1.5,1.2,5.5,6.7,5.5c5.2,0,7.2-5.7,7.3-5.8l0-6.7C191.1,39.7,190.7,39.6,189.7,39.6z"/>
			</g>
			<g>
				<path d="M184.5,26.9c2.5,0,4.9,0.4,6.6,1.3c3.8,2,4.3,7.1,4.3,7.1s0,8.7,0,10.7c0,2,0,7.9,0,7.9s-1,0-1.8,0c-0.4,0-0.7,0-0.7,0
					c-0.9-0.1-1-4-1-4s-2.5,1.9-3.8,2.9c-0.6,0.5-3.8,1.6-7.1,1.6c-3.8,0-7.8-1.5-7.8-7.3c0-8.9,12.6-9.7,16.8-9.7
					c0.9,0,1.4,0,1.4,0c0-7.1-4.1-8.8-7.6-8.8c-3.6,0-7.3,1.8-7.3,1.8l-1-1.6C178.1,27.6,181.4,26.9,184.5,26.9 M184.1,52.4
					c5.4,0,7.4-5.9,7.4-5.9v-6.9c0,0-0.4-0.2-1.7-0.2c-1.1,0-2.9,0.2-5.5,0.7c-5.8,1.3-7,4.7-7,6.6S178.7,52.4,184.1,52.4
					 M184.5,26.6c-3.3,0-6.6,0.8-9.1,2.1l-0.3,0.2l0.2,0.3l1,1.6l0.1,0.2l0.2-0.1c0,0,3.7-1.8,7.2-1.8c3.3,0,7.2,1.4,7.3,8.2
					c-0.2,0-0.6,0-1.1,0c-2.2,0-6.4,0.2-10.1,1.5c-4.7,1.7-7,4.5-7,8.5c0,4.9,2.9,7.6,8.1,7.6c3.4,0,6.7-1.2,7.3-1.6
					c0.9-0.7,2.5-1.9,3.3-2.5c0.1,1.4,0.3,3.6,1.2,3.7l0.1,0l0.1,0c0,0,0.1,0,0.7,0c0.7,0,1.8,0,1.8,0l0.3,0l0-0.3c0-0.1,0-6,0-7.9
					c0-2,0-10.6,0-10.7c0-0.1-0.1-1.4-0.7-2.9c-0.8-2.1-2.1-3.6-3.7-4.5C189.5,27.1,187.2,26.6,184.5,26.6L184.5,26.6z M184.1,52.1
					c-1.8,0-6.6-1-6.6-5.3c0-1.1,0.5-5,6.8-6.3c2.2-0.5,4.1-0.7,5.5-0.7c0.8,0,1.2,0.1,1.4,0.1v6.6C191,47,188.9,52.1,184.1,52.1
					L184.1,52.1z"/>
			</g>
		</g>
		<g>
			<g>
				<path class="st2" d="M158.8,54.4c-2.2,0-5.6-0.8-8.6-3.1c-2.3-1.7-5-4.9-5-10.2c0-5.4,2.7-8.8,4.9-10.7c2.7-2.3,6.3-3.6,9.6-3.6
					c6.1,0,6.5,1.4,6.6,1.5l0,2.5l-0.3-0.3c0,0-1.1-1.2-4.2-1.2c-0.8,0-1.6,0.1-2.5,0.2c-4.5,0.7-10,3.4-10,11.7
					c0,7.5,7.1,10.8,10.7,10.8c3.2,0,6-1,6-1l0.2-0.1v2.3l-0.1,0C166.1,53.3,163.5,54.4,158.8,54.4z"/>
			</g>
			<g>
				<path d="M159.7,26.9c6.1,0,6.4,1.4,6.4,1.4v2c0,0-1.1-1.2-4.3-1.2c-0.7,0-1.6,0.1-2.5,0.2c-5.2,0.8-10.1,3.8-10.1,11.8
					s7.6,10.9,10.9,10.9c3.3,0,6-1.1,6-1.1v2c0,0-2.6,1.2-7.3,1.2c-4.7,0-13.4-3.8-13.4-13.1S153.6,26.9,159.7,26.9 M159.7,26.6
					c-3.3,0-7,1.4-9.7,3.7c-2.3,1.9-5,5.4-5,10.8c0,5.3,2.8,8.5,5.1,10.3c3,2.3,6.4,3.1,8.7,3.1c4.7,0,7.4-1.2,7.5-1.2l0.2-0.1v-0.2
					v-2v-0.4l-0.4,0.2c0,0-2.8,1-5.9,1c-2.7,0-10.6-2.6-10.6-10.6c0-6.6,3.3-10.5,9.8-11.5c0.9-0.1,1.7-0.2,2.5-0.2
					c3,0,4.1,1.1,4.1,1.1l0.5,0.6l0-0.8v-2v0l0,0C166.4,28,165.8,26.6,159.7,26.6L159.7,26.6z"/>
			</g>
		</g>
	</g>
	<g>
		<path d="M138.8,70.2l7.2-12h2l2.1,12h-1.6l-0.6-3.5h-5.1l-2,3.5H138.8z M143.4,65.5h4.2l-0.5-3c-0.2-1.2-0.3-2.2-0.4-3
			c-0.3,0.7-0.7,1.5-1.3,2.4L143.4,65.5z"/>
	</g>
	<g>
		<polygon points="151.5,70.2 153.4,61.5 155,61.5 153.1,70.2 		"/>
	</g>
	<g>
		<path d="M154,59.2l0.1-0.5c0.1-0.3,0.3-0.5,0.6-0.5h0.4c0.4,0,0.7,0.3,0.6,0.7l-0.1,0.5c-0.1,0.3-0.3,0.5-0.6,0.5h-0.4
			C154.2,59.9,153.9,59.6,154,59.2z"/>
	</g>
	<g>
		<path d="M155.5,70.2l1.9-8.7h1.4l-0.4,1.8c0.5-0.7,0.9-1.2,1.4-1.5c0.5-0.3,0.9-0.5,1.4-0.5c0.3,0,0.7,0.1,1.2,0.3l-0.6,1.4
			c-0.3-0.2-0.6-0.3-0.9-0.3c-0.5,0-1.1,0.3-1.7,0.9c-0.6,0.6-1,1.6-1.4,3.1l-0.8,3.5H155.5z"/>
	</g>
	<g>
		<path d="M161.3,70.2l2.7-12h1.6l-2.7,12H161.3z"/>
	</g>
	<g>
		<polygon points="165.3,70.2 167.2,61.5 168.8,61.5 166.9,70.2 		"/>
	</g>
	<g>
		<path d="M167.8,59l0-0.2c0.1-0.3,0.4-0.6,0.7-0.6h0c0.5,0,0.8,0.4,0.7,0.9l0,0.2c-0.1,0.3-0.4,0.6-0.7,0.6h0
			C168.1,59.9,167.7,59.5,167.8,59z"/>
	</g>
	<g>
		<path d="M169.3,70.2l1.9-8.7h1.4l-0.3,1.5c0.6-0.6,1.2-1,1.7-1.3c0.5-0.3,1.1-0.4,1.6-0.4c0.7,0,1.3,0.2,1.8,0.6
			c0.4,0.4,0.6,0.9,0.6,1.5c0,0.3-0.1,0.8-0.2,1.5l-1.2,5.3h-1.6l1.2-5.5c0.1-0.5,0.2-0.9,0.2-1.2c0-0.3-0.1-0.5-0.3-0.7
			c-0.2-0.2-0.5-0.3-0.9-0.3c-0.8,0-1.5,0.3-2.1,0.8c-0.6,0.5-1.1,1.5-1.4,2.8l-0.9,4H169.3z"/>
	</g>
	<g>
		<path d="M186,67.3l1.5,0.1c-0.2,0.7-0.7,1.4-1.5,2c-0.8,0.6-1.7,1-2.8,1c-0.7,0-1.3-0.1-1.9-0.4c-0.6-0.3-1-0.7-1.3-1.3
			c-0.3-0.6-0.4-1.2-0.4-1.9c0-0.9,0.2-1.9,0.7-2.8c0.5-0.9,1.1-1.6,1.8-2c0.7-0.4,1.5-0.7,2.4-0.7c1.1,0,2,0.3,2.6,1s1,1.5,1,2.6
			c0,0.4,0,0.9-0.1,1.3h-6.8c0,0.2,0,0.3,0,0.5c0,0.8,0.2,1.4,0.6,1.9c0.4,0.4,0.9,0.6,1.5,0.6c0.5,0,1.1-0.2,1.6-0.5
			C185.3,68.4,185.7,67.9,186,67.3z M181.4,65.1h5.2c0-0.2,0-0.3,0-0.3c0-0.7-0.2-1.3-0.6-1.7c-0.4-0.4-0.9-0.6-1.5-0.6
			c-0.7,0-1.3,0.2-1.8,0.7C182.1,63.6,181.7,64.2,181.4,65.1z"/>
	</g>
	<g>
		<path d="M189.2,67.3l1.6-0.1c0,0.4,0.1,0.8,0.2,1.1c0.1,0.3,0.4,0.5,0.8,0.7c0.4,0.2,0.8,0.3,1.3,0.3c0.7,0,1.2-0.1,1.6-0.4
			c0.3-0.3,0.5-0.6,0.5-0.9c0-0.3-0.1-0.5-0.3-0.7c-0.2-0.2-0.7-0.5-1.6-0.8c-0.8-0.3-1.4-0.6-1.6-0.7c-0.4-0.2-0.7-0.5-0.9-0.8
			c-0.2-0.3-0.3-0.7-0.3-1c0-0.7,0.3-1.3,0.9-1.8c0.6-0.5,1.4-0.7,2.4-0.7c1.2,0,2,0.3,2.6,0.8c0.6,0.5,0.9,1.2,0.9,2l-1.5,0.1
			c0-0.5-0.2-0.9-0.6-1.2c-0.4-0.3-0.9-0.5-1.6-0.5c-0.5,0-1,0.1-1.3,0.4c-0.3,0.2-0.5,0.5-0.5,0.8c0,0.3,0.1,0.5,0.4,0.7
			c0.2,0.1,0.6,0.4,1.3,0.7c1.2,0.5,2,0.9,2.3,1.2c0.5,0.5,0.7,1,0.7,1.7c0,0.4-0.1,0.9-0.4,1.3c-0.3,0.4-0.7,0.7-1.3,1
			c-0.6,0.2-1.3,0.4-2,0.4c-1.1,0-2-0.2-2.7-0.7C189.6,69.2,189.2,68.4,189.2,67.3z"/>
	</g>
	<g>
		<path d="M44.7,30.6c-0.9-0.8-2.4-1.1-3.5-0.9c-1.1,0.2-1.1,0.9-1.7,1.7c-0.6,0.8-2.5,1.2-4.2,3.3c-1.6,2.1-4.7,2.7-4.7,2.7
			s1.6-4.2,0-5c-1.6-0.8-2.7,0.3-3.8-1.6c0,0,0.9-1.6,1.4-1.8c0.5-0.3,0.8,0,1.4,0.3c0.6,0.3,1.5-0.7,2.3-1.2s3.1-1.6,5.4-1.6
			c2.4,0,3.8,1.7,3.8,1.7C44.9,29.1,45.6,31.4,44.7,30.6z"/>
	</g>
	<g>
		<path d="M9,43.8c-0.2,0.6-2,2.5-1,2.2C7.8,46.1,4,49,3.4,49.6c-0.7,0.6,0-1.5,0.3-1.8c-0.3,0.3-2.4,2-3.3,2.2
			c-0.9,0.2,0.1-1,1.9-2.3c1.7-1.3,4.4-3.9,5.9-4.7C8,43,7.9,43,8,43.1C8.2,43.5,9.2,43.2,9,43.8z"/>
	</g>
	<g>
		<circle class="st0" cx="38.7" cy="28.5" r="0.7"/>
	</g>
	<g>
		<path d="M27.7,28.4c0,0,1,0.3,0.6,0.9c-0.4,0.6-1.6,2.2-2.3,2.2c-0.7,0-1.3-0.8-0.6-1.5S27.7,28.4,27.7,28.4z"/>
		<path class="st1" d="M26,31.5c-0.4,0-0.8-0.3-1-0.7c-0.2-0.4,0-0.8,0.3-1.1c0.7-0.7,2.3-1.5,2.3-1.5l0.1,0l0.1,0
			c0.1,0,0.6,0.2,0.8,0.5c0,0.1,0.1,0.3-0.1,0.5C28.2,29.8,26.9,31.5,26,31.5z M27.8,28.5c-0.3,0.2-1.6,0.9-2.2,1.5
			c-0.2,0.2-0.3,0.5-0.2,0.8c0.1,0.3,0.4,0.5,0.7,0.5c0.6,0,1.7-1.4,2.2-2.1c0.1-0.1,0.1-0.2,0-0.3C28.2,28.7,27.9,28.6,27.8,28.5z"
			/>
	</g>
	<g>
		<path d="M28,28.5c0,0,0.3-1.4-0.4-1.2c-0.7,0.1-2.4,1.7-2.5,2c-0.2,0.2,0.2,0.7,0.5,0.5S28,28.5,28,28.5z"/>
		<path class="st1" d="M25.5,29.9c-0.1,0-0.2-0.1-0.3-0.2c-0.2-0.2-0.3-0.4-0.1-0.6c0.1-0.2,1.9-1.9,2.6-2c0.2,0,0.4,0,0.4,0.1
			c0.3,0.3,0.1,1.1,0.1,1.3l0,0.1l-0.1,0c-0.9,0.4-2.2,1.1-2.4,1.3C25.6,29.9,25.5,29.9,25.5,29.9z M27.7,27.4
			C27.7,27.4,27.7,27.4,27.7,27.4c-0.7,0.1-2.3,1.7-2.5,1.9c0,0,0,0.2,0.1,0.2c0,0,0.1,0.1,0.2,0.1c0.2-0.2,2-1,2.4-1.3
			C27.9,28,28,27.6,27.7,27.4C27.8,27.4,27.8,27.4,27.7,27.4z"/>
	</g>
	<g>
		<path d="M27.6,27.2c0,0,0.2-1.2-0.7-0.9c-0.9,0.3-3.4,2.1-3.1,2.5c0.3,0.4,0.7,0.9,1.4,0.3C25.8,28.5,27.5,27.2,27.6,27.2z"/>
		<path class="st1" d="M24.6,29.6C24.6,29.6,24.6,29.6,24.6,29.6c-0.4,0-0.7-0.3-0.9-0.7c0-0.1-0.1-0.2,0-0.3
			c0.2-0.6,2.4-2.1,3.2-2.4c0.3-0.1,0.5-0.1,0.7,0.1c0.3,0.3,0.2,0.9,0.2,1l0,0.1l-0.1,0c-0.2,0.1-1.7,1.2-2.3,1.8
			C25.1,29.5,24.9,29.6,24.6,29.6z M27.2,26.5c-0.1,0-0.1,0-0.2,0c-0.9,0.3-3.1,1.9-3.1,2.2c0.2,0.3,0.4,0.5,0.6,0.5
			c0.2,0,0.3-0.1,0.5-0.2c0.4-0.4,1.9-1.6,2.4-1.9c0-0.2,0-0.5-0.1-0.6C27.3,26.5,27.3,26.5,27.2,26.5z"/>
	</g>
	<g>
		<path d="M27.1,26.3c0,0,0.3-1.9-0.7-1.6c-1,0.3-2.8,2.1-2.8,2.5s0,1.4,0.8,0.8C25.2,27.4,26.6,26.5,27.1,26.3z"/>
		<path class="st1" d="M24,28.4c-0.1,0-0.1,0-0.2,0c-0.3-0.2-0.4-0.7-0.3-1.1c0-0.5,1.9-2.4,2.9-2.7c0.3-0.1,0.5,0,0.6,0.1
			c0.5,0.4,0.3,1.6,0.2,1.7l0,0.1l-0.1,0c-0.5,0.2-1.9,1.1-2.7,1.7C24.3,28.3,24.1,28.4,24,28.4z M26.6,24.8c0,0-0.1,0-0.2,0
			c-1.1,0.3-2.7,2.1-2.7,2.4c0,0.5,0.1,0.7,0.2,0.8c0.1,0,0.2,0,0.4-0.2c0.8-0.6,2.1-1.4,2.7-1.7c0.1-0.4,0.1-1.1-0.2-1.3
			C26.8,24.9,26.8,24.8,26.6,24.8z"/>
	</g>
	<g>
		<path d="M26.6,24.7c0,0,0.4-1.5-0.7-1.2c-1.1,0.3-3.3,1.8-3.1,2.4c0.2,0.6,0.7,1.3,1.2,0.8C24.5,26,26,24.8,26.6,24.7z"/>
		<path class="st1" d="M23.6,27C23.6,27,23.5,27,23.6,27c-0.5-0.1-0.8-0.6-1-1.1c-0.1-0.1,0-0.3,0-0.4c0.4-0.8,2.2-1.9,3.1-2.2
			c0.3-0.1,0.6,0,0.8,0.1c0.4,0.4,0.2,1.2,0.2,1.3l0,0.1l-0.1,0c-0.5,0.2-1.9,1.3-2.5,1.9C23.9,26.9,23.8,27,23.6,27z M26.1,23.6
			c-0.1,0-0.1,0-0.2,0c-0.9,0.2-2.6,1.4-2.9,2c0,0.1-0.1,0.1,0,0.2c0.3,0.7,0.5,0.8,0.6,0.9c0,0,0.1,0,0.3-0.2
			c0.5-0.6,1.9-1.7,2.6-1.9c0-0.2,0.1-0.7-0.1-0.9C26.3,23.6,26.2,23.6,26.1,23.6z"/>
	</g>
	<g>
		<path d="M26.1,23.4c0,0,0.4-0.9,0-1.3c-0.4-0.3-3.2,0.8-3.7,1.4c-0.4,0.6,0.2,1.7,0.8,1.3C23.9,24.4,25.5,23.6,26.1,23.4z"/>
		<path class="st1" d="M23,25.1c-0.2,0-0.4-0.1-0.5-0.3c-0.3-0.3-0.4-0.9-0.1-1.3c0.4-0.5,2.5-1.4,3.4-1.5c0.2,0,0.4,0,0.5,0.1
			c0.4,0.4,0.1,1.3,0,1.4l0,0.1l-0.1,0c-0.7,0.2-2.2,1-2.8,1.4C23.2,25,23.1,25.1,23,25.1z M25.9,22.2c-0.6,0-2.9,0.9-3.3,1.4
			c-0.2,0.3-0.1,0.7,0.1,0.9c0.1,0.1,0.3,0.2,0.5,0.1c0.6-0.4,2.1-1.2,2.8-1.4c0.1-0.3,0.2-0.8,0-1C26,22.2,26,22.2,25.9,22.2z"/>
	</g>
	<g>
		<path d="M25.5,22.1c0,0,0.5-0.2,0.5-0.5s0.1-1.2-0.5-1.3c-0.6,0-3.3,0.6-3.5,1s0,1.9,0.5,1.8s0.8-0.3,1.4-0.5
			C24.5,22.5,25.5,22.1,25.5,22.1z"/>
		<path class="st1" d="M22.5,23.4c-0.1,0-0.2,0-0.4-0.2c-0.3-0.4-0.4-1.5-0.2-1.8c0.2-0.5,3.1-1.1,3.7-1.1c0.2,0,0.4,0.1,0.5,0.2
			c0.3,0.3,0.2,1,0.2,1.2c0,0.3-0.5,0.6-0.6,0.6l0,0c0,0-1.1,0.3-1.6,0.6c-0.2,0.1-0.4,0.2-0.6,0.2C23.1,23.2,22.9,23.3,22.5,23.4
			C22.5,23.4,22.5,23.4,22.5,23.4z M25.5,20.6c-0.7,0-3.2,0.6-3.3,0.9c-0.1,0.3,0,1.2,0.2,1.5c0.1,0.1,0.1,0.1,0.1,0.1
			c0.3,0,0.5-0.1,0.8-0.3c0.2-0.1,0.4-0.2,0.6-0.3c0.6-0.2,1.6-0.5,1.6-0.6c0.2-0.1,0.4-0.2,0.4-0.3c0-0.3,0-0.8-0.1-1
			C25.7,20.6,25.6,20.6,25.5,20.6C25.5,20.6,25.5,20.6,25.5,20.6z"/>
	</g>
	<g>
		<path d="M21.6,19.1c0,0-0.8,0.2-0.6,0.9c0.2,0.7,0.6,1.5,1.4,1.2c0.8-0.3,2.7-0.7,3.1-0.8s0.3-0.5,0.2-0.8c-0.1-0.2-0.5-0.8-1.3-1
			C23.5,18.6,21.6,19.1,21.6,19.1z"/>
		<path class="st1" d="M22,21.4c-0.1,0-0.3,0-0.4-0.1c-0.4-0.2-0.7-0.8-0.8-1.3c-0.1-0.2,0-0.5,0.1-0.6c0.2-0.3,0.6-0.4,0.7-0.4
			c0.1,0,2-0.5,2.8-0.4c1,0.1,1.3,0.9,1.4,1c0.1,0.2,0.1,0.5,0,0.7c-0.1,0.1-0.2,0.2-0.3,0.2c-0.3,0.1-2.2,0.5-3,0.7
			C22.3,21.4,22.1,21.4,22,21.4z M24,18.8c-0.9,0-2.4,0.4-2.4,0.4l0,0c0,0-0.3,0.1-0.5,0.3c-0.1,0.1-0.1,0.2,0,0.4
			c0.1,0.3,0.3,0.9,0.6,1.1c0.2,0.1,0.3,0.1,0.5,0c0.8-0.3,2.7-0.7,3.1-0.8c0.1,0,0.1,0,0.1-0.1c0.1-0.1,0-0.3,0-0.5
			c0-0.1-0.3-0.7-1.2-0.9C24.2,18.8,24.1,18.8,24,18.8z"/>
	</g>
	<g>
		<path d="M20.9,17.1c0,0-0.2,1-0.1,1.2s0.1,0.9,1,0.7c0.9-0.2,2-0.4,2.4-0.3c0.4,0.1,0.8,0.4,0.9,0.3c0.1-0.1,0-0.6-0.4-1.3
			s-1.7-0.7-2.2-0.8S21.1,16.6,20.9,17.1z"/>
		<path class="st1" d="M21.5,19.2c-0.7,0-0.8-0.6-0.9-0.8l0-0.1c-0.1-0.3,0.1-1.1,0.1-1.3l0,0c0.2-0.6,0.9-0.5,1.5-0.4
			c0.1,0,0.2,0,0.2,0l0.1,0c0.6,0.1,1.8,0.2,2.2,0.9c0.3,0.6,0.6,1.3,0.4,1.5c-0.1,0.1-0.3,0.1-0.6-0.1c-0.1-0.1-0.3-0.1-0.5-0.2
			c-0.4-0.1-1.5,0.2-2.3,0.3l-0.1,0C21.7,19.2,21.6,19.2,21.5,19.2z M21.1,17.1c-0.1,0.5-0.2,1-0.1,1.1l0,0.1
			c0.1,0.3,0.2,0.7,0.8,0.5l0.1,0c0.9-0.2,2-0.4,2.4-0.3c0.2,0,0.4,0.1,0.5,0.2c0.1,0,0.2,0.1,0.2,0.1c0-0.1-0.1-0.5-0.4-1.1
			c-0.3-0.6-1.4-0.7-2-0.7l-0.1,0c-0.1,0-0.2,0-0.3,0C21.7,16.9,21.2,16.8,21.1,17.1z"/>
	</g>
	<g>
		<path d="M22.9,15.3c0,0-1.3-1.4-1.6-0.9s-0.5,1.7-0.3,2s0.3,0.4,0.8,0.4s1.9,0.3,1.9,0.3s0.8,0.2,1,0.6
			C24.7,17.6,24.1,16,22.9,15.3z"/>
		<path class="st1" d="M24.6,17.7c-0.1-0.3-0.7-0.5-0.9-0.5l0,0c0,0-1.4-0.2-1.8-0.3c-0.5-0.1-0.6-0.2-0.8-0.4l-0.1-0.1
			c-0.3-0.3,0-1.7,0.2-2.2c0-0.1,0.1-0.2,0.2-0.2c0.4-0.1,1.3,0.8,1.6,1.1c1.2,0.7,1.8,2.3,1.9,2.4L24.6,17.7z M21.5,14.4
			C21.5,14.4,21.5,14.4,21.5,14.4c-0.3,0.5-0.5,1.7-0.3,1.8l0.1,0.1c0.2,0.2,0.2,0.3,0.7,0.3c0.5,0.1,1.9,0.3,1.9,0.3
			c0.1,0,0.3,0.1,0.5,0.2c-0.3-0.5-0.8-1.3-1.5-1.6l0,0C22.3,14.9,21.7,14.4,21.5,14.4z"/>
	</g>
	<g>
		<path d="M22.3,12.7c0,0-0.6,0.8-0.7,1.1c-0.1,0.3,0,0.5,0.3,0.7c0.3,0.2,1.1,0.9,1.3,1.1c0.2,0.2,1.2,1.5,1.2,1.5
			s-0.3-1.4-0.7-2.3C23.4,13.8,22.8,12.1,22.3,12.7z"/>
		<path class="st1" d="M24.7,17.7l-0.5-0.6c-0.4-0.5-1.1-1.4-1.2-1.5l0,0c-0.2-0.2-1-0.8-1.3-1c-0.4-0.3-0.5-0.5-0.3-0.9
			c0.1-0.3,0.7-1,0.8-1.1c0.1-0.2,0.3-0.2,0.4-0.2c0.4,0.1,0.8,0.9,1.3,2.2c0.3,0.9,0.7,2.3,0.7,2.3L24.7,17.7z M22.5,12.7
			C22.5,12.7,22.5,12.7,22.5,12.7L22.5,12.7c-0.3,0.4-0.7,0.9-0.8,1.1c-0.1,0.2-0.1,0.3,0.2,0.5c0.3,0.2,1.1,0.9,1.3,1.1l0,0
			c0.1,0.1,0.5,0.5,0.8,0.9c-0.1-0.5-0.3-1.1-0.5-1.5C23.4,14.3,22.8,12.7,22.5,12.7C22.5,12.7,22.5,12.7,22.5,12.7z"/>
	</g>
	<g>
		<path d="M21.5,13.1c0,0-6.4-8.5-8.7-9.5s-1.6-0.1-0.6,1.4s6.7,7.2,8,8c1.3,0.9,1.3,0.9,1.3,0.9l0.2-0.6L21.5,13.1z"/>
		<path class="st1" d="M21.6,14.2l-1.4-1c-1.3-0.9-7-6.5-8-8.1C12.1,5,12,4.9,11.9,4.7c-0.6-0.8-0.9-1.3-0.7-1.5
			C11.4,3,11.7,3,12.9,3.5c2.3,0.9,8.5,9.1,8.8,9.5l0.3,0.4L21.6,14.2z M11.5,3.4C11.5,3.4,11.5,3.4,11.5,3.4
			c-0.1,0.1,0.3,0.7,0.6,1.2c0.1,0.1,0.2,0.3,0.3,0.4c1,1.5,6.6,7.1,8,8l1.1,0.8l0.1-0.3l-0.2-0.2c-0.1-0.1-6.4-8.5-8.6-9.4
			C12,3.5,11.7,3.4,11.5,3.4z"/>
	</g>
	<g>
		<path d="M21,15.8c0,0-0.5,0.2-2.8-0.2c-2.3-0.3-6.1-1-7.6-2.2s-1.6-1.9-0.5-2.1s4.4,0,4.7,0.2c0.3,0.2,2.5,1.6,3,1.9
			c0.5,0.3,2.9,1.6,3.4,1.7L21,15.8z"/>
		<path class="st1" d="M20.4,16c-0.4,0-1.1,0-2.3-0.2c-2.2-0.3-6.2-1-7.7-2.3c-1-0.8-1.4-1.4-1.3-1.8c0.1-0.3,0.4-0.5,0.9-0.6
			c1-0.2,4.4,0,4.8,0.2c0.3,0.2,2.5,1.6,3,1.9c0.5,0.3,2.9,1.5,3.3,1.7l0.1,0l-0.1,0.9L21,16C21,16,20.8,16,20.4,16z M11.5,11.4
			c-0.6,0-1.1,0-1.4,0.1c-0.3,0.1-0.6,0.2-0.6,0.4c0,0.2,0.1,0.6,1.2,1.5c1.5,1.2,5.4,1.9,7.6,2.2c1.8,0.2,2.4,0.2,2.7,0.2l0.1-0.5
			c-0.7-0.3-2.8-1.4-3.3-1.7c-0.5-0.3-2.7-1.7-3-1.9C14.4,11.5,12.8,11.4,11.5,11.4z"/>
	</g>
	<g>
		<path d="M21.1,16.9c0,0-3.2,0.5-6.6,0.5s-4.2-1.2-3.8-1.5c0.3-0.3,2.2-1.2,3.9-0.9s3.7,0.7,4.1,0.7c0.4,0,2.3,0.1,2.3,0.1
			s0,0.5,0.2,0.7L21.1,16.9z"/>
		<path class="st1" d="M14.5,17.6c-2.8,0-3.8-0.8-4-1.3c-0.1-0.2,0-0.4,0.1-0.5c0.3-0.3,2.3-1.3,4-0.9c1.7,0.3,3.7,0.7,4.1,0.7
			c0.4,0,2.2,0.1,2.3,0.1l0.2,0l0,0.2c0,0.1,0,0.4,0.2,0.5l0.1,0.1L21.2,17l-0.1,0C21.1,17.1,17.8,17.6,14.5,17.6z M13.8,15.1
			c-1.4,0-2.8,0.7-3.1,0.9c0,0,0,0.1,0,0.1c0.1,0.3,1,1.1,3.7,1.1c3,0,5.9-0.4,6.5-0.5l0.1-0.2c-0.1-0.2-0.2-0.4-0.2-0.6
			c-0.4,0-1.8,0-2.1-0.1c-0.4,0-2.5-0.4-4.2-0.7C14.3,15.1,14,15.1,13.8,15.1z"/>
	</g>
	<g>
		<path d="M20.8,17.9c0,0-4,1.8-7,2.4s-3.3-0.4-3.2-0.6c0.1-0.2,1.3-2.1,3.2-2.2s3.3-0.1,4.8-0.2c1.5-0.2,2.5-0.3,2.5-0.3
			S20.8,17.4,20.8,17.9z"/>
		<path class="st1" d="M12.2,20.6c-1,0-1.5-0.3-1.6-0.5c-0.1-0.2-0.2-0.4-0.1-0.5c0,0,1.2-2.2,3.4-2.2c1.9,0,3.3-0.1,4.8-0.2
			c1.4-0.2,2.5-0.3,2.5-0.3l0.3,0L21.2,17c0,0-0.3,0.4-0.2,0.9l0,0.1l-0.1,0c0,0-4.1,1.8-7.1,2.4C13.1,20.5,12.6,20.6,12.2,20.6z
			 M20.8,17.1c-0.4,0.1-1.2,0.2-2.2,0.3c-1.5,0.2-2.9,0.2-4.8,0.2c-2,0-3.1,2.1-3.1,2.1c0,0,0,0.1,0.1,0.2c0.1,0.2,0.7,0.7,3,0.2
			c2.7-0.5,6.3-2,6.9-2.3C20.7,17.5,20.7,17.3,20.8,17.1z"/>
	</g>
	<g>
		<path d="M20.8,18.4c0,0-4.4,2.1-6.1,2.8c-1.6,0.7-3.6,1.5-3.6,1.1c-0.1-0.4,1.1-1.9,1.7-2c0.6-0.1,2-0.3,3-0.7s4.3-1.5,4.5-1.6
			c0.2-0.1,0.6-0.2,0.6-0.2S20.8,18.2,20.8,18.4z"/>
		<path class="st1" d="M11.3,22.6c-0.1,0-0.2,0-0.2,0c-0.1,0-0.1-0.1-0.1-0.2c0-0.2,0.1-0.5,0.4-0.9c0.3-0.5,1-1.2,1.5-1.3
			c0.5-0.1,1.9-0.3,2.9-0.7c1-0.3,4.3-1.5,4.4-1.6c0.2-0.1,0.6-0.2,0.6-0.2l0.2-0.1l0,0.3c0,0.1,0,0.4,0,0.5l0,0.1l-0.1,0.1
			c0,0-4.5,2.1-6.1,2.8l-0.4,0.2C12.8,22.2,11.8,22.6,11.3,22.6z M11.3,22.3c0.3,0.1,2-0.6,3.1-1.1l0.4-0.2c1.5-0.6,5.3-2.4,6-2.8
			c0-0.1,0-0.1,0-0.2c-0.1,0-0.2,0.1-0.3,0.1c-0.2,0.1-3.4,1.3-4.5,1.6c-1.1,0.3-2.5,0.6-3,0.7c-0.3,0-0.8,0.5-1.2,1.1
			C11.4,22,11.3,22.2,11.3,22.3z"/>
	</g>
	<g>
		<path d="M11.7,22.9c0,0-0.9,1.1-0.5,1.7c0.4,0.6,1.7-0.7,3.2-1.7c1.5-0.9,5.6-3.2,6.2-3.3c0.6-0.1,0.7-0.2,0.7-0.2l0.2-0.2
			c0,0-0.5-0.1-0.5-0.6l-6.5,3C14.3,21.4,12,22.4,11.7,22.9z"/>
		<path class="st1" d="M11.4,24.8c-0.2,0-0.3-0.1-0.4-0.2c-0.5-0.6,0.4-1.7,0.5-1.8c0.4-0.5,2.5-1.4,2.7-1.5l6.7-3.1l0,0.2
			c0,0.4,0.4,0.5,0.4,0.5l0.3,0l-0.4,0.4c-0.1,0.1-0.2,0.1-0.8,0.3C20,19.8,15.9,22,14.4,23c-0.4,0.3-0.8,0.5-1.2,0.8
			C12.5,24.3,11.8,24.8,11.4,24.8z M20.7,18.6l-6.3,2.9c-0.9,0.4-2.4,1.1-2.6,1.4l0,0c-0.2,0.3-0.8,1.1-0.5,1.5
			c0.2,0.3,1-0.3,1.8-0.9c0.4-0.3,0.8-0.5,1.2-0.8c1.4-0.9,5.6-3.2,6.2-3.4c0.5-0.1,0.6-0.2,0.6-0.2l0-0.1
			C21,19,20.8,18.9,20.7,18.6z"/>
	</g>
	<g>
		<path d="M11.7,25.8c0,0,0.1,0.3,1,0c0.9-0.3,4.4-2.9,5.4-3.7c0.9-0.8,3-1.8,3-1.8s0-1-0.6-0.8c-0.5,0.2-8.5,4.6-8.8,5.6
			C11.7,25.1,11.6,25.4,11.7,25.8z"/>
		<path class="st1" d="M12.1,26c-0.1,0-0.3,0-0.3-0.1c-0.1,0-0.1-0.1-0.1-0.1c-0.1-0.4,0-0.7,0-0.8c0.2-1.1,8.4-5.5,8.8-5.7
			c0.2-0.1,0.3,0,0.4,0c0.3,0.2,0.3,0.8,0.3,0.9l0,0.1l-0.1,0c0,0-2,1-2.9,1.8c-0.8,0.7-4.4,3.4-5.4,3.7C12.5,26,12.2,26,12.1,26z
			 M11.9,25.7c0,0,0.2,0.1,0.8-0.1c0.9-0.2,4.3-2.8,5.3-3.6c0.8-0.7,2.5-1.6,2.9-1.8c0-0.2-0.1-0.5-0.2-0.5c0,0-0.1,0-0.2,0
			c-0.7,0.3-8.5,4.7-8.7,5.5C11.9,25.2,11.8,25.4,11.9,25.7z"/>
	</g>
	<g>
		<path d="M12.1,26.6c0,0,0.4,0.7,1.3,0.2s4.1-2.8,5-3.4c0.9-0.6,3-2.2,3-2.5c0-0.3-0.2-0.6-0.6-0.5c-0.3,0.2-7.7,5.2-7.7,5.2
			S11.9,26.1,12.1,26.6z"/>
		<path class="st1" d="M12.8,27.1c-0.6,0-0.9-0.4-0.9-0.5l0,0c-0.1-0.1-0.1-0.2,0-0.4c0.2-0.4,1-0.8,1.1-0.8c0.3-0.2,7.3-5,7.7-5.2
			c0.2-0.1,0.3-0.1,0.5,0c0.2,0.1,0.3,0.4,0.3,0.6c0,0.5-3,2.6-3,2.6c-0.2,0.2-0.6,0.4-1,0.7c-1.3,0.9-3.3,2.4-4,2.7
			C13.3,27.1,13,27.1,12.8,27.1z M12.3,26.5c0,0.1,0.4,0.5,1.1,0.2c0.7-0.3,2.7-1.7,4-2.7c0.4-0.3,0.8-0.6,1-0.7
			c1-0.7,2.8-2.1,2.9-2.4c0-0.1-0.1-0.2-0.2-0.3c-0.1,0-0.1,0-0.2,0c-0.3,0.1-5.6,3.8-7.7,5.1c-0.3,0.1-0.9,0.4-0.9,0.7
			C12.2,26.4,12.2,26.5,12.3,26.5z"/>
	</g>
	<g>
		<path d="M12.2,28.4c0,0,1.3,0.7,2.9-0.5s5.8-4.5,6.2-5c0.4-0.5,0.5-0.5,0.6-0.9c0-0.4,0-0.6-0.2-0.7c-0.2-0.1-0.5-0.1-0.7,0.1
			c-0.2,0.2-4.7,3.6-4.7,3.6s-2.5,1.8-2.9,1.9S11.7,27.6,12.2,28.4z"/>
		<path class="st1" d="M13.2,28.7c-0.6,0-1-0.2-1.1-0.2l-0.1,0c-0.2-0.2-0.2-0.5-0.1-0.7c0.2-0.6,1.1-1,1.4-1.1
			c0.3-0.1,1.9-1.2,2.9-1.9c1.2-0.9,4.5-3.5,4.7-3.6c0.2-0.2,0.6-0.3,0.9-0.1c0.3,0.2,0.3,0.5,0.2,0.9c0,0.4-0.1,0.5-0.3,0.7
			c-0.1,0.1-0.2,0.2-0.3,0.3c-0.5,0.6-6.2,4.9-6.2,5C14.5,28.6,13.8,28.7,13.2,28.7z M12.3,28.2c0.2,0.1,1.3,0.6,2.7-0.5
			c2.3-1.7,5.8-4.5,6.2-4.9c0.1-0.1,0.2-0.2,0.3-0.3c0.2-0.2,0.2-0.2,0.2-0.5c0-0.4,0-0.5-0.1-0.6c-0.1-0.1-0.4-0.1-0.5,0.1
			c-0.2,0.2-4.5,3.5-4.7,3.6c-0.3,0.2-2.5,1.8-3,1.9c-0.3,0.1-1.1,0.5-1.2,0.9C12.2,28,12.2,28.1,12.3,28.2z"/>
	</g>
	<g>
		<path d="M23.6,27.2c0,0,0.4,0-2.2,1.9c0,0-5.1,4.5-6.4,4.3c-1.2-0.2-0.7-1.6,0.5-2.3c1.2-0.7,6.2-4.3,6.8-4.7
			c0.6-0.3,0.6-0.3,0.6-0.2c0,0.1,0.5,0.6,0.7,0.6L23.6,27.2z"/>
		<path class="st1" d="M15.1,33.6C15.1,33.6,15,33.6,15.1,33.6c-0.7-0.1-0.9-0.4-0.9-0.7c-0.1-0.6,0.4-1.5,1.3-2
			c0.8-0.4,3.1-2.1,4.8-3.3c1-0.7,1.8-1.2,2-1.4C22.7,26,22.8,26,23,26c0.1,0,0.1,0.1,0.1,0.1c0.1,0.1,0.4,0.5,0.5,0.5l0.1,0l0,0.1
			l0,0.4l0,0c0,0.1,0.1,0.3-2.3,2C21,29.7,16.5,33.6,15.1,33.6z M22.9,26.3c-0.1,0-0.2,0.1-0.4,0.2c-0.2,0.1-1,0.7-1.9,1.4
			c-1.7,1.2-4,2.9-4.8,3.3c-0.8,0.4-1.2,1.2-1.1,1.6c0,0.2,0.2,0.4,0.6,0.4c1,0.1,4.8-3,6.2-4.3c1.7-1.2,2.1-1.6,2.2-1.7l0-0.4
			C23.2,26.8,22.9,26.4,22.9,26.3z"/>
	</g>
	<g>
		<path d="M16.3,27c0,0-2.9,2.3-3.6,2.9s-1.2,1.6-1.1,1.8c0.1,0.3,1.7-0.2,3.6-1.6c1.9-1.4,5.8-4.5,6.2-5c0.5-0.5,0.7-1,0.8-1.2
			s0.2-0.5,0.2-0.5s-0.7-0.2-0.6-1C22,22.4,19.3,25,16.3,27z"/>
		<path class="st1" d="M11.9,31.9c-0.1,0-0.1,0-0.1,0c-0.1,0-0.2-0.1-0.2-0.1c-0.2-0.4,0.5-1.4,1.1-2c0.7-0.6,3.5-2.9,3.6-2.9l0,0
			c3-2,5.6-4.5,5.6-4.6l0.3-0.3l-0.1,0.4c-0.1,0.7,0.4,0.9,0.5,0.9l0.2,0l-0.1,0.2c0,0-0.1,0.3-0.2,0.5c-0.1,0.2-0.4,0.8-0.8,1.3
			c-0.5,0.5-4.4,3.7-6.3,5.1C13.8,31.4,12.5,31.9,11.9,31.9z M16.4,27.1c-0.1,0.1-2.9,2.3-3.5,2.9c-0.7,0.6-1.1,1.5-1.1,1.7
			c0.2,0.1,1.6-0.4,3.4-1.6c1.9-1.4,5.8-4.6,6.2-5c0.4-0.5,0.7-1,0.8-1.2c0-0.1,0.1-0.3,0.1-0.4c-0.2-0.1-0.5-0.3-0.5-0.8
			C21.1,23.4,18.9,25.5,16.4,27.1z"/>
	</g>
	<g>
		<path d="M14.8,31.7c0,0-0.6,0.2-0.8,0c-0.2-0.2,0.1-0.8,0.8-1.2c0.6-0.4,3.4-2.6,4.7-3.8c1.4-1.2,2.3-2.3,2.6-2.3
			c0.3,0,0.4,0.4,0.6,0.5s0.2,0.4,0.1,0.6c-0.1,0.2-0.2,0.5-0.1,0.6c0,0-1.8,1.4-2.4,1.7c-0.6,0.3-2.8,2.1-3.3,2.3
			C16.6,30.4,14.8,31.7,14.8,31.7z"/>
		<path class="st1" d="M14.3,31.9c-0.2,0-0.3,0-0.4-0.1c0,0-0.1-0.1-0.1-0.3c0-0.3,0.4-0.8,0.9-1.1c0.6-0.4,3.4-2.6,4.7-3.8
			c0.6-0.5,1.1-1,1.5-1.4c0.7-0.7,1-0.9,1.2-0.9c0,0,0,0,0,0c0.2,0,0.4,0.2,0.5,0.3c0.1,0.1,0.1,0.2,0.2,0.2c0.1,0,0.2,0.1,0.3,0.2
			c0.1,0.2,0.1,0.4,0,0.6c-0.1,0.2-0.2,0.4-0.1,0.5l0.1,0.1l-0.1,0.1c-0.1,0.1-1.9,1.4-2.5,1.7c-0.4,0.2-1.3,0.9-2.1,1.5
			c-0.5,0.4-1,0.7-1.1,0.8c-0.5,0.3-2.2,1.6-2.3,1.6l0,0C14.8,31.8,14.5,31.9,14.3,31.9z M22.1,24.5C22.1,24.5,22.1,24.5,22.1,24.5
			c-0.1,0-0.5,0.4-1,0.9c-0.4,0.4-0.9,0.9-1.5,1.4c-1.4,1.2-4.1,3.4-4.7,3.8c-0.6,0.4-0.8,0.9-0.7,1c0.1,0,0.3,0,0.6,0
			c0.2-0.2,1.8-1.3,2.3-1.6c0.2-0.1,0.6-0.4,1.1-0.8c0.8-0.6,1.8-1.4,2.2-1.5c0.5-0.2,1.9-1.3,2.3-1.6c-0.1-0.2,0-0.5,0.1-0.7
			c0.1-0.1,0.1-0.2,0-0.3c0,0,0,0-0.1-0.1c-0.1,0-0.3-0.2-0.4-0.3C22.3,24.6,22.2,24.5,22.1,24.5z"/>
	</g>
</g>
</svg>
