<?xml version="1.0" encoding="utf-8"?>
<!-- Generator: Adobe Illustrator 25.4.1, SVG Export Plug-In . SVG Version: 6.00 Build 0)  -->
<svg version="1.1" id="Layer_2_00000159471598350358213750000014612203606435250611_"
	 xmlns="http://www.w3.org/2000/svg" xmlns:xlink="http://www.w3.org/1999/xlink" x="0px" y="0px" viewBox="0 0 256.6 80"
	 style="enable-background:new 0 0 256.6 80;" xml:space="preserve">
<style type="text/css">
	.st0{fill:#CE153F;}
	.st1{fill:#A0ABB3;}
</style>
<g>
	<path class="st0" d="M184.8,23.6h10.1c6.6,0,9.1,2.8,8.3,7.6l-1.4,8.1c-0.9,4.8-4.1,7.6-10.2,7.6h-10.8L184.8,23.6z M186.6,42.7
		h4.6c3.4,0,5.1-1.6,5.4-3.7l1.3-7.4c0.3-2-0.8-3.7-4.1-3.7h-4.6L186.6,42.7z"/>
	<path class="st0" d="M207.1,23.6h5.2l-4.1,23.2H203L207.1,23.6z"/>
	<path class="st0" d="M131.2,23.6l-6.7,1.5L113,46.8h5.7l2.3-4.9h8l0.6,4.9h5.4L131.2,23.6z M122.9,37.8l4.1-8.5l0.4-0.2l1.1,8.7
		L122.9,37.8z"/>
	<path class="st0" d="M175.6,23.6l-6.7,1.5l-11.5,21.7h5.7l2.3-4.9h8l0.6,4.9h5.4L175.6,23.6z M167.3,37.8l4.1-8.5l0.4-0.2l1.1,8.7
		L167.3,37.8z"/>
	<path class="st0" d="M227.8,23.6l-6.7,1.5l-11.5,21.7h5.7l2.3-4.9h8l0.6,4.9h5.4L227.8,23.6z M219.5,37.8l4.1-8.5L224,29l1.1,8.7
		L219.5,37.8z"/>
	<polygon class="st0" points="154.7,24.8 152.3,38.1 144.9,23.6 140.3,24.7 136.4,46.8 141.5,46.8 144,32.5 151.5,46.8 155.9,46.8 
		160,23.6 	"/>
	<polygon class="st0" points="251.3,24.8 249,38.1 241.5,23.6 236.9,24.7 233,46.8 238.1,46.8 240.6,32.5 248.1,46.8 252.5,46.8 
		256.6,23.6 	"/>
	<path class="st0" d="M112.4,42.1l-0.8,4.6c-1,0.2-3,0.8-7.7,0.8c-7.9,0-11.9-2.6-10.6-10.2l1.7-9.1c1.4-7.7,6-10.3,13.5-10.3
		c4.2,0,6.3,0.4,7.5,0.7l-0.8,4.6c-1.2-0.4-2.9-0.8-6.7-0.8c-4,0-7.4,1.1-8.2,5.7l-1.6,9.1c-0.7,3.9,1.4,5.6,6,5.6
		C107.3,42.9,109.9,42.6,112.4,42.1z"/>
	<path class="st0" d="M114.9,64.4c0.9-5.1,4.1-8.1,10.4-8.1h2.2c6.2,0,9,3,8.1,8.2l-1.3,7.4c-0.9,5.2-4,8.2-10.2,8.2h-2.3
		c-6.3,0-9-3-8.2-8.2L114.9,64.4z M118.7,71.8c-0.4,2.3,0.8,4.1,4.1,4.1h0.9c3.4,0,5.1-1.8,5.5-4.1l1.3-7.4c0.4-2.3-0.7-4.1-4-4.1
		h-0.9c-3.3,0-5.2,1.8-5.6,4.1L118.7,71.8z"/>
	<path class="st0" d="M145.4,71.6h-3.6l-1.4,8.1h-5.1l4.1-23.2h10c4.2,0,7.1,1.9,6.3,6.1l-0.5,3c-0.5,3.1-2.3,4.9-4.9,5.7l3.4,8.4
		h-5.2L145.4,71.6z M143.7,60.6l-1.2,6.8h4.1c1.7,0,3.2-0.7,3.6-2.5l0.3-1.7c0.3-1.8-0.9-2.6-2.6-2.6L143.7,60.6z"/>
	<path class="st0" d="M158.3,56.5h15.2l-0.7,4.1h-5.1l-3.3,19.1h-5.1l3.3-19.1h-5L158.3,56.5z"/>
	<path class="st0" d="M190.1,79.7H185l1.6-9.1h-8.6l-1.6,9.1h-5.1l4.1-23.2h5l-1.7,9.9h8.7l1.7-9.9h5.1L190.1,79.7z"/>
	<polygon class="st0" points="109.3,52.4 106.1,70.4 96.2,51.1 91.3,52.2 86.5,79.7 91.9,79.7 95.3,60.5 105.3,79.7 109.9,79.7 
		114.9,51.2 	"/>
	<path class="st1" d="M26.7,40.5L5.9,79.7h19.6l10.6-22.5l2.4-1.4l2.7,23.9h19.6l-7.2-45.2L26.7,40.5z M0,23.7l5.2,11.6l78.6-6.6
		l2.7-5L0,23.7z M53.9,19.4H36.3L39,4.2L57.4,0L53.9,19.4z"/>
</g>
</svg>
