<?xml version="1.0" encoding="utf-8"?>
<!-- Generator: Adobe Illustrator 25.4.1, SVG Export Plug-In . SVG Version: 6.00 Build 0)  -->
<svg version="1.1" id="Layer_1" xmlns="http://www.w3.org/2000/svg" xmlns:xlink="http://www.w3.org/1999/xlink" x="0px" y="0px"
	 viewBox="0 0 476.7 80" style="enable-background:new 0 0 476.7 80;" xml:space="preserve">
<style type="text/css">
	.st0{fill:#161F4A;}
</style>
<g>
	<g>
		<path class="st0" d="M110.5,15.4L122.7,0H12.8L0,16h39.5L1,79.3c0,0,36.7,0,37.3,0c0.6,0,40.2-63.9,40.2-63.9H110.5z"/>
		<path class="st0" d="M214.3,0c-25.4,0-64.9,0-64.9,0s-24.1,1.2-36.5,20.5c-12.4,19.3-37.5,58.8-37.5,58.8h34.3l19-30.4h50
			C169.2,63.7,159,79.3,159,79.3h34.9l36.1-59C230,20.3,239.7,0,214.3,0z M193.9,24.5c-0.9,1.7-2.9,5-5.4,9.1h-50.1l5.1-8.1
			c0,0,6.1-9.7,20.9-9.7c14.8,0,26,0,26,0S198.5,16,193.9,24.5z"/>
		<path class="st0" d="M269.5,25.5c6.1-9.5,12.9-8.9,12.9-8.9H347l11-16.6c0,0-60,0-79.9,0c-19.9,0-33.5,11.8-33.5,11.8
			s-28.8,44.4-35.9,56c-7.1,11.6,7.1,11.4,7.1,11.4s59,0,76.7,0c17.8,0,22.3-10.1,22.3-10.1l22.7-36.9h-48.1l-12.6,15.6l14.3,0
			c0,0-0.7,1.3-4.8,9c-4.1,7.7-9.9,7.1-9.9,7.1s-15.3,0-23.4,0s-3.2-7.3-3.2-7.3S263.4,34.9,269.5,25.5z"/>
	</g>
	<g>
		<path class="st0" d="M350.9,45.4l-32.3,33.9h5.5l8.3-9c3.8-0.1,12.9-0.3,16.7-0.1l-0.5,9.2h3.8l1.8-33.9H350.9z M335.1,67.4
			l15.2-16.6l-1,16.6H335.1z"/>
		<polygon class="st0" points="366.2,56.6 354.2,79.3 358.1,79.3 370.1,56.6 		"/>
		<polygon class="st0" points="402,56.6 390.1,79.3 393.9,79.3 406,56.6 		"/>
		<polygon class="st0" points="399,43.2 380.4,79.3 384.3,79.3 403,43.2 		"/>
		<path class="st0" d="M371.9,50.7c1.1,0.4,2.5-0.4,3-1.9s0-2.9-1.1-3.3c-1.1-0.4-2.5,0.4-3,1.9C370.3,48.8,370.8,50.3,371.9,50.7z"
			/>
		<path class="st0" d="M386.9,60l1.9-2.7c0,0-2.6-1.1-6.3,0c-2.2,0.6-3.7,1.9-4.7,2.8l1.9-3.5h-3.9l-11.9,22.7h3.8l7.2-13.6l0,0
			c0.2-0.4,3.7-4.5,7.4-5.2C386,59.8,386.9,60,386.9,60z"/>
		<path class="st0" d="M410.5,38l-6.3,14.7c15.4-4.6,42.1-21.9,42.1-21.9C430.8,37.6,410.5,38,410.5,38z"/>
		<path class="st0" d="M425.7,49.2c8.9-3.2,12.6-6.7,12.6-6.7h-9.9c0,0-10.9,7.8-21.1,10.6C407.4,53.1,416.9,52.4,425.7,49.2z"/>
		<path class="st0" d="M415.6,60l1.8-3.3h-3.9l-11.9,22.7h3.8l7.9-14.8l0,0c0.4-0.7,5.1-5.9,9.7-4.4c4.6,1.5-5.6,19.2-5.6,19.2h3.6
			c0,0,10.6-18.4,7.4-22.5C425.8,53.6,418.4,58,415.6,60z"/>
		<path class="st0" d="M437.9,76.4c-5.5,0-3.3-7.6-3.3-7.6h20.1c0,0,5.4-13.2-4.8-13.2c-10.3,0-18,10.9-18.7,13.2
			c-0.8,2.3-2.6,11.1,5.6,11.1c8.2,0,12.5-5.6,12.5-5.6l-1.7-1.4C447.6,73,443.4,76.4,437.9,76.4z M446.9,59.4
			c5.7,0,3.8,6.7,3.8,6.7H437C437,66.1,441.1,59.4,446.9,59.4z"/>
		<path class="st0" d="M470.4,56.2c-7.2,0-11.5,5.4-11.9,9.2c-0.4,3.7,5.7,3.4,7.4,6.1c1.7,2.8-2.6,5-6,5c-3.5,0-4.3-3.2-4.3-3.2
			l-2.3,1c0,0-0.2,5.6,5.2,5.6s9.5-1.7,11.2-3.9c1.8-2.3,2.7-7,0.1-8.7c-2.6-1.7-5.3-1.6-6.2-3.5c-0.9-1.9,2.2-4.5,5.9-4.5
			c3.7,0,4.5,3,4.5,3l2.6-1.6C476.6,60.8,477.6,56.2,470.4,56.2z"/>
	</g>
</g>
</svg>
