<?xml version="1.0" encoding="utf-8"?>
<!-- Generator: Adobe Illustrator 25.4.1, SVG Export Plug-In . SVG Version: 6.00 Build 0)  -->
<svg version="1.1" xmlns="http://www.w3.org/2000/svg" xmlns:xlink="http://www.w3.org/1999/xlink" x="0px" y="0px"
	 viewBox="0 0 132.6 80" style="enable-background:new 0 0 132.6 80;" xml:space="preserve">
<style type="text/css">
	.st0{fill:#0C0C11;}
	.st1{fill:#002663;}
	.st2{fill:#FFB608;}
	.st3{opacity:0.55;}
	.st4{fill:url(#SVGID_1_);}
</style>
<g id="Layer_1">
	<path class="st0" d="M-238.6-885.5c-0.7-0.1-1.8,0-2.5,0c0.5-0.4,1.2-0.7,1.6-0.5c0.1,0,0.1,0,0.2,0.1
		C-239.1-885.8-238.8-885.6-238.6-885.5z"/>
	<g id="text835">
	</g>
</g>
<g id="Layer_2">
	<g>
		<g>
			<path class="st1" d="M132.6,1.5c-0.4-1.2-1.6-1.4-2.1-1.5l-26.1,0.1c0,0-3.2-0.3-5.9,2C98,2.4,0,80,0,80h99.1L132,4
				C132,4,132.9,2.4,132.6,1.5z"/>
		</g>
		<g>
			<path class="st2" d="M44.3,44.8c0.7,0.8,1,1.6,1.3,1.8c0.7,0.4,1.3,0.2,1.7,0.2c0.4,0.1,0.7,0.3,1.3,0.8c0.4,0.4,0.9,0.9,1.4,1.5
				c0.7,1,1.8,1.5,3.1,2.3c1,0.5,1.5,0.5,2,0.6c0.3,0,0.6,0.1,1.1,0.2c0.4,0.1,0.7,0.4,1,0.7c0.4,0.4,0.9,1,2,1.5
				c0.7,0.4,1.2,0.5,1.6,0.6c0.4,0.1,0.6,0.2,0.9,0.4c0.4,0.3,0.7,0.7,0.9,1.1c0.2,0.4,0.5,0.8,0.9,1c0.8,0.5,1.6,0.6,1.8,0.6l0,0
				c0,1.3,0.7,2.1,1.8,2.1l0,0c0.1,1.1,0.5,1.3,1,1.4c-0.1,0.4,0.1,0.7,0.2,0.9c0.1,0.2,0.2,0.2,0.4,0.3v0.1c-0.1,0.5-0.1,1,0.2,1.2
				c0.1,0.2,0.4,0.2,0.6,0.2l0,0l0,0c0.1,0.2,0.2,0.4,0.4,0.5c0.7,1,1.5,2.1,1.4,3.8c-0.1,1.5-0.5,2.5-0.9,3.5
				c-0.4,0.9-0.7,1.6-0.8,2.8c-0.1,0.8,0.2,1.8,0.4,2.4c0,0.1,0,0.1,0,0.1c-0.9-0.9-1.3-2.8-1.3-5.6c0-1.8,0.3-4,0.8-6.2
				c0-0.1,0-0.1,0-0.1c0.1-0.4-0.1-0.7-0.3-0.8s-0.6,0-0.9,0.4s-1.8,3.8-1.9,7.6c0,3.2,1,6.2,2.4,7.3h3c0.4-0.4,0.8-1,0.9-1.2l0,0
				c0.2-0.4,0.2-1.6,0.2-1.8c0-0.2,0.5-2.4,0.7-2.7c0.4-0.9,1-2.4,1.3-3.7c0,0.1,0.1,0.2,0.1,0.2c0.2,0.7,0.5,2.4,0.6,3
				c0.1,0.2,0.1,0.9,0.6,0.9c0.4,0,0.6-0.6,0.7-0.9c0.2-0.9,0.1-3.5-0.1-4.6c-0.1-0.3-0.2-0.6-0.3-0.9c-0.2-0.6-0.6-1.5-0.6-3.2
				c0-1,0.2-2.2,0.4-3c0.1-0.4,0.1-0.6,0.1-0.9c0.1-0.5-0.1-0.9-0.2-1.2c0.2,0,0.4,0,0.4,0c0.1-0.1,0.2-0.1,0.2-0.1
				c0.1,0,0.1-0.1,0.2-0.1c0.1,0.1,0.1,0.4,0.1,0.7c0,0.1,0,0.1,0,0.2c-0.1,0.3-0.1,0.7,0,1.3c0.1,0.3,0.2,0.5,0.4,0.8
				c0.1,0.2,0.3,0.5,0.3,0.7l0,0l0,0c0.3,1.6-0.4,8.7-0.6,9.8c-0.1,0.4-0.2,0.8-0.2,1.2c-0.1,0.5-0.1,0.9-0.2,1.2
				c-0.1,0.1-0.2,0.4-0.4,0.6c-0.5,0.7-1.3,1.8-1.3,2.7c0,0.2,0.2,0.6,0.3,0.8h5.6c0.1-0.1,0.3-0.4,0.4-0.5c0.1-0.2,0.2-0.8-0.5-1.3
				c-0.2-0.2-0.5-0.4-0.9-0.5c-0.5-0.2-1-0.5-1-0.8s0.2-0.6,0.4-0.9c0.2-0.3,0.4-0.6,0.4-1c0-0.1,0-0.3-0.1-0.5
				c-0.1-0.1-0.1-0.2-0.2-0.2c-0.1-0.1-0.1-0.1-0.1-0.4c0-0.1,0.1-0.3,0.2-0.6c0.5-1.5,1.9-5.2,2.2-10.3c0.1-1.3-0.2-2.6-0.7-3.7
				c0.1,0.1,0.2,0.2,0.3,0.2c0.2,0,0.4-0.1,0.5-0.2c0.9-0.9,1.1-1.8,1.3-2.9c0.1-0.2,0.1-0.4,0.2-0.7c0.1-0.1,0.3-0.1,0.5-0.2
				c0.5-0.1,1.2-0.4,1.9-0.8c0.7-0.4,1.4-1.3,2-2c0.4-0.5,0.9-1,1-1c0.2-0.1,0.4,0,0.7,0.1s0.7,0.2,1.1,0.1c1.8-0.2,4.6-2.7,6.5-4.5
				c0.7-0.6,1.2-1.3,1.5-1.6c0.9-0.6,1.8-0.4,2.1-0.5c0.2-0.1,0.8-0.1,1-0.3c0.4-0.5,1.3-2.6,3.4-4c12.6-9.5,21-24.1,22.1-40.9h-2.1
				c0.1,0.2,0.2,0.5,0.2,0.7c-0.4,6.5-2,12.7-4.6,18.4c-0.8-3.1-5.1-6-11.8-8.3c0.6-3.5,1-7.1,1.1-10.9h-3.7
				c-0.1,3.4-0.4,6.7-0.8,9.8c-4.1-1.2-8.8-2.1-14-2.8c-0.9,0.7-1.9,1.5-2.9,2.3c6.3,0.6,11.9,1.6,16.6,2.7
				c-1,5.5-2.4,10.5-4.4,14.9c-4.3-1.4-9.9-2.6-16.3-3.2c0.7-3.9,1.2-8.2,1.6-12.6c-1.4,1.1-2.9,2.3-4.5,3.5c-0.2,3-0.5,6-0.8,8.8
				c-2.7-0.2-5.6-0.3-8.6-0.3c-0.5,0-0.9,0-1.4,0c-0.9,0.7-1.8,1.5-2.7,2.2c1.3-0.1,2.7-0.1,4.1-0.1c2.9,0,5.7,0.1,8.4,0.2
				c-0.5,4.6-1.2,8.7-2,12.3c-2.1-0.2-4.3-0.3-6.6-0.3c-2.3,0-4.6,0.1-6.8,0.3c-0.5-2.7-1.1-5.7-1.6-8.9C63,29.6,62,30.4,61,31.2
				c0.6,2.5,1.2,4.8,2,7c-4.5,0.6-8.3,1.6-10.8,2.9c-0.5-0.5-1-1.1-1.5-1.6c-0.5,0.4-1,0.8-1.5,1.2c0.5,0.5,0.9,1,1.4,1.4
				c-1.1,0.8-1.8,1.7-1.8,2.6c0,0.1,0.1,0.3,0.1,0.5c-1.1-0.5-2.3-1.2-3.3-1.8C45.3,44,44.8,44.3,44.3,44.8z M74.2,59.4
				c-0.5,0.1,0.5,0.4,0.4,1.2c-0.1,0.5-0.5,0.7-1,0.7c-0.5,0,0.1,0.3,0.3,0.6c0.2,0.4-0.3,0.8-0.9,0.8c-0.4,0-1.3,0.1-2,0
				c-0.7-0.1-0.5-0.4-0.2-0.5c0.4-0.1,0.9-0.2,1.4-0.4c0.7-0.3,0.3-0.5,0.1-0.5c-0.3-0.1-0.9-0.1-1.7-0.3c-0.5-0.1-0.7-0.5-0.5-0.8
				c0.1-0.2,0.3-0.2,0.5-0.2c0.4,0,1.6-0.1,2.1-0.2s0.7-0.6,0-0.7c-0.6-0.1-1.7,0-2.8-0.1c-1.1-0.1-1.8-0.5-2.5-1.3
				s-0.8-2.5-1.5-3.5c-0.5-0.8-1.4-1-1.8-1c-0.4-0.1-0.7,0.1-0.9,0.2c-0.2,0.1-0.2,0.2,0,0.3c0.6,0.3,0.7,1.3,0.6,1.3
				c-1.3-1.2-3.4-2-4.1-2.1c-0.7-0.2-1.5-0.9-1.8-1c-0.3-0.2-1.6-1-2.1-1c-2,0.1-2.6-0.7-3.2-1.7c-0.3-0.5,0.4-0.3,0.6-0.2
				c0.6,0.3,2,1.2,3.5,1.6c1.6,0.5,2.1,0.3,3.3,0.8c0.9,0.3,1.5,1.3,2.4,1.3c1.1-0.1,1.2-0.6,2.7-0.9c0.3-0.1,1.3,0,1.6,0.1
				c0.7,0.2,0.7,0.3,1.1,0.3c0.5,0,1-0.4,1.3-0.4c0.3,0,0.5,0.2,0.5,0.4s-0.1,0.9-0.1,1.2c0.1,1.1,0.4,1.5,1.2,2
				c0.9,0.5,1.4,0.7,2.4,0.8v0.7c-0.5,0-1.2-0.2-1.5-0.2c-0.2-0.1-0.2,0-0.3,0.1c0,0.1-0.1,0.4,0.1,0.4c0.3,0.1,0.9,0.2,1,0.3
				c0.2,0.1,0.5,0.6,0.9,0.8c0.2,0.2,0.5,0.1,0.4-0.2c0-0.3,0.2-0.5,0.6-0.6c0.8,0,1.5,0.1,1.5,1C76,59.3,75.1,59.3,74.2,59.4z
				 M87.4,50.3c-0.9,0-2,0.3-2.6,0.9c-0.1,0.1-0.1,0.1-0.2,0.2c-0.3,0.2-0.4,0.1-0.4,0c0-0.1-0.2-0.3-0.5,0.1
				c-1.2,1.9-2,2.4-3.1,2.9c-0.2,0.1-0.4,0.1-0.3-0.1c0.1-0.2,0.2-0.8,0.2-1.5s-0.2-1.2-0.3-1.3c-0.1-0.1-0.2-0.2-0.1-0.3
				c0.5-0.2,1.6-0.7,2.6-0.7c0.7,0,0.8,0.4,1,0.5c0.2,0.1,0.3-0.1,0.4-0.2c0.2-0.3,0.5-0.6,1.2-0.7c0.5-0.1,1.5,0,2,0.2
				C87.6,50.2,87.5,50.3,87.4,50.3z M108.8,13.2c6.9,2.1,11,4.8,11,7.7c0,0.4-0.1,0.7-0.2,1.1c-2.4,4.5-5.3,8.6-8.8,12.2
				c-0.2-2.2-2.8-4.3-7.2-6C105.9,23.6,107.6,18.6,108.8,13.2z M102.9,29.6c4.1,1.5,6.5,3.2,6.5,5c0,1.2-0.2,1.3-2.6,3.4l0,0
				c-3.4,2.9-7.2,5.4-11.3,7.3c0-0.1,0.1-0.3,0.1-0.4c0-1-0.7-2-2.1-2.9C97.1,38.5,100.3,34.3,102.9,29.6z M84.5,26
				c6.2,0.5,11.7,1.5,15.9,2.7c-2.3,4.9-5.1,9-8.3,12.4c-2.5-1.3-6.3-2.3-10.7-2.9C82.6,34.8,83.6,30.7,84.5,26z M51.6,42.9
				c1.9,1.7,3.9,3.1,6,4.3c0.6,0.4,1.8,0.9,2.3,0.7c0.3-0.1-0.7-0.9-1.2-1.2c-2-1.3-3.8-2.9-5.5-4.6c2.4-1,6.1-1.8,10.5-2.2
				c0.9,2.5,1.9,4.6,2.9,6.3c0.4,0.6,1.2,1.6,1.6,1.7c0.3,0.1-0.1-1.1-0.3-1.6c-0.7-1.8-1.3-4.1-2-6.6c2-0.1,4.1-0.2,6.4-0.2
				c2.1,0,4.3,0.1,6.2,0.2c-0.6,2.6-1.3,4.8-2,6.6c-0.2,0.5-0.6,1.7-0.3,1.6c0.5-0.1,1.3-1.2,1.6-1.8c1-1.8,2-3.9,2.9-6.3
				c4.4,0.4,8,1.2,10.4,2.2c-1.8,1.8-3.7,3.4-5.5,4.7c-0.5,0.3-1.5,1.2-1.2,1.2c0.5,0.1,1.6-0.5,2.2-0.9c2.1-1.3,4.1-2.8,5.9-4.5
				c1.2,0.7,1.8,1.3,1.8,2.1c0,0.4,0,0.8-0.2,1.1c-3.1,1.4-6.4,2.6-9.8,3.4c-0.2-0.4-0.8-0.7-1.7-0.7c-1.5,0-3.4,1.6-3.6,1.9
				c-0.4-0.5-1.2-1.1-2.2-0.7l-0.3,0.1l0.1,0.3c0.1,0.1,0.1,0.4,0.2,0.7c-0.4-1-1-1.8-2-2.1c-0.9-0.2-2-0.3-3.1-0.1
				c-0.5,0.1-1.3,0.6-1.6,1c-0.1-0.1-0.4-0.1-0.6-0.1c-0.7,0-1.3,0.6-1.6,1C68,50.4,68,50.4,68,50.4s-0.1-0.1-0.2-0.2
				c0,0-0.4-0.7-1.3-1c-0.7-0.2-1.3-0.2-1.9-0.2c-0.4,0-0.6,0.1-0.9,0.2c-0.4,0.1-0.8,0.2-1.5,0.2c-0.6,0-0.9-0.1-1.3-0.2
				c-3.7-0.8-7.3-2-10.7-3.5c-0.4-0.4-0.4-0.7-0.4-1.2C50.1,44.1,50.6,43.5,51.6,42.9z"/>
		</g>
		<g class="st3">
			
				<linearGradient id="SVGID_1_" gradientUnits="userSpaceOnUse" x1="56.3603" y1="53.4099" x2="99.2464" y2="1.1741" gradientTransform="matrix(1 0 0 -1 0 82)">
				<stop  offset="0" style="stop-color:#FFFFFF;stop-opacity:0.1"/>
				<stop  offset="0.1063" style="stop-color:#FFFFFF;stop-opacity:0.3"/>
				<stop  offset="0.167" style="stop-color:#FFFFFF;stop-opacity:0.9"/>
				<stop  offset="0.2296" style="stop-color:#FFFFFF;stop-opacity:0.7081"/>
				<stop  offset="0.542" style="stop-color:#FFFFFF;stop-opacity:6.303331e-02"/>
				<stop  offset="0.9997" style="stop-color:#FFFFFF;stop-opacity:0"/>
			</linearGradient>
			<path class="st4" d="M132.6,1.5c-0.4-1.2-1.6-1.4-2.1-1.5l-26.1,0.1c0,0-3.2-0.3-5.9,2C98,2.4,0,80,0,80h99.1L132,4
				C132,4,132.9,2.4,132.6,1.5z"/>
		</g>
	</g>
</g>
</svg>
