<?xml version="1.0" encoding="utf-8"?>
<!-- Generator: Adobe Illustrator 25.4.1, SVG Export Plug-In . SVG Version: 6.00 Build 0)  -->
<svg version="1.1" xmlns="http://www.w3.org/2000/svg" xmlns:xlink="http://www.w3.org/1999/xlink" x="0px" y="0px"
	 viewBox="0 0 468.2 80" style="enable-background:new 0 0 468.2 80;" xml:space="preserve">
<style type="text/css">
	.st0{fill:#0C0C11;}
	.st1{fill:#FFB608;}
	.st2{fill:#002663;}
	.st3{opacity:0.55;}
	.st4{fill:url(#SVGID_1_);}
</style>
<g id="Layer_1">
	<path class="st0" d="M-238.6-885.5c-0.7-0.1-1.8,0-2.5,0c0.5-0.4,1.2-0.7,1.6-0.5c0.1,0,0.1,0,0.2,0.1
		C-239.1-885.8-238.8-885.6-238.6-885.5z"/>
	<g id="text835">
	</g>
</g>
<g id="Layer_2">
	<g>
		<path class="st1" d="M269.9,49.8h14.2l-13.3,29.1h-14.2L269.9,49.8z"/>
		<path class="st1" d="M309.9,66.1l6.2,12.8H300l-3.7-12l-0.1,0.1l-5.4,12h-14.3l13.3-29.1h22.1c8.3,0,12.1,1.9,9.2,9.4
			C318.7,64.7,314.6,65.7,309.9,66.1L309.9,66.1 M298.1,62.6h3c2.6,0,4.2-1.4,4.9-3.1c1-2.1-0.4-2.7-2.6-2.7h-2.6L298.1,62.6z"/>
		<path class="st1" d="M235.1,50h21.4l-2.8,29h-15.9l0.9-4.1h-8.7l-3.1,4.1h-16.1L235.1,50z M234.4,68.2h5.8l2.3-10.9h-0.1
			L234.4,68.2z"/>
		<g>
			<path class="st2" d="M115.9,72.5h-13.8l10.6-22.8h-11.5h-3.7H58.3l-3.5,7.1h11.8L56,79.6h15.1l10.6-22.9h12.5L83.7,79.6h26.2
				l-0.1,0.1h16.6l3.1-4.2h9l-0.9,4.2h16.5l2.8-29.8h-22.1L115.9,72.5z M142.6,57.4l-2.4,11.2h-6l8.1-11.2H142.6z"/>
			<path class="st2" d="M188.3,58.5c0,0,0-0.1,0-0.1h0V58.5z"/>
			<path class="st2" d="M203.7,58.3c3.4-7.7-3.9-9.4-15.9-9.4c-14.2,0-20.7,3.3-23.6,9.8c-5.1,11.6,19.4,7.4,17.1,12.5
				c-0.4,1-2.1,2.2-4.6,2.2c-1.3,0-2.1-0.2-2.4-0.8c-0.3-0.5-0.2-1.3,0.2-2.1h-16.3c-3.6,8.1,8.1,9.4,16.3,9.4c15,0,22-3.6,25-10.6
				c5.4-12.3-20.3-6.2-17.9-11.5c0.7-1.7,2-2.5,4.3-2.5c1.1,0,1.9,0.3,2.2,0.8c0.3,0.5,0.3,1.3,0,2.1H203.7z"/>
			<path class="st2" d="M0,79.5h18.5l3.6-4.9h10l-1,4.9h18.3l3.4-34.4H28.2L0,79.5z M36.6,53.9l-2.7,12.9h-6.6l9.2-12.9H36.6z"/>
		</g>
		<g>
			<path class="st2" d="M468.1,1.5c-0.4-1.1-1.6-1.4-2.1-1.4l-25.8,0.1c0,0-3.2-0.3-5.9,1.9c-0.4,0.3-97.4,77.1-97.4,77.1H435
				L467.5,4C467.5,4,468.4,2.4,468.1,1.5z"/>
		</g>
		<g>
			<path class="st1" d="M380.8,44.3c0.7,0.8,1,1.6,1.3,1.7c0.7,0.4,1.3,0.2,1.7,0.2c0.4,0.1,0.7,0.3,1.3,0.8
				c0.4,0.4,0.9,0.8,1.4,1.5c0.7,1,1.7,1.5,3.1,2.2c1,0.5,1.4,0.5,2,0.6c0.3,0,0.6,0.1,1.1,0.2c0.4,0.1,0.7,0.4,1,0.7
				c0.4,0.4,0.9,1,2,1.5c0.7,0.4,1.2,0.5,1.6,0.6c0.4,0.1,0.6,0.2,0.9,0.4c0.4,0.3,0.7,0.7,0.9,1.1c0.2,0.4,0.5,0.8,0.8,1
				c0.8,0.5,1.6,0.6,1.8,0.6l0,0c0,1.3,0.7,2.1,1.8,2.1l0,0c0.1,1.1,0.5,1.3,1,1.4c-0.1,0.4,0.1,0.7,0.2,0.8
				c0.1,0.2,0.2,0.2,0.4,0.3v0.1c-0.1,0.5-0.1,1,0.2,1.2c0.1,0.2,0.4,0.2,0.6,0.2l0,0l0,0c0.1,0.2,0.2,0.4,0.4,0.5
				c0.7,1,1.4,2.1,1.4,3.7c-0.1,1.5-0.5,2.5-0.8,3.4c-0.4,0.8-0.7,1.6-0.8,2.8c-0.1,0.8,0.2,1.7,0.4,2.4c0,0.1,0,0.1,0,0.1
				c-0.8-0.9-1.3-2.8-1.3-5.6c0-1.8,0.3-4,0.8-6.2c0-0.1,0-0.1,0-0.1c0.1-0.4-0.1-0.7-0.3-0.8s-0.6,0-0.9,0.4
				c-0.3,0.4-1.8,3.7-1.9,7.5c0,3.1,1,6.1,2.4,7.2h3c0.4-0.4,0.8-1,0.8-1.1l0,0c0.2-0.4,0.2-1.6,0.2-1.7c0-0.2,0.5-2.4,0.7-2.7
				c0.4-0.8,1-2.4,1.3-3.6c0,0.1,0.1,0.2,0.1,0.2c0.2,0.7,0.5,2.4,0.6,3c0.1,0.2,0.1,0.9,0.6,0.9c0.4,0,0.6-0.6,0.7-0.9
				c0.2-0.9,0.1-3.5-0.1-4.5c-0.1-0.3-0.2-0.6-0.3-0.9c-0.2-0.6-0.6-1.4-0.6-3.1c0-1,0.2-2.2,0.4-3c0.1-0.4,0.1-0.6,0.1-0.8
				c0.1-0.5-0.1-0.9-0.2-1.2c0.2,0,0.4,0,0.4,0c0.1-0.1,0.2-0.1,0.2-0.1c0.1,0,0.1-0.1,0.2-0.1c0.1,0.1,0.1,0.4,0.1,0.7
				c0,0.1,0,0.1,0,0.2c-0.1,0.3-0.1,0.7,0,1.3c0.1,0.3,0.2,0.5,0.4,0.8c0.1,0.2,0.3,0.5,0.3,0.7l0,0l0,0c0.3,1.6-0.4,8.6-0.6,9.7
				c-0.1,0.4-0.2,0.8-0.2,1.1c-0.1,0.5-0.1,0.9-0.2,1.2c-0.1,0.1-0.2,0.4-0.4,0.6c-0.5,0.7-1.3,1.8-1.3,2.7c0,0.2,0.2,0.6,0.3,0.8
				h5.6c0.1-0.1,0.3-0.4,0.4-0.5c0.1-0.2,0.2-0.8-0.5-1.3c-0.2-0.2-0.5-0.4-0.8-0.5c-0.5-0.2-1-0.5-1-0.8c0-0.2,0.2-0.6,0.4-0.8
				c0.2-0.3,0.4-0.6,0.4-1c0-0.1,0-0.3-0.1-0.5c-0.1-0.1-0.1-0.2-0.2-0.2c-0.1-0.1-0.1-0.1-0.1-0.4c0-0.1,0.1-0.3,0.2-0.6
				c0.5-1.4,1.9-5.2,2.2-10.2c0.1-1.3-0.2-2.6-0.7-3.7c0.1,0.1,0.2,0.2,0.3,0.2c0.2,0,0.4-0.1,0.5-0.2c0.8-0.8,1.1-1.8,1.3-2.8
				c0.1-0.2,0.1-0.4,0.2-0.7c0.1-0.1,0.3-0.1,0.5-0.2c0.5-0.1,1.1-0.4,1.9-0.8c0.7-0.4,1.4-1.3,2-1.9c0.4-0.5,0.8-1,1-1
				s0.4,0,0.7,0.1c0.3,0.1,0.7,0.2,1.1,0.1c1.8-0.2,4.5-2.7,6.5-4.4c0.7-0.6,1.1-1.3,1.5-1.6c0.8-0.6,1.7-0.4,2.1-0.5
				c0.2-0.1,0.8-0.1,1-0.3c0.4-0.5,1.3-2.6,3.4-4C453.6,31.1,462,16.5,463,0H461c0.1,0.2,0.2,0.5,0.2,0.7c-0.4,6.5-2,12.6-4.6,18.2
				c-0.8-3.1-5-5.9-11.6-8.2c0.6-3.4,1-7.1,1.1-10.7h-3.6c-0.1,3.4-0.4,6.6-0.8,9.7c-4-1.1-8.7-2.1-13.9-2.8
				c-0.9,0.7-1.9,1.5-2.9,2.3c6.2,0.6,11.8,1.6,16.4,2.7c-1,5.5-2.4,10.4-4.3,14.8c-4.3-1.4-9.8-2.5-16.1-3.1
				c0.7-3.9,1.2-8.1,1.6-12.5c-1.4,1.1-2.8,2.2-4.4,3.4c-0.2,3-0.5,6-0.8,8.7c-2.7-0.2-5.6-0.3-8.5-0.3c-0.5,0-0.9,0-1.4,0
				c-0.9,0.7-1.8,1.4-2.7,2.2c1.3-0.1,2.7-0.1,4-0.1c2.8,0,5.6,0.1,8.3,0.2c-0.5,4.5-1.2,8.6-2,12.1c-2.1-0.2-4.3-0.3-6.5-0.3
				c-2.3,0-4.6,0.1-6.7,0.3c-0.5-2.7-1.1-5.6-1.6-8.8c-0.9,0.7-1.9,1.5-2.8,2.2c0.6,2.5,1.2,4.8,1.9,6.9c-4.5,0.6-8.2,1.6-10.7,2.9
				c-0.5-0.5-1-1.1-1.4-1.6c-0.5,0.4-1,0.8-1.4,1.1c0.5,0.5,0.9,1,1.4,1.4c-1.1,0.8-1.7,1.7-1.7,2.6c0,0.1,0.1,0.3,0.1,0.5
				c-1.1-0.5-2.2-1.1-3.3-1.7C381.7,43.5,381.2,43.9,380.8,44.3z M410.3,58.8c-0.5,0.1,0.5,0.4,0.4,1.1c-0.1,0.5-0.5,0.7-1,0.7
				c-0.5,0,0.1,0.3,0.3,0.6c0.2,0.4-0.3,0.8-0.9,0.8c-0.4,0-1.3,0.1-2,0c-0.7-0.1-0.5-0.4-0.2-0.5c0.4-0.1,0.9-0.2,1.4-0.4
				c0.7-0.3,0.3-0.5,0.1-0.5c-0.3-0.1-0.8-0.1-1.7-0.3c-0.5-0.1-0.7-0.5-0.5-0.8c0.1-0.2,0.3-0.2,0.5-0.2c0.4,0,1.6-0.1,2.1-0.2
				c0.5-0.1,0.7-0.6,0-0.7c-0.6-0.1-1.7,0-2.8-0.1c-1.1-0.1-1.8-0.5-2.5-1.3c-0.7-0.8-0.8-2.5-1.4-3.4c-0.5-0.8-1.4-1-1.8-1
				c-0.4-0.1-0.7,0.1-0.9,0.2c-0.2,0.1-0.2,0.2,0,0.3c0.6,0.3,0.7,1.3,0.6,1.3c-1.3-1.2-3.3-1.9-4-2.1c-0.7-0.2-1.4-0.8-1.7-1
				c-0.3-0.2-1.6-1-2.1-1c-2,0.1-2.6-0.7-3.2-1.7c-0.3-0.5,0.4-0.3,0.6-0.2c0.6,0.3,1.9,1.2,3.4,1.6c1.6,0.5,2.1,0.3,3.3,0.8
				c0.8,0.3,1.5,1.3,2.4,1.3c1.1-0.1,1.1-0.6,2.7-0.8c0.3-0.1,1.3,0,1.6,0.1c0.7,0.2,0.7,0.3,1.1,0.3c0.5,0,1-0.4,1.3-0.4
				s0.5,0.2,0.5,0.4c0,0.2-0.1,0.9-0.1,1.2c0.1,1.1,0.4,1.5,1.1,1.9c0.8,0.5,1.4,0.7,2.4,0.8v0.7c-0.5,0-1.1-0.2-1.5-0.2
				c-0.2-0.1-0.2,0-0.3,0.1c0,0.1-0.1,0.4,0.1,0.4c0.3,0.1,0.8,0.2,1,0.3c0.2,0.1,0.5,0.6,0.8,0.8c0.2,0.2,0.5,0.1,0.4-0.2
				c0-0.3,0.2-0.5,0.6-0.6c0.8,0,1.5,0.1,1.5,1C412.1,58.7,411.2,58.7,410.3,58.8z M423.3,49.8c-0.9,0-1.9,0.3-2.6,0.8
				c-0.1,0.1-0.1,0.1-0.2,0.2c-0.3,0.2-0.4,0.1-0.4,0c0-0.1-0.2-0.3-0.5,0.1c-1.1,1.9-1.9,2.4-3.1,2.8c-0.2,0.1-0.4,0.1-0.3-0.1
				c0.1-0.2,0.2-0.8,0.2-1.4c0-0.7-0.2-1.2-0.3-1.3c-0.1-0.1-0.2-0.2-0.1-0.3c0.5-0.2,1.6-0.7,2.6-0.7c0.7,0,0.8,0.4,1,0.5
				c0.2,0.1,0.3-0.1,0.4-0.2c0.2-0.3,0.5-0.6,1.2-0.7c0.5-0.1,1.4,0,1.9,0.2C423.5,49.7,423.5,49.8,423.3,49.8z M444.5,13
				c6.8,2.1,10.9,4.8,10.9,7.6c0,0.4-0.1,0.7-0.2,1.1c-2.4,4.4-5.2,8.5-8.7,12.1c-0.2-2.2-2.8-4.2-7.1-6
				C441.7,23.3,443.4,18.4,444.5,13z M438.7,29.3c4,1.4,6.4,3.2,6.4,4.9c0,1.2-0.2,1.3-2.6,3.4l0,0c-3.4,2.8-7.1,5.3-11.2,7.2
				c0-0.1,0.1-0.3,0.1-0.4c0-1-0.7-2-2.1-2.9C432.9,38.1,436.1,34,438.7,29.3z M420.5,25.8c6.2,0.5,11.6,1.5,15.7,2.7
				c-2.3,4.8-5.1,8.9-8.2,12.3c-2.5-1.3-6.2-2.3-10.6-2.8C418.6,34.4,419.6,30.3,420.5,25.8z M387.9,42.4c1.9,1.7,3.9,3.1,5.9,4.3
				c0.6,0.4,1.7,0.9,2.2,0.7c0.3-0.1-0.7-0.9-1.1-1.2c-1.9-1.3-3.7-2.8-5.5-4.6c2.4-1,6-1.7,10.4-2.2c0.9,2.5,1.9,4.6,2.9,6.3
				c0.4,0.6,1.1,1.6,1.6,1.7c0.3,0.1-0.1-1.1-0.3-1.6c-0.7-1.8-1.3-4-1.9-6.6c2-0.1,4.1-0.2,6.3-0.2c2.1,0,4.2,0.1,6.2,0.2
				c-0.6,2.6-1.3,4.8-1.9,6.6c-0.2,0.5-0.6,1.7-0.3,1.6c0.5-0.1,1.3-1.1,1.6-1.7c1-1.7,1.9-3.9,2.8-6.3c4.3,0.4,8,1.2,10.3,2.2
				c-1.7,1.7-3.6,3.3-5.5,4.6c-0.5,0.3-1.4,1.1-1.1,1.2c0.5,0.1,1.6-0.5,2.2-0.8c2.1-1.3,4-2.8,5.9-4.4c1.1,0.7,1.8,1.3,1.8,2.1
				c0,0.4,0,0.8-0.2,1.1c-3.1,1.4-6.3,2.5-9.7,3.3c-0.2-0.4-0.8-0.7-1.7-0.7c-1.5,0-3.3,1.6-3.6,1.9c-0.4-0.5-1.1-1.1-2.2-0.7
				l-0.3,0.1l0.1,0.3c0.1,0.1,0.1,0.4,0.2,0.7c-0.4-1-1-1.8-1.9-2.1c-0.9-0.2-1.9-0.3-3.1-0.1c-0.5,0.1-1.3,0.6-1.6,1
				c-0.1-0.1-0.4-0.1-0.6-0.1c-0.7,0-1.3,0.6-1.6,1c-0.1,0.1-0.1,0.1-0.1,0.1s-0.1-0.1-0.2-0.2c0,0-0.4-0.7-1.3-1
				c-0.7-0.2-1.3-0.2-1.9-0.2c-0.4,0-0.6,0.1-0.9,0.2c-0.4,0.1-0.8,0.2-1.4,0.2c-0.6,0-0.9-0.1-1.3-0.2c-3.7-0.8-7.2-1.9-10.6-3.4
				c-0.4-0.4-0.4-0.7-0.4-1.1C386.4,43.6,387,43,387.9,42.4z"/>
		</g>
		<g class="st3">
			
				<linearGradient id="SVGID_1_" gradientUnits="userSpaceOnUse" x1="392.6582" y1="53.7117" x2="435.0916" y2="2.0274" gradientTransform="matrix(1 0 0 -1 0 82)">
				<stop  offset="0" style="stop-color:#FFFFFF;stop-opacity:0.1"/>
				<stop  offset="0.1063" style="stop-color:#FFFFFF;stop-opacity:0.3"/>
				<stop  offset="0.167" style="stop-color:#FFFFFF;stop-opacity:0.9"/>
				<stop  offset="0.2296" style="stop-color:#FFFFFF;stop-opacity:0.7081"/>
				<stop  offset="0.542" style="stop-color:#FFFFFF;stop-opacity:6.303331e-02"/>
				<stop  offset="0.9997" style="stop-color:#FFFFFF;stop-opacity:0"/>
			</linearGradient>
			<path class="st4" d="M468.1,1.5c-0.4-1.1-1.6-1.4-2.1-1.4l-25.8,0.1c0,0-3.2-0.3-5.9,1.9c-0.4,0.3-97.4,77.1-97.4,77.1H435
				L467.5,4C467.5,4,468.4,2.4,468.1,1.5z"/>
		</g>
	</g>
</g>
</svg>
