<?xml version="1.0" encoding="utf-8"?>
<!-- Generator: Adobe Illustrator 25.4.1, SVG Export Plug-In . SVG Version: 6.00 Build 0)  -->
<svg version="1.1" id="Layer_1" xmlns="http://www.w3.org/2000/svg" xmlns:xlink="http://www.w3.org/1999/xlink" x="0px" y="0px"
	 viewBox="0 0 112.3 80" style="enable-background:new 0 0 112.3 80;" xml:space="preserve">
<style type="text/css">
	.st0{fill:#991A1C;}
	.st1{fill:#0F2E5B;}
	.st2{fill:#0A0A02;}
</style>
<g>
	<polygon class="st0" points="26.7,46.6 39.1,40.8 48.8,12.3 56.4,31.3 65.4,25.3 56.5,2 42.4,2 	"/>
	<polygon class="st1" points="14.2,80 25.2,80 32.6,58.1 20.1,63.1 	"/>
	<polygon class="st1" points="61,45 73.9,80 85.1,80 70.1,39.3 	"/>
	<path class="st2" d="M78.5,19l-0.9,0.8l4.3,3.1l1.2,5l1.1-0.8l0.5-5.8l3.3-2.1l1.7,1.6l1.2-0.1l3.8-2.6L94,16.5l2.7-1.7l5.8,12.2
		l1.1-1.1l-1.3-15.4l8.9-6.9c0,0,1.8-1.3,0.9-2.8s-3.3,0-3.3,0l-9.1,5.8l-14-5.6l-2,1.1l10.4,8.9l-2.3,1.9l-1.6-1L86,15.3l0,0.7
		l0.4,1.9l-2.7,2.3L78.5,19z"/>
	<path class="st2" d="M2.1,61.5c0,0-5.5,3.5,1.4,2.6C51.4,49.4,77,28.5,77,28.5l-1.3-3.8c0,0-16.5,10.1-24.2,14.6
		C44.8,43.3,15.9,56.2,2.1,61.5L2.1,61.5z"/>
</g>
</svg>
