<?xml version="1.0" encoding="utf-8"?>
<!-- Generator: Adobe Illustrator 25.4.1, SVG Export Plug-In . SVG Version: 6.00 Build 0)  -->
<svg version="1.1" id="Layer_1" xmlns="http://www.w3.org/2000/svg" xmlns:xlink="http://www.w3.org/1999/xlink" x="0px" y="0px"
	 viewBox="0 0 246.1 80" style="enable-background:new 0 0 246.1 80;" xml:space="preserve">
<style type="text/css">
	.st0{fill:#991A1C;}
	.st1{fill:#0F2E5B;}
	.st2{fill:#0A0A02;}
</style>
<g>
	<path class="st0" d="M68.1,75.4c0,0,5.7-2.5,7.4-3.9v-8.8c0,0-7,8-17.2,8S40,63.7,40,49.6S50,30,57.1,30s13.6,2.2,18.4,8v-8.9
		c0,0-4.5-4.9-18.3-4.9s-24.1,9.6-24.1,26.1s9.6,23.2,17.2,25.1H68.1z"/>
	<path class="st0" d="M107.2,59.9c0,0,2.7-18.2-13.6-18.2C77.4,41.7,77,57.2,77,59.2c0,2-0.1,10.4,8,14.9l21.7-2.7v-4.2
		c0,0-5.5,4.2-11.8,4.2s-12.3-4.6-12-11.5H107.2z M93.1,46.3c9.1,0,8.7,8.7,8.7,8.7H83C83,55.1,84,46.3,93.1,46.3z"/>
	<path class="st0" d="M149.4,41.1c-9.7,0-12.4,5.2-12.4,5.2s-1.6-5.2-8.3-5.2c-4.1,0-8.4,2.3-11.1,4v-3h-6.2v28.8l6.2-1.2V51
		c0,0,3.9-4.2,9.9-4.2c4.2,0,5.1,3.7,5.2,6v13l6.2-1.4V51c0,0,3.8-4.2,8.9-4.2c5.1,0,6,3.3,6,6.1s0,7.2,0,7.2l6.1-2.2v-8.1
		C160,49.8,159.1,41.1,149.4,41.1z"/>
	<polygon class="st0" points="170,53.5 178.1,49.8 184.4,31.4 189.2,43.7 195.1,39.8 189.3,24.7 180.2,24.7 	"/>
	<polygon class="st1" points="132.8,75.1 139,75.1 139,72.3 132.8,74.1 	"/>
	<polygon class="st1" points="153.8,75.1 160,75.1 160,66.3 153.8,68.4 	"/>
	<polygon class="st1" points="162,75.1 169.1,75.1 173.8,61 165.8,64.2 	"/>
	<polygon class="st1" points="192.2,52.5 200.5,75.1 207.8,75.1 198.1,48.8 	"/>
	<rect x="210.2" y="47.3" class="st1" width="5.4" height="27.8"/>
	<path class="st1" d="M240.7,37.7c-3.4,0-8.8,3.6-11.3,5.5V38h-6.2v37.1h6.2V49.3c0,0,4.7-5.3,10.6-5.3c5.9,0,6.1,1.1,6.1,1.1v-6.3
		C246.1,38.7,245.4,37.7,240.7,37.7z"/>
	<path class="st2" d="M203.5,35.7l-0.6,0.5l2.8,2l0.8,3.3l0.7-0.5l0.3-3.7l2.1-1.3l1.1,1l0.8-0.1l2.5-1.7l-0.4-1.1l1.7-1.1l3.7,7.9
		l0.7-0.7l-0.8-10l5.7-4.5c0,0,1.2-0.9,0.6-1.8s-2.1,0-2.1,0l-5.9,3.7l-9.1-3.6l-1.3,0.7l6.7,5.7l-1.5,1.2l-1.1-0.6l-2.5,2.3l0,0.4
		l0.3,1.3l-1.7,1.5L203.5,35.7z"/>
	<path class="st2" d="M201.7,39.4l0.9,2.5c0,0-16.9,13.7-48.4,23.2S89,80,37.1,80v-1.4c0,0,13,0.5,31.2-0.6
		c18.2-1,33.3-2.7,40.7-3.9c7.4-1.2,35.5-7.6,42.3-9.9c6.9-2.3,29.9-12.5,34.8-15.4C191,45.9,201.7,39.4,201.7,39.4z"/>
	<path class="st2" d="M58.6,7.7l-0.5,0.1c0.2,1.4,0.2,2.8,0,4.3c-0.2,1.7-0.3,3.6-1.1,5.1c-0.7,0.8-1.4,1.7-2.1,2.5
		c-0.1-1.3-0.4-2.7-0.7-4c-0.7-3.5-0.9-8-1.4-11.6l-2.5,1.7c0.2,1.2,0.4,2.3,0.5,3.4c0,0,0,0,0,0c0,2.2-0.1,6.1-0.5,8.3
		c-0.2,0.9-0.4,2.2-0.9,2.9c-1.1,1.3-2.4,0.3-2.8-1c-0.7-3.5-0.3-7.9,0-11.4l-2.5,1.3c0,2.2,0,3.8,0.2,6c0.1,0.6,0.1,1.1,0.2,1.7
		c-0.1,1.7-0.3,3.3-0.6,5c-0.2,0.7-0.2,1.6-0.7,2.1c-1.5,1.5-2.7,1.1-3.5-1.1c-0.6-1.4-0.9-2.9-1.2-4.4c2.3-4.1,2.4-9.1,1.9-13.7
		c-0.2-1.3-0.4-2.4-1-3.6c-0.2-0.3-0.4-0.7-0.9-1c-1.4-0.8-2.7,0.8-2.9,2.1c-0.2,1-0.3,1.9-0.3,2.9c-0.8,0.3-1.6,0.6-2.5,0.8
		c-2.2,0.4-4.4,0.5-6.6,0.5c0.4-0.9,1.2-1.7,2.2-1.5c0,0,0.2-0.5,0.2-0.5c-0.9-0.3-1.8,0.1-2.4,0.7c-0.4,0.4-0.6,0.8-0.8,1.3
		c-2.6,0-5.3,0-7.9,0.5c-5.3,0.6-10.9,3.5-13.1,8.7c-1,2.6-1.5,5.8-0.1,8.4c1.2,2,3.8,3,6,2.3c3.5-1,5.7-4.7,4.8-8.2
		c0,0-0.5,0.1-0.5,0.1c0.1,1.2-0.2,2.5-0.7,3.5c-1,2-3.3,3.4-5.5,3c-4.9-1.3-2.7-8.5-0.2-11.2C12.5,9,19.1,8.4,25.1,8.1
		c-0.1,1.3-0.1,2.7-0.1,4c0,2.6,0.3,5.1,0.6,7.7c-0.2,0.1-0.4,0.2-0.6,0.3c-2.9,1.3-6.8,3.5-6.3,7.3c0,0,0.5,0,0.5,0
		c0.6-3.3,3.4-5,6.2-6.3c0.1,0,0.2-0.1,0.3-0.1c0,0.1,0,0.3,0,0.4c0.2,3,0.3,6.1,0.3,9.1c0,2.9-1.3,5.7-2.7,8.2
		c-2.8,5-8.8,8.4-14.5,7.4c-6.5-1.4-9.5-7-6.9-13.1l-0.5-0.2c-0.8,1.4-1.2,2.9-1.4,4.5c-0.6,5.1,3.6,9.4,8.4,10.4
		c6.4,1.2,13.1-2.5,16.3-8c1.6-2.7,3-5.8,2.9-9c0-3.1-0.2-6.2-0.5-9.2c0-0.3-0.1-0.6-0.1-0.9c2.4-1.1,4.9-2.3,6.9-4.1l-0.3-0.4
		c-2.1,1.5-4.4,2.4-6.7,3.5c-0.5-3.7-1.1-7.4-1-11.1c3.1-0.2,6.5-0.5,9.4-1.8c0,1.1,0.1,2.2,0.2,3.3c0.2,2.4,0.4,4.7,0.9,7.1
		c0.6,2.6,1.5,8.7,4.4,9.6c1.5,0.4,2.9-0.6,3.7-1.8c0.4-0.8,0.4-1.6,0.5-2.4c0.1-0.8,0.1-1.6,0.1-2.3c0.3,0.8,0.8,1.6,1.6,2.1
		c1.4,1,3.5,0.4,4.1-1.2c0.4-0.9,0.5-2,0.6-3c0.2-1.4,0.3-2.9,0.3-4.3c0,0.2,0.1,0.4,0.1,0.6c0.5,2.5,1.2,4.9,1.4,7.5
		c-0.4,0.4-0.9,0.8-1.3,1.2c-1.1,0.9-2.2,1.9-3.2,3c-1.5,1.6-3.2,3.3-3.9,5.4c-0.6,1.8-0.9,4.6,1,5.8c3.7,1.6,6.8-2.7,8.1-5.6
		c0.6-1.3,0.9-3,1-4.5c0.2-1.9,0.2-3.9,0.1-5.9c0.2-0.2,0.4-0.4,0.6-0.7c0.7-0.9,1.4-1.6,2.1-2.6c0.5-1,0.7-2.1,0.9-3.3
		C58.9,12.1,59,9.9,58.6,7.7z M37.8,1.7C37.8,1.8,37.9,1.9,38,2c0.2,0.3,0.3,0.7,0.5,1.2c-0.3,0.5-0.8,0.8-1.3,1.2
		c0-0.5,0.1-1.1,0.2-1.6C37.4,2.3,37.6,1.8,37.8,1.7z M37.1,5.3c0.4-0.3,0.9-0.6,1.3-1c0.1-0.1,0.2-0.2,0.3-0.4
		c0.1,0.4,0.2,0.8,0.3,1.2c0.6,4.1,0.9,8.6-0.6,12.5c-0.1-0.4-0.1-0.8-0.2-1.2c-0.4-2.3-0.6-4.6-0.8-6.9C37.2,8.1,37.1,6.7,37.1,5.3
		z M53,28.6c-0.4,1.9-1.4,3.9-2.7,5.4c-1.1,1.3-3.2,2.6-4.4,1.1c-0.8-1.7-0.2-4,0.9-5.5c1.6-2.3,3.6-4.4,5.7-6.3
		c0.3-0.2,0.5-0.5,0.8-0.7C53.4,24.6,53.4,26.7,53,28.6z"/>
</g>
</svg>
