<?xml version="1.0" encoding="utf-8"?>
<!-- Generator: Adobe Illustrator 25.4.1, SVG Export Plug-In . SVG Version: 6.00 Build 0)  -->
<svg version="1.1" id="Layer_1" xmlns="http://www.w3.org/2000/svg" xmlns:xlink="http://www.w3.org/1999/xlink" x="0px" y="0px"
	 viewBox="0 0 100 80" style="enable-background:new 0 0 100 80;" xml:space="preserve">
<style type="text/css">
	.st0{fill:#D51317;}
</style>
<g>
	<path class="st0" d="M4.75,22.29h23.77c2.33,0,4.08,0.74,4.78,4.05c0.77,3.68,0.45,6.24-3.69,6.54l-7.46,0.53
		c5.49,34.71,37.61,46.02,55.09,8.64c2.89-6.19,3.84-7.32,7.01-6.53c4.3,1.06,4.89,3.28,2.84,9.51
		c-15.12,46.08-65.93,50.7-75.9-10.84l-6.06,0.44C0.2,34.98,0,30.82,0,28.5C0,23.93,1.7,22.29,4.75,22.29"/>
	<path class="st0" d="M91.18,0C96.05,0,100,3.95,100,8.82s-3.95,8.82-8.82,8.82c-4.87,0-8.82-3.95-8.82-8.82S86.31,0,91.18,0"/>
</g>
</svg>
