<?xml version="1.0" encoding="utf-8"?>
<!-- Generator: Adobe Illustrator 25.4.1, SVG Export Plug-In . SVG Version: 6.00 Build 0)  -->
<svg version="1.1" id="Layer_1" xmlns="http://www.w3.org/2000/svg" xmlns:xlink="http://www.w3.org/1999/xlink" x="0px" y="0px"
	 viewBox="0 0 212.35 80" style="enable-background:new 0 0 212.35 80;" xml:space="preserve">
<style type="text/css">
	.st0{fill:#D51317;}
	.st1{fill:#7AB3E2;}
</style>
<g>
	<path d="M111.87,79.75c-0.13,0.1-0.39,0.17-0.88,0.17c-0.7,0-0.91-0.14-1.11-0.45l-3.35-5.56v5.41c0,0.24-0.04,0.34-0.17,0.43
		c-0.13,0.1-0.42,0.17-0.91,0.17c-0.51,0-0.81-0.06-0.94-0.17c-0.12-0.09-0.17-0.2-0.17-0.43V71.2l-0.24-0.42
		c-0.09-0.16-0.23-0.34-0.23-0.54c0-0.12,0.04-0.23,0.17-0.31c0.13-0.1,0.52-0.17,1.03-0.17c0.6,0,1,0.06,1.21,0.4l3.56,5.89v-5.69
		c0-0.24,0.04-0.35,0.16-0.43c0.13-0.1,0.44-0.17,0.94-0.17c0.49,0,0.78,0.06,0.91,0.17c0.12,0.09,0.17,0.19,0.17,0.43v8.95
		C112.04,79.55,111.99,79.66,111.87,79.75"/>
	<path d="M117.49,80c-2.02,0-3.46-1.38-3.46-3.41c0-2.03,1.44-3.42,3.46-3.42c2.01,0,3.44,1.39,3.44,3.42
		C120.93,78.62,119.49,80,117.49,80 M117.49,74.89c-0.84,0-1.3,0.66-1.3,1.69c0,1.01,0.46,1.69,1.3,1.69c0.84,0,1.29-0.66,1.29-1.69
		C118.77,75.57,118.33,74.89,117.49,74.89"/>
	<path d="M127.31,74.67c-0.12,0.25-0.31,0.52-0.55,0.52c-0.17,0-0.29-0.04-0.42-0.1c-0.15-0.06-0.29-0.1-0.45-0.1
		c-0.34,0-0.53,0.09-0.72,0.3c-0.21,0.23-0.36,0.53-0.36,1.05v2.98c0,0.24-0.04,0.34-0.16,0.43c-0.12,0.1-0.42,0.17-0.9,0.17
		c-0.49,0-0.78-0.06-0.9-0.17c-0.12-0.09-0.16-0.19-0.16-0.43v-5.11c0-0.3,0.03-0.47,0.16-0.6c0.12-0.12,0.42-0.21,0.69-0.27
		c0.23-0.04,0.57-0.1,0.75-0.1c0.14,0,0.29,0.03,0.36,0.09c0.12,0.1,0.12,0.19,0.12,0.51v0.23c0.17-0.29,0.66-0.82,1.39-0.82
		c0.4,0,0.63,0.06,0.93,0.19c0.31,0.13,0.47,0.33,0.47,0.5C127.55,74.18,127.43,74.41,127.31,74.67"/>
	<path d="M135.02,79.75c-0.12,0.1-0.36,0.17-0.85,0.17c-0.48,0-0.72-0.06-0.84-0.17c-0.12-0.09-0.17-0.19-0.17-0.43V79.1
		c-0.24,0.42-0.9,0.9-1.89,0.9c-0.69,0-1.42-0.28-1.92-0.79c-0.58-0.6-0.88-1.5-0.88-2.62c0-2.13,1.17-3.42,2.8-3.42
		c0.97,0,1.54,0.44,1.78,0.77v-3.21c0-0.3,0.03-0.46,0.16-0.6c0.12-0.12,0.45-0.21,0.72-0.27c0.22-0.05,0.58-0.1,0.76-0.1
		c0.13,0,0.29,0.03,0.36,0.09c0.12,0.1,0.12,0.19,0.12,0.51v8.95C135.19,79.55,135.14,79.66,135.02,79.75 M131.91,75.01
		c-0.81,0-1.24,0.64-1.24,1.53c0,0.97,0.49,1.62,1.24,1.62c0.73,0,1.23-0.59,1.23-1.62C133.13,75.64,132.64,75.01,131.91,75.01"/>
	<path d="M138.35,72.38c-0.67,0-1.21-0.5-1.21-1.12c0-0.61,0.54-1.14,1.21-1.14c0.66,0,1.21,0.51,1.21,1.14S139,72.38,138.35,72.38
		 M139.24,79.75c-0.12,0.1-0.42,0.17-0.9,0.17c-0.49,0-0.78-0.06-0.9-0.17c-0.12-0.09-0.17-0.2-0.17-0.43V74.2
		c0-0.3,0.03-0.46,0.17-0.6c0.12-0.12,0.45-0.21,0.72-0.27c0.23-0.05,0.59-0.1,0.76-0.1c0.13,0,0.29,0.03,0.36,0.09
		c0.12,0.1,0.12,0.19,0.12,0.51v5.48C139.41,79.55,139.36,79.66,139.24,79.75"/>
	<path d="M146.51,79.36c-0.39,0.3-1.23,0.64-2.05,0.64c-1.77,0-3.29-1.15-3.29-3.41c0-1.95,1.36-3.42,3.26-3.42
		c0.97,0,1.51,0.22,1.96,0.45c0.36,0.18,0.44,0.33,0.44,0.51c0,0.2-0.06,0.39-0.21,0.69c-0.15,0.33-0.33,0.54-0.57,0.54
		c-0.24,0-0.31-0.11-0.57-0.21c-0.29-0.11-0.54-0.19-0.88-0.19c-0.7,0-1.27,0.61-1.27,1.63c0,1.03,0.59,1.57,1.23,1.57
		c0.27,0,0.59-0.07,0.82-0.19c0.24-0.11,0.34-0.23,0.6-0.23c0.23,0,0.4,0.15,0.6,0.45c0.17,0.26,0.29,0.49,0.29,0.69
		C146.85,79.04,146.76,79.18,146.51,79.36"/>
	<path class="st0" d="M144.05,59.69c-0.36,0.3-0.85,0.57-1.38,0.82c-0.88,0.44-1.84,0.89-2.71,0.89c-0.6,0-1.03-0.16-1.36-0.44
		c-0.16-0.12-0.27-0.26-0.36-0.38c-0.07-0.1-0.14-0.2-0.21-0.29c-0.23-0.29-0.45-0.72-0.68-1.25c-1.39,1.36-3.86,2.52-7.46,2.52
		c-3.04,0-5.45-0.78-7.18-2.41c-1.68-1.59-2.64-3.88-2.64-7.03V34.09c0-0.76,0.15-1.28,0.7-1.69c0.56-0.43,1.64-0.58,3.02-0.58
		c1.34,0,2.43,0.15,2.99,0.59c0.54,0.41,0.69,0.92,0.69,1.68v17.21c0,2.56,1.05,3.83,4.07,3.83c3.03,0,4.82-1.81,4.82-4.28V34.09
		c0-0.76,0.16-1.28,0.7-1.69c0.56-0.43,1.6-0.58,2.98-0.58c1.34,0,2.43,0.15,2.99,0.59c0.54,0.41,0.69,0.92,0.69,1.68v20.03
		c0,0.66,0.1,1.25,0.23,1.73c0.12,0.46,0.26,0.81,0.34,1.01c0.25,0.5,0.47,0.98,0.47,1.62C144.76,59.01,144.39,59.41,144.05,59.69"
		/>
	<path class="st0" d="M111.06,38.82v20c0,0.76-0.16,1.28-0.7,1.69c-0.56,0.43-1.64,0.58-2.98,0.58c-1.38,0-2.46-0.15-3.03-0.59
		c-0.54-0.41-0.69-0.93-0.69-1.69V39.36l-3.41,0.24c-3.05,0.22-3.17-2.37-3.17-3.81c0-2.85,1.05-3.87,2.94-3.87h14.71
		c1.44,0,2.53,0.46,2.96,2.52c0.48,2.29,0.28,3.89-2.28,4.07L111.06,38.82z"/>
	<path class="st0" d="M157.32,60.57c-0.56,0.43-1.64,0.58-2.98,0.58c-1.38,0-2.47-0.15-3.03-0.58c-0.54-0.41-0.69-0.93-0.69-1.69
		V34.09c0-0.76,0.15-1.28,0.7-1.69c0.57-0.43,1.65-0.58,3.02-0.58c1.34,0,2.43,0.15,2.99,0.59c0.54,0.41,0.69,0.92,0.69,1.68v24.79
		C158.02,59.64,157.87,60.16,157.32,60.57"/>
	<path class="st0" d="M3.91,18.33h19.55c1.91,0,3.36,0.61,3.93,3.33c0.63,3.03,0.37,5.13-3.04,5.37l-6.14,0.44
		c4.52,28.54,30.92,37.84,45.3,7.1c2.38-5.09,3.16-6.02,5.77-5.37c3.54,0.88,4.02,2.69,2.33,7.82C59.18,74.92,17.4,78.72,9.2,28.12
		l-4.99,0.36C0.16,28.76,0,25.34,0,23.44C0,19.68,1.4,18.33,3.91,18.33"/>
	<path class="st0" d="M74.97,0c4.01,0,7.26,3.25,7.26,7.25s-3.25,7.26-7.26,7.26c-4.01,0-7.25-3.25-7.25-7.26S70.97,0,74.97,0"/>
	<path class="st1" d="M180.86,34.29c0-0.52-0.3-0.91-1.34-1.47c-1.21-0.65-3.12-1-4.93-1c-5.49,0-7.96,3.5-7.96,7.79v2.51h-1.13
		c-0.86,0-1.43,0.13-1.73,0.6c-0.39,0.69-0.56,2.04-0.56,2.99c0,0.65,0.09,0.91,0.39,1.08c0.22,0.13,0.52,0.17,1.21,0.17h1.82v12.46
		c0,0.69,0.13,0.99,0.48,1.25c0.35,0.3,1.17,0.48,2.59,0.48c1.38,0,2.25-0.17,2.6-0.48c0.34-0.26,0.48-0.56,0.48-1.25V46.96h3.37
		c0.86,0,1.42-0.13,1.73-0.61c0.39-0.69,0.56-2.03,0.56-2.98c0-0.65-0.09-0.91-0.39-1.08c-0.22-0.13-0.52-0.17-1.21-0.17h-4.07
		v-2.34c0-2.03,0.91-2.77,2.29-2.77s1.82,0.26,2.51,0.48c0.31,0.13,0.65,0.26,1.13,0.26c0.86,0,1.17-0.78,1.6-1.64
		C180.55,35.58,180.86,35.02,180.86,34.29"/>
	<path class="st1" d="M188.85,59.42V33.55c0-0.91,0-1.17-0.35-1.47c-0.22-0.17-0.65-0.26-1.04-0.26c-0.52,0-1.55,0.17-2.2,0.3
		c-0.78,0.17-1.73,0.43-2.08,0.78c-0.39,0.39-0.48,0.87-0.48,1.73v24.79c0,0.69,0.13,1,0.48,1.25c0.35,0.31,1.17,0.48,2.59,0.48
		c1.38,0,2.25-0.17,2.59-0.48C188.72,60.42,188.85,60.11,188.85,59.42"/>
	<path class="st1" d="M212.35,43.33c0-1.13-1.04-1.39-3.25-1.39c-1.69,0-2.46,0.35-2.81,1.13l-4.28,9.34l-4.37-9.26
		c-0.34-0.73-0.95-1.21-3.11-1.21c-2.08,0-3.25,0.39-3.25,1.34c0,0.47,0.26,1.3,0.69,2.16l6.83,13.37l-3.46,7.22
		c-0.43,0.87-0.69,1.52-0.69,2.04c0,1.13,1.17,1.43,3.2,1.43c1.99,0,2.47-0.35,2.85-1.12l10.9-22.97
		C212.04,44.54,212.35,43.85,212.35,43.33"/>
</g>
</svg>
