<?xml version="1.0" encoding="utf-8"?>
<!-- Generator: Adobe Illustrator 25.4.1, SVG Export Plug-In . SVG Version: 6.00 Build 0)  -->
<svg version="1.1" id="Layer_1" xmlns="http://www.w3.org/2000/svg" xmlns:xlink="http://www.w3.org/1999/xlink" x="0px" y="0px"
	 viewBox="0 0 79.78 80" style="enable-background:new 0 0 79.78 80;" xml:space="preserve">
<style type="text/css">
	.st0{fill-rule:evenodd;clip-rule:evenodd;fill:#001B94;}
</style>
<g>
	<path class="st0" d="M65.12,27.76c0,1.8-1.46,3.26-3.26,3.26c-1.8,0-3.26-1.46-3.26-3.26s1.46-3.27,3.26-3.27
		C63.66,24.49,65.12,25.95,65.12,27.76z"/>
	<path class="st0" d="M55.35,17.96c0,1.8-1.46,3.27-3.26,3.27c-1.8,0-3.26-1.46-3.26-3.27c0-1.8,1.46-3.26,3.26-3.26
		C53.9,14.69,55.35,16.16,55.35,17.96z"/>
	<path class="st0" d="M65.12,17.96c0,1.8-1.46,3.27-3.26,3.27c-1.8,0-3.26-1.46-3.26-3.27c0-1.8,1.46-3.26,3.26-3.26
		C63.66,14.69,65.12,16.16,65.12,17.96z"/>
	<path class="st0" d="M45.59,17.96c0,1.8-1.46,3.27-3.26,3.27c-1.8,0-3.26-1.46-3.26-3.27c0-1.8,1.46-3.26,3.26-3.26
		C44.13,14.69,45.59,16.16,45.59,17.96z"/>
	<ellipse class="st0" cx="68.38" cy="9.8" rx="3.26" ry="3.27"/>
	<ellipse class="st0" cx="76.52" cy="3.27" rx="3.26" ry="3.27"/>
	<path class="st0" d="M34.19,17.96c0,1.8-1.46,3.27-3.26,3.27c-1.8,0-3.26-1.46-3.26-3.27c0-1.8,1.46-3.26,3.26-3.26
		C32.73,14.69,34.19,16.16,34.19,17.96z"/>
	<path class="st0" d="M24.42,17.96c0,1.8-1.46,3.27-3.26,3.27c-1.8,0-3.26-1.46-3.26-3.27c0-1.8,1.46-3.26,3.26-3.26
		C22.96,14.69,24.42,16.16,24.42,17.96z"/>
	<path class="st0" d="M61.87,34.29c1.8,0,3.26,1.46,3.26,3.26c0,1.8-1.46,3.27-3.26,3.27c-1.8,0-3.26-1.46-3.26-3.27
		C58.61,35.75,60.07,34.29,61.87,34.29z"/>
	<path class="st0" d="M26.05,66.94c0,1.8-1.46,3.27-3.26,3.27c-1.8,0-3.26-1.46-3.26-3.27c0-1.8,1.46-3.26,3.26-3.26
		C24.59,63.67,26.05,65.14,26.05,66.94z"/>
	<path class="st0" d="M16.28,57.14c0,1.8-1.46,3.26-3.26,3.26c-1.8,0-3.26-1.46-3.26-3.26c0-1.8,1.46-3.27,3.26-3.27
		C14.82,53.88,16.28,55.34,16.28,57.14z"/>
	<path class="st0" d="M26.05,57.14c0,1.8-1.46,3.26-3.26,3.26c-1.8,0-3.26-1.46-3.26-3.26c0-1.8,1.46-3.27,3.26-3.27
		C24.59,53.88,26.05,55.34,26.05,57.14z"/>
	<path class="st0" d="M6.51,57.14c0,1.8-1.46,3.26-3.26,3.26c-1.8,0-3.26-1.46-3.26-3.26c0-1.8,1.46-3.27,3.26-3.27
		C5.05,53.88,6.51,55.34,6.51,57.14z"/>
	<path class="st0" d="M22.79,73.47c1.8,0,3.26,1.46,3.26,3.27c0,1.8-1.46,3.26-3.26,3.26c-1.8,0-3.26-1.46-3.26-3.26
		C19.54,74.93,21,73.47,22.79,73.47z"/>
	<path class="st0" d="M61.87,44.08c1.8,0,3.26,1.46,3.26,3.27c0,1.8-1.46,3.26-3.26,3.26c-1.8,0-3.26-1.46-3.26-3.26
		C58.61,45.54,60.07,44.08,61.87,44.08z"/>
	<path class="st0" d="M61.87,55.51c1.8,0,3.26,1.46,3.26,3.26s-1.46,3.27-3.26,3.27c-1.8,0-3.26-1.46-3.26-3.27
		S60.07,55.51,61.87,55.51z"/>
	<path class="st0" d="M40.7,42.45c0,1.8-1.46,3.26-3.26,3.26c-1.8,0-3.26-1.46-3.26-3.26c0-1.8,1.46-3.27,3.26-3.27
		C39.24,39.18,40.7,40.65,40.7,42.45z"/>
	<path class="st0" d="M46.26,31.98c1.27,1.28,1.27,3.34,0,4.62c-1.27,1.28-3.33,1.28-4.61,0s-1.27-3.34,0-4.62
		C42.93,30.7,44.99,30.7,46.26,31.98z"/>
	<path class="st0" d="M54.4,25.45c1.27,1.28,1.27,3.34,0,4.62c-1.27,1.28-3.33,1.28-4.61,0c-1.27-1.28-1.27-3.34,0-4.62
		C51.07,24.17,53.13,24.17,54.4,25.45z"/>
	<path class="st0" d="M33.24,46.67c1.27,1.28,1.27,3.34,0,4.62c-1.27,1.27-3.33,1.27-4.61,0c-1.27-1.28-1.27-3.34,0-4.62
		C29.9,45.4,31.96,45.4,33.24,46.67z"/>
</g>
</svg>
