<?xml version="1.0" encoding="utf-8"?>
<!-- Generator: Adobe Illustrator 25.4.1, SVG Export Plug-In . SVG Version: 6.00 Build 0)  -->
<svg version="1.1" id="Layer_1" xmlns="http://www.w3.org/2000/svg" xmlns:xlink="http://www.w3.org/1999/xlink" x="0px" y="0px"
	 viewBox="0 0 208.7 80" style="enable-background:new 0 0 208.7 80;" xml:space="preserve">
<style type="text/css">
	.st0{fill:#0C0C11;}
	.st1{fill:#2E9DD6;}
	.st2{fill:#D31989;}
	.st3{fill:#014B82;}
</style>
<path class="st0" d="M84.9-885.5c-0.7-0.1-1.8,0-2.5,0c0.5-0.4,1.2-0.7,1.6-0.5c0.1,0,0.1,0,0.2,0.1
	C84.4-885.8,84.7-885.6,84.9-885.5z"/>
<g>
	<g>
		<path class="st1" d="M22.5,29.6h-6.1v7.6h6.1v5.6c0,0-0.2,0.6-3.8,0.6c-3.6,0-8.6-2.3-8.6-10.7s5-10.9,10-10.9s7.7,2,7.7,2
			l3.1-7.4c0,0-4.4-2.6-12.4-2.6S0,18.1,0,33.4s11.2,18.2,18.1,18.2c6.8,0,13.7-2.3,13.7-2.3V29.6h-6.1H22.5z"/>
		<path class="st1" d="M49.4,21.2c-7.9,0-14.3,6.9-14.3,15.3s6.4,15.3,14.3,15.3S63.7,45,63.7,36.5S57.3,21.2,49.4,21.2z M49.4,44.4
			c-2.5,0-4.5-3.6-4.5-7.9s2-7.9,4.5-7.9c2.5,0,4.5,3.6,4.5,7.9S51.9,44.4,49.4,44.4z"/>
	</g>
	<path class="st2" d="M57.6,11.8l10.9,13.1c0,0,13.1-13.7,21-5.8s-15,27.3-31.3,40.2L64.5,80l103.8-12.8l6-8.7H84.1
		c0,0,17.8-17.8,20.4-20.7c2.6-2.9,12.3-16.8,2.5-29.3S71.6-2.6,57.6,11.8z"/>
	<g>
		<polygon class="st3" points="166.1,50.9 177.1,50.9 165.7,34.5 176.3,22.7 165.6,22.7 156.2,34.8 156.2,12.1 146.6,12.1 
			146.6,50.9 156.2,50.9 156.2,45.2 160.1,40.8 		"/>
		<path class="st3" d="M199.1,22.7l-5.7,19.1l-5.6-19.1h-10L189,50.9c-2.9,8-10.1,7.4-10.1,7.4l-5.7,8.3
			c20.6-2.5,23.5-12.2,23.5-12.2l12.1-31.8H199.1z"/>
		<path class="st3" d="M127.9,26.2c-2.2-1.1-2.1-5,2.2-5c4.3,0,8.7,2.6,8.7,2.6l2.8-7.3c-1.3-0.8-7.4-2.9-11.8-2.9
			s-13.4,1.5-13.4,10.9s9.8,11.4,14.2,13.7c4.4,2.3,1.6,5.1-3.5,5.5c-5.2,0.4-10.6-3.1-10.6-3.1v8.5c0,0,1.2,2.2,11.8,2.2
			s13.1-7.7,13.4-9.3c0.3-1.6,0.4-7.2-2-9.4C137.2,30.4,130.1,27.4,127.9,26.2z"/>
	</g>
</g>
</svg>
