<?xml version="1.0" encoding="utf-8"?>
<!-- Generator: Adobe Illustrator 25.4.1, SVG Export Plug-In . SVG Version: 6.00 Build 0)  -->
<svg version="1.1" id="Layer_4" xmlns="http://www.w3.org/2000/svg" xmlns:xlink="http://www.w3.org/1999/xlink" x="0px" y="0px"
	 viewBox="0 0 64.48 80.27" style="enable-background:new 0 0 64.48 80.27;" xml:space="preserve">
<style type="text/css">
	.st0{fill:#E2A556;}
</style>
<path class="st0" d="M32.11,0h0.25c1.79,3.32,3.56,6.64,5.31,9.99c3.31,0.12,7.43-0.16,9.58,3.18c2.93,5.2,0.9,11.48,0.63,17.12
	c5.78-2.39,10.87-6.32,16.6-8.85c-4.76,9.9-10.66,19.1-15.58,28.9c5.17,3.58,10.49,6.89,15.49,10.76
	c-10.81,0.4-21.64,0.02-32.44,0.2c-0.06,6.24,0.17,12.48-0.18,18.71c-4.99-7.88-9.36-16.2-14.02-24.32
	c10.4-6.24,19.96-14.92,25.71-26.35c2.25-4.24,3.07-9.63,0.97-14.13c-0.84-2.12-3.2-1.91-4.95-2.21c1.1,2.88,2.88,5.57,3.16,8.73
	c-0.02,4.71-2.76,8.7-5.46,12.14C27.19,46.33,13.44,54.15,0,61.38c4.87-10.19,10.9-19.72,15.41-30.12
	c-4.06-4.41-9.38-6.92-14.01-10.51c10.26-0.41,20.54-0.12,30.8-0.14C32.39,13.74,32.53,6.85,32.11,0L32.11,0z"/>
</svg>
