<?xml version="1.0" encoding="utf-8"?>
<!-- Generator: Adobe Illustrator 25.4.1, SVG Export Plug-In . SVG Version: 6.00 Build 0)  -->
<svg version="1.1" id="Layer_4" xmlns="http://www.w3.org/2000/svg" xmlns:xlink="http://www.w3.org/1999/xlink" x="0px" y="0px"
	 viewBox="0 0 456.4 80.27" style="enable-background:new 0 0 456.4 80.27;" xml:space="preserve">
<style type="text/css">
	.st0{fill:#E2A556;}
	.st1{fill:#232530;}
</style>
<g>
	<path class="st0" d="M235.09,0h0.25c1.79,3.32,3.56,6.64,5.31,9.99c3.31,0.12,7.43-0.16,9.58,3.18c2.93,5.2,0.9,11.48,0.63,17.12
		c5.78-2.39,10.87-6.32,16.6-8.85c-4.76,9.9-10.66,19.1-15.58,28.9c5.17,3.58,10.49,6.89,15.49,10.76
		c-10.81,0.4-21.64,0.02-32.44,0.2c-0.06,6.24,0.17,12.48-0.18,18.71c-4.99-7.88-9.36-16.2-14.02-24.32
		c10.4-6.24,19.96-14.92,25.71-26.35c2.25-4.24,3.07-9.63,0.97-14.13c-0.84-2.12-3.2-1.91-4.95-2.21c1.1,2.88,2.88,5.57,3.16,8.73
		c-0.02,4.71-2.76,8.7-5.46,12.14c-9.99,12.46-23.74,20.28-37.17,27.52c4.87-10.19,10.9-19.72,15.41-30.12
		c-4.06-4.41-9.38-6.92-14.01-10.51c10.26-0.41,20.54-0.12,30.8-0.14C235.37,13.74,235.52,6.85,235.09,0L235.09,0z"/>
	<path class="st1" d="M31.62,21.65l9.14-0.04l-3.8,21.83l-8.9,1.73L31.62,21.65L31.62,21.65z M45.55,21.64l9.08-0.02l-3.52,21.78
		l-9.32,1.87L45.55,21.64L45.55,21.64z M179.58,21.52l9.08-0.02l-4.69,21.78l-9.42,1.87L179.58,21.52L179.58,21.52z M60.55,21.49
		h11.43l8.04,17.17c4.89-4.18,4.96-9.83,6.03-17.17l8.97,0L91.25,35.9c-1.68,4.17-5.6,5.9-9.41,8.05l6.38,17.24h-9.47l-8.8-21.41
		c-5.49,3.35-7.54,13.42-8.65,21l-8.89,0.41c0.89-6.02,1.71-12.62,4.49-18.17c1.82-3.64,6.27-6.99,9.7-9.01
		C64.24,29.24,62.85,26.3,60.55,21.49L60.55,21.49z M100.04,21.49l15.32,0c4.11,0,6.17,6.96,5.53,10.5l-5.26,29.2h-9.29l4.76-25.86
		c0.3-1.62,1.21-6.01-2.85-6l-9.88,0.03L100.04,21.49L100.04,21.49z M1.66,21.49l15.32,0c4.11,0,6.17,6.96,5.53,10.5l-5.26,29.2
		H7.96l4.76-25.86c0.3-1.62,1.21-6.01-2.85-6L0,29.37L1.66,21.49L1.66,21.49z M129.83,21.49h8.7l-4.71,20.94
		c2.58,0.06,5.8-0.12,8.67-4.47c2.15-4.94,3.67-11.22,4.8-16.47h9.09c-1.25,6.14-3.6,13.2-6.49,18.82
		c-3.19,5.43-10.72,6.38-16.23,6.68c0.46,5.09,4.44,7.58,8.89,7.7c4.89,0.14,11.49-3.28,13.66-7.77c3.69-7.52,6.1-17.27,7.74-25.44
		l8.63,0c-1.36,8.1-4.33,17.05-7.08,24.78c-4.03,10.6-13.57,15.18-23.99,14.91c-4.86-0.13-9.98-1.39-13-5.01
		c-3.55-4.08-3.19-9.98-2.1-15.1L129.83,21.49L129.83,21.49z M282.27,58.44l5.76-36.95h9.99l-5.76,36.95H282.27L282.27,58.44z
		 M406.98,58.44l5.76-36.95h9.99l-5.76,36.95H406.98L406.98,58.44z M299.56,46.34h9.03c-0.24,2.14,0.14,3.75,1.15,4.83
		c1.01,1.08,2.63,1.62,4.88,1.62c1.91,0,3.43-0.32,4.57-0.97c1.14-0.64,1.8-1.56,1.97-2.73c0.08-0.59,0.03-1.12-0.15-1.59
		c-0.19-0.46-0.49-0.82-0.9-1.05c-0.63-0.37-2.21-0.97-4.76-1.76c-2.54-0.8-4.67-1.57-6.39-2.32c-2.48-1.07-4.29-2.49-5.4-4.24
		c-1.12-1.76-1.51-3.81-1.17-6.15c0.52-3.58,2.24-6.44,5.18-8.55c2.94-2.11,6.66-3.17,11.17-3.17c4.41,0,7.76,1.11,10.03,3.34
		c2.27,2.23,3.13,5.23,2.59,9.02h-8.85c0.06-1.75-0.36-3.04-1.25-3.87c-0.89-0.83-2.28-1.25-4.17-1.25c-1.51,0-2.79,0.32-3.82,0.96
		c-1.04,0.64-1.63,1.44-1.77,2.44c-0.24,1.66,1.79,3.24,6.08,4.71c0.78,0.27,1.37,0.47,1.78,0.61l0.35,0.13
		c4.43,1.54,7.16,2.79,8.19,3.74c1.04,0.99,1.77,2.15,2.2,3.48c0.42,1.34,0.51,2.82,0.28,4.45c-0.54,3.73-2.36,6.64-5.46,8.72
		c-3.1,2.08-7.17,3.12-12.22,3.12c-4.77,0-8.24-1.11-10.41-3.35C300.09,54.27,299.19,50.88,299.56,46.34L299.56,46.34z
		 M346.44,37.32h6.35c1.71,0,3.02-0.35,3.92-1.05c0.9-0.7,1.45-1.82,1.65-3.36c0.18-1.36-0.08-2.36-0.77-3.02
		c-0.7-0.66-1.85-0.99-3.46-0.99h-6.57L346.44,37.32L346.44,37.32z M335.17,58.44l4.9-36.95h15.92c4.22,0,7.21,0.84,8.99,2.51
		c1.78,1.67,2.43,4.26,1.96,7.77c-0.27,2.07-0.93,3.85-1.99,5.33c-1.04,1.48-2.53,2.72-4.46,3.72c1.37,0.63,2.3,1.46,2.76,2.53
		c0.46,1.06,0.56,2.93,0.3,5.61c-0.05,0.74-0.14,1.76-0.26,3.03c-0.29,2.98-0.06,4.7,0.69,5.17l-0.17,1.28h-8.93
		c-0.26-1.3-0.28-3.09-0.04-5.37c0.25-2.27,0.37-3.7,0.39-4.29c0.05-1.44-0.24-2.49-0.89-3.16c-0.64-0.67-1.71-1-3.18-1h-5.69
		l-1.83,13.82H335.17L335.17,58.44z M435.76,37.32h6.35c1.71,0,3.02-0.35,3.92-1.05c0.9-0.7,1.45-1.82,1.65-3.36
		c0.18-1.36-0.08-2.36-0.77-3.02c-0.7-0.66-1.85-0.99-3.46-0.99h-6.57L435.76,37.32L435.76,37.32z M424.49,58.44l4.9-36.95h15.92
		c4.22,0,7.21,0.84,8.99,2.51c1.78,1.67,2.43,4.26,1.96,7.77c-0.27,2.07-0.93,3.85-1.99,5.33c-1.04,1.48-2.53,2.72-4.46,3.72
		c1.37,0.63,2.3,1.46,2.76,2.53c0.46,1.06,0.56,2.93,0.3,5.61c-0.05,0.74-0.14,1.76-0.26,3.03c-0.29,2.98-0.06,4.7,0.69,5.17
		l-0.17,1.28h-8.93c-0.26-1.3-0.28-3.09-0.04-5.37c0.25-2.27,0.37-3.7,0.39-4.29c0.05-1.44-0.24-2.49-0.89-3.16
		c-0.64-0.67-1.71-1-3.18-1h-5.69l-1.83,13.82H424.49L424.49,58.44z M382.25,44.01h8.52l-1.9-12.74L382.25,44.01L382.25,44.01z
		 M385.64,21.49h10.89l6.67,36.95h-10.7l-1.09-6.77h-13l-3.52,6.77h-10.33L385.64,21.49L385.64,21.49z"/>
</g>
</svg>
