<?xml version="1.0" encoding="utf-8"?>
<!-- Generator: Adobe Illustrator 25.4.1, SVG Export Plug-In . SVG Version: 6.00 Build 0)  -->
<svg version="1.1" id="Layer_1" xmlns="http://www.w3.org/2000/svg" xmlns:xlink="http://www.w3.org/1999/xlink" x="0px" y="0px"
	 viewBox="0 0 133 80" style="enable-background:new 0 0 133 80;" xml:space="preserve">
<style type="text/css">
	.st0{fill:#0067B2;}
</style>
<path class="st0" d="M120.5,0h-19.3c-9,0-22.9,3.1-34,11.7C50.2,24.9,21.3,56.1,0,80h17.2c18.3-20.3,43.2-46.8,57.8-58.2
	c8.6-6.7,17.4-9.1,24.8-9.1h3.9l-3.1,11.9c-8.2,0.8-16.3,5.2-26.2,14.6C63.6,49.6,50.8,63.3,36.6,80h16.9
	c11.1-12.7,21.1-23.3,29.7-31.5c11.4-10.8,18-11.7,25.8-11.7h7.3l-0.1,0.2L105,80h13.2L133,24.1h-18.9L120.5,0z"/>
</svg>
