<?xml version="1.0" encoding="utf-8"?>
<!-- Generator: Adobe Illustrator 25.4.1, SVG Export Plug-In . SVG Version: 6.00 Build 0)  -->
<svg version="1.1" id="Layer_1" xmlns="http://www.w3.org/2000/svg" xmlns:xlink="http://www.w3.org/1999/xlink" x="0px" y="0px"
	 viewBox="0 0 197 80" style="enable-background:new 0 0 197 80;" xml:space="preserve">
<style type="text/css">
	.st0{fill:#0067B2;}
</style>
<path class="st0" d="M191.3,0h-8.9c-4.1,0-10.5,1.4-15.6,5.4c-7.8,6.1-21.1,20.4-30.9,31.3h7.9c8.4-9.3,19.8-21.5,26.6-26.7
	c4-3.1,8-4.2,11.4-4.2h1.8l-1.4,5.5c-3.8,0.4-7.5,2.4-12,6.7c-5,4.8-10.9,11.1-17.4,18.7h7.8c5.1-5.8,9.7-10.7,13.6-14.5
	c5.2-5,8.2-5.4,11.8-5.4h3.4l0,0.1l-5.2,19.7h6.1L197,11h-8.7L191.3,0z"/>
<polygon points="41.7,50 33.8,80 39.7,80 47.6,50 "/>
<polygon points="120.1,50 114.2,50 106.2,80 123.6,80 125.1,74.6 113.5,74.6 "/>
<polygon points="157,50 149,80 154.9,80 162.9,50 "/>
<path d="M145.8,65.4c-0.6-0.7-1.6-1.3-2.5-1.8c-0.9-0.5-2-0.9-3.1-1.3c-1.1-0.4-1.9-0.8-2.5-1.3c-0.6-0.5-0.9-1.2-0.8-2.1
	c0-0.6,0.2-1.1,0.5-1.6c0.3-0.4,0.7-0.8,1.1-1.1c0.4-0.3,0.9-0.5,1.4-0.6c1-0.2,2.6-0.3,3.6-0.3h6.7l1.6-5.4H143c-0.4,0-0.9,0-1.3,0
	h-0.3v0c-1.1,0.1-2.2,0.3-3.3,0.6c-1.4,0.4-2.6,1.1-3.7,1.9c-1.1,0.8-1.9,1.8-2.6,3c-0.7,1.2-1,2.5-1.1,4c-0.1,1.2,0.2,2.2,0.5,3
	c0.3,0.8,0.7,1.5,1.3,2.1c0.5,0.6,1.2,1.1,2,1.5c0.8,0.4,2,0.8,2.9,1.1c1.3,0.5,2.5,1,3.3,1.6c0.8,0.6,1.2,1.4,1.2,2.4
	c0,0.6-0.3,1.2-0.5,1.6c-0.3,0.4-0.6,0.8-1.1,1.1c-0.4,0.3-1,0.5-1.5,0.6c-1.1,0.3-10.3,0.2-10.3,0.2L127,80h6.3c2,0,5,0,6.4-0.3
	c1.4-0.3,2.7-0.9,3.8-1.7c1.1-0.8,2.1-1.8,2.9-3c0.8-1.2,1.2-2.7,1.3-4.4c0.1-1.1-0.2-2-0.5-2.9C147,66.8,146.4,66.1,145.8,65.4"/>
<path d="M29.9,50c-5,0-10.2,1.2-15.8,9.4C11.4,63.3,3.5,74.3,0,80h6.7c1-1.6,2.8-4.3,4.8-7.2h13.2L22.8,80h5.9l8-30H29.9z
	 M26.1,67.7h-11c1.5-2.1,2.8-4,3.6-5.2c4-5.9,5.6-7.2,10.7-7.2L26.1,67.7z"/>
<path d="M102.7,50c-5,0-10.2,1.2-15.8,9.4c-2.7,4-10.6,14.9-14.1,20.7h6.7c1-1.6,2.8-4.3,4.8-7.2h13.2L95.6,80h5.9l8-30H102.7z
	 M98.9,67.7h-11c1.5-2.1,2.8-4,3.6-5.2c4-5.9,5.6-7.2,10.7-7.2L98.9,67.7z"/>
<path d="M63.5,50h-5.1h-5.8h-0.1l-8,30h5.9l2.8-10.5h4.2L62.3,80h6.1l-4.9-10.6c4.5-0.6,7.9-3.3,9.1-8C74,55.9,71.3,50,63.5,50
	 M67.2,60c-0.9,3.5-3,4.2-5.8,4.2h-6.8l2.4-8.9h6.9C67.6,55.3,67.5,58.7,67.2,60"/>
<polygon points="185.2,55.3 186.6,50 168,50 160.1,80 178.7,80 180.1,74.6 167.1,74.6 168.9,67.6 180.1,67.6 181.5,62.3 170.3,62.3 
	172.2,55.3 "/>
</svg>
