<?xml version="1.0" encoding="utf-8"?>
<!-- Generator: Adobe Illustrator 25.4.1, SVG Export Plug-In . SVG Version: 6.00 Build 0)  -->
<svg version="1.1" id="Layer_4" xmlns="http://www.w3.org/2000/svg" xmlns:xlink="http://www.w3.org/1999/xlink" x="0px" y="0px"
	 viewBox="0 0 68.03 80.27" style="enable-background:new 0 0 68.03 80.27;" xml:space="preserve">
<style type="text/css">
	.st0{fill:#C5D700;}
	.st1{fill:#6DB327;}
</style>
<path id="path11420" class="st0" d="M63.96,34.47c3.2,2.14,5.01,6.44,3.55,12.15c-2.8,11.19-11.61,20.81-16.85,24.72
	c-9.49,7.28-22.13,9.36-28.89,8.67c-7.49-0.76-13.65-4.34-17.14-8.53c6.01,4.3,13.11,2.6,19.57,0.14
	c7.93-3.01,12.52-7.45,16.55-13.82c5-7.92,5.33-16.77,8.81-20.81C53.93,31.91,59.86,31.81,63.96,34.47 M59.73,13.34
	c-1.57,6.63-8.21,11.5-14.82,10.87c-6.61-0.63-10.7-6.52-9.12-13.15c1.57-6.63,8.21-11.5,14.82-10.87
	C57.22,0.82,61.3,6.71,59.73,13.34"/>
<path id="path11422" class="st1" d="M0.73,37.34c-1.27-3.76,0.77-8.16,4.57-9.84c3.8-1.68,7.91,0.01,9.19,3.76
	c1.27,3.76-0.77,8.16-4.58,9.84C6.11,42.79,2,41.1,0.73,37.34 M11.77,58.31c-1.02-2.93-3.85-3.86-6.16-3.62
	c-3.96,0.4-6.31,4.34-5.42,7.9c0.89,3.55,2.54,6.59,4.45,8.89c6.01,4.29,13.11,2.63,19.72,0.08C16.46,70.42,12.91,61.57,11.77,58.31
	"/>
</svg>
