<?xml version="1.0" encoding="utf-8"?>
<!-- Generator: Adobe Illustrator 25.4.1, SVG Export Plug-In . SVG Version: 6.00 Build 0)  -->
<svg version="1.1" id="Layer_4" xmlns="http://www.w3.org/2000/svg" xmlns:xlink="http://www.w3.org/1999/xlink" x="0px" y="0px"
	 viewBox="0 0 335.08 80.27" style="enable-background:new 0 0 335.08 80.27;" xml:space="preserve">
<style type="text/css">
	.st0{fill:#7F8173;}
	.st1{fill:#C5D700;}
	.st2{fill:#6DB327;}
</style>
<g>
	<path id="path11414" class="st0" d="M148.69,55.23c1.41,0,2.25,0.87,2.25,2c0,1.69-1.71,2.2-3.35,2.33
		c-1.41,0.1-2.41-0.06-2.41-0.06C145.7,56.27,147.01,55.23,148.69,55.23L148.69,55.23z M153.95,66.76c-2.3,1.55-4.52,2.31-6.56,2.31
		c-3.33,0-3.39-2.93-3.09-4.49c0,0,2.5,0.21,4.34,0.13c6.3-0.25,9.63-3.15,9.63-7.57c0-4.72-3.71-7.52-8.92-7.52
		c-6.76,0-11.69,4.82-13.01,12.69c-1.3,7.73,2.14,12.41,9.77,12.41c3.56,0,6.69-0.98,10.3-3.43v0L153.95,66.76L153.95,66.76z
		 M173.71,56.75c-0.14-0.51-0.82-0.93-1.56-0.93c-2.09,0-2.99,1.53-3.9,6.95c-0.57,3.43-0.61,5.88,1.7,5.88
		c0.83,0,1.54-0.37,1.89-0.79L173.71,56.75z M172.75,74.12c-0.14-0.56-0.16-1.02-0.13-1.43c-1.33,1.3-3.12,2.04-5.53,2.04
		c-6.11,0-8.83-4.49-7.56-12.09c1.17-6.99,5.38-13.01,12.46-13.01c1.16,0,2.48,0.42,3.05,0.83c-0.02-0.69,0.15-2.59,0.36-3.8
		l0.81-4.82h8.08l-3.84,22.78c-1.02,6.06-1.1,7.64-0.71,9.49L172.75,74.12L172.75,74.12z M106.43,59.21l-2.85-0.65
		c-1.88-0.42-2.32-1.06-2.18-1.9c0.13-0.79,1.06-1.34,2.31-1.34c1.57,0,3.43,0.51,5.59,1.76l2.85-5.24c-2-0.99-4.18-2.22-8.55-2.22
		c-5.98,0-10.36,3.24-11.18,8.15c-0.57,3.38,0.8,5.74,4.51,6.53l2.99,0.65c2.28,0.51,3,0.88,2.79,2.17
		c-0.15,0.88-1.37,1.81-2.8,1.81c-2.37,0-5.9-2.09-7.32-3.06l-3.33,6.1c3.12,1.74,6.13,2.74,9.39,2.74c6.66,0,11.67-3.33,12.54-8.52
		C111.82,62.45,110.49,60.13,106.43,59.21L106.43,59.21z M74.49,66.85c-0.23,1.39,0.45,2.32,1.84,2.32c0.69,0,1.69-0.42,2.03-0.79
		l0.7-4.17C75.69,64.12,74.73,65.46,74.49,66.85L74.49,66.85z M79.85,72.73c-1.32,0.97-3.48,1.99-6.31,1.99
		c-5.93,0-7.61-3.52-6.89-7.78c0.76-4.54,5.24-7.77,11.91-7.77c0.32,0,1.11,0,1.33,0.04l0.25-1.48c0.23-1.39-0.11-2.42-1.86-2.42
		c-1.99,0-4.39,0.77-6.89,2.18l-1.69-5.26c2.97-1.5,5.76-2.61,10.13-2.61c5.97,0,9.24,3.24,8.38,8.06l-1.47,8.24
		c-0.34,1.99-0.42,3.61,1.07,4.68l-5.38,4.49C81.32,74.72,80.1,73.47,79.85,72.73L79.85,72.73z M59.7,74.72
		c-6.81,0-6.35-3.52-5.56-8.29l4.11-24.59h8.01l-3.7,22.02c-0.7,4.21-0.67,5.25,1.14,5.25c0.28,0,0.56-0.05,0.86-0.14l0.46,5
		C63.87,74.39,61.92,74.72,59.7,74.72L59.7,74.72z M38.35,62.4c-0.77,4.63-0.84,6.67,1.43,6.67c1.9,0,2.84-2.04,3.8-7.73
		c0.8-4.77,0.37-6.11-1.52-6.11C40.39,55.23,39.34,56.47,38.35,62.4L38.35,62.4z M52.24,61.57c-1.58,9.44-7.9,13.15-13.59,13.15
		c-6.86,0-10.31-4.54-8.98-12.46c1.25-7.45,6.66-12.64,13.65-12.64C49.2,49.62,53.68,53,52.24,61.57L52.24,61.57z M20.58,53.51
		l-3.21-0.85c-2.35-0.61-2.92-1.7-2.74-2.79c0.22-1.32,1.58-2.36,3.75-2.36c2.27,0,5.05,0.85,7.03,2.32l0.18-0.21l3.62-6.64
		c-2.56-1.5-6.06-2.35-9.95-2.35c-7.37,0-13.48,4.34-14.57,10.86c-0.95,5.67,1.87,8.26,6.43,9.54l3.71,0.99
		c2.16,0.61,3.1,1.23,2.85,2.69c-0.3,1.79-1.83,3.02-5.13,3.02c-3.35,0-6.68-1.27-8.81-2.64L0,71.91c2.94,1.64,6.51,2.77,11.27,2.77
		c8.55,0,15.1-4.16,16.42-12.04C28.8,56.02,23.97,54.41,20.58,53.51L20.58,53.51z M125.46,55.23c1.41,0,2.25,0.87,2.25,2
		c0,1.69-1.71,2.2-3.35,2.33c-1.42,0.1-2.42-0.06-2.42-0.06C122.47,56.27,123.77,55.23,125.46,55.23L125.46,55.23z M130.71,66.76
		c-2.3,1.55-4.51,2.31-6.56,2.31c-3.33,0-3.39-2.93-3.09-4.49c0,0,2.49,0.21,4.34,0.13c6.3-0.25,9.63-3.15,9.63-7.57
		c0-4.72-3.71-7.52-8.92-7.52c-6.76,0-11.69,4.82-13.01,12.69c-1.3,7.73,2.13,12.41,9.77,12.41c3.56,0,6.69-0.98,10.3-3.43v0
		L130.71,66.76L130.71,66.76z M250.27,57.66c-0.75-0.46-1.33-0.65-2.25-0.65c-1.39,0-2.39,0.74-3.11,1.71l-2.59,15.39h-8.05
		l3.94-23.52h7.15c-0.17,1.13-0.28,1.88-0.45,2.85c1.19-1.3,2.86-2.96,5.41-2.96c1.16,0,1.86,0.23,2.9,0.69L250.27,57.66
		L250.27,57.66z M230.54,48.47c-2.5,0-4.41-2.04-4.2-4.54c0.21-2.5,2.51-4.54,5.11-4.54c2.55,0,4.37,2.04,4.16,4.54
		C235.39,46.43,233.13,48.47,230.54,48.47z M221.89,74.12l3.94-23.52l8.05,0.03l-3.94,23.5H221.89L221.89,74.12z M209.49,55.46
		c-0.08-1.45,0-3.36,0.16-4.58c-0.3,1.22-0.83,2.99-1.76,5.19l-2.2,5.33h4.21L209.49,55.46L209.49,55.46z M211.13,74.12l-0.63-6.27
		h-7.72l-2.82,6.27h-8.79l15.93-32.59h8.7l4.41,32.59H211.13"/>
	<path id="path11420" class="st1" d="M331.02,34.47c3.2,2.14,5.01,6.44,3.55,12.15c-2.8,11.19-11.61,20.81-16.85,24.72
		c-9.49,7.28-22.13,9.36-28.89,8.67c-7.49-0.76-13.65-4.34-17.14-8.53c6.01,4.3,13.11,2.6,19.57,0.14
		c7.93-3.01,12.52-7.45,16.55-13.82c5-7.92,5.33-16.77,8.81-20.81C320.98,31.91,326.91,31.81,331.02,34.47 M326.78,13.34
		c-1.57,6.63-8.21,11.5-14.82,10.87c-6.61-0.63-10.7-6.52-9.12-13.15c1.57-6.63,8.21-11.5,14.82-10.87S328.35,6.71,326.78,13.34"/>
	<path id="path11422" class="st2" d="M267.78,37.34c-1.27-3.76,0.77-8.16,4.57-9.84c3.8-1.68,7.91,0.01,9.19,3.76
		c1.27,3.76-0.77,8.16-4.58,9.84C273.17,42.79,269.05,41.1,267.78,37.34 M278.82,58.31c-1.02-2.93-3.85-3.86-6.16-3.62
		c-3.96,0.4-6.31,4.34-5.42,7.9c0.89,3.55,2.54,6.59,4.45,8.89c6.01,4.29,13.11,2.63,19.72,0.08
		C283.51,70.42,279.96,61.57,278.82,58.31"/>
</g>
</svg>
