<?xml version="1.0" encoding="utf-8"?>
<!-- Generator: Adobe Illustrator 25.4.1, SVG Export Plug-In . SVG Version: 6.00 Build 0)  -->
<svg version="1.1" id="Layer_1" xmlns="http://www.w3.org/2000/svg" xmlns:xlink="http://www.w3.org/1999/xlink" x="0px" y="0px"
	 viewBox="0 0 124.5 80" style="enable-background:new 0 0 124.5 80;" xml:space="preserve">
<style type="text/css">
	.st0{fill:#0C0C11;}
	.st1{fill-rule:evenodd;clip-rule:evenodd;fill:#7EC358;}
	.st2{fill-rule:evenodd;clip-rule:evenodd;fill:#F3993C;}
</style>
<path class="st0" d="M84.9-885.5c-0.7-0.1-1.8,0-2.5,0c0.5-0.4,1.2-0.7,1.6-0.5c0.1,0,0.1,0,0.2,0.1
	C84.4-885.8,84.7-885.6,84.9-885.5z"/>
<g>
	<path class="st1" d="M46.8,80h9.1c0,0,0.5-14.2,21.8-37.2C77.8,42.8,56.5,59.3,46.8,80z"/>
	<path class="st2" d="M0,80h41.7c0,0,15.3-25.3,36.1-42.8S113,8.9,117.2,6.6c4.2-2.3,7.3-6.4,7.3-6.4s-5.1-1.6-13.7,4.9
		c0,0-14,11.4-18.5,14.4c-4.5,3-3.8,2.1-4.7,1.8c-0.9-0.3-2.9-1.5-9.3,5.4c0,0,4-0.2,5.8,2c0.2,0.3-13.2,10.9-14,11.5
		c-8,6.1-16.3,11.9-24.9,17.2c-14.2,8.9-29.7,15.5-45,22.6C0.2,79.9,0.1,80,0,80z"/>
</g>
</svg>
