<?xml version="1.0" encoding="utf-8"?>
<!-- Generator: Adobe Illustrator 25.4.1, SVG Export Plug-In . SVG Version: 6.00 Build 0)  -->
<svg version="1.1" id="Layer_1" xmlns="http://www.w3.org/2000/svg" xmlns:xlink="http://www.w3.org/1999/xlink" x="0px" y="0px"
	 viewBox="0 0 265.6 80" style="enable-background:new 0 0 265.6 80;" xml:space="preserve">
<style type="text/css">
	.st0{fill:#0C0C11;}
	.st1{fill-rule:evenodd;clip-rule:evenodd;fill:#7EC358;}
	.st2{fill-rule:evenodd;clip-rule:evenodd;fill:#F3993C;}
</style>
<path class="st0" d="M84.9-885.5c-0.7-0.1-1.8,0-2.5,0c0.5-0.4,1.2-0.7,1.6-0.5c0.1,0,0.1,0,0.2,0.1
	C84.4-885.8,84.7-885.6,84.9-885.5z"/>
<g>
	<g>
		<path class="st1" d="M15.1,61.6l-7-13c0,0-1.3-2.7-3.8-2.7S0,48.1,0,51.1V72h5.3V54.9l7.5,14c0,0,1.5,3.4,4.3,3.4s3.6-2.6,3.6-3.8
			V45.9h-5.5V61.6z"/>
		<rect x="24.6" y="53.9" class="st1" width="4.2" height="18.2"/>
		<circle class="st1" cx="27" cy="49.6" r="2.7"/>
		<path class="st1" d="M41.2,53.5c-4.3,0-8.2,2.3-8.2,10s7.2,7.4,7.2,7.4h3.4v-3.5h-2.2c-3.2,0-4-3.1-4-5c0-1.9,0.6-4.6,4.3-4.6
			c3.7,0,3.7,2.6,3.7,2.6V72c0,0,0.3,4.4-4.3,4.4c-4.6,0-5.2-1.7-5.2-1.7v3.5c0,0,1.6,1.7,5.5,1.7c3.9,0,8.3-2.6,8.3-6.1
			c0-0.7,0-1.3,0-1.9v-3.6v-8.1C49.5,56,45.5,53.5,41.2,53.5z"/>
		<path class="st1" d="M65.6,67.8c-3,1.8-4.9,0.1-6.1-1c-1.2-1.1-2.3-5.1,0.4-7.6c2.8-2.5,5.7,0,5.7,0l-4.7,3.5l1.9,2.3
			c3.8-1.5,8.6-6.2,8.6-6.2s-2-5.4-8.7-5.4c-8.1,0-9.1,7.2-9.1,9.9c0,2.7,1.7,9.3,9.9,9.3s9-8,9-8h-3.6
			C68.9,64.7,68.6,65.9,65.6,67.8z"/>
		<path class="st1" d="M81,56.2l-2.5-2.3h-3V72h4.8V61.9c0-0.3,0.2-2.7,2.6-2.7c2.4,0,2.7,0,2.7,0v-5.4C85.6,53.9,82.1,53.2,81,56.2
			z"/>
	</g>
	<g>
		<rect x="177.5" y="53.9" class="st2" width="4.2" height="18.2"/>
		<rect x="198.4" y="45.8" class="st2" width="4.2" height="26.2"/>
		<ellipse transform="matrix(0.9732 -0.2298 0.2298 0.9732 -6.3203 42.6257)" class="st2" cx="179.9" cy="48.5" rx="2.7" ry="2.7"/>
		<rect x="207" y="53.9" class="st2" width="4.2" height="18.2"/>
		<ellipse transform="matrix(0.8507 -0.5257 0.5257 0.8507 5.7977 117.3168)" class="st2" cx="209.4" cy="48.5" rx="2.7" ry="2.7"/>
		<path class="st2" d="M245.6,67.8c-3,1.8-4.9,0.1-6.1-1c-1.2-1.1-2.3-5.1,0.4-7.6c2.8-2.5,5.7,0,5.7,0l-4.7,3.5l1.9,2.3
			c3.8-1.5,8.6-6.2,8.6-6.2s-2-5.4-8.7-5.4c-8.1,0-9.1,7.2-9.1,9.9c0,2.7,1.7,9.3,9.9,9.3s9-8,9-8h-3.6
			C248.9,64.7,248.6,65.9,245.6,67.8z"/>
		<path class="st2" d="M191.2,56.2l-2.5-2.3h-3V72h4.8V61.9c0-0.3,0.2-2.7,2.6-2.7c2.4,0,2.7,0,2.7,0v-5.4
			C195.8,53.9,192.3,53.2,191.2,56.2z"/>
		<path class="st2" d="M222.7,52.8c-8,0-7.3,7.1-7.3,7.1V72h4.2V59.3c0,0,0.1-2.6,2.9-2.6c2.9,0,3.2,2.6,3.2,2.6V72h4.2V59.3
			C230,59.3,230.6,52.8,222.7,52.8z"/>
		<path class="st2" d="M260.7,61.5c-1.3-0.8-2.3-0.9-2.9-2.6c-0.6-1.6,1.5-1.8,1.5-1.8h5v-3.2c0,0-4.7,0-5.7,0s-4.4,0.6-4.4,5.1
			c0,4.4,5.6,5,7,7.3c1.5,2.3-0.9,2.6-0.9,2.6h-6.1V72c0,0,4,0,5.7,0c1.7,0,5.7-0.6,5.7-4.6C265.6,63.4,262,62.2,260.7,61.5z"/>
		<path class="st2" d="M164.1,45.4c-9.1,0-9.4,7.3-9.4,8.5V72h5.4V53.9c0,0,0.1-3.4,3.4-3.4c3.3,0,3.8,3.4,3.8,3.4v4h-5.4v4.6h5.4
			V72h5.4V53.9C172.6,53.9,173.1,45.4,164.1,45.4z"/>
	</g>
	<path class="st1" d="M129.9,72.8h8.3c0,0,0.5-12.9,19.9-33.9C158.1,38.9,138.8,53.9,129.9,72.8z"/>
	<path class="st2" d="M87.3,72.8h37.9c0,0,14-23,32.8-38.9S190.2,8.1,193.9,6c3.8-2.1,6.6-5.8,6.6-5.8s-4.7-1.5-12.4,4.4
		c0,0-12.7,10.4-16.8,13.1s-3.5,1.9-4.2,1.6c-0.8-0.3-2.6-1.4-8.5,4.9c0,0,3.7-0.2,5.3,1.8c0.2,0.2-12,9.9-12.7,10.5
		c-7.3,5.5-14.9,10.8-22.6,15.7c-12.9,8.1-27,14.1-40.9,20.5C87.5,72.7,87.4,72.7,87.3,72.8z"/>
</g>
</svg>
