<?xml version="1.0" encoding="utf-8"?>
<!-- Generator: Adobe Illustrator 25.4.1, SVG Export Plug-In . SVG Version: 6.00 Build 0)  -->
<svg version="1.1" id="Layer_1" xmlns="http://www.w3.org/2000/svg" xmlns:xlink="http://www.w3.org/1999/xlink" x="0px" y="0px"
	 viewBox="0 0 114.1 80" style="enable-background:new 0 0 114.1 80;" xml:space="preserve">
<style type="text/css">
	.st0{fill-rule:evenodd;clip-rule:evenodd;fill:#488CCB;}
</style>
<g>
	<path class="st0" d="M38.4,45.4l13.1,23.4l5.3-23.4H38.4L38.4,45.4z M51.4,69.9l4.9,8.8L33.8,61.5L21.2,45.5L51.4,69.9L51.4,69.9z
		 M62.7,68.9l13.1-23.4H57.4L62.7,68.9L62.7,68.9z M93,45.5L80.4,61.5L57.8,78.6l4.9-8.8L93,45.5L93,45.5z M57,80l-0.4-0.3L2.2,38.2
		L2,38.1l0,0L0.1,27.7c0,0,0,0,0-0.1L0,22.2C0,22,0,22,0.1,21.9l12.7-11.4c0,0,0,0,0.1,0l12.6-4.9c0,0,0,0,0.1,0L57,0l0,0l0,0
		l31.4,5.7c0,0,0,0,0.1,0l12.6,4.9c0,0,0,0,0.1,0l12.7,11.4c0,0,0.1,0.1,0.1,0.3l-0.1,5.4c0,0,0,0,0,0.1L112,38.1v0.1l-0.1,0.1
		L57.4,79.6L57,80C57,80,57.2,80,57,80L57,80z M76.4,27.4l20.4,10.3l5.3-14.1l-18.5-6.1L76.4,27.4L76.4,27.4z M110,38.2H97.2
		l-1.9,4.9L110,38.2L110,38.2z M100.9,10.9l-6.2-0.1l8,12.3l10.8,3.9l0.1-4.9L100.9,10.9L100.9,10.9z M88.4,6.1L57,0.4L25.8,6.1
		l-5.3,4.5l10.3,6.4l26.4,1.5l26.2-1.5l10.3-6.4L88.4,6.1L88.4,6.1z M57,40.8l18.2-13.2L57,18.9l-18.2,8.6L57,40.8L57,40.8z
		 M17.4,37.7l20.4-10.3l-7.3-10l-18.4,6.2L17.4,37.7L17.4,37.7z M17,38.4H4.2l14.7,4.9L17,38.4L17,38.4z M19.5,10.8l-6.2,0.1
		L0.7,22.2l0.1,5l10.8-3.9L19.5,10.8z"/>
</g>
</svg>
