<?xml version="1.0" encoding="utf-8"?>
<!-- Generator: Adobe Illustrator 25.4.1, SVG Export Plug-In . SVG Version: 6.00 Build 0)  -->
<svg version="1.1" id="Layer_1" xmlns="http://www.w3.org/2000/svg" xmlns:xlink="http://www.w3.org/1999/xlink" x="0px" y="0px"
	 viewBox="0 0 536.9 80" style="enable-background:new 0 0 536.9 80;" xml:space="preserve">
<style type="text/css">
	.st0{fill-rule:evenodd;clip-rule:evenodd;fill:#488CCB;}
</style>
<g>
	<path class="st0" d="M116.5,74.2l6.2-14.5h1.5l6.2,14.5h-1.6l-1.6-3.8h-7.4l-1.6,3.8H116.5L116.5,74.2z M120.1,69.1h6.4l-3.2-7.7
		L120.1,69.1L120.1,69.1z M132.4,74.2V59.7h4.3c0.5,0,1.2,0,1.6,0.1c0.5,0.1,0.9,0.3,1.5,0.5c0.4,0.3,0.8,0.7,1.1,1.2
		s0.4,1.1,0.4,1.8c0,0.8-0.3,1.5-0.7,2s-1.1,0.9-1.9,1.1l0,0c0.9,0.1,1.8,0.5,2.3,1.1c0.5,0.7,0.9,1.5,0.9,2.4c0,1.2-0.5,2.2-1.5,3
		c-0.9,0.7-2.3,1.1-3.9,1.1h-4.2V74.2z M133.9,73h2.7c1.2,0,2.2-0.3,2.8-0.7c0.8-0.4,1.1-1.2,1.1-2.2c0-0.9-0.3-1.6-0.9-2.2
		c-0.7-0.5-1.6-0.7-2.7-0.7h-3L133.9,73L133.9,73z M133.9,66.1h3c0.8,0,1.5-0.3,2.2-0.7c0.5-0.4,0.9-1.1,0.9-1.9
		c0-0.8-0.3-1.5-0.9-1.9s-1.5-0.7-2.6-0.7h-2.6L133.9,66.1L133.9,66.1z M145.4,74.2V59.7h1.5v12.2l0,0l8-12.2h1.6v14.5H155V61.9l0,0
		l-8,12.3H145.4L145.4,74.2z M158.6,74.2l6.2-14.5h1.5l6.2,14.5h-1.6l-1.6-3.8h-7.4l-1.6,3.8H158.6L158.6,74.2z M162.4,69.1h6.4
		l-3.2-7.7L162.4,69.1L162.4,69.1z M174.6,74.2V59.7h1.5v6.5l0,0l6.9-6.5h2.2l-7.3,6.5l7.7,7.8h-2.2l-7.2-7.7l0,0v7.7h-1.6V74.2z
		 M199.1,72.4c-1.5,1.5-3.2,2.2-5.4,2.2s-3.9-0.7-5.4-2.2c-1.5-1.5-2.2-3.2-2.2-5.4s0.7-4.1,2.2-5.4c1.5-1.5,3.2-2.2,5.4-2.2
		s3.9,0.7,5.4,2.2s2.2,3.2,2.2,5.4S200.5,70.9,199.1,72.4L199.1,72.4z M189.3,71.5c1.1,1.2,2.6,1.9,4.3,1.9s3.2-0.7,4.3-1.9
		s1.6-2.7,1.6-4.5c0-1.8-0.5-3.2-1.6-4.5c-1.1-1.2-2.6-1.9-4.3-1.9s-3.2,0.7-4.3,1.9c-1.1,1.2-1.6,2.7-1.6,4.5
		C187.7,68.8,188.2,70.3,189.3,71.5L189.3,71.5z M204.3,74.2V59.7h2.3l4.9,11.9l0,0l4.9-11.9h2.3v14.5H217V61.6l0,0l-5.3,12.6h-0.8
		l-5.3-12.6l0,0v12.6H204.3L204.3,74.2z M222.3,74.2V59.7h10.8v14.5h-1.5V61.1h-7.8v13.1H222.3L222.3,74.2z M235.3,74.2l6.2-14.5
		h1.5l6.2,14.5h-1.6l-1.6-3.8h-7.4l-1.6,3.8H235.3L235.3,74.2z M239.1,69.1h6.4l-3.2-7.7L239.1,69.1L239.1,69.1z M251.2,74.2V59.7
		h1.5v6.2h7.8v-6.2h1.5v14.5h-1.5v-6.9h-7.8v6.9H251.2L251.2,74.2z M265.9,74.2V59.7h1.5v12.2l0,0l8-12.2h1.6v14.5h-1.5V61.9l0,0
		l-8,12.3H265.9L265.9,74.2z M279.7,74.2l3.9-6.4c-1.1-0.3-2-0.7-2.7-1.4s-0.9-1.6-0.9-2.7c0-1.4,0.4-2.3,1.4-3
		c0.9-0.7,2.2-1.1,3.8-1.1h4.1v14.5h-1.5V68h-2.6l-3.6,6.2H279.7L279.7,74.2z M285.4,66.6h2.4v-5.7h-2.4c-2.6,0-3.8,0.9-3.8,2.8
		c0,0.9,0.3,1.6,0.9,2.2C283.2,66.5,284.2,66.6,285.4,66.6z"/>
	<path class="st0" d="M156.8,4.7h-2.6c-0.5,0-1.1,0.3-1.5,0.7c-10.8,11.9-24.9,27.4-35.7,39.3c-0.1,0.1-0.1,0.3-0.1,0.4
		s0.3,0.3,0.4,0.3h25.5h0.3l7.4-8.4l9.6,3.9l-0.5,3.5c0,0.3,0,0.4,0.1,0.7c0.1,0.1,0.4,0.3,0.5,0.3h1.5h23.1l5.9-30.3
		c0.3-1.8,0.7-3.4,0.9-5.1c0.3-1.4,0.9-3.8,0.9-5.1h-35.9V4.7z M163,33.1l-6.1-2.4c-0.1,0-0.3-0.1-0.3-0.3s0-0.3,0.1-0.4l10.1-11.5
		L163,33.1z"/>
	<path class="st0" d="M225.7,5.4c-1.4,1.5-2.6,2.8-3.9,4.3l-25.7,27.8c-1.5,1.6-4.6,4.9-6.6,7.2c-0.1,0.1-0.1,0.3,0,0.4
		c0,0.1,0.3,0.3,0.4,0.3h26.8l22.7-28.1l-6.4,27c0,0.3,0,0.5,0.1,0.7c0.1,0.1,0.4,0.3,0.7,0.3h24.6l9.9-40.5h-41.1
		C226.6,4.7,226.1,5,225.7,5.4z"/>
	<path class="st0" d="M500.8,4.7h-2.6c-0.5,0-1.1,0.3-1.5,0.7c-10.7,11.9-24.9,27.4-35.5,39.3c-0.1,0.1-0.1,0.3-0.1,0.4
		s0.3,0.3,0.4,0.3H487h0.3l7.4-8.4l9.6,3.9l-0.5,3.5c0,0.3,0,0.4,0.1,0.7c0.1,0.1,0.4,0.3,0.5,0.3h1.5h23.1l5.9-30.3
		c0.3-1.8,0.7-3.4,0.9-5.1c0.3-1.4,0.9-3.8,0.9-5.1h-36.1V4.7z M507,33.1l-6.1-2.4c-0.1,0-0.3-0.1-0.3-0.3s0-0.3,0.1-0.4l10.1-11.5
		L507,33.1z"/>
	<path class="st0" d="M359.1,4.7h24.9c11.2,0,18.2,9.2,15.5,20.3l0,0c-2.6,11.2-13.9,20.3-25,20.3h-24.9c-11.2,0-18.2-9.2-15.5-20.3
		l0,0C336.6,13.9,347.8,4.7,359.1,4.7L359.1,4.7z M368.1,15.1c-4.7,0-10,3.9-11.5,8.6l-0.9,2.7c-1.6,4.7,1.1,8.6,5.8,8.6h3.9
		c4.7,0,10-3.9,11.5-8.6l0.9-2.7c1.6-4.7-1.1-8.6-5.8-8.6C372,15.1,368.1,15.1,368.1,15.1z"/>
	<path class="st0" d="M429.1,4.7h24.9c10.4,0,17.3,8,15.9,18.2h-21.8c1.1-4.5-1.5-8-6.1-8h-3.6c-4.7,0-10,3.9-11.5,8.6l-0.9,2.7
		c-1.6,4.7,1.1,8.6,5.8,8.6h3.6c4.5,0,9.5-3.5,11.2-8h22.3c-3.4,10.3-13.9,18.2-24.5,18.2h-24.7c-11.2,0-18.2-9.2-15.5-20.3l0,0
		C406.6,13.9,418,4.7,429.1,4.7z"/>
	<path class="st0" d="M293.1,27.4l2.3-10c0.3-0.9,1.1-1.6,2-1.6h0.9h5.9c5,0,7.3,3.9,4.6,8.4c-3.1,5-10.1,4.3-15.1,4.2
		c-0.3,0-0.4-0.1-0.5-0.3C293.1,28,293.1,27.7,293.1,27.4L293.1,27.4z M288.9,45.4l0.1-0.5l1.5-6.8h21.1c2.6,0,4.2-0.4,6.1-1.1
		c5.4-1.9,9.1-4.1,11.4-9.6c1.4-4.3,1.5-7.7-0.1-12.6c-1.6-3.6-3.9-6.9-7.7-8.5c-1.1-0.4-4.9-1.4-7.2-1.5h-41.9l-2.4,10.5
		c-0.4,1.8-0.8,3.2-1.2,5L263,44.5c0,0.3,0,0.5,0.1,0.7c0.1,0.1,0.4,0.3,0.7,0.3C263.8,45.4,288.9,45.4,288.9,45.4z"/>
	<g>
		<path class="st0" d="M38.4,45.4l13.1,23.4l5.3-23.4H38.4L38.4,45.4z M51.4,69.9l4.9,8.8L33.8,61.5L21.2,45.5L51.4,69.9L51.4,69.9z
			 M62.7,68.9l13.1-23.4H57.4L62.7,68.9L62.7,68.9z M93,45.5L80.4,61.5L57.8,78.6l4.9-8.8L93,45.5L93,45.5z M57,80l-0.4-0.3
			L2.2,38.2L2,38.1l0,0L0.1,27.7c0,0,0,0,0-0.1L0,22.2C0,22,0,22,0.1,21.9l12.7-11.4c0,0,0,0,0.1,0l12.6-4.9c0,0,0,0,0.1,0L57,0l0,0
			l0,0l31.4,5.7c0,0,0,0,0.1,0l12.6,4.9c0,0,0,0,0.1,0l12.7,11.4c0,0,0.1,0.1,0.1,0.3l-0.1,5.4c0,0,0,0,0,0.1L112,38.1v0.1l-0.1,0.1
			L57.4,79.6L57,80C57,80,57.2,80,57,80L57,80z M76.4,27.4l20.4,10.3l5.3-14.1l-18.5-6.1L76.4,27.4L76.4,27.4z M110,38.2H97.2
			l-1.9,4.9L110,38.2L110,38.2z M100.9,10.9l-6.2-0.1l8,12.3l10.8,3.9l0.1-4.9L100.9,10.9L100.9,10.9z M88.4,6.1L57,0.4L25.8,6.1
			l-5.3,4.5l10.3,6.4l26.4,1.5l26.2-1.5l10.3-6.4L88.4,6.1L88.4,6.1z M57,40.8l18.2-13.2L57,18.9l-18.2,8.6L57,40.8L57,40.8z
			 M17.4,37.7l20.4-10.3l-7.3-10l-18.4,6.2L17.4,37.7L17.4,37.7z M17,38.4H4.2l14.7,4.9L17,38.4L17,38.4z M19.5,10.8l-6.2,0.1
			L0.7,22.2l0.1,5l10.8-3.9L19.5,10.8z"/>
	</g>
</g>
</svg>
