<?xml version="1.0" encoding="utf-8"?>
<!-- Generator: Adobe Illustrator 25.4.1, SVG Export Plug-In . SVG Version: 6.00 Build 0)  -->
<svg version="1.1" xmlns="http://www.w3.org/2000/svg" xmlns:xlink="http://www.w3.org/1999/xlink" x="0px" y="0px"
	 viewBox="0 0 437.88 80" style="enable-background:new 0 0 437.88 80;" xml:space="preserve">
<style type="text/css">
	.st0{fill:#00A7E1;}
	.st1{fill:#F15A22;}
</style>
<g id="Layer_2">
</g>
<g id="Layer_1">
	<g>
		<polygon id="polygon4" class="st0" points="361.9,17.88 395.33,0.07 369.05,0 		"/>
		<polygon id="polygon6" class="st1" points="122.63,62.85 91.39,62.85 96.79,49.27 124.67,49.27 130.51,34.09 102.48,34.09 
			108.39,19.12 136.28,19.12 142.63,2.92 114.67,2.92 90,2.92 61.53,79.2 116.28,79.2 		"/>
		<g id="g14" transform="translate(-21.7,-267)">
			<path id="path8" class="st1" d="M152.87,329.85l-6.5,16.42c14.45,1.53,26.79-0.15,26.79-0.15c8.54-0.8,22.92-3.58,30.66-22.19
				l21.61-54.01h-24.67l-18.91,46.72c0,0-2.99,10.15-13.8,12.85C164.18,330.5,157.17,330.07,152.87,329.85"/>
			<path id="path10" class="st1" d="M28.2,329.85l-6.5,16.42c14.45,1.53,26.72-0.15,26.72-0.15c8.54-0.8,22.92-3.58,30.66-22.19
				l21.61-54.01H75.93l-18.91,46.72c0,0-2.99,10.15-13.8,12.85C39.51,330.5,32.43,330.07,28.2,329.85"/>
			<path id="path12" class="st1" d="M278.2,269.92l-18.1,48.91c-4.31,10.95-8.25,11.53-14.23,11.53c-7.01,0-5.26-5.77-4.31-9.12
				l19.34-51.31h-24.45l-19.93,53.65c-6.93,19.12,8.91,23.14,16.72,23.14h12.77c7.01,0,29.05-1.9,35.77-19.93l21.02-56.79h-24.6
				V269.92z"/>
		</g>
		<polygon id="polygon16" class="st1" points="383.28,19.27 361.17,19.27 338.54,79.93 360.73,79.93 		"/>
		<path id="path18" class="st1" d="M433.21,19.27c-11.9,0-18.83,6.86-22.48,11.24l4.45-11.24h-22.12l-22.63,60.66h22.19l10.8-28.76
			c5.55-12.92,17.37-13.72,19.42-13.72h8.39l6.64-18.18H433.21z"/>
		<path id="path20" class="st1" d="M315.4,58.1c0,0-2.92,8.98-15.47,8.98c-1.9,0-4.53-1.09-4.09-4.53c0.44-3.8,2.92-5.26,6.06-5.91
			l15.11-2.85L315.4,58.1z M298.69,45.69c-14.09,1.53-25.4,7.96-26.86,20c-0.73,5.99,2.19,14.23,18.03,14.23
			c0,0,11.9,0.44,19.27-4.6L307.37,80h21.68l14.89-40.73l0.8-2.12c2.04-5.55,1.97-17.81-24.16-18.39
			c-11.02-0.22-29.05,1.9-39.71,20.51h21.61c0,0,3.07-7.96,12.99-7.96c0,0,6.2-0.29,6.72,3.8c0,0,0.73,5.99-8.39,8.25
			C308.47,44.6,298.69,45.69,298.69,45.69"/>
	</g>
</g>
</svg>
