<?xml version="1.0" encoding="utf-8"?>
<!-- Generator: Adobe Illustrator 25.4.1, SVG Export Plug-In . SVG Version: 6.00 Build 0)  -->
<svg version="1.1" id="Layer_1" xmlns="http://www.w3.org/2000/svg" xmlns:xlink="http://www.w3.org/1999/xlink" x="0px" y="0px"
	 viewBox="0 0 109.5 80" style="enable-background:new 0 0 109.5 80;" xml:space="preserve">
<style type="text/css">
	.st0{fill:#87888A;}
</style>
<g>
	<path class="st0" d="M3.2,6.7c0,0-1.2,4.4,0.7,9.4s8.8,14.2,12.4,17.1S26.8,42,32.1,44.2s5.3,2.1,5.3,2.1s-24-2.3-34-17.7
		c0,0-4.1-7-3.2-15.4S3.3,0,3.3,0s1.4,4.9,2.3,7.3s4.6,10.6,8.2,15.4s12.7,15.4,18.7,19.5c0,0-10.2-6.7-16.3-14.2S4,10.1,3.2,6.7z"
		/>
	<path class="st0" d="M109.1,43.3c0,0-3.4,5.4-10.7,8.9c-6.3,3-12.9,5.3-21.8,6.3c-1.3,0.1-2.6,0.3-4.1,0.3
		c-2.8,0.2-5.4,0.1-7.9-0.1c0,0,0,0,0,0c-7.2-0.5-13.1-2.2-18.3-2.9c-6.9-0.9-16.9-2.5-18.3-2.4c0.2-0.3,0-2.5,4.5-2.8
		c4.5-0.3,9.4,1.2,12.7,2.1c3.3,0.8,10.8,2.4,21.4,2.6c10.6,0.2,18.9-1.2,22.8-2.3c3.8-1.1,6.6-3,6.6-3s-13.8,3.7-28.2,3
		c-14.4-0.7-26.1-2.6-28.9-3.2c-2.8-0.5-15.5-3.5-20.8-6.4c-5.3-2.9-9.8-3.7-12.1-2c0,0-3.9-1.7-5.2,0.9c-0.1,0.3,5.1,1.4,8,6
		c3,4.6,10.2,9.5,12.5,10.7c2.4,1.2,10,4.1,11.6,4.4c1.6,0.3,4.3,0.7,4.6,0.7c0.3,0,1.3,0.3,1.1,0.6c-0.2,0.3-0.7,0.8-1.7,0.8
		c-1.1,0-4.5-1-5.1-1.2c-0.6-0.2-3.7,5.7-3.5,6.1c0.2,0.3,12.3,8,16.9,8.8c0,0,0.4-5,0.7-5.2c0.3-0.2,0.7-0.3,1.4,0.9
		c0.7,1.2,0.4,4.3,0.9,4.6c0.5,0.3,2.5,0.5,2.5,0.5v-4.4c0,0,1.3,0.7,2.3,1.6c1,0.9,0.9-10-5.2-15.4c0,0,3,1.1,5.7,1.2
		c0,0,0.3-1.9,0-2.7c0,0,2,3,8.5,3.8c0,0,0.3-1.3,0-2.1c-0.1-0.3,0.3-0.1,1.3,0.3c0,0,0,0,0,0c0.8,0.3,1.9,0.8,3.5,1.2l0,0
		c1.5,0.4,3.4,0.9,5.8,1.2c3.4,0.4,8.1-0.2,12.5-1c1.7-0.3,3.4-0.7,4.9-1.1c3.7-0.9,6.4-1.8,6.4-1.8s-2-2.6-2.6-2.9
		c0,0,5.6-0.3,9.4-1.3c3.8-0.9,5.1-1.4,5.9-2.7C109.9,52.7,109.1,43.3,109.1,43.3z M9.2,43.9c-0.7,0-1.2-0.5-1.2-1.2
		s0.5-1.2,1.2-1.2s1.2,0.5,1.2,1.2S9.8,43.9,9.2,43.9z"/>
</g>
</svg>
