<?xml version="1.0" encoding="utf-8"?>
<!-- Generator: Adobe Illustrator 25.4.1, SVG Export Plug-In . SVG Version: 6.00 Build 0)  -->
<svg version="1.1" id="Layer_1" xmlns="http://www.w3.org/2000/svg" xmlns:xlink="http://www.w3.org/1999/xlink" x="0px" y="0px"
	 viewBox="0 0 295.8 80" style="enable-background:new 0 0 295.8 80;" xml:space="preserve">
<style type="text/css">
	.st0{fill:#87888A;}
	.st1{fill:#FAB800;}
	.st2{fill:#AC067E;}
</style>
<g>
	<path class="st0" d="M112.1,6.3c0,0-1.2,4.2,0.7,8.8s8.3,13.4,11.7,16.1c3.4,2.7,9.8,8.2,14.8,10.2c5,2,5,2,5,2
		s-22.5-2.2-31.9-16.6c0,0-3.9-6.5-3-14.5S112.2,0,112.2,0s1.4,4.6,2.2,6.8s4.3,10,7.7,14.5c3.4,4.5,12,14.5,17.5,18.3
		c0,0-9.5-6.3-15.3-13.4C118.6,19.2,112.9,9.5,112.1,6.3z"/>
	<path class="st1" d="M16.9,79.9c0,0,84.2,0.1,89.7,0s12.5,0.7,17.3-5.3c4.7-6,22.5-28.5,24.1-29.9s3.4-3.3,8.9-3.6
		s10.9-0.3,10.9-0.3s-9.1,28.6-9.4,31.1c-0.3,2.5-0.6,7.6,7.7,7.8S271.1,80,271.1,80s-62.2-1.7-75.2-1.9c-13-0.2-29,1-32.4-2.9
		c-2.3-2.7-0.3-8.4,0.9-11.5c1.2-3.1,8.6-26.9,8.6-26.9L155.2,38c0,0-6.3-0.8-12.3,7.3c0,0-19.4,24.9-20,25.8
		c-0.6,0.8-3.6,5.8-14.9,6.1S30,79,16.9,79.9z"/>
	<path class="st2" d="M1.8,52c0,0,2.6,3.7,2.2,5.9c-0.4,2.2-4.4,14.3-4,17.1c0,0,0.2,0.9,1.8,0.8c1.6,0,2.3-0.5,2.3-0.5
		s-1-1.4-0.8-3S5.5,63.1,5.6,62c0,0,2.7,8.5,6.5,8.5s7.8-7.7,9.5-11.4c0,0-2.6,15.7-0.5,17.9c0,0,1.4,0.7,3.4-0.5c0,0-1-2.7-0.9-5.2
		s1.7-12.5,1.8-13.8c0.1-1.4-0.3-3.5-1.6-3.8c-1.3-0.3-2.2,0-2.2,0s-0.9,3.6-1.8,5.2c-0.9,1.6-4.2,8.3-7.6,8.3S7.6,57.1,6.4,54.5
		S4,50.8,1.8,52z"/>
	<path class="st2" d="M45.5,66.4c-0.5-5.3-0.3-12.9-0.1-13.2c0.2-0.2-2.8,0.4-3.9,1.4c0,0-7.7,9-9.4,11.4l-2.6,0.1
		c0,0-2.2,0.1-3,2.2c0,0,2.9-0.3,4.2-0.2c0,0-3.5,5-2.5,7.6c0,0,1.7,0.3,3.3-0.6c0,0-1-3.1,1.8-6.7c0,0,8.3-0.4,8.8-0.3
		c0.6,0.1,0.7,1.6,0.9,2.6c0.2,1,0.7,4,2.2,4.8c1.5,0.8,3.4-1,3.4-1S46,71.7,45.5,66.4z M35,66.2c1.2-3.6,6.6-8.9,6.6-8.9
		c0.1,0.5,0.6,8.9,0.6,8.9C39.4,66.8,35,66.2,35,66.2z"/>
	<path class="st2" d="M96.3,66.4c-0.5-5.3-0.3-12.9-0.1-13.2c0.2-0.2-2.8,0.4-3.9,1.4c0,0-7.7,9-9.4,11.4l-2.6,0.1
		c0,0-2.2,0.1-3,2.2c0,0,2.9-0.3,4.2-0.2c0,0-3.5,5-2.5,7.6c0,0,1.7,0.3,3.3-0.6c0,0-1-3.1,1.8-6.7c0,0,8.3-0.4,8.8-0.3
		c0.6,0.1,0.7,1.6,0.9,2.6c0.2,1,0.7,4,2.2,4.8c1.5,0.8,3.4-1,3.4-1S96.7,71.7,96.3,66.4z M85.7,66.2c1.2-3.6,6.6-8.9,6.6-8.9
		c0.1,0.5,0.6,8.9,0.6,8.9C90.2,66.8,85.7,66.2,85.7,66.2z"/>
	<path class="st2" d="M241.9,66.3c-0.5-5.3-0.3-12.9-0.1-13.2c0.2-0.2-2.9,0.4-4,1.4c0,0-7.9,9-9.6,11.4l-2.7,0.1c0,0-2.2,0.1-3,2.2
		c0,0,3-0.3,4.3-0.2c0,0-3.6,5-2.5,7.6c0,0,1.7,0.3,3.4-0.6c0,0-1.1-3.1,1.9-6.7c0,0,8.5-0.4,9.1-0.3c0.6,0.1,0.7,1.6,0.9,2.6
		c0.3,1,0.7,4,2.3,4.8c1.6,0.8,3.5-1,3.5-1S242.3,71.6,241.9,66.3z M231,66.1c1.2-3.6,6.8-8.9,6.8-8.9c0.1,0.5,0.6,8.9,0.6,8.9
		C235.6,66.7,231,66.1,231,66.1z"/>
	<path class="st2" d="M292,66.3c-0.5-5.3-0.3-12.9-0.1-13.2c0.2-0.2-2.9,0.4-4,1.4c0,0-7.9,9-9.6,11.4l-2.7,0.1c0,0-2.2,0.1-3,2.2
		c0,0,3-0.3,4.3-0.2c0,0-3.6,5-2.5,7.6c0,0,1.7,0.3,3.4-0.6c0,0-1.1-3.1,1.9-6.7c0,0,8.5-0.4,9.1-0.3c0.6,0.1,0.7,1.6,0.9,2.6
		c0.3,1,0.7,4,2.3,4.8c1.6,0.8,3.5-1,3.5-1S292.4,71.6,292,66.3z M281.1,66.1c1.2-3.6,6.8-8.9,6.8-8.9c0.1,0.5,0.6,8.9,0.6,8.9
		C285.7,66.7,281.1,66.1,281.1,66.1z"/>
	<path class="st2" d="M52.1,61.2c0,0,3.5-3.6,5.6-4.7c2.1-1.1,6.5-1.3,8.1-1.2c1.6,0.1,7.1,1.5,8,6.3s-1.8,8-3.9,9.8
		c-2.1,1.7-5.9,3.2-9,3.2s-2.8-1.1-2.7-1.7c0,0,1.4-7.3,1.9-10c0.5-2.7,0.7-4.7,0.2-5c-0.6-0.3-2.6,0-3.2,0.6c0,0,0.4,2.5-0.2,4.5
		s-2.5,10.7-2.4,11.3c0.1,0.6,0.3,2.2,2.2,2.4S64.4,76,66.9,75c2.5-0.9,6.5-3.8,8.1-6.3c1.7-2.5,2.6-6.7,1.9-8.9
		c-0.6-2.2-2.9-5.4-8.1-6.2S58,53.5,54.7,55.9C51.3,58.3,51.4,59.5,52.1,61.2z"/>
	<path class="st2" d="M111.9,67.4c0,0,2.5-1.2,6.9-1.2c0,0,0.5,3.2-2.4,5.4c-2.9,2.2-5.4,1.7-6,1.5c-0.7-0.2-4.5-2.1-4.1-7.5
		c0.4-5.4,5.5-10.3,10.4-10.4c4.8-0.1,4.2,2.5,5,2.3c0.8-0.2,1.9-2.2,1.5-3.1s-4.4-1.6-7.7-0.7s-11.1,4.3-12.2,11.8s4.6,9.9,7.4,9.7
		c2.8-0.2,6-1.9,6.6-2.4s0.2,0.6-0.1,1.3s-1.5,2.5,0.2,2.9c1.7,0.4,2.8-0.1,3.1-1.8c0.2-1.7,0.5-3.6,0.9-5.8s1.5-5.3,1.5-5.6
		s-0.6,0-1.4,0s-4,0.7-5.5,0.8S112.2,65.4,111.9,67.4z"/>
	<g>
		<path class="st2" d="M257.5,57.9c-0.6-0.9-3.1,0-3.1,0s-0.5,3.5-0.9,5.1c-0.4,1.6-2.8,12.2-2.7,13.4c0.1,1.2,3.6,0,3.6,0
			C254.8,68.7,258.1,58.9,257.5,57.9z"/>
		<path class="st2" d="M271.5,71c-0.5,0.5-2.7,1.8-4.8,0.5c-2.1-1.4-4.3-7-4.3-7s5-2.2,6.3-3.5c1.3-1.2,1.7-4.9,0.3-6.1
			c-1.4-1.1-3.4-1.9-8.8-1.6c-5.4,0.3-9.7,2.9-10.4,3.4c-0.7,0.6-1.9,2.2-1.4,3.3c0.5,1.1,1.2,0.1,1.2,0.1c2.5-3.5,7.8-4.7,9.6-5.1
			c1.8-0.4,7.6-0.5,7.6,3.6s-5.7,4.3-7.2,4.5c-1.5,0.3-1.9,2.2-1.9,2.5s2.1,0,2.1,0c0.5,2,4.3,9,7.3,9c3.1,0,4.4-2.4,4.6-2.6
			S271.9,70.5,271.5,71z"/>
	</g>
	<path class="st2" d="M222,74c0,0-1.8,1.2-3.6-0.1c-1.8-1.3-6.8-7.5-7.9-10.2c0,0,1.2-1,2.4-1.9c1.2-0.9,5.3-4.1,6.3-5
		c0.9-0.9,1.2-1.5,1-1.8c-0.2-0.3-1.3-1.9-2.1-1.7c-0.8,0.1,0.2,0.4-1.3,2.3c-1.5,2-5.4,5.9-6.9,6.6c-0.9,0.4-1.7,0.8-2.3,1.1
		c0.2-0.9,0.3-1.7,0.5-2.4c1.2-5.4,1.8-7.5,1.5-7.5c-0.2-0.1-1.5-0.1-3.1,0.3c-1.6,0.4-5.2,1-6.2,1c0,0,0.3,1.2,1.7,1.4
		c1.4,0.2,3.4-0.2,3.6-0.2s0,0.6-0.1,1.3c-0.1,0.7-3.9,17.4-3.7,17.8c0.2,0.4,2.6,0.4,3.4,0c0.6-0.3,1.2-5.2,2-9.8
		c0.7,1,1.8,2.6,2.5,3.6c1.1,1.5,5.8,8.1,8.9,8.1c3.1,0,4.8-2.6,4.9-3.1C223.6,73,222.7,73.5,222,74z"/>
	<path class="st0" d="M211.6,40.7c0,0-3.2,5.1-10,8.3c-5.9,2.8-12.1,5-20.5,5.9c-1.2,0.1-2.5,0.2-3.8,0.3c-2.6,0.2-5.1,0.1-7.4-0.1
		c0,0,0,0,0,0c-6.8-0.5-12.3-2-17.2-2.7c-6.5-0.9-15.9-2.4-17.2-2.3c0.2-0.3,0-2.3,4.2-2.6c4.3-0.3,8.8,1.2,11.9,2
		c3.1,0.8,10.1,2.2,20.1,2.5s17.8-1.1,21.4-2.2c3.6-1.1,6.2-2.9,6.2-2.9s-13,3.5-26.5,2.8c-13.5-0.7-24.6-2.5-27.2-3
		c-2.6-0.5-14.6-3.3-19.5-6c-5-2.7-9.2-3.5-11.3-1.9c0,0-3.7-1.6-4.9,0.9c-0.1,0.3,4.7,1.4,7.6,5.7c2.8,4.3,9.5,8.9,11.8,10
		c2.2,1.1,9.4,3.8,10.9,4.1c1.5,0.3,4,0.7,4.3,0.7c0.3,0,1.2,0.3,1,0.6c-0.2,0.3-0.6,0.8-1.6,0.8c-1,0-4.2-0.9-4.8-1.1
		c-0.6-0.2-3.5,5.4-3.3,5.7c0.2,0.3,11.6,7.5,15.8,8.2c0,0,0.4-4.7,0.7-4.9c0.3-0.2,0.7-0.3,1.3,0.8c0.7,1.1,0.4,4.1,0.8,4.4
		s2.4,0.5,2.4,0.5V71c0,0,1.2,0.7,2.1,1.5c0.9,0.8,0.8-9.4-4.9-14.4c0,0,2.8,1.1,5.3,1.2c0,0,0.3-1.8,0-2.5c0,0,1.9,2.8,8,3.6
		c0,0,0.3-1.2,0-1.9c-0.1-0.3,0.3-0.1,1.2,0.3c0,0,0,0,0,0c0.7,0.3,1.8,0.7,3.3,1.2l0,0c1.4,0.4,3.2,0.8,5.5,1.1
		c3.2,0.4,7.6-0.2,11.7-1c1.6-0.3,3.2-0.7,4.6-1c3.5-0.9,6-1.7,6-1.7s-1.9-2.4-2.4-2.7c0,0,5.2-0.3,8.8-1.2c3.6-0.9,4.8-1.4,5.6-2.6
		C212.4,49.5,211.6,40.7,211.6,40.7z M117.8,41.2c-0.6,0-1.1-0.5-1.1-1.1c0-0.6,0.5-1.1,1.1-1.1s1.1,0.5,1.1,1.1
		C118.9,40.7,118.4,41.2,117.8,41.2z"/>
	<path class="st2" d="M196.4,75.1c-0.5-0.2-2.9-0.1-5.2,0c-2.3,0.1-4.3,0.5-6.3,0.5c-2,0-2.1-2.4-2.1-2.4c0.7,0.4,3.3,0.3,3.8,0.2
		c0.1,0,0.3,0,0.6-0.1c0.4-2.3,2.7-12.4,2.8-12.8c0.1-0.5,0.1-0.5-0.4-0.5c-0.3,0-0.5-0.1-0.6-0.1c1.6-0.3,3.2-0.7,4.6-1l-3,14.1
		c0.8-0.1,2.3-0.2,3.5-0.3c1.5-0.1,2.2,0.7,2.4,1.5C196.7,74.9,196.9,75.3,196.4,75.1z"/>
	<path class="st2" d="M179.2,71c-0.9,3.9-6.3,5.5-8.7,5.5c-2.5,0-6.5-1.4-6.3-4c0.3-2.6,1.8-2.3,1.8-2.3s0.5,4.6,5.1,4.6
		c4.6,0,5.6-2.4,5.7-3.7c0.1-1.3-1.4-3.4-2.9-4.6c-1.5-1.1-5.3-4.2-5.4-6.3c0-0.7,0-1.3,0.1-1.7c0.7,0.3,1.8,0.7,3.3,1.2l0,0
		c0,0,0.2,0.8,2,2.1C175.5,63.2,180.1,67.2,179.2,71z"/>
	<path class="st2" d="M181.1,54.9c-1.2,0.1-2.5,0.2-3.8,0.3c-2.6,0.2-5.1,0.1-7.4-0.1c0,0,0,0,0,0c0,0,3.6-2.1,6.4-2.1
		C179.1,53.1,181.1,54.9,181.1,54.9z"/>
	<polygon class="st1" points="165.2,48.8 161.9,59.4 165.4,60.9 169.3,48.8 	"/>
</g>
</svg>
