<?xml version="1.0" encoding="utf-8"?>
<!-- Generator: Adobe Illustrator 25.4.1, SVG Export Plug-In . SVG Version: 6.00 Build 0)  -->
<svg version="1.1" xmlns="http://www.w3.org/2000/svg" xmlns:xlink="http://www.w3.org/1999/xlink" x="0px" y="0px"
	 viewBox="0 0 463.2 80" style="enable-background:new 0 0 463.2 80;" xml:space="preserve">
<style type="text/css">
	.st0{fill:#0C0C11;}
	.st1{fill:#006688;}
</style>
<g id="Layer_1">
	<path class="st0" d="M-238.6-885.5c-0.7-0.1-1.8,0-2.5,0c0.5-0.4,1.2-0.7,1.6-0.5c0.1,0,0.1,0,0.2,0.1
		C-239.1-885.8-238.8-885.6-238.6-885.5z"/>
	<g id="text835">
	</g>
</g>
<g id="Layer_2">
	<g>
		<path class="st1" d="M2.3,48.2c0,0,83.5-42.8,163-28.7c0,0,16.7,2.3,30.4,6.7c13.7,4.4,31.7,8.7,31.7,8.7s31.4,6.4,67.5,1
			c0,0,31.4-1,115.2-23.7l47.7-11.7c0,0,10-2.3,2.6,3c0,0-75.2,38.1-145.6,55.7c-46.6,11.7-68.1,17-84.5,18.7
			c-16.3,1.6-34.4,5-58.8-4S95.8,41.6,66,44.3C36.3,46.9,7.5,51,3.2,52c0,0-3.9,1.2-3-2.3L2.3,48.2"/>
	</g>
</g>
</svg>
