<?xml version="1.0" encoding="utf-8"?>
<!-- Generator: Adobe Illustrator 25.4.1, SVG Export Plug-In . SVG Version: 6.00 Build 0)  -->
<svg version="1.1" id="Layer_4" xmlns="http://www.w3.org/2000/svg" xmlns:xlink="http://www.w3.org/1999/xlink" x="0px" y="0px"
	 viewBox="0 0 361.18 80.27" style="enable-background:new 0 0 361.18 80.27;" xml:space="preserve">
<style type="text/css">
	.st0{fill-rule:evenodd;clip-rule:evenodd;fill:#31302E;}
</style>
<g>
	<path class="st0" d="M90.66,34.91c-0.23-0.15-5.4-3.23-13.68-4.07c-8.22-0.83-15.21,2.63-18.46,5.12c-5.4,2.31-9.4,3.17-12.87,3.21
		c-1.06,0.03-3.29,0.1-6.08-0.6c3.22-4.41,4.99-10.27,6.45-15.03c5.23-0.63,12.46-2.48,16.83-5.87c3.94-3.05,7.36-7.62,7.73-11.99
		c0.12-1.61-0.51-3.01-1.44-3.98c-1.68-1.71-4.84-2.02-8.39-1.41c-7.38,1.25-15.25,8.17-17.89,16.83c-0.71,2.29-1.47,4.82-1.72,5.79
		c-11.61,1.08-20.93-0.49-26.2-2.7c-2.14-0.87-3.22-2.13-3.22-2.65c0-0.14-0.1-0.23-0.21-0.23c-0.13,0-0.25,0.09-0.25,0.23
		c0,0.61,0.76,1.82,2.62,2.81c5.08,2.7,15.32,4.29,26.99,3.64c-1.56,5.2-2.89,8.86-6.07,13.11c-0.87-0.28-2.7-1.01-3.76-1.42
		c-4.72-1.84-9.64-3.68-15.55-3.68C8.33,32.01,0,34.01,0,39.61c0,5.47,8.16,8.66,16.21,9.41c10.07,0.91,17.83-3.47,22.76-9.69
		c2.25,0.6,4.38,0.83,6.7,0.78c2.83-0.11,6.17-0.57,10.86-2.4c-4.61,4.56-8.28,11.28-10.63,18.51c-1.34,0.16-4.98,0.6-7.74,1.24
		c-6.92,1.59-10.3,4.01-12.88,6.28c-1.15,1-2.79,2.74-4,5.65c-0.51,1.22-0.76,2.41-0.76,3.55c0,1.69,0.43,3.34,1.64,4.57
		c2.37,2.35,5.96,2.85,9.17,2.26c2.69-0.51,13.21-2.86,17.8-16.62c0,0,2.2-6.4,2.3-6.79c1.87-0.16,6.71-1.05,8.82-1.62
		c1.36-0.35,3.94-1.03,6.49-2.02c-2.89,2.88-2.25,6.61-2.2,6.85c0.05,0.28,0.15,0.48,0.26,0.44c0.24-0.05-0.01-0.58,0.04-1.29
		c0.09-1.08,0.47-2.25,1.72-3.56c2.04-2.13,6.06-2.43,7.13-2.43c1.19,0,2.15-0.96,2.15-2.14c0-1.18-0.96-2.15-2.15-2.15
		c-0.47,0-0.89,0.18-1.26,0.44c-0.06,0.01-0.96,0.88-3.66,2.05c-0.46,0.22-0.9,0.41-1.37,0.59c-1.86,0.78-2.18,0.83-4.93,1.69
		c-1.29,0.4-7.43,1.95-10.76,2.28c1.48-4.57,3.53-12.83,9.65-17.97c4.55-3.79,10.28-4.98,15.41-4.98c1.73,0,7.81-0.19,13.73,2.77
		c0.36,0.19,0.51,0.25,0.6,0.13C91.14,35.33,90.95,35.09,90.66,34.91z M50.42,11.71c2.73-4.39,6.48-7.42,9.34-8.63
		c2.98-1.25,5.9-1.95,7.67-0.31c3.16,2.89-1.56,10.4-6.35,13.67c-5.12,3.51-11.76,5.24-14.68,5.74
		C47.56,18.17,48.65,14.64,50.42,11.71z M17.47,47.05c-7.28,0-12.79-3.59-12.79-6.92c0-5.29,5.02-6.99,10.82-7.11
		c6.18-0.14,10.49,1.68,15.26,3.53c0.63,0.23,2.44,0.93,3.49,1.34C29.99,42.86,25.99,47.05,17.47,47.05z M44.1,62.13
		c-2.89,8.7-7.55,12.47-12.02,14.53c-2.92,1.34-6.16,2.22-9.02-0.1c-1.71-1.35-2.12-4.72-0.33-7.8c2.23-3.83,5.7-6.82,9.88-8.61
		c2.55-1.08,5.92-2.25,13.02-3.04C45.63,57.18,44.1,62.13,44.1,62.13z"/>
	<path class="st0" d="M356.61,40.6c1.14-0.23,1.97-0.73,2.6-1.53c0.64-0.83,0.95-1.78,0.95-2.97c0-1.59-0.49-2.83-1.48-3.7
		c-0.94-0.91-2.28-1.38-3.93-1.38h-5.31V48.4h2.58v-7.26h2.18l4.04,7.26h2.94L356.61,40.6z M352.02,38.78V33.3h2.27
		c2.19,0,3.28,0.91,3.28,2.8c0,1.8-1.09,2.68-3.22,2.68H352.02z"/>
	<polygon class="st0" points="320.7,31.01 331.14,31.01 331.14,33.3 323.24,33.3 323.24,38.19 330.08,38.19 330.08,40.49 
		323.24,40.49 323.24,46.09 331.44,46.09 331.44,48.4 320.7,48.4 	"/>
	<polygon class="st0" points="151.74,33.3 146.98,33.3 146.98,48.4 144.41,48.4 144.41,33.3 139.73,33.3 139.73,31.01 151.74,31.01 
			"/>
	<path class="st0" d="M114.62,37.65l2.04,0.97c1.48,0.7,2.52,1.47,3.2,2.21c0.66,0.84,1,1.81,1,2.96c0,1.38-0.57,2.53-1.61,3.45
		c-1.04,0.94-2.41,1.41-3.96,1.41c-1.54,0-2.84-0.45-3.88-1.34c-1.09-0.84-1.63-1.88-1.63-3.14c0-0.09,0-0.27,0.05-0.47h2.49
		c0.07,0.77,0.37,1.38,0.85,1.89c0.58,0.45,1.21,0.69,2.12,0.69c0.81,0,1.55-0.24,2.1-0.75c0.59-0.45,0.88-1.07,0.88-1.74
		c0-0.7-0.3-1.31-0.88-1.81c-0.54-0.5-1.57-1.16-3.02-1.76c-1.52-0.68-2.61-1.34-3.27-2.09c-0.54-0.67-0.88-1.57-0.88-2.56
		c0-1.43,0.54-2.54,1.51-3.46c1.04-0.91,2.37-1.36,3.93-1.36c1.33,0,2.53,0.44,3.53,1.27c0.99,0.77,1.47,1.78,1.47,2.9v0.36h-2.53
		c0-0.68-0.25-1.2-0.73-1.62c-0.45-0.36-1.08-0.56-1.93-0.56c-0.76,0-1.43,0.2-1.95,0.64c-0.48,0.45-0.74,0.98-0.74,1.63
		C112.77,36.26,113.37,37.03,114.62,37.65z"/>
	<path class="st0" d="M177.15,31.01h-3.67l-4.73,17.39h2.61l1.24-5h4.97l1.19,5h2.82L177.15,31.01z M173.19,41.06l2.02-7.81
		l1.81,7.81H173.19z"/>
	<path class="st0" d="M207.21,40.6c1.17-0.23,2.02-0.73,2.62-1.53c0.61-0.83,1-1.78,1-2.97c0-1.59-0.51-2.83-1.5-3.7
		c-0.98-0.91-2.25-1.38-3.95-1.38h-5.3V48.4h2.54v-7.26h2.2l4.02,7.26h3L207.21,40.6z M202.63,38.78V33.3h2.34
		c2.18,0,3.24,0.91,3.24,2.8c0,1.8-1.06,2.68-3.24,2.68H202.63z"/>
	<polygon class="st0" points="240.93,33.3 234.39,33.3 234.39,38.13 239.66,38.13 239.66,40.49 234.39,40.49 234.39,48.4 
		231.9,48.4 231.9,31.01 240.93,31.01 	"/>
	<polygon class="st0" points="262.77,46.09 271.73,46.09 271.73,48.4 260.22,48.4 260.22,31.01 262.77,31.01 	"/>
	<polygon class="st0" points="295.1,37.65 298.63,31.01 301.46,31.01 296.41,40.27 296.41,48.4 293.84,48.4 293.84,40.27 
		288.9,31.01 291.76,31.01 	"/>
</g>
</svg>
