<?xml version="1.0" encoding="utf-8"?>
<!-- Generator: Adobe Illustrator 25.4.1, SVG Export Plug-In . SVG Version: 6.00 Build 0)  -->
<svg version="1.1" id="Layer_1" xmlns="http://www.w3.org/2000/svg" xmlns:xlink="http://www.w3.org/1999/xlink" x="0px" y="0px"
	 viewBox="0 0 79.9 80" style="enable-background:new 0 0 79.9 80;" xml:space="preserve">
<style type="text/css">
	.st0{fill-rule:evenodd;clip-rule:evenodd;fill:url(#SVGID_1_);}
	.st1{fill-rule:evenodd;clip-rule:evenodd;fill:url(#SVGID_00000173842756267298959790000013903719048372181155_);}
	.st2{fill-rule:evenodd;clip-rule:evenodd;fill:#FFFFFF;}
</style>
<linearGradient id="SVGID_1_" gradientUnits="userSpaceOnUse" x1="0" y1="40" x2="80" y2="40">
	<stop  offset="0" style="stop-color:#AE1A20"/>
	<stop  offset="0.481" style="stop-color:#E41F25"/>
	<stop  offset="0.9995" style="stop-color:#C71F24"/>
</linearGradient>
<path class="st0" d="M40,0c22,0,40,18,40,40c0,22-18,40-40,40C18,80,0,62,0,40C0,18,18,0,40,0L40,0z"/>
<linearGradient id="SVGID_00000160905785914197056840000000092581024616838041_" gradientUnits="userSpaceOnUse" x1="0" y1="52.9423" x2="79.9987" y2="52.9423">
	<stop  offset="0" style="stop-color:#006F38"/>
	<stop  offset="0.4816" style="stop-color:#3AAA48"/>
	<stop  offset="0.9997" style="stop-color:#006F38"/>
</linearGradient>
<path style="fill-rule:evenodd;clip-rule:evenodd;fill:url(#SVGID_00000160905785914197056840000000092581024616838041_);" d="
	M80,38.9C80.5,61.3,62.5,80,40,80C18,80,0,62,0,40c0-4.8,0.7-8.5,1.8-11.8c10.8-7.8,12.9,6.2,18.9,8.6c7.2,2.9,14.1,0.3,20.2-3.2
	C53.7,41,66.7,44.4,80,38.9L80,38.9z"/>
<path class="st2" d="M80,38.9c-7.7,1.3-16.2,0.4-25.8-3.7C47.6,32.3,35.8,23.3,33,22.1c-2.8-1.2-4.7-2.3-9-0.4
	c-7.4,3.3,6.2,9.5,2.8,12.3c-3,2.5-9.6-8.9-18.2-9.5c-3.2-0.2-5,1.4-6.9,3.8c2.5-0.1,3.6-0.8,6-0.3c3.8,0.7,7.3,14.1,15.8,20.7
	c6,4.7,15.4,7.7,33,9.8c3.3,0.4,5.9,2.3,8.8,3.8c-0.2-1.5-0.5-2.8-1.3-4.3c2.1-0.7,2.6-1.8,3.8-2.7c-14.3-2-26.1-3.2-32.8-12
	c-3-3.9,1.9-6.1,5.4-4.7c5.4,2.1,10.6,4.8,17.2,5.7C66.5,45.6,76.7,42.3,80,38.9L80,38.9z"/>
<path class="st2" d="M13,44.1c10.2,12.3,30.6,20.5,47.1,19.2c-4.4,1.8-14.9,3.3-26.4-0.5C21.7,58.8,15.8,50.6,13,44.1L13,44.1z"/>
</svg>
