<?xml version="1.0" encoding="utf-8"?>
<!-- Generator: Adobe Illustrator 25.4.1, SVG Export Plug-In . SVG Version: 6.00 Build 0)  -->
<svg version="1.1" id="Layer_1" xmlns="http://www.w3.org/2000/svg" xmlns:xlink="http://www.w3.org/1999/xlink" x="0px" y="0px"
	 viewBox="0 0 266.3 80" style="enable-background:new 0 0 266.3 80;" xml:space="preserve">
<style type="text/css">
	.st0{fill-rule:evenodd;clip-rule:evenodd;fill:url(#SVGID_1_);}
	.st1{fill-rule:evenodd;clip-rule:evenodd;fill:url(#SVGID_00000115480540072970574660000005557424724949990294_);}
	.st2{fill-rule:evenodd;clip-rule:evenodd;fill:#FFFFFF;}
	.st3{fill:#183052;}
</style>
<g>
	<linearGradient id="SVGID_1_" gradientUnits="userSpaceOnUse" x1="0" y1="40" x2="80" y2="40">
		<stop  offset="0" style="stop-color:#AE1A20"/>
		<stop  offset="0.481" style="stop-color:#E41F25"/>
		<stop  offset="0.9995" style="stop-color:#C71F24"/>
	</linearGradient>
	<path class="st0" d="M40,0c22,0,40,18,40,40c0,22-18,40-40,40C18,80,0,62,0,40C0,18,18,0,40,0L40,0z"/>
	
		<linearGradient id="SVGID_00000140723873791431553190000016304521808552503947_" gradientUnits="userSpaceOnUse" x1="0" y1="52.9423" x2="79.9987" y2="52.9423">
		<stop  offset="0" style="stop-color:#006F38"/>
		<stop  offset="0.4816" style="stop-color:#3AAA48"/>
		<stop  offset="0.9997" style="stop-color:#006F38"/>
	</linearGradient>
	<path style="fill-rule:evenodd;clip-rule:evenodd;fill:url(#SVGID_00000140723873791431553190000016304521808552503947_);" d="
		M80,38.9C80.5,61.3,62.5,80,40,80C18,80,0,62,0,40c0-4.8,0.7-8.5,1.8-11.8c10.8-7.8,12.9,6.2,18.9,8.6c7.2,2.9,14.1,0.3,20.2-3.2
		C53.7,41,66.7,44.4,80,38.9L80,38.9z"/>
	<path class="st2" d="M80,38.9c-7.7,1.3-16.2,0.4-25.8-3.7C47.6,32.3,35.8,23.3,33,22.1c-2.8-1.2-4.7-2.3-9-0.4
		c-7.4,3.3,6.2,9.5,2.8,12.3c-3,2.5-9.6-8.9-18.2-9.5c-3.2-0.2-5,1.4-6.9,3.8c2.5-0.1,3.6-0.8,6-0.3c3.8,0.7,7.3,14.1,15.8,20.7
		c6,4.7,15.4,7.7,33,9.8c3.3,0.4,5.9,2.3,8.8,3.8c-0.2-1.5-0.5-2.8-1.3-4.3c2.1-0.7,2.6-1.8,3.8-2.7c-14.3-2-26.1-3.2-32.8-12
		c-3-3.9,1.9-6.1,5.4-4.7c5.4,2.1,10.6,4.8,17.2,5.7C66.5,45.6,76.7,42.3,80,38.9L80,38.9z"/>
	<path class="st2" d="M13,44.1c10.2,12.3,30.6,20.5,47.1,19.2c-4.4,1.8-14.9,3.3-26.4-0.5C21.7,58.8,15.8,50.6,13,44.1L13,44.1z"/>
	<g>
		<polygon class="st3" points="103.1,46.8 108.1,46.8 112.9,29.2 119.9,29.2 120.9,25.9 100.9,25.9 100,29.1 107.7,29.1 		"/>
		<path class="st3" d="M119.4,46.8l3.1-4.7h10.1l0.9,4.7h4.9l-4.2-20.9h-6L114,46.8H119.4z M130.3,30.3l1.6,8.2h-7L130.3,30.3z"/>
		<path class="st3" d="M212.3,42.1h10.1l0.9,4.7h4.9L224,25.9h-6l-14.2,20.9h5.4L212.3,42.1z M220.1,30.3l1.6,8.2h-7L220.1,30.3z"/>
		<polygon class="st3" points="166.4,46.8 171.7,25.9 166.5,25.9 161.2,46.8 		"/>
		<polygon class="st3" points="241.7,25.9 236.5,25.9 231.3,46.8 236.4,46.8 		"/>
		<path class="st3" d="M179.6,34.7l2.3-8.9h-5.2l-5.2,20.9h5.1l1.6-6.4c0,0,2.2-1.6,5.2-3.8l6.4,10.2h5.7L187,34
			c5.4-3.9,11.3-8.1,11.3-8.1h-7L179.6,34.7z"/>
		<path class="st3" d="M259.1,25.9h-7.3h-5.2l-5.2,20.9h5.1l2.2-8.8c0.9-0.1,2.7-0.2,4.4,0.1c2.3,0.4,5.7,8.8,5.7,8.8h5.4
			c-1.9-5.6-6.1-9.1-6.1-9.1s7.3,0.2,8.1-6.2C267,25.1,259.1,25.9,259.1,25.9z M260.9,32.1c-1.2,3.2-6.6,2.8-6.6,2.8h-4.8l0,0
			l1.5-5.8c1.4,0,4.1,0,5.2,0C257.9,29.1,262.1,28.9,260.9,32.1z"/>
		<path class="st3" d="M147.8,47.2c9.3,0,9.6-6.3,9.6-6.3l3.8-15.1H156L152.3,41c0,0-0.9,2.6-3.9,2.6c-3.1,0-2.4-3.1-2.4-3.1
			l-4.8,0.5C140.8,47.2,147.8,47.2,147.8,47.2z"/>
		<path class="st3" d="M110.2,52.2l-1.4,7.6l-2.7-7.6h-1.8l-2,12c0.1,0,1.9,0,1.9,0l1.4-8.1l2.7,8.1h1.8l2-12H110.2z"/>
		<path class="st3" d="M116.9,52.2l-5.6,12h2.1l1.2-2.7h3.8l0.3,2.7h1.9l-1.7-12H116.9z M115.5,59.6l2.1-4.7l0.6,4.7H115.5z"/>
		<path class="st3" d="M158.3,52.2l-5.6,12h2.1l1.2-2.7h3.8l0.3,2.7h1.9l-1.7-12H158.3z M156.9,59.6l2.1-4.7l0.6,4.7H156.9z"/>
		<path class="st3" d="M216.1,52.2l-5.6,12h2.1l1.2-2.7h3.8l0.3,2.7h1.9l-1.7-12H216.1z M214.7,59.6l2.1-4.7l0.6,4.7H214.7z"/>
		<path class="st3" d="M179,52.2l-5.6,12h2.1l1.2-2.7h3.8l0.3,2.7h1.9l-1.7-12H179z M177.7,59.6l2.1-4.7l0.6,4.7H177.7z"/>
		<polygon class="st3" points="129.7,52.3 122.1,52.3 121.7,54.3 124.5,54.3 122.9,64.3 124.9,64.3 126.7,54.2 129.4,54.2 		"/>
		<polygon class="st3" points="128.8,64.1 128.8,64.3 130.7,64.3 132.9,52.3 130.9,52.3 		"/>
		<polygon class="st3" points="151.3,52.3 150,60.2 150,60.2 147.3,52.3 145.4,52.3 143.3,64.3 145.2,64.3 146.6,56.1 149.2,64.3 
			151.1,64.3 153.3,52.3 		"/>
		<polygon class="st3" points="167.1,52.3 165.2,52.3 163.1,64.1 163.1,64.3 163.9,64.3 164.9,64.3 170,64.3 170.5,62.1 165.3,62.1 
					"/>
		<polygon class="st3" points="186,52.3 183.9,64.3 185.8,64.3 188,52.3 		"/>
		<polygon class="st3" points="242.6,52.3 240.6,64.3 242.5,64.3 244.7,52.3 		"/>
		<path class="st3" d="M197.4,56.1c0-2.5-0.9-3.7-2.9-3.7c-1,0-1.9,0-2.5,0h-0.8h-1.3L188,64.3h1.9l0.9-5.1h1.5c0,0,1.2,1,2.2,5.1
			h2.2c0,0-1.2-4.5-2.2-5C194.4,59.2,197.4,58.6,197.4,56.1z M195.5,55.6c-0.2,1.6-1.6,1.9-2.6,1.9c-0.5,0-1.3,0-1.8,0l0.6-3.3h2.3
			C194,54.2,195.7,54.1,195.5,55.6z"/>
		<path class="st3" d="M230.8,56.1c0-2.5-0.9-3.7-2.9-3.7c-1,0-1.9,0-2.5,0h-0.8h-1.3l-2.1,11.9h1.9l0.9-5.1l0,0h1.5
			c0,0,1.2,1,2.2,5.1h2.2c0,0-1.2-4.5-2.2-5C227.8,59.2,230.8,58.6,230.8,56.1z M228.8,55.6c-0.2,1.6-1.6,1.9-2.6,1.9
			c-0.5,0-1.3,0-1.8,0l0.6-3.3h2.3C227.4,54.2,229.1,54.1,228.8,55.6z"/>
		<path class="st3" d="M240.4,56.1c0-2.5-0.9-3.7-2.9-3.7c-1,0-1.9,0-2.5,0h-0.8H233L231,64.3h1.9l0.9-5.1h1.5c0,0,1.2,1,2.2,5.1
			h2.2c0,0-1.2-4.5-2.2-5C237.4,59.2,240.4,58.6,240.4,56.1z M238.5,55.6c-0.2,1.6-1.6,1.9-2.6,1.9c-0.5,0-1.3,0-1.8,0l0.6-3.3h2.3
			C237,54.2,238.7,54.1,238.5,55.6z"/>
		<path class="st3" d="M263.2,56.1c0-2.5-0.9-3.7-2.9-3.7c-1,0-1.9,0-2.5,0h-0.8h-1.3l-2.1,11.9h1.9l0.9-5.1l0,0h1.5
			c0,0,1.2,1,2.2,5.1h2.2c0,0-1.2-4.5-2.2-5C260.2,59.2,263.2,58.6,263.2,56.1z M261.3,55.6c-0.2,1.6-1.6,1.9-2.6,1.9
			c-0.5,0-1.3,0-1.8,0l0.6-3.3h2.3C259.8,54.2,261.5,54.1,261.3,55.6z"/>
		<path class="st3" d="M139.3,52.1c-2.4-0.4-5.2,2.3-5.8,5.6c-0.6,3.3,0.9,6.4,3.3,6.8c2.4,0.4,4.6-1.6,5.7-4.8
			C143.8,55.8,141.7,52.5,139.3,52.1z M140.6,59.1c-0.7,2.1-1.9,3.5-3.3,3.2c-1.4-0.3-2.2-2.2-1.8-4.4c0.4-2.2,2-4,3.4-3.7
			C140.3,54.4,141.4,56.6,140.6,59.1z"/>
		<path class="st3" d="M208.8,60c-0.7,1.6-1.7,2.6-2.9,2.4c-1.3-0.3-2.1-2.2-1.7-4.4c0.4-2.2,1.9-4,3.3-3.7c0.8,0.2,1.5,1,1.8,2.2
			c0.5-0.1,1.3-0.2,1.9-0.3c-0.4-2.2-1.8-3.7-3.3-4c-2.3-0.4-5,2.3-5.5,5.6c-0.6,3.3,0.9,6.4,3.2,6.8c2,0.4,3.9-1.1,5-3.6
			C210.2,60.5,209.7,60,208.8,60z"/>
		<polygon class="st3" points="253.5,54.3 254.1,52.3 248.7,52.3 247.4,52.3 246.6,52.3 244.6,64.3 246.4,64.3 252.2,64.3 
			252.7,62.1 246.8,62.1 247.4,58.9 252.3,58.9 252.9,57 247.8,57 248.3,54.3 		"/>
	</g>
</g>
</svg>
