<?xml version="1.0" encoding="utf-8"?>
<!-- Generator: Adobe Illustrator 25.4.1, SVG Export Plug-In . SVG Version: 6.00 Build 0)  -->
<svg version="1.1" id="Layer_1" xmlns="http://www.w3.org/2000/svg" xmlns:xlink="http://www.w3.org/1999/xlink" x="0px" y="0px"
	 viewBox="0 0 76.3 80" style="enable-background:new 0 0 76.3 80;" xml:space="preserve">
<style type="text/css">
	.st0{fill-rule:evenodd;clip-rule:evenodd;fill:url(#SVGID_1_);}
	.st1{fill-rule:evenodd;clip-rule:evenodd;fill:url(#SVGID_00000005232221973091336480000007416951696631243160_);}
	.st2{fill-rule:evenodd;clip-rule:evenodd;fill:url(#SVGID_00000108301163783740222330000003525603329117702542_);}
	.st3{fill-rule:evenodd;clip-rule:evenodd;fill:url(#SVGID_00000145058671349765405070000011502134361330591915_);}
</style>
<g>
	<linearGradient id="SVGID_1_" gradientUnits="userSpaceOnUse" x1="-7.6288" y1="57.4082" x2="79.85" y2="9.8162">
		<stop  offset="0" style="stop-color:#82C5E5"/>
		<stop  offset="0.1814" style="stop-color:#379CB2"/>
		<stop  offset="0.3838" style="stop-color:#348B73"/>
		<stop  offset="0.5611" style="stop-color:#843B82"/>
		<stop  offset="0.7364" style="stop-color:#6E1213"/>
		<stop  offset="0.8692" style="stop-color:#B71B2A"/>
		<stop  offset="0.9997" style="stop-color:#DD197C"/>
	</linearGradient>
	<path class="st0" d="M0.5,64.7c0,0,0.8-6.8,9-13s36.1-17.9,46.8-23S76.8,6.9,76.3,0c0,0-38.3,23.3-47,28.4S4.3,44.9,1.5,53.4
		S0.5,64.7,0.5,64.7z"/>
	
		<linearGradient id="SVGID_00000106845098810558613640000013397524452393981874_" gradientUnits="userSpaceOnUse" x1="-0.9531" y1="69.6789" x2="86.5257" y2="22.0868">
		<stop  offset="0" style="stop-color:#82C5E5"/>
		<stop  offset="0.1814" style="stop-color:#379CB2"/>
		<stop  offset="0.3838" style="stop-color:#348B73"/>
		<stop  offset="0.5611" style="stop-color:#843B82"/>
		<stop  offset="0.7364" style="stop-color:#6E1213"/>
		<stop  offset="0.8692" style="stop-color:#B71B2A"/>
		<stop  offset="0.9997" style="stop-color:#DD197C"/>
	</linearGradient>
	<path style="fill-rule:evenodd;clip-rule:evenodd;fill:url(#SVGID_00000106845098810558613640000013397524452393981874_);" d="
		M1.2,75.7c0,0,1.4-8,14.8-15.5s32.1-9.5,37.2-13.8s4.6-9.7,4.6-9.7s-14.6,5.1-22.8,8.2C26.9,47.8,9,54.7,3.7,63.7
		S1.2,75.7,1.2,75.7z"/>
	
		<linearGradient id="SVGID_00000018929942294865331100000012109021990952056704_" gradientUnits="userSpaceOnUse" x1="-1.7562" y1="75.5837" x2="58.0738" y2="56.5468">
		<stop  offset="0" style="stop-color:#82C5E5"/>
		<stop  offset="0.1814" style="stop-color:#379CB2"/>
		<stop  offset="0.3838" style="stop-color:#348B73"/>
		<stop  offset="0.5936" style="stop-color:#399B47"/>
		<stop  offset="0.9986" style="stop-color:#DDB842"/>
	</linearGradient>
	<path style="fill-rule:evenodd;clip-rule:evenodd;fill:url(#SVGID_00000018929942294865331100000012109021990952056704_);" d="
		M3.2,77.5c0,0,3.7-3.4,11.4-6s17.8-2.7,23.5-4.2c5.6-1.5,13.3-9.6,14.5-12.7c0,0-14.2,3.7-23.5,6.7S4.5,70.7,3.2,77.5z"/>
	
		<linearGradient id="SVGID_00000169557784419871085160000000480894656678060970_" gradientUnits="userSpaceOnUse" x1="0.3802" y1="82.2982" x2="60.2103" y2="63.2613">
		<stop  offset="0" style="stop-color:#82C5E5"/>
		<stop  offset="0.1814" style="stop-color:#379CB2"/>
		<stop  offset="0.3838" style="stop-color:#348B73"/>
		<stop  offset="0.5936" style="stop-color:#399B47"/>
		<stop  offset="0.9986" style="stop-color:#DDB842"/>
	</linearGradient>
	<path style="fill-rule:evenodd;clip-rule:evenodd;fill:url(#SVGID_00000169557784419871085160000000480894656678060970_);" d="
		M4.2,80c0,0,4.6,0,10,0s20.4-4.9,22.9-7.6c0,0-12.8-0.3-21,1.7C7.9,76.1,4.2,80,4.2,80z"/>
</g>
</svg>
