<?xml version="1.0" encoding="utf-8"?>
<!-- Generator: Adobe Illustrator 25.4.1, SVG Export Plug-In . SVG Version: 6.00 Build 0)  -->
<svg version="1.1" id="Layer_1" xmlns="http://www.w3.org/2000/svg" xmlns:xlink="http://www.w3.org/1999/xlink" x="0px" y="0px"
	 viewBox="0 0 118.9 80" style="enable-background:new 0 0 118.9 80;" xml:space="preserve">
<style type="text/css">
	.st0{fill:#868A8B;}
</style>
<path class="st0" d="M26.2,71.9L38,60.6l-0.7-11.4l8.1,4.5L57,42.5l-6.8,14l3.9,2.1c0,0,23.6-9.7,36.6-7S117,74.4,118.8,80
	c0,0-13.2-23.4-28.2-24.5c-15.6-1.1-27.3,3-44.6,9.6L39,79l-0.6-11.5L26.2,71.9z"/>
<path class="st0" d="M52.8,55.2c0,0,22.3-9.4,35-7.6c12.7,1.7,24.1,11.6,31.1,24.8c0,0-13-27.7-31.2-29c-12.9-0.9-32.5,7.4-32.5,7.4
	L52.8,55.2z"/>
<path class="st0" d="M57.5,46.3c0,0,20.7-7.8,30.1-6.5c10.2,1.5,20,6.2,31.2,25.2c0,0-13.7-29.5-33.1-29.1
	c-12.9,0.2-26.3,5.9-26.3,5.9L57.5,46.3z"/>
<path class="st0" d="M92.7,8.1L80.8,19.4l0.7,11.4l-8.1-4.5L61.8,37.5l6.8-14l-3.9-2.1c0,0-23.6,9.7-36.6,7S1.9,5.6,0.1,0
	c0,0,13.2,23.4,28.2,24.5c15.6,1.1,27.3-3,44.6-9.6l7-13.9l0.6,11.5L92.7,8.1z"/>
<path class="st0" d="M66,24.8c0,0-22.3,9.4-35,7.6C18.3,30.7,7,20.8,0,7.6c0,0,13,27.7,31.2,29c12.9,0.9,32.5-7.4,32.5-7.4L66,24.8z
	"/>
<path class="st0" d="M61.4,33.7c0,0-20.7,7.8-30.1,6.5C21.1,38.8,11.3,34,0.1,15c0,0,13.7,29.5,33.1,29.1
	c12.9-0.2,26.3-5.9,26.3-5.9L61.4,33.7z"/>
</svg>
