<?xml version="1.0" encoding="utf-8"?>
<!-- Generator: Adobe Illustrator 25.4.1, SVG Export Plug-In . SVG Version: 6.00 Build 0)  -->
<svg version="1.1" id="Layer_1" xmlns="http://www.w3.org/2000/svg" xmlns:xlink="http://www.w3.org/1999/xlink" x="0px" y="0px"
	 viewBox="0 0 320.1 80" style="enable-background:new 0 0 320.1 80;" xml:space="preserve">
<style type="text/css">
	.st0{fill:#868A8B;}
	.st1{fill:#091F62;}
	.st2{fill:#F50002;}
</style>
<g>
	<path class="st0" d="M26.2,71.9L38,60.6l-0.7-11.4l8.1,4.5L57,42.5l-6.8,14l3.9,2.1c0,0,23.6-9.7,36.6-7S117,74.4,118.8,80
		c0,0-13.2-23.4-28.2-24.5c-15.6-1.1-27.3,3-44.6,9.6L39,79l-0.6-11.5L26.2,71.9z"/>
	<path class="st0" d="M52.8,55.2c0,0,22.3-9.4,35-7.6c12.7,1.7,24.1,11.6,31.1,24.8c0,0-13-27.7-31.2-29
		c-12.9-0.9-32.5,7.4-32.5,7.4L52.8,55.2z"/>
	<path class="st0" d="M57.5,46.3c0,0,20.7-7.8,30.1-6.5c10.2,1.5,20,6.2,31.2,25.2c0,0-13.7-29.5-33.1-29.1
		c-12.9,0.2-26.3,5.9-26.3,5.9L57.5,46.3z"/>
	<path class="st0" d="M92.7,8.1L80.8,19.4l0.7,11.4l-8.1-4.5L61.8,37.5l6.8-14l-3.9-2.1c0,0-23.6,9.7-36.6,7S1.9,5.6,0.1,0
		c0,0,13.2,23.4,28.2,24.5c15.6,1.1,27.3-3,44.6-9.6l7-13.9l0.6,11.5L92.7,8.1z"/>
	<path class="st0" d="M66,24.8c0,0-22.3,9.4-35,7.6C18.3,30.7,7,20.8,0,7.6c0,0,13,27.7,31.2,29c12.9,0.9,32.5-7.4,32.5-7.4L66,24.8
		z"/>
	<path class="st0" d="M61.4,33.7c0,0-20.7,7.8-30.1,6.5C21.1,38.8,11.3,34,0.1,15c0,0,13.7,29.5,33.1,29.1
		c12.9-0.2,26.3-5.9,26.3-5.9L61.4,33.7z"/>
	<path class="st1" d="M133.6,28.3l0.9,0.6l1.3,0.7l-17.1,19.2h6.5l3.8-4.4h10.1l0.3,4.4h5.8l-1.8-20.6L133.6,28.3z M138.9,40.5H132
		l6.5-7L138.9,40.5z"/>
	<path class="st1" d="M160.5,28.3h-5.9l-1.7,4.2h5.9L160.5,28.3z"/>
	<path class="st1" d="M152.4,33.8l-6.2,15.1h5.9l6.2-15.1H152.4z"/>
	<g transform="translate(-234.14 -147.16)">
		<path class="st1" d="M408.3,181c-0.8-0.3-1.6-0.4-2.4-0.4c-2,0.1-4,0.9-5.5,2.3l0.8-1.9h-5.5l-6.2,15.1h5.9l1.9-4.7
			c0.5-1.4,1.2-2.7,2-4c0.6-0.8,1.4-1.5,2.3-1.9c1.3-0.7,2.7-0.9,4.1-0.5l0.2,0.1l2.8-3.7L408.3,181z"/>
		<path class="st2" d="M434,177.9c-0.6-0.9-1.5-1.5-2.5-1.7c-1.5-0.4-3-0.6-4.5-0.5h-13.1l1.7,1.3l-7.7,18.7l-0.1,0.2h5.8l3.1-7.6
			h3.5c2.4,0,3.9,0,4.8-0.1c1.2-0.1,2.5-0.3,3.7-0.7c0.9-0.3,1.8-0.8,2.7-1.3c0.9-0.6,1.7-1.4,2.3-2.3c0.6-0.9,1-1.9,1.2-3
			C434.8,179.8,434.6,178.7,434,177.9L434,177.9z M428.8,181.1c-0.1,0.7-0.5,1.4-1,1.9c-0.7,0.6-1.5,1-2.4,1.3
			c-1.9,0.3-3.8,0.5-5.8,0.4h-1.5l2.2-5.4h3.8c1.1,0,2.3,0,3.4,0.2c0.4,0.1,0.8,0.3,1,0.6C428.7,180.3,428.8,180.7,428.8,181.1z"/>
		<path class="st2" d="M454,184.8c0.1-1.1-0.4-2.1-1.5-2.9s-2.9-1.1-5.5-1.2c-2-0.1-4.1,0.3-6,1.1c-1.4,0.6-2.7,1.7-3.5,3.1
			l-0.1,0.2l5.4,0.3l0-0.1c0.3-0.5,0.7-0.9,1.2-1.1c0.7-0.3,1.4-0.4,2.2-0.4c0.6,0,1.3,0.1,1.9,0.4c0.3,0.2,0.5,0.5,0.5,0.9
			c-0.1,0.4-0.2,0.8-0.4,1.2c-1.6,0.3-3.3,0.5-5,0.5c-3,0.2-5.1,0.7-6.4,1.5c-1.2,0.7-2,2-2.2,3.4c-0.2,1.2,0.3,2.4,1.2,3.2
			c1.1,0.9,2.5,1.3,3.9,1.2c1.1,0,2.1-0.2,3.1-0.5c0.8-0.3,1.6-0.6,2.3-1.1c0,0,0,0.1-0.1,0.1c-0.2,0.3-0.4,0.6-0.6,0.9l-0.2,0.3
			h5.5l0-0.1c0.2-0.4,3.7-9.1,3.9-9.5C453.9,185.7,454,185.3,454,184.8L454,184.8z M439.9,191.5c0.1-0.5,0.4-1,0.9-1.2
			c0.8-0.4,2.6-0.8,5.2-1c0.4,0,0.7-0.1,1-0.1l-0.1,0.3c-0.3,0.7-0.7,1.4-1.2,2.1c-0.5,0.5-1,0.8-1.7,1.1c-0.7,0.3-1.5,0.4-2.2,0.4
			c-0.6,0-1.1-0.1-1.6-0.4C440,192.3,439.9,191.9,439.9,191.5L439.9,191.5z"/>
		<path class="st2" d="M496.1,181.9c-1.1-0.8-2.9-1.1-5.5-1.2c-2-0.1-4.1,0.3-6,1.1c-1.4,0.6-2.7,1.7-3.5,3.1l-0.1,0.2l5.4,0.3
			l0-0.1c0.3-0.5,0.7-0.9,1.2-1.1c0.7-0.3,1.4-0.4,2.2-0.4c0.6,0,1.3,0.1,1.8,0.4c0.3,0.2,0.5,0.5,0.5,0.9c-0.1,0.4-0.2,0.8-0.4,1.2
			c-1.6,0.3-3.3,0.5-5,0.5c-3,0.2-5.1,0.7-6.4,1.5c-1.2,0.7-2,2-2.2,3.4c-0.2,1.2,0.3,2.4,1.2,3.2c1.1,0.9,2.5,1.3,3.9,1.2
			c1.1,0,2.1-0.2,3.1-0.5c0.8-0.3,1.5-0.6,2.2-1.1l-0.1,0.1c-0.2,0.3-0.4,0.6-0.6,0.9l-0.2,0.3h5.5l0-0.1c0.2-0.4,3.7-9.1,3.9-9.5
			c0.2-0.5,0.3-0.9,0.3-1.4C497.7,183.7,497.2,182.7,496.1,181.9L496.1,181.9z M483.4,191.5c0.1-0.5,0.5-1,0.9-1.2
			c0.8-0.4,2.6-0.8,5.2-1c0.4,0,0.7-0.1,1-0.1l-0.1,0.3c-0.3,0.7-0.7,1.4-1.2,2.1c-0.5,0.5-1,0.8-1.6,1.1c-0.7,0.3-1.5,0.4-2.2,0.4
			c-0.6,0-1.1-0.1-1.6-0.4C483.5,192.3,483.3,191.9,483.4,191.5L483.4,191.5z"/>
		<path class="st2" d="M549.4,181.9c-1.1-0.8-3-1.1-5.5-1.2c-2-0.1-4.1,0.3-6,1.1c-1.4,0.6-2.7,1.7-3.5,3.1l-0.1,0.2l5.4,0.3l0-0.1
			c0.3-0.5,0.7-0.9,1.2-1.1c0.7-0.3,1.4-0.4,2.2-0.4c0.6,0,1.3,0.1,1.9,0.4c0.3,0.2,0.5,0.5,0.5,0.9c-0.1,0.4-0.2,0.8-0.4,1.2
			c-1.6,0.3-3.3,0.5-5,0.5c-3,0.2-5.1,0.7-6.4,1.5c-1.2,0.7-2,2-2.2,3.4c-0.2,1.2,0.3,2.4,1.2,3.2c1.1,0.9,2.5,1.3,3.9,1.2
			c1.1,0,2.1-0.2,3.1-0.5c0.8-0.3,1.5-0.6,2.2-1.1l-0.1,0.1c-0.2,0.3-0.4,0.6-0.6,0.9l-0.2,0.3h5.5l0-0.1c0.2-0.4,3.7-9.1,3.9-9.5
			c0.2-0.5,0.3-0.9,0.3-1.4C551.1,183.7,550.6,182.7,549.4,181.9L549.4,181.9z M536.8,191.5c0.1-0.5,0.4-1,0.9-1.2
			c0.8-0.4,2.6-0.8,5.2-1c0.4,0,0.7-0.1,1-0.1l-0.1,0.3c-0.3,0.7-0.7,1.4-1.2,2.1c-0.5,0.5-1,0.8-1.7,1.1c-0.7,0.3-1.5,0.4-2.2,0.4
			c-0.6,0-1.1-0.1-1.6-0.4C536.9,192.3,536.7,191.9,536.8,191.5L536.8,191.5z"/>
		<path class="st2" d="M474.8,181.8c-1.1-0.8-2.4-1.1-3.7-1.1c-1.2,0-2.4,0.2-3.5,0.5c-1.2,0.4-2.3,0.9-3.3,1.5l0.7-1.7h-5.3
			l-6,14.7h5.6l2.4-6c0.4-1.2,1-2.3,1.7-3.4c0.7-0.8,1.5-1.4,2.4-1.9c0.8-0.4,1.7-0.7,2.6-0.7c0.5,0,1.1,0.1,1.5,0.4
			c0.3,0.2,0.5,0.6,0.4,1c-0.2,0.7-0.5,1.5-0.8,2.1l-3.5,8.4h5.6l3.4-8.3c0.4-0.9,0.8-1.9,1-2.9
			C476.1,183.6,475.7,182.5,474.8,181.8L474.8,181.8z"/>
		<path class="st2" d="M529.1,181.7c-1.1-0.7-2.3-1-3.6-1c-1.4,0-2.7,0.3-4,0.7c-1.1,0.4-2.1,0.9-3,1.7c-0.2-0.7-0.7-1.3-1.3-1.7
			c-1-0.5-2.2-0.8-3.4-0.7c-2.1,0-4.2,0.7-6,1.9l0.6-1.5h-5.2l-6,14.7h5.5l2.8-6.7c0.3-0.7,0.6-1.5,1-2.2c0.4-0.6,0.8-1.2,1.4-1.7
			c0.5-0.4,1.1-0.8,1.7-1c0.6-0.2,1.2-0.4,1.8-0.4c0.5,0,0.9,0.1,1.3,0.3c0.3,0.2,0.4,0.5,0.3,0.8c-0.2,0.7-0.4,1.3-0.7,1.9
			l-3.7,8.9h5.6l2.7-6.7c0.5-1.4,1.3-2.8,2.4-3.8c1-0.9,2.2-1.5,3.6-1.5c0.5,0,0.9,0.1,1.3,0.3c0.2,0.2,0.4,0.5,0.3,0.8
			c-0.2,0.6-0.4,1.2-0.7,1.8l-3.7,9.1h5.6l3.7-8.9c0.4-0.8,0.7-1.7,0.9-2.6C530.3,183.3,529.9,182.3,529.1,181.7L529.1,181.7z"/>
		<path class="st2" d="M552.2,191.6c0.4,0,0.7,0.1,1,0.3c0.3,0.2,0.6,0.5,0.7,0.8c0.2,0.3,0.3,0.7,0.3,1c0,0.7-0.4,1.4-1,1.8
			c-1,0.6-2.2,0.2-2.8-0.8c0,0,0,0,0,0c-0.2-0.3-0.3-0.7-0.3-1c0-0.4,0.1-0.7,0.3-1c0.2-0.3,0.4-0.6,0.7-0.8
			C551.5,191.7,551.8,191.7,552.2,191.6 M552.2,192c-0.9,0-1.7,0.8-1.6,1.8c0,1,0.8,1.7,1.7,1.7c0.9,0,1.7-0.8,1.6-1.8
			c0-0.4-0.2-0.9-0.5-1.2C553.1,192.2,552.7,192,552.2,192L552.2,192z M551.7,194.9h-0.4v-2.2h0.8c0.2,0,0.4,0,0.6,0.1
			c0.1,0,0.2,0.1,0.3,0.2c0.1,0.1,0.1,0.2,0.1,0.3c0,0.2-0.1,0.3-0.2,0.4c-0.1,0.1-0.3,0.2-0.4,0.2c0.1,0,0.2,0.1,0.2,0.2
			c0.1,0.1,0.2,0.3,0.3,0.4l0.3,0.4h-0.4l-0.2-0.4c-0.1-0.2-0.2-0.3-0.3-0.5c-0.1-0.1-0.2-0.1-0.3-0.1h-0.2V194.9z M551.7,192.9v0.7
			h0.4c0.1,0,0.3,0,0.4-0.1c0.1-0.1,0.1-0.2,0.1-0.3c0-0.1,0-0.2-0.1-0.3c-0.1-0.1-0.3-0.1-0.4-0.1H551.7z"/>
	</g>
</g>
</svg>
