<?xml version="1.0" encoding="utf-8"?>
<!-- Generator: Adobe Illustrator 25.4.1, SVG Export Plug-In . SVG Version: 6.00 Build 0)  -->
<svg version="1.1" id="Layer_1" xmlns="http://www.w3.org/2000/svg" xmlns:xlink="http://www.w3.org/1999/xlink" x="0px" y="0px"
	 viewBox="0 0 462.7 80" style="enable-background:new 0 0 462.7 80;" xml:space="preserve">
<style type="text/css">
	.st0{fill:#0177C1;}
</style>
<g>
	<polygon points="180.9,25.8 161.1,67.9 166.7,67.9 186.4,25.8 	"/>
	<polygon points="174.8,67.9 180.4,67.9 193.8,39.5 188.3,39.5 	"/>
	<polygon points="160.4,50 162.4,45.4 147.8,45.4 153.2,33.7 169,33.7 171.1,29 155.4,29 153.7,29 149.9,29 131.8,67.9 135.4,67.9 
		137.4,67.9 153.3,67.9 155.4,63.2 139.5,63.2 145.6,50 	"/>
	<path d="M193.6,35c1.4,0.6,3.6-0.4,4.3-2.1c0.8-1.7,0.3-3.5-1.1-4.1c-1.4-0.6-3.8,0.4-4.4,2.5C191.9,32.9,192.2,34.4,193.6,35z"/>
	<polygon points="307.6,39.5 294.1,67.9 299.7,67.9 313.1,39.5 	"/>
	<path d="M312.9,35c1.4,0.6,3.6-0.4,4.3-2.1c0.8-1.7,0.3-3.5-1.1-4.1c-1.4-0.6-3.8,0.4-4.4,2.5C311.2,32.9,311.5,34.4,312.9,35z"/>
	<path d="M202,64.3c-3.6,0.5-1-4.9-1-4.9l7.3-15.6h6.6l2.1-4.2h-6.7l4-8.5c0,0-1.7,0.1-3.7,0.9c-2,0.8-2.5,1.8-2.5,1.8
		s-1.2,2.4-2.8,5.8h-5.7l-2.5,4.2h6.1c-3.1,6.4-6.6,13.7-7.4,15.3c-1.3,2.8-3.7,9.4,3.2,9.4c7,0,6.5-4.7,6.5-4.7
		S205.6,63.7,202,64.3z"/>
	<path d="M234.7,38.8c-13.7,0-20,14.2-20.5,15.4c-0.5,1.2-6.1,14.3,6.1,14.3c0,0,5.4,0.4,10.6-1.4c0,0,2.2-3.7,2.1-4.6
		c0,0-0.4-0.1-2.3,0.7c-1.9,0.8-4,1.3-7,1.3s-8.6-2.9-4.5-9.4h19.6C238.9,55.1,248.4,38.8,234.7,38.8z M235.8,51.1h-14.6
		c0,0,4.3-8.4,11.2-8.4S235.8,51.1,235.8,51.1z"/>
	<path d="M252.4,67.9h5.5l8.7-10h18.3l-0.8,10h5.7l2.8-38.9h-6.8L252.4,67.9z M285.3,53.1h-14.6l16-18.5L285.3,53.1z"/>
	<path d="M325.6,44.2L325.6,44.2l2.2-4.7h-5.5l-13.5,28.4h5.6l7.7-16.3l0,0c0,0,4.7-9.8,12.9-7.2l2.3-4.9
		C337.4,39.5,331.4,37.6,325.6,44.2z"/>
	<polygon points="380.9,39.5 362.9,62.4 366.9,39.5 360.6,39.5 342.6,63.1 346.9,39.5 341.8,39.5 337,67.9 343.3,67.9 361,44.9 
		357.4,67.9 363.2,67.9 385.8,39.5 	"/>
	<path d="M406.1,39.9c-4.3-2.8-14.2,0.4-14.7,0.8c-0.5,0.4-1.8,4.3-1.8,4.3s4.6-2.8,9.8-2.8s1.6,7.8,1.6,7.8s-7.5-0.4-13.1,1.7
		c-5.6,2.1-11.1,7.8-10.1,12.3c1,4.4,6.4,4.3,8.7,4c2.2-0.3,9-4.3,9-4.3l-1.7,4h4.6l9.2-20.3C407.6,47.6,410.4,42.7,406.1,39.9z
		 M387.1,64.7c-8.9,0-1.7-8.9,3.8-10.1c5.5-1.2,8.6-0.8,8.6-0.8S396.1,64.7,387.1,64.7z"/>
	<path d="M437.3,39.5l-17.8,22.4l2.5-22.4h-5.6l-3,28.4c0,0-4.2,5.7-6.4,6.9c-2.2,1.1-5.3,0.5-5.3,0.5l-2.3,4.1
		c7.5,2.8,14.2-5.3,14.2-5.3l29.1-34.6H437.3z"/>
	<path d="M455.1,39.1c-7.4,0-13.9,5.4-13.9,10s8.1,7.7,7.4,10.6c-0.7,2.9-5.1,4.4-7.8,4.4s-6-2-6-2l-2.3,4.7c0,0,0,1.5,7.7,1.5
		c7.7,0,13.8-6.4,14.7-8.6c0.8-2.2,0.5-5.4-1.9-7c-2.4-1.6-5.7-4-5.6-5.8c0.1-1.8,2.9-3.7,6.6-3.7c3.7,0,6.3,1.3,6.3,1.3l1.9-3.7
		C462.2,40.8,462.5,39.1,455.1,39.1z"/>
	<path class="st0" d="M129.4,51.1c0,0-1.2-5.2-1.5-10.6c-0.3-5.4,5.7-14.7,20.4-19.8s49.8-9.9,75.7-11.4s115.8-3,126.6-3.3
		c10.8-0.3,107.9-2.4,110.5-2.7s2.5-1.4-3.2-1.4S305,3,286.2,3S166.5-0.4,152.4,0c-14.1,0.4-57.7,3.6-90.7,10.6S4.9,20.8,3.2,21.8
		c-1.7,1-5.2,2.6-1.7,2.6c0,0,18.5-0.6,26.2-1.1c7.6-0.4,29.5-1.1,46.2,5.1s28.3,14.2,34.7,16.6C115,47.5,130,54.1,129.4,51.1z"/>
</g>
</svg>
