<?xml version="1.0" encoding="utf-8"?>
<!-- Generator: Adobe Illustrator 25.4.1, SVG Export Plug-In . SVG Version: 6.00 Build 0)  -->
<svg version="1.1" id="Layer_2_00000159471598350358213750000014612203606435250611_"
	 xmlns="http://www.w3.org/2000/svg" xmlns:xlink="http://www.w3.org/1999/xlink" x="0px" y="0px" viewBox="0 0 93.7 80"
	 style="enable-background:new 0 0 93.7 80;" xml:space="preserve">
<style type="text/css">
	.st0{fill-rule:evenodd;clip-rule:evenodd;fill:#DF1F27;}
</style>
<path class="st0" d="M21.8,17h16.3c3,0.1,10.2,0,13.9,2.7C43.8,4.7,33.6,6.8,19.4,5.9C8.2,5.9,2,2.3,0.1,1.1
	C-1.1,1.1,6.7,17,21.8,17"/>
<path class="st0" d="M75.4,4.2c-3.5-0.4-1.2-4.4,2.1-3.4c2.5,0.8,3.1,3.9,1.5,5.4c-2.3,2-4.6,2-7.4,2c3.2-1.2,4.8-2.4,4.4-3.9
	C75.6,2.6,75.8,4.2,75.4,4.2"/>
<path class="st0" d="M93.7,10.2c-0.2,6.9-6,8.9-10.2,9c-1.1-2.3-2.5-4.5-4.3-6.4C83.4,13.4,90.9,12.2,93.7,10.2"/>
<path class="st0" d="M80.8,10.7c-0.8-0.9-2.2-2.6-3.7-2c-1.6,0.7-3.3,0.7-5.1,0.6C72.7,9.8,75.8,11.6,80.8,10.7"/>
<path class="st0" d="M43.2,42.8c5.3-10.4-17.4-11-16.2,1c1.5,16.9,29.9,12.4,32.9-9.3c-4.5,12-13.9,13.1-17.6,10.7
	c-1.4-0.7-1.4-2.3-0.8-2.7C42,42.2,43,42.2,43.2,42.8"/>
<path class="st0" d="M2.2,42.5c4.4-9.3,12-10.6,17.6-8.1c2,1.1,2.6,2.7,2,4.2c-1.4-3.7-6.8-2.2-7.9,3.3C9,66.8,60.6,71.7,62.6,33.8
	c0.6,2.4,0.9,4.9,0.9,7.5c0,18-15.1,32.6-33.7,32.6c-2.6,0-5.2-0.3-7.7-0.8c-0.7-0.2-1.4-0.4-2.1-0.6C3.1,66.4-2.1,51.7,2.2,42.5"/>
<path class="st0" d="M62.4,13.7L62.4,13.7c0.7,0,1.4,0.5,1.4,1.2c0,0.7-0.5,1.4-1.2,1.4c-0.7,0-1.4-0.5-1.4-1.2
	C61.1,14.4,61.7,13.7,62.4,13.7 M57.5,22.5L57.5,22.5l4.1-1.9c-1.1-0.2-2.5-0.6-3.3-1.5C57.8,20.4,57.6,21.5,57.5,22.5z M58.5,18.3
	c4.2,3.1,9.1,0.6,11.5-1.1c1.2,0.4-0.8,1.8-1.4,2c0,0,0,0,0,0h0c0.2,0.1,0.4,0.2,0.7,0.3c0.2,0.1,0.4,0.2,0.5,0.3
	c1.9,1.2,3.1,3.3,3.1,5.7c0,3.8-3.1,6.8-6.8,6.8c-0.4,0-0.8,0-1.2-0.1l0,0.2c2.3,7,2.3,14.8-0.1,21.8c22.1-8.6,23.5-34.6,5.7-45.3
	c-0.3-0.2-0.6-0.3-0.8-0.4l0.2-0.1c6.2-3.1,1.5-10.7-6.7-7.7c2.9,1.1,2.6,4.2-2.3,8C58,11.3,56.2,13.8,58.5,18.3z"/>
<path class="st0" d="M62.2,59.2c-1,3.8-2.7,7.3-5.1,10.3C51.9,75.9,43.9,79.9,34.9,80c-5.5,0-10.6-1.6-14.9-4.3
	c0.4,0.1,0.7,0.3,1,0.4c0.7,0.2,1.4,0.5,2.1,0.7c2.5,0.6,5.2,0.9,7.9,0.9C44.7,77.6,56.4,70.1,62.2,59.2"/>
<path class="st0" d="M29.9,28.5h21.2c2.3,0.1,7.4,0.2,10.3,2.4c-3.3-6.8-9.6-10.8-21.2-10.4l-16.9-0.2c-2.9,0-7-0.6-9.4-1.5
	C16,22.3,21.5,28.5,29.9,28.5"/>
<path class="st0" d="M92.6,17.9c0.2,4.5-0.9,10-6.8,11.2c-0.1-2.6-0.6-5.3-1.6-7.7C87,21.2,90.4,20.3,92.6,17.9"/>
<path class="st0" d="M91.4,28.4c-0.9,4.9-3.1,9.5-7.1,10.5c1-2.5,1.5-5.1,1.7-7.8C88.3,30.6,90.1,29.7,91.4,28.4"/>
</svg>
