<?xml version="1.0" encoding="utf-8"?>
<!-- Generator: Adobe Illustrator 25.4.1, SVG Export Plug-In . SVG Version: 6.00 Build 0)  -->
<svg version="1.1" id="Layer_2_00000159471598350358213750000014612203606435250611_"
	 xmlns="http://www.w3.org/2000/svg" xmlns:xlink="http://www.w3.org/1999/xlink" x="0px" y="0px" viewBox="0 0 238.3 80"
	 style="enable-background:new 0 0 238.3 80;" xml:space="preserve">
<style type="text/css">
	.st0{fill-rule:evenodd;clip-rule:evenodd;fill:#DF1F27;}
	.st1{fill:#2B2A29;}
</style>
<g>
	<path class="st0" d="M161.4,77.3c0.6-2.2-0.4-5-2.6-5.5l-1.1,3.4h-5.3l0.1-0.2l6-20.4l-7.5,0l-6.6,22.7L161.4,77.3L161.4,77.3z"/>
	<path class="st0" d="M117.5,77.3l5.4-18.3h-7.1l-2.9,9.8c-0.7,2.4-1.7,5.7-6.2,5.7c-1.8,0-2.8-0.8-3.1-2c-0.3-0.8,0-2.3,0.3-3.1
		l3.1-10.4h-7.1l-3.1,10.5c-0.6,1.9-1.5,4.2-0.4,5.9c1.1,1.6,3.7,2.3,6.3,2.3c3.6,0,5.8-1.2,8.8-3.1l-0.8,2.8L117.5,77.3L117.5,77.3
		z"/>
	<path class="st0" d="M125.8,72.5c-0.6,0.3-1.6,1.3-2.3,2.2c-0.3,0.5-0.6,0.9-0.9,1.4c1.8,1.1,4.2,1.5,6.7,1.5
		c6.3,0,10.8-2.5,11.8-6c2.1-7-10.7-5.2-9.6-8.9c0.4-1.5,2.6-2.2,4.5-2.2c2.3,0,4.1,1.5,4,3.2c0.8-0.2,2.1-1.1,2.8-2.1l0.9-1.3
		c-1.7-1.2-4.4-1.8-7-1.8c-4.7,0-9.6,2.1-10.7,6c-1.9,6.6,10.5,5.2,9.5,8.8c-0.4,1.3-2.9,2.3-4.7,2.3
		C127.9,75.7,126.1,74.4,125.8,72.5"/>
	<path class="st0" d="M176.2,50.1L176.2,50.1c-2.2,0-4.5,1.4-4.9,3c-0.5,1.6,1,3,3.2,3s4.6-1.4,5-3C180,51.5,178.4,50.1,176.2,50.1
		 M170.5,58.9l-5.4,18.3h7.1l5.4-18.3H170.5z"/>
	<path class="st0" d="M184.3,58.9l-5.4,18.3h7.2l2.5-8.7c0.7-2.4,2-6.8,6.5-6.8c3.7,0,3.5,2.6,2.5,6.1l-2.7,9.4h7.2l3.2-11.1
		c1.3-4.5,0.6-7.6-6-7.6c-3.2,0-6.4,1.4-8.9,3.1l0.8-2.8H184.3z"/>
	<path class="st0" d="M78.1,57.2L78.1,57.2c13.3-2,9.3,10.9,2.3,10.9h-5.3L78.1,57.2z M82.1,55l-10.5,0c-0.4,0.8-2.3,7.1-2.4,7.6
		l-4.3,14.7h7.5l2.2-7.7h3.9l4.4,7.7h6.4l-4.5-7.8h0.1l0,0H85h0h0.1l0,0C97.2,68.9,97.4,55,82.1,55z"/>
	<path class="st0" d="M218.1,65.5L218.1,65.5c1.4-3.1,3.5-4.1,5.7-4.1c5.5-0.2,3.7,5.2-1.5,5.2h-4.6L218.1,65.5z M217.1,68.1h3
		c2.9-0.1,14,0.5,12.3-5.8c-0.6-2.3-3.7-3.8-8.4-3.8c-7.5,0-13,3.8-14.5,9.1c-1.8,6.2,1.5,10,10.1,10c2.5,0,5.6-0.6,7.9-1.7l1.7-2.1
		l-0.5-0.4c-1.9,1-4.4,1.7-6.6,1.7C216.8,75.2,215.8,72,217.1,68.1z"/>
	<path class="st0" d="M21.8,17h16.3c3,0.1,10.2,0,13.9,2.7C43.8,4.7,33.6,6.8,19.4,5.9C8.2,5.9,2,2.3,0.1,1.1
		C-1.1,1.1,6.7,17,21.8,17"/>
	<path class="st0" d="M75.4,4.2c-3.5-0.4-1.2-4.4,2.1-3.4c2.5,0.8,3.1,3.9,1.5,5.4c-2.3,2-4.6,2-7.4,2c3.2-1.2,4.8-2.4,4.4-3.9
		C75.6,2.6,75.8,4.2,75.4,4.2"/>
	<path class="st0" d="M93.7,10.2c-0.2,6.9-6,8.9-10.2,9c-1.1-2.3-2.5-4.5-4.3-6.4C83.4,13.4,90.9,12.2,93.7,10.2"/>
	<path class="st0" d="M80.8,10.7c-0.8-0.9-2.2-2.6-3.7-2c-1.6,0.7-3.3,0.7-5.1,0.6C72.7,9.8,75.8,11.6,80.8,10.7"/>
	<path class="st0" d="M43.2,42.8c5.3-10.4-17.4-11-16.2,1c1.5,16.9,29.9,12.4,32.9-9.3c-4.5,12-13.9,13.1-17.6,10.7
		c-1.4-0.7-1.4-2.3-0.8-2.7C42,42.2,43,42.2,43.2,42.8"/>
	<path class="st0" d="M2.2,42.5c4.4-9.3,12-10.6,17.6-8.1c2,1.1,2.6,2.7,2,4.2c-1.4-3.7-6.8-2.2-7.9,3.3C9,66.8,60.6,71.7,62.6,33.8
		c0.6,2.4,0.9,4.9,0.9,7.5c0,18-15.1,32.6-33.7,32.6c-2.6,0-5.2-0.3-7.7-0.8c-0.7-0.2-1.4-0.4-2.1-0.6C3.1,66.4-2.1,51.7,2.2,42.5"
		/>
	<path class="st0" d="M62.4,13.7L62.4,13.7c0.7,0,1.4,0.5,1.4,1.2c0,0.7-0.5,1.4-1.2,1.4c-0.7,0-1.4-0.5-1.4-1.2
		C61.1,14.4,61.7,13.7,62.4,13.7 M57.5,22.5L57.5,22.5l4.1-1.9c-1.1-0.2-2.5-0.6-3.3-1.5C57.8,20.4,57.6,21.5,57.5,22.5z M58.5,18.3
		c4.2,3.1,9.1,0.6,11.5-1.1c1.2,0.4-0.8,1.8-1.4,2c0,0,0,0,0,0h0c0.2,0.1,0.4,0.2,0.7,0.3c0.2,0.1,0.4,0.2,0.5,0.3
		c1.9,1.2,3.1,3.3,3.1,5.7c0,3.8-3.1,6.8-6.8,6.8c-0.4,0-0.8,0-1.2-0.1l0,0.2c2.3,7,2.3,14.8-0.1,21.8c22.1-8.6,23.5-34.6,5.7-45.3
		c-0.3-0.2-0.6-0.3-0.8-0.4l0.2-0.1c6.2-3.1,1.5-10.7-6.7-7.7c2.9,1.1,2.6,4.2-2.3,8C58,11.3,56.2,13.8,58.5,18.3z"/>
	<path class="st0" d="M62.2,59.2c-1,3.8-2.7,7.3-5.1,10.3C51.9,75.9,43.9,79.9,34.9,80c-5.5,0-10.6-1.6-14.9-4.3
		c0.4,0.1,0.7,0.3,1,0.4c0.7,0.2,1.4,0.5,2.1,0.7c2.5,0.6,5.2,0.9,7.9,0.9C44.7,77.6,56.4,70.1,62.2,59.2"/>
	<path class="st0" d="M29.9,28.5h21.2c2.3,0.1,7.4,0.2,10.3,2.4c-3.3-6.8-9.6-10.8-21.2-10.4l-16.9-0.2c-2.9,0-7-0.6-9.4-1.5
		C16,22.3,21.5,28.5,29.9,28.5"/>
	<path class="st0" d="M92.6,17.9c0.2,4.5-0.9,10-6.8,11.2c-0.1-2.6-0.6-5.3-1.6-7.7C87,21.2,90.4,20.3,92.6,17.9"/>
	<path class="st0" d="M91.4,28.4c-0.9,4.9-3.1,9.5-7.1,10.5c1-2.5,1.5-5.1,1.7-7.8C88.3,30.6,90.1,29.7,91.4,28.4"/>
	<g>
		<path class="st1" d="M93.7,48.6l-0.1-2.2h-3.5l-1.4,2.2h-2.5l6.5-9.8h2.6l0.6,9.8H93.7z M93.5,41.4c0-0.1,0-0.2,0-0.2
			c0-0.1,0-0.2,0-0.2c0-0.1,0-0.2,0-0.2c0-0.1,0-0.1,0-0.2h0c0,0,0,0.1-0.1,0.2c0,0.1-0.1,0.1-0.1,0.2c0,0.1-0.1,0.2-0.1,0.2
			c0,0.1-0.1,0.2-0.1,0.2l-2.1,3.3h2.5L93.5,41.4z"/>
	</g>
	<g>
		<path class="st1" d="M102.6,48.6h-2.4l-0.4-7h2.1l0,3.9c0,0.1,0,0.2,0,0.3s0,0.2,0,0.4c0,0.1,0,0.3,0,0.4c0,0.1,0,0.2,0,0.4h0
			c0-0.1,0.1-0.2,0.2-0.3c0-0.1,0.1-0.2,0.2-0.4c0.1-0.1,0.1-0.2,0.2-0.4s0.1-0.2,0.2-0.4l2.2-3.9h2.4L102.6,48.6z"/>
	</g>
	<g>
		<path class="st1" d="M111.7,48.5c-0.1,0-0.2,0-0.3,0.1c-0.1,0-0.2,0-0.4,0.1c-0.1,0-0.2,0-0.4,0s-0.3,0-0.4,0
			c-0.3,0-0.6,0-0.8-0.1c-0.2-0.1-0.4-0.2-0.5-0.3c-0.1-0.2-0.2-0.3-0.3-0.5c0-0.2-0.1-0.4,0-0.6c0-0.1,0-0.2,0-0.3
			c0-0.1,0-0.2,0.1-0.4c0-0.1,0.1-0.3,0.1-0.4c0-0.2,0.1-0.3,0.1-0.4c0-0.1,0.1-0.2,0.1-0.4c0.1-0.2,0.1-0.4,0.2-0.7
			c0.1-0.3,0.2-0.6,0.2-0.8c0.1-0.3,0.2-0.6,0.2-0.8c0.1-0.3,0.2-0.5,0.2-0.7c0.1-0.2,0.1-0.4,0.1-0.4h2.2l-1.2,3.9
			c0,0.2-0.1,0.4-0.2,0.5c0,0.2-0.1,0.4-0.1,0.5c0,0.2,0,0.3,0.1,0.4c0.1,0.1,0.2,0.1,0.4,0.1c0.1,0,0.2,0,0.4,0
			c0.1,0,0.2,0,0.4-0.1c-0.1,0.3-0.2,0.6-0.2,0.8C111.9,48,111.8,48.2,111.7,48.5z M113.2,39.3c0,0.2-0.1,0.3-0.2,0.5
			c-0.1,0.2-0.2,0.3-0.3,0.4c-0.1,0.1-0.3,0.2-0.4,0.2c-0.2,0-0.3,0.1-0.5,0.1c-0.2,0-0.3,0-0.5-0.1c-0.2,0-0.3-0.1-0.4-0.2
			c-0.1-0.1-0.2-0.2-0.2-0.3c-0.1-0.1-0.1-0.3,0-0.4c0-0.2,0.1-0.3,0.2-0.5c0.1-0.2,0.2-0.3,0.3-0.4c0.2-0.1,0.3-0.2,0.4-0.2
			c0.2,0,0.4-0.1,0.5-0.1s0.3,0,0.5,0.1c0.2,0,0.3,0.1,0.4,0.2c0.1,0.1,0.2,0.2,0.2,0.3C113.2,39,113.2,39.1,113.2,39.3z"/>
	</g>
	<g>
		<path class="st1" d="M121.9,46.2c0,0.2-0.1,0.3-0.1,0.5c0,0.2-0.1,0.4-0.1,0.6c0,0.2-0.1,0.4-0.1,0.6c0,0.2,0,0.4-0.1,0.5h-2.2
			c0-0.1,0-0.2,0-0.3c0-0.1,0-0.2,0-0.3s0-0.2,0-0.3c0-0.1,0-0.2,0-0.3h0c-0.2,0.2-0.3,0.4-0.4,0.5s-0.3,0.3-0.5,0.4
			c-0.2,0.1-0.4,0.2-0.6,0.3c-0.2,0.1-0.5,0.1-0.8,0.1c-0.4,0-0.6-0.1-0.9-0.2c-0.2-0.1-0.5-0.3-0.6-0.5c-0.2-0.2-0.3-0.5-0.4-0.8
			c-0.1-0.3-0.1-0.7,0-1.2c0-0.2,0.1-0.5,0.1-0.8c0.1-0.3,0.2-0.6,0.4-1c0.2-0.4,0.4-0.7,0.6-1c0.2-0.4,0.6-0.6,1-0.9
			c0.4-0.3,0.8-0.5,1.3-0.7c0.5-0.2,1.1-0.2,1.7-0.2c0.3,0,0.5,0,0.8,0c0.3,0,0.5,0,0.8,0.1c0.2,0,0.5,0.1,0.7,0.1
			c0.2,0,0.4,0.1,0.6,0.1L121.9,46.2z M120.3,42.9c-0.1,0-0.2,0-0.4,0c-0.3,0-0.6,0-0.8,0.2c-0.2,0.1-0.5,0.2-0.6,0.4
			c-0.2,0.2-0.4,0.4-0.5,0.6c-0.1,0.2-0.2,0.4-0.4,0.6c-0.1,0.2-0.2,0.4-0.2,0.6c0,0.2-0.1,0.4-0.1,0.6s0,0.3,0,0.5
			c0,0.2,0.1,0.3,0.1,0.4c0.1,0.1,0.2,0.2,0.2,0.2c0.1,0,0.2,0.1,0.4,0.1c0.3,0,0.5-0.1,0.7-0.2s0.4-0.4,0.6-0.6
			c0.2-0.2,0.3-0.5,0.4-0.8c0.1-0.3,0.2-0.6,0.3-0.9l0.5-1.6C120.6,43,120.4,42.9,120.3,42.9z"/>
	</g>
	<g>
		<path class="st1" d="M130.6,43.2H129l-0.8,2.6c0,0,0,0.1,0,0.2c0,0.1,0,0.1,0,0.2s0,0.1,0,0.2c0,0.1,0,0.1,0,0.2
			c0,0.2,0,0.3,0.1,0.4c0.1,0.1,0.2,0.1,0.4,0.1c0,0,0.1,0,0.2,0c0.1,0,0.2,0,0.3,0c0.1,0,0.2,0,0.3-0.1c0.1,0,0.2,0,0.2-0.1
			l-0.5,1.6c-0.1,0-0.2,0.1-0.3,0.1c-0.1,0-0.2,0.1-0.4,0.1c-0.2,0-0.3,0-0.4,0.1c-0.2,0-0.3,0-0.4,0c-0.4,0-0.6,0-0.9-0.1
			c-0.2-0.1-0.4-0.2-0.5-0.4c-0.1-0.2-0.2-0.4-0.2-0.6c0-0.2,0-0.4,0-0.7c0-0.1,0-0.2,0-0.2c0-0.1,0-0.2,0.1-0.3
			c0-0.1,0-0.2,0.1-0.3s0-0.2,0.1-0.3l0.8-2.7h-1.1l0.5-1.6h1l0.5-1.6l2.3-0.6l-0.6,2.2h1.7L130.6,43.2z"/>
	</g>
	<g>
		<path class="st1" d="M135.8,48.5c-0.1,0-0.2,0-0.3,0.1c-0.1,0-0.2,0-0.4,0.1c-0.1,0-0.2,0-0.4,0c-0.1,0-0.3,0-0.4,0
			c-0.3,0-0.6,0-0.8-0.1c-0.2-0.1-0.4-0.2-0.5-0.3c-0.1-0.2-0.2-0.3-0.3-0.5c0-0.2-0.1-0.4,0-0.6c0-0.1,0-0.2,0-0.3
			c0-0.1,0-0.2,0.1-0.4c0-0.1,0.1-0.3,0.1-0.4c0-0.2,0.1-0.3,0.1-0.4c0-0.1,0.1-0.2,0.1-0.4c0.1-0.2,0.1-0.4,0.2-0.7
			c0.1-0.3,0.2-0.6,0.2-0.8c0.1-0.3,0.2-0.6,0.2-0.8c0.1-0.3,0.2-0.5,0.2-0.7c0.1-0.2,0.1-0.4,0.1-0.4h2.2l-1.2,3.9
			c0,0.2-0.1,0.4-0.2,0.5c-0.1,0.2-0.1,0.4-0.1,0.5c0,0.2,0,0.3,0.1,0.4c0.1,0.1,0.2,0.1,0.4,0.1c0.1,0,0.2,0,0.4,0
			c0.1,0,0.2,0,0.4-0.1c-0.1,0.3-0.2,0.6-0.2,0.8C136,48,135.9,48.2,135.8,48.5z M137.3,39.3c0,0.2-0.1,0.3-0.2,0.5
			c-0.1,0.2-0.2,0.3-0.3,0.4c-0.1,0.1-0.3,0.2-0.4,0.2c-0.2,0-0.3,0.1-0.5,0.1c-0.2,0-0.3,0-0.5-0.1c-0.2,0-0.3-0.1-0.4-0.2
			s-0.2-0.2-0.2-0.3c-0.1-0.1-0.1-0.3,0-0.4c0-0.2,0.1-0.3,0.2-0.5c0.1-0.2,0.2-0.3,0.3-0.4c0.2-0.1,0.3-0.2,0.4-0.2
			c0.2,0,0.4-0.1,0.5-0.1c0.2,0,0.3,0,0.5,0.1c0.2,0,0.3,0.1,0.4,0.2c0.1,0.1,0.2,0.2,0.2,0.3C137.3,39,137.3,39.1,137.3,39.3z"/>
	</g>
	<g>
		<path class="st1" d="M146.6,44.3c0,0.3-0.1,0.7-0.2,1c-0.1,0.4-0.2,0.7-0.4,1c-0.2,0.3-0.4,0.6-0.6,0.9c-0.2,0.3-0.5,0.6-0.8,0.8
			c-0.3,0.2-0.7,0.4-1.1,0.5c-0.4,0.1-0.9,0.2-1.4,0.2s-1-0.1-1.3-0.2c-0.4-0.2-0.7-0.4-0.9-0.6c-0.2-0.3-0.4-0.6-0.5-1
			c-0.1-0.4-0.1-0.8-0.1-1.2c0-0.3,0.1-0.7,0.2-1c0.1-0.4,0.2-0.7,0.4-1c0.2-0.3,0.4-0.6,0.6-0.9c0.2-0.3,0.6-0.5,0.9-0.8
			c0.3-0.2,0.7-0.4,1.1-0.5c0.4-0.1,0.9-0.2,1.4-0.2s0.9,0.1,1.3,0.2c0.4,0.1,0.7,0.3,0.9,0.6c0.2,0.2,0.4,0.6,0.5,0.9
			C146.6,43.5,146.7,43.9,146.6,44.3z M144.5,44.3c0-0.2,0-0.4,0-0.5c0-0.2-0.1-0.3-0.2-0.4c-0.1-0.1-0.2-0.2-0.3-0.3
			s-0.3-0.1-0.4-0.1c-0.3,0-0.6,0.1-0.8,0.2s-0.4,0.4-0.6,0.6c-0.2,0.3-0.3,0.6-0.4,0.9c-0.1,0.3-0.2,0.6-0.2,1c0,0.4,0,0.8,0.2,1
			c0.2,0.2,0.4,0.4,0.7,0.4c0.3,0,0.6-0.1,0.8-0.2c0.2-0.2,0.4-0.4,0.6-0.6c0.2-0.2,0.3-0.6,0.4-0.9C144.4,45,144.4,44.7,144.5,44.3
			z"/>
	</g>
	<g>
		<path class="st1" d="M157.1,43.2c0,0.1,0,0.2,0,0.3c0,0.1,0,0.2-0.1,0.4c0,0.1-0.1,0.2-0.1,0.4c0,0.1-0.1,0.2-0.1,0.3l-1.2,4.1
			h-2.2l1.2-4c0-0.2,0.1-0.3,0.1-0.4c0-0.2,0.1-0.3,0.1-0.4c0-0.2,0-0.4-0.1-0.5c-0.1-0.1-0.3-0.2-0.5-0.2s-0.4,0-0.6,0.2
			c-0.2,0.1-0.4,0.3-0.6,0.5c-0.2,0.2-0.4,0.4-0.5,0.7c-0.2,0.2-0.3,0.5-0.4,0.8l-1,3.5h-2.2l1.4-4.8c0.1-0.2,0.1-0.4,0.2-0.6
			c0.1-0.2,0.1-0.4,0.2-0.6c0-0.2,0.1-0.4,0.1-0.6c0-0.2,0.1-0.3,0.1-0.4h2.1c0,0.1,0,0.3-0.1,0.4c0,0.1,0,0.3-0.1,0.4
			c0,0.1,0,0.2-0.1,0.4c0,0.1,0,0.2,0,0.2h0c0.2-0.2,0.4-0.4,0.6-0.6c0.2-0.2,0.4-0.4,0.7-0.5c0.2-0.1,0.5-0.2,0.7-0.3
			c0.2-0.1,0.5-0.1,0.7-0.1c0.6,0,1,0.2,1.3,0.5C157,42.2,157.1,42.6,157.1,43.2z"/>
	</g>
	<g>
		<path class="st1" d="M172.6,41.1c-0.1-0.1-0.3-0.2-0.4-0.2c-0.2-0.1-0.3-0.1-0.5-0.2c-0.2,0-0.4-0.1-0.6-0.2c-0.2,0-0.4,0-0.7,0
			c-0.6,0-1.1,0.1-1.6,0.3c-0.5,0.2-0.9,0.5-1.2,0.8c-0.4,0.4-0.6,0.8-0.8,1.2c-0.2,0.4-0.3,0.9-0.4,1.4c0,0.4,0,0.8,0.1,1.1
			c0.1,0.3,0.2,0.6,0.5,0.8c0.2,0.2,0.5,0.4,0.8,0.5c0.3,0.1,0.7,0.2,1.1,0.2c0.2,0,0.5,0,0.7,0c0.2,0,0.4-0.1,0.6-0.1
			c0.2,0,0.4-0.1,0.6-0.2c0.2-0.1,0.4-0.2,0.5-0.2l-0.6,2.1c-0.4,0.2-0.7,0.2-1.2,0.3c-0.4,0.1-0.9,0.1-1.4,0.1
			c-0.7,0-1.3-0.1-1.8-0.3c-0.5-0.2-1-0.5-1.3-0.9c-0.4-0.4-0.6-0.8-0.8-1.4c-0.2-0.5-0.2-1.1-0.2-1.7c0-0.5,0.1-1,0.3-1.5
			c0.2-0.5,0.4-1,0.6-1.4c0.2-0.4,0.6-0.8,0.9-1.2c0.4-0.4,0.8-0.7,1.3-1c0.5-0.3,1-0.5,1.6-0.6c0.6-0.2,1.2-0.2,1.9-0.2
			c0.3,0,0.5,0,0.8,0c0.2,0,0.5,0.1,0.7,0.1c0.2,0,0.4,0.1,0.6,0.2c0.2,0,0.4,0.1,0.5,0.2L172.6,41.1z"/>
	</g>
	<g>
		<path class="st1" d="M181.8,44.3c0,0.3-0.1,0.7-0.2,1c-0.1,0.4-0.2,0.7-0.4,1c-0.2,0.3-0.4,0.6-0.6,0.9c-0.2,0.3-0.5,0.6-0.8,0.8
			c-0.3,0.2-0.7,0.4-1.1,0.5c-0.4,0.1-0.9,0.2-1.4,0.2c-0.5,0-1-0.1-1.3-0.2c-0.4-0.2-0.7-0.4-0.9-0.6c-0.2-0.3-0.4-0.6-0.5-1
			c-0.1-0.4-0.1-0.8-0.1-1.2c0-0.3,0.1-0.7,0.2-1c0.1-0.4,0.2-0.7,0.4-1c0.2-0.3,0.4-0.6,0.6-0.9c0.2-0.3,0.6-0.5,0.9-0.8
			c0.3-0.2,0.7-0.4,1.1-0.5c0.4-0.1,0.9-0.2,1.4-0.2c0.5,0,0.9,0.1,1.3,0.2c0.4,0.1,0.7,0.3,0.9,0.6c0.2,0.2,0.4,0.6,0.5,0.9
			C181.8,43.5,181.8,43.9,181.8,44.3z M179.6,44.3c0-0.2,0-0.4,0-0.5c0-0.2-0.1-0.3-0.2-0.4c-0.1-0.1-0.2-0.2-0.3-0.3
			s-0.3-0.1-0.4-0.1c-0.3,0-0.6,0.1-0.8,0.2s-0.4,0.4-0.6,0.6c-0.2,0.3-0.3,0.6-0.4,0.9c-0.1,0.3-0.2,0.6-0.2,1c0,0.4,0,0.8,0.2,1
			c0.2,0.2,0.4,0.4,0.7,0.4c0.3,0,0.6-0.1,0.8-0.2c0.2-0.2,0.4-0.4,0.6-0.6c0.2-0.2,0.3-0.6,0.4-0.9C179.5,45,179.6,44.7,179.6,44.3
			z"/>
	</g>
	<g>
		<path class="st1" d="M196.6,43.2c0,0.1,0,0.2,0,0.3c0,0.1,0,0.2-0.1,0.4c0,0.1-0.1,0.2-0.1,0.4c0,0.1-0.1,0.2-0.1,0.3l-1.2,4.1
			h-2.2l1.2-4c0-0.2,0.1-0.3,0.1-0.4c0-0.2,0.1-0.3,0.1-0.4c0-0.2,0-0.4-0.1-0.5c-0.1-0.1-0.3-0.2-0.5-0.2c-0.2,0-0.4,0.1-0.6,0.2
			c-0.2,0.1-0.4,0.3-0.6,0.5c-0.2,0.2-0.4,0.4-0.5,0.6c-0.2,0.2-0.3,0.5-0.4,0.8l-1,3.5h-2.2l1.2-4c0-0.2,0.1-0.3,0.1-0.4
			c0-0.2,0.1-0.3,0.1-0.4c0-0.2,0-0.4-0.1-0.5c-0.1-0.1-0.3-0.2-0.5-0.2c-0.2,0-0.4,0.1-0.6,0.2c-0.2,0.1-0.4,0.3-0.6,0.5
			c-0.2,0.2-0.4,0.4-0.5,0.7c-0.2,0.2-0.3,0.5-0.4,0.8l-1,3.5H184l1.4-4.8c0.1-0.2,0.1-0.4,0.2-0.6c0.1-0.2,0.1-0.4,0.2-0.6
			c0-0.2,0.1-0.4,0.1-0.6c0-0.2,0.1-0.3,0.1-0.4h2.1c0,0.1,0,0.3-0.1,0.4s0,0.3-0.1,0.4c0,0.1,0,0.2-0.1,0.4c0,0.1,0,0.2,0,0.2h0
			c0.2-0.2,0.4-0.4,0.6-0.6c0.2-0.2,0.4-0.4,0.7-0.5c0.2-0.1,0.5-0.2,0.7-0.3c0.2-0.1,0.5-0.1,0.7-0.1c0.6,0,1,0.2,1.2,0.4
			c0.2,0.3,0.4,0.7,0.4,1.2c0.2-0.2,0.4-0.4,0.6-0.6c0.2-0.2,0.4-0.4,0.7-0.5c0.2-0.2,0.5-0.2,0.8-0.3c0.2-0.1,0.5-0.1,0.8-0.1
			c0.6,0,1,0.2,1.3,0.5C196.5,42.2,196.6,42.6,196.6,43.2z"/>
	</g>
	<g>
		<path class="st1" d="M207,44c0,0.4-0.1,0.8-0.2,1.2c-0.1,0.4-0.3,0.8-0.5,1.1c-0.2,0.4-0.4,0.7-0.7,1c-0.3,0.3-0.6,0.6-0.9,0.8
			c-0.4,0.2-0.7,0.4-1.2,0.5c-0.4,0.1-0.9,0.2-1.4,0.2c-0.2,0-0.4,0-0.6,0c-0.2,0-0.4-0.1-0.6-0.1l-1,3.2h-2.2l2.3-7.9
			c0-0.2,0.1-0.3,0.1-0.5c0-0.2,0.1-0.4,0.2-0.6c0-0.2,0.1-0.4,0.2-0.6c0-0.2,0.1-0.4,0.1-0.5h2.1c0,0.1,0,0.2,0,0.3
			c0,0.1,0,0.2-0.1,0.3c0,0.1,0,0.2-0.1,0.3c0,0.1,0,0.2,0,0.3h0c0.2-0.2,0.3-0.4,0.5-0.5c0.2-0.2,0.4-0.3,0.6-0.4
			c0.2-0.1,0.4-0.2,0.7-0.3c0.2-0.1,0.5-0.1,0.8-0.1c0.3,0,0.6,0,0.8,0.2c0.2,0.1,0.4,0.3,0.6,0.5c0.2,0.2,0.3,0.5,0.4,0.8
			C207,43.2,207,43.5,207,44z M204.8,44.2c0-0.2,0-0.3,0-0.4c0-0.2,0-0.3-0.1-0.4s-0.2-0.2-0.3-0.3c-0.1-0.1-0.2-0.1-0.4-0.1
			c-0.2,0-0.5,0.1-0.7,0.2c-0.2,0.2-0.4,0.4-0.6,0.6c-0.2,0.2-0.3,0.5-0.5,0.8c-0.1,0.3-0.2,0.6-0.3,0.9l-0.5,1.6c0,0,0.1,0,0.2,0
			c0.1,0,0.2,0,0.2,0c0.1,0,0.2,0,0.2,0c0.1,0,0.2,0,0.2,0c0.3,0,0.6-0.1,1-0.2c0.3-0.2,0.6-0.4,0.8-0.7c0.2-0.3,0.4-0.6,0.6-1
			C204.7,45,204.7,44.6,204.8,44.2z"/>
	</g>
	<g>
		<path class="st1" d="M216.2,46.2c0,0.2-0.1,0.3-0.1,0.5c0,0.2-0.1,0.4-0.1,0.6c0,0.2-0.1,0.4-0.1,0.6c0,0.2,0,0.4-0.1,0.5h-2.2
			c0-0.1,0-0.2,0-0.3c0-0.1,0-0.2,0-0.3s0-0.2,0-0.3c0-0.1,0-0.2,0-0.3h0c-0.2,0.2-0.3,0.4-0.4,0.5c-0.2,0.2-0.3,0.3-0.5,0.4
			c-0.2,0.1-0.4,0.2-0.6,0.3c-0.2,0.1-0.5,0.1-0.8,0.1c-0.4,0-0.6-0.1-0.9-0.2s-0.5-0.3-0.6-0.5c-0.2-0.2-0.3-0.5-0.4-0.8
			c-0.1-0.3-0.1-0.7,0-1.2c0-0.2,0.1-0.5,0.1-0.8c0.1-0.3,0.2-0.6,0.4-1c0.2-0.4,0.4-0.7,0.6-1c0.2-0.4,0.6-0.6,1-0.9
			c0.4-0.3,0.8-0.5,1.3-0.7c0.5-0.2,1.1-0.2,1.7-0.2c0.3,0,0.5,0,0.8,0c0.3,0,0.5,0,0.8,0.1c0.2,0,0.5,0.1,0.7,0.1
			c0.2,0,0.4,0.1,0.6,0.1L216.2,46.2z M214.6,42.9c-0.1,0-0.2,0-0.4,0c-0.3,0-0.6,0-0.8,0.2c-0.2,0.1-0.5,0.2-0.6,0.4
			c-0.2,0.2-0.4,0.4-0.5,0.6c-0.1,0.2-0.2,0.4-0.4,0.6c-0.1,0.2-0.2,0.4-0.2,0.6c0,0.2-0.1,0.4-0.1,0.6s0,0.3,0,0.5
			c0,0.2,0.1,0.3,0.1,0.4c0.1,0.1,0.2,0.2,0.2,0.2c0.1,0,0.2,0.1,0.4,0.1c0.3,0,0.5-0.1,0.7-0.2c0.2-0.2,0.4-0.4,0.6-0.6
			c0.2-0.2,0.3-0.5,0.4-0.8c0.1-0.3,0.2-0.6,0.3-0.9l0.5-1.6C214.9,43,214.7,42.9,214.6,42.9z"/>
	</g>
	<g>
		<path class="st1" d="M227.5,43.2c0,0.1,0,0.2,0,0.3c0,0.1,0,0.2-0.1,0.4c0,0.1-0.1,0.2-0.1,0.4c0,0.1-0.1,0.2-0.1,0.3l-1.2,4.1
			h-2.2l1.2-4c0-0.2,0.1-0.3,0.1-0.4c0-0.2,0.1-0.3,0.1-0.4c0-0.2,0-0.4-0.1-0.5c-0.1-0.1-0.3-0.2-0.5-0.2s-0.4,0-0.6,0.2
			s-0.4,0.3-0.6,0.5c-0.2,0.2-0.4,0.4-0.5,0.7c-0.2,0.2-0.3,0.5-0.4,0.8l-1,3.5h-2.2l1.4-4.8c0.1-0.2,0.1-0.4,0.2-0.6
			c0.1-0.2,0.1-0.4,0.2-0.6c0-0.2,0.1-0.4,0.1-0.6c0-0.2,0.1-0.3,0.1-0.4h2.1c0,0.1,0,0.3-0.1,0.4c0,0.1,0,0.3-0.1,0.4
			s0,0.2-0.1,0.4c0,0.1,0,0.2,0,0.2h0c0.2-0.2,0.4-0.4,0.6-0.6c0.2-0.2,0.4-0.4,0.7-0.5c0.2-0.1,0.5-0.2,0.7-0.3
			c0.2-0.1,0.5-0.1,0.7-0.1c0.6,0,1,0.2,1.3,0.5C227.4,42.2,227.5,42.6,227.5,43.2z"/>
	</g>
	<g>
		<path class="st1" d="M233.2,49.1c-0.3,0.4-0.6,0.8-0.8,1.1c-0.3,0.3-0.6,0.6-0.9,0.8s-0.6,0.4-1,0.6c-0.4,0.1-0.8,0.2-1.2,0.2
			c-0.2,0-0.4,0-0.6,0c-0.2,0-0.4-0.1-0.6-0.2l0.5-1.7c0.1,0.1,0.2,0.1,0.4,0.2c0.1,0,0.3,0,0.4,0c0.3,0,0.5-0.1,0.8-0.2
			c0.2-0.1,0.5-0.3,0.7-0.6l0.6-0.9l-0.8-6.9h2.3l0.1,4.2c0,0.2,0,0.3,0,0.5c0,0.2,0,0.3,0,0.4h0c0-0.1,0.1-0.2,0.2-0.4
			c0.1-0.2,0.2-0.4,0.3-0.5l2.5-4.2h2.3L233.2,49.1z"/>
	</g>
</g>
</svg>
