<?xml version="1.0" encoding="utf-8"?>
<!-- Generator: Adobe Illustrator 25.4.1, SVG Export Plug-In . SVG Version: 6.00 Build 0)  -->
<svg version="1.1" id="Layer_1" xmlns="http://www.w3.org/2000/svg" xmlns:xlink="http://www.w3.org/1999/xlink" x="0px" y="0px"
	 viewBox="0 0 367.83 80.27" style="enable-background:new 0 0 367.83 80.27;" xml:space="preserve">
<style type="text/css">
	.st0{fill:#E11A22;}
	.st1{fill:#009BC4;}
</style>
<g>
	<g>
		<path class="st0" d="M33.96,40.42l-3.73-21.38h-9.55l-7.92,21.38L9.61,19.05H0L5.18,61.8h10.37c0,0,7.81-23.65,7.81-23.3
			c0,0.35,4.19,23.3,4.19,23.3h10.02L50.5,19.05h-9.32L33.96,40.42z"/>
		<polygon class="st0" points="55.16,61.8 64.83,61.8 70.54,18.46 60.63,18.46 		"/>
		<path class="st0" d="M104.48,44.9c-5.56-12.16-12.15-26.43-12.15-26.43h-9.9L76.94,61.8h9.67l3.5-26.59l12.22,26.59
			c0,0,9.59,0.59,9.67,0l5.71-43.34h-9.9L104.48,44.9z"/>
		<path class="st0" d="M147.42,18.46h-8.04h-0.99h-8.91l-5.48,43.34h2.33h7.34c4.12,0,8.45,0,8.45,0s14.39-0.17,16.43-14.1
			c2.04-13.92,1.4-17.07,1.05-18.64C159.25,27.49,155.64,18.46,147.42,18.46z M146.26,50.27c-2.62,1.4-5.07,1.92-9.79,1.92
			c-0.57,0-1.08,0-1.53,0l3.14-23.82h5.08c0,0,7.12-0.53,7.12,6.93S148.88,48.87,146.26,50.27z"/>
		<path class="st0" d="M199.9,22.37c-2.27-1.92-5.65-3.9-12.58-3.9h-3.41h-0.9h-9l-5.48,43.34h9.67l2.02-15.32h4.13l6.41,15.32
			h10.19l-6.64-15.32c0,0,8.97-2.97,10.25-10.89C205.84,27.67,202.18,24.29,199.9,22.37z M189.3,37.45c-0.93,0-5.49,0-7.89,0
			l1.2-9.14c2.8-0.02,8.31,0.05,8.31,0.05s4.54-0.22,4.54,4.32S190.58,37.45,189.3,37.45z"/>
	</g>
	<path class="st0" d="M225.3,31.92c0,0,1.81,5.71,1.69,5.94c-0.12,0.23-3.15,7.75-6.76,7.63c-3.61-0.12-7.75-3.2-7.81-3.9
		C212.37,40.89,216.97,34.42,225.3,31.92z"/>
	<path class="st1" d="M228.97,29.88c0,0,3.79-2.27,7.46-1.98c0,0,0.64,3.67-6.41,12.23c-7.05,8.56-13.16,17.77-15.49,25.22
		c0.06,0.52-0.52,2.21,0.41,2.74c0.93,0.52,5.01,0.35,18.52-9.61c0,0-0.17-8.43,2.33-10.42c2.5-1.99,7.63,1.68,14.56,6.51
		c6.93,4.83,15.44,8.5,19.92,9.26c4.49,0.76,8.33-2.39,5.65-9.32c-2.68-6.93-6.93-14.39-6.93-14.39s0.06-0.99-1.98-0.47
		c-2.04,0.52-8.74,2.85-9.44,1.22c-0.7-1.63,2.8-7.51,6.64-12.58c3.84-5.07,14.5-21.09,13.8-26.04s-19.51,8.97-20.1,9.61
		c-0.58,0.64-0.76,1.75-0.35,3.09c0.41,1.34,0.17,6.23-2.68,6.52c-2.85,0.29-8.74-2.97-12.7-4.43c-3.96-1.46-12.87-3.79-14.85-1.92
		S226.17,25.16,228.97,29.88z"/>
	<path class="st0" d="M243.47,13.16l5.65,2.04l7.51-6.06c0,0-0.17-6.81-4.31-9.14C252.33,0,246.27,2.21,243.47,13.16z"/>
	<path class="st0" d="M274.4,20.74l-5.88,9.14l5.3,6.76c0,0,12.7-2.91,17.59-11.42C291.41,25.22,290.54,20.27,274.4,20.74z"/>
	<path class="st0" d="M242.77,56.38l-8.1,6.29c0,0-1.05,15.84,4.05,17.24c5.1,1.4,10.51-14.91,10.86-16.02
		c0.35-1.11,0.47-2.68-1.34-3.9S242.77,56.38,242.77,56.38z"/>
	<g>
		<polygon class="st0" points="366.32,28.25 367.83,18.46 349.8,18.46 347.1,18.46 339.9,18.46 338.67,28.19 338.62,28.25 
			338.67,28.25 334.43,61.8 344.1,61.8 362.12,61.8 363.64,52.01 345.38,52.01 346.3,45.03 362.12,45.03 363.64,35.24 347.59,35.24 
			348.51,28.25 		"/>
		<path class="st0" d="M326.12,31.92c0-12.64-10.6-13.8-14.79-13.8c-4.19,0-8.27,1.11-11.24,3.67s-3.67,4.19-3.67,10.25
			s6.52,8.5,10.14,9.84c3.61,1.34,9.38,3.2,9.38,6.99c0,3.79-4.83,3.9-4.83,3.9s-0.23,0-4.78,0c-4.54,0-4.31-4.83-4.31-4.83h-9.14
			c0,7.86,3.09,13.86,15.26,13.86s17.01-5.53,17.01-12.23s-3.61-10.95-9.9-13.28c-6.29-2.33-8.39-3.61-9.32-4.66
			c-0.93-1.05-1.4-4.72,5.36-4.72c6.76,0,6.41,5.01,6.41,5.01H326.12z"/>
	</g>
</g>
</svg>
