<?xml version="1.0" encoding="utf-8"?>
<!-- Generator: Adobe Illustrator 25.4.1, SVG Export Plug-In . SVG Version: 6.00 Build 0)  -->
<svg version="1.1" id="Layer_1" xmlns="http://www.w3.org/2000/svg" xmlns:xlink="http://www.w3.org/1999/xlink" x="0px" y="0px"
	 viewBox="0 0 80 80" style="enable-background:new 0 0 80 80;" xml:space="preserve">
<style type="text/css">
	.st0{fill:#B8922F;}
	.st1{fill:#0E2D6E;}
</style>
<path class="st0" d="M40,0c-4.1,0-8.1,0.6-11.8,1.8C11.9,6.8,0,22,0,40c0,2.6,0.3,5.2,0.7,7.7c0.8,4.2,2.3,8.2,4.3,11.8
	C11.9,71.8,25,80,40,80s28.1-8.2,34.9-20.5C78.1,53.8,80,47.1,80,40C80,17.9,62.1,0,40,0z M29.5,44.8v-1.4l1.8,1.4H29.5z M31.6,43.9
	l-1.5-1.1h1.5V43.9z M45.8,47.2h-1.7v-2.5h-8.3v2.5H34v-4.4h1.2v-2.3h9.1v2.2h1.4V47.2z M50.4,44.8h-1.8l1.8-1.4V44.8z M48.4,43.9
	v-1.1h1.5L48.4,43.9z M69.7,44.4v2.8h-1.9v-2.8h-4.9v2.8h-2.1v-2.8h-5.9v2.8H53v-4.5H56V36l-1.5,3.2h-2.3v-4.2l-2.3,3L46,35.6
	c0,0,1.6-1,1.6-1.2c0-0.3-0.2-5.4-0.2-5.4l-1.9,2.4l-2.2-1.2l0.2-0.9l1.3,0.6v-4.6l-1.4,1c0,0,0.6-3.2,0.5-4.9l-1.1,0.6
	c0,0,0.2-3,0-3.3l-1,1.1l-1-7.3l1.1-0.5L40,2.1l-1.9,9.8l1.1,0.5l-1,7.3l-1-1.1c-0.2,0.3,0,3.3,0,3.3l-1.1-0.6
	c-0.1,1.7,0.5,4.9,0.5,4.9l-1.4-1v4.6l1.3-0.6l0.2,0.9l-2.2,1.2l-1.9-2.4c0,0-0.2,5.1-0.2,5.4c0,0.3,1.6,1.2,1.6,1.2l-3.9,2.6
	l-2.3-3v4.2h-2.3L24,36v6.7H27v4.5h-1.9v-2.8h-5.9v2.8h-2.1v-2.8h-4.9v2.8h-1.9v-2.8H4.6c0,0-3-15.4,7.3-29.7
	C18,6.2,26.6,2.9,32.7,1.6c0,0,0,0,0,0C37,0.7,40,0.8,40,0.8s17.8-0.5,28.1,13.9c10.3,14.4,7.3,29.7,7.3,29.7H69.7z"/>
<path class="st1" d="M74.9,59.5C68.1,71.8,55,80,40,80S11.9,71.8,5.1,59.5H74.9z"/>
<path class="st1" d="M9,44.4H4.6c0,0-3-15.4,7.3-29.7C18,6.2,26.6,2.9,32.7,1.6C1.4,11.5,9,44.4,9,44.4z"/>
<path class="st1" d="M71,44.4h4.4c0,0,3-15.4-7.3-29.7C62,6.2,53.4,2.9,47.3,1.6C78.6,11.5,71,44.4,71,44.4z"/>
</svg>
