<?xml version="1.0" encoding="utf-8"?>
<!-- Generator: Adobe Illustrator 25.4.1, SVG Export Plug-In . SVG Version: 6.00 Build 0)  -->
<svg version="1.1" id="Layer_1" xmlns="http://www.w3.org/2000/svg" xmlns:xlink="http://www.w3.org/1999/xlink" x="0px" y="0px"
	 viewBox="0 0 449.6 80" style="enable-background:new 0 0 449.6 80;" xml:space="preserve">
<style type="text/css">
	.st0{fill:#B8922F;}
	.st1{fill:#0E2D6E;}
	.st2{fill:#AE8130;}
	.st3{fill:#816A5A;}
</style>
<g>
	<path class="st0" d="M40,0c-4.1,0-8.1,0.6-11.8,1.8C11.9,6.8,0,22,0,40c0,2.6,0.3,5.2,0.7,7.7c0.8,4.2,2.3,8.2,4.3,11.8
		C11.9,71.8,25,80,40,80s28.1-8.2,34.9-20.5C78.1,53.8,80,47.1,80,40C80,17.9,62.1,0,40,0z M29.5,44.8v-1.4l1.8,1.4H29.5z
		 M31.6,43.9l-1.5-1.1h1.5V43.9z M45.8,47.2h-1.7v-2.5h-8.3v2.5H34v-4.4h1.2v-2.3h9.1v2.2h1.4V47.2z M50.4,44.8h-1.8l1.8-1.4V44.8z
		 M48.4,43.9v-1.1h1.5L48.4,43.9z M69.7,44.4v2.8h-1.9v-2.8h-4.9v2.8h-2.1v-2.8h-5.9v2.8H53v-4.5H56V36l-1.5,3.2h-2.3v-4.2l-2.3,3
		L46,35.6c0,0,1.6-1,1.6-1.2c0-0.3-0.2-5.4-0.2-5.4l-1.9,2.4l-2.2-1.2l0.2-0.9l1.3,0.6v-4.6l-1.4,1c0,0,0.6-3.2,0.5-4.9l-1.1,0.6
		c0,0,0.2-3,0-3.3l-1,1.1l-1-7.3l1.1-0.5L40,2.1l-1.9,9.8l1.1,0.5l-1,7.3l-1-1.1c-0.2,0.3,0,3.3,0,3.3l-1.1-0.6
		c-0.1,1.7,0.5,4.9,0.5,4.9l-1.4-1v4.6l1.3-0.6l0.2,0.9l-2.2,1.2l-1.9-2.4c0,0-0.2,5.1-0.2,5.4c0,0.3,1.6,1.2,1.6,1.2l-3.9,2.6
		l-2.3-3v4.2h-2.3L24,36v6.7H27v4.5h-1.9v-2.8h-5.9v2.8h-2.1v-2.8h-4.9v2.8h-1.9v-2.8H4.6c0,0-3-15.4,7.3-29.7
		C18,6.2,26.6,2.9,32.7,1.6c0,0,0,0,0,0C37,0.7,40,0.8,40,0.8s17.8-0.5,28.1,13.9c10.3,14.4,7.3,29.7,7.3,29.7H69.7z"/>
	<path class="st1" d="M74.9,59.5C68.1,71.8,55,80,40,80S11.9,71.8,5.1,59.5H74.9z"/>
	<path class="st1" d="M9,44.4H4.6c0,0-3-15.4,7.3-29.7C18,6.2,26.6,2.9,32.7,1.6C1.4,11.5,9,44.4,9,44.4z"/>
	<path class="st1" d="M71,44.4h4.4c0,0,3-15.4-7.3-29.7C62,6.2,53.4,2.9,47.3,1.6C78.6,11.5,71,44.4,71,44.4z"/>
	<rect x="101.8" y="61.4" class="st1" width="347.8" height="1.7"/>
	<g>
		<g>
			<path class="st2" d="M108.5,30.2c-0.1,0-0.3-0.1-0.3-0.2c-0.1-0.1-0.1-0.2-0.1-0.4l1.8-8c0-0.2,0.1-0.4,0.2-0.7l-5.3,9
				c-0.1,0.1-0.2,0.2-0.4,0.2h-2c-0.2,0-0.4-0.2-0.4-0.4l-1.2-9c-0.1,0.5-0.2,0.8-0.2,1.1l-1.8,8c0,0.2-0.2,0.3-0.4,0.3h-1.9
				c-0.1,0-0.3-0.1-0.3-0.2C96,30,95.9,29.8,96,29.7l3.1-13.6c0-0.2,0.2-0.3,0.4-0.3h2.8c0.2,0,0.4,0.2,0.4,0.4l1.4,10.3l6.2-10.4
				c0.1-0.1,0.2-0.2,0.4-0.2h2.8c0.1,0,0.3,0.1,0.3,0.2c0.1,0.1,0.1,0.2,0.1,0.4l-3.1,13.6c0,0.2-0.2,0.3-0.4,0.3H108.5z"/>
			<path class="st3" d="M113.5,16.2L113.5,16.2 M113.5,16.2l-3.1,13.6h-1.9l1.8-8c0.1-0.3,0.2-0.7,0.3-1.4c0.2-0.6,0.3-1.3,0.5-2.1
				l-6.8,11.5h-2l-1.6-11.5l-0.1,0.4c-0.1,0.3-0.2,0.8-0.3,1.5c-0.1,0.7-0.2,1.2-0.3,1.5l-1.8,8h-1.9l3.1-13.6h2.8l1.6,11.5
				l6.8-11.5H113.5 M113.5,15.4L113.5,15.4h-2.8c-0.3,0-0.6,0.2-0.7,0.4l-5.5,9.4l-1.2-9c-0.1-0.4-0.4-0.7-0.8-0.7h-2.8
				c-0.4,0-0.7,0.3-0.8,0.7l-3.1,13.6c-0.1,0.3,0,0.5,0.2,0.7c0.2,0.2,0.4,0.3,0.7,0.3h1.9c0.4,0,0.7-0.3,0.8-0.7l1.5-6.7l0.9,6.7
				c0.1,0.4,0.4,0.7,0.8,0.7h2c0.3,0,0.6-0.2,0.7-0.4l3.9-6.6l-1.4,6c-0.1,0.3,0,0.5,0.2,0.7c0.2,0.2,0.4,0.3,0.7,0.3h1.9
				c0.4,0,0.7-0.3,0.8-0.7l3.1-13.5c0-0.1,0-0.2,0-0.2C114.3,15.7,113.9,15.4,113.5,15.4L113.5,15.4z M113.5,17.1L113.5,17.1
				L113.5,17.1L113.5,17.1z"/>
		</g>
		<g>
			<path class="st2" d="M123,30.2c-0.2,0-0.4-0.2-0.4-0.4l-0.5-3.7h-5.2l-2.4,3.9c-0.1,0.1-0.2,0.2-0.4,0.2h-2
				c-0.2,0-0.3-0.1-0.4-0.2c-0.1-0.1-0.1-0.3,0-0.4l8.6-13.6c0.1-0.1,0.2-0.2,0.4-0.2h2.2c0.2,0,0.4,0.2,0.4,0.4l2.2,13.6
				c0,0.1,0,0.3-0.1,0.3c-0.1,0.1-0.2,0.2-0.3,0.2H123z M121.6,23.8l-0.6-4.3l-2.7,4.3H121.6z"/>
			<path class="st3" d="M122.9,16.2l2.2,13.6H123l-0.6-4.1h-5.8l-2.5,4.1h-2l8.6-13.6H122.9 M117.5,24.2h4.6l-0.8-6L117.5,24.2
				 M122.9,15.4h-2.2c-0.3,0-0.6,0.2-0.7,0.4l-8.6,13.6c-0.2,0.3-0.2,0.6,0,0.9c0.2,0.3,0.4,0.4,0.8,0.4h2c0.3,0,0.6-0.2,0.7-0.4
				l2.3-3.7h4.5l0.5,3.3c0.1,0.4,0.4,0.7,0.8,0.7h2.2c0.3,0,0.5-0.1,0.7-0.3c0.2-0.2,0.2-0.4,0.2-0.7l-2.2-13.6
				C123.7,15.7,123.4,15.4,122.9,15.4L122.9,15.4z M119.1,23.4l1.7-2.7l0.4,2.7H119.1L119.1,23.4z"/>
		</g>
		<g>
			<path class="st2" d="M136.3,30.2c-0.2,0-0.3-0.1-0.4-0.3l-4.5-9.8l-2.2,9.7c0,0.2-0.2,0.3-0.4,0.3h-1.9c-0.1,0-0.3-0.1-0.3-0.2
				c-0.1-0.1-0.1-0.2-0.1-0.4l3.1-13.6c0-0.2,0.2-0.3,0.4-0.3h2.3c0.2,0,0.3,0.1,0.4,0.3l4.3,9.8l2.2-9.7c0-0.2,0.2-0.3,0.4-0.3h1.9
				c0.1,0,0.3,0.1,0.3,0.2c0.1,0.1,0.1,0.2,0.1,0.4l-3.1,13.6c0,0.2-0.2,0.3-0.4,0.3H136.3z"/>
			<path class="st3" d="M141.6,16.2L141.6,16.2 M141.6,16.2l-3.1,13.6h-2.2l-5-11l-2.5,11h-1.9l3.1-13.6h2.3l4.9,11l2.5-11H141.6
				 M141.6,15.4L141.6,15.4h-1.9c-0.4,0-0.7,0.3-0.8,0.7l-1.9,8.5l-3.8-8.6c-0.1-0.3-0.4-0.5-0.8-0.5H130c-0.4,0-0.7,0.3-0.8,0.7
				l-3.1,13.6c-0.1,0.3,0,0.5,0.2,0.7c0.2,0.2,0.4,0.3,0.7,0.3h1.9c0.4,0,0.7-0.3,0.8-0.7l1.9-8.5l3.9,8.7c0.1,0.3,0.4,0.5,0.8,0.5
				h2.2c0.4,0,0.7-0.3,0.8-0.7l3.1-13.5c0-0.1,0-0.2,0-0.2C142.5,15.7,142.1,15.4,141.6,15.4L141.6,15.4z M141.6,17.1L141.6,17.1
				L141.6,17.1L141.6,17.1z"/>
		</g>
		<g>
			<path class="st2" d="M151,30.2c-0.2,0-0.3-0.1-0.4-0.3l-4.5-9.8l-2.2,9.7c0,0.2-0.2,0.3-0.4,0.3h-1.9c-0.1,0-0.3-0.1-0.3-0.2
				c-0.1-0.1-0.1-0.2-0.1-0.4l3.1-13.6c0-0.2,0.2-0.3,0.4-0.3h2.3c0.2,0,0.3,0.1,0.4,0.3l4.3,9.8l2.2-9.7c0-0.2,0.2-0.3,0.4-0.3h1.9
				c0.1,0,0.3,0.1,0.3,0.2c0.1,0.1,0.1,0.2,0.1,0.4l-3.1,13.6c0,0.2-0.2,0.3-0.4,0.3H151z"/>
			<path class="st3" d="M156.3,16.2L156.3,16.2 M156.3,16.2l-3.1,13.6H151l-5-11l-2.5,11h-1.9l3.1-13.6h2.3l4.9,11l2.5-11H156.3
				 M156.3,15.4L156.3,15.4h-1.9c-0.4,0-0.7,0.3-0.8,0.7l-1.9,8.5l-3.8-8.6c-0.1-0.3-0.4-0.5-0.8-0.5h-2.3c-0.4,0-0.7,0.3-0.8,0.7
				l-3.1,13.6c-0.1,0.3,0,0.5,0.2,0.7c0.2,0.2,0.4,0.3,0.7,0.3h1.9c0.4,0,0.7-0.3,0.8-0.7l1.9-8.5l3.9,8.7c0.1,0.3,0.4,0.5,0.8,0.5
				h2.2c0.4,0,0.7-0.3,0.8-0.7l3.1-13.5c0-0.1,0-0.2,0-0.2C157.2,15.7,156.8,15.4,156.3,15.4L156.3,15.4z M156.3,17.1L156.3,17.1
				L156.3,17.1L156.3,17.1z"/>
		</g>
	</g>
	<g>
		<path class="st2" d="M104.5,56.8c-0.2,0-0.4-0.2-0.4-0.4v-9.1L96.7,35c-0.1-0.1-0.1-0.3,0-0.4c0.1-0.1,0.2-0.2,0.4-0.2h3.1
			c0.2,0,0.3,0.1,0.4,0.2l3.8,6.5c0.6,1,1.1,2,1.6,2.9c0.5-0.9,1.1-2,1.7-3.1l3.7-6.4c0.1-0.1,0.2-0.2,0.4-0.2h3
			c0.2,0,0.3,0.1,0.4,0.2c0.1,0.1,0.1,0.3,0,0.4l-7.6,12.4v9c0,0.2-0.2,0.4-0.4,0.4H104.5z"/>
		<path class="st3" d="M114.8,34.8l-7.7,12.5v9.2h-2.5v-9.2l-7.4-12.5h3.1l3.8,6.5c0.7,1.2,1.4,2.4,2,3.7c0.6-1.1,1.3-2.4,2.1-3.8
			l3.7-6.4H114.8 M114.8,33.9h-3c-0.3,0-0.6,0.2-0.7,0.4l-3.7,6.4c-0.5,0.8-0.9,1.6-1.4,2.4c-0.4-0.7-0.8-1.5-1.2-2.2l-3.8-6.5
			c-0.2-0.3-0.4-0.4-0.7-0.4h-3.1c-0.3,0-0.6,0.2-0.7,0.4c-0.2,0.3-0.1,0.6,0,0.9l7.3,12.3v8.9c0,0.5,0.4,0.9,0.9,0.9h2.5
			c0.5,0,0.9-0.4,0.9-0.9v-8.9l7.6-12.3c0.2-0.3,0.2-0.6,0-0.9C115.4,34.1,115.1,33.9,114.8,33.9L114.8,33.9z M114.8,35.6
			L114.8,35.6L114.8,35.6L114.8,35.6z"/>
	</g>
	<g>
		<path class="st2" d="M128.8,56.8c-0.2,0-0.3-0.1-0.4-0.3l-2.2-6.3h-7.6l-2,6.3c-0.1,0.2-0.2,0.3-0.4,0.3h-2.7
			c-0.1,0-0.3-0.1-0.3-0.2c-0.1-0.1-0.1-0.3-0.1-0.4l7.5-21.6c0.1-0.2,0.2-0.3,0.4-0.3h2.8c0.2,0,0.3,0.1,0.4,0.3l8,21.6
			c0,0.1,0,0.3-0.1,0.4c-0.1,0.1-0.2,0.2-0.4,0.2H128.8z M125.1,47.1l-1.8-5.4c-0.4-1-0.7-2-0.9-2.8c-0.2,0.8-0.4,1.7-0.7,2.5
			l-2,5.8H125.1z"/>
		<path class="st3" d="M123.7,34.8l8,21.6h-2.9l-2.3-6.6h-8.2l-2.1,6.6h-2.7l7.5-21.6H123.7 M119.1,47.5h6.6l-2-6
			c-0.6-1.8-1.1-3.3-1.4-4.5c-0.2,1.4-0.6,2.8-1.1,4.1L119.1,47.5 M123.7,33.9h-2.8c-0.4,0-0.7,0.2-0.8,0.6l-7.5,21.6
			c-0.1,0.3,0,0.6,0.1,0.8c0.2,0.2,0.4,0.4,0.7,0.4h2.7c0.4,0,0.7-0.2,0.8-0.6l2-6h6.9l2.1,6c0.1,0.3,0.4,0.6,0.8,0.6h2.9
			c0.3,0,0.5-0.1,0.7-0.4c0.2-0.2,0.2-0.5,0.1-0.8l-8-21.6C124.4,34.1,124.1,33.9,123.7,33.9L123.7,33.9z M120.3,46.7l1.8-5.2
			c0.1-0.4,0.2-0.7,0.3-1.1c0.1,0.5,0.3,0.9,0.5,1.4l1.7,4.9H120.3L120.3,46.7z"/>
	</g>
	<g>
		<path class="st2" d="M137.1,56.8c-0.2,0-0.4-0.2-0.4-0.4V34.8c0-0.2,0.2-0.4,0.4-0.4h6.6c1.5,0,2.7,0.1,3.5,0.3
			c1.2,0.3,2.2,0.9,3,1.7c1.1,1,1.9,2.3,2.4,3.9c0.5,1.5,0.8,3.3,0.8,5.3c0,1.7-0.2,3.2-0.5,4.5c-0.3,1.3-0.8,2.4-1.4,3.3
			c-0.6,0.9-1.2,1.6-1.8,2.1c-0.7,0.5-1.5,0.9-2.4,1.2c-0.9,0.3-2,0.4-3.2,0.4H137.1z M143.8,53.4c1.2,0,2.2-0.1,2.8-0.4
			c0.6-0.2,1.2-0.6,1.5-1c0.6-0.6,1-1.5,1.3-2.6c0.3-1.1,0.5-2.5,0.5-4.1c0-2.2-0.3-3.9-0.9-5c-0.6-1.1-1.3-1.9-2.2-2.3
			c-0.6-0.3-1.7-0.4-3.1-0.4h-3.6v15.7H143.8z"/>
		<path class="st3" d="M143.7,34.8c1.5,0,2.6,0.1,3.4,0.3c1.1,0.3,2,0.8,2.8,1.6c1,1,1.8,2.2,2.3,3.7c0.5,1.5,0.8,3.2,0.8,5.1
			c0,1.6-0.2,3.1-0.5,4.4c-0.3,1.3-0.8,2.3-1.3,3.2c-0.5,0.8-1.1,1.5-1.7,2c-0.6,0.5-1.4,0.8-2.3,1.1c-0.9,0.2-1.9,0.4-3.1,0.4h-6.9
			V34.8H143.7 M139.7,53.9h4.1c1.3,0,2.3-0.1,3-0.4c0.7-0.3,1.3-0.6,1.7-1.1c0.6-0.7,1.1-1.6,1.4-2.7c0.3-1.1,0.5-2.5,0.5-4.2
			c0-2.3-0.3-4-1-5.2c-0.7-1.2-1.5-2-2.4-2.4c-0.7-0.3-1.8-0.4-3.3-0.4h-4V53.9 M143.7,33.9h-6.6c-0.5,0-0.9,0.4-0.9,0.9v21.6
			c0,0.5,0.4,0.9,0.9,0.9h6.9c1.2,0,2.3-0.1,3.3-0.4c1-0.3,1.9-0.7,2.6-1.2c0.7-0.5,1.4-1.3,2-2.2c0.6-0.9,1.1-2,1.4-3.4
			c0.4-1.3,0.5-2.9,0.5-4.6c0-2-0.3-3.8-0.8-5.4c-0.5-1.6-1.4-3-2.5-4c-0.9-0.8-1.9-1.4-3.2-1.8C146.5,34,145.3,33.9,143.7,33.9
			L143.7,33.9z M140.5,38.2h3.2c1.7,0,2.6,0.2,2.9,0.4c0.8,0.3,1.4,1,2,2.1c0.6,1.1,0.9,2.7,0.9,4.8c0,1.5-0.2,2.9-0.5,3.9
			c-0.3,1-0.7,1.8-1.2,2.4c-0.3,0.4-0.8,0.7-1.4,0.9c-0.6,0.2-1.5,0.3-2.7,0.3h-3.2V38.2L140.5,38.2z"/>
	</g>
	<g>
		<path class="st2" d="M171.8,56.8c-0.2,0-0.3-0.1-0.4-0.3l-2.2-6.3h-7.6l-2.1,6.3c-0.1,0.2-0.2,0.3-0.4,0.3h-2.7
			c-0.1,0-0.3-0.1-0.3-0.2c-0.1-0.1-0.1-0.3-0.1-0.4l7.5-21.6c0.1-0.2,0.2-0.3,0.4-0.3h2.8c0.2,0,0.3,0.1,0.4,0.3l8,21.6
			c0,0.1,0,0.3-0.1,0.4c-0.1,0.1-0.2,0.2-0.4,0.2H171.8z M168.1,47.1l-1.8-5.4c-0.4-1-0.7-2-0.9-2.8c-0.2,0.8-0.4,1.7-0.7,2.5
			l-2,5.8H168.1z"/>
		<path class="st3" d="M166.8,34.8l8,21.6h-2.9l-2.3-6.6h-8.2l-2.1,6.6h-2.7l7.5-21.6H166.8 M162.1,47.5h6.6l-2-6
			c-0.6-1.8-1.1-3.3-1.4-4.5c-0.2,1.4-0.6,2.8-1.1,4.1L162.1,47.5 M166.8,33.9H164c-0.4,0-0.7,0.2-0.8,0.6l-7.5,21.6
			c-0.1,0.3,0,0.6,0.1,0.8c0.2,0.2,0.4,0.4,0.7,0.4h2.7c0.4,0,0.7-0.2,0.8-0.6l2-6h6.9l2.1,6c0.1,0.3,0.4,0.6,0.8,0.6h2.9
			c0.3,0,0.5-0.1,0.7-0.4c0.2-0.2,0.2-0.5,0.1-0.8l-8-21.6C167.4,34.1,167.1,33.9,166.8,33.9L166.8,33.9z M163.3,46.7l1.8-5.2
			c0.1-0.4,0.2-0.7,0.3-1.1c0.1,0.5,0.3,0.9,0.5,1.4l1.7,4.9H163.3L163.3,46.7z"/>
	</g>
	<g>
		<path class="st2" d="M217.4,56.8c-0.2,0-0.3-0.1-0.4-0.3l-2.2-6.3h-7.6l-2.1,6.3c-0.1,0.2-0.2,0.3-0.4,0.3H202
			c-0.1,0-0.3-0.1-0.3-0.2s-0.1-0.3-0.1-0.4l7.5-21.6c0.1-0.2,0.2-0.3,0.4-0.3h2.8c0.2,0,0.3,0.1,0.4,0.3l8,21.6
			c0,0.1,0,0.3-0.1,0.4c-0.1,0.1-0.2,0.2-0.4,0.2H217.4z M213.7,47.1l-1.8-5.4c-0.4-1-0.7-2-0.9-2.8c-0.2,0.8-0.4,1.7-0.7,2.5
			l-2,5.8H213.7z"/>
		<path class="st3" d="M212.3,34.8l8,21.6h-2.9l-2.3-6.6h-8.2l-2.1,6.6H202l7.5-21.6H212.3 M207.7,47.5h6.6l-2-6
			c-0.6-1.8-1.1-3.3-1.4-4.5c-0.2,1.4-0.6,2.8-1.1,4.1L207.7,47.5 M212.3,33.9h-2.8c-0.4,0-0.7,0.2-0.8,0.6l-7.5,21.6
			c-0.1,0.3,0,0.6,0.1,0.8c0.2,0.2,0.4,0.4,0.7,0.4h2.7c0.4,0,0.7-0.2,0.8-0.6l2-6h6.9l2.1,6c0.1,0.3,0.4,0.6,0.8,0.6h2.9
			c0.3,0,0.5-0.1,0.7-0.4c0.2-0.2,0.2-0.5,0.1-0.8l-8-21.6C213,34.1,212.7,33.9,212.3,33.9L212.3,33.9z M208.9,46.7l1.8-5.2
			c0.1-0.4,0.2-0.7,0.3-1.1c0.1,0.5,0.3,0.9,0.5,1.4l1.7,4.9H208.9L208.9,46.7z"/>
	</g>
	<g>
		<path class="st2" d="M193,56.8c-0.1,0-0.3-0.1-0.4-0.2l-9.9-15.8v15.5c0,0.2-0.2,0.4-0.4,0.4h-2.6c-0.2,0-0.4-0.2-0.4-0.4V34.8
			c0-0.2,0.2-0.4,0.4-0.4h2.8c0.1,0,0.3,0.1,0.4,0.2l9.9,15.7V34.8c0-0.2,0.2-0.4,0.4-0.4h2.6c0.2,0,0.4,0.2,0.4,0.4v21.6
			c0,0.2-0.2,0.4-0.4,0.4H193z"/>
		<path class="st3" d="M195.7,34.8v21.6H193l-10.7-17v17h-2.6V34.8h2.8l10.7,17v-17H195.7 M195.7,33.9h-2.6c-0.5,0-0.9,0.4-0.9,0.9
			v14l-9.1-14.5c-0.2-0.2-0.4-0.4-0.7-0.4h-2.8c-0.5,0-0.9,0.4-0.9,0.9v21.6c0,0.5,0.4,0.9,0.9,0.9h2.6c0.5,0,0.9-0.4,0.9-0.9v-14
			l9.1,14.5c0.2,0.2,0.4,0.4,0.7,0.4h2.8c0.5,0,0.9-0.4,0.9-0.9V34.8C196.6,34.3,196.2,33.9,195.7,33.9L195.7,33.9z"/>
	</g>
	<g>
		<path class="st2" d="M236.7,56.8c-0.2,0-0.3-0.1-0.4-0.2l-2.2-4.5c-0.6-1.3-1.2-2.3-1.6-2.9c-0.4-0.6-0.7-1.1-1-1.3
			c-0.3-0.2-0.6-0.4-0.9-0.5c-0.1,0-0.4-0.1-1.1-0.1h-2.1v9.2c0,0.2-0.2,0.4-0.4,0.4h-2.2c-0.2,0-0.4-0.2-0.4-0.4V34.8
			c0-0.2,0.2-0.4,0.4-0.4h7.4c1.6,0,2.8,0.2,3.6,0.6c0.9,0.4,1.6,1.2,2.1,2.3c0.5,1,0.7,2.2,0.7,3.4c0,1.6-0.4,3-1.2,4.1
			c-0.7,0.9-1.6,1.6-2.9,2c0.3,0.2,0.5,0.4,0.6,0.6c0.7,0.8,1.3,1.8,1.9,3l2.9,5.9c0.1,0.1,0.1,0.3,0,0.4c-0.1,0.1-0.2,0.2-0.4,0.2
			H236.7z M231.7,43.9c0.9,0,1.7-0.1,2.2-0.4c0.5-0.2,0.8-0.6,1.1-1.1c0.3-0.5,0.4-1.1,0.4-1.8c0-0.9-0.2-1.7-0.8-2.2
			c-0.5-0.6-1.3-0.8-2.4-0.8h-4.9v6.3H231.7z"/>
		<path class="st3" d="M232.2,34.8c1.5,0,2.6,0.2,3.4,0.6c0.8,0.4,1.4,1.1,1.9,2.1c0.5,1,0.7,2.1,0.7,3.3c0,1.5-0.4,2.8-1.2,3.9
			c-0.8,1.1-2,1.7-3.6,2c0.6,0.4,1,0.7,1.3,1.1c0.6,0.8,1.3,1.7,1.8,2.9l2.9,5.9h-2.8l-2.2-4.5c-0.6-1.3-1.2-2.3-1.6-3
			c-0.4-0.7-0.8-1.2-1.1-1.4c-0.3-0.3-0.7-0.5-1-0.6c-0.3-0.1-0.7-0.1-1.2-0.1H227v9.6h-2.2V34.8H232.2 M227,44.3h4.8
			c1,0,1.8-0.1,2.4-0.4c0.6-0.3,1-0.7,1.3-1.3c0.3-0.6,0.4-1.2,0.4-1.9c0-1-0.3-1.9-0.9-2.5c-0.6-0.7-1.5-1-2.7-1H227V44.3
			 M232.2,33.9h-7.4c-0.5,0-0.9,0.4-0.9,0.9v21.6c0,0.5,0.4,0.9,0.9,0.9h2.2c0.5,0,0.9-0.4,0.9-0.9v-8.8h1.7c0.6,0,0.9,0,1,0.1
			c0.2,0.1,0.5,0.2,0.7,0.4c0.2,0.1,0.5,0.5,0.9,1.2c0.4,0.7,0.9,1.7,1.6,2.9l2.2,4.5c0.1,0.3,0.4,0.5,0.8,0.5h2.8
			c0.3,0,0.6-0.2,0.7-0.4c0.2-0.3,0.2-0.6,0-0.8l-2.9-5.9c-0.6-1.2-1.3-2.2-2-3.1c0-0.1-0.1-0.1-0.2-0.2c1-0.4,1.8-1,2.4-1.9
			c0.9-1.2,1.3-2.7,1.3-4.4c0-1.3-0.3-2.5-0.8-3.6c-0.5-1.2-1.3-2-2.3-2.5C235.1,34.1,233.8,33.9,232.2,33.9L232.2,33.9z M227.8,38
			h4.4c1,0,1.7,0.2,2.1,0.7c0.4,0.5,0.7,1.1,0.7,2c0,0.6-0.1,1.1-0.4,1.6c-0.2,0.4-0.5,0.7-0.9,0.9c-0.5,0.2-1.1,0.3-2,0.3h-3.9V38
			L227.8,38z"/>
	</g>
	<g>
		<path class="st2" d="M245.1,56.8c-0.2,0-0.4-0.2-0.4-0.4V34.8c0-0.2,0.2-0.4,0.4-0.4h6.7c1.2,0,2.1,0.1,2.8,0.2
			c0.9,0.2,1.7,0.6,2.4,1.1c0.6,0.5,1.2,1.3,1.5,2.3c0.4,0.9,0.6,2,0.6,3.1c0,1.9-0.5,3.6-1.5,4.9c-1,1.4-2.9,2.1-5.6,2.1h-4.1v8.4
			c0,0.2-0.2,0.4-0.4,0.4H245.1z M252,44.6c1.4,0,2.4-0.3,2.9-0.9c0.6-0.6,0.8-1.5,0.8-2.6c0-0.8-0.2-1.5-0.5-2.1
			c-0.3-0.6-0.7-0.9-1.3-1.1c-0.2-0.1-0.8-0.2-2.1-0.2h-4.1v6.9H252z"/>
		<path class="st3" d="M251.8,34.8c1.2,0,2.1,0.1,2.7,0.2c0.9,0.2,1.6,0.5,2.2,1c0.6,0.5,1.1,1.2,1.4,2.1c0.4,0.9,0.5,1.9,0.5,3
			c0,1.8-0.5,3.4-1.4,4.7c-1,1.3-2.7,1.9-5.2,1.9h-4.6v8.8h-2.4V34.8H251.8 M247.4,45.1h4.6c1.5,0,2.6-0.3,3.2-1
			c0.6-0.7,1-1.7,1-2.9c0-0.9-0.2-1.7-0.6-2.3c-0.4-0.6-0.9-1.1-1.5-1.3c-0.4-0.1-1.1-0.2-2.2-0.2h-4.5V45.1 M251.8,33.9h-6.7
			c-0.5,0-0.9,0.4-0.9,0.9v21.6c0,0.5,0.4,0.9,0.9,0.9h2.4c0.5,0,0.9-0.4,0.9-0.9v-7.9h3.7c2.8,0,4.8-0.8,5.9-2.3
			c1.1-1.4,1.6-3.2,1.6-5.2c0-1.2-0.2-2.3-0.6-3.3c-0.4-1-1-1.8-1.7-2.4c-0.7-0.6-1.6-1-2.6-1.2C254,34,253,33.9,251.8,33.9
			L251.8,33.9z M248.3,38.2h3.7c1.3,0,1.8,0.1,1.9,0.2c0.4,0.1,0.7,0.4,1,0.9c0.3,0.5,0.4,1.1,0.4,1.9c0,1-0.2,1.8-0.7,2.3
			c-0.5,0.5-1.3,0.8-2.6,0.8h-3.7V38.2L248.3,38.2z"/>
	</g>
	<g>
		<path class="st2" d="M272.4,57.2c-1.9,0-3.7-0.5-5.2-1.5c-1.5-1-2.7-2.4-3.5-4.2c-0.8-1.8-1.2-3.6-1.2-5.6c0-3.7,0.9-6.6,2.8-8.7
			c1.8-2.1,4.3-3.2,7.2-3.2c1.9,0,3.6,0.5,5.2,1.5c1.5,1,2.7,2.4,3.5,4.2c0.8,1.8,1.2,3.8,1.2,6c0,2.2-0.4,4.3-1.3,6.1
			c-0.8,1.8-2.1,3.2-3.6,4.1C275.9,56.7,274.2,57.2,272.4,57.2z M272.5,37.3c-1.8,0-3.2,0.6-4.5,2c-1.3,1.3-1.9,3.6-1.9,6.7
			c0,2.5,0.6,4.5,1.8,5.9c1.2,1.4,2.7,2.1,4.5,2.1c1.9,0,3.3-0.7,4.5-2.1c1.2-1.4,1.8-3.5,1.8-6.2c0-1.7-0.3-3.2-0.8-4.4
			c-0.5-1.2-1.3-2.2-2.2-2.9C274.8,37.6,273.7,37.3,272.5,37.3z"/>
		<path class="st3" d="M272.4,34.4c1.8,0,3.5,0.5,5,1.4c1.5,1,2.6,2.3,3.4,4c0.8,1.7,1.2,3.6,1.2,5.8c0,2.2-0.4,4.2-1.2,5.9
			c-0.8,1.7-2,3-3.4,3.9c-1.5,0.9-3.1,1.3-4.8,1.3c-1.9,0-3.5-0.5-5-1.5c-1.5-1-2.6-2.3-3.3-4c-0.8-1.7-1.1-3.5-1.1-5.4
			c0-3.6,0.9-6.4,2.7-8.4C267.4,35.4,269.7,34.4,272.4,34.4 M272.4,54.3c2,0,3.6-0.8,4.9-2.3c1.3-1.5,1.9-3.7,1.9-6.5
			c0-1.8-0.3-3.3-0.8-4.6c-0.5-1.3-1.3-2.3-2.4-3.1c-1.1-0.7-2.2-1.1-3.5-1.1c-1.9,0-3.5,0.7-4.8,2.1c-1.3,1.4-2,3.7-2,7
			c0,2.6,0.6,4.7,1.9,6.2C268.9,53.6,270.5,54.3,272.4,54.3 M272.4,33.5c-3,0-5.6,1.1-7.5,3.3c-1.9,2.2-2.9,5.2-2.9,9
			c0,2,0.4,3.9,1.2,5.8c0.8,1.8,2,3.3,3.6,4.4c1.6,1.1,3.5,1.6,5.5,1.6c1.9,0,3.6-0.5,5.3-1.5c1.6-1,2.9-2.4,3.8-4.3
			c0.9-1.8,1.3-3.9,1.3-6.3c0-2.3-0.4-4.4-1.2-6.2c-0.8-1.9-2.1-3.3-3.7-4.4C276.3,34.1,274.4,33.5,272.4,33.5L272.4,33.5z
			 M272.4,53.5c-1.7,0-3.1-0.6-4.2-2c-1.1-1.3-1.7-3.2-1.7-5.6c0-3,0.6-5.2,1.8-6.4c1.2-1.2,2.5-1.8,4.2-1.8c1.1,0,2.1,0.3,3.1,0.9
			c0.9,0.6,1.6,1.5,2.1,2.7c0.5,1.2,0.8,2.6,0.8,4.3c0,2.6-0.6,4.6-1.7,5.9C275.5,52.8,274.1,53.5,272.4,53.5L272.4,53.5z"/>
	</g>
	<g>
		<path class="st2" d="M300.9,56.8c-0.1,0-0.3-0.1-0.4-0.2L291,40.9v15.5c0,0.2-0.2,0.4-0.4,0.4H288c-0.2,0-0.4-0.2-0.4-0.4V34.8
			c0-0.2,0.2-0.4,0.4-0.4h2.7c0.1,0,0.3,0.1,0.4,0.2l9.6,15.7V34.8c0-0.2,0.2-0.4,0.4-0.4h2.5c0.2,0,0.4,0.2,0.4,0.4v21.6
			c0,0.2-0.2,0.4-0.4,0.4H300.9z"/>
		<path class="st3" d="M303.6,34.8v21.6h-2.7l-10.4-17v17H288V34.8h2.7l10.4,17v-17H303.6 M303.6,33.9h-2.5c-0.5,0-0.9,0.4-0.9,0.9
			v14l-8.8-14.4c-0.2-0.3-0.4-0.4-0.7-0.4H288c-0.5,0-0.9,0.4-0.9,0.9v21.6c0,0.5,0.4,0.9,0.9,0.9h2.5c0.5,0,0.9-0.4,0.9-0.9v-14
			l8.8,14.4c0.2,0.3,0.4,0.4,0.7,0.4h2.7c0.5,0,0.9-0.4,0.9-0.9V34.8C304.5,34.3,304.1,33.9,303.6,33.9L303.6,33.9z"/>
	</g>
	<g>
		<path class="st2" d="M332.1,56.8c-0.2,0-0.3-0.1-0.4-0.3l-2.2-6.3h-7.8l-2.1,6.3c-0.1,0.2-0.2,0.3-0.4,0.3h-2.8
			c-0.1,0-0.3-0.1-0.4-0.2c-0.1-0.1-0.1-0.3-0.1-0.4l7.7-21.6c0.1-0.2,0.2-0.3,0.4-0.3h2.9c0.2,0,0.3,0.1,0.4,0.3l8.2,21.6
			c0,0.1,0,0.3,0,0.4c-0.1,0.1-0.2,0.2-0.4,0.2H332.1z M328.3,47.1l-1.9-5.4c-0.4-1.1-0.7-2-1-2.9c-0.2,0.8-0.5,1.7-0.7,2.5l-2,5.8
			H328.3z"/>
		<path class="st3" d="M326.9,34.8l8.2,21.6h-3l-2.3-6.6h-8.4l-2.2,6.6h-2.8l7.7-21.6H326.9 M322.2,47.5h6.8l-2.1-6
			c-0.6-1.8-1.1-3.3-1.4-4.5c-0.3,1.4-0.6,2.8-1.1,4.1L322.2,47.5 M326.9,33.9h-2.9c-0.4,0-0.7,0.2-0.8,0.6l-7.7,21.6
			c-0.1,0.3-0.1,0.6,0.1,0.8c0.2,0.2,0.4,0.4,0.7,0.4h2.8c0.4,0,0.7-0.2,0.8-0.6l2-6h7.2l2.1,6c0.1,0.3,0.4,0.6,0.8,0.6h3
			c0.3,0,0.5-0.1,0.7-0.4c0.2-0.2,0.2-0.5,0.1-0.8l-8.2-21.6C327.6,34.1,327.3,33.9,326.9,33.9L326.9,33.9z M323.4,46.7l1.8-5.2
			c0.1-0.4,0.3-0.8,0.4-1.2c0.2,0.5,0.3,1,0.5,1.5l1.7,4.9H323.4L323.4,46.7z"/>
	</g>
	<g>
		<path class="st2" d="M340.1,56.8c-0.2,0-0.4-0.2-0.4-0.4V34.8c0-0.2,0.2-0.4,0.4-0.4h2.3c0.2,0,0.4,0.2,0.4,0.4v21.6
			c0,0.2-0.2,0.4-0.4,0.4H340.1z"/>
		<path class="st3" d="M342.4,34.8v21.6h-2.3V34.8H342.4 M342.4,33.9h-2.3c-0.5,0-0.9,0.4-0.9,0.9v21.6c0,0.5,0.4,0.9,0.9,0.9h2.3
			c0.5,0,0.9-0.4,0.9-0.9V34.8C343.3,34.3,342.9,33.9,342.4,33.9L342.4,33.9z"/>
	</g>
	<g>
		<path class="st2" d="M362.1,56.8c-0.2,0-0.3-0.1-0.4-0.2l-2.2-4.5c-0.6-1.3-1.2-2.3-1.6-2.9c-0.4-0.6-0.7-1.1-1-1.3
			c-0.3-0.2-0.6-0.4-0.9-0.5c-0.1,0-0.4-0.1-1.1-0.1h-2.1v9.2c0,0.2-0.2,0.4-0.4,0.4h-2.2c-0.2,0-0.4-0.2-0.4-0.4V34.8
			c0-0.2,0.2-0.4,0.4-0.4h7.3c1.6,0,2.7,0.2,3.6,0.6c0.9,0.4,1.5,1.2,2,2.3c0.5,1,0.7,2.2,0.7,3.4c0,1.6-0.4,3-1.2,4.1
			c-0.7,0.9-1.6,1.6-2.9,2c0.2,0.2,0.5,0.4,0.6,0.6c0.7,0.8,1.3,1.8,1.9,3l2.9,5.9c0.1,0.1,0.1,0.3,0,0.4c-0.1,0.1-0.2,0.2-0.4,0.2
			H362.1z M357.2,43.9c0.9,0,1.7-0.1,2.2-0.4c0.5-0.2,0.8-0.6,1.1-1.1c0.3-0.5,0.4-1.1,0.4-1.8c0-0.9-0.2-1.7-0.7-2.2
			c-0.5-0.6-1.3-0.8-2.4-0.8h-4.8v6.3H357.2z"/>
		<path class="st3" d="M357.7,34.8c1.5,0,2.6,0.2,3.4,0.6c0.8,0.4,1.4,1.1,1.8,2.1c0.5,1,0.7,2.1,0.7,3.3c0,1.5-0.4,2.8-1.1,3.9
			c-0.8,1.1-1.9,1.7-3.5,2c0.6,0.4,1,0.7,1.3,1.1c0.6,0.8,1.2,1.7,1.8,2.9l2.9,5.9h-2.8l-2.2-4.5c-0.6-1.3-1.2-2.3-1.6-3
			c-0.4-0.7-0.8-1.2-1.1-1.4c-0.3-0.3-0.7-0.5-1-0.6c-0.2-0.1-0.7-0.1-1.2-0.1h-2.5v9.6h-2.2V34.8H357.7 M352.5,44.3h4.7
			c1,0,1.8-0.1,2.3-0.4c0.6-0.3,1-0.7,1.3-1.3c0.3-0.6,0.4-1.2,0.4-1.9c0-1-0.3-1.9-0.9-2.5c-0.6-0.7-1.5-1-2.7-1h-5.2V44.3
			 M357.7,33.9h-7.3c-0.5,0-0.9,0.4-0.9,0.9v21.6c0,0.5,0.4,0.9,0.9,0.9h2.2c0.5,0,0.9-0.4,0.9-0.9v-8.8h1.7c0.6,0,0.9,0,1,0.1
			c0.2,0.1,0.5,0.2,0.7,0.4c0.2,0.1,0.5,0.5,0.9,1.2c0.4,0.7,0.9,1.7,1.5,2.9l2.2,4.5c0.1,0.3,0.4,0.5,0.8,0.5h2.8
			c0.3,0,0.6-0.2,0.7-0.4c0.2-0.3,0.2-0.6,0-0.8l-2.9-5.9c-0.6-1.2-1.2-2.2-1.9-3.1c0-0.1-0.1-0.1-0.2-0.2c1-0.4,1.8-1,2.4-1.9
			c0.9-1.2,1.3-2.7,1.3-4.4c0-1.3-0.3-2.5-0.8-3.6c-0.5-1.2-1.3-2-2.2-2.5C360.5,34.1,359.3,33.9,357.7,33.9L357.7,33.9z M353.4,38
			h4.4c1,0,1.6,0.2,2,0.7c0.4,0.5,0.6,1.1,0.6,2c0,0.6-0.1,1.1-0.4,1.6c-0.2,0.4-0.5,0.7-0.9,0.9c-0.4,0.2-1.1,0.3-2,0.3h-3.8V38
			L353.4,38z"/>
	</g>
	<g>
		<path class="st2" d="M370.1,56.8c-0.2,0-0.4-0.2-0.4-0.4V34.8c0-0.2,0.2-0.4,0.4-0.4h2.2c0.2,0,0.4,0.2,0.4,0.4v18.7h7.9
			c0.2,0,0.4,0.2,0.4,0.4v2.6c0,0.2-0.2,0.4-0.4,0.4H370.1z"/>
		<path class="st3" d="M372.4,34.8v19.1h8.3v2.6h-10.6V34.8H372.4 M372.4,33.9h-2.2c-0.5,0-0.9,0.4-0.9,0.9v21.6
			c0,0.5,0.4,0.9,0.9,0.9h10.6c0.5,0,0.9-0.4,0.9-0.9v-2.6c0-0.5-0.4-0.9-0.9-0.9h-7.5V34.8C373.2,34.3,372.8,33.9,372.4,33.9
			L372.4,33.9z"/>
	</g>
	<g>
		<path class="st2" d="M385.1,56.8c-0.2,0-0.4-0.2-0.4-0.4V34.8c0-0.2,0.2-0.4,0.4-0.4h2.8c0.2,0,0.4,0.2,0.4,0.4v21.6
			c0,0.2-0.2,0.4-0.4,0.4H385.1z"/>
		<path class="st3" d="M387.9,34.8v21.6h-2.8V34.8H387.9 M387.9,33.9h-2.8c-0.5,0-0.9,0.4-0.9,0.9v21.6c0,0.5,0.4,0.9,0.9,0.9h2.8
			c0.5,0,0.9-0.4,0.9-0.9V34.8C388.8,34.3,388.4,33.9,387.9,33.9L387.9,33.9z"/>
	</g>
	<g>
		<path class="st2" d="M409,56.8c-0.1,0-0.3-0.1-0.4-0.2l-9.9-15.8v15.5c0,0.2-0.2,0.4-0.4,0.4h-2.6c-0.2,0-0.4-0.2-0.4-0.4V34.8
			c0-0.2,0.2-0.4,0.4-0.4h2.8c0.1,0,0.3,0.1,0.4,0.2l9.9,15.7V34.8c0-0.2,0.2-0.4,0.4-0.4h2.6c0.2,0,0.4,0.2,0.4,0.4v21.6
			c0,0.2-0.2,0.4-0.4,0.4H409z"/>
		<path class="st3" d="M411.8,34.8v21.6H409l-10.7-17v17h-2.6V34.8h2.8l10.7,17v-17H411.8 M411.8,33.9h-2.6c-0.5,0-0.9,0.4-0.9,0.9
			v14l-9.1-14.5c-0.2-0.2-0.4-0.4-0.7-0.4h-2.8c-0.5,0-0.9,0.4-0.9,0.9v21.6c0,0.5,0.4,0.9,0.9,0.9h2.6c0.5,0,0.9-0.4,0.9-0.9v-14
			l9.1,14.5c0.2,0.2,0.4,0.4,0.7,0.4h2.8c0.5,0,0.9-0.4,0.9-0.9V34.8C412.7,34.3,412.3,33.9,411.8,33.9L411.8,33.9z"/>
	</g>
	<g>
		<path class="st2" d="M419.1,56.8c-0.2,0-0.4-0.2-0.4-0.4V34.8c0-0.2,0.2-0.4,0.4-0.4h11c0.2,0,0.4,0.2,0.4,0.4v2.6
			c0,0.2-0.2,0.4-0.4,0.4h-8.5v5.8h8c0.2,0,0.4,0.2,0.4,0.4v2.5c0,0.2-0.2,0.4-0.4,0.4h-8v6.5h8.9c0.2,0,0.4,0.2,0.4,0.4v2.6
			c0,0.2-0.2,0.4-0.4,0.4H419.1z"/>
		<path class="st3" d="M430,34.8v2.6h-9V44h8.4v2.5h-8.4v7.4h9.3v2.6h-11.3V34.8H430 M430,33.9h-11c-0.5,0-0.9,0.4-0.9,0.9v21.6
			c0,0.5,0.4,0.9,0.9,0.9h11.3c0.5,0,0.9-0.4,0.9-0.9v-2.6c0-0.5-0.4-0.9-0.9-0.9h-8.5v-5.7h7.5c0.5,0,0.9-0.4,0.9-0.9V44
			c0-0.5-0.4-0.9-0.9-0.9h-7.5v-4.9h8.1c0.5,0,0.9-0.4,0.9-0.9v-2.6C430.9,34.3,430.5,33.9,430,33.9L430,33.9z"/>
	</g>
	<g>
		<path class="st2" d="M440.7,57.2c-1.6,0-2.9-0.3-4-0.9c-1.1-0.6-2-1.5-2.6-2.8c-0.6-1.2-0.9-2.6-1-4.1c0-0.2,0.2-0.4,0.4-0.4
			l2.1-0.2c0,0,0,0,0,0c0.1,0,0.2,0,0.3,0.1c0.1,0.1,0.1,0.2,0.2,0.3c0.1,1,0.3,1.9,0.6,2.5c0.3,0.6,0.8,1.1,1.5,1.5
			c0.7,0.4,1.5,0.6,2.3,0.6c0.8,0,1.5-0.1,2-0.4c0.6-0.3,1-0.7,1.3-1.2c0.3-0.5,0.4-1.1,0.4-1.6c0-0.6-0.1-1.1-0.4-1.6
			c-0.3-0.4-0.7-0.8-1.3-1.1c-0.4-0.2-1.4-0.6-2.9-1c-1.6-0.5-2.7-1-3.3-1.4c-0.9-0.6-1.5-1.3-1.9-2.2c-0.4-0.9-0.6-1.8-0.6-2.9
			c0-1.2,0.3-2.3,0.8-3.3c0.5-1,1.3-1.8,2.3-2.3c1-0.5,2.1-0.8,3.3-0.8c1.3,0,2.5,0.3,3.5,0.8c1,0.6,1.8,1.4,2.3,2.5
			c0.5,1.1,0.8,2.3,0.9,3.6c0,0.2-0.2,0.4-0.4,0.4l-2.1,0.2c0,0,0,0,0,0c-0.1,0-0.2,0-0.3-0.1c-0.1-0.1-0.1-0.2-0.2-0.3
			c-0.1-1.3-0.5-2.2-1-2.8c-0.6-0.6-1.4-0.9-2.6-0.9c-1.2,0-2.1,0.3-2.6,0.8c-0.5,0.6-0.8,1.2-0.8,2c0,0.7,0.2,1.2,0.5,1.6
			c0.3,0.3,1,0.8,3.1,1.4c1.8,0.5,3.1,1,3.8,1.4c1,0.6,1.8,1.4,2.3,2.4c0.5,0.9,0.7,2.1,0.7,3.3c0,1.2-0.3,2.4-0.8,3.4
			c-0.5,1.1-1.3,1.9-2.3,2.6C443.1,56.9,442,57.2,440.7,57.2z"/>
		<path class="st3" d="M440.1,34.4c1.2,0,2.3,0.3,3.3,0.8c0.9,0.5,1.7,1.3,2.2,2.3c0.5,1,0.8,2.1,0.8,3.4l-2.1,0.2
			c-0.1-1.4-0.5-2.4-1.2-3.1c-0.7-0.7-1.6-1-2.9-1c-1.3,0-2.3,0.3-2.9,1c-0.6,0.6-0.9,1.4-0.9,2.3c0,0.8,0.2,1.4,0.6,1.9
			c0.4,0.5,1.5,1,3.3,1.5c1.8,0.5,3,1,3.7,1.4c1,0.6,1.7,1.3,2.1,2.2c0.5,0.9,0.7,1.9,0.7,3.1c0,1.2-0.3,2.2-0.8,3.3
			c-0.5,1-1.2,1.8-2.2,2.4c-0.9,0.6-2,0.8-3.2,0.8c-1.5,0-2.8-0.3-3.8-0.9c-1-0.6-1.8-1.4-2.4-2.6c-0.6-1.1-0.9-2.4-0.9-3.9l2.1-0.2
			c0.1,1.1,0.3,2,0.7,2.7c0.4,0.7,0.9,1.3,1.7,1.7c0.8,0.4,1.6,0.6,2.6,0.6c0.8,0,1.6-0.2,2.2-0.5c0.6-0.3,1.1-0.8,1.4-1.3
			c0.3-0.6,0.5-1.2,0.5-1.9c0-0.7-0.2-1.3-0.5-1.8c-0.3-0.5-0.8-0.9-1.5-1.3c-0.4-0.2-1.4-0.6-3-1.1c-1.5-0.5-2.6-0.9-3.2-1.4
			c-0.8-0.5-1.4-1.2-1.8-2c-0.4-0.8-0.6-1.7-0.6-2.7c0-1.1,0.2-2.1,0.7-3.1c0.5-0.9,1.2-1.7,2.1-2.2C438,34.7,439,34.4,440.1,34.4
			 M440.1,33.5c-1.3,0-2.4,0.3-3.5,0.8c-1.1,0.6-1.9,1.4-2.4,2.5c-0.5,1.1-0.8,2.2-0.8,3.4c0,1.1,0.2,2.2,0.7,3.1
			c0.5,0.9,1.1,1.7,2.1,2.3c0.7,0.5,1.8,1,3.4,1.5c1.8,0.6,2.6,0.9,2.8,1c0.5,0.3,0.9,0.6,1.1,1c0.2,0.4,0.3,0.8,0.3,1.3
			c0,0.5-0.1,1-0.4,1.4c-0.2,0.4-0.6,0.7-1.1,1c-0.5,0.3-1.1,0.4-1.8,0.4c-0.8,0-1.5-0.2-2.1-0.5c-0.6-0.3-1.1-0.8-1.3-1.3
			c-0.3-0.6-0.5-1.4-0.6-2.3c0-0.2-0.1-0.4-0.3-0.6c-0.2-0.1-0.3-0.2-0.5-0.2c0,0-0.1,0-0.1,0l-2.1,0.2c-0.4,0.1-0.8,0.4-0.8,0.9
			c0,1.6,0.4,3,1,4.3c0.7,1.3,1.6,2.3,2.7,2.9c1.1,0.6,2.6,1,4.2,1c1.3,0,2.6-0.3,3.6-1c1.1-0.6,1.9-1.6,2.5-2.7
			c0.6-1.1,0.8-2.4,0.8-3.6c0-1.3-0.3-2.5-0.8-3.5c-0.5-1-1.4-1.9-2.5-2.5c-0.7-0.4-2-0.9-3.9-1.5c-2.3-0.7-2.8-1.1-2.9-1.3
			c-0.3-0.4-0.4-0.8-0.4-1.4c0-0.7,0.2-1.2,0.7-1.7c0.4-0.5,1.2-0.7,2.3-0.7c1,0,1.8,0.3,2.3,0.8c0.5,0.6,0.8,1.4,0.9,2.6
			c0,0.2,0.1,0.4,0.3,0.6c0.2,0.1,0.3,0.2,0.5,0.2c0,0,0.1,0,0.1,0l2.1-0.2c0.4,0,0.8-0.4,0.8-0.9c0-1.4-0.3-2.7-0.9-3.8
			c-0.6-1.2-1.4-2-2.5-2.6C442.7,33.8,441.5,33.5,440.1,33.5L440.1,33.5z"/>
	</g>
</g>
</svg>
