<?xml version="1.0" encoding="utf-8"?>
<!-- Generator: Adobe Illustrator 25.4.1, SVG Export Plug-In . SVG Version: 6.00 Build 0)  -->
<svg version="1.1" xmlns="http://www.w3.org/2000/svg" xmlns:xlink="http://www.w3.org/1999/xlink" x="0px" y="0px"
	 viewBox="0 0 84.3 80" style="enable-background:new 0 0 84.3 80;" xml:space="preserve">
<style type="text/css">
	.st0{fill:#0C0C11;}
	.st1{fill:#007CDE;}
	.st2{fill:#FE0002;}
</style>
<g id="Layer_1">
	<path class="st0" d="M-238.6-885.5c-0.7-0.1-1.8,0-2.5,0c0.5-0.4,1.2-0.7,1.6-0.5c0.1,0,0.1,0,0.2,0.1
		C-239.1-885.8-238.8-885.6-238.6-885.5z"/>
	<g id="text835">
	</g>
</g>
<g id="Layer_2">
	<g>
		<path class="st1" d="M57.9,67.5h14.5L52.1,3.6h4.6L55.2,0h-23C32.2,0,4.6,50.5,0,67.5h15.8L22,51.6h30.8L57.9,67.5z M27.4,38
			L39.1,8.3L48.5,38H27.4z"/>
		<polygon class="st2" points="52.8,51.6 22,51.6 20.4,55.6 54.1,55.6 		"/>
		<polygon class="st2" points="76.4,80 84.3,80 57.5,3.6 52.1,3.6 72.4,67.5 		"/>
	</g>
</g>
</svg>
