<?xml version="1.0" encoding="utf-8"?>
<!-- Generator: Adobe Illustrator 25.4.1, SVG Export Plug-In . SVG Version: 6.00 Build 0)  -->
<svg version="1.1" xmlns="http://www.w3.org/2000/svg" xmlns:xlink="http://www.w3.org/1999/xlink" x="0px" y="0px"
	 viewBox="0 0 312.9 80" style="enable-background:new 0 0 312.9 80;" xml:space="preserve">
<style type="text/css">
	.st0{fill:#0C0C11;}
	.st1{fill:#007CDE;}
	.st2{fill:#FE0002;}
</style>
<g id="Layer_1">
	<path class="st0" d="M-238.6-885.5c-0.7-0.1-1.8,0-2.5,0c0.5-0.4,1.2-0.7,1.6-0.5c0.1,0,0.1,0,0.2,0.1
		C-239.1-885.8-238.8-885.6-238.6-885.5z"/>
	<g id="text835">
	</g>
</g>
<g id="Layer_2">
	<g>
		<rect x="0" y="68.9" class="st1" width="312.9" height="11.1"/>
		<path class="st1" d="M67.7,43.9h9.5L63.9,2.3h3l-1-2.3H51C51,0,33,32.9,30,43.9h10.3l4.1-10.3h20L67.7,43.9z M47.8,24.7l7.6-19.3
			l6.1,19.3H47.8z"/>
		<g>
			<polygon class="st2" points="84.9,52 67.4,2.3 63.9,2.3 77.1,43.9 79.7,52 0,52 0,63.1 312.9,63.1 312.9,52 			"/>
			<polygon class="st2" points="64.4,33.6 44.4,33.6 43.3,36.2 65.2,36.2 			"/>
		</g>
		<g>
			<rect x="176.4" y="10.3" class="st1" width="6.7" height="23.6"/>
			<polygon class="st1" points="110.5,10.3 104.7,23.6 100.5,10.3 96,10.3 94.8,10.3 90.4,10.3 90.4,33.9 96,33.9 96,14.1 
				102.3,33.9 105.4,33.9 112.9,17.6 112.9,33.9 118.6,33.9 118.6,10.3 112.9,10.3 			"/>
			<polygon class="st1" points="124.3,10.3 124.3,14.6 124.3,18.1 124.3,22.6 124.3,28.2 124.3,33.9 131,33.9 143.4,33.9 
				143.4,28.2 131,28.2 131,22.6 142.3,22.6 142.3,18.1 131,18.1 131,14.6 144.4,14.6 144.4,10.3 131,10.3 			"/>
			<polygon class="st1" points="234.8,14.7 234.8,10.2 212.3,10.2 212.3,14.7 220.3,14.7 220.3,33.9 227,33.9 227,14.7 			"/>
			<path class="st1" d="M280.9,23c0,0,5.8-0.7,5.8-5.9s-3.3-6.8-7.3-6.8h-12.8v0.1h-2v23.6h7.5v-9.4h2.6l5.9,9.4h7.5
				C288.2,33.9,285.2,25.4,280.9,23z M275.6,19.6h-3.5v-4.9h5.9c0.4,0,1.7,0.1,1.7,1.6C279.7,18.1,279.3,19.6,275.6,19.6z"/>
			<path class="st1" d="M165.7,23c0,0,5.8-0.7,5.8-5.9s-3.3-6.8-7.3-6.8h-12.8v0.1h-2.2v23.6h6.7v-9.4h3.5l5.9,9.4h7.5
				C173,33.9,170.1,25.4,165.7,23z M160.5,19.6H156v-4.9h6.8c0.4,0,1.7,0.1,1.7,1.6C164.6,18.1,164.1,19.6,160.5,19.6z"/>
			<path class="st1" d="M245.2,10.2l-11.4,23.7h6.7l1.9-4.5h10.3l1.5,4.5h7l-9.3-23.7H245.2z M244.6,23.8l3.3-8.1l2.7,8.1H244.6z"/>
			<path class="st1" d="M199.3,13.1c3.1,0,4.1,2.5,4.1,2.5l5.4-0.2c-0.4-2.5-3.1-5.6-10.2-5.6c-7.1,0-9.7,3-9.7,6.8
				c0,3.8,8.5,6.1,10.7,6.7c2.3,0.6,2.8,1.8,2.8,3.3c0,1.5-1,2.8-4.3,2.8c-3.3,0-4.6-4.4-4.6-4.4h-6.2c0,5.8,6.7,8.9,10.7,8.9
				c4,0,10.7-2.3,10.7-8.5c0-6.1-9.4-7.7-11.8-8.6C194.6,16,196.2,13.1,199.3,13.1z"/>
		</g>
	</g>
</g>
</svg>
