<?xml version="1.0" encoding="utf-8"?>
<!-- Generator: Adobe Illustrator 25.4.1, SVG Export Plug-In . SVG Version: 6.00 Build 0)  -->
<svg version="1.1" id="Layer_2_00000159471598350358213750000014612203606435250611_"
	 xmlns="http://www.w3.org/2000/svg" xmlns:xlink="http://www.w3.org/1999/xlink" x="0px" y="0px" viewBox="0 0 55.5 80"
	 style="enable-background:new 0 0 55.5 80;" xml:space="preserve">
<style type="text/css">
	.st0{fill:#FEDA1F;}
	.st1{fill-rule:evenodd;clip-rule:evenodd;fill:#332C2B;}
	.st2{fill-rule:evenodd;clip-rule:evenodd;fill:#B31E29;}
	.st3{fill:#B31E29;}
	.st4{fill:#332C2B;}
</style>
<path class="st0" d="M5,58.8c0,0,0.6,11.3,8.5,11c0,0-11.7,2.2-3.1,10.2C10.3,80-8.8,76.7,5,58.8z"/>
<path class="st1" d="M5.2,60.5L5.2,60.5c0.6,3.2,2.4,9.5,8.3,9.3c0,0-10.1,1.9-4.7,8.6C4.6,75.9,0.9,70.9,5.2,60.5L5.2,60.5z"/>
<path class="st2" d="M8.7,78.2c-2.3-0.9-7.6-3.9-7.9-12c-4,11.4,9.6,13.8,9.6,13.8C9.7,79.4,9.1,78.8,8.7,78.2L8.7,78.2z"/>
<path class="st2" d="M7.8,76.9c-3-2.3-5-6.3-1.7-13c1.1,2.9,3.2,6,7.4,5.9C13.5,69.8,4.8,71.4,7.8,76.9z"/>
<path class="st0" d="M15.7,70.1c0,0,5.8,1.1,9.4-0.6c0,0-1.6,12.4-13.5,6C11.6,75.4,18.5,75.6,15.7,70.1z"/>
<path class="st1" d="M16.8,70.4c0,0,0.1,0,0.3-0.1c1.9,0.2,5.5,0.4,8-0.8c0,0-1.1,8.6-8.4,7.7C18.6,75.9,20.6,73.5,16.8,70.4z"/>
<path class="st2" d="M17,77.2c1.9-0.9,5.3-3.1,1.9-6.8c1.9,0.1,4.3-0.1,6.2-1C25.1,69.5,24,77.9,17,77.2z"/>
<path class="st0" d="M5,54.6c0,0-2.8-14.4,5.8-26.7S24,0,24,0s4.7,7.8-1.7,24.6c-0.8,2-0.9,2.5-4.9,11.3c0,0,7.7-8.2,17.3-14.3
	c10-6.4,7.8-4.5,7.8-4.5s-1.9,8.8-17.6,20.5c0,0,11-8,28.5-5.6c0,0-14.7,1.4-27.6,10.7c0,0,14.7-8.2,29.6,2
	C55.5,44.7,32,41.5,5,54.6L5,54.6z"/>
<path class="st1" d="M24.3,0.6c-0.6,3.2-1.9,8.4-4.9,14.7c-4.9,10.5-6.7,16.5-7,19.9l8.2-6.7c0.9-2.1,1.2-2.8,1.6-4
	C27.7,10.6,25.2,2.8,24.3,0.6L24.3,0.6z"/>
<path class="st1" d="M19.7,38.1c0.2-0.5,5.7-8.2,12.4-14.8c0.8-0.6,1.7-1.1,2.5-1.7c10-6.4,7.8-4.5,7.8-4.5s-1.9,8.8-17.6,20.5
	c0,0,1.9-1.4,5.5-2.9l-6.7,5.5L19.7,38.1z"/>
<path class="st1" d="M26.7,39.7l6.1-5.8c3.2-1.1,7.4-2.1,12.4-2.3c-1.9,0.9-4.3,2.3-6.1,4.1c-2.1,0.8-4.3,1.8-6.5,2.9L26.7,39.7z"/>
<path class="st1" d="M28.1,43.5l6.4-3.5c3.3-0.5,7.4-0.6,11.8,0.5l-3.6,2.7l-10.8,1.1L28.1,43.5L28.1,43.5z"/>
<path class="st1" d="M7.2,53.6c-0.8-3.4-2-11.7,1.3-21.8C2.8,43,5,54.6,5,54.6C5.8,54.2,6.5,53.9,7.2,53.6z"/>
<path class="st3" d="M25.3,28.6c-1.2,4.5-3.4,8.1-3.4,8.1c5.2-6.9,13.5-12.5,18.8-15.7c-2.1,3.7-6.5,9.6-15.9,16.6
	c0,0,4-2.9,10.9-4.7c-3.6,2.4-6.5,5.1-6.5,5.1c11-5.8,19-6.4,23.3-6c-3.3,0.4-15.7,2.6-26.8,10.6c0,0,4.2-2.3,10.3-2.9
	c-3.5,1.4-5.3,3.1-5.3,3.1c2.5-1.6,7.3-2.5,11.2-3.1c4.2,0.4,8.8,1.8,13.4,5c0,0-22.3-3-48.4,8.9C7,52,7.1,50.5,7.2,49
	c0.4-9.4,5.6-18,5.6-18c8.1-12.1,11.3-19.4,12.7-22.9c0.1,4-0.7,9.4-3.4,16.5c-0.8,2-0.9,2.5-4.9,11.3
	C17.4,35.9,20.5,32.6,25.3,28.6z"/>
<path class="st0" d="M15,56.9c0-1.5,1.2-2.8,2.8-2.8c1.5,0,2.8,1.2,2.8,2.8c0,1.5-1.2,2.8-2.8,2.8C16.3,59.6,15,58.4,15,56.9z"/>
<path class="st4" d="M16.5,56.9c0-1.3,0.9-2.4,2.1-2.7c1.1,0.4,1.9,1.4,1.9,2.6c0,1.3-0.9,2.4-2.1,2.7
	C17.3,59.2,16.5,58.1,16.5,56.9z"/>
<path class="st3" d="M17.7,57.3c0-1.2,0.7-2.2,1.8-2.6c0.6,0.5,1.1,1.3,1.1,2.2c0,1.2-0.7,2.2-1.8,2.6
	C18.1,58.9,17.7,58.1,17.7,57.3z"/>
</svg>
