<?xml version="1.0" encoding="utf-8"?>
<!-- Generator: Adobe Illustrator 25.4.1, SVG Export Plug-In . SVG Version: 6.00 Build 0)  -->
<svg version="1.1" id="Layer_1" xmlns="http://www.w3.org/2000/svg" xmlns:xlink="http://www.w3.org/1999/xlink" x="0px" y="0px"
	 viewBox="0 0 80 80" style="enable-background:new 0 0 80 80;" xml:space="preserve">
<style type="text/css">
	.st0{fill:#40835E;}
</style>
<path class="st0" d="M40,0C17.9,0,0,17.9,0,40c0,22.1,17.9,40,40,40c22.1,0,40-17.9,40-40C80,17.9,62.1,0,40,0z M40,4.7
	c16.4,0,30.2,11.2,34.2,26.3c-7.5,6.5-17.8,2.9-23.6,0.7c-5.8-2.2-9.6,1.5-11.9,5.1c-2.4,3.6-5.6,11.8-7.2,13.7
	c-1.5,2-3.1-4.9-5.1-9.1c-2-4.3-4.4-5.3-10.4-3.2c-4.4,1.5-9,3.7-11.2,4.8c-0.1-1-0.1-1.9-0.1-2.9C4.7,20.5,20.5,4.7,40,4.7z
	 M40,75.3c-16.8,0-30.8-11.7-34.4-27.4c8.2-4,15.3-0.9,19.1,2.6c3.8,3.5,4.6,14.4,7.7,14.9c3.1,0.5,2.7-6.8,7.7-16.5
	c4.9-9.7,13.7-6.7,21.5-7.3c6.9-0.6,12.4-4.8,13.6-5.8c0.2,1.4,0.3,2.8,0.3,4.2C75.3,59.5,59.5,75.3,40,75.3z"/>
</svg>
