<?xml version="1.0" encoding="utf-8"?>
<!-- Generator: Adobe Illustrator 25.4.1, SVG Export Plug-In . SVG Version: 6.00 Build 0)  -->
<svg version="1.1" id="Layer_1" xmlns="http://www.w3.org/2000/svg" xmlns:xlink="http://www.w3.org/1999/xlink" x="0px" y="0px"
	 viewBox="0 0 404.6 80" style="enable-background:new 0 0 404.6 80;" xml:space="preserve">
<style type="text/css">
	.st0{fill:#40835E;}
</style>
<g>
	<path class="st0" d="M40,0C17.9,0,0,17.9,0,40c0,22.1,17.9,40,40,40c22.1,0,40-17.9,40-40C80,17.9,62.1,0,40,0z M40,4.7
		c16.4,0,30.2,11.2,34.2,26.3c-7.5,6.5-17.8,2.9-23.6,0.7c-5.8-2.2-9.6,1.5-11.9,5.1c-2.4,3.6-5.6,11.8-7.2,13.7
		c-1.5,2-3.1-4.9-5.1-9.1c-2-4.3-4.4-5.3-10.4-3.2c-4.4,1.5-9,3.7-11.2,4.8c-0.1-1-0.1-1.9-0.1-2.9C4.7,20.5,20.5,4.7,40,4.7z
		 M40,75.3c-16.8,0-30.8-11.7-34.4-27.4c8.2-4,15.3-0.9,19.1,2.6c3.8,3.5,4.6,14.4,7.7,14.9c3.1,0.5,2.7-6.8,7.7-16.5
		c4.9-9.7,13.7-6.7,21.5-7.3c6.9-0.6,12.4-4.8,13.6-5.8c0.2,1.4,0.3,2.8,0.3,4.2C75.3,59.5,59.5,75.3,40,75.3z"/>
	<g>
		<polygon class="st0" points="129.2,23.8 127.6,27.8 140.7,27.8 136.3,59.1 142.3,59.1 147.8,27.8 160.1,27.8 161.3,23.8 		"/>
		<path class="st0" d="M177.9,25.1c-6.3,0-11.9,0-11.9,0l-5.6,34h5.6l3.1-14.2h4.6c0,0,12.5,0,13.8-10.1
			C188.8,24.7,184.2,25.1,177.9,25.1z M181.2,34.6c-2.2,8.1-11.5,6.5-11.5,6.5l2.2-13C171.9,28.1,183.5,26.5,181.2,34.6z"/>
		<path class="st0" d="M219,24.3l-20.1,34.8h4.6l6.1-10.4h15.1l2.5,10.4h6.1l-8.2-34.8H219z M211.4,45.7l8.9-15.2l3.7,15.2H211.4z"
			/>
		<path class="st0" d="M338.5,24.3l-20.1,34.8h4.6l6.1-10.4h15.1l2.5,10.4h6.1l-8.2-34.8H338.5z M330.8,45.7l8.9-15.2l3.7,15.2
			H330.8z"/>
		<polygon class="st0" points="236.5,59.1 242.7,59.1 248.4,24.3 242,24.3 		"/>
		<polygon class="st0" points="321.1,24.3 309.3,49.9 307.1,24.3 300.6,24.3 290.8,49.4 290.8,49.4 287.8,24.3 281.3,24.3 
			285.8,59.1 291.9,59.1 301.7,35.6 304,59.1 310.2,59.1 325.5,24.3 		"/>
		<path class="st0" d="M276.8,32.9c0-6.7-2.9-8.6-8.4-8.6c-3.7,0-6.3,0-7.7,0h-1h-5.4l-5.4,34.8h6.1l2.5-15.3h4.2l7.7,15.3h8.2
			l-10-16.7C267.6,42.4,276.8,39.6,276.8,32.9z M260.3,40.4c-1,0-1.7,0-2.3,0l1.7-10c0.4-0.9,1.3-2.2,3.4-2.2c3.2,0,6.9,0.4,6.9,5.2
			S264.5,40.4,260.3,40.4z"/>
		<path class="st0" d="M374.7,24.3c-0.1,0-9.3,14.6-9.3,14.6l-8.3-14.6h-7l11.8,18.9v15.9h5.8V44.6l12.5-20.3
			C380.2,24.3,374.8,24.3,374.7,24.3z"/>
		<path class="st0" d="M392.4,38.1c-3.4-1.7-4.6-4-4.6-5.4s0.6-4.9,5.3-4.9c4.7,0,9.7,2.6,9.7,2.6c-0.5-0.9,0.2-5.2,0.2-5.2
			s-5.1-1.8-10.5-1.8c-5.4,0-11.9,3.5-11.9,10.3c0,6.8,7.6,9.5,11.4,11.4c3.8,1.9,4.8,4,4.8,5.9c0,1.9-1.2,4.7-5.5,4.7
			c-4.3,0-10.5-2.3-10.5-2.3c0.3,2-0.9,6.1-0.9,6.1s6,1.3,11.4,1.3c5.4,0,13.3-3.8,13.3-10.6S395.8,39.8,392.4,38.1z"/>
		<path class="st0" d="M111.3,38.1c-3.4-1.7-4.6-4-4.6-5.4s0.6-4.9,5.3-4.9s9.7,2.6,9.7,2.6c-0.5-0.9,0.2-5.2,0.2-5.2
			s-5.1-1.8-10.5-1.8c-5.4,0-11.9,3.5-11.9,10.3c0,6.8,7.6,9.5,11.4,11.4c3.8,1.9,4.8,4,4.8,5.9c0,1.9-1.2,4.7-5.5,4.7
			c-4.3,0-10.5-2.3-10.5-2.3c0.3,2-0.9,6.1-0.9,6.1s6,1.3,11.4,1.3c5.4,0,13.3-3.8,13.3-10.6S114.7,39.8,111.3,38.1z"/>
	</g>
</g>
</svg>
