<?xml version="1.0" encoding="utf-8"?>
<!-- Generator: Adobe Illustrator 25.4.1, SVG Export Plug-In . SVG Version: 6.00 Build 0)  -->
<svg version="1.1" id="Layer_1" xmlns="http://www.w3.org/2000/svg" xmlns:xlink="http://www.w3.org/1999/xlink" x="0px" y="0px"
	 viewBox="0 0 52.8 80" style="enable-background:new 0 0 52.8 80;" xml:space="preserve">
<style type="text/css">
	.st0{fill:#729541;}
	.st1{fill:#0158A8;}
	.st2{fill:#2EC3ED;}
</style>
<polygon class="st0" points="0,62.8 18.6,79.3 30.4,56.8 11.5,40.3 "/>
<polygon class="st1" points="0,18.5 11.5,40.3 30.4,23.9 18.8,1.7 "/>
<polygon class="st2" points="51.6,40.3 31.9,25.3 11.5,40.3 31.5,55.6 "/>
<path class="st1" d="M21,80c0,0,2-10.9,11.9-22s17.3-15.3,20-16.1c0,0-12.9,10-18.6,17.8S21,80,21,80z"/>
<path class="st0" d="M21,0c0,0-1.2,8.1,11.9,23.2c12.4,14.3,20,15.2,20,15.2s-11.5-7.5-18.5-16.7C30.3,16.5,23.8,8.3,21,0z"/>
</svg>
