<?xml version="1.0" encoding="utf-8"?>
<!-- Generator: Adobe Illustrator 25.4.1, SVG Export Plug-In . SVG Version: 6.00 Build 0)  -->
<svg version="1.1" id="Layer_1" xmlns="http://www.w3.org/2000/svg" xmlns:xlink="http://www.w3.org/1999/xlink" x="0px" y="0px"
	 viewBox="0 0 163.2 80" style="enable-background:new 0 0 163.2 80;" xml:space="preserve">
<style type="text/css">
	.st0{fill:#729541;}
	.st1{fill:#0158A8;}
	.st2{fill:#2EC3ED;}
</style>
<g>
	<polygon class="st0" points="0,62.8 18.6,79.3 30.4,56.8 11.5,40.3 	"/>
	<polygon class="st1" points="0,18.5 11.5,40.3 30.4,23.9 18.8,1.7 	"/>
	<polygon class="st2" points="51.6,40.3 31.9,25.3 11.5,40.3 31.5,55.6 	"/>
	<path class="st1" d="M21,80c0,0,2-10.9,11.9-22s17.3-15.3,20-16.1c0,0-12.9,10-18.6,17.8S21,80,21,80z"/>
	<path class="st0" d="M21,0c0,0-1.2,8.1,11.9,23.2c12.4,14.3,20,15.2,20,15.2s-11.5-7.5-18.5-16.7C30.3,16.5,23.8,8.3,21,0z"/>
	<g>
		<path class="st1" d="M65.6,45.1h-0.4c-0.1,0-0.5-0.1-0.6-0.6V32.5H62V44c0,0,0,0.1,0,0.2c0,0.8-0.4,0.9-0.6,0.9H61v0.3h4.6V45.1z"
			/>
		<path class="st1" d="M94.9,45.1c-0.1,0-0.5-0.1-0.6-0.6v-6.7c0,0-0.3-1.5-2.1-1.5c-1.3,0-2.4,1-3,1.5h0c0,0-0.6-1.5-2.2-1.5
			c-1.2,0-2.3,1-2.8,1.6v-1.4h-2.5h-1v0.4c0,0,1-0.1,1,0.9V44c0,0,0,0.1,0,0.2c0,0.8-0.4,0.9-0.6,0.9h-0.4v0.3h4.6v-0.3h-0.4
			c-0.1,0-0.5-0.1-0.6-0.6v-5.4c0-0.1,0.6-1.5,1.6-1.5s1.1,1,1.1,1.5V44c0,0,0,0.1,0,0.2c0,0.8-0.4,0.9-0.6,0.9h-0.4v0.3h4.6v-0.3
			h-0.4c-0.1,0-0.5-0.1-0.6-0.6v-5.6c0,0,0.6-1.3,1.5-1.3c0.9,0,1,0.9,1,1.3V44c0,0,0,0.1,0,0.2c0,0.8-0.4,0.9-0.6,0.9h-0.4v0.3h4.6
			v-0.3H94.9z"/>
		<path class="st1" d="M100.3,45.1c-0.1,0-0.5-0.1-0.6-0.6v-8h-2.5h-1v0.4c0,0,1-0.1,1,0.9V44c0,0,0,0.1,0,0.2
			c0,0.8-0.4,0.9-0.6,0.9h-0.4v0.3h4.6v-0.3H100.3z"/>
		<path class="st1" d="M61.7,33.9c0,0,0-0.1,0-0.1c0,0,0,0,0,0s-0.1-1.4-2.1-1.4c-2,0-3.4,1-3.4,3.4v0.9h-1.3v0.8h1.3v6.7
			c0,0.8-0.4,0.9-0.6,0.9h-0.7v0.3h5.1v-0.3h-0.7c-0.1,0-0.6-0.1-0.6-0.8v-6.8h1.3v-0.8h-1.3v-0.9v-1.7c0,0,0-0.8,0.4-1
			c0.5-0.2,0.8,0.2,0.7,0.5c0,0,0,0,0,0c0,0.1,0,0.1,0,0.2c0,0.5,0.4,1,1,1S61.7,34.4,61.7,33.9z"/>
		<path class="st1" d="M133.1,33.9c0,0,0-0.1,0-0.1c0,0,0,0,0,0s-0.1-1.4-2.1-1.4s-3.4,1-3.4,3.4v0.9h-1.3v0.8h1.3v6.7
			c0,0.8-0.4,0.9-0.6,0.9h-0.7v0.3h5.1v-0.3h-0.7c-0.1,0-0.6-0.1-0.6-0.8v-6.8h1.3v-0.8h-1.3v-0.9v-1.7c0,0,0-0.8,0.4-1
			c0.5-0.2,0.8,0.2,0.7,0.5c0,0,0,0,0,0c0,0.1,0,0.1,0,0.2c0,0.5,0.4,1,1,1C132.7,34.9,133.1,34.4,133.1,33.9z"/>
		<path class="st1" d="M74.5,36.5c-0.6-0.1-0.9,0.4-1.1,1c-0.2,0.7-1.7,4.8-1.7,4.8s-0.6-1.5-1.7-3.9c-1.1-2.4-2.4-2.2-2.8-2
			c-0.4,0.2-0.8,0.6-0.1,1.6c0.7,1,3.1,6.9,3.1,6.9c-0.2,0.6-1.7,2.9-3.1,3.7s-1.9,1-2.2,1.3c-0.3,0.4,0.6,1.6,3.7-0.2
			c3.1-1.8,6-10.7,6.2-11.5C75,37.6,75.1,36.5,74.5,36.5z"/>
		<path class="st1" d="M98.5,35.4c0.8,0,1.5-0.7,1.5-1.5c0-0.8-0.7-1.5-1.5-1.5c-0.8,0-1.5,0.7-1.5,1.5
			C96.9,34.7,97.6,35.4,98.5,35.4z"/>
		<path class="st1" d="M145.1,45.1c-0.1,0-0.5-0.1-0.6-0.6v-8H142h-1v0.4c0,0,1-0.1,1,0.9V44c0,0,0,0.1,0,0.2c0,0.8-0.4,0.9-0.6,0.9
			H141v0.3h4.6v-0.3H145.1z"/>
		<circle class="st1" cx="143.3" cy="33.8" r="1.5"/>
		<path class="st1" d="M110,43.7V32.5h-2.5h-1v0.4c0,0,1-0.1,1,0.9v3.7c-0.5-0.4-1.4-1.2-2.5-1.2c-1.5,0-3.3,2-3.3,5
			s1.9,4.5,3.3,4.5c1.4,0,2.5-1.3,2.5-1.3v1.2c0.1,0,3.5-0.8,3.5-0.8v-0.4C111,44.6,110,44.8,110,43.7z M105.9,44.2
			c-1.1,0-1.6-2-1.6-3.7s0.6-3,1.6-3c0.8,0,1.4,0.7,1.6,0.9v4.7C107.5,43.1,107.1,44.2,105.9,44.2z"/>
		<path class="st1" d="M139.1,36.3c-1,0-2.3,1.5-2.8,2.3v-2.1h-2.5h-1v0.4c0,0,1-0.1,1,0.9V44c0,0,0,0.1,0,0.2
			c0,0.8-0.4,0.9-0.6,0.9h-0.4v0.3h4.6v-0.3h-0.4c-0.1,0-0.5-0.1-0.6-0.6v-4.5c0,0,0.5-1.8,1.2-1.9c0.3-0.1,0.6,0.1,0.7,0.2
			c0,0.1,0.1,0.2,0.2,0.3c0,0,0,0,0,0l0,0c0.2,0.2,0.4,0.3,0.7,0.3c0.5,0,1-0.4,1-1c0-0.1,0-0.1,0-0.1l0,0
			C140,37.7,140.2,36.3,139.1,36.3z"/>
		<path class="st1" d="M124.3,43.8c0,0,0-3.1,0-4.2c0-1.1-0.1-1.5-0.1-1.5c-0.6-2-3.3-2-4.6-1.6c-1.3,0.4-2.3,1.3-2.3,2.1
			c0,0.8,0.6,1.5,1.3,1.5s1.2-0.4,1.2-0.9s-0.2-1-0.5-1.1c-0.3-0.1-0.4-1.1,0.9-1.1c1.3,0,1.3,1.3,1.3,1.3v1.6
			c-0.3,0.2-0.7,0.4-1.3,0.7c-1.2,0.5-2.6,1.6-3.1,2.6c-0.5,0.9,0.1,2.6,1.6,2.6c1.2,0,2.4-1.1,2.9-1.5c0.1,0.7,0.5,1.5,1.4,1.5
			c1.1,0,2.2-1.2,2.2-1.2v-0.4c0,0,0,0-0.6,0.2C124.2,44.5,124.3,43.8,124.3,43.8z M121,43.9c-0.7,0.4-1.3,0-1.3-1.1
			c0-0.8,1.4-1.9,2-2.4v2.9C121.5,43.5,121.3,43.7,121,43.9z"/>
		<path class="st1" d="M162.7,44.3c-0.6,0.2-0.4-0.5-0.4-0.5s0-3.1,0-4.2c0-1.1-0.1-1.5-0.1-1.5c-0.6-2-3.3-2-4.6-1.6
			c-1.3,0.4-2.3,1.3-2.3,2.1c0,0.8,0.6,1.5,1.3,1.5s1.2-0.4,1.2-0.9s-0.2-1-0.5-1.1c-0.3-0.1-0.4-1.1,0.9-1.1c1.3,0,1.3,1.3,1.3,1.3
			v1.6c-0.3,0.2-0.7,0.4-1.3,0.7c-1.2,0.5-2.6,1.6-3.1,2.6c-0.5,0.9,0.1,2.6,1.6,2.6c1.2,0,2.4-1.1,2.9-1.5c0.1,0.7,0.5,1.5,1.4,1.5
			c1.1,0,2.2-1.2,2.2-1.2v-0.4C163.2,44.1,163.2,44.1,162.7,44.3z M158.9,43.9c-0.7,0.4-1.3,0-1.3-1.1c0-0.8,1.4-1.9,2-2.4v2.9
			C159.4,43.5,159.2,43.7,158.9,43.9z"/>
		<path class="st1" d="M151.3,44.3c-1.1,0-2.4-1.5-2.4-3.4c0-1.9,0.2-3.8,1.2-3.8s0.8,2.1,1.6,2.4c0,0,0,0,0,0
			c0.2,0.1,0.4,0.2,0.6,0.2c0.5,0,1-0.4,1-1c0,0,0-2.5-2.7-2.5c-1.4,0-2.6,0.8-3.4,2c-1.6,2.4-0.8,7.5,2.8,7.5
			c2.9,0,3.6-2.1,3.6-2.1l-0.3-0.3C153.3,43.3,152.5,44.3,151.3,44.3z"/>
	</g>
</g>
</svg>
