<?xml version="1.0" encoding="utf-8"?>
<!-- Generator: Adobe Illustrator 25.4.1, SVG Export Plug-In . SVG Version: 6.00 Build 0)  -->
<svg version="1.1" id="Layer_1" xmlns="http://www.w3.org/2000/svg" xmlns:xlink="http://www.w3.org/1999/xlink" x="0px" y="0px"
	 viewBox="0 0 171.1 80" style="enable-background:new 0 0 171.1 80;" xml:space="preserve">
<style type="text/css">
	.st0{fill:#097EC1;}
	.st1{fill:#F3943C;}
	.st2{fill:#31A5DC;}
	.st3{fill:#FFE53E;}
	.st4{fill:#E6383C;}
	.st5{fill:#394B9A;}
</style>
<path class="st0" d="M37.1,38c-0.5,0.1-1.6,0.3-2.2,0.6c40.5-0.9,81.2-5.3,119-20.9c-7.8-4.9-21.5-12.6-30.3-11.8
	C99.8,26.8,67.5,33.3,37.1,38z"/>
<path class="st1" d="M131,41.7c0.9-0.1,1.5-0.3,2.6-0.4c0.9-0.1,1.4-0.2,2.8-0.6c-40.2,0.9-81.7,4.7-119,21.1
	c8.7,5.1,20.1,11.8,29.9,11.7C70.4,53.1,101.5,46.4,131,41.7z"/>
<path class="st2" d="M171,36.4c-0.5-5.6-10.3-17.2-16-16.2c-23,10.5-48.3,14.4-73.2,17.2c0,0,0,0,0,0c-1.7,0.2-3.6,0.5-5.4,0.4
	c30.5,0.5,62,0.3,92.8,0.5C170.8,38.3,171.2,37.7,171,36.4z"/>
<path class="st3" d="M75.1,43.6c6.6-0.9,13.4-1.3,19.7-2.4c-1.1-0.2-1.9,0-2.3,0c-4.9,0-10.2,0.1-15.1,0.1c0,0,0,0,0,0
	C52.2,41.2,27,41.1,1.8,41c-7,2.5,8.4,17.1,12.2,18.4C33.4,52,54.1,46.1,75.1,43.6z M84.4,41.9C84.5,41.9,84.5,41.9,84.4,41.9
	C84.5,42,84.4,42,84.4,41.9C84.4,42,84.4,41.9,84.4,41.9z"/>
<path class="st4" d="M168.4,40.4c-41.1,0.8-84.9,7.8-117.2,35.3c13.2,2.2,26.2,3.7,39.6,3.6c1,0,1.4-0.1,1.3-1.3
	c3.1-32.2,53.6-33.6,78.2-37.5C169.5,40.2,169,40.3,168.4,40.4z"/>
<path class="st5" d="M2.6,38.9c41.1-0.8,84.8-7.7,117.1-35.2c-13.3-2.7-27-4-40.6-3.7C77.2,33.6,26,34.3,1.3,38.9
	C1.7,38.9,2.1,38.9,2.6,38.9z"/>
</svg>
