<?xml version="1.0" encoding="utf-8"?>
<!-- Generator: Adobe Illustrator 25.4.1, SVG Export Plug-In . SVG Version: 6.00 Build 0)  -->
<svg version="1.1" id="Layer_1" xmlns="http://www.w3.org/2000/svg" xmlns:xlink="http://www.w3.org/1999/xlink" x="0px" y="0px"
	 viewBox="0 0 225.2 80" style="enable-background:new 0 0 225.2 80;" xml:space="preserve">
<style type="text/css">
	.st0{fill:#097EC1;}
	.st1{fill:#F3943C;}
	.st2{fill:#31A5DC;}
	.st3{fill:#FFE53E;}
	.st4{fill:#E6383C;}
	.st5{fill:#394B9A;}
	.st6{fill:#181F1E;}
</style>
<path class="st0" d="M37.1,38c-0.5,0.1-1.6,0.3-2.2,0.6c40.5-0.9,81.2-5.3,119-20.9c-7.8-4.9-21.5-12.6-30.3-11.8
	C99.8,26.8,67.5,33.3,37.1,38z"/>
<path class="st1" d="M131,41.7c0.9-0.1,1.5-0.3,2.6-0.4c0.9-0.1,1.4-0.2,2.8-0.6c-40.2,0.9-81.7,4.7-119,21.1
	c8.7,5.1,20.1,11.8,29.9,11.7C70.4,53.1,101.5,46.4,131,41.7z"/>
<path class="st2" d="M171,36.4c-0.5-5.6-10.3-17.2-16-16.2c-23,10.5-48.3,14.4-73.2,17.2c0,0,0,0,0,0c-1.7,0.2-3.6,0.5-5.4,0.4
	c30.5,0.5,62,0.3,92.8,0.5C170.8,38.3,171.2,37.7,171,36.4z"/>
<path class="st3" d="M75.1,43.6c6.6-0.9,13.4-1.3,19.7-2.4c-1.1-0.2-1.9,0-2.3,0c-4.9,0-10.2,0.1-15.1,0.1c0,0,0,0,0,0
	C52.2,41.2,27,41.1,1.8,41c-7,2.5,8.4,17.1,12.2,18.4C33.4,52,54.1,46.1,75.1,43.6z M84.4,41.9C84.5,41.9,84.5,41.9,84.4,41.9
	C84.5,42,84.4,42,84.4,41.9C84.4,42,84.4,41.9,84.4,41.9z"/>
<path class="st4" d="M168.4,40.4c-41.1,0.8-84.9,7.8-117.2,35.3c13.2,2.2,26.2,3.7,39.6,3.6c1,0,1.4-0.1,1.3-1.3
	c3.1-32.2,53.6-33.6,78.2-37.5C169.5,40.2,169,40.3,168.4,40.4z"/>
<path class="st5" d="M2.6,38.9c41.1-0.8,84.8-7.7,117.1-35.2c-13.3-2.7-27-4-40.6-3.7C77.2,33.6,26,34.3,1.3,38.9
	C1.7,38.9,2.1,38.9,2.6,38.9z"/>
<path class="st6" d="M163,79.6c-0.1,0.4-0.4,0.3-0.7,0.3c-2.9,0-5.9,0-8.8,0c-0.2,0-0.6,0.1-0.7-0.2c-0.1-0.3-0.1-0.7,0.3-0.8
	c0.6-0.2,0.9-0.8,1.2-1.3c0-3.6,0.1-7.3,0.1-11c0-0.4-0.3-0.7-0.7-0.7c-1.5,0-3.1,0-4.7,0c-0.1,0.1-0.3,0.2-0.3,0.3
	c0,3.6,0,7.3,0,10.9c0,0.7,0.3,1.3,1,1.6c0.3,0.2,0.7,0.3,0.6,0.8c-0.1,0.4-0.5,0.3-0.8,0.3c-2.9,0-5.8,0-8.7,0
	c-0.3,0-0.7,0.1-0.8-0.4c-0.1-0.4,0.1-0.6,0.5-0.7c0.6-0.2,0.8-0.8,1.1-1.4c0-0.3,0.1-0.6,0.1-0.9c0-4.8,0-9.5-0.1-14.3
	c0-1.5,0.4-3.2-1.5-4c-0.2-0.1-0.3-0.6,0.2-0.7c3.2-0.2,6.5-0.2,9.7,0c0.7,0.6,0.1,0.7-0.3,1c-0.8,0.6-1.5,3.9-1,4.7
	c0.1,0.1,0.2,0.3,0.4,0.3c1.8-0.2,3.6,0.4,5.3-0.3c0-1.1,0-2.2-0.1-3.3c-0.3-0.6-0.5-1.2-1.3-1.5c-0.2-0.1-0.4-0.2-0.4-0.4
	c0-0.2,0.1-0.3,0.4-0.5c3.2-0.2,6.5-0.2,9.7,0c0.6,0.3,0.2,0.8-0.1,0.9c-1.3,0.4-1.3,1.5-1.3,2.6c0,5.1,0,10.2,0,15.3
	c0,1.1,0.1,2.1,1.3,2.6C163,79,163,79.3,163,79.6z"/>
<path class="st6" d="M223.8,62.8c-2.3,0-3.8,1.4-5.1,3.1c-0.2-0.8-0.3-1.4-0.5-2c-0.1-0.4-0.3-0.9-0.9-0.8c-2,0.1-4,0.3-6,0.4
	c-0.3,0-0.7,0-0.7,0.5c0,0.3,0.2,0.5,0.5,0.6c1,0.3,1.2,1,1.2,1.9c0,3.5,0,7.1,0,10.6c0,0.8-0.2,1.6-1.1,1.8
	c-0.4,0.1-0.6,0.3-0.5,0.7c0.1,0.3,0.5,0.3,0.7,0.3c2.8,0,5.6,0,8.4,0c0.2,0,0.6,0.1,0.7-0.2c0.1-0.4-0.1-0.6-0.4-0.8
	c-1-0.3-1.1-1.3-1.4-2.1c0-0.6-0.1-1.3-0.1-1.9c0.1-1.9,0.2-3.8,0.4-5.6c0.2-2,1.6-3.1,3.4-2.3c2,0.9,2.2-0.2,2.5-1.6
	c0.1-0.4,0.1-0.8,0.3-1.1C225.7,62.9,224.8,62.8,223.8,62.8z M218.4,77.1c0-0.1,0-0.1,0-0.2C218.4,77,218.4,77,218.4,77.1
	C218.4,77.1,218.4,77.1,218.4,77.1z"/>
<path class="st6" d="M209,79c-1.6-0.6-1.5-2-1.5-3.3c0-3.8,0-7.5,0-11.3c0-1-0.2-1.4-1.3-1.1c-1.5,0.3-3,0.4-4.4,0.6
	c-2.1,0.3-2.1,0.3-0.9,1.9c0.1,0.2,0.2,0.4,0.3,0.6c0,3.7,0,7.5,0.1,11.2c-0.4,0.9-0.8,1.7-2,1.5c-1.2-0.4-1.8-1.4-2.2-2.6
	c-1.8-5.2-3.6-10.4-5.4-15.7c-0.3-1-0.4-1.8,0.5-2.5c0.3-0.8-0.2-0.8-0.7-0.8c-2.9,0-5.8,0-8.6,0c-0.6,0-1,0.1-0.6,0.8
	c0.6,0.6,0.9,1.3,0.6,2.2c-1.9,5.1-3.8,10.3-5.7,15.4c-0.5,1.2-1.1,2.4-2.5,2.9c-0.4,0.1-0.6,0.4-0.5,0.8c0.1,0.4,0.5,0.3,0.8,0.3
	c2,0,4,0,6,0c0.3,0,0.7,0.1,0.8-0.4c0.1-0.4-0.2-0.6-0.5-0.7c-1.2-0.3-1.4-1.2-1.1-2.2c0.5-1.5,1-3.1,1.5-4.6
	c0.1-0.4,0.3-0.6,0.9-0.6c2.7,0.3,5.1,1.2,6.6,3.6c1,1.6,0.7,2.7-0.7,3.8c-0.6,0.5-1,0.9,0.2,1c3.1,0,6.2,0,9.3,0.1
	c3.5,0,7,0,10.5,0c0.3,0,0.7,0.2,0.9-0.2C209.3,79.4,209.3,79.1,209,79z M182.6,68.9c0.8-2.2,1.5-4.1,2.3-6.3
	c0.8,2.7,1.6,5.1,2.4,7.7C185.7,69.6,184.3,69.1,182.6,68.9z"/>
<path class="st6" d="M204.1,62.3c1.6,0.1,2.8-0.4,3.4-2c0.4-0.7,0.4-1.3,0-2c-0.1-0.7-0.6-1.2-1.1-1.5c-1.3-0.8-2.6-0.9-3.9,0
	c-1.2,0.8-1.7,2-1.2,3.3C201.6,61.4,202.7,62.2,204.1,62.3z"/>
<path class="st6" d="M131.5,66.1c1.6-1.3,3.8-1.8,4.5-3.9c0.5-0.9,0.5-1.8,0-2.6c0,0,0,0,0,0c-0.9-2.2-2.8-2.1-4.6-2
	c-5.1-0.2-10.3-0.2-15.4,0c-0.7,0.4-0.3,0.8,0.1,0.9c1.1,0.4,1.2,1.4,1.2,2.3c0,5.2,0,10.4,0,15.6c0,0.7-0.1,1.3-0.5,1.9
	c-0.3,0.5-1.4,0.4-1.1,1.2c0.4,0.7,1.3,0.3,2,0.3c2.2,0.1,4.3,0.1,6.5,0c2.8-0.1,5.6,0.2,8.3-0.3c2.5-0.5,4.6-1.5,5.3-4.1
	c0.7-2.7,0-5-2-7C134.6,67.3,133.1,66.7,131.5,66.1z M125.7,59.9c1.4,0.1,3.3-0.5,3.8,1.4c0.5,1.8-1,2.6-2.3,3.4
	c-0.9,0.5-1.8,0.9-2.9,1.4c0-1.7,0-3.2,0-4.6C124.2,60.5,124.6,59.9,125.7,59.9z M131,74.2c-0.4,2.5-3.9,4.3-6.1,3.3
	c-0.6-0.3-0.6-0.8-0.6-1.3c0-1.1,0-2.2,0-3.3c0-0.4,0-0.9,0-1.3c0-2.8,0-2.7,2.6-3.7c0.8-0.3,1.2-0.1,1.8,0.3
	C130.6,69.8,131.3,71.8,131,74.2z"/>
</svg>
