<?xml version="1.0" encoding="utf-8"?>
<!-- Generator: Adobe Illustrator 25.4.1, SVG Export Plug-In . SVG Version: 6.00 Build 0)  -->
<svg version="1.1" id="Layer_1" xmlns="http://www.w3.org/2000/svg" xmlns:xlink="http://www.w3.org/1999/xlink" x="0px" y="0px"
	 viewBox="0 0 84.2 80" style="enable-background:new 0 0 84.2 80;" xml:space="preserve">
<style type="text/css">
	.st0{fill:#2FAAE1;}
</style>
<path class="st0" d="M29.8,57.3c0,0,0.1,3.8,1,8.4c1,4.6-0.3,6.5-3.9,8.9C23.4,77,18.1,80,18.1,80s-0.9-7.1,3.4-12.3
	C25.7,62.5,28.9,60.4,29.8,57.3z"/>
<path class="st0" d="M31.2,61.1c0,0-4.1-18.3-2.5-26.8c0,0,1.7,0.6,3.4,0.9c0,0,0.3-11.7,0-15.2s-1.2-4.7-2.8-5.4
	c-1.7-0.7-7.3-3-10.1-4.9c0,0-4.6-2.7-6.1-4.4c0,0-3.5,7.2-1.5,14.9s9.2,12.3,13.7,13.7c0,0-8.9-1.7-14.6-8.7S4.8,10.5,6.4,0
	c0,0,6.5,4.7,11.4,6.6S28,9.9,29.8,11c1.8,1.2,4.1,5.5,3.2,13.4c0,0,7.2-6.8,13.9-8.3s10.2,0.2,12.4,2c2.2,1.9,3.9,4.1,7.3,5.1
	c3.4,1,14.4,3.1,17.5,7.7c0,0-3.5-3.1-12.4-5.5s-13-1.5-15-0.6c-2,0.9-6.5,3.8-8.4,5.7c-1.9,1.9-9.8,8.2-13.4,16.3
	S31.2,61.1,31.2,61.1z"/>
<path class="st0" d="M32.7,66.1c0,0-0.6-10.7,3.4-18.9s10.4-13.5,10.4-13.5s-0.5,6.5-0.7,8.4s-2.8,8.5-6.6,13.1S32.7,66.1,32.7,66.1
	z"/>
<path class="st0" d="M13.6,7.1c0,0-4.3,10.2,1.9,18.2s15.7,8.4,15.7,8.4s0.4-13-0.4-15.2s-1.6-2.8-4.3-3.8S15.4,8.9,13.6,7.1z"/>
<path class="st0" d="M0,11c0,0,2.2-0.4,4.3,0.7c0,0,0.2,4.4,1.6,7.2s2.8,10.4,16.2,14.8c0,0-6.3,0.1-11.9-3.4
	C4.6,26.8,0.6,16.5,0,11z"/>
<path class="st0" d="M0,22.8h2.7c0,0,4,12.8,21.5,12.3c0,0-9,2.3-16.1-0.8S0,22.8,0,22.8z"/>
<path class="st0" d="M2,33.3l2.3-0.8c0,0,5.1,7.1,19.3,4c0,0-3.5,3.2-11.4,3.2S2,33.3,2,33.3z"/>
</svg>
