<?xml version="1.0" encoding="utf-8"?>
<!-- Generator: Adobe Illustrator 25.4.1, SVG Export Plug-In . SVG Version: 6.00 Build 0)  -->
<svg version="1.1" id="Layer_1" xmlns="http://www.w3.org/2000/svg" xmlns:xlink="http://www.w3.org/1999/xlink" x="0px" y="0px"
	 viewBox="0 0 331 80" style="enable-background:new 0 0 331 80;" xml:space="preserve">
<style type="text/css">
	.st0{fill:#2FAAE1;}
</style>
<g>
	<path class="st0" d="M42.2,41.2h45.1c0,0,7.7-17.7-11.7-19.3c-5.6,0-13.7-0.1-13.7-0.1s-20,0.1-28.3,12.4
		c-8.3,12.3-7.6,26.3,6.8,26.3s31.2,0,31.2,0l1.9-4.5h-26c0,0-8.1-0.5-7.7-7.4C39.8,48.5,41.3,42.7,42.2,41.2z M58.5,26.6
		c0,0,1.3,0,11.6,0c10.2,0,6.2,9.7,6.2,9.7H44.3C48.8,26.4,58.5,26.6,58.5,26.6z"/>
	<path class="st0" d="M243.6,41.2h45.1c0,0,7.7-17.7-11.7-19.3c-5.6,0-13.7-0.1-13.7-0.1s-20,0.1-28.3,12.4
		c-8.3,12.3-7.6,26.3,6.8,26.3s31.2,0,31.2,0l1.9-4.5h-26c0,0-8.1-0.5-7.7-7.4C241.2,48.5,242.7,42.7,243.6,41.2z M259.9,26.6
		c0,0,1.3,0,11.6,0c10.2,0,6.2,9.7,6.2,9.7h-31.9C250.2,26.4,259.9,26.6,259.9,26.6z"/>
	<path class="st0" d="M152.2,21.9l-2,4.7h-31.3c0,0-4.7,0.2-7.3,2.6s-5.7,6.1-8.3,12.8s-2.6,14,3.4,14c6,0,32.4,0,32.4,0l-1.8,4.6
		h-31.7c0,0-16,1.5-15.6-12.2c0.4-13.7,13.3-21.3,16.3-23c3-1.7,9.5-3.4,14-3.4S156.5,21.9,152.2,21.9z"/>
	<path class="st0" d="M188.5,80l1.5-3.9c0,0,7.7-0.9,12-10.8s17-43.5,17-43.5h12.2c0,0-12.8,33.7-15.7,40.4S202.2,80,188.5,80z"/>
	<path class="st0" d="M324.3,60.5l1.9-4.7h-15.5c0,0-7.1,1-5.2-8.1c1.9-9.2,7.5-20.8,7.5-20.8h16.2l1.8-5h-16.2l2.7-8.1h-12.1
		c0,0-10.8,27.6-11.5,29.5s-3.7,17.2,13.9,17.2H324.3z"/>
	<path class="st0" d="M204.5,29.5c-1.8-5.9-9.3-7.6-16.3-7.6h-8.1h-7.7c0,0-14.1,0.7-22.2,11.8c-8.1,11.1-5.9,19.9-3.3,22.4
		c2.6,2.5,4.8,4.5,15.4,4.5c10.6,0,13.9,0,13.9,0s13.3,0,20.5-8.9C203.9,42.8,206.3,35.3,204.5,29.5z M193.2,34.2
		c-0.2,3.1-2.5,10.3-6.6,16c-4.1,5.8-10.3,5.7-10.3,5.7s-9.8,0-14.5,0c-4.8,0-5.3-5.2-4.9-8.2c0.4-3,2.7-10.9,6.8-16
		c4-5.1,10.6-4.7,10.6-4.7h5.4l7.8,0C193,26.9,193.4,31.1,193.2,34.2z"/>
	<path class="st0" d="M18,34.7c0,0,0,2.3,0.6,5.1c0.6,2.8-0.2,4-2.4,5.4c-2.2,1.4-5.3,3.3-5.3,3.3s-0.6-4.3,2-7.4
		C15.6,37.8,17.4,36.5,18,34.7z"/>
	<path class="st0" d="M18.9,37c0,0-2.5-11-1.5-16.2c0,0,1,0.4,2,0.5c0,0,0.2-7.1,0-9.2c-0.2-2.1-0.7-2.9-1.7-3.3
		c-1-0.4-4.4-1.8-6.1-3c0,0-2.8-1.6-3.7-2.7c0,0-2.1,4.4-0.9,9s5.6,7.4,8.3,8.3c0,0-5.3-1-8.8-5.2S2.9,6.3,3.9,0c0,0,4,2.9,6.9,4
		s6.2,2,7.2,2.7c1.1,0.7,2.5,3.3,2,8.1c0,0,4.4-4.1,8.4-5s6.2,0.1,7.5,1.2s2.4,2.5,4.4,3.1c2.1,0.6,8.7,1.9,10.6,4.7
		c0,0-2.1-1.9-7.5-3.3s-7.9-0.9-9.1-0.4c-1.2,0.5-4,2.3-5.1,3.4c-1.1,1.1-5.9,5-8.1,9.9S18.9,37,18.9,37z"/>
	<path class="st0" d="M19.8,40c0,0-0.3-6.4,2-11.4s6.3-8.2,6.3-8.2s-0.3,3.9-0.4,5.1c-0.1,1.2-1.7,5.1-4,7.9S19.8,40,19.8,40z"/>
	<path class="st0" d="M8.2,4.3c0,0-2.6,6.2,1.2,11s9.5,5.1,9.5,5.1s0.2-7.9-0.3-9.2c-0.5-1.3-1-1.7-2.6-2.3S9.3,5.3,8.2,4.3z"/>
	<path class="st0" d="M0,6.7c0,0,1.3-0.2,2.6,0.4c0,0,0.1,2.7,0.9,4.3s1.7,6.3,9.8,9c0,0-3.8,0.1-7.2-2.1S0.3,10,0,6.7z"/>
	<path class="st0" d="M0,13.8h1.6c0,0,2.4,7.7,13,7.4c0,0-5.5,1.4-9.7-0.5S0,13.8,0,13.8z"/>
	<path class="st0" d="M1.2,20.1l1.4-0.5c0,0,3.1,4.3,11.7,2.4c0,0-2.1,2-6.9,2S1.2,20.1,1.2,20.1z"/>
</g>
</svg>
