<?xml version="1.0" encoding="utf-8"?>
<!-- Generator: Adobe Illustrator 25.3.1, SVG Export Plug-In . SVG Version: 6.00 Build 0)  -->
<svg version="1.1" id="Layer_1" xmlns="http://www.w3.org/2000/svg" xmlns:xlink="http://www.w3.org/1999/xlink" x="0px" y="0px"
	 viewBox="0 0 224.89 80" style="enable-background:new 0 0 224.89 80;" xml:space="preserve">
<style type="text/css">
	.st0{fill:#ED4138;}
	.st1{fill:#00693A;}
	.st2{fill:#DF1804;}
	.st3{fill:#214078;}
	.st4{fill:#3487C7;}
	.st5{fill:url(#SVGID_1_);}
	.st6{fill:url(#SVGID_2_);}
	.st7{fill:#184A8A;}
	.st8{fill:url(#SVGID_3_);}
	.st9{fill:url(#SVGID_4_);}
	.st10{fill:url(#SVGID_5_);}
	.st11{fill:url(#SVGID_6_);}
	.st12{fill:#9E8266;}
	.st13{fill:#322E26;}
	.st14{fill:#332F27;}
	.st15{fill:#791722;}
	.st16{fill:url(#SVGID_7_);}
	.st17{fill:url(#SVGID_8_);}
	.st18{fill:url(#SVGID_9_);}
	.st19{fill:url(#SVGID_10_);}
	.st20{fill:url(#SVGID_11_);}
	.st21{fill:url(#SVGID_12_);}
	.st22{fill:url(#SVGID_13_);}
	.st23{fill:url(#SVGID_14_);}
	.st24{fill:url(#SVGID_15_);}
	.st25{fill:url(#SVGID_16_);}
	.st26{fill:url(#SVGID_17_);}
	.st27{fill:url(#SVGID_18_);}
	.st28{fill:url(#SVGID_19_);}
	.st29{fill:url(#SVGID_20_);}
	.st30{fill:url(#SVGID_21_);}
	.st31{fill:#222325;}
	.st32{fill:#A0925A;}
	.st33{fill:#061E34;}
	.st34{fill:#028E8F;}
	.st35{fill:#D5192C;}
	.st36{fill:#FAC201;}
	.st37{fill:url(#SVGID_22_);}
	.st38{fill:url(#SVGID_23_);}
	.st39{fill:url(#SVGID_24_);}
	.st40{fill:url(#SVGID_25_);}
	.st41{fill:#9F8A58;}
	.st42{fill:#749ED4;}
	.st43{fill:#045991;}
	.st44{fill:#1F9A8D;}
	.st45{fill:#222D68;}
	.st46{fill:#14152E;}
	.st47{fill:#62B3E4;}
	.st48{fill:#FEFEFE;}
	.st49{fill:none;}
	.st50{fill:#FC0302;}
	.st51{fill:#FE0807;}
	.st52{fill:#98684C;}
	.st53{fill:#86754D;}
	.st54{fill:#42484D;}
	.st55{fill:#41474C;}
	.st56{fill:#43494D;}
	.st57{fill:#DF073D;}
	.st58{fill:#DE023A;}
	.st59{fill:#FFFFFF;}
	.st60{fill:#6F6E6C;}
	.st61{fill:#072F67;}
	.st62{fill:#53A220;}
	.st63{fill:#FDC013;}
	.st64{fill:url(#SVGID_26_);}
	.st65{fill:url(#SVGID_27_);}
	.st66{fill:url(#SVGID_28_);}
	.st67{fill:#793A98;}
	.st68{fill:url(#SVGID_29_);}
	.st69{fill:url(#SVGID_30_);}
	.st70{fill:url(#SVGID_31_);}
	.st71{fill:url(#SVGID_32_);}
	.st72{fill:url(#SVGID_33_);}
</style>
<g>
	<path class="st50" d="M224.61,29.93c-0.67,0.98-1.08,2.1-1.64,3.14c-0.15,0.27-0.29,0.54-0.44,0.84c-2.51-0.67-4.09,0.67-5.38,2.52
		c-1.06,1.52-1.52,3.32-2.01,5.08c-0.58,2.08-1.12,4.17-1.68,6.26c-0.06,0.22-0.13,0.44-0.2,0.69c-1.5,0-2.99,0-4.61,0
		c1.66-6.24,3.3-12.45,4.95-18.67c1.44,0,2.86,0,4.32,0c-0.27,1.07-0.54,2.1-0.8,3.13c0.64-0.69,1.2-1.39,1.85-2.01
		c1.64-1.57,3.49-2.14,5.65-1.13C224.61,29.82,224.61,29.88,224.61,29.93z"/>
	<path class="st50" d="M189.43,22.68c1.85,0,3.62,0,5.47,0c0.63,8.58,1.27,17.15,1.9,25.76c-1.53,0-3.04,0-4.62,0
		c-0.12-1.88-0.24-3.75-0.36-5.6c-0.2-0.18-0.42-0.12-0.62-0.12c-2.69,0-5.38,0.01-8.07-0.02c-0.52-0.01-0.78,0.17-1.02,0.61
		c-0.88,1.58-1.81,3.13-2.69,4.7c-0.2,0.36-0.44,0.5-0.86,0.49c-1.44-0.03-2.88-0.01-4.45-0.01
		C179.26,39.82,184.33,31.26,189.43,22.68z M185,38.35c2.23,0,4.35,0,6.53,0c-0.2-3.37-0.39-6.7-0.58-10.03
		c-0.04-0.01-0.09-0.02-0.13-0.03C188.89,31.62,186.96,34.95,185,38.35z"/>
	<path class="st50" d="M138.25,35.74c1.89-1.83,3.79-3.66,5.66-5.51c0.36-0.36,0.73-0.49,1.23-0.48c1.7,0.02,3.4,0.01,5.14,0.01
		c-0.08,0.3-0.3,0.41-0.46,0.56c-2.07,1.91-4.13,3.83-6.22,5.71c-0.43,0.39-0.5,0.73-0.37,1.27c0.85,3.56,1.67,7.12,2.51,10.69
		c0.04,0.15,0.08,0.3,0,0.48c-1.46,0-2.92,0-4.51,0c-0.56-2.8-1.12-5.64-1.7-8.56c-0.72,0.49-1.22,1.12-1.85,1.58
		c-1.14,0.83-1.77,1.91-2.02,3.3c-0.22,1.23-0.64,2.43-0.98,3.67c-1.53,0-3.02,0-4.62,0c2.29-8.6,4.56-17.15,6.85-25.75
		c1.51,0,3.02,0,4.55,0c0.09,0.29-0.06,0.54-0.13,0.8c-1,3.76-2.01,7.52-3.01,11.29c-0.07,0.27-0.2,0.54-0.16,0.83
		c-0.07,0.04-0.11,0.12-0.05,0.18C138.15,35.87,138.2,35.78,138.25,35.74z"/>
	<path class="st50" d="M151.2,29.79c1.55,0,3.03,0,4.6,0c0.2,4.66,0.54,9.3,0.62,13.97c2.11-4.88,5.04-9.32,7.52-13.98
		c1.62,0,3.2,0,4.77,0c0.12,0.26-0.09,0.4-0.18,0.56c-4.14,7.05-8.29,14.1-12.45,21.14c-0.49,0.82-0.99,1.63-1.6,2.37
		c-1.14,1.39-2.55,2.2-4.42,2.13c-1.12-0.04-2.21-0.09-3.34-0.54c0.22-1.2,0.44-2.4,0.67-3.63c0.3-0.12,0.56,0.02,0.83,0.07
		c1.1,0.21,2.04-0.06,2.84-0.85c0.69-0.68,1.18-1.49,1.61-2.35c0.14-0.28,0.08-0.56,0.06-0.84c-0.28-3.24-0.58-6.47-0.85-9.71
		C151.64,35.38,151.43,32.63,151.2,29.79z"/>
	<path class="st50" d="M107.08,29.78c1.56,0,3.06,0,4.67,0c-1.78,6.26-3.54,12.46-5.3,18.68c-1.46,0-2.88,0-4.34,0
		c0.2-0.75,0.38-1.46,0.62-2.35c-0.68,0.65-1.25,1.14-1.87,1.55c-1.26,0.83-2.63,1.33-4.15,1.3c-2.05-0.04-3.49-1.41-3.69-3.45
		c-0.1-1.01-0.02-2.01,0.25-2.99c1.16-4.22,2.33-8.45,3.51-12.71c1.56,0,3.1,0,4.7,0c-0.36,1.27-0.71,2.51-1.06,3.75
		c-0.83,2.95-1.65,5.91-2.48,8.86c-0.07,0.25-0.13,0.5-0.17,0.75c-0.27,1.55,0.94,2.57,2.42,2.01c1.1-0.42,1.89-1.24,2.57-2.17
		c0.6-0.82,0.99-1.75,1.3-2.71c1.01-3.19,1.82-6.45,2.77-9.66C106.91,30.38,106.99,30.1,107.08,29.78z"/>
	<path class="st50" d="M77.61,44.16c4.03,0,7.98,0,12,0c-0.4,1.49-0.77,2.89-1.14,4.28c-1.12,0.1-16.2,0.07-16.86-0.03
		c2.28-8.57,4.55-17.13,6.84-25.72c1.61,0,3.2,0,4.87,0C81.42,29.85,79.52,36.96,77.61,44.16z"/>
	<path class="st50" d="M129.94,35.7c-1.44,0.17-2.85,0.34-4.26,0.51c-0.2-0.27-0.15-0.56-0.19-0.83c-0.29-1.87-1.73-2.73-3.52-2.08
		c-1.12,0.41-1.95,1.18-2.53,2.18c-1.25,2.16-1.93,4.5-1.89,7.01c0.04,2.17,1.86,3.22,3.79,2.21c0.9-0.47,1.55-1.19,2.04-2.07
		c0.17-0.31,0.32-0.64,0.51-1.01c1.45,0.25,2.89,0.51,4.33,0.76c-0.76,3.05-4.05,5.95-7.23,6.45c-1.11,0.17-2.22,0.18-3.31-0.08
		c-2.6-0.62-4.37-2.65-4.63-5.47c-0.33-3.57,0.42-6.92,2.56-9.82c2.42-3.27,5.73-4.77,9.83-4.02
		C128.29,29.98,130.19,32.69,129.94,35.7z"/>
	<path class="st51" d="M101.27,77.68c-0.6,1.18-1.72,1.04-2.79,1.12c-0.15-0.48-0.23-0.96-0.5-1.37c0.08-0.05,0.12-0.1,0.15-0.1
		c1.65-0.02,1.71-0.07,2.01-1.66c0.22-1.18,0.46-2.36,0.7-3.59c-0.59-0.05-1.1-0.06-1.66,0c-0.61,2.33-1.51,4.53-3,6.53
		c-0.38-0.38-0.8-0.66-1.27-0.89c2.1-2.74,2.88-5.94,3.54-9.19c0.5-2.47,1.06-4.94,1.38-7.5c1.58,0.13,3.12,0.16,4.7,0
		c-1.15,5.46-2.21,10.84-3.22,16.23c0,0.12,0.01,0.21,0,0.36 M101.32,77.73c-0.02-0.02-0.04-0.04-0.06-0.07 M101.34,77.66
		c0.05-0.09,0.1-0.17,0.14-0.25c0.7-1.07,1.05-2.29,1.46-3.48c1.03-2.98,1.58-6.09,2.19-9.17c0.24-1.21,0.47-2.42,0.64-3.72
		c1.55,0.12,3.09,0.11,4.7-0.01c-0.49,1.84-0.81,3.61-1.16,5.38c-0.71,3.57-1.41,7.14-2.12,10.7c-0.29,1.44-0.62,1.74-2.09,1.92
		c-0.25,0.03-0.51,0.03-0.79,0.05c-0.16-0.45-0.3-0.89-0.49-1.42c0.35,0,0.67,0.01,0.98,0c0.52-0.02,0.9-0.28,1.01-0.8
		c0.33-1.59,0.64-3.18,0.96-4.82c-0.59-0.14-1.11-0.08-1.67-0.05c-0.72,2.36-1.54,4.66-2.85,6.8c-0.32-0.36-0.61-0.68-0.95-1.06
		L101.34,77.66z M107.76,67.16c-0.6,0-1.11,0-1.67,0c-0.23,1.14-0.45,2.27-0.68,3.43c0.6,0.09,1.12,0.1,1.68,0
		C107.3,69.46,107.52,68.35,107.76,67.16z M99.45,70.71c0.64-0.04,1.16,0.06,1.7-0.07c0.22-1.15,0.43-2.24,0.65-3.39
		c-0.6-0.01-1.11-0.05-1.67,0.04C99.91,68.39,99.69,69.49,99.45,70.71z M108.65,62.61c-0.63-0.01-1.13-0.05-1.68,0.04
		c-0.2,1.03-0.4,2.06-0.61,3.12c0.59,0.07,1.12,0.11,1.68-0.02C108.23,64.73,108.43,63.72,108.65,62.61z M101.04,62.63
		c-0.21,1.1-0.41,2.15-0.62,3.22c0.6,0,1.1,0,1.66,0c0.21-1.07,0.42-2.12,0.63-3.2C102.14,62.57,101.63,62.59,101.04,62.63z"/>
	<path class="st51" d="M84.47,72.9c0.21-1.07,0.4-2.07,0.6-3.11c-1.42-0.09-2.78,0.09-4.23,0.13c0.13-0.66,0.24-1.25,0.37-1.88
		c1.4,0.01,2.76,0.15,4.16,0.08c0.24-0.86,0.39-1.71,0.54-2.67c-1.6,0.06-3.14,0.11-4.74,0.17c0.02-0.64,0.18-1.24,0.34-1.89
		c1.75,0.14,3.48,0.12,5.2,0.2c0.77,0.04,1.22-0.22,1.63-0.86c0.75-1.17,1.45-2.37,2-3.69c0.87,0.35,1.67,0.72,2.67,1
		c-1.5,0.91-2.39,2.21-3.43,3.44c1.31,0.08,2.6,0.05,3.96-0.11c-0.06,0.69-0.18,1.3-0.39,1.92c-1.72-0.09-3.41-0.25-5.15-0.18
		c-0.25,0.86-0.37,1.71-0.55,2.65c1.53,0.09,3.02-0.06,4.55-0.08c-0.05,0.65-0.18,1.24-0.34,1.87c-1.51-0.02-3-0.22-4.52-0.13
		c-0.27,1.01-0.44,2.02-0.63,3.12c1.99-0.02,3.94-0.02,5.97-0.19c-0.05,0.69-0.18,1.3-0.37,1.91c-1.96-0.06-3.89-0.12-5.88-0.18
		c-0.41,1.71-0.58,3.43-0.83,5.15c-0.83,0-1.62,0-2.49,0c0.43-1.7,0.91-3.35,1.21-5.15c-1.88,0.06-3.67,0.11-5.53,0.17
		c-0.03-0.65,0.18-1.25,0.33-1.9C80.76,72.86,82.57,72.89,84.47,72.9z"/>
	<path class="st50" d="M204.62,29.78c1.57,0,3.06,0,4.63,0c-1.66,6.24-3.3,12.44-4.96,18.66c-1.55,0-3.06,0-4.63,0
		C201.32,42.22,202.97,36.02,204.62,29.78z"/>
	<path class="st51" d="M129.51,61.86c1.28,0,2.46-0.01,3.63-0.15c-1.11,4.66-1.95,9.3-2.81,13.94c-0.29,1.54-1.02,2.34-2.48,2.63
		c-0.35,0.07-0.7,0.16-1.1,0.26c-0.1-0.61-0.13-1.22-0.38-1.85c0.42-0.02,0.77-0.04,1.12-0.06c0.6-0.04,0.94-0.35,1.05-0.94
		c0.35-1.85,0.71-3.69,1.08-5.59c-1.25,0-2.48,0-3.76,0c-0.7,3.34-1.48,6.65-3.43,9.59c-0.37-0.56-0.81-1.01-1.43-1.41
		c1.9-2.4,2.49-5.27,3.08-8.16c-0.53-0.12-1.01,0.04-1.56,0.02c0.11-0.58,0.22-1.09,0.32-1.6c0.54-0.12,1.02,0.1,1.56-0.05
		c0.45-2.23,0.96-4.46,1.21-6.76c0.75,0.03,1.44,0.15,2.15,0.09c0.41-0.71,0.45-1.52,0.66-2.34c0.84,0.09,1.66,0.19,2.61,0.3
		C130.36,60.39,129.91,61.03,129.51,61.86z M127.17,63.41c-0.31,1.74-0.74,3.43-0.97,5.17c1.3,0,2.5,0,3.72,0
		c0.34-1.74,0.68-3.42,1.02-5.17C129.67,63.41,128.46,63.41,127.17,63.41z"/>
	<path class="st51" d="M156.85,76.85c0.28-1.43,0.56-2.84,0.87-4.38c-1.82-0.04-3.58,0.08-5.41,0.16c0.14-0.7,0.26-1.32,0.4-2.01
		c4.57,0.29,9.11,0.28,13.71,0c-0.14,0.7-0.27,1.33-0.4,1.98c-2.02-0.06-3.99-0.12-6.02-0.18c-0.3,1.51-0.59,2.94-0.88,4.43
		c3.09,0.08,6.13-0.08,9.21-0.16c-0.05,0.73-0.17,1.37-0.38,2.01c-6.77-0.22-13.51-0.22-20.28-0.01c-0.01-0.68,0.22-1.29,0.33-1.98
		C150.93,76.71,153.86,76.91,156.85,76.85z"/>
	<path class="st51" d="M114.44,69.59c-0.11-0.49-0.12-0.96-0.33-1.37c0.09-0.05,0.13-0.1,0.17-0.1c1.45,0.04,1.59-0.07,2.01-1.46
		c0.31-1.06,0.63-2.12,0.97-3.23c-1.44,0-2.83,0-4.3,0c-0.47,2.37-0.94,4.76-1.43,7.24c2.32,0.06,4.58,0.05,6.93-0.18
		c-0.18,0.69-0.34,1.3-0.5,1.9c-0.38,1.37-0.81,2.72-1.13,4.1c-0.36,1.55-1.26,2.43-2.83,2.64c-0.64,0.09-1.27,0.19-1.94,0.29
		c-0.14-0.65-0.04-1.3-0.41-1.88c0.49-0.13,0.92-0.02,1.35-0.05c1.39-0.08,1.82-0.41,2.18-1.73c0.33-1.22,0.66-2.43,1.01-3.75
		c-2.24-0.06-4.42-0.04-6.65,0.18c0.84-3.39,1.46-6.77,2.05-10.16c0.64,0,1.28,0,1.96,0c0.39-0.59,0.46-1.32,0.68-2.02
		c0.73,0.09,1.44,0.18,2.26,0.28c-0.59,0.5-1,1.02-1.37,1.77c1.46,0.01,2.83,0.05,4.3-0.09c-0.3,1-0.58,1.92-0.86,2.84
		c-0.25,0.81-0.48,1.63-0.74,2.44C117.26,69.02,116.39,69.62,114.44,69.59z"/>
	<path class="st51" d="M139.46,68.41c-1.09,0-2.11,0-3.2,0c-0.19,0.92-0.37,1.85-0.56,2.78c-0.61,2.94-1.75,5.61-4,7.69
		c-0.26,0.25-0.55,0.47-0.82,0.7c-0.08,0.06-0.17,0.1-0.3,0.17c-0.49-0.43-1.06-0.72-1.69-0.88c0.03-0.06,0.04-0.1,0.06-0.11
		c2.92-1.76,4.27-4.51,4.89-7.72c0.27-1.39,0.54-2.78,0.83-4.25c2.37,0.09,4.77,0.14,7.22-0.02c-0.88,3.38-1.46,6.76-2.09,10.1
		c0.93,0.31,1.27,0.2,1.71-0.45c0.42-0.62,0.61-1.35,0.95-2.07c0.44,0.57,0.93,1.03,1.65,1.22c-0.33,0.76-0.7,1.43-1.11,2.08
		c-0.45,0.71-1.11,1.06-1.94,1.08c-0.65,0.02-1.29,0.03-1.94,0.01c-1.25-0.03-1.56-0.39-1.34-1.64c0.25-1.37,0.53-2.73,0.8-4.1
		C138.86,71.49,139.16,69.97,139.46,68.41z"/>
	<path class="st51" d="M77.95,72.64c-0.33-0.89-0.62-1.68-1.14-2.57c-0.6,3.17-1.29,6.14-1.71,9.19c-0.71,0.13-1.39,0.04-2.18,0.07
		c0.67-2.8,1.22-5.54,1.71-8.3c-0.07-0.03-0.14-0.06-0.21-0.09c-1.13,0.91-2.27,1.83-3.48,2.8c-0.17-0.72-0.18-1.4-0.56-2.04
		c2.73-1.26,4.8-3.25,6.83-5.56c-1.79-0.09-3.4-0.04-5.07,0.13c0.1-0.68,0.18-1.3,0.4-1.93c2.62,0.19,5.23,0.21,7.83-0.01
		c0.1,0.27-0.11,0.4-0.21,0.55c-0.67,0.95-1.37,1.89-2.24,2.66c-0.78,0.69-0.96,1.53-1.07,2.55c0.61-0.25,1.01-0.7,1.57-0.99
		c0.49,0.77,0.88,1.6,1.52,2.37C79.26,71.87,78.65,72.23,77.95,72.64z"/>
	<path class="st51" d="M170.87,62.05c-0.27,1.38-0.52,2.67-0.78,3.97c-0.67,0.1-1.3,0.07-1.99,0.02c0.14-0.77,0.27-1.5,0.41-2.28
		c-5.24,0-10.44,0-15.72,0c-0.18,0.87-0.37,1.76-0.57,2.68c-0.64,0-1.25,0-1.96,0c0.28-1.45,0.56-2.88,0.86-4.37
		c3.07,0.14,6.13,0.13,9.22,0.13c-0.03-0.86-0.23-1.6-0.4-2.39c0.76-0.28,1.55-0.38,2.36-0.56c0.47,0.91,0.4,1.9,0.49,2.93
		C165.44,62.21,168.09,62.21,170.87,62.05z"/>
	<path class="st51" d="M209.94,27.21c-1.58,0-3.05,0-4.63,0c0.4-1.53,0.79-3.01,1.19-4.52c1.54,0,3.05,0,4.63,0
		C210.73,24.2,210.34,25.68,209.94,27.21z"/>
	<path class="st51" d="M133.19,64.74c0.13-0.65,0.24-1.2,0.36-1.85c4.06,0.22,8.13,0.23,12.25,0c-0.08,0.69-0.19,1.28-0.37,1.88
		C141.36,64.59,137.32,64.61,133.19,64.74z"/>
	<path class="st51" d="M167.69,70.6c-1.88-1.44-3.81-2.71-5.96-3.72c0.41-0.54,0.96-0.87,1.46-1.35c2.2,0.92,4.23,2.15,6.25,3.55
		C168.83,69.61,168.27,70.09,167.69,70.6z"/>
	<path class="st51" d="M151.74,70.6c-0.41-0.48-0.81-0.88-1.33-1.28c2.43-1,4.59-2.32,6.45-4.13c0.64,0.44,1.24,0.87,1.93,1.34
		C156.33,67.78,154.11,69.25,151.74,70.6z"/>
	<path class="st51" d="M108.3,75.56c0.11-0.58,0.2-1.05,0.3-1.62c1.94,0.08,3.89,0.1,5.86-0.01c0.01,0.57-0.17,1.05-0.25,1.6
		C112.26,75.45,110.34,75.41,108.3,75.56z"/>
	<path class="st51" d="M78.28,59.88c0.27,1.01,0.52,1.93,0.77,2.89c-0.79,0.34-1.61,0.41-2.46,0.64c-0.04-1-0.12-1.97-0.52-2.91
		C76.79,60.19,77.51,60.12,78.28,59.88z"/>
	<path class="st51" d="M137.71,60.01c0.81-0.25,1.56-0.49,2.39-0.75c0.4,0.86,0.7,1.71,0.93,2.66c-0.84,0.22-1.63,0.43-2.47,0.65
		C138.25,61.72,138.13,60.85,137.71,60.01z"/>
	<path class="st51" d="M86.72,62.93c-0.8,0.17-1.5,0.33-2.31,0.5c-0.04-1.02-0.08-1.98-0.44-2.96c0.69-0.2,1.32-0.39,2.02-0.59
		C86.39,60.84,86.58,61.84,86.72,62.93z"/>
	<path class="st51" d="M127.62,74.55c-0.6,0-1.11,0-1.66,0c0.28-1.08,0.59-2.11,0.76-3.19c0.45-0.13,0.9-0.07,1.42-0.05
		C127.97,72.41,127.8,73.47,127.62,74.55z"/>
	<path class="st51" d="M115.28,66.77c-0.55,0.19-1.06,0.19-1.6,0.3c0.08-0.82,0.16-1.58,0.24-2.37c0.46-0.06,0.92-0.12,1.47-0.19
		C115.35,65.26,115.32,65.99,115.28,66.77z"/>
	<path class="st50" d="M4.74,35.66c0.03,0.06,0.01,0.11-0.05,0.11c-0.03,0-0.05-0.04-0.08-0.07C4.65,35.69,4.7,35.68,4.74,35.66
		C4.74,35.66,4.74,35.66,4.74,35.66z"/>
	<path class="st50" d="M138.25,35.74c-0.05,0.04-0.1,0.13-0.17,0.06c-0.06-0.06-0.02-0.13,0.05-0.18
		C138.18,35.66,138.21,35.7,138.25,35.74z"/>
	<g>
		<path class="st51" d="M4.74,35.66C4.74,35.66,4.75,35.66,4.74,35.66C4.74,35.66,4.74,35.66,4.74,35.66L4.74,35.66z"/>
		<path class="st51" d="M54.08,18.46c0.22-0.05,0.23-0.26,0.29-0.41c0.58-1.29,1.1-2.6,1.48-3.96c0.09-0.32,0.17-0.65,0.24-0.97
			c0.07-0.32,0.23-0.62,0.1-0.99c-0.61,1.96-1.34,3.84-2.43,5.57l0.01-0.02c-0.09,0.14-0.18,0.21-0.3,0.02
			c0.1,0,0.15-0.18,0.26-0.05l0-0.01c-0.1-0.21,0.09-0.33,0.09-0.52l0-0.01c0.15-0.19,0.27-0.39,0.28-0.65l0,0
			c0.14-0.07,0.12-0.2,0.11-0.33c0.89-2.18,1.68-4.38,1.94-6.8c-0.36,0.13-0.36,0.4-0.44,0.6c-1.32,3.59-3.15,6.92-5.33,10.05
			c-1.33,1.91-2.76,3.72-4.43,5.34c-0.23,0.22-0.44,0.53-0.87,0.34c0.34-0.41,0.68-0.79,1.01-1.19c0.73-0.89,1.53-1.73,2.1-2.74
			c0.1-0.02,0.13-0.09,0.15-0.18c0.1-0.02,0.14-0.09,0.15-0.18c0.11-0.06,0.16-0.16,0.18-0.27c0.09-0.02,0.13-0.08,0.13-0.17
			l0.01-0.01c0.12-0.05,0.16-0.16,0.18-0.28c0.09-0.02,0.13-0.08,0.13-0.17l0.01-0.01c0.14-0.05,0.15-0.17,0.17-0.29
			c0.09-0.02,0.13-0.08,0.13-0.17c0.49-0.54,0.64-1.29,1.11-1.84c0.09-0.02,0.13-0.08,0.12-0.17c0.04-0.03,0.06-0.06,0.04-0.11
			c0.13-0.07,0.16-0.2,0.18-0.33c0.08-0.04,0.1-0.1,0.09-0.18C51,17.37,51.02,17.34,51,17.3c0.81-1.39,1.45-2.85,1.82-4.42
			c-0.66,1.38-1.46,2.68-2.17,4.02l0,0c-0.17,0.1-0.31,0.23-0.34,0.43l0,0c-0.18,0.11-0.28,0.29-0.35,0.48
			c-0.08,0.02-0.1,0.08-0.09,0.15c-0.19,0.09-0.29,0.26-0.34,0.45l0,0c-0.09,0.02-0.13,0.07-0.15,0.16
			c-0.09,0.02-0.13,0.07-0.14,0.16c-0.05-0.01-0.09,0.01-0.12,0.05l0.01-0.02c0,0-0.01,0.01-0.01,0.01
			c-0.04-0.23,0.12-0.38,0.23-0.54c1.08-1.68,2.02-3.42,2.88-5.22c0.39-0.82,0.55-1.72,0.96-2.53c0.74-1.8,1.3-3.65,1.47-5.61
			c-0.53,1.77-1.14,3.5-1.83,5.21c-0.05,0.02-0.1,0.04-0.16,0.06c0.07-0.32,0.14-0.64,0.21-0.96c0,0,0,0-0.01,0
			c0.2-0.29,0.3-0.61,0.33-0.96l-0.01-0.04c0.17-0.16,0.16-0.38,0.19-0.59l-0.01-0.03c0.09-0.07,0.1-0.16,0.08-0.27
			c0.64-2.23,1.14-4.49,1.26-6.82c-0.16,0-0.31,0-0.47,0c0.07,0.32-0.09,0.61-0.16,0.9C53.33,4.78,52.12,8,50.4,11.02
			c-0.17,0.31-0.29,0.7-0.87,0.79c0.87-1.56,1.54-3.09,1.66-4.8c0.36-0.63,0.55-1.32,0.63-2.04c-0.45,0.62-0.65,1.35-0.97,2.03
			c-2.21,4.87-5.29,9.16-8.84,13.13c-3.53,3.95-7.42,7.51-11.86,10.7c-0.02-0.69,0.39-0.85,0.66-1.07c1.65-1.37,3.16-2.89,4.69-4.38
			c1.39-1.34,2.59-2.85,3.84-4.32c0.2-0.07,0.25-0.25,0.33-0.42c0.09-0.02,0.13-0.07,0.15-0.16c1.27-1.46,2.31-3.07,3.04-4.87
			c-0.62,0.92-1.29,1.79-1.97,2.65c-0.16,0.21-0.17,0.59-0.57,0.54l-0.01,0c0.12,0.39-0.24,0.46-0.45,0.64
			c-0.02,0.08-0.04,0.16-0.05,0.24c-0.1,0.02-0.14,0.08-0.15,0.17c-0.13,0.03-0.19,0.13-0.22,0.25l-0.01,0
			c-0.22,0.18-0.45,0.35-0.57,0.63l0,0.01c-0.1,0.01-0.15,0.06-0.16,0.16c-0.09,0.01-0.15,0.05-0.16,0.15
			c-0.1,0-0.15,0.05-0.16,0.15c-0.12,0-0.19,0.05-0.21,0.17l-0.02-0.03c0.04-0.03,0.04-0.06,0.01-0.09l0-0.05
			c0.11-0.03,0.17-0.11,0.17-0.22c0.1-0.01,0.14-0.07,0.14-0.17c0.1-0.01,0.14-0.07,0.14-0.16c0.1-0.01,0.14-0.07,0.14-0.17l0,0
			c0.09-0.01,0.13-0.07,0.14-0.16l0.04-0.05c0.1-0.04,0.15-0.11,0.17-0.21c0.09-0.02,0.14-0.08,0.15-0.17
			c0.09-0.02,0.13-0.08,0.14-0.17c0.1-0.01,0.14-0.07,0.14-0.17l0,0c0.1-0.06,0.19-0.11,0.29-0.17c0.02-0.09,0.04-0.19,0.07-0.28
			c0.09-0.01,0.11-0.07,0.11-0.15c0.1-0.02,0.14-0.08,0.14-0.18l0.01-0.01c0.05-0.01,0.07-0.01,0.12-0.01l0.01-0.01
			c0.02-0.09,0.04-0.17,0.06-0.26c0.09-0.02,0.13-0.08,0.14-0.17c0.18-0.1,0.27-0.26,0.32-0.45l-0.04-0.02l0.04,0.01
			c0.18-0.1,0.27-0.27,0.31-0.46l0-0.01c0.15-0.18,0.22-0.35-0.04-0.49c0.3-0.83,0.84-1.52,1.26-2.29c0.13-0.08,0.18-0.2,0.21-0.33
			c0.03-0.05,0.06-0.11,0.09-0.16c0.15-0.05,0.16-0.17,0.18-0.3c0.08-0.03,0.11-0.1,0.11-0.18c0.07-0.03,0.12-0.08,0.1-0.17
			c0.38-0.67,0.95-1.26,0.94-2.09c-0.6,0.53-0.96,1.2-1.32,1.88l-0.03,0.05c-0.16,0.06-0.19,0.2-0.22,0.33
			c-0.03,0.04-0.06,0.09-0.09,0.13c-0.16,0.05-0.18,0.2-0.22,0.33c-0.03,0.04-0.06,0.09-0.09,0.13c-0.09,0.02-0.14,0.07-0.14,0.17
			c-0.29,0.32-0.47,0.73-0.72,1.06c-1.02,1.32-2.11,2.6-3.21,3.86c-3,3.41-6.53,6.22-10.12,8.96c-3.95,3.01-8.1,5.76-12.05,8.77
			c-3.48,2.66-6.73,5.55-9.1,9.29c-0.07,0.11-0.15,0.2-0.31,0.12c-0.07-0.28-0.01-0.55,0.07-0.83c0.19-0.72,0.49-1.41,0.78-2.09
			c1.04-2.45,2.47-4.67,3.94-6.88c0.36-0.54,0.7-1.08,0.87-1.71c0.29-1.04-0.11-1.68-1.14-1.98c-0.51-0.15-0.97-0.07-1.45,0.04
			c-1.81,0.4-3.4,1.21-4.64,2.62c0.57,0.05,1.1-0.19,1.65-0.27c1.17-0.17,1.78,0.51,1.45,1.63c-0.21,0.7-0.61,1.31-1,1.91
			c-1.5,2.34-3.02,4.66-4.19,7.19c-1.17,2.54-1.94,5.19-2.26,7.97c-0.3,2.59-0.02,5.14,0.47,7.68c0.72,3.73,2.37,6.98,4.94,9.78
			c2.52,2.75,5.58,4.7,9.01,6.08c0.78,0.31,1.55,0.69,2.5,0.78c-0.62-0.88-0.96-1.77-1.08-2.72c-0.43-3.46,0.51-6.58,2.45-9.41
			c1.57-2.29,3.74-3.96,5.96-5.57c3.36-2.43,6.92-4.57,10.34-6.9c3.29-2.23,6.46-4.61,9.44-7.24c2.1-1.85,4.02-3.88,5.63-6.19
			c0.09-0.04,0.13-0.11,0.14-0.21c0.09-0.02,0.13-0.08,0.15-0.17c0.28-0.23,0.45-0.55,0.65-0.84c0.23-0.35,0.19-0.64-0.21-0.86
			c0.72-1.05,1.54-2.03,1.98-3.24c-1.1,1.4-2.25,2.76-3.36,4.15c-0.26,0.13-0.43,0.37-0.62,0.57c-0.9,0.92-1.78,1.86-2.81,2.64
			c-0.25,0.19-0.49,0.46-1.06,0.27c0.27-0.2,0.47-0.32,0.64-0.47c1.33-1.18,2.56-2.46,3.68-3.84c1.33-1.63,2.61-3.29,3.6-5.16
			c0.77-1.09,1.34-2.28,1.79-3.53c-0.69,0.98-1.23,2.06-1.97,3.01c-0.03-0.03-0.07-0.03-0.11-0.01c-0.01-0.09-0.02-0.18-0.02-0.28h0
			c0.13-0.06,0.16-0.17,0.17-0.3c0.25-0.2,0.39-0.46,0.48-0.75l0,0c0.21-0.23,0.4-0.48,0.41-0.81l0.01-0.02
			c0.12-0.06,0.15-0.18,0.15-0.3l0.01-0.01c0.93-1.59,1.68-3.26,2.09-5.07c-0.72,1.63-1.6,3.17-2.44,4.74
			c-0.08,0.03-0.11,0.1-0.13,0.18c-0.08,0.02-0.14,0.06-0.11,0.16c-0.04,0.04-0.05,0.08-0.05,0.14c-0.14,0.07-0.21,0.19-0.24,0.34
			c-0.16,0.18-0.35,0.34-0.38,0.6c-0.09,0.02-0.13,0.08-0.14,0.17l-0.01,0.01c-0.08,0.01-0.13,0.05-0.11,0.14
			c-0.05,0.03-0.07,0.07-0.06,0.12c-0.09,0.03-0.13,0.1-0.14,0.19l0,0c-0.08,0.02-0.14,0.05-0.11,0.15
			c-0.05,0.03-0.07,0.07-0.06,0.12c-0.1,0.03-0.13,0.1-0.15,0.19c-0.26,0.22-0.43,0.51-0.61,0.79c-0.13,0.05-0.17,0.16-0.19,0.28
			c-0.09,0.02-0.12,0.09-0.14,0.17c-0.09,0.02-0.13,0.08-0.15,0.16c-0.09,0.01-0.14,0.06-0.14,0.15l-0.01,0.01
			c-0.14-0.01-0.28,0.08-0.41-0.04c0.06-0.14,0.13-0.29,0.19-0.43c0.17-0.17,0.36-0.33,0.4-0.59c0.1-0.02,0.13-0.09,0.15-0.18
			l0.01-0.01c0.09-0.01,0.14-0.05,0.12-0.15c0.05-0.03,0.06-0.06,0.05-0.12c0.1-0.03,0.13-0.1,0.15-0.19
			c0.13-0.03,0.16-0.14,0.16-0.25c0.09-0.04,0.13-0.12,0.14-0.21l0,0c0.09-0.01,0.14-0.06,0.12-0.16c0.04-0.03,0.06-0.06,0.04-0.11
			c0.09-0.04,0.13-0.11,0.14-0.2c0.14-0.05,0.15-0.17,0.16-0.29c1.03-1.41,1.8-2.97,2.38-4.62c-0.9,1.43-1.81,2.85-2.71,4.28l0,0
			c-0.09,0.02-0.13,0.07-0.13,0.16c-0.04,0.02-0.06,0.05-0.04,0.09c-0.09,0.04-0.13,0.12-0.14,0.22c-0.18,0.09-0.28,0.25-0.31,0.45
			c-0.1,0.02-0.13,0.08-0.14,0.17c-0.12,0.05-0.17,0.15-0.18,0.27c-0.09,0.03-0.13,0.1-0.15,0.19c-0.1,0.02-0.14,0.09-0.14,0.18
			c-0.12,0.06-0.16,0.17-0.18,0.28c-0.09,0.01-0.13,0.08-0.14,0.16c-0.19,0.09-0.28,0.26-0.33,0.45c-0.14,0.07-0.24,0.18-0.29,0.32
			l0,0c-0.09,0.01-0.14,0.07-0.14,0.16c-0.12,0.05-0.17,0.15-0.18,0.27c-0.1,0.02-0.14,0.1-0.17,0.18c-0.75,0.6-1.26,1.41-1.91,2.1
			c-1.85,1.98-3.82,3.83-6.01,5.42c-0.49,0.36-0.99,0.82-1.68,0.83c1.15-0.9,2.3-1.8,3.36-2.8c2.02-1.89,3.95-3.86,5.7-6
			c1.28-1.57,2.56-3.16,3.51-4.97c0.32-0.45,0.61-0.91,0.79-1.63c-0.59,0.63-0.95,1.2-1.32,1.77c-0.38,0.22-0.48,0.76-1.04,0.9
			c1.05-1.34,1.96-2.66,2.66-4.12c0.15-0.06,0.18-0.18,0.15-0.32c0.05-0.11,0.03-0.25,0.16-0.32c0.12,0.02,0.13-0.06,0.13-0.14
			c0.05-0.02,0.06-0.05,0.05-0.09c1.03-1.74,1.8-3.59,2.29-5.56c-0.13,0.12-0.22,0.27-0.29,0.42c-0.61,1.38-1.22,2.77-2.05,4.03
			c-0.14,0.22-0.19,0.56-0.56,0.56c0.42-0.6,0.5-1.36,0.92-1.96c0.35-0.59,0.62-1.2,0.77-1.91c-0.32,0.14-0.28,0.53-0.59,0.63
			c-0.08-0.31,0.15-0.51,0.2-0.75c0.19-0.85,0.75-1.58,0.82-2.47c-0.73,1.32-1.46,2.64-2.19,3.96c-0.09,0.02-0.12,0.09-0.11,0.18
			l-0.01,0.02c-0.12,0.05-0.17,0.15-0.17,0.28c-0.13,0.05-0.16,0.17-0.18,0.29c-0.09,0.02-0.12,0.09-0.12,0.18
			c-0.12,0.04-0.16,0.14-0.16,0.26c-0.1,0.03-0.15,0.11-0.15,0.21c-0.12,0.04-0.15,0.14-0.16,0.25c-0.1,0.03-0.14,0.11-0.15,0.21
			c-0.09,0.02-0.13,0.07-0.13,0.17l-0.01,0.02c-0.13,0.05-0.18,0.15-0.22,0.27c-0.3,0.14-0.35,0.63-0.8,0.62
			c0.36-0.51,0.7-0.97,1.02-1.46C52.45,21.78,53.47,20.23,54.08,18.46z M50.04,40.16L50.04,40.16
			C50.05,40.15,50.04,40.16,50.04,40.16L50.04,40.16z M49.54,40.36c-0.08,0.04-0.17,0.07-0.26,0.07
			C49.38,40.42,49.46,40.4,49.54,40.36z"/>
		<path class="st51" d="M55.27,17.36c-0.12,0.03-0.13,0.12-0.13,0.22C55.21,17.52,55.28,17.46,55.27,17.36z"/>
		<path class="st51" d="M55.14,17.58c-0.1,0.08-0.2,0.15-0.16,0.3C55.17,17.86,55.15,17.71,55.14,17.58z"/>
		<path class="st51" d="M55.01,17.82c-0.01,0-0.01,0-0.01,0c0,0.02-0.01,0.03-0.01,0.05c0.01-0.01,0.01-0.03,0.02-0.04
			C55.01,17.83,55.01,17.83,55.01,17.82z"/>
	</g>
	<path class="st51" d="M127.86,64.72c0.51-0.05,0.91-0.08,1.37,0.03c-0.1,0.88-0.2,1.74-0.31,2.63c-0.51,0.12-1.01,0.14-1.57,0.14
		C127.56,66.58,127.8,65.69,127.86,64.72z"/>
</g>
</svg>
