<?xml version="1.0" encoding="utf-8"?>
<!-- Generator: Adobe Illustrator 25.4.1, SVG Export Plug-In . SVG Version: 6.00 Build 0)  -->
<svg version="1.1" id="Layer_1" xmlns="http://www.w3.org/2000/svg" xmlns:xlink="http://www.w3.org/1999/xlink" x="0px" y="0px"
	 viewBox="0 0 74.8 80" style="enable-background:new 0 0 74.8 80;" xml:space="preserve">
<style type="text/css">
	.st0{fill:#FEE407;}
	.st1{fill:#015396;}
</style>
<path class="st0" d="M39.6,2.8c-17.7,0-32,14.3-32,32c0,17.7,14.3,32,32,32c17.7,0,32-14.3,32-32C71.6,17.1,57.2,2.8,39.6,2.8z"/>
<path class="st1" d="M7.3,20.4c1.4,0.1,3.4,1.1,4,5.3c0.5,4.1,2,7.7,4.4,10.5s3.2,2,6.5,4.1c1.9,1.2,11.6,6.1,15.9,10.2
	c2,1.9,0.5,1.7,2.7,4.1c2.1,2.3,5.3,4.2,5.3,4.2s4.7,6.2,8.8,10.8c5.3,5.9,10.3,10,13.3,10.4l-1.5-5.7c0,0-2.5,0.4-4.1-1
	c-1.5-1.4-4.3-3.9-4.3-3.9s-0.6-1.5-1.5-4c-0.9-2.5-3.2-6.4-4.4-6.5c0,0,1.4-4.2,1.2-9.2c0,0,3.4,0.7,6.8-0.1c4.6-1,4.7-4.2,4.1-6.9
	c1.3-0.2,4.5-1.3,4-4.3c-0.3-1.8-1.4-6-0.8-7.3c0,0-2.8,1.4-4.2,3.7c-1.2,2.1-1,5-1,5s-1.2-1.7-5.2-3.2c-3.5-1.3-7.1,0.2-7.1,0.2
	s1,0.8,2.5,1.9c2,1.5,1,1.5,2.4,3.1c2.5,2.8,5.5,2.3,7.3,1.5c0,0,0.5,2.7-1.1,3.4c-2,0.9-6.4-0.4-7.7-1.7c-1.8-5.5-5.9-8-8.3-8.7
	c0.2-2,1.4-3.3,4.1-3c1.4,0.1,6.6,1.1,10.5,0.2c3.8-0.9,4.2-3.3,4.2-3.3s-3.2,0-4.1-0.9c2.7-0.5,11.9-1.5,13.1-11.5
	c0,0-2.8,1.7-5.2,1.3c8-5.4,6.7-16,6.7-16s-2.5,2.5-7,6.1c-4.5,3.6-11.9,7.8-15.8,8.8c-4.4,1.2-5.3,0.3-11.6,1.7
	c-5.3,1.2-7.8,3.8-7.8,6.5c0,3.1,1.8,5.3,1.8,5.3s-1.9-1.5-3.1-3.9c-1.7-3.5-0.8-6,3.3-8.2c5.3,0.2,5.9-1.5,5.9-1.5s-3.5,0-3.8-1.3
	c0,0,0.9-0.2,2.5-0.6c1.6-0.4,4.3-1.7,4.5-3.1c0,0-2.9,0.8-6.8,0.6l1.5-2.4c0,0-4.7,1.6-5,0.5l1.8-0.9c0,0-0.7-0.6-2.3-1.5
	c-1.6-0.9-3.8-0.9-4.6-0.7c-0.8,0.2-0.9,0.4-1.7-0.1c-0.8-0.4-1.1-1.2-0.6-1.8c0.4-0.6,1-0.7,2-1.3c1-0.6,1.4-2,0.7-2.9
	C27.9,1.5,26.8,0,26.8,0s-0.3,0.8-0.1,1.3c0,0-0.9,0-1.5,0.2c0,0,0.7,0.4,1.1,1.1c0.5,1.1-1.5,2-2.3,2.6C23,6.1,22.9,7,22.9,7
	S20,5.6,19.2,3.7c0.1,4.9,3.7,6.2,3.7,6.2s0,1.8,0.2,3l4.2,0.4c0,0-0.2,1.4-1.1,1.4c-0.9,0-1.6-0.1-2.6-0.8c0,0-0.5,2.1-1.4,3.3
	c0,0,1.2-0.4,2.1-0.4c1.1,0,1.7,0.8,0.8,2.1c-0.8,1.2-1.8,2-3.7,1.7c-2.6-0.4-4.5,0-7.1,2.7c0,0-1.9-3-1.9-5.4l-9.2-0.1
	c0,0-2,5.3-3.3,6.4l5.8-0.6C4.2,20.6,5.9,20.3,7.3,20.4z"/>
<path class="st0" d="M26.8,10.9c0-0.4,0.3-0.7,0.7-0.7c0.4,0,0.7,0.3,0.7,0.7c0,0.4-0.3,0.7-0.7,0.7C27.2,11.6,26.8,11.3,26.8,10.9z
	"/>
</svg>
