<?xml version="1.0" encoding="utf-8"?>
<!-- Generator: Adobe Illustrator 25.4.1, SVG Export Plug-In . SVG Version: 6.00 Build 0)  -->
<svg version="1.1" id="Layer_1" xmlns="http://www.w3.org/2000/svg" xmlns:xlink="http://www.w3.org/1999/xlink" x="0px" y="0px"
	 viewBox="0 0 63.2 80" style="enable-background:new 0 0 63.2 80;" xml:space="preserve">
<style type="text/css">
	.st0{fill:#FEE407;}
	.st1{fill:#015396;}
</style>
<g>
	<path class="st0" d="M14,66.7H20l-3-3L14,66.7z M44.3,79.6l3-3h-5.9L44.3,79.6z M32.4,2.2C18.5,2.2,7.3,13.4,7.3,27.3
		c0,13.9,11.2,25.1,25.1,25.1c13.9,0,25.1-11.2,25.1-25.1C57.5,13.4,46.2,2.2,32.4,2.2z"/>
	<path class="st1" d="M61.6,78.5V65.2c0,0,0.7-1.1,1.6-1.4h-7.3c0,0,1.2,0.5,1.7,1.2v13.5l-0.4,0.5c0,0-1.1-1.2-2.8-3.5
		c-1.7-2.3-8.1-11.8-8.1-11.8h-5.6c0.6,0.3,0.9,1,0.6,1.6c-0.3,0.6-8.3,13-8.3,13s-2.8-12.1-2.9-12.7c-0.1-0.6-0.1-1.3,1.4-1.9h-6.9
		v0.4l-7,11.1L9.9,63.6H3l1.5,1.1c0,0-2.3,11.7-2.5,12.5c-0.1,0.5-1.4,2.3-2,2.3c0,0,0,0.1,0,0.1h6.1l0-0.2c-0.8,0-1.5-0.9-1.3-2
		s2.4-11,2.4-11s5.9,8.8,7.5,11.1C15.8,78.7,18,80,18,80l8.4-13.5c0,0,2.2,10.1,2.4,11.1c0.2,1-0.8,1.8-1.5,1.8v0.1h10.1
		c0,0,0-0.1,0-0.1c-0.5,0-1.2-0.7-0.7-1.7C37.3,76.8,44,66,44,66s7.1,11.4,7.6,12.2c0.5,0.8-0.5,1.4-1,1.4v0.2h12.5v-0.1
		C62.6,79.6,61.6,78.5,61.6,78.5z M7.1,16c1.1,0.1,2.7,0.9,3.1,4.1c0.4,3.2,1.6,6,3.4,8.2s2.5,1.6,5.1,3.2c1.5,0.9,9.1,4.8,12.5,8
		c1.5,1.5,0.4,1.4,2.1,3.2c1.7,1.8,4.2,3.3,4.2,3.3s3.7,4.9,6.9,8.5c4.2,4.6,8,7.8,10.4,8.2l-1.2-4.5c0,0-2,0.3-3.2-0.8
		c-1.2-1.1-3.4-3-3.4-3s-0.5-1.2-1.2-3.2c-0.7-2-2.5-5-3.4-5.1c0,0,1.1-3.3,0.9-7.2c0,0,2.6,0.5,5.4-0.1c3.6-0.8,3.7-3.3,3.2-5.4
		c1-0.2,3.5-1.1,3.2-3.4c-0.2-1.4-1.1-4.7-0.6-5.7c0,0-2.2,1.1-3.3,2.9c-1,1.6-0.8,4-0.8,4s-0.9-1.4-4.1-2.5c-2.7-1-5.6,0.1-5.6,0.1
		s0.8,0.6,2,1.5c1.6,1.2,0.8,1.2,1.9,2.5c2,2.2,4.3,1.8,5.7,1.2c0,0,0.4,2.1-0.9,2.7c-1.6,0.7-5-0.3-6-1.3c-1.4-4.3-4.6-6.3-6.5-6.8
		c0.2-1.6,1.1-2.6,3.2-2.4c1.1,0.1,5.2,0.9,8.2,0.1c3-0.7,3.3-2.6,3.3-2.6s-2.5,0-3.2-0.7c2.1-0.4,9.3-1.2,10.3-9
		c0,0-2.2,1.4-4.1,1.1c6.3-4.2,5.3-12.6,5.3-12.6s-2,2-5.5,4.8c-3.5,2.8-9.4,6.1-12.4,6.9c-3.4,0.9-4.1,0.2-9.1,1.3
		c-4.2,1-6.1,3-6.1,5.1c0,2.4,1.4,4.1,1.4,4.1s-1.5-1.2-2.4-3c-1.4-2.7-0.6-4.7,2.6-6.4c4.1,0.2,4.6-1.1,4.6-1.1s-2.7,0-3-1.1
		c0,0,0.7-0.1,1.9-0.5c1.2-0.4,3.4-1.3,3.5-2.4c0,0-2.3,0.6-5.3,0.5l1.2-1.9c0,0-3.7,1.3-3.9,0.4l1.4-0.7c0,0-0.6-0.4-1.8-1.1
		c-1.3-0.7-3-0.7-3.6-0.5c-0.6,0.2-0.7,0.3-1.3-0.1c-0.6-0.4-0.9-0.9-0.5-1.4c0.4-0.5,0.8-0.6,1.6-1c0.8-0.4,1.1-1.6,0.6-2.3
		C23.3,1.2,22.4,0,22.4,0s-0.2,0.6-0.1,1c0,0-0.7,0-1.1,0.2c0,0,0.6,0.3,0.9,0.8c0.4,0.9-1.2,1.6-1.8,2.1c-0.9,0.7-0.9,1.4-0.9,1.4
		S17,4.4,16.4,2.9c0.1,3.8,2.9,4.9,2.9,4.9s0,1.4,0.1,2.3l3.3,0.3c0,0-0.2,1.1-0.9,1.1c-0.7,0-1.3-0.1-2.1-0.6c0,0-0.4,1.6-1.1,2.5
		c0,0,0.9-0.3,1.6-0.3c0.9,0,1.3,0.6,0.7,1.7c-0.6,1-1.4,1.6-2.9,1.3c-2-0.3-3.5,0-5.5,2.2c0,0-1.5-2.4-1.5-4.2l-7.2-0.1
		c0,0-1.6,4.1-2.6,5l4.6-0.5C4.7,16.1,6,15.9,7.1,16z M22.4,8.6C22.4,8.2,22.7,8,23,8c0.3,0,0.6,0.3,0.6,0.6c0,0.3-0.3,0.6-0.6,0.6
		C22.7,9.1,22.4,8.9,22.4,8.6z"/>
</g>
</svg>
