<?xml version="1.0" encoding="utf-8"?>
<!-- Generator: Adobe Illustrator 25.4.1, SVG Export Plug-In . SVG Version: 6.00 Build 0)  -->
<svg version="1.1" id="Layer_1" xmlns="http://www.w3.org/2000/svg" xmlns:xlink="http://www.w3.org/1999/xlink" x="0px" y="0px"
	 viewBox="0 0 109.7 80" style="enable-background:new 0 0 109.7 80;" xml:space="preserve">
<style type="text/css">
	.st0{fill:#28B34B;}
	.st1{fill:#231F20;}
</style>
<g>
	<polygon class="st0" points="42.1,52.6 21.3,42.3 0,31.7 26,31.7 	"/>
	<polygon class="st1" points="42.1,52.6 31.4,79.3 4.1,79.3 21.3,42.3 	"/>
	<path class="st0" d="M84.4,20.9c-13.3-2.1-18.7,8.7-18.7,8.7l-11.4,28L47.1,39L0,21.4l30.1,0.1l24.1,0.1l3.7,8
		C63.4,17.4,74.1,18,74.1,18c1.2,0,2.3,0.1,3.3,0.2C83.1,18.7,84.4,20.9,84.4,20.9z"/>
	<path class="st1" d="M77.3,18.1c-1-0.1-2-0.2-3.3-0.2c0,0-10.6-0.6-16.1,11.7l-3.7-8l-24.1-0.1L40.2,0h29L77.3,18.1z"/>
	<path class="st1" d="M33.4,79.3c0,0,11.2,1.2,18.9-7.8s12.8-35.7,21.9-44.2s35.5-5.9,35.5-5.9s-23,1.1-26.3,10.3l20.8,47.6H77.3
		l-8.1-19.8C69.2,59.5,58,84.6,33.4,79.3z"/>
</g>
</svg>
