<?xml version="1.0" encoding="utf-8"?>
<!-- Generator: Adobe Illustrator 25.4.1, SVG Export Plug-In . SVG Version: 6.00 Build 0)  -->
<svg version="1.1" id="Layer_1" xmlns="http://www.w3.org/2000/svg" xmlns:xlink="http://www.w3.org/1999/xlink" x="0px" y="0px"
	 viewBox="0 0 342.4 80" style="enable-background:new 0 0 342.4 80;" xml:space="preserve">
<style type="text/css">
	.st0{fill:#002567;}
</style>
<g>
	<path class="st0" d="M260.4,72l4.3-0.1c0.1,0.4,0.7,0.8,1.4,1.1s2,0.6,3.5,0.7c1.5,0.1,3.4,0.3,5.5,0.3c1.8,0,3.4,0,4.8-0.1
		c1.4-0.1,2.4-0.3,3.1-0.6c0.7-0.3,1-0.6,1-0.8c0-0.3-0.3-0.6-1-0.7c-0.7-0.3-1.7-0.4-3.2-0.6c-1-0.1-3.1-0.3-6.3-0.4
		c-3.2-0.1-5.5-0.4-6.9-0.6c-1.7-0.3-2.9-0.6-3.8-0.8c-0.8-0.3-1.3-0.7-1.3-1.1s0.6-0.8,1.5-1.3s2.5-0.7,4.5-1
		c2-0.1,4.1-0.3,6.5-0.3c2.7,0,4.9,0.1,6.9,0.3c2,0.3,3.5,0.6,4.6,1c1.1,0.4,1.7,0.8,1.7,1.4l-4.5,0.1c-0.3-0.6-1.1-1-2.4-1.3
		c-1.4-0.3-3.4-0.4-6.2-0.4c-2.8,0-4.9,0.1-6.2,0.4c-1.3,0.3-2,0.6-2,1c0,0.3,0.4,0.6,1.4,0.8c0.8,0.3,3.2,0.4,7,0.7
		c3.8,0.3,6.5,0.4,7.9,0.6c2.1,0.3,3.5,0.6,4.5,1s1.4,0.8,1.4,1.3c0,0.4-0.6,1-1.5,1.4c-1.1,0.4-2.7,0.7-4.6,1
		c-2,0.3-4.2,0.4-6.7,0.4c-3.2,0-5.9-0.1-8-0.4s-3.8-0.6-5-1.1C261.1,73.1,260.4,72.6,260.4,72 M227.5,75v-9.1H253V67h-20.8v2.8
		h19.5v1.1h-19.5V74h21.6v1.1h-26.4V75z M189.9,75v-9.1h4.8l18.5,7.2v-7.2h4.5V75h-4.8l-18.5-7.2V75H189.9z M175.3,75v-9.1h4.6V75
		H175.3z M145.1,75v-9.1h4.6V74h17.4v1.1h-22V75z M112.7,69.8h10.1c2.1,0,3.8,0,5-0.1s2.1-0.3,2.8-0.6c0.6-0.3,1-0.6,1-0.8
		c0-0.4-0.6-0.8-1.8-1.1c-1.3-0.3-3.1-0.4-5.7-0.4h-11.2v3.1H112.7z M108.1,75v-9.1h15.6c3.1,0,5.5,0.1,7.2,0.3
		c1.7,0.1,2.9,0.4,3.9,0.8c1,0.4,1.4,0.8,1.4,1.4c0,0.7-0.8,1.3-2.4,1.7c-1.7,0.4-4.1,0.7-7.4,0.8c1.3,0.1,2.2,0.3,2.8,0.4
		c1.4,0.3,2.7,0.7,3.9,1.3l6.2,2.5h-5.9l-4.8-2.1c-1.4-0.6-2.5-1-3.4-1.3c-0.8-0.3-1.7-0.6-2.4-0.6c-0.7-0.1-1.4-0.1-2.1-0.3
		c-0.6,0-1.4,0-2.7,0h-5.5V75C112.6,75,108.1,75,108.1,75z M93.4,75v-9.1H98V75H93.4z M64.2,71.2h11.9l-3.6-2.5
		c-1.1-0.7-2-1.4-2.5-2c-0.4,0.6-1.1,1.1-2,1.7L64.2,71.2z M54,75l13.6-9.1h5L87.1,75h-5.3l-4.1-2.8H62.8L58.9,75H54z"/>
	<g>
		<g>
			<g>
				<path class="st0" d="M0,47.9l0.3-1.3c4.5,0,5.7-1.4,6.9-5.7l8.1-30.4c1.1-4.2,0.8-6.2-4.2-6.5l0.3-1.3h17.5
					c6.9,0,13.6,2,13.6,10.1c0,9.8-9.7,13.5-17.9,13.5c-1.4,0-5.7-0.4-6.7,0.1c-0.1,0.1-0.3,0.3-0.3,0.6l-3.9,14.7
					c-1,4.2,1.8,4.8,5.6,4.8l-0.3,1.3H0V47.9z M18.5,22.6c-0.4,2.1,1.7,1.8,3.2,1.8c7.6,0,13.5-3.6,13.5-11.8c0-5.6-3.2-7.9-8.6-7.9
					c-2.9,0-3.6,1.1-4.3,3.9L18.5,22.6z"/>
				<path class="st0" d="M249.6,19.7c-8.6,0-14.3,14.6-14.3,20.5c0,1.7,1.3,4.1,3.5,4.1c5.6,0,11.4-10.5,12.9-14.3
					C252.8,27.3,255.4,19.7,249.6,19.7 M260.6,41.2c-2,2.4-5.7,6.9-9.7,6.9c-5.7,0-1.1-9.7-0.4-11.8c-2.9,4.3-8.1,11.8-14.9,11.8
					c-8.3,0-5.9-10.7-4.2-14.9c2.7-6.5,10-15.7,18.2-15.1c2.5,0,4.6,1,5.2,3.2l0.8-2.7h5.3c-2.4,7.6-5.3,15.3-7.2,22.9
					c-0.1,0.6-0.6,1.7,0.1,2.2c2.2,1.7,6.9-5,7-6.2L260.6,41.2z"/>
				<path class="st0" d="M53.4,19.7c-8.6,0-14.3,14.6-14.3,20.5c0,1.7,1.3,4.1,3.5,4.1c5.6,0,11.4-10.5,12.9-14.3
					C56.7,27.3,59.2,19.7,53.4,19.7 M64.2,41.2c-2,2.4-5.7,6.9-9.7,6.9c-5.7,0-1.1-9.7-0.4-11.8C51.2,40.6,46,48,39.3,48
					c-8.3,0-5.9-10.7-4.2-14.9c2.7-6.5,10-15.7,18.2-15.1c2.5,0,4.6,1,5.2,3.2l0.8-2.7h5.3c-2.4,7.6-5.3,15.3-7.2,22.9
					c-0.1,0.6-0.6,1.7,0.1,2.2c2.2,1.7,6.9-5.2,7-6.2L64.2,41.2z"/>
				<path class="st0" d="M316.4,19.7c-8.6,0-14.3,14.6-14.3,20.5c0,1.7,1.3,4.1,3.5,4.1c5.6,0,11.4-10.5,12.9-14.3
					C319.7,27.4,322.1,19.7,316.4,19.7 M327.3,41.2c-2,2.4-5.7,6.9-9.7,6.9c-5.7,0-1.1-9.7-0.4-11.8c-2.9,4.3-8.1,11.8-14.9,11.8
					c-8.3,0-5.9-10.7-4.2-14.9c2.7-6.5,10-15.7,18.2-15.1c2.5,0,4.6,1,5.2,3.2l0.8-2.7h5.3c-2.4,7.6-5.3,15.3-7.2,22.9
					c-0.1,0.6-0.6,1.7,0.1,2.2c2.2,1.7,6.9-5.2,7-6.2L327.3,41.2z"/>
				<path class="st0" d="M285.8,19.3L285.8,19.3c4.8-1,8.3-5.2,10.7-9.1h1.4l-2.4,8.3h5.3l-0.4,2.1H295c-1.8,6.9-4.1,13.9-5.5,20.8
					c-0.6,2.7,0.8,3.6,2.9,1.5c0.8-0.7,3.2-3.9,4.3-5.6l-0.3,2.8c-2.2,3.1-5.5,7.6-9.8,7.6c-3.8,0-3.2-3.9-2.5-6.5l5.5-20.6h-4.3
					l0,0h-0.7L285.8,19.3z"/>
				<path class="st0" d="M284.8,20.7l-1.3,6.6h-1.3c-0.4-3.6-1.8-8-6.9-8c-1.1,0-2.1,0.3-2.9,1.1c-3.5,2.9,1.4,8,3.6,10.7
					c3.9,4.5,6.7,9.8,1.4,14.4c-3.4,2.9-8.1,3.1-12.3,2c-1.1-0.3-3.8-1.4-4.3,0.3h-1.4l1-6.7l0.6-3.6h1.3c0.1,3.8,1.7,9,7,9
					c1.7,0,3.1-0.6,4.1-1.5c3.9-3.8,0.1-8.4-2.7-11.6c-3.4-3.9-7.2-9.3-2.2-13.6c5.5-4.6,11.5-0.4,17.4-0.3L284.8,20.7z"/>
				<path class="st0" d="M327.7,37.8l8-29.6c0.8-3.2-0.3-4.1-3.8-4.2l0.1-1.1c2.8-0.3,5.6-0.7,8.4-1.3c1.7-0.3,2.2-0.3,1.8,1.5
					l-10,36.2c-0.3,1-1.5,4.6,0.4,4.6s4.1-3.2,5-4.5l1,1c-1.8,2.7-5.9,7.4-9.5,7.4c-3.8,0-3.4-3.9-2.5-7L327.7,37.8z"/>
				<path class="st0" d="M219.3,19.1c-10.5,0-19.4,27.1-7.9,27.1C222.1,46.2,230.7,19.1,219.3,19.1 M200.5,37.6v-0.4
					c-5.5,6.5-10.4,11.1-19.4,11.1c-10.9,0-18.1-6.9-18.1-17.8c0-16.3,17.9-31.8,34.2-26.9c2.2,0.7,4.5,2.1,5.9-0.6h1.3l-2.5,13
					h-1.3c0-6.5-1.5-11.4-9.1-11.4c-9,0-16.3,8.4-19.2,16.3c-3.4,9.4-2.5,24.7,10.7,24.7c7.4,0,14.4-5.6,18.1-11.8
					c2-8,10.2-16.4,18.8-16.4c6.3,0,10.5,4.1,10.5,10.4c0,9.7-9.7,20.2-19.5,20.2C204.6,48,200.5,43.8,200.5,37.6z"/>
				<path class="st0" d="M152.3,40.5c-3.4,3.8-7.9,7.4-13.2,7.4c-4.9,0-8.3-2.8-9.3-7.4c-2.1,3.1-6.3,7.4-10.4,7.4
					c-4.8,0-2.8-6.3-2-8.8l4.1-14.4c0.3-1.3,1-3.2-0.7-3.9h-7.3l-2.7,12.5c-2.1,10.4-4.2,17.8-6.5,22.2c-2.1,4.3-4.8,6.5-7.7,6.5
					c-4.8,0-5.5-6.3-1.7-6.3c4.1,0,0.4,4.5,2.4,4.5c3.6,0,4.8-8,5.2-10.4l5.5-28.9h-3.4l0.6-2.1h3.1c1.1-2.9,2.1-7,4.5-10.9
					c3.8-6,9.7-10.8,16.1-5c1.7,1.5,3.1,4.6,1.1,6.6c-3.1,2.9-7.9-1.7-4.5-4.8c0.1-0.4-0.1-0.8-0.4-1c-7.6-5.3-10,8.1-11.5,15.1h7.4
					c3.1,0,3.8-0.4,5.7-0.8c1.8-0.4,1.8,0.1,1.4,1.7l-6.2,20.3c-0.1,0.6-0.8,2.2-0.1,3.9c2,2.2,6.2-3.5,6.9-4.3
					c0.7-3.4,0.6-3.4,1-5.2c1.4-8.7,9.4-16.5,18.5-16.5c2.9,0,6.5,1.4,6.5,4.8c0,6-8.7,3.6-5.2-0.8c1.3-1.7,0.6-2.1-1.4-2.1
					c-12.1,0-18.7,25.8-7,25.8c4.1,0,7.4-2.8,10-5.6L152.3,40.5z"/>
				<path class="st0" d="M96.9,6.9c0-4.2,6.5-4.3,6.5,0S96.9,11.1,96.9,6.9"/>
				<path class="st0" d="M90.2,20.3l0.3-1.1c2.9-0.3,5.9-0.8,8.7-1.4c1.8-0.4,1.8,0.1,1.4,1.7l-6,20.3c-0.3,1.1-0.8,2.9-0.1,3.9
					c1.5,2.2,5.7-3.5,6.3-4.3l1,1c-2.1,3.1-5.9,7.7-10,7.7c-4.8,0-2.8-6.3-2-8.8l4.1-14.4C94.9,21.2,93.8,20.3,90.2,20.3"/>
				<path class="st0" d="M63.9,37.2c-0.1-9.7,8.8-19.8,18.7-19.8c2.8,0,6.3,1.4,6.3,4.8c0,6-8.6,3.6-5-0.8c1.3-1.7,0.6-2.1-1.4-2.1
					c-11.8,0-18.4,25.8-6.9,25.8c3.9,0,7.3-2.8,9.8-5.6l1,1.1c-3.4,3.8-7.7,7.4-13,7.4c-5.5,0-8.7-3.5-9.3-8.8L63.9,37.2z"/>
			</g>
		</g>
	</g>
	<g>
		<g>
			<g>
				<path class="st0" d="M301.1,75.7c0,2.4-2,4.3-4.3,4.3s-4.3-2-4.3-4.3s2-4.3,4.3-4.3C299.3,71.3,301.1,73.3,301.1,75.7z
					 M296.7,71.7c-2.1,0-3.9,1.7-3.9,3.9c0,2.1,1.7,3.9,3.9,3.9c2.1,0,3.9-1.7,3.9-3.9C300.7,73.5,299,71.7,296.7,71.7z"/>
			</g>
		</g>
		<g>
			<path class="st0" d="M295.2,78v-5h1.8c0.4,0,0.7,0,0.8,0.1c0.1,0.1,0.3,0.3,0.4,0.4c0.1,0.3,0.1,0.4,0.1,0.7c0,0.4-0.1,0.7-0.3,1
				c-0.1,0.3-0.4,0.4-0.8,0.4c0.1,0.1,0.3,0.1,0.3,0.3c0.1,0.1,0.3,0.4,0.4,0.7l0.7,1.4H298l-0.6-1c-0.3-0.4-0.4-0.7-0.4-0.8
				c-0.1-0.1-0.3-0.3-0.3-0.3c-0.1,0-0.3-0.1-0.4-0.1h-0.6V78H295.2z M295.7,75.2h1.1c0.3,0,0.4,0,0.6-0.1c0.1,0,0.3-0.1,0.3-0.3
				c0.1-0.1,0.1-0.3,0.1-0.4c0-0.3-0.1-0.4-0.3-0.6c-0.1-0.1-0.4-0.3-0.7-0.3h-1.3v1.7H295.7z"/>
		</g>
	</g>
</g>
</svg>
