<?xml version="1.0" encoding="utf-8"?>
<!-- Generator: Adobe Illustrator 25.4.1, SVG Export Plug-In . SVG Version: 6.00 Build 0)  -->
<svg version="1.1" id="Layer_1" xmlns="http://www.w3.org/2000/svg" xmlns:xlink="http://www.w3.org/1999/xlink" x="0px" y="0px"
	 viewBox="0 0 87.41 80" style="enable-background:new 0 0 87.41 80;" xml:space="preserve">
<style type="text/css">
	.st0{fill:#1D4A94;}
	.st1{fill:#DB1F26;}
</style>
<path id="path4220" class="st0" d="M49.88,80c-20.7,0-37.53-16.84-37.53-37.53c0-20.7,16.83-37.54,37.53-37.54
	c20.7,0,37.53,16.84,37.53,37.54C87.41,63.16,70.57,80,49.88,80 M49.88,8.56c-18.69,0-33.91,15.21-33.91,33.91
	c0,18.69,15.21,33.91,33.91,33.91c18.7,0,33.91-15.21,33.91-33.91C83.79,23.77,68.58,8.56,49.88,8.56"/>
<path id="path4232" class="st1" d="M0,47.75h73.47L33.3,0H15.58l18.58,44.46"/>
</svg>
