<?xml version="1.0" encoding="utf-8"?>
<!-- Generator: Adobe Illustrator 25.4.1, SVG Export Plug-In . SVG Version: 6.00 Build 0)  -->
<svg version="1.1" id="Layer_1" xmlns="http://www.w3.org/2000/svg" xmlns:xlink="http://www.w3.org/1999/xlink" x="0px" y="0px"
	 viewBox="0 0 502.5 80" style="enable-background:new 0 0 502.5 80;" xml:space="preserve">
<style type="text/css">
	.st0{fill:#82141A;}
</style>
<g id="layer1">
	<g id="text849" transform="matrix(1.2233787,0,0,1.2233787,-101.92883,-178.95702)">
		<path id="path858" class="st0" d="M198.1,206.3h11.9l1.4,5.4h16.7l-15.5-43.5h-17.5l-15.1,43.5h16.7L198.1,206.3z M200.9,195.9
			l2.9-13.3h0.6c0.3,1.8,0.6,3.8,1,5.6l1.8,7.7L200.9,195.9z"/>
		<path id="path860" class="st0" d="M231.6,211.7h15.8v-43.5h-15.8V211.7z"/>
		<path id="path862" class="st0" d="M254.8,211.7h15.5v-14h0.3l6.9,14h18.2l-9.5-14.1c-0.9-1.3-1.8-2-2.7-2.6v-0.3
			c5.9-2,8.4-4.7,8.4-11.3c0-11-8.3-15.1-18.1-15.1h-19.1L254.8,211.7z M270.2,180.1h1.2c2.7,0,5.1,0.4,5.1,3.8
			c0,3.2-2.6,3.6-5.2,3.6h-1.1V180.1z"/>
		<path id="path864" class="st0" d="M319.5,182.3l8.7-0.4v29.8H344v-29.8l8.7,0.4v-14.1h-33.2V182.3z"/>
		<path id="path866" class="st0" d="M357,211.7h15.8v-43.5H357V211.7z"/>
		<path id="path868" class="st0" d="M379.9,211.7H395v-14.1c0-2.9-0.5-5.7-1-8.7h0.5l13.9,22.8h15.1v-43.5h-15.1v13
			c0,3.7,0.7,7.4,1.3,11.1h-0.5L395,168.2h-15.2V211.7z"/>
		<path id="path870" class="st0" d="M430.5,211.7h20c12.8,0,21.9-8.2,21.9-21.1c0-16-11.2-22.4-25.8-22.4h-16.1V211.7z M446.3,181.8
			h1c5.8,0,9.3,2.6,9.3,8.7c0,5.7-4,8.1-9.3,8.1h-1V181.8z"/>
		<path id="path872" class="st0" d="M478.2,211.7H494v-43.5h-15.8V211.7z"/>
	</g>
	<path id="path853" class="st0" d="M69.4,0L38.3,59.2c-5.6,10.7-9.6,15.4-35.4,15.4L0,79.7h44.3c7.9,0,12.8-4,16.2-11.7l9.8-24.8
		h-9.4c-2.2,0-2-3,0-3h10.6l6-15.2c1.6-4,3.4-1.3,2.9,0.1l-5.2,15.1h27.3V0L69.4,0z M74.2,43.2l-6.3,18.3c-3.1,9-5.2,18.2,4.3,18.2
		h30.5V43.2L74.2,43.2z"/>
</g>
</svg>
