<?xml version="1.0" encoding="utf-8"?>
<!-- Generator: Adobe Illustrator 25.4.1, SVG Export Plug-In . SVG Version: 6.00 Build 0)  -->
<svg version="1.1" id="Layer_1" xmlns="http://www.w3.org/2000/svg" xmlns:xlink="http://www.w3.org/1999/xlink" x="0px" y="0px"
	 viewBox="0 0 154.3 80" style="enable-background:new 0 0 154.3 80;" xml:space="preserve">
<style type="text/css">
	.st0{fill:#3E96D9;}
</style>
<g>
	<path id="path5491" class="st0" d="M72.7,0.2c10.4-0.9,20.9,0.8,31,3.4c12.6,3.4,24.8,8.4,36.2,14.7c5.1,2.9,10.1,6,14.5,9.8
		c-3.7,2.1-8.1,2.2-12.2,1.7c-6.3-0.8-12.3-2.7-18.4-4.7c-10.2-3.4-20.3-7.2-30.7-10.2c-9.6-2.7-19.4-4.9-29.4-5.1
		c-5.3-0.1-10.6,0.4-15.8,1.7c2.3-2.8,5.1-5.1,8.3-6.8C61.3,2.1,67,0.7,72.7,0.2"/>
	<path id="path5493" class="st0" d="M33.7,23.7c8.2-4.1,17.6-5.3,26.7-5.1c11.9,0.3,23.6,2.8,34.9,6.3c12.8,4,25.1,9.4,36.8,16
		c5.6,3.2,11,6.7,15.9,10.8c-3.7,2.2-8.1,2.5-12.3,2.2c-5.4-0.4-10.8-1.8-16-3.3c-8.7-2.6-17.3-5.7-25.9-8.7
		c-11-3.7-22-7.3-33.4-9.5C48,30,35.1,29.2,22.8,32.3C25.8,28.7,29.5,25.8,33.7,23.7"/>
	<path id="path5495" class="st0" d="M19.7,43.8c7.2-2.1,14.7-2.7,22.1-2.5c11.9,0.4,23.7,2.8,35.1,6.2c14.3,4.3,28.2,10.2,41.3,17.5
		c6.5,3.7,12.9,7.7,18.7,12.5c-3.8,2.3-8.4,2.7-12.8,2.4c-5.7-0.4-11.2-1.7-16.7-3.2c-7.7-2.2-15.2-4.8-22.7-7.4
		c-10.9-3.8-21.8-7.6-33-10.5C41,56.1,30,54.1,18.9,54C12.5,54,6.2,54.7,0,56.3C5,50.2,12.1,46,19.7,43.8"/>
</g>
</svg>
