<?xml version="1.0" encoding="utf-8"?>
<!-- Generator: Adobe Illustrator 25.4.1, SVG Export Plug-In . SVG Version: 6.00 Build 0)  -->
<svg version="1.1" id="Layer_1" xmlns="http://www.w3.org/2000/svg" xmlns:xlink="http://www.w3.org/1999/xlink" x="0px" y="0px"
	 viewBox="0 0 139.7 80" style="enable-background:new 0 0 139.7 80;" xml:space="preserve">
<style type="text/css">
	.st0{fill:#3E96D9;}
	.st1{fill:#212129;}
</style>
<g id="layer1" transform="translate(-5.6444043,-84.879123)">
	<path id="path5491" class="st0" d="M73,85c5.7-0.5,11.4,0.4,16.9,1.9c6.9,1.8,13.5,4.6,19.8,8c2.8,1.6,5.5,3.3,7.9,5.3
		c-2,1.2-4.4,1.2-6.6,0.9c-3.4-0.4-6.7-1.5-10-2.6c-5.6-1.9-11.1-3.9-16.8-5.6c-5.2-1.5-10.6-2.7-16-2.8c-2.9-0.1-5.8,0.2-8.6,0.9
		c1.3-1.5,2.8-2.8,4.5-3.7C66.8,86,69.9,85.3,73,85"/>
	<path id="path5493" class="st0" d="M51.7,97.8c4.5-2.3,9.6-2.9,14.6-2.8c6.5,0.2,12.9,1.5,19.1,3.4c7,2.2,13.7,5.1,20.1,8.7
		c3,1.7,6,3.7,8.7,5.9c-2,1.2-4.4,1.4-6.7,1.2c-3-0.2-5.9-1-8.7-1.8c-4.8-1.4-9.4-3.1-14.2-4.7c-6-2-12-4-18.3-5.2
		c-6.7-1.3-13.8-1.8-20.5-0.1C47.4,100.6,49.5,99,51.7,97.8"/>
	<path id="path5495" class="st0" d="M44.1,108.8c3.9-1.2,8-1.5,12.1-1.4c6.5,0.2,12.9,1.5,19.2,3.4c7.8,2.4,15.4,5.6,22.6,9.5
		c3.6,2,7.1,4.2,10.2,6.8c-2.1,1.2-4.6,1.5-7,1.3c-3.1-0.2-6.1-0.9-9.1-1.8c-4.2-1.2-8.3-2.6-12.4-4.1c-6-2.1-11.9-4.1-18.1-5.7
		c-5.9-1.5-11.9-2.6-17.9-2.6c-3.5,0-6.9,0.4-10.3,1.2C36.1,112.3,40,110,44.1,108.8"/>
	<path id="path5497" class="st1" d="M46.3,144.9c0.3-0.6,1-0.9,1.7-0.9c0.3,0,0.4,0.3,0.3,0.5c-0.5-0.2-1-0.2-1.4,0.1
		c0.6,0.2,1.3,0.2,2,0.1c-0.1,0.1-0.3,0.3-0.4,0.4c-0.8,0-1.6,0.2-2.3,0.4c0.2-0.2,0.4-0.3,0.6-0.5C46.6,145.1,46.4,145,46.3,144.9"
		/>
	<path id="path5499" class="st1" d="M85,144.8c0.3-0.2,0.6-0.5,0.9-0.7c0.4,0.5,1,0.7,1.6,0.8c-0.3,0.3-0.5,0.8-0.9,0.7
		c0.1,0.7,0.3,1.5,0.3,2.2c-0.2,0.1-0.5,0.2-0.7,0.3c0.6,0.1,1.1,0.2,1.7,0.4c1.3,0.4,2.6,0.6,3.9,0.7c-0.4,0.4-0.8,0.8-1.2,1.2
		c-1.8,0-3.6,0.4-5.3,0.8c-2,0.5-4,0.3-6.1,0.3c-0.8,1.7-2.8,2.8-4.6,2.3c-0.8-0.2-1.6-0.6-2.3-1.1c2,0.3,4.3,0.2,5.9-1.2
		c-0.9,0-1.7,0-2.6-0.1c-0.4-0.1-0.8-0.2-0.9-0.6c-0.2-0.7,0.2-1.3,0.7-1.8c0.6-0.6,1.5-1.1,2.3-0.8c0.8,0.2,1.2,1,1.5,1.7
		c1.7,0,3.4,0,5.1,0c0.9,0,1.9,0,2.8-0.3c-1.7-0.7-3.7-0.9-5.4-0.3c0.4-0.6,1.1-0.9,1.8-1.1c0.8-0.2,1.6,0,2.4-0.3
		c-0.1-0.8-0.3-1.5-0.5-2.3C85.2,145.3,85.1,145,85,144.8L85,144.8z M75.7,149.8L75.7,149.8c0.6,0.2,1.3,0.2,2,0.1
		c-0.3-0.2-0.6-0.5-1-0.6C76.3,149.3,76,149.6,75.7,149.8"/>
	<path id="path5501" class="st1" d="M136.8,144.1c0.4,0.5,1,0.7,1.6,0.8c-0.3,0.3-0.5,0.8-0.9,0.7c0.1,0.7,0.3,1.4,0.3,2.1
		c-0.1,0.3-0.5,0.3-0.8,0.4c1.9,0.4,3.7,1.1,5.6,1.1c-0.4,0.4-0.8,0.8-1.3,1.2c-2.8-0.1-5.4,1.2-8.2,1.1c-4.7,0-9.4,0-14.1,0
		c-0.8,1.8-3,2.8-4.9,2.2c-0.7-0.2-1.4-0.6-2-1c1.5,0.2,3,0.2,4.4-0.3c0.6-0.2,1.1-0.5,1.5-0.9c-1-0.1-1.9,0.1-2.9-0.2
		c-0.3-0.1-0.7-0.4-0.6-0.8c0-0.8,0.6-1.4,1.2-1.9c0.6-0.5,1.4-0.7,2.1-0.4c0.7,0.3,1,1,1.3,1.6c1.2,0,2.5,0.2,3.6-0.5
		c0.1-0.3,0.1-0.5,0-0.8c-0.1-0.6-0.2-1.1-0.4-1.7c-0.1-0.1-0.2-0.2-0.4-0.2c0.4-0.3,0.7-0.6,1.1-0.9c0.4,0.5,0.9,0.8,1.6,0.9
		c-0.3,0.3-0.5,0.7-0.9,0.8c0.1,0.6,0.1,1.1-0.1,1.7c1.8-0.5,3.6-1,5.4-1c0.5,0.1,1.1,0.1,1.4,0.5c0.3,0.4-0.1,0.8-0.3,1.2
		c2,0,3.9,0,5.9,0c0.7,0,1.3-0.1,2-0.3c-1.7-0.7-3.7-0.9-5.4-0.3c0.4-0.6,1.1-0.9,1.8-1.1c0.8-0.2,1.6,0,2.3-0.3
		c-0.2-0.9-0.4-1.9-0.6-2.8c-0.1,0-0.2-0.1-0.2-0.2C136.2,144.6,136.5,144.3,136.8,144.1L136.8,144.1z M123.1,149.9L123.1,149.9
		c0.7,0.1,1.4,0,2.1,0c1.2,0,2.5,0,3.7-0.4c-0.6-0.5-1.4-0.5-2.2-0.5C125.6,149.2,124.3,149.5,123.1,149.9L123.1,149.9z
		 M115.6,149.8L115.6,149.8c0.6,0.2,1.3,0.2,2,0.1c-0.3-0.2-0.6-0.5-1-0.6C116.3,149.3,115.9,149.6,115.6,149.8"/>
	<path id="path5503" class="st1" d="M41.3,145c0.5,0.2,0.9,0.4,1.3,0.6c-0.3,0.2-0.7,0.4-1,0.7c-0.4-0.2-0.9-0.4-1.3-0.6
		C40.6,145.4,41,145.2,41.3,145"/>
	<path id="path5505" class="st1" d="M10.6,145.8c0.3-0.1,0.7-0.3,1-0.5c0.4,0.2,0.8,0.4,1.3,0.6c-0.4,0.2-0.7,0.5-1.1,0.7
		c-0.4-0.2-0.7-0.3-1.1-0.5C10.5,146,10.5,145.9,10.6,145.8"/>
	<path id="path5507" class="st1" d="M9,145.4c0.4,0.2,0.8,0.4,1.2,0.5c0,0.1,0,0.2,0,0.2c-0.3,0.2-0.7,0.4-1,0.6
		c-0.4-0.2-0.9-0.4-1.3-0.7C8.3,145.8,8.7,145.6,9,145.4"/>
	<path id="path5509" class="st1" d="M22.4,145.4c0.4,0.2,0.8,0.4,1.3,0.5c-0.1,0.5-0.7,0.5-1,0.8c-0.4-0.2-0.9-0.4-1.3-0.6
		C21.7,145.9,22,145.6,22.4,145.4"/>
	<path id="path5511" class="st1" d="M23.9,145.9c0.3-0.2,0.7-0.4,1-0.6c0.4,0.2,0.9,0.4,1.3,0.6c-0.4,0.2-0.7,0.5-1.2,0.7
		c-0.4-0.1-0.8-0.3-1.2-0.5C23.9,146.1,23.9,146,23.9,145.9"/>
	<path id="path5513" class="st1" d="M51.6,146.3c0.2-0.3,0.5-0.6,0.7-0.9c0.4,0.6,1,0.9,1.6,1.1c-0.2,0.3-0.4,0.7-0.8,0.8
		c-0.3,0.6-0.6,1.1-1,1.5c0.4,0.4,0.9,0.9,1,1.5c0.1,0.5-0.1,1-0.6,1.2c-0.9,0.2-1.7,0.2-2.6,0.2c-0.4,0-0.9,0-1.2-0.3
		c-0.3-0.4-0.4-1-0.5-1.5c1.1,0.2,2-0.3,2.9-0.9c-0.8-0.5-1.6-1-2.4-1.3c-0.4,0.2-0.8-0.1-1.1-0.3c-0.2-0.1-0.6-0.3-0.6-0.5
		c0.1-0.5,0.4-0.8,0.7-1.2c1.5,0.7,2.7,1.7,4,2.6C51.9,147.7,52.2,146.9,51.6,146.3L51.6,146.3z M50.5,150L50.5,150
		c0.5,0,1,0,1.6-0.1c-0.2-0.2-0.4-0.4-0.6-0.6C51.2,149.5,50.8,149.7,50.5,150"/>
	<path id="path5515" class="st1" d="M54.9,146.6c0.4-0.4,0.9-0.7,1.3-1.1c-0.1,1.5,0.5,3,0.5,4.6c-0.1,0.6-0.6,1.1-1.1,1.5
		c0.1-0.9-0.1-1.9-0.3-2.8C55.2,148.1,55,147.4,54.9,146.6"/>
	<path id="path5517" class="st1" d="M65.7,146.1c0.3-0.2,0.6-0.4,0.9-0.6c0.4,0.2,0.9,0.4,1.3,0.6c-0.4,0.2-0.7,0.5-1.2,0.7
		c-0.4-0.1-0.7-0.3-1.1-0.5l-0.1,0.2c0-0.2,0-0.3,0-0.5L65.7,146.1"/>
	<path id="path5519" class="st1" d="M63,146.3c0.4-0.2,0.7-0.4,1.1-0.7c0.4,0.2,0.8,0.4,1.2,0.5c0,0.1-0.1,0.2-0.1,0.3
		c-0.3,0.1-0.6,0.3-0.9,0.5C63.9,146.7,63.5,146.5,63,146.3"/>
	<path id="path5521" class="st1" d="M103,146.6c0.4-0.3,0.7-0.6,1.1-0.9c0.3,0.6,0.9,0.8,1.6,0.9c-0.3,0.3-0.5,0.7-0.9,0.8
		c0.1,0.6,0.1,1.2-0.2,1.7c1.5-0.5,3.1-0.9,4.6-1c0.6,0,1.3,0,1.9,0.2c0.3,0.1,0.6,0.5,0.5,0.8c-0.3,0.9-1.1,1.5-1.8,1.9
		c-0.9,0.3-1.8,0.3-2.8,0.3c-1.6,0-3.2,0-4.8,0c-1.1,0-2.2-0.7-2.5-1.7c1.4,0.1,2.9,0.4,4.1-0.4c0.2-0.4,0-0.9-0.1-1.4
		C103.4,147.5,103.5,146.9,103,146.6L103,146.6z M104.2,149.9L104.2,149.9c1.9,0.1,3.9,0.1,5.8-0.3c-0.4-0.5-1.1-0.5-1.7-0.5
		C106.9,149.1,105.5,149.4,104.2,149.9"/>
	<path id="path5523" class="st1" d="M143.5,146.8c0.4-0.3,0.9-0.7,1.3-1c-0.1,1.5,0.5,2.9,0.5,4.3c-0.1,0.6-0.7,1.1-1.1,1.5
		c0-0.4,0-0.9-0.1-1.3C144,149.1,143.7,148,143.5,146.8"/>
	<path id="path5525" class="st1" d="M92.6,146.8c0.4-0.3,0.9-0.7,1.3-1c-0.1,1.5,0.5,2.9,0.5,4.3c-0.1,0.6-0.6,1.1-1.1,1.5
		C93.4,150,92.8,148.4,92.6,146.8"/>
	<path id="path5527" class="st1" d="M132.7,146.9c0.4-0.3,0.8-0.5,1.2-0.7c0.5,0.2,1,0.5,1.5,0.7c-0.4,0.2-0.8,0.5-1.2,0.7
		C133.7,147.3,133.2,147.1,132.7,146.9"/>
	<path id="path5529" class="st1" d="M41.3,147.3c0.4-0.6,1.2-1.1,1.9-1c1,0.2,2,0.9,2.5,1.8c0.4,0.8,0.3,1.8-0.1,2.6
		c-0.1,0.2-0.2,0.5-0.5,0.6c-1.3,0.3-2.7,0.2-4,0.2c-1.2,0-2.5,0.2-3.6-0.4c-0.6,1-1.5,2-2.7,2.3c-1.4,0.4-2.8-0.3-3.9-1.2
		c2,0.3,4.4,0,5.9-1.6c-0.4-0.2-0.7-0.5-1-0.8c0.4-0.4,0.9-0.8,1.3-1.1c0.4,0.5,0.8,1,1.5,1c0.9,0.1,1.8,0,2.7,0
		c1.2,0,2.4,0.1,3.5-0.2c-0.2-0.3-0.4-0.6-0.6-0.9c-0.5,0.4-1.1,0.6-1.8,0.6c-0.5,0-1.2-0.1-1.5-0.6C40.7,148.3,41,147.7,41.3,147.3
		L41.3,147.3z M41.9,147.9L41.9,147.9c0.6,0.2,1.3,0.2,2,0.1C43.3,147.6,42.4,147.3,41.9,147.9"/>
	<path id="path5531" class="st1" d="M10.9,147.9c0.4-0.3,0.8-0.7,1.2-1c0.1,0.8,0.2,1.6,0.4,2.3c0.1,0.5,0.6,0.6,1.1,0.6
		c0.9,0,1.8,0.1,2.7-0.1c0.3-0.2,0.4-0.5,0.7-0.8c0.3,0.3,0.5,0.8,1,0.9c0.8,0.2,1.6,0.1,2.4,0c0.8-1.6,2.7-2.8,4.5-2.3
		c0.7,0.6,0.5,1.6,0.2,2.3c1.3,0.2,2.7,0.2,4.1,0c-0.2-0.3-0.4-0.5-0.7-0.7c0.4-0.3,0.8-0.7,1.2-1c0.5,0.5,0.9,1.2,0.8,1.9
		c-0.1,0.5-0.3,1-0.6,1.4c-0.5,0.3-1.1,0.3-1.6,0.3c-1.4,0-2.8,0-4.2,0c-0.5,0-1-0.2-1.5-0.4c-1.2,0.5-2.6,0.4-3.8,0.5
		c-0.5,0-1,0-1.4-0.2c-0.4-0.2-0.6-0.5-0.9-0.8c-0.3,0.3-0.6,0.7-1,0.9c-0.9,0.1-1.9,0.2-2.8,0c-0.7-0.1-1-0.7-1.2-1.3
		c-0.4,0.4-0.8,0.9-1.4,1.1c-1.1-0.1-2.3-0.2-3.3-0.8c0.4-0.6,0.9-1.2,1.6-1.4c0.9-0.3,1.8-0.4,2.6-0.6
		C11,148.3,10.9,148.1,10.9,147.9L10.9,147.9z M21.7,149.2L21.7,149.2c0.3,0.1,0.6,0.3,0.9,0.4c0.4,0,0.9-0.1,1.3-0.2
		c-0.1-0.3-0.3-0.6-0.6-0.6C22.7,148.7,22.2,149,21.7,149.2L21.7,149.2z M9.6,149.7L9.6,149.7c0.6,0.2,1.2,0.3,1.9,0.3
		c-0.1-0.3-0.2-0.6-0.3-0.9C10.6,149.2,10.1,149.3,9.6,149.7"/>
	<path id="path5533" class="st1" d="M64.6,148c0.4-0.3,0.8-0.6,1.2-0.9c0.2,0.8,0.2,1.5,0.4,2.3c0.2,0.5,0.7,0.5,1.1,0.5
		c1,0,1.9,0.1,2.9-0.2c-0.2-0.2-0.4-0.5-0.7-0.7c0.4-0.3,0.8-0.7,1.2-1c0.6,0.6,1,1.4,0.7,2.2c-0.2,0.4-0.3,1-0.8,1.1
		c-1,0.3-2,0.2-3,0.2c-0.6,0-1.2,0-1.7-0.3c-0.4-0.2-0.5-0.6-0.7-1c-0.4,0.4-0.8,0.8-1.3,1c-1.1,0-2.3-0.2-3.4-0.7
		c0.4-0.5,0.9-1.1,1.5-1.4c0.9-0.3,1.8-0.4,2.7-0.6C64.7,148.4,64.6,148.2,64.6,148L64.6,148z M63.5,149.6L63.5,149.6
		c0,0,0,0.1,0,0.1c0.6,0.2,1.1,0.2,1.7,0.2c-0.1-0.3-0.2-0.6-0.3-0.9C64.4,149.2,63.9,149.3,63.5,149.6"/>
	<path id="path5535" class="st1" d="M69.8,152.8c0.2-0.4,0.7-0.5,1-0.7c0.4,0.2,0.9,0.4,1.3,0.6c-0.4,0.2-0.7,0.5-1.1,0.7
		C70.6,153.2,70.2,153,69.8,152.8"/>
	<path id="path5537" class="st1" d="M85.1,152.8c0.4-0.2,0.8-0.5,1.1-0.7c0.5,0.2,1,0.5,1.5,0.7c-0.4,0.2-0.7,0.5-1.1,0.7
		C86.1,153.2,85.6,153,85.1,152.8"/>
	<path id="path5539" class="st1" d="M13.8,153c0.4-0.2,0.7-0.5,1.1-0.7c0.4,0.1,0.8,0.3,1.2,0.6c0,0,0,0.1,0,0.2
		c-0.3,0.2-0.6,0.4-1,0.6C14.7,153.4,14.3,153.2,13.8,153"/>
	<path id="path5541" class="st1" d="M16.4,152.8c0.3-0.2,0.7-0.4,1-0.6c0.4,0.2,0.9,0.4,1.3,0.6c-0.4,0.2-0.8,0.5-1.1,0.7
		c-0.4-0.2-0.8-0.3-1.1-0.6C16.4,152.9,16.4,152.8,16.4,152.8"/>
	<path id="path5543" class="st1" d="M26.1,153c0.4-0.2,0.7-0.5,1.1-0.7c0.4,0.2,0.9,0.4,1.3,0.6c-0.3,0.3-0.7,0.5-1.1,0.7
		C26.9,153.4,26.5,153.2,26.1,153"/>
	<path id="path5545" class="st1" d="M28.6,152.8c0.3-0.2,0.7-0.4,1-0.6c0.4,0.2,0.9,0.4,1.3,0.6c-0.4,0.3-0.8,0.5-1.2,0.7
		c-0.4-0.2-0.8-0.4-1.2-0.6C28.6,152.9,28.6,152.8,28.6,152.8"/>
	<path id="path5547" class="st1" d="M67.2,152.8c0.4-0.2,0.7-0.5,1.1-0.7c0.4,0.2,0.8,0.4,1.2,0.6c-0.3,0.3-0.7,0.5-1,0.7
		C68.1,153.3,67.7,153,67.2,152.8"/>
	<path id="path5549" class="st1" d="M46.3,158.5c1.2-1.2,2.9-1.6,4.5-1.7c1.9-0.1,3.9,0,5.6,1c1,0.6,1.8,1.6,1.8,2.8
		c0,1.1-0.6,2-1.4,2.7c0.4,0.2,0.8,0.4,1.2,0.7c0,0,0,0.1,0,0.2c-0.3,0.3-0.8,0.5-1.1,0.8h-0.2c-0.4-0.4-0.9-0.6-1.4-0.8
		c-1.1,0.3-2.2,0.5-3.3,0.5c-1.4,0-2.9-0.1-4.2-0.7c-0.8-0.4-1.6-1-2-1.8C45.2,160.9,45.4,159.4,46.3,158.5L46.3,158.5z M48.8,159
		L48.8,159c-0.7,0.6-0.9,1.7-0.5,2.6c0.3,0.7,1.1,1.2,1.8,1.4c1,0.3,2.2,0.3,3.2,0.1c-0.4-0.3-0.9-0.5-1.3-0.7
		c0.5-0.3,0.9-0.6,1.4-0.8c0.5,0.3,1,0.5,1.5,0.8c0.7-0.7,1-2,0.3-2.9c-0.7-0.9-1.9-1.3-3.1-1.3C51,158,49.7,158.2,48.8,159"/>
	<path id="path5551" class="st1" d="M5.6,164.3c1.6-2.4,3.1-4.8,4.7-7.2c1.1,0,2.1,0,3.2,0c1.5,2.4,3.1,4.8,4.6,7.2
		c-0.9,0-1.9,0-2.8,0c-0.3-0.5-0.7-1-1-1.5c-1.7,0-3.3,0-5,0c-0.3,0.5-0.6,1-0.9,1.5C7.5,164.3,6.6,164.3,5.6,164.3L5.6,164.3z
		 M10.3,161.6L10.3,161.6c1.1,0,2.3,0,3.4,0c-0.6-0.9-1.2-1.9-1.8-2.8C11.4,159.8,10.9,160.7,10.3,161.6"/>
	<path id="path5553" class="st1" d="M18.9,157.1c3.1,0,6.3,0,9.4,0c0,0.4,0,0.8,0,1.3c-2.2,0-4.4,0-6.7,0c0,0.5,0,1.1,0,1.6
		c1.9,0,3.9,0,5.9,0c0,0.4,0,0.8,0,1.2c-2,0-3.9,0-5.9,0c0,1,0,2.1,0,3.1c-0.9,0-1.8,0-2.8,0C18.9,161.9,18.9,159.5,18.9,157.1"/>
	<path id="path5555" class="st1" d="M29.2,164.3c0-2.4,0-4.8,0-7.2c2.4,0,4.8,0,7.2,0c1.1,0,2.4,0.1,3.3,0.8
		c0.6,0.4,0.8,1.3,0.4,1.9c-0.4,0.6-1.1,0.8-1.8,1c0.5,0.2,1.1,0.3,1.4,0.7c0.2,0.7,0.1,1.4,0.3,2c0.1,0.3,0.4,0.4,0.5,0.7
		c-1,0-2.1,0-3.1,0c-0.5-0.6-0.3-1.4-0.4-2.2c-0.1-0.5-0.7-0.6-1.1-0.7c-1.3,0-2.5,0-3.8,0c0,1,0,1.9,0,2.9
		C31.1,164.3,30.2,164.3,29.2,164.3L29.2,164.3z M32.1,158.3L32.1,158.3c0,0.6,0,1.3,0,1.9c1.3,0,2.5,0,3.8,0c0.6,0,1.3-0.2,1.7-0.7
		c0.2-0.3,0.1-0.8-0.2-0.9c-0.4-0.2-0.9-0.2-1.4-0.2C34.6,158.3,33.4,158.3,32.1,158.3"/>
	<path id="path5557" class="st1" d="M41.6,157.1c0.9,0,1.8,0,2.6,0c0,2.4,0,4.8,0,7.2c-0.9,0-1.8,0-2.6,0
		C41.6,161.9,41.6,159.5,41.6,157.1"/>
	<path id="path5559" class="st1" d="M59.4,157.1c0.9,0,1.8,0,2.6,0c0,2.4,0,4.8,0,7.2c-0.9,0-1.8,0-2.6,0
		C59.4,161.9,59.4,159.5,59.4,157.1"/>
	<path id="path5561" class="st1" d="M62.8,157.1c1,0,2,0,3.1,0c0.9,1,1.8,2.1,2.7,3.1c0.9-1,1.7-2.1,2.6-3.1c1,0,2,0,3.1,0
		c-1.3,1.4-2.7,2.8-4,4.3c-0.1,0.1-0.3,0.3-0.2,0.5c0,0.8,0,1.6,0,2.5c-0.9,0-1.9,0-2.8,0c0-0.8,0-1.6,0-2.5c0-0.2-0.1-0.3-0.2-0.5
		C65.6,159.9,64.2,158.5,62.8,157.1"/>
	<path id="path5563" class="st1" d="M78.4,157.1c1.1,0,2.1,0,3.2,0c1.5,2.4,3.1,4.8,4.6,7.2c-0.9,0-1.9,0-2.8,0
		c-0.3-0.5-0.6-1-0.9-1.4c-1.7,0-3.3,0-5,0c-0.3,0.5-0.6,1-1,1.5c-0.9,0-1.9,0-2.8,0C75.3,161.9,76.8,159.5,78.4,157.1L78.4,157.1z
		 M80,158.8L80,158.8c-0.5,0.9-1.1,1.9-1.7,2.8c1.1,0,2.3,0,3.4,0C81.2,160.7,80.6,159.8,80,158.8"/>
	<path id="path5565" class="st1" d="M87.1,157.1c1,0,2,0,3,0c0,0.9,0,1.8,0,2.7c1.9,0,3.8,0,5.7,0c0-0.9,0-1.8,0-2.7c1,0,2,0,3,0
		c0,2.4,0,4.8,0,7.2c-1,0-2,0-3,0c0-1.1,0-2.2,0-3.3c-1.9,0-3.8,0-5.7,0c0,1.1,0,2.2,0,3.3c-1,0-2,0-3,0
		C87.1,161.9,87.1,159.5,87.1,157.1"/>
	<path id="path5567" class="st1" d="M107.1,158.8c0.5,0,0.9,0,1.4,0c0.8,1.9,1.7,3.8,2.5,5.8c-0.5,0-0.9,0-1.4,0
		c-0.2-0.4-0.4-0.9-0.6-1.3c-0.8,0-1.7,0-2.5,0c-0.2,0.4-0.3,0.9-0.5,1.3c-0.5,0-0.9,0-1.4,0C105.5,162.6,106.3,160.7,107.1,158.8
		L107.1,158.8z M107,162.3L107,162.3c0.6,0,1.1,0,1.7,0c-0.3-0.7-0.6-1.4-0.8-2.1C107.5,160.8,107.2,161.6,107,162.3"/>
	<path id="path5569" class="st1" d="M111.6,158.8c0.4,0,0.8,0,1.3,0c0,1.9,0,3.9,0,5.8c-0.4,0-0.8,0-1.3,0
		C111.6,162.6,111.6,160.7,111.6,158.8"/>
	<path id="path5571" class="st1" d="M114.1,158.8c1,0,2.1,0,3.1,0c0.5,0,1,0.1,1.4,0.4c0.7,0.6,0.8,1.8,0.1,2.4
		c-0.3,0.3-0.7,0.4-1.1,0.5c1,0.6,1.5,1.7,2.1,2.5c-0.5,0-1,0-1.5,0c-0.5-0.7-1-1.5-1.6-2.1c-0.3-0.4-0.8-0.3-1.3-0.3
		c0,0.8,0,1.6,0,2.4c-0.4,0-0.8,0-1.3,0C114.1,162.6,114.1,160.7,114.1,158.8L114.1,158.8z M115.4,159.8L115.4,159.8
		c0,0.5,0,1,0,1.5c0.7,0,1.4,0.1,2.1-0.1c0.6-0.2,0.6-1.2-0.1-1.3C116.8,159.7,116.1,159.8,115.4,159.8"/>
	<path id="path5573" class="st1" d="M119.7,158.8c0.4,0,0.9,0,1.3,0c0.3,1.3,0.6,2.6,0.9,3.9c0.4-1.3,0.8-2.6,1.1-3.9
		c0.5,0,1,0,1.5,0c0.4,1.3,0.7,2.7,1.1,4c0.3-1.3,0.6-2.7,1-4c0.4,0,0.9,0,1.3,0c-0.5,1.9-1,3.9-1.5,5.8c-0.5,0-0.9,0-1.3,0
		c-0.4-1.4-0.8-2.9-1.2-4.3c-0.4,1.4-0.8,2.9-1.2,4.3c-0.5,0-0.9,0-1.4,0C120.7,162.6,120.2,160.7,119.7,158.8"/>
	<path id="path5575" class="st1" d="M129.9,158.8c0.4,0,0.9,0,1.3,0c0.8,1.9,1.7,3.9,2.5,5.8c-0.5,0-0.9,0-1.4,0
		c-0.2-0.4-0.4-0.9-0.5-1.3c-0.8,0-1.7,0-2.5,0c-0.2,0.4-0.3,0.9-0.5,1.3c-0.5,0-0.9,0-1.4,0C128.2,162.6,129.1,160.7,129.9,158.8
		L129.9,158.8z M129.7,162.3L129.7,162.3c0.6,0,1.1,0,1.7,0c-0.3-0.7-0.6-1.4-0.9-2.1C130.3,160.8,130,161.6,129.7,162.3"/>
	<path id="path5577" class="st1" d="M132.9,158.8c0.5,0,1,0,1.5,0c0.5,0.8,1,1.5,1.5,2.3c0.5-0.8,1-1.5,1.4-2.3c0.5,0,1,0,1.5,0
		c-0.8,1.1-1.5,2.2-2.3,3.4c0,0.8,0,1.6,0,2.4c-0.4,0-0.8,0-1.3,0c0-0.8,0.1-1.7,0-2.5C134.5,161,133.7,159.9,132.9,158.8"/>
	<path id="path5579" class="st1" d="M140,159.1c0.8-0.5,1.9-0.5,2.8-0.3c0.7,0.2,1.2,0.9,1.3,1.6c-0.4,0-0.9,0-1.3,0
		c-0.2-0.9-1.4-1-2.1-0.6c-0.3,0.2-0.2,0.6,0.1,0.7c0.9,0.4,2,0.4,2.9,1c0.8,0.7,0.7,2.1-0.3,2.7c-0.9,0.5-1.9,0.5-2.9,0.2
		c-0.8-0.2-1.4-1-1.4-1.8c0.4,0,0.8-0.1,1.2-0.1c0.2,0.4,0.3,0.8,0.7,1c0.5,0.2,1.3,0.2,1.7-0.2c0.3-0.2,0.3-0.8-0.1-0.9
		c-0.9-0.4-2.1-0.3-2.9-1.1C139.1,160.7,139.3,159.6,140,159.1"/>
</g>
</svg>
