<?xml version="1.0" encoding="utf-8"?>
<!-- Generator: Adobe Illustrator 25.4.1, SVG Export Plug-In . SVG Version: 6.00 Build 0)  -->
<svg version="1.1" id="Layer_1" xmlns="http://www.w3.org/2000/svg" xmlns:xlink="http://www.w3.org/1999/xlink" x="0px" y="0px"
	 viewBox="0 0 177.6 80" style="enable-background:new 0 0 177.6 80;" xml:space="preserve">
<style type="text/css">
	.st0{fill:#373637;}
	.st1{fill:#191C37;}
	.st2{fill:#FFFFFF;}
	.st3{opacity:0.56;fill:url(#SVGID_1_);}
	.st4{opacity:0.56;fill:url(#SVGID_00000076571669910043413310000011344871455962569397_);}
	.st5{opacity:0.56;fill:url(#SVGID_00000023270348257563420260000011332155713797810067_);}
	.st6{fill:#21254A;}
	.st7{opacity:0.36;fill:#21274E;}
	.st8{fill:#86847B;}
	.st9{fill:#201D1C;}
	.st10{fill:#21274E;}
	.st11{fill:#919192;}
	.st12{fill:#B8BABD;}
</style>
<g>
	<path class="st0" d="M168.3,34.5h-40.8c-0.3-2.4-0.9-4.8-1.6-7h48C173.8,27.5,174.1,32.8,168.3,34.5z"/>
	<path class="st0" d="M172,25h-47.1c-1-2.5-2.2-4.8-3.7-7h56.4C177.6,18,177.9,23.3,172,25z"/>
	<path class="st0" d="M164.7,43.8h-37c0.1-1.3,0.2-2.5,0.2-3.8c0-1.1,0-2.2-0.1-3.2h42.5C170.2,36.8,170.5,42.1,164.7,43.8z"/>
	<path class="st0" d="M160.8,53.4h-35.3c0.8-2.3,1.4-4.6,1.8-7h39.1C166.4,46.4,166.7,51.7,160.8,53.4z"/>
	<path class="st1" d="M127.8,40c0,1.3-0.1,2.6-0.2,3.8c-0.1,0.9-0.2,1.7-0.3,2.6c-0.4,2.4-1,4.8-1.8,7C120,68.9,105.2,80,87.8,80
		S55.6,68.9,50.1,53.4c-0.8-2.3-1.4-4.6-1.8-7c-0.1-0.9-0.2-1.7-0.3-2.6c-0.1-1.3-0.2-2.5-0.2-3.8c0-1.1,0-2.2,0.1-3.2
		c0.1-0.8,0.1-1.5,0.3-2.3c0.3-2.4,0.9-4.8,1.6-7c0.3-0.8,0.6-1.6,0.9-2.4c1-2.5,2.2-4.8,3.7-7l0,0C61.5,7.2,73.8,0,87.8,0
		s26.3,7.2,33.4,18c1.5,2.2,2.7,4.6,3.7,7c0.3,0.8,0.6,1.6,0.9,2.4c0.7,2.3,1.3,4.6,1.6,7c0.1,0.8,0.2,1.5,0.3,2.3
		C127.8,37.8,127.8,38.9,127.8,40z"/>
	<circle class="st2" cx="87.8" cy="40" r="34.7"/>
	<circle class="st0" cx="87.8" cy="40" r="32.5"/>
	<linearGradient id="SVGID_1_" gradientUnits="userSpaceOnUse" x1="87.7988" y1="70.5433" x2="87.7988" y2="14.8">
		<stop  offset="0" style="stop-color:#756998"/>
		<stop  offset="1" style="stop-color:#2C2966"/>
	</linearGradient>
	<path class="st3" d="M100.7,21.2C100,21.7,97.9,23,96,23c-2.3,0,0.7-2.9-1.6-2.5c-2.3,0.4-10.6,4.6-12.6,3.6c-2-0.9,3-3.2,0.6-3.5
		c-1.3-0.1-4.7,1.1-7.5,2.2c3.9-3.1,8.8-4.9,14.1-4.9C93.3,18,97.3,19.2,100.7,21.2z"/>
	
		<linearGradient id="SVGID_00000003098351615504850530000007219190610551702421_" gradientUnits="userSpaceOnUse" x1="89.0725" y1="70.5433" x2="89.0725" y2="14.8">
		<stop  offset="0" style="stop-color:#756998"/>
		<stop  offset="1" style="stop-color:#2C2966"/>
	</linearGradient>
	<path style="opacity:0.56;fill:url(#SVGID_00000003098351615504850530000007219190610551702421_);" d="M111.7,40.7
		c0,4.4-1.2,8.4-3.4,11.9c-4,6.5-11.1,10.8-19.3,10.8c-6,0-11.4-2.3-15.4-6.1c-4.4-4.1-7.2-10-7.2-16.6c0-2.8,0.5-5.5,1.4-7.9
		c0,0,4.7,2.3,10.4-3.9c0,0-0.5,7.6,8.6,2.2c9.2-5.4,8.3-4.8,8-3.7c-0.2,1.2-1.9,3.4,0.1,3.4c1.5,0,8.5-2.7,12-4
		C110,30.6,111.7,35.4,111.7,40.7z"/>
	
		<linearGradient id="SVGID_00000054971860502979116680000013499390725779916469_" gradientUnits="userSpaceOnUse" x1="87.4121" y1="14.3197" x2="87.4121" y2="33.5347">
		<stop  offset="0.1077" style="stop-color:#4D3577"/>
		<stop  offset="0.5577" style="stop-color:#564F70"/>
		<stop  offset="0.9744" style="stop-color:#637165"/>
	</linearGradient>
	<path style="opacity:0.56;fill:url(#SVGID_00000054971860502979116680000013499390725779916469_);" d="M107,26.8
		c-3.4,1.3-10.4,4-12,4c-2,0-0.4-2.3-0.1-3.4c0.2-1.2,1.1-1.8-8,3.7c-9.2,5.4-8.6-2.2-8.6-2.2c-5.7,6.2-10.4,3.9-10.4,3.9
		c1.4-3.9,3.9-7.3,7.1-9.8c2.8-1.1,6.2-2.3,7.5-2.2c2.4,0.2-2.6,2.5-0.6,3.5c2,0.9,10.4-3.2,12.6-3.6c2.3-0.4-0.7,2.5,1.6,2.5
		c1.9,0,4-1.4,4.6-1.9C103.1,22.6,105.2,24.5,107,26.8z"/>
	<path class="st2" d="M135.6,31.7c0,0.1,0,0.3,0,0.4c0,0,0,0,0,0c-0.1,0.3-0.4,0.4-0.4,0.4l-38.7,5.7l-1.8,1.6l-3.1,2.8l-0.8,0.7
		c0,0-0.3,0.2,0.1,0.6c0.4,0.4,0.7,0.2,1.2-0.2c0.1-0.1,0.6-0.5,1.3-1c1-0.8,2.3-1.9,3.4-2.8c0.9-0.8,1.6-1.3,1.6-1.3l0,0
		c0,0,0,0,0,0l0,0c0.2,0.1,0.8,0.4,3.4,0.4c3.1,0,4.1-1.8,4.1-2l0,0c0,0,0.4,0.7,0.5,1.5c0,0.3,0.1,0.6,0.1,0.9c0,0.5-0.2,1-0.6,1.4
		c-0.1,0.1-0.2,0.2-0.3,0.3c-1,0.9-3.1,1.8-4.5,2.3c-0.8,0.3-1.4,0.5-1.4,0.5c-2.4,0.3-11.3,1.5-11.3,1.5l-1-1.5c-2,0.2-6,1.8-6,1.8
		c-0.5-0.4-2-1.4-2-1.4c-2,0.8-6.5,3.2-6.5,3.2c-4.8,0-5.6-3.5-5.6-3.5c0.6-2.3,4-3,5.6-3.2H55.1v-1.4h20.1c0.9-0.9,3.6-1.8,5.1-2
		c1.5-0.2,8-0.3,8-0.3s6-0.9,13.6-1.9c1.1-0.2,2.3-0.3,3.5-0.5c12-1.7,26.1-3.7,27.1-3.8C134.4,30.6,135.5,31.1,135.6,31.7z"/>
	<path class="st6" d="M99.7,43.9c0,0-3.3,4.1-13.8,4.1s-12.9-0.6-12.9-0.6s4.4-2.4,6.5-3.2c0,0,1.5,1,2,1.4c0,0,4-1.5,6-1.8l1,1.5
		C88.4,45.5,97.2,44.3,99.7,43.9z"/>
	<path class="st7" d="M98.2,38.6c0,0-5.7,4.8-6.2,5.1c-0.5,0.3-0.8,0.5-1.2,0.2c-0.4-0.4-0.1-0.6-0.1-0.6l5.7-5.1L98.2,38.6z"/>
	<path class="st8" d="M105.5,41.2c-1,0.9-3.1,1.8-4.5,2.3c-0.1,0-1.8-0.4-7.8-0.8c-0.4,0-0.7,0-1.1-0.1c-0.2,0-0.4,0-0.7,0
		c-6.9-0.3-16.4,1.4-16.4,1.4s2.5-3,12.3-4c2.5-0.2,5-0.3,7.2-0.2c0.7,0,1.3,0.1,2,0.1C102,40.2,105.5,41.2,105.5,41.2z"/>
	<path class="st9" d="M75.3,40c0,0,1.2-0.1,1.6,0l1.8-1.6c0,0-0.8,0-1,0.1C77.4,38.6,75.3,40,75.3,40z"/>
	<path class="st9" d="M77.8,40l1.7-1.6c0,0,4.3-0.2,4.5,0.1c0.2,0.3-0.2,2.2-0.8,2.9c0,0-1.2-1-2.8-1.2C78.8,40.1,77.8,40,77.8,40z"
		/>
	<path class="st9" d="M85,41h0.9v-1c0,0,0-0.4-0.5-0.4C85,39.6,85,40,85,40V41z"/>
	<path class="st9" d="M87.9,41h0.9v-1c0,0,0-0.4-0.5-0.4S87.9,40,87.9,40V41z"/>
	<path class="st9" d="M89.8,41h0.9v-1c0,0,0-0.4-0.5-0.4c-0.5,0-0.5,0.4-0.5,0.4V41z"/>
	<path class="st9" d="M91.6,41h0.9v-1c0,0,0-0.4-0.5-0.4c-0.5,0-0.5,0.4-0.5,0.4V41z"/>
	<path class="st6" d="M135.5,32c-0.1,0.8-1.2,0.8-1.2,0.8L105.9,37l0,0c-0.1,0.1-1.1,2-4.1,2c-2.6,0-3.2-0.3-3.4-0.4l0,0l0,0l0,0
		c0,0-5.7,4.8-6.2,5.1c-0.5,0.3-0.8,0.5-1.2,0.2c-0.4-0.4-0.1-0.6-0.1-0.6l5.7-5.1l38.7-5.7C135.1,32.4,135.4,32.4,135.5,32z"/>
	<path class="st6" d="M105.4,34.6c-1.2,0.2-2.4,0.3-3.5,0.5c0,0,1.6-1.1,1.4-2.9c-0.1-1.8,0.1-2,0.3-1.8
		C103.9,30.7,105.2,33.1,105.4,34.6z"/>
	<path class="st10" d="M103.8,39.3c0,0-0.1,0.2,0.5,0.2c0.6,0,4.3-0.2,4.3-0.2s0.1,0-0.4-0.5c-0.5-0.5-0.7-0.6-1-0.5
		C106.8,38.4,103.8,39.3,103.8,39.3z"/>
	<path class="st11" d="M68.9,38.2c-1.3,0-2.3,2.3-2.3,5.1c0,2.8,1,5.1,2.3,5.1c1.3,0,2.3-2.3,2.3-5.1C71.2,40.5,70.2,38.2,68.9,38.2
		z M68.7,48.1c-0.9,0-1.7-2.1-1.7-4.8c0-2.6,0.7-4.8,1.7-4.8s1.7,2.1,1.7,4.8C70.3,45.9,69.6,48.1,68.7,48.1z"/>
	<polygon class="st6" points="72.9,47.5 72.9,51 74.1,51 74.1,47.4 	"/>
	<polygon class="st6" points="79.2,47.8 79.2,49.7 80.1,49.7 80.1,47.7 	"/>
	<polygon class="st6" points="92.7,47.1 94.2,49.9 95,49.5 93.6,46.7 	"/>
	<ellipse class="st9" cx="94.9" cy="50.9" rx="1.1" ry="1.6"/>
	<ellipse class="st2" cx="94.9" cy="50.9" rx="0.6" ry="0.9"/>
	<ellipse class="st9" cx="73.7" cy="52.2" rx="1.1" ry="1.6"/>
	<ellipse class="st2" cx="73.7" cy="52.2" rx="0.6" ry="0.9"/>
	<ellipse class="st9" cx="79.7" cy="50.6" rx="0.9" ry="1.2"/>
	<ellipse class="st2" cx="79.7" cy="50.6" rx="0.5" ry="0.7"/>
	<path class="st2" d="M108.4,52.5c-4,6.5-11.1,10.8-19.3,10.8c-6,0-11.4-2.3-15.4-6.1c1.5-1.3,4.9-4.1,7.3-5c3.1-1.2,3.5,0.9,5,1.8
		c1.5,0.9,2.5,2.4,3.9,1.4c1.4-1,2.6-2.9,3.7-2.3c1,0.6,1.1,2.8,3.7,2.8c2.7,0,3.3-3.2,6.1-3.4C105.4,52.4,107.4,52.5,108.4,52.5z"
		/>
	<path class="st12" d="M80,55.4l2.8-2.4l1.9,1.6C84.8,54.6,82.4,54.2,80,55.4z"/>
	<path class="st12" d="M87.6,60.4c0,0,4.3-3.8,7.4-4.2l-2.3-1.4L87.6,60.4z"/>
	<path class="st12" d="M100.6,55.3c0,0,2.1-0.3,3.2-0.1c0,0,0.3-1.6,0.8-2.2C104.7,53,102.6,52.8,100.6,55.3z"/>
	<path class="st2" d="M58.3,30.6c0,0,0.2,0.1,0.4-0.1l5.1,1.3l0.7-1L62,28l3.5,1.1l0.6-0.9l-3.6-4.2c0,0,0.3-0.2,0-0.5
		c-0.3-0.2-0.5,0.2-0.5,0.2l-0.7,1c0,0-0.1,0.2,0.1,0.3c0.2,0.1,0.5-0.3,0.5-0.3l2.3,2.6l-3.6-1.2l-0.6,0.9l2.7,3L59.5,29
		c0,0,0.3-0.4,0.1-0.5c-0.2-0.1-0.4-0.2-0.6,0.2c-0.2,0.3-0.9,1.6-0.9,1.6S58.1,30.5,58.3,30.6z"/>
	<path class="st2" d="M71.6,21.2c-0.6,0.1-0.7,0.2-1.2-0.1c-0.5-0.3-1.1-0.3-1.5-0.2c0,0,0.4-1.1-0.3-1.7c-0.7-0.6-1.9-0.6-2.7,0.1
		c-0.7,0.7-1.7,1.8-1.7,1.8s-0.2,0.1,0,0.2c0,0,0.2,0.3,0.6,0l3.2,3.3c0,0-0.3,0.3,0,0.6c0.3,0.2,1.7-1.5,1.7-1.5s0-0.3-0.2-0.3
		c-0.2,0-0.4,0.2-0.4,0.2L67.8,22c0,0,0.9-0.4,2.3,0.5c0,0,0.5,0.4,1,0c0.5-0.4,0.9-1,0.9-1S72.2,21.1,71.6,21.2z M68,21.2l-0.6,0.6
		l-1.5-1.6c0,0,0.1-0.2,0.5-0.5c0.4-0.3,0.8-0.1,0.8-0.1s0.4,0.3,0.7,0.8C68.3,20.8,68,21.2,68,21.2z"/>
	<path class="st2" d="M71,16.2l2.3,3.8c0,0-0.3,0.2-0.2,0.5c0.1,0.3,0.6,0,0.6,0l1.5-0.9c0,0,0.3-0.2,0-0.4c-0.3-0.2-0.5,0-0.5,0
		l-2.3-3.7c0,0,0.3-0.2,0.2-0.5c-0.2-0.3-0.4-0.3-0.7-0.1c-0.2,0.2-1.2,0.8-1.2,0.8s-0.3,0.2-0.2,0.4C70.5,16.4,71,16.2,71,16.2z"/>
	<path class="st2" d="M83.3,70.6c-0.3-0.5-0.5-0.5-0.4-1.1c0.1-0.6-0.2-1.1-0.4-1.4c0,0,1.2-0.1,1.4-1.1c0.2-0.9-0.3-2-1.3-2.3
		c-1-0.3-2.3-0.8-2.3-0.8s-0.2-0.1-0.2,0.1c0,0-0.1,0.3,0.3,0.5l-1.6,4.3c0,0-0.4-0.1-0.5,0.3c-0.1,0.3,2.1,0.9,2.1,0.9
		s0.3-0.1,0.2-0.3c-0.1-0.1-0.3-0.3-0.3-0.3l0.7-1.9c0,0,0.8,0.6,0.6,2.3c0,0-0.2,0.7,0.4,0.9c0.6,0.2,1.3,0.4,1.3,0.4
		S83.6,71.1,83.3,70.6z M81.7,67.3L80.9,67l0.8-2c0,0,0.3,0,0.7,0.2c0.4,0.2,0.4,0.7,0.4,0.7s-0.1,0.5-0.4,1
		C82.1,67.5,81.7,67.3,81.7,67.3z"/>
	<path class="st2" d="M93.3,65.8l1.5,4.2c0,0-0.4,0.2-0.3,0.5c0,0.3,0.6,0.1,0.6,0.1l1.6-0.6c0,0,0.3-0.2,0.1-0.4
		c-0.3-0.2-0.5-0.1-0.5-0.1l-1.6-4.1c0,0,0.4-0.1,0.2-0.4c-0.1-0.3-0.4-0.4-0.6-0.3c-0.3,0.1-1.4,0.6-1.4,0.6s-0.3,0.1-0.2,0.4
		S93.3,65.8,93.3,65.8z"/>
	<path class="st2" d="M113.8,32c0-0.6-0.1-0.7,0.3-1.2c0.4-0.5,0.4-1,0.4-1.4c0,0,1.1,0.5,1.8-0.1c0.7-0.7,0.8-1.9,0.2-2.7
		c-0.6-0.8-1.6-1.9-1.6-1.9s-0.1-0.2-0.2,0c0,0-0.3,0.2-0.1,0.6L111,28c0,0-0.3-0.3-0.6-0.1c-0.3,0.2,1.2,1.9,1.2,1.9
		s0.3,0.1,0.3-0.1c0-0.2-0.1-0.4-0.1-0.4l1.6-1.2c0,0,0.3,0.9-0.7,2.2c0,0-0.5,0.5-0.1,1c0.4,0.5,0.9,1.1,0.9,1.1
		S113.9,32.5,113.8,32z M114.2,28.3l-0.5-0.6l1.7-1.3c0,0,0.2,0.1,0.5,0.5c0.2,0.4,0,0.8,0,0.8s-0.4,0.4-0.9,0.7
		S114.2,28.3,114.2,28.3z"/>
	<path class="st2" d="M111.4,21.2l-3.1,3.2c0,0-0.3-0.3-0.6-0.1c-0.2,0.2,0.2,0.6,0.2,0.6l1.2,1.2c0,0,0.3,0.2,0.4-0.1
		c0.1-0.3-0.1-0.5-0.1-0.5l3-3.2c0,0,0.3,0.3,0.5,0c0.2-0.3,0.2-0.5,0-0.7c-0.2-0.2-1.1-1-1.1-1s-0.2-0.2-0.4,0
		C111.1,20.8,111.4,21.2,111.4,21.2z"/>
	<path class="st2" d="M80.4,16.6c0,0,0.3,0.4,0.3,0.4s0.8-0.4,0.8-0.4s-0.5-1.2-0.6-2c0,0,0.3-0.1,0.2-0.3C81,14,80.9,14,80.6,14.1
		s-1.5,0.5-1.5,0.5S79,14.7,79,14.8c0.1,0.2,0.2,0.2,0.4,0.2c0,0,0.4,0.9,0.3,1.2c-0.1,0.3-0.3,0.5-0.4,0.5c-0.1,0-0.9,0.2-1.4-1.2
		s-0.3-2.7-0.1-3s1-0.5,1.2-0.2c0.2,0.3,0.3,0.6,0.4,0.6s0.5-0.3,0.6-0.4c0.1-0.1,0-0.3-0.1-0.6s-0.8-0.5-1.3-0.5
		c-0.5,0-2.1,0.6-2.4,1.8c-0.3,1.2,0.1,2.4,0.5,3.2c0.4,0.8,1.3,1,1.9,1C79.4,17.5,80.1,17.2,80.4,16.6z"/>
	<path class="st2" d="M89.5,15.6v-4.7c0,0,0.5,0,0.5-0.3c0-0.3-0.3-0.3-0.5-0.3s-1.5,0-1.5,0s-0.4-0.1-0.4,0.3c0,0-0.1,0.3,0.5,0.3
		v1.8h-1.7v-1.9c0,0,0.5,0,0.5-0.3c0-0.3-0.3-0.3-0.5-0.3c-0.2,0-1.5,0-1.5,0s-0.4-0.1-0.4,0.3c0,0-0.1,0.3,0.5,0.3v4.7
		c0,0-0.5-0.1-0.5,0.2c0,0.3,0.1,0.3,0.5,0.3c0.5,0,1.8,0,1.8,0s0.1,0,0.1-0.3c0-0.2-0.3-0.3-0.5-0.3v-2.2h1.7v2.2
		c0,0-0.5-0.1-0.5,0.2c0,0.3,0.1,0.3,0.5,0.3s1.8,0,1.8,0s0.1,0,0.1-0.3C90,15.6,89.7,15.6,89.5,15.6z"/>
	<path class="st2" d="M93.4,16.4l2.3,0.6c0,0,0.1,0,0.2-0.2c0.1-0.1-0.2-0.3-0.4-0.4c-0.1,0-0.1-0.1-0.1-0.2l1-4.1
		c0,0,0.1-0.2,0.3-0.1c0.2,0.1,0.5,0.2,0.6,0.2c0,0,0.2,0.4,0.1,0.9l0.4,0.1l0.5-1.5l-4.6-1.1L93,12.1l0.4,0.1c0,0,0.4-1,0.9-0.8
		c0.6,0.1,0.7,0.2,0.7,0.3c0,0.1-1,4.2-1,4.2s0,0.1-0.2,0.1c-0.2,0-0.3,0-0.4,0.1S93.2,16.3,93.4,16.4z"/>
	<path class="st2" d="M108.1,17.2l-0.9-0.7l-4.6,2.9l-0.3-0.2c0,0-0.2-0.1-0.3,0c-0.2,0.1-0.1,0.3-0.1,0.3l1.3,1.2c0,0,0.1,0,0.2,0
		c0.1-0.1,0.1-0.2-0.1-0.4c-0.1-0.2,0.1-0.5,0.8-0.9c0,0,0.1,0,0.1,0l1.3,1.1c-0.2,0.3-0.3,0.6-0.4,0.8c0,0-0.1,0.2-0.2,0.2
		c-0.2,0-0.4-0.1-0.5,0c-0.1,0.1,0,0.3,0,0.3L106,23c0,0,0.2,0.1,0.3-0.1c0.2-0.2-0.1-0.5-0.1-0.5L108.1,17.2z M105.9,19.8l-1.1-0.9
		c0.8-0.5,1.9-1.2,1.9-1.2S106.3,18.8,105.9,19.8z"/>
	<path class="st2" d="M67.6,59.5l-1.1,1.1c0,0,1.2,1.8,1.8,2.1s1.5,0,1.9-0.4s0.6-0.8,0.5-1.5c-0.1-0.8-0.5-1.7-0.2-2
		c0.3-0.3,0.6-0.4,1-0.2c0.3,0.2,0.6,0.7,0.5,1c-0.1,0.3-0.4,0.5-0.4,0.5l0.5,0.5l1.1-1c0,0-1.2-1.5-1.6-1.8s-1.2-0.5-1.8-0.1
		C69.2,58,69,58.6,69.1,59c0,0,0.3,1.7,0.2,2.1c-0.1,0.4-0.7,0.7-0.9,0.6c-0.3-0.1-0.7-0.7-0.8-0.9s0.4-0.9,0.4-0.9L67.6,59.5z"/>
	<path class="st2" d="M74.7,60.7c0,0-0.3-0.1-0.3,0.1c0,0.1,0.1,0.3,0.1,0.5c-0.1,0.2-2.9,3.6-2.9,3.6s-0.2,0.1-0.3,0
		C71.2,64.8,71,65,71,65c0,0.1-0.1,0.2,0,0.3l3.3,2.5l1.1-1.3l-0.7-0.4c0,0-0.4,0.7-1.2,0.3c-0.8-0.4-0.7-0.9-0.5-1.1
		c0.1-0.1,0.5-0.6,1-1.2l0.7,0.5c0,0,0.1,0.2-0.1,0.5c-0.2,0.2,0.2,0.5,0.2,0.5l1.3-1.5c0,0-0.2-0.2-0.3-0.2c-0.1,0-0.3,0.1-0.4,0.2
		c-0.1,0.1-0.2,0.2-0.5,0c-0.1-0.1-0.3-0.3-0.5-0.4c0.6-0.7,1.2-1.5,1.2-1.5s0.9,0.8,1,1c0.1,0.2-0.2,0.8-0.2,0.8
		c0,0,0.4,0.3,0.4,0.3l1-1.2L74.7,60.7z"/>
	<path class="st2" d="M103,60.1c0,0-0.1,0.3,0,0.3c0.1,0,0.3-0.1,0.5,0c0.2,0.1,3.1,3.4,3.1,3.4s0.1,0.2,0,0.3
		c-0.1,0.1,0,0.3,0.1,0.3c0,0,0.1,0.1,0.3,0l3-2.9l-1.1-1.3l-0.4,0.6c0,0,0.6,0.5,0.1,1.2c-0.5,0.7-1,0.6-1.2,0.3
		c-0.1-0.1-0.5-0.6-1-1.1l0.6-0.6c0,0,0.2,0,0.4,0.2c0.2,0.2,0.5-0.1,0.5-0.1l-1.3-1.5c0,0-0.2,0.2-0.3,0.2c0,0.1,0.1,0.3,0.2,0.4
		c0.1,0.1,0.1,0.3-0.1,0.4c-0.1,0.1-0.3,0.3-0.5,0.4c-0.6-0.7-1.3-1.4-1.3-1.4s0.9-0.8,1.1-0.8c0.2-0.1,0.8,0.3,0.8,0.3
		c0,0,0.4-0.4,0.4-0.4l-1.1-1.2L103,60.1z"/>
	<path class="st2" d="M85.9,65.5h2.3c0,0,0.2,0.1,0.1,0.3c0,0.2-0.5,0.3-0.5,0.3l0.9,3.7l1.2-3.7c0,0,0.1-0.1-0.3-0.1
		c-0.3,0-0.4-0.2-0.4-0.3c0-0.1,0.1-0.2,0.3-0.2s1.8,0,1.8,0s0.1,0,0.1,0.2C91.4,66,91,66,91,66l-2.2,5.3h-1L86.3,66h-0.3
		c0,0-0.2,0-0.2-0.2C85.7,65.6,85.9,65.5,85.9,65.5z"/>
	<path class="st2" d="M101.1,61.7l0.7,1.3l-0.6,0.3c0,0-0.6-1-1.3-0.5c-0.7,0.5-0.3,1.9,0,2.4c0.3,0.5,1.2,1.7,1.8,1.7
		c0.7,0.1,1-0.3,0.9-0.6c-0.1-0.3-0.2-0.7-0.2-0.7l0.5-0.4l0.9,1.2c0,0-1.4,1.3-2,1.5c-0.6,0.2-1.6,0.2-2.7-1
		c-1-1.2-0.9-2.9-0.9-3.4c0-0.5,0.7-1.1,1.2-1.4C100,61.9,101.1,61.7,101.1,61.7z"/>
	<path class="st0" d="M54.4,18L54.4,18c-1.5,2.2-2.7,4.6-3.7,7H5.6C-0.3,23.3,0,18,0,18H54.4z"/>
	<path class="st0" d="M49.8,27.5c-0.7,2.3-1.3,4.6-1.6,7H9.3c-5.8-1.7-5.6-7-5.6-7H49.8z"/>
	<path class="st0" d="M48,43.8H12.9c-5.8-1.7-5.6-7-5.6-7h40.6c-0.1,1.1-0.1,2.1-0.1,3.2C47.8,41.3,47.9,42.6,48,43.8z"/>
	<path class="st0" d="M50.1,53.4H16.8c-5.8-1.7-5.6-7-5.6-7h37.1C48.7,48.8,49.3,51.2,50.1,53.4z"/>
</g>
</svg>
