<?xml version="1.0" encoding="utf-8"?>
<!-- Generator: Adobe Illustrator 25.4.1, SVG Export Plug-In . SVG Version: 6.00 Build 0)  -->
<svg version="1.1" id="Layer_1" xmlns="http://www.w3.org/2000/svg" xmlns:xlink="http://www.w3.org/1999/xlink" x="0px" y="0px"
	 viewBox="0 0 235.3 80" style="enable-background:new 0 0 235.3 80;" xml:space="preserve">
<style type="text/css">
	.st0{fill:#EC6B2B;}
</style>
<g>
	<path class="st0" d="M0.4,46.5c0,0-1.1,1.1,0.2,1.5c1.3,0.4,5.1,0.6,6.6-1.8c1.5-2.4,9-15.5,9.4-16.2c0.4-0.7,1.8-2.2,4.9-2.2
		s6.8,0,6.8,0s3.3,0.1,3.5-3.3h-9.4c0,0-2.3-0.4-1.3-2.5c1-2.2,3.4-8.2,5.5-9.4s4.8-1.4,6.1-1.1s2.9,1,2.4,3.3S33.7,19,34.5,19
		c0.8-0.1,1.5,0,3.3-2.2s4.9-7.3,5-7.7c0.1-0.5,0.2-1.2-1.1-1.2s-2.9,0.4-4.4,0.8c-1.5,0.4-4.3,0.3-5.8,0.2
		c-1.5-0.1-10.3,0.1-10.3,0.1s-2-0.1-1.9,1.8c0.1,1.9-0.5,3-0.5,3L0.4,46.5z"/>
	<path class="st0" d="M29.1,54.7c0,0-1.8,0.1-2.7-3.5c-0.9-3.7,0.9-9.9,3.8-15.5S43,13.3,44.3,11.2s5.1-8.5,6.4-9.4
		C51.9,0.9,53.6,0,55.3,0c1.7,0,2.1,0.5,1.2,1.6c0,0-8.1,10.9-9.4,12.7S35.6,32.6,33.3,38.1s-4,11.4-4,14.2S29.1,54.7,29.1,54.7z"/>
	<path class="st0" d="M102,54.7c0,0-1.8,0.1-2.7-3.5c-0.9-3.7,0.9-9.9,3.8-15.5s12.9-22.3,14.2-24.4s5.1-8.5,6.4-9.4
		s2.9-1.8,4.6-1.8c1.7,0,2.1,0.5,1.2,1.6c0,0-8.1,10.9-9.4,12.7c-1.3,1.8-11.5,18.4-13.8,23.9s-4,11.4-4,14.2S102,54.7,102,54.7z"/>
	<path class="st0" d="M111.1,54.7c0,0-1.8,0.1-2.7-3.5c-0.9-3.7,0.9-9.9,3.8-15.5s12.9-22.3,14.2-24.4c1.3-2.1,5.1-8.5,6.4-9.4
		s2.9-1.8,4.6-1.8s2.1,0.5,1.2,1.6c0,0-8.1,10.9-9.4,12.7c-1.3,1.8-11.5,18.4-13.8,23.9s-4,11.4-4,14.2S111.1,54.7,111.1,54.7z"/>
	<path class="st0" d="M49,26.9c0,0,1.1-0.8,0.4-1.2c-0.7-0.4-3.6,0.2-4.4,0.8c-0.8,0.7-5.2,4.6-7.9,12s-0.6,7.5,0.2,7.6
		c0.8,0.1,3.7-0.4,8-3.4s4-2.5,3.5-1.2c-0.5,1.3-5.9,13.7-10.4,20.2s-7.8,10.2-8.6,10.9c-0.8,0.6-2.4,0.7-2.4-0.9
		c0-1.6,1.9-6.8,3.2-9.2c0,0,4-6.4,7.9-9.6s3.4-3,1.3-2.7c-2.1,0.4-10.3,6.3-14.4,13.1S18.7,80,22.7,80s10.5-5.7,13.3-9.2
		c2.8-3.5,9.5-14.3,11.5-18c2-3.7,10.4-18.4,11.8-20.6s2.9-5.2,3.3-6c0.4-0.8,0.6-1.4-0.5-1.3c-1.1,0-2.7,0-3.8,1
		c-1.1,1-3,4.2-3.9,5.6c-0.9,1.4-4.6,5.4-6.9,6.7c-2.3,1.3-5.9,2.8-5.2,0.1s2.8-6.3,3.6-7.3C46.7,29.9,49,26.9,49,26.9z"/>
	<path class="st0" d="M201.9,26.9c0,0,1.1-0.8,0.4-1.2c-0.7-0.4-3.6,0.2-4.4,0.8c-0.8,0.7-5.2,4.6-7.9,12c-2.7,7.4-0.6,7.5,0.2,7.6
		c0.8,0.1,3.7-0.4,8-3.4c4.3-3,4-2.5,3.5-1.2c-0.5,1.3-5.9,13.7-10.4,20.2s-7.8,10.2-8.6,10.9c-0.8,0.6-2.4,0.7-2.4-0.9
		c0-1.6,1.9-6.8,3.2-9.2c0,0,4-6.4,7.9-9.6c3.9-3.2,3.4-3,1.3-2.7s-10.3,6.3-14.4,13.1S171.6,80,175.6,80s10.5-5.7,13.3-9.2
		c2.8-3.5,9.5-14.3,11.5-18c2-3.7,10.4-18.4,11.8-20.6c1.4-2.3,2.9-5.2,3.3-6c0.4-0.8,0.6-1.4-0.5-1.3s-2.7,0-3.8,1
		c-1.1,1-3,4.2-3.9,5.6c-0.9,1.4-4.6,5.4-6.9,6.7c-2.3,1.3-5.9,2.8-5.2,0.1s2.8-6.3,3.6-7.3C199.6,29.9,201.9,26.9,201.9,26.9z"/>
	<path class="st0" d="M106.6,8c-2.4-0.1-5.3,0.8-8.2,2.7c-2.9,2-10.1,9.5-13.4,13c-3.3,3.5-4.2,4.3-4.2,4.3s-4.4-0.6-6.9,1.7
		c-2.5,2.2-0.9,2.5,0,2.4c0.9-0.1,3.7,0,3.7,0S67.9,44.3,67,45.7c-0.9,1.4-1,2.2,0.3,2.3c1.3,0,4.2-0.1,5-0.6c0.8-0.5,1.9-3.5,2.7-5
		c0.9-1.5,6.4-10.3,7.4-10.9c0,0,7,0,8.1,0.1c1.2,0.1,3.2,0.8,2.5,2.5c-0.7,1.7-4.4,8.6-4.8,10c-0.4,1.4-0.3,2.5,0.7,3.3
		c1,0.9,2.4,1.5,3.1,1.7c0.7,0.1,1.2-0.1,1.3-1.2c0.1-1.1,1.5-4.8,2.2-6.9c0,0,4.5-10.8,5.1-12c0.5-1.2,6.1-13.5,6.7-14.8
		c0.7-1.3,2-3.7,2-4.3C109.3,9.2,109,8.1,106.6,8z M99.5,17.4c-0.2,1.6-1.1,3.4-1.7,4.5c-0.6,1.1-2,3.1-2.7,3.8
		c-0.6,0.7-2.5,2-3.4,2.2c-0.9,0.1-4.8,0.1-5.6,0c-0.8-0.1-0.4-0.5-0.4-0.5c0.8-1.1,6.4-7.3,7.7-8.4c1.3-1.1,4-3,5-3.3
		C99.5,15.5,99.7,15.8,99.5,17.4z"/>
	<path class="st0" d="M139.3,7.9c0,0-1,0.4-0.7,1.8c0.3,1.5-8.5,30.6-9.3,33.4c-0.8,2.8-0.6,3.5,0.9,3.5c1.5,0,5.1,0.8,8.2-1.8
		s6.5-8.6,9.1-12.3c2.6-3.6,4.3-5.6,5.2-4.6c0.9,0.9-0.4,3.7-1.8,8.2s-3.8,9.2-2.6,9.9c1.2,0.7,5.1,0.8,6.9,0.1
		c1.8-0.7,2.8-1.4,6.3-6.3s12-15.3,13.5-16.9c1.5-1.6,9.6-10.4,11.4-12.2c1.8-1.8,3.1-2.3,2.9-3s-0.8-1-2-1s-3.9-0.1-5.2,0.4
		c0,0-1.7,0.4-2.5,1.6c-0.8,1.2-9.1,13.7-10.5,15.7s-8.2,11.4-9.8,11.8c-1.6,0.5-2.4-0.2-1.7-2.7c0.7-2.6,4.5-14.5,5.6-17.2
		c1.1-2.6,2-3.1,1.8-4c-0.2-0.9-1.2-1-3.1-0.8c-1.9,0.3-3.9,0.6-5.8,3s-11.7,17.6-13.6,19.5c-1.9,2-4,3.2-4.1,1.4s0-2.4,1.3-6.1
		s6.1-17.6,6.5-19.3s0.3-2.7-1.3-2.8C143.3,7.3,139.3,7.9,139.3,7.9z"/>
	<path class="st0" d="M179.2,42.4c0,0-0.4,2.9,0.9,4c1.3,1.1,1.7,1.5,2.2-0.1s3-7.5,3.9-9c0.9-1.5,2.8-4.1,2.9-4.5
		c0.1-0.4,0.4-1.1-1.5-1c-1.9,0-3.4,0.1-4.4,1.8c-1,1.7-3.5,5.8-5.4,7s-3.3,1.5-4.1,0.9c-0.8-0.7-0.8-2.8,0.2-5s3.9-4.8,4.9-5.6
		c1-0.8,3.1-2.1,6.1-2.4c3-0.3,4.6,1.1,5.6,1.5s1.7,0.5,1.7-0.4s-0.2-3.1-2.9-3.8c-2.7-0.7-8.1-0.5-14,4.1s-8.6,11.8-8.8,14.7
		c-0.3,2.9,1.2,3.7,2.5,3.8c1.3,0,4-0.8,6.7-2.9C178.2,43.1,179.2,42.4,179.2,42.4z"/>
	<path class="st0" d="M208.5,48.1c0,0-1.7,0.1-1.2,0.7c0.5,0.6,2.2,1.4,6.5,0.9c4.4-0.5,7.9-2.7,9.8-4.9c2-2.3,2.4-4.5,1.8-5.9
		s-3-3.5-4.3-4.7c-1.4-1.2-1-2.7-0.5-3.6c0.5-0.9,2.3-1.9,3.5-2.2c1.2-0.3,2.1-0.4,2.3,0.2c0.2,0.7-0.4,2.6-0.1,3.7
		c0.2,1.1,1.4,1.9,1.9,1.9c0.5,0,0.9-0.3,1.4-1.5c0.4-1.2,2-3.5,2.9-4.8c0.9-1.3,2.4-2.9,2.7-3.5c0.3-0.6,0.4-0.9-0.9-0.9
		c-1.3-0.1-3.1-0.3-3.5,0.2s-1.3,1.6-2.4,1.8c-1.1,0.3-3.3-0.1-5.6,0.6s-5.6,2.2-7,4.4c0,0-1.3,3,0.2,4.6c1.5,1.6,4.8,3.3,4.4,5.4
		s-1.5,3.6-3.4,4.7S213.3,47.5,208.5,48.1z"/>
</g>
</svg>
