<?xml version="1.0" encoding="utf-8"?>
<!-- Generator: Adobe Illustrator 25.4.1, SVG Export Plug-In . SVG Version: 6.00 Build 0)  -->
<svg version="1.1" xmlns="http://www.w3.org/2000/svg" xmlns:xlink="http://www.w3.org/1999/xlink" x="0px" y="0px"
	 viewBox="0 0 236.5 80" style="enable-background:new 0 0 236.5 80;" xml:space="preserve">
<style type="text/css">
	.st0{fill:#0C0C11;}
	.st1{fill:#AF0061;}
	.st2{fill:#870F54;}
	.st3{fill:#6B6B6B;}
</style>
<g id="Layer_1">
	<path class="st0" d="M-238.6-885.5c-0.7-0.1-1.8,0-2.5,0c0.5-0.4,1.2-0.7,1.6-0.5c0.1,0,0.1,0,0.2,0.1
		C-239.1-885.8-238.8-885.6-238.6-885.5z"/>
	<g id="text835">
	</g>
</g>
<g id="Layer_2">
	<path class="st1" d="M167.8,1.8h-20.6L114.6,49l-11.1-9c0,0-5,7.4-12.3,7.4S80.6,39.9,81,35c0.4-5,4.8-16.4,15.8-16.4
		c0,0,8.4,0.8,9.9,7.8l18.3-8.6c0,0-1.1-17.7-26.7-17.7S62.4,20.2,61.8,28H34.1L31,40.9h10.4c0,0,0,7.9-8.3,7.9S20.6,40.9,20.6,34
		c0-6.9,8.9-16.2,17.7-16.2c8.9,0,15.7,5.7,16,6L67.4,10c0,0-10.1-10-28-10S1.8,12,0.1,34.4c-1.7,22.3,18.3,31.5,28.5,31.5
		c10.2,0,26.5-5.7,26.5-5.7l5.2-15.8c0,0,5.1,21.5,23.4,21.5c0,0,14.1,0,21.8-3.5v2.1h8.5l59.9-25.9L167.8,1.8z M143,40.6l8.2-14.4
		l2.3,11.7L143,40.6z"/>
	<polygon class="st2" points="120.6,64.5 128.3,64.5 154.8,49.9 155.4,64.5 177.9,64.5 174.1,40 	"/>
	<polygon class="st1" points="189.5,58.8 195.4,30 171.3,16.3 236.5,11.2 	"/>
	<polygon class="st2" points="236.5,11.2 189.5,58.8 195.4,30 	"/>
	<g>
		<polygon class="st3" points="103.7,80 104.7,80 106.7,70.5 105.6,70.5 		"/>
		<polygon class="st3" points="128,70.5 126.8,70.5 124.9,80 126,80 130.6,80 130.9,78.9 126.2,78.9 		"/>
		<polygon class="st3" points="136.6,80 137.6,80 139.6,70.5 138.5,70.5 		"/>
		<polygon class="st3" points="150.4,78.2 147.5,70.5 146.3,70.5 144.4,80 145.5,80 147.1,72.4 150,80 151.1,80 153.1,70.5 
			151.9,70.5 		"/>
		<polygon class="st3" points="160.5,70.5 159.8,70.5 157.9,80 158.9,80 164.5,80 164.7,78.9 159.1,78.9 159.9,75.6 164.7,75.6 
			164.9,74.6 160.1,74.6 160.7,71.6 165.6,71.6 165.9,70.5 160.9,70.5 		"/>
		<path class="st3" d="M119.9,73.2c0-1.9-1.3-2.7-2-2.7c-0.7,0-3.2,0-3.2,0h-1.2l-1.9,9.5h1.1l0.9-4.3h2c0,0,1.7,0.7,2.4,4.3h1.3
			c0,0-1-3.4-2.4-4.2C117,75.8,119.9,75.1,119.9,73.2z M116.5,74.8c-0.4,0-2.1,0-2.7,0l0.7-3.3h3.1c0,0,1.4-0.1,1.4,1.4
			S117,74.8,116.5,74.8z"/>
		<path class="st3" d="M95.1,70.5l-5,9.5h1.2l1.4-2.8h3.6l0.4,2.8h1.1l-1.5-9.5H95.1z M93.1,76.4l2.5-4.9l0.6,4.9H93.1z"/>
		<path class="st3" d="M175.3,74.7c-1.1-0.6-2-1.1-2.2-1.8c-0.2-0.6,0.4-1.7,2-1.7c1.7,0,2,1.8,2,1.8l1.1,0c-0.2-2.5-2.5-2.7-3-2.7
			s-3.2,0.2-3.2,2.6s4.5,2.8,4.5,4.6s-2.3,1.7-2.3,1.7c-2.2,0-2.2-2.3-2.2-2.3H171c0,1.6,1.1,3.2,3.1,3.2c2,0,3.4-1.2,3.4-2.5
			S176.3,75.4,175.3,74.7z"/>
	</g>
</g>
</svg>
