<?xml version="1.0" encoding="utf-8"?>
<!-- Generator: Adobe Illustrator 25.4.1, SVG Export Plug-In . SVG Version: 6.00 Build 0)  -->
<svg version="1.1" xmlns="http://www.w3.org/2000/svg" xmlns:xlink="http://www.w3.org/1999/xlink" x="0px" y="0px"
	 viewBox="0 0 81.18 80" style="enable-background:new 0 0 81.18 80;" xml:space="preserve">
<style type="text/css">
	.st0{fill-rule:evenodd;clip-rule:evenodd;fill:#01915C;}
</style>
<g id="Layer_2">
</g>
<g id="Layer_1">
	<path class="st0" d="M19.99,17.85c-1.89,6.36,1.86,13.63,4.65,19.07c1.48,2.67,2.73,5.46,3.84,8.33c1.78,4.45,2.24,9.52,0.56,14.06
		c-0.73,1.58-1.44,3.23-2.48,4.64c-1.56,1.89-4.14,2.45-6.42,2.87c-2.85-0.22-5.48-1.94-6.98-4.35c-1.12-2.21-1.17-4.81-0.8-7.21
		c0.49-2.53,2.65-4.23,4.75-5.49c0.63-0.46,1.78-0.87,1.51-1.89c-0.39-2.38-1.58-4.52-2.26-6.83c-0.44-1.09-0.63-2.33-1.44-3.23
		c-0.63-0.05-1.31-0.05-1.92,0.17c-5.16,2.14-9.71,6.24-11.46,11.63c-0.34,1.63-1.19,3.11-1.46,4.74c-0.1,2.31-0.05,4.61-0.05,6.92
		c-0.02,1.38,0.61,2.62,1,3.91c0.83,2.7,2.46,5.08,4.19,7.29c1.85,2.45,4.4,4.3,7.18,5.61c2.12,1.02,4.5,0.85,6.74,1.36
		c1.53,0.44,3.07-0.1,4.6-0.19c4.04-0.39,7.47-2.82,10.59-5.22c0.97-0.75,1.63-1.8,2.36-2.74c1.14-1.53,2.7-2.67,3.82-4.2
		c1.34-1.85,2.56-3.79,3.6-5.83c2.19-3.76,4.99-7.29,8.64-9.67c1.61-1.02,3.46-1.77,5.38-1.65c1.87,0.07,3.87-0.29,5.62,0.56
		c1.39,0.63,2.9,1.38,3.67,2.82c0.85,1.51,1.65,3.13,1.58,4.91c0.07,4.4-3.5,8.21-7.62,9.25c-2.29,0.02-4.38-1.09-6.25-2.31
		c-0.73-0.53-1.85-0.53-2.46,0.19c-1.27,1.36-2.41,2.84-3.94,3.89c-0.85,0.9-1.7,1.85-2.6,2.7c-0.02,0.73-0.05,1.46-0.07,2.19
		c1.97,1.04,3.72,2.43,5.69,3.45c2.04,1.09,4.26,1.72,6.47,2.28c2.77,0.32,5.6,0.15,8.23-0.75c2.68-0.53,4.89-2.19,6.93-3.86
		c2.43-1.75,4.21-4.23,5.67-6.8c1.19-1.92,1.41-4.2,2-6.32c0.27-2.06,0.12-4.18,0.12-6.27c-0.41-4.86-2.68-9.47-6.06-13.02
		c-1.36-1.72-3.21-2.94-5.16-3.91c-2.04-1.14-4.43-1.09-6.62-1.8c-2.6-0.75-5.33-0.66-8.03-0.7c-3.16-0.36-6.28-1-9.42-1.43
		c-3.04-0.85-6.16-1.89-8.64-3.91c-1.02-0.8-2.17-1.55-2.73-2.74c-0.8-1.6-1.78-3.13-2.29-4.86c-0.15-1.55-0.22-3.13,0.05-4.69
		c0.97-2.23,2.46-4.52,4.84-5.42c1.58-0.75,3.48-1.29,5.16-0.53c1.63,0.73,3.5,1.41,4.5,3.01c1.34,1.87,2.41,4.23,1.78,6.53
		c-0.24,0.83-0.32,2.04,0.71,2.36c2.53,0.87,5.13,1.53,7.74,2.09c1.02,0.24,2.48,1.04,3.19-0.19c0.34-1.04,0.55-2.14,0.63-3.24
		c0.08-1.1,0.02-2.21-0.17-3.29c-0.58-10-7.22-18.09-17.3-19.99C28.84-1.06,21.55,6.91,19.99,17.85L19.99,17.85z"/>
</g>
</svg>
