<?xml version="1.0" encoding="utf-8"?>
<!-- Generator: Adobe Illustrator 25.4.1, SVG Export Plug-In . SVG Version: 6.00 Build 0)  -->
<svg version="1.1" xmlns="http://www.w3.org/2000/svg" xmlns:xlink="http://www.w3.org/1999/xlink" x="0px" y="0px"
	 viewBox="0 0 332 80" style="enable-background:new 0 0 332 80;" xml:space="preserve">
<style type="text/css">
	.st0{fill-rule:evenodd;clip-rule:evenodd;fill:#01915C;}
	.st1{fill:#B1B1B1;}
	.st2{fill:#01915C;}
	.st3{fill:#5B5857;}
</style>
<g id="Layer_2">
</g>
<g id="Layer_1">
	<g>
		<path class="st0" d="M18.07,22.58c-1.71,5.75,1.69,12.33,4.2,17.24c1.34,2.42,2.46,4.94,3.48,7.53c1.61,4.02,2.02,8.61,0.51,12.72
			c-0.66,1.43-1.3,2.92-2.24,4.19c-1.41,1.71-3.74,2.22-5.81,2.59c-2.57-0.2-4.95-1.76-6.31-3.93c-1.01-2-1.06-4.35-0.73-6.52
			c0.44-2.28,2.4-3.82,4.29-4.96c0.57-0.42,1.61-0.79,1.36-1.71c-0.35-2.15-1.43-4.08-2.05-6.17c-0.4-0.99-0.57-2.11-1.3-2.92
			c-0.57-0.04-1.19-0.04-1.74,0.15C7.07,42.71,2.96,46.42,1.38,51.3c-0.31,1.47-1.08,2.81-1.32,4.28c-0.09,2.09-0.04,4.17-0.04,6.26
			c-0.02,1.25,0.55,2.37,0.9,3.54c0.75,2.44,2.22,4.59,3.78,6.59c1.67,2.22,3.98,3.89,6.49,5.07c1.91,0.92,4.07,0.77,6.09,1.23
			c1.39,0.4,2.77-0.09,4.16-0.18c3.65-0.35,6.75-2.55,9.57-4.72c0.88-0.68,1.47-1.62,2.13-2.48c1.03-1.38,2.44-2.42,3.45-3.8
			c1.21-1.67,2.31-3.43,3.26-5.27c1.98-3.4,4.51-6.59,7.81-8.74c1.45-0.92,3.12-1.6,4.86-1.49c1.69,0.07,3.5-0.26,5.08,0.51
			c1.25,0.57,2.62,1.25,3.32,2.55c0.77,1.36,1.5,2.83,1.43,4.44c0.07,3.98-3.17,7.42-6.89,8.37c-2.07,0.02-3.96-0.99-5.65-2.09
			c-0.66-0.48-1.67-0.48-2.22,0.18c-1.14,1.23-2.18,2.57-3.56,3.51c-0.77,0.81-1.54,1.67-2.35,2.44c-0.02,0.66-0.04,1.32-0.07,1.98
			c1.78,0.94,3.37,2.2,5.15,3.12c1.85,0.99,3.85,1.56,5.85,2.06c2.51,0.29,5.06,0.13,7.44-0.68c2.42-0.48,4.42-1.98,6.27-3.49
			c2.2-1.58,3.81-3.82,5.13-6.15c1.08-1.73,1.28-3.8,1.8-5.71c0.24-1.87,0.11-3.78,0.11-5.67c-0.37-4.39-2.42-8.56-5.48-11.77
			c-1.23-1.56-2.9-2.66-4.66-3.54c-1.85-1.03-4-0.99-5.98-1.62c-2.35-0.68-4.82-0.59-7.26-0.64c-2.86-0.33-5.68-0.9-8.51-1.3
			c-2.75-0.77-5.57-1.71-7.81-3.54c-0.92-0.72-1.96-1.41-2.46-2.48c-0.73-1.45-1.61-2.83-2.07-4.39c-0.13-1.41-0.2-2.83,0.04-4.24
			c0.88-2.02,2.22-4.08,4.38-4.9c1.43-0.68,3.15-1.16,4.66-0.48c1.47,0.66,3.17,1.27,4.07,2.72c1.21,1.69,2.18,3.82,1.61,5.91
			c-0.22,0.75-0.29,1.84,0.64,2.13c2.29,0.79,4.64,1.38,7,1.89c0.92,0.22,2.24,0.94,2.88-0.18c0.31-0.94,0.5-1.93,0.57-2.93
			c0.07-1,0.02-2-0.15-2.98c-0.53-9.04-6.53-16.36-15.64-18.07C26.08,5.48,19.49,12.69,18.07,22.58L18.07,22.58z"/>
		<path class="st1" d="M145.01,56.83c0.08-0.05-0.81-1.22-0.93-1.32c-0.52-0.43-1.2-0.62-1.87-0.63c-1.04-0.01-2.21,0.24-3.1,0.79
			c-0.43,0.26-0.77,0.61-1.02,1.05c-0.26,0.43-0.39,0.94-0.39,1.53c0,0.45,0.07,0.85,0.22,1.2c0.15,0.35,0.39,0.66,0.73,0.95
			c0.34,0.28,0.79,0.55,1.37,0.79c0.57,0.25,1.28,0.49,2.11,0.74c0.81,0.24,1.6,0.51,2.36,0.79c0.76,0.28,1.43,0.64,2.02,1.07
			c0.58,0.43,1.05,0.97,1.4,1.63c0.35,0.65,0.52,1.47,0.52,2.44c0,1-0.21,1.87-0.62,2.6c-0.42,0.73-0.96,1.34-1.65,1.82
			c-0.68,0.48-1.47,0.84-2.36,1.07c-1.94,0.51-4.22,0.56-6.1-0.26c-1.51-0.66-2.87-2.05-2.87-3.78c0,0,2.14-1.15,2.14-1.15
			c0.58,0.94,0.8,1.97,1.78,2.6c2,1.29,5.26,0.85,6.6-1.24c0.28-0.43,0.42-0.93,0.42-1.5c0-0.62-0.11-1.13-0.33-1.51
			c-0.22-0.39-0.55-0.72-1.01-1c-0.46-0.28-1.03-0.54-1.72-0.76c-0.69-0.23-1.5-0.49-2.43-0.79c-0.75-0.23-1.44-0.48-2.08-0.78
			c-0.63-0.29-1.18-0.65-1.65-1.07c-0.47-0.42-0.83-0.93-1.1-1.53c-0.27-0.59-0.4-1.3-0.4-2.13c0-0.96,0.2-1.8,0.59-2.52
			c0.4-0.72,0.93-1.31,1.6-1.79c0.67-0.48,1.43-0.84,2.29-1.09c2.99-0.86,5.97-0.3,7.75,2.45
			C147.26,55.49,145.02,56.82,145.01,56.83z"/>
		<path class="st1" d="M149,59.97h2.2v1.92h0.06c0.6-0.72,1.3-1.27,2.11-1.67c0.8-0.4,1.68-0.59,2.64-0.59
			c1.04,0,1.98,0.17,2.84,0.52c0.86,0.35,1.59,0.83,2.19,1.46c0.6,0.62,1.07,1.36,1.41,2.2c0.34,0.85,0.51,1.77,0.51,2.77
			c0,1-0.17,1.92-0.51,2.77c-0.34,0.85-0.81,1.58-1.4,2.2c-0.59,0.62-1.3,1.11-2.11,1.46c-0.81,0.35-1.68,0.52-2.6,0.52
			c-1.19,0-2.23-0.26-3.12-0.78c-0.9-0.52-1.55-1.15-1.96-1.91h-0.06v8.79H149V59.97z M151.2,66.58c0,0.7,0.11,1.34,0.32,1.94
			c0.22,0.59,0.53,1.11,0.95,1.55c0.41,0.44,0.91,0.79,1.48,1.05c0.57,0.25,1.22,0.38,1.94,0.38c0.72,0,1.36-0.13,1.94-0.38
			c0.57-0.25,1.07-0.6,1.48-1.05c0.41-0.44,0.73-0.96,0.95-1.55c0.22-0.59,0.32-1.24,0.32-1.94c0-0.7-0.11-1.34-0.32-1.94
			c-0.22-0.59-0.53-1.11-0.95-1.55c-0.41-0.44-0.91-0.79-1.48-1.05c-0.57-0.25-1.22-0.38-1.94-0.38c-0.72,0-1.36,0.13-1.94,0.38
			c-0.58,0.25-1.07,0.6-1.48,1.05c-0.41,0.44-0.73,0.96-0.95,1.55C151.31,65.24,151.2,65.88,151.2,66.58z"/>
		<path class="st1" d="M163.86,63.1c0-0.6-0.02-1.17-0.06-1.7c-0.04-0.53-0.06-1.01-0.06-1.44h2.09c0,0.36,0.01,0.72,0.03,1.07
			c0.02,0.36,0.03,0.73,0.03,1.1h0.06c0.15-0.32,0.36-0.63,0.64-0.93c0.27-0.3,0.6-0.57,0.97-0.81c0.38-0.24,0.8-0.42,1.27-0.57
			c0.47-0.14,0.98-0.21,1.53-0.21c0.15,0,0.3,0.01,0.45,0.03c0.15,0.02,0.3,0.06,0.45,0.11L171.12,62
			c-0.38-0.11-0.77-0.17-1.19-0.17c-1.36,0-2.34,0.44-2.95,1.31c-0.61,0.88-0.92,2.08-0.92,3.6v6.44h-2.2V63.1z"/>
		<path class="st1" d="M171.53,54.79c0-0.43,0.16-0.81,0.47-1.13c0.31-0.32,0.69-0.48,1.14-0.48s0.83,0.16,1.14,0.48
			c0.31,0.32,0.47,0.7,0.47,1.13c0,0.47-0.15,0.86-0.45,1.16c-0.3,0.3-0.69,0.45-1.16,0.45c-0.47,0-0.86-0.15-1.16-0.45
			C171.68,55.65,171.53,55.27,171.53,54.79z M172.04,59.97h2.2v13.23h-2.2V59.97z"/>
		<path class="st1" d="M176.7,63.1c0-0.6-0.02-1.17-0.06-1.7c-0.04-0.53-0.06-1.01-0.06-1.44h2.22c0,0.36,0.01,0.72,0.03,1.07
			c0.02,0.36,0.03,0.73,0.03,1.1h0.06c0.16-0.32,0.38-0.63,0.67-0.93c0.29-0.3,0.63-0.57,1.03-0.81c0.4-0.24,0.85-0.42,1.35-0.57
			c0.5-0.14,1.04-0.21,1.62-0.21c0.92,0,1.71,0.13,2.38,0.4c0.67,0.26,1.22,0.63,1.66,1.1c0.44,0.47,0.76,1.04,0.97,1.71
			c0.21,0.67,0.31,1.4,0.31,2.19v8.17h-2.34v-7.94c0-1.11-0.26-1.99-0.78-2.63c-0.52-0.64-1.33-0.96-2.43-0.96
			c-0.76,0-1.41,0.12-1.96,0.37c-0.55,0.24-1,0.59-1.35,1.05c-0.35,0.45-0.61,0.99-0.78,1.61c-0.17,0.62-0.25,1.31-0.25,2.06v6.44
			h-2.34V63.1z"/>
		<path class="st1" d="M203.75,72.6c0,2.41-0.62,4.24-1.85,5.5c-2.47,2.51-7.04,2.47-9.68,0.27c-0.59-0.49-1.08-1.13-1.43-1.81
			c-0.08-0.16-0.75-2.12-0.59-2.12c0,0,2.59,0,2.59,0c0.18,1.23,0.7,2.06,1.33,2.66c1.08,1.03,2.73,1,4.11,0.65
			c0.88-0.22,1.75-0.69,2.3-1.43c0.38-0.5,0.64-1.07,0.79-1.71c0.15-0.64,0.23-1.31,0.23-2.01v-1.7h-0.06
			c-0.53,0.85-1.22,1.47-2.06,1.87c-0.85,0.4-1.71,0.59-2.6,0.59c-1.04,0-1.99-0.17-2.85-0.51c-0.87-0.34-1.61-0.81-2.23-1.41
			c-0.62-0.6-1.1-1.32-1.44-2.15c-0.34-0.83-0.51-1.73-0.51-2.71c0-1.07,0.17-2.04,0.51-2.91c0.34-0.87,0.81-1.6,1.43-2.19
			c0.61-0.59,1.35-1.05,2.22-1.37c0.87-0.32,1.83-0.48,2.88-0.48c0.45,0,0.9,0.05,1.36,0.16c0.45,0.1,0.89,0.26,1.31,0.48
			c0.42,0.22,0.81,0.49,1.14,0.82c0.34,0.33,0.62,0.71,0.85,1.14h0.06v-2.26h2.2V72.6z M192.16,66.58c0,0.68,0.12,1.3,0.37,1.88
			c0.24,0.58,0.58,1.07,1,1.5c0.42,0.42,0.92,0.76,1.48,1c0.57,0.25,1.17,0.37,1.81,0.37c0.75,0,1.42-0.13,2.01-0.4
			c0.58-0.26,1.08-0.62,1.48-1.06c0.4-0.44,0.71-0.95,0.92-1.53c0.21-0.57,0.31-1.18,0.31-1.82c0-0.72-0.11-1.37-0.34-1.96
			c-0.23-0.59-0.55-1.11-0.96-1.54c-0.41-0.43-0.91-0.77-1.5-1c-0.58-0.24-1.22-0.35-1.92-0.35c-0.7,0-1.33,0.13-1.91,0.38
			c-0.58,0.25-1.06,0.6-1.47,1.05c-0.41,0.44-0.72,0.96-0.95,1.55C192.28,65.24,192.16,65.88,192.16,66.58z"/>
		<path class="st1" d="M219.27,52.34L219.27,52.34l9.78,20.85h-2.77l-2.54-6.13l-9.02,0.05l-2.55,6.08h-2.69L219.27,52.34z
			 M219.28,57.67h-0.06l-3.16,7.36l6.75-0.04L219.28,57.67z"/>
		<path class="st1" d="M228.26,54.79c0-0.43,0.16-0.81,0.47-1.13c0.31-0.32,0.69-0.48,1.14-0.48s0.83,0.16,1.14,0.48
			c0.31,0.32,0.47,0.7,0.47,1.13c0,0.47-0.15,0.86-0.45,1.16c-0.3,0.3-0.69,0.45-1.16,0.45c-0.47,0-0.86-0.15-1.16-0.45
			C228.41,55.65,228.26,55.27,228.26,54.79z M228.76,60.61h2.2v12.58h-2.2V60.61z"/>
		<path class="st1" d="M233.39,63.1c0-0.6-0.02-1.17-0.06-1.7c-0.04-0.53-0.06-1.01-0.06-1.44h2.09c0,0.36,0.01,0.72,0.03,1.07
			c0.02,0.36,0.03,0.73,0.03,1.1h0.06c0.15-0.32,0.36-0.63,0.64-0.93c0.27-0.3,0.6-0.57,0.97-0.81c0.38-0.24,0.8-0.42,1.27-0.57
			c0.47-0.14,0.98-0.21,1.53-0.21c0.15,0,0.3,0.01,0.45,0.03c0.15,0.02,1.17,0.25,1.32,0.31L240.65,62
			c-0.38-0.11-0.77-0.17-1.19-0.17c-1.36,0-2.34,0.44-2.95,1.31c-0.61,0.88-0.92,2.08-0.92,3.6v6.44h-2.2V63.1z"/>
		<path class="st1" d="M241.36,51.83h2.2v21.37h-2.2V51.83z"/>
		<path class="st1" d="M245.77,54.79c0-0.43,0.16-0.81,0.47-1.13c0.31-0.32,0.69-0.48,1.14-0.48s0.83,0.16,1.14,0.48
			c0.31,0.32,0.47,0.7,0.47,1.13c0,0.47-0.15,0.86-0.45,1.16c-0.3,0.3-0.69,0.45-1.16,0.45c-0.47,0-0.86-0.15-1.16-0.45
			C245.92,55.65,245.77,55.27,245.77,54.79z M246.28,60.61h2.2v12.58h-2.2V60.61z"/>
		<path class="st1" d="M250.84,63.1c0-0.6-0.02-1.17-0.06-1.7c-0.04-0.53-0.06-0.36-0.06-0.79h2.21c0,0.36,0.01,0.07,0.03,0.43
			c0.02,0.36,0.03,0.73,0.03,1.1h0.06c0.16-0.32,0.38-0.63,0.67-0.93c0.29-0.3,0.63-0.57,1.03-0.81c0.4-0.24,0.85-0.42,1.35-0.57
			c0.5-0.14,1.04-0.21,1.62-0.21c0.92,0,1.71,0.13,2.38,0.4c0.67,0.26,1.22,0.63,1.66,1.1c0.44,0.47,0.76,1.04,0.97,1.71
			c0.21,0.67,0.31,1.4,0.31,2.19v8.17h-2.33v-7.94c0-1.11-0.26-1.99-0.78-2.63c-0.52-0.64-1.33-0.96-2.42-0.96
			c-0.76,0-1.41,0.12-1.96,0.37c-0.55,0.24-1,0.59-1.35,1.05c-0.35,0.45-0.61,0.99-0.78,1.61c-0.17,0.62-0.25,1.31-0.25,2.06v6.44
			h-2.33V63.1z"/>
		<path class="st1" d="M276.68,70.79c-0.79,1.02-1.66,1.73-2.6,2.13c-0.94,0.4-2.03,0.61-3.28,0.61c-1.04,0-1.97-0.18-2.8-0.55
			c-0.83-0.37-1.53-0.86-2.11-1.48c-0.58-0.62-1.02-1.36-1.33-2.2c-0.31-0.85-0.47-1.75-0.47-2.71c0-1.02,0.17-1.95,0.51-2.81
			c0.34-0.86,0.81-1.59,1.41-2.2c0.6-0.61,1.32-1.09,2.15-1.43c0.83-0.34,1.73-0.51,2.71-0.51c0.92,0,1.77,0.16,2.54,0.47
			c0.77,0.31,1.44,0.76,1.99,1.36c0.56,0.59,0.98,1.32,1.29,2.18c0.3,0.86,0.45,1.83,0.45,2.93v0.71h-10.68
			c0.04,0.57,0.17,1.11,0.41,1.63c0.24,0.52,0.54,0.97,0.92,1.36c0.38,0.39,0.82,0.69,1.33,0.92c0.51,0.23,1.06,0.34,1.67,0.34
			c0.96,0,1.77-0.17,2.43-0.51c0.66-0.34,1.25-0.84,1.78-1.5L276.68,70.79z M274.78,65.39c-0.04-1.13-0.41-2.03-1.1-2.71
			c-0.7-0.68-1.66-1.02-2.88-1.02c-1.23,0-2.21,0.34-2.97,1.02c-0.75,0.68-1.21,1.58-1.36,2.71H274.78z"/>
		<path class="st1" d="M278.61,69.72c0.43,0.55,0.91,0.98,1.43,1.3c0.52,0.32,1.17,0.48,1.96,0.48c0.34,0,0.68-0.04,1.03-0.11
			c0.35-0.08,0.66-0.2,0.95-0.37c0.28-0.17,0.51-0.38,0.68-0.64s0.25-0.56,0.25-0.92s-0.08-0.65-0.24-0.88
			c-0.16-0.23-0.37-0.42-0.64-0.58c-0.26-0.16-0.57-0.29-0.9-0.38c-0.34-0.09-0.69-0.18-1.05-0.25c-0.62-0.13-1.22-0.28-1.78-0.45
			c-0.57-0.17-1.06-0.39-1.48-0.66c-0.42-0.27-0.76-0.63-1.02-1.06c-0.25-0.43-0.38-0.99-0.38-1.67c0-0.64,0.14-1.21,0.42-1.7
			c0.28-0.49,0.66-0.89,1.13-1.22c0.47-0.32,1-0.57,1.58-0.74c0.58-0.17,1.19-0.25,1.81-0.25c0.94,0,1.81,0.19,2.61,0.57
			c0.8,0.38,1.43,0.99,1.88,1.84l-1.84,1.22c-0.28-0.47-0.66-0.85-1.12-1.14c-0.46-0.29-1.02-0.44-1.68-0.44
			c-0.3,0-0.61,0.04-0.92,0.11c-0.31,0.08-0.59,0.19-0.83,0.34c-0.25,0.15-0.45,0.34-0.61,0.58c-0.16,0.24-0.24,0.5-0.24,0.81
			c0,0.28,0.09,0.52,0.27,0.72c0.18,0.2,0.42,0.37,0.73,0.52c0.31,0.15,0.67,0.28,1.07,0.4c0.4,0.11,0.82,0.21,1.26,0.28
			c0.58,0.11,1.14,0.26,1.67,0.44c0.53,0.18,0.99,0.42,1.38,0.72c0.4,0.3,0.71,0.68,0.93,1.13c0.23,0.45,0.34,1.01,0.34,1.67
			c0,0.75-0.15,1.39-0.45,1.92c-0.3,0.53-0.7,0.96-1.2,1.29c-0.5,0.33-1.06,0.57-1.7,0.72c-0.63,0.15-1.28,0.23-1.94,0.23
			c-1.13,0-2.11-0.17-2.93-0.52c-0.82-0.35-1.56-0.99-2.22-1.94L278.61,69.72z"/>
		<path class="st2" d="M131.75,30.98c-1.13-0.47-2.42,0.08-2.89,1.21c-2.67,6.49-9.07,10.68-16.32,10.68
			c-9.67,0-17.54-7.57-17.54-16.88S102.87,9.1,112.54,9.1c6.8,0,13.05,3.84,15.92,9.77c0.53,1.1,1.86,1.56,2.96,1.03
			c1.1-0.53,1.56-1.86,1.03-2.96c-3.6-7.46-11.42-12.28-19.9-12.28c-12.12,0-21.97,9.56-21.97,21.31s9.86,21.31,21.97,21.31
			c9.05,0,17.07-5.27,20.42-13.43C133.43,32.73,132.89,31.44,131.75,30.98z"/>
		<path class="st3" d="M221.58,33.23c-0.97-0.4-2.08,0.06-2.48,1.03c-2.23,5.42-7.57,8.92-13.63,8.92c-8.08,0-14.65-6.32-14.65-14.1
			c0-7.77,6.57-14.09,14.65-14.09c5.68,0,10.89,3.2,13.29,8.16c0.46,0.94,1.59,1.34,2.53,0.88c0.94-0.46,1.34-1.59,0.88-2.53
			c-3.02-6.26-9.58-10.3-16.71-10.3c-10.17,0-18.44,8.03-18.44,17.89c0,9.86,8.27,17.89,18.44,17.89c7.6,0,14.33-4.42,17.14-11.27
			C223.02,34.74,222.55,33.63,221.58,33.23z"/>
		<path class="st3" d="M250.28,10.55c-10.22,0-18.54,8.32-18.54,18.54c0,10.22,8.32,18.54,18.54,18.54
			c10.22,0,18.54-8.32,18.54-18.54C268.82,18.86,260.5,10.55,250.28,10.55z M250.28,43.83c-8.13,0-14.74-6.61-14.74-14.74
			s6.61-14.74,14.74-14.74c8.13,0,14.74,6.61,14.74,14.74S258.41,43.83,250.28,43.83z"/>
		<path class="st2" d="M170.63,24.48l-0.01,0.79c-0.06,4.23-0.04,8.47,0.04,12.7c0.02,1.01,0.84,1.84,1.86,1.86
			c1.05,0.02,1.91-0.81,1.94-1.86c0.09-4.23,0.1-8.47,0.04-12.7l-0.01-0.8c0-0.32-0.02-0.62-0.04-0.92c-0.05-0.6-0.13-1.2-0.25-1.79
			c-0.23-1.18-0.61-2.34-1.14-3.45c-0.54-1.11-1.23-2.17-2.1-3.08c-0.87-0.92-1.9-1.69-3.01-2.25c-1.11-0.57-2.28-0.95-3.45-1.18
			c-1.17-0.23-2.34-0.33-3.49-0.32c-2.29,0.02-4.61,0.41-6.75,1.3c-2.14,0.87-4.07,2.21-5.62,3.85c-0.38,0.41-0.74,0.83-1.08,1.26
			V1.9c0-1.05-0.85-1.9-1.9-1.9c-1.05,0-1.9,0.85-1.9,1.9v42.07c0,1.05,0.85,1.9,1.9,1.9c1.05,0,1.9-0.85,1.9-1.9V20.79
			c0.14-0.17,0.28-0.33,0.42-0.49c0.66-0.76,1.39-1.45,2.16-2.08c1.54-1.25,3.28-2.19,5.12-2.77c0.92-0.28,1.86-0.48,2.82-0.61
			c0.96-0.12,1.93-0.13,2.9-0.1c1.94,0.06,3.8,0.48,5.32,1.34c1.52,0.86,2.68,2.17,3.39,3.79c0.36,0.81,0.62,1.68,0.77,2.59
			c0.08,0.45,0.14,0.91,0.16,1.36C170.62,24.04,170.63,24.27,170.63,24.48z"/>
		<path class="st3" d="M331.99,29.12l0-3.45c0-0.59,0.01-1.12-0.01-1.78c-0.02-0.64-0.07-1.29-0.17-1.94
			c-0.2-1.29-0.56-2.6-1.17-3.84c-0.31-0.62-0.67-1.21-1.09-1.77c-0.43-0.56-0.91-1.07-1.44-1.54c-1.07-0.91-2.31-1.61-3.58-2.04
			c-1.27-0.45-2.56-0.68-3.83-0.79c-0.64-0.06-1.26-0.08-1.89-0.06l-0.94,0.06c-0.31,0.02-0.63,0.07-0.94,0.1
			c-1.25,0.16-2.5,0.44-3.71,0.87c-2.42,0.85-4.67,2.4-6.23,4.45c-0.37,0.47-0.69,0.97-0.99,1.49c-0.12-0.28-0.25-0.55-0.39-0.82
			c-0.64-1.21-1.52-2.32-2.6-3.19c-0.54-0.44-1.12-0.8-1.72-1.12c-0.61-0.3-1.22-0.57-1.85-0.76c-1.26-0.4-2.53-0.59-3.79-0.66
			c-2.47-0.14-5.07,0.2-7.39,1.21c-2.33,0.99-4.34,2.58-5.91,4.45c-0.37,0.44-0.71,0.9-1.04,1.37v-4.74c0-1.05-0.85-1.9-1.9-1.9
			c-1.05,0-1.9,0.85-1.9,1.9v29.34c0,1.05,0.85,1.9,1.9,1.9c1.05,0,1.9-0.85,1.9-1.9V22.38c1.99-2.92,4.73-5.31,7.89-6.39
			c0.99-0.33,2.02-0.57,3.06-0.67c1.04-0.1,2.1-0.08,3.16,0.02c2.09,0.2,4.08,0.84,5.46,2.08c0.7,0.61,1.25,1.36,1.67,2.21
			c0.41,0.85,0.67,1.8,0.81,2.79c0.07,0.5,0.11,1,0.12,1.51c0.01,0.49-0.01,1.1-0.01,1.67l-0.04,3.46
			c-0.06,4.62-0.07,9.24-0.05,13.86c0.01,1.04,0.85,1.88,1.89,1.89c1.05,0,1.9-0.84,1.91-1.89c0.02-4.62,0.01-9.24-0.05-13.86
			l-0.04-3.46c-0.01-0.58,0-1.13-0.03-1.79c-0.02-0.39-0.05-0.78-0.1-1.17c0.12-0.31,0.26-0.62,0.41-0.92
			c0.46-0.93,1.04-1.8,1.73-2.55c1.37-1.51,3.15-2.54,5.11-3.05c0.98-0.26,2-0.4,3.04-0.45c0.26-0.01,0.52-0.03,0.78-0.02l0.79,0.01
			c0.52,0.01,1.04,0.01,1.55,0.07c1.02,0.09,2,0.28,2.9,0.59c0.9,0.31,1.7,0.78,2.38,1.35c1.35,1.16,2.16,2.91,2.44,4.87
			c0.07,0.49,0.11,0.99,0.13,1.49c0.01,0.49,0,1.11,0.01,1.67l0,3.45l-0.01,13.79v0c0,1.05,0.85,1.9,1.9,1.9
			c1.05,0,1.9-0.85,1.9-1.9L331.99,29.12z"/>
		<circle class="st3" cx="172.56" cy="43.96" r="2.06"/>
	</g>
</g>
</svg>
