<?xml version="1.0" encoding="utf-8"?>
<!-- Generator: Adobe Illustrator 25.4.1, SVG Export Plug-In . SVG Version: 6.00 Build 0)  -->
<svg version="1.1" id="Layer_4" xmlns="http://www.w3.org/2000/svg" xmlns:xlink="http://www.w3.org/1999/xlink" x="0px" y="0px"
	 viewBox="0 0 117.87 80.27" style="enable-background:new 0 0 117.87 80.27;" xml:space="preserve">
<style type="text/css">
	.st0{fill-rule:evenodd;clip-rule:evenodd;fill:#B92D2F;}
	.st1{fill-rule:evenodd;clip-rule:evenodd;fill:#D57634;}
</style>
<path class="st0" d="M117.87,0h-13.7L57.9,35.99c-9.3,6.57-17.49,12.94-23.49,14.46C26.25,52.52,15.64,53.7,0,53.38
	c4.71,1.06,8.81,1.55,11.49,1.89c12.83,1.61,22.03,5.95,29.8,11.63c5.12,3.74,8.26,6.97,11.9,9.14C57.18,78.41,62.74,80,67.5,80
	c4.75,0,9.5-0.6,13.33-1.61c-4.15,0.18-9.55-0.14-13.47-0.97c-3.92-0.83-12.25-3.79-13.19-8.58c-0.9-4.59,10.6-8.11,15.13-8.77
	c11.76-1.71,21.78-1.25,25.42-0.97c-4.84-1.89-6.18-4.2-6.18-6.18c0-1.98,1.38-3.88,2.21-5.31L117.87,0L117.87,0z"/>
<path class="st1" d="M69.03,35.68l-0.61,0.24c1.23,6.01,2.48,10.48,4.99,15.26c0.94,1.79,2.4,4.85,3.87,8.01
	c0.41-0.03,0.82-0.06,1.23-0.09c-1.12-3.44-2.18-6.84-2.73-8.85C74.34,45.04,72.22,40.92,69.03,35.68L69.03,35.68z M39.75,64.23
	c-0.06,0.07-0.1,0.13-0.13,0.17C39.65,64.36,39.7,64.3,39.75,64.23z M62.74,35.15l-0.51-0.4c-4.54,4.13-7.74,7.48-10.58,12.08
	c-2.67,4.33-10.57,15.64-11.9,17.4c1.37-1.72,10.37-12.18,13.91-15.84C57.41,44.5,59.87,40.57,62.74,35.15L62.74,35.15z M70.42,34.8
	l-0.52,0.39c2.73,5.5,5.08,9.49,8.72,13.48c1.94,2.12,5.57,6.47,8.6,10.16c0.28,0,0.56,0,0.83,0.01c-2.67-4.08-5.89-9.09-7.39-11.67
	C77.95,42.49,74.85,39.05,70.42,34.8L70.42,34.8z M72.69,30.54l-0.1,0.64c5.8,2.01,10.27,3.22,15.67,3.51
	c2.12,0.11,5.73,0.45,9.38,0.82l0.59-1.03c-3.72-0.83-7.44-1.71-9.56-2.29C83.45,30.75,78.83,30.48,72.69,30.54L72.69,30.54z
	 M71.54,33.59l-0.41,0.51c4.04,4.62,7.34,7.88,11.88,10.8c1.56,1,4.03,2.72,6.63,4.56c0.22-0.4,0.46-0.78,0.68-1.14
	c-2.29-2.1-4.43-4.1-5.72-5.39C80.79,39.1,76.91,36.57,71.54,33.59L71.54,33.59z M88.51,26.41c-5.4-0.06-9.95,0.86-15.86,2.49
	l0.06,0.65c6.12,0.46,10.76,0.48,16.05-0.61c2.99-0.62,9.08-1.6,13.96-2.33l0.35-0.62C98.08,26.21,91.64,26.44,88.51,26.41
	L88.51,26.41z M72.31,32.14l-0.27,0.59c5.09,3.43,9.11,5.74,14.25,7.4c1.7,0.55,4.38,1.52,7.24,2.58l0.67-1.17
	c-2.74-1.44-5.3-2.82-6.87-3.73C82.66,35.1,78.26,33.65,72.31,32.14L72.31,32.14z M65.17,36.15c-1.9,5.84-3.03,10.33-3.22,15.73
	c-0.08,2.32-0.39,6.44-0.73,10.44c0.37-0.15,0.74-0.29,1.12-0.42c0.77-3.75,1.58-7.51,2.13-9.65c1.34-5.24,1.53-9.87,1.35-16
	L65.17,36.15L65.17,36.15z M100.84,3.5c0.07-0.05,0.13-0.1,0.17-0.13C100.98,3.4,100.92,3.45,100.84,3.5z M61.52,34.05l-0.39-0.52
	c-0.07,0.04-0.14,0.08-0.22,0.11l-3,2.34c-4.61,3.26-8.94,6.46-12.87,9.05c-4.64,4.12-11.78,10.15-13.19,11.25
	c1.77-1.31,13.14-9.12,17.49-11.75C53.97,41.73,57.35,38.56,61.52,34.05L61.52,34.05z M31.85,56.28c-0.07,0.06-0.13,0.1-0.17,0.13
	C31.72,56.39,31.78,56.34,31.85,56.28z M67.46,36.17l-0.65,0.08c-0.35,6.13-0.28,10.76,0.91,16.03c0.41,1.79,0.96,4.7,1.52,7.8
	c0.02,0,0.03,0,0.05-0.01c0.42-0.06,0.84-0.12,1.26-0.18c-0.17-3.13-0.29-6.08-0.31-7.91C70.2,46.58,69.2,42.06,67.46,36.17
	L67.46,36.17z M49.42,69.89c-0.04,0.08-0.07,0.15-0.08,0.2C49.36,70.04,49.38,69.98,49.42,69.89z M63.61,35.64
	c-3.33,5.15-5.57,9.21-7.13,14.39C55,54.9,50.25,67.85,49.42,69.89c0.89-2.02,6.91-14.43,9.39-18.87c2.64-4.72,4-9.15,5.4-15.12
	L63.61,35.64L63.61,35.64z M72.18,27.18l0.23,0.61c6.04-1.12,10.52-2.28,15.36-4.7c4.55-2.27,17.22-7.72,19.28-8.52
	c-2.07,0.74-15.23,4.89-20.16,6.14C81.64,22.04,77.48,24.09,72.18,27.18L72.18,27.18z M107.04,14.58c0.09-0.03,0.16-0.06,0.2-0.08
	C107.2,14.52,107.13,14.55,107.04,14.58z M84.89,17.28c3.69-3.5,14.22-12.41,15.95-13.77c-1.08,0.8-5.72,4.01-10.16,6.99
	L71.42,25.48c-0.08,0.09-0.16,0.17-0.24,0.25l0.4,0.52C77.02,23.42,80.97,21,84.89,17.28L84.89,17.28z"/>
</svg>
