<?xml version="1.0" encoding="utf-8"?>
<!-- Generator: Adobe Illustrator 25.4.1, SVG Export Plug-In . SVG Version: 6.00 Build 0)  -->
<svg version="1.1" id="Layer_1" xmlns="http://www.w3.org/2000/svg" xmlns:xlink="http://www.w3.org/1999/xlink" x="0px" y="0px"
	 viewBox="0 0 137.89 80" style="enable-background:new 0 0 137.89 80;" xml:space="preserve">
<style type="text/css">
	.st0{fill:#BF294B;}
	.st1{fill:#B7BDBA;}
	.st2{fill:#2B1F76;}
</style>
<path class="st0" d="M6.67,78.69c-2.24,0-4.84-0.94-5.29-3c-0.48-2.21,1.6-4.33,6.36-6.49c5.42-2.46,32.47-15.51,32.47-30.49
	c0-12.07-24.96-24.12-33.16-28.08C5.75,10,4.9,9.59,4.43,9.32C2.78,8.37,1.81,7.26,1.54,6.01C1.26,4.7,1.87,3.79,1.99,3.62
	c0.69-1.08,1.8-2.31,5.57-2.31c3.34,0,8.38,0.95,15.41,2.89c16.73,4.63,53.07,19.9,60.1,23.97c0.32,0.18,0.65,0.37,1,0.57
	c3.81,2.16,9.57,5.43,9.42,10.6c-0.15,5.17-6.28,10.67-18.73,16.82C44.21,71.24,10.62,78.49,7.09,78.68
	C6.95,78.69,6.81,78.69,6.67,78.69z"/>
<path class="st1" d="M7.56,2.62c2.76,0,7.32,0.7,15.06,2.85c17.15,4.75,53.1,19.96,59.79,23.84c6.69,3.88,21.8,10.85-8.24,25.68
	S10.61,77.17,7.02,77.37c-0.12,0.01-0.23,0.01-0.35,0.01c-3.53,0-7.67-2.77,1.61-6.99c9.59-4.36,33.24-16.96,33.24-31.69
	S8.48,10.12,5.08,8.18C1.69,6.24,3.05,4.4,3.05,4.4C3.53,3.66,4.21,2.62,7.56,2.62 M7.56,0C3.38,0,1.87,1.41,0.87,2.94
	C0.37,3.67-0.03,4.9,0.26,6.28c0.35,1.63,1.53,3.04,3.53,4.18c0.5,0.29,1.38,0.71,2.7,1.35C27.99,22.19,38.9,31.24,38.9,38.7
	c0,3.79-2.08,9.93-12.01,17.66C19.4,62.19,10.62,66.45,7.2,68c-1.99,0.9-8.03,3.65-7.1,7.96C0.7,78.75,3.83,80,6.67,80
	c0.17,0,0.33,0,0.49-0.01c3.57-0.19,37.45-7.49,68.17-22.65c13.11-6.47,19.3-12.18,19.46-17.95c0.17-5.96-6-9.46-10.08-11.78
	c-0.35-0.2-0.68-0.39-0.99-0.57c-7.26-4.21-43.21-19.34-60.4-24.1C16.18,0.96,11.02,0,7.56,0L7.56,0z"/>
<path class="st2" d="M82.39,64.42c-1.63,0-3.42-0.7-3.76-2.25c-0.52-2.42,3.04-4.04,4.22-4.57c3.3-1.5,19.78-9.45,19.78-18.4
	c0-4.74-6.8-10.43-20.22-16.91c-0.81-0.39-1.35-0.65-1.65-0.82c-1.15-0.66-1.84-1.46-2.03-2.38c-0.17-0.79,0.08-1.48,0.37-1.87
	c0.52-0.82,1.39-1.63,3.84-1.63c2.11,0,5.27,0.59,9.67,1.81c10.61,2.94,32.8,12.27,37.28,14.87l0.62,0.35c2.46,1.4,6.18,3.51,6.08,7
	c-0.1,3.45-3.87,6.89-11.86,10.83C105.76,59.8,84.88,64.3,82.68,64.42C82.58,64.42,82.49,64.42,82.39,64.42z"/>
<path class="st1" d="M82.94,16.89c1.7,0,4.53,0.43,9.32,1.76c10.61,2.94,32.84,12.34,36.97,14.74c4.13,2.4,13.48,6.71-5.09,15.88
	S84.83,62.99,82.61,63.11c-0.07,0-0.14,0.01-0.22,0.01c-2.18,0-4.74-1.71,1-4.32c5.93-2.7,20.55-10.49,20.55-19.59
	c0-9.11-20.43-17.68-22.53-18.87c-2.1-1.2-1.26-2.34-1.26-2.34C80.45,17.53,80.87,16.89,82.94,16.89 M82.94,14.26
	c-3.11,0-4.3,1.23-4.99,2.3c-0.27,0.42-0.79,1.44-0.5,2.79c0.28,1.3,1.17,2.39,2.66,3.25c0.34,0.19,0.89,0.46,1.73,0.87
	c16.1,7.78,19.48,12.85,19.48,15.73c0,6.32-10.24,13.22-19.01,17.21c-1.41,0.64-5.7,2.59-4.95,6.05c0.49,2.27,2.89,3.28,5.04,3.28
	c0.12,0,0.24,0,0.36-0.01c3.1-0.17,24.32-5.11,42.54-14.11c8.59-4.24,12.48-7.93,12.59-11.97c0.12-4.29-4.17-6.73-6.74-8.18
	c-0.21-0.12-0.41-0.24-0.61-0.35c-4.52-2.62-26.89-12.04-37.59-15C88.45,14.87,85.17,14.26,82.94,14.26L82.94,14.26z"/>
</svg>
