<?xml version="1.0" encoding="utf-8"?>
<!-- Generator: Adobe Illustrator 25.4.1, SVG Export Plug-In . SVG Version: 6.00 Build 0)  -->
<svg version="1.1" id="Layer_1" xmlns="http://www.w3.org/2000/svg" xmlns:xlink="http://www.w3.org/1999/xlink" x="0px" y="0px"
	 viewBox="0 0 505.49 80" style="enable-background:new 0 0 505.49 80;" xml:space="preserve">
<style type="text/css">
	.st0{fill:#BF294B;}
	.st1{fill:#B7BDBA;}
	.st2{fill:#2B1F76;}
</style>
<g>
	<path class="st0" d="M6.67,78.69c-2.24,0-4.84-0.94-5.29-3c-0.48-2.21,1.6-4.33,6.36-6.49c5.42-2.46,32.47-15.51,32.47-30.49
		c0-12.07-24.96-24.12-33.16-28.08C5.75,10,4.9,9.59,4.43,9.32C2.78,8.37,1.81,7.26,1.54,6.01C1.26,4.7,1.87,3.79,1.99,3.62
		c0.69-1.08,1.8-2.31,5.57-2.31c3.34,0,8.38,0.95,15.41,2.89c16.73,4.63,53.07,19.9,60.1,23.97c0.32,0.18,0.65,0.37,1,0.57
		c3.81,2.16,9.57,5.43,9.42,10.6c-0.15,5.17-6.28,10.67-18.73,16.82C44.21,71.24,10.62,78.49,7.09,78.68
		C6.95,78.69,6.81,78.69,6.67,78.69z"/>
	<path class="st1" d="M7.56,2.62c2.76,0,7.32,0.7,15.06,2.85c17.15,4.75,53.1,19.96,59.79,23.84c6.69,3.88,21.8,10.85-8.24,25.68
		S10.61,77.17,7.02,77.37c-0.12,0.01-0.23,0.01-0.35,0.01c-3.53,0-7.67-2.77,1.61-6.99c9.59-4.36,33.24-16.96,33.24-31.69
		S8.48,10.12,5.08,8.18C1.69,6.24,3.05,4.4,3.05,4.4C3.53,3.66,4.21,2.62,7.56,2.62 M7.56,0C3.38,0,1.87,1.41,0.87,2.94
		C0.37,3.67-0.03,4.9,0.26,6.28c0.35,1.63,1.53,3.04,3.53,4.18c0.5,0.29,1.38,0.71,2.7,1.35C27.99,22.19,38.9,31.24,38.9,38.7
		c0,3.79-2.08,9.93-12.01,17.66C19.4,62.19,10.62,66.45,7.2,68c-1.99,0.9-8.03,3.65-7.1,7.96C0.7,78.75,3.83,80,6.67,80
		c0.17,0,0.33,0,0.49-0.01c3.57-0.19,37.45-7.49,68.17-22.65c13.11-6.47,19.3-12.18,19.46-17.95c0.17-5.96-6-9.46-10.08-11.78
		c-0.35-0.2-0.68-0.39-0.99-0.57c-7.26-4.21-43.21-19.34-60.4-24.1C16.18,0.96,11.02,0,7.56,0L7.56,0z"/>
	<path class="st2" d="M82.39,64.42c-1.63,0-3.42-0.7-3.76-2.25c-0.52-2.42,3.04-4.04,4.22-4.57c3.3-1.5,19.78-9.45,19.78-18.4
		c0-4.74-6.8-10.43-20.22-16.91c-0.81-0.39-1.35-0.65-1.65-0.82c-1.15-0.66-1.84-1.46-2.03-2.38c-0.17-0.79,0.08-1.48,0.37-1.87
		c0.52-0.82,1.39-1.63,3.84-1.63c2.11,0,5.27,0.59,9.67,1.81c10.61,2.94,32.8,12.27,37.28,14.87l0.62,0.35
		c2.46,1.4,6.18,3.51,6.08,7c-0.1,3.45-3.87,6.89-11.86,10.83C105.76,59.8,84.88,64.3,82.68,64.42
		C82.58,64.42,82.49,64.42,82.39,64.42z"/>
	<path class="st1" d="M82.94,16.89c1.7,0,4.53,0.43,9.32,1.76c10.61,2.94,32.84,12.34,36.97,14.74c4.13,2.4,13.48,6.71-5.09,15.88
		S84.83,62.99,82.61,63.11c-0.07,0-0.14,0.01-0.22,0.01c-2.18,0-4.74-1.71,1-4.32c5.93-2.7,20.55-10.49,20.55-19.59
		c0-9.11-20.43-17.68-22.53-18.87c-2.1-1.2-1.26-2.34-1.26-2.34C80.45,17.53,80.87,16.89,82.94,16.89 M82.94,14.26
		c-3.11,0-4.3,1.23-4.99,2.3c-0.27,0.42-0.79,1.44-0.5,2.79c0.28,1.3,1.17,2.39,2.66,3.25c0.34,0.19,0.89,0.46,1.73,0.87
		c16.1,7.78,19.48,12.85,19.48,15.73c0,6.32-10.24,13.22-19.01,17.21c-1.41,0.64-5.7,2.59-4.95,6.05c0.49,2.27,2.89,3.28,5.04,3.28
		c0.12,0,0.24,0,0.36-0.01c3.1-0.17,24.32-5.11,42.54-14.11c8.59-4.24,12.48-7.93,12.59-11.97c0.12-4.29-4.17-6.73-6.74-8.18
		c-0.21-0.12-0.41-0.24-0.61-0.35c-4.52-2.62-26.89-12.04-37.59-15C88.45,14.87,85.17,14.26,82.94,14.26L82.94,14.26z"/>
	<path class="st0" d="M164.43,63.47V14.91h25.15c7.42,0,21.47,5.24,21.47,25.09c0,22.15-22.53,23.45-22.76,23.46l-0.03,0H164.43z
		 M185.53,54.64c0.58,0,3.61-0.09,6.51-1.94c3.74-2.39,5.64-6.66,5.64-12.7c0-15.69-12.13-15.88-12.25-15.88h-8.57v30.52
		L185.53,54.64z"/>
	<path class="st1" d="M189.58,16.22c4.07,0,20.16,2.62,20.16,23.78c0,21.16-21.51,22.15-21.51,22.15h-22.48V16.22
		C165.75,16.22,185.51,16.22,189.58,16.22 M175.53,55.95h9.88c0,0,0.04,0,0.11,0c1.29,0,13.46-0.41,13.46-15.95
		c0-16.41-12.5-17.19-13.57-17.19c-1.07,0-9.88,0-9.88,0V55.95 M189.58,13.6h-23.84h-2.62v2.62v45.93v2.62h2.62h22.48h0.06l0.06,0
		c0.24-0.01,6.04-0.31,11.88-3.45c5.54-2.98,12.14-9.1,12.14-21.32c0-6.81-1.67-16.15-9.63-21.94
		C196.91,13.82,190.76,13.6,189.58,13.6L189.58,13.6z M178.15,25.44h7.26c0.45,0,10.94,0.23,10.94,14.56
		c0,12.69-9.02,13.33-10.83,13.33l-0.04,0l-0.07,0h-7.26V25.44L178.15,25.44z"/>
	<path class="st0" d="M250.05,63.47l-4.84-11.43h-18.43l-5.04,11.43h-10.58l20.38-48.55h11.24l20.59,48.55H250.05z M229.99,43.04
		c0.45,0.01,1.01,0.01,1.71,0.01c2.93,0,6.93-0.06,9.26-0.1l-5.12-12.88C232.57,37.4,230.88,41.13,229.99,43.04z"/>
	<path class="st1" d="M241.91,16.22l19.48,45.93h-10.47l-4.85-11.43h-20.16l-5.04,11.43h-7.75l19.28-45.93H241.91 M231.69,44.36
		c4.42,0,11.18-0.13,11.18-0.13l-6.98-17.54c0,0-7.66,17.25-7.95,17.54C227.86,44.33,229.48,44.36,231.69,44.36 M243.65,13.6h-1.74
		h-9.5h-1.74l-0.67,1.61l-19.28,45.93l-1.53,3.64h3.95h7.75h1.71l0.69-1.56l4.35-9.87h16.71l4.17,9.83l0.68,1.6h1.74h10.47h3.96
		l-1.55-3.65L244.32,15.2L243.65,13.6L243.65,13.6z M232.04,41.73c0.83-1.82,2.02-4.46,3.73-8.29l3.27,8.22
		C236.89,41.7,234.21,41.73,232.04,41.73L232.04,41.73z"/>
	<path class="st0" d="M350.93,63.47l-4.84-11.43h-18.43l-5.04,11.43h-10.58l20.38-48.55h11.24l20.59,48.55H350.93z M330.86,43.04
		c0.45,0.01,1.01,0.01,1.71,0.01c2.93,0,6.93-0.06,9.26-0.1l-5.12-12.88C333.44,37.4,331.76,41.13,330.86,43.04z"/>
	<path class="st1" d="M342.78,16.22l19.48,45.93h-10.47l-4.85-11.43h-20.16l-5.04,11.43H314l19.28-45.93H342.78 M332.57,44.36
		c4.42,0,11.18-0.13,11.18-0.13l-6.98-17.54c0,0-7.66,17.25-7.95,17.54C328.73,44.33,330.36,44.36,332.57,44.36 M344.52,13.6h-1.74
		h-9.5h-1.74l-0.67,1.61l-19.28,45.93l-1.53,3.64H314h7.75h1.71l0.69-1.56l4.35-9.87h16.71l4.17,9.83l0.68,1.6h1.74h10.47h3.96
		l-1.55-3.65L345.2,15.2L344.52,13.6L344.52,13.6z M332.91,41.73c0.83-1.82,2.02-4.46,3.73-8.29l3.27,8.22
		C337.77,41.7,335.09,41.73,332.91,41.73L332.91,41.73z"/>
	<path class="st2" d="M421.37,63.47l-4.84-11.43H398.1l-5.04,11.43h-10.58l20.38-48.55h11.24l20.59,48.55H421.37z M401.31,43.04
		c0.45,0.01,1.01,0.01,1.71,0.01c2.93,0,6.93-0.06,9.26-0.1l-5.12-12.88C403.89,37.4,402.2,41.13,401.31,43.04z"/>
	<path class="st1" d="M413.23,16.22l19.48,45.93h-10.47l-4.85-11.43h-20.16l-5.04,11.43h-7.75l19.28-45.93H413.23 M403.01,44.36
		c4.42,0,11.18-0.13,11.18-0.13l-6.98-17.54c0,0-7.66,17.25-7.95,17.54C399.18,44.33,400.8,44.36,403.01,44.36 M414.96,13.6h-1.74
		h-9.5h-1.74l-0.67,1.61l-19.28,45.93l-1.53,3.64h3.95h7.75h1.71l0.69-1.56l4.35-9.87h16.71l4.17,9.83l0.68,1.6h1.74h10.47h3.96
		l-1.55-3.65L415.64,15.2L414.96,13.6L414.96,13.6z M403.36,41.73c0.83-1.82,2.02-4.46,3.73-8.29l3.27,8.22
		C408.21,41.7,405.53,41.73,403.36,41.73L403.36,41.73z"/>
	<rect x="438.47" y="14.91" class="st2" width="11.73" height="48.55"/>
	<path class="st1" d="M448.89,16.22v45.93h-9.11V16.22H448.89 M451.51,13.6h-2.62h-9.11h-2.62v2.62v45.93v2.62h2.62h9.11h2.62v-2.62
		V16.22V13.6L451.51,13.6z"/>
	<polygon class="st0" points="297.93,63.47 278.01,36.5 278.01,63.47 266.28,63.47 266.28,14.91 277.36,14.91 297.28,42.24 
		297.28,14.91 309.02,14.91 309.02,63.47 	"/>
	<path class="st1" d="M307.7,16.22v42.54v3.39h-9.11l-21.9-29.63v29.63h-9.11V20.2v-3.97h9.11l21.9,30.04V16.22H307.7 M310.33,13.6
		h-2.62h-9.11h-2.62v2.62v21.99l-17.16-23.54l-0.79-1.08h-1.33h-9.11h-2.62v2.62v3.97v41.96v2.62h2.62h9.11h2.62v-2.62V40.48
		l17.17,23.23l0.79,1.06h1.32h9.11h2.62v-2.62v-3.39V16.22V13.6L310.33,13.6z"/>
	<path class="st2" d="M488.11,63.47l-12.62-18.9c-1.3,0.15-2.39,0.23-3.2,0.26v18.64h-11.73V14.91h19.82c5.91,0,15.85,2.95,15.85,14
		c0,5.38-3.06,9.66-8.88,12.46l15.84,22.08H488.11z M472.29,36.29c3.42-0.17,12.3-1.13,12.3-6.4c0-5.71-5.81-6.16-7.59-6.16
		c-0.14,0-0.22,0-0.24,0l-4.47,0V36.29z"/>
	<path class="st1" d="M480.42,16.22c0.8,0,14.5,0.18,14.5,12.69c0,6.21-4.44,9.83-9.58,11.92l0.01,0l15.29,21.32h-11.82
		l-12.68-18.99l0,0c-2.19,0.29-4.04,0.39-5.15,0.39v18.6h-9.11V16.22h9.11h9.4C480.38,16.22,480.39,16.22,480.42,16.22
		 M471.07,37.64c1.26,0,14.83-0.18,14.83-7.75c0-7.08-7.31-7.47-8.9-7.47c-0.19,0-0.3,0.01-0.3,0.01h-5.72v15.21
		C470.98,37.64,471.01,37.64,471.07,37.64 M480.42,13.6h-0.02l-0.05,0l-9.36,0h-9.11h-2.62v2.62v45.93v2.62h2.62h9.11h2.62v-2.62
		V46.06c0.38-0.03,0.79-0.06,1.24-0.11l11.79,17.66l0.78,1.17h1.4h11.82h5.11l-2.98-4.15L489.3,41.85
		c6.73-3.76,8.24-8.99,8.24-12.93c0-6.25-2.93-10.89-8.48-13.42C485.11,13.69,481.17,13.6,480.42,13.6L480.42,13.6z M473.6,25.05
		h3.09h0.07l0.07,0c0.01,0,0.07,0,0.17,0c0,0,0,0,0,0c0.52,0,2.34,0.06,3.9,0.82c1.64,0.8,2.38,2.04,2.38,4.03
		c0,3.38-5.68,4.64-9.68,5V25.05L473.6,25.05z"/>
</g>
</svg>
