<?xml version="1.0" encoding="utf-8"?>
<!-- Generator: Adobe Illustrator 25.4.1, SVG Export Plug-In . SVG Version: 6.00 Build 0)  -->
<svg version="1.1" id="Layer_2_00000159471598350358213750000014612203606435250611_"
	 xmlns="http://www.w3.org/2000/svg" xmlns:xlink="http://www.w3.org/1999/xlink" x="0px" y="0px" viewBox="0 0 58.4 80"
	 style="enable-background:new 0 0 58.4 80;" xml:space="preserve">
<style type="text/css">
	.st0{fill:#1F4FA2;}
</style>
<g>
	<path id="path46" class="st0" d="M7.9,15.7c0,0.1,0,0.2-0.1,0.2c-0.5,0.2-0.9-0.5-1.3,0c-0.2,0-0.4-0.1-0.5-0.3
		c-0.1-0.5,0.4-0.2,0.6-0.3c0.4,0,0.9-0.2,1.1,0.3C7.8,15.6,7.8,15.8,7.9,15.7"/>
	<path id="path50" class="st0" d="M10.6,16c0.1,0.2-0.1,0.3-0.2,0.4c-0.3-0.1-0.7,0.3-0.9-0.2c-0.2,0.2-0.3-0.1-0.4-0.1
		c-0.3,0-0.5,0-0.7-0.1c-0.1,0,0-0.2,0-0.3c0.4,0,0.8,0.1,1.2,0.1c0.1-0.1,0.1-0.3,0.3-0.2C10.1,15.9,10.3,16,10.6,16"/>
	<path id="path42" class="st0" d="M1.2,0.4C1.5,0.6,1.9,1,2.3,1.2c0.5,0.3,0.8,0.7,1.3,1.1C4.7,3.1,6,4,7.2,5c1.2,0.8,2,1.8,3.3,2.6
		c2.7,1.9,4.9,4.1,7.1,6.5c0.8,0.9,1.9,1.6,2.7,2.6c0.3,0.1,0.3,0.5,0.6,0.7c0.7,0.9,1.3,1.9,1.6,3c0.1,0.3,0.2,0.6,0.3,0.9
		c0.2,0.8,0.6,1.6,0.8,2.4c0.8,1.8,1.3,3.8,2.6,5.4c0.9,1.7,2.4,3.1,3.7,4.4c0.1,0.2,0.1,0.3-0.1,0.4c-0.1,0.2-0.5,0-0.5,0.3
		c-0.2,0.1-0.4,0.7-0.7,0.5c-0.1,0.4-0.7,0.2-0.7,0.7c-0.2,0.1-0.4,0.3-0.4,0.5c0.1,0.2,0.3,0.1,0.4,0.2c0.1-0.2,0.2-0.6,0.5-0.6
		c0.1,0.2,0.3,0.1,0.4,0.1c0-0.3,0.4-0.3,0.6-0.3c0.3,0.1,0.2-0.6,0.6-0.3c0.1,0.2,0.3,0.4,0.5,0.4c0.2-0.1,0.1-0.3,0-0.3
		c-0.2-0.2-0.4-0.3-0.4-0.5c0.2,0,0.4,0,0.4-0.3c-0.1-0.2,0.2-0.1,0.3,0c0.1,0.2,0.1,0.8,0.4,0.5c0-0.1,0.1-0.2,0.3-0.2
		c0.3,0.3,0.5-0.2,0.8-0.3c0-0.2,0.4-0.1,0.3-0.4c-0.3-0.1-0.9,0.5-1-0.2c0.2-0.1,0.4,0.1,0.5-0.2c-0.1-0.3,0.1-0.5,0.4-0.3
		c0.2,0.1,0.1-0.2,0.1-0.3c-0.1-0.1-0.1-0.2-0.1-0.3c0.1,0,0.2-0.1,0.3-0.1c0,0,0,0.1,0.1,0.1c0.1,0,0.2,0,0.2-0.1
		c-0.2,0-0.1-0.2,0-0.2c0,0,0-0.1,0-0.2c0.3-0.2,0.3,0.5,0.5,0.2c0.4,0,0.3,0.6,0.6,0.5c0.1,0.2,0.1-0.1,0.2,0.1
		c0.1-0.1,0-0.2,0-0.3c-0.2-0.1-0.2-0.4-0.4-0.4c-0.1-0.2,0.4,0.2,0.2-0.2c-0.2-0.2-0.4,0.2-0.6,0c0-0.1-0.2-0.1-0.2-0.2
		c0.4,0.2,0.3-0.6,0.6-0.1c0.2,0.1,0.2,0.3,0.5,0.3c0.1,0,0.2-0.1,0.2-0.2c-0.1-0.1-0.1-0.2-0.1-0.2c-0.2-0.1-0.4,0-0.6-0.1
		c-0.1-0.3,0.2-0.5,0.5-0.5c0.6-0.5,1.4-0.6,2.2-0.6c0.3,0.1,0.6,0.3,1,0.2c1.1-0.5,1.9-1.2,3-1.7c0.2,0,0.5,0,0.6,0.2
		c-0.1,0.2-0.3,0.4-0.4,0.6c-0.6,0.5-1.3,0.9-1.9,1.2c-0.2,0.4-0.6,0.8-0.9,1.2c-0.5,0.9-0.9,1.8-1.3,2.6c-0.1,0.9-0.7,1.6-0.8,2.6
		c-0.1,0.1,0,0.3-0.2,0.3c0,0.2,0,0.5-0.1,0.8c-0.4,2.7,1.6,4.5,2.7,6.5c1.6,1.9,3.5,3.9,5.6,5.4c-0.1,0,0.6,0.6,1.2,0.8
		c1.9,1.8,3.6,3.5,5,5.6c0.3,0.6,0.4,1.3,0.9,1.8c0,0,0,0.1,0,0.1c1.1,1.4,1.6,3,2.4,4.5c0.2,1.1,0.9,2.1,1.2,3.2
		c0.3,0.5,0.4,1,0.7,1.4c0.3,0.6,0.7,1.2,0.8,1.8c0.5,0.5,0.4,1.4,0.8,1.9c0.3,0.9,0.4,1.9,0.9,2.7c0.2,0.6,0,1.3,0.3,1.8
		c0,0.1-0.1,0.2-0.1,0.2c0.1,0.1,0.1,0.5,0.2,0.6c-0.1,0.9,0.2,2.2,0.1,3.1c0.1,0.3-0.3,0.2-0.4,0.2c-0.1-0.6-0.5-1.1-0.6-1.7
		c-0.1-0.2-0.4-0.2-0.3-0.5c0.1,0,0.2-0.1,0.2-0.2c0-0.3-0.3-0.5-0.4-0.8c-0.4-0.1,0-0.8-0.4-0.9c-0.5-0.4-0.5-0.9-0.8-1.4
		c-0.5-0.2,0.1-0.7-0.3-1c0.2,0.4-0.3,0.8,0.1,1.1c-0.1,0.6,0.4,1,0.1,1.6c0.1,0.2,0.4,0.5,0.2,0.7c0.1,0.1,0.2,0.3,0.1,0.4
		c-0.1,0.3-0.4,0.2-0.7,0.3c0.1-0.1-0.2-0.1-0.1-0.3c0-0.2-0.3-0.2-0.3-0.4c-0.2-0.4,0.1-1.1-0.4-1.2c-0.1-0.2-0.1-0.4-0.1-0.6
		c-0.3,0-0.4-0.2-0.6-0.4c0-0.2-0.2-0.1-0.1-0.3c0.3,0,0.4-0.3,0.7-0.4c-0.2-0.7-0.5-1.3-0.6-2c-0.2-0.3-0.1-0.6-0.3-0.9
		c-0.5,0.6,0.1,1.4-0.1,2c0,0.6,0.3,1.2-0.2,1.7c0,0-0.1,0.1-0.1,0.1c-0.1,0.6,0.6,1.5-0.3,1.6c-0.2-0.4-0.3-0.8-0.4-1.2
		c-0.1-0.4-0.3-0.9-0.6-1.2c-0.2,0.3-0.5-0.1-0.8-0.2c0-0.4-0.5-0.6-0.6-0.9c-0.3-0.4-0.7-0.6-0.5-1c0.1-0.1,0.5,0,0.4-0.3
		c-0.1-0.3,0.6-0.1,0.3-0.5c-0.2-0.1-0.1-0.3-0.2-0.3c0.1-0.7-0.2-1.3,0-1.9c-0.2-0.1-0.2-0.3-0.2-0.5c0.3,0,0.1-0.3,0.2-0.5
		c-0.1,0-0.3-0.1-0.2-0.3c-0.1-0.2,0.2-0.2,0-0.4c-0.2-0.2,0.2-0.5,0-0.7c-0.1-0.3,0.4-0.5,0.1-0.8c-0.3,0.3-0.5,0.7-0.3,1.1
		c0.3,0-0.1,0.4,0,0.6c-0.1,0.1,0,0.3-0.2,0.3c-0.1,0.4,0.1,0.9-0.1,1.2c-0.3,0.1,0.4-0.2,0,0.7c-0.2,0.4-0.1,1,0,1.4
		c-0.2,0,0.3-0.2-0.1,0.4c-0.1,0-0.3,0.3-0.3,0.4c-0.1,0.2-0.3,0.1-0.4,0.1c0-0.5-0.5-0.8-0.5-1.2c0.2-0.2,0.9-0.1,0.6-0.6
		c-0.4-0.2,0.1-0.6-0.3-0.8c0-0.1-0.1-0.3,0.1-0.2c0.1,0,0.1-0.1,0-0.1c0,0-0.1,0-0.1,0c0-0.3-0.1-0.9,0.1-1.2
		c-0.2-0.1-0.3-0.4-0.3-0.6c0.4-0.2-0.3-0.8,0.3-0.8c-0.2-0.4,0.4-0.5,0.2-1c-0.2-0.1-0.3-0.3-0.3-0.6c0.4,0,0.2-0.4,0.3-0.7
		c-0.3-0.1,0-0.5-0.3-0.6c-0.5,0.5,0.2,1.3-0.4,1.7c0,0.3-0.3,0.5-0.2,0.9c-0.1,0.2-0.3,0.4-0.2,0.6c0,0.1,0.1,0.2,0,0.3
		c-0.4,0.2-0.1,0.7-0.4,0.9c-0.1,0.3-0.2,1-0.1,1c0.2,0.4-0.2,0.6-0.4,0.8c-0.1,0-0.2,0.2-0.3,0.1c-0.1-0.1-0.1-0.2-0.1-0.3
		c0.3-0.1,0.4-0.6,0.3-0.6c-0.1-0.3,0.1-0.6,0.3-0.7c0.2-0.7-0.5-1.3,0-1.9c0.2-0.6-0.5-1.3,0.2-1.7c0.3-0.2,0.2-0.6,0.4-0.8
		c-0.4-0.1,0.1-0.9-0.4-0.6c0.1,0.3-0.1,0.5-0.3,0.7c0,0.3,0,0.6-0.1,0.8c-0.1,0-0.2,0-0.2,0.2c0,0.7-0.7,0.9-0.5,1.7
		c0.1,0.2-0.2,0.1-0.2,0.3c-0.3,0.5,0.5,0.7,0,1.1c0,0.2-0.1,0.3-0.1,0.5c-0.3,0.1-0.4-0.4-0.5-0.6c0-0.2-0.1-0.3,0.1-0.4
		c0.2-0.3,0-0.7,0.2-1c-0.2-0.2-0.3-0.4-0.2-0.6c0.1-0.1,0.3-0.2,0.1-0.4c-0.1-0.1-0.1-0.2-0.1-0.3c0.1,0,0.1,0,0.1-0.1
		c0-0.4,0.1-0.5,0.4-0.8c0.5,0,0-0.7,0.5-0.6c0.3-0.1,0-0.4,0.1-0.5c-0.3-0.2,0.4-0.8-0.2-0.9c-0.3,0.2-0.2,0.6-0.2,1
		c0,0.2-0.3,0-0.3,0.2c0.1,0.4-0.2,0.6-0.4,0.8c-0.6,0,0.1,0.7-0.4,0.9c-0.1,0.1-0.2,0.2-0.3,0.3c-0.1,0.3,0.3,1-0.2,0.9
		c-0.2-0.2-0.2-0.6-0.4-0.8c0-0.2,0-0.3,0.1-0.3C44.1,65.4,44,65,44.4,65c0.1-0.2-0.2-0.2-0.1-0.4c-0.1-0.1-0.3,0.1-0.3,0.2
		c0,0.2,0,0.5-0.2,0.6c-0.2,0.1-0.2-0.2-0.3-0.2c-0.2-0.4,0.2-0.9-0.3-1.1c0.1-0.2,0.4-0.4,0.3-0.7c-0.1-0.1-0.2,0-0.2,0
		c-0.2,0.1-0.2,0.6-0.5,0.6c-0.3-0.1-0.4-0.3-0.5-0.6c0.1-0.2,0.4-0.1,0.4-0.4c0.2-0.1,0.5-0.1,0.6-0.4c-0.1-0.8,1-0.8,0.8-1.6
		c0.1-0.1,0.3-0.1,0.2-0.3c-0.2,0.1-0.8-0.1-0.8,0.4c-0.2,0.2-0.4,0.5-0.5,0.9c-0.4,0.2-0.5,0.4-0.8,0.7c0,0.2,0,0.3-0.1,0.4
		c-0.2,0-0.4-0.1-0.6,0c-0.2-0.3-0.7-0.7-0.1-0.9c0.7,0.1,0.2-0.8,0.8-0.9c0.2,0,0.2-0.2,0.4-0.3c0-0.1-0.1-0.2-0.2-0.2
		c-0.4-0.1-0.3,0.4-0.7,0.2c-0.1,0.5-0.5,0.7-0.6,1.1c-0.3,0.3-0.6-0.1-0.9-0.2c-0.2,0-0.4-0.1-0.5-0.2c0-0.1,0-0.2,0.1-0.2
		c0.1,0,0.2,0,0.3,0c0-0.3-0.5-0.1-0.6-0.2c-0.1,0-0.2,0.2-0.4,0.1c-0.2-0.2,0.5-0.5,0-0.7c0.3-0.2,0-0.4,0.2-0.5
		c-0.1-0.1-0.2,0-0.3,0c-0.2,0.2-0.3,0.6-0.6,0.5c0.1-0.2-0.2-0.2-0.3-0.3c-0.4,0.2-0.5-0.4-0.9-0.2c0-0.4-1.1-0.5-0.5-0.8
		c0.2-0.1,0.1-0.5,0.3-0.7c-0.2-0.1-0.2,0.2-0.3,0.2c-0.3,0.2-0.6-0.1-0.8-0.3c-0.2-0.1-0.1-0.4-0.2-0.5c-0.2,0.1-0.5,0.1-0.7,0
		c-0.1-0.2-0.4-0.3-0.2-0.5c0.2-0.3,0.5-0.3,0.8-0.4c-0.3-0.7-0.6,0.3-1-0.1C34.4,56.9,34.2,57,34,57c-0.3-0.2-0.5-0.4-0.4-0.7
		c0.1-0.1,0.3,0,0.2-0.1c-0.2-0.1-0.5,0.1-0.7-0.1c-0.2-0.2-0.4-0.4-0.3-0.6c-0.4-0.3-0.9-0.4-1-0.9c-0.1-0.1-0.2,0-0.3-0.1
		c-0.4-0.2,0.3-1.2-0.6-0.9c-0.1-0.1-0.3-0.2-0.3-0.3c0.1-0.1-0.1-0.2-0.1-0.2c-0.3-0.1-0.4-0.3-0.5-0.5c-0.2-0.6-1-0.8-1-1.4
		c-0.4,0.1-0.3-0.5-0.7-0.4c-0.3-0.3-0.2-0.3-0.4-0.5c-0.1-0.2,0-0.6-0.3-0.6c-0.3-0.5-0.9-0.6-1.2-1.2c-0.5,0.3-0.9,0.7-0.8,1.3
		c-0.2,0.2,0,1.2,0.1,1.2c-0.2,0.5,0,1-0.3,1.5c0,0.3,0,0.6-0.1,0.9c0.3,0.7-0.5,1.3-0.1,2c-0.1,0.2,0,0.6-0.3,0.8
		c-0.4-0.3-0.8,0.1-1.2-0.2c-0.1,0.2-0.3,0.3-0.5,0.3c-0.3-0.3-0.3-0.9-1-0.8c-0.1,0.2-0.3,0.4-0.4,0.1c-0.2,0.2-0.4-0.1-0.6,0
		c-0.2-0.2-0.2-0.7-0.6-0.3c-0.1-0.1-0.2,0.2-0.3,0.2c-0.2-0.6-1.1,0-1-0.9c-0.2-0.2-0.1-0.4-0.1-0.6c0.1-0.1,0.3-0.1,0.3-0.3
		c-0.2-0.2-0.3,0.1-0.5,0.1c0,0.2-0.2,0.4-0.4,0.3c-0.2,0-0.4-0.2-0.6-0.3c0-0.3-0.2-0.2-0.3-0.1c0,0.2-0.3,0.2-0.4,0.1
		c-0.1,0-0.2-0.1-0.2-0.2c0.2-0.3-0.3-0.4-0.2-0.7c-0.5-0.2-1.1-0.2-1.5-0.5c-0.3,0.3-0.3-0.2-0.5-0.3c0-0.3,0.4-0.1,0.3-0.4
		c-0.2-0.2-0.3-0.4-0.6-0.5c-0.3,0.1-0.5,0-0.8-0.2c0-0.3-0.1-0.4,0.1-0.7c-0.4-0.2,0.3-0.7-0.2-0.8c0-0.2-0.1-0.5-0.4-0.3
		c-0.2,0-0.4,0-0.4-0.3c-0.3-0.4,0.3-0.7,0.1-1.1c0.2-0.3,0.7-0.2,0.7-0.4c0.1-0.3,0.4-0.2,0.5-0.4c-0.2-0.1-0.4-0.2-0.5-0.1
		c-0.4,0.2-0.7,0.5-1,0.2c-0.2-0.3-0.5-0.5-0.5-0.8c0.2-0.1,0.4-0.3,0.5-0.5c-0.1,0-0.1-0.1-0.2-0.1c0,0.1-0.1,0.3-0.3,0.2
		c0.1-0.2-0.2-0.2-0.3-0.4c0.2-0.3,0.2-0.7,0.5-0.9c-0.1-0.2-0.4-0.4-0.2-0.6c0.1-0.2,0.1-0.5,0.3-0.7c-0.1-0.3,0-0.6,0.4-0.6
		c0.5-0.3,1.1,0,1.6-0.4c0.4-0.2,0.5,0.5,0.9,0.1c0.3,0.3,0.6-0.2,0.7,0.3c0.2-0.2,0.5-0.4,0.9-0.3c0.1,0.2,0.1,0.5,0.4,0.5
		c0-0.1,0.1-0.2,0.3-0.2c0.1,0.1,0.1,0.3,0.3,0.3c0-0.1-0.1-0.6,0.2-0.3c0.1,0.7,1-0.5,0.6,0.5c-0.1,0-0.1,0.1-0.1,0.2
		c0,0.1,0.1,0,0.2,0.1c0.1-0.8,1.1-0.2,1.1-1.1c0.5-0.1,0.5-0.6,0.8-0.8c0-0.3-0.4-0.5-0.3-0.9c-0.8-0.4-1.2-1.1-1.4-2
		c-0.6-0.4-1.4-0.6-1.3-1.4c0-0.4-0.4-0.7-0.6-0.9c-0.2-0.3-0.5-0.5-0.7-0.8c0.2-0.1-0.1-0.2,0-0.3c0-0.3,0-0.7-0.4-0.8
		c-0.4,0,0-0.7-0.5-0.7c-0.2-0.1-0.3-0.3-0.2-0.6c0.2-0.1,0.1-0.3,0-0.4c-0.2-0.1-0.5,0-0.5-0.2c0.1-0.4,0.1-0.7-0.2-1
		c-0.2,0-0.4,0.1-0.4-0.1c-0.3-0.4,0.8-0.9-0.2-0.8c-0.1-0.2-0.3-0.1-0.3-0.2c-0.4-0.5,0.5-0.7,0.2-1.1c-0.2,0.1-0.4,0.3-0.6,0.1
		c-0.2-0.2-0.1-0.6-0.2-0.8c0.6-0.1,0.3-0.7,0.9-0.8c0.1-0.1,0.2-0.1,0.2-0.2c-0.6-0.3-0.6,0.7-1.1,0.7c-0.1,0.1-0.2,0-0.3,0
		c-0.2-0.2-0.2-0.4-0.2-0.7c0.3,0,0.5-0.5,0.8-0.6c0.3-0.2,0.5-0.4,0.6-0.7c-0.4-0.4-0.7,0.5-1.2,0.4c-0.1,0.1-0.3,0.2-0.5,0.2
		c-0.2-0.2,0-0.4,0.1-0.6c0.3,0.1,0.2-0.2,0.2-0.3c0.3-0.5,1.3-0.3,1.1-1.1c-0.2-0.1-0.4-0.3-0.6,0c-0.3,0.3-0.7,0.6-1.1,0.7
		c-0.1-0.1-0.3-0.1-0.4-0.2c-0.1-0.3,0.3-0.4,0.5-0.6c0.5,0,0.8-0.6,1.3-0.7c0.1-0.2-0.1-0.4-0.3-0.2c-0.4,0.4-1,0.2-1.5,0.5
		c-0.2,0-0.3-0.1-0.5-0.2c-0.1-0.2-0.1-0.6,0.2-0.6c0.2,0,0.4,0,0.5-0.2c0-0.1-0.2-0.6,0.1-0.4c0,0.1,0.1,0.2,0.2,0.2
		c0.3,0.1,0.4-0.3,0.6-0.4c0-0.1,0.1-0.3-0.1-0.3c-0.5,0.1-1,0.4-1.5,0.4c-0.2-0.1,0-0.4,0-0.5c0.3-0.1,0.6-0.2,0.8-0.4
		c0.2,0,0.3,0.2,0.4,0c0-0.1,0-0.3,0.2-0.3c0.2,0,0.3,0.2,0.5,0c0.2-0.3-0.1-0.3-0.2-0.4c-0.1-0.1-0.1-0.1-0.2-0.2
		c-0.8,0-1.6,0.7-2.4,0.3c-0.1-0.3,0.2-0.2,0.3-0.3c0.3-0.2,0.7,0.2,0.9-0.3c0.3,0.2,0.5-0.4,0.8,0c0.3,0,0.4-0.1,0.7-0.1
		c0.3-0.3,0.6-0.5,0.7-1c-0.4,0-0.9-0.4-1.3,0c-0.3-0.1-0.5,0.2-0.8,0.1c-0.3,0.4-0.9,0.3-1.4,0.3c-0.1-0.1-0.2-0.2-0.1-0.3
		c0.4-0.3,0.9,0,1.2-0.5c0.3-0.4,1.4,0.4,1.1-0.6c-0.6-0.1-1.4-0.4-1.9,0c-0.3,0-0.8-0.2-1,0.1c-0.3-0.2-0.8,0.3-1-0.3
		c-0.2-0.4,0.3-0.4,0.5-0.6c0.4,0.2,0.7,0,1.1,0c0.1-0.1,0.1-0.2,0.1-0.2c-0.7-0.5-1.7-0.2-2.4-0.3c0-0.4-0.6-0.2-0.4-0.6
		c0.2,0,0.5-0.2,0.7,0c0.4-0.1,0.8,0.1,1.2,0.1c0.3,0.2,0.6,0,0.9,0.2c0.8-0.3,0,0.7,0.7,0.6c0.6-0.2,1.1,0.2,1.7,0.2
		c0.1-0.3,0.4-0.1,0.6-0.1c-0.1-0.2,0.3-0.7-0.1-0.6c-0.2,0-0.3,0.3-0.4,0.3c-0.1-0.1,0-0.3-0.2-0.4c-0.2,0-0.2,0.2-0.3,0.2
		c-0.2,0-0.3-0.1-0.5-0.2c-0.4-0.5,0.8-0.4,0.1-0.8c0-0.5-1.1,0-0.8-0.8c0.2-0.4,1,0.2,0.7-0.5c-0.4-0.5-1-0.2-1.5-0.3
		c-0.1-0.2-0.6-0.1-0.7-0.3c-0.2-0.3-0.4,0-0.6-0.3c-0.3,0.3-0.6-0.1-0.8,0c-0.4-0.5-1.1-0.1-1.5-0.5c-0.6-0.3-1.2-0.2-1.8-0.3
		c-0.1-0.2-0.3-0.3-0.2-0.5c0.2-0.1,0.5,0,0.8,0c0.4,0.1,0.9-0.1,1.3,0.4c0.7,0.1,1.4,0.1,2,0.4c0.6-0.5,1,0.6,1.7,0.4
		c0.3,0.2,0.6,0.1,0.9,0.1c0.1-0.1,0-0.2,0.1-0.3c-0.4-0.6-1.3-0.6-1.8-1c-0.4-0.1-0.9-0.1-1.2-0.3c-0.3-0.1-0.6-0.1-0.9-0.2
		c-0.2-0.3-0.7,0.2-0.8-0.2c-0.5,0-0.7-0.1-1-0.4c-0.3-0.1-0.6-0.2-1-0.2c-0.2,0.1-0.4,0.1-0.7,0.1c0-0.1-0.1-0.2-0.2-0.3
		c-0.7,0-0.5-0.8-0.9-1.2c0.1-0.3,0.3,0,0.4,0c0.2,0.3,0.7,0,0.9,0.4c0.2,0,0.3,0.3,0.5,0.3c0.4,0.2,0.9,0.2,1.3,0.5
		c0.5,0.1,1,0.3,1.4,0.6c0.3-0.4,0.5,0.1,0.8,0c0.5,0.3,1.2,0.3,1.7,0.7c0.3-0.1,0.9,0.3,0.9-0.1c-0.1-0.1-0.1-0.5-0.4-0.4
		c-0.3-0.6-1.1-0.2-1.4-0.9c-0.4,0.2-0.7-0.4-1.2-0.2c-0.1-0.2-0.4,0-0.6-0.2C7,10.6,6.3,10.9,6,10.3c-0.6,0.2-0.8-0.7-1.3-0.2
		C4.4,10,4.1,9.7,3.6,9.8c-0.2,0.1-0.2,0.5-0.5,0.4C3,10.2,3,9.9,2.8,9.9c0-0.5-0.6-0.8-0.8-1.2c0.1-0.1,0.2,0,0.2-0.1
		c0.4,0.1,1.2-0.2,1.5,0.3C4,9,4.3,9.3,4.7,9.2C5,9.4,5.4,9.4,5.6,9.5C6,9.8,6.4,9.7,6.7,10c0.1-0.1,0.3-0.2,0.5-0.1
		c0.2,0.3,0.5,0.2,0.7,0.5c0.4,0.2,0.8,0.2,1.1,0.5c0.3-0.1,0.5,0.3,0.8,0.4c0.4,0,0.6,0.4,1,0.2c-0.4-0.4-0.8-1-1.5-0.9
		c-0.2-0.1-0.1-0.4-0.4-0.4c-0.3-0.2-0.6-0.7-1-0.7C7,9.9,6.7,8.4,5.7,8.8C5.3,8.5,5,8,4.3,8C4,7.3,3,7.8,2.8,7.1
		c-0.6,0.1-0.5-0.6-1-0.8c0-0.3-0.4-0.3-0.3-0.7C1.3,5.6,1.3,5.5,1.3,5.4c0.1-0.1,0.2-0.1,0.3-0.1C1.8,5.6,2.3,5,2.4,5.6
		C2.6,5.6,2.9,5.8,2.9,6c0.4,0.1,0.6,0.5,1,0.4c0.2,0.1,0.5,0.1,0.7,0c-0.4-0.3-0.9-0.9-1.4-1C3,5.3,2.7,5.2,2.7,5.1
		C2.5,4.8,2.1,4.7,2,4.4C1.5,4,1.3,3.4,0.8,3c0.1-0.3-0.4-0.6,0.1-0.7c0.2,0,0.4,0,0.5,0C0.9,2,0.8,1.4,0.3,1.2
		C0.1,1.1,0.3,0.6,0,0.5C0,0.4-0.1,0,0.2,0C0.6,0.1,1.1,0,1.2,0.4"/>
</g>
</svg>
