<?xml version="1.0" encoding="utf-8"?>
<!-- Generator: Adobe Illustrator 25.4.1, SVG Export Plug-In . SVG Version: 6.00 Build 0)  -->
<svg version="1.1" id="Layer_1" xmlns="http://www.w3.org/2000/svg" xmlns:xlink="http://www.w3.org/1999/xlink" x="0px" y="0px"
	 viewBox="0 0 195.4 80" style="enable-background:new 0 0 195.4 80;" xml:space="preserve">
<style type="text/css">
	.st0{fill:#9E781D;}
	.st1{fill:#E1251C;}
</style>
<polygon class="st0" points="0,67.1 2.9,69.9 36.5,35.8 47.4,38.9 73.3,7.1 76.8,14.4 82.8,14.5 90.2,28.3 94.1,28.2 107,42.5 
	120.7,30.2 135.4,45.9 137.5,43.3 120.2,25.6 107.5,36.8 95.5,23.5 93.9,24.5 92.4,24.6 84.4,10.8 79.4,10.8 74.5,0 46.6,33.9 
	34.7,31.8 "/>
<path class="st1" d="M86.7,52.6c0,0-2.5,4.2-2.5,4.2s-1.7-4.6-7.3-4.6s-12.5,6.2-12.5,13s2.9,12,7.8,12s8.3-2.6,8.3-2.6l0.7,0.4
	l-2.4,4.5c0,0-2.1,0.3-7.8,0.3c-8.9,0-14.4-10.1-11.9-18c0.7-2,1.7-4,2.9-5.7c1.9-2.5,4.4-4.4,7.3-5.5c3.3-1.2,6.8-1.2,10.2-0.6
	C82.1,50.7,84.5,51.5,86.7,52.6z"/>
<path class="st1" d="M123.2,58.4c-2.6,0-6.2,2.3-8.1,4c0.3-1.1,0.6-2.1,0.9-2.9h-5.4L106.2,80h5.7c0,0,1-7.7,2.4-14.1
	c1.3-1.6,3.8-4.2,6.7-4.2c4.3,0-2.4,18.3-2.4,18.3h6.3c0,0,2.8-10.7,3.1-15.1C128.5,60.5,126.5,58.4,123.2,58.4z"/>
<path class="st1" d="M158.7,58.7c-1.4,0.6-3.9,2.7-5.2,3.8c0.4-2,0.7-3.3,0.7-3.3h-4.7c-0.7,4.3-4.9,20.8-4.9,20.8h6
	c0.2-2.8,1.2-8.2,2.1-12.8c0.7-1.5,2.2-3.7,4.7-3.7c0,0,1.4,0.1,2.6,1.1c0,0,0.8-4.6,2-5.4C161.8,59.2,160.5,58,158.7,58.7z"/>
<path class="st1" d="M140.5,61.3h3.4l1-1.7h-4l1.7-7.9c-2.5,2.5-6,2.5-6,2.5l-1.2,5.6h-2.6l-0.4,1.5h2.5c0,0-1.7,8.5-2.5,12.2
	c-0.8,3.7,1.1,6.6,4.2,6.6c3.1,0,4.6-1,4.6-1l-0.4-0.9c-3.9,0.4-3.3-2.9-3.3-2.9L140.5,61.3z"/>
<path class="st1" d="M181.7,80c0,0,6.5-27.5,7.3-32.3h6.4c0,0-5.6,21.4-6.8,32.3H181.7"/>
<path class="st1" d="M179.3,77.8c0,0-2.4,0.9-2.2-1.2c0.2-2.1,1.7-8.2,2.2-11.4c0.5-3.2-0.8-5.6-4.6-6.2c-3.7-0.7-7.6,0.3-9.5,2.9
	l0.9,0.7c0,0,2.2-2.2,4.9-1.8c2.8,0.4,4.3,2.8,3,6.2c-0.3,0-13.2-0.6-13,7.2c0.1,7.8,8.8,6.6,11.2,3.2c0,0,1.3,2.7,4,2.7
	c2.7,0,3.4-1.7,3.4-1.7L179.3,77.8z M169,76.9c-4.2-0.7-3-8,4.3-7.7C173.3,69.1,173.6,77.6,169,76.9z"/>
<path class="st1" d="M104.9,69c0,0,1.7-10.8-7.3-10.8s-11.7,7.5-11.7,11.7S89.2,80,95.3,80c6.1,0,7.7-4.4,7.7-4.4l-0.8-0.5
	c-2.5,2.8-5.5,2.7-5.5,2.7c-6.3,0-5.1-8.8-5.1-8.8H104.9z M97.5,60.3c3.7,0,2.4,6.5,2.4,6.5h-7.6C92.3,66.8,93.8,60.3,97.5,60.3z"/>
</svg>
