<?xml version="1.0" encoding="utf-8"?>
<!-- Generator: Adobe Illustrator 25.4.1, SVG Export Plug-In . SVG Version: 6.00 Build 0)  -->
<svg version="1.1" id="Layer_1" xmlns="http://www.w3.org/2000/svg" xmlns:xlink="http://www.w3.org/1999/xlink" x="0px" y="0px"
	 viewBox="0 0 457.1 80" style="enable-background:new 0 0 457.1 80;" xml:space="preserve">
<style type="text/css">
	.st0{fill:#9E781D;}
	.st1{fill:#E1251C;}
</style>
<g>
	<polygon class="st0" points="0,67.1 2.9,69.8 36.5,35.8 47.4,38.9 73.2,7.1 76.7,14.4 82.7,14.5 90.1,28.3 94,28.2 106.9,42.5 
		120.6,30.2 135.3,45.9 137.4,43.2 120.1,25.6 107.4,36.8 95.4,23.5 93.8,24.5 92.3,24.6 84.3,10.8 79.3,10.8 74.4,0 46.6,33.9 
		34.7,31.8 	"/>
	<path class="st1" d="M86.7,52.6c0,0-2.5,4.2-2.5,4.2s-1.7-4.6-7.3-4.6s-12.5,6.2-12.5,13s2.8,12,7.8,12c4.9,0,8.3-2.6,8.3-2.6
		l0.7,0.4l-2.4,4.5c0,0-2.1,0.3-7.8,0.3c-8.9,0-14.4-10.1-11.8-18c0.7-2,1.7-4,2.9-5.7c1.9-2.5,4.4-4.4,7.3-5.5
		c3.3-1.2,6.8-1.2,10.2-0.6C82,50.6,84.4,51.4,86.7,52.6z"/>
	<path class="st1" d="M123.1,58.4c-2.6,0-6.2,2.3-8.1,4c0.3-1.1,0.6-2.1,0.9-2.9h-5.4l-4.4,20.4h5.7c0,0,1-7.7,2.4-14.1
		c1.3-1.6,3.8-4.2,6.7-4.2c4.2,0-2.4,18.3-2.4,18.3h6.3c0,0,2.8-10.7,3.1-15.1C128.4,60.5,126.4,58.4,123.1,58.4z"/>
	<path class="st1" d="M380.2,58.4c-2.6,0-6.2,2.3-8.1,4c0.3-1.1,0.6-2.1,0.9-2.9h-5.4l-4.4,20.4h5.7c0,0,1-7.7,2.4-14.1
		c1.3-1.6,3.8-4.2,6.7-4.2c4.2,0-2.4,18.3-2.4,18.3h6.3c0,0,2.8-10.7,3.1-15.1C385.4,60.5,383.5,58.4,380.2,58.4z"/>
	<path class="st1" d="M158.5,58.7c-1.4,0.6-3.9,2.7-5.2,3.8c0.4-2,0.7-3.3,0.7-3.3h-4.7c-0.7,4.3-4.9,20.8-4.9,20.8h6
		c0.2-2.8,1.2-8.2,2.1-12.8c0.7-1.5,2.2-3.7,4.7-3.7c0,0,1.4,0.1,2.6,1.1c0,0,0.8-4.6,2-5.4C161.7,59.2,160.4,57.9,158.5,58.7z"/>
	<path class="st1" d="M140.4,61.2h3.4l1-1.7h-4l1.7-7.9c-2.5,2.5-6,2.5-6,2.5l-1.2,5.6h-2.6l-0.4,1.5h2.5c0,0-1.7,8.4-2.5,12.2
		c-0.8,3.7,1.1,6.6,4.2,6.6c3.1,0,4.6-1,4.6-1l-0.4-0.9c-3.9,0.4-3.3-2.9-3.3-2.9L140.4,61.2z"/>
	<path class="st1" d="M307.9,58.4c-2.6,0-6.2,2.3-8.1,4c0.3-1.1,0.6-2.1,0.9-2.9h-5.4L290.9,80h5.7c0,0,1-7.7,2.4-14.1
		c1.3-1.6,3.8-4.2,6.7-4.2c4.2,0-2.4,18.3-2.4,18.3h6.3c0,0,2.8-10.7,3.1-15.1C313.1,60.5,311.2,58.4,307.9,58.4z"/>
	<path class="st1" d="M325.1,61.1h3.4l1-1.7h-4l1.7-7.9c-2.5,2.5-6,2.5-6,2.5l-1.2,5.6h-2.6l-0.4,1.5h2.5c0,0-1.7,8.4-2.5,12.2
		c-0.8,3.7,1.1,6.6,4.2,6.6s4.6-1,4.6-1l-0.4-0.9c-3.9,0.4-3.3-2.9-3.3-2.9L325.1,61.1z"/>
	<path class="st1" d="M181.6,79.9c0,0,6.5-27.5,7.3-32.2h6.4c0,0-5.6,21.3-6.8,32.2H181.6"/>
	<path class="st1" d="M179.2,77.7c0,0-2.4,0.9-2.2-1.2c0.2-2.1,1.7-8.2,2.2-11.4c0.5-3.2-0.8-5.6-4.6-6.2c-3.7-0.7-7.6,0.3-9.4,2.9
		l0.9,0.7c0,0,2.2-2.2,4.9-1.8c2.8,0.4,4.3,2.8,3,6.2c-0.3,0-13.2-0.6-13,7.2c0.1,7.8,8.8,6.6,11.2,3.1c0,0,1.3,2.7,4,2.7
		c2.7,0,3.4-1.7,3.4-1.7L179.2,77.7z M168.8,76.8c-4.2-0.7-3-8,4.3-7.7C173.2,69.1,173.4,77.5,168.8,76.8z"/>
	<path class="st1" d="M348.9,77.7c0,0-2.4,0.9-2.2-1.2c0.2-2.1,1.7-8.2,2.2-11.4c0.5-3.2-0.8-5.6-4.6-6.2c-3.7-0.7-7.6,0.3-9.4,2.9
		l0.9,0.7c0,0,2.2-2.2,4.9-1.8s4.3,2.8,3,6.2c-0.3,0-13.2-0.6-13,7.2s8.8,6.6,11.2,3.1c0,0,1.3,2.7,4,2.7c2.7,0,3.4-1.7,3.4-1.7
		L348.9,77.7z M338.5,76.8c-4.2-0.7-3-8,4.3-7.7C342.9,69.1,343.2,77.5,338.5,76.8z"/>
	<path class="st1" d="M455.4,64.6l1.7-5.5c-2.3-2.4-6.2,1.6-8.1,3.3c0.3-1.1,0.6-2.4,0.9-3.1h-5.4L440.1,80h5.7c0,0,1-7.7,2.4-14.1
		c1.3-1.6,1.5-2.4,4.4-2.4C453.3,63.5,455.2,63.9,455.4,64.6z"/>
	<path class="st1" d="M104.8,68.9c0,0,1.7-10.8-7.3-10.8s-11.7,7.5-11.7,11.7c0,4.2,3.3,10.1,9.4,10.1c6.1,0,7.7-4.4,7.7-4.4
		l-0.8-0.5c-2.5,2.8-5.5,2.7-5.5,2.7c-6.3,0-5.1-8.8-5.1-8.8H104.8z M97.4,60.2c3.7,0,2.4,6.5,2.4,6.5h-7.6
		C92.2,66.7,93.7,60.2,97.4,60.2z"/>
	<circle class="st1" cx="360.4" cy="51" r="3.3"/>
	<path class="st1" d="M357.5,79.9c0,0-6.6,0.1-6.5,0c0.1-0.1,3.6-13.8,4.2-22.1h6.8C362.1,57.8,358.2,74.6,357.5,79.9z"/>
	<circle class="st1" cx="436.8" cy="51" r="3.3"/>
	<path class="st1" d="M434,79.9c0,0-6.6,0.1-6.5,0c0.1-0.1,3.6-13.8,4.2-22.1h6.8C438.5,57.8,434.6,74.6,434,79.9z"/>
	<path class="st1" d="M281.6,76.4c0,0-0.4,3-0.7,3.6h5.3c0,0,3.8-19,4.7-21.5h-5.3c0,0-2.5,13.9-4.2,15.7s-3.1,2.8-4.9,2.8
		s-3-1.3-2.2-4.9c0.9-3.5,3.8-13.6,3.8-13.6h-5.1c0,0-2.8,10-3.6,13.3c-0.8,3.3-0.3,8.3,3.8,8.3C277.2,79.9,281.6,76.4,281.6,76.4z"
		/>
	<path class="st1" d="M214.4,60.7c0,0-3.9,15.3-4.6,19.2h-4.2c0,0,5.9-19.6,7.8-29.5h4.7l5.6,19.8c0,0,14.9-19.3,15.5-19.8h4.3
		c0,0-5.1,28.3-5.3,29.5h-7c0,0,3.9-11.1,4.1-18.9c0,0-9.6,10.9-14,19h-1.4C219.9,80,215.6,63.5,214.4,60.7z"/>
	<path class="st1" d="M261.4,59.2c-5-2.3-11.5-0.5-14.7,5c-3.1,5.5-3.2,13.2,3.1,15.1c5.3,1.6,11.7,0.4,14.6-5.2
		C267.5,67.9,266.4,61.5,261.4,59.2z M260.6,69.1c-0.3,3.9-3,9-7.6,9c-4.7,0-2.6-9.6-2.6-9.6c1-3.7,3.8-8.3,6.9-8.3
		C260.4,60.3,260.9,65.3,260.6,69.1z"/>
	<path class="st1" d="M424.9,80c0,0-6.7-21.8-7.3-29.7h-2.8c0,0-15,25.9-17.7,29.7h4.4c0,0,1.9-4.4,4.5-9.3
		c2.1-0.2,7.8-0.8,11.1,0.2c0.4,2.6,0.6,5.7,0.6,9.1H424.9z M407.5,67.9c1.9-3.5,4.1-6.9,6-9c0,0,1.8,3,3,8.9
		C415.5,68,411.4,68.7,407.5,67.9z"/>
</g>
</svg>
