<?xml version="1.0" encoding="utf-8"?>
<!-- Generator: Adobe Illustrator 25.4.1, SVG Export Plug-In . SVG Version: 6.00 Build 0)  -->
<svg version="1.1" id="Layer_1" xmlns="http://www.w3.org/2000/svg" xmlns:xlink="http://www.w3.org/1999/xlink" x="0px" y="0px"
	 viewBox="0 0 80 80" style="enable-background:new 0 0 80 80;" xml:space="preserve">
<style type="text/css">
	.st0{fill:#5F0E2A;}
</style>
<path class="st0" d="M60.1,5.4C54.2,2,47.3,0,40,0c-7.3,0-14.2,2-20.1,5.4H60.1z"/>
<path class="st0" d="M10.3,13.2h59.3c-2.4-2.6-5.1-4.9-8.1-6.9H18.4C15.4,8.2,12.7,10.5,10.3,13.2z"/>
<path class="st0" d="M76.9,24.5c-7.5,0-32.4,0-39.1,0c-7.9,0-0.2,7.1,6.8,13.9c7,6.8,18.8,15.8,15.1,26.9
	c-3.7,11.2-15.9,11.6-15.9,11.6c-20.4,0-23.7-6.1-23.7-6.1c11.8,1.5,18.9-2.6,21.6-13.2C44.4,47,27.8,31.3,27.8,31.3
	c-2-2.4-2.6-3.9-1.5-6c1.1-2,4.2-1.8,4.2-1.8h45.9c-1.6-3.4-3.6-6.6-6-9.5H9.5C3.6,21.1,0,30.1,0,40c0,22.1,17.9,40,40,40
	s40-17.9,40-40C80,34.5,78.9,29.2,76.9,24.5z"/>
</svg>
