<?xml version="1.0" encoding="utf-8"?>
<!-- Generator: Adobe Illustrator 25.4.1, SVG Export Plug-In . SVG Version: 6.00 Build 0)  -->
<svg version="1.1" id="Layer_1" xmlns="http://www.w3.org/2000/svg" xmlns:xlink="http://www.w3.org/1999/xlink" x="0px" y="0px"
	 viewBox="0 0 142.5 80" style="enable-background:new 0 0 142.5 80;" xml:space="preserve">
<style type="text/css">
	.st0{fill:url(#SVGID_1_);}
	.st1{fill:url(#SVGID_00000043425543988890094580000002081455660253118364_);}
	.st2{fill:url(#SVGID_00000106839086908275158600000010937906995583931049_);}
	.st3{fill:url(#SVGID_00000148625777022427634640000004827197441735882661_);}
</style>
<g>
	<linearGradient id="SVGID_1_" gradientUnits="userSpaceOnUse" x1="-1.6028" y1="30.1773" x2="142.1247" y2="30.1773">
		<stop  offset="0" style="stop-color:#2756BE"/>
		<stop  offset="0.494" style="stop-color:#0883D9"/>
		<stop  offset="0.9995" style="stop-color:#2A51BB"/>
	</linearGradient>
	<path class="st0" d="M138.1,53.1c0,0-29,6.4-52.3,6.4s-40.5-0.5-54.4-4.6S0.9,44.9,0.9,33.3s18.4-20,34.7-24.5s39.3-6.5,47.7-7.3
		s43.4-1.6,58,2.8c0,0-4.6,8.1-33.2,7.1c0,0-11.1-5.6-35-4s-35.7,5.7-37.8,16c-2.1,10.3,14.3,17.4,17.8,18.7s23.5,8.2,40.5,9.9
		C110.6,53.7,128.3,54.7,138.1,53.1z"/>
	
		<linearGradient id="SVGID_00000018215310328094231400000008936977688948512683_" gradientUnits="userSpaceOnUse" x1="55.9597" y1="-12.1066" x2="81.7154" y2="41.8411">
		<stop  offset="0" style="stop-color:#FDD6D6"/>
		<stop  offset="0.9995" style="stop-color:#FB3641"/>
	</linearGradient>
	<path style="fill:url(#SVGID_00000018215310328094231400000008936977688948512683_);" d="M102.7,0.9c13.4,0,29.7,0.8,38.6,3.4
		c0,0-4.1,7.2-28.5,7.2c-1.5,0-3,0-4.7-0.1c0,0-8.5-4.3-26.6-4.3c-2.6,0-5.4,0.1-8.4,0.3c-23.8,1.6-35.7,5.7-37.8,16
		c-2.1,10.3,14.3,17.4,17.8,18.7c3.5,1.3,23.5,8.2,40.5,9.9c11,1,22.2,1.9,31.5,1.9c5.1,0,9.6-0.2,13-0.8c0,0-29,6.4-52.3,6.4
		s-40.5-0.5-54.4-4.6S0.9,44.9,0.9,33.3s18.4-20,34.7-24.5c16.2-4.5,39.3-6.5,47.7-7.3C86.5,1.2,93.9,0.9,102.7,0.9 M102.7,0
		c-8.9,0-16.3,0.3-19.5,0.6c-0.6,0.1-1.2,0.1-2,0.2C71.2,1.8,50.5,3.8,35.3,8C24.7,10.9,0,19.3,0,33.3c0,5.5,3.5,10.3,10.5,14.4
		c6.2,3.6,14.3,6.2,20.7,8.1c13.3,3.9,29.5,4.6,54.6,4.6c23.1,0,52.2-6.4,52.5-6.4l-0.3-1.7c-3.2,0.5-7.6,0.8-12.9,0.8
		c-8,0-18.3-0.6-31.4-1.9c-18.6-1.8-40.1-9.7-40.3-9.8c-1-0.4-6.3-2.4-10.8-5.9c-5.1-3.9-7.3-7.8-6.5-11.9C38,14.3,48.4,10,73.1,8.3
		C76,8.1,78.8,8,81.5,8c17.6,0,26.1,4.2,26.2,4.2l0.2,0.1l0.2,0c1.6,0.1,3.2,0.1,4.7,0.1c24.6,0,29.1-7.3,29.3-7.7l0.5-1l-1-0.3
		C131.5,0.4,112.9,0,102.7,0L102.7,0z"/>
	<g>
		
			<radialGradient id="SVGID_00000005266728829960643290000006428565630024366481_" cx="92.6799" cy="57.278" r="26.3815" gradientUnits="userSpaceOnUse">
			<stop  offset="2.757988e-04" style="stop-color:#0883D9"/>
			<stop  offset="0.9995" style="stop-color:#2A51BB"/>
		</radialGradient>
		<path style="fill:url(#SVGID_00000005266728829960643290000006428565630024366481_);" d="M75.5,35.4c0,0-2.4,4.3-6.4,5.2
			l20.1,17.6c0,0-12.9,15.5-26.8,20.2h15.5c0,0-1-2.6,0.7-4.3C80.3,72.5,92.4,60,92.4,60L107,76.6c0,0,1.2,1.4,0.3,2.6h15.6
			c0,0-11.9-6.6-27.2-21.8c0,0,14.2-12.4,17.9-15.4c3.7-3,6.2-5.2,6.2-5.2h-15.7c0,0,3,2.2,0.6,4.9c-2.4,2.7-12.4,13.6-12.4,13.6
			L75.5,35.4z"/>
		
			<radialGradient id="SVGID_00000145029367811528755210000009075400968251005109_" cx="91.6999" cy="56.9547" r="29.4007" gradientUnits="userSpaceOnUse">
			<stop  offset="0" style="stop-color:#FDD6D6"/>
			<stop  offset="0.9995" style="stop-color:#FB3641"/>
		</radialGradient>
		<path style="fill:url(#SVGID_00000145029367811528755210000009075400968251005109_);" d="M75.5,35.4l16.8,19.8
			c0,0,10-10.9,12.4-13.6c2.4-2.7-0.6-4.9-0.6-4.9h15.7c0,0-2.6,2.2-6.2,5.2c-3.7,3-17.9,15.4-17.9,15.4
			c15.3,15.3,27.2,21.8,27.2,21.8h-15.6c0.9-1.2-0.3-2.6-0.3-2.6L92.4,60c0,0-12.1,12.5-13.8,14.2c-1.7,1.7-0.7,4.3-0.7,4.3H62.4
			c13.8-4.6,26.8-20.2,26.8-20.2L69.1,40.6C73.1,39.7,75.5,35.4,75.5,35.4 M75.4,33.9L74.7,35c0,0.1-2.3,3.9-5.9,4.8l-1.7,0.4
			l1.3,1.1L88,58.3c-2.6,3-14,15.3-25.8,19.3l-5.1,1.7h5.3h15.5h1.3l-0.5-1.2c0-0.1-0.8-2.1,0.5-3.3c1.5-1.5,10.6-10.9,13.2-13.5
			l13.9,15.8c0.1,0.1,0.7,0.9,0.3,1.5l-1,1.4h1.7h15.6h3.4l-3-1.6c0,0-3-1.7-7.8-5.2c-4.3-3.1-11-8.4-18.6-15.9
			c2.9-2.5,14-12.2,17.1-14.8c3.6-3,6.2-5.2,6.2-5.2l1.8-1.5h-2.3h-15.7h-2.6l2.1,1.6c0,0,1,0.8,1.1,1.9c0.1,0.6-0.2,1.2-0.7,1.8
			c-2,2.3-9.4,10.4-11.7,12.9l-16.2-19L75.4,33.9L75.4,33.9z"/>
	</g>
</g>
</svg>
