<?xml version="1.0" encoding="utf-8"?>
<!-- Generator: Adobe Illustrator 25.4.1, SVG Export Plug-In . SVG Version: 6.00 Build 0)  -->
<svg version="1.1" id="Layer_1" xmlns="http://www.w3.org/2000/svg" xmlns:xlink="http://www.w3.org/1999/xlink" x="0px" y="0px"
	 viewBox="0 0 325.4 80" style="enable-background:new 0 0 325.4 80;" xml:space="preserve">
<style type="text/css">
	.st0{fill:#D1D2D4;}
	.st1{fill:#00376E;}
	.st2{fill:url(#SVGID_1_);}
	.st3{fill:url(#SVGID_00000152266138524252657690000001802217013559649693_);}
	.st4{fill:url(#SVGID_00000077316754931624854860000003395885513069391531_);}
	.st5{fill:url(#SVGID_00000135681020130128083770000005839281076579859091_);}
</style>
<g>
	<path class="st0" d="M162.2,54.6c0,6.5-8.7,7.7-8.7,7.7h-7.6V47h2.2c4.6,0,5.8,6.7,5.8,6.7h1.8V47v-1.5v-6.3h-1.8
		c0,6-5.8,6.3-5.8,6.3h-2.2V31.2h8c0,0,5.8,0.3,7.9,7.6h1.9v-7.6v-1.5h-1.9h-29.5v1.5h4.2v31.2h-4.2v1.5h32.3v-0.3v-1.2v-9.7h-2.4
		V54.6z"/>
	<path class="st0" d="M186.5,51.6c3.6-3.5,6.7-6.5,6.8-6.6h3v-1.5h-9.6V45h3.8c0,0-2.3,2.2-5.2,5.1l-4.4-5.1h3v-1.5h-14.8V45h2.5
		l8.7,9.9c-4,3.9-7.7,7.4-7.7,7.4h-3.5v1.5h9.9v-1.5h-3.4c0,0,2.7-2.7,6-5.9l5.2,5.9h-3.2v1.5h14.8v-1.5h-2.4L186.5,51.6z"/>
	<path class="st0" d="M218.6,64.8c5.6,0,10.2-4.9,10.2-11c0-6.1-4.6-11-10.2-11c-3,0-5.7,1.4-7.6,3.6V45l0,0v-2.3l-11.6,0.7V45h3.8
		v28.9h-3.2v1.5h14.8v-1.5h-3.8V61.1C212.9,63.4,215.6,64.8,218.6,64.8z M217.6,44.5c3,0,2.6,2.9,2.6,2.9v13.2c0,0,0.1,2.6-3.1,2.6
		c-3.2,0-6-2.5-6-9.9C211.1,45.7,214.5,44.5,217.6,44.5z"/>
	<path class="st0" d="M247.7,45.8c-0.2,0.5-0.4,1-0.4,1.6c0,2,1.7,3.7,3.9,3.7c2.1,0,3.9-1.6,3.9-3.7c0-0.1,0-0.2,0-0.3c0,0,0,0,0,0
		s0.7-4.4-5-4.4c-3.7,0-5.8,3-6.8,5.2v-3v-0.8v-1.5l-10.8,0.7V45h3v17.4h-3v1.5h14.8v-1.5h-4v-9.9c0.3-0.4,0.4-4,2.4-5.9
		C247.5,44.6,248,45.1,247.7,45.8C247.7,45.8,247.7,45.8,247.7,45.8z"/>
	<path class="st0" d="M281.1,52.9c0-5.1-3-10.1-11.8-10.1S257,49.8,257,54.2s3.4,10.4,12.9,10.4c9.5,0,11.3-7.1,11.3-7.1l-1.2-0.5
		c-2.5,5.3-6.7,6.1-10.3,6.1c-3.6,0-3.7-3.7-3.7-3.7v-6.7C266,52.8,280.8,52.9,281.1,52.9z M266.1,46.5c0,0,0.3-2.3,3.9-2.3
		s3.6,2.3,3.6,2.3v4.6h-7.4V46.5z"/>
	<path class="st0" d="M303.6,56.1c0-5-4-5.8-7.7-6.5c-3.7-0.7-5.9-1.1-7.2-1.9c-1.3-0.8-0.3-3.8,5-3.8c5.2,0,6.2,5,6.2,5l1.2,0.1v-6
		c0,0-0.8,0-1,0c-0.3,0-0.9,0.9-1,0.9c-0.2-0.1-2.8-1.1-5.5-1.1c-2.7,0-8.3,0.9-8.3,7.4s6.5,6.2,10.7,6.9c4.2,0.7,4.4,1.8,4.5,2.5
		c0.1,0.7-0.2,3.7-6.2,3.7c-6,0-7.3-6.9-7.3-6.9h-1.5v8.1h1.3c0,0,0.9-1.1,1.4-1.4c0.5-0.3,1.8,1.8,7.2,1.8
		C300.8,64.6,303.6,61,303.6,56.1z"/>
	<path class="st0" d="M317.7,49.5c-3.7-0.7-5.9-1.1-7.2-1.9s-0.3-3.8,5-3.8c5.2,0,6.2,5,6.2,5L323,49v-6c0,0-0.8,0-1,0
		c-0.3,0-0.9,0.9-1,0.9c-0.2-0.1-2.8-1.1-5.5-1.1c-2.7,0-8.3,0.9-8.3,7.4s6.5,6.2,10.7,6.9c4.2,0.7,4.4,1.8,4.5,2.5
		c0.1,0.7-0.2,3.7-6.2,3.7s-7.3-6.9-7.3-6.9h-1.5v8.1h1.3c0,0,0.9-1.1,1.4-1.4c0.5-0.3,1.8,1.8,7.2,1.8c5.4,0,8.2-3.6,8.2-8.6
		C325.4,51.1,321.4,50.2,317.7,49.5z"/>
	<path class="st1" d="M177.3,40c4.5,0,7.4-2,7.4-2l1.6,1.2h0.4v-7.6h-0.8c0,0-1.8,7.1-8,7.1c-6.2,0-7.4-5.2-7.4-14.2
		c0-8.9,3.1-12.9,7.6-12.9s7.4,4.4,7.7,6.9h0.9v-7.2h-0.9l-1.2,1.2c0,0-3-2.1-6.5-2.1c-3.5,0-12.5,3.6-12.5,14.6
		C165.6,36.1,172.7,40,177.3,40z"/>
	<path class="st1" d="M218.5,38h-2.4V22.9v-0.6c0,0-1,0.6-5.7,0.6c0,0-0.1,0.7,0,0.7c0.1,0,1.4,0,2.7,0V38h-2.9v1h8.4V38z"/>
	<path class="st1" d="M214.5,16.3c1.1,0,2-0.9,2-2c0-1.1-0.9-2-2-2s-2,0.9-2,2C212.5,15.4,213.4,16.3,214.5,16.3z"/>
	<path class="st1" d="M201.8,29.9c-9.1-0.5-10.7,4.6-10.7,5.5c0,0.9,0.2,4.6,4.4,4.6c4.2,0,6.3-3,6.3-3l0.1-0.1
		c0.2,1.1,0.8,2.6,2.5,2.6c2.7,0,3.7-2.4,3.9-2.9l-0.6-0.3c0,0-0.4,1.2-1.5,1.2c-1.2,0-1.1-1.1-1.1-2V25.5c0,0-0.2-3.2-5.5-3.2
		s-7,2.1-7,4.4c0,0.5,0.1,0.8,0.3,1c0.3,0.5,0.9,0.8,1.5,0.8c1,0,1.8-0.8,1.8-1.8c0-0.7-0.4-1.3-1-1.6c0,0-0.9-0.7,0.6-1.3
		s3.1-0.9,4.4-0.5c1.3,0.4,1.8,1.3,1.8,2.2L201.8,29.9L201.8,29.9z M194.2,35.2c0-5.1,7.5-4.3,7.5-4.3l0,0v4.9
		C201.4,37.8,194.2,40.2,194.2,35.2z"/>
	<path class="st1" d="M230.4,39.6c6.8,0,7.2-5.5,7.2-5.5h-0.9c0,0-1.3,4.6-6.1,4.6s-4.7-5.1-4.7-6.8c0-1.7-0.2-7.4,3-8.3
		c3.3-0.9,6,0.2,5.6,1.3c-0.2,0.5-0.4,1-0.5,1.3c-0.1,0.1-0.2,0.3-0.3,0.5c0,0,0,0,0,0l0,0c-0.1,0.2-0.1,0.4-0.1,0.6
		c0,1,0.8,1.8,1.8,1.8c1,0,1.8-0.8,1.8-1.8c0,0,0.4-5-6.2-5c-2.9,0-5.7,1.5-7.4,3.8c-2,2.7-2,6.3-0.5,9.2
		C224.5,38,227.3,39.6,230.4,39.6z"/>
	<path class="st1" d="M248.9,39.6c4.5,0,8.1-3.9,8.1-8.6s-3.6-8.6-8.1-8.6s-8.1,3.9-8.1,8.6S244.4,39.6,248.9,39.6z M248.9,23.4
		c3.9,0,4.3,3.4,4.3,7.6c0,4.2-0.7,7.6-4.3,7.6c-3.6,0-4.3-3.4-4.3-7.6C244.6,26.8,245.3,23.4,248.9,23.4z"/>
	<path class="st1" d="M262.3,37.7c0.8,0.7,3.3,1.8,4.5,1.8c1.2,0,6.4-0.5,6.4-5.5s-6.1-5.1-8-5.5c-1.9-0.4-2.7-1.2-3.1-2
		c-0.4-0.8,0.6-3.5,4.1-3.5s4.6,4.3,4.6,4.3h0.8v-4.7h-0.8c0,0-0.2,0.8-0.6,1.1c-0.4,0.3-0.8-1.5-4-1.5s-5.7,2-5.7,5.7
		s5.6,4.4,8.1,4.9c2.5,0.4,2.9,2,2.9,2.6s-0.7,3.2-4.6,3.2s-5.6-4.9-5.6-4.9h-0.8v5.3h0.8C261.1,39.1,261.4,37.1,262.3,37.7z"/>
	<rect x="238.1" y="68.9" class="st1" width="1.1" height="10.8"/>
	<path class="st1" d="M226,68.9h-0.7h-0.4l-3.6,10.8h1.1l1.1-3.3h4.6l1.2,3.3h1.1l-4-10.8H226z M223.8,75.5l1.9-5.6l2.1,5.6H223.8z"
		/>
	<polygon class="st1" points="273.4,78.3 270.9,68.9 270.5,68.9 269.8,68.9 269.3,68.9 266.8,78.3 264.6,68.9 263.5,68.9 
		266.1,79.7 266.5,79.7 267.2,79.7 267.6,79.7 270.1,70.2 272.7,79.7 273.1,79.7 273.8,79.7 274.2,79.7 276.8,68.9 275.7,68.9 	"/>
	<path class="st1" d="M287.4,68.9h-0.7h-0.4l-3.6,10.8h1.1l1.1-3.3h4.6l1.2,3.3h1.1l-4-10.8H287.4z M285.2,75.5l1.9-5.6l2.1,5.6
		H285.2z"/>
	<path class="st1" d="M253.3,74.9c0,0,3-0.2,3-3c0-2.8-3-3-3-3h-4.1h-0.6h-0.6v10.8h1.1v-4.9h2.3c0,0,2,0.9,3.7,4.9h1.7
		C257,79.7,254.8,75.3,253.3,74.9z M249.3,70h4.1c0,0,1.7,0.1,1.7,1.8c0,1.7-1.3,1.9-1.7,1.9h-4.1V70z"/>
	<polygon class="st1" points="301.8,74.1 298.8,68.9 297.2,68.9 301.3,75.2 301.3,79.7 302.4,79.7 302.4,75.2 306.6,68.9 
		305.2,68.9 	"/>
	<path class="st1" d="M316.9,73.2c-1.3-0.4-1.6-1-1.7-1.3c-0.1-0.3,0.1-2.1,2.4-2.1s2.8,2.1,2.8,2.1l1.1-0.1
		c-0.3-2.4-2.3-3.1-3.9-3.1c-1.6,0-3.6,1.1-3.6,3c0,1.9,2.6,2.8,4.4,3.3c1.8,0.4,2.2,1.3,2.2,2c0,0.7-0.5,1.9-2.9,1.9
		c-2.4,0-2.9-2.6-2.9-2.6h-1.1c0,0-0.2,3.8,3.9,3.8c4.1,0,4.6-3.2,3.9-4.5C320.9,74.2,318.3,73.6,316.9,73.2z"/>
	<linearGradient id="SVGID_1_" gradientUnits="userSpaceOnUse" x1="-1.426" y1="26.8489" x2="126.4492" y2="26.8489">
		<stop  offset="0" style="stop-color:#2756BE"/>
		<stop  offset="0.494" style="stop-color:#0883D9"/>
		<stop  offset="0.9995" style="stop-color:#2A51BB"/>
	</linearGradient>
	<path class="st2" d="M122.9,47.2c0,0-25.8,5.7-46.5,5.7S40.3,52.4,28,48.9S0.8,39.9,0.8,29.6S17.2,11.9,31.6,7.8s35-5.8,42.4-6.5
		s38.6-1.4,51.6,2.5c0,0-4.1,7.2-29.5,6.3c0,0-9.9-5-31.1-3.6s-31.7,5.1-33.6,14.2C29.5,30,44.1,36.3,47.2,37.5
		c3.1,1.2,20.9,7.3,36,8.8C98.4,47.7,114.1,48.7,122.9,47.2z"/>
	
		<linearGradient id="SVGID_00000165928752409748552220000008148652099644629410_" gradientUnits="userSpaceOnUse" x1="49.7877" y1="-10.7713" x2="72.7027" y2="37.2263">
		<stop  offset="0" style="stop-color:#FDD6D6"/>
		<stop  offset="0.9995" style="stop-color:#FB3641"/>
	</linearGradient>
	<path style="fill:url(#SVGID_00000165928752409748552220000008148652099644629410_);" d="M91.3,0.8c11.9,0,26.4,0.7,34.3,3
		c0,0-3.7,6.4-25.4,6.4c-1.3,0-2.7,0-4.2-0.1c0,0-7.6-3.8-23.6-3.8c-2.3,0-4.8,0.1-7.5,0.3c-21.2,1.4-31.7,5.1-33.6,14.2
		C29.5,30,44.1,36.3,47.2,37.5c3.1,1.2,20.9,7.3,36,8.8c9.8,0.9,19.8,1.7,28,1.7c4.5,0,8.5-0.2,11.6-0.7c0,0-25.8,5.7-46.5,5.7
		S40.3,52.4,28,48.9C15.6,45.3,0.8,39.9,0.8,29.6S17.2,11.9,31.6,7.8c14.5-4,35-5.8,42.4-6.5C77,1.1,83.6,0.8,91.3,0.8 M91.3,0
		C83.4,0,76.8,0.3,74,0.6c-0.5,0.1-1.1,0.1-1.8,0.2c-8.9,0.8-27.3,2.6-40.8,6.4C22,9.7,0,17.2,0,29.6c0,4.9,3.1,9.2,9.4,12.8
		c5.5,3.2,12.7,5.5,18.4,7.2C39.6,53,54,53.7,76.3,53.7c20.6,0,46.4-5.7,46.7-5.7l-0.3-1.5c-2.9,0.5-6.7,0.7-11.5,0.7
		c-7.1,0-16.3-0.5-27.9-1.7c-16.5-1.6-35.6-8.7-35.8-8.7c-0.9-0.3-5.6-2.2-9.6-5.2c-4.5-3.4-6.5-7-5.8-10.6
		C33.8,12.7,43.1,8.9,65,7.4c2.5-0.2,5-0.3,7.4-0.3c15.7,0,23.2,3.7,23.3,3.7l0.2,0.1l0.2,0c1.4,0,2.8,0.1,4.2,0.1
		c21.9,0,25.9-6.5,26-6.8l0.5-0.8l-0.9-0.3C117,0.4,100.4,0,91.3,0L91.3,0z"/>
	<g>
		
			<radialGradient id="SVGID_00000015324291812350143480000015784839968870189970_" cx="82.4579" cy="50.9606" r="23.4718" gradientUnits="userSpaceOnUse">
			<stop  offset="2.757988e-04" style="stop-color:#0883D9"/>
			<stop  offset="0.9995" style="stop-color:#2A51BB"/>
		</radialGradient>
		<path style="fill:url(#SVGID_00000015324291812350143480000015784839968870189970_);" d="M67.2,31.5c0,0-2.1,3.8-5.7,4.6
			l17.9,15.7c0,0-11.5,13.8-23.8,18h13.8c0,0-0.9-2.3,0.6-3.8s12.3-12.6,12.3-12.6l12.9,14.7c0,0,1,1.2,0.3,2.3h13.9
			c0,0-10.6-5.8-24.2-19.4c0,0,12.6-11,15.9-13.7s5.5-4.6,5.5-4.6H92.6c0,0,2.6,2,0.5,4.4s-11,12.1-11,12.1L67.2,31.5z"/>
		
			<radialGradient id="SVGID_00000127046169340300826580000014387707266189896323_" cx="81.5859" cy="50.6729" r="26.158" gradientUnits="userSpaceOnUse">
			<stop  offset="0" style="stop-color:#FDD6D6"/>
			<stop  offset="0.9995" style="stop-color:#FB3641"/>
		</radialGradient>
		<path style="fill:url(#SVGID_00000127046169340300826580000014387707266189896323_);" d="M67.2,31.5l14.9,17.6
			c0,0,8.9-9.7,11-12.1c2.1-2.4-0.5-4.4-0.5-4.4h13.9c0,0-2.3,2-5.5,4.6C97.8,40,85.1,51,85.1,51c13.6,13.6,24.2,19.4,24.2,19.4
			H95.5c0.8-1-0.3-2.3-0.3-2.3L82.3,53.4c0,0-10.8,11.1-12.3,12.6c-1.5,1.5-0.6,3.8-0.6,3.8H55.6c12.3-4.1,23.8-18,23.8-18
			L61.5,36.1C65,35.3,67.2,31.5,67.2,31.5 M67.1,30.2l-0.5,1c0,0.1-2,3.5-5.2,4.2l-1.5,0.3l1.1,1l17.3,15.2
			C76,54.5,65.9,65.5,55.3,69l-4.5,1.5h4.8h13.8h1.1L70,69.5c0-0.1-0.7-1.8,0.4-3c1.3-1.3,9.5-9.7,11.7-12l12.4,14.1
			c0,0.1,0.6,0.8,0.2,1.3l-0.9,1.2h1.5h13.9h3l-2.6-1.5c0,0-2.7-1.5-7-4.6C98.9,62.3,93,57.7,86.3,51c2.6-2.3,12.5-10.8,15.3-13.1
			c3.2-2.7,5.5-4.6,5.5-4.7l1.6-1.4h-2.1H92.6h-2.3l1.9,1.4c0,0,0.9,0.7,1,1.7c0.1,0.5-0.2,1-0.6,1.6c-1.8,2-8.4,9.2-10.4,11.5
			L67.8,31L67.1,30.2L67.1,30.2z"/>
	</g>
</g>
</svg>
