<?xml version="1.0" encoding="utf-8"?>
<!-- Generator: Adobe Illustrator 25.4.1, SVG Export Plug-In . SVG Version: 6.00 Build 0)  -->
<svg version="1.1" id="Layer_1" xmlns="http://www.w3.org/2000/svg" xmlns:xlink="http://www.w3.org/1999/xlink" x="0px" y="0px"
	 viewBox="0 0 132.46 80" style="enable-background:new 0 0 132.46 80;" xml:space="preserve">
<style type="text/css">
	.st0{fill-rule:evenodd;clip-rule:evenodd;fill:#E62A37;stroke:#E30016;stroke-width:0.216;stroke-miterlimit:10;}
	.st1{fill-rule:evenodd;clip-rule:evenodd;fill:#CB0039;stroke:#CB0039;stroke-width:0.216;stroke-miterlimit:10;}
	.st2{fill-rule:evenodd;clip-rule:evenodd;fill:#FFD400;stroke:#FFE84B;stroke-width:0.216;stroke-miterlimit:10;}
	.st3{fill-rule:evenodd;clip-rule:evenodd;fill:#FFFFFF;}
</style>
<path class="st0" d="M2.87,31.81c0,0,0.65-1.74,1.55-3.74c0.86-1.89,1.94-4.03,2.71-5.23c0.11-0.16,0.15-0.25,0.17-0.28c0,0,0,0,0,0
	c0,0,0.01,0.01,0.01,0.01c0.02,0.01,0.06,0.04,0.09,0.05C7.51,22.69,7.7,22.8,8,22.97c2.13,1.14,7.42,4.47,10.2,6.24
	c1.07,0.69,1.77,1.15,1.77,1.15s-4.96-6.92-5.48-8.03c-0.88-1.87,0.59-1.9,2.01-1.21c0.88,0.43,5.73,3.23,10.24,7.27
	c4.51,4.04,10.55,10.12,15.25,18.25c4.71,8.13,6.13,10.88,9.79,13.3c3.66,2.43,6.94,2.9,12.07,2.99c3.77,0.07,7.55-0.15,11.34-0.27
	c2.39-0.08,4.79-0.19,7.18-0.23c0.7-0.01,1.4-0.03,2.1-0.03c0.68,0,1.36,0.02,2.03,0.02c0.73,0,1.47,0,2.2,0
	c2.14,0,4.28-0.05,6.39,0.12c1.69,0.14,3.28,0.39,4.09,0.6c0.7,0.18,1.52,0.42,2.5,0.89c1.03,0.49,1.63,1.11,2.48,1.73
	c0.44,0.32,0.79,0.61,1.33,0.88c0.54,0.27,1.29,0.53,1.91,0.69c2.53,0.65,9.31,1.1,12.64,1.21c3.33,0.12,4.96,0.22,7.05,0.48
	c1.89,0.24,4.24,0.63,5.38,2.29c0.02,0.03-0.62,0.02-1.69,0.08c-2.75,0.15-8.32,0.05-12.57,0.33c-5.89,0.38-15.94,0.9-19.62,1.09
	c-3.68,0.19-8.51-0.24-13.31-0.76c-4.8-0.52-14.4-2-19.72-1.85c-15.44,0.41-25.54,5.51-44.95,8.5c-2.13,0.33-4.35,0.8-6.51,0.97
	c-0.32,0.02-0.63,0.04-0.92,0.06c-0.08,0-0.12,0-0.13,0c-0.06-0.06-0.03-0.02-0.12-0.12C10.15,76.48,7.65,72.26,6,68.39
	c-0.82-1.92-1.11-2.81-1.68-4.62c-0.07-0.23-0.08-0.19,0.02-0.22c1.53-0.45,2.07-0.67,4.09-1.92c2.24-1.38,3.85-3.31,4.42-4.54
	c1.45-3.12,1.51-6.49,0.33-9.72c-1.4-3.87-2.79-6.04-4.75-8.9c-0.37-0.54-0.77-1.06-1.16-1.58c-0.65-0.86-1.33-1.67-2-2.46
	c-0.41-0.48-0.82-0.95-1.23-1.39C3.66,32.61,3.26,32.2,2.87,31.81z"/>
<path class="st1" d="M52.83,60.58c0,0,0.56,0.36,1.41,0.73c0.78,0.34,1.79,0.7,2.8,0.94c2.11,0.5,3.49,0.55,5.16,0.63
	c0.85,0.04,2.61,0.07,4.36,0.05c1.67-0.01,3.32-0.07,4.15-0.11c1.06-0.05,6.29-0.25,10.14-0.36c2.26-0.06,4.05-0.07,4.24-0.06
	c4.68,0.12,9.98-0.36,14.54,0.87c0.5,0.14,0.99,0.3,1.46,0.51c0.09,0.03,0.29,0.12,0.43,0.18c0.02,0.01-0.01,0-0.04-0.03
	c-0.03-0.03-0.07-0.07-0.12-0.11c-0.13-0.11-1.2-0.94-3.1-1.6c-1.13-0.39-1.73-0.5-2.19-0.56c-0.46-0.07-0.79-0.09-1.42-0.13
	c-1.26-0.07-4.94-0.36-7.84-0.38s-13.99,0.24-15.87,0.38c-1.88,0.14-6.58,0.17-8.86,0.17C59.8,61.69,55.79,61.6,52.83,60.58z"/>
<path class="st2" d="M93.97,61.49c0,0,0.34-1.19,0.36-1.3c1.04-4.69,1.77-9.39,1.52-14.22c-0.26-5.04-1.35-10.34-3.08-15.06
	C88,17.93,77.05,7.44,64.12,2.78c-7.47-2.7-15.64-3.46-23.48-2.17c-8.08,1.34-15.59,4.55-22.1,9.6c-3.86,2.99-7.98,7.26-10.63,11.45
	c-0.23,0.36-0.52,0.77-0.6,0.91c-0.01,0.02,2.88,1.63,5.7,3.38c1.73,1.07,3.47,2.17,5.19,3.26c-0.1-0.13-1.14-1.49-1.53-2.06
	c-0.4-0.6-1.65-2.3-2.09-2.92c-0.44-0.62-1.87-2.75-2.13-3.26c-0.8-1.59,0.44-1.8,1.69-1.22c0.61,0.31,1.04,0.54,1.55,0.84
	c0.64,0.37,0.98,0.56,1.67,0.99c0,0,2.07,1.18,4.45,2.87c2.14,1.53,4.52,3.49,6.11,4.97c0.87,0.81,2.05,1.97,3.44,3.37
	c3.84,3.87,8.52,9.83,11.62,15.55c1.09,1.99,1.86,3.23,2.54,4.35c0.38,0.62,0.72,1.19,1.08,1.74c0.31,0.48,0.65,0.94,0.98,1.44
	c0.25,0.38,0.61,0.8,0.98,1.25c0.89,1.07,2.15,2.28,4.21,3.42c0.13,0.07,0.27,0.11,0.39,0.15c0.21,0.07,0.4,0.13,0.59,0.17
	c0.36,0.08,0.71,0.18,1.14,0.27c1.24,0.24,2.84,0.45,4.68,0.5c2.45,0.07,4.45,0.07,6.42,0.05c1.31-0.02,2.61-0.04,4.02-0.1
	c3.81-0.17,5.73-0.28,7.32-0.28c0.95,0,2.14-0.05,3.99-0.08c1.45-0.02,2.7-0.04,4.15-0.06c1.69-0.02,3.06,0.03,4.4,0.09
	c0.82,0.04,1.65,0.09,2.47,0.14C92.9,61.42,93.44,61.45,93.97,61.49z M19.35,29.96c0.22,0.14,0.43,0.27,0.56,0.36
	c0.02,0.02,0.03,0.02,0.05,0.03L19.35,29.96z M19.96,30.36L19.96,30.36c-0.01-0.01,0-0.01-0.01-0.02c-0.08-0.11-0.25-0.35-0.55-0.77
	c-0.1-0.14-0.19-0.28-0.31-0.44C19.51,29.72,19.93,30.31,19.96,30.36z"/>
<path class="st1" d="M130.15,69.67c0,0-0.82-0.27-1.32-0.37c-0.51-0.09-1.05-0.2-1.89-0.3c-0.84-0.1-1.73-0.2-3.35-0.3
	c-1.63-0.1-3.88-0.17-5.21-0.24c-1.33-0.07-3.19-0.18-4.62-0.3c-0.74-0.06-1.54-0.14-2.32-0.22c-0.72-0.07-1.42-0.16-2.06-0.25
	c-0.93-0.13-1.43-0.22-1.98-0.37c-0.23-0.06-0.48-0.12-0.75-0.21c-0.71-0.23-1.43-0.54-2.03-0.99c-0.14-0.1-0.35-0.24-0.48-0.36
	c-0.03-0.03,0.09,0.01,0.16,0.03c0.29,0.08,1.46,0.39,2.47,0.52c5.86,0.78,11.76,0.74,17.63,1.38
	C126.22,67.9,128.71,68.23,130.15,69.67z"/>
<path class="st3" d="M22.46,19.89c0,0,1.56,0.48,3.63,1.75c4.22,2.57,8.34,5.5,12.05,8.91c1.56,1.43,5.06,4.92,6.44,6.51
	c1.38,1.59,4.59,5.56,6.2,8.22c1.62,2.66,2.38,3.9,3.26,5.37c0.88,1.47,2.38,3.68,3.14,4.68c0.76,1,2.35,2.68,3.77,3.53
	c0.52,0.31,0.21,0.2-0.3,0.11c-0.94-0.15-2.08-0.4-3.51-1.15c-1.31-0.69-2.71-1.76-3.92-3.21c-0.68-0.82-2.22-2.79-3.33-4.65
	c-2.07-3.47-4.14-7.02-6.51-10.3c-0.69-0.95-3.8-4.78-5.01-6.13c-1.21-1.35-4.8-5.04-7.08-6.99C28.98,24.6,25.37,21.76,22.46,19.89z
	"/>
<path class="st1" d="M13.05,79.72c0,0-0.73,0.06-1.27-0.46c-0.54-0.52-2.52-2.62-3.9-4.94c-2.3-3.88-4.25-7.57-5.63-11.87
	c0,0,2.76-1.21,3.9-1.85c1.14-0.64,2.97-2.04,3.49-2.61c0.52-0.57,1.99-2.33,2.4-3.54c0.4-1.21,0.92-2.83,0.76-4.54
	c-0.17-1.71-0.48-3.99-1.45-6.06c-0.98-2.07-2.14-4.08-2.4-4.59c-0.26-0.51,2.11,3.22,2.68,4.45c0.57,1.23,1.18,2.56,1.53,3.61
	c0.36,1.05,0.75,2.56,0.79,3.64c0.05,1.08,0.04,2.11-0.13,2.99c-0.17,0.88-0.44,1.87-0.87,2.83c-0.43,0.96-1.28,2.19-2.42,3.22
	c-1.14,1.02-2.35,1.76-2.85,2.05c-0.5,0.29-1.31,0.76-1.75,0.93c-0.44,0.17-1.68,0.58-1.68,0.58s0.64,2.08,0.93,2.82
	c0.29,0.74,1,2.55,1.64,3.83c0.64,1.29,1.47,2.9,2.02,3.75c0.55,0.86,1.46,2.39,2.2,3.31C11.8,78.19,12.62,79.32,13.05,79.72z"/>
<path class="st1" d="M17.36,21.58c-0.27-0.18-2.3-1.38-3.16-1.8c-1.27-0.62-2.56-0.42-1.75,1.19c0.26,0.51,1.69,2.64,2.13,3.26
	c0.44,0.62,1.69,2.32,2.09,2.92c0.4,0.59,1.53,2.07,1.53,2.07l1.76,1.14c0,0-1.41-1.98-1.7-2.4c-0.19-0.27-1.13-1.62-1.81-2.6
	c-0.4-0.58-0.84-1.24-1.27-1.89c-0.31-0.48-0.65-0.94-0.82-1.42c-0.16-0.46-0.2-0.84-0.05-1.06c0.18-0.26,0.48-0.31,0.84-0.29
	C15.91,20.75,16.91,21.3,17.36,21.58z"/>
<path class="st2" d="M2.87,31.82c0,0-0.59,1.13-1.66,5.74c-1.74,7.5-1.63,15.56,0.5,23c0.62,2.16,0.54,1.89,0.54,1.89
	s1.16-0.51,1.35-0.6c0.19-0.09,1.35-0.63,1.55-0.73c1.26-0.6,2.65-1.48,3.81-2.5c0.66-0.58,1.2-1.24,1.7-1.85
	c0.9-1.11,1.45-2.45,1.6-2.97c0.07-0.25,0.27-0.92,0.4-1.56c0.14-0.64,0.16-1.25,0.17-1.46c0.03-0.55-0.14-1.88-0.22-2.47
	c-0.08-0.59-0.42-2.27-0.66-2.93c-0.09-0.26-0.26-0.76-0.46-1.23c-0.32-0.73-0.71-1.47-0.83-1.71c-0.08-0.15-0.29-0.6-0.57-1.11
	c-0.46-0.83-1.02-1.84-1.16-2.11c-0.25-0.47-1.64-2.31-1.86-2.62c-0.23-0.31-2.12-2.56-2.48-2.98C4.22,33.2,3.06,31.98,2.87,31.82z"
	/>
</svg>
