<?xml version="1.0" encoding="utf-8"?>
<!-- Generator: Adobe Illustrator 25.4.1, SVG Export Plug-In . SVG Version: 6.00 Build 0)  -->
<svg version="1.1" id="Layer_1" xmlns="http://www.w3.org/2000/svg" xmlns:xlink="http://www.w3.org/1999/xlink" x="0px" y="0px"
	 viewBox="0 0 171.94 80" style="enable-background:new 0 0 171.94 80;" xml:space="preserve">
<style type="text/css">
	.st0{fill-rule:evenodd;clip-rule:evenodd;fill:#004595;}
	.st1{fill-rule:evenodd;clip-rule:evenodd;fill:#E53138;}
	.st2{fill-rule:evenodd;clip-rule:evenodd;fill:#FFED00;}
</style>
<g>
	<path class="st0" d="M22.47,48.92c0,0-20.93,29.02-22.47,31.08c3.21-0.52,12.2-2.44,19.39-11.69l14.13-17.98
		c0.26-0.26,4.24-5.26,10.27-6.29l61.25-11.3c14.77-2.83,30.43-8.99,46.61-18.62C161.54,8.22,168.73,2.7,171.94,0
		C166.42,1.41,51.11,29.66,51.11,29.66C31.59,34.41,22.6,48.8,22.47,48.92L22.47,48.92z"/>
	<path class="st1" d="M12.71,79.36c5.26-0.13,18.88-0.64,18.88-0.64c15.8-0.51,28.12-10.27,31.85-13.61
		c-4.24,0.38-31.59,2.83-31.59,2.83s-6.42,0.51-6.81,0.64C19.78,74.99,15.54,77.94,12.71,79.36L12.71,79.36z"/>
	<path class="st2" d="M37.11,53.55c0,0-6.16,7.58-7.58,9.37c2.57-0.26,32.62-3.47,32.62-3.47c10.14-1.16,20.67-4.88,31.46-11.3
		c6.29-3.72,10.79-7.32,12.97-9.12c-7.06,1.16-61,10.02-61,10.02C40.19,49.95,37.24,53.42,37.11,53.55L37.11,53.55z"/>
</g>
</svg>
