<?xml version="1.0" encoding="utf-8"?>
<!-- Generator: Adobe Illustrator 25.4.1, SVG Export Plug-In . SVG Version: 6.00 Build 0)  -->
<svg version="1.1" id="Layer_1" xmlns="http://www.w3.org/2000/svg" xmlns:xlink="http://www.w3.org/1999/xlink" x="0px" y="0px"
	 viewBox="0 0 228.93 80" style="enable-background:new 0 0 228.93 80;" xml:space="preserve">
<style type="text/css">
	.st0{fill-rule:evenodd;clip-rule:evenodd;fill:#004595;}
	.st1{fill-rule:evenodd;clip-rule:evenodd;fill:#E53138;}
	.st2{fill-rule:evenodd;clip-rule:evenodd;fill:#FFED00;}
</style>
<g>
	<path class="st0" d="M31.04,35.73c0,0-15.29,21.2-16.41,22.7c2.35-0.38,8.91-1.78,14.16-8.54l10.32-13.13
		c0.19-0.19,3.09-3.85,7.5-4.6l44.74-8.25c10.79-2.06,22.23-6.57,34.04-13.6C132.61,6,137.87,1.97,140.21,0
		c-4.03,1.03-88.25,21.66-88.25,21.66C37.7,25.13,31.14,35.64,31.04,35.73L31.04,35.73z"/>
	<path class="st1" d="M23.92,57.96c3.85-0.09,13.79-0.47,13.79-0.47c11.54-0.37,20.54-7.5,23.26-9.94
		c-3.1,0.28-23.07,2.06-23.07,2.06s-4.69,0.37-4.97,0.47C29.07,54.77,25.98,56.93,23.92,57.96L23.92,57.96z"/>
	<path class="st2" d="M41.74,39.11c0,0-4.5,5.53-5.53,6.85c1.88-0.19,23.82-2.53,23.82-2.53c7.41-0.84,15.1-3.56,22.98-8.25
		c4.6-2.72,7.88-5.35,9.47-6.66c-5.16,0.84-44.55,7.31-44.55,7.31C43.99,36.48,41.83,39.02,41.74,39.11L41.74,39.11z"/>
	<path class="st0" d="M121.64,64.81c-0.38-0.94-0.94-1.6-1.78-1.97c-0.84-0.37-2.06-0.56-3.56-0.56h-1.41h-6.38h-1.41
		c-1.22,0-2.25,0.09-3.19,0.38c-0.84,0.19-1.5,0.47-2.16,0.94c-0.56,0.56-1.03,1.13-1.41,1.97c-0.38,0.75-0.66,1.78-0.94,3L98.48,74
		c-0.19,1.03-0.19,1.97-0.09,2.72c0.09,0.75,0.37,1.41,0.84,1.88c0.37,0.47,1.03,0.84,1.78,1.12c0.75,0.19,1.78,0.28,3,0.28h1.31
		h6.47h1.41c1.22,0,2.25-0.09,3.09-0.28c0.94-0.19,1.59-0.56,2.16-1.03c0.56-0.47,1.03-1.12,1.41-1.87
		c0.28-0.75,0.56-1.69,0.75-2.81l0.94-5.44C121.92,66.96,121.92,65.65,121.64,64.81L121.64,64.81z M107.01,76.53
		c-0.94,0-1.59-0.09-1.97-0.28c-0.47-0.19-0.75-0.47-0.84-0.84c-0.19-0.47-0.19-1.03,0-1.87l0.75-4.5c0.19-0.84,0.47-1.5,0.75-1.97
		c0.28-0.47,0.66-0.75,1.13-0.94c0.56-0.19,1.22-0.28,2.16-0.28h4.13c0.84,0,1.5,0.09,1.97,0.28c0.47,0.09,0.75,0.47,0.84,0.94
		c0.19,0.38,0.19,1.03,0,1.97l-0.84,4.5c-0.09,0.84-0.28,1.41-0.56,1.87c-0.28,0.38-0.66,0.66-1.13,0.84
		c-0.47,0.19-1.22,0.28-2.16,0.28H107.01L107.01,76.53z"/>
	<path class="st0" d="M185.89,64.81c-0.28-0.94-0.84-1.6-1.69-1.97c-0.84-0.37-2.06-0.56-3.56-0.56h-1.41h-6.38h-1.41
		c-1.22,0-2.34,0.09-3.19,0.38c-0.84,0.19-1.5,0.47-2.16,0.94c-0.56,0.56-1.03,1.13-1.41,1.97c-0.37,0.75-0.66,1.78-0.94,3
		L162.81,74c-0.19,1.03-0.19,1.97-0.09,2.72c0.09,0.75,0.38,1.41,0.75,1.88c0.47,0.47,1.13,0.84,1.88,1.12
		c0.75,0.19,1.78,0.28,3,0.28h1.31h6.47h1.31c1.31,0,2.35-0.09,3.19-0.28c0.84-0.19,1.6-0.56,2.16-1.03
		c0.56-0.47,1.03-1.12,1.41-1.87c0.28-0.75,0.56-1.69,0.75-2.81l0.94-5.44C186.26,66.96,186.26,65.65,185.89,64.81L185.89,64.81z
		 M171.35,76.53c-0.94,0-1.59-0.09-1.97-0.28c-0.47-0.19-0.75-0.47-0.84-0.84c-0.19-0.47-0.19-1.03,0-1.87l0.75-4.5
		c0.19-0.84,0.47-1.5,0.66-1.97c0.28-0.47,0.75-0.75,1.22-0.94c0.56-0.19,1.22-0.28,2.16-0.28h4.13c0.84,0,1.5,0.09,1.97,0.28
		c0.47,0.09,0.75,0.47,0.84,0.94c0.19,0.38,0.19,1.03,0,1.97l-0.84,4.5c-0.09,0.84-0.28,1.41-0.56,1.87
		c-0.28,0.38-0.66,0.66-1.12,0.84c-0.47,0.19-1.22,0.28-2.16,0.28H171.35L171.35,76.53z"/>
	<path class="st0" d="M34.23,62.65c-0.19,0-0.38,0.09-0.56,0.19c-0.66,0.19-1.13,0.47-1.59,0.75c-0.56,0.56-1.03,1.13-1.41,1.97
		c-0.28,0.66-0.56,1.41-0.75,2.25l-1.22,6.85L27.76,80c0.94,0,1.69-0.09,2.35-0.28c0.94-0.19,1.59-0.56,2.16-1.03
		c0.56-0.47,1.03-1.12,1.41-1.87c0.28-0.56,0.47-1.41,0.66-2.34l1.22-6.57l0.94-5.53C35.64,62.37,34.89,62.46,34.23,62.65
		L34.23,62.65z"/>
	<path class="st0" d="M162.44,65.74c-0.09-0.75-0.38-1.41-0.75-1.97c-0.47-0.47-1.03-0.84-1.78-1.12c-0.75-0.19-1.69-0.38-2.72-0.38
		h-1.41h-12.29h-1.41v0.09L138.99,80c0.84,0,1.69-0.09,2.34-0.28c0.84-0.19,1.6-0.56,2.16-1.03c0.56-0.47,1.03-1.12,1.31-1.87
		c0.38-0.75,0.66-1.69,0.84-2.81l0.94-5.44l0.47-2.72h6.28c1.5,0,2.44,0.19,2.91,0.66c0.47,0.56,0.66,1.31,0.47,2.35l-0.84,4.69
		c-0.19,0.75-0.38,1.31-0.66,1.69c-0.28,0.47-0.75,0.75-1.31,1.03c-0.28,0.09-0.56,0.09-0.94,0.19c-0.47,0.09-0.94,0.09-1.5,0.09
		h-1.78c-0.47,0-0.94,0.09-1.31,0.19c-0.84,0.19-1.6,0.56-2.16,1.03c-0.56,0.47-1.03,1.12-1.41,1.87c-0.09,0.19-0.09,0.28-0.19,0.37
		h8.06h1.41c1.5,0,2.72-0.19,3.75-0.66c0.94-0.47,1.78-1.12,2.34-2.06c0.19-0.28,0.28-0.56,0.38-0.84c0.38-0.84,0.66-1.78,0.94-3
		l0.75-4.69C162.53,67.62,162.53,66.59,162.44,65.74L162.44,65.74z"/>
	<path class="st0" d="M98.01,64.81c-0.28-0.94-0.84-1.6-1.78-1.97c-0.56-0.28-1.41-0.47-2.44-0.47c-0.94,0-1.69,0.09-2.34,0.28
		c-0.84,0.19-1.59,0.47-2.16,0.94c-0.28,0.28-0.56,0.47-0.75,0.75c0,0.09-0.09,0.09-0.09,0.09l-0.66,1.12l-5.63,9.57l-2.25-9.57
		l-0.28-0.94c0-0.09-0.09-0.19-0.09-0.28c-0.19-0.47-0.47-0.75-0.84-1.03c-0.19-0.19-0.47-0.38-0.75-0.47
		c-0.56-0.28-1.41-0.47-2.44-0.47c-0.84,0-1.69,0.09-2.34,0.28c-0.19,0-0.38,0.09-0.56,0.19c-0.66,0.19-1.13,0.47-1.59,0.75
		c-0.56,0.56-1.03,1.13-1.41,1.97c-0.28,0.56-0.56,1.32-0.75,2.06l-1.22,7.13l-0.75,4.32L66.68,80c0.75,0,1.31-0.09,1.97-0.19
		c0.09-0.09,0.28-0.09,0.47-0.09c0.84-0.19,1.5-0.56,2.06-1.03c0.56-0.47,1.03-1.12,1.41-1.87c0.28-0.66,0.56-1.6,0.75-2.63
		l1.03-5.91l0.09-0.56l0.94,3.56l1.31,5.44L77,77.56c0.09,0.37,0.28,0.75,0.56,1.03c0.47,0.47,1.03,0.84,1.78,1.12
		c0.56,0.09,1.31,0.19,1.97,0.28c0.84-0.09,1.5-0.19,2.16-0.28c0.84-0.19,1.5-0.56,2.06-1.03c0.28-0.19,0.47-0.47,0.66-0.75h0.09
		l0.66-1.12l3.38-5.63l2.16-3.47l-0.19,0.56l-1.03,6c-0.09,0.94-0.19,1.78-0.09,2.44c0.09,0.75,0.38,1.41,0.84,1.88
		c0.28,0.37,0.75,0.66,1.31,0.94c0.19,0,0.28,0.09,0.47,0.19c0.56,0.19,1.31,0.19,2.06,0.28l0.19-0.84l0.66-3.56l1.5-8.54
		C98.2,66.12,98.2,65.37,98.01,64.81L98.01,64.81z"/>
	<path class="st0" d="M212.61,62.27h-1.03h-0.28c-1.31,0-2.34,0.09-3.19,0.38c-0.84,0.19-1.6,0.47-2.16,0.94
		c-0.19,0.19-0.38,0.38-0.56,0.66l-0.66,0.94l-0.28,0.37l-7.13,10.13l-3.56-10.6l-0.38-0.84c-0.28-0.66-0.84-1.12-1.5-1.41
		c-0.66-0.28-1.6-0.47-2.72-0.47c-0.28-0.09-0.56-0.09-0.84-0.09h-0.47h-0.94h-0.47l0.19,0.38l5.06,14.44l1.13,2.91h1.31h0.38h1.31
		c1.31,0,2.34-0.09,3.19-0.28c0.84-0.19,1.59-0.56,2.16-1.03c0.19-0.19,0.28-0.37,0.47-0.47l0.66-0.94l0.28-0.37l10.32-14.63
		L212.61,62.27L212.61,62.27z"/>
	<path class="st0" d="M26.26,79.72l-2.63-7.5l-2.44-7.13l-0.94-2.81h-1.41h-0.38h-1.31c-1.31,0-2.35,0.09-3.19,0.38
		c-0.84,0.19-1.59,0.47-2.16,0.94c-0.28,0.28-0.47,0.47-0.75,0.75l-0.19,0.38l-0.47,0.66L0,80h0.47h0.94h0.47
		c1.22,0,2.25-0.09,3.09-0.28c0.94-0.19,1.59-0.56,2.16-1.03c0.19-0.19,0.38-0.37,0.56-0.66l0.47-0.66L8.44,77l1.03-1.41l6.1-8.82
		l1.88,5.44c-0.19,0-0.28,0-0.47,0c-0.84,0-1.69,0.09-2.35,0.28c-0.84,0.19-1.59,0.56-2.16,1.03c-0.66,0.47-1.13,1.12-1.5,1.87
		c0,0.09,0,0.09,0,0.19h7.6l0.56,1.6l0.19,0.75c0.19,0.19,0.28,0.47,0.47,0.66c0.47,0.47,1.03,0.84,1.88,1.12
		c0.75,0.19,1.78,0.28,2.91,0.28h0.47h0.94h0.47L26.26,79.72L26.26,79.72z"/>
	<path class="st0" d="M228.84,79.72l-2.63-7.5l-2.44-7.13l-1.03-2.81h-1.31h-0.38h-1.41c-1.22,0-2.25,0.09-3.09,0.38
		c-0.84,0.19-1.59,0.47-2.16,0.94c-0.28,0.28-0.47,0.47-0.75,0.75l-0.28,0.38l-0.38,0.66L202.58,80h0.47h0.94h0.38
		c1.31,0,2.35-0.09,3.19-0.28c0.84-0.19,1.59-0.56,2.16-1.03c0.19-0.19,0.38-0.37,0.56-0.66l0.47-0.66l0.28-0.37l1.03-1.41l6.1-8.82
		l1.88,5.44c-0.19,0-0.28,0-0.47,0c-0.94,0-1.69,0.09-2.44,0.28c-0.84,0.19-1.5,0.56-2.16,1.03c-0.56,0.47-1.03,1.12-1.41,1.87
		c0,0.09,0,0.09-0.09,0.19h7.69l0.56,1.6l0.19,0.75c0.09,0.19,0.28,0.47,0.47,0.66c0.47,0.47,1.03,0.84,1.78,1.12
		c0.84,0.19,1.78,0.28,3,0.28h0.47h0.94h0.38L228.84,79.72L228.84,79.72z"/>
	<path class="st0" d="M57.02,71.18c0.47-0.66,0.75-1.59,1.03-2.63c0.19-1.22,0.19-2.25,0-3.09c-0.09-0.84-0.47-1.41-0.94-1.88
		c-0.28-0.37-0.66-0.56-1.13-0.75c-0.19-0.09-0.37-0.19-0.66-0.28c-0.66-0.19-1.59-0.28-2.53-0.28h-0.47h-0.94h-5.53h-1.41
		c-1.22,0-2.25,0.09-3.09,0.38c-0.19,0-0.38,0.09-0.56,0.19c-0.66,0.19-1.22,0.47-1.59,0.75c-0.66,0.56-1.13,1.13-1.5,1.97
		c-0.28,0.66-0.56,1.6-0.75,2.63l-1.13,6.19L34.89,80c0.94,0,1.78-0.09,2.44-0.28c0.84-0.19,1.59-0.56,2.16-1.03
		c0.56-0.47,1.03-1.12,1.31-1.87c0.19-0.28,0.37-0.75,0.47-1.12l0.19-0.94c0,0,0.75-4.88,0.94-5.81c0.19-0.84,0.38-3.1,3.47-3.1
		c3,0,4.6,0,4.6,0c0.94,0,1.5,0.19,1.78,0.56c0.19,0.28,0.28,0.75,0.28,1.22c0,0.28-0.09,0.56-0.09,0.94
		c-0.09,0.38-0.19,0.75-0.38,1.12c-0.09,0.38-0.38,0.66-0.56,0.94c-0.28,0.28-0.75,0.47-1.31,0.56c-0.19,0-0.38,0.09-0.66,0.09
		h-1.41c-0.47,0-0.94,0.09-1.31,0.19c-0.84,0.19-1.59,0.56-2.16,1.03c-0.66,0.47-1.13,1.13-1.5,1.88c0,0.09-0.09,0.28-0.09,0.37
		h5.16c1.22,0,2.06,0.19,2.53,0.56c0.19,0.28,0.38,0.47,0.47,0.84c0,0.19,0,0.38,0,0.66c0.09,0.75,0.38,1.31,0.75,1.78
		c0.47,0.47,1.13,0.84,1.88,1.03c0.66,0.28,1.5,0.37,2.44,0.37l0.47-2.34l0.19-1.31c0.19-0.66,0.09-1.22-0.09-1.69
		c-0.19-0.37-0.37-0.66-0.75-0.84c-0.28-0.09-0.75-0.37-1.5-0.66c0.94-0.47,1.59-1.03,2.25-1.78
		C56.83,71.37,56.93,71.28,57.02,71.18L57.02,71.18z"/>
	<path class="st0" d="M137.4,78.97c-0.28-0.94-0.84-1.6-1.78-1.97c-0.56-0.28-1.31-0.38-2.25-0.47h-3.66c-0.19,0-0.38,0-0.47-0.09
		c-0.28,0-0.56-0.09-0.75-0.09c-0.47-0.19-0.75-0.47-0.84-0.94c-0.09-0.37-0.09-0.84,0-1.41l0.94-5.35l1.13-6.28
		c-0.84,0-1.59,0.09-2.25,0.28c-0.84,0.19-1.59,0.47-2.16,0.94c-0.66,0.56-1.13,1.13-1.5,1.97c-0.28,0.66-0.47,1.41-0.75,2.35
		l-1.12,6.66c-0.09,0.75-0.09,1.41-0.09,1.97c0,0.09,0,0.19,0,0.19c0.09,0.75,0.38,1.41,0.84,1.88c0.47,0.47,1.03,0.84,1.78,1.12
		c0.84,0.19,1.78,0.28,3,0.28h1.41h6.38h0.94h0.47h0.94l0,0l0,0C137.49,79.63,137.49,79.25,137.4,78.97L137.4,78.97z"/>
</g>
</svg>
