<?xml version="1.0" encoding="utf-8"?>
<!-- Generator: Adobe Illustrator 25.4.1, SVG Export Plug-In . SVG Version: 6.00 Build 0)  -->
<svg version="1.1" id="Layer_1" xmlns="http://www.w3.org/2000/svg" xmlns:xlink="http://www.w3.org/1999/xlink" x="0px" y="0px"
	 viewBox="0 0 103.4 80" style="enable-background:new 0 0 103.4 80;" xml:space="preserve">
<style type="text/css">
	.st0{fill-rule:evenodd;clip-rule:evenodd;fill:#AD0D17;}
</style>
<g>
	<path class="st0" d="M74.97,0H45.79C31.19,23.65,16.35,47.3,1.76,70.94c4.03-1.76,8.05-3.27,12.33-5.03
		c8.05-3.02,16.6-5.79,24.91-8.05c8.3-2.52,16.86-4.28,25.16-5.79c6.54-1.01,13.08-2.01,19.62-2.01C80.75,33.46,77.74,16.6,74.97,0z
		 M41.26,49.81c5.03-9.56,10.06-19.37,15.09-28.93h0.25c0.75,9.56,1.76,19.37,2.77,28.93H41.26z"/>
	<path class="st0" d="M89.31,49.31c1.51,1.51,3.02,2.77,4.53,4.03c-0.75,2.01-1.76,4.03-2.52,5.79c4.03-2.52,8.05-5.28,12.08-8.05
		C98.62,50.57,94.09,50.06,89.31,49.31z"/>
	<path class="st0" d="M75.72,51.32c2.77-0.25,5.28-0.5,8.05-0.5c0.25,1.26,0.5,2.26,0.5,3.27c-5.53,0.75-11.32,1.76-16.86,3.27
		c-12.58,3.02-24.91,7.3-36.73,12.08C23.14,72.7,15.6,75.97,8.55,79.75C8.3,79.75,8.3,80,8.05,80C5.28,79.75,2.77,80,0,79.75
		c6.29-3.27,12.58-6.54,18.87-9.56c7.8-3.52,15.35-6.79,23.4-9.81c7.04-2.77,14.59-5.28,21.89-7.04
		C67.92,52.58,71.95,51.82,75.72,51.32z"/>
	<path class="st0" d="M80.75,55.35c1.26-0.25,2.52-0.25,3.77-0.25c0.25,1.51,0.5,3.27,1.01,4.78c-4.78,0.75-9.31,1.51-13.84,2.52
		c-5.53,1.26-11.07,2.77-16.35,4.53h-8.81c5.79-3.02,12.08-5.53,18.36-7.55C70.19,57.61,75.47,56.1,80.75,55.35z"/>
	<path class="st0" d="M75.72,62.39c3.27-0.75,6.54-1.26,9.81-1.51C86.79,67.17,87.8,73.46,88.8,80H62.14
		c-0.25-4.53-0.75-8.81-1.26-13.08C65.91,65.16,70.69,63.65,75.72,62.39z"/>
	<path class="st0" d="M21.64,80c1.76-1.26,3.52-2.26,5.53-3.27c-0.75,1.01-1.26,2.01-1.76,3.27C24.15,79.75,22.89,80,21.64,80z"/>
</g>
</svg>
