<?xml version="1.0" encoding="utf-8"?>
<!-- Generator: Adobe Illustrator 25.4.1, SVG Export Plug-In . SVG Version: 6.00 Build 0)  -->
<svg version="1.1" id="Layer_1" xmlns="http://www.w3.org/2000/svg" xmlns:xlink="http://www.w3.org/1999/xlink" x="0px" y="0px"
	 viewBox="0 0 648.66 80" style="enable-background:new 0 0 648.66 80;" xml:space="preserve">
<style type="text/css">
	.st0{fill-rule:evenodd;clip-rule:evenodd;fill:#AD0D17;}
	.st1{fill-rule:evenodd;clip-rule:evenodd;fill:#5B5B5E;}
</style>
<g>
	<path class="st0" d="M141.35,0.06c1.79-0.22,3.8,0.22,5.36,0.89c2.46,1.34,4.47,3.57,5.36,6.25c1.12,3.35,0.45,7.37-1.56,10.05
		c-1.79,2.68-4.91,4.24-8.04,4.24c-2.9,0-5.81-1.56-7.59-3.8c-2.23-2.68-2.9-6.48-2.01-9.83c0.67-2.68,2.46-5.14,4.91-6.48
		C138.89,0.73,140.01,0.28,141.35,0.06z M40.64,7.87h25.9c2.46,14.74,5.14,29.7,7.82,44.44c-5.81,0-11.61,0.89-17.42,1.79
		c-7.37,1.34-14.96,2.9-22.33,5.14c-7.37,2.01-14.96,4.47-22.11,7.15c-3.8,1.56-7.37,2.9-10.94,4.47
		C14.51,49.85,27.69,28.86,40.64,7.87z M50.02,26.41c-4.47,8.49-8.93,17.19-13.4,25.68H52.7c-0.89-8.49-1.79-17.19-2.46-25.68H50.02
		z M592.2,19.71c18.53,2.01,37.07,4.24,55.6,6.48c-15.63,10.05-31.49,20.1-47.34,29.7c3.13-6.92,6.25-14.07,9.6-20.99
		C604.03,29.76,598.22,24.62,592.2,19.71z M172.61,25.74c4.24-0.22,8.26,0,12.28,0.89s8.04,2.46,10.94,5.36
		c1.79,1.79,3.13,3.57,4.24,5.58c1.34,2.46,2.23,4.91,2.46,7.59c1.34-5.81,2.68-11.39,3.8-17.19h19.2
		c-0.89,3.35-1.56,6.7-2.46,10.05c0.22,0,0.22,0,0.22,0.22c2.01-2.9,4.02-5.36,6.48-7.59c2.23-2.01,4.91-3.35,8.04-3.8
		c2.9-0.45,6.03,0.22,8.93,1.34c-2.68,5.14-5.14,10.05-7.59,14.96c-2.01-0.22-3.8-0.45-5.81-0.22c-1.79,0.22-3.8,0.67-5.36,1.79
		c-2.23,1.34-3.8,3.35-4.91,5.81c-1.79,3.13-2.68,6.7-3.57,10.05c-1.34,6.03-2.68,12.28-4.02,18.31h-20.32
		c1.12-4.91,2.01-9.6,3.13-14.29c-1.34,2.23-2.9,4.24-4.91,6.03c-2.01,1.79-4.47,3.35-6.92,4.69c-2.46,1.12-5.14,2.01-7.82,2.68
		c-3.35,0.67-6.48,0.89-9.83,0.67c-4.02,0-8.04-0.45-11.61-1.56c-2.9-1.12-5.58-2.46-7.82-4.47c-2.01-2.01-3.8-4.24-4.91-6.7
		c-0.89-1.79-1.56-3.8-1.79-5.81c-1.34,6.03-2.68,12.28-4.24,18.53h-20.32l9.38-41.53c-9.16,13.84-18.09,27.69-27.02,41.53H82.4
		c-3.35-16.97-6.7-33.94-10.05-50.69h18.98c1.12,10.72,2.01,21.44,3.13,32.16l0.22-0.22c5.81-10.72,11.61-21.21,17.42-31.93h37.74
		c-0.89,3.8-1.56,7.59-2.46,11.17c1.56-2.23,3.57-4.47,5.58-6.25c2.46-2.01,5.14-3.57,8.04-4.69
		C164.57,26.85,168.59,25.96,172.61,25.74z M173.06,38.91c-1.12,0.22-2.23,0.45-3.35,1.12c-1.12,0.45-2.23,1.34-3.13,2.46
		c-0.89,1.12-1.79,2.46-2.23,3.8c-1.56,3.35-2.46,6.92-2.23,10.5c0,2.01,0.67,3.8,1.79,5.14c0.89,1.34,2.01,2.46,3.57,3.13
		s3.57,0.89,5.36,0.45c1.56-0.22,3.13-1.12,4.24-2.01c1.79-1.79,3.13-3.8,4.24-6.03c1.34-3.13,2.01-6.7,1.79-10.27
		c0-1.56-0.22-3.35-1.12-4.91c-0.67-1.12-2.01-2.01-3.35-2.68C176.85,38.91,175.07,38.69,173.06,38.91z M79.27,51.64
		c1.34,1.34,2.68,2.46,4.02,3.57c-0.67,1.79-1.56,3.57-2.23,5.14c3.57-2.23,7.15-4.69,10.72-7.15
		C87.53,52.76,83.51,52.31,79.27,51.64z M67.21,53.43c2.46-0.22,4.69-0.45,7.15-0.45c0.22,1.12,0.45,2.01,0.45,2.9
		c-4.91,0.67-10.05,1.56-14.96,2.9c-11.17,2.68-22.11,6.48-32.6,10.72c-6.7,2.9-13.4,5.81-19.65,9.16c-0.22,0-0.22,0.22-0.45,0.22
		c-2.46-0.22-4.69,0-7.15-0.22c5.58-2.9,11.17-5.81,16.75-8.49c6.92-3.13,13.62-6.03,20.77-8.71c6.25-2.46,12.95-4.69,19.43-6.25
		C60.29,54.54,63.86,53.87,67.21,53.43z M71.68,57c1.12-0.22,2.23-0.22,3.35-0.22c0.22,1.34,0.45,2.9,0.89,4.24
		c-4.24,0.67-8.26,1.34-12.28,2.23c-4.91,1.12-9.83,2.46-14.51,4.02h-7.82c5.14-2.68,10.72-4.91,16.3-6.7
		C62.3,59.01,66.99,57.67,71.68,57z M67.21,63.25c2.9-0.67,5.81-1.12,8.71-1.34c1.12,5.58,2.01,11.17,2.9,16.97H55.16
		c-0.22-4.02-0.67-7.82-1.12-11.61C58.5,65.71,62.75,64.37,67.21,63.25z M19.2,78.88c1.56-1.12,3.13-2.01,4.91-2.9
		c-0.67,0.89-1.12,1.79-1.56,2.9C21.44,78.66,20.32,78.88,19.2,78.88z"/>
	<path class="st1" d="M336.52,2.07c2.01-0.22,3.8,0.22,5.58,1.12c2.46,1.34,4.47,3.57,5.14,6.48c0.89,3.13,0.22,6.48-1.79,9.16
		c-0.89,1.34-2.23,2.46-3.8,3.13s-3.35,1.12-5.14,0.89c-2.9-0.45-5.58-2.01-7.15-4.47c-1.79-2.68-2.23-6.48-1.34-9.6
		c1.12-2.46,2.9-4.69,5.58-6.03C334.51,2.29,335.62,2.07,336.52,2.07z M433.87,2.07c2.01-0.22,3.8,0,5.58,0.89
		c2.46,1.34,4.24,3.57,5.14,6.03c0.89,3.35,0.45,6.92-1.56,9.6c-1.56,2.23-4.02,3.8-6.7,4.24c-3.13,0.45-6.48-0.89-8.49-3.13
		c-2.23-2.46-3.35-5.81-2.68-8.93c0.45-2.9,2.01-5.58,4.47-7.15C430.97,2.74,432.31,2.29,433.87,2.07z M401.05,10.33h20.1
		l-15.41,68.33c-6.7,0.22-13.4,0-20.1,0C385.64,78.66,401.05,10.33,401.05,10.33z M282.03,11.22h23.67
		c3.35,19.2,6.48,38.63,9.83,57.84c0.22-0.67,0.22-1.56,0.45-2.23c2.9-12.5,5.58-25.01,8.49-37.51h20.1
		c-3.57,16.52-7.37,33.05-11.17,49.35c-6.7,0-13.17,0.22-19.87,0h-18.09c-0.45-3.57-0.67-7.37-1.12-10.94h-23.22
		c-2.01,3.57-3.8,7.37-5.58,10.94h-23.89C255.01,56.33,268.63,33.78,282.03,11.22z M290.52,28.86c-4.02,8.04-8.04,16.3-12.28,24.56
		h14.74c-0.67-8.26-1.56-16.52-2.23-24.56H290.52z M377.16,31.99c2.68-2.46,6.03-3.8,9.6-3.8c2.46-0.22,4.91,0.45,7.37,1.34
		c-2.46,4.91-4.91,9.83-7.37,14.51c-2.23-0.22-4.47-0.45-6.48-0.22c-1.79,0.22-3.35,0.89-4.69,1.79c-2.23,1.56-4.02,3.8-5.14,6.03
		c-1.79,3.57-2.68,7.15-3.35,10.94c-1.34,5.36-2.46,10.72-3.8,16.08c-6.7,0-13.4,0-20.1,0.22c3.8-16.52,7.37-33.05,11.17-49.57
		h18.76c-0.67,3.13-1.56,6.48-2.23,9.6l0.22,0.22C372.91,36.68,374.92,34,377.16,31.99z M476.97,28.86c3.13-0.67,6.25-0.89,9.6-0.67
		c2.9,0.22,5.81,1.34,8.04,3.35c1.79,1.56,3.13,4.02,3.35,6.48c1.56-1.56,3.35-3.13,5.14-4.24c2.01-1.56,4.47-2.68,6.7-3.57
		c5.14-1.79,10.5-2.23,15.85-2.01c4.24,0,8.71,0.67,12.73,2.01c2.9,1.12,5.58,2.68,7.59,4.91c0.89,1.12,1.79,2.46,2.68,3.57
		c0.67-1.34,1.56-2.46,2.68-3.57c2.23-2.01,4.91-3.57,7.59-4.47c3.8-1.56,8.04-2.23,12.28-2.46c4.47-0.22,8.71,0,13.17,0.67
		c1.79,0.45,3.57,0.89,5.36,1.79c2.46,0.89,4.47,2.68,5.81,4.91c1.12,1.56,1.79,3.57,2.23,5.58c-6.48,0.45-12.73,1.12-18.98,1.79
		c-0.22-1.34-0.89-2.46-2.01-3.13c-1.56-1.12-3.57-1.34-5.36-1.34c-1.79,0.22-3.57,0.45-4.91,1.12c-0.89,0.67-1.56,1.12-1.79,2.01
		c-0.45,0.67-0.45,1.56-0.22,2.23c0.22,0.67,0.89,1.12,1.34,1.56c0.67,0.67,1.56,0.89,2.23,1.12c1.79,0.45,3.57,0.67,5.36,1.12
		c4.02,0.45,8.04,1.12,11.83,2.46c1.56,0.45,3.35,1.34,4.69,2.23c1.12,0.89,2.01,2.01,2.9,3.35c0.67,1.34,1.12,2.9,1.12,4.47
		c0.22,2.01,0,4.24-0.67,6.03c-0.89,2.68-2.46,4.91-4.69,6.7c-1.12,1.12-2.23,2.01-3.57,2.68c-2.9,1.79-6.25,2.68-9.38,3.35
		c-4.69,0.89-9.38,1.12-13.84,1.12c-4.24-0.22-8.26-0.45-12.28-1.79c-1.79-0.45-3.35-1.12-4.69-2.23c-1.12-0.67-2.23-1.56-2.9-2.68
		c-1.34,1.12-2.68,2.01-4.02,2.68c-3.13,1.79-6.7,2.68-10.27,3.35c-2.46,0.45-4.91,0.67-7.37,0.67c-2.68,0-5.58,0-8.26-0.45
		c-2.68-0.22-5.14-0.67-7.59-1.56c-2.46-0.89-4.47-2.01-6.48-3.35c-2.23-2.01-4.02-4.24-5.36-6.92c-0.89,3.8-1.56,7.37-2.46,11.17
		c-6.7-0.22-13.4-0.22-20.1,0c1.34-6.25,2.68-12.28,4.02-18.31c0.67-2.68,1.34-5.58,1.79-8.49c0.45-1.79,0.89-3.8,1.12-5.58
		c0.22-1.34,0-2.9-1.12-3.8c-1.12-0.89-2.68-0.89-4.02-0.67c-1.56,0.22-3.13,0.89-4.47,2.01c-1.79,1.34-3.13,3.35-4.24,5.36
		c-1.34,2.46-2.23,5.14-2.68,7.82c-1.79,7.15-3.35,14.29-4.91,21.44c-6.92,0.22-13.62,0-20.32,0.22
		c3.57-16.52,7.37-33.05,11.17-49.57h18.76c-0.45,2.46-1.12,4.91-1.56,7.15c-0.22,0.22,0,0.45,0.22,0.45
		c1.56-1.79,3.57-3.57,5.81-4.91C471.84,30.65,474.29,29.53,476.97,28.86z M521.63,39.36c-2.46,0.22-4.91,1.79-6.48,3.57
		c-1.79,2.01-2.9,4.47-3.57,6.92c6.48-0.22,13.17,0,19.65-0.22c0.45-0.89,0.45-1.79,0.45-2.68c0-1.34-0.22-2.9-0.89-4.02
		c-0.67-0.89-1.34-1.79-2.23-2.46C526.54,39.36,524.09,38.91,521.63,39.36z M550.66,54.32c-0.22,1.56-0.45,3.13-0.89,4.69H509.8
		c0,2.01,0.45,4.24,1.79,6.03c0.67,1.12,1.56,2.23,2.9,2.68c0.89,0.67,2.23,0.89,3.35,1.12c1.34,0.22,2.9,0,4.24-0.22
		c2.46-0.45,4.47-1.79,6.03-3.57l0.67-0.67c3.13,0.22,6.48,0.45,9.83,0.89c0-0.22,0.22-0.22,0.45-0.22
		c6.48-0.45,12.95-1.12,19.43-1.56c0.22,1.34,0.89,2.68,1.79,3.57c0.89,1.12,2.46,1.79,4.02,2.23c1.79,0.45,3.8,0.22,5.81-0.22
		c1.56-0.45,2.9-0.89,4.02-2.01s1.34-2.68,0.89-4.02c-0.22-0.89-0.67-1.34-1.56-1.79c-0.67-0.45-1.56-0.45-2.23-0.67
		c-2.01-0.45-4.02-0.89-6.25-1.12c-3.35-0.67-6.92-1.34-10.27-2.68C553.34,56.11,551.78,55.44,550.66,54.32z M422.04,29.31h20.32
		c-1.56,6.7-3.13,13.4-4.69,20.32c-2.23,9.6-4.47,19.43-6.48,29.25c-6.92,0-13.62-0.22-20.32,0
		C414.67,62.36,418.24,45.83,422.04,29.31z"/>
</g>
</svg>
