<?xml version="1.0" encoding="utf-8"?>
<!-- Generator: Adobe Illustrator 25.4.1, SVG Export Plug-In . SVG Version: 6.00 Build 0)  -->
<svg version="1.1" id="Layer_1" xmlns="http://www.w3.org/2000/svg" xmlns:xlink="http://www.w3.org/1999/xlink" x="0px" y="0px"
	 viewBox="0 0 80 80" style="enable-background:new 0 0 80 80;" xml:space="preserve">
<style type="text/css">
	.st0{fill:#939598;}
</style>
<path id="path350" class="st0" d="M43.9,0.2C22-2,2.4,14.1,0.2,36.1C-2,58,14.1,77.6,36.1,79.8C58,82,77.6,65.9,79.8,43.9
	C82,22,65.9,2.4,43.9,0.2 M43.2,7.9c8.2,0.8,15.3,4.6,20.5,10.2c-3.4-1.7-14.1,7.2-15.8,8.6l-36.8-1.1C16.9,14,29.5,6.6,43.2,7.9
	 M7.9,36.8c0.3-3.1,1.1-6.1,2.2-8.9l25.5,8.9c0,0-10.6,13-15,18.2L10,51.7C8.2,47.1,7.4,42,7.9,36.8 M10.6,53.3l9.6,4.5l3.5,10
	C18,64.4,13.4,59.3,10.6,53.3 M36.8,72.1c-4.2-0.4-8.1-1.6-11.6-3.4l-2.2-11c5.6-3.8,19.7-13,19.7-13L48.9,71
	C45.1,72.1,41,72.5,36.8,72.1 M72.1,43.2c-1.3,12.6-9.7,22.9-20.8,27L54,33.5c1.6-1.5,11.6-11.2,10.2-14.8
	C69.9,25.2,73,33.9,72.1,43.2"/>
</svg>
