<?xml version="1.0" encoding="utf-8"?>
<!-- Generator: Adobe Illustrator 25.4.1, SVG Export Plug-In . SVG Version: 6.00 Build 0)  -->
<svg version="1.1" id="Layer_1" xmlns="http://www.w3.org/2000/svg" xmlns:xlink="http://www.w3.org/1999/xlink" x="0px" y="0px"
	 viewBox="0 0 193.2 80" style="enable-background:new 0 0 193.2 80;" xml:space="preserve">
<style type="text/css">
	.st0{fill:#939598;}
	.st1{fill:#2D4977;}
</style>
<g>
	<path id="path350" class="st0" d="M99,0.1C86.5-1.1,75.3,8,74.1,20.5C72.9,33.1,82,44.2,94.5,45.5c12.5,1.2,23.7-7.9,24.9-20.4
		C120.7,12.5,111.6,1.4,99,0.1 M98.6,4.5c4.7,0.5,8.7,2.6,11.7,5.8c-2-1-8.1,4.1-9,4.9l-20.9-0.6C83.6,8,90.8,3.7,98.6,4.5 M78.5,21
		c0.2-1.8,0.6-3.5,1.2-5.1L94.3,21c0,0-6,7.4-8.5,10.4l-6.1-1.9C78.7,26.8,78.2,24,78.5,21 M80,30.3l5.5,2.6l2,5.7
		C84.2,36.7,81.6,33.8,80,30.3 M95,41.1c-2.4-0.2-4.6-0.9-6.6-1.9l-1.3-6.3c3.2-2.2,11.2-7.4,11.2-7.4l3.6,15
		C99.7,41.1,97.4,41.3,95,41.1 M115.1,24.6c-0.7,7.2-5.5,13-11.9,15.4l1.5-20.9c0.9-0.8,6.6-6.4,5.8-8.4
		C113.8,14.4,115.6,19.3,115.1,24.6"/>
	<path id="path354" class="st1" d="M68.3,35.5c-1.3,0-1.9,0.6-2.2,1.6l-4.4,10.5H1.3c-0.5,0-1.9,0.3-1,2.5c1.2,3.1,4.3,4.2,5.2,4.2
		h10.2l0.3,0.9H6.2c-0.4,0-1.5,0.3-0.8,2.3c1,2.9,3.7,3.9,4.5,3.9h7.9l0.3,0.9h-6.6c-0.3,0-1.2,0.2-0.7,2.1c0.8,2.6,4.3,3.5,4.9,3.5
		h46.1l4.4,10.7c0.4,1,1.2,1.3,2,1.3h9.3l5.9-8.4L80.9,68h2.3l1.3,2l1.3-2h0h2.4l-2.5,3.6l2.9,4.4h-2.4l-1.7-2.8L79.9,80h45.9
		c1.3,0,1.8-0.7,2.1-1.3l4.2-10.8H178c0.6,0,4.1-0.9,4.9-3.5c0.5-1.9-0.3-2.1-0.7-2.1h-6.5l0.3-0.9h7.7c0.7,0,3.5-1.1,4.5-3.9
		c0.7-2.1-0.4-2.3-0.8-2.3h-9.6l0.2-0.9h10.1c0.9,0,4-1.1,5.2-4.2c0.8-2.2-0.5-2.5-1-2.5h-60.2l-4.1-10.7c-0.4-1-1.3-1.4-2-1.4h-8.2
		c-4.4,7-12.1,11.5-20.9,11.5c-0.8,0-1.6,0-2.5-0.1c-7.9-0.8-14.5-5.2-18.4-11.4L68.3,35.5z M28.8,50.1c4.3,0,3.5,4,3.3,5l-2.3,0
		c0-0.5,0.4-2.8-1.2-2.8c-1.4,0-1.5,1-1.4,1.9c0.2,2.4,4.2,2.5,4.4,6c0.1,1.6-0.1,3.7-1.6,4.7c-0.9,0.5-1.9,0.7-3,0.7
		c-4.4,0-3.6-4.7-3.5-5.2l2.4,0c0,0.5-0.3,3,1.3,3c1.4,0,1.5-1.3,1.5-2.6c-0.1-2.6-4-2.8-4.2-6.1C24.3,51.8,25.4,50.1,28.8,50.1
		L28.8,50.1z M38.8,50.1c2.9,0,4,1.1,3.9,3.4c-0.1,1.6-0.2,2.7-0.3,4.4c-0.5,5.2-0.6,7.5-4.9,7.5c-2.9,0-3.9-1.2-4-3.6
		c-0.1-1.1,0.1-2.5,0.2-4.1C34.1,52.7,34.5,50.1,38.8,50.1L38.8,50.1z M167.7,50.1c4.3,0,3.5,4,3.3,5l-2.3,0c0-0.5,0.4-2.8-1.2-2.8
		c-1.4,0-1.5,1-1.4,1.9c0.2,2.4,4.2,2.5,4.4,6c0.1,1.6-0.1,3.7-1.6,4.7c-0.9,0.5-1.9,0.7-3,0.7c-4.4,0-3.6-4.7-3.5-5.2l2.4,0
		c0,0.5-0.3,3,1.3,3c1.4,0,1.5-1.3,1.5-2.6c-0.1-2.6-4-2.8-4.2-6.1C163.2,51.8,164.3,50.1,167.7,50.1L167.7,50.1z M45.1,50.3H48
		l-0.9,10.2c-0.1,0.9-0.1,1.4-0.1,1.8c0,0.7,0.3,0.9,1,0.9c1.1,0,1.2-0.6,1.4-2.7l0.9-10.2h2.9l-1,10.6c-0.3,2.8-0.9,4.5-4.5,4.5
		c-2.7,0-3.6-1-3.7-2.7c0-0.6,0-1.2,0.1-1.9L45.1,50.3z M54.6,50.3h8l-0.2,2.1h-2.5l-1.2,12.7h-2.9l1.2-12.7h-2.5L54.6,50.3z
		 M64.2,50.3h3l-0.6,6.2h2.6l0.6-6.2h2.9l-1.4,14.8h-2.9l0.6-6.5h-2.6l-0.6,6.5h-3L64.2,50.3z M74.9,50.3h6.5l-0.2,2.2h-3.6l-0.4,4
		h2.9l-0.2,2.2h-2.9L76.7,63h3.7l-0.2,2.2h-6.6L74.9,50.3z M83.6,50.3h3.6c3,0,3.9,0.7,4,2.4c0,0.4,0.1,1.3,0,1.9
		c-0.2,2-0.7,3.7-2.1,4.2l1.1,6.4h-3L86.4,59h-0.6l-0.6,6.1h-2.9L83.6,50.3z M93.7,50.3h3l2.1,8.9l0.8-8.9h2.5l-1.4,14.8h-2.9
		l-2.1-8.9l-0.8,8.9h-2.5L93.7,50.3z M110.8,50.3h3.1l1.7,14.8h-3.2l-0.2-3.3h-2.2l-0.8,3.3h-2.8L110.8,50.3z M118.4,50.3h2.9
		L120,65.2h-2.9L118.4,50.3z M124,50.3h3.6c3,0,3.9,0.7,4,2.4c0,0.4,0.1,1.3,0,1.9c-0.2,2-0.7,3.7-2.1,4.2l1.1,6.4h-3l-0.8-6.1h-0.6
		l-0.6,6.1h-2.9L124,50.3z M133.2,50.3h2.8l0.3,8.3l2.4-8.3h2.3l0.5,8.3l2.1-8.3h3l-3.9,14.8h-2.6l-1-7.9l-2.2,7.9h-2.7L133.2,50.3z
		 M149.6,50.3h3.1l1.7,14.8h-3.2l-0.2-3.3h-2.2l-0.8,3.3h-2.8L149.6,50.3z M155,50.3h2.8l0.9,5.2l2.1-5.2h2.5l-3.4,8.8l-0.5,6h-2.9
		l0.5-6L155,50.3z M38.6,52.2c-0.2,0-0.3,0-0.5,0.1c-0.1,0-0.3,0.1-0.4,0.2c-0.1,0.1-0.2,0.2-0.3,0.4c-0.2,0.3-0.3,0.7-0.4,1.3
		c-0.1,0.3-0.1,0.6-0.2,1c-0.1,0.7-0.2,1.6-0.3,2.6c-0.1,0.9-0.2,1.7-0.2,2.4v0c0,0.7-0.1,1.2,0,1.6c0,0.3,0.1,0.6,0.1,0.8v0
		c0.1,0.4,0.3,0.6,0.6,0.7c0.1,0,0.3,0.1,0.5,0.1c1.4,0,1.4-1.4,1.8-5.6c0.1-1.5,0.3-2.7,0.4-3.5c0-0.3,0-0.5,0-0.7
		c0-0.3-0.1-0.5-0.1-0.7c-0.1-0.2-0.1-0.3-0.2-0.4c-0.1-0.1-0.2-0.2-0.4-0.2C38.9,52.2,38.8,52.2,38.6,52.2L38.6,52.2z M86.3,52.2
		L86,57.1h0.9c1.3,0,1.4-0.6,1.5-2.3c0.1-0.5,0.1-1.4,0.1-1.7c0-0.7-0.4-0.8-1.3-0.8L86.3,52.2z M126.6,52.2l-0.3,4.9h0.9
		c1.3,0,1.4-0.6,1.5-2.3c0.1-0.5,0.1-1.4,0.1-1.7c0-0.7-0.3-0.8-1.3-0.8L126.6,52.2z M111.9,54.5l-1.4,5.3h1.7L111.9,54.5z
		 M150.6,54.5l-1.4,5.3h1.8L150.6,54.5z M73.2,67.9L73.2,67.9h5.9h0v1.4h0h-3.6v1.6h3.7v1.3h-3.7l0,2.5h3.7V76h-5.9h0L73.2,67.9z
		 M104.4,67.9h5.9v1.4h-3.6v1.6h3.7h0v1.3h0h-3.7l0,2.5h3.7h0V76h0h-5.9L104.4,67.9z M113.6,68h2.9c0,0,0,0,0,0h0
		c-0.4,0.2-0.6,0.3-1,0.5c-0.3,0.2-0.5,0.3-0.7,0.5c-0.2,0.2-0.3,0.3-0.4,0.5c0,0,0,0,0,0c-0.2,0.4-0.2,0.8,0,1.2
		c0.1,0.1,0.2,0.3,0.2,0.4c0.1,0.1,0.2,0.2,0.3,0.4c0,0,0,0,0,0c0.2,0.2,0.4,0.5,0.6,0.7c0,0,0,0,0,0c0.1,0.1,0.2,0.2,0.3,0.3
		c0.3,0.4,0.4,0.8,0.4,1.2c-0.1,1-0.6,1.6-1.6,2.3h-3.3c0,0,0.5-0.2,0.7-0.3c1.1-0.6,1.7-1.2,1.6-2c-0.1-1.5-2.3-2.3-1.9-3.9
		c0-0.2,0.1-0.4,0.2-0.6c0,0,0,0,0,0c0.1-0.2,0.2-0.4,0.4-0.5c0.2-0.2,0.3-0.3,0.5-0.5c0,0,0,0,0,0C113.2,68.1,113.4,68,113.6,68
		L113.6,68z M119.5,68h2.9c0,0,0,0,0,0h0c-0.4,0.2-0.6,0.3-1,0.5c-0.3,0.2-0.5,0.3-0.7,0.5c-0.2,0.2-0.3,0.3-0.4,0.5c0,0,0,0,0,0
		c-0.1,0.1-0.1,0.2-0.1,0.3c-0.1,0.2-0.1,0.4,0,0.6c0,0.1,0.1,0.2,0.1,0.3c0.1,0.1,0.2,0.3,0.2,0.4c0.1,0.1,0.2,0.2,0.3,0.4
		c0,0,0,0,0,0c0.3,0.4,0.7,0.7,0.9,1c0.1,0.1,0.2,0.2,0.2,0.4c0.1,0.3,0.2,0.5,0.2,0.9c-0.1,1-0.6,1.6-1.6,2.3h-3.3
		c0,0,0.5-0.2,0.7-0.3c1.1-0.6,1.7-1.2,1.6-2c-0.1-1.5-2.3-2.3-1.9-3.9c0-0.2,0.1-0.4,0.2-0.6c0,0,0,0,0,0c0.1-0.2,0.2-0.4,0.4-0.5
		C118.7,68.4,119.1,68.1,119.5,68L119.5,68z M89.4,68h2.3c0.5,0,1.1,0.1,1.5,0.2c0.5,0.1,0.9,0.4,1.2,0.6c0.2,0.1,0.3,0.3,0.5,0.4
		c0.4,0.5,0.7,1,0.7,1.6c0,0.8-0.4,1.5-1.1,2c-0.5,0.4-1.2,0.6-2,0.7c-0.3,0-0.5,0.1-0.8,0.1v0l0,2.4h0h-2.2L89.4,68z M96.6,68
		l2.1,0c2,0,3.7,1.3,3.7,2.9c0,0.8-0.4,1.5-1.1,2c1,0.2,1.4,0.8,1.7,1.6c0,0.2,0.1,0.3,0.1,0.5c0,0.3,0.1,0.7,0,1c0,0,0,0,0,0h-1.9
		c0,0,0,0,0,0c0-0.4,0-0.7-0.1-0.9c0,0,0,0,0,0c0-0.1-0.1-0.2-0.1-0.3c0,0,0,0,0,0c0-0.1-0.1-0.2-0.1-0.3c-0.2-0.3-0.5-0.5-1-0.6
		c-0.4-0.2-1.1-0.2-1.3-0.2V76h-2.1L96.6,68z M91.6,69.4l0,2.7c0.5,0,1-0.2,1.3-0.4c0.3-0.2,0.5-0.6,0.5-1c0-0.4-0.2-0.7-0.5-1
		C92.6,69.5,92.2,69.4,91.6,69.4L91.6,69.4z M98.7,69.4v2.7c1,0,1.8-0.6,1.8-1.4c0-0.1,0-0.2,0-0.3c0-0.1-0.1-0.2-0.1-0.3
		c0,0,0,0,0,0c-0.1-0.2-0.2-0.3-0.4-0.4c0,0,0,0,0,0c-0.2-0.1-0.3-0.2-0.6-0.3c-0.2-0.1-0.4-0.1-0.6-0.1
		C98.8,69.4,98.7,69.4,98.7,69.4L98.7,69.4z"/>
</g>
</svg>
