<svg width="80" height="80" viewBox="0 0 80 80" fill="none" xmlns="http://www.w3.org/2000/svg">
<path d="M66.0648 40.0269C57.5922 44.4579 51.7244 51.1715 47.2666 59.5502C42.3119 68.9493 34.1078 74.6962 23.9836 77.6368C20.5193 78.6438 16.9476 79.2346 13.4297 80L13.1074 79.2884C13.6594 78.825 14.2579 78.42 14.8933 78.0799C21.8755 75.0185 28.0521 70.8157 32.4562 64.5049C34.6852 61.3092 36.3098 57.6972 38.23 54.2732C41.3705 48.6404 45.7962 43.8283 51.147 40.2283C48.8644 38.1873 46.5549 36.2806 44.4334 34.186C41.2949 31.0764 38.7752 27.3994 37.0081 23.3501C32.5233 13.2125 24.9235 6.32427 14.853 1.98724C14.1999 1.62108 13.5799 1.19876 13 0.725076L13.282 0C15.9675 0.469956 18.6529 0.792212 21.3384 1.45015C33.6915 4.41759 43.0638 11.185 48.8107 22.7727C52.1593 29.3419 57.3411 34.799 63.7284 38.4827L65.8634 39.7583C65.8634 39.7583 65.944 39.8254 66.0648 40.0269Z" fill="#94A4D6"/>
<path d="M28.4143 39.9596C23.0434 37.3816 20.3579 32.682 18.2096 27.6333C16.2492 22.9606 14.6245 18.1268 13.0938 13.2258C16.5561 14.2283 19.6651 16.1877 22.0632 18.8787C24.3137 21.3904 26.2482 24.1681 27.8235 27.15C30.2221 32.44 34.3325 36.768 39.4919 39.436C39.7307 39.5954 39.9553 39.7751 40.1632 39.9731C36.0538 41.8533 32.5585 44.8553 30.0793 48.6337C28.8843 50.5269 27.9847 52.6619 26.8836 54.5954C23.9121 59.9936 19.2247 64.2463 13.5637 66.68C13.5003 66.3665 13.4777 66.046 13.4966 65.7267C15.1173 59.3845 17.5403 53.275 20.7071 47.5461C22.9091 43.8267 24.037 42.7257 28.4143 39.9596Z" fill="#94A4D6"/>
<path d="M30.0814 48.6338C32.5605 44.8554 36.0559 41.8534 40.1653 39.9731L28.4164 39.9597C24.0391 42.7257 22.9112 43.8268 20.7091 47.5462C17.5424 53.2751 15.1194 59.3846 13.4986 65.7268C13.4798 66.0461 13.5023 66.3665 13.5658 66.6801C19.2268 64.2464 23.9142 59.9937 26.8857 54.5955C27.9867 52.662 28.8863 50.527 30.0814 48.6338Z" fill="#16246D"/>
<path d="M47.2646 59.5502C51.7225 51.1715 57.5902 44.4579 66.0628 40.0268L51.1451 40.2283C45.7942 43.8283 41.3685 48.6404 38.228 54.2732C36.3079 57.6972 34.6832 61.3092 32.4543 64.5049C28.0501 70.8157 21.8735 75.0185 14.8913 78.0799C14.2559 78.42 13.6575 78.825 13.1055 79.2883L13.4277 80C16.9457 79.2346 20.5174 78.6438 23.9816 77.6368C34.1058 74.6962 42.3099 68.9493 47.2646 59.5502Z" fill="#16246D"/>
</svg>
