<svg width="400" height="80" viewBox="0 0 400 80" fill="none" xmlns="http://www.w3.org/2000/svg">
<path d="M273.77 19.8321C276.455 19.8321 279.073 19.7113 281.611 19.8321C282.653 19.9724 283.622 20.443 284.377 21.1749C292.729 29.1239 301.027 37.1534 309.352 45.1561C309.728 45.5186 310.131 45.8677 310.856 46.4988V44.3504C310.856 37.037 310.856 29.7191 310.856 22.3968C310.856 20.0873 311.218 19.7113 313.541 19.7113H319.664V59.8724C317.207 59.8724 314.83 59.9933 312.481 59.8053C311.557 59.6252 310.715 59.1547 310.077 58.4626C301.537 50.2719 293.033 42.0588 284.565 33.8234C284.068 33.34 283.531 32.8969 282.726 32.1719V59.8321H273.77V19.8321Z" fill="#16246D"/>
<path d="M176.664 35.9853H201.799V43.7865H176.664V51.9503H208.446C208.098 54.2963 207.627 56.6224 207.036 58.9191C206.875 59.4562 205.505 59.8993 204.7 59.9127C194.696 59.9127 184.693 59.9127 174.703 59.9127H167.305V57.6838C167.305 45.9662 167.305 34.2442 167.305 22.5176C167.305 20.1813 167.56 19.8322 169.816 19.8322H205.881C206.405 19.8322 206.929 19.8322 207.681 19.9262C207.264 22.276 206.996 24.5183 206.405 26.6398C206.271 27.1366 205.062 27.6335 204.27 27.6335C195.757 27.714 187.244 27.6335 178.758 27.6335H176.677L176.664 35.9853Z" fill="#16246D"/>
<path d="M155.448 37.3951V39.1809C155.448 43.7731 155.367 48.3518 155.448 52.9305C155.515 53.599 155.366 54.2713 155.023 54.8489C154.679 55.4265 154.16 55.8788 153.541 56.1396C148.733 58.7756 143.438 60.4021 137.979 60.9197C132.723 61.7076 127.355 61.2476 122.309 59.577C118.232 58.2345 114.696 55.612 112.229 52.0994C109.761 48.5867 108.493 44.3716 108.613 40.0805C108.516 35.813 109.777 31.625 112.215 28.1208C114.652 24.6166 118.14 21.9774 122.175 20.5841C129.788 17.724 137.509 18.288 145.162 20.3289C148.237 21.1346 151.191 22.4236 154.481 23.5918L150.56 30.9902C146.532 29.7818 142.786 28.3988 138.932 27.5797C134.446 26.4638 129.723 26.7783 125.424 28.4793C120.496 30.5471 117.824 34.9782 117.999 40.7519C118.003 43.2168 118.804 45.6143 120.283 47.5865C121.761 49.5588 123.838 51 126.203 51.6952C132.514 53.7093 138.758 52.9439 144.921 50.8761C145.381 50.7643 145.779 50.4769 146.03 50.0754C146.281 49.674 146.365 49.1903 146.263 48.7277C146.169 47.7878 146.263 46.8211 146.263 45.8677C146.214 45.6112 146.142 45.3596 146.049 45.1158H140.973C138.838 45.1158 138.408 44.7398 138.422 42.672C138.422 40.8996 137.858 38.4961 138.771 37.5293C139.684 36.5626 142.101 37.0862 143.847 37.0728C147.539 37.0728 151.232 37.0728 154.924 37.0728C155.018 37.1265 155.112 37.2205 155.448 37.3951Z" fill="#16246D"/>
<path d="M59.9492 59.9396V57.8047C59.9492 46.1676 59.9492 34.4993 59.9492 22.7996C59.9492 20.1142 60.0969 19.9128 62.7421 19.9128H100.339C99.9358 22.3431 99.6941 24.572 99.1167 26.707C98.969 27.2306 97.774 27.7543 97.0221 27.7543C88.63 27.8349 80.2245 27.7543 71.8324 27.7543C68.7575 27.7543 69.1469 27.526 69.1469 30.4398C69.1469 32.2122 69.1469 33.9846 69.1469 35.9718H71.443C78.5863 35.9718 85.7431 35.9718 92.9267 35.9718C94.35 35.9718 94.7931 36.4015 94.726 37.7979C94.6186 39.7449 94.726 41.7053 94.726 43.8C93.8801 43.8 93.249 43.894 92.6045 43.894C85.4074 43.894 78.2104 43.894 70.9999 43.894C69.5766 43.894 69.1201 44.2968 69.1872 45.7066C69.2946 47.7207 69.1872 49.7348 69.1872 51.9503H101.077C100.594 54.4478 100.285 56.7305 99.6672 58.9191C99.5061 59.4294 98.3245 59.9396 97.5592 59.9396C89.7579 60.0067 81.97 59.9396 74.1688 59.9396H59.9492Z" fill="#16246D"/>
<path d="M399.92 40.0269C391.448 44.4579 385.58 51.1715 381.122 59.5502C376.167 68.9493 367.963 74.6962 357.839 77.6368C354.375 78.6438 350.803 79.2346 347.285 80L346.963 79.2884C347.515 78.825 348.113 78.42 348.749 78.0799C355.731 75.0185 361.908 70.8157 366.312 64.5049C368.541 61.3092 370.165 57.6972 372.085 54.2732C375.226 48.6404 379.652 43.8283 385.003 40.2283C382.72 38.1873 380.41 36.2806 378.289 34.186C375.15 31.0764 372.631 27.3994 370.864 23.3501C366.379 13.2125 358.779 6.32427 348.708 1.98724C348.055 1.62108 347.435 1.19876 346.855 0.725076L347.137 0C349.823 0.469956 352.508 0.792212 355.194 1.45015C367.547 4.41759 376.919 11.185 382.666 22.7727C386.015 29.3419 391.197 34.799 397.584 38.4827L399.719 39.7583C399.719 39.7583 399.799 39.8254 399.92 40.0269Z" fill="#94A4D6"/>
<path d="M265.685 59.9261C262.597 59.9261 259.737 60.047 256.904 59.859C256.437 59.7508 255.997 59.5517 255.607 59.2729C255.218 58.9941 254.887 58.6411 254.635 58.2343C253.467 56.3813 252.607 54.3269 251.493 52.4471C251.311 52.1516 251.066 51.8998 250.776 51.7095C250.486 51.5193 250.158 51.3952 249.814 51.3461C243.222 51.2655 236.615 51.3461 230.009 51.3461C229.417 51.3029 228.826 51.4469 228.32 51.7577C227.814 52.0685 227.418 52.5304 227.189 53.0782C226.236 54.9983 225.256 56.905 224.195 58.758C223.913 59.2548 223.336 59.9261 222.852 59.9396C219.831 60.047 216.823 59.9396 213.453 59.9396C215.024 56.9453 216.434 54.2195 217.857 51.4938C223.148 41.571 228.411 31.5273 233.621 21.4971C233.837 20.9301 234.238 20.4528 234.76 20.1432C235.282 19.8335 235.893 19.7097 236.494 19.7919C238.562 19.8993 240.657 19.7919 242.738 19.7919C243.395 19.7648 244.045 19.9326 244.606 20.2743C245.168 20.616 245.616 21.1162 245.894 21.712C252.392 34.1636 258.891 46.6018 265.39 59.0265C265.513 59.3179 265.612 59.6187 265.685 59.9261V59.9261ZM246.766 43.3165C244.349 38.6573 242.013 34.1591 239.556 29.4461L232.278 43.3165H246.766Z" fill="#16246D"/>
<path d="M52.1517 59.8993C49.0366 59.8993 46.0692 60.0067 43.1286 59.8187C42.6902 59.7016 42.2805 59.4958 41.9248 59.2141C41.5691 58.9323 41.275 58.5805 41.0608 58.1806C39.906 56.3007 39.0467 54.2732 37.9188 52.38C37.7263 52.0992 37.4778 51.8612 37.189 51.681C36.9001 51.5007 36.5772 51.3821 36.2403 51.3326C29.6878 51.2655 23.1487 51.3326 16.6096 51.3326C15.9856 51.2852 15.3626 51.4363 14.8296 51.7643C14.2967 52.0923 13.8811 52.5804 13.6422 53.1588C12.6485 54.9983 11.6683 56.9184 10.6076 58.7714C10.3256 59.2682 9.72138 59.8724 9.26485 59.8858C6.29741 59.9933 3.32998 59.8858 0 59.8858C1.22189 57.5092 2.3095 55.3743 3.42397 53.2527C8.96945 42.672 14.5686 32.051 20.1276 21.43C20.3264 20.8969 20.7004 20.4471 21.1883 20.1544C21.6762 19.8616 22.2491 19.7433 22.813 19.8187C24.8808 19.9396 26.9755 19.8187 29.0567 19.8187C29.7134 19.7841 30.3658 19.9424 30.9337 20.274C31.5015 20.6057 31.9599 21.0962 32.2524 21.6851C38.7423 34.0472 45.2322 46.4093 51.7221 58.7714C51.885 59.1395 52.0284 59.516 52.1517 59.8993V59.8993ZM26.0087 29.4864L18.7848 43.2494H33.2058L26.0087 29.4864Z" fill="#16246D"/>
<path d="M362.27 39.9597C356.899 37.3816 354.213 32.6821 352.065 27.6334C350.105 22.9607 348.48 18.1269 346.949 13.2259C350.412 14.2284 353.521 16.1878 355.919 18.8788C358.169 21.3904 360.104 24.1682 361.679 27.15C364.078 32.4401 368.188 36.7681 373.347 39.436C373.586 39.5954 373.811 39.7751 374.019 39.9731C369.909 41.8534 366.414 44.8553 363.935 48.6337C362.74 50.527 361.84 52.6619 360.739 54.5955C357.768 59.9937 353.08 64.2463 347.419 66.6801C347.356 66.3665 347.333 66.0461 347.352 65.7267C348.973 59.3846 351.396 53.2751 354.563 47.5461C356.765 43.8268 357.892 42.7257 362.27 39.9597Z" fill="#94A4D6"/>
<path d="M363.937 48.6338C366.416 44.8554 369.911 41.8534 374.021 39.9731L362.272 39.9597C357.895 42.7257 356.767 43.8268 354.565 47.5462C351.398 53.2751 348.975 59.3846 347.354 65.7268C347.335 66.0461 347.358 66.3665 347.421 66.6801C353.082 64.2464 357.77 59.9937 360.741 54.5955C361.842 52.662 362.742 50.527 363.937 48.6338Z" fill="#16246D"/>
<path d="M381.12 59.5502C385.578 51.1715 391.446 44.4579 399.918 40.0268L385.001 40.2283C379.65 43.8283 375.224 48.6404 372.083 54.2732C370.163 57.6972 368.539 61.3092 366.31 64.5049C361.906 70.8157 355.729 75.0185 348.747 78.0799C348.111 78.42 347.513 78.825 346.961 79.2883L347.283 80C350.801 79.2346 354.373 78.6438 357.837 77.6368C367.961 74.6962 376.165 68.9493 381.12 59.5502Z" fill="#16246D"/>
</svg>
