<?xml version="1.0" encoding="utf-8"?>
<!-- Generator: Adobe Illustrator 25.4.1, SVG Export Plug-In . SVG Version: 6.00 Build 0)  -->
<svg version="1.1" id="Layer_1" xmlns="http://www.w3.org/2000/svg" xmlns:xlink="http://www.w3.org/1999/xlink" x="0px" y="0px"
	 viewBox="0 0 332.24 80" style="enable-background:new 0 0 332.24 80;" xml:space="preserve">
<style type="text/css">
	.st0{fill:#F57002;}
	.st1{fill:#00509E;}
	.st2{fill:#00B2D7;}
</style>
<g>
	<path class="st0" d="M332.24,0c-19.43,19.96-42.15,32.63-58.27,39.89c-11.18-4.87-24.07-7.55-36.84-3.85L332.24,0z"/>
	<path class="st1" d="M273.97,39.89c-12.47,5.61-20.99,7.98-20.99,7.98l-15.85-11.83C249.9,32.34,262.78,35.02,273.97,39.89z"/>
	<path class="st2" d="M307.3,62.99l-54.32-15.11c0,0,8.52-2.37,20.99-7.98C293.14,48.23,307.3,62.99,307.3,62.99z"/>
	<path class="st0" d="M68.99,46.61v32.41h7.75c0,0,0.14-32.55,0-32.41C76.6,46.75,68.99,46.61,68.99,46.61z"/>
	<ellipse class="st0" cx="73" cy="39.42" rx="4.79" ry="4.23"/>
	<path class="st0" d="M170.51,46.61v30.37c0,0-6.5,2.96-13.95,2.96s-14.24-2.61-14.24-12.05s0-21.28,0-21.28h7.66v20.15
		c0,0-0.22,9.44,12.36,5.42c0,0-0.11-25.68,0-25.57C162.45,46.71,170.51,46.61,170.51,46.61z"/>
	<path class="st0" d="M119.5,45.69c-4.51,0-8.66,1.14-11.16,2.01c-2.47-1.47-5.63-2.01-8.92-2.01c-7.26,0-13.6,2.96-13.6,2.96v30.37
		c0,0,7.86-0.11,7.96,0c0.11,0.11,0-25.57,0-25.57c12.26-4.02,12.05,5.42,12.05,5.42v20.15h7.47c0,0,0-11.84,0-21.28
		c0-1.51-0.17-2.84-0.49-4.02c12.75-4.29,13.1,5.15,13.1,5.15v20.15h7.47c0,0,0-11.84,0-21.28C133.38,48.3,126.76,45.69,119.5,45.69
		z"/>
	<path class="st0" d="M223.49,45.69c-2.95,0-6.31,0.61-9.29,1.35V35.76h-8.18v13.81v30.37h8.18v-0.14c0.06-1.53,0.02-15.34,0-21.95
		v-3.49c13.24-5.06,12.34,5.43,12.34,5.43v20.15h7.66c0,0,0-11.84,0-21.28C234.2,49.21,230.94,45.69,223.49,45.69z"/>
	<path class="st0" d="M199.32,72.6c0,0-5.1,1.27-7.64,0.26c-2.54-1-2.64-5.23-2.64-5.23V53.3h10.57V46.6h-10.57V35.76h-7.82V46.6
		h-5.42v6.69h5.42v14.94c0,0-1.03,11.7,8.88,11.7c0,0,6.16,0.12,10.65-1.51C200.72,78.26,199.32,72.6,199.32,72.6z"/>
	<path class="st0" d="M35.07,53.26c0,0-0.35-6.66,0-6.66c0.35,0,28.11,0,28.11,0s-0.21,1.87-2.08,4.47
		c-1.87,2.61-14.37,20.85-14.37,20.85h15.96v7.08H34.01v-1.69L50.67,53.3L35.07,53.26z"/>
	<path class="st0" d="M14.78,45.39c0,0-5.97,0.21-13.26,1.85l1.43,6.5c0,0,4.91-1.69,10.89-1.48s7.13,3.28,7.13,6.76
		c0,0-12.68-2.01-17.54,1.32s-3.91,14.32-1,16.75C5.32,79.52,9.33,80,15.09,80s13.37-2.64,13.37-2.64v-20.4
		C28.46,56.96,29.36,44.65,14.78,45.39z M20.9,72.71c0,0-2.32,0.85-6.22,1c-3.9,0.16-6.22-0.79-6.22-3.94
		c0-3.15,0.24-5.78,5.78-5.78c5.54,0,6.67,1,6.67,1S20.85,72.55,20.9,72.71z"/>
</g>
</svg>
