<?xml version="1.0" encoding="utf-8"?>
<!-- Generator: Adobe Illustrator 25.4.1, SVG Export Plug-In . SVG Version: 6.00 Build 0)  -->
<svg version="1.1" id="Layer_1" xmlns="http://www.w3.org/2000/svg" xmlns:xlink="http://www.w3.org/1999/xlink" x="0px" y="0px"
	 viewBox="0 0 133.78 80" style="enable-background:new 0 0 133.78 80;" xml:space="preserve">
<style type="text/css">
	.st0{fill:#D60645;}
	.st1{fill:#9DA5A8;}
</style>
<path class="st0" d="M0,0.51l32.78,43.95h53.31L40.35,6.63c0,0-5.04-6.12-19.57-6.12H0z"/>
<path class="st1" d="M59.44,44.46L32.3,79.64h22.33c0,0,5.82,1.5,14.77-7.44s27.98-25.82,42.99-25.82s21.16,0,21.16,0
	s0.81-1.08-0.63-2.4s-10.33-7.08-10.33-7.08s-3.72-3.12-6.6,0c-2.88,3.12-5.64,5.04-6.6,5.16c0,0-1.08,2.4-23.29,2.4
	S59.44,44.46,59.44,44.46z"/>
</svg>
