<?xml version="1.0" encoding="utf-8"?>
<!-- Generator: Adobe Illustrator 25.4.1, SVG Export Plug-In . SVG Version: 6.00 Build 0)  -->
<svg version="1.1" id="Layer_1" xmlns="http://www.w3.org/2000/svg" xmlns:xlink="http://www.w3.org/1999/xlink" x="0px" y="0px"
	 viewBox="0 0 372.13 80" style="enable-background:new 0 0 372.13 80;" xml:space="preserve">
<style type="text/css">
	.st0{fill:#D60645;}
	.st1{fill:#9DA5A8;}
</style>
<path class="st0" d="M238.35,0.51l32.78,43.95h53.31L278.7,6.63c0,0-5.04-6.12-19.57-6.12H238.35z"/>
<path class="st1" d="M297.79,44.46l-27.14,35.18h22.33c0,0,5.82,1.5,14.77-7.44s27.98-25.82,42.99-25.82c15.01,0,21.16,0,21.16,0
	s0.81-1.08-0.63-2.4c-1.44-1.32-10.33-7.08-10.33-7.08s-3.72-3.12-6.6,0c-2.88,3.12-5.64,5.04-6.6,5.16c0,0-1.08,2.4-23.29,2.4
	S297.79,44.46,297.79,44.46z"/>
<g>
	<path class="st1" d="M30.02,29.33C27.86,24.17,17.59,0.27,17.59,0.27H9.25v1.08c0,0,3.48,0.48,3.48,3.24S0,35.81,0,35.81h3.36
		l4.8-11.41h13.73l5,11.41h8.29v-1.08C35.18,34.73,32.18,34.49,30.02,29.33z M9.23,21.88l5.66-13.45l5.9,13.45H9.23z"/>
	<path class="st1" d="M38.54,12.64c1.05,0.05,1.5,0.93,1.68,1.91v1.22v20.05h5.4V14.44V11.8V9.28l-7.08,2.52V12.64z"/>
	<path class="st1" d="M216.89,6.04v0.29v29.48h5.4V0.51h-2.71l0.01-0.06h-7.02v0.93C212.56,1.38,216.37,1.41,216.89,6.04z"/>
	<path class="st1" d="M42.09,6.78c1.87,0,3.39-1.52,3.39-3.39c0-1.87-1.52-3.39-3.39-3.39s-3.39,1.52-3.39,3.39
		C38.69,5.27,40.21,6.78,42.09,6.78z"/>
	<path class="st1" d="M68.32,15.77c3.15-1.71-0.33-5.88-4.44-3.98c-1.89,0.88-3.38,2.06-4.44,3.09v-1.41v-2.54l-7.08,2.52v0.84
		c1.05,0.05,1.5,0.93,1.68,1.91v0.95v18.65h5.4v-15c0-0.41,0.12-3.59,2.94-4.73C65.4,14.87,65.17,17.49,68.32,15.77z"/>
	<path class="st1" d="M129.02,16.09c3.02-1.22,2.79,1.4,5.94-0.32c3.15-1.71-0.33-5.88-4.44-3.98c-1.89,0.88-3.38,2.06-4.44,3.09
		v-1.41v-2.54L119,13.46v0.84c1.05,0.05,1.5,0.93,1.68,1.91v0.95v18.65h5.4v-15C126.08,20.41,126.2,17.23,129.02,16.09z"/>
	<path class="st1" d="M85.73,2.91v4.38h0.93c0,0,0.03-4.38,5.73-4.38h5.7v3.42v29.48h5.4V2.91h6.18c5.7,0,5.73,4.38,5.73,4.38h0.93
		V2.91V0.27H85.73V2.91z"/>
	<path class="st1" d="M157.34,31.35c0-3.56,0-13.91,0-13.91s0.36-6.71-7.88-6.71c-6.53,0-8.14,3.93-8.52,5.56
		c-0.06,0.2-0.11,0.4-0.11,0.62c-0.01,0.05-0.01,0.09-0.01,0.09c0,1.24,1.01,2.25,2.25,2.25c1.24,0,2.25-1.01,2.25-2.25
		c0-0.25-0.05-0.49-0.13-0.71c-0.12-1.08,0-3.04,2.33-3.43c3.24-0.54,5.58,0.36,5.58,4.5c0,4.14-13.78,3.83-13.78,13.87
		c0,10.04,12.34,4.73,13.78,1.35v3.24h6.48v-0.99C159.6,34.82,157.34,34.91,157.34,31.35z M152.93,27.21c0,0-1.08,5.67-4.91,5.67
		s-4.05-4.77-2.39-6.3c1.67-1.53,7.29-4.86,7.29-4.86V27.21z"/>
	<path class="st1" d="M175,30.18l-6.62-18.42h-6.62v1.08c2.48,0,3.69,3.24,3.69,3.24l6.3,19.73h3.51l9.68-24.05h-2.07L175,30.18z"/>
	<path class="st1" d="M208.45,27.62l-0.72-0.32c0,0-2.25,4.59-7.38,4.59s-8.2-6.26-8.2-10.4h16.75c0,0,0.27-10.76-9.55-10.76
		c-9.82,0-10.9,10.58-10.9,13.91c0,3.33,2.43,12.39,11.17,12.39C208.36,37.03,208.45,27.62,208.45,27.62z M198.46,12.53
		c4.82,0,5.49,6.8,5.49,6.8h-11.8C192.15,19.33,193.64,12.53,198.46,12.53z"/>
	<path class="st1" d="M15.22,64.87h-1.11v-6.78h3.48v-2.17h-3.48V50.7h-2.17v5.22H7.93v2.17h4.02v6.78h-0.87
		c-1.71,0-3.1,1.39-3.1,3.1v8.52c0,1.71,1.39,3.1,3.1,3.1h4.14c1.71,0,3.1-1.39,3.1-3.1v-8.52C18.31,66.26,16.92,64.87,15.22,64.87z
		 M16.15,76.49c0,0.51-0.42,0.93-0.93,0.93h-4.14c-0.51,0-0.93-0.42-0.93-0.93v-8.52c0-0.51,0.42-0.93,0.93-0.93h4.14
		c0.51,0,0.93,0.42,0.93,0.93V76.49z"/>
	<path class="st1" d="M26.9,50.34h-3c-1.4,0-2.23,0.57-2.69,1.06c-1.06,1.13-0.99,2.68-0.98,2.79v18.04c0,4.42-0.4,6.79-0.4,6.81
		l2.13,0.37c0.02-0.1,0.44-2.55,0.44-7.18l0-2.73h6.24v5.94c0,0.41-0.15,1.44-0.59,1.83c-0.41,0.36-1.52,0.45-2.13,0.4l-0.2,2.16
		c0.07,0.01,0.27,0.02,0.55,0.02c0.8,0,2.26-0.13,3.2-0.95c1.29-1.13,1.33-3.22,1.33-3.46V54.24C30.8,51.38,28.47,50.34,26.9,50.34z
		 M28.64,67.33H22.4l0-5.76h6.24V67.33z M28.64,59.41H22.4l0-5.29c0-0.01-0.02-0.79,0.4-1.24c0.23-0.25,0.6-0.37,1.1-0.37h3
		c0.29,0,1.74,0.08,1.74,1.74V59.41z"/>
	<path class="st1" d="M80.51,50.04h-2.17v2.88H65.26v2.17h13.09v3.96h-9.06c-2.83,0-3.79,2.49-3.91,3.9v16.99h2.17l0-16.89
		c0.03-0.31,0.26-1.84,1.74-1.84l20.15,0c0.26-0.02,1.02,0.01,1.44,0.4c0.25,0.23,0.38,0.59,0.38,1.11l0.01,13.08
		c0.02,0.22,0,0.95-0.34,1.32c-0.07,0.08-0.28,0.31-0.92,0.31h-3.12v2.17H90c1.33,0,2.11-0.56,2.54-1.03
		c0.96-1.07,0.92-2.55,0.89-2.92V62.71c0-1.43-0.6-2.27-1.09-2.72c-1.21-1.1-2.91-0.96-2.99-0.95h-8.82v-3.96H93.6v-2.17H80.51
		V50.04z"/>
	<polygon class="st1" points="89.1,72.61 80.51,72.61 80.51,68.9 89.1,68.9 89.1,66.73 85.21,66.73 86.66,62.92 84.34,62.92 
		82.89,66.73 76.03,66.73 74.58,62.92 72.27,62.92 73.72,66.73 69.88,66.73 69.88,68.9 78.35,68.9 78.35,72.61 69.88,72.61 
		69.88,74.78 78.35,74.78 78.35,79.58 80.51,79.58 80.51,74.78 89.1,74.78 	"/>
	<polygon class="st1" points="208.41,77.24 208.41,69.26 219.59,69.26 219.59,67.09 194.22,67.09 194.22,69.26 206.24,69.26 
		206.24,77.24 192.36,77.24 192.36,79.4 222.29,79.4 222.29,77.24 	"/>
	<path class="st1" d="M221.18,59.47v-2.76c0-0.98-0.35-1.84-1-2.48c-1.33-1.31-3.46-1.31-3.69-1.31h-8.26v-2.28h-2.17v2.28h-9.33
		c-1.46,0-2.3,0.6-2.74,1.11c-0.96,1.08-0.9,2.53-0.86,2.91v2.47h2.17v-2.52l-0.01-0.13c-0.02-0.23-0.01-0.92,0.33-1.3
		c0.08-0.09,0.33-0.37,1.11-0.37h19.77c0.38-0.03,1.58,0.11,2.16,0.69c0.24,0.24,0.35,0.53,0.35,0.93v2.76H221.18z"/>
	<polygon class="st1" points="148.8,50.28 148.8,52.92 142.29,52.92 142.29,55.09 157.48,55.09 157.48,52.92 150.97,52.92 
		150.97,50.28 	"/>
	<path class="st1" d="M155.75,77.02c-0.38-0.44-0.38-1.48-0.32-1.91l0.01-13c0-3.65-2.15-4.64-3.3-4.66h-4.11
		c-1.62,0-2.87,0.48-3.7,1.44c-1.13,1.28-1.05,2.92-1.01,3.34V80h2.17V62.17l-0.01-0.13c0-0.01-0.11-1.05,0.49-1.73
		c0.41-0.46,1.1-0.69,2.07-0.69h4.1c0.01,0,1.15,0.08,1.15,2.49v12.78c-0.05,0.47-0.2,2.35,0.84,3.55c0.54,0.63,1.31,0.96,2.22,0.96
		h2.76v-2.17h-2.76C155.98,77.24,155.84,77.12,155.75,77.02z"/>
	<path class="st1" d="M140.29,56.86c0-1.47-0.45-2.65-1.34-3.53c-0.93-0.92-2.08-1.24-2.84-1.36l0.78-2.06l-2.31-0.02l-0.81,2.13
		c-1.43,0.23-2.57,0.78-3.4,1.66c-1.45,1.54-1.36,3.49-1.36,3.51v6.6h-1.92v2.17h1.92v13.99h2.17l0-13.99h6.94l0,9.31
		c0.03,0.47-0.06,1.67-0.51,2.15c-0.09,0.1-0.22,0.19-0.49,0.19h-2.47v2.17h2.47c0.81,0,1.53-0.3,2.06-0.87
		c1.21-1.28,1.11-3.51,1.1-3.7v-9.24h1.64v-2.17h-1.64V56.86z M131.18,63.79l0-6.65c0-0.01-0.03-1.14,0.78-1.99
		c0.69-0.72,1.82-1.08,3.36-1.08c0.47,0,2.79,0.14,2.79,2.8l0,6.92H131.18z"/>
	<rect x="133.43" y="57.43" class="st1" width="2.17" height="4.26"/>
	<rect x="133.43" y="68.17" class="st1" width="2.17" height="5.07"/>
	<polygon class="st1" points="1.51,79.77 3.7,79.84 5.79,67.03 3.59,67.03 	"/>
	<polygon class="st1" points="1.47,58.44 3.47,63.71 5.79,63.71 3.78,58.44 	"/>
	<polygon class="st1" points="1.48,50.86 3.48,56.11 5.79,56.09 3.8,50.86 	"/>
	<polygon class="st1" points="212.25,58.43 215.12,64.8 217.43,64.78 214.57,58.43 	"/>
	<polygon class="st1" points="199.1,64.8 201.97,58.43 199.65,58.43 196.79,64.78 	"/>
</g>
</svg>
