<?xml version="1.0" encoding="utf-8"?>
<!-- Generator: Adobe Illustrator 25.4.1, SVG Export Plug-In . SVG Version: 6.00 Build 0)  -->
<svg version="1.1" id="Layer_1" xmlns="http://www.w3.org/2000/svg" xmlns:xlink="http://www.w3.org/1999/xlink" x="0px" y="0px"
	 viewBox="0 0 185.1 80" style="enable-background:new 0 0 185.1 80;" xml:space="preserve">
<style type="text/css">
	.st0{fill:url(#SVGID_1_);}
	.st1{fill:#DA2D35;}
	.st2{fill:url(#SVGID_00000030455413215650292750000017068375926844981126_);}
	.st3{fill:#1D477C;}
	.st4{fill:url(#SVGID_00000034794832312797749910000000878605872321490339_);}
</style>
<g>
	<linearGradient id="SVGID_1_" gradientUnits="userSpaceOnUse" x1="186.351" y1="40.3796" x2="54.8705" y2="67.8859">
		<stop  offset="0" style="stop-color:#C71D26"/>
		<stop  offset="0.9986" style="stop-color:#8C1917"/>
	</linearGradient>
	<path class="st0" d="M169,23.5c-7,14.7-24.8,40.2-59.4,52.8C81,86.7,64.7,72.4,59.8,67c0,0,0,0,0,0c-1.1-1.2-1.6-1.9-1.6-1.9
		c23.5-0.9,52.6-6.6,75.7-17.1c20.2-9.1,31.9-21.1,34.5-23.9c0.1-0.2,0.3-0.3,0.4-0.5C168.9,23.6,168.9,23.5,169,23.5
		C168.9,23.5,168.9,23.5,169,23.5z"/>
	<path class="st1" d="M168.4,24.1c-11.5,13-21.1,19.9-47.3,30.5C94.7,65.4,60.3,67,59.8,67c0,0,0,0,0,0c-1.1-1.2-1.6-1.9-1.6-1.9
		c23.5-0.9,52.6-6.6,75.7-17.1C154.2,38.9,165.8,26.9,168.4,24.1z"/>
	
		<linearGradient id="SVGID_00000045585433502674907420000010016553500077984162_" gradientUnits="userSpaceOnUse" x1="175.9678" y1="28.4269" x2="-9.9754" y2="25.1261">
		<stop  offset="2.754298e-04" style="stop-color:#1D70B6"/>
		<stop  offset="0.1963" style="stop-color:#1D6DB1"/>
		<stop  offset="0.4146" style="stop-color:#1D64A4"/>
		<stop  offset="0.6436" style="stop-color:#1D558E"/>
		<stop  offset="0.8784" style="stop-color:#1E416F"/>
		<stop  offset="0.9986" style="stop-color:#1E345C"/>
	</linearGradient>
	<path style="fill:url(#SVGID_00000045585433502674907420000010016553500077984162_);" d="M185.1,0c-33.7,30.8-74.6,46.6-104.9,51.7
		c-30.3,5.2-64.7,2-69.9,0.9C5.2,51.5-1,44.6,0.1,35C1,28.4,4.8,23,7,20.3c1-1.2,1.6-1.8,1.6-1.8s24,14.5,55.4,15.8
		c31.4,1.3,43.6-1.5,69.5-9.2C159,17.4,184.3,0.5,185.1,0z"/>
	<path class="st3" d="M185.1,0c-16.3,12.6-45.1,24.9-53.3,27.7c-8.3,2.7-37.2,13-72.1,9C30.2,33.3,12,23.3,7,20.3
		c1-1.2,1.6-1.8,1.6-1.8s24,14.5,55.4,15.8c31.4,1.3,43.6-1.5,69.5-9.2C159,17.4,184.3,0.5,185.1,0z"/>
	
		<linearGradient id="SVGID_00000032611644451576079920000016465986694113612209_" gradientUnits="userSpaceOnUse" x1="6.0406" y1="19.8301" x2="105.7971" y2="22.0306">
		<stop  offset="2.754298e-04" style="stop-color:#95999C"/>
		<stop  offset="0.2761" style="stop-color:#B7BABC"/>
		<stop  offset="0.5665" style="stop-color:#D5D6D7"/>
		<stop  offset="0.8173" style="stop-color:#E7E7E8"/>
		<stop  offset="0.9984" style="stop-color:#EDEDEE"/>
	</linearGradient>
	<path style="fill:url(#SVGID_00000032611644451576079920000016465986694113612209_);" d="M14.9,16.9c0,0,2.6,3.1,9.2,4.8
		s13.6,5.6,13.6,5.6s14.7-7.5,29.2-8.5s37,3.3,37,3.3S83.3,14,54,14.2S14.9,16.9,14.9,16.9z"/>
</g>
</svg>
