<?xml version="1.0" encoding="utf-8"?>
<!-- Generator: Adobe Illustrator 25.4.1, SVG Export Plug-In . SVG Version: 6.00 Build 0)  -->
<svg version="1.1" id="Layer_1" xmlns="http://www.w3.org/2000/svg" xmlns:xlink="http://www.w3.org/1999/xlink" x="0px" y="0px"
	 viewBox="0 0 539.1 80" style="enable-background:new 0 0 539.1 80;" xml:space="preserve">
<style type="text/css">
	.st0{fill:#00497B;}
	.st1{fill:url(#SVGID_1_);}
	.st2{fill:#DA2D35;}
	.st3{fill:url(#SVGID_00000038401443383691517110000010927572583910440880_);}
	.st4{fill:#1D477C;}
	.st5{fill:url(#SVGID_00000017483900128054695880000011760398648213433764_);}
</style>
<g>
	<g>
		<polygon class="st0" points="327.9,0.7 317.7,0.7 317.7,45.9 317.7,56.9 327.9,56.9 349.2,56.9 354,45.9 327.9,45.9 		"/>
		<path class="st0" d="M278,0.7l-26.6,56.2c0,0,5,0.1,6.1,0c6.1,0,7.7-5.5,7.7-5.5l3-6.5h26.9l2.2,5.1c2.7,6.6,9.2,6.9,9.2,6.9h6.1
			L286.2,0.7H278z M272.7,36.1l9.3-20.3l9.3,20.3H272.7z"/>
		<path class="st0" d="M381.4,0.7l-26.6,56.2c0,0,5,0.1,6.1,0c6.1,0,7.7-5.5,7.7-5.5l3-6.5h26.9l2.2,5.1c2.7,6.6,9.2,6.9,9.2,6.9
			h6.1L389.6,0.7H381.4z M376,36.1l9.3-20.3l9.3,20.3H376z"/>
		<path class="st0" d="M512.8,0.7h-8.2l-26.6,56.2c0,0,5,0.1,6.1,0c6.1,0,7.7-5.5,7.7-5.5l3-6.5h26.9l2.2,5.1
			c2.7,6.6,9.2,6.9,9.2,6.9h6.1L512.8,0.7z M499.2,36.1l9.3-20.3l9.3,20.3H499.2z"/>
		<path class="st0" d="M246.7,42c0,0-3.7-1.6-6.2,0.1c0,0,0,0,0,0c-3.3,2.6-7.5,4.2-12.1,4.2c-10.4,0-18.8-8.1-18.8-18
			c0-9.9,8.4-18,18.8-18c3.7,0,7.1,1,10,2.7l0,0c0,0,0,0,0,0c0.1,0,0.1,0.1,0.2,0.1c0.8,0.5,4.6,2.5,7.8,0.4
			c1.7-1.1,3.3-2.6,4.6-3.8C245.5,3.9,237.4,0,228.4,0c-16.4,0-29.7,12.7-29.7,28.4c0,15.7,13.3,28.4,29.7,28.4
			c9.4,0,17.8-4.2,23.2-10.7L246.7,42z"/>
		<rect x="462.2" y="0.7" class="st0" width="10.9" height="56.2"/>
		<path class="st0" d="M428.3,0.7H421V57h4.3c3.3,0,6-2.7,6-6V31.2h25.6v-7.9h-25.6V9.9h25.6V0.7h-25.6H428.3z"/>
	</g>
	<path class="st0" d="M211,79.8h-2.7l-1.1-2.8h-4.9l-1,2.8h-2.6l4.8-12.2h2.6L211,79.8z M206.5,75l-1.7-4.5l-1.6,4.5H206.5z"/>
	<path class="st0" d="M251.6,79.8V67.6h2.5v12.2H251.6z"/>
	<path class="st0" d="M294.3,79.8V67.6h5.2c1.3,0,2.3,0.1,2.8,0.3c0.6,0.2,1.1,0.6,1.4,1.2c0.4,0.6,0.5,1.2,0.5,1.9
		c0,0.9-0.3,1.7-0.8,2.3c-0.5,0.6-1.3,1-2.4,1.1c0.5,0.3,1,0.7,1.3,1c0.3,0.4,0.8,1,1.4,2l1.5,2.4h-2.9l-1.8-2.7
		c-0.6-0.9-1.1-1.5-1.3-1.8c-0.2-0.2-0.5-0.4-0.7-0.5c-0.3-0.1-0.7-0.1-1.2-0.1h-0.5v5.1H294.3z M296.8,72.7h1.8
		c1.2,0,1.9,0,2.2-0.1c0.3-0.1,0.5-0.3,0.7-0.5c0.2-0.2,0.2-0.5,0.2-0.9c0-0.4-0.1-0.7-0.3-1c-0.2-0.3-0.5-0.4-0.9-0.5
		c-0.2,0-0.8,0-1.8,0h-1.9V72.7z"/>
	<path class="st0" d="M342.4,79.8V67.7h2.5v10h6.1v2.1H342.4z"/>
	<path class="st0" d="M391.9,79.8V67.6h2.5v12.2H391.9z"/>
	<path class="st0" d="M434.7,79.8V67.6h2.4l5,8.1v-8.1h2.3v12.2h-2.5l-4.9-8v8H434.7z"/>
	<path class="st0" d="M482.4,79.8V67.6h9v2.1h-6.6v2.7h6.1v2.1h-6.1v3.3h6.8v2.1H482.4z"/>
	<path class="st0" d="M529.2,75.8l2.4-0.2c0.1,0.8,0.4,1.4,0.9,1.8c0.4,0.4,1,0.6,1.8,0.6c0.8,0,1.4-0.2,1.8-0.5
		c0.4-0.3,0.6-0.7,0.6-1.2c0-0.3-0.1-0.5-0.3-0.7c-0.2-0.2-0.5-0.4-0.9-0.5c-0.3-0.1-0.9-0.3-2-0.5c-1.3-0.3-2.2-0.7-2.8-1.2
		c-0.7-0.7-1.1-1.5-1.1-2.5c0-0.6,0.2-1.2,0.5-1.7c0.4-0.5,0.9-1,1.5-1.2c0.7-0.3,1.5-0.4,2.4-0.4c1.5,0,2.7,0.3,3.5,1
		s1.2,1.6,1.2,2.7l-2.5,0.1c-0.1-0.6-0.3-1.1-0.7-1.4c-0.3-0.3-0.9-0.4-1.6-0.4c-0.7,0-1.3,0.1-1.7,0.4c-0.3,0.2-0.4,0.4-0.4,0.8
		c0,0.3,0.1,0.5,0.4,0.7c0.3,0.3,1.1,0.5,2.3,0.8c1.2,0.3,2.1,0.6,2.7,0.9c0.6,0.3,1,0.7,1.3,1.2c0.3,0.5,0.5,1.2,0.5,1.9
		c0,0.7-0.2,1.4-0.6,2c-0.4,0.6-0.9,1.1-1.6,1.4c-0.7,0.3-1.6,0.4-2.7,0.4c-1.5,0-2.7-0.4-3.6-1.1C529.9,78.2,529.4,77.2,529.2,75.8
		z"/>
	<linearGradient id="SVGID_1_" gradientUnits="userSpaceOnUse" x1="173.4849" y1="40.2503" x2="51.0821" y2="65.8576">
		<stop  offset="0" style="stop-color:#C71D26"/>
		<stop  offset="0.9986" style="stop-color:#8C1917"/>
	</linearGradient>
	<path class="st1" d="M157.3,24.5c-6.5,13.7-23,37.4-55.3,49.2c-26.5,9.7-41.8-3.6-46.3-8.7c0,0,0,0,0,0c-1-1.1-1.5-1.8-1.5-1.8
		c21.8-0.9,49-6.1,70.5-15.9c18.8-8.5,29.7-19.6,32.1-22.3c0.1-0.1,0.3-0.3,0.4-0.4C157.2,24.6,157.2,24.6,157.3,24.5
		C157.3,24.5,157.3,24.5,157.3,24.5z"/>
	<path class="st2" d="M156.8,25.1c-10.7,12.1-19.7,18.5-44,28.4C88.2,63.5,56.2,65,55.7,65c0,0,0,0,0,0c-1-1.1-1.5-1.8-1.5-1.8
		c21.8-0.9,49-6.1,70.5-15.9C143.5,38.9,154.4,27.7,156.8,25.1z"/>
	
		<linearGradient id="SVGID_00000141432137766966222820000018431784780067283096_" gradientUnits="userSpaceOnUse" x1="163.8186" y1="29.1228" x2="-9.2867" y2="26.0499">
		<stop  offset="2.754298e-04" style="stop-color:#1D70B6"/>
		<stop  offset="0.1963" style="stop-color:#1D6DB1"/>
		<stop  offset="0.4146" style="stop-color:#1D64A4"/>
		<stop  offset="0.6436" style="stop-color:#1D558E"/>
		<stop  offset="0.8784" style="stop-color:#1E416F"/>
		<stop  offset="0.9986" style="stop-color:#1E345C"/>
	</linearGradient>
	<path style="fill:url(#SVGID_00000141432137766966222820000018431784780067283096_);" d="M172.3,2.7C140.9,31.3,102.8,46,74.7,50.8
		c-28.2,4.8-60.3,1.9-65,0.8c-4.8-1-10.6-7.5-9.5-16.4C0.9,29.1,4.5,24,6.6,21.6c0.9-1.1,1.5-1.7,1.5-1.7s22.4,13.5,51.6,14.7
		c29.2,1.2,40.6-1.4,64.7-8.6C148,18.9,171.6,3.2,172.3,2.7z"/>
	<path class="st4" d="M172.3,2.7c-15.2,11.8-42,23.2-49.7,25.8C115,31,88,40.6,55.5,36.8c-27.4-3.2-44.4-12.4-49-15.2
		c0.9-1.1,1.5-1.7,1.5-1.7s22.4,13.5,51.6,14.7c29.2,1.2,40.6-1.4,64.7-8.6C148,18.9,171.6,3.2,172.3,2.7z"/>
	
		<linearGradient id="SVGID_00000098908300051977605200000011548349157205016212_" gradientUnits="userSpaceOnUse" x1="5.6236" y1="21.1196" x2="98.4926" y2="23.1682">
		<stop  offset="2.754298e-04" style="stop-color:#95999C"/>
		<stop  offset="0.2761" style="stop-color:#B7BABC"/>
		<stop  offset="0.5665" style="stop-color:#D5D6D7"/>
		<stop  offset="0.8173" style="stop-color:#E7E7E8"/>
		<stop  offset="0.9984" style="stop-color:#EDEDEE"/>
	</linearGradient>
	<path style="fill:url(#SVGID_00000098908300051977605200000011548349157205016212_);" d="M13.9,18.4c0,0,2.4,2.8,8.5,4.5
		s12.6,5.2,12.6,5.2s13.7-7,27.1-7.9s34.5,3.1,34.5,3.1s-19.1-7.5-46.4-7.4C22.9,16,13.9,18.4,13.9,18.4z"/>
</g>
</svg>
