<?xml version="1.0" encoding="utf-8"?>
<!-- Generator: Adobe Illustrator 25.4.1, SVG Export Plug-In . SVG Version: 6.00 Build 0)  -->
<svg version="1.1" id="Layer_1" xmlns="http://www.w3.org/2000/svg" xmlns:xlink="http://www.w3.org/1999/xlink" x="0px" y="0px"
	 viewBox="0 0 254.7 80" style="enable-background:new 0 0 254.7 80;" xml:space="preserve">
<style type="text/css">
	.st0{fill:#231F20;}
	.st1{fill:#FFF000;}
</style>
<g>
	<path id="path2784" class="st0" d="M21.4,40L4.1,77.5l26.8,0.1l10.5-26.4L21.4,40z"/>
	<path id="path2788" class="st0" d="M39.3,0L29,22.5l23.1,1l5.4,10.3c0,0,6.2-16.9,18.8-15.2L68,0L39.3,0z"/>
	<path id="path2792" class="st0" d="M109.2,20.6l-24.3-0.2c0,0-13.4,1.9-18.1,14.4l-9.5,24.5c0,0-6.9,19.8-25.7,18.1
		c0,0,24.5,5.7,36.5-20l8.2,20.6h26.6L81,29.1C81,29.1,85.5,22.2,109.2,20.6"/>
	<path id="path2796" class="st1" d="M0,20.6h53.4l3.7,8.5c0,0,7.6-18.5,26-9.3c0,0-15.3-2.1-20.3,12.8l-9.3,23.3l-7.2-18.1L0,20.6z"
		/>
	<path id="path2800" class="st1" d="M0.2,30.7h25.3l15.9,20.6L0.2,30.7z"/>
	<path id="path2876" class="st0" d="M113.4,31.2L113.4,31.2l-3.8,11.3h7.5L113.4,31.2z M125.6,50.6c0.2,0.5,0.3,0.9,0.3,1.2
		c0,0.3,0,0.5-0.2,0.6c-0.2,0.1-0.4,0.2-0.8,0.3c-0.4,0-0.9,0.1-1.6,0.1c-0.7,0-1.2,0-1.6,0c-0.4,0-0.7-0.1-0.9-0.1
		c-0.2-0.1-0.4-0.1-0.4-0.3c-0.1-0.1-0.2-0.3-0.2-0.4l-1.8-5.3h-10l-1.7,5.2c-0.1,0.2-0.1,0.3-0.2,0.5c-0.1,0.1-0.2,0.2-0.4,0.3
		c-0.2,0.1-0.5,0.1-0.8,0.2c-0.4,0-0.8,0-1.4,0c-0.6,0-1.1,0-1.5-0.1c-0.4,0-0.6-0.1-0.7-0.3c-0.1-0.2-0.2-0.4-0.1-0.7
		c0-0.3,0.1-0.7,0.3-1.1l8.2-23.5c0.1-0.2,0.2-0.4,0.3-0.6c0.1-0.1,0.3-0.3,0.5-0.3c0.2-0.1,0.6-0.1,1-0.1c0.4,0,1,0,1.7,0
		c0.8,0,1.5,0,1.9,0c0.5,0,0.8,0.1,1.1,0.1c0.3,0.1,0.5,0.2,0.6,0.3c0.1,0.1,0.2,0.4,0.3,0.6L125.6,50.6z"/>
	<path id="path2880" class="st0" d="M140.9,40.8c0-1.4-0.2-2.6-0.9-3.4c-0.6-0.8-1.6-1.2-2.9-1.2c-0.7,0-1.2,0.1-1.7,0.4
		c-0.5,0.2-0.9,0.6-1.2,1c-0.3,0.4-0.6,0.9-0.7,1.5c-0.2,0.6-0.3,1.2-0.3,1.8L140.9,40.8z M145.9,42.3c0,0.6-0.1,1.1-0.4,1.4
		c-0.3,0.3-0.7,0.5-1.2,0.5h-11.1c0,0.8,0.1,1.5,0.3,2.1c0.2,0.6,0.5,1.2,0.9,1.6c0.4,0.4,0.9,0.8,1.6,1c0.6,0.2,1.4,0.3,2.3,0.3
		c0.9,0,1.7-0.1,2.4-0.2c0.7-0.1,1.3-0.3,1.8-0.4c0.5-0.2,0.9-0.3,1.2-0.4c0.3-0.1,0.6-0.2,0.8-0.2c0.1,0,0.2,0,0.3,0.1
		c0.1,0,0.2,0.1,0.2,0.3c0.1,0.1,0.1,0.3,0.1,0.5c0,0.2,0,0.5,0,0.9c0,0.3,0,0.6,0,0.8c0,0.2,0,0.4-0.1,0.5c0,0.2-0.1,0.3-0.1,0.4
		c-0.1,0.1-0.1,0.2-0.2,0.3c-0.1,0.1-0.3,0.2-0.7,0.4c-0.4,0.2-0.9,0.3-1.5,0.5c-0.6,0.2-1.3,0.3-2.1,0.4c-0.8,0.1-1.6,0.2-2.5,0.2
		c-1.6,0-3.1-0.2-4.3-0.6c-1.2-0.4-2.2-1-3.1-1.9c-0.8-0.8-1.4-1.9-1.8-3.2c-0.4-1.3-0.6-2.8-0.6-4.5c0-1.6,0.2-3.1,0.6-4.4
		c0.4-1.3,1-2.4,1.8-3.3c0.8-0.9,1.8-1.6,2.9-2.1c1.2-0.5,2.5-0.7,3.9-0.7c1.5,0,2.8,0.2,3.9,0.7c1.1,0.5,2,1.1,2.7,1.9
		c0.7,0.8,1.2,1.7,1.5,2.8c0.3,1.1,0.5,2.3,0.5,3.6L145.9,42.3z"/>
	<path id="path2884" class="st0" d="M161.9,35.4c0,0.5,0,0.9,0,1.2c0,0.3-0.1,0.6-0.1,0.7c-0.1,0.2-0.1,0.3-0.2,0.4
		c-0.1,0.1-0.2,0.1-0.3,0.1c-0.1,0-0.2,0-0.4-0.1c-0.1,0-0.3-0.1-0.5-0.2c-0.2,0-0.4-0.1-0.6-0.2c-0.2,0-0.4-0.1-0.7-0.1
		c-0.3,0-0.6,0.1-0.9,0.2c-0.3,0.1-0.6,0.3-0.9,0.5c-0.3,0.2-0.6,0.6-1,1c-0.3,0.4-0.7,0.9-1.1,1.5v11.4c0,0.1,0,0.3-0.1,0.4
		c-0.1,0.1-0.2,0.2-0.4,0.3c-0.2,0.1-0.5,0.1-0.8,0.2c-0.3,0-0.7,0-1.2,0c-0.5,0-0.9,0-1.3,0c-0.3,0-0.6-0.1-0.8-0.2
		c-0.2-0.1-0.3-0.2-0.4-0.3c-0.1-0.1-0.1-0.2-0.1-0.4V33.7c0-0.1,0-0.3,0.1-0.4c0.1-0.1,0.2-0.2,0.4-0.3c0.2-0.1,0.4-0.1,0.7-0.2
		c0.3,0,0.6,0,1.1,0c0.4,0,0.8,0,1.1,0c0.3,0,0.5,0.1,0.7,0.2c0.2,0.1,0.3,0.1,0.3,0.3c0.1,0.1,0.1,0.2,0.1,0.4v2.3
		c0.5-0.7,0.9-1.2,1.4-1.7c0.4-0.4,0.8-0.8,1.2-1.1c0.4-0.3,0.8-0.4,1.1-0.5c0.4-0.1,0.8-0.2,1.2-0.2c0.2,0,0.4,0,0.6,0
		c0.2,0,0.4,0.1,0.6,0.1c0.2,0,0.4,0.1,0.6,0.2c0.2,0.1,0.3,0.1,0.4,0.2c0.1,0.1,0.1,0.1,0.2,0.2c0,0.1,0.1,0.2,0.1,0.3
		c0,0.1,0,0.4,0.1,0.6C161.9,34.5,161.9,34.9,161.9,35.4"/>
	<path id="path2888" class="st0" d="M177.7,42.8c0-0.9-0.1-1.7-0.2-2.5c-0.1-0.8-0.4-1.4-0.7-2c-0.3-0.6-0.8-1-1.4-1.3
		c-0.6-0.3-1.3-0.5-2.1-0.5c-0.8,0-1.4,0.1-2,0.4c-0.6,0.3-1,0.7-1.4,1.2c-0.4,0.5-0.6,1.2-0.8,1.9c-0.2,0.8-0.3,1.6-0.3,2.6
		c0,0.9,0.1,1.7,0.2,2.5c0.1,0.8,0.4,1.4,0.7,2c0.3,0.6,0.8,1,1.4,1.3c0.6,0.3,1.3,0.5,2.1,0.5c0.8,0,1.5-0.1,2-0.4
		c0.6-0.3,1-0.7,1.4-1.2c0.4-0.5,0.6-1.2,0.8-1.9C177.6,44.6,177.7,43.8,177.7,42.8 M183,42.6c0,1.6-0.2,3-0.6,4.3
		c-0.4,1.3-1,2.4-1.9,3.3c-0.8,0.9-1.9,1.6-3.1,2.2c-1.3,0.5-2.7,0.8-4.4,0.8c-1.6,0-3-0.2-4.2-0.7c-1.2-0.5-2.2-1.1-3-2
		c-0.8-0.9-1.4-1.9-1.8-3.2c-0.4-1.3-0.6-2.7-0.6-4.3c0-1.6,0.2-3,0.6-4.3c0.4-1.3,1-2.4,1.9-3.3c0.8-0.9,1.9-1.6,3.1-2.1
		c1.2-0.5,2.7-0.8,4.4-0.8c1.6,0,3.1,0.2,4.3,0.7c1.2,0.4,2.2,1.1,3,2c0.8,0.9,1.4,1.9,1.8,3.2C182.8,39.5,183,41,183,42.6"/>
	<path id="path2892" class="st0" d="M202,50.4c0,0.4,0,0.8,0,1c0,0.3-0.1,0.5-0.2,0.7c-0.1,0.2-0.2,0.3-0.3,0.4
		c-0.1,0.1-0.2,0.1-0.4,0.1H189c-0.4,0-0.8-0.1-1.1-0.4c-0.3-0.3-0.5-0.7-0.5-1.3V26.8c0-0.1,0-0.3,0.1-0.4c0.1-0.1,0.2-0.2,0.4-0.3
		c0.2-0.1,0.5-0.1,0.8-0.2c0.3,0,0.8-0.1,1.3-0.1c0.5,0,1,0,1.3,0.1c0.3,0,0.6,0.1,0.8,0.2c0.2,0.1,0.4,0.2,0.4,0.3
		c0.1,0.1,0.1,0.2,0.1,0.4v21.3h8.3c0.1,0,0.3,0,0.4,0.1c0.1,0.1,0.2,0.2,0.3,0.4c0.1,0.2,0.1,0.4,0.2,0.7
		C201.9,49.6,202,50,202,50.4"/>
	<path id="path2896" class="st0" d="M210,51.9c0,0.1,0,0.3-0.1,0.4c-0.1,0.1-0.2,0.2-0.4,0.3c-0.2,0.1-0.5,0.1-0.8,0.2
		c-0.3,0-0.7,0.1-1.2,0.1c-0.5,0-0.9,0-1.2-0.1c-0.3,0-0.6-0.1-0.8-0.2c-0.2-0.1-0.3-0.2-0.4-0.3c-0.1-0.1-0.1-0.2-0.1-0.4V33.7
		c0-0.1,0-0.3,0.1-0.4c0.1-0.1,0.2-0.2,0.4-0.3c0.2-0.1,0.5-0.1,0.8-0.2c0.3,0,0.7-0.1,1.2-0.1c0.5,0,0.9,0,1.2,0.1
		c0.3,0,0.6,0.1,0.8,0.2c0.2,0.1,0.3,0.2,0.4,0.3c0.1,0.1,0.1,0.2,0.1,0.4V51.9z M210.4,27.5c0,1-0.2,1.8-0.6,2.2
		c-0.4,0.4-1.2,0.6-2.3,0.6c-1.2,0-1.9-0.2-2.3-0.6c-0.4-0.4-0.6-1.1-0.6-2.1c0-1,0.2-1.8,0.6-2.2c0.4-0.4,1.2-0.6,2.4-0.6
		c1.1,0,1.9,0.2,2.3,0.6C210.2,25.8,210.4,26.5,210.4,27.5"/>
	<path id="path2900" class="st0" d="M232.6,51.9c0,0.1,0,0.3-0.1,0.4c-0.1,0.1-0.2,0.2-0.4,0.3c-0.2,0.1-0.5,0.1-0.8,0.2
		c-0.3,0-0.7,0.1-1.2,0.1c-0.5,0-0.9,0-1.3-0.1c-0.3,0-0.6-0.1-0.8-0.2c-0.2-0.1-0.3-0.2-0.4-0.3c-0.1-0.1-0.1-0.2-0.1-0.4V41.5
		c0-0.9-0.1-1.6-0.2-2.1c-0.1-0.5-0.3-0.9-0.6-1.3c-0.2-0.4-0.6-0.6-1-0.8c-0.4-0.2-0.8-0.3-1.4-0.3c-0.7,0-1.3,0.2-2,0.7
		c-0.7,0.5-1.4,1.2-2.1,2.1v12.2c0,0.1,0,0.3-0.1,0.4c-0.1,0.1-0.2,0.2-0.4,0.3c-0.2,0.1-0.5,0.1-0.8,0.2c-0.3,0-0.7,0.1-1.3,0.1
		c-0.5,0-0.9,0-1.2-0.1c-0.3,0-0.6-0.1-0.8-0.2c-0.2-0.1-0.3-0.2-0.4-0.3c-0.1-0.1-0.1-0.2-0.1-0.4V33.7c0-0.1,0-0.3,0.1-0.4
		c0.1-0.1,0.2-0.2,0.4-0.3c0.2-0.1,0.4-0.1,0.7-0.2c0.3,0,0.6,0,1.1,0c0.4,0,0.8,0,1.1,0c0.3,0,0.5,0.1,0.7,0.2
		c0.2,0.1,0.3,0.1,0.3,0.3c0.1,0.1,0.1,0.2,0.1,0.4v2.1c1-1.1,2-1.9,3.1-2.5c1-0.5,2.1-0.8,3.3-0.8c1.2,0,2.3,0.2,3.1,0.6
		c0.9,0.4,1.6,1,2.1,1.7c0.5,0.7,0.9,1.5,1.1,2.5c0.2,0.9,0.3,2.1,0.3,3.4L232.6,51.9z"/>
	<path id="path2904" class="st0" d="M254.7,51.9c0,0.1,0,0.3-0.1,0.4c-0.1,0.1-0.2,0.2-0.4,0.3c-0.2,0.1-0.5,0.1-0.8,0.1
		c-0.3,0-0.8,0.1-1.3,0.1c-0.6,0-1,0-1.4,0c-0.3,0-0.6-0.1-0.9-0.1c-0.2-0.1-0.4-0.2-0.5-0.3c-0.1-0.1-0.2-0.3-0.3-0.4l-6.1-9.6v9.7
		c0,0.1,0,0.3-0.1,0.4c-0.1,0.1-0.2,0.2-0.4,0.3c-0.2,0.1-0.5,0.1-0.8,0.2c-0.3,0-0.7,0.1-1.2,0.1c-0.5,0-0.9,0-1.2-0.1
		c-0.3,0-0.6-0.1-0.8-0.2c-0.2-0.1-0.3-0.2-0.4-0.3c-0.1-0.1-0.1-0.2-0.1-0.4V25c0-0.1,0-0.3,0.1-0.4c0.1-0.1,0.2-0.2,0.4-0.3
		c0.2-0.1,0.5-0.1,0.8-0.2c0.3,0,0.7-0.1,1.2-0.1c0.5,0,0.9,0,1.2,0.1c0.3,0,0.6,0.1,0.8,0.2c0.2,0.1,0.3,0.2,0.4,0.3
		c0.1,0.1,0.1,0.2,0.1,0.4v16l5.4-7.3c0.1-0.2,0.2-0.3,0.4-0.4c0.1-0.1,0.3-0.2,0.5-0.3c0.2-0.1,0.5-0.1,0.8-0.2
		c0.3,0,0.8-0.1,1.3-0.1c0.5,0,0.9,0,1.3,0.1c0.3,0,0.6,0.1,0.8,0.2c0.2,0.1,0.4,0.2,0.4,0.3c0.1,0.1,0.1,0.2,0.1,0.4
		c0,0.2,0,0.4-0.2,0.7c-0.1,0.2-0.3,0.5-0.5,0.7l-5.3,6.1l6.2,9.6c0.2,0.3,0.3,0.5,0.4,0.7C254.6,51.6,254.7,51.8,254.7,51.9"/>
	<path id="path2804" class="st0" d="M123.6,70.5c-0.3,0-0.6,0-0.6-0.4c0-0.2,0.1-0.6,0.1-0.8c0.2-0.9,0.1-1.2,1.1-1.6
		c1.6-0.7,3.5-0.9,5.3-0.9c0.7,0,1.4,0,2.1,0.2c0.9,0.2,0.8,0.6,1.2,1.6c0.1,0.3-0.3,0.9-0.5,1.2l-3.3,5l0,0c0.1-0.1,0.3,0,0.3,0.2
		c0,0.3-0.4,0.8-0.6,1c-0.3,0.3-0.8,1.2-1.2,1.2c-0.4,0-0.8-0.2-0.8-0.6c0-1.4,2.6-4.7,3.5-5.8l1.4-1.8c-2.4,0-4.8,0.4-7.1,1.1v0
		c0.2,0,1.1,0.1,1.1,0.4c0,0.3-0.6,0.1-1.1,0.1L123.6,70.5z"/>
	<path id="path2808" class="st0" d="M132.5,74.7c0.7-0.5,3.3-2.8,4-2.8c0.3,0,0.7,0.3,0.7,0.7c0,0.3-0.6,0.9-0.7,1.1
		c-0.9,1.1-0.8,1.1-0.8,1.2c0,0.2,0.1,0.3,0.3,0.3c0.5,0,1.5-0.8,1.9-1l0.1,0.6c-0.6,0.5-2.3,1.9-3.1,1.9c-0.4,0-0.6-0.4-0.6-0.7
		c0-0.9,1-2,1.5-2.6l0,0c-2.4,1.6-3.1,3.1-3.6,3.1c-0.5,0-0.6-1.1-0.6-1.4c0-1,0.4-1.6,0.9-2.5c1.7-2.7,4.5-5.2,4.9-5.2
		c0.2,0,0.6,0.1,0.6,0.4c0,1-4.5,5.6-5.4,6.5L132.5,74.7z"/>
	<path id="path2812" class="st0" d="M141.3,72.1c0-0.1-0.1-0.2-0.2-0.2c-0.7,0.2-1.5,0.9-1.9,1.8C140.5,73.3,141.4,72.4,141.3,72.1
		 M143.1,74.4c-0.9,1-2.4,2.3-3.8,2.3c-1,0-1.5-0.9-1.5-1.8c-0.1-1.8,2-3.7,3.8-3.7c0.5,0,1,0.1,1,0.7c0,0.7-0.7,1.7-3.4,2.6l0,0.3
		c0,0.5,0.4,0.7,0.9,0.7c1,0,2.2-1,2.9-1.6L143.1,74.4z"/>
	<path id="path2816" class="st0" d="M149.4,76.1c-0.7,0-0.4,0.1-1-0.1c-0.4,0.6-0.6,1.1-0.6,1.6c-0.1,0.4,0.1,0.8,0.3,1.3
		C148.9,78.3,149.5,77.2,149.4,76.1 M149.4,74.1c0.4,0.2,0.5,0.7,0.7,1.1L152,74l0.2,0.5c-0.6,0.5-1.1,1-1.8,1.3
		c0.1,0.3,0,0.5,0,0.8c-0.1,1.7-2.1,3.2-3.1,3.4c-0.6,0.1-0.8-1.2-0.8-1.7c0-0.9,0.6-2,1-2.8c-0.2-0.2-0.4-0.4-0.4-0.8
		c0-0.6,0.4-0.7,0.8-0.9c0.8-0.4,1.3-1.1,1.7-1.9c0.4-0.7,2.2-4,2.9-4c0.3,0,0.3,0.4,0.3,0.6c0,0.5-0.4,1.5-0.7,2L149.4,74.1z"/>
	<path id="path2820" class="st0" d="M153,73.4c-0.5,0.8-1.1,1.1-1.7,1.7l-0.1-0.6c0.4-0.3,0.7-0.6,0.9-1c-0.3,0-0.4-0.1-0.4-0.4
		c0-1,1.4-2,1.8-2c0.1,0,0.3,0.1,0.3,0.2c0,0.1,0,0.3-0.1,0.4c1.3-0.2,2.1-0.4,2.2-0.2c0.2,0.3,0.3,0.5,0.3,0.7
		c0,0.4-0.3,0.6-0.6,0.9c-0.4,0.4-1.1,1-1.1,1.6c0,0.2,0.2,0.4,0.4,0.4c0.6,0,1.5-0.9,2-1.3l0.1,0.5c-0.5,0.6-2.1,2.2-3,2.2
		c-0.6,0-1-0.5-1-1.1c0-1,0.7-1.7,1.3-2.4l0,0L153,73.4z"/>
	<path id="path2824" class="st0" d="M159.6,70.7c0-0.6,0.7-1.1,1.2-1.1c0.3,0,0.5,0.2,0.5,0.4c0,0.6-0.5,1.3-1.1,1.3
		C159.8,71.4,159.6,71.1,159.6,70.7 M160.9,74.7c-0.6,0.8-1.9,2-2.9,2c-0.8,0-1.2-1-1.2-1.7c0-1.7,1.8-3.4,2.6-3.4
		c0.2,0,0.6,0.1,0.6,0.4c0,0.7-1.4,2-2,2.4c-0.1,0.6,0.1,0.9,0.7,0.9c0.7,0,1.5-0.7,2-1.2L160.9,74.7z"/>
	<path id="path2828" class="st0" d="M164.3,72.1c0-0.1-0.1-0.2-0.2-0.2c-0.7,0.2-1.5,0.9-1.9,1.8C163.5,73.3,164.3,72.4,164.3,72.1
		 M166.1,74.4c-0.9,1-2.4,2.3-3.8,2.3c-1,0-1.5-0.9-1.5-1.8c-0.1-1.8,2-3.7,3.8-3.7c0.5,0,1,0.1,1,0.7c0,0.7-0.7,1.7-3.4,2.6l0,0.3
		c0,0.5,0.4,0.7,0.9,0.7c1,0,2.2-1,2.9-1.6L166.1,74.4z"/>
	<path id="path2832" class="st0" d="M172.5,73.7l0.1,0.6c-0.7,0.7-2.2,2.4-3.2,2.4c-0.5,0-0.8-0.4-0.8-0.9c0-0.8,0.8-1.8,1.2-2.4
		l0,0c-0.8,0.6-1.5,1.3-2.2,2.2c-0.2,0.3-0.7,1-1.1,1c-0.6,0-0.8-0.9-0.8-1.4c0-1,0.8-2.4,1.7-3.1c0.2-0.2,0.3-0.2,0.6-0.2
		c0.8,0,0.8,0.2,0.8,0.3c0,0.5-1.8,2-1.8,2.3c0,0.1,0.1,0.2,0.2,0.2c0.1,0,0.2-0.1,0.3-0.2c1.1-1.4,3.7-3.2,4.1-3.2
		c0.1,0,0.1,0.1,0.2,0.3c0.1,0.2,0.2,0.5,0.2,0.8c0,0.6-1.7,1.6-1.7,2.6c0,0.1,0.1,0.3,0.3,0.3c0.3,0,1-0.5,1.2-0.7L172.5,73.7z"/>
	<path id="path2836" class="st0" d="M173.5,74.8c0,0.1,0.1,0.2,0.2,0.3c0.2,0,2.4-1.6,2.7-2.5C173.9,73.4,173.6,73.9,173.5,74.8
		 M178,72.1c-0.5,0.7-1.1,1.7-1.1,2.6c0,0.2,0,0.7,0.3,0.7c0.5,0,1.8-1.1,2.2-1.4l0.1,0.5c-0.7,0.7-2.1,2.2-3.1,2.2
		c-0.5,0-0.7-0.6-0.7-1c0-0.4,0.1-0.7,0.1-1.1c-0.5,0.4-1.8,1.8-2.4,1.8c-0.6,0-1-1.3-1-1.8c0-1.7,2.8-3.1,4-3.1
		c0.3,0,0.4,0.2,0.6,0.4c0.5-0.8,1.7-3.7,2.7-3.7c0.3,0,0.4,0.3,0.4,0.5c0,0.4-0.4,1-0.6,1.4L178,72.1z"/>
	<path id="path2840" class="st0" d="M181,72.5c1-0.9,1.9-2.3,2.1-3.1h0v0l0,0C182.1,70.2,181.5,71.4,181,72.5L181,72.5z M183.9,74.4
		c-0.8,0.8-2.1,2.2-3.3,2.2c-1,0-1.3-1-1.3-1.8c0-1.5,0.7-3,1.5-4.2c1.3-1.5,2.6-2.8,3-2.8c0.2,0,0.3,0.3,0.3,0.5
		c-0.1,1.3-0.5,2.6-3.5,5.5c-0.1,0.2-0.2,0.6-0.1,1c0.1,0.3,0.3,0.6,0.7,0.6c0.8,0,1.9-0.9,2.4-1.4L183.9,74.4z"/>
	<path id="path2844" class="st0" d="M185.9,78.8c-0.1,0.2-0.5,0.7-0.8,0.7c-0.3,0-0.4-0.7-0.4-0.9c0-0.2,0.3-0.7,0.4-0.8l1.9-3.2
		l0,0c-1.2,1-2.2,1.7-2.3,1.7c-0.4,0-1.1-0.6-1.1-1.7c-0.1-1.7,2.3-3.5,2.7-3.5c0.2,0,0.6,0.5,0.6,0.6c0,0.5-1.6,2-2.1,2.4
		c-0.2,0.2-0.3,0.5-0.3,0.8c0.8-0.1,1.4-0.7,2-1.2c1.4-1.3,2.3-2.3,2.6-2.3c0.2,0,0.4,0.5,0.4,0.7c0,0.4-0.4,0.9-0.6,1.2l-2.1,3.1
		l0,0l3.1-2.8l0.1,0.5L185.9,78.8z"/>
	<path id="path2848" class="st0" d="M195.2,75.2c0,0.1,0.1,0.3,0.3,0.3c0.3-0.1,0.7,0,3.5-2.8l0,0C195.6,73.6,195.2,74.5,195.2,75.2
		 M196.9,75.5c-0.3,0.2-1.2,0.9-1.5,0.9c-0.4,0-1.2-0.9-1.2-1.7c-0.1-1.8,3.6-3.6,5.2-3.6c0.6,0,0.9,0.5,0.9,0.7
		c0,0.2-0.4,0.3-0.5,0.4c0.3,0.1,0.4,0.3,0.4,0.6c0,0.5-1.2,1.4-1.2,2.1c0,0.2,0.2,0.3,0.4,0.3c0.6,0,1.4-0.7,2-1.1l0.1,0.5
		c-0.6,0.7-2.5,2.2-3.2,2.2c-0.5,0-0.7-0.3-0.7-0.7c0-0.5,0.3-1.2,0.5-1.6l0,0L196.9,75.5z"/>
	<path id="path2852" class="st0" d="M204.1,70.7c0-0.6,0.7-1.1,1.2-1.1c0.3,0,0.5,0.2,0.5,0.4c0,0.6-0.5,1.3-1.1,1.3
		C204.3,71.4,204.1,71.1,204.1,70.7 M205.5,74.7c-0.6,0.8-1.9,2-2.9,2c-0.8,0-1.2-1-1.2-1.7c0-1.7,1.8-3.4,2.6-3.4
		c0.2,0,0.6,0.1,0.6,0.4c0,0.7-1.4,2-2,2.4c-0.1,0.6,0.1,0.9,0.7,0.9c0.7,0,1.5-0.7,2-1.2L205.5,74.7z"/>
	<path id="path2856" class="st0" d="M206.4,73.4c-0.5,0.8-1.1,1.1-1.7,1.7l-0.1-0.6c0.4-0.3,0.7-0.6,0.9-1c-0.3,0-0.4-0.1-0.4-0.4
		c0-1,1.4-2,1.8-2c0.1,0,0.3,0.1,0.3,0.2c0,0.1,0,0.3-0.1,0.4c1.3-0.2,2.1-0.4,2.2-0.2c0.2,0.3,0.3,0.5,0.3,0.7
		c0,0.4-0.3,0.6-0.6,0.9c-0.4,0.4-1.1,1-1.1,1.6c0,0.2,0.2,0.4,0.4,0.4c0.6,0,1.5-0.9,2-1.3l0.1,0.5c-0.5,0.6-2.2,2.2-3,2.2
		c-0.6,0-1-0.5-1-1.1c0-1,0.7-1.7,1.3-2.4l0,0L206.4,73.4z"/>
	<path id="path2860" class="st0" d="M211.9,72.5c1-0.9,1.9-2.3,2.1-3.1h0v0l0,0C213,70.2,212.4,71.4,211.9,72.5L211.9,72.5z
		 M214.8,74.4c-0.8,0.8-2.1,2.2-3.3,2.2c-1,0-1.3-1-1.3-1.8c0-1.5,0.7-3,1.6-4.2c1.3-1.5,2.6-2.8,3-2.8c0.2,0,0.3,0.3,0.3,0.5
		c-0.1,1.3-0.5,2.6-3.5,5.5c-0.1,0.2-0.2,0.6-0.1,1c0.1,0.3,0.3,0.6,0.7,0.6c0.8,0,1.9-0.9,2.4-1.4L214.8,74.4z"/>
	<path id="path2864" class="st0" d="M217.1,70.7c0-0.6,0.7-1.1,1.2-1.1c0.3,0,0.5,0.2,0.5,0.4c0,0.6-0.5,1.3-1.1,1.3
		C217.4,71.4,217.1,71.1,217.1,70.7 M218.5,74.7c-0.6,0.8-1.9,2-2.9,2c-0.8,0-1.2-1-1.2-1.7c0-1.7,1.8-3.4,2.6-3.4
		c0.2,0,0.6,0.1,0.6,0.4c0,0.7-1.4,2-2,2.4c-0.1,0.6,0.1,0.9,0.7,0.9c0.7,0,1.5-0.7,2-1.2L218.5,74.7z"/>
	<path id="path2868" class="st0" d="M225,73.7l0.1,0.6c-0.7,0.7-2.2,2.4-3.2,2.4c-0.5,0-0.8-0.4-0.8-0.9c0-0.8,0.8-1.8,1.2-2.4l0,0
		c-0.8,0.6-1.5,1.3-2.2,2.2c-0.2,0.3-0.7,1-1.1,1c-0.6,0-0.8-0.9-0.8-1.4c0-1,0.8-2.4,1.7-3.1c0.2-0.2,0.3-0.2,0.5-0.2
		c0.8,0,0.8,0.2,0.8,0.3c0,0.5-1.8,2-1.8,2.3c0,0.1,0.1,0.2,0.2,0.2c0.1,0,0.2-0.1,0.3-0.2c1.1-1.4,3.7-3.2,4.1-3.2
		c0.1,0,0.1,0.1,0.2,0.3c0.1,0.2,0.2,0.5,0.2,0.8c0,0.6-1.7,1.6-1.7,2.6c0,0.1,0.1,0.3,0.3,0.3c0.3,0,1-0.5,1.2-0.7L225,73.7z"/>
	<path id="path2872" class="st0" d="M228.4,72.1c0-0.1-0.1-0.2-0.2-0.2c-0.7,0.2-1.5,0.9-1.9,1.8C227.6,73.3,228.4,72.4,228.4,72.1
		 M230.1,74.4c-0.9,1-2.4,2.3-3.8,2.3c-1,0-1.5-0.9-1.5-1.8c-0.1-1.8,2-3.7,3.8-3.7c0.4,0,1,0.1,1,0.7c0,0.7-0.7,1.7-3.4,2.6l0,0.3
		c0,0.5,0.4,0.7,0.9,0.7c1,0,2.2-1,2.9-1.6L230.1,74.4z"/>
</g>
</svg>
