<?xml version="1.0" encoding="utf-8"?>
<!-- Generator: Adobe Illustrator 25.4.1, SVG Export Plug-In . SVG Version: 6.00 Build 0)  -->
<svg version="1.1" id="Layer_2_00000159471598350358213750000014612203606435250611_"
	 xmlns="http://www.w3.org/2000/svg" xmlns:xlink="http://www.w3.org/1999/xlink" x="0px" y="0px" viewBox="0 0 132.7 80"
	 style="enable-background:new 0 0 132.7 80;" xml:space="preserve">
<style type="text/css">
	.st0{fill:#E30628;}
</style>
<g>
	<path class="st0" d="M70.7,39.9c0.3-0.5,0.7-0.3,1.1-0.3c6.1-0.2,11.7,3.8,13.8,9.7c0.3,0.9,0.7,1.9-0.2,2.7
		c-0.3,0.2-0.2,0.6-0.2,1c0.3,2.6-0.1,5.1-0.9,7.5c0,0.1,0.1,0.2,0.1,0.3c5.3-1.7,10.3-9.2,7.3-17.2c-1.3-3.6-3.8-6.2-7.3-7.7
		c-5.2-2.2-10.1-1.2-14.6,2.2c2.9-5.1,10.1-8.4,17.3-5.3c0.5,0.2,1.1,0.5,1.1,1.2c0.1,0.7,0.6,1.1,1.1,1.4c1.8,1.1,3.2,2.6,4.4,4.3
		c0.2,0.3,0.3,0.8,0.9,0.7c0.7-1.9,0.6-3.9,0.3-5.9c-1-5.9-6.5-11.5-14.4-11.1c-6.3,0.3-11.8,5.5-12.5,12c-0.1,0.7-0.2,1.4-0.3,2.2
		c-0.2-0.2-0.3-0.3-0.3-0.4c-1.9-6.3,1-13.3,7.2-16.5c0.4-0.2,0.9-0.3,1.3,0c0.7,0.5,1.3,0.2,2,0c2-0.6,4-1,6.1-0.7
		c0.4,0,0.8,0.2,1.2-0.3c-3-3.8-6.9-5.7-11.7-5.4c-5.8,0.4-10,3.4-11.9,8.8c-2.3,6.4-0.4,11.7,4.8,16c-0.1,0.2-0.2,0.1-0.3,0.1
		c-6.2-2.1-10.3-9.5-8.9-15.9c0.1-0.5,0.3-1,0.8-1.2c0.7-0.3,1-0.9,1.2-1.6c0.7-1.9,1.8-3.6,3.2-5.1c0.3-0.3,0.8-0.5,0.6-1.2
		c-5.1,0-9.2,2-11.9,6.4c-2.9,4.7-3,9.7-0.1,14.4c3.6,5.7,8.9,7.4,15.4,6c-0.1,0.3-0.3,0.4-0.5,0.6c-5.7,3.2-13.5,1.8-17.6-3.3
		c-0.3-0.3-0.6-0.7-0.5-1.1c0.5-1.1-0.2-1.9-0.7-2.7c-0.7-1.2-1.1-2.4-1.5-3.7c-0.2-0.9-0.3-1.8-0.6-3c-3.2,3.8-4.2,7.8-3.1,12.3
		c1.5,5.8,5.3,9.4,11.3,10.3c6.9,1,11.6-2.2,14.7-8.3c0.2,0.3,0.1,0.6,0.1,0.8c-1.3,6.6-6.4,11.1-13.4,11.7
		c-0.6,0.1-1.1-0.1-1.5-0.6c-0.4-0.5-0.9-0.7-1.5-0.7c-2.2-0.2-4.3-1-6.2-2.1c-0.3-0.2-0.5-0.5-1.1-0.2c1,4.5,3.5,7.8,7.7,9.7
		c5.2,2.4,10.3,1.7,14.5-2c5.4-4.7,6-10.6,3.1-17.1c0.3,0.1,0.4,0.2,0.5,0.3c4.5,4.8,5,12.5,1.1,17.9c-0.4,0.5-0.8,1-1.5,1
		c-0.7-0.1-1.2,0.3-1.6,0.8c-1.4,1.5-3.1,2.5-5,3.3c-0.4,0.2-0.9,0.2-1.1,0.6c3,2.4,9.1,2.3,13,0c4.9-3,7.4-7.4,6.8-13
		C81.4,45.4,77.3,41.4,70.7,39.9 M0,0.2C0.7-0.1,1.2,0,1.8,0c27.7,0,55.4,0,83.1,0c1.4,0,2.1,0.4,2.8,1.6
		c14.6,25.3,29.2,50.7,43.8,76c0.4,0.7,0.8,1.4,1.1,2.1c-0.7,0.4-1.3,0.3-1.8,0.3c-27.8,0-55.5,0-83.3,0c-1.3,0-2-0.4-2.7-1.6
		C30.2,52.9,15.4,27.3,0.7,1.7C0.4,1.3,0,0.9,0,0.2"/>
</g>
</svg>
