<?xml version="1.0" encoding="utf-8"?>
<!-- Generator: Adobe Illustrator 25.4.1, SVG Export Plug-In . SVG Version: 6.00 Build 0)  -->
<svg version="1.1" id="Layer_2_00000159471598350358213750000014612203606435250611_"
	 xmlns="http://www.w3.org/2000/svg" xmlns:xlink="http://www.w3.org/1999/xlink" x="0px" y="0px" viewBox="0 0 531.2 80"
	 style="enable-background:new 0 0 531.2 80;" xml:space="preserve">
<style type="text/css">
	.st0{fill:#E30628;}
</style>
<g>
	<g>
		<path class="st0" d="M70.7,39.9c0.3-0.5,0.7-0.3,1.1-0.3c6.1-0.2,11.7,3.8,13.8,9.7c0.3,0.9,0.7,1.9-0.2,2.7
			c-0.3,0.2-0.2,0.6-0.2,1c0.3,2.6-0.1,5.1-0.9,7.5c0,0.1,0.1,0.2,0.1,0.3c5.3-1.7,10.3-9.2,7.3-17.2c-1.3-3.6-3.8-6.2-7.3-7.7
			c-5.2-2.2-10.1-1.2-14.6,2.2c2.9-5.1,10.1-8.4,17.3-5.3c0.5,0.2,1.1,0.5,1.1,1.2c0.1,0.7,0.6,1.1,1.1,1.4c1.8,1.1,3.2,2.6,4.4,4.3
			c0.2,0.3,0.3,0.8,0.9,0.7c0.7-1.9,0.6-3.9,0.3-5.9c-1-5.9-6.5-11.5-14.4-11.1c-6.3,0.3-11.8,5.5-12.5,12c-0.1,0.7-0.2,1.4-0.3,2.2
			c-0.2-0.2-0.3-0.3-0.3-0.4c-1.9-6.3,1-13.3,7.2-16.5c0.4-0.2,0.9-0.3,1.3,0c0.7,0.5,1.3,0.2,2,0c2-0.6,4-1,6.1-0.7
			c0.4,0,0.8,0.2,1.2-0.3c-3-3.8-6.9-5.7-11.7-5.4c-5.8,0.4-10,3.4-11.9,8.8c-2.3,6.4-0.4,11.7,4.8,16c-0.1,0.2-0.2,0.1-0.3,0.1
			c-6.2-2.1-10.3-9.5-8.9-15.9c0.1-0.5,0.3-1,0.8-1.2c0.7-0.3,1-0.9,1.2-1.6c0.7-1.9,1.8-3.6,3.2-5.1c0.3-0.3,0.8-0.5,0.6-1.2
			c-5.1,0-9.2,2-11.9,6.4c-2.9,4.7-3,9.7-0.1,14.4c3.6,5.7,8.9,7.4,15.4,6c-0.1,0.3-0.3,0.4-0.5,0.6c-5.7,3.2-13.5,1.8-17.6-3.3
			c-0.3-0.3-0.6-0.7-0.5-1.1c0.5-1.1-0.2-1.9-0.7-2.7c-0.7-1.2-1.1-2.4-1.5-3.7c-0.2-0.9-0.3-1.8-0.6-3c-3.2,3.8-4.2,7.8-3.1,12.3
			c1.5,5.8,5.3,9.4,11.3,10.3c6.9,1,11.6-2.2,14.7-8.3c0.2,0.3,0.1,0.6,0.1,0.8c-1.3,6.6-6.4,11.1-13.4,11.7
			c-0.6,0.1-1.1-0.1-1.5-0.6c-0.4-0.5-0.9-0.7-1.5-0.7c-2.2-0.2-4.3-1-6.2-2.1c-0.3-0.2-0.5-0.5-1.1-0.2c1,4.5,3.5,7.8,7.7,9.7
			c5.2,2.4,10.3,1.7,14.5-2c5.4-4.7,6-10.6,3.1-17.1c0.3,0.1,0.4,0.2,0.5,0.3c4.5,4.8,5,12.5,1.1,17.9c-0.4,0.5-0.8,1-1.5,1
			c-0.7-0.1-1.2,0.3-1.6,0.8c-1.4,1.5-3.1,2.5-5,3.3c-0.4,0.2-0.9,0.2-1.1,0.6c3,2.4,9.1,2.3,13,0c4.9-3,7.4-7.4,6.8-13
			C81.4,45.4,77.3,41.4,70.7,39.9 M0,0.2C0.7-0.1,1.2,0,1.8,0c27.7,0,55.4,0,83.1,0c1.4,0,2.1,0.4,2.8,1.6
			c14.6,25.3,29.2,50.7,43.8,76c0.4,0.7,0.8,1.4,1.1,2.1c-0.7,0.4-1.3,0.3-1.8,0.3c-27.8,0-55.5,0-83.3,0c-1.3,0-2-0.4-2.7-1.6
			C30.2,52.9,15.4,27.3,0.7,1.7C0.4,1.3,0,0.9,0,0.2"/>
	</g>
	<path class="st0" d="M167.1,27.7h-7.9c-0.5,0-0.7-0.3-0.9-0.7c-2.3-5.1-7.8-6.1-12.4-5.1c-4.7,1-7.8,4.8-8.4,10
		c-0.3,2.5-0.1,5,0.7,7.3c1.6,4.5,5.4,7.1,10.2,7.2c2.2,0,4.3-0.2,6.2-1.1c2.2-1,3.5-2.7,4.3-4.9c0.3-1,0.2-1.1-0.8-1.1
		c-2.9,0-5.8,0-8.7,0c-1.7,0-1.7,0-1.7-1.7c0-1.7,0-3.3,0-5c0-1.2,0.1-1.3,1.3-1.3c3.7,0,7.4,0,11.1,0c2.2,0,4.4,0,6.6,0
		c1.3,0,1.3,0,1.3,1.2c0.2,4.1-0.1,8.2-1.9,12c-2.7,5.6-7.2,8.9-13.2,10c-5,0.9-9.8,0.4-14.3-2.1c-5.8-3.2-9-8.2-10-14.6
		c-0.8-4.8-0.3-9.4,1.9-13.8c3.2-6.2,8.4-9.5,15.1-10.5c4.4-0.6,8.6-0.1,12.6,1.9c4.8,2.5,7.6,6.5,8.8,11.8
		C167.3,27.3,167.2,27.4,167.1,27.7"/>
	<path class="st0" d="M274.6,39.8L274.6,39.8c0-1.8,0-3.6,0-5.4c0-0.8-0.3-1.2-1-1.3c-1.4-0.3-2.8-0.5-4.3-0.3
		c-2.9,0.4-4.8,2-5.4,4.8c-0.4,2-0.5,4,0.2,6c0.9,2.5,2.8,4,5.5,4c1.3,0,2.5-0.3,3.7-0.8c1-0.4,1.4-1,1.4-2.1
		C274.5,43.1,274.6,41.5,274.6,39.8 M283,42.2c0,4,0,8,0,11.9c0,1.9-0.2,3.8-0.7,5.6c-1.5,5-4.9,7.9-9.8,8.9
		c-5.3,1.1-10.2-0.3-14.8-2.7c-0.6-0.3-0.8-0.7-0.7-1.4c0.4-1.9,0.7-3.7,1-5.6c0.1-0.6,0.4-0.7,1-0.5c1.5,0.6,2.9,1.4,4.5,1.9
		c2.1,0.7,4.3,1.3,6.6,1c2.6-0.4,4-1.7,4.5-4.3c0.1-0.7,0.2-1.4,0.2-2.1c0.1-0.9-0.1-1-1-0.7c-1.9,0.6-3.8,1-5.8,1
		c-4.8-0.1-8.5-2.2-10.7-6.4c-2.7-5.1-2.9-10.4-0.7-15.7c1.8-4.3,5.4-6.7,9.9-7.5c5.5-1.1,10.7,0,15.7,2.1c0.8,0.3,0.9,0.9,0.9,1.7
		C283,33.7,283,38,283,42.2"/>
	<path class="st0" d="M312,41.4c-0.8-0.1-1.8,0.2-2.7,0.7c-1.1,0.7-1.7,2.1-1.4,3.3c0.2,1.1,1,1.8,2.5,2c1.9,0.3,3.8-0.1,5.4-1.3
		c0.8-0.6,1.4-1.4,1.4-2.4c0-0.7-0.2-1.2-0.9-1.5C315,41.8,313.7,41.4,312,41.4 M316.9,35.8c0.3-1.5-0.1-2.3-1.4-2.9
		c-1-0.5-2.2-0.7-3.4-0.7c-3,0-5.8,0.5-8.5,1.9c-0.2,0.1-0.5,0.2-0.9,0.4c-0.6-2-0.9-4.1-1.3-6.1c-0.1-0.5,0.2-0.8,0.6-1.1
		c1.2-0.6,2.4-1.1,3.7-1.4c3.9-1,7.7-1.2,11.6-0.3c5.4,1.3,8.1,4.8,8.1,10.3c0,3.3,0,6.7,0,10c0,0.4,0,0.8,0,1.2
		c0.1,1.3,0.1,1.4,1.4,1.4c0.9,0,1.3,0.2,1.2,1.1c0,1.2,0.1,2.4,0.2,3.6c0.1,0.7-0.2,1-0.9,1.2c-1.7,0.3-3.3,0.4-5,0.2
		c-1.2-0.2-2.2-0.7-2.9-1.7c-0.8-0.9-0.8-0.9-1.8-0.2c-3.2,2-6.7,2.6-10.5,1.8c-7.6-1.7-10.5-10.6-5.4-16.2c2-2.2,4.6-3.1,7.4-3.3
		c2.3-0.2,4.6,0,6.8,0.7C316.4,35.7,316.6,35.9,316.9,35.8"/>
	<path class="st0" d="M179.1,35.5h10.6c-0.4-2-2.1-3.2-4.8-3.4C182.1,31.9,179.8,33.2,179.1,35.5 M195.7,45.2
		c0.6,2.2,0.8,4.3,1.1,6.3c0.1,0.5-0.2,0.8-0.7,1.1c-5.4,2.3-11,3.4-16.7,1.4c-5.7-1.9-8.8-6.1-9.6-12c-0.3-2.2-0.2-4.5,0.4-6.7
		c1.6-5.7,5.5-8.9,11.2-10c2.2-0.4,4.5-0.4,6.7,0.1c5.7,1.1,9.1,5.1,9.5,11c0.1,1.6-0.1,3.1-0.3,4.6c-0.2,1.3-0.3,1.4-1.6,1.4
		c-5.1,0-10.2,0-15.2,0c-0.5,0-0.9,0-1.4,0c-0.7,0-0.8,0.4-0.6,0.9c0.7,2,2.3,3.2,4.3,3.7c2.1,0.6,4.2,0.4,6.4,0.2
		C191.4,47,193.5,46.2,195.7,45.2"/>
	<path class="st0" d="M221.1,39.4c-0.1-1.6-0.6-3.5-2.2-4.9c-3.7-3.3-9.5-1.6-10.7,3.2c-1,3.7,0.5,7.3,3.5,8.7
		C216.3,48.6,221.1,45.2,221.1,39.4 M199.6,39.9c-0.1-10,7.3-14.9,14.9-15c7-0.1,15.1,4.4,15.1,15c0,10.6-8.1,14.9-15,14.9
		C205.8,54.8,199.6,48.6,199.6,39.9"/>
	<path class="st0" d="M332,43.4c0-2.9,0-5.8,0-8.7c0-0.5,0-0.9,0-1.4c-0.1-1.2-0.2-1.3-1.5-1.4c-1.2-0.1-1.3-0.1-1.3-1.2
		c0-1.4,0-2.8,0-4.2c0-0.6,0.2-0.9,0.8-1.1c1.7-0.4,3.4-0.5,5.2-0.3c1.4,0.1,2.6,0.6,3.5,1.7c0.5,0.6,0.8,0.6,1.4,0.2
		c3.2-2.2,6.8-2.6,10.4-1.8c3.8,0.8,6.3,3.2,7.6,6.8c0.7,1.9,0.9,3.8,0.9,5.8c0,4.9,0,9.8,0,14.7c0,1.6,0,1.6-1.7,1.6
		c-1.8,0-3.6,0-5.4,0c-1.5,0-1.5,0-1.6-1.5c0-4.8,0-9.6,0-14.4c0-0.5,0-0.9,0-1.4c-0.1-2.2-1.3-3.8-3.2-4.4c-2-0.6-4.3,0.1-5.6,1.8
		c-0.9,1.2-1.2,2.5-1.2,3.9c0,4.6,0,9.2,0,13.8c0,0.5,0,0.9,0,1.4c0,0.5-0.2,0.8-0.7,0.8c-2.4,0-4.7,0-7.1,0c-0.8,0-0.7-0.7-0.7-1.2
		c0-2.6,0-5.2,0-7.8V43.4z"/>
	<path class="st0" d="M253.6,35c-0.8-0.5-1.4-0.9-2-1.2c-1.8-1-3.8-1.4-5.8-0.8c-1.9,0.6-3,1.9-3.3,3.8c-0.1,0.7-0.2,1.5-0.2,2.2
		c0,4.4,0,8.8,0,13.1c0,0.5,0,0.9,0,1.4c0,0.5-0.3,0.7-0.8,0.7c-2.2,0-4.5,0-6.7,0c-0.6,0-0.8-0.3-0.8-0.9c0-0.5,0-0.9,0-1.4
		c0-5.8,0-11.6,0-17.5c0-0.4,0-0.8,0-1.2c-0.1-1.2-0.1-1.3-1.4-1.4c-1.3-0.1-1.3-0.1-1.4-1.3c0-1.3,0-2.7-0.1-4c0-0.7,0.2-1.2,1-1.3
		c3-0.6,6-0.8,8.4,1.6c0.6,0.6,1,0.1,1.5-0.2c3.8-2.6,7.8-2.7,12-0.7c0.2,0.1,0.4,0.2,0.6,0.3c1.3,0.8,1.3,0.8,0.9,2.4
		C254.8,30.8,254.2,32.7,253.6,35"/>
	<path class="st0" d="M287.9,40.1c0-4,0-8,0-11.9c0-0.4,0-0.8,0-1.2c0-0.7,0.2-1.1,1-1c2.2,0,4.4,0,6.6,0c0.6,0,0.9,0.3,0.8,0.8
		c0,0.4,0,0.8,0,1.2c0,8.1,0,16.3,0,24.4c0,0.2,0,0.3,0,0.5c0,1.5,0,1.5-1.4,1.5c-1.8,0-3.7,0-5.5,0c-1.4,0-1.5,0-1.5-1.5
		C287.9,48.6,287.9,44.3,287.9,40.1"/>
	<path class="st0" d="M387.9,25.7c-0.1,0.1-0.2,0.2-0.3,0.3c-2.3,5-4.7,9.9-7,14.9c-0.5,1-0.4,1.2,0.8,1.2c3.2,0,6.4,0,9.5,0
		c1.3,0,2.5,0,3.8,0c0.6,0,0.9-0.3,0.6-0.9c-0.1-0.3-0.2-0.5-0.4-0.8c-2.1-4.5-4.2-9-6.3-13.5C388.5,26.5,388.4,26,387.9,25.7
		 M403.4,53.6c0,0.5-0.1,0.8-0.5,0.9c-0.5,0.1-1.1,0.2-1.4-0.3c-0.2-0.3-0.4-0.7-0.6-1.1c-1.2-2.6-2.5-5.2-3.7-7.8
		c-0.4-0.8-0.9-1.2-1.8-1.2c-5,0-10,0-15.1,0c-1,0-1.4,0.4-1.8,1.2c-1.2,2.7-2.5,5.4-3.8,8.1c-0.3,0.6-0.5,1.1-1.4,1.1
		c-0.8,0-1.1-0.4-0.9-1.1c0.1-0.4,0.3-0.7,0.5-1.1c4.6-9.8,9.2-19.6,13.7-29.5c0.1-0.3,0.3-0.6,0.5-0.9c0.5-0.6,1.1-0.6,1.6,0
		c0.2,0.3,0.3,0.6,0.5,0.9c4.6,9.8,9.1,19.7,13.7,29.5C403.1,52.8,403.2,53.3,403.4,53.6"/>
	<path class="st0" d="M447.4,37.4c-0.6,0.5-0.7,1.1-0.8,1.6c-1.6,4.6-3.1,9.3-4.7,13.9c-0.2,0.6-0.2,1.5-1.1,1.6
		c-0.9,0-0.9-0.9-1.2-1.5c-2.4-6.5-4.7-13-7-19.5c-0.1-0.3-0.2-0.6-0.3-0.8c-0.2-0.5-0.2-1,0.4-1.1c0.5-0.2,1.2-0.3,1.5,0.4
		c0.2,0.4,0.3,0.9,0.5,1.3c1.7,4.9,3.5,9.8,5.2,14.7c0.2,0.5,0.3,1,0.7,1.5c0.7-0.3,0.7-1,0.9-1.5c1.6-4.7,3.1-9.4,4.7-14.1
		c0.2-0.7,0.2-1.7,1.2-1.7c1,0,1,1,1.2,1.7c1.6,4.7,3.1,9.5,4.7,14.3c0.2,0.5,0.2,1,0.8,1.5c0.4-0.4,0.5-0.9,0.7-1.4
		c1.8-5.1,3.7-10.2,5.5-15.3c0.3-0.8,0.6-1.3,1.6-1.2c0.6,0.1,0.8,0.4,0.7,0.9c-0.1,0.4-0.2,0.8-0.4,1.2c-2.3,6.4-4.7,12.9-7,19.3
		c-0.2,0.6-0.2,1.7-1.2,1.7c-1,0-1-1-1.2-1.7c-1.6-4.6-3.1-9.2-4.6-13.8C447.9,38.5,447.6,38,447.4,37.4"/>
	<path class="st0" d="M473.7,42.1c-1.1-0.1-2.4,0.2-3.6,0.7c-2.3,1-3.7,3.2-3.4,5.5c0.2,2.2,1.8,3.8,4.3,4.3c2.6,0.6,5,0.1,7.3-1.1
		c2.4-1.3,3.7-3.3,3.6-6.2c-0.1-1-0.4-1.5-1.3-1.8C478.4,42.7,476.2,42.1,473.7,42.1 M481.8,51.8c-0.7,0.1-1,0.6-1.4,0.9
		c-3.1,2-6.4,2.7-10.1,1.9c-3.1-0.7-5.4-3-5.7-5.8c-0.4-3.4,1.1-6.1,4.1-7.7c2.7-1.4,5.5-1.2,8.3-0.8c1.3,0.2,2.5,0.6,3.7,1
		c1,0.3,1.1,0.2,1.1-0.8c0-0.1,0-0.1,0-0.2c0.2-4.3-1.2-7-6.8-7.3c-2.4-0.1-4.7,0.3-6.9,1.4c-0.4,0.2-0.9,0.6-1.4,0.1
		c-0.6-0.6-0.6-1.4,0.2-1.8c1.2-0.7,2.4-1.1,3.7-1.3c2.5-0.4,4.9-0.5,7.4,0.1c3.5,0.9,5.5,3.5,5.6,6.4c0,0.7,0.1,1.5,0.1,2.2
		c0,3.6,0,7.3,0,10.9c0,1.5,0.2,1.8,1.6,1.8c0.8,0,1.2,0.2,1.3,1c0.1,0.9-0.5,1.1-1.2,1.1C483.3,54.8,482.5,54.3,481.8,51.8"/>
	<path class="st0" d="M521.3,31.1c2.6,0,4.9,0.5,6.9,1.9c1.3,0.9,2.1,2.1,2.2,3.7c0.1,0.9-0.6,1.4-1.4,1.1c-0.4-0.1-0.6-0.5-0.6-0.9
		c-0.2-1.3-1.1-2.2-2.2-2.7c-3.2-1.4-6.3-1.5-9.5-0.1c-0.7,0.3-1.4,0.8-1.9,1.5c-1.3,1.8-0.8,3.8,1.3,4.7c1.1,0.5,2.3,0.7,3.5,0.8
		c1.7,0.2,3.3,0.4,5,0.7c1,0.1,1.9,0.4,2.8,0.7c3.7,1.4,4.9,5.6,2.5,8.8c-0.6,0.8-1.4,1.5-2.3,2c-4.2,2.1-8.4,2.2-12.6,0
		c-1.8-0.9-3-2.4-3.5-4.5c-0.1-0.5-0.2-1.1,0.5-1.2c0.6-0.1,1.3-0.2,1.5,0.7c0.7,2.8,2.8,3.7,5.3,4.3c2.4,0.5,4.8,0.3,7.1-0.7
		c0.9-0.4,1.7-1,2.3-1.8c1.6-2.1,0.8-4.7-1.6-5.7c-1.7-0.7-3.5-0.8-5.3-1c-1.5-0.2-3-0.3-4.4-0.7c-0.4-0.1-0.9-0.2-1.3-0.4
		c-3.8-1.4-4.8-5.7-1.9-8.7c1.6-1.7,3.7-2.3,5.9-2.6C520.2,31.1,520.8,31.1,521.3,31.1"/>
	<path class="st0" d="M498.5,51.2c0.6-0.5,0.7-1.2,1-1.8c2.4-5.5,4.9-11.1,7.3-16.6c0.3-0.7,0.5-1.4,1.6-1.3c0.7,0.1,1,0.4,0.8,1
		c-0.1,0.4-0.3,0.8-0.4,1.1c-3.9,9-7.8,18-11.8,26.9c-0.5,1.1-1,2.1-1.7,3c-1.7,2.2-4.5,2.8-7,1.5c-0.5-0.3-0.9-0.6-0.6-1.2
		c0.2-0.6,0.5-1,1.3-0.8c0.2,0,0.3,0.1,0.5,0.2c2.4,0.6,3.5,0.2,4.8-1.9c1.2-2,2-4.3,2.9-6.4c0.4-0.8-0.1-1.3-0.4-2
		c-2.8-6-5.6-12-8.5-18c-0.3-0.7-0.6-1.4-0.9-2c-0.2-0.4-0.4-0.9,0.1-1.2c0.4-0.3,1.4-0.2,1.7,0.3c0.3,0.4,0.4,0.8,0.6,1.2
		c2.6,5.5,5.2,11.1,7.8,16.6C497.8,50.2,498,50.8,498.5,51.2"/>
	<path class="st0" d="M299,69.7c0-1.4,0-2.8,0-4.1c0.1-2.3,1.2-3.3,3.5-3.5c1.3-0.1,2.6-0.1,3.7,0.7c0.4,0.3,0.7,0.3,1.1,0
		c1.3-0.9,2.8-0.9,4.3-0.6c1.6,0.3,2.6,1.2,2.6,2.8c0.1,3.2,0.1,6.3,0,9.5c0,1.6-1.3,2.8-2.9,3c-0.4,0-0.9,0.2-1-0.4
		c-0.1-0.4-0.3-1,0.3-1.2c1.8-0.6,1.8-2,1.7-3.5c0-2,0-4,0-6.1c0-2.2-1.7-3.2-3.6-2.3c-0.8,0.4-1,1.1-1,1.9c0,1.8,0,3.6,0,5.4
		c0,0.6-0.1,1-0.9,1c-0.7,0-1.1-0.1-1.1-0.9c0-1.7,0-3.3,0-5c-0.1-2.1-2-3.3-3.9-2.2c-0.5,0.3-0.8,0.8-0.8,1.4c0,2.8,0,5.7,0,8.5
		c0,0.7,0.3,1.2,0.9,1.5c0.2,0.1,0.4,0.2,0.6,0.3c0.6,0.3,0.6,0.8,0.4,1.3c-0.1,0.5-0.6,0.4-1,0.3c-1.7-0.2-2.8-1.4-2.9-3.1
		C298.9,72.8,299,71.2,299,69.7"/>
	<path class="st0" d="M323.4,62.2c0.9,0,1.8,0,2.8,0c0.6,0,1.2-0.1,1.2,0.8c0,0.9-0.5,0.9-1.1,0.9c-1.5,0-3,0-4.5,0
		c-0.5,0-0.9,0-1.4,0.1c-0.6,0.1-0.9,0.4-1,1c0,0.6,0.3,1,0.8,1.2c0.3,0.1,0.7,0.2,1,0.2c1.1-0.1,1.8,0.7,2.7,0.9
		c0.8,0.1,1.5-0.8,2.5-0.9c3.9-0.3,5.1,0.8,5.1,4.7c0,1.1,0,2.2,0,3.3c-0.1,1.6-1.2,2.7-2.7,3c-0.4,0.1-0.9,0.3-1-0.3
		c-0.1-0.4-0.2-1,0.2-1.3c2.9-1.7,1.4-4.3,1.4-6.5c0-1-1-1.3-2.5-1.2c-1.2,0.1-1.8,0.6-1.9,1.6c-0.1,1-0.1,2,0,2.9
		c0,0.7-0.2,1.1-1,1.1c-0.7,0-1-0.3-1-1c0-0.9,0-1.7,0-2.6c-0.1-1.5-0.7-2-2.2-2c-1.7,0-2.3,0.4-2.4,1.9c-0.1,1,0,2.1,0,3.1
		c0,1.1,0.2,2.1,1.4,2.5c0.7,0.3,0.7,0.9,0.5,1.5c-0.2,0.6-0.8,0.3-1.2,0.2c-1.5-0.4-2.4-1.5-2.5-3.1c-0.1-1.6,0-3.1,0-4.7
		c0-1.1,0.9-1.9,1.2-2.8c0.3-0.8-0.4-1.9,0-2.9c0.4-1,1.2-1.6,2.3-1.6c1.2-0.1,2.4,0,3.6,0"/>
	<path class="st0" d="M417.2,63.9c-0.9,0-1.9,0-2.8,0c-0.7,0-1.4,0.2-1.5,1.1c-0.1,0.9,0.6,1.3,1.3,1.3c1.1,0.1,2.2,0.2,3.1,1
		c0.3,0.2,0.5,0,0.8-0.2c1.4-1.1,3-0.8,4.5-0.6c1.4,0.2,2.4,1.2,2.5,2.7c0.1,1.8,0.1,3.6,0,5.4c-0.1,1.4-1.2,2.5-2.7,2.8
		c-0.4,0.1-0.9,0.3-1-0.3c-0.1-0.4-0.2-1.1,0.2-1.3c1.9-0.7,1.6-2.3,1.6-3.8c0-0.7,0-1.5,0-2.2c-0.1-1.2-0.7-1.7-2.1-1.7
		c-1.5,0-2.2,0.4-2.4,1.6c-0.1,1-0.1,2-0.1,2.9c0,0.7-0.2,1-1,1c-0.8,0-1-0.3-1-1.1c0-0.9,0-1.7,0-2.6c-0.1-1.4-0.6-1.9-2.1-2
		c-1.8-0.1-2.5,0.4-2.6,1.8c-0.1,1.3,0,2.7,0,4c0,0.8,0.5,1.4,1.2,1.7c0.4,0.2,0.6,0.4,0.6,0.9c0,0.6-0.1,1-0.9,0.9
		c-1.5-0.2-2.8-1.4-2.9-3c-0.1-1.7,0-3.5,0-5.2c0-0.4,0.2-0.8,0.3-1.2c0.5-1,0.7-2,0.7-2.9c-0.1-1.7,0.7-2.7,2.3-2.9
		c2.3-0.3,4.6-0.1,6.9-0.1c0.6,0,0.7,0.4,0.7,0.9c0,0.5-0.2,0.7-0.7,0.7C419.1,63.9,418.2,63.9,417.2,63.9"/>
	<path class="st0" d="M418.5,33.3c3.2-2.9,6.6-3.1,10.3-1.7c0.5,0.2,1,0.6,1.5,0.9c0.6,0.4,0.6,0.9,0.2,1.5
		c-0.4,0.5-0.8,0.6-1.3,0.3c-0.9-0.5-1.8-1-2.9-1.2c-4.1-1-7.8,1.8-7.8,6c-0.1,4.4,0,8.8,0,13.2c0,0.5,0,0.9,0,1.4
		c0,0.6-0.2,1-0.9,1c-0.7,0-1.1-0.2-1.1-1c0-0.4,0-0.8,0-1.2c0-5.4,0-10.8,0-16.3c0-0.5,0-0.9,0-1.4c-0.1-1.4-0.3-1.6-1.7-1.7
		c-0.6,0-1.2,0-1.4-0.7c-0.2-0.7,0.1-1.1,0.8-1.2C416.1,30.9,417.7,31.2,418.5,33.3"/>
	<path class="st0" d="M376.4,72.4L376.4,72.4c0-0.6,0-1.3,0-1.9c0-0.1,0-0.2,0-0.3c-0.2-1.2-0.6-1.6-1.8-1.7c-0.7,0-1.4,0-2.1,0
		c-1,0.1-1.6,0.5-1.7,1.6c-0.2,1.5-0.2,3.1,0,4.7c0.1,1,0.7,1.5,1.8,1.5c1.3,0,2.9,0.7,3.7-1c0.1-0.3,0.2-0.7,0.2-1
		C376.4,73.5,376.4,72.9,376.4,72.4 M370.9,66.6c1.3-0.2,2.6-0.2,3.9-0.2c2.3,0.1,3.4,1.2,3.5,3.5c0.1,1.5,0.1,3,0,4.5
		c-0.1,2-1.2,3-3.2,3.1c-1,0-2,0-2.9,0c-2.1-0.1-3.3-1.2-3.4-3.3c-0.1-1.1,0-2.2,0-3.3c0-1.8,0-3.6,0-5.4c0.1-2.2,1-3.2,3.2-3.3
		c1.5-0.1,3,0,4.5,0c0.5,0,0.9,0.1,0.9,0.8c0,0.7-0.2,0.9-0.9,0.9c-1.2,0-2.4,0-3.6,0C370.9,64,370.6,64.5,370.9,66.6"/>
	<path class="st0" d="M287,18.8c0-2.8,2-4.7,4.8-4.7c2.9,0,4.8,1.9,4.8,4.7c0,3.2-2.3,4.8-4.9,4.9C289,23.7,287,21.5,287,18.8"/>
	<path class="st0" d="M431.9,77.5c-0.6,0-1.2,0-1.7,0c-1.7-0.1-2.8-1.2-2.9-2.9c-0.1-0.8,0-1.6,0-2.4c0-0.8,0.5-0.9,1.2-0.9
		c0.8,0,0.8,0.5,0.8,1c0,0.6-0.1,1.2-0.1,1.7c0.1,1.1,0.6,1.6,1.7,1.8c0.3,0,0.7,0,1,0c1,0,2.1,0.2,2.6-0.9c0.5-1.1,0.5-2.4,0-3.5
		c-0.2-0.7-0.8-1-1.5-1c-0.5,0-0.9,0-1.4,0c-0.5,0-0.6-0.4-0.6-0.8c0-0.5,0.1-0.8,0.6-0.8c0.1,0,0.2,0,0.3,0
		c2.3-0.3,3.1-1.5,2.4-3.8c-0.1-0.2-0.1-0.3-0.2-0.5c-1-1.1-2.2-0.7-3.4-0.6c-0.8,0-1.2,0.7-1.3,1.8c0,0.2,0,0.3,0,0.5
		c0,0.4,0.1,0.9-0.5,0.9c-0.6,0-1.1,0.2-1.4-0.6c-0.5-1.6,0.5-3.7,2.1-4.2c1.5-0.5,3.1-0.4,4.6,0c1,0.3,1.8,1,2,2
		c0.3,1.5,0.5,3.1-0.4,4.5c-0.4,0.6-0.2,0.9,0.1,1.4c1.1,1.7,0.9,3.6,0.4,5.5c-0.3,1.1-1.2,1.7-2.3,1.8
		C433.4,77.6,432.7,77.5,431.9,77.5"/>
	<path class="st0" d="M474,69.8c0-1.4,0-2.8,0-4.1c0.1-2.3,1.1-3.4,3.4-3.6c1.1-0.1,2.3-0.1,3.4,0.1c1.7,0.4,2.6,1.2,2.7,2.9
		c0.1,3.1,0.1,6.2,0,9.3c0,1.4-1,2.4-2.3,2.9c-0.4,0.1-0.8,0.3-1.1-0.1c-0.2-0.4-0.3-1.1,0.1-1.3c1.6-0.8,1.4-2.2,1.4-3.6
		c0-2.1,0-4.2,0-6.2c0-1.8-0.5-2.2-2.3-2.3c-3.1-0.1-3.3,0.2-3.3,3.3c0,2.1,0,4.1,0,6.2c0,1,0.1,1.9,1.1,2.4
		c0.4,0.2,0.4,0.5,0.4,0.9c0,0.7-0.2,1-0.9,0.8c-1.5-0.3-2.4-1.5-2.5-3.1C473.9,72.8,474,71.3,474,69.8"/>
	<path class="st0" d="M345.4,69.8c0-1.5-0.1-3,0-4.5c0.1-2,1-2.9,3-3.2c1.3-0.2,2.6-0.2,4,0.1c1.4,0.3,2.2,1.1,2.5,2.5
		c0.1,0.5,0.2,0.9,0.2,1.4c0,2.5,0,5,0,7.4c0,1.7-0.6,3.1-2.3,3.7c-0.4,0.2-1,0.4-1.2-0.1c-0.2-0.4-0.3-1.1,0.3-1.4
		c1.1-0.6,1.2-1.6,1.2-2.6c0-2.2,0-4.5,0-6.7c0-2.1-0.4-2.5-2.5-2.6c-2.9,0-3.1,0.2-3.1,3c0,2.1,0,4.3,0,6.4c0,1,0,2,1.1,2.5
		c0.4,0.2,0.4,0.5,0.4,0.9c0,0.7-0.2,0.9-0.9,0.8c-1.4-0.3-2.4-1.4-2.5-2.9C345.4,72.9,345.5,71.4,345.4,69.8"/>
	<path class="st0" d="M396,69.9c0,1.5,0.1,3,0,4.5c-0.1,2.1-1.2,3.1-3.3,3.2c-0.9,0-1.8,0-2.8,0c-2.3-0.1-3.5-1.3-3.4-3.6
		c0-0.7,0.2-1.5,0.2-2.2c0.1-0.8,0.6-0.8,1.2-0.8c0.8,0,0.8,0.5,0.7,1.1c-0.1,0.7-0.2,1.4-0.2,2.1c0,1.2,0.6,1.8,1.8,1.9
		c3.6,0.2,3.9-0.3,3.8-3.4c-0.1-2,0-3.9,0-5.9c0-2.5-0.5-2.9-3.1-2.8c-1.2,0.1-1.7,0.6-1.8,1.8c0,0.3,0,0.7,0,1c0,1-0.3,1.2-1.2,1.1
		c-0.4-0.1-0.6-0.2-0.7-0.6c-0.1-1-0.2-1.9,0.2-2.9c0.4-1.1,1.1-1.8,2.2-2c1.3-0.3,2.6-0.3,3.9,0c1.6,0.4,2.4,1.2,2.5,2.8
		C396.1,66.6,396,68.3,396,69.9"/>
	<path class="st0" d="M456.8,77.4c-0.2-0.8-0.3-1.4,0.6-1.9c0.6-0.3,0.8-0.8,0.8-1.5c0-2.8,0-5.6,0-8.5c0-1.3-0.5-1.7-1.8-1.8
		c-0.6,0-1.2,0-1.7,0c-1.4,0.1-1.9,0.5-2,1.9c-0.1,2.7,0,5.4,0,8.1c0,0.7,0.3,1.4,0.9,1.8c0.4,0.3,0.7,0.5,0.7,1.1
		c0,0.6-0.2,0.8-0.8,0.7c-1.5-0.3-2.6-1.5-2.6-3.2c-0.1-2.1,0-4.1,0-6.2c0-1,0-2,0-2.9c0.1-1.6,0.9-2.5,2.5-2.8
		c1.4-0.3,2.9-0.3,4.3,0c1.7,0.3,2.5,1.2,2.6,3c0.1,1.7,0.1,3.3,0.1,5c0,1.3,0,2.7,0,4C460,76.2,459,77.2,456.8,77.4"/>
	<path class="st0" d="M343.2,72.3c0,0.8,0.1,1.6,0,2.4c-0.2,1.8-1.3,2.8-3.1,2.9c-1.1,0.1-2.2,0.1-3.3,0c-1.8-0.1-2.9-1.1-3.1-2.9
		c-0.1-1.2,0-2.3,0.2-3.4c0.1-0.8,0.6-0.9,1.2-0.8c0.7,0,0.8,0.5,0.7,1.1c-0.1,0.8-0.2,1.6-0.2,2.4c0,1.3,0.5,2,1.8,2
		c2.7,0.1,4,0.3,3.8-3.4c0-0.6,0-1.2,0-1.7c-0.1-1.6-0.6-2.1-2.2-2.3c-1.9-0.1-1.9-0.1-1.9-2c0-0.3,0-0.7,0-1c0-0.4-0.2-0.6-0.7-0.6
		c-0.5,0-0.9,0-1.4,0c-0.7,0-0.8-0.4-0.8-1c0-0.6,0.3-0.8,0.9-0.7c0.9,0.1,1.8,0.3,2.2-0.9c0.1-0.4,1.4-0.4,1.5,0.1
		c0.4,1.3,1.3,0.9,2.1,0.9c0.7-0.1,1.1-0.1,1.2,0.8c0,0.8-0.4,1-1.1,0.9c-0.3,0-0.7,0-1,0c-0.5,0-1-0.1-0.9,0.6
		c0,0.5-0.1,1.1,0.7,1.3c3,0.7,3.4,1.4,3.4,4.4C343.3,71.6,343.3,71.9,343.2,72.3C343.3,72.3,343.3,72.3,343.2,72.3"/>
	<path class="st0" d="M292,77.5c-0.6,0-1.2,0-1.7,0c-1.7-0.1-2.8-1.1-3-2.8c-0.1-1.2,0-2.4,0.2-3.6c0.1-0.9,0.7-0.8,1.3-0.8
		c0.7,0,0.7,0.5,0.6,1c-0.1,0.9-0.2,1.7-0.1,2.6c0,1.3,0.6,1.9,1.9,1.9c2.5,0.1,3.9,0.5,3.7-3.3c0-0.6,0-1.3,0-1.9
		c-0.1-1.5-0.6-2-2.1-2.2c-2-0.2-2-0.2-2-2.2c0-1.3,0-1.3-1.4-1.4c-0.3,0-0.7,0-1-0.1c-0.6-0.2-0.4-0.8-0.4-1.2
		c0.1-0.4,0.4-0.5,0.8-0.5c0.9,0.1,1.8,0.5,2.2-0.9c0.1-0.4,1.3-0.5,1.5,0c0.5,1.2,1.4,0.9,2.3,0.9c0.9,0,1.2,0.3,1,1.1
		c-0.1,0.4-0.3,0.6-0.7,0.6c-0.4,0-0.8,0-1.2,0c-0.5,0-1.2-0.2-1.2,0.7c0,0.7,0.1,1.1,1,1.2c2.3,0.3,3.1,1.3,3.2,3.6
		c0.1,1.1,0,2.2,0,3.3c-0.1,2.8-1.2,3.8-4,3.8C292.6,77.6,292.3,77.5,292,77.5"/>
	<path class="st0" d="M448.5,70c0,1.3,0,2.5,0,3.8c-0.1,2.6-1.2,3.6-3.8,3.7c-1,0-2,0-2.9,0c-1.7-0.2-2.7-1.2-2.8-2.9
		c0-0.9,0.1-1.7,0.1-2.6c0-0.8,0.3-1.2,1.2-1.1c0.9,0,0.8,0.6,0.8,1.2c0,0.7-0.1,1.4-0.1,2.1c0.1,1.1,0.5,1.6,1.6,1.7
		c3.3,0.2,4.2,0.1,4.1-3.5c0-1.8,0-3.7,0-5.5c0-0.6,0-1.2-0.2-1.7c-0.2-0.7-0.7-1.2-1.5-1.2c-0.2,0-0.5,0-0.7,0
		c-2.4,0-2.8,0.4-2.7,2.8c0,0.7,0,1.1-0.9,1.1c-0.7,0-1.1-0.1-1.1-0.9c0-0.3,0-0.6,0-0.9c0-2.8,1.1-3.9,3.8-3.9c0.5,0,0.9,0,1.4,0
		c2.4,0.1,3.5,1.2,3.7,3.7c0,0.1,0,0.2,0,0.3C448.5,67.4,448.5,68.7,448.5,70"/>
	<path class="st0" d="M462.2,68.5c0-1.7,0-3.5,0-5.2c0-0.7,0.1-1.2,1-1.2c0.9,0,1,0.5,1,1.2c0,3.2,0,6.5,0,9.7c0,0.5,0,0.9,0,1.4
		c0.2,1.3,0.9,1.7,3.1,1.6c1.7,0,2.3-0.4,2.4-1.6c0.1-1.4,0-2.8,0-4.1c0-0.7-0.5-1-1.1-1.2c-1.3-0.5-1.7-1.6-1.8-2.9
		c0-0.4,0.1-0.8,0.6-0.9c0.5,0,1.1-0.2,1.2,0.6c0.1,1,0.6,1.6,1.6,1.9c0.9,0.3,1.2,1.2,1.3,2.1c0.2,1.7,0.2,3.3,0,5
		c-0.2,1.7-1.2,2.6-2.8,2.7c-1.1,0.1-2.3,0.1-3.5,0c-1.8-0.1-2.9-1-3.1-2.8c-0.1-1.1-0.1-2.3-0.1-3.5
		C462.2,70.3,462.2,69.4,462.2,68.5"/>
	<path class="st0" d="M366.6,71.2c0,1.1,0.1,2.3,0,3.5c-0.2,1.8-1.1,2.7-2.9,2.8c-1,0.1-2,0-2.9,0c-2.2,0.1-3.6-1-3.7-3.8
		c0-1.2,0.2-2.4,0.2-3.6c0-0.8,0.4-1,1.1-1c0.8,0,1,0.4,0.9,1.1c-0.1,0.9-0.1,1.8-0.2,2.8c-0.1,2.2,0.5,2.8,2.6,2.9
		c0.1,0,0.1,0,0.2,0c2.4,0,2.8-0.3,2.8-2.8c0-1.4,0-2.9,0-4.3c0-2-0.2-2.2-2.2-2.5c-1.8-0.3-2.8-1.4-2.8-3.2c0-0.4,0-0.9,0.6-0.9
		c0.5,0,1.2-0.2,1.4,0.6c0,0.2,0.1,0.5,0.1,0.7c0.1,0.6,0.5,0.8,1.1,0.9c3.5,0.7,3.9,1.2,3.9,4.8C366.6,69.9,366.6,70.6,366.6,71.2"
		/>
	<path class="st0" d="M407.7,71.1c0,1,0,2.1,0,3.1c-0.1,2.1-1.1,3.2-3.2,3.3c-1,0.1-2.1,0.1-3.1,0c-1.9-0.1-3-1.1-3.2-3
		c-0.1-1.6,0-3.1,0.2-4.7c0.1-0.9,0.8-0.7,1.3-0.7c0.7,0,0.6,0.4,0.6,1c-0.1,1.2-0.1,2.4-0.1,3.6c0,1.5,0.6,2,2,2.1
		c2.7,0.1,3.8,0.2,3.7-3.4c-0.1-1.4,0-2.8,0-4.2c0-1.5-0.5-1.9-1.9-2.1c-2-0.3-2.9-1.1-3.1-3c0-0.4-0.1-0.9,0.4-1
		c0.5-0.1,1.3-0.4,1.4,0.5c0.2,1.6,1.2,1.7,2.4,1.9c1.9,0.3,2.7,1.3,2.8,3.2C407.7,68.9,407.7,70,407.7,71.1"/>
	<path class="st0" d="M407.4,43c0-3.1,0-6.2,0-9.3c0-0.4,0-0.8,0-1.2c0-0.6,0.4-0.9,1-0.9c0.6,0,1,0.3,1,0.9c0,0.3,0,0.6,0,0.9
		c0,6.5,0,12.9,0,19.4c0,0.3,0,0.7,0,1c-0.1,0.7-0.5,0.8-1.1,0.8c-0.6,0-0.8-0.3-0.9-0.8c0-0.4,0-0.8,0-1.2
		C407.4,49.3,407.4,46.1,407.4,43"/>
	<path class="st0" d="M410.4,23.9c0,0.8-0.6,1.5-1.3,1.5c-0.7,0.1-1.4-0.6-1.5-1.4c0-0.8,0.6-1.5,1.3-1.5
		C409.7,22.5,410.4,23.1,410.4,23.9"/>
</g>
</svg>
