<svg width="80" height="80" viewBox="0 0 80 80" fill="none" xmlns="http://www.w3.org/2000/svg">
<path d="M41.3144 56.5868C41.3144 53.9577 42.4413 53.5821 45.0704 55.0845C49.5774 57.7136 54.0844 59.9671 54.0844 59.9671C54.0844 58.4648 55.5867 57.338 58.2158 58.0892C60.8449 58.8403 63.474 59.2159 63.474 59.2159C63.474 59.2159 61.9717 55.8357 61.2205 54.3333C60.0937 51.7042 61.2205 50.2019 62.3473 49.8263C62.3473 49.8263 60.845 48.6995 59.7182 47.9483C57.4647 46.446 57.8402 44.5681 60.0938 43.8169C63.0985 42.3145 67.23 40.8122 67.23 40.8122C66.1032 40.061 64.6009 38.1831 66.1032 35.554C67.6056 33.3004 70.2346 29.9202 70.2346 29.9202C70.2346 29.9202 66.1033 29.9202 63.0986 29.9202C60.4695 29.9202 59.7183 27.6667 59.7183 26.1643C59.7183 26.1643 55.5868 29.169 52.5821 31.0469C49.953 32.9249 47.6995 31.0469 48.0751 28.0422C48.8263 23.5352 49.2018 18.277 49.2018 18.277C47.6995 19.7793 45.0704 19.4037 43.5681 17.1502C41.6902 13.3943 39.8121 8.88732 39.8121 8.88732C39.8121 8.88732 37.9342 13.3943 36.0563 17.1502C34.9295 19.4037 32.3005 19.7793 30.7981 18.6526C30.7981 18.6526 31.1738 23.9108 31.9249 28.4178C32.3005 31.0469 30.047 32.9249 27.4179 31.0469C24.4132 29.169 19.9061 26.1643 19.9061 26.1643C19.9061 27.6667 19.1549 29.5446 16.5258 29.9202C13.5212 29.9202 9.38964 29.9202 9.38964 29.9202C9.38964 29.9202 12.0187 33.3004 13.5211 35.554C15.0234 37.8075 13.5211 40.061 12.3943 40.8122C12.3943 40.8122 16.1502 42.6901 19.5305 43.8169C21.784 44.9436 22.5353 46.446 19.9062 47.9483C19.155 48.6995 17.277 49.8263 17.277 49.8263C18.7794 50.2019 19.9062 51.7042 18.7794 54.3333C18.0282 55.8357 16.5258 59.2159 16.5258 59.2159C16.5258 59.2159 19.1549 58.4648 21.784 58.0892C24.4132 57.338 25.5399 58.8403 25.9155 59.9671C25.9155 59.9671 30.4226 57.338 34.9296 55.0845C37.1832 53.5821 38.6855 54.3333 38.6855 56.5868V62.9718C38.6855 66.7277 37.9342 70.4835 36.8075 72.7371C19.9061 70.8591 5.63381 57.338 5.63381 39.3098C5.63381 20.9061 21.0328 5.88262 40.1877 5.88262C59.3427 5.88262 74.7418 20.9061 74.7418 39.3098C74.7418 56.5868 61.2207 70.8591 43.9437 72.7371V77.2441C64.2254 75.3662 80 59.2159 80 39.3098C80 17.9014 61.9719 1 39.8123 1C18.0282 1 0 17.9014 0 38.9342C0 57.338 13.8967 72.7371 32.3005 76.1173C35.3052 76.8685 37.1831 77.2441 39.0611 79.122C40.939 75.3662 41.3145 67.8544 41.3145 63.723L41.3144 56.5868Z" fill="#F01428"/>
</svg>
