<?xml version="1.0" encoding="utf-8"?>
<!-- Generator: Adobe Illustrator 25.4.1, SVG Export Plug-In . SVG Version: 6.00 Build 0)  -->
<svg version="1.1" id="Layer_1" xmlns="http://www.w3.org/2000/svg" xmlns:xlink="http://www.w3.org/1999/xlink" x="0px" y="0px"
	 viewBox="0 0 79.25 80" style="enable-background:new 0 0 79.25 80;" xml:space="preserve">
<style type="text/css">
	.st0{fill:#5061AA;}
	.st1{fill:#8B328A;}
	.st2{fill:#5D80C0;}
	.st3{fill:#E94E29;}
	.st4{fill:#D5262A;}
	.st5{fill:#F6A022;}
	.st6{fill:#6A95CD;}
	.st7{fill:#306FB6;}
	.st8{fill:#73C8DD;}
	.st9{fill:#92C143;}
	.st10{fill:#169BD6;}
	.st11{fill:#199AA6;}
	.st12{fill:#A5BFDF;}
	.st13{fill:#3FB7AF;}
	.st14{fill:#AE2258;}
	.st15{fill:#79C199;}
	.st16{fill:#E5DF1F;}
	.st17{fill:#33BACF;}
	.st18{fill:#6CA9DB;}
	.st19{fill:#DE5097;}
	.st20{fill:#604596;}
	.st21{fill:#FAD803;}
	.st22{fill:#0BB8E7;}
	.st23{fill:#41AD4C;}
	.st24{fill:#E7B720;}
	.st25{fill:#B9CF37;}
</style>
<g>
	<path class="st0" d="M48.96,7.53h4.72v3.71h-4.72L48.96,7.53z"/>
	<path class="st1" d="M31.57,47.34h14.44v15.39H31.57V47.34z"/>
	<path class="st2" d="M41.07,66.02h9.49v5.75h-9.49V66.02z"/>
	<path class="st3" d="M35.44,68.71h11.41V80h-11.4L35.44,68.71z"/>
	<path class="st4" d="M49.57,58.46h9.76v4.27h-9.76L49.57,58.46z"/>
	<path class="st5" d="M46,50.68h10.01v2.53H46V50.68z"/>
	<path class="st6" d="M59.32,58.46h7v1.93h-7V58.46z"/>
	<path class="st7" d="M46,38.42h9.57v12.26H46V38.42z"/>
	<path class="st8" d="M27.31,29.01h18.7v18.33h-18.7V29.01z"/>
	<path class="st9" d="M16.44,29.02h12.49v10.14H16.44V29.02z"/>
	<path class="st0" d="M32.64,11.86h21.16v17.29H32.64V11.86z"/>
	<path class="st10" d="M55.55,31.26h15.42v18.82H55.55V31.26z"/>
	<path class="st5" d="M53.12,41.97h13.2v16.54h-13.2L53.12,41.97z"/>
	<path class="st4" d="M46,53.17h9.76v9.55H46V53.17z"/>
	<path class="st11" d="M40.29,59.17h12.6v6.92h-12.6L40.29,59.17z"/>
	<path class="st12" d="M66.3,48.4H69v8.29h-2.7V48.4z"/>
	<path class="st13" d="M70.96,30.68h7.06v4.36h-7.05L70.96,30.68z"/>
	<path class="st14" d="M70.3,35.03h5.09v2.84H70.3V35.03z"/>
	<path class="st15" d="M46,21.66h9.57v16.78H46V21.66z"/>
	<path class="st16" d="M55.55,14.91h12.87v16.35H55.55L55.55,14.91z"/>
	<path class="st17" d="M53.78,11.86h9.38v15.33h-9.38V11.86z"/>
	<path class="st18" d="M66.45,26.76h12.8v4.5h-12.8V26.76z"/>
	<path class="st19" d="M68.43,16.89h6.11v9.88h-6.11V16.89z"/>
	<path class="st20" d="M72.71,19.99h5.67v4.14h-5.67V19.99z"/>
	<path class="st21" d="M71.25,24.14h8v4.14h-8V24.14z"/>
	<path class="st0" d="M48.93,7.35h4.81v3.89h-4.81V7.35z M32.64,7.47h8.73v9.68h-8.73V7.47z"/>
	<path class="st22" d="M5.68,7.47h26.99v21.68H5.68V7.47z"/>
	<path class="st23" d="M19.53,0h9.39v12.22h-9.39V0z"/>
	<path class="st24" d="M0,27.3h17.43v6.79H0V27.3z"/>
	<path class="st25" d="M41.34,1.11h6.77v10.75h-6.77V1.11z"/>
	<path class="st9" d="M50.38,41.97h2.74v2.73h-2.75L50.38,41.97z"/>
</g>
</svg>
