<?xml version="1.0" encoding="utf-8"?>
<!-- Generator: Adobe Illustrator 25.4.1, SVG Export Plug-In . SVG Version: 6.00 Build 0)  -->
<svg version="1.1" id="Layer_1" xmlns="http://www.w3.org/2000/svg" xmlns:xlink="http://www.w3.org/1999/xlink" x="0px" y="0px"
	 viewBox="0 0 299.99 80" style="enable-background:new 0 0 299.99 80;" xml:space="preserve">
<style type="text/css">
	.st0{fill:#8CD0E0;}
	.st1{fill:#002E5F;}
	.st2{fill:#5061AA;}
	.st3{fill:#8B328A;}
	.st4{fill:#5D80C0;}
	.st5{fill:#E94E29;}
	.st6{fill:#D5262A;}
	.st7{fill:#F6A022;}
	.st8{fill:#6A95CD;}
	.st9{fill:#306FB6;}
	.st10{fill:#73C8DD;}
	.st11{fill:#92C143;}
	.st12{fill:#169BD6;}
	.st13{fill:#199AA6;}
	.st14{fill:#A5BFDF;}
	.st15{fill:#3FB7AF;}
	.st16{fill:#AE2258;}
	.st17{fill:#79C199;}
	.st18{fill:#E5DF1F;}
	.st19{fill:#33BACF;}
	.st20{fill:#6CA9DB;}
	.st21{fill:#DE5097;}
	.st22{fill:#604596;}
	.st23{fill:#FAD803;}
	.st24{fill:#0BB8E7;}
	.st25{fill:#41AD4C;}
	.st26{fill:#E7B720;}
	.st27{fill:#B9CF37;}
</style>
<g transform="matrix(3 0 0 3 -1512.93 -1627.02)">
	<path class="st0" d="M562.9,551.27h-5.65v9.23c0,3.06-1.86,3.85-3.09,3.85c-1.79,0-2.79-0.8-2.79-3.09v-10h-5.65v10.36
		c0,4.52,1.43,7.37,6.38,7.37c1.99,0,4.19-1.09,5.25-2.85h0.07v2.36h5.48L562.9,551.27z"/>
	<path class="st1" d="M564.22,568.51h5.65V544.8h-5.65V568.51z M528.73,568.51h16.42v-4.32h-9.24l8.61-8.63v-4.28h-15.09v4.32h7.91
		l-8.6,8.54L528.73,568.51L528.73,568.51z M504.31,568.51h6.35l1.49-4.25h8.28l1.46,4.25h6.45l-8.87-23.71h-6.28L504.31,568.51
		L504.31,568.51z M516.27,551.37h0.07l2.62,8.3h-5.38L516.27,551.37z"/>
	<path class="st2" d="M594.39,544.81h1.54v1.22h-1.55L594.39,544.81z"/>
	<path class="st3" d="M588.69,557.84h4.73v5.04h-4.73V557.84z"/>
	<path class="st4" d="M591.8,563.96h3.11v1.88h-3.11V563.96z"/>
	<path class="st5" d="M589.96,564.84h3.74v3.7h-3.73L589.96,564.84z"/>
	<path class="st6" d="M594.58,561.49h3.2v1.4h-3.2L594.58,561.49z"/>
	<path class="st7" d="M593.42,558.94h3.28v0.83h-3.28V558.94z"/>
	<path class="st8" d="M597.78,561.49h2.29v0.63h-2.29V561.49z"/>
	<path class="st9" d="M593.42,554.92h3.13v4.02h-3.13V554.92z"/>
	<path class="st10" d="M587.3,551.84h6.12v6h-6.12V551.84z"/>
	<path class="st11" d="M583.73,551.84h4.09v3.32h-4.09V551.84z"/>
	<path class="st2" d="M589.04,546.22h6.93v5.66h-6.93V546.22z"/>
	<path class="st12" d="M596.54,552.58h5.05v6.16h-5.05V552.58z"/>
	<path class="st7" d="M595.75,556.09h4.32v5.42h-4.32L595.75,556.09z"/>
	<path class="st6" d="M593.42,559.75h3.2v3.13h-3.2V559.75z"/>
	<path class="st13" d="M591.55,561.72h4.13v2.27h-4.13L591.55,561.72z"/>
	<path class="st14" d="M600.07,558.19h0.88v2.71h-0.88V558.19z"/>
	<path class="st15" d="M601.59,552.39h2.31v1.43h-2.31L601.59,552.39z"/>
	<path class="st16" d="M601.38,553.81h1.67v0.93h-1.67V553.81z"/>
	<path class="st17" d="M593.42,549.44h3.13v5.49h-3.13V549.44z"/>
	<path class="st18" d="M596.54,547.22h4.21v5.35h-4.21L596.54,547.22z"/>
	<path class="st19" d="M595.96,546.22h3.07v5.02h-3.07V546.22z"/>
	<path class="st20" d="M600.12,551.1h4.19v1.47h-4.19V551.1z"/>
	<path class="st21" d="M600.76,547.87h2v3.23h-2V547.87z"/>
	<path class="st22" d="M602.16,548.89h1.86v1.36h-1.86V548.89z"/>
	<path class="st23" d="M601.69,550.25h2.62v1.36h-2.62V550.25z"/>
	<path class="st2" d="M594.37,544.75h1.57v1.27h-1.57V544.75z M589.04,544.79h2.86v3.17h-2.86V544.79z"/>
	<path class="st24" d="M580.21,544.79h8.84v7.1h-8.84V544.79z"/>
	<path class="st25" d="M584.74,542.34h3.08v4h-3.08V542.34z"/>
	<path class="st26" d="M578.35,551.28h5.71v2.22h-5.71V551.28z"/>
	<path class="st27" d="M591.89,542.7h2.22v3.52h-2.22V542.7z"/>
	<path class="st11" d="M594.85,556.09h0.9v0.89h-0.9L594.85,556.09z"/>
</g>
</svg>
