<?xml version="1.0" encoding="utf-8"?>
<!-- Generator: Adobe Illustrator 25.2.1, SVG Export Plug-In . SVG Version: 6.00 Build 0)  -->
<svg version="1.1" id="Layer_1" xmlns="http://www.w3.org/2000/svg" xmlns:xlink="http://www.w3.org/1999/xlink" x="0px" y="0px"
	 viewBox="0 0 111.71 80" style="enable-background:new 0 0 111.71 80;" xml:space="preserve">
<style type="text/css">
	.st0{fill:url(#SVGID_1_);}
</style>
<g id="surface1_1_">
	<linearGradient id="SVGID_1_" gradientUnits="userSpaceOnUse" x1="0" y1="40" x2="111.7068" y2="40">
		<stop  offset="0" style="stop-color:#FECF27"/>
		<stop  offset="0.9972" style="stop-color:#F59F1C"/>
	</linearGradient>
	<path class="st0" d="M52.25,21.47c0.12-1.66,0.31-3.26,0.73-4.82c0.82-3.15,2.28-5.98,4.36-8.49c2.2-2.65,4.86-4.72,7.98-6.19
		c2.11-0.99,4.32-1.64,6.64-1.87c2.21-0.22,4.4-0.03,6.57,0.35c2.49,0.43,4.88,1.21,7.15,2.34c2.4,1.21,4.54,2.76,6.36,4.76
		c2.19,2.4,3.58,5.18,4.2,8.37c0.31,1.62,0.52,3.24,0.61,4.89c0.11,2.05,0.07,4.1,0.03,6.16c-0.03,1.43-0.07,2.86-0.03,4.29
		c0.08,2.9,0.48,5.75,1.48,8.49c0.77,2.1,1.85,4.01,3.07,5.87c2.14,3.26,6.64,9.48,8.92,12.64c0.42,0.58,0.85,1.16,1.29,1.73
		c0.15,0.19,0.14,0.32-0.01,0.48c-0.45,0.51-1.93,1.04-3.06,1.04c-1.51-0.01-1.78-0.07-3.41-0.2c-1.42,0.14-4.98-1.16-6.37-1.56
		c-1.16-0.34-2.15-0.94-3.04-1.75c-1.55-1.43-3.1-2.86-4.57-4.38c-3.09-3.18-5.94-6.57-8.4-10.27c-1.86-2.83-3.43-5.82-4.68-8.98
		c-0.99-2.49-1.92-5.01-3.08-7.43c-0.74-1.55-1.61-3-3.01-4.06c-0.98-0.73-2.09-1.1-3.3-1.22c-1.74-0.18-3.44,0.11-5.1,0.54
		c-0.78,0.2-1.44,0.68-2.08,1.16c-1.05,0.78-1.95,1.71-2.57,2.89c-0.66,1.27-0.93,2.61-0.8,4.05c0.18,1.88,0.98,3.53,1.79,5.19
		c1.25,2.56,2.86,4.87,4.77,6.98c2.87,3.16,6.23,5.73,9.8,8.01c2.55,1.63,5.2,3.09,7.91,4.42c1.3,0.64,2.57,1.37,3.96,1.8
		c2.17,0.66,4.33,1.34,6.43,2.2c1.03,0.42,2.05,0.87,2.95,1.55c0.04,0.03,0.07,0.05,0.11,0.08c0.72,0.59,0.7,1.08-0.06,1.62
		c-0.67,0.48-1.44,0.77-2.19,1.11c-2.04,0.96-4.1,1.9-6.15,2.83c-4.4,2-8.75,4.1-13.17,6.06c-0.7,0.31-1.41,0.59-2.11,0.89
		c-1.08,0.47-2.17,0.39-3.27,0.14c-1.98-0.47-3.77-1.37-5.48-2.43c-1.63-1-3.08-2.24-4.54-3.48c-1.82-1.56-3.63-3.11-5.33-4.8
		c-2.08-2.06-3.98-4.28-5.5-6.8c-1.1-1.83-1.88-3.81-2.49-5.86c-0.73-2.45-1.5-4.9-2.73-7.17c-0.88-1.63-2.01-3.04-3.65-3.97
		c-1.02-0.58-2.14-0.89-3.3-0.97c-1.54-0.12-3.07-0.03-4.56,0.44c-2.88,0.9-4.59,2.84-5.08,5.81c-0.44,2.72,0.22,5.25,1.53,7.61
		c0.97,1.76,2.25,3.29,3.52,4.83c1.18,1.42,2.47,2.75,3.82,4.01c2.74,2.58,5.75,4.79,9,6.67c2.88,1.66,5.89,3.06,9.04,4.11
		c1.27,0.42,2.59,0.7,3.88,1.05c1.65,0.45,3.28,0.9,4.89,1.44c0.43,0.15,0.54,0.29,0.56,0.76c0.02,0.87-0.32,1.62-0.85,2.28
		c-1,1.26-2.37,1.96-3.87,2.46c-1.44,0.48-2.92,0.7-4.42,0.81C52.58,79.99,51.83,80,51.08,80c-2.15,0.01-4.26-0.28-6.35-0.75
		c-3.66-0.81-7.14-2.14-10.53-3.72c-5.25-2.45-10.28-5.3-15.11-8.49c-2.95-1.94-5.71-4.13-8.28-6.55c-2.39-2.25-4.55-4.7-6.38-7.45
		c-1.78-2.68-3.17-5.54-3.92-8.69c-0.28-1.21-0.47-2.43-0.51-3.68c-0.14-5.36,1.54-10.11,4.86-14.27c2.95-3.69,6.8-6.05,11.3-7.38
		c1.84-0.54,3.73-0.87,5.65-0.99c2.9-0.19,5.75-0.02,8.51,0.98c2.1,0.76,3.97,1.87,5.64,3.36c2.4,2.14,4.1,4.77,5.41,7.68
		c0.06,0.13,0.12,0.26,0.18,0.38c0.19,0.44,0.19,0.43,0.62,0.27c0.18-0.06,0.35-0.14,0.52-0.19c0.23-0.05,0.29-0.14,0.2-0.39
		c-0.94-2.81-2.29-5.4-4.24-7.65c-1.43-1.64-3.11-2.99-5.01-4.06c-1.51-0.85-3.11-1.47-4.78-1.94c-0.08-0.03-0.2-0.01-0.21-0.11
		c-0.01-0.1,0.1-0.14,0.17-0.18c0.58-0.38,1.24-0.53,1.91-0.63c0.71-0.1,1.43-0.13,2.15-0.01c0.18,0.03,0.26-0.08,0.36-0.18
		c0.51-0.54,1.04-1.06,1.7-1.43c1.2-0.66,2.47-0.71,3.78-0.45c1.81,0.36,3.45,1.14,5.04,2.04c2.9,1.64,5.54,3.63,8.14,5.7
		C52.02,21.31,52.11,21.36,52.25,21.47"/>
</g>
</svg>
