<?xml version="1.0" encoding="utf-8"?>
<!-- Generator: Adobe Illustrator 25.2.1, SVG Export Plug-In . SVG Version: 6.00 Build 0)  -->
<svg version="1.1" id="Layer_1" xmlns="http://www.w3.org/2000/svg" xmlns:xlink="http://www.w3.org/1999/xlink" x="0px" y="0px"
	 viewBox="0 0 394.99 80" style="enable-background:new 0 0 394.99 80;" xml:space="preserve">
<style type="text/css">
	.st0{fill:url(#SVGID_1_);}
	.st1{fill:#074689;}
	.st2{fill:#054588;}
</style>
<g>
	<g id="surface1_1_">
		<linearGradient id="SVGID_1_" gradientUnits="userSpaceOnUse" x1="0" y1="40" x2="111.7068" y2="40">
			<stop  offset="0" style="stop-color:#FECF27"/>
			<stop  offset="0.9972" style="stop-color:#F59F1C"/>
		</linearGradient>
		<path class="st0" d="M52.25,21.47c0.12-1.66,0.31-3.26,0.73-4.82c0.82-3.15,2.28-5.98,4.36-8.49c2.2-2.65,4.86-4.72,7.98-6.19
			c2.11-0.99,4.32-1.64,6.64-1.87c2.21-0.22,4.4-0.03,6.57,0.35c2.49,0.43,4.88,1.21,7.15,2.34c2.4,1.21,4.54,2.76,6.36,4.76
			c2.19,2.4,3.58,5.18,4.2,8.37c0.31,1.62,0.52,3.24,0.61,4.89c0.11,2.05,0.07,4.1,0.03,6.16c-0.03,1.43-0.07,2.86-0.03,4.29
			c0.08,2.9,0.48,5.75,1.48,8.49c0.77,2.1,1.85,4.01,3.07,5.87c2.14,3.26,6.64,9.48,8.92,12.64c0.42,0.58,0.85,1.16,1.29,1.73
			c0.15,0.19,0.14,0.32-0.01,0.48c-0.45,0.51-1.93,1.04-3.06,1.04c-1.51-0.01-1.78-0.07-3.41-0.2c-1.42,0.14-4.98-1.16-6.37-1.56
			c-1.16-0.34-2.15-0.94-3.04-1.75c-1.55-1.43-3.1-2.86-4.57-4.38c-3.09-3.18-5.94-6.57-8.4-10.27c-1.86-2.83-3.43-5.82-4.68-8.98
			c-0.99-2.49-1.92-5.01-3.08-7.43c-0.74-1.55-1.61-3-3.01-4.06c-0.98-0.73-2.09-1.1-3.3-1.22c-1.74-0.18-3.44,0.11-5.1,0.54
			c-0.78,0.2-1.44,0.68-2.08,1.16c-1.05,0.78-1.95,1.71-2.57,2.89c-0.66,1.27-0.93,2.61-0.8,4.05c0.18,1.88,0.98,3.53,1.79,5.19
			c1.25,2.56,2.86,4.87,4.77,6.98c2.87,3.16,6.23,5.73,9.8,8.01c2.55,1.63,5.2,3.09,7.91,4.42c1.3,0.64,2.57,1.37,3.96,1.8
			c2.17,0.66,4.33,1.34,6.43,2.2c1.03,0.42,2.05,0.87,2.95,1.55c0.04,0.03,0.07,0.05,0.11,0.08c0.72,0.59,0.7,1.08-0.06,1.62
			c-0.67,0.48-1.44,0.77-2.19,1.11c-2.04,0.96-4.1,1.9-6.15,2.83c-4.4,2-8.75,4.1-13.17,6.06c-0.7,0.31-1.41,0.59-2.11,0.89
			c-1.08,0.47-2.17,0.39-3.27,0.14c-1.98-0.47-3.77-1.37-5.48-2.43c-1.63-1-3.08-2.24-4.54-3.48c-1.82-1.56-3.63-3.11-5.33-4.8
			c-2.08-2.06-3.98-4.28-5.5-6.8c-1.1-1.83-1.88-3.81-2.49-5.86c-0.73-2.45-1.5-4.9-2.73-7.17c-0.88-1.63-2.01-3.04-3.65-3.97
			c-1.02-0.58-2.14-0.89-3.3-0.97c-1.54-0.12-3.07-0.03-4.56,0.44c-2.88,0.9-4.59,2.84-5.08,5.81c-0.44,2.72,0.22,5.25,1.53,7.61
			c0.97,1.76,2.25,3.29,3.52,4.83c1.18,1.42,2.47,2.75,3.82,4.01c2.74,2.58,5.75,4.79,9,6.67c2.88,1.66,5.89,3.06,9.04,4.11
			c1.27,0.42,2.59,0.7,3.88,1.05c1.65,0.45,3.28,0.9,4.89,1.44c0.43,0.15,0.54,0.29,0.56,0.76c0.02,0.87-0.32,1.62-0.85,2.28
			c-1,1.26-2.37,1.96-3.87,2.46c-1.44,0.48-2.92,0.7-4.42,0.81C52.58,79.99,51.83,80,51.08,80c-2.15,0.01-4.26-0.28-6.35-0.75
			c-3.66-0.81-7.14-2.14-10.53-3.72c-5.25-2.45-10.28-5.3-15.11-8.49c-2.95-1.94-5.71-4.13-8.28-6.55c-2.39-2.25-4.55-4.7-6.38-7.45
			c-1.78-2.68-3.17-5.54-3.92-8.69c-0.28-1.21-0.47-2.43-0.51-3.68c-0.14-5.36,1.54-10.11,4.86-14.27c2.95-3.69,6.8-6.05,11.3-7.38
			c1.84-0.54,3.73-0.87,5.65-0.99c2.9-0.19,5.75-0.02,8.51,0.98c2.1,0.76,3.97,1.87,5.64,3.36c2.4,2.14,4.1,4.77,5.41,7.68
			c0.06,0.13,0.12,0.26,0.18,0.38c0.19,0.44,0.19,0.43,0.62,0.27c0.18-0.06,0.35-0.14,0.52-0.19c0.23-0.05,0.29-0.14,0.2-0.39
			c-0.94-2.81-2.29-5.4-4.24-7.65c-1.43-1.64-3.11-2.99-5.01-4.06c-1.51-0.85-3.11-1.47-4.78-1.94c-0.08-0.03-0.2-0.01-0.21-0.11
			c-0.01-0.1,0.1-0.14,0.17-0.18c0.58-0.38,1.24-0.53,1.91-0.63c0.71-0.1,1.43-0.13,2.15-0.01c0.18,0.03,0.26-0.08,0.36-0.18
			c0.51-0.54,1.04-1.06,1.7-1.43c1.2-0.66,2.47-0.71,3.78-0.45c1.81,0.36,3.45,1.14,5.04,2.04c2.9,1.64,5.54,3.63,8.14,5.7
			C52.02,21.31,52.11,21.36,52.25,21.47"/>
	</g>
	<g>
		<path class="st1" d="M177.93,19.9c-14.18,0-28.09,0.01-42.01-0.01c-2.41,0-3.88,0.88-3.92,3.46c0.43,0.09,0.74,0.21,1.05,0.21
			c3.32,0.02,6.64,0.03,9.96,0.03c7.81,0,7.68,0,7.77,7.57c0.04,2.94-0.59,4.26-3.87,4c-3.62-0.28-7.27-0.05-10.91-0.07
			c-2.34-0.01-3.89,0.83-4.05,3.65c5.54,0,10.91-0.02,16.28,0.01c1.03,0.01,2.4-0.28,2.42,1.41c0.03,1.72-1.35,1.43-2.38,1.44
			c-3.95,0.04-7.91,0.05-11.86,0.01c-2.45-0.02-4.28,0.59-4.45,3.71c3.98,0,7.78-0.2,11.55,0.07c2.73,0.2,5.96-1.55,8.05,2.41
			c0.6,1.13,5.81,1.32,6.37-0.22c1.21-3.33,3.4-2.1,5.27-2.21c3.31-0.19,6.64-0.07,9.96-0.05c2.24,0.01,4.01-0.62,4.71-3.46
			c-0.61-0.11-0.92-0.21-1.23-0.21c-4.43-0.02-8.87,0.12-13.28-0.1c-1.62-0.08-4.56,1.33-4.68-1.26c-0.14-3.06,2.92-1.31,4.45-1.46
			c3.29-0.32,6.63-0.11,9.96-0.1c2.41,0.01,4.32-0.59,4.65-3.65c-3.84,0-7.47,0-11.1,0c-8.93,0-8.84,0.01-8.25-8.95
			c0.14-2.11,0.85-2.65,2.81-2.59c3.79,0.11,7.59,0.02,11.39,0.03C175.13,23.61,177.19,22.98,177.93,19.9z"/>
		<path class="st1" d="M380.44,43.63c-3.02,0.14-4.05-0.69-4.06-3.85c-0.01-3.21,1.09-4.07,4.1-3.85c2.99,0.22,6.01,0.04,9.01,0.04
			c2.8,0,4.54-1.25,5.51-4.34c-13.34,0-26.13,0.01-38.92,0c-2.84,0-4.18,1.46-4.62,4.35c4.39,0,8.5,0.11,12.6-0.04
			c2.97-0.1,4.96-0.08,4.91,4.02c-0.05,3.97-2.13,3.71-4.76,3.63c-2.53-0.08-5.06,0.07-7.59-0.04c-3.05-0.13-4.62,1.3-5.26,4.52
			c12.89,0,25.5,0.01,38.11-0.01c2.62,0,4.46-1.2,5.62-4.49C389.86,43.57,385.14,43.4,380.44,43.63z"/>
		<path class="st1" d="M322.02,43.15c-0.6-0.72-0.58-2.05-0.6-3.11c-0.07-3.45,0.01-6.89-0.03-10.34c-0.07-6.07-1.22-7.2-7.17-7.26
			c-0.32,0-0.63,0-0.95,0c-12.73,0.18-11.04-1.77-11.18,10.86c-0.05,4.94,0.65,9.97-2.2,14.56c6.6,0.85,8.3-0.38,8.68-6.57
			c0.24-3.9,0.1-7.83,0.06-11.75c-0.02-1.97-0.2-3.65,2.77-3.71c2.91-0.06,2.91,1.46,2.88,3.52c-0.07,5.17-0.06,10.34,0.01,15.51
			c0.02,1.1-0.7,2.89,1.19,3.04c2.6,0.21,5.41,0.87,7.56-1.51C324.61,44.63,322.88,44.19,322.02,43.15z"/>
		<path class="st1" d="M357.17,19.45c0.58-1.9,1.63-2,3.1-2c8.23,0,16.45,0,24.68,0.01c1.09,0,2.53-0.16,2.59,1.32
			c0.12,3.08,2.33,2.29,4.94,2.51c2.46,0.69,3.19-1.08,2.63-3.76c-0.7-3.36-3.58-3.51-6.26-3.87c-4.93-0.65-10.21,1.56-14.85-2.01
			c-0.83-0.64-3.02-0.67-4.02,0.45c-1.79,1.99-4,1.5-6.15,1.54c-3.32,0.06-6.65-0.03-9.96,0.11c-1.74,0.07-3.8,0.35-4.13,2.42
			c-0.26,1.62-1.43,4.31,1.05,4.75C352.78,21.27,356.07,23.03,357.17,19.45z"/>
		<path class="st1" d="M204.78,25.86c0.05,0.25,0.27,0.65,0.45,0.68c3.64,0.54,2.08,3.37,2.17,5.23c0.21,4.22,0.16,8.47,0.03,12.7
			c-0.08,2.44,0.36,3.69,3.32,3.67c2.86-0.02,2.95-1.41,2.92-3.51c-0.08-5.02-0.12-10.04,0-15.06c0.14-5.58-1.11-11.34,2.52-16.93
			C211.39,12.66,204.02,21.72,204.78,25.86z"/>
		<path class="st1" d="M172.89,17.36c1.92,0,3.29-0.8,4.5-2.9c-2.24-0.24-4.21-0.45-6.18-0.66c0.46-3.9-3.18-2.48-3.84-2.02
			c-6.2,4.31-13.1,1.64-19.64,2.29c-1.38,0.14-2.64-0.08-3.95-1.02c-3.64-2.62-9.46-0.49-11.67,4.31
			C145.8,17.35,159.34,17.34,172.89,17.36z"/>
		<path class="st1" d="M240.57,14.14c-1.03-0.03-2.47,0.57-3-0.6c-1.58-3.5-4.51-2.26-6.1-1c-2.17,1.72-4.29,1.59-6.61,1.63
			c-1.42,0.03-2.86-0.05-4.26,0.12c-1.43,0.17-2.37,1.25-2.29,2.56c0.1,1.67,1.69,1,2.63,1.01c7.75,0.06,15.51,0.02,23.26,0.04
			c2.39,0.01,4.25-0.73,5.52-3.73C246.25,14.16,243.41,14.21,240.57,14.14z"/>
		<path class="st1" d="M245.35,24.69c2.22-0.02,3.82-0.96,3.93-3.68c-8.78,0-17.32,0.03-25.85-0.02c-2.47-0.01-4.36,0.54-4.66,3.72
			C227.69,24.72,236.52,24.75,245.35,24.69z"/>
		<path class="st1" d="M222.39,27.68c-2.16,0.01-3.5,1.09-3.55,3.69c8.77,0,17.44,0.02,26.12-0.01c2.22-0.01,3.92-0.8,4.48-3.7
			C240.27,27.66,231.33,27.63,222.39,27.68z"/>
		<path class="st1" d="M388.58,24.5c-2.3-0.35-5.84,1.91-6.29-3.09c-0.13-1.41-3.09-0.5-4.74-0.66c-1-0.1-1.64,0.24-1.94,1.44
			c-1.1,4.43,0.65,6.9,5.18,6.97c2.35,0.04,4.71-0.08,7.06,0.03c3.13,0.13,5.45-0.99,7.24-4.63
			C392.56,24.56,390.53,24.79,388.58,24.5z"/>
		<path class="st1" d="M148.55,32.99c-2.68-2.56-2.64-7.55-7.65-7.35c-4.45,0.18-5.37,4-7.14,7.52
			C138.74,31.18,143.54,31.91,148.55,32.99z"/>
		<path class="st1" d="M322.61,16.57c-0.04-0.47-0.07-0.94-0.11-1.41c-2.61-0.27-5.6,0.17-7.74-0.97
			c-4.05-2.16-10.09-0.83-12.89,4.14C309.02,17.48,316.12,20.1,322.61,16.57z"/>
		<path class="st1" d="M167.95,25.66c-4.51,0.32-5.5,4.08-7.49,7.2c3.52,0.83,6.11,0.34,7.92-2.53c1.96,2.29,4.02,3.79,7.67,2.17
			C172.98,30.34,173.02,25.3,167.95,25.66z"/>
		<path class="st1" d="M369.91,21.2c-7.93-2.22-12.11,2.95-17.64,7.05C363.51,28.47,359.71,29.93,369.91,21.2z"/>
		<path class="st1" d="M292.14,14.19c-2-0.07-4.1,0.61-6.01-0.52c-4.14-2.47-7.9-0.59-8.28,4.1c-0.33,4.07,1.06,8.34-1.44,12.2
			c-0.33,0.51-0.09,1.6,0.22,2.26c2.46,5.16,1.39,10.22-0.36,15.62c6.85,0.56,7.49,0.02,7.56-6.24c0.03-2.19,0-4.39,0.01-6.58
			c0.01-1.1-0.09-2.31,1.63-2.15c1.37,0.13,1.22,1.19,1.23,2.08c0.03,2.58,0.01,5.17,0.01,8.23c4.02-1.88,2.18-4.94,2.68-7.27
			c0.23-1.07-0.7-2.86,1.26-2.95c1.92-0.08,1.49,1.64,1.5,2.8c0.05,3.45,0.07,6.89,0.01,10.34c-0.03,1.62,0.63,2.38,2.23,2.14
			c1.25-0.19,3.32,0.83,3.51-1.23c0.52-5.8,0.37-11.63,1.09-17.47c0.31-2.49-0.94-6.17-0.89-9.3
			C298.18,15.99,296.17,14.32,292.14,14.19z M292.27,23.38c-0.22,5.28-0.04,5.29-3.62,4.07c0.61-2,2.16-4.17-1.02-5.48
			c-1.92,1.23-0.51,3.1-0.85,4.63c-0.22,0.99-0.27,1.8-1.57,1.8c-1.42,0-1.37-0.98-1.39-1.91c-0.03-1.09,0.13-2.21-0.04-3.28
			c-0.52-3.37,0.56-4.49,4.25-4.51C291.91,18.68,292.4,20.16,292.27,23.38z"/>
		<path class="st1" d="M244.04,34.72c-5.51,0.29-11.05,0.07-16.58,0.07c-9.13,0-8.99,0-9.1,9.1c-0.04,3.16,0.63,4.54,4.12,4.25
			c3.77-0.31,7.58-0.07,11.37-0.07c2.53,0,5.05,0,7.58,0c8.07,0,7.91,0,8.01-7.84C249.49,36.29,248.33,34.49,244.04,34.72z
			 M239.85,44.44c-2.05-0.08-4.11-0.02-6.16-0.01c-1.9,0-3.8-0.12-5.69,0.03c-2.36,0.19-2.93-0.87-2.91-3.02
			c0.02-2.13,0.57-3.17,2.93-3.1c3.95,0.13,7.9,0.09,11.85,0.01c2.01-0.04,2.89,0.67,2.77,2.73
			C242.54,42.96,242.36,44.54,239.85,44.44z"/>
	</g>
	<g>
		<path class="st2" d="M246.3,67.13V80h4.32V64.72h-1.91C247.38,64.72,246.3,65.8,246.3,67.13z"/>
		<path class="st2" d="M300.74,67.13V80h4.32V64.72h-1.91C301.82,64.72,300.74,65.8,300.74,67.13z"/>
		<path class="st2" d="M331.05,64.72h-1.91c-1.33,0-2.41,1.08-2.41,2.41V80h3.21h1.11h5.26c1.33,0,2.41-1.08,2.41-2.41v-0.36h-7.66
			V64.72z"/>
		<path class="st2" d="M341.11,67.13V80h4.32V64.72h-1.91C342.19,64.72,341.11,65.8,341.11,67.13z"/>
		<path class="st2" d="M149.51,64.75v-0.03h-0.25h-1.91h-10.71c-0.86,0-1.61,0.46-2.04,1.14v-1.14h-1.91
			c-1.33,0-2.41,1.08-2.41,2.41V80h4.32V69.04h4.21V80h3.9V69.04h4.64V80h4.32V67.13C151.67,65.89,150.72,64.87,149.51,64.75z"/>
		<path class="st2" d="M185.03,64.72h-1.44h-0.47h-3.23c-1.33,0-2.41,1.08-2.41,2.41v-2.41h-1.91c-1.33,0-2.41,1.08-2.41,2.41V80
			h4.32V69.04h5.64V80h4.32V67.13C187.43,65.8,186.36,64.72,185.03,64.72z"/>
		<path class="st2" d="M264.12,64.72h-1.44h-0.47h-3.23c-1.33,0-2.41,1.08-2.41,2.41v-2.41h-1.91c-1.33,0-2.41,1.08-2.41,2.41V80
			h4.32V69.04h5.64V80h4.32V67.13C266.53,65.8,265.45,64.72,264.12,64.72z"/>
		<path class="st2" d="M361.62,64.72h-1.44h-0.47h-3.23c-1.33,0-2.41,1.08-2.41,2.41v-2.41h-1.91c-1.33,0-2.41,1.08-2.41,2.41V80
			h4.32V69.04h5.64V80h4.32V67.13C364.03,65.8,362.95,64.72,361.62,64.72z"/>
		<path class="st2" d="M199.81,64.72h-3.7c-0.9,0-1.68,0.5-2.09,1.24v-1.24h-1.91c-1.33,0-2.41,1.08-2.41,2.41V80h2.84h1.47h4.16
			c0,0,8.43,0.26,8.43-7.64C206.61,64.46,199.81,64.72,199.81,64.72z M198.76,77.31h-4.74v-9.32h5.79c0,0,3.11-0.1,3.11,4.37
			C202.92,77.42,198.76,77.31,198.76,77.31z"/>
		<path class="st2" d="M243.34,68.42c0-3.92-4.81-3.7-4.81-3.7h-3.7c-0.74,0-1.39,0.34-1.83,0.86v-0.86h-1.91
			c-1.33,0-2.41,1.08-2.41,2.41V80H233v-8.42l5.83,8.42h5l-5.46-7.56C238.36,72.44,243.34,72.35,243.34,68.42z M233,70.65v-2.66
			h5.23c1.5,0,1.44,1.19,1.44,1.19c0,1.51-1.84,1.47-1.84,1.47H233z"/>
		<path class="st2" d="M370.06,66.3v-1.58h-1.91c-1.33,0-2.41,1.08-2.41,2.41V80h2.17h2.15h6.36c1.33,0,2.41-1.08,2.41-2.41v-0.36
			h-8.77v-3.78h6.36c1.33,0,2.41-1.08,2.41-2.41v-0.36h-8.77v-3.2h6.36c1.33,0,2.41-1.08,2.41-2.41v-0.36h-7.19
			C370.76,64.72,370.06,65.43,370.06,66.3z"/>
		<path class="st2" d="M392.68,67.49c1.33,0,2.41-1.08,2.41-2.41v-0.36h-11.33c-0.87,0-1.58,0.71-1.58,1.58v0.58v0.61v3.46v0.36v0
			c0,1.33,1.08,2.41,2.41,2.41h7.73v3.52h-10.59V80h10.94c1.33,0,2.41-1.08,2.41-2.41v-0.36v-3.87c0-1.3-1.03-2.35-2.32-2.4v-0.01
			h-0.09h-0.36h-7.23v-3.46H392.68z"/>
		<path class="st2" d="M323.77,68.42c0-3.92-4.81-3.7-4.81-3.7h-3.7c-0.74,0-1.39,0.34-1.83,0.86v-0.86h-1.91
			c-1.33,0-2.41,1.08-2.41,2.41V80h4.32v-8.42l5.83,8.42h5l-5.46-7.56C318.79,72.44,323.77,72.35,323.77,68.42z M313.43,70.65v-2.66
			h5.23c1.5,0,1.44,1.19,1.44,1.19c0,1.51-1.84,1.47-1.84,1.47H313.43z"/>
		<path class="st2" d="M160.81,64.72c0,0-7.93,15.22-7.95,15.28h3.82l1.37-2.81h3.72c1.33,0,2.41-1.08,2.41-2.41v-0.2h-4.86
			l3.38-6.91L168.26,80h4.27l-7.4-15.28H160.81z"/>
		<path class="st2" d="M214.56,64.72c0,0-7.93,15.22-7.95,15.28h3.82l1.37-2.81h3.72c1.33,0,2.41-1.08,2.41-2.41v-0.2h-4.86
			l3.38-6.91L222.02,80h4.27l-7.4-15.28H214.56z"/>
		<path class="st2" d="M287.41,64.72c0,0-7.93,15.22-7.95,15.28h3.82l1.37-2.81h3.72c1.33,0,2.41-1.08,2.41-2.41v-0.2h-4.86
			l3.38-6.91L294.86,80h4.27l-7.4-15.28H287.41z"/>
	</g>
</g>
</svg>
