<?xml version="1.0" encoding="utf-8"?>
<!-- Generator: Adobe Illustrator 25.4.1, SVG Export Plug-In . SVG Version: 6.00 Build 0)  -->
<svg version="1.1" id="Layer_1" xmlns="http://www.w3.org/2000/svg" xmlns:xlink="http://www.w3.org/1999/xlink" x="0px" y="0px"
	 viewBox="0 0 929 80" style="enable-background:new 0 0 929 80;" xml:space="preserve">
<style type="text/css">
	.st0{fill:url(#SVGID_1_);}
	.st1{fill:#002157;}
</style>
<g>
	<g>
		
			<linearGradient id="SVGID_1_" gradientUnits="userSpaceOnUse" x1="351.7893" y1="233.4054" x2="351.7893" y2="199.345" gradientTransform="matrix(2.3095 0 0 -2.3095 58.5013 539.0537)">
			<stop  offset="0.3352" style="stop-color:#FF1E27"/>
			<stop  offset="0.6915" style="stop-color:#E81B23"/>
			<stop  offset="0.7841" style="stop-color:#A61319"/>
			<stop  offset="0.8719" style="stop-color:#9D1218"/>
			<stop  offset="0.9551" style="stop-color:#931116"/>
			<stop  offset="1" style="stop-color:#800F14"/>
		</linearGradient>
		<path class="st0" d="M879.54,0L837.8,60.39c-5.5,7.95-14.42,15.6-25.18,16.42v1.85h46.43c12.32,0,21.31-8.02,27.4-16.86L929.31,0
			H879.54z"/>
		<path class="st1" d="M110.79,78.66V6.64h21.03v72.03L110.79,78.66z M595.48,78.66l-50.5-42.77v42.77h-17.75V6.64h15.08l49.83,42.1
			V6.64h17.75v72.03L595.48,78.66z M705.31,29.88c-9.5-4.68-20.2-8.46-34.38-8.46c-16.93,0-29.56,8.76-29.56,20.94
			c0,12.49,12.85,21.31,29.41,21.31c13.66,0,24.51-3.49,35.2-9.65v17.82C696.54,76.52,684,80,669.89,80
			c-28.82,0-51.47-14.7-51.47-37.65c0-22.58,23.1-37.06,51.39-37.06c13.36,0,25.47,2.53,35.49,6.61V29.88z M248.77,78.66V6.64h70.25
			v15.44h-49.24v17.9h48.13v15.45h-48.13v23.24H248.77z M718.01,78.66V6.64h72.92v15.44h-51.91v12.48h51.08V50h-51.08v13.22h51.68
			v15.45L718.01,78.66L718.01,78.66z M392.01,51.64l29.04,27.02h-22.43c-4.97,0-8.24-1.56-10.84-4.08l-19.75-19.15
			c-0.38-0.38-0.97-0.59-1.71-0.59h-13.44v23.83h-21.02V6.64h45.53c23.6,0,33.57,10.61,33.57,22.35
			C410.95,42.64,398.77,49.18,392.01,51.64L392.01,51.64z M375.23,39.75c8.32,0,12.33-4.24,12.33-8.98c0-4.75-3.56-8.7-12.33-8.7
			h-22.35v17.68H375.23z M211.64,51.64l29.03,27.02h-22.42c-4.98,0-8.25-1.56-10.84-4.08l-19.76-19.15
			c-0.37-0.38-0.97-0.59-1.71-0.59h-13.43v23.83h-21.03V6.64h45.53c23.61,0,33.57,10.61,33.57,22.35
			C230.57,42.64,218.39,49.18,211.64,51.64z M194.86,39.75c8.31,0,12.32-4.24,12.32-8.98c0-4.75-3.56-8.7-12.32-8.7h-22.35v17.68
			H194.86z M77.9,78.66l-9.22-15.81H28.44l-8.39,15.81H0L40.09,6.71h18.27l45.45,71.96L77.9,78.66z M36.46,47.85h23.46L47.74,25.86
			L36.46,47.85z M497.54,78.66l-8.99-15.81h-39.2l-8.1,15.81h-19.53l39.06-71.96h17.74l44.19,71.96H497.54z M457.21,47.85h22.87
			L468.2,25.86L457.21,47.85z"/>
	</g>
</g>
</svg>
