<?xml version="1.0" encoding="utf-8"?>
<!-- Generator: Adobe Illustrator 25.4.1, SVG Export Plug-In . SVG Version: 6.00 Build 0)  -->
<svg version="1.1" id="Layer_1" xmlns="http://www.w3.org/2000/svg" xmlns:xlink="http://www.w3.org/1999/xlink" x="0px" y="0px"
	 viewBox="0 0 204.4 80" style="enable-background:new 0 0 204.4 80;" xml:space="preserve">
<style type="text/css">
	.st0{fill:#1795D3;}
	.st1{fill:#E02319;}
	.st2{fill:#FFCF04;}
</style>
<g>
	<path class="st0" d="M82.7,41.5c0.1-2.5,1.4-5.6,2.4-7.8c2.2-5,5.1-7.9,7.5-6.8c1.7,0.7,2.2,3.2,0.9,5.7c-0.8,1.6-3.7,5.3-4.1,9.2
		c-0.3,2.7,1.4,3.1,1.9,3.1c1.9,0,6.8-4.1,10.7-8.1c3.7-3.8,10.4-10.7,12.7-10.4c3.8,0.4,4.5,2.4,4.3,5.1c0,0.3-0.8,4.3-0.8,9
		c0,5.8,0.4,9.9,0.3,11.1c-0.1,0.7-0.4,1.1-0.7,1.3c-0.5,0.3-1.4,0.2-1.9,0.1c-1.6-0.5-3.3-2.5-3.3-6.2c0-3.4,0.2-7.6,0-10.8
		c-0.3-0.1-0.7-0.1-1.1,0.1c-0.7,0.2-8.6,7.8-9.3,8.5c-2.6,2.6-8.9,8.1-11.5,8.1c-1.2,0-2.4-0.1-3.7-0.7
		C83.5,50,82.6,45.7,82.7,41.5z"/>
	<path class="st0" d="M48.3,47.5c1.2-3.3,2.2-5.8,3.4-8.9c2.5-6.7,2.9-8.5,3.5-12.1c0.3-1.9,1.6-3.6,3.1-3.9c2.7-0.5,3.4,4.6,3.3,8
		c0,0.1,2.1-0.4,5.5-1.9c2.9-1.3,5.3-2.6,7.8-3c2.3-0.4,4.6-0.4,5.3,0.5c1.8,2.6-0.4,3.3-3.2,4c-2,0.5-4.4,1.3-5.6,1.8
		c-4.5,1.9-8.6,5.5-11.7,9.3c-3.1,3.8-6.8,10.8-10.3,9.9C48.1,51,47.8,48.9,48.3,47.5z"/>
	<polygon class="st1" points="14.6,71.4 11.6,80 8.5,71.4 0,68.1 8.5,64.9 11.6,56.3 14.6,64.9 23.3,68.1 	"/>
	<polygon class="st2" points="139.9,71.7 24.8,71.7 24.8,68.4 141.4,68.4 	"/>
	<polygon class="st2" points="142.4,66.4 24.8,66.4 24.8,63.2 143.9,63.2 	"/>
	<polygon class="st1" points="158.2,71.7 155.9,71.7 156.6,63.2 158.8,63.2 	"/>
	<polygon class="st1" points="174.7,71.7 169,71.7 169.7,63.2 171.9,63.2 171.4,69.6 174.8,69.6 	"/>
	<path class="st0" d="M167.5,53.3c-4.1,0-4.2-2.2-4.2-2.4c-0.1-0.5-0.5-3.9,3.8-9.9c3.4-4.8,8.8-9.1,10.1-10
		c6.7-4.8,10.5-4.7,12.2-3.9c4.5,2.1,3.9,9.4-0.6,10.1c-2.3,0.4-2.6-2.6-4.9-2.6c-2.5,0-6,2.8-7.6,4.1c-2.1,1.7-5.1,5-4.2,6.6
		c1.2,2,9.5-5.3,12.2-5.9c1.3-0.2,3.3,1.6,4.9,3.2c1.7,1.7,4.2,3.5,6.6,4.8c1.3,0.7,2.5,1,3.3,1c1.3,0.1,2.1,1.2,2.3,2.3
		c0.4,1.8-0.3,2.3-0.5,2.4c-1.9,1.3-6.5-0.7-9.9-2.7c-3.8-2.3-4.4-4.2-7.7-4.3c-3.8-0.1-5.2,2.2-8.2,4.2
		C172.8,51.8,170.3,53.3,167.5,53.3z"/>
	<polygon class="st1" points="178.7,71.7 176.5,71.7 177.2,63.2 179.4,63.2 	"/>
	<polygon class="st1" points="187.9,71.7 185.8,71.7 183.5,67 183.1,71.7 181,71.7 181.7,63.2 183.8,63.2 186.1,67.9 186.5,63.2 
		188.6,63.2 	"/>
	<polygon class="st1" points="196.6,65 192.8,65 192.7,66.4 196.2,66.4 196,68.1 192.6,68.1 192.4,69.8 196.3,69.8 196.1,71.7 
		190.1,71.7 190.7,63.2 196.7,63.2 	"/>
	<path class="st1" d="M200.6,65.7c0.1,0.1,0.3,0.2,0.7,0.3c1,0.2,1.6,0.5,2,0.7c0.4,0.3,0.7,0.6,0.8,0.9c0.2,0.4,0.2,0.8,0.2,1.3
		c0,0.5-0.2,1-0.5,1.5c-0.3,0.5-0.7,0.8-1.2,1c-0.5,0.2-1.1,0.4-1.8,0.4c-1.2,0-2-0.3-2.5-0.8c-0.4-0.6-0.6-1.3-0.6-2.1l2.1-0.2
		c0,0.4,0.1,0.7,0.2,0.9c0.2,0.3,0.5,0.5,0.9,0.5c0.3,0,0.6-0.1,0.8-0.3c0.2-0.2,0.3-0.4,0.3-0.6c0-0.2,0-0.4-0.2-0.6
		s-0.5-0.3-1.1-0.5c-1-0.3-1.6-0.6-2-1c-0.4-0.4-0.5-1-0.5-1.6c0-0.4,0.2-0.8,0.4-1.2c0.2-0.4,0.6-0.7,1-0.9c0.4-0.2,1-0.3,1.8-0.3
		c0.9,0,1.6,0.2,2.1,0.6c0.4,0.4,0.7,1,0.7,1.9l-2.1,0.1c0-0.4-0.1-0.7-0.3-0.8c-0.2-0.2-0.4-0.3-0.7-0.3c-0.3,0-0.5,0.1-0.6,0.2
		s-0.2,0.3-0.2,0.5C200.5,65.4,200.5,65.6,200.6,65.7z"/>
	<path class="st0" d="M158.8,29.5c-3.1-3.4-7.9-1.5-9-1c-2.8,1.1-5.8,2.8-8.3,4.1c-3.5,1.8-5.5,2.4-5.4,1.9c1.6-9.1,7-15.7,11.9-23
		c1.8-2.6,5.3-5.8,4.5-7.6c-1.1-2.4-3.1-2.2-4.7-1c-6.3,5.1-11.1,15.2-15.7,24.7c-4.1,8.4-11.2,23-8.9,25.8c2.4,2.9,7.9,1.7,11.8,1
		c8.8-1.5,17.1-6.9,20.9-11.3C157.9,40.9,162.4,33.5,158.8,29.5z M145.8,44.7c-2.2,1.5-5.5,3.3-7.8,4c-3.3,1-5,0.5-5-0.4
		c0.1-1.9,1.2-3.8,3.5-6.2c3.1-3.2,7.9-6.4,9.5-7.2c1.1-0.5,2.4-0.5,4.4-0.5c2,0,3.7,0.5,3.9,1.6C154.7,38.3,149.1,42.4,145.8,44.7z
		"/>
	<path class="st1" d="M152.4,63.2H150l-3.4,8.5h2.3l0.5-1.4h2.5l0.2,1.4h2.3L152.4,63.2z M150,68.4l1-3l0.5,3H150z"/>
	<path class="st0" d="M40.6,30.3c-0.1-8.9,0.3-16.8,0.8-21.9c0.4-4.6,1.1-7.5,0.2-8c-1.5-0.8-3.1-0.2-3.8,0.5
		c-7.6,7.6-17.5,21.5-23.2,29.8c-4.3,0.2-9,1.1-8.1,5.9c0.9,1.8,2,0.8,3.1,1.3c-1.7,5.6-9.2,12.6-6.9,16c3.4,1.6,12.5-13.7,14-16.5
		c5.7,0.3,12.6-0.2,17-0.7c0,2.4-0.3,9.9,0,14.5c0.1,1.8,2.1,4.2,5.5,3.8c2.3-1.2,0.2-13.2,1.3-18.6C45.9,35.9,45.2,30.9,40.6,30.3z
		 M33.7,29.8c-3,0.2-8.7,0.1-10.7,0c3.3-4.7,7-8.7,10.7-13C33.6,20.4,33.4,25.6,33.7,29.8z"/>
	<path class="st1" d="M166.7,69.2c0-0.1-0.1-0.3-0.3-0.5c-0.1-0.2-0.2-0.4-0.3-0.4c-0.1-0.1-0.3-0.2-0.6-0.3
		c0.3-0.1,0.6-0.2,0.8-0.3c0.3-0.2,0.6-0.5,0.8-0.8c0.2-0.3,0.3-0.7,0.4-1.2c0-0.5,0-1-0.2-1.4c-0.2-0.4-0.5-0.6-0.8-0.8
		c-0.4-0.1-0.9-0.2-1.6-0.2h-3.7l-0.7,8.5h2.2l0.3-3.4h0.2c0.2,0,0.4,0.1,0.5,0.2c0.1,0.1,0.2,0.3,0.3,0.7l1,2.6h2.5L166.7,69.2z
		 M165,66.3c-0.1,0.1-0.2,0.2-0.4,0.3c-0.3,0.1-0.5,0.1-0.6,0.1h-0.9l0.1-1.7h1c0.4,0,0.7,0.1,0.8,0.2c0.1,0.1,0.2,0.4,0.2,0.6
		C165.2,66,165.2,66.1,165,66.3z"/>
</g>
</svg>
