<?xml version="1.0" encoding="utf-8"?>
<!-- Generator: Adobe Illustrator 25.4.1, SVG Export Plug-In . SVG Version: 6.00 Build 0)  -->
<svg version="1.1" id="Layer_1" xmlns="http://www.w3.org/2000/svg" xmlns:xlink="http://www.w3.org/1999/xlink" x="0px" y="0px"
	 viewBox="0 0 106.47 80" style="enable-background:new 0 0 106.47 80;" xml:space="preserve">
<style type="text/css">
	.st0{fill:#E20C1A;}
</style>
<path id="XMLID_10_" class="st0" d="M53.23,0C23.88,0,0,17.91,0,40s23.88,40,53.23,40s53.23-17.91,53.23-40
	C106.37,17.91,82.59,0,53.23,0 M103.48,36.22L103.48,36.22v0.1v0.1v0.1h-0.1l0,0c-0.3,0-2.09,0.1-3.68,0.1c-0.1,0-0.3,0-0.4,0l0,0
	c-0.6,0-1.59,0-2.09-0.1l0,0h-0.2h-0.2h-0.2h-0.2c-0.2,0-0.4,0-0.6-0.1c-0.2,0-0.3,0-0.4-0.1C75.12,33.23,64.58,4.68,42.99,3.78
	c0.2,0,12.24-3.18,27.86,1.19c0.6,0.2,1.19,0.3,1.69,0.5C86.77,9.85,101.29,21.29,103.48,36.22 M102.89,46.27
	C98.91,62.29,80.5,72.94,65.47,76.22c-6.77,1.69-15.72,1.69-22.49,0c21.89-0.9,32.44-30.15,53.13-32.64v-0.1v0.1
	c0,0,2.79-0.5,6.67-0.2l0,0h0.3h0.3C103.48,43.38,103.38,44.28,102.89,46.27 M103.48,41.49H18.61l0,0h-1.29c0,0.5,0,1.09,0.1,1.59
	c0.1,1.29,0.5,2.69,1.09,3.98c0.6,1.29,1.19,2.39,1.79,3.28c2.69,4.38,6.97,7.96,10.25,12.14c9.55-7.46,18.61-16.12,30.25-18.51
	c-10.35,8.36-20.6,21.89-33.23,27.16C15.12,68.06,4.58,54.93,3.28,42.79c-0.1-0.9-0.1-1.69-0.1-2.59s0.1-1.79,0.1-2.69
	C4.68,25.37,15.12,12.24,27.56,9.15C40.2,14.53,50.45,28.06,60.8,36.42c-11.64-2.49-20.7-11.14-30.25-18.51
	c-2.79,3.48-6.37,6.67-9.05,10.25c-0.7,0.8-2.79,3.68-3.78,7.06v0.1c-0.3,1.09-0.5,2.29-0.4,3.38h1.19h84.98V41.49z"/>
</svg>
