<?xml version="1.0" encoding="utf-8"?>
<!-- Generator: Adobe Illustrator 25.4.1, SVG Export Plug-In . SVG Version: 6.00 Build 0)  -->
<svg version="1.1" id="Layer_1" xmlns="http://www.w3.org/2000/svg" xmlns:xlink="http://www.w3.org/1999/xlink" x="0px" y="0px"
	 viewBox="0 0 452.51 80" style="enable-background:new 0 0 452.51 80;" xml:space="preserve">
<style type="text/css">
	.st0{fill:#E20C1A;}
</style>
<g id="g6756">
	<path id="XMLID_10_" class="st0" d="M399.2,0c-29.35,0-53.23,17.91-53.23,40s23.88,40,53.23,40s53.23-17.91,53.23-40
		C452.34,17.91,428.56,0,399.2,0 M449.45,36.22L449.45,36.22v0.1v0.1v0.1h-0.1l0,0c-0.3,0-2.09,0.1-3.68,0.1c-0.1,0-0.3,0-0.4,0l0,0
		c-0.6,0-1.59,0-2.09-0.1l0,0h-0.2h-0.2h-0.2h-0.2c-0.2,0-0.4,0-0.6-0.1c-0.2,0-0.3,0-0.4-0.1c-20.3-3.08-30.85-31.64-52.44-32.54
		c0.2,0,12.24-3.18,27.86,1.19c0.6,0.2,1.19,0.3,1.69,0.5C432.74,9.85,447.26,21.29,449.45,36.22 M448.86,46.27
		c-3.98,16.02-22.39,26.67-37.41,29.95c-6.77,1.69-15.72,1.69-22.49,0c21.89-0.9,32.44-30.15,53.13-32.64v-0.1v0.1
		c0,0,2.79-0.5,6.67-0.2l0,0h0.3h0.3C449.45,43.38,449.35,44.28,448.86,46.27 M449.45,41.49h-84.88l0,0h-1.29c0,0.5,0,1.09,0.1,1.59
		c0.1,1.29,0.5,2.69,1.09,3.98c0.6,1.29,1.19,2.39,1.79,3.28c2.69,4.38,6.97,7.96,10.25,12.14c9.55-7.46,18.61-16.12,30.25-18.51
		c-10.35,8.36-20.6,21.89-33.23,27.16c-12.44-3.08-22.99-16.22-24.28-28.36c-0.1-0.9-0.1-1.69-0.1-2.59s0.1-1.79,0.1-2.69
		c1.39-12.14,11.84-25.27,24.28-28.36c12.64,5.37,22.89,18.91,33.23,27.26c-11.64-2.49-20.7-11.14-30.25-18.51
		c-2.79,3.48-6.37,6.67-9.05,10.25c-0.7,0.8-2.79,3.68-3.78,7.06v0.1c-0.3,1.09-0.5,2.29-0.4,3.38h1.19h84.98V41.49z"/>
	<polygon id="XMLID_41_" class="st0" points="192.64,4.08 187.56,28.56 194.43,28.56 199.1,4.08 	"/>
	<polygon id="XMLID_40_" class="st0" points="312.74,4.08 307.76,28.66 314.63,28.66 319.3,4.08 	"/>
	<polygon id="XMLID_39_" class="st0" points="101.09,4.08 96.02,28.56 102.89,28.56 107.56,4.08 	"/>
	<polygon id="XMLID_38_" class="st0" points="58.31,4.08 53.23,28.56 60.2,28.56 64.78,4.08 	"/>
	<polygon id="XMLID_37_" class="st0" points="295.22,6.87 294.03,12.64 300.7,12.64 301.69,6.87 	"/>
	<polygon id="XMLID_36_" class="st0" points="171.84,30.35 170.75,35.92 177.41,35.92 178.41,30.35 	"/>
	<polygon id="XMLID_35_" class="st0" points="80.1,30.35 79,36.02 85.67,36.02 86.67,30.35 	"/>
	<polygon id="XMLID_34_" class="st0" points="70.55,13.83 69.45,19.8 76.12,19.8 77.11,13.73 70.55,13.73 	"/>
	<path id="XMLID_11_" class="st0" d="M237.41,13.93h-7.06l1.79-9.75h-6.97l-2.09,9.75h-7.26l-1.99,8.76h-7.16l-1.19,5.97h28.96
		L237.41,13.93L237.41,13.93z M228.26,22.99h-6.67l0.6-2.79h6.57L228.26,22.99z"/>
	<polygon id="XMLID_31_" class="st0" points="27.86,30.35 14.63,30.35 13.53,35.92 26.77,35.92 	"/>
	<polygon id="XMLID_30_" class="st0" points="4.48,4.58 3.18,10.45 18.11,10.45 19.4,4.58 	"/>
	<polygon id="XMLID_29_" class="st0" points="43.88,10.55 43.38,13.33 51.24,13.33 52.34,7.46 55.72,7.46 55.72,4.18 47.06,4.18 
		45.77,10.55 	"/>
	<path id="XMLID_12_" class="st0" d="M182.79,4.18L181,13.83h-5.77l0,0h-0.3l-1.19,6.27h0.4l0,0h5.57l-0.5,2.39h-12.44l1.59-8.66
		h-15.62l-2.79,14.63H159l-0.5,1.89h-14.53l-1.09,5.57h21l1.39-7.46h19.9l4.98-24.28C190.15,4.18,182.79,4.18,182.79,4.18z
		 M159.9,22.79h-3.58l0.5-2.79h0.1h3.58L159.9,22.79z"/>
	<polygon id="XMLID_26_" class="st0" points="58.31,35.92 58.31,35.92 72.44,35.92 72.44,35.92 73.93,28.46 93.53,28.46 98.51,4.08 
		91.84,4.08 89.95,13.83 83.28,13.83 82.09,19.9 82.29,19.9 88.36,19.9 88.36,19.8 88.86,19.8 88.26,22.49 88.16,22.49 88.16,22.59 
		69.05,22.59 67.56,30.35 67.06,30.35 59.4,30.35 	"/>
	<path id="XMLID_13_" class="st0" d="M24.28,15.42L24.28,15.42h-0.5l-1.49,7.16h0.3l0,0h-6.87l2.19-10.25H2.89L0,26.07h7.86
		l-0.4,2.49h20.6l2.59-13.13C30.65,15.42,24.28,15.42,24.28,15.42z M7.86,16.62h3.98l-0.7,3.28H7.16L7.86,16.62z"/>
	<polygon id="XMLID_23_" class="st0" points="142.09,30.35 128.86,30.35 127.76,35.92 141,35.92 	"/>
	<polygon id="XMLID_22_" class="st0" points="118.81,4.48 117.51,10.25 132.44,10.25 133.73,4.48 	"/>
	<path id="XMLID_14_" class="st0" d="M138.71,15.32L138.71,15.32h-0.5l-1.49,7.16h0.2l0,0h-6.87l2.19-10.25h-15.02l-2.89,13.73h7.86
		l-0.4,2.49h20.6l2.59-13.13H138.71L138.71,15.32z M125.47,19.8h-3.98l0.6-3.28h3.98L125.47,19.8z"/>
	<path id="XMLID_15_" class="st0" d="M303.68,4.08l-1.89,9.75h-7.96l-1.19,6.07h7.76l-0.5,2.69h-14.43l1.59-8.76h-6.47l1.79-9.75
		h-6.97l-1.79,9.75h-7.86l-1.39,8.76h-5.47l1.39-8.76h-15.72l-2.89,14.73h9.35l-0.3,1.69h-15.32l-0.1,0.5l0,0l0,0l0,0l-1,5.17h21.89
		l0.1,0.1l1.39-7.46h47.96l4.78-24.48H303.68L303.68,4.08z M252.54,22.99h-3.28l0.5-2.89h3.38L252.54,22.99z M278.71,22.99h-6.47
		l0.5-2.89h6.47L278.71,22.99z"/>
	<polygon id="XMLID_16_" class="st0" points="50.65,28.46 53.13,15.42 46.47,15.42 46.17,15.42 44.78,22.49 38.91,22.49 
		37.41,30.35 29.85,30.35 29.85,30.45 28.76,35.92 42.99,35.92 42.99,35.92 44.28,28.46 	"/>
	<path id="XMLID_53_" class="st0" d="M179.2,76.02C179.2,76.02,179.3,76.02,179.2,76.02L179.2,76.02L179.2,76.02z"/>
	<polygon id="XMLID_54_" class="st0" points="311.84,74.93 313.63,67.86 295.22,67.86 295.92,64.38 312.54,64.38 314.13,57.91 
		297.71,57.91 298.71,54.13 317.41,54.13 319.3,46.47 291.44,46.47 283.68,74.93 	"/>
	<polygon id="XMLID_55_" class="st0" points="268.36,74.93 277.81,74.93 285.27,46.47 275.62,46.47 	"/>
	<polygon id="XMLID_56_" class="st0" points="37.11,74.93 46.57,74.93 54.03,46.47 44.48,46.47 	"/>
	<path id="XMLID_57_" class="st0" d="M102.19,74.93h9.85l4.28-5.67h9.65v5.67h9.55l0.7-28.36h-14.43
		C121.79,46.57,102.19,74.93,102.19,74.93z M126.57,62.39h-5.67l5.67-8.26V62.39z"/>
	<path id="XMLID_60_" class="st0" d="M0,74.93h9.85l4.28-5.67h9.65v5.67h9.55l0.7-28.36H19.5L0,74.93z M24.38,62.39h-5.67l5.67-8.26
		V62.39z"/>
	<polygon id="XMLID_63_" class="st0" points="147.16,46.47 139.9,74.93 162.99,74.93 164.98,67.76 151.34,67.76 156.72,46.47 	"/>
	<path id="XMLID_64_" class="st0" d="M76.12,46.47H63.48H59.7l-7.46,28.36h9.35l2.89-9.95l8.66,9.95h11.24l-8.96-10.05
		c0,0,11.14,0.4,11.64-8.66C87.06,56.12,88.56,46.47,76.12,46.47 M77.41,56.42c0,0,0.1,2.89-4.88,3.08h-6.57l1.29-5.57h7.86
		C75.02,53.93,77.71,53.93,77.41,56.42"/>
	<path id="XMLID_67_" class="st0" d="M255.92,46.47h-12.64h-3.78l-7.56,28.36h9.35l2.89-9.95l8.66,9.95h11.24l-8.96-10.05
		c0,0,11.14,0.4,11.64-8.66C266.87,56.12,268.36,46.47,255.92,46.47 M257.11,56.42c0,0,0.1,2.89-4.88,3.08h-6.57l1.29-5.57h7.86
		C254.83,53.93,257.51,53.93,257.11,56.42"/>
	<polygon id="XMLID_70_" class="st0" points="233.73,46.57 226.17,46.57 227.96,43.98 217.21,43.98 214.83,46.57 206.67,46.57 
		199.2,74.93 226.57,74.93 228.36,67.86 210.15,67.86 211.04,64.18 227.96,64.18 229.65,57.61 212.64,57.61 213.53,53.93 
		232.14,53.93 	"/>
	<path id="XMLID_71_" class="st0" d="M181.69,55.22L181.69,55.22c6.07-2.79,17.11,0.1,17.11,0.1l1.99-7.26c0,0-8.66-1.79-17.41-0.9
		c-3.08,0.4-5.57,1.29-6.17,1.59c-2.49,1.09-5.37,3.08-7.16,6.27c-0.8,1.59-1.59,3.48-2.19,5.87c0,0-3.68,13.63,8.56,14.93
		c0,0,8.66,1.29,17.81-1.99l3.38-13.43h-10.35l-1.99,7.76c0,0-5.37,2.69-8.06-0.2l-0.1-0.1c0-0.1-0.1-0.2-0.2-0.2
		c-0.4-0.5-0.5-1.19-0.6-1.69c0-0.2,0-0.4,0-0.7c0,0-0.1-3.18,1.99-6.67C178.81,57.71,180,56.12,181.69,55.22"/>
</g>
</svg>
