<?xml version="1.0" encoding="utf-8"?>
<!-- Generator: Adobe Illustrator 25.4.1, SVG Export Plug-In . SVG Version: 6.00 Build 0)  -->
<svg version="1.1" xmlns="http://www.w3.org/2000/svg" xmlns:xlink="http://www.w3.org/1999/xlink" x="0px" y="0px"
	 viewBox="0 0 131.76 80" style="enable-background:new 0 0 131.76 80;" xml:space="preserve">
<style type="text/css">
	.st0{fill:#C5012D;}
	.st1{fill:#F19817;}
</style>
<g id="Layer_2">
</g>
<g id="Layer_1">
	<path class="st0" d="M115.8,0.36c0.49-0.38,1.15-0.32,1.74-0.34c4.74,0.02,9.47-0.06,14.21,0.01c-0.34,0.74-0.79,1.41-1.24,2.08
		c-4.89,7.57-9.77,15.15-14.64,22.73c-0.24,0.03-0.47,0.06-0.71,0.08c-4,0.25-8,0.61-12.01,0.79c-1.35,0.06-2.7,0.19-4.05,0.24
		c-5.01,0.1-10.02,0.65-14.92,1.69c-1.25,0.28-2.52,0.5-3.71,0.98c-0.03,0.31-0.06,0.61-0.08,0.92c6.61,0.53,13.27-0.05,19.76-1.36
		c3.35-0.65,6.72-1.14,10.08-1.75c1.63-0.25,3.23-0.64,4.88-0.76c-0.01,0.1-0.03,0.29-0.04,0.39c-1.55,2.55-3.27,5-4.82,7.56
		l0.1,0.07c-0.33,0-0.66,0.01-0.99,0.01c-3.14-0.33-6.22-1.07-9.32-1.64c-6.41-1.44-13-1.94-19.56-1.82
		c-0.07,0.27-0.14,0.54-0.21,0.81c1.5,0.7,3.12,1.07,4.72,1.48c3.1,0.79,6.27,1.29,9.46,1.57c4.55,0.33,9.11,0.32,13.66,0.7
		c0.34,0.03,0.67,0.04,1.01,0.06c0.03,0.16,0.03,0.32-0.01,0.48c-1.2,1.94-2.49,3.81-3.66,5.76c-2.28-0.9-4.55-1.86-6.74-2.95
		c-1.99-0.95-3.98-1.93-6.06-2.66c-4.12-1.42-8.25-2.87-12.56-3.61c-0.08,0.3-0.15,0.6-0.23,0.9c4.4,2.69,9.09,4.94,14.02,6.45
		c2,0.58,4.03,1.05,6.04,1.62c1.48,0.43,2.99,0.75,4.44,1.28c0.08,0.03,0.24,0.1,0.32,0.14c-1.27,1.86-2.45,3.79-3.71,5.66
		c-2.13-1.44-4.11-3.09-6.08-4.73c-1.05-0.87-2.04-1.81-3.16-2.6c-3.93-2.79-8.08-5.29-12.48-7.26c-0.16,0.25-0.32,0.5-0.48,0.76
		c3.63,3.86,7.78,7.26,12.41,9.85c3.07,1.58,6.04,3.33,9,5.1c-0.83,1.35-1.65,2.83-1.6,4.47c0.07,1.52,1.15,2.8,2.39,3.57
		c1.25,0.87,2.7,1.37,4.09,1.97c-2.06-0.04-4.13-0.1-6.19-0.2c-1.61-2.07-3.35-4.03-4.91-6.13c-1.89-2.45-3.63-5-5.45-7.49
		c-1.73-2.31-3.7-4.43-5.76-6.45c-1.54-1.49-3.02-3.07-4.8-4.28c-0.17,0.24-0.35,0.48-0.48,0.75c0.2,0.81,0.78,1.45,1.17,2.17
		c2.64,4.44,5.85,8.57,9.71,12.01c2.12,1.78,3.96,3.85,5.93,5.78c1.16,1.22,2.47,2.3,3.48,3.65c-3.39-0.14-6.78,0.08-10.17,0.22
		c-0.12-0.26-0.24-0.52-0.36-0.78c-1.03-2.53-1.99-5.1-2.84-7.7c-1.07-3.07-2.36-6.06-3.91-8.92c-1.13-2.11-2.46-4.1-3.77-6.1
		c-0.33,0.07-0.66,0.14-0.99,0.21c0.14,1.3,0.5,2.56,0.84,3.81c1.07,3.79,2.51,7.48,4.46,10.9c0.99,1.7,2.23,3.25,3.09,5.03
		c0.56,1.18,1.37,2.25,1.76,3.51c0.56,0.15,1.15,0.09,1.72,0.14c-0.95,0.2-1.93-0.04-2.88,0.14c-1.91,0.12-3.8,0.41-5.71,0.59
		c-0.2,0.01-0.4,0.01-0.6,0.01c-0.5-3.63-0.23-7.31-0.67-10.95c-0.33-3.01-0.95-5.97-1.69-8.9c-0.34-1.3-0.73-2.58-1.04-3.89
		c-0.42-0.01-0.83-0.01-1.25-0.02c-0.25,4.94-0.35,9.97,0.82,14.82c0.39,1.73,1.09,3.36,1.47,5.09c0.26,1.2,0.62,2.38,0.74,3.61
		c0,0.15,0.02,0.46,0.02,0.61c-1.62,0.2-3.22,0.5-4.8,0.9c-1.02,0.25-2.02,0.6-3.06,0.8c0.64-3.44,1.46-6.84,2.39-10.21
		c0.71-2.4,1.02-4.88,1.29-7.36c0.28-2.75,0.4-5.51,0.39-8.28c-0.36,0.02-0.72,0.03-1.08,0.05c-1.22,3.03-2.2,6.15-2.84,9.36
		c-0.94,4.36-0.83,8.84-1.16,13.27c-0.1,1.12-0.09,2.26-0.3,3.37c-0.02,0.07-0.06,0.21-0.08,0.28c-2.33,0.75-4.69,1.65-6.57,3.25
		c-1.02,0.85-1.7,2.26-1.33,3.59c0.45,1.35,1.5,2.39,2.61,3.22c2.15,1.56,4.61,2.63,7.11,3.5c3.44,1.16,7.04,1.86,10.67,2.11
		c3.19,0.26,6.39,0.38,9.59,0.28c-3.98,0.86-8.04,1.36-12.1,1.53c-6.09,0.24-12.31-0.69-17.86-3.26c-2.98-1.49-5.81-3.28-8.53-5.21
		c-2.36-1.71-4.7-3.44-7.09-5.12c-2.7-1.71-5.53-3.19-8.42-4.55c-5.11-2.35-10.54-3.94-16.03-5.11C13.12,55.37,6.54,54.58,0,53.63
		c0.58-0.11,1.18-0.14,1.77-0.12c12.09,0.19,24.25-0.72,36.08-3.3c0.91-0.21,1.86-0.3,2.72-0.69c1.73-0.8,3.45-1.64,5.14-2.53
		c0.63-0.35,1.25-0.73,1.94-0.96c-0.68,0.68-1.54,1.13-2.29,1.74c-0.93,0.73-1.86,1.46-2.82,2.16c-1.87,1.35-3.68,2.79-5.53,4.17
		c-0.88,0.68-1.81,1.31-2.62,2.07c1.26-0.64,2.44-1.42,3.65-2.15c4.32-2.6,8.49-5.43,12.88-7.9c3.22-1.87,6.6-3.49,9.58-5.74
		c2.6-1.94,5.12-3.99,7.46-6.24c-0.17-0.22-0.33-0.44-0.49-0.66c3.7-2.43,7.36-4.91,11.04-7.37c0.45,0.14,0.93,0.37,1.39,0.13
		c4.52-1.97,8.81-4.47,12.76-7.43c4.84-3.71,9.61-7.51,14.54-11.1c1.78-1.41,3.68-2.65,5.42-4.1c-1.8,0.9-3.48,2.02-5.19,3.09
		c-0.39,0.23-0.83,0.34-1.25,0.46c0.35-0.33,0.72-0.62,1.12-0.89C110.15,4.3,112.98,2.34,115.8,0.36 M115.06,14.62
		c-3.1,1.03-6.2,2.08-9.32,3.05c-3.02,0.95-6.04,1.92-9.11,2.67c-5.86,1.44-11.47,3.78-16.76,6.66c0.07,0.31,0.13,0.62,0.2,0.93
		c2.06-0.21,4.09-0.71,6.1-1.19c5.23-1.31,10.31-3.25,15.08-5.77c2.38-1.08,4.81-2.05,7.22-3.06c3.03-1.23,6.02-2.55,9.05-3.78
		c0.53-0.23,1.15-0.35,1.52-0.84C117.71,13.76,116.39,14.21,115.06,14.62 M68.29,34.89c-2.84,2.29-5.7,4.61-8.08,7.38
		c-1.77,1.86-3.22,3.99-4.74,6.05c-1.83,2.62-3.87,5.09-5.77,7.66c-1.97,2.6-4.04,5.12-5.96,7.76c1.16-0.91,1.98-2.16,3.01-3.21
		c2.28-2.41,4.65-4.72,6.92-7.14c2.27-2.1,4.42-4.32,6.66-6.47c1.06-0.93,1.95-2.03,2.87-3.09c1.61-1.9,3.12-3.89,4.49-5.97
		c0.57-0.88,1.22-1.71,1.7-2.64C69.1,34.96,68.68,34.54,68.29,34.89 M70.22,35.53c-0.98,1.04-1.72,2.27-2.54,3.44
		c-1.73,2.69-3.42,5.45-4.51,8.47c-1.72,4.46-3.43,8.91-5.2,13.35c-1.14,2.98-2.41,5.91-3.49,8.91c0.57-0.8,0.97-1.7,1.41-2.57
		c1.06-2.05,2.18-4.06,3.27-6.09c1.68-3.05,3.31-6.12,5.09-9.11c3.04-5.03,5.53-10.44,6.91-16.17
		C70.84,35.68,70.53,35.61,70.22,35.53z"/>
	<g>
		<path class="st1" d="M107.45,6.69c1.7-1.07,3.39-2.19,5.19-3.09c-1.75,1.45-3.65,2.7-5.42,4.1c-4.93,3.59-9.7,7.39-14.54,11.1
			c-3.95,2.96-8.24,5.45-12.76,7.43c-0.46,0.24-0.95,0.01-1.39-0.13c2.26-1.82,4.81-3.23,7.13-4.96c0.74-0.58,1.57-1.03,2.35-1.56
			c3-1.99,5.86-4.18,8.93-6.07c1.49-0.93,2.75-2.19,4.26-3.09c1.08-0.68,2.05-1.5,3.15-2.14c0.62-0.36,1.15-0.92,1.86-1.13
			C106.62,7.03,107.06,6.93,107.45,6.69L107.45,6.69z"/>
		<path class="st1" d="M115.06,14.62c1.33-0.41,2.65-0.86,3.96-1.33c-0.37,0.49-0.99,0.61-1.52,0.84c-3.03,1.23-6.02,2.55-9.05,3.78
			c-2.41,1.01-4.84,1.98-7.22,3.06c-4.77,2.52-9.85,4.46-15.08,5.77c-2.02,0.48-4.04,0.98-6.1,1.19c-0.07-0.31-0.13-0.62-0.2-0.93
			c5.29-2.88,10.9-5.22,16.76-6.66c3.08-0.75,6.09-1.72,9.11-2.67C108.85,16.69,111.95,15.64,115.06,14.62z"/>
		<path class="st1" d="M103.16,25.71c4.01-0.18,8.01-0.54,12.01-0.79c0.17-0.01,0.52-0.03,0.69-0.04c-0.24,0.41-0.47,0.83-0.8,1.17
			c0.01-0.1,0.03-0.29,0.04-0.39c-1.64,0.12-3.25,0.51-4.88,0.76c-3.36,0.61-6.73,1.1-10.08,1.75c-6.49,1.32-13.15,1.89-19.76,1.36
			c0.03-0.31,0.06-0.61,0.08-0.92c1.19-0.48,2.46-0.7,3.71-0.98c4.9-1.04,9.91-1.58,14.92-1.69
			C100.46,25.9,101.81,25.77,103.16,25.71z"/>
		<path class="st1" d="M80.48,30.23c6.56-0.12,13.15,0.38,19.56,1.82c3.1,0.57,6.18,1.31,9.32,1.64c0.28,0.03,0.56,0.04,0.84,0.06
			c-0.26,0.42-0.52,0.85-0.81,1.25c-0.35-0.33-0.87-0.13-1.29-0.2c-4.55-0.38-9.11-0.37-13.66-0.7c-3.19-0.29-6.36-0.79-9.46-1.57
			c-1.6-0.41-3.22-0.78-4.72-1.48C80.33,30.77,80.41,30.5,80.48,30.23z"/>
		<path class="st1" d="M80.07,31.87c4.3,0.74,8.44,2.19,12.56,3.61c2.08,0.73,4.07,1.71,6.06,2.66c2.2,1.09,4.46,2.05,6.74,2.95
			c-0.21,0.4-0.46,0.79-0.73,1.16c-0.09-0.03-0.26-0.09-0.35-0.12c-1.45-0.54-2.96-0.85-4.44-1.28c-2-0.58-4.04-1.05-6.04-1.62
			c-4.94-1.51-9.63-3.76-14.02-6.45C79.92,32.47,80,32.17,80.07,31.87z"/>
		<path class="st1" d="M78.76,34.09c0.16-0.25,0.32-0.5,0.48-0.76c4.4,1.97,8.55,4.48,12.48,7.26c1.12,0.79,2.11,1.73,3.16,2.6
			c1.98,1.64,3.95,3.29,6.08,4.73c-0.2,0.41-0.46,0.79-0.78,1.12c-2.96-1.77-5.94-3.52-9-5.1C86.55,41.35,82.39,37.95,78.76,34.09z"
			/>
		<path class="st1" d="M64.16,35.6c1.11-0.7,2.17-1.48,3.31-2.13c0.16,0.22,0.33,0.44,0.49,0.66c-2.34,2.25-4.86,4.3-7.46,6.24
			c-2.99,2.25-6.36,3.87-9.58,5.74c-4.39,2.47-8.56,5.3-12.88,7.9c-1.21,0.72-2.39,1.5-3.65,2.15c0.81-0.77,1.74-1.39,2.62-2.07
			c1.85-1.38,3.66-2.82,5.53-4.17c0.96-0.69,1.89-1.42,2.82-2.16c0.75-0.6,1.61-1.05,2.29-1.74c0.45-0.48,1.03-0.8,1.61-1.1
			c1.76-0.9,3.41-2,5.08-3.04c1.26-0.69,2.42-1.54,3.63-2.31C60.08,38.31,62.1,36.91,64.16,35.6z"/>
		<path class="st1" d="M77.47,35.25c0.13-0.27,0.31-0.51,0.48-0.75c1.79,1.21,3.26,2.79,4.8,4.28c2.05,2.03,4.03,4.14,5.76,6.45
			c1.82,2.49,3.57,5.05,5.45,7.49c1.56,2.1,3.3,4.07,4.91,6.13c-0.37,0-0.74,0-1.11,0c-1.01-1.35-2.32-2.44-3.48-3.65
			c-1.98-1.93-3.82-4-5.93-5.78c-3.86-3.45-7.07-7.57-9.71-12.01C78.25,36.7,77.67,36.06,77.47,35.25z"/>
		<path class="st1" d="M68.29,34.89c0.38-0.35,0.81,0.07,1.09,0.33c-0.48,0.94-1.13,1.76-1.7,2.64c-1.37,2.08-2.88,4.07-4.49,5.97
			c-0.92,1.06-1.81,2.16-2.87,3.09c-2.23,2.14-4.39,4.36-6.66,6.47c-2.27,2.42-4.64,4.73-6.92,7.14c-1.03,1.05-1.85,2.3-3.01,3.21
			c1.92-2.64,3.99-5.16,5.96-7.76c1.9-2.57,3.94-5.04,5.77-7.66c1.52-2.06,2.97-4.18,4.74-6.05C62.6,39.5,65.45,37.18,68.29,34.89z"
			/>
		<path class="st1" d="M70.22,35.53c0.31,0.08,0.62,0.15,0.94,0.23c-1.39,5.73-3.88,11.14-6.91,16.17
			c-1.79,2.99-3.42,6.06-5.09,9.11c-1.09,2.03-2.21,4.04-3.27,6.09c-0.44,0.88-0.84,1.77-1.41,2.57c1.07-3,2.34-5.94,3.49-8.91
			c1.77-4.43,3.48-8.89,5.2-13.35c1.1-3.02,2.78-5.78,4.51-8.47C68.5,37.8,69.24,36.57,70.22,35.53z"/>
		<path class="st1" d="M75.72,35.79c0.33-0.07,0.66-0.14,0.99-0.21c1.31,2,2.64,3.99,3.77,6.1c1.55,2.86,2.84,5.85,3.91,8.92
			c0.85,2.6,1.81,5.17,2.84,7.7c0.12,0.3,0.24,0.59,0.35,0.89c-0.57-0.05-1.16,0.01-1.72-0.14c-0.39-1.26-1.2-2.33-1.76-3.51
			c-0.85-1.78-2.1-3.33-3.09-5.03c-1.94-3.43-3.39-7.11-4.46-10.9C76.22,38.35,75.86,37.09,75.72,35.79z"/>
		<path class="st1" d="M69.09,45.56c0.64-3.2,1.62-6.33,2.84-9.36c0.36-0.02,0.72-0.03,1.08-0.05c0.01,2.76-0.11,5.53-0.39,8.28
			c-0.27,2.47-0.58,4.96-1.29,7.36c-0.93,3.37-1.75,6.78-2.39,10.21c-0.44,0.21-0.9,0.38-1.36,0.53l0.06-0.34
			c0.2-1.11,0.2-2.25,0.3-3.37C68.26,54.4,68.15,49.92,69.09,45.56z"/>
		<path class="st1" d="M73.74,36.18c0.42,0.01,0.83,0.01,1.25,0.02c0.31,1.31,0.7,2.59,1.04,3.89c0.74,2.93,1.36,5.9,1.69,8.9
			c0.44,3.64,0.17,7.32,0.67,10.95c0.2,0,0.4-0.01,0.6-0.01c-0.68,0.28-1.43,0.34-2.16,0.39c-0.02-0.21-0.04-0.41-0.06-0.61
			c-0.12-1.23-0.49-2.41-0.74-3.61c-0.38-1.73-1.08-3.36-1.47-5.09C73.39,46.15,73.49,41.12,73.74,36.18z"/>
	</g>
</g>
</svg>
