<?xml version="1.0" encoding="utf-8"?>
<!-- Generator: Adobe Illustrator 25.4.1, SVG Export Plug-In . SVG Version: 6.00 Build 0)  -->
<svg version="1.1" xmlns="http://www.w3.org/2000/svg" xmlns:xlink="http://www.w3.org/1999/xlink" x="0px" y="0px"
	 viewBox="0 0 307.66 80" style="enable-background:new 0 0 307.66 80;" xml:space="preserve">
<style type="text/css">
	.st0{fill:#C5012D;}
	.st1{fill:#F19817;}
</style>
<g id="Layer_2">
</g>
<g id="Layer_1">
	<g transform="matrix(1.24 0 0 1.24 93.8751316 151.8203608)">
		<g>
			<path class="st0" d="M17.68-122.15c0.4-0.31,0.93-0.26,1.41-0.27c3.82,0.02,7.64-0.05,11.46,0c-0.27,0.59-0.64,1.14-1,1.68
				c-3.94,6.11-7.88,12.21-11.81,18.33c-0.19,0.02-0.38,0.04-0.57,0.06c-3.23,0.2-6.45,0.49-9.69,0.64
				c-1.09,0.05-2.18,0.16-3.27,0.19c-4.04,0.08-8.08,0.52-12.03,1.36c-1.01,0.23-2.03,0.4-2.99,0.79c-0.02,0.25-0.05,0.49-0.07,0.74
				c5.33,0.43,10.7-0.04,15.94-1.1c2.7-0.52,5.42-0.92,8.13-1.41c1.31-0.2,2.61-0.52,3.93-0.61c-0.01,0.08-0.02,0.24-0.03,0.31
				c-1.25,2.05-2.64,4.03-3.89,6.09l0.08,0.05c-0.27,0-0.53,0.01-0.8,0.01c-2.53-0.27-5.02-0.86-7.52-1.32
				c-5.17-1.16-10.48-1.56-15.77-1.46c-0.06,0.22-0.12,0.43-0.17,0.65c1.21,0.56,2.52,0.86,3.81,1.19c2.5,0.63,5.06,1.04,7.63,1.27
				c3.67,0.27,7.35,0.26,11.02,0.57c0.27,0.02,0.54,0.03,0.82,0.05c0.03,0.13,0.02,0.26-0.01,0.39c-0.96,1.56-2.01,3.07-2.96,4.65
				c-1.84-0.72-3.67-1.5-5.44-2.38C2.28-92.44,0.68-93.23-1-93.82c-3.32-1.14-6.66-2.32-10.13-2.91c-0.06,0.24-0.12,0.48-0.18,0.72
				C-7.77-93.83-3.98-92.02,0-90.8c1.61,0.47,3.25,0.85,4.87,1.31c1.19,0.35,2.41,0.6,3.58,1.03c0.06,0.03,0.19,0.08,0.26,0.11
				c-1.03,1.5-1.97,3.05-2.99,4.56C4-84.95,2.4-86.28,0.81-87.6c-0.85-0.7-1.65-1.46-2.55-2.09c-3.17-2.25-6.51-4.27-10.06-5.86
				c-0.13,0.2-0.26,0.41-0.39,0.61c2.93,3.11,6.28,5.85,10.01,7.94c2.47,1.28,4.87,2.69,7.26,4.11C4.42-81.8,3.75-80.6,3.8-79.28
				c0.06,1.23,0.93,2.26,1.93,2.88c1.01,0.7,2.18,1.11,3.3,1.59c-1.66-0.03-3.33-0.08-4.99-0.16c-1.3-1.67-2.7-3.25-3.96-4.95
				c-1.52-1.97-2.93-4.03-4.4-6.04c-1.39-1.87-2.99-3.57-4.64-5.2c-1.24-1.2-2.43-2.48-3.87-3.45c-0.14,0.2-0.28,0.39-0.39,0.61
				c0.16,0.65,0.63,1.17,0.94,1.75c2.13,3.58,4.71,6.91,7.83,9.69c1.71,1.43,3.19,3.1,4.78,4.66c0.94,0.98,1.99,1.86,2.81,2.95
				c-2.74-0.11-5.47,0.06-8.2,0.18c-0.1-0.21-0.19-0.42-0.29-0.63c-0.83-2.04-1.6-4.11-2.29-6.21c-0.86-2.47-1.9-4.89-3.15-7.19
				c-0.91-1.7-1.98-3.31-3.04-4.92c-0.27,0.06-0.54,0.11-0.8,0.17c0.11,1.05,0.4,2.06,0.68,3.07c0.86,3.05,2.03,6.03,3.59,8.79
				c0.8,1.37,1.8,2.62,2.49,4.06c0.45,0.95,1.11,1.81,1.42,2.83c0.45,0.12,0.93,0.08,1.39,0.12c-0.76,0.16-1.56-0.03-2.32,0.11
				c-1.54,0.1-3.07,0.33-4.61,0.48c-0.16,0.01-0.32,0.01-0.49,0.01c-0.4-2.93-0.19-5.9-0.54-8.83c-0.27-2.42-0.77-4.82-1.36-7.18
				c-0.27-1.05-0.59-2.08-0.84-3.13c-0.34-0.01-0.67-0.01-1.01-0.02c-0.2,3.99-0.28,8.04,0.66,11.95c0.32,1.39,0.88,2.71,1.19,4.1
				c0.21,0.97,0.5,1.92,0.6,2.91c0,0.12,0.01,0.37,0.02,0.49c-1.3,0.16-2.6,0.4-3.87,0.73c-0.83,0.2-1.63,0.48-2.47,0.65
				c0.52-2.77,1.18-5.52,1.93-8.24c0.57-1.93,0.82-3.94,1.04-5.93c0.23-2.22,0.32-4.45,0.31-6.68c-0.29,0.01-0.58,0.03-0.87,0.04
				c-0.98,2.44-1.77,4.96-2.29,7.54c-0.76,3.52-0.67,7.13-0.93,10.7c-0.08,0.9-0.07,1.82-0.24,2.71c-0.01,0.06-0.05,0.17-0.06,0.23
				c-1.88,0.6-3.78,1.33-5.3,2.62c-0.82,0.69-1.37,1.82-1.08,2.89c0.36,1.09,1.21,1.93,2.11,2.6c1.73,1.26,3.72,2.12,5.73,2.82
				c2.78,0.94,5.68,1.5,8.6,1.7c2.57,0.21,5.15,0.3,7.73,0.23c-3.21,0.69-6.48,1.1-9.76,1.24c-4.91,0.2-9.92-0.56-14.41-2.63
				c-2.41-1.2-4.69-2.65-6.88-4.2c-1.9-1.38-3.79-2.78-5.72-4.13c-2.17-1.38-4.46-2.57-6.79-3.67c-4.12-1.89-8.5-3.18-12.93-4.12
				c-5.22-1.09-10.53-1.72-15.8-2.49c0.47-0.09,0.95-0.11,1.43-0.1c9.75,0.15,19.55-0.58,29.1-2.66c0.74-0.17,1.5-0.25,2.2-0.56
				c1.4-0.65,2.78-1.32,4.14-2.04c0.51-0.28,1.01-0.59,1.57-0.77c-0.55,0.55-1.24,0.91-1.85,1.4c-0.75,0.59-1.5,1.18-2.28,1.74
				c-1.51,1.09-2.97,2.25-4.46,3.36c-0.71,0.55-1.46,1.05-2.11,1.67c1.01-0.52,1.96-1.15,2.94-1.73c3.48-2.09,6.85-4.38,10.39-6.37
				c2.6-1.51,5.32-2.82,7.73-4.63c2.1-1.56,4.13-3.22,6.02-5.04c-0.13-0.18-0.26-0.36-0.4-0.54c2.98-1.96,5.94-3.96,8.91-5.94
				c0.36,0.11,0.75,0.3,1.12,0.11c3.64-1.59,7.11-3.6,10.29-5.99c3.9-2.99,7.75-6.06,11.72-8.95c1.43-1.13,2.97-2.14,4.37-3.31
				c-1.45,0.73-2.81,1.63-4.18,2.49c-0.31,0.19-0.67,0.28-1.01,0.37c0.28-0.26,0.58-0.5,0.9-0.72
				C13.12-118.96,15.4-120.55,17.68-122.15 M17.08-110.65c-2.5,0.83-5,1.68-7.52,2.46c-2.44,0.76-4.87,1.55-7.35,2.15
				c-4.73,1.16-9.25,3.05-13.52,5.37c0.05,0.25,0.1,0.5,0.16,0.75c1.66-0.17,3.29-0.57,4.92-0.96c4.22-1.06,8.32-2.62,12.16-4.65
				c1.92-0.87,3.88-1.65,5.82-2.47c2.44-0.99,4.85-2.06,7.3-3.05c0.43-0.19,0.93-0.28,1.22-0.68
				C19.22-111.34,18.16-110.98,17.08-110.65 M-20.63-94.3c-2.29,1.85-4.6,3.71-6.52,5.95c-1.42,1.5-2.59,3.22-3.82,4.88
				c-1.48,2.12-3.12,4.11-4.66,6.18c-1.59,2.1-3.26,4.13-4.81,6.26c0.94-0.74,1.6-1.74,2.43-2.59c1.84-1.94,3.75-3.81,5.58-5.76
				c1.83-1.7,3.57-3.49,5.37-5.22c0.85-0.75,1.57-1.63,2.31-2.49c1.3-1.53,2.51-3.14,3.62-4.82c0.46-0.71,0.99-1.38,1.37-2.13
				C-19.98-94.24-20.32-94.58-20.63-94.3 M-19.08-93.78c-0.79,0.84-1.39,1.83-2.05,2.77c-1.4,2.17-2.75,4.4-3.64,6.83
				c-1.39,3.59-2.76,7.19-4.19,10.76c-0.92,2.4-1.95,4.77-2.81,7.19c0.46-0.65,0.79-1.37,1.14-2.07c0.85-1.65,1.76-3.27,2.63-4.91
				c1.35-2.46,2.67-4.94,4.11-7.34c2.45-4.06,4.46-8.42,5.58-13.04C-18.58-93.66-18.83-93.72-19.08-93.78z"/>
			<path class="st0" d="M100.03-86.59c2.02-0.04,4.05-0.02,6.07-0.02c-0.29,0.52-0.56,1.11-1.06,1.45c-1.95,0.05-3.91,0.03-5.87,0
				C99.43-85.66,99.73-86.12,100.03-86.59L100.03-86.59z"/>
			<path class="st0" d="M110.48-85.55c0.94-0.67,2.09-1.04,3.24-1.05c6.26-0.01,12.52,0,18.78,0.02c0.76,0.01,1.66,0.14,2.08,0.87
				c-0.27,0.5-0.58,0.97-0.89,1.45c0.69,0.01,1.39,0.02,2.08,0.04c-0.31,0.55-0.65,1.08-0.99,1.6c-0.68,0.02-1.36-0.05-2.03,0.06
				c-0.75,0.6-0.91,1.92-2.01,2.06c-2.43,0.1-4.87-0.02-7.3,0.07c-0.55,0.02-1.25,0.26-1.27,0.91c1.96,0.24,3.95-0.09,5.92,0.19
				c0.48,0.08,1,0.13,1.41,0.44c0.3,0.22,0.52,0.62,0.4,0.99c-0.18,0.58-0.54,1.08-0.83,1.6c-0.37,0.61-0.69,1.3-1.26,1.75
				c-0.56,0.43-1.3,0.46-1.97,0.46c-3.74-0.01-7.47,0.01-11.21-0.01c-0.51-0.03-1.17-0.06-1.46-0.56c-0.28-0.55,0.22-1.03,0.47-1.48
				c0.23-0.31,0.39-0.85,0.86-0.83c1.99-0.01,3.99-0.03,5.99,0.02c-0.24,0.45-0.46,0.91-0.65,1.38c0.64,0.11,1.43,0.31,1.98-0.17
				c0.47-0.56,0.91-1.21,0.99-1.95c-0.98-0.3-2-0.14-3-0.18c-1.26-0.03-2.56,0.14-3.78-0.26c-0.52-0.14-0.86-0.75-0.66-1.25
				c0.27-0.69,0.72-1.3,1.25-1.81c0.5-0.5,1.24-0.54,1.91-0.56c2.41,0,4.83-0.01,7.24-0.02c0.12-0.23,0.24-0.46,0.35-0.7
				c-1.77-0.11-3.54-0.04-5.31-0.05c-2.03-0.01-4.05-0.01-6.08,0.02c-1.62,2.63-3.27,5.24-4.86,7.89c-0.16,0.28-0.4,0.6-0.77,0.53
				c-1.99-0.04-3.99,0.07-5.98-0.07c0.19-0.53,0.54-0.98,0.83-1.45c1.48-2.34,2.97-4.68,4.46-7.03c-0.54-0.01-1.07-0.02-1.61-0.03
				c0.24-0.56,0.55-1.09,0.87-1.61c0.52,0.01,1.05,0.01,1.57,0C109.63-84.71,109.98-85.2,110.48-85.55 M115.65-84.27
				c3.8,0.01,7.59,0.03,11.39,0.01c0.14-0.26,0.28-0.52,0.42-0.79c-1.06-0.32-2.18-0.21-3.27-0.22c-2.19,0.01-4.37-0.01-6.56,0.01
				C116.85-85.25,116.18-84.79,115.65-84.27z"/>
			<path class="st0" d="M42.35-83.75c0.82-0.45,1.78-0.51,2.7-0.51c3.19-0.01,6.38,0,9.57,0.01c0.62,0,1.27,0.07,1.8,0.41
				c0.31,0.2,0.56,0.61,0.41,0.99c-0.24,0.65-0.61,1.23-0.88,1.87c-0.4,0.9-1.17,1.59-2.07,1.98c0.12,0.39,0.3,0.83,0.12,1.24
				c-0.32,0.69-0.78,1.32-1.19,1.96c-0.28,0.46-0.65,0.9-1.15,1.12c-0.76,0.38-1.63,0.31-2.45,0.31c-3.74,0-7.48-0.01-11.22,0.01
				c-0.38,0-0.81,0-1.12-0.27c-0.2-0.16-0.27-0.44-0.19-0.67c0.2-0.68,0.61-1.27,1.01-1.85c2.18-0.01,4.37-0.02,6.55-0.02
				c-0.18,0.38-0.41,0.75-0.48,1.17c0.21,0.28,0.59,0.26,0.91,0.29c0.64,0.04,1.41-0.06,1.76-0.68c0.31-0.53,0.68-1.05,0.87-1.64
				c0-0.37-0.41-0.54-0.72-0.59c-0.84-0.11-1.69-0.04-2.53-0.06c0.23-0.46,0.49-0.9,0.75-1.34c1.12-0.13,2.26,0,3.37-0.17
				c0.96-0.31,1.35-1.34,1.84-2.13c-0.48-0.48-1.21-0.35-1.82-0.31c-0.55,0.2-0.79,0.81-1.16,1.22c-2.22,0.07-4.43,0.03-6.64,0.02
				C40.92-82.24,41.39-83.27,42.35-83.75L42.35-83.75z"/>
			<path class="st0" d="M89.67-84.27c5.4,0.05,10.8-0.03,16.2,0.05c-0.26,0.57-0.61,1.1-0.99,1.61c-0.37-0.01-0.75,0-1.12,0.02
				c-0.49,0.51-0.74,1.2-1.22,1.72c-0.32,0.37-0.84,0.39-1.3,0.41c-2.23,0.01-4.45-0.02-6.68,0.02c-0.62,0-1.26,0.32-1.41,0.96
				c1.86,0.1,3.72-0.01,5.57,0.08c0.77,0.03,1.5,0.33,2.15,0.73c0.03,0.4,0.1,0.83-0.11,1.2c-0.38,0.7-0.8,1.38-1.21,2.06
				c-0.25,0.45-0.6,0.86-1.07,1.07c-0.66,0.34-1.43,0.23-2.15,0.24c-2.37,0.02-4.73-0.01-7.1,0.03c-0.29,0.55-0.64,1.27-1.35,1.32
				c-1.42,0.04-2.84,0.01-4.26,0.01c0.03-0.44,0.14-0.87,0.35-1.25c-0.12-0.25-0.31-0.48-0.32-0.77c0.25-0.54,0.64-1.01,0.93-1.53
				c0.19-0.28,0.35-0.74,0.77-0.69c1.89,0,3.78-0.04,5.68,0.03c-0.22,0.47-0.43,0.94-0.54,1.45c0.64,0.02,1.29,0.09,1.94-0.01
				c0.25-0.02,0.4-0.25,0.56-0.42c0.31-0.42,0.6-0.87,0.79-1.36c0.08-0.34-0.29-0.57-0.59-0.56C90.9-78,88.56-77.61,86.3-78.2
				c-0.01-0.35-0.12-0.74,0.11-1.05c0.39-0.62,0.78-1.23,1.19-1.84c0.39-0.59,1.15-0.67,1.8-0.68c2.46,0,4.93,0,7.39,0
				c0.11-0.23,0.22-0.47,0.34-0.7c-2.84-0.14-5.68,0.01-8.51-0.08C88.9-83.16,89.26-83.74,89.67-84.27L89.67-84.27z"/>
			<path class="st0" d="M19.24-84.23c6.91-0.01,13.82-0.03,20.73,0.01c-0.19,0.52-0.44,1.03-0.75,1.49
				c-0.62,0.08-1.24,0.06-1.85,0.08c-0.74,1.33-1.58,2.6-2.37,3.9c-0.58,1.08-1.59,2.15-2.92,2.04c-2.22-0.01-4.43,0.01-6.65-0.02
				c0.18-0.35,0.29-0.76,0.61-1.02c0.38-0.14,0.83-0.11,1.17-0.35c0.3-0.25,0.47-0.62,0.67-0.95c0.69-1.21,1.52-2.35,2.14-3.61
				c-0.98-0.02-1.96-0.02-2.93,0c-0.99,1.74-1.98,3.49-2.99,5.22c-0.27,0.45-0.52,1.01-0.29,1.52c0.18,0.19,0.46,0.18,0.7,0.2
				c2.94,0.04,5.88-0.02,8.82,0.04c0.39,0.01,0.91,0.22,0.92,0.67c-0.18,0.69-0.57,1.3-0.84,1.96c-2.22-0.02-4.44,0-6.66,0
				c0.18-0.45,0.28-0.92,0.31-1.4c-0.39-0.05-0.78-0.09-1.18-0.09c-2.56,0.01-5.12,0.01-7.69-0.01c-0.6-0.01-1.28-0.2-1.62-0.74
				c-0.3-0.54-0.1-1.18,0.17-1.69c0.98-1.91,2.16-3.71,3.09-5.64c-0.58-0.02-1.16-0.03-1.75-0.03
				C18.44-83.19,18.77-83.76,19.24-84.23z"/>
			<path class="st0" d="M59.47-84.16c1.53-0.11,3.06-0.04,4.59-0.06c1.78,0.02,3.55-0.05,5.33,0.06c-0.28,0.48-0.59,0.94-0.91,1.4
				c-0.62,0.01-1.24-0.03-1.84,0.11c-0.57,0.84-1.03,1.75-1.56,2.61c-0.87,1.41-1.73,2.83-2.54,4.28c-0.31,0.59-0.64,1.18-1.12,1.65
				c-2.19,0.02-4.38,0.02-6.57-0.01c0.38-0.85,0.95-1.59,1.38-2.4c0.35-0.69,0.91-1.29,1.06-2.07c-0.67-0.09-1.34-0.09-2-0.08
				c0.2-0.48,0.45-0.93,0.73-1.36c0.8-0.01,1.6-0.01,2.39-0.1c0.55-0.83,1.11-1.66,1.55-2.56c-0.41-0.03-0.82-0.06-1.23-0.08
				C58.95-83.25,59.2-83.71,59.47-84.16L59.47-84.16z"/>
			<path class="st0" d="M73.33-84.19c1.91-0.05,3.82-0.02,5.74-0.03c1.4,0.01,2.8-0.03,4.2,0.05c-0.33,0.47-0.6,1-1.03,1.39
				c-0.62,0.17-1.43-0.21-1.93,0.33c-0.77,1-1.38,2.13-2.22,3.07c-0.52,0.56-1.3,0.8-2.05,0.76c-0.49,0.68-0.97,1.36-1.45,2.05
				c-0.19,0.24-0.26,0.54-0.23,0.85c0.97,0.14,1.96,0.04,2.94,0.11c-0.19,0.42-0.33,0.88-0.63,1.24c-1.04,0.13-2.1,0.03-3.14,0.05
				c-1.51-0.01-3.02,0-4.53-0.01c-0.41-0.03-0.89-0.03-1.19-0.35c-0.34-0.49-0.29-1.16-0.03-1.66c0.38-0.74,0.93-1.38,1.23-2.16
				c-0.41-0.22-0.88-0.17-1.32-0.16c0.18-0.49,0.44-0.93,0.72-1.37c1.04-0.03,2.08,0.03,3.11-0.13c0.48-0.06,0.8-0.47,1.07-0.82
				c0.41-0.57,0.85-1.13,1.27-1.69c-0.44-0.04-0.89-0.07-1.33-0.1C72.78-83.25,73.05-83.72,73.33-84.19L73.33-84.19z"/>
			<path class="st0" d="M139.58-82.85c0.25-0.48,0.49-0.97,0.85-1.38c10.29-0.01,20.58-0.01,30.87-0.01
				c0.37,0.01,0.73,0.04,1.1,0.05c-0.29,0.46-0.58,0.93-0.82,1.41c-0.75,0.15-1.77-0.11-2.24,0.66c-1.61,2.65-3.23,5.29-4.82,7.94
				c-0.63,0.12-1.28,0.07-1.92,0.07c-1.54-0.01-3.07,0.03-4.61-0.03c1.12-2.07,2.4-4.05,3.54-6.11c0.42-0.78,1.12-1.47,1.09-2.42
				c-0.85-0.03-1.7-0.07-2.55-0.01c-0.55,0.03-0.87,0.54-1.14,0.95c-1.43,2.35-2.86,4.69-4.29,7.04c-0.17,0.25-0.35,0.64-0.72,0.57
				c-2.03-0.01-4.07,0.02-6.11-0.03c0.32-0.68,0.79-1.3,1.05-2.01c-0.41-0.38-0.97-0.39-1.49-0.39h-10.84
				c-0.85,0.01-1.73-0.1-2.46-0.55c-0.35-0.22-0.51-0.67-0.47-1.07c0.04-0.63,0.44-1.15,0.73-1.7c0.28-0.52,0.69-1.11,1.34-1.16
				c2.14-0.09,4.28,0.07,6.42-0.04c0.73,0.01,1.42-0.64,1.47-1.35c-0.45-0.35-1.05-0.3-1.59-0.31c-0.72,0.02-1.45-0.08-2.15,0.13
				C139.73-82.65,139.65-82.75,139.58-82.85 M150.6-82.65c-0.53,0.79-0.92,1.68-1.59,2.37c-0.42,0.44-1.05,0.58-1.63,0.59
				c-1.89,0.02-3.79-0.06-5.68,0.02c-0.59-0.01-0.99,0.73-0.7,1.22c0.24,0.33,0.67,0.48,1.07,0.46c2.27-0.01,4.54,0.01,6.8-0.01
				c0.59-0.01,1.29-0.14,1.62-0.69c0.48-0.79,0.93-1.6,1.39-2.4c0.26-0.5,0.66-0.99,0.55-1.6C151.82-82.69,151.21-82.71,150.6-82.65
				z"/>
			<path class="st0" d="M15.99-67.63c0.43-0.12,0.89-0.07,1.33-0.08c3.7,0,7.39,0.02,11.09,0.01c0.64-0.01,1.28-0.01,1.92,0.04
				c-0.31,1.15-0.76,2.25-1.12,3.38c-0.68,1.99-1.32,3.99-2.02,5.98c-0.06,0.34-0.42,0.26-0.67,0.28c-2.48,0-4.96,0.03-7.43-0.03
				c0.16-0.46,0.31-0.92,0.44-1.39c-1.12-0.01-2.23-0.04-3.35-0.01c-1.11-0.09-1.41,1.49-2.51,1.43c-2.32,0-4.64,0.03-6.96-0.02
				c0.49-0.71,1.13-1.28,1.72-1.9c2.17-2.24,4.35-4.47,6.52-6.71C15.28-66.99,15.59-67.37,15.99-67.63 M18.21-61.93
				c0.82,0.08,1.66,0.09,2.48,0.01c0.46-1.32,1.14-2.56,1.55-3.9C20.89-64.53,19.52-63.26,18.21-61.93z"/>
			<path class="st0" d="M34.86-67.62c2.96-0.02,5.93-0.04,8.89,0c-2.01,3.22-4.04,6.43-6.12,9.61c-2.94-0.03-5.87,0.01-8.81-0.03
				c0.85-1.57,1.89-3.02,2.82-4.54C32.7-64.27,33.82-65.91,34.86-67.62L34.86-67.62z"/>
			<path class="st0" d="M46.77-67.62c5.52-0.04,11.04,0,16.55-0.03c0.83-0.05,1.91,0.39,1.95,1.35c-0.06,1-0.76,1.78-1.24,2.61
				c-0.57,0.87-1.01,1.9-1.93,2.48c-0.53,0.38-1.2,0.44-1.82,0.54c0.86,0.85,1.78,1.65,2.52,2.61c-2.73,0.08-5.46,0.03-8.19,0.04
				c-0.23,0-0.5,0.01-0.64-0.2c-0.85-1.01-1.6-2.09-2.37-3.17c-0.8,1.06-1.35,2.27-2.12,3.34c-2.92,0.06-5.83,0.03-8.75,0.01
				C42.63-61.3,44.8-64.4,46.77-67.62 M53.54-64.77c-0.35,0.66-0.72,1.32-1.04,2c0.89-0.01,1.9,0.22,2.7-0.31
				c0.38-0.36,0.86-0.85,0.7-1.42C55.22-65.03,54.32-64.72,53.54-64.77L53.54-64.77z"/>
			<path class="st0" d="M75.9-67.32c0.16-0.36,0.56-0.41,0.9-0.39c2.69,0.03,5.39-0.04,8.08,0.05c-1.38,2.26-2.81,4.49-4.22,6.73
				c-0.64,0.95-1.18,1.98-1.88,2.89c-2.94,0.02-5.88,0.04-8.82,0C71.86-61.19,73.93-64.22,75.9-67.32z"/>
			<path class="st0" d="M87.42-67.14c0.17-0.25,0.35-0.59,0.71-0.55c2.35-0.02,4.71-0.01,7.06-0.01c0.26,0.03,0.63-0.04,0.78,0.25
				c0.71,1.15,1.37,2.33,2.14,3.44c0.81-1.12,1.45-2.35,2.22-3.5c0.17-0.25,0.53-0.16,0.79-0.2c2.31,0.03,4.62-0.03,6.93,0.04
				c-2.03,3.24-4.17,6.42-6.2,9.66c-2.49-0.03-4.98,0.01-7.47-0.01c-0.86-1.34-1.73-2.67-2.6-4c-0.83,1.37-1.74,2.68-2.63,4.01
				c-2.41-0.03-4.83-0.02-7.24-0.01c0.36-0.86,0.93-1.61,1.4-2.42C84.65-62.68,86.07-64.89,87.42-67.14L87.42-67.14z"/>
			<path class="st0" d="M111.25-67.65c1.16-0.13,2.32-0.01,3.48-0.05c4.16,0.01,8.31-0.01,12.47-0.01c0.92,0.03,1.89,0.03,2.76,0.38
				c0.37,0.13,0.69,0.49,0.63,0.9c-0.08,0.44-0.35,0.81-0.57,1.18c-0.95,1.57-1.89,3.14-2.83,4.71c-0.77,1.52-2.43,2.55-4.14,2.51
				c-5.97,0.01-11.94,0.02-17.91-0.03c0.47-0.95,1.11-1.81,1.66-2.71C108.27-63.06,109.73-65.37,111.25-67.65 M118.33-64.74
				c-0.41,0.7-0.8,1.41-1.19,2.12c-0.43,0.82-0.94,1.6-1.28,2.46c0.76,0.02,1.62,0.16,2.27-0.32c0.77-0.5,1.11-1.39,1.51-2.17
				c0.3-0.6,0.78-1.22,0.56-1.93C119.61-64.84,118.96-64.81,118.33-64.74z"/>
			<path class="st0" d="M134.22-66.97c0.22-0.33,0.45-0.79,0.92-0.73c2.78,0.02,5.56-0.04,8.34,0.04c-0.61,1.2-1.4,2.29-2.12,3.42
				c-1.11,1.84-2.33,3.62-3.46,5.45c-0.17,0.26-0.35,0.51-0.54,0.76c-2.94,0.01-5.87,0.03-8.81-0.02
				C130.34-61.07,132.39-63.95,134.22-66.97L134.22-66.97z"/>
			<path class="st0" d="M148.63-67.42c0.24-0.22,0.56-0.29,0.88-0.28c3.4,0,6.8,0,10.2,0c1.14,0.01,2.28-0.03,3.42,0.05
				c-0.99,3.24-2.11,6.45-3.18,9.67c-2.69,0-5.37-0.03-8.06-0.02c0.18-0.47,0.35-0.95,0.51-1.43c-1.28-0.02-2.57-0.07-3.85,0.01
				c-0.66,0.29-1.02,0.97-1.59,1.39c-2.5,0.03-5.01,0.01-7.52,0.01c0.48-0.78,1.23-1.34,1.85-2.01
				C143.74-62.49,146.2-64.94,148.63-67.42 M151.06-61.93c0.81,0.03,1.63,0.06,2.44,0.01c0.55-1.3,1.11-2.6,1.67-3.9
				C153.73-64.59,152.41-63.24,151.06-61.93z"/>
		</g>
		<g>
			<path class="st1" d="M10.95-117.04c1.37-0.86,2.73-1.77,4.18-2.49c-1.41,1.17-2.94,2.17-4.37,3.31
				c-3.98,2.89-7.82,5.96-11.72,8.95c-3.18,2.39-6.64,4.4-10.29,5.99c-0.37,0.19-0.76,0.01-1.12-0.11c1.82-1.47,3.88-2.6,5.75-4
				c0.6-0.46,1.27-0.83,1.9-1.26c2.42-1.6,4.73-3.37,7.2-4.89c1.2-0.75,2.21-1.77,3.44-2.49c0.87-0.55,1.66-1.21,2.54-1.73
				c0.5-0.29,0.93-0.74,1.5-0.91C10.28-116.76,10.63-116.85,10.95-117.04L10.95-117.04z"/>
			<path class="st1" d="M17.08-110.65c1.08-0.33,2.14-0.69,3.2-1.07c-0.29,0.4-0.8,0.49-1.22,0.68c-2.44,0.99-4.86,2.05-7.3,3.05
				c-1.94,0.81-3.9,1.6-5.82,2.47c-3.85,2.03-7.94,3.59-12.16,4.65c-1.63,0.39-3.26,0.79-4.92,0.96c-0.05-0.25-0.11-0.5-0.16-0.75
				c4.27-2.32,8.79-4.21,13.52-5.37c2.48-0.61,4.91-1.39,7.35-2.15C12.08-108.97,14.58-109.82,17.08-110.65z"/>
			<path class="st1" d="M7.49-101.71c3.23-0.14,6.46-0.43,9.69-0.64c0.14-0.01,0.42-0.02,0.56-0.03c-0.19,0.33-0.38,0.67-0.64,0.95
				c0.01-0.08,0.02-0.24,0.03-0.31c-1.33,0.1-2.62,0.41-3.93,0.61c-2.71,0.49-5.43,0.89-8.13,1.41c-5.23,1.06-10.61,1.53-15.94,1.1
				c0.02-0.25,0.05-0.49,0.07-0.74c0.96-0.39,1.99-0.56,2.99-0.79c3.95-0.84,7.99-1.28,12.03-1.36
				C5.31-101.55,6.4-101.66,7.49-101.71z"/>
			<path class="st1" d="M-10.8-98.06c5.29-0.1,10.6,0.3,15.77,1.46c2.5,0.46,4.98,1.06,7.52,1.32c0.23,0.02,0.45,0.03,0.68,0.05
				c-0.21,0.34-0.42,0.68-0.65,1.01c-0.28-0.27-0.7-0.11-1.04-0.16c-3.67-0.31-7.35-0.3-11.02-0.57c-2.57-0.23-5.13-0.64-7.63-1.27
				c-1.29-0.33-2.59-0.63-3.81-1.19C-10.92-97.63-10.86-97.84-10.8-98.06z"/>
			<path class="st1" d="M-11.13-96.73c3.47,0.6,6.81,1.77,10.13,2.91c1.68,0.59,3.28,1.38,4.89,2.14c1.77,0.88,3.6,1.66,5.44,2.38
				c-0.17,0.33-0.37,0.64-0.59,0.93c-0.07-0.02-0.21-0.07-0.29-0.1c-1.17-0.43-2.39-0.69-3.58-1.03C3.25-89.96,1.61-90.34,0-90.8
				c-3.98-1.22-7.76-3.03-11.31-5.21C-11.25-96.25-11.19-96.49-11.13-96.73z"/>
			<path class="st1" d="M-12.19-94.94c0.13-0.2,0.26-0.41,0.39-0.61c3.55,1.59,6.89,3.61,10.06,5.86c0.9,0.63,1.7,1.39,2.55,2.09
				C2.4-86.28,4-84.95,5.71-83.79c-0.16,0.33-0.37,0.64-0.63,0.9C2.7-84.31,0.3-85.72-2.18-87C-5.91-89.09-9.26-91.83-12.19-94.94z"
				/>
			<path class="st1" d="M-23.96-93.73c0.89-0.57,1.75-1.2,2.67-1.72c0.13,0.18,0.26,0.36,0.4,0.54c-1.89,1.82-3.92,3.47-6.02,5.04
				c-2.41,1.81-5.13,3.12-7.73,4.63c-3.54,1.99-6.91,4.28-10.39,6.37c-0.98,0.58-1.93,1.21-2.94,1.73c0.66-0.62,1.4-1.12,2.11-1.67
				c1.49-1.11,2.95-2.27,4.46-3.36c0.77-0.56,1.53-1.15,2.28-1.74c0.6-0.49,1.3-0.85,1.85-1.4c0.36-0.39,0.83-0.65,1.3-0.89
				c1.42-0.72,2.75-1.61,4.1-2.45c1.02-0.56,1.95-1.25,2.93-1.87C-27.26-91.54-25.63-92.67-23.96-93.73z"/>
			<path class="st1" d="M-13.23-94.01c0.11-0.22,0.25-0.41,0.39-0.61c1.44,0.97,2.63,2.25,3.87,3.45c1.65,1.63,3.25,3.34,4.64,5.2
				c1.47,2.01,2.88,4.07,4.4,6.04c1.26,1.7,2.66,3.28,3.96,4.95c-0.3,0-0.6,0-0.9,0c-0.82-1.09-1.87-1.97-2.81-2.95
				c-1.59-1.56-3.08-3.22-4.78-4.66c-3.11-2.78-5.7-6.11-7.83-9.69C-12.6-92.84-13.07-93.36-13.23-94.01z"/>
			<path class="st1" d="M-20.63-94.3c0.31-0.28,0.65,0.06,0.88,0.27c-0.38,0.76-0.91,1.42-1.37,2.13c-1.11,1.68-2.32,3.28-3.62,4.82
				c-0.74,0.86-1.46,1.74-2.31,2.49c-1.8,1.73-3.54,3.52-5.37,5.22c-1.83,1.95-3.74,3.82-5.58,5.76c-0.83,0.85-1.49,1.85-2.43,2.59
				c1.55-2.13,3.22-4.16,4.81-6.26c1.53-2.07,3.18-4.07,4.66-6.18c1.23-1.66,2.4-3.37,3.82-4.88
				C-25.23-90.58-22.92-92.45-20.63-94.3z"/>
			<path class="st1" d="M-19.08-93.78c0.25,0.06,0.5,0.12,0.75,0.18c-1.12,4.62-3.13,8.98-5.58,13.04
				c-1.44,2.41-2.75,4.89-4.11,7.34c-0.88,1.64-1.78,3.26-2.63,4.91c-0.35,0.71-0.68,1.43-1.14,2.08c0.87-2.42,1.89-4.79,2.81-7.19
				c1.43-3.57,2.81-7.17,4.19-10.76c0.89-2.43,2.24-4.66,3.64-6.83C-20.47-91.95-19.87-92.94-19.08-93.78z"/>
			<path class="st1" d="M-14.64-93.57c0.27-0.06,0.53-0.11,0.8-0.17c1.06,1.61,2.13,3.22,3.04,4.92c1.25,2.3,2.29,4.72,3.15,7.19
				c0.69,2.1,1.46,4.17,2.29,6.21c0.09,0.24,0.19,0.48,0.28,0.72c-0.46-0.04-0.94,0.01-1.39-0.12c-0.31-1.02-0.97-1.88-1.42-2.83
				c-0.69-1.44-1.69-2.68-2.49-4.06c-1.57-2.76-2.73-5.74-3.59-8.79C-14.24-91.51-14.53-92.52-14.64-93.57z"/>
			<path class="st1" d="M-19.99-85.69c0.52-2.58,1.31-5.1,2.29-7.54c0.29-0.01,0.58-0.03,0.87-0.04c0.01,2.23-0.09,4.46-0.31,6.68
				c-0.22,2-0.47,4-1.04,5.93c-0.75,2.72-1.41,5.46-1.93,8.24c-0.35,0.17-0.72,0.31-1.1,0.43l0.05-0.28
				c0.16-0.9,0.16-1.81,0.24-2.71C-20.66-78.56-20.74-82.18-19.99-85.69z"/>
			<path class="st1" d="M-16.24-93.26c0.34,0.01,0.67,0.01,1.01,0.02c0.25,1.05,0.56,2.09,0.84,3.13c0.6,2.36,1.1,4.75,1.36,7.18
				c0.35,2.93,0.14,5.9,0.54,8.83c0.16,0,0.32-0.01,0.49-0.01c-0.55,0.23-1.15,0.27-1.74,0.31c-0.02-0.17-0.04-0.33-0.05-0.5
				c-0.1-0.99-0.39-1.94-0.6-2.91c-0.3-1.39-0.87-2.71-1.19-4.1C-16.52-85.22-16.44-89.27-16.24-93.26z"/>
		</g>
	</g>
</g>
</svg>
