<?xml version="1.0" encoding="utf-8"?>
<!-- Generator: Adobe Illustrator 25.4.1, SVG Export Plug-In . SVG Version: 6.00 Build 0)  -->
<svg version="1.1" id="Layer_1" xmlns="http://www.w3.org/2000/svg" xmlns:xlink="http://www.w3.org/1999/xlink" x="0px" y="0px"
	 viewBox="0 0 105.1 80" style="enable-background:new 0 0 105.1 80;" xml:space="preserve">
<style type="text/css">
	.st0{fill:#FC7E1B;}
</style>
<g>
	<path class="st0" d="M28.8,33.1L21.1,46h14.5c0,0,10.5,2.1,18.5-10.3S64.3,15.2,71.6,9.6s30.9-4.2,30.9-4.2l2.6-5.4H81.8
		c0,0-15.7,0.2-23.6,15.9C48.9,34.1,44.3,33.1,28.8,33.1z"/>
	<path class="st0" d="M10.7,63.2l8.1-13.3h19c0,0,11.7-0.3,17.8-10.4s10.9-18.6,12.2-20.6S74.3,8,85.7,8s15.8,0,15.8,0l-3,5.8H86.7
		c0,0-7.6-0.5-12.3,7.2c-4.6,7.7-16.1,28.2-16.1,28.2S52.4,63.2,35,63.2S10.7,63.2,10.7,63.2z"/>
	<path class="st0" d="M0,80l8.6-13.4H35c0,0,16.3-0.2,22.8-10.5s17.9-31.5,17.9-31.5s3.5-8.5,11.3-8.5s10.3,0,10.3,0L95,21.8
		l-5.9-0.1c0,0-3.4-0.8-6.2,4.1S65.4,58.6,65.4,58.6s-6.5,12.7-12.8,16S38.4,80,27.8,80S0,80,0,80z"/>
</g>
</svg>
