<?xml version="1.0" encoding="utf-8"?>
<!-- Generator: Adobe Illustrator 25.4.1, SVG Export Plug-In . SVG Version: 6.00 Build 0)  -->
<svg version="1.1" id="Layer_1" xmlns="http://www.w3.org/2000/svg" xmlns:xlink="http://www.w3.org/1999/xlink" x="0px" y="0px"
	 viewBox="0 0 232.8 80" style="enable-background:new 0 0 232.8 80;" xml:space="preserve">
<style type="text/css">
	.st0{fill:#FC7E1B;}
</style>
<g>
	<path class="st0" d="M156.8,33l-7.7,12.8h14.4c0,0,10.5,2.1,18.4-10.3c7.9-12.3,10.3-20.4,17.6-26c7.3-5.5,30.7-4.2,30.7-4.2
		l2.6-5.3h-23.2c0,0-15.6,0.2-23.5,15.8C176.8,33.9,172.2,33,156.8,33z"/>
	<path class="st0" d="M138.8,62.8l8-13.2h18.9c0,0,11.6-0.3,17.7-10.4c6.1-10.1,10.9-18.5,12.1-20.5S202.1,8,213.4,8s15.7,0,15.7,0
		l-3,5.8h-11.7c0,0-7.6-0.5-12.2,7.2c-4.6,7.7-16,28-16,28s-5.9,13.9-23.2,13.9S138.8,62.8,138.8,62.8z"/>
	<path class="st0" d="M128.1,79.6l8.5-13.3h26.3c0,0,16.2-0.2,22.7-10.5s17.8-31.3,17.8-31.3s3.5-8.5,11.3-8.5s10.3,0,10.3,0
		l-2.3,5.8l-5.9-0.1c0,0-3.4-0.8-6.2,4.1s-17.4,32.5-17.4,32.5s-6.5,12.6-12.7,16s-14.1,5.3-24.6,5.3
		C145.2,79.6,128.1,79.6,128.1,79.6z"/>
	<path d="M109.4,49.3c-9.1,0-16.5,6.9-16.5,15.3c0,8.5,7.4,15.3,16.5,15.3s16.5-6.9,16.5-15.3S118.5,49.3,109.4,49.3z M109.4,73.6
		c-4.3,0-7.8-4-7.8-8.9s3.5-8.9,7.8-8.9s7.8,4,7.8,8.9C117.3,69.6,113.8,73.6,109.4,73.6z"/>
	<path d="M85.2,49.3c-2.5,0-4.8,2.5-6.1,4.3v-3.5h-8.3v29h8.3v-13c0-1.3,0.2-7.5,3-9.2c3.2-2,6.4,0.7,6.4,0.7l2.8-6.7
		C91.3,50.9,89,49.3,85.2,49.3z"/>
	<path d="M49.2,49.3c-16.9,0-14.9,17.1-14.7,18.3c0.2,1.2,1.7,12.4,15,12.4c0,0,11.1,0.7,14.5-8.7L55.4,70c0,0-1.4,4.1-5.3,4.1
		s-7.2-2.6-7.2-7.4h21.6C64.5,66.7,66.1,49.3,49.2,49.3z M56.2,62.1H42.9c0,0-0.3-6.8,6.6-6.8C56.5,55.2,56.2,62.1,56.2,62.1z"/>
	<path d="M28.3,71.5c0-4.1,0-8.2,0-12.3c0-3.3-1-6.4-4-8.1s-6.6-1.9-10-1.8c-1.8,0.1-3.6,0.3-5.3,0.9c-1.7,0.6-3.3,1.4-4.6,2.6
		C3.6,53.4,3,54.2,2.5,55c-0.2,0.2-1.4,2.9-1.3,2.9l7.5,1c0,0,0.9-4.2,6.5-3.7s4.7,5,4.7,5s-4.6,1.3-9.9,2.3c-5.3,0.9-10,3.3-10,8.9
		S6,80,10.3,80c4.4,0,8.7-2.2,10.2-3.9c0,0,0.6,1.8,1.2,3h8.4C30.2,79.1,28.3,77.3,28.3,71.5z M19.9,68.7c0,0,0,5.8-6.8,5.8
		s-5.2-6.9-0.6-7.7c4.6-0.8,7.3-1.4,7.3-1.4v3.3H19.9z"/>
</g>
</svg>
