<?xml version="1.0" encoding="utf-8"?>
<!-- Generator: Adobe Illustrator 25.4.1, SVG Export Plug-In . SVG Version: 6.00 Build 0)  -->
<svg version="1.1" id="Layer_1" xmlns="http://www.w3.org/2000/svg" xmlns:xlink="http://www.w3.org/1999/xlink" x="0px" y="0px"
	 viewBox="0 0 79.93 80" style="enable-background:new 0 0 79.93 80;" xml:space="preserve">
<style type="text/css">
	.st0{fill:#FF0000;}
</style>
<g>
	<path class="st0" d="M38.53,33.37c-4.18,0-7.47,3.36-7.47,7.47c0,4.18,3.22,7.47,7.47,7.47c4.11,0,7.4-3.29,7.4-7.47
		C45.93,36.73,42.64,33.37,38.53,33.37z"/>
	<path class="st0" d="M40,0C17.91,0,0,17.91,0,40s17.91,40,40,40s40-17.91,40-40S62.09,0,40,0z M55.66,59.76H45.04h-1.78l0.82-3.63
		c-3.08,3.63-6.86,4.66-11.24,4.66c-7.88,0-14.19-6.58-14.19-17c0-12.96,8.64-22.42,18.51-22.42c3.15,0,9.05,0.41,11.04,4.32
		l0.69-3.29v-0.07h12.48L55.66,59.76z"/>
</g>
</svg>
