<?xml version="1.0" encoding="utf-8"?>
<!-- Generator: Adobe Illustrator 25.4.1, SVG Export Plug-In . SVG Version: 6.00 Build 0)  -->
<svg version="1.1" id="Layer_1" xmlns="http://www.w3.org/2000/svg" xmlns:xlink="http://www.w3.org/1999/xlink" x="0px" y="0px"
	 viewBox="0 0 365.48 80" style="enable-background:new 0 0 365.48 80;" xml:space="preserve">
<style type="text/css">
	.st0{fill:#FF0000;}
</style>
<g>
	<path class="st0" d="M261.91,38.06l2.43-16.38c-5.31-2.88-12.72-5.31-21.24-5.31c-16.82,0-26,8.85-26,20.25
		c0,12.06,10.95,15.6,18.48,18.15c4.54,1.66,8.08,2.88,8.08,5.31c0,1.99-2.32,3.87-6.97,3.87c-6.75,0-16.15-3.87-22.24-9.29
		l-2.66,17.93c6.31,4.65,15.38,7.41,25.01,7.41c16.71,0,26.22-8.19,26.22-19.81c0-12.17-10.29-16.27-18.59-19.25
		c-4.65-1.66-7.97-2.66-7.97-4.98c0-1.99,2.32-3.54,7.08-3.54C250.4,32.42,257.48,35.63,261.91,38.06z"/>
	<path class="st0" d="M48.8,18.04l-1.11,5.31c-3.21-6.31-12.72-6.97-17.81-6.97C13.94,16.38,0,31.65,0,52.56
		C0,69.38,10.18,80,22.9,80c7.08,0,13.17-1.66,18.15-7.52l-1.33,5.86h2.88h17.15l9.18-60.41H48.8V18.04z M32.09,59.86
		c-6.86,0-12.06-5.31-12.06-12.06c0-6.64,5.31-12.06,12.06-12.06c6.64,0,11.95,5.42,11.95,12.06
		C44.04,54.55,38.73,59.86,32.09,59.86z"/>
	<path class="st0" d="M196.51,18.04h-2.1l-1.11,5.31c-3.21-6.31-12.72-6.97-17.81-6.97c-15.93,0-29.88,15.27-29.88,36.18
		c0,16.82,10.18,27.44,22.9,27.44c7.08,0,13.17-1.66,18.15-7.52l-1.33,5.86h2.88h17.15l9.18-60.41h-18.04V18.04z M177.7,59.86
		c-6.86,0-12.06-5.31-12.06-12.06c0-6.64,5.31-12.06,12.06-12.06c6.64,0,11.95,5.42,11.95,12.06
		C189.76,54.55,184.34,59.86,177.7,59.86z"/>
	<path class="st0" d="M347.44,18.04h-2.1l-1.11,5.31c-3.21-6.31-12.72-6.97-17.81-6.97c-15.93,0-29.88,15.27-29.88,36.18
		c0,16.82,10.18,27.44,22.9,27.44c7.08,0,13.17-1.66,18.15-7.52l-1.33,5.86h2.88h17.15l9.18-60.41h-18.04V18.04z M328.63,59.86
		c-6.86,0-12.06-5.31-12.06-12.06c0-6.64,5.31-12.06,12.06-12.06c6.64,0,11.95,5.42,11.95,12.06
		C340.58,54.55,335.27,59.86,328.63,59.86z"/>
	<path class="st0" d="M88.3,20.25c5.56,0,10.07-4.51,10.07-10.07c0-5.56-4.51-10.07-10.07-10.07S78.23,4.62,78.23,10.18
		C78.23,15.74,82.74,20.25,88.3,20.25z"/>
	<path class="st0" d="M88.19,24.12c-4.32,0-8.19-1.99-10.73-4.98l-8.96,59.2h20.14l8.74-57.54C94.83,22.9,91.73,24.12,88.19,24.12z"
		/>
	<path class="st0" d="M135.32,37.95c5.56,0,10.07-4.51,10.07-10.07s-4.51-10.07-10.07-10.07s-10.07,4.51-10.07,10.07
		S129.76,37.95,135.32,37.95z"/>
	<path class="st0" d="M121.27,27.88c0-3.87,1.55-7.41,4.09-9.96h-18.92l-9.18,60.41h20.14l6.42-42.49
		C122.16,33.64,121.27,30.87,121.27,27.88z"/>
	<path class="st0" d="M286.03,20.14c5.56,0,10.07-4.51,10.07-10.07C296.1,4.51,291.59,0,286.03,0c-5.56,0-10.07,4.51-10.07,10.07
		C275.96,15.63,280.47,20.14,286.03,20.14z"/>
	<path class="st0" d="M286.03,24.12c-4.43,0-8.41-2.1-11.07-5.31l-9.07,59.53h20.14l8.74-57.32
		C292.34,23.02,289.35,24.12,286.03,24.12z"/>
</g>
</svg>
