<?xml version="1.0" encoding="utf-8"?>
<!-- Generator: Adobe Illustrator 25.4.1, SVG Export Plug-In . SVG Version: 6.00 Build 0)  -->
<svg version="1.1" xmlns="http://www.w3.org/2000/svg" xmlns:xlink="http://www.w3.org/1999/xlink" x="0px" y="0px"
	 viewBox="0 0 101.98 80" style="enable-background:new 0 0 101.98 80;" xml:space="preserve">
<style type="text/css">
	.st0{fill:#003361;}
</style>
<g id="Layer_2">
</g>
<g id="Layer_1">
	<g>
		<path class="st0" d="M70.39,24.2c1.59,0.02,2.68,0.49,3.57,0.91c1.84,0.87,4,1.88,6.71,3.19c0,0.01,4.36-3.11,4.6-3.27
			c1.49-1.01,2.92-0.24,3.38,0.63c1.63,3.07,4.63,9.45,6.22,15.28c0.18,0.7-0.04,1.78-1.13,2.12c-0.63,0.18-1.72,0.34-2.85,0.48
			c-1.58,0.2-1.55,1.48-1.55,2.25c0,0.96,0.01,7.39,0.01,9.6c0.04,1.35-0.99,5.77-6.1,5.77c-0.34,0-11.69,0-11.64,0
			c-4.4,0.02-7.94-3.71-7.97-7.67c0-2.6,0-20.73,0.01-22.76C63.66,26.8,67.18,24.16,70.39,24.2L70.39,24.2z"/>
		<path class="st0" d="M51.97,61.16H14.12v4.2h44.41c0,0,1.61-3.72,1.61-7.83c0-0.22,0.01-28.53,0.01-28.53
			c0-2.25,0.92-6.06,5.54-7.06c0.13-0.03,0.26-0.06,0.39-0.08c13.11-3.09,26.61-0.28,34.24,3.01c1.37,0.67,1.68-0.42,1.64-0.89
			c0.16-6.41-4.72-13.72-13.68-14.16C81,9.63,76.96,12.24,75.48,12.96c-0.13,0.06-0.3,0.04-0.47-0.15
			c-1.34-1.32-4.21-3.31-7.43-4.23c-0.48-0.11-0.52-0.82,0.03-0.88c6.89-0.75,12.93,0.05,15.45,0.45c0.58,0.1,1.02-0.24,0.79-0.77
			c-0.19-0.41-0.32-0.59-0.62-1.22c-0.62-1.32-2.24-2.72-4.3-3.3C73.5,1.35,64.27,0.05,56.05,0C46.8-0.06,37.04,1.79,34.57,2.35
			C33.98,2.48,33.15,2.69,33,2.71c-0.67,0.14-0.83,0.78-0.54,1.09c0.18,0.2,0.69,0.63,0.94,0.93c0.31,0.38,0.44,0.93-0.13,1.49
			L16.15,21.6h11.71h0.13c0.76-0.03,1.49,0.67,1.49,1.55c0.01,0.79-0.63,1.54-1.43,1.54h-0.09H12.74l-4.66,4.24H28l0.11-0.01
			c0.78,0.01,1.39,0.81,1.38,1.55c-0.01,0.68-0.58,1.51-1.38,1.51l-0.12,0.01H4.67l-4.66,4.2h40.23l0.13,0
			c0.79,0,1.41,0.82,1.41,1.53c0.01,0.82-0.57,1.56-1.38,1.56h-0.11H0v4.2h40.2l0.12,0.01c0.92,0.01,1.46,0.84,1.46,1.6
			c-0.01,0.71-0.68,1.46-1.48,1.46H40.2H0v4.23h52.48h0.13c0.88,0.02,1.43,0.77,1.41,1.6c-0.02,0.71-0.61,1.46-1.4,1.46H52.5H14.14
			v4.24h37.84l0.8-0.01c0.71,0,1.32,0.88,1.32,1.59c0,0.72-0.63,1.49-1.34,1.49H51.97L51.97,61.16z"/>
		<path class="st0" d="M28.26,75.68l0,4.31c0,0,5.69,0.02,8.93,0c8-0.06,13.24-4.31,13.24-4.31H28.26L28.26,75.68z"/>
		<path class="st0" d="M28.26,68.44l0,4.21h25.69c1.18-1.21,2.71-3.4,3.11-4.2L28.26,68.44L28.26,68.44z"/>
	</g>
</g>
</svg>
