<?xml version="1.0" encoding="utf-8"?>
<!-- Generator: Adobe Illustrator 25.4.1, SVG Export Plug-In . SVG Version: 6.00 Build 0)  -->
<svg version="1.1" xmlns="http://www.w3.org/2000/svg" xmlns:xlink="http://www.w3.org/1999/xlink" x="0px" y="0px"
	 viewBox="0 0 448.31 80" style="enable-background:new 0 0 448.31 80;" xml:space="preserve">
<style type="text/css">
	.st0{fill:#003361;}
	.st1{fill:#DB0D15;}
</style>
<g id="Layer_2">
</g>
<g id="Layer_1">
	<g>
		<path class="st0" d="M445.14,54.62c-1.73,0-3.19,1.33-3.19,3.13c0,1.81,1.47,3.14,3.19,3.14c1.71,0,3.17-1.33,3.17-3.14
			C448.31,55.95,446.85,54.62,445.14,54.62L445.14,54.62z M445.14,60.37c-1.43,0-2.56-1.11-2.56-2.62c0-1.48,1.12-2.61,2.56-2.61
			c1.43,0,2.54,1.12,2.54,2.61C447.68,59.26,446.57,60.37,445.14,60.37L445.14,60.37z"/>
		<path class="st0" d="M445.64,57.97c0.53-0.06,0.94-0.34,0.94-0.99c0-0.72-0.42-1.03-1.28-1.03h-1.38v3.62h0.55v-1.57h0.63
			l0.95,1.57h0.62L445.64,57.97L445.64,57.97z M444.47,57.53v-1.12h0.75c0.38,0,0.79,0.07,0.79,0.53c0,0.55-0.41,0.59-0.87,0.59
			H444.47L444.47,57.53z"/>
		<path class="st0" d="M70.39,24.2c1.59,0.02,2.68,0.49,3.57,0.91c1.84,0.87,4,1.88,6.71,3.19c0,0.01,4.36-3.11,4.6-3.27
			c1.49-1.01,2.92-0.24,3.38,0.63c1.63,3.07,4.63,9.45,6.22,15.28c0.18,0.7-0.04,1.78-1.13,2.12c-0.63,0.18-1.72,0.34-2.85,0.48
			c-1.58,0.2-1.55,1.48-1.55,2.25c0,0.96,0.01,7.39,0.01,9.6c0.04,1.35-0.99,5.77-6.1,5.77c-0.34,0-11.69,0-11.64,0
			c-4.4,0.02-7.94-3.71-7.97-7.67c0-2.6,0-20.73,0.01-22.76C63.66,26.8,67.18,24.16,70.39,24.2L70.39,24.2z"/>
		<path class="st0" d="M51.97,61.16H14.12v4.2h44.41c0,0,1.61-3.72,1.61-7.83c0-0.22,0.01-28.53,0.01-28.53
			c0-2.25,0.92-6.06,5.54-7.06c0.13-0.03,0.26-0.06,0.39-0.08c13.11-3.09,26.61-0.28,34.24,3.01c1.37,0.67,1.68-0.42,1.64-0.89
			c0.16-6.41-4.72-13.72-13.68-14.16C81,9.63,76.96,12.24,75.48,12.96c-0.13,0.06-0.3,0.04-0.47-0.15
			c-1.34-1.32-4.21-3.31-7.43-4.23c-0.48-0.11-0.52-0.82,0.03-0.88c6.89-0.75,12.93,0.05,15.45,0.45c0.58,0.1,1.02-0.24,0.79-0.77
			c-0.19-0.41-0.32-0.59-0.62-1.22c-0.62-1.32-2.24-2.72-4.3-3.3C73.5,1.35,64.27,0.05,56.05,0C46.8-0.06,37.04,1.79,34.57,2.35
			C33.98,2.48,33.15,2.69,33,2.71c-0.67,0.14-0.83,0.78-0.54,1.09c0.18,0.2,0.69,0.63,0.94,0.93c0.31,0.38,0.44,0.93-0.13,1.49
			L16.15,21.6h11.71h0.13c0.76-0.03,1.49,0.67,1.49,1.55c0.01,0.79-0.63,1.54-1.43,1.54h-0.09H12.74l-4.66,4.24H28l0.11-0.01
			c0.78,0.01,1.39,0.81,1.38,1.55c-0.01,0.68-0.58,1.51-1.38,1.51l-0.12,0.01H4.67l-4.66,4.2h40.23l0.13,0
			c0.79,0,1.41,0.82,1.41,1.53c0.01,0.82-0.57,1.56-1.38,1.56h-0.11H0v4.2h40.2l0.12,0.01c0.92,0.01,1.46,0.84,1.46,1.6
			c-0.01,0.71-0.68,1.46-1.48,1.46H40.2H0v4.23h52.48h0.13c0.88,0.02,1.43,0.77,1.41,1.6c-0.02,0.71-0.61,1.46-1.4,1.46H52.5H14.14
			v4.24h37.84l0.8-0.01c0.71,0,1.32,0.88,1.32,1.59c0,0.72-0.63,1.49-1.34,1.49H51.97L51.97,61.16z"/>
		<path class="st0" d="M28.26,75.68l0,4.31c0,0,5.69,0.02,8.93,0c8-0.06,13.24-4.31,13.24-4.31H28.26L28.26,75.68z"/>
		<path class="st0" d="M28.26,68.44l0,4.21h25.69c1.18-1.21,2.71-3.4,3.11-4.2L28.26,68.44L28.26,68.44z"/>
		<path class="st0" d="M442.59,42.42c-0.01-0.08-0.01-0.15-0.02-0.24c-0.15-3.26-1.23-6.19-2.76-8.46
			c-3.19-4.99-8.77-7.69-15.49-7.6c-6.71-0.09-12.3,2.61-15.49,7.6c-1.53,2.27-2.61,5.19-2.76,8.46c-0.01,0.09-0.02,0.16-0.03,0.24
			c-0.91,10.96,5.48,18.54,16.37,19.41c0.66,0.05,1.28,0.08,1.91,0.07c0.63,0.01,1.27-0.02,1.92-0.07
			C437.12,60.96,443.51,53.38,442.59,42.42L442.59,42.42z M425.16,56.69c-0.29,0.02-0.58,0.03-0.84,0.05
			c-0.27-0.01-0.55-0.02-0.84-0.05c-1.59-0.14-2.85-0.71-4-1.6c-0.32-0.27-0.65-0.58-0.96-0.94c-1.68-1.89-2.58-5.11-2.79-7.64
			c-0.49-5.93,0.68-14.6,7.97-15.18c0.19-0.02,0.36-0.02,0.55-0.02c0.02,0,0.05-0.01,0.08-0.01c0.03,0,0.05,0.01,0.09,0.01
			c0.17,0,0.36,0,0.54,0.02c7.29,0.58,8.48,9.24,7.99,15.18c-0.21,2.54-1.03,5.69-2.8,7.64c-0.32,0.36-0.64,0.66-0.96,0.94
			C428.01,55.97,426.65,56.57,425.16,56.69L425.16,56.69z"/>
		<path class="st0" d="M370.19,34.26c0-2.71,0.26-7.48,0.26-7.48h0h-8.92h-0.02c0,0,0.27,4.77,0.27,7.48l-0.02,19.53
			c0,2.72-0.25,7.32-0.25,7.32h0.03h8.9h0.02c0,0-0.24-4.61-0.24-7.32L370.19,34.26L370.19,34.26z"/>
		<path class="st0" d="M318.05,55.81c-1.87,0-4.32,0-6.21,0.01c-0.09-3.45-0.12-6.79-0.13-9.81l-0.02-0.47h0.01
			c0-0.03,0-0.06,0-0.08h10.31V40.6h-10.29c0.02-5.23,0.12-8.67,0.12-8.67l12.79,0v-5.15c-8.94,0.03-21.86,0-21.86,0
			s0.19,4.74,0.19,7.45v19.5c0,2.48-0.15,6.7-0.18,7.39h22.7l0.02-5.45C325.5,55.67,321.03,55.81,318.05,55.81L318.05,55.81z"/>
		<path class="st0" d="M169.21,55.81c-1.86,0-4.32,0-6.22,0.01c-0.08-3.45-0.12-6.79-0.14-9.81l-0.01-0.47h0.01
			c0-0.03,0-0.06,0-0.08h10.31V40.6h-10.29c0.03-5.23,0.12-8.67,0.12-8.67l12.8,0v-5.15c-8.94,0.03-21.86,0-21.86,0
			s0.19,4.74,0.19,7.45v19.5c0,2.48-0.16,6.7-0.18,7.39h22.7l0.02-5.45C176.66,55.67,172.19,55.81,169.21,55.81L169.21,55.81z"/>
		<path class="st0" d="M347.26,42.65l9.85-15.87h-6.83l-0.05,0.15c-2.07,3.57-4.64,7.89-5.67,9.48l-0.39,0.63l-5.72-10.26H328.2
			l9.89,17.77l-10.31,16.57h6.79c4.39-7.51,6.66-10.96,6.66-10.96l6.12,10.96h10.22L347.26,42.65L347.26,42.65z"/>
		<path class="st0" d="M398.04,56.46c-7.95,0-12.23-5.84-12.01-13.03c0.19-6.26,3.05-11.58,9.87-12.04
			c2.62-0.17,4.75,0.28,8.41,1.26l-0.37-5.37c0,0-3.11-0.99-7.56-1.16c-5.66-0.21-10.78,0.87-14.87,4.65
			c-3.64,3.34-5.81,8.29-5.81,13.08c0,5.31,2.18,10.2,6.28,13.59c4.26,3.6,8.84,4.42,14.28,4.42c3.57,0,5.66-0.24,9.13-1.18
			l-0.51-5.26C404.14,55.66,401.64,56.46,398.04,56.46L398.04,56.46z"/>
		<path class="st0" d="M283.36,21.63h9.95l0.28,2.3c2.22,22.94,3.58,37.21,3.58,37.21h-10.36l-1.02-14.21l-0.95-12.7l-8.77,26.89
			c-2.31,0.01-5.54,0-5.54,0s-2.78-9.56-3.28-10.88l-5.03-16.13c0,0-0.78,8.98-1.07,12.82c-0.61,7.7-1.14,14.22-1.14,14.22h-7.73
			c0,0,3.16-32.12,3.4-34.07c0.24-2.01,0.62-5.43,0.62-5.43h10.16l8.41,23.13L283.36,21.63L283.36,21.63z"/>
		<path class="st0" d="M248.11,42.47c-0.01-0.08-0.03-0.16-0.03-0.23c-0.14-3.27-1.22-6.18-2.75-8.44
			c-3.16-4.97-8.73-7.65-15.41-7.56c-6.7-0.09-12.26,2.58-15.43,7.56c-1.52,2.26-2.6,5.17-2.75,8.44c0,0.07-0.02,0.15-0.02,0.23
			C210.8,53.38,217.16,60.92,228,61.8c0.65,0.04,1.28,0.06,1.91,0.06c0.62,0,1.25-0.01,1.9-0.06
			C242.65,60.92,249.02,53.38,248.11,42.47L248.11,42.47z M230.74,56.66c-0.28,0.03-0.56,0.04-0.83,0.04c-0.28,0-0.55,0-0.84-0.04
			c-1.59-0.15-2.84-0.71-3.99-1.59c-0.33-0.26-0.64-0.58-0.96-0.92c-1.66-1.88-2.57-5.09-2.78-7.63
			c-0.49-5.89,0.69-14.52,7.94-15.09c0.19-0.01,0.36-0.02,0.55-0.02c0.03,0,0.06-0.01,0.09,0c0.02-0.01,0.05,0,0.07,0
			c0.18,0,0.36,0.02,0.55,0.02c7.24,0.58,8.43,9.2,7.93,15.09c-0.21,2.54-1.03,5.67-2.78,7.63c-0.32,0.34-0.63,0.67-0.96,0.92
			C233.59,55.96,232.23,56.55,230.74,56.66L230.74,56.66z"/>
		<path class="st0" d="M151.78,61.11c-0.3-0.71-2.14-5.06-3.49-8.57l-11.61-30.91h-9.04c0,0-2.57,7.25-2.94,8.44l-8.48,23.96
			c-1.1,3.06-2.65,7.08-2.65,7.08h7.38c0,0,2.09-6.66,2.52-7.87l1.14-3.33h12.78l1.74,5.07c0.37,0.95,1.88,6.04,1.91,6.12H151.78
			L151.78,61.11z M126.47,44.31l4.3-12.79l0.26-0.75l4.5,13.54H126.47L126.47,44.31z"/>
		<path class="st0" d="M212.17,61.12c-2.14-3.07-2.92-4.33-4.57-6.58l-6.15-9.56c2.96-1.46,5.74-3.91,6.17-9.04
			c0.26-3.21-1.45-5.86-2.47-6.77c-1.48-1.32-2.92-1.85-4.97-2.1c-1.65-0.21-2.84-0.23-3.82-0.28h-14.5c0,0,0.17,4.74,0.17,7.46
			v19.41c0,2.73-0.17,7.46-0.17,7.46h8.92c0,0-0.26-4.74-0.26-7.46l0.07-6.23c0,0,1.94,0,3.31,0.02l5.64,10.34
			c0.76,1.32,1.85,2.97,2.11,3.34H212.17L212.17,61.12z M196.4,41.96c-1.33,0.69-4.34,0.5-5.82,0.41l0.11-9.82l0.83-0.05
			c2.74-0.22,4.73,0.15,5.55,0.52c1.23,0.54,1.94,1.69,2.01,3.63C199.18,39.54,198.08,41.09,196.4,41.96L196.4,41.96z"/>
		<path class="st1" d="M253.2,78.87c0,0,15.62-12.77,55.06-12.77c29.72,0,47.54,9.49,82.29,9.49c31.26,0,52.13-10.74,52.13-10.74
			s-18.32,14.3-55.1,14.3s-48.5-9.62-84.82-9.62S253.2,78.87,253.2,78.87z"/>
	</g>
</g>
</svg>
