<?xml version="1.0" encoding="utf-8"?>
<!-- Generator: Adobe Illustrator 25.4.1, SVG Export Plug-In . SVG Version: 6.00 Build 0)  -->
<svg version="1.1" id="Layer_1" xmlns="http://www.w3.org/2000/svg" xmlns:xlink="http://www.w3.org/1999/xlink" x="0px" y="0px"
	 viewBox="0 0 60.1 80" style="enable-background:new 0 0 60.1 80;" xml:space="preserve">
<style type="text/css">
	.st0{fill:#2A4A9D;}
	.st1{fill:#4AAB40;}
	.st2{opacity:0.48;fill:#AED6E2;}
	.st3{fill:#F4CE00;}
</style>
<path class="st0" d="M14.9,46.4c-0.8,0.4-2.2,0.2-3.7-1c1.5-2.2,3.9-3.6,5.2-4.3C17.8,45.8,15.8,46,14.9,46.4z"/>
<path class="st0" d="M19.2,30.6c-1.7,1.2-3.7,3.4-3.7,6.6c-1.5-3-3.6-7.1-4.4-8.7c-1.2-2.7-3.7-9.2-3.7-9.2s1.9,1.1,2.5,1.5
	c0.6,0.4,1.9,0.1,3.3,0.8c1.4,0.7,2.6,4.9,4.9,8C18.6,30,18.9,30.4,19.2,30.6z"/>
<path class="st0" d="M56.9,0c0,0-7.7,10.8-13.5,19.2c0,0-7.1,4.2-9.6,5.4c-1.7,0.8-6,2.3-9.4,3.6c-0.2-0.3-0.3-0.6-0.5-0.9
	c-1.8-3.4-1.3-7.2-1.3-7.2c1.4-5.4,6.6-6.6,14.4-9.5C44.9,7.7,56.9,0,56.9,0z"/>
<path class="st0" d="M45.2,59.1c-3.5,0.8-7,1.2-10.3,1.2c0.2-3.1,1.8-4.2,1.9-4.3c-0.2,0.1-5.2,1.5-8.2,4c-0.1,0-0.1,0-0.2,0
	c-0.8-0.5-5.1-3.4-5.1-8.4c0.1-5.6,3-7.9,5.9-12.1c1.5-2.1,4.9-7,8-11.5c-0.2,0.4-0.4,0.6-0.4,0.7c-0.8,1.7-1.3,4.4-0.8,6.6
	c0.5,2.1,4.3,7.4,9.3,7c5-0.4,12.4-5.8,12.5-5.9c-0.1,0.2-2.8,5.4-3.3,7.3c-0.5,1.9,5.4,5.6,5.4,5.6s-11.9-1.7-19.9-2.1
	c-8-0.4-14.1-1.9-14.5-1.9C26.8,52.8,45.2,59.1,45.2,59.1z"/>
<path class="st1" d="M43.4,19.2C43.4,19.2,43.4,19.2,43.4,19.2C43.4,19.2,43.4,19.2,43.4,19.2c-0.1,0.1-0.1,0.1-0.1,0.1
	c0,0.1-0.1,0.1-0.1,0.2c0,0.1-0.1,0.1-0.1,0.2c-0.1,0.1-0.1,0.2-0.2,0.3c0,0,0,0.1-0.1,0.1c-0.6,0.9-1.2,1.7-1.7,2.5
	c-0.1,0.2-0.3,0.4-0.4,0.6c-0.2,0.3-0.3,0.5-0.5,0.7c-0.1,0.1-0.2,0.3-0.3,0.4c-1.1,1.6-2,2.9-2.5,3.7c0,0,0,0,0,0
	c-3.1,4.5-6.5,9.5-8,11.5c-2.9,4.1-5.9,6.5-5.9,12.1c-0.1,5.1,4.2,7.9,5.1,8.4c-0.3,0-0.6-0.1-0.8-0.1c-0.3,0-0.6-0.1-0.8-0.1
	c-0.3,0-0.5-0.1-0.8-0.1c-0.2,0-0.5-0.1-0.7-0.1c-0.2,0-0.4-0.1-0.6-0.1c-0.1,0-0.2,0-0.3-0.1c-0.3-0.1-0.6-0.1-0.9-0.2
	c-0.2-0.1-0.4-0.1-0.6-0.2c-1-0.3-1.9-0.5-2.9-0.9c-0.2-0.1-0.5-0.2-0.7-0.2c-0.2-0.1-0.4-0.2-0.7-0.3c-0.3-0.1-0.5-0.2-0.7-0.3
	c-0.1-0.1-0.3-0.1-0.4-0.2c-0.4-0.2-0.9-0.4-1.3-0.6c-0.1-0.1-0.2-0.1-0.4-0.2c-0.1-0.1-0.3-0.2-0.4-0.2c-0.1-0.1-0.2-0.1-0.3-0.2
	c-0.6-0.4-1.2-0.7-1.7-1.1c-0.1-0.1-0.2-0.2-0.3-0.3c-0.6-0.5-1.2-1-1.7-1.6c-0.1-0.1-0.1-0.2-0.2-0.3c-0.1-0.1-0.1-0.2-0.2-0.3
	c-0.1-0.1-0.2-0.2-0.2-0.3c0-0.1-0.1-0.1-0.1-0.2c-0.1-0.1-0.1-0.2-0.2-0.3c0-0.1-0.1-0.1-0.1-0.2c0-0.1-0.1-0.1-0.1-0.2
	c0-0.1,0-0.1-0.1-0.2c0,0,0-0.1,0-0.1c0,0,0-0.1-0.1-0.1c0,0,0-0.1,0-0.1c0-0.1,0-0.1-0.1-0.2c0-0.1,0-0.1,0-0.2
	c-0.4-1.9,0.1-3.6,1-4.9c1.5,1.2,2.9,1.4,3.7,1c0.9-0.5,2.9-0.6,1.5-5.3c-0.1-0.3-0.2-0.7-0.4-1.1c-0.3-1-0.5-1.9-0.5-2.8
	c-0.1-3.2,1.9-5.4,3.7-6.6c2.2,1.8,5.1,1.1,6.2,0.9c1.1-0.2,0.4-0.7-1.1-3.4c3.4-1.3,7.8-2.8,9.4-3.6C36.3,23.4,43.4,19.2,43.4,19.2
	z"/>
<path class="st2" d="M42.8,20.1c-0.6,0.9-1.2,1.7-1.7,2.5C41.6,21.8,42.2,20.9,42.8,20.1z"/>
<path class="st3" d="M25.4,31.5c-1.1,0.2-4,1-6.2-0.9c0.4-0.3,0.8-0.6,1.2-0.8c0.7-0.4,2.2-1,4-1.7C25.8,30.8,26.5,31.3,25.4,31.5z"
	/>
<path class="st2" d="M42.9,20c-1,1.4-3.1,4.6-5.5,8c0.5-0.8,1.4-2.1,2.5-3.7c0.1-0.1,0.2-0.3,0.3-0.4c0.2-0.2,0.3-0.5,0.5-0.7
	c0.1-0.2,0.3-0.4,0.4-0.6C41.6,21.8,42.2,20.9,42.9,20C42.8,20,42.9,20,42.9,20z"/>
<path class="st1" d="M36.9,56.1c-0.1,0.1-1.7,1.2-1.9,4.3c-2.2,0-4.3-0.1-6.2-0.3C31.7,57.6,36.7,56.2,36.9,56.1z"/>
<path class="st3" d="M10.5,51.4c0,0.1,0.1,0.1,0.1,0.2C8,46.8,0,38.9,0,38.9l3.8,0.2c0,0,1.9-0.6,2.6-0.1c0.8,0.4,1.5,2.5,3.4,5
	c0.4,0.6,0.9,1.1,1.4,1.4c-0.9,1.4-1.5,3-1,4.9c0,0.1,0,0.1,0,0.2c0,0.1,0,0.1,0.1,0.2c0,0,0,0.1,0,0.1c0,0,0,0.1,0.1,0.1
	c0,0,0,0.1,0,0.1c0,0.1,0,0.1,0.1,0.2C10.5,51.3,10.5,51.4,10.5,51.4z"/>
<path class="st3" d="M25.1,63.6c-1.7,6,7.5,16.1,7.8,16.4c-0.3-0.3-10.3-8.3-12.9-10.1c-2.6-1.8-9.5-6.6-11.4-11.1
	c-1.9-4.5,2.1-7.2,2.1-7.2c0.1,0.1,0.1,0.2,0.2,0.3c0,0.1,0.1,0.1,0.1,0.2c0.1,0.1,0.2,0.2,0.2,0.3c0.1,0.1,0.1,0.2,0.2,0.3
	c0.1,0.1,0.1,0.2,0.2,0.3c0.5,0.5,1,1.1,1.7,1.6c0.1,0.1,0.2,0.2,0.3,0.3c0.5,0.4,1.1,0.7,1.7,1.1c0.1,0.1,0.2,0.1,0.3,0.2
	c0.1,0.1,0.3,0.2,0.4,0.2c0.1,0.1,0.2,0.1,0.4,0.2c0.4,0.2,0.8,0.4,1.3,0.6c0.1,0.1,0.3,0.1,0.4,0.2c0.2,0.1,0.5,0.2,0.7,0.3
	c0.2,0.1,0.4,0.2,0.7,0.3c0.2,0.1,0.5,0.2,0.7,0.2c0.9,0.3,1.9,0.6,2.9,0.9c0.2,0.1,0.4,0.1,0.6,0.2c0.3,0.1,0.6,0.1,0.9,0.2
	c0.1,0,0.2,0,0.3,0.1c0.2,0,0.4,0.1,0.6,0.1c0.2,0,0.5,0.1,0.7,0.1c0.3,0,0.5,0.1,0.8,0.1c0.3,0,0.6,0.1,0.8,0.1
	c0.3,0,0.6,0.1,0.8,0.1c0.1,0.1,0.1,0.1,0.1,0.1c0,0,0,0,0.1-0.1c2,0.2,4.1,0.3,6.2,0.3c0,0.4,0,0.9,0,1.4c0.3,4.3,8.9,5.8,8.9,5.8
	C33.7,70.7,25.1,63.6,25.1,63.6z"/>
</svg>
