<?xml version="1.0" encoding="utf-8"?>
<!-- Generator: Adobe Illustrator 25.4.1, SVG Export Plug-In . SVG Version: 6.00 Build 0)  -->
<svg version="1.1" id="Layer_1" xmlns="http://www.w3.org/2000/svg" xmlns:xlink="http://www.w3.org/1999/xlink" x="0px" y="0px"
	 viewBox="0 0 202.9 80" style="enable-background:new 0 0 202.9 80;" xml:space="preserve">
<style type="text/css">
	.st0{fill:#2A4A9D;}
	.st1{fill:#4AAB40;}
	.st2{opacity:0.48;fill:#AED6E2;}
	.st3{fill:#F4CE00;}
</style>
<g>
	<g>
		<polygon class="st0" points="198.4,29.6 198.4,45.2 189.6,29.6 185.4,29.6 185.4,53 189.6,53 189.6,37.9 198.4,53 202.6,53 
			202.6,29.6 		"/>
		<path class="st0" d="M173.5,29.6H170h-0.7L161.1,53h4.2l1.8-5.2h9.3l1.8,5.2h4.2l-8.2-23.4H173.5z M168.5,44l3.3-9.3L175,44H168.5
			z"/>
		<path class="st0" d="M158.2,29.6H154v15.2c0,1.3-0.5,4.7-4.7,4.7c-4.1,0-4.2-4.7-4.2-4.7V29.6H141v13.8c0,0-1,10,8.6,10
			s8.6-8.7,8.6-8.7V29.6z"/>
		<path class="st0" d="M136.1,29.6h-4.2v15.2c0,0,0,4.8-2.9,4.8c-2.9,0-2.7-4.1-2.7-4.1l-4,0.4c0,0-0.9,7.7,6.9,7.7s6.9-8.8,6.9-8.8
			V29.6z"/>
	</g>
	<g>
		<rect x="90.9" y="29.6" class="st0" width="2.8" height="23.4"/>
		<path class="st0" d="M78.4,29.6h-1.9h-0.9L67.5,53h2.8l2.4-7h9.6l2.5,7h2.8l-8.4-23.4H78.4z M73.5,43.7l3.9-11.3l4,11.3H73.5z"/>
		<path class="st0" d="M113.1,44.8c-0.7-0.9-2.6-2.2-2.6-2.2l-0.3-0.1v0c2-0.4,6.1-1.8,6.1-6.4c0-6.2-6.1-6.4-6.1-6.4h-8.5h-2.4
			h-0.5V53h2.8V42.6h4.4c0,0,2.2,0.4,3.6,2.6c1.4,2.2,4.8,7.9,4.9,7.9c0.1,0,3.3,0,3.3,0S113.8,45.7,113.1,44.8z M101.8,40.1v-7.9
			h8.5c0,0,3.3,0.9,3.3,4.3s-4.3,3.7-4.3,3.7H101.8z"/>
	</g>
	<path class="st0" d="M14.9,46.4c-0.8,0.4-2.2,0.2-3.7-1c1.5-2.2,3.9-3.6,5.2-4.3C17.8,45.8,15.8,46,14.9,46.4z"/>
	<path class="st0" d="M19.2,30.6c-1.7,1.2-3.7,3.4-3.7,6.6c-1.5-3-3.6-7.1-4.4-8.7c-1.2-2.7-3.7-9.2-3.7-9.2s1.9,1.1,2.5,1.5
		c0.6,0.4,1.9,0.1,3.3,0.8c1.4,0.7,2.6,4.9,4.9,8C18.6,30,18.9,30.4,19.2,30.6z"/>
	<path class="st0" d="M56.9,0c0,0-7.7,10.8-13.5,19.2c0,0-7.1,4.2-9.6,5.4c-1.7,0.8-6,2.3-9.4,3.6c-0.2-0.3-0.3-0.6-0.5-0.9
		c-1.8-3.4-1.3-7.2-1.3-7.2c1.4-5.4,6.6-6.6,14.4-9.5C44.9,7.7,56.9,0,56.9,0z"/>
	<path class="st0" d="M45.2,59.1c-3.5,0.8-7,1.2-10.3,1.2c0.2-3.1,1.8-4.2,1.9-4.3c-0.2,0.1-5.2,1.5-8.2,4c-0.1,0-0.1,0-0.2,0
		c-0.8-0.5-5.1-3.4-5.1-8.4c0.1-5.6,3-7.9,5.9-12.1c1.5-2.1,4.9-7,8-11.5c-0.2,0.4-0.4,0.6-0.4,0.7c-0.8,1.7-1.3,4.4-0.8,6.6
		c0.5,2.1,4.3,7.4,9.3,7c5-0.4,12.4-5.8,12.5-5.9c-0.1,0.2-2.8,5.4-3.3,7.3c-0.5,1.9,5.4,5.6,5.4,5.6s-11.9-1.7-19.9-2.1
		c-8-0.4-14.1-1.9-14.5-1.9C26.8,52.8,45.2,59.1,45.2,59.1z"/>
	<path class="st1" d="M43.4,19.2C43.4,19.2,43.4,19.2,43.4,19.2C43.4,19.2,43.4,19.2,43.4,19.2c-0.1,0.1-0.1,0.1-0.1,0.1
		c0,0.1-0.1,0.1-0.1,0.2c0,0.1-0.1,0.1-0.1,0.2c-0.1,0.1-0.1,0.2-0.2,0.3c0,0,0,0.1-0.1,0.1c-0.6,0.9-1.2,1.7-1.7,2.5
		c-0.1,0.2-0.3,0.4-0.4,0.6c-0.2,0.3-0.3,0.5-0.5,0.7c-0.1,0.1-0.2,0.3-0.3,0.4c-1.1,1.6-2,2.9-2.5,3.7c0,0,0,0,0,0
		c-3.1,4.5-6.5,9.5-8,11.5c-2.9,4.1-5.9,6.5-5.9,12.1c-0.1,5.1,4.2,7.9,5.1,8.4c-0.3,0-0.6-0.1-0.8-0.1c-0.3,0-0.6-0.1-0.8-0.1
		c-0.3,0-0.5-0.1-0.8-0.1c-0.2,0-0.5-0.1-0.7-0.1c-0.2,0-0.4-0.1-0.6-0.1c-0.1,0-0.2,0-0.3-0.1c-0.3-0.1-0.6-0.1-0.9-0.2
		c-0.2-0.1-0.4-0.1-0.6-0.2c-1-0.3-1.9-0.5-2.9-0.9c-0.2-0.1-0.5-0.2-0.7-0.2c-0.2-0.1-0.4-0.2-0.7-0.3c-0.3-0.1-0.5-0.2-0.7-0.3
		c-0.1-0.1-0.3-0.1-0.4-0.2c-0.4-0.2-0.9-0.4-1.3-0.6c-0.1-0.1-0.2-0.1-0.4-0.2c-0.1-0.1-0.3-0.2-0.4-0.2c-0.1-0.1-0.2-0.1-0.3-0.2
		c-0.6-0.4-1.2-0.7-1.7-1.1c-0.1-0.1-0.2-0.2-0.3-0.3c-0.6-0.5-1.2-1-1.7-1.6c-0.1-0.1-0.1-0.2-0.2-0.3c-0.1-0.1-0.1-0.2-0.2-0.3
		c-0.1-0.1-0.2-0.2-0.2-0.3c0-0.1-0.1-0.1-0.1-0.2c-0.1-0.1-0.1-0.2-0.2-0.3c0-0.1-0.1-0.1-0.1-0.2c0-0.1-0.1-0.1-0.1-0.2
		c0-0.1,0-0.1-0.1-0.2c0,0,0-0.1,0-0.1c0,0,0-0.1-0.1-0.1c0,0,0-0.1,0-0.1c0-0.1,0-0.1-0.1-0.2c0-0.1,0-0.1,0-0.2
		c-0.4-1.9,0.1-3.6,1-4.9c1.5,1.2,2.9,1.4,3.7,1c0.9-0.5,2.9-0.6,1.5-5.3c-0.1-0.3-0.2-0.7-0.4-1.1c-0.3-1-0.5-1.9-0.5-2.8
		c-0.1-3.2,1.9-5.4,3.7-6.6c2.2,1.8,5.1,1.1,6.2,0.9c1.1-0.2,0.4-0.7-1.1-3.4c3.4-1.3,7.8-2.8,9.4-3.6
		C36.3,23.4,43.4,19.2,43.4,19.2z"/>
	<path class="st2" d="M42.8,20.1c-0.6,0.9-1.2,1.7-1.7,2.5C41.6,21.8,42.2,20.9,42.8,20.1z"/>
	<path class="st3" d="M25.4,31.5c-1.1,0.2-4,1-6.2-0.9c0.4-0.3,0.8-0.6,1.2-0.8c0.7-0.4,2.2-1,4-1.7C25.8,30.8,26.5,31.3,25.4,31.5z
		"/>
	<path class="st2" d="M42.9,20c-1,1.4-3.1,4.6-5.5,8c0.5-0.8,1.4-2.1,2.5-3.7c0.1-0.1,0.2-0.3,0.3-0.4c0.2-0.2,0.3-0.5,0.5-0.7
		c0.1-0.2,0.3-0.4,0.4-0.6C41.6,21.8,42.2,20.9,42.9,20C42.8,20,42.9,20,42.9,20z"/>
	<path class="st1" d="M36.9,56.1c-0.1,0.1-1.7,1.2-1.9,4.3c-2.2,0-4.3-0.1-6.2-0.3C31.7,57.6,36.7,56.2,36.9,56.1z"/>
	<path class="st3" d="M10.5,51.4c0,0.1,0.1,0.1,0.1,0.2C8,46.8,0,38.9,0,38.9l3.8,0.2c0,0,1.9-0.6,2.6-0.1c0.8,0.4,1.5,2.5,3.4,5
		c0.4,0.6,0.9,1.1,1.4,1.4c-0.9,1.4-1.5,3-1,4.9c0,0.1,0,0.1,0,0.2c0,0.1,0,0.1,0.1,0.2c0,0,0,0.1,0,0.1c0,0,0,0.1,0.1,0.1
		c0,0,0,0.1,0,0.1c0,0.1,0,0.1,0.1,0.2C10.5,51.3,10.5,51.4,10.5,51.4z"/>
	<path class="st3" d="M25.1,63.6c-1.7,6,7.5,16.1,7.8,16.4c-0.3-0.3-10.3-8.3-12.9-10.1c-2.6-1.8-9.5-6.6-11.4-11.1
		c-1.9-4.5,2.1-7.2,2.1-7.2c0.1,0.1,0.1,0.2,0.2,0.3c0,0.1,0.1,0.1,0.1,0.2c0.1,0.1,0.2,0.2,0.2,0.3c0.1,0.1,0.1,0.2,0.2,0.3
		c0.1,0.1,0.1,0.2,0.2,0.3c0.5,0.5,1,1.1,1.7,1.6c0.1,0.1,0.2,0.2,0.3,0.3c0.5,0.4,1.1,0.7,1.7,1.1c0.1,0.1,0.2,0.1,0.3,0.2
		c0.1,0.1,0.3,0.2,0.4,0.2c0.1,0.1,0.2,0.1,0.4,0.2c0.4,0.2,0.8,0.4,1.3,0.6c0.1,0.1,0.3,0.1,0.4,0.2c0.2,0.1,0.5,0.2,0.7,0.3
		c0.2,0.1,0.4,0.2,0.7,0.3c0.2,0.1,0.5,0.2,0.7,0.2c0.9,0.3,1.9,0.6,2.9,0.9c0.2,0.1,0.4,0.1,0.6,0.2c0.3,0.1,0.6,0.1,0.9,0.2
		c0.1,0,0.2,0,0.3,0.1c0.2,0,0.4,0.1,0.6,0.1c0.2,0,0.5,0.1,0.7,0.1c0.3,0,0.5,0.1,0.8,0.1c0.3,0,0.6,0.1,0.8,0.1
		c0.3,0,0.6,0.1,0.8,0.1c0.1,0.1,0.1,0.1,0.1,0.1c0,0,0,0,0.1-0.1c2,0.2,4.1,0.3,6.2,0.3c0,0.4,0,0.9,0,1.4c0.3,4.3,8.9,5.8,8.9,5.8
		C33.7,70.7,25.1,63.6,25.1,63.6z"/>
</g>
</svg>
