<?xml version="1.0" encoding="utf-8"?>
<!-- Generator: Adobe Illustrator 25.4.1, SVG Export Plug-In . SVG Version: 6.00 Build 0)  -->
<svg version="1.1" id="Layer_2_00000159471598350358213750000014612203606435250611_"
	 xmlns="http://www.w3.org/2000/svg" xmlns:xlink="http://www.w3.org/1999/xlink" x="0px" y="0px" viewBox="0 0 89.7 80"
	 style="enable-background:new 0 0 89.7 80;" xml:space="preserve">
<style type="text/css">
	.st0{fill:#10453B;}
</style>
<g>
	<path id="path4" class="st0" d="M52.8,0c1.2,6.1,2.3,12.3,3.4,18.3c1.4,7.1,2.8,13.2,4.2,18.3c6.5,23.1,16,37.2,28.3,42.6h-6.8
		c-4.8,0-8.4-0.9-11.1-2.7c-2.6-1.7-5.4-4.4-8.4-8c-4.8-5.8-7.3-8.8-7.4-8.9c-6.4-6.8-14.8-11.8-25.2-14.9l-3.1,3.5
		c-3.7,4.4-7.8,8.5-12.3,12.6c-5,4.4-8.7,6.7-11.3,6.7c-1.8,0-2.8-0.5-3-1.6L0,65.6l0.1-1c0.1-1.5,0.5-2.4,1.5-2.7
		c7.3-4.2,11.5-6.7,12.9-7.6c3.5-2.3,7.5-5.7,12.3-10.4c-2.7-0.6-5.3-1-7.6-1c-2.9,0-5.8,0.5-8.5,1.7c-0.5,0.3-1.4,0.6-2.5,1.2
		c3.1-2.8,7.1-4.4,12.2-4.5h0.6h0.5c2.2,0,4.5,0.3,6.9,0.8c7.7-9.2,14-18.6,18.9-28.4C49.7,8.4,51.5,4.1,52.8,0L52.8,0z M53.9,51.9
		c-1-2.1-2.1-5.4-3.2-10.1c-1.6-6.9-3-14.4-4-22.7c-3.5,7.3-8.7,15-15.5,23.2C41.3,44.8,48.9,48,53.9,51.9z"/>
	<path id="path6" class="st0" d="M53.3,0.4l-0.5,0.1c1.2,6.1,2.3,12.3,3.4,18.3l0,0C57.6,25.9,59,32,60.4,37l0,0
		c6.5,23.1,16,37.4,28.6,42.9l0.2-0.5V79h-6.8c-4.7,0-8.4-0.9-10.9-2.6l0,0c-2.5-1.7-5.4-4.4-8.3-7.9l0,0c-2.4-2.9-4.2-5.1-5.4-6.6
		c-0.6-0.7-1.1-1.3-1.4-1.7c-0.2-0.2-0.3-0.4-0.4-0.5l-0.2-0.2l-0.4,0.4l0.4-0.4c-6.4-6.9-15-11.9-25.5-15c-0.2-0.1-0.4,0-0.5,0.2
		l-3.1,3.5l0,0c-3.7,4.4-7.8,8.5-12.3,12.5l0,0c-2.5,2.2-4.6,3.9-6.4,5s-3.4,1.6-4.5,1.6c-0.9,0-1.5-0.2-1.9-0.4
		c-0.4-0.2-0.5-0.5-0.6-0.9V66l-0.1-0.3l0.1-0.9l0,0c0-0.6,0.2-1.2,0.4-1.5c0.2-0.4,0.5-0.6,0.8-0.8l0,0c7.3-4.2,11.5-6.7,13-7.7
		l0,0c3.5-2.3,7.6-5.8,12.4-10.4c0.1-0.1,0.2-0.3,0.1-0.5c0-0.2-0.2-0.3-0.4-0.4c-2.7-0.6-5.3-1-7.7-1c-3,0-5.9,0.6-8.7,1.8l0,0
		c-0.5,0.3-1.4,0.6-2.5,1.2l0.2,0.5l0.3,0.4c3-2.7,6.9-4.3,11.9-4.4v-0.5v0.5h0.8H22c2.2,0,4.4,0.3,6.8,0.8c0.2,0,0.4,0,0.5-0.2
		c7.7-9.2,14.1-18.7,19-28.5l0,0c2.5-4.8,4.4-9.3,5.6-13.3V0.5V0.5L53.3,0.4l-0.5,0.2L53.3,0.4h-0.5v0.1L53.3,0.4l-0.5-0.1
		c-1.3,4-3.1,8.4-5.5,13.2l0,0c-4.9,9.8-11.2,19.3-18.9,28.3l0.4,0.3l0.1-0.5c-2.5-0.5-4.7-0.8-7-0.8h-0.5h-0.5l0,0
		c-5.2,0.3-9.4,1.8-12.5,4.7c-0.2,0.2-0.2,0.5-0.1,0.6c0.1,0.2,0.4,0.3,0.5,0.2c1.1-0.5,2-0.9,2.5-1.2l0,0c2.7-1.2,5.4-1.7,8.4-1.7
		c2.4,0,4.8,0.3,7.5,1l0.1-0.5L27,43.6c-4.8,4.6-8.9,8.1-12.3,10.4l0,0c-1.4,0.9-5.6,3.5-12.9,7.6L2,61.9l-0.2-0.5
		c-0.5,0.3-1,0.6-1.3,1.2c-0.3,0.5-0.5,1.2-0.5,1.9h0.5H0.1l-0.1,1v0.2l0.1,0.4L0.5,66l-0.5,0.1c0.1,0.7,0.5,1.3,1.1,1.6
		c0.6,0.4,1.4,0.5,2.4,0.5c1.5,0,3.1-0.6,5-1.7c1.9-1.2,4.1-2.8,6.6-5.1l0,0c4.5-4.1,8.7-8.3,12.4-12.6l0,0l3.1-3.5l-0.4-0.3
		l-0.1,0.5c10.4,3.1,18.7,8,25.1,14.8l0,0l0.2-0.2l-0.2,0.2l0,0l0.2-0.2l-0.2,0.2c0,0,0.2,0.3,0.5,0.6c1,1.2,3.3,3.9,6.8,8.3l0,0
		c2.9,3.6,5.7,6.3,8.4,8.1l0.3-0.4l-0.3,0.4c2.7,1.9,6.5,2.8,11.4,2.8h6.8c0.2,0,0.5-0.2,0.5-0.4c0-0.2-0.1-0.5-0.3-0.5
		c-12.2-5.3-21.6-19.3-28.1-42.2l0,0c-1.5-5.1-2.8-11.2-4.2-18.2l-0.5,0.1l0.5-0.1C56.1,12.6,55,6.4,53.8,0.4c0-0.3-0.3-0.4-0.5-0.4
		s-0.5,0.2-0.5,0.5L53.3,0.4L53.3,0.4z M54.5,52.3l0.5-0.2c-1-2-2-5.4-3.1-9.9l0,0c-1.6-6.8-3-14.4-4-22.7c0-0.2-0.2-0.4-0.4-0.4
		s-0.4,0.1-0.5,0.3c-3.5,7.2-8.7,14.9-15.4,23.2c-0.1,0.1-0.1,0.3-0.1,0.5c0.1,0.2,0.2,0.3,0.4,0.3c10.1,2.4,17.5,5.5,22.5,9.5
		c0.2,0.1,0.4,0.1,0.5,0.1c0.2-0.1,0.3-0.3,0.3-0.5v-0.1L55,52.2L54.5,52.3l-0.5,0v0.1L54.5,52.3l0.3-0.3
		c-5.1-4.1-12.7-7.4-22.9-9.7l-0.1,0.5l0.4,0.3c6.8-8.3,12-16.1,15.5-23.3l-0.5-0.2l-0.5,0.1c1,8.3,2.4,15.9,4.1,22.8l0.5-0.1
		l-0.5,0.1c1.1,4.6,2.1,8,3.2,10.2L54.5,52.3l-0.5,0L54.5,52.3z"/>
</g>
</svg>
