<?xml version="1.0" encoding="utf-8"?>
<!-- Generator: Adobe Illustrator 25.4.1, SVG Export Plug-In . SVG Version: 6.00 Build 0)  -->
<svg version="1.1" id="Layer_2_00000159471598350358213750000014612203606435250611_"
	 xmlns="http://www.w3.org/2000/svg" xmlns:xlink="http://www.w3.org/1999/xlink" x="0px" y="0px" viewBox="0 0 485.9 80"
	 style="enable-background:new 0 0 485.9 80;" xml:space="preserve">
<style type="text/css">
	.st0{fill:#10453B;}
	.st1{fill:#DB0819;}
</style>
<g id="layer1">
	<g id="g36" transform="matrix(0.26458333,0,0,0.26458333,-12.673656,-46.417912)">
		<path id="path4" class="st0" d="M227.5,209.4c4,20.5,7.7,41.3,11.3,61.8c4.6,23.9,9.5,44.4,14.1,61.5
			c22,77.7,53.9,125.5,95.5,143.5h-23c-16.2,0-28.5-3.1-37.3-9.2c-8.9-5.8-18.4-15-28.2-26.9c-16.2-19.6-24.5-29.7-24.8-30
			c-21.4-23-49.9-39.8-85.1-50.2l-10.4,11.9c-12.5,14.7-26.3,28.8-41.6,42.5c-16.8,15-29.4,22.6-37.9,22.6c-6.1,0-9.5-1.8-10.1-5.5
			l-0.3-1.2L50,427c0.3-4.9,1.8-8,4.9-9.2c24.5-14.1,38.9-22.6,43.5-25.7c11.6-7.7,25.4-19.3,41.6-35.2c-9.2-2.1-17.8-3.4-25.7-3.4
			c-9.8,0-19.6,1.8-28.8,5.8c-1.8,0.9-4.6,2.1-8.6,4c10.4-9.5,23.9-14.7,41-15.3h2.1h1.8c7.3,0,15.3,0.9,23.3,2.8
			c26-30.9,47.1-62.7,63.7-95.8C217.1,237.9,223.3,223.2,227.5,209.4L227.5,209.4z M231.5,384.5c-3.4-7-7-18.4-10.7-34
			c-5.5-23.3-10.1-48.7-13.5-76.5c-11.9,24.5-29.4,50.5-52.3,78.3C189,360.3,214.7,371.3,231.5,384.5z"/>
		<path id="path6" class="st0" d="M227.5,209.4l-1.5,0.3c4,20.5,7.7,41.3,11.3,61.8l0,0c4.6,23.9,9.5,44.4,14.1,61.5l0,0
			c22,77.7,53.9,126.1,96.4,144.4l0.6-1.5v-1.5h-23c-15.9,0-28.2-3.1-36.7-8.9l0,0c-8.6-5.8-18.1-14.7-27.8-26.6l0,0
			c-8-9.8-14.1-17.1-18.4-22.3c-2.1-2.4-3.7-4.3-4.6-5.8c-0.6-0.6-0.9-1.2-1.2-1.5l-0.6-0.6l-1.2,1.2l1.2-1.2
			c-21.7-23.3-50.5-40.1-86-50.5c-0.6-0.3-1.2,0-1.5,0.6l-10.4,11.9l0,0c-12.5,14.7-26.3,28.8-41.6,42.2l0,0
			c-8.3,7.3-15.6,13.2-21.7,16.8c-6.1,3.7-11.3,5.5-15.3,5.5c-3.1,0-5.2-0.6-6.4-1.2c-1.2-0.6-1.8-1.5-2.1-3.1v-0.3l-0.3-0.9
			l0.3-3.1l0,0c0-2.1,0.6-4,1.2-5.2c0.6-1.2,1.5-2.1,2.8-2.8l0,0c24.5-14.1,38.9-22.6,43.8-26l0,0c11.6-7.7,25.7-19.6,41.9-35.2
			c0.3-0.3,0.6-0.9,0.3-1.5c0-0.6-0.6-0.9-1.2-1.2c-9.2-2.1-17.8-3.4-26-3.4c-10.1,0-19.9,2.1-29.4,6.1l0,0c-1.8,0.9-4.6,2.1-8.6,4
			l0.6,1.5l0.9,1.2c10.1-9.2,23.3-14.4,40.1-15v-1.5v1.5h2.8h1.8c7.3,0,15,0.9,23,2.8c0.6,0,1.2,0,1.5-0.6c26-30.9,47.4-63,64-96.1
			l0,0c8.3-16.2,14.7-31.2,19-44.7V210v-0.3h-1.8L226,210L227.5,209.4H226v0.3L227.5,209.4l-1.5-0.3c-4.3,13.5-10.4,28.2-18.7,44.4
			l0,0c-16.5,33.1-37.6,64.9-63.7,95.5l1.2,0.9l0.3-1.5c-8.3-1.8-15.9-2.8-23.6-2.8h-1.5h-1.8l0,0c-17.4,0.9-31.5,6.1-42.2,15.9
			c-0.6,0.6-0.6,1.5-0.3,2.1c0.3,0.6,1.2,0.9,1.8,0.6c3.7-1.8,6.7-3.1,8.6-4l0,0c9.2-4,18.4-5.8,28.2-5.8c8,0,16.2,0.9,25.4,3.4
			l0.3-1.5l-1.2-1.2c-16.2,15.6-30,27.2-41.6,34.9l0,0c-4.6,3.1-19,11.6-43.5,25.7l0.9,1.2l-0.6-1.5c-1.8,0.9-3.4,2.1-4.3,4
			c-0.9,1.8-1.5,4-1.5,6.4h1.5h-1.5l-0.3,3.4v0.6l0.3,1.2l1.5-0.3l-1.5,0.3c0.3,2.4,1.5,4.3,3.7,5.5c2.1,1.2,4.6,1.5,8,1.5
			c4.9,0,10.4-2.1,16.8-5.8c6.4-4,13.8-9.5,22.3-17.1l0,0c15.3-13.8,29.4-27.8,41.9-42.5l0,0l10.4-11.9l-1.2-0.9l-0.3,1.5
			c34.9,10.4,63,26.9,84.5,49.9l0,0l0.6-0.6l-0.6,0.6l0,0l0.6-0.6l-0.6,0.6c0,0,0.6,0.9,1.8,2.1c3.4,4,11,13.2,23,27.8l0,0
			c9.8,12.2,19.3,21.1,28.5,27.2l0.9-1.2l-0.9,1.2c9.2,6.4,22,9.5,38.3,9.5h23c0.6,0,1.5-0.6,1.5-1.2c0-0.6-0.3-1.5-0.9-1.8
			c-41-17.8-72.8-64.9-94.6-142.3l0,0c-4.9-17.1-9.5-37.6-14.1-61.2l-1.5,0.3l1.5-0.3c-3.7-20.5-7.3-41.3-11.3-61.8
			c0-0.9-0.9-1.2-1.8-1.2c-0.9,0-1.5,0.6-1.5,1.5h1.5L227.5,209.4z M231.5,384.5l1.5-0.6c-3.4-6.7-6.7-18.1-10.4-33.4l0,0
			c-5.5-23-10.1-48.7-13.5-76.5c0-0.6-0.6-1.2-1.2-1.2s-1.2,0.3-1.5,0.9c-11.9,24.2-29.4,50.2-52,78c-0.3,0.3-0.3,0.9-0.3,1.5
			c0.3,0.6,0.6,0.9,1.2,0.9c34,8,59.1,18.7,75.9,32.1c0.6,0.3,1.2,0.3,1.5,0.3c0.6-0.3,0.9-0.9,0.9-1.5v-0.3l-0.3-0.6L231.5,384.5
			l-1.5,0v0.3L231.5,384.5l0.9-0.9c-17.1-13.8-42.8-24.8-77.1-32.7l-0.3,1.5l1.2,0.9c23-27.8,40.4-54.2,52.3-78.7L207,274l-1.5,0.3
			c3.4,27.8,8,53.6,13.8,76.8l1.5-0.3l-1.5,0.3c3.7,15.6,7,26.9,10.7,34.3L231.5,384.5l-1.5,0L231.5,384.5z"/>
		<path id="path8" class="st0" d="M368.6,400.1c-24.5,24.2-39.5,36.4-45.6,36.4c-4,0-5.8-4.6-5.8-13.5c0-6.1,0.9-16.2,2.8-30.9
			c2.1-15.6,4-31.5,6.1-47.4c2.4-21.1,5.8-44.4,9.8-70.1c2.8-18.4,4.3-29.4,4.3-33.4c0-4.6-1.2-6.7-3.4-6.7c-1.8,0-6.7,2.4-14.7,7.3
			c-1.5,0.9-2.8,1.5-3.7,1.5c-1.8,0-2.8-0.9-2.8-2.8c0-2.4,1.5-4.6,4.6-6.4c6.7-3.7,16.5-9.8,28.8-18.4c8.3-5.8,13.8-8.6,16.2-8.6
			c3.1,0,4.9,3.4,4.9,10.4c0,8.6-3.4,31.8-10.1,69.5c-10.4,58.8-15.6,94.9-15.6,108c0,7.7,1.2,11.3,4,11.3c2.4,0,7.3-4,15-11.6
			c2.4-2.4,4.3-3.7,5.8-3.7c1.5,0,2.1,0.9,2.1,2.8C371.4,396.4,370.5,398.2,368.6,400.1"/>
		<path id="path10" class="st0" d="M468.4,371.6c-3.7,15.6-13.8,30.3-30,44.1c-15.6,13.2-29.7,19.9-42.5,19.9
			c-13.2,0-19.6-8.6-19.6-25.4c0-12.2,2.8-32.7,8.3-60.9c7-35.8,11-54.8,11-56.9c1.2-8.6,3.1-19.6,5.5-33.1
			c1.5-9.5,2.4-15.6,2.4-18.4c0-3.4-0.9-5.2-2.8-5.2c-2.1,0-6.7,2.4-14.1,7c-0.3,0.3-0.3-1.2-0.6-4.3c0-0.9,2.4-3.7,7.7-7.3
			c8-5.8,13.2-10.1,15.9-12.5c8.3-7.7,14.4-11.3,18.4-11.3c3.7,0,5.5,3.7,5.5,10.7c0,5.2-1.2,13.8-3.4,26.3c-3.7,22-5.8,34-6.1,35.8
			c-2.1,14.1-4.9,28.2-8.3,41.6c-2.8,11-4,16.8-4,17.4c0,0.6,0,0.6,0.3,0.6c0.6,0,2.1-1.8,4.9-5.2c17.1-21.1,30.9-31.5,41.3-31.5
			c10.4,0,15.6,10.1,15.6,30C473.6,344.4,471.8,356.9,468.4,371.6 M442.7,382.9c3.4-15,5.2-26.6,5.2-35.8c0-11.9-3.1-17.8-8.9-17.8
			c-4.6,0-10.1,3.4-16.5,10.4c-6.4,6.7-11.9,15-16.5,24.5c-4.6,8.9-6.7,19.6-6.7,31.5c0,8.6,1.2,15,3.7,19.3c2.8,4.6,5.8,7,9.5,7
			c5.5,0,11.6-4.9,18.4-14.4C436.9,399.5,440.8,391.2,442.7,382.9"/>
		<path id="path12" class="st0" d="M589.3,402.2c-24.8,21.4-39.5,32.1-44.7,32.1c-3.7,0-5.5-4-5.5-11.9c0-4.6,0.6-12.5,2.1-23.6
			c-2.8,2.8-6.1,6.1-10.1,10.4c-15.9,16.8-28.8,25.1-37.9,25.1c-9.8,0-14.4-8.6-14.4-25.7c0-5.5,0.6-11.6,1.5-18.4
			c3.1-19.9,8.9-37,17.1-51.7c11.3-19.9,26-30.9,43.8-32.4c16.2-1.5,24.8-2.4,25.4-2.4c5.5,0,8.6,1.2,9.8,3.4c1.8,2.1,2.4,4.6,2.1,8
			c-0.6,7.3-3.4,23-8,46.8c-4.3,21.4-6.1,36.7-6.1,46.5c0,2.8,0.6,4.3,1.5,4.3s3.1-1.5,6.4-4.6c4.6-4.3,8.6-7.3,11.3-9.2
			c2.8-2.1,5.2-3.1,6.7-3.1c1.2,0,1.8,0.6,1.8,1.5C592,398.8,591.1,400.4,589.3,402.2 M554.1,321.1c-2.4,0-5.2,0-8.9,0
			c-4.3-0.3-7-0.3-8.3-0.3c-7,0-12.5,2.1-16.5,6.4c-5.2,5.8-9.2,16.5-12.2,32.1c-2.8,14.1-4.3,25.4-4.3,33.7c0,11.6,2.8,17.4,8,17.4
			c4.9,0,11.9-4.9,21.1-14.7c4-4,7.3-8,10.1-11.9c1.2-8.9,2.8-19.9,4-33.1C548,338.2,550.4,328.8,554.1,321.1"/>
		<path id="path14" class="st1" d="M780.5,210c0.3,0,0,4.3-1.5,12.5c-2.1,12.2-3.4,20.2-4,23.9c-0.9,5.2-2.8,8-5.8,8
			c-2.1,0-3.1-1.5-3.1-4.6c0-0.9,0-1.8,0.3-2.8c0.6-2.8,0.9-5.2,0.9-7.3c0-4.9-1.8-8.3-5.2-10.4c-1.8-0.9-5.5-2.1-11-3.1
			c-6.4-1.2-12.2-1.8-17.8-1.8c-12.9,0-22.6,3.4-28.8,9.8c-5.8,6.4-8.6,12.5-8.6,19.3c0,8,4.3,16.2,13.2,25.1c1.2,1.5,8.9,8,23,19.6
			c30.6,25.7,45.9,49,45.9,69.2c0,18.1-13.2,35.5-39.5,52.6c-20.2,12.9-44.4,19.3-72.8,19.3c-19,0-34.3-3.4-45.9-10.4
			c-12.9-8-19-19-18.1-33.7c0.9-16.8,10.7-34.3,29.7-52.6c0.9-0.9,1.8-1.5,2.8-1.5c1.2,0,1.8,0.9,1.8,2.8c0,1.2-0.3,2.4-1.2,3.7
			c-8.6,10.7-12.9,21.4-12.9,32.1c0,21.1,15.3,35.2,45.6,41.9c8.6,1.8,16.8,2.8,24.8,2.8c23.6,0,42.5-8.3,56.9-24.8
			c4-4.6,5.8-9.8,5.8-15.6c0-13.5-13.5-33.1-40.1-59.7c-13.5-13.5-23-23.6-27.8-30.6c-6.7-9.2-10.1-18.1-10.1-26
			c0-9.2,4-19.3,12.2-30.3c13.5-18.4,36.7-27.5,70.1-27.5C764,209.4,771.1,209.7,780.5,210"/>
		<path id="path16" class="st1" d="M859.8,303.4l-2.8,11.3h-27.5c-5.5,33.1-8.3,56.9-8.3,71c0,12.5,2.1,19,6.7,19
			c3.4,0,9.2-4,17.4-12.2c2.4-2.4,4.3-3.4,5.8-3.4c1.2,0,2.1,0.9,2.1,2.8c0,2.1-0.9,4.3-2.8,6.1c-24.8,24.8-41,37.3-48.4,37.3
			c-5.8,0-8.6-6.7-8.6-20.2c0-8.9,2.1-32.1,6.7-69.8c1.5-14.1,3.1-24.2,4-30.3h-22l3.1-11.3h20.5c0.9-5.2,1.8-13.8,3.7-25.7
			c0.6-4,1.8-6.7,3.7-8.3c6.4-4.9,11.3-8.9,14.4-11.9c6.1-5.8,9.8-8.9,10.7-8.9s1.2,0.9,1.2,2.8c0,2.1-1.8,13.8-5.5,35.2
			c-0.6,3.7-1.5,9.2-2.8,16.5L859.8,303.4z"/>
		<path id="path18" class="st1" d="M975.5,402.2c-24.8,21.4-39.5,32.1-44.7,32.1c-3.7,0-5.5-4-5.5-11.9c0-4.6,0.6-12.5,2.1-23.6
			c-2.8,2.8-6.1,6.1-10.1,10.4c-15.9,16.8-28.8,25.1-37.9,25.1c-9.8,0-14.4-8.6-14.4-25.7c0-5.5,0.6-11.6,1.5-18.4
			c3.1-19.9,8.9-37,17.1-51.7c11.3-19.9,26-30.9,43.8-32.4c16.2-1.5,24.8-2.4,25.4-2.4c5.5,0,8.6,1.2,9.8,3.4c1.8,2.1,2.4,4.6,2.1,8
			c-0.6,7.3-3.4,23-8,46.8c-4.3,21.4-6.1,36.7-6.1,46.5c0,2.8,0.6,4.3,1.5,4.3c0.9,0,3.1-1.5,6.4-4.6c4.6-4.3,8.6-7.3,11.3-9.2
			c2.8-2.1,5.2-3.1,6.7-3.1c1.2,0,1.8,0.6,1.8,1.5C978.2,398.8,977.3,400.4,975.5,402.2 M940.3,321.1c-2.4,0-5.2,0-8.9,0
			c-4.3-0.3-7-0.3-8.3-0.3c-7,0-12.5,2.1-16.5,6.4c-5.2,5.8-9.2,16.5-12.2,32.1c-2.8,14.1-4.3,25.4-4.3,33.7c0,11.6,2.8,17.4,8,17.4
			c4.9,0,11.9-4.9,21.1-14.7c4-4,7.3-8,10.1-11.9c1.2-8.9,2.8-19.9,4-33.1C934.2,338.2,936.6,328.8,940.3,321.1"/>
		<path id="path20" class="st1" d="M1081.7,325.1c-18.4,27.5-28.5,41.3-30.3,41.3c-0.3,0-0.3-0.3-0.3-0.9c0-1.2,1.2-5.8,3.7-13.8
			c2.8-8,4-13.5,4-16.5c0-2.4-0.9-3.4-2.4-3.4c-2.8,0-8,4-16.2,12.2c-3.1,3.1-6.4,5.8-10.4,8.3c-6.4,47.7-10.1,71.9-10.7,71.9
			l-25.1,9.8c0.3-0.3,4.6-32.7,12.5-97.6c0.3-1.2,0.3-2.4,0.3-3.7c0-3.1-0.9-4.6-2.4-4.6c-1.2,0-3.7,1.2-7.7,4c-3.7,2.8-6.4,4-7.7,4
			l-2.8,0.6c-1.2,0.3-2.1,0-2.4-0.6c-0.6-1.8,0.3-3.4,2.8-5.2c9.5-6.4,18.7-13.2,28.2-19.6c8-5.2,13.2-8,15.9-8
			c3.1,0,4.6,2.8,4.6,8.6c0,2.8-0.3,6.4-0.9,11l-2.4,16.5c10.1-13.8,18.7-23.3,26-27.8c8.3-5.5,14.7-8.3,19.3-8.3
			c5.5,0,8.3,3.4,8.3,9.8C1084.7,317.7,1083.8,321.7,1081.7,325.1"/>
		<path id="path22" class="st0" d="M1114.7,436.2c-9.5-6.1-16.5-14.7-21.7-25.7c5.5-5.5,14.4-13.8,26.6-24.8
			c4.3,5.2,11.3,14.7,21.1,27.5C1132.2,423.3,1123.3,431,1114.7,436.2"/>
		<path id="path24" class="st0" d="M1258.6,395.2v0.9c0,2.1-2.4,4.6-7,8.3c-4,2.8-8,5.8-11.9,8.6c-16.5,14.1-30.3,21.4-41.9,21.4
			c-15.9,0-24.2-12.5-24.2-37.9c0-4,0.3-8.3,0.6-12.9c2.4-24.8,9.2-44.4,20.5-58.1c11.6-14.7,27.5-22.3,47.7-23.3
			c10.1-0.3,15.3,3.1,15.3,9.8c0,9.2-6.1,20.2-18.7,33.1c-13.8,14.4-26.9,25.1-39.5,32.4c-0.6,19.6,5.5,29.4,18.7,29.4
			c6.4,0,14.1-2.4,23.3-7.3c10.7-5.5,15.6-8.3,15.3-8.3C1257,391.2,1257.7,392.4,1258.6,395.2 M1231.6,339.2
			c3.7-4.6,5.5-8.9,5.5-12.2c0-4.6-2.1-6.7-6.7-6.1H1220c-2.8,0.3-5.2,2.4-7.3,6.4c-2.4,4.6-5.2,13.2-8.9,26
			c-0.9,3.1-1.5,6.7-2.4,11.3c5.5-4.3,11.3-8.6,16.8-12.9C1224.6,346.8,1229.2,342.5,1231.6,339.2"/>
		<path id="path26" class="st0" d="M1343.3,377.7c1.5,3.1,2.4,6.4,2.4,10.1c0,11.3-7.7,23-23,34.9c-4,3.1-9.8,5.8-17.4,8.3
			c-8.3,2.4-15.9,3.7-22.6,3.7c-12.5,0-18.7-4.3-18.7-12.5c0-4.9,2.4-11.3,7-19c4.6-7.3,7.7-11,8.9-11c0.6,0,0.9,0.6,0.9,1.8
			s-0.3,2.4-0.6,3.7c-0.3,1.2-0.6,2.1-0.6,3.4c0,4.6,2.8,8.3,8,11c4.9,2.8,10.7,4.3,17.4,4.3c5.5,0,10.1-0.9,14.1-3.1
			c4.6-2.4,6.7-5.5,6.7-8.9c0-5.2-7-13.8-20.8-25.1c-15.6-12.9-24.8-21.7-27.2-26.6c-0.9-2.1-1.5-4.6-1.5-7c0-9.5,5.8-19,17.1-28.2
			c11.9-9.8,24.5-14.7,37.9-14.7c2.4,0,4.6,0.3,6.7,0.6c4.9,0.9,7.7,4.3,7.7,10.7c0,5.8-1.8,13.5-5.8,23c-0.3-0.3-0.9-0.3-1.5-0.3
			s-1.8,0-3.4,0.3c-1.5,0.3-2.4,0.3-3.1,0.3c-1.5,0-2.4-0.6-2.4-2.1c0-0.9,0.3-2.4,0.9-4.3c0.3-0.9,0.6-1.8,0.6-2.8
			c0-5.2-5.2-8-15.6-8c-4.9,0-9.2,0.6-12.9,2.1c-4.6,1.8-7,4.3-7,7c0,4,6.7,11,19.9,21.4C1330.8,362.7,1340,371.6,1343.3,377.7"/>
		<path id="path28" class="st1" d="M1372.4,175.4c171.7,138.6,275.7-34.6,512,55.1c-261-41.9-433.3,163.1-475.6,208.4
			C1486.9,317.4,1381.3,180.6,1372.4,175.4"/>
		<path id="path30" d="M1372.4,175.4L1372.4,175.4c53.6,43.5,100.4,56.3,146.9,56.3c68.9,0,136.2-28.2,222.2-28.2
			c42.2,0,89.1,6.7,142.6,27.2v-0.3v-0.3c-23.9-4-47.1-5.5-69.8-5.5c-221.9,0-367.5,172.9-406.1,214.2h0.3h0.3
			c20.8-32.4,28.8-66.1,28.8-97.9c0-43.8-14.7-84.2-30-114.5C1392,196.9,1375.8,177.3,1372.4,175.4L1372.4,175.4L1372.4,175.4
			L1372.4,175.4c3.1,2.1,19.3,21.7,34.9,51.7c15.3,30,30,70.4,30,114.2c0,31.8-7.7,65.2-28.8,97.6l0.3,0.3
			c38.3-41.3,183.9-214.2,405.8-214.2c22.3,0,45.6,1.8,69.5,5.5v-0.3c-53.6-20.2-100.4-27.2-142.6-27.2c-86,0-153.6,28.2-222.2,28.2
			C1472.8,231.1,1426,218.3,1372.4,175.4L1372.4,175.4z"/>
		<path id="path32" class="st0" d="M1444.3,248c116.9,94.6,187.9-23.6,348.9,37.6c-177.8-28.5-295.3,111.1-324.1,142
			C1522.4,344.7,1450.5,251.3,1444.3,248"/>
		<path id="path34" class="st0" d="M1444.3,248L1444.3,248c36.4,29.7,68.6,38.3,100.1,38.3c46.8,0,92.7-19.3,151.5-19.3
			c28.8,0,60.6,4.6,97,18.4l0,0l0,0c-16.2-2.8-32.1-4-47.4-4c-151.2,0-250.6,117.8-276.7,146l0,0l0,0c14.4-22,19.6-45,19.6-66.7
			C1488.7,301.2,1448.9,250.4,1444.3,248L1444.3,248L1444.3,248L1444.3,248c4.3,2.8,44.4,53.6,44.1,112.9c0,21.7-5.2,44.4-19.6,66.7
			l0.3,0.3c26-28.2,125.5-146,276.3-146c15.3,0,31.2,1.2,47.4,4v-0.3c-36.4-13.8-68.6-18.4-97.3-18.4c-58.8,0-104.7,19.3-151.5,19.3
			C1512.9,285.9,1480.8,277.3,1444.3,248L1444.3,248z"/>
	</g>
</g>
</svg>
