<?xml version="1.0" encoding="utf-8"?>
<!-- Generator: Adobe Illustrator 25.4.1, SVG Export Plug-In . SVG Version: 6.00 Build 0)  -->
<svg version="1.1" xmlns="http://www.w3.org/2000/svg" xmlns:xlink="http://www.w3.org/1999/xlink" x="0px" y="0px"
	 viewBox="0 0 539.08 80" style="enable-background:new 0 0 539.08 80;" xml:space="preserve">
<style type="text/css">
	.st0{fill:#0081C6;}
</style>
<g id="Layer_2">
</g>
<g id="Layer_1">
	<g>
		<g>
			<path class="st0" d="M30.73,31.83c-0.39-0.59-0.87-1.1-1.45-1.47c-0.56-0.35-1.18-0.59-1.84-0.73c-0.62-0.12-1.23-0.18-1.83-0.18
				c-0.62,0-1.26,0.08-1.94,0.21c-0.71,0.14-1.39,0.39-2.06,0.73c-0.68,0.34-1.32,0.82-1.91,1.4c-0.61,0.59-1.13,1.34-1.6,2.26
				L0.18,66.57C0.07,66.8,0,67.09,0,67.39c-0.01,0.34,0.11,0.73,0.41,0.98c0.3,0.24,0.64,0.32,1,0.32h3.71
				c0.39,0,0.75-0.12,1.07-0.33c0.33-0.21,0.58-0.5,0.73-0.84l6.17-12.62h14.89l1.47,12.47c0.06,0.32,0.18,0.61,0.34,0.85
				c0.24,0.34,0.66,0.48,1.04,0.48h3.69c0.43,0,0.87-0.12,1.18-0.44s0.42-0.75,0.42-1.2v-0.26l-4.59-32.61
				C31.36,33.25,31.12,32.46,30.73,31.83z M15.64,49.63l7.74-13.96c0.3-0.55,1.04-0.66,1.49-0.64c0.95,0.04,1.05,0.64,1.05,0.64
				l1.63,13.96H15.64z M65.07,39.38c-1-1-2.23-1.78-3.66-2.36c-1.47-0.56-3.17-0.86-5.13-0.86c-4.44,0-8.14,1.23-10.98,3.72
				c-2.85,2.49-4.74,6.06-5.68,10.65l-0.79,3.94c-0.24,1.28-0.39,2.48-0.39,3.61c0,1.97,0.36,3.69,1.11,5.1
				c0.72,1.4,1.67,2.53,2.88,3.4c1.17,0.87,2.52,1.51,4.02,1.91c1.47,0.39,2.99,0.57,4.52,0.57h0.03c2.08,0,3.93-0.09,5.56-0.25
				c1.62-0.17,3.34-0.41,5.18-0.71c0.56-0.09,1.01-0.21,1.38-0.56c0.3-0.3,0.45-0.71,0.54-1.18l0.37-1.92v-0.06v-0.28
				c0.02-0.31-0.14-0.68-0.43-0.88c-0.28-0.2-0.58-0.25-0.91-0.25h-0.36c-1.49,0.2-3.14,0.37-5.03,0.54
				c-1.88,0.15-3.72,0.24-5.49,0.24c-2.28,0-4.01-0.45-5.24-1.31c-1.18-0.83-1.78-2.12-1.8-4.15c0-0.51,0.03-1.02,0.09-1.58
				c0.06-0.53,0.18-1.08,0.37-1.7l0.04-0.28h19.95c0.53,0,1.05-0.14,1.39-0.54c0.25-0.32,0.41-0.71,0.51-1.15l0.48-2.38
				c0.25-1.22,0.39-2.4,0.39-3.49c0-1.52-0.23-2.95-0.69-4.3C66.79,41.56,66.05,40.37,65.07,39.38z M61.17,49.87H46.21
				c0.28-1.12,0.65-2.13,1.13-3.07c0.54-1.04,1.2-1.94,2-2.72c0.77-0.78,1.67-1.38,2.7-1.8c1.01-0.42,2.16-0.64,3.44-0.64
				c4.22,0.09,5.92,1.67,6,5.41C61.49,47.9,61.38,48.84,61.17,49.87z M89.36,40.22l0.43-2.37l0.01-0.06v-0.28
				c0.01-0.39-0.17-0.82-0.51-1.05c-0.34-0.24-0.72-0.31-1.15-0.31h-0.12c-1.47,0-2.95,0.18-4.45,0.53
				c-1.21,0.28-2.46,0.83-3.75,1.63v-0.01v-0.29c0-0.4-0.1-0.79-0.4-1.08c-0.3-0.29-0.69-0.39-1.08-0.39h-2.85
				c-0.45,0-0.9,0.17-1.26,0.47c-0.33,0.28-0.58,0.66-0.69,1.07l-5.43,28.82v0.29c0,0.4,0.11,0.79,0.4,1.08
				c0.28,0.29,0.67,0.39,1.07,0.39h2.99c0.46,0.01,0.9-0.17,1.27-0.45c0.36-0.29,0.64-0.66,0.75-1.09l4.4-23.4
				c1.38-0.77,2.64-1.31,3.8-1.62c1.22-0.32,2.69-0.48,4.38-0.48h0.19C88.31,41.69,89.21,41.16,89.36,40.22z M113.99,39.32
				c-1.01-0.99-2.27-1.77-3.72-2.32c-1.48-0.55-3.17-0.83-5.09-0.83c-9.24-0.06-14.98,4.85-16.67,14.21l-0.78,4.29
				c-0.09,0.55-0.17,1.07-0.23,1.59c-0.07,0.54-0.09,1.07-0.09,1.62c0,1.63,0.25,3.14,0.76,4.51c0.51,1.37,1.27,2.56,2.26,3.56
				c0.99,1,2.24,1.77,3.7,2.34c1.47,0.54,3.15,0.82,5.03,0.82c2.43,0,4.63-0.32,6.53-0.99c1.92-0.66,3.56-1.61,4.95-2.85
				c1.37-1.22,2.49-2.73,3.34-4.48c0.85-1.74,1.49-3.7,1.91-5.88l0.79-4.29c0.09-0.55,0.15-1.08,0.22-1.62
				c0.07-0.54,0.09-1.09,0.09-1.64c0-1.6-0.24-3.08-0.74-4.45C115.76,41.51,115,40.32,113.99,39.32z M110.44,48.75
				c-0.03,0.51-0.11,1.04-0.23,1.63l-0.78,4.3c-0.24,1.34-0.64,2.56-1.19,3.65c-0.56,1.09-1.24,2.03-2.05,2.81
				c-0.79,0.77-1.71,1.39-2.75,1.83c-1.04,0.43-2.18,0.66-3.45,0.66c-2.3,0-3.86-0.5-4.71-1.35c-0.89-0.87-1.38-2.23-1.38-4.16
				c0-0.94,0.11-2.02,0.35-3.23l0.79-4.29c0.51-2.82,1.59-4.98,3.21-6.58c1.61-1.58,3.61-2.37,6.17-2.38c2.3,0,3.84,0.52,4.71,1.41
				c0.9,0.91,1.39,2.28,1.39,4.22C110.5,47.74,110.48,48.24,110.44,48.75z M131.57,28.22c0-0.37-0.09-0.76-0.37-1.04
				c-0.29-0.28-0.67-0.37-1.04-0.37h-3.17c-0.94-0.07-1.78,0.61-1.89,1.53l-7.29,38.59v0.29c0,0.39,0.09,0.77,0.37,1.07
				c0.26,0.29,0.65,0.4,1.01,0.4h3.19c0.45,0.01,0.9-0.18,1.23-0.48c0.31-0.29,0.54-0.65,0.65-1.06l7.3-38.65L131.57,28.22
				L131.57,28.22z M140.61,36.57h-2.91c-0.45,0-0.9,0.17-1.27,0.46c-0.36,0.29-0.63,0.66-0.75,1.09l-5.43,28.82v0.29
				c0,0.4,0.12,0.8,0.43,1.09c0.3,0.28,0.69,0.37,1.09,0.37h2.94c0.46,0,0.9-0.17,1.27-0.45c0.36-0.29,0.63-0.65,0.74-1.09
				l5.43-28.82v-0.29c0-0.4-0.11-0.82-0.43-1.09C141.43,36.66,141.03,36.57,140.61,36.57z M137.15,33.58h3.28
				c0.4,0,0.77-0.07,1.1-0.3c0.21-0.15,0.47-0.39,0.8-0.69l6.14-5.14c0.26-0.24,0.48-0.52,0.5-0.94c-0.01-0.71-0.75-0.89-1.17-0.91
				h-4.02c-0.43,0.02-0.83,0.09-1.15,0.31c-0.22,0.17-0.48,0.39-0.82,0.69l-5.18,5.03c-0.28,0.28-0.52,0.58-0.54,1.04
				C136.1,33.28,136.76,33.58,137.15,33.58z M170.48,38.89c-0.8-0.86-1.82-1.52-3.04-2c-1.24-0.47-2.7-0.71-4.37-0.71
				c-2.12,0-3.95,0.26-5.54,0.83c-1.19,0.42-2.36,0.9-3.53,1.45l0.02-0.11l0.01-0.04v-0.26c0.01-0.35-0.12-0.69-0.33-0.96
				c-0.28-0.37-0.73-0.52-1.15-0.51h-2.99c-0.45,0-0.9,0.18-1.24,0.47c-0.34,0.28-0.58,0.66-0.69,1.08l-5.43,28.82v0.29
				c-0.01,0.34,0.11,0.69,0.32,0.96c0.26,0.36,0.71,0.51,1.12,0.51h3.01c0.46,0.01,0.9-0.17,1.27-0.45
				c0.36-0.29,0.63-0.65,0.74-1.08l4.46-23.53c1.8-0.79,3.3-1.3,4.48-1.56c1.27-0.28,2.46-0.41,3.59-0.41
				c2.18-0.02,3.55,0.4,4.11,0.97c0.64,0.63,0.98,1.5,0.99,2.75c0,0.42-0.03,0.89-0.09,1.42c-0.06,0.54-0.13,1.07-0.22,1.59
				l-3.16,18.53v0.26c0,0.4,0.11,0.82,0.42,1.1c0.31,0.28,0.71,0.37,1.11,0.37h2.93c0.45,0.01,0.89-0.18,1.26-0.46
				c0.36-0.29,0.63-0.65,0.74-1.08l3.17-18.53c0.21-1.08,0.31-2.14,0.31-3.15c0.01-1.26-0.18-2.45-0.55-3.56
				C171.83,40.74,171.25,39.74,170.48,38.89z M201.22,39.38c-0.99-1-2.23-1.78-3.66-2.36c-1.47-0.56-3.17-0.86-5.13-0.86
				c-4.44-0.01-8.13,1.22-10.97,3.71c-2.85,2.49-4.74,6.06-5.68,10.65l-0.79,3.94c-0.25,1.28-0.39,2.48-0.39,3.6
				c0,1.98,0.35,3.7,1.1,5.1c0.73,1.39,1.69,2.53,2.86,3.4c1.17,0.87,2.53,1.5,4.02,1.91c1.48,0.39,3.01,0.57,4.55,0.57
				c2.09,0,3.94-0.09,5.57-0.25c1.61-0.18,3.34-0.41,5.16-0.72c0.57-0.09,1.02-0.21,1.39-0.56c0.3-0.31,0.44-0.71,0.54-1.18
				l0.37-1.93v-0.04V64.1c0.02-0.31-0.14-0.68-0.43-0.88c-0.29-0.2-0.58-0.25-0.93-0.25h-0.36c-1.49,0.2-3.14,0.37-5.03,0.54
				c-1.88,0.15-3.72,0.24-5.48,0.24c-2.29,0-4.02-0.45-5.25-1.31c-1.17-0.83-1.78-2.12-1.78-4.15c0-0.51,0.03-1.02,0.09-1.56
				c0.06-0.53,0.18-1.09,0.37-1.7l0.08-0.28h19.94c0.53,0,1.04-0.14,1.38-0.54c0.25-0.32,0.41-0.71,0.52-1.13l0.48-2.38
				c0.24-1.23,0.37-2.4,0.37-3.49c0-1.52-0.23-2.95-0.69-4.31C202.95,41.56,202.23,40.39,201.22,39.38z M197.32,49.87h-14.96
				c0.28-1.12,0.65-2.13,1.13-3.07c0.55-1.04,1.2-1.94,1.99-2.72c0.78-0.78,1.69-1.38,2.71-1.81c1.01-0.42,2.16-0.63,3.43-0.63
				c4.22,0.09,5.93,1.67,6.01,5.41C197.64,47.9,197.54,48.84,197.32,49.87z M235.38,38.89c-0.02-0.84-0.77-1.27-1.55-1.4
				c-1.54-0.39-3.26-0.68-5.14-0.94c-1.89-0.24-3.76-0.36-5.61-0.36c-1.87,0-3.68,0.22-5.44,0.66c-1.76,0.45-3.38,1.2-4.84,2.23
				c-1.45,1.05-2.72,2.41-3.77,4.11c-1.06,1.71-1.83,3.81-2.32,6.3l-1.09,5.57c-0.25,1.19-0.37,2.36-0.37,3.49
				c0,1.78,0.25,3.35,0.79,4.68c0.53,1.33,1.26,2.42,2.17,3.29s1.98,1.51,3.22,1.93c1.2,0.41,2.48,0.63,3.82,0.63h0.03
				c1.04,0,1.98-0.07,2.83-0.21c0.84-0.13,1.66-0.35,2.45-0.65c0.77-0.29,1.55-0.65,2.32-1.08c0.45-0.23,0.91-0.53,1.41-0.83
				l-0.09,0.46v0.04v0.39c0,0.34,0.09,0.69,0.29,0.98c0.31,0.4,0.76,0.48,1.19,0.48h2.46c0.45,0.01,0.89-0.18,1.24-0.47
				c0.34-0.29,0.58-0.66,0.69-1.07l5.23-27.68C235.36,39.27,235.38,39.09,235.38,38.89z M224.77,60.73
				c-1.61,0.98-3.05,1.72-4.33,2.25c-1.32,0.54-2.64,0.8-3.99,0.8c-1.34,0-2.43-0.39-3.37-1.17c-0.85-0.69-1.35-2.03-1.35-4.13
				c0-0.4,0.02-0.82,0.07-1.24c0.03-0.44,0.09-0.85,0.17-1.23l1.09-5.81c0.55-2.93,1.62-5.09,3.17-6.53
				c1.52-1.43,3.78-2.19,6.85-2.19c1.29,0,2.37,0.07,3.25,0.17c0.69,0.09,1.35,0.19,1.99,0.29L224.77,60.73z M259.91,36.92
				c-0.65-0.1-1.27-0.22-1.83-0.31c-0.58-0.1-1.22-0.18-1.91-0.24c-0.68-0.06-1.44-0.1-2.27-0.14c-0.85-0.03-1.86-0.06-3.03-0.06
				c-1.54,0-3.08,0.13-4.63,0.4c-1.58,0.28-2.99,0.76-4.22,1.48c-1.23,0.72-2.25,1.67-3.04,2.85c-0.82,1.22-1.2,2.74-1.2,4.52
				c0,2.77,1.87,5.2,5.32,7.29l5.55,3.33c1.42,0.82,2.34,1.52,2.71,2.02c0.42,0.53,0.58,1.01,0.59,1.51
				c-0.01,0.83-0.18,1.47-0.5,1.98c-0.34,0.55-0.77,0.96-1.31,1.28c-0.57,0.32-1.26,0.56-2.03,0.73c-0.79,0.15-1.61,0.24-2.48,0.24
				c-0.51,0-1.16-0.01-1.94-0.06c-0.79-0.03-1.62-0.09-2.49-0.13c-0.86-0.06-1.73-0.12-2.58-0.21c-0.85-0.08-1.63-0.14-2.36-0.21
				h-0.42c-0.79-0.06-1.58,0.48-1.71,1.29l-0.37,1.99v0.04v0.23c-0.01,0.42,0.18,0.88,0.55,1.12c0.26,0.18,0.56,0.3,0.89,0.39
				c0.74,0.15,1.51,0.29,2.36,0.4c0.85,0.12,1.7,0.21,2.57,0.26c0.85,0.06,1.69,0.1,2.5,0.14c0.82,0.03,1.55,0.06,2.21,0.06h0.04
				c1.69,0,3.33-0.17,4.94-0.48c1.63-0.33,3.08-0.88,4.36-1.65s2.31-1.81,3.07-3.1c0.79-1.31,1.17-2.92,1.17-4.8
				c0-1.36-0.41-2.64-1.21-3.81c-0.83-1.2-2.29-2.41-4.42-3.72l-5.49-3.32c-1.05-0.63-1.84-1.21-2.37-1.73
				c-0.5-0.5-0.69-0.96-0.69-1.52c0-0.74,0.18-1.26,0.48-1.64c0.35-0.44,0.79-0.78,1.35-1.06c0.57-0.28,1.2-0.46,1.91-0.57
				c0.72-0.11,1.41-0.17,2.07-0.17c1.69,0,3.33,0.04,4.91,0.14c1.6,0.09,2.92,0.19,3.95,0.31h0.24c0.87,0.06,1.66-0.56,1.77-1.43
				l0.31-1.86l0.01-0.04v-0.28C261.33,37.61,260.65,37,259.91,36.92z"/>
			<path class="st0" d="M344.25,38.26c-1.38-0.31-3.04-0.59-5-0.87c-1.95-0.29-3.86-0.43-5.68-0.43c-2.29,0-4.35,0.24-6.16,0.75
				c-1.82,0.5-3.42,1.3-4.79,2.41c-1.38,1.12-2.51,2.57-3.42,4.34c-0.9,1.77-1.6,3.94-2.09,6.52l-0.79,4.12
				c-0.25,1.37-0.37,2.65-0.37,3.82c0,1.8,0.29,3.36,0.87,4.67c0.58,1.32,1.4,2.4,2.42,3.24c1.02,0.84,2.26,1.45,3.69,1.85
				c1.42,0.4,2.96,0.61,4.62,0.61c0.45,0,1-0.03,1.63-0.09c0.64-0.06,1.29-0.11,1.96-0.2c0.67-0.07,1.3-0.15,1.89-0.24
				c0.41-0.07,0.78-0.12,1.1-0.18l-0.06,0.26c-0.24,1.27-0.54,2.31-0.89,3.15c-0.35,0.84-0.84,1.49-1.43,1.98
				c-0.62,0.5-1.38,0.85-2.29,1.06c-0.93,0.23-2.05,0.34-3.37,0.34c-0.8,0-1.69-0.03-2.63-0.09c-0.95-0.07-1.91-0.11-2.85-0.17
				c-0.95-0.07-1.82-0.12-2.63-0.2c-0.8-0.09-1.47-0.15-1.99-0.22h-0.1h-0.12c-0.37,0-0.71,0.07-0.99,0.26
				c-0.29,0.19-0.47,0.48-0.56,0.85l-0.32,1.64v0.02v0.04h0.01c-0.09,0.12-0.06,0.2-0.07,0.26c0.01,0.61,0.53,0.99,1.24,1.17
				c0.84,0.24,2.16,0.46,4,0.68c1.84,0.23,3.91,0.35,6.24,0.35c2.2,0,4.13-0.18,5.77-0.52c1.65-0.34,3.08-0.95,4.27-1.82
				c1.2-0.88,2.18-2.06,2.94-3.54c0.77-1.49,1.34-3.33,1.76-5.52l5.48-28.76v-0.02c0-0.06,0.01-0.09,0.01-0.09
				c0.03-0.11,0.06-0.22,0.06-0.31C345.58,38.8,345.01,38.4,344.25,38.26z M335.07,63.99c-0.44,0.09-0.93,0.17-1.45,0.23
				c-0.63,0.08-1.26,0.14-1.88,0.21c-0.63,0.06-1.22,0.08-1.82,0.1c-0.58,0.02-1.1,0.03-1.53,0.03c-2.28,0-3.94-0.42-4.98-1.18
				c-1.01-0.75-1.55-2.14-1.55-4.23c0-0.55,0.02-1.17,0.09-1.84c0.07-0.66,0.18-1.37,0.33-2.1l0.79-4.13
				c0.64-3.26,1.75-5.64,3.29-7.14c1.55-1.5,3.68-2.26,6.47-2.26c1.29,0,2.51,0.07,3.68,0.2c1.04,0.11,1.93,0.24,2.69,0.37
				L335.07,63.99z M438.21,31.22v-0.25c0-0.72-0.52-1.18-1.26-1.18h-3.11c-0.39-0.01-0.76,0.14-1.09,0.4
				c-0.33,0.25-0.54,0.57-0.64,0.94l-0.32,2.45v0.25c0,0.73,0.53,1.19,1.26,1.19h3.12c0.39,0,0.75-0.15,1.08-0.4
				c0.32-0.25,0.54-0.56,0.64-0.95 M316.5,41.86c0.91,0.02,1.61-0.4,1.74-1.18l0.43-2.38l0.01-0.02v-0.25
				c-0.01-0.71-0.61-1.07-1.38-1.07h-0.12c-1.44,0-2.91,0.18-4.38,0.51c-1.33,0.32-2.73,0.97-4.22,1.96l0.12-0.62V38.8v-0.26
				c0-0.71-0.5-1.18-1.2-1.18h-2.86c-0.39,0-0.76,0.14-1.06,0.42c-0.3,0.24-0.52,0.56-0.61,0.93l-5.42,28.77v0.25
				c0,0.71,0.48,1.18,1.19,1.18h3c0.39,0,0.75-0.13,1.08-0.39c0.32-0.26,0.55-0.58,0.65-0.94l4.42-23.51
				c1.43-0.82,2.77-1.39,3.98-1.71c1.26-0.33,2.73-0.5,4.46-0.5h0.18V41.86z M418.86,42.09h6.32c0.4,0,0.77-0.15,1.08-0.42
				c0.3-0.25,0.51-0.57,0.59-0.93l0.37-1.94V38.8v-0.26c0-0.72-0.52-1.18-1.26-1.18h-6.24l0.85-4.73v-0.2
				c0-0.62-0.41-1.08-1.01-1.08h-0.18l-3.26,0.45c-0.85,0.1-1.44,0.59-1.58,1.35l-0.74,4.19l-4.04,0.11c-0.37,0-0.73,0.11-1.01,0.34
				c-0.29,0.23-0.5,0.53-0.59,0.88l-0.31,1.54v0.02v0.2c-0.02,0.65,0.52,1.08,1.21,1.13l3.87,0.47l-3.68,19.37
				c-0.08,0.45-0.13,0.85-0.18,1.17c-0.04,0.34-0.07,0.69-0.07,1.08c-0.01,2.02,0.74,3.53,2.21,4.38c1.43,0.84,3.21,1.26,5.3,1.26
				c0.57,0,1.21-0.03,1.91-0.09c0.69-0.04,1.34-0.11,1.96-0.2c0.48-0.08,0.83-0.2,1.07-0.41c0.21-0.19,0.35-0.45,0.44-0.75
				l0.37-2.04V65.8v-0.25c0.01-0.32-0.11-0.66-0.43-0.76c-0.2-0.08-0.43-0.1-0.69-0.1h-3.71c-0.95,0-1.64-0.1-2.02-0.26
				c-0.3-0.11-0.51-0.46-0.51-1.24c0-0.39,0.07-0.93,0.18-1.6L418.86,42.09z M498.45,39.38c-0.01-0.64-0.57-0.99-1.32-1.12
				c-1.54-0.39-3.25-0.71-5.13-0.95c-1.87-0.24-3.73-0.36-5.57-0.36c-1.84,0-3.64,0.22-5.35,0.66c-1.73,0.44-3.32,1.17-4.75,2.18
				c-1.43,1.02-2.67,2.37-3.69,4.03c-1.04,1.66-1.8,3.75-2.29,6.2l-1.09,5.59c-0.25,1.18-0.37,2.32-0.37,3.44
				c0,1.76,0.25,3.29,0.78,4.58c0.53,1.3,1.22,2.37,2.1,3.21c0.88,0.84,1.93,1.45,3.12,1.86c1.18,0.41,2.45,0.61,3.77,0.61
				c1.02,0,1.95-0.07,2.79-0.21c0.83-0.13,1.62-0.34,2.39-0.64c0.77-0.29,1.53-0.63,2.29-1.06c0.61-0.33,1.24-0.72,1.94-1.17
				l-0.2,1.11v0.15v0.23c0,0.31,0.08,0.59,0.23,0.8c0.22,0.29,0.56,0.37,0.96,0.37h2.43c0.39,0,0.75-0.14,1.07-0.41
				c0.3-0.25,0.51-0.57,0.59-0.93l5.24-27.68C498.43,39.77,498.45,39.59,498.45,39.38z M488.36,61.4c-1.64,1.01-3.14,1.8-4.47,2.34
				c-1.34,0.55-2.71,0.83-4.09,0.83c-1.4-0.01-2.58-0.42-3.57-1.23c-0.94-0.77-1.44-2.21-1.44-4.35c0-0.41,0.02-0.84,0.06-1.27
				c0.04-0.44,0.1-0.86,0.18-1.27l1.1-5.81c0.56-2.96,1.65-5.19,3.26-6.7c1.6-1.49,3.92-2.26,7.04-2.26c1.3,0,2.39,0.07,3.28,0.17
				l0.04-0.29l-0.03,0.29c0.8,0.1,1.56,0.22,2.29,0.34L488.36,61.4z M524.35,38.88c0.02-0.63-0.46-1.08-1.15-1.18
				c-0.66-0.11-1.27-0.22-1.83-0.31c-0.58-0.09-1.21-0.18-1.88-0.23c-0.67-0.07-1.42-0.11-2.26-0.14s-1.84-0.06-3.03-0.06
				c-1.51,0-3.03,0.13-4.56,0.4c-1.55,0.26-2.93,0.75-4.13,1.45c-1.2,0.69-2.19,1.62-2.95,2.77c-0.77,1.16-1.16,2.63-1.16,4.35
				c0.01,2.62,1.78,4.98,5.19,7.06l5.55,3.33c1.42,0.83,2.37,1.52,2.79,2.06c0.44,0.58,0.65,1.12,0.65,1.69
				c0,0.87-0.19,1.56-0.54,2.14c-0.36,0.58-0.84,1.02-1.42,1.36c-0.59,0.35-1.3,0.61-2.1,0.76c-0.82,0.17-1.65,0.25-2.52,0.25
				c-0.52,0-1.17-0.02-1.96-0.06c-0.79-0.04-1.62-0.08-2.49-0.14c-0.87-0.06-1.73-0.12-2.58-0.21c-0.85-0.07-1.64-0.14-2.37-0.22
				h-0.4c-0.72-0.02-1.3,0.39-1.43,1.07l-0.37,1.98v0.02v0.2c-0.01,0.36,0.14,0.71,0.43,0.88c0.23,0.14,0.51,0.25,0.82,0.34
				c0.71,0.17,1.48,0.29,2.31,0.4c0.84,0.12,1.7,0.21,2.54,0.26c0.85,0.06,1.69,0.1,2.49,0.14c0.83,0.03,1.55,0.06,2.21,0.06
				c1.69,0,3.32-0.17,4.92-0.48c1.61-0.33,3.03-0.86,4.26-1.61c1.24-0.76,2.24-1.76,2.99-3c0.76-1.26,1.13-2.81,1.13-4.66
				c0-1.3-0.39-2.52-1.17-3.65c-0.78-1.16-2.23-2.36-4.32-3.64l-5.49-3.33c-1.06-0.64-1.87-1.22-2.41-1.77
				c-0.54-0.53-0.77-1.08-0.77-1.71c0-0.78,0.19-1.38,0.54-1.83c0.39-0.47,0.86-0.85,1.45-1.13c0.59-0.29,1.27-0.5,1.99-0.59
				c0.73-0.11,1.44-0.17,2.12-0.17c1.69,0,3.34,0.03,4.94,0.13c1.6,0.1,2.92,0.21,3.97,0.32h0.22c0.77,0.02,1.37-0.44,1.49-1.19
				l0.3-1.86l-0.28-0.06h0.28v-0.2H524.35z M465.11,39.58c-0.76-0.83-1.74-1.47-2.93-1.93c-1.2-0.47-2.62-0.69-4.27-0.69
				c-2.09,0-3.9,0.26-5.43,0.82c-1.36,0.46-2.68,1.02-3.99,1.67l0.1-0.64v-0.28c0-0.28-0.09-0.56-0.28-0.79
				c-0.21-0.29-0.55-0.4-0.91-0.4h-2.99c-0.39,0-0.76,0.14-1.06,0.4c-0.3,0.25-0.52,0.58-0.61,0.94l-5.43,28.77v0.25
				c0,0.29,0.11,0.55,0.28,0.79c0.2,0.28,0.53,0.39,0.89,0.39h3c0.4,0,0.77-0.13,1.09-0.4c0.32-0.24,0.55-0.57,0.65-0.94l4.47-23.66
				c1.87-0.83,3.44-1.37,4.67-1.64c1.28-0.28,2.5-0.42,3.65-0.42c2.2,0,3.65,0.39,4.3,1.05c0.72,0.69,1.07,1.65,1.08,2.96
				c0,0.43-0.03,0.93-0.09,1.47c-0.07,0.54-0.13,1.06-0.21,1.59l-3.53,18.55v0.25c0,0.72,0.52,1.18,1.26,1.18h2.92
				c0.39,0,0.76-0.13,1.08-0.39c0.32-0.25,0.55-0.58,0.64-0.94L466.99,49c0.21-1.07,0.31-2.1,0.31-3.11c0-1.22-0.18-2.38-0.53-3.46
				C466.43,41.36,465.88,40.4,465.11,39.58z M403.17,39.58c-0.76-0.83-1.74-1.47-2.94-1.94c-1.19-0.47-2.62-0.69-4.26-0.69
				c-2.09,0-3.91,0.26-5.45,0.82c-1.33,0.46-2.67,1.02-3.98,1.67l0.1-0.63v-0.28c0-0.29-0.1-0.56-0.26-0.79
				c-0.21-0.29-0.55-0.4-0.93-0.4h-2.99c-0.39,0-0.76,0.14-1.07,0.4c-0.3,0.25-0.52,0.57-0.61,0.94l-5.42,28.77v0.25
				c0,0.29,0.1,0.56,0.26,0.79c0.21,0.28,0.55,0.39,0.9,0.39h3c0.39,0,0.76-0.13,1.08-0.39c0.32-0.26,0.54-0.58,0.65-0.94
				l4.48-23.66c1.87-0.84,3.44-1.38,4.67-1.64c1.29-0.28,2.49-0.42,3.66-0.42c2.2,0,3.64,0.39,4.3,1.05
				c0.71,0.69,1.07,1.65,1.07,2.96c0,0.43-0.02,0.93-0.09,1.47c-0.06,0.54-0.12,1.07-0.21,1.59l-3.53,18.55v0.25
				c0,0.72,0.52,1.18,1.26,1.18h2.92c0.4,0,0.77-0.13,1.09-0.4c0.32-0.24,0.54-0.57,0.64-0.94L405.06,49
				c0.2-1.07,0.31-2.1,0.31-3.11c0-1.23-0.18-2.38-0.53-3.47C404.5,41.37,403.93,40.4,403.17,39.58z M371.84,40.08
				c-0.96-0.97-2.15-1.73-3.56-2.28c-1.42-0.56-3.1-0.85-5.02-0.85c-4.4,0-8,1.22-10.8,3.65c-2.79,2.43-4.65,5.94-5.59,10.5
				l-0.79,3.95c-0.24,1.24-0.37,2.45-0.37,3.55c0,1.94,0.34,3.6,1.07,4.98c0.71,1.36,1.64,2.46,2.79,3.29
				c1.15,0.86,2.46,1.47,3.92,1.85c1.45,0.39,2.93,0.57,4.45,0.57h0.03c2.08,0,3.91-0.09,5.53-0.24c1.62-0.18,3.33-0.41,5.16-0.72
				c0.55-0.08,0.96-0.2,1.21-0.47c0.25-0.24,0.39-0.59,0.47-1.04l0.36-1.93v-0.03v-0.24c0-0.55-0.5-0.85-1.07-0.85h-0.36
				c-1.45,0.19-3.11,0.37-5.01,0.54c-1.89,0.17-3.73,0.25-5.51,0.25c-2.31,0-4.12-0.47-5.41-1.37c-1.27-0.88-1.91-2.3-1.92-4.38
				c0-0.51,0.03-1.05,0.09-1.61c0.06-0.54,0.18-1.12,0.39-1.75l0.12-0.47h20.15c0.48,0,0.91-0.13,1.17-0.44
				c0.22-0.28,0.36-0.62,0.45-1.02l0.48-2.38c0.24-1.21,0.37-2.36,0.37-3.44c0-1.49-0.23-2.9-0.68-4.21
				C373.53,42.2,372.81,41.06,371.84,40.08z M368.4,50.59l-0.01,0.07h-15.53c0.28-1.27,0.69-2.42,1.24-3.48
				c0.55-1.06,1.23-1.98,2.05-2.81c0.8-0.79,1.74-1.41,2.8-1.85c1.06-0.43,2.24-0.65,3.55-0.65c4.3,0.04,6.25,1.83,6.28,5.7
				C368.76,48.46,368.64,49.49,368.4,50.59z M435.26,38.19h-2.92c-0.39,0-0.76,0.14-1.09,0.4c-0.32,0.24-0.54,0.57-0.65,0.93
				l-5.21,27.95v0.25c0,0.72,0.53,1.18,1.26,1.18h2.94c0.39,0,0.75-0.13,1.07-0.39c0.32-0.26,0.54-0.58,0.65-0.94l5.21-27.94v-0.26
				C436.52,38.66,435.99,38.19,435.26,38.19z M289.55,32.05c-0.39-0.59-0.88-1.1-1.45-1.47c-0.57-0.35-1.18-0.59-1.84-0.73
				c-0.63-0.12-1.23-0.18-1.84-0.18c-0.62,0-1.27,0.08-1.94,0.21c-0.71,0.14-1.39,0.4-2.06,0.73c-0.68,0.34-1.32,0.82-1.92,1.39
				c-0.59,0.59-1.12,1.35-1.6,2.26l-17.91,32.53c-0.13,0.23-0.19,0.52-0.19,0.82c0,0.35,0.12,0.73,0.41,0.98
				c0.29,0.24,0.65,0.32,1,0.32h3.71c0.39,0,0.75-0.12,1.07-0.33c0.32-0.22,0.59-0.5,0.73-0.84l6.17-12.64h14.89l1.45,12.47
				c0.07,0.32,0.18,0.61,0.34,0.85c0.24,0.34,0.66,0.48,1.04,0.48h3.68c0.43,0,0.87-0.11,1.18-0.44c0.31-0.32,0.42-0.75,0.42-1.19
				V67l-4.59-32.61C290.2,33.47,289.94,32.69,289.55,32.05z M274.46,49.85l7.74-13.97c0.29-0.55,1.04-0.65,1.48-0.64
				c0.96,0.04,1.05,0.64,1.05,0.64l1.64,13.97H274.46z"/>
		</g>
		<path class="st0" d="M493.46,15.17l-40.91,7.4h86.53c0-2.93-2.8-6.09-9.5-6.06h-3.75c0.53,1.07,0.22,2.4-0.78,3.13
			c-1.12,0.8-2.68,0.55-3.48-0.56c-0.8-1.11-0.55-2.68,0.56-3.47l5.45-3.61c5.11-3.24,4.6-7.99-2.39-8.42L467.67,0
			c0,0,18.29,5.66,27.88,9.23C501.01,11.26,499.94,14.05,493.46,15.17"/>
	</g>
</g>
</svg>
