<?xml version="1.0" encoding="utf-8"?>
<!-- Generator: Adobe Illustrator 25.4.1, SVG Export Plug-In . SVG Version: 6.00 Build 0)  -->
<svg version="1.1" id="Layer_1" xmlns="http://www.w3.org/2000/svg" xmlns:xlink="http://www.w3.org/1999/xlink" x="0px" y="0px"
	 viewBox="0 0 269 80" style="enable-background:new 0 0 269 80;" xml:space="preserve">
<style type="text/css">
	.st0{fill:#01426A;}
</style>
<g>
	<path class="st0" d="M129.71,2.97L99.73,53.75c-2.97,5.12-5.12,10.52-5.39,15.42H82.7c0.81-6.47,3.24-12.45,8.36-21.35l21.35-35.69
		c4.31-7.01,8.36-9.44,15.96-9.44C128.09,2.97,129.71,2.97,129.71,2.97z M127.28,56.18c-2.16,2.16-6.74,5.12-9.98,5.12
		c-2.7,0-2.7-2.43-1.08-5.66c6.47-12.18,13.26-18.65,21.35-18.65h1.35L127.28,56.18L127.28,56.18z M138.61,30.25
		c-15.42,0-24.58,8.9-33.21,28.36c-2.16,5.12-3.24,11.06,3.78,10.79c4.04,0,10.79-2.43,15.42-5.66c-0.27,1.89-0.54,4.31-0.54,5.39
		h10.79c0.54-4.31,1.89-9.17,5.39-15.69l13.26-22.43C149.17,30.79,143.73,30.25,138.61,30.25L138.61,30.25z M237.8,56.18
		c-2.16,2.16-6.74,5.12-9.98,5.12c-2.7,0-2.7-2.43-1.08-5.66c6.47-12.18,13.26-18.65,21.35-18.65h1.35L237.8,56.18L237.8,56.18z
		 M249.12,30.25c-15.42,0-24.58,8.9-33.21,28.36c-2.16,5.12-3.24,11.06,3.78,10.79c4.04,0,10.79-2.43,15.42-5.66
		c-0.54,1.62-0.81,3.78-0.54,5.12h10.79c0.54-4.31,1.89-9.17,5.39-15.69L264,30.74C259.69,30.79,254.25,30.25,249.12,30.25
		L249.12,30.25z"/>
	<path class="st0" d="M214.02,80h-3.51c-4.58,0-8.36-2.97-9.71-7.55l-5.12-20l-9.71,16.76h-11.37l31.6-54.02
		c4.31-7.01,8.36-9.44,15.96-9.44h1.35l-21.35,35.96l15.96-11.06h12.72L204.09,49.3L214.02,80L214.02,80z M108.63,0
		C97.84,0,92.13,2.97,81.62,10.52L45.66,36.18h-22.7c-6.74,0-11.91,0.27-16.22,4.31l-5.93,5.39c0,0,17.3-0.81,33.48-1.08L0,69.44
		h14.88l35.15-25.39c7.01-0.27,11.37-0.54,11.37-0.54c8.09-0.27,12.72-7.28,12.72-7.28H60.85l28.09-20.54L67.87,49.75
		c-4.58,7.82-6.74,13.26-7.55,19.46h12.18c0.54-5.12,2.16-10.25,5.39-15.42l28.63-47.82c2.16-3.51,4.04-5.93,4.04-5.93h-1.93V0z
		 M165.89,41.08c-0.27,1.08,0.27,1.62,2.43,2.97l3.24,2.16c3.51,2.43,5.12,5.93,4.58,8.63c-1.35,8.09-7.28,14.88-19.73,14.88
		c-5.39,0-7.82-0.27-14.61-1.08l5.12-8.09c4.58,0.81,7.01,1.08,10.52,1.08c4.85,0,6.74-2.16,7.01-3.78c0.27-1.08-0.27-2.16-2.7-3.78
		l-2.7-1.89c-4.31-2.97-5.12-5.39-4.85-8.9c1.08-7.01,9.17-12.45,20.81-12.45c3.51,0,7.55,0.27,11.64,0.81l-4.58,7.82
		c-2.97-0.27-7.28-0.54-10.52-0.27C167.78,38.65,165.89,39.46,165.89,41.08L165.89,41.08z M263.46,57.57c3.24,0,6.2,2.97,6.2,6.2
		c0,3.24-2.7,6.2-6.2,6.2c-3.24,0-5.93-2.97-5.93-6.2C257.75,60.54,260.22,57.57,263.46,57.57z M263.46,68.9
		c2.7,0,4.85-2.16,4.85-5.12c0-2.97-2.43-4.85-4.85-4.85c-2.7,0-4.85,2.16-4.85,5.12C258.61,67.01,261.03,68.9,263.46,68.9z
		 M262.65,67.28h-1.08v-6.74H264c1.08,0,2.43,1.08,2.43,2.16s-0.81,1.62-1.35,1.89l1.35,2.7h-1.35l-1.35-2.43h-0.54L262.65,67.28
		L262.65,67.28z M263.73,63.51c0.81,0,1.08-0.54,1.08-1.08c0-0.81-0.54-1.08-1.08-1.08h-1.08v1.89h1.08V63.51z"/>
</g>
</svg>
