<?xml version="1.0" encoding="utf-8"?>
<!-- Generator: Adobe Illustrator 25.4.1, SVG Export Plug-In . SVG Version: 6.00 Build 0)  -->
<svg version="1.1" id="Layer_1" xmlns="http://www.w3.org/2000/svg" xmlns:xlink="http://www.w3.org/1999/xlink" x="0px" y="0px"
	 viewBox="0 0 188 80" style="enable-background:new 0 0 188 80;" xml:space="preserve">
<style type="text/css">
	.st0{fill:#01426A;}
</style>
<g>
	<g>
		<path class="st0" d="M90.36,2.07L69.48,37.45c-2.07,3.57-3.57,7.33-3.76,10.74h-8.11c0.56-4.51,2.25-8.67,5.82-14.87L78.31,8.45
			c3.01-4.88,5.82-6.58,11.12-6.58C89.24,2.07,90.36,2.07,90.36,2.07z M88.67,39.14c-1.5,1.5-4.7,3.57-6.95,3.57
			c-1.88,0-1.88-1.69-0.75-3.95c4.51-8.49,9.24-12.99,14.87-12.99h0.94L88.67,39.14L88.67,39.14z M96.56,21.07
			c-10.74,0-17.13,6.2-23.14,19.76c-1.5,3.57-2.25,7.7,2.63,7.51c2.82,0,7.51-1.69,10.74-3.95c-0.19,1.32-0.38,3.01-0.38,3.76h7.51
			c0.38-3.01,1.32-6.39,3.76-10.93l9.24-15.62C103.92,21.45,100.13,21.07,96.56,21.07L96.56,21.07z M165.67,39.14
			c-1.5,1.5-4.7,3.57-6.95,3.57c-1.88,0-1.88-1.69-0.75-3.95c4.51-8.49,9.24-12.99,14.87-12.99h0.94L165.67,39.14L165.67,39.14z
			 M173.56,21.07c-10.74,0-17.13,6.2-23.14,19.76c-1.5,3.57-2.25,7.7,2.63,7.51c2.82,0,7.51-1.69,10.74-3.95
			c-0.38,1.13-0.56,2.63-0.38,3.57h7.51c0.38-3.01,1.32-6.39,3.76-10.93l9.24-15.62C180.92,21.45,177.13,21.07,173.56,21.07
			L173.56,21.07z"/>
		<path class="st0" d="M149.1,55.73h-2.44c-3.19,0-5.82-2.07-6.76-5.26l-3.57-13.93l-6.76,11.68h-7.92l22.01-37.64
			c3.01-4.88,5.82-6.58,11.12-6.58h0.94l-14.87,25.05l11.12-7.7h8.86l-18.63,12.99L149.1,55.73L149.1,55.73z M75.68,0
			c-7.51,0-11.49,2.07-18.82,7.33L31.81,25.21H16c-4.7,0-8.3,0.19-11.3,3.01l-4.13,3.76c0,0,12.05-0.56,23.33-0.75L0,48.38h10.36
			l24.49-17.69c4.88-0.19,7.92-0.38,7.92-0.38c5.64-0.19,8.86-5.07,8.86-5.07H42.4l19.57-14.31L47.28,34.66
			c-3.19,5.45-4.7,9.24-5.26,13.56h8.49c0.38-3.57,1.5-7.14,3.76-10.74L74.21,4.16c1.5-2.44,2.82-4.13,2.82-4.13h-1.35V0z
			 M115.57,28.62c-0.19,0.75,0.19,1.13,1.69,2.07l2.25,1.5c2.44,1.69,3.57,4.13,3.19,6.01c-0.94,5.64-5.07,10.36-13.75,10.36
			c-3.76,0-5.45-0.19-10.18-0.75l3.57-5.64c3.19,0.56,4.88,0.75,7.33,0.75c3.38,0,4.7-1.5,4.88-2.63c0.19-0.75-0.19-1.5-1.88-2.63
			l-1.88-1.32c-3.01-2.07-3.57-3.76-3.38-6.2c0.75-4.88,6.39-8.67,14.5-8.67c2.44,0,5.26,0.19,8.11,0.56l-3.19,5.45
			c-2.07-0.19-5.07-0.38-7.33-0.19C116.88,26.93,115.57,27.49,115.57,28.62L115.57,28.62z M183.55,40.11c2.25,0,4.32,2.07,4.32,4.32
			s-1.88,4.32-4.32,4.32c-2.25,0-4.13-2.07-4.13-4.32C179.57,42.18,181.29,40.11,183.55,40.11z M183.55,48
			c1.88,0,3.38-1.5,3.38-3.57c0-2.07-1.69-3.38-3.38-3.38c-1.88,0-3.38,1.5-3.38,3.57C180.16,46.68,181.86,48,183.55,48z
			 M182.98,46.87h-0.75v-4.7h1.69c0.75,0,1.69,0.75,1.69,1.5s-0.56,1.13-0.94,1.32l0.94,1.88h-0.94l-0.94-1.69h-0.38L182.98,46.87
			L182.98,46.87z M183.73,44.24c0.56,0,0.75-0.38,0.75-0.75c0-0.56-0.38-0.75-0.75-0.75h-0.75v1.32h0.75V44.24z"/>
	</g>
	<g>
		<path class="st0" d="M123.87,74.55c0-3.01,0-6.2,0-9.24c0.94,0,1.88,0,2.82,0c0,4.7,0,9.42,0,14.31c-0.94,0-1.88,0-2.82,0
			c-0.19,0-0.38-0.19-0.38-0.38c-1.88-3.01-3.76-6.01-5.64-8.86c-0.19-0.19-0.38-0.38-0.56-0.75c0,3.38,0,6.76,0,9.99
			c-0.94,0-1.88,0-2.82,0c0-4.7,0-9.42,0-14.31c1.13,0,2.25,0,3.19,0c0.19,0,0.38,0.19,0.38,0.38c1.69,2.82,3.57,5.64,5.26,8.3
			C123.49,74.18,123.49,74.36,123.87,74.55C123.68,74.55,123.68,74.55,123.87,74.55z"/>
		<path class="st0" d="M57.8,65.32c1.5,0,2.82,0,4.32,0c0.75,0,1.5,0,2.25,0c2.07,0.38,3.38,1.69,3.57,3.76
			c0.19,2.07-0.75,3.57-2.82,4.51c0,0-0.19,0-0.38,0.19c0.94,1.88,2.07,3.76,3.01,5.82c-1.13,0-2.07,0-3.01,0
			c-0.19,0-0.19-0.19-0.38-0.38c-0.75-1.5-1.5-3.01-2.25-4.51c-0.19-0.56-0.56-0.75-1.13-0.75c-0.19,0-0.38,0-0.56,0
			c0,1.88,0,3.57,0,5.45c-0.94,0-1.88,0-2.82,0C57.8,74.93,57.8,70.01,57.8,65.32z M60.43,71.73c0.94,0,1.69,0,2.63,0
			c1.13,0,1.88-0.75,1.88-1.88s-0.56-1.88-1.69-2.07c-0.75-0.19-1.69,0-2.44,0c-0.19,0-0.38,0.19-0.38,0.38
			C60.43,69.26,60.43,70.39,60.43,71.73z"/>
		<path class="st0" d="M18.63,79.62c0.75-1.88,1.32-3.57,2.07-5.26c1.13-2.82,2.25-5.82,3.38-8.67c0.19-0.38,0.38-0.56,0.75-0.38
			c0.75,0,1.5,0,2.44,0c0.19,0,0.38,0.19,0.56,0.38c1.69,4.7,3.57,9.24,5.26,13.93c0,0,0,0,0,0.19c-0.94,0-1.88,0-2.82,0
			c-0.19,0-0.38-0.19-0.38-0.38c-0.38-0.75-0.56-1.69-0.94-2.44c-0.19-0.38-0.19-0.38-0.56-0.38c-1.69,0-3.38,0-4.88,0
			c-0.38,0-0.38,0.19-0.56,0.38c-0.38,0.94-0.56,1.69-0.94,2.63c0,0.19-0.38,0.38-0.38,0.38C20.32,79.62,19.57,79.62,18.63,79.62z
			 M27.68,73.8c-0.75-1.88-1.32-3.57-2.07-5.45c-0.75,1.88-1.32,3.57-1.88,5.45C25.05,73.8,26.36,73.8,27.68,73.8z"/>
		<path class="st0" d="M158.31,75.49c0.75-0.19,1.69-0.38,2.44-0.75v0.19c0.38,2.07,2.25,3.01,4.13,2.44
			c0.75-0.19,1.32-0.75,1.32-1.5c0-0.75-0.38-1.32-1.32-1.69c-0.94-0.19-1.69-0.38-2.63-0.56c-2.07-0.38-3.38-1.69-3.57-3.57
			c-0.19-1.32,0.19-2.63,1.32-3.57c2.07-2.07,5.82-1.88,7.7,0c0.56,0.56,0.94,1.32,1.13,2.25c-0.75,0.19-1.69,0.56-2.44,0.75
			c0-0.19-0.19-0.19-0.19-0.38c-0.56-1.88-2.82-1.88-3.76-1.32c-0.56,0.38-0.94,0.94-0.94,1.69c0,0.75,0.56,1.13,1.32,1.32
			c0.94,0.19,1.88,0.38,2.63,0.56c1.69,0.38,3.01,1.32,3.57,3.19c0.38,1.88-0.56,3.95-2.44,4.7c-2.07,0.94-4.13,0.75-6.01-0.38
			C159.25,78.31,158.5,76.99,158.31,75.49z"/>
		<path class="st0" d="M138.74,65.32c3.01,0,5.82,0,8.86,0c0,0.75,0,1.69,0,2.63c-2.07,0-4.13,0-6.2,0c0,1.13,0,2.25,0,3.38
			c0.19,0,0.38,0,0.75,0c1.5,0,2.82,0,4.32,0c0.56,0,0.56,0.19,0.56,0.56c0,0.56,0,1.13,0,1.88c-1.88,0-3.76,0-5.64,0
			c0,1.13,0,2.25,0,3.38c2.07,0,4.13,0,6.2,0c0,0.94,0,1.69,0,2.63c-3.01,0-5.82,0-8.86,0C138.74,74.93,138.74,70.01,138.74,65.32z"
			/>
		<path class="st0" d="M81.88,76.99c2.25,0,4.32,0,6.39,0c0,0.94,0,1.69,0,2.63c-3.01,0-6.01,0-9.24,0c0-4.7,0-9.61,0-14.31
			c0.94,0,1.69,0,2.63,0C81.88,69.07,81.88,73.05,81.88,76.99z"/>
		<path class="st0" d="M42.74,79.62c0-4.7,0-9.61,0-14.31c0.94,0,1.88,0,2.82,0c0,4.7,0,9.42,0,14.31
			C44.62,79.62,43.68,79.62,42.74,79.62z"/>
		<path class="st0" d="M102.23,79.62c-0.94,0-1.69,0-2.63,0c0-4.7,0-9.61,0-14.31c0.94,0,1.69,0,2.63,0
			C102.23,70.01,102.23,74.93,102.23,79.62z"/>
	</g>
</g>
</svg>
