<?xml version="1.0" encoding="utf-8"?>
<!-- Generator: Adobe Illustrator 25.4.1, SVG Export Plug-In . SVG Version: 6.00 Build 0)  -->
<svg version="1.1" xmlns="http://www.w3.org/2000/svg" xmlns:xlink="http://www.w3.org/1999/xlink" x="0px" y="0px"
	 viewBox="0 0 148.5 80" style="enable-background:new 0 0 148.5 80;" xml:space="preserve">
<style type="text/css">
	.st0{fill:#C92116;}
</style>
<g id="Layer_2">
</g>
<g id="Layer_1">
	<g>
		<path class="st0" d="M78.58,49.87l5.89,18.12l-6.82-4.95l-2.28,1.66l11.9,8.65c-3.72,2.51-8.2,3.97-13.01,3.97
			c-4.31,0-8.35-1.18-11.82-3.22l-2.35,1.71c4.08,2.65,8.95,4.2,14.18,4.2c5.73,0,11.02-1.85,15.32-4.98l0,0L81.4,49.87L78.58,49.87
			z M80.32,59.47l-0.88-2.68l-15.41,11.2l2.6-8.01l-2.28-1.66L59.81,72.3c-5.44-4.29-8.95-10.92-8.95-18.37
			c0-1.72,0.19-3.4,0.55-5.02l-2.35-1.71c-0.57,2.15-0.88,4.4-0.88,6.73c0,8.67,4.24,16.35,10.75,21.09l0,0L80.32,59.47z
			 M100.32,53.93c0-2.81-0.45-5.52-1.27-8.06h0l0,0H72.6l-0.87,2.69h19.05l-6.82,4.95l0.87,2.69l11.91-8.65
			c0.58,2.03,0.89,4.17,0.89,6.39c0,6.94-3.04,13.18-7.86,17.47l0.9,2.77C96.56,69.39,100.32,62.1,100.32,53.93z M95.67,44.56h2.91
			c-3.76-9.77-13.23-16.71-24.33-16.71c0,0,0,0,0,0l0,0l-8.17,25.15l2.29,1.66l5.89-18.12l2.6,8.02h2.82l-4.54-13.99
			C84.32,30.92,92.17,36.57,95.67,44.56z M49.45,45.87l21.4,15.55l2.28-1.66l-15.41-11.2l8.43,0l0.87-2.69l-14.72,0
			c3.04-8.25,10.6-14.33,19.66-15.22l0.9-2.76C61.88,28.47,52.71,35.83,49.45,45.87C49.45,45.87,49.45,45.87,49.45,45.87
			L49.45,45.87z M78.12,7.57c-1.26,2.07-0.08,4.66,1.83,5.44c1.91,0.78,4.56-0.25,5.11-2.62c0.13-0.63-0.2-1.29-0.82-1.54
			c-0.7-0.28-1.5,0.05-1.78,0.75c-0.2,0.48-0.1,1,0.21,1.38c0,0-0.54,0.41-1.84-0.12c-1.29-0.53-1.39-1.2-1.39-1.2
			c0.48-0.05,0.92-0.36,1.11-0.84c0.28-0.7-0.05-1.5-0.75-1.78C79.17,6.79,78.47,7.02,78.12,7.57z M85.27,19.95
			c-1.03-1.93-3.19-1.28-4.29,1.93c0.79,0.17,1.58,0.36,2.35,0.58C84.16,19.98,85.27,19.95,85.27,19.95z M85.81,15.61
			c2.04-1.57,3.17-2.69,4.99-2.69c1.36,0.01,2.21,0.43,2.85,1.14c0.63,0.71,1.12,1.81,1.12,3.53c-0.01,1.66-0.48,2.65-1.13,3.41
			c-0.66,0.76-1.78,1.5-2.8,1.98c-1.57,0.73-1.35,2.29-1.35,2.29c2.99-0.25,5.01-1.43,6.05-2.63c1.05-1.2,1.86-2.85,1.84-5.05
			c0-2.14-0.61-3.93-1.78-5.26c-1.17-1.34-2.86-2.07-4.77-2.06c-1.97-0.01-3.64,0.98-4.73,2.22c-0.98,0.95-2.84,2.44-5.72,2.37
			C80.64,17.14,84.16,16.88,85.81,15.61z M88.89,21.89c-0.36-1.07-2.48-2.02-3.53,1.24c0.72,0.26,1.43,0.55,2.13,0.86
			C87.92,22.22,88.89,21.89,88.89,21.89z M69.57,21.53c0.82-0.12,1.64-0.2,2.48-0.26c-0.95-4.08-3.51-5.28-4.77-3.08
			C67.28,18.19,68.81,18.55,69.57,21.53z M74.25,14.3L74.25,14.3L74.25,14.3c-1.14,1.09-1.67,2.7-1.67,2.7
			c0.75,0.56,1.67,2.43,1.67,2.43s0.92-1.87,1.67-2.43C75.92,17,75.39,15.39,74.25,14.3L74.25,14.3L74.25,14.3z M76.45,21.27
			c0.83,0.06,1.66,0.14,2.48,0.26c0.76-2.98,2.29-3.34,2.29-3.34C79.96,15.99,77.4,17.18,76.45,21.27z M71.57,8.23l2.68-1.94
			l2.68,1.94L75.9,5.09l2.68-1.94h-3.31L74.25,0l-1.02,3.15h-3.31l2.68,1.94L71.57,8.23z M74.25,8.47c-1.19,0-2.15,0.97-2.15,2.15
			c0,1.19,0.96,2.16,2.15,2.16c1.19,0,2.15-0.97,2.15-2.16C76.4,9.44,75.44,8.47,74.25,8.47z M88.72,29.2v-2.98
			c-4.33-2.27-9.25-3.56-14.47-3.56c-5.22,0-10.14,1.29-14.47,3.56v2.98c4.25-2.49,9.19-3.93,14.47-3.93
			C79.53,25.27,84.47,26.71,88.72,29.2z M68.55,13.01c1.91-0.78,3.09-3.37,1.83-5.44c-0.35-0.55-1.05-0.78-1.67-0.53
			c-0.7,0.28-1.04,1.08-0.75,1.78c0.2,0.48,0.63,0.79,1.11,0.84c0,0-0.1,0.67-1.39,1.2c-1.29,0.53-1.84,0.12-1.84,0.12
			c0.3-0.38,0.4-0.9,0.21-1.38c-0.28-0.7-1.08-1.04-1.78-0.75c-0.62,0.25-0.95,0.91-0.82,1.54C63.99,12.76,66.64,13.79,68.55,13.01z
			 M63.23,19.95c0,0,1.11,0.02,1.94,2.52c0.77-0.22,1.55-0.42,2.35-0.58C66.42,18.67,64.25,18.02,63.23,19.95z M61.01,23.98
			c0.7-0.31,1.41-0.59,2.13-0.86c-1.05-3.26-3.17-2.31-3.53-1.24C59.61,21.89,60.58,22.22,61.01,23.98z M59.01,25.26
			c0,0,0.22-1.57-1.35-2.29c-1.02-0.47-2.15-1.21-2.8-1.98c-0.65-0.77-1.12-1.75-1.13-3.41c0-1.72,0.5-2.82,1.12-3.53
			c0.63-0.7,1.48-1.12,2.85-1.14c1.82,0,2.95,1.13,4.99,2.69c1.65,1.27,5.17,1.53,5.43-0.76c-2.88,0.07-4.73-1.42-5.72-2.37
			c-1.09-1.24-2.76-2.23-4.73-2.22c-1.91-0.01-3.6,0.72-4.77,2.06c-1.17,1.33-1.78,3.12-1.78,5.26c-0.01,2.2,0.79,3.85,1.84,5.05
			C54.01,23.84,56.03,25.01,59.01,25.26z M100.42,45.87c0.27,0.88,0.5,1.77,0.68,2.69h41.42c-2.35,2.32-3.44,3.82-10.12,3.82h-12.9
			c-1.42,1.79-4.67,2.69-4.67,2.69h18.55c5.79,0,8.43-1.7,11.07-4.62l4.05-4.58H100.42z M126.76,58.88h-12.9
			c-1.42,1.79-4.67,2.69-4.67,2.69h18.55c5.79,0,8.43-1.7,11.07-4.62l0.76-0.86h-3.74C134.05,57.81,132.39,58.88,126.76,58.88z
			 M121.13,65.39h-12.9c-1.42,1.79-4.67,2.69-4.67,2.69h18.55c5.79,0,8.43-1.7,11.07-4.61l0.76-0.86h-3.74
			C128.42,64.32,126.76,65.39,121.13,65.39z M115.51,71.9H94.88c-0.83,0.96-1.73,1.85-2.69,2.69h24.31c5.79,0,8.43-1.7,11.07-4.62
			l0.76-0.86h-3.74C122.8,70.83,121.14,71.9,115.51,71.9z M44.93,68.08c0,0-3.25-0.89-4.67-2.69h-12.9c-5.63,0-7.29-1.07-9.08-2.79
			h-3.74l0.76,0.86c2.64,2.92,5.27,4.61,11.07,4.61H44.93z M53.62,71.9H32.99c-5.63,0-7.29-1.07-9.08-2.79h-3.74l0.76,0.86
			c2.64,2.92,5.27,4.62,11.07,4.62h24.31C55.35,73.75,54.45,72.85,53.62,71.9z M33.68,55.06c0,0-3.25-0.89-4.67-2.69h-12.9
			c-6.69,0-7.77-1.5-10.12-3.82H47.4c0.18-0.91,0.41-1.81,0.68-2.69H0l4.05,4.58c2.64,2.92,5.27,4.62,11.07,4.62H33.68z M39.3,61.57
			c0,0-3.25-0.89-4.67-2.69h-12.9c-5.63,0-7.29-1.07-9.08-2.79H8.92l0.76,0.86c2.64,2.92,5.27,4.62,11.07,4.62H39.3z"/>
	</g>
</g>
</svg>
