<?xml version="1.0" encoding="utf-8"?>
<!-- Generator: Adobe Illustrator 25.4.1, SVG Export Plug-In . SVG Version: 6.00 Build 0)  -->
<svg version="1.1" xmlns="http://www.w3.org/2000/svg" xmlns:xlink="http://www.w3.org/1999/xlink" x="0px" y="0px"
	 viewBox="0 0 127.47 80" style="enable-background:new 0 0 127.47 80;" xml:space="preserve">
<style type="text/css">
	.st0{fill:#C92116;}
	.st1{fill-rule:evenodd;clip-rule:evenodd;fill:#C92116;}
</style>
<g id="Layer_2">
</g>
<g id="Layer_1">
	<g>
		<path class="st0" d="M66.43,33.64l3.97,12.22l-4.6-3.34l-1.54,1.12l8.03,5.83c-2.51,1.69-5.53,2.68-8.78,2.68
			c-2.91,0-5.63-0.79-7.97-2.17l-1.59,1.15c2.75,1.79,6.03,2.83,9.56,2.83c3.86,0,7.43-1.25,10.33-3.36l0,0l-5.51-16.97L66.43,33.64
			z M67.61,40.11l-0.59-1.81l-10.39,7.55l1.76-5.41l-1.54-1.12l-3.07,9.43c-3.67-2.89-6.03-7.37-6.03-12.39
			c0-1.16,0.13-2.29,0.37-3.38l-1.59-1.15c-0.39,1.45-0.59,2.97-0.59,4.54c0,5.85,2.86,11.03,7.25,14.22l0,0L67.61,40.11z
			 M81.1,36.37c0-1.9-0.3-3.72-0.86-5.43h0l0,0H62.4l-0.59,1.81h12.85l-4.6,3.34l0.59,1.81l8.03-5.84c0.39,1.37,0.6,2.81,0.6,4.31
			c0,4.68-2.05,8.89-5.3,11.78l0.61,1.87C78.56,46.8,81.1,41.88,81.1,36.37z M77.96,30.06h1.96C77.38,23.47,71,18.79,63.51,18.79
			c0,0,0,0,0,0l0,0L58,35.75l1.54,1.12l3.97-12.22l1.76,5.41h1.9l-3.07-9.43C70.3,20.85,75.59,24.67,77.96,30.06z M46.79,30.94
			l14.43,10.49l1.54-1.12l-10.39-7.55l5.68,0l0.59-1.81l-9.93,0c2.05-5.57,7.15-9.67,13.26-10.26l0.61-1.86
			C55.17,19.2,48.98,24.17,46.79,30.94C46.79,30.94,46.79,30.94,46.79,30.94L46.79,30.94z M66.12,5.11
			c-0.85,1.4-0.06,3.14,1.23,3.67c1.29,0.53,3.08-0.17,3.45-1.76c0.09-0.43-0.14-0.87-0.56-1.04c-0.47-0.19-1.01,0.03-1.2,0.51
			c-0.13,0.32-0.07,0.68,0.14,0.93c0,0-0.37,0.28-1.24-0.08C67.07,6.97,67,6.52,67,6.52c0.32-0.04,0.62-0.25,0.75-0.57
			c0.19-0.47-0.03-1.01-0.51-1.2C66.83,4.58,66.36,4.74,66.12,5.11z M70.95,13.46c-0.69-1.3-2.15-0.86-2.89,1.3
			c0.54,0.11,1.06,0.24,1.58,0.39C70.2,13.47,70.95,13.46,70.95,13.46z M71.31,10.53c1.38-1.06,2.14-1.82,3.36-1.82
			c0.92,0.01,1.49,0.29,1.92,0.77c0.42,0.48,0.76,1.22,0.76,2.38c-0.01,1.12-0.32,1.78-0.76,2.3c-0.44,0.51-1.2,1.01-1.89,1.33
			c-1.06,0.49-0.91,1.55-0.91,1.55c2.01-0.17,3.38-0.96,4.08-1.77c0.71-0.81,1.25-1.92,1.24-3.41c0-1.44-0.41-2.65-1.2-3.55
			c-0.79-0.9-1.93-1.4-3.22-1.39c-1.33-0.01-2.46,0.66-3.19,1.5c-0.66,0.64-1.92,1.65-3.86,1.6C67.82,11.56,70.19,11.39,71.31,10.53
			z M73.38,14.76c-0.24-0.72-1.67-1.36-2.38,0.84c0.49,0.18,0.97,0.37,1.44,0.58C72.73,14.99,73.38,14.76,73.38,14.76z M60.35,14.52
			c0.55-0.08,1.11-0.14,1.67-0.17c-0.64-2.75-2.37-3.56-3.22-2.07C58.81,12.27,59.84,12.51,60.35,14.52z M63.51,9.64L63.51,9.64
			L63.51,9.64c-0.77,0.74-1.13,1.82-1.13,1.82c0.51,0.38,1.13,1.64,1.13,1.64s0.62-1.26,1.13-1.64
			C64.64,11.47,64.28,10.38,63.51,9.64L63.51,9.64L63.51,9.64z M65,14.34c0.56,0.04,1.12,0.1,1.67,0.17
			c0.51-2.01,1.55-2.25,1.55-2.25C67.36,10.78,65.63,11.59,65,14.34z M61.71,5.55l1.8-1.31l1.8,1.31l-0.69-2.12l1.8-1.31H64.2
			L63.51,0l-0.69,2.12h-2.23l1.8,1.31L61.71,5.55z M63.51,5.72c-0.8,0-1.45,0.65-1.45,1.45c0,0.8,0.65,1.45,1.45,1.45
			c0.8,0,1.45-0.65,1.45-1.45C64.96,6.37,64.31,5.72,63.51,5.72z M73.27,19.69v-2.01c-2.92-1.53-6.24-2.4-9.76-2.4
			c-3.52,0-6.84,0.87-9.76,2.4v2.01c2.87-1.68,6.2-2.65,9.76-2.65C67.07,17.05,70.41,18.01,73.27,19.69z M59.67,8.78
			c1.29-0.53,2.08-2.27,1.23-3.67c-0.24-0.37-0.71-0.53-1.12-0.36c-0.47,0.19-0.7,0.73-0.51,1.2c0.13,0.32,0.43,0.53,0.75,0.57
			c0,0-0.07,0.45-0.94,0.81c-0.87,0.36-1.24,0.08-1.24,0.08c0.21-0.25,0.27-0.61,0.14-0.93c-0.19-0.47-0.73-0.7-1.2-0.51
			c-0.42,0.17-0.64,0.61-0.56,1.04C56.59,8.61,58.38,9.3,59.67,8.78z M56.08,13.46c0,0,0.75,0.01,1.31,1.7
			c0.52-0.15,1.05-0.28,1.58-0.39C58.23,12.59,56.77,12.16,56.08,13.46z M54.58,16.18c0.47-0.21,0.95-0.4,1.44-0.58
			c-0.71-2.2-2.14-1.56-2.38-0.84C53.64,14.76,54.29,14.99,54.58,16.18z M53.24,17.04c0,0,0.15-1.06-0.91-1.55
			c-0.69-0.32-1.45-0.82-1.89-1.33c-0.44-0.52-0.76-1.18-0.76-2.3c0-1.16,0.33-1.9,0.76-2.38c0.43-0.47,1-0.76,1.92-0.77
			c1.23,0,1.99,0.76,3.36,1.82c1.11,0.86,3.49,1.03,3.66-0.52c-1.94,0.05-3.19-0.96-3.86-1.6c-0.74-0.83-1.86-1.51-3.19-1.5
			c-1.29-0.01-2.43,0.49-3.22,1.39c-0.79,0.9-1.2,2.1-1.2,3.55c-0.01,1.48,0.54,2.6,1.24,3.41C49.86,16.08,51.22,16.87,53.24,17.04z
			 M81.16,30.94c0.18,0.59,0.34,1.2,0.46,1.81h27.93c-1.59,1.56-2.32,2.58-6.83,2.58h-8.7c-0.96,1.21-3.15,1.81-3.15,1.81h12.51
			c3.91,0,5.69-1.14,7.46-3.11l2.73-3.09H81.16z M98.93,39.72h-8.7c-0.96,1.21-3.15,1.81-3.15,1.81H99.6c3.91,0,5.69-1.14,7.46-3.11
			l0.51-0.58h-2.52C103.84,38.99,102.73,39.72,98.93,39.72z M95.13,44.1h-8.7c-0.96,1.21-3.15,1.81-3.15,1.81H95.8
			c3.91,0,5.69-1.14,7.46-3.11l0.51-0.58h-2.52C100.05,43.38,98.93,44.1,95.13,44.1z M91.34,48.49H77.43
			c-0.56,0.65-1.17,1.25-1.81,1.81H92c3.91,0,5.69-1.14,7.46-3.11l0.51-0.58h-2.52C96.25,47.77,95.14,48.49,91.34,48.49z
			 M43.74,45.91c0,0-2.19-0.6-3.15-1.81h-8.7c-3.8,0-4.92-0.72-6.12-1.88h-2.52l0.51,0.58c1.78,1.97,3.56,3.11,7.46,3.11H43.74z
			 M49.6,48.49H35.68c-3.8,0-4.92-0.72-6.12-1.88h-2.52l0.51,0.58c1.78,1.97,3.56,3.11,7.46,3.11h16.39
			C50.76,49.74,50.16,49.14,49.6,48.49z M36.14,37.14c0,0-2.19-0.6-3.15-1.81h-8.7c-4.51,0-5.24-1.01-6.83-2.58H45.4
			c0.12-0.62,0.28-1.22,0.46-1.81H13.43l2.73,3.09c1.78,1.97,3.56,3.11,7.46,3.11H36.14z M39.94,41.53c0,0-2.19-0.6-3.15-1.81h-8.7
			c-3.8,0-4.92-0.72-6.12-1.88h-2.52l0.51,0.58c1.78,1.97,3.56,3.11,7.46,3.11H39.94z"/>
		<g>
			<g>
				<path class="st1" d="M18.41,79.26H16.2v-4.76h2.3v1.03c0,0,0.31-1.03,1.9-0.91v2.28c0,0-1.71-0.23-1.98,0.53V79.26L18.41,79.26z
					"/>
				<path class="st1" d="M65.88,79.26h-2.21v-4.76h2.3v1.03c0,0,0.31-1.03,1.9-0.91v2.28c0,0-1.71-0.23-1.98,0.53V79.26L65.88,79.26
					z"/>
				<path class="st1" d="M27.71,76.9c-0.12,2.7-2.99,2.47-2.99,2.47c-3.31,0.15-3.27-2.59-3.27-2.59c0.19-2.44,3.23-2.36,3.23-2.36
					C27.82,74.43,27.71,76.9,27.71,76.9L27.71,76.9z M24.71,75.72c0,0-0.9-0.08-1.01,1.1c0,0,0.04,0.95,0.93,0.99
					c0,0,0.86,0.07,0.93-0.95C25.57,76.87,25.61,75.76,24.71,75.72L24.71,75.72z"/>
				<path class="st1" d="M104.2,76.9c-0.12,2.7-2.99,2.47-2.99,2.47c-3.31,0.15-3.27-2.59-3.27-2.59c0.19-2.44,3.23-2.36,3.23-2.36
					C104.31,74.43,104.2,76.9,104.2,76.9L104.2,76.9z M101.2,75.72c0,0-0.9-0.08-1.01,1.1c0,0,0.04,0.95,0.93,0.99
					c0,0,0.86,0.07,0.93-0.95C102.06,76.87,102.1,75.76,101.2,75.72L101.2,75.72z"/>
				<path class="st1" d="M28.17,74.51h2.72l0.86,2.36l0.77-2.36h2.49l-1.83,3.84c0,0-0.74,1.83-1.94,1.64h-2.6v-1.37h1.63
					L28.17,74.51L28.17,74.51z"/>
				<path class="st1" d="M39.84,74.51h2.26v4.76h-2.25v-0.88c-0.66,0.99-2.02,0.88-2.02,0.88c-2.37-0.23-2.1-2.51-2.1-2.51
					c0.08-2.51,2.29-2.4,2.29-2.4c0.97-0.04,1.83,0.76,1.83,0.76L39.84,74.51L39.84,74.51z M39.06,75.76c0,0-1.05-0.15-1.09,1.11
					c0,0,0,1.03,0.97,1.03c0,0,0.9,0.04,0.97-0.99C39.92,76.9,40.04,75.76,39.06,75.76L39.06,75.76z"/>
				<path class="st1" d="M56.01,74.51h2.26v4.76h-2.25v-0.88c-0.66,0.99-2.02,0.88-2.02,0.88c-2.37-0.23-2.1-2.51-2.1-2.51
					c0.08-2.51,2.29-2.4,2.29-2.4c0.97-0.04,1.83,0.76,1.83,0.76L56.01,74.51L56.01,74.51z M55.24,75.76c0,0-1.05-0.15-1.09,1.11
					c0,0,0,1.03,0.97,1.03c0,0,0.89,0.04,0.97-0.99C56.09,76.9,56.21,75.76,55.24,75.76L55.24,75.76z"/>
				<path class="st1" d="M94.86,79.26h-2.21v-4.76h2.29v1.03c0,0,0.31-1.03,1.91-0.91v2.28c0,0-1.71-0.23-1.98,0.53V79.26
					L94.86,79.26z"/>
				<path class="st1" d="M88.87,74.51h2.26v4.76h-2.25v-0.88c-0.66,0.99-2.02,0.88-2.02,0.88c-2.37-0.23-2.1-2.51-2.1-2.51
					c0.08-2.51,2.29-2.4,2.29-2.4c0.97-0.04,1.83,0.76,1.83,0.76L88.87,74.51L88.87,74.51z M88.1,75.76c0,0-1.05-0.15-1.09,1.11
					c0,0,0,1.03,0.97,1.03c0,0,0.9,0.04,0.97-0.99C88.95,76.9,89.07,75.76,88.1,75.76L88.1,75.76z"/>
				<polygon class="st1" points="43.54,73.67 45.86,73.67 45.86,79.26 43.54,79.26 43.54,73.67 				"/>
				<polygon class="st1" points="59.75,74.51 62.08,74.51 62.08,79.26 59.75,79.26 59.75,74.51 				"/>
				<polygon class="st1" points="59.75,73.55 62.08,73.55 62.08,74.18 59.75,74.18 59.75,73.55 				"/>
				<path class="st1" d="M73.82,79.26v-4.76h2.26v1.07c0,0,0.51-1.14,1.99-1.14c0,0,1.13-0.11,1.71,0.95c0,0,0.93-1.18,1.98-0.95
					c0,0,1.32-0.08,1.63,1.29l0,3.5h-2.41v-2.47c0,0-0.11-0.73-0.66-0.65c0,0-0.58,0-0.66,0.57v2.59h-2.38v-2.4
					c0,0,0.12-0.84-0.54-0.73c0,0-0.58-0.07-0.7,0.61v2.51H73.82L73.82,79.26z"/>
				<path class="st1" d="M110.69,74.66c0,0-0.86-0.34-2.68-0.38c0,0-2.57-0.04-2.64,2.63c0,0,0,2.25,2.87,2.36c0,0,1.87,0,2.45-0.8
					v-1.1c0,0-0.58,0.34-1.71,0.34c0,0-1.32,0.07-1.32-0.99c0,0,0.08-0.91,1.01-0.87c0,0,0.97-0.19,2.02,0.27V74.66L110.69,74.66z"
					/>
			</g>
		</g>
		<path class="st1" d="M21.64,64.26c0,0-0.69,1.12-0.69,1.35c0,0.24,0.18,0.56-0.03,0.65c-0.21,0.09-1.87,0.5-1.71-0.97
			c-1.65,0.62-5.96,2.42-9.82,2.42c-2.3,0-3.46,0.26-4.42-0.68c-0.45-0.6-1.64-1.47-2.42,0.13c-0.81,1.08-0.84,2.09-1.35,2
			C0.65,69.06,0.41,68,0.26,66.73c-0.57,1.8-0.1,4.13,0.58,4.1c0.65,0,1.06-1.13,1.4-1.82c0.34-0.69,0.48-0.99,0.97-1.01
			c1.87,0.09-0.09,1.91,5.93,1.65c2.8-0.27,6.41-0.8,8.86-2.42c0.45-0.36,0.57-0.44,0.69,0.23c0.15,0.74,0.48,1.03,1.33,0.97
			C20.85,68.38,22.39,67,21.64,64.26L21.64,64.26z"/>
		<path class="st1" d="M127.4,62.17c-0.3,0.5-0.97,1.65-1.29,1.82c0,0.86,0.15,6.31-0.06,6.69c0.51-0.88,1.48-1.97,1.42-2.8
			C127.4,67.06,127.55,62.55,127.4,62.17L127.4,62.17z"/>
		<polygon class="st1" points="119.42,63.34 117.92,64.35 118.79,65.11 120.14,63.96 119.42,63.34 		"/>
		<path class="st1" d="M123.91,63.49c0,0-0.57,0.68-0.75,0.94c-0.18,0.27-0.06,0.35-0.09,0.83c-0.03,0.47,0.03,1.21-0.6,2
			c0.24,0.24,3.1,0.77,3.1,0.77l-1.48,1.65c-0.21-0.12-1.71,0.06-2.38,0.12c-0.66,0.06-4.01,0.5-5.45,0.68
			c-1.45,0.18-4.82,0.3-7.5,0.21c-2.68-0.09-3.71-0.59-5.24-1c0,0-0.9,1.18-1.48,1.33c-0.57,0.15-2.53,0.3-5.06-0.21
			c0.78-0.06,5.09-1.06,5.84-1.86c-1.78,0.06-3.16-0.59-3.28-0.94c-0.12-0.36,0.45-1.12,0.75-1.65c0.3-0.53,1.08-1.89,1.57-1.86
			c0.87,0.06,1.71,1.53,2.14,2.62c0.39,0.53,1.66,1.33,2.65,1.09c0.18-0.12,1.08-0.59,1.5-0.83l-0.06-2.18
			c-0.03-0.41-0.33-0.56-0.39-0.94c-0.06-0.39,0.42-1.27,1.05-2.3c-0.15,0.44,0.42,0.97,0.54,1.56c0.12,0.59-0.39,0.8-0.45,0.94
			c-0.06,0.15-0.09,1.39-0.03,2.62c3.79-1.71,4.55-1.47,5.36-0.94c0.81,0.53,0.51,1.59-0.88,2.62c0.9,0.12,3.92-0.15,5.48-0.5
			c-0.12-0.09-2.74-0.56-2.74-0.56c0.18-0.06,0.9-1.36,0.9-1.36l4.64-0.06c0.6,0,0.6-0.41,0.6-0.41l0.03-1.12
			c0-0.3-0.12-0.35-0.21-1.03c-0.09-0.68,1.2-1.65,1.2-1.65C122.91,63.08,123.22,63.14,123.91,63.49L123.91,63.49z M112.86,67.71
			c-1.05-0.56-4.28,0.56-5.24,1.06C109,68.92,112.82,68.77,112.86,67.71L112.86,67.71z M102.14,67.15c0.09-0.5-0.57-1.21-1.33-1.03
			c0,0.56,0.18,1.06,0.48,1.12C101.59,67.29,102.04,67.33,102.14,67.15L102.14,67.15z"/>
		<path class="st1" d="M92.59,63.68c0.21,0.04,0.5,0.28,0.59,0.33c0.09,0-0.07,0.49-0.61,0.77c0.13,2.01-0.11,3.27-0.11,3.27
			c3.75-2.61,5.6-2.39,5.83-1.19c0.23,1.19-2.35,3.62-4.52,3.8c-2.17,0.17-3.25-0.31-5.42-1.24c0.4,0.09,1.49-0.04,2.71,0.13
			c0.09-0.26,0.58-0.75,0.99-1.06l-0.27-3c-0.05-0.35-0.36-0.4-0.27-1.15c0.09-0.75,0.47-1.7,1.15-1.81
			C92.57,62.71,92.5,63.46,92.59,63.68L92.59,63.68z M96.2,68.48c-0.02-0.38-0.34-0.88-1.4-0.84c-1.06,0.04-2.23,1.1-2.69,1.68
			C92.54,69.34,95.25,69.21,96.2,68.48L96.2,68.48z"/>
		<path class="st1" d="M85.68,62.36c-0.11,0.22-1.13,1.9-1.13,1.9c0.09,1.44,0.3,5.41-0.13,6.34c0.95-1.19,1.4-2.19,1.4-2.63
			C85.81,67.97,85.79,62.6,85.68,62.36L85.68,62.36z"/>
		<path class="st1" d="M81.27,63.13c0,0.13,0.63,0.26,0.68,0.62c0.04,0.35-0.11,0.62-0.5,1.06l-0.07,1.08c0,0-0.02,0.51,0.13,0.66
			c0.36,0.17,0.7-0.31,1.29-0.11c0.95,0.32,0.38,1.79,0.18,2.52c-0.2,0.73-0.92,1.94-1.4,1.92c-0.75-0.03-1.02-0.58-1.22-1.61
			c-0.54,0.44-3.43,1.46-4.81,1.44c-1.38-0.02-1.81-1.19-2.13-2.23c-0.16,0.46-1.42,2.32-3.73,2.3c-2.3-0.02-3.88-1.35-4.9-2.17
			l-0.25,0.07c-0.18,1.28-1.24,1.59-1.94,1.66c-0.7,0.07-1.45-0.93-1.81-1.9c-0.32,0.2-4.25,1.78-7.34,1.81
			c-5.62,0.06-4.59-2.1-5.78-2.08c-0.5,0.02-0.63,0.15-0.97,0.84c-0.34,0.69-0.86,1.79-1.51,1.79c-1.63,0-1.33-2.85-0.45-4.22
			c0.27-0.47,0.38-0.2,0.25,0.06c-0.13,0.27-0.45,2.06,0.09,2.15c0.38,0.06,0.97-0.35,1.78-1.44c0.73-1.11,2.12-0.93,2.57-0.33
			c0.86,1.19,2.17,1.24,4.47,1.28c2.3,0.04,3.77-0.35,7.41-1.81c-0.09,0.29-0.04,1.04,0.52,1.44c0.57,0.4,1.52,0.6,1.85-0.28
			l-1.51-1.28c-0.52-0.42-0.86-0.42-0.75-1.68c0-2.36,7.34-2.01,7.34-2.01c0.79,0,1.57-0.11,1.63,0.53c0.14,1.46-1.37,2.43-2.8,2.83
			c0.43-0.22,1.51-0.97,1.6-1.33c0.1-0.4-0.04-0.56-0.45-0.53C68.36,64.19,63,64.66,63,64.66c-0.29,0.04-0.11,0.29-0.11,0.29
			l4.81,3.16c2.17,1.06,3.88,0.35,4.86,0c0.97-0.35,0.95-0.93,0.97-1.35l0.09-2.94c0.25-0.13,0.86-1.2,0.86-1.2l-0.09,4.73
			c0.02,0.55,0.09,1.48,0.79,1.57c1.56,0.24,4.63-1.19,5.38-1.72c0.04-0.29-0.05-1.99-0.05-1.99c0-0.31-0.52-0.42-0.52-0.8
			c0-0.38,1.02-1.97,1.24-2.21C81.12,62.45,81.27,63,81.27,63.13L81.27,63.13z M81.35,68.12c-0.07,0.38-0.15,1.34,1.01,1.11
			C82.7,69.01,82.25,67.98,81.35,68.12L81.35,68.12z"/>
		<path class="st1" d="M46.61,63.77l-1.49,1.1l0.99,0.49c0,0,0.95-0.75,1.35-0.71c0.41,0.04,0.99,0.53,0.99,0.53s1.31-1.06,1.49-1.1
			c-0.32-0.4-0.86-0.62-0.86-0.62s-1.13,0.75-1.4,0.75C47.42,64.22,46.61,63.77,46.61,63.77L46.61,63.77z"/>
		<path class="st1" d="M58.2,69.68c-0.21,0.18-1.35,0.79-1.6,0.86l0.97,0.56c0,0,1.11-0.62,1.35-0.53c0.24,0.09,0.84,0.47,0.84,0.47
			l1.54-0.77l-0.72-0.62c0,0-1.18,0.59-1.45,0.56C58.86,70.18,58.2,69.68,58.2,69.68L58.2,69.68z"/>
		<path class="st1" d="M41.05,62.62c-0.11,0.22-1.13,1.9-1.13,1.9c0.32,1.77,0.84,5.57,0.41,6.5c0.95-1.2,1.31-2.43,1.31-2.87
			C41.63,68.15,41.16,62.87,41.05,62.62L41.05,62.62z"/>
		<path class="st1" d="M24.26,69.18c-1.54,0.12-4.07,2.51-5.39,1.97c-0.77-0.31-0.06-1.88,0.48-2.3c-0.45,1.54-0.45,1.36-0.12,1.62
			c0.33,0.27,2.44-1.44,3.47-2.06c1.02-0.62,3.43-1.18,5.09-1.2c-0.09-0.18-0.39-0.47-0.63-0.56c-0.24-0.08-1.03-0.17-1.03-0.17
			l0.81-1.56c1.8-0.36,5.63,0.23,6.63,0.47l-0.39,1.83c-0.27,0.03-1.14,0.32-1.66,0.76c1.02,1.09,3.83,0,4.58-0.53
			c0.04-0.29,0-1.89,0-1.89c0-0.31-0.58-0.3-0.58-0.68c0-0.38,1.02-1.97,1.24-2.21c-0.11,0.24,0.04,0.8,0.04,0.93
			c0,0.13,0.54,0.23,0.58,0.58c0.04,0.35-0.02,0.66-0.4,1.1l-0.04,0.86c0,0-0.02,0.51,0.14,0.67c0.36,0.17,0.7-0.31,1.29-0.11
			c0.96,0.32,0.21,1.93,0.01,2.66c-0.2,0.73-0.45,1.64-1.08,1.55c-0.96-0.13-0.85-0.82-1.05-1.86c-0.54-0.22-1.98,1.4-4.68,0.93
			c-1.1-0.19-1.9-0.62-3.03-1.59C28.27,68.68,25.68,68.62,24.26,69.18L24.26,69.18z M37.09,68.2c-0.07,0.37-0.15,1.36,0.84,1.18
			C38.29,69.06,37.99,68.07,37.09,68.2L37.09,68.2z M29.59,66.88l1.57-0.64c-0.24-0.15-1.96-0.18-2.26-0.15L29.59,66.88L29.59,66.88
			z"/>
		<polygon class="st1" points="30.91,62.85 29.29,63.7 30.19,64.26 31.52,63.41 30.91,62.85 		"/>
		<path class="st1" d="M4.78,63.43c0.09,0.03,1.02,0.39,1.02,0.39s-1.27,0.97-1.36,1c-0.09,0.03-0.93-0.41-1.24-0.32
			c-0.3,0.09-1.02,0.82-1.02,0.82s-0.96-0.32-1.18-0.38c0.51-0.27,1.27-1.06,1.41-1.21c0.6,0.24,1.2,0.56,1.39,0.5
			C3.99,64.17,4.41,63.43,4.78,63.43L4.78,63.43z"/>
		<path class="st1" d="M15.83,69.8c0.18,0,1.14-0.77,1.39-0.74c0.24,0.03,1.02,0.62,1.02,0.62s-1.41,1.03-1.56,1
			c-0.15-0.03-0.84-0.56-0.99-0.53c-0.15,0.03-1.33,0.8-1.33,0.8l-1.27-0.53c0,0,1.36-1.09,1.57-1.12
			C14.87,69.27,15.61,69.74,15.83,69.8L15.83,69.8z"/>
		<polygon class="st1" points="23.78,69.83 22.57,70.42 23.17,71.13 24.44,70.36 23.78,69.83 		"/>
	</g>
</g>
</svg>
