<?xml version="1.0" encoding="utf-8"?>
<!-- Generator: Adobe Illustrator 25.4.1, SVG Export Plug-In . SVG Version: 6.00 Build 0)  -->
<svg version="1.1" id="Layer_1" xmlns="http://www.w3.org/2000/svg" xmlns:xlink="http://www.w3.org/1999/xlink" x="0px" y="0px"
	 viewBox="0 0 72.31 80" style="enable-background:new 0 0 72.31 80;" xml:space="preserve">
<style type="text/css">
	.st0{fill-rule:evenodd;clip-rule:evenodd;fill:#ED0707;}
</style>
<g>
	<path id="Fill-1" class="st0" d="M8.32,0C13.63,19.9,23.1,38.45,36.1,54.42c0,0-24-0.76-32.39-16.78C-2.58,25.33-0.76,10.43,8.32,0
		"/>
	<path id="Fill-3" class="st0" d="M43.95,62.59c8.11,7.71,17.78,13.59,28.35,17.26c0,0-14.94,1.21-23.97-3.18
		s-18.4-11.41-24.19-11.92s-9.22-0.79-10.74-2.32h30.55"/>
	<path id="Fill-5" class="st0" d="M57.3,63.26c-3.66-8.55-21.2-8.84-21.2-8.84s4.77,5.18,7.85,8.17
		C48.41,62.37,52.88,62.6,57.3,63.26"/>
</g>
</svg>
