<?xml version="1.0" encoding="utf-8"?>
<!-- Generator: Adobe Illustrator 25.4.1, SVG Export Plug-In . SVG Version: 6.00 Build 0)  -->
<svg version="1.1" id="Layer_1" xmlns="http://www.w3.org/2000/svg" xmlns:xlink="http://www.w3.org/1999/xlink" x="0px" y="0px"
	 viewBox="0 0 591.23 80" style="enable-background:new 0 0 591.23 80;" xml:space="preserve">
<style type="text/css">
	.st0{fill-rule:evenodd;clip-rule:evenodd;fill:#ED0707;}
</style>
<g id="TEMP_Logo">
	<g id="Group-25">
		<path id="Fill-1" class="st0" d="M527.24,0c5.31,19.9,14.78,38.45,27.78,54.42c0,0-24-0.76-32.39-16.78
			C516.34,25.33,518.17,10.43,527.24,0"/>
		<path id="Fill-3" class="st0" d="M562.88,62.59c8.11,7.71,17.78,13.59,28.35,17.26c0,0-14.94,1.21-23.97-3.18
			c-9.03-4.39-18.4-11.41-24.19-11.92c-5.79-0.51-9.22-0.79-10.74-2.32h30.55"/>
		<path id="Fill-5" class="st0" d="M576.23,63.26c-3.66-8.55-21.2-8.84-21.2-8.84s4.77,5.18,7.85,8.17
			C567.34,62.37,571.81,62.6,576.23,63.26"/>
		<path id="Fill-7" class="st0" d="M43.58,25.24h10.71l9.73,25.08l9.38-25.08h11.03L67.58,64.4h-3.56c-1.72,0-4.13-0.16-6.61-6.64
			C54.93,51.27,43.58,25.24,43.58,25.24"/>
		<g>
			<polygon id="Fill-9" class="st0" points="87.7,64.4 98.25,64.4 98.25,25.24 87.7,25.24 			"/>
		</g>
		<g>
			<path id="Fill-11" class="st0" d="M99.08,14.24c0.05,3.37-2.64,6.14-6.01,6.2c-3.37,0.05-6.14-2.64-6.2-6.01
				c-0.05-3.37,2.64-6.14,6.01-6.2c0.03,0,0.06,0,0.09,0c3.34-0.04,6.07,2.64,6.1,5.98C99.08,14.22,99.08,14.23,99.08,14.24"/>
		</g>
		<g>
			<path id="Fill-12" class="st0" d="M181.91,64.4h-10.87V37.7c0.09-2.49-1.86-4.58-4.35-4.67c-0.6-0.02-1.2,0.08-1.76,0.29
				c-3.11,0.73-6.03,2.11-8.55,4.07V64.4h-10.87V25.24c0,0,9.54-2.92,10.36,3.72c3.93-3.04,8.7-4.8,13.67-5.02
				c6.36-0.47,11.89,4.31,12.35,10.66c0,0.06,0.01,0.12,0.01,0.18L181.91,64.4"/>
		</g>
		<g>
			<path id="Fill-13" class="st0" d="M138.27,57.63V37.38c0-4.55-1.91-13.67-14.81-13.6c-12.36,0-16.97,5.18-16.97,5.18l4.13,6.36
				c0,0,1.97-3.18,9.85-3.18s6.93,6.8,6.93,6.8c-21.74-0.35-22.89,8.55-22.89,13.89c-0.06,6.55,5.21,11.9,11.76,11.96
				c0.14,0,0.28,0,0.42,0c4.4,0.2,8.73-1.17,12.21-3.88c0.32,3.4,4.26,3.56,4.26,3.56h6.36C138.43,64.4,138.27,57.63,138.27,57.63z
				 M127.91,54.45c-2.18,1.34-4.69,2.04-7.25,2c-4.45,0-5.79-2.83-5.79-4.99c0-2.16,1.49-5.5,13.03-4.86V54.45z"/>
		</g>
		<g>
			<path id="Fill-14" class="st0" d="M257.47,57.63V37.38c0-4.55-1.91-13.67-14.81-13.6c-12.36,0-16.97,5.18-16.97,5.18l4.13,6.36
				c0,0,1.97-3.18,9.85-3.18c7.88,0,6.93,6.8,6.93,6.8c-21.74-0.35-22.89,8.55-22.89,13.89c-0.06,6.55,5.21,11.9,11.75,11.96
				c0.17,0,0.34,0,0.52-0.01c4.4,0.2,8.73-1.17,12.21-3.88c0.32,3.4,4.26,3.56,4.26,3.56h6.36
				C257.72,64.4,257.47,57.63,257.47,57.63z M247.08,54.45c-2.16,1.35-4.67,2.04-7.22,2c-4.45,0-5.79-2.83-5.79-4.99
				c0-2.16,1.49-5.5,13-4.86L247.08,54.45z"/>
		</g>
		<g>
			<path id="Fill-15" class="st0" d="M218.95,35.76c-2.94-2.46-6.69-3.73-10.52-3.56c-7.76,0-10.71,7.44-10.71,13.76
				c-0.01,5.92,4.78,10.72,10.7,10.73c0.33,0,0.67-0.01,1-0.05c3.32-0.13,6.53-1.23,9.22-3.18l2.8,7.6
				c-4.58,2.73-9.83,4.13-15.16,4.04C196,65.37,187.45,57.27,187.18,47c-0.01-0.43-0.01-0.86,0.01-1.3
				c0-15.23,10.2-21.81,20.09-21.71c8.8,0,12.27,3.18,12.27,3.18l-0.76,8.58"/>
		</g>
		<g>
			<path id="Fill-16" class="st0" d="M29.15,10.01h-8.07L0,64.4h11.03l4.45-13.76h19.07l5.59,13.76h11.03L29.15,10.01z M19.07,41.93
				l6.04-16.37l5.98,16.37H19.07z"/>
		</g>
		<g>
			<path id="Fill-17" class="st0" d="M285.09,45.71h20.82l-10.3-25.81L285.09,45.71z M292.44,12.59h5.98l21.65,52.19h-6.55
				l-5.72-14.3h-24.48l-5.75,14.3h-6.55L292.44,12.59z"/>
		</g>
		<g>
			<path id="Fill-18" class="st0" d="M324.22,64.78h6.13V27.02h-6.13V64.78z M327.4,11.41c2.28,0.04,4.1,1.91,4.07,4.2
				c-0.04,2.28-1.91,4.1-4.2,4.07c-2.26-0.03-4.07-1.87-4.07-4.13c-0.09-2.19,1.62-4.04,3.81-4.13c0.05,0,0.11,0,0.16,0L327.4,11.41
				z"/>
		</g>
		<g>
			<path id="Fill-19" class="st0" d="M340.37,27.02h4.99l0.76,7.15c1.87-4.81,6.57-7.92,11.73-7.76c1.6,0.03,3.18,0.23,4.74,0.6
				l-0.7,5.05c-1.48-0.32-3-0.5-4.51-0.54c-6.36,0-10.87,5.21-10.87,12.71v20.53h-6.13V27.02z"/>
		</g>
		<g>
			<path id="Fill-20" class="st0" d="M374.29,56.1c-0.18,2.35,1.57,4.39,3.92,4.58c0.22,0.02,0.44,0.02,0.66,0
				c1.27-0.04,2.52-0.22,3.75-0.54l0.76,4.9c-1.91,0.43-3.86,0.66-5.82,0.7c-4.71,0.54-8.96-2.85-9.5-7.55
				c-0.06-0.51-0.07-1.02-0.04-1.54V10.11h6.13L374.29,56.1z"/>
		</g>
		<g>
			<path id="Fill-21" class="st0" d="M385.7,64.78h6.13V27.02h-6.13V64.78z M388.88,11.41c2.28,0.04,4.1,1.91,4.07,4.2
				c-0.04,2.28-1.91,4.1-4.2,4.07c-2.26-0.03-4.07-1.87-4.07-4.13c-0.09-2.19,1.62-4.04,3.81-4.13c0.11,0,0.22,0,0.32,0
				L388.88,11.41z"/>
		</g>
		<g>
			<path id="Fill-22" class="st0" d="M403.05,27.02h4.96l0.79,6.93c2.65-5.01,7.94-8.06,13.6-7.85c7.52-0.41,13.95,5.36,14.36,12.88
				c0.02,0.4,0.03,0.8,0.01,1.2v24.6h-6.36V41.1c0.15-5.26-4-9.65-9.27-9.8c-0.23-0.01-0.45,0-0.68,0.01
				c-6.3-0.02-11.42,5.08-11.44,11.38c0,0.27,0.01,0.55,0.03,0.82v21.27h-6.01V27.02z"/>
		</g>
		<g>
			<path id="Fill-23" class="st0" d="M448.19,43.52h23.3c-0.22-7.47-4.74-12.71-11.09-12.71C454.04,30.8,448.83,35.86,448.19,43.52
				 M460.4,26.1c10.11,0,17.1,7.85,17.1,19.07c0.05,0.75,0.05,1.51,0,2.26h-29.31c0.08,7.57,6.29,13.63,13.85,13.55
				c0.08,0,0.15,0,0.23,0c4.01-0.11,7.93-1.2,11.41-3.18l1.94,4.29c-4.32,2.28-9.11,3.53-13.99,3.66
				c-10.53,0.32-19.33-7.95-19.65-18.48c-0.01-0.45-0.01-0.91,0.01-1.36C441.99,34.27,449.59,26.1,460.4,26.1"/>
		</g>
		<g>
			<path id="Fill-24" class="st0" d="M493.99,26.1c4.37,0.06,8.68,0.96,12.71,2.64l-1.3,4.61c-3.42-1.55-7.12-2.4-10.87-2.51
				c-4.9,0-8.07,2.35-8.07,5.85c0,9.31,21.58,3.72,21.58,18.18c0,6.36-5.66,10.87-13.99,10.87c-4.82-0.07-9.59-1.05-14.05-2.89
				l1.46-4.58c3.84,1.68,7.96,2.61,12.14,2.73c5.05,0,8.39-2.51,8.39-6.13c0-9.54-21.68-4.07-21.68-18.18
				c0-6.13,5.66-10.58,13.73-10.58"/>
		</g>
	</g>
</g>
</svg>
