<?xml version="1.0" encoding="utf-8"?>
<!-- Generator: Adobe Illustrator 25.4.1, SVG Export Plug-In . SVG Version: 6.00 Build 0)  -->
<svg version="1.1" id="Layer_1" xmlns="http://www.w3.org/2000/svg" xmlns:xlink="http://www.w3.org/1999/xlink" x="0px" y="0px"
	 viewBox="0 0 98 80" style="enable-background:new 0 0 98 80;" xml:space="preserve">
<style type="text/css">
	.st0{fill:#DF0115;}
</style>
<path class="st0" d="M97.8,25.9C97,24.7,92.7,26,92.7,26c-2.4-2.7-7.6-0.4-7.6-0.4S35.8,44,30.3,45.7c-5.5,1.7-10.5-4.3-10.5-4.3
	l-9,5c0.6,0.7,0.7,1.1,2.4,0.4s3.9,0.9,7.8,4.7c3.9,3.9,11.2,0.8,11.2,0.8s60.6-23.5,62.4-24.1C96.2,27.5,98.6,27.1,97.8,25.9z"/>
<path class="st0" d="M40,77.8c-20.6,0-37.3-16.7-37.3-37.3C2.7,19.9,19.4,3.2,40,3.2c15,0,28,8.9,33.9,21.7l2.5-1
	C70.1,10.1,56.2,0.5,40,0.5c-22.1,0-40,17.9-40,40c0,22.1,17.9,40,40,40c21.9,0,39.7-17.6,40-39.4c-0.9,0-1.9,0-2.7,0.1
	C77,61.4,60.4,77.8,40,77.8z"/>
</svg>
