<?xml version="1.0" encoding="utf-8"?>
<!-- Generator: Adobe Illustrator 25.4.1, SVG Export Plug-In . SVG Version: 6.00 Build 0)  -->
<svg version="1.1" id="Layer_1" xmlns="http://www.w3.org/2000/svg" xmlns:xlink="http://www.w3.org/1999/xlink" x="0px" y="0px"
	 viewBox="0 0 338.5 80" style="enable-background:new 0 0 338.5 80;" xml:space="preserve">
<style type="text/css">
	.st0{fill:#DF0115;}
</style>
<g>
	<path class="st0" d="M96.2,25.5c-0.8-1.1-5.1,0.1-5.1,0.1c-2.4-2.6-7.4-0.4-7.4-0.4S35.2,43.3,29.8,44.9
		c-5.4,1.6-10.4-4.2-10.4-4.2l-8.9,4.9c0.6,0.7,0.6,1.1,2.4,0.4c1.7-0.7,3.8,0.9,7.6,4.6c3.9,3.8,11,0.8,11,0.8s59.6-23.1,61.3-23.7
		C94.6,27,97,26.6,96.2,25.5z"/>
	<path class="st0" d="M39.3,76.5c-20.3,0-36.7-16.4-36.7-36.7S19.1,3.1,39.3,3.1c14.8,0,27.5,8.8,33.3,21.4l2.4-1
		c-6.2-13.6-19.9-23-35.8-23C17.6,0.5,0,18.1,0,39.8s17.6,39.3,39.3,39.3c21.5,0,39-17.3,39.3-38.8c-0.9,0-1.9,0-2.6,0.1
		C75.7,60.4,59.4,76.5,39.3,76.5z"/>
	<path class="st0" d="M165.5,34.8h15.2l3.6,13.9h8L178.4,0h-9.2l-14.8,48.8h7.5L165.5,34.8z M173.2,5.6l6,23.4h-12.2L173.2,5.6z"/>
	<path class="st0" d="M210.4,48.8l7.2-34.7l8.2,34.7h9.4L244,0h-6.5c0,0-6.8,40.1-6.9,40.4s-9-40.4-9-40.4h-6.9l-8.8,41.4L199.5,0
		h-8.1l9.1,48.8H210.4z"/>
	<path class="st0" d="M249.5,48.8l3.7-13.9h15.2l3.6,13.9h8L266,0h-9.2L242,48.8H249.5z M260.9,5.6l6,23.4h-12.2L260.9,5.6z"/>
	<path class="st0" d="M217.4,50.7c0,0-0.7,2-1.3,4.1h-2l1.7,1.1c-0.5,1.6-1,2.9-1,3l2.7-1.8l2.7,1.8l-0.9-2.9l1.9-1.2h-2.3
		L217.4,50.7z"/>
	<rect x="149.6" y="55.2" class="st0" width="60.2" height="1.3"/>
	<rect x="225" y="55.2" class="st0" width="60.2" height="1.3"/>
	<path class="st0" d="M101.7,64.6l-5.4,15.1h2l1.5-4.6h5.9l1.6,4.6h2.1l-5.8-15.1H101.7z M100.4,73.5l1.5-4.4c0.3-1,0.6-1.9,0.8-2.9
		c0.2,0.8,0.5,1.9,1,3.1l1.5,4.2H100.4z"/>
	<polygon class="st0" points="111.1,79.7 112.9,79.7 112.9,72.9 119.5,72.9 119.5,71.1 112.9,71.1 112.9,66.4 120.5,66.4 
		120.5,64.6 111.1,64.6 	"/>
	<path class="st0" d="M131.4,73.6c-0.3-0.2-0.6-0.5-1.1-0.8c1.3-0.2,2.3-0.7,3-1.4c0.6-0.7,1-1.6,1-2.7c0-0.8-0.2-1.6-0.6-2.3
		c-0.4-0.7-0.9-1.2-1.6-1.4c-0.7-0.3-1.6-0.4-2.9-0.4H123v15.1h1.9V73h2.2c0.5,0,0.8,0,1,0.1c0.3,0.1,0.6,0.2,0.8,0.4
		c0.3,0.2,0.6,0.5,0.9,1c0.4,0.5,0.8,1.2,1.3,2.1l1.9,3.1h2.3l-2.4-4.1C132.4,74.8,131.9,74.2,131.4,73.6z M128.8,71.3h-4v-5h4.4
		c1,0,1.8,0.2,2.3,0.7c0.5,0.5,0.7,1,0.7,1.8c0,0.5-0.1,0.9-0.4,1.4c-0.2,0.4-0.6,0.7-1.1,0.9C130.3,71.2,129.7,71.3,128.8,71.3z"/>
	<rect x="137.4" y="64.6" class="st0" width="1.9" height="15.1"/>
	<path class="st0" d="M151.1,77.3c-0.7,0.6-1.6,1-2.6,1c-0.9,0-1.7-0.2-2.4-0.7c-0.7-0.5-1.3-1.2-1.6-2.2c-0.3-1-0.5-2.1-0.5-3.4
		c0-1,0.1-2,0.4-2.9c0.3-0.9,0.8-1.7,1.5-2.2c0.7-0.6,1.6-0.8,2.7-0.8c0.9,0,1.7,0.3,2.3,0.8c0.6,0.5,1.1,1.3,1.4,2.4l1.8-0.5
		c-0.4-1.4-1-2.5-2-3.2c-1-0.8-2.1-1.2-3.5-1.2c-1.2,0-2.4,0.3-3.4,0.9c-1,0.6-1.8,1.5-2.4,2.7c-0.6,1.2-0.8,2.5-0.8,4.1
		c0,1.4,0.2,2.8,0.7,4.1c0.5,1.3,1.2,2.2,2.2,2.9c0.9,0.7,2.2,1,3.7,1c1.5,0,2.7-0.4,3.7-1.3c1-0.9,1.7-2.1,2.1-3.8l-1.9-0.5
		C152.3,75.7,151.9,76.7,151.1,77.3z"/>
	<path class="st0" d="M160.6,64.6l-5.4,15.1h2l1.5-4.6h5.9l1.6,4.6h2.1l-5.8-15.1H160.6z M159.3,73.5l1.5-4.4c0.3-1,0.6-1.9,0.8-2.9
		c0.2,0.8,0.5,1.9,1,3.1l1.5,4.2H159.3z"/>
	<path class="st0" d="M186.9,74.3c-0.3,1.2-0.5,2.3-0.7,3.3c-0.2-1.7-0.6-3.5-1.1-5.4l-2-7.7h-2.2l-2.7,10.2
		c-0.1,0.2-0.3,1.2-0.6,2.8c-0.2-1-0.4-2.1-0.6-3.1l-2.1-9.9h-1.9l3.7,15.1h1.9l3-11.5c0.1-0.5,0.3-1.1,0.4-1.8
		c0,0.2,0.2,0.8,0.4,1.8l3,11.5h1.8l3.9-15.1h-1.9L186.9,74.3z"/>
	<path class="st0" d="M202.4,65.4c-1-0.7-2.2-1-3.5-1c-2,0-3.6,0.7-4.8,2.1c-1.3,1.4-1.9,3.4-1.9,5.9c0,1.3,0.3,2.6,0.8,3.8
		c0.5,1.2,1.3,2.1,2.4,2.8c1,0.7,2.2,1,3.5,1c1.2,0,2.4-0.3,3.4-0.9c1.1-0.6,1.9-1.5,2.4-2.7c0.6-1.2,0.9-2.6,0.9-4.1
		c0-1.5-0.3-2.9-0.8-4.1C204.2,66.9,203.4,66,202.4,65.4z M202.3,76.7c-0.9,1.1-2.1,1.6-3.5,1.6c-1.4,0-2.5-0.5-3.4-1.6
		c-0.9-1-1.4-2.5-1.4-4.3c0-2.3,0.5-3.9,1.4-4.9c0.9-1,2.1-1.5,3.4-1.5c0.9,0,1.8,0.3,2.5,0.8c0.7,0.5,1.3,1.2,1.7,2.1
		c0.4,0.9,0.6,2,0.6,3.2C203.7,74.1,203.2,75.6,202.3,76.7z"/>
	<path class="st0" d="M216.4,73.6c-0.3-0.2-0.6-0.5-1.1-0.8c1.3-0.2,2.3-0.7,3-1.4c0.6-0.7,1-1.6,1-2.7c0-0.8-0.2-1.6-0.6-2.3
		c-0.4-0.7-0.9-1.2-1.6-1.4c-0.7-0.3-1.6-0.4-2.9-0.4H208v15.1h1.9V73h2.2c0.5,0,0.8,0,1,0.1c0.3,0.1,0.6,0.2,0.8,0.4s0.6,0.5,0.9,1
		c0.4,0.5,0.8,1.2,1.3,2.1l1.9,3.1h2.3l-2.4-4.1C217.5,74.8,217,74.2,216.4,73.6z M213.9,71.3h-4v-5h4.4c1,0,1.8,0.2,2.3,0.7
		c0.5,0.5,0.7,1,0.7,1.8c0,0.5-0.1,0.9-0.4,1.4c-0.2,0.4-0.6,0.7-1.1,0.9C215.4,71.2,214.7,71.3,213.9,71.3z"/>
	<polygon class="st0" points="224,64.6 222.1,64.6 222.1,79.7 230.9,79.7 230.9,78 224,78 	"/>
	<path class="st0" d="M242.5,65.9c-0.6-0.5-1.3-0.9-2.1-1.1c-0.6-0.1-1.4-0.2-2.5-0.2h-4.8v15.1h5.1c0.8,0,1.6-0.1,2.3-0.3
		c0.7-0.2,1.2-0.4,1.7-0.8s0.9-0.8,1.3-1.4c0.4-0.6,0.7-1.3,1-2.2s0.4-1.9,0.4-3.1c0-1.3-0.2-2.5-0.6-3.6
		C243.8,67.5,243.2,66.6,242.5,65.9z M242.4,75c-0.2,0.8-0.6,1.4-1,1.9c-0.3,0.3-0.7,0.6-1.3,0.8c-0.5,0.2-1.3,0.3-2.2,0.3h-3V66.4
		h3c1.1,0,1.9,0.1,2.4,0.3c0.7,0.3,1.3,0.9,1.8,1.7c0.5,0.8,0.7,2.1,0.7,3.6C242.8,73.2,242.7,74.2,242.4,75z"/>
	<path class="st0" d="M255.5,64.6l-5.4,15.1h2l1.5-4.6h5.9l1.6,4.6h2.1l-5.8-15.1H255.5z M254.2,73.5l1.5-4.4c0.3-1,0.6-1.9,0.8-2.9
		c0.2,0.8,0.5,1.9,1,3.1l1.5,4.2H254.2z"/>
	<rect x="265" y="64.6" class="st0" width="1.9" height="15.1"/>
	<path class="st0" d="M278.6,73.6c-0.3-0.2-0.6-0.5-1.1-0.8c1.3-0.2,2.3-0.7,3-1.4c0.6-0.7,1-1.6,1-2.7c0-0.8-0.2-1.6-0.6-2.3
		c-0.4-0.7-0.9-1.2-1.6-1.4c-0.7-0.3-1.6-0.4-2.9-0.4h-6.2v15.1h1.9V73h2.2c0.5,0,0.8,0,1,0.1c0.3,0.1,0.6,0.2,0.8,0.4
		s0.6,0.5,0.9,1c0.4,0.5,0.8,1.2,1.3,2.1l1.9,3.1h2.3l-2.4-4.1C279.7,74.8,279.2,74.2,278.6,73.6z M276.1,71.3h-4v-5h4.4
		c1,0,1.8,0.2,2.3,0.7c0.5,0.5,0.7,1,0.7,1.8c0,0.5-0.1,0.9-0.4,1.4c-0.2,0.4-0.6,0.7-1.1,0.9C277.6,71.2,276.9,71.3,276.1,71.3z"/>
	<polygon class="st0" points="286.1,64.6 284.3,64.6 284.3,79.7 293.1,79.7 293.1,78 286.1,78 	"/>
	<rect x="295.6" y="64.6" class="st0" width="1.9" height="15.1"/>
	<polygon class="st0" points="310,76.5 302.6,64.6 300.7,64.6 300.7,79.7 302.5,79.7 302.5,67.9 309.9,79.7 311.8,79.7 311.8,64.6 
		310,64.6 	"/>
	<polygon class="st0" points="316.8,72.8 324.6,72.8 324.6,71 316.8,71 316.8,66.4 325.1,66.4 325.1,64.6 314.9,64.6 314.9,79.7 
		325.4,79.7 325.4,78 316.8,78 	"/>
	<path class="st0" d="M338,73.3c-0.4-0.6-1-1.1-1.8-1.5c-0.6-0.3-1.6-0.6-3.1-1c-1.5-0.4-2.4-0.7-2.8-1.1c-0.4-0.4-0.5-0.8-0.5-1.3
		c0-0.6,0.3-1.2,0.8-1.6c0.5-0.4,1.3-0.7,2.5-0.7c1.1,0,1.9,0.2,2.4,0.7c0.6,0.5,0.9,1.2,1,2.2l1.8-0.1c0-0.9-0.3-1.7-0.7-2.4
		c-0.4-0.7-1-1.2-1.8-1.6c-0.8-0.4-1.7-0.5-2.8-0.5c-0.9,0-1.8,0.2-2.6,0.5c-0.8,0.3-1.4,0.8-1.8,1.5c-0.4,0.7-0.6,1.4-0.6,2.1
		c0,0.7,0.2,1.3,0.5,1.9c0.3,0.6,0.8,1,1.5,1.4c0.5,0.3,1.4,0.6,2.7,0.9c1.3,0.3,2.1,0.6,2.5,0.7c0.6,0.2,1,0.5,1.3,0.9
		s0.4,0.8,0.4,1.2c0,0.5-0.1,0.9-0.4,1.3c-0.3,0.4-0.7,0.7-1.2,0.9c-0.5,0.2-1.2,0.3-1.9,0.3c-0.8,0-1.5-0.1-2.2-0.4
		c-0.6-0.3-1.1-0.7-1.4-1.2c-0.3-0.5-0.5-1.1-0.6-1.9l-1.8,0.2c0,1,0.3,1.9,0.8,2.7c0.5,0.8,1.2,1.4,2,1.8c0.9,0.4,1.9,0.6,3.2,0.6
		c1,0,1.9-0.2,2.7-0.6c0.8-0.4,1.4-0.9,1.8-1.7c0.4-0.7,0.6-1.5,0.6-2.3C338.5,74.7,338.3,73.9,338,73.3z"/>
</g>
</svg>
