<?xml version="1.0" encoding="utf-8"?>
<!-- Generator: Adobe Illustrator 25.4.1, SVG Export Plug-In . SVG Version: 6.00 Build 0)  -->
<svg version="1.1" xmlns="http://www.w3.org/2000/svg" xmlns:xlink="http://www.w3.org/1999/xlink" x="0px" y="0px"
	 viewBox="0 0 148.71 80" style="enable-background:new 0 0 148.71 80;" xml:space="preserve">
<style type="text/css">
	.st0{fill:#0B1560;}
</style>
<g id="Layer_2">
</g>
<g id="Layer_1">
	<path class="st0" d="M0,80h53.59c0,0,11.47-0.44,15.97-8.86c4.5-8.42,14.09-26.58,14.09-26.58s0.87-2.76,5.95-2.76s28.32,0,28.32,0
		s3.34,0.73,5.52-3.05c2.18-3.78,5.23-9.22,5.23-9.22h-36.6l7.55-12.56c0,0,2.03-4.79,12.2-4.79s21.49,0,21.49,0
		s7.7,1.45,10.89-4.07c3.19-5.52,4.5-7.99,4.5-7.99H93.67c0,0-15.1-2.18-24.25,11.62L48.22,45c0,0-5.95,12.2-18.88,12.49
		c-12.93,0.29-19.32,2.47-22.07,7.7S0,80,0,80z"/>
</g>
</svg>
