<?xml version="1.0" encoding="utf-8"?>
<!-- Generator: Adobe Illustrator 26.0.2, SVG Export Plug-In . SVG Version: 6.00 Build 0)  -->
<svg version="1.1"
	 id="logosvg.com" inkscape:version="0.48.1 " sodipodi:docname="AJAX.svg" xmlns:cc="http://creativecommons.org/ns#" xmlns:dc="http://purl.org/dc/elements/1.1/" xmlns:inkscape="http://www.inkscape.org/namespaces/inkscape" xmlns:rdf="http://www.w3.org/1999/02/22-rdf-syntax-ns#" xmlns:sodipodi="http://sodipodi.sourceforge.net/DTD/sodipodi-0.dtd" xmlns:svg="http://www.w3.org/2000/svg"
	 xmlns="http://www.w3.org/2000/svg" xmlns:xlink="http://www.w3.org/1999/xlink" x="0px" y="0px" viewBox="0 0 726.9 80"
	 style="enable-background:new 0 0 726.9 80;" xml:space="preserve">
<style type="text/css">
	.st0{fill:#0B1560;}
</style>
<path id="blue" class="st0" d="M65.2,3.1c3.7-1.9,7.7-2.9,11.9-2.9c18.5,0,36.9,0,55.4,0c-2.5,5.4-5,12.3-11.7,13.1
	c-17.1,0.4-34.2,0-51.5,0.2c-4.2,0-8.5,2.1-10.2,6.2c-3.7,7.3-6.9,14.6-10.6,21.9c14.6,0,29.4,0,44,0c-1.3,2.5-2.3,5.2-4.2,7.3
	c-2.5,1.9-5.8,1.5-8.7,1.7c-11.3-0.2-22.7,0.2-34.2-0.2c-4,7.7-7.5,15.8-11.5,23.5c-1.7,3.7-5.8,6-9.8,6c-8.1,0-16,0.4-24-0.2v-0.4
	c0.2,0,0.4,0.2,0.6,0.2c6.9-15,14-29.6,21.2-44.4c3.5-7.5,9.4-13.5,16.7-17.5C47.3,12.3,56.3,7.7,65.2,3.1z M141.7,6.7
	c1.9-3.8,6.2-6.3,10.4-6.3c7.9-0.2,15.6,0,23.5,0c-11.5,24.2-23.3,48.5-35,72.7c-1.5,4-5.6,6.7-10,6.7c-8.1,0.2-16.2,0-24.2,0
	C118.3,55.4,130,31,141.7,6.7z M206.9,0.6c2.5-1.3,5.6,0.2,6.9,2.5c11.5,15.8,23.1,31.5,34.6,47.3c1.3,1.7,2.3,3.7,3.3,5.6
	c7.3-14.6,14.2-29.4,21.3-44c1.9-3.7,3.1-8.1,6.9-10c5.4-2.9,11.5-1.3,17.3-1.7c-12.9,26.5-25.6,52.9-38.5,79.4
	c-6.5,0-13.1,0.2-19.4-0.2c-4-0.2-7.1-3.1-9.4-6.2c-9-11.9-17.9-23.8-26.9-35.8c-1.9-2.5-3.8-5-5.2-7.7c-7.3,14.4-14,29.2-21.2,43.8
	c-1.7,3.3-5,5.6-8.7,5.8c-4.2,0.2-8.5,0-12.7,0c9-19.4,18.3-38.7,27.5-57.9c2.9-6.3,7.5-12.1,13.7-15.8C200,4,203.3,2.3,206.9,0.6z
	 M331.9,0.6c2.5-1.3,5.4,0.2,6.9,2.3c11.5,15.8,23.1,31.5,34.6,47.3c1.3,1.7,2.3,3.7,3.3,5.6c8.1-16.3,15.8-32.9,23.8-49.2
	c1.7-3.7,5.4-6,9.2-6.3c4.2-0.4,8.3,0,12.5-0.2c-12.7,26.5-25.6,52.9-38.3,79.4c-6.5-0.2-13.1,0.2-19.6-0.2
	c-4.2-0.2-7.5-3.7-9.8-6.9c-10.2-13.7-20.6-27.1-30.6-41c-0.4-0.2-1-0.8-1.3-1.2c-6.5,14-13.3,27.9-20,41.7
	c-1.5,3.5-4.4,6.5-8.3,6.9c-4.6,0.4-9,0-13.7,0.2c7.3-16.3,15.2-32.3,22.9-48.5c3.3-6.3,5.8-13.5,10.6-18.8
	C318.8,6.7,325.6,3.7,331.9,0.6z M468.5,3.3c3.7-1.9,7.7-3.1,11.7-2.9c8.7,0,17.5,0,26.2,0c6.3,0,12.5,2.3,17.5,6.3
	c5.6,4.2,11.3,8.5,16.9,12.7c2.5,1.7,2.7,5,1.3,7.5c-8.5,17.7-16.9,35.2-25.4,52.7c-7.3,0-14.4,0.2-21.7,0c-3.8,0.2-7.1-4.2-5.2-7.7
	c3.1-7.3,6.9-14.2,10.2-21.3c-17.1,0-34.2,0-51.3,0c-3.7,7.5-7.3,15.2-11.2,22.9c-1.7,3.5-5.2,6.3-9.2,6.3c-8.3,0.2-16.5,0-24.6,0.2
	c7.1-15,14.4-30,21.5-45c3.5-7.3,9.4-13.5,16.5-17.5C450.6,12.5,459.6,7.9,468.5,3.3 M463.5,19.6c-3.7,7.3-6.9,14.6-10.6,21.9
	c17.1,0,34.2,0,51.3,0c3.5-7.3,6.9-14.4,10.4-21.5c0.6-1.5,1.9-3.1,1.2-4.8c-1.3-1.9-3.8-1.5-6-1.7c-12.1,0-24.2,0-36.3,0
	C469.2,13.3,465.2,15.8,463.5,19.6z M571.2,9.2c1.5-4.4,5.2-8.5,10.2-8.8c8.3-0.4,16.5,0,25-0.2c-11.2,24.2-23.1,48.1-34.6,72.1
	c-1.5,3.8-5.2,7.1-9.4,7.3c-8.3,0.2-16.7,0-25,0C548.7,56.2,559.8,32.7,571.2,9.2L571.2,9.2z M643.3,8.7c6.7-3.1,13.3-8.3,21.2-8.3
	c9,0,18.3-0.2,27.3,0c8.3,0.2,15.4,5,21.5,10.2c4.4,3.8,10,6.5,13.7,11.3v2.9c-2.1,5.4-4.6,10.8-7.3,15.8c-3.1,5.4-9.8,7.1-15.6,7.9
	c-9.6,0.8-19.2-0.2-28.8,0.6c0.2,0.4,0.8,1.2,1.2,1.5c5.6,2.1,13.5,0.2,16.7,6.2c4.6,7.7,9.2,15.4,14,23.3c-9.4-0.2-18.7,0-28.1-0.2
	c-3.7,0.2-6.9-1.7-8.7-4.8c-4.2-6.7-8.1-13.7-12.3-20.6c-1.5-2.7-4-5-7.3-5.4c-5.4-0.6-10.8,0-16.2-0.2c-4,7.9-7.7,15.8-11.5,23.7
	c-1.7,3.8-5.2,7.1-9.6,7.1c-8.3,0.2-16.5,0-24.6,0.2c7.7-16,15.2-32.1,23.1-47.9C618.3,19.6,631.9,15,643.3,8.7 M647.9,19
	c-3.5,6.9-6.7,13.8-10.2,20.8c13.8,0,27.5,0,41.3,0c4.6,0,10.2-1,12.7-5.4c2.5-4.8,4.6-9.6,6.9-14.4c0.6-1.5,1.9-3.3,1-5
	c-1.3-1.7-3.8-1.5-5.8-1.5c-12.1,0-24.2,0-36.3,0C653.7,13.5,649.8,15.4,647.9,19L647.9,19z"/>
</svg>
