<?xml version="1.0" encoding="utf-8"?>
<!-- Generator: Adobe Illustrator 25.4.1, SVG Export Plug-In . SVG Version: 6.00 Build 0)  -->
<svg version="1.1" xmlns="http://www.w3.org/2000/svg" xmlns:xlink="http://www.w3.org/1999/xlink" x="0px" y="0px"
	 viewBox="0 0 346.18 80" style="enable-background:new 0 0 346.18 80;" xml:space="preserve">
<style type="text/css">
	.st0{fill:#BE210C;}
	.st1{fill:#00663F;}
</style>
<g id="Layer_2">
</g>
<g id="Layer_1">
	<g>
		<path class="st0" d="M73.44,80l6.47-46.04L35.68,80"/>
		<path class="st1" d="M88.61,0c-8.46,0-14.34,2.18-21.92,10.44L0,80h25.4l65.78-68.5L81.55,80h19.5l11.22-80"/>
		<path class="st1" d="M236.97,33.58c-2.73-1.18-6.42-1.73-11.25-1.73h-19.25l-6.02,9.83h21.14c4.07,0,5.12,1.24,5.12,3.55
			c0,0.69-0.11,1.59-0.25,2.54c-0.06,0.24-0.11,0.68-0.19,1.29h-8.7c-9.01,0-14.81,1.14-19.4,5.82c-2.6,2.65-4.55,7.18-4.55,12.94
			c0,4.46,1.9,7.9,5.2,9.89c2.2,1.32,6.23,2.31,12.1,2.31h28.11l3.95-28.09c0.35-2.53,0.74-5.07,0.74-8.46
			C243.7,39.5,241.87,35.69,236.97,33.58z M223.25,70.37h-8.21c-2.01,0-3.44-0.38-4.46-1.14l0,0c-0.99-0.75-1.5-1.88-1.5-3.38
			c0-3.56,2.17-6.21,6.36-6.93c0.86-0.15,2.79-0.23,3.85-0.23h5.61L223.25,70.37z"/>
		<path class="st1" d="M339.45,33.58c-2.73-1.18-6.42-1.73-11.25-1.73H305l-1.38,9.83h20.45c4.06,0,5.12,1.24,5.12,3.55
			c0,0.69-0.11,1.59-0.25,2.54c-0.06,0.24-0.11,0.68-0.19,1.29h-8.7c-9.01,0-14.81,1.14-19.4,5.82c-2.6,2.65-4.55,7.18-4.55,12.94
			c0,4.46,1.9,7.9,5.19,9.89c2.2,1.32,6.24,2.31,12.1,2.31h28.12l3.94-28.09c0.36-2.53,0.74-5.07,0.74-8.46
			C346.18,39.5,344.35,35.69,339.45,33.58z M325.74,70.37h-8.21c-2.02,0-3.44-0.38-4.46-1.14l0,0c-1-0.75-1.5-1.88-1.5-3.38
			c0-3.56,2.17-6.21,6.36-6.93c0.86-0.15,2.79-0.23,3.84-0.23h5.6L325.74,70.37z"/>
		<polygon class="st1" points="141.25,31.85 134.48,80 151.58,80 158.35,31.85 		"/>
		<polygon class="st1" points="278.75,31.85 271.98,80 289.08,80 295.84,31.85 		"/>
		<polygon class="st1" points="117.65,20.06 109.22,80 126.32,80 134.74,20.06 		"/>
		<polygon class="st1" points="142.91,20.06 141.75,28.31 158.85,28.31 160.01,20.06 		"/>
		<path class="st1" d="M168.05,20.06l-6.24,44.46c-0.35,2.48-0.55,4.4-0.55,5.62c0,1.81,0.14,2.68,0.43,3.77
			c1.14,4.39,4.53,6.09,9.69,6.09h16.4l1.48-9.83h-6.76c-2.84,0-3.87-0.91-3.87-2.77c0-0.58,0.06-1.38,0.21-2.39l3.28-23.34h11.62
			l6.02-9.83h-16.26l1.66-11.79L168.05,20.06z"/>
		<polygon class="st1" points="255.24,20.06 246.81,80 263.91,80 272.34,20.06 		"/>
		<polyline class="st1" points="280.4,20.06 279.24,28.31 296.34,28.31 297.5,20.06 		"/>
	</g>
</g>
</svg>
