<?xml version="1.0" encoding="utf-8"?>
<!-- Generator: Adobe Illustrator 25.4.1, SVG Export Plug-In . SVG Version: 6.00 Build 0)  -->
<svg version="1.1" xmlns="http://www.w3.org/2000/svg" xmlns:xlink="http://www.w3.org/1999/xlink" x="0px" y="0px"
	 viewBox="0 0 101.1 80" style="enable-background:new 0 0 101.1 80;" xml:space="preserve">
<style type="text/css">
	.st0{fill:#84BCE3;}
	.st1{fill:#4B4F54;}
</style>
<g id="Layer_2">
</g>
<g id="Layer_1">
	<path class="st0" d="M79.4,18.4c-12,0-21.7,9.7-21.7,21.7s9.7,21.7,21.7,21.7s21.7-9.7,21.7-21.7C101,28.1,91.4,18.4,79.4,18.4z
		 M79.4,50.1c-5.5,0-10.1-4.5-10.1-10.1c0-5.5,4.5-10.1,10.1-10.1c5.5,0,10.1,4.5,10.1,10.1C89.4,45.6,84.9,50.1,79.4,50.1z"/>
	<path class="st1" d="M57.1,57.6c-4.4,4.3-10.5,6.9-17.1,6.9c-13.6,0-24.6-11-24.6-24.6s11-24.6,24.6-24.6c6.6,0,12.7,2.7,17.1,6.9
		c3.2-4.1,7.6-7.3,12.6-9.1C62.4,5.2,51.8,0,40,0C17.9,0,0,17.9,0,40s17.9,40,40,40c11.8,0,22.4-5.2,29.7-13.3
		C64.7,64.9,60.4,61.8,57.1,57.6z"/>
</g>
</svg>
