<?xml version="1.0" encoding="utf-8"?>
<!-- Generator: Adobe Illustrator 25.4.1, SVG Export Plug-In . SVG Version: 6.00 Build 0)  -->
<svg version="1.1" id="Layer_1" xmlns="http://www.w3.org/2000/svg" xmlns:xlink="http://www.w3.org/1999/xlink" x="0px" y="0px"
	 viewBox="0 0 80.36 80" style="enable-background:new 0 0 80.36 80;" xml:space="preserve">
<style type="text/css">
	.st0{fill:#455CC7;}
</style>
<g>
	<path class="st0" d="M36.63,31.46c4.66-2.07,10.36,0.52,11.91,5.18c2.07,4.66-0.52,10.36-5.18,11.91
		c-4.66,2.07-10.36-0.52-11.91-5.18C29.9,38.71,31.97,33.53,36.63,31.46"/>
	<path class="st0" d="M46.99,79.61c0,0.52,0.52,0.52,1.04,0l1.04-4.66c0-0.52,0.52-0.52,0.52,0l3.11,4.14c0,0.52,0.52,0,1.04-0.52
		V73.4c0,0,0-0.52,0.52-0.52h0.52l3.62,3.62c0.52,0.52,1.04,0,0.52-0.52l-0.52-5.18c0-0.52,0.52-0.52,0.52-0.52l4.14,2.59
		c0.52,0,0.52,0,0.52-0.52l-1.55-5.7l0,0L49.58,52.69h-0.52c-0.52,0.52-1.55,1.04-2.07,1.04c-1.04,0.52-1.55,0.52-2.59,0.52
		c0,0-0.52,0-0.52,0.52l1.04,18.64l0,0L46.99,79.61z"/>
	<path class="st0" d="M33.01,0.39c0-0.52-0.52-0.52-1.04,0l-0.52,4.66c0,0.52-0.52,0.52-0.52,0l-3.11-3.62c0-0.52-0.52,0-0.52,0.52
		v5.18v0.52H26.8L22.65,3.5c-0.52-0.52-1.04,0-0.52,0.52l0.52,5.18c0,0.52-0.52,0.52-0.52,0.52L17.48,6.6c-0.52,0-0.52,0-0.52,0.52
		l1.55,5.7l0,0L30.94,26.8h0.52c0.52-0.52,1.55-1.04,2.07-1.55c1.04-0.52,1.55-0.52,2.59-0.52c0,0,0.52,0,0.52-0.52L35.6,5.57l0,0
		L33.01,0.39z"/>
	<path class="st0" d="M80.13,33.01c0.52,0,0-0.52,0-1.04l-5.18-1.04c-0.52,0-0.52-0.52,0-0.52l4.14-3.11c0.52-0.52,0-0.52,0-0.52
		h-5.18c0,0-0.52,0-0.52-0.52v-0.52l3.62-3.62c0.52-0.52,0-0.52-0.52-0.52l-5.18,0.52c-0.52,0-0.52-0.52-0.52-0.52l2.59-4.14
		c0-0.52,0-0.52-0.52-0.52l-5.7,1.55l0,0L53.72,31.46v0.52c0.52,0.52,1.04,1.55,1.55,2.07c0.52,1.04,0.52,1.55,0.52,2.59
		c0,0,0,0.52,0.52,0.52l18.64-1.04l0,0L80.13,33.01z"/>
	<path class="st0" d="M0.39,46.99c-0.52,0-0.52,0.52,0,1.04l4.66,1.04c0.52,0,0.52,0.52,0,0.52l-4.14,3.11c-0.52,0,0,0.52,0.52,0.52
		H6.6c0,0,0.52,0,0.52,0.52v0.52L3.5,57.86c-0.52,0.52,0,0.52,0.52,0.52l5.18-0.52c0.52,0,0.52,0.52,0.52,0.52l-2.59,4.14
		c0,0.52,0,0.52,0.52,0.52l5.7-1.55l0,0l13.98-12.43v-0.52c-0.52-0.52-1.04-1.55-1.55-2.07c-0.52-1.04-0.52-1.55-0.52-2.59
		c0,0,0-0.52-0.52-0.52L6.08,44.4l0,0L0.39,46.99z"/>
	<path class="st0" d="M73.4,63.04c0.52,0,0.52-0.52,0.52-0.52l-2.59-4.14c0-0.52,0-0.52,0.52-0.52l4.66,0.52
		c0.52,0,0.52-0.52,0.52-0.52l-3.62-3.62v-0.52c0,0,0-0.52,0.52-0.52h5.18c0.52,0,0.52-0.52,0-0.52l-4.14-3.11
		c-0.52,0,0-0.52,0-0.52l4.66-1.04c0.52,0,0.52-0.52,0-1.04l-5.18-2.59l0,0l-18.64-1.04c0,0-0.52,0-0.52,0.52
		c0,1.04-0.52,1.55-0.52,2.59c-0.52,1.04-1.04,1.55-1.55,2.07v0.52l13.98,12.43l0,0L73.4,63.04z"/>
	<path class="st0" d="M7.12,16.96c-0.52,0-0.52,0.52-0.52,0.52l2.59,4.14c0,0.52,0,0.52-0.52,0.52l-4.66-0.52
		c-0.52,0-0.52,0.52-0.52,0.52l3.62,3.62v0.52c0,0,0,0.52-0.52,0H1.42c-0.52,0-0.52,0.52,0,1.04l4.14,3.11c0.52,0,0,0.52,0,0.52
		l-4.66,1.04c-0.52,0-0.52,0.52,0,1.04l5.18,2.59l0,0l18.64,1.04c0,0,0.52,0,0.52-0.52c0-1.04,0.52-1.55,0.52-2.59
		c0.52-1.04,1.04-1.55,1.55-2.07v-0.52L13.33,18.51l0,0L7.12,16.96z"/>
	<path class="st0" d="M63.56,7.12c0-0.52-0.52-0.52-0.52-0.52L58.9,9.19c-0.52,0-0.52,0-0.52-0.52l0.52-4.66
		c0-0.52-0.52-0.52-0.52-0.52l-3.62,3.62h-0.52c0,0-0.52,0,0-0.52V1.42c0-0.52-0.52-0.52-1.04,0L50.1,5.57c0,0.52-0.52,0-0.52,0
		l-1.04-5.18c0-0.52-0.52-0.52-1.04,0l-2.59,5.18l0,0l-1.55,18.64c0,0,0,0.52,0.52,0.52c1.04,0,1.55,0.52,2.59,0.52
		c1.04,0.52,1.55,1.04,2.07,1.55h0.52l12.43-13.98l0,0L63.56,7.12z"/>
	<path class="st0" d="M16.96,72.88c0,0.52,0.52,0.52,0.52,0.52l4.14-2.59c0.52,0,0.52,0,0.52,0.52l-0.52,4.66
		c0,0.52,0.52,0.52,0.52,0.52l3.62-3.62h0.52c0,0,0.52,0,0.52,0.52v5.18c0,0.52,0.52,0.52,1.04,0l3.11-4.14c0-0.52,0.52,0,1.04,0
		l1.04,5.18c0,0.52,0.52,0.52,1.04,0l2.59-5.18l0,0l1.04-18.64c0,0,0-0.52-0.52-0.52c-1.04,0-1.55-0.52-2.59-0.52
		c-1.04-0.52-1.55-1.04-2.07-1.55h-0.52L19.55,67.18l0,0L16.96,72.88z"/>
</g>
</svg>
