<?xml version="1.0" encoding="utf-8"?>
<!-- Generator: Adobe Illustrator 25.4.1, SVG Export Plug-In . SVG Version: 6.00 Build 0)  -->
<svg version="1.1" id="Layer_1" xmlns="http://www.w3.org/2000/svg" xmlns:xlink="http://www.w3.org/1999/xlink" x="0px" y="0px"
	 viewBox="0 0 284.97 80" style="enable-background:new 0 0 284.97 80;" xml:space="preserve">
<style type="text/css">
	.st0{fill:#455CC7;}
</style>
<g>
	<g>
		<path class="st0" d="M226.58,11.44c1.7-0.75,3.77,0.19,4.33,1.88c0.75,1.7-0.19,3.77-1.88,4.33c-1.7,0.75-3.77-0.19-4.33-1.88
			C224.13,14.08,224.89,12.2,226.58,11.44"/>
		<path class="st0" d="M230.35,28.96c0,0.19,0.19,0.19,0.38,0l0.38-1.7c0-0.19,0.19-0.19,0.19,0l1.13,1.51c0,0.19,0.19,0,0.38-0.19
			V26.7c0,0,0-0.19,0.19-0.19h0.19l1.32,1.32c0.19,0.19,0.38,0,0.19-0.19l-0.19-1.88c0-0.19,0.19-0.19,0.19-0.19l1.51,0.94
			c0.19,0,0.19,0,0.19-0.19l-0.57-2.07l0,0l-4.52-5.09h-0.19c-0.19,0.19-0.57,0.38-0.75,0.38c-0.38,0.19-0.57,0.19-0.94,0.19
			c0,0-0.19,0-0.19,0.19l0.38,6.78l0,0L230.35,28.96z"/>
		<path class="st0" d="M225.26,0.14c0-0.19-0.19-0.19-0.38,0l-0.19,1.7c0,0.19-0.19,0.19-0.19,0l-1.13-1.32c0-0.19-0.19,0-0.19,0.19
			v1.88v0.19H223l-1.51-1.51c-0.19-0.19-0.38,0-0.19,0.19l0.19,1.88c0,0.19-0.19,0.19-0.19,0.19l-1.7-1.13c-0.19,0-0.19,0-0.19,0.19
			l0.57,2.07l0,0l4.52,5.09h0.19c0.19-0.19,0.57-0.38,0.75-0.57c0.38-0.19,0.57-0.19,0.94-0.19c0,0,0.19,0,0.19-0.19l-0.38-6.78l0,0
			L225.26,0.14z"/>
		<path class="st0" d="M242.4,12.01c0.19,0,0-0.19,0-0.38l-1.88-0.38c-0.19,0-0.19-0.19,0-0.19l1.51-1.13c0.19-0.19,0-0.19,0-0.19
			h-1.88c0,0-0.19,0-0.19-0.19V9.37l1.32-1.32c0.19-0.19,0-0.19-0.19-0.19l-1.88,0.19c-0.19,0-0.19-0.19-0.19-0.19l0.94-1.51
			c0-0.19,0-0.19-0.19-0.19l-2.07,0.57l0,0l-4.9,4.71v0.19c0.19,0.19,0.38,0.57,0.57,0.75c0.19,0.38,0.19,0.57,0.19,0.94
			c0,0,0,0.19,0.19,0.19l6.78-0.38l0,0L242.4,12.01z"/>
		<path class="st0" d="M213.4,17.09c-0.19,0-0.19,0.19,0,0.38l1.7,0.38c0.19,0,0.19,0.19,0,0.19l-1.51,1.13
			c-0.19,0,0,0.19,0.19,0.19h1.88c0,0,0.19,0,0.19,0.19v0.19l-1.32,1.32c-0.19,0.19,0,0.19,0.19,0.19l1.88-0.19
			c0.19,0,0.19,0.19,0.19,0.19l-0.94,1.51c0,0.19,0,0.19,0.19,0.19l2.07-0.57l0,0l5.09-4.52v-0.19c-0.19-0.19-0.38-0.57-0.57-0.75
			c-0.19-0.38-0.19-0.57-0.19-0.94c0,0,0-0.19-0.19-0.19l-6.78,0.38l0,0L213.4,17.09z"/>
		<path class="st0" d="M239.95,22.93c0.19,0,0.19-0.19,0.19-0.19l-0.94-1.51c0-0.19,0-0.19,0.19-0.19l1.7,0.19
			c0.19,0,0.19-0.19,0.19-0.19l-1.32-1.32v-0.19c0,0,0-0.19,0.19-0.19h1.88c0.19,0,0.19-0.19,0-0.19l-1.51-1.13
			c-0.19,0,0-0.19,0-0.19l1.7-0.38c0.19,0,0.19-0.19,0-0.38l-1.88-0.94l0,0l-6.78-0.38c0,0-0.19,0-0.19,0.19
			c0,0.38-0.19,0.57-0.19,0.94c-0.19,0.38-0.38,0.57-0.57,0.75v0.19l5.09,4.52l0,0L239.95,22.93z"/>
		<path class="st0" d="M215.84,6.17c-0.19,0-0.19,0.19-0.19,0.19l0.94,1.51c0,0.19,0,0.19-0.19,0.19l-1.7-0.19
			c-0.19,0-0.19,0.19-0.19,0.19l1.32,1.32v0.19c0,0,0,0.19-0.19,0h-1.88c-0.19,0-0.19,0.19,0,0.38l1.51,1.13c0.19,0,0,0.19,0,0.19
			l-1.7,0.38c-0.19,0-0.19,0.19,0,0.38l1.88,0.94l0,0l6.78,0.38c0,0,0.19,0,0.19-0.19c0-0.38,0.19-0.57,0.19-0.94
			c0.19-0.38,0.38-0.57,0.57-0.75v-0.19l-5.09-4.52l0,0L215.84,6.17z"/>
		<path class="st0" d="M236.37,2.59c0-0.19-0.19-0.19-0.19-0.19l-1.51,0.94c-0.19,0-0.19,0-0.19-0.19l0.19-1.7
			c0-0.19-0.19-0.19-0.19-0.19l-1.32,1.32h-0.19c0,0-0.19,0,0-0.19V0.52c0-0.19-0.19-0.19-0.38,0l-1.13,1.51c0,0.19-0.19,0-0.19,0
			l-0.38-1.88c0-0.19-0.19-0.19-0.38,0l-0.94,1.88l0,0l-0.57,6.78c0,0,0,0.19,0.19,0.19c0.38,0,0.57,0.19,0.94,0.19
			c0.38,0.19,0.57,0.38,0.75,0.57h0.19l4.52-5.09l0,0L236.37,2.59z"/>
		<path class="st0" d="M219.42,26.51c0,0.19,0.19,0.19,0.19,0.19l1.51-0.94c0.19,0,0.19,0,0.19,0.19l-0.19,1.7
			c0,0.19,0.19,0.19,0.19,0.19l1.32-1.32h0.19c0,0,0.19,0,0.19,0.19v1.88c0,0.19,0.19,0.19,0.38,0l1.13-1.51c0-0.19,0.19,0,0.38,0
			l0.38,1.88c0,0.19,0.19,0.19,0.38,0l0.94-1.88l0,0l0.38-6.78c0,0,0-0.19-0.19-0.19c-0.38,0-0.57-0.19-0.94-0.19
			c-0.38-0.19-0.57-0.38-0.75-0.57h-0.19l-4.52,5.09l0,0L219.42,26.51z"/>
		<path class="st0" d="M48.59,63.99c0,8.66-6.78,15.26-20.34,15.26H0V21.24h26.75c14.13,0,18.83,8.29,18.83,15.26
			c0,7.53-3.77,11.11-8.1,13C42.57,51.18,48.59,55.33,48.59,63.99 M6.59,47.23h19.96c6.22,0,12.05-3.01,12.05-9.98
			c0-4.9-3.2-9.61-11.3-9.61H6.59C6.59,27.64,6.59,47.23,6.59,47.23z M41.81,63.43c0-5.46-4.14-10.36-13.56-10.36H6.59v19.96h22.22
			C37.1,73.03,41.81,69.45,41.81,63.43"/>
		<path class="st0" d="M91.35,66.63h7.35C95.49,74.54,88.9,80,78.16,80c-13.75,0-22.79-9.98-22.79-22.6
			c0-12.43,8.48-22.6,22.41-22.6s22.41,9.98,22.41,22.6v2.64H62.34c0.94,7.72,6.78,13.94,16.01,13.94
			C84.57,73.97,88.9,70.96,91.35,66.63 M62.34,53.82h30.7c-1.32-7.53-6.59-13.18-15.26-13.18C68.93,40.64,63.66,46.47,62.34,53.82"
			/>
		<rect x="108.3" y="18.03" class="st0" width="6.78" height="61.21"/>
		<path class="st0" d="M161.98,42.52v-7.16h6.78v43.7h-6.78v-6.97c-3.39,4.71-8.66,7.72-16.2,7.72c-13.18,0-21.85-9.98-21.85-22.6
			c0-12.43,8.66-22.6,21.85-22.6C153.31,34.8,158.59,37.81,161.98,42.52 M162.35,57.4c0-9.04-5.65-16.57-15.63-16.57
			s-16.01,7.53-16.01,16.57s6.03,16.57,16.01,16.57S162.35,66.44,162.35,57.4"/>
		<polygon class="st0" points="218.29,35.55 200.59,79.25 192.68,79.25 174.97,35.55 182.51,35.55 196.63,72.28 210.76,35.55 		"/>
		<rect x="224.51" y="35.55" class="st0" width="6.78" height="43.7"/>
		<path class="st0" d="M278.19,42.52v-7.16h6.78v43.7h-6.78v-6.97c-3.39,4.71-8.66,7.72-16.2,7.72c-13.18,0-21.85-9.98-21.85-22.6
			c0-12.43,8.66-22.6,21.85-22.6C269.52,34.8,274.8,37.81,278.19,42.52 M278.56,57.4c0-9.04-5.65-16.57-15.63-16.57
			c-9.98,0-16.01,7.53-16.01,16.57s6.03,16.57,16.01,16.57C272.91,73.97,278.56,66.44,278.56,57.4"/>
	</g>
</g>
</svg>
