<?xml version="1.0" encoding="utf-8"?>
<!-- Generator: Adobe Illustrator 25.4.1, SVG Export Plug-In . SVG Version: 6.00 Build 0)  -->
<svg version="1.1" id="Layer_1" xmlns="http://www.w3.org/2000/svg" xmlns:xlink="http://www.w3.org/1999/xlink" x="0px" y="0px"
	 viewBox="0 0 307.5 80" style="enable-background:new 0 0 307.5 80;" xml:space="preserve">
<style type="text/css">
	.st0{fill:#0C0C11;}
	.st1{fill:#1B96D3;}
	.st2{fill:#D7A429;}
	.st3{fill:#313F98;}
</style>
<path class="st0" d="M84.9-885.5c-0.7-0.1-1.8,0-2.5,0c0.5-0.4,1.2-0.7,1.6-0.5c0.1,0,0.1,0,0.2,0.1
	C84.4-885.8,84.7-885.6,84.9-885.5z"/>
<g>
	<path class="st1" d="M186.9,53.8H205l7.2-10.6c2.8,0,7.3,0,10.8,0l-0.5,10.6h19.2l0.9-37.6h-27.9L186.9,53.8z M223.4,36.2
		c-1.7,0-4.1,0-6.5,0l7-10.3L223.4,36.2z"/>
	<polygon class="st1" points="260,53.8 270.6,27.3 253.8,27.3 242.6,53.8 	"/>
	<polygon class="st1" points="275,16.3 258.3,16.3 255,24 271.6,24 	"/>
	<path class="st1" d="M300.3,27.6c-2.8,1.3-6.2,4.2-8.2,6.1l2.3-6.4H278l-10.4,26.5h17.4l4.4-12.2c0.8-2,3.4-7.3,8.3-6.2
		c6.1,1.2,6.5,0.8,6.5,0.8l3.5-8.9C307.5,27.3,304.6,25.6,300.3,27.6z"/>
	<path class="st2" d="M67.8,56.2c-7.4-2.9-43.5-17,7.4-38.6S228.1,5.5,228.1,5.5C214.6,1.2,166.7,0,147.1,0c-19.6,0-52.7,1.2-92,9.2
		S0,31.1,0,39.7c0,8.5,19.2,35.7,129.5,39.8s160.5-18,160.5-18s-47.6,11.7-111.6,11.7S75.2,59.1,67.8,56.2z"/>
	<polygon class="st3" points="130.4,16.3 95.8,16.3 94.5,19.3 124.4,19.3 85.3,50.6 84.2,53.8 122.5,53.8 123.6,50.4 90.7,50.4 
		129.5,19.3 	"/>
	<path class="st3" d="M179.6,53.8h4.2l6.7-18.5c0,0,2.7-8.2-7.1-8.9c-9.8-0.8-15.3,6.5-15.3,6.5l1.8-5.9h-3.9l-9.5,27h4.1l6.4-17.2
		c0,0,4.4-7.6,11.7-7.4c7.4,0.2,8.4,3.5,6.6,8.5S179.6,53.8,179.6,53.8z"/>
	<path class="st3" d="M157.1,31.4c-0.8-2.6-5.2-4.8-10.4-4.4s-10.8,1.2-15.1,7.5l4.2,0.5c0,0,3.4-6.1,11.6-5.4
		c8.2,0.8,5.3,7,4.7,8.7c0,0-22.5-2-26.2,8.6c-3.8,10.6,11.9,8.4,15.9,6.4s6.6-4.5,6.6-4.5s-1.5,4.2,0.8,5.4c2.3,1.2,3.9-0.5,3.5-2
		c-0.4-1.4-0.2-3.3,1.6-8.1S157.9,34,157.1,31.4z M141.3,51c-1.5,0.6-14.3,4-11.2-4c3.1-8,20.9-6,20.9-6
		C149.6,47.4,142.8,50.4,141.3,51z"/>
</g>
</svg>
