<?xml version="1.0" encoding="utf-8"?>
<!-- Generator: Adobe Illustrator 25.4.1, SVG Export Plug-In . SVG Version: 6.00 Build 0)  -->
<svg version="1.1" id="Layer_1" xmlns="http://www.w3.org/2000/svg" xmlns:xlink="http://www.w3.org/1999/xlink" x="0px" y="0px"
	 viewBox="0 0 406.6 80" style="enable-background:new 0 0 406.6 80;" xml:space="preserve">
<style type="text/css">
	.st0{fill:#175EA7;}
</style>
<g>
	<path class="st0" d="M205.4,17.8c0-4.4-3.6-8-8-8v36.3h8V17.8z"/>
	<path class="st0" d="M181.1,24.3c0,0,0-4.5,3.6-4.5c4.2,0.1,6.8,0,6.8,0V11H186c0,0-12.9,0.3-12.9,12.1v23.1h8V24.3z"/>
	<rect x="313.4" y="39.3" class="st0" width="6.8" height="6.8"/>
	<path class="st0" d="M15.5,9.4C5.5,9.4,0,18.7,0,27.1c0,8.3,3.4,19.4,16.1,19.4s15-11.2,15-11.2h-7.9c0,0,0.2,4.1-7.3,4.1
		c-4.4,0-6-4.5-6.6-8.5h22.2v-6.4C31.4,18.1,25.5,9.4,15.5,9.4z M23.1,24.5H9.1c0.2-2,1.2-7.2,7.4-7.2c5.6,0,6.7,5.1,6.9,7.2H23.1z"
		/>
	<path class="st0" d="M51.7,9.4c-11.8,0-14.8,7.1-15.2,9.9l8.6,0.3c0,0,0.5-2.7,4.9-2.7c4.5,0,5.8,1.5,5.8,3.2
		c0,1.8-1.3,2.7-5.2,3.4c-3.9,0.8-15.5,2-15.5,11.1c0,9.1,7.2,11.7,13.5,11.7c6.2,0,16.1-5.7,16.1-11.6c0-5.9,0-16,0-16
		S63.5,9.4,51.7,9.4z M55.9,33.6c0,0-1.7,5.7-6.9,5.7s-5.3-3.7-4.5-5.4c0.8-1.7,11.4-5.4,11.4-5.4V33.6z"/>
	<path class="st0" d="M136.3,9.4c-11.8,0-14.8,7.1-15.2,9.9l8.6,0.3c0,0,0.5-2.7,4.9-2.7c4.5,0,5.8,1.5,5.8,3.2
		c0,1.8-1.3,2.7-5.2,3.4c-3.9,0.8-15.5,2-15.5,11.1c0,9.1,7.2,11.7,13.5,11.7c6.2,0,16.1-5.7,16.1-11.6c0-5.9,0-16,0-16
		S148,9.4,136.3,9.4z M140.5,33.6c0,0-1.7,5.7-6.9,5.7c-5.2,0-5.3-3.7-4.5-5.4c0.8-1.7,11.4-5.4,11.4-5.4V33.6z"/>
	<path class="st0" d="M261.2,23.6c-3.9,0.8-15.5,2-15.5,11.1c0,9.1,7.2,11.7,13.5,11.7c6.2,0,16.1-5.7,16.1-11.6c0-5.9,0-16,0-16
		s-1.2-9.4-12.9-9.4c-11.8,0-14.8,7.1-15.2,9.9l8.6,0.3c0,0,0.5-2.7,4.9-2.7c4.5,0,5.8,1.5,5.8,3.2
		C266.4,21.9,265.1,22.8,261.2,23.6z M266.5,28.5v5.1c0,0-1.7,5.7-6.9,5.7c-5.2,0-5.3-3.7-4.5-5.4C256,32.1,266.5,28.5,266.5,28.5z"
		/>
	<path class="st0" d="M90.3,25.4c-4-1.4-10.7-3.2-11.5-4.5c-0.8-1.3-0.5-4.1,4.6-4.1s7,4.1,7,4.1h7.4c0-8.6-7.5-11.4-14.6-11.4
		c-7.1,0-14.1,3.3-14.1,11.4s9.2,10.5,15.1,11.6c6,1.1,5,3.7,5,3.7s-0.5,3.1-6,3.1c-5.5,0-6-5.4-6-5.4h-9c0,7.5,6.2,12.6,15.5,12.6
		c9.3,0,15.5-5.2,15.5-10.7C99.1,30.2,94.3,26.8,90.3,25.4z"/>
	<path class="st0" d="M112.4,6.4c0-3.5-2.8-6.4-6.4-6.4h-3.3v38.2c0,4.4,3.6,8,8,8h0.7h1h4.4v-7.4h-4.4V17.5
		c2.7-0.2,4.8-2.4,4.8-5.1v-1.8h-4.8V6.4z"/>
	<path class="st0" d="M226.3,54.4c0-1.6-1.3-3-3-3h-1.5v17.8c0,2.1,1.7,3.7,3.7,3.7h0.3h0.5h2.1v-3.4h-2.1v-9.9
		c1.2-0.1,2.2-1.1,2.2-2.4v-0.8h-2.2V54.4z"/>
	<path class="st0" d="M161.6,0H161c-4.4,0-8,3.6-8,8v38.2h9.6v-26c3.2-0.1,5.8-2.7,5.8-5.9v-1.7h-5.8V8.1h5.8V0h-5.8H161.6z"/>
	<path class="st0" d="M206.5,3c0-1.7-1.4-3-3-3h-6.1v7.8h9.1V3z"/>
	<path class="st0" d="M233.7,35.3c-1.6,1.9-3.8,3.1-6.2,3.1c-4.8,0-8.8-4.6-8.8-10.2c0-5.6,3.9-10.2,8.8-10.2c2.6,0,5,1.4,6.6,3.5
		h8.9c-2.4-7-8.6-12.1-15.8-12.1c-9.4,0-17,8.4-17,18.8c0,10.4,7.6,18.8,17,18.8c7.1,0,13.2-4.8,15.7-11.6H233.7z"/>
	<path class="st0" d="M287.8,23.1c0,0-0.1-5.7,6.2-5.7s7.1,3.5,7.1,5.7v18.9c0,2.3,1.9,4.2,4.2,4.2h3.8V23.1c0,0,0.7-13.6-14.1-13.6
		c-14.8,0-15.1,12.1-15.1,13.6v23.1h8V23.1z"/>
	<path class="st0" d="M272.6,55.8H272V73h3.8V59C275.8,57.2,274.4,55.8,272.6,55.8z"/>
	<path class="st0" d="M202.2,55.6c-5.6,0-7,3.3-7.2,4.7l4.1,0.1c0,0,0.2-1.3,2.3-1.3c2.1,0,2.8,0.7,2.8,1.5s-0.6,1.3-2.5,1.6
		c-1.8,0.4-7.3,1-7.3,5.3c0,4.3,3.4,5.5,6.4,5.5c2.9,0,7.6-2.7,7.6-5.5c0-2.8,0-7.6,0-7.6S207.8,55.6,202.2,55.6z M204.2,67.1
		c0,0-0.8,2.7-3.3,2.7c-2.5,0-2.5-1.7-2.1-2.6c0.4-0.8,5.4-2.6,5.4-2.6V67.1z"/>
	<path class="st0" d="M162.2,63.2c-1.9-0.7-5-1.5-5.4-2.1s-0.2-1.9,2.2-1.9c2.4,0,3.3,1.9,3.3,1.9h3.5c0-4.1-3.6-5.4-6.9-5.4
		c-3.3,0-6.7,1.6-6.7,5.4s4.3,5,7.2,5.5c2.8,0.5,2.4,1.8,2.4,1.8s-0.2,1.4-2.8,1.4c-2.6,0-2.9-2.6-2.9-2.6h-4.2
		c0,3.6,2.9,5.9,7.3,5.9c4.4,0,7.3-2.5,7.3-5.1C166.4,65.4,164.1,63.8,162.2,63.2z"/>
	<path class="st0" d="M243.3,51.2h-0.2c-2.1,0-3.8,1.7-3.8,3.8v18h4.6V60.7c1.5-0.2,2.7-1.4,2.7-3v-0.6h-2.7V55h2.7v-3.8h-2.7H243.3
		z"/>
	<path class="st0" d="M273.3,51.2H272v3.7h4.3v-0.7C276.3,52.5,275,51.2,273.3,51.2z"/>
	<path class="st0" d="M210.8,62.1V73h3.8V62.7c0,0,0-2.1,1.7-2.1c2,0,3.2,0,3.2,0v-4.2h-2.6C216.9,56.4,210.8,56.5,210.8,62.1z"/>
	<path class="st0" d="M285.5,55.6c-7,0-7.2,5.7-7.2,6.4V73h3.8V62.1c0,0,0-2.7,2.9-2.7c3,0,3.4,1.6,3.4,2.7V71c0,1.1,0.9,2,2,2h1.8
		V62.1C292.1,62.1,292.5,55.6,285.5,55.6z"/>
	<path class="st0" d="M185.4,55.6c-2.4,0-4,0.7-5.1,1.6c-1-0.9-2.5-1.6-4.8-1.6c-7,0-7.2,5.7-7.2,6.4V73h3.8V62.1c0,0,0-2.7,2.9-2.7
		c2.2,0,2.9,0.9,3.2,1.8c-0.1,0.5-0.1,0.8-0.1,0.9V73h2.2h1.6h0.2V62.1c0,0,0-0.4,0-0.9c0.3-0.8,0.9-1.8,2.8-1.8
		c3,0,3.4,1.6,3.4,2.7V71c0,1.1,0.9,2,2,2h1.8V62.1C192.1,62.1,192.4,55.6,185.4,55.6z"/>
	<path class="st0" d="M335.9,27.1c1.8,0,3.3,0.9,4.4,2.3h5.9c-1.6-4.7-5.7-8-10.6-8c-6.3,0-11.3,5.6-11.3,12.5
		c0,6.9,5.1,12.5,11.3,12.5c4.7,0,8.8-3.2,10.5-7.7H340c-1.1,1.3-2.5,2-4.2,2c-3.2,0-5.9-3.1-5.9-6.8
		C330,30.2,332.6,27.1,335.9,27.1z"/>
	<path class="st0" d="M397.2,21.4c-3.5,0-5.8,1-7.3,2.4c-1.4-1.4-3.5-2.4-6.8-2.4c-9.9,0-10.1,8-10.1,9.1v15.4h5.3V30.5
		c0,0,0-3.8,4.1-3.8c3.7,0,4.5,1.8,4.7,3.2c0,0.3,0,0.5,0,0.6v15.4h2.9h2.5h0.1V30.5c0,0,0-0.2,0-0.5c0.2-1.1,0.9-3.3,4.1-3.3
		c4.2,0,4.7,2.3,4.7,3.8v12.6c0,1.5,1.3,2.8,2.8,2.8h2.5V30.5C406.6,30.5,407.1,21.4,397.2,21.4z"/>
	<path class="st0" d="M360.3,21.4c-0.1,0-0.2,0-0.3,0c-0.2,0-0.3,0-0.5,0c0,0,0,0,0,0c0,0-0.1,0-0.1,0c-6.3,0-11.3,5.6-11.3,12.5
		c0,6.6,4.7,12,10.5,12.5c0.1,0,0.2,0,0.3,0c0.2,0,0.3,0,0.5,0c0,0,0,0,0,0c0,0,0.1,0,0.1,0c6.3,0,11.3-5.6,11.3-12.5
		C370.8,27.3,366.2,21.9,360.3,21.4z M359.4,40.7c-3.1-0.1-5.7-3.1-5.7-6.8c0-3.7,2.5-6.7,5.7-6.8c3.1,0.1,5.7,3.1,5.7,6.8
		C365.1,37.6,362.6,40.6,359.4,40.7z"/>
	<path class="st0" d="M249.7,51.2h-2.2V73h4.1V53.1C251.6,52,250.7,51.2,249.7,51.2z"/>
	<path class="st0" d="M262.1,65.6l-3.7-8.7h-3.8l5.4,14.2c0,0,1.3,5-3.9,5V80c0,0,5,0.7,6.8-3.9c1.8-4.6,6.2-19.1,6.2-19.1H265
		L262.1,65.6z"/>
	<path class="st0" d="M302,55.6c-7,0-8.3,5.1-8.3,8.7c0,0,0,9,7.3,9c2,0,3.5-0.5,4.6-1.3c0.1,1.6-0.2,4.6-3.8,4.6c0,0-1.8,0.1-3.2-2
		l-3.4,0.2c0,0,1.6,5.1,6.8,5.1c5.2,0,7.3-4.1,7.3-7c0-2.9,0-8.3,0-8.3C309.5,63.2,309.1,55.6,302,55.6z M301.7,69.7
		c-2.1,0-3.8-2.3-3.8-5c0-2.8,1.7-5,3.8-5c2.1,0,3.8,2.3,3.8,5C305.5,67.4,303.8,69.7,301.7,69.7z"/>
</g>
</svg>
