<?xml version="1.0" encoding="utf-8"?>
<!-- Generator: Adobe Illustrator 25.4.1, SVG Export Plug-In . SVG Version: 6.00 Build 0)  -->
<svg version="1.1" id="Layer_1" xmlns="http://www.w3.org/2000/svg" xmlns:xlink="http://www.w3.org/1999/xlink" x="0px" y="0px"
	 viewBox="0 0 237 80" style="enable-background:new 0 0 237 80;" xml:space="preserve">
<style type="text/css">
	.st0{fill:#003876;}
</style>
<g>
	<path class="st0" d="M7.7,18.36h9.13v48.93C16.83,74.89,11.28,80,3.58,80H0v-8.59h2.59c3.13,0,5.11-1.44,5.11-4.84V18.36z"/>
	<rect x="7.7" y="0" class="st0" width="9.13" height="9.13"/>
	<path class="st0" d="M60.15,36.98c0-11.73-8.69-19.16-18.71-19.16c-8.78,0-18.71,5.73-18.71,23.37c0,18.62,10.83,23.1,20.15,23.1
		c6.08,0,11.91-2.15,16.38-7.34l-6.62-5.64c-2.69,2.77-6.45,4.39-9.94,4.39c-6.27,0-10.83-3.76-10.83-11.2h28.29V36.98z
		 M31.85,36.98c0.18-6.89,4.21-10.56,9.58-10.56c5.37,0,9.31,3.67,9.58,10.56H31.85z"/>
	<path class="st0" d="M67.39,4.57h9.13v13.79h6.62v6.98h-6.62v26.41c0,2.51,0.98,3.4,3.21,3.4h3.41v8.59H78.4
		c-6.36,0-11.01-4.04-11.01-11.19V25.34h-4.57v-6.98h4.57C67.39,18.36,67.39,4.57,67.39,4.57z"/>
	<path class="st0" d="M123.16,30.98V30.8c7.43-3.31,9.4-8.42,9.4-13.7c0-10.03-6.45-17.1-18.89-17.1H88.96v63.75h26.86
		c9.58,0,17.73-7.07,17.73-18.08C133.54,39.22,130.14,32.59,123.16,30.98z M98.63,8.6h13.96c6.98,0,10.3,4.21,10.3,9.13
		c0,5.01-3.31,9.13-10.3,9.13H98.63V8.6z M113.49,54.61H98.63V35.46h14.87c7.16,0,10.38,4.56,10.38,9.58
		C123.87,50.05,120.66,54.61,113.49,54.61z"/>
	<path class="st0" d="M138.79,0h9.13v52.02c0,2.06,1.16,3.13,3.41,3.13h3.13v8.59h-4.03c-6.63,0-11.64-2.86-11.64-11.01V0z"/>
	<path class="st0" d="M158.31,18.36h9.13v27.04c0,6.18,3.85,9.76,9.05,9.76c5.1,0,8.95-3.58,8.95-9.76V18.36h9.14v45.39h-9.14v-4.84
		h-0.17c-2.87,3.58-6.99,5.38-11.73,5.38c-7.16,0-15.22-5.46-15.22-15.76V18.36z"/>
	<path class="st0" d="M236.91,36.98c0-11.73-8.69-19.16-18.71-19.16c-8.77,0-18.72,5.73-18.72,23.37c0,18.62,10.84,23.1,20.15,23.1
		c6.1,0,11.91-2.15,16.39-7.34l-6.63-5.64c-2.69,2.77-6.44,4.39-9.93,4.39c-6.27,0-10.84-3.76-10.84-11.2l28.29,0V36.98z
		 M208.61,36.98c0.19-6.89,4.21-10.56,9.58-10.56c5.37,0,9.31,3.67,9.58,10.56H208.61z"/>
</g>
</svg>
