<?xml version="1.0" encoding="utf-8"?>
<!-- Generator: Adobe Illustrator 25.4.1, SVG Export Plug-In . SVG Version: 6.00 Build 0)  -->
<svg version="1.1" id="Layer_1" xmlns="http://www.w3.org/2000/svg" xmlns:xlink="http://www.w3.org/1999/xlink" x="0px" y="0px"
	 viewBox="0 0 204 80" style="enable-background:new 0 0 204 80;" xml:space="preserve">
<style type="text/css">
	.st0{fill:#003876;}
</style>
<g>
	<path class="st0" d="M78.04,62.92h-3.71l-8.2,16.67h3.46l1.77-3.83h9.6l1.74,3.83h3.44L78.04,62.92z M72.7,72.96l3.48-7.43
		l3.48,7.43H72.7z"/>
	<rect x="90.56" y="62.92" class="st0" width="3.25" height="16.67"/>
	<path class="st0" d="M112.17,72.8c2.45-0.14,4.65-1.83,4.65-4.9c0-4.08-2.84-4.98-6.78-4.98h-10.02v16.67h0v0h3.26v-6.55h5.16
		l4.84,6.55h4.01L112.17,72.8z M103.28,70.33v-4.7h6.28c2.66,0,4.01,0.39,4.01,2.34c0,1.97-1.35,2.36-4.01,2.36H103.28z"/>
	<polygon class="st0" points="120.93,62.92 124.18,62.92 127.4,74.38 127.44,74.38 130.63,62.92 133.75,62.92 136.98,74.36 
		137.02,74.36 140.21,62.92 143.4,62.92 138.54,79.59 135.42,79.59 132.25,67.76 132.21,67.76 129.02,79.59 125.84,79.59 	"/>
	<path class="st0" d="M157.15,62.92h-3.71l-8.2,16.67h3.46l1.76-3.83h9.6l1.74,3.83h3.44L157.15,62.92z M151.81,72.96L151.81,72.96
		l3.49-7.43l3.48,7.43H151.81z"/>
	<polygon class="st0" points="173.09,72.91 164.95,62.92 168.94,62.92 174.71,69.98 180.47,62.92 184.48,62.92 176.34,72.91 
		176.34,79.59 173.09,79.59 	"/>
	<path class="st0" d="M200.18,67.99c-0.53-1.49-1.88-2.77-5.84-2.77c-2.2,0-4.42,0.55-4.42,2.08c0,0.71,0.41,1.47,3.74,1.88
		l3.94,0.6c3.74,0.57,5.94,2.02,5.94,4.81c0,3.94-3.76,5.41-8.21,5.41c-7.15,0-8.89-3.53-9.29-4.79l3.14-0.99
		c0.6,1.21,1.83,2.98,6.24,2.98c2.66,0,4.86-0.87,4.86-2.32c0-1.08-1.24-1.79-3.62-2.09l-3.99-0.55c-3.85-0.53-6.01-2.2-6.01-4.75
		c0-5,6.49-5,7.77-5c7.18,0,8.41,3.32,8.82,4.47L200.18,67.99z"/>
	<path class="st0" d="M5.72,13.65h6.79v36.38c0,5.66-4.13,9.45-9.86,9.45H0V53.1h1.93c2.33,0,3.8-1.07,3.8-3.6V13.65z"/>
	<rect x="5.72" y="0" class="st0" width="6.79" height="6.79"/>
	<path class="st0" d="M44.72,27.5c0-8.72-6.46-14.25-13.91-14.25c-6.53,0-13.92,4.26-13.92,17.38c0,13.85,8.05,17.18,14.98,17.18
		c4.52,0,8.85-1.6,12.18-5.46l-4.92-4.19c-2,2.06-4.79,3.26-7.39,3.26c-4.66,0-8.06-2.8-8.06-8.32h21.04V27.5z M23.69,27.5
		c0.13-5.13,3.13-7.85,7.13-7.85c4,0,6.92,2.73,7.12,7.85H23.69z"/>
	<path class="st0" d="M50.11,3.4h6.79v10.25h4.92v5.19H56.9v19.64c0,1.87,0.73,2.53,2.39,2.53h2.53v6.39h-3.53
		c-4.73,0-8.19-3-8.19-8.32V18.84h-3.4v-5.19h3.4C50.11,13.65,50.11,3.4,50.11,3.4z"/>
	<path class="st0" d="M91.58,23.03V22.9c5.53-2.46,6.99-6.26,6.99-10.19C98.57,5.26,93.78,0,84.52,0H66.15v47.4h19.97
		c7.13,0,13.18-5.26,13.18-13.45C99.3,29.16,96.77,24.24,91.58,23.03z M73.34,6.39h10.38c5.19,0,7.66,3.13,7.66,6.79
		c0,3.73-2.46,6.79-7.66,6.79H73.34V6.39z M84.39,40.61H73.34V26.37h11.05c5.32,0,7.72,3.39,7.72,7.12
		C92.11,37.22,89.72,40.61,84.39,40.61z"/>
	<path class="st0" d="M103.21,0H110v38.68c0,1.53,0.87,2.33,2.54,2.33h2.33v6.39h-3c-4.93,0-8.66-2.13-8.66-8.19V0z"/>
	<path class="st0" d="M117.72,13.65h6.79v20.1c0,4.6,2.86,7.26,6.73,7.26c3.79,0,6.65-2.66,6.65-7.26v-20.1h6.79V47.4h-6.79v-3.6
		h-0.13c-2.13,2.66-5.2,4-8.73,4c-5.32,0-11.32-4.06-11.32-11.72V13.65z"/>
	<path class="st0" d="M176.16,27.5c0-8.72-6.46-14.25-13.92-14.25c-6.52,0-13.92,4.26-13.92,17.38c0,13.85,8.06,17.18,14.98,17.18
		c4.53,0,8.86-1.6,12.19-5.46l-4.93-4.19c-2,2.06-4.79,3.26-7.39,3.26c-4.66,0-8.06-2.8-8.06-8.32l21.04,0V27.5z M155.12,27.5
		c0.14-5.13,3.13-7.85,7.12-7.85c3.99,0,6.92,2.73,7.13,7.85H155.12z"/>
</g>
</svg>
