<?xml version="1.0" encoding="utf-8"?>
<!-- Generator: Adobe Illustrator 25.4.1, SVG Export Plug-In . SVG Version: 6.00 Build 0)  -->
<svg version="1.1" id="Layer_1" xmlns="http://www.w3.org/2000/svg" xmlns:xlink="http://www.w3.org/1999/xlink" x="0px" y="0px"
	 viewBox="0 0 107.66 80" style="enable-background:new 0 0 107.66 80;" xml:space="preserve">
<style type="text/css">
	.st0{fill:#F1471C;}
	.st1{fill:#00A650;}
</style>
<g>
	<path id="path2440" class="st0" d="M102.36,0.04h5.29L80.11,80h-5.25L102.36,0.04"/>
	<path class="st1" d="M62.59,0.04L0,80l72.38-0.04L99.68,0L62.59,0.04z M68.64,51.88c0.28,0.33-5.96-0.66-5.96-0.66
		s-3.52,11.49-3.66,12.01c-0.14-0.52-3.66-12.01-3.66-12.01s-6.24,0.99-5.96,0.66c0.28-0.33,2.72-5.21,2.72-5.21L41.71,45.6
		l9.8-4.69l-2.11-6.71l6.1,1.92l3.52-13.7l3.52,13.7l6.1-1.92l-2.11,6.71l9.8,4.69l-10.41,1.08C65.92,46.68,68.36,51.55,68.64,51.88
		z"/>
</g>
</svg>
