<?xml version="1.0" encoding="utf-8"?>
<!-- Generator: Adobe Illustrator 25.4.1, SVG Export Plug-In . SVG Version: 6.00 Build 0)  -->
<svg version="1.1" id="Layer_1" xmlns="http://www.w3.org/2000/svg" xmlns:xlink="http://www.w3.org/1999/xlink" x="0px" y="0px"
	 viewBox="0 0 564.1 80" style="enable-background:new 0 0 564.1 80;" xml:space="preserve">
<style type="text/css">
	.st0{fill:#F1471C;}
	.st1{fill:#00A650;}
</style>
<path id="path2440" class="st0" d="M558.8,0.04h5.29L536.55,80h-5.25L558.8,0.04"/>
<path id="path2450" class="st1" d="M116.82,79.16h-14.94V47.93h14.94V79.16z"/>
<path id="path2454" class="st1" d="M94.79,47.92H79.83v17.21L65.86,47.92H50.93v31.24h14.89V61.97l14.21,17.19h14.75V47.92"/>
<path id="path2458" class="st1" d="M32.42,47.92L32.42,47.92l-3.54,0.01v20.24c0,1.72-2.09,3.12-4.66,3.12h-4.67
	c-2.58,0-4.67-1.4-4.67-3.12V47.93H9.33c0,0-0.01,0-0.01,0H0.04v5.7C0.01,53.81,0,53.99,0,54.17v18.74c0,3.45,4.18,6.25,9.33,6.25
	h25.19c5.16,0,9.33-2.8,9.33-6.25v-25H32.42"/>
<path id="path2462" class="st1" d="M164.52,79.16h14.67l-15.94-31.23h-17.13L130.1,79.2h14.75l2.2-4.45h15.3L164.52,79.16z
	 M150.95,66.89l3.77-7.6l3.75,7.6H150.95"/>
<path id="path2464" class="st1" d="M198.6,79.16h-14.48V48h14.48V79.16z"/>
<path id="path2468" class="st1" d="M242.56,65.02c3.69,0,3.62-4.16,3.62-4.16v-5.39c0-6.83-7.23-7.47-7.23-7.47L205.66,48v31.16
	h14.48V68.41h9.61c2.01,0,1.97,2,1.97,2v8.75h14.48v-8.75C246.19,65.39,242.56,65.02,242.56,65.02z M230.09,60.38h-10.11v-4.52
	h10.11c1.24,0,2.26,1.01,2.26,2.26C232.35,59.37,231.33,60.38,230.09,60.38"/>
<path id="path2472" class="st1" d="M278.88,47.35v3.85h-16.63v4.31h38.39v-4.31h-16.37v-3.85H278.88z M272.07,56.9l-5.31,1.39
	l4.53,17.2h-9.4v4.46h39.1v-4.46h-9.39l4.91-18.59h-5.67l-4.91,18.59h-8.95L272.07,56.9z"/>
<path id="path2480" class="st1" d="M420.8,47.21v2.5h-16.12c-0.61,0-0.93,0.28-0.96,0.81v7.48h4.99v-3.71c0-0.3,0.17-0.45,0.51-0.45
	h28.81c0.34,0,0.51,0.15,0.51,0.45v3.71h4.99v-7.48c-0.03-0.54-0.34-0.81-0.96-0.81h-16.45v-2.5H420.8z M416.54,55.92l-1.79,2.65
	c-0.5,0.75-0.9,0.81-2.85,0.81h-6.96l0.02,4.16l10.81,0.02c1.76,0,3.11-0.98,3.93-2.6l2.77-5.04H416.54z M424.7,55.92v4.64
	c0,2.15,1.23,2.97,3.7,3h13.83v-4.18h-10.78c-0.63,0-0.95-0.27-0.95-0.83v-2.64H424.7z M405.73,65.59v4.16h15.07v5.74h-17.05v4.43
	h39.87v-4.43h-17.51v-5.74h15.39v-4.16H405.73z"/>
<path id="path2496" class="st1" d="M316.87,47.33v3.63c0,1.51-0.67,2.76-2.01,3.8c-1.32,1.11-3.27,2.01-5.87,2.65l1.94,2.54h-1.08
	c-0.62,0-0.94,0.25-0.96,0.78v7.5h5.02v-3.73c0-0.29,0.16-0.43,0.5-0.43h11.99v1.77h-10.86v3.85h8.39
	c-4.31,2.12-9.25,3.62-14.83,4.48l2.16,3.95c4.57-0.71,9.51-2.45,15.14-5.29v7.08h4.99v-7.03c3.71,2.19,8.63,3.85,14.43,5.36
	l2.85-3.8c-6.17-1.21-11.28-2.59-14.94-4.74h8.42v-3.85H331.4v-1.77h11.96c0.34,0,0.5,0.14,0.5,0.43v3.73h5.01v-7.5
	c-0.03-0.53-0.36-0.78-0.98-0.78h-1.26l1.63-1.91c-2.74-1.62-5.57-3.1-8.46-4.43c0.2-0.74,0.32-1.44,0.35-2.09v-4.2h-4.76v4.2
	c0,1.88-1.18,3.45-3.55,4.66c-0.8,0.42-1.75,0.77-2.87,1.06l2.34,2.7h-5.61l2.19-2.35c-2.23-1.44-4.5-2.77-6.82-3.98
	c0.38-0.91,0.56-1.79,0.56-2.65v-3.63H316.87z M343.36,47.68c-0.45,1.35-1.35,3.08-2.67,5.14l4.08,1.51
	c1.28-1.97,2.19-3.75,2.7-5.29L343.36,47.68z M324.64,47.73c-0.45,1.35-1.33,3.1-2.62,5.22l4.06,1.49c1.11-1.8,1.96-3.41,2.49-4.83
	c0.61,1.12,1.21,2.64,1.81,4.56l4.28-1.01c-0.63-2.19-1.36-3.99-2.22-5.41l-4.06,1.16L324.64,47.73z M313.06,47.81L309,49.27
	c0.85,1.21,1.74,2.93,2.65,5.17l4.2-1.33C314.99,50.96,314.06,49.2,313.06,47.81z M319.06,56.7c1.74,1.11,3.29,2.19,4.68,3.25h-9.82
	C315.86,59.07,317.59,57.99,319.06,56.7z M338,56.76c1.94,1.09,3.69,2.15,5.26,3.18h-9.97c1-0.44,1.88-0.9,2.62-1.38
	C336.68,58.04,337.37,57.44,338,56.76z"/>
<path id="path2520" class="st1" d="M364.73,46.5c-0.2,0.76-0.58,1.76-1.14,2.94h-3.71c-0.87,0-1.21,0.4-1.21,1.23v10.96L356,61.86
	l0.93,3.98l1.69-0.17c-0.09,4.94-0.89,9.31-2.37,13.15l5.39,0.98c1.35-3.98,2.02-8.15,2.06-12.52v-2.06l1.08-0.1v8.92h4v-9.29
	l1.09-0.1v10.81c0,0.2-0.16,0.37-0.45,0.45c-0.37,0.09-1.8-0.07-4.28-0.48l0.78,4.38c3.18,0.15,5.12,0.19,5.82,0.13
	c0.73-0.09,1.41-0.41,2.09-0.9c0.3-0.21,0.61-0.66,0.61-0.66c0.39-0.36,0.45-2.47,0.45-2.47V64.21l2.4-0.22l-0.58-3.98l-1.82,0.17
	v-9.6c0-0.89-0.41-1.14-1.28-1.14h-4.58c0.2-0.59,0.39-1.16,0.56-1.69L364.73,46.5z M383.76,47.26v3.27h-7.61v4.16h20.2v-4.16h-7.38
	v-3.27H383.76z M364.17,53.45h5.19c0.32,0,0.49,0.16,0.5,0.45v4.16c-0.39-0.56-0.77-1.14-1.18-1.76c-0.74-1.04-1.25-1.75-1.54-2.17
	l-3.45,1.36v-1.61C363.69,53.59,363.85,53.45,364.17,53.45z M363.69,56.42c1.23,1.77,2.09,3.11,2.62,4l3.55-1.16v1.38l-6.17,0.55
	V56.42z M379.94,56.65c-0.42,0-0.75,0.35-0.75,0.76v16.47c-0.04,0.43-0.24,0.98-0.98,0.96c0,0-0.15-0.02-1.96-0.02l0.02,5.07
	c0,0,3.68,0.11,5.07-0.22c0,0,2.85-0.45,2.92-5.27v-0.02V61.26c0-0.29,0.18-0.43,0.5-0.43h3.07c0.31,0,0.46,0.14,0.48,0.4v13.68
	l0.02,0.03c0.04,4,2.92,4.74,2.92,4.74c1.38,0.32,5.09,0.22,5.09,0.22v-5.07c-1.81,0-1.86,0.02-1.86,0.02
	c-0.83,0-0.98-0.49-1.06-0.88V57.68v-0.27c0-0.42-0.35-0.76-0.76-0.76H379.94z"/>
<path class="st1" d="M519.03,0.04L456.44,80l72.38-0.04L556.12,0L519.03,0.04z M525.08,51.88c0.28,0.33-5.96-0.66-5.96-0.66
	s-3.52,11.49-3.66,12.01c-0.14-0.52-3.66-12.01-3.66-12.01s-6.24,0.99-5.96,0.66c0.28-0.33,2.72-5.21,2.72-5.21l-10.41-1.08
	l9.8-4.69l-2.11-6.71l6.1,1.92l3.52-13.7l3.52,13.7l6.1-1.92l-2.11,6.71l9.8,4.69l-10.41,1.08
	C522.36,46.68,524.8,51.55,525.08,51.88z"/>
</svg>
