<?xml version="1.0" encoding="utf-8"?>
<!-- Generator: Adobe Illustrator 25.4.1, SVG Export Plug-In . SVG Version: 6.00 Build 0)  -->
<svg version="1.1" id="Layer_1" xmlns="http://www.w3.org/2000/svg" xmlns:xlink="http://www.w3.org/1999/xlink" x="0px" y="0px"
	 viewBox="0 0 75.3 80" style="enable-background:new 0 0 75.3 80;" xml:space="preserve">
<style type="text/css">
	.st0{fill:#4A8CC9;}
	.st1{fill:#ED454D;}
	.st2{fill:#4EB75B;}
	.st3{fill:#FCBF39;}
</style>
<g id="g343178" transform="translate(-21.73614,4.428248)">
	<path id="path343188" class="st0" d="M46.4,52.3c2.8-1.1,6.7-4.6,8.1-5.6c2.1-1.5,5.2-1.2,18.5-1.2l23.1-0.1l0,4l0,4.8l-31.3,0.2
		l-23.6-0.1L46.4,52.3z"/>
	<path id="path343186" class="st1" d="M71.5,32l2.1-4l9.5,0.1c5.2,0.1,13.3-0.4,13.3-0.1c0,0.9,0,5.7-0.1,7.3c0,0-1.2,0.1-15.6,0.1
		H69.5L71.5,32z"/>
	<path id="path343184" class="st2" d="M77.5,13.2V9.8h10.2c8.8,0,9.4,0,9.4,0c0,0.7,0,7.6,0,6.8c0,0-8.6,0-10,0l-9.5-0.1L77.5,13.2z
		"/>
</g>
<path id="path343192-4" class="st3" d="M54.3,0c-0.4,0.1-0.6,0.6-0.8,0.9c-0.8,1.6-1.4,3.4-1.9,5.1c-1.4,4.2-2.9,8.5-5.3,12.3
	c-2,3.1-4.6,5.7-7.6,7.9c-3.2,2.3-6.8,4.2-10.3,6.1c-1.5,0.8-3,1.7-4.5,2.7c-0.6,0.4-1.3,0.9-1.9,1.3c-0.5,0.4-1,0.7-1.5,1.1
	c-4.3,3.2-8.2,6.9-11.4,11.2c-2.1,2.8-3.9,5.9-5.4,9.1c-1.4,3-2.8,6-3.3,9.3c-0.2,1.3-0.3,2.5-0.3,3.8C0.1,73.2,0,75.7,0,78.1
	c0,0.6,0,1.2,0.1,1.8c0,0.1,0.1,0.1,0.1,0c0.2-0.6,0.3-1.3,0.4-2c0.4-2.8,1.2-5.7,2.7-8.1c1.4-2.3,3.4-4.2,5.6-5.6
	c2.5-1.6,5.3-2.9,8.1-3.9c1.5-0.6,3.1-1.1,4.6-1.6c0.4-0.1,0.8-0.3,1.2-0.4c3.8-1.4,7.5-3.1,11-5.2c2.3-1.4,4.5-2.9,6.5-4.6
	c1.6-1.3,3.1-2.7,4.5-4.1c0.3-0.4,0.7-0.7,1-1c2-2.2,3.9-4.6,5.4-7.2c0.3-0.4,0.5-1,0.8-1.4c2-3.7,3.2-7.8,3.8-11.9
	c0.1-0.4,0.1-1,0.2-1.4c0.1-0.8,0.2-1.6,0.2-2.4c0.1-1.5,0.1-2.9,0.1-4.4c0-2.3-0.2-4.6-0.4-6.9c-0.2-2-0.3-3.9-0.8-5.9
	C55,1,55,0.5,54.6,0.1C54.5,0,54.4,0,54.3,0L54.3,0z"/>
</svg>
