<?xml version="1.0" encoding="utf-8"?>
<!-- Generator: Adobe Illustrator 25.4.1, SVG Export Plug-In . SVG Version: 6.00 Build 0)  -->
<svg version="1.1" id="Layer_1" xmlns="http://www.w3.org/2000/svg" xmlns:xlink="http://www.w3.org/1999/xlink" x="0px" y="0px"
	 viewBox="0 0 416.9 80" style="enable-background:new 0 0 416.9 80;" xml:space="preserve">
<style type="text/css">
	.st0{fill:#4A8CC9;}
	.st1{fill:#ED454D;}
	.st2{fill:#4EB75B;}
	.st3{fill:#25235C;}
	.st4{fill:#FCBF39;}
</style>
<g id="g342613">
	<g id="g343178" transform="translate(-21.73614,4.428248)">
		<path id="path343188" class="st0" d="M46.4,52.3c2.8-1.1,6.7-4.6,8.1-5.6c2.1-1.5,5.2-1.2,18.5-1.2l23.1-0.1l0,4l0,4.8l-31.3,0.2
			l-23.6-0.1L46.4,52.3z"/>
		<path id="path343186" class="st1" d="M71.5,32l2.1-4l9.5,0.1c5.2,0.1,13.3-0.4,13.3-0.1c0,0.9,0,5.7-0.1,7.3c0,0-1.2,0.1-15.6,0.1
			H69.5L71.5,32z"/>
		<path id="path343184" class="st2" d="M77.5,13.2V9.8h10.2c8.8,0,9.4,0,9.4,0c0,0.7,0,7.6,0,6.8c0,0-8.6,0-10,0l-9.5-0.1L77.5,13.2
			z"/>
	</g>
	<g id="text343219" transform="scale(0.96307,1.0383461)">
		<path id="path343275" class="st3" d="M101.1,35.7c-1.5-1.1-2.9-1.7-4-1.7c-1.7,0-3.2,0.7-4.5,2.2c-1.4,1.4-2.2,3.1-2.6,4.9
			l-2.9,15.4h-6.4l5.1-27.3h6.4l-0.4,2.4c2.3-1.9,4.8-2.9,7.5-2.9c0.7,0,1.9,0.2,3.8,0.5L101.1,35.7z"/>
		<path id="path343277" class="st3" d="M110.5,20.4c0-1.1,0.4-2.1,1.2-2.8c0.8-0.8,1.8-1.1,3-1.1c1.1,0,2.1,0.4,2.9,1.1
			c0.8,0.7,1.2,1.7,1.2,2.8c0,1.1-0.4,2.1-1.2,2.8c-0.8,0.8-1.8,1.1-2.9,1.1c-1.1,0-2.1-0.4-2.9-1.1
			C110.9,22.5,110.5,21.5,110.5,20.4z M112.4,56.5h-6.5l4.1-22.2h-3.5l1.1-5.1h9.9L112.4,56.5z"/>
		<path id="path343279" class="st3" d="M140.8,34.3h-7.5l-2.8,12.1c-0.2,1-0.3,1.8-0.3,2.4c0,1.9,1.1,2.8,3.2,2.8
			c0.9,0,2.5-0.4,4.6-1.3v5.7c-1.8,0.6-4.3,0.9-7.5,0.9c-2.1,0-3.7-0.6-5-1.9c-1.3-1.3-1.9-3-1.9-5.1c0-0.7,0.1-1.4,0.2-2l3.1-13.7
			h-3.2l1.1-5.1h3.2l1.1-5.6l7.3-2.7l-1.9,8.2h7.5L140.8,34.3z"/>
		<path id="path343281" class="st3" d="M151,44.6c0,0.4-0.1,0.8-0.1,1.1c0,1.9,0.6,3.4,1.7,4.4c1.1,1,2.7,1.5,4.7,1.5
			c1.1,0,2.3-0.3,3.7-0.9c1.4-0.6,2.5-1.3,3.3-2l-0.7,6.7c-2.2,1-4.8,1.5-7.9,1.5c-3.4,0-6.1-1.1-8.2-3.2c-2.1-2.1-3.1-5-3.1-8.8
			c0-4.7,1.5-8.6,4.5-11.7c3-3.1,7-4.7,11.9-4.7c2.9,0,5.2,0.6,7,1.8c1.8,1.2,2.7,2.9,2.7,5.2c0,3.1-1.3,5.5-4,7.2
			c-2.7,1.8-5.9,2.6-9.8,2.6C154.7,45.6,152.8,45.3,151,44.6L151,44.6z M152.2,39.8c1.1,0.3,2.3,0.5,3.6,0.5c2.3,0,4.3-0.3,5.9-1
			c1.6-0.7,2.4-1.7,2.4-3.1c0-1.5-1.6-2.2-4.8-2.2c-1.3,0-2.6,0.6-3.9,1.7C154,36.8,153,38.2,152.2,39.8z"/>
		<path id="path343283" class="st3" d="M196.3,46.7c-0.1,0.6-0.2,1.3-0.2,2.1c0,3.7,0.3,6.3,0.9,7.7h-4c-1.2,0-2.1-0.9-2.7-2.7
			c-2.2,2.2-4.9,3.2-8.1,3.2c-3,0-5.3-0.8-6.9-2.5c-1.6-1.7-2.4-4-2.4-7c0-5.2,1.6-9.6,4.7-13.3c3.1-3.7,7.1-5.6,11.9-5.6
			c4.6,0,7.9,0.4,10,1.3L196.3,46.7z M188.9,33.9c-2.9,0-5.1,1.4-6.8,4.1c-1.7,2.7-2.6,5.9-2.6,9.4c0,2.9,1.4,4.4,4.3,4.4
			c1.8,0,3.4-1.1,4.8-3.4c1.4-2.3,2.6-6.9,3.7-14C191.1,34,190,33.9,188.9,33.9L188.9,33.9z"/>
		<path id="path343285" class="st3" d="M226.2,56.5h-6.6l3-15.9c0.2-1.3,0.4-2.3,0.4-3.2c0-2.3-1.3-3.4-4-3.4c-2.3,0-4.3,1-6.2,2.9
			l-3.6,19.7h-6.4l3.9-20.5c0.1-0.4,0.1-0.9,0.1-1.5c0-1.5-0.2-3.1-0.7-4.8l6.3-1.1l0.6,3.1c2.2-2,5.1-2.9,8.4-2.9
			c5.6,0,8.4,2.6,8.4,7.9c0,0.9-0.1,2-0.4,3.3L226.2,56.5z"/>
		<path id="path343287" class="st3" d="M268.7,56.5l-1.2-7.6h-13.4l-4.4,7.6h-6.9l22.7-37.9h2.4l7.7,37.9H268.7z M264.7,30l-7.7,14
			h9.8L264.7,30z"/>
		<path id="path343289" class="st3" d="M285.6,20.4c0-1.1,0.4-2.1,1.2-2.8c0.8-0.8,1.8-1.1,3-1.1c1.1,0,2.1,0.4,2.9,1.1
			c0.8,0.7,1.2,1.7,1.2,2.8c0,1.1-0.4,2.1-1.2,2.8c-0.8,0.8-1.8,1.1-2.9,1.1c-1.1,0-2.1-0.4-2.9-1.1C286,22.5,285.6,21.5,285.6,20.4
			z M287.5,56.5H281l4.1-22.2h-3.5l1.1-5.1h9.9L287.5,56.5z"/>
		<path id="path343291" class="st3" d="M316.6,35.7c-1.5-1.1-2.9-1.7-4-1.7c-1.7,0-3.2,0.7-4.5,2.2c-1.4,1.4-2.2,3.1-2.6,4.9
			l-2.9,15.4h-6.4l5.1-27.3h6.4l-0.4,2.4c2.3-1.9,4.8-2.9,7.5-2.9c0.7,0,1.9,0.2,3.8,0.5L316.6,35.7z"/>
		<path id="path343293" class="st3" d="M329.9,54.4c-1,1.6-2.5,2.4-4.6,2.4c-1.5,0-2.7-0.5-3.6-1.5c-0.9-1-1.3-2.3-1.3-3.9
			c0-2.1,0.4-5.1,1.2-9l5.1-24.4h6.3l-5.3,25.4c-0.7,3.6-1.1,6.2-1.1,7.8c0,1,0.3,1.8,0.9,2.3C328.3,54.1,329,54.4,329.9,54.4
			L329.9,54.4z"/>
		<path id="path343295" class="st3" d="M342.7,20.4c0-1.1,0.4-2.1,1.2-2.8c0.8-0.8,1.8-1.1,3-1.1c1.1,0,2.1,0.4,2.9,1.1
			c0.8,0.7,1.2,1.7,1.2,2.8c0,1.1-0.4,2.1-1.2,2.8c-0.8,0.8-1.8,1.1-2.9,1.1c-1.1,0-2.1-0.4-2.9-1.1
			C343.1,22.5,342.7,21.5,342.7,20.4L342.7,20.4z M344.6,56.5h-6.5l4.1-22.2h-3.5l1.1-5.1h9.9L344.6,56.5z"/>
		<path id="path343297" class="st3" d="M375.7,56.5h-6.6l3-15.9c0.2-1.3,0.4-2.3,0.4-3.2c0-2.3-1.3-3.4-4-3.4c-2.3,0-4.3,1-6.2,2.9
			l-3.6,19.7h-6.4l3.9-20.5c0.1-0.4,0.1-0.9,0.1-1.5c0-1.5-0.2-3.1-0.7-4.8l6.3-1.1l0.6,3.1c2.2-2,5.1-2.9,8.4-2.9
			c5.6,0,8.4,2.6,8.4,7.9c0,0.9-0.1,2-0.4,3.3L375.7,56.5z"/>
		<path id="path343299" class="st3" d="M389.7,44.6c0,0.4-0.1,0.8-0.1,1.1c0,1.9,0.6,3.4,1.7,4.4c1.1,1,2.7,1.5,4.7,1.5
			c1.1,0,2.3-0.3,3.7-0.9c1.4-0.6,2.5-1.3,3.3-2l-0.7,6.7c-2.2,1-4.8,1.5-7.9,1.5c-3.4,0-6.1-1.1-8.2-3.2c-2.1-2.1-3.1-5-3.1-8.8
			c0-4.7,1.5-8.6,4.5-11.7c3-3.1,7-4.7,11.9-4.7c2.9,0,5.2,0.6,7,1.8c1.8,1.2,2.7,2.9,2.7,5.2c0,3.1-1.3,5.5-4,7.2
			c-2.7,1.8-5.9,2.6-9.8,2.6C393.4,45.6,391.5,45.3,389.7,44.6L389.7,44.6z M390.9,39.8c1.1,0.3,2.3,0.5,3.6,0.5
			c2.3,0,4.3-0.3,5.9-1c1.6-0.7,2.4-1.7,2.4-3.1c0-1.5-1.6-2.2-4.8-2.2c-1.3,0-2.6,0.6-3.9,1.7C392.7,36.8,391.7,38.2,390.9,39.8
			L390.9,39.8z"/>
		<path id="path343301" class="st3" d="M430,36.7c-2-1.8-3.9-2.7-5.6-2.7c-1.1,0-2,0.2-2.8,0.7c-0.8,0.5-1.1,1.1-1.1,1.9
			c0,1,0.9,2,2.8,2.9c1.9,0.9,3.3,1.7,4.3,2.2c1,0.5,1.8,1.3,2.4,2.2c0.6,0.9,0.9,2,0.9,3.2c0,3-1.1,5.4-3.4,7.1
			c-2.2,1.7-5.1,2.6-8.6,2.6c-3,0-5.9-0.8-8.8-2.5l3.4-5.8c2.1,2,4.2,3,6.3,3c1.3,0,2.4-0.3,3.2-1c0.9-0.6,1.3-1.5,1.3-2.6
			c0-0.9-0.8-1.8-2.4-2.6c-1.6-0.8-3-1.6-4.2-2.3c-1.2-0.7-2.2-1.5-2.8-2.5c-0.6-1-0.9-2.1-0.9-3.3c0-2.7,1.1-4.8,3.2-6.3
			c2.1-1.6,4.7-2.4,7.8-2.4c2.1,0,4.8,0.7,8.2,2.1L430,36.7z"/>
	</g>
	<path id="path343192-4" class="st4" d="M54.3,0c-0.4,0.1-0.6,0.6-0.8,0.9c-0.8,1.6-1.4,3.4-1.9,5.1c-1.4,4.2-2.9,8.5-5.3,12.3
		c-2,3.1-4.6,5.7-7.6,7.9c-3.2,2.3-6.8,4.2-10.3,6.1c-1.5,0.8-3,1.7-4.5,2.7c-0.6,0.4-1.3,0.9-1.9,1.3c-0.5,0.4-1,0.7-1.5,1.1
		c-4.3,3.2-8.2,6.9-11.4,11.2c-2.1,2.8-3.9,5.9-5.4,9.1c-1.4,3-2.8,6-3.3,9.3c-0.2,1.3-0.3,2.5-0.3,3.8C0.1,73.2,0,75.7,0,78.1
		c0,0.6,0,1.2,0.1,1.8c0,0.1,0.1,0.1,0.1,0c0.2-0.6,0.3-1.3,0.4-2c0.4-2.8,1.2-5.7,2.7-8.1c1.4-2.3,3.4-4.2,5.6-5.6
		c2.5-1.6,5.3-2.9,8.1-3.9c1.5-0.6,3.1-1.1,4.6-1.6c0.4-0.1,0.8-0.3,1.2-0.4c3.8-1.4,7.5-3.1,11-5.2c2.3-1.4,4.5-2.9,6.5-4.6
		c1.6-1.3,3.1-2.7,4.5-4.1c0.3-0.4,0.7-0.7,1-1c2-2.2,3.9-4.6,5.4-7.2c0.3-0.4,0.5-1,0.8-1.4c2-3.7,3.2-7.8,3.8-11.9
		c0.1-0.4,0.1-1,0.2-1.4c0.1-0.8,0.2-1.6,0.2-2.4c0.1-1.5,0.1-2.9,0.1-4.4c0-2.3-0.2-4.6-0.4-6.9c-0.2-2-0.3-3.9-0.8-5.9
		C55,1,55,0.5,54.6,0.1C54.5,0,54.4,0,54.3,0L54.3,0z"/>
</g>
</svg>
