<?xml version="1.0" encoding="utf-8"?>
<!-- Generator: Adobe Illustrator 25.4.1, SVG Export Plug-In . SVG Version: 6.00 Build 0)  -->
<svg version="1.1" id="Layer_1" xmlns="http://www.w3.org/2000/svg" xmlns:xlink="http://www.w3.org/1999/xlink" x="0px" y="0px"
	 viewBox="0 0 87.75 80.27" style="enable-background:new 0 0 87.75 80.27;" xml:space="preserve">
<style type="text/css">
	.st0{fill:#12295C;}
</style>
<g id="Clip-9">
</g>
<g id="Clip-2">
</g>
<g>
	<path class="st0" d="M44.36,55.49c-0.07,0-0.14,0-0.21,0.01c-0.44,0.08-0.89,0.16-1.33,0.23c-0.33,0.05-0.66,0.06-0.98,0.12
		c-0.87,0.14-1.73,0.3-2.6,0.46c-0.11,0.02-0.22,0.11-0.32,0.16c0.08,0.08,0.16,0.16,0.24,0.24c0.01,0.01,0.43,0.08,0.43,0.12
		c-0.09,0.01,0.44,0.03,0.36,0.05c-0.06,0.01,1.08,0.05,1.11,0.06c0.07-0.04,2.13,0.02,2.2,0.02c0.37-0.05,0.75-0.09,1.12-0.14
		c0.29-0.03,0.38-0.11,0.39-0.41c0.01-0.18,0-0.37-0.01-0.55C44.73,55.57,44.65,55.5,44.36,55.49z"/>
	<path class="st0" d="M35.73,29.02c-0.22,0.46-0.22,1.2,0.37,1.72c0.63,0.55,1.26,1.11,1.93,1.62c0.7,0.53,1.45,1.02,2.19,1.5
		c0.71,0.47,1.46,0.9,2.15,1.4c0.67,0.48,1.3,1.01,1.91,1.57c0.81,0.73,1.56,1.52,2.19,2.41c0.47,0.66,0.92,1.35,1.37,2.03
		c0.13,0.2,0.25,0.4,0.36,0.61c0.23,0.45,0.47,0.89,0.68,1.35c0.15,0.32,0.27,0.65,0.39,0.98c0.15,0.39,0.31,0.78,0.43,1.18
		c0.15,0.51,0.26,1.02,0.38,1.53c0.25,1.05,0.41,2.12,0.45,3.2c0.06,1.35,0,2.7-0.25,4.03c-0.05,0.26-0.08,0.51-0.14,0.77
		c-0.07,0.38-0.16,0.75-0.23,1.13c-0.01,0.08,0.06,0.18,0.1,0.25c0.03,0.05,0.1,0.08,0.18,0.14c0.54-0.02,2.32-0.74,2.61-0.84
		s0.32-0.19,0.32-0.19c0.07-0.17,0.17-0.32,0.19-0.47c0.1-0.67,0.21-1.33,0.27-2s0.12-1.35,0.09-2.02
		c-0.05-1.33-0.08-2.67-0.38-3.98c-0.13-0.57-0.23-1.14-0.37-1.7c-0.08-0.35-0.2-0.69-0.32-1.03c-0.13-0.37-0.27-0.73-0.41-1.09
		c-0.12-0.33-0.24-0.66-0.37-0.98c-0.09-0.23-0.2-0.45-0.31-0.66c-0.23-0.43-0.46-0.86-0.7-1.29c-0.22-0.39-0.42-0.78-0.67-1.15
		c-0.31-0.46-0.63-0.92-0.97-1.36c-0.5-0.63-1-1.26-1.54-1.85c-0.84-0.91-1.73-1.78-2.74-2.51c-0.71-0.52-1.42-1.03-2.15-1.52
		c-0.74-0.49-1.53-0.9-2.24-1.42c-0.76-0.55-1.47-1.17-2.19-1.77c-0.27-0.22-0.53-0.46-0.91-0.49
		C36.57,28.03,36.07,28.33,35.73,29.02z"/>
	<path class="st0" d="M62.61,40.03c-0.32-0.81-0.7-1.59-1.08-2.37c-0.22-0.46-0.43-0.52-0.78-0.33s-0.7,0.36-1.06,0.53
		c-0.24,0.11-0.49,0.22-0.74,0.32c-0.43,0.16-0.85,0.33-1.29,0.47c-0.44,0.14-0.88,0.26-1.33,0.35c-0.76,0.16-1.53,0.34-2.3,0.41
		c-0.79,0.08-1.59,0.04-2.39,0.06c-0.12,0-0.25,0.01-0.36,0.04c-0.04,0.01-0.09,0.13-0.07,0.16c0.17,0.34,0.35,0.67,0.53,1.01
		c0.1,0.2,0.2,0.39,0.3,0.59c0.15,0.32,0.31,0.64,0.45,0.97c0.13,0.32,0.25,0.64,0.37,0.96c0.16,0.47,0.33,0.93,0.47,1.41
		c0.14,0.45,0.25,0.91,0.35,1.38c0.15,0.67,0.32,1.34,0.4,2.03c0.2,1.69,0.23,3.39,0.09,5.1c-0.04,0.51-0.13,1.02-0.21,1.52
		c-0.02,0.15,0,0.26,0.17,0.28c0.2,0.03,0.5-0.1,0.69-0.16c0.74-0.23,1.43-0.58,2.1-0.96c1.15-0.65,2.28-1.37,3.23-2.3
		c0.02-0.02,0.03-0.03,0.05-0.05c0.98-0.99,1.76-2.29,2.21-3.61c0.02-0.06,0.04-0.12,0.06-0.18c0.1-0.31,0.23-0.62,0.3-0.94
		c0.16-0.77,0.35-1.54,0.42-2.32c0.09-0.95,0.05-1.9-0.19-2.83C62.87,41.07,62.8,40.53,62.61,40.03z"/>
	<path class="st0" d="M45.45,33c0.26,0.24,0.54,0.45,0.8,0.69c0.52,0.48,1.02,0.97,1.53,1.45c0.06,0.06,0.16,0.09,0.23,0.13
		c0.04-0.08,0.12-0.16,0.13-0.25c0.05-0.43,0.07-0.86,0.11-1.28c0.06-0.56,0.09-1.12,0.19-1.67c0.11-0.63,0.27-1.25,0.43-1.88
		c0.11-0.41,0.23-0.82,0.37-1.23c0.08-0.26,0.19-0.52,0.29-0.77c0.14-0.33,0.29-0.66,0.45-0.98c0.21-0.42,0.42-0.85,0.66-1.25
		c0.3-0.49,0.65-0.94,0.95-1.43c0.07-0.11,0.06-0.33-0.01-0.45c-0.19-0.36-0.42-0.69-0.63-1.04c-0.05-0.09-0.06-0.21-0.09-0.32
		c0.11-0.03,0.21-0.08,0.32-0.07c0.52,0.05,1.04,0.11,1.55,0.17c0.24,0.03,0.44,0.01,0.61-0.21c0.16-0.21,0.35-0.39,0.54-0.57
		c0.53-0.49,1.14-0.86,1.79-1.18c0.74-0.35,1.52-0.59,2.32-0.69c0.66-0.09,1.33-0.07,2-0.07c0.65,0,1.27,0.17,1.85,0.47
		c0.16,0.08,0.25,0.03,0.26-0.15c0-0.44,0-0.89,0-1.33c0.01,0,0.01,0,0.02,0c0-0.39,0.01-0.78,0-1.17c-0.01-0.46-0.3-0.69-0.75-0.58
		c-0.17,0.04-0.28,0.02-0.4-0.12c-0.2-0.24-0.46-0.34-0.64-0.21c-0.24,0.16-0.4,0.09-0.59-0.07c-0.23-0.18-0.44-0.17-0.66,0.02
		c-0.15,0.12-0.29,0.12-0.44,0.01c-0.29-0.2-0.41-0.19-0.71,0.03c-0.1,0.08-0.3,0.14-0.4,0.09c-0.33-0.16-0.57-0.05-0.81,0.16
		c-0.08,0.07-0.24,0.12-0.33,0.09c-0.3-0.09-0.52-0.03-0.72,0.21c-0.12,0.14-0.26,0.19-0.45,0.14c-0.19-0.05-0.4-0.04-0.5,0.17
		c-0.13,0.26-0.34,0.35-0.62,0.33c-0.23-0.02-0.41,0.07-0.48,0.3c-0.06,0.21-0.19,0.27-0.4,0.25c-0.26-0.03-0.44,0.06-0.55,0.32
		c-0.07,0.17-0.2,0.28-0.4,0.29c-0.3,0.02-0.5,0.19-0.59,0.48c-0.05,0.16-0.13,0.24-0.31,0.25c-0.3,0.01-0.44,0.13-0.52,0.42
		c-0.05,0.18-0.13,0.29-0.34,0.32c-0.26,0.03-0.44,0.22-0.48,0.47c-0.03,0.18-0.12,0.29-0.3,0.33c-0.25,0.06-0.42,0.23-0.47,0.48
		c-0.04,0.2-0.15,0.35-0.34,0.4c-0.27,0.08-0.36,0.27-0.36,0.52c0,0.21-0.09,0.34-0.31,0.38c-0.21,0.04-0.41,0.31-0.37,0.52
		c0.04,0.2-0.05,0.28-0.21,0.37c-0.2,0.11-0.41,0.24-0.39,0.52c0.01,0.26-0.07,0.44-0.31,0.56c-0.2,0.09-0.29,0.27-0.24,0.48
		c0.05,0.2-0.03,0.29-0.17,0.42c-0.33,0.29-0.41,0.4-0.29,0.74c0.05,0.14,0,0.22-0.12,0.28c-0.26,0.11-0.33,0.32-0.3,0.58
		c0.01,0.05,0.01,0.11,0.01,0.16c0.01,0.16-0.02,0.29-0.19,0.38c-0.2,0.12-0.25,0.35-0.18,0.58c0.06,0.2,0.07,0.38-0.13,0.53
		c-0.18,0.14-0.25,0.33-0.13,0.57c0.09,0.18,0.1,0.36-0.1,0.51c-0.18,0.13-0.18,0.32-0.14,0.52c0.02,0.1,0.05,0.19,0.08,0.29
		c0.05,0.14,0.01,0.24-0.11,0.34c-0.21,0.19-0.23,0.44-0.05,0.65C45.09,32.61,45.26,32.82,45.45,33z"/>
	<path class="st0" d="M51.01,26.48c-0.25,0.44-0.48,0.88-0.69,1.34c-0.15,0.32-0.27,0.65-0.38,0.98c-0.24,0.72-0.51,1.44-0.69,2.18
		c-0.18,0.73-0.28,1.47-0.36,2.22c-0.09,0.74-0.13,1.5-0.17,2.24c-0.02,0.3,0.05,0.38,0.34,0.42c0.94,0.12,1.87,0.34,2.79,0.24
		c0.91,0.06,1.76-0.05,2.6-0.21c0.68-0.12,1.36-0.22,2.02-0.4c0.74-0.21,1.45-0.5,2.18-0.76c0.21-0.07,0.26-0.3,0.09-0.45
		c-0.57-0.49-1.15-0.96-1.71-1.46c-0.27-0.25-0.51-0.55-0.73-0.85c-0.3-0.4-0.5-0.86-0.6-1.35c-0.15-0.73-0.32-1.45-0.4-2.18
		c-0.06-0.54-0.01-1.1-0.01-1.65c0-0.27-0.09-0.39-0.35-0.46c-0.13-0.03-0.26-0.04-0.38-0.09c-0.32-0.12-0.67-0.2-0.95-0.39
		c-0.42-0.28-0.78-0.63-1.17-0.96c-0.14-0.12-0.36-0.12-0.46,0.04c-0.12,0.18-0.23,0.36-0.35,0.54
		C51.42,25.81,51.2,26.14,51.01,26.48z"/>
	<path class="st0" d="M60.38,20.78c-1.53-0.18-3,0.02-4.41,0.68c-0.62,0.29-1.2,0.64-1.69,1.12c-0.07,0.07-0.11,0.17-0.16,0.25
		c0.1,0.06,0.2,0.16,0.3,0.17c0.67,0.07,1.34,0.12,2.01,0.18c0-0.01,0-0.03,0-0.04c0.44,0,0.89-0.01,1.33,0
		c0.61,0.01,1.33,0.77,1.38,1.35c0.04,0.45,0.05,0.89-0.25,1.29c-0.33,0.43-0.7,0.74-1.26,0.76c-0.27,0.01-0.54,0.01-0.81,0.01
		c-0.4,0.01-0.47,0.07-0.47,0.47c0,0.94-0.1,1.89,0.25,2.8c0.21,0.56,0.43,1.13,0.65,1.68c0.07,0.17,0.29,0.21,0.42,0.1
		c0.41-0.35,0.91-0.55,1.42-0.66c0.88-0.18,1.78-0.33,2.69-0.29c0.4,0.02,0.81-0.01,1.22-0.07c0.64-0.09,0.86-0.31,0.99-0.93
		c0.02-0.1,0.03-0.21,0.05-0.32c0.07-0.4,0.15-0.8,0.21-1.2c0.04-0.28,0.05-0.56,0.06-0.85c0-0.09-0.02-0.21-0.16-0.14
		c-0.14,0.07-0.26,0.15-0.39,0.24c-0.32,0.23-0.62,0.46-1.03,0.5c-0.08,0.01-0.15,0.02-0.22,0.05c-0.48,0.18-1.12,0.06-1.49-0.31
		c-0.13-0.13-0.22-0.31-0.32-0.48c-0.26-0.45-0.18-1.05,0.18-1.42c0.22-0.22,0.22-0.27,0.03-0.51c-0.27-0.34-0.22-0.9,0.14-1.12
		c0.25-0.16,0.55-0.25,0.83-0.34c0.19-0.06,0.4-0.07,0.59-0.06c0.4,0.02,0.81,0.04,1.21,0.1c0.15,0.02,0.28,0.14,0.42,0.21
		c0.15,0.07,0.31,0.12,0.44,0.21c0.2,0.13,0.4,0.06,0.44-0.18c0.03-0.16,0.07-0.31,0.12-0.47c0.1-0.33,0.06-0.35-0.26-0.42
		c-0.38-0.08-0.76-0.17-1.11-0.33c-0.57-0.26-1.08-0.64-1.49-1.11C61.74,21.13,61.09,20.86,60.38,20.78z"/>
	<path class="st0" d="M49.58,37.24c0.33,0.46,0.67,0.91,0.97,1.39c0.13,0.2,0.27,0.32,0.5,0.34c0.43,0.04,0.86,0.06,1.29,0.1
		c0.55-0.04,1.1-0.08,1.65-0.13c0.45-0.04,0.9-0.07,1.35-0.15c0.61-0.12,1.22-0.28,1.83-0.44c0.38-0.1,0.76-0.23,1.14-0.35
		c0.25-0.09,0.5-0.18,0.74-0.3c0.5-0.23,0.98-0.49,1.48-0.72c0.28-0.13,0.34-0.34,0.14-0.58c-0.26-0.31-0.5-0.64-0.77-0.94
		c-0.15-0.17-0.31-0.34-0.51-0.44c-0.24-0.13-0.47,0.07-0.69,0.15c-0.39,0.14-0.76,0.31-1.15,0.44c-0.42,0.14-0.85,0.26-1.28,0.36
		c-0.62,0.15-1.23,0.33-1.86,0.41c-1.61,0.2-3.23,0.18-4.84,0.04c-0.11-0.01-0.21-0.03-0.32-0.02c-0.19,0.01-0.24,0.12-0.12,0.27
		C49.28,36.86,49.44,37.04,49.58,37.24z"/>
	<path class="st0" d="M22.62,19.29c0.22,0.48,0.44,0.96,0.66,1.43c0.1,0.21,0.21,0.41,0.33,0.6c0.22,0.38,0.45,0.76,0.69,1.13
		c0.32,0.49,0.63,0.99,0.97,1.47c0.4,0.55,0.83,1.09,1.27,1.62c0.35,0.42,0.72,0.81,1.1,1.2c0.21,0.21,0.47,0.13,0.59-0.14
		c0.08-0.2,0.11-0.4,0.01-0.6c-0.17-0.35-0.37-0.68-0.55-1.02c-0.23-0.44-0.45-0.88-0.67-1.32c-0.11-0.22-0.22-0.45-0.33-0.68
		c-0.16-0.34-0.32-0.67-0.47-1.02c-0.13-0.29-0.24-0.59-0.35-0.89c-0.24-0.65-0.49-1.3-0.69-1.96c-0.16-0.52-0.26-1.05-0.39-1.58
		c-0.09-0.39-0.15-0.78-0.26-1.16c-0.07-0.25-0.17-0.51-0.31-0.73c-0.11-0.17-0.27-0.33-0.45-0.42c-1.04-0.52-2.13,0.26-2.17,1.49
		c0.08,0.26,0.19,0.66,0.34,1.04C22.14,18.26,22.39,18.77,22.62,19.29z"/>
	<path class="st0" d="M19.74,21.05c0.42,0.56,0.85,1.1,1.31,1.62c0.55,0.63,1.12,1.25,1.71,1.85c0.51,0.52,1.05,1.02,1.61,1.5
		c0.92,0.78,1.87,1.53,2.81,2.28c0.09,0.07,0.29,0.09,0.4,0.05c0.08-0.03,0.17-0.22,0.16-0.31c-0.04-0.21-0.11-0.45-0.24-0.61
		c-0.43-0.51-0.9-0.98-1.33-1.48c-0.45-0.53-0.89-1.07-1.31-1.62c-0.35-0.46-0.68-0.94-1.01-1.42c-0.24-0.36-0.45-0.74-0.67-1.12
		c-0.22-0.38-0.43-0.75-0.63-1.14c-0.25-0.49-0.48-0.99-0.73-1.48c-0.19-0.38-0.37-0.77-0.6-1.13c-0.18-0.27-0.47-0.41-0.82-0.44
		c-0.8-0.06-1.6,0.8-1.59,1.62c0.04,0.19,0.02,0.4,0.11,0.56C19.17,20.22,19.44,20.65,19.74,21.05z"/>
	<path class="st0" d="M25.94,19.34c0.24,0.78,0.52,1.55,0.82,2.31c0.25,0.64,0.54,1.26,0.84,1.88c0.28,0.58,0.6,1.15,0.91,1.72
		c0.19,0.36,0.55,0.38,0.79,0.08c0.24-0.31,0.27-0.62,0.12-0.99c-0.16-0.38-0.28-0.78-0.39-1.17c-0.14-0.48-0.26-0.96-0.38-1.44
		c-0.14-0.59-0.32-1.19-0.4-1.79c-0.19-1.45-0.38-2.9-0.33-4.37c0.01-0.36-0.04-0.71-0.22-1.04c-0.26-0.47-0.61-0.75-1.16-0.75
		c-0.67-0.04-1.3,0.54-1.43,1.13c-0.14,0.64,0.03,1.26,0.15,1.86C25.42,17.62,25.67,18.48,25.94,19.34z"/>
	<path class="st0" d="M66.29,34.24c-0.23-0.07-0.47-0.13-0.7-0.21c-0.45-0.16-0.88-0.39-1.37-0.09c-0.3,0.18-0.5,0.53-0.44,0.93
		c0.05,0.33,0.23,0.49,0.62,0.52c0.29,0.03,0.48-0.09,0.54-0.31c0.07-0.27-0.04-0.45-0.31-0.57c-0.07-0.03-0.13-0.11-0.19-0.17
		c0.08-0.04,0.15-0.1,0.23-0.12c0.07-0.02,0.15-0.01,0.23,0.01c0.47,0.11,0.66,0.68,0.36,1.12c-0.52,0.77-1.23,0.56-1.67,0.02
		c-0.18-0.23-0.35-0.52-0.22-0.85c0.14-0.39,0.32-0.75,0.75-0.93c0.26-0.11,0.27-0.31,0.09-0.52c-0.04-0.05-0.07-0.12-0.1-0.18
		c-0.21-0.52-0.31-1.05-0.28-1.61c0.01-0.12-0.01-0.25-0.04-0.36c-0.02-0.05-0.13-0.1-0.18-0.09c-0.63,0.17-1.27,0.3-2.06,0.27
		c-0.3,0.02-0.73,0.06-1.16,0.06c-0.62,0-1.21,0.16-1.79,0.37c-0.27,0.1-0.51,0.28-0.74,0.44c-0.11,0.07-0.15,0.2-0.04,0.32
		c0.32,0.34,0.66,0.66,1.1,0.84c0.29,0.12,0.6,0.19,0.89,0.31c0.26,0.11,0.53,0.25,0.76,0.42c0.21,0.15,0.39,0.36,0.57,0.56
		c0.18,0.19,0.35,0.16,0.47-0.06c0.08-0.15,0.21-0.28,0.32-0.42c0.06-0.08,0.14-0.15,0.18-0.24c0.13-0.26,0.06-0.49-0.19-0.7
		c-0.2-0.15-0.38-0.14-0.61,0.05c-0.07,0.06-0.15,0.11-0.24,0.14c-0.06,0.02-0.13,0.01-0.2,0.02c0-0.1-0.05-0.24,0-0.29
		c0.26-0.32,0.61-0.44,1.02-0.35c0.46,0.1,0.76,0.65,0.64,1.1c-0.08,0.29-0.29,0.46-0.46,0.67c-0.24,0.29-0.29,0.83-0.09,1.15
		c0.36,0.56,0.86,0.9,1.54,1c0.67,0.11,1.32,0.09,1.99-0.03c0.34-0.06,0.62-0.22,0.88-0.42c0.31-0.25,0.46-0.6,0.59-0.96
		c0.2-0.52,0.11-0.7-0.44-0.78C66.44,34.27,66.36,34.27,66.29,34.24z"/>
	<path class="st0" d="M19.62,25.62c0.53,0.41,1.08,0.8,1.63,1.18c0.44,0.3,0.89,0.58,1.35,0.86c0.56,0.34,1.13,0.67,1.71,0.98
		c0.46,0.24,0.94,0.44,1.41,0.66c0.25,0.11,0.5,0.23,0.75,0.33c0.31,0.14,0.63,0.27,0.95,0.4c0.07,0.03,0.15,0.03,0.23,0.03
		c0.15,0,0.22-0.08,0.22-0.23c0.01-0.26-0.18-0.41-0.34-0.54c-0.61-0.48-1.25-0.93-1.87-1.41c-0.64-0.5-1.26-1.01-1.87-1.55
		c-0.52-0.46-1.02-0.94-1.51-1.43c-0.53-0.53-1.06-1.08-1.56-1.64c-0.48-0.53-0.91-1.09-1.39-1.62c-0.19-0.21-0.46-0.31-0.77-0.24
		c-0.69,0.15-1.21,0.87-1.14,1.55c-0.04,0.51,0.18,0.94,0.58,1.29C18.52,24.71,19.06,25.18,19.62,25.62z"/>
	<path class="st0" d="M29.07,21.37c0.08,0.47,0.21,0.94,0.34,1.4c0.13,0.47,0.3,0.93,0.43,1.4c0.09,0.34,0.23,0.46,0.57,0.37
		c0.24-0.06,0.46-0.16,0.69-0.25c0.32-0.11,0.38-0.26,0.3-0.58c-0.15-0.57-0.32-1.14-0.4-1.72c-0.12-0.88-0.22-1.77-0.23-2.65
		c-0.01-1.29,0.15-2.56,0.56-3.8c0.25-0.74-0.24-1.9-1.45-1.84c-0.2,0.02-0.51,0.06-0.78,0.28c-0.42,0.35-0.59,0.8-0.59,1.33
		c-0.02,1.21,0.05,2.42,0.2,3.62C28.82,19.75,28.93,20.56,29.07,21.37z"/>
	<path class="st0" d="M21.25,29.9c0.4,0.15,0.8,0.3,1.21,0.43c0.44,0.14,0.88,0.27,1.32,0.38c0.61,0.16,1.21,0.31,1.82,0.46
		c0.23,0.06,0.46,0.11,0.7,0.15c0.63,0.1,1.26,0.19,1.89,0.27c0.08,0.01,0.21-0.07,0.24-0.15c0.03-0.07,0-0.23-0.06-0.27
		c-0.25-0.18-0.5-0.35-0.77-0.48c-0.54-0.24-1.11-0.44-1.66-0.66c-0.25-0.1-0.5-0.22-0.75-0.34c-0.48-0.23-0.96-0.47-1.44-0.71
		c-0.43-0.22-0.86-0.42-1.28-0.66c-0.53-0.31-1.06-0.63-1.58-0.98c-0.63-0.42-1.25-0.87-1.87-1.32c-0.27-0.2-0.62-0.2-0.85,0.04
		c-0.32,0.33-0.47,0.72-0.47,1.29c0.04,0.67,0.42,1.23,1.13,1.55c0.52,0.24,1.06,0.44,1.59,0.66C20.7,29.69,20.98,29.8,21.25,29.9z"
		/>
	<path class="st0" d="M31.31,20.9c0.12,0.81,0.26,1.62,0.52,2.39c0.21,0.63,0.76,1.04,1.42,1.03c0.19,0,0.27-0.11,0.21-0.3
		c-0.04-0.14-0.09-0.28-0.13-0.42c-0.14-0.55-0.32-1.09-0.4-1.64c-0.14-0.98,0.18-1.89,0.56-2.78c0.27-0.63,0.58-1.24,0.88-1.86
		c0.12-0.26,0.14-0.53,0.04-0.78c-0.12-0.28-0.26-0.57-0.45-0.81c-0.47-0.6-1.21-0.53-1.74-0.12c-0.41,0.32-0.56,0.8-0.66,1.26
		c-0.2,0.88-0.4,1.77-0.34,2.68C31.25,20,31.24,20.46,31.31,20.9z"/>
	<path class="st0" d="M26.74,33.06c0.67,0,1.33,0,2,0c0.2,0,0.4-0.02,0.6-0.05c0.07-0.01,0.16-0.08,0.18-0.14
		c0.02-0.07,0.01-0.2-0.04-0.25c-0.33-0.28-0.71-0.49-1.14-0.56c-0.79-0.12-1.58-0.21-2.37-0.32c-0.23-0.03-0.46-0.06-0.68-0.11
		c-0.62-0.14-1.24-0.28-1.85-0.43c-0.48-0.12-0.95-0.23-1.42-0.38c-0.37-0.11-0.73-0.27-1.1-0.4c-0.41-0.14-0.82-0.29-1.24-0.4
		c-0.26-0.07-0.45,0.07-0.5,0.34c-0.03,0.21-0.05,0.43-0.02,0.64c0.08,0.56,0.29,1.07,0.87,1.25c0.72,0.22,1.47,0.4,2.21,0.5
		C23.74,32.97,25.23,33.18,26.74,33.06z"/>
	<path class="st0" d="M53.46,25.24c0.4,0.3,0.84,0.55,1.33,0.64c0.7,0.12,1.41,0.16,2.12,0.24c0-0.01,0-0.03,0-0.04
		c0.17,0,0.34,0.02,0.51,0c0.65-0.08,1.11-0.34,1.21-1.04c0.06-0.39,0-0.75-0.3-1.06c-0.3-0.3-0.66-0.39-1.06-0.41
		c-0.22-0.01-0.44,0.03-0.66,0.02c-0.89-0.03-1.77-0.06-2.66-0.11c-0.56-0.03-1.11-0.1-1.67-0.15c-0.1-0.01-0.21,0.03-0.31,0.04
		c0.02,0.13,0,0.29,0.07,0.38C52.44,24.3,52.9,24.82,53.46,25.24z"/>
	<path class="st0" d="M28.83,27.31c-0.53,0.37-0.63,1.31-0.19,1.78c0.24,0.27,0.56,0.38,0.88,0.52c0.73,0.33,1.5,0.52,2.27,0.7
		c0.71,0.17,1.44,0.25,2.17,0.36c0-0.01,0.01-0.03,0.01-0.04c0.29,0,0.58,0,0.87,0c0.34,0,0.38-0.06,0.28-0.38
		c-0.01-0.04-0.02-0.07-0.03-0.11c-0.01-0.2-0.1-0.33-0.29-0.4c-0.6-0.23-1.2-0.45-1.78-0.72c-0.44-0.2-0.86-0.43-1.26-0.69
		c-0.48-0.31-0.92-0.68-1.39-1.01C29.84,26.94,29.36,26.94,28.83,27.31z"/>
	<path class="st0" d="M64.68,26.32c-0.01,0.19-0.02,0.38-0.03,0.57c-0.04,0.59-0.06,1.19-0.11,1.78c-0.03,0.34-0.12,0.67-0.18,1.01
		c-0.03,0.17-0.02,0.35-0.06,0.53c-0.14,0.76-0.12,1.51,0.05,2.26c0.06,0.29,0.22,0.5,0.42,0.69c0.42,0.4,0.97,0.53,1.5,0.71
		c0.16,0.06,0.37,0,0.55,0c-0.02-0.2-0.02-0.4-0.07-0.59c-0.12-0.48-0.31-0.95-0.4-1.43c-0.13-0.75-0.23-1.5-0.29-2.26
		c-0.07-0.84-0.14-1.68-0.59-2.43c-0.19-0.31-0.43-0.58-0.65-0.87C64.78,26.3,64.73,26.31,64.68,26.32z"/>
	<path class="st0" d="M27.95,34.75c0.08-0.01,0.16-0.04,0.25-0.05c0.23-0.05,0.46-0.12,0.69-0.15c0.33-0.03,0.67-0.03,1.01-0.05
		c0.09-0.01,0.18-0.04,0.26-0.07c0.11-0.04,0.22-0.09,0.34-0.12c0.11-0.03,0.23-0.02,0.34-0.05c0.18-0.05,0.22-0.18,0.09-0.29
		c-0.15-0.12-0.32-0.23-0.49-0.31c-0.35-0.16-0.73-0.18-1.1-0.16c-0.32,0.02-0.64,0.04-0.96,0.04c-1.35-0.01-2.7-0.04-4.05-0.05
		c0-0.01,0-0.02,0-0.03c-0.62,0-1.24,0-1.86,0c-0.26,0-0.34,0.06-0.29,0.31c0.07,0.32,0.15,0.68,0.34,0.94
		c0.3,0.42,0.78,0.61,1.31,0.56c0.66-0.06,1.31-0.15,1.96-0.23C26.5,34.93,27.22,34.84,27.95,34.75z"/>
	<path class="st0" d="M30.86,27c0.08,0.05,0.16,0.12,0.24,0.18c0.6,0.4,1.17,0.84,1.8,1.18c0.52,0.28,1.1,0.46,1.66,0.65
		c0.47,0.17,0.48,0.15,0.71-0.3c0.02-0.03,0.04-0.07,0.04-0.11c-0.02-0.13,0-0.29-0.08-0.38c-0.12-0.14-0.3-0.24-0.45-0.34
		c-0.51-0.35-1-0.73-1.4-1.21c-0.39-0.47-0.79-0.94-1.2-1.39c-0.21-0.23-0.45-0.45-0.73-0.41c-0.5,0.01-0.82,0.22-1.02,0.56
		c-0.11,0.19-0.21,0.44-0.18,0.64C30.3,26.46,30.52,26.78,30.86,27z"/>
	<path class="st0" d="M43.4,36.78c-0.14-0.1-0.33-0.18-0.48-0.17c-0.5,0.04-1,0.12-1.5,0.2c-0.84,0.14-1.67,0.29-2.51,0.43
		c-0.57,0.1-1.15,0.18-1.72,0.28c-0.13,0.02-0.29,0.09-0.38,0.19c-0.19,0.23-0.21,0.51-0.06,0.77c0.13,0.22,0.37,0.27,0.59,0.3
		c0.07-0.01,0.13-0.01,0.18-0.02c0.91-0.14,1.83-0.29,2.74-0.43c0.18-0.03,0.36-0.05,0.55-0.07c1.04-0.16,2.08-0.33,3.12-0.5
		c0.08-0.01,0.22-0.07,0.22-0.11c0-0.1-0.03-0.24-0.1-0.31C43.85,37.14,43.64,36.94,43.4,36.78z"/>
	<path class="st0" d="M27.99,36.32c0.83-0.14,1.66-0.29,2.49-0.43c0.65-0.11,1.3-0.2,1.95-0.3c0.08-0.01,0.16-0.07,0.3-0.13
		c-0.26-0.23-0.49-0.41-0.69-0.63c-0.49-0.54-1.12-0.43-1.69-0.29c-0.32,0.08-0.64,0.16-0.97,0.2c-0.27,0.03-0.53,0.05-0.8,0.1
		c-0.24,0.04-0.47,0.13-0.71,0.17c-0.34,0.05-0.69,0.06-1.03,0.11c-0.32,0.05-0.64,0.13-0.96,0.2c-0.08,0.02-0.18,0.01-0.25,0.05
		c-0.35,0.19-0.61,0.51-0.38,0.89c0.15,0.25,0.4,0.44,0.73,0.38c0.35-0.05,0.69-0.13,1.04-0.19C27.35,36.4,27.67,36.37,27.99,36.32z
		"/>
	<path class="st0" d="M45,38.32c-0.16-0.18-0.34-0.24-0.58-0.21c-0.58,0.09-1.16,0.19-1.74,0.28c-0.18,0.03-0.36,0.05-0.55,0.07
		c-1.04,0.16-2.09,0.32-3.12,0.5c-0.19,0.03-0.41,0.12-0.55,0.25c-0.23,0.21-0.29,0.47-0.11,0.76c0.17,0.26,0.38,0.33,0.66,0.32
		c0.11-0.01,0.21-0.02,0.32-0.03c0.56-0.09,1.12-0.18,1.67-0.27c0.2-0.03,0.39-0.05,0.59-0.08c0.92-0.15,1.84-0.3,2.76-0.45
		c0.35-0.06,0.7-0.1,1.04-0.19c0.25-0.06,0.27-0.21,0.1-0.4C45.33,38.68,45.16,38.51,45,38.32z"/>
	<path class="st0" d="M30.46,37.71c1.05-0.16,2.1-0.33,3.15-0.5c0.17-0.03,0.34-0.04,0.49-0.1c0.24-0.08,0.26-0.26,0.07-0.42
		c-0.16-0.14-0.31-0.29-0.48-0.43c-0.23-0.18-0.43-0.39-0.79-0.32c-0.76,0.16-1.53,0.3-2.3,0.42c-0.84,0.14-1.68,0.25-2.52,0.37
		c-0.15,0.02-0.32,0.01-0.45,0.07c-0.2,0.09-0.44,0.19-0.56,0.35c-0.28,0.37,0.01,0.99,0.6,0.96c0.06-0.01,0.12-0.01,0.18-0.02
		c0.69-0.11,1.38-0.21,2.06-0.32C30.1,37.75,30.28,37.74,30.46,37.71z"/>
	<path class="st0" d="M45.67,39.72c-0.56,0.1-1.12,0.19-1.68,0.27c-0.86,0.13-1.73,0.24-2.59,0.37c-0.45,0.07-0.89,0.15-1.33,0.25
		c-0.47,0.1-0.64,0.64-0.33,1c0.27,0.31,0.6,0.31,0.97,0.22c0.29-0.07,0.58-0.11,0.88-0.16c0.25-0.04,0.5-0.06,0.75-0.1
		c0.78-0.13,1.55-0.28,2.33-0.41c0.61-0.1,1.22-0.19,1.83-0.29c0.12-0.02,0.23-0.07,0.39-0.13c-0.18-0.26-0.34-0.46-0.47-0.69
		C46.25,39.76,46,39.66,45.67,39.72z"/>
	<path class="st0" d="M41.71,35.44c-0.37-0.29-0.76-0.43-1.23-0.26c-0.25,0.09-0.52,0.1-0.79,0.14s-0.53,0.06-0.8,0.1
		c-0.84,0.14-1.67,0.29-2.51,0.43c-0.24,0.04-0.49,0.03-0.73,0.09c-0.24,0.06-0.49,0.16-0.57,0.43c-0.15,0.52,0.13,0.88,0.73,0.87
		c0.04,0,0.12-0.01,0.21-0.02c0.57-0.09,1.15-0.19,1.72-0.28c0.21-0.03,0.43-0.05,0.64-0.09c0.89-0.15,1.78-0.29,2.67-0.44
		c0.42-0.07,0.84-0.15,1.26-0.24c0.06-0.01,0.11-0.09,0.16-0.14c-0.04-0.05-0.08-0.1-0.13-0.14C42.14,35.75,41.92,35.6,41.71,35.44z
		"/>
	<path class="st0" d="M33.8,38.92c0.65-0.11,1.3-0.2,1.95-0.3c0.08-0.01,0.15-0.06,0.27-0.11c-0.29-0.41-0.62-0.71-0.99-0.97
		c-0.07-0.05-0.19-0.06-0.29-0.05c-0.4,0.04-0.81,0.08-1.21,0.15c-0.79,0.13-1.57,0.28-2.35,0.41c-0.66,0.11-1.32,0.21-1.97,0.32
		c-0.28,0.05-0.45,0.22-0.49,0.48c-0.05,0.32,0.04,0.5,0.28,0.66c0.22,0.14,0.43,0.16,0.68,0.09c0.16-0.05,0.33-0.07,0.5-0.09
		c0.36-0.05,0.73-0.09,1.09-0.15C32.11,39.22,32.96,39.06,33.8,38.92z"/>
	<path class="st0" d="M47.22,41.39c-0.07-0.05-0.17-0.09-0.25-0.08c-0.53,0.06-1.07,0.12-1.6,0.2c-0.88,0.14-1.77,0.29-2.65,0.44
		c-0.48,0.08-0.95,0.15-1.42,0.26c-0.14,0.03-0.31,0.14-0.37,0.26c-0.22,0.41-0.08,0.95,0.65,0.95c0.48-0.06,1.02-0.12,1.55-0.21
		c0.86-0.14,1.72-0.3,2.58-0.44c0.63-0.1,1.25-0.19,1.88-0.29c0.15-0.02,0.24-0.12,0.17-0.26C47.62,41.94,47.52,41.6,47.22,41.39z"
		/>
	<path class="st0" d="M33.8,40.73c0.88-0.14,1.75-0.29,2.62-0.44c0.27-0.04,0.55-0.06,0.82-0.1c0.08-0.01,0.19-0.09,0.21-0.16
		s-0.04-0.18-0.09-0.25c-0.13-0.15-0.27-0.29-0.41-0.43c-0.24-0.25-0.49-0.43-0.88-0.34c-0.78,0.17-1.56,0.3-2.35,0.42
		c-0.86,0.14-1.73,0.25-2.59,0.37c-0.31,0.05-0.63,0.3-0.69,0.54c-0.1,0.4,0.27,0.83,0.74,0.79c0.09-0.01,0.18-0.01,0.27-0.03
		c0.58-0.09,1.16-0.19,1.74-0.28C33.4,40.79,33.6,40.76,33.8,40.73z"/>
	<path class="st0" d="M34.53,42.39c0.91-0.15,1.83-0.3,2.74-0.45c0.5-0.08,1-0.17,1.49-0.26c0.19-0.04,0.23-0.14,0.11-0.27
		c-0.19-0.22-0.38-0.45-0.59-0.64c-0.12-0.12-0.3-0.18-0.39-0.23c-0.43,0.06-0.76,0.09-1.09,0.15c-0.76,0.13-1.52,0.27-2.28,0.4
		c-0.69,0.12-1.38,0.21-2.06,0.33c-0.41,0.07-0.62,0.47-0.47,0.85c0.14,0.34,0.49,0.5,0.87,0.41c0.21-0.05,0.42-0.09,0.63-0.13
		C33.83,42.48,34.18,42.45,34.53,42.39z"/>
	<path class="st0" d="M37.71,45.45c0.84-0.14,1.69-0.3,2.53-0.44c0.29-0.05,0.58-0.06,0.87-0.1c0.25-0.04,0.32-0.22,0.17-0.43
		c-0.13-0.17-0.26-0.34-0.38-0.52c-0.16-0.24-0.36-0.33-0.64-0.28c-0.56,0.1-1.12,0.18-1.68,0.27c-0.08,0.01-0.15,0.03-0.23,0.04
		c-0.84,0.14-1.69,0.29-2.53,0.43c-0.23,0.04-0.48,0.04-0.71,0.08c-0.24,0.05-0.48,0.15-0.57,0.4c-0.19,0.51,0.11,0.91,0.7,0.91
		c0.04,0,0.12-0.01,0.2-0.02c0.44-0.08,0.89-0.17,1.33-0.24C37.09,45.51,37.4,45.5,37.71,45.45z"/>
	<path class="st0" d="M37.97,47.15c0.14-0.02,0.27-0.04,0.41-0.06c0.91-0.15,1.81-0.3,2.71-0.45c0.29-0.05,0.59-0.07,0.89-0.13
		c0.31-0.07,0.37-0.22,0.23-0.51c-0.06-0.12-0.15-0.23-0.22-0.35c-0.18-0.34-0.31-0.42-0.68-0.37c-0.6,0.09-1.19,0.19-1.79,0.28
		c-0.17,0.03-0.33,0.04-0.5,0.07c-0.96,0.16-1.92,0.32-2.87,0.47c-0.37,0.06-0.62,0.33-0.6,0.69c0.02,0.35,0.32,0.63,0.69,0.64
		c0.14-0.02,0.27-0.05,0.41-0.07C37.1,47.29,37.54,47.22,37.97,47.15z"/>
	<path class="st0" d="M37.58,43.65c0.82-0.13,1.63-0.24,2.45-0.36c0.19-0.03,0.25-0.1,0.13-0.27c-0.17-0.24-0.33-0.48-0.53-0.69
		c-0.11-0.11-0.31-0.23-0.45-0.21c-0.54,0.04-1.08,0.13-1.62,0.22c-0.91,0.15-1.83,0.31-2.74,0.45c-0.4,0.06-0.82,0.05-1.17,0.29
		c-0.09,0.06-0.17,0.16-0.21,0.25c-0.16,0.49,0.12,0.86,0.73,0.86c0.29-0.04,0.68-0.08,1.06-0.14
		C36.03,43.93,36.8,43.78,37.58,43.65z"/>
	<path class="st0" d="M48.3,43.25c-0.07-0.17-0.32-0.34-0.49-0.32c-0.58,0.08-1.15,0.16-1.73,0.25c-0.88,0.14-1.75,0.28-2.62,0.43
		c-0.42,0.07-0.84,0.17-1.25,0.27c-0.09,0.02-0.17,0.12-0.22,0.21c-0.22,0.38-0.02,0.98,0.61,0.95c0.1-0.01,0.2-0.02,0.3-0.03
		c0.72-0.11,1.44-0.22,2.15-0.33c0.17-0.03,0.35-0.04,0.52-0.07c0.9-0.15,1.81-0.31,2.71-0.46c0.28-0.05,0.35-0.17,0.23-0.43
		C48.44,43.57,48.37,43.41,48.3,43.25z"/>
	<path class="st0" d="M38.36,48.85c0.26-0.04,0.53-0.06,0.8-0.11c0.9-0.15,1.79-0.3,2.69-0.44c0.33-0.05,0.67-0.09,1-0.16
		c0.22-0.05,0.28-0.19,0.2-0.4c-0.06-0.16-0.16-0.31-0.22-0.47c-0.12-0.28-0.22-0.35-0.63-0.33c-0.17,0.02-0.45,0.05-0.73,0.1
		c-0.99,0.16-1.98,0.32-2.96,0.48c-0.52,0.09-1.05,0.15-1.56,0.28c-0.49,0.13-0.59,0.67-0.33,0.97c0.23,0.26,0.54,0.35,0.9,0.25
		C37.78,48.93,38.07,48.9,38.36,48.85z"/>
	<path class="st0" d="M39.43,34.01c-0.38-0.26-0.77-0.36-1.23-0.26c-0.85,0.18-1.72,0.31-2.57,0.46c-0.54,0.09-1.09,0.17-1.63,0.27
		c-0.41,0.07-0.61,0.34-0.56,0.72c0.04,0.29,0.4,0.57,0.73,0.53c0.56-0.07,1.12-0.15,1.68-0.24c0.85-0.14,1.7-0.29,2.56-0.43
		c0.58-0.1,1.16-0.18,1.74-0.28c0.08-0.01,0.15-0.06,0.22-0.1c0.01-0.03,0.02-0.06,0.03-0.09c-0.04-0.02-0.07-0.03-0.11-0.05
		C40,34.37,39.7,34.2,39.43,34.01z"/>
	<path class="st0" d="M38.3,50.65c0.25-0.06,0.51-0.1,0.77-0.14c0.28-0.04,0.56-0.06,0.84-0.11c1.04-0.16,2.07-0.35,3.11-0.48
		c0.76-0.09,0.76-0.32,0.5-0.97c-0.08-0.19-0.17-0.44-0.48-0.38c-0.28,0.04-0.56,0.08-0.84,0.12c-0.88,0.14-1.75,0.29-2.63,0.44
		c-0.6,0.1-1.2,0.18-1.79,0.3c-0.24,0.05-0.41,0.22-0.46,0.46c-0.05,0.25-0.01,0.47,0.24,0.64C37.8,50.68,38.02,50.72,38.3,50.65z"
		/>
	<path class="st0" d="M30.07,32.21c0.26,0.22,0.55,0.39,0.92,0.34c0.22-0.03,0.44-0.06,0.66-0.1c0.92-0.15,1.84-0.3,2.77-0.45
		c0.51-0.09,1.03-0.18,1.54-0.27c0.06-0.01,0.14-0.06,0.16-0.11c0.01-0.04-0.05-0.11-0.09-0.16c-0.15-0.19-0.35-0.24-0.59-0.24
		c-0.56,0-1.12-0.03-1.68-0.04c-0.77,0-1.52-0.18-2.27-0.35c-0.48-0.11-0.94-0.27-1.41-0.4c-0.42-0.11-0.7,0.1-0.7,0.54
		C29.38,31.51,29.7,31.89,30.07,32.21z"/>
	<path class="st0" d="M48.92,44.87c-0.1-0.25-0.28-0.33-0.55-0.29c-0.78,0.13-1.57,0.27-2.35,0.39c-0.82,0.13-1.65,0.22-2.48,0.35
		c-0.28,0.04-0.55,0.17-0.67,0.46c-0.19,0.44,0.19,0.92,0.71,0.87c0.27-0.03,0.55-0.06,0.82-0.1c0.77-0.13,1.53-0.28,2.3-0.41
		c0.74-0.12,1.48-0.23,2.22-0.33c0.2-0.03,0.28-0.13,0.22-0.32C49.09,45.29,49,45.08,48.92,44.87z"/>
	<path class="st0" d="M39.09,54.08c0.2-0.03,0.41-0.06,0.61-0.09c0.84-0.14,1.69-0.29,2.53-0.43c0.67-0.11,1.35-0.2,2.02-0.3
		c0.16-0.02,0.23-0.11,0.22-0.27c-0.01-0.17-0.03-0.34-0.04-0.5c-0.05-0.41-0.29-0.57-0.7-0.49c-0.84,0.16-1.69,0.3-2.53,0.44
		c-0.78,0.12-1.56,0.22-2.34,0.34c-0.54,0.08-0.76,0.65-0.44,1.08C38.6,54.09,38.84,54.09,39.09,54.08z"/>
	<path class="st0" d="M40.47,55.64c0.85-0.14,1.7-0.29,2.56-0.43c0.45-0.08,0.91-0.15,1.36-0.23c0.31-0.06,0.33-0.1,0.33-0.42
		c-0.02-0.16-0.03-0.32-0.06-0.48c-0.03-0.18-0.23-0.35-0.41-0.33c-0.51,0.06-1.02,0.12-1.53,0.19c-0.91,0.14-1.81,0.29-2.72,0.45
		c-0.38,0.07-0.75,0.14-1.12,0.24c-0.26,0.07-0.43,0.44-0.36,0.67c0.11,0.33,0.33,0.51,0.69,0.49
		C39.63,55.76,40.05,55.71,40.47,55.64z"/>
	<path class="st0" d="M38.97,52.32c0.88-0.15,1.77-0.3,2.65-0.43c0.76-0.12,1.53-0.23,2.3-0.34c0.14-0.02,0.24-0.1,0.23-0.24
		c-0.01-0.17-0.03-0.35-0.09-0.51c-0.22-0.58-0.26-0.6-0.88-0.5c-0.36,0.06-0.72,0.15-1.08,0.21c-0.27,0.04-0.55,0.06-0.82,0.1
		c-0.9,0.15-1.79,0.31-2.69,0.46c-0.32,0.05-0.66,0.4-0.63,0.67c0.03,0.32,0.39,0.63,0.81,0.62C38.79,52.35,38.88,52.34,38.97,52.32
		z"/>
	<path class="st0" d="M49.46,46.65c-0.06-0.27-0.19-0.39-0.47-0.36c-0.5,0.05-1,0.12-1.5,0.2c-0.88,0.14-1.76,0.29-2.65,0.44
		c-0.35,0.06-0.72,0.03-1.04,0.24c-0.28,0.17-0.37,0.49-0.23,0.79s0.37,0.38,0.68,0.38c0.34-0.05,0.68-0.09,1.02-0.14
		c0.88-0.14,1.76-0.29,2.65-0.44c0.49-0.08,0.98-0.17,1.47-0.26c0.19-0.04,0.28-0.13,0.2-0.34C49.53,46.98,49.49,46.81,49.46,46.65z
		"/>
	<path class="st0" d="M37.26,32.5c-0.22-0.21-0.46-0.28-0.76-0.23c-0.5,0.09-1,0.17-1.49,0.25c-0.86,0.13-1.71,0.25-2.57,0.38
		c-0.05,0.01-0.11,0.02-0.16,0.04c-0.48,0.2-0.69,0.72-0.27,1.1c0.22,0.2,0.46,0.2,0.71,0.16c0.58-0.08,1.15-0.19,1.72-0.28
		c0.21-0.03,0.42-0.06,0.64-0.09c0.91-0.15,1.81-0.29,2.72-0.44c0.11-0.02,0.22-0.06,0.38-0.1c-0.08-0.1-0.11-0.14-0.15-0.18
		C37.78,32.91,37.5,32.72,37.26,32.5z"/>
	<path class="st0" d="M49.04,48.03c-0.48,0.08-1.16,0.19-1.84,0.29c-0.22,0.03-0.44,0.06-0.66,0.09c-0.45,0.07-0.89,0.13-1.33,0.22
		c-0.24,0.05-0.49,0.12-0.71,0.22c-0.27,0.12-0.35,0.36-0.29,0.67c0.05,0.25,0.25,0.45,0.54,0.45c0.43-0.01,0.85-0.06,1.28-0.12
		c0.9-0.14,1.79-0.3,2.69-0.44c0.26-0.04,0.52-0.05,0.77-0.1c0.34-0.07,0.44-0.25,0.37-0.57c-0.02-0.09-0.04-0.18-0.06-0.27
		C49.7,48.03,49.66,48,49.04,48.03z"/>
	<path class="st0" d="M46.62,51.53c0.99-0.16,1.98-0.33,2.97-0.49c0.36-0.06,0.4-0.1,0.41-0.47c0-0.05,0-0.09,0-0.14
		c-0.02-0.66-0.21-0.81-0.87-0.66c-0.01,0-0.01,0-0.02,0.01c-1.06,0.17-2.12,0.33-3.17,0.51c-0.26,0.04-0.54,0.1-0.76,0.23
		c-0.15,0.09-0.29,0.31-0.32,0.49c-0.06,0.36,0.27,0.66,0.69,0.64C45.9,51.63,46.26,51.59,46.62,51.53z"/>
	<path class="st0" d="M49.29,51.57c-0.66,0.11-1.32,0.2-1.97,0.31c-0.58,0.09-1.16,0.18-1.74,0.3c-0.32,0.06-0.54,0.47-0.44,0.74
		c0.14,0.36,0.47,0.53,0.85,0.47c0.91-0.15,1.81-0.28,2.72-0.42c0.23-0.04,0.47-0.06,0.7-0.11c0.54-0.13,0.54-0.14,0.55-0.69
		C50.02,51.62,49.82,51.48,49.29,51.57z"/>
	<path class="st0" d="M49.12,53.33c-0.33,0.04-0.66,0.14-0.99,0.2c-0.71,0.11-1.42,0.21-2.13,0.32c-0.3,0.04-0.48,0.23-0.59,0.49
		c-0.15,0.38,0.25,0.83,0.71,0.83c0.14-0.02,0.27-0.04,0.41-0.06c0.84-0.14,1.67-0.31,2.51-0.43c0.69-0.1,0.62-0.06,0.7-0.71
		C49.82,53.41,49.68,53.26,49.12,53.33z"/>
	<path class="st0" d="M60.82,26.53c-0.03,0.32,0.15,0.57,0.32,0.81c0.23,0.34,0.61,0.3,0.95,0.33c0.51,0.04,0.95-0.14,1.36-0.41
		c0.19-0.13,0.36-0.3,0.52-0.47c0.05-0.05,0.04-0.22-0.01-0.27c-0.48-0.58-1.09-0.91-1.85-0.98C61.51,25.49,60.88,25.95,60.82,26.53
		z"/>
	<path class="st0" d="M48.99,55.18c-0.05,0-0.09,0.01-0.14,0.01c-0.75,0.11-1.5,0.21-2.25,0.33c-0.24,0.04-0.49,0.1-0.72,0.2
		c-0.3,0.14-0.38,0.36-0.32,0.7c0.04,0.23,0.27,0.43,0.53,0.47c0.12,0.02,0.24,0.02,0.37,0.02c0,0.01,0,0.01,0,0.02
		c0.27-0.04,0.54-0.08,0.81-0.13c0.21-0.04,0.4-0.14,0.61-0.16c0.3-0.04,0.61-0.03,0.92-0.05c0.07,0,0.17-0.02,0.2-0.07
		c0.19-0.27,0.38-0.54,0.39-0.89C49.43,55.28,49.33,55.18,48.99,55.18z"/>
	<path class="st0" d="M32.83,24.85c-0.05,0-0.13,0.04-0.15,0.08c-0.02,0.03,0.03,0.11,0.06,0.15c0.13,0.16,0.27,0.32,0.4,0.47
		c0.36,0.4,0.68,0.83,1.08,1.18c0.44,0.39,0.95,0.72,1.43,1.07c0.06,0.04,0.14,0.05,0.26,0.09c0.19-0.09,0.4-0.18,0.61-0.28
		c0.2-0.09,0.21-0.17,0.03-0.31c-0.43-0.34-0.87-0.67-1.3-1.02c-0.38-0.31-0.72-0.67-1.09-0.97C33.79,24.99,33.32,24.88,32.83,24.85
		z"/>
	<path class="st0" d="M65.15,25.81c-0.37-0.62-0.92-0.92-1.56-1.12c0.28-0.18,0.63-0.17,0.82,0c0.13,0.12,0.27,0.12,0.41,0.05
		c0.01-0.02,0.01-0.05,0.02-0.07c-0.07-0.02-0.13-0.05-0.2-0.07c-0.06-0.02-0.16-0.04-0.18-0.08c-0.08-0.21-0.27-0.23-0.44-0.27
		c-0.07-0.02-0.13-0.08-0.19-0.11c-0.07-0.04-0.14-0.11-0.21-0.11c-0.77-0.01-1.55-0.22-2.28,0.23c-0.25,0.15-0.37,0.34-0.28,0.7
		c0.04,0.17,0.22,0.24,0.49,0.21c0.3-0.04,0.61-0.1,0.91-0.1c0.56-0.01,1.12-0.02,1.63,0.26C64.41,25.49,64.76,25.63,65.15,25.81z"
		/>
	<path class="st0" d="M43.88,59.54c16.44,0,29.77-13.33,29.77-29.77S60.32,0,43.88,0S14.11,13.33,14.11,29.77
		S27.44,59.54,43.88,59.54z M43.88,1.74c11.8,0,21.89,7.29,26.02,17.61c-0.05,0.07-0.13,0.12-0.23,0.15
		c-0.06,0.02-0.12,0.03-0.18,0.03c-0.87,0.03-1.75,0.06-2.62,0.07c-0.61,0-1.21-0.04-1.82-0.06c-0.5-0.01-0.95,0.15-1.35,0.44
		c-0.41,0.3-0.81,0.63-1.21,0.94c-0.23,0.18-0.23,0.39-0.01,0.58c0.05,0.04,0.1,0.07,0.14,0.11c0.48,0.51,1.02,0.91,1.71,1.07
		c0.07,0.02,0.14,0.06,0.21,0.1c0.42,0.23,0.93,0.1,1.23-0.26c0.21-0.25,0.44-0.5,0.71-0.68c0.7-0.49,1.52-0.71,2.35-0.86
		c0.48-0.09,0.92-0.21,1.33-0.48c0.06-0.04,0.11-0.05,0.16-0.04c1.02,2.91,1.58,6.04,1.58,9.3c0,15.48-12.55,28.03-28.03,28.03
		S15.85,45.25,15.85,29.77S28.4,1.74,43.88,1.74z"/>
	<rect y="64.89" class="st0" width="2.32" height="8.46"/>
	<path class="st0" d="M16.72,64.89h-2.04l-3.31,8.27l-1.98-3.11c0.38-0.18,0.7-0.43,0.97-0.74c0.4-0.47,0.6-1.02,0.6-1.65
		c0-0.38-0.08-0.75-0.23-1.08c-0.15-0.34-0.38-0.64-0.67-0.89S9.41,65.24,9,65.1c-0.41-0.14-0.87-0.2-1.37-0.2H4.1v8.46h2.32v-2.87
		h0.65l1.83,2.87h2.39h0.19h2.25l0.71-1.85h2.49l0.72,1.85h2.44L16.72,64.89z M8.64,67.66c0,0.25-0.08,0.43-0.24,0.57
		c-0.18,0.15-0.45,0.23-0.81,0.23H6.42v-1.55h1.2c0.37,0,0.64,0.07,0.8,0.21C8.51,67.2,8.64,67.35,8.64,67.66z M16.18,69.51h-0.94
		l0.38-0.98l0.09-0.3L16.18,69.51z"/>
	<polygon class="st0" points="25.95,69.3 23.07,64.89 20.87,64.89 20.87,73.35 23.19,73.35 23.19,68.94 26.14,73.35 28.28,73.35 
		28.28,64.89 25.95,64.89 	"/>
	<path class="st0" d="M38.31,64.89h-2.04l-3.39,8.46h2.45l0.71-1.85h2.49l0.72,1.85h2.44L38.31,64.89z M37.76,69.51h-0.94l0.38-0.98
		l0.09-0.3L37.76,69.51z"/>
	<rect x="42.48" y="64.89" class="st0" width="2.32" height="8.46"/>
	<path class="st0" d="M51.87,70.05c0.38-0.18,0.7-0.43,0.97-0.74c0.4-0.47,0.6-1.02,0.6-1.65c0-0.38-0.08-0.75-0.23-1.08
		c-0.15-0.34-0.38-0.64-0.67-0.89c-0.29-0.25-0.65-0.45-1.06-0.59s-0.87-0.2-1.37-0.2h-3.52v8.46h2.32v-2.87h0.65l1.83,2.87h2.59
		L51.87,70.05z M48.9,66.91h1.2c0.37,0,0.64,0.07,0.8,0.21c0.09,0.08,0.22,0.23,0.22,0.54c0,0.25-0.08,0.43-0.24,0.57
		c-0.18,0.15-0.45,0.23-0.81,0.23H48.9V66.91z"/>
	<polygon class="st0" points="61,64.89 53.82,64.89 53.82,66.91 56.24,66.9 56.24,73.35 58.56,73.35 58.56,66.9 61,66.91 	"/>
	<path class="st0" d="M69.65,70.79c0.16-0.52,0.25-1.08,0.25-1.67s-0.08-1.16-0.25-1.67c-0.17-0.54-0.44-1.01-0.8-1.4
		c-0.36-0.4-0.82-0.71-1.36-0.94c-0.54-0.22-1.16-0.34-1.87-0.34c-0.7,0-1.33,0.11-1.87,0.34c-0.54,0.22-1,0.54-1.36,0.94
		c-0.36,0.39-0.63,0.87-0.8,1.4c-0.16,0.52-0.25,1.08-0.25,1.67s0.08,1.16,0.25,1.67c0.17,0.54,0.44,1.01,0.8,1.4
		c0.36,0.4,0.82,0.71,1.36,0.94c0.54,0.22,1.16,0.34,1.87,0.34c0.7,0,1.33-0.11,1.87-0.34c0.54-0.22,1-0.54,1.36-0.94
		C69.21,71.8,69.48,71.33,69.65,70.79z M67.58,69.12c0,0.81-0.17,1.44-0.51,1.86c-0.31,0.39-0.78,0.58-1.44,0.58
		s-1.12-0.19-1.44-0.58c-0.34-0.42-0.51-1.05-0.51-1.86s0.17-1.44,0.51-1.86c0.31-0.39,0.78-0.58,1.43-0.58
		c0.66,0,1.12,0.19,1.44,0.58C67.41,67.68,67.58,68.31,67.58,69.12z"/>
	<path class="st0" d="M73.41,73.26c0.45,0.14,0.96,0.21,1.5,0.21c0.55,0,1.05-0.07,1.5-0.21c0.47-0.15,0.88-0.38,1.21-0.69
		c0.33-0.31,0.59-0.7,0.76-1.16c0.17-0.45,0.26-0.97,0.26-1.56V64.9h-2.32v4.96c0,0.58-0.13,1.01-0.37,1.26
		c-0.24,0.25-0.58,0.37-1.04,0.37s-0.8-0.12-1.04-0.37c-0.25-0.26-0.37-0.68-0.37-1.26V64.9h-2.32v4.95c0,0.59,0.09,1.11,0.26,1.56
		c0.18,0.46,0.43,0.85,0.76,1.16C72.53,72.87,72.94,73.11,73.41,73.26z"/>
	<path class="st0" d="M82.68,70.47h0.65l1.83,2.87h2.59l-2.1-3.3c0.38-0.18,0.7-0.43,0.97-0.74c0.4-0.47,0.6-1.02,0.6-1.65
		c0-0.38-0.08-0.75-0.23-1.08c-0.15-0.34-0.38-0.64-0.67-0.89s-0.65-0.45-1.06-0.59c-0.41-0.14-0.87-0.2-1.37-0.2h-3.52v8.46h2.32
		v-2.88H82.68z M84.9,67.66c0,0.25-0.08,0.43-0.24,0.57c-0.18,0.15-0.45,0.23-0.81,0.23h-1.16v-1.55h1.2c0.37,0,0.64,0.07,0.8,0.21
		C84.77,67.2,84.9,67.35,84.9,67.66z"/>
	<path class="st0" d="M19.25,75.99l-1.53,3.95h0.55l0.4-1.06h1.7l0.4,1.06h0.55l-1.53-3.95H19.25z M18.85,78.42l0.42-1.08l0.25-0.77
		h0.01l0.25,0.77l0.42,1.08H18.85z"/>
	<rect x="26.04" y="75.99" class="st0" width="0.53" height="3.95"/>
	<path class="st0" d="M33.96,78.17c0.12-0.07,0.22-0.16,0.3-0.26c0.08-0.1,0.14-0.21,0.19-0.34c0.04-0.12,0.06-0.25,0.06-0.39
		c0-0.16-0.03-0.32-0.09-0.46s-0.15-0.27-0.27-0.37c-0.12-0.11-0.26-0.19-0.43-0.25c-0.17-0.06-0.36-0.09-0.58-0.09h-1.48v3.95h0.53
		v-1.55h0.83l0.94,1.55h0.58l-0.98-1.6C33.71,78.3,33.84,78.24,33.96,78.17z M32.19,77.92v-1.46h0.95c0.27,0,0.48,0.06,0.63,0.19
		c0.14,0.13,0.21,0.3,0.21,0.52c0,0.23-0.08,0.41-0.23,0.54c-0.16,0.13-0.37,0.2-0.64,0.2h-0.92V77.92z"/>
	<polygon class="st0" points="39.91,75.99 39.38,75.99 39.38,79.94 41.86,79.94 41.86,79.47 39.91,79.47 	"/>
	<rect x="46.64" y="75.99" class="st0" width="0.53" height="3.95"/>
	<path class="st0" d="M54.83,78.39c0,0.16,0,0.32,0.01,0.45c0.01,0.14,0.02,0.28,0.04,0.41h-0.01c-0.05-0.09-0.1-0.2-0.17-0.33
		c-0.07-0.13-0.15-0.26-0.23-0.38l-1.64-2.55h-0.56v3.95h0.53v-2.39c0-0.16,0-0.32-0.01-0.45c-0.01-0.14-0.02-0.28-0.04-0.41h0.01
		c0.04,0.09,0.1,0.2,0.17,0.33c0.07,0.13,0.15,0.26,0.23,0.38l1.64,2.55h0.56V76h-0.53V78.39z"/>
	<polygon class="st0" points="60.97,78.13 62.84,78.13 62.84,77.66 60.97,77.66 60.97,76.46 62.97,76.46 62.97,75.99 60.44,75.99 
		60.44,79.94 63,79.94 63,79.47 60.97,79.47 	"/>
	<path class="st0" d="M69.95,78.09c-0.12-0.09-0.25-0.16-0.39-0.22c-0.15-0.06-0.29-0.11-0.43-0.16c-0.12-0.04-0.24-0.08-0.35-0.12
		s-0.21-0.09-0.29-0.14s-0.15-0.12-0.2-0.19c-0.05-0.07-0.07-0.17-0.07-0.27c0-0.18,0.07-0.32,0.21-0.43s0.37-0.17,0.69-0.17
		c0.17,0,0.33,0.02,0.47,0.05c0.15,0.03,0.28,0.07,0.4,0.13l0.13-0.42c-0.14-0.07-0.3-0.12-0.46-0.16
		c-0.16-0.04-0.35-0.06-0.55-0.06c-0.25,0-0.46,0.03-0.63,0.08c-0.18,0.05-0.32,0.13-0.44,0.22c-0.12,0.1-0.2,0.21-0.25,0.34
		C67.73,76.7,67.7,76.84,67.7,77c0,0.19,0.04,0.34,0.11,0.47c0.07,0.13,0.17,0.23,0.28,0.32c0.11,0.08,0.24,0.15,0.38,0.21
		c0.14,0.05,0.27,0.1,0.39,0.14c0.13,0.04,0.25,0.08,0.37,0.12s0.22,0.09,0.31,0.15c0.09,0.06,0.16,0.12,0.21,0.2
		c0.05,0.08,0.08,0.18,0.08,0.29s-0.03,0.22-0.08,0.3s-0.12,0.15-0.21,0.21c-0.09,0.05-0.19,0.09-0.32,0.12
		c-0.12,0.03-0.26,0.04-0.4,0.04c-0.21,0-0.4-0.02-0.56-0.05c-0.17-0.04-0.31-0.08-0.42-0.14l-0.13,0.42
		c0.14,0.07,0.29,0.12,0.47,0.16s0.4,0.06,0.66,0.06c0.23,0,0.43-0.02,0.62-0.06s0.35-0.11,0.48-0.2c0.13-0.09,0.24-0.21,0.31-0.35
		s0.11-0.3,0.11-0.49c0-0.19-0.04-0.35-0.11-0.48C70.16,78.29,70.07,78.18,69.95,78.09z"/>
	<rect x="0.15" y="77.69" class="st0" width="15.55" height="0.78"/>
	<rect x="72.19" y="77.69" class="st0" width="15.56" height="0.78"/>
</g>
</svg>
