<?xml version="1.0" encoding="utf-8"?>
<!-- Generator: Adobe Illustrator 25.4.1, SVG Export Plug-In . SVG Version: 6.00 Build 0)  -->
<svg version="1.1" xmlns="http://www.w3.org/2000/svg" xmlns:xlink="http://www.w3.org/1999/xlink" x="0px" y="0px"
	 viewBox="0 0 863.8 80" style="enable-background:new 0 0 863.8 80;" xml:space="preserve">
<style type="text/css">
	.st0{fill:#11263B;}
</style>
<g id="Layer_1">
</g>
<g id="Layer_2">
	<g>
		<polygon class="st0" points="213.9,78.1 235.6,78.1 263.4,35.5 263.4,35.2 263.6,35.5 291.4,78.1 313.1,78.1 263.5,2.1 		"/>
		<polygon class="st0" points="738.9,41.9 677.5,2.1 677.5,26.8 677.5,78.1 699.2,78.1 699.2,40.2 760.6,78.1 760.6,56 760.6,2.1 
			738.9,2.1 		"/>
		<polygon class="st0" points="103,2.1 103,18.5 103,31.9 103,48.3 103,61.7 103,78.1 124.7,78.1 183.3,78.1 183.3,61.7 124.7,61.7 
			124.7,48.3 173.8,48.3 173.8,31.9 124.7,31.9 124.7,18.5 183.3,18.5 183.3,2.1 124.7,2.1 		"/>
		<polygon class="st0" points="864.9,18.5 864.9,2.1 806.3,2.1 784.6,2.1 784.6,18.5 784.6,31.9 784.6,48.3 784.6,61.7 784.6,78.1 
			806.3,78.1 864.9,78.1 864.9,61.7 806.3,61.7 806.3,48.3 855.3,48.3 855.3,31.9 806.3,31.9 806.3,18.5 		"/>
		<path class="st0" d="M646.4,24.8c0-14.8-12.7-22.7-27.4-22.7c-9.3,0-22.3,0-30.6,0h-8.2h-13.5v76h21.7V18.5h25.8
			c0,0,10.9,0.2,10.9,8.8s-8.8,10.1-19.5,10.1l26.8,40.6h21.5l-22.3-34.8C631.6,43.3,646.4,39.6,646.4,24.8z"/>
		<path class="st0" d="M413.1,36.9c2.5-2.8,4.5-6.7,4.5-12.2c0-14.8-12.7-22.7-27.4-22.7c-9.8,0-23.9,0-32.1,0h-6.7h-15v76h15h6.7
			c8.2,0,22.3,0,32.1,0c14.7,0,32.5-7.9,32.5-22.7C422.6,46.1,417.1,40.1,413.1,36.9z M385.4,61.7H358V18.5h27.3
			c3.9,0,11,1.9,11,9.2c0,7.3-5.8,9.9-5.8,9.9s10.5,3.7,10.5,13.7C401.1,61.3,385.4,61.7,385.4,61.7z"/>
		<path class="st0" d="M50.9,31.9H27.4c0,0-11.3,0.9-11.3-7s11.3-6.4,11.3-6.4h50.9V2.1H27.4c0,0-27.4-1-27.4,22.6
			c0,23.6,27.4,23.7,27.4,23.7h23.5c6.2,0,11.8,1.1,11.8,7.5s-11.8,5.8-11.8,5.8H0v16.4h50.9c0,0,28.6,1.9,28.6-22.8
			S50.9,31.9,50.9,31.9z"/>
		<path class="st0" d="M492.8,0c-26.6,0-48.1,17.9-48.1,40s21.6,40,48.1,40c26.6,0,48.1-17.9,48.1-40S519.4,0,492.8,0z M492.8,63
			c-15.3,0-27.7-10.3-27.7-23s12.4-23,27.7-23c15.3,0,27.7,10.3,27.7,23S508.1,63,492.8,63z"/>
	</g>
</g>
</svg>
