<?xml version="1.0" encoding="utf-8"?>
<!-- Generator: Adobe Illustrator 25.4.1, SVG Export Plug-In . SVG Version: 6.00 Build 0)  -->
<svg version="1.1" id="Layer_1" xmlns="http://www.w3.org/2000/svg" xmlns:xlink="http://www.w3.org/1999/xlink" x="0px" y="0px"
	 viewBox="0 0 505.06 80" style="enable-background:new 0 0 505.06 80;" xml:space="preserve">
<style type="text/css">
	.st0{fill:#1E398D;}
	.st1{fill:#DCAA0D;}
	.st2{fill:#FFDD00;}
</style>
<g>
	<g id="layer1" transform="translate(-926.15988,-427.62421)">
	</g>
	<polygon class="st0" points="404.45,79.79 484.04,79.79 505.06,30.64 482.52,30.64 428.21,60.84 	"/>
	<polygon class="st1" points="452.01,49.79 482.52,30.64 449.88,30.64 446.47,0 430.3,30.64 398.53,30.64 420.35,49.48 
		404.45,79.79 433.89,61.16 455.33,79.67 	"/>
	<path class="st2" d="M404.45,79.79l29.44-18.63l21.46,18.63l-3.32-29.89l30.5-19.27C482.52,30.64,434.83,33.53,404.45,79.79z"/>
	<path class="st0" d="M27.91,79.83H0l4.28-10.09h24.29c0,0,4.61-0.47,6.97-3.79c2.35-3.31-4.23-4.89-4.23-4.89
		s-12.4-3.47-13.53-3.78c-1.13-0.31-12.25-3.47-5.76-15.77c6.48-12.3,20.7-10.88,20.7-10.88h27.12l-4.28,10.09H31.27
		c0,0-4.1,0-5.84,3c-1.75,3,2.67,4.1,3.87,4.26c1.19,0.16,11.32,2.68,13.44,3.63c2.12,0.94,12.48,4.42,6.91,15.3
		C44.72,76.53,37.69,79.83,27.91,79.83z"/>
	<polygon class="st0" points="70.89,66.27 65.13,79.83 50.62,79.83 71.5,30.63 86.01,30.63 77.65,50.34 100.05,30.63 118.18,30.63 
		92.85,50.18 102.66,79.83 85.79,79.83 79.82,59.33 	"/>
	<polyline class="st0" points="170.06,30.63 152.88,30.63 134.48,50.18 134.74,30.63 119.44,30.63 122.05,62.01 114.49,79.83 
		129,79.83 136.56,62.01 170.06,30.63 	"/>
	<polygon class="st0" points="174.07,30.05 154.08,80 166.31,80 181.22,43.92 179.73,80 190.17,80 214.32,42.72 201.5,80 214.03,80 
		235.5,29.9 211.64,29.9 190.77,63.6 191.06,29.9 	"/>
	<path class="st0" d="M259.11,29.99l-42.72,49.68h13.78l7.89-10.48h17.84v10.48h14.7V29.99H259.11z M257.12,60.8h-12.25l13.07-16.74
		L257.12,60.8z"/>
	<polygon class="st0" points="348.93,66.21 343.17,79.77 328.66,79.77 349.55,30.57 364.05,30.57 355.69,50.28 378.09,30.57 
		396.22,30.57 370.89,50.13 380.7,79.77 363.83,79.77 357.86,59.27 	"/>
	<path class="st0" d="M322.6,30.1c-11.3,0-28.86,0-28.86,0l-21.93,49.57h14.2l7.59-19.1h8.88l5.51,19.1h17.9l-7.73-21.05
		c0,0,7.94-3.23,13.99-12.91C338.2,36.02,333.9,30.1,322.6,30.1z M306.92,50.55c-1.98,0-8.81,0-8.81,0l4.91-11.37
		c0,0,8.34,0,11.03,0c2.69,0,5.65,0.07,5.65,3.5C319.71,48.94,311.15,50.55,306.92,50.55z"/>
</g>
</svg>
