<?xml version="1.0" encoding="utf-8"?>
<!-- Generator: Adobe Illustrator 25.4.1, SVG Export Plug-In . SVG Version: 6.00 Build 0)  -->
<svg version="1.1" id="Layer_2_00000159471598350358213750000014612203606435250611_"
	 xmlns="http://www.w3.org/2000/svg" xmlns:xlink="http://www.w3.org/1999/xlink" x="0px" y="0px" viewBox="0 0 668.3 80"
	 style="enable-background:new 0 0 668.3 80;" xml:space="preserve">
<style type="text/css">
	.st0{fill:#0050A3;}
	.st1{fill:#1DAAE3;}
	.st2{fill:#00AAE7;}
	.st3{fill:#0050A2;}
	.st4{fill:#66C6F1;}
	.st5{fill:#617BBC;}
</style>
<g>
	<path class="st0" d="M0,0.1h49v13.4H15.5v20h28.2v13.4H15.5v31.5H0V0.1z"/>
	<path class="st0" d="M57.4,17.2h14.6v10.6c0,2.3-0.2,4.2-0.2,4.2h0.2c2.8-8.8,10-15.7,19.5-15.7c1.3,0,2.8,0.2,2.8,0.2v15
		c0,0-1.6-0.2-3.6-0.2c-6.5,0-13.8,3.7-16.7,12.8c-0.9,3-1.2,6.3-1.2,9.9v24.2H57.4V17.2z"/>
	<path class="st0" d="M128.6,15.7c17.6,0,27.1,12.8,27.1,29.1c0,1.9-0.3,5.9-0.3,5.9H113c0.9,10.7,9.2,16.3,18.3,16.3
		c9.8,0,17.6-6.7,17.6-6.7l5.9,10.9c0,0-9.4,8.8-24.5,8.8C110,80,97.4,65.4,97.4,47.9C97.4,29,110.4,15.7,128.6,15.7z M140.3,40.2
		c-0.2-8.2-5.5-12.7-12.1-12.7c-7.8,0-13.3,4.8-14.6,12.7H140.3z"/>
	<path class="st1" d="M467.2,15.7c17.6,0,27.1,12.8,27.1,29.1c0,1.9-0.3,5.9-0.3,5.9h-42.3c0.9,10.7,9.2,16.3,18.3,16.3
		c9.8,0,17.6-6.7,17.6-6.7l5.9,10.9c0,0-9.4,8.8-24.5,8.8C448.6,80,436,65.4,436,47.9C436.2,29,449,15.7,467.2,15.7z M479,40.2
		c-0.2-8.2-5.5-12.7-12.1-12.7c-7.8,0-13.3,4.8-14.6,12.7H479z"/>
	<path class="st1" d="M533.1,15.7c17.6,0,27.1,12.8,27.1,29.1c0,1.9-0.3,5.9-0.3,5.9h-42.3c0.9,10.7,9.2,16.3,18.3,16.3
		c9.8,0,17.6-6.7,17.6-6.7l5.9,10.9c0,0-9.4,8.8-24.5,8.8C514.5,80,502,65.4,502,47.9C502.1,29,514.8,15.7,533.1,15.7z M544.8,40.2
		c-0.2-8.2-5.5-12.7-12.1-12.7c-7.8,0-13.3,4.8-14.6,12.7H544.8z"/>
	<path class="st0" d="M165.6,17.2h14.6v7c0,2.3-0.2,4.1-0.2,4.1h0.2c2.7-5.2,9.4-12.7,21.6-12.7c13.7,0,21.3,7.1,21.3,23.3v39.4h-15
		V42.1c0-7.5-2-12.5-9.7-12.5c-8.1,0-14.1,5.2-16.5,12.5c-0.8,2.6-1,5.3-1,8.1v28.1h-15.4L165.6,17.2L165.6,17.2z"/>
	<path class="st0" d="M263.8,15.7c16,0,23.5,9.1,23.5,9.1l-6.7,10.5c0,0-6.3-6.6-16-6.6c-11.2,0-18.6,8.6-18.6,19
		c0,10.4,7.5,19.3,19.2,19.3c10.4,0,17.9-7.8,17.9-7.8l5.9,10.8c0,0-8.8,9.9-25.3,9.9c-20.3,0-33.2-14.3-33.2-32.1
		C230.6,30.4,243.6,15.7,263.8,15.7z"/>
	<path class="st0" d="M295.7,0.1h15.3v22.6c0,3-0.2,5.2-0.2,5.2h0.2c3-5.9,10.5-12.1,21-12.1c13.6-0.1,21.3,7,21.3,23.2v39.3h-15
		V42.1c0-7.5-2-12.5-9.7-12.5c-8,0-14.3,5.3-16.6,12.7c-0.7,2.5-0.9,5.1-0.9,7.9v28.1h-15.4L295.7,0.1L295.7,0.1z"/>
	<path class="st1" d="M368,0.1h15.3v19.4c0,3-0.2,5.2-0.2,5.2h0.2c0,0,5.5-8.9,18.3-8.9c16.6,0,27.1,13.1,27.1,32.1
		c0,19.5-11.9,32.1-28.1,32.1c-12.7,0-18.2-9.1-18.2-9.1h-0.1c0,0,0.2,1.9,0.2,4.1v3.5h-14.4L368,0.1L368,0.1z M397.9,67
		c8.5,0,15.4-6.8,15.4-19c0-11.6-6.2-19.3-15.3-19.3c-7.9,0-15.4,5.8-15.4,19.4C382.7,57.6,387.7,67,397.9,67z"/>
	<path class="st2" d="M624.6,54.6c-17.2-24.8-19.8-60-1.9-53.9C640.6,6.8,666.1,25.3,624.6,54.6"/>
	<path class="st3" d="M624.6,54.6c-17,11.2-40.2,12.1-37.5,1.9C589.8,45.7,600.8,28.9,624.6,54.6"/>
	<path class="st4" d="M625.8,56.6c5.3,9.1,18.4,12.7,28.3,3.1C667.7,46.6,687.5,18,625.8,56.6"/>
	<path class="st5" d="M625.8,56.6c-13.4,8.9-24.1,23.4-17.6,23.2C614.8,79.6,630.7,70.8,625.8,56.6"/>
</g>
</svg>
