<?xml version="1.0" encoding="utf-8"?>
<!-- Generator: Adobe Illustrator 25.4.1, SVG Export Plug-In . SVG Version: 6.00 Build 0)  -->
<svg version="1.1" id="Layer_1" xmlns="http://www.w3.org/2000/svg" xmlns:xlink="http://www.w3.org/1999/xlink" x="0px" y="0px"
	 viewBox="0 0 79.2 80" style="enable-background:new 0 0 79.2 80;" xml:space="preserve">
<style type="text/css">
	.st0{fill:#E1241A;}
	.st1{fill:#FFFFFF;}
</style>
<path class="st0" d="M11.49,11.82c3.62-3.81,8.07-6.61,12.7-8.72C29.22,1.02,34.26,0,39.7,0c5.24,0,10.27,1.02,15.32,3.12
	c4.84,2.1,9.06,4.89,12.89,8.72c3.62,3.58,6.25,7.86,8.27,12.69c2.02,4.91,3.02,10.11,3.02,15.56c0,5.29-1,10.51-3.02,15.56
	c-2.01,4.83-4.64,8.95-8.27,12.69c-3.83,3.81-8.06,6.61-12.89,8.55C49.97,78.98,44.94,80,39.7,80c-5.44,0-10.48-1-15.52-3.12
	c-4.64-1.94-9.07-4.74-12.7-8.55c-3.83-3.73-6.45-7.86-8.46-12.69C1,50.57,0,45.36,0,40.07c0-5.45,1-10.66,3.02-15.56
	C5.03,19.68,7.65,15.4,11.49,11.82L11.49,11.82z M48.97,38.74L53,42.63c1,1.09,2.82,1.09,4.43,0l9.07-6.07l-2.41-2.18h12.89
	l-19.15,13.7c-2.41,1.32-4.03,1.48-5.44,0.31c-1.62-1.17-2.41-1.87-2.41-1.71c-1.21-1.71-3.02-1.95-5.24-0.78l-11.89,8.8H11.69
	l20.16-15.17L2.42,39.69l4.03-3.9h37.29C45.75,35.56,47.37,36.57,48.97,38.74L48.97,38.74z"/>
<path class="st1" d="M48.97,38.74L53,42.63c1,1.09,2.82,1.09,4.43,0l9.07-6.07l-2.41-2.18h12.89l-19.15,13.7
	c-2.41,1.32-4.03,1.48-5.44,0.31c-1.62-1.17-2.41-1.87-2.41-1.71c-1.21-1.71-3.02-1.95-5.24-0.78l-11.89,8.8H11.69l20.16-15.17
	L2.42,39.69l4.03-3.9h37.29C45.75,35.56,47.37,36.57,48.97,38.74L48.97,38.74z"/>
</svg>
