<?xml version="1.0" encoding="utf-8"?>
<!-- Generator: Adobe Illustrator 25.4.1, SVG Export Plug-In . SVG Version: 6.00 Build 0)  -->
<svg version="1.1" id="Layer_1" xmlns="http://www.w3.org/2000/svg" xmlns:xlink="http://www.w3.org/1999/xlink" x="0px" y="0px"
	 viewBox="0 0 289.4 80" style="enable-background:new 0 0 289.4 80;" xml:space="preserve">
<style type="text/css">
	.st0{fill:#3D7357;}
	.st1{fill:#E1241A;}
	.st2{fill:#FFFFFF;}
</style>
<g>
	<path class="st0" d="M167.87,18.68l2.83-0.62l3.62-0.39l4.64,0.39c1.41,0.08,2.41,0.62,3.02,1.25c0.4,0.54,0.81,1.17,1,2.1v2.49
		l-1.21,7.39c-0.4,0.85-0.4,1.56-0.4,1.94l0.4,1.64h-6.45l-0.4-0.85v-1.17c-0.9,0.76-1.92,1.37-3.02,1.79
		c-1,0.39-2.22,0.62-4.03,0.62c-2.22,0-3.62-0.46-4.63-1.4c-1-0.94-1.41-1.95-1-3.35c0.4-1.33,0.6-2.33,1.62-3.12
		c1-0.94,2.82-1.56,4.84-1.94l5.24-1.09l2.41-0.62c0.4-0.94,0.4-1.4,0-1.71c-0.4-0.39-1-0.47-1.62-0.47c-1,0-2.01,0.08-2.82,0.47
		c-0.21,0.31-1,0.78-1.21,1.48l-6.45-0.7c0.4-1.02,1-1.79,1.62-2.41L167.87,18.68z M160.22,24.36l-2.02,10.51h-6.65l1.62-9.57
		c0.4-0.78,0.4-1.33,0-1.71c-0.4-0.62-0.6-0.85-1.62-0.85c-0.81,0-1.41,0.23-2.02,0.85c-0.4,0.54-0.81,1.48-1,2.64l-1.81,8.63h-6.65
		l1.62-9.18c0.4-0.78,0.4-1.33,0-1.56c0-0.39,0-0.78-0.21-1.02l-1.41-0.39c-0.6,0-1.41,0.23-2.02,0.85c-0.6,0.54-1,1.48-1.41,2.72
		l-1.62,8.55h-6.65l3.22-16.81h6.45l-0.6,2.41c1-1.02,2.22-1.79,3.22-2.18c1-0.39,2.02-0.62,3.43-0.62c1.41,0,2.41,0.23,3.02,0.77
		c1,0.39,1.41,1.17,1.62,2.02c1.41-1.02,2.41-1.79,3.43-2.18c1.09-0.43,2.25-0.63,3.43-0.62c1.62,0,3.02,0.46,4.03,1.63
		C160.62,20.39,160.62,22.01,160.22,24.36L160.22,24.36z M175.73,27l-3.02,0.77c-1.41,0.39-2.41,0.62-2.82,1.02l-0.6,1.17
		c-0.4,0.54,0,0.94,0.4,1.33c0.21,0.23,0.6,0.39,1.21,0.39c1,0,1.81-0.15,2.41-0.54c0.6-0.39,1.41-0.78,1.62-1.17
		c0.4-0.54,0.4-1.17,0.81-2.1V27L175.73,27z M185,34.85l3.02-16.81h6.45l-0.6,2.81c0.89-1.02,2-1.85,3.22-2.41
		c1-0.54,2.41-0.77,3.83-0.77c1.62,0,3.02,0.47,4.03,1.64c1,1.09,1,2.72,0.6,4.98l-2.02,10.59h-6.65l1.62-9.18
		c0.4-1.02,0-1.79-0.4-2.33c-0.21-0.39-0.6-0.62-1.21-0.62c-1,0-1.81,0.23-2.41,0.85c-0.6,0.7-1,1.71-1.41,3.27l-1.21,8.01H185
		V34.85z M288.6,52.46c-0.21,0.3-0.47,0.59-0.81,0.84c-1,0.78-2.02,1.17-3.62,1.17c-1.62,0-2.62-0.39-3.62-1.02
		c-1.02-0.7-1.81-1.48-2.02-2.64l2.62-0.62c0.4,0.62,0.6,1.02,1.41,1.4c0.21,0.39,1,0.54,2.01,0.54c0.21,0,1-0.16,1.21-0.39
		c0.4-0.23,0.4-0.62,0.4-1.17c0-0.62-0.6-1.17-2.02-1.71l-0.6-0.23c-1-0.39-2.02-0.94-2.41-1.4c-0.6-0.7-1-1.33-1-2.1
		c0-1.17,0.4-2.1,1.41-2.87c1-0.62,2.02-1.02,3.22-1.02c1.09-0.01,2.14,0.31,3.02,0.94c0.29,0.18,0.57,0.36,0.81,0.54V52.46z
		 M288.6,44.71l-1.41,0.42c0-0.62-0.4-1.02-0.6-1.33c-0.4-0.39-1-0.46-1.81-0.46c-0.6,0-1.02,0.08-1.21,0.39l-0.4,1.02
		c0,0.62,0.6,1.17,2.02,1.71l1,0.39c1,0.39,1.62,0.77,2.41,1.4V44.71z M278.73,43.57h-6.05l-0.6,2.96h5.44l-0.4,2.1h-5.44l-0.6,3.27
		h6.65l-0.2,2.33h-9.47l2.41-12.76h8.66L278.73,43.57z M267.64,41.47l-2.01,12.76h-2.22l-4.03-9.34l-1.81,9.34h-2.02l2.02-12.76
		h2.82l4.03,8.48l1.21-8.48H267.64z M249.3,51.89l-0.4,2.33h-8.46l2.02-12.76h3.02l-2.01,10.42H249.3z M249.9,54.23l2.41-12.76h3.02
		l-2.41,12.76H249.9z M240.23,45.13c0,0.94-0.4,1.56-0.81,2.18c-0.6,0.69-1.21,1.09-2.01,1.33l1.41,5.6h-2.62l-1.41-5.22h-2.62
		l-1,5.22h-2.41l2.02-12.76h5.03c1.41,0,2.41,0.31,3.43,0.94C239.83,43.02,240.23,43.96,240.23,45.13L240.23,45.13z M236.8,43.8
		c-0.4-0.23-1-0.39-1.62-0.39h-2.02l-0.81,3.66h2.41c0.6,0,1.41-0.16,1.62-0.54c0.4-0.39,0.81-0.78,0.81-1.4
		C237.21,44.58,237.21,44.19,236.8,43.8z M228.34,41.47l-2.22,12.76h-3.02l2.22-12.76H228.34z M218.26,43.96l-2.22,5.06h3.02
		L218.26,43.96z M220.28,41.47l2.02,12.76h-2.62l-0.4-3.12h-4.03l-1.62,3.12h-2.02l5.65-12.76H220.28z M198.91,48.62l-1,5.6h-2.82
		l2.02-12.76h2.82l-0.81,4.98h4.43l0.6-4.98h3.02l-2.22,12.76h-2.83l0.81-5.6H198.91z M192.88,42.17c1,0.62,1.21,1.25,1.62,2.18
		l-2.41,0.77c-0.21-0.62-0.6-1.02-1-1.33c-0.2-0.39-1-0.46-1.62-0.46l-1.41,0.39l-0.2,1.02c0,0.62,0.6,1.17,2.01,1.71l1,0.39
		c1,0.39,2.02,0.77,2.22,1.4c0.4,0.62,0.81,1.32,0.81,2.1c0,1.17-0.4,2.18-1.41,2.96c-1,0.78-2.02,1.17-3.62,1.17
		c-1.41,0-2.82-0.39-3.83-1.02c-1-0.7-1.21-1.48-1.62-2.64l2.41-0.62c0.21,0.62,0.6,1.02,1.21,1.4c0.4,0.39,1,0.54,2.02,0.54
		c0.4,0,1-0.16,1.41-0.39c0.4-0.23,0.6-0.62,0.6-1.17c0-0.62-0.6-1.17-2.22-1.71l-0.81-0.23c-1-0.39-2.02-0.94-2.22-1.4
		c-0.4-0.7-0.81-1.33-0.81-2.1c0-1.17,0.4-2.1,1-2.87c1-0.62,2.02-1.02,3.43-1.02C190.45,41.24,191.86,41.47,192.88,42.17
		L192.88,42.17z M183.4,43.57h-6.05l-0.61,2.96h5.24l-0.2,2.1h-5.44l-0.4,3.27h6.45l-0.4,2.33h-9.27l2.22-12.76h8.87L183.4,43.57z
		 M171.91,47.23c0,1.17-0.21,2.33-0.6,3.35c-0.4,1.02-1,1.79-2.02,2.49c-0.4,0.39-1,0.78-1.6,0.85l-2.02,0.31h-5.44l2.02-12.76h4.03
		l1.62,0.16l1.41,0.39c1,0.39,1.62,1.02,2.02,1.95C171.71,44.89,171.91,45.9,171.91,47.23z M166.27,43.8h-1.41l-1.62,8.09h2.01
		c1,0,2.02-0.39,2.62-1.17c0.81-0.94,1-2.1,1-3.5c0-1.17-0.21-1.95-0.6-2.64C167.88,44.11,167.27,43.8,166.27,43.8L166.27,43.8z
		 M148.73,53.45l5.84-11.98h3.02l2.02,12.76h-2.82l-0.2-3.12h-4.43l-1.41,3.12h-10.27l2.22-12.76h2.82l-1.81,10.42h5.44
		L148.73,53.45z M155.59,43.96l-2.41,5.06h3.02L155.59,43.96z M95.33,11.67h14.11c2.41,0,4.03,0.54,5.03,1.71
		c1,1.17,1.81,2.41,1.41,4.12c-0.4,1.4-1,2.56-2.02,3.5c-1,0.62-2.02,1.17-3.02,1.56c1.62,0.39,2.62,1.02,3.43,2.1
		c0.6,0.85,1,2.18,0.6,3.58c-0.4,1.17-0.6,2.33-1.62,3.27c-0.81,0.94-1.81,1.71-2.82,2.33c-0.6,0.39-1.62,0.62-3.02,0.77l-3.22,0.23
		H91.09L95.33,11.67z M121.52,11.67h6.86l-0.81,4.43h-6.65L121.52,11.67z M102.18,16.33l-0.81,4.43h3.43c1,0,2.02-0.15,2.41-0.54
		c0.6-0.39,1-1.02,1-1.71c0.21-0.62,0-1.17-0.4-1.56c-0.4-0.39-1.41-0.62-2.41-0.62H102.18z M99.76,29.96h3.62
		c1.41,0,2.41-0.23,3.02-0.77c0.4-0.39,0.81-0.94,1-1.71c0.4-0.62,0-1.25-0.21-1.64c-0.4-0.39-1.41-0.7-2.82-0.7h-4.03L99.76,29.96z
		 M120.52,18.05h6.86l-3.43,16.81h-6.65L120.52,18.05z M138.05,42.25c1,0.7,1.41,1.71,1.62,2.87l-2.22,0.54
		c-0.4-0.7-0.81-1.17-1-1.56c-0.48-0.46-1.14-0.72-1.81-0.7l-1,0.39l-1,1.1c-0.21,0.46-0.6,1.17-0.6,1.94l-0.4,2.33
		c0,0.85,0.4,1.64,0.81,2.18c0.21,0.62,0.6,0.94,1.62,0.94c0.6,0,1.41-0.31,1.62-0.78c0.4-0.39,0.81-1.17,0.81-2.1h-2.45l0.4-1.95
		h5.03l-1,6.76h-1.41l-0.4-1.48c-0.21,0.54-0.6,0.94-1.21,1.17c-0.81,0.39-1.41,0.54-2.02,0.54c-1.41,0-2.41-0.54-3.43-1.56
		c-1-1.02-1.41-2.33-1.41-4.04l0.81-3.19c0.21-1.09,0.6-1.95,1.62-2.72l1.62-1.17c0.81-0.39,1.41-0.54,2.41-0.54
		C136.03,41.24,137.04,41.63,138.05,42.25L138.05,42.25z M127.98,41.47l-2.41,12.76h-2.02l-4.24-9.34l-1.81,9.34h-2.02l2.41-12.76
		h2.62l3.83,8.48l1.21-8.48H127.98z M110.85,43.96l-2.41,5.06h3.02L110.85,43.96z M103.79,42.25c0.6,0.54,1,1.32,1,2.33
		c0,0.77-0.4,1.48-0.6,1.95c-0.81,0.54-1.41,0.94-2.01,1.09c0.6,0.23,1,0.62,1.21,1.17c0.4,0.46,0.81,1.17,0.81,1.79
		c0,1.17-0.4,2.1-1,2.72c-1,0.62-2.02,0.94-3.83,0.94h-6.05l2.01-12.76h5.04C102.18,41.47,103.19,41.78,103.79,42.25L103.79,42.25z
		 M102.18,44.96c0-0.46-0.4-0.85-0.81-1.02c-0.21-0.23-0.6-0.39-1.21-0.39h-2.41l-0.4,3.12h2.41c0.6,0,1.41-0.16,1.62-0.54
		C101.77,45.9,102.18,45.52,102.18,44.96z M99.15,48.47h-2.02l-0.81,3.66h2.82c0.6,0,1.21-0.16,1.62-0.54c0.4-0.39,0.6-0.77,0.6-1.4
		c0-0.54-0.21-0.94-0.6-1.17C100.36,48.62,100.17,48.47,99.15,48.47z M103.79,54.23l6.05-12.76h3.02l2.02,12.76h-2.62l-0.4-3.12
		h-4.04l-1.62,3.12H103.79z"/>
	<path class="st1" d="M11.49,11.82c3.62-3.81,8.07-6.61,12.7-8.72C29.22,1.02,34.26,0,39.7,0c5.24,0,10.27,1.02,15.32,3.12
		c4.84,2.1,9.06,4.89,12.89,8.72c3.62,3.58,6.25,7.86,8.27,12.69c2.02,4.91,3.02,10.11,3.02,15.56c0,5.29-1,10.51-3.02,15.56
		c-2.01,4.83-4.64,8.95-8.27,12.69c-3.83,3.81-8.06,6.61-12.89,8.55C49.97,78.98,44.94,80,39.7,80c-5.44,0-10.48-1-15.52-3.12
		c-4.64-1.94-9.07-4.74-12.7-8.55c-3.83-3.73-6.45-7.86-8.46-12.69C1,50.57,0,45.36,0,40.07c0-5.45,1-10.66,3.02-15.56
		C5.03,19.68,7.65,15.4,11.49,11.82L11.49,11.82z M48.97,38.74L53,42.63c1,1.09,2.82,1.09,4.43,0l9.07-6.07l-2.41-2.18h12.89
		l-19.15,13.7c-2.41,1.32-4.03,1.48-5.44,0.31c-1.62-1.17-2.41-1.87-2.41-1.71c-1.21-1.71-3.02-1.95-5.24-0.78l-11.89,8.8H11.69
		l20.16-15.17L2.42,39.69l4.03-3.9h37.29C45.75,35.56,47.37,36.57,48.97,38.74L48.97,38.74z"/>
	<path class="st2" d="M48.97,38.74L53,42.63c1,1.09,2.82,1.09,4.43,0l9.07-6.07l-2.41-2.18h12.89l-19.15,13.7
		c-2.41,1.32-4.03,1.48-5.44,0.31c-1.62-1.17-2.41-1.87-2.41-1.71c-1.21-1.71-3.02-1.95-5.24-0.78l-11.89,8.8H11.69l20.16-15.17
		L2.42,39.69l4.03-3.9h37.29C45.75,35.56,47.37,36.57,48.97,38.74L48.97,38.74z"/>
</g>
</svg>
