<?xml version="1.0" encoding="utf-8"?>
<!-- Generator: Adobe Illustrator 25.4.1, SVG Export Plug-In . SVG Version: 6.00 Build 0)  -->
<svg version="1.1" id="Layer_4" xmlns="http://www.w3.org/2000/svg" xmlns:xlink="http://www.w3.org/1999/xlink" x="0px" y="0px"
	 viewBox="0 0 126.15 80.27" style="enable-background:new 0 0 126.15 80.27;" xml:space="preserve">
<style type="text/css">
	.st0{fill:#FFE600;}
</style>
<path id="XMLID_108_" class="st0" d="M43.55,80.07H0L82.61,0h43.55L43.55,80.07z"/>
<path d="M87.93,35.21c5.55-1.79,8.6-5.91,8.6-11.82c0-8.6-5.91-12.72-18.27-12.72H65.89v51.95h13.26c12.72,0,19.35-4.84,19.35-14.51
	C98.5,41.66,94.74,37,87.93,35.21z M71.63,14.07h6.45c8.96,0,12.72,2.87,12.72,9.67c0,6.99-4.12,10.21-13.44,10.21h-5.73V14.07z
	 M78.08,59.22h-6.45V37.18h6.99c9.5,0,13.79,3.58,13.79,11.11C92.41,55.81,87.93,59.22,78.08,59.22z"/>
<path d="M47,39.69c7.35-2.33,10.93-6.99,10.93-14.15c0-10.03-6.27-14.87-19.89-14.87H27.65v51.95h5.73V40.76h4.12
	c1.43,0,2.87,0,4.12-0.18l19.89,35.47l0.18,0.36h5.73v-0.9L47,39.69z M37.87,37.36h-4.66V14.07h4.66c10.03,0,14.15,3.4,14.15,11.47
	C52.02,33.78,47.9,37.36,37.87,37.36z"/>
</svg>
