<?xml version="1.0" encoding="utf-8"?>
<!-- Generator: Adobe Illustrator 25.4.1, SVG Export Plug-In . SVG Version: 6.00 Build 0)  -->
<svg version="1.1" id="Layer_4" xmlns="http://www.w3.org/2000/svg" xmlns:xlink="http://www.w3.org/1999/xlink" x="0px" y="0px"
	 viewBox="0 0 197.32 80.27" style="enable-background:new 0 0 197.32 80.27;" xml:space="preserve">
<style type="text/css">
	.st0{clip-path:url(#SVGID_00000067940242852536036580000006639008166308160942_);fill:#FFE600;}
</style>
<g id="XMLID_4_">
	<path id="XMLID_110_" d="M11.3,40.67c0-3.75-2.34-5.55-7.42-5.55H0v19.4h2.14v-8.16h1.54c0.54,0,1.07,0,1.54-0.07l7.42,13.24
		l0.07,0.13h2.14v-0.33L7.22,45.95C9.97,45.08,11.3,43.34,11.3,40.67 M3.81,45.08H2.07v-8.7h1.74c3.75,0,5.28,1.27,5.28,4.28
		C9.1,43.75,7.56,45.08,3.81,45.08 M24.68,37.12c-4.55,0-7.29,3.28-7.29,8.83c0,5.55,2.74,8.83,7.29,8.83s7.36-3.41,7.36-8.83
		C32.04,40.47,29.3,37.12,24.68,37.12 M24.68,53.51c-4.21,0-5.15-4.15-5.15-7.63c0-3.48,0.87-7.56,5.15-7.56s5.15,4.08,5.15,7.56
		C29.9,49.43,28.96,53.51,24.68,53.51"/>
	<g id="XMLID_5_">
		<g id="XMLID_107_">
			<g>
				<defs>
					<rect id="SVGID_1_" x="35.59" width="126.15" height="80"/>
				</defs>
				<clipPath id="SVGID_00000072996507473583699110000009467740554331841933_">
					<use xlink:href="#SVGID_1_"  style="overflow:visible;"/>
				</clipPath>
				<path id="XMLID_108_" style="clip-path:url(#SVGID_00000072996507473583699110000009467740554331841933_);fill:#FFE600;" d="
					M79.13,80.07H35.59L118.19,0h43.55L79.13,80.07z"/>
			</g>
		</g>
		<g id="XMLID_6_">
			<path id="XMLID_94_" d="M63.21,71.17l2.47-7.16h1.27l2.41,7.16v0.07h-1.07l-0.74-2.27h-2.68l-0.74,2.27L63.21,71.17L63.21,71.17
				L63.21,71.17z M67.29,68.36l-0.47-1.4c-0.33-1.07-0.6-1.87-0.6-2.14h-0.07c-0.07,0.27-0.33,1.07-0.67,2.14l-0.47,1.4H67.29z
				 M74.25,64.01h1.07v7.22h-1.07V64.01z M81.34,64.01h1.74c2.01,0,2.88,0.74,2.88,2.07c0,1-0.47,1.67-1.47,2.01l1.74,3.14v0.07
				h-1.14l-1.61-3.01c-0.13,0-0.33,0-0.54,0h-0.54v2.94h-1.07L81.34,64.01L81.34,64.01z M83.01,67.69c1.27,0,1.87-0.47,1.87-1.54
				c0-1.14-0.6-1.54-1.87-1.54h-0.6v3.14L83.01,67.69L83.01,67.69z M91.71,64.01h1.07v6.56h3.08v0.67h-4.08v-7.22H91.71z
				 M101.2,64.01h1.07v7.22h-1.07V64.01z M108.29,64.01h1.27l2.21,3.55c0.8,1.34,1.27,2.07,1.4,2.41h0.07c0-0.54-0.07-1.2-0.07-2.01
				v-4.01h0.87v7.22h-1.14l-2.41-3.81c-0.67-1.07-1.27-2.14-1.4-2.41h-0.07c0,0.4,0.07,1.2,0.07,2.07v4.15h-0.87L108.29,64.01
				L108.29,64.01z M120.07,64.01h4.08v0.67h-3.01v2.54h2.74c0,0.07,0,0.2,0,0.27c0,0.13,0,0.27,0,0.33h-2.74v2.74h3.21v0.67h-4.28
				V64.01z M129.7,69.5c0.13,0.47,0.47,1.27,1.67,1.27c0.87,0,1.47-0.54,1.47-1.4c0-1-0.94-1.27-1.87-1.61
				c-0.94-0.33-1.87-0.74-1.87-1.94s0.87-2.01,2.34-2.01c1.61,0,2.21,0.87,2.34,1.54c-0.2,0.13-0.6,0.2-0.94,0.2
				c-0.13-0.33-0.33-1.14-1.47-1.14c-0.8,0-1.34,0.4-1.34,1.27s0.87,1.14,1.81,1.4c1,0.33,1.94,0.8,1.94,2.07
				c0,1.14-0.8,2.14-2.54,2.14c-1.54,0-2.27-0.74-2.54-1.67C128.9,69.63,129.36,69.5,129.7,69.5"/>
			<path id="XMLID_81_" d="M179.93,46.42h6.56v-0.2c0-0.13,0.07-0.33,0.07-0.54s-0.07-0.47-0.07-0.54v-0.2h-6.56v-6.22h7.22v-1.34
				h-9.23v17.06h9.57v-1.4h-7.56V46.42L179.93,46.42z M195.32,37.46h2.01v17.06h-2.01V37.46z M43.21,46.29l-4.48-8.83h-1.94v0.4
				l5.28,10.1v6.56h2.01v-6.56l5.28-10.17v-0.4h-1.67L43.21,46.29z M59.2,37.46l-5.82,16.66v0.4h1.67l2.01-5.89h6.15l2.01,5.89h1.94
				v-0.33L61.4,37.46H59.2L59.2,37.46z M62.74,47.29h-5.22l1.2-3.48c0.74-2.14,1.2-3.55,1.4-4.35c0.27,0.87,0.74,2.41,1.4,4.35
				L62.74,47.29L62.74,47.29z M76.05,37.46h-2.01v17.06h9.36v-1.4h-7.42V37.46H76.05z M104.75,44.28c2.07-0.67,3.21-2.21,3.21-4.41
				c0-3.21-2.21-4.75-6.82-4.75h-4.62v19.4h4.95c4.75,0,7.22-1.81,7.22-5.42C108.7,46.69,107.29,44.95,104.75,44.28 M98.66,36.39
				h2.41c3.34,0,4.75,1.07,4.75,3.61c0,2.61-1.54,3.81-5.02,3.81h-2.14V36.39L98.66,36.39z M101.07,53.24h-2.41v-8.23h2.61
				c3.55,0,5.15,1.34,5.15,4.15C106.42,51.97,104.75,53.24,101.07,53.24 M126.56,42.34c0-3.28-2.14-4.88-6.56-4.88h-3.48v17.06h2.01
				v-7.09h1.34c0.47,0,0.87,0,1.27-0.07l6.89,12.31h2.01v-0.4l-7.02-12.31C125.35,46.22,126.56,44.68,126.56,42.34 M119.93,46.09
				h-1.4v-7.36h1.4c3.21,0,4.55,1.07,4.55,3.61C124.48,44.95,123.08,46.09,119.93,46.09"/>
			<path id="XMLID_75_" d="M145.48,47.49c0,4.08-1.4,5.89-4.55,5.89c-3.14,0-4.55-1.81-4.55-5.82v-10.1h-2.01v10.1
				c0,5.02,1.94,7.22,6.35,7.22c4.41,0,6.49-2.27,6.49-7.22v-10.1h-1.74V47.49z M167.29,47.76c0,1.47,0,2.68,0.07,3.75
				c-0.6-1.07-1.67-2.74-3.14-4.95l-6.09-9.16h-2.07v17.06h1.74v-10.5c0-1.61,0-3.01-0.07-4.01c0.6,1,1.67,2.74,2.74,4.35
				l6.82,10.23h1.74V37.46h-1.74V47.76L167.29,47.76z M98.46,0.54v4.01h0.33V2.68l1.94,1.14l-1.07-1.61l1.2-0.27L98.86,0.6l0,0
				c0.07-0.07,0.07-0.13,0.07-0.2c0-0.13-0.13-0.27-0.27-0.27c-0.13,0-0.27,0.13-0.27,0.27C98.39,0.4,98.39,0.47,98.46,0.54
				 M98.66,5.28c1.14,0,2.07-0.27,2.07-0.6c0-0.27-0.74-0.54-1.74-0.6v0.54h-0.74V4.15c-1,0.07-1.74,0.27-1.74,0.6
				C96.59,5.02,97.53,5.28,98.66,5.28"/>
			<path id="XMLID_33_" d="M100.87,4.95c-0.2,0.27-0.94,0.54-2.14,0.54c-1.27,0-1.94-0.27-2.14-0.54l-0.27,1.47l0.8-0.54l0.54,0.6
				l0.6-0.6l0.47,0.54l0.47-0.54l0.6,0.6l0.54-0.6l0.8,0.54L100.87,4.95L100.87,4.95z M98.93,6.42l-0.27,0.27l-0.27-0.27v1.07
				l0.27,0.27l0.27-0.27V6.42z M104.35,25.48v0.07h0.07L104.35,25.48L104.35,25.48 M92.44,25.48L92.44,25.48l0.07,0.13l0,0v-0.13
				L92.44,25.48L92.44,25.48 M109.1,25.75c0,0,0.47-0.74-0.2-1.27c-0.6-0.47-1.54,0.13-1.54,0.13c0.94-1.14-0.54-2.27-1.4-1.54
				c-2.27,1.87-4.41,2.88-7.22,2.94c-2.81-0.07-4.95-1.07-7.22-2.94c-0.87-0.74-2.41,0.4-1.4,1.54c0,0-0.94-0.6-1.54-0.13
				c-0.67,0.54-0.2,1.27-0.2,1.27s-0.94,0.2-1,1.2c2.41-1,3.61,0.54,4.41,0.94c1.2,0.67,1.74,0.13,1.67-0.47
				c0,0,2.21,1.07,5.35,1.07c3.14,0,5.35-1.07,5.35-1.07c-0.07,0.6,0.47,1.14,1.67,0.47c0.8-0.4,2.01-1.94,4.41-0.94
				C109.97,26.02,109.1,25.75,109.1,25.75 M102.41,25.55l0.27,0.13l-0.13,0.27l-0.2-0.13L102.41,25.55z M96.66,27.56L96.66,27.56
				c0.07-0.47,0.13-0.87,0.27-1.27c0-0.07,0.07-0.13,0.13-0.2l-0.2,1.07c0,0.13-0.07,0.33-0.13,0.47l0,0L96.66,27.56L96.66,27.56
				L96.66,27.56z M92.64,25.69v0.07c-0.07,0.07-0.13,0.13-0.2,0.2l-0.27-0.33c-0.13,0.13-0.33,0.2-0.54,0.2
				c-0.07,0-0.13-0.07-0.2-0.07s-0.13-0.07-0.2-0.13l-0.07-0.07c0.2,0.07,0.4,0.07,0.54,0.07c0.2,0,0.4-0.07,0.54-0.13
				c0.07,0,0.07-0.07,0.13-0.07l0.07-0.07l0,0c0.07-0.07,0.2-0.07,0.33-0.07L92.64,25.69L92.64,25.69z M96.25,26.62L96.25,26.62
				L96.25,26.62L96.25,26.62l-0.2,0.47v0.07c-0.07,0.13-0.13,0.2-0.27,0.33c-0.07,0-0.2-0.07-0.27-0.07
				c-0.07-0.07-0.13-0.07-0.13-0.13l-0.07,0.07h-0.07h-0.07c-0.07,0-0.07-0.07-0.13-0.13l-0.07,0.07c-0.07,0-0.07,0-0.13-0.07
				l-0.07-0.07l-0.07-0.07l0,0c0,0-0.07,0.07-0.07,0c-0.2-0.07-0.4-0.13-0.6-0.2c-0.07,0-0.13-0.07-0.2-0.13
				c-0.07-0.07-0.07-0.13,0-0.27l0.2-0.6l0,0c-0.07,0.13-0.13,0.2-0.27,0.33c-0.13,0.13-0.33,0.2-0.47,0.2c-0.13,0-0.27,0-0.4,0
				c0.2,0,0.33-0.07,0.54-0.13h0.07v-0.07v-0.07c0-0.2-0.07-0.47-0.13-0.67c-0.07,0-0.13,0-0.2-0.07c-0.07-0.07-0.07-0.13,0-0.2
				l0.13-0.2l0.07,0.07c0.13,0.13,0.2,0.27,0.27,0.4c0,0.07,0.07,0.13,0.07,0.27c0,0.07,0,0.13,0,0.27c0,0.07-0.07,0.13-0.13,0.2
				l-0.07,0.07h0.07c0.2-0.13,0.4-0.33,0.54-0.54v-0.07c0-0.07,0.07-0.2,0.07-0.27l0.07-0.13l0,0l0,0l0,0l-0.07,0.13l-0.27,0.94
				c0,0.13,0,0.2,0.13,0.27c0.2,0.07,0.47,0.2,0.67,0.27c0.07-0.07,0.13-0.13,0.13-0.13c0,0.07-0.07,0.07-0.07,0.13
				c0,0,0,0.07,0.07,0.07l0,0c0.07,0,0.13,0.07,0.13,0.07c0.07-0.07,0.07-0.13,0.13-0.13c-0.07,0.07-0.07,0.07-0.07,0.13l0,0
				c0.07,0.07,0.13,0.07,0.2,0.13c0-0.07,0.07-0.13,0.13-0.13l0,0c-0.07,0.07-0.07,0.13,0,0.13c0,0.07,0.07,0.07,0.13,0.07h0.07
				h0.07h0.13l0.27-0.94c0-0.13,0.07-0.2,0.13-0.27h0.07c-0.07,0.13,0,0.27,0.07,0.33C96.39,26.49,96.32,26.56,96.25,26.62
				 M97.46,27.63L97.46,27.63c0,0.13-0.07,0.2-0.13,0.27l-0.07,0.13l-0.07,0.13c-0.07,0-0.07,0.07-0.13,0.07c-0.07,0-0.13,0-0.2,0
				c-0.13-0.07-0.2-0.13-0.33-0.2l-0.07-0.07l-0.07-0.07l0,0c0.07,0.07,0.2,0.13,0.33,0.13c0.13,0.07,0.27,0,0.4-0.07
				c0.13-0.07,0.2-0.2,0.27-0.33c0-0.07-0.07-0.13-0.07-0.13c0-0.07,0.07-0.13,0.07-0.2C97.46,27.42,97.46,27.49,97.46,27.63
				 M97.93,27.96L97.93,27.96L97.93,27.96l-0.07-0.13c0-0.4,0-0.8,0-1.2c0-0.07,0.07-0.13,0.07-0.2v1.14
				C97.99,27.63,97.99,27.76,97.93,27.96 M98.86,27.96h-0.47c0,0-0.07,0-0.07-0.07v-0.07v-0.07c0-0.07,0-0.13,0.07-0.2l0,0v0.07
				v0.07h0.07h0.33c-0.07-0.13-0.13-0.27-0.2-0.4c0-0.07,0.07-0.2,0.07-0.27c0.07,0.07,0.13,0.13,0.13,0.2
				C99,27.42,99,27.69,98.86,27.96 M101.27,27.56c-0.33,0-0.6-0.13-0.87-0.27h-0.07l-0.13-0.13c0.2,0.13,0.47,0.2,0.67,0.27
				c0.27,0,0.54,0,0.74-0.07c0.54-0.13,1-0.4,1.4-0.74c0.07-0.07,0.2-0.13,0.27-0.27c0-0.07,0.07-0.07,0.07-0.13h-0.07l-0.4,0.2
				l-0.07-0.33l0.27-0.13c-0.07-0.07-0.2-0.13-0.33-0.2l-0.07-0.27c0.27,0.07,0.47,0.2,0.54,0.47c0.07-0.07,0.13-0.07,0.2-0.07
				c0.07,0.07,0.07,0.13,0.13,0.27l0,0v0.07c0,0.07,0,0.13,0,0.2c-0.07,0.13-0.13,0.27-0.2,0.33l-0.13,0.13
				C102.68,27.29,102.01,27.56,101.27,27.56 M103.34,27.42l-0.27-0.13l0.13-0.27l0.27,0.13L103.34,27.42L103.34,27.42z
				 M103.68,27.29l-0.27-0.13l0.13-0.27l0.27,0.13L103.68,27.29z M104.68,26.29c0,0.07-0.07,0.07-0.13,0.13l-0.13,0.07
				c-0.27,0.13-0.54,0.13-0.8,0.07c0.2,0,0.4,0,0.6-0.07c0.27-0.13,0.4-0.4,0.33-0.67c-0.07,0.07-0.13,0.13-0.27,0.13l-0.07-0.27
				c-0.07-0.13-0.07-0.33-0.07-0.47c0.13,0.07,0.2,0.07,0.33,0.2c0.13,0.07,0.2,0.2,0.2,0.4c0,0.07,0,0.2,0.07,0.27
				C104.68,26.09,104.68,26.15,104.68,26.29 M105.62,25.75c-0.07,0.07-0.13,0.13-0.2,0.13l0,0c-0.2,0.07-0.4,0.07-0.54,0
				c0.13,0.07,0.33,0,0.47-0.07c0.07-0.07,0.13-0.07,0.13-0.13c0.07-0.07,0.07-0.2,0.07-0.33v-0.13v-0.07
				c-0.07-0.07-0.13-0.07-0.2-0.13c-0.07-0.07-0.07-0.2-0.13-0.27l0,0l0,0l0.27,0.13c0.13-0.07,0.33-0.2,0.47-0.27
				c-0.07-0.07-0.13-0.07-0.2-0.07l-0.13-0.27h0.07c0.13,0.07,0.2,0.13,0.27,0.2c0.07,0.13,0.13,0.27,0.13,0.4l-0.47,0.27l0,0
				c0.07,0.07,0.07,0.2,0.07,0.27C105.69,25.62,105.69,25.69,105.62,25.75 M106.09,25.48L106.09,25.48l-0.2-0.07l-0.07-0.27
				l0.2,0.07L106.09,25.48L106.09,25.48 M103.95,22.01L103.95,22.01L103.95,22.01L103.95,22.01h0.07l0,0
				C104.01,22.01,104.01,22.01,103.95,22.01 M104.75,21.4L104.75,21.4L104.75,21.4L104.75,21.4v0.07V21.4L104.75,21.4 M100.8,24.08
				L100.8,24.08L100.8,24.08L100.8,24.08h0.07l0,0H100.8 M96.32,24.01L96.32,24.01L96.32,24.01L96.32,24.01L96.32,24.01h-0.07
				C96.32,24.01,96.32,24.01,96.32,24.01 M92.51,22.01c0-0.07,0-0.13,0-0.2v-0.07v-0.07v-0.07l0,0
				C92.44,21.81,92.44,21.87,92.51,22.01L92.51,22.01 M98.66,25.48c5.22,0,9.3-4.08,9.3-9.1c0-2.34-1.07-4.62-2.74-6.22l-0.27,0.07
				c0.87,1,1.54,2.41,1.61,4.35c0,3.88-2.81,6.96-6.62,7.56h-0.07c0.8-0.4,1.27-1.14,1.4-1.94c-0.6,0.4-1.27,0.74-2.01,0.94
				c0.07-0.4-0.33-0.87-0.67-1.2c-0.27,0.33-0.67,0.8-0.67,1.2c-0.67-0.2-1.4-0.54-2.01-0.94c0.13,0.8,0.67,1.54,1.4,1.94h-0.07
				c-3.81-0.54-6.62-3.61-6.62-7.56c0-1.87,0.74-3.28,1.61-4.35l-0.27-0.07c-1.67,1.61-2.74,3.88-2.74,6.22
				C89.36,21.47,93.44,25.48,98.66,25.48 M93.44,23.55l-0.13-0.27l0.27-0.13l0.13,0.2L93.44,23.55L93.44,23.55z M106.09,18.46
				l0.94,0.87c0.07,0.07,0.13,0.2,0.13,0.33l0,0c-0.33-0.33-0.6-0.6-0.94-0.87C106.09,18.66,106.09,18.6,106.09,18.46 M106.02,19.4
				l-0.13-0.07c-0.13-0.07-0.2-0.2-0.27-0.33v-0.07l0,0c0.07,0.07,0.13,0.07,0.2,0.13c0.07,0,0.13,0,0.2,0l0,0
				c0.07,0.07,0.07,0.13,0.13,0.13h-0.07c0.07,0.07,0.13,0.07,0.2,0.13l0.2,0.13h0.07l0.07,0.07l0.13,0.07
				c0.07,0.07,0.13,0.13,0.2,0.2c-0.07,0.13-0.13,0.2-0.27,0.27l-0.07,0.07l-0.07,0.07c-0.07,0.07-0.13,0.07-0.2,0h-0.07h-0.07
				l0.07,0.2l0,0c-0.07,0.07-0.13,0.13-0.2,0.2l0,0c-0.07,0-0.07,0-0.13,0l-0.07-0.07l-0.07-0.07l-0.07-0.07v-0.07v0.07l0,0l0,0l0,0
				h0.07c0.07-0.07,0.13-0.13,0.2-0.2l0,0l0,0l-0.07-0.07h-0.07c-0.07-0.07-0.13-0.07-0.2-0.13c-0.07-0.07-0.13-0.07-0.13-0.13
				l-0.07-0.13l0.2,0.13l0.13,0.07l0,0c0.07,0.07,0.13,0.07,0.2,0.13h0.07h0.07l0,0c0.13-0.13,0.2-0.2,0.33-0.33
				C106.35,19.73,106.22,19.6,106.02,19.4 M104.75,19.93l0.94,0.87c0.07,0.07,0.13,0.2,0.13,0.33l0,0c-0.27-0.33-0.6-0.6-0.94-0.87
				C104.82,20.2,104.75,20.07,104.75,19.93 M104.48,20.33L104.48,20.33c0.07,0,0.13,0,0.13,0.07l0,0h-0.07l0,0l0,0l0,0l0,0
				c0.07,0,0.07,0,0.13,0c0.07,0,0.07-0.07,0.07-0.07l0,0v0.07l-0.13,0.27V20.6v-0.07h-0.07h-0.07l-0.07-0.07V20.4
				C104.48,20.4,104.48,20.33,104.48,20.33 M104.28,21.87L104.28,21.87l0.13-0.13l0.07-0.07l0,0l0.07-0.07v-0.07
				c-0.07-0.07-0.13-0.2-0.07-0.33l0.07-0.13c0.07-0.07,0.13-0.13,0.2-0.2c0,0.07,0,0.07,0.07,0.13c0.07,0.07,0.13,0.07,0.2,0.07
				c0.07,0,0.13,0,0.13-0.07l0.07-0.07l0,0l0.07-0.07c-0.07-0.07-0.07-0.13-0.13-0.13c0-0.07-0.07-0.13-0.07-0.2
				c0.07,0,0.13,0.07,0.2,0.13c0.07,0.07,0.13,0.13,0.2,0.27c0.07,0.07,0.07,0.13,0.07,0.2c-0.07,0.07-0.13,0.13-0.2,0.2
				c-0.07,0.07-0.13,0.07-0.2,0.07v0.13c-0.13,0-0.33,0.07-0.47,0.07l0.13,0.13l-0.13,0.07l-0.07,0.07l-0.13,0.13
				c0.07,0.07,0.07,0.2,0.13,0.27v0.13c0,0.07,0,0.13-0.07,0.2l-0.07,0.07c-0.13,0.07-0.2,0.13-0.33,0.2h-0.13h-0.07h0.07h0.07l0,0
				c0.13-0.07,0.27-0.13,0.33-0.27c0.07-0.07,0.07-0.13,0.07-0.2s0-0.13,0-0.2l-0.07-0.13l0,0l-0.2,0.13h-0.07
				c-0.13-0.2-0.2-0.33-0.27-0.6C103.95,21.74,104.15,21.81,104.28,21.87 M102.68,22.14l0.27,0.07l-0.07,0.27l-0.27-0.07
				L102.68,22.14z M103.81,22.54c0-0.07,0-0.07,0-0.13c0-0.07-0.07-0.07-0.13-0.07v-0.07c0-0.13,0-0.27,0-0.4
				c0.2,0.2,0.33,0.47,0.33,0.74l0,0c-0.33,0.74-1.14,1.14-1.94,0.94C102.68,23.55,103.34,23.14,103.81,22.54 M101.54,22.61
				l0.2,1.27c0,0.13,0,0.27-0.13,0.33l0,0c-0.07-0.4-0.13-0.8-0.2-1.27C101.4,22.81,101.47,22.74,101.54,22.61 M97.19,23.21
				l0.13,0.2l-0.2,0.2l-0.13-0.2L97.19,23.21z M96.45,23.61L96.45,23.61L96.45,23.61L96.45,23.61c0.13,0.13,0.13,0.27,0.13,0.4v0.07
				c0.13,0.07,0.33,0.13,0.47,0.13l0,0c0-0.07,0.07-0.13,0.13-0.2l0,0c0,0.07,0,0.13,0,0.13l0,0c0.13,0.07,0.33,0.13,0.54,0.07l0,0
				c0-0.07,0.07-0.13,0.07-0.2l0,0c0,0.07,0,0.13,0,0.13l0.07,0.07l0,0c0.07,0,0.13,0,0.2,0h0.07c0-0.07,0-0.13,0.07-0.27
				c0,0.07,0,0.13,0,0.2l0,0c0.07,0,0.13,0,0.2,0c0-0.07,0-0.13,0.07-0.2l0,0c0,0.07,0,0.13,0.07,0.13h0.07c0.13,0,0.33,0,0.47-0.13
				c0.07-0.07,0.2-0.13,0.27-0.2l0.07-0.07l-0.13-0.07c-0.13,0-0.27,0-0.33,0.13c0-0.07,0.07-0.2,0.13-0.27
				c0.07-0.07,0.13-0.13,0.2-0.13s0.13,0,0.2,0l0.27,0.07c0.27,0.07,0.47,0.13,0.74,0.13l-0.13,0.27h-0.07h-0.2H100h-0.13l0,0
				c0,0.07,0,0.07,0,0.13l0.07,0.07l0,0c0.2,0,0.33,0.07,0.54,0l0,0v-0.07c0-0.07,0-0.13,0.07-0.13c0.07-0.07,0.07-0.07,0.13-0.13
				c0.07,0,0.13,0,0.2,0c0,0.07,0,0.2,0.07,0.27l0,0c0.07,0,0.13,0,0.2-0.07c0,0,0.07-0.07,0.07-0.13c-0.07-0.27-0.07-0.6-0.13-0.87
				v-0.07c0-0.07,0-0.2,0.07-0.27l0.13,1.07c0,0.13,0,0.27-0.07,0.47c-0.07,0.07-0.13,0.07-0.27,0.13h-0.07v0.07h-0.07l-0.27-0.13
				l0,0l-0.07,0.13h-0.07c-0.2,0.07-0.4,0-0.6-0.07l-0.07-0.07c0-0.07,0-0.13,0-0.2s0-0.07,0.07-0.13c-0.13,0-0.27,0.07-0.4,0.2l0,0
				c-0.13,0.13-0.27,0.27-0.47,0.27h-0.07H98.8c-0.07,0-0.13,0-0.2-0.07l-0.07,0.07h-0.07h-0.07c-0.07,0-0.13,0-0.2-0.07v0.07h-0.07
				c-0.07,0-0.13,0-0.2,0s-0.13-0.07-0.2-0.07c0,0.07-0.07,0.07-0.07,0.07h-0.07c-0.2,0.07-0.47,0-0.6-0.13l0,0
				c0,0.07-0.07,0.07-0.07,0.07l0,0c-0.2,0-0.33,0-0.47-0.07c-0.07,0.13-0.13,0.27-0.27,0.4l-0.13,0.13c-0.07,0-0.07,0.07-0.13,0.07
				c-0.07,0-0.13,0-0.2-0.07c-0.13-0.07-0.27-0.2-0.33-0.33l-0.07-0.13v-0.07v-0.07l0,0l0,0l0,0c0,0.13,0.07,0.2,0.13,0.27
				c0.07,0.07,0.07,0.07,0.13,0.13c0,0,0.07,0,0.13,0s0.13,0,0.2,0c0.13-0.07,0.27-0.13,0.33-0.27l0.07-0.13
				c-0.13,0-0.2-0.07-0.33-0.13l0,0v-0.07C96.19,23.95,96.25,23.81,96.45,23.61L96.45,23.61L96.45,23.61z M95.79,23.75
				c0-0.07,0.07-0.07,0-0.13l0.07-0.07c0.13-0.07,0.2-0.13,0.33-0.2c-0.07,0.27-0.27,0.47-0.6,0.6l0,0c-0.27,0-0.54-0.07-0.74-0.13
				c-0.33-0.13-0.54-0.4-0.6-0.74c0.33,0.4,0.87,0.67,1.4,0.8C95.72,23.81,95.79,23.81,95.79,23.75 M95.59,22.81l0.13,0.27
				l-0.27,0.13l-0.13-0.27L95.59,22.81z M93.71,22.61L93.71,22.61l0.07,0.07l0.07,0.07l0.13,0.13l0.13,0.07l0,0l0.07-0.13l0,0l0,0
				c0.07,0,0.07-0.07,0.13-0.07l0,0l0,0l0,0c0,0.07-0.07,0.13-0.07,0.2l-0.07,0.07c-0.07,0-0.07,0.07-0.13,0.07l-0.07,0.07
				l-0.13,0.07l0,0l-0.13-0.13l-0.2-0.13c-0.07,0-0.07-0.07-0.07-0.13c0,0,0-0.07,0-0.13v-0.07c0.2-0.27,0.4-0.54,0.6-0.8
				c0.13-0.13,0.27-0.27,0.4-0.33C94.25,21.87,93.98,22.21,93.71,22.61 M91.51,20.54c-0.07,0-0.13,0-0.2,0s-0.13-0.07-0.2-0.07
				l-0.07-0.07c-0.07-0.07-0.13-0.07-0.13-0.13c0-0.07-0.07-0.07-0.07-0.13c0-0.07,0-0.07,0-0.13c0-0.07,0.07-0.13,0.13-0.13
				l0.07-0.07c0.07,0,0.07-0.07,0.13-0.07l0.2-0.07h0.07h-0.07H91.3l-0.13,0.07c-0.07,0-0.07,0.07-0.13,0.13
				C90.97,19.93,90.97,20,90.97,20v0.07v0.07c0,0.07,0.07,0.07,0.07,0.07l0.13,0.13h0.07h0.07l0,0l-0.13-0.13
				c-0.07-0.07-0.07-0.13-0.07-0.2c0,0,0-0.07,0.07-0.07c0.27-0.2,0.6-0.2,0.87-0.13l0.13,0.07v0.07V20l-0.07,0.07
				c-0.07,0-0.13,0.07-0.2,0.07l0,0l0,0l0,0l0,0l0,0l0,0h-0.07c-0.13-0.07-0.2-0.07-0.33-0.07h-0.07h-0.07l0,0l0,0v0.07v0.07
				l0.07,0.07l0.07,0.07l0.07,0.07l0.07,0.07v0.07h-0.07l-0.13,0.07L91.51,20.54 M92.04,21.27L92.04,21.27c0-0.07,0-0.13,0-0.13
				l0.07-0.07V21l-0.2,0.07l0,0c-0.07-0.07-0.13-0.13-0.2-0.2l0,0l0,0V20.8l0.07-0.07l0.07-0.07l0.07-0.07h0.13h-0.07l0,0l0,0v0.07
				l0,0c0.07,0.07,0.13,0.13,0.2,0.2l0,0l0.07-0.07v-0.07c0.07-0.07,0.07-0.13,0.13-0.2c0.07-0.07,0.07-0.07,0.13-0.13l0.13-0.07
				l-0.2,0.33l-0.13,0.2v0.07L92.37,21l0.13,0.2l0.07,0.07h0.07l0,0c0.2-0.07,0.33-0.2,0.54-0.2c0,0.13-0.07,0.27-0.2,0.27
				c-0.07,0.07-0.13,0.07-0.27,0.13l0,0l0.07,0.07l0.13,0.13c0,0.07,0.07,0.07,0.13,0.13l0.2,0.2l0.6-0.67
				c0.13-0.13,0.27-0.2,0.4-0.27l0,0c-0.13,0.07-0.13,0.2-0.13,0.33c-0.07,0.07-0.13,0.07-0.27,0.13l0,0l0,0h-0.07
				c-0.2,0.27-0.4,0.47-0.67,0.67l-0.07,0.07c0,0-0.07,0-0.07-0.07l0,0l-0.13-0.13l-0.07-0.07l-0.07-0.07l-0.07,0.07l-0.07,0.07
				l-0.27,0.13l0,0c-0.07-0.07-0.07-0.13-0.07-0.2c-0.07-0.13,0-0.27,0.07-0.4l0.07-0.07c-0.07-0.07-0.13-0.13-0.2-0.2L92.04,21.27
				L92.04,21.27"/>
			<path id="XMLID_29_" d="M100.2,19.53c-0.13-0.54-0.54-1.14-0.54-1.74c0-0.87,0.2-1.14,0.47-1.34c-0.33-0.4-0.94,0.4-1,0.54
				c0-0.07-0.2-0.4-0.4-0.54c-0.27,0.2-0.4,0.54-0.4,0.54c-0.07-0.07-0.67-0.94-1-0.54c0.2,0.13,0.47,0.47,0.47,1.34
				c0,0.6-0.33,1.27-0.47,1.74c-0.2,0.87,0.54,1.27,0.67,1.34c-0.07-0.27,0.4-0.87,0.8-1.27c0.4,0.4,0.8,1,0.8,1.27
				C99.67,20.8,100.4,20.47,100.2,19.53 M100,12.64c-0.27-0.27-0.8,0.13-0.87,0.27c-0.07-0.13-0.27-0.4-0.4-0.47
				c-0.2,0.13-0.33,0.33-0.4,0.47c-0.13-0.13-0.67-0.54-0.87-0.27c0.2,0.13,0.54,0.47,0.54,1.07c0,0.8-0.4,1.34-0.4,1.81
				c0,0.54,0.33,0.8,0.74,1.2c0.07-0.13,0.27-0.33,0.47-0.47c0.2,0.13,0.4,0.33,0.47,0.47c0.4-0.4,0.74-0.67,0.74-1.2
				c0-0.47-0.4-1-0.4-1.81C99.46,13.11,99.73,12.78,100,12.64"/>
			<path id="XMLID_23_" d="M102.88,7.69C102.01,7.16,101,6.82,100,7.16c-0.2,0.07-0.87,0.27-1.27,0.87c-0.47-0.6-1.14-0.8-1.27-0.87
				c-1-0.33-2.01,0-2.88,0.54c-1.4,0.8-2.14,1.34-4.21,0.87c0,0,0.2,1.07,1.14,1.27c0.94,0.2,2.07-0.47,2.07-0.33
				c0.07,0.07-0.67,0.4-1.81,0.54c0.2,0.54,0.67,0.67,0.8,0.74c0.67,0.2,1.87-0.6,1.94-0.6c0.07,0.07-0.47,0.47-1.34,0.74
				c0.2,0.27,0.6,0.54,0.87,0.6c0.67,0.13,1.2-0.54,1.27-0.54c0.07,0.07-0.27,0.4-0.67,0.54c0.13,0.2,0.27,0.33,0.6,0.4
				c1,0.33,1.81-0.6,2.14-1.14c0,0.07-0.07,0.13-0.07,0.2c0,0.2,0.13,0.47,0.47,0.54c0,0-0.07,0.13-0.07,0.33
				c0,0.27,0.27,0.6,0.54,0.74c0.07-0.13,0.27-0.33,0.47-0.4l0,0c0.2,0.07,0.4,0.27,0.47,0.4c0.27-0.13,0.47-0.47,0.54-0.74
				c0-0.2-0.07-0.33-0.07-0.33c0.33-0.07,0.47-0.33,0.47-0.54c0-0.07,0-0.2-0.07-0.2c0.33,0.54,1.14,1.47,2.14,1.14
				c0.27-0.13,0.4-0.2,0.6-0.4c-0.33-0.2-0.67-0.54-0.67-0.54c0.07-0.07,0.6,0.6,1.27,0.54c0.27-0.07,0.67-0.27,0.87-0.6
				c-0.94-0.27-1.4-0.67-1.34-0.74c0.07-0.07,1.27,0.74,1.94,0.6c0.13-0.07,0.6-0.2,0.8-0.74c-1.07-0.13-1.81-0.47-1.81-0.54
				c0.07-0.07,1.2,0.54,2.07,0.33c0.94-0.2,1.14-1.27,1.14-1.27C105.02,9.03,104.21,8.49,102.88,7.69 M85.62,21.67
				c0.4,0.13,0.94,0.2,1.47,0.2l0,0c0.54,0,1-0.07,1.47-0.2c0.2-0.07,0.13-0.47-0.2-0.33s-0.54,0.2-1.27,0.2l0,0
				c-0.74,0-0.94-0.07-1.27-0.2C85.42,21.2,85.42,21.54,85.62,21.67 M85.35,22.27c0.47,0.13,1.07,0.27,1.67,0.27h0.07
				c0.6,0,1.2-0.07,1.67-0.27c0.07,0,0.13-0.07,0.13-0.13c0-0.07,0.07-0.13,0-0.2c0-0.13-0.13-0.2-0.27-0.2c-0.07,0-0.07,0-0.13,0
				h-0.07c-0.4,0.13-0.6,0.2-1.47,0.2l0,0c-0.8,0-1.07-0.07-1.47-0.2h-0.07c-0.07,0-0.07,0-0.13,0c-0.13,0-0.27,0.07-0.27,0.2
				c0,0.07,0,0.13,0,0.2C85.22,22.21,85.28,22.27,85.35,22.27 M89.23,22.74c0-0.2-0.2-0.27-0.33-0.27c-0.07,0-0.13,0-0.13,0H88.7
				c-0.47,0.13-0.67,0.2-1.61,0.2c-0.87,0-1.14-0.07-1.61-0.2h-0.07c-0.07,0-0.13,0-0.13,0c-0.2,0-0.33,0.13-0.33,0.27
				c0,0.07,0,0.13,0.07,0.27c0.07,0.07,0.13,0.13,0.2,0.2c0.54,0.2,1.14,0.27,1.81,0.27l0,0h0.2l0,0c0.67,0,1.34-0.13,1.81-0.27
				c0.07,0,0.13-0.07,0.2-0.2C89.23,22.88,89.23,22.81,89.23,22.74"/>
			<path id="XMLID_22_" d="M87.89,16.39c0-0.4,0.27-1.67-0.94-2.34c-0.67-0.94-1.67-1.67-1.94-1.61c-0.47,0.27,1,1.74,0.8,2.21
				c-0.07,0.07-0.47-0.6-1.34-0.8c-0.13-0.54-0.4-0.8-0.54-1.14c0-0.27-0.07-1.14-0.13-1.27c0.13-0.54,0.07-1.07-0.27-1.07
				c0,0-0.2,0.2-0.33,1.07c-0.13,1-0.07,2.14,0.87,3.41c0.54,0.8,1.94,1.2,1.94,1.81l-0.33,4.48c0.47,0.13,0.87,0.2,1.27,0.2
				c0.4,0,0.87-0.07,1.34-0.2L87.89,16.39L87.89,16.39z"/>
			<path id="XMLID_13_" d="M84.41,13.24c0.07,0.13,0.2,0.33,0.2,0.47c0.74,0.13,0.87,0.4,1,0.6c-0.07-0.33-0.94-1.34-1.07-1.87
				c-0.13-0.6,0-1,0.07-1.54c0-0.27-0.2-0.4-0.2-0.33c-0.27,0.13-0.4,0.67-0.4,1.47C84.01,12.71,84.28,12.91,84.41,13.24
				 M84.82,12.51c-0.13-0.74,0-1.47,0.13-1.61c0,0,0.2,0.07,0.2,0.33c0,0.33,0,0.8,0,1.14c-0.07,0-0.07,0-0.13,0
				C84.88,12.31,84.82,12.51,84.82,12.51 M85.69,12.64c-0.07-0.07-0.27-0.2-0.4-0.27c0-0.47,0.07-0.87,0.2-1c0,0,0.2,0.07,0.2,0.27
				C85.69,11.91,85.69,12.37,85.69,12.64 M111.71,21.67c-0.4,0.13-0.94,0.2-1.47,0.2l0,0c-0.54,0-1-0.07-1.47-0.2
				c-0.2-0.07-0.13-0.47,0.2-0.33s0.54,0.2,1.27,0.2l0,0c0.74,0,0.94-0.07,1.27-0.2C111.91,21.2,111.91,21.54,111.71,21.67
				 M111.97,22.27c-0.47,0.13-1.07,0.27-1.67,0.27h-0.07c-0.6,0-1.2-0.07-1.67-0.27c-0.07,0-0.13-0.07-0.13-0.13
				c0-0.07-0.07-0.13,0-0.2c0-0.13,0.13-0.2,0.27-0.2c0.07,0,0.07,0,0.13,0h0.07c0.4,0.13,0.6,0.2,1.47,0.2l0,0
				c0.8,0,1.07-0.07,1.47-0.2h0.07c0.07,0,0.07,0,0.13,0c0.13,0,0.27,0.07,0.27,0.2c0,0.07,0,0.13,0,0.2
				C112.11,22.21,112.04,22.27,111.97,22.27 M108.09,22.74c0-0.2,0.2-0.27,0.33-0.27c0.07,0,0.13,0,0.13,0h0.07
				c0.47,0.13,0.67,0.2,1.61,0.2c0.87,0,1.14-0.07,1.61-0.2h0.07c0.07,0,0.13,0,0.13,0c0.2,0,0.33,0.13,0.33,0.27
				c0,0.07,0,0.13-0.07,0.27c-0.07,0.07-0.13,0.13-0.2,0.2c-0.54,0.2-1.14,0.27-1.81,0.27l0,0h-0.2l0,0c-0.67,0-1.34-0.13-1.81-0.27
				c-0.07,0-0.13-0.07-0.2-0.2C108.09,22.88,108.09,22.81,108.09,22.74"/>
			<path id="XMLID_12_" d="M109.43,16.39c0-0.4-0.27-1.67,0.94-2.34c0.67-0.94,1.67-1.67,1.94-1.61c0.47,0.27-1,1.74-0.8,2.21
				c0.07,0.07,0.47-0.6,1.34-0.8c0.13-0.54,0.4-0.8,0.54-1.14c0-0.27,0.07-1.14,0.13-1.27c-0.13-0.54-0.07-1.07,0.27-1.07
				c0,0,0.2,0.2,0.33,1.07c0.13,1,0.07,2.14-0.87,3.41c-0.54,0.8-1.94,1.2-1.94,1.81c0,0.4,0.33,4.48,0.33,4.48
				c-0.47,0.13-0.87,0.2-1.27,0.2c-0.4,0-0.87-0.07-1.34-0.2L109.43,16.39L109.43,16.39z"/>
			<path id="XMLID_7_" d="M112.91,13.24c-0.07,0.13-0.2,0.33-0.2,0.47c-0.74,0.13-0.87,0.4-1,0.6c0.07-0.33,0.94-1.34,1.07-1.87
				c0.13-0.6,0-1-0.07-1.54c0-0.27,0.2-0.4,0.2-0.33c0.27,0.13,0.4,0.67,0.4,1.47C113.31,12.71,113.04,12.91,112.91,13.24
				 M112.58,12.51c0.13-0.74,0-1.47-0.13-1.61c0,0-0.2,0.07-0.2,0.33c0,0.33,0,0.8,0,1.14c0.07,0,0.07,0,0.13,0
				C112.44,12.31,112.51,12.51,112.58,12.51 M111.64,12.64c0.07-0.07,0.27-0.2,0.4-0.27c0-0.47-0.07-0.87-0.2-1
				c0,0-0.2,0.07-0.2,0.27C111.64,11.91,111.64,12.37,111.64,12.64"/>
		</g>
	</g>
</g>
</svg>
