<?xml version="1.0" encoding="utf-8"?>
<!-- Generator: Adobe Illustrator 25.4.1, SVG Export Plug-In . SVG Version: 6.00 Build 0)  -->
<svg version="1.1" id="Layer_4" xmlns="http://www.w3.org/2000/svg" xmlns:xlink="http://www.w3.org/1999/xlink" x="0px" y="0px"
	 viewBox="0 0 139.79 80.27" style="enable-background:new 0 0 139.79 80.27;" xml:space="preserve">
<style type="text/css">
	.st0{fill:#004899;}
	.st1{fill:#FECA3A;}
</style>
<g>
	<path class="st0" d="M139.79,19.59c-41.17-6.95-61.67,42.1-94.91,46.27C20.66,68.91,3.09,51.56,0.1,38.84
		c-1.78,24.65,20.58,42.23,45.38,41.11C87.08,78.04,109.16,27.35,139.79,19.59z"/>
	<path class="st0" d="M107.87,18.99c-31.42-4.32-38.8,18.92-64.14,27.24c-16.37,5.37-28.9,1.41-37.85-8.74
		c4.17,13.32,20.25,22.85,34.42,21.68C68.18,56.9,83.91,26.04,107.87,18.99z"/>
	<g>
		<path class="st1" d="M41.29,40.25c5.93-1.95,10.17-4.4,13.88-6.89c2.9-1.95,13.16-9.25,18.36-12.41C69.13,8.74,57.45,0,43.74,0
			C26.24,0,12.07,14.17,12.07,31.66c0,1.47,0.1,2.9,0.29,4.32C19.77,41.42,29.9,43.99,41.29,40.25z"/>
	</g>
</g>
</svg>
