<?xml version="1.0" encoding="utf-8"?>
<!-- Generator: Adobe Illustrator 25.4.1, SVG Export Plug-In . SVG Version: 6.00 Build 0)  -->
<svg version="1.1" xmlns="http://www.w3.org/2000/svg" xmlns:xlink="http://www.w3.org/1999/xlink" x="0px" y="0px"
	 viewBox="0 0 73.47 80" style="enable-background:new 0 0 73.47 80;" xml:space="preserve">
<style type="text/css">
	.st0{fill:#EA7B47;}
</style>
<g id="Layer_2">
</g>
<g id="Layer_1">
	<g>
		<path class="st0" d="M47.29,68.69c-5.69-1.74-7.55,1.97-9.29,3.25c-1.74,1.28-3.83-1.28-5.34-3.95c-1.51-2.67-2.21-8.25-4.3-14.29
			C26.27,47.67,18.95,40,18.95,40s7.32-7.67,9.41-13.71c2.09-6.04,2.79-11.62,4.3-14.29c1.51-2.67,3.6-5.23,5.34-3.95
			c1.74,1.28,3.6,5,9.29,3.25c5.69-1.74,4.41-3.72,3.72-5.11c-0.7-1.39-7.43-7.55-17.54-5.92s-15.1,7.43-19.28,20.21
			C10.01,33.26,0,40,0,40s10.01,6.74,14.19,19.52c4.18,12.78,9.18,18.59,19.28,20.21c10.11,1.63,16.84-4.53,17.54-5.92
			C51.71,72.41,52.99,70.44,47.29,68.69z"/>
		<path class="st0" d="M61,41.28c-6.97,0-9.36,5.23-9.36,8.71c0,0-0.33,6.49,4.33,8.28c4.66,1.79,7.06-2.13,6.53-4.27
			c-0.52-2.13-1.79-3.4-3.44-3.62c0,0,2.7-1.39,5.05,1.44c2.35,2.83-0.35,8.67-2.88,9.63c-2.53,0.96-8.84,0.22-9.6-5.05
			c0,0-0.04-1.05-1.43-1c-1.38,0.04-3.3-0.74-3.26-3.22C47,49.69,45.44,42.29,41.47,40c3.96-2.29,5.53-9.69,5.49-12.17
			c-0.04-2.48,1.87-3.27,3.26-3.22c1.38,0.04,1.43-1,1.43-1c0.76-5.27,7.08-6.01,9.6-5.05c2.53,0.96,5.23,6.8,2.88,9.63
			c-2.35,2.83-5.05,1.44-5.05,1.44c1.66-0.22,2.92-1.48,3.44-3.62s-1.87-6.06-6.53-4.27c-4.66,1.79-4.33,8.28-4.33,8.28
			c0,3.48,2.39,8.71,9.36,8.71c8.02,0,11.97-8.02,12.43-12.66c0.46-4.65-3.25-15.8-14.52-15.68c-11.27,0.12-13.59,6.85-13.59,6.85
			c-5.23-0.12-7.55,5.58-9.76,11.38C33.35,34.42,26.97,40,26.97,40s6.39,5.58,8.6,11.38c2.21,5.81,4.53,11.5,9.76,11.38
			c0,0,2.32,6.74,13.59,6.85c11.27,0.12,14.99-11.04,14.52-15.68C72.97,49.29,69.02,41.28,61,41.28z"/>
	</g>
</g>
</svg>
