<?xml version="1.0" encoding="utf-8"?>
<!-- Generator: Adobe Illustrator 25.4.1, SVG Export Plug-In . SVG Version: 6.00 Build 0)  -->
<svg version="1.1" xmlns="http://www.w3.org/2000/svg" xmlns:xlink="http://www.w3.org/1999/xlink" x="0px" y="0px"
	 viewBox="0 0 550.19 80" style="enable-background:new 0 0 550.19 80;" xml:space="preserve">
<style type="text/css">
	.st0{fill:#EA7B47;}
	.st1{fill:#4C629E;}
</style>
<g id="Layer_2">
</g>
<g id="Layer_1">
	<g>
		<g>
			<path class="st0" d="M47.29,68.69c-5.69-1.74-7.55,1.97-9.29,3.25c-1.74,1.28-3.83-1.28-5.34-3.95
				c-1.51-2.67-2.21-8.25-4.3-14.29C26.27,47.67,18.95,40,18.95,40s7.32-7.67,9.41-13.71c2.09-6.04,2.79-11.62,4.3-14.29
				c1.51-2.67,3.6-5.23,5.34-3.95c1.74,1.28,3.6,5,9.29,3.25c5.69-1.74,4.41-3.72,3.72-5.11c-0.7-1.39-7.43-7.55-17.54-5.92
				s-15.1,7.43-19.28,20.21C10.01,33.26,0,40,0,40s10.01,6.74,14.19,19.52c4.18,12.78,9.18,18.59,19.28,20.21
				c10.11,1.63,16.84-4.53,17.54-5.92C51.71,72.41,52.99,70.44,47.29,68.69z"/>
			<path class="st0" d="M61,41.28c-6.97,0-9.36,5.23-9.36,8.71c0,0-0.33,6.49,4.33,8.28c4.66,1.79,7.06-2.13,6.53-4.27
				c-0.52-2.13-1.79-3.4-3.44-3.62c0,0,2.7-1.39,5.05,1.44c2.35,2.83-0.35,8.67-2.88,9.63c-2.53,0.96-8.84,0.22-9.6-5.05
				c0,0-0.04-1.05-1.43-1c-1.38,0.04-3.3-0.74-3.26-3.22C47,49.69,45.44,42.29,41.47,40c3.96-2.29,5.53-9.69,5.49-12.17
				c-0.04-2.48,1.87-3.27,3.26-3.22c1.38,0.04,1.43-1,1.43-1c0.76-5.27,7.08-6.01,9.6-5.05c2.53,0.96,5.23,6.8,2.88,9.63
				c-2.35,2.83-5.05,1.44-5.05,1.44c1.66-0.22,2.92-1.48,3.44-3.62s-1.87-6.06-6.53-4.27c-4.66,1.79-4.33,8.28-4.33,8.28
				c0,3.48,2.39,8.71,9.36,8.71c8.02,0,11.97-8.02,12.43-12.66c0.46-4.65-3.25-15.8-14.52-15.68c-11.27,0.12-13.59,6.85-13.59,6.85
				c-5.23-0.12-7.55,5.58-9.76,11.38C33.35,34.42,26.97,40,26.97,40s6.39,5.58,8.6,11.38c2.21,5.81,4.53,11.5,9.76,11.38
				c0,0,2.32,6.74,13.59,6.85c11.27,0.12,14.99-11.04,14.52-15.68C72.97,49.29,69.02,41.28,61,41.28z"/>
		</g>
		<g>
			<path class="st1" d="M339.57,44.76v-9.53h10.57v-4.3h-2.98c0.53-1.93,1.8-6.54,1.9-6.62h-0.22c0,0-5.88,0.01-6.06,0
				c-0.15-0.01-1.7,5.18-2.09,6.62h-1.14v-6.62h-7.67v6.62h-0.92c-0.39-1.44-1.94-6.63-2.09-6.62c-0.17,0.01-6.06,0-6.06,0h-0.22
				c0.1,0.08,1.37,4.69,1.9,6.62h-3.43v4.3h10.8v9.53H339.57z"/>
			<path class="st1" d="M107.58,15.23c-13.92,0-25.21,11.92-25.21,26.62s11.29,26.62,25.21,26.62s25.21-11.92,25.21-26.62
				S121.51,15.23,107.58,15.23z M107.58,63.09c-7.74,0-14.01-9.51-14.01-21.24c0-11.73,6.27-21.24,14.01-21.24
				c7.74,0,14.01,9.51,14.01,21.24C121.6,53.58,115.32,63.09,107.58,63.09z"/>
			<path class="st1" d="M202.38,19.9c-3.37,4.88-25.09,38.92-25.09,38.92s-1.28,1.86-2.67,1.86c-1.39,0-3.14-1.28-5.69-4.65
				c-2.56-3.37-11.15-14.75-11.15-14.75l16.15-21.61c0,0,3.25-4.44,4.65-4.44h-8.71c0,0-4.3-0.67-6.97,3.4
				c-2.67,4.07-14.87,19.75-14.87,19.75V15.23h-10.69v52.42c0,0,10.69,0.46,10.69,0c0-0.46,0-23.23,0-23.23s15.57,20.21,19.17,21.96
				c3.6,1.74,5,1.48,7.32,1.48s8.25,0,8.48,0c0.23,0,28-42.84,28-42.84v42.85h11.27V15.23h-11.27
				C210.97,15.23,205.74,15.02,202.38,19.9z"/>
			<rect x="232.11" y="15.23" class="st1" width="11.15" height="52.64"/>
			<rect x="252.91" y="15.23" class="st1" width="11.15" height="52.64"/>
			<path class="st1" d="M291.82,62.19c-2.67-3.48-11.04-15.8-11.04-15.8s13.24-5.58,13.24-16.26c0-10.69-10.45-15.57-18.94-15.57
				c0,0-7.78-0.35-7.78,5.23c0,5.58,4.3,5.23,5.58,4.88c1.28-0.35,4.18-2.16,4.07-4.97c0,0,6.27,2.88,6.27,9.97
				c0,7.09-5.46,14.06-15.22,13.71c0,0,0.12,1.28,3.6,5.92c3.48,4.65,10.8,14.87,11.15,15.22c0.35,0.35,2.21,3.36,8.25,3.36
				c6.04,0,8.94,0,8.94,0S294.49,65.67,291.82,62.19z"/>
			<path class="st1" d="M312.15,47.32h6.85V21.88h33.69v25.44h7.67V22.17c0-2.53-2.05-4.59-4.59-4.59h-1.92h-1.16h-28.58l1.28-3.02
				c0,0-9.06,0-9.41,0c-0.35,0-1.28,2.21-1.74,3.02h-2.09h-0.46v4.3h0.46V47.32z"/>
			<path class="st1" d="M360.36,54.51v-4.3h-19.75c-0.09,0-1.92-2.57-2.09-2.53c-0.17,0.04-5.97,0.48-5.97,0.48l-1.36,2.05h-19.5
				v4.3h14.03c-0.17,0-11.47,8.51-11.47,8.51s-0.77,0.78-3.08,0.78c0,0-0.22,3.22,0,3.22c0.22,0,6.71,0,7.84,0s3.4-0.26,9.58-5.18
				c3.86-3.07,7.97-5.75,10.52-7.33H360.36z"/>
			<path class="st1" d="M327.81,44.76l3.27-8.15h-6.53c-0.13,0.09-3.09,8.15-3.09,8.15H327.81z"/>
			<path class="st1" d="M350.24,44.76c0,0-2.96-8.06-3.09-8.15h-6.53l3.27,8.15H350.24z"/>
			<path class="st1" d="M340.96,56.66l7.93,8.36c0,0,2.05,2,6.4,2c0.26,0,5.66,0,5.66,0l-11.89-10.37H340.96z"/>
			<path class="st1" d="M372.09,36.17V40h18.06v8.83h-9.82h-8.25v3.86v10.09c0,2.35,1.9,4.25,4.25,4.25h1.32h2.67h17.19V63h-17.19
				V52.69h14.71c1.75,0,3.18-1.42,3.18-3.18v-0.42v-0.26V40v-3.83h-8.07H372.09z"/>
			<polygon class="st1" points="391.12,29.86 387.6,29.86 387.6,15.23 382.72,15.23 382.72,29.86 379.21,29.86 379.21,15.23 
				372.09,15.23 372.09,29.86 372.09,33.79 379.21,33.79 382.72,33.79 387.6,33.79 391.12,33.79 398.23,33.79 398.23,29.86 
				398.23,15.23 391.12,15.23 			"/>
			<path class="st1" d="M459.68,21.59v-4.01h-7h-3.41l0.94-2.35h-8.8l-2.79,2.35h-2.53v0.93v3.08v16.5h-1.97v4.68h1.97v24.26h7.55
				V47.67l2.82,6.15c0,0,4.22,0.26,6.21,0.18v9h-4.97v4.02h4.97h1.77h1.56c2.78,0,3.66-2.25,3.66-5.03V42.77h1.51v-4.68h-1.51V21.59
				z M452.68,21.59V33l-2.73-5.4c0,0-4-0.05-6.3-0.04v-5.97H452.68z M443.65,30.64l2.56,5.06c0,0,6.48,0.09,6.48,0.46v1.92h-9.03
				V30.64z M452.68,51.12l-2.82-4.88h-6.21v-3.48h9.03V51.12z"/>
			<path class="st1" d="M463.57,67.02h3.34c2.78,0,3.66-2.25,3.66-5.03V32.83h-7V67.02z"/>
			<path class="st1" d="M423.47,61.37V20.26c0-2.78-2.25-5.03-5.03-5.03h-1.59h-1.74h-13.77v2.35v2.15v47.29h4.84
				c2.02,0,3.66-1.64,3.66-3.66V19.73h5.27v42.76c0,2.5,2.03,4.53,4.53,4.53h1.57h2.27h1.74v-3.53
				C425.21,63.49,424.23,64.11,423.47,61.37z"/>
			<path class="st1" d="M484.87,61.09V30.54c0-2.78-2.25-5.03-5.03-5.03h-1.31h-1.31h-13.65v4.36h13.65v32.62
				c0,2.5,2.03,4.53,4.53,4.53h1.04h2.07h2.64v-3.9C487.5,63.13,485.73,63.71,484.87,61.09z"/>
			<path class="st1" d="M487.07,17.58h-8.38c0.34-0.83,0.71-1.92,0.71-1.92s-8.97,0-9.24,0c-0.17,0-1.05,1.08-1.89,1.92h-6.47v4.79
				h25.27V17.58z"/>
			<polygon class="st1" points="529.06,46.24 547.18,46.24 547.18,41.89 499.44,41.89 499.44,46.24 518.26,46.24 518.26,61.68 
				496.65,61.68 496.65,66.72 550.19,66.72 550.19,61.68 529.06,61.68 			"/>
			<polygon class="st1" points="541.48,17.58 530.19,17.58 529.06,15.23 519.91,15.23 517.82,17.58 505.36,17.58 496.65,17.58 
				496.65,22.37 496.65,33.44 505.36,33.44 505.36,22.37 541.48,22.37 541.48,33.44 550.19,33.44 550.19,22.37 550.19,17.58 			"/>
			<polygon class="st1" points="533.51,25.51 525.4,25.51 532.55,38.58 541.09,38.58 			"/>
			<polygon class="st1" points="513.77,25.51 506.06,38.08 514.25,38.08 521.48,25.51 			"/>
		</g>
	</g>
</g>
</svg>
