<?xml version="1.0" encoding="utf-8"?>
<!-- Generator: Adobe Illustrator 25.4.1, SVG Export Plug-In . SVG Version: 6.00 Build 0)  -->
<svg version="1.1" id="Layer_1" xmlns="http://www.w3.org/2000/svg" xmlns:xlink="http://www.w3.org/1999/xlink" x="0px" y="0px"
	 viewBox="0 0 71.01 80" style="enable-background:new 0 0 71.01 80;" xml:space="preserve">
<style type="text/css">
	.st0{fill:url(#SVGID_1_);}
	.st1{fill:url(#SVGID_00000175304745994643998500000002249371711851468468_);}
	.st2{fill:url(#SVGID_00000057867908241594070200000012909896969290847388_);}
</style>
<g>
	
		<linearGradient id="SVGID_1_" gradientUnits="userSpaceOnUse" x1="27.2148" y1="63.8194" x2="49.481" y2="52.7851" gradientTransform="matrix(1 0 0 -1 0 82)">
		<stop  offset="0" style="stop-color:#FAAF4C"/>
		<stop  offset="0.5944" style="stop-color:#F79C2E"/>
		<stop  offset="1" style="stop-color:#F6921E"/>
	</linearGradient>
	<path class="st0" d="M52.73,0.3L66.97,0l-24.6,42.58H0c0,0,14.65-5.51,20.3-10.25c4.34-3.69,22.88-25,24.85-27.53
		C47.58,1.57,50.96,0.56,52.73,0.3z"/>
	
		<linearGradient id="SVGID_00000103235792256482972330000001397312854173587619_" gradientUnits="userSpaceOnUse" x1="49.0106" y1="-14.7456" x2="16.8759" y2="42.0654" gradientTransform="matrix(1 0 0 -1 0 82)">
		<stop  offset="0" style="stop-color:#72A4D7"/>
		<stop  offset="1" style="stop-color:#1A1F4A"/>
	</linearGradient>
	<path style="fill:url(#SVGID_00000103235792256482972330000001397312854173587619_);" d="M8.43,60.05L2.42,50.1h40.05L59.74,80
		c0,0-9.85-8.13-15.5-10.15c-4.39-1.57-26.97-5.96-29.54-6.31C11.41,63.13,9.34,61.16,8.43,60.05z"/>
	
		<linearGradient id="SVGID_00000113313336107869010680000014565905482560787113_" gradientUnits="userSpaceOnUse" x1="81.4341" y1="3.5935" x2="49.2971" y2="60.4043" gradientTransform="matrix(1 0 0 -1 0 82)">
		<stop  offset="0" style="stop-color:#72A4D7"/>
		<stop  offset="1" style="stop-color:#1A1F4A"/>
	</linearGradient>
	<path style="fill:url(#SVGID_00000113313336107869010680000014565905482560787113_);" d="M70.45,67.02l-4.75,8.64L48.68,46.16
		l14.65-25.4c0,0-1.77,10.71-0.86,15.71c0.71,3.89,7.07,22.37,7.93,24.39C71.46,63.54,70.91,65.91,70.45,67.02z"/>
</g>
</svg>
