<?xml version="1.0" encoding="utf-8"?>
<!-- Generator: Adobe Illustrator 25.4.1, SVG Export Plug-In . SVG Version: 6.00 Build 0)  -->
<svg version="1.1" id="Layer_1" xmlns="http://www.w3.org/2000/svg" xmlns:xlink="http://www.w3.org/1999/xlink" x="0px" y="0px"
	 viewBox="0 0 65.7 80" style="enable-background:new 0 0 65.7 80;" xml:space="preserve">
<style type="text/css">
	.st0{fill:#1DAEE5;}
	.st1{fill:#414042;}
</style>
<path class="st0" d="M62.1,54.2c0,0-24,25.8-27,25.8s-10.7,0.1-15.7-12.9s-8.3-26.8-7.5-30.5c0.8-3.7,3.7-2,6-1
	C20.2,36.6,62.1,54.2,62.1,54.2z"/>
<path class="st1" d="M20.7,26.1c0,0,21,10.3,30,13.6c9.1,3.3,14.7,3.7,14.9,1.4s-4.9-6.6-8.6-11.4c-3.7-4.7-10.9-14.3-13.3-14.9
	s-5.9,0.6-9.2,2.7C31.3,19.4,20.7,26.1,20.7,26.1z"/>
<path class="st0" d="M31.4,9.7L10.8,21.6c0,0-3.6,2-6.3-1.8S0,5.9,0,2.4S3.3,0,5.4,0.7S31.4,9.7,31.4,9.7z"/>
</svg>
