<?xml version="1.0" encoding="utf-8"?>
<!-- Generator: Adobe Illustrator 25.4.1, SVG Export Plug-In . SVG Version: 6.00 Build 0)  -->
<svg version="1.1" id="Layer_1" xmlns="http://www.w3.org/2000/svg" xmlns:xlink="http://www.w3.org/1999/xlink" x="0px" y="0px"
	 viewBox="0 0 394 80" style="enable-background:new 0 0 394 80;" xml:space="preserve">
<style type="text/css">
	.st0{fill:#1DAEE5;}
	.st1{fill:#414042;}
</style>
<g>
	<g>
		<rect x="101.4" y="56.4" class="st0" width="6.2" height="22.5"/>
		<path class="st0" d="M130.3,78.8h6.2l-8.9-9.3c2.8-0.6,6.8-2.2,6.8-6.6c0-6.9-8.5-6.5-8.5-6.5h-8.7h-3.9H111v22.5h6.2v-7.8h5.7
			L130.3,78.8z M117.2,60.2h8.7c0,0,3.5,0.2,3.5,3.5s-3.5,3.6-3.5,3.6h-8.7V60.2z"/>
		<path class="st0" d="M79.4,56.4L67.1,78.8h6.6l2.7-4.9h12.5l2.4,4.9h6.8L85.8,56.4H79.4z M78.3,70.1l4.3-8.5l4.3,8.5H78.3z"/>
	</g>
	<g>
		<path class="st1" d="M314.1,56.4l-12.3,22.5h6.6l2.7-4.9h12.5l2.4,4.9h6.8l-12.3-22.5H314.1z M313,70.1l4.3-8.5l4.3,8.5H313z"/>
		<path class="st1" d="M381.7,56.4h-6.3l-12.3,22.5h6.6l2.7-4.9h12.5l2.4,4.9h6.8L381.7,56.4z M374.2,70.1l4.3-8.5l4.3,8.5H374.2z"
			/>
		<polygon class="st1" points="354.7,71.9 341.9,56.4 336.2,56.4 336.2,78.8 341.9,78.8 341.9,63.3 354.7,78.8 360.4,78.8 
			360.4,56.4 354.7,56.4 		"/>
		<polygon class="st1" points="288.6,71.5 282.9,56.4 281.4,56.4 277.2,56.4 275.8,56.4 270.1,71.6 265.5,56.4 259.8,56.4 
			266.5,78.8 267.4,78.8 272.2,78.8 273.1,78.8 279.3,62 285.7,78.8 286.4,78.8 291.4,78.8 292.1,78.8 298.8,56.4 293.1,56.4 		"/>
		<path class="st1" d="M166,67.2c2.2-0.7,4.1-1.9,4.1-4.3c0-6.9-8.5-6.5-8.5-6.5H153h-3.9h-2.2v22.5h6.2v0h9.9c0,0,8.5,0.3,8.5-6.5
			C171.4,69.3,168.5,67.9,166,67.2z M161.6,60.2c0,0,3.5,0,3.5,2.6c0,2.6-3.5,2.6-3.5,2.6H153v-5.2H161.6z M162.9,75H153v-5.9h8.7
			c0,0,4.7,0.7,4.7,3.3C166.3,75,162.9,75,162.9,75z"/>
		<path class="st1" d="M190,55.7c-8.2,0-14.9,3.8-14.9,12.1c0,7.7,6.7,12.1,14.9,12.1s14.9-5.4,14.9-12.1
			C204.9,61.1,198.2,55.7,190,55.7z M190,75.6c-4.8,0-8.6-2.8-8.6-7.7c0-5.3,3.9-7.7,8.6-7.7c4.8,0,8.6,3.4,8.6,7.7
			C198.7,72.1,194.8,75.6,190,75.6z"/>
		<polygon class="st1" points="214.2,56.4 206,56.4 206,60.2 214.2,60.2 214.2,78.8 219.8,78.8 219.8,60.2 228.5,60.2 228.5,56.4 
			219.8,56.4 		"/>
		<path class="st1" d="M244.3,64.9c-5.2-0.7-5.9-2.4-5.9-3.2c0-0.9,1.2-2.3,4.7-2.3s6.3,2.4,6.3,2.4l2.2-4.1c0,0-2.7-2-8.5-2
			S232.8,58,232.8,62c0,4,4.1,6.6,10.5,7.1c6.4,0.6,6.4,2.7,6.4,3.6c0,0.8-0.6,3.2-6.2,3.2c-5.6,0-6.3-4.3-6.3-4.3l-5.6,0.7
			c1.6,5.7,7.1,7.4,12,7.4c4.9,0,12-1.7,12-7.2C255.6,67.1,249.6,65.6,244.3,64.9z"/>
	</g>
	<path class="st0" d="M60.6,52.9c0,0-23.5,25.2-26.3,25.2S23.8,78.3,19,65.5s-8.1-26.2-7.4-29.8c0.7-3.6,3.6-2,5.9-1
		S60.6,52.9,60.6,52.9z"/>
	<path class="st1" d="M20.2,25.5c0,0,20.5,10.1,29.3,13.3c8.9,3.2,14.4,3.6,14.6,1.3c0.2-2.2-4.7-6.5-8.4-11.1
		c-3.6-4.6-10.6-14-13-14.6c-2.4-0.6-5.7,0.6-9,2.6S20.2,25.5,20.2,25.5z"/>
	<path class="st0" d="M30.7,9.5L10.6,21.1c0,0-3.5,2-6.1-1.7S0,5.8,0,2.4S3.2,0,5.2,0.6S30.7,9.5,30.7,9.5z"/>
</g>
</svg>
