<?xml version="1.0" encoding="utf-8"?>
<!-- Generator: Adobe Illustrator 25.4.1, SVG Export Plug-In . SVG Version: 6.00 Build 0)  -->
<svg version="1.1" xmlns="http://www.w3.org/2000/svg" xmlns:xlink="http://www.w3.org/1999/xlink" x="0px" y="0px"
	 viewBox="0 0 109.88 80" style="enable-background:new 0 0 109.88 80;" xml:space="preserve">
<style type="text/css">
	.st0{fill-rule:evenodd;clip-rule:evenodd;fill:#D06537;}
	.st1{fill-rule:evenodd;clip-rule:evenodd;fill:#409E54;}
</style>
<g id="Layer_2">
</g>
<g id="Layer_1">
	<g>
		<path class="st0" d="M104.6,0.16h5.28L82.09,80h-5.72C84.88,53.08,94.3,26.45,104.6,0.16L104.6,0.16z"/>
		<path class="st1" d="M53.02,21.34l2.26,9.84l4.9-2.99l0.35,0.25l-1.92,5.27l8.06,1.66l-0.04,1.04l-7.98,1.75l2.73,6.02l-0.79,0.52
			l-5.38-2.72l-2.18,11.23h-0.47L50.3,41.98l-5.14,2.84l-0.61-0.64l2.7-5.98l-8.76-1.79l-0.14-1l8.84-1.62l-2.06-5.15l0.34-0.31
			l5.09,2.84l2-9.84L53.02,21.34L53.02,21.34z"/>
		<path class="st0" d="M25.11,47.73L57.34,7.15l5.08,2.3c1.79,0.58,3.36,1.27,5.01,2.18c4.49,2.56,8.21,6.27,10.78,10.75
			c0.64,1.09,1.16,2.11,1.64,3.28c0.53,1.28,0.94,2.47,1.31,3.8c3.48,12.77-2.22,26.49-13.73,33.03c-1.6,0.89-3.12,1.58-4.84,2.21
			c-6.52,2.41-13.27,2.41-19.79,0c-1.67-0.6-3.29-1.34-4.84-2.21c-4.58-2.65-8.12-6.17-10.79-10.75
			C26.41,50.44,25.72,49.1,25.11,47.73L25.11,47.73z M32.66,48.79l-4.22,0c0.3,0.62,0.6,1.17,0.95,1.77c1.19,2.09,2.67,4,4.39,5.68
			l0.58,0.55l0.29,0.27h5.62c-1.89-2.5-3.36-5.29-4.35-8.26L32.66,48.79L32.66,48.79z M31.22,47.81l4.39,0.04
			c-0.97-3.14-1.52-6.4-1.62-9.69l-6.57,8.29c0.2,0.48,0.38,0.92,0.59,1.4L31.22,47.81L31.22,47.81z M39.25,37.38l-4.77,0.1
			c0.1,3.58,0.63,6.83,1.66,10.27l8.23-0.07c-0.51-3.41-0.78-6.86-0.79-10.3L39.25,37.38z M38.33,57.88h-2.66
			c1.21,1.01,2.4,1.83,3.77,2.6c1.9,1.22,3.97,2.15,6.14,2.77c1.47,0.46,2.82,0.84,4.31,1.2l-4.81-2.56
			c-0.55-0.26-1.07-0.58-1.55-0.95c-0.54-0.42-1.01-0.84-1.47-1.34c-0.5-0.54-0.96-1.11-1.37-1.71H38.33z M42.9,56.84l3.76,0.04
			c-0.49-1.29-0.9-2.6-1.23-3.93c-0.36-1.43-0.67-2.87-0.91-4.32l-8.14,0.1c0.77,2.08,1.73,4.08,2.88,5.98
			c0.46,0.8,0.92,1.5,1.47,2.24L42.9,56.84L42.9,56.84z M52.43,57.83h-4.97c0.39,1.04,0.81,1.96,1.34,2.93
			c0.57,0.92,1.19,1.7,1.97,2.46c0.35,0.33,0.69,0.61,1.08,0.88c0.18,0.12,0.36,0.22,0.56,0.3L52.43,57.83L52.43,57.83z
			 M50.91,63.74c-0.52-0.49-1-1.03-1.43-1.6c-0.48-0.63-0.92-1.29-1.3-1.98c-0.43-0.76-0.81-1.54-1.14-2.34l-5.81,0.09
			c0.67,0.82,1.34,1.51,2.13,2.2c0.72,0.63,1.44,1.12,2.27,1.58l4.96,2.68c0.43,0.14,0.86,0.18,1.3,0.09
			C51.54,64.26,51.2,64.02,50.91,63.74L50.91,63.74z M52.96,16.23h4.97c-0.37-1.01-0.82-1.99-1.34-2.93
			c-0.27-0.51-0.58-0.99-0.92-1.45c-0.13-0.19-0.29-0.36-0.47-0.5l-2.25,2.87L52.96,16.23z M53.01,64.33
			c0.46-0.25,0.85-0.52,1.25-0.86c0.44-0.37,0.81-0.75,1.18-1.19c1.06-1.29,1.89-2.75,2.46-4.32h-4.93L53.01,64.33L53.01,64.33z
			 M53.56,64.4c0.41,0.09,0.81,0.08,1.22-0.04c0.21-0.05,0.4-0.13,0.6-0.24l4.51-2.48c1.09-0.57,2.09-1.29,2.97-2.16
			c0.49-0.47,0.95-0.98,1.38-1.5l-5.92-0.02c-0.4,0.96-0.82,1.81-1.34,2.72c-0.45,0.79-0.97,1.54-1.56,2.23
			c-0.35,0.42-0.76,0.8-1.21,1.12C53.99,64.17,53.79,64.29,53.56,64.4L53.56,64.4z M55.91,11.67c0.99,1.48,1.76,2.92,2.46,4.56
			l5.81-0.09c-0.64-0.8-1.36-1.53-2.13-2.2c-0.7-0.61-1.46-1.14-2.27-1.58l-3.78-2.04l-0.6,0.74C55.6,11.26,55.76,11.45,55.91,11.67
			z M57.63,63.86c2.96-0.62,5.8-1.74,8.39-3.3c1.43-0.81,2.79-1.75,4.04-2.81l-5.3,0.2c-0.81,1.13-1.77,2.14-2.85,3
			c-0.48,0.38-1,0.72-1.54,1.01l-4.25,2.24C56.65,64.13,57.12,64.02,57.63,63.86L57.63,63.86z M62.5,17.22l-3.76-0.04
			c0.5,1.33,0.89,2.56,1.23,3.93c0.37,1.47,0.65,2.82,0.91,4.32l8.14-0.1c-0.77-2.08-1.73-4.08-2.88-5.97
			c-0.44-0.78-0.93-1.53-1.47-2.24L62.5,17.22L62.5,17.22z M65.27,48.7l-4.43,0.06c-0.41,2.82-1.12,5.59-2.14,8.26h2.75l3.24-0.12
			c1.91-2.46,3.37-5.24,4.31-8.2L65.27,48.7L65.27,48.7L65.27,48.7z M64.8,47.82l4.53-0.09c1.01-3.42,1.51-6.66,1.57-10.22
			l-9.11,0.01c-0.01,3.45-0.28,6.89-0.79,10.3H64.8z M67.07,16.18h2.66c-1.17-0.99-2.43-1.86-3.77-2.6
			c-1.9-1.22-3.97-2.15-6.14-2.77c-1.15-0.36-2.3-0.69-3.47-0.97l-0.12,0.17l4.09,2.16c0.57,0.27,1.05,0.57,1.55,0.95
			c0.54,0.42,1.01,0.84,1.47,1.34c0.51,0.56,0.94,1.09,1.37,1.71L67.07,16.18L67.07,16.18z M67.63,56.99h3.2l0.59-0.54l0.29-0.28
			c1.71-1.69,3.18-3.6,4.39-5.68c0.35-0.59,0.65-1.14,0.96-1.77h-7.48c-0.96,2.98-2.44,5.78-4.35,8.26L67.63,56.99L67.63,56.99
			L67.63,56.99z M74.18,26.25l-4.39-0.04c1.05,3.44,1.57,6.71,1.63,10.31l8.28,0c-0.07-3.56-0.86-7.06-2.31-10.31L74.18,26.25z
			 M72.74,25.26l4.22,0c-0.29-0.6-0.61-1.19-0.95-1.77c-1.19-2.09-2.67-4-4.39-5.68l-0.58-0.55l-0.29-0.27h-5.61
			c1.89,2.5,3.35,5.29,4.35,8.26L72.74,25.26L72.74,25.26z M73.18,47.79h4.29c0.57-1.31,1-2.53,1.38-3.9
			c0.58-2.15,0.87-4.18,0.93-6.4H71.5c-0.03,3.5-0.59,6.97-1.63,10.31L73.18,47.79L73.18,47.79z M61.76,34.15L61.01,34
			c-0.11-2.55-0.37-5.09-0.77-7.6l-6.11,0l-0.22-1l6.29,0.04l-0.33-2c-0.35-1.94-0.82-3.86-1.43-5.73l-0.14-0.44l-0.03-0.09h-5.31
			l0,4.11l-0.04-0.17h-0.47l-0.02,0.09v-4.17l-1.77,0.01l-5.13,6.45c-0.11,0.62-0.2,1.18-0.29,1.8l6.36,0.01l-0.22,1.03l-6.31,0
			c-0.35,2.56-0.57,5.13-0.65,7.72l-0.76,0.14c0.1-2.75,0.33-5.24,0.74-7.96l-0.83,0l-8.2,10.34l4.76-0.03l4.19,0.86
			c0.01,2.05,0.11,4.11,0.31,6.15l-0.18,0.4l0.25,0.26c0.12,1.19,0.27,2.27,0.45,3.45l6.23,0l0.2,1l-6.38-0.04l0.33,2
			c0.36,2,0.8,3.8,1.42,5.74l0.14,0.44l0.03,0.09l5.31,0l0-3.96l0.01,0.06h0.47l0.04-0.21v4.25h5.27c0.9-2.78,1.51-5.37,1.92-8.26
			l-6.41-0.01l0.21-1.03l6.37,0c0.16-1.16,0.28-2.22,0.39-3.4l0.56-0.37l-0.45-1.01c0.13-1.84,0.19-3.52,0.18-5.37l-0.86,0.01
			l4.13-0.9l1.89,0l4.77-0.1c-0.08-3.48-0.64-6.94-1.66-10.27l-8.23,0.07C61.43,29.04,61.66,31.47,61.76,34.15L61.76,34.15z"/>
		<path class="st1" d="M65.07,0l36.29,0.01l-27.2,78.55c-0.31,0.87-1.14,1.45-2.06,1.43H0L61.62,1.67C62.44,0.6,63.72-0.02,65.07,0
			L65.07,0z M25.72,48.4L57.95,7.82l4.66,1.57c1.79,0.58,3.36,1.27,5,2.18c4.58,2.65,8.12,6.17,10.79,10.75
			c0.64,1.09,1.15,2.11,1.64,3.28c0.53,1.28,0.94,2.47,1.31,3.8c3.48,12.77-2.22,26.49-13.73,33.03c-1.55,0.86-3.17,1.6-4.84,2.21
			c-6.52,2.4-13.27,2.4-19.79,0c-1.67-0.6-3.29-1.34-4.84-2.21c-4.58-2.65-8.12-6.18-10.79-10.75
			C26.73,50.62,26.19,49.53,25.72,48.4L25.72,48.4z"/>
	</g>
</g>
</svg>
