<?xml version="1.0" encoding="utf-8"?>
<!-- Generator: Adobe Illustrator 25.4.1, SVG Export Plug-In . SVG Version: 6.00 Build 0)  -->
<svg version="1.1" xmlns="http://www.w3.org/2000/svg" xmlns:xlink="http://www.w3.org/1999/xlink" x="0px" y="0px"
	 viewBox="0 0 353.51 80" style="enable-background:new 0 0 353.51 80;" xml:space="preserve">
<style type="text/css">
	.st0{fill-rule:evenodd;clip-rule:evenodd;fill:#409E54;}
	.st1{fill-rule:evenodd;clip-rule:evenodd;fill:#D06537;}
</style>
<g id="Layer_2">
</g>
<g id="Layer_1">
	<g>
		<path class="st0" d="M0,79.79V50.42h33.62v7.66H12.26v2.91h21.42v7.39h-21.4v3.73h21.32v7.68L0,79.79L0,79.79z M50.4,79.79
			L38.35,50.42h12.84l6.42,17.72l6.76-17.72H77.3L64.76,79.79H50.4L50.4,79.79z M89.76,69.07h7.36l-3.62-9.6L89.76,69.07z
			 M72.58,79.79l13.35-29.38h15.29l12.95,29.38h-13.08l-1.57-4.16H87.27l-1.62,4.16H72.58z M140.97,69.07h7.36l-3.62-9.6
			L140.97,69.07L140.97,69.07z M123.79,79.79l13.35-29.38h15.29l12.95,29.38h-13.08l-1.57-4.16h-12.24l-1.62,4.16H123.79z
			 M173.53,79.79V50.42h12.5v29.38H173.53z M204.82,62.79h7.66c1.07-0.01,2.04-0.33,2.76-0.92c0.72-0.59,1.06-1.34,0.98-2.13
			c-0.08-0.71-0.49-1.34-1.2-1.83c-0.76-0.5-1.65-0.75-2.55-0.73h-7.65L204.82,62.79L204.82,62.79L204.82,62.79z M204.74,79.79
			h-12.21V50.42h23.74c2.72-0.01,5.19,0.51,7.51,1.56c2.59,1.15,4.28,3.04,4.69,5.26c0.54,2.58-0.52,5.1-2.93,6.99
			c-1.12,0.88-2.45,1.46-4.02,1.74c2.75,0.49,4.87,2.09,5.5,4.14c0.21,0.74,0.35,1.42,0.43,2.17c0.21,2.05,0.43,3.91,0.7,5.96
			c0.07,0.59,0.38,1.11,0.91,1.55h-12.25c-0.51-0.56-0.85-1.27-0.96-2.02c-0.28-1.82-0.51-3.64-0.69-5.47
			c-0.08-0.76-0.51-1.43-1.25-1.96c-0.75-0.52-1.67-0.8-2.7-0.82l-6.47-0.01L204.74,79.79L204.74,79.79L204.74,79.79z"/>
		<path class="st1" d="M348.23,0.16h5.28L325.72,80H320C328.51,53.08,337.92,26.45,348.23,0.16L348.23,0.16z"/>
		<path class="st0" d="M296.65,21.34l2.26,9.84l4.9-2.99l0.35,0.25l-1.92,5.27l8.06,1.66l-0.04,1.04l-7.98,1.75l2.73,6.02
			l-0.79,0.52l-5.38-2.72l-2.18,11.23h-0.47l-2.25-11.23l-5.14,2.84l-0.61-0.64l2.7-5.98l-8.76-1.79l-0.14-1l8.84-1.62l-2.06-5.15
			l0.34-0.31l5.09,2.84l2-9.84L296.65,21.34L296.65,21.34z"/>
		<path class="st1" d="M268.74,47.73l32.23-40.58l5.08,2.3c1.79,0.58,3.36,1.27,5.01,2.18c4.49,2.56,8.21,6.27,10.78,10.75
			c0.64,1.09,1.16,2.11,1.64,3.28c0.53,1.28,0.94,2.47,1.31,3.8c3.48,12.77-2.22,26.49-13.73,33.03c-1.6,0.89-3.12,1.58-4.84,2.21
			c-6.52,2.41-13.27,2.41-19.79,0c-1.67-0.6-3.29-1.34-4.84-2.21c-4.58-2.65-8.12-6.17-10.79-10.75
			C270.03,50.44,269.35,49.1,268.74,47.73L268.74,47.73z M276.28,48.79l-4.22,0c0.3,0.62,0.6,1.17,0.95,1.77
			c1.19,2.09,2.67,4,4.39,5.68l0.58,0.55l0.29,0.27h5.62c-1.89-2.5-3.36-5.29-4.35-8.26L276.28,48.79L276.28,48.79z M274.85,47.81
			l4.39,0.04c-0.97-3.14-1.52-6.4-1.62-9.69l-6.57,8.29c0.2,0.48,0.38,0.92,0.59,1.4L274.85,47.81L274.85,47.81z M282.87,37.38
			l-4.77,0.1c0.1,3.58,0.63,6.83,1.66,10.27l8.23-0.07c-0.51-3.41-0.78-6.86-0.79-10.3L282.87,37.38z M281.96,57.88h-2.66
			c1.21,1.01,2.4,1.83,3.77,2.6c1.9,1.22,3.97,2.15,6.14,2.77c1.47,0.46,2.82,0.84,4.31,1.2l-4.81-2.56
			c-0.55-0.26-1.07-0.58-1.55-0.95c-0.54-0.42-1.01-0.84-1.47-1.34c-0.5-0.54-0.96-1.11-1.37-1.71H281.96z M286.52,56.84l3.76,0.04
			c-0.49-1.29-0.9-2.6-1.23-3.93c-0.36-1.43-0.67-2.87-0.91-4.32l-8.14,0.1c0.77,2.08,1.73,4.08,2.88,5.98
			c0.46,0.8,0.92,1.5,1.47,2.24L286.52,56.84L286.52,56.84z M296.06,57.83h-4.97c0.39,1.04,0.81,1.96,1.34,2.93
			c0.57,0.92,1.19,1.7,1.97,2.46c0.35,0.33,0.69,0.61,1.08,0.88c0.18,0.12,0.36,0.22,0.56,0.3L296.06,57.83L296.06,57.83z
			 M294.54,63.74c-0.52-0.49-1-1.03-1.43-1.6c-0.48-0.63-0.92-1.29-1.3-1.98c-0.43-0.76-0.81-1.54-1.14-2.34l-5.81,0.09
			c0.67,0.82,1.34,1.51,2.13,2.2c0.72,0.63,1.44,1.12,2.27,1.58l4.96,2.68c0.43,0.14,0.86,0.18,1.3,0.09
			C295.16,64.26,294.83,64.02,294.54,63.74L294.54,63.74z M296.59,16.23h4.97c-0.37-1.01-0.82-1.99-1.34-2.93
			c-0.27-0.51-0.58-0.99-0.92-1.45c-0.13-0.19-0.29-0.36-0.47-0.5l-2.25,2.87L296.59,16.23z M296.63,64.33
			c0.46-0.25,0.85-0.52,1.25-0.86c0.44-0.37,0.81-0.75,1.18-1.19c1.06-1.29,1.89-2.75,2.46-4.32h-4.93L296.63,64.33L296.63,64.33z
			 M297.19,64.4c0.41,0.09,0.81,0.08,1.22-0.04c0.21-0.05,0.4-0.13,0.6-0.24l4.51-2.48c1.09-0.57,2.09-1.29,2.97-2.16
			c0.49-0.47,0.95-0.98,1.38-1.5l-5.92-0.02c-0.4,0.96-0.82,1.81-1.34,2.72c-0.45,0.79-0.97,1.54-1.56,2.23
			c-0.35,0.42-0.76,0.8-1.21,1.12C297.62,64.17,297.42,64.29,297.19,64.4L297.19,64.4z M299.54,11.67c0.99,1.48,1.76,2.92,2.46,4.56
			l5.81-0.09c-0.64-0.8-1.36-1.53-2.13-2.2c-0.7-0.61-1.46-1.14-2.27-1.58l-3.78-2.04l-0.6,0.74
			C299.22,11.26,299.39,11.45,299.54,11.67z M301.25,63.86c2.96-0.62,5.8-1.74,8.39-3.3c1.43-0.81,2.79-1.75,4.04-2.81l-5.3,0.2
			c-0.81,1.13-1.77,2.14-2.85,3c-0.48,0.38-1,0.72-1.54,1.01l-4.25,2.24C300.27,64.13,300.74,64.02,301.25,63.86L301.25,63.86z
			 M306.12,17.22l-3.76-0.04c0.5,1.33,0.89,2.56,1.23,3.93c0.37,1.47,0.65,2.82,0.91,4.32l8.14-0.1c-0.77-2.08-1.73-4.08-2.88-5.97
			c-0.44-0.78-0.93-1.53-1.47-2.24L306.12,17.22L306.12,17.22z M308.89,48.7l-4.43,0.06c-0.41,2.82-1.12,5.59-2.14,8.26h2.75
			l3.24-0.12c1.91-2.46,3.37-5.24,4.31-8.2L308.89,48.7L308.89,48.7L308.89,48.7z M308.43,47.82l4.53-0.09
			c1.01-3.42,1.51-6.66,1.57-10.22l-9.11,0.01c-0.01,3.45-0.28,6.89-0.79,10.3H308.43z M310.69,16.18h2.66
			c-1.17-0.99-2.43-1.86-3.77-2.6c-1.9-1.22-3.97-2.15-6.14-2.77c-1.15-0.36-2.3-0.69-3.47-0.97l-0.12,0.17l4.09,2.16
			c0.57,0.27,1.05,0.57,1.55,0.95c0.54,0.42,1.01,0.84,1.47,1.34c0.51,0.56,0.94,1.09,1.37,1.71L310.69,16.18L310.69,16.18z
			 M311.26,56.99h3.2l0.59-0.54l0.29-0.28c1.71-1.69,3.18-3.6,4.39-5.68c0.35-0.59,0.65-1.14,0.96-1.77h-7.48
			c-0.96,2.98-2.44,5.78-4.35,8.26L311.26,56.99L311.26,56.99L311.26,56.99z M317.8,26.25l-4.39-0.04
			c1.05,3.44,1.57,6.71,1.63,10.31l8.28,0c-0.07-3.56-0.86-7.06-2.31-10.31L317.8,26.25z M316.37,25.26l4.22,0
			c-0.29-0.6-0.61-1.19-0.95-1.77c-1.19-2.09-2.67-4-4.39-5.68l-0.58-0.55l-0.29-0.27h-5.61c1.89,2.5,3.35,5.29,4.35,8.26
			L316.37,25.26L316.37,25.26z M316.81,47.79h4.29c0.57-1.31,1-2.53,1.38-3.9c0.58-2.15,0.87-4.18,0.93-6.4h-8.28
			c-0.03,3.5-0.59,6.97-1.63,10.31L316.81,47.79L316.81,47.79z M305.39,34.15L304.64,34c-0.11-2.55-0.37-5.09-0.77-7.6l-6.11,0
			l-0.22-1l6.29,0.04l-0.33-2c-0.35-1.94-0.82-3.86-1.43-5.73l-0.14-0.44l-0.03-0.09h-5.31l0,4.11l-0.04-0.17h-0.47l-0.02,0.09
			v-4.17l-1.77,0.01l-5.13,6.45c-0.11,0.62-0.2,1.18-0.29,1.8l6.36,0.01L295,26.33l-6.31,0c-0.35,2.56-0.57,5.13-0.65,7.72
			l-0.76,0.14c0.1-2.75,0.33-5.24,0.74-7.96l-0.83,0l-8.2,10.34l4.76-0.03l4.19,0.86c0.01,2.05,0.11,4.11,0.31,6.15l-0.18,0.4
			l0.25,0.26c0.12,1.19,0.27,2.27,0.45,3.45l6.23,0l0.2,1l-6.38-0.04l0.33,2c0.36,2,0.8,3.8,1.42,5.74l0.14,0.44l0.03,0.09l5.31,0
			l0-3.96l0.01,0.06h0.47l0.04-0.21v4.25h5.27c0.9-2.78,1.51-5.37,1.92-8.26l-6.41-0.01l0.21-1.03l6.37,0
			c0.16-1.16,0.28-2.22,0.39-3.4l0.56-0.37l-0.45-1.01c0.13-1.84,0.19-3.52,0.18-5.37l-0.86,0.01l4.13-0.9l1.89,0l4.77-0.1
			c-0.08-3.48-0.64-6.94-1.66-10.27l-8.23,0.07C305.06,29.04,305.29,31.47,305.39,34.15L305.39,34.15z"/>
		<path class="st0" d="M308.7,0l36.29,0.01l-27.2,78.55c-0.31,0.87-1.14,1.45-2.06,1.43h-72.09l61.62-78.33
			C306.07,0.6,307.35-0.02,308.7,0L308.7,0z M269.35,48.4l32.23-40.58l4.66,1.57c1.79,0.58,3.36,1.27,5,2.18
			c4.58,2.65,8.12,6.17,10.79,10.75c0.64,1.09,1.15,2.11,1.64,3.28c0.53,1.28,0.94,2.47,1.31,3.8c3.48,12.77-2.22,26.49-13.73,33.03
			c-1.55,0.86-3.17,1.6-4.84,2.21c-6.52,2.4-13.27,2.4-19.79,0c-1.67-0.6-3.29-1.34-4.84-2.21c-4.58-2.65-8.12-6.18-10.79-10.75
			C270.36,50.62,269.81,49.53,269.35,48.4L269.35,48.4z"/>
	</g>
</g>
</svg>
