<?xml version="1.0" encoding="utf-8"?>
<!-- Generator: Adobe Illustrator 25.4.1, SVG Export Plug-In . SVG Version: 6.00 Build 0)  -->
<svg version="1.1" id="Layer_4" xmlns="http://www.w3.org/2000/svg" xmlns:xlink="http://www.w3.org/1999/xlink" x="0px" y="0px"
	 viewBox="0 0 224.79 80.27" style="enable-background:new 0 0 224.79 80.27;" xml:space="preserve">
<style type="text/css">
	.st0{fill:#25338B;}
	.st1{fill:#139E41;}
	.st2{fill:#C82323;}
	.st3{fill:#FFFFFF;}
</style>
<g>
	<path class="st0" d="M117.07,20.93c-11.2-11.17-91.19-1.59-91.19-1.59C102.86-8.85,224.79,2.09,224.79,2.09C124.84,69.06,0,80,0,80
		s22.45-6.75,59.55-24.68C59.55,55.32,112.37,30.39,117.07,20.93z"/>
	<path class="st1" d="M106.38,23.2C96.73,41.74,2.01,78.55,0.53,79.12C68.31,45.04,64.69,34.7,64.69,34.7
		c0.03-0.23,0.04-0.47,0.04-0.69C54.27,23.35,25.09,21.83,25.09,21.83s82.31-8.21,81.85,0C106.94,21.83,107.17,22.16,106.38,23.2z"
		/>
	<path class="st2" d="M41.53,48.6c-9.57,2-18.25-0.78-19.38-6.2c-0.12-0.58-0.15-1.17-0.09-1.76v0.05
		c0.1-4.47,6.71-9.31,15.58-11.16c9.54-1.99,18.08,0.23,19.06,4.96c0.05,0.22,0.07,0.44,0.08,0.66c0-0.04,0-0.08,0-0.13
		c0.01,0.05,0.02,0.1,0.04,0.15C57.95,40.59,51.1,46.6,41.53,48.6z"/>
	<g>
		<polygon class="st3" points="129.3,36.05 127.54,34.71 125.52,35.62 126.25,33.53 124.77,31.89 126.98,31.94 128.08,30.02 
			128.72,32.14 130.88,32.59 129.07,33.85 		"/>
		<polygon class="st3" points="110.68,11.13 108.92,9.79 106.9,10.69 107.62,8.61 106.14,6.97 108.35,7.01 109.46,5.09 110.1,7.21 
			112.26,7.67 110.44,8.93 		"/>
		<polygon class="st3" points="98.45,46.71 96.69,45.37 94.67,46.27 95.39,44.18 93.91,42.54 96.12,42.59 97.23,40.67 97.87,42.79 
			100.03,43.25 98.21,44.51 		"/>
		<polygon class="st3" points="133.82,19.97 132.27,18.51 130.25,19.16 131.16,17.24 129.91,15.52 132.02,15.79 133.27,14.07 
			133.66,16.16 135.69,16.82 133.82,17.84 		"/>
		<polygon class="st3" points="142.75,8.79 141.04,7.52 139.11,8.41 139.79,6.4 138.34,4.84 140.47,4.86 141.51,3 142.15,5.03 
			144.23,5.45 142.5,6.68 		"/>
		<polygon class="st3" points="172.95,20.65 171.24,19.38 169.31,20.27 169.99,18.26 168.55,16.69 170.68,16.72 171.72,14.86 
			172.35,16.89 174.44,17.31 172.7,18.54 		"/>
		<polygon class="st3" points="153.16,27.76 151.63,26.29 149.6,26.93 150.52,25.02 149.29,23.29 151.39,23.57 152.66,21.86 
			153.03,23.96 155.05,24.63 153.18,25.63 		"/>
		<polygon class="st3" points="168.26,8.85 166.73,7.38 164.7,8.02 165.62,6.1 164.39,4.37 166.49,4.66 167.76,2.95 168.14,5.04 
			170.15,5.71 168.28,6.72 		"/>
		<polygon class="st3" points="196.2,9.51 194.67,8.04 192.64,8.68 193.56,6.76 192.33,5.03 194.43,5.32 195.7,3.61 196.08,5.7 
			198.09,6.37 196.22,7.38 		"/>
	</g>
</g>
</svg>
