<?xml version="1.0" encoding="utf-8"?>
<!-- Generator: Adobe Illustrator 25.4.1, SVG Export Plug-In . SVG Version: 6.00 Build 0)  -->
<svg version="1.1" id="Layer_4" xmlns="http://www.w3.org/2000/svg" xmlns:xlink="http://www.w3.org/1999/xlink" x="0px" y="0px"
	 viewBox="0 0 181.59 80.27" style="enable-background:new 0 0 181.59 80.27;" xml:space="preserve">
<style type="text/css">
	.st0{fill:#25338B;}
	.st1{fill:#139E41;}
	.st2{fill:#C82323;}
	.st3{fill:#414141;}
	.st4{fill:#FFFFFF;}
</style>
<path class="st0" d="M86.06,12.55c-6.71-6.69-54.66-0.95-54.66-0.95C77.54-5.3,150.63,1.25,150.63,1.25
	C90.72,41.39,15.88,47.95,15.88,47.95s13.46-4.05,35.7-14.79C51.58,33.16,83.24,18.21,86.06,12.55z"/>
<path class="st1" d="M79.65,13.91C73.87,25.02,17.09,47.08,16.2,47.43C56.83,26.99,54.66,20.8,54.66,20.8
	c0.02-0.14,0.02-0.28,0.02-0.42c-6.27-6.39-23.76-7.3-23.76-7.3s49.34-4.92,49.07,0C79.99,13.09,80.13,13.29,79.65,13.91z"/>
<path class="st2" d="M40.78,29.13c-5.74,1.2-10.94-0.47-11.62-3.71c-0.07-0.35-0.09-0.7-0.05-1.06v0.03
	c0.06-2.68,4.02-5.58,9.34-6.69c5.72-1.19,10.84,0.14,11.43,2.98c0.03,0.13,0.04,0.26,0.05,0.4c0-0.03,0-0.05,0-0.08
	c0.01,0.03,0.01,0.06,0.02,0.09C50.62,24.33,46.52,27.93,40.78,29.13z"/>
<g>
	<path class="st3" d="M118.43,72.98l-0.25,1.16h-2.49l-0.21,0.97h2.43l-0.24,1.1h-2.44l-0.44,2.2h-1.68l1.16-5.43H118.43z"/>
	<path class="st3" d="M120.87,72.98l-1.16,5.43h-1.51l1.16-5.43H120.87z"/>
	<path class="st3" d="M125.66,74.48l-2.49,4.43c-0.24,0.43-0.48,0.72-0.7,0.87c-0.22,0.15-0.5,0.22-0.82,0.22
		c-0.38,0-0.74-0.05-1.11-0.15l0.12-1.01c0.16,0.06,0.32,0.1,0.49,0.1c0.29,0,0.53-0.17,0.7-0.52l-0.76-3.93h1.49l0.21,2.73h0.01
		l1.34-2.73H125.66z"/>
	<path class="st3" d="M133.32,72.98l-0.25,1.16h-2.49l-0.21,0.97h2.43l-0.24,1.1h-2.44l-0.44,2.2H128l1.16-5.43H133.32z"/>
	<path class="st3" d="M133.48,75.56c0.09-0.37,0.3-0.66,0.62-0.86c0.32-0.2,0.83-0.3,1.51-0.3c0.77,0,1.29,0.1,1.56,0.29
		c0.27,0.19,0.41,0.48,0.41,0.85c0,0.25-0.07,0.65-0.2,1.22c-0.13,0.54-0.19,0.91-0.19,1.12c0,0.18,0.03,0.36,0.1,0.54h-1.47
		c-0.03-0.16-0.05-0.3-0.05-0.45c-0.4,0.36-0.84,0.54-1.32,0.54c-0.5,0-0.85-0.12-1.07-0.35c-0.22-0.23-0.33-0.5-0.33-0.81
		c0-0.35,0.1-0.61,0.29-0.8c0.19-0.18,0.43-0.31,0.72-0.37c0.28-0.07,0.67-0.12,1.16-0.17c0.44-0.05,0.73-0.09,0.87-0.14
		c0.03-0.12,0.04-0.2,0.04-0.27c0-0.1-0.05-0.18-0.15-0.24c-0.1-0.06-0.23-0.09-0.4-0.09c-0.17,0-0.31,0.03-0.42,0.08
		c-0.11,0.06-0.2,0.17-0.28,0.35L133.48,75.56z M135.93,76.65c-0.69,0.12-1.1,0.22-1.22,0.31c-0.12,0.09-0.18,0.19-0.18,0.31
		c0,0.13,0.04,0.23,0.13,0.3c0.09,0.07,0.2,0.11,0.33,0.11c0.19,0,0.38-0.08,0.56-0.23C135.74,77.29,135.86,77.03,135.93,76.65z"/>
	<path class="st3" d="M142.34,75.42l-1.41,0.15c-0.04-0.24-0.22-0.36-0.53-0.36c-0.18,0-0.32,0.03-0.41,0.1
		c-0.09,0.07-0.14,0.14-0.14,0.23c0,0.09,0.04,0.17,0.12,0.23c0.08,0.06,0.3,0.12,0.66,0.17c0.58,0.09,0.97,0.22,1.16,0.39
		c0.19,0.17,0.29,0.41,0.29,0.7c0,0.4-0.19,0.75-0.56,1.04c-0.38,0.29-0.95,0.43-1.71,0.43c-0.63,0-1.09-0.09-1.38-0.27
		c-0.29-0.18-0.46-0.48-0.51-0.9l1.49-0.13c0.06,0.32,0.27,0.48,0.63,0.48c0.17,0,0.31-0.04,0.44-0.11
		c0.13-0.07,0.19-0.17,0.19-0.31c0-0.12-0.05-0.2-0.14-0.24s-0.26-0.08-0.52-0.12c-0.59-0.09-0.98-0.23-1.19-0.41
		c-0.21-0.19-0.31-0.42-0.31-0.7c0-0.23,0.08-0.45,0.23-0.67c0.16-0.22,0.39-0.39,0.71-0.52c0.31-0.13,0.7-0.19,1.16-0.19
		c0.53,0,0.93,0.08,1.21,0.23C142.09,74.77,142.27,75.04,142.34,75.42z"/>
	<path class="st3" d="M145.96,74.48l-0.23,1.08h-0.79l-0.29,1.39c-0.02,0.06-0.03,0.12-0.03,0.19c0,0.18,0.12,0.27,0.35,0.27
		c0.07,0,0.23-0.02,0.47-0.07l-0.23,1.08c-0.45,0.06-0.79,0.09-1,0.09c-0.42,0-0.72-0.1-0.9-0.3c-0.18-0.2-0.26-0.42-0.26-0.66
		c0-0.08,0.04-0.29,0.11-0.63l0.28-1.34h-0.54l0.22-1.08h0.55l0.13-0.61l1.69-0.84l-0.31,1.46H145.96z"/>
	<path class="st3" d="M148.39,75.84L148.13,77h-2.19l0.25-1.16H148.39z"/>
	<path class="st3" d="M153.89,72.98l-0.25,1.16h-2.49l-0.21,0.97h2.43l-0.24,1.1h-2.44l-0.44,2.2h-1.68l1.16-5.43H153.89z"/>
	<path class="st3" d="M156.33,72.98l-1.16,5.43h-1.51l1.16-5.43H156.33z"/>
	<path class="st3" d="M161.12,74.48l-2.49,4.43c-0.24,0.43-0.48,0.72-0.7,0.87c-0.22,0.15-0.5,0.22-0.82,0.22
		c-0.38,0-0.74-0.05-1.11-0.15l0.12-1.01c0.16,0.06,0.32,0.1,0.49,0.1c0.29,0,0.53-0.17,0.7-0.52l-0.76-3.93h1.49l0.21,2.73h0.01
		l1.34-2.73H161.12z"/>
	<path class="st3" d="M168.84,74.49l-1.57,0.09c-0.03-0.47-0.3-0.71-0.79-0.71c-0.2,0-0.35,0.04-0.46,0.13
		c-0.11,0.09-0.16,0.19-0.16,0.31c0,0.09,0.04,0.17,0.13,0.25c0.09,0.08,0.29,0.18,0.61,0.3c0.41,0.16,0.74,0.31,1,0.45
		c0.26,0.14,0.47,0.32,0.63,0.55c0.16,0.22,0.24,0.5,0.24,0.84c0,0.32-0.09,0.61-0.26,0.88c-0.18,0.27-0.43,0.5-0.76,0.67
		c-0.33,0.18-0.8,0.26-1.42,0.26c-0.86,0-1.47-0.17-1.83-0.5c-0.36-0.33-0.54-0.76-0.54-1.27V76.6l1.58-0.11
		c0,0.34,0.07,0.58,0.22,0.72c0.15,0.14,0.36,0.21,0.62,0.21c0.27,0,0.47-0.06,0.61-0.17c0.14-0.12,0.21-0.25,0.21-0.4
		c0-0.11-0.04-0.21-0.13-0.31c-0.09-0.09-0.31-0.2-0.66-0.33c-0.8-0.29-1.3-0.55-1.51-0.79c-0.21-0.24-0.32-0.53-0.32-0.87
		c0-0.31,0.09-0.59,0.26-0.85c0.17-0.26,0.43-0.46,0.76-0.6c0.33-0.14,0.73-0.21,1.19-0.21C167.97,72.89,168.75,73.42,168.84,74.49z
		"/>
	<path class="st3" d="M169.44,75.56c0.09-0.37,0.3-0.66,0.62-0.86c0.32-0.2,0.83-0.3,1.51-0.3c0.77,0,1.29,0.1,1.56,0.29
		c0.27,0.19,0.41,0.48,0.41,0.85c0,0.25-0.07,0.65-0.2,1.22c-0.13,0.54-0.19,0.91-0.19,1.12c0,0.18,0.03,0.36,0.1,0.54h-1.47
		c-0.03-0.16-0.05-0.3-0.05-0.45c-0.4,0.36-0.84,0.54-1.32,0.54c-0.5,0-0.85-0.12-1.07-0.35c-0.22-0.23-0.33-0.5-0.33-0.81
		c0-0.35,0.1-0.61,0.29-0.8c0.19-0.18,0.43-0.31,0.72-0.37c0.28-0.07,0.67-0.12,1.16-0.17c0.44-0.05,0.73-0.09,0.87-0.14
		c0.03-0.12,0.04-0.2,0.04-0.27c0-0.1-0.05-0.18-0.15-0.24c-0.1-0.06-0.23-0.09-0.4-0.09c-0.17,0-0.31,0.03-0.42,0.08
		c-0.11,0.06-0.2,0.17-0.28,0.35L169.44,75.56z M171.88,76.65c-0.69,0.12-1.1,0.22-1.22,0.31c-0.12,0.09-0.18,0.19-0.18,0.31
		c0,0.13,0.04,0.23,0.13,0.3c0.09,0.07,0.2,0.11,0.33,0.11c0.19,0,0.38-0.08,0.56-0.23C171.69,77.29,171.82,77.03,171.88,76.65z"/>
	<path class="st3" d="M177.66,73.05l-0.24,0.9c-0.2-0.07-0.38-0.1-0.53-0.1c-0.11,0-0.2,0.03-0.27,0.08
		c-0.07,0.05-0.14,0.24-0.2,0.55h0.71l-0.23,1.08h-0.71l-0.6,2.85h-1.52l0.61-2.85h-0.56l0.23-1.08h0.56
		c0.09-0.46,0.16-0.75,0.21-0.89c0.05-0.14,0.13-0.26,0.24-0.37c0.11-0.11,0.25-0.2,0.41-0.25c0.17-0.05,0.37-0.08,0.6-0.08
		C176.74,72.89,177.16,72.94,177.66,73.05z"/>
	<path class="st3" d="M181.35,77.4c-0.22,0.39-0.51,0.67-0.86,0.84c-0.35,0.17-0.8,0.26-1.33,0.26c-0.78,0-1.33-0.17-1.65-0.52
		c-0.33-0.35-0.49-0.78-0.49-1.28c0-0.35,0.08-0.68,0.23-0.99c0.15-0.31,0.36-0.57,0.62-0.78c0.26-0.21,0.52-0.35,0.77-0.42
		c0.25-0.07,0.55-0.11,0.89-0.11c0.73,0,1.26,0.16,1.58,0.48c0.32,0.32,0.48,0.71,0.48,1.17c0,0.15-0.03,0.42-0.1,0.79h-3
		c0.04,0.53,0.28,0.79,0.71,0.79c0.29,0,0.52-0.12,0.7-0.36L181.35,77.4z M180.1,76.1c0.02-0.05,0.03-0.13,0.03-0.23
		c0-0.2-0.06-0.35-0.18-0.45c-0.12-0.1-0.27-0.15-0.44-0.15c-0.19,0-0.36,0.07-0.51,0.21c-0.16,0.14-0.27,0.35-0.36,0.62H180.1z"/>
</g>
<path class="st2" d="M1.07,68.54h7.2c0,0,1.52-0.45,2.22-2.3l1.84-6.83H8l-1.79,6.59c0,0-0.28,0.87-1.03,0.78
	c0,0-0.95-0.05-0.76-1.06l1.67-6.32h-4.1l-1.95,6.83C0.04,66.25-0.3,67.79,1.07,68.54z"/>
<path class="st0" d="M124.95,68.54l0.46-1.85l0.82,1.85h5.45l-1.16-2.91c2.41-1.96,2.26-4.22,2.26-4.22c0.06-1.25-0.35-1.78-0.71-2
	h-8.99l-2.45,9.13H124.95z M126.73,61.82h0.98c1.18,0.51-0.19,1.74-0.19,1.74h-1.22L126.73,61.82z"/>
<polygon class="st0" points="141.12,68.54 141.89,65.92 138.08,65.92 139.92,59.41 135.65,59.41 133.21,68.54 "/>
<polygon class="st0" points="119,68.54 121.46,59.41 117.41,59.41 115,68.54 "/>
<polygon class="st0" points="152.29,68.54 153.19,65.31 154.03,68.54 158.37,68.54 160.83,59.41 156.44,59.41 155.57,62.81 
	154.78,59.41 150.83,59.41 148.38,68.54 "/>
<path class="st0" d="M170.92,64.71h5.61c0,0-0.24,2-1.48,2.07c0,0-0.83,0.15-0.78-0.96h-4.37c0,0-0.31,2.02,1.09,2.72h7.16
	c0,0,1.52-0.52,2.09-2.07l0.67-2.53c0,0,0.26-0.92-0.43-0.95h-5.55c0,0,0.06-1.67,1.43-1.81c0,0,0.85,0.04,0.8,0.98h4.22
	c0,0,0.35-1.89-0.79-2.75h-7.36c-0.43,0.21-1.64,0.91-2.21,2.5l-0.52,2.28C170.49,64.19,170.42,64.73,170.92,64.71z"/>
<polygon class="st0" points="167.82,68.54 168.51,65.99 164.78,65.99 164.95,65.2 168.73,65.2 169.35,62.95 165.6,62.95 
	165.76,62.16 169.56,62.16 170.31,59.41 162.26,59.41 159.88,68.54 "/>
<polygon class="st0" points="146.75,68.54 149.21,59.41 145.16,59.41 142.75,68.54 "/>
<path class="st2" d="M13.02,64.71h5.61c0,0-0.24,2-1.48,2.07c0,0-0.83,0.15-0.78-0.96h-4.37c0,0-0.31,2.02,1.09,2.72h7.16
	c0,0,1.52-0.52,2.09-2.07l0.67-2.53c0,0,0.26-0.92-0.43-0.95h-5.55c0,0,0.06-1.67,1.43-1.81c0,0,0.85,0.04,0.8,0.98h4.22
	c0,0,0.35-1.89-0.79-2.75h-7.36c-0.43,0.21-1.64,0.91-2.21,2.5l-0.52,2.28C12.6,64.19,12.52,64.73,13.02,64.71z"/>
<polygon class="st2" points="55.87,68.54 56.77,65.31 57.62,68.54 61.95,68.54 64.42,59.41 60.03,59.41 59.16,62.81 58.37,59.41 
	54.41,59.41 51.97,68.54 "/>
<path class="st2" d="M64.83,68.54h9.66v-2.54l0.47-1.84h-5.05l-0.56,2.01h0.64c0,0-0.22,0.6-0.85,0.63c0,0-0.96,0.02-0.79-1.21
	l0.95-3.56c0,0,0.28-0.81,1.22-0.83c0,0,0.65,0,0.68,0.76l-0.24,0.85h4.33l0.26-0.85c0,0,0.56-1.79-1.03-2.54h-7.2
	c-0.44,0.15-1.33,0.62-1.93,2.04l-1.33,4.8C64.07,66.26,63.78,67.72,64.83,68.54z"/>
<path class="st2" d="M37.15,68.54c0.37,0,0.8-0.43,1.02-0.67c0.93-1.01,1.36-2.57,1.23-3.93c0,0,2.05-2.91,0.15-4.53h-8.95
	l-2.41,9.13C28.18,68.54,37.14,68.54,37.15,68.54z M34.31,61.66h0.98c1.18,0.51-0.19,1.74-0.19,1.74h-1.22L34.31,61.66z
	 M33.56,64.52h1.01c1.22,0.53-0.19,1.79-0.19,1.79h-1.26L33.56,64.52z"/>
<path class="st2" d="M44.27,68.54l0.84-3.19H47l-0.82,3.19h4.26l1.79-6.83c0,0,0.34-1.54-1.03-2.3h-7.2c0,0-1.41,0.49-2.11,2.34
	l-1.79,6.79H44.27z M46.01,61.95c0,0,0.28-0.87,1.03-0.78c0,0,0.95,0.05,0.76,1.06l-0.19,0.75h-1.87L46.01,61.95z"/>
<polygon class="st2" points="28.18,63.23 24.64,63.23 24.03,65.52 27.59,65.52 "/>
<path class="st0" d="M107.25,68.54l0.84-3.19h1.89l-0.82,3.19h4.26l1.79-6.83c0,0,0.34-1.54-1.03-2.3h-7.2c0,0-1.41,0.49-2.11,2.34
	l-1.79,6.79H107.25z M108.99,61.95c0,0,0.28-0.87,1.03-0.78c0,0,0.95,0.05,0.76,1.06l-0.19,0.75h-1.87L108.99,61.95z"/>
<polygon class="st2" points="83.93,68.54 84.71,65.92 80.89,65.92 82.74,59.41 78.47,59.41 76.02,68.54 "/>
<path class="st2" d="M89.73,68.54l0.84-3.19h1.89l-0.82,3.19h4.26l1.79-6.83c0,0,0.34-1.54-1.03-2.3h-7.2c0,0-1.41,0.49-2.11,2.34
	l-1.79,6.79H89.73z M91.47,61.95c0,0,0.28-0.87,1.03-0.78c0,0,0.95,0.05,0.76,1.06l-0.19,0.75h-1.87L91.47,61.95z"/>
<g>
	<polygon class="st4" points="93.39,21.61 92.33,20.81 91.13,21.35 91.56,20.1 90.67,19.11 92,19.14 92.66,17.99 93.04,19.26 
		94.34,19.54 93.25,20.29 	"/>
	<polygon class="st4" points="82.23,6.67 81.17,5.87 79.96,6.41 80.4,5.16 79.51,4.18 80.83,4.2 81.5,3.05 81.88,4.32 83.17,4.6 
		82.09,5.35 	"/>
	<polygon class="st4" points="74.9,28 73.84,27.2 72.63,27.74 73.07,26.49 72.18,25.5 73.5,25.53 74.16,24.38 74.55,25.65 
		75.84,25.92 74.76,26.68 	"/>
	<polygon class="st4" points="96.1,11.97 95.17,11.09 93.96,11.49 94.5,10.33 93.76,9.3 95.02,9.47 95.77,8.44 96.01,9.69 
		97.22,10.08 96.1,10.69 	"/>
	<polygon class="st4" points="101.45,5.27 100.43,4.51 99.27,5.04 99.68,3.83 98.81,2.9 100.09,2.91 100.71,1.8 101.09,3.02 
		102.34,3.27 101.3,4 	"/>
	<polygon class="st4" points="119.56,12.38 118.53,11.62 117.37,12.15 117.78,10.94 116.92,10.01 118.19,10.02 118.81,8.91 
		119.2,10.13 120.45,10.37 119.41,11.11 	"/>
	<polygon class="st4" points="107.69,16.64 106.77,15.76 105.56,16.14 106.11,15 105.37,13.96 106.63,14.13 107.39,13.1 
		107.62,14.36 108.83,14.76 107.7,15.37 	"/>
	<polygon class="st4" points="116.75,5.3 115.83,4.42 114.61,4.81 115.16,3.66 114.42,2.62 115.69,2.79 116.44,1.77 116.67,3.02 
		117.88,3.42 116.76,4.03 	"/>
	<polygon class="st4" points="133.49,5.7 132.57,4.82 131.36,5.2 131.91,4.05 131.17,3.02 132.43,3.19 133.19,2.16 133.42,3.42 
		134.63,3.82 133.5,4.42 	"/>
</g>
</svg>
