<?xml version="1.0" encoding="utf-8"?>
<!-- Generator: Adobe Illustrator 25.4.1, SVG Export Plug-In . SVG Version: 6.00 Build 0)  -->
<svg version="1.1" xmlns="http://www.w3.org/2000/svg" xmlns:xlink="http://www.w3.org/1999/xlink" x="0px" y="0px"
	 viewBox="0 0 350.62 80" style="enable-background:new 0 0 350.62 80;" xml:space="preserve">
<style type="text/css">
	.st0{fill:#152649;}
</style>
<g id="Layer_2">
</g>
<g id="Layer_1">
	<g transform="translate(0 -.003)">
		<path class="st0" d="M54.59,14.22V0.2h14.03v14.03L54.59,14.22z M54.59,78.86V19.72h14.03v59.14L54.59,78.86z M88.52,78.86H74.49
			V19.72h13.65v10.99c4.36-6.45,10.61-12.13,19.14-12.13c1.52,0,2.46,0.19,3.22,0.38v13.27c-1.14-0.19-3.22-0.19-4.17-0.19
			c-6.45,0-18.01,6.07-18.01,17.82v29L88.52,78.86z M114.49,78.86V0.2h25.21c6.63,0,29.19,0,29.19,19.14
			c0,13.27-10.23,16.68-15.54,18.58c6.07,1.52,17.44,4.74,17.44,19.34c0,11.94-8.91,21.61-29.19,21.61L114.49,78.86z M129.27,32.23
			h10.42c13.46,0,14.6-7.96,14.6-10.62c0-9.86-10.24-9.86-13.27-9.86h-11.75V32.23z M129.27,67.3h9.29
			c9.86,0,16.87-3.22,16.87-11.75c0-5.5-3.03-11.94-15.92-11.94h-10.24V67.3z M210.59,78.86l-1.52-6.26
			c-3.41,3.03-9.1,7.58-17.82,7.58c-10.62,0-18.2-6.82-18.2-16.3c0-6.07,2.27-13.27,15.16-17.82l16.87-5.69
			c2.46-0.76,2.66-0.95,2.66-2.65v-2.46c0-4.93-4.55-6.44-10.05-6.44c-9.29,0-17.82,5.69-21.23,7.96V24.46
			c3.79-2.09,10.99-6.26,23.31-6.26c18.39,0,21.99,9.29,21.99,20.47v40L210.59,78.86z M195.24,53.46c-5.88,2.09-7.96,4.93-7.96,9.1
			c0,5.88,5.12,7.2,7.58,7.2c2.27,0,7.2-0.76,12.89-6.63v-14.6c-0.76,0.57-1.14,0.76-3.6,1.71L195.24,53.46z M37.34,78.86
			l-1.52-6.26c-3.41,3.03-8.91,7.58-17.82,7.58C7.39,80.19,0,73.36,0,63.89c0-6.07,2.09-13.27,15.16-17.82l17.06-5.69
			c2.46-0.76,2.65-0.95,2.65-2.65v-2.46c0-4.93-4.55-6.44-10.05-6.44c-9.29,0-17.82,5.69-21.23,7.96V24.46
			c3.79-2.09,10.99-6.26,23.31-6.26c18.39,0,21.99,9.29,21.99,20.47v40L37.34,78.86z M22.18,53.46c-5.88,2.09-7.96,4.93-7.96,9.1
			c0,5.88,5.12,7.2,7.58,7.2c2.27,0,7.2-0.76,12.89-6.63v-14.6c-0.76,0.57-1.14,0.76-3.6,1.71L22.18,53.46z M227.65,78.86V0.2h14.03
			v78.66H227.65z M253.62,30.34h-8.53v-10.8h8.53V0.01h14.03v19.52h10.61v10.8h-10.61v29.95c0,4.36,0.57,8.34,7.01,8.34
			c1.7,0,3.03-0.19,4.17-0.38v10.62c-1.9,0.19-3.79,0.38-6.63,0.38c-15.73,0-18.58-7.77-18.58-18.2V30.34z M283.75,14.22V0.01h14.03
			v14.22L283.75,14.22z M283.75,78.86V19.72h14.03v59.14H283.75z M349.15,35.64c-2.84-2.46-7.39-6.06-15.35-6.06
			c-12.13,0-17.06,10.05-17.06,19.71c0,4.17,1.14,19.71,16.68,19.71c8.15,0,13.27-3.6,17.06-6.26v12.51
			c-2.84,1.52-9.29,4.74-19.33,4.74c-20.09,0-28.62-15.16-28.62-30.9c0-16.3,9.29-30.9,29.19-30.9c9.67,0,14.98,3.03,17.44,4.36
			L349.15,35.64z"/>
	</g>
</g>
</svg>
