<?xml version="1.0" encoding="utf-8"?>
<!-- Generator: Adobe Illustrator 25.4.1, SVG Export Plug-In . SVG Version: 6.00 Build 0)  -->
<svg version="1.1" id="Layer_1" xmlns="http://www.w3.org/2000/svg" xmlns:xlink="http://www.w3.org/1999/xlink" x="0px" y="0px"
	 viewBox="0 0 211.2 80" style="enable-background:new 0 0 211.2 80;" xml:space="preserve">
<style type="text/css">
	.st0{fill:#E52830;}
</style>
<g>
	<path class="st0" d="M58.4,1.7C62.3,2.6,64.6,3,65.5,3c1.4,0,2.4-0.2,2.9-0.7c0.6-0.5,1-1.1,1.4-1.9h2.4L68,23.6l-2-0.3
		c-0.4-4.6-1.4-8.3-3.1-11.1C59.9,7,55,4.4,48.1,4.4c-10.6,0-19.2,5.3-26.1,15.9c-6,9.2-8.9,19.2-8.9,30c0,8,1.8,14.1,5.4,18.2
		c3.6,4.1,8.3,6.1,14,6.1c5.9,0,11.3-1.4,16.2-4.3c2.9-1.7,6.7-4.9,11.4-9.4l1.9,1.7c-4.2,5.4-9,9.6-14.3,12.7S36.4,80,30,80
		c-9.7,0-17.1-3.1-22.2-9.2C2.6,64.6,0,57.5,0,49.3c0-11.8,4.3-22.6,12.9-32.6c9.5-10.9,21-16.4,34.5-16.4
		C50.8,0.3,54.4,0.7,58.4,1.7z"/>
	<path class="st0" d="M61.8,76c2.6-0.6,4.2-1.9,6.1-3.4c1.8-1.4,5.9-5.3,11.2-13.1L128.5,0h2.5l-0.8,55.4c0,6.3-0.6,17.5,0.4,18.5
		c1,1,1.9,2,3.9,2v1.9h-31.5V76c3.4-0.3,8.6-0.8,9.7-1.3c1.6-0.8,2.3-1.2,2.3-3.4c0-0.6,0.1-3.4,0.1-4.1c0-0.6-0.1-4.4-0.2-4.9
		l0.1-9.1L90,53.3l-8.6,9.9c-0.2,0.4-2.1,3.2-2.5,4.1c-0.6,1.7-1,3.2-1,4.4c0,1.5,0.5,2.5,1.5,3.1c1,0.6,1.4,0.9,4,1v1.9H61.8V76z
		 M114.8,47.4l0.1-22.7L95,47.4H114.8z"/>
	<path class="st0" d="M138.7,76c2.6-0.6,4.2-1.9,6.1-3.4c1.8-1.4,5.9-5.3,11.2-13.1L205.3,0h2.5L207,55.4c0,6.3-0.6,17.5,0.4,18.5
		c1,1,1.9,2,3.9,2v1.9h-31.5V76c3.4-0.3,8.6-0.8,9.7-1.3c1.6-0.8,2.3-1.2,2.3-3.4c0-0.6,0.1-3.4,0.1-4.1c0-0.6-0.1-4.4-0.2-4.9
		l0.1-9.1l-24.9,0.1l-8.6,9.9c-0.2,0.4-2.1,3.2-2.5,4.1c-0.6,1.7-1,3.2-1,4.4c0,1.5,0.5,2.5,1.5,3.1c1,0.6,1.4,0.9,4,1v1.9h-21.6V76
		z M191.6,47.4l0.1-22.7l-19.8,22.7H191.6z"/>
</g>
</svg>
