<?xml version="1.0" encoding="utf-8"?>
<!-- Generator: Adobe Illustrator 25.4.1, SVG Export Plug-In . SVG Version: 6.00 Build 0)  -->
<svg version="1.1" id="Layer_1" xmlns="http://www.w3.org/2000/svg" xmlns:xlink="http://www.w3.org/1999/xlink" x="0px" y="0px"
	 viewBox="0 0 298.3 80" style="enable-background:new 0 0 298.3 80;" xml:space="preserve">
<style type="text/css">
	.st0{fill:#E52830;}
</style>
<g>
	<path class="st0" d="M112.1,1c2.5,0.6,4,0.9,4.5,0.9c0.9,0,1.5-0.1,1.8-0.4c0.4-0.3,0.7-0.7,0.9-1.2h1.5l-2.7,14.6l-1.3-0.2
		c-0.3-2.9-0.9-5.2-1.9-7c-1.9-3.3-5-4.9-9.3-4.9c-6.6,0-12.1,3.3-16.4,10c-3.7,5.8-5.6,12.1-5.6,18.9c0,5,1.1,8.8,3.4,11.4
		c2.3,2.6,5.2,3.9,8.8,3.9c3.7,0,7.1-0.9,10.2-2.7c1.8-1.1,4.2-3.1,7.1-5.9l1.2,1c-2.7,3.4-5.7,6.1-9,8c-3.4,1.9-7,2.9-11.1,2.9
		c-6.1,0-10.7-1.9-14-5.8c-3.2-3.9-4.9-8.4-4.9-13.5c0-7.4,2.7-14.2,8.1-20.5c6-6.9,13.2-10.3,21.7-10.3
		C107.4,0.2,109.7,0.5,112.1,1z"/>
	<path class="st0" d="M114.3,47.8c1.6-0.4,2.6-1.2,3.9-2.1c1.1-0.9,3.7-3.4,7.1-8.3l31-37.4h1.6l-0.5,34.9c0,4-0.4,11,0.2,11.6
		c0.6,0.7,1.2,1.3,2.4,1.3v1.2h-19.8v-1.2c2.2-0.2,5.4-0.5,6.1-0.8c1-0.5,1.5-0.8,1.5-2.1c0-0.4,0.1-2.2,0-2.6
		c0-0.4-0.1-2.8-0.1-3.1l0.1-5.7l-15.7,0l-5.4,6.3c-0.2,0.3-1.3,2-1.6,2.6c-0.4,1.1-0.6,2-0.6,2.8c0,0.9,0.3,1.6,0.9,2
		c0.6,0.4,0.9,0.6,2.5,0.6v1.2h-13.6V47.8z M147.6,29.8l0.1-14.3l-12.5,14.3H147.6z"/>
	<path class="st0" d="M107.4,74.2c0.5-0.1,0.9-0.4,1.3-0.7c0.4-0.3,1.2-1.1,2.3-2.7l10.1-12.2h0.5L121.4,70c0,1.3-0.1,3.6,0.1,3.8
		c0.2,0.2,0.4,0.4,0.8,0.4v0.4h-6.5v-0.4c0.7-0.1,1.8-0.2,2-0.3c0.3-0.2,0.5-0.2,0.5-0.7c0-0.1,0-0.7,0-0.8c0-0.1,0-0.9,0-1l0-1.9
		l-5.1,0l-1.8,2c0,0.1-0.4,0.6-0.5,0.9c-0.1,0.4-0.2,0.7-0.2,0.9c0,0.3,0.1,0.5,0.3,0.6c0.2,0.1,0.3,0.2,0.8,0.2v0.4h-4.4V74.2z
		 M118.3,68.4l0-4.7l-4.1,4.7H118.3z"/>
	<path class="st0" d="M218.7,74.2c0.5-0.1,0.9-0.4,1.3-0.7c0.4-0.3,1.2-1.1,2.3-2.7l10.1-12.2h0.5L232.7,70c0,1.3-0.1,3.6,0.1,3.8
		c0.2,0.2,0.4,0.4,0.8,0.4v0.4h-6.5v-0.4c0.7-0.1,1.8-0.2,2-0.3c0.3-0.2,0.5-0.2,0.5-0.7c0-0.1,0-0.7,0-0.8c0-0.1,0-0.9,0-1l0-1.9
		l-5.1,0l-1.8,2c0,0.1-0.4,0.6-0.5,0.9c-0.1,0.4-0.2,0.7-0.2,0.9c0,0.3,0.1,0.5,0.3,0.6c0.2,0.1,0.3,0.2,0.8,0.2v0.4h-4.4V74.2z
		 M229.6,68.4l0-4.7l-4.1,4.7H229.6z"/>
	<path class="st0" d="M162.6,47.8c1.6-0.4,2.6-1.2,3.9-2.1c1.1-0.9,3.7-3.4,7.1-8.3l31-37.4h1.6l-0.5,34.9c0,4-0.4,11,0.2,11.6
		c0.6,0.7,1.2,1.3,2.4,1.3v1.2h-19.8v-1.2c2.2-0.2,5.4-0.5,6.1-0.8c1-0.5,1.5-0.8,1.5-2.1c0-0.4,0.1-2.2,0-2.6
		c0-0.4-0.1-2.8-0.1-3.1l0.1-5.7l-15.7,0l-5.4,6.3c-0.2,0.3-1.3,2-1.6,2.6c-0.4,1.1-0.6,2-0.6,2.8c0,0.9,0.3,1.6,0.9,2
		c0.6,0.4,0.9,0.6,2.5,0.6v1.2h-13.6V47.8z M195.9,29.8l0.1-14.3l-12.5,14.3H195.9z"/>
	<path class="st0" d="M133.9,60.4c-0.2,0.2-0.4,0.3-0.7,0.3c-0.3,0-0.5-0.1-0.6-0.3c-0.2-0.2-0.2-0.4-0.2-0.6c0-0.2,0.1-0.4,0.2-0.8
		c0-0.1,0-0.2-0.1-0.3c-0.1-0.1-0.2-0.1-0.3-0.1c-0.6,0-1,0.6-1.4,1.9c-0.2,0.7-0.5,2-0.7,3.8h2.5l-0.2,0.8h-2.6l-2.2,7.8
		c-0.5,2.1-1.1,3.7-1.8,5c-0.8,1.3-1.8,1.9-3,1.9c-0.6,0-1-0.2-1.4-0.5c-0.4-0.3-0.5-0.7-0.5-1c0-0.2,0.1-0.5,0.2-0.7
		c0.1-0.2,0.4-0.3,0.7-0.3c0.3,0,0.5,0.1,0.7,0.3c0.2,0.2,0.3,0.4,0.3,0.7c0,0.1,0,0.3-0.1,0.4c-0.1,0.1-0.1,0.2-0.1,0.3
		c0,0.1,0,0.1,0.1,0.2c0.1,0,0.2,0.1,0.3,0.1c0.6,0,1.2-0.5,1.6-1.6c0.2-0.6,0.4-1.3,0.6-2.3l2.7-10.3h-2.1l0.2-0.8h2.2
		c0.4-1.9,0.9-3.2,1.4-4.1c0.8-1.4,1.7-2.1,2.8-2.1c0.5,0,0.9,0.2,1.3,0.5c0.3,0.3,0.5,0.7,0.5,1.1C134.1,59.9,134,60.1,133.9,60.4z
		"/>
	<path class="st0" d="M135.6,63.9c0,0,0,0.1,0,0.1c0,0.1,0,0.1,0,0.2l-1.2,4.7l0.3-0.6c0.5-1.1,1.2-2.2,1.9-3.1
		c0.7-0.9,1.4-1.4,2.1-1.4c0.4,0,0.6,0.1,0.8,0.4c0.2,0.2,0.3,0.5,0.3,0.9c0,0.4-0.1,0.7-0.3,0.9c-0.2,0.2-0.5,0.4-0.8,0.4
		c-0.2,0-0.4,0-0.5-0.1c-0.1-0.1-0.2-0.2-0.3-0.3l-0.1-0.3c0,0-0.1-0.1-0.1-0.1c0,0-0.1,0-0.2,0c-0.3,0-0.7,0.4-1.3,1.3
		c-0.6,0.9-1.1,1.8-1.5,2.8c-0.3,0.6-0.6,1.4-0.9,2.4c-0.2,0.6-0.5,1.5-0.8,2.7h-1.7l1.9-7.2c0.1-0.4,0.2-0.8,0.3-1.1
		c0.1-0.3,0.1-0.6,0.1-0.8c0-0.2-0.1-0.4-0.2-0.6c-0.1-0.1-0.3-0.2-0.6-0.2c-0.1,0-0.2,0-0.3,0c-0.1,0-0.3,0-0.5,0.1v-0.4l0.5-0.1
		c0.6-0.1,1.2-0.3,1.9-0.4s1.1-0.2,1.1-0.2C135.5,63.8,135.6,63.9,135.6,63.9z"/>
	<path class="st0" d="M145,63.9c0,0,0.1,0.1,0.1,0.1l-2.3,8.6c-0.1,0.5-0.2,0.7-0.2,0.8c0,0.1,0,0.2,0.1,0.3c0,0.1,0.1,0.1,0.3,0.1
		c0.3,0,0.6-0.2,1-0.7c0.2-0.3,0.6-0.7,0.9-1.2l0.3,0.3l-0.1,0.2c-0.6,0.8-1,1.4-1.4,1.8c-0.6,0.6-1.1,0.9-1.7,0.9
		c-0.3,0-0.6-0.1-0.8-0.4c-0.2-0.3-0.3-0.6-0.3-1c0-0.2,0-0.4,0-0.6c0-0.2,0.1-0.4,0.2-0.8l1.6-6.2c0-0.1,0-0.2,0.1-0.3
		c0-0.1,0-0.2,0-0.2c0-0.3-0.1-0.5-0.3-0.5c-0.2-0.1-0.6-0.1-1.2-0.1v-0.4c0.6-0.1,1.1-0.1,1.3-0.2c0.3,0,0.5-0.1,0.8-0.1
		c0.4-0.1,0.7-0.1,1-0.2C144.8,63.9,145,63.9,145,63.9z M143.9,60.9c-0.2-0.3-0.3-0.6-0.3-0.9c0-0.4,0.1-0.7,0.3-0.9
		c0.2-0.3,0.5-0.4,0.8-0.4c0.3,0,0.6,0.1,0.8,0.4c0.2,0.3,0.3,0.6,0.3,0.9s-0.1,0.7-0.3,0.9c-0.2,0.3-0.5,0.4-0.8,0.4
		C144.4,61.3,144.1,61.1,143.9,60.9z"/>
	<path class="st0" d="M155.4,64.6c0.4,0.4,0.6,0.9,0.6,1.3c0,0.4-0.1,0.7-0.3,0.9c-0.2,0.2-0.5,0.3-0.7,0.3c-0.3,0-0.5-0.1-0.7-0.3
		c-0.2-0.2-0.3-0.4-0.3-0.7c0-0.2,0.1-0.4,0.2-0.7c0.1-0.2,0.2-0.4,0.2-0.5c0-0.1-0.1-0.3-0.2-0.4c-0.2-0.1-0.4-0.1-0.7-0.1
		c-1.2,0-2.3,0.7-3.2,2.2c-0.9,1.5-1.3,3-1.3,4.6c0,0.9,0.2,1.6,0.5,2.1c0.4,0.5,0.9,0.8,1.6,0.8c0.6,0,1.1-0.2,1.7-0.5
		c0.5-0.4,1.1-0.8,1.5-1.4l0.1-0.1l0.3,0.3c-0.5,0.7-1,1.3-1.5,1.6c-0.9,0.7-1.8,1-2.9,1c-1,0-1.8-0.3-2.5-1
		c-0.6-0.7-0.9-1.6-0.9-2.8c0-1.8,0.7-3.5,2.1-5c1.4-1.5,2.9-2.3,4.5-2.3C154.3,63.9,155,64.2,155.4,64.6z"/>
	<path class="st0" d="M165,64.4c0.2,0.2,0.3,0.4,0.4,0.7l0.1,0.2l0.3-0.9c0-0.1,0.1-0.2,0.1-0.2c0,0,0.1-0.1,0.2-0.1l1.3-0.2
		c0.1,0,0.1,0,0.1,0c0,0,0,0.1,0,0.1c0,0.1-0.1,0.2-0.1,0.2c0,0.1,0,0.1-0.1,0.3l-1.1,4.3c-0.2,0.9-0.5,1.7-0.6,2.4
		c-0.3,1.2-0.4,1.9-0.4,2.1c0,0.1,0,0.2,0.1,0.2c0.1,0.1,0.1,0.1,0.2,0.1c0.1,0,0.1,0,0.2-0.1c0.1,0,0.2-0.1,0.3-0.2l0.2-0.2
		c0.1-0.1,0.1-0.1,0.2-0.2c0.1-0.1,0.2-0.2,0.3-0.3l0.7-0.8l0.3,0.3c-0.8,1.1-1.5,1.8-1.9,2.2c-0.5,0.4-1,0.6-1.4,0.6
		c-0.3,0-0.5-0.1-0.7-0.3c-0.2-0.2-0.2-0.5-0.2-0.8c0-0.3,0.1-0.7,0.2-1.2c0.1-0.5,0.2-1,0.3-1.4c-0.1,0.2-0.4,0.6-0.7,1.1
		c-0.3,0.5-0.7,0.9-1.2,1.3c-0.5,0.5-1.1,0.9-1.6,1.1c-0.4,0.1-0.8,0.2-1.1,0.2c-0.6,0-1.2-0.3-1.7-0.8c-0.5-0.5-0.7-1.3-0.7-2.3
		c0-1.7,0.7-3.4,2.1-5.3c1.5-1.9,3-2.8,4.6-2.8C164.2,63.9,164.6,64,165,64.4z M164.6,64.8c-0.3-0.3-0.6-0.4-0.9-0.4
		c-1.2,0-2.4,1-3.5,3c-0.9,1.8-1.4,3.3-1.4,4.6c0,0.6,0.1,1.1,0.4,1.4c0.3,0.3,0.6,0.4,1,0.4c1.1,0,2.2-1,3.3-2.9
		c1-1.8,1.5-3.4,1.5-4.8C165,65.5,164.8,65.1,164.6,64.8z"/>
	<path class="st0" d="M173.3,63.9c0,0,0.1,0.1,0.1,0.1l-2.3,8.6c-0.1,0.5-0.2,0.7-0.2,0.8c0,0.1,0,0.2,0.1,0.3
		c0,0.1,0.1,0.1,0.3,0.1c0.3,0,0.6-0.2,1-0.7c0.2-0.3,0.6-0.7,0.9-1.2l0.3,0.3l-0.1,0.2c-0.6,0.8-1,1.4-1.4,1.8
		c-0.6,0.6-1.1,0.9-1.7,0.9c-0.3,0-0.6-0.1-0.8-0.4c-0.2-0.3-0.3-0.6-0.3-1c0-0.2,0-0.4,0-0.6c0-0.2,0.1-0.4,0.2-0.8L171,66
		c0-0.1,0-0.2,0.1-0.3c0-0.1,0-0.2,0-0.2c0-0.3-0.1-0.5-0.3-0.5c-0.2-0.1-0.6-0.1-1.2-0.1v-0.4c0.6-0.1,1.1-0.1,1.3-0.2
		c0.3,0,0.5-0.1,0.8-0.1c0.4-0.1,0.7-0.1,1-0.2C173.1,63.9,173.3,63.9,173.3,63.9z M172.2,60.9c-0.2-0.3-0.3-0.6-0.3-0.9
		c0-0.4,0.1-0.7,0.3-0.9c0.2-0.3,0.5-0.4,0.8-0.4c0.3,0,0.6,0.1,0.8,0.4c0.2,0.3,0.3,0.6,0.3,0.9s-0.1,0.7-0.3,0.9
		c-0.2,0.3-0.5,0.4-0.8,0.4C172.7,61.3,172.4,61.1,172.2,60.9z"/>
	<path class="st0" d="M174.9,74.8l1.9-7.4c0.2-0.6,0.3-1,0.3-1.1c0-0.1,0-0.3,0-0.4c0-0.2-0.1-0.4-0.2-0.5c-0.1-0.1-0.4-0.2-0.7-0.2
		c-0.1,0-0.2,0-0.3,0c-0.1,0-0.2,0-0.3,0v-0.4c0.5-0.1,0.8-0.1,1-0.2c0.2,0,0.4-0.1,0.7-0.1l2-0.5c0,0,0.1,0.1,0.1,0.1l-1.5,5.2
		c0.9-1.5,1.7-2.6,2.3-3.3c1.1-1.3,2.1-1.9,2.9-1.9c0.3,0,0.6,0.1,0.9,0.2c0.5,0.3,0.7,0.7,0.7,1.4c0,0.2,0,0.4-0.1,0.6
		c0,0.2-0.1,0.4-0.1,0.7l-1.5,5.7c0,0.1-0.1,0.3-0.1,0.4c0,0.2-0.1,0.3-0.1,0.4c0,0.1,0,0.2,0.1,0.3c0.1,0.1,0.1,0.1,0.3,0.1
		c0.2,0,0.4-0.1,0.7-0.4c0.2-0.2,0.6-0.8,1.2-1.6l0.3,0.3c-0.6,0.9-1.1,1.5-1.4,1.9c-0.6,0.6-1.2,0.9-1.7,0.9
		c-0.3,0-0.5-0.1-0.7-0.3s-0.4-0.5-0.4-1c0-0.1,0-0.3,0-0.4c0-0.2,0-0.3,0.1-0.4l1.4-5.8c0.1-0.3,0.1-0.6,0.2-0.8s0-0.3,0-0.4
		c0-0.2,0-0.4-0.1-0.5c-0.1-0.1-0.2-0.2-0.5-0.2c-0.6,0-1.3,0.5-2.2,1.6c-0.5,0.6-1,1.4-1.6,2.3c-0.4,0.7-0.7,1.4-0.9,2
		c-0.2,0.7-0.6,1.9-1.1,3.6H174.9z"/>
	<path class="st0" d="M189,66.4c1.5-1.7,3-2.5,4.6-2.5c0.6,0,1.1,0.1,1.4,0.4c0.3,0.3,0.5,0.7,0.5,1.3c0,1.1-0.6,2.1-1.9,3
		c-1.3,0.8-2.6,1.3-4,1.5l-0.6,0.1c-0.1,0.3-0.2,0.6-0.2,0.8c0,0.2-0.1,0.4-0.1,0.7c0,0.7,0.2,1.3,0.7,1.6c0.4,0.4,0.9,0.6,1.5,0.6
		c0.6,0,1.2-0.2,1.8-0.6c0.4-0.2,0.9-0.6,1.6-1.2l0.3,0.3c-0.3,0.5-0.8,0.9-1.5,1.4c-1.1,0.9-2.3,1.3-3.4,1.3
		c-0.8,0-1.5-0.3-2.1-0.9c-0.6-0.6-0.9-1.5-0.9-2.6C186.8,69.8,187.5,68.1,189,66.4z M192.7,68c0.9-0.8,1.4-1.7,1.4-2.5
		c0-0.3-0.1-0.5-0.2-0.7c-0.1-0.2-0.3-0.3-0.6-0.3c-0.5,0-1,0.2-1.4,0.7c-0.5,0.4-0.9,0.9-1.3,1.5c-0.4,0.7-0.7,1.3-0.9,1.9
		c-0.1,0.3-0.3,0.7-0.4,1.1C190.6,69.4,191.8,68.9,192.7,68z"/>
	<path class="st0" d="M210.1,64.3c0.1,0.2,0.3,0.5,0.4,0.9l1.4-4.9c0-0.1,0.1-0.3,0.1-0.4c0-0.1,0-0.2,0-0.3c0-0.3-0.1-0.5-0.2-0.6
		c-0.1-0.1-0.3-0.1-0.5-0.1c-0.1,0-0.3,0-0.4,0c-0.1,0-0.3,0-0.5,0v-0.4c0.9-0.1,2.1-0.3,3.7-0.6l0.1,0.1l0,0.1l-2.3,8.6l-1.6,5.7
		c0,0.1-0.1,0.2-0.1,0.4c0,0.1,0,0.2,0,0.3c0,0.2,0.1,0.4,0.2,0.4c0.1,0.1,0.2,0.1,0.3,0.1c0.2,0,0.6-0.2,1-0.6
		c0.2-0.2,0.6-0.6,1-1.2l0.3,0.3l-0.2,0.3c-0.3,0.4-0.7,0.9-1.1,1.3c-0.8,0.8-1.5,1.2-2.2,1.2c-0.2,0-0.4,0-0.6-0.1
		c-0.3-0.2-0.5-0.5-0.5-1c0-0.2,0-0.4,0.1-0.8c0-0.4,0.1-0.8,0.2-1.2c-0.6,0.9-1.3,1.7-2,2.3c-0.7,0.6-1.5,0.9-2.3,0.9
		c-0.7,0-1.3-0.2-1.8-0.7c-0.5-0.5-0.8-1.3-0.8-2.3c0-1.7,0.8-3.5,2.4-5.4c1.6-1.8,3.1-2.7,4.6-2.7C209.4,63.9,209.9,64,210.1,64.3z
		 M204.3,73.2c0.2,0.4,0.6,0.5,1.1,0.5c1.1,0,2.2-0.9,3.2-2.8c1-1.7,1.5-3.4,1.5-4.9c0-0.5-0.1-0.9-0.2-1.2c-0.2-0.3-0.5-0.5-1-0.5
		c-1.2,0-2.4,1-3.5,2.9c-1,1.8-1.5,3.3-1.5,4.6C203.9,72.5,204,72.9,204.3,73.2z"/>
	<path class="st0" d="M220,59c0.3,0.3,0.4,0.7,0.4,1.2c0,0.8-0.3,1.5-0.9,2.2c-0.6,0.7-1.2,1.2-1.9,1.5l-0.4,0.2l-0.2-0.4
		c0.5-0.3,0.8-0.6,1.1-0.9c0.5-0.5,0.7-0.9,0.7-1.3c0-0.1,0-0.2-0.1-0.3c0-0.1-0.1-0.2-0.2-0.3l-0.2-0.2c-0.3-0.3-0.4-0.5-0.5-0.6
		c-0.1-0.1-0.1-0.3-0.1-0.6c0-0.4,0.1-0.7,0.4-0.9s0.5-0.3,0.8-0.3C219.4,58.5,219.7,58.6,220,59z"/>
	<path class="st0" d="M243.8,64.4c0.2,0.3,0.3,0.7,0.3,1.1c0,1.1-1,3-3,5.7c-1.9,2.6-3.1,3.8-3.4,3.8c-0.1,0-0.2-0.2-0.2-0.5
		c0-0.2,0-0.5,0-0.9c0-0.5,0-1.4-0.1-2.7c-0.1-1.3-0.2-2.2-0.3-2.8c-0.2-1.4-0.4-2.2-0.6-2.6c-0.2-0.4-0.5-0.6-1-0.6
		c-0.1,0-0.2,0-0.3,0c-0.1,0-0.2,0-0.4,0v-0.3c0.2,0,0.7-0.2,1.4-0.3c0.7-0.2,1.1-0.3,1.2-0.3l0.4-0.1c0.1,0,0.2,0,0.3,0.2
		c0.1,0.2,0.1,0.4,0.2,0.9c0.3,1.4,0.5,2.8,0.7,4.1c0.1,0.8,0.2,2.1,0.3,3.7l0.4-0.4c0.8-0.9,1.6-1.9,2.3-3.1c0.8-1.2,1.2-2,1.2-2.5
		c0-0.2-0.2-0.5-0.5-0.9s-0.5-0.7-0.5-1c0-0.3,0.1-0.5,0.3-0.6c0.2-0.2,0.4-0.3,0.6-0.3C243.2,63.9,243.5,64.1,243.8,64.4z"/>
	<path class="st0" d="M249.8,63.9c0,0,0.1,0.1,0.1,0.1l-2.3,8.6c-0.1,0.5-0.2,0.7-0.2,0.8c0,0.1,0,0.2,0.1,0.3
		c0,0.1,0.1,0.1,0.3,0.1c0.3,0,0.6-0.2,1-0.7c0.3-0.3,0.6-0.7,0.9-1.2l0.3,0.3l-0.1,0.2c-0.6,0.8-1,1.4-1.4,1.8
		c-0.6,0.6-1.2,0.9-1.7,0.9c-0.3,0-0.6-0.1-0.8-0.4c-0.2-0.3-0.3-0.6-0.3-1c0-0.2,0-0.4,0-0.6c0-0.2,0.1-0.4,0.2-0.8l1.6-6.2
		c0-0.1,0-0.2,0.1-0.3c0-0.1,0-0.2,0-0.2c0-0.3-0.1-0.5-0.3-0.5c-0.2-0.1-0.6-0.1-1.2-0.1v-0.4c0.6-0.1,1.1-0.1,1.3-0.2
		c0.3,0,0.6-0.1,0.8-0.1c0.4-0.1,0.7-0.1,1-0.2C249.6,63.9,249.8,63.9,249.8,63.9z M248.7,60.9c-0.2-0.3-0.3-0.6-0.3-0.9
		c0-0.4,0.1-0.7,0.3-0.9c0.2-0.3,0.5-0.4,0.8-0.4c0.3,0,0.6,0.1,0.8,0.4c0.2,0.3,0.3,0.6,0.3,0.9s-0.1,0.7-0.3,0.9
		c-0.2,0.3-0.5,0.4-0.8,0.4C249.2,61.3,249,61.1,248.7,60.9z"/>
	<path class="st0" d="M259.5,64.4c0.2,0.2,0.3,0.4,0.4,0.7l0.1,0.2l0.3-0.9c0-0.1,0.1-0.2,0.1-0.2c0,0,0.1-0.1,0.2-0.1l1.3-0.2
		c0.1,0,0.1,0,0.1,0c0,0,0,0.1,0,0.1c0,0.1-0.1,0.2-0.1,0.2c0,0.1,0,0.1-0.1,0.3l-1.1,4.3c-0.2,0.9-0.5,1.7-0.6,2.4
		c-0.3,1.2-0.4,1.9-0.4,2.1c0,0.1,0,0.2,0.1,0.2c0.1,0.1,0.1,0.1,0.2,0.1c0.1,0,0.1,0,0.2-0.1c0.1,0,0.2-0.1,0.3-0.2l0.2-0.2
		c0.1-0.1,0.1-0.1,0.2-0.2c0.1-0.1,0.2-0.2,0.3-0.3l0.7-0.8l0.3,0.3c-0.8,1.1-1.5,1.8-2,2.2c-0.5,0.4-1,0.6-1.4,0.6
		c-0.3,0-0.5-0.1-0.7-0.3c-0.2-0.2-0.2-0.5-0.2-0.8c0-0.3,0.1-0.7,0.2-1.2c0.1-0.5,0.2-1,0.3-1.4c-0.1,0.2-0.4,0.6-0.7,1.1
		c-0.3,0.5-0.7,0.9-1.2,1.3c-0.6,0.5-1.1,0.9-1.6,1.1c-0.4,0.1-0.8,0.2-1.1,0.2c-0.6,0-1.2-0.3-1.7-0.8c-0.5-0.5-0.7-1.3-0.7-2.3
		c0-1.7,0.7-3.4,2.2-5.3c1.5-1.9,3-2.8,4.6-2.8C258.7,63.9,259.2,64,259.5,64.4z M259.2,64.8c-0.3-0.3-0.6-0.4-0.9-0.4
		c-1.2,0-2.4,1-3.5,3c-0.9,1.8-1.4,3.3-1.4,4.6c0,0.6,0.1,1.1,0.4,1.4c0.3,0.3,0.6,0.4,1,0.4c1.1,0,2.2-1,3.3-2.9
		c1-1.8,1.5-3.4,1.5-4.8C259.5,65.5,259.4,65.1,259.2,64.8z"/>
	<path class="st0" d="M263.5,73.7c0-0.1,0-0.2,0-0.3l2.2-8.4H264c0-0.2,0-0.4,0-0.4c0-0.1,0.1-0.1,0.2-0.2c0.8-0.3,1.4-0.7,1.8-1
		c0.4-0.3,1-0.9,1.7-1.9l0.2-0.2c0,0,0.1-0.1,0.1-0.1c0,0,0.1,0,0.1,0c0.1,0,0.1,0,0.2,0c0,0.1,0,0.1,0,0.1c0,0,0,0.1,0,0.1
		l-0.7,2.6h1.9l-0.1,0.8h-2l-2.1,8.1c0,0.1,0,0.3,0,0.4c0.1,0.1,0.2,0.2,0.3,0.2c0.2,0,0.5-0.2,0.8-0.6c0.2-0.2,0.6-0.7,1-1.3
		l0.3,0.2l-0.2,0.3c-0.7,1-1.2,1.7-1.7,2.2c-0.5,0.4-1,0.6-1.4,0.6c-0.4,0-0.7-0.1-0.8-0.3c-0.2-0.2-0.3-0.5-0.3-0.7
		C263.5,73.9,263.5,73.8,263.5,73.7z"/>
	<path class="st0" d="M274.4,63.9c0,0,0.1,0.1,0.1,0.1l-2.3,8.6c-0.1,0.5-0.2,0.7-0.2,0.8c0,0.1,0,0.2,0.1,0.3
		c0,0.1,0.1,0.1,0.3,0.1c0.3,0,0.6-0.2,1-0.7c0.3-0.3,0.6-0.7,0.9-1.2l0.3,0.3l-0.1,0.2c-0.6,0.8-1,1.4-1.4,1.8
		c-0.6,0.6-1.2,0.9-1.7,0.9c-0.3,0-0.6-0.1-0.8-0.4c-0.2-0.3-0.3-0.6-0.3-1c0-0.2,0-0.4,0-0.6c0-0.2,0.1-0.4,0.2-0.8l1.6-6.2
		c0-0.1,0-0.2,0.1-0.3c0-0.1,0-0.2,0-0.2c0-0.3-0.1-0.5-0.3-0.5c-0.2-0.1-0.6-0.1-1.2-0.1v-0.4c0.6-0.1,1.1-0.1,1.3-0.2
		c0.3,0,0.6-0.1,0.8-0.1c0.4-0.1,0.7-0.1,1-0.2C274.2,63.9,274.4,63.9,274.4,63.9z M273.3,60.9c-0.2-0.3-0.3-0.6-0.3-0.9
		c0-0.4,0.1-0.7,0.3-0.9c0.2-0.3,0.5-0.4,0.8-0.4c0.3,0,0.6,0.1,0.8,0.4c0.2,0.3,0.3,0.6,0.3,0.9s-0.1,0.7-0.3,0.9
		c-0.2,0.3-0.5,0.4-0.8,0.4C273.8,61.3,273.5,61.1,273.3,60.9z"/>
	<path class="st0" d="M285.7,65c0.5,0.7,0.8,1.6,0.8,2.5c0,1.7-0.7,3.4-2.1,5c-1.5,1.7-3,2.5-4.7,2.5c-1,0-1.9-0.3-2.5-1
		c-0.6-0.6-0.9-1.5-0.9-2.7c0-1.8,0.7-3.4,2.1-5c1.4-1.6,3-2.5,4.7-2.5C284.3,63.9,285.2,64.2,285.7,65z M278.6,73.8
		c0.3,0.4,0.8,0.7,1.4,0.7c1.2,0,2.3-1,3.3-2.9c0.8-1.7,1.2-3.2,1.2-4.7c0-0.6-0.1-1.1-0.2-1.5c-0.3-0.7-0.8-1-1.5-1
		c-1.2,0-2.2,0.9-3.3,2.7c-1,1.7-1.4,3.4-1.4,5C278.2,72.8,278.3,73.4,278.6,73.8z"/>
	<path class="st0" d="M287.7,74.8l1.9-7.4c0.2-0.6,0.3-1,0.3-1.1c0-0.1,0-0.3,0-0.4c0-0.2-0.1-0.4-0.2-0.5c-0.1-0.1-0.4-0.2-0.7-0.2
		c-0.1,0-0.2,0-0.3,0c-0.1,0-0.2,0-0.3,0v-0.4c0.5-0.1,0.8-0.1,1-0.2c0.2,0,0.4-0.1,0.7-0.1l2-0.5c0,0,0.1,0.1,0.1,0.1l-1.5,5.2
		c0.9-1.5,1.7-2.6,2.3-3.3c1.1-1.3,2.1-1.9,3-1.9c0.3,0,0.6,0.1,0.9,0.2c0.5,0.3,0.7,0.7,0.7,1.4c0,0.2,0,0.4-0.1,0.6
		c0,0.2-0.1,0.4-0.1,0.7l-1.5,5.7c0,0.1-0.1,0.3-0.1,0.4c0,0.2-0.1,0.3-0.1,0.4c0,0.1,0,0.2,0.1,0.3c0.1,0.1,0.1,0.1,0.3,0.1
		c0.2,0,0.4-0.1,0.7-0.4c0.2-0.2,0.7-0.8,1.2-1.6l0.3,0.3c-0.6,0.9-1.1,1.5-1.4,1.9c-0.6,0.6-1.2,0.9-1.8,0.9
		c-0.3,0-0.5-0.1-0.7-0.3c-0.2-0.2-0.4-0.5-0.4-1c0-0.1,0-0.3,0-0.4c0-0.2,0-0.3,0.1-0.4l1.5-5.8c0.1-0.3,0.1-0.6,0.2-0.8
		c0-0.2,0-0.3,0-0.4c0-0.2,0-0.4-0.1-0.5c-0.1-0.1-0.2-0.2-0.5-0.2c-0.6,0-1.3,0.5-2.2,1.6c-0.5,0.6-1,1.4-1.6,2.3
		c-0.4,0.7-0.7,1.4-0.9,2c-0.2,0.7-0.6,1.9-1.1,3.6H287.7z"/>
	<g>
		<path class="st0" d="M11.6,58.9c0.8,0.2,1.3,0.3,1.4,0.3c0.3,0,0.5,0,0.6-0.1s0.2-0.2,0.3-0.4h0.5l-0.8,4.9l-0.4-0.1
			c-0.1-1-0.3-1.7-0.6-2.3c-0.6-1.1-1.6-1.6-2.9-1.6c-2.1,0-3.8,1.1-5.2,3.4c-1.2,1.9-1.8,4-1.8,6.3c0,1.7,0.4,3,1.1,3.8
			s1.6,1.3,2.8,1.3c1.2,0,2.2-0.3,3.2-0.9c0.6-0.4,1.3-1,2.3-2l0.4,0.3c-0.8,1.1-1.8,2-2.9,2.7c-1.1,0.7-2.2,1-3.5,1
			c-1.9,0-3.4-0.6-4.4-1.9S0,70.6,0,68.9c0-2.5,0.9-4.8,2.6-6.9c1.9-2.3,4.2-3.4,6.9-3.4C10.1,58.6,10.8,58.7,11.6,58.9z"/>
		<path class="st0" d="M24.2,65.1c0.5,0.7,0.8,1.6,0.8,2.5c0,1.7-0.7,3.4-2.1,5c-1.4,1.7-3,2.5-4.6,2.5c-1,0-1.9-0.3-2.5-1
			c-0.6-0.6-0.9-1.5-0.9-2.7c0-1.7,0.7-3.4,2.1-5c1.4-1.6,3-2.5,4.6-2.5C22.8,64.1,23.7,64.4,24.2,65.1z M17.2,74
			c0.3,0.4,0.8,0.7,1.4,0.7c1.2,0,2.3-1,3.3-2.9c0.8-1.7,1.2-3.2,1.2-4.6c0-0.6-0.1-1.1-0.2-1.4c-0.3-0.7-0.7-1-1.4-1
			c-1.1,0-2.2,0.9-3.2,2.7c-0.9,1.7-1.4,3.4-1.4,5C16.7,73,16.9,73.6,17.2,74z"/>
		<path class="st0" d="M35.2,64.3c0.4,0.3,0.5,0.7,0.5,1.3c0,0.3-0.1,0.6-0.2,1.1c-0.1,0.5-0.3,1.3-0.7,2.3c0.8-1.4,1.6-2.4,2.2-3.1
			c1.1-1.3,2.1-1.9,2.9-1.9c0.4,0,0.7,0.1,1,0.4c0.3,0.3,0.4,0.7,0.4,1.2c0,0.2-0.1,0.6-0.2,1.3l-1.8,6.5c0,0.1,0,0.2,0,0.3
			c0.1,0.1,0.1,0.2,0.3,0.2c0.1,0,0.3,0,0.4-0.1c0.1-0.1,0.2-0.2,0.4-0.4c0.1-0.2,0.3-0.3,0.4-0.4c0.1-0.1,0.4-0.5,0.8-1l0.3,0.3
			l-0.1,0.2c-0.5,0.8-1.1,1.5-1.6,1.9c-0.5,0.5-1.1,0.7-1.6,0.7c-0.2,0-0.4-0.1-0.6-0.2c-0.3-0.2-0.4-0.6-0.4-1c0-0.1,0-0.2,0-0.4
			c0-0.1,0-0.3,0.1-0.5l1.7-6.7c0-0.1,0-0.2,0.1-0.2c0-0.1,0-0.1,0-0.2c0-0.2,0-0.3-0.1-0.4c-0.1-0.1-0.2-0.2-0.4-0.2
			c-0.5,0-1.1,0.4-1.8,1.2c-0.7,0.8-1.3,1.6-1.8,2.5c-0.5,0.8-0.8,1.6-1,2.1c-0.2,0.6-0.5,1.8-1,3.8h-1.7l2.3-8.5c0-0.1,0-0.1,0-0.2
			c0-0.1,0-0.1,0-0.2c0-0.2,0-0.3-0.1-0.4c-0.1-0.1-0.2-0.2-0.4-0.2c-0.5,0-1.1,0.4-1.8,1.3c-0.7,0.8-1.3,1.6-1.7,2.4
			c-0.4,0.7-0.9,1.7-1.3,2.8c-0.2,0.7-0.6,1.8-0.9,3.1H26l2.2-8.5c0-0.1,0-0.2,0.1-0.3s0-0.2,0-0.3c0-0.3-0.1-0.5-0.3-0.6
			c-0.2-0.1-0.6-0.1-1.2-0.1v-0.4c0.8-0.1,2-0.4,3.7-0.8l0.1,0.1l-1.3,4.9c0.8-1.3,1.6-2.4,2.4-3.3c1-1.2,1.9-1.7,2.7-1.7
			C34.7,64.1,34.9,64.2,35.2,64.3z"/>
		<path class="st0" d="M40.5,79.6c0.4,0,0.8-0.1,1-0.3c0.2-0.2,0.4-0.5,0.5-0.9l3.1-11.7c0.1-0.3,0.1-0.5,0.1-0.6c0-0.1,0-0.2,0-0.3
			c0-0.3-0.1-0.5-0.3-0.6c-0.2-0.1-0.5-0.2-0.8-0.2c-0.1,0-0.1,0-0.2,0c-0.1,0-0.1,0-0.2,0l0-0.4l3.6-0.6c0,0,0.1,0,0.1,0.1
			c0,0.1-0.1,0.3-0.1,0.3l-0.6,2.2c0.5-0.7,0.9-1.2,1.4-1.6c0.7-0.7,1.5-1,2.3-1c0.8,0,1.5,0.3,1.9,0.8c0.5,0.5,0.7,1.3,0.7,2.4
			c0,1.9-0.7,3.7-2.2,5.4c-1.5,1.7-3,2.5-4.6,2.5c-0.3,0-0.6,0-0.8-0.1c-0.2-0.1-0.5-0.2-0.8-0.3l-0.2,0.7c-0.2,0.8-0.3,1.4-0.4,1.8
			c-0.2,0.9-0.3,1.4-0.3,1.6c0,0.3,0.1,0.5,0.3,0.6c0.2,0.1,0.6,0.1,1.2,0.2V80h-4.8V79.6z M50.9,66c-0.2-0.6-0.6-0.9-1.2-0.9
			c-0.5,0-1.1,0.3-1.7,0.8c-0.6,0.6-1.1,1.5-1.5,2.7c-0.3,1-0.6,2-0.9,3.1c-0.3,1.1-0.4,1.7-0.4,1.9c0,0.3,0.1,0.5,0.4,0.7
			c0.2,0.1,0.5,0.2,0.8,0.2c1.3,0,2.5-0.9,3.4-2.7c0.9-1.6,1.3-3.2,1.3-4.7C51.1,66.7,51,66.3,50.9,66z"/>
		<path class="st0" d="M62.3,64.6c0.2,0.2,0.3,0.4,0.4,0.7l0.1,0.2l0.3-0.9c0-0.1,0.1-0.2,0.1-0.2c0,0,0.1-0.1,0.2-0.1l1.3-0.2
			c0.1,0,0.1,0,0.1,0s0,0.1,0,0.1c0,0.1-0.1,0.2-0.1,0.2c0,0.1,0,0.1-0.1,0.3l-1.1,4.3c-0.2,0.9-0.4,1.7-0.6,2.4
			c-0.3,1.2-0.4,1.9-0.4,2.1c0,0.1,0,0.2,0.1,0.2c0.1,0.1,0.1,0.1,0.2,0.1c0.1,0,0.1,0,0.2-0.1c0.1,0,0.2-0.1,0.3-0.2l0.2-0.2
			c0.1-0.1,0.1-0.1,0.2-0.2c0.1-0.1,0.2-0.2,0.3-0.3l0.7-0.8l0.3,0.3c-0.8,1.1-1.4,1.8-1.9,2.2s-0.9,0.6-1.4,0.6
			c-0.3,0-0.5-0.1-0.7-0.3c-0.2-0.2-0.2-0.5-0.2-0.8c0-0.3,0.1-0.7,0.2-1.2c0.1-0.5,0.2-1,0.3-1.4c-0.1,0.2-0.4,0.6-0.7,1
			c-0.3,0.5-0.7,0.9-1.2,1.3c-0.5,0.5-1.1,0.9-1.6,1.1c-0.4,0.1-0.8,0.2-1.1,0.2c-0.6,0-1.2-0.3-1.7-0.8c-0.5-0.5-0.7-1.3-0.7-2.3
			c0-1.7,0.7-3.4,2.1-5.3c1.5-1.9,3-2.8,4.6-2.8C61.5,64.1,62,64.2,62.3,64.6z M61.9,65c-0.3-0.3-0.6-0.4-0.9-0.4
			c-1.2,0-2.4,1-3.4,3c-0.9,1.8-1.4,3.3-1.4,4.5c0,0.6,0.1,1.1,0.4,1.4s0.6,0.4,1,0.4c1.1,0,2.2-1,3.3-2.9c1-1.8,1.5-3.4,1.5-4.8
			C62.3,65.7,62.2,65.3,61.9,65z"/>
		<path class="st0" d="M66.2,75.6c0.4-0.5,1.1-1.1,2.1-1.6c-0.2-0.1-0.3-0.3-0.5-0.4c-0.1-0.1-0.2-0.3-0.2-0.6
			c0-0.3,0.2-0.7,0.6-1.1c0.2-0.2,0.6-0.6,1.2-0.9c-0.5-0.2-0.9-0.5-1.2-0.8c-0.4-0.5-0.6-1.1-0.6-1.8c0-1.2,0.4-2.2,1.3-3
			c0.9-0.8,2-1.2,3.3-1.2c0.7,0,1.3,0.1,1.7,0.3c0.5,0.2,0.7,0.4,0.8,0.6h1.5v1h-1.1c0,0.2,0.1,0.3,0.1,0.5c0,0.1,0,0.3,0,0.6
			c0,1.3-0.5,2.3-1.4,3.1c-0.9,0.7-2,1.1-3,1.1c-0.1,0-0.2,0-0.3,0c-0.1,0-0.2,0-0.4-0.1c-0.1,0-0.3,0.1-0.5,0.3
			c-0.2,0.2-0.3,0.4-0.3,0.6c0,0.3,0.8,0.7,2.5,1.4c1.6,0.7,2.5,1.6,2.5,2.9c0,1-0.4,1.8-1.2,2.5C72.2,79.6,71,80,69.3,80
			c-1.2,0-2.1-0.3-2.7-0.8s-1-1.2-1-1.9C65.6,76.7,65.8,76.1,66.2,75.6z M72,78.8c0.6-0.5,0.9-1,0.9-1.6c0-0.5-0.2-0.9-0.5-1.2
			c-0.2-0.2-0.4-0.4-0.8-0.6c-0.3-0.2-0.8-0.4-1.6-0.7c-0.7-0.3-1.2-0.4-1.3-0.4c-0.2,0-0.6,0.3-1.1,0.8s-0.8,1.2-0.8,1.9
			c0,1.1,0.4,1.8,1.3,2.2c0.4,0.2,1,0.3,1.7,0.3C70.6,79.5,71.4,79.2,72,78.8z M69.6,70c0.2,0.5,0.7,0.7,1.3,0.7
			c0.7,0,1.3-0.5,1.8-1.4c0.5-0.9,0.8-1.9,0.8-3c0-0.5-0.1-0.9-0.3-1.2c-0.2-0.3-0.5-0.4-1-0.4c-0.8,0-1.5,0.5-2,1.4
			c-0.5,1-0.8,1.9-0.8,2.7C69.4,69.3,69.4,69.7,69.6,70z"/>
		<path class="st0" d="M77.3,74.9l1.9-7.4c0.2-0.6,0.3-1,0.3-1.1s0-0.3,0-0.4c0-0.2-0.1-0.4-0.2-0.5c-0.1-0.1-0.4-0.2-0.7-0.2
			c-0.1,0-0.2,0-0.3,0s-0.2,0-0.3,0v-0.4c0.5-0.1,0.8-0.1,1-0.2c0.2,0,0.4-0.1,0.7-0.1l2-0.5c0,0,0.1,0.1,0.1,0.1l-1.5,5.2
			c0.9-1.5,1.7-2.6,2.3-3.3c1.1-1.3,2.1-1.9,2.9-1.9c0.3,0,0.6,0.1,0.9,0.2c0.5,0.3,0.7,0.7,0.7,1.4c0,0.2,0,0.4-0.1,0.6
			c0,0.2-0.1,0.4-0.1,0.7l-1.5,5.7c0,0.1-0.1,0.3-0.1,0.4c0,0.2-0.1,0.3-0.1,0.4c0,0.1,0,0.2,0.1,0.3c0.1,0.1,0.1,0.1,0.3,0.1
			c0.2,0,0.4-0.1,0.6-0.4c0.2-0.2,0.6-0.8,1.2-1.6l0.3,0.3c-0.6,0.9-1.1,1.5-1.4,1.9c-0.6,0.6-1.2,0.9-1.7,0.9
			c-0.2,0-0.5-0.1-0.7-0.3c-0.2-0.2-0.3-0.5-0.3-1c0-0.1,0-0.3,0-0.4c0-0.2,0-0.3,0.1-0.4l1.4-5.8c0.1-0.3,0.1-0.6,0.2-0.8
			c0-0.2,0-0.3,0-0.4c0-0.2,0-0.4-0.1-0.5c-0.1-0.1-0.2-0.2-0.5-0.2c-0.6,0-1.3,0.5-2.2,1.6c-0.5,0.6-1,1.4-1.5,2.3
			c-0.4,0.7-0.7,1.4-0.9,2c-0.2,0.7-0.6,1.9-1.1,3.6H77.3z"/>
		<path class="st0" d="M93.6,64.1c0,0,0.1,0.1,0.1,0.1l-2.3,8.6c-0.1,0.5-0.2,0.7-0.2,0.8c0,0.1,0,0.2,0.1,0.3
			c0,0.1,0.1,0.1,0.3,0.1c0.3,0,0.6-0.2,1-0.7c0.2-0.3,0.6-0.7,0.9-1.2l0.3,0.3l-0.1,0.2c-0.6,0.8-1,1.4-1.4,1.8
			c-0.6,0.6-1.1,0.9-1.7,0.9c-0.3,0-0.6-0.1-0.8-0.4s-0.3-0.6-0.3-1c0-0.2,0-0.4,0-0.6c0-0.2,0.1-0.4,0.2-0.8l1.6-6.2
			c0-0.1,0-0.2,0.1-0.3c0-0.1,0-0.2,0-0.2c0-0.3-0.1-0.5-0.3-0.5c-0.2-0.1-0.6-0.1-1.2-0.1v-0.4c0.6-0.1,1.1-0.1,1.3-0.2
			c0.3,0,0.5-0.1,0.8-0.1c0.4-0.1,0.7-0.1,1-0.2C93.4,64.1,93.6,64,93.6,64.1z M92.6,61.1c-0.2-0.3-0.3-0.6-0.3-0.9
			c0-0.4,0.1-0.7,0.3-0.9c0.2-0.3,0.5-0.4,0.8-0.4c0.3,0,0.6,0.1,0.8,0.4c0.2,0.3,0.3,0.6,0.3,0.9c0,0.4-0.1,0.7-0.3,0.9
			c-0.2,0.3-0.5,0.4-0.8,0.4C93,61.4,92.8,61.3,92.6,61.1z"/>
		<path class="st0" d="M97.8,66.6c1.5-1.7,3-2.5,4.6-2.5c0.6,0,1,0.1,1.4,0.4c0.3,0.3,0.5,0.7,0.5,1.3c0,1.1-0.6,2.1-1.9,2.9
			c-1.3,0.8-2.6,1.3-4,1.5l-0.6,0.1c-0.1,0.3-0.2,0.6-0.2,0.8c0,0.2-0.1,0.4-0.1,0.7c0,0.7,0.2,1.2,0.6,1.6s0.9,0.6,1.5,0.6
			c0.6,0,1.2-0.2,1.8-0.6c0.4-0.2,0.9-0.6,1.6-1.2l0.3,0.3c-0.3,0.5-0.8,0.9-1.5,1.4c-1.1,0.9-2.2,1.3-3.4,1.3
			c-0.8,0-1.5-0.3-2.1-0.9c-0.6-0.6-0.9-1.5-0.9-2.6C95.5,70,96.3,68.3,97.8,66.6z M101.4,68.2c0.9-0.8,1.3-1.7,1.3-2.5
			c0-0.3-0.1-0.5-0.2-0.7c-0.1-0.2-0.3-0.3-0.6-0.3c-0.5,0-1,0.2-1.4,0.7c-0.5,0.4-0.9,0.9-1.3,1.5c-0.4,0.7-0.7,1.3-0.9,1.9
			c-0.1,0.3-0.3,0.7-0.4,1.1C99.3,69.6,100.5,69,101.4,68.2z"/>
	</g>
</g>
</svg>
