<?xml version="1.0" encoding="utf-8"?>
<!-- Generator: Adobe Illustrator 25.4.1, SVG Export Plug-In . SVG Version: 6.00 Build 0)  -->
<svg version="1.1" id="Layer_4" xmlns="http://www.w3.org/2000/svg" xmlns:xlink="http://www.w3.org/1999/xlink" x="0px" y="0px"
	 viewBox="0 0 75.99 80.27" style="enable-background:new 0 0 75.99 80.27;" xml:space="preserve">
<style type="text/css">
	.st0{fill:#2B5B83;}
</style>
<path class="st0" d="M0,43.61c7.52-3.74,14.88-6.97,21.73-9.42c7.44-2.66,22.17-7.26,33.26-5.16c4.1,0.78,6.92,2.32,8.36,4.84
	c1.4,2.45,1.43,5.49,0,9.1c-1.41,3.56-4.03,7.42-7.85,11.75c-3.7,4.19-8.46,8.5-14.21,12.78C35.33,71.92,28.75,76,21.73,80l1.5-0.77
	c7.52-4,14.14-8.28,20.56-12.91c6.11-4.4,11.17-8.91,15.38-13.36c4.15-4.39,6.95-8.44,8.53-12.13c1.6-3.73,1.44-6.96,0-9.49
	c-1.4-2.45-3.78-4.56-8.36-4.84c-14.1-0.85-25.63,2.58-35.27,6.13c-7.35,2.71-14.87,6.13-22.4,10.13L0,43.61z"/>
<path class="st0" d="M7.35,17.48c7.19-3.87,14.37-7.1,21.4-9.55c7.45-2.6,22.35-7.39,33.43-5.16c3.84,0.77,6.59,2.46,8.02,4.97
	c1.41,2.46,1.42,5.48,0,9.03c-1.42,3.54-3.77,7.49-7.52,11.68c-3.77,4.2-8.39,8.54-14.21,12.84c-5.72,4.22-11.87,8.26-18.89,12.13
	c0.17-0.11,0.33-0.21,0.5-0.33c7.52-4,14.47-8.4,20.89-13.03c6.11-4.4,11.23-8.9,15.38-13.29c4.2-4.45,6.84-8.4,8.36-12.2
	c1.5-3.75,1.77-6.85,0.33-9.35c-1.41-2.46-4.34-4.22-8.69-4.84C53.9-1.39,39.62,3.47,31.26,6.44C23.77,9.1,16.55,12.57,9.03,16.51
	C8.47,16.83,7.91,17.15,7.35,17.48"/>
</svg>
