<?xml version="1.0" encoding="utf-8"?>
<!-- Generator: Adobe Illustrator 25.4.1, SVG Export Plug-In . SVG Version: 6.00 Build 0)  -->
<svg version="1.1" id="Layer_4" xmlns="http://www.w3.org/2000/svg" xmlns:xlink="http://www.w3.org/1999/xlink" x="0px" y="0px"
	 viewBox="0 0 298.82 80.27" style="enable-background:new 0 0 298.82 80.27;" xml:space="preserve">
<style type="text/css">
	.st0{fill:#2B5B83;}
</style>
<g id="layer1" transform="translate(40.95592,-424.03411)">
	<path id="path172" class="st0" d="M257.17,488.04l-1.79,0.85c-0.08-0.33-0.25-0.6-0.5-0.83c-0.25-0.23-0.54-0.34-0.87-0.34
		c-0.36,0-0.7,0.12-1.04,0.37c-0.33,0.24-0.52,0.55-0.57,0.9c-0.03,0.15-0.04,0.28-0.01,0.4c0.02,0.12,0.09,0.24,0.18,0.35
		c0.1,0.11,0.18,0.21,0.27,0.29c0.08,0.08,0.22,0.17,0.41,0.27c0.2,0.1,0.34,0.17,0.43,0.22c0.09,0.05,0.27,0.13,0.52,0.24
		c0.26,0.12,0.44,0.19,0.54,0.22c0.77,0.34,1.35,0.76,1.75,1.25c0.4,0.49,0.53,1.17,0.38,2.05c-0.16,1.08-0.68,1.97-1.55,2.68
		c-0.87,0.71-1.85,1.06-2.92,1.06c-0.96,0-1.76-0.26-2.4-0.77c-0.64-0.51-1.04-1.23-1.2-2.14l1.86-0.73
		c0.18,0.6,0.41,1.06,0.71,1.37c0.29,0.31,0.74,0.46,1.34,0.46c0.52,0,0.99-0.16,1.39-0.49c0.41-0.33,0.65-0.75,0.73-1.27
		c0.06-0.39-0.01-0.73-0.22-1.03c-0.21-0.29-0.5-0.52-0.86-0.68c-0.36-0.16-0.75-0.34-1.16-0.55c-0.42-0.2-0.8-0.41-1.15-0.63
		c-0.35-0.21-0.62-0.52-0.81-0.94c-0.19-0.41-0.24-0.91-0.16-1.48c0.16-0.94,0.62-1.72,1.38-2.33c0.76-0.61,1.62-0.92,2.58-0.92
		c0.64,0,1.21,0.2,1.71,0.6C256.67,486.91,257.01,487.42,257.17,488.04 M247.51,492.39h-9.02c-0.16,1.08,0.05,1.99,0.64,2.73
		c0.59,0.74,1.43,1.11,2.52,1.11c1.45,0,2.74-0.79,3.87-2.37l1.51,0.96c-0.72,1.02-1.58,1.82-2.58,2.38c-1,0.56-2.08,0.84-3.24,0.84
		c-1.68,0-2.95-0.57-3.81-1.7c-0.85-1.13-1.15-2.54-0.89-4.22c0.3-1.78,1.03-3.26,2.2-4.44c1.17-1.18,2.63-1.77,4.38-1.77
		c0.88,0,1.66,0.17,2.33,0.52c0.67,0.35,1.18,0.83,1.53,1.43c0.34,0.6,0.57,1.3,0.69,2.08C247.74,490.73,247.7,491.54,247.51,492.39
		 M238.83,490.73h6.87c0-0.85-0.27-1.56-0.82-2.14c-0.55-0.58-1.24-0.87-2.08-0.87c-0.84,0-1.65,0.3-2.42,0.88
		C239.6,489.19,239.09,489.9,238.83,490.73 M227.5,486.23l-0.22,1.39h0.05c1.02-1.14,2.22-1.71,3.57-1.71c0.75,0,1.37,0.13,1.87,0.4
		c0.5,0.27,0.84,0.63,1.03,1.09c0.19,0.46,0.3,0.99,0.34,1.59c0.04,0.6,0,1.24-0.13,1.91l-1.08,6.82h-1.96l1.03-6.48
		c0.06-0.44,0.11-0.81,0.14-1.09c0.02-0.29,0.02-0.6-0.01-0.94c-0.03-0.34-0.12-0.61-0.26-0.81c-0.14-0.2-0.35-0.36-0.64-0.49
		c-0.28-0.13-0.65-0.2-1.09-0.2c-0.52,0-0.98,0.1-1.38,0.3c-0.4,0.19-0.72,0.43-0.95,0.71c-0.24,0.28-0.44,0.64-0.62,1.08
		c-0.18,0.44-0.31,0.84-0.39,1.19c-0.08,0.35-0.16,0.78-0.24,1.28l-0.86,5.46h-1.96l1.81-11.49L227.5,486.23L227.5,486.23z
		 M221.44,486.23l-1.8,11.49h-1.95l1.8-11.49L221.44,486.23L221.44,486.23z M220.33,480.92c0.32-0.28,0.67-0.42,1.05-0.42
		c0.38,0,0.69,0.14,0.91,0.42c0.23,0.28,0.31,0.6,0.24,0.98c-0.05,0.39-0.23,0.72-0.55,0.99c-0.32,0.27-0.66,0.4-1.04,0.4
		c-0.38,0-0.69-0.14-0.91-0.4c-0.23-0.27-0.32-0.6-0.27-0.99C219.83,481.53,220.02,481.2,220.33,480.92 M216.89,477.55l-3.2,20.18
		h-1.96l3.2-20.18H216.89L216.89,477.55z M207.25,486.23l-0.19,1.25h0.05c0.5-0.54,0.95-0.93,1.34-1.18
		c0.39-0.25,0.88-0.38,1.47-0.38c0.54,0,1.09,0.18,1.66,0.54l-1.22,1.79c-0.01-0.02-0.06-0.06-0.15-0.12
		c-0.08-0.06-0.14-0.11-0.17-0.13c-0.03-0.03-0.08-0.06-0.16-0.1c-0.07-0.04-0.14-0.07-0.18-0.09c-0.05-0.01-0.11-0.03-0.18-0.05
		c-0.07-0.01-0.15-0.02-0.23-0.02c-0.41,0-0.78,0.11-1.11,0.32c-0.33,0.21-0.6,0.46-0.78,0.73c-0.19,0.28-0.36,0.63-0.51,1.07
		c-0.16,0.44-0.26,0.81-0.33,1.1c-0.06,0.3-0.13,0.64-0.19,1.03l-0.91,5.75h-1.96l1.81-11.49L207.25,486.23L207.25,486.23z
		 M201.31,486.23l-1.81,11.49h-1.96l1.81-11.49L201.31,486.23L201.31,486.23z M200.19,480.92c0.32-0.28,0.67-0.42,1.05-0.42
		c0.38,0,0.69,0.14,0.92,0.42c0.23,0.28,0.31,0.6,0.25,0.98c-0.05,0.39-0.23,0.72-0.55,0.99c-0.32,0.27-0.67,0.4-1.05,0.4
		c-0.38,0-0.69-0.14-0.92-0.4s-0.32-0.6-0.27-0.99C199.69,481.53,199.88,481.2,200.19,480.92 M195.36,486.23l-1.81,11.49h-1.96
		l0.25-1.59h-0.05c-1.21,1.27-2.63,1.91-4.26,1.91c-1.09,0-2.02-0.29-2.78-0.86c-0.76-0.57-1.28-1.31-1.58-2.21
		c-0.3-0.9-0.36-1.89-0.2-2.97c0.28-1.69,1.01-3.14,2.2-4.32c1.19-1.18,2.62-1.77,4.31-1.77c0.77,0,1.46,0.17,2.09,0.51
		c0.63,0.34,1.14,0.82,1.53,1.44h0.05l0.24-1.64L195.36,486.23L195.36,486.23z M189.42,487.72c-1.11,0-2.08,0.41-2.9,1.22
		s-1.33,1.79-1.5,2.91c-0.19,1.19-0.02,2.22,0.51,3.08c0.54,0.86,1.39,1.3,2.57,1.3c1.2,0,2.21-0.42,3.02-1.26
		c0.81-0.84,1.31-1.87,1.5-3.09c0.18-1.19-0.02-2.18-0.59-2.97C191.47,488.12,190.6,487.72,189.42,487.72 M257.86,459.81h-2.8v3.09
		c-1.25-2.43-3.28-3.68-6.04-3.68c-4.6,0-7.73,3.35-7.73,8.87c0,5.38,3.16,8.88,7.87,8.88c2.54,0,4.64-1.29,5.96-3.69v2.98h2.72
		V459.81L257.86,459.81z M255.14,468.21c0,3.79-2.06,5.96-5.37,5.96c-3.49,0-5.48-2.24-5.48-6.22c0-3.76,1.99-5.93,5.37-5.93
		C252.82,462.02,255.14,464.38,255.14,468.21 M236.26,476.27h2.8v-11.19c0-3.72-2.21-5.85-5.85-5.85c-2.5,0-4.41,1.07-5.85,3.35
		c-0.96-2.21-2.87-3.35-5.52-3.35c-2.47,0-4.34,1.03-5.66,3.13v-2.54h-2.8v16.45h2.8v-8.5c0-0.4-0.04-0.81-0.04-1.18
		c0-1.25,0.15-2.28,0.85-3.16c0.88-1.14,2.24-1.77,3.75-1.77c2.8,0,4.09,1.62,4.09,4.93v9.68h2.8v-8.5c0-0.37-0.04-0.7-0.04-1.03
		c0-1.36,0.18-2.39,0.89-3.31c0.88-1.14,2.21-1.77,3.71-1.77c2.8,0,4.09,1.62,4.09,4.93V476.27L236.26,476.27z M209.76,459.81h-2.8
		v3.09c-1.25-2.43-3.28-3.68-6.03-3.68c-4.6,0-7.73,3.35-7.73,8.87c0,5.38,3.16,8.88,7.87,8.88c2.54,0,4.64-1.29,5.97-3.69v2.98
		h2.72L209.76,459.81L209.76,459.81z M207.04,468.21c0,3.79-2.06,5.96-5.38,5.96c-3.49,0-5.48-2.24-5.48-6.22
		c0-3.76,1.99-5.93,5.37-5.93C204.72,462.02,207.04,464.38,207.04,468.21 M183.6,476.26h2.8v-8.02c0-4.3,1.48-6.44,4.45-6.44
		c0.51,0,1.1,0.11,1.73,0.33l0.96-2.54c-0.63-0.22-1.25-0.33-1.91-0.33c-2.5,0-4.05,1.18-5.52,3.98v-3.42h-2.5L183.6,476.26
		L183.6,476.26z M163.32,468.09c0,2.39,0.88,4.53,2.61,6.26c1.69,1.7,3.9,2.62,6.33,2.62c2.39,0,4.6-0.96,6.33-2.62
		c1.69-1.69,2.61-3.86,2.61-6.26c0-2.39-0.92-4.6-2.61-6.26c-1.73-1.69-3.9-2.61-6.33-2.61s-4.64,0.88-6.33,2.57
		C164.2,463.5,163.32,465.7,163.32,468.09 M166.3,468.09c0-3.49,2.65-6.22,5.96-6.22c3.28,0,5.93,2.72,5.93,6.22
		c0,3.5-2.65,6.22-5.93,6.22C168.99,474.32,166.3,471.59,166.3,468.09 M146.17,476.26h2.8v-8.5c0-1.81,0-3.16,0.96-4.34
		c0.92-1.14,2.35-1.77,4.01-1.77c2.94,0,4.38,1.62,4.38,4.93v9.68h2.8v-11.19c0-3.72-2.35-5.85-6.18-5.85
		c-2.58,0-4.57,0.99-5.96,3.13v-2.54h-2.8V476.26L146.17,476.26z M142.56,459.81h-2.8v3.09c-1.25-2.43-3.28-3.68-6.03-3.68
		c-4.6,0-7.73,3.35-7.73,8.87c0,5.38,3.16,8.88,7.87,8.88c2.54,0,4.64-1.29,5.97-3.69v2.98h2.72L142.56,459.81L142.56,459.81z
		 M139.84,468.21c0,3.79-2.06,5.96-5.38,5.96c-3.49,0-5.48-2.24-5.48-6.22c0-3.76,1.99-5.93,5.37-5.93
		C137.52,462.02,139.84,464.38,139.84,468.21 M114.96,461.62v-8.8h1.51c4.56,0,6.81,0.74,6.81,4.56c0,3.64-2.28,4.23-6.81,4.23
		H114.96z M114.96,464.45h2.39c2.72,0,4.86-0.07,6.62-1.33c1.66-1.18,2.69-3.35,2.69-5.93s-1.03-4.75-2.69-5.93
		c-1.77-1.25-3.94-1.32-6.62-1.32h-5.52v26.31h3.13L114.96,464.45L114.96,464.45z M99.58,468.46v-0.55c0-5.45-3.09-8.72-7.91-8.72
		c-4.78,0-8.21,3.61-8.21,8.8c0,5.37,3.39,8.99,8.39,8.99c3.39,0,5.96-1.51,7.62-4.49l-2.13-1.44c-1.36,2.39-3.13,3.57-5.34,3.57
		c-3.16,0-5.45-2.32-5.45-5.89v-0.26L99.58,468.46L99.58,468.46z M96.56,466.18H86.55c0.3-2.8,2.32-4.53,5-4.53
		C94.54,461.66,96.38,463.27,96.56,466.18 M69.36,459.81h-2.8v9.83c0,4.82,2.61,7.33,7.4,7.33c4.93,0,7.51-2.58,7.51-7.55v-9.61
		h-2.8v8.1c-0.07,4.34-1.03,6.37-4.64,6.37c-3.61,0-4.67-2.02-4.67-6.37V459.81L69.36,459.81z M60.05,476.27h2.8v-30.53h-2.8V476.27
		z M44.67,452.68h2.35c4.16,0,6.07,0.77,6.07,4.56c0,3.2-1.84,4.23-6.07,4.23h-2.35V452.68z M44.67,463.94h3.28
		c1.62,0,2.91,0.04,4.01,0.7c1.43,0.81,2.17,2.25,2.17,4.16c0,1.66-0.66,3.09-1.73,3.86c-1.14,0.81-2.87,0.89-5.37,0.89h-2.35
		L44.67,463.94L44.67,463.94z M41.54,476.27h5.48c3.76,0,6.33-0.11,8.24-1.99c1.33-1.32,2.17-3.31,2.17-5.48
		c0-3.53-1.95-6-5.04-6.48c2.5-0.74,3.9-2.65,3.9-5.45c0-2.35-0.99-4.38-2.65-5.59c-1.66-1.21-3.75-1.33-6.63-1.33h-5.48
		L41.54,476.27L41.54,476.27z M-40.96,467.64c7.52-3.74,14.88-6.97,21.73-9.42c7.44-2.66,22.17-7.26,33.26-5.16
		c4.1,0.78,6.92,2.32,8.36,4.84c1.4,2.45,1.43,5.49,0,9.1c-1.41,3.56-4.03,7.42-7.85,11.75c-3.7,4.19-8.46,8.5-14.21,12.78
		c-5.95,4.43-12.54,8.52-19.56,12.52l1.5-0.77c7.52-4,14.14-8.28,20.56-12.91c6.11-4.4,11.17-8.91,15.38-13.36
		c4.15-4.39,6.95-8.44,8.53-12.13c1.6-3.73,1.44-6.96,0-9.49c-1.4-2.45-3.78-4.56-8.36-4.84c-14.1-0.85-25.63,2.58-35.27,6.13
		c-7.35,2.71-14.87,6.13-22.4,10.13L-40.96,467.64z M-33.6,441.51c7.19-3.87,14.37-7.1,21.4-9.55c7.45-2.6,22.35-7.39,33.43-5.16
		c3.84,0.77,6.59,2.46,8.02,4.97c1.41,2.46,1.42,5.48,0,9.03c-1.42,3.54-3.77,7.49-7.52,11.68c-3.77,4.2-8.39,8.54-14.21,12.84
		c-5.72,4.22-11.87,8.26-18.89,12.13c0.17-0.11,0.33-0.21,0.5-0.33c7.52-4,14.47-8.4,20.89-13.03c6.11-4.4,11.23-8.9,15.38-13.29
		c4.2-4.45,6.84-8.4,8.36-12.2c1.5-3.75,1.77-6.85,0.33-9.35c-1.41-2.46-4.34-4.22-8.69-4.84c-12.46-1.77-26.74,3.09-35.1,6.06
		c-7.49,2.66-14.71,6.13-22.23,10.07C-32.49,440.86-33.04,441.19-33.6,441.51"/>
</g>
</svg>
