<?xml version="1.0" encoding="utf-8"?>
<!-- Generator: Adobe Illustrator 26.0.0, SVG Export Plug-In . SVG Version: 6.00 Build 0)  -->
<svg version="1.1" id="Layer_1" xmlns="http://www.w3.org/2000/svg" xmlns:xlink="http://www.w3.org/1999/xlink" x="0px" y="0px"
	 viewBox="0 0 54.94 80" style="enable-background:new 0 0 54.94 80;" xml:space="preserve">
<style type="text/css">
	.st0{fill:#C52B2A;}
	.st1{fill:#F9A11B;}
	.st2{fill:#56BFE3;}
	.st3{fill:#57B746;}
	.st4{fill:#A94399;}
	.st5{fill:#E66CA9;}
	.st6{fill:#F4DC0C;}
	.st7{fill:#DD2827;}
	.st8{fill:#E8DC57;}
	.st9{fill:#66B9DA;}
	.st10{fill:#66BFD7;}
	.st11{fill:#51BCE4;}
</style>
<g>
	<g>
		<path class="st0" d="M6.12,40.61c-0.1,0.02-0.21,0.04-0.33,0.06C5.91,40.65,6.02,40.63,6.12,40.61z"/>
	</g>
	<g>
		<path class="st1" d="M34.36,49.49c0,0-2.2,3.97-2.55,4.26c-0.35,0.29,2.24,1.16,2.95,1.8c0.71,0.64,1.02,1.69,2.44,1.38
			c0,0-1.86,3.2-1.66,4.8c0,0,3.35-3.78,4.2-5.62c0.86-1.84,2.46-7.97,2.93-9.32c0.47-1.35,0.99-2.14,0.99-2.14
			s-2.75,0.79-2.93,0.91c-0.18,0.13-4.89,2.47-4.89,2.47L34.36,49.49z"/>
	</g>
	<g>
		<path class="st2" d="M32.16,66.19c0,0-0.07-1.75,1.78-4.69c1.86-2.95,5.43-8.13,7.02-11.23c0,0-0.08,2.1-0.22,2.13
			c-0.14,0.04-2.98,4.69-4.11,6.17C35.51,60.04,32.16,66.19,32.16,66.19z"/>
	</g>
	<g>
		<path class="st3" d="M34.56,67.05c0,0-0.09,0.44-0.07,0.69c0.02,0.25,2.89-4.21,4.39-8.76c0,0,0.99-2.41,1.03-2.52
			s0.33-2.31,0.33-2.31s-0.2-0.53-0.61-0.09s-0.32,0.5-0.32,0.5s0.68-0.48,0.66-0.12C39.95,54.8,37.76,62.17,34.56,67.05z"/>
	</g>
	<g>
		<path class="st4" d="M33.24,51.94c-0.19,0-0.33-0.04-0.43-0.11c-0.12-0.08-0.16-0.21-0.14-0.37c0.02-0.13,0.18-0.44,0.49-1.08
			c0.79-1.59,2.25-4.56,2.3-6.49c0.02-0.8-0.15-1.29-0.51-1.46c-0.61-0.29-1.8,0.31-3.46,1.72c-2.18,1.87-4.1,4.18-4.12,4.21
			c-0.03,0.03-0.08,0.04-0.11,0.01c-0.03-0.03-0.04-0.08-0.01-0.11c0.02-0.02,1.95-2.35,4.14-4.23c1.73-1.48,2.95-2.07,3.63-1.75
			c0.42,0.2,0.63,0.74,0.61,1.61c-0.05,1.96-1.52,4.95-2.32,6.55c-0.26,0.52-0.46,0.93-0.48,1.04c-0.02,0.09,0.01,0.16,0.07,0.21
			c0.21,0.15,1.09,0.29,4.78-1.7c2.44-1.32,4.15-3.96,5.65-6.29l0.08-0.12c0.8-1.25,1.57-2.54,2.31-3.8l0.01-0.02
			c0.14-0.24,0.27-0.48,0.41-0.73c0.5-0.91,1.02-1.85,1.83-2.5c0.29-0.23,0.85-0.6,1.31-0.44c0.26,0.09,0.44,0.31,0.54,0.68
			c0.01,0.04-0.01,0.09-0.06,0.1c-0.04,0.01-0.09-0.01-0.1-0.06c-0.08-0.31-0.23-0.5-0.43-0.57c-0.29-0.09-0.71,0.06-1.16,0.42
			c-0.79,0.63-1.3,1.55-1.79,2.45c-0.14,0.25-0.28,0.5-0.42,0.74l-0.01,0.02c-0.74,1.26-1.51,2.56-2.32,3.8l-0.08,0.12
			c-1.51,2.35-3.23,5.01-5.71,6.35C35.56,51.33,34.02,51.94,33.24,51.94z"/>
	</g>
	<g>
		<path class="st2" d="M52.23,66.9c0,0-0.2-0.07-0.45-0.18c-0.23-0.1-0.5-0.23-0.67-0.36c0,0-0.01,0.04-0.02,0.1c0,0,0,0,0,0
			c-0.04,0.19-0.15,0.62-0.34,0.75c0,0-1.16-0.59-1.42-0.88c-0.01-0.01-0.01-0.02-0.02-0.02c0,0,0,0.02,0.01,0.05
			c0.03,0.19,0.13,0.9-0.04,1.18l-0.46-0.26l-0.6-0.34c0,0,0.08,0.93-0.11,1.09c0,0-0.3-0.14-0.55-0.32c0,0,0,0,0,0
			c-0.11-0.08-0.21-0.17-0.27-0.25c0,0-0.11,0.58-0.46,0.99c-0.03,0.04-0.07,0.09-0.11,0.12l-0.11-0.38l-0.65,0.6l0.14-2.65
			l1.19-6.79l0.94-1.97c0,0,0.27,0.36,0.69,0.9c0.13,0.18,0.28,0.37,0.43,0.58c0.41,0.54,0.88,1.18,1.34,1.8
			c0.29,0.39,0.57,0.78,0.83,1.14c0.59,0.82,1.05,1.49,1.17,1.74C53.08,64.36,52.23,66.9,52.23,66.9z"/>
	</g>
	<g>
		<path class="st4" d="M46.8,54.98c0,0,0.32,0.19,0,1.33c-0.32,1.15-1.74,6.85-1.63,10.12c0.11,3.27-0.01,2.73-0.01,2.73
			s-1.41,0.05-1.71-0.55s0.11,0.72-0.19,0.58c-0.3-0.14-0.11-2.94,0-4.38c0.11-1.44,0.83-3.84,0.83-3.84L46.8,54.98z"/>
	</g>
	<g>
		<path class="st5" d="M34.96,71.21c0,0,0.82-0.05,1.48-0.6c0,0,0.05,0.98,1.01,1.17c0,0,1.04-0.46,1.99-1.66
			c0,0,0.48,0.76,1.47,0.83c0,0,3.28-8.5,3.99-10.49c0.71-1.99,1.23-3.73,1.61-4.35c0.38-0.62,0.33-1.17,0.22-1.52
			c-0.11-0.35,0.68-0.38,0.82-0.27s2.97,3.38,4.61,5.68s2.18,4.5,1.88,6.28s-1.06,2.07-0.44,1.91c0.63-0.16,0.68,0.16,0.52,0.82
			s-3.16,4.8-4.72,6.22c-1.56,1.42-2.21,2.07-2.18,2.21s0.16,0.35,1.09,0.33c0.93-0.03,5.29-1.06,5.54-1.15
			c0.25-0.08-0.08,2.57-0.87,3.14c0,0-0.41-0.25-0.46-0.41c-0.05-0.16-0.25,0.08,0.08,0.41c0.33,0.33,0.52,0.33,0.76,0
			c0.25-0.33,0.94-1.94,0.84-3.3c0,0,0.91-0.65,0.72-1.01c-0.19-0.35-1.12-0.76-1.36-0.55s0.11,1.36,0.11,1.36s-3.63,1.17-5.35,1.15
			s-0.14-0.57,1.69-2.43c1.83-1.86,4.39-5.21,4.5-6.6c0.11-1.39-0.63-0.63-0.63-0.63s0.71-1.61,0.71-3.3c0-1.69-1.8-5.13-2.89-6.52
			s-3.85-5.29-4.72-4.73c-0.87,0.56-1.17,0.75-1.17,0.75l-2.29,2.32c0,0-2.02,3.03-2.05,3.14S34.96,71.21,34.96,71.21z"/>
	</g>
	<g>
		<path class="st3" d="M45.85,53.01c0,0,0.3,0.11,0.25,0.74c-0.05,0.63-1.09,1.94-2.27,3.14s-4.48,7.42-5.59,9.22
			s-2.71,4.72-3.28,5.1c0,0-0.57-0.03-0.75-0.6c0,0,0.56-0.79,0.97-1.61c0.41-0.82,3.8-7.97,3.8-7.97l4.55-7.56L45.85,53.01z"/>
	</g>
	<g>
		<path class="st5" d="M45.06,43.22c0,0-2.15,3.99-2.11,4.86c0.04,0.87,3.29,4.12,3.36,4.38c0,0-0.67-0.3-0.67-0.07
			c0,0.23,0.21,0.61,0.21,0.61s-2.62,1.76-5.29,6.6S35.18,69,35.18,69s4.36-11.32,4.57-12.89c0.21-1.57,1-5.07,1-5.07
			s1.15-4.15,1.26-4.26c0.11-0.11,1.12-2.32,1.12-2.32L45.06,43.22z"/>
	</g>
	<g>
		<path class="st3" d="M46.53,45.94c0,0,2.29-1.48,0.71-1.84C45.66,43.73,46.53,45.94,46.53,45.94z"/>
	</g>
	<g>
		<path class="st3" d="M47.88,43.24c0,0,1.08-0.33,1.24-1.38c0.16-1.05-0.42-1.3-0.42-1.3s-1.42,0.51-1.41,0.57
			c0.01,0.07,0.34,2.1,0.34,2.1H47.88z"/>
	</g>
	<g>
		<path class="st4" d="M50.9,22.45c0,0,0.62,0.27,0.2,1.5s-0.72,1.33-0.72,1.33s0.78,0.03,0.43,1.09s-0.92,2.01-0.92,2.01
			s0.58,0.33,0.26,1.04s-0.86,1.75-0.86,1.75s0.76-0.46,0.71,0.14c-0.05,0.6-0.71,1.94-0.71,1.94s0.79-0.36,0.71,0.34
			c-0.08,0.7-0.46,1.75-0.46,1.75s0.41-0.12,0.46,0.53c0.05,0.65-0.71,1.83-0.71,1.83s0.57,0.43,0.35,1.3s-0.94,1.59-0.94,1.59
			s-0.37,1.99-0.89,2.47c0,0,0.22,0.48,0,0.75c-0.22,0.27-0.57,0.31-0.57,0.31s0.03,0.64-0.38,1.08c-0.41,0.44-0.33,0.76-0.33,0.76
			l-0.96,0.03l-0.14-1.13l1.26-8.99l1.66-6.77l1.42-4.77L50.9,22.45z"/>
	</g>
	<g>
		<path class="st3" d="M51.58,19.66c0,0-0.14,1.83-0.68,2.78c0,0-0.99,1.99-2.74,9.09s-2.55,12.17-2.58,14.44
			c0,0-0.27,0.38-0.68,0.25c0,0,0.03-0.93,0.16-2.99c0.14-2.06,0.76-10.14,0.76-10.14s2.74-9.42,2.88-9.57s2.17-3.86,2.17-3.86
			H51.58z"/>
	</g>
	<g>
		<path class="st2" d="M29.46,47.27c0,0-0.21,4.98,2.36,6.48l0.45-0.68c0,0-1.17-1.36-1.53-2.66c-0.35-1.29-0.32-2.73-0.37-3.24
			s-0.37-0.36-0.37-0.36L29.46,47.27z"/>
	</g>
	<g>
		<path class="st3" d="M29.38,50.99l0.63,0.72c0,0,2.27-1.76,3.35-2.96c1.07-1.19,3.81-4.03,3.81-4.03l1.81-3.58
			c0,0-4.23,4.27-4.95,5.19C33.31,47.26,29.88,50.77,29.38,50.99z"/>
	</g>
	<g>
		<path class="st6" d="M43.23,30.96l-1.36,1.36c0,0-4.47,7.02-5.52,8.62c-1.06,1.6-3.58,5.35-5.02,6.6s-2.37,2-2.91,2.09l0.69,0.96
			c0,0,2.35-0.75,4.9-4.13c2.56-3.38,6.21-9.65,7.01-10.43c0.8-0.78,2.15-4.31,2.21-4.38C43.29,31.59,43.23,30.96,43.23,30.96z"/>
	</g>
	<g>
		<path class="st5" d="M41.78,21.41c0,0,0.3,2.62-1.36,7.12c-1.29,3.49-2.05,8.24-4,11.21s-6.01,8.7-8.31,9.22l0.25-0.63
			c0,0,3.22-2.38,4.49-4.24c0,0,2.68-3.47,3.94-6.26c1.26-2.79,2.98-9.03,3.08-9.62c0.1-0.58,0.75-4.57,0.75-4.57l0.26-0.45
			L41.78,21.41z"/>
	</g>
	<g>
		<path class="st4" d="M46.69,11.86c0,0-0.87,1.39-0.87,1.72s0.71,0.96,0.87,3.03c0.16,2.07,0.55-3.98,0.55-3.98L46.69,11.86z"/>
	</g>
	<g>
		<path class="st6" d="M47.73,14.4c0,0-0.28,2.65,0,6l0.7-1.88l0.28-1.31l-0.35-2.55L47.73,14.4z"/>
	</g>
	<g>
		<path class="st4" d="M49.05,17.21l-0.63,1.31c0,0-0.15-2.07,0-2.59C48.58,15.41,49.05,17.21,49.05,17.21z"/>
	</g>
	<g>
		<path class="st2" d="M47.4,10.6c0,0-0.71,1.01-0.71,1.26c0,0.25,2.54,6.22,3.3,6.85c0,0,0.03-1.47,0.15-2.02
			C50.27,16.14,47.4,10.6,47.4,10.6z"/>
	</g>
	<g>
		<path class="st4" d="M50.1,16.97c0,0-1.03,7.79-0.92,8.12c0,0,1.61-4.69,2.4-5.43l-0.87-2.46L50.1,16.97z"/>
	</g>
	<g>
		<path class="st3" d="M48.2,9.18c0,0-0.65,0.98-0.79,1.42c-0.14,0.44,3.14,7.64,4.18,9.06c0,0,0.22-1.01-0.35-1.58
			c0,0-0.06-0.22,0.3-0.87c0.37-0.66-0.08-1.88-0.08-1.88L48.2,9.18z"/>
	</g>
	<g>
		<path class="st6" d="M49.12,7.74c0,0-0.96,1.26-0.93,1.45c0.03,0.19,0.81,2.38,0.81,2.38s0.33-1.05,0.33-1.16
			S49.12,7.74,49.12,7.74z"/>
	</g>
	<g>
		<path class="st5" d="M50.95,4.87c0,0-1.64,2.46-1.83,2.87s-0.27,3.3-0.27,3.3s0.6,2.13,1.15,3.19s1.1-3.36,1.1-3.36
			s0.37-3.57,0.35-3.98C51.42,6.48,50.95,4.87,50.95,4.87z"/>
	</g>
	<g>
		<path class="st4" d="M50.95,4.87c0,0-0.38,6.49-0.44,7.34C50.46,13.06,50,14.23,50,14.23l1.53,2.97c0,0,0.95-1.06,0.59-3.49
			s-0.14-3.3-0.14-3.3L50.95,4.87z"/>
	</g>
	<g>
		<path class="st2" d="M52.18,2.83l-1.23,2.05c0,0-0.27,5.16,1.16,8.84c0,0,0.61-0.71,0.84-1.86S52.7,7.87,52.7,7.87l0.05-3.68
			L52.18,2.83z"/>
	</g>
	<g>
		<path class="st4" d="M53.74,5.15c0,0-0.22,0.3,0.13,0.63c0.35,0.33,0.42,2.4-0.7,3.52c0,0,0.61,1.58-0.22,2.57
			c0,0-1.13-3.85-0.77-9.03l0.93,0.48L53.74,5.15z"/>
	</g>
	<g>
		<path class="st3" d="M54.04,3.3c0,0,0.4,1.16-0.31,1.85l-1.56-2.32l0.77-1.09l0.43,0.14L54.04,3.3z"/>
	</g>
	<g>
		<path class="st3" d="M33.75,32.34c0,0-0.27,1.36-0.34,1.68c-0.07,0.32,2.33-1.85,2.34-1.9s1.52-2.11,1.52-2.11l1.51-3.59
			c0,0-0.62-0.01-0.65,0c-0.04,0.01-3.85,4.8-3.85,4.8L33.75,32.34z"/>
	</g>
	<g>
		<path class="st2" d="M39.78,23.16c0,0,0.47,0.29,0.42,0.8c-0.04,0.51-4.67,6.89-5.23,7.4s1.89-4.22,1.89-4.22l0.82-2.02
			L39.78,23.16z"/>
	</g>
	<g>
		<path class="st4" d="M37.63,26.36c0,0,1.77-2.65,1.95-2.84s0.29-0.28,0.27-0.42c-0.08-0.41-0.09-0.85-0.09-0.85l-1.02,0.86
			c0,0-0.67,1.7-0.73,1.75C37.94,24.91,37.63,26.36,37.63,26.36z"/>
	</g>
	<g>
		<path class="st5" d="M34.01,30.97c0,0-0.43,1.79-0.24,1.71s1.24-1.26,2.12-3.01c0.88-1.75,2.01-3.74,2.24-4.27
			s0.85-2.13,1.12-2.46c0.63-0.77,0.49-0.29,0.54,0.23c0.05,0.55,0.11-1,0.07-1.62c-0.03-0.62,0.09-0.84-0.17-0.8
			c-0.26,0.04-1.83,2.45-1.83,2.45s-1.55,3.27-1.56,3.35s-1.37,2.32-1.44,2.4C34.78,29.02,34.01,30.97,34.01,30.97z"/>
	</g>
	<g>
		<path class="st6" d="M34.57,28.4c0,0-0.69,2.14-0.55,2.97c0.14,0.83,3.93-7.39,4.57-8.62s1.09-2.01,1.09-2.01s0.15-1.42-0.11-1.59
			c-0.26-0.17-0.86,0.58-0.86,0.58l-3.39,6.88L34.57,28.4z"/>
	</g>
	<g>
		<path class="st4" d="M37.05,24.01c-0.1,0.38-0.34,0.89-0.63,1.44c-0.06,0.11-0.12,0.22-0.18,0.33c-0.75,1.34-1.71,2.75-1.71,2.75
			c0.09-0.62,0.23-1.26,0.36-1.79c0,0,0,0,0,0c0.06-0.24,0.11-0.46,0.16-0.64c0.09-0.32,0.14-0.53,0.14-0.53S37.4,22.66,37.05,24.01
			z"/>
	</g>
	<g>
		<path class="st4" d="M27.63,47.27c0,0,3.52-2.92,5.47-5.27s5.41-8.83,5.8-10.07c0.39-1.24,1.56-5.54,1.71-6.23
			c0.14-0.69,0.38-2.24,0.27-2.51l-0.54,0.95c0,0-0.13-0.03-0.13-0.18c0-0.14-0.46,0.23-0.85,0.99c-0.39,0.76-2.26,4.97-3.31,6.18
			c-1.05,1.21-2.41,2.39-2.57,2.69c-0.16,0.3-0.73,3.81-0.81,4.79c-0.07,0.98-0.62,0-1.52-0.09c-0.9-0.09-3.62,8.28-3.62,8.28
			L27.63,47.27z"/>
	</g>
	<g>
		<path class="st2" d="M31.62,38.98c0,0-1.32,2.75-1.3,7.79c0,0-0.82,0.78-0.84,0.69c-0.11-0.47,0.22-4.33,0.42-5.26
			C30.1,41.26,31.62,38.98,31.62,38.98"/>
	</g>
	<g>
		<path class="st3" d="M26.22,46.97c0,0,0.48,0.36,0.64,0.55c0.16,0.19,0.22,0.33,0.44,0.09c0.23-0.24,0.42-0.23,1.61-2.77
			s2.55-5.44,2.65-5.72s0.16-0.4,0.02-0.5c-0.14-0.1-0.89-0.3-1.05-0.27s-0.27,0.3-0.48,0.59c-0.22,0.28-2.22,4.68-2.28,4.82
			C27.72,43.89,26.65,46.78,26.22,46.97"/>
	</g>
	<g>
		<path class="st4" d="M23.33,45.31c0,0,2.63,1.48,2.9,1.65c0.27,0.17,0.55-0.04,1.08-1.19c0.53-1.14,2.75-6.1,2.95-6.66
			c0.2-0.56,0.44-0.72,0.28-0.77s-0.76-0.02-1.03-0.12c-0.27-0.1-0.91-0.39-1.09-0.17c-0.17,0.22-2.47,3.54-2.76,3.75
			C25.38,42.01,23.11,44.93,23.33,45.31"/>
	</g>
	<g>
		<path class="st2" d="M27.71,37.84c0,0-0.7,2.06-2.07,4.23c-1.36,2.17-1.96,3.19-2.16,3.26c-0.2,0.07-0.98-0.45-1.31-0.5
			c-0.33-0.05,0.98-1.22,0.98-1.22l2.96-3.92l1.3-1.69L27.71,37.84"/>
	</g>
	<g>
		<path class="st7" d="M27.31,37.44c0,0,0.4,0.03,0.47,0.24c0.07,0.21-0.87,1.19-2.5,3.45s-2.72,3.68-2.95,3.7
			c-0.24,0.02-0.75-0.23-0.75-0.23l0.66-1.24c0,0,2.89-3.43,2.95-3.46C25.24,39.88,27.31,37.44,27.31,37.44"/>
	</g>
	<g>
		<path class="st2" d="M26.75,37.24c0,0,0.47,0.07,0.55,0.21c0.09,0.14-4.25,6.33-5.65,7.2c0,0-1.32-0.24-1.02-0.8
			c0.3-0.56,0.83-0.91,0.83-0.91l3.15-3.28c0,0,1.72-2.37,1.72-2.37S26.75,37.24,26.75,37.24"/>
	</g>
	<g>
		<path class="st7" d="M25,36.32c0,0,0.66,0.54,1.14,0.66c0.48,0.12-1.29,2.29-2.05,3.19c-0.76,0.9-2.99,3.38-3.6,3.26
			c-0.61-0.12,2.25-4.26,2.25-4.26l1.11-1.87l0.4-1.12L25,36.32z"/>
	</g>
	<g>
		<path class="st2" d="M24.42,35.85c0,0,0.6,0.29,0.58,0.47s-1.28,1.95-1.63,2.02S24.42,35.85,24.42,35.85"/>
	</g>
	<g>
		<path class="st6" d="M24.11,35.65c0,0,0.29,0.06,0.35,0.28c0.06,0.22-1.25,3.12-1.55,3.41c-0.3,0.29-2.74,3.47-2.31,3.89
			c0.42,0.42,5.6-5.36,5.54-6.25c0,0,0.54,0.02,0.61,0.26s-5.62,6.89-6.62,6.86c-1-0.03,1.01-3.1,1.01-3.1L24.11,35.65"/>
	</g>
	<g>
		<path class="st2" d="M23.46,35.51c0,0-3.12,5.75-2.9,6.42s2.64-3.48,3.7-6.21C24.26,35.71,24.13,35.61,23.46,35.51"/>
	</g>
	<g>
		<path class="st2" d="M18.2,36.12c-0.03,0.06-0.06,0.12-0.08,0.19c-0.12,0.38-0.24,0.76-0.37,1.14c-0.11,0.27-0.21,0.56-0.32,0.83
			c-0.11,0.22-0.21,0.44-0.31,0.67c-0.15,0.34-0.22,0.72-0.45,1.03c-0.12,0.17-0.24,0.31-0.32,0.51c-0.11,0.25-0.17,0.51-0.25,0.77
			c0.11-0.12,0.22-0.24,0.32-0.37c-0.06,0.13-0.12,0.25-0.19,0.37c-0.05,0.07-0.12,0.1-0.2,0.09c-0.88-0.4-0.88-0.4-0.43-1.76
			c0.04-0.01,0.16-0.2,0.19-0.21c0.72-0.66,0.81-1.59,1.1-2.45c0.01-0.05,0.01-0.04,0.03-0.1c0.1-0.31,0.18-0.38,0.15-0.64
			c0.29-0.27,0.62-0.45,1-0.57C18.43,35.7,18.38,35.9,18.2,36.12z"/>
	</g>
	<g>
		<path class="st6" d="M20.58,35.38c-0.04,0.02-0.07,0.11-0.12,0.13c-0.29,0.18-0.69,0.34-0.86,0.64c-0.09,0.16-0.22,0.28-0.34,0.41
			c-0.13,0.14-0.24,0.3-0.34,0.46c-0.12,0.21-0.19,0.44-0.3,0.66c-0.18,0.37-0.54,0.56-0.75,0.91c-0.12,0.2-0.19,0.41-0.28,0.62
			c-0.08,0.17-0.24,0.31-0.38,0.44c-0.13,0.12-0.26,0.26-0.33,0.44c-0.06,0.18-0.12,0.37-0.25,0.51c-0.19,0.21-0.42,0.4-0.54,0.66
			c0.08-0.26,0.15-0.52,0.25-0.77c0.09-0.2,0.2-0.34,0.32-0.51c0.22-0.31,0.29-0.69,0.45-1.03c0.1-0.22,0.21-0.45,0.31-0.67
			c0.07-0.15,0.14-0.31,0.22-0.46c0.11-0.22,0.21-0.43,0.32-0.65c0.1-0.19,0.18-0.41,0.31-0.59c0.17-0.23,0.35-0.46,0.46-0.73
			c0.09-0.24,0.15-0.5,0.33-0.69c0.04-0.04,0.09-0.08,0.14-0.1c0.05-0.03,0.14-0.04,0.18-0.07l0,0c0.37-0.07,0.76-0.34,1.08,0.12
			C20.5,35.18,20.58,35.3,20.58,35.38z"/>
	</g>
	<g>
		<path class="st7" d="M6.08,39.92c-0.09,0.21-0.23,0.55-0.32,0.76c-0.61,0.11-1.37,0.23-1.82,0.3c0.02-0.01,0.03-0.03,0.02-0.09
			c-0.01-0.07,0-0.17,0-0.24c0-0.06-0.01-0.19-0.02-0.24c0-0.07,0-0.09-0.01-0.09C4.76,40.08,5.44,40.06,6.08,39.92z"/>
	</g>
	<g>
		<path class="st8" d="M8.81,40.24c-0.29,0.05-0.86,0.15-1.15,0.15H7.64c-0.16-0.01-0.36-0.43,0.16-0.78c0,0,0,0,0,0
			c0.25-0.08,0.8-0.14,1.09-0.15C8.68,39.66,8.52,39.97,8.81,40.24z"/>
	</g>
	<g>
		<path class="st9" d="M7.64,40.39h0.01c-0.24,0.1-0.98,0.14-1.25,0.19l-0.1,0.01c-0.04,0.01-0.04,0-0.09,0
			c-0.03,0.01-0.07,0.01-0.1,0.02c-0.11,0.02-0.22,0.04-0.33,0.06c-0.01,0-0.02,0-0.03,0c0.09-0.21,0.23-0.55,0.32-0.76
			c0.34-0.05,1.38-0.26,1.72-0.31c0,0,0,0,0,0C7.28,39.96,7.48,40.38,7.64,40.39z"/>
	</g>
	<g>
		<path class="st10" d="M3.94,40.97c-0.03,0.02-0.11,0.02-0.24,0.05c-0.13,0.03-0.27,0.06-0.41,0.09c-0.31,0.06-0.62,0.11-0.94,0.17
			c-0.64,0.12-1.28,0.26-1.93,0.28c-0.15,0-0.32,0.06-0.42-0.08c-0.02-0.03,0.02-0.16,0.07-0.19C0.29,41.14,0.55,41.07,0.8,41
			c0.52-0.15,1.07-0.22,1.6-0.35c0.03-0.01,0.05-0.01,0.08-0.02c0.4-0.11,1.05-0.27,1.46-0.32c0,0,0,0,0,0
			c0.02,0,0.01,0.03,0.01,0.09c0,0.06,0.02,0.19,0.02,0.24c0,0.07-0.01,0.17,0,0.24C3.97,40.94,3.97,40.96,3.94,40.97z"/>
	</g>
	<g>
		<path class="st7" d="M16.93,36.82c-0.02,0.05-0.02,0.05-0.03,0.1c-0.29,0.86-0.37,1.8-1.1,2.45c-0.03,0.01-0.16,0.21-0.19,0.21
			c-0.15,0.08-0.3,0.16-0.45,0.24c-0.34,0.1-0.42,0.58-0.82,0.58c-0.01,0-0.03,0-0.04,0c-0.22-0.05-0.44-0.1-0.66-0.15
			c-0.64-0.05-1.28,0-1.91-0.19l0,0h0c-0.06-0.05-0.12-0.1-0.18-0.15c-0.06-0.05-0.15-0.08-0.22-0.12c-0.19-0.1-0.4-0.22-0.61-0.28
			c-0.07-0.01-0.14-0.01-0.22-0.03c-0.08-0.02-0.15-0.04-0.22-0.06c-0.04-0.02-0.08-0.03-0.12-0.02c-0.27,0.16-0.32,0.41-0.3,0.69
			c-0.24,0.02-0.81,0.12-1.05,0.14c-0.29-0.27-0.12-0.58,0.08-0.79c0.3-0.1,1.76-0.26,2.34-0.33c0,0,0,0,0,0
			c0.29-0.06,0.6-0.04,0.9-0.08c0.28-0.1,0.93-0.24,1.19-0.35c0.57-0.27,1.11-0.6,1.63-0.96c0.52-0.36,1.02-0.75,1.52-1.14
			c0.16-0.21,0.38-0.31,0.61-0.41C17.11,36.44,17.02,36.51,16.93,36.82z"/>
	</g>
	<g>
		<path class="st2" d="M23.33,35.44C23.33,35.44,23.33,35.44,23.33,35.44c-0.26,0.25-0.42,0.58-0.56,0.9
			c-0.13,0.29-0.3,0.57-0.42,0.87c-0.11,0.28-0.25,0.55-0.43,0.79c-0.12,0.17-0.26,0.32-0.37,0.49c-0.21,0.32-0.23,0.7-0.36,1.05
			c-0.14,0.35-0.22,0.74-0.38,1.08c-0.25,0.53-0.57,1.02-0.72,1.58c-0.07,0.19-0.09,0.24-0.27,0.3c-0.14,0.05-0.34,0.29-0.53,0.29
			c-0.01,0-0.03,0-0.05-0.01c-0.01,0-0.02,0-0.03-0.01c0,0-0.01,0-0.02-0.01c-0.01,0-0.02-0.01-0.03-0.02
			c-0.01-0.01-0.03-0.02-0.04-0.04c-0.04-0.37,0.09-0.63,0.21-0.95c0.08-0.22,0.21-0.43,0.27-0.65c0.07-0.23,0.15-0.46,0.27-0.67
			c0.06-0.12,0.11-0.25,0.16-0.38c0.13-0.32,0.27-0.64,0.41-0.97c0.04-0.1,0.08-0.2,0.12-0.3c0.2-0.29,0.3-0.67,0.65-0.85
			c0.43-0.86,0.86-1.72,1.42-2.51C22.88,35.03,23.08,35.11,23.33,35.44z"/>
	</g>
	<g>
		<path class="st11" d="M11.72,40.06c-0.45,0.01-0.89,0.02-1.34,0.04c-0.18,0-0.35,0-0.52,0c-0.01-0.28,0.03-0.54,0.3-0.69
			c0.04-0.01,0.08,0,0.12,0.02c0.07,0.02,0.15,0.04,0.22,0.06c0.07,0.02,0.15,0.02,0.22,0.03c0.21,0.06,0.41,0.18,0.61,0.28
			c0.07,0.04,0.16,0.07,0.22,0.12C11.61,39.96,11.66,40.01,11.72,40.06z"/>
	</g>
	<g>
		<path class="st4" d="M18.72,38.74c-0.02,0.09-0.03,0.16-0.07,0.24c-0.04,0.08-0.04,0.21-0.05,0.3c-0.03,0.23-0.16,0.42-0.24,0.65
			c-0.04,0.11-0.08,0.22-0.12,0.33c-0.03,0.09-0.04,0.17-0.11,0.25c-0.02,0.03-0.05,0.05-0.08,0.07c-0.08,0.05-0.16,0.09-0.23,0.14
			c-0.15,0.11-0.24,0.26-0.34,0.42c-0.1,0.16-0.22,0.31-0.36,0.44c-0.05,0.05-0.11,0.1-0.14,0.16c-0.03,0.06-0.04,0.13-0.08,0.18
			c-0.08,0.11-0.2,0.02-0.27-0.05c-0.04-0.04-0.08-0.07-0.12-0.11c-0.02-0.02-0.05-0.05-0.06-0.08c0-0.01-0.01-0.01-0.01-0.02
			c-0.01-0.07,0.01-0.16,0.05-0.22c0.04-0.08,0.09-0.17,0.12-0.25c0.05-0.16,0.12-0.3,0.18-0.46c0.11-0.31,0.32-0.57,0.53-0.83
			c0.16-0.2,0.27-0.42,0.43-0.62c0.15-0.18,0.32-0.38,0.46-0.57c0.06-0.08,0.14-0.14,0.21-0.21c0.11-0.11,0.27-0.04,0.31,0.1
			C18.73,38.65,18.74,38.7,18.72,38.74z"/>
	</g>
	<g>
		<path class="st4" d="M22.19,34.96c0.02,0.55-0.61,0.5-0.8,0.85c0.13-0.28,0.11-0.47-0.1-0.75V35
			C21.31,34.99,22.03,34.61,22.19,34.96z"/>
	</g>
	<g>
		<path class="st7" d="M23.46,35.51c-0.01,0.37-0.18,0.75-0.37,1.07c-0.12,0.2-0.22,0.38-0.3,0.61c-0.09,0.23-0.19,0.46-0.34,0.66
			c-0.08,0.11-0.17,0.21-0.23,0.33c-0.06,0.14-0.08,0.29-0.14,0.43c-0.08,0.17-0.21,0.28-0.31,0.43c-0.1,0.15-0.15,0.34-0.18,0.52
			c-0.05,0.3-0.08,0.55-0.25,0.81c-0.15,0.24-0.33,0.45-0.46,0.7c-0.18,0.34-0.24,0.73-0.31,1.1c-0.08,0.39-0.21,0.73-0.35,1.09
			c-0.07,0.18-0.3,0.87-0.58,0.57c-0.04-0.04-0.05-0.09-0.08-0.14c-0.07-0.11-0.22-0.14-0.36-0.17c-0.24-0.05-0.46-0.14-0.67-0.27
			c-0.04-0.02-0.08-0.05-0.1-0.09c-0.03-0.07,0-0.15,0.03-0.22c0.85-2.01,1.62-4.05,2.3-6.12c-0.13,0.06-0.26,0.11-0.38,0.19
			c-0.15,0.1-0.26,0.24-0.38,0.38c-1.14,1.41-1.86,3.15-2.04,4.95c-0.01,0.1-0.03,0.21-0.12,0.25c-0.09,0.04-0.19-0.02-0.23-0.11
			c-0.04-0.09-0.03-0.18-0.02-0.28c0.13-0.93,0.67-1.76,0.89-2.68c0.05-0.19,0.08-0.39,0.16-0.57c0.04-0.1,0.1-0.19,0.09-0.3
			c-0.01-0.1-0.11-0.21-0.21-0.17c-0.04,0.01-0.07,0.05-0.09,0.08c-0.22,0.26-0.44,0.52-0.66,0.79c-0.29,0.35-0.59,0.7-0.81,1.1
			c-0.22,0.39-0.36,0.83-0.51,1.25c-0.18-0.03-0.35-0.17-0.4-0.35c0.11-0.35,0.48-0.61,0.67-0.92c0.1-0.17,0.13-0.34,0.23-0.51
			c0.15-0.24,0.42-0.37,0.58-0.6c0.14-0.2,0.18-0.48,0.3-0.69c0.15-0.26,0.4-0.43,0.59-0.67c0.21-0.26,0.3-0.57,0.46-0.86
			c0.27-0.49,0.64-0.95,1.05-1.34c0.41-0.38,0.91-0.68,1.45-0.78c0.17,0.18,0.12,0.47,0.06,0.71c-0.05,0.21-0.11,0.42-0.16,0.63
			c-0.15,0.61-0.31,1.22-0.51,1.81c-0.27,0.79-0.62,1.55-0.93,2.32c-0.26,0.66-0.48,1.34-0.71,2.02c-0.03,0.09-0.05,0.19,0,0.26
			c0.06,0.08,0.19,0.07,0.28,0.01s0.15-0.13,0.24-0.18c0.08-0.05,0.18-0.07,0.26-0.13c0.07-0.06,0.1-0.15,0.14-0.24
			c0.2-0.56,0.4-1.09,0.65-1.63c0.16-0.34,0.33-0.68,0.47-1.04c0.14-0.35,0.16-0.73,0.36-1.05c0.11-0.17,0.25-0.33,0.37-0.49
			c0.18-0.24,0.32-0.51,0.43-0.79c0.11-0.3,0.28-0.58,0.42-0.87c0.15-0.32,0.31-0.66,0.57-0.9C23.37,35.47,23.42,35.49,23.46,35.51z
			"/>
	</g>
	<g>
		<path class="st5" d="M35.09,26.04c-0.08,0.02,2.06-7.78,3.96-10.4c0,0,0.23,2.8,0.52,3.51C39.57,19.15,36.77,25.64,35.09,26.04z"
			/>
	</g>
	<g>
		<path class="st2" d="M36.42,25.45c-0.06,0.11-0.12,0.22-0.18,0.33c-0.22,0.13-0.47,0.27-0.62,0.37c-0.19,0.12-0.52,0.37-0.73,0.6
			c0.06-0.24,0.11-0.46,0.16-0.64c0.13-0.12,0.38-0.27,0.83-0.43C36.1,25.61,36.28,25.53,36.42,25.45z"/>
	</g>
	<g>
		<path class="st4" d="M34.89,31.41c0,0,1.14-0.85,1.73-1.82c0.59-0.97,0.61-1.21,0.61-1.21S35.04,31.03,34.89,31.41z"/>
	</g>
	<g>
		<path class="st4" d="M52.95,1.73c0,0,1.07-1.6,1.18-1.71s0.33,0.16,0.38,0.64c0.05,0.47-0.51,1.6-0.65,1.76
			c-0.15,0.16,0.22,0.75,0.18,0.87S52.95,1.73,52.95,1.73z"/>
	</g>
	<g>
		<path class="st3" d="M45.06,14.97l0.76-1.39c0,0,1.64,1.8,1.28,8.1c0,0-1.17,2.62-1.56,3.77c0,0,0.85-5.74,0.38-8.28
			S45.06,14.97,45.06,14.97z"/>
	</g>
	<g>
		<path class="st4" d="M40.42,28.53c0,0,1.53-5.57,1.36-7.12c0,0,2.51-5.05,3.27-6.44s1.47,3.55,1.47,3.55l-0.98,6.93
			c0,0-2.1,4.96-2.32,5.51c0,0-1.15,1.15-1.36,1.36c0,0,1.36-5.75,1.61-8.02s0-2.35,0-2.35L40.42,28.53z"/>
	</g>
	<g>
		<path class="st2" d="M41.78,21.41c0,0,1.94-2.51,2.46-2.59c0.52-0.08-0.19,2.48-1.72,6s-3.6,7.5-3.3,11.71l0.7-1.15
			c0,0,0.58-4.5,1.88-7.71s2.71-5.88,3.04-7.14c0.33-1.26,0.57-2.37,0-2.67c-0.57-0.3-1.91,1.26-1.91,1.26L41.78,21.41z"/>
	</g>
	<g>
		<path class="st7" d="M34.36,49.49c0,0,1.99,2.89,10.7-6.27c0,0,2.31-13.63,4.12-18.13L50,18.71l-0.94-1.5l-1.95,4.48l-1.56,3.77
			l-2.32,5.51C43.23,30.96,37.74,43.98,34.36,49.49z"/>
	</g>
	<g>
		<path class="st4" d="M45.06,43.22c0,0-0.2,3.97-0.21,4.17c-0.01,0.2-1.45,0.36-1.71,0.1C42.88,47.23,45.06,43.22,45.06,43.22z"/>
	</g>
	<g>
		<path class="st6" d="M47.6,56.56l0.64,0.82c0,0-1.87,6.74-2.28,11.41c0,0,0.03,0.06-0.52,0.22C45.44,69,45.36,62.86,47.6,56.56z"
			/>
	</g>
	<g>
		<path class="st5" d="M47.56,67.7c-0.11-0.08-0.21-0.17-0.27-0.25c0,0-0.11,0.58-0.46,0.99c0.27-2.45,0.95-7.48,2.08-10.16
			c0.13,0.18,0.28,0.37,0.43,0.58C49.05,59.78,48.33,62.35,47.56,67.7C47.57,67.69,47.57,67.7,47.56,67.7"/>
	</g>
	<g>
		<path class="st6" d="M47.56,67.7C47.56,67.7,47.56,67.7,47.56,67.7c0.08-0.15,2.32-4.5,3.2-5.99c0.08-0.14,0.15-0.26,0.21-0.34
			v1.94l-0.09,0.17l-1.55,2.86l-0.01,0.02l-0.5,0.92l-0.6-0.34c0,0,0.08,0.93-0.11,1.09C48.11,68.02,47.81,67.88,47.56,67.7"/>
	</g>
	<g>
		<path class="st5" d="M51.78,66.72c-0.23-0.1-0.5-0.23-0.67-0.36c0,0-0.01,0.04-0.02,0.1c-0.07-0.9-0.14-1.98-0.21-2.99
			c-0.04-0.64-0.09-1.25-0.12-1.76c-0.03-0.44-0.05-0.8-0.07-1.04c0.29,0.39,0.57,0.78,0.83,1.14
			C51.53,63.15,51.7,65.63,51.78,66.72z"/>
	</g>
	<g>
		<path class="st2" d="M28,48.99c0-0.08,0.01-0.09,0.02-0.12c0.15-0.37,0.43-0.68,0.68-0.98c0.82-0.93,1.73-1.77,2.66-2.59
			c0.92-0.81,1.88-1.65,3.04-2.11c0.82-0.35,1.85-0.21,1.99,0.82c0,0.43-0.16,0.81-0.27,1.21c-0.42,1.37-1.02,2.7-1.49,4.04
			c-0.13,0.75,0.86,0.7,1.35,0.61c0.61-0.1,1.18-0.32,1.7-0.66c0,0,0.26-0.16,0.26-0.16c0.09-0.06,0.18-0.11,0.22-0.23
			c0.07-0.17,0.06-0.38,0.21-0.48c0.49-0.43,0.97-0.87,1.48-1.28c0.22-0.2,0.46-0.39,0.68-0.6c0.08-0.07,0.14-0.15,0.25-0.18
			c0.11-0.04,0.24-0.06,0.33-0.11c0.35-0.32,0.68-0.8,0.99-1.17c1.92-2.44,2.81-5.48,4.63-7.99c0.51-0.72,1.07-1.43,1.84-1.89
			c0.14-0.07,0.29-0.15,0.44-0.19c0.21-0.08,0.43-0.08,0.66-0.06c0.06,0.01,0.11,0.06,0.11,0.13c-0.01,0.06-0.06,0.11-0.13,0.11
			c-0.38-0.07-0.77,0.06-1.11,0.27c-1.02,0.67-1.73,1.73-2.38,2.75c-1,1.56-1.71,3.28-2.6,4.9c-0.5,0.89-1.08,1.76-1.72,2.57
			c-0.18,0.26-0.42,0.46-0.58,0.73c-0.04,0.1-0.05,0.23-0.08,0.34c-0.03,0.11-0.11,0.19-0.17,0.27c-0.2,0.25-0.41,0.48-0.62,0.72
			c-0.47,0.5-1,0.94-1.58,1.3C38.65,49.06,38.45,49,38.27,49c-0.12-0.01-0.2,0.06-0.29,0.12c-0.25,0.16-0.53,0.34-0.8,0.47
			c-0.96,0.46-3.36,0.93-2.41-0.92c0.46-1.14,0.91-2.29,1.29-3.46c0.11-0.38,0.27-0.79,0.27-1.18c-0.3-1.56-2.1-0.77-2.96-0.17
			c-1.35,0.92-2.52,2.1-3.68,3.25c-0.52,0.57-1.11,1.12-1.43,1.83c-0.01,0.01-0.01,0.05-0.01,0.03C28.25,49.1,28.02,49.14,28,48.99
			L28,48.99z"/>
	</g>
	<g>
		<path class="st6" d="M41.04,56.14c-0.01,0-0.02,0-0.02,0c-0.18-0.01-0.34-0.13-0.5-0.38c-0.07-0.11-0.2-0.18-0.36-0.27
			c-0.64-0.37-1.61-0.92-1.36-4.67c0.03-0.47,0.1-0.95,0.21-1.45c-0.61,0.41-1.25,0.81-1.88,1.12c-1.66,0.84-2.66,0.64-3.1,0.45
			c-0.35-0.15-0.52-0.36-0.56-0.5c-0.05-0.16,0.14-0.86,0.5-2.19c0.39-1.43,0.88-3.22,0.91-4.03c0.01-0.42-0.14-0.71-0.45-0.83
			c-0.61-0.25-1.89,0.17-3.25,1.67c-1.95,2.16-3.81,3.05-3.83,3.06c-0.04,0.02-0.09,0-0.11-0.04c-0.02-0.04,0-0.09,0.04-0.11
			c0.02-0.01,1.85-0.89,3.78-3.02c1.42-1.57,2.75-1.99,3.43-1.71c0.37,0.15,0.57,0.5,0.55,0.99c-0.03,0.83-0.52,2.63-0.92,4.07
			c-0.26,0.97-0.54,1.96-0.5,2.1c0.03,0.1,0.19,0.27,0.47,0.39c0.42,0.18,1.36,0.37,2.96-0.44c0.67-0.34,1.36-0.76,2.01-1.21
			C40,45,43.09,40.1,44.08,39.72c0.14-0.05,0.22-0.01,0.27,0.03c0.7,0.68-2.05,6.65-2.08,6.71c-0.24,0.51-1.53,1.7-3.07,2.77
			c-0.12,0.55-0.21,1.09-0.24,1.6c-0.25,3.64,0.67,4.17,1.28,4.51c0.17,0.1,0.32,0.18,0.41,0.32c0.13,0.2,0.26,0.3,0.38,0.31
			c0.21,0.01,0.47-0.26,0.72-0.56c0.35-0.42,0.86-0.91,1.3-0.82c0.25,0.05,0.43,0.27,0.55,0.66c0.01,0.04-0.01,0.09-0.05,0.1
			c-0.04,0.01-0.09-0.01-0.1-0.05c-0.1-0.32-0.24-0.51-0.42-0.54c-0.27-0.06-0.68,0.22-1.14,0.76C41.55,55.9,41.3,56.14,41.04,56.14
			z M44.2,39.86c-0.02,0-0.04,0-0.06,0.01c-0.81,0.31-3.89,5.01-4.88,9.12c1.45-1.02,2.64-2.13,2.87-2.61
			c0.68-1.41,2.6-6.05,2.11-6.52C44.23,39.86,44.22,39.86,44.2,39.86z"/>
	</g>
	<g>
		<path class="st5" d="M34.16,51.4c-0.27,0-0.52-0.03-0.76-0.09l-0.03-0.01c-0.06-0.02-0.11-0.06-0.14-0.12
			c-0.18-0.41,0.73-2.23,1.02-2.78c1.44-3.29,1.35-5.03,0.83-5.52c-0.3-0.28-0.74-0.15-1.05,0.02c-1.68,0.86-4.95,4.11-5.97,5.25
			c-0.25,0.29-0.23,0.37-0.23,0.37c0.05,0.07,0.54,0.01,1.08-0.18c0.06-0.02,0.13,0.01,0.15,0.07c0.02,0.06-0.01,0.13-0.07,0.15
			c-0.34,0.12-1.16,0.37-1.35,0.09c-0.13-0.19,0.08-0.47,0.25-0.66c1.03-1.15,4.33-4.42,6.04-5.3c0.69-0.36,1.1-0.19,1.32,0.02
			c0.77,0.72,0.47,2.94-0.78,5.79c-0.57,1.08-1.11,2.36-1.02,2.58l0.02,0c1.75,0.46,4.58-0.93,7.96-3.9
			c2.03-1.79,3.27-3.46,4.26-4.79c1.26-1.7,2.18-2.94,3.92-3.52c0.06-0.02,0.13,0.01,0.15,0.07c0.02,0.06-0.01,0.13-0.07,0.15
			c-1.68,0.56-2.57,1.76-3.81,3.43c-1,1.35-2.24,3.02-4.29,4.83C38.58,49.99,35.99,51.4,34.16,51.4z M33.43,51.07L33.43,51.07
			C33.43,51.07,33.43,51.07,33.43,51.07z"/>
	</g>
	<g>
		<path class="st6" d="M41.04,56.14c-0.01,0-0.02,0-0.02,0c-0.18-0.01-0.34-0.13-0.5-0.38c-0.07-0.11-0.2-0.18-0.36-0.27
			c-0.64-0.37-1.61-0.92-1.36-4.67c0.29-4.36,4.15-10.67,5.28-11.1c0.14-0.05,0.22-0.01,0.27,0.03c0.03,0.03,0.03,0.08,0,0.12
			c-0.03,0.03-0.08,0.03-0.12,0c-0.02-0.02-0.05-0.01-0.1,0c-0.94,0.36-4.88,6.55-5.18,10.96c-0.25,3.64,0.67,4.17,1.28,4.51
			c0.17,0.1,0.32,0.18,0.41,0.32c0.13,0.2,0.26,0.3,0.38,0.31c0.21,0.01,0.47-0.26,0.72-0.56c0.35-0.42,0.86-0.91,1.3-0.82
			c0.25,0.05,0.43,0.27,0.55,0.66c0.01,0.04-0.01,0.09-0.05,0.1c-0.04,0.01-0.09-0.01-0.1-0.05c-0.1-0.32-0.24-0.51-0.42-0.54
			c-0.27-0.06-0.68,0.22-1.14,0.76C41.55,55.9,41.3,56.14,41.04,56.14z"/>
	</g>
</g>
</svg>
