<?xml version="1.0" encoding="utf-8"?>
<!-- Generator: Adobe Illustrator 26.0.0, SVG Export Plug-In . SVG Version: 6.00 Build 0)  -->
<svg version="1.1" id="Layer_1" xmlns="http://www.w3.org/2000/svg" xmlns:xlink="http://www.w3.org/1999/xlink" x="0px" y="0px"
	 viewBox="0 0 193.34 80" style="enable-background:new 0 0 193.34 80;" xml:space="preserve">
<style type="text/css">
	.st0{fill:#AA4399;}
	.st1{fill:#828385;}
	.st2{fill:#C52B2A;}
	.st3{fill:#F9A11B;}
	.st4{fill:#56BFE3;}
	.st5{fill:#57B746;}
	.st6{fill:#A94399;}
	.st7{fill:#E66CA9;}
	.st8{fill:#F4DC0C;}
	.st9{fill:#DD2827;}
	.st10{fill:#E8DC57;}
	.st11{fill:#66B9DA;}
	.st12{fill:#66BFD7;}
	.st13{fill:#51BCE4;}
</style>
<g>
	<g>
		<g>
			<path class="st0" d="M7.44,56.55c-2.38,0-4.31-1.93-4.31-4.31c0-2.38,1.93-4.31,4.31-4.31c1.42,0,2.69,0.69,3.47,1.76
				c0.68-0.41,1.8-1.09,2.68-1.62c-1.34-1.96-3.59-3.25-6.15-3.25C3.33,44.8,0,48.13,0,52.24s3.33,7.44,7.44,7.44
				c2.56,0,4.81-1.29,6.15-3.26l-2.59-1.74C10.21,55.81,8.91,56.55,7.44,56.55z"/>
		</g>
		<g>
			<path class="st0" d="M21.81,50.32c0,0-0.73-1.51-3.02-1.51s-4.91,2.16-4.91,5.23c0,3.07,2.59,5.63,4.99,5.63
				c1.22,0,2.23-0.66,2.94-1.32v0.84h2.83V49.16h-2.83V50.32z M19.37,56.69c-1.35,0-2.44-1.1-2.44-2.45c0-1.36,1.09-2.45,2.44-2.45
				c1.35,0,2.44,1.1,2.44,2.45C21.81,55.6,20.72,56.69,19.37,56.69z"/>
		</g>
		<g>
			<rect x="33" y="49.16" class="st0" width="2.83" height="10.03"/>
		</g>
		<g>
			<path class="st0" d="M28.74,51.01v-1.85h-2.83v10.03h2.83v-4.86c0.03-0.66,0.35-2.49,3.02-1.96v-3.45
				C31.76,48.92,29.44,48.92,28.74,51.01z"/>
		</g>
		<g>
			<path class="st0" d="M79.73,50.32c0,0-0.73-1.51-3.02-1.51c-2.29,0-4.91,2.16-4.91,5.23c0,3.07,2.59,5.63,4.99,5.63
				c1.22,0,2.23-0.66,2.94-1.32v0.84h2.83V49.16h-2.83V50.32z M77.29,56.69c-1.35,0-2.44-1.1-2.44-2.45c0-1.36,1.09-2.45,2.44-2.45
				c1.35,0,2.44,1.1,2.44,2.45C79.73,55.6,78.64,56.69,77.29,56.69z"/>
		</g>
		<g>
			<path class="st0" d="M42.82,48.81c-2.29,0-3.02,1.51-3.02,1.51v-5.17h-2.83v14.04h2.83v-0.84c0.71,0.65,1.72,1.32,2.94,1.32
				c2.4,0,4.99-2.56,4.99-5.63C47.72,50.97,45.11,48.81,42.82,48.81z M42.24,56.69c-1.35,0-2.44-1.1-2.44-2.45
				c0-1.36,1.09-2.45,2.44-2.45c1.35,0,2.44,1.1,2.44,2.45C44.68,55.6,43.58,56.69,42.24,56.69z"/>
		</g>
		<g>
			<path class="st0" d="M54.74,48.81c-2.29,0-3.02,1.51-3.02,1.51v-5.17h-2.83v14.04h2.83v-0.84c0.71,0.65,1.72,1.32,2.94,1.32
				c2.4,0,4.99-2.56,4.99-5.63C59.64,50.97,57.03,48.81,54.74,48.81z M54.16,56.69c-1.35,0-2.44-1.1-2.44-2.45
				c0-1.36,1.09-2.45,2.44-2.45c1.35,0,2.44,1.1,2.44,2.45C56.6,55.6,55.5,56.69,54.16,56.69z"/>
		</g>
		<g>
			<circle class="st0" cx="34.42" cy="46.49" r="1.82"/>
		</g>
		<g>
			<path class="st0" d="M65.68,48.91c-2.9,0-5.25,2.39-5.25,5.33c0,2.94,2.35,5.33,5.25,5.33c1.77,0,3.7-0.68,4.66-2.03l-2.28-1.35
				c0,0-0.67,0.83-2.37,0.83s-2.19-1.51-2.19-1.51h7.29c0.1-0.41,0.15-0.83,0.15-1.27C70.93,51.3,68.58,48.91,65.68,48.91z
				 M63.46,53.13c0,0,0.47-1.73,2.32-1.73c1.85,0,2.1,1.73,2.1,1.73H63.46z"/>
		</g>
		<g>
			<path class="st0" d="M92.48,50.21c-1.02-1.32-3.28-1.27-4.14-1c-0.62,0.19-1.28,0.81-1.6,1.15v-1.2h-2.83v10.03h2.83V53.6
				c0-0.14,0.04-2.04,2.09-2.04c1.4,0,1.74,1.44,1.81,2.42v5.21h2.83v-5.54C93.46,53.66,93.5,51.53,92.48,50.21z"/>
		</g>
	</g>
	<g>
		<g>
			<rect x="121.62" y="44.28" class="st1" width="2.83" height="14.7"/>
		</g>
		<g>
			<path class="st1" d="M117.19,50.8v-1.85h-2.83v10.03h2.83v-4.86c0.03-0.66,0.35-2.49,3.02-1.96v-3.45
				C120.21,48.71,117.89,48.71,117.19,50.8z"/>
		</g>
		<g>
			<rect x="110.41" y="48.95" class="st1" width="2.83" height="10.03"/>
		</g>
		<g>
			<circle class="st1" cx="111.83" cy="46.28" r="1.82"/>
		</g>
		<g>
			<rect x="125.62" y="48.95" class="st1" width="2.83" height="10.03"/>
		</g>
		<g>
			<path class="st1" d="M127.03,44.46c-1.01,0-1.82,0.81-1.82,1.82c0,1.01,0.81,1.82,1.82,1.82c1.01,0,1.82-0.81,1.82-1.82
				C128.86,45.27,128.04,44.46,127.03,44.46z"/>
		</g>
		<g>
			<path class="st1" d="M145.5,48.63c-2.9,0-5.25,2.39-5.25,5.33c0,2.94,2.35,5.33,5.25,5.33c1.77,0,3.7-0.68,4.66-2.03l-2.28-1.35
				c0,0-0.67,0.83-2.37,0.83s-2.19-1.51-2.19-1.51h7.29c0.1-0.41,0.15-0.83,0.15-1.27C150.75,51.02,148.4,48.63,145.5,48.63z
				 M143.29,52.86c0,0,0.47-1.73,2.32-1.73s2.1,1.73,2.1,1.73H143.29z"/>
		</g>
		<g>
			<path class="st1" d="M134.01,49.05c-0.62,0.19-1.28,0.81-1.6,1.15V49h-2.83v10.03h2.83v-5.59c0-0.14,0.04-2.04,2.09-2.04
				c1.4,0,1.74,1.44,1.81,2.42v5.21h2.83V53.5c0,0,0.04-2.12-0.98-3.44C137.12,48.73,134.87,48.78,134.01,49.05z"/>
		</g>
		<g>
			<path class="st1" d="M100.54,44.85L95.7,58.98h3.33l0.77-2.27h5.62l0.69,2.27h3.18l-4.78-14.13H100.54z M100.86,53.78l1.64-5.2
				l1.78,5.2H100.86z"/>
		</g>
		<g>
			<path class="st1" d="M157.72,53.14c-2.01-0.63-2.78-0.8-2.78-1.34c0-0.47,0.48-0.66,0.96-0.68c0.3-0.01,0.61,0.05,0.79,0.16
				c0.09,0.05,0.75,0.67,0.67,0.72c0,0,2.28-1.29,2.28-1.29s-1.27-2.07-3.73-2.07c-2.47,0-3.94,1.49-3.94,3.24s1.13,2.49,2.89,2.95
				c1.75,0.46,2.2,0.65,2.2,1.17s-0.66,0.7-1.25,0.7s-1.36-0.43-1.8-1.23l-2.47,1.47c0,0,0.89,2.35,4.36,2.35
				c3.47,0,4.02-2.57,4.02-3.26C159.91,55.35,159.73,53.78,157.72,53.14z"/>
		</g>
	</g>
	<g>
		<g>
			<path class="st2" d="M144.52,40.61c-0.1,0.02-0.21,0.04-0.33,0.06C144.31,40.65,144.42,40.63,144.52,40.61z"/>
		</g>
		<g>
			<path class="st3" d="M172.76,49.49c0,0-2.2,3.97-2.55,4.26c-0.35,0.29,2.24,1.16,2.95,1.8c0.71,0.64,1.02,1.69,2.44,1.38
				c0,0-1.86,3.2-1.66,4.8c0,0,3.35-3.78,4.2-5.62c0.86-1.84,2.46-7.97,2.93-9.32c0.47-1.35,0.99-2.14,0.99-2.14
				s-2.75,0.79-2.93,0.91s-4.89,2.47-4.89,2.47L172.76,49.49z"/>
		</g>
		<g>
			<path class="st4" d="M170.56,66.19c0,0-0.07-1.75,1.78-4.69c1.86-2.95,5.43-8.13,7.02-11.23c0,0-0.08,2.1-0.22,2.13
				c-0.14,0.04-2.98,4.69-4.11,6.17C173.91,60.04,170.56,66.19,170.56,66.19z"/>
		</g>
		<g>
			<path class="st5" d="M172.96,67.05c0,0-0.09,0.44-0.07,0.69s2.89-4.21,4.39-8.76c0,0,0.99-2.41,1.03-2.52
				c0.04-0.11,0.33-2.31,0.33-2.31s-0.2-0.53-0.61-0.09c-0.41,0.44-0.32,0.5-0.32,0.5s0.68-0.48,0.66-0.12
				C178.35,54.8,176.16,62.17,172.96,67.05z"/>
		</g>
		<g>
			<path class="st6" d="M171.64,51.94c-0.19,0-0.33-0.04-0.43-0.11c-0.12-0.08-0.16-0.21-0.14-0.37c0.02-0.13,0.18-0.44,0.49-1.08
				c0.79-1.59,2.25-4.56,2.3-6.49c0.02-0.8-0.15-1.29-0.51-1.46c-0.61-0.29-1.8,0.31-3.46,1.72c-2.18,1.87-4.1,4.18-4.12,4.21
				c-0.03,0.03-0.08,0.04-0.11,0.01c-0.03-0.03-0.04-0.08-0.01-0.11c0.02-0.02,1.95-2.35,4.14-4.23c1.73-1.48,2.95-2.07,3.63-1.75
				c0.42,0.2,0.63,0.74,0.61,1.61c-0.05,1.96-1.52,4.95-2.32,6.55c-0.26,0.52-0.46,0.93-0.48,1.04c-0.02,0.09,0.01,0.16,0.07,0.21
				c0.21,0.15,1.09,0.29,4.78-1.7c2.44-1.32,4.15-3.96,5.65-6.29l0.08-0.12c0.8-1.25,1.57-2.54,2.31-3.8l0.01-0.02
				c0.14-0.24,0.27-0.48,0.41-0.73c0.5-0.91,1.02-1.85,1.83-2.5c0.29-0.23,0.85-0.6,1.31-0.44c0.26,0.09,0.44,0.31,0.54,0.68
				c0.01,0.04-0.01,0.09-0.06,0.1c-0.04,0.01-0.09-0.01-0.1-0.06c-0.08-0.31-0.23-0.5-0.43-0.57c-0.29-0.09-0.71,0.06-1.16,0.42
				c-0.79,0.63-1.3,1.55-1.79,2.45c-0.14,0.25-0.28,0.5-0.42,0.74l-0.01,0.02c-0.74,1.26-1.51,2.56-2.32,3.8l-0.08,0.12
				c-1.51,2.35-3.23,5.01-5.71,6.35C173.96,51.33,172.42,51.94,171.64,51.94z"/>
		</g>
		<g>
			<path class="st4" d="M190.64,66.9c0,0-0.2-0.07-0.45-0.18c-0.23-0.1-0.5-0.23-0.67-0.36c0,0-0.01,0.04-0.02,0.1c0,0,0,0,0,0
				c-0.04,0.19-0.15,0.62-0.34,0.75c0,0-1.16-0.59-1.42-0.88c-0.01-0.01-0.01-0.02-0.02-0.02c0,0,0,0.02,0.01,0.05
				c0.03,0.19,0.13,0.9-0.04,1.18l-0.46-0.26l-0.6-0.34c0,0,0.08,0.93-0.11,1.09c0,0-0.3-0.14-0.55-0.32c0,0,0,0,0,0
				c-0.11-0.08-0.21-0.17-0.27-0.25c0,0-0.11,0.58-0.46,0.99c-0.03,0.04-0.07,0.09-0.11,0.12l-0.11-0.38l-0.65,0.6l0.14-2.65
				l1.19-6.79l0.94-1.97c0,0,0.27,0.36,0.69,0.9c0.13,0.18,0.28,0.37,0.43,0.58c0.41,0.54,0.88,1.18,1.34,1.8
				c0.29,0.39,0.57,0.78,0.83,1.14c0.59,0.82,1.05,1.49,1.17,1.74C191.48,64.36,190.64,66.9,190.64,66.9z"/>
		</g>
		<g>
			<path class="st6" d="M185.2,54.98c0,0,0.32,0.19,0,1.33c-0.32,1.15-1.74,6.85-1.63,10.12c0.11,3.27-0.01,2.73-0.01,2.73
				s-1.41,0.05-1.71-0.55c-0.3-0.6,0.11,0.72-0.19,0.58c-0.3-0.14-0.11-2.94,0-4.38c0.11-1.44,0.83-3.84,0.83-3.84L185.2,54.98z"/>
		</g>
		<g>
			<path class="st7" d="M173.36,71.21c0,0,0.82-0.05,1.48-0.6c0,0,0.05,0.98,1.01,1.17c0,0,1.04-0.46,1.99-1.66
				c0,0,0.48,0.76,1.47,0.83c0,0,3.28-8.5,3.99-10.49c0.71-1.99,1.23-3.73,1.61-4.35c0.38-0.62,0.33-1.17,0.22-1.52
				c-0.11-0.35,0.68-0.38,0.82-0.27s2.97,3.38,4.61,5.68c1.64,2.29,2.18,4.5,1.88,6.28c-0.3,1.77-1.06,2.07-0.44,1.91
				s0.68,0.16,0.52,0.82c-0.16,0.65-3.16,4.8-4.72,6.22c-1.56,1.42-2.21,2.07-2.18,2.21c0.03,0.14,0.16,0.35,1.09,0.33
				c0.93-0.03,5.29-1.06,5.54-1.15c0.25-0.08-0.08,2.57-0.87,3.14c0,0-0.41-0.25-0.46-0.41s-0.25,0.08,0.08,0.41
				c0.33,0.33,0.52,0.33,0.76,0c0.25-0.33,0.94-1.94,0.84-3.3c0,0,0.91-0.65,0.72-1.01c-0.19-0.35-1.12-0.76-1.36-0.55
				s0.11,1.36,0.11,1.36s-3.63,1.17-5.35,1.15s-0.14-0.57,1.69-2.43c1.83-1.86,4.39-5.21,4.5-6.6c0.11-1.39-0.63-0.63-0.63-0.63
				s0.71-1.61,0.71-3.3c0-1.69-1.8-5.13-2.89-6.52c-1.09-1.39-3.85-5.29-4.72-4.73s-1.17,0.75-1.17,0.75l-2.29,2.32
				c0,0-2.02,3.03-2.05,3.14C179.83,59.51,173.36,71.21,173.36,71.21z"/>
		</g>
		<g>
			<path class="st5" d="M184.25,53.01c0,0,0.3,0.11,0.25,0.74c-0.05,0.63-1.09,1.94-2.27,3.14c-1.17,1.2-4.48,7.42-5.59,9.22
				s-2.71,4.72-3.28,5.1c0,0-0.57-0.03-0.75-0.6c0,0,0.56-0.79,0.97-1.61c0.41-0.82,3.8-7.97,3.8-7.97l4.55-7.56L184.25,53.01z"/>
		</g>
		<g>
			<path class="st7" d="M183.46,43.22c0,0-2.15,3.99-2.11,4.86c0.04,0.87,3.29,4.12,3.36,4.38c0,0-0.67-0.3-0.67-0.07
				c0,0.23,0.21,0.61,0.21,0.61s-2.62,1.76-5.29,6.6S173.58,69,173.58,69s4.36-11.32,4.57-12.89c0.21-1.57,1-5.07,1-5.07
				s1.15-4.15,1.26-4.26c0.11-0.11,1.12-2.32,1.12-2.32L183.46,43.22z"/>
		</g>
		<g>
			<path class="st5" d="M184.93,45.94c0,0,2.29-1.48,0.71-1.84C184.06,43.73,184.93,45.94,184.93,45.94z"/>
		</g>
		<g>
			<path class="st5" d="M186.28,43.24c0,0,1.08-0.33,1.24-1.38c0.16-1.05-0.42-1.3-0.42-1.3s-1.42,0.51-1.41,0.57
				c0.01,0.07,0.34,2.1,0.34,2.1H186.28z"/>
		</g>
		<g>
			<path class="st6" d="M189.3,22.45c0,0,0.62,0.27,0.2,1.5s-0.72,1.33-0.72,1.33s0.78,0.03,0.43,1.09s-0.92,2.01-0.92,2.01
				s0.58,0.33,0.26,1.04c-0.32,0.71-0.86,1.75-0.86,1.75s0.76-0.46,0.71,0.14s-0.71,1.94-0.71,1.94s0.79-0.36,0.71,0.34
				c-0.08,0.7-0.46,1.75-0.46,1.75s0.41-0.12,0.46,0.53s-0.71,1.83-0.71,1.83s0.57,0.43,0.35,1.3c-0.22,0.88-0.94,1.59-0.94,1.59
				s-0.37,1.99-0.89,2.47c0,0,0.22,0.48,0,0.75c-0.22,0.27-0.57,0.31-0.57,0.31s0.03,0.64-0.38,1.08c-0.41,0.44-0.33,0.76-0.33,0.76
				l-0.96,0.03l-0.14-1.13l1.26-8.99l1.66-6.77l1.42-4.77L189.3,22.45z"/>
		</g>
		<g>
			<path class="st5" d="M189.98,19.66c0,0-0.14,1.83-0.68,2.78c0,0-0.99,1.99-2.74,9.09c-1.76,7.1-2.55,12.17-2.58,14.44
				c0,0-0.27,0.38-0.68,0.25c0,0,0.03-0.93,0.16-2.99c0.14-2.06,0.76-10.14,0.76-10.14s2.74-9.42,2.88-9.57s2.17-3.86,2.17-3.86
				H189.98z"/>
		</g>
		<g>
			<path class="st4" d="M167.86,47.27c0,0-0.21,4.98,2.36,6.48l0.45-0.68c0,0-1.17-1.36-1.53-2.66c-0.35-1.29-0.32-2.73-0.37-3.24
				c-0.05-0.51-0.37-0.36-0.37-0.36L167.86,47.27z"/>
		</g>
		<g>
			<path class="st5" d="M167.78,50.99l0.63,0.72c0,0,2.27-1.76,3.35-2.96s3.81-4.03,3.81-4.03l1.81-3.58c0,0-4.23,4.27-4.95,5.19
				C171.71,47.26,168.28,50.77,167.78,50.99z"/>
		</g>
		<g>
			<path class="st8" d="M181.63,30.96l-1.36,1.36c0,0-4.47,7.02-5.52,8.62c-1.06,1.6-3.58,5.35-5.02,6.6
				c-1.44,1.26-2.37,2-2.91,2.09l0.69,0.96c0,0,2.35-0.75,4.9-4.13c2.56-3.38,6.21-9.65,7.01-10.43c0.8-0.78,2.15-4.31,2.21-4.38
				C181.69,31.59,181.63,30.96,181.63,30.96z"/>
		</g>
		<g>
			<path class="st7" d="M180.18,21.41c0,0,0.3,2.62-1.36,7.12c-1.29,3.49-2.05,8.24-4,11.21c-1.95,2.97-6.01,8.7-8.31,9.22
				l0.25-0.63c0,0,3.22-2.38,4.49-4.24c0,0,2.68-3.47,3.94-6.26c1.26-2.79,2.98-9.03,3.08-9.62c0.1-0.58,0.75-4.57,0.75-4.57
				l0.26-0.45L180.18,21.41z"/>
		</g>
		<g>
			<path class="st6" d="M185.1,11.86c0,0-0.87,1.39-0.87,1.72s0.71,0.96,0.87,3.03c0.16,2.07,0.55-3.98,0.55-3.98L185.1,11.86z"/>
		</g>
		<g>
			<path class="st8" d="M186.13,14.4c0,0-0.28,2.65,0,6l0.7-1.88l0.28-1.31l-0.35-2.55L186.13,14.4z"/>
		</g>
		<g>
			<path class="st6" d="M187.45,17.21l-0.63,1.31c0,0-0.15-2.07,0-2.59C186.98,15.41,187.45,17.21,187.45,17.21z"/>
		</g>
		<g>
			<path class="st4" d="M185.81,10.6c0,0-0.71,1.01-0.71,1.26c0,0.25,2.54,6.22,3.3,6.85c0,0,0.03-1.47,0.15-2.02
				S185.81,10.6,185.81,10.6z"/>
		</g>
		<g>
			<path class="st6" d="M188.5,16.97c0,0-1.03,7.79-0.92,8.12c0,0,1.61-4.69,2.4-5.43l-0.87-2.46L188.5,16.97z"/>
		</g>
		<g>
			<path class="st5" d="M186.6,9.18c0,0-0.65,0.98-0.79,1.42c-0.14,0.44,3.14,7.64,4.18,9.06c0,0,0.22-1.01-0.35-1.58
				c0,0-0.06-0.22,0.3-0.87c0.37-0.66-0.08-1.88-0.08-1.88L186.6,9.18z"/>
		</g>
		<g>
			<path class="st8" d="M187.52,7.74c0,0-0.96,1.26-0.93,1.45c0.03,0.19,0.81,2.38,0.81,2.38s0.33-1.05,0.33-1.16
				S187.52,7.74,187.52,7.74z"/>
		</g>
		<g>
			<path class="st7" d="M189.35,4.87c0,0-1.64,2.46-1.83,2.87s-0.27,3.3-0.27,3.3s0.6,2.13,1.15,3.19s1.1-3.36,1.1-3.36
				s0.37-3.57,0.35-3.98C189.82,6.48,189.35,4.87,189.35,4.87z"/>
		</g>
		<g>
			<path class="st6" d="M189.35,4.87c0,0-0.38,6.49-0.44,7.34c-0.05,0.85-0.52,2.02-0.52,2.02l1.53,2.97c0,0,0.95-1.06,0.59-3.49
				c-0.37-2.43-0.14-3.3-0.14-3.3L189.35,4.87z"/>
		</g>
		<g>
			<path class="st4" d="M190.58,2.83l-1.23,2.05c0,0-0.27,5.16,1.16,8.84c0,0,0.61-0.71,0.84-1.86c0.24-1.15-0.25-3.98-0.25-3.98
				l0.05-3.68L190.58,2.83z"/>
		</g>
		<g>
			<path class="st6" d="M192.14,5.15c0,0-0.22,0.3,0.13,0.63c0.35,0.33,0.42,2.4-0.7,3.52c0,0,0.61,1.58-0.22,2.57
				c0,0-1.13-3.85-0.77-9.03l0.93,0.48L192.14,5.15z"/>
		</g>
		<g>
			<path class="st5" d="M192.45,3.3c0,0,0.4,1.16-0.31,1.85l-1.56-2.32l0.77-1.09l0.43,0.14L192.45,3.3z"/>
		</g>
		<g>
			<path class="st5" d="M172.15,32.34c0,0-0.27,1.36-0.34,1.68c-0.07,0.32,2.33-1.85,2.34-1.9s1.52-2.11,1.52-2.11l1.51-3.59
				c0,0-0.62-0.01-0.65,0c-0.04,0.01-3.85,4.8-3.85,4.8L172.15,32.34z"/>
		</g>
		<g>
			<path class="st4" d="M178.18,23.16c0,0,0.47,0.29,0.42,0.8c-0.04,0.51-4.68,6.89-5.23,7.4c-0.56,0.51,1.89-4.22,1.89-4.22
				l0.82-2.02L178.18,23.16z"/>
		</g>
		<g>
			<path class="st6" d="M176.04,26.36c0,0,1.77-2.65,1.95-2.84c0.17-0.18,0.29-0.28,0.27-0.42c-0.08-0.41-0.09-0.85-0.09-0.85
				l-1.02,0.86c0,0-0.67,1.7-0.73,1.75C176.35,24.91,176.04,26.36,176.04,26.36z"/>
		</g>
		<g>
			<path class="st7" d="M172.41,30.97c0,0-0.43,1.79-0.24,1.71c0.19-0.08,1.24-1.26,2.12-3.01c0.88-1.75,2.01-3.74,2.24-4.27
				c0.23-0.53,0.85-2.13,1.12-2.46c0.63-0.77,0.49-0.29,0.54,0.23c0.05,0.55,0.11-1,0.07-1.62c-0.03-0.62,0.09-0.84-0.17-0.8
				c-0.26,0.04-1.83,2.45-1.83,2.45s-1.55,3.27-1.56,3.35c0,0.08-1.37,2.32-1.44,2.4C173.18,29.02,172.41,30.97,172.41,30.97z"/>
		</g>
		<g>
			<path class="st8" d="M172.97,28.4c0,0-0.69,2.14-0.55,2.97c0.14,0.83,3.93-7.39,4.57-8.62s1.09-2.01,1.09-2.01
				s0.15-1.42-0.11-1.59c-0.26-0.17-0.86,0.58-0.86,0.58l-3.39,6.88L172.97,28.4z"/>
		</g>
		<g>
			<path class="st6" d="M175.45,24.01c-0.1,0.38-0.34,0.89-0.63,1.44c-0.06,0.11-0.12,0.22-0.18,0.33
				c-0.75,1.34-1.71,2.75-1.71,2.75c0.09-0.62,0.23-1.26,0.36-1.79c0,0,0,0,0,0c0.06-0.24,0.11-0.46,0.16-0.64
				c0.09-0.32,0.14-0.53,0.14-0.53S175.8,22.66,175.45,24.01z"/>
		</g>
		<g>
			<path class="st6" d="M166.03,47.27c0,0,3.52-2.92,5.47-5.27s5.41-8.83,5.8-10.07c0.39-1.24,1.56-5.54,1.71-6.23
				s0.38-2.24,0.27-2.51l-0.54,0.95c0,0-0.13-0.03-0.13-0.18s-0.46,0.23-0.85,0.99c-0.39,0.76-2.26,4.97-3.31,6.18
				s-2.41,2.39-2.57,2.69c-0.16,0.3-0.73,3.81-0.81,4.79c-0.07,0.98-0.62,0-1.52-0.09c-0.9-0.09-3.62,8.28-3.62,8.28L166.03,47.27z"
				/>
		</g>
		<g>
			<path class="st4" d="M170.02,38.98c0,0-1.32,2.75-1.3,7.79c0,0-0.82,0.78-0.84,0.69c-0.11-0.47,0.22-4.33,0.42-5.26
				S170.02,38.98,170.02,38.98"/>
		</g>
		<g>
			<path class="st5" d="M164.62,46.97c0,0,0.48,0.36,0.64,0.55c0.16,0.19,0.22,0.33,0.44,0.09c0.23-0.24,0.42-0.23,1.61-2.77
				c1.18-2.54,2.55-5.44,2.65-5.72c0.1-0.28,0.16-0.4,0.02-0.5c-0.14-0.1-0.89-0.3-1.05-0.27c-0.16,0.02-0.27,0.3-0.48,0.59
				c-0.22,0.28-2.22,4.68-2.28,4.82C166.12,43.89,165.05,46.78,164.62,46.97"/>
		</g>
		<g>
			<path class="st6" d="M161.73,45.31c0,0,2.63,1.48,2.9,1.65c0.27,0.17,0.55-0.04,1.08-1.19c0.53-1.14,2.75-6.1,2.95-6.66
				c0.2-0.56,0.44-0.72,0.28-0.77s-0.76-0.02-1.03-0.12c-0.27-0.1-0.91-0.39-1.09-0.17c-0.17,0.22-2.47,3.54-2.76,3.75
				C163.78,42.01,161.51,44.93,161.73,45.31"/>
		</g>
		<g>
			<path class="st4" d="M166.11,37.84c0,0-0.7,2.06-2.07,4.23c-1.36,2.17-1.96,3.19-2.16,3.26c-0.2,0.07-0.98-0.45-1.31-0.5
				c-0.33-0.05,0.98-1.22,0.98-1.22l2.96-3.92l1.3-1.69L166.11,37.84"/>
		</g>
		<g>
			<path class="st9" d="M165.71,37.44c0,0,0.4,0.03,0.47,0.24c0.07,0.21-0.87,1.19-2.5,3.45c-1.63,2.26-2.72,3.68-2.95,3.7
				c-0.24,0.02-0.75-0.23-0.75-0.23l0.66-1.24c0,0,2.89-3.43,2.95-3.46S165.71,37.44,165.71,37.44"/>
		</g>
		<g>
			<path class="st4" d="M165.15,37.24c0,0,0.47,0.07,0.55,0.21c0.09,0.14-4.25,6.33-5.65,7.2c0,0-1.32-0.24-1.02-0.8
				c0.3-0.56,0.83-0.91,0.83-0.91l3.15-3.28c0,0,1.72-2.37,1.72-2.37C164.73,37.28,165.15,37.24,165.15,37.24"/>
		</g>
		<g>
			<path class="st9" d="M163.4,36.32c0,0,0.66,0.54,1.14,0.66c0.48,0.12-1.29,2.29-2.05,3.19c-0.76,0.9-2.99,3.38-3.6,3.26
				c-0.61-0.12,2.25-4.26,2.25-4.26l1.11-1.87l0.4-1.12L163.4,36.32z"/>
		</g>
		<g>
			<path class="st4" d="M162.83,35.85c0,0,0.6,0.29,0.58,0.47c-0.02,0.19-1.28,1.95-1.63,2.02S162.83,35.85,162.83,35.85"/>
		</g>
		<g>
			<path class="st8" d="M162.51,35.65c0,0,0.29,0.06,0.35,0.28c0.06,0.22-1.25,3.12-1.55,3.41c-0.3,0.29-2.74,3.47-2.31,3.89
				c0.42,0.42,5.6-5.36,5.54-6.25c0,0,0.54,0.02,0.61,0.26c0.07,0.24-5.62,6.89-6.62,6.86c-1-0.03,1.01-3.1,1.01-3.1L162.51,35.65"
				/>
		</g>
		<g>
			<path class="st4" d="M161.86,35.51c0,0-3.12,5.75-2.9,6.42c0.22,0.67,2.64-3.48,3.7-6.21C162.66,35.71,162.53,35.61,161.86,35.51
				"/>
		</g>
		<g>
			<path class="st4" d="M156.6,36.12c-0.03,0.06-0.06,0.12-0.08,0.19c-0.12,0.38-0.24,0.76-0.37,1.14
				c-0.11,0.27-0.21,0.56-0.32,0.83c-0.11,0.22-0.21,0.44-0.31,0.67c-0.15,0.34-0.22,0.72-0.45,1.03c-0.12,0.17-0.24,0.31-0.32,0.51
				c-0.11,0.25-0.17,0.51-0.25,0.77c0.11-0.12,0.22-0.24,0.32-0.37c-0.06,0.13-0.12,0.25-0.19,0.37c-0.05,0.07-0.12,0.1-0.2,0.09
				c-0.88-0.4-0.88-0.4-0.43-1.76c0.04-0.01,0.16-0.2,0.19-0.21c0.72-0.66,0.81-1.59,1.1-2.45c0.01-0.05,0.01-0.04,0.03-0.1
				c0.1-0.31,0.18-0.38,0.15-0.64c0.29-0.27,0.62-0.45,1-0.57C156.83,35.7,156.78,35.9,156.6,36.12z"/>
		</g>
		<g>
			<path class="st8" d="M158.98,35.38c-0.04,0.02-0.07,0.11-0.12,0.13c-0.29,0.18-0.69,0.34-0.86,0.64
				c-0.09,0.16-0.22,0.28-0.34,0.41c-0.13,0.14-0.24,0.3-0.34,0.46c-0.12,0.21-0.19,0.44-0.3,0.66c-0.18,0.37-0.54,0.56-0.75,0.91
				c-0.12,0.2-0.19,0.41-0.28,0.62c-0.08,0.17-0.24,0.31-0.38,0.44c-0.13,0.12-0.26,0.26-0.33,0.44c-0.06,0.18-0.12,0.37-0.25,0.51
				c-0.19,0.21-0.42,0.4-0.54,0.66c0.08-0.26,0.15-0.52,0.25-0.77c0.09-0.2,0.2-0.34,0.32-0.51c0.22-0.31,0.29-0.69,0.45-1.03
				c0.1-0.22,0.21-0.45,0.31-0.67c0.07-0.15,0.14-0.31,0.22-0.46c0.11-0.22,0.21-0.43,0.32-0.65c0.1-0.19,0.18-0.41,0.31-0.59
				c0.17-0.23,0.35-0.46,0.46-0.73c0.09-0.24,0.15-0.5,0.33-0.69c0.04-0.04,0.09-0.08,0.14-0.1c0.05-0.03,0.14-0.04,0.18-0.07l0,0
				c0.37-0.07,0.76-0.34,1.08,0.12C158.9,35.18,158.98,35.3,158.98,35.38z"/>
		</g>
		<g>
			<path class="st9" d="M144.48,39.92c-0.09,0.21-0.23,0.55-0.32,0.76c-0.61,0.11-1.37,0.23-1.82,0.3c0.02-0.01,0.03-0.03,0.02-0.09
				c-0.01-0.07,0-0.17,0-0.24c0-0.06-0.01-0.19-0.02-0.24c0-0.07,0-0.09-0.01-0.09C143.16,40.08,143.84,40.06,144.48,39.92z"/>
		</g>
		<g>
			<path class="st10" d="M147.21,40.24c-0.29,0.05-0.86,0.15-1.15,0.15h-0.01c-0.16-0.01-0.36-0.43,0.16-0.78c0,0,0,0,0,0
				c0.25-0.08,0.8-0.14,1.09-0.15C147.08,39.66,146.92,39.97,147.21,40.24z"/>
		</g>
		<g>
			<path class="st11" d="M146.04,40.39h0.01c-0.24,0.1-0.98,0.14-1.25,0.19l-0.1,0.01c-0.04,0.01-0.04,0-0.09,0
				c-0.03,0.01-0.07,0.01-0.1,0.02c-0.11,0.02-0.22,0.04-0.33,0.06c-0.01,0-0.02,0-0.03,0c0.09-0.21,0.23-0.55,0.32-0.76
				c0.34-0.05,1.38-0.26,1.72-0.31c0,0,0,0,0,0C145.68,39.96,145.88,40.38,146.04,40.39z"/>
		</g>
		<g>
			<path class="st12" d="M142.34,40.97c-0.03,0.02-0.11,0.02-0.24,0.05c-0.13,0.03-0.27,0.06-0.41,0.09
				c-0.31,0.06-0.62,0.11-0.94,0.17c-0.64,0.12-1.28,0.26-1.93,0.28c-0.15,0-0.32,0.06-0.42-0.08c-0.02-0.03,0.02-0.16,0.07-0.19
				c0.21-0.15,0.47-0.22,0.72-0.29c0.52-0.15,1.07-0.22,1.6-0.35c0.03-0.01,0.05-0.01,0.08-0.02c0.4-0.11,1.05-0.27,1.46-0.32
				c0,0,0,0,0,0c0.02,0,0.01,0.03,0.01,0.09c0,0.06,0.02,0.19,0.02,0.24c0,0.07-0.01,0.17,0,0.24
				C142.37,40.94,142.37,40.96,142.34,40.97z"/>
		</g>
		<g>
			<path class="st9" d="M155.33,36.82c-0.02,0.05-0.02,0.05-0.03,0.1c-0.29,0.86-0.37,1.8-1.1,2.45c-0.03,0.01-0.16,0.21-0.19,0.21
				c-0.15,0.08-0.3,0.16-0.45,0.24c-0.34,0.1-0.42,0.58-0.82,0.58c-0.01,0-0.03,0-0.04,0c-0.22-0.05-0.44-0.1-0.66-0.15
				c-0.64-0.05-1.28,0-1.91-0.19l0,0h0c-0.06-0.05-0.12-0.1-0.18-0.15c-0.06-0.05-0.15-0.08-0.22-0.12c-0.19-0.1-0.4-0.22-0.61-0.28
				c-0.07-0.01-0.14-0.01-0.22-0.03c-0.08-0.02-0.15-0.04-0.22-0.06c-0.04-0.02-0.08-0.03-0.12-0.02c-0.27,0.16-0.32,0.41-0.3,0.69
				c-0.24,0.02-0.81,0.12-1.05,0.14c-0.29-0.27-0.12-0.58,0.08-0.79c0.3-0.1,1.76-0.26,2.34-0.33c0,0,0,0,0,0
				c0.29-0.06,0.6-0.04,0.9-0.08c0.28-0.1,0.93-0.24,1.19-0.35c0.57-0.27,1.11-0.6,1.63-0.96c0.52-0.36,1.02-0.75,1.52-1.14
				c0.16-0.21,0.38-0.31,0.61-0.41C155.51,36.44,155.43,36.51,155.33,36.82z"/>
		</g>
		<g>
			<path class="st4" d="M161.73,35.44C161.73,35.44,161.73,35.44,161.73,35.44c-0.26,0.25-0.42,0.58-0.56,0.9
				c-0.13,0.29-0.3,0.57-0.42,0.87c-0.11,0.28-0.25,0.55-0.43,0.79c-0.12,0.17-0.26,0.32-0.37,0.49c-0.21,0.32-0.23,0.7-0.36,1.05
				c-0.14,0.35-0.22,0.74-0.38,1.08c-0.25,0.53-0.57,1.02-0.72,1.58c-0.07,0.19-0.09,0.24-0.27,0.3c-0.14,0.05-0.34,0.29-0.53,0.29
				c-0.01,0-0.03,0-0.05-0.01c-0.01,0-0.02,0-0.03-0.01c0,0-0.01,0-0.02-0.01c-0.01,0-0.02-0.01-0.03-0.02
				c-0.01-0.01-0.03-0.02-0.04-0.04c-0.04-0.37,0.09-0.63,0.21-0.95c0.08-0.22,0.21-0.43,0.27-0.65c0.07-0.23,0.15-0.46,0.27-0.67
				c0.06-0.12,0.11-0.25,0.16-0.38c0.13-0.32,0.27-0.64,0.41-0.97c0.04-0.1,0.08-0.2,0.12-0.3c0.2-0.29,0.3-0.67,0.65-0.85
				c0.43-0.86,0.86-1.72,1.42-2.51C161.28,35.03,161.48,35.11,161.73,35.44z"/>
		</g>
		<g>
			<path class="st13" d="M150.12,40.06c-0.45,0.01-0.89,0.02-1.34,0.04c-0.18,0-0.35,0-0.52,0c-0.01-0.28,0.03-0.54,0.3-0.69
				c0.04-0.01,0.08,0,0.12,0.02c0.07,0.02,0.15,0.04,0.22,0.06c0.07,0.02,0.15,0.02,0.22,0.03c0.21,0.06,0.41,0.18,0.61,0.28
				c0.07,0.04,0.16,0.07,0.22,0.12C150.01,39.96,150.06,40.01,150.12,40.06z"/>
		</g>
		<g>
			<path class="st6" d="M157.12,38.74c-0.02,0.09-0.03,0.16-0.07,0.24c-0.04,0.08-0.04,0.21-0.05,0.3
				c-0.03,0.23-0.16,0.42-0.24,0.65c-0.04,0.11-0.08,0.22-0.12,0.33c-0.03,0.09-0.04,0.17-0.11,0.25c-0.02,0.03-0.05,0.05-0.08,0.07
				c-0.08,0.05-0.16,0.09-0.23,0.14c-0.15,0.11-0.24,0.26-0.34,0.42c-0.1,0.16-0.22,0.31-0.36,0.44c-0.05,0.05-0.11,0.1-0.14,0.16
				c-0.03,0.06-0.04,0.13-0.08,0.18c-0.08,0.11-0.2,0.02-0.27-0.05c-0.04-0.04-0.08-0.07-0.12-0.11c-0.02-0.02-0.05-0.05-0.06-0.08
				c0-0.01-0.01-0.01-0.01-0.02c-0.01-0.07,0.01-0.16,0.05-0.22c0.04-0.08,0.09-0.17,0.12-0.25c0.05-0.16,0.12-0.3,0.18-0.46
				c0.11-0.31,0.32-0.57,0.53-0.83c0.16-0.2,0.27-0.42,0.43-0.62c0.15-0.18,0.32-0.38,0.46-0.57c0.06-0.08,0.14-0.14,0.21-0.21
				c0.11-0.11,0.27-0.04,0.31,0.1C157.13,38.65,157.14,38.7,157.12,38.74z"/>
		</g>
		<g>
			<path class="st6" d="M160.59,34.96c0.02,0.55-0.61,0.5-0.8,0.85c0.13-0.28,0.11-0.47-0.1-0.75V35
				C159.71,34.99,160.44,34.61,160.59,34.96z"/>
		</g>
		<g>
			<path class="st9" d="M161.86,35.51c-0.01,0.37-0.18,0.75-0.37,1.07c-0.12,0.2-0.22,0.38-0.3,0.61c-0.09,0.23-0.19,0.46-0.34,0.66
				c-0.08,0.11-0.17,0.21-0.23,0.33c-0.06,0.14-0.08,0.29-0.14,0.43c-0.08,0.17-0.21,0.28-0.31,0.43c-0.1,0.15-0.15,0.34-0.18,0.52
				c-0.05,0.3-0.08,0.55-0.25,0.81c-0.15,0.24-0.33,0.45-0.46,0.7c-0.18,0.34-0.24,0.73-0.31,1.1c-0.08,0.39-0.21,0.73-0.35,1.09
				c-0.07,0.18-0.3,0.87-0.58,0.57c-0.04-0.04-0.05-0.09-0.08-0.14c-0.07-0.11-0.22-0.14-0.36-0.17c-0.24-0.05-0.46-0.14-0.67-0.27
				c-0.04-0.02-0.08-0.05-0.1-0.09c-0.03-0.07,0-0.15,0.03-0.22c0.85-2.01,1.62-4.05,2.3-6.12c-0.13,0.06-0.26,0.11-0.38,0.19
				c-0.15,0.1-0.26,0.24-0.38,0.38c-1.14,1.41-1.86,3.15-2.04,4.95c-0.01,0.1-0.03,0.21-0.12,0.25c-0.09,0.04-0.19-0.02-0.23-0.11
				c-0.04-0.09-0.03-0.18-0.02-0.28c0.13-0.93,0.67-1.76,0.89-2.68c0.05-0.19,0.08-0.39,0.16-0.57c0.04-0.1,0.1-0.19,0.09-0.3
				c-0.01-0.1-0.11-0.21-0.21-0.17c-0.04,0.01-0.07,0.05-0.09,0.08c-0.22,0.26-0.44,0.52-0.66,0.79c-0.29,0.35-0.59,0.7-0.81,1.1
				c-0.22,0.39-0.36,0.83-0.51,1.25c-0.18-0.03-0.35-0.17-0.4-0.35c0.11-0.35,0.48-0.61,0.67-0.92c0.1-0.17,0.13-0.34,0.23-0.51
				c0.15-0.24,0.42-0.37,0.58-0.6c0.14-0.2,0.18-0.48,0.3-0.69c0.15-0.26,0.4-0.43,0.59-0.67c0.21-0.26,0.3-0.57,0.46-0.86
				c0.27-0.49,0.64-0.95,1.05-1.34c0.41-0.38,0.91-0.68,1.45-0.78c0.17,0.18,0.12,0.47,0.06,0.71c-0.05,0.21-0.11,0.42-0.16,0.63
				c-0.15,0.61-0.31,1.22-0.51,1.81c-0.27,0.79-0.62,1.55-0.93,2.32c-0.26,0.66-0.48,1.34-0.71,2.02c-0.03,0.09-0.05,0.19,0,0.26
				c0.06,0.08,0.19,0.07,0.28,0.01c0.09-0.05,0.15-0.13,0.24-0.18c0.08-0.05,0.18-0.07,0.26-0.13c0.07-0.06,0.1-0.15,0.14-0.24
				c0.2-0.56,0.4-1.09,0.65-1.63c0.16-0.34,0.33-0.68,0.47-1.04c0.14-0.35,0.16-0.73,0.36-1.05c0.11-0.17,0.25-0.33,0.37-0.49
				c0.18-0.24,0.32-0.51,0.43-0.79c0.11-0.3,0.28-0.58,0.42-0.87c0.15-0.32,0.31-0.66,0.57-0.9
				C161.77,35.47,161.82,35.49,161.86,35.51z"/>
		</g>
		<g>
			<path class="st7" d="M173.49,26.04c-0.08,0.02,2.06-7.78,3.96-10.4c0,0,0.23,2.8,0.52,3.51
				C177.97,19.15,175.17,25.64,173.49,26.04z"/>
		</g>
		<g>
			<path class="st4" d="M174.82,25.45c-0.06,0.11-0.12,0.22-0.18,0.33c-0.22,0.13-0.47,0.27-0.62,0.37
				c-0.19,0.12-0.52,0.37-0.73,0.6c0.06-0.24,0.11-0.46,0.16-0.64c0.13-0.12,0.38-0.27,0.83-0.43
				C174.5,25.61,174.68,25.53,174.82,25.45z"/>
		</g>
		<g>
			<path class="st6" d="M173.29,31.41c0,0,1.14-0.85,1.73-1.82c0.59-0.97,0.61-1.21,0.61-1.21S173.44,31.03,173.29,31.41z"/>
		</g>
		<g>
			<path class="st6" d="M191.35,1.73c0,0,1.07-1.6,1.18-1.71s0.33,0.16,0.38,0.64s-0.51,1.6-0.65,1.76
				c-0.15,0.16,0.22,0.75,0.18,0.87C192.41,3.43,191.35,1.73,191.35,1.73z"/>
		</g>
		<g>
			<path class="st5" d="M183.46,14.97l0.76-1.39c0,0,1.64,1.8,1.28,8.1c0,0-1.17,2.62-1.56,3.77c0,0,0.85-5.74,0.38-8.28
				S183.46,14.97,183.46,14.97z"/>
		</g>
		<g>
			<path class="st6" d="M178.82,28.53c0,0,1.53-5.57,1.36-7.12c0,0,2.51-5.05,3.27-6.44s1.47,3.55,1.47,3.55l-0.98,6.93
				c0,0-2.1,4.96-2.32,5.51c0,0-1.15,1.15-1.36,1.36c0,0,1.36-5.75,1.61-8.02s0-2.35,0-2.35L178.82,28.53z"/>
		</g>
		<g>
			<path class="st4" d="M180.18,21.41c0,0,1.94-2.51,2.46-2.59c0.52-0.08-0.19,2.48-1.72,6c-1.53,3.52-3.6,7.5-3.3,11.71l0.7-1.15
				c0,0,0.58-4.5,1.88-7.71s2.71-5.88,3.04-7.14c0.33-1.26,0.57-2.37,0-2.67c-0.57-0.3-1.91,1.26-1.91,1.26L180.18,21.41z"/>
		</g>
		<g>
			<path class="st9" d="M172.76,49.49c0,0,1.99,2.89,10.7-6.27c0,0,2.31-13.63,4.12-18.13l0.82-6.39l-0.94-1.5l-1.95,4.48
				l-1.56,3.77l-2.32,5.51C181.63,30.96,176.15,43.98,172.76,49.49z"/>
		</g>
		<g>
			<path class="st6" d="M183.46,43.22c0,0-0.2,3.97-0.21,4.17c-0.01,0.2-1.45,0.36-1.71,0.1C181.28,47.23,183.46,43.22,183.46,43.22
				z"/>
		</g>
		<g>
			<path class="st8" d="M186,56.56l0.64,0.82c0,0-1.87,6.74-2.28,11.41c0,0,0.03,0.06-0.52,0.22C183.84,69,183.76,62.86,186,56.56z"
				/>
		</g>
		<g>
			<path class="st7" d="M185.97,67.7c-0.11-0.08-0.21-0.17-0.27-0.25c0,0-0.11,0.58-0.46,0.99c0.27-2.45,0.95-7.48,2.08-10.16
				c0.13,0.18,0.28,0.37,0.43,0.58C187.45,59.78,186.73,62.35,185.97,67.7C185.97,67.69,185.97,67.7,185.97,67.7"/>
		</g>
		<g>
			<path class="st8" d="M185.97,67.7C185.97,67.7,185.97,67.7,185.97,67.7c0.08-0.15,2.32-4.5,3.2-5.99
				c0.08-0.14,0.15-0.26,0.21-0.34v1.94l-0.09,0.17l-1.55,2.86l-0.01,0.02l-0.5,0.92l-0.6-0.34c0,0,0.08,0.93-0.11,1.09
				C186.52,68.02,186.22,67.88,185.97,67.7"/>
		</g>
		<g>
			<path class="st7" d="M190.19,66.72c-0.23-0.1-0.5-0.23-0.67-0.36c0,0-0.01,0.04-0.02,0.1c-0.07-0.9-0.14-1.98-0.21-2.99
				c-0.04-0.64-0.09-1.25-0.12-1.76c-0.03-0.44-0.05-0.8-0.07-1.04c0.29,0.39,0.57,0.78,0.83,1.14
				C189.93,63.15,190.1,65.63,190.19,66.72z"/>
		</g>
		<g>
			<path class="st4" d="M166.4,48.99c0-0.08,0.01-0.09,0.02-0.12c0.15-0.37,0.43-0.68,0.68-0.98c0.82-0.93,1.73-1.77,2.66-2.59
				c0.92-0.81,1.88-1.65,3.04-2.11c0.82-0.35,1.85-0.21,1.99,0.82c0,0.43-0.16,0.81-0.27,1.21c-0.42,1.37-1.02,2.7-1.49,4.04
				c-0.13,0.75,0.86,0.7,1.35,0.61c0.61-0.1,1.18-0.32,1.7-0.66c0,0,0.26-0.16,0.26-0.16c0.09-0.06,0.18-0.11,0.22-0.23
				c0.07-0.17,0.06-0.38,0.21-0.48c0.49-0.43,0.97-0.87,1.48-1.28c0.22-0.2,0.46-0.39,0.68-0.6c0.08-0.07,0.14-0.15,0.25-0.18
				c0.11-0.04,0.24-0.06,0.33-0.11c0.35-0.32,0.68-0.8,0.99-1.17c1.92-2.44,2.81-5.48,4.63-7.99c0.51-0.72,1.07-1.43,1.84-1.89
				c0.14-0.07,0.29-0.15,0.44-0.19c0.21-0.08,0.43-0.08,0.66-0.06c0.06,0.01,0.11,0.06,0.1,0.13c-0.01,0.06-0.06,0.11-0.13,0.11
				c-0.38-0.07-0.77,0.06-1.11,0.27c-1.02,0.67-1.73,1.73-2.38,2.75c-1,1.56-1.71,3.28-2.6,4.9c-0.5,0.89-1.08,1.76-1.72,2.57
				c-0.18,0.26-0.42,0.46-0.58,0.73c-0.04,0.1-0.05,0.23-0.08,0.34c-0.03,0.11-0.11,0.19-0.17,0.27c-0.2,0.25-0.41,0.48-0.62,0.72
				c-0.47,0.5-1,0.94-1.58,1.3c-0.15,0.12-0.36,0.06-0.54,0.05c-0.12-0.01-0.2,0.06-0.29,0.12c-0.25,0.16-0.53,0.34-0.8,0.47
				c-0.96,0.46-3.36,0.93-2.41-0.92c0.46-1.14,0.91-2.29,1.29-3.46c0.11-0.38,0.27-0.79,0.27-1.18c-0.3-1.56-2.1-0.77-2.96-0.17
				c-1.35,0.92-2.52,2.1-3.68,3.25c-0.52,0.57-1.11,1.12-1.43,1.83c-0.01,0.01-0.01,0.05-0.01,0.03
				C166.65,49.1,166.42,49.14,166.4,48.99L166.4,48.99z"/>
		</g>
		<g>
			<path class="st8" d="M179.44,56.14c-0.01,0-0.02,0-0.02,0c-0.18-0.01-0.34-0.13-0.5-0.38c-0.07-0.11-0.2-0.18-0.36-0.27
				c-0.64-0.37-1.61-0.92-1.36-4.67c0.03-0.47,0.1-0.95,0.21-1.45c-0.61,0.41-1.25,0.81-1.88,1.12c-1.66,0.84-2.66,0.64-3.1,0.45
				c-0.35-0.15-0.52-0.36-0.56-0.5c-0.05-0.16,0.14-0.86,0.5-2.19c0.39-1.43,0.88-3.22,0.91-4.03c0.01-0.42-0.14-0.71-0.45-0.83
				c-0.61-0.25-1.89,0.17-3.25,1.67c-1.95,2.16-3.81,3.05-3.83,3.06c-0.04,0.02-0.09,0-0.11-0.04c-0.02-0.04,0-0.09,0.04-0.11
				c0.02-0.01,1.85-0.89,3.78-3.02c1.42-1.57,2.75-1.99,3.43-1.71c0.37,0.15,0.57,0.5,0.55,0.99c-0.03,0.83-0.52,2.63-0.92,4.07
				c-0.26,0.97-0.54,1.96-0.5,2.1c0.03,0.1,0.19,0.27,0.47,0.39c0.42,0.18,1.36,0.37,2.96-0.44c0.67-0.34,1.36-0.76,2.01-1.21
				c0.94-4.14,4.03-9.04,5.03-9.42c0.14-0.05,0.22-0.01,0.27,0.03c0.7,0.68-2.05,6.65-2.08,6.71c-0.24,0.51-1.53,1.7-3.07,2.77
				c-0.12,0.55-0.21,1.09-0.24,1.6c-0.25,3.64,0.67,4.17,1.28,4.51c0.17,0.1,0.32,0.18,0.41,0.32c0.13,0.2,0.26,0.3,0.38,0.31
				c0.21,0.01,0.47-0.26,0.72-0.56c0.35-0.42,0.86-0.91,1.3-0.82c0.25,0.05,0.43,0.27,0.55,0.66c0.01,0.04-0.01,0.09-0.05,0.1
				c-0.04,0.01-0.09-0.01-0.1-0.05c-0.1-0.32-0.24-0.51-0.42-0.54c-0.27-0.06-0.68,0.22-1.14,0.76
				C179.95,55.9,179.7,56.14,179.44,56.14z M182.6,39.86c-0.02,0-0.04,0-0.06,0.01c-0.81,0.31-3.89,5.01-4.88,9.12
				c1.45-1.02,2.64-2.13,2.87-2.61c0.68-1.41,2.6-6.05,2.11-6.52C182.63,39.86,182.62,39.86,182.6,39.86z"/>
		</g>
		<g>
			<path class="st7" d="M172.56,51.4c-0.27,0-0.52-0.03-0.76-0.09l-0.03-0.01c-0.06-0.02-0.11-0.06-0.14-0.12
				c-0.18-0.41,0.73-2.23,1.02-2.78c1.44-3.29,1.35-5.03,0.83-5.52c-0.3-0.28-0.74-0.15-1.05,0.02c-1.68,0.86-4.95,4.11-5.97,5.25
				c-0.25,0.29-0.23,0.37-0.23,0.37c0.05,0.07,0.54,0.01,1.08-0.18c0.06-0.02,0.13,0.01,0.15,0.07s-0.01,0.13-0.07,0.15
				c-0.34,0.12-1.16,0.37-1.35,0.09c-0.13-0.19,0.08-0.47,0.25-0.66c1.03-1.15,4.33-4.42,6.04-5.3c0.69-0.36,1.1-0.19,1.32,0.02
				c0.77,0.72,0.47,2.94-0.78,5.79c-0.57,1.08-1.11,2.36-1.02,2.58l0.02,0c1.75,0.46,4.58-0.93,7.96-3.9
				c2.03-1.79,3.27-3.46,4.26-4.79c1.26-1.7,2.18-2.94,3.92-3.52c0.06-0.02,0.13,0.01,0.15,0.07c0.02,0.06-0.01,0.13-0.07,0.15
				c-1.68,0.56-2.57,1.76-3.81,3.43c-1,1.35-2.24,3.02-4.29,4.83C176.98,49.99,174.39,51.4,172.56,51.4z M171.83,51.07L171.83,51.07
				C171.83,51.07,171.83,51.07,171.83,51.07z"/>
		</g>
		<g>
			<path class="st8" d="M179.44,56.14c-0.01,0-0.02,0-0.02,0c-0.18-0.01-0.34-0.13-0.5-0.38c-0.07-0.11-0.2-0.18-0.36-0.27
				c-0.64-0.37-1.61-0.92-1.36-4.67c0.29-4.36,4.15-10.67,5.28-11.1c0.14-0.05,0.22-0.01,0.27,0.03c0.03,0.03,0.03,0.08,0,0.12
				c-0.03,0.03-0.08,0.03-0.12,0c-0.02-0.02-0.05-0.01-0.1,0c-0.94,0.36-4.88,6.55-5.18,10.96c-0.25,3.64,0.67,4.17,1.28,4.51
				c0.17,0.1,0.32,0.18,0.41,0.32c0.13,0.2,0.26,0.3,0.38,0.31c0.21,0.01,0.47-0.26,0.72-0.56c0.35-0.42,0.86-0.91,1.3-0.82
				c0.25,0.05,0.43,0.27,0.55,0.66c0.01,0.04-0.01,0.09-0.05,0.1c-0.04,0.01-0.09-0.01-0.1-0.05c-0.1-0.32-0.24-0.51-0.42-0.54
				c-0.27-0.06-0.68,0.22-1.14,0.76C179.95,55.9,179.7,56.14,179.44,56.14z"/>
		</g>
	</g>
</g>
</svg>
