<?xml version="1.0" encoding="utf-8"?>
<!-- Generator: Adobe Illustrator 25.4.1, SVG Export Plug-In . SVG Version: 6.00 Build 0)  -->
<svg version="1.1" id="Layer_1" xmlns="http://www.w3.org/2000/svg" xmlns:xlink="http://www.w3.org/1999/xlink" x="0px" y="0px"
	 viewBox="0 0 493.21 80" style="enable-background:new 0 0 493.21 80;" xml:space="preserve">
<style type="text/css">
	.st0{fill:#120B7C;}
</style>
<path id="XMLID_14_" class="st0" d="M493.21,27.22c-0.86,1.44-1.44,3.02-2.45,4.32c-14.24,17.98-32.79,28.19-55.65,30.78
	c-21.57,2.31-42.57-1.58-62.98-7.91c-17.54-5.46-34.94-11.65-52.92-14.95C277.08,31.83,242,44.77,214.1,76.99
	c-0.72,0.86-1.44,1.87-2.31,2.73c0,0-0.14,0-0.72,0.28c8.34-16.11,20.13-28.47,35.08-38.68c-1.73-0.43-3.02-0.72-4.32-1.15
	c-10.07-2.73-18.4-8.34-27.04-14.09c-6.91-4.6-13.66-9.34-20.99-13.08c-9.2-4.6-19.13-5.61-29.33-2.59
	c-1.01,0.28-2.01,0.86-3.02,1.29c-0.43,0.28-0.86,0.58-1.44,1.01c0.28,0.28,0.43,0.58,0.72,0.72c11.36,5.75,18.4,15.25,23.01,26.74
	c4.32,10.49,5.89,21.57,6.47,33.07c-0.43-0.28-0.72-0.43-0.86-0.58c-8.62-13.8-21.57-21.28-36.95-24.73
	c-18.55-4.17-36.81-2.45-54.93,2.59c-8.62,2.31-17.11,5.61-25.88,8.05c-15.67,4.46-31.49,6.33-47.45,2.45
	c-7.33-1.73-14.09-4.74-19.99-9.64C2.59,50.08,1.29,48.35,0,46.92c0.14-0.14,0.28-0.43,0.43-0.58c1.01,0.43,2.01,0.86,2.87,1.44
	c11.07,6.61,23.01,8.62,35.66,7.62c14.81-1.15,28.75-5.89,42.71-10.64c9.78-3.31,19.55-6.61,29.91-7.91
	c19.55-2.59,37.97,0.72,55.21,10.35c4.46,2.59,8.78,5.61,13.08,8.48l0.14-0.14c-4.02-10.49-8.78-20.57-16.68-28.91
	c-7.62-8.2-17.26-12.66-28.33-13.95c-4.17-0.43-8.48-0.43-12.8-0.72c-0.72,0-1.29-0.28-1.87-0.43c0.28-0.72,0.28-1.58,0.72-2.01
	c3.88-4.17,8.48-6.19,14.24-5.18c3.02,0.58,6.04,0.86,9.06,1.44c3.31,0.58,6.47,0,9.78-1.01c5.75-1.73,11.51-3.45,17.4-4.32
	c10.21-1.58,19.85,1.01,28.61,6.19c6.33,3.74,12.51,7.91,18.55,12.08c9.2,6.19,18.84,11.36,30.2,12.94
	c6.75,0.86,13.52,0.58,20.13-1.44c27.46-8.48,54.64-7.05,81.39,3.31c13.66,5.32,27.32,10.35,41.27,14.95
	c13.95,4.6,28.47,6.61,43.28,5.18c18.69-1.73,34.8-9.34,49.46-20.85c2.59-2.01,5.18-4.17,7.77-6.19
	C492.63,26.79,492.93,27.08,493.21,27.22z"/>
</svg>
