<?xml version="1.0" encoding="utf-8"?>
<!-- Generator: Adobe Illustrator 25.4.1, SVG Export Plug-In . SVG Version: 6.00 Build 0)  -->
<svg version="1.1" id="Layer_1" xmlns="http://www.w3.org/2000/svg" xmlns:xlink="http://www.w3.org/1999/xlink" x="0px" y="0px"
	 viewBox="0 0 70.9 80" style="enable-background:new 0 0 70.9 80;" xml:space="preserve">
<style type="text/css">
	.st0{fill:#1C489C;}
</style>
<g>
	<path class="st0" d="M38,57c-6.6,1.8-13.3,2.1-20.1,0.7c0.2,1.2,0.8,1.5,1.7,1.7c1.6,0.4,3.2,0.8,4.9,1.1c7.5,1.4,15,1.9,22.3-0.8
		c8.2-3,11.7-11.2,7.8-18.8c-2.7-5.3-7.1-8.6-13-9.6c-1.5-0.2-1.8-0.6-1.5-2.1c0.5-2.4,1-4.9,1-7.4c0.2-6.6-2.8-11.8-8.2-15.3
		c-5.2-3.3-10.5-2.1-15.5,0.8c-6.6,3.9-10.9,9.7-13.9,16.7c-11.7,27.5,7.6,55.3,33,55.8c6,0.1,11.8-0.7,16.9-4.4
		c-0.7-0.8-1.5-0.4-2.2-0.4c-3.3,0-6.5,0-9.8,0C18.8,74.6,2.1,51.8,8.7,30.5c2-6.5,5.6-12.1,11.6-15.8c2.8-1.7,5.8-1.9,8.6,0
		c2.7,1.8,3.9,4.5,3.8,7.8c-0.2,3.4-0.9,6.7-2.2,9.9c-0.6,1.6-1.4,3.2-1.1,5c5.8-1.7,11.1-0.9,16,2.3c5.1,3.2,5.6,8.6,1.2,12.8
		C44.2,54.8,41.2,56.1,38,57z"/>
	<path class="st0" d="M66.4,22.5c-1.5-1.1-3.1-1.9-4.8-2.6c-1.5-0.6-3.8,0.2-4.5-1.3c-0.7-1.5,0.3-3.4,0.4-5.1
		c0.3-4.8-0.3-9.3-4.9-11.9c-4.7-2.6-9.4-2-13.8,0.9c-0.8,0.5-1.7,1.2-2.1,2.3c1.5,0.2,2.7-0.4,3.9-0.7c5.8-1.4,8.7,0.6,9.6,6.4
		c0.6,4,0.1,7.8-1.5,11.6c-0.7,1.7-0.2,2.2,1.6,2.2c3.6,0,7.1,0.4,10.3,2.4c4.5,2.8,5.5,8.1,2.3,12.3c-0.9,1.3-1.9,2.5-2.9,3.7
		c3.9-0.3,6.3-2.6,8.4-5.3C72.4,32.1,71.6,26.5,66.4,22.5z"/>
</g>
</svg>
