<?xml version="1.0" encoding="utf-8"?>
<!-- Generator: Adobe Illustrator 25.4.1, SVG Export Plug-In . SVG Version: 6.00 Build 0)  -->
<svg version="1.1" id="Layer_1" xmlns="http://www.w3.org/2000/svg" xmlns:xlink="http://www.w3.org/1999/xlink" x="0px" y="0px"
	 viewBox="0 0 479.1 80" style="enable-background:new 0 0 479.1 80;" xml:space="preserve">
<style type="text/css">
	.st0{fill:#7598CF;}
	.st1{fill:#939598;}
	.st2{fill:#1C489C;}
</style>
<g>
	<g>
		<path class="st0" d="M41.9,9.4C41.9,9.4,41.9,9.4,41.9,9.4C41.9,9.4,41.9,9.4,41.9,9.4c-2.5-0.8-4.9-1.2-7.3,0.4
			c-0.7,0.6-0.4,1.4-0.4,2.1c0,14.8,0,29.6,0,44.4c0,0.7-0.3,1.5,0.5,2.1c0,0,0,0,0,0c0,0,0,0,0,0c2.4,1.2,4.9,1.3,7.3,0
			c0.4-0.3,0.5-0.7,0.5-1.2c0-9.3-0.1-18.6-0.1-27.9c0-1,0-2,0-3.1c0,0,0,0,0,0c0-0.5,0-1,0-1.5c0-0.9,0-1.8,0-2.6c0,0,0,0,0,0
			c0-3.7,0.1-7.4,0.1-11.1C42.5,10.4,42.6,9.8,41.9,9.4z M34.7,24.6C34.7,24.6,34.7,24.7,34.7,24.6C34.6,24.6,34.6,24.6,34.7,24.6
			C34.7,24.6,34.7,24.6,34.7,24.6z M35.8,23.9c0,0,0-0.1,0-0.1c0,0,0.1,0,0.1,0C35.8,23.8,35.8,23.9,35.8,23.9z"/>
		<path class="st0" d="M77,29.4c0.2-1.6,0.2-3.4-0.7-4.5c-1-1.2-3.5-0.6-4.8-0.5c-0.1,0-0.1,0-0.2,0c-0.6,0-1.4-0.3-1.9,0.4
			c-0.7,0.7-0.4,1.6-0.4,2.4c0,5.9,0,11.8,0,17.7c0,3.1-3.5,7.1-6.3,7.2c-2.7,0.1-4.5-2.6-4.6-6.7c0-1.9,0-3.8,0-5.7
			c0-2.9,0-5.9-0.1-8.8c0-0.5,0-1,0-1.5c0.2-5.1,0-5.4-5.1-5c-0.1,0-0.1,0-0.2,0c-2.6,0.1-2.8,0.4-2.3,3.2c-0.2,7.3-0.4,14.7,0.1,22
			c0.3,4.1,1.8,7.9,6.1,9.6c4.5,1.7,8.3,0.3,11.6-2.9c0.5-0.5,0.9-1.2,1.7-2.2c0.1,1.3,0.1,1.8,0.1,2.3c0.1,2.5,0.7,3,3.7,3
			c2.6,0,3.1-0.5,3.1-2.9c0-5.5-0.2-10.9-0.1-16.4c0-2.8,0.1-5.5,0.2-8.3C76.8,31,76.9,30.2,77,29.4z"/>
		<path class="st0" d="M25.1,28.4c-1.1-1.8-2.6-3.5-4.6-4.2c-1.4-0.5-3-0.9-4.5-0.8c-1.4,0.1-2.7,0.6-3.9,1.3
			c-0.7,0.4-1.7,0.8-2.2,1.4c-0.4,0.4-0.7,0.9-1.3,1c-0.8-0.7-0.5-1.5-0.5-2.3c0-4.2,0-8.4,0-12.6c0-0.8,0.3-1.7-0.4-2.4
			c-1.3-1.4-3-1-4.5-1c-3,0-3.3,0.4-3.3,3.2c0,14.7,0,29.3,0,44c0,2.7,0.4,3.1,3.1,3.2c3.1,0.1,3.6-0.4,3.7-3.4
			c0-0.3,0.1-0.5,0.2-1.3c1,1,1.8,1.9,2.6,2.6c1.7,1.6,3.8,2.5,6.2,2.5c5,0.1,8.9-2.7,10.7-7.9c1.9-5.6,2.3-11.7,1-17.6
			c-0.3-1.2-0.6-2.3-1.1-3.5C26,30,25.6,29.2,25.1,28.4z M18.7,48.4c-1.8,4.3-5.3,4.8-8.6,1.5c-2.3-2.4-2.3-2.4-2.3-9.1
			C7.3,38.1,8,35.1,11,32.7c3-2.4,6.4-1.8,7.7,1.8C20.5,39.1,20.6,43.8,18.7,48.4z"/>
		<path class="st0" d="M110.4,36.7c-0.9-11.1-10.2-16.4-20-11.4c-0.6,0.4-1.2,0.9-1.9,1.3c0,0,0,0,0,0c0,0,0,0,0,0
			c-1.8,1.7-3.2,3.9-4,6.2c-2,5.6-2,11.4-0.5,17.2c1.3,5.1,4.5,8.3,9.7,9.4c3.7,0.8,7.4,0.4,11-0.5c4-1.1,4.5-1.7,4.3-5.9
			c-0.1-2.4-0.5-2.7-2.8-1.7c-2.6,1.1-5.2,1.7-8,1.7c-4.2-0.1-6.6-2.4-7.1-6.5c-0.2-1.8,0.1-2.6,2.2-2.5c4.6,0.2,9.3,0,13.9,0.1
			c2.1,0,3.1-0.9,3.1-3C110.4,39.6,110.5,38.1,110.4,36.7z M102.7,37.1c0,0.9-0.6,0.9-1.3,0.9c-1.5,0-3,0-4.5,0
			c-1.3,0-2.6-0.1-3.9,0c-1.8,0.2-2.1-0.7-1.8-2.2c0.4-2.1,1.1-4.1,3.2-5.2c2-1.1,4.1-1.1,6,0.4C102.4,32.6,102.8,34.8,102.7,37.1z"
			/>
	</g>
	<g>
		<path class="st1" d="M470.1,39.9c-1.5-0.7-3.1-1.3-4.3-2.5c-2.3-2.3-1.5-6.1,1.6-7.1c2.6-0.9,5.1-0.2,7.5,0.9
			c0.8,0.4,1.5,1.4,2.4,0.6c0.8-0.7,0.5-1.8,0.4-2.8c-0.1-1-0.7-1.6-1.5-2.1c-1.5-0.9-3.1-1.3-4.7-1.5c-4.6-0.8-9.5,1.6-11.2,5.3
			c-2.2,4.7-0.5,9.7,4.1,12.2c2.4,1.4,5.2,2.1,7.5,3.7c1.7,1.2,2.1,2.9,1.8,4.8c-0.3,1.9-1.5,2.9-3.2,3.4c-1.9,0.6-3.7,0.5-5.6,0
			c-1.6-0.4-2.9-1.3-4.3-2.1c-1.2-0.7-1.8-0.3-2,1c-0.3,2.5,0.3,3.7,2.8,4.8c7.1,3,13,1.1,17.7-5.7c0-1.8,0-3.6,0-5.5
			C477.7,43.1,473.8,41.6,470.1,39.9z"/>
		<path class="st1" d="M346,25.6c-2.3-0.6-4.3-0.2-6.2,1.2c-1.4,1.1-2.4,2.6-3.9,4.3c0-1.3-0.1-2.2,0-3.1c0.2-1.9-0.8-2.4-2.5-2.4
			c-1.5,0-2.3,0.5-2.3,2.3c0.1,9.7,0.1,19.4,0,29.1c0,2.2,1.1,2.3,2.7,2.3c1.7,0,2.7-0.4,2.6-2.4c-0.1-5.6,0-11.2-0.1-16.8
			c-0.1-4,2.4-6.5,5.2-8.8c0.9-0.7,2.1-0.7,3.3-0.4c3.3,0.8,3.3,0.7,3.3-2.6C348.1,26.7,347.5,26,346,25.6z"/>
		<path class="st1" d="M321.3,28.2c0-2.1-1.2-2.3-2.8-2.4c-1.6,0-2.8,0.3-2.7,2.4c0.1,4.8,0,9.5,0,14.3c0,4.8,0.1,9.7,0,14.5
			c-0.1,2.1,1,2.4,2.7,2.3c1.5,0,2.8,0.1,2.8-2.2C321.2,47.5,321.2,37.8,321.3,28.2z"/>
		<path class="st1" d="M318.5,13c-2.5,0-3.2,0.9-3.2,3.5c0,2.5,0.7,3.3,3.2,3.3c2.5,0,3.3-0.8,3.3-3.4C321.8,13.8,321,13,318.5,13z"
			/>
		<path class="st1" d="M452.3,25.6C452.1,25.7,452.4,25.5,452.3,25.6c-0.1,0-0.2-0.1-0.3,0c-0.9-0.1-1.4,0.7-1.7,1.4
			c-1.2,3.1-1.6,3.9-2.2,6c-1.1,3.8-2.4,7.6-3.6,11.5c-0.8,2.4-1.6,4.9-2.6,8c-2.5-7.6-4.8-14.4-7-21.3c0,0,0,0,0,0c0,0,0,0,0,0
			c-0.3-0.8-0.5-1.6-0.8-2.3c0,0,0,0,0,0c-0.4-1-0.4-2.1-1.4-2.7c-0.1,0-0.2-0.1-0.3-0.1c-1.3-0.6-2.6-0.5-3.9,0.2
			c-1.6,0.9-0.7,1.9-0.2,2.9c0,0.1,0.1,0.2,0.1,0.3c3.4,9.8,6.8,19.6,10.3,29.4c0.2,0.5,0.3,1,0.1,1.5c-1,2.9-2.1,5.8-3,8.7
			c-0.8,2.8-1,2.9,2.1,2.9c0.7,0.1,1.4,0.3,1.9-0.3c1.4-0.6,1.4-2.1,1.8-3.2c0,0,0,0,0,0c0.7-0.6,0.3-1.5,0.5-2.2c0,0,0,0,0,0
			c1.6-3.3,2.5-6.9,3.7-10.4c2.8-8.2,5.4-16.4,8.1-24.6c0.3-1.4,0.3-1.4,0.5-2.1c0.3-0.9,1.3-1.9,0.3-2.7
			C454,25.6,453.3,25.7,452.3,25.6z"/>
		<path class="st1" d="M394.7,26.2c-1.6-0.7-3.2-0.7-4.6,0.4c0,0,0,0,0,0c-2.5,7.7-4.3,15.5-6.4,23.3c-0.2,0.8-0.2,1.8-1,2.4
			c-2.3-8.3-4.5-16.5-6.8-24.7c0.1-0.9-0.4-1.4-1.3-1.5v0c-3.1-0.8-3.9-0.4-4.7,2.6c-0.1,0.5-0.3,1-0.4,1.5
			c-1.8,7.3-3.7,14.6-5.5,22c-1-2.2-1.6-4.4-2.3-6.7c-1.6-6-3.2-12-4.9-17.9c-0.5-1.7-2.4-2.4-4.5-1.8c-1.9,0.6-1.1,1.9-0.8,3
			c2.6,9.5,5.4,18.9,8,28.4c0.7,2.6,2.6,2.1,4.3,2.2c1.7,0.1,3.1-0.2,3.5-2.3c0.9-4.1,2-8.2,3-12.3c0.7-2.9,1.5-5.9,2.3-8.8
			c2.1,6.5,3.8,13,5.6,19.5c1.1,4.1,1.1,4,5.4,3.9c1.5,0,2.4-0.5,2.8-2.1c2.5-8.9,5-17.7,7.6-26.6c0.1-0.4,0.3-0.7,0.4-1.1
			c0-0.1,0-0.2-0.1-0.3c0,0.1,0,0.2,0.1,0.3C394.5,28.5,395.8,27.4,394.7,26.2C394.7,26.2,394.7,26.2,394.7,26.2z"/>
		<path class="st1" d="M295.7,16c-0.8-2.3-2.5-2.1-4.2-2.1c-1.8,0-3.2,0-3.9,2.2c-1.4,4.7-3.1,9.3-4.6,14
			c-2.9,8.8-5.9,17.7-8.8,26.5c-0.3,0.8-0.8,1.7,0.1,2.5c1.3,1.1,4.8,0.1,5.3-1.6c0.9-2.7,1.8-5.5,2.6-8.2c0.4-1.4,1.1-1.9,2.6-1.9
			c4.6,0.1,9.1,0.1,13.7,0c1.4,0,2,0.4,2.4,1.7c0.7,2.6,1.8,5.2,2.5,7.8c0.5,1.9,1.4,2.8,3.1,2.4c3.4,0,3.7-0.2,2.9-2.7
			C304.8,43.1,300.2,29.6,295.7,16z M297.1,42.6c-3.8,0-7.6,0-11.4,0c-1.2,0-1.4-0.4-1-1.5c2.2-6.7,4.4-13.5,6.5-20.2
			c0.2,0,0.3,0,0.5,0.1c2.2,6.7,4.4,13.5,6.6,20.2C298.7,42.2,298.2,42.6,297.1,42.6z"/>
		<path class="st1" d="M422.9,36.4c-0.1-3.4-0.6-6.7-3.6-8.9c0,0,0,0,0,0c-0.7-0.5-1.3-1.2-2.3-1.3c0,0,0,0,0,0c0,0,0,0,0,0
			c-1-0.3-2.1-0.6-3.2-0.6c0,0,0,0,0,0c-2.5-0.8-4.9-0.2-7.3,0.5l0,0c-0.8,0.1-1.6,0.5-2.2,1c-0.7,0-1.4,0.3-1.9,0.8c0,0,0,0,0,0
			c-0.4,0.3-0.9,0.6-1.2,1c-1,1.3-1,2.8-0.2,3.9c0.9,1.1,1.8-0.2,2.7-0.6c1.1-0.5,2.1-1.1,3.2-1.6c2.3-0.8,4.6-0.3,6.9-0.4
			c0,0,0,0,0,0c0,0,0,0,0,0c0.4,0.2,0.9,0.4,1.3,0.5c1.8,1.7,2.4,3.9,2.5,6.3c0.1,2.1-0.4,3-2.7,2.8c-3.3-0.2-6.7,0.1-9.8,1.4
			c-4.4,1.8-6.4,5.3-5.9,10.6c0.3,3.8,3,6.8,7,7.7c3.6,0.8,6.9,0.2,9.9-2.2c0.7-0.5,1.2-1.4,2.2-1.4c0,0.4,0.1,0.7,0.1,0.9
			c-0.3,1.9,0.5,2.5,2.4,2.5c2,0,2.2-1,2.2-2.6C423,50,423.1,43.2,422.9,36.4z M410,55.3c-2.8,0-4.8-1.4-5.2-3.8
			c-0.6-3,0.5-5.6,3.1-6.6c2.8-1.1,5.8-1,8.8-1c0.8,0,1,0.5,1,1.2c0,0.8,0,1.7,0,2.5C417.6,52,414.3,55.3,410,55.3z"/>
	</g>
	<g>
		<path class="st2" d="M153.9,57c-6.6,1.8-13.3,2.1-20.1,0.7c0.2,1.2,0.8,1.5,1.7,1.7c1.6,0.4,3.2,0.8,4.9,1.1
			c7.5,1.4,15,1.9,22.3-0.8c8.2-3,11.7-11.2,7.8-18.8c-2.7-5.3-7.1-8.6-13-9.6c-1.5-0.2-1.8-0.6-1.5-2.1c0.5-2.4,1-4.9,1-7.4
			c0.2-6.6-2.8-11.8-8.2-15.3c-5.2-3.3-10.5-2.1-15.5,0.8c-6.6,3.9-10.9,9.7-13.9,16.7c-11.7,27.5,7.6,55.3,33,55.8
			c6,0.1,11.8-0.7,16.9-4.4c-0.7-0.8-1.5-0.4-2.2-0.4c-3.3,0-6.5,0-9.8,0c-22.6-0.6-39.4-23.3-32.8-44.7c2-6.5,5.6-12.1,11.6-15.8
			c2.8-1.7,5.8-1.9,8.6,0c2.7,1.8,3.9,4.5,3.8,7.8c-0.2,3.4-0.9,6.7-2.2,9.9c-0.6,1.6-1.4,3.2-1.1,5c5.8-1.7,11.1-0.9,16,2.3
			c5.1,3.2,5.6,8.6,1.2,12.8C160.1,54.8,157.1,56.1,153.9,57z"/>
		<path class="st2" d="M182.3,22.5c-1.5-1.1-3.1-1.9-4.8-2.6c-1.5-0.6-3.8,0.2-4.5-1.3c-0.7-1.5,0.3-3.4,0.4-5.1
			c0.3-4.8-0.3-9.3-4.9-11.9c-4.7-2.6-9.4-2-13.8,0.9c-0.8,0.5-1.7,1.2-2.1,2.3c1.5,0.2,2.7-0.4,3.9-0.7c5.8-1.4,8.7,0.6,9.6,6.4
			c0.6,4,0.1,7.8-1.5,11.6c-0.7,1.7-0.2,2.2,1.6,2.2c3.6,0,7.1,0.4,10.3,2.4c4.5,2.8,5.5,8.1,2.3,12.3c-0.9,1.3-1.9,2.5-2.9,3.7
			c3.9-0.3,6.3-2.6,8.4-5.3C188.3,32.1,187.5,26.5,182.3,22.5z"/>
		<path class="st2" d="M199.2,28.7c-0.1-1.9-1.4-3.2-3.2-3.2c-0.8,0-1.8,0-2.7,0.1c-0.8,0.1-2.1,0.9-2.1,1.8c0.2,9,0,18.1,0,27.1
			c0,5.3,0.2,5.4,5.5,5.2c2-0.1,2.8-0.8,2.7-2.9C199.2,47.5,199.6,38.1,199.2,28.7z"/>
		<path class="st2" d="M195.2,11.8c-3.4,0.1-4.6,1.3-4.6,4.8c0,3.4,1.3,4.6,4.8,4.5c3.4,0,4.6-1.3,4.6-4.8
			C200,12.9,198.7,11.7,195.2,11.8z"/>
		<path class="st2" d="M225.4,26.1c-1.3-2.1-4.9-1.2-6.4,0c-0.4,0.3-4.6,3.8-4.1,4.2c-0.9-0.6-0.3-1.4-0.5-2.2
			c-0.1-0.8,0.2-1.7-0.9-2c-0.4-0.5-0.9-0.5-1.4-0.4c-1,0-2.1,0.1-3.1,0.1c-0.6,0.1-1.2,0.2-1.4,0.9c0,9.4-0.1,18.7-0.1,28.1
			c0,5.2,0.2,5.3,5.5,5c1.9-0.1,2.6-0.9,2.6-2.8c-0.1-5.6-0.1-11.2,0-16.8c0-3.6,4-7.3,7.1-6.7c3.1,0.6,3.1,0.6,3.2-2.7
			c0-0.3,0-0.7,0-1C225.9,28.5,226.1,27.3,225.4,26.1z"/>
		<path class="st2" d="M257.2,30.8c0-0.5,0-1,0-1.5c0-2.4,0-4.8,0-7.1c0-0.5,0-1,0-1.5c0-1.9,0-3.8,0-5.7c0-4-0.3-4.3-4.4-4.2
			c-0.6,0-1.2,0-1.8,0.1c-1.3,0.2-2,0.9-1.9,2.3c0.1,2.5,0.1,5,0.1,7.5c0,0.5,0,1,0,1.5c0,2.2,0,4.4,0,6.8c-1.7-1-2.9-2.4-4.8-3.2
			c-6-2.5-12.3,2.2-14.4,7.7c-2.4,6.4-2.3,13.4,0.2,19.7c2.9,7.7,11.2,9.6,17.5,4.4c0.8-0.7,1.6-1.4,2.7-2.4c0,0.9,0.1,1.4,0,1.9
			c-0.3,2.2,0.9,2.8,2.8,2.7c0.6,0,1.2,0,1.8,0c1.6,0,2.3-0.7,2.3-2.4C257.2,48.5,257.3,39.6,257.2,30.8z M249.6,29.2
			c0,0,0.1,0.1,0.1,0.1c0,0-0.1,0-0.1,0.1C249.6,29.3,249.6,29.3,249.6,29.2z M245.8,51.6c-3.1,2.2-6.5,1.6-7.9-1.9
			c-1.9-4.7-2-9.6,0.2-14.3c1.5-3.1,4.8-3.7,7.6-1.7c3.2,2.3,3.9,5.4,3.2,9C249.8,46.2,249,49.3,245.8,51.6z"/>
	</g>
</g>
</svg>
