<?xml version="1.0" encoding="utf-8"?>
<!-- Generator: Adobe Illustrator 25.4.1, SVG Export Plug-In . SVG Version: 6.00 Build 0)  -->
<svg version="1.1" xmlns="http://www.w3.org/2000/svg" xmlns:xlink="http://www.w3.org/1999/xlink" x="0px" y="0px"
	 viewBox="0 0 76.8 80" style="enable-background:new 0 0 76.8 80;" xml:space="preserve">
<style type="text/css">
	.st0{fill:#F7CD00;}
	.st1{fill:#7E22B5;}
	.st2{fill:#E0A800;}
	.st3{fill:#00DD99;}
	.st4{fill:#FF0293;}
	.st5{fill:#2389FC;}
</style>
<g id="Layer_2">
</g>
<g id="Layer_1">
	<path id="Fill-1" class="st0" d="M24.7,50.8c1.8-2.1,3.8-4,5.4-6.3c3.2-4.5,2.3-7.3-2.9-9.3c-1.6-0.6-3.7-1-5.3-0.6
		c-7.4,2-14.7,4.4-22,6.6c3.6-0.4,7.1-1.4,10.7-1.8c4.3-0.4,8.9-1.1,13.1-0.3c4.4,0.8,5.2,4.4,2.5,8.1c-0.7,1-1.5,2-2.2,3
		C22.6,52.5,22.7,52.7,24.7,50.8L24.7,50.8z"/>
	<path id="Path" class="st1" d="M42.2,60.1c0.1,0,0.2,0,0.3,0c0.1-0.6,0.2-1.3,0.2-1.9c0.8-8,6.3-10.8,13.5-6.8
		c2.3,1.3,4.3,3,6.6,4.2c2.4,1.3,4.9,2.1,7.4,3.2c-7.1-4.3-7.1-4.3-13.4-11.4c-0.7-0.8-1.4-1.6-2.2-2.2c-3.1-2.4-6.8-3.2-10.3-1.5
		c-3.4,1.6-3,5.2-2.7,8.3C41.8,54.8,42,57.4,42.2,60.1L42.2,60.1z"/>
	<path id="Path_1_" class="st2" d="M3.5,36.6c8.8-1.6,17.7-3.2,26.5-4.9c3.4-0.7,4.1-2.5,2.2-5.4c-2.4-3.6-4.8-7.2-7.4-10.6
		c-3.6-4.5-7.9-7.9-13.8-8.8c1.5,1.1,3.1,1.8,4.6,2.8c5,3.6,7.6,8.5,7,14.8c-0.6,5.4-5,6.9-9.2,8.5c-3.3,1.3-6.7,2.2-10,3.2
		C2.1,36.6,2.3,36.8,3.5,36.6L3.5,36.6z"/>
	<path id="Path_2_" class="st3" d="M24.4,57.3c1-1.2,1.8-2.6,3-3.6c2.6-2.2,4-1.8,4.9,1.6c0.8,3.2,1.3,6.4,2.2,9.5
		c1.7,5.8,4.7,10.8,9.4,15.2c-1.3-4.8-3.1-9.1-3.6-13.6c-0.7-5.7-0.1-11.5-0.6-17.2c-0.1-1.6-1.5-3.8-2.8-4.4
		c-1.4-0.6-4.1-0.1-5.2,1c-3.2,3.2-5.9,6.8-8.7,10.3C19.2,62.7,20.1,61.9,24.4,57.3L24.4,57.3z"/>
	<path id="Path_3_" class="st4" d="M12.8,0c8.6,3.1,13.7,9.5,17.1,17.7c0.8,1.9,1.8,3.8,2.6,5.7c1.8,4.3,5.2,5.9,9.6,6
		c9.1,0.1,13-3.8,13.6-13.8c-5.8,7.1-9.3,8.3-16.1,3.9c-3.7-2.4-6.8-6-9.4-9.6C25.8,3.8,20.2,0.5,12.8,0L12.8,0z"/>
	<path id="Path_4_" class="st5" d="M67.3,47.2c0.1-0.2,0.2-0.3,0.3-0.5c-2.8-1.4-5.6-2.9-8.5-4.3c-3.7-1.9-4.1-5.1-0.8-7.7
		c1.9-1.5,4.1-2.8,6.2-4.1c7.2-4.5,10.2-11.6,12.3-20.5c-1.1,1.4-1.5,1.9-1.8,2.4c-3.8,7.3-9.5,11.9-17.6,13.8
		c-2.7,0.6-5.2,2.3-7.8,3.7c-2.7,1.4-4.3,4-3.4,6.8c0.6,1.9,2.7,3.8,4.6,4.6C56.2,43.7,61.8,45.3,67.3,47.2L67.3,47.2z"/>
</g>
</svg>
