<?xml version="1.0" encoding="utf-8"?>
<!-- Generator: Adobe Illustrator 25.4.1, SVG Export Plug-In . SVG Version: 6.00 Build 0)  -->
<svg version="1.1" xmlns="http://www.w3.org/2000/svg" xmlns:xlink="http://www.w3.org/1999/xlink" x="0px" y="0px"
	 viewBox="0 0 180.8 80" style="enable-background:new 0 0 180.8 80;" xml:space="preserve">
<style type="text/css">
	.st0{fill:#E0A800;}
	.st1{fill:#0B3E36;}
	.st2{fill:#F7CD00;}
	.st3{fill:#7E22B5;}
	.st4{fill:#00DD99;}
	.st5{fill:#FF0293;}
	.st6{fill:#2389FC;}
</style>
<g id="Layer_2">
</g>
<g id="Layer_1">
	<g id="layer1" transform="translate(-42.78601,-163.61523)">
		<g id="g2623" transform="translate(-447.97502,-393.03025)">
			<path id="INTERCONTINENTAL" class="st0" d="M573.4,617.2h1v4.4h-1V617.2z M580.7,621.6c-0.3-0.5-0.6-1-0.9-1.5
				c-0.3-0.5-0.7-0.9-1-1.4v2.9h-1v-4.4h0.8c0.1,0.1,0.3,0.3,0.5,0.5c0.2,0.2,0.3,0.4,0.5,0.6c0.2,0.2,0.3,0.5,0.5,0.7
				c0.2,0.2,0.3,0.5,0.5,0.7v-2.6h1v4.4H580.7z M588.1,617.2v0.8h-1.3v3.5h-1V618h-1.3v-0.8H588.1z M591.1,621.6v-4.4h2.9v0.8h-2
				v0.9h1.7v0.8h-1.7v1.1h2.1v0.8L591.1,621.6L591.1,621.6z M598.6,617.1c0.7,0,1.2,0.1,1.5,0.3c0.3,0.2,0.5,0.6,0.5,1.1
				c0,0.3-0.1,0.6-0.2,0.7c-0.1,0.2-0.3,0.3-0.6,0.5c0.1,0.1,0.2,0.2,0.3,0.4c0.1,0.1,0.2,0.3,0.3,0.4c0.1,0.2,0.2,0.3,0.3,0.5
				c0.1,0.2,0.2,0.3,0.2,0.5h-1.1c-0.1-0.1-0.2-0.3-0.2-0.4c-0.1-0.1-0.2-0.3-0.3-0.4c-0.1-0.1-0.2-0.3-0.3-0.4
				c-0.1-0.1-0.2-0.2-0.3-0.3h-0.5v1.6h-1v-4.3c0.2,0,0.4-0.1,0.7-0.1C598.2,617.2,598.4,617.1,598.6,617.1L598.6,617.1z M598.6,618
				c-0.1,0-0.1,0-0.2,0c-0.1,0-0.1,0-0.2,0v1.2h0.3c0.4,0,0.6,0,0.8-0.1c0.2-0.1,0.2-0.2,0.2-0.5c0-0.2-0.1-0.4-0.2-0.5
				C599.2,618,598.9,618,598.6,618L598.6,618z M605.7,621.6c-0.7,0-1.2-0.2-1.6-0.6c-0.4-0.4-0.6-1-0.6-1.7c0-0.4,0.1-0.7,0.2-1
				c0.1-0.3,0.3-0.5,0.5-0.7c0.2-0.2,0.4-0.3,0.7-0.4c0.3-0.1,0.6-0.2,0.9-0.2c0.2,0,0.4,0,0.5,0c0.2,0,0.3,0.1,0.4,0.1
				c0.1,0,0.2,0.1,0.3,0.1c0.1,0,0.1,0.1,0.2,0.1l-0.3,0.8c-0.1-0.1-0.3-0.1-0.5-0.2c-0.2-0.1-0.4-0.1-0.6-0.1c-0.2,0-0.3,0-0.4,0.1
				c-0.1,0-0.3,0.1-0.4,0.2c-0.1,0.1-0.2,0.3-0.3,0.4c-0.1,0.2-0.1,0.4-0.1,0.6c0,0.2,0,0.4,0.1,0.6c0,0.2,0.1,0.3,0.2,0.5
				c0.1,0.1,0.2,0.2,0.4,0.3c0.2,0.1,0.4,0.1,0.6,0.1c0.1,0,0.3,0,0.4,0c0.1,0,0.2,0,0.3-0.1c0.1,0,0.2,0,0.2-0.1
				c0.1,0,0.1-0.1,0.2-0.1l0.3,0.8c-0.1,0.1-0.3,0.2-0.6,0.2C606.3,621.6,606,621.6,605.7,621.6L605.7,621.6z M614.2,619.4
				c0,0.4-0.1,0.7-0.2,1c-0.1,0.3-0.3,0.5-0.5,0.7c-0.2,0.2-0.4,0.3-0.7,0.4c-0.3,0.1-0.6,0.1-0.9,0.1c-0.3,0-0.6,0-0.8-0.1
				c-0.3-0.1-0.5-0.2-0.7-0.4c-0.2-0.2-0.4-0.4-0.5-0.7c-0.1-0.3-0.2-0.6-0.2-1c0-0.4,0.1-0.7,0.2-1c0.1-0.3,0.3-0.5,0.5-0.7
				s0.4-0.3,0.7-0.4c0.3-0.1,0.5-0.1,0.8-0.1c0.3,0,0.6,0,0.8,0.1c0.3,0.1,0.5,0.2,0.7,0.4c0.2,0.2,0.4,0.4,0.5,0.7
				C614.1,618.7,614.2,619,614.2,619.4L614.2,619.4z M610.8,619.4c0,0.2,0,0.4,0.1,0.6c0.1,0.2,0.1,0.3,0.2,0.4
				c0.1,0.1,0.2,0.2,0.4,0.3c0.1,0.1,0.3,0.1,0.5,0.1c0.2,0,0.3,0,0.5-0.1c0.1-0.1,0.3-0.2,0.4-0.3c0.1-0.1,0.2-0.3,0.2-0.4
				c0.1-0.2,0.1-0.4,0.1-0.6c0-0.2,0-0.4-0.1-0.6c-0.1-0.2-0.1-0.3-0.2-0.4c-0.1-0.1-0.2-0.2-0.4-0.3c-0.1-0.1-0.3-0.1-0.5-0.1
				c-0.2,0-0.3,0-0.5,0.1c-0.1,0.1-0.3,0.2-0.4,0.3c-0.1,0.1-0.2,0.3-0.2,0.4C610.9,619,610.8,619.2,610.8,619.4L610.8,619.4z
				 M620.3,621.6c-0.3-0.5-0.6-1-0.9-1.5c-0.3-0.5-0.7-0.9-1-1.4v2.9h-1v-4.4h0.8c0.1,0.1,0.3,0.3,0.5,0.5c0.2,0.2,0.3,0.4,0.5,0.6
				c0.2,0.2,0.3,0.5,0.5,0.7c0.2,0.2,0.3,0.5,0.5,0.7v-2.6h1v4.4H620.3z M627.7,617.2v0.8h-1.3v3.5h-1V618h-1.3v-0.8H627.7z
				 M630.7,617.2h1v4.4h-1V617.2z M638,621.6c-0.3-0.5-0.6-1-0.9-1.5c-0.3-0.5-0.7-0.9-1-1.4v2.9h-1v-4.4h0.8
				c0.1,0.1,0.3,0.3,0.5,0.5c0.2,0.2,0.3,0.4,0.5,0.6c0.2,0.2,0.3,0.5,0.5,0.7c0.2,0.2,0.3,0.5,0.5,0.7v-2.6h1v4.4H638z
				 M642.1,621.6v-4.4h2.9v0.8h-2v0.9h1.7v0.8h-1.7v1.1h2.1v0.8L642.1,621.6L642.1,621.6z M651.2,621.6c-0.3-0.5-0.6-1-0.9-1.5
				c-0.3-0.5-0.7-0.9-1-1.4v2.9h-1v-4.4h0.8c0.1,0.1,0.3,0.3,0.5,0.5c0.2,0.2,0.3,0.4,0.5,0.6c0.2,0.2,0.3,0.5,0.5,0.7
				c0.2,0.2,0.3,0.5,0.5,0.7v-2.6h1v4.4H651.2z M658.7,617.2v0.8h-1.3v3.5h-1V618h-1.3v-0.8H658.7z M664.1,621.6
				c0-0.2-0.1-0.3-0.2-0.5c-0.1-0.2-0.1-0.3-0.2-0.5H662c-0.1,0.2-0.1,0.3-0.2,0.5c-0.1,0.2-0.1,0.3-0.2,0.5h-1
				c0.2-0.5,0.3-0.9,0.5-1.3c0.1-0.4,0.3-0.8,0.4-1.1s0.3-0.7,0.4-1s0.3-0.6,0.4-0.9h0.9c0.1,0.3,0.3,0.6,0.4,0.9
				c0.1,0.3,0.3,0.7,0.4,1c0.1,0.4,0.3,0.7,0.4,1.1c0.1,0.4,0.3,0.8,0.5,1.3H664.1z M662.9,618.2c0,0.1-0.1,0.1-0.1,0.3
				c0,0.1-0.1,0.2-0.1,0.4c-0.1,0.1-0.1,0.3-0.2,0.5c-0.1,0.2-0.1,0.4-0.2,0.5h1.2c-0.1-0.2-0.1-0.4-0.2-0.5
				c-0.1-0.2-0.1-0.3-0.2-0.5c-0.1-0.1-0.1-0.3-0.1-0.4C662.9,618.3,662.9,618.2,662.9,618.2L662.9,618.2z M671,620.7v0.8H668v-4.4
				h1v3.5H671z"/>
			<path id="Ceiba" class="st1" d="M586.1,610.5c-2.5,0-4.7-0.4-6.6-1.1c-2-0.8-3.6-1.9-5-3.3c-1.4-1.5-2.4-3.2-3.1-5.4
				c-0.7-2.1-1.1-4.5-1.1-7.3c0-2.7,0.4-5.2,1.3-7.3c0.8-2.1,2-3.9,3.4-5.4c1.4-1.5,3.1-2.6,5.1-3.3c2-0.8,4-1.1,6.3-1.1
				c1.4,0,2.6,0.1,3.7,0.3c1.1,0.2,2.1,0.4,2.9,0.7c0.8,0.3,1.5,0.5,2,0.8c0.5,0.3,0.9,0.5,1.1,0.6l-1.7,4.9
				c-0.8-0.5-1.8-0.9-3.2-1.3c-1.4-0.4-2.9-0.6-4.6-0.6c-1.4,0-2.7,0.2-4,0.7c-1.2,0.5-2.3,1.2-3.2,2.2c-0.9,1-1.6,2.2-2.1,3.7
				c-0.5,1.5-0.8,3.2-0.8,5.1c0,1.7,0.2,3.3,0.6,4.8c0.4,1.4,1,2.7,1.8,3.8c0.8,1.1,1.9,1.9,3.1,2.5c1.3,0.6,2.8,0.9,4.5,0.9
				c2.1,0,3.8-0.2,5.1-0.6c1.3-0.4,2.3-0.8,3.1-1.2l1.6,4.9c-0.4,0.3-0.9,0.5-1.5,0.8c-0.6,0.3-1.4,0.5-2.3,0.7
				c-0.9,0.2-1.9,0.4-3,0.6C588.6,610.5,587.4,610.5,586.1,610.5L586.1,610.5z M598.8,599.2c0-1.9,0.3-3.5,0.8-4.9
				c0.6-1.4,1.3-2.6,2.2-3.5c0.9-0.9,2-1.6,3.2-2.1c1.2-0.5,2.4-0.7,3.7-0.7c2.9,0,5.2,0.9,6.9,2.7c1.6,1.8,2.5,4.6,2.5,8.2
				c0,0.3,0,0.6,0,0.9c0,0.3,0,0.6-0.1,0.9h-14.1c0.1,1.7,0.7,3,1.8,4c1.1,0.9,2.6,1.4,4.7,1.4c1.2,0,2.3-0.1,3.3-0.3
				c1-0.2,1.8-0.5,2.4-0.7l0.7,4c-0.3,0.1-0.6,0.3-1.1,0.4c-0.5,0.1-1,0.3-1.6,0.4c-0.6,0.1-1.3,0.2-2,0.3c-0.7,0.1-1.4,0.1-2.2,0.1
				c-1.9,0-3.5-0.3-4.9-0.8c-1.4-0.6-2.5-1.3-3.4-2.3c-0.9-1-1.6-2.2-2-3.5C599,602.3,598.8,600.8,598.8,599.2L598.8,599.2z
				 M613.2,597c0-0.7-0.1-1.3-0.3-1.9c-0.2-0.6-0.5-1.1-0.8-1.6c-0.4-0.5-0.8-0.8-1.3-1.1c-0.5-0.3-1.2-0.4-1.9-0.4
				c-0.8,0-1.4,0.1-2,0.4c-0.6,0.3-1.1,0.7-1.5,1.1c-0.4,0.5-0.7,1-0.9,1.6c-0.2,0.6-0.4,1.2-0.5,1.8L613.2,597z M627.9,582.2
				c0,0.9-0.3,1.7-0.9,2.2c-0.6,0.5-1.3,0.8-2.1,0.8c-0.8,0-1.6-0.3-2.2-0.8c-0.6-0.5-0.9-1.3-0.9-2.2c0-1,0.3-1.7,0.9-2.2
				c0.6-0.5,1.3-0.8,2.2-0.8c0.8,0,1.5,0.3,2.1,0.8C627.6,580.5,627.9,581.2,627.9,582.2z M627.4,609.8h-4.9v-21.4h4.9V609.8z
				 M652,599.2c0,1.7-0.3,3.3-0.8,4.6c-0.5,1.4-1.2,2.6-2.2,3.5c-0.9,1-2.1,1.7-3.4,2.2c-1.3,0.5-2.8,0.8-4.5,0.8
				c-1.6,0-3.2-0.1-4.7-0.4c-1.5-0.2-2.7-0.5-3.7-0.8v-30.3l4.9-0.8v11.1c0.6-0.3,1.3-0.6,2.1-0.8c0.8-0.2,1.8-0.4,2.8-0.4
				c1.5,0,2.8,0.3,4,0.8c1.2,0.5,2.2,1.3,3,2.3c0.8,1,1.4,2.2,1.8,3.5C651.8,596,652,597.5,652,599.2L652,599.2z M647,599.1
				c0-2.1-0.4-3.8-1.2-5c-0.8-1.2-2.1-1.8-3.9-1.8c-0.8,0-1.6,0.1-2.3,0.4c-0.7,0.2-1.3,0.5-1.7,0.8v12.3c0.4,0.1,0.8,0.2,1.4,0.2
				c0.6,0.1,1.2,0.1,2,0.1c1.8,0,3.3-0.6,4.3-1.9C646.4,603,647,601.3,647,599.1z M663.3,587.9c1.6,0,3,0.2,4.1,0.6
				c1.1,0.4,2,1,2.7,1.7c0.7,0.7,1.1,1.6,1.4,2.7c0.3,1,0.4,2.2,0.4,3.5v13c-0.8,0.2-1.9,0.4-3.5,0.6c-1.5,0.2-3.3,0.3-5.2,0.3
				c-1.3,0-2.5-0.1-3.5-0.4c-1.1-0.2-2-0.6-2.7-1.2s-1.3-1.3-1.8-2.1c-0.4-0.9-0.6-1.9-0.6-3.2c0-1.2,0.2-2.3,0.7-3.1
				c0.5-0.8,1.1-1.5,1.9-2.1c0.8-0.5,1.8-0.9,2.8-1.1c1.1-0.2,2.2-0.3,3.4-0.3c0.5,0,1.1,0,1.7,0.1c0.6,0.1,1.2,0.2,1.9,0.3v-0.8
				c0-0.6-0.1-1.1-0.2-1.6c-0.1-0.5-0.4-1-0.7-1.4c-0.3-0.4-0.8-0.7-1.3-0.9c-0.6-0.2-1.3-0.3-2.1-0.3c-1.1,0-2.2,0.1-3.1,0.2
				c-1,0.2-1.7,0.4-2.3,0.6l-0.6-4c0.6-0.2,1.5-0.4,2.7-0.7C660.7,588,662,587.9,663.3,587.9L663.3,587.9z M663.7,606.4
				c1.5,0,2.7-0.1,3.5-0.2v-5.5c-0.3-0.1-0.7-0.2-1.2-0.2c-0.5-0.1-1.1-0.1-1.7-0.1c-0.5,0-1.1,0-1.7,0.1c-0.6,0.1-1.1,0.2-1.5,0.5
				s-0.8,0.5-1.1,0.9c-0.3,0.4-0.4,0.9-0.4,1.5c0,1.2,0.4,2,1.1,2.4C661.5,606.1,662.5,606.3,663.7,606.4L663.7,606.4z"/>
			<path id="Fill-1" class="st2" d="M515.5,607.4c1.8-2.1,3.8-4,5.4-6.3c3.2-4.5,2.3-7.3-2.9-9.3c-1.6-0.6-3.7-1-5.3-0.6
				c-7.4,2-14.7,4.4-22,6.6c3.6-0.4,7.1-1.4,10.7-1.8c4.3-0.4,8.9-1.1,13.1-0.3c4.4,0.8,5.2,4.4,2.5,8.1c-0.7,1-1.5,2-2.2,3
				C513.3,609.1,513.5,609.4,515.5,607.4L515.5,607.4z"/>
			<path id="Path" class="st3" d="M533,616.8c0.1,0,0.2,0,0.3,0c0.1-0.6,0.2-1.3,0.2-1.9c0.8-8,6.3-10.8,13.5-6.8
				c2.3,1.3,4.3,3,6.6,4.2c2.4,1.3,4.9,2.1,7.4,3.2c-7.1-4.3-7.1-4.3-13.4-11.4c-0.7-0.8-1.4-1.6-2.2-2.2c-3.1-2.4-6.8-3.2-10.3-1.5
				c-3.4,1.6-3,5.2-2.7,8.3C532.5,611.4,532.7,614.1,533,616.8L533,616.8z"/>
			<path id="Path_1_" class="st0" d="M494.2,593.3c8.8-1.6,17.7-3.2,26.5-4.9c3.4-0.7,4.1-2.5,2.2-5.4c-2.4-3.6-4.8-7.2-7.4-10.6
				c-3.6-4.5-7.9-7.9-13.8-8.8c1.5,1.1,3.1,1.8,4.6,2.8c5,3.6,7.6,8.5,7,14.8c-0.6,5.4-5,6.9-9.2,8.5c-3.3,1.3-6.7,2.2-10,3.2
				C492.8,593.3,493.1,593.4,494.2,593.3L494.2,593.3z"/>
			<path id="Path_2_" class="st4" d="M515.1,613.9c1-1.2,1.8-2.6,3-3.6c2.6-2.2,4-1.8,4.9,1.6c0.8,3.2,1.3,6.4,2.2,9.5
				c1.7,5.8,4.7,10.8,9.4,15.2c-1.3-4.8-3.1-9.1-3.6-13.6c-0.7-5.7-0.1-11.5-0.6-17.2c-0.1-1.6-1.5-3.8-2.8-4.4
				c-1.4-0.6-4.1-0.1-5.2,1c-3.2,3.2-5.9,6.8-8.7,10.3C510,619.4,510.8,618.5,515.1,613.9L515.1,613.9z"/>
			<path id="Path_3_" class="st5" d="M503.6,556.6c8.6,3.1,13.7,9.5,17.1,17.7c0.8,1.9,1.8,3.8,2.6,5.7c1.8,4.3,5.2,5.9,9.6,6
				c9.1,0.1,13-3.8,13.6-13.8c-5.8,7.1-9.3,8.3-16.1,3.9c-3.7-2.4-6.8-6-9.4-9.6C516.6,560.4,511,557.1,503.6,556.6L503.6,556.6z"/>
			<path id="Path_4_" class="st6" d="M558,603.8c0.1-0.2,0.2-0.3,0.3-0.5c-2.8-1.4-5.6-2.9-8.5-4.3c-3.7-1.9-4.1-5.1-0.8-7.7
				c1.9-1.5,4.1-2.8,6.2-4.1c7.2-4.5,10.2-11.6,12.3-20.5c-1.1,1.4-1.5,1.9-1.8,2.4c-3.8,7.3-9.5,11.9-17.6,13.8
				c-2.7,0.6-5.2,2.3-7.8,3.7c-2.7,1.4-4.3,4-3.4,6.8c0.6,1.9,2.7,3.8,4.6,4.6C546.9,600.3,552.5,602,558,603.8L558,603.8z"/>
		</g>
	</g>
</g>
</svg>
