<?xml version="1.0" encoding="utf-8"?>
<!-- Generator: Adobe Illustrator 25.4.1, SVG Export Plug-In . SVG Version: 6.00 Build 0)  -->
<svg version="1.1" id="Layer_1" xmlns="http://www.w3.org/2000/svg" xmlns:xlink="http://www.w3.org/1999/xlink" x="0px" y="0px"
	 viewBox="0 0 83.5 80" style="enable-background:new 0 0 83.5 80;" xml:space="preserve">
<style type="text/css">
	.st0{fill:#0C0C11;}
	.st1{fill-rule:evenodd;clip-rule:evenodd;fill:#63236E;}
	.st2{fill-rule:evenodd;clip-rule:evenodd;fill:#D98108;}
</style>
<path class="st0" d="M84.9-885.5c-0.7-0.1-1.8,0-2.5,0c0.5-0.4,1.2-0.7,1.6-0.5c0.1,0,0.1,0,0.2,0.1
	C84.4-885.8,84.7-885.6,84.9-885.5z"/>
<g>
	<path class="st1" d="M43.7,10.4c-4.2,3.2-0.3,8.7,3.8,8.3c2.8-0.1,5-2.4,5-5.2C52,3.2,41.7,0,33.5,0C12.5,0,0,15.6,0,30.5
		c0.4,13.6,11.7,24.3,25.3,24.1c4.2,0.1,8.4-1.1,12-3.4v-1.9c-4.4,2.4-6.9,3.4-12,2.8c-13.3-1.6-18-16-14.9-28.2S20,2.8,33.5,1.8
		C40,1.3,51,4.9,43.7,10.4"/>
	<path class="st2" d="M83.4,49.8c-0.7-2.3-3.2-6.1-8.1-6.7c-3.2-0.4-6,0.1-7.8,0.6c-10.2-23.4-35-23.1-42.1-14.3
		c0,0-0.3,0.5-0.3,0.5c-1.5,2.4-0.7,5.6,1.7,7c2.3,1.4,5.3,0.7,6.8-1.5c0.7-1,1-2.2,0.9-3.5c-0.2-6.6,14.5-8.2,22.3,6.8
		c1.3,2.5,2.3,5.2,3.1,8c-1.5,0.7-3,1.5-4.4,2.1c-8.9,4.3-19.9,10.4-21.2,19.6l-0.1,2.3C34.8,77,42.1,80,47.8,80
		c15.9,0,26.4-13.4,20.5-33.9l-0.1-0.3c3.2-0.8,5.7-0.6,6.4,0c0.7,0.6,1.5,1.7,0.6,4.8c-0.9,3.1,2.2,5,4.7,4.2
		C82.5,54,84.1,52.1,83.4,49.8z M49.6,77.3L49.6,77.3c-4.2-0.1-7.6-3.6-7.5-7.9c0-0.2,0-0.4,0-0.5c0-8.6,7.4-14.9,14.6-18.4l3.9-1.7
		C63.6,62.4,60.6,77.3,49.6,77.3z"/>
</g>
</svg>
