<?xml version="1.0" encoding="utf-8"?>
<!-- Generator: Adobe Illustrator 25.4.1, SVG Export Plug-In . SVG Version: 6.00 Build 0)  -->
<svg version="1.1" xmlns="http://www.w3.org/2000/svg" xmlns:xlink="http://www.w3.org/1999/xlink" x="0px" y="0px"
	 viewBox="0 0 96.2 80" style="enable-background:new 0 0 96.2 80;" xml:space="preserve">
<style type="text/css">
	.st0{fill:url(#SVGID_1_);}
	.st1{clip-path:url(#SVGID_00000033341304882398377710000009373756189598392193_);fill:#1E7492;}
	.st2{clip-path:url(#SVGID_00000033341304882398377710000009373756189598392193_);fill:#9CBDC6;}
	.st3{clip-path:url(#SVGID_00000033341304882398377710000009373756189598392193_);fill:#8AB0BA;}
	.st4{clip-path:url(#SVGID_00000033341304882398377710000009373756189598392193_);fill:#14617A;}
	.st5{clip-path:url(#SVGID_00000033341304882398377710000009373756189598392193_);fill:#0C4D63;}
	.st6{clip-path:url(#SVGID_00000033341304882398377710000009373756189598392193_);fill:#2A5965;}
	.st7{clip-path:url(#SVGID_00000033341304882398377710000009373756189598392193_);fill:#12424F;}
	.st8{clip-path:url(#SVGID_00000033341304882398377710000009373756189598392193_);fill:#011E33;}
	.st9{clip-path:url(#SVGID_00000033341304882398377710000009373756189598392193_);fill:#5B7C86;}
	.st10{clip-path:url(#SVGID_00000033341304882398377710000009373756189598392193_);fill:#3E6A76;}
	.st11{clip-path:url(#SVGID_00000033341304882398377710000009373756189598392193_);fill:#346C7D;}
	.st12{clip-path:url(#SVGID_00000033341304882398377710000009373756189598392193_);fill:#125166;}
	.st13{clip-path:url(#SVGID_00000033341304882398377710000009373756189598392193_);fill:#6592A0;}
	.st14{clip-path:url(#SVGID_00000033341304882398377710000009373756189598392193_);fill:#1E596E;}
	.st15{clip-path:url(#SVGID_00000033341304882398377710000009373756189598392193_);fill:#347F97;}
	.st16{clip-path:url(#SVGID_00000033341304882398377710000009373756189598392193_);fill:#296375;}
	.st17{clip-path:url(#SVGID_00000033341304882398377710000009373756189598392193_);fill:#033D52;}
	.st18{clip-path:url(#SVGID_00000033341304882398377710000009373756189598392193_);fill:#001B26;}
	.st19{clip-path:url(#SVGID_00000033341304882398377710000009373756189598392193_);fill:#043545;}
	.st20{clip-path:url(#SVGID_00000033341304882398377710000009373756189598392193_);fill:#00131B;}
	.st21{clip-path:url(#SVGID_00000033341304882398377710000009373756189598392193_);fill:#01232F;}
	.st22{clip-path:url(#SVGID_00000033341304882398377710000009373756189598392193_);fill:#000D14;}
	.st23{clip-path:url(#SVGID_00000033341304882398377710000009373756189598392193_);fill:#011F2B;}
	.st24{clip-path:url(#SVGID_00000033341304882398377710000009373756189598392193_);fill:#013043;}
	.st25{clip-path:url(#SVGID_00000033341304882398377710000009373756189598392193_);fill:#02394C;}
	.st26{fill:#EC851F;}
</style>
<g id="Layer_1">
</g>
<g id="Layer_2">
</g>
<g id="Layer_3">
	<g>
		<linearGradient id="SVGID_1_" gradientUnits="userSpaceOnUse" x1="47.1431" y1="-7.2799" x2="47.1431" y2="82.895">
			<stop  offset="5.491391e-04" style="stop-color:#D9E9EC"/>
			<stop  offset="0.2914" style="stop-color:#A5C4CC"/>
			<stop  offset="0.6399" style="stop-color:#043545"/>
			<stop  offset="1" style="stop-color:#000D14"/>
		</linearGradient>
		<circle class="st0" cx="47.1" cy="40" r="40"/>
		<g>
			<defs>
				<circle id="SVGID_00000129200403575907365730000011686951624782405770_" cx="47.1" cy="40" r="40"/>
			</defs>
			<clipPath id="SVGID_00000016779165846895360340000011994176689020411067_">
				<use xlink:href="#SVGID_00000129200403575907365730000011686951624782405770_"  style="overflow:visible;"/>
			</clipPath>
			
				<rect x="56.3" y="2.2" style="clip-path:url(#SVGID_00000016779165846895360340000011994176689020411067_);fill:#1E7492;" width="3.3" height="0.6"/>
			
				<rect x="57.3" y="3" style="clip-path:url(#SVGID_00000016779165846895360340000011994176689020411067_);fill:#9CBDC6;" width="4" height="0.5"/>
			
				<rect x="60" y="4.6" style="clip-path:url(#SVGID_00000016779165846895360340000011994176689020411067_);fill:#8AB0BA;" width="4.8" height="0.5"/>
			
				<rect x="60.8" y="5.1" style="clip-path:url(#SVGID_00000016779165846895360340000011994176689020411067_);fill:#1E7492;" width="6.3" height="0.9"/>
			
				<rect x="61.9" y="6" style="clip-path:url(#SVGID_00000016779165846895360340000011994176689020411067_);fill:#14617A;" width="6.4" height="0.9"/>
			
				<rect x="63" y="7.6" style="clip-path:url(#SVGID_00000016779165846895360340000011994176689020411067_);fill:#0C4D63;" width="7.1" height="0.7"/>
			
				<rect x="65.1" y="9.6" style="clip-path:url(#SVGID_00000016779165846895360340000011994176689020411067_);fill:#2A5965;" width="7.4" height="0.6"/>
			
				<rect x="66.3" y="12" style="clip-path:url(#SVGID_00000016779165846895360340000011994176689020411067_);fill:#12424F;" width="9" height="0.7"/>
			
				<rect x="67.5" y="12.7" style="clip-path:url(#SVGID_00000016779165846895360340000011994176689020411067_);fill:#011E33;" width="8.2" height="0.6"/>
			
				<rect x="67.7" y="13.5" style="clip-path:url(#SVGID_00000016779165846895360340000011994176689020411067_);fill:#5B7C86;" width="9.1" height="0.5"/>
			
				<rect x="68.4" y="14.9" style="clip-path:url(#SVGID_00000016779165846895360340000011994176689020411067_);fill:#3E6A76;" width="9.2" height="0.7"/>
			
				<rect x="69.7" y="17.9" style="clip-path:url(#SVGID_00000016779165846895360340000011994176689020411067_);fill:#346C7D;" width="11.1" height="1"/>
			
				<rect x="75.9" y="18.9" style="clip-path:url(#SVGID_00000016779165846895360340000011994176689020411067_);fill:#125166;" width="5.2" height="0.6"/>
			
				<rect x="70.2" y="20.8" style="clip-path:url(#SVGID_00000016779165846895360340000011994176689020411067_);fill:#6592A0;" width="12" height="0.7"/>
			
				<rect x="71.6" y="21.8" style="clip-path:url(#SVGID_00000016779165846895360340000011994176689020411067_);fill:#0C4D63;" width="11.2" height="0.8"/>
			
				<rect x="71.6" y="23.1" style="clip-path:url(#SVGID_00000016779165846895360340000011994176689020411067_);fill:#1E596E;" width="12.1" height="0.7"/>
			
				<rect x="72.6" y="23.8" style="clip-path:url(#SVGID_00000016779165846895360340000011994176689020411067_);fill:#1E596E;" width="11.6" height="1.2"/>
			
				<rect x="73" y="25" style="clip-path:url(#SVGID_00000016779165846895360340000011994176689020411067_);fill:#1E7492;" width="11.6" height="1.2"/>
			
				<rect x="72.2" y="26.2" style="clip-path:url(#SVGID_00000016779165846895360340000011994176689020411067_);fill:#14617A;" width="12.8" height="0.9"/>
			
				<rect x="73" y="27.9" style="clip-path:url(#SVGID_00000016779165846895360340000011994176689020411067_);fill:#14617A;" width="12.3" height="1.5"/>
			
				<rect x="73.7" y="29.4" style="clip-path:url(#SVGID_00000016779165846895360340000011994176689020411067_);fill:#347F97;" width="12" height="0.7"/>
			
				<rect x="74.4" y="30.7" style="clip-path:url(#SVGID_00000016779165846895360340000011994176689020411067_);fill:#0C4D63;" width="11.3" height="0.6"/>
			
				<rect x="73.9" y="31.3" style="clip-path:url(#SVGID_00000016779165846895360340000011994176689020411067_);fill:#347F97;" width="12.3" height="2.2"/>
			
				<rect x="73.7" y="33.5" style="clip-path:url(#SVGID_00000016779165846895360340000011994176689020411067_);fill:#347F97;" width="12.7" height="2.3"/>
			
				<rect x="74.1" y="35.9" style="clip-path:url(#SVGID_00000016779165846895360340000011994176689020411067_);fill:#1E7492;" width="12.7" height="3.2"/>
			
				<rect x="73.7" y="40.2" style="clip-path:url(#SVGID_00000016779165846895360340000011994176689020411067_);fill:#296375;" width="13.5" height="3.3"/>
			
				<rect x="74.4" y="45.1" style="clip-path:url(#SVGID_00000016779165846895360340000011994176689020411067_);fill:#033D52;" width="12.2" height="1.3"/>
			
				<rect x="57.4" y="77" style="clip-path:url(#SVGID_00000016779165846895360340000011994176689020411067_);fill:#001B26;" width="4.8" height="0.5"/>
			
				<rect x="58.7" y="76.3" style="clip-path:url(#SVGID_00000016779165846895360340000011994176689020411067_);fill:#043545;" width="4.7" height="0.6"/>
			
				<rect x="59.3" y="75.5" style="clip-path:url(#SVGID_00000016779165846895360340000011994176689020411067_);fill:#00131B;" width="5" height="0.6"/>
			
				<rect x="61.8" y="73.8" style="clip-path:url(#SVGID_00000016779165846895360340000011994176689020411067_);fill:#001B26;" width="5.7" height="0.6"/>
			
				<rect x="63.6" y="72.1" style="clip-path:url(#SVGID_00000016779165846895360340000011994176689020411067_);fill:#00131B;" width="7.4" height="0.4"/>
			
				<rect x="65.5" y="69.8" style="clip-path:url(#SVGID_00000016779165846895360340000011994176689020411067_);fill:#01232F;" width="8.2" height="0.5"/>
			
				<rect x="68.1" y="64.5" style="clip-path:url(#SVGID_00000016779165846895360340000011994176689020411067_);fill:#01232F;" width="11.1" height="0.6"/>
			
				<rect x="65.2" y="70.7" style="clip-path:url(#SVGID_00000016779165846895360340000011994176689020411067_);fill:#001B26;" width="7.8" height="1"/>
			
				<rect x="66.2" y="68.6" style="clip-path:url(#SVGID_00000016779165846895360340000011994176689020411067_);fill:#01232F;" width="9.1" height="0.8"/>
			
				<rect x="68.1" y="65.8" style="clip-path:url(#SVGID_00000016779165846895360340000011994176689020411067_);fill:#01232F;" width="9.7" height="1.4"/>
			
				<rect x="69.8" y="63.1" style="clip-path:url(#SVGID_00000016779165846895360340000011994176689020411067_);fill:#000D14;" width="9.9" height="0.8"/>
			
				<rect x="70.7" y="60.5" style="clip-path:url(#SVGID_00000016779165846895360340000011994176689020411067_);fill:#011F2B;" width="10.4" height="1.6"/>
			
				<rect x="71.4" y="59.1" style="clip-path:url(#SVGID_00000016779165846895360340000011994176689020411067_);fill:#00131B;" width="10.9" height="0.7"/>
			
				<rect x="73" y="55" style="clip-path:url(#SVGID_00000016779165846895360340000011994176689020411067_);fill:#013043;" width="11.6" height="2.3"/>
			
				<rect x="74.4" y="51.2" style="clip-path:url(#SVGID_00000016779165846895360340000011994176689020411067_);fill:#033D52;" width="12.8" height="2.9"/>
			
				<rect x="74.8" y="47.7" style="clip-path:url(#SVGID_00000016779165846895360340000011994176689020411067_);fill:#02394C;" width="13.3" height="3.1"/>
		</g>
		<polygon class="st26" points="1.7,40 0.9,41.4 7.4,40.7 8,39.8 		"/>
		<path class="st26" d="M0.7,42.6C0.6,42.7,0.3,44,0.3,44l5.8-0.7L6.4,42L0.7,42.6z"/>
		<polygon class="st26" points="0.3,45.1 0,46.4 5.7,45.4 5.7,44.3 		"/>
		<polygon class="st26" points="0,48.5 0,49.7 6.9,48.5 6.1,47.2 		"/>
		<polygon class="st26" points="7.1,50 0.5,50.8 0.9,52.2 7.7,51.4 		"/>
		<polygon class="st26" points="1.3,53.2 2,54.5 9.3,53.5 7.8,52.4 		"/>
		<polygon class="st26" points="2.9,55.7 4.1,56.9 12.8,55.3 10.4,54.5 		"/>
		<polygon class="st26" points="4.9,57.8 6.2,59 18.4,57.1 14.8,56.2 		"/>
		<polygon class="st26" points="7.9,60.4 9.8,61 27.8,58.1 21.8,58 		"/>
		<polygon class="st26" points="11.6,62.3 14.1,63.4 79.1,54.5 81.3,52.7 		"/>
		<path class="st26" d="M17.8,64.6l4.1,0.9l48-5.8c0,0,2.7-1.7,2.5-1.7S17.8,64.6,17.8,64.6z"/>
		<path class="st26" d="M27.8,66.4l34.6-4.3c0,0-5,3.2-16.4,4.3S27.8,66.4,27.8,66.4z"/>
		<path class="st26" d="M51.9,54.8c0.1,0,32.6-3.9,32.6-3.9s2.1-2.1,1.9-2.1c-0.2,0-27.2,3.4-27.2,3.4L51.9,54.8z"/>
		<polygon class="st26" points="65.2,49.8 88,47.7 89.6,45.8 70,47.8 		"/>
		<path class="st26" d="M73,45.8c0,0,18.2-1.9,18.4-2s1.1-1.7,1.1-1.7L75.7,44L73,45.8z"/>
		<path class="st26" d="M78.4,41.9c0.1-0.1,1.8-1.4,1.8-1.4l14.2-1.8l-0.7,1.6L78.4,41.9z"/>
		<polygon class="st26" points="82.2,38.2 84.1,36.8 95.6,35.4 95.2,36.8 		"/>
		<polygon class="st26" points="85,35 86,33.8 96.2,32.5 95.9,34 		"/>
		<polygon class="st26" points="86.6,31.3 86.9,29.8 95.4,28.3 96,30 		"/>
		<polygon class="st26" points="87,28.5 86.8,27.3 94.5,25.6 95.1,26.9 		"/>
		<polygon class="st26" points="86.6,26 86.2,24.8 92.8,23 93.6,24 		"/>
		<polygon class="st26" points="85.4,23.1 84.9,22.4 91,20.8 91.9,21.7 		"/>
		<polygon class="st26" points="83.7,20.4 83.1,19.7 88.1,18.6 89.2,19.3 		"/>
		<polygon class="st26" points="81.8,17.9 81.1,17.2 84.9,16.4 85.8,17.1 		"/>
		<polygon class="st26" points="77.6,15.4 78.7,15.8 82.2,15.4 80.9,14.9 		"/>
	</g>
</g>
</svg>
