<?xml version="1.0" encoding="utf-8"?>
<!-- Generator: Adobe Illustrator 25.4.1, SVG Export Plug-In . SVG Version: 6.00 Build 0)  -->
<svg version="1.1" xmlns="http://www.w3.org/2000/svg" xmlns:xlink="http://www.w3.org/1999/xlink" x="0px" y="0px"
	 viewBox="0 0 167.1 80" style="enable-background:new 0 0 167.1 80;" xml:space="preserve">
<style type="text/css">
	.st0{fill:url(#SVGID_1_);}
	.st1{fill:#2A2B2B;}
	.st2{fill:url(#SVGID_00000158709307856691969700000004410198617617293216_);}
	.st3{fill:#EC851F;}
	.st4{fill:url(#SVGID_00000086665006218548751140000014436013999548496557_);}
	.st5{fill:url(#SVGID_00000049916679961525010740000012318327911030363034_);}
	.st6{fill:url(#SVGID_00000029029613081633197860000010549592650571477890_);}
	.st7{fill:url(#SVGID_00000142176624508204157060000016671645790655961473_);}
	.st8{clip-path:url(#SVGID_00000088095730297022731090000015702267624619609255_);fill:#1E7492;}
	.st9{clip-path:url(#SVGID_00000088095730297022731090000015702267624619609255_);fill:#9CBDC6;}
	.st10{clip-path:url(#SVGID_00000088095730297022731090000015702267624619609255_);fill:#8AB0BA;}
	.st11{clip-path:url(#SVGID_00000088095730297022731090000015702267624619609255_);fill:#14617A;}
	.st12{clip-path:url(#SVGID_00000088095730297022731090000015702267624619609255_);fill:#0C4D63;}
	.st13{clip-path:url(#SVGID_00000088095730297022731090000015702267624619609255_);fill:#2A5965;}
	.st14{clip-path:url(#SVGID_00000088095730297022731090000015702267624619609255_);fill:#12424F;}
	.st15{clip-path:url(#SVGID_00000088095730297022731090000015702267624619609255_);fill:#011E33;}
	.st16{clip-path:url(#SVGID_00000088095730297022731090000015702267624619609255_);fill:#5B7C86;}
	.st17{clip-path:url(#SVGID_00000088095730297022731090000015702267624619609255_);fill:#3E6A76;}
	.st18{clip-path:url(#SVGID_00000088095730297022731090000015702267624619609255_);fill:#346C7D;}
	.st19{clip-path:url(#SVGID_00000088095730297022731090000015702267624619609255_);fill:#125166;}
	.st20{clip-path:url(#SVGID_00000088095730297022731090000015702267624619609255_);fill:#6592A0;}
	.st21{clip-path:url(#SVGID_00000088095730297022731090000015702267624619609255_);fill:#1E596E;}
	.st22{clip-path:url(#SVGID_00000088095730297022731090000015702267624619609255_);fill:#347F97;}
	.st23{clip-path:url(#SVGID_00000088095730297022731090000015702267624619609255_);fill:#296375;}
	.st24{clip-path:url(#SVGID_00000088095730297022731090000015702267624619609255_);fill:#033D52;}
	.st25{clip-path:url(#SVGID_00000088095730297022731090000015702267624619609255_);fill:#001B26;}
	.st26{clip-path:url(#SVGID_00000088095730297022731090000015702267624619609255_);fill:#043545;}
	.st27{clip-path:url(#SVGID_00000088095730297022731090000015702267624619609255_);fill:#00131B;}
	.st28{clip-path:url(#SVGID_00000088095730297022731090000015702267624619609255_);fill:#01232F;}
	.st29{clip-path:url(#SVGID_00000088095730297022731090000015702267624619609255_);fill:#000D14;}
	.st30{clip-path:url(#SVGID_00000088095730297022731090000015702267624619609255_);fill:#011F2B;}
	.st31{clip-path:url(#SVGID_00000088095730297022731090000015702267624619609255_);fill:#013043;}
	.st32{clip-path:url(#SVGID_00000088095730297022731090000015702267624619609255_);fill:#02394C;}
</style>
<g id="Layer_1">
</g>
<g id="Layer_2">
</g>
<g id="Layer_3">
	<g>
		<linearGradient id="SVGID_1_" gradientUnits="userSpaceOnUse" x1="81.4351" y1="-4.6085" x2="81.4351" y2="52.4761">
			<stop  offset="5.491391e-04" style="stop-color:#D9E9EC"/>
			<stop  offset="0.2914" style="stop-color:#A5C4CC"/>
			<stop  offset="0.6399" style="stop-color:#043545"/>
			<stop  offset="1" style="stop-color:#000D14"/>
		</linearGradient>
		<circle class="st0" cx="81.4" cy="25.3" r="25.3"/>
		<path class="st1" d="M26.4,55.9H9.7c0,0-2-0.3-2.6,1.6S4.2,67.9,4.2,67.9S4,69.6,5.3,69.6s14.4,0,14.4,0L19,71.3H2.7
			c0,0-2.5-0.1-1.9-2.4s3.4-13,3.4-13s1.1-2.5,4.5-2.5s19.4,0,19.4,0L26.4,55.9z"/>
		<path class="st1" d="M29.6,55.7h9c0,0,0.6,0.1,0.4,0.7c-0.2,0.6-1.6,5.3-1.6,5.3s-0.1,0.6-0.7,0.6s-9.6,0-9.6,0s-0.4,5.8,2,9.8
			h5.6c0,0-2.9-4.5-3-7.2h7.3c0,0,2.2,0.3,2.6-1.6c0.4-1.9,2.4-9.1,2.4-9.1s0.3-0.9-0.5-0.9s-12.9,0-12.9,0L29.6,55.7z"/>
		<polygon class="st1" points="73.4,71.4 77.5,71.4 82.2,58.2 97.5,71.4 101.3,71.4 106.7,53.7 103.1,53.7 98.5,67 83.6,53.7 
			79.4,53.7 		"/>
		<path class="st1" d="M71.4,53.7c0,0-15.9,0-19.1,0c-3.2,0-5,3.1-5,3.1l-3.5,10.6c-1.3,3.8,2.8,4,2.8,4s13.7,0,18.5,0
			c4.8,0,5.6-2.4,5.6-2.4s3.1-9.4,3.9-12.3C75.4,53.8,71.4,53.7,71.4,53.7z M70.7,58c-0.5,1.9-3,9.8-3,9.8s-0.6,1.8-2.8,1.8
			c-2.2,0-16,0-16,0s-2.1-0.2-1.5-2.1l3.4-9.7c0,0,0.5-1.7,3.1-1.7c2.6,0,15.3,0,15.3,0S71.2,56.1,70.7,58z"/>
		<path class="st1" d="M134.1,53.7c0,0-15.9,0-19.1,0c-3.2,0-5,3.1-5,3.1l-3.5,10.6c-1.3,3.8,2.8,4,2.8,4s13.7,0,18.5,0
			c4.8,0,5.6-2.4,5.6-2.4s3.1-9.4,3.9-12.3C138.2,53.8,134.1,53.7,134.1,53.7z M133.4,58c-0.5,1.9-3,9.8-3,9.8s-0.6,1.8-2.8,1.8
			c-2.2,0-16,0-16,0s-2.1-0.2-1.5-2.1l3.4-9.7c0,0,0.5-1.7,3.1-1.7c2.6,0,15.3,0,15.3,0S133.9,56.1,133.4,58z"/>
		<path class="st1" d="M136.1,71.4l1-3H157c0,0,1.2,0,1.4-1c0.3-1,0.5-2.4,0.5-2.4s0.2-0.9-0.9-0.9s-17.6,0-17.6,0s-2.1-0.1-1.6-2
			s2-7,2-7s0.3-1.4,2.3-1.4c2,0,24,0,24,0l-0.9,2.6H146c0,0-1.3,0-1.6,0.9c-0.3,0.9-0.6,2.8-0.6,2.8s-0.1,1,0.8,1
			c0.9,0,18.2,0,18.2,0s2.2-0.1,1.8,1.6c-0.4,1.7-1.9,7-1.9,7s-0.6,1.9-2.6,1.9C158.1,71.4,136.1,71.4,136.1,71.4"/>
		
			<linearGradient id="SVGID_00000175289876196673994710000018293295821531930772_" gradientUnits="userSpaceOnUse" x1="13.6467" y1="43.9582" x2="13.6467" y2="77.7914">
			<stop  offset="0.2914" style="stop-color:#3B6873"/>
			<stop  offset="0.7721" style="stop-color:#043545"/>
		</linearGradient>
		<path style="fill:url(#SVGID_00000175289876196673994710000018293295821531930772_);" d="M25.8,55.3H9c0,0-2-0.3-2.6,1.6
			c-0.6,1.9-2.9,10.5-2.9,10.5S3.4,69,4.6,69s14.4,0,14.4,0l-0.8,1.7H2c0,0-2.5-0.1-1.9-2.4s3.4-13,3.4-13s1.1-2.5,4.5-2.5
			s19.4,0,19.4,0L25.8,55.3z"/>
		<path class="st3" d="M29,55h9c0,0,0.6,0.1,0.4,0.7c-0.2,0.6-1.6,5.3-1.6,5.3s-0.1,0.6-0.7,0.6s-9.6,0-9.6,0s-0.4,5.8,2,9.8h5.6
			c0,0-2.9-4.5-3-7.2h7.3c0,0,2.2,0.3,2.6-1.6c0.4-1.9,2.4-9.1,2.4-9.1s0.3-0.9-0.5-0.9s-12.9,0-12.9,0L29,55z"/>
		
			<linearGradient id="SVGID_00000140008281684394349520000015122599396876837786_" gradientUnits="userSpaceOnUse" x1="89.4198" y1="43.9582" x2="89.4198" y2="77.7914">
			<stop  offset="0.2914" style="stop-color:#3B6873"/>
			<stop  offset="0.7721" style="stop-color:#043545"/>
		</linearGradient>
		<polygon style="fill:url(#SVGID_00000140008281684394349520000015122599396876837786_);" points="72.8,70.8 76.8,70.8 81.5,57.6 
			96.9,70.8 100.6,70.8 106,53 102.5,53 97.9,66.4 83,53 78.8,53 		"/>
		
			<linearGradient id="SVGID_00000157989875947000295600000013325109755773149085_" gradientUnits="userSpaceOnUse" x1="58.4494" y1="43.9582" x2="58.4494" y2="77.7914">
			<stop  offset="0.2914" style="stop-color:#3B6873"/>
			<stop  offset="0.7721" style="stop-color:#043545"/>
		</linearGradient>
		<path style="fill:url(#SVGID_00000157989875947000295600000013325109755773149085_);" d="M70.8,53c0,0-15.9,0-19.1,0
			c-3.2,0-5,3.1-5,3.1l-3.5,10.6c-1.3,3.8,2.8,4,2.8,4s13.7,0,18.5,0c4.8,0,5.6-2.4,5.6-2.4S73.1,59,74,56.1
			C74.8,53.2,70.8,53,70.8,53z M70.1,57.3c-0.5,1.9-3,9.8-3,9.8S66.5,69,64.3,69c-2.2,0-16,0-16,0s-2.1-0.2-1.5-2.1l3.4-9.7
			c0,0,0.5-1.7,3.1-1.7c2.6,0,15.3,0,15.3,0S70.5,55.5,70.1,57.3z"/>
		
			<linearGradient id="SVGID_00000052102687862316955740000000699345542669259920_" gradientUnits="userSpaceOnUse" x1="121.1961" y1="43.9582" x2="121.1961" y2="77.7914">
			<stop  offset="0.2914" style="stop-color:#3B6873"/>
			<stop  offset="0.7721" style="stop-color:#043545"/>
		</linearGradient>
		<path style="fill:url(#SVGID_00000052102687862316955740000000699345542669259920_);" d="M133.5,53c0,0-15.9,0-19.1,0
			s-5,3.1-5,3.1l-3.5,10.6c-1.3,3.8,2.8,4,2.8,4s13.7,0,18.5,0c4.8,0,5.6-2.4,5.6-2.4s3.1-9.4,3.9-12.3
			C137.5,53.2,133.5,53,133.5,53z M132.8,57.3c-0.5,1.9-3,9.8-3,9.8S129.2,69,127,69c-2.2,0-16,0-16,0s-2.1-0.2-1.5-2.1l3.4-9.7
			c0,0,0.5-1.7,3.1-1.7c2.6,0,15.3,0,15.3,0S133.3,55.5,132.8,57.3z"/>
		
			<linearGradient id="SVGID_00000051346012680867624020000015135182779807671230_" gradientUnits="userSpaceOnUse" x1="150.9997" y1="43.9582" x2="150.9997" y2="77.7914">
			<stop  offset="0.2914" style="stop-color:#3B6873"/>
			<stop  offset="0.7721" style="stop-color:#043545"/>
		</linearGradient>
		<path style="fill:url(#SVGID_00000051346012680867624020000015135182779807671230_);" d="M135.5,70.8l1-3h19.9c0,0,1.2,0,1.4-1
			c0.3-1,0.5-2.4,0.5-2.4s0.2-0.9-0.9-0.9c-1.1,0-17.6,0-17.6,0s-2.1-0.1-1.6-2s2-7,2-7s0.3-1.4,2.3-1.4s24,0,24,0l-0.9,2.6h-20.2
			c0,0-1.3,0-1.6,0.9c-0.3,0.9-0.6,2.8-0.6,2.8s-0.1,1,0.8,1c0.9,0,18.2,0,18.2,0s2.2-0.1,1.8,1.6c-0.4,1.7-1.9,7-1.9,7
			s-0.6,1.9-2.6,1.9C157.5,70.8,135.5,70.8,135.5,70.8"/>
		<g>
			<rect x="7.3" y="74.1" class="st3" width="0.8" height="5.8"/>
			<path class="st3" d="M3.5,74.1H2.8H2.7l-1.5,3.4h0v0l-1,2.4H1l0.8-1.8h3l0.9,1.8h0.8L3.5,74.1L3.5,74.1z M2.1,77.4l1.1-2.6
				l1.3,2.6H2.1z"/>
			<polygon class="st3" points="17.6,74.1 16.8,74.1 16.8,79 16.8,79.8 17.6,79.8 20.9,79.8 20.9,79 17.6,79 			"/>
			<rect x="22.3" y="74.1" class="st3" width="0.8" height="5.8"/>
			<polygon class="st3" points="29.4,78.8 25.6,74.1 24.8,74.1 24.8,79.8 25.6,79.8 25.6,75.1 29.4,79.8 30.2,79.8 30.2,74.1 
				29.4,74.1 			"/>
			<polygon class="st3" points="32.7,77.3 36.4,77.3 36.4,76.5 32.7,76.5 32.7,74.9 36.7,74.9 36.7,74.1 32.7,74.1 31.9,74.1 
				31.9,74.9 31.9,76.5 31.9,77.3 31.9,79 31.9,79.8 32.7,79.8 36.9,79.8 36.9,79 32.7,79 			"/>
			<path class="st3" d="M15.5,75.7c0-1.2-1-1.6-2-1.7v0h-0.1c0,0,0,0,0,0c0,0,0,0,0,0h-2.7v0H9.9v5.8h0.8v-2.7h2l2.3,2.7h0.8
				l-2.3-2.7C13.7,77.2,15.5,76.9,15.5,75.7z M10.7,74.7h2.8c0,0,1,0.1,1,0.8c0,0.8-0.9,1-1.2,1h-2.6V74.7z"/>
			<path class="st3" d="M41.7,76.7c-0.3-0.1-0.6-0.1-0.9-0.2c-1.1-0.2-1.9-0.4-1.9-1c0-0.9,1.7-0.9,1.8-0.9c0.4,0,1.3,0.1,1.6,1.1
				l0.8-0.2c-0.5-1.6-2-1.7-2.4-1.7c-0.9,0-2.6,0.4-2.6,1.7c0,1.2,1.4,1.5,2.6,1.7c0.3,0.1,0.6,0.1,0.8,0.2c0.5,0.1,1,0.4,1,0.8
				c0,0.6-0.7,0.9-1.9,0.9c-1.7,0-2-1.1-2-1.2l-0.4,0.1l-0.4,0.1c0.1,0.6,0.8,1.9,2.8,1.9c2.5,0,2.7-1.3,2.7-1.7
				C43.3,77.9,43.1,77.1,41.7,76.7z"/>
		</g>
		<g>
			<defs>
				<circle id="SVGID_00000124840133852728184930000010609385622476012971_" cx="81.4" cy="25.3" r="25.3"/>
			</defs>
			<clipPath id="SVGID_00000172398572439937887870000014735658393502282906_">
				<use xlink:href="#SVGID_00000124840133852728184930000010609385622476012971_"  style="overflow:visible;"/>
			</clipPath>
			
				<rect x="87.2" y="1.4" style="clip-path:url(#SVGID_00000172398572439937887870000014735658393502282906_);fill:#1E7492;" width="2.1" height="0.4"/>
			
				<rect x="87.9" y="1.9" style="clip-path:url(#SVGID_00000172398572439937887870000014735658393502282906_);fill:#9CBDC6;" width="2.5" height="0.3"/>
			
				<rect x="89.6" y="2.9" style="clip-path:url(#SVGID_00000172398572439937887870000014735658393502282906_);fill:#8AB0BA;" width="3" height="0.3"/>
			
				<rect x="90.1" y="3.2" style="clip-path:url(#SVGID_00000172398572439937887870000014735658393502282906_);fill:#1E7492;" width="4" height="0.6"/>
			
				<rect x="90.8" y="3.8" style="clip-path:url(#SVGID_00000172398572439937887870000014735658393502282906_);fill:#14617A;" width="4.1" height="0.6"/>
			
				<rect x="91.5" y="4.8" style="clip-path:url(#SVGID_00000172398572439937887870000014735658393502282906_);fill:#0C4D63;" width="4.5" height="0.4"/>
			
				<rect x="92.8" y="6.1" style="clip-path:url(#SVGID_00000172398572439937887870000014735658393502282906_);fill:#2A5965;" width="4.7" height="0.4"/>
			
				<rect x="93.5" y="7.6" style="clip-path:url(#SVGID_00000172398572439937887870000014735658393502282906_);fill:#12424F;" width="5.7" height="0.4"/>
			
				<rect x="94.3" y="8.1" style="clip-path:url(#SVGID_00000172398572439937887870000014735658393502282906_);fill:#011E33;" width="5.2" height="0.4"/>
			
				<rect x="94.4" y="8.6" style="clip-path:url(#SVGID_00000172398572439937887870000014735658393502282906_);fill:#5B7C86;" width="5.8" height="0.3"/>
			
				<rect x="94.9" y="9.4" style="clip-path:url(#SVGID_00000172398572439937887870000014735658393502282906_);fill:#3E6A76;" width="5.8" height="0.4"/>
			
				<rect x="95.7" y="11.3" style="clip-path:url(#SVGID_00000172398572439937887870000014735658393502282906_);fill:#346C7D;" width="7" height="0.6"/>
			
				<rect x="99.7" y="12" style="clip-path:url(#SVGID_00000172398572439937887870000014735658393502282906_);fill:#125166;" width="3.3" height="0.4"/>
			
				<rect x="96" y="13.2" style="clip-path:url(#SVGID_00000172398572439937887870000014735658393502282906_);fill:#6592A0;" width="7.6" height="0.4"/>
			
				<rect x="96.9" y="13.8" style="clip-path:url(#SVGID_00000172398572439937887870000014735658393502282906_);fill:#0C4D63;" width="7.1" height="0.5"/>
			
				<rect x="96.9" y="14.6" style="clip-path:url(#SVGID_00000172398572439937887870000014735658393502282906_);fill:#1E596E;" width="7.7" height="0.5"/>
			
				<rect x="97.5" y="15.1" style="clip-path:url(#SVGID_00000172398572439937887870000014735658393502282906_);fill:#1E596E;" width="7.3" height="0.7"/>
			
				<rect x="97.8" y="15.8" style="clip-path:url(#SVGID_00000172398572439937887870000014735658393502282906_);fill:#1E7492;" width="7.3" height="0.8"/>
			
				<rect x="97.3" y="16.6" style="clip-path:url(#SVGID_00000172398572439937887870000014735658393502282906_);fill:#14617A;" width="8.1" height="0.6"/>
			
				<rect x="97.8" y="17.7" style="clip-path:url(#SVGID_00000172398572439937887870000014735658393502282906_);fill:#14617A;" width="7.8" height="1"/>
			
				<rect x="98.2" y="18.6" style="clip-path:url(#SVGID_00000172398572439937887870000014735658393502282906_);fill:#347F97;" width="7.6" height="0.5"/>
			
				<rect x="98.7" y="19.4" style="clip-path:url(#SVGID_00000172398572439937887870000014735658393502282906_);fill:#0C4D63;" width="7.2" height="0.4"/>
			
				<rect x="98.4" y="19.8" style="clip-path:url(#SVGID_00000172398572439937887870000014735658393502282906_);fill:#347F97;" width="7.8" height="1.4"/>
			
				<rect x="98.2" y="21.2" style="clip-path:url(#SVGID_00000172398572439937887870000014735658393502282906_);fill:#347F97;" width="8.1" height="1.4"/>
			
				<rect x="98.5" y="22.7" style="clip-path:url(#SVGID_00000172398572439937887870000014735658393502282906_);fill:#1E7492;" width="8.1" height="2"/>
			
				<rect x="98.2" y="25.5" style="clip-path:url(#SVGID_00000172398572439937887870000014735658393502282906_);fill:#296375;" width="8.5" height="2.1"/>
			
				<rect x="98.7" y="28.5" style="clip-path:url(#SVGID_00000172398572439937887870000014735658393502282906_);fill:#033D52;" width="7.7" height="0.8"/>
			
				<rect x="87.9" y="48.7" style="clip-path:url(#SVGID_00000172398572439937887870000014735658393502282906_);fill:#001B26;" width="3" height="0.3"/>
			
				<rect x="88.7" y="48.3" style="clip-path:url(#SVGID_00000172398572439937887870000014735658393502282906_);fill:#043545;" width="3" height="0.4"/>
			
				<rect x="89.1" y="47.8" style="clip-path:url(#SVGID_00000172398572439937887870000014735658393502282906_);fill:#00131B;" width="3.2" height="0.4"/>
			
				<rect x="90.7" y="46.7" style="clip-path:url(#SVGID_00000172398572439937887870000014735658393502282906_);fill:#001B26;" width="3.6" height="0.4"/>
			
				<rect x="91.8" y="45.7" style="clip-path:url(#SVGID_00000172398572439937887870000014735658393502282906_);fill:#00131B;" width="4.7" height="0.3"/>
			
				<rect x="93" y="44.2" style="clip-path:url(#SVGID_00000172398572439937887870000014735658393502282906_);fill:#01232F;" width="5.2" height="0.3"/>
			
				<rect x="94.7" y="40.8" style="clip-path:url(#SVGID_00000172398572439937887870000014735658393502282906_);fill:#01232F;" width="7" height="0.4"/>
			
				<rect x="92.9" y="44.7" style="clip-path:url(#SVGID_00000172398572439937887870000014735658393502282906_);fill:#001B26;" width="5" height="0.6"/>
			
				<rect x="93.5" y="43.4" style="clip-path:url(#SVGID_00000172398572439937887870000014735658393502282906_);fill:#01232F;" width="5.8" height="0.5"/>
			
				<rect x="94.7" y="41.7" style="clip-path:url(#SVGID_00000172398572439937887870000014735658393502282906_);fill:#01232F;" width="6.1" height="0.9"/>
			
				<rect x="95.8" y="40" style="clip-path:url(#SVGID_00000172398572439937887870000014735658393502282906_);fill:#000D14;" width="6.3" height="0.5"/>
			
				<rect x="96.4" y="38.3" style="clip-path:url(#SVGID_00000172398572439937887870000014735658393502282906_);fill:#011F2B;" width="6.6" height="1"/>
			
				<rect x="96.8" y="37.4" style="clip-path:url(#SVGID_00000172398572439937887870000014735658393502282906_);fill:#00131B;" width="6.9" height="0.5"/>
			
				<rect x="97.8" y="34.8" style="clip-path:url(#SVGID_00000172398572439937887870000014735658393502282906_);fill:#013043;" width="7.3" height="1.5"/>
			
				<rect x="98.7" y="32.4" style="clip-path:url(#SVGID_00000172398572439937887870000014735658393502282906_);fill:#033D52;" width="8.1" height="1.8"/>
			
				<rect x="98.9" y="30.2" style="clip-path:url(#SVGID_00000172398572439937887870000014735658393502282906_);fill:#02394C;" width="8.4" height="1.9"/>
		</g>
		<polygon class="st3" points="52.7,25.3 52.2,26.2 56.3,25.8 56.7,25.2 		"/>
		<path class="st3" d="M52,26.9c-0.1,0.1-0.3,0.9-0.3,0.9l3.7-0.5l0.2-0.8L52,26.9z"/>
		<polygon class="st3" points="51.8,28.5 51.6,29.4 55.2,28.7 55.2,28.1 		"/>
		<polygon class="st3" points="51.6,30.7 51.6,31.5 55.9,30.7 55.5,29.9 		"/>
		<polygon class="st3" points="56.1,31.7 51.9,32.2 52.2,33 56.4,32.6 		"/>
		<polygon class="st3" points="52.4,33.7 52.8,34.5 57.5,33.9 56.6,33.1 		"/>
		<polygon class="st3" points="53.4,35.2 54.2,36 59.7,35 58.2,34.5 		"/>
		<polygon class="st3" points="54.7,36.6 55.5,37.3 63.2,36.2 61,35.6 		"/>
		<polygon class="st3" points="56.6,38.3 57.8,38.6 69.2,36.8 65.4,36.7 		"/>
		<polygon class="st3" points="58.9,39.5 60.5,40.1 101.6,34.5 103.1,33.4 		"/>
		<path class="st3" d="M62.9,40.9l2.6,0.6l30.4-3.7c0,0,1.7-1.1,1.6-1.1C97.4,36.7,62.9,40.9,62.9,40.9z"/>
		<path class="st3" d="M69.2,42l21.9-2.7c0,0-3.2,2-10.4,2.7C73.6,42.7,69.2,42,69.2,42z"/>
		<path class="st3" d="M84.4,34.7c0.1,0,20.6-2.5,20.6-2.5s1.3-1.3,1.2-1.3s-17.2,2.1-17.2,2.1L84.4,34.7z"/>
		<polygon class="st3" points="92.9,31.6 107.3,30.2 108.3,29 95.9,30.3 		"/>
		<path class="st3" d="M97.8,29c0,0,11.6-1.2,11.6-1.2c0.1,0,0.7-1.1,0.7-1.1l-10.6,1.2L97.8,29z"/>
		<path class="st3" d="M101.2,26.5c0.1-0.1,1.2-0.9,1.2-0.9l9-1.1l-0.4,1L101.2,26.5z"/>
		<polygon class="st3" points="103.6,24.2 104.9,23.3 112.1,22.4 111.8,23.3 		"/>
		<polygon class="st3" points="105.4,22.2 106.1,21.4 112.5,20.6 112.3,21.5 		"/>
		<polygon class="st3" points="106.4,19.8 106.6,18.9 112,17.9 112.3,19 		"/>
		<polygon class="st3" points="106.7,18.1 106.6,17.3 111.4,16.2 111.8,17.1 		"/>
		<polygon class="st3" points="106.4,16.4 106.1,15.7 110.4,14.6 110.8,15.2 		"/>
		<polygon class="st3" points="105.7,14.6 105.4,14.2 109.2,13.2 109.8,13.8 		"/>
		<polygon class="st3" points="104.6,12.9 104.2,12.5 107.3,11.8 108.1,12.2 		"/>
		<polygon class="st3" points="103.4,11.3 102.9,10.9 105.4,10.4 105.9,10.8 		"/>
		<polygon class="st3" points="100.7,9.7 101.4,10 103.6,9.7 102.8,9.4 		"/>
	</g>
</g>
</svg>
