<?xml version="1.0" encoding="utf-8"?>
<!-- Generator: Adobe Illustrator 25.4.1, SVG Export Plug-In . SVG Version: 6.00 Build 0)  -->
<svg version="1.1" xmlns="http://www.w3.org/2000/svg" xmlns:xlink="http://www.w3.org/1999/xlink" x="0px" y="0px"
	 viewBox="0 0 256.87 80" style="enable-background:new 0 0 256.87 80;" xml:space="preserve">
<style type="text/css">
	.st0{fill-rule:evenodd;clip-rule:evenodd;}
	.st1{fill-rule:evenodd;clip-rule:evenodd;fill:#ED1C24;}
</style>
<g id="Layer_2">
</g>
<g id="Layer_1">
	<g>
		<path class="st0" d="M100.81,21.6h-4.65c0,0-2.68,0.67-1.75-2.33l0.4-1.83c0.4-2.16,3.71-1.66,3.71-1.66h3.65L100.81,21.6z
			 M95.56,10.31c0,0-5.33,0.33-6.41,7.64L85.8,37.72h5.98l1.87-10.96h5.65l-1.71,10.96h5.98l5.28-27.41H95.56L95.56,10.31z
			 M248.84,21.6h-4.65c0,0-2.68,0.67-1.58-2.33l0.23-1.83c0.41-2.16,3.72-1.66,3.72-1.66h3.65L248.84,21.6z M243.75,10.31
			c0,0-5.5,0.33-6.41,7.64l-3.36,19.77h5.81l1.89-10.96h5.81l-1.71,10.96h5.98l5.11-27.41H243.75z M121.64,10.31h-6.98l-5.44,27.41
			h6.98L121.64,10.31z M211.02,10.31h-7.64l-5.27,27.41h7.47L211.02,10.31z M222.2,37.72h6.15l5.44-27.41h-6.14l-2.67,14.46
			l-1.99-14.46h-6.31l-5.44,27.41h6.32l2.47-13.46L222.2,37.72L222.2,37.72z M190.92,10.31l-2,9.63h-4.15l1.99-9.63h-6.98
			l-5.44,27.41h6.98l2.43-12.46h4.15l-2.43,12.46h6.98l5.44-27.41H190.92L190.92,10.31z M138.51,17.45l-0.77,2.99
			c-0.77,2.99-2.91,2.33-2.91,2.33h-4.65l1.74-6.98h3.66C135.58,15.79,138.91,15.29,138.51,17.45L138.51,17.45z M140.25,10.31
			h-13.12l-5.95,27.41h5.99l2.33-9.8l1.33,0.16l2.32,9.64h6.31l-2.16-9.64c0,0,4.66-0.16,5.56-6.98l0.77-3.16
			C145.55,10.64,140.25,10.31,140.25,10.31L140.25,10.31z M164.75,26.92l-1.01,5.31h-4.82l3.07-16.45h4.98l-1.19,5.65h6.48
			l1.42-7.31c0.57-2.16-0.86-3.99-3.02-3.99h-10.47c-2.16,0-4.22,1.83-4.63,3.99l-4.01,19.6c-0.4,2.16,1.02,3.99,3.18,3.99h10.3
			c2.16,0,4.38-1.83,4.79-3.99l1.4-6.81L164.75,26.92L164.75,26.92L164.75,26.92z M244.98,51.21c-0.76,0-1.4-1.37-1.01-2.05
			c2.28-2.19,4.56-3.98,7.6-5.07c1.9-0.28,2.92,1.79,2.67,3.56c-0.77,7.54-0.39,14.67-1.02,22.07c0,0.68-0.37,2.47-1.39,1.78
			c-1.26-1.37-2.28-3.15-3.3-4.93c1.01,0,1.65,1.37,2.66,1.37c0.38,0,0.64-0.41,0.64-0.69c0-6.71-0.26-13.16,0-19.88
			c0-0.41-0.64-1.1-1.26-0.82c-1.65,1.5-2.92,2.6-4.32,4.38L244.98,51.21L244.98,51.21z M246.87,61.5
			c-0.26,0.82-0.13,1.92-0.76,2.33c-0.63,0.27-1.27-0.27-1.27-0.69c0-0.96,1.27-2.6,2.41-1.92L246.87,61.5L246.87,61.5z
			 M248.91,59.03c-1.65-1.1-2.92,1.51-4.31,2.47c-0.25,0-0.63,0-0.63-0.28c-0.38-1.09,0.38-1.78,0.63-2.46
			c0.63-1.1,1.65-1.1,2.66-1.78c0.64-0.83,0.38-1.78,0.64-2.88c0,0-0.13-0.41-0.26-0.69c-0.76-0.68-2.66-1.09-2.66-0.41
			c-0.63,3.56-2.03,7.13-1.65,10.69c0,0.41,0.25,1.1,0.63,1.37c1.01,0.41,2.02-0.27,2.91,0c0.76,0.41,2.03,0,2.41-0.68
			c0.25-1.09,0.25-2.06,0.25-3.16C249.28,60.54,249.28,59.44,248.91,59.03L248.91,59.03z M86.17,55.19l0.39,0.28
			c-0.39,0.68-0.76,1.51-1.02,2.19h-1.02c-1.02-1.51-2.66-3.98-1.26-4.94c1.26-1.1,1.65,0.96,1.9,2.05
			C85.54,55.19,85.8,55.19,86.17,55.19L86.17,55.19z M93.78,53.69c-2.41,0.41-1.4-2.74-1.01-4.25c0.25-1.37,2.92-1.78,3.55,0
			C96.69,51.21,95.43,53.41,93.78,53.69L93.78,53.69z M96.32,46.56c-1.27-0.68-2.28,1.1-3.55,0.82c-1.02-0.82,0-1.78,0-2.88
			c0-1.1-0.38-1.78-1.02-2.47h-1.01c0,2.06,0.63,4.25,0,6.31c-0.26,2.19-3.3,2.61-3.55,5.35c1.26-0.28,2.28-1.37,3.29-2.47
			c0.26,0,0.63,0,0.63,0.41c0.25,1.78,0.63,3.84-0.63,4.52c-1.39,0.83-3.29,1.1-3.29,3.29c0.25,0,0.63,0.27,0.63,0.27
			c1.02-0.27,1.9-0.68,2.66-1.79c0.26-0.27,0.89,0.42,0.89,0.83c-0.25,4.25-0.89,8.09,0,12.34c0.38,0.41,0.76,1.1,0.76,0.83
			c0.88-5.07-1.65-10.01,0.63-14.26c1.01-2.19,3.55-3.56,5.19-5.35C99.35,50.53,97.96,47.65,96.32,46.56L96.32,46.56z M111.52,65.88
			c0.63-0.27,1.27,0,1.65-0.82c0,0.41,0.25,0.41,0.63,0.41v1.1c-1.02,0.68-2.28,0.68-3.3,1.78c-1.01,0.68-1.27-0.83-1.27-1.51
			C109.24,66.16,110.51,66.16,111.52,65.88L111.52,65.88z M109.87,57.25c0.25-0.27,0.63-1.1,1.27-0.68c0.38,0,0.38,0.41,0.38,0.68
			c-0.38,0.41-0.38,0.41-0.38,0.68c0,0.42-0.38,0.83-0.63,0.83C110.13,58.34,109.5,57.93,109.87,57.25L109.87,57.25z M116.09,54.78
			c0-3.15,1.26-6.03,1.64-9.18c-1.64-1.51-3.67-1.1-5.33,0c-3.54,2.74-3.54,7.4-5.83,11.38c-0.38,0.27-0.63,0-0.63-0.41
			c-0.39-1.78,0.12-3.43,0.63-5.35c0.25-1.37-0.38-2.47-1.4-2.88c-0.25,6.85,0.77,13.57,0.38,20.29c0.39,0,0.64,0,0.64,0.41
			c1.39-4.25-1.27-8.91,1.39-12.89h1.27c1.27,0.83,0,2.2,0.38,3.29c0,0.27,0.26,0.27,0.64,0.27c0.25-0.27,0.25-0.27,0.63-0.27
			c0.25,0,0.63,0.27,0.25,0.69c-0.63,0.68-0.89,1.09-1.26,1.78c-0.26,0.41-0.63,0-0.63-0.41c-0.38,0.41-0.38,1.1-0.63,1.78h0.63
			c1.27-0.96,1.65-2.47,2.66-3.84h0.64c1.01,1.37-0.38,2.88-1.02,3.84c0.63,0,0.63-0.27,1.02-0.68l1.65,0.41l-0.63-1.51
			c0.25-0.96,0-2.47,0.89-3.15c-0.26,0-0.26-0.42-0.26-0.68c-0.63,0-1.65,0-2.03-0.68c0-1.51,0-2.61-0.26-3.56
			c-0.76-1.78-1.01,1.37-2.28,2.05c-0.76,0.41-1.65,0-1.39-1.1c0.63-1.37,1.39-2.74,2.03-4.25c1.27-1.78,2.53-3.15,4.56-3.84
			c0.63-0.41,1.27,0,1.65,0.69c0.38,2.47,0,4.66-0.38,7.13c-0.26,0.68-1.65,0-1.9,0.27c0,0.41-0.63,0.82-0.38,1.51
			c0.64,0.68,1.39,0,1.65-0.41c0.38-0.27,0.63,0,0.63,0.41c0.38,4.93,0.38,10.28,0.38,15.21c0.38,1.1,1.64,1.78,1.64,0.83
			C118.37,66.16,116.46,60.54,116.09,54.78L116.09,54.78z M132.81,57.25c0.38,1.1,0.63,2.19,0.38,2.88
			c-0.63,1.09-1.39,1.78-2.28,2.47c-0.38,0-0.63,0-0.63-0.28c0.25,0,0.13-0.41,0.25-0.82c0.63-1.37,1.01-2.47,1.01-3.84
			C131.16,56.98,132.81,56.56,132.81,57.25L132.81,57.25z M137.5,56.97c0-1.51-0.38-2.6,0.26-3.97c1.01-1.37-0.26-2.88-0.26-4.66
			c0-0.96-0.76-1.37-1.01-1.78c-3.93-0.68-5.33,4.66-6.97,7.54c-0.26,1.1-0.63,1.78-0.88,2.88c-0.39,2.05-0.39,4.24-1.4,6.03
			c-0.63-1.79-0.25-3.98-0.25-5.76c0.25-2.47,0.25-4.52,0.89-7.13c-0.26,0-0.64-1.37-0.64-0.27c-1.01,4.25-0.63,8.08-1.27,12.47
			c0,0.96,0,2.47,1.01,3.57c0.89-2.88,1.65-6.17,2.27-9.32c0-0.41,0.26-0.68,0.64-0.68c0.63,0,1.26,0.27,1.26,0.68
			c0,1.1,0,2.47-0.25,3.57c-0.63,1.09-1.01,1.78-1.65,2.88c-0.37,0.68,0.26,1.1,0.26,1.37h0.76c0.88-1.09,1.52-2.47,2.53-2.47
			c0.63-0.41,0.63,1.1,0.38,1.78c-1.01,1.78-2.66,1.78-3.94,2.88c-0.37,0.27,0,0.68,0.26,0.68c1.39,0,2.67-0.41,3.92-1.1l-0.63-1.37
			c0.38-0.68,1.01-0.68,1.65,0c-0.25-1.51-0.63-2.88-0.25-4.24c0.25-0.41,0.63-1.1,0.63-1.79c-0.63,0-1.4-0.41-1.4-0.83
			c0-1.37,0.77-2.74,0-4.24h-0.88c-0.76,1.09-1.01,2.19-2.03,2.19c-0.25,0-1.01-0.41-0.63-1.1c1.26-2.05,1.9-4.66,3.93-6.03
			c0.63-0.41,1.65,0,2.28,0.69c1.01,1.78,1.01,3.29,0.63,4.93c-0.25,0.82-1.65,0.41-1.27,1.51c0.38,0.27,0.63,1.1,1.02,1.37
			c0.25,4.25,1.01,8.22,1.01,12.06c0,0.41,0.64,0.41,0.64,0.41C138.39,65.48,136.75,61.22,137.5,56.97L137.5,56.97z M156.52,45.6
			c-1.14,0-1.02,2.05-1.65,2.74c-1.02-1.78,1.01-2.74,1.01-4.52c0.25,0,0.63,0,0.63-0.41c0.63,1.1,2.03,0.68,2.03,1.37
			c0.25,1.51,0,2.87-0.76,4.38c-0.64,2.47-1.65,4.93-2.91,7.4c-0.39,1.1-0.63,2.88-1.91,2.88c-0.75-0.41-1.01-1.51-0.75-2.19
			c1.01-2.06,2.03-3.84,2.66-6.03c-0.39,1.79-1.02,3.56-1.91,5.35c0,0.41,0,1.1,0.26,1.1c2.66-2.88,4.31-7.54,4.31-11.79
			C157.53,45.6,156.89,45.6,156.52,45.6L156.52,45.6z M163.48,45.6c0,0.41-0.38,0.96-0.76,1.37c-0.63,0.68-2.28,1.1-1.9,1.78
			c0.26,1.78,2.66,2.88,4.57,2.88c0.63,0,1.01,1.1,0.63,1.78h-0.63c-0.64-0.68-1.27-1.09-2.28-1.09c-1.01-0.41-1.65-1.78-2.66-2.47
			c-0.63-0.41-1.9,0.27-1.65-0.41c0-1.1,1.65-1.37,2.29-2.47c0.38-0.68-0.26-1.09-0.63-1.37c-0.25-1.1,0.63-1.78,0.63-2.88
			c0-0.41,0.38-0.68,0.76-0.41c0.63,0.68,0.89,1.78,1.65,2.47L163.48,45.6L163.48,45.6L163.48,45.6z M151.32,46.97
			c0,1.1-0.38,1.37-1.02,2.19c-0.37,0.28-1.01,0.28-1.39,0.28c-0.63-0.28-0.26-1.1-0.26-1.37c0.26-1.78,1.9-3.56,3.56-2.19
			C151.96,46.28,151.32,46.56,151.32,46.97L151.32,46.97z M150.55,53.41c-0.63,0.28-1.27-0.41-1.27-0.68
			c0.39-0.82,0.64-1.51,1.27-1.78c0.38,0,0.77,0,0.77,0.27C151.32,51.9,151.32,53,150.55,53.41z M151.57,48.75
			c0.64-1.37,2.03-2.47,1.65-3.97c0-0.96-1.65-0.28-2.28-0.28c-1.01,0.68-1.9,1.51-3.29,2.47c-1.02,0.68-2.66,1.1-2.03,2.88
			c0.39,0.69,1.65,0.27,2.03-0.41c0.64,0.41,1.27,0.68,1.65,1.51v0.68c-0.37,0.69-1.27,0.69-1.01,1.78
			c0.63,0.69,1.01,1.37,0.63,2.06c0,2.19,0.37,3.98,0.37,6.03c-0.37,2.88-0.63,5.35-0.63,8.22c0,0.41,0.26,1.09,1.02,1.37
			c0.62-5.21-1.02-10.56,0.25-15.9c0.37-0.82,1.65-1.1,2.28-1.78c0.38-0.41-0.25-1.09,0.38-1.51
			C151.96,50.94,151.32,49.85,151.57,48.75L151.57,48.75z M157.78,57.25c-0.25,0-0.64-0.27-0.25-0.69c0.63-0.41,0.63-1.78,1.65-1.78
			c0.25,0,0.25,0.41,0.63,0.68C159.18,56.15,158.79,57.25,157.78,57.25L157.78,57.25z M158.16,65.06c-1.02,0-1.27-1.78,0-2.47h0.63
			c0.39,0,0.26,0.41,0.39,0.68C159.43,64.38,158.79,65.47,158.16,65.06z M163.74,62.32c-0.63-1.51-2.66-0.82-3.29-1.51
			c-1.66-1.37,0-3.56,0.63-5.35l-0.89-0.27c-0.76-1.51-1.64-2.47-2.66-1.1c0,0,0.63,0.28,0.63,0.68c0.39,1.1-1.02,1.78-1.64,2.47
			c-0.38,0.41,0,1.51,0.37,1.78c0.64,0.41,0.89-1.1,1.66-1.37c0.24,0,0.63,0,0.63,0.27c0.25,1.51,0.63,2.88-0.63,3.98
			c-0.76,0.41-1.4,0.69-2.41,0.69c-0.63,0.41-0.25,1.1-0.25,1.51c1.01,1.78,2.66,2.47,3.3,4.25h0.63c0-1.78,0.38-3.57,0-5.76
			c0-0.69,0.63-1.37,1.65-1.1c1.01,0.82,0.63,2.19,1.65,2.88h0.63C164.75,63.69,163.74,63.01,163.74,62.32L163.74,62.32z
			 M186.81,50.12c-0.26-0.14-0.26-0.28-0.51-0.28c-0.38,0-0.88-0.41-1.14-0.41c-0.38-2.06,1.26-3.84,2.91-2.47
			c0.64,1.1,1.02,2.47-0.38,3.56C187.44,50.53,187.06,50.53,186.81,50.12L186.81,50.12z M180.34,54.78
			c-0.38,0.96,0.64,1.37-0.25,1.65c-1.01,0.41-0.63-0.55-1.26-0.96c1.01-1.09,0.63-2.74,1.64-3.56c0.39,0,1.02,0.82,0.39,1.51
			C180.46,53.69,180.34,54.51,180.34,54.78L180.34,54.78z M179.2,57.25c-0.38,0.68,0,2.47-1.26,1.78c-0.51-0.55-0.63-1.92,0.25-2.88
			C178.57,56.15,179.33,56.98,179.2,57.25L179.2,57.25z M191.24,64.24c-0.12-0.27-0.25-1.23-0.25-1.65c0-0.28-0.64-0.28-0.64-0.28
			c-0.26,1.37,0.51,4.94-1.27,3.56c-2.16-1.64-1.14-5.75-0.5-8.63c0-0.27-0.9-0.27-1.14-0.27c-0.38,0.27-1.65,0.95-1.27,0.27
			c0-1.78,1.52-2.88,2.54-4.25v-1.1c0-0.28-0.25-0.28-0.64-0.28c-1.9,1.78-3.55,2.74-5.96,4.25c0,0,0,0.68-0.25,0.68h-0.64
			c-0.38-0.42-0.38-0.68-0.38-1.1c0.63-1.37,1.26-2.47,1.02-3.84c-0.38-0.68-0.64-2.19-1.66-1.51c-1.01,1.51-0.62,3.98-2.28,5.07
			c-0.38,0-0.38-0.41-0.38-0.41c0.51-1.78,0-1.65,0.63-3.02c0-0.41,0.25-0.69,0.12-1.51l-0.12-0.55c-0.13-0.69,0.12-0.55,0.12-0.83
			c0.38-0.41,0.13-0.55,0.51-0.82c1.01-0.68,1.64-1.78,2.66-2.47c-0.26,0-0.26-0.41-0.26-0.82c-0.76,0-1.01-0.69-1.39-0.69
			c-1.26,0.69-2.28,2.47-2.66,4.25c-0.25,3.98,0,7.54-0.63,11.38c-0.26,1.1-2.28,1.1-3.29,1.78c-0.26,0,0,1.51,1.01,1.51l1.02-1.1
			c0.38,0,1.01,0,1.01,0.41c0,2.06-1.64,3.84-1.39,6.03c0,0,1.01-0.14,1.01-0.55c0.25-2.46,0.76-4.93,1.39-7.4
			c0.38-0.41,0.25-0.68,0.63-0.96c0.25,0,0.25,0.27,0.63,0.69c0.25,0.68-1.65,1.23-0.26,1.64c0.26,0.13,0.51-0.96,0.89-1.23
			c0.39,0,0.63,0,0.63,0.27c0.38,2.19-1.01,3.56-0.63,5.76c0.39,0.68,0.63,1.37,0.63,2.05h0.63l-0.25-0.27
			c0-0.41,0.64-0.68,0.64-0.68c-1.4-2.88-0.39-5.76-0.39-8.5c0-1.1,1.27-1.78,2.03-2.19c0.88,0,1.89-1.1,2.92-1.37
			c0.38,0,0,0.55,0,0.96c-0.64,1.78-0.9,3.56-1.65,5.34c-0.63,2.19-1.15,4.12-0.89,6.3c0,0,0.77,0,0.77-0.41
			c-0.26-2.46,1.01-4.52,1.39-6.72c0.26-0.69,0.76-2.06,1.39-2.33c0.38,0,0.64,0,0.64,0.27c0,2.47-0.25,4.25,0,6.85
			c0.38,0.96,1.39,1.37,2.28,1.65c0.38,0,0.26,0.27,0.76,0.14c0.63,0.13,0.63-0.14,0.89-0.14C192.37,66.85,192,65.2,191.24,64.24
			L191.24,64.24z M198.59,56.56c-0.26,0-0.63,0-0.63-0.41c-0.63-2.74,1.02-4.52,2.92-6.03c0,1.51-0.25,2.88-1.26,3.56
			c0.25,0.41,0.63,0.68,0.63,0.68c3.3-2.74,5.95-6.3,9.88-6.3c2.28-0.41,6.21,2.88,4.31,4.93c-0.76,0.68-2.66,0.41-4.06,0.41
			c0.38-1.1,1.65-1.51,2.41-2.19v-0.68c-1.39-1.37-3.04-1.78-4.69-1.09c-1.91,1.09-3.93,2.88-5.83,3.97
			c-1.39,0.68-1.39,2.74-2.65,3.56L198.59,56.56L198.59,56.56z M206.44,46.97c-1.14-0.41-1.9-2.47-0.63-2.88
			c0.63-0.27,1.02,0.69,1.65,1.51C207.85,46.28,207.46,47.38,206.44,46.97L206.44,46.97z M206.83,54.78c0,1.1-0.64,2.19-1.27,1.78
			c-1.39,0-2.02,1.36-3.3,1.1c0.26,0,0.26-0.41,0.26-0.68h0.64c0.76-1.1,1.39-1.78,2.02-2.88c0-0.41,0-0.68-0.38-0.68
			c0.38,0,0.38-0.41,0.38-0.68C206.19,53,206.83,53.41,206.83,54.78L206.83,54.78z M208.85,55.19c-0.63-0.55-1.01-1.78-0.38-1.78
			c0.63-0.41,1.01,0.68,1.65,1.37c-0.38,0-0.38,0.41-0.38,0.69C209.49,55.47,209.11,55.47,208.85,55.19L208.85,55.19z M208.09,60.13
			c-0.25,1.09,0,2.19-0.63,3.15c-0.63,0.82-1.9,1.1-1.65,1.78c0,1.1,1.4-0.28,2.28-0.28c0.38,0,0.76,0.28,0.76,0.69
			c0.25,1.1,0,2.05-1.01,2.47c-1.66,0-3.68,0.41-5.33,0c0.38-0.69-1.02-1.78,0-2.06c1.02,0,2.03-0.82,2.03-1.78
			c0.26,0,0.63,0,0.63-0.41c0.38-1.1,1.27-2.19,0.38-2.88l-1.39-0.27c1.01-0.83,2.02-1.1,3.05-1.78
			C207.85,58.76,208.47,59.03,208.09,60.13L208.09,60.13z M223.3,57.66c-0.38,0.27-0.76,0.68-1.02,1.1c0-1.1,0.63-1.51,1.27-2.19
			c1.02-2.19,1.4-4.93,3.04-6.72c0.25-0.41,1.27-0.41,1.91,0c1.01,0.69,1.01,1.78,0.63,2.88c-0.25,0.28-0.63,0.68-1.27,0.68
			c-1.02,0.69-1.27,2.06-2.28,3.15C224.96,56.98,223.94,56.98,223.3,57.66L223.3,57.66z M227.61,65.61c1.27,0,2.28-1.51,3.17-2.6
			v-0.69c0.38,0,0.76-0.82,1.4-0.41c0.89,0.69,0.89,1.78,1.65,2.47c0.26,1.1,0,2.47-1.39,2.47c-0.89-0.27-0.26-1.78-1.27-2.06
			c-0.38,0-0.5,0.27-0.76,0.27c-1.65,1.1-2.67,3.56-4.69,2.88c0,0-0.51-1.37-0.13-1.78c0.25-0.68,0.63-1.1,0.63-1.78
			c1.02-1.37,1.65-2.88,2.67-3.84c1.01-1.51,1.01-4.39,2.91-4.39c0.38,0,0.64,0.55,0.64,0.97c-0.77,0.68-1.65,0-2.03,1.1l0.63,1.1
			c-1.27,2.19-2.92,3.56-3.93,5.75C226.73,65.75,227.23,65.61,227.61,65.61L227.61,65.61z M233.44,53c-0.38,0-0.63,0-0.63-0.27
			c0-1.1,0-2.19,0.63-3.29c0.38,0.68,1.26,0.68,1.64,1.51c0.39,0.96-0.38,2.05-1.01,2.47C234.08,53.41,233.82,53,233.44,53
			L233.44,53z"/>
		<path class="st1" d="M2.48,28.96c1.93-0.12,3.51,1.25,3.86,3.04v23.72c-0.04,6.72,5.37,12.14,12.11,12.14
			c6.6,0.01,12.01-5.41,12.11-12.14v-17.1c-0.13-13.03,10.42-23.6,23.41-23.72C63.14,14.83,70.65,8.57,72.69,0
			c-4.71,3.59-10.71,5.86-17.07,5.8c-1.26,0.06-1.13,0.14-2.2,0h0.27c-18.23,0-32.68,14.58-32.76,32.82v16v-0.27
			c-0.01,0.13-0.01,0.13,0,0.27c-0.01,1.63-1.43,3.05-3.3,3.03c-1.64,0.02-3.07-1.41-3.03-3.03c-0.03-0.14-0.03-0.15,0-0.27V32.28
			c-0.03-2.23-1.74-3.94-3.85-3.86c0.18-1.26,1.25-2.21,2.48-2.21c0.46,0,0.85,0.09,1.1,0.28c0.53,0.12,1.13,0.22,1.65,0.27
			c3.45-0.06,6.16-2.78,6.06-6.07c0.11-0.13,0.1-0.2,0-0.27c-1.29,1.76-3.48,2.92-6.06,3.03c-0.32-0.23-0.94-0.22-1.38-0.28
			c-2.84,0.05-5.13,2.34-5.23,5.24H0v0.55h2.76L2.48,28.96 M53.97,25.93c-7.01-0.06-12.71,5.64-12.67,12.69v-0.27v19.86
			c-0.05,9.79-7.84,17.66-17.62,17.65c-6.78,0-12.72-3.94-15.69-9.66c2.67,2.55,6.34,4.2,10.46,4.14c8,0.07,14.55-6.5,14.59-14.62
			v-17.1c-0.03-11.61,9.36-21.01,20.93-20.96h-0.55c6.21-0.05,11.83-2.59,15.97-6.62c-0.65,8.27-7.57,14.83-15.97,14.9L53.97,25.93
			 M50.94,44.41c-0.09-1.86,1.31-3.27,3.03-3.31c1.75,0.04,3.16,1.45,3.03,3.31c0.13,0.26,0.06,0.62,0,0.83
			c-0.17,0.64-0.79,1.19-1.65,1.11c-0.73,0.08-1.41-0.6-1.38-1.38c-0.03-0.27,0.01-0.46,0-0.56v-0.27
			c-0.19,0.73-0.32,1.38-0.28,1.93c-0.04,3.17,2.42,5.64,5.51,5.52c2.15,0.12,4.05-1.18,4.96-3.03c0.75-1.41,1.21-3.1,1.1-4.97
			c0.11-5.87-4.7-10.7-10.73-10.76c-5.87,0.06-10.69,4.89-10.74,10.76v14.62c0,11.15-8.96,20.13-20.1,20.14
			c-1.48-0.01-3-0.19-4.4-0.55H19c2.8,1.33,6.07,2.12,9.64,2.21c12.18-0.09,22.15-10.07,22.02-22.34V44.14L50.94,44.41"/>
	</g>
</g>
</svg>
