<?xml version="1.0" encoding="utf-8"?>
<!-- Generator: Adobe Illustrator 25.4.1, SVG Export Plug-In . SVG Version: 6.00 Build 0)  -->
<svg version="1.1" id="Layer_1" xmlns="http://www.w3.org/2000/svg" xmlns:xlink="http://www.w3.org/1999/xlink" x="0px" y="0px"
	 viewBox="0 0 115.3 80" style="enable-background:new 0 0 115.3 80;" xml:space="preserve">
<style type="text/css">
	.st0{fill-rule:evenodd;clip-rule:evenodd;fill:#228818;}
	.st1{fill-rule:evenodd;clip-rule:evenodd;fill:#046985;}
	.st2{fill-rule:evenodd;clip-rule:evenodd;fill:#1A3733;}
	.st3{fill-rule:evenodd;clip-rule:evenodd;fill:#B7B01A;}
</style>
<path class="st0" d="M81.3,33.6c3.8,2.4,8.1,4.3,12.9,5.7c-8.7,5.9-32.6,8.1-40.5-0.6L81.3,33.6L81.3,33.6z"/>
<path class="st1" d="M33.9,71.5c1.1-1.2,2.5-2.2,3.4-3.6c1.2-1.9,1.8-4,2.8-5.9c0.8-1.4,1.8-2.7,2.7-4.1c1.9,4.1,1,7.6,0,12.1
	C40.3,71.1,37.2,71.9,33.9,71.5L33.9,71.5z"/>
<path class="st2" d="M18.5,2.2c2.7,0.4,6.4,0.9,7.4,0.6c1-0.3,5.1-1.5,7.7-1.2c4.5,0.6,8.8,4.7,9.2,8.3c0.2,2.1-0.5,3.9,0,6
	c1.5,5.7,10.4,7.5,16.4,7.4c9-0.2,29-9.4,46.4-8.2c5.2,0.3,9.5,2.1,9.7,5c-3.7,1.3-6.7,2.9-9,5c-10.2-4.6-22.8-5.9-33.5-1.5
	c11.5-2.5,22.4-0.7,27.7,5.1c-8,4.1-14.3,7.9-20.7,10.3c-8.8,3.3-16.6,4.5-22.6,3c0.2,5.6,2.5,6.8,2.3,15.8
	C59.4,68.2,49.3,75.2,38,75.1c4.3-3.7,5.4-11.1,4.8-17.1c4.2,2.1,1.9,11.8,2.6,11.8c0.7,0,3-5.5,2.4-7.8c-0.9-3.4-2.2-6.7-4.1-9.6
	c-1.5-2.2-9.1-8.2-10.1-15.4c-0.7-5.1,2-9.9,8.5-13c-6.6,0.5-10.4,3.8-11.9,8.9c-2.2-13.1-4-23.7-12.5-28C16.4,4.3,4.2,0.9,0,0.3
	C3.1-1,17.1,1.9,18.5,2.2L18.5,2.2z"/>
<path class="st3" d="M43.5,74.6c8.5-1.8,14-7,15.7-16.9l0.5,0C59.3,69.2,54.9,78.8,40.2,80C42.2,78.4,43,76.6,43.5,74.6L43.5,74.6z"
	/>
</svg>
