<?xml version="1.0" encoding="utf-8"?>
<!-- Generator: Adobe Illustrator 25.4.1, SVG Export Plug-In . SVG Version: 6.00 Build 0)  -->
<svg version="1.1" id="Layer_1" xmlns="http://www.w3.org/2000/svg" xmlns:xlink="http://www.w3.org/1999/xlink" x="0px" y="0px"
	 viewBox="0 0 309.7 80" style="enable-background:new 0 0 309.7 80;" xml:space="preserve">
<style type="text/css">
	.st0{fill:url(#SVGID_1_);}
	.st1{fill-rule:evenodd;clip-rule:evenodd;fill:#1A3733;}
	.st2{fill-rule:evenodd;clip-rule:evenodd;fill:#228818;}
	.st3{fill-rule:evenodd;clip-rule:evenodd;fill:#046985;}
	.st4{fill-rule:evenodd;clip-rule:evenodd;fill:#B7B01A;}
</style>
<g>
	<linearGradient id="SVGID_1_" gradientUnits="userSpaceOnUse" x1="131.1644" y1="41.6585" x2="131.1644" y2="78.1509">
		<stop  offset="1.476039e-06" style="stop-color:#26858B"/>
		<stop  offset="0.1245" style="stop-color:#378B85"/>
		<stop  offset="0.3718" style="stop-color:#649B75"/>
		<stop  offset="0.715" style="stop-color:#ACB55B"/>
		<stop  offset="1" style="stop-color:#ECCC44"/>
	</linearGradient>
	<rect x="124.6" y="40.9" class="st0" width="13.1" height="38.6"/>
	<path class="st1" d="M82.9,57.3l11.3-6.4c-2.9-6.3-9-10.6-17.2-10.6c-11.9,0-20,9-20,19.8c0,10.9,7.6,19.8,19,19.8
		c7.9,0,14.5-4.2,17.8-10.4l-11-6.4c-1,2.7-3.4,4.6-6.3,4.6c-3.9,0-6.5-3.4-6.5-7.6c0-4.1,2.7-7.6,6.8-7.6
		C79.9,52.6,82,54.6,82.9,57.3L82.9,57.3z M96.1,40.9h12.8l8,12.7l7.8-12.7h13.1l-20.9,33.6l-8.5-12.5v17.6H96.1V40.9L96.1,40.9z
		 M150.2,41.4l0.4-0.5h0.6h2.9h1.2V42v37.5h-2.4V68.4h-18l-7.5,11.1h-2.9L150.2,41.4L150.2,41.4z M152.8,66.5V43.2h-1l-15.7,23.3
		H152.8L152.8,66.5z M181.2,51.7v8.4c2.1-5.5,6.7-9.1,11.8-9.3v2.7c-6-0.5-9.8,3.9-11.8,9.5v16.4h-2.4V51.7H181.2L181.2,51.7z
		 M167.9,40.9v3.4h-2.4v-3.4H167.9L167.9,40.9z M167.9,51.7v27.8h-2.4V51.7H167.9L167.9,51.7z M216.2,40.9v3.4h-2.4v-3.4H216.2
		L216.2,40.9z M216.2,51.7v27.8h-2.4V51.7H216.2L216.2,51.7z M200.7,39.1h2.4v40.4h-2.4V39.1L200.7,39.1z M226.7,50.2h2.4v6.1
		c4.7-7.8,13.7-8.5,19.1-3.3c1.8,1.8,2.5,2.6,2.5,8.5v18h-2.5V57.7c-3.8-8.2-14.9-8.4-19.1,1.8v20h-2.4V50.2L226.7,50.2z
		 M259.6,63.4H281c-0.1-3.7-1.4-6.6-3.2-8.6c-1.9-2-4.3-3-6.9-3.1c-0.1,0-0.2,0-0.3,0c-2.8,0-5.4,1.5-7.4,3.8
		C261.4,57.6,260.1,60.3,259.6,63.4L259.6,63.4z M282,65.4h-22.5c0,0,0,0.1,0,0.1c0,3.9,1.6,6.8,3.8,8.7c2.2,1.9,5,2.9,7.3,3.1
		c0.2,0,0.4,0,0.6,0c1.5,0,3.1-0.4,4.6-1c1.8-0.7,3.4-1.8,4.7-2.9l1.3,1.5c-1.5,1.3-3.3,2.4-5.3,3.2c-1.7,0.7-3.6,1.2-5.4,1.1
		c-0.2,0-0.5,0-0.7,0c-2.6-0.2-5.9-1.3-8.4-3.6c-2.6-2.3-4.5-5.6-4.4-10.2c0-0.4,0-0.7,0-1c0.3-4.1,1.9-7.7,4.1-10.3
		c2.4-2.7,5.6-4.4,8.9-4.4c0.1,0,0.3,0,0.4,0c3.1,0,6.1,1.3,8.3,3.7c2.2,2.4,3.6,5.8,3.7,10.2c0,0.2,0,0.5,0,0.7l0,1H282L282,65.4z
		 M308.6,55.1c-1.3-0.6-2.7-1.3-4.1-1.8c-1.4-0.5-2.7-0.8-4.1-0.7c-2.1,0.1-4,0.8-5.3,1.9c-1.3,1.1-2,2.5-2,4c0,2.3,3.4,3.6,6.3,4.6
		c0.5,0.2,1,0.4,1.4,0.5c0.5,0.2,0.9,0.3,1.3,0.5c3.6,1.3,7.7,2.8,7.5,7.9c-0.1,2-1.1,3.9-2.9,5.4c-1.6,1.3-3.8,2.2-6.2,2.3
		c-2.1,0.1-4.1-0.4-5.9-1.1c-1.8-0.8-3.6-1.8-5.3-3l1.1-1.7c1.7,1.1,3.3,2.1,5,2.8c1.6,0.7,3.3,1.1,5.1,1c2-0.1,3.8-0.8,5-1.9
		c1.3-1.1,2.1-2.5,2.2-3.9c0.1-3.7-3.2-4.9-6.2-6c-0.5-0.2-1-0.4-1.4-0.5c-0.5-0.2-0.9-0.3-1.4-0.5c-3.4-1.2-7.5-2.7-7.6-6.5
		c0-2.1,1-4.1,2.7-5.5c1.6-1.4,3.9-2.2,6.5-2.3c1.7-0.1,3.3,0.3,4.9,0.9c1.5,0.5,3,1.3,4.3,1.9L308.6,55.1L308.6,55.1z"/>
	<path class="st2" d="M66.4,27.5c3.1,1.9,6.6,3.5,10.5,4.6c-7.1,4.8-26.6,6.6-33-0.5L66.4,27.5L66.4,27.5z"/>
	<path class="st3" d="M27.7,58.4c0.9-1,2-1.8,2.8-3c1-1.5,1.5-3.3,2.3-4.9c0.6-1.2,1.5-2.2,2.2-3.3c1.6,3.4,0.8,6.2,0,9.9
		C33,58,30.4,58.7,27.7,58.4L27.7,58.4z"/>
	<path class="st1" d="M15.1,1.8c2.2,0.3,5.3,0.7,6.1,0.5C22,2,25.3,1,27.5,1.3c3.7,0.5,7.2,3.8,7.5,6.8c0.2,1.7-0.4,3.2,0,4.9
		c1.2,4.7,8.5,6.1,13.4,6c7.4-0.1,23.7-7.7,37.9-6.7c4.2,0.3,7.8,1.7,7.9,4.1c-3,1.1-5.5,2.4-7.3,4.1c-8.4-3.8-18.6-4.8-27.3-1.2
		c9.4-2.1,18.3-0.6,22.7,4.2c-6.5,3.3-11.7,6.5-16.9,8.4c-7.2,2.7-13.5,3.6-18.4,2.4c0.2,4.6,2.1,5.5,1.9,12.9
		c-0.2,8.6-8.4,14.3-17.7,14.2c3.5-3,4.4-9.1,3.9-14C38.4,49,36.5,57,37,57c0.5,0,2.4-4.5,2-6.4c-0.7-2.8-1.8-5.5-3.3-7.9
		c-1.2-1.8-7.4-6.7-8.2-12.6c-0.6-4.2,1.7-8.1,6.9-10.7c-5.4,0.4-8.5,3.1-9.7,7.3C22.9,16,21.4,7.4,14.5,3.9C13.4,3.6,3.5,0.8,0,0.3
		C2.6-0.8,14,1.6,15.1,1.8L15.1,1.8z"/>
	<path class="st4" d="M35.5,60.9c6.9-1.4,11.4-5.7,12.8-13.8l0.4,0c-0.3,9.4-3.9,17.2-15.9,18.2C34.4,64,35.1,62.6,35.5,60.9
		L35.5,60.9z"/>
</g>
</svg>
