<?xml version="1.0" encoding="utf-8"?>
<!-- Generator: Adobe Illustrator 25.4.1, SVG Export Plug-In . SVG Version: 6.00 Build 0)  -->
<svg version="1.1" id="Layer_1" xmlns="http://www.w3.org/2000/svg" xmlns:xlink="http://www.w3.org/1999/xlink" x="0px" y="0px"
	 viewBox="0 0 278.69 80" style="enable-background:new 0 0 278.69 80;" xml:space="preserve">
<style type="text/css">
	.st0{fill:#FFC41E;}
	.st1{fill:#00BAE1;}
	.st2{fill:#EB2227;}
</style>
<g id="g1248" transform="translate(172.9158,590.7075)">
</g>
<g id="g1252" transform="translate(203.0896,564.0146)">
</g>
<g id="g1256" transform="translate(202.1028,559.5876)">
</g>
<g id="g1260" transform="translate(477.4399,437.4863)">
</g>
<g id="g1264" transform="translate(507.6138,410.7935)">
</g>
<g id="g1268" transform="translate(506.627,406.3665)">
</g>
<g id="g1272" transform="translate(376.8486,590.7075)">
</g>
<g id="g1276" transform="translate(407.0225,564.0146)">
</g>
<g id="g1280" transform="translate(406.0356,559.5876)">
</g>
<g>
	<path class="st0" d="M68.69,17.37h0.04c0.04,0,0.04,0,0.04,0c4.9-0.52,9.81-4.94,9.02-10.14c-0.71-4.75-5.02-7.75-9.62-7.15
		c-2.62,0.34-5.76,1.95-7.07,4.34c-1.24,2.17-1.42,4.79-0.94,7.19C61.02,15.61,64.84,17.48,68.69,17.37"/>
	<path class="st1" d="M11.08,39.68c0.56-4.87-3.03-7.11-6.33-7.97c-2.92-0.67-5.32-1.05-4.64-3.29c0.04-0.07,0.07-0.15,0.11-0.22
		c1.05-2.25,3.67-3.41,7.19-4.34c0.49-0.11,0.97-0.26,1.5-0.37c3.29-0.75,7.19-1.05,10.93-1.72c1.68-0.3,3.29-0.67,4.79-1.2
		c3.48-1.53,5.73-4.9,7.15-8.31c0.6-1.39,1.05-2.81,1.39-4.12c0.52-2.06,0.9-3.86,1.53-5.17c0.64-1.2,1.53-1.98,2.96-2.21
		c2.77-0.3,3.89,2.73,4.79,7.11c1.05,5.05,0.9,12.17,3.33,16.51c1.31,1.76,3.82,2.4,6.81,2.4c3.56,0,7.79-0.94,11.57-2.06
		c4.72-1.39,8.83-2.66,11.45-2.43c1.35,0.11,2.32,0.64,2.81,1.8c0.11,0.3,0.15,0.64,0.15,0.97c-0.56,2.73-5.32,5.91-11.38,9.62
		c-7.67,4.6-17.37,8.76-21.3,13.48c-0.67,0.9-1.09,1.91-1.24,2.96c-1.09,4.64,2.66,10.67,7,15.61c4.16,4.72,8.01,8.72,7.82,11.34
		c-0.15,0.52-0.52,1.01-1.16,1.39c-0.64,0.41-1.42,0.6-2.28,0.56c-3.44-0.11-8.57-3.37-14.19-7.52
		c-7.07-5.2-13.74-12.28-19.09-14.45c-0.49-0.15-0.97-0.26-1.46-0.26c-3.93-0.11-7.37,4.6-9.58,9.21c-1.98,4.27-3.48,7.94-5.17,7.6
		c-0.34-0.07-0.67-0.3-1.05-0.71c-0.94-1.09-1.24-2.96-1.16-5.35c0.11-2.36,0.64-5.17,1.31-8.27c1.27-5.8,3.67-12.13,4.83-17.26
		C10.75,41.81,10.97,40.73,11.08,39.68"/>
	<path class="st2" d="M251.33,68.05h9.81l3.07-21.75c0.6-0.22,1.35-0.34,2.02-0.34c1.5,0,2.84,0.64,2.55,2.81l-2.73,19.28h9.77
		l2.73-19.35c1.16-8.31-4.6-11.34-11.87-11.34c-3.89,0-8.01,0.94-11.38,2.43L251.33,68.05z M239.05,46.12
		c1.16,0,2.51,0.82,2.32,2.21l-1.35,9.81c-0.22,1.61-1.68,2.28-2.96,2.28c-1.27,0-2.43-0.86-2.25-2.28l1.35-9.81
		C236.32,46.9,237.89,46.12,239.05,46.12 M225.16,58.02c-0.97,7.04,4.64,10.63,10.74,10.63c6.18,0,12.84-3.56,13.81-10.63l1.35-9.51
		c1.05-7.45-4.6-11.04-10.71-11.08c-6.18,0.07-12.84,3.67-13.89,11.08L225.16,58.02z M211.91,60.75c-0.56,0.19-1.24,0.3-1.87,0.3
		c-1.61,0-3.18-0.71-2.96-2.43l1.5-10.44c0.3-1.87,2.02-2.62,3.56-2.62c0.75,0,1.39,0.11,1.87,0.34L211.91,60.75z M226.58,26.92
		h-9.88l-1.5,11.04c-1.24-0.41-2.55-0.6-3.82-0.6c-5.8,0-11.45,3.37-12.39,10.11l-1.46,10.29c-1.16,8.2,4.42,10.86,10.74,10.86
		c4.42,0,9.02-1.16,12.76-2.55L226.58,26.92z M168.64,68.05h9.81l3.07-21.75c0.56-0.22,1.35-0.34,2.02-0.34
		c1.5,0,2.84,0.64,2.55,2.81l-2.73,19.28h9.77l2.73-19.35c1.16-8.31-4.6-11.34-11.87-11.34c-3.89,0-8.01,0.94-11.38,2.43
		L168.64,68.05z M154.64,48.14c0.22-1.68,1.87-2.66,3.26-2.66c1.87,0,2.55,1.39,2.32,2.81c-0.34,3.03-3.59,3.78-5.99,2.73
		L154.64,48.14z M153.29,56.79c6.96,1.57,14.71-1.27,15.76-8.38c1.09-7.37-3.78-11.04-9.99-11.04s-12.91,3.97-13.96,11.49
		l-1.24,8.61c-1.05,7.34,4.64,11.16,10.71,11.16c3.48,0,7.6-0.64,11.79-4.87L161.64,59C158.87,61.62,152.65,61.32,153.29,56.79
		 M140,37.4c-7.26,0-12.65,3.56-13.78,11.75l-2.62,18.94h9.81l2.62-18.83c0.45-3.33,5.13-3.82,7.71-2.92l1.16-8.2
		C142.51,37.51,141.05,37.4,140,37.4 M111.48,46.12c1.16,0,2.51,0.82,2.32,2.21l-1.35,9.81c-0.22,1.61-1.68,2.28-2.96,2.28
		s-2.43-0.86-2.28-2.28l1.35-9.81C108.74,46.9,110.32,46.12,111.48,46.12 M97.59,58.02c-0.97,7.04,4.64,10.63,10.74,10.63
		c6.18,0,12.84-3.56,13.81-10.63l1.35-9.51c1.05-7.45-4.6-11.04-10.71-11.08c-6.14,0.07-12.84,3.67-13.89,11.08L97.59,58.02z
		 M87.22,57.91c-0.82,1.76-2.32,2.51-3.67,2.51s-2.55-0.94-2.32-2.55l1.39-9.66c0.22-1.68,1.68-2.55,3.07-2.55
		c1.24,0,2.43,0.82,2.55,2.55l8.61-2.55c-0.86-6.44-5.91-8.24-9.99-8.24c-6.1,0-12.76,3.07-13.81,10.44l-1.39,9.81
		c-1.05,7.34,4.72,10.97,10.82,10.97c4.08,0,9.88-2.1,12.95-8.83L87.22,57.91z"/>
</g>
</svg>
