<?xml version="1.0" encoding="utf-8"?>
<!-- Generator: Adobe Illustrator 25.4.1, SVG Export Plug-In . SVG Version: 6.00 Build 0)  -->
<svg version="1.1" xmlns="http://www.w3.org/2000/svg" xmlns:xlink="http://www.w3.org/1999/xlink" x="0px" y="0px"
	 viewBox="0 0 112.9 80" style="enable-background:new 0 0 112.9 80;" xml:space="preserve">
<style type="text/css">
	.st0{fill-rule:evenodd;clip-rule:evenodd;fill:#E30613;}
	.st1{fill-rule:evenodd;clip-rule:evenodd;fill:#1B3F92;}
</style>
<g id="Layer_2">
</g>
<g id="Layer_1">
	<path class="st0" d="M79.2,0v32.1h33.7l-25.6,7l-8.1-7v32.4L73,43.3l-11.6,8.1l7.3-13.8l-22-5.5h32.4l-7.7-6.8L79.2,0L79.2,0z
		 M71.4,25.3l-3.4,2.1l-7.8-13.5L71.4,25.3L71.4,25.3z M84.4,42.1l2.8-2.9l10.9,11.2L84.4,42.1L84.4,42.1z M84.6,27h5.9l8.1-14
		L84.6,27L84.6,27z"/>
	<path class="st1" d="M32.1,80l44.1-18.4l1.7,5.1L32.1,80L32.1,80z M26.1,77.6l48.3-21.7l1.5,4.6L26.1,77.6L26.1,77.6z M35.8,69.1
		L72,48.7l1.8,5.7L35.8,69.1L35.8,69.1z M11.9,69.2L58.8,50l-3,5.1L11.9,69.2L11.9,69.2z M21.8,58.2L62.7,42l-3,5.1L21.8,58.2
		L21.8,58.2z M12.2,53.6l41.7-16.7l8.2,2L12.2,53.6L12.2,53.6z M0,50.3l42.1-16.8l7.9,2L0,50.3L0,50.3z M17.6,37.5l43.2-17.3
		l2.7,4.8L17.6,37.5L17.6,37.5z M14.5,31.4l42.9-17.2l2.6,4.8L14.5,31.4L14.5,31.4z M29,19.2L75.5,1l-1.8,6L29,19.2L29,19.2z"/>
</g>
</svg>
