<?xml version="1.0" encoding="utf-8"?>
<!-- Generator: Adobe Illustrator 25.4.1, SVG Export Plug-In . SVG Version: 6.00 Build 0)  -->
<svg version="1.1" xmlns="http://www.w3.org/2000/svg" xmlns:xlink="http://www.w3.org/1999/xlink" x="0px" y="0px"
	 viewBox="0 0 414.9 80" style="enable-background:new 0 0 414.9 80;" xml:space="preserve">
<style type="text/css">
	.st0{fill-rule:evenodd;clip-rule:evenodd;fill:#E30613;}
	.st1{fill-rule:evenodd;clip-rule:evenodd;fill:#1B3F92;}
	.st2{fill-rule:evenodd;clip-rule:evenodd;fill:#ACACAC;}
	.st3{fill-rule:evenodd;clip-rule:evenodd;fill:#FFFFFF;}
</style>
<g id="Layer_2">
</g>
<g id="Layer_1">
	<g>
		<path class="st0" d="M78.4,0v31.8h33.4l-25.3,6.9l-8.1-6.9v32.1l-6.1-21L60.8,51l7.3-13.7l-21.8-5.5h32.1L70.8,25L78.4,0L78.4,0z
			 M70.6,25l-3.4,2.1l-7.7-13.4L70.6,25L70.6,25z M83.5,41.7l2.8-2.9l10.8,11.1L83.5,41.7L83.5,41.7z M83.7,26.8h5.8l8.1-13.9
			L83.7,26.8L83.7,26.8z"/>
		<path class="st1" d="M31.8,79.2L75.4,61l1.7,5.1L31.8,79.2L31.8,79.2z M25.8,76.8l47.8-21.5l1.4,4.5L25.8,76.8L25.8,76.8z
			 M35.5,68.4l35.8-20.2l1.8,5.7L35.5,68.4L35.5,68.4z M11.8,68.5l46.4-19.1l-3,5L11.8,68.5L11.8,68.5z M21.6,57.6l40.4-16l-3,5
			L21.6,57.6L21.6,57.6z M12.1,53.1l41.3-16.5l8.1,2L12.1,53.1L12.1,53.1z M0,49.8l41.7-16.6l7.8,2L0,49.8L0,49.8z M17.4,37.1
			L60.2,20l2.7,4.8L17.4,37.1L17.4,37.1z M14.4,31.1l42.4-17l2.6,4.8L14.4,31.1L14.4,31.1z M28.7,19L74.7,1l-1.8,6L28.7,19L28.7,19z
			"/>
		<path class="st2" d="M149.1,22.2h9.1c0-6.6-3.3-12.5-9.9-12.5h-18.6c-6.6,0-12,5.4-12,12v9.7c0,6.6,5.4,12,12,12h19
			c6.6,0,9.4-6.2,9.4-12.8h-9.1c-0.6,3.1-2.3,5.7-5.6,5.7h-10c-3.8,0-6.9-3.1-6.9-6.9v-5.6c0-3.8,3.1-6.9,6.9-6.9h10
			C146.8,16.9,148.5,19.1,149.1,22.2L149.1,22.2z M166.4,43.3V9.8h9.1v12.5h23.1V9.8h9.1v33.6h-9.1l0-12.8l-23.1,0v12.8H166.4
			L166.4,43.3z M213.7,43.3l17.8-33.6h12.6l17.7,33.6h-10.6l-3.7-7.3h-20l-3.6,7.3H213.7L213.7,43.3z M229.8,30.6h15.3l-6.5-13.6h-2
			L229.8,30.6L229.8,30.6z M267.6,43.2V9.8L278,9.8l0,24.8h21.7v8.7H267.6L267.6,43.2z M303.4,43.3l17.8-33.6h12.6l17.7,33.6h-10.6
			l-3.7-7.3h-20l-3.6,7.3H303.4L303.4,43.3z M319.5,30.6h15.3l-6.5-13.6h-2L319.5,30.6L319.5,30.6z M356.4,43.3V9.8h9.4v33.6H356.4
			L356.4,43.3z M401.7,18.2h-18v9.3h18c1.4,0,2.3-0.2,2.8-0.6c0.5-0.4,0.8-1.1,0.8-2.1v-4c0-1-0.3-1.7-0.8-2
			C404,18.4,403.1,18.2,401.7,18.2L401.7,18.2z M373.9,43.3V9.8h32.6c2.9,0,5,0.6,6.3,1.6c1.3,1,2,2.7,2,5v7.9c0,3.4-3,5.3-5.8,6.3
			c3.5,0.7,5.8,2.7,5.8,5.5v7.4h-10V37c0-1.8-2.1-3.9-4.9-3.9h-15.6v10.2H373.9L373.9,43.3z"/>
		<polygon class="st0" points="117.4,57.7 414.9,57.7 414.9,80 117.4,80 117.4,57.7 		"/>
		<path class="st3" d="M384.8,74.7v-12h2.4l10.4,7.1c0.4,0.2,0.7,0.5,0.9,0.7c0.3,0.2,0.5,0.4,0.7,0.6c-0.1-0.7-0.1-1.2-0.1-1.4
			c0-0.3,0-0.5,0-0.6v-6.3h3.1v12h-2.4L389,67.3c-0.3-0.2-0.5-0.4-0.7-0.5c-0.2-0.2-0.4-0.3-0.5-0.5c0,0.4,0.1,0.7,0.1,1.1
			c0,0.3,0,0.6,0,0.9v6.5H384.8L384.8,74.7z M347.3,72.4h11.1v-7.6h-11.1V72.4L347.3,72.4z M343.9,65.5c0-1.1,0.2-1.8,0.7-2.2
			c0.5-0.4,1.4-0.6,2.8-0.6h10.6c1.4,0,2.3,0.2,2.8,0.6c0.5,0.4,0.7,1.2,0.7,2.2v6.3c0,1.1-0.2,1.9-0.7,2.2
			c-0.5,0.4-1.4,0.6-2.8,0.6h-10.6c-1.4,0-2.3-0.2-2.8-0.6c-0.5-0.4-0.7-1.1-0.7-2.2V65.5L343.9,65.5z M317.1,74.7v-12h3.2v12H317.1
			L317.1,74.7z M288.4,64.8v9.9h-3.2v-9.9h-6.4v-2.2h16v2.2H288.4L288.4,64.8z M238.3,74.7l8.6-12h3.4l8.7,12h-4l-1.8-2.6h-9.6
			l-1.8,2.6H238.3L238.3,74.7z M245.1,69.9h6.7l-3.3-4.9L245.1,69.9L245.1,69.9z M212.6,74.7v-12h3.5v12H212.6L212.6,74.7z
			 M179.4,74.7l-9.5-12h4.3l6.6,8.7l6.3-8.7h3.8l-9,12H179.4L179.4,74.7z M131.2,74.7l7.8-12h3.1l7.9,12h-3.6l-1.7-2.6H136l-1.6,2.6
			H131.2L131.2,74.7z M137.3,69.9h6l-3-4.9L137.3,69.9L137.3,69.9z"/>
	</g>
</g>
</svg>
