<?xml version="1.0" encoding="utf-8"?>
<!-- Generator: Adobe Illustrator 26.0.0, SVG Export Plug-In . SVG Version: 6.00 Build 0)  -->
<svg version="1.1" id="Layer_1" xmlns="http://www.w3.org/2000/svg" xmlns:xlink="http://www.w3.org/1999/xlink" x="0px" y="0px"
	 viewBox="0 0 97.72 80" style="enable-background:new 0 0 97.72 80;" xml:space="preserve">
<style type="text/css">
	.st0{fill:#E8E8E7;}
	.st1{fill:#3E3D3B;}
	.st2{fill:#E6343E;}
	.st3{fill:#D8C827;}
</style>
<polygon class="st0" points="97.72,80 23.89,80 0,0 49.72,1.6 56.23,12.25 56.24,12.25 60.96,19.95 62.1,21.82 65.67,27.66 
	66.41,28.87 68.48,32.25 68.48,32.25 74.32,41.78 80.43,51.76 82.27,54.77 85.26,59.65 87.22,62.86 92.07,70.78 92.63,71.69 
	97.03,78.88 "/>
<polygon class="st1" points="0.95,0.97 5.76,15.82 19.36,1.67 "/>
<path class="st1" d="M33.58,1.6H22.35v23.22h11.22V19.1h4.25c0,0,0.31-8.52-4.22-13.54L33.58,1.6z"/>
<polygon class="st1" points="48.31,2.9 51.73,11.06 53.77,8.91 "/>
<path class="st1" d="M37.84,6.72c0,0,1.24-1.57,3.49-1.57s3.32,1.83,3.32,1.83s-1.29,1.83-3.41,1.83
	C39.13,8.81,37.84,6.72,37.84,6.72z"/>
<path class="st1" d="M37.84,23.27c0,0,1.29-1.25,3.07-1.25s3.01,1.25,3.01,1.25s-1.01,1.28-3.04,1.28
	C38.84,24.55,37.84,23.27,37.84,23.27z"/>
<path class="st2" d="M6.95,19.63c0,0,2.22-3.03,6.01-3.03s5.57,3.03,5.57,3.03s-1.78,3.03-5.79,3.03S6.95,19.63,6.95,19.63z"/>
<path class="st2" d="M22.04,59.99c0,0,1.7-2.32,4.6-2.32s4.26,2.32,4.26,2.32s-1.36,2.32-4.43,2.32S22.04,59.99,22.04,59.99z"/>
<path class="st1" d="M10.15,26.84c0,0,7.46,4.25,9.59,7.39l0.21,18.06h-1.67L10.15,26.84z"/>
<polygon class="st1" points="22.77,30.12 21.76,26.84 34.62,26.84 33.68,30.12 "/>
<path class="st1" d="M22.74,32.59l1.19-1.32l0.17,1.71l1.85-1.57l0.21,1.57l1.53-1.39l0.24,1.39l1.85-1.57l0.32,1.57l1.57-1.46
	l0.31,1.32l1.6-1.22l-0.63,3.83c0,0,2.13,2.37,2.13,6.27h-2.37c0,0,0.31,7.22,1.71,10.56H22.04c0,0,1.5-4.25,1.5-8.19
	S22.74,32.59,22.74,32.59z"/>
<path class="st1" d="M44.24,40.02c0,0,2.79,3.45,2.79,12.27H36.19c0,0-0.18-7.36,2.93-12.13c0,0-2.31-2.53-2.83-10.04
	c-0.06-0.94-0.1-1.97-0.1-3.07h11.05c0,0-0.03,1.26-0.22,3.07C46.71,33.04,45.97,37.37,44.24,40.02z"/>
<path class="st2" d="M56.24,52.29h-7.6c0,0,0.35-6.31,3.8-9.87C52.44,42.42,56.13,46.33,56.24,52.29z"/>
<path class="st1" d="M72.06,52.29h-7.6c0,0,0.35-6.31,3.8-9.87C68.26,42.42,71.96,46.33,72.06,52.29z"/>
<path class="st1" d="M23.89,78.88v-3.71h5.62c0,0,2.22-14.85,5.57-19.35c0,0,5.67,13.62,5.67,19.32h6.14v3.74H23.89z"/>
<path class="st1" d="M71.47,54.56c0,0-10.9,0.94-10.9,10.46c0,0-0.89-10.59-10.85-10.59v13.18c0,0-0.05,10.59,10.88,10.59
	s10.88-10.22,10.88-10.22V54.56z"/>
<path class="st1" d="M58.35,20.76l1.52,6.9h-8.31c0-6.17,4.69-15.41,4.69-15.41h0l4.72,7.7h-6.95L58.35,20.76z"/>
<polygon class="st1" points="65.67,27.66 60.59,27.66 62.1,21.82 "/>
<path class="st1" d="M68.48,32.25L68.48,32.25c-1.05,8.73-8.26,19.51-8.26,19.51c-8.68-13.59-8.68-22.89-8.68-22.89h14.87
	L68.48,32.25z"/>
<polygon class="st1" points="80.43,51.76 74.32,51.76 74.32,41.78 "/>
<polygon class="st1" points="97.03,78.88 73.98,78.88 73.98,71.69 92.63,71.69 "/>
<path class="st1" d="M92.07,70.78H85.9c0,0-0.49-3.57,1.32-7.92L92.07,70.78z"/>
<path class="st1" d="M85.26,59.65l-0.19,10.31c0,0-0.78-4.13-5.64-4.13c-4.86,0-5.44-4.57-5.44-5.84c0-1.27,1.1-5.56,5.54-5.56
	c1.1,0,2,0.14,2.75,0.34L85.26,59.65z"/>
<circle class="st1" cx="26.47" cy="59.99" r="1.19"/>
<circle class="st0" cx="12.74" cy="19.63" r="1.27"/>
<circle class="st3" cx="8.51" cy="6.27" r="2.04"/>
<circle class="st3" cx="41.24" cy="6.98" r="0.95"/>
<circle class="st0" cx="41.72" cy="35.76" r="1.15"/>
<circle class="st3" cx="79.62" cy="59.99" r="2.13"/>
<path class="st2" d="M65.04,69.65h-8.8c0,0,0.49,3.87,4.36,3.87S65.04,69.65,65.04,69.65z"/>
<path class="st2" d="M80.43,74.82c0,0,2.12-1.62,5.07-1.62c2.96,0,5.31,1.62,5.31,1.62s-1.63,1.67-5.31,1.67
	C81.82,76.5,80.43,74.82,80.43,74.82z"/>
<path class="st2" d="M30.89,76.13c0,0,1.1-2.04,4.18-2.04s4.34,2.04,4.34,2.04s-2.04,2.07-4.26,2.07S30.89,76.13,30.89,76.13z"/>
<circle class="st0" cx="35.08" cy="71.95" r="0.94"/>
<circle class="st1" cx="35.08" cy="76.14" r="0.94"/>
<circle class="st0" cx="55.3" cy="61.18" r="0.94"/>
<circle class="st0" cx="35.08" cy="68.29" r="0.94"/>
<circle class="st0" cx="35.08" cy="64.63" r="0.94"/>
<circle class="st0" cx="65.67" cy="61.18" r="0.94"/>
<circle class="st0" cx="35.08" cy="61.18" r="0.94"/>
<path class="st2" d="M24.41,47.11c0,0,1.24-1.25,4.15-1.25s3.59,1.25,3.59,1.25s-1.43,1.31-3.59,1.31S24.41,47.11,24.41,47.11z"/>
<path class="st2" d="M47.24,27.05c0,0-0.03,1.26-0.22,3.07l0,0H36.29c-0.06-0.94-0.1-1.97-0.1-3.07H47.24z"/>
<polygon class="st2" points="55.99,25.1 57.04,22.01 54.89,22.01 "/>
<path class="st2" d="M58.61,40.63h3.19c0,0-0.32,1.47-1.78,1.47S58.61,40.63,58.61,40.63z"/>
<circle class="st1" cx="40.29" cy="64.68" r="0.52"/>
<circle class="st1" cx="42.23" cy="64.68" r="0.52"/>
<circle class="st1" cx="44.07" cy="64.68" r="0.52"/>
<circle class="st1" cx="45.92" cy="64.68" r="0.52"/>
<circle class="st2" cx="38.45" cy="3.42" r="0.52"/>
<circle class="st2" cx="40.39" cy="3.42" r="0.52"/>
<circle class="st2" cx="42.23" cy="3.42" r="0.52"/>
<circle class="st2" cx="44.08" cy="3.42" r="0.52"/>
</svg>
