<?xml version="1.0" encoding="utf-8"?>
<!-- Generator: Adobe Illustrator 26.5.0, SVG Export Plug-In . SVG Version: 6.00 Build 0)  -->
<svg version="1.1" id="Layer_1" xmlns="http://www.w3.org/2000/svg" xmlns:xlink="http://www.w3.org/1999/xlink" x="0px" y="0px"
	 viewBox="0 0 533.8 80" style="enable-background:new 0 0 533.8 80;" xml:space="preserve">
<style type="text/css">
	.st0{fill:#A12132;}
	.st1{fill:#FFFFFF;}
	.st2{fill:#1D294C;}
	.st3{fill-rule:evenodd;clip-rule:evenodd;fill:#CA5766;}
	.st4{clip-path:url(#SVGID_00000101813302440927165670000013746869436721617544_);}
	.st5{fill:url(#SVGID_00000073700900218221687950000007629087513414688154_);}
	.st6{clip-path:url(#SVGID_00000147914191929310000470000018031436441989119119_);}
	.st7{fill:url(#SVGID_00000046306702453537660050000002282761167784111275_);}
	.st8{clip-path:url(#SVGID_00000118392070078012382870000016925710448432148649_);}
	.st9{fill:url(#SVGID_00000026125956308621145490000008139360914836105606_);}
	.st10{clip-path:url(#SVGID_00000173150361369876963130000000156287463014687873_);}
	.st11{fill:url(#SVGID_00000007395166374612570600000003178511635195859892_);}
	.st12{clip-path:url(#SVGID_00000069358734857964010660000005036472546682184887_);}
	.st13{fill:url(#SVGID_00000173163111978595531570000015535699260207785884_);}
	.st14{clip-path:url(#SVGID_00000098186671193414648490000005748389730121868428_);}
	.st15{fill:url(#SVGID_00000021103573789109797190000008602437333446687395_);}
	.st16{clip-path:url(#SVGID_00000162322590813416723680000000383426082146341785_);}
	.st17{fill:url(#SVGID_00000104703015599259845590000005247497575547810440_);}
	.st18{fill-rule:evenodd;clip-rule:evenodd;fill:#FFFFFF;}
	.st19{fill-rule:evenodd;clip-rule:evenodd;fill:#A12132;}
</style>
<g id="Layer_2_00000105420179793225003380000009873520538840966051_">
</g>
<g>
	<path class="st0" d="M12.4,59.5c1.1,4.5,0.9,12-2.2,15.8c-4.4,5.4-8.6-0.5-9.7-5c-1.1-4.8-1-13.2,2.5-17c1.2-1.5,3.2-2.5,5-1.2
		C10.9,54,11.5,56.4,12.4,59.5"/>
	<path class="st1" d="M8.4,65.4C8.6,65.9,8.1,66.8,9,67c0.6,0.5,1.9,0.3,1.8,1.2c-1.1-0.1-1.9-1.1-3.1-0.8c-0.6,0.1-1.2,0.5-1.8,0.7
		c-0.1-0.1-0.2-0.2-0.2-0.3c0.6-0.5,1.5-0.5,2.2-1.1v-1.6C8.1,64.7,8.5,65.1,8.4,65.4"/>
	<path class="st1" d="M9.4,68.9c0.6,0.6,0.2,1.4,0.3,2.2c-0.1,1.6,0.1,3.1,0.4,4.7c0,0.2-0.1,0.4-0.3,0.5c-0.2,0-0.2-0.2-0.3-0.3
		c-0.1-2.2-0.4-4.3-0.4-6.5c-0.2-0.6-1-0.2-1.3-0.3c-0.2,0-0.4,0.1-0.6,0.3c0,2.2-0.1,4.4-0.4,6.6c-0.1,0.1-0.2,0.1-0.3,0.1L6.5,76
		c0.2-2.2,0.2-4.6,0.3-6.7c0.3-0.4,0.8-0.6,1.3-0.6C8.5,68.6,9,68.7,9.4,68.9"/>
	<path class="st1" d="M4.7,72.6c0,0.5,0,0.9,0,1.3c0,0.5-0.1,1-0.2,1.5c0,0.2-0.2,0.5-0.1,0.7h0.3C5.1,75.9,5,75.4,5.1,75
		c0-0.4,0-0.9,0.1-1.3c0-1,0.1-1.8,0.1-2.7c0-0.2,0-0.4,0-0.5c0.1-0.9,0.1-1.7-0.1-2.6C4.9,67,4,67,3.3,66.8C3.1,66.6,3,66.4,3,66.2
		c0.2-0.3,0.6-0.5,1-0.5c0.1-0.1,0.3-0.1,0.4-0.1c0.2-0.1,0.4-0.1,0.6-0.1c0.2,0,0.2-0.2,0.2-0.3c-0.3-0.5-0.7,0-1.1,0
		c-0.5,0.2-1.4,0.2-1.5,1c-0.1,0.5,0.3,1,0.9,1.1c0,0,0,0,0,0c0.5,0.2,1.1,0.2,1.3,0.7c0,0.2,0,0.7,0,0.9c0,0.2,0,0.4,0,0.6
		c0.1,0.3,0.1,0.6,0,1c-0.1,0.2-0.5,0.1-0.8,0.1c-0.2,0-0.5,0-0.7-0.2c-0.1-0.3-0.1-0.5-0.1-0.8C3.7,69.2,4,69.2,4.5,69
		c0,0,0-0.1,0-0.1c0-0.1,0-0.1,0-0.2l-0.1-0.1c-0.3-0.3-0.4,0-0.7,0H3.5c-0.6,0-0.2-0.7-0.4-1C3,67.6,3,67.4,2.8,67.5
		c-0.4,0.3,0,0.8-0.1,1.1c0.1,1.1,0.1,2.2-0.1,3.3c0,0.6,0,1.1-0.1,1.7c-0.1,0.2,0,0.5-0.1,0.7c-0.1,0.2-0.2,0.7,0,0.8
		c0.1-0.1,0.2-0.2,0.3-0.3c0.1-0.7,0.3-1.5,0.4-2.2c0-0.1,0.1-0.2,0.2-0.2c0,0,0,0,0.1,0c0.4,0,0.5,0.2,0.8,0.2
		c0.3,0,0.2-0.5,0.1-0.5c-0.4,0-0.3-0.2-0.7-0.2c-0.1,0-0.4,0-0.3-0.1c0-0.3,0.1-0.5,0.2-0.8c0.3,0,0.7,0,1,0c0.1,0,0.4,0.1,0.5,0.2
		C4.8,71.6,4.8,72.1,4.7,72.6"/>
	<path class="st1" d="M10.9,59.7l-0.5-0.1c-0.2-0.1-0.4-0.3-0.6-0.4c-0.6-0.3-1.1-0.6-1.6-1c-0.4,0-0.6,0.4-1.1,0.7
		c0,0-0.2,0.1-0.2,0c0.2-0.4,0.5-0.5,0.8-0.8C7.9,58,8,57.9,8.2,57.8c0.3,0.1,0.4,0.3,0.7,0.4c0.2,0.1,0.5,0.4,0.9,0.5
		c0.3,0.2,0.5,0.3,0.8,0.4C10.7,59.3,11.2,59.2,10.9,59.7L10.9,59.7z"/>
	<path class="st1" d="M10.1,54.5c0,0.2-0.3,0.3-0.5,0.3S9.2,54.9,8.9,55c-0.1,0.1-0.1,0.2-0.1,0.3c0,0.2,0.4,0.3,0.6,0.4
		c0.1,0,0.1,0.1,0.1,0.2c0,0,0,0,0,0c-0.1,0.1-0.2,0-0.4,0c-0.4,0.1-0.8-0.1-1.2,0c-0.2,0.1-0.2,0-0.4,0.1c-0.1,0-0.2,0-0.2,0.1
		c-0.2,0.1-0.7,0-0.7,0.3c-0.1,0.3-0.1,0.6-0.1,0.8c0,0.1,0,0.3-0.1,0.4c0,0.5,0.1,1,0.2,1.6c0,0.1,0,0.3,0,0.4
		c0.2,0.3,0.7,0.1,0.8,0.1c0.3,0,0.5,0,0.8,0c0.3,0,0.5,0,0.8,0.1c0,0,0.1,0.1,0.2,0.1c0,0-0.1,0.1-0.2,0.1c-0.2,0.1-0.5,0.1-0.7,0
		c-0.6,0-1.1,0.1-1.8,0.1c-0.3,0-0.5,0-0.9,0c-0.1,0-0.4,0-0.4,0c-0.3,0-0.5,0-0.8-0.1c-0.1-0.1-0.2,0-0.3-0.1
		c-0.1-0.1,0.1-0.1,0.2-0.1h1c0.3,0,0.6,0,0.9-0.1c0-0.1,0-0.2,0-0.3c0-0.5-0.1-0.9-0.1-1.5c0-0.3,0-0.7,0.1-1
		c0.1-0.3,0-0.9,0.2-1.1l0.8-0.2c0.3,0,0.6,0,0.9,0c0.2,0,0.4-0.1,0.5-0.2c0-0.2-0.1-0.3-0.3-0.4c-0.2,0-0.2,0-0.5,0
		c-0.3,0-0.3,0-0.4-0.2c-0.3-0.4-0.4-0.9-0.3-1.5c0-0.1,0.1-0.2,0.2-0.1c0.1,0.1,0,0.4,0,0.6c0,0.3,0.1,0.7,0.4,0.8
		c0.2,0,0.3,0,0.5,0c0.2-0.2,0.1-0.5,0.2-0.7c0-0.3,0-0.6,0.2-0.9c0.2,0,0.2,0.2,0.2,0.3v0.2c0,0.4,0,0.7,0.1,1.1
		c0.1,0.1,0.1,0.1,0.3,0.1c0.2,0,0.4-0.2,0.5-0.5c0.1-0.2-0.1-0.7,0.3-0.8c0.1,0,0.1,0,0.1,0.1L10.1,54.5z"/>
	<path class="st1" d="M10.1,57.8c-0.1,0-0.3,0-0.4-0.1c-0.3-0.3-1-0.5-1.3-0.7S8,57,7.8,57.1c-0.1,0.2-0.3,0.3-0.5,0.3
		c-0.1,0.1-0.2,0.2-0.3,0.2c-0.2,0-0.1-0.1-0.1-0.1c0.1-0.1,0.3-0.3,0.4-0.4c0.3-0.2,0.6-0.4,0.9-0.6C8.4,56.7,9,56.9,9.4,57
		c0.3,0.1,0.6,0.3,0.8,0.6C10.2,57.7,10.1,57.8,10.1,57.8"/>
	<path class="st1" d="M8.7,62.5c0.1,0.4,0.1,0.9-0.2,1.3C8.4,64,8.2,64.1,8,64.1c-0.5,0.1-0.4,0.1-0.9,0.2l-0.8,0.1
		c-0.5,0-0.9,0-1.5,0c-0.3,0-0.5,0-0.8-0.1c-0.1-0.1-0.2-0.1-0.2-0.3c0-0.2,0.3-0.1,0.6-0.1c0.5,0.1,1,0.1,1.5,0.1
		c0.5-0.1,0.7,0,1.3-0.1c0.2,0,0.3-0.1,0.5-0.1c0.5-0.2,0.4-0.2,0.5-0.6c0.1-0.5,0-0.5-0.4-0.6c-0.4-0.1-0.9,0-1.2-0.4
		c-0.3-0.4,0-0.7-0.4-0.9c-0.4,0.1-0.8,0.1-1.2,0.1c-0.2,0-0.4,0-0.6,0c-0.2,0-0.4,0-0.5,0c-0.1,0-0.2,0-0.3,0S3.2,61.1,3.4,61
		c0.1-0.1,0.3,0,0.5,0c0.4,0,0.8,0,1.2,0c0.2,0,0.3,0,0.5,0c0.4,0,0.8,0,1.2,0s0.6,0,0.9,0c0.2,0,0.4,0,0.6,0c0.3,0,0.5,0,0.8,0
		c0.4,0,0.5-0.1,0.8,0c0.1,0,0.2,0.2,0.2,0.2c0.1,0-0.1,0.1-0.2,0.2c-0.3,0.1-0.5,0-0.9,0c-0.4,0-0.5,0-0.9,0
		c-0.2,0-0.5-0.1-0.8-0.1c-0.2,0-0.4,0-0.5,0.1c0,0.2,0,0.5,0.2,0.6C7.3,62,7.7,62.1,8,62.1C8.2,62.2,8.6,62.2,8.7,62.5"/>
	<path class="st1" d="M6.3,53.4c0,0.4,0.1,1.2-0.4,1.5c-0.4,0.1-0.8-0.1-1.1,0.3c-0.3,0.4,0,0.6,0,0.9C5,56.5,5.4,56.7,5.6,57
		c0.1,0.1,0.2,0.3,0.3,0.4c-0.1,0.1-0.2,0.1-0.2,0.1l-0.1-0.1l-0.1-0.2c-0.1-0.1-0.3-0.3-0.4-0.3c-0.6,0-0.9,0.5-1.4,0.8l-0.5,0.3
		l-0.3,0.2c-0.2,0.2-0.4,0.3-0.6,0.3v-0.1c0-0.1,0.3-0.2,0.4-0.3c0.3-0.4,0.7-0.7,1.1-1c0.3-0.3,0.8-0.5,0.9-0.9
		c0-0.1-0.1-0.3-0.2-0.3c0-0.3,0.1-0.5-0.2-0.7c-0.3,0-0.6-0.1-0.8-0.3c-0.4-0.5-0.5-1.2-0.3-1.8h0.1c0.3,0.1,0.2,0.4,0.2,0.6
		c0,0.3,0.1,0.6,0.3,0.9c0.1,0.1,0.2,0.2,0.4,0.3c0.1,0,0.2-0.1,0.3-0.2c0.2-0.4-0.1-0.8,0.1-1.3c0-0.1,0-0.3,0.1-0.4l0.3,0.1
		c0,0.3-0.1,0.5-0.1,0.8c0,0.3,0,0.6,0.2,0.7c0.1,0.1,0.3,0.1,0.4,0c0.3,0,0.5-0.3,0.6-0.6c0-0.4,0.1-0.7,0.1-0.9L6.1,53
		C6.2,53.1,6.3,53.2,6.3,53.4"/>
	<path class="st1" d="M5.6,59c-0.2,0-0.2-0.2-0.3-0.3c-0.1-0.1-0.4-0.5-0.7-0.4c-0.1,0.1-0.3,0.2-0.4,0.3c-0.5,0.5-0.9,0.8-1.4,1.2
		c-0.1,0-0.2,0-0.2-0.1c0.2-0.2,0.3-0.3,0.5-0.5c0.1-0.1,0.2-0.3,0.4-0.4c0.1-0.1,0.2-0.2,0.3-0.3c0.3-0.3,0.5-0.4,0.7-0.6
		c0.1-0.1,0.3-0.2,0.4-0.1c0.1,0.1,0.4,0.4,0.6,0.6C5.8,58.8,5.9,58.9,5.6,59"/>
	<path class="st2" d="M139.9,45.1l-0.3,0.2c-3.1-1.7-6.6-2.6-10.1-2.6c-7.5,0-13.4,5.3-13.4,13.2c0,8.4,6.9,13,13.9,13
		c4.6,0,9.1-1.6,11.5-3.9l0.3,0.2l-1.4,6.8c-2.5,1.5-7.1,2.3-10.6,2.3c-11.7,0-21.4-7-21.4-18.5c0-10.5,8-18.8,21.2-18.8
		c4,0,8,0.8,11.7,2.4L139.9,45.1z M180,73.5c-0.2-2-0.2-4.1-0.2-6V43.9c0-1.8,0.1-4.1,0.2-6h-7.7c0.2,1.9,0.2,4.2,0.2,6v8.7h-18.4
		v-8.6c0-1.8,0.1-4.1,0.3-6h-7.7c0.1,1.9,0.2,4.2,0.2,6v23.7c0,1.9-0.1,4-0.2,6h7.7c-0.2-2-0.3-4.1-0.3-6V58h18.4v9.5
		c0,1.9-0.1,4-0.2,6H180z M196.6,73.5c-0.1-2-0.2-4.1-0.2-6V43.9c0-1.8,0.1-4.1,0.2-6h-7.7c0.2,1.9,0.3,4.2,0.3,6v23.7
		c0,1.9-0.1,4-0.3,6H196.6z M238.3,37.9c-0.1,1.8-0.2,4.3-0.2,6.1v29.9h-1.1l-25-25.5v19.1c0,1.9,0.1,4,0.2,6h-6.6
		c0.1-2,0.2-4.1,0.2-6V42.2l-3.8-3.8v-0.5h9.1L232,59.2V43.9c0-1.9-0.1-4-0.2-6H238.3z M283.1,73.5c-1.5-2.3-2.9-4.7-4-6.8
		l-16.8-30.7h-1.7l-19.9,37.4h8c0.6-1.6,1.2-3.2,2-4.8l2.2-4.4h17.1l2.4,4.5c0.8,1.5,1.5,3,1.9,4.6L283.1,73.5z M261.1,47h0.2
		l6.2,12.4h-12.3L261.1,47z M337.2,73.5c-1.5-2.3-2.9-4.7-4-6.8l-16.8-30.7h-1.7l-19.9,37.4h8c0.6-1.6,1.2-3.2,2-4.8l2.2-4.4H324
		l2.4,4.5c0.8,1.5,1.5,3,1.9,4.6L337.2,73.5z M315.2,47h0.2l6.2,12.4h-12.3L315.2,47z M347.5,73.5c-0.2-2-0.2-4.1-0.2-6V43.9
		c0-1.8,0.1-4.1,0.2-6h-7.7c0.1,1.9,0.2,4.2,0.2,6v23.7c0,1.9-0.1,4-0.2,6H347.5z M356.5,73.5c0.2-2,0.2-4.1,0.2-6V43.9
		c0-1.8-0.1-4.1-0.2-6h13.9c7.9,0,13.1,4.1,13.1,9.7s-4.2,8.8-9.1,9.8l9,10.1c1.7,2.1,3.6,4,5.7,5.7v0.4h-9.3L364,55v12.5
		c0,1.9,0.1,4,0.2,6H356.5z M364,54.2h4.2c4.8,0,7.7-1.9,7.7-6.2c0-3.7-2.8-5.5-7.8-5.5H364V54.2z M413.4,73.5l1.5-6.4l-0.4-0.2
		c-2.2,1.1-4.6,1.7-7,1.7h-8.6V43.9c0-1.8,0.1-4.1,0.3-6h-7.7c0.1,1.9,0.2,4.2,0.2,6v23.7c0,1.9-0.1,4-0.2,6L413.4,73.5z
		 M426.6,73.5c-0.2-2-0.2-4.1-0.2-6V43.9c0-1.8,0.1-4.1,0.2-6h-7.7c0.1,1.9,0.2,4.2,0.2,6v23.7c0,1.9-0.1,4-0.2,6H426.6z
		 M468.3,37.9c-0.2,1.8-0.2,4.3-0.2,6.1v29.9h-1.1L442,48.4v19.1c0,1.9,0.1,4,0.2,6h-6.6c0.2-2,0.2-4.1,0.2-6V42.2l-3.7-3.8v-0.5
		h9.1L462,59.2V43.9c0-1.9-0.1-4-0.2-6H468.3z M500.7,73.5l1.5-6.4l-0.4-0.2c-2.2,1.2-4.6,1.7-7.1,1.7h-11.6V57.1h9.3
		c2.1,0,4.2,0.2,6.3,0.7l1.3-5.4h-16.8v-9.7h10c2.4,0,4.8,0.3,7.1,0.9l1.4-5.7h-25.9c0.2,1.9,0.2,4.2,0.2,6v23.7c0,1.9-0.1,4-0.2,6
		L500.7,73.5z M530.5,45.8c-2.9-2.3-6.6-3.6-10.3-3.6c-4.9,0-7.5,1.6-7.5,4c0,2.7,3.5,4.1,9.8,6.8c9.1,3.9,11.3,6.2,11.3,11
		c0,6.1-6,10.3-14.9,10.3c-4.7-0.1-9.4-1.4-13.4-3.9l1.3-6.5h0.4c2.4,3.1,7.4,5.1,11.7,5.1c4.6,0,7.9-1.7,7.9-4.5
		c0-2.8-2.6-3.8-9.7-6.7c-8.3-3.4-11.5-6.1-11.5-11.4s4.7-9.4,14.7-9.4c4.2,0.1,8.3,1.1,12,2.9l-1.3,5.8L530.5,45.8z"/>
	<path class="st3" d="M61.9,0c0.8,0,1.6,0.3,2.2,0.8c1.1,0.7,2.3,1.2,3.6,1.2c0.9,0,1.7,0.1,2.5,0.5c2.8,1.3,4.4,6.1,4.9,8.7
		c0.1,0.9,0.1,1.8,0,2.8c-0.1,0.8-0.1,1.7,0,2.5c0.3,1.4,0.8,1.4,1.2,1.4l0,0c0.4,0,0.8-0.1,1.2-0.2c0.3-0.1,0.7-0.2,1.1-0.2
		c0.7-0.1,1.5-0.2,2.2-0.2c1,0,2.1,0.1,3.1,0.4c1,0.2,2.1,0.4,3.1,0.5c0.8,0.1,1.6,0.2,2.4,0.3c1.8,0.3,3.6,0.7,5.4,1.4
		c0.9,0.4,1.7,1,2.3,1.6c0.6,0.6,1.2,1,1.9,1.4c4,2.2,5.2,4.7,4,8.8c-0.1,0.4-0.2,0.8-0.4,1.3c-0.4,1.4-0.8,2.8-1.3,4.1
		c-0.5,1.3-1.3,2.4-2.5,3.2c-0.3,0.2-0.6,0.5-1,0.8c-0.9,1-1.8,2-2.4,3.2c-0.9,1.8-2.3,3.3-4,4.5c-1.3,0.7-2.8,1.1-4.2,1h-0.3
		c-0.7,0.3,0.1,1.8,0.5,2.6c0.3,0.5,0.6,1.1,0.8,1.7c0.1,0.5,0.2,1,0.2,1.5c0,0.4,0,0.8,0.1,1.2c0.1,0.2,0.3,0.4,0.5,0.5
		c0.5,0.3,0.8,0.8,1,1.4c0.4,2,0.4,4.1-0.1,6.1c-0.2,0.4-0.5,0.8-0.8,1.1c-0.3,0.3-0.5,0.6-0.7,0.9c-0.1,0.3-0.2,0.7-0.3,1
		c-0.1,0.6-0.3,1.3-0.6,1.8c-1.6,2.3-5,3.5-7.8,4.5c-0.7,0.2-1.3,0.5-1.9,0.7c-0.6,0.3-1.3,0.4-1.9,0.5c-0.8,0-1.5-0.2-2.2-0.6
		c-0.3-0.2-0.7-0.3-1.2-0.5c-1.1-0.4-2.3-0.6-3.5-0.6c-0.6,0-1.2-0.1-1.9-0.2c-1.1-0.2-2.1-0.6-2.9-1.3l-0.3-0.2h-0.1
		c-0.9,0.1-1.9-0.2-2.6-0.8c-1.5,2.1-3.6,3.7-6.1,4.5c-1.7,0.9-3.6,1.5-5.6,1.8c-0.5,0.2-0.9,0.3-1.2,0.4c-1.6,0.5-3.2,0.7-4.9,0.7
		c-0.6,0-1.3,0-1.9-0.1c-1.9,0.1-3.8-0.5-5.4-1.5c-1.5-0.7-2.8-1.7-3.9-2.8c-1.7-1-3.1-2.4-4.1-4.1c-0.8-1.3-0.8-2.9,0.1-4.2
		c0.2-0.3,0.4-0.7,0.5-1.1l0.2-0.3c0.7-1.3,1.2-2.8,1.6-4.2c-1.3-0.4-2.4-1.6-3.5-3.6c-0.4-0.9-0.9-1.7-1.5-2.5
		c-0.2-0.3-0.5-0.6-0.9-1c-0.4-0.4-0.6-0.5-0.7-0.6c-1.2-1.1-2.5-1.9-4-2.5c-1.3-0.6-2.5-1.3-3.6-2.2c-0.8-0.7-1.4-1.5-1.9-2.5
		c-1.7-2.6-3.3-5.3-3.8-8c-0.4-2,0-4.1,1.1-5.8c0.3-0.6,0.5-1.1,0.9-1.6c0.2-0.3,0.3-0.6,0.4-0.8c0.2-0.4,0.3-0.7,0.4-1.1
		c0.3-0.8,0.7-1.6,1.3-2.2c0.9-1,1.9-1.7,3.1-2.3c1.2-0.6,2.5-1,3.9-1.2c0.4-0.1,0.8-0.1,1.2-0.1c0.3,0.1,0.5,0.1,0.8,0.1h0.2
		c0.3,0,0.6-0.1,0.8-0.3c0.4-0.2,0.9-0.3,1.3-0.2h0.1c1.2,0.1,5.6,2.3,6.9,2.4c0.2,0,0.3,0,0.5,0c0.1,0,0.2-0.1,0.3-0.2
		c0.6-0.5,1-1.2,1.3-1.9c0-0.1,0.1-0.1,0.1-0.2l0,0c0.1-0.2,0.1-0.3,0.2-0.4l0,0c0-0.2,0.1-0.3,0.1-0.5c0.2-0.9,0.4-1.8,0.6-2.6
		c0.1-0.2,0.1-0.5,0.1-0.7V17l0.1-0.3v-0.2c0-0.1,0-0.1,0-0.2l0,0c0-0.1,0-0.1,0-0.2V16c0-0.1,0-0.1,0-0.2l0,0c0-0.1,0-0.1,0-0.2
		v-0.1c0-0.1,0-0.1,0.1-0.2l0,0c0-0.1,0-0.1,0.1-0.2V15c0-0.1,0.1-0.2,0.1-0.2l0,0c0-0.1,0.1-0.1,0.1-0.2v-0.1
		c0-0.1,0.1-0.1,0.1-0.2l0,0c0-0.1,0.1-0.1,0.1-0.2l0,0c0-0.1,0.1-0.1,0.1-0.2c0.6-1,1.1-2.2,1.5-3.3C39.3,8.3,40,6,42,4.7
		C42.8,4.3,43.8,4,44.7,4c0.7,0,1.5-0.2,2.2-0.5c0.5-0.3,1.1-0.7,1.5-1.1c0.7-0.7,1.5-1.2,2.5-1.5c0.1,0,0.2-0.1,0.3-0.1h0.1
		l0.3-0.1l0,0l0.3-0.1h0.1l0.3-0.1h0.1h0.2h0.1h0.3H53h0.2h0.9c0.3,0,0.7,0,1.1,0l0,0h0.4h0.1h0.4c0.3,0,0.6,0,0.9,0
		c0.9,0,1.7-0.1,2.6-0.3C60.3,0.2,61.1,0,61.9,0"/>
	<g>
		<defs>
			<path id="SVGID_1_" d="M60.6,0.6C59.1,1,57.6,1.2,56,1.1c-1.7-0.3-3.4-0.2-5,0.3c-1.5,0.5-2.4,1.9-3.9,2.6s-3.4,0.2-4.9,1.2
				c-2.8,1.7-2.8,6.1-4.1,8.9c-1.5,3-0.9,7.7-3.7,10c-0.1,0.1-0.3,0.2-0.4,0.2c-0.2,0-0.4,0-0.5,0c-1.3,0-5.2-2.3-7-2.4
				c-0.9,0-1.3,0.4-2.2,0.5c-0.4,0-0.7,0-1.1,0c-0.4,0-0.7,0-1.1,0c-1.3,0.2-2.5,0.6-3.7,1.2c-1.1,0.5-2.1,1.2-3,2.2
				c-1.2,1.2-1,1.7-1.7,3.1c-1.4,3.1-2.9,4.4-2.3,8c0.5,3.1,2.7,6.2,4.4,8.9c2,3.1,6.1,3.4,8.8,6.1c1,1,2.2,2.2,3,3.2
				c0.9,1,3.4,3.6,3.6,4.5c0.2,0.9-1.4,4.2-1.8,5.1c-0.8,1.9-1.8,2.4-0.7,4.8c1.4,2.8,5.3,4.5,7.5,6.5c3,2.6,7.5,1.7,11.2,1.1
				s7.3-1.2,10.3-4.3c1.6-1.6,2.2-3.2,4.8-2.3c1.9,0.7,2.7,2,4.8,2.3c2.1,0.3,3.7,0.2,5.5,0.9c2.1,0.8,2.5,1.6,4.8,0.7
				c2.7-1.1,7.5-2.3,9.4-5c0.6-0.8,0.5-1.9,0.9-2.7c0.3-0.6,1.3-1.5,1.5-1.9c0.5-1.9,0.5-3.8,0.1-5.7c-0.3-0.9-1.2-1.2-1.5-1.9
				c-0.3-0.8,0-1.9-0.3-2.8c-0.8-2.2-2.7-4.1-1.3-5c0.2-0.1,3.1,0,4.7-1c3-1.8,3.9-5.4,6.3-7.6c1.5-1.3,2.6-1.8,3.3-3.9
				c0.6-1.7,1.1-3.5,1.6-5.4c1.2-4.1-0.3-6.3-3.8-8.2c-1.6-0.9-2.6-2.4-4.2-3.1c-1.7-0.6-3.4-1.1-5.2-1.3c-2-0.3-3.8-0.3-5.6-0.8
				c-1.7-0.4-3.5-0.5-5.2-0.2c-1.9,0.3-3.4,1.2-4-1.4c-0.4-1.6,0.3-3.6,0-5.3c-0.5-2.5-2-7-4.6-8.2c-1.5-0.7-3.2-0.2-4.9-1.1
				c-1-0.8-2.3-1.2-3.6-1.2L60.6,0.6"/>
		</defs>
		<clipPath id="SVGID_00000126310613261032954460000014509766269368033980_">
			<use xlink:href="#SVGID_1_"  style="overflow:visible;"/>
		</clipPath>
		<g style="clip-path:url(#SVGID_00000126310613261032954460000014509766269368033980_);">
			
				<radialGradient id="SVGID_00000106104964952257084110000007110577149799962293_" cx="63.6381" cy="-188.7297" r="2.7085" gradientTransform="matrix(15.63 0 0 -15.63 -937.27 -2912.2402)" gradientUnits="userSpaceOnUse">
				<stop  offset="0" style="stop-color:#FFFFFF"/>
				<stop  offset="7.000000e-02" style="stop-color:#FFFFFF"/>
				<stop  offset="0.38" style="stop-color:#F2D4DA"/>
				<stop  offset="0.42" style="stop-color:#EFCBD1"/>
				<stop  offset="0.69" style="stop-color:#DB8D98"/>
				<stop  offset="0.9" style="stop-color:#CF6675"/>
				<stop  offset="1" style="stop-color:#CA5767"/>
			</radialGradient>
			
				<rect x="10.9" y="0.6" style="fill:url(#SVGID_00000106104964952257084110000007110577149799962293_);" width="92.9" height="77.8"/>
		</g>
	</g>
	<g>
		<defs>
			<path id="SVGID_00000035529115280572470930000002027798038147448965_" d="M61.4,0.5c-0.2,0-0.5,0-0.8,0.1c-1.5,0.4-3,0.6-4.6,0.5
				c-0.3,0-1.4-0.1-1.8-0.1c-1.1,0-2.2,0.1-3.2,0.4c-1.6,0.5-2.5,1.8-3.9,2.6s-3.4,0.2-4.9,1.2c-2.8,1.7-2.8,6.1-4.1,8.9
				C37,16.2,37,19.4,36,21.9c0.1,0.9,0.2,1.7,0.5,2.6c0.4,1.4,3.1,1.3,2.6,3.9l0.1,0.4c2.2,7,14.7,5.3,18.3,2.5
				c1.8-1.4,5.3-2.5,6.7-4.3c1.2-1.6,5.2-2.8,6.2-4.5c1.6-2.6,3.6-6.1,3.4-8.5c-0.2-5.4-3.5-10.2-8.5-12.3C63.6,1,63,0.5,61.6,0.5
				L61.4,0.5"/>
		</defs>
		<clipPath id="SVGID_00000147937904780459038760000013236315591231060413_">
			<use xlink:href="#SVGID_00000035529115280572470930000002027798038147448965_"  style="overflow:visible;"/>
		</clipPath>
		<g style="clip-path:url(#SVGID_00000147937904780459038760000013236315591231060413_);">
			
				<radialGradient id="SVGID_00000044163886040555040600000018194430736281743804_" cx="61.6453" cy="-185.2327" r="2.7092" gradientTransform="matrix(12.01 0 0 -12.01 -686.98 -2217.4399)" gradientUnits="userSpaceOnUse">
				<stop  offset="0" style="stop-color:#CA5767"/>
				<stop  offset="0.21" style="stop-color:#CA5767"/>
				<stop  offset="0.31" style="stop-color:#CC5D6C"/>
				<stop  offset="0.43" style="stop-color:#D16C7B"/>
				<stop  offset="0.58" style="stop-color:#D98793"/>
				<stop  offset="0.73" style="stop-color:#E5ABB4"/>
				<stop  offset="0.87" style="stop-color:#F2D4DA"/>
				<stop  offset="1" style="stop-color:#F2D4DA"/>
			</radialGradient>
			
				<rect x="36" y="0.5" style="fill:url(#SVGID_00000044163886040555040600000018194430736281743804_);" width="37.9" height="35.3"/>
		</g>
	</g>
	<g>
		<defs>
			<path id="SVGID_00000061441347386518584390000004132340246073585582_" d="M62.7,1.4l-0.8,0.1C60.3,2,58.7,2.1,57.1,2
				c-0.3,0-1.5-0.1-1.8-0.1c-1.1-0.1-2.3,0.1-3.4,0.4c-1.7,0.5-2.6,1.9-4,2.6s-3.5,0.2-5.1,1.2c-1.6,1-3.5,4.4-4,8.7
				c-0.2,1.4,0.8,2.8,0.6,4.4c-0.8,7,1.2,5.4,2.6,8.3c2.8,5.3,2.5,6.9,1.1,6.6c1.6,1.9,3,4.3,1.8,5.8c4.8,1.1,10.9-0.3,13.2-2.1
				c1.9-1.5,4.5-2.9,6-4.7c1.3-1.6,3.6-6.7,4.7-8.5c1.6-2.7,3.4-3.2,4.7-8.2c2.2-8.3-2.1-11.8-6.5-13.7c-1.3-0.7-2.7-1.1-4.1-1.4
				L62.7,1.4"/>
		</defs>
		<clipPath id="SVGID_00000178177423745817606620000005948836586218993793_">
			<use xlink:href="#SVGID_00000061441347386518584390000004132340246073585582_"  style="overflow:visible;"/>
		</clipPath>
		<g style="clip-path:url(#SVGID_00000178177423745817606620000005948836586218993793_);">
			
				<radialGradient id="SVGID_00000013883846541612022940000013448766499286571705_" cx="62.6507" cy="-186.076" r="2.7092" gradientTransform="matrix(13.38 0 0 -12.74 -780.83 -2356.8198)" gradientUnits="userSpaceOnUse">
				<stop  offset="0" style="stop-color:#CA5767"/>
				<stop  offset="0.11" style="stop-color:#CB5B6B"/>
				<stop  offset="0.22" style="stop-color:#D06877"/>
				<stop  offset="0.34" style="stop-color:#D77E8B"/>
				<stop  offset="0.47" style="stop-color:#E09CA7"/>
				<stop  offset="0.59" style="stop-color:#EDC3CA"/>
				<stop  offset="0.64" style="stop-color:#F2D4DA"/>
				<stop  offset="0.75" style="stop-color:#F4DBE0"/>
				<stop  offset="0.91" style="stop-color:#FAF0F2"/>
				<stop  offset="1" style="stop-color:#FFFFFF"/>
			</radialGradient>
			
				<rect x="38.5" y="1.4" style="fill:url(#SVGID_00000013883846541612022940000013448766499286571705_);" width="37.1" height="39.6"/>
		</g>
	</g>
	<g>
		<defs>
			<path id="SVGID_00000121966130839961144250000008771831751280453261_" d="M55.5,45.6c-2.9,0.8-8.3,0.1-10.9,1.8
				c-2.4,1.5-4.3,3.7-5.5,6.2c-2.7,2.9-5.6,5.5-7.2,7.8c-1.8,2.6-2.1,5.9-1,8.9c3.2,6.5,11.4,8.5,17.6,6.5c6-1.4,13.4-3.1,14.3-11.1
				c0.4-4,1.5-8.1,0.2-11.7c-1-2.7-1.2-8.7-5.9-8.7C56.6,45.4,56.1,45.4,55.5,45.6"/>
		</defs>
		<clipPath id="SVGID_00000053506522012268373590000007216914031713011341_">
			<use xlink:href="#SVGID_00000121966130839961144250000008771831751280453261_"  style="overflow:visible;"/>
		</clipPath>
		<g style="clip-path:url(#SVGID_00000053506522012268373590000007216914031713011341_);">
			
				<radialGradient id="SVGID_00000071518188811407480870000004817954445506367642_" cx="57.8824" cy="-184.9906" r="2.7092" gradientTransform="matrix(8.69 0 0 -8.69 -459.3 -1558.2001)" gradientUnits="userSpaceOnUse">
				<stop  offset="0" style="stop-color:#FFFFFF"/>
				<stop  offset="0.41" style="stop-color:#F2D4DA"/>
				<stop  offset="0.45" style="stop-color:#EFCBD1"/>
				<stop  offset="0.71" style="stop-color:#DB8D98"/>
				<stop  offset="0.9" style="stop-color:#CF6675"/>
				<stop  offset="1" style="stop-color:#CA5767"/>
			</radialGradient>
			
				<rect x="29.8" y="45.4" style="fill:url(#SVGID_00000071518188811407480870000004817954445506367642_);" width="34.5" height="33.5"/>
		</g>
	</g>
	<g>
		<defs>
			<path id="SVGID_00000013893831243486864730000006832734890301556880_" d="M11.5,35.7c-0.1,2.9,2.3,6.1,3.6,8.5
				c1.8,3.6,3.5,3.8,6.8,5.5c2.6,1.3,4.8,3.5,6.1,6.1c4,7.7,8.4,0.5,11.8-2.3c2.8-2.6,4-6.4,3.4-10.1c-0.7-2.7-2.1-5-4.2-6.9
				l1.2,0.8c-1.5-1.5-0.4-3.3-1-5.1c-0.6-1.6-1.5-3.5-2.3-5.2c-1.2-2.6-2.7-1.9-3.9-1.3c-0.5,0.4-1.2,0.6-1.9,0.5
				c-1.9-0.4-3.7-1-5.6-1.6c-1-0.4-2.1-0.6-3.2-0.6C16.7,24.2,11.7,29.6,11.5,35.7"/>
		</defs>
		<clipPath id="SVGID_00000065044460071231761970000008925049483590073255_">
			<use xlink:href="#SVGID_00000013893831243486864730000006832734890301556880_"  style="overflow:visible;"/>
		</clipPath>
		<g style="clip-path:url(#SVGID_00000065044460071231761970000008925049483590073255_);">
			
				<radialGradient id="SVGID_00000111186277573370674220000011854687851198611851_" cx="60.3952" cy="-186.6499" r="2.7092" gradientTransform="matrix(11.06 0 0 -11.06 -624.5301 -2018.4698)" gradientUnits="userSpaceOnUse">
				<stop  offset="0" style="stop-color:#FFFFFF"/>
				<stop  offset="7.000000e-02" style="stop-color:#FFFFFF"/>
				<stop  offset="0.43" style="stop-color:#F2D4DA"/>
				<stop  offset="0.46" style="stop-color:#EFCBD1"/>
				<stop  offset="0.72" style="stop-color:#DB8D98"/>
				<stop  offset="0.9" style="stop-color:#CF6675"/>
				<stop  offset="1" style="stop-color:#CA5767"/>
			</radialGradient>
			
				<rect x="11.5" y="24.3" style="fill:url(#SVGID_00000111186277573370674220000011854687851198611851_);" width="32.5" height="39.4"/>
		</g>
	</g>
	<g>
		<defs>
			<path id="SVGID_00000091710362730154854520000000011008166273372558_" d="M76.9,18.9c-1.7,0.5-3.2,1.3-4.6,2.3
				c-1.3,1.1-2.2,3.7-3.5,4.5c-3.1,1.4-3.2,2.2-4.8,4.8c-1.4,2.2-3.1,5.3-4.5,7.7c0,0.9,0.1,1.8,0.2,2.7c0.3,1.5,2,3.9,1.9,5.2
				l0.1-0.5c1.4,7.6,16.9,9.9,14.1,6.2c-7.4-9.6,4.1-14.3,5.6-12.5c9,11.2,12.7,4.6,13.5,3.5c1.8-2.2,3.1-4.8,3.8-7.5
				c2.9-15.9-6.1-13.7-11.1-15.9c-0.3,0-0.5,0-0.8,0c-1.6,0.2-3.2,0.2-4.8-0.1L81.2,19c-0.3,0-0.6-0.1-0.9-0.2
				c-0.6-0.1-1.2-0.1-1.8-0.1C78,18.8,77.5,18.8,76.9,18.9"/>
		</defs>
		<clipPath id="SVGID_00000026155282177620054500000015085178490537487003_">
			<use xlink:href="#SVGID_00000091710362730154854520000000011008166273372558_"  style="overflow:visible;"/>
		</clipPath>
		<g style="clip-path:url(#SVGID_00000026155282177620054500000015085178490537487003_);">
			
				<radialGradient id="SVGID_00000094595050390782581480000000398546801224168124_" cx="67.0331" cy="-189.8496" r="2.7092" gradientTransform="matrix(22.19 0 0 -22.19 -1372.8401 -4194.1299)" gradientUnits="userSpaceOnUse">
				<stop  offset="0" style="stop-color:#CA5767"/>
				<stop  offset="0.31" style="stop-color:#CA5767"/>
				<stop  offset="0.37" style="stop-color:#CD606F"/>
				<stop  offset="0.48" style="stop-color:#D57886"/>
				<stop  offset="0.61" style="stop-color:#E1A0AA"/>
				<stop  offset="0.76" style="stop-color:#F2D4DA"/>
				<stop  offset="1" style="stop-color:#F2D4DA"/>
			</radialGradient>
			
				<rect x="59.5" y="18.8" style="fill:url(#SVGID_00000094595050390782581480000000398546801224168124_);" width="42.1" height="36.8"/>
		</g>
	</g>
	<g>
		<defs>
			<path id="SVGID_00000007406853256382561820000008913346443572863153_" d="M75.4,50.6C75.4,50.6,75.4,50.6,75.4,50.6L75.4,50.6
				C75.4,50.6,75.4,50.6,75.4,50.6 M72.2,21.2c-0.4,0.4-0.8,0.9-1.2,1.4c-0.5,1-1.2,1.9-2.2,2.4c-0.8,0.3-1.5,0.8-2.2,1.4
				c-0.6,0.7-1.1,1.4-1.6,2.2c-1,1.5-3,1.8-4.8,1.8c-0.4,0-0.8,0-1.2,0c-2.5,1.6-5,2.5-7.4,1.9c-1.4-0.4-3.2-2.9-4.6-2.7
				s0.8,0.9-0.3,2.2c-1.1,1.2-2.7,0.2-3.7-0.8c-0.7-0.7-1.2-1.5-1.3-1.4c-0.3,0.1,0.1,0.8,0,1.2c-0.1,0.8-0.8,1.2-0.8,2
				c-0.1,0.5,0,1.1,0.1,1.6c0.2,0.6,0.3,1.2,0.3,1.9c0,1.4,0,0.9-0.1,2.3c-0.1,2.7-1.2,3.8-1.9,6.5c-0.7,2.9,2.3,4.4-1.3,9.8
				c-1.2,1.8-6.6,4.3-6.2,6.5c1.5-0.3,2.4-2,3.4-3.1c2.6-2.6,9.7-5.4,13.8-5.5c4.3-0.2,0.2,4.6,1.4,5.5c1.2,0.9-1.2,3.4,0.2,2.8
				c1.3-0.6,3.2-6.9,4-8.5c0.5-1,7.3-16.8,7.5,7.1c0,2.3,1.4,3.4,0.7,5.6c-0.3,1.1-4.3,6.8,2.3,6.1c0.9-5-2.9-8.5-0.9-11
				c1-1.3,4.7-1.5,4.6-3.2c-0.2-3.7,1.6-3.6,3.1-3.5c1,0,1.9,0.1,2.3-0.7c0.3-0.7,0.7-1.3,1.1-1.9c-0.1,0-0.2-0.1-0.2-0.6
				c-0.2-1.6,1.3-1.7,0.6-3.2c1.6,0.4,2-1.2,3.3-1.5c1.2-0.2,2.4-0.2,3.6,0c2.2,0.4,3.2,3.9,3.7,3.7c0.5-0.8-0.7-2.6-1.8-3.7
				c-1-1.1-2-2.3-2.8-3.6c-1.1-1.4-0.4-3.4-2-4.2c-0.4-0.2-0.9-0.2-1.4-0.1c-1.1,0.2-2.3,0-3.2-0.7c-8.6,6.1-1.3-3.1-1.8-5.4
				c-1.1-3-3.4-3.8-0.9-10.2 M72.3,21.1C72.3,21.1,72.3,21.1,72.3,21.1"/>
		</defs>
		<clipPath id="SVGID_00000119078438739504128520000017717216413857647759_">
			<use xlink:href="#SVGID_00000007406853256382561820000008913346443572863153_"  style="overflow:visible;"/>
		</clipPath>
		<g style="clip-path:url(#SVGID_00000119078438739504128520000017717216413857647759_);">
			
				<radialGradient id="SVGID_00000081612346822499304100000008772165158967383198_" cx="61.6494" cy="-187.062" r="2.7092" gradientTransform="matrix(11.56 0 0 -11.56 -653.5701 -2115.0098)" gradientUnits="userSpaceOnUse">
				<stop  offset="0" style="stop-color:#FFFFFF"/>
				<stop  offset="9.000000e-02" style="stop-color:#FFFFFF"/>
				<stop  offset="0.37" style="stop-color:#F2D4DA"/>
				<stop  offset="0.4" style="stop-color:#EEC8CF"/>
				<stop  offset="0.5" style="stop-color:#E1A0AA"/>
				<stop  offset="0.59" style="stop-color:#D7808D"/>
				<stop  offset="0.69" style="stop-color:#D06978"/>
				<stop  offset="0.78" style="stop-color:#CB5C6B"/>
				<stop  offset="0.85" style="stop-color:#CA5767"/>
				<stop  offset="1" style="stop-color:#CA5767"/>
			</radialGradient>
			
				<rect x="31.5" y="21.2" style="fill:url(#SVGID_00000081612346822499304100000008772165158967383198_);" width="55.3" height="50.5"/>
		</g>
	</g>
	<path class="st18" d="M45.2,51.8c-0.9-0.6,0-2.9,1.1-4.1c1.1-1.1,2.7-3,2.3-3.2c-0.4-0.2-2.3,0.2-2.8,0s3.2-1.7,3.6-1.9
		c0.4-0.2-2.7-1.1-3.8-1.2s-3.5,0.2-3.2-0.3c0.2-0.5,1.6-1.1,1.8-1.4s-1.8-1.4-1.9-1.8s0.4-1,2.6-0.5c1.6,0.3,3.2,0.4,4.8,0.5
		c0.6,0.1,1.2,0.3,1.8,0.6c0.4,0.2,0.6-0.6,0.9-0.4c0.3,0.1,1,0.5,1.1,0.1c0-0.7-0.4-1.3-0.9-1.8c-0.7-0.5-1.3-1.2-1.8-1.9
		c-0.1-0.4-0.6-1.3,0-1.5c0.6-0.2,1,0,1.3-0.2c0.3-0.2,0.8-0.9,1.6-0.6c0.5,0.2,0.9,0.5,1.4,0.8c0.3,0.2,0.7,0.3,1.1,0.2
		c0.4-0.1,0.9-0.8,1.6-0.4c0.7,0.4,1.9,1.4,3,1.2c0.9-0.1,1.6-0.6,2-1.4c0.5-1.1,1-2.1,1.6-3.1c0.4-0.4,1.3-1.1,1.2-0.8
		c-0.6,1.1-0.9,2.3-1.1,3.5c0,1.1-0.2,1.4,0.2,1.6c0.4,0.2,0.8,0.2,1.2,0c0.4-0.2,1-0.6,1.1-0.4s-2.2,1.8-2.8,2.4
		c-0.7,0.7-1.3,2-1,2.5c0.3,0.5,1.6,0.3,2.2,0.3c0.6,0,2,0.1,1.8,0.4c-0.2,0.3-2.5,1.9-2.5,2.2s1.4,0.8,2.2,0.8
		c1.1,0.1,2.3,0.3,3.4,0.5c0.7,0.2,1.3,0.2,1.5,0.6c0.2,0.4,0.4,0.8,0.1,0.8c-0.8,0-1.6-0.2-2.4-0.4c-1.3-0.4-2.6-0.7-3.9-0.8
		c-0.6,0-2.4,0-2.8,0.6c-0.3,0.6,1.1,1.1,1.3,1.3c0.2,0.2,1.4,1.4,0.7,1.5c-0.7,0.1-1.2-0.4-1.5-0.5c-0.6-0.3-1.1-0.6-1.6-1
		c-0.3-0.2-1.4-1.4-2-1.4c-0.8,0.1-1.6,0.3-2.3,0.7c-0.6,0.5-1.2,1-1.7,1.6c-0.4,0.5-1.9,1.4-2.6,2c-0.6,0.5-4.2,3.3-4.8,3.8
		C47.5,51.7,45.9,52.3,45.2,51.8"/>
	<path class="st19" d="M55.4,30.7c-0.2-0.6-0.2-1.3,0.1-1.9c0.2-0.5,1.7-3.3,3.2-2.8c0.6,0.1,1.1,0.6,1.2,1.2
		c0.3,1.1,0.4,2.8-0.5,3.7c-1.1,1.1-2.9,1-4-0.1C55.4,30.8,55.3,30.8,55.4,30.7"/>
	<path class="st19" d="M48,34.1c0.5-0.2,0.9-0.6,1.1-1.1c0.1-0.6,1.3-0.6,1.4-0.9s-1.2-3.3-1.9-3.6c-0.7-0.3-1.1,0.2-1.8,0.2
		c-0.6,0-1.1-0.3-1.4,0.3c-0.5,0.9-1.5,2.2-0.7,3.2C45.4,33.4,46.5,34.4,48,34.1"/>
	<path class="st19" d="M65.6,36.6c-0.2,0.3-0.6,0.3-0.9,0.1c0,0,0,0,0,0c0.8-0.9,1.8-1.7,2.8-2.4c0.4-0.4,0.1-2.3,0.3-2.9
		s2.2-1.9,3-1.5c0.4,0.1,0.8,0.4,1.1,0.7c0.4,0.8,0.5,1.6,0.5,2.4c-0.1,0.7-0.3,1.4-0.6,2c-0.2,0.7-1.5,0.6-2.1,0.6
		c-0.8,0.1-1.5-0.5-2.2-0.1C66.8,35.9,66.2,36.2,65.6,36.6"/>
	<path class="st19" d="M57.1,39.2c0.2-0.5,0-1.1,0-1.6s0.2-1-0.2-1.2c-0.3,0.9-0.3,1.9,0,2.9C56.8,39.3,57,39.2,57.1,39.2"/>
	<path class="st19" d="M39.8,41.7c0.8-1.2,2-2,3.4-2.2c0-0.2-0.4-0.3-0.5-0.3c-0.9-0.2-1.6-0.7-2.2-1.4c-1.1-1.3-1.8-2.4-3.6-1.9
		s-2,3.8-1.5,5.3c0.5,1.2,1.9,1.9,3.1,1.4C39.1,42.5,39.5,42.2,39.8,41.7"/>
	<path class="st19" d="M77.9,39.3c2-0.8,3.6,0.2,2.6,1.9C80,42,80.2,43,79.6,43.9c-0.6,0.7-1.5,1-2.4,0.8c-0.9-0.3-1.6-0.7-2.3-1.3
		c-0.6-0.6-0.8-1.1-1.8-1.4c-1.6-0.4-3.4,0-5-0.6c1.8-0.9,3.9,0.1,5.8,0C74.7,41.3,75.3,39.8,77.9,39.3"/>
	<path class="st19" d="M68.1,41.3c-0.4-0.2-1-0.2-1.4,0C67.1,41.4,67.6,41.4,68.1,41.3"/>
	<path class="st19" d="M43.7,47.1c-1.8-2.2-5.6,1.9-5.9,2.2c-0.3,0.3-1,0.8-1.1,1.1c-0.2,0.8,1.7,2,2.4,2.3c0.8,0.5,1.5,1.7,2.6,0.8
		c1.1-0.9,1.2-1.6,1.5-2.9c0.2-1.2,0.8-2.2,1.6-3.1c1-0.7,1.9-1.5,2.7-2.4C45.7,45,45,46.5,43.7,47.1"/>
	<path class="st19" d="M70.7,37.7c-0.3-1.4-2.8,0.1-3.4-0.1c0.7,0.2,1.7,0.1,2.6,0.3C70.1,38,70.7,38,70.7,37.7"/>
	<path class="st19" d="M60.1,45.7c0.7,0.4,0.9,1.3,1.6,1.8c0.7,0.4,1.4,0.8,2.1,1.3c0.3,0.2,0.7,1.4,0.1,1.7
		c-0.8,0.4-1.1-1.1-1.5,0.1s-2,1.9-2.3,3.2c-0.2,0.9-0.9,2.2-0.3,3.2c0.2,0.3,0.5,0.4,0.8,0.5c0.5,0,1,0.1,1.5,0.4
		c0.6,0.5,1.5,0.6,2.2,0.3c0.8-0.3,1.5-1,1.7-1.9c-0.2-1-0.4-2-0.4-3c0-1.1,0.5-1.6,0-2.6c-0.3-0.7-0.9-1.3-1.5-1.8
		c-0.5-0.4-0.7-1.2-1.1-1.7c-0.7-0.9-1.4-1.7-2.2-2.4c-0.4-0.5-1-0.7-1.6-0.7c-0.9,0.2-1.7,0.7-2.2,1.4c-0.7,0.7-1.4,1.3-2.2,1.9
		c-0.7,0.7-0.6,1.8-0.9,2.7c-0.4,0.8-0.8,1.6-1,2.5c0.5-0.3,0.8-1.1,1.2-1.5c0.2-0.3,0.5-0.7,0.7-1c0.3-0.3,0.7-0.4,1-0.6
		c0.9-0.8,1-1.9,1.5-2.9C58,45.5,59.2,45.3,60.1,45.7"/>
	<path class="st19" d="M76.7,54.2c-0.1-0.5-0.2-1.1-0.1-1.6c0.1-0.7,0-1.3-0.4-1.9c-0.4-0.7-1.5-2.4-2.6-2c-0.4,0.2-0.7,0.6-1.1,0.3
		c-0.4-0.2-0.7-0.8-1.3-1c-0.6-0.2-1.2-0.3-1.8-0.4c-0.4-0.1-0.8-0.2-1.2-0.3c0.4,0.8,1.8,1.4,2.4,1.9c1.5,1.2,0.8,2.6,0.7,4.2
		c-0.1,0.5-0.1,1.1,0.1,1.6c0.3,0.5,1.5,0.6,1.8,0.7c0.7,0.3,1.5,0.4,2.3,0.3C76.1,55.7,76.6,55,76.7,54.2"/>
	<path class="st19" d="M60.4,68.4c0.4-0.1,1.1,0.4,2,0.7c0.8,0.3,1.7,0.6,2.5,0.6c1,0.2,1.9,0.7,2.5,1.5c0.3,0.9,0.3,1.9,0,2.8
		c-0.8,1-1.1,2.4-0.8,3.7c0.4,1.8,1.2,2.4-0.2,2.3c-1-0.1-2-0.4-3-0.8c-1-0.1-1.9-0.6-2.6-1.3c-0.8-1-1.3-0.8-2.7-1.6
		s-2.2-2.5-1.5-3.2c0.7-0.7,2.7-2.6,3-3C59.8,69.7,60.2,68.5,60.4,68.4"/>
	<path class="st19" d="M86.8,57.9c0-0.4,1-1.1,1.1-1.3c0.1-0.8,0.1-1.7-0.1-2.5c-0.2-0.7-0.3-1.4,0.2-1.7c0.8-0.5,1.8-0.6,2.7-0.4
		c0.8,0.4,1.5,0.7,2.3,1c0.8,0.3,2.8,1.3,3.1,2.1s0.8,1.5,0.3,2.3s-0.5,1.4-0.9,1.7c-0.7,0.5-1.4,1.1-2,1.8c-0.6,0.7-1,2.2-1.6,2.5
		c-0.7,0.4-2,0.7-2.4,0.3c-0.4-0.6-0.5-1.2-0.5-1.9c0.1-0.4,1.1-1.2,0.8-1.8c-0.3-0.7-0.9-0.8-1.6-1C87.4,58.5,86.9,58.3,86.8,57.9"
		/>
	<path class="st19" d="M24.5,63.9c-0.4-0.4-0.7-0.7-0.5-1.1c0.3-0.6,0.6-1.2,0.8-1.9c0.1-0.9,0.1-1.8,0-2.7c0-0.5,0.2-1.1,0.4-1.5
		c0.1-0.4,0-1.2,0.7-1.5c0.7-0.2,1.5-0.2,2.3-0.1c0.7,0.1,2.1,0.5,2.5,1.2c0.4,0.8,0.6,1.6,1.1,1.9c0.5,0.3,1.8,0.9,1.8,1.1
		c0,0.2-0.3,0.5-0.8,1.3c-0.3,1.1-0.5,2.3-0.5,3.4c-0.1,0.4,0,2-0.6,2.4s-1.4,0-2.2-0.4c-0.8-0.3-1.6-0.7-2.3-1.2
		c-0.4-0.4-0.4-0.8-0.7-1C26.3,63.8,24.9,64.3,24.5,63.9"/>
	<path class="st19" d="M53.6,56.1c0.3,0.5,0.4,1.1,0.4,1.7c0,0.6-0.1,1.3-0.4,1.9c-0.5,0.5-1.1,0.8-1.7,1.1c-0.3,0.1-1.3,0.5-1.8,0
		c-0.5-0.3-1-0.8-1.3-1.3c-0.5-1.2-0.3-2.5,0.4-3.5c0.5-0.5,1.3-0.6,1.9-1.1c0.5-0.4,0.9-0.9,1.5-1.2c0,0.5-0.4,1.2,0,1.7
		C52.8,55.8,53.3,55.7,53.6,56.1"/>
	<path class="st19" d="M65.7,44c-0.6-0.2-1.1-0.3-1.7-0.3c0.4,0.6,1.5,0.5,2.2,0.8c0.3,0.1,0.5,0.3,0.8,0.5c0.7,0.4,2.2,0.9,2.3,1.2
		c0.6,0.5,1.5,0.7,2.3,0.5c0.3-0.1,0.8-0.2,0.7-0.6c-0.6-1.2-2.2-0.8-3.1-1.3c-0.3-0.2-0.3-0.4-0.7-0.5c-0.4,0-0.8,0-1.2-0.1
		C66.7,44.1,66.2,44.1,65.7,44"/>
	<path class="st19" d="M57.7,33.3c0,0.2,0,0.5-0.1,0.7c-0.3,0.8-0.2,1.7,0.1,2.5c0.2-0.3,0.3-0.7,0.2-1.1c0-0.4,0-0.8,0.1-1.2
		C58,34,57.9,33.7,57.7,33.3"/>
	<path class="st19" d="M54.7,42.6c0.3,0.4-0.1,1-0.4,1.3c-0.2,0.3-0.7,0.6-1.6,1.5s-1.8,2-2.1,2.3c-0.2,0.3-0.8,1.2-1,1
		s0.4-1.4,0.6-1.6c0.4-0.6,0.9-1.2,1.4-1.7c0.7-0.5,1.4-1.1,1.9-1.8c0-0.2-0.6-0.1-0.9-0.1c-0.3,0.1-1.5,0.5-1.9,0.6
		s-0.8-0.1-0.3-0.6c0.2-0.3,0.6-0.5,0.9-0.6c0.3,0,1-0.1,1.2-0.2c0.2-0.2,0.2-0.7,0-0.8c-0.2-0.1-0.4,0-0.6,0s-2.7-0.5-3.2-0.5
		s-2.8-0.7-3.2-0.8c-0.4-0.1-0.5-0.4,0.2-0.4s1.9,0.2,2.4,0.2c0.5,0,1-0.1,1.5-0.1c0.7,0.1,1.5,0.2,2.2,0.2c0.4-0.2,1-0.4,1.1-0.7
		c0.1-0.3,0.1-0.6-0.1-0.8c-0.6-0.4-1.1-1-1.6-1.5c-0.2-0.5-0.5-0.9-0.9-1.3c-0.3-0.2-0.8-0.2-1-0.5c-0.2-0.3-0.3-1.1,0-0.9
		c0.6,0.2,1.1,0.5,1.5,0.9c0.2,0.2,0.4,0.7,0.7,1.1c0.4,0.5,0.8,0.9,1.3,1.2c0.5,0.3,0.9,0.6,1.1,1.1c1,0.1,1.2,0,1.9,0
		c0.6,0,1.3,0.1,1.9,0.2c0.2,0.1,0.9,0.5,1.2,0.2c0.2-0.2,0.9-1.6,1.2-2c0.3-0.3,1.5-1.9,1.7-2.3c0.5-0.6,1.1-1.1,1.8-1.5
		c0.1,0.1,0.4,0.3-0.1,0.7c-0.8,0.7-1.6,1.5-2.3,2.3c-0.2,0.4-1.1,1.8-1.2,2s-0.6,0.6-0.5,0.8c0.1,0.2,1,0.4,1.2,0.6
		c0.2,0.2,0.7,1.2,0.3,1.5c-0.4,0.2-0.9,0-1.2-0.3c-0.3-0.4-0.6-0.7-0.9-1c-1.3-0.7-2.7-1-4.2-0.8c-0.4,0.1-1.3,0.4-1.3,0.9
		C53.9,41.3,54.2,42.1,54.7,42.6"/>
	<path class="st19" d="M55.9,38.3c-0.2,0-1.1-0.7-1.3-1.2c-0.3-0.6-0.6-1.2-1-1.8c-0.2-0.2-0.3-0.8-0.5-0.9
		c-0.2-0.2-1.1-1.2-0.8-1.3s1.1,0.7,1.2,1c0.2,0.2,1,1.4,1.2,1.7s0.8,1.3,1,1.6C55.9,37.6,56.1,38.3,55.9,38.3"/>
</g>
</svg>
