<svg width="80" height="80" viewBox="0 0 80 80" fill="none" xmlns="http://www.w3.org/2000/svg">
<path d="M79.9988 79.9988H0V0H79.9988V79.9988Z" fill="#3B6396"/>
<path d="M28.2813 21.3905C29.3456 21.4261 30.375 21.4731 31.3721 21.5378C26.5576 20.7937 21.4594 20.3904 16.1754 20.3904C10.529 20.3904 5.09983 20.8543 0 21.6983V21.959C5.27486 21.2517 10.8583 20.8619 16.6391 20.8619C20.6241 20.8615 24.5203 21.0473 28.2813 21.3905Z" fill="white"/>
<path d="M34.5093 23.1105C32.9022 22.717 31.2603 22.3799 29.6037 22.0958C25.3936 21.8345 20.6703 21.939 15.7074 22.4827C9.86414 23.1236 4.49404 24.2902 0 25.7589V28.2334C4.66335 25.8471 11.44 23.9171 19.1318 23.0754C24.778 22.4558 30.0647 22.5178 34.5093 23.1105Z" fill="white"/>
<path d="M51.7639 31.5979C51.7364 31.5258 51.6917 31.4691 51.6556 31.4027C49.9779 29.8282 48.2133 28.3663 46.3714 27.0256C46.4591 27.2939 46.5235 27.5623 46.5588 27.847C46.5588 27.8787 46.5536 27.9114 46.5536 27.9364C46.4788 27.5873 46.3714 27.2526 46.2339 26.9198C45.4715 26.3687 44.7005 25.8397 43.9184 25.3367C37.4153 22.9803 27.9186 22.8245 17.7497 25.4656C10.8737 27.2603 4.76168 30.0475 0 33.3118V34.5073C5.14588 31.5748 11.673 29.1127 18.9685 27.6431C33.4908 24.6933 46.4926 26.5139 51.7639 31.5979Z" fill="white"/>
<path d="M59.607 41.6227C58.3134 39.7227 56.9069 37.9054 55.3959 36.1872C46.47 30.1744 30.6615 29.5635 14.5995 35.6409C9.17854 37.6926 4.26798 40.3121 0 43.2814V45.4873C4.67796 42.4594 10.1056 39.8175 16.0896 37.8244C34.4651 31.7177 52.0675 33.6108 59.607 41.6227Z" fill="white"/>
<path d="M67.45 55.6148C66.6032 53.2893 65.5857 51.0425 64.4009 48.8837C55.844 41.1104 37.2013 40.0066 18.6206 47.0429C11.3538 49.7869 5.04329 53.4348 0 57.5154V59.6096C5.69472 55.5495 12.976 52.0353 21.2756 49.6232C41.5897 43.7214 60.9807 46.5063 67.45 55.6148Z" fill="white"/>
<path d="M19.7294 64.142C41.2049 53.9405 63.518 56.3304 69.5771 69.4977C70.0458 70.525 70.3473 71.6028 70.5872 72.6953C70.565 69.3943 70.2542 66.1611 69.6795 63.0217C63.4642 50.9105 41.0785 50.0316 19.5065 61.0842C11.6612 65.1129 5.01986 70.1646 0 75.5498V78.4321C5.01133 72.9584 11.7457 67.9501 19.7294 64.142Z" fill="white"/>
<path d="M69.7406 75.8864C65.5961 65.551 48.539 62.7758 31.6353 69.6733C25.2186 72.2859 19.7789 75.9307 15.6914 80H18.0447C21.8891 77.0335 26.6234 74.4601 32.0139 72.6616C48.0371 67.2851 63.5731 70.5987 67.1915 80H70.5425C70.5572 79.9043 70.5796 79.8156 70.5926 79.7208C70.4994 78.4067 70.2364 77.1135 69.7406 75.8864Z" fill="white"/>
<path d="M67.45 18.8913C33.0749 13.3841 8.14349 23.2125 0 27.0946V31.371C29.2829 14.6598 67.45 18.8913 67.45 18.8913Z" fill="white"/>
<path d="M72.1558 28.4114C35.2241 22.225 7.76253 34.1541 0 38.0791V42.3505C27.7903 24.4659 72.1558 28.4114 72.1558 28.4114Z" fill="white"/>
<path d="M78.4302 38.0549C38.1006 30.721 9.53128 45.6837 0 51.7328V56.4671C33.3105 31.7668 78.4302 38.0549 78.4302 38.0549Z" fill="white"/>
</svg>
