<?xml version="1.0" encoding="utf-8"?>
<!-- Generator: Adobe Illustrator 25.4.1, SVG Export Plug-In . SVG Version: 6.00 Build 0)  -->
<svg version="1.1" id="Layer_1" xmlns="http://www.w3.org/2000/svg" xmlns:xlink="http://www.w3.org/1999/xlink" x="0px" y="0px"
	 viewBox="0 0 80.3 80" style="enable-background:new 0 0 80.3 80;" xml:space="preserve">
<style type="text/css">
	.st0{fill:#F18903;}
	.st1{fill:#FFA409;}
	.st2{fill:#ABC8E8;}
	.st3{fill:#FEC524;}
	.st4{fill:#FCDD00;}
	.st5{fill:#7AAED5;}
	.st6{fill:#0E253A;}
</style>
<path class="st0" d="M34.1,54.3c0,0-23.9,4.2-23.9-10.4c0,0,1.3-7.3,11.9-7.3S36.7,49.2,34.1,54.3z"/>
<path class="st1" d="M37.2,53.7c0,0,7.2-0.9,17.5-7.9c0,0-6.2-18.3-33.6-18.3c0,0-16.8-0.1-21.1,12.1c0,0,3.4-7.8,15-8
	S38.7,39,37.2,53.7z"/>
<path class="st2" d="M25.4,35.8c0,0-15.8-3.8-17.1,9.2S27.1,57.3,30.7,57c3.6-0.3,13.3-3.4,13.3-3.4s-7.8,6-20.3,6S0,53.2,0,43.9
	S13,28.5,25.4,35.8z"/>
<path class="st3" d="M0,37.3c0,0,6.2-11.1,21.2-11.1S50.1,30,57.5,43.9c0,0,8.9-7.4,22.8-7.3c0,0-11.7-22.1-41.9-22.1S0,37.3,0,37.3
	z"/>
<path class="st4" d="M0,35.5C0,35.5,10,12,37.6,12S79,29.9,79,29.9S72.7,0,39.5,0S0.6,30.9,0,35.5z"/>
<path class="st5" d="M2.4,53.7c0,0,9.1,7.7,19.6,7.7s16.8-2.3,29.9-10.7s22-12.9,27.9-12.2c0,0-8.4,3-20.2,15S37.5,70.7,27,70.7
	S6.5,63,2.4,53.7z"/>
<path class="st6" d="M10.3,66.5c0,0,9.3,6.6,17.5,6.6s13.5-2.3,22.1-8.1s22.2-22.8,30.4-25c0,0,0.3,17.3-11.8,28.3S45.4,80,41.1,80
	S21.1,79.3,10.3,66.5z"/>
</svg>
