<?xml version="1.0" encoding="utf-8"?>
<!-- Generator: Adobe Illustrator 25.4.1, SVG Export Plug-In . SVG Version: 6.00 Build 0)  -->
<svg version="1.1" id="Layer_1" xmlns="http://www.w3.org/2000/svg" xmlns:xlink="http://www.w3.org/1999/xlink" x="0px" y="0px"
	 viewBox="0 0 290.1 80" style="enable-background:new 0 0 290.1 80;" xml:space="preserve">
<style type="text/css">
	.st0{fill:#F18903;}
	.st1{fill:#FFA409;}
	.st2{fill:#ABC8E8;}
	.st3{fill:#FEC524;}
	.st4{fill:#FCDD00;}
	.st5{fill:#7AAED5;}
	.st6{fill:#0E253A;}
</style>
<g>
	<path class="st0" d="M34.1,54.3c0,0-23.9,4.2-23.9-10.4c0,0,1.3-7.3,11.9-7.3S36.7,49.2,34.1,54.3z"/>
	<path class="st1" d="M37.2,53.7c0,0,7.2-0.9,17.5-7.9c0,0-6.2-18.3-33.6-18.3c0,0-16.8-0.1-21.1,12.1c0,0,3.4-7.8,15-8
		S38.7,39,37.2,53.7z"/>
	<path class="st2" d="M25.4,35.8c0,0-15.8-3.8-17.1,9.2S27.1,57.3,30.7,57c3.6-0.3,13.3-3.4,13.3-3.4s-7.8,6-20.3,6S0,53.2,0,43.9
		S13,28.5,25.4,35.8z"/>
	<path class="st3" d="M0,37.3c0,0,6.2-11.1,21.2-11.1S50.1,30,57.5,43.9c0,0,8.9-7.4,22.8-7.3c0,0-11.7-22.1-41.9-22.1
		S0,37.3,0,37.3z"/>
	<path class="st4" d="M0,35.5C0,35.5,10,12,37.6,12S79,29.9,79,29.9S72.7,0,39.5,0S0.6,30.9,0,35.5z"/>
	<path class="st5" d="M2.4,53.7c0,0,9.1,7.7,19.6,7.7s16.8-2.3,29.9-10.7s22-12.9,27.9-12.2c0,0-8.4,3-20.2,15S37.5,70.7,27,70.7
		S6.5,63,2.4,53.7z"/>
	<path class="st6" d="M10.3,66.5c0,0,9.3,6.6,17.5,6.6s13.5-2.3,22.1-8.1s22.2-22.8,30.4-25c0,0,0.3,17.3-11.8,28.3S45.4,80,41.1,80
		S21.1,79.3,10.3,66.5z"/>
	<g>
		<path class="st6" d="M121.3,24.7H99.1l-1.1,5.8h7.4l-3.7,24.7h7.1l3.9-24.6h4.7c0,0,3.2,0.2,3.8-3.7V24.7z"/>
		<path class="st6" d="M136.8,24.7c-2.3,0-4.1,0-5.3,0h-2.4h-4.4l-4.5,30.4h7.1l1.6-11.3h2.8c0,0,2.2,0.3,2.7,4.2
			c0.5,3.9,1.1,7.7,4.2,7.7s5.2-2.2,5.2-2.2s-1-0.9-1.5-2.7c-0.5-1.8-1-7.9-3.5-8.5c0,0,5.7-2.1,6.5-8.2
			C146.2,27.9,142.2,24.7,136.8,24.7z M138.1,33.7c-0.7,3.9-3.2,4.8-4.8,4.8c-1,0-2.7,0-3.7,0l1.2-8.7h4.3
			C135.1,29.8,138.8,29.7,138.1,33.7z"/>
		<path class="st6" d="M160,24.7l-14.5,30.4h7l2.8-6.5h9.9l0.5,3.5c0,0,0.3,3.4,3.4,3.4c3.1,0,4.7-1,4.7-1l-5.4-29.9H160z
			 M157.7,43.1l5.3-12.2l1.5,12.2H157.7z"/>
		<path class="st6" d="M193.8,24.7h-5.2h-6.8l-4.7,30.6h7.2c10.5,0,12.9-2.1,14.6-3.7c1.7-1.5,7.1-8.5,5.7-18.1
			C203.2,24.1,193.8,24.7,193.8,24.7z M196.7,40.6c-1,9.4-6.7,9.2-6.7,9.2h-5l2.8-19.9c1.2,0,3.4-0.1,5.3,0
			C195.8,30.1,197.7,31.1,196.7,40.6z"/>
		<path class="st6" d="M229.5,30.6c0,0,1.4-2.1,1.3-5.9h-19.5l-4.1,26.7c0,0-0.5,3.8,3.2,3.8c3.7,0,12.6,0,12.6,0s4.6,0.1,5.2-5.9
			h-13.7l1-6.7h10c1.1-1.5,0.9-5.8,0.9-5.8h-10l1-6.3H229.5z"/>
		<path class="st6" d="M244.6,24.7l-14.9,30.6h3.2l3.9-8.1h12.5l1.2,6.6c0,0,0.1,1.7,1.8,1.7c1.6,0,2-0.5,2-0.5l-5.7-30.3H244.6z
			 M238.2,44.3l7.7-16.2l2.8,16.2H238.2z"/>
		<polygon class="st6" points="258,55.3 261.3,55.3 265.9,24.7 262.6,24.7 		"/>
		<path class="st6" d="M290,32.7c1.1-8-7.3-8-7.3-8h-7.1h-3.3l-4.6,30.6h3.4l2-13.1c1.1,0,2.7,0,5,0c0.1,0,0.2,0,0.2,0c0,0,0,0,0,0
			c1.3,0,1.7,0.5,2.6,1.5c0.9,1.1,1.5,4.1,2.2,7.6c0.7,3.5,1.4,3.5,1.5,3.8c2.5,0.9,3.6-0.9,3.6-0.9c-1.7-1.1-2.5-7.1-3-9.8
			c-0.3-1.6-1.4-2.5-2.2-2.9C286.2,40.4,289.3,38,290,32.7z M286.4,33.9c-1.1,5.6-6.3,5.6-6.3,5.6h-6.7l0,0l1.8-12.2
			c1.6,0,5.7,0,6.7,0C283.4,27.3,287.5,28.3,286.4,33.9z"/>
	</g>
</g>
</svg>
