<?xml version="1.0" encoding="utf-8"?>
<!-- Generator: Adobe Illustrator 25.4.1, SVG Export Plug-In . SVG Version: 6.00 Build 0)  -->
<svg version="1.1" id="Layer_2_00000159471598350358213750000014612203606435250611_"
	 xmlns="http://www.w3.org/2000/svg" xmlns:xlink="http://www.w3.org/1999/xlink" x="0px" y="0px" viewBox="0 0 203 80"
	 style="enable-background:new 0 0 203 80;" xml:space="preserve">
<style type="text/css">
	.st0{fill-rule:evenodd;clip-rule:evenodd;fill:#004FA3;}
	.st1{fill-rule:evenodd;clip-rule:evenodd;fill:#EF3E33;}
</style>
<g>
	<path class="st0" d="M12.8,67.5h0.4c1.3,0,2.3,0.2,2.9,0.5c0.9,0.5,1.3,1.3,1.3,2.4c0,1-0.4,1.9-1.3,2.7c-0.8,0.7-1.9,1.1-3.3,1.1
		v-0.9c0.4-0.2,0.8-0.5,1.1-1c0.5-0.7,0.7-1.5,0.7-2.4c0-0.6-0.1-1-0.4-1.3c-0.3-0.3-0.7-0.4-1.3-0.4c0,0,0,0-0.1,0
		C12.8,68.2,12.8,67.5,12.8,67.5z M10.8,74.1l-1,3.4c-0.1,0.5-0.2,0.8-0.2,1c0,0.3,0.1,0.5,0.3,0.6c0.2,0.1,0.6,0.2,1.2,0.2L11,79.7
		H5.1l0.1-0.3c0.5,0,0.8,0,1.1-0.1c0.2-0.1,0.4-0.2,0.5-0.4c0.1-0.1,0.2-0.5,0.4-1.3l2.2-7.7c0.1-0.5,0.2-0.9,0.2-1.1
		s-0.1-0.4-0.3-0.6c-0.2-0.1-0.5-0.2-1.1-0.2l0.1-0.3h4.4v0.7c-0.1,0-0.2,0-0.3,0L11,73.4c0.4,0,0.7,0.1,0.9,0.1
		c0.3,0,0.6-0.1,0.8-0.2v0.9c-0.1,0-0.2,0-0.3,0C12,74.3,11.5,74.2,10.8,74.1z"/>
	<path class="st0" d="M22.3,71.4l-1.9,6.1c-0.1,0.3-0.1,0.5-0.1,0.6c0,0,0,0.1,0,0.1c0,0,0.1,0.1,0.2,0.1c0.3,0,0.6-0.2,1.1-0.7
		c0.6-0.7,1.3-1.7,2-3.1l0.8-2.7l2.3-0.1l-1.8,6c-0.1,0.5-0.2,0.8-0.2,0.9c0,0,0,0.1,0.1,0.1c0,0,0.1,0.1,0.1,0.1
		c0.1,0,0.2,0,0.2-0.1c0.2-0.2,0.5-0.5,0.9-1l0.3,0.2c-0.8,1.5-1.8,2.2-2.8,2.2c-0.4,0-0.7-0.1-0.9-0.3c-0.2-0.2-0.3-0.4-0.3-0.7
		c0-0.3,0.1-0.7,0.2-1.2l0.5-1.5c-0.8,1.1-1.3,1.9-1.7,2.3c-0.5,0.6-1,1-1.4,1.2c-0.3,0.2-0.7,0.3-1,0.3s-0.6-0.1-0.8-0.3
		c-0.2-0.2-0.3-0.5-0.3-0.9c0-0.3,0.1-0.7,0.2-1.2l1.1-3.6c0.2-0.6,0.2-1,0.2-1.2c0-0.1,0-0.2-0.1-0.2c0,0-0.1-0.1-0.2-0.1
		c-0.1,0-0.3-0.1-0.5-0.1l0.1-0.3l3-0.5H22.3z"/>
	<path class="st0" d="M31.7,78.8c0.3,0,0.7-0.1,1-0.2c0.4-0.2,0.9-0.5,1.5-0.9l0.3,0.2c-0.7,0.8-1.4,1.3-2,1.7
		c-0.2,0.1-0.5,0.2-0.7,0.3L31.7,78.8L31.7,78.8z M31.7,71.8c0.7-0.3,1.4-0.4,2.1-0.4c0.5,0,0.9,0.1,1.1,0.3
		c0.2,0.2,0.4,0.5,0.4,0.9c0,0.4-0.1,0.9-0.4,1.3c-0.3,0.6-0.8,1-1.3,1.4c-0.5,0.3-1.1,0.6-1.8,0.8c0,0-0.1,0-0.1,0v-0.7
		c0.2-0.1,0.3-0.3,0.5-0.4c0.3-0.3,0.5-0.7,0.7-1.1c0.2-0.4,0.3-0.9,0.3-1.3c0-0.2,0-0.3-0.1-0.4C33,72,32.9,72,32.7,72
		c-0.3,0-0.6,0.2-1,0.6c0,0-0.1,0.1-0.1,0.1C31.7,72.7,31.7,71.8,31.7,71.8z M30,76.3c0,0.4-0.1,0.7-0.1,0.9c0,0.4,0.1,0.8,0.4,1.1
		c0.2,0.3,0.6,0.4,1,0.4c0.1,0,0.2,0,0.3,0v1c-0.4,0.1-0.9,0.2-1.4,0.2c-1,0-1.7-0.2-2.1-0.7c-0.4-0.5-0.6-1-0.6-1.7
		c0-1,0.3-2,0.8-2.9c0.6-1,1.4-1.8,2.3-2.4c0.3-0.2,0.6-0.3,0.9-0.5v0.9c-0.6,0.7-1.1,1.8-1.6,3.2c0.5-0.1,0.9-0.2,1.2-0.3
		c0.1,0,0.2-0.1,0.3-0.2v0.7C31.2,76.2,30.7,76.3,30,76.3z"/>
	<path class="st0" d="M40.1,71.4l-1.6,5.1c1.1-2.5,1.9-4,2.4-4.6c0.3-0.3,0.6-0.5,1-0.5c0.2,0,0.4,0.1,0.6,0.3
		c0.2,0.2,0.2,0.4,0.2,0.8c0,0.6-0.1,1.1-0.4,1.5c-0.2,0.3-0.4,0.4-0.6,0.4c-0.2,0-0.4-0.1-0.5-0.3c-0.1-0.2-0.2-0.3-0.2-0.4
		c0,0-0.1,0-0.1,0c0,0-0.1,0-0.2,0c-0.1,0.1-0.3,0.2-0.5,0.5c-0.2,0.3-0.5,0.7-0.8,1.4c-0.3,0.6-0.5,1.2-0.7,1.7
		c-0.1,0.5-0.4,1.3-0.8,2.6h-2.2l1.7-5.9c0.1-0.4,0.2-0.7,0.2-0.9s0-0.3-0.1-0.4c-0.1-0.1-0.2-0.1-0.3-0.2c-0.1,0-0.4,0-0.8,0
		l0.1-0.3l3-0.6H40.1z"/>
	<path class="st0" d="M48,69.2l-0.7,2.4h1l-0.3,1h-1l-1.6,5.3c-0.1,0.3-0.1,0.6-0.1,0.7c0,0,0,0.1,0.1,0.1c0.1,0,0.1,0,0.2,0
		c0.1,0,0.2,0,0.3-0.1c0.3-0.2,0.6-0.6,1-1.1l0.3,0.2c-0.4,0.7-0.9,1.2-1.4,1.6c-0.5,0.3-1,0.5-1.5,0.5c-0.4,0-0.7-0.1-1-0.3
		c-0.2-0.2-0.3-0.5-0.3-0.8c0-0.3,0.1-0.8,0.2-1.3l1.5-4.9h-1.1l0.2-0.7c0.7-0.3,1.4-0.6,1.9-1c0.5-0.4,1.2-1,2-1.8L48,69.2L48,69.2
		z"/>
	<path class="st0" d="M56.6,71.5l-1.8,6l-0.2,0.7c0,0.1,0,0.1,0,0.2c0,0.1,0,0.1,0.1,0.2s0.1,0.1,0.1,0.1c0.1,0,0.3-0.1,0.5-0.3
		c0.1-0.1,0.3-0.3,0.6-0.8l0.3,0.1c-0.4,0.8-0.9,1.3-1.4,1.7c-0.5,0.4-1,0.5-1.5,0.5c-0.3,0-0.6-0.1-0.8-0.3
		c-0.2-0.2-0.3-0.4-0.3-0.6c0-0.2,0.1-0.7,0.3-1.3l0.2-0.7c-0.2,0.4-0.5,0.9-0.8,1.2v-0.7c0.3-0.4,0.5-0.8,0.8-1.3
		c0.6-1.1,0.9-2.1,0.9-3c0-0.5-0.1-0.8-0.2-1.1c-0.1-0.1-0.2-0.2-0.4-0.2c-0.2,0-0.4,0.1-0.6,0.3c-0.1,0.1-0.2,0.3-0.4,0.4v-1.1
		c0.3-0.1,0.5-0.1,0.8-0.1c0.3,0,0.6,0.1,0.8,0.3c0.2,0.2,0.3,0.5,0.4,1.1l0.3-1.1L56.6,71.5z M52,78.2c-0.4,0.6-0.8,1-1.2,1.3
		C50.4,79.8,50,80,49.6,80c-0.5,0-0.9-0.2-1.2-0.7c-0.2-0.5-0.4-1-0.4-1.5c0-0.8,0.3-1.8,0.8-2.9c0.5-1.1,1.2-2,2-2.6
		c0.4-0.3,0.8-0.5,1.2-0.7v1.1c-0.3,0.4-0.6,1-0.9,1.8c-0.5,1.1-0.7,2.1-0.7,2.9c0,0.3,0,0.5,0.2,0.7c0.1,0.1,0.2,0.2,0.3,0.2
		c0.2,0,0.5-0.1,0.8-0.4c0.1-0.1,0.2-0.2,0.3-0.4L52,78.2L52,78.2z"/>
	<path class="st0" d="M71.7,67.2l-3.1,10.1c-0.2,0.6-0.3,1-0.3,1.1c0,0,0,0.1,0.1,0.2c0,0,0.1,0,0.1,0c0.1,0,0.2,0,0.3-0.1
		c0.2-0.1,0.5-0.5,0.8-0.9l0.3,0.2c-0.8,1.5-1.8,2.2-2.8,2.2c-0.3,0-0.6-0.1-0.8-0.3c-0.2-0.2-0.3-0.4-0.3-0.7
		c0-0.3,0.1-0.7,0.2-1.2l0.3-0.9c-0.2,0.4-0.5,0.8-0.7,1.2v-0.7c0.3-0.4,0.6-1,1-1.7c0.5-1.1,0.7-2,0.7-2.7c0-0.4-0.1-0.6-0.2-0.8
		c-0.1-0.2-0.3-0.2-0.5-0.2c-0.2,0-0.4,0.1-0.6,0.3c-0.1,0.1-0.2,0.2-0.3,0.4v-1.1c0.3-0.1,0.5-0.1,0.8-0.1c0.2,0,0.4,0,0.6,0.1
		c0.2,0.1,0.4,0.3,0.6,0.5l0.7-2.2c0.2-0.6,0.3-1,0.3-1.2c0-0.1,0-0.3-0.2-0.4c-0.1-0.1-0.3-0.2-0.5-0.2c-0.1,0-0.2,0-0.3,0l0.1-0.3
		l3.1-0.5H71.7z M65.9,78c-0.4,0.7-0.9,1.2-1.2,1.4c-0.4,0.3-0.8,0.5-1.2,0.5c-0.4,0-0.8-0.2-1.1-0.5c-0.3-0.4-0.5-0.9-0.5-1.6
		c0-0.9,0.2-1.8,0.6-2.7s0.9-1.6,1.4-2.2c0.5-0.6,1-1,1.5-1.2c0.2-0.1,0.4-0.2,0.6-0.2v1.1c-0.3,0.4-0.6,1.1-1,1.9
		c-0.5,1.2-0.7,2.1-0.7,2.9c0,0.3,0,0.5,0.1,0.6c0.1,0.1,0.2,0.2,0.3,0.2c0.2,0,0.4-0.1,0.6-0.3c0.2-0.2,0.4-0.4,0.6-0.6V78z"/>
	<path class="st0" d="M75.2,78.8c0.3,0,0.6-0.1,1-0.2c0.4-0.2,0.9-0.5,1.5-0.9l0.3,0.2c-0.7,0.8-1.3,1.3-2,1.7
		c-0.2,0.1-0.5,0.2-0.7,0.3V78.8L75.2,78.8z M75.2,71.8c0.7-0.3,1.4-0.4,2.1-0.4c0.5,0,0.9,0.1,1.1,0.3c0.3,0.2,0.4,0.5,0.4,0.9
		c0,0.4-0.1,0.9-0.4,1.3c-0.3,0.6-0.8,1-1.3,1.4c-0.5,0.3-1.1,0.6-1.8,0.8c0,0-0.1,0-0.1,0v-0.7c0.2-0.1,0.3-0.3,0.5-0.4
		c0.3-0.3,0.5-0.7,0.7-1.1c0.2-0.4,0.3-0.9,0.3-1.3c0-0.2,0-0.3-0.1-0.4C76.5,72,76.4,72,76.3,72c-0.3,0-0.6,0.2-1,0.6
		c0,0-0.1,0.1-0.1,0.1L75.2,71.8L75.2,71.8z M73.6,76.3c0,0.4-0.1,0.7-0.1,0.9c0,0.4,0.1,0.8,0.4,1.1c0.3,0.3,0.6,0.4,1.1,0.4
		c0.1,0,0.2,0,0.3,0v1c-0.4,0.1-0.9,0.2-1.4,0.2c-1,0-1.7-0.2-2.1-0.7c-0.4-0.5-0.6-1-0.6-1.7c0-1,0.3-2,0.9-2.9
		c0.6-1,1.3-1.8,2.3-2.4c0.3-0.2,0.6-0.3,0.9-0.5v0.9c-0.6,0.7-1.1,1.8-1.6,3.2c0.5-0.1,0.9-0.2,1.2-0.3c0.1,0,0.2-0.1,0.3-0.2v0.7
		C74.8,76.2,74.3,76.3,73.6,76.3z"/>
	<path class="st0" d="M96.8,67.2l-0.9,3.9h-0.3c0-1.1-0.3-1.9-0.8-2.4c-0.5-0.5-1.1-0.8-1.9-0.8c-0.8,0-1.7,0.3-2.5,1
		c-0.8,0.7-1.5,1.8-2.1,3.3c-0.5,1.2-0.7,2.4-0.7,3.5c0,1,0.2,1.8,0.7,2.4c0.5,0.5,1.2,0.8,2.1,0.8c0.7,0,1.4-0.1,2-0.5
		c0.6-0.3,1.2-0.8,1.8-1.5h0.4c-0.7,1.1-1.5,1.9-2.3,2.3c-0.7,0.4-1.7,0.7-2.8,0.7c-1.5,0-2.6-0.4-3.5-1.3c-0.9-0.9-1.3-2.1-1.3-3.5
		c0-1.3,0.3-2.6,1.1-3.9s1.7-2.2,3.1-3c1.3-0.7,2.7-1.1,4-1.1c0.5,0,1.1,0.1,1.9,0.3c0.4,0.1,0.6,0.1,0.8,0.1c0.3,0,0.6-0.1,0.9-0.5
		H96.8L96.8,67.2z"/>
	<path class="st0" d="M101.2,71.4l-1.9,6.1c-0.1,0.3-0.1,0.5-0.1,0.6c0,0,0,0.1,0.1,0.1c0,0,0.1,0.1,0.2,0.1c0.2,0,0.6-0.2,1.1-0.7
		c0.6-0.7,1.3-1.7,2-3.1l0.8-2.7l2.3-0.1l-1.8,6c-0.1,0.5-0.2,0.8-0.2,0.9c0,0,0,0.1,0.1,0.1c0,0,0.1,0.1,0.1,0.1
		c0.1,0,0.1,0,0.2-0.1c0.2-0.2,0.5-0.5,0.8-1l0.3,0.2c-0.8,1.5-1.8,2.2-2.8,2.2c-0.4,0-0.7-0.1-0.9-0.3c-0.2-0.2-0.3-0.4-0.3-0.7
		c0-0.3,0.1-0.7,0.2-1.2l0.4-1.5c-0.7,1.1-1.3,1.9-1.7,2.3c-0.5,0.6-1,1-1.3,1.2c-0.4,0.2-0.7,0.3-1,0.3s-0.6-0.1-0.8-0.3
		c-0.2-0.2-0.3-0.5-0.3-0.9c0-0.3,0.1-0.7,0.2-1.2l1.1-3.6c0.1-0.6,0.2-1,0.2-1.2c0-0.1,0-0.2-0.1-0.2c0,0-0.1-0.1-0.2-0.1
		c-0.1,0-0.2-0.1-0.5-0.1l0.1-0.3l3-0.5L101.2,71.4L101.2,71.4z"/>
	<path class="st0" d="M112.1,67.2l-1.6,5.4c0.4-0.5,0.8-0.8,1.1-1c0.3-0.2,0.6-0.2,1-0.2c0.7,0,1.2,0.2,1.5,0.8
		c0.3,0.5,0.5,1.1,0.5,1.8c0,1.6-0.6,3.1-1.7,4.3c-0.7,0.8-1.6,1.4-2.5,1.6v-0.9c0.2-0.2,0.4-0.5,0.6-0.8c0.3-0.5,0.6-1.2,0.9-1.9
		c0.2-0.7,0.4-1.5,0.4-2.3c0-0.4-0.1-0.7-0.3-1c-0.2-0.2-0.4-0.3-0.6-0.3c-0.4,0-0.7,0.2-1,0.6v-5.8l1.1-0.2L112.1,67.2L112.1,67.2z
		 M110.5,79.8c-0.3,0.1-0.6,0.1-1,0.1c-1,0-2-0.3-3.1-0.9l2.8-9.5c0.1-0.4,0.2-0.7,0.2-0.9c0-0.1-0.1-0.3-0.2-0.3
		c-0.2-0.1-0.5-0.2-0.8-0.2l0.1-0.3l2-0.3v5.8l0,0c-0.2,0.3-0.4,0.9-0.6,1.7l-1.2,4.2c0.3,0.2,0.5,0.3,0.7,0.3c0.3,0,0.6,0,0.8-0.2
		c0.1-0.1,0.3-0.2,0.4-0.3V79.8z"/>
	<path class="st0" d="M124.2,71.5l-1.8,6l-0.2,0.7c0,0.1,0,0.1,0,0.2c0,0.1,0,0.1,0.1,0.2s0.1,0.1,0.1,0.1c0.1,0,0.3-0.1,0.5-0.3
		c0.1-0.1,0.3-0.3,0.6-0.8l0.3,0.1c-0.4,0.8-0.9,1.3-1.4,1.7c-0.5,0.4-1,0.5-1.5,0.5c-0.3,0-0.6-0.1-0.8-0.3
		c-0.2-0.2-0.3-0.4-0.3-0.6c0-0.2,0.1-0.7,0.3-1.3l0.2-0.7c-0.2,0.4-0.5,0.9-0.8,1.2v-0.7c0.3-0.4,0.5-0.8,0.7-1.3
		c0.6-1.1,0.9-2.1,0.9-3c0-0.5-0.1-0.8-0.2-1.1c-0.1-0.1-0.2-0.2-0.4-0.2c-0.2,0-0.4,0.1-0.6,0.3c-0.1,0.1-0.2,0.3-0.4,0.4v-1.1
		c0.3-0.1,0.5-0.1,0.8-0.1c0.3,0,0.6,0.1,0.8,0.3c0.2,0.2,0.4,0.5,0.5,1.1l0.3-1.1L124.2,71.5z M119.7,78.2c-0.4,0.6-0.8,1-1.2,1.3
		c-0.4,0.3-0.8,0.4-1.2,0.4c-0.5,0-0.9-0.2-1.2-0.7c-0.2-0.5-0.4-1-0.4-1.5c0-0.8,0.3-1.8,0.8-2.9c0.5-1.1,1.2-2,2.1-2.6
		c0.4-0.3,0.8-0.5,1.2-0.7v1.1c-0.3,0.4-0.6,1-0.9,1.8c-0.4,1.1-0.7,2.1-0.7,2.9c0,0.3,0,0.5,0.1,0.7c0.1,0.1,0.2,0.2,0.3,0.2
		c0.3,0,0.5-0.1,0.8-0.4c0.1-0.1,0.2-0.2,0.3-0.4L119.7,78.2L119.7,78.2z"/>
	<path class="st0" d="M138,71.5l-1.8,6l-0.2,0.7c0,0.1,0,0.1,0,0.2c0,0.1,0,0.1,0.1,0.2c0,0,0.1,0.1,0.1,0.1c0.1,0,0.3-0.1,0.5-0.3
		c0.1-0.1,0.3-0.3,0.6-0.8l0.3,0.1c-0.4,0.8-0.9,1.3-1.4,1.7c-0.5,0.4-1,0.5-1.5,0.5c-0.3,0-0.6-0.1-0.8-0.3
		c-0.2-0.2-0.3-0.4-0.3-0.6c0-0.2,0.1-0.7,0.3-1.3l0.2-0.7c-0.3,0.4-0.5,0.9-0.8,1.2v-0.7c0.3-0.4,0.5-0.8,0.7-1.3
		c0.6-1.1,0.9-2.1,0.9-3c0-0.5-0.1-0.8-0.2-1.1c-0.1-0.1-0.2-0.2-0.4-0.2c-0.2,0-0.4,0.1-0.6,0.3c-0.1,0.1-0.2,0.3-0.4,0.4v-1.1
		c0.3-0.1,0.5-0.1,0.8-0.1c0.3,0,0.6,0.1,0.8,0.3c0.2,0.2,0.4,0.5,0.5,1.1l0.3-1.1L138,71.5z M133.5,78.2c-0.4,0.6-0.8,1-1.2,1.3
		c-0.4,0.3-0.8,0.4-1.2,0.4c-0.5,0-0.9-0.2-1.2-0.7c-0.2-0.5-0.4-1-0.4-1.5c0-0.8,0.2-1.8,0.8-2.9c0.5-1.1,1.2-2,2.1-2.6
		c0.4-0.3,0.8-0.5,1.2-0.7v1.1c-0.3,0.4-0.6,1-0.9,1.8c-0.5,1.1-0.7,2.1-0.7,2.9c0,0.3,0,0.5,0.1,0.7c0.1,0.1,0.2,0.2,0.3,0.2
		c0.3,0,0.5-0.1,0.8-0.4c0.1-0.1,0.2-0.2,0.3-0.4L133.5,78.2L133.5,78.2z"/>
	<path class="st0" d="M144.3,67.2l-3.1,10.2c-0.2,0.6-0.3,1-0.3,1.1c0,0,0,0.1,0.1,0.2s0.1,0.1,0.2,0.1c0.1,0,0.2,0,0.3-0.1
		c0.3-0.2,0.6-0.6,1-1.1l0.3,0.1c-0.6,0.9-1.1,1.5-1.7,1.9c-0.4,0.2-0.8,0.4-1.2,0.4c-0.4,0-0.7-0.1-0.9-0.3
		c-0.2-0.2-0.3-0.4-0.3-0.7c0-0.2,0.1-0.6,0.2-1.1l2.5-8.3c0.1-0.5,0.2-0.8,0.2-0.9c0-0.1-0.1-0.2-0.2-0.3c-0.2-0.1-0.4-0.2-0.8-0.2
		l0.1-0.3l3.1-0.5L144.3,67.2L144.3,67.2z"/>
	<path class="st0" d="M155.1,67.5l0.9,8.4l5.8-8.4h4.3l-0.1,0.3c-0.6,0-1,0.1-1.3,0.4c-0.3,0.3-0.6,0.8-0.8,1.5l-2.2,7.8
		c-0.1,0.5-0.2,0.9-0.2,1.1c0,0.2,0.1,0.4,0.3,0.5c0.2,0.1,0.5,0.2,1.1,0.2l-0.1,0.3h-6.1l0.1-0.3c0.6,0,1.1-0.1,1.4-0.4
		c0.3-0.2,0.6-0.7,0.8-1.5l2.3-7.9l-7,10.1h-0.4l-1.1-10.3l-2.3,8.1c-0.1,0.3-0.1,0.6-0.1,0.8c0,0.3,0.1,0.5,0.3,0.7
		c0.2,0.2,0.6,0.3,1.1,0.3l-0.1,0.3h-4l0.1-0.3c0.5,0,0.9-0.1,1.1-0.3c0.4-0.3,0.8-0.8,1-1.6l2.6-9c-0.2-0.3-0.5-0.4-0.7-0.5
		c-0.2-0.1-0.5-0.1-1-0.1l0.1-0.3H155.1z"/>
	<path class="st0" d="M169.9,71.4l-1.9,6.1c-0.1,0.3-0.1,0.5-0.1,0.6c0,0,0,0.1,0,0.1c0,0,0.1,0.1,0.2,0.1c0.3,0,0.6-0.2,1.1-0.7
		c0.6-0.7,1.3-1.7,2-3.1l0.8-2.7l2.3-0.1l-1.8,6c-0.1,0.5-0.2,0.8-0.2,0.9c0,0,0,0.1,0,0.1c0,0,0.1,0.1,0.1,0.1c0.1,0,0.2,0,0.2-0.1
		c0.2-0.2,0.5-0.5,0.9-1l0.3,0.2c-0.8,1.5-1.8,2.2-2.8,2.2c-0.4,0-0.7-0.1-0.9-0.3c-0.2-0.2-0.3-0.4-0.3-0.7c0-0.3,0.1-0.7,0.2-1.2
		l0.4-1.5c-0.8,1.1-1.3,1.9-1.7,2.3c-0.5,0.6-1,1-1.4,1.2c-0.4,0.2-0.7,0.3-1,0.3s-0.6-0.1-0.8-0.3c-0.2-0.2-0.3-0.5-0.3-0.9
		c0-0.3,0.1-0.7,0.2-1.2l1.1-3.6c0.2-0.6,0.2-1,0.2-1.2c0-0.1,0-0.2-0.1-0.2c0,0-0.1-0.1-0.2-0.1c-0.1,0-0.3-0.1-0.5-0.1l0.1-0.3
		l3-0.5L169.9,71.4L169.9,71.4z"/>
	<path class="st0" d="M179.8,71.4l-1.2,3.9c0.8-1.1,1.4-1.9,1.8-2.3c0.6-0.6,1.1-1,1.5-1.2c0.4-0.2,0.8-0.3,1.2-0.3
		c0.3,0,0.6,0.1,0.8,0.4c0.2,0.2,0.3,0.6,0.3,1c0,0.3-0.1,0.7-0.2,1.2l-1.2,3.8c-0.1,0.3-0.1,0.5-0.1,0.6c0,0.1,0,0.1,0.1,0.2
		s0.1,0.1,0.1,0.1c0.1,0,0.1,0,0.2-0.1c0.2-0.2,0.4-0.4,0.6-0.7c0-0.1,0.1-0.2,0.2-0.4l0.3,0.2c-0.9,1.4-1.8,2.2-2.8,2.2
		c-0.4,0-0.7-0.1-0.9-0.3c-0.2-0.2-0.3-0.4-0.3-0.7c0-0.2,0.1-0.6,0.2-1.1l1.2-3.9c0.1-0.2,0.1-0.4,0.1-0.5c0-0.1,0-0.1-0.1-0.2
		c0,0-0.1-0.1-0.2-0.1c-0.2,0-0.5,0.1-0.9,0.4c-0.9,0.8-1.8,2-2.6,3.6l-0.8,2.7H175l1.7-5.7c0.1-0.6,0.2-1,0.3-1.2
		c0-0.1-0.1-0.2-0.1-0.3c0,0-0.1-0.1-0.2-0.1c-0.1,0-0.3-0.1-0.7-0.1l0.1-0.3l3.1-0.5L179.8,71.4L179.8,71.4z"/>
	<path class="st0" d="M195.2,67.2l-3.1,10.1c-0.2,0.6-0.3,1-0.3,1.1c0,0,0,0.1,0.1,0.2c0,0,0.1,0,0.1,0c0.1,0,0.2,0,0.3-0.1
		c0.2-0.1,0.5-0.5,0.8-0.9l0.3,0.2c-0.8,1.5-1.8,2.2-2.8,2.2c-0.3,0-0.6-0.1-0.8-0.3c-0.2-0.2-0.3-0.4-0.3-0.7
		c0-0.3,0.1-0.7,0.2-1.2l0.3-0.9c-0.2,0.4-0.5,0.8-0.7,1.2v-0.7c0.3-0.4,0.6-1,1-1.7c0.5-1.1,0.7-2,0.7-2.7c0-0.4-0.1-0.6-0.2-0.8
		s-0.3-0.2-0.5-0.2c-0.2,0-0.4,0.1-0.6,0.3c-0.1,0.1-0.2,0.2-0.3,0.4v-1.1c0.3-0.1,0.5-0.1,0.8-0.1c0.2,0,0.4,0,0.6,0.1
		c0.2,0.1,0.4,0.3,0.6,0.5l0.7-2.2c0.2-0.6,0.3-1,0.3-1.2c0-0.1,0-0.3-0.2-0.4c-0.1-0.1-0.3-0.2-0.5-0.2c-0.1,0-0.2,0-0.3,0l0.1-0.3
		l3.1-0.5H195.2z M189.4,78c-0.4,0.7-0.9,1.2-1.2,1.4c-0.4,0.3-0.8,0.5-1.2,0.5c-0.4,0-0.8-0.2-1.1-0.5c-0.3-0.4-0.5-0.9-0.5-1.6
		c0-0.9,0.2-1.8,0.6-2.7c0.4-0.9,0.9-1.6,1.4-2.2c0.5-0.6,1-1,1.5-1.2c0.2-0.1,0.4-0.2,0.6-0.2v1.1c-0.3,0.4-0.6,1.1-1,1.9
		c-0.5,1.2-0.7,2.1-0.7,2.9c0,0.3,0,0.5,0.1,0.6c0.1,0.1,0.2,0.2,0.3,0.2c0.2,0,0.4-0.1,0.6-0.3c0.2-0.2,0.4-0.4,0.6-0.6L189.4,78
		L189.4,78z"/>
	<path class="st0" d="M200.3,71.4c0.5,0,0.9,0.1,1.3,0.3c0.4,0.2,0.7,0.5,0.9,0.9c0.2,0.4,0.3,0.8,0.3,1.3c0,1-0.3,1.9-0.8,2.9
		c-0.5,1-1.3,1.7-2.2,2.3c-0.4,0.2-0.7,0.4-1.1,0.6v-0.9c0.2-0.2,0.4-0.6,0.6-1c0.4-0.7,0.7-1.6,0.9-2.5c0.2-0.9,0.4-1.7,0.4-2.5
		c0-0.3-0.1-0.5-0.2-0.7c-0.1-0.2-0.3-0.2-0.5-0.2c-0.3,0-0.6,0.1-0.8,0.3c-0.1,0.1-0.2,0.2-0.3,0.4v-0.9
		C199.3,71.4,199.8,71.4,200.3,71.4z M198.8,79.7c-0.5,0.2-1,0.3-1.5,0.3c-0.8,0-1.4-0.2-1.9-0.7c-0.4-0.5-0.7-1.1-0.7-1.8
		c0-0.8,0.2-1.6,0.5-2.3c0.3-0.7,0.8-1.4,1.3-1.9c0.5-0.5,1.1-1,1.8-1.3c0.2-0.1,0.4-0.2,0.6-0.2v0.9c-0.3,0.5-0.7,1.2-1.1,2.3
		c-0.5,1.4-0.8,2.6-0.8,3.8c0,0.3,0.1,0.5,0.2,0.7c0.2,0.2,0.4,0.3,0.6,0.3c0.2,0,0.4-0.1,0.6-0.2c0.1-0.1,0.2-0.2,0.4-0.5V79.7z"/>
	<polygon class="st1" points="0,0 12.6,58.8 49,58.8 	"/>
	<polygon class="st0" points="4.2,0 18.2,16.8 46.2,16.8 32.2,0 	"/>
	<polygon class="st0" points="39.2,42 53.2,58.8 81.2,58.8 67.2,42 	"/>
	<polygon class="st0" points="21.7,21 35.7,37.8 63.7,37.8 49.7,21 	"/>
	<g>
		<path class="st0" d="M186.6,42l-6.8,16.8h5.2l1.8-4.4h6l-0.5,1.2l-1.3,3.2h5.2L203,42H186.6z M194.2,50.8h-6l2.1-5.2h6L194.2,50.8
			z"/>
		<polygon class="st0" points="99.3,51.6 97.9,55.2 91.9,55.2 95.8,45.7 101.7,45.7 100.3,49.2 105.4,49.2 108.4,42.1 92,42.1 
			85.3,58.8 101.6,58.8 104.5,51.6 		"/>
		<polygon class="st0" points="122.1,42 116.8,55.2 110.8,55.2 116.1,42 110.9,42 104.1,58.8 120.5,58.8 127.3,42 		"/>
		<polygon class="st0" points="167.6,42 160.8,58.8 166,58.8 171.4,45.6 177.4,45.6 172,58.8 177.2,58.8 184,42 		"/>
		<path class="st0" d="M129.9,42L123,58.8h16.4l2-4.9c0.2-0.4,0.2-0.8,0.2-1.2c0-0.4-0.1-0.8-0.2-1.2c-0.1-0.4-0.4-0.7-0.6-1
			c0-0.1-0.1-0.1-0.2-0.1c0.3-0.1,0.7-0.2,1.1-0.3c0.5-0.2,0.9-0.5,1.3-0.9c0.4-0.4,0.7-0.8,0.9-1.3c0,0,0.1-0.1,0.1-0.1l2.2-5.7
			H129.9z M136.3,53.7l-0.3,0.9l-0.3,0.6h-6l1.4-3.6h3.6c0.2,0,0.4,0,0.6,0.1c0.2,0.1,0.3,0.2,0.5,0.3c0,0,0,0,0,0l0,0
			c0.1,0.1,0.2,0.3,0.3,0.5c0.1,0.2,0.1,0.4,0.1,0.6C136.4,53.4,136.4,53.5,136.3,53.7z M138.9,47.2L138.9,47.2
			c-0.1,0.3-0.3,0.6-0.5,0.8c-0.2,0.2-0.5,0.4-0.8,0.5c-0.3,0.2-0.6,0.2-1,0.2h-4.2l0.6-1.6l0.6-1.6h6L138.9,47.2z"/>
		<path class="st0" d="M154.4,42h-5.7L142,58.8h5.2l1.8-4.4h5.5h0.5l-0.5,1.2l-1.3,3.2h1.3h3.9l6.8-16.8H154.4z M156.4,50.8h-1.9
			h-4.1l2.1-5.2h2h4.1L156.4,50.8z"/>
	</g>
</g>
</svg>
