<svg width="80" height="80" viewBox="0 0 80 80" fill="none" xmlns="http://www.w3.org/2000/svg">
<g clip-path="url(#clip0_706_2600)">
<path d="M72.3395 53.2162C72.008 52.0002 68.4729 52.5122 65.5691 52.2562C62.9178 52.0162 59.5247 51.5362 55.453 50.0962C51.6338 48.7522 47.9409 47.2162 44.7372 45.4562C44.7372 45.4562 43.4273 44.7682 43.2853 44.6882C43.017 44.5282 42.8119 44.4002 42.5436 44.2402C42.3858 44.1442 42.149 44.0002 41.9754 43.9202C41.7545 43.8242 41.5967 43.7122 41.4073 43.5842C41.2021 43.4562 40.9338 43.3282 40.7445 43.2002C40.4446 43.0082 40.271 42.8642 39.9869 42.6722C39.8133 42.5442 39.7344 42.4962 39.4977 42.3522C39.3557 42.2722 39.1032 42.1282 38.9769 42.0482C38.7244 41.8722 38.5666 41.7282 38.2983 41.5522C38.1405 41.4402 38.03 41.3762 37.8406 41.2482C37.6512 41.1362 37.4776 40.9922 37.3198 40.8642C37.2251 40.7842 37.0831 40.7202 37.0042 40.6242C36.8148 40.4322 36.6254 40.2722 36.4203 40.1122C36.2467 39.9842 36.0731 39.8082 35.8837 39.6642C35.7732 39.5842 35.5838 39.4082 35.4576 39.3282C35.1735 39.1202 34.9841 38.9602 34.7001 38.7362C34.5107 38.6082 34.3529 38.4162 34.1635 38.2722C33.9583 38.1122 33.7532 37.9362 33.548 37.7762C33.406 37.6802 33.2481 37.5522 33.1534 37.4402C33.0114 37.2642 32.8852 37.1522 32.7431 36.9922C32.6326 36.8802 32.4275 36.7362 32.317 36.6242C32.1434 36.4002 31.8751 36.1442 31.6384 35.9682C31.5121 35.8402 31.4648 35.7762 31.4017 35.7122C31.3543 35.6482 31.307 35.5842 31.1965 35.4562C31.086 35.3282 31.0387 35.2962 30.9914 35.2482C30.944 35.2002 30.8809 35.1362 30.7231 34.9922C30.6757 34.9442 30.5968 34.8162 30.5021 34.7042C30.439 34.6082 30.3601 34.5122 30.3127 34.4482C30.1707 34.2882 30.076 34.1922 29.9813 34.0802C29.9182 34.0002 29.8393 33.9202 29.7446 33.8242C29.6973 33.7602 29.6499 33.6962 29.6026 33.6162C29.5552 33.5522 29.5079 33.4882 29.4605 33.4242C29.3816 33.3282 29.3185 33.3602 29.2869 33.3762C29.2396 33.4082 29.2238 33.5042 29.2711 33.6322C29.3501 33.7762 29.4605 33.9362 29.5237 34.0322C29.5394 34.0482 29.5552 34.0802 29.5552 34.0802C29.5868 34.1282 29.6026 34.1602 29.6341 34.2082C29.6815 34.2722 29.713 34.3522 29.7604 34.4162C29.8708 34.5602 29.9813 34.6882 30.0918 34.8002C30.1391 34.8322 30.1707 34.8802 30.2023 34.9122C30.2812 34.9922 30.3443 35.0882 30.3916 35.1682C30.4548 35.2642 30.5179 35.3602 30.6126 35.4402C30.6442 35.4882 30.6757 35.5362 30.7073 35.5682C30.7388 35.6162 30.7862 35.6642 30.8335 35.7122C30.8967 35.7762 30.9598 35.8402 31.0229 35.9042C31.1334 36.0162 31.2439 36.1282 31.3543 36.2242C31.4332 36.2882 31.5279 36.3842 31.6068 36.4642C31.8278 36.7202 32.0645 36.9922 32.2539 37.2322C32.3644 37.3762 32.5695 37.4882 32.6958 37.5842C32.8378 37.6962 32.9483 37.8722 33.0588 38.0162C33.1534 38.1122 33.327 38.2882 33.4217 38.4002C33.6427 38.6722 33.7847 38.8322 34.0688 39.0402C34.2424 39.1682 34.3686 39.2802 34.5107 39.4562C34.5896 39.5522 34.8421 39.7922 34.9368 39.9202C35.1735 40.2242 35.2682 40.4962 35.2366 40.5122C35.0788 40.5602 34.6843 40.2082 34.4475 40.0482C34.2582 39.9202 34.2266 39.8722 34.053 39.7282C34.0057 39.6962 33.7216 39.4882 33.6269 39.3602C33.548 39.2802 33.327 39.0562 33.2639 38.9762C32.9325 38.5602 32.8378 38.5282 32.459 38.1602C32.1908 37.8882 31.8593 37.6482 31.5911 37.4082C31.5121 37.3282 31.4332 37.2322 31.3543 37.1522C31.2596 37.0562 31.165 36.9762 31.086 36.8962C30.9598 36.7362 30.7862 36.4322 30.6442 36.3202C30.4863 36.1922 30.3759 36.0802 30.218 35.9682C30.1707 35.9202 30.1076 35.8562 30.0602 35.8082C29.9813 35.7602 29.8866 35.6962 29.8393 35.6162C29.6499 35.3762 29.4763 35.1362 29.3027 34.9122C29.2238 34.8002 29.0975 34.7042 29.0186 34.5922C28.845 34.3362 28.6872 34.0802 28.5136 33.8402C28.2611 33.5042 27.8981 33.2642 27.6614 32.9442C27.4089 32.5922 27.2669 32.1922 27.0301 31.8402C26.9197 31.6802 26.7619 31.5682 26.6672 31.4242C26.604 31.3442 26.5725 31.2322 26.5093 31.1522C26.3831 30.9602 26.2411 30.7682 26.1148 30.5922C25.957 30.3522 25.8307 30.0802 25.6729 29.8082C25.6413 29.7762 25.594 29.6002 25.4835 29.4722C25.3888 29.3442 25.2942 29.2002 25.1837 29.0082C25.0732 28.8322 25.0101 28.7042 24.9312 28.5762C24.8523 28.4482 24.8049 28.3362 24.7418 28.2402C24.6944 28.1442 24.5682 27.9842 24.5366 27.9202C24.3788 27.6802 24.3472 27.5682 24.1894 27.3602C24.0947 27.2322 23.9843 27.1042 23.9054 27.1522C23.8422 27.2002 23.858 27.2802 23.8738 27.3442C23.9527 27.5362 23.9527 27.5042 24.0158 27.6482C24.1421 27.8722 24.1894 27.9842 24.3315 28.1922C24.3946 28.3042 24.5051 28.5282 24.584 28.6562C24.6787 28.7842 24.7576 28.9442 24.8207 29.0402C24.8838 29.1522 24.9785 29.4562 25.0732 29.5682C25.1363 29.6642 25.231 29.8402 25.2942 29.9682C25.4362 30.2242 25.594 30.4322 25.736 30.6402C25.8307 30.8162 25.9096 30.9922 26.0043 31.1522C26.1937 31.4242 26.3989 31.6802 26.5725 31.9682C26.6829 32.1602 26.7934 32.3682 26.9039 32.5602C27.0144 32.7202 27.1564 32.8642 27.2669 33.0242C27.3931 33.2162 27.4562 33.4402 27.5825 33.6322C27.693 33.7922 27.8192 33.9362 27.9139 34.0802C28.0875 34.3362 28.2453 34.5922 28.4189 34.8482C28.5136 34.9762 28.6557 35.0882 28.7503 35.2322C28.8924 35.4242 28.9871 35.6482 29.1449 35.7922C29.3185 35.9522 29.3658 36.0482 29.4921 36.2082C29.6815 36.4482 30.1865 37.1522 30.0918 37.1522C29.8077 37.2002 29.2554 36.5602 29.0186 36.3202C28.8293 36.1442 28.6399 36.0002 28.4978 35.8402C28.3242 35.5842 28.1822 35.2962 27.9928 35.0562C27.9139 34.9602 27.8192 34.8962 27.7561 34.8162C27.6298 34.6562 27.5036 34.4642 27.3616 34.3202C27.2984 34.2562 27.2353 34.2082 27.188 34.1442C26.967 33.8562 26.7776 33.5362 26.5409 33.2322C26.4462 33.1042 26.3357 32.9922 26.2411 32.8802C26.1779 32.7842 26.1306 32.6722 26.0675 32.5602C25.9885 32.4322 25.8623 32.2882 25.7676 32.1602C25.7045 32.0642 25.6571 31.9522 25.594 31.8562C25.4677 31.6802 25.3099 31.5202 25.1995 31.3282C25.1048 31.1842 25.0732 30.9762 24.9785 30.8322C24.726 30.4482 24.4577 30.0642 24.221 29.6802C24.1579 29.5842 24.1263 29.4722 24.079 29.3762C23.8738 29.0562 23.7002 28.7202 23.495 28.4162C23.4161 28.3042 23.4003 28.1602 23.3214 28.0482C23.2267 27.9042 23.1005 27.8082 23.0058 27.6642C22.9427 27.5522 22.9111 27.4402 22.8638 27.3122C22.7849 27.1522 22.6902 26.9922 22.6113 26.8322C22.5639 26.7362 22.5323 26.6402 22.4692 26.5602C22.2325 26.1922 22.0431 25.7922 21.8537 25.3762C21.759 25.1682 21.6012 24.9602 21.5065 24.7522C21.3961 24.5122 21.2856 24.2722 21.1751 24.0322C21.112 23.8722 21.0646 23.7122 21.0015 23.5522C20.8911 23.2962 20.7017 23.0882 20.5912 22.8322C20.5123 22.6562 20.4649 22.4962 20.4018 22.3522C20.3545 22.2722 20.2598 22.1922 20.2124 22.2242C20.1493 22.2562 20.1335 22.3362 20.1809 22.4802C20.2598 22.7522 20.4018 23.0402 20.4649 23.2002C20.5912 23.5042 20.6701 23.8082 20.7964 24.1122C20.8753 24.2882 20.9857 24.4482 21.0489 24.5922C21.1751 24.8802 21.3014 25.1682 21.4434 25.4402C21.5065 25.6002 21.5697 25.7602 21.6644 25.9042C21.7117 25.9842 21.7748 26.0642 21.8064 26.1602C21.8853 26.3522 21.9169 26.5602 21.9958 26.7362C22.0905 26.9282 22.2325 27.0882 22.3272 27.2642C22.7849 28.2402 23.2267 29.1522 23.7633 30.0162C23.9211 30.2562 23.9843 30.5442 24.1421 30.7842C24.2999 31.0402 24.5208 31.2162 24.6629 31.4722C24.7891 31.6642 24.8207 31.9522 24.947 32.1602C25.1206 32.4802 25.3573 32.7522 25.5467 33.0562C25.594 33.1362 25.6098 33.2482 25.6729 33.3282C25.7518 33.4562 25.8465 33.5682 25.9096 33.6802C26.0043 33.8402 26.0517 34.0162 26.1621 34.1602C26.2726 34.3202 26.4462 34.4482 26.5567 34.6242C26.6987 34.8162 26.7934 35.0562 26.9512 35.2482C27.0617 35.3922 27.2195 35.4882 27.3142 35.6322C27.4878 35.8562 28.056 36.6082 28.2138 36.8322C28.4663 37.1522 28.9082 37.6322 29.1291 38.0642C29.1922 38.1922 29.429 38.5122 29.3658 38.5762C29.2396 38.6562 28.6872 38.0322 28.5925 37.9362C28.3558 37.7122 28.1506 37.3922 27.9455 37.1202C27.8981 37.0562 27.3458 36.5282 27.3142 36.4642C27.2669 36.4002 27.2037 36.3202 27.1564 36.2402C26.9986 36.0162 26.9197 35.7282 26.7461 35.5202C26.6829 35.4402 26.5725 35.3602 26.5093 35.2802C26.3831 35.1202 26.3042 34.9282 26.1779 34.7522C25.9885 34.4802 25.736 34.2402 25.5467 33.9842C25.3415 33.6962 25.1995 33.3442 24.9785 33.0562C24.868 32.9122 24.7418 32.7842 24.6313 32.6242C24.584 32.5602 24.5682 32.4962 24.5208 32.4162C24.4419 32.3042 24.3315 32.1602 24.2841 32.0322C24.221 31.9042 24.1894 31.7922 24.1263 31.6802C23.9054 31.3282 23.6844 30.9442 23.4635 30.5922C23.353 30.4322 23.3057 30.2562 23.211 30.1122C23.0374 29.8562 22.8322 29.6162 22.6744 29.3442C22.485 29.0402 22.3745 28.6562 22.1694 28.3522C22.0431 28.1442 21.8853 27.9522 21.759 27.7442C21.617 27.5202 21.5381 27.2642 21.4118 27.0242C21.3014 26.8162 21.1436 26.6242 21.0489 26.4162C20.9384 26.1922 20.8595 25.9682 20.7648 25.7282C20.7017 25.6162 20.607 25.4882 20.5596 25.3602C20.4965 25.2002 20.4807 25.0402 20.4018 24.8962C20.2124 24.4642 19.9126 24.0482 19.7232 23.6162C19.5812 23.3122 19.4549 22.9922 19.3287 22.6722C19.2655 22.4962 19.234 22.3202 19.1551 22.1602C18.9815 21.7602 18.7605 21.3442 18.5869 20.9442C18.508 20.7362 18.4449 20.5282 18.366 20.3202C18.3502 20.2562 18.3502 20.1922 18.3186 20.1282C18.2397 19.9522 18.1292 19.7602 18.0503 19.5842C17.9872 19.3762 17.9241 19.1522 17.8452 18.9442C17.5769 18.2402 17.3244 17.4562 17.0719 16.7362C17.0403 16.6082 17.0245 16.4322 16.9772 16.3042C16.7562 15.9522 16.6142 15.5682 16.4722 15.2002C16.409 15.0082 16.2197 15.0722 16.267 15.2642C16.3301 15.5202 16.3459 15.5842 16.3933 15.7922C16.4248 15.8882 16.4406 16.0002 16.4564 16.0962C16.4879 16.2242 16.5511 16.3522 16.5826 16.4642C16.6458 16.6882 16.6615 16.9122 16.7247 17.1202C16.8351 17.4242 16.9298 17.7122 17.0245 18.0162C17.0561 18.1762 17.0877 18.3202 17.1192 18.4802C17.1666 18.6242 17.2139 18.7682 17.277 18.8962C17.4349 19.2802 17.5769 19.6322 17.7031 20.0162C17.7505 20.2402 17.8136 20.4482 17.861 20.6562C17.9241 20.7682 18.003 20.8962 18.0503 21.0082C18.0977 21.1202 18.1135 21.2002 18.1608 21.3122C18.2555 21.5522 18.3344 21.7922 18.4449 22.0482C18.5396 22.2402 18.6343 22.4482 18.7132 22.6562C18.7447 22.7682 18.7447 22.8482 18.7921 22.9602C19.013 23.6002 19.2655 24.2562 19.5338 24.8642C19.5969 25.0242 19.6127 25.1682 19.6916 25.3282C19.7548 25.4562 19.8337 25.5842 19.881 25.7122C19.9126 25.7922 19.9441 25.8722 19.9757 25.9522C20.0546 26.1282 20.1967 26.2722 20.2756 26.4482C20.5123 26.9442 20.7175 27.4082 21.0015 27.8402C21.2698 28.2402 21.3961 28.7522 21.5854 29.2162C21.6801 29.4402 21.8222 29.6322 21.9326 29.8242C21.9958 29.9202 22.0273 30.0322 22.0747 30.1442C22.2167 30.3842 22.2798 30.5922 22.4377 30.8162C22.5639 30.9922 22.5481 31.0402 22.6586 31.2802C22.6902 31.3602 22.8164 31.8242 22.7849 31.8242C22.7375 31.8562 22.5166 31.7122 22.4377 31.6322C22.343 31.5202 22.1694 31.3602 22.0589 31.1042C21.9958 30.9762 21.8853 30.7682 21.8222 30.6402C21.6801 30.3362 21.4434 30.0642 21.2698 29.7922C21.1593 29.6322 21.112 29.4402 21.0331 29.2642C20.8753 28.9442 20.7175 28.6082 20.5596 28.2722C20.4965 28.1282 20.4018 28.0002 20.3229 27.8722C20.244 27.7442 20.1967 27.6002 20.1177 27.4722C19.9757 27.2002 19.7705 26.8802 19.6285 26.5762C19.518 26.3522 19.4707 26.1122 19.3602 25.8882C19.3287 25.8242 19.2655 25.7442 19.2182 25.6802C19.1393 25.5682 19.1235 25.4402 19.0604 25.2962C18.9815 25.1202 18.871 24.9602 18.7763 24.7842C18.6185 24.4322 18.5238 24.0642 18.3502 23.7122C18.2713 23.5522 18.145 23.4082 18.0661 23.2482C17.9557 22.9922 17.9399 22.6882 17.8294 22.4322C17.5295 21.7442 17.1823 21.0242 16.9141 20.3202C16.8667 20.1922 16.8667 20.0642 16.8194 19.9362C16.7247 19.6322 16.5826 19.3442 16.4722 19.0242C16.4248 18.8802 16.409 18.7522 16.3617 18.6082C16.2828 18.4002 16.1881 18.1762 16.1092 17.9682C16.0934 17.9042 16.0776 17.8242 16.0461 17.7602C15.9514 17.5522 15.904 17.3282 15.8093 17.1202C15.762 17.0082 15.6831 16.8962 15.6515 16.7842C15.5884 16.5762 15.6042 16.3202 15.5253 16.1122C15.4148 15.8242 15.2885 15.5042 15.1938 15.2162C15.1307 15.0402 15.1149 14.8802 15.0518 14.7202C14.9887 14.5282 14.9098 14.3042 14.8467 14.1122C14.7835 13.9042 14.7835 13.6962 14.7046 13.4882C14.6573 13.3282 14.5941 13.1682 14.5468 13.0082C14.4363 12.7362 14.4048 12.4322 14.3101 12.1602C14.2785 12.1122 14.2627 12.0642 14.2469 12.0162C14.2154 11.9522 14.1838 11.8722 14.1049 11.9042C14.026 11.9202 14.026 12.0162 14.026 12.0962C14.0418 12.3042 14.1207 12.4962 14.1838 12.6722C14.2469 12.8482 14.2785 13.0402 14.3259 13.2162C14.3416 13.3282 14.3416 13.4402 14.3732 13.5522C14.4205 13.7122 14.4679 13.8722 14.5152 14.0322C14.5626 14.1922 14.531 14.3522 14.5784 14.4802C14.6888 14.8322 14.7993 15.2322 14.9098 15.5682C14.9571 15.7442 14.9729 15.9522 15.0202 16.0962C15.0834 16.2722 15.1465 16.4642 15.2096 16.6402C15.257 16.7842 15.2728 16.9282 15.3359 17.0722C15.399 17.2162 15.4779 17.3762 15.5253 17.5522C15.5884 17.7762 15.5884 17.9842 15.6673 18.1922C15.7936 18.5282 15.9356 18.8482 16.0618 19.1682C16.0934 19.2802 16.1092 19.4082 16.1565 19.5362C16.2512 19.8242 16.3301 20.1122 16.4248 20.3842C16.5669 20.7842 16.7562 21.1842 16.8983 21.5682C17.0403 21.9522 17.0561 22.4322 17.2139 22.7842C17.2928 22.9602 17.4664 23.0722 17.5453 23.2482C17.6085 23.3602 17.5927 23.4882 17.6242 23.6162C17.6716 23.7602 17.7505 23.9202 17.7978 24.0642C17.8294 24.1922 17.861 24.3042 17.8925 24.4322C17.9399 24.5762 18.0503 24.7362 18.1135 24.8802C18.2239 25.1042 18.2713 25.3602 18.3975 25.5522C18.4922 25.7122 18.6185 25.8562 18.7132 26.0322C18.8079 26.2242 18.8394 26.4322 18.9183 26.6402C19.0446 26.9282 19.2024 27.2162 19.3129 27.5202C19.4234 27.8082 19.4549 28.0962 19.5812 28.3522C19.7074 28.5922 19.881 28.8162 20.0073 29.0562C20.0862 29.2482 20.1651 29.4242 20.244 29.6002C20.3071 29.7442 20.4492 29.8722 20.5281 30.0322C20.6228 30.2242 20.7175 30.4162 20.8121 30.5922C20.8753 30.7362 20.9068 30.8642 20.9857 30.9922C21.0962 31.1842 21.1909 31.3282 21.3172 31.5202C21.4276 31.6962 21.5381 31.9042 21.617 32.1122C21.6801 32.2562 21.7433 32.4162 21.8222 32.5442C21.9169 32.6722 22.0273 32.7842 22.122 32.9282C22.2009 33.0722 22.3114 33.5202 22.2641 33.5362C22.1694 33.5682 21.8853 33.3122 21.8064 33.2002C21.5854 32.9442 21.475 32.5762 21.2856 32.2882C21.0804 31.9842 20.9384 31.8082 20.7806 31.4562C20.6859 31.2482 20.5123 30.8962 20.4018 30.7042C20.2913 30.5442 20.1493 30.3842 20.0546 30.1922C19.9915 30.0322 19.9599 29.8402 19.881 29.6962C19.7705 29.4722 19.5654 29.3282 19.4549 29.0882C19.3287 28.8322 19.2813 28.5602 19.1551 28.3202C19.0919 28.1922 19.013 28.0642 18.9499 27.9522C18.871 27.7922 18.8394 27.6482 18.7605 27.4882C18.6185 27.1682 18.3975 26.8962 18.2555 26.5922C18.1135 26.2722 18.0188 25.9202 17.861 25.5842C17.7821 25.4082 17.64 25.2642 17.5453 25.0722C17.4349 24.8322 17.3875 24.5922 17.277 24.3522C17.2139 24.2082 17.1034 24.0642 17.0403 23.9202C16.9456 23.7122 16.9141 23.4882 16.8194 23.2802C16.5984 22.8002 16.3775 22.3042 16.1723 21.8082C16.0934 21.6162 16.0776 21.4242 15.9829 21.2482C15.904 21.0882 15.8251 20.9282 15.7304 20.7522C15.5568 20.3202 15.4779 19.8402 15.2885 19.4082C15.1938 19.1842 15.0676 18.9762 14.9887 18.7522C14.8624 18.3842 14.7993 18.0002 14.6731 17.6322C14.4679 17.0562 14.3101 16.4642 14.1049 15.9042C14.0733 15.7602 14.0576 15.5842 13.9944 15.4082C13.9313 15.2482 13.8682 15.0722 13.8051 14.9122C13.7577 14.7842 13.7419 14.5922 13.7104 14.4162C13.5525 13.9362 13.4105 13.4562 13.2527 12.9602C13.2211 12.8482 13.2211 12.6402 13.1738 12.4962C13.1422 12.4002 13.1107 12.3042 13.0791 12.2242C13.0318 12.1122 13.0318 12.0162 13.0002 11.9042C12.8897 11.5522 12.795 11.1362 12.6846 10.7842C12.653 10.6882 12.653 10.5282 12.6214 10.4002C12.4636 9.8882 12.3847 9.2802 12.1795 8.8002C12.148 8.7202 12.0848 8.6242 12.0059 8.6402C11.9113 8.6562 11.927 8.7682 11.9428 8.8482C11.9586 9.0882 12.0533 9.2802 12.0848 9.4722C12.1006 9.5682 12.1006 9.6802 12.1164 9.7762C12.1322 9.8562 12.1322 9.9682 12.1638 10.0642C12.2584 10.3682 12.3689 10.7202 12.4478 11.0082C12.4794 11.1522 12.4478 11.3762 12.4952 11.5362C12.6214 12.0162 12.7161 12.5762 12.8897 13.0082C13.0475 13.3922 13.0791 13.8722 13.1896 14.2882C13.2211 14.4802 13.2369 14.6562 13.2685 14.8482C13.3 15.0242 13.3947 15.1522 13.4421 15.2962C13.4894 15.4082 13.4736 15.5042 13.521 15.6162C13.6157 15.9202 13.6788 16.2242 13.7893 16.5282C13.8682 16.7362 13.9787 16.9442 14.0576 17.1362C14.0891 17.2322 14.0733 17.3122 14.1049 17.4082C14.1523 17.6162 14.1838 17.8242 14.2469 18.0482C14.389 18.4642 14.5468 18.9122 14.6888 19.3282C14.7677 19.5522 14.7993 19.7762 14.8782 20.0002C15.2096 20.8962 15.541 21.7922 15.8567 22.6882C15.904 22.8802 15.9672 23.0882 16.0145 23.2802C16.0934 23.4882 16.2039 23.6482 16.2828 23.8402C16.3933 24.0802 16.4248 24.3202 16.5037 24.5602C16.6142 24.8482 16.7405 25.0722 16.8509 25.3762C16.8983 25.5202 16.9456 25.6642 17.0245 25.8082C17.0719 25.9042 17.1666 26.0162 17.2139 26.1122C17.3086 26.2882 17.3086 26.5122 17.4033 26.6882C17.4822 26.8642 17.64 27.0082 17.7347 27.1842C17.8294 27.3442 17.8294 27.5362 17.9083 27.7122C18.0346 27.9842 18.1924 28.2402 18.3028 28.5282C18.3502 28.6562 18.3818 28.7682 18.4291 28.8802C18.4922 29.0082 18.5869 29.1362 18.65 29.2802C18.65 29.2802 18.65 29.2802 18.6658 29.2962C18.6658 29.3122 18.6816 29.3442 18.6816 29.3762C18.6974 29.4242 18.7132 29.5042 18.729 29.5522C18.7605 29.6322 18.8394 29.7602 18.871 29.8242C18.8868 29.8562 18.9657 29.9202 19.013 29.9842C19.0446 30.0002 19.0604 30.0322 19.0762 30.0642C19.1866 30.2562 19.2024 30.5122 19.2971 30.7202C19.3918 30.9122 19.5654 31.0722 19.6601 31.2962C19.739 31.4562 19.7705 31.8402 19.6759 31.8562C19.2813 31.8562 19.2498 31.2962 19.1235 30.9922C19.013 30.7682 18.8552 30.5762 18.729 30.3522C18.6974 30.3042 18.6658 30.2242 18.6343 30.1282C18.6185 30.0482 18.5711 29.9682 18.5396 29.9042C18.4922 29.7922 18.4922 29.8082 18.4607 29.7282C18.4291 29.6482 18.3186 29.5042 18.2713 29.4402C18.2713 29.4402 18.2713 29.4402 18.2713 29.4242C18.0977 29.1522 17.9872 28.8002 17.8767 28.6402C17.8136 28.5442 17.7347 28.4482 17.6716 28.3522C17.5769 28.1922 17.5138 28.0002 17.4349 27.8242C17.3559 27.6642 17.2455 27.5042 17.1666 27.3282C17.0719 27.1362 17.0719 26.8802 16.9772 26.6722C16.9298 26.5602 16.8351 26.4482 16.7878 26.3522C16.6773 26.1122 16.6142 25.8722 16.5037 25.6482C16.4722 25.5522 16.3617 25.4402 16.3144 25.3282C16.2197 25.1362 16.1723 24.9282 16.0776 24.7522C15.8567 24.3682 15.6357 23.9522 15.4621 23.5362C15.3674 23.2962 15.3201 23.0562 15.2254 22.8322C15.1465 22.6402 15.0202 22.4322 14.9256 22.2402C14.8624 22.1122 14.8467 21.9842 14.7993 21.8402C14.7204 21.6162 14.6099 21.3762 14.531 21.1682C14.4837 21.0082 14.4363 20.6722 14.389 20.5442C14.3259 20.3682 14.2469 20.1922 14.168 20.0162C14.0576 19.7762 14.026 19.5202 13.9155 19.2642C13.8366 19.0722 13.7419 18.8642 13.663 18.6722C13.5999 18.5122 13.5841 18.3522 13.521 18.1922C13.4736 18.0802 13.3947 17.9362 13.3632 17.8242C13.3158 17.6802 13.2685 17.4402 13.2369 17.2482C13.1738 17.0402 13.0791 16.8322 13.016 16.6242C12.9844 16.4642 12.9686 16.0962 12.9371 16.0002C12.7319 15.3602 12.5267 14.6562 12.3216 14.0002C12.2269 13.6962 12.1795 13.4082 12.1006 13.1042C12.0691 12.9922 12.0691 12.8322 12.0375 12.7202C11.9744 12.5282 11.8955 12.3362 11.8323 12.1442C11.8008 12.0162 11.785 11.8722 11.7692 11.7442C11.7377 11.6162 11.6587 11.4722 11.6114 11.3442C11.4851 10.9442 11.422 10.5282 11.3115 10.1442C11.2642 9.9842 11.2642 9.7762 11.2169 9.6322C11.0748 9.1522 11.0275 8.6082 10.9012 8.1122C10.8697 7.9522 10.8539 7.8082 10.8223 7.6802C10.5698 6.7522 10.4593 5.6962 10.191 4.8002C10.1437 4.6402 10.2068 4.4162 10.1753 4.2242C10.1121 4.0162 10.0648 3.8402 10.0017 3.6482C9.9701 3.5522 9.9701 3.4882 9.95432 3.3922C9.90697 3.2482 9.82806 3.1202 9.74915 3.1362C9.65446 3.1682 9.67025 3.2642 9.68603 3.3922C9.68603 3.6002 9.71759 3.7762 9.74915 3.9362C9.78072 4.0802 9.76494 4.2082 9.81228 4.3202C9.89119 4.6082 9.92275 5.0242 9.9701 5.2802C9.98588 5.3922 9.9701 5.5362 10.0017 5.6642C10.0332 5.7922 10.1279 5.9682 10.1595 6.1122C10.1753 6.3202 10.1753 6.5602 10.191 6.7842C10.2384 6.9602 10.2857 7.1202 10.3331 7.2962C10.3804 7.4402 10.3489 7.5682 10.3804 7.7122C10.4278 7.8402 10.5067 7.9682 10.5225 8.1122C10.5382 8.2722 10.5225 8.5282 10.554 8.6722C10.7592 9.4882 10.8223 10.4642 11.059 11.2482C11.0906 11.3602 11.0906 11.4882 11.1222 11.6002C11.3115 12.2882 11.4694 13.0242 11.6745 13.6962C11.7061 13.8082 11.7061 13.9202 11.7219 14.0322C11.785 14.2722 11.8481 14.5282 11.8955 14.7682C11.9113 14.8802 11.9113 14.9762 11.9428 15.0882C12.0217 15.3602 12.1164 15.6002 12.1953 15.8402C12.2269 15.9682 12.2427 16.0802 12.2584 16.2082C12.2742 16.3042 12.3216 16.4162 12.3531 16.4962C12.4005 16.6402 12.3847 16.7682 12.432 16.9122C12.4636 16.9922 12.5267 17.0722 12.5425 17.1522C12.5741 17.2962 12.5899 17.4562 12.6372 17.6002C12.7003 17.7762 12.795 17.9362 12.8582 18.1122C12.9055 18.2562 12.9055 18.4002 12.9686 18.5442C13.0633 18.7842 13.1738 19.0722 13.2685 19.3282C13.3474 19.5362 13.3474 19.7602 13.4263 19.9682C13.4736 20.1122 13.5368 20.2562 13.5999 20.4002C13.6315 20.5122 13.6472 20.6242 13.6946 20.7362C13.7261 20.8322 13.8366 20.9922 13.8997 21.1362C13.9629 21.2802 13.9313 21.4882 13.9787 21.6482C14.026 21.8082 14.1207 21.9522 14.168 22.0962C14.2154 22.2562 14.2154 22.4162 14.2627 22.5762C14.3101 22.7042 14.389 22.8162 14.4363 22.9282C14.4837 23.0562 14.531 23.2002 14.5784 23.3282C14.6099 23.4082 14.6888 23.5042 14.7204 23.5842C14.7993 23.7282 14.8467 23.9042 14.9098 24.0642C15.0045 24.2882 15.0045 24.5602 15.0676 24.8162C15.0834 24.8962 15.0834 25.0722 15.036 25.0882C14.9413 25.1042 14.8151 24.9442 14.752 24.8482C14.6257 24.6722 14.5152 24.4802 14.4363 24.2882C14.4048 24.2082 14.389 24.1282 14.3574 24.0642C14.2943 23.9042 14.2312 23.6962 14.168 23.5202C14.1207 23.4082 14.0576 23.2962 14.0102 23.1842C13.9629 23.0242 13.9787 22.8322 13.9155 22.6882C13.8682 22.5602 13.7735 22.4642 13.7104 22.3522C13.663 22.2402 13.6472 22.1282 13.5999 22.0162C13.5368 21.8722 13.4579 21.7602 13.3947 21.6322C13.3474 21.4722 13.3474 21.3442 13.3158 21.2162C13.2685 21.0402 13.2211 20.8802 13.1422 20.7202C13.0791 20.5602 12.9844 20.4002 12.9213 20.2402C12.8897 20.1442 12.8739 20.0642 12.8424 19.9682C12.795 19.8402 12.7477 19.7122 12.6846 19.6002C12.6688 19.5202 12.6372 19.4082 12.6056 19.3282C12.5425 19.2002 12.4794 19.0562 12.432 18.9122C12.3847 18.8002 12.3847 18.6722 12.3374 18.5602C12.2742 18.3522 12.1953 18.1122 12.1322 17.9202C12.0848 17.7602 12.0691 17.6002 12.0217 17.4402C11.9586 17.2642 11.8797 17.0722 11.8166 16.8962C11.7692 16.7522 11.7534 16.5922 11.7061 16.4322C11.643 16.2402 11.5325 16.0482 11.4694 15.8402C11.422 15.6802 11.422 15.5042 11.3905 15.3602C11.28 14.9602 11.1537 14.5282 11.0275 14.1282C10.9012 13.6962 10.8854 13.2002 10.7592 12.7522C10.6645 12.4322 10.554 12.1282 10.4593 11.8082C10.4278 11.6482 10.412 11.4882 10.3804 11.3282C10.3015 10.9922 10.1753 10.5282 10.049 10.1602C10.0017 9.9682 10.0174 9.7602 9.95432 9.5522C9.90697 9.3442 9.89119 9.1042 9.82806 8.8642C9.7965 8.7362 9.73337 8.6402 9.70181 8.4642C9.67025 8.2882 9.67025 8.0802 9.65446 7.9522C9.6229 7.8242 9.40196 7.0402 9.37039 6.8962C9.33883 6.7522 9.33883 6.4962 9.33883 6.4002C9.32305 6.3362 9.21258 6.0002 9.19679 5.9202C9.18101 5.8242 9.18101 5.7282 9.13367 5.5522C9.1021 5.3762 9.00741 4.9922 8.99163 4.8802C8.97585 4.7682 8.97585 4.5442 8.94429 4.4322C8.9285 4.3202 8.8496 4.0642 8.80225 3.8882C8.73912 3.6642 8.78647 3.4242 8.72334 3.2162C8.69178 3.0562 8.62865 2.9122 8.58131 2.7682C8.53396 2.6402 8.5024 2.4642 8.48662 2.3842C8.48662 2.2562 8.47083 2.0162 8.47083 1.9362C8.47083 1.8082 8.40771 1.6002 8.40771 1.4082C8.37614 1.1682 8.3288 0.896198 8.29724 0.736198C8.26567 0.640198 8.28145 0.544198 8.24989 0.464198C8.20255 0.208198 8.13942 -0.0158025 8.01316 0.000197524C7.91847 0.0161975 7.88691 0.0961975 7.93426 0.256198C7.9816 0.448198 7.99738 0.592198 8.04473 0.784198C8.06051 0.880198 8.07629 1.1362 8.07629 1.2162C8.09207 1.3602 8.09207 1.3762 8.10786 1.5202C8.10786 1.5522 8.13942 1.6802 8.1552 1.7442C8.17098 1.8242 8.20255 1.9522 8.20255 2.0162C8.20255 2.1122 8.20255 2.1922 8.20255 2.3202C8.20255 2.3842 8.20255 2.4002 8.23411 2.5122C8.24989 2.6242 8.24989 2.6402 8.26567 2.7362C8.26567 2.8162 8.26567 2.8962 8.26567 2.9602C8.26567 3.0402 8.28145 3.1202 8.29724 3.2002C8.34458 3.3602 8.45505 3.5842 8.40771 3.8242C8.36036 4.0802 8.43927 4.3202 8.5024 4.5442C8.51818 4.6882 8.5024 4.8482 8.51818 4.9922C8.56553 5.1842 8.61287 5.3762 8.66022 5.5842C8.70756 5.7442 8.676 5.8882 8.72334 6.0482C8.78647 6.2562 8.9285 6.5602 8.94429 6.6562C8.96007 6.7522 8.96007 7.0082 8.99163 7.1842C9.0232 7.3282 9.05476 7.5202 9.07054 7.6322C9.08632 7.7442 9.07054 7.7762 9.08632 7.8722C9.08632 7.9362 9.19679 8.3042 9.21258 8.4002C9.22836 8.4962 9.22836 8.5602 9.24414 8.6562C9.25992 8.7522 9.35461 9.1522 9.37039 9.2962C9.38617 9.4242 9.37039 9.5042 9.40196 9.6322C9.4493 9.8242 9.52821 10.0002 9.55977 10.1922C9.59134 10.3362 9.57556 10.4322 9.59134 10.5442C9.63868 10.7202 9.70181 10.8802 9.73337 11.0402C9.76494 11.1682 9.76494 11.3122 9.78072 11.4402C9.84384 11.7442 9.89119 12.0322 9.95432 12.3202C10.0017 12.4962 10.1121 12.6402 10.1595 12.8002C10.191 12.9602 10.2068 13.1202 10.2542 13.2802C10.2857 13.4082 10.3804 13.5202 10.412 13.6642C10.4278 13.7762 10.4278 13.9042 10.4436 14.0322C10.4751 14.1442 10.5382 14.2882 10.554 14.4322C10.5698 14.5282 10.5698 14.6402 10.6014 14.7522C10.6329 14.8642 10.6961 14.9762 10.7276 15.0882C10.7592 15.2482 10.7592 15.3922 10.7907 15.5362C10.8381 15.7122 10.9012 15.8722 10.9643 16.0322C11.0117 16.1762 10.9801 16.3362 11.0275 16.5122C11.1222 16.8642 11.2484 17.2482 11.3589 17.5682C11.4062 17.7442 11.3905 17.9202 11.4694 18.1122C11.5167 18.2402 11.5641 18.3202 11.6114 18.4322C11.6587 18.5442 11.6114 18.6722 11.6587 18.8002C11.7061 19.0082 11.7377 19.2962 11.8166 19.5042C11.8955 19.7442 12.0375 19.9362 12.1164 20.1602C12.1953 20.4002 12.1953 20.6402 12.2742 20.8962C12.3531 21.1042 12.4636 21.3122 12.5425 21.5042C12.6056 21.6802 12.5899 21.9042 12.653 22.0802C12.7161 22.2722 12.8582 22.4322 12.9371 22.6242C13.0318 22.8482 13.0791 23.0882 13.1422 23.3122C13.158 23.4082 13.1896 23.5042 13.2054 23.6002C13.2843 23.9042 13.4421 24.1602 13.5525 24.4322C13.5999 24.5602 13.5999 24.6722 13.6472 24.8002C13.7104 25.0082 13.8051 25.2162 13.8997 25.4242C13.9787 25.6002 14.0891 25.7762 14.168 25.9522C14.2312 26.1122 14.2469 26.2722 14.3259 26.4482C14.389 26.6082 14.4679 26.8002 14.531 26.9602C14.5784 27.0562 14.5784 27.1522 14.6257 27.2482C14.8309 27.7122 15.0676 28.1602 15.2885 28.6082C15.399 28.8482 15.4464 29.1202 15.5568 29.3762C15.6515 29.5682 15.762 29.7602 15.8409 29.9682C15.8882 30.0962 15.904 30.2242 15.9672 30.3522C16.0776 30.5922 16.2354 30.8482 16.3459 31.0882C16.3775 31.1522 16.4564 31.4082 16.4248 31.5042C16.4248 31.5202 16.4248 31.5362 16.3933 31.5522C16.3301 31.5682 16.1723 31.4402 16.0776 31.3602C15.7936 31.0722 15.7462 30.5442 15.541 30.1602C15.4779 30.0642 15.4148 29.9362 15.3674 29.8242C15.3359 29.7442 15.3201 29.6642 15.2885 29.5842C15.1465 29.4082 15.0045 29.1842 14.894 28.9282C14.8151 28.7522 14.7993 28.5442 14.7204 28.3682C14.389 27.6482 14.0102 26.9602 13.7104 26.2402C13.5683 25.9202 13.5368 25.5522 13.4105 25.1842C13.3158 24.9762 13.1896 24.8162 13.1107 24.6082C13.0475 24.4482 13.0318 24.2882 12.9528 24.1282C12.8582 23.9202 12.7319 23.7282 12.653 23.5042C12.6056 23.3602 12.5899 23.2162 12.5267 23.0722C12.4636 22.9122 12.3531 22.7842 12.29 22.6242C12.1953 22.4002 12.1795 22.1762 12.1006 21.9202C12.0533 21.7762 12.0059 21.6322 11.9586 21.5202C11.927 21.3922 11.9113 21.2802 11.8639 21.1682C11.7692 20.8962 11.6114 20.6562 11.5009 20.3682C11.4378 20.1922 11.4536 19.9522 11.3589 19.7602C11.2958 19.6162 11.1853 19.4882 11.1222 19.3442C11.059 19.1842 11.1222 18.9922 11.0748 18.7842C11.0275 18.6082 10.9486 18.4322 10.8854 18.2562C10.8539 18.1442 10.8539 18.0482 10.8223 17.9362C10.7434 17.7122 10.6645 17.4882 10.5856 17.2642C10.5382 17.1522 10.5382 17.0402 10.4909 16.9442C10.4278 16.8162 10.3331 16.6882 10.2857 16.5442C10.2384 16.3202 10.2226 16.0962 10.1595 15.8882C10.0964 15.6322 10.0017 15.4082 9.90697 15.1362C9.89119 15.0402 9.89119 14.9602 9.87541 14.8642C9.81228 14.6242 9.78072 14.3522 9.70181 14.1122C9.68603 14.0002 9.68603 13.8882 9.65446 13.7762C9.59134 13.5522 9.51243 13.3122 9.4493 13.1042C9.40196 12.9602 9.40196 12.8162 9.37039 12.6722C9.25992 12.3202 9.14945 11.8882 9.05476 11.5522C9.0232 11.4402 9.0232 11.3442 9.00741 11.2322C8.91272 10.9602 8.80225 10.6402 8.73912 10.3522C8.70756 10.1922 8.70756 10.0322 8.676 9.8722C8.62865 9.6802 8.56553 9.5042 8.53396 9.3122C8.51818 9.2162 8.53396 9.1522 8.51818 9.0882C8.5024 8.9602 8.5024 8.8322 8.47083 8.7042C8.34458 8.2082 8.1552 7.6002 8.04473 7.1042C8.01316 6.9282 8.01316 6.7522 7.99738 6.5602C7.9816 6.4482 7.96582 6.3042 7.93426 6.1762C7.88691 6.0322 7.83957 5.9042 7.808 5.7762C7.79222 5.5522 7.79222 5.3442 7.76066 5.1362C7.76066 5.1202 7.76066 5.1042 7.74488 5.0882C7.69753 4.8322 7.57128 4.3202 7.53971 4.1122C7.50815 3.8722 7.49237 3.6162 7.4608 3.3762C7.4608 3.2162 7.42924 3.0562 7.41346 2.8802C7.36611 2.6242 7.30299 2.4002 7.27142 2.1282C7.25564 1.9522 7.25564 1.7922 7.23986 1.6482C7.23986 1.5522 7.22408 1.3922 7.11361 1.3922C7.00313 1.3922 7.01892 1.5362 7.00313 1.6482C6.98735 1.9202 7.0347 2.2562 7.06626 2.4322C7.09783 2.7362 7.06626 3.0402 7.11361 3.3442C7.12939 3.5042 7.17673 3.6802 7.19252 3.8402C7.22408 4.1282 7.25564 4.4322 7.30299 4.7042V4.7202C7.31877 4.8642 7.33455 4.9922 7.35033 5.1202C7.35033 5.1362 7.35033 5.1522 7.35033 5.1522C7.35033 5.1682 7.35033 5.1682 7.35033 5.1682V5.1842C7.36611 5.2482 7.3819 5.2962 7.39768 5.3602C7.42924 5.4722 7.41346 5.5682 7.44502 5.6802C7.55549 6.0322 7.53971 6.4002 7.61862 6.7362C7.74488 7.2322 7.82378 7.7762 7.95004 8.2562C7.99738 8.4002 7.95004 8.5442 7.99738 8.7042C8.04473 8.8642 8.07629 9.0082 8.10786 9.1682C8.13942 9.3602 8.12364 9.5522 8.17098 9.7282C8.21833 9.9042 8.26567 10.0802 8.31302 10.2402C8.37614 10.4482 8.37614 10.6562 8.42349 10.8802C8.48662 11.0882 8.56553 11.3282 8.59709 11.5522C8.64443 11.8082 8.66022 12.0962 8.70756 12.3522C8.75491 12.5762 8.86538 12.8322 8.9285 13.0882C8.94429 13.1682 8.9285 13.2482 8.94429 13.3282C8.97585 13.5042 9.0232 13.6642 9.07054 13.8402C9.08632 13.9202 9.08632 13.9842 9.1021 14.0642C9.18101 14.3842 9.2757 14.7842 9.37039 15.1042C9.41774 15.2002 9.43352 15.2802 9.4493 15.3762C9.51243 15.6002 9.57556 15.7602 9.60712 15.8882C9.6229 16.0002 9.63868 16.1282 9.67025 16.2402C9.71759 16.4162 9.76494 16.5602 9.7965 16.7042C9.82806 16.8322 9.84384 16.9282 9.87541 17.0562C9.90697 17.2002 9.9701 17.3282 10.0332 17.4722C10.1279 17.7602 10.1437 18.0642 10.2384 18.3362C10.3015 18.4962 10.3646 18.6722 10.4278 18.8482C10.4751 19.0082 10.4751 19.2002 10.5382 19.3922C10.6329 19.6642 10.7434 19.9842 10.8381 20.2562C10.9643 20.5922 11.0275 20.9442 11.1379 21.2642C11.1853 21.3922 11.1695 21.5042 11.2169 21.6482C11.3115 21.9522 11.4062 22.3042 11.5167 22.6242C11.5641 22.7842 11.5641 22.9442 11.643 23.1042C11.7377 23.3602 11.8955 23.5842 11.9902 23.8562C12.0691 24.0962 12.0848 24.3202 12.1795 24.5442C12.29 24.8322 12.432 25.1202 12.5425 25.4242C12.6214 25.6322 12.6372 25.8402 12.7319 26.0482C12.8108 26.2242 12.9055 26.3842 12.9844 26.5602C13.0318 26.7202 13.0791 26.8642 13.1422 27.0082C13.1738 27.1202 13.3 27.3282 13.3947 27.4722C13.4894 27.6802 13.5052 27.9042 13.5841 28.1282C13.7104 28.4642 13.8682 28.8162 14.0102 29.1362C14.0576 29.2642 14.0733 29.3762 14.1207 29.5042C14.1996 29.7282 14.3574 29.9042 14.4363 30.1122C14.531 30.3202 14.5626 30.5282 14.6415 30.7202C14.7677 31.0082 14.8624 31.1522 14.8624 31.5522C14.8624 31.5842 14.8467 31.6162 14.8151 31.6322C14.7362 31.6642 14.6573 31.5362 14.6099 31.4882C14.4048 31.2802 14.3732 31.0722 14.2312 30.7842C14.026 30.3362 13.7735 29.9202 13.5683 29.4882C13.4579 29.2642 13.4263 29.0082 13.3158 28.7842C13.2527 28.6402 13.158 28.4962 13.0949 28.3682C13.0002 28.1602 12.9528 27.9522 12.8582 27.7602C12.7161 27.4882 12.5899 27.1682 12.4794 26.8642C12.432 26.7522 12.432 26.6402 12.3689 26.5282C12.3216 26.4002 12.2427 26.3042 12.1795 26.1922C12.1006 26.0162 12.0533 25.7762 11.9744 25.5842C11.8166 25.2322 11.6272 24.8482 11.5009 24.4642C11.3747 24.1122 11.3115 23.7762 11.1853 23.4242C11.1379 23.2802 11.059 23.1202 11.0117 22.9762C10.9643 22.8482 10.9643 22.7202 10.9328 22.6082C10.8223 22.2882 10.6645 21.9522 10.5382 21.6482C10.4751 21.4882 10.4593 21.3442 10.3962 21.1842C10.3173 20.9922 10.2384 20.7682 10.1753 20.5762C10.0806 20.3202 10.0806 20.0162 9.98588 19.7602C9.78072 19.1842 9.52821 18.5762 9.33883 17.9682C9.30727 17.8242 9.32305 17.6802 9.2757 17.5522C9.18101 17.2482 9.08632 16.9122 8.99163 16.5922C8.83381 16.2242 8.83381 15.8402 8.72334 15.4882C8.58131 15.0242 8.42349 14.5602 8.29724 14.1122C8.24989 13.9842 8.26567 13.8242 8.21833 13.6962C8.13942 13.3442 8.01316 12.9282 7.90269 12.6082C7.83957 12.4482 7.83957 12.2722 7.79222 12.1122C7.71331 11.9362 7.52393 12.0002 7.53971 12.2082C7.55549 12.4002 7.61862 12.6402 7.6344 12.7362C7.65019 12.8642 7.65019 12.9922 7.68175 13.1362C7.74488 13.3762 7.808 13.5842 7.88691 13.7922C7.95004 14.0322 7.95004 14.2402 8.02895 14.4802C8.06051 14.5922 8.10786 14.7362 8.13942 14.8482C8.20255 15.0882 8.20255 15.3282 8.28145 15.5522C8.34458 15.7122 8.39193 15.9202 8.43927 16.1122C8.47083 16.2242 8.47083 16.3202 8.5024 16.4482C8.56553 16.6562 8.62865 16.8802 8.69178 17.0882C8.72334 17.2162 8.70756 17.3122 8.73912 17.4242C8.78647 17.6002 8.81803 17.7762 8.86538 17.9202C8.91272 18.0802 8.89694 18.2722 8.96007 18.4482C9.05476 18.7362 9.14945 19.0562 9.25992 19.3282C9.37039 19.6322 9.38617 19.9522 9.49665 20.2722C9.70181 20.8322 9.87541 21.4722 10.0806 22.0322C10.1279 22.1762 10.1121 22.3202 10.1595 22.4802C10.2226 22.7202 10.27 22.9602 10.3646 23.2002C10.3962 23.3122 10.4751 23.4242 10.5225 23.5362C10.5856 23.6802 10.6014 23.8242 10.6645 23.9682C10.7118 24.0802 10.7907 24.1922 10.8381 24.3042C10.9012 24.4802 10.8854 24.7042 10.9486 24.8642C10.9959 25.0082 11.0748 25.1522 11.1222 25.2802C11.1695 25.4402 11.1695 25.6002 11.2484 25.7442C11.2958 25.8722 11.3905 26.0002 11.4536 26.1122C11.5167 26.2242 11.5167 26.3522 11.5641 26.4802C11.6114 26.6082 11.6903 26.7522 11.7377 26.8802C11.8008 27.0242 11.8008 27.1842 11.8639 27.3282C11.927 27.4562 12.0059 27.5842 12.0533 27.7122C12.1006 27.8562 12.1006 28.0162 12.148 28.1602C12.2269 28.3842 12.3689 28.5762 12.4636 28.7842C12.5267 28.9442 12.5425 29.1042 12.6056 29.2642C12.6846 29.4562 12.795 29.6322 12.8739 29.8082C12.9844 30.0482 13.0633 30.3042 13.158 30.5282C13.3316 30.9282 13.3947 31.3762 13.5841 31.7762C13.7104 32.0802 13.8997 32.3522 14.026 32.6402C14.1049 32.8002 14.1207 32.9762 14.1996 33.1362C14.2785 33.3122 14.4205 33.4562 14.4995 33.6322C14.5626 33.8082 14.6099 33.9842 14.6888 34.1602C14.7993 34.3842 14.9413 34.5922 15.036 34.8002C15.0992 34.9282 15.1149 35.0562 15.1781 35.1682C15.2885 35.4082 15.4621 35.6162 15.5726 35.8562C15.6357 36.0162 15.6831 36.1762 15.7462 36.3362C15.8725 36.5922 16.0618 36.8002 16.1723 37.0722C16.267 37.2642 16.3144 37.4722 16.4248 37.6322C16.5984 37.9042 16.7089 38.0802 16.8667 38.3682C16.9772 38.5442 17.1192 38.8162 17.2139 39.0082C17.3086 39.2002 17.4506 39.3602 17.5295 39.5522C17.6085 39.7442 17.7189 39.9362 17.8294 40.1122C17.9399 40.3042 18.0503 40.4482 18.1766 40.6402C18.3818 40.9442 18.508 41.2642 18.6974 41.5842C18.8394 41.8082 18.9972 42.0162 19.1393 42.2242C19.5338 42.7842 20.102 43.7762 20.3545 44.1122C20.5596 44.3842 20.7175 44.7042 20.9068 44.9762C21.0489 45.2002 21.2382 45.4242 21.3803 45.6162C21.5065 45.7922 21.617 45.9682 21.7275 46.1442L21.8222 46.2722C26.9355 52.8642 32.1908 57.2162 36.6254 60.0802C38.9611 61.5682 40.2237 62.0002 40.2237 62.0002C40.5235 62.1282 40.3183 62.3362 40.1763 62.4482L13.8682 79.5522C13.7893 79.6162 13.5841 79.7602 13.663 79.9362C13.7261 80.0642 13.9944 80.0002 14.0733 79.9682C35.2366 72.4482 50.5923 66.2562 59.9824 61.7282C69.483 57.1522 72.6867 54.5282 72.3395 53.2162ZM16.0461 27.9362C15.9987 27.8402 15.9356 27.7282 15.8882 27.6162C15.8409 27.4882 15.8409 27.3762 15.7936 27.2642C15.62 26.8962 15.4464 26.4802 15.2728 26.1122C15.2096 25.9522 15.1149 25.6642 15.1781 25.4722C15.1938 25.4402 15.2412 25.4562 15.2728 25.4882C15.3359 25.5362 15.3674 25.5682 15.4148 25.6322C15.4464 25.6802 15.4621 25.7442 15.4937 25.7922C15.5726 25.9202 15.6831 26.0482 15.7462 26.1922C15.8882 26.4962 15.9198 26.8322 16.0618 27.1362C16.1565 27.3282 16.2986 27.5042 16.3933 27.6962C16.4406 27.8082 16.4722 27.9202 16.5037 28.0322C16.5195 28.1122 16.5195 28.2402 16.5195 28.3042C16.5195 28.4002 16.5195 28.4642 16.4722 28.4802C16.2197 28.4642 16.1408 28.1282 16.0461 27.9362ZM17.1508 36.1282C17.135 36.1602 17.1192 36.1922 17.0719 36.1922C16.7878 36.1762 16.7089 35.7602 16.5826 35.5682C16.488 35.4082 16.3933 35.2322 16.2986 35.0562C16.2197 34.9442 16.125 34.8322 16.0618 34.6882C15.9829 34.5282 15.9514 34.3522 15.8567 34.2082C15.8093 34.1282 15.7304 34.0642 15.6673 33.9842C15.5095 33.7762 15.3832 33.5522 15.2728 33.2962C15.257 33.2002 15.2254 33.1042 15.2096 33.0082C15.1465 32.8482 15.0834 32.6722 15.036 32.4962C15.0045 32.4162 14.9887 32.2402 15.0045 32.1762C15.0203 32.1602 15.0202 32.1282 15.0518 32.1442C15.2728 32.1762 15.4779 32.7042 15.5884 32.8962C15.6989 33.1042 15.8882 33.2642 15.9829 33.4882C16.0776 33.6802 16.1092 33.9362 16.2039 34.1282C16.2828 34.2722 16.4248 34.3842 16.5037 34.5282C16.63 34.7042 16.7089 34.9442 16.7878 35.1362C16.8825 35.3602 17.0403 35.5362 17.1192 35.7602C17.1508 35.8722 17.1666 36.0322 17.1508 36.1282ZM23.0689 34.9122C22.9427 34.8962 22.8795 34.8162 22.8006 34.7522C22.5797 34.5922 22.3903 34.3202 22.3903 33.9362C22.3903 33.9042 22.4061 33.8882 22.4219 33.8882C22.6744 33.8882 22.9427 34.2882 23.0531 34.4802C23.0847 34.5282 23.1478 34.6882 23.1321 34.8002C23.1321 34.8802 23.1005 34.9122 23.0689 34.9122ZM24.8523 34.9922C24.6787 35.0562 24.2526 34.5602 24.1263 34.3842C23.9054 34.0482 23.6844 33.6642 23.4477 33.3442C23.2267 33.0562 22.99 32.8482 22.9427 32.3202C22.9427 32.2562 22.8953 32.1122 22.9427 32.1122C23.1794 32.1282 23.4003 32.5442 23.5266 32.7202C23.6055 32.8482 23.7002 32.9602 23.7949 33.0882C23.9054 33.2642 23.9527 33.4882 24.079 33.6482C24.221 33.8562 24.4104 34.0482 24.5682 34.2562C24.6471 34.3682 24.7734 34.4642 24.8207 34.6242C24.8207 34.6722 24.8996 34.9602 24.8523 34.9922ZM31.0703 38.4802C30.8178 38.5122 30.5337 38.1282 30.4074 37.9522C30.3759 37.9042 30.2338 37.6002 30.2654 37.5522C30.3127 37.5042 30.6126 37.6162 30.6915 37.6802C30.8809 37.8402 31.0387 38.0482 31.1334 38.4162C31.1334 38.4642 31.086 38.4802 31.0703 38.4802Z" fill="#006B6E"/>
</g>
<defs>
<clipPath id="clip0_706_2600">
<rect width="80" height="80" fill="white"/>
</clipPath>
</defs>
</svg>
