<svg width="574" height="80" viewBox="0 0 574 80" fill="none" xmlns="http://www.w3.org/2000/svg">
<g clip-path="url(#clip0_706_2586)">
<path d="M66.2393 53.2161C65.9033 52.0001 62.3193 52.5121 59.3753 52.2561C56.6873 52.0161 53.2473 51.5361 49.1193 50.0961C45.2473 48.7521 41.5033 47.2161 38.2553 45.4561C38.2553 45.4561 36.9273 44.7681 36.7833 44.6881C36.5113 44.5281 36.3033 44.4001 36.0313 44.2401C35.8713 44.1441 35.6313 44.0001 35.4553 43.9201C35.2313 43.8241 35.0713 43.7121 34.8793 43.5841C34.6713 43.4561 34.3993 43.3281 34.2073 43.2001C33.9033 43.0081 33.7273 42.8641 33.4393 42.6721C33.2633 42.5441 33.1833 42.4961 32.9433 42.3521C32.7993 42.2721 32.5433 42.1281 32.4153 42.0481C32.1593 41.8721 31.9993 41.7281 31.7273 41.5521C31.5673 41.4401 31.4553 41.3761 31.2633 41.2481C31.0713 41.1361 30.8953 40.9921 30.7353 40.8641C30.6393 40.7841 30.4953 40.7201 30.4153 40.6241C30.2233 40.4321 30.0313 40.2721 29.8233 40.1121C29.6473 39.9841 29.4713 39.8081 29.2793 39.6641C29.1673 39.5841 28.9753 39.4081 28.8473 39.3281C28.5593 39.1201 28.3673 38.9601 28.0793 38.7361C27.8873 38.6081 27.7273 38.4161 27.5353 38.2721C27.3273 38.1121 27.1193 37.9361 26.9113 37.7761C26.7673 37.6801 26.6073 37.5521 26.5113 37.4401C26.3673 37.2641 26.2393 37.1521 26.0953 36.9921C25.9833 36.8801 25.7753 36.7361 25.6633 36.6241C25.4873 36.4001 25.2153 36.1441 24.9753 35.9681C24.8473 35.8401 24.7993 35.7761 24.7353 35.7121C24.6873 35.6481 24.6393 35.5841 24.5273 35.4561C24.4153 35.3281 24.3673 35.2961 24.3193 35.2481C24.2713 35.2001 24.2073 35.1361 24.0473 34.9921C23.9993 34.9441 23.9193 34.8161 23.8233 34.7041C23.7593 34.6081 23.6793 34.5121 23.6313 34.4481C23.4873 34.2881 23.3913 34.1921 23.2953 34.0801C23.2313 34.0001 23.1513 33.9201 23.0553 33.8241C23.0073 33.7601 22.9593 33.6961 22.9113 33.6161C22.8633 33.5521 22.8153 33.4881 22.7673 33.4241C22.6873 33.3281 22.6233 33.3601 22.5913 33.3761C22.5433 33.4081 22.5273 33.5041 22.5753 33.6321C22.6553 33.7761 22.7673 33.9361 22.8313 34.0321C22.8473 34.0481 22.8633 34.0801 22.8633 34.0801C22.8953 34.1281 22.9113 34.1601 22.9433 34.2081C22.9913 34.2721 23.0233 34.3521 23.0713 34.4161C23.1833 34.5601 23.2953 34.6881 23.4073 34.8001C23.4553 34.8321 23.4873 34.8801 23.5193 34.9121C23.5993 34.9921 23.6633 35.0881 23.7113 35.1681C23.7753 35.2641 23.8393 35.3601 23.9353 35.4401C23.9673 35.4881 23.9993 35.5361 24.0313 35.5681C24.0633 35.6161 24.1113 35.6641 24.1593 35.7121C24.2233 35.7761 24.2873 35.8401 24.3513 35.9041C24.4633 36.0161 24.5753 36.1281 24.6873 36.2241C24.7673 36.2881 24.8633 36.3841 24.9433 36.4641C25.1673 36.7201 25.4073 36.9921 25.5993 37.2321C25.7113 37.3761 25.9193 37.4881 26.0473 37.5841C26.1913 37.6961 26.3033 37.8721 26.4153 38.0161C26.5113 38.1121 26.6873 38.2881 26.7833 38.4001C27.0073 38.6721 27.1513 38.8321 27.4393 39.0401C27.6153 39.1681 27.7433 39.2801 27.8873 39.4561C27.9673 39.5521 28.2233 39.7921 28.3193 39.9201C28.5593 40.2241 28.6553 40.4961 28.6233 40.5121C28.4633 40.5601 28.0633 40.2081 27.8233 40.0481C27.6313 39.9201 27.5993 39.8721 27.4233 39.7281C27.3753 39.6961 27.0873 39.4881 26.9913 39.3601C26.9113 39.2801 26.6873 39.0561 26.6233 38.9761C26.2873 38.5601 26.1913 38.5281 25.8073 38.1601C25.5353 37.8881 25.1993 37.6481 24.9273 37.4081C24.8473 37.3281 24.7673 37.2321 24.6873 37.1521C24.5913 37.0561 24.4953 36.9761 24.4153 36.8961C24.2873 36.7361 24.1113 36.4321 23.9673 36.3201C23.8073 36.1921 23.6953 36.0801 23.5353 35.9681C23.4873 35.9201 23.4233 35.8561 23.3753 35.8081C23.2953 35.7601 23.1993 35.6961 23.1513 35.6161C22.9593 35.3761 22.7833 35.1361 22.6073 34.9121C22.5273 34.8001 22.3993 34.7041 22.3193 34.5921C22.1433 34.3361 21.9833 34.0801 21.8073 33.8401C21.5513 33.5041 21.1833 33.2641 20.9433 32.9441C20.6873 32.5921 20.5433 32.1921 20.3033 31.8401C20.1913 31.6801 20.0313 31.5681 19.9353 31.4241C19.8713 31.3441 19.8393 31.2321 19.7753 31.1521C19.6473 30.9601 19.5033 30.7681 19.3753 30.5921C19.2153 30.3521 19.0873 30.0801 18.9273 29.8081C18.8953 29.7761 18.8473 29.6001 18.7353 29.4721C18.6393 29.3441 18.5433 29.2001 18.4313 29.0081C18.3193 28.8321 18.2553 28.7041 18.1753 28.5761C18.0953 28.4481 18.0473 28.3361 17.9833 28.2401C17.9353 28.1441 17.8073 27.9841 17.7753 27.9201C17.6153 27.6801 17.5833 27.5681 17.4233 27.3601C17.3273 27.2321 17.2153 27.1041 17.1353 27.1521C17.0713 27.2001 17.0873 27.2801 17.1033 27.3441C17.1833 27.5361 17.1833 27.5041 17.2473 27.6481C17.3753 27.8721 17.4233 27.9841 17.5673 28.1921C17.6313 28.3041 17.7433 28.5281 17.8233 28.6561C17.9193 28.7841 17.9993 28.9441 18.0633 29.0401C18.1273 29.1521 18.2233 29.4561 18.3193 29.5681C18.3833 29.6641 18.4793 29.8401 18.5433 29.9681C18.6873 30.2241 18.8473 30.4321 18.9913 30.6401C19.0873 30.8161 19.1673 30.9921 19.2633 31.1521C19.4553 31.4241 19.6633 31.6801 19.8393 31.9681C19.9513 32.1601 20.0633 32.3681 20.1753 32.5601C20.2873 32.7201 20.4313 32.8641 20.5433 33.0241C20.6713 33.2161 20.7353 33.4401 20.8633 33.6321C20.9753 33.7921 21.1033 33.9361 21.1993 34.0801C21.3753 34.3361 21.5353 34.5921 21.7113 34.8481C21.8073 34.9761 21.9513 35.0881 22.0473 35.2321C22.1913 35.4241 22.2873 35.6481 22.4473 35.7921C22.6233 35.9521 22.6713 36.0481 22.7993 36.2081C22.9913 36.4481 23.5033 37.1521 23.4073 37.1521C23.1193 37.2001 22.5593 36.5601 22.3193 36.3201C22.1273 36.1441 21.9353 36.0001 21.7913 35.8401C21.6153 35.5841 21.4713 35.2961 21.2793 35.0561C21.1993 34.9601 21.1033 34.8961 21.0393 34.8161C20.9113 34.6561 20.7833 34.4641 20.6393 34.3201C20.5753 34.2561 20.5113 34.2081 20.4633 34.1441C20.2393 33.8561 20.0473 33.5361 19.8073 33.2321C19.7113 33.1041 19.5993 32.9921 19.5033 32.8801C19.4393 32.7841 19.3913 32.6721 19.3273 32.5601C19.2473 32.4321 19.1193 32.2881 19.0233 32.1601C18.9593 32.0641 18.9113 31.9521 18.8473 31.8561C18.7193 31.6801 18.5593 31.5201 18.4473 31.3281C18.3513 31.1841 18.3193 30.9761 18.2233 30.8321C17.9673 30.4481 17.6953 30.0641 17.4553 29.6801C17.3913 29.5841 17.3593 29.4721 17.3113 29.3761C17.1033 29.0561 16.9273 28.7201 16.7193 28.4161C16.6393 28.3041 16.6233 28.1601 16.5433 28.0481C16.4473 27.9041 16.3193 27.8081 16.2233 27.6641C16.1593 27.5521 16.1273 27.4401 16.0793 27.3121C15.9993 27.1521 15.9033 26.9921 15.8233 26.8321C15.7753 26.7361 15.7433 26.6401 15.6793 26.5601C15.4393 26.1921 15.2473 25.7921 15.0553 25.3761C14.9593 25.1681 14.7993 24.9601 14.7033 24.7521C14.5913 24.5121 14.4793 24.2721 14.3673 24.0321C14.3033 23.8721 14.2553 23.7121 14.1913 23.5521C14.0793 23.2961 13.8873 23.0881 13.7753 22.8321C13.6953 22.6561 13.6473 22.4961 13.5833 22.3521C13.5353 22.2721 13.4393 22.1921 13.3913 22.2241C13.3273 22.2561 13.3113 22.3361 13.3593 22.4801C13.4393 22.7521 13.5833 23.0401 13.6473 23.2001C13.7753 23.5041 13.8553 23.8081 13.9833 24.1121C14.0633 24.2881 14.1753 24.4481 14.2393 24.5921C14.3673 24.8801 14.4953 25.1681 14.6393 25.4401C14.7033 25.6001 14.7673 25.7601 14.8633 25.9041C14.9113 25.9841 14.9753 26.0641 15.0073 26.1601C15.0873 26.3521 15.1193 26.5601 15.1993 26.7361C15.2953 26.9281 15.4393 27.0881 15.5353 27.2641C15.9993 28.2401 16.4473 29.1521 16.9913 30.0161C17.1513 30.2561 17.2153 30.5441 17.3753 30.7841C17.5353 31.0401 17.7593 31.2161 17.9033 31.4721C18.0313 31.6641 18.0633 31.9521 18.1913 32.1601C18.3673 32.4801 18.6073 32.7521 18.7993 33.0561C18.8473 33.1361 18.8633 33.2481 18.9273 33.3281C19.0073 33.4561 19.1033 33.5681 19.1673 33.6801C19.2633 33.8401 19.3113 34.0161 19.4233 34.1601C19.5353 34.3201 19.7113 34.4481 19.8233 34.6241C19.9673 34.8161 20.0633 35.0561 20.2233 35.2481C20.3353 35.3921 20.4953 35.4881 20.5913 35.6321C20.7673 35.8561 21.3433 36.6081 21.5033 36.8321C21.7593 37.1521 22.2073 37.6321 22.4313 38.0641C22.4953 38.1921 22.7353 38.5121 22.6713 38.5761C22.5433 38.6561 21.9833 38.0321 21.8873 37.9361C21.6473 37.7121 21.4393 37.3921 21.2313 37.1201C21.1833 37.0561 20.6233 36.5281 20.5913 36.4641C20.5433 36.4001 20.4793 36.3201 20.4313 36.2401C20.2713 36.0161 20.1913 35.7281 20.0153 35.5201C19.9513 35.4401 19.8393 35.3601 19.7753 35.2801C19.6473 35.1201 19.5673 34.9281 19.4393 34.7521C19.2473 34.4801 18.9913 34.2401 18.7993 33.9841C18.5913 33.6961 18.4473 33.3441 18.2233 33.0561C18.1113 32.9121 17.9833 32.7841 17.8713 32.6241C17.8233 32.5601 17.8073 32.4961 17.7593 32.4161C17.6793 32.3041 17.5673 32.1601 17.5193 32.0321C17.4553 31.9041 17.4233 31.7921 17.3593 31.6801C17.1353 31.3281 16.9113 30.9441 16.6873 30.5921C16.5753 30.4321 16.5273 30.2561 16.4313 30.1121C16.2553 29.8561 16.0473 29.6161 15.8873 29.3441C15.6953 29.0401 15.5833 28.6561 15.3753 28.3521C15.2473 28.1441 15.0873 27.9521 14.9593 27.7441C14.8153 27.5201 14.7353 27.2641 14.6073 27.0241C14.4953 26.8161 14.3353 26.6241 14.2393 26.4161C14.1273 26.1921 14.0473 25.9681 13.9513 25.7281C13.8873 25.6161 13.7913 25.4881 13.7433 25.3601C13.6793 25.2001 13.6633 25.0401 13.5833 24.8961C13.3913 24.4641 13.0873 24.0481 12.8953 23.6161C12.7513 23.3121 12.6233 22.9921 12.4953 22.6721C12.4313 22.4961 12.3993 22.3201 12.3193 22.1601C12.1433 21.7601 11.9193 21.3441 11.7433 20.9441C11.6633 20.7361 11.5993 20.5281 11.5193 20.3201C11.5033 20.2561 11.5033 20.1921 11.4713 20.1281C11.3913 19.9521 11.2793 19.7601 11.1993 19.5841C11.1353 19.3761 11.0713 19.1521 10.9913 18.9441C10.7193 18.2401 10.4633 17.4561 10.2073 16.7361C10.1753 16.6081 10.1593 16.4321 10.1113 16.3041C9.88727 15.9521 9.74327 15.5681 9.59927 15.2001C9.53527 15.0081 9.34327 15.0721 9.39127 15.2641C9.45527 15.5201 9.47127 15.5841 9.51927 15.7921C9.55127 15.8881 9.56727 16.0001 9.58327 16.0961C9.61527 16.2241 9.67927 16.3521 9.71127 16.4641C9.77527 16.6881 9.79127 16.9121 9.85527 17.1201C9.96727 17.4241 10.0633 17.7121 10.1593 18.0161C10.1913 18.1761 10.2233 18.3201 10.2553 18.4801C10.3033 18.6241 10.3513 18.7681 10.4153 18.8961C10.5753 19.2801 10.7193 19.6321 10.8473 20.0161C10.8953 20.2401 10.9593 20.4481 11.0073 20.6561C11.0713 20.7681 11.1513 20.8961 11.1993 21.0081C11.2473 21.1201 11.2633 21.2001 11.3113 21.3121C11.4073 21.5521 11.4873 21.7921 11.5993 22.0481C11.6953 22.2401 11.7913 22.4481 11.8713 22.6561C11.9033 22.7681 11.9033 22.8481 11.9513 22.9601C12.1753 23.6001 12.4313 24.2561 12.7033 24.8641C12.7673 25.0241 12.7833 25.1681 12.8633 25.3281C12.9273 25.4561 13.0073 25.5841 13.0553 25.7121C13.0873 25.7921 13.1193 25.8721 13.1513 25.9521C13.2313 26.1281 13.3753 26.2721 13.4553 26.4481C13.6953 26.9441 13.9033 27.4081 14.1913 27.8401C14.4633 28.2401 14.5913 28.7521 14.7833 29.2161C14.8793 29.4401 15.0233 29.6321 15.1353 29.8241C15.1993 29.9201 15.2313 30.0321 15.2793 30.1441C15.4233 30.3841 15.4873 30.5921 15.6473 30.8161C15.7753 30.9921 15.7593 31.0401 15.8713 31.2801C15.9033 31.3601 16.0313 31.8241 15.9993 31.8241C15.9513 31.8561 15.7273 31.7121 15.6473 31.6321C15.5513 31.5201 15.3753 31.3601 15.2633 31.1041C15.1993 30.9761 15.0873 30.7681 15.0233 30.6401C14.8793 30.3361 14.6393 30.0641 14.4633 29.7921C14.3513 29.6321 14.3033 29.4401 14.2233 29.2641C14.0633 28.9441 13.9033 28.6081 13.7433 28.2721C13.6793 28.1281 13.5833 28.0001 13.5033 27.8721C13.4233 27.7441 13.3753 27.6001 13.2953 27.4721C13.1513 27.2001 12.9433 26.8801 12.7993 26.5761C12.6873 26.3521 12.6393 26.1121 12.5273 25.8881C12.4953 25.8241 12.4313 25.7441 12.3833 25.6801C12.3033 25.5681 12.2873 25.4401 12.2233 25.2961C12.1433 25.1201 12.0313 24.9601 11.9353 24.7841C11.7753 24.4321 11.6793 24.0641 11.5033 23.7121C11.4233 23.5521 11.2953 23.4081 11.2153 23.2481C11.1033 22.9921 11.0873 22.6881 10.9753 22.4321C10.6713 21.7441 10.3193 21.0241 10.0473 20.3201C9.99927 20.1921 9.99927 20.0641 9.95127 19.9361C9.85527 19.6321 9.71127 19.3441 9.59927 19.0241C9.55127 18.8801 9.53527 18.7521 9.48727 18.6081C9.40727 18.4001 9.31127 18.1761 9.23127 17.9681C9.21527 17.9041 9.19927 17.8241 9.16727 17.7601C9.07127 17.5521 9.02327 17.3281 8.92727 17.1201C8.87927 17.0081 8.79927 16.8961 8.76727 16.7841C8.70327 16.5761 8.71927 16.3201 8.63927 16.1121C8.52727 15.8241 8.39927 15.5041 8.30327 15.2161C8.23927 15.0401 8.22327 14.8801 8.15927 14.7201C8.09527 14.5281 8.01527 14.3041 7.95127 14.1121C7.88727 13.9041 7.88727 13.6961 7.80727 13.4881C7.75927 13.3281 7.69527 13.1681 7.64727 13.0081C7.53527 12.7361 7.50327 12.4321 7.40727 12.1601C7.37527 12.1121 7.35927 12.0641 7.34327 12.0161C7.31127 11.9521 7.27927 11.8721 7.19927 11.9041C7.11927 11.9201 7.11927 12.0161 7.11927 12.0961C7.13527 12.3041 7.21527 12.4961 7.27927 12.6721C7.34327 12.8481 7.37527 13.0401 7.42327 13.2161C7.43927 13.3281 7.43927 13.4401 7.47127 13.5521C7.51927 13.7121 7.56727 13.8721 7.61527 14.0321C7.66327 14.1921 7.63127 14.3521 7.67927 14.4801C7.79127 14.8321 7.90327 15.2321 8.01527 15.5681C8.06327 15.7441 8.07927 15.9521 8.12727 16.0961C8.19127 16.2721 8.25527 16.4641 8.31927 16.6401C8.36727 16.7841 8.38327 16.9281 8.44727 17.0721C8.51127 17.2161 8.59127 17.3761 8.63927 17.5521C8.70327 17.7761 8.70327 17.9841 8.78327 18.1921C8.91127 18.5281 9.05527 18.8481 9.18327 19.1681C9.21527 19.2801 9.23127 19.4081 9.27927 19.5361C9.37527 19.8241 9.45527 20.1121 9.55127 20.3841C9.69527 20.7841 9.88727 21.1841 10.0313 21.5681C10.1753 21.9521 10.1913 22.4321 10.3513 22.7841C10.4313 22.9601 10.6073 23.0721 10.6873 23.2481C10.7513 23.3601 10.7353 23.4881 10.7673 23.6161C10.8153 23.7601 10.8953 23.9201 10.9433 24.0641C10.9753 24.1921 11.0073 24.3041 11.0393 24.4321C11.0873 24.5761 11.1993 24.7361 11.2633 24.8801C11.3753 25.1041 11.4233 25.3601 11.5513 25.5521C11.6473 25.7121 11.7753 25.8561 11.8713 26.0321C11.9673 26.2241 11.9993 26.4321 12.0793 26.6401C12.2073 26.9281 12.3673 27.2161 12.4793 27.5201C12.5913 27.8081 12.6233 28.0961 12.7513 28.3521C12.8793 28.5921 13.0553 28.8161 13.1833 29.0561C13.2633 29.2481 13.3433 29.4241 13.4233 29.6001C13.4873 29.7441 13.6313 29.8721 13.7113 30.0321C13.8073 30.2241 13.9033 30.4161 13.9993 30.5921C14.0633 30.7361 14.0953 30.8641 14.1753 30.9921C14.2873 31.1841 14.3833 31.3281 14.5113 31.5201C14.6233 31.6961 14.7353 31.9041 14.8153 32.1121C14.8793 32.2561 14.9433 32.4161 15.0233 32.5441C15.1193 32.6721 15.2313 32.7841 15.3273 32.9281C15.4073 33.0721 15.5193 33.5201 15.4713 33.5361C15.3753 33.5681 15.0873 33.3121 15.0073 33.2001C14.7833 32.9441 14.6713 32.5761 14.4793 32.2881C14.2713 31.9841 14.1273 31.8081 13.9673 31.4561C13.8713 31.2481 13.6953 30.8961 13.5833 30.7041C13.4713 30.5441 13.3273 30.3841 13.2313 30.1921C13.1673 30.0321 13.1353 29.8401 13.0553 29.6961C12.9433 29.4721 12.7353 29.3281 12.6233 29.0881C12.4953 28.8321 12.4473 28.5601 12.3193 28.3201C12.2553 28.1921 12.1753 28.0641 12.1113 27.9521C12.0313 27.7921 11.9993 27.6481 11.9193 27.4881C11.7753 27.1681 11.5513 26.8961 11.4073 26.5921C11.2633 26.2721 11.1673 25.9201 11.0073 25.5841C10.9273 25.4081 10.7833 25.2641 10.6873 25.0721C10.5753 24.8321 10.5273 24.5921 10.4153 24.3521C10.3513 24.2081 10.2393 24.0641 10.1753 23.9201C10.0793 23.7121 10.0473 23.4881 9.95127 23.2801C9.72727 22.8001 9.50327 22.3041 9.29527 21.8081C9.21527 21.6161 9.19927 21.4241 9.10327 21.2481C9.02327 21.0881 8.94327 20.9281 8.84727 20.7521C8.67127 20.3201 8.59127 19.8401 8.39927 19.4081C8.30327 19.1841 8.17527 18.9761 8.09527 18.7521C7.96727 18.3841 7.90327 18.0001 7.77527 17.6321C7.56727 17.0561 7.40727 16.4641 7.19927 15.9041C7.16727 15.7601 7.15127 15.5841 7.08727 15.4081C7.02327 15.2481 6.95927 15.0721 6.89527 14.9121C6.84727 14.7841 6.83127 14.5921 6.79927 14.4161C6.63927 13.9361 6.49527 13.4561 6.33527 12.9601C6.30327 12.8481 6.30327 12.6401 6.25527 12.4961C6.22327 12.4001 6.19127 12.3041 6.15927 12.2241C6.11127 12.1121 6.11127 12.0161 6.07927 11.9041C5.96727 11.5521 5.87127 11.1361 5.75927 10.7841C5.72727 10.6881 5.72727 10.5281 5.69527 10.4001C5.53527 9.88806 5.45527 9.28006 5.24727 8.80006C5.21527 8.72006 5.15127 8.62406 5.07127 8.64006C4.97527 8.65606 4.99127 8.76806 5.00727 8.84806C5.02327 9.08806 5.11927 9.28006 5.15127 9.47206C5.16727 9.56806 5.16727 9.68006 5.18327 9.77606C5.19927 9.85606 5.19927 9.96806 5.23127 10.0641C5.32727 10.3681 5.43927 10.7201 5.51927 11.0081C5.55127 11.1521 5.51927 11.3761 5.56727 11.5361C5.69527 12.0161 5.79127 12.5761 5.96727 13.0081C6.12727 13.3921 6.15927 13.8721 6.27127 14.2881C6.30327 14.4801 6.31927 14.6561 6.35127 14.8481C6.38327 15.0241 6.47927 15.1521 6.52727 15.2961C6.57527 15.4081 6.55927 15.5041 6.60727 15.6161C6.70327 15.9201 6.76727 16.2241 6.87927 16.5281C6.95927 16.7361 7.07127 16.9441 7.15127 17.1361C7.18327 17.2321 7.16727 17.3121 7.19927 17.4081C7.24727 17.6161 7.27927 17.8241 7.34327 18.0481C7.48727 18.4641 7.64727 18.9121 7.79127 19.3281C7.87127 19.5521 7.90327 19.7761 7.98327 20.0001C8.31927 20.8961 8.65527 21.7921 8.97527 22.6881C9.02327 22.8801 9.08727 23.0881 9.13527 23.2801C9.21527 23.4881 9.32727 23.6481 9.40727 23.8401C9.51927 24.0801 9.55127 24.3201 9.63127 24.5601C9.74327 24.8481 9.87127 25.0721 9.98327 25.3761C10.0313 25.5201 10.0793 25.6641 10.1593 25.8081C10.2073 25.9041 10.3033 26.0161 10.3513 26.1121C10.4473 26.2881 10.4473 26.5121 10.5433 26.6881C10.6233 26.8641 10.7833 27.0081 10.8793 27.1841C10.9753 27.3441 10.9753 27.5361 11.0553 27.7121C11.1833 27.9841 11.3433 28.2401 11.4553 28.5281C11.5033 28.6561 11.5353 28.7681 11.5833 28.8801C11.6473 29.0081 11.7433 29.1361 11.8073 29.2801C11.8073 29.2801 11.8073 29.2801 11.8233 29.2961C11.8233 29.3121 11.8393 29.3441 11.8393 29.3761C11.8553 29.4241 11.8713 29.5041 11.8873 29.5521C11.9193 29.6321 11.9993 29.7601 12.0313 29.8241C12.0473 29.8561 12.1273 29.9201 12.1753 29.9841C12.2073 30.0001 12.2233 30.0321 12.2393 30.0641C12.3513 30.2561 12.3673 30.5121 12.4633 30.7201C12.5593 30.9121 12.7353 31.0721 12.8313 31.2961C12.9113 31.4561 12.9433 31.8401 12.8473 31.8561C12.4473 31.8561 12.4153 31.2961 12.2873 30.9921C12.1753 30.7681 12.0153 30.5761 11.8873 30.3521C11.8553 30.3041 11.8233 30.2241 11.7913 30.1281C11.7753 30.0481 11.7273 29.9681 11.6953 29.9041C11.6473 29.7921 11.6473 29.8081 11.6153 29.7281C11.5833 29.6481 11.4713 29.5041 11.4233 29.4401C11.4233 29.4401 11.4233 29.4401 11.4233 29.4241C11.2473 29.1521 11.1353 28.8001 11.0233 28.6401C10.9593 28.5441 10.8793 28.4481 10.8153 28.3521C10.7193 28.1921 10.6553 28.0001 10.5753 27.8241C10.4953 27.6641 10.3833 27.5041 10.3033 27.3281C10.2073 27.1361 10.2073 26.8801 10.1113 26.6721C10.0633 26.5601 9.96727 26.4481 9.91927 26.3521C9.80727 26.1121 9.74327 25.8721 9.63127 25.6481C9.59927 25.5521 9.48727 25.4401 9.43927 25.3281C9.34327 25.1361 9.29527 24.9281 9.19927 24.7521C8.97527 24.3681 8.75127 23.9521 8.57527 23.5361C8.47927 23.2961 8.43127 23.0561 8.33527 22.8321C8.25527 22.6401 8.12727 22.4321 8.03127 22.2401C7.96727 22.1121 7.95127 21.9841 7.90327 21.8401C7.82327 21.6161 7.71127 21.3761 7.63127 21.1681C7.58327 21.0081 7.53527 20.6721 7.48727 20.5441C7.42327 20.3681 7.34327 20.1921 7.26327 20.0161C7.15127 19.7761 7.11927 19.5201 7.00727 19.2641C6.92727 19.0721 6.83127 18.8641 6.75127 18.6721C6.68727 18.5121 6.67127 18.3521 6.60727 18.1921C6.55927 18.0801 6.47927 17.9361 6.44727 17.8241C6.39927 17.6801 6.35127 17.4401 6.31927 17.2481C6.25527 17.0401 6.15927 16.8321 6.09527 16.6241C6.06327 16.4641 6.04727 16.0961 6.01527 16.0001C5.80727 15.3601 5.59927 14.6561 5.39127 14.0001C5.29527 13.6961 5.24727 13.4081 5.16727 13.1041C5.13527 12.9921 5.13527 12.8321 5.10327 12.7201C5.03927 12.5281 4.95927 12.3361 4.89527 12.1441C4.86327 12.0161 4.84727 11.8721 4.83127 11.7441C4.79927 11.6161 4.71927 11.4721 4.67127 11.3441C4.54327 10.9441 4.47927 10.5281 4.36727 10.1441C4.31927 9.98406 4.31927 9.77606 4.27127 9.63206C4.12727 9.15206 4.07927 8.60806 3.95127 8.11206C3.91927 7.95206 3.90327 7.80806 3.87127 7.68006C3.61527 6.75206 3.50327 5.69606 3.23127 4.80006C3.18327 4.64006 3.24727 4.41606 3.21527 4.22406C3.15127 4.01606 3.10327 3.84006 3.03927 3.64806C3.00727 3.55206 3.00727 3.48806 2.99127 3.39206C2.94327 3.24806 2.86327 3.12006 2.78327 3.13606C2.68727 3.16806 2.70327 3.26406 2.71927 3.39206C2.71927 3.60006 2.75127 3.77606 2.78327 3.93606C2.81527 4.08006 2.79927 4.20806 2.84727 4.32006C2.92727 4.60806 2.95927 5.02406 3.00727 5.28006C3.02327 5.39206 3.00727 5.53606 3.03927 5.66406C3.07127 5.79206 3.16727 5.96806 3.19927 6.11206C3.21527 6.32006 3.21527 6.56006 3.23127 6.78406C3.27927 6.96006 3.32727 7.12006 3.37527 7.29606C3.42327 7.44006 3.39127 7.56806 3.42327 7.71206C3.47127 7.84006 3.55127 7.96806 3.56727 8.11206C3.58327 8.27206 3.56727 8.52806 3.59927 8.67206C3.80727 9.48806 3.87127 10.4641 4.11127 11.2481C4.14327 11.3601 4.14327 11.4881 4.17527 11.6001C4.36727 12.2881 4.52727 13.0241 4.73527 13.6961C4.76727 13.8081 4.76727 13.9201 4.78327 14.0321C4.84727 14.2721 4.91127 14.5281 4.95927 14.7681C4.97527 14.8801 4.97527 14.9761 5.00727 15.0881C5.08727 15.3601 5.18327 15.6001 5.26327 15.8401C5.29527 15.9681 5.31127 16.0801 5.32727 16.2081C5.34327 16.3041 5.39127 16.4161 5.42327 16.4961C5.47127 16.6401 5.45527 16.7681 5.50327 16.9121C5.53527 16.9921 5.59927 17.0721 5.61527 17.1521C5.64727 17.2961 5.66327 17.4561 5.71127 17.6001C5.77527 17.7761 5.87127 17.9361 5.93527 18.1121C5.98327 18.2561 5.98327 18.4001 6.04727 18.5441C6.14327 18.7841 6.25527 19.0721 6.35127 19.3281C6.43127 19.5361 6.43127 19.7601 6.51127 19.9681C6.55927 20.1121 6.62327 20.2561 6.68727 20.4001C6.71927 20.5121 6.73527 20.6241 6.78327 20.7361C6.81527 20.8321 6.92727 20.9921 6.99127 21.1361C7.05527 21.2801 7.02327 21.4881 7.07127 21.6481C7.11927 21.8081 7.21527 21.9521 7.26327 22.0961C7.31127 22.2561 7.31127 22.4161 7.35927 22.5761C7.40727 22.7041 7.48727 22.8161 7.53527 22.9281C7.58327 23.0561 7.63127 23.2001 7.67927 23.3281C7.71127 23.4081 7.79127 23.5041 7.82327 23.5841C7.90327 23.7281 7.95127 23.9041 8.01527 24.0641C8.11127 24.2881 8.11127 24.5601 8.17527 24.8161C8.19127 24.8961 8.19127 25.0721 8.14327 25.0881C8.04727 25.1041 7.91927 24.9441 7.85527 24.8481C7.72727 24.6721 7.61527 24.4801 7.53527 24.2881C7.50327 24.2081 7.48727 24.1281 7.45527 24.0641C7.39127 23.9041 7.32727 23.6961 7.26327 23.5201C7.21527 23.4081 7.15127 23.2961 7.10327 23.1841C7.05527 23.0241 7.07127 22.8321 7.00727 22.6881C6.95927 22.5601 6.86327 22.4641 6.79927 22.3521C6.75127 22.2401 6.73527 22.1281 6.68727 22.0161C6.62327 21.8721 6.54327 21.7601 6.47927 21.6321C6.43127 21.4721 6.43127 21.3441 6.39927 21.2161C6.35127 21.0401 6.30327 20.8801 6.22327 20.7201C6.15927 20.5601 6.06327 20.4001 5.99927 20.2401C5.96727 20.1441 5.95127 20.0641 5.91927 19.9681C5.87127 19.8401 5.82327 19.7121 5.75927 19.6001C5.74327 19.5201 5.71127 19.4081 5.67927 19.3281C5.61527 19.2001 5.55127 19.0561 5.50327 18.9121C5.45527 18.8001 5.45527 18.6721 5.40727 18.5601C5.34327 18.3521 5.26327 18.1121 5.19927 17.9201C5.15127 17.7601 5.13527 17.6001 5.08727 17.4401C5.02327 17.2641 4.94327 17.0721 4.87927 16.8961C4.83127 16.7521 4.81527 16.5921 4.76727 16.4321C4.70327 16.2401 4.59127 16.0481 4.52727 15.8401C4.47927 15.6801 4.47927 15.5041 4.44727 15.3601C4.33527 14.9601 4.20727 14.5281 4.07927 14.1281C3.95127 13.6961 3.93527 13.2001 3.80727 12.7521C3.71127 12.4321 3.59927 12.1281 3.50327 11.8081C3.47127 11.6481 3.45527 11.4881 3.42327 11.3281C3.34327 10.9921 3.21527 10.5281 3.08727 10.1601C3.03927 9.96806 3.05527 9.76006 2.99127 9.55206C2.94327 9.34406 2.92727 9.10406 2.86327 8.86406C2.83127 8.73606 2.76727 8.64006 2.73527 8.46406C2.70327 8.28806 2.70327 8.08006 2.68727 7.95206C2.65527 7.82406 2.43127 7.04006 2.39927 6.89606C2.36727 6.75206 2.36727 6.49606 2.36727 6.40006C2.35127 6.33606 2.23927 6.00006 2.22327 5.92006C2.20727 5.82406 2.20727 5.72806 2.15927 5.55206C2.12727 5.37606 2.03127 4.99206 2.01527 4.88006C1.99927 4.76806 1.99927 4.54406 1.96727 4.43206C1.95127 4.32006 1.87127 4.06406 1.82327 3.88806C1.75927 3.66406 1.80727 3.42406 1.74327 3.21606C1.71127 3.05606 1.64727 2.91206 1.59927 2.76806C1.55127 2.64006 1.51927 2.46406 1.50327 2.38406C1.50327 2.25606 1.48727 2.01606 1.48727 1.93606C1.48727 1.80806 1.42327 1.60006 1.42327 1.40806C1.39127 1.16806 1.34327 0.896061 1.31127 0.736061C1.27927 0.64006 1.29527 0.54406 1.26327 0.46406C1.21527 0.20806 1.15127 -0.0159398 1.02327 6.01952e-05C0.927272 0.0160602 0.895271 0.0960602 0.943272 0.25606C0.991271 0.44806 1.00727 0.59206 1.05527 0.78406C1.07127 0.880061 1.08727 1.13606 1.08727 1.21606C1.10327 1.36006 1.10327 1.37606 1.11927 1.52006C1.11927 1.55206 1.15127 1.68006 1.16727 1.74406C1.18327 1.82406 1.21527 1.95206 1.21527 2.01606C1.21527 2.11206 1.21527 2.19206 1.21527 2.32006C1.21527 2.38406 1.21527 2.40006 1.24727 2.51206C1.26327 2.62406 1.26327 2.64006 1.27927 2.73606C1.27927 2.81606 1.27927 2.89606 1.27927 2.96006C1.27927 3.04006 1.29527 3.12006 1.31127 3.20006C1.35927 3.36006 1.47127 3.58406 1.42327 3.82406C1.37527 4.08006 1.45527 4.32006 1.51927 4.54406C1.53527 4.68806 1.51927 4.84806 1.53527 4.99206C1.58327 5.18406 1.63127 5.37606 1.67927 5.58406C1.72727 5.74406 1.69527 5.88806 1.74327 6.04806C1.80727 6.25606 1.95127 6.56006 1.96727 6.65606C1.98327 6.75206 1.98327 7.00806 2.01527 7.18406C2.04727 7.32806 2.07927 7.52006 2.09527 7.63206C2.11127 7.74406 2.09527 7.77606 2.11127 7.87206C2.11127 7.93606 2.22327 8.30406 2.23927 8.40006C2.25527 8.49606 2.25527 8.56006 2.27127 8.65606C2.28727 8.75206 2.38327 9.15206 2.39927 9.29606C2.41527 9.42406 2.39927 9.50406 2.43127 9.63206C2.47927 9.82406 2.55927 10.0001 2.59127 10.1921C2.62327 10.3361 2.60727 10.4321 2.62327 10.5441C2.67127 10.7201 2.73527 10.8801 2.76727 11.0401C2.79927 11.1681 2.79927 11.3121 2.81527 11.4401C2.87927 11.7441 2.92727 12.0321 2.99127 12.3201C3.03927 12.4961 3.15127 12.6401 3.19927 12.8001C3.23127 12.9601 3.24727 13.1201 3.29527 13.2801C3.32727 13.4081 3.42327 13.5201 3.45527 13.6641C3.47127 13.7761 3.47127 13.9041 3.48727 14.0321C3.51927 14.1441 3.58327 14.2881 3.59927 14.4321C3.61527 14.5281 3.61527 14.6401 3.64727 14.7521C3.67927 14.8641 3.74327 14.9761 3.77527 15.0881C3.80727 15.2481 3.80727 15.3921 3.83927 15.5361C3.88727 15.7121 3.95127 15.8721 4.01527 16.0321C4.06327 16.1761 4.03127 16.3361 4.07927 16.5121C4.17527 16.8641 4.30327 17.2481 4.41527 17.5681C4.46327 17.7441 4.44727 17.9201 4.52727 18.1121C4.57527 18.2401 4.62327 18.3201 4.67127 18.4321C4.71927 18.5441 4.67127 18.6721 4.71927 18.8001C4.76727 19.0081 4.79927 19.2961 4.87927 19.5041C4.95927 19.7441 5.10327 19.9361 5.18327 20.1601C5.26327 20.4001 5.26327 20.6401 5.34327 20.8961C5.42327 21.1041 5.53527 21.3121 5.61527 21.5041C5.67927 21.6801 5.66327 21.9041 5.72727 22.0801C5.79127 22.2721 5.93527 22.4321 6.01527 22.6241C6.11127 22.8481 6.15927 23.0881 6.22327 23.3121C6.23927 23.4081 6.27127 23.5041 6.28727 23.6001C6.36727 23.9041 6.52727 24.1601 6.63927 24.4321C6.68727 24.5601 6.68727 24.6721 6.73527 24.8001C6.79927 25.0081 6.89527 25.2161 6.99127 25.4241C7.07127 25.6001 7.18327 25.7761 7.26327 25.9521C7.32727 26.1121 7.34327 26.2721 7.42327 26.4481C7.48727 26.6081 7.56727 26.8001 7.63127 26.9601C7.67927 27.0561 7.67927 27.1521 7.72727 27.2481C7.93527 27.7121 8.17527 28.1601 8.39927 28.6081C8.51127 28.8481 8.55927 29.1201 8.67127 29.3761C8.76727 29.5681 8.87927 29.7601 8.95927 29.9681C9.00727 30.0961 9.02327 30.2241 9.08727 30.3521C9.19927 30.5921 9.35927 30.8481 9.47127 31.0881C9.50327 31.1521 9.58327 31.4081 9.55127 31.5041C9.55127 31.5201 9.55127 31.5361 9.51927 31.5521C9.45527 31.5681 9.29527 31.4401 9.19927 31.3601C8.91127 31.0721 8.86327 30.5441 8.65527 30.1601C8.59127 30.0641 8.52727 29.9361 8.47927 29.8241C8.44727 29.7441 8.43127 29.6641 8.39927 29.5841C8.25527 29.4081 8.11127 29.1841 7.99927 28.9281C7.91927 28.7521 7.90327 28.5441 7.82327 28.3681C7.48727 27.6481 7.10327 26.9601 6.79927 26.2401C6.65527 25.9201 6.62327 25.5521 6.49527 25.1841C6.39927 24.9761 6.27127 24.8161 6.19127 24.6081C6.12727 24.4481 6.11127 24.2881 6.03127 24.1281C5.93527 23.9201 5.80727 23.7281 5.72727 23.5041C5.67927 23.3601 5.66327 23.2161 5.59927 23.0721C5.53527 22.9121 5.42327 22.7841 5.35927 22.6241C5.26327 22.4001 5.24727 22.1761 5.16727 21.9201C5.11927 21.7761 5.07127 21.6321 5.02327 21.5201C4.99127 21.3921 4.97527 21.2801 4.92727 21.1681C4.83127 20.8961 4.67127 20.6561 4.55927 20.3681C4.49527 20.1921 4.51127 19.9521 4.41527 19.7601C4.35127 19.6161 4.23927 19.4881 4.17527 19.3441C4.11127 19.1841 4.17527 18.9921 4.12727 18.7841C4.07927 18.6081 3.99927 18.4321 3.93527 18.2561C3.90327 18.1441 3.90327 18.0481 3.87127 17.9361C3.79127 17.7121 3.71127 17.4881 3.63127 17.2641C3.58327 17.1521 3.58327 17.0401 3.53527 16.9441C3.47127 16.8161 3.37527 16.6881 3.32727 16.5441C3.27927 16.3201 3.26327 16.0961 3.19927 15.8881C3.13527 15.6321 3.03927 15.4081 2.94327 15.1361C2.92727 15.0401 2.92727 14.9601 2.91127 14.8641C2.84727 14.6241 2.81527 14.3521 2.73527 14.1121C2.71927 14.0001 2.71927 13.8881 2.68727 13.7761C2.62327 13.5521 2.54327 13.3121 2.47927 13.1041C2.43127 12.9601 2.43127 12.8161 2.39927 12.6721C2.28727 12.3201 2.17527 11.8881 2.07927 11.5521C2.04727 11.4401 2.04727 11.3441 2.03127 11.2321C1.93527 10.9601 1.82327 10.6401 1.75927 10.3521C1.72727 10.1921 1.72727 10.0321 1.69527 9.87206C1.64727 9.68006 1.58327 9.50406 1.55127 9.31206C1.53527 9.21606 1.55127 9.15206 1.53527 9.08806C1.51927 8.96006 1.51927 8.83206 1.48727 8.70406C1.35927 8.20806 1.16727 7.60006 1.05527 7.10406C1.02327 6.92806 1.02327 6.75206 1.00727 6.56006C0.991271 6.44806 0.975271 6.30406 0.943272 6.17606C0.895271 6.03206 0.847272 5.90406 0.815272 5.77606C0.799272 5.55206 0.799272 5.34406 0.767272 5.13606C0.767272 5.12006 0.767272 5.10406 0.751272 5.08806C0.703272 4.83206 0.575272 4.32006 0.543272 4.11206C0.511272 3.87206 0.495272 3.61606 0.463272 3.37606C0.463272 3.21606 0.431272 3.05606 0.415272 2.88006C0.367272 2.62406 0.303272 2.40006 0.271272 2.12806C0.255272 1.95206 0.255272 1.79206 0.239272 1.64806C0.239272 1.55206 0.223272 1.39206 0.111272 1.39206C-0.000728179 1.39206 0.0152718 1.53606 -0.000728174 1.64806C-0.0167282 1.92006 0.0312718 2.25606 0.0632718 2.43206C0.0952718 2.73606 0.0632718 3.04006 0.111272 3.34406C0.127272 3.50406 0.175272 3.68006 0.191272 3.84006C0.223272 4.12806 0.255272 4.43206 0.303272 4.70406V4.72006C0.319272 4.86406 0.335272 4.99206 0.351272 5.12006C0.351272 5.13606 0.351272 5.15206 0.351272 5.15206C0.351272 5.16806 0.351272 5.16806 0.351272 5.16806V5.18406C0.367272 5.24806 0.383272 5.29606 0.399272 5.36006C0.431272 5.47206 0.415272 5.56806 0.447272 5.68006C0.559272 6.03206 0.543272 6.40006 0.623272 6.73606C0.751272 7.23206 0.831272 7.77606 0.959272 8.25606C1.00727 8.40006 0.959271 8.54406 1.00727 8.70406C1.05527 8.86406 1.08727 9.00806 1.11927 9.16806C1.15127 9.36006 1.13527 9.55206 1.18327 9.72806C1.23127 9.90406 1.27927 10.0801 1.32727 10.2401C1.39127 10.4481 1.39127 10.6561 1.43927 10.8801C1.50327 11.0881 1.58327 11.3281 1.61527 11.5521C1.66327 11.8081 1.67927 12.0961 1.72727 12.3521C1.77527 12.5761 1.88727 12.8321 1.95127 13.0881C1.96727 13.1681 1.95127 13.2481 1.96727 13.3281C1.99927 13.5041 2.04727 13.6641 2.09527 13.8401C2.11127 13.9201 2.11127 13.9841 2.12727 14.0641C2.20727 14.3841 2.30327 14.7841 2.39927 15.1041C2.44727 15.2001 2.46327 15.2801 2.47927 15.3761C2.54327 15.6001 2.60727 15.7601 2.63927 15.8881C2.65527 16.0001 2.67127 16.1281 2.70327 16.2401C2.75127 16.4161 2.79927 16.5601 2.83127 16.7041C2.86327 16.8321 2.87927 16.9281 2.91127 17.0561C2.94327 17.2001 3.00727 17.3281 3.07127 17.4721C3.16727 17.7601 3.18327 18.0641 3.27927 18.3361C3.34327 18.4961 3.40727 18.6721 3.47127 18.8481C3.51927 19.0081 3.51927 19.2001 3.58327 19.3921C3.67927 19.6641 3.79127 19.9841 3.88727 20.2561C4.01527 20.5921 4.07927 20.9441 4.19127 21.2641C4.23927 21.3921 4.22327 21.5041 4.27127 21.6481C4.36727 21.9521 4.46327 22.3041 4.57527 22.6241C4.62327 22.7841 4.62327 22.9441 4.70327 23.1041C4.79927 23.3601 4.95927 23.5841 5.05527 23.8561C5.13527 24.0961 5.15127 24.3201 5.24727 24.5441C5.35927 24.8321 5.50327 25.1201 5.61527 25.4241C5.69527 25.6321 5.71127 25.8401 5.80727 26.0481C5.88727 26.2241 5.98327 26.3841 6.06327 26.5601C6.11127 26.7201 6.15927 26.8641 6.22327 27.0081C6.25527 27.1201 6.38327 27.3281 6.47927 27.4721C6.57527 27.6801 6.59127 27.9041 6.67127 28.1281C6.79927 28.4641 6.95927 28.8161 7.10327 29.1361C7.15127 29.2641 7.16727 29.3761 7.21527 29.5041C7.29527 29.7281 7.45527 29.9041 7.53527 30.1121C7.63127 30.3201 7.66327 30.5281 7.74327 30.7201C7.87127 31.0081 7.96727 31.1521 7.96727 31.5521C7.96727 31.5841 7.95127 31.6161 7.91927 31.6321C7.83927 31.6641 7.75927 31.5361 7.71127 31.4881C7.50327 31.2801 7.47127 31.0721 7.32727 30.7841C7.11927 30.3361 6.86327 29.9201 6.65527 29.4881C6.54327 29.2641 6.51127 29.0081 6.39927 28.7841C6.33527 28.6401 6.23927 28.4961 6.17527 28.3681C6.07927 28.1601 6.03127 27.9521 5.93527 27.7601C5.79127 27.4881 5.66327 27.1681 5.55127 26.8641C5.50327 26.7521 5.50327 26.6401 5.43927 26.5281C5.39127 26.4001 5.31127 26.3041 5.24727 26.1921C5.16727 26.0161 5.11927 25.7761 5.03927 25.5841C4.87927 25.2321 4.68727 24.8481 4.55927 24.4641C4.43127 24.1121 4.36727 23.7761 4.23927 23.4241C4.19127 23.2801 4.11127 23.1201 4.06327 22.9761C4.01527 22.8481 4.01527 22.7201 3.98327 22.6081C3.87127 22.2881 3.71127 21.9521 3.58327 21.6481C3.51927 21.4881 3.50327 21.3441 3.43927 21.1841C3.35927 20.9921 3.27927 20.7681 3.21527 20.5761C3.11927 20.3201 3.11927 20.0161 3.02327 19.7601C2.81527 19.1841 2.55927 18.5761 2.36727 17.9681C2.33527 17.8241 2.35127 17.6801 2.30327 17.5521C2.20727 17.2481 2.11127 16.9121 2.01527 16.5921C1.85527 16.2241 1.85527 15.8401 1.74327 15.4881C1.59927 15.0241 1.43927 14.5601 1.31127 14.1121C1.26327 13.9841 1.27927 13.8241 1.23127 13.6961C1.15127 13.3441 1.02327 12.9281 0.911272 12.6081C0.847272 12.4481 0.847272 12.2721 0.799272 12.1121C0.719272 11.9361 0.527272 12.0001 0.543272 12.2081C0.559272 12.4001 0.623272 12.6401 0.639272 12.7361C0.655272 12.8641 0.655272 12.9921 0.687272 13.1361C0.751272 13.3761 0.815272 13.5841 0.895272 13.7921C0.959272 14.0321 0.959271 14.2401 1.03927 14.4801C1.07127 14.5921 1.11927 14.7361 1.15127 14.8481C1.21527 15.0881 1.21527 15.3281 1.29527 15.5521C1.35927 15.7121 1.40727 15.9201 1.45527 16.1121C1.48727 16.2241 1.48727 16.3201 1.51927 16.4481C1.58327 16.6561 1.64727 16.8801 1.71127 17.0881C1.74327 17.2161 1.72727 17.3121 1.75927 17.4241C1.80727 17.6001 1.83927 17.7761 1.88727 17.9201C1.93527 18.0801 1.91927 18.2721 1.98327 18.4481C2.07927 18.7361 2.17527 19.0561 2.28727 19.3281C2.39927 19.6321 2.41527 19.9521 2.52727 20.2721C2.73527 20.8321 2.91127 21.4721 3.11927 22.0321C3.16727 22.1761 3.15127 22.3201 3.19927 22.4801C3.26327 22.7201 3.31127 22.9601 3.40727 23.2001C3.43927 23.3121 3.51927 23.4241 3.56727 23.5361C3.63127 23.6801 3.64727 23.8241 3.71127 23.9681C3.75927 24.0801 3.83927 24.1921 3.88727 24.3041C3.95127 24.4801 3.93527 24.7041 3.99927 24.8641C4.04727 25.0081 4.12727 25.1521 4.17527 25.2801C4.22327 25.4401 4.22327 25.6001 4.30327 25.7441C4.35127 25.8721 4.44727 26.0001 4.51127 26.1121C4.57527 26.2241 4.57527 26.3521 4.62327 26.4801C4.67127 26.6081 4.75127 26.7521 4.79927 26.8801C4.86327 27.0241 4.86327 27.1841 4.92727 27.3281C4.99127 27.4561 5.07127 27.5841 5.11927 27.7121C5.16727 27.8561 5.16727 28.0161 5.21527 28.1601C5.29527 28.3841 5.43927 28.5761 5.53527 28.7841C5.59927 28.9441 5.61527 29.1041 5.67927 29.2641C5.75927 29.4561 5.87127 29.6321 5.95127 29.8081C6.06327 30.0481 6.14327 30.3041 6.23927 30.5281C6.41527 30.9281 6.47927 31.3761 6.67127 31.7761C6.79927 32.0801 6.99127 32.3521 7.11927 32.6401C7.19927 32.8001 7.21527 32.9761 7.29527 33.1361C7.37527 33.3121 7.51927 33.4561 7.59927 33.6321C7.66327 33.8081 7.71127 33.9841 7.79127 34.1601C7.90327 34.3841 8.04727 34.5921 8.14327 34.8001C8.20727 34.9281 8.22327 35.0561 8.28727 35.1681C8.39927 35.4081 8.57527 35.6161 8.68727 35.8561C8.75127 36.0161 8.79927 36.1761 8.86327 36.3361C8.99127 36.5921 9.18327 36.8001 9.29527 37.0721C9.39127 37.2641 9.43927 37.4721 9.55127 37.6321C9.72727 37.9041 9.83927 38.0801 9.99927 38.3681C10.1113 38.5441 10.2553 38.8161 10.3513 39.0081C10.4473 39.2001 10.5913 39.3601 10.6713 39.5521C10.7513 39.7441 10.8633 39.9361 10.9753 40.1121C11.0873 40.3041 11.1993 40.4481 11.3273 40.6401C11.5353 40.9441 11.6633 41.2641 11.8553 41.5841C11.9993 41.8081 12.1593 42.0161 12.3033 42.2241C12.7033 42.7841 13.2793 43.7761 13.5353 44.1121C13.7433 44.3841 13.9033 44.7041 14.0953 44.9761C14.2393 45.2001 14.4313 45.4241 14.5753 45.6161C14.7033 45.7921 14.8153 45.9681 14.9273 46.1441L15.0233 46.2721C20.2073 52.8641 25.5353 57.2161 30.0313 60.0801C32.3993 61.5681 33.6793 62.0001 33.6793 62.0001C33.9833 62.1281 33.7753 62.3361 33.6313 62.4481L6.95927 79.5521C6.87927 79.6161 6.67127 79.7601 6.75127 79.9361C6.81527 80.0641 7.08727 80.0001 7.16727 79.9681C28.6233 72.4481 44.1913 66.2561 53.7113 61.7281C63.3433 57.1521 66.5913 54.5281 66.2393 53.2161ZM9.16727 27.9361C9.11927 27.8401 9.05527 27.7281 9.00727 27.6161C8.95927 27.4881 8.95927 27.3761 8.91127 27.2641C8.73527 26.8961 8.55927 26.4801 8.38327 26.1121C8.31927 25.9521 8.22327 25.6641 8.28727 25.4721C8.30327 25.4401 8.35127 25.4561 8.38327 25.4881C8.44727 25.5361 8.47927 25.5681 8.52727 25.6321C8.55927 25.6801 8.57527 25.7441 8.60727 25.7921C8.68727 25.9201 8.79927 26.0481 8.86327 26.1921C9.00727 26.4961 9.03927 26.8321 9.18327 27.1361C9.27927 27.3281 9.42327 27.5041 9.51927 27.6961C9.56727 27.8081 9.59927 27.9201 9.63127 28.0321C9.64727 28.1121 9.64727 28.2401 9.64727 28.3041C9.64727 28.4001 9.64727 28.4641 9.59927 28.4801C9.34327 28.4641 9.26327 28.1281 9.16727 27.9361ZM10.2873 36.1281C10.2713 36.1601 10.2553 36.1921 10.2073 36.1921C9.91927 36.1761 9.83927 35.7601 9.71127 35.5681C9.61527 35.4081 9.51927 35.2321 9.42327 35.0561C9.34327 34.9441 9.24727 34.8321 9.18327 34.6881C9.10327 34.5281 9.07127 34.3521 8.97527 34.2081C8.92727 34.1281 8.84727 34.0641 8.78327 33.9841C8.62327 33.7761 8.49527 33.5521 8.38327 33.2961C8.36727 33.2001 8.33527 33.1041 8.31927 33.0081C8.25527 32.8481 8.19127 32.6721 8.14327 32.4961C8.11127 32.4161 8.09527 32.2401 8.11127 32.1761C8.12727 32.1601 8.12727 32.1281 8.15927 32.1441C8.38327 32.1761 8.59127 32.7041 8.70327 32.8961C8.81527 33.1041 9.00727 33.2641 9.10327 33.4881C9.19927 33.6801 9.23127 33.9361 9.32727 34.1281C9.40727 34.2721 9.55127 34.3841 9.63127 34.5281C9.75927 34.7041 9.83927 34.9441 9.91927 35.1361C10.0153 35.3601 10.1753 35.5361 10.2553 35.7601C10.2873 35.8721 10.3033 36.0321 10.2873 36.1281ZM16.2873 34.9121C16.1593 34.8961 16.0953 34.8161 16.0153 34.7521C15.7913 34.5921 15.5993 34.3201 15.5993 33.9361C15.5993 33.9041 15.6153 33.8881 15.6313 33.8881C15.8873 33.8881 16.1593 34.2881 16.2713 34.4801C16.3033 34.5281 16.3673 34.6881 16.3513 34.8001C16.3513 34.8801 16.3193 34.9121 16.2873 34.9121ZM18.0953 34.9921C17.9193 35.0561 17.4873 34.5601 17.3593 34.3841C17.1353 34.0481 16.9113 33.6641 16.6713 33.3441C16.4473 33.0561 16.2073 32.8481 16.1593 32.3201C16.1593 32.2561 16.1113 32.1121 16.1593 32.1121C16.3993 32.1281 16.6233 32.5441 16.7513 32.7201C16.8313 32.8481 16.9273 32.9601 17.0233 33.0881C17.1353 33.2641 17.1833 33.4881 17.3113 33.6481C17.4553 33.8561 17.6473 34.0481 17.8073 34.2561C17.8873 34.3681 18.0153 34.4641 18.0633 34.6241C18.0633 34.6721 18.1433 34.9601 18.0953 34.9921ZM24.3993 38.4801C24.1433 38.5121 23.8553 38.1281 23.7273 37.9521C23.6953 37.9041 23.5513 37.6001 23.5833 37.5521C23.6313 37.5041 23.9353 37.6161 24.0153 37.6801C24.2073 37.8401 24.3673 38.0481 24.4633 38.4161C24.4633 38.4641 24.4153 38.4801 24.3993 38.4801Z" fill="#2A696D"/>
<path d="M168.752 74L151.312 37.728L133.984 74C131.392 78.96 128.528 79.056 128.528 79.056L128.272 79.328H140.128L139.84 79.056C139.84 79.056 136.528 78.4 138.64 74L141.744 67.6H156.592L159.6 74C161.696 78.416 158.384 79.056 158.384 79.056L158.128 79.328H174.464L174.176 79.056C174.192 79.056 171.168 79.056 168.752 74ZM143.376 64.24L149.504 51.376L155.088 64.24H143.376ZM113.232 75.584C104.704 75.584 98.8319 70 98.8319 59.792C98.8319 49.6 104.56 42.928 113.552 42.928C122.896 42.928 126.256 50.192 126.256 50.192L126.48 50.384V41.808C126.48 41.808 120.88 39.072 112.912 39.072C98.5279 39.072 89.5039 47.936 89.5039 59.824C89.4879 69.44 96.9439 80 112.32 80C118.128 80 124.88 77.696 124.88 77.696L128 67.088L127.648 67.312C127.648 67.296 122.608 75.584 113.232 75.584ZM321.584 39.728L321.856 40C321.856 40 325.36 40.992 322.72 45.088C321.424 47.088 317.52 52.672 313.968 58.064C310.4 52.672 306.56 47.04 305.264 45.056C302.624 40.944 306.144 40 306.144 40L306.4 39.728H290.08L290.336 40C290.336 40 292.704 40.4 295.808 45.056C297.104 47.024 303.744 56.288 307.312 61.696V74.032C307.312 78.704 304.656 79.104 304.656 79.104L304.384 79.376H318.56L318.288 79.104C318.288 79.104 315.648 78.704 315.648 74.032C315.648 72.048 315.632 67.104 315.632 61.696C319.2 56.288 325.84 47.072 327.152 45.088C330.224 40.416 333.744 40 333.744 40L334.016 39.728H321.584ZM293.6 74L276.16 37.728L258.832 74C256.24 78.96 253.376 79.056 253.376 79.056L253.104 79.328H264.96L264.704 79.056C264.704 79.056 261.392 78.4 263.488 74L266.592 67.6H281.456L284.464 74C286.576 78.416 283.264 79.056 283.264 79.056L282.992 79.328H299.312L299.04 79.056C299.04 79.056 296.032 79.056 293.6 74ZM268.224 64.24L274.352 51.376L279.936 64.24H268.224ZM174.432 39.728C169.76 39.728 169.104 39.28 169.104 39.28L169.088 47.168L169.36 46.96C169.36 46.96 171.488 43.536 176.144 43.536H182.8V74.016C182.8 78.688 180.16 79.088 180.16 79.088L179.888 79.36H194.064L193.792 79.088C193.792 79.088 191.136 78.688 191.136 74.016L191.168 43.536H197.664C202.336 43.536 204.576 46.96 204.576 46.96L204.848 47.168L204.864 39.28C204.864 39.28 204.208 39.728 199.52 39.728H174.432ZM248.816 74.016C248.816 69.344 248.8 49.648 248.8 44.976C248.8 40.304 251.44 39.968 251.44 39.968L251.712 39.712H237.536L237.792 39.968C237.792 39.968 240.448 40.304 240.448 44.976C240.448 49.648 240.464 56.368 240.464 56.368H220.96V44.976C220.96 40.304 223.616 39.984 223.616 39.984L223.872 39.712H209.712L209.984 39.984C209.984 39.984 212.624 40.304 212.624 44.976V74.016C212.624 78.688 209.984 79.088 209.984 79.088L209.712 79.36H223.872L223.616 79.088C223.616 79.088 220.96 78.688 220.96 74.016V60.272H240.464V74.016C240.464 78.688 237.824 79.088 237.824 79.088L237.552 79.36H251.744L251.472 79.088C251.472 79.104 248.816 78.704 248.816 74.016ZM414.592 74L397.168 37.728L379.84 74C377.248 78.96 374.384 79.056 374.384 79.056L374.112 79.328H385.952L385.712 79.056C385.712 79.056 382.384 78.4 384.496 74L387.616 67.6H402.448L405.456 74C407.552 78.416 404.256 79.056 404.256 79.056L403.984 79.328H420.32L420.048 79.056C420.032 79.056 417.04 79.056 414.592 74ZM389.232 64.24L395.344 51.376L400.928 64.24H389.232ZM527.744 45.04V74.08C527.744 78.752 530.4 79.136 530.4 79.136L530.672 79.408H516.496L516.768 79.136C516.768 79.136 519.424 78.752 519.424 74.08V45.04C519.424 40.368 516.768 39.984 516.768 39.984L516.496 39.728H530.672L530.4 39.984C530.4 39.984 527.744 40.368 527.744 45.04ZM456.496 67.296L456.832 67.072L453.728 77.696C453.728 77.696 446.976 80 441.168 80C425.792 80 418.336 69.424 418.336 59.856C418.336 47.952 427.36 39.104 441.76 39.104C449.712 39.104 455.312 41.84 455.312 41.84V50.416L455.088 50.224C455.088 50.224 451.728 42.96 442.4 42.96C433.376 42.96 427.664 49.632 427.664 59.824C427.664 70.016 433.552 75.616 442.064 75.616C451.44 75.584 456.496 67.296 456.496 67.296ZM506.32 39.728C510.992 39.728 511.664 39.28 511.664 39.28V46.368L511.392 46.16C511.392 46.16 509.44 43.472 504.768 43.472H494.72V56.16H503.072C507.744 56.16 508.128 54.112 508.128 54.112L508.4 53.84V62.368L508.128 62.096C508.128 62.096 507.728 60.048 503.072 60.048H494.72V74.08V74.096C494.72 78.768 497.36 79.152 497.36 79.152L497.632 79.424H483.472L483.728 79.152C483.728 79.152 486.368 78.768 486.368 74.096V45.056C486.368 40.384 483.728 40 483.728 40L483.472 39.728H506.32ZM473.2 45.04V74.08C473.2 78.752 475.856 79.136 475.856 79.136L476.128 79.408H461.952L462.224 79.136C462.224 79.136 464.864 78.752 464.864 74.08V45.04C464.864 40.368 462.224 39.984 462.224 39.984L461.952 39.728H476.128L475.856 39.984C475.856 39.984 473.2 40.368 473.2 45.04ZM573.184 67.088L570.064 77.712C570.064 77.712 563.312 80.016 557.52 80.016C542.128 80.016 534.672 69.44 534.672 59.872C534.672 47.968 543.712 39.104 558.096 39.104C566.048 39.104 571.664 41.84 571.664 41.84V50.416L571.44 50.224C571.44 50.224 568.08 42.96 558.736 42.96C549.728 42.96 544 49.632 544 59.824C544 70.016 549.888 75.616 558.4 75.616C567.808 75.616 572.832 67.328 572.832 67.328L573.184 67.088ZM366.672 65.344C375.424 65.344 380.624 58.72 380.624 52.336C380.624 48.8 379.328 42.512 370.48 40.272C368.512 39.76 366.304 39.744 363.424 39.744L347.872 39.728L348.128 39.984C348.128 39.984 350.784 40.384 350.784 45.04V74.08C350.784 78.752 348.128 79.136 348.128 79.136L347.872 79.408H362.032L361.776 79.136C361.776 79.136 359.136 78.752 359.136 74.08V63.968C360.368 64.496 362.864 65.344 366.672 65.344ZM359.136 45.04V43.52H360.992C363.28 43.52 365.632 43.52 367.056 43.984C370.8 45.088 372.688 47.936 372.688 52.432C372.688 56.096 370.352 61.552 363.904 61.552C362.048 61.552 360.096 60.816 359.136 60.368V45.04Z" fill="#2A696D"/>
</g>
<defs>
<clipPath id="clip0_706_2586">
<rect width="573.184" height="80" fill="white"/>
</clipPath>
</defs>
</svg>
