<?xml version="1.0" encoding="utf-8"?>
<!-- Generator: Adobe Illustrator 25.4.1, SVG Export Plug-In . SVG Version: 6.00 Build 0)  -->
<svg version="1.1" id="Layer_2_00000159471598350358213750000014612203606435250611_"
	 xmlns="http://www.w3.org/2000/svg" xmlns:xlink="http://www.w3.org/1999/xlink" x="0px" y="0px" viewBox="0 0 266.8 80"
	 style="enable-background:new 0 0 266.8 80;" xml:space="preserve">
<style type="text/css">
	.st0{fill:#083025;}
	.st1{fill:#007266;}
</style>
<g>
	<path class="st0" d="M220,47.2v-39h-5.4v28.3c0,6.1-0.8,8.2-3.3,11c-2.3,2.6-5.9,3.9-9.7,3.9c-7.2,0-11.8-4.4-11.8-14.9
		c0-12.6,12.8-23.9,12.8-23.9V8.2h-14.6v4.1h9.7c-0.3,0.3-13.1,11.6-13.1,25.7c0,7.2,2.8,17.7,16.2,17.7c5.7,0,11.6-2.8,14.6-8.5
		c-0.5,8.2,6.4,8.2,9.7,6.9v-3.6C223,51,220,51.3,220,47.2 M242.8,19c0-4.6,3.1-7.2,10-7.2c4.1,0,8.5,1,11,2.3V8.9
		c-3.1-1-6.9-1.8-10.5-1.8c-8.5,0-15.9,3.6-15.9,12.1c0,14.9,23.9,11,23.9,23.9c0,4.1-2.8,8-10.8,8c-4.6,0-9.7-1.3-13.6-3.3v5.1
		c3.9,1.6,8.7,2.8,13.3,2.8c10.8,0,16.4-5.7,16.4-12.8C266.7,27.2,242.8,30.3,242.8,19 M160.9,15.1l-1-6.9h-10.3v4.1h6.1v42.4h5.4
		V25.9c0-13.3,6.7-13.6,11.3-13.6c1,0,1.8,0,2.6,0.3V7.4c-0.8,0-1.8-0.3-2.6-0.3C167.4,7.4,163.2,10.2,160.9,15.1 M118.4,51
		c-1.6,0-6.1-0.3-9.3-0.8V24.6c0-8.7,3.9-13.3,12.8-13.3c9,0,13.3,6.4,13.3,19.5C135.3,43.1,131.7,51,118.4,51 M122.2,7.4
		c-3.9,0-6.9,0.8-9.3,2.3c-1.8,1-3.3,2.8-4.4,4.4l-0.8-5.7H97.5v4.1h6.1v63.1h5.4V54.9c2.8,0.5,6.1,1,9.3,1
		c15.9,0,22.3-10,22.3-24.9C140.7,16.9,134.5,7.4,122.2,7.4 M22.8,4.6c6.7,0,10.8,3.9,12.6,9.3l4.6-1.3c-0.8-2.8-2.3-5.7-3.9-7.4
		C33.1,1.8,28.5,0,22.8,0C8.7,0.2,0,11,0,27.7c0,17.4,7.7,28,23.1,28c5.7,0,11.6-2,14.6-4.4v-5.4c-3.9,3.1-9.7,4.9-13.9,4.9
		c-13.3,0-18.5-9.3-18.5-23.1C5.4,12.5,12.3,4.6,22.8,4.6 M85.2,54.4c0,8.7-0.3,11.8-3.1,15.7c-3.6,5.1-10.3,6.7-15.9,6.7
		c-4.9,0-11-1-14.4-2.8v-4.4c3.6,1.8,10,3.1,14.1,3.1c4.9,0,8.7-1.6,11.3-4.6c2-2.6,2.6-4.6,2.6-12.1v-7.4
		c-3.1,5.1-8.7,6.9-14.4,6.9c-4.9,0-9.3-1.8-12.1-4.6c-3.3-3.3-3.9-8.5-3.9-13.1V8.2h5.4v29.3c0,5.4,0.5,8.2,2.8,10.5
		c2,2,5.1,3.1,8.7,3.1c3.9,0,7.7-1,10-3.9c2.6-2.8,3.3-6.4,3.3-12.3V8.2h5.4C85.2,8.2,85.2,54.4,85.2,54.4z"/>
	<path class="st1" d="M239.5,66.7c-0.3-0.3-0.5-0.3-1-0.3c-2.3,0-4.6,2.6-4.6,5.7c0,1.6,0.8,2.3,1.8,2.3c0.8,0,1.6-0.3,2-0.8
		c0.5-0.5,0.8-1.3,1-2.3L239.5,66.7z M240.3,73.1c0,0.3,0,0.5,0,0.5c0,0.3,0.3,0.5,0.5,0.5s0.8-0.3,1-0.3l-0.3,1.3
		c-0.5,0.3-1,0.5-1.6,0.5c-0.8,0-1.6-0.3-1.6-1c-0.5,0.8-1.8,1.3-2.8,1.3c-2,0-3.3-1.6-3.3-3.6c0-3.6,2.8-6.9,6.9-6.9
		c0.8,0,1.6,0.3,2,0.5l1-0.3L240.3,73.1z M224.9,71.3c-0.3,0.5-0.5,1.3-0.8,2c0-0.8,0-1.3,0-2l-0.5-6.1h-1.8l0.3,2.3l-2,3.9
		c-0.3,0.5-0.8,1.3-0.8,2c0-0.5,0-1.6,0-2l-1-6.1h-2l1.3,10.3h1.6l3.1-5.7l0.5,5.7h1.6l5.4-10.3h-1.8L224.9,71.3z M252.9,69.3
		c-0.3,1.6-0.8,2.6-1.3,3.3c-0.5,0.8-1.3,1.3-2.3,1.3c-0.5,0-1-0.3-1.3-0.5c-0.3-0.3-0.5-0.8-0.5-1s0-1,0.3-1.6l1.3-5.7h-2l-1.3,5.7
		c-0.3,0.8-0.3,1.3-0.3,2s0.3,1.6,0.8,2c0.5,0.5,1.3,0.8,2.3,0.8c1,0,2.3-0.5,2.8-1l0.3,0.8c-0.3,1-0.5,1.8-1.3,2.3
		c-0.5,0.3-0.8,0.5-1.6,0.8c-0.3,0-0.5,0-0.8,0c-1,0-2.3-0.3-3.1-0.8l-0.3,1.6c0.8,0.5,2,0.8,3.1,0.8l0,0l0,0c1.8,0,3.9-0.8,4.9-2.6
		c0.5-0.8,0.5-1.6,0.8-2.3l2.1-10h-2L252.9,69.3z M264.2,66.2c0.8,0,1.8,0.3,2.6,0.5l0.3-1.6c-0.5-0.3-1.8-0.5-2.8-0.5
		c-2.6,0-4.4,1.3-4.4,3.1c0,1.6,1,2.3,2.3,2.8c1.3,0.5,2,1,2,1.8s-0.8,1.6-2.3,1.6c-1,0-2.3-0.3-3.1-0.8l-0.3,1.6
		c1,0.5,2,0.8,3.3,0.8c2.6,0,4.4-1.3,4.4-3.3c0-1.6-1-2-2.6-2.8c-1-0.5-1.8-1-1.8-1.6C261.8,67,262.6,66.2,264.2,66.2 M202.3,65.1
		h-3.6l-0.3,1.6h1.6l-1.3,6.4c0,0.5-0.3,0.8-0.3,1c0,1,0.8,1.6,1.8,1.6c0.5,0,1.3-0.3,1.6-0.5l0.3-1.3c-0.3,0-0.8,0.3-1,0.3
		s-0.5,0-0.5-0.5v-0.5L202.3,65.1z M192,66.7c-0.3-0.3-0.5-0.3-1-0.3c-2.3,0-4.6,2.6-4.6,5.7c0,1.6,0.8,2.3,1.8,2.3
		c0.8,0,1.6-0.3,2-0.8c0.5-0.5,0.8-1.3,1-2.3L192,66.7z M192.8,73.1c0,0.3,0,0.5,0,0.5c0,0.3,0.3,0.5,0.5,0.5s0.8-0.3,1-0.3
		l-0.3,1.3c-0.5,0.3-1,0.5-1.6,0.5c-0.8,0-1.6-0.3-1.6-1c-0.5,0.8-1.8,1.3-2.8,1.3c-2,0-3.3-1.6-3.3-3.6c0-3.6,2.8-6.9,6.9-6.9
		c0.8,0,1.6,0.3,2,0.5l1-0.3L192.8,73.1z M209.5,66.7v-1.6h-2.8l-0.3,1.6h1.6l-1.8,8.7h2l1-4.6c0.3-1.6,0.5-2.8,1.3-3.6
		c0.5-0.5,1-0.5,1.6-0.5c0.3,0,0.5,0,0.8,0l0.5-1.8c-0.3,0-0.5,0-0.8,0C211,64.9,210.2,65.7,209.5,66.7 M203,61.8
		c0,0.8-0.8,1.6-1.6,1.6c-0.5,0-1-0.5-1-1c0-0.8,0.8-1.6,1.6-1.6C202.5,61,203,61.3,203,61.8"/>
</g>
</svg>
