<?xml version="1.0" encoding="utf-8"?>
<!-- Generator: Adobe Illustrator 25.4.1, SVG Export Plug-In . SVG Version: 6.00 Build 0)  -->
<svg version="1.1" xmlns="http://www.w3.org/2000/svg" xmlns:xlink="http://www.w3.org/1999/xlink" x="0px" y="0px"
	 viewBox="0 0 112.16 80" style="enable-background:new 0 0 112.16 80;" xml:space="preserve">
<style type="text/css">
	.st0{fill:#0093D0;}
	.st1{fill:#FFFFFF;}
	.st2{fill:#ED1B2F;}
</style>
<g id="Layer_2">
</g>
<g id="Layer_1">
	<path id="polygon6238" class="st0" d="M112.16,0h-32.1L0,80h80.06L112.16,0z"/>
	<path id="path6240" class="st1" d="M74.63,30.79c-1.25-0.62-2.06-1.87-2.06-3.31c0-2,1.62-3.68,3.68-3.68c2,0,3.68,1.62,3.68,3.68
		c0,1.44-0.87,2.75-2.12,3.31v1.06c1.12,0.12,2.5,0.56,3.37,1c0.37-0.06,0.87-0.06,1.37-0.06c4.62,0,7.87,3.06,7.87,7.24
		c0,2.62-2.31,5-4.93,5c-2.62,0-5-2.56-4.5-5.18c0,0-0.25,0.87-0.25,2v13.24c-0.12,1.5-2.12,9.8-11.49,9.8s-11.37-8.31-11.49-9.8
		V41.84c0-1.06-0.31-2-0.31-2c0.5,2.5-1.94,5.18-4.5,5.18c-2.62,0-4.93-2.37-4.93-5c0-4.18,3.25-7.24,7.87-7.24c0.5,0,1,0,1.37,0.06
		c0.81-0.44,2.25-0.94,3.37-1v-1.06c-1.25-0.62-2.06-1.87-2.06-3.31c0-2,1.62-3.68,3.68-3.68c2.06,0,3.68,1.62,3.68,3.68
		c0,1.44-0.87,2.75-2.12,3.31v1.37c0.31,0.12,0.62,0.19,0.94,0.37c0.56-1.25,1.69-2.19,3-2.62v-1.12c-1.25-0.56-2.12-1.87-2.12-3.31
		c0-2,1.62-3.68,3.68-3.68c2,0,3.68,1.62,3.68,3.68c0,1.44-0.87,2.75-2.06,3.31v1.12c1.31,0.44,2.44,1.37,3,2.62l0.94-0.37
		L74.63,30.79L74.63,30.79z"/>
	<path id="path6242" class="st2" d="M88.87,40.09c0-3.43-2.31-6.18-7.12-6.18c-3.19,0-6.93,2.69-6.93,9.49v10.12
		c1.37-0.94,3.31-1.75,4.31-1.75v-9.43c0-3.62,2.62-4.68,3.81-4.68c-0.69,0.62-1.12,1.37-1.12,2.44c0,1.94,1.56,3.5,3.5,3.5
		C87.31,43.59,88.81,42.15,88.87,40.09L88.87,40.09z"/>
	<path id="path6244" class="st2" d="M49.34,40.09c0-3.43,2.31-6.18,7.12-6.18c3.19,0,6.99,2.69,6.99,9.49v10.12
		c-1.37-0.94-3.31-1.75-4.31-1.75v-9.43c0-3.62-2.62-4.68-3.81-4.68c0.69,0.62,1.12,1.37,1.12,2.44c0,1.94-1.62,3.5-3.5,3.5
		C50.9,43.59,49.4,42.15,49.34,40.09L49.34,40.09z"/>
	<path id="path6246" class="st2" d="M69.13,63.45c7.99,0,9.8-6.68,10.05-8.43v-2.25c-2.5,0.62-4.68,1.94-6.18,3.93
		c-0.5-2.31-2-4.25-3.87-5.56c-1.87,1.25-3.31,3.25-3.87,5.56c-1.5-2-3.68-3.31-6.18-3.93v2.25C59.27,56.77,61.08,63.45,69.13,63.45
		z"/>
	<path id="path6248" class="st2" d="M69.7,28.04v2.81c1.37,0.19,2.56,1.12,3,2.25c-1.62,1.06-2.94,2.69-3.56,4.68
		c-0.62-2-1.94-3.62-3.56-4.68c0.5-1.12,1.62-2.06,3-2.25v-2.81c-1.12-0.25-2-1.31-2-2.5c0-1.44,1.19-2.56,2.56-2.56
		c1.44,0,2.56,1.12,2.56,2.56C71.69,26.73,70.82,27.79,69.7,28.04L69.7,28.04z"/>
	<path id="path6250" class="st2" d="M62.64,30.04v2.94c3.5,0.69,6,4.37,6,7.81v9.49c-1.62,0.94-3.25,2.87-3.75,4.43
		c-0.12-0.12-0.25-0.31-0.44-0.44V42.03c0-3.68-2-7.43-5.5-8.62c0,0,1.12-0.5,2.56-0.5v-2.94c-1.12-0.25-2-1.25-2-2.5
		c0-1.44,1.12-2.56,2.56-2.56s2.56,1.12,2.56,2.56C64.64,28.73,63.76,29.73,62.64,30.04z"/>
	<path id="path6252" class="st2" d="M76.75,30.04v2.87c1.44,0,2.56,0.5,2.56,0.5c-3.56,1.25-5.5,5-5.5,8.62v12.24l-0.44,0.44
		c-0.5-1.62-2.12-3.56-3.75-4.43v-9.49c0-3.43,2.5-7.12,6-7.81v-3c-1.12-0.25-2-1.25-2-2.5c0-1.44,1.12-2.56,2.56-2.56
		c1.44,0,2.56,1.12,2.56,2.56C78.81,28.73,77.94,29.79,76.75,30.04z"/>
</g>
</svg>
