<?xml version="1.0" encoding="utf-8"?>
<!-- Generator: Adobe Illustrator 25.4.1, SVG Export Plug-In . SVG Version: 6.00 Build 0)  -->
<svg version="1.1" id="Layer_1" xmlns="http://www.w3.org/2000/svg" xmlns:xlink="http://www.w3.org/1999/xlink" x="0px" y="0px"
	 viewBox="0 0 79.5 80" style="enable-background:new 0 0 79.5 80;" xml:space="preserve">
<style type="text/css">
	.st0{fill:url(#SVGID_1_);}
	.st1{fill:url(#SVGID_00000138542806751520819580000015057462234425611965_);}
	.st2{fill:url(#SVGID_00000106840548226132756860000001491096702640911501_);}
</style>
<g>
	<linearGradient id="SVGID_1_" gradientUnits="userSpaceOnUse" x1="67.0888" y1="2.5065" x2="54.2597" y2="69.592">
		<stop  offset="0.6949" style="stop-color:#007CC3"/>
		<stop  offset="1" style="stop-color:#000000"/>
	</linearGradient>
	<path class="st0" d="M79.2,29.5c-0.5,5.2-1.4,11-3.1,17.4c-1.3,4.8-2.7,9.3-4.2,13.1c-1,0.7-1.9,1.2-3,1.6c-3.4,1-7.5,0-10.9-1.3
		c-2.7-1.1-5.4-2.4-8.3-4.2c1.8-4.2,3.5-9,4.9-14.6c1.8-7.2,2.8-13.6,2.9-19.2v-0.1c0-3.4-0.1-6.5-0.5-9.4c-0.6-4-1.8-8-4.3-10.4
		c-0.8-0.7-1.8-1.3-2.8-1.8c0,0,0,0-0.1,0c5.2-0.6,9.9-0.7,14-0.4c4.3,0.4,8.8,1.4,11.3,4c2.5,2.5,3.6,6.9,4.1,11.2
		C79.6,19.5,79.6,24.2,79.2,29.5z"/>
	
		<linearGradient id="SVGID_00000012449455617442014780000000296124902164926347_" gradientUnits="userSpaceOnUse" x1="91.9879" y1="94.1397" x2="-1.2903" y2="25.9852">
		<stop  offset="0.6941" style="stop-color:#DCDDDE"/>
		<stop  offset="1" style="stop-color:#000000"/>
	</linearGradient>
	<path style="fill:url(#SVGID_00000012449455617442014780000000296124902164926347_);" d="M9.5,45.4c-0.2,1.1-0.2,2.3-0.1,3.5
		c2.7,3.3,5.7,6.6,9.3,10.1c4.7,4.7,9.3,8.4,13.6,11.5c4.3,3,8.3,5.3,12.1,7.1c4,1.8,8.3,3,11.8,2s6.6-4.2,9-7.8
		c2.4-3.4,4.7-7.5,6.8-12.3c-1,0.7-2,1.3-3.1,1.6c-3.4,1.1-7.4,0.1-11.1-1.4c-2.7-1.1-5.4-2.5-8.4-4.3c-4.7-2.9-9.8-6.9-15.1-12.1
		l0,0c-4.1-4-7.5-8-10.1-11.6c-3,1.6-5.5,3.3-7.8,5.1C13.1,38.9,10.2,41.9,9.5,45.4z"/>
	
		<linearGradient id="SVGID_00000016074832867336782380000015251605062522161340_" gradientUnits="userSpaceOnUse" x1="-15.5499" y1="37.5369" x2="72.3829" y2="12.4132">
		<stop  offset="0.6949" style="stop-color:#E21F26"/>
		<stop  offset="1" style="stop-color:#000000"/>
	</linearGradient>
	<path style="fill:url(#SVGID_00000016074832867336782380000015251605062522161340_);" d="M57.5,22.1c-4.5,0.5-9.3,1.3-14.8,2.9
		c-7.2,1.9-13.1,4.3-18.1,7c-3,1.6-5.7,3.3-8,5.1c-3.1,2.4-6,5.5-6.8,8.9c-0.2,1.1-0.2,2.3-0.1,3.5c-3.1-4.2-5.4-8.2-7.2-11.9
		c-1.9-4-3.1-8.4-2.3-11.9c0.8-3.5,4.1-6.8,7.7-9.3c3.4-2.4,7.4-4.8,12.2-7c4.7-2.2,10.2-4.1,16.6-5.9c4.6-1.3,8.9-2.2,13-2.8
		c1.1,0.5,2,1.1,2.8,1.8c2.5,2.4,3.7,6.4,4.3,10.4C57.3,15.6,57.5,18.7,57.5,22.1z"/>
</g>
</svg>
