<?xml version="1.0" encoding="utf-8"?>
<!-- Generator: Adobe Illustrator 25.4.1, SVG Export Plug-In . SVG Version: 6.00 Build 0)  -->
<svg version="1.1" id="Layer_1" xmlns="http://www.w3.org/2000/svg" xmlns:xlink="http://www.w3.org/1999/xlink" x="0px" y="0px"
	 viewBox="0 0 68.2 80" style="enable-background:new 0 0 68.2 80;" xml:space="preserve">
<style type="text/css">
	.st0{fill:#068D4B;}
</style>
<g>
	<path class="st0" d="M54.4,2.8C40.7-2.6,23.3,1,17.3,3.8S2,12.8,2,25.4h18.2c0,0,2.8-13.9,17.6-11.9c14.8,2,12,11.8,11.2,13
		c-0.8,1.2-3.6,5.6-13.2,6C26.1,32.9,4,31.9,0.4,54.5C-3.2,77,20.3,80,25,80c4.7,0,20.3-5,29.7-13.4c9.4-8.4,12.8-11.6,12.8-11.6
		l-17,21.5h17.8V21.1C68.2,21.1,68.2,8.2,54.4,2.8z M45.5,57.3c-2.6,4-8.6,8.2-14,8.2s-12.6-2.8-12.6-9.6s6.6-9.8,15.2-11.2
		c8.6-1.4,13-3.4,13-3.4C50.6,45.1,48.1,53.3,45.5,57.3z"/>
</g>
</svg>
