<?xml version="1.0" encoding="utf-8"?>
<!-- Generator: Adobe Illustrator 25.4.1, SVG Export Plug-In . SVG Version: 6.00 Build 0)  -->
<svg version="1.1" id="Layer_1" xmlns="http://www.w3.org/2000/svg" xmlns:xlink="http://www.w3.org/1999/xlink" x="0px" y="0px"
	 viewBox="0 0 265.6 80" style="enable-background:new 0 0 265.6 80;" xml:space="preserve">
<style type="text/css">
	.st0{fill:#068D4B;}
</style>
<g>
	<rect x="170.2" y="0" class="st0" width="13.9" height="77.4"/>
	<rect x="187.7" y="0" class="st0" width="13.9" height="77.4"/>
	<path class="st0" d="M41.7,0v29.7c-3.7-4.9-9.8-10.3-18.3-10.3C8.1,19.5,0,36.5,0,50.9C0,65.2,11,80,23.1,80
		c9,0,15.7-6.8,18.6-10.2v7.7h13.9V0H41.7z M26.3,66.4c-7.6,0-13.8-7.8-13.8-17.4c0-9.6,6.2-17.4,13.8-17.4
		c7.6,0,13.8,7.8,13.8,17.4C40.1,58.6,33.9,66.4,26.3,66.4z"/>
	<path class="st0" d="M100.4,21.6c-10.4-4.1-23.5-1.4-28.1,0.8c-4.5,2.1-11.6,6.8-11.6,16.4h13.7c0,0,2.1-10.5,13.3-9
		c11.2,1.5,9.1,8.9,8.5,9.8c-0.6,0.9-2.7,4.2-10,4.5c-7.2,0.3-24-0.5-26.7,16.6C56.8,77.7,74.6,80,78.1,80c3.6,0,15.3-3.8,22.4-10.1
		c7.1-6.3,9.7-8.8,9.7-8.8L97.4,77.4h13.4v-42C110.8,35.5,110.8,25.7,100.4,21.6z M93.6,62.8c-2,3-6.5,6.2-10.6,6.2
		s-9.5-2.1-9.5-7.2s5-7.4,11.5-8.5c6.5-1.1,9.8-2.6,9.8-2.6C97.6,53.6,95.6,59.8,93.6,62.8z"/>
	<path class="st0" d="M155.9,21.6c-10.4-4.1-23.5-1.4-28.1,0.8c-4.5,2.1-11.6,6.8-11.6,16.4h13.7c0,0,2.1-10.5,13.3-9
		c11.2,1.5,9.1,8.9,8.5,9.8c-0.6,0.9-2.7,4.2-10,4.5s-24-0.5-26.7,16.6C112.3,77.7,130,80,133.6,80c3.6,0,15.3-3.8,22.4-10.1
		c7.1-6.3,9.7-8.8,9.7-8.8l-12.8,16.3h13.4v-42C166.3,35.5,166.3,25.7,155.9,21.6z M149.1,62.8c-2,3-6.5,6.2-10.6,6.2
		c-4.1,0-9.5-2.1-9.5-7.2s5-7.4,11.5-8.5c6.5-1.1,9.8-2.6,9.8-2.6C153,53.6,151.1,59.8,149.1,62.8z"/>
	<path class="st0" d="M236.1,18.6c-16.2,0-29.4,13.7-29.4,30.7c0,16.9,13.2,30.7,29.4,30.7s29.4-13.7,29.4-30.7
		C265.6,32.4,252.4,18.6,236.1,18.6z M236.1,67.4c-8.4,0-15.2-8.1-15.2-18.1c0-10,6.8-18.1,15.2-18.1c8.4,0,15.2,8.1,15.2,18.1
		C251.4,59.3,244.6,67.4,236.1,67.4z"/>
</g>
</svg>
