<?xml version="1.0" encoding="utf-8"?>
<!-- Generator: Adobe Illustrator 25.4.1, SVG Export Plug-In . SVG Version: 6.00 Build 0)  -->
<svg version="1.1" id="Layer_1" xmlns="http://www.w3.org/2000/svg" xmlns:xlink="http://www.w3.org/1999/xlink" x="0px" y="0px"
	 viewBox="0 0 631.2 80" style="enable-background:new 0 0 631.2 80;" xml:space="preserve">
<style type="text/css">
	.st0{fill:#3C3C3B;}
</style>
<g>
	<polygon class="st0" points="22.4,80 40,40 57.4,80 39.9,68.8 	"/>
	<polygon class="st0" points="80,57.6 40,40 80,22.6 68.8,40.1 	"/>
	<polygon class="st0" points="57.6,0 40,40 22.6,0 40.1,11.2 	"/>
	<polygon class="st0" points="0,22.4 40,40 0,57.4 11.2,39.9 	"/>
	<g>
		<rect x="244.4" y="4.1" class="st0" width="7.9" height="70.5"/>
		<path class="st0" d="M327.9,4.1L320,9.5V24h-7.7v6h7.7v34.5c0,9.6,6.5,10.9,6.5,10.9h10.3V68c0,0-2.5,0-5.6,0s-3.3-3.4-3.3-3.4
			V30.1h8.9v-6h-8.9V4.1z"/>
		<path class="st0" d="M460.3,4.1h-4.7h-3.2l-25.1,70.5h7.9l7.2-20.3h31l7.2,20.3h7.9L463.5,4.1H460.3z M445.6,45.6L458,10.7
			l12.4,34.9H445.6z"/>
		<rect x="398.3" y="45.6" class="st0" width="25.9" height="8.7"/>
		<path class="st0" d="M571.3,23.1c-4.6,0-8.8,5.8-10.5,8.5V24H553v50.6h7.9V44.8c0-1.7,0.5-8.2,5.4-12.2c5.8-4.6,9-0.4,9-0.4
			l4.6-5.3C579.8,26.9,577.3,23.1,571.3,23.1z"/>
		<path class="st0" d="M370,22.5c-8.6,0-13.3,5.1-15.8,10.1V4.1h-7.9v70.5h7.9V40.4c0,0,1.7-10.7,13.2-10.7
			c11.4,0,11.5,9.1,11.5,9.1v35.9h7.9V37.7C386.7,37.7,386.9,22.5,370,22.5z"/>
		<polygon class="st0" points="161.8,4.1 141.1,62.4 120.1,4.1 115.9,4.1 113.4,4.1 108,4.1 108,74.6 115.9,74.6 115.9,16.7 
			135.6,74.6 145.6,74.6 165,19 165,74.6 175,74.6 175,4.1 165,4.1 		"/>
		<path class="st0" d="M228.3,67.6c0-4.1,0-31.2,0-31.2s-0.7-6.5-5.4-9.6c-4.7-3.1-11.4-3.5-14.5-3.5c-3,0-14.5-2.3-21.6,14.2
			c-0.1,0.3,8.2,1.3,8.2,1.3s2.5-8.7,13-8.7s13.2,6.8,13.2,9.3c0,2.6-2.1,3.8-5.2,4c-3.1,0.2-30.8,2.4-30.8,18.7
			s18.5,14.4,21.4,13.9c2.9-0.5,11.9-5,14.6-7.8c0,0,0.5,5.8,2.9,6.4h7.6C231.7,74.6,228.3,71.7,228.3,67.6z M204.8,69.1
			c-19,0-11-13.4,0-15.5c11-2,15.9-2.6,15.9-2.6S223.8,69.1,204.8,69.1z"/>
		<path class="st0" d="M286.9,23.1c-12.7,0-25.8,7.5-25.8,26.1s12.4,26.7,26.5,26.7c14.1,0,20.4-14.1,20.4-14.1l-7.2-1.6
			c-5.9,9.9-14.5,9-14.5,9c-17.3,0-15.8-16.5-15.8-16.5s0-0.1,0-0.4h38.1C311.8,34.9,299.7,23.1,286.9,23.1z M299.7,43.9h-29.2
			c0.1-3.3,2.3-13.8,16.5-13.8C301.9,30.1,299.7,43.9,299.7,43.9z"/>
		<path class="st0" d="M522.6,23.1c-12.7,0-25.8,7.5-25.8,26.1s12.4,26.7,26.5,26.7c14.1,0,20.4-14.1,20.4-14.1l-7.2-1.6
			c-5.9,9.9-14.5,9-14.5,9c-17.3,0-15.8-16.5-15.8-16.5s0-0.1,0-0.4h38.1C547.4,34.9,535.3,23.1,522.6,23.1z M535.4,43.9h-29.2
			c0.1-3.3,2.3-13.8,16.5-13.8C537.6,30.1,535.4,43.9,535.4,43.9z"/>
		<path class="st0" d="M606.5,22.6c-13.6,0-24.7,12.1-24.7,27c0,14.9,11,27,24.7,27s24.7-12.1,24.7-27
			C631.2,34.7,620.1,22.6,606.5,22.6z M606.5,69.2c-8,0-14.5-8.8-14.5-19.6c0-10.8,6.5-19.6,14.5-19.6c8,0,14.5,8.8,14.5,19.6
			C621,60.5,614.5,69.2,606.5,69.2z"/>
	</g>
</g>
</svg>
