<?xml version="1.0" encoding="utf-8"?>
<!-- Generator: Adobe Illustrator 25.4.1, SVG Export Plug-In . SVG Version: 6.00 Build 0)  -->
<svg version="1.1" id="Layer_1" xmlns="http://www.w3.org/2000/svg" xmlns:xlink="http://www.w3.org/1999/xlink" x="0px" y="0px"
	 viewBox="0 0 79.99 80" style="enable-background:new 0 0 79.99 80;" xml:space="preserve">
<style type="text/css">
	.st0{fill:#231F20;}
	.st1{fill:#FFFFFF;}
	.st2{fill:#FFCB0A;}
	.st3{fill:#EC2028;}
</style>
<path class="st0" d="M36.59,0.14c3.92-0.31,7.91-0.09,11.76,0.74c7.53,1.59,14.58,5.44,19.99,10.92
	c4.79,4.79,8.31,10.82,10.14,17.33c1.83,6.46,1.99,13.37,0.48,19.91c-1.12,4.84-3.15,9.46-5.96,13.55
	C67.97,70,60.35,75.62,51.78,78.24c-5.71,1.76-11.81,2.2-17.72,1.32c-6.78-0.99-13.28-3.79-18.67-8.01
	C9.35,66.84,4.7,60.38,2.2,53.14c-3-8.61-2.94-18.25,0.2-26.82c1.8-4.98,4.61-9.58,8.2-13.46c4.32-4.69,9.79-8.33,15.78-10.49
	C29.67,1.18,33.11,0.44,36.59,0.14L36.59,0.14z"/>
<path class="st1" d="M36.89,2.3c7.99-0.67,16.17,1.27,22.98,5.51c6.27,3.86,11.38,9.6,14.48,16.29c2.6,5.55,3.79,11.73,3.46,17.85
	c-0.26,5.65-1.83,11.23-4.54,16.19c-2.28,4.2-5.38,7.96-9.05,11.01c-3.41,2.84-7.33,5.08-11.52,6.57c-6.44,2.3-13.51,2.8-20.21,1.45
	c-3.78-0.76-7.42-2.1-10.79-3.97c-6.29-3.47-11.56-8.77-14.98-15.09c-4.24-7.73-5.6-16.96-3.84-25.59
	c1.28-6.39,4.27-12.42,8.56-17.33c3.66-4.2,8.25-7.6,13.35-9.83C28.63,3.67,32.73,2.63,36.89,2.3L36.89,2.3z"/>
<path class="st0" d="M42.35,11c1.14-0.38,2.42-0.05,3.38,0.61c2.07,1.57,3.85,3.52,5.2,5.73c1.92,3.07,2.83,6.69,5.07,9.55
	c0.47,0.61,1,1.16,1.55,1.69c1.01,0.98,1.72,2.3,1.82,3.73c0.17,1.85-0.55,3.68-1.7,5.11c-1.03,1.34-2.55,2.16-3.99,3
	c-3.31,1.82-6.8,3.32-10.3,4.75c-2.36,0.94-4.74,1.85-7.17,2.61c-1.48,0.46-3.03,0.84-4.6,0.77c-0.76-0.06-1.56-0.21-2.17-0.7
	c-0.57-0.43-0.87-1.17-0.77-1.88c0.22-2.39,0.96-4.68,1.25-7.06c0.25-2.05,0.42-4.1,0.6-6.16c-2.1,0.05-4.19,0.27-6.28,0.36
	c-0.86,0.08-1.74-0.35-2.16-1.12c-0.3-0.53-0.32-1.19-0.11-1.76c1.28-3.73,3.53-7.06,6.22-9.93c2.63-2.77,5.64-5.19,8.99-7.05
	C38.83,12.34,40.55,11.55,42.35,11L42.35,11z"/>
<path class="st2" d="M41.31,12.9c0.67-0.26,1.37-0.52,2.1-0.5c0.51,0.01,1,0.22,1.42,0.5c0.73,0.54,1.33,1.23,1.97,1.86
	c0.96,0.9,1.66,2.03,2.36,3.13c1.68,2.74,3.13,5.63,4.62,8.47c0.2,0.37,0.48,0.7,0.77,1.01c0.89,0.96,1.93,1.83,2.68,2.92
	c0.6,0.87,0.76,1.97,0.7,2.99c-0.13,1.55-0.96,2.95-1.98,4.09c-0.98,0.99-2.21,1.7-3.44,2.35c-2.2,1.14-4.5,2.08-6.79,3.04
	c-3.25,1.34-6.44,2.79-9.79,3.86c-1.31,0.4-2.65,0.76-4.01,0.81c-0.63-0.02-1.33-0.09-1.82-0.52c-0.39-0.59-0.26-1.36-0.21-2.03
	c0.3-2.14,0.91-4.24,1.26-6.38c0.32-1.92,0.51-3.86,0.59-5.81c0.49-0.03,0.98-0.01,1.48-0.03c-0.26,2.39-0.55,4.77-0.99,7.12
	c-0.22,1.15-0.49,2.29-0.63,3.45c-0.03,0.51-0.09,1.06,0.18,1.52c0.13,0.27,0.39,0.47,0.7,0.5c0.81,0.1,1.61-0.13,2.38-0.35
	c2.04-0.63,3.96-1.54,5.88-2.47c3.55-1.75,7.1-3.54,10.39-5.75c1.45-0.97,2.81-2.08,4.04-3.31c0.22-0.24,0.5-0.43,0.58-0.76
	c-0.8,0.07-1.54,0.39-2.32,0.52c-1.41,0.18-2.82,0.07-4.23,0.03c-2.43-0.16-4.86-0.38-7.27-0.73c-1.28-0.18-2.54-0.44-3.83-0.54
	c-2.26-0.21-4.53-0.24-6.81-0.2c-1.63,0-3.26,0.1-4.89,0.21c-0.76,0.06-1.52,0.28-2.27,0.06c-0.42-0.11-0.91-0.35-1.02-0.82
	c0-0.26,0.13-0.49,0.22-0.73c0.62-1.67,1.43-3.26,2.42-4.75c1.08-1.63,2.34-3.16,3.64-4.62c2.33-2.65,5.24-4.72,8.31-6.43
	C38.89,13.98,40.08,13.39,41.31,12.9L41.31,12.9z"/>
<path class="st0" d="M43.11,19.52c0.33-0.06,0.76-0.08,1.02,0.17c0.18,0.17,0.06,0.43-0.09,0.57c-0.54,0.54-1.31,0.72-1.95,1.09
	c-0.28,0.17-0.58,0.26-0.89,0.29c-0.02-0.33,0.24-0.58,0.4-0.84C42.02,20.29,42.46,19.72,43.11,19.52L43.11,19.52z"/>
<path class="st3" d="M36.18,35.29c0.95-0.61,2.18-0.59,3.24-0.26c0.08,0.05,0.25,0.03,0.27,0.16c-0.91,0.78-1.85,1.56-2.51,2.57
	c-0.3,0.46-0.61,0.92-0.84,1.42c1.48-1.93,3.71-3.12,6.01-3.78c0.87-0.28,1.84-0.35,2.69,0.02c0.68,0.3,1.24,0.88,1.55,1.55
	c0.08,0.22,0.2,0.48,0.03,0.7c-0.25,0.34-0.65,0.54-1.01,0.76c-0.74,0.4-1.42,0.89-2.16,1.28c-1.79,0.94-3.62,1.83-5.44,2.7
	c-1.16,0.54-2.28,1.2-3.54,1.47c-0.33,0.08-0.73,0.08-0.98-0.18c-0.35-0.36-0.48-0.89-0.54-1.38c-0.09-0.88,0.04-1.77,0.22-2.64
	c0.2-0.9,0.51-1.78,1.04-2.54C34.73,36.4,35.43,35.79,36.18,35.29L36.18,35.29z"/>
<path class="st2" d="M54.98,50.86c0.33-0.31,0.74-0.58,1.22-0.58c0.68,0,1.37-0.02,2.06,0.02c0.17,0.12,0.01,0.29-0.07,0.4
	c-0.74,1.01-1.53,2-2.31,3c-0.59,0.78-1.17,1.61-1.4,2.59c-0.1,0.29,0.03,0.56,0.17,0.81c2.31-1.37,4.44-3.09,6.97-4.06
	c0.54-0.03,1.08,0.12,1.61,0.23c-1.36,1.27-2.88,2.32-4.32,3.47c-0.57,0.46-1.16,0.91-1.65,1.45c1.18,1.02,2.69,1.51,4.12,2.08
	c0.52,0.22,1.07,0.38,1.58,0.64c-0.35,0.39-0.9,0.52-1.38,0.68c-1,0.27-2.01,0.5-3.04,0.57c-0.4,0.04-0.77-0.19-1.15-0.27
	c-1.54-0.38-3.11-0.67-4.66-0.99c-0.38-0.12-0.78,0.08-1.06,0.32c-0.39,0.4-0.64,0.94-1.1,1.27c-0.61,0.35-1.35,0.32-2.03,0.31
	c-0.17-0.22-0.38-0.42-0.44-0.7c-0.04-0.55,0.29-1.04,0.36-1.58c0.02-0.42-0.19-0.81-0.3-1.21c-0.16-0.46-0.14-0.98,0.1-1.41
	c0.09-0.26,0.39-0.27,0.6-0.39c0.69-0.4,1.16-1.09,1.54-1.78c0.56-1.1,1.11-2.21,1.69-3.31c0.27-0.44,0.53-0.93,1.01-1.16
	C53.72,51.04,54.47,51.32,54.98,50.86L54.98,50.86z"/>
<path class="st2" d="M18.65,55.81c0.45-0.46,1.14-0.54,1.76-0.61c0.99-0.05,2.02-0.11,2.98,0.2c0.45,0.15,0.62,0.67,0.63,1.1
	c0.03,0.38-0.15,0.81,0.11,1.14c0.62-0.16,1.02-0.71,1.6-0.95c0.55-0.27,1.17-0.27,1.76-0.4c0.65-0.12,1.3-0.32,1.97-0.33
	c1.04,0.04,1.96,0.6,2.95,0.85c0.25,0.19,0.32,0.54,0.45,0.82c0.28,0.81,0.44,1.67,0.35,2.53c-0.1,0.77-0.29,1.51-0.41,2.28
	c-0.3,0.05-0.59,0.1-0.88,0.11c-0.86,0.02-1.69,0.27-2.56,0.3c-0.57,0.01-1.17,0.02-1.71-0.18c-0.31-0.11-0.62-0.31-0.75-0.63
	c-0.13-0.85-0.11-1.71-0.24-2.56c-0.1-0.3-0.47-0.37-0.75-0.4c-0.66-0.05-1.33,0.08-1.94,0.33c-0.3,0.12-0.42,0.43-0.57,0.69
	c-0.32,0.63-0.84,1.13-1.33,1.63c-0.37,0.36-0.84,0.72-1.38,0.72c-0.72,0-1.45,0.04-2.16,0.04c-0.3,0-0.61-0.03-0.89-0.16
	c0.05-0.97,0.01-2,0.44-2.9c0.31-0.75,0.7-1.57,0.42-2.39C18.4,56.62,18.32,56.13,18.65,55.81L18.65,55.81z"/>
<path class="st2" d="M39.29,55.5c0.53-0.18,1.11-0.13,1.66-0.08c1.28,0.11,2.54,0.37,3.77,0.73c0.53,0.17,1.07,0.33,1.53,0.65
	c0.19,0.14,0.41,0.31,0.39,0.58c-0.02,0.6-0.35,1.14-0.7,1.62c-0.83,1.11-1.94,1.97-3.09,2.74c-0.72,0.51-1.64,0.62-2.5,0.72
	c-0.82,0.09-1.63,0.1-2.45,0.11c-0.53,0.03-1.08,0.09-1.59-0.07c-0.61-0.28-1.08-0.89-1.09-1.58c0.04-1.09,0.71-2.06,0.76-3.16
	c-0.08-0.21-0.19-0.39-0.3-0.59c0.3-0.34,0.73-0.51,1.12-0.72C37.62,56.08,38.43,55.75,39.29,55.5L39.29,55.5z"/>
<path class="st1" d="M38.45,58.21c0.49-0.15,1-0.16,1.5-0.07c0.6,0.12,1.25,0.2,1.75,0.6c-0.5,0.83-1.5,1.12-2.42,1.11
	c-0.37-0.01-0.81-0.14-0.96-0.51C38.14,58.96,38.37,58.57,38.45,58.21L38.45,58.21z"/>
</svg>
