<?xml version="1.0" encoding="utf-8"?>
<!-- Generator: Adobe Illustrator 25.4.1, SVG Export Plug-In . SVG Version: 6.00 Build 0)  -->
<svg version="1.1" xmlns="http://www.w3.org/2000/svg" xmlns:xlink="http://www.w3.org/1999/xlink" x="0px" y="0px"
	 viewBox="0 0 381.49 80" style="enable-background:new 0 0 381.49 80;" xml:space="preserve">
<style type="text/css">
	.st0{fill:#F8AC00;}
</style>
<g id="Layer_2">
</g>
<g id="Layer_1">
	<g>
		<path class="st0" d="M139.59,74.02c-19.97,0-28.81-15.01-28.62-33.77c0.19-19.01,11.38-34.02,30.59-34.02
			c8.39,0,13.99,2.42,16.03,3.18L155.36,18c-2.61-1.21-7.38-2.61-11.83-2.61c-8.39,0-18.19,5.02-18.38,24.23
			c-0.19,17.62,6.8,25.18,17.17,25.18c5.21,0,9.98-1.78,11.83-2.8l2.8,7.82C154.21,71.22,148.36,74.02,139.59,74.02 M179.21,30.21
			c-6.61,0-9.79,5.41-9.79,18.19s2.99,18,9.6,18c6.61,0,9.6-5.21,9.6-18C188.81,35.61,186.01,30.21,179.21,30.21z M179.21,74.02
			c-12.59,0-22.19-7-22.19-25.63c0-18.38,9.6-25.63,22.19-25.63c12.59,0,22.19,7,22.19,25.63C201.4,66.77,191.8,74.02,179.21,74.02
			 M218.95,23.59l0.83,5.6c4.01-5.21,8.2-6.61,13.61-6.61c12.21,0,14.37,9.41,14.37,16.41V73.2h-11.83V43.18
			c0-4.39,0.57-12.4-7-12.4c-8.59,0-9.41,11.83-9.41,16.03v26.58h-11.83V23.59H218.95 M275.55,66.2c9.03,0,9.03-15.01,9.03-18
			c0-5.98-0.83-17.62-8.78-17.62c-8.78,0-9.03,14.63-9.03,17.62C266.96,55.77,268.17,66.2,275.55,66.2z M296.6,7v66.2h-10.62
			l-0.38-8.59c-2.42,4.2-6.42,9.6-13.99,9.6c-11.57,0-16.98-12.02-16.98-25.82c0-18,9.22-25.82,17.81-25.82
			c8.39,0,11.57,6.42,12.4,8.39V7H296.6 M325.15,30.21c-6.61,0-9.79,5.41-9.79,18.19s3.18,18,9.79,18c6.61,0,9.6-5.21,9.6-18
			S331.76,30.21,325.15,30.21z M325.15,74.02c-12.59,0-22.19-7-22.19-25.63c0-18.38,9.6-25.63,22.19-25.63
			c12.59,0,22.19,7,22.19,25.63C347.35,66.77,337.74,74.02,325.15,74.02 M364.13,23.59l0.19,12.4c4.01-12.21,10.17-13.23,12.4-13.23
			c1.97,0,3.82,0.57,4.77,0.83l-2.23,10.43c-1.02-0.19-2.42-0.57-3.82-0.57c-3.37,0-5.79,1.97-7,3.62c-2.42,3.37-3.37,7-3.37,18.38
			v17.81h-11.83v-49.6h10.87"/>
		<path class="st0" d="M38.79,0C16.6,0,0,18,0,40s16.6,40,38.79,40c22,0,38.79-17.81,38.79-40C77.39,18,60.79,0,38.79,0z
			 M38.79,76.38C18.82,76.38,3.62,60.16,3.62,40c0-19.97,15.01-36.38,35.17-36.38s34.98,16.41,34.98,36.57
			C73.77,60.22,58.82,76.38,38.79,76.38z M62.19,64.8v-6.42L36.18,34.79c-1.02-1.02-0.57-1.4,0.19-1.4h19.59l-9.79,8.01l3.62,3.37
			l20.6-16.03H40c-4.01,0-5.6,0-6.61,0.38c-1.02,0.19-2.23,0.83-2.8,2.23c-0.38,1.02-0.38,2.8,0.19,4.01
			c1.02,1.59,2.42,2.99,6.61,7.19c-4.01-2.42-14.63-9.41-14.63-9.41h3.05v-4.58H7C7,28.62,62.19,64.8,62.19,64.8z"/>
	</g>
</g>
</svg>
