<?xml version="1.0" encoding="utf-8"?>
<!-- Generator: Adobe Illustrator 25.4.1, SVG Export Plug-In . SVG Version: 6.00 Build 0)  -->
<svg version="1.1" id="Layer_1" xmlns="http://www.w3.org/2000/svg" xmlns:xlink="http://www.w3.org/1999/xlink" x="0px" y="0px"
	 viewBox="0 0 80 80" style="enable-background:new 0 0 80 80;" xml:space="preserve">
<style type="text/css">
	.st0{fill:#FE8C00;}
	.st1{fill:#FFFFFF;}
</style>
<g id="Clip-9">
</g>
<g id="Clip-2">
</g>
<circle class="st0" cx="40" cy="40" r="40"/>
<g>
	<path class="st1" d="M63.67,32.33c-4.96,1.88-8.21,3.22-11.63,3.99c-0.63,0.14-1.23,0.26-1.8,0.36c-0.94,0.18-1.9,0.31-2.86,0.36
		c-2.4,0.17-4.19-0.13-5.52-0.91h-0.03L41.63,36c-0.99-0.71-1.56-1.85-1.54-3.07v-0.49c0-0.03,0-0.06,0-0.08l0,0
		c0-0.47-0.07-0.93-0.19-1.39c-0.32-1.1-1.01-2.06-1.96-2.7l-0.23-0.14c-2.06-1.22-5.3-1.26-10.18-0.18
		c-4.3,1.04-8.52,2.37-12.63,3.99c-3.17,1.21-6.21,2.47-8.79,3.57v5.69c2.7-1.17,5.99-2.55,9.43-3.85
		c4.11-1.62,8.33-2.95,12.63-3.99c0.63-0.14,1.23-0.26,1.8-0.36c0.94-0.18,1.9-0.31,2.86-0.36c2.4-0.17,4.19,0.13,5.53,0.91l0,0
		l0.2,0.13c0.95,0.67,1.51,1.77,1.51,2.93l0,0c0,0,0,0.03,0,0.04v0.49c0.01,0.63,0.12,1.25,0.33,1.83c0.34,0.98,0.99,1.83,1.85,2.42
		l0.24,0.15c2.06,1.22,5.3,1.26,10.18,0.18c3.42-0.77,6.67-2.09,11.63-3.99c2.14-0.81,4.7-1.83,6.94-2.76l2.68-6.87
		C71,29.41,67.93,30.71,63.67,32.33z"/>
	<path class="st1" d="M63.67,42.65c-4.97,1.88-8.21,3.22-11.63,3.99c-0.63,0.14-1.23,0.26-1.8,0.36c-0.94,0.18-1.9,0.31-2.86,0.37
		c-2.4,0.16-4.19-0.13-5.52-0.91h-0.03c-0.07-0.04-0.14-0.09-0.2-0.13c-0.99-0.71-1.57-1.85-1.55-3.07v-0.47c0-0.03,0-0.06,0-0.08
		l0,0c0-0.47-0.06-0.94-0.19-1.39c-0.32-1.1-1.01-2.06-1.96-2.7c-0.07-0.05-0.15-0.1-0.23-0.14c-2.06-1.21-5.3-1.26-10.18-0.18
		c-4.3,1.04-8.52,2.37-12.63,3.99c-3.17,1.21-6.21,2.47-8.79,3.58v5.69c2.7-1.18,5.99-2.55,9.43-3.86
		c4.11-1.62,8.33-2.95,12.63-3.99c0.63-0.14,1.23-0.26,1.8-0.37c0.94-0.18,1.9-0.3,2.86-0.36c2.4-0.17,4.19,0.13,5.52,0.91h0.03
		L38.56,44c0.95,0.67,1.51,1.77,1.51,2.93l0,0c0,0,0,0.03,0,0.05v0.49c0.01,0.62,0.12,1.24,0.33,1.83c0.34,0.98,0.99,1.83,1.85,2.42
		l0.24,0.15c2.06,1.21,5.3,1.26,10.18,0.18c3.42-0.77,6.67-2.09,11.63-3.99c0.69-0.26,1.42-0.54,2.18-0.84l2.61-6.72
		C67.49,41.17,65.72,41.87,63.67,42.65z"/>
</g>
</svg>
