<?xml version="1.0" encoding="utf-8"?>
<!-- Generator: Adobe Illustrator 25.4.1, SVG Export Plug-In . SVG Version: 6.00 Build 0)  -->
<svg version="1.1" id="Layer_1" xmlns="http://www.w3.org/2000/svg" xmlns:xlink="http://www.w3.org/1999/xlink" x="0px" y="0px"
	 viewBox="0 0 322.36 80" style="enable-background:new 0 0 322.36 80;" xml:space="preserve">
<style type="text/css">
	.st0{fill:#FE8C00;}
</style>
<g id="Clip-9">
</g>
<g id="Clip-2">
</g>
<g>
	<path class="st0" d="M0,28.44l2.86-0.43C3.41,33.31,7.49,38,14.55,38c6.21,0,10.72-3.53,10.78-9.32c0.06-5.6-4.57-7.74-8.46-8.83
		l-2.31-0.67c-5.05-1.46-8.04-3.17-8.04-7.19c0-3.9,2.92-6.94,7.79-6.94c5.48,0,7.79,3.77,8.17,7.12l-2.86,0.43
		c-0.49-2.56-1.89-4.75-5.3-4.75c-2.86,0-4.87,1.52-4.87,4.02c0,2.86,2.19,3.65,5.91,4.69l2.44,0.67
		c5.79,1.58,10.47,4.69,10.47,11.33c0,7.67-6.21,12.25-13.7,12.25C5.79,40.8,0.67,34.65,0,28.44z M5.18,27.71l2.86-0.49
		c0.49,3.41,2.25,5.72,6.52,5.72c3.53,0,5.48-1.64,5.48-4.38c0-2.68-2.37-3.59-5.3-4.32l-3.05-0.78
		C6.76,22.16,1.22,19.37,1.22,12.31c0-8.1,6.33-12.3,13.09-12.3c7.43,0,13.09,5.11,13.28,11.39l-2.79,0.49
		c-0.49-4.75-4.08-9.07-10.47-9.07c-5.85,0-10.1,3.35-10.17,9.32c-0.06,5.42,4.14,7.43,8.95,8.77l3.11,0.86
		c3.22,0.91,6.76,2.43,6.76,6.82c0,4.26-3.22,7.19-8.4,7.19C8.28,35.75,5.54,31.61,5.18,27.71z"/>
	<path class="st0" d="M33.43,24.78V0.61h2.92v24.42c0,8.17,4.81,12.97,12.6,12.97s12.61-4.81,12.61-12.97V0.61h2.92v24.18
		c0,10.53-6.27,16.02-15.53,16.02S33.43,35.32,33.43,24.78z M38.73,24.48V0.61h2.92v23.81c0,5.18,2.68,8.53,7.31,8.53
		s7.31-3.35,7.31-8.53V0.61h2.92v23.87c0,7.18-3.96,11.27-10.23,11.27S38.73,31.67,38.73,24.48z"/>
	<path class="st0" d="M71.49,0.61h2.19l27.4,39.58h-3.41L79.71,14.07v26.13h-2.92V9.5l-2.36-3.35v34.04H71.5L71.49,0.61z
		 M76.61,0.61h3.41l18.02,26.25V0.61h2.92v30.75l2.37,3.35V0.61h2.92v39.58h-2.25L76.61,0.61z"/>
	<path class="st0" d="M149.87,29.29c-2.86,7.19-9.86,11.51-18.02,11.51c-11.63,0-20.28-8.71-20.28-20.4S120.21,0,131.84,0
		c7.25,0,14.31,3.84,17.41,10.96l-2.73,1.1c-2.56-6.09-8.22-9.32-14.68-9.26c-10.29,0.12-17.29,7.25-17.29,17.6s7,17.54,17.29,17.6
		c7.37,0,12.97-3.84,15.28-9.8L149.87,29.29z M119.91,20.4c0,7.37,4.94,12.54,11.93,12.54c4.87,0,8.65-2.5,10.41-6.76l2.68,1.1
		c-2.19,5.24-6.58,8.47-13.09,8.47c-8.71,0-14.92-6.33-14.92-15.35s6.21-15.34,14.92-15.34c5.66,0,10.35,2.79,12.54,8.04l-2.74,1.16
		c-1.46-4.02-5.11-6.39-9.8-6.39C124.84,7.86,119.91,13.03,119.91,20.4z"/>
	<path class="st0" d="M154.31,0.61h2.92v39.58h-2.92V0.61z M162.53,35.14v2.25h17.66v2.79h-20.58V0.61h2.92v31.73h17.66v2.79
		L162.53,35.14z"/>
	<path class="st0" d="M201.39,0.61l-2.23,5.56l-13.66,34.03h-3.17l6.77-16.81l9.18-22.78L201.39,0.61z M205.04,4.99L203.7,8.1
		l12.85,32.09h-3.17l-2.74-6.82h-16.68l-2.74,6.82h-3.17l15.9-39.58h2.19l16.14,39.58h-3.17L205.04,4.99z M209.56,30.57l-0.91-2.25
		h-12.66l-0.91,2.25H209.56z M202.31,12.42l-5.24,13.09h10.47L202.31,12.42z"/>
	<path class="st0" d="M222.34,28.44l2.86-0.43c0.55,5.3,4.63,9.99,11.69,9.99c6.21,0,10.72-3.53,10.78-9.32
		c0.06-5.6-4.57-7.74-8.46-8.83l-2.31-0.67c-5.05-1.46-8.04-3.17-8.04-7.19c0-3.9,2.92-6.94,7.79-6.94c5.48,0,7.79,3.77,8.17,7.12
		l-2.86,0.43c-0.49-2.56-1.89-4.75-5.3-4.75c-2.86,0-4.87,1.52-4.87,4.02c0,2.86,2.19,3.65,5.91,4.69l2.44,0.67
		c5.79,1.58,10.47,4.69,10.47,11.33c0,7.67-6.21,12.25-13.7,12.25C228.12,40.8,223.01,34.65,222.34,28.44z M227.51,27.71l2.86-0.49
		c0.49,3.41,2.25,5.72,6.52,5.72c3.53,0,5.48-1.64,5.48-4.38c0-2.68-2.36-3.59-5.3-4.32l-3.05-0.78
		c-4.94-1.29-10.47-4.08-10.47-11.14c0-8.1,6.33-12.3,13.09-12.3c7.43,0,13.09,5.11,13.28,11.39l-2.79,0.49
		c-0.49-4.75-4.08-9.07-10.47-9.07c-5.85,0-10.1,3.35-10.17,9.32c-0.06,5.42,4.14,7.43,8.95,8.77l3.11,0.86
		c3.22,0.91,6.76,2.43,6.76,6.82c0,4.26-3.22,7.19-8.4,7.19C230.62,35.75,227.88,31.61,227.51,27.71z"/>
	<path class="st0" d="M254,28.44l2.86-0.43c0.55,5.3,4.63,9.99,11.69,9.99c6.21,0,10.72-3.53,10.78-9.32
		c0.06-5.6-4.57-7.74-8.47-8.83l-2.31-0.67c-5.05-1.46-8.04-3.17-8.04-7.19c0-3.9,2.92-6.94,7.79-6.94c5.48,0,7.79,3.77,8.17,7.12
		l-2.86,0.43c-0.49-2.56-1.89-4.75-5.3-4.75c-2.86,0-4.87,1.52-4.87,4.02c0,2.86,2.19,3.65,5.91,4.69l2.43,0.67
		c5.79,1.58,10.47,4.69,10.47,11.33c0,7.67-6.21,12.25-13.7,12.25C259.79,40.8,254.67,34.65,254,28.44z M259.18,27.71l2.86-0.49
		c0.49,3.41,2.25,5.72,6.52,5.72c3.53,0,5.48-1.64,5.48-4.38c0-2.68-2.36-3.59-5.3-4.32l-3.04-0.78
		c-4.94-1.29-10.47-4.08-10.47-11.14c0-8.1,6.33-12.3,13.09-12.3c7.43,0,13.09,5.11,13.28,11.39l-2.79,0.49
		c-0.49-4.75-4.08-9.07-10.47-9.07c-5.85,0-10.1,3.35-10.17,9.32c-0.06,5.42,4.14,7.43,8.95,8.77l3.11,0.86
		c3.22,0.91,6.76,2.43,6.76,6.82c0,4.26-3.22,7.19-8.4,7.19C262.28,35.75,259.54,31.61,259.18,27.71L259.18,27.71z"/>
	<path class="st0" d="M317.11,2.65c-2.55,0.97-4.21,1.65-5.97,2.05c-0.32,0.07-0.63,0.13-0.92,0.19c-0.48,0.09-0.97,0.16-1.47,0.19
		c-1.23,0.09-2.15-0.07-2.83-0.47h-0.01l-0.11-0.07c-0.51-0.36-0.8-0.95-0.79-1.58V2.71c0-0.02,0-0.03,0-0.04l0,0
		c0-0.24-0.03-0.48-0.1-0.71c-0.16-0.57-0.52-1.06-1.01-1.39l-0.12-0.07c-1.06-0.63-2.72-0.64-5.23-0.09
		c-2.21,0.53-4.37,1.22-6.48,2.05c-1.63,0.62-3.19,1.27-4.51,1.83v2.92c1.38-0.6,3.07-1.31,4.84-1.98c2.11-0.83,4.28-1.52,6.48-2.05
		c0.32-0.07,0.63-0.13,0.92-0.19c0.48-0.09,0.97-0.16,1.47-0.19c1.23-0.09,2.15,0.07,2.84,0.47l0,0l0.1,0.06
		c0.49,0.35,0.78,0.91,0.78,1.5l0,0c0,0,0,0.02,0,0.02v0.25c0,0.32,0.06,0.64,0.17,0.94c0.18,0.5,0.51,0.94,0.95,1.24l0.12,0.08
		c1.06,0.63,2.72,0.64,5.23,0.09c1.75-0.39,3.42-1.07,5.97-2.05c1.1-0.41,2.41-0.94,3.56-1.42l1.37-3.52
		C320.87,1.15,319.3,1.82,317.11,2.65z"/>
	<path class="st0" d="M317.11,7.95c-2.55,0.96-4.22,1.65-5.97,2.05c-0.32,0.07-0.63,0.14-0.93,0.19c-0.48,0.09-0.97,0.16-1.47,0.19
		c-1.23,0.08-2.15-0.07-2.83-0.47h-0.01c-0.04-0.02-0.07-0.04-0.1-0.07c-0.51-0.36-0.8-0.95-0.8-1.58V8.02c0-0.02,0-0.03,0-0.04l0,0
		c0-0.24-0.03-0.48-0.1-0.71c-0.16-0.57-0.52-1.06-1.01-1.39c-0.04-0.03-0.08-0.05-0.12-0.07c-1.06-0.62-2.72-0.64-5.23-0.09
		c-2.21,0.53-4.37,1.22-6.48,2.05c-1.63,0.62-3.19,1.27-4.51,1.84v2.92c1.38-0.6,3.07-1.31,4.84-1.98c2.11-0.83,4.28-1.51,6.48-2.05
		c0.32-0.07,0.63-0.14,0.92-0.19c0.48-0.09,0.98-0.16,1.47-0.19c1.23-0.09,2.15,0.07,2.83,0.47h0.01l0.1,0.06
		c0.49,0.35,0.78,0.91,0.78,1.5l0,0c0,0,0,0.02,0,0.02v0.25c0,0.32,0.06,0.64,0.17,0.94c0.18,0.5,0.51,0.94,0.95,1.24l0.12,0.08
		c1.06,0.62,2.72,0.64,5.23,0.09c1.76-0.39,3.42-1.07,5.97-2.05c0.35-0.13,0.73-0.28,1.12-0.43l1.34-3.45
		C319.07,7.19,318.16,7.55,317.11,7.95z"/>
	<path class="st0" d="M38.08,79.5h-3.11v-31.1h3.11V79.5z"/>
	<path class="st0" d="M53.53,48.41c6.65,0,9.65,4.06,9.65,9.12c0,4.65-2.79,8.48-8.08,8.98l9.16,13h-3.65L51.5,66.6h-3.07V79.5
		h-3.11v-31.1H53.53z M53.53,63.67c4.2,0,6.54-2.71,6.54-6.14s-2.03-6.18-6.59-6.18h-5.05v12.32L53.53,63.67z"/>
	<path class="st0" d="M71.92,48.41v28.13h10.83v2.98H68.81V48.41H71.92z"/>
	<path class="st0" d="M89.83,79.5h-3.11v-31.1h3.11V79.5z"/>
	<path class="st0" d="M99.72,48.41l17.61,24.9v-24.9h3.11v31.1h-2.48l-17.56-24.91V79.5h-3.11v-31.1H99.72z"/>
	<path class="st0" d="M144.23,48.41v2.98H130.6v10.52h12.55v2.98H130.6v11.65h13.86v2.98h-16.98V48.41H144.23z"/>
	<path class="st0" d="M151.54,70.79c0.14,3.44,3.02,6.18,6.91,6.18c4.11,0,6.72-3.07,6.72-6.32c0-2.53-1.58-3.93-3.79-4.78
		c-1.17-0.45-4.78-1.62-5.51-1.85c-4.83-1.62-6.32-4.73-6.32-7.72c0-4.96,4.11-8.48,9.03-8.48c4.96,0,8.98,3.57,9.03,8.35h-3.16
		c-0.09-2.44-2.21-5.24-5.73-5.24c-2.84,0-6.05,1.76-6.05,5.24c0,2.98,2.39,4.24,4.15,4.87c1.07,0.41,5.1,1.72,5.55,1.85
		c3.2,1.07,5.91,3.79,5.91,7.81c0,4.47-3.38,9.3-9.7,9.3c-5.87,0-10.1-4.15-10.2-9.21H151.54z"/>
	<path class="st0" d="M18.85,48.41h-3.68L2.92,79.5h3.35l3.36-8.54h14.75l3.36,8.54h3.35L18.85,48.41z M10.77,68.08L17,52.23
		l6.23,15.85H10.77z"/>
</g>
</svg>
