<?xml version="1.0" encoding="utf-8"?>
<!-- Generator: Adobe Illustrator 25.4.1, SVG Export Plug-In . SVG Version: 6.00 Build 0)  -->
<svg version="1.1" id="Layer_1" xmlns="http://www.w3.org/2000/svg" xmlns:xlink="http://www.w3.org/1999/xlink" x="0px" y="0px"
	 viewBox="0 0 108 80" style="enable-background:new 0 0 108 80;" xml:space="preserve">
<style type="text/css">
	.st0{fill:#98002E;}
	.st1{fill:#E31837;}
</style>
<g>
	<path id="path2085" class="st0" d="M96.7,71.48L50.31,49.14V0L96.7,71.48z M100.39,80L50.31,58.86V80H100.39z"/>
	<path id="polyline2087" class="st1" d="M3.92,71.48L50.31,0v49.14L3.92,71.48"/>
	<path id="polyline2089" class="st1" d="M0.23,80h50.08V58.86L0.23,80"/>
	<path id="path2091" class="st0" d="M104.44,65.35c1.82,0,3.32,1.45,3.32,3.27c0,1.82-1.45,3.32-3.27,3.32
		c-1.82,0-3.32-1.45-3.32-3.27C101.17,66.81,102.62,65.35,104.44,65.35z M104.44,71.43c1.56,0,2.81-1.25,2.81-2.81
		s-1.25-2.81-2.81-2.81s-2.81,1.25-2.81,2.81S102.88,71.43,104.44,71.43z M103.71,70.55h-0.47v-3.79h1.45
		c0.88,0,1.19,0.36,1.19,1.04c0.05,0.57-0.42,1.04-0.94,1.09l1.14,1.66h-0.52l-1.14-1.66h-0.68L103.71,70.55z M103.71,68.42h0.62
		c0.52,0,1.09-0.05,1.09-0.68c0-0.47-0.47-0.62-0.83-0.62h-0.83v1.3H103.71z"/>
</g>
</svg>
