<?xml version="1.0" encoding="utf-8"?>
<!-- Generator: Adobe Illustrator 25.4.1, SVG Export Plug-In . SVG Version: 6.00 Build 0)  -->
<svg version="1.1" id="Layer_1" xmlns="http://www.w3.org/2000/svg" xmlns:xlink="http://www.w3.org/1999/xlink" x="0px" y="0px"
	 viewBox="0 0 519 80" style="enable-background:new 0 0 519 80;" xml:space="preserve">
<style type="text/css">
	.st0{fill:#98002E;}
	.st1{fill:#E31837;}
	.st2{fill:#003D79;}
</style>
<g id="g2105">
	<path id="path2085" class="st0" d="M96.47,71.48L50.08,49.14V0L96.47,71.48z M100.16,80L50.08,58.86V80H100.16z"/>
	<path id="polyline2087" class="st1" d="M3.69,71.48L50.08,0v49.14L3.69,71.48"/>
	<path id="polyline2089" class="st1" d="M0,80h50.08V58.86L0,80"/>
	<path id="path2091" class="st0" d="M104.21,65.35c1.82,0,3.32,1.45,3.32,3.27c0,1.82-1.45,3.32-3.27,3.32
		c-1.82,0-3.32-1.45-3.32-3.27C100.94,66.81,102.39,65.35,104.21,65.35z M104.21,71.43c1.56,0,2.81-1.25,2.81-2.81
		s-1.25-2.81-2.81-2.81s-2.81,1.25-2.81,2.81S102.65,71.43,104.21,71.43z M103.48,70.55h-0.47v-3.79h1.45
		c0.88,0,1.19,0.36,1.19,1.04c0.05,0.57-0.42,1.04-0.94,1.09l1.14,1.66h-0.52l-1.14-1.66h-0.68L103.48,70.55z M103.48,68.42h0.62
		c0.52,0,1.09-0.05,1.09-0.68c0-0.47-0.47-0.62-0.83-0.62h-0.83v1.3H103.48z"/>
	<g id="g2103">
		<path id="path2093" class="st2" d="M139.27,71.48h22.49c23.17,0,36.94-12,36.94-31.9S184.94,7.74,161.77,7.74h-22.49V71.48z
			 M153.51,18.81h8.26c15.01,0,22.55,7.43,22.55,20.78s-7.53,20.78-22.55,20.78h-8.26V18.81z"/>
		<path id="polygon2095" class="st2" d="M274.18,32.78h-27.06V18.81h30.6V7.74h-44.88v63.74h45.87V60.42h-31.58V43.84h27.06V32.78z"
			/>
		<path id="polygon2097" class="st2" d="M332.36,7.74h-14.29v63.74h41.77V60.42h-27.48V7.74z"/>
		<path id="polygon2099" class="st2" d="M379.53,18.81h21.4v52.68h14.34V18.81h21.45V7.74h-57.19V18.81z"/>
		<path id="path2101" class="st2" d="M519.48,71.48h-14.91l-6.23-15.95h-25.92l-6.23,15.95h-13.92l26.65-64h14.39L519.48,71.48z
			 M494.29,44.83l-8.88-22.65l-8.94,22.65H494.29z"/>
	</g>
</g>
</svg>
