<?xml version="1.0" encoding="utf-8"?>
<!-- Generator: Adobe Illustrator 25.4.1, SVG Export Plug-In . SVG Version: 6.00 Build 0)  -->
<svg version="1.1" id="Layer_1" xmlns="http://www.w3.org/2000/svg" xmlns:xlink="http://www.w3.org/1999/xlink" x="0px" y="0px"
	 viewBox="0 0 172.4 80" style="enable-background:new 0 0 172.4 80;" xml:space="preserve">
<style type="text/css">
	.st0{fill:url(#SVGID_1_);}
	.st1{fill:#1B246A;}
	.st2{fill:url(#SVGID_00000060749532606918406420000000154607137699085709_);}
	.st3{fill:url(#SVGID_00000176740840762108927690000001236979248170585020_);}
</style>
<linearGradient id="SVGID_1_" gradientUnits="userSpaceOnUse" x1="43.3807" y1="-5.3805" x2="43.3807" y2="84.7011">
	<stop  offset="0.2025" style="stop-color:#162669"/>
	<stop  offset="0.2971" style="stop-color:#2D2771"/>
	<stop  offset="0.494" style="stop-color:#662A87"/>
	<stop  offset="0.5213" style="stop-color:#6F2A8A"/>
	<stop  offset="0.8116" style="stop-color:#AF30A5"/>
</linearGradient>
<path class="st0" d="M58.4,0h-33c3,2,1.8,7.8,1.8,7.8L0,80h18.8l2.3-6.4l0,0l3.7-10.3l0,0l4.5-12.7h0l9.3-26.2l4.9,14.2h0L57.7,80
	h29L58.4,0z"/>
<path class="st1" d="M24.9,67.2c0,0,10.4-18.1,36.6-27.2s38.8-5.8,59.4-11.1c22.8-5.9,42-17.8,51.5-28.9c0,0-19.4,10.5-62.1,13.8
	S37.3,30.9,24.9,67.2z"/>
<path class="st1" d="M22.4,76.1c0,0,14.9-11.3,42.6-15.8s32.1-0.5,48.9-7.3c18.9-7.6,29.6-23.6,33.4-28.2c0,0-15.9,10.8-32,14.8
	c-11.3,2.9-23.1,3.9-34.7,5.4c-7.2,0.9-14.4,1.7-21.3,4c-4.1,1.4-8.1,2.9-12,4.7c-9.9,4.6-18.6,11.5-24.1,21
	C22.9,75.2,22.7,75.6,22.4,76.1z"/>
<linearGradient id="SVGID_00000041258582469533969730000008629783257114522527_" gradientUnits="userSpaceOnUse" x1="24.8853" y1="33.6047" x2="172.3901" y2="33.6047">
	<stop  offset="0.2019" style="stop-color:#EE3270"/>
	<stop  offset="0.3025" style="stop-color:#F0496F"/>
	<stop  offset="0.5121" style="stop-color:#F6826B"/>
	<stop  offset="0.5208" style="stop-color:#F6856B"/>
	<stop  offset="0.8116" style="stop-color:#FDBF46"/>
</linearGradient>
<path style="fill:url(#SVGID_00000041258582469533969730000008629783257114522527_);" d="M24.9,67.2c0,0,10.1-19,36.3-28.1
	s38.9-5.6,59.4-11.1S162.9,11,172.4,0c0,0-19.4,10.5-62.1,13.8S37.3,30.9,24.9,67.2z"/>
<linearGradient id="SVGID_00000074437438452462275070000006920171026819320721_" gradientUnits="userSpaceOnUse" x1="22.431" y1="50.4543" x2="147.316" y2="50.4543">
	<stop  offset="0.2019" style="stop-color:#EE3270"/>
	<stop  offset="0.3025" style="stop-color:#F0496F"/>
	<stop  offset="0.5121" style="stop-color:#F6826B"/>
	<stop  offset="0.5208" style="stop-color:#F6856B"/>
	<stop  offset="0.8116" style="stop-color:#FDBF46"/>
</linearGradient>
<path style="fill:url(#SVGID_00000074437438452462275070000006920171026819320721_);" d="M22.4,76.1c0,0,14.9-12.3,42.6-16.7
	s30.2,0.3,47-6.6s31.5-23.3,35.3-27.9c0,0-15.9,10.8-32,14.8c-11.3,2.9-23.1,3.9-34.7,5.4c-7.2,0.9-14.4,1.7-21.3,4
	c-4.1,1.4-8.1,2.9-12,4.7c-9.9,4.6-18.6,11.5-24.1,21C22.9,75.2,22.7,75.6,22.4,76.1z"/>
</svg>
