<?xml version="1.0" encoding="utf-8"?>
<!-- Generator: Adobe Illustrator 25.4.1, SVG Export Plug-In . SVG Version: 6.00 Build 0)  -->
<svg version="1.1" id="Layer_1" xmlns="http://www.w3.org/2000/svg" xmlns:xlink="http://www.w3.org/1999/xlink" x="0px" y="0px"
	 viewBox="0 0 447.1 80" style="enable-background:new 0 0 447.1 80;" xml:space="preserve">
<style type="text/css">
	.st0{fill:url(#SVGID_1_);}
	.st1{fill:#1B246A;}
	.st2{fill:url(#SVGID_00000052820339141881658400000004925563519655136918_);}
	.st3{fill:url(#SVGID_00000124855511904670191040000010662352153713421226_);}
	.st4{fill:url(#SVGID_00000151539474529412231110000000293354781675747222_);}
	.st5{fill:url(#SVGID_00000112595956367179708550000004340776043007960719_);}
	.st6{fill:url(#SVGID_00000170969373605035043770000006177676268702355897_);}
</style>
<g>
	<linearGradient id="SVGID_1_" gradientUnits="userSpaceOnUse" x1="318.071" y1="-5.3805" x2="318.071" y2="84.7011">
		<stop  offset="0.2025" style="stop-color:#162669"/>
		<stop  offset="0.2971" style="stop-color:#2D2771"/>
		<stop  offset="0.494" style="stop-color:#662A87"/>
		<stop  offset="0.5213" style="stop-color:#6F2A8A"/>
		<stop  offset="0.8116" style="stop-color:#AF30A5"/>
	</linearGradient>
	<path class="st0" d="M333.1,0h-33c3,2,1.8,7.8,1.8,7.8L274.7,80h18.8l2.3-6.4l0,0l3.7-10.3l0,0l4.5-12.7h0l9.3-26.2l4.9,14.2h0
		L332.4,80h29L333.1,0z"/>
	<path class="st1" d="M299.6,67.2c0,0,10.4-18.1,36.6-27.2c26.2-9.2,38.8-5.8,59.4-11.1c22.8-5.9,42-17.8,51.5-28.9
		c0,0-19.4,10.5-62.1,13.8S311.9,30.9,299.6,67.2z"/>
	<path class="st1" d="M297.1,76.1c0,0,14.9-11.3,42.6-15.8c27.7-4.4,32.1-0.5,48.9-7.3c18.9-7.6,29.6-23.6,33.4-28.2
		c0,0-15.9,10.8-32,14.8c-11.3,2.9-23.1,3.9-34.7,5.4c-7.2,0.9-14.4,1.7-21.3,4c-4.1,1.4-8.1,2.9-12,4.7c-9.9,4.6-18.6,11.5-24.1,21
		C297.6,75.2,297.4,75.6,297.1,76.1z"/>
	
		<linearGradient id="SVGID_00000120527756117390805450000006856031249003730358_" gradientUnits="userSpaceOnUse" x1="43.3807" y1="-5.3805" x2="43.3807" y2="84.7011">
		<stop  offset="0.2025" style="stop-color:#162669"/>
		<stop  offset="0.2971" style="stop-color:#2D2771"/>
		<stop  offset="0.494" style="stop-color:#662A87"/>
		<stop  offset="0.5213" style="stop-color:#6F2A8A"/>
		<stop  offset="0.8116" style="stop-color:#AF30A5"/>
	</linearGradient>
	<path style="fill:url(#SVGID_00000120527756117390805450000006856031249003730358_);" d="M24.7,63.3H52L57.7,80h29L58.4,0h-33
		c3,2,1.8,7.8,1.8,7.8L0,80h22.8c-2.9-2.9-1.7-6.4-1.7-6.4L24.7,63.3z M47.5,50.5H29.2l9.3-26.2L47.5,50.5z"/>
	
		<linearGradient id="SVGID_00000109717444125980658740000010116560797277939343_" gradientUnits="userSpaceOnUse" x1="134.1242" y1="-5.3805" x2="134.1242" y2="84.7011">
		<stop  offset="0.2025" style="stop-color:#162669"/>
		<stop  offset="0.2971" style="stop-color:#2D2771"/>
		<stop  offset="0.494" style="stop-color:#662A87"/>
		<stop  offset="0.5213" style="stop-color:#6F2A8A"/>
		<stop  offset="0.8116" style="stop-color:#AF30A5"/>
	</linearGradient>
	<path style="fill:url(#SVGID_00000109717444125980658740000010116560797277939343_);" d="M151.6,0v33.7c0,2.8-2.3,0.4-2.3,0.4
		L127.7,0H98.4c3.1,0,3.7,7.1,3.7,7.1V80h22.4c-3.7-3.3-3.5-8.6-3.5-8.6V38.2L147.4,80h4.2h18.3V0H151.6z"/>
	
		<linearGradient id="SVGID_00000147925894222230128170000010583593439978520509_" gradientUnits="userSpaceOnUse" x1="226.6552" y1="-5.3805" x2="226.6552" y2="84.7011">
		<stop  offset="0.2025" style="stop-color:#162669"/>
		<stop  offset="0.2971" style="stop-color:#2D2771"/>
		<stop  offset="0.494" style="stop-color:#662A87"/>
		<stop  offset="0.5213" style="stop-color:#6F2A8A"/>
		<stop  offset="0.8116" style="stop-color:#AF30A5"/>
	</linearGradient>
	<path style="fill:url(#SVGID_00000147925894222230128170000010583593439978520509_);" d="M256.8,5.5c-5.9-4.4-12.2-5.5-21-5.5
		c-5.2,0-12.2,0-17,0h-3.4h-2.1h-27.2c3.1,0,3.7,7.1,3.7,7.1V80h29h26.2c0,0,22.1-0.4,22.1-32S262.8,9.9,256.8,5.5z M223.5,65.4
		c-1.7,0-3.3,0-4.7,0V14.2V14c2.5-0.4,5.6-0.6,8.1,0.3c5,1.8,11.3,6.4,11.3,23.8S235.3,65.4,223.5,65.4z"/>
	
		<linearGradient id="SVGID_00000108301349472794188700000005669306812060981635_" gradientUnits="userSpaceOnUse" x1="299.5756" y1="33.6047" x2="447.0804" y2="33.6047">
		<stop  offset="0.2019" style="stop-color:#EE3270"/>
		<stop  offset="0.3025" style="stop-color:#F0496F"/>
		<stop  offset="0.5121" style="stop-color:#F6826B"/>
		<stop  offset="0.5208" style="stop-color:#F6856B"/>
		<stop  offset="0.8116" style="stop-color:#FDBF46"/>
	</linearGradient>
	<path style="fill:url(#SVGID_00000108301349472794188700000005669306812060981635_);" d="M299.6,67.2c0,0,10.1-19,36.3-28.1
		s38.9-5.6,59.4-11.1S437.6,11,447.1,0c0,0-19.4,10.5-62.1,13.8S311.9,30.9,299.6,67.2z"/>
	
		<linearGradient id="SVGID_00000075872231582967449310000009309904545066077062_" gradientUnits="userSpaceOnUse" x1="297.1213" y1="50.4543" x2="422.0063" y2="50.4543">
		<stop  offset="0.2019" style="stop-color:#EE3270"/>
		<stop  offset="0.3025" style="stop-color:#F0496F"/>
		<stop  offset="0.5121" style="stop-color:#F6826B"/>
		<stop  offset="0.5208" style="stop-color:#F6856B"/>
		<stop  offset="0.8116" style="stop-color:#FDBF46"/>
	</linearGradient>
	<path style="fill:url(#SVGID_00000075872231582967449310000009309904545066077062_);" d="M297.1,76.1c0,0,14.9-12.3,42.6-16.7
		c27.7-4.4,30.2,0.3,47-6.6s31.5-23.3,35.3-27.9c0,0-15.9,10.8-32,14.8c-11.3,2.9-23.1,3.9-34.7,5.4c-7.2,0.9-14.4,1.7-21.3,4
		c-4.1,1.4-8.1,2.9-12,4.7c-9.9,4.6-18.6,11.5-24.1,21C297.6,75.2,297.4,75.6,297.1,76.1z"/>
</g>
</svg>
