<?xml version="1.0" encoding="utf-8"?>
<!-- Generator: Adobe Illustrator 25.4.1, SVG Export Plug-In . SVG Version: 6.00 Build 0)  -->
<svg version="1.1" id="Layer_1" xmlns="http://www.w3.org/2000/svg" xmlns:xlink="http://www.w3.org/1999/xlink" x="0px" y="0px"
	 viewBox="0 0 184.4 80" style="enable-background:new 0 0 184.4 80;" xml:space="preserve">
<style type="text/css">
	.st0{fill:#0C0C11;}
	.st1{fill:#E95025;}
</style>
<path class="st0" d="M84.9-885.5c-0.7-0.1-1.8,0-2.5,0c0.5-0.4,1.2-0.7,1.6-0.5c0.1,0,0.1,0,0.2,0.1
	C84.4-885.8,84.7-885.6,84.9-885.5z"/>
<g>
	<path class="st1" d="M0.3,48.3c0.4,0,20.8,0,20.8,0s1.9,0,1.8,2.1s-4.4,11,1.8,11.7s8.6-6.2,8.9-8.8c0.2-2.6-1.1-7.5-6-9.7
		c-4.9-2.2-17.8-8.6-18.3-12.9s1.7-14.2,6.8-17.7S28.2,6,41.7,6s22.4,3.5,22.4,11s-0.7,7.3-2.6,7.3c-1.8,0-13.3,0-13.3,0h-4
		c0,0-1.9,0.4-1.6-2.1c0.4-2.4,1.8-7.8-3.4-7.9c-5.2-0.1-7.1,4.6-7.1,7.2s-0.5,6.5,4.5,8.2c5,1.7,15.7,5.1,18.9,11.1
		c3.2,6,2.6,14.6-1.5,19.6S46.5,70.4,26,70.4S4,66,1.5,61.6S0.3,48.3,0.3,48.3z"/>
	<path class="st1" d="M84.9,67.8H67l10.1-60l16.4,0.6c0,0-0.6,19.6,4.1,19.1C102.5,27,132.2,0,132.2,0l6.9,1.6l-20.8,29.7l10.8,36.5
		h-24.8l-5.8-27.2c0,0-0.9-4.3-4.9-4.4s-4.5,6.2-5,9.1C88.1,48.3,84.9,67.8,84.9,67.8z"/>
	<path class="st1" d="M146.1,28.1l-15.2,2.6c0,0-0.6,0,0,1.7c0.6,1.7,9.3,28.6,9.3,28.6l1.3,19l13.6-2.6l3.2-14.2l26.2-28.5l-10.1,1
		l-14.7,17.5c0,0-0.4,0.9-1.4,0.9c-1,0-1.7-2.3-2.3-4s-8.7-20.9-8.7-20.9S146.7,28,146.1,28.1z"/>
</g>
</svg>
