<svg id="Layer_1" data-name="Layer 1" xmlns="http://www.w3.org/2000/svg" viewBox="0 0 135.13 966.08"><defs><style>.cls-1{fill:#0c0c11;}.cls-2{fill:#e95025;}.cls-3{fill:#2b2a29;}</style></defs><path class="cls-1" d="M84.94-885.46c-.71-.07-1.78,0-2.52,0A1.77,1.77,0,0,1,84-886a.33.33,0,0,1,.16.07A5.33,5.33,0,0,0,84.94-885.46Z" transform="translate(0 886.08)"/><path class="cls-2" d="M.22,35.42H15.48a1.34,1.34,0,0,1,1.34,1.52c-.09,1.52-3.21,8,1.34,8.56s6.33-4.55,6.51-6.42a7.49,7.49,0,0,0-4.37-7.14c-3.57-1.6-13-6.33-13.39-9.46s1.25-10.43,5-12.93,8.75-5.18,18.65-5.18S47,7,47,12.4s-.54,5.36-1.88,5.36H32.43S31,18,31.27,16.24s1.34-5.71-2.5-5.8S23.6,13.83,23.6,15.7s-.36,4.73,3.3,6,11.51,3.75,13.83,8.12,1.87,10.71-1.07,14.37-5.62,7.4-20.61,7.4S2.9,48.36,1.12,45.15.22,35.42.22,35.42Z" transform="translate(0 886.08)"/><path class="cls-2" d="M62.23,49.7H49.12l7.4-44,12,.45s-.45,14.36,3,14S96.85,0,96.85,0l5.09,1.16L86.68,22.93,94.62,49.7H76.42L72.14,29.8s-.63-3.12-3.57-3.21-3.3,4.55-3.66,6.69S62.23,49.7,62.23,49.7Z" transform="translate(0 886.08)"/><path class="cls-2" d="M107,20.61,95.87,22.48s-.44,0,0,1.25,6.78,21,6.78,21l1,13.92,10-1.87L116,46.31l19.18-20.88-7.41.71L116.93,39a1.2,1.2,0,0,1-1,.63c-.71,0-1.22-1.7-1.67-2.9s-6.36-15.35-6.36-15.35S107.52,20.53,107,20.61Z" transform="translate(0 886.08)"/><path class="cls-3" d="M59.8,61.3a1.54,1.54,0,0,0-1.55,1.54V73.4a1.55,1.55,0,1,0,3.09,0V62.84A1.54,1.54,0,0,0,59.8,61.3Z" transform="translate(0 886.08)"/><path class="cls-3" d="M77.07,62.84a1.55,1.55,0,0,0-3.09,0v.59a6.32,6.32,0,0,0-4.4-2.31c-2.82,0-5.41,2.91-5.41,6.81s3,6.78,5.65,6.78A5.41,5.41,0,0,0,74,72.57v.83c0,.07,0,.13,0,.19h0c0,2.72-1.17,4.12-3.24,4.12s-2.33-.62-3.7-1.87-2.08,0-2.08,0c-.39.4-.83,4.16,5.92,4.16s6.18-6.6,6.18-6.6Zm-6.51,9.37c-2.14,0-3.15-2.56-3.15-4.31s.74-4.28,3.51-4.28S74,67.07,74,67.07v2.2A3.67,3.67,0,0,1,70.56,72.21Z" transform="translate(0 886.08)"/><circle class="cls-3" cx="59.8" cy="943.83" r="1.55"/><path class="cls-3" d="M50.75,61.12a6.31,6.31,0,0,0-4.93,2.5V57.76a1.55,1.55,0,0,0-1.55-1.55h0a1.55,1.55,0,0,0-1.55,1.55V73.4A1.55,1.55,0,0,0,44.27,75h0a1.55,1.55,0,0,0,1.55-1.55v-7s.92-3,3.54-2.73c1.62.14,2.06,1.91,2.17,3.24V73.4a1.55,1.55,0,1,0,3.09,0v-8a2,2,0,0,0,0-.35C54.42,64,53.72,61.12,50.75,61.12Z" transform="translate(0 886.08)"/><path class="cls-3" d="M92.59,65c-.16-1-.87-3.91-3.83-3.91a6.31,6.31,0,0,0-4.93,2.5V57.76a1.55,1.55,0,0,0-3.1,0V73.4a1.55,1.55,0,0,0,3.1,0v-7s.92-3,3.54-2.73c1.62.14,2.06,1.91,2.17,3.24V73.4a1.55,1.55,0,1,0,3.09,0v-8A2,2,0,0,0,92.59,65Z" transform="translate(0 886.08)"/></svg>