<?xml version="1.0" encoding="utf-8"?>
<!-- Generator: Adobe Illustrator 25.4.1, SVG Export Plug-In . SVG Version: 6.00 Build 0)  -->
<svg version="1.1" xmlns="http://www.w3.org/2000/svg" xmlns:xlink="http://www.w3.org/1999/xlink" x="0px" y="0px"
	 viewBox="0 0 271.32 80" style="enable-background:new 0 0 271.32 80;" xml:space="preserve">
<style type="text/css">
	.st0{fill:#0095D4;}
	.st1{fill:#66ADDF;}
	.st2{fill:#92C0E6;}
</style>
<g id="Layer_2">
</g>
<g id="Layer_1">
	<g>
		<path class="st0" d="M80,40c0,21.89-17.74,40-40,40C18.11,80,0,62.26,0,40C0,18.11,17.74,0,40,0C61.89,0.38,80,18.11,80,40"/>
		<path class="st1" d="M175.47,40c0,21.89-17.74,40-40,40c-21.89,0-40-17.74-40-40c0-21.89,17.74-40,40-40
			C157.74,0.38,175.47,18.11,175.47,40"/>
		<path class="st2" d="M271.32,40c0,21.89-17.74,40-40,40c-21.89,0-40-17.74-40-40c0-21.89,17.74-40,40-40
			C253.58,0.38,271.32,18.11,271.32,40"/>
	</g>
</g>
</svg>
