<?xml version="1.0" encoding="utf-8"?>
<!-- Generator: Adobe Illustrator 25.4.1, SVG Export Plug-In . SVG Version: 6.00 Build 0)  -->
<svg version="1.1" xmlns="http://www.w3.org/2000/svg" xmlns:xlink="http://www.w3.org/1999/xlink" x="0px" y="0px"
	 viewBox="0 0 455.54 80" style="enable-background:new 0 0 455.54 80;" xml:space="preserve">
<style type="text/css">
	.st0{fill:#0095D4;}
	.st1{fill:#66ADDF;}
	.st2{fill:#92C0E6;}
</style>
<g id="Layer_2">
</g>
<g id="Layer_1">
	<g>
		<path class="st0" d="M81.07,15.89c-14.64,0-25.36,10.89-25.36,24.29v0.18c0,13.39,10.71,24.11,25.18,24.11
			c14.64,0,25.36-10.89,25.36-24.29V40C106.25,26.61,95.54,15.89,81.07,15.89z M93.21,40.36c0,6.96-4.46,12.68-12.14,12.68
			c-7.32,0-12.32-6.07-12.32-12.86V40c0-6.79,4.64-12.68,12.14-12.68C88.21,27.14,93.21,33.21,93.21,40.36L93.21,40.36z"/>
		<path class="st0" d="M269.64,39.82L269.64,39.82V6.61c0-3.75-3.04-6.61-6.61-6.61c-3.75,0-6.79,3.04-6.79,6.61v11.61
			c-3.57-1.79-7.68-2.86-11.96-2.86c-14.64,0-25.54,10.89-25.54,24.46V40c0,13.57,10.89,24.29,25.36,24.29
			c4.46,0,8.57-1.07,12.14-2.86l0.89-0.54c1.25,1.96,3.39,3.39,5.89,3.39c3.75,0,6.79-3.04,6.79-6.79v-0.18v-17.5H269.64z
			 M256.25,42.14c-0.89,5.89-5.18,10.71-11.96,10.71c-7.32,0-12.32-6.07-12.32-13.04v-0.18c0-6.96,4.64-12.86,12.14-12.86
			c6.61,0,11.43,5,12.14,11.07L256.25,42.14L256.25,42.14z"/>
		<path class="st0" d="M136.25,15.54c-4.46,0-8.57,1.07-11.96,2.86V6.61c0-3.75-3.04-6.61-6.61-6.61c-3.75,0-6.61,3.04-6.61,6.61
			v33.04v0.18v17.5v0.18c0,3.75,3.04,6.79,6.79,6.79c2.5,0,4.64-1.43,5.89-3.39l0.89,0.54c3.57,1.79,7.68,2.86,12.14,2.86
			c14.64,0,25.36-10.71,25.36-24.29v-0.18C161.79,26.43,150.89,15.54,136.25,15.54z M148.57,39.82c0,6.96-5,13.04-12.32,13.04
			c-6.79,0-11.25-4.64-11.96-10.71v-4.11c0.89-6.07,5.54-11.07,12.14-11.07C144.11,26.96,148.57,32.86,148.57,39.82L148.57,39.82z"
			/>
		<path class="st0" d="M51.07,40.36v-0.18c0-13.57-10.71-24.29-25.36-24.29c-4.46,0-8.57,1.07-12.14,2.86l-1.07,0.36
			c-1.07-1.96-3.21-3.21-5.71-3.21C3.04,15.89,0,18.75,0,22.5v0.18v17.5v0.18v33.04C0,77.14,3.04,80,6.61,80
			c3.75,0,6.61-3.04,6.61-6.61V61.79c3.57,1.79,7.68,2.86,11.96,2.86C40.18,64.82,51.07,53.75,51.07,40.36z M37.86,40.54
			c0,6.96-4.64,12.86-12.14,12.86c-6.61,0-11.43-5-12.14-11.07v-4.11c0.89-5.89,5.18-10.71,11.96-10.71
			C32.86,27.32,37.86,33.39,37.86,40.54L37.86,40.54z"/>
		<path class="st0" d="M365,44.82c0,10.36-8.39,18.93-18.93,18.93c-10.36,0-18.93-8.39-18.93-18.93c0-10.36,8.39-18.93,18.93-18.93
			C356.43,26.07,365,34.46,365,44.82"/>
		<path class="st1" d="M410.18,44.82c0,10.36-8.39,18.93-18.93,18.93c-10.36,0-18.93-8.39-18.93-18.93
			c0-10.36,8.39-18.93,18.93-18.93C401.79,26.07,410.18,34.46,410.18,44.82"/>
		<path class="st2" d="M455.54,44.82c0,10.36-8.39,18.93-18.93,18.93c-10.36,0-18.93-8.39-18.93-18.93
			c0-10.36,8.39-18.93,18.93-18.93C447.14,26.07,455.54,34.46,455.54,44.82"/>
		<path class="st0" d="M200,35.36c-0.36-4.82-3.75-8.75-9.46-8.75c-5.71,0-9.11,3.39-10,8.75H200z M211.25,55.89
			c0,2.68-1.96,4.64-5.89,6.25c-4.29,1.79-8.93,2.14-13.39,2.14c-8.04,0-14.29-2.5-18.75-6.79c-4.46-4.46-6.96-10.71-6.96-17.86
			c0-6.96,2.68-13.04,6.79-17.14s10-6.43,17.5-6.43c7.68,0,13.04,2.5,16.79,6.07c4.46,4.46,5.89,10,5.89,14.46
			c0,4.82-2.5,7.5-6.79,7.5h-25.71c1.25,6.07,5.54,9.46,12.14,9.46c7.14,0,9.82-3.21,13.39-3.21
			C209.11,50.54,211.25,53.04,211.25,55.89"/>
		<path class="st0" d="M317.86,35.18c-0.18-1.96-1.61-8.39-6.25-13.04c-4.11-4.29-9.64-6.96-17.14-6.96c-4.29,0-6.61,0-10.71,1.79
			c-3.75,1.43-5.54,3.39-5.54,6.07c0,2.86,1.96,5.36,4.82,5.36c3.21,0,3.21-2.32,10-2.32c5.54,0,9.29,2.5,11.07,7.32
			c-4.29-1.96-8.93-2.14-8.93-2.14s-16.25-1.43-19.82,12.86c-1.79,9.82,3.93,18.39,15.71,19.82c10.36,0.71,15.54-3.57,15.54-3.57
			c1.07,1.79,3.04,3.04,5.36,3.04c3.39,0,6.25-2.68,6.25-6.25C318.21,57.14,318.39,40,317.86,35.18z M296.07,55.18
			c-5.18,0-9.46-3.39-9.46-7.32c0-4.11,4.29-7.32,9.46-7.32c5.18,0,9.46,3.39,9.46,7.32S301.25,55.18,296.07,55.18z"/>
	</g>
</g>
</svg>
