<?xml version="1.0" encoding="utf-8"?>
<!-- Generator: Adobe Illustrator 25.4.1, SVG Export Plug-In . SVG Version: 6.00 Build 0)  -->
<svg version="1.1" id="Layer_1" xmlns="http://www.w3.org/2000/svg" xmlns:xlink="http://www.w3.org/1999/xlink" x="0px" y="0px"
	 viewBox="0 0 63.2 80" style="enable-background:new 0 0 63.2 80;" xml:space="preserve">
<style type="text/css">
	.st0{fill:#EC1B23;}
	.st1{fill:#FAC8B2;}
	.st2{fill:#F7A98E;}
	.st3{fill:#FBD4C1;}
	.st4{fill:#F38466;}
	.st5{fill:#F05D43;}
	.st6{fill:#EC1D24;}
</style>
<path class="st0" d="M32.29,79.59c-0.78-0.61-1.53-1.25-2.26-1.91c-2.58-2.33-4.83-4.94-6.84-7.76c-0.33,0.17-0.31,0.51-0.34,0.8
	c-0.12,1.41-0.19,2.82-0.16,4.23c0.01,0.36,0.02,0.73,0.18,1.06c1.49,0.95,2.98,1.89,4.46,2.85c0.73,0.48,1.49,0.84,2.35,0.98
	c0.08,0.1,0.26,0,0.32,0.15c0.21,0,0.42,0,0.63,0c0.34,0,0.68,0,1.02,0c0.13,0,0.26,0,0.39,0c0.1-0.14,0.3-0.01,0.39-0.16
	C32.55,79.67,32.36,79.64,32.29,79.59z"/>
<path class="st0" d="M25.06,65.4c1.89,1.07,3.86,1.98,5.85,2.85c4.13,1.8,8.37,3.28,12.68,4.58c3.37,1.02,6.78,1.92,10.2,2.74
	c0.85,0.2,1.69,0.4,2.56,0.61c-0.1,0.19-0.28,0.21-0.43,0.27c-2.91,1.28-5.96,2.09-9.09,2.6c-2.85,0.46-5.71,0.69-8.59,0.74
	c-0.22,0-0.4-0.04-0.57-0.18c-3.31-2.68-6.62-5.35-9.93-8.03c-1.32-1.06-2.63-2.13-3.95-3.2c-0.09-0.07-0.19-0.13-0.29-0.19
	c-0.08-0.09-0.07-0.2-0.04-0.29c0.29-0.81,0.58-1.62,1.14-2.29C24.71,65.48,24.81,65.25,25.06,65.4z"/>
<path class="st1" d="M5.76,49.33c-0.03,0.03-0.06,0.06-0.08,0.09c-0.04,0.05-0.01,0.1-0.01,0.16c0.92,1.14,1.83,2.3,2.78,3.41
	c1.07,1.26,2.15,2.5,3.34,3.66c1.7,1.65,3.58,3.05,5.67,4.16c2.39,1.27,4.88,2.32,7.41,3.26c0.26,0.1,0.5,0.22,0.76,0.3
	c0.25,0.08,0.21,0.18,0.05,0.31c-0.17,0.14-0.34,0.29-0.5,0.43c-0.09,0.08-0.17,0.17-0.1,0.3c-0.16-0.03-0.24,0.09-0.31,0.19
	c-0.6,0.78-1,1.66-1.24,2.61c-0.17,0.56-0.4,1.11-0.31,1.72c-0.3,0.53-0.25,1.13-0.29,1.69c-0.11,1.47-0.15,2.94-0.02,4.41
	c-0.71-0.72-1.34-1.52-1.99-2.29c-1.36-1.62-2.65-3.31-3.88-5.03c-1.13-1.58-2.23-3.17-3.28-4.8c-0.97-1.51-1.95-3.01-2.92-4.52
	c-1.14-1.76-2.26-3.53-3.42-5.26c-1.27-1.89-2.6-3.73-4.07-5.47c-1-1.18-2.05-2.32-3.19-3.37c-0.05-0.05-0.19-0.09-0.1-0.21
	c0.03-0.03,0.12-0.01,0.18-0.02c-0.03,0.21,0.15,0.18,0.25,0.22c0.77,0.32,1.55,0.62,2.32,0.92c0.18,0.07,0.35,0.16,0.48,0.31
	c0.08,0.35,0.3,0.6,0.62,0.76c0.07,0.04,0.17,0.04,0.23,0.11c-0.11,0.05-0.03,0.11-0.01,0.17c0.03,0.16,0.19,0.23,0.28,0.36
	c0.07,0.12,0.16,0.22,0.25,0.33c0.15,0.21,0.34,0.39,0.42,0.64C5.2,49.15,5.56,49.12,5.76,49.33z"/>
<path class="st2" d="M34.89,49.28c-1.98,0.59-3.96,1.18-5.93,1.77c-3.17,0.94-6.36,1.86-9.52,2.83c-1.47,0.45-2.92,0.38-4.38,0
	c-1.72-0.45-3.31-1.22-4.86-2.08c-1.48-0.82-2.96-1.64-4.43-2.47c-0.07-0.04-0.09,0-0.11,0.06c0.01,0.11,0.12,0.12,0.17,0.19
	c1.93,1.62,3.8,3.31,5.78,4.87c1.89,1.49,3.86,2.86,6.01,3.96c2.14,1.09,4.37,1.92,6.67,2.6c0.12,0.09,0.26,0.12,0.4,0.14
	c0,0,0,0,0,0c0,0,0,0,0,0c0.1,0.03,0.2,0.06,0.31,0.09c0.09,0.11,0.21,0.07,0.32,0.07c0.2,0.06,0.41,0.12,0.61,0.18c0,0,0,0,0,0
	c0.17,0.1,0.35,0.16,0.55,0.15c0,0,0,0,0,0l0,0c0.48,0.18,0.38-0.3,0.55-0.48c0,0,0,0,0,0l0,0c0.31-0.45,0.64-0.89,0.94-1.34
	c2.22-3.27,4.43-6.55,6.64-9.82c0.15-0.23,0.34-0.44,0.43-0.73C34.97,49.27,34.93,49.27,34.89,49.28z"/>
<path class="st3" d="M22.71,72.98c0,0.8,0,1.6,0,2.4c-0.01,0-0.03,0-0.04,0c0-0.8,0-1.6,0-2.39C22.68,72.98,22.7,72.98,22.71,72.98z
	"/>
<path class="st3" d="M22.74,71.69c0-0.15,0-0.29,0-0.44C22.83,71.4,22.81,71.55,22.74,71.69z"/>
<path class="st4" d="M34.61,40.65c-0.28,0.12-0.54,0.27-0.78,0.47c0,0,0,0,0,0c-0.44,0.27-0.88,0.53-1.32,0.8
	c-0.12,0.05-0.25,0.1-0.33,0.21c0,0,0,0,0,0c-0.28,0.17-0.55,0.33-0.83,0.5c-1.66,1.03-3.31,2.06-4.97,3.09
	c-2.05,1.28-4.1,2.57-6.14,3.87c-1.47,0.93-3.05,1.49-4.8,1.55c-2.03,0.08-3.97-0.4-5.88-1C9.43,50,9.23,50,9.07,49.9
	c-0.23-0.1-0.52-0.05-0.72-0.24c-0.16-0.08-0.32-0.16-0.49-0.23l0,0c-0.1-0.01-0.2-0.01-0.31-0.02c0,0,0,0,0,0
	c-0.27-0.3-0.67-0.32-1.02-0.46c-0.18-0.08-0.35-0.18-0.56-0.17c0,0,0,0,0,0c0,0,0,0,0,0l-0.03,0.01c-0.14-0.05-0.26-0.14-0.41-0.13
	c-0.01,0-0.02,0.01-0.03,0.01c-0.07-0.19-0.21-0.21-0.39-0.13c0.03,0.06,0.06,0.11,0.08,0.17c0.08,0.03,0.16,0.05,0.23,0.08
	c1.43,0.77,2.84,1.58,4.3,2.3c1.84,0.9,3.75,1.54,5.83,1.53c1.64-0.01,3.23-0.34,4.77-0.9c2.81-1.02,5.6-2.09,8.36-3.23
	c3.03-1.25,6.04-2.55,8.85-4.26c0.94-0.58,1.9-1.16,2.6-2.04c1.9-2.38,3.77-4.78,5.66-7.17c0.24-0.31,0.48-0.63,0.72-0.94
	C42.43,36.06,38.48,38.29,34.61,40.65z"/>
<path class="st5" d="M58.02,17.04c-0.16,0.05-0.25,0.13-0.33,0.23h0c0,0,0,0,0,0c-5.52,4.32-11.03,8.63-16.55,12.95
	c-3.1,2.42-6.19,4.84-9.29,7.27c-1.33,1.04-2.65,2.1-3.98,3.14c0,0,0,0,0,0c-0.33,0.21-0.64,0.45-0.92,0.73l0,0
	c-0.12,0.05-0.26,0.09-0.32,0.23v0c-0.11,0.1-0.26,0.16-0.33,0.3c-0.11,0.04-0.22,0.07-0.3,0.16c-0.87,0.68-1.72,1.38-2.6,2.05
	c-1.51,1.14-2.9,2.41-4.45,3.49c-1.8,1.24-3.77,1.9-5.99,1.72c-3.04-0.24-5.97-0.97-8.85-1.94c-0.18,0.02-0.07,0.12-0.05,0.19
	c0.11,0.15,0.27,0.25,0.41,0.36c0.44,0.35,0.96,0.59,1.42,0.91c0.03,0.02,0.07,0.03,0.1,0.04c0.18,0.03,0.36,0.1,0.53,0.16
	c0.34,0.14,0.7,0.23,1.02,0.43c0.09,0.04,0.18,0.06,0.27,0.07c0.19,0.03,0.33,0.17,0.51,0.22c0.28,0.08,0.57,0.1,0.84,0.21
	c0.18,0.12,0.39,0.02,0.57,0.08c0.15,0.14,0.35,0.06,0.52,0.09c1.24,0.24,2.5,0.34,3.76,0.29c2.01-0.08,3.9-0.52,5.6-1.67
	c3.07-2.09,6.17-4.15,9.25-6.23c0.18-0.04,0.31-0.15,0.41-0.29c0,0,0,0,0,0c0.36-0.24,0.72-0.48,1.08-0.72
	c0.11-0.08,0.21-0.15,0.32-0.23c0,0,0,0,0,0s0,0,0,0l0,0l0,0c0.24-0.11,0.5-0.2,0.63-0.46c0.14-0.01,0.23-0.11,0.34-0.18
	c4.65-3.12,9.29-6.24,13.94-9.37c1.33-0.89,2.71-1.73,3.96-2.72c2.14-1.69,3.89-3.76,5.4-6.03c0.07-0.04,0.12-0.09,0.12-0.18
	c0,0,0,0,0,0c0,0,0,0,0,0c0.06-0.1,0.12-0.2,0.17-0.3c0,0,0,0,0,0c0.11-0.15,0.21-0.31,0.32-0.46v0c0.78-1.37,1.62-2.71,2.27-4.15
	c0,0,0,0,0,0c0,0,0,0,0,0C57.95,17.33,58.03,17.21,58.02,17.04z"/>
<path class="st6" d="M63.07,1.84c-0.12-0.52-0.08-1.09-0.26-1.61c-0.06-0.17-0.1-0.36-0.32-0.12c-0.16,0.17-0.33,0.33-0.5,0.5v0
	c-0.1,0.13-0.3,0.17-0.32,0.37c-0.16,0.05-0.27,0.17-0.32,0.33c0,0,0,0,0,0c-0.08,0.04-0.18,0.06-0.21,0.17
	c-0.4,0.4-0.79,0.8-1.19,1.2c-4.26,4.28-8.53,8.57-12.79,12.85c-4.92,4.94-9.84,9.88-14.75,14.82
	c-5.15,5.17-10.29,10.34-15.44,15.51c-0.76,0.76-1.61,1.34-2.66,1.63c-1.3,0.35-2.58,0.23-3.86-0.06c-1.76-0.39-3.43-1.06-5.13-1.61
	c-1.66-0.53-3.33-0.96-5.1-0.78c-0.12,0.26,0.13,0.28,0.25,0.33c0.92,0.41,1.88,0.73,2.81,1.13c0.36,0.18,0.7,0.39,1.07,0.55
	c3.13,1.3,6.37,1.99,9.78,1.72c1.64-0.13,3.16-0.6,4.4-1.77c0.45-0.43,0.95-0.81,1.42-1.22c1.32-1.13,2.64-2.27,3.96-3.41
	c0.11-0.07,0.25-0.1,0.31-0.24c0,0,0,0,0,0c0,0,0,0,0,0c0.08-0.08,0.16-0.15,0.24-0.23c0.1-0.08,0.24-0.11,0.31-0.24
	c0.11-0.1,0.21-0.21,0.32-0.31c0.11-0.07,0.25-0.1,0.32-0.23v0c0.04-0.04,0.09-0.08,0.13-0.11c0.15-0.04,0.18-0.17,0.26-0.28l0,0
	c0.15-0.04,0.24-0.15,0.35-0.24c1.58-1.34,3.15-2.69,4.73-4.03c4.03-3.44,8.07-6.88,12.1-10.32c4.34-3.7,8.68-7.4,13.02-11.11
	c0.94-0.8,1.95-1.54,2.79-2.44c0.98-1.06,1.83-2.23,2.57-3.48c0.98-1.68,1.69-3.45,1.84-5.42C63.22,3.08,63.21,2.47,63.07,1.84z"/>
</svg>
