<?xml version="1.0" encoding="utf-8"?>
<!-- Generator: Adobe Illustrator 25.4.1, SVG Export Plug-In . SVG Version: 6.00 Build 0)  -->
<svg version="1.1" id="Layer_1" xmlns="http://www.w3.org/2000/svg" xmlns:xlink="http://www.w3.org/1999/xlink" x="0px" y="0px"
	 viewBox="0 0 246.55 80" style="enable-background:new 0 0 246.55 80;" xml:space="preserve">
<style type="text/css">
	.st0{fill:#EC1D24;}
	.st1{fill:#EC1B23;}
	.st2{fill:#FAC8B2;}
	.st3{fill:#F7A98E;}
	.st4{fill:#FBD4C1;}
	.st5{fill:#F38466;}
	.st6{fill:#F05D43;}
</style>
<g>
	<path class="st0" d="M170.25,37.69c-0.81,0-1.62,0.02-2.42,0c-0.83-0.02-1.4,0.33-1.68,1.11c-0.18,0.5-0.36,1.02-0.47,1.54
		c-0.48,2.2-0.95,4.39-1.39,6.6c-0.34,1.68-0.76,3.34-2.29,4.35c-0.46,0.3-1.14,0.37-1.72,0.39c-0.49,0.01-0.54-0.44-0.44-0.85
		c0.48-2.09,0.94-4.19,1.45-6.27c0.42-1.69,0.95-3.36,1.32-5.06c0.11-0.49-0.17-1.06-0.26-1.59c-0.06-0.35-0.2-0.71-0.15-1.04
		c0.09-0.63,0.22-1.29,0.48-1.87c0.23-0.5,0.67-0.91,1.01-1.37c0.22-0.29,0.54-0.56,0.63-0.89c0.43-1.6,0.81-3.22,1.19-4.84
		c0.54-2.3,1.06-4.6,1.61-6.9c0.2-0.84,0.74-1.22,1.62-1.05c1.04,0.21,1.84-0.04,2.44-0.95c0.15-0.23,0.51-0.44,0.8-0.46
		c0.91-0.07,1.83-0.09,2.74-0.04c0.23,0.01,0.55,0.35,0.63,0.6c0.21,0.67,0.64,0.86,1.28,0.85c1.37-0.03,2.75-0.02,4.12-0.05
		c1.04-0.03,1.13,0.16,0.88,1.16c-0.43,1.66-0.73,3.35-1.11,5.03c-0.48,2.12-0.98,4.23-1.46,6.35c-0.45,1.98-0.89,3.97-1.35,5.96
		c-0.59,2.53-1.18,5.06-1.79,7.59c-0.09,0.39-0.32,0.75-0.41,1.13c-0.12,0.54-0.04,1.05,0.56,1.26c0.56,0.19,1.06,0,1.29-0.52
		c0.38-0.85,0.75-1.72,0.98-2.62c0.56-2.12,1.06-4.26,1.54-6.41c0.44-1.94,0.79-3.89,1.23-5.83c0.42-1.85,0.89-3.69,1.35-5.53
		c0.06-0.23,0.17-0.45,0.22-0.69c0.23-1.18,0.23-1.17,1.47-1.17c3.5,0.01,7,0,10.5-0.01c1.17,0,1.38,0.29,1.1,1.4
		c-0.36,1.43-0.64,2.88-0.97,4.31c-0.16,0.71-0.4,1.4-0.55,2.1c-0.53,2.38-1,4.76-1.55,7.13c-0.47,2.01-0.99,4.01-1.52,6
		c-0.2,0.73-0.25,1.34,0.47,1.86c0.21,0.15,0.26,0.65,0.22,0.97c-0.07,0.52-0.32,1.01-0.43,1.52c-0.13,0.61-0.43,0.98-1.09,0.96
		c-0.95-0.03-2.01,0.24-2.74-0.6c-0.34-0.39-0.63-0.98-0.63-1.48c0-0.87,0.21-1.76,0.4-2.62c0.29-1.31,0.64-2.6,0.94-3.91
		c0.47-2.04,0.89-4.08,1.37-6.11c0.49-2.09,1.03-4.16,1.55-6.24c0.16-0.63,0.01-1.1-0.72-1.14c-1.18-0.07-2.37-0.14-3.55-0.11
		c-1.1,0.03-1.45,0.51-1.65,1.6c-0.24,1.29-0.62,2.55-0.92,3.82c-0.41,1.75-0.78,3.51-1.18,5.26c-0.51,2.21-1.02,4.42-1.54,6.63
		c-0.08,0.37-0.18,0.73-0.23,1.1c-0.24,1.53-0.97,2.84-2.41,3.39c-0.92,0.35-2.05,0.21-3.09,0.19c-0.16,0-0.38-0.52-0.46-0.82
		c-0.16-0.63-0.45-0.79-1.03-0.49c-0.02,0.01-0.05,0.02-0.07,0.04c-1.32,1.51-3.08,1.42-4.84,1.34c-0.65-0.03-1.29,0.02-1.94-0.01
		c-0.69-0.03-0.85-0.28-0.63-0.94c0.01-0.03,0.02-0.05,0.03-0.07c0.76-2.09,0.76-2.09,3.02-2.17c1.03-0.04,2.01-0.73,2.28-1.73
		c0.36-1.35,0.63-2.72,0.95-4.07c0.26-1.12,0.57-2.24,0.76-3.37c0.21-1.24-0.14-1.6-1.42-1.63c-0.4-0.01-0.81-0.01-1.21-0.02
		C171.01,37.68,170.63,37.68,170.25,37.69C170.25,37.69,170.25,37.69,170.25,37.69z M171.5,33.99c0-0.01,0-0.01,0-0.02
		c0.89,0,1.78,0.04,2.67-0.01c0.95-0.05,1.28-0.4,1.45-1.31c0.07-0.4,0.18-0.78,0.28-1.18c0.52-2.25,1.06-4.49,1.56-6.74
		c0.17-0.79-0.11-1.24-0.83-1.26c-1.86-0.04-3.72-0.03-5.57,0c-0.59,0.01-1,0.32-1.15,0.94c-0.59,2.47-1.19,4.94-1.79,7.41
		c-0.04,0.18-0.12,0.36-0.19,0.53c-0.42,1.04-0.06,1.6,1.08,1.63C169.83,34.01,170.66,33.99,171.5,33.99z"/>
	<path class="st0" d="M110.57,31.99c3.02,0,6.03,0,9.05,0c0.71,0,0.97,0.26,0.81,0.94c-0.14,0.6-0.31,1.22-0.62,1.74
		c-0.17,0.29-0.67,0.54-1.02,0.54c-1.96,0.01-3.93-0.13-5.89-0.04c-0.61,0.03-1.25,0.55-1.75,0.98c-0.21,0.18-0.26,0.83-0.1,1.09
		c0.18,0.29,0.69,0.53,1.06,0.53c1.91,0.02,3.82-0.05,5.73-0.09c1.16-0.02,1.26,0.12,1,1.26c-0.41,1.8-0.75,3.62-1.21,5.41
		c-0.43,1.69-0.93,3.36-1.48,5.01c-0.37,1.12-1.99,1.78-3.02,1.23c-0.25-0.13-0.43-0.68-0.38-1c0.19-1.16,0.46-2.32,0.76-3.46
		c0.32-1.21,0.72-2.41,1.05-3.62c0.15-0.56,0.19-1.16-0.54-1.4c-0.61-0.21-1.24,0.13-1.49,0.76c-0.15,0.38-0.29,0.75-0.39,1.14
		c-0.57,2.21-1.13,4.42-1.68,6.63c-0.23,0.94-0.57,1.2-1.53,1.15c-0.43-0.02-0.86,0.01-1.28,0.04c-0.7,0.06-1.07-0.28-0.88-0.95
		c0.46-1.62,1.02-3.21,1.47-4.84c0.28-1,0.48-2.04,0.59-3.07c0.03-0.27-0.38-0.82-0.61-0.83c-0.33-0.02-0.83,0.25-1,0.54
		c-0.32,0.57-0.5,1.24-0.67,1.89c-0.61,2.25-1.2,4.5-1.79,6.76c-0.14,0.53-0.42,0.77-0.98,0.74c-0.56-0.03-1.13-0.01-1.69-0.01
		c-0.73-0.01-1.01-0.32-0.83-1.01c0.44-1.66,0.92-3.31,1.38-4.96c0.24-0.88,0.55-1.75,0.68-2.65c0.06-0.4-0.14-1.16-0.37-1.22
		c-0.39-0.11-0.97,0.11-1.34,0.37c-0.3,0.2-0.5,0.64-0.6,1.01c-0.62,2.42-1.21,4.84-1.79,7.27c-0.21,0.9-0.51,1.19-1.43,1.19
		c-0.51,0-1.02,0-1.53,0c-0.71,0-0.94-0.26-0.75-0.95c0.43-1.57,0.9-3.13,1.3-4.71c0.55-2.15,1.06-4.32,1.55-6.49
		c0.2-0.87,0.64-1.27,1.57-1.26c1.43,0.02,2.85,0.05,4.28,0.04c1.01-0.01,1.7-0.48,1.87-1.23c0.19-0.81-0.17-1.35-1.01-1.35
		c-1.45-0.01-2.91,0.02-4.36,0.09c-0.79,0.04-1.04-0.18-0.91-0.97c0.05-0.29,0.12-0.58,0.19-0.87c0.25-1.17,0.6-1.39,1.78-1.37
		c2.93,0.03,5.87,0.01,8.81,0.01C110.57,32.01,110.57,32,110.57,31.99z"/>
	<path class="st0" d="M215.81,34.94c4.5,0,8.99,0,13.49,0c0.56,0,1.13-0.04,1.69-0.1c0.65-0.07,1.03,0.2,0.99,0.83
		c-0.05,0.72-0.16,1.44-0.35,2.14c-0.16,0.58-0.7,0.67-1.25,0.66c-3.18-0.04-6.35-0.08-9.53-0.1c-0.72,0-1.45,0.07-2.17,0.14
		c-0.61,0.06-0.94,0.41-1.07,1.02c-0.45,2.18-0.92,4.36-1.39,6.54c-0.25,1.18,0.12,1.72,1.33,1.73c3.61,0.01,7.22,0,10.82-0.06
		c1.45-0.02,1.77,0.34,1.28,1.69c-0.6,1.66-0.6,1.65-2.39,1.65c-9.69,0-19.39,0-29.08,0c-0.4,0-0.81,0.04-1.21,0.06
		c-0.7,0.04-0.92-0.26-0.73-0.94c0.15-0.54,0.31-1.08,0.41-1.63c0.12-0.69,0.57-0.83,1.17-0.83c3.69,0.02,7.38,0.04,11.07,0.06
		c1.28,0.01,1.94-0.01,2.25-1.47c0.28-1.35,0.67-2.69,1-4.03c0.1-0.39,0.21-0.77,0.3-1.17c0.12-0.55,0.28-1.09,0.32-1.65
		c0.05-0.68-0.29-1.05-1.01-1.05c-3.63,0-7.27-0.01-10.9-0.02c-0.13,0-0.27,0.02-0.4,0.02c-0.85,0.01-1.02-0.22-0.8-1.01
		c0.11-0.39,0.19-0.78,0.24-1.18c0.11-0.93,0.55-1.34,1.47-1.34c4.82,0,9.64,0,14.46,0C215.81,34.92,215.81,34.93,215.81,34.94z"/>
	<path class="st0" d="M152.48,24.57c2.1,0,4.2,0,6.3,0c1.05,0,1.3,0.37,0.99,1.34c-0.32,1.02-0.56,2.07-0.82,3.11
		c-0.47,1.9-0.93,3.8-1.4,5.7c-0.48,1.98-0.98,3.95-1.45,5.94c-0.43,1.8-0.83,3.6-1.25,5.4c-0.26,1.12-0.48,2.25-0.77,3.36
		c-0.27,1.04-1.12,1.64-2.19,1.68c-0.56,0.02-1.13,0.07-1.69,0.08c-0.6,0-0.81-0.34-0.67-0.89c0.5-1.94,0.96-3.89,1.46-5.82
		c0.28-1.08,0.62-2.15,0.9-3.23c0.47-1.76,0.94-3.53,1.37-5.3c0.52-2.11,1-4.23,1.48-6.35c0.17-0.74-0.21-1.18-1-1.2
		c-1.4-0.04-2.79-0.05-4.19-0.07c-0.74-0.01-1.27,0.34-1.47,1.03c-0.4,1.39-0.75,2.79-1.09,4.2c-0.46,1.88-0.87,3.76-1.33,5.64
		c-0.44,1.82-0.93,3.64-1.37,5.46c-0.4,1.67-0.74,3.35-1.17,5.01c-0.34,1.3-0.69,1.49-2.05,1.44c-0.51-0.02-1.02-0.01-1.53,0.02
		c-0.71,0.03-0.91-0.33-0.78-0.96c0.05-0.26,0.11-0.53,0.17-0.79c0.54-2.26,1.06-4.53,1.64-6.78c0.39-1.53,0.89-3.03,1.27-4.56
		c0.47-1.89,0.86-3.81,1.32-5.7c0.56-2.32,1.17-4.62,1.74-6.94c0.16-0.67,0.6-0.8,1.2-0.8C148.23,24.58,150.36,24.57,152.48,24.57
		C152.48,24.57,152.48,24.57,152.48,24.57z"/>
	<path class="st0" d="M135.83,24.56c2.13,0,4.26,0,6.38,0c0.81,0,1.04,0.28,0.86,0.92c-0.54,1.93-1.05,3.87-1.56,5.81
		c-0.51,1.94-0.99,3.88-1.48,5.83c-0.46,1.82-0.91,3.64-1.36,5.47c-0.54,2.21-1.07,4.43-1.62,6.64c-0.33,1.33-1.09,1.88-2.45,1.87
		c-0.43-0.01-0.86,0-1.29-0.02c-0.82-0.02-0.99-0.28-0.73-1.07c0.32-1.02,0.65-2.04,0.96-3.07c0.48-1.65,0.98-3.29,1.4-4.96
		c0.41-1.58,0.75-3.19,1.1-4.78c0.4-1.83,0.76-3.66,1.18-5.49c0.13-0.57,0.41-1.11,0.57-1.68c0.37-1.29-0.12-1.79-1.45-1.68
		c-0.93,0.08-1.88,0.04-2.82-0.01c-1.66-0.09-2.27,0.54-2.55,2.15c-0.29,1.68-0.88,3.31-1.29,4.97c-0.51,2.03-0.96,4.07-1.45,6.1
		c-0.23,0.96-0.52,1.91-0.77,2.87c-0.52,1.94-1.04,3.89-1.54,5.83c-0.13,0.51-0.4,0.8-0.94,0.81c-0.83,0.02-1.67,0.05-2.5,0.06
		c-0.71,0.01-0.88-0.45-0.78-1.03c0.1-0.58,0.31-1.14,0.46-1.71c0.73-2.69,1.45-5.38,2.18-8.06c0.57-2.1,1.17-4.18,1.69-6.29
		c0.47-1.9,0.82-3.83,1.25-5.74c0.22-0.97,0.48-1.92,0.75-2.88c0.19-0.66,0.67-0.91,1.35-0.9
		C131.52,24.57,133.68,24.55,135.83,24.56C135.83,24.56,135.83,24.56,135.83,24.56z"/>
	<path class="st0" d="M96.69,18.48c1.37,0,2.75,0,4.12,0c0.92,0,1.09,0.22,0.82,1.13c-0.08,0.26-0.18,0.51-0.25,0.77
		c-0.28,1.09-0.76,1.79-2.11,1.63c-1.01-0.12-1.58,0.61-1.73,1.62c-0.12,0.79-0.32,1.58-0.53,2.35c-0.45,1.68-0.92,3.36-1.4,5.04
		c-0.33,1.13,0.02,1.64,1.2,1.65c1.23,0.01,1.23,0.01,0.87,1.23c-0.1,0.33-0.13,0.69-0.17,1.03c-0.11,0.88-0.4,1.22-1.24,1.12
		c-1.43-0.18-2.01,0.32-2.42,1.84c-0.71,2.64-1.48,5.27-2.25,7.9c-0.41,1.4,0.12,2.08,1.56,1.98c0.94-0.07,1.15,0.2,0.91,1.13
		c-0.08,0.31-0.15,0.63-0.23,0.94c-0.2,0.73-0.68,1.02-1.44,1.01c-2.88-0.02-5.75-0.01-8.63,0c-0.66,0-0.89-0.21-0.75-0.87
		c0.06-0.31,0.17-0.62,0.27-0.93c0.39-1.21,0.61-1.36,1.85-1.26c1.54,0.12,1.84,0,2.3-1.47c0.73-2.38,1.35-4.8,2.03-7.2
		c0.12-0.41,0.31-0.8,0.45-1.21c0.4-1.21-0.09-1.89-1.35-1.89c-0.13,0-0.27,0-0.4,0.01c-1.38,0.03-1.38,0.03-0.96-1.27
		c0.21-0.64,0.28-1.49,0.73-1.85c0.43-0.34,1.26-0.18,1.92-0.22c0.99-0.06,1.66-0.72,1.89-1.66c0.46-1.9,1-3.78,1.49-5.68
		c0.17-0.65,0.3-1.31,0.41-1.97c0.18-1.12-0.45-1.68-1.58-1.43c-1.23,0.27-1.58-0.12-1.21-1.34c0.66-2.24,0.47-2.16,2.84-2.11
		c1,0.02,1.99,0,2.99,0C96.69,18.49,96.69,18.49,96.69,18.48z"/>
	<path class="st0" d="M109.99,29.71c-2.67,0-5.33,0.01-8,0c-1.08,0-1.2-0.17-0.91-1.18c0.67-2.4,1.37-4.79,2.03-7.19
		c0.15-0.54,0.22-1.11,0.33-1.66c0.18-0.84,0.62-1.2,1.46-1.2c0.46,0,0.92,0,1.37,0.01c0.8,0.02,1.07,0.31,0.86,1.05
		c-0.45,1.57-0.91,3.15-1.46,4.68c-0.49,1.36-0.07,2.09,1.38,2.12c0.3,0,0.59,0,0.89,0c1.67,0.02,2.14-0.4,2.52-2.06
		c0.4-1.74,0.85-3.47,1.32-5.2c0.3-1.1,0.56-1.22,1.67-1.14c0.51,0.04,1.02,0,1.53-0.03c0.79-0.06,1.04,0.25,0.83,1
		c-0.51,1.83-1.01,3.67-1.47,5.51c-0.33,1.35,0.08,1.86,1.46,1.93c1.89,0.1,2.92-0.83,3.24-2.7c0.26-1.53,0.7-3.03,1.07-4.54
		c0.02-0.1,0.09-0.2,0.15-0.28c0.33-0.4,3.03-0.56,3.3-0.15c0.15,0.23,0.18,0.62,0.11,0.9c-0.47,2.03-0.92,4.07-1.51,6.06
		c-0.35,1.16-0.91,2.28-1.5,3.34c-0.19,0.33-0.8,0.58-1.23,0.59c-3.15,0.05-6.29,0.03-9.44,0.03
		C109.99,29.62,109.99,29.66,109.99,29.71z"/>
	<path class="st0" d="M218.89,22.3c-3.26,0-6.52,0-9.77,0c-1.59,0-1.97,0.31-2.12,1.84c-0.07,0.75-0.44,1.13-1.19,1.13
		c-0.97,0.01-1.94,0-2.91,0.01c-0.74,0-0.86-0.48-0.74-1.04c0.23-1.02,0.55-2.01,0.78-3.03c0.53-2.32,0.25-2.32,2.87-2.27
		c3.26,0.06,6.52,0.01,9.77,0.03c0.88,0.01,1.53-0.21,2.03-1.03c0.19-0.32,0.78-0.52,1.21-0.55c0.91-0.07,1.82,0.06,2.73,0.01
		c0.63-0.04,1.05,0.09,1.23,0.74c0.17,0.61,0.61,0.83,1.22,0.83c3.72-0.02,7.43-0.02,11.15-0.05c1.02-0.01,1.19,0.28,0.8,1.19
		c-0.5,1.2-0.97,2.43-1.34,3.68c-0.35,1.17-0.52,1.36-1.72,1.33c-0.64-0.02-1.29,0.03-1.93,0.06c-1.02,0.05-1.33-0.39-0.91-1.31
		c0.45-1,0.02-1.57-1.22-1.57c-3.31-0.01-6.62,0-9.93,0C218.89,22.29,218.89,22.3,218.89,22.3z"/>
	<path class="st0" d="M145.7,18.46c4.93,0,9.85,0,14.78,0c0.94,0,1.13,0.32,0.79,1.2c-0.25,0.65-0.41,1.33-0.64,1.99
		c-0.23,0.66-0.68,0.92-1.39,0.75c-0.31-0.07-0.64-0.07-0.96-0.07c-9.39,0.01-18.79,0.02-28.18,0.03c-0.99,0-1.07-0.14-0.79-1.09
		c0.15-0.51,0.22-1.05,0.32-1.58c0.19-1,0.45-1.22,1.46-1.22c4.87,0,9.74,0,14.62,0C145.7,18.47,145.7,18.46,145.7,18.46z"/>
	<path class="st0" d="M206.05,32.92c-1.59,0-3.18-0.01-4.76,0.01c-0.59,0.01-0.93-0.25-0.82-0.81c0.19-0.94,0.4-1.89,0.79-2.76
		c0.13-0.3,0.79-0.51,1.22-0.51c1.56-0.03,3.12,0.05,4.68,0.08c1.51,0.03,2.79-0.49,3.23-2c0.54-1.87,1.65-2.44,3.47-2.08
		c0.57,0.11,1.18-0.06,1.77-0.04c0.51,0.01,0.75,0.28,0.52,0.8c-0.74,1.7-1.44,3.42-2.25,5.08c-0.72,1.48-2.14,2-3.65,2.11
		c-1.39,0.11-2.8,0.02-4.2,0.02C206.05,32.86,206.05,32.89,206.05,32.92z"/>
	<path class="st0" d="M223.1,24.85c2.24,0.01,2.24,0.01,2.72,2.27c0.3,1.4,1.17,2.05,2.59,1.98c1.48-0.06,2.95-0.09,4.43-0.13
		c0.6-0.02,0.89,0.34,0.79,0.86c-0.15,0.84-0.36,1.68-0.67,2.48c-0.1,0.25-0.59,0.48-0.9,0.48c-2.69,0-5.38-0.05-8.07-0.1
		c-0.48-0.01-0.98-0.03-1.43-0.17c-1.71-0.53-2.07-1.21-1.91-2.99c0.1-1.12,0.05-2.26,0.04-3.39c-0.01-1.18,0.15-1.35,1.35-1.34
		C222.4,24.81,222.75,24.83,223.1,24.85z"/>
	<path class="st0" d="M190.64,23.43c-2.15,0-4.3,0-6.45,0c-1.11,0-1.17-0.1-0.87-1.12c0.14-0.49,0.18-1,0.29-1.5
		c0.14-0.63,0.5-0.98,1.2-0.92c0.67,0.06,1.34,0.1,2.01,0.12c0.9,0.02,1.69-0.14,2.14-1.09c0.12-0.25,0.58-0.42,0.91-0.46
		c0.77-0.09,1.56-0.13,2.33-0.06c0.32,0.03,0.73,0.33,0.88,0.62c0.35,0.66,0.82,0.96,1.54,0.93c1.02-0.03,2.04-0.04,3.06-0.06
		c0.87-0.02,1.17,0.25,1.04,1.09c-0.1,0.68-0.28,1.38-0.57,2c-0.12,0.26-0.63,0.47-0.97,0.48c-2.18,0.04-4.36,0.02-6.53,0.02
		C190.64,23.47,190.64,23.45,190.64,23.43z"/>
	<path class="st0" d="M150.75,32.83c0.22,0,0.43-0.01,0.65,0c0.65,0.05,0.81,0.39,0.65,0.99c-0.55,2.1-1.07,4.2-1.63,6.3
		c-0.22,0.83-0.45,1.65-0.78,2.44c-0.09,0.21-0.58,0.43-0.81,0.36c-1.2-0.33-1.68-1.28-1.37-2.47c0.58-2.26,1.16-4.52,1.71-6.79
		C149.39,32.75,150.08,32.83,150.75,32.83z"/>
	<path class="st0" d="M130.43,41.1c0.28-1.02,0.62-2.2,0.91-3.39c0.34-1.37,0.66-2.75,0.97-4.13c0.12-0.53,0.38-0.8,0.94-0.77
		c0.46,0.03,0.91,0,1.37,0.03c0.66,0.04,0.79,0.35,0.61,0.97c-0.54,1.81-1.03,3.64-1.51,5.47c-0.28,1.06-0.5,2.14-0.8,3.19
		c-0.07,0.22-0.38,0.48-0.61,0.53C131.71,43.11,130.42,41.9,130.43,41.1z"/>
	<path class="st0" d="M170.28,39.94c1.21-0.02,1.49,0.26,1.21,1.31c-0.36,1.34-0.74,2.68-1.15,4.01c-0.36,1.14-0.8,1.26-1.74,0.55
		c-1.22-0.92-1.33-1.52-0.58-2.93c0.17-0.32,0.28-0.7,0.31-1.06C168.46,40.21,168.7,39.96,170.28,39.94z"/>
	<path class="st0" d="M170.94,29.84c0.32-1.03,0.75-2.44,1.22-3.83c0.06-0.18,0.36-0.38,0.55-0.38c0.66-0.02,1.45-0.16,1.96,0.13
		c0.77,0.45,0.01,1.15-0.1,1.72c-0.21,1.1-0.51,2.18-0.79,3.27c-0.2,0.79-0.71,1.07-1.52,0.91
		C171.33,31.48,170.96,31.11,170.94,29.84z"/>
	<path class="st1" d="M31.96,78.77c-0.77-0.61-1.51-1.24-2.24-1.89c-2.55-2.3-4.78-4.89-6.77-7.68c-0.33,0.17-0.31,0.51-0.34,0.8
		c-0.12,1.39-0.19,2.79-0.16,4.19c0.01,0.36,0.02,0.72,0.18,1.05c1.47,0.94,2.95,1.87,4.41,2.82c0.72,0.47,1.47,0.83,2.32,0.97
		c0.08,0.1,0.26,0,0.32,0.15c0.21,0,0.41,0,0.62,0c0.34,0,0.67,0,1.01,0c0.13,0,0.26,0,0.39,0c0.1-0.13,0.3-0.01,0.39-0.16
		C32.21,78.86,32.03,78.83,31.96,78.77z"/>
	<path class="st1" d="M24.8,64.73c1.87,1.06,3.82,1.96,5.79,2.82c4.09,1.78,8.29,3.25,12.55,4.53c3.34,1.01,6.71,1.9,10.1,2.71
		c0.84,0.2,1.67,0.4,2.53,0.6c-0.1,0.19-0.28,0.21-0.42,0.27c-2.88,1.27-5.9,2.06-9,2.57c-2.82,0.46-5.65,0.69-8.5,0.74
		c-0.22,0-0.39-0.04-0.56-0.18c-3.27-2.65-6.55-5.3-9.83-7.95c-1.3-1.05-2.6-2.11-3.9-3.16c-0.09-0.07-0.19-0.13-0.28-0.19
		c-0.08-0.09-0.07-0.19-0.04-0.29c0.29-0.8,0.58-1.6,1.13-2.27C24.46,64.81,24.55,64.58,24.8,64.73z"/>
	<path class="st2" d="M5.7,48.83c-0.03,0.03-0.06,0.06-0.08,0.08c-0.04,0.05-0.01,0.1-0.01,0.15c0.91,1.13,1.81,2.27,2.75,3.38
		c1.06,1.25,2.13,2.48,3.3,3.62c1.68,1.63,3.54,3.02,5.61,4.11c2.36,1.26,4.83,2.3,7.33,3.23c0.25,0.09,0.5,0.21,0.75,0.3
		c0.24,0.08,0.2,0.17,0.04,0.3c-0.17,0.14-0.33,0.28-0.5,0.42c-0.09,0.08-0.16,0.16-0.1,0.29c-0.16-0.03-0.23,0.09-0.31,0.18
		c-0.6,0.77-0.99,1.64-1.23,2.58c-0.17,0.56-0.4,1.1-0.31,1.7c-0.3,0.52-0.25,1.12-0.29,1.68c-0.11,1.45-0.15,2.91-0.02,4.36
		c-0.7-0.72-1.32-1.5-1.97-2.27c-1.35-1.61-2.62-3.27-3.84-4.98c-1.11-1.56-2.21-3.13-3.25-4.75c-0.96-1.49-1.93-2.98-2.89-4.47
		c-1.13-1.74-2.23-3.49-3.38-5.21c-1.25-1.87-2.57-3.69-4.03-5.41c-0.99-1.17-2.03-2.3-3.15-3.34c-0.05-0.05-0.19-0.09-0.1-0.21
		c0.03-0.03,0.12-0.01,0.18-0.02c-0.03,0.2,0.15,0.18,0.25,0.22c0.76,0.31,1.53,0.62,2.3,0.92c0.18,0.07,0.35,0.16,0.47,0.31
		c0.08,0.35,0.3,0.59,0.61,0.75c0.07,0.04,0.17,0.04,0.23,0.11c-0.1,0.05-0.03,0.11-0.01,0.17c0.03,0.16,0.19,0.23,0.28,0.35
		c0.07,0.12,0.16,0.22,0.24,0.33c0.14,0.21,0.33,0.39,0.42,0.63C5.15,48.65,5.51,48.62,5.7,48.83z"/>
	<path class="st3" d="M34.54,48.77c-1.96,0.58-3.92,1.17-5.87,1.75c-3.14,0.93-6.29,1.84-9.42,2.8c-1.46,0.45-2.89,0.38-4.33,0
		c-1.7-0.45-3.28-1.21-4.81-2.05c-1.46-0.81-2.92-1.63-4.39-2.44c-0.07-0.04-0.09,0-0.11,0.06C5.6,48.99,5.72,49,5.77,49.07
		c1.91,1.61,3.76,3.28,5.72,4.82c1.87,1.48,3.82,2.83,5.95,3.92c2.12,1.08,4.33,1.9,6.6,2.57c0.12,0.08,0.26,0.12,0.4,0.14
		c0,0,0,0,0,0c0,0,0,0,0,0c0.1,0.03,0.2,0.06,0.3,0.09c0.09,0.11,0.21,0.07,0.32,0.07c0.2,0.06,0.4,0.12,0.6,0.17c0,0,0,0,0,0
		c0.17,0.1,0.35,0.16,0.55,0.15c0,0,0,0,0,0l0,0c0.48,0.18,0.38-0.3,0.54-0.47c0,0,0,0,0,0l0,0c0.31-0.44,0.63-0.88,0.93-1.32
		c2.19-3.24,4.38-6.48,6.57-9.72c0.15-0.22,0.34-0.43,0.43-0.72C34.61,48.76,34.57,48.76,34.54,48.77z"/>
	<path class="st4" d="M22.48,72.23c0,0.79,0,1.59,0,2.38c-0.01,0-0.03,0-0.04,0c0-0.79,0-1.58,0-2.37
		C22.45,72.23,22.46,72.23,22.48,72.23z"/>
	<path class="st4" d="M22.51,70.95c0-0.15,0-0.29,0-0.44C22.59,70.67,22.58,70.82,22.51,70.95z"/>
	<path class="st5" d="M34.26,40.24c-0.28,0.12-0.54,0.27-0.77,0.46c0,0,0,0,0,0c-0.43,0.26-0.87,0.53-1.3,0.79
		c-0.12,0.05-0.25,0.09-0.32,0.21c0,0,0,0,0,0c-0.27,0.17-0.55,0.33-0.82,0.5c-1.64,1.02-3.28,2.04-4.92,3.06
		c-2.03,1.27-4.06,2.54-6.08,3.83c-1.45,0.92-3.02,1.47-4.75,1.54c-2.01,0.08-3.93-0.39-5.82-0.99c-0.14-0.13-0.34-0.14-0.5-0.24
		c-0.23-0.1-0.51-0.05-0.71-0.23C8.1,49.08,7.94,49,7.78,48.92l0,0c-0.1-0.01-0.2-0.01-0.3-0.02c0,0,0,0,0,0
		c-0.27-0.3-0.67-0.31-1.01-0.45c-0.18-0.08-0.35-0.17-0.55-0.16c0,0,0,0,0,0c0,0,0,0,0,0l-0.03,0.01
		c-0.13-0.04-0.25-0.14-0.41-0.13c-0.01,0-0.02,0.01-0.03,0.01c-0.07-0.19-0.2-0.21-0.38-0.13c0.03,0.06,0.06,0.11,0.08,0.17
		c0.08,0.03,0.15,0.05,0.23,0.08c1.42,0.76,2.81,1.57,4.26,2.28c1.82,0.89,3.72,1.52,5.77,1.51c1.63-0.01,3.2-0.34,4.72-0.89
		c2.78-1.01,5.54-2.07,8.28-3.2c3-1.24,5.98-2.52,8.76-4.22c0.93-0.57,1.88-1.15,2.57-2.01c1.88-2.36,3.73-4.73,5.6-7.1
		c0.24-0.31,0.48-0.62,0.71-0.93C41.99,35.69,38.09,37.89,34.26,40.24z"/>
	<path class="st6" d="M57.43,16.87c-0.15,0.05-0.25,0.13-0.32,0.23h0c0,0,0,0,0,0c-5.46,4.27-10.92,8.55-16.38,12.82
		c-3.06,2.4-6.13,4.79-9.19,7.19c-1.32,1.03-2.63,2.07-3.94,3.11c0,0,0,0,0,0c-0.33,0.21-0.64,0.45-0.91,0.72l0,0
		c-0.12,0.05-0.25,0.09-0.32,0.22v0c-0.11,0.09-0.26,0.16-0.32,0.3c-0.11,0.04-0.22,0.07-0.3,0.16c-0.86,0.68-1.7,1.37-2.58,2.03
		c-1.49,1.12-2.87,2.39-4.41,3.45c-1.78,1.23-3.73,1.88-5.92,1.7c-3.01-0.24-5.91-0.96-8.76-1.92c-0.18,0.02-0.07,0.12-0.05,0.19
		c0.11,0.15,0.26,0.24,0.41,0.36c0.44,0.35,0.95,0.58,1.41,0.91c0.03,0.02,0.07,0.03,0.1,0.04c0.18,0.03,0.35,0.1,0.53,0.15
		c0.34,0.14,0.69,0.23,1.01,0.42c0.08,0.04,0.18,0.05,0.27,0.07c0.19,0.03,0.33,0.17,0.5,0.22c0.27,0.08,0.57,0.1,0.83,0.21
		c0.18,0.12,0.38,0.02,0.57,0.08c0.15,0.14,0.35,0.06,0.52,0.09c1.23,0.24,2.47,0.34,3.73,0.29c1.99-0.08,3.86-0.52,5.54-1.66
		c3.04-2.07,6.1-4.11,9.16-6.16c0.17-0.04,0.31-0.15,0.41-0.29c0,0,0,0,0,0c0.36-0.24,0.71-0.47,1.07-0.71
		c0.11-0.08,0.21-0.15,0.32-0.23c0,0,0,0,0,0s0,0,0,0l0,0l0,0c0.24-0.11,0.49-0.2,0.62-0.45c0.14-0.01,0.23-0.11,0.34-0.18
		c4.6-3.09,9.2-6.18,13.8-9.27c1.31-0.88,2.68-1.71,3.92-2.69c2.12-1.67,3.85-3.72,5.34-5.97c0.07-0.04,0.12-0.09,0.12-0.18
		c0,0,0,0,0,0c0,0,0,0,0,0c0.06-0.1,0.11-0.2,0.17-0.3c0,0,0,0,0,0c0.1-0.15,0.21-0.3,0.31-0.46v0c0.78-1.35,1.6-2.68,2.25-4.11
		c0,0,0,0,0,0c0,0,0,0,0,0C57.36,17.15,57.43,17.04,57.43,16.87z"/>
	<path class="st0" d="M62.42,1.82c-0.12-0.52-0.08-1.07-0.25-1.59c-0.06-0.17-0.1-0.36-0.31-0.11c-0.15,0.17-0.33,0.33-0.49,0.49v0
		c-0.1,0.13-0.29,0.17-0.32,0.36c-0.16,0.05-0.26,0.17-0.32,0.33c0,0,0,0,0,0c-0.08,0.04-0.18,0.06-0.21,0.17
		c-0.39,0.39-0.78,0.79-1.17,1.18c-4.22,4.24-8.44,8.48-12.66,12.72c-4.87,4.89-9.74,9.78-14.6,14.67
		c-5.09,5.12-10.19,10.24-15.28,15.35c-0.75,0.75-1.6,1.33-2.64,1.61c-1.28,0.35-2.56,0.23-3.82-0.06
		c-1.74-0.39-3.39-1.05-5.08-1.59c-1.64-0.53-3.3-0.95-5.04-0.77c-0.12,0.26,0.13,0.28,0.25,0.33c0.91,0.41,1.86,0.72,2.78,1.11
		c0.35,0.18,0.7,0.39,1.06,0.54c3.1,1.29,6.31,1.97,9.68,1.71c1.62-0.13,3.13-0.6,4.36-1.75c0.45-0.42,0.94-0.8,1.41-1.21
		c1.31-1.12,2.62-2.25,3.92-3.37c0.11-0.07,0.25-0.1,0.3-0.24c0,0,0,0,0,0c0,0,0,0,0,0c0.08-0.08,0.16-0.15,0.24-0.23
		c0.1-0.08,0.24-0.1,0.3-0.23c0.1-0.1,0.21-0.21,0.31-0.31c0.11-0.07,0.25-0.09,0.31-0.22v0c0.04-0.04,0.09-0.08,0.13-0.11
		c0.14-0.04,0.18-0.17,0.26-0.27l0,0c0.15-0.04,0.24-0.15,0.34-0.24c1.56-1.33,3.12-2.66,4.68-3.99c3.99-3.4,7.98-6.81,11.97-10.21
		c4.3-3.66,8.59-7.32,12.88-10.99c0.93-0.8,1.93-1.52,2.76-2.42c0.97-1.05,1.82-2.21,2.54-3.45c0.97-1.66,1.68-3.42,1.82-5.36
		C62.57,3.05,62.56,2.44,62.42,1.82z"/>
	<path class="st0" d="M99.21,79.68h-3.7l3.76-18.99h7.97c1.37,0,2.44,0.15,3.2,0.45c0.76,0.3,1.38,0.84,1.85,1.64
		c0.47,0.79,0.7,1.76,0.7,2.89c0,1.61-0.46,2.95-1.37,4c-0.91,1.05-2.3,1.7-4.15,1.95c0.47,0.45,0.92,1.04,1.33,1.77
		c0.82,1.49,1.74,3.58,2.75,6.3h-3.96c-0.32-1.07-0.94-2.74-1.87-5.01c-0.51-1.23-1.04-2.05-1.62-2.47
		c-0.35-0.25-0.96-0.38-1.84-0.38h-1.51L99.21,79.68z M101.33,68.96h1.96c1.98,0,3.3-0.13,3.95-0.38c0.65-0.25,1.16-0.64,1.52-1.18
		c0.37-0.54,0.55-1.1,0.55-1.68c0-0.69-0.27-1.21-0.8-1.55c-0.33-0.21-1.03-0.31-2.12-0.31h-4.06L101.33,68.96z"/>
	<path class="st0" d="M116.21,65.92h3.51l-1.6,8.15c-0.2,0.98-0.29,1.58-0.29,1.83c0,0.4,0.14,0.74,0.42,1.02
		c0.28,0.28,0.63,0.43,1.06,0.43c0.31,0,0.62-0.06,0.92-0.19c0.3-0.13,0.61-0.32,0.93-0.57c0.32-0.25,0.6-0.55,0.86-0.87
		c0.25-0.33,0.49-0.76,0.71-1.3c0.15-0.4,0.32-1.04,0.5-1.94l1.3-6.55h3.51l-2.72,13.76h-3.28l0.37-1.87
		c-1.44,1.46-3,2.19-4.69,2.19c-1.07,0-1.91-0.32-2.52-0.97c-0.61-0.65-0.92-1.52-0.92-2.6c0-0.47,0.14-1.42,0.42-2.84L116.21,65.92
		z"/>
	<path class="st0" d="M131.54,65.92h3.51l-2.72,13.76h-3.51L131.54,65.92z M132.57,60.69h3.51l-0.66,3.37h-3.51L132.57,60.69z"/>
	<path class="st0" d="M135.76,79.68l3.76-18.99h3.5l-3.74,18.99H135.76z"/>
	<path class="st0" d="M145.47,65.92h3.51l-2.72,13.76h-3.51L145.47,65.92z M146.49,60.69h3.51l-0.66,3.37h-3.51L146.49,60.69z"/>
	<path class="st0" d="M176.56,65.92h3.51l-2.72,13.76h-3.51L176.56,65.92z M177.59,60.69h3.51l-0.66,3.37h-3.51L177.59,60.69z"/>
	<path class="st0" d="M183.32,65.92h3.28l-0.53,2.67c1.22-1.99,2.55-2.99,3.98-2.99c0.51,0,1.05,0.13,1.63,0.4l-1.35,3.04
		c-0.32-0.12-0.66-0.18-1.02-0.18c-0.6,0-1.22,0.24-1.84,0.73c-0.62,0.48-1.11,1.13-1.46,1.94c-0.35,0.81-0.7,2.09-1.04,3.84
		l-0.86,4.31h-3.51L183.32,65.92z"/>
	<path class="st0" d="M190.53,79.68l3.76-18.99h3.5l-3.74,18.99H190.53z"/>
	<path class="st0" d="M200.23,65.92h3.51l-2.72,13.76h-3.51L200.23,65.92z M201.26,60.69h3.51l-0.66,3.37h-3.51L201.26,60.69z"/>
	<path class="st0" d="M207.25,65.92h3.33l-0.34,1.79c0.83-0.76,1.61-1.3,2.33-1.63c0.72-0.32,1.48-0.49,2.28-0.49
		c1.07,0,1.91,0.32,2.53,0.97c0.62,0.65,0.92,1.51,0.92,2.58c0,0.48-0.13,1.4-0.4,2.75l-1.53,7.78h-3.51l1.54-7.81
		c0.23-1.17,0.34-1.86,0.34-2.09c0-0.47-0.13-0.85-0.4-1.12c-0.27-0.27-0.63-0.41-1.11-0.41c-0.51,0-1.08,0.23-1.71,0.69
		c-0.63,0.46-1.12,1.06-1.48,1.81c-0.26,0.54-0.55,1.63-0.88,3.28l-1.11,5.65h-3.51L207.25,65.92z"/>
	<path class="st0" d="M232.44,73.95h-8.81c-0.01,0.15-0.01,0.26-0.01,0.34c0,0.92,0.25,1.65,0.74,2.21c0.49,0.56,1.1,0.84,1.8,0.84
		c1.17,0,2.08-0.64,2.73-1.92l3.14,0.56c-0.61,1.34-1.43,2.34-2.45,3.01c-1.02,0.67-2.17,1-3.44,1c-1.75,0-3.17-0.58-4.26-1.76
		c-1.09-1.17-1.64-2.72-1.64-4.64c0-1.88,0.49-3.56,1.48-5.03c1.35-1.99,3.27-2.98,5.76-2.98c1.59,0,2.86,0.52,3.79,1.56
		c0.94,1.04,1.41,2.5,1.41,4.37C232.68,72.43,232.6,73.23,232.44,73.95z M229.48,71.68c0.01-0.16,0.01-0.29,0.01-0.38
		c0-1.02-0.22-1.78-0.65-2.29c-0.43-0.51-1.01-0.76-1.74-0.76c-0.73,0-1.38,0.29-1.95,0.87c-0.58,0.58-0.96,1.43-1.17,2.56H229.48z"
		/>
	<path class="st0" d="M233.27,75.83l3.4-0.57c0.3,0.76,0.68,1.3,1.13,1.61c0.45,0.32,1.06,0.47,1.84,0.47c0.8,0,1.44-0.19,1.92-0.57
		c0.33-0.26,0.5-0.57,0.5-0.95c0-0.25-0.09-0.47-0.26-0.67c-0.18-0.19-0.66-0.42-1.46-0.7c-2.12-0.74-3.43-1.33-3.94-1.76
		c-0.79-0.67-1.19-1.55-1.19-2.64s0.38-2.02,1.15-2.81c1.07-1.1,2.66-1.65,4.76-1.65c1.67,0,2.94,0.32,3.79,0.97
		c0.86,0.65,1.4,1.52,1.63,2.63l-3.24,0.6c-0.17-0.5-0.45-0.88-0.83-1.13c-0.52-0.34-1.15-0.51-1.88-0.51s-1.26,0.13-1.58,0.39
		c-0.32,0.26-0.48,0.56-0.48,0.89c0,0.35,0.16,0.63,0.49,0.85c0.2,0.14,0.86,0.38,1.97,0.73c1.71,0.53,2.86,1.04,3.44,1.55
		c0.82,0.72,1.22,1.58,1.22,2.59c0,1.3-0.52,2.44-1.55,3.39c-1.04,0.96-2.5,1.44-4.38,1.44c-1.88,0-3.33-0.36-4.35-1.09
		C234.33,78.18,233.64,77.15,233.27,75.83z"/>
	<path class="st0" d="M174.73,65.31c0,0-0.25-1.13-0.89,0c-0.31,0.55-1.57,2.34-3.75,4.42l-1.39-9.04h-4.1l-10.14,18.99h3.79
		c0,0,4.68-2.29,9.07-5.55l0.19,1.35l0.6,4.2h3.5l-1.24-8.06C172.53,69.64,174.24,67.47,174.73,65.31z M160.04,76.23l5.99-11.56
		l1.04,7.61C165.12,73.74,162.77,75.15,160.04,76.23L160.04,76.23z"/>
</g>
</svg>
