<?xml version="1.0" encoding="utf-8"?>
<!-- Generator: Adobe Illustrator 25.4.1, SVG Export Plug-In . SVG Version: 6.00 Build 0)  -->
<svg version="1.1" id="Layer_1" xmlns="http://www.w3.org/2000/svg" xmlns:xlink="http://www.w3.org/1999/xlink" x="0px" y="0px"
	 viewBox="0 0 81.56 80.27" style="enable-background:new 0 0 81.56 80.27;" xml:space="preserve">
<style type="text/css">
	.st0{fill:#24211C;}
	.st1{fill:#E93424;}
</style>
<g id="_x23_fefefeff">
</g>
<path class="st0" d="M41.06,80C27.2,80,14.6,73.41,6.96,62.3c-3.24-4.7-5.35-9.87-6.36-15.49c-0.55-3.06-0.75-6.15-0.51-9.25
	C1.04,25.02,6.63,15.01,16.8,7.6c4.96-3.62,10.54-5.86,16.58-6.94c3.2-0.57,6.43-0.77,9.67-0.59c14.67,0.81,27.52,9.25,34.07,21.81
	c2.02,3.87,3.35,7.98,3.99,12.3c0.43,2.91,0.56,5.85,0.32,8.79c-0.69,8.27-3.68,15.63-8.96,22.03C66.8,71.86,59.62,76.42,51,78.69
	C47.65,79.58,44.24,79.98,41.06,80z M58.46,6.55c0.02,0.02,0.04,0.05,0.06,0.06c0.01,0,0.02-0.01,0.04-0.01
	C58.52,6.59,58.49,6.57,58.46,6.55c-0.4-0.29-0.87-0.45-1.31-0.66c-4.14-1.96-8.5-3.09-13.05-3.51c-0.68-0.06-1.36-0.04-2.03,0.13
	c-0.7,0.17-1.4,0.31-2.1,0.47c-3.88,0.9-7.64,2.15-11.23,3.88c-4.6,2.22-8.71,5.11-12.15,8.91c-2.14,2.36-3.92,4.96-5.35,7.81
	c-2.37,4.72-3.67,9.73-4.01,14.98c-0.21,3.2-0.04,6.39,0.7,9.53c1.52,6.45,4.9,11.72,10.14,15.78c3.1,2.41,6.57,4.11,10.33,5.23
	c2.61,0.77,5.28,1.22,8,1.34c2.68,0.11,5.35-0.05,8-0.49c2.91-0.49,5.72-1.32,8.39-2.6c4.53-2.18,8.19-5.38,11.04-9.52
	c2.2-3.18,3.75-6.67,4.79-10.38c0.58-2.06,0.97-4.15,1.15-6.28c0.12-1.36,0.15-2.72,0.06-4.08c-0.13-1.89-0.42-3.75-0.99-5.56
	c-0.93-3-2.5-5.62-4.74-7.81c-2.4-2.34-5.24-3.95-8.44-4.92c-1.48-0.45-2.99-0.74-4.54-0.68c-0.47,0.02-0.94,0.05-1.41,0.08
	c-1.03,0.07-2.05,0.25-3.02,0.62c-1.62,0.61-2.81,1.74-3.76,3.15c-0.17,0.25-0.14,0.33,0.15,0.4c0.32,0.07,0.65,0.14,0.98,0.14
	c1.65-0.01,3.23-0.35,4.74-1c0.12-0.05,0.23-0.17,0.4-0.09c0.13,1.08-0.17,2.07-0.7,3c-0.33,0.58-0.69,1.14-1.01,1.72
	c-0.28,0.52-0.27,0.53,0.24,0.77c1.23,0.59,2.42,1.26,3.59,1.97c2.65,1.62,5.16,3.43,7.57,5.37c2,1.62,3.93,3.31,5.68,5.21
	c0.85,0.93,1.66,1.9,2.27,3.01c0.31,0.56,0.53,1.14,0.43,1.8c-0.22,1.38-0.5,2.75-0.93,4.08C63.84,56,59.02,61.7,51.86,65.39
	c-2.87,1.48-5.92,2.41-9.1,2.95c-2.12,0.36-4.26,0.55-6.42,0.55c-0.44,0-0.43-0.01-0.46-0.43c-0.11-1.61-0.1-3.21-0.11-4.82
	c-0.02-2.73,0.11-5.45,0.13-8.18c0-0.37-0.05-0.72-0.21-1.06c-0.44-0.95-0.92-1.89-1.44-2.8c-0.78-1.37-1.6-2.71-2.66-3.89
	c-0.41-0.46-0.86-0.87-1.42-1.14c-0.46-0.22-0.9-0.21-1.33,0.1c-0.49,0.36-0.98,0.73-1.44,1.14c-0.68,0.61-1.35,1.22-2.03,1.82
	c-0.38,0.34-0.81,0.61-1.29,0.8c-0.23,0.1-0.58,0.02-0.68-0.12c-0.1-0.15-0.02-0.41,0.23-0.58c0.5-0.33,0.92-0.76,1.36-1.15
	c0.6-0.53,1.25-1.03,1.63-1.76c0.34-0.64,0.76-1.22,1.24-1.75c0.3-0.33,0.53-0.69,0.71-1.09c0.13-0.29,0.26-0.57,0.38-0.86
	c0.43-1.03,0.88-2.07,1.08-3.17c0.12-0.64,0.39-1.14,0.81-1.6c0.22-0.25,0.46-0.48,0.67-0.74c0.35-0.43,0.31-0.71-0.1-1.07
	c-0.07-0.06-0.13-0.12-0.19-0.18c-0.58-0.57-0.76-0.56-1.31,0.04c-0.04,0.04-0.07,0.08-0.1,0.12c-1.18,1.36-2.34,2.74-3.46,4.15
	c-1.05,1.33-2.1,2.66-2.98,4.12c-0.21,0.35-0.36,0.71-0.43,1.12c-0.11,0.62-0.31,1.22-0.61,1.78c-0.14,0.25-0.3,0.48-0.52,0.65
	c-0.46,0.37-0.94,0.35-1.37-0.04c-0.21-0.19-0.39-0.4-0.55-0.63c-0.25-0.34-0.49-0.68-0.75-1.01c-0.23-0.29-0.45-0.33-0.79-0.19
	c-0.45,0.19-0.64,0.56-0.58,1.04c0.07,0.57,0.15,1.14,0.13,1.72c-0.01,0.25-0.05,0.49-0.32,0.61c-0.7,0.3-1.11,0.89-1.46,1.52
	c-0.26,0.48-0.6,0.86-1.16,0.99c-0.49,0.12-1-0.13-1.2-0.6c-0.45-1.07-0.76-2.18-0.88-3.33c-0.06-0.59,0.02-1.14,0.34-1.66
	c0.49-0.82,0.94-1.68,1.42-2.51c1.54-2.69,3.08-5.37,4.62-8.05c0.45-0.79,0.95-1.55,1.29-2.4c0.12-0.3,0.19-0.58,0.12-0.92
	c-0.08-0.45-0.1-0.9-0.15-1.35c-0.15-1.35-0.31-2.71-0.46-4.06c-0.14-1.27-0.22-2.54-0.16-3.82c0.01-0.27,0.07-0.52,0.16-0.77
	c0.97-2.8,2.64-5.07,5.11-6.73c0.24-0.16,0.41-0.35,0.54-0.62c0.41-0.91,1.02-1.66,1.79-2.3c0.55-0.46,1.14-0.88,1.74-1.27
	c0.91-0.59,1.71-1.33,2.64-1.9c1.8-1.13,3.71-2.02,5.67-2.83c3.17-1.31,6.46-2.03,9.91-1.95c1.43,0.04,2.87-0.01,4.3,0.09
	c1.82,0.12,3.61,0.36,5.38,0.82C57.59,6.31,57.99,6.53,58.46,6.55z M36.9,2.5c-0.54-0.09-0.99,0.03-1.44,0.1
	c-2.67,0.37-5.29,0.98-7.83,1.89c-4.84,1.72-9.18,4.29-12.99,7.74c-3.98,3.61-7.08,7.87-9.23,12.8c-2.37,5.45-3.4,11.13-3.06,17.07
	c0.14,2.49,0.52,4.93,1.16,7.33c1.54,5.81,4.36,10.92,8.38,15.37c3.61,3.98,7.87,7.07,12.78,9.27c4.77,2.14,9.77,3.23,14.99,3.41
	c1.56,0.05,3.11-0.03,4.66-0.16c2.04-0.18,4.05-0.52,6.04-1.03c4.56-1.16,8.76-3.1,12.61-5.81c2.9-2.03,5.46-4.43,7.69-7.17
	c2.71-3.35,4.8-7.05,6.23-11.11c1.18-3.35,1.86-6.8,2.03-10.35c0.12-2.5-0.01-4.99-0.38-7.48c-0.46-3.08-1.33-6.03-2.73-8.82
	c-1.88-3.76-4.36-7.05-7.65-9.68C62.94,11.69,57,9.81,50.32,10.31c-1.96,0.15-3.87,0.54-5.75,1.12c-2.86,0.89-5.51,2.23-7.98,3.91
	c-0.25,0.17-0.5,0.33-0.73,0.51c-0.18,0.14-0.26,0.34-0.18,0.56c0.08,0.2,0.26,0.27,0.46,0.3c0.34,0.05,0.62-0.09,0.88-0.28
	c0.75-0.54,1.54-1.03,2.35-1.48c3.83-2.15,7.91-3.3,12.35-3.09c1.97,0.09,3.89,0.42,5.76,1.03c5.06,1.64,9.27,4.54,12.7,8.58
	c0.89,1.04,1.67,2.16,2.22,3.42c0.85,1.98,1.57,4,2.16,6.07c0.86,3,1.38,6.06,1.51,9.18c0.09,2.06-0.05,4.12-0.37,6.16
	c-0.43,2.71-1.22,5.31-2.39,7.79c-1.99,4.21-4.85,7.75-8.44,10.71c-4.27,3.52-9.11,5.97-14.43,7.47c-2.41,0.68-4.87,1.15-7.37,1.3
	c-2.32,0.14-4.65,0.09-6.97-0.15c-2.44-0.25-4.84-0.69-7.2-1.38c-6.07-1.77-11.29-4.91-15.58-9.57c-3.45-3.75-5.97-8.05-7.53-12.9
	c-0.73-2.25-1.23-4.55-1.22-6.94c0-1,0.03-1.99,0.09-2.99c0.11-2.04,0.32-4.07,0.64-6.09c0.55-3.45,1.45-6.8,2.87-9.99
	c1.91-4.31,4.67-7.98,8.22-11.07c2.05-1.79,4.27-3.34,6.6-4.73c1.23-0.74,2.45-1.49,3.76-2.09c1.86-0.85,3.81-1.49,5.77-2.06
	C33.94,3.2,35.38,2.84,36.9,2.5z M24.94,32.74c0,0.37,0,0.73,0,1.1c0,0.36,0.14,0.68,0.37,0.96c0.41,0.47,1.01,0.76,1.49-0.14
	c0.35-0.66,0.47-1.35,0.33-2.08c-0.13-0.66-0.11-1.27,0.33-1.83c0.23-0.29,0.32-0.66,0.38-1.02c0.09-0.54-0.16-0.83-0.72-0.82
	c-0.87,0.01-1.75,0.69-1.96,1.55C24.99,31.2,24.93,31.97,24.94,32.74z M29.46,31.82c-0.01,0.42,0.02,0.49,0.3,0.8
	c0.36,0.41,0.86,0.65,1.27,1c0.15,0.13,0.35,0.11,0.55,0.06c0.36-0.1,0.59-0.35,0.82-0.62c0.29-0.33,0.33-0.52,0.05-0.86
	c-0.4-0.49-0.84-0.94-1.38-1.27C30.24,30.42,29.49,30.84,29.46,31.82z"/>
<path class="st1" d="M58.46,6.55c-0.46-0.01-0.87-0.24-1.31-0.35c-1.77-0.46-3.56-0.7-5.38-0.82c-1.43-0.1-2.87-0.06-4.3-0.09
	c-3.45-0.08-6.73,0.64-9.91,1.95c-1.96,0.81-3.87,1.7-5.67,2.83c-0.92,0.58-1.72,1.31-2.64,1.9c-0.6,0.39-1.19,0.8-1.74,1.27
	c-0.76,0.64-1.38,1.39-1.79,2.3c-0.12,0.27-0.3,0.46-0.54,0.62c-2.47,1.66-4.14,3.93-5.11,6.73c-0.09,0.25-0.15,0.5-0.16,0.77
	c-0.05,1.28,0.02,2.55,0.16,3.82c0.15,1.35,0.31,2.71,0.46,4.06c0.05,0.45,0.07,0.91,0.15,1.35c0.06,0.33-0.01,0.62-0.12,0.92
	c-0.34,0.85-0.84,1.61-1.29,2.4c-1.54,2.68-3.08,5.37-4.62,8.05c-0.48,0.83-0.92,1.69-1.42,2.51c-0.32,0.53-0.4,1.08-0.34,1.66
	c0.12,1.16,0.44,2.26,0.88,3.33c0.2,0.47,0.7,0.72,1.2,0.6c0.55-0.13,0.89-0.51,1.16-0.99c0.35-0.63,0.76-1.22,1.46-1.52
	c0.27-0.12,0.31-0.36,0.32-0.61c0.02-0.58-0.06-1.15-0.13-1.72c-0.06-0.48,0.13-0.86,0.58-1.04c0.34-0.14,0.55-0.1,0.79,0.19
	c0.26,0.33,0.51,0.67,0.75,1.01c0.16,0.23,0.34,0.44,0.55,0.63c0.44,0.39,0.91,0.41,1.37,0.04c0.22-0.18,0.38-0.4,0.52-0.65
	c0.31-0.56,0.5-1.16,0.61-1.78c0.07-0.4,0.22-0.77,0.43-1.12c0.88-1.46,1.93-2.79,2.98-4.12c1.11-1.42,2.27-2.8,3.46-4.15
	c0.03-0.04,0.07-0.08,0.1-0.12c0.55-0.6,0.74-0.61,1.31-0.04c0.06,0.06,0.13,0.12,0.19,0.18c0.41,0.36,0.45,0.64,0.1,1.07
	c-0.21,0.26-0.45,0.49-0.67,0.74c-0.42,0.46-0.69,0.96-0.81,1.6c-0.2,1.1-0.65,2.14-1.08,3.17c-0.12,0.29-0.25,0.58-0.38,0.86
	c-0.18,0.4-0.41,0.76-0.71,1.09c-0.48,0.53-0.9,1.11-1.24,1.75c-0.39,0.73-1.03,1.23-1.63,1.76c-0.44,0.39-0.86,0.82-1.36,1.15
	c-0.26,0.17-0.33,0.43-0.23,0.58c0.09,0.15,0.44,0.22,0.68,0.12c0.47-0.2,0.9-0.46,1.29-0.8c0.68-0.6,1.35-1.22,2.03-1.82
	c0.46-0.41,0.95-0.78,1.44-1.14c0.43-0.32,0.88-0.33,1.33-0.1c0.56,0.27,1.01,0.68,1.42,1.14c1.06,1.18,1.88,2.52,2.66,3.89
	c0.52,0.91,1,1.84,1.44,2.8c0.16,0.35,0.21,0.69,0.21,1.06c-0.02,2.73-0.15,5.45-0.13,8.18c0.01,1.61,0,3.22,0.11,4.82
	c0.03,0.42,0.03,0.43,0.46,0.43c2.16,0,4.3-0.19,6.42-0.55c3.17-0.54,6.23-1.47,9.1-2.95C59.02,61.7,63.84,56,66.33,48.35
	c0.43-1.33,0.71-2.7,0.93-4.08c0.11-0.67-0.12-1.24-0.43-1.8c-0.61-1.11-1.42-2.08-2.27-3.01c-1.74-1.9-3.67-3.6-5.68-5.21
	c-2.41-1.95-4.92-3.76-7.57-5.37c-1.17-0.71-2.35-1.38-3.59-1.97c-0.51-0.25-0.53-0.26-0.24-0.77c0.32-0.58,0.68-1.14,1.01-1.72
	c0.53-0.93,0.83-1.92,0.7-3c-0.17-0.09-0.28,0.03-0.4,0.09c-1.51,0.66-3.09,0.99-4.74,1c-0.34,0-0.66-0.06-0.98-0.14
	c-0.29-0.07-0.32-0.15-0.15-0.4c0.95-1.41,2.14-2.53,3.76-3.15c0.97-0.37,1.99-0.55,3.02-0.62c0.47-0.03,0.94-0.06,1.41-0.08
	c1.56-0.05,3.06,0.24,4.54,0.68c3.2,0.97,6.04,2.58,8.44,4.92c2.25,2.19,3.81,4.81,4.74,7.81c0.56,1.81,0.86,3.66,0.99,5.56
	c0.09,1.37,0.06,2.73-0.06,4.08c-0.18,2.13-0.58,4.22-1.15,6.28c-1.04,3.71-2.59,7.2-4.79,10.38c-2.85,4.13-6.51,7.33-11.04,9.52
	c-2.66,1.28-5.47,2.11-8.39,2.6c-2.65,0.44-5.32,0.6-8,0.49c-2.72-0.11-5.38-0.56-8-1.34c-3.76-1.11-7.23-2.82-10.33-5.23
	c-5.24-4.06-8.62-9.33-10.14-15.78c-0.74-3.14-0.91-6.33-0.7-9.53c0.34-5.25,1.64-10.27,4.01-14.98c1.43-2.84,3.21-5.45,5.35-7.81
	c3.44-3.8,7.55-6.7,12.15-8.91c3.59-1.73,7.35-2.99,11.23-3.88c0.7-0.16,1.4-0.3,2.1-0.47c0.67-0.17,1.35-0.19,2.03-0.13
	c4.55,0.43,8.91,1.55,13.05,3.51C57.59,6.09,58.06,6.26,58.46,6.55L58.46,6.55z"/>
<path class="st1" d="M36.9,2.5c-1.52,0.35-2.96,0.7-4.39,1.11c-1.97,0.57-3.91,1.21-5.77,2.06c-1.31,0.6-2.53,1.35-3.76,2.09
	c-2.33,1.4-4.55,2.95-6.6,4.73c-3.55,3.09-6.31,6.77-8.22,11.07c-1.42,3.2-2.32,6.54-2.87,9.99c-0.32,2.02-0.53,4.05-0.64,6.09
	c-0.05,1-0.09,1.99-0.09,2.99c-0.01,2.38,0.5,4.68,1.22,6.94c1.56,4.85,4.08,9.15,7.53,12.9c4.29,4.66,9.52,7.8,15.58,9.57
	c2.36,0.69,4.76,1.12,7.2,1.38c2.32,0.24,4.65,0.29,6.97,0.15c2.5-0.15,4.95-0.62,7.37-1.3c5.33-1.5,10.16-3.94,14.43-7.47
	c3.59-2.96,6.44-6.5,8.44-10.71c1.17-2.48,1.96-5.08,2.39-7.79c0.32-2.04,0.46-4.1,0.37-6.16c-0.13-3.12-0.66-6.18-1.51-9.18
	c-0.59-2.07-1.31-4.09-2.16-6.07c-0.54-1.26-1.33-2.38-2.22-3.42c-3.43-4.04-7.65-6.94-12.7-8.58c-1.87-0.6-3.79-0.94-5.76-1.03
	c-4.43-0.21-8.51,0.94-12.35,3.09c-0.81,0.45-1.6,0.94-2.35,1.48c-0.26,0.19-0.54,0.33-0.88,0.28c-0.2-0.03-0.38-0.1-0.46-0.3
	c-0.09-0.22,0-0.42,0.18-0.56c0.23-0.18,0.49-0.34,0.73-0.51c2.47-1.68,5.12-3.02,7.98-3.91c1.88-0.58,3.79-0.98,5.75-1.12
	c6.68-0.5,12.62,1.38,17.83,5.55c3.29,2.63,5.77,5.92,7.65,9.68c1.4,2.79,2.27,5.74,2.73,8.82c0.37,2.48,0.5,4.97,0.38,7.48
	c-0.17,3.54-0.85,7-2.03,10.35c-1.43,4.06-3.52,7.76-6.23,11.11c-2.23,2.75-4.79,5.14-7.69,7.17c-3.85,2.7-8.05,4.64-12.61,5.81
	c-1.98,0.51-4,0.85-6.04,1.03c-1.55,0.14-3.11,0.22-4.66,0.16c-5.21-0.18-10.22-1.27-14.99-3.41c-4.91-2.2-9.18-5.29-12.78-9.27
	c-4.02-4.45-6.84-9.56-8.38-15.37c-0.64-2.41-1.02-4.85-1.16-7.33c-0.34-5.93,0.69-11.62,3.06-17.07c2.15-4.93,5.25-9.19,9.23-12.8
	c3.81-3.45,8.15-6.02,12.99-7.74c2.55-0.9,5.16-1.52,7.83-1.89C35.91,2.53,36.36,2.41,36.9,2.5z"/>
<path class="st1" d="M24.94,32.74c-0.01-0.77,0.04-1.54,0.23-2.28c0.21-0.86,1.08-1.54,1.96-1.55c0.56,0,0.81,0.28,0.72,0.82
	c-0.06,0.36-0.15,0.73-0.38,1.02c-0.44,0.56-0.46,1.17-0.33,1.83c0.14,0.72,0.02,1.41-0.33,2.08c-0.47,0.89-1.08,0.61-1.49,0.14
	c-0.23-0.27-0.37-0.59-0.37-0.96C24.94,33.47,24.94,33.1,24.94,32.74z"/>
<path class="st1" d="M29.46,31.82c0.02-0.98,0.77-1.4,1.61-0.9c0.54,0.33,0.98,0.78,1.38,1.27c0.28,0.34,0.24,0.53-0.05,0.86
	c-0.23,0.26-0.46,0.52-0.82,0.62c-0.2,0.05-0.4,0.07-0.55-0.06c-0.41-0.35-0.91-0.59-1.27-1C29.49,32.31,29.45,32.24,29.46,31.82z"
	/>
</svg>
