<?xml version="1.0" encoding="utf-8"?>
<!-- Generator: Adobe Illustrator 25.4.1, SVG Export Plug-In . SVG Version: 6.00 Build 0)  -->
<svg version="1.1" id="Layer_1" xmlns="http://www.w3.org/2000/svg" xmlns:xlink="http://www.w3.org/1999/xlink" x="0px" y="0px"
	 viewBox="0 0 204.58 80.27" style="enable-background:new 0 0 204.58 80.27;" xml:space="preserve">
<style type="text/css">
	.st0{fill:#24211C;}
	.st1{fill:#E93424;}
	.st2{fill:#A19C9C;}
</style>
<g id="_x23_fefefeff">
</g>
<g>
	<path class="st0" d="M41.06,80C27.2,80,14.6,73.41,6.96,62.3c-3.24-4.7-5.35-9.87-6.36-15.49c-0.55-3.06-0.75-6.15-0.51-9.25
		C1.04,25.02,6.63,15.01,16.8,7.6c4.96-3.62,10.54-5.86,16.58-6.94c3.2-0.57,6.43-0.77,9.67-0.59c14.67,0.81,27.52,9.25,34.07,21.81
		c2.02,3.87,3.35,7.98,3.99,12.3c0.43,2.91,0.56,5.85,0.32,8.79c-0.69,8.27-3.68,15.63-8.96,22.03C66.8,71.86,59.62,76.42,51,78.69
		C47.65,79.58,44.24,79.98,41.06,80z M58.46,6.55c0.02,0.02,0.04,0.05,0.06,0.06c0.01,0,0.02-0.01,0.04-0.01
		C58.52,6.59,58.49,6.57,58.46,6.55c-0.4-0.29-0.87-0.45-1.31-0.66c-4.14-1.96-8.5-3.09-13.05-3.51c-0.68-0.06-1.36-0.04-2.03,0.13
		c-0.7,0.17-1.4,0.31-2.1,0.47c-3.88,0.9-7.64,2.15-11.23,3.88c-4.6,2.22-8.71,5.11-12.15,8.91c-2.14,2.36-3.92,4.96-5.35,7.81
		c-2.37,4.72-3.67,9.73-4.01,14.98c-0.21,3.2-0.04,6.39,0.7,9.53c1.52,6.45,4.9,11.72,10.14,15.78c3.1,2.41,6.57,4.11,10.33,5.23
		c2.61,0.77,5.28,1.22,8,1.34c2.68,0.11,5.35-0.05,8-0.49c2.91-0.49,5.72-1.32,8.39-2.6c4.53-2.18,8.19-5.38,11.04-9.52
		c2.2-3.18,3.75-6.67,4.79-10.38c0.58-2.06,0.97-4.15,1.15-6.28c0.12-1.36,0.15-2.72,0.06-4.08c-0.13-1.89-0.42-3.75-0.99-5.56
		c-0.93-3-2.5-5.62-4.74-7.81c-2.4-2.34-5.24-3.95-8.44-4.92c-1.48-0.45-2.99-0.74-4.54-0.68c-0.47,0.02-0.94,0.05-1.41,0.08
		c-1.03,0.07-2.05,0.25-3.02,0.62c-1.62,0.61-2.81,1.74-3.76,3.15c-0.17,0.25-0.14,0.33,0.15,0.4c0.32,0.07,0.65,0.14,0.98,0.14
		c1.65-0.01,3.23-0.35,4.74-1c0.12-0.05,0.23-0.17,0.4-0.09c0.13,1.08-0.17,2.07-0.7,3c-0.33,0.58-0.69,1.14-1.01,1.72
		c-0.28,0.52-0.27,0.53,0.24,0.77c1.23,0.59,2.42,1.26,3.59,1.97c2.65,1.62,5.16,3.43,7.57,5.37c2,1.62,3.93,3.31,5.68,5.21
		c0.85,0.93,1.66,1.9,2.27,3.01c0.31,0.56,0.53,1.14,0.43,1.8c-0.22,1.38-0.5,2.75-0.93,4.08C63.84,56,59.02,61.7,51.86,65.39
		c-2.87,1.48-5.92,2.41-9.1,2.95c-2.12,0.36-4.26,0.55-6.42,0.55c-0.44,0-0.43-0.01-0.46-0.43c-0.11-1.61-0.1-3.21-0.11-4.82
		c-0.02-2.73,0.11-5.45,0.13-8.18c0-0.37-0.05-0.72-0.21-1.06c-0.44-0.95-0.92-1.89-1.44-2.8c-0.78-1.37-1.6-2.71-2.66-3.89
		c-0.41-0.46-0.86-0.87-1.42-1.14c-0.46-0.22-0.9-0.21-1.33,0.1c-0.49,0.36-0.98,0.73-1.44,1.14c-0.68,0.61-1.35,1.22-2.03,1.82
		c-0.38,0.34-0.81,0.61-1.29,0.8c-0.23,0.1-0.58,0.02-0.68-0.12c-0.1-0.15-0.02-0.41,0.23-0.58c0.5-0.33,0.92-0.76,1.36-1.15
		c0.6-0.53,1.25-1.03,1.63-1.76c0.34-0.64,0.76-1.22,1.24-1.75c0.3-0.33,0.53-0.69,0.71-1.09c0.13-0.29,0.26-0.57,0.38-0.86
		c0.43-1.03,0.88-2.07,1.08-3.17c0.12-0.64,0.39-1.14,0.81-1.6c0.22-0.25,0.46-0.48,0.67-0.74c0.35-0.43,0.31-0.71-0.1-1.07
		c-0.07-0.06-0.13-0.12-0.19-0.18c-0.58-0.57-0.76-0.56-1.31,0.04c-0.04,0.04-0.07,0.08-0.1,0.12c-1.18,1.36-2.34,2.74-3.46,4.15
		c-1.05,1.33-2.1,2.66-2.98,4.12c-0.21,0.35-0.36,0.71-0.43,1.12c-0.11,0.62-0.31,1.22-0.61,1.78c-0.14,0.25-0.3,0.48-0.52,0.65
		c-0.46,0.37-0.94,0.35-1.37-0.04c-0.21-0.19-0.39-0.4-0.55-0.63c-0.25-0.34-0.49-0.68-0.75-1.01c-0.23-0.29-0.45-0.33-0.79-0.19
		c-0.45,0.19-0.64,0.56-0.58,1.04c0.07,0.57,0.15,1.14,0.13,1.72c-0.01,0.25-0.05,0.49-0.32,0.61c-0.7,0.3-1.11,0.89-1.46,1.52
		c-0.26,0.48-0.6,0.86-1.16,0.99c-0.49,0.12-1-0.13-1.2-0.6c-0.45-1.07-0.76-2.18-0.88-3.33c-0.06-0.59,0.02-1.14,0.34-1.66
		c0.49-0.82,0.94-1.68,1.42-2.51c1.54-2.69,3.08-5.37,4.62-8.05c0.45-0.79,0.95-1.55,1.29-2.4c0.12-0.3,0.19-0.58,0.12-0.92
		c-0.08-0.45-0.1-0.9-0.15-1.35c-0.15-1.35-0.31-2.71-0.46-4.06c-0.14-1.27-0.22-2.54-0.16-3.82c0.01-0.27,0.07-0.52,0.16-0.77
		c0.97-2.8,2.64-5.07,5.11-6.73c0.24-0.16,0.41-0.35,0.54-0.62c0.41-0.91,1.02-1.66,1.79-2.3c0.55-0.46,1.14-0.88,1.74-1.27
		c0.91-0.59,1.71-1.33,2.64-1.9c1.8-1.13,3.71-2.02,5.67-2.83c3.17-1.31,6.46-2.03,9.91-1.95c1.43,0.04,2.87-0.01,4.3,0.09
		c1.82,0.12,3.61,0.36,5.38,0.82C57.59,6.31,57.99,6.53,58.46,6.55z M36.9,2.5c-0.54-0.09-0.99,0.03-1.44,0.1
		c-2.67,0.37-5.29,0.98-7.83,1.89c-4.84,1.72-9.18,4.29-12.99,7.74c-3.98,3.61-7.08,7.87-9.23,12.8c-2.37,5.45-3.4,11.13-3.06,17.07
		c0.14,2.49,0.52,4.93,1.16,7.33c1.54,5.81,4.36,10.92,8.38,15.37c3.61,3.98,7.87,7.07,12.78,9.27c4.77,2.14,9.77,3.23,14.99,3.41
		c1.56,0.05,3.11-0.03,4.66-0.16c2.04-0.18,4.05-0.52,6.04-1.03c4.56-1.16,8.76-3.1,12.61-5.81c2.9-2.03,5.46-4.43,7.69-7.17
		c2.71-3.35,4.8-7.05,6.23-11.11c1.18-3.35,1.86-6.8,2.03-10.35c0.12-2.5-0.01-4.99-0.38-7.48c-0.46-3.08-1.33-6.03-2.73-8.82
		c-1.88-3.76-4.36-7.05-7.65-9.68C62.94,11.69,57,9.81,50.32,10.31c-1.96,0.15-3.87,0.54-5.75,1.12c-2.86,0.89-5.51,2.23-7.98,3.91
		c-0.25,0.17-0.5,0.33-0.73,0.51c-0.18,0.14-0.26,0.34-0.18,0.56c0.08,0.2,0.26,0.27,0.46,0.3c0.34,0.05,0.62-0.09,0.88-0.28
		c0.75-0.54,1.54-1.03,2.35-1.48c3.83-2.15,7.91-3.3,12.35-3.09c1.97,0.09,3.89,0.42,5.76,1.03c5.06,1.64,9.27,4.54,12.7,8.58
		c0.89,1.04,1.67,2.16,2.22,3.42c0.85,1.98,1.57,4,2.16,6.07c0.86,3,1.38,6.06,1.51,9.18c0.09,2.06-0.05,4.12-0.37,6.16
		c-0.43,2.71-1.22,5.31-2.39,7.79c-1.99,4.21-4.85,7.75-8.44,10.71c-4.27,3.52-9.11,5.97-14.43,7.47c-2.41,0.68-4.87,1.15-7.37,1.3
		c-2.32,0.14-4.65,0.09-6.97-0.15c-2.44-0.25-4.84-0.69-7.2-1.38c-6.07-1.77-11.29-4.91-15.58-9.57c-3.45-3.75-5.97-8.05-7.53-12.9
		c-0.73-2.25-1.23-4.55-1.22-6.94c0-1,0.03-1.99,0.09-2.99c0.11-2.04,0.32-4.07,0.64-6.09c0.55-3.45,1.45-6.8,2.87-9.99
		c1.91-4.31,4.67-7.98,8.22-11.07c2.05-1.79,4.27-3.34,6.6-4.73c1.23-0.74,2.45-1.49,3.76-2.09c1.86-0.85,3.81-1.49,5.77-2.06
		C33.94,3.2,35.38,2.84,36.9,2.5z M24.94,32.74c0,0.37,0,0.73,0,1.1c0,0.36,0.14,0.68,0.37,0.96c0.41,0.47,1.01,0.76,1.49-0.14
		c0.35-0.66,0.47-1.35,0.33-2.08c-0.13-0.66-0.11-1.27,0.33-1.83c0.23-0.29,0.32-0.66,0.38-1.02c0.09-0.54-0.16-0.83-0.72-0.82
		c-0.87,0.01-1.75,0.69-1.96,1.55C24.99,31.2,24.93,31.97,24.94,32.74z M29.46,31.82c-0.01,0.42,0.02,0.49,0.3,0.8
		c0.36,0.41,0.86,0.65,1.27,1c0.15,0.13,0.35,0.11,0.55,0.06c0.36-0.1,0.59-0.35,0.82-0.62c0.29-0.33,0.33-0.52,0.05-0.86
		c-0.4-0.49-0.84-0.94-1.38-1.27C30.24,30.42,29.49,30.84,29.46,31.82z"/>
	<path class="st1" d="M58.46,6.55c-0.46-0.01-0.87-0.24-1.31-0.35c-1.77-0.46-3.56-0.7-5.38-0.82c-1.43-0.1-2.87-0.06-4.3-0.09
		c-3.45-0.08-6.73,0.64-9.91,1.95c-1.96,0.81-3.87,1.7-5.67,2.83c-0.92,0.58-1.72,1.31-2.64,1.9c-0.6,0.39-1.19,0.8-1.74,1.27
		c-0.76,0.64-1.38,1.39-1.79,2.3c-0.12,0.27-0.3,0.46-0.54,0.62c-2.47,1.66-4.14,3.93-5.11,6.73c-0.09,0.25-0.15,0.5-0.16,0.77
		c-0.05,1.28,0.02,2.55,0.16,3.82c0.15,1.35,0.31,2.71,0.46,4.06c0.05,0.45,0.07,0.91,0.15,1.35c0.06,0.33-0.01,0.62-0.12,0.92
		c-0.34,0.85-0.84,1.61-1.29,2.4c-1.54,2.68-3.08,5.37-4.62,8.05c-0.48,0.83-0.92,1.69-1.42,2.51c-0.32,0.53-0.4,1.08-0.34,1.66
		c0.12,1.16,0.44,2.26,0.88,3.33c0.2,0.47,0.7,0.72,1.2,0.6c0.55-0.13,0.89-0.51,1.16-0.99c0.35-0.63,0.76-1.22,1.46-1.52
		c0.27-0.12,0.31-0.36,0.32-0.61c0.02-0.58-0.06-1.15-0.13-1.72c-0.06-0.48,0.13-0.86,0.58-1.04c0.34-0.14,0.55-0.1,0.79,0.19
		c0.26,0.33,0.51,0.67,0.75,1.01c0.16,0.23,0.34,0.44,0.55,0.63c0.44,0.39,0.91,0.41,1.37,0.04c0.22-0.18,0.38-0.4,0.52-0.65
		c0.31-0.56,0.5-1.16,0.61-1.78c0.07-0.4,0.22-0.77,0.43-1.12c0.88-1.46,1.93-2.79,2.98-4.12c1.11-1.42,2.27-2.8,3.46-4.15
		c0.03-0.04,0.07-0.08,0.1-0.12c0.55-0.6,0.74-0.61,1.31-0.04c0.06,0.06,0.13,0.12,0.19,0.18c0.41,0.36,0.45,0.64,0.1,1.07
		c-0.21,0.26-0.45,0.49-0.67,0.74c-0.42,0.46-0.69,0.96-0.81,1.6c-0.2,1.1-0.65,2.14-1.08,3.17c-0.12,0.29-0.25,0.58-0.38,0.86
		c-0.18,0.4-0.41,0.76-0.71,1.09c-0.48,0.53-0.9,1.11-1.24,1.75c-0.39,0.73-1.03,1.23-1.63,1.76c-0.44,0.39-0.86,0.82-1.36,1.15
		c-0.26,0.17-0.33,0.43-0.23,0.58c0.09,0.15,0.44,0.22,0.68,0.12c0.47-0.2,0.9-0.46,1.29-0.8c0.68-0.6,1.35-1.22,2.03-1.82
		c0.46-0.41,0.95-0.78,1.44-1.14c0.43-0.32,0.88-0.33,1.33-0.1c0.56,0.27,1.01,0.68,1.42,1.14c1.06,1.18,1.88,2.52,2.66,3.89
		c0.52,0.91,1,1.84,1.44,2.8c0.16,0.35,0.21,0.69,0.21,1.06c-0.02,2.73-0.15,5.45-0.13,8.18c0.01,1.61,0,3.22,0.11,4.82
		c0.03,0.42,0.03,0.43,0.46,0.43c2.16,0,4.3-0.19,6.42-0.55c3.17-0.54,6.23-1.47,9.1-2.95C59.02,61.7,63.84,56,66.33,48.35
		c0.43-1.33,0.71-2.7,0.93-4.08c0.11-0.67-0.12-1.24-0.43-1.8c-0.61-1.11-1.42-2.08-2.27-3.01c-1.74-1.9-3.67-3.6-5.68-5.21
		c-2.41-1.95-4.92-3.76-7.57-5.37c-1.17-0.71-2.35-1.38-3.59-1.97c-0.51-0.25-0.53-0.26-0.24-0.77c0.32-0.58,0.68-1.14,1.01-1.72
		c0.53-0.93,0.83-1.92,0.7-3c-0.17-0.09-0.28,0.03-0.4,0.09c-1.51,0.66-3.09,0.99-4.74,1c-0.34,0-0.66-0.06-0.98-0.14
		c-0.29-0.07-0.32-0.15-0.15-0.4c0.95-1.41,2.14-2.53,3.76-3.15c0.97-0.37,1.99-0.55,3.02-0.62c0.47-0.03,0.94-0.06,1.41-0.08
		c1.56-0.05,3.06,0.24,4.54,0.68c3.2,0.97,6.04,2.58,8.44,4.92c2.25,2.19,3.81,4.81,4.74,7.81c0.56,1.81,0.86,3.66,0.99,5.56
		c0.09,1.37,0.06,2.73-0.06,4.08c-0.18,2.13-0.58,4.22-1.15,6.28c-1.04,3.71-2.59,7.2-4.79,10.38c-2.85,4.13-6.51,7.33-11.04,9.52
		c-2.66,1.28-5.47,2.11-8.39,2.6c-2.65,0.44-5.32,0.6-8,0.49c-2.72-0.11-5.38-0.56-8-1.34c-3.76-1.11-7.23-2.82-10.33-5.23
		c-5.24-4.06-8.62-9.33-10.14-15.78c-0.74-3.14-0.91-6.33-0.7-9.53c0.34-5.25,1.64-10.27,4.01-14.98c1.43-2.84,3.21-5.45,5.35-7.81
		c3.44-3.8,7.55-6.7,12.15-8.91c3.59-1.73,7.35-2.99,11.23-3.88c0.7-0.16,1.4-0.3,2.1-0.47c0.67-0.17,1.35-0.19,2.03-0.13
		c4.55,0.43,8.91,1.55,13.05,3.51C57.59,6.09,58.06,6.26,58.46,6.55L58.46,6.55z"/>
	<path class="st1" d="M36.9,2.5c-1.52,0.35-2.96,0.7-4.39,1.11c-1.97,0.57-3.91,1.21-5.77,2.06c-1.31,0.6-2.53,1.35-3.76,2.09
		c-2.33,1.4-4.55,2.95-6.6,4.73c-3.55,3.09-6.31,6.77-8.22,11.07c-1.42,3.2-2.32,6.54-2.87,9.99c-0.32,2.02-0.53,4.05-0.64,6.09
		c-0.05,1-0.09,1.99-0.09,2.99c-0.01,2.38,0.5,4.68,1.22,6.94c1.56,4.85,4.08,9.15,7.53,12.9c4.29,4.66,9.52,7.8,15.58,9.57
		c2.36,0.69,4.76,1.12,7.2,1.38c2.32,0.24,4.65,0.29,6.97,0.15c2.5-0.15,4.95-0.62,7.37-1.3c5.33-1.5,10.16-3.94,14.43-7.47
		c3.59-2.96,6.44-6.5,8.44-10.71c1.17-2.48,1.96-5.08,2.39-7.79c0.32-2.04,0.46-4.1,0.37-6.16c-0.13-3.12-0.66-6.18-1.51-9.18
		c-0.59-2.07-1.31-4.09-2.16-6.07c-0.54-1.26-1.33-2.38-2.22-3.42c-3.43-4.04-7.65-6.94-12.7-8.58c-1.87-0.6-3.79-0.94-5.76-1.03
		c-4.43-0.21-8.51,0.94-12.35,3.09c-0.81,0.45-1.6,0.94-2.35,1.48c-0.26,0.19-0.54,0.33-0.88,0.28c-0.2-0.03-0.38-0.1-0.46-0.3
		c-0.09-0.22,0-0.42,0.18-0.56c0.23-0.18,0.49-0.34,0.73-0.51c2.47-1.68,5.12-3.02,7.98-3.91c1.88-0.58,3.79-0.98,5.75-1.12
		c6.68-0.5,12.62,1.38,17.83,5.55c3.29,2.63,5.77,5.92,7.65,9.68c1.4,2.79,2.27,5.74,2.73,8.82c0.37,2.48,0.5,4.97,0.38,7.48
		c-0.17,3.54-0.85,7-2.03,10.35c-1.43,4.06-3.52,7.76-6.23,11.11c-2.23,2.75-4.79,5.14-7.69,7.17c-3.85,2.7-8.05,4.64-12.61,5.81
		c-1.98,0.51-4,0.85-6.04,1.03c-1.55,0.14-3.11,0.22-4.66,0.16c-5.21-0.18-10.22-1.27-14.99-3.41c-4.91-2.2-9.18-5.29-12.78-9.27
		c-4.02-4.45-6.84-9.56-8.38-15.37c-0.64-2.41-1.02-4.85-1.16-7.33c-0.34-5.93,0.69-11.62,3.06-17.07c2.15-4.93,5.25-9.19,9.23-12.8
		c3.81-3.45,8.15-6.02,12.99-7.74c2.55-0.9,5.16-1.52,7.83-1.89C35.91,2.53,36.36,2.41,36.9,2.5z"/>
	<path class="st1" d="M24.94,32.74c-0.01-0.77,0.04-1.54,0.23-2.28c0.21-0.86,1.08-1.54,1.96-1.55c0.56,0,0.81,0.28,0.72,0.82
		c-0.06,0.36-0.15,0.73-0.38,1.02c-0.44,0.56-0.46,1.17-0.33,1.83c0.14,0.72,0.02,1.41-0.33,2.08c-0.47,0.89-1.08,0.61-1.49,0.14
		c-0.23-0.27-0.37-0.59-0.37-0.96C24.94,33.47,24.94,33.1,24.94,32.74z"/>
	<path class="st1" d="M29.46,31.82c0.02-0.98,0.77-1.4,1.61-0.9c0.54,0.33,0.98,0.78,1.38,1.27c0.28,0.34,0.24,0.53-0.05,0.86
		c-0.23,0.26-0.46,0.52-0.82,0.62c-0.2,0.05-0.4,0.07-0.55-0.06c-0.41-0.35-0.91-0.59-1.27-1C29.49,32.31,29.45,32.24,29.46,31.82z"
		/>
	<path class="st2" d="M119.7,20.88h-9.85v25.51c0,0.84-0.65,1.45-1.56,1.45c-0.9,0-1.56-0.61-1.56-1.45V20.88h-10.5
		c-0.9,0-1.56-0.61-1.56-1.45c0-0.84,0.65-1.41,1.56-1.41h23.46c0.9,0,1.56,0.56,1.56,1.41C121.26,20.27,120.61,20.88,119.7,20.88z"
		/>
	<path class="st2" d="M143.85,47.89c-0.65,0-1.16-0.38-1.36-0.94l-4.82-11.35h-10.35l-4.57,11.07c-0.3,0.66-0.9,1.22-1.71,1.22
		c-0.8,0-1.41-0.56-1.41-1.31c0-0.28,0.05-0.52,0.15-0.7l11.2-26.77c0.2-0.56,0.75-1.03,1.41-1.03c0.65,0,1.21,0.47,1.46,1.03
		l11.51,26.82c0.1,0.14,0.15,0.33,0.15,0.52C145.51,47.23,144.7,47.89,143.85,47.89z M132.44,23.55l-3.92,9.24h7.89L132.44,23.55z"
		/>
	<path class="st2" d="M173.23,47.89c-0.65,0-1.16-0.38-1.36-0.94l-4.82-11.35H156.7l-4.57,11.07c-0.3,0.66-0.9,1.22-1.71,1.22
		c-0.8,0-1.41-0.56-1.41-1.31c0-0.28,0.05-0.52,0.15-0.7l11.2-26.77c0.2-0.56,0.75-1.03,1.41-1.03s1.21,0.47,1.46,1.03l11.51,26.82
		c0.1,0.14,0.15,0.33,0.15,0.52C174.89,47.23,174.08,47.89,173.23,47.89z M161.83,23.55l-3.92,9.24h7.89L161.83,23.55z"/>
	<path class="st2" d="M204.58,34.46c0-0.82-0.66-1.48-1.48-1.48h-8.91c-0.82,0-1.48,0.66-1.48,1.48v0c0,0.82,0.66,1.48,1.48,1.48
		h6.8v7.18c-2.8,1.45-6.42,2.04-9.38,1.47c-7.18-1.39-11.35-6.32-11.35-11.33c0-5.91,4.07-12.71,12.37-12.71
		c3.31,0,5.79,0.57,8.88,2.08c0.29,0.09,1.12,0.42,1.41,0.42c1.05,0,1.33-0.97,1.33-1.76c0-2.44-9.31-3.69-11.63-3.69
		c-10.4,0-15.97,8.11-15.97,15.66c0,6.71,5.19,13.43,13.97,14.58c4.38,0.57,9.61,0.09,13.21-2.11c0.35-0.28,0.75-0.8,0.75-1.17
		v-9.38c0-0.12-0.02-0.24-0.05-0.35C204.57,34.72,204.58,34.59,204.58,34.46L204.58,34.46z"/>
	<g>
		<path class="st2" d="M114.15,57.38c0-0.88,0-1.75,0-2.63c0-0.2,0.04-0.37,0.24-0.46c0.3-0.14,0.59,0.05,0.6,0.4
			c0.01,0.56,0,1.12,0,1.67c0,0.06-0.03,0.14,0.03,0.17c0.07,0.04,0.11-0.05,0.15-0.08c0.9-0.64,2.22-0.43,2.81,0.47
			c0.25,0.38,0.32,0.8,0.32,1.24c0.01,0.63,0,1.25,0,1.88c0,0.11-0.01,0.22-0.08,0.31c-0.12,0.16-0.29,0.21-0.48,0.15
			c-0.19-0.06-0.28-0.19-0.28-0.39c0-0.63,0-1.27,0-1.9c0-0.17-0.01-0.35-0.06-0.51c-0.13-0.49-0.46-0.78-0.96-0.85
			c-0.51-0.08-0.96,0.03-1.29,0.47c-0.13,0.17-0.17,0.37-0.17,0.58c0,0.72,0,1.45,0,2.17c0,0.34-0.26,0.54-0.56,0.43
			c-0.2-0.08-0.27-0.24-0.27-0.44c0-0.56,0-1.12,0-1.67C114.15,58.06,114.15,57.72,114.15,57.38z"/>
		<path class="st2" d="M109.53,56.58c0.6-0.5,1.27-0.61,1.98-0.4c0.73,0.21,1.12,0.74,1.26,1.47c0.08,0.42,0.03,0.84,0.04,1.26
			c0.01,0.38,0,0.76,0,1.14c0,0.31-0.15,0.48-0.41,0.48c-0.27,0-0.41-0.16-0.42-0.47c-0.01-0.7,0.03-1.41-0.02-2.11
			c-0.04-0.51-0.28-0.88-0.78-1.04c-0.52-0.16-1.01-0.1-1.42,0.31c-0.18,0.18-0.26,0.4-0.26,0.65c0,0.73,0,1.46,0,2.19
			c0,0.31-0.17,0.49-0.45,0.47c-0.22-0.01-0.38-0.16-0.38-0.38c0-1.21,0-2.42,0-3.64c0-0.21,0.15-0.36,0.36-0.38
			c0.21-0.03,0.38,0.08,0.45,0.28C109.5,56.46,109.51,56.51,109.53,56.58z"/>
		<path class="st2" d="M182.35,56.59c0.11-0.08,0.19-0.15,0.29-0.2c0.67-0.39,1.37-0.42,2.06-0.06c0.69,0.36,0.94,0.99,0.95,1.74
			c0.01,0.67,0,1.34,0,2.01c0,0.3-0.15,0.47-0.41,0.47c-0.26,0-0.42-0.17-0.43-0.46c-0.01-0.67,0-1.34,0-2.01
			c0-0.58-0.26-0.97-0.75-1.15c-0.43-0.15-0.86-0.12-1.25,0.12c-0.35,0.22-0.48,0.55-0.48,0.95c0,0.69,0,1.38,0,2.07
			c0,0.3-0.14,0.46-0.4,0.46c-0.26,0-0.41-0.17-0.41-0.46c0-1.16,0-2.32,0-3.47c0-0.29,0.13-0.45,0.38-0.47
			C182.15,56.11,182.31,56.26,182.35,56.59z"/>
		<path class="st2" d="M157.74,56.1c0.53,0.01,1.03,0.13,1.43,0.51c0.07,0.06,0.13,0.13,0.17,0.21c0.13,0.23-0.01,0.47-0.27,0.5
			c-0.17,0.01-0.31-0.04-0.44-0.15c-0.41-0.37-0.9-0.39-1.4-0.27c-0.19,0.04-0.37,0.14-0.39,0.37c-0.02,0.22,0.07,0.35,0.33,0.47
			c0.3,0.14,0.64,0.18,0.96,0.26c0.21,0.05,0.41,0.12,0.61,0.2c0.46,0.2,0.75,0.52,0.75,1.04c0,0.55-0.29,0.96-0.8,1.15
			c-0.88,0.33-1.72,0.21-2.52-0.26c-0.05-0.03-0.1-0.07-0.15-0.12c-0.19-0.18-0.22-0.4-0.08-0.56c0.18-0.21,0.44-0.24,0.64-0.06
			c0.24,0.22,0.51,0.36,0.82,0.41c0.31,0.05,0.62,0.05,0.92-0.07c0.19-0.08,0.35-0.21,0.36-0.44c0.01-0.23-0.14-0.36-0.33-0.46
			c-0.26-0.14-0.55-0.19-0.83-0.25c-0.3-0.07-0.6-0.15-0.88-0.3c-0.39-0.22-0.62-0.55-0.6-1.01c0.02-0.51,0.33-0.81,0.77-1
			C157.1,56.14,157.41,56.09,157.74,56.1z"/>
		<path class="st2" d="M126.58,60.57c-0.52-0.02-1.1-0.13-1.59-0.53c-0.22-0.18-0.26-0.41-0.11-0.59c0.18-0.21,0.45-0.24,0.66-0.05
			c0.45,0.42,0.98,0.49,1.56,0.38c0.09-0.02,0.19-0.06,0.27-0.11c0.3-0.18,0.33-0.54,0.05-0.76c-0.22-0.18-0.5-0.23-0.77-0.29
			c-0.46-0.1-0.92-0.19-1.3-0.5c-0.49-0.41-0.51-1.15-0.04-1.58c0.26-0.24,0.58-0.36,0.92-0.4c0.72-0.09,1.4-0.01,1.94,0.54
			c0.16,0.17,0.2,0.36,0.1,0.5c-0.11,0.15-0.34,0.19-0.55,0.09c-0.06-0.03-0.11-0.06-0.15-0.1c-0.43-0.38-0.92-0.39-1.44-0.25
			c-0.18,0.05-0.34,0.15-0.35,0.36c-0.02,0.22,0.1,0.36,0.3,0.45c0.32,0.15,0.67,0.2,1.01,0.28c0.22,0.05,0.43,0.12,0.63,0.21
			c0.39,0.19,0.67,0.47,0.7,0.92c0.04,0.5-0.17,0.88-0.59,1.15C127.48,60.5,127.08,60.56,126.58,60.57z"/>
		<path class="st2" d="M101.16,57.4c0-0.89,0-1.78,0-2.67c0-0.36,0.26-0.56,0.56-0.45c0.19,0.07,0.27,0.21,0.27,0.41
			c0,0.76,0,1.53,0,2.29c0,0.82,0,1.64,0,2.46c0,0.17,0.05,0.22,0.22,0.22c0.86-0.01,1.73,0,2.59,0c0.28,0,0.44,0.1,0.51,0.31
			c0.09,0.29-0.1,0.55-0.43,0.55c-0.84,0-1.67,0-2.51,0c-0.23,0-0.47,0-0.7,0c-0.36,0-0.5-0.14-0.5-0.5
			C101.16,59.15,101.16,58.28,101.16,57.4z"/>
		<path class="st2" d="M197.7,56.97c0-0.76,0-1.52,0-2.27c0-0.35,0.26-0.53,0.56-0.41c0.19,0.07,0.25,0.22,0.25,0.41
			c0,0.56,0,1.13,0,1.69c0,0.87,0,1.74,0,2.6c0,0.11,0.01,0.22,0.04,0.33c0.08,0.3,0.19,0.39,0.49,0.39c0.31,0,0.46,0.16,0.43,0.47
			c-0.02,0.17-0.18,0.31-0.41,0.34c-0.45,0.06-0.89-0.15-1.12-0.55c-0.17-0.29-0.23-0.61-0.23-0.95
			C197.7,58.34,197.7,57.65,197.7,56.97z"/>
		<path class="st2" d="M143.14,56.61c0.2-0.17,0.4-0.33,0.65-0.41c0.41-0.14,0.82-0.16,1.24-0.02c0.13,0.04,0.25,0.12,0.31,0.26
			c0.1,0.25-0.11,0.49-0.39,0.44c-0.31-0.06-0.63-0.09-0.95-0.03c-0.6,0.11-0.9,0.46-0.9,1.07c0,0.73,0,1.46,0,2.19
			c0,0.31-0.17,0.45-0.48,0.42c-0.2-0.02-0.34-0.14-0.34-0.35c0-1.23,0-2.45,0-3.68c0-0.22,0.16-0.36,0.4-0.36
			c0.25-0.01,0.38,0.11,0.42,0.34C143.11,56.51,143.09,56.57,143.14,56.61z"/>
		<path class="st2" d="M107.15,58.33c0,0.58,0,1.16,0,1.74c0,0.3-0.14,0.46-0.41,0.46c-0.26,0-0.42-0.16-0.42-0.45
			c0-1.16,0-2.33,0-3.49c0-0.29,0.16-0.45,0.42-0.45c0.25,0,0.4,0.17,0.41,0.44C107.15,57.16,107.15,57.75,107.15,58.33z"/>
		<path class="st2" d="M139.19,55.45c-0.17,0.01-0.3-0.06-0.37-0.21c-0.07-0.16-0.07-0.33,0.05-0.46c0.27-0.28,0.54-0.55,0.82-0.82
			c0.16-0.15,0.42-0.12,0.56,0.03c0.14,0.15,0.16,0.41,0.01,0.56c-0.27,0.28-0.54,0.55-0.82,0.82
			C139.39,55.44,139.29,55.45,139.19,55.45z"/>
		<path class="st2" d="M107.27,54.9c0,0.3-0.24,0.53-0.54,0.53c-0.3,0-0.54-0.25-0.53-0.54c0.01-0.3,0.25-0.54,0.54-0.53
			C107.04,54.36,107.28,54.61,107.27,54.9z"/>
		<path class="st2" d="M191.22,58.3c-0.01-0.89-0.38-1.6-1.21-1.98c-0.85-0.38-1.69-0.32-2.44,0.26c-0.74,0.56-0.94,1.56-0.69,2.48
			c0.3,1.1,1.34,1.71,2.41,1.45c0.46-0.11,0.8-0.39,1.1-0.81c0.04,0.25,0.03,0.44,0,0.63c-0.08,0.62-0.5,1.15-1.08,1.25
			c-0.61,0.11-1.17-0.02-1.59-0.52c-0.19-0.23-0.42-0.25-0.61-0.08c-0.19,0.17-0.19,0.36,0.03,0.59c0.71,0.75,1.59,0.97,2.56,0.68
			c0.92-0.28,1.41-0.97,1.5-1.91C191.27,59.66,191.23,58.98,191.22,58.3z M188.3,59.65c-0.69-0.36-0.94-1.37-0.53-2.1
			c0.38-0.68,1.25-0.93,1.94-0.53c0.5,0.29,0.7,0.76,0.71,1.13C190.42,59.59,189.23,60.14,188.3,59.65z"/>
		<path class="st2" d="M136.58,59.91c-0.35-0.84-0.7-1.67-1.05-2.51c-0.4-0.94-0.8-1.89-1.19-2.83c-0.05-0.13-0.12-0.24-0.28-0.29
			c-0.26-0.07-0.44,0.03-0.56,0.32c-0.29,0.68-0.57,1.37-0.86,2.06c-0.45,1.08-0.91,2.16-1.36,3.24c-0.12,0.28-0.03,0.52,0.2,0.61
			c0.24,0.1,0.47-0.02,0.59-0.3c0.12-0.29,0.25-0.58,0.36-0.88c0.05-0.13,0.12-0.16,0.25-0.16c0.84,0,1.67,0.01,2.51,0
			c0.15,0,0.22,0.06,0.27,0.19c0.11,0.3,0.24,0.6,0.36,0.9c0.08,0.18,0.21,0.28,0.36,0.28C136.54,60.52,136.71,60.23,136.58,59.91z
			 M134.92,58.46c-0.66,0-1.33,0-1.99,0c-0.1,0-0.15-0.02-0.1-0.13c0.36-0.88,0.73-1.77,1.11-2.7c0.25,0.62,0.48,1.18,0.7,1.74
			c0.13,0.31,0.25,0.63,0.38,0.94C135.07,58.42,135.05,58.46,134.92,58.46z"/>
		<path class="st2" d="M180.58,59.76c-0.44-1.06-0.89-2.12-1.33-3.18c-0.28-0.67-0.56-1.35-0.85-2.02c-0.12-0.27-0.36-0.38-0.6-0.27
			c-0.17,0.08-0.22,0.24-0.28,0.39c-0.46,1.08-0.91,2.17-1.37,3.25c-0.27,0.65-0.54,1.29-0.81,1.94c-0.11,0.27-0.03,0.52,0.19,0.61
			c0.24,0.1,0.47-0.01,0.59-0.3c0.12-0.29,0.25-0.58,0.36-0.88c0.05-0.12,0.11-0.17,0.24-0.17c0.84,0.01,1.69,0.01,2.53,0
			c0.13,0,0.2,0.04,0.24,0.16c0.12,0.32,0.25,0.63,0.37,0.94c0.07,0.18,0.21,0.27,0.34,0.27c0.26,0,0.43-0.13,0.47-0.33
			C180.72,60.03,180.64,59.9,180.58,59.76z M178.91,58.46c-0.63-0.01-1.26-0.01-1.89,0c-0.14,0-0.19-0.02-0.13-0.17
			c0.35-0.83,0.68-1.65,1.02-2.48c0.02-0.04,0.02-0.1,0.1-0.11c0.12,0.29,0.24,0.58,0.35,0.87c0.23,0.56,0.45,1.13,0.68,1.68
			C179.14,58.43,179.09,58.46,178.91,58.46z"/>
		<path class="st2" d="M167.07,54.65c0-0.26-0.21-0.43-0.47-0.39c-0.23,0.04-0.34,0.17-0.34,0.42c0,0.69,0,1.39,0,2.08
			c-0.02,0.01-0.04,0.02-0.07,0.04c-0.04-0.05-0.06-0.11-0.11-0.15c-0.68-0.64-1.74-0.73-2.51-0.2c-0.69,0.48-0.95,1.16-0.93,1.98
			c0.02,0.96,0.64,1.79,1.56,2.05c1.42,0.41,2.84-0.58,2.86-2C167.08,57.2,167.07,55.92,167.07,54.65z M165.55,59.64
			c-0.47,0.27-0.95,0.25-1.42-0.02c-0.7-0.41-0.91-1.42-0.46-2.13c0.43-0.68,1.31-0.87,1.98-0.42c0.44,0.3,0.63,0.73,0.63,1.34
			C166.26,58.9,166.05,59.36,165.55,59.64z"/>
		<path class="st2" d="M204.22,58.03c-0.1-0.83-0.54-1.43-1.31-1.75c-0.79-0.33-1.58-0.25-2.27,0.29c-0.76,0.6-0.97,1.41-0.78,2.33
			c0.16,0.76,0.6,1.31,1.36,1.56c0.76,0.25,1.44,0.08,2.04-0.44c0.04-0.03,0.06-0.1,0.13-0.09c0.05,0.05,0.02,0.12,0.02,0.18
			c0.01,0.27,0.15,0.43,0.39,0.43c0.25,0.01,0.44-0.16,0.44-0.42C204.25,59.42,204.3,58.72,204.22,58.03z M202.08,59.82
			c-0.85,0.01-1.47-0.62-1.47-1.47c-0.01-0.85,0.6-1.5,1.4-1.51c0.82-0.01,1.43,0.62,1.44,1.49
			C203.45,59.16,202.85,59.82,202.08,59.82z"/>
		<path class="st2" d="M154.91,58.11c-0.08-0.89-0.54-1.53-1.37-1.85c-0.87-0.33-1.69-0.19-2.38,0.46c-0.58,0.54-0.74,1.24-0.64,2
			c0.14,1.04,0.9,1.8,1.96,1.84c0.62,0.02,1.14-0.21,1.61-0.68c0.01,0.1,0.01,0.14,0.01,0.19c0.01,0.31,0.17,0.48,0.42,0.47
			c0.25-0.01,0.41-0.18,0.41-0.47C154.92,59.41,154.97,58.76,154.91,58.11z M152.65,59.82c-0.76-0.01-1.37-0.67-1.37-1.5
			c0.01-0.86,0.63-1.5,1.44-1.49c0.81,0.01,1.4,0.65,1.39,1.51C154.11,59.23,153.51,59.83,152.65,59.82z"/>
		<path class="st2" d="M123.86,58.31c0.01-1.64-1.68-2.74-3.25-1.97c-0.91,0.45-1.35,1.44-1.14,2.52c0.24,1.27,1.47,1.99,2.7,1.59
			c0.32-0.11,0.58-0.3,0.85-0.58c0.01,0.1,0.01,0.15,0.01,0.19c0.01,0.31,0.16,0.48,0.43,0.47c0.26-0.01,0.4-0.17,0.4-0.47
			C123.86,59.48,123.86,58.9,123.86,58.31z M121.62,59.82c-0.78,0-1.4-0.66-1.4-1.49c0-0.85,0.62-1.5,1.43-1.5
			c0.81,0,1.42,0.65,1.41,1.51C123.07,59.2,122.45,59.82,121.62,59.82z"/>
		<path class="st2" d="M169.28,58.62c0.46,0,0.91,0,1.37,0c0.48,0,0.95,0,1.43,0c0.26,0,0.4-0.14,0.4-0.4
			c0-0.14-0.02-0.28-0.04-0.41c-0.1-0.64-0.38-1.16-0.97-1.48c-0.82-0.44-1.93-0.26-2.58,0.41c-0.65,0.66-0.8,1.89-0.34,2.69
			c0.47,0.82,1.39,1.26,2.34,1.11c0.41-0.06,0.79-0.2,1.12-0.44c0.21-0.16,0.21-0.4,0.01-0.56c-0.16-0.12-0.32-0.11-0.48-0.01
			c-0.12,0.08-0.25,0.15-0.38,0.2c-0.84,0.33-1.76-0.06-2.05-0.86C169.03,58.63,169.03,58.62,169.28,58.62z M169.1,57.79
			c0.15-0.58,0.69-0.98,1.33-0.98c0.65,0,1.08,0.33,1.25,0.95c0.04,0.15,0.02,0.22-0.15,0.21c-0.38-0.01-0.76,0-1.14,0
			c-0.38,0-0.76,0-1.14,0C169.11,57.97,169.06,57.93,169.1,57.79z"/>
		<path class="st2" d="M138.82,56.14c-1.36,0.23-1.97,1.52-1.69,2.75c0.38,1.65,2.35,2.12,3.64,1.22c0.18-0.13,0.22-0.27,0.14-0.44
			c-0.09-0.17-0.29-0.25-0.48-0.19c-0.08,0.03-0.15,0.08-0.22,0.12c-0.89,0.56-2.06,0.16-2.35-0.78c-0.04-0.15-0.03-0.21,0.14-0.2
			c0.47,0.01,0.94,0,1.41,0c0.48,0,0.95,0,1.43,0c0.25,0,0.38-0.11,0.39-0.33C141.29,56.99,140.42,55.87,138.82,56.14z
			 M140.33,57.97c-0.39,0-0.79,0-1.18,0c-0.39,0-0.77,0-1.16,0c-0.08,0-0.16,0.01-0.13-0.12c0.14-0.55,0.59-1.04,1.34-1.04
			c0.66,0,1.15,0.4,1.27,1.02C140.5,57.97,140.43,57.97,140.33,57.97z"/>
		<path class="st2" d="M148.72,56.27c-0.79-0.35-1.86-0.17-2.43,0.42c-0.65,0.68-0.8,1.51-0.52,2.38c0.28,0.9,0.97,1.37,1.89,1.47
			c0.63,0.07,1.21-0.09,1.72-0.45c0.14-0.1,0.21-0.24,0.12-0.41c-0.09-0.17-0.24-0.24-0.43-0.21c-0.09,0.02-0.16,0.07-0.24,0.12
			c-0.89,0.58-2.11,0.18-2.37-0.78c-0.04-0.16-0.01-0.19,0.15-0.19c0.48,0.01,0.95,0,1.43,0c0.47,0,0.94,0,1.41,0
			c0.24,0,0.37-0.12,0.39-0.34C149.9,57.44,149.43,56.59,148.72,56.27z M148.86,57.97c-0.37,0-0.73,0-1.1,0c-0.39,0-0.79,0-1.18,0
			c-0.12,0-0.15-0.03-0.12-0.16c0.15-0.58,0.66-0.99,1.29-1.01c0.67-0.01,1.12,0.32,1.29,0.93
			C149.09,57.96,149.09,57.97,148.86,57.97z"/>
		<path class="st2" d="M194.47,56.1c-1.35,0-2.26,0.89-2.26,2.23c0,1.31,0.91,2.23,2.22,2.23c1.3,0.01,2.21-0.91,2.22-2.21
			C196.65,57.04,195.75,56.11,194.47,56.1z M194.94,59.74c-0.52,0.21-1.16,0.06-1.54-0.35c-0.67-0.71-0.5-2.23,0.69-2.52
			c0.94-0.23,1.76,0.45,1.76,1.47C195.84,59.01,195.52,59.51,194.94,59.74z"/>
	</g>
</g>
</svg>
