<?xml version="1.0" encoding="utf-8"?>
<!-- Generator: Adobe Illustrator 25.4.1, SVG Export Plug-In . SVG Version: 6.00 Build 0)  -->
<svg version="1.1" id="Layer_4" xmlns="http://www.w3.org/2000/svg" xmlns:xlink="http://www.w3.org/1999/xlink" x="0px" y="0px"
	 viewBox="0 0 88.67 80.27" style="enable-background:new 0 0 88.67 80.27;" xml:space="preserve">
<style type="text/css">
	.st0{fill-rule:evenodd;clip-rule:evenodd;fill:#00569F;}
</style>
<path class="st0" d="M75.33,52.16c0.11-1.06,0.17-2.15,0.17-3.24c0-12.91-7.89-23.99-19.11-28.68C55.34,8.72,50.36,0,44.38,0v0
	c-5.99,0-10.97,8.74-12.02,20.28c-11.17,4.71-19.01,15.76-19.01,28.64c0,1.05,0.05,2.1,0.16,3.13C3.43,58.59-2.17,67.48,0.79,72.86
	c2.96,5.37,13.44,5.4,24.32,0.41C30.42,77.48,37.13,80,44.42,80c7.27,0,13.96-2.5,19.25-6.69c10.85,4.94,21.26,4.9,24.21-0.45
	C90.83,67.51,85.3,58.68,75.33,52.16z M18.53,48.92c0-9.84,5.53-18.38,13.64-22.71c0.2,7.4,2,13.93,4.71,18.2l-0.29,0.5c0,0,0,0,0,0
	l-2.16,3.76l2.16-3.76c-4.95-0.45-11.49,1-18.07,4.27V48.92z M6.02,70.12c-1.86-3.38,4.12-10.26,13.38-15.35
	c5.3-2.92,10.52-4.62,14.36-4.9v0l-3.57,6.2h8.72c-1.93,3.41-6.63,7.58-12.77,10.95C16.9,72.11,7.88,73.5,6.02,70.12z M58.29,70.46
	L58.29,70.46c-4.04,2.64-8.86,4.18-14.05,4.18c-5.15,0-9.94-1.52-13.96-4.12c6.98-4.24,12.04-9.65,13.93-14.45h0.24
	C46.34,60.85,51.36,66.23,58.29,70.46L58.29,70.46L58.29,70.46z M39.3,50.88l5.16-8.97l5.24,8.97H39.3z M82.65,70.12
	c-1.86,3.38-10.87,1.99-20.12-3.11c-6.14-3.38-10.84-7.55-12.76-10.95h9.08l-3.61-6.17c0,0,0,0,0,0l-2.92-5c0,0,0,0,0,0l-0.36-0.61
	c0,0,0,0,0,0L49,39.24c0,0,0,0,0,0l-4.6-7.87l-4.45,7.73c0,0,0,0,0,0l-1.79,3.1l1.78-3.1c-1.49-3.51-2.44-8.7-2.44-14.5
	c0-10.56,3.13-19.12,6.99-19.12c3.86,0,7,8.56,7,19.12c0,5.88-0.97,11.14-2.5,14.64l2.95,5.05c2.65-4.24,4.41-10.66,4.63-17.93
	c0,0,0,0,0,0l0,0c0,0,0,0,0,0c7.97,4.37,13.38,12.84,13.38,22.57l0,0.17c-6.41-3.15-12.78-4.58-17.65-4.2l2.92,5
	c3.81,0.35,8.89,2.04,14.04,4.88C78.53,59.86,84.51,66.74,82.65,70.12z"/>
</svg>
