<?xml version="1.0" encoding="utf-8"?>
<!-- Generator: Adobe Illustrator 25.4.1, SVG Export Plug-In . SVG Version: 6.00 Build 0)  -->
<svg version="1.1" id="Layer_4" xmlns="http://www.w3.org/2000/svg" xmlns:xlink="http://www.w3.org/1999/xlink" x="0px" y="0px"
	 viewBox="0 0 394.62 80.27" style="enable-background:new 0 0 394.62 80.27;" xml:space="preserve">
<style type="text/css">
	.st0{fill-rule:evenodd;clip-rule:evenodd;fill:#00569F;}
</style>
<g id="layer1" transform="translate(-52.69087,-468.10367)">
	<path id="path3047" class="st0" d="M340.48,500.82l-7.94-9.3l-9.01,11.66h18.96L340.48,500.82L340.48,500.82z M410.09,538.5
		l5.83-0.21c0.27,0.97,0.91,1.77,1.92,2.39c1.01,0.62,2.58,1.12,4.7,1.51c2.12,0.38,4.51,0.58,7.16,0.58c2.36,0,4.43-0.15,6.24-0.43
		c1.8-0.29,3.15-0.69,4.03-1.2c0.88-0.51,1.33-1.06,1.33-1.66c0-0.61-0.42-1.14-1.28-1.59c-0.85-0.46-2.25-0.84-4.2-1.15
		c-1.26-0.2-4.02-0.52-8.32-0.95c-4.28-0.43-7.29-0.83-9.01-1.21c-2.23-0.48-3.89-1.09-4.99-1.81c-1.09-0.72-1.63-1.53-1.63-2.42
		c0-0.98,0.66-1.9,2-2.74c1.33-0.85,3.29-1.5,5.86-1.95c2.58-0.44,5.42-0.66,8.56-0.66c3.47,0,6.51,0.23,9.16,0.69
		c2.64,0.46,4.67,1.15,6.1,2.05c1.41,0.9,2.18,1.92,2.29,3.06l-5.92,0.19c-0.32-1.23-1.4-2.16-3.24-2.78
		c-1.84-0.63-4.54-0.94-8.13-0.94c-3.74,0-6.45,0.28-8.17,0.85c-1.7,0.57-2.56,1.26-2.56,2.05c0,0.7,0.61,1.28,1.81,1.73
		c1.2,0.45,4.29,0.91,9.32,1.38c5.02,0.47,8.47,0.89,10.34,1.24c2.72,0.53,4.73,1.18,6.02,1.98c1.3,0.8,1.94,1.72,1.94,2.76
		c0,1.03-0.71,2-2.13,2.92c-1.42,0.91-3.47,1.63-6.13,2.14c-2.66,0.5-5.66,0.76-8.99,0.76c-4.22,0-7.77-0.26-10.62-0.77
		c-2.86-0.51-5.1-1.28-6.73-2.31C411.03,540.97,410.17,539.8,410.09,538.5 M368.82,544.74v-19.42h33.75v2.29h-27.58v5.95h25.83v2.28
		h-25.83v6.61h28.66v2.29L368.82,544.74L368.82,544.74z M321.53,544.74v-19.42h6.34l24.52,15.25v-15.25h5.92v19.42h-6.34
		l-24.52-15.26v15.26H321.53z M304.53,525.32h6.17v19.42h-6.17V525.32z M266.95,544.74v-19.42h6.18v17.13h22.99v2.29H266.95z
		 M226.38,533.89h13.28c2.82,0,5.03-0.12,6.62-0.37c1.59-0.24,2.8-0.63,3.63-1.16c0.83-0.53,1.24-1.11,1.24-1.74
		c0-0.92-0.79-1.67-2.4-2.27c-1.6-0.59-4.13-0.89-7.6-0.89h-14.77V533.89z M220.2,544.74v-19.42h20.7c4.16,0,7.32,0.18,9.48,0.53
		c2.16,0.35,3.89,0.96,5.2,1.84c1.29,0.89,1.94,1.86,1.94,2.93c0,1.38-1.06,2.54-3.22,3.48c-2.14,0.95-5.46,1.55-9.93,1.8
		c1.64,0.32,2.88,0.65,3.73,0.97c1.8,0.68,3.51,1.55,5.13,2.58l8.12,5.29h-7.77l-6.17-4.04c-1.8-1.16-3.29-2.06-4.47-2.68
		c-1.16-0.62-2.21-1.05-3.13-1.3c-0.92-0.25-1.86-0.42-2.81-0.52c-0.71-0.06-1.85-0.09-3.45-0.09h-7.16v8.62H220.2L220.2,544.74z
		 M203.04,525.32h6.17v19.42h-6.17V525.32z M166.83,536.77h15.84l-4.88-5.37c-1.48-1.63-2.58-2.98-3.3-4.03
		c-0.6,1.25-1.43,2.48-2.52,3.71L166.83,536.77L166.83,536.77z M97.15,510.01l-5.16,8.97h10.4
		C102.39,518.98,97.15,510.01,97.15,510.01z M86.45,517.96c-3.84,0.28-9.06,1.99-14.36,4.9c-9.25,5.1-15.24,11.97-13.38,15.35
		c1.86,3.38,10.88,2,20.12-3.1c6.14-3.38,10.84-7.55,12.77-10.95h-8.72L86.45,517.96L86.45,517.96z M71.22,517.28
		c6.58-3.27,13.12-4.72,18.07-4.27l-2.16,3.76l2.45-4.26c-2.71-4.27-4.51-10.8-4.71-18.2c-8.12,4.32-13.64,12.87-13.64,22.71V517.28
		z M110.98,538.56c-6.94-4.23-11.95-9.61-13.84-14.4h-0.24c-1.9,4.8-6.95,10.21-13.93,14.45c4.02,2.61,8.81,4.12,13.96,4.12
		C102.12,542.74,106.95,541.2,110.98,538.56 M109.27,494.46c-0.22,7.27-1.98,13.69-4.63,17.93l-2.95-5.05
		c1.53-3.51,2.5-8.77,2.5-14.64c0-10.56-3.13-19.12-7-19.12c-3.86,0-6.99,8.56-6.99,19.12c0,5.8,0.95,11,2.44,14.5l-1.79,3.1
		l6.23-10.83l14.44,24.7h-9.08c1.92,3.41,6.63,7.58,12.76,10.95c9.25,5.1,18.26,6.48,20.12,3.11c1.86-3.38-4.12-10.26-13.38-15.36
		c-5.15-2.84-10.23-4.53-14.05-4.88l-2.92-5c4.87-0.38,11.24,1.05,17.65,4.2l0-0.17C122.66,507.29,117.24,498.83,109.27,494.46
		 M97.07,468.1c5.98,0,10.96,8.72,12.02,20.24c11.22,4.69,19.11,15.77,19.11,28.68c0,1.09-0.06,2.17-0.17,3.24
		c9.97,6.53,15.49,15.35,12.54,20.7c-2.95,5.35-13.36,5.39-24.21,0.45c-5.29,4.18-11.98,6.69-19.25,6.69
		c-7.3,0-14.01-2.52-19.31-6.74c-10.88,4.99-21.36,4.96-24.32-0.41c-2.96-5.38,2.64-14.27,12.71-20.81
		c-0.1-1.03-0.16-2.07-0.16-3.13c0-12.88,7.84-23.93,19.01-28.64C86.1,476.84,91.08,468.1,97.07,468.1 M153.36,544.74l17.93-19.42
		h6.65l19.11,19.42h-7.05l-5.44-5.88h-19.52l-5.12,5.88H153.36L153.36,544.74z M447.31,480.5v9.3h-2c-1.21-2.15-2.57-3.65-4-4.58
		c-1.5-1-3.51-1.72-6.08-2.29c-1.43-0.29-3.94-0.43-7.51-0.43h-5.73l0.14,11.09h0.07v7.73v7.73c0,1.72,0.21,2.86,0.64,3.29
		c0.43,0.43,1.29,0.79,2.58,1.15c1.22,0.36,2.94,0.5,5.15,0.5h2.58v0.93h-40.22v-0.93h2.58c2.22,0,4.01-0.14,5.37-0.5
		c1-0.29,1.72-0.65,2.29-1.29c0.43-0.36,0.64-1.43,0.64-3.15v-6.3l-0.21-20.25h-5.58c-5.15,0-8.87,0.5-11.24,1.43
		c-3.29,1.43-5.37,3.36-6.22,5.87h-2.15v-9.3H447.31L447.31,480.5z M317.37,504.61l20.96-24.54h0.93l13.59,15.89h0.07l6.58,7.8
		l3.51,4.15c2.22,2.65,4.08,4.3,5.51,4.94c1.14,0.58,2.65,0.86,4.65,0.93v0.93h-31.55v-0.93h1.29c2.5,0,4.29-0.21,5.3-0.57
		c0.71-0.21,1.07-0.64,1.07-1.15c0-0.29-0.07-0.57-0.28-0.93c-0.07-0.14-0.5-0.79-1.43-1.86l-3.43-4.22h-22.04h-1l-2.79,3.29
		c-0.86,1.07-1.36,2-1.36,2.72c0,1,0.79,1.64,2.22,2.15c0.86,0.21,3,0.43,6.44,0.57v0.93h-21.75v-0.93c2.36-0.21,4.29-0.71,5.8-1.5
		c1.5-0.86,3.36-2.58,5.58-5.15L317.37,504.61L317.37,504.61z M297.55,480.5v11.52h-2.15c-1.58-3-4.51-5.3-8.8-6.94
		c-4.22-1.58-9.09-2.36-14.53-2.36c-4.58,0-8.73,0.57-12.53,1.79c-3.79,1.22-6.51,2.72-8.3,4.65c-1.65,1.79-2.65,3.72-3.08,5.79
		h0.14c-0.14,0.79-0.21,1.58-0.21,2.43c0,2.93,0.79,5.65,2.43,8.08c1.64,2.43,4.22,4.3,7.73,5.51c3.51,1.29,8.09,1.86,13.6,1.86
		c4.58,0,8.8-0.43,12.59-1.36c3.79-0.93,7.8-2.43,12.02-4.72v2.86c-4.08,1.93-8.3,3.37-12.74,4.22c-4.37,0.86-9.52,1.29-15.46,1.29
		c-7.73,0-14.59-0.64-20.68-2.07c-5.3-1.29-9.59-3-12.74-5.3l-0.21,0.07c-0.43-0.29-0.79-0.58-1.14-0.86
		c-3.29-2.72-4.94-5.51-4.94-8.52c0-3.15,1.86-6.16,5.44-9.02c3.65-2.79,8.52-5,14.67-6.58c6.22-1.58,12.74-2.36,19.68-2.36
		c5.08,0,10.52,0.5,16.17,1.5c3.29,0.57,5.37,0.93,6.3,0.93c1.15,0,2.15-0.21,2.94-0.58c0.86-0.43,1.43-1,1.64-1.86L297.55,480.5
		L297.55,480.5z M216.04,480.5l0.79,11.09h-2.93c-1.36-2.79-4.79-5-10.23-6.72c-5.44-1.65-11.31-2.51-17.6-2.51
		c-4.86,0-8.73,0.43-11.59,1.29c-2.86,0.93-4.22,1.93-4.22,3.08c0,0.72,0.5,1.43,1.5,2c1.36,0.71,3.58,1.5,6.66,2.22
		c2.22,0.57,7.44,1.5,15.53,2.86c3,0.5,5.65,1,8.16,1.51h0.29c6.94,1.36,11.88,2.64,14.81,3.93c3.94,1.65,5.87,3.58,5.87,5.8
		c0,2.72-3.15,5.15-9.45,7.16c-2,0.57-4.15,1.14-6.51,1.57c-5.08,0.93-10.95,1.36-17.67,1.36c-3,0-5.94-0.07-8.66-0.29
		c-2.72-0.21-6.16-0.64-10.23-1.21c-2.36-0.29-4.22-0.43-5.65-0.43c-1.29,0-2.58,0.14-4,0.43c-1.36,0.36-2.51,0.86-3.37,1.5h-2.65
		v-4.65l-0.21,0.07v-7.87h0.21v-0.07h2.65c2.15,3.51,6.16,6.22,12.17,8.09c6.01,1.86,12.45,2.79,19.39,2.79
		c5.37,0,9.66-0.5,12.81-1.51c3.15-1,4.79-2.15,4.79-3.5c0-0.5-0.28-1-0.86-1.5l-0.21-0.07c-0.28-0.21-0.57-0.43-1-0.64
		c-1.22-0.72-3.08-1.43-5.58-2.07c-2.43-0.72-6.87-1.58-13.17-2.58c-8.8-1.5-15.17-2.79-19.04-3.79c-3.94-1.07-6.87-2.22-8.94-3.51
		c-2.08-1.29-3.15-2.72-3.15-4.29c0-2.65,2.86-4.87,8.52-6.73c5.72-1.86,12.88-2.79,21.54-2.79c3.15,0,6.23,0.14,9.16,0.43
		c2.29,0.14,5.01,0.5,8.23,1.07c3.22,0.5,5.51,0.79,6.8,0.79c1.21,0,2.22-0.14,2.93-0.43c0.72-0.21,1.36-0.86,2-1.86L216.04,480.5
		L216.04,480.5z"/>
</g>
</svg>
