<?xml version="1.0" encoding="utf-8"?>
<!-- Generator: Adobe Illustrator 25.4.1, SVG Export Plug-In . SVG Version: 6.00 Build 0)  -->
<svg version="1.1" id="Layer_1" xmlns="http://www.w3.org/2000/svg" xmlns:xlink="http://www.w3.org/1999/xlink" x="0px" y="0px"
	 viewBox="0 0 80.13 80" style="enable-background:new 0 0 80.13 80;" xml:space="preserve">
<style type="text/css">
	.st0{fill:#FFFFFF;}
	.st1{fill:#FAB31E;}
	.st2{fill:#FFD500;}
	.st3{fill:#004996;}
	.st4{fill:#CD1719;}
	.st5{fill:#008E5A;}
</style>
<path class="st0" d="M80.13,40c0,22.09-17.91,40-40,40s-40-17.91-40-40s17.91-40,40-40c0,0,0,0,0.01,0
	C62.22,0.01,80.13,17.91,80.13,40"/>
<path class="st1" d="M51.74,38.78c4.74,3.65,9.18,7.67,13.26,12.04c3.08-1.29,9.25-3.66,14.55-4.52c1.21-7.76,0.14-15.71-3.08-22.87
	L51.74,38.78"/>
<path class="st2" d="M66.08,70.39c2.55-2.19,4.82-4.69,6.74-7.46c1.94-2.76,3.53-5.74,4.73-8.89l-8.02,6.59L66.08,70.39"/>
<path class="st3" d="M58.77,59.78c-5.5-2.37-10.79-5.17-15.84-8.39l-5.95,28.46c7.82,0.63,15.65-1.07,22.51-4.87
	C58.49,69.68,58.63,63.08,58.77,59.78"/>
<path class="st4" d="M28.59,77.49c-1.08-1.36,0-28.6,0.29-35.7C15.25,31.47,6.44,20.36,7.01,17.42
	C-5.47,35.62-0.84,60.5,17.37,72.98c3.83,2.63,8.09,4.57,12.58,5.73C29.38,78.21,28.87,77.78,28.59,77.49"/>
<path class="st5" d="M37.91,28.89c6.53-2.72,31.76-13.12,33.41-12.47c0.57,0.25,1.12,0.53,1.65,0.86
	C60.42-0.89,35.53-5.46,17.36,7.08c-3.82,2.64-7.15,5.92-9.85,9.7C10.09,15.2,23.57,19.64,37.91,28.89"/>
</svg>
