<?xml version="1.0" encoding="utf-8"?>
<!-- Generator: Adobe Illustrator 25.4.1, SVG Export Plug-In . SVG Version: 6.00 Build 0)  -->
<svg version="1.1" xmlns="http://www.w3.org/2000/svg" xmlns:xlink="http://www.w3.org/1999/xlink" x="0px" y="0px"
	 viewBox="0 0 214.09 80" style="enable-background:new 0 0 214.09 80;" xml:space="preserve">
<style type="text/css">
	.st0{fill:#003D50;}
	.st1{fill:#D81939;}
</style>
<g id="Layer_2">
</g>
<g id="Layer_1">
	<g>
		<g>
			<g>
				<path class="st0" d="M146.05,39.16C91.52,67.24,37.8,84.36,11.97,79.03c-22.76-4.72-11.58-35.88,20.91-61.4h6.87
					C14.23,39.16,12.28,66.01,28.48,68.17c18.35,2.15,65.81-7.79,114.09-30.24L146.05,39.16z"/>
			</g>
		</g>
		<g>
			<g>
				<path class="st0" d="M202.84,0.51c1.54,0,3.08,0.31,4.41,0.62c0.92,0.31,1.23,0.31,2.15,0.92c0.31,0,0.61,0.31,0.92,0.62
					c0.61,0.31,0.31,0.62,0.61,0.92c0.31,1.23-0.31,2.15-0.92,3.08c-1.85,3.08-5.02,5.33-7.79,7.48c-3.08,2.46-6.25,4.41-9.33,6.56
					c-0.62,0.31-1.23,0.92-1.85,1.23c0.61,0.31,0.92,0.31,1.54,0.62l0,0c0,0,0.31,0.31,0.62,0.31c0.92-0.31,1.54-0.92,2.46-1.23
					c0.92-0.62,1.54-0.62,2.46-0.31c0.61,0.31,1.54,1.23,1.85,1.85c0.31,1.23,0.31,2.15-0.31,3.38c4.1,1.85,7.79,3.79,11.58,5.64
					c0.92,0.62,1.85,0.92,2.77,1.54c0.31,0.62-0.31,1.23-0.92,1.54c-1.54,0.62-2.77,1.85-4.41,1.85c-1.54-0.31-3.08-0.62-5.02-1.23
					c-2.46-0.62-5.02-1.23-7.48-1.54c-1.85-0.31-4.1-0.62-5.95-1.23c-1.54-0.31-2.77-0.62-4.41-0.62c-1.85-0.31-3.79-0.31-5.95-0.31
					c-2.46,0-4.72,0-7.18-0.31c-3.79,1.54-7.18,3.38-11.58,5.02c-2.77,0.92-5.33,1.85-8.1,2.77c0.92,1.23,2.15,1.54,2.77,3.08
					c0,0.31-0.31,0.31-0.31,0.31c-0.62,0.31-0.92,0.31-1.54,0.62c-2.77-0.62-5.33-1.23-8.1-2.15h-0.61c-1.23,0.31-3.08,1.54-4.41,0
					c0-0.31-0.31-0.62-0.31-1.23c0-0.31-0.31-0.31-0.61-0.62c-0.62-0.31-0.92-0.31-1.23-0.62c-0.92-0.31-1.54-0.62-2.46-0.92
					c-1.85-0.62-3.38-0.92-5.02-1.85c-0.31-0.31-0.62-0.62,0-1.23c0.92-0.62,2.46-1.23,3.79-0.62c1.23,0,2.77,0.31,3.79,0.31l0,0
					c-1.54-1.54-2.77-3.08-4.41-4.72c-0.31-0.31-0.61-0.62-0.61-1.23c0-0.31,0.31-0.62,0.61-0.92s0.62-0.31,0.92-0.31
					c1.23-0.62,1.54-0.92,2.46-0.62c2.77,1.23,5.02,2.15,8.1,3.38c0.62,0.31,1.23,0.62,1.85,0.62c0.92-0.31,1.23-0.62,1.85-0.92
					c0.31,0,1.23-0.62,1.54-0.92c0.92-0.62,1.85-1.23,2.46-1.54c1.85-1.23,2.77-1.85,4.41-2.77c-2.15-0.92-4.72-2.15-6.87-3.08
					c-2.46-0.62-3.08-0.92-5.33-1.54c-1.54-0.31-3.38-0.92-3.38-0.92c-3.08-0.62-3.79-0.92-6.56-1.54
					c-1.23-0.62-2.77-0.62-4.41-1.23c0-0.31,0-0.31,0-0.62c0.31-0.62,1.23-1.23,1.85-1.85c0.92-0.62,1.54-1.23,2.77-1.54
					c2.15,0,3.79,0.31,6.25,0.62c2.77,0.31,5.64,0.62,8.1,0.92c3.38,0.31,7.48,0.62,10.87,1.23c0.31,0,0.62,0.31,0.92,0
					c0.31,0.31,0.62,0,0.92,0.31c0.31,0,0.62,0,0.92,0c1.54-1.23,3.38-2.77,5.64-3.38c1.23,0,2.46,0.62,3.08,1.54
					c4.1-2.77,7.79-5.64,12.2-7.79c4.1-2.15,7.79-3.79,10.87-4.72c2.15-0.62,4.72-0.92,6.87-1.23
					C201.91,0.51,202.22,0.51,202.84,0.51"/>
			</g>
		</g>
		<g>
			<g>
				<path class="st1" d="M204.99,2.97c-1.85,0.31-3.08,0.62-5.33,1.54c-1.85,0.62-4.72,1.85-7.18,3.08
					c-3.38,1.54-6.25,3.38-9.94,5.64c-1.23,0.92-4.1,3.08-4.41,3.38c-2.15-0.31-4.1-0.31-6.25-0.62l0.31-0.31
					c2.77-2.15,5.02-3.79,8.1-5.33c2.46-1.54,6.56-3.79,9.64-5.02c2.77-1.23,5.95-2.15,9.02-2.46
					C201.61,2.36,203.45,2.36,204.99,2.97"/>
			</g>
		</g>
		<g>
			<g>
				<path class="st1" d="M164.81,16.71c0.61-0.31,0.92-0.62,1.54-0.92c0.62-0.31,0.92-0.62,1.23-0.62c-0.31,0.92-0.31,1.23,0,2.15
					c0,0.62,0.62,0.92,0.62,1.23c-1.23,0.92-2.46,1.54-3.79,2.46c-0.31-0.31-0.61-0.62-0.61-1.23c-0.31-0.92,0-1.54,0.31-2.46
					L164.81,16.71z"/>
			</g>
		</g>
		<g>
			<g>
				<path class="st1" d="M162.55,26.96c-1.54,0.92-3.08,1.85-4.72,2.46c-3.08,1.54-6.56,3.38-11.28,5.64
					c-1.23,0.62-2.46,0.92-3.79,0.62c-0.92,0-0.92,0-1.85-0.31c-1.54-1.54-3.38-3.38-5.02-5.02c-0.31-0.31-0.62-0.62-0.62-0.92
					l0.92-0.62h0.31c2.46,0.92,4.1,1.85,6.56,3.08c0.92,0.31,1.85,0.92,2.77,1.23c0.92,0,1.85-0.31,2.77-0.62l0.62-0.31
					c1.23-0.92,1.85-1.23,2.46-1.54c2.46-1.54,4.72-2.77,7.18-4.41l0.61-0.31C160.71,26.34,161.32,26.65,162.55,26.96"/>
			</g>
		</g>
	</g>
</g>
</svg>
