<?xml version="1.0" encoding="utf-8"?>
<!-- Generator: Adobe Illustrator 25.4.1, SVG Export Plug-In . SVG Version: 6.00 Build 0)  -->
<svg version="1.1" xmlns="http://www.w3.org/2000/svg" xmlns:xlink="http://www.w3.org/1999/xlink" x="0px" y="0px"
	 viewBox="0 0 347.45 80" style="enable-background:new 0 0 347.45 80;" xml:space="preserve">
<style type="text/css">
	.st0{fill:#003D50;}
	.st1{fill:#D81939;}
</style>
<g id="Layer_2">
</g>
<g id="Layer_1">
	<g>
		<g>
			<path class="st0" d="M347.4,53.86c-0.52-0.35-1.04-0.53-1.56-0.87c-2.14-1.04-4.23-2.15-6.55-3.19c0.35-0.69,0.35-1.21,0.18-1.91
				c-0.18-0.35-0.7-0.87-1.04-1.04c-0.53-0.17-0.87-0.17-1.39,0.17c-0.53,0.18-0.87,0.52-1.39,0.7c-0.18,0-0.35-0.18-0.35-0.18
				c-0.35-0.17-0.52-0.17-0.87-0.34c0.35-0.18,0.69-0.52,1.04-0.7c1.74-1.21,3.53-2.31,5.27-3.7c1.57-1.22,3.36-2.49,4.4-4.23
				c0.35-0.52,0.7-1.04,0.52-1.74c-0.17-0.17,0-0.35-0.34-0.52c-0.18-0.17-0.35-0.35-0.52-0.35c-0.53-0.35-0.7-0.35-1.22-0.52
				c-0.75-0.17-1.62-0.35-2.49-0.35c-0.35,0-0.52,0-0.12-0.29c-1.21,0.18-2.66,0.35-3.88,0.7c-1.73,0.52-3.82,1.45-6.13,2.66
				c-2.5,1.22-4.58,2.84-6.9,4.4c-0.34-0.52-1.04-0.86-1.73-0.86c-1.28,0.34-2.32,1.21-3.19,1.91h-0.52c-0.17-0.18-0.35,0-0.52-0.18
				c-0.17,0.18-0.35,0-0.52,0c-1.91-0.35-4.23-0.52-6.14-0.69c-1.39-0.18-3.01-0.35-4.58-0.52c-1.39-0.18-2.31-0.35-3.53-0.35
				c-0.69,0.17-1.04,0.52-1.56,0.87c-0.35,0.34-0.87,0.69-1.04,1.04c0,0.17,0,0.17,0,0.35c0.92,0.34,1.79,0.34,2.49,0.69
				c1.56,0.35,1.97,0.52,3.7,0.87c0,0,1.04,0.35,1.91,0.52c1.28,0.35,1.62,0.52,3.01,0.87c1.22,0.52,2.67,1.22,3.88,1.74
				c-0.92,0.52-1.44,0.87-2.49,1.56c-0.34,0.18-0.86,0.52-1.39,0.87c-0.17,0.17-0.69,0.52-0.86,0.52c-0.35,0.18-0.53,0.35-1.05,0.52
				c-0.34,0-0.69-0.17-1.04-0.34c-1.74-0.7-3.01-1.22-4.57-1.92c-0.52-0.17-0.7,0-1.39,0.35c-0.18,0-0.35,0-0.52,0.18
				c-0.18,0.17-0.35,0.34-0.35,0.52c0,0.34,0.17,0.52,0.35,0.69c0.92,0.93,1.62,1.8,2.49,2.67c-0.58,0-1.45-0.18-2.15-0.18
				c-0.75-0.35-1.62,0-2.14,0.35c-0.35,0.35-0.17,0.52,0,0.69c0.93,0.53,1.8,0.7,2.84,1.05c0.52,0.17,0.87,0.34,1.39,0.52
				c0.1,0.1,0.21,0.14,0.36,0.2c-26.64,12.09-52.48,17.43-62.62,16.24c-9.15-1.21-8.04-16.38,6.37-28.55h-3.88
				c-18.35,14.42-24.66,32.03-11.81,34.69c14.14,2.92,43.09-6.08,72.91-21.08c0.74,0.69,1.71,0.05,2.37-0.11h0.35
				c1.56,0.52,3.01,0.87,4.58,1.21c0.34-0.17,0.52-0.17,0.86-0.34c0,0,0.18,0,0.18-0.18c-0.35-0.87-1.04-1.04-1.56-1.74
				c1.56-0.52,3.01-1.04,4.57-1.56c2.49-0.93,4.4-1.97,6.54-2.84c1.39,0.18,2.67,0.18,4.06,0.18c1.21,0,2.31,0,3.36,0.17
				c0.92,0,1.62,0.17,2.49,0.35c1.04,0.35,2.31,0.52,3.36,0.69c1.38,0.18,2.83,0.52,4.22,0.87c1.1,0.35,1.97,0.52,2.84,0.7
				c0.93,0,1.62-0.7,2.49-1.05C347.23,54.55,347.58,54.2,347.4,53.86z M315.67,51.42c-1.74,0.87-3.71,1.91-6.37,3.19
				c-0.7,0.35-1.39,0.52-2.15,0.35c-0.52,0-0.52,0-1.04-0.18c-0.87-0.87-1.91-1.91-2.84-2.83c-0.17-0.18-0.34-0.35-0.34-0.53
				l0.52-0.34h0.17c1.39,0.52,2.32,1.04,3.71,1.73c0.52,0.18,1.04,0.53,1.56,0.7c0.52,0,1.04-0.17,1.56-0.35l0.35-0.17
				c0.7-0.52,1.04-0.7,1.39-0.87c1.39-0.87,2.67-1.56,4.06-2.49l0.34-0.17c0.7,0.23,1.05,0.4,1.74,0.57
				C317.46,50.56,316.59,51.08,315.67,51.42z"/>
			<path class="st0" d="M318.33,50.03c-0.87,0.53-1.74,1.05-2.66,1.39c-1.74,0.87-3.71,1.91-6.37,3.19
				c-0.7,0.35-1.39,0.52-2.15,0.35c-0.52,0-0.52,0-1.04-0.18c-0.87-0.87-1.91-1.91-2.84-2.83c-0.17-0.18-0.34-0.35-0.34-0.53
				l0.52-0.34h0.17c1.39,0.52,2.32,1.04,3.71,1.73c0.52,0.18,1.04,0.53,1.56,0.7c0.52,0,1.04-0.17,1.56-0.35l0.35-0.17
				c0.7-0.52,1.04-0.7,1.39-0.87c1.39-0.87,2.67-1.56,4.06-2.49l0.34-0.17C317.29,49.69,317.64,49.86,318.33,50.03z"/>
		</g>
	</g>
	<g>
		<g>
			<path class="st1" d="M342.31,36.48c-1.04,0.17-1.74,0.35-3.01,0.87c-1.04,0.35-2.66,1.04-4.05,1.74
				c-1.91,0.87-3.53,1.91-5.62,3.19c-0.69,0.52-2.32,1.74-2.49,1.91c-1.22-0.17-2.32-0.17-3.53-0.35l0.17-0.17
				c1.56-1.22,2.84-2.14,4.57-3.01c1.39-0.87,3.71-2.14,5.44-2.84c1.56-0.69,3.36-1.22,5.1-1.39
				C340.39,36.14,341.44,36.14,342.31,36.48L342.31,36.48z"/>
		</g>
	</g>
	<g>
		<g>
			<path class="st1" d="M319.6,44.24c0.35-0.17,0.52-0.35,0.87-0.52c0.35-0.17,0.52-0.35,0.69-0.35c-0.17,0.52-0.17,0.69,0,1.22
				c0,0.35,0.35,0.52,0.35,0.69c-0.69,0.52-1.39,0.87-2.14,1.39c-0.17-0.17-0.35-0.35-0.35-0.69c-0.17-0.52,0-0.87,0.17-1.39
				L319.6,44.24z"/>
		</g>
	</g>
	<g>
		<g>
			<path class="st1" d="M318.33,50.03c-0.87,0.53-1.74,1.05-2.66,1.39c-1.74,0.87-3.71,1.91-6.37,3.19
				c-0.7,0.35-1.39,0.52-2.15,0.35c-0.52,0-0.52,0-1.04-0.18c-0.87-0.87-1.91-1.91-2.84-2.83c-0.17-0.18-0.34-0.35-0.34-0.53
				l0.52-0.34h0.17c1.39,0.52,2.32,1.04,3.71,1.73c0.52,0.18,1.04,0.53,1.56,0.7c0.52,0,1.04-0.17,1.56-0.35l0.35-0.17
				c0.7-0.52,1.04-0.7,1.39-0.87c1.39-0.87,2.67-1.56,4.06-2.49l0.34-0.17C317.29,49.69,317.64,49.86,318.33,50.03z"/>
		</g>
	</g>
	<g>
		<g>
			<g>
				<path class="st1" d="M0,9.56h9.67v2.49c4.75-4.23,10.94-4.23,14.82-1.74c4.23,2.66,4.23,6.72,4.23,11.29v13.55h-9.67V24.38
					c0-2.49,0.17-5.62-2.32-7.24c-1.04-0.87-3.36-0.87-4.75,0.17C9.5,19.05,9.84,21.2,9.84,24.9v10.19H0L0,9.56L0,9.56z"/>
			</g>
		</g>
	</g>
	<g>
		<g>
			<g>
				<path class="st1" d="M40.19,10.77c-4.05,2.32-6.14,5.62-6.72,9.84c-0.35,3.36,0.35,7.41,3.19,10.37
					c5.1,5.27,14.07,5.44,19.23,3.71c4.23-1.39,7.76-3.88,9.15-9.32c0.87-3.53,0.52-7.24-1.74-10.77
					c-4.23-6.14-12.86-6.72-16.39-6.14C44.76,8.98,42.27,9.56,40.19,10.77L40.19,10.77z M47.95,15.52c1.56-0.35,4.05,0,5.44,1.74
					c1.39,1.56,1.91,4.05,1.74,5.79s-1.22,3.71-3.19,4.75c-1.74,0.87-4.23,0.87-5.96-0.35c-1.56-1.04-2.49-3.01-2.66-4.92
					c0-1.74,0.35-3.88,2.14-5.62C46.5,16.04,47.2,15.87,47.95,15.52L47.95,15.52z"/>
			</g>
		</g>
	</g>
	<g>
		<g>
			<g>
				<path class="st1" d="M115.59,21.31c0,0.52-0.17,0.87-0.87,2.49l-3.71,11.29h-10.02L91.5,9.56h10.77l3.36,10.77
					c0.52,1.91,0.69,2.32,0.69,3.01c0-0.52,0.17-1.04,0.69-3.01l3.36-10.77h10.6l3.36,10.77c0.52,1.91,0.69,2.32,0.69,3.01
					c0-0.52,0.17-1.04,0.69-3.01l3.36-10.77h10.77l-9.67,25.54h-10.02l-3.53-11.12C115.76,22.24,115.76,21.89,115.59,21.31
					L115.59,21.31z"/>
			</g>
		</g>
	</g>
	<g>
		<g>
			<g>
				<path class="st1" d="M169.85,13.44c-4.57-5.27-14.07-5.44-18.47-4.23c-4.23,1.22-7.76,3.71-9.32,9.15
					c-1.04,4.05-0.69,7.93,1.74,11.47c4.57,6.54,13.38,6.14,17.6,5.62c3.19-0.52,8.98-2.32,11.12-7.93l0.17-0.17l-9.73-1.04
					c-0.35,0.35-0.52,0.69-1.56,1.56c-1.56,1.22-5.1,1.04-6.54,0.52c-1.56-0.69-3.01-2.66-3.19-3.88h21.72v-0.52
					C173.38,20.62,172.28,16.39,169.85,13.44L169.85,13.44z M163.13,19.05h-11.64c0.87-2.84,2.49-3.71,4.4-4.05
					C158.04,14.65,161.57,15.17,163.13,19.05L163.13,19.05z"/>
			</g>
		</g>
	</g>
	<g>
		<g>
			<g>
				<path class="st1" d="M178.83,36.48c0.17,1.91,0.69,3.19,0.87,3.71c2.49,4.4,6.89,5.27,12.33,5.27s9.67-0.35,12.86-4.05
					c2.84-3.36,2.49-7.41,2.49-11.29V9.84h-9.67v2.32c-2.14-2.14-4.4-2.84-6.14-3.01c-3.53-0.52-8.45,0.69-11.47,4.57
					c-2.49,3.19-2.84,7.76-2.49,10.94c0.52,3.88,2.66,6.72,6.14,8.63c3.88,2.14,10.19,1.56,13.72-1.39c0,1.04,0,3.36-0.35,4.4
					c-0.69,1.56-2.14,2.14-3.19,2.32c-1.04,0.17-3.88,0.69-4.92-1.22c-0.17-0.35-0.35-0.52-0.35-0.87
					C188.67,36.48,178.83,36.48,178.83,36.48z M191.16,17.26c1.22-0.35,4.05-0.17,5.44,1.39c0.87,0.87,1.39,2.14,1.22,3.36
					c-0.17,1.04-0.69,2.49-1.74,3.19c-1.56,1.04-4.4,1.04-5.96,0.17c-1.22-0.69-2.14-1.56-2.32-3.01c-0.17-0.87,0-2.49,0.87-3.53
					C189.37,18.01,190.12,17.66,191.16,17.26L191.16,17.26z"/>
			</g>
		</g>
	</g>
	<g>
		<g>
			<g>
				<path class="st1" d="M212.82,9.56h9.67v25.54h-9.67V9.56z M212.82,0h9.67v6.54h-9.67V0z"/>
			</g>
		</g>
	</g>
	<g>
		<g>
			<g>
				<path class="st1" d="M238.18,16.74c0.17-0.69,0.52-1.04,1.04-1.56c1.22-1.04,5.96-0.69,7.24-0.17c1.39,0.69,1.74,1.74,1.91,3.53
					c0,0-3.01-0.17-5.1-0.17c-2.49,0.17-3.53,0.17-5.62,0.52c-4.23,0.52-8.45,1.22-9.5,6.37c-0.69,3.53,0.35,6.72,3.71,8.8
					l0.35,0.17c4.92,2.14,11.12,1.39,16.56-1.74c0,0,0,1.56,0.35,2.32h11.29c-1.22-1.04-1.74-2.84-1.74-5.27V18.59
					c0-2.14,0.17-4.92-1.22-6.54c-2.32-3.01-6.54-3.71-13.9-3.71c-5.96,0-10.02,0.35-12.33,3.36c-1.04,1.56-1.39,2.84-1.39,4.75
					h8.45L238.18,16.74L238.18,16.74z M248.09,23.8c-0.87,3.36-2.84,4.4-5.27,4.75c-1.39,0.17-3.71,0.35-4.75-1.56
					c-0.17-0.35-0.35-1.39-0.17-1.74c0.69-1.39,1.91-1.22,5.1-1.39L248.09,23.8L248.09,23.8z"/>
			</g>
		</g>
	</g>
	<g>
		<g>
			<g>
				<path class="st1" d="M265.17,9.56h9.67v2.49c4.75-4.23,10.94-4.23,14.82-1.74c4.23,2.66,4.23,6.72,4.23,11.29v13.55h-9.67V24.38
					c0-2.49,0.17-5.62-2.32-7.24c-1.22-0.69-3.71-0.69-4.92,0.35c-2.49,1.74-2.14,3.88-2.14,7.59v10.19h-9.67L265.17,9.56
					L265.17,9.56z"/>
			</g>
		</g>
	</g>
	<g>
		<g>
			<g>
				<path class="st1" d="M86.69,9.21v9.84c-3.01,0-4.92,0.35-6.89,1.74v14.25h-9.67V9.5h9.67v3.01c0.52-0.87,1.74-1.91,3.36-2.66
					C83.68,9.56,85.48,9.21,86.69,9.21L86.69,9.21z"/>
			</g>
		</g>
	</g>
</g>
</svg>
