<?xml version="1.0" encoding="utf-8"?>
<!-- Generator: Adobe Illustrator 25.2.1, SVG Export Plug-In . SVG Version: 6.00 Build 0)  -->
<svg version="1.1" id="Layer_1" xmlns="http://www.w3.org/2000/svg" xmlns:xlink="http://www.w3.org/1999/xlink" x="0px" y="0px"
	 viewBox="0 0 298.42 80" style="enable-background:new 0 0 298.42 80;" xml:space="preserve">
<style type="text/css">
	.st0{fill:#0A6D8B;}
	.st1{fill:#FED428;}
	.st2{fill:#F6821D;}
	.st3{opacity:0.53;fill:#FFFFFF;}
	.st4{fill:#EE2A81;}
	.st5{fill:#B5208D;}
	.st6{fill:#6F2D91;}
	.st7{fill:#4B449A;}
	.st8{fill:#026CB6;}
	.st9{fill:#0287D0;}
	.st10{fill:#02B5F1;}
</style>
<g>
	<g>
		<path class="st0" d="M161.61,38.07c-0.8-0.01-0.79-0.61-0.85-1.16c-0.15-1.43-0.23-2.87-0.88-4.2c-0.12-0.33-0.18-0.7-0.57-0.86
			c-1.33-0.98-2.67-0.21-4-0.03c-0.85,0.12-1.74-0.18-2.54,0.31c-1.25-0.14-2.43,0.36-3.72,0.37c2.33-2.91,4.36-6.15,8.65-6.4
			c0.37-0.02,0.74-0.16,1.11-0.25c1.27-0.32,1.5-1.35,1.56-2.41c0.06-1.15-0.92-1.12-1.68-1.29c-0.65-0.15-1.3-0.16-1.97-0.04
			c-1.95,0.36-3.92,0.66-5.88,0.99c-1.16,0.2-2.07,0.89-2.9,1.64c-0.61,0.55-0.74,1.32-0.31,2.08c0.4,0.69,1.03,0.47,1.64,0.37
			c1.22-0.2,2.46-0.36,3.69-0.53c0.06,0.11,0.13,0.23,0.19,0.34c-1.94,1.23-3.07,3.26-4.94,4.56c-1.91,1.57-3.2,3.53-3.69,5.97
			c-0.46,1.66-1.25,2.95-3.25,2.87c-0.13,0-0.26,0.11-0.39,0.17c-1.21,0.54-1.28,1.63-1.04,2.65c0.3,1.27,1.16,0.03,1.73,0.23
			c0.12,0.04,0.28-0.02,0.42-0.05c0.87-0.22,1.27,0.07,1.14,1c-0.24,1.7,0.69,2.75,2.01,3.59c0.97,0.61,2.04,0.67,3.14,0.67
			c2.1-0.02,4.2-0.01,6.26-0.01c-0.13,0.2-0.36,0.5-0.53,0.83c-0.22,0.43-0.39,0.9,0.04,1.3c0.44,0.42,0.79,0.1,1.23-0.13
			c3.16-1.7,4.97-4.29,5.35-7.85c0.08-0.72,0.4-0.92,1.11-0.94c1.12-0.02,2.29-1.39,2.12-2.48C163.65,38.1,162.71,37.9,161.61,38.07
			z M146.83,45.74c-0.76-0.06-1.34-0.44-1.58-1.21c-0.24-0.77-0.24-1.38,0.83-1.45c0.65-0.04,1.29-0.26,1.94-0.37
			c0.58-0.1,1.06,0.06,1.16,0.71c0.15,0.91,0.76,1.47,1.71,2.2C149.34,45.86,148.08,45.84,146.83,45.74z M150.26,38.48
			c0.27,0.7-0.14,0.61-0.46,0.66c-1.08,0.16-2.16,0.26-3.24,0.42c-0.98,0.14-1.05-0.27-0.69-1.02c0.24-0.51,0.45-1.04,0.68-1.55
			c0.07-0.09,0.15-0.15,0.24-0.19c0.31-0.15,0.72-0.04,1.03-0.21c0.05-0.03,0.11-0.07,0.15-0.12c1.06-0.52,2.18-0.73,3.36-0.67
			c0.05,0.01,0.1,0.02,0.14,0.03c0.06,0.01,0.12,0.03,0.18,0.04c0.3-0.13,0.65-0.03,0.97-0.08c0.16-0.02,0.32-0.09,0.45-0.24
			c1.49-0.31,2.98-0.66,4.53-0.56c0.01-0.01,0.01-0.02,0.02-0.03c0,0.01,0,0.02,0,0.03c0.18,0.13,0.37,0.27,0.55,0.4
			c0.08,0.06,0.16,0.12,0.24,0.18c0.22,0.77,1.11,1.32,0.93,2.23c-0.02,0.08-0.04,0.17-0.08,0.26c-1.64,0.49-3.32,0.59-5.01,0.52
			c-0.21-0.01-0.41-0.33-0.62-0.5c0.03-0.08,0.05-0.15,0.07-0.22c0.23-0.93-0.41-1.37-1.17-1.74c0,0-0.01-0.01-0.01-0.01
			c-0.02,0.01-0.03,0.01-0.05,0.02c-0.18,0.07-0.37,0.13-0.55,0.2c-0.05,0.02-0.09,0.03-0.14,0.05c-0.05,0.02-0.1,0.04-0.15,0.05
			C150.29,36.53,149.82,37.33,150.26,38.48z M158.48,44.59c-2.09,0.28-4.07,1.33-6.34,0.97c0.29-1.1,1.31-2.09-0.39-3.04
			c1.29-0.36,2.28-0.55,3.32-0.46c0.9,0.08,1.79,0.03,2.68-0.18c0.55-0.13,1.41-0.52,1.51,0.38
			C159.37,43.08,159.44,44.46,158.48,44.59z"/>
		<path class="st0" d="M234.86,26c-0.42-1.93-0.79-2.25-2.75-2.35c-2.23-0.12-4.45,0.15-6.68,0.29c-0.46,0.35-0.98,0.24-1.49,0.19
			c-2.03,0.22-3.99,0.79-5.96,1.3c-0.46,0.12-1.09,0.4-1.36,0.09c-0.92-1.02-1.5-0.2-2.14,0.27c-1.04,0.76-1.97,1.63-2.62,2.76
			c-0.65,1.14-0.8,2.31-0.2,3.52c0.26,0.51,0.52,1.1,1.17,1.1c0.75,0,0.8-0.68,0.92-1.23c0.43-1.99,1.43-3.17,3.67-3.44
			c5-0.6,9.98-1.43,15.16-1.48c-0.39,1.25-1.5,1.77-2.15,2.88c0.88-0.35,1.35-0.09,1.69,0.63c0.3,0.62,0.76,0.5,1.29,0.13
			C235.11,29.47,235.26,27.83,234.86,26z"/>
		<path class="st0" d="M200.22,41.48c-0.56-0.12-1.14-0.12-1.57-0.55c-0.16-0.48,0.02-1.08-0.55-1.62
			c-0.09,0.98-0.09,1.77,0.22,2.55c0,0,0,0,0,0c-0.07,0.87,0.19,1.69,0.37,2.52c0.25,1.15-0.03,1.96-1.28,2.24
			c-1.51,0.35-2.7-0.17-3-1.36c-0.42-1.62-0.15-3.19,0.45-4.72c0.19-0.48,0.39-0.97,0.45-1.48c0.19-1.62-0.51-2.23-2.08-1.81
			c-0.73,0.2-1.43,0.49-2.15,0.75c-0.21,0.07-0.49,0.32-0.63,0.07c-0.96-1.59-1.48-0.09-1.91,0.37c-0.6,0.65-0.82,1.58-1.04,2.46
			c-0.63,2.61-1.96,4.8-4.04,6.52c-0.75,0.62-1.39,1.34-1.82,2.23c0.37,0.17,0.58-0.01,0.82-0.17c2.26-1.51,4.2-3.39,5.73-5.6
			c0.8-1.16,1.82-1.88,2.97-2.53c0.79-0.45,1.02-0.23,0.92,0.62c-0.16,1.36-0.31,2.73-0.18,4.11c0.31,3.18,3.24,4.59,6.13,3.14
			c2.44-1.22,2.94-3.59,3.72-5.76C202.14,42.4,201.27,41.7,200.22,41.48z"/>
		<path class="st0" d="M186.84,36.03c0.28-0.03,0.55-0.13,0.82-0.2c2.93-0.69,5.58-2.29,8.63-2.62c0.81-0.09,1.26-0.98,1.34-1.82
			c0.09-0.82-0.56-1.14-1.2-1.36c-0.44-0.15-0.92-0.2-1.28-0.27c-0.39,0.03-0.67,0.04-0.95,0.07c-3.11,0.36-5.82,1.76-8.46,3.32
			c-0.64,0.38-1.09,0.93-0.79,1.76C185.26,35.81,185.93,36.15,186.84,36.03z"/>
		<path class="st0" d="M140.93,38.2c-1.4,1.09-2.24,2.56-3.17,3.95c-0.38,0.57-0.71,0.98-1.47,0.59c-0.8-0.41-1.2,0.05-1.51,0.76
			c-0.84,1.93-0.46,3.49,1.2,4.94c0.72,0.62,1.56,0.69,2.22,0.2c0.69-0.51,1.3-1.47,0.92-2.27c-0.88-1.82-0.27-3.42,0.37-5.04
			C139.92,40.26,140.45,39.24,140.93,38.2z"/>
		<path class="st0" d="M137.86,28.12c0.66,0.03,1.17,0.08,1.65,0.31c0.49,0.24,1.01,0.15,1.5-0.12c1.19-0.67,1.88-3.07,1.24-4.32
			c-0.43-0.84-2.17-1.24-3.2-0.74c-0.84,0.41-1.67,2.1-1.11,2.64C138.77,26.7,138.49,27.3,137.86,28.12z"/>
		<path class="st0" d="M144.46,27.28c1.52-1.82,3.44-3.23,5.1-4.9c0.4-0.41,0.81-0.85,1.44-0.77c1.01,0.13,1.22-0.75,1.67-1.28
			c0.29-0.34-0.02-0.72-0.31-0.98c-0.65-0.57-1.38-0.53-2.12-0.19c-0.21,0.1-0.42,0.22-0.6,0.37c-2.69,2.23-4.3,5.26-6.25,8.04
			c0.11,0.1,0.22,0.2,0.33,0.3C143.97,27.68,144.26,27.52,144.46,27.28z"/>
		<path class="st0" d="M218.02,32.18c-0.45,0.26-0.88,0.54-1.31,0.83c-1.15,0.76-1.22,3.64-0.05,4.35c0.86,0.53,2.01,0.72,2.48-0.32
			c0.65-1.45,1.7-2.42,2.95-3.29c-0.06-0.11-0.12-0.22-0.18-0.33c-0.68,0.07-1.35,0.16-2.03,0.19c-0.64,0.03-1.24,0.06-0.99-0.97
			C219.06,31.89,218.53,31.88,218.02,32.18z"/>
		<path class="st0" d="M223.98,23.89c0.06,0.04,0.12,0.06,0.18,0.08c0.22,0.07,0.4,0.02,0.58-0.08c0.14-0.08,0.27-0.18,0.41-0.27
			c2.02-1.28,2.29-3.14,0.67-4.49c-0.91-0.77-1.89-0.65-2.74-0.02c-1,0.74-0.26,2.12-0.91,3.04
			C223.02,22.47,223.2,23.5,223.98,23.89z"/>
		<path class="st0" d="M190.6,26.88c0.42-0.43,0.63-1.27,1.26-1.25c1.39,0.05,1.92-0.97,2.52-1.83c0.54-0.77,0.52-1.71,0.02-2.53
			c-0.34-0.55-0.97-0.96-1.57-0.54c-0.78,0.54-2.49,0.46-2.15,1.82c0.52,2.09-0.65,3.56-1.33,5.3
			C190.11,27.92,190.25,27.25,190.6,26.88z"/>
		<path class="st0" d="M225.13,36.39L225.13,36.39c-0.33,0.15-0.66,0.31-0.74,0.74c0.46,0.09,0.8-0.11,1.11-0.4l0,0
			c1.58-1.29,3.87-1.29,5.31-2.87c0.73-0.81,0.78-1.88,0.04-2.46c-0.78-0.61-2.87-0.58-3.32,0.05c-0.22,0.31-0.21,0.64-0.01,0.92
			c0.54,0.76,0.15,1.31-0.36,1.86C226.47,34.94,225.8,35.67,225.13,36.39z"/>
		<path class="st0" d="M135.68,36.39c0.46-0.04,0.85-0.21,1.13-0.59c0.47-0.35,1.25-0.49,1.18-1.26c-0.12-1.21-0.21-2.45-0.72-3.56
			c-0.48-1.05-1.38-1.1-2.11-0.18c-0.83,1.04-1.5,2.17-1.45,3.58c0.03,0.49-0.2,1.03,0.25,1.44
			C134.37,36.54,135.02,36.49,135.68,36.39z"/>
		<path class="st0" d="M121.74,45.21c-1.19-0.73-2.55-1-3.85-1.44c-2.06-0.7-4.14-1.36-5.85-2.99c0.89-0.45,2.07-0.43,2.37-1.3
			c0.34-0.97,0.99-1.61,1.67-2.22c1.95-1.75,2.52-4.05,2.75-6.5c0.14-1.46-0.51-2.27-1.98-2.64c-1.38-0.35-2.73-0.02-4.1,0.06
			c-0.43,0.03-1.38,0.86-1.31-0.39c0.05-0.88-0.8-2.3,1.09-2.48c1.27-0.12,2.53-0.41,3.8-0.55c0.94-0.1,1.59-0.4,1.46-1.47
			c-0.13-1.1-0.88-1.36-1.86-1.22c-1.03,0.14-2.1,0.18-3.09,0.46c-1.39,0.39-1.89,0.14-1.55-1.39c0.17-0.77,0.03-1.86-0.87-2.02
			c-0.97-0.17-1.57,0.7-1.89,1.61c-0.11,0.3-0.21,0.68-0.12,0.97c0.44,1.53-0.42,1.81-1.68,2.02c-1.39,0.24-2.88,0.05-4.18,0.74
			c-0.74,0.39-1.43,0.96-1.12,1.89c0.32,0.93,1.16,0.55,1.84,0.45c1.6-0.24,3.18-0.72,4.9-0.63c-0.24,0.76-1,0.6-1.33,1.02
			c0.28,0.46,1.26-0.4,1.19,0.65c-0.05,0.73,0.07,1.51-1.02,1.71c-1.51,0.28-2.9,0.97-4.31,1.56c-0.22-0.63,0.55-0.86,0.3-1.5
			c-1.7,0.59-3.11,1.47-3.43,3.35c-0.34,1.99-0.12,3.91,1.68,5.24c0.71,0.52,1.37,0.94,1.05,2.03c-0.17,0.59,0.25,1.11,0.8,1.38
			c0.7,0.34,0.62,0.66,0.11,1.11c-1.31,1.16-2.62,2.33-3.91,3.51c-0.77,0.7-1.55,1.39-2.27,2.15c-0.71,0.75-1.34,1.57-2.19,2.57
			c5.08-1.55,8.47-5.08,12.49-8.2c0,0.69,0.03,1.02,0,1.34c-0.21,2.23,0.03,4.44,0.32,6.65c0.09,0.69,0.2,1.56,1.13,1.56
			c0.87,0,0.72-0.9,0.84-1.43c0.48-2.16,0.64-4.37,0.78-6.66c0.26,0.08,0.46,0.09,0.6,0.19c2.48,1.82,5.31,2.89,8.16,3.94
			c0.84,0.31,1.69,0.82,2.21-0.49c0.16-0.4,0.62-0.33,1.01-0.21c1.23,0.38,1.04-0.39,0.8-1.06
			C122.92,45.9,122.31,45.55,121.74,45.21z M105.89,34.15c-0.71,0.36-1.59,0.55-1.43,1.63c0.15,1,0.86,1.26,1.76,1.22
			c0.3-0.01,0.6,0.02,0.7,0.35c0.09,0.31-0.13,0.54-0.38,0.69c-0.57,0.34-1.17,0.6-1.85,0.66c-0.39,0.04-0.59-0.06-0.68-0.49
			c-0.11-0.55-0.28-1.1-0.52-1.6c-1.08-2.2-1.06-2.3,1.25-3.22c0.94-0.37,1.89-0.76,3.02-0.84
			C107.57,33.74,106.59,33.8,105.89,34.15z M112.01,36.35c1.21-1.28,1.12-2.5-0.12-3.7c-0.52-0.5-0.45-0.91,0.28-1.1
			c0.68-0.18,1.37-0.38,2.07-0.48c1.78-0.25,2.47,0.37,2.45,2.3c0.02,0.97-0.33,1.97-1.04,2.85c-0.74,0.91-2.51,1.36-3.54,0.9
			C111.62,36.9,111.76,36.62,112.01,36.35z"/>
		<path class="st0" d="M230.25,46.19c-1.85,0.05-3.61,0.67-5.75,0.73c0.85-1.21,1.2-2.25,1.36-3.39c0.22-1.6,0.83-2.92,2.83-2.98
			c0.66-0.02,1.39-0.33,1.84-0.95c0.22-0.3,0.55-0.64,0.15-0.98c-0.68-0.57-1.37-1.31-2.36-1.09c-3.52,0.82-7.04,1.68-10.54,2.6
			c-0.74,0.19-1.37,0.75-1.22,1.68c0.16,1.03,1.03,1.01,1.77,1.01c1.14-0.01,2.24-0.32,3.34-0.63c0.93-0.26,1.58,0.33,1.95,0.99
			c0.42,0.75,0.08,1.48-0.74,1.86c-0.94,0.44-1.88,0.88-2.84,1.28c-1.4,0.59-2.8,1.17-3.99,2.14c-0.91,0.74-0.79,1.45,0.28,1.93
			c0.38,0.17,0.82,0.22,1.24,0.26c4.43,0.44,8.79,0.07,13.07-1.19c0.78-0.23,1.74-0.42,1.62-1.43
			C232.14,47,231.83,46.15,230.25,46.19z M218.07,48.11c1.39-0.97,2.64-1.16,3.97-1C220.9,47.72,219.71,48.13,218.07,48.11z"/>
		<path class="st0" d="M183.53,37.29c1.07-1.08,0.96-1.91-0.22-2.86c-0.33-0.26-0.37-0.58-0.29-0.87c0.41-1.68-0.02-3.36,0-5.04
			c0.03-2.05-0.07-2.28-2.04-2.97c-0.74,0.03-1.47,0.06-2.21,0.09c0,0,0,0,0,0c-0.53,0.28-1.06,0.53-1.73,0.42
			c0.25-0.8,0.82-0.76,1.4-0.72c0.45-0.14,0.99,0,1.36-0.41c0,0,0,0,0,0c0.24-0.6,0.85-0.97,0.95-1.69
			c0.13-0.93,0.11-1.81-0.89-2.11c-1-0.3-1.9,0.47-2.13,1.2c-0.64,2.07-1.63,3.82-3.29,5.21c-0.26,0.21-0.51,0.52-0.41,0.85
			c0.25,0.85-0.18,1.57-0.35,2.34c-0.22,1.01-0.41,1.96-0.1,3.05c0.52,1.8-0.17,2.84-1.98,3.42c-0.54,0.17-1.07,0.6-1.55,0.61
			c-1.48,0.03-1.05,1.28-1.08,1.85c-0.04,0.81,0.9,0.78,1.57,0.7c0.47-0.05,0.92-0.23,1.38-0.34c0.65-0.16,1.05,0.05,0.99,0.77
			c-0.13,1.69-0.16,3.4-0.98,4.97c-0.25,0.48-0.41,0.86-1.02,0.41c-1.06-0.77-1.29-0.05-1.15,0.78c0.17,0.97,0.02,1.88-0.21,2.8
			c-0.09,0.36-0.36,0.75,0.04,1.03c0.42,0.29,0.95,0.1,1.15-0.23c0.77-1.31,1.97-2.37,2.41-3.86c0.6-2.03,1.14-4.08,1.32-6.2
			c0.03-0.3,0-0.74,0.46-0.72c0.34,0.01,0.34,0.39,0.42,0.66c0.08,0.27,0.17,0.55,0.29,0.8c0.44,0.88,1.25,1.46,2.15,1.36
			c0.85-0.09,1.08-1.04,1.37-1.8c0.43-1.14-0.69-1.34-1.25-2c0.97-0.22,1.81-0.36,2.62-0.61c0.77-0.23,0.92,0.13,0.9,0.77
			c-0.07,1.84-0.07,3.69-0.48,5.5c-0.53,2.36-0.83,2.6-3.27,2.67c-0.38,0.01-0.76,0.03-1.13,0.09c-0.24,0.03-0.59,0.24-0.47,0.41
			c0.5,0.69-0.37,1.64,0.45,2.22c0.73,0.51,1.36-0.01,2-0.24c0.72-0.26,1.26-0.77,1.75-1.38c2.17-2.72,2.49-5.95,2.72-9.22
			C183.02,38.35,183.01,37.81,183.53,37.29z M177.65,35.5C177.65,35.5,177.65,35.5,177.65,35.5c0.03-0.57,0.51-0.74,0.89-1
			c0.77-0.53,1.24-1.26,1.44-2.18c0.18-0.86-0.43-1.27-1-1.48c-0.8-0.3-1.59,0.15-2.11,0.71c-0.3,0.32-0.81,1.09-0.2,1.49
			c1.07,0.71,0.75,1.59,0.59,2.5c-1.67,0.64-1.76,0.61-1.85-1.03c-0.07-1.31-0.23-2.63,0.14-3.93c0.09-0.32,0.09-0.78,0.41-0.85
			c1.56-0.36,3-1.15,4.63-1.24c0.49-0.03,0.64,0.34,0.69,0.74c0.06,0.47,0.08,0.94,0.12,1.41C181.76,34.74,181.76,34.74,177.65,35.5
			z"/>
	</g>
	<path class="st1" d="M47.23,12.43c-0.29,4.03-1.18,7.41-2.21,10.07c-4.54,3.88-10.28,7.23-13.74,9.38
		c-5.54,3.44-6.39,11.5-5.87,12.28c-0.35-0.42-3.53-4.37-3.47-6.51c0.06-2.27,1.23-5.71,6.42-9.73c5.19-4.02,12.02-9.6,14.6-17.12
		C45.54,3.28,45.16,0,45.16,0S48.01,1.47,47.23,12.43z"/>
	<path class="st2" d="M53.78,22.03c-1.29,3.21-2.44,5.5-3.38,7.12c-4.55,3.54-9.6,6.22-13.55,7.86C27.78,40.77,27,46.99,27,46.99
		s-0.97-2.27-1.56-2.79l0,0c0,0,0,0,0,0c0,0-0.01-0.02-0.03-0.03c-0.52-0.78,0.33-8.85,5.87-12.28c3.46-2.15,9.2-5.5,13.74-9.38
		c2.86-2.44,5.24-5.1,6.29-7.8c2.72-7,2.85-10.44,2.85-10.44S57.35,13.14,53.78,22.03z"/>
	<path class="st3" d="M25.44,44.2c0,0-0.01-0.02-0.03-0.03C25.42,44.18,25.43,44.19,25.44,44.2z"/>
	<path class="st4" d="M58.97,30.55c-1.95,3.07-3.82,5.33-5.44,6.98h0c-6.21,2.89-14.16,4.49-17.64,5.76
		c-4.05,1.48-7.72,6.41-7.78,6.48c0,0,0,0,0,0s-0.45-1.62-1.1-2.79c0,0,0.78-6.23,9.86-9.99c3.95-1.64,9-4.31,13.55-7.86
		c5.91-4.61,10.98-10.68,11.68-17.82C62.08,11.33,64.54,21.77,58.97,30.55z"/>
	<path class="st5" d="M63.83,38.89c-3.35,3.6-6.7,6.14-9.06,7.71c-5.87,1.24-12.17,1.72-15.84,1.95
		c-6.03,0.38-10.76,4.03-10.76,4.03c-0.04,0.18-0.1,0.37-0.17,0.56c0.21-0.66,0.43-1.85,0.1-3.35c0,0,0,0,0,0
		c0.06-0.08,3.73-5,7.78-6.48c3.48-1.27,11.43-2.87,17.64-5.76h0c1.08-0.5,2.1-1.04,3.04-1.63c6.35-3.96,11.22-8.17,12.32-12.9
		C68.89,23,69.99,32.27,63.83,38.89z"/>
	<path class="st6" d="M72.2,36.29c0,0-0.19,8.75-9.4,14.66c-4.13,2.65-7.53,4.16-10.03,5.02h0c-3.24-0.19-6.4-0.68-9.36-0.94
		c-8.37-0.71-15.95-0.64-15.95-0.64s0.15-0.29,0.33-0.69c0,0,0,0,0,0c0.01-0.03,0.11-0.22,0.22-0.57c0,0,0,0,0,0
		c0.07-0.18,0.12-0.37,0.17-0.56c0,0,4.73-3.64,10.76-4.03c3.67-0.23,9.97-0.71,15.84-1.95c3.78-0.8,7.38-1.92,9.97-3.49
		C71.35,39.08,72.2,36.29,72.2,36.29z"/>
	<path class="st3" d="M28,53.13c-0.11,0.34-0.21,0.54-0.22,0.57C27.85,53.52,27.93,53.33,28,53.13z"/>
	<path class="st7" d="M70.77,50.56c0,0-2.17,7.39-10,9.99c-5.67,1.88-10.74,2.7-14.51,2.98h0c-1.95-0.62-3.9-1.35-5.84-2.07
		c-5.9-2.2-15.76-4.54-15.76-4.54s1.49-0.45,2.79-2.53c0,0,7.59-0.07,15.95,0.64c2.96,0.25,6.12,0.75,9.36,0.94h0
		C58.69,56.31,64.91,55.63,70.77,50.56z"/>
	<path class="st8" d="M64.74,63.34c-0.06,0.11-3.88,7-18.68,7c-2.42,0-4.49-0.05-6.25-0.13h0c-1.33-0.57-2.61-1.19-3.85-1.83
		c-5.45-2.85-14.79-10.98-14.79-10.98s1.4,0.11,3.48-0.48c0,0,9.86,2.33,15.76,4.54c1.94,0.73,3.89,1.45,5.84,2.07h0
		c3.97,1.26,7.95,2.08,11.86,1.51C63.87,64.19,64.71,63.36,64.74,63.34z"/>
	<path class="st9" d="M55.68,73.13c0,0-10.75,5.41-24.48,0.47c-2.23-1.58-4.42-3.49-6.48-5.66c-4.97-5.24-5.97-9.47-8.71-13.31
		c0.51,0.65,2.15,2.41,5.17,2.76c0,0,9.34,8.13,14.79,10.98c1.24,0.65,2.51,1.27,3.85,1.83h0C44.36,72.14,49.53,73.46,55.68,73.13z"
		/>
	<g>
		<polygon class="st0" points="140.15,71.94 129.58,62.88 133.27,70.6 143.84,80 143.84,71.94 143.84,63.66 140.15,63.66 		"/>
		<polygon class="st0" points="174.45,69.17 168.16,69.17 168.16,63.66 164.46,63.66 164.46,69.17 164.46,72.41 164.46,78.9 
			168.16,78.9 168.16,72.41 174.45,72.41 174.45,78.9 178.15,78.9 178.15,63.66 174.45,63.66 		"/>
		<rect x="197.34" y="63.66" class="st0" width="3.7" height="15.24"/>
		<rect x="223.02" y="63.66" class="st0" width="2.13" height="15.24"/>
		<polygon class="st0" points="245.19,63.66 243.06,63.66 243.06,76.76 243.06,78.9 243.06,78.9 245.19,78.9 245.19,78.9 
			253.19,78.9 253.19,76.76 245.19,76.76 		"/>
		<rect x="255.51" y="63.66" class="st0" width="2.13" height="15.24"/>
		<polygon class="st0" points="269.97,75.01 263.87,63.66 261.74,63.66 261.74,78.9 263.87,78.9 263.87,67.61 269.97,78.9 
			272.11,78.9 272.11,63.66 269.97,63.66 		"/>
		<polygon class="st0" points="276.52,63.66 276.52,65.79 276.52,70.21 276.52,72.34 276.52,76.76 276.52,78.9 278.66,78.9 
			286.65,78.9 286.65,76.76 278.66,76.76 278.66,72.34 286.65,72.34 286.65,70.21 278.66,70.21 278.66,65.79 286.65,65.79 
			286.65,63.66 278.66,63.66 		"/>
		<path class="st0" d="M99.82,63.66h-1.3H96.9h-2.08V78.9h3.7c0.91,0,10.38,0.52,10.38-7.62S99.82,63.66,99.82,63.66z M100.28,75.66
			h-1.75v-8.69c0.61,0,1.29,0,1.88,0c1.56,0,4.54,0.71,4.54,4.8S100.28,75.66,100.28,75.66z"/>
		<path class="st0" d="M118.89,62.88c-4.62,0-8.37,3.75-8.37,8.37s3.75,8.37,8.37,8.37c4.62,0,8.37-3.75,8.37-8.37
			S123.51,62.88,118.89,62.88z M118.89,75.85c-2.25,0-4.08-2.06-4.08-4.6s1.83-4.6,4.08-4.6c2.25,0,4.08,2.06,4.08,4.6
			S121.14,75.85,118.89,75.85z"/>
		<polygon class="st0" points="129.58,70.6 129.58,78.9 133.27,78.9 133.27,70.6 129.58,67.16 		"/>
		<path class="st0" d="M154.52,70.6v2.59h2.78v2.38c-0.6,0.36-1.27,0.58-1.99,0.58c-2.46,0-4.95-2.36-4.95-4.91s2.49-4.91,4.95-4.91
			c1.79,0,3.84,0.93,4.65,2.25l0.21-4.11c-1.41-0.81-3.07-1.6-4.86-1.6c-5.06,0-8.95,3.75-8.95,8.37s3.89,8.37,8.95,8.37
			c2.08,0,3.99-0.63,5.53-1.7H161v-4.72V70.6h-3.7H154.52z"/>
		<path class="st0" d="M179.39,78.9h4.22l0.87-2.11h6.4l0.96,2.11h4.09l-8.4-16.02L179.39,78.9z M185.54,74.23l1.99-4.8l2.19,4.8
			H185.54z"/>
		<path class="st0" d="M213.24,63.92l-5.19,14.98h2.08l1.22-3.77h5.68l1.14,3.77h2.4l-5.38-14.98H213.24z M211.91,73.37l2.36-7.32
			l2.22,7.32H211.91z"/>
		<path class="st0" d="M239.38,68.2c0-4.6-4.93-4.54-4.93-4.54h-3h-2.13l0,0V78.9h2.13v-6.29h1.38l5.25,6.29h2.59l-5.19-6.29
			C235.48,72.61,239.38,72.8,239.38,68.2z M233.54,70.73l-2.09,0v-4.94h2.61c0,0,3.24-0.25,3.24,2.47S233.54,70.73,233.54,70.73z"/>
		<path class="st0" d="M296.37,71.19c-0.55-0.42-1.14-0.75-1.71-1.07c-1.44-0.82-2.34-1.38-2.62-2.56c-0.12-0.5,0-1.05,0.33-1.47
			c0.33-0.42,0.84-0.65,1.42-0.65c0.55,0,1.11,0.25,1.66,0.73c0.47,0.41,0.75,0.84,0.75,0.85l0.9-0.57l0.9-0.57
			c-0.07-0.11-1.64-2.58-4.21-2.58c-1.23,0-2.36,0.53-3.09,1.47c-0.73,0.93-1,2.15-0.73,3.29c0.52,2.15,2.18,3.09,3.65,3.92
			c0.53,0.3,1.04,0.59,1.47,0.92c1.31,1,1.29,1.92,1.16,2.53c-0.17,0.8-0.8,1.7-1.75,1.82c-1.29,0.15-2.68-1.17-3.28-2.54
			l-1.95,0.86c0.86,1.97,2.83,3.83,5.03,3.83c0.15,0,0.3-0.01,0.46-0.03c1.73-0.2,3.18-1.6,3.59-3.48
			C298.59,74.63,298.48,72.8,296.37,71.19z"/>
	</g>
	<path class="st10" d="M44.79,78.9c-1.4-0.04-2.99,0.5-4.4,0.6c-3.48,0.25-7.01,0.05-10.42-0.7C19.48,76.5,12.23,68.03,8.54,58.35
		c-1.15-3.02-1.89-5.77-4.7-7.69C2.69,49.88,1.36,49.28,0,49c0,0,8.13-2.07,13.32,2.59c1.02,0.91,1.83,1.84,2.53,2.79c0,0,0,0,0,0
		c0.01,0.02,0.07,0.11,0.17,0.24c0,0,0,0,0,0c2.74,3.84,3.74,8.06,8.71,13.31c2.06,2.17,4.25,4.08,6.48,5.66
		C35.81,76.87,40.59,78.78,44.79,78.9z"/>
	<path class="st3" d="M16.02,54.63c-0.12-0.15-0.17-0.24-0.17-0.24C15.9,54.47,15.96,54.55,16.02,54.63z"/>
</g>
</svg>
