<?xml version="1.0" encoding="utf-8"?>
<!-- Generator: Adobe Illustrator 25.4.1, SVG Export Plug-In . SVG Version: 6.00 Build 0)  -->
<svg version="1.1" id="Layer_1" xmlns="http://www.w3.org/2000/svg" xmlns:xlink="http://www.w3.org/1999/xlink" x="0px" y="0px"
	 viewBox="0 0 78.6 80" style="enable-background:new 0 0 78.6 80;" xml:space="preserve">
<style type="text/css">
	.st0{fill:#0C0C11;}
	.st1{fill:#145E5A;}
</style>
<path class="st0" d="M84.9-885.5c-0.7-0.1-1.8,0-2.5,0c0.5-0.4,1.2-0.7,1.6-0.5c0.1,0,0.1,0,0.2,0.1
	C84.4-885.8,84.7-885.6,84.9-885.5z"/>
<path class="st1" d="M27.6,0l25.3,54.7c-5.5-2.2-15.4-4.4-28.6,0.2C3.8,62.2,0,80,0,80h5.2c0,0,6.6-18.7,26.8-18.7
	C52.2,61.3,58.7,80,58.7,80h5.9h4.3h9.7l-37-80H27.6z"/>
</svg>
