<?xml version="1.0" encoding="utf-8"?>
<!-- Generator: Adobe Illustrator 25.4.1, SVG Export Plug-In . SVG Version: 6.00 Build 0)  -->
<svg version="1.1" id="Layer_1" xmlns="http://www.w3.org/2000/svg" xmlns:xlink="http://www.w3.org/1999/xlink" x="0px" y="0px"
	 viewBox="0 0 776.9 80" style="enable-background:new 0 0 776.9 80;" xml:space="preserve">
<style type="text/css">
	.st0{fill:#0C0C11;}
	.st1{fill:#145E5A;}
</style>
<path class="st0" d="M84.9-885.5c-0.7-0.1-1.8,0-2.5,0c0.5-0.4,1.2-0.7,1.6-0.5c0.1,0,0.1,0,0.2,0.1
	C84.4-885.8,84.7-885.6,84.9-885.5z"/>
<g>
	<polygon class="st1" points="426.9,2.1 413.6,2.1 413.6,73.8 413.6,78.1 426.9,78.1 465.5,78.1 465.5,73.8 426.9,73.8 	"/>
	<rect x="483.4" y="2.1" class="st1" width="13.3" height="76"/>
	<polygon class="st1" points="676.1,36.8 637.6,36.8 637.6,2.1 624.3,2.1 624.3,78.1 637.6,78.1 637.6,41.1 676.1,41.1 676.1,78.1 
		689.4,78.1 689.4,2.1 676.1,2.1 	"/>
	<path class="st1" d="M277.4,2.1l24,52c-5.2-2.1-14.7-4.2-27.1,0.2c-19.5,6.9-23.2,23.8-23.2,23.8h4.9c0,0,6.2-17.7,25.5-17.7
		c19.2,0,25.5,17.7,25.5,17.7h5.6h4.1h9.2l-35.1-76H277.4z"/>
	<polygon class="st1" points="0,2.1 0,6.3 0,29.5 0,33.8 0,73.8 0,78.1 13.3,78.1 52.7,78.1 52.7,73.8 13.3,73.8 13.3,33.8 
		39.7,33.8 39.7,29.5 13.3,29.5 13.3,6.3 52.7,6.3 52.7,2.1 13.3,2.1 	"/>
	<polygon class="st1" points="345.3,2.1 345.3,6.3 345.3,29.5 345.3,33.8 345.3,78.1 358.6,78.1 358.6,33.8 385.1,33.8 385.1,29.5 
		358.6,29.5 358.6,6.3 398,6.3 398,2.1 358.6,2.1 	"/>
	<polygon class="st1" points="776.9,2.1 749.7,2.1 736.4,2.1 709.6,2.1 709.6,6.3 736.4,6.3 736.4,78.1 749.7,78.1 749.7,6.3 
		776.9,6.3 	"/>
	<path class="st1" d="M237.7,53.5c0,0-0.6,21.7-24.6,21.7c-20.3,0-22.4-18.4-22.6-24.2V2.1h-13.3v51.4c0,0,1.4,26.5,33.3,26.5
		s33.2-26.5,33.2-26.5V2.1h-6V53.5z"/>
	<path class="st1" d="M143.9,15.2C137.4,7,126.9,0,110.2,0c-7,0-14.3,2.3-20.3,5.9c-11.8,7.2-19,20.5-19.3,34.1
		c-0.1,4.9,0.6,9.9,2.4,14.5c4.9,13,17.4,21.3,30.6,24.4c2.2,0.5,4.4,0.9,6.6,1.1c9.3,0,16.7-2,22.5-5.2c1.7,2.3,2.6,4.3,2.9,5.2
		h18.1c0,0-3.7-7.3-9.9-14.2C155.7,51.4,155.6,30.1,143.9,15.2z M85.5,33.5c1.6-10.5,7-30.1,24.8-30.1c24.4,0,28.8,31.2,28.8,37.7
		c0,2.8-0.9,10-3.9,17.2c-2.3-1.6-4.8-2.8-7.4-3.6c-13.5-4.1-30.4,2-37.1,9c-3-5.8-4.5-12.4-5.3-17.1C84.8,42.2,84.8,37.8,85.5,33.5
		z M110.3,76.6c-7.6,0-12.9-3.6-16.7-8.5c3.6-2.5,12-7.6,22-5.2c5.1,1.2,9.2,3.8,12.3,6.6C123.7,73.7,118,76.6,110.3,76.6z"/>
	<path class="st1" d="M597.7,41.1v-4.3h-13.3h-13.8v4.3h13.8v30.1c-1.3,1.4-5.1,4.2-14.7,4.2c-12.9,0-34.1-8-34.1-36.5
		c0-28.5,24.3-33.4,29.9-33.4s17.2,0.9,24.4,13.7h7.6c0,0-9.2-19.2-34.5-19.2s-42.1,20.8-42.1,41.1S540.2,80,566,80
		s32.4-7.5,32.4-7.5l-0.6-0.6V41.1z"/>
</g>
</svg>
