<?xml version="1.0" encoding="utf-8"?>
<!-- Generator: Adobe Illustrator 27.0.0, SVG Export Plug-In . SVG Version: 6.00 Build 0)  -->
<svg version="1.1" id="Layer_1" xmlns="http://www.w3.org/2000/svg" xmlns:xlink="http://www.w3.org/1999/xlink" x="0px" y="0px"
	 viewBox="0 0 304.1 80" style="enable-background:new 0 0 304.1 80;" xml:space="preserve">
<style type="text/css">
	.st0{fill:#1C998C;}
	.st1{fill:#243165;}
</style>
<g>
	<circle class="st0" cx="8.1" cy="8.1" r="8.1"/>
	<path class="st1" d="M190.3,45.5L190.3,45.5c-0.3,7-6,12.5-13,12.5c-6.9,0-12.6-5.4-13-12.2c-7.1,1.2-10.8-0.2-11-0.2
		c0.3,13,11,23.4,24,23.4c13.1,0,23.8-10.5,24-23.6C195.4,47.1,190.3,45.5,190.3,45.5z"/>
	<path class="st0" d="M11.8,67.6H4.4c-1.6,0-2.8-1.3-2.8-2.8v-41c0-1.6,1.3-2.8,2.8-2.8h7.4c1.6,0,2.8,1.3,2.8,2.8v41
		C14.7,66.3,13.4,67.6,11.8,67.6z"/>
	<circle class="st0" cx="215.4" cy="8.1" r="8.1"/>
	<path class="st0" d="M45.3,21c-3.9,0-7.6,1-10.9,2.6V10.8c0-0.8-0.5-1.5-1.2-1.8L24,5c-1.3-0.6-2.7,0.4-2.7,1.8V45
		c0,13.3,10.8,24,24,24s24-10.8,24-24S58.6,21,45.3,21z M45.3,58c-7.2,0-13-5.8-13-13c0-7.2,5.8-13,13-13c7.2,0,13,5.8,13,13
		C58.3,52.2,52.5,58,45.3,58z"/>
	<path class="st0" d="M118.5,44.3c0-13.7-8.2-24.8-22.6-24.8c-13.3,0-24,11.1-24,24.8c0,13.7,10.8,24.8,24,24.8
		c9.2,0,17.2-5.3,21.2-13.2c0.7-1.3-0.3-2.8-1.8-2.8h-7c-1.2,0-2.4,0.5-3.2,1.5c-2.4,2.9-5.6,4.8-9.3,4.8c-5.8,0-9.5-2.8-10.7-9.6
		c-0.2-1.2,0.7-2.3,2-2.3h28.5c1.6,0,2.9-1.3,2.9-2.9l0,0l0,0C118.5,44.4,118.5,44.3,118.5,44.3z M87.2,39.3c-1.1,0-2-1.1-1.7-2.2
		c1.5-5.6,5-8.1,10.3-8.1c4.7,0,8.2,3.3,10.1,7.7c0.5,1.2-0.3,2.6-1.7,2.6H87.2z"/>
	<path class="st0" d="M274.9,44.3c0-13.7-8.2-24.8-22.6-24.8c-13.3,0-24,11.1-24,24.8c0,13.7,10.8,24.8,24,24.8
		c9.2,0,17.2-5.3,21.2-13.2c0.7-1.3-0.3-2.8-1.8-2.8h-7c-1.2,0-2.4,0.5-3.2,1.5c-2.4,2.9-5.6,4.8-9.3,4.8c-5.8,0-9.5-2.8-10.7-9.6
		c-0.2-1.2,0.7-2.3,2-2.3H272c1.6,0,2.9-1.3,2.9-2.9l0,0l0,0C274.9,44.4,274.9,44.3,274.9,44.3z M243.6,39.3c-1.1,0-2-1.1-1.7-2.2
		c1.5-5.6,5-8.1,10.3-8.1c4.7,0,8.2,3.3,10.1,7.7c0.5,1.2-0.3,2.6-1.7,2.6H243.6z"/>
	<path class="st0" d="M136.7,28.9v-6c0-1.1-0.9-2-2-2h-9.2c-1.1,0-2,0.9-2,2v42.7c0,1.1,0.9,2,2,2h9.2c1.1,0,2-0.9,2-2V42.5
		c0.5-4.8,3.3-11.8,15.1-11.1c1.1,0.1,2.1-0.8,2.1-1.9v-7.7c0-1.1-0.9-1.9-1.9-2C148.2,19.7,140.2,20.6,136.7,28.9z"/>
	<path class="st0" d="M222,60.7V22.9c0-1.1-0.9-2-2-2h-9.2c-1.1,0-2,0.9-2,2v37.8c0,6.2-5.1,8.2-7.9,8.9c-1,0.2-1.6,1.2-1.5,2.2
		l1,6.6c0.1,1,1,1.7,2,1.7C223.2,79.3,222,60.7,222,60.7z"/>
	<path class="st0" d="M294.8,29.5h8.4c0.5,0,1-0.4,1-1v-6.6c0-0.5-0.4-1-1-1h-8.4V9.2c0-1.3-1.4-2.2-2.7-1.7l-9,3.7
		c-0.7,0.3-1.1,1-1.1,1.7V37v21.6c0,5.1,4.1,9.2,9.2,9.2h11.4c0.9,0,1.6-0.7,1.6-1.6v-7.1c0-0.9-0.7-1.6-1.6-1.6h-4
		c-2.1,0-3.8-1.7-3.8-3.8V45V29.5z"/>
	<path class="st0" d="M201.3,45c0,0.2,0,0.3,0,0.5c-5.9,1.7-11,0.1-11,0.1h0c0-0.2,0-0.4,0-0.5c0-7.2-5.8-13-13-13s-13,5.8-13,13
		c0,0.3,0,0.6,0,0.8c-7.1,1.2-10.8-0.2-11-0.2c0-0.2,0-0.4,0-0.6c0-13.3,10.8-24,24-24C190.5,21,201.3,31.7,201.3,45z"/>
</g>
</svg>
