<?xml version="1.0" encoding="utf-8"?>
<!-- Generator: Adobe Illustrator 25.4.1, SVG Export Plug-In . SVG Version: 6.00 Build 0)  -->
<svg version="1.1" id="Layer_1" xmlns="http://www.w3.org/2000/svg" xmlns:xlink="http://www.w3.org/1999/xlink" x="0px" y="0px"
	 viewBox="0 0 123.49 80" style="enable-background:new 0 0 123.49 80;" xml:space="preserve">
<style type="text/css">
	.st0{fill:#7D4697;}
	.st1{fill:#6FB92C;}
</style>
<g>
	<path id="path871" class="st0" d="M35.58,80c-3.77,0-7.17-2.22-8.65-5.69L0.78,13.12C-1.29,8.31,0.92,2.84,5.73,0.78
		C10.53-1.29,16,0.92,18.07,5.73l17.52,41.02L53.1,5.73c2.07-4.8,7.54-7.02,12.34-4.95s7.02,7.54,4.95,12.34L44.23,74.31
		C42.75,77.78,39.35,80,35.58,80"/>
	<path id="path879" class="st1" d="M87.91,80c-3.77,0-7.17-2.22-8.65-5.69L53.1,13.12c-2.07-4.8,0.15-10.27,4.95-12.34
		c4.8-2.07,10.27,0.15,12.34,4.95l17.52,41.02l17.52-41.02c2.07-4.8,7.54-7.02,12.34-4.95c4.8,2.07,7.02,7.54,4.95,12.34
		L96.55,74.31C95.08,77.78,91.68,80,87.91,80"/>
</g>
</svg>
