<?xml version="1.0" encoding="utf-8"?>
<!-- Generator: Adobe Illustrator 25.4.1, SVG Export Plug-In . SVG Version: 6.00 Build 0)  -->
<svg version="1.1" id="Layer_1" xmlns="http://www.w3.org/2000/svg" xmlns:xlink="http://www.w3.org/1999/xlink" x="0px" y="0px"
	 viewBox="0 0 258.42 80" style="enable-background:new 0 0 258.42 80;" xml:space="preserve">
<style type="text/css">
	.st0{fill:#7D4697;}
	.st1{fill:#6FB92C;}
</style>
<g id="layer1" transform="translate(-110.38906,-303.93939)">
	<g id="g940" transform="translate(0.5000045,-0.5000022)">
		<path id="path871" class="st0" d="M130.63,351.48c-2.2,0-4.18-1.29-5.04-3.32l-15.25-35.67c-1.21-2.8,0.09-5.99,2.89-7.19
			c2.8-1.21,5.99,0.09,7.19,2.89l10.21,23.91l10.21-23.91c1.21-2.8,4.39-4.09,7.19-2.89c2.8,1.21,4.09,4.39,2.89,7.19l-15.25,35.67
			C134.81,350.19,132.83,351.48,130.63,351.48"/>
		<path id="path873" class="st0" d="M335.56,345.62c-1.08-0.78-1.85-2.15-1.85-3.66c0-2.54,2.02-4.48,4.57-4.48
			c1.25,0,2.15,0.43,2.76,0.9c3.36,2.46,7.02,3.96,11.29,3.96c3.96,0,6.38-1.59,6.38-4.18v-0.13c0-2.46-1.51-3.75-8.92-5.6
			c-8.92-2.28-14.65-4.74-14.65-13.53v-0.13c0-8.01,6.46-13.31,15.47-13.31c5.39,0,10.04,1.38,14,3.92
			c1.08,0.65,2.15,1.94,2.15,3.88c0,2.54-2.02,4.48-4.57,4.48c-0.95,0-1.72-0.26-2.46-0.69c-3.23-1.9-6.25-2.97-9.26-2.97
			c-3.75,0-5.69,1.72-5.69,3.83v0.13c0,2.89,1.9,3.83,9.52,5.82c8.96,2.33,14,5.56,14,13.27v0.13c0,8.79-6.68,13.7-16.24,13.7
			C346.38,350.92,340.48,349.16,335.56,345.62"/>
		<path id="path875" class="st0" d="M307.69,351.4c-12.79,0-23.22-10.43-23.22-23.22c0-12.79,10.43-23.22,23.22-23.22
			c12.79,0,23.22,10.43,23.22,23.22C330.91,340.97,320.53,351.4,307.69,351.4 M307.69,314.86c-7.32,0-13.31,5.99-13.31,13.31
			c0,7.32,5.99,13.31,13.31,13.31c7.32,0,13.31-5.99,13.31-13.31C321,320.85,315.06,314.86,307.69,314.86"/>
		<path id="path877" class="st0" d="M273.36,308.96l9.05,35.67c0.73,2.93-1.03,5.9-3.96,6.63c-0.43,0.13-0.9,0.17-1.34,0.17
			c-2.46,0-4.7-1.64-5.3-4.14l-5.04-19.99l-8.87,20.76c-0.86,2.02-2.84,3.32-5.04,3.32s-4.18-1.29-5.04-3.32l-9.35-21.63
			l-6.25,21.11c-0.69,2.37-2.89,3.92-5.26,3.92c-0.52,0-1.03-0.09-1.55-0.22c-2.89-0.86-4.57-3.92-3.7-6.81l10.55-35.54
			c0,0,1.16-4.09,5.17-4.09c3.79,0,5.08,3.19,5.08,3.19l10.3,24.04l10.21-23.91c0,0,1.38-3.32,5.08-3.32
			C271.81,304.87,273.14,308.14,273.36,308.96"/>
		<path id="path879" class="st1" d="M161.13,351.48c-2.2,0-4.18-1.29-5.04-3.32l-15.25-35.67c-1.21-2.8,0.09-5.99,2.89-7.19
			c2.8-1.21,5.99,0.09,7.19,2.89l10.21,23.91l10.21-23.91c1.21-2.8,4.39-4.09,7.19-2.89c2.8,1.21,4.09,4.39,2.89,7.19l-15.25,35.67
			C165.31,350.19,163.33,351.48,161.13,351.48"/>
		<path id="path881" class="st1" d="M213.3,351.91c-2.15,0-4.18-1.25-5.04-3.36l-10.21-24.43l-10.17,24.43
			c-1.16,2.8-4.35,4.09-7.15,2.93c-2.8-1.16-4.09-4.35-2.93-7.15l15.25-36.53c0.86-2.02,2.84-3.36,5.04-3.36s4.22,1.34,5.04,3.36
			l15.25,36.53c1.16,2.8-0.17,5.99-2.93,7.15C214.72,351.78,213.99,351.91,213.3,351.91"/>
		<path id="path883" class="st1" d="M158.63,381.55l5.47-15.08c0.56-1.59,1.46-2.54,2.97-2.54c1.55,0,2.46,0.95,3.02,2.54
			l5.34,15.08c0.09,0.26,0.13,0.52,0.13,0.82c0,1.25-0.99,2.02-2.11,2.02c-0.95,0-1.72-0.56-2.02-1.55l-0.82-2.46h-7.19l-0.82,2.46
			c-0.34,0.99-1.08,1.55-2.02,1.55c-1.08,0-2.11-0.82-2.11-2.02C158.46,382.07,158.55,381.77,158.63,381.55 M169.4,376.68
			l-2.33-7.07h-0.09l-2.33,7.07H169.4z"/>
		<path id="path885" class="st1" d="M177.98,366.22c0-1.38,0.9-2.33,2.2-2.33c1.25,0,2.15,0.9,2.15,2.33v15.9
			c0,1.38-0.9,2.33-2.15,2.33c-1.29,0-2.2-0.9-2.2-2.33V366.22z"/>
		<path id="path887" class="st1" d="M196.54,383.06l-3.36-6.51h-2.97c-0.13,0-0.17,0.04-0.17,0.17v5.39c0,1.38-0.9,2.33-2.15,2.33
			c-1.29,0-2.2-0.9-2.2-2.33V366c0-1.16,0.69-1.94,1.9-1.94H194c4.14,0,6.89,2.58,6.89,6.25c0,2.46-1.25,4.44-3.32,5.47l2.93,5.34
			c0.22,0.39,0.3,0.82,0.3,1.21c0,1.12-0.78,2.07-2.07,2.07C197.75,384.4,197.02,384.01,196.54,383.06 M196.46,370.35
			c0-1.55-1.08-2.5-2.71-2.5h-3.58c-0.13,0-0.17,0.04-0.17,0.17v4.65c0,0.13,0.04,0.17,0.17,0.17h3.58
			C195.38,372.85,196.46,371.86,196.46,370.35"/>
	</g>
</g>
</svg>
