<?xml version="1.0" encoding="utf-8"?>
<!-- Generator: Adobe Illustrator 25.4.1, SVG Export Plug-In . SVG Version: 6.00 Build 0)  -->
<svg version="1.1" id="Layer_1" xmlns="http://www.w3.org/2000/svg" xmlns:xlink="http://www.w3.org/1999/xlink" x="0px" y="0px"
	 viewBox="0 0 128.3 80" style="enable-background:new 0 0 128.3 80;" xml:space="preserve">
<style type="text/css">
	.st0{fill:#253780;}
</style>
<g>
	<path class="st0" d="M60.7,12.9C60.8,13,61,13,61.1,13c0.3,0,0.5-0.1,0.7-0.4c0.8-1.3,1.7-2.6,2.1-3c0.5,0.4,1.4,1.7,2.2,3
		c0.2,0.4,0.7,0.5,1.1,0.3c0.4-0.2,0.5-0.7,0.3-1.1c-2.3-3.8-3.2-3.8-3.5-3.8c-0.3,0-1.3,0-3.4,3.8C60.2,12.3,60.3,12.7,60.7,12.9z"
		/>
	<path class="st0" d="M128.3,0.7c-0.1-0.2-0.3-0.7-1.1-0.7l-0.2,0c-1.4,0-3.2,0-20.9,4.8L67.2,15.9c-0.3,0.1-0.5,0.4-0.6,0.7
		c0,0.3,0.2,0.6,0.5,0.7l22.1,7.8c0.2,0.1,0.3,0.1,0.5,0l0,0c0,0,0,0,0,0c0.1,0,0.2-0.1,0.2-0.1c0.2-0.1,0.6-0.4,1.1-0.8
		c0.3-0.3-0.6-0.6-1.8-1c0,0,0,0,0,0l-9.5-3l0,0l-9.9-3.5l36.6-10.5c14.8-4.1,18.3-4.6,19.8-4.7c-0.3,0.3-0.6,0.5-0.9,0.8
		c-0.3,0.2-29.2,23.3-33.6,25.5c-4.2,2.1-8.9,0-9,0c-0.1,0-7.6-3.4-12-5.9c-2.2-1.3-3.6-1.5-4.4-0.9c-0.5,0.4-0.6,1.1-0.5,1.6
		l-1.5,28.9l0,0c0,0-0.1,1.1-0.6,1.1c-0.3,0-0.4-0.5-0.5-0.8c-0.7-14.2-1.5-29.1-1.6-29.8c-0.1-0.4-0.3-0.7-0.6-0.9
		c-0.3-0.2-0.7-0.2-1.1-0.1c-0.1,0-0.1,0-0.2,0c-1.2,0.3-2.9,1.1-5.5,2.4c-0.6,0.3-1.2,0.6-1.8,0.9c-0.6,0.3-1.2,0.6-1.8,0.9
		c-3.5,1.8-7.1,3.6-9.2,3.6c-2.9,0-5.1-0.7-7.5-2.5c-0.9-0.7-3.1-2.3-5.8-4.4C22.9,17.8,14.5,11.4,8.9,7.2C5,4.4,3.2,2.8,2.3,1.8
		c14.6,2.9,46.8,12.4,55.5,15l-11.6,4.2c0,0-5.3,1.8-6.8,2.3c-1.6,0.5-2.6,0.8-2.3,1.2c0.3,0.4,1.1,0.8,1.1,0.8l0,0
		c0.2,0.1,0.4,0.1,0.7,0.1l21.7-7.9c0.3-0.1,0.5-0.4,0.5-0.7c0-0.3-0.2-0.6-0.5-0.7C60.1,15.9,16.7,2.9,0.9,0C0.6,0,0.3,0.1,0.2,0.3
		c-0.5,0.7,0.4,1.8,0.7,2.2c1.2,1.4,3.6,3.4,7.1,6c5.6,4.1,14,10.5,19.5,14.8c0.9,0.7,1.8,1.3,2.5,1.9c0,0,0,0,0,0
		c0.5,0.4-0.2,0.9-0.2,0.9l-17.5,6.2c0,0-0.1,0-0.1,0c-0.5,0.2-1.6,0.9-1.4,1.9c0.2,0.9,1.3,1.2,2.3,1.4c3.2,0.4,26.8,2.2,30.7,2.4
		c0.1,0,0.2,0,0.4,0c3.9,0,8.2-3,10.2-5.1c1.2-1.3,3.4-5.1,4.9-7.8c0,0,1.2-1.3,1.3,0.5c0.5,9.3,1.8,35.6,2.6,51c0,0,0,0.1,0,0.2
		c0,0.1,0,0.2,0,0.3c0,0,0,0,0,0c0.1,0.9,0.2,3,0.7,3c0.6,0,0.8-2,0.8-3l2.7-51.5c0,0,0.8-1.9,1.6-0.5c0,0,0,0,0,0
		c1.5,2.7,3.7,6.7,5,8C76,35,80.3,38,84.2,38c0.1,0,0.2,0,0.4,0c3.9-0.2,27.5-2,30.7-2.4c1-0.1,2.1-0.4,2.3-1.4
		c0.2-1-0.9-1.6-1.4-1.9c0,0-0.1,0-0.1,0l-16.8-6c0,0-1.5-0.6-0.5-1.4c0,0,0,0,0,0c9.8-7.2,26.7-20.7,27.7-21.5
		C128.6,1.7,128.4,1,128.3,0.7z M53.3,31.9c-1.8,1.9-5.9,4.8-9.4,4.6c-3.9-0.2-27.4-2-30.6-2.4c-0.3,0-0.6-0.1-0.7-0.1
		c0.1-0.1,0.2-0.1,0.3-0.2l16.9-6v0c0,0,2.4-0.8,3.5,0c2.6,1.9,5.1,2.8,8.4,2.8c2.5,0,6.1-1.8,9.9-3.8c0.6-0.3,1.2-0.6,1.8-0.9
		c0.6-0.3,1.2-0.6,1.8-0.9c0.5-0.3,1.1-0.5,1.6-0.8c0,0,1.6-0.4,1,0.5C56.3,27.3,54.3,30.7,53.3,31.9z M115.8,33.9
		c-0.2,0-0.4,0.1-0.7,0.1c-3.2,0.4-26.7,2.2-30.6,2.4c-3.5,0.2-7.6-2.7-9.4-4.6c-1.1-1.1-3-4.5-4.4-7.1c0,0-0.2-1,0.9-0.7
		c0,0,0,0,0,0c4.5,2.4,10.5,5.1,10.6,5.1c0.2,0.1,5.4,2.4,10.3,0c0.5-0.2,1.1-0.6,2-1.2l0,0c0,0,1.9-1.1,4.1-0.3c0,0,0,0,0,0l16.9,6
		C115.6,33.8,115.7,33.9,115.8,33.9z"/>
</g>
</svg>
