<?xml version="1.0" encoding="utf-8"?>
<!-- Generator: Adobe Illustrator 25.4.1, SVG Export Plug-In . SVG Version: 6.00 Build 0)  -->
<svg version="1.1" id="Layer_1" xmlns="http://www.w3.org/2000/svg" xmlns:xlink="http://www.w3.org/1999/xlink" x="0px" y="0px"
	 viewBox="0 0 197.7 80" style="enable-background:new 0 0 197.7 80;" xml:space="preserve">
<style type="text/css">
	.st0{fill:#253780;}
</style>
<g>
	<g>
		<path class="st0" d="M129.7,12.9c0.1,0.1,0.3,0.1,0.4,0.1c0.3,0,0.5-0.1,0.7-0.4c0.8-1.3,1.7-2.6,2.1-3c0.5,0.4,1.4,1.7,2.2,3
			c0.2,0.4,0.7,0.5,1.1,0.3c0.4-0.2,0.5-0.7,0.3-1.1c-2.3-3.8-3.2-3.8-3.5-3.8c-0.3,0-1.3,0-3.4,3.8
			C129.3,12.3,129.4,12.7,129.7,12.9z"/>
		<path class="st0" d="M197.3,0.7C197.2,0.5,197,0,196.2,0L196,0c-1.4,0-3.2,0-20.9,4.8l-38.9,11.1c-0.3,0.1-0.5,0.4-0.6,0.7
			c0,0.3,0.2,0.6,0.5,0.7l22.1,7.8c0.2,0.1,0.3,0.1,0.5,0l0,0c0,0,0,0,0,0c0.1,0,0.2-0.1,0.2-0.1c0.2-0.1,0.6-0.4,1.1-0.8
			c0.3-0.3-0.6-0.6-1.8-1c0,0,0,0,0,0l-9.5-3l0,0l-9.9-3.5l36.6-10.5c14.8-4.1,18.3-4.6,19.8-4.7c-0.3,0.3-0.6,0.5-0.9,0.8
			c-0.3,0.2-29.2,23.3-33.6,25.5c-4.2,2.1-8.9,0-9,0c-0.1,0-7.6-3.4-12-5.9c-2.2-1.3-3.6-1.5-4.4-0.9c-0.5,0.4-0.6,1.1-0.5,1.6
			l-1.5,28.9l0,0c0,0-0.1,1.1-0.6,1.1c-0.3,0-0.4-0.5-0.5-0.8c-0.7-14.2-1.5-29.1-1.6-29.8c-0.1-0.4-0.3-0.7-0.6-0.9
			c-0.3-0.2-0.7-0.2-1.1-0.1c-0.1,0-0.1,0-0.2,0c-1.2,0.3-2.9,1.1-5.5,2.4c-0.6,0.3-1.2,0.6-1.8,0.9c-0.6,0.3-1.2,0.6-1.8,0.9
			c-3.5,1.8-7.1,3.6-9.2,3.6c-2.9,0-5.1-0.7-7.5-2.5c-0.9-0.7-3.1-2.3-5.8-4.4c-5.5-4.3-13.9-10.7-19.6-14.8
			c-3.8-2.8-5.7-4.5-6.6-5.4c14.6,2.9,46.8,12.4,55.5,15l-11.6,4.2c0,0-5.3,1.8-6.8,2.3c-1.6,0.5-2.6,0.8-2.3,1.2
			c0.3,0.4,1.1,0.8,1.1,0.8l0,0c0.2,0.1,0.4,0.1,0.7,0.1l21.7-7.9c0.3-0.1,0.5-0.4,0.5-0.7c0-0.3-0.2-0.6-0.5-0.7
			C129.1,15.9,85.7,2.9,70,0c-0.3-0.1-0.6,0.1-0.8,0.3c-0.5,0.7,0.4,1.8,0.7,2.2c1.2,1.4,3.6,3.4,7.1,6c5.6,4.1,14,10.5,19.5,14.8
			c0.9,0.7,1.8,1.3,2.5,1.9c0,0,0,0,0,0c0.5,0.4-0.2,0.9-0.2,0.9l-17.5,6.2c0,0-0.1,0-0.1,0c-0.5,0.2-1.6,0.9-1.4,1.9
			c0.2,0.9,1.3,1.2,2.3,1.4c3.2,0.4,26.8,2.2,30.7,2.4c0.1,0,0.2,0,0.4,0c3.9,0,8.2-3,10.2-5.1c1.2-1.3,3.4-5.1,4.9-7.8
			c0,0,1.2-1.3,1.3,0.5c0.5,9.3,1.8,35.6,2.6,51c0,0,0,0.1,0,0.2c0,0.1,0,0.2,0,0.3c0,0,0,0,0,0c0.1,0.9,0.2,3,0.7,3
			c0.6,0,0.8-2,0.8-3l2.7-51.5c0,0,0.8-1.9,1.6-0.5c0,0,0,0,0,0c1.5,2.7,3.7,6.7,5,8c2,2.1,6.3,5.1,10.2,5.1c0.1,0,0.2,0,0.4,0
			c3.9-0.2,27.5-2,30.7-2.4c1-0.1,2.1-0.4,2.3-1.4c0.2-1-0.9-1.6-1.4-1.9c0,0-0.1,0-0.1,0l-16.8-6c0,0-1.5-0.6-0.5-1.4c0,0,0,0,0,0
			c9.8-7.2,26.7-20.7,27.7-21.5C197.7,1.7,197.4,1,197.3,0.7z M122.3,31.9c-1.8,1.9-5.9,4.8-9.4,4.6c-3.9-0.2-27.4-2-30.6-2.4
			c-0.3,0-0.6-0.1-0.7-0.1c0.1-0.1,0.2-0.1,0.3-0.2l16.9-6v0c0,0,2.4-0.8,3.5,0c2.6,1.9,5.1,2.8,8.4,2.8c2.5,0,6.1-1.8,9.9-3.8
			c0.6-0.3,1.2-0.6,1.8-0.9c0.6-0.3,1.2-0.6,1.8-0.9c0.5-0.3,1.1-0.5,1.6-0.8c0,0,1.6-0.4,1,0.5C125.4,27.3,123.4,30.7,122.3,31.9z
			 M184.8,33.9c-0.2,0-0.4,0.1-0.7,0.1c-3.2,0.4-26.7,2.2-30.6,2.4c-3.5,0.2-7.6-2.7-9.4-4.6c-1.1-1.1-3-4.5-4.4-7.1
			c0,0-0.2-1,0.9-0.7c0,0,0,0,0,0c4.5,2.4,10.5,5.1,10.6,5.1c0.2,0.1,5.4,2.4,10.3,0c0.5-0.2,1.1-0.6,2-1.2l0,0c0,0,1.9-1.1,4.1-0.3
			c0,0,0,0,0,0l16.9,6C184.6,33.8,184.7,33.9,184.8,33.9z"/>
	</g>
	<g>
		<path class="st0" d="M14.7,46.6C2.5,47.5,0,51.1,0,54.5v23.5c0,0-0.1,1.8,2.3,1.8c2.4,0,2.3-1.8,2.3-1.8V54.5c0,0,0.1-2.6,5.8-3.4
			s11.2-1.2,11.2,3.4v23.5c0,0-0.1,1.8,2.3,1.8c2.4,0,2.3-1.8,2.3-1.8V54.5C26,54.5,27.5,45.5,14.7,46.6z"/>
		<path class="st0" d="M86.2,46.6c-2.6,0-8.8,0.3-12.3,3c0,0-2.1,1.9-2.1,4.9v23.5c0,0-0.1,1.8,2.3,1.8c2.4,0,2.3-1.8,2.3-1.8V54.5
			c0,0,0.1-2.9,3.3-3.1s7.2,0.1,8.4-1.2C89.3,48.9,88.8,46.6,86.2,46.6z"/>
		<path class="st0" d="M58,47.5c-1.5-0.9-3.3-1.1-5-1.2c-0.3,0-0.7,0-1-0.1c-3.5-0.2-7.2-0.2-10.3,1.5c-2.5,1.3-4.4,3.5-5.5,6.1
			c-1.2,2.9-1.1,6-1.1,9c0,5-0.1,11.4,4.4,14.8c2,1.5,4.7,2,7.1,2.2c1.6,0.1,3.3,0.1,4.9,0.1c2,0,4.1-0.2,5.9-1.2
			c1.6-0.9,2.9-2.3,3.8-4c1.9-3.2,1.9-6.6,1.9-10.2c0-2.3,0-4.6,0-6.9c0,0,0,0,0,0C63.1,53.8,61.3,49.5,58,47.5z M58.5,68.2
			c-0.1,2.6-1,5.6-3.5,6.9c-1.7,1-3.7,1.3-5.7,1.3c-1.7,0-3.9,0-5.5-0.8c-2.9-1.5-3.9-5-4.2-8c-0.1-0.8-0.1-1.6-0.1-2.4
			c0-1.7,0.1-3.3,0.1-5c0-1.6-0.1-3,0.6-4.6c0.8-1.9,2.3-3.7,4.3-4.4c0.9-0.3,1.8-0.5,2.7-0.5h4.6c0,0,6.7,1.2,6.7,6.7
			C58.5,61.1,58.6,64.6,58.5,68.2z"/>
		<path class="st0" d="M120.1,57.5L120.1,57.5l0-24.7c0,0,0.1-1.8-2.3-1.8c-2.4,0-2.3,1.8-2.3,1.8v15.1c-0.2-0.1-0.4-0.3-0.6-0.4
			c-1.5-0.9-3.3-1.1-5-1.2c-0.3,0-0.7,0-1-0.1c-3.5-0.2-7.2-0.2-10.3,1.5c-2.5,1.3-4.4,3.5-5.5,6.1c-1.2,2.9-1.1,6-1.1,9
			c0,5-0.1,11.4,4.4,14.8c2,1.5,4.7,2,7.1,2.2c1.6,0.1,3.3,0.1,4.9,0.1c2,0,4.9-0.2,6.7-1.1c1.6-0.9,2.4-1.4,3.3-3
			c1.9-3.2,1.6-7.6,1.6-11.2C120.1,62.2,120.1,59.9,120.1,57.5C120.1,57.5,120.1,57.5,120.1,57.5z M115.5,68.2
			c-0.1,2.6-1,5.6-3.5,6.9c-1.7,1-3.7,1.3-5.7,1.3c-1.7,0-3.9,0-5.5-0.8c-2.9-1.5-3.9-5-4.2-8c-0.1-0.8-0.1-1.6-0.1-2.4
			c0-1.7,0.1-3.3,0.1-5c0-1.6-0.1-3,0.6-4.6c0.8-1.9,2.3-3.7,4.3-4.4c0.9-0.3,1.8-0.5,2.7-0.5h4.6c0,0,6.7,1.2,6.7,6.7
			C115.5,61.1,115.6,64.6,115.5,68.2z"/>
		<path class="st0" d="M165.6,75.5c-1.9,0.7-5.2,0.9-5.2,0.9l0,0c-0.4,0-0.9,0.1-1.3,0.1c-1.7,0-3.9,0-5.5-0.8c-2.9-1.5-3.9-5-4.2-8
			c-0.1-0.8-0.1-1.6-0.1-2.4c0-1.7,0.1-3.3,0.1-5c0-1.6-0.1-3,0.6-4.6c0.8-1.9,2.3-3.7,4.3-4.4c0.9-0.3,1.8-0.5,2.7-0.5h4.6
			c0,0,0.1,0,0.4,0.1c0.1,0,0.2,0,0.3,0.1c0.3,0.1,0.7,0.2,1.1,0.4c1.8,0.5,1.9,0,2.2-0.1c0.3-0.1,1.7-1.7,1.9-2.8
			c0.2-1-1.2-1.6-1.2-1.6c-1.1-0.4-2.3-0.5-3.5-0.6c-0.3,0-0.7,0-1-0.1c-3.5-0.2-7.2-0.2-10.3,1.5c-2.5,1.3-4.4,3.5-5.5,6.1
			c-1.2,2.9-1.1,6-1.1,9c0,5-0.1,11.4,4.4,14.8c2,1.5,4.7,2,7.1,2.2c1.6,0.1,3.3,0.1,4.9,0.1c2,0,4.9-0.2,6.7-1.1
			c0.7-0.3,0.2-1-0.4-2.3C166.8,75.1,165.6,75.5,165.6,75.5z"/>
		<path class="st0" d="M195.4,48.1c-2-1.5-6.4-2-10.9-1.4c-4.5,0.5-7.5,1.4-7.5,1.4s-1.9,0.7-1.3,2.2c0,0,0.2,1.4,2.1,1.1
			s8.6-1.9,11.6-1.1c3,0.8,3.8,1.7,3.8,2.8v8.3h-10.4c0,0-5.3,0-7.5,2c-2.2,2-2.7,5.6-2.5,8.1c0.2,2.5,1.1,5.8,4.5,7.2
			c3.4,1.4,10.7,1.1,13.8,0.8c3.1-0.3,6.7-1.8,6.7-4.5V53.1C197.7,53.1,197.5,49.6,195.4,48.1z M187.4,76.4c-4.2,0-6.9-0.3-8.3-1.2
			c-1.4-0.8-2.1-3.8-2-5.8c0.1-2,2.8-4.6,6.2-4.9c2.7-0.2,7.8-0.1,9.9,0v8.5C193.2,73.1,191.6,76.4,187.4,76.4z"/>
	</g>
</g>
</svg>
