<?xml version="1.0" encoding="utf-8"?>
<!-- Generator: Adobe Illustrator 25.4.1, SVG Export Plug-In . SVG Version: 6.00 Build 0)  -->
<svg version="1.1" id="Layer_1" xmlns="http://www.w3.org/2000/svg" xmlns:xlink="http://www.w3.org/1999/xlink" x="0px" y="0px"
	 viewBox="0 0 290.12 80" style="enable-background:new 0 0 290.12 80;" xml:space="preserve">
<style type="text/css">
	.st0{fill:#FF0023;}
</style>
<g>
	<g>
		<path class="st0" d="M79.9,37.72c-0.23-4.58-1.29-8.97-3.05-13.2c-0.3-0.73-0.64-1.45-1.02-2.16l0,0l-0.65-1.33
			c-0.06-0.14-0.13-0.28-0.21-0.42c-4.3-7.7-10.54-13.3-18.5-17.02c-3.46-1.62-7.08-2.65-10.86-3.15c-1.19-0.16-2.38-0.23-3.57-0.35
			C41.83,0.07,41.61,0.03,41.4,0c-0.86,0-1.72,0-2.58,0c-0.88,0.08-1.76,0.13-2.64,0.23c-0.75,0.09-1.5,0.19-2.24,0.3
			c0,0-0.01,0-0.01,0c-3.12,0.38-3.55,0.68-3.55,0.68s0,0,0,0c-3.58,0.89-6.97,2.26-10.19,4.07c-2.44,1.37-4.67,3.03-6.76,4.89
			c-3.15,2.79-5.76,6.03-7.93,9.63c-0.01,0.01-0.01,0.02-0.02,0.03c-0.52,0.83-0.98,1.73-1.31,2.41c0,0,0,0,0-0.01
			c-0.03,0.06-0.05,0.12-0.08,0.18c-0.25,0.53-0.4,0.89-0.4,0.89l0,0c-0.23,0.5-0.45,0.99-0.65,1.49c-1.35,3.22-2.25,6.57-2.7,10.03
			c-0.42,3.25-0.44,6.51-0.05,9.78c0.67,5.61,2.44,10.83,5.27,15.7l0,0c0,0,0.05,0.09,0.14,0.24c0.01,0.02,0.02,0.03,0.03,0.05
			c0,0,0,0,0,0c0.37,0.62,1.26,2.09,1.85,2.83c0,0,0,0,0,0c0.1,0.14,0.2,0.27,0.3,0.39c1.14,1.37,2.24,2.78,3.46,4.08
			c1.73,1.83,3.65,3.45,5.73,4.88c3.76,2.6,7.81,4.56,12.22,5.78c2.62,0.73,5.28,1.15,7.99,1.34c3.35,0.24,6.66,0.03,9.96-0.56
			c5.2-0.93,10.02-2.84,14.46-5.71c2.95-1.91,5.63-4.14,7.94-6.77c1.29-1.48,2.43-3.08,3.63-4.64c0.03-0.04,0.06-0.09,0.08-0.14
			c0.47-0.69,1.01-1.57,1.01-1.57c1.94-3.23,3.4-6.67,4.35-10.32c0.66-2.52,1.09-5.09,1.22-7.7c0.01-0.18,0.06-0.35,0.1-0.53
			c0-1.25,0-2.5,0-3.75C79.97,38.05,79.91,37.88,79.9,37.72z M76.48,36.66c-0.05,0.02-0.1,0.04-0.14,0.05
			c-0.15-0.18-0.3-0.35-0.44-0.53c-1.18-1.48-2.34-2.96-3.54-4.42c-0.3-0.37-0.31-0.79-0.37-1.21c-0.11-0.78-0.23-1.56-0.35-2.34
			c0.07-0.04,0.13-0.09,0.2-0.13c0.05,0.1,0.08,0.22,0.14,0.31c1.2,1.56,2.42,3.1,3.58,4.68c0.26,0.36,0.39,0.84,0.5,1.29
			C76.24,35.12,76.35,35.89,76.48,36.66z M69.8,19.22c1.9,2.8,3.56,5.74,4.95,8.84c-0.04,0.02-0.08,0.05-0.11,0.07
			c-0.27-0.34-0.55-0.67-0.82-1.01c-0.95-1.2-1.92-2.39-2.85-3.61c-0.17-0.23-0.23-0.54-0.34-0.82c-0.05-0.13-0.1-0.26-0.15-0.4
			l-0.25-0.97c0,0,0,0,0,0c-0.03-0.12-0.06-0.24-0.1-0.36l0,0l0,0c-0.15-0.56-0.3-1.12-0.45-1.68
			C69.73,19.25,69.76,19.23,69.8,19.22z M73.42,54.21c-0.36,0.84-0.74,1.68-1.12,2.51c-0.05-0.01-0.1-0.02-0.15-0.03
			c-0.42-0.85-0.84-1.69-1.26-2.54c-0.7-1.42-1.4-2.84-2.09-4.26c-0.05-0.1-0.04-0.32,0.04-0.39c0.44-0.38,0.9-0.73,1.4-1.12
			c0.28,0.49,0.57,0.97,0.85,1.46c0.74,1.31,1.49,2.62,2.22,3.93C73.38,53.91,73.46,54.1,73.42,54.21z M64.77,52.18
			c-0.33-0.81-0.33-0.81,0.5-1.12c0.34-0.13,0.68-0.26,1.02-0.38c0.02-0.01,0.05-0.01,0.14-0.02c0.19,0.37,0.4,0.75,0.59,1.14
			c1.12,2.35,2.22,4.7,3.36,7.04c0.24,0.49,0.26,0.9-0.13,1.31c-0.05,0.06-0.09,0.13-0.14,0.19c-0.03,0.05-0.06,0.09-0.09,0.13
			c0,0,0,0,0,0l-0.02,0.03C70,60.51,70,60.51,69.99,60.52l-0.34,0.52l-0.84,1.06l-0.07-0.09c0,0,0,0,0,0l0,0l-0.69-1.64l0,0
			C66.96,57.63,65.86,54.91,64.77,52.18z M46.72,4.37c0,0.03,0.01,0.07,0.01,0.1c-0.19,0-0.39,0-0.58,0
			c-2.92-0.01-5.82,0.29-8.71,0.66c-3.23,0.41-6.46,0.74-9.69,1.09c-0.21,0.02-0.43,0-0.65,0c-0.01-0.06-0.02-0.12-0.03-0.18
			C33.45,3.71,39.99,3.02,46.72,4.37z M21.09,9c0.76-0.57,1.56-0.76,2.54-0.68c2.86,0.24,5.72,0.11,8.57-0.23
			c3.22-0.38,6.43-0.77,9.66-1.08c3.36-0.32,6.71-0.18,10.02,0.52c1.07,0.22,2.11,0.55,3.17,0.83c0.11,0.03,0.21,0.09,0.31,0.14
			c-0.01,0.03-0.01,0.06-0.02,0.09c-0.58-0.08-1.15-0.15-1.73-0.23c-2.44-0.32-4.89-0.5-7.36-0.44C43.3,8,40.39,8.42,37.47,8.79
			c-3.02,0.38-6.04,0.76-9.07,1.05c-2.61,0.25-5.23,0.04-7.83-0.25c-0.05-0.01-0.09-0.03-0.23-0.08C20.63,9.31,20.87,9.16,21.09,9z
			 M15.82,12.92c0.38-0.34,0.78-0.65,1.15-1c0.34-0.32,0.71-0.37,1.15-0.29c3.39,0.61,6.81,0.72,10.23,0.42
			c3.48-0.31,6.95-0.77,10.43-1.16c0.74-0.08,1.47-0.16,2.21-0.23c0.13-0.01,0.27,0,0.41,0c0,0.03,0.01,0.07,0.01,0.1
			c-0.55,0.11-1.09,0.23-1.64,0.34c-2.51,0.49-5.03,0.99-7.54,1.47c-5.03,0.97-10.09,1.45-15.22,1c-0.48-0.04-0.96-0.14-1.55-0.22
			C15.63,13.12,15.71,13.01,15.82,12.92z M7.87,56.87c-0.11-0.16-0.2-0.25-0.25-0.35c-0.36-0.76-0.73-1.52-1.06-2.3
			c-0.08-0.19-0.08-0.48,0.01-0.67c0.83-1.81,1.69-3.6,2.55-5.4c0.01-0.02,0.04-0.04,0.14-0.14c0.18,0.7,0.29,1.34,0.51,1.94
			c0.31,0.82,0.15,1.55-0.17,2.33c-0.51,1.26-0.95,2.56-1.43,3.84C8.1,56.34,8,56.56,7.87,56.87z M8.18,22.77
			c-0.05,0.48-0.09,0.96-0.15,1.44c-0.09,0.8-0.18,1.6-0.29,2.4c-0.03,0.21-0.09,0.44-0.2,0.62c-0.9,1.46-1.81,2.92-2.72,4.37
			c-0.02,0.03-0.06,0.04-0.09,0.06c-0.03-0.02-0.06-0.03-0.1-0.05c0.79-3.09,1.88-6.07,3.42-8.87C8.1,22.76,8.14,22.77,8.18,22.77z
			 M6.14,37.53c-0.51,0.99-1.03,1.97-1.53,2.96c0,0,0,0,0,0c-0.24,0.47-0.83,1.15-0.83,1.15l-0.08-0.87c0-0.51,0.03-1.01-0.01-1.52
			c-0.06-0.83,0.15-1.57,0.56-2.3c1-1.78,1.94-3.59,2.91-5.38c0.11-0.21,0.25-0.41,0.41-0.66c0.05,0.11,0.08,0.15,0.08,0.2
			c0.01,0.12,0.02,0.23,0.01,0.35c-0.02,1.08,0.13,2.2-0.13,3.22C7.31,35.68,6.63,36.58,6.14,37.53z M5.08,50.09
			c-0.23-0.93-0.48-1.86-0.65-2.81c-0.05-0.3,0.07-0.67,0.2-0.97c0.55-1.25,1.11-2.49,1.7-3.72c0.02-0.04,0.03-0.07,0.05-0.11
			c0,0,0,0,0,0l0.91-2c0.03-0.06,0.06-0.12,0.09-0.18c0.14-0.29,0.29-0.57,0.5-0.85c0.02,0.18,0.04,0.36,0.07,0.54l0,0l0.35,2.72
			c0,0.06,0.01,0.12,0.02,0.18c0.24,1.44,0.19,1.43-0.53,2.74c-0.74,1.37-1.43,2.77-2.14,4.16c-0.11,0.22-0.23,0.43-0.39,0.74
			C5.18,50.33,5.11,50.22,5.08,50.09z M9.85,58.69c0.62-1.78,1.26-3.55,1.91-5.32c0.21-0.58,0.22-0.56,0.72-0.24
			c0.53,0.34,1.09,0.65,1.64,0.97c0.13,0.08,0.26,0.15,0.41,0.24c-0.77,2.19-1.52,4.36-2.3,6.59l-0.58,1.61
			c-0.12-0.02-0.32-0.22-0.54-0.48c-0.17-0.24-0.35-0.49-0.56-0.78c0,0,0,0.01-0.01,0.01c-0.14-0.21-0.27-0.4-0.34-0.52
			c-0.03-0.04-0.05-0.09-0.08-0.13C9.36,59.55,9.41,59.95,9.85,58.69z M15.47,66.82c-0.68-0.67-1.27-1.23-1.84-1.82
			c-0.06-0.06-0.05-0.22-0.02-0.32c0.18-0.64,0.33-1.29,0.58-1.9c0.05-0.11,0.08-0.22,0.1-0.33l0.39-1.17
			c0.7-2.02,1.41-4.05,2.1-6.08c0.08-0.25,0.19-0.33,0.44-0.28c0.44,0.09,0.89,0.17,1.39,0.26C17.58,59.06,16.54,62.88,15.47,66.82z
			 M37.54,48.69c-6.22,2.61-12.63,3.26-19.26,2.05c2.37-1.44,4.9-2.44,7.61-2.98C29.84,46.98,33.74,47.22,37.54,48.69z M18.66,69.42
			c-1.09-0.76-1.08-0.76-0.75-2.04c1.01-3.84,2.02-7.67,3.01-11.51c0.08-0.3,0.2-0.42,0.51-0.37c0.32,0.05,0.64,0.07,1.04,0.11
			c-0.91,4.85-1.81,9.65-2.73,14.55C19.33,69.88,18.99,69.65,18.66,69.42z M22.13,71.62c-0.09-0.06-0.14-0.28-0.12-0.41
			c0.14-0.86,0.31-1.71,0.47-2.57c0.45-2.44,0.9-4.88,1.35-7.32c0.32-1.75,0.64-3.5,0.99-5.25c0.03-0.18,0.23-0.44,0.37-0.45
			c0.55-0.05,1.11-0.02,1.75-0.02c-1.03,5.65-2.05,11.26-3.09,16.99C23.26,72.25,22.68,71.96,22.13,71.62z M28.34,74.43
			c-0.67-0.24-1.27-0.45-1.85-0.69c-0.09-0.04-0.18-0.25-0.17-0.37c0.1-0.8,0.2-1.6,0.34-2.39c0.49-2.8,0.99-5.61,1.49-8.41
			c0.4-2.29,0.81-4.58,1.2-6.87c0.05-0.28,0.16-0.42,0.47-0.44c0.4-0.02,0.79-0.11,1.28-0.18C30.18,61.52,29.27,67.93,28.34,74.43z
			 M33.25,75.29c-0.01,0.11-0.04,0.22-0.08,0.43c-0.77-0.19-1.51-0.36-2.24-0.56c-0.08-0.02-0.16-0.23-0.15-0.33
			c0.14-1.16,0.28-2.31,0.44-3.47l1.93-13.65c0,0,0,0,0,0c0.13-0.89,0.26-1.78,0.37-2.68c0.05-0.4,0.21-0.6,0.6-0.67
			c0.33-0.06,0.65-0.17,1.07-0.29c-0.08,0.89-0.16,1.76-0.24,2.63l0,0c0,0-0.98,10.71-1,10.95c0,0,0,0,0,0
			c-0.16,1.76-0.33,3.53-0.49,5.29C33.39,73.74,33.33,74.52,33.25,75.29z M38.25,76.3c-0.79-0.06-1.58-0.11-2.37-0.19
			c-0.08-0.01-0.19-0.22-0.19-0.34c0.02-0.66,0.07-1.33,0.12-1.99l1.35-16.52l0,0c0.11-1.22,0.22-2.45,0.33-3.67
			c0.01-0.14,0.12-0.33,0.24-0.39c0.27-0.14,0.58-0.21,0.93-0.32C38.53,60.72,38.39,68.48,38.25,76.3z M39.95,45.2
			c-2.25-0.99-4.61-1.55-7.04-1.82c-0.1-0.01-0.2-0.03-0.37-0.05c0.05-0.16,0.08-0.32,0.15-0.44c0.01-0.02,0.02-0.04,0.03-0.06
			c0,0,0,0,0,0s0.18-0.29,0.38-0.6c0.04-0.05,0.07-0.1,0.09-0.15c0,0,0,0,0,0c0.14-0.23,0.26-0.34,0.37-0.41
			c0.08-0.03,0.14-0.07,0.19-0.12c0,0,0,0,0,0c0.18-0.11,1.22-0.87,1.22-0.87s0,0,0,0c0.22-0.11,0.36-0.3,0.48-0.62
			c0.33-0.89,0.2-1.74-0.44-2.44c-0.62-0.68-1.41-0.73-2.23-0.44c-1.29,0.45-2.23,1.37-3.08,2.39c-0.8,0.95-1.23,2.08-1.51,3.27
			c-0.08,0.33-0.21,0.51-0.58,0.55c-2.27,0.25-4.5,0.69-6.66,1.44c-2.51,0.86-4.89,1.98-7.12,3.43c-0.12,0.08-0.24,0.14-0.43,0.26
			c-0.09-0.38-0.18-0.71-0.25-1.05c-0.32-1.59-0.66-3.18-0.93-4.79c-0.7-4.09-0.8-8.22-0.66-12.36c0.09-2.63,0.32-5.25,0.46-7.87
			c0.09-1.79,0.46-3.54,0.65-5.31c0.03-0.3,0.18-0.35,0.45-0.29c2.96,0.61,5.96,0.81,8.98,0.66c2.19-0.11,4.39-0.31,6.57-0.59
			c4.77-0.61,9.45-1.67,14.17-2.58c3.76-0.72,7.53-1.35,11.36-1.62c2.83-0.2,5.65-0.18,8.47,0.1c0.15,0.02,0.31,0.06,0.46,0.08
			c0.35,0.05,0.54,0.22,0.64,0.57c0.71,2.53,1.51,5.03,2.15,7.58c0.59,2.38,1.09,4.8,1.5,7.22c0.37,2.17,0.63,4.36,0.81,6.54
			c0.15,1.81,0.11,3.64,0.16,5.46c0,0.15,0,0.31,0,0.51c0,0-0.01,0.15-0.01,0.36c-0.01,0.04-0.02,0.08-0.02,0.14
			c0,0.03,0,0.06,0.01,0.09c-0.01,0.21-0.02,0.45-0.03,0.66c-0.01,0.05-0.01,0.1-0.01,0.14c-0.01,0.17-0.02,0.31-0.02,0.37
			c-0.05,0.52-0.09,1.04-0.15,1.63c-0.26-0.1-0.47-0.19-0.68-0.28c-1.09-0.43-2.17-0.87-3.26-1.29c-0.31-0.12-0.63-0.21-0.94-0.29
			c-0.1-0.03-0.2-0.07-0.3-0.1l0,0l0,0c-0.02-0.01-0.04-0.01-0.06-0.02l-0.48-0.12c-0.65-0.13-1.31-0.28-1.97-0.4
			c-2.85-0.52-5.72-0.57-8.6-0.21c-1.08,0.14-2.15,0.36-3.23,0.56c-0.22,0.04-0.3-0.01-0.36-0.22c-0.55-2.22-1.12-4.44-1.68-6.66
			c-1.01-4.01-2.02-8.02-3.04-12.03c0,0,0,0,0,0L43.53,23c-0.01-0.04-0.02-0.07-0.03-0.11c0,0,0,0,0-0.01l-0.15-0.6l-0.19-0.81
			c-0.02-0.1-0.05-0.2-0.07-0.31l-0.18-0.71l0,0c-0.15-0.65-0.33-1.29-0.49-1.94c-0.46-1.84-2.19-1.9-3.29-1
			c-0.7,0.57-0.98,1.32-0.81,2.19c0.1,0.54,0.24,1.08,0.38,1.61v0l0.13,0.5c0.01,0.05,0.03,0.11,0.04,0.16c0,0,0,0,0,0.01l0.43,1.65
			c1.03,4.08,2.05,8.15,3.08,12.23c0.37,1.46,0.74,2.93,1.13,4.39c0,0,0,0,0,0l0.2,0.76c0,0,0,0,0,0c0.02,0.08,0.04,0.15,0.06,0.22
			l0,0l0.03,0.12c0,0.02,0.01,0.03,0.01,0.05l0.15,0.57l0.18,0.77c0.02,0.08,0.04,0.15,0.06,0.23c0.09,0.29,0.02,0.45-0.28,0.6
			c-1,0.49-1.99,1.03-2.96,1.57C40.59,45.35,40.31,45.36,39.95,45.2z M57.21,45.23c3,0.18,6.21,1.08,6.94,1.89
			c-6.54,2.22-13.11,2.56-19.78,0.93C48.37,45.81,52.68,44.96,57.21,45.23z M44.05,76.12c-0.71,0.05-1.43,0.11-2.14,0.17
			c-0.26,0.02-0.52,0.04-0.77,0.06c-0.28,0.03-0.4-0.07-0.4-0.37c0-1.21-0.03-2.42-0.02-3.63c0.04-6.3,0.09-12.6,0.13-18.9
			c0-0.39,0.03-0.78,0.05-1.19c0.33,0,0.63-0.02,0.92,0.01c0.08,0.01,0.2,0.16,0.21,0.25c0.19,1.9,0.36,3.81,0.55,5.71
			c0.04,0.42,0.09,0.85,0.13,1.28l0.21,1.99c0,0,0,0,0,0c0,0.18,0.01,0.33,0.05,0.45l0.67,6.43l0,0c0.21,2.06,0.43,4.12,0.64,6.17
			c0.04,0.39,0.06,0.78,0.1,1.17C44.39,75.98,44.3,76.1,44.05,76.12z M49.61,74.81c-0.01,0.11-0.12,0.26-0.21,0.29
			c-0.84,0.22-1.69,0.41-2.61,0.63c-0.3-2.47-0.57-4.89-0.89-7.29c-0.23-1.71-0.35-3.44-0.61-5.15c-0.31-2.56-0.67-5.56-0.67-5.56
			l0,0c-0.2-1.7-0.41-3.41-0.62-5.15c0.39,0.08,0.74,0.12,1.06,0.23c0.11,0.04,0.2,0.26,0.23,0.41c0.29,1.33,0.57,2.67,0.85,4
			c0.82,3.93,1.64,7.86,2.44,11.8c0.35,1.75,0.66,3.5,0.98,5.25C49.58,74.45,49.62,74.64,49.61,74.81z M53.52,73.74
			c-0.42,0.17-0.85,0.32-1.28,0.47c-0.05,0.02-0.1,0.01-0.18,0.02c-1.49-6.99-2.99-13.97-4.49-21.03c0.39,0.03,0.74,0.02,1.05,0.1
			c0.12,0.03,0.24,0.25,0.28,0.41c0.45,1.52,0.89,3.05,1.31,4.57c1.31,4.74,2.63,9.47,3.91,14.21
			C54.41,73.54,54.5,73.34,53.52,73.74z M58.36,71.38c-0.56,0.3-1.1,0.62-1.73,0.98c-1.86-6.32-3.7-12.56-5.57-18.91
			c0.71,0,1.33-0.02,1.95,0.02c0.1,0.01,0.23,0.24,0.28,0.39c0.56,1.76,1.1,3.52,1.65,5.28c1.17,3.8,2.34,7.6,3.51,11.4
			c0.04,0.12,0.05,0.26,0.1,0.38C58.64,71.14,58.57,71.27,58.36,71.38z M62.8,68.31c-0.55,0.39-1.07,0.82-1.61,1.23
			c-0.11,0.08-0.24,0.14-0.41,0.24c-1.71-5.5-3.41-10.95-5.13-16.47c0.44-0.06,0.83-0.11,1.22-0.17c0.92-0.13,0.9-0.12,1.21,0.77
			c1.19,3.42,2.39,6.84,3.59,10.27c0.42,1.21,0.85,2.43,1.28,3.64C63.03,68.03,63,68.16,62.8,68.31z M66.75,64.56
			c-0.54,0.57-1.12,1.11-1.71,1.69c-0.07-0.15-0.13-0.29-0.18-0.43c-0.11-0.31-0.22-0.63-0.33-0.94c0.03,0.02,0.04,0.03,0.04,0.03
			l-2.59-7.18c0,0,0,0,0,0c-0.57-1.62-1.15-3.24-1.72-4.85c-0.03-0.07-0.04-0.15-0.08-0.28c0.42-0.11,0.83-0.21,1.24-0.31
			c0.14-0.03,0.28-0.06,0.42-0.1c0.22-0.07,0.34-0.03,0.44,0.22c1.07,2.72,2.15,5.44,3.23,8.15l0.61,1.56
			c0.26,0.62,0.51,1.25,0.72,1.89C66.88,64.16,66.86,64.44,66.75,64.56z M75.47,47.91c-0.21,0.96-0.49,1.91-0.75,2.86
			c-0.02,0.07-0.07,0.13-0.15,0.27c-0.56-0.83-1.08-1.61-1.6-2.38c-0.39-0.57-0.81-1.12-1.17-1.7c-0.13-0.2-0.23-0.49-0.2-0.72
			c0.16-1.08,0.37-2.15,0.56-3.22c0.01-0.05,0.04-0.09,0.08-0.19c0.1,0.11,0.18,0.19,0.24,0.28c0.94,1.32,1.89,2.64,2.81,3.98
			C75.43,47.31,75.53,47.66,75.47,47.91z M74.9,42.33l-0.28-0.34c-0.21-0.3-0.45-0.59-0.71-0.93l-0.13-0.17
			c-0.33-0.41-0.67-0.83-0.99-1.27c-0.13-0.18-0.27-0.4-0.29-0.62c-0.08-0.95-0.12-1.89-0.17-2.84c0-0.06,0.01-0.12,0.02-0.18
			c0.04-0.02,0.07-0.04,0.11-0.06c0.5,0.54,1.01,1.07,1.5,1.63c0.72,0.82,1.43,1.65,2.12,2.49c0.14,0.17,0.21,0.44,0.25,0.67
			c0.02,0.09,0.02,0.19,0.02,0.29l-0.14,1.97c0,0,0,0,0,0c-0.04,0.31-0.07,0.64-0.11,0.97C75.66,43.36,75.29,42.85,74.9,42.33z"/>
		<path class="st0" d="M31.88,22.59c-1.38-0.35-2.79-0.49-4.18-0.51c-1.73,0.03-3.42,0.18-5.06,0.62c-1.57,0.42-3.12,0.91-4.65,1.45
			c-0.89,0.32-1.24,1.06-1.12,2C17,27.13,17.9,28.05,19,27.74c0.39-0.11,0.77-0.23,1.15-0.37c3.61-1.35,7.28-1.94,11.1-1.07
			c0.99,0.23,1.6-0.07,1.97-0.83C33.84,24.21,33.25,22.94,31.88,22.59z"/>
		<path class="st0" d="M47.69,24.86c0.59,0.13,1.11-0.1,1.62-0.3c2.01-0.76,4.06-1.29,6.2-1.51c1.68-0.17,3.33-0.02,4.97,0.33
			c1.14,0.24,1.88-0.08,2.24-0.95c0.04-0.1,0.06-0.22,0.07-0.34c0-0.02,0.01-0.04,0.01-0.07c0.07-0.6-0.13-1.28-0.13-1.28l0,0
			c-0.01-0.03-0.02-0.07-0.03-0.1c-0.22-0.53-0.69-0.83-1.23-0.93c-0.94-0.18-1.89-0.35-2.85-0.44c-2.42-0.21-4.82,0.03-7.15,0.68
			c-1.42,0.4-2.82,0.89-4.21,1.41c-0.7,0.26-1.03,1.03-0.92,1.77C46.4,24.04,46.95,24.69,47.69,24.86z"/>
	</g>
	<path class="st0" d="M287.22,24.97c-4.71,0.42-9.41,0.91-14.11,1.33c-4.77,0.42-9.51,1.03-14.18,2.08
		c-3.13,0.71-6.23,1.54-9.48,1.55c-1.1,0.01-1.98-0.31-2.64-1.18c-0.48-0.64-1-0.58-1.5-0.09c-0.91,0.9-1.13,2.05-0.77,3.21
		c0.42,1.33,0.78,2.79,2.39,3.3c0.03,0.01,0.06,0.01,0.09,0.02c1.52,0.14,1.48,0.62,1.36,2c-0.04,0.44-0.14,0.88-0.27,1.3
		c-0.7,2.26-1.42,4.52-2.15,6.78c-0.07,0.22-0.22,0.42-0.34,0.63c-0.1,0-0.19-0.01-0.29-0.01c-0.1-0.37-0.18-0.75-0.3-1.11
		c-0.25-0.74-0.42-1.54-0.83-2.19c-0.42-0.66-1.03-1.23-1.65-1.73c-1.93-1.58-3.92-3.08-5.84-4.67c-0.48-0.4-0.91-0.95-1.14-1.53
		c-0.32-0.82,0.23-1.38,1.07-1.13c0.79,0.23,1.53,0.63,2.29,0.96c0.54,0.24,1.05,0.57,1.62,0.71c1.69,0.43,2.96-0.69,2.81-2.42
		c-0.11-1.22-0.8-2.16-1.68-2.95c-1.59-1.44-3.5-2.23-5.62-2.47c-1.26-0.14-2.54-0.16-3.86-0.24c0.31-0.82-0.06-1.06-0.8-1.01
		c-0.65,0.04-1.31,0.02-1.96,0.12c-4.53,0.67-9.05,1.32-13.57,2.05c-2.49,0.4-4.87,1.13-6.74,2.97c-0.02,0.02-0.1-0.02-0.15-0.03
		c0.19-1.91-0.43-2.74-2.36-3.02c-0.7-0.1-1.42-0.05-2.13-0.08c-0.62-0.03-1.33,0.1-1.85-0.15c-1.09-0.52-1.8-0.04-2.4,0.7
		c-1.38,1.7-2.67,3.49-4.07,5.17c-0.29,0.35-0.53,0.68-0.66,1.01l-0.63,0.9c-0.01-0.01-0.01-0.01-0.02-0.02
		c-0.19,0.24-0.36,0.48-0.56,0.69c-0.85,0.91-1.66,1.86-2.58,2.69c-0.35,0.31-0.96,0.51-1.42,0.45c-0.21-0.03-0.36-0.77-0.49-1.21
		c-0.23-3.04-1.59-5.91-6.11-5.91c-4.51,0-6.41,5.09-6.41,5.09s0,0,0,0c-0.9,1.65-1.78,3.3-2.62,4.98c-1.4,2.83-3.53,4.64-6.75,5.02
		c-0.06,0.01-0.11,0.03-0.17,0.05c-2.99,0.86-5.69,0.2-8.2-1.53c-0.19-0.13-0.33-0.34-0.61-0.64c3.84-1.06,7-3.07,10.14-5.09
		c1.54-0.99,3-2.13,4.35-3.36c1.22-1.12,1.79-2.63,1.29-4.29c-0.82-2.75-2.49-4.79-5.43-5.29c-2.09-0.36-4.25-0.41-6.38-0.49
		c-3.34-0.12-6.39,0.87-9.17,2.7c-4.47,2.95-7.49,7.16-10.05,11.71c-1.05,1.87-2.35,3.33-4.26,4.25c-2.35,1.13-4.72,2.23-7.1,3.31
		c-0.36,0.16-0.71,0.32-1.07,0.47l-4.53,1.84c0.01-0.02,0.02-0.05,0.03-0.07c-1.37,0.55-2.53,1.03-3.78,1.54
		c0.01,0.02,0.02,0.03,0.03,0.05l-7.19,2.92c-1.22,0.37-1.78,0.25-2.32-0.89c-0.27-0.57-0.49-1.26-0.43-1.86
		c0.13-1.25,0.42-2.5,0.74-3.73c0.27-1.03,0.87-1.91,1.82-2.44c1.54-0.87,3.06-1.85,4.7-2.47c3.38-1.29,6.89-2.24,10.25-3.58
		c2.58-1.03,5-2.44,7.49-3.68c0,0,0.02,0.02,0.02,0.02c0-0.01,0-0.02,0-0.03c-0.01,0-0.01,0-0.02,0.01c0,0,0,0,0,0l0.02-0.01
		c1.9-0.81,3.58-1.94,5.05-3.37c0.32-0.31,0.47-0.78,0.7-1.17c-0.41-0.1-0.83-0.21-1.24-0.31c-0.17-0.04-0.35-0.04-0.53-0.06
		c-1.62-0.18-3.17,0.04-4.73,0.41c0,0,0,0,0,0c-4.73,0.41-14.45,4.98-14.45,4.98c-1.08,0.47-2.24,0.77-3.39,1.08
		c-1.16,0.32-1.22,0.24-1.29-0.97c0,0,0.7-4.06,3.48-5.56c0.44-0.22,0.87-0.43,1.33-0.59c1.93-0.68,3.96-1.09,5.85-1.86
		c4.43-1.8,8.8-3.72,13.18-5.65c0.89-0.39,1.67-1.02,2.49-1.55c0.67-0.43,1.39-0.82,1.98-1.35c0.71-0.64,1.43-1.33,1.89-2.14
		c0.45-0.79-0.04-1.55-0.96-1.7c-0.6-0.1-1.26-0.1-1.86,0.03c-3.02,0.66-6.03,1.35-9.03,2.09c-1.35,0.33-2.68,0.78-4,1.24
		c-3.14,1.1-6.27,2.23-9.4,3.35c-0.81,0.29-1.6,0.47-2.38-0.08c-1.77-1.24-3.75-1.7-5.9-1.56c-1.32,0.09-1.66,0.52-1.21,1.75
		c0.28,0.75,0.61,1.48,0.86,2.24c0.21,0.63,0.01,1.03-0.7,1.26c-1.95,0.63-3.94,0.86-5.98,0.72c-1.65-0.11-3.3-0.18-5.02-0.28
		c0.61,1.68,1.56,2.99,2.81,4.14c1.14,1.06,2.54,1.19,3.96,1.34c0,0,2.2,0.83,0.69,4.7c-0.88,1.74-2.21,3.08-3.89,4.17
		c-0.48,0.31-0.81,1.02-0.96,1.61c-0.16,0.64-0.01,1.35-0.03,2.03c-0.04,1.38-0.06,2.77-0.17,4.14c-0.06,0.7-0.31,1.38-0.46,2.08
		c-0.44,2.07-0.74,4.15-0.25,6.25c0.47,2.03,1.66,3.46,3.63,4.18c2.96,1.09,6.03,1.21,8.87-0.11c4.81-2.23,9.5-4.75,14.23-7.15
		c0.2-0.1,0.36-0.26,0.58-0.43l2.08-1.38c0,0,0,0.01,0,0.01c0.01-0.01,0.01-0.02,0.02-0.02l2.39-1.59c0.86-0.56,1.6-1.28,2.75-1.12
		c-0.03-0.04,0-0.02,0,0.01c0.05,0.2,0.09,0.4,0.13,0.6c0.52,2.24,1.85,3.89,3.86,4.97c2.07,1.12,3.76,0.41,4.43-1.85
		c0.75-2.51,2.1-4.7,3.53-6.85c0.31-0.46,0.84-0.77,1.27-1.16c0.44,0.5,0.88,1,1.31,1.5c0.04,0.04,0.05,0.11,0.07,0.16
		c0.68,2.08,2.29,3.4,4.14,4.19c5.02,2.13,9.25,1.2,13.37-2.73c0.22-0.21,0.44-0.41,0.81-0.76c0,0.67-0.01,1.1,0,1.53
		c0.04,1.3-0.01,2.61,0.18,3.88c0.15,0.97,1.08,1.52,2.01,1.32c0.42-0.09,0.82-0.21,1.19-0.38c0,0,2.14-0.33,3.55-3.47
		c0.38-0.84,0.7-1.5,0.99-2.17c0.62-1.41,1.2-2.84,1.86-4.23c0.27-0.58,0.65-1.13,1.06-1.64c0.94-1.15,1.79-1.01,2.37,0.38
		c0.18,0.44,0.26,0.92,0.45,1.35c0.73,1.65,1.46,3.29,2.24,4.91c0,0,2.44,6.56,5.05,4.52c1.06-0.83,2.44-2.61,3.71-4.44
		c0.03-0.03,0.05-0.05,0.08-0.08c0.17-0.23,0.33-0.48,0.48-0.73c1.61-2.39,2.91-4.62,2.91-4.62h0c1.27-1.99,2.54-3.98,3.78-5.99
		c0.48-0.78,1.1-1.5,1.59-2.27c0,0,0,0,0,0s2.01-2.97,2.23-3.08c0.03-0.02,0.06-0.03,0.08-0.05l-1.05,3.33l0,0
		c-1.01,2.34-1.41,4.83-1.86,7.33c-0.56,3.13,0.9,5.37,2.9,7.43c0.02,0.13,0.06,0.19,0.13,0.13c0.19,0.2,0.48,0.31,0.82,0.51
		c0.01-0.01,0.01-0.03,0.01-0.04c0.61,0.38,1.62,0.84,3.23,0.86c0,0,0,0,0,0c0.71,0.09,1.41,0.12,2.06-0.04
		c2.93-0.74,5.41-2.32,6.96-5.02c0.54-0.93,0.92-1.98,1.2-3.02c0.19-0.7,0.13-1.6-0.68-1.94c-0.81-0.34-1.24,0.43-1.75,0.92
		c-1.63,1.58-3.58,2.54-5.86,2.7c-1.19,0.08-1.92-0.57-2.16-1.7c-0.26-1.24-0.08-1.53,1.3-2.11c0.22-0.09,0.45-0.16,0.66-0.26
		c1.48-0.67,3.04-1.23,4.42-2.07c0.78-0.48,1.43-1.33,1.89-2.16c0.56-1.03,0.22-1.39-0.96-1.24c-1.15,0.15-2.29,0.4-3.44,0.44
		c-0.51,0.02-1.42-0.29-1.48-0.58c-0.1-0.54,0.19-1.23,0.51-1.75c0.2-0.33,0.7-0.55,1.11-0.69c0.84-0.29,1.7-0.59,2.57-0.7
		c4.35-0.58,8.26-2.13,11.56-5.07c0.01-0.01,0.09,0.04,0.14,0.06c-0.05,0.11-0.09,0.22-0.15,0.32c-1.88,3.15-1.15,6.15,1.85,8.34
		c1.6,1.17,3.09,2.51,4.47,3.93c0.73,0.76,1.22,1.81,1.64,2.8c0.38,0.92-0.1,1.71-1.09,1.97c-0.47,0.12-1.03,0.16-1.48,0.02
		c-1.22-0.37-2.41-0.83-3.59-1.29c-1.51-0.58-2.39-1.66-2.68-3.27c-0.15-0.87-0.43-1.72-0.71-2.57c-0.14-0.43-0.42-0.71-0.96-0.43
		c-2.11,1.07-3.12,2.76-2.9,5.06c0.23,2.4,1,4.63,2.29,6.67c0.92,1.45,2.23,2.49,3.93,2.65c2,0.18,4.04,0.28,6.03,0.05
		c2.97-0.35,5.21-2.17,7.22-4.26c0.27-0.28,0.57-0.51,0.86-0.77c0.07,0.04,0.15,0.08,0.22,0.12c-0.05,0.55-0.06,1.1-0.17,1.64
		c-0.21,0.99-0.54,1.95-0.7,2.94c-0.08,0.5,0.1,1.05,0.16,1.58c0.46-0.22,1.02-0.35,1.37-0.68c2.32-2.16,3.9-4.85,5.19-7.7
		c1.15-2.54,2.2-5.12,3.3-7.68c0.31-0.73,0.66-1.42,1.28-1.9v0c0,0,8.26-2.07,8.38-2.1c0,0,0,0,0,0c0.12-0.03,2.9-0.66,2.93-0.67
		c0,0,0,0,0,0c0.09-0.02,0.18-0.05,0.28-0.1c0.51-0.27,1.13-0.35,1.69-0.52c4.97-1.51,9.96-2.98,14.91-4.54
		c2.29-0.72,4.55-1.55,6.43-3.13c0-0.12,0-0.24,0-0.36C289.16,25,288.18,24.89,287.22,24.97z M157.68,39.43
		c-0.3-0.21-0.62-0.9-0.49-1.13c1.35-2.46,2.88-4.79,5.76-5.72c0.36-0.12,0.76-0.12,0.9-0.14c1.26,0,1.92,0.42,2.22,1.32
		c0.3,0.89,0.07,1.64-0.74,2.16c-1.82,1.17-3.62,2.35-5.46,3.48C159.17,39.84,158.35,39.91,157.68,39.43z"/>
</g>
</svg>
