<?xml version="1.0" encoding="utf-8"?>
<!-- Generator: Adobe Illustrator 25.4.1, SVG Export Plug-In . SVG Version: 6.00 Build 0)  -->
<svg version="1.1" xmlns="http://www.w3.org/2000/svg" xmlns:xlink="http://www.w3.org/1999/xlink" x="0px" y="0px"
	 viewBox="0 0 82.65 80" style="enable-background:new 0 0 82.65 80;" xml:space="preserve">
<style type="text/css">
	.st0{fill:#82C341;}
	.st1{fill:#3CB14A;}
	.st2{fill:#F9ED32;}
</style>
<g id="Layer_2">
</g>
<g id="Layer_1">
	<g>
		<path class="st0" d="M82.16,45.2c-1.65,5.32-7.17,10.31-13.78,11.35c1.07,1.65,1.56,3.7,1.3,5.97
			c-0.71,6.16-6.62,11.12-12.94,11.19c-4.28,0.03-10.09-1.82-14.17-8.27c-3.66-5.74-4.18-14.85-3.92-17.61
			c-4.48,4.57-7.26,9.02-8.59,12.1c-2.98,6.97-4.12,15.47-4.05,19.46c0,0-0.55,0.52-1.07,0.62c-1.65-0.29-3.08-0.91-4.15-1.85
			c-1.3-1.17-1.59-2.27-1.59-2.27c1.98-9.89,5.12-16.05,9.83-23.09c6.32-9.5,16.08-15.37,27.66-18.91
			c8.37-2.56,17.06-3.11,23.02,1.95C82.9,38.49,83.1,42.32,82.16,45.2z M32.87,39.95c-1.98,3.31-7.39,8.63-11.67,11.38
			c-8.92,5.71-15.34,6.1-18.55,4.05c-0.39-0.23-0.71-0.52-1.01-0.81c-2.5-2.63-2.08-7.3,0.84-11.12c1.43-1.88,3.28-3.21,5.06-3.83
			c-1.39-0.65-2.33-2.01-2.53-3.92c-0.39-3.83,2.5-8.85,6.49-10.9c3.5-1.78,11.06-3.57,16.6,4.7
			C30.27,32.72,32.22,37.29,32.87,39.95L32.87,39.95z M69.51,5.19c-0.49-4.77-5.58-6.52-11.19-4.12c-2.66,1.13-4.99,3.05-6.65,5.22
			c0.26-2.17-0.36-4.09-1.91-5.22c-3.08-2.24-8.69-0.58-12.52,3.57c-1.33,1.46-5.67,6.71-5.9,14.43c-0.1,3.73,1.56,12,7,17.71
			c14.53-5.48,22.34-13.88,25.33-17.35c3.44-4.02,4.9-7.56,5.51-10.15C69.64,7.23,69.57,5.77,69.51,5.19z"/>
		<path class="st1" d="M63.67,19.42c3.44-4.02,4.9-7.56,5.51-10.15c0.03-0.13,0.06-0.26,0.1-0.42c-0.71,2.89-6.81,10.34-15.24,16.7
			c-8.76,6.58-13.75,9.89-15.66,11.19C52.87,31.29,60.69,22.89,63.67,19.42z M21.19,51.3c4.28-2.76,9.7-8.07,11.67-11.38
			c-3.83,3.63-9.47,9.05-19.17,13.33c-4.8,2.04-9.5,2.82-11.06,2.08C5.85,57.4,12.27,57.01,21.19,51.3z M82.16,45.2
			c0.23-0.71,0.39-1.46,0.45-2.24c-0.45,3.08-2.53,6.81-5.84,8.85c-2.92,1.82-6.29,3.02-10.12,2.69c0.62,0.58,1.1,1.07,1.72,2.01
			C74.99,55.52,80.5,50.52,82.16,45.2L82.16,45.2z"/>
		<path class="st2" d="M39.55,41.96c-0.03,0.03-0.06,0.03-0.06,0.06C39.48,41.99,39.51,41.96,39.55,41.96z"/>
		<path class="st1" d="M39.48,41.99c-10.41,7.46-13.94,20.88-14.53,37.97c0.52-0.1,1.07-0.62,1.07-0.62
			c-0.06-3.99,1.07-12.45,4.05-19.46c1.33-3.08,4.12-7.52,8.59-12.1c0.32-3.05,0.68-4.83,0.91-5.84
			C39.51,41.96,39.48,41.99,39.48,41.99z"/>
	</g>
</g>
</svg>
