<?xml version="1.0" encoding="utf-8"?>
<!-- Generator: Adobe Illustrator 25.4.1, SVG Export Plug-In . SVG Version: 6.00 Build 0)  -->
<svg version="1.1" xmlns="http://www.w3.org/2000/svg" xmlns:xlink="http://www.w3.org/1999/xlink" x="0px" y="0px"
	 viewBox="0 0 427.71 80" style="enable-background:new 0 0 427.71 80;" xml:space="preserve">
<style type="text/css">
	.st0{fill:#82C341;}
	.st1{fill:#3CB14A;}
	.st2{fill:#F9ED32;}
	.st3{fill:#006472;}
</style>
<g id="Layer_2">
</g>
<g id="Layer_1">
	<g>
		<path class="st0" d="M427.25,42.07c-1.54,4.95-6.67,9.6-12.83,10.56c1,1.54,1.45,3.44,1.21,5.55
			c-0.66,5.73-6.16,10.35-12.04,10.41c-3.98,0.03-9.39-1.69-13.19-7.7c-3.41-5.34-3.89-13.82-3.65-16.39
			c-4.16,4.26-6.76,8.39-8,11.26c-2.78,6.49-3.83,14.39-3.77,18.11c0,0-0.51,0.48-1,0.57c-1.54-0.27-2.87-0.84-3.86-1.72
			c-1.21-1.09-1.48-2.11-1.48-2.11c1.84-9.2,4.77-14.94,9.14-21.49c5.88-8.84,14.97-14.3,25.74-17.59
			c7.79-2.38,15.87-2.9,21.43,1.81C427.95,35.82,428.13,39.38,427.25,42.07z M381.38,37.18c-1.84,3.08-6.88,8.03-10.86,10.59
			c-8.3,5.31-14.27,5.67-17.26,3.77c-0.36-0.21-0.66-0.48-0.94-0.75c-2.32-2.44-1.93-6.79,0.78-10.35c1.33-1.75,3.05-2.99,4.71-3.56
			c-1.3-0.6-2.17-1.87-2.35-3.65c-0.36-3.56,2.32-8.24,6.04-10.14c3.26-1.66,10.29-3.32,15.45,4.38
			C378.97,30.45,380.78,34.7,381.38,37.18L381.38,37.18z M415.48,4.83c-0.45-4.44-5.19-6.07-10.41-3.83
			c-2.47,1.06-4.65,2.84-6.19,4.86c0.24-2.02-0.33-3.8-1.78-4.86c-2.87-2.08-8.09-0.54-11.65,3.32c-1.24,1.36-5.28,6.25-5.49,13.43
			c-0.09,3.47,1.45,11.17,6.52,16.48c13.52-5.1,20.79-12.92,23.57-16.14c3.2-3.74,4.56-7.03,5.13-9.45
			C415.6,6.73,415.54,5.37,415.48,4.83z"/>
		<path class="st1" d="M410.05,18.08c3.2-3.74,4.56-7.03,5.13-9.45c0.03-0.12,0.06-0.24,0.09-0.39c-0.66,2.69-6.34,9.63-14.18,15.54
			c-8.15,6.13-12.8,9.2-14.58,10.41C400,29.12,407.27,21.3,410.05,18.08z M370.52,47.74c3.98-2.57,9.02-7.51,10.86-10.59
			c-3.56,3.38-8.81,8.42-17.83,12.4c-4.47,1.9-8.84,2.63-10.29,1.93C356.24,53.41,362.22,53.05,370.52,47.74z M427.25,42.07
			c0.21-0.66,0.36-1.36,0.42-2.08c-0.42,2.87-2.35,6.34-5.43,8.24c-2.72,1.69-5.85,2.81-9.42,2.5c0.57,0.54,1.03,1,1.6,1.87
			C420.58,51.66,425.71,47.02,427.25,42.07L427.25,42.07z"/>
		<path class="st2" d="M387.6,39.05c-0.03,0.03-0.06,0.03-0.06,0.06C387.54,39.08,387.57,39.05,387.6,39.05z"/>
		<path class="st1" d="M387.54,39.08c-9.69,6.94-12.98,19.43-13.52,35.34c0.48-0.09,1-0.57,1-0.57c-0.06-3.71,1-11.59,3.77-18.11
			c1.24-2.87,3.83-7,8-11.26c0.3-2.84,0.63-4.5,0.84-5.43C387.57,39.05,387.54,39.08,387.54,39.08z"/>
		<path class="st3" d="M241.69,55.74c5.61-2.84,7.63-8.6,7.63-13.22c0-5.16-1.57-9.23-4.62-12.22c-0.27-0.27-0.54-0.51-0.84-0.75
			l4.83-8.06h-7.15l-3.08,5.16c-2.35-0.78-4.83-1.15-7.09-1.15c-4.5,0-8.99,1.6-12.31,4.41c-2.63,2.23-5.76,6.22-5.76,12.61
			c0,11.11,8.36,13.82,16.45,16.48l4.5,1.42c4.8,1.42,7.7,2.29,7.7,6.07c0,1.72-0.6,3.2-1.81,4.32c-1.87,1.78-5.16,2.75-8.78,2.53
			c-3.17-0.18-9.9-0.81-10.74-7.73h-6.94c0,8.81,7.88,14.39,17.65,14.39c6.28,0,10.92-1.78,14.03-4.8c2.44-2.35,3.74-5.4,3.74-8.81
			C249.15,61.56,246.52,57.79,241.69,55.74L241.69,55.74z M240.57,49.28c-1.18,1.96-3.26,3.89-5.85,4.47c0,0-4.89-1.39-8.06-2.47
			c-4.29-1.48-6.28-4.26-6.28-8.75c0-7.12,5.7-10.38,11.01-10.38c5.28,0,10.95,3.32,10.95,10.35
			C242.36,45.36,241.66,47.47,240.57,49.28L240.57,49.28z M160.24,26.65h7.12v35.19h-7.12V26.65z M159.82,17.86
			c0-2.23,1.48-3.83,4.01-3.83c2.47,0,3.95,1.6,3.95,3.83c0,2.35-1.48,3.95-3.95,3.95C161.27,21.79,159.82,20.22,159.82,17.86z
			 M26.86,16.33h-7.39L0,61.83h7.67l4.95-11.56h21.09l4.95,11.56h7.67L26.86,16.33z M15.18,44l7.94-18.59L31.05,44H15.18z
			 M125.12,61.83h30.78v-6.28h-23.3V16.33h-7.48V61.83z M299.51,27.25c-3.8,1.69-5.88,4.74-6.04,8.27
			c-0.39,8.24,5.91,10.17,14.36,11.35c6.73,0.94,10.59,1.93,10.41,5.31c-0.06,1.03-0.91,2.32-2.14,2.93
			c-4.53,2.26-16.02,1.06-21.43-2.29l-1.48,6.01c3.26,2.11,8.15,3.35,12.8,3.56c5.04,0.24,10.14-0.12,13.82-1.87
			c3.59-1.72,5.46-4.92,5.61-8.33c0.36-8.09-7.18-9.84-14.24-11.08c-8.03-1.39-10.95-2.2-10.74-5.67c0.09-1.63,1.6-2.69,2.81-3.05
			c4.38-1.36,13.58-0.45,18.98,2.5l1.42-6.07C316.62,25.29,305.97,24.38,299.51,27.25z M191.02,26.01c-7.82,0-13.07,1.12-15.51,1.81
			l-0.27,0.09v33.92h7.21V32.89c2.44-0.57,4.38-0.75,8.21-0.75c5.88,0,9.84,1.48,9.84,8.69V61.8h7.12V41.16
			C207.59,31.14,202.01,26.01,191.02,26.01z M279.68,55.65c-2.32,0.51-4.44,0.69-8.21,0.69c-6.07,0-9.84-1.45-9.84-8.63V26.68h-7.12
			v20.7c0,10.02,5.58,15.12,16.57,15.12c7.36,0,11.95-0.91,15.48-1.81l0.3-0.06V26.68h-7.21v28.97L279.68,55.65z M103.6,26.01
			c-4.71,0-8.63,0.91-11.26,2.78c-3.92,2.78-5.46,6.97-5.46,12.4v20.64H94V40.86c0-2.57,0.51-4.41,1.42-5.7
			c1.63-2.38,4.62-2.99,8.42-2.99c1.78,0,3.8,0.21,5.79,0.6l1.42-6.01C108.82,26.31,106.35,26.01,103.6,26.01L103.6,26.01z
			 M80.69,40.8c-0.84-9.69-6.61-14.76-16.84-14.76c-11.08,0-16.96,5.98-16.96,17.32v1.78c0,11.35,6.49,17.32,18.74,17.32
			c4.98,0,9.72-0.72,13.76-2.11l-1.51-5.98l-0.33,0.12c-2.32,0.88-6.67,1.84-11.92,1.84c-5.13,0-11.23-1.63-11.38-9.23h26.53v-3.71
			C80.79,42.46,80.75,41.61,80.69,40.8L80.69,40.8z M63.86,32.17c4.26,0,9.29,1.54,9.66,8.63H54.29
			C54.56,35.16,57.85,32.17,63.86,32.17z"/>
	</g>
</g>
</svg>
