<svg width="80" height="80" viewBox="0 0 80 80" fill="none" xmlns="http://www.w3.org/2000/svg">
<g clip-path="url(#clip0_2_49482)">
<path d="M80 10H0V70H80V10Z" fill="#D20A11"/>
<path fill-rule="evenodd" clip-rule="evenodd" d="M43.843 21.102C43.6648 21.2865 43.0403 22.2253 43.0403 23.388C43.0403 23.6662 43.0448 30.3337 43.0403 30.5726C43.0311 31.0806 42.7189 31.8033 42.4614 32.0573C42.2802 32.2372 41.1652 33.2426 41.0677 33.3484L41.6983 33.359C41.904 33.164 44.0501 31.2756 44.274 31.0231C44.5665 30.6935 45.2626 29.859 45.2626 28.5481C45.2626 28.2397 45.2671 21.923 45.2671 21.6448C45.2671 20.6091 45.753 20.0346 46.0043 19.7564C46.2602 19.4722 47.1071 18.7706 47.2564 18.6134L46.5923 18.5938C46.4339 18.754 44.0638 20.8752 43.8445 21.1035" fill="white"/>
<path fill-rule="evenodd" clip-rule="evenodd" d="M38.5301 47.2287L41.1576 49.5071H42.9169C44.7051 49.5071 46.341 48.7466 47.4209 47.6762C48.4993 46.6043 48.8984 45.1649 48.8984 43.8193V40.0834C48.8984 38.8285 48.1048 38.0983 47.8839 37.8791C47.7636 37.7596 46.9975 37.043 46.9975 37.043V39.908C46.9975 39.908 47.8413 40.7728 48.0073 40.9482C48.7872 41.7707 48.778 43.266 46.3105 45.6548C45.8779 46.0736 44.6457 47.2287 42.9489 47.2287H38.5301V47.2287Z" fill="white"/>
<path fill-rule="evenodd" clip-rule="evenodd" d="M45.8398 31.9011C45.5459 32.208 45.2656 32.9609 45.2656 33.6231V35.0368H46.7111C47.2731 35.0368 48.0134 34.5288 48.1749 34.2612C48.184 34.2415 48.1749 32.8581 48.1749 32.8581C48.1749 32.8581 48.5465 33.3858 48.9471 33.664C49.0979 33.475 50.4124 31.892 51.5152 31.8829C53.3536 31.8678 52.9393 34.172 52.1869 34.9083C51.9432 35.1456 50.8572 36.1344 50.5205 36.4519C49.6523 37.2729 48.1657 36.8798 48.1657 34.7586C48.1657 34.7586 46.5694 36.2629 46.3303 36.461C46.0896 36.6606 45.2671 37.5254 45.2671 37.5254V41.2522C45.2671 43.0393 44.6746 43.6395 44.1826 44.1762C43.9922 44.3849 41.9649 46.2219 41.6938 46.4199L41.0312 46.435C41.0312 46.435 42.2177 45.3646 42.4554 45.1197C42.725 44.8415 43.0403 44.2745 43.0403 43.3326C43.0403 43.0937 43.0098 37.477 43.0098 37.477H33.787C30.5792 37.477 29.8938 33.9437 29.874 32.9972C29.8679 32.719 29.874 29.8963 29.874 29.4593C29.874 28.8788 29.4993 27.8991 28.9022 27.5967H29.8069C29.9105 27.6405 30.4787 27.8673 30.4787 30.0354C30.4787 30.0354 30.4406 32.5557 30.4406 32.6903C30.4406 33.7894 31.321 35.0489 32.5913 35.0489C32.8518 35.0489 43.0296 35.0383 43.0296 35.0383C43.0387 34.7601 43.319 33.7033 43.8201 33.1439C44.1049 32.8294 46.344 30.7959 46.5999 30.6008L47.2625 30.5933C47.162 30.684 46.079 31.6486 45.8383 31.9026M49.2655 34.0238C49.2655 34.0238 49.8702 34.8206 50.158 35.0489C51.2821 35.9454 51.8152 34.9823 51.0613 33.9542C50.7627 33.5491 49.6066 33.6655 49.2655 34.0238Z" fill="white"/>
<path fill-rule="evenodd" clip-rule="evenodd" d="M38.0747 40.6989C38.0747 41.1993 36.4647 42.5267 36.3703 42.6205C36.2545 42.0822 35.8478 41.4866 34.6476 40.2952L36.4099 38.5459C37.5903 39.7191 38.0747 39.9686 38.0747 40.6989" fill="white"/>
<path fill-rule="evenodd" clip-rule="evenodd" d="M41.1302 20.6543C41.4836 21.005 42.2452 21.956 41.7882 22.4096C41.3846 22.8102 40.7601 23.4452 40.7601 23.4452C40.7281 23.2154 40.1432 22.6651 40.1432 22.6651C40.1432 22.6651 40.1493 24.3539 40.1432 24.5625C40.1234 25.3245 39.834 25.5422 39.834 25.5422C39.834 25.5422 41.2536 26.9408 41.2536 28.7354C41.2536 29.6063 41.2566 30.4076 41.2566 30.5799C41.2566 30.9473 41.1637 31.2331 40.9048 31.5158C40.7768 31.6564 39.4623 32.9687 39.2613 33.1471C38.8805 33.4873 38.4799 33.5448 38.1783 33.5448H33.2859C32.5151 33.5448 31.7216 32.9476 31.7216 32.3504C31.7216 32.2007 31.7322 30.5497 31.7322 30.5497C31.9836 30.8385 32.2379 31.1756 32.8548 31.1665C33.3361 31.159 33.8418 30.784 33.9774 30.6495C34.1175 30.5089 37.6787 26.8138 37.6787 26.8138C37.6787 26.8138 36.0108 25.2792 34.9126 24.5489C34.3765 24.1921 33.6651 24.6427 33.557 25.1129C33.2204 26.5824 33.557 28.7868 33.557 28.7868C33.557 28.7868 32.4679 27.7088 32.2059 27.4488C31.6622 26.9075 31.682 25.6844 32.3293 25.0403C32.4314 24.9375 33.4184 23.8293 34.6735 23.8293H36.6262C37.9376 23.8293 39.3709 25.125 39.3709 25.125C39.3709 25.125 39.5811 24.8967 39.5811 24.6744C39.5811 24.0077 39.5552 22.21 39.5552 22.21C38.5697 21.2303 38.4357 20.2218 38.9079 19.7532C39.7898 18.8778 40.1112 18.5693 40.1112 18.5693C40.1112 18.5693 40.1005 19.6307 41.1302 20.6512M34.9918 30.4091C34.509 30.911 34.4252 31.035 33.9743 31.3041H39.4852C40.9779 31.3041 40.6809 30.3834 40.4143 29.9207C39.866 28.9682 38.1311 27.2008 38.1311 27.2008C38.1311 27.2008 35.0923 30.3032 34.9918 30.4091Z" fill="white"/>
<path fill-rule="evenodd" clip-rule="evenodd" d="M28.7072 35.3906H27.8024C27.8024 35.3906 28.7742 35.9198 28.7742 37.2881V41.6545C28.7742 44.4953 31.1351 47.1215 34.0033 47.1215H36.3977C37.8371 47.1215 38.3413 46.7753 39.211 46.0103C39.5293 45.729 39.9436 45.2664 40.096 45.1001C40.5971 44.5437 41.1302 44.0916 41.1302 42.6296V41.2009C41.1302 39.9657 40.4097 39.4516 40.0609 39.1054C39.8385 38.8846 39.2247 38.3041 39.2247 38.3041V41.2311C39.2247 41.2311 39.8294 41.8691 40.0944 42.0763C41.3389 43.0515 40.3488 44.7433 39.1958 44.7433C38.9642 44.7433 34.2546 44.7433 33.9347 44.7539C31.9973 44.8007 29.3789 43.0862 29.3789 40.2015V37.8293C29.3789 35.3921 28.7057 35.3921 28.7057 35.3921" fill="white"/>
<path fill-rule="evenodd" clip-rule="evenodd" d="M34.4739 40.7062C34.4739 41.2052 32.8639 42.5341 32.7695 42.6279C32.6537 42.0881 32.2471 41.4939 31.0468 40.301L32.8076 38.5518C33.9896 39.725 34.4724 39.9729 34.4724 40.7047" fill="white"/>
<path fill-rule="evenodd" clip-rule="evenodd" d="M16.0527 60.1215C15.7663 60.1215 13.5517 60.1185 13.2348 60.1185C12.3453 60.1185 12.4138 59.3867 12.3362 58.7608V54.7467C12.3362 54.7467 12.953 54.7315 13.6507 54.7315C14.432 54.7315 15.4038 54.6166 16.3497 55.1488C16.3497 55.1488 15.6689 53.5205 13.6461 53.5205H12.3346V52.2339C12.3346 52.2339 12.3346 51.1135 12.0589 50.7824C12.0589 50.7824 13.8015 50.7885 13.9203 50.7885C15.5318 50.7885 16.7777 50.7658 18.0724 51.6216C18.0724 51.6216 17.8241 49.5049 14.7123 49.5049H8.63486C8.63486 49.5049 9.69042 50.4014 9.66147 52.2263L9.69041 59.5394C9.69041 61.3749 10.4307 61.4263 10.4307 61.4263H16.4228C17.78 61.4263 18.2537 60.4617 18.2537 59.9401L18.2735 59.2385C18.2735 59.2385 17.8424 60.12 16.0527 60.12" fill="white"/>
<path fill-rule="evenodd" clip-rule="evenodd" d="M32.0034 59.503V54.3867C32.0034 52.4016 30.3705 51.874 29.1535 51.874C27.542 51.874 27.0607 53.209 26.855 53.6701C26.4956 52.4243 25.2389 51.8604 24.2093 51.8604C22.2627 51.8604 21.7692 53.6988 21.7692 53.6988C21.7692 53.6988 21.7235 51.9223 20.1607 51.9223L18.6299 51.9254C18.6299 51.9254 19.5164 52.2867 19.5164 53.8228V59.503C19.5149 61.3778 20.2765 61.4111 20.2765 61.4111H22.8003C22.7349 61.3778 21.8316 60.702 21.8316 59.4864V54.4487C21.8636 54.225 22.2444 53.463 23.3335 53.463C23.9503 53.463 24.6282 54.101 24.6129 54.8192V59.5C24.6114 61.4035 25.3623 61.408 25.3623 61.408H27.8954C27.8954 61.408 26.9266 60.7307 26.9266 59.4834L26.919 54.4442C27.0134 54.163 27.347 53.4781 28.3036 53.4781C29.0652 53.4781 29.7034 54.1161 29.6881 54.8343C29.6881 54.8343 29.6836 59.1084 29.6851 59.5045C29.6957 61.4201 30.4375 61.402 30.4375 61.402C31.7566 61.402 32.9706 61.408 32.9706 61.408C32.9706 61.408 32.0034 60.7458 32.0034 59.5015" fill="white"/>
<path fill-rule="evenodd" clip-rule="evenodd" d="M36.4312 59.5011C36.4312 60.762 37.403 61.4106 37.403 61.4106C37.403 61.4106 36.1982 61.4046 34.8791 61.4046C34.8791 61.4046 34.1053 61.4166 34.1053 59.5147V59.5056L34.1084 53.8102C34.1084 52.3074 33.231 51.9219 33.231 51.9219H34.7618C35.301 51.9219 36.4251 51.9219 36.4251 54.0461L36.4221 59.4905L36.4312 59.4995V59.5011Z" fill="white"/>
<path fill-rule="evenodd" clip-rule="evenodd" d="M44.2055 52.6384C44.2055 52.6384 43.9618 51.9565 42.9138 51.9565C41.3282 51.9565 40.9413 53.8252 40.9413 53.8252C40.8134 52.3481 40.4143 51.9111 39.2948 51.9111L37.764 51.9157C37.764 51.9157 38.652 52.277 38.652 53.8116L38.6489 59.4994C38.6489 61.3757 39.4105 61.4074 39.4105 61.4074H41.9344C41.8689 61.3772 40.9657 60.6998 40.9657 59.4858L40.9687 54.8276C41.0358 54.4058 41.2551 54.0807 41.5887 53.8675C42.4203 53.3323 43.5566 53.4593 44.207 54.2485V52.6414L44.2055 52.6384Z" fill="white"/>
<path fill-rule="evenodd" clip-rule="evenodd" d="M55.9826 52.9819C56.8371 52.9819 57.4753 53.3523 57.4753 53.3523L57.483 51.9221H55.3597V49.751C55.3597 49.751 54.8037 50.7095 53.6628 51.6393C52.9454 52.2229 51.4405 52.9456 51.4405 52.9456L53.0429 52.9744L53.0399 59.5753C53.0399 61.4047 53.8106 61.4047 53.8106 61.4047C55.1952 61.4047 56.3314 61.4108 56.3314 61.4108C56.3314 61.4108 55.3566 60.7637 55.3566 59.5587L55.3597 52.9789C56.0253 52.9819 55.5668 52.9834 55.9826 52.9834" fill="white"/>
<path fill-rule="evenodd" clip-rule="evenodd" d="M63.6564 55.8464C62.2398 57.3175 61.1294 57.0862 60.2399 58.1642C60.2399 58.1642 60.3831 59.6247 61.5072 60.1387C61.891 60.3156 63.4507 60.8735 64.4606 59.1439L64.453 60.6754C64.453 60.6754 63.8056 61.4223 61.7478 61.4223C59.2681 61.4223 57.5698 59.4871 57.5698 56.8624C57.5698 54.2377 58.9543 51.8867 61.5681 51.8731C64.1301 51.8595 65.5177 53.9142 63.6564 55.8464M62.1058 55.2447C62.5247 54.4766 62.8552 52.5247 61.4234 52.6306C59.7647 52.7546 60.08 57.133 60.08 57.133C60.6344 56.5343 61.4676 56.4134 62.1058 55.2432" fill="white"/>
<path fill-rule="evenodd" clip-rule="evenodd" d="M35.2584 51.1552C35.9088 51.1552 36.4358 50.6427 36.4358 50.0107C36.4358 49.3787 35.9088 48.8662 35.2584 48.8662C34.608 48.8662 34.081 49.3787 34.081 50.0107C34.081 50.6427 34.608 51.1552 35.2584 51.1552Z" fill="white"/>
<path fill-rule="evenodd" clip-rule="evenodd" d="M46.836 60.334C46.2602 60.334 45.849 59.7398 45.849 59.1305C45.849 56.7628 47.8017 56.4348 48.3241 55.8028L48.3287 59.7957C48.0972 59.9998 47.8641 60.334 46.836 60.334M48.3241 54.8896C47.7377 55.9101 43.1697 56.1263 43.8704 59.6324C44.1461 61.0234 45.0813 61.4286 46.2541 61.4286C47.427 61.4286 48.0804 60.8374 48.3668 60.2886C48.5374 61.3439 49.0751 61.4044 49.0751 61.4044C50.3941 61.4044 51.5989 61.4089 51.5989 61.4089C51.5989 61.4089 50.615 60.7618 50.615 59.51V54.179C50.615 52.9045 49.1908 51.9111 47.6768 51.9111C46.1627 51.9111 45.3067 52.6066 45.3067 52.6066V54.2606C45.3067 54.2606 45.8261 52.9498 47.1421 52.9498C48.4582 52.9498 48.5221 53.5848 48.5145 53.9023C48.5145 53.9023 48.644 54.3302 48.3226 54.8881" fill="white"/>
<path fill-rule="evenodd" clip-rule="evenodd" d="M69.2434 58.8345C69.2571 59.5043 68.6539 60.3842 67.3683 60.3842C66.0828 60.3842 65.5268 59.0477 65.5268 59.0477V60.7425C65.5268 60.7425 66.4758 61.4138 67.9304 61.4138C69.6577 61.4138 71.4032 60.1106 71.3636 58.2978C71.3514 57.6598 71.1214 57.1155 70.7711 56.6468C70.1862 55.8697 69.123 55.3269 68.299 54.8234C67.8299 54.5362 67.5801 54.0236 67.574 53.8437C67.5603 53.5262 67.7141 52.8852 69.0012 52.8852C70.2883 52.8852 70.7894 54.196 70.7894 54.196L70.7848 52.6085C70.7848 52.6085 69.8252 51.8525 68.3706 51.8525C66.916 51.8525 65.4811 52.8443 65.5086 54.1204C65.5314 55.2392 66.0082 55.9649 66.9297 56.6483C67.2952 56.9174 67.7293 57.179 68.2335 57.4572C68.9677 57.8624 69.2342 58.3568 69.2449 58.836" fill="white"/>
</g>
<defs>
<clipPath id="clip0_2_49482">
<rect width="80" height="60" fill="white" transform="translate(0 10)"/>
</clipPath>
</defs>
</svg>
