<svg width="106" height="80" viewBox="0 0 106 80" fill="none" xmlns="http://www.w3.org/2000/svg">
<g clip-path="url(#clip0_2_21417)">
<g clip-path="url(#clip1_2_21417)">
<path d="M106.587 0.220703H0.379883V80.2207H106.587V0.220703Z" fill="#D20A11"/>
<path fill-rule="evenodd" clip-rule="evenodd" d="M58.5852 15.024C58.3486 15.27 57.5196 16.5218 57.5196 18.072C57.5196 18.4429 57.5256 27.333 57.5196 27.6515C57.5074 28.3288 57.0929 29.2924 56.7511 29.6311C56.5105 29.8709 55.0303 31.2115 54.9009 31.3526L55.738 31.3667C56.011 31.1067 58.8602 28.5888 59.1575 28.2522C59.5457 27.8127 60.4699 26.7 60.4699 24.9522C60.4699 24.541 60.4759 16.1186 60.4759 15.7477C60.4759 14.3668 61.121 13.6008 61.4546 13.2299C61.7944 12.8509 62.9187 11.9155 63.1168 11.7059L62.2352 11.6797C62.0249 11.8934 58.8784 14.7216 58.5872 15.026" fill="white"/>
<path fill-rule="evenodd" clip-rule="evenodd" d="M51.532 49.8602L55.0202 52.8982H57.3558C59.7297 52.8982 61.9015 51.8842 63.3352 50.4569C64.7669 49.0277 65.2967 47.1086 65.2967 45.3145V40.3332C65.2967 38.66 64.2432 37.6864 63.95 37.3941C63.7902 37.2348 62.7731 36.2793 62.7731 36.2793V40.0994C62.7731 40.0994 63.8933 41.2525 64.1137 41.4863C65.1491 42.5829 65.137 44.5766 61.8611 47.7617C61.2868 48.3201 59.6509 49.8602 57.3982 49.8602H51.532V49.8602Z" fill="white"/>
<path fill-rule="evenodd" clip-rule="evenodd" d="M61.2362 29.4228C60.8459 29.832 60.4739 30.8359 60.4739 31.7189V33.6037H62.3929C63.139 33.6037 64.1218 32.9264 64.3362 32.5696C64.3483 32.5434 64.3362 30.6988 64.3362 30.6988C64.3362 30.6988 64.8296 31.4024 65.3614 31.7733C65.5616 31.5213 67.3067 29.4107 68.7707 29.3986C71.2114 29.3784 70.6614 32.4506 69.6625 33.4324C69.3389 33.7489 67.8971 35.0672 67.4502 35.4906C66.2976 36.5852 64.324 36.0611 64.324 33.2328C64.324 33.2328 62.2048 35.2386 61.8873 35.5027C61.5678 35.7688 60.4759 36.9218 60.4759 36.9218V41.891C60.4759 44.2737 59.6893 45.074 59.0361 45.7897C58.7834 46.0679 56.0919 48.5172 55.7319 48.7812L54.8523 48.8014C54.8523 48.8014 56.4276 47.3742 56.743 47.0476C57.1009 46.6767 57.5195 45.9207 57.5195 44.6648C57.5195 44.3463 57.4791 36.8573 57.4791 36.8573H45.235C40.9764 36.8573 40.0664 32.1462 40.0401 30.8843C40.032 30.5134 40.0401 26.7497 40.0401 26.1672C40.0401 25.3931 39.5427 24.0868 38.75 23.6836H39.9512C40.0887 23.7421 40.8429 24.0444 40.8429 26.9352C40.8429 26.9352 40.7924 30.2957 40.7924 30.4751C40.7924 31.9406 41.9612 33.6198 43.6476 33.6198C43.9934 33.6198 57.5054 33.6057 57.5054 33.6057C57.5175 33.2348 57.8896 31.8257 58.5549 31.0798C58.933 30.6605 61.9055 27.9492 62.2453 27.6891L63.1249 27.6791C62.9914 27.8 61.5537 29.0861 61.2342 29.4248M65.784 32.2531C65.784 32.2531 66.5868 33.3154 66.969 33.6198C68.4613 34.8153 69.1691 33.5311 68.1681 32.1603C67.7718 31.6201 66.237 31.7753 65.784 32.2531Z" fill="white"/>
<path fill-rule="evenodd" clip-rule="evenodd" d="M50.9275 41.1538C50.9275 41.8211 48.7901 43.591 48.6647 43.716C48.511 42.9983 47.9711 42.2041 46.3777 40.6156L48.7173 38.2832C50.2845 39.8475 50.9275 40.1801 50.9275 41.1538" fill="white"/>
<path fill-rule="evenodd" clip-rule="evenodd" d="M54.9839 14.4264C55.4531 14.8941 56.4641 16.162 55.8575 16.7668C55.3216 17.301 54.4926 18.1477 54.4926 18.1477C54.4501 17.8413 53.6736 17.1075 53.6736 17.1075C53.6736 17.1075 53.6817 19.3592 53.6736 19.6374C53.6473 20.6534 53.2631 20.9437 53.2631 20.9437C53.2631 20.9437 55.1477 22.8084 55.1477 25.2012C55.1477 26.3624 55.1518 27.4308 55.1518 27.6606C55.1518 28.1505 55.0284 28.5315 54.6847 28.9084C54.5148 29.0959 52.7697 30.8457 52.5028 31.0836C51.9972 31.5371 51.4654 31.6137 51.065 31.6137H44.5699C43.5467 31.6137 42.4932 30.8175 42.4932 30.0212C42.4932 29.8216 42.5073 27.6203 42.5073 27.6203C42.841 28.0053 43.1787 28.4548 43.9976 28.4428C44.6366 28.4327 45.308 27.9327 45.488 27.7533C45.674 27.5658 50.4018 22.6391 50.4018 22.6391C50.4018 22.6391 48.1875 20.5929 46.7296 19.6193C46.0178 19.1435 45.0734 19.7443 44.9298 20.3712C44.483 22.3306 44.9298 25.2698 44.9298 25.2698C44.9298 25.2698 43.484 23.8324 43.1362 23.4857C42.4143 22.764 42.4406 21.1332 43.3 20.2744C43.4355 20.1374 44.7458 18.6597 46.4121 18.6597H49.0045C50.7455 18.6597 52.6484 20.3873 52.6484 20.3873C52.6484 20.3873 52.9274 20.0829 52.9274 19.7866C52.9274 18.8976 52.893 16.5007 52.893 16.5007C51.5847 15.1944 51.4068 13.8498 52.0336 13.2249C53.2044 12.0577 53.6311 11.6465 53.6311 11.6465C53.6311 11.6465 53.617 13.0616 54.9839 14.4223M46.8347 27.4328C46.1937 28.1021 46.0825 28.2674 45.4839 28.6262H52.8C54.7817 28.6262 54.3874 27.3985 54.0335 26.7817C53.3056 25.5117 51.0023 23.1551 51.0023 23.1551C51.0023 23.1551 46.9682 27.2917 46.8347 27.4328Z" fill="white"/>
<path fill-rule="evenodd" clip-rule="evenodd" d="M38.4912 34.0742H37.29C37.29 34.0742 38.5802 34.7798 38.5802 36.6041V42.426C38.5802 46.2138 41.7145 49.7154 45.5222 49.7154H48.701C50.6119 49.7154 51.2812 49.2538 52.4359 48.2337C52.8585 47.8588 53.4085 47.2419 53.6107 47.0202C54.276 46.2783 54.9838 45.6756 54.9838 43.7262V41.8212C54.9838 40.1743 54.0273 39.4889 53.5642 39.0272C53.269 38.7329 52.4541 37.9588 52.4541 37.9588V41.8615C52.4541 41.8615 53.2569 42.7122 53.6087 42.9884C55.2608 44.2887 53.9464 46.5444 52.4157 46.5444C52.1083 46.5444 45.8558 46.5444 45.4312 46.5585C42.859 46.621 39.383 44.335 39.383 40.4887V37.3258C39.383 34.0762 38.4892 34.0762 38.4892 34.0762" fill="white"/>
<path fill-rule="evenodd" clip-rule="evenodd" d="M46.1472 41.1636C46.1472 41.8289 44.0098 43.6008 43.8845 43.7258C43.7308 43.0061 43.1909 42.2139 41.5974 40.6234L43.935 38.291C45.5042 39.8553 46.1452 40.1859 46.1452 41.1616" fill="white"/>
<path fill-rule="evenodd" clip-rule="evenodd" d="M21.6913 67.0481C21.3112 67.0481 18.371 67.044 17.9504 67.044C16.7694 67.044 16.8604 66.0683 16.7573 65.2338V59.8816C16.7573 59.8816 17.5763 59.8615 18.5024 59.8615C19.5398 59.8615 20.8299 59.7082 22.0856 60.4178C22.0856 60.4178 21.1818 58.2467 18.4963 58.2467H16.7553V56.5312C16.7553 56.5312 16.7553 55.0375 16.3893 54.596C16.3893 54.596 18.7026 54.6041 18.8603 54.6041C20.9998 54.6041 22.6539 54.5738 24.3727 55.7148C24.3727 55.7148 24.0431 52.8926 19.9118 52.8926H11.8435C11.8435 52.8926 13.2448 54.088 13.2064 56.5212L13.2448 66.2719C13.2448 68.7192 14.2276 68.7878 14.2276 68.7878H22.1827C23.9844 68.7878 24.6133 67.5016 24.6133 66.8061L24.6396 65.8708C24.6396 65.8708 24.0673 67.046 21.6913 67.046" fill="white"/>
<path fill-rule="evenodd" clip-rule="evenodd" d="M42.8672 66.2235V59.4017C42.8672 56.7549 40.6995 56.0513 39.0838 56.0513C36.9443 56.0513 36.3053 57.8314 36.0324 58.4462C35.5551 56.7851 33.8869 56.0332 32.5199 56.0332C29.9356 56.0332 29.2804 58.4845 29.2804 58.4845C29.2804 58.4845 29.2198 56.1159 27.145 56.1159L25.1128 56.1199C25.1128 56.1199 26.2897 56.6017 26.2897 58.6498V66.2235C26.2877 68.7231 27.2987 68.7675 27.2987 68.7675H30.6494C30.5625 68.7231 29.3633 67.822 29.3633 66.2013V59.4844C29.4058 59.186 29.9113 58.17 31.3572 58.17C32.1761 58.17 33.076 59.0207 33.0558 59.9783V66.2194C33.0537 68.7574 34.0507 68.7635 34.0507 68.7635H37.4135C37.4135 68.7635 36.1274 67.8603 36.1274 66.1972L36.1173 59.4783C36.2427 59.1034 36.6855 58.1902 37.9554 58.1902C38.9665 58.1902 39.8138 59.0409 39.7935 59.9984C39.7935 59.9984 39.7875 65.6973 39.7895 66.2255C39.8036 68.7796 40.7884 68.7554 40.7884 68.7554C42.5396 68.7554 44.1513 68.7635 44.1513 68.7635C44.1513 68.7635 42.8672 67.8805 42.8672 66.2214" fill="white"/>
<path fill-rule="evenodd" clip-rule="evenodd" d="M48.7456 66.2228C48.7456 67.904 50.0357 68.7688 50.0357 68.7688C50.0357 68.7688 48.4362 68.7608 46.685 68.7608C46.685 68.7608 45.6578 68.7769 45.6578 66.2409V66.2288L45.6618 58.635C45.6618 56.6312 44.4971 56.1172 44.4971 56.1172H46.5293C47.2452 56.1172 48.7375 56.1172 48.7375 58.9495L48.7335 66.2087L48.7456 66.2208V66.2228Z" fill="white"/>
<path fill-rule="evenodd" clip-rule="evenodd" d="M59.0665 57.0732C59.0665 57.0732 58.743 56.164 57.3518 56.164C55.2467 56.164 54.7331 58.6556 54.7331 58.6556C54.5632 56.6861 54.0334 56.1035 52.5471 56.1035L50.5149 56.1096C50.5149 56.1096 51.6938 56.5914 51.6938 58.6375L51.6898 66.2212C51.6898 68.7229 52.7008 68.7652 52.7008 68.7652H56.0515C55.9646 68.7249 54.7654 67.8218 54.7654 66.2031L54.7695 59.9921C54.8585 59.4297 55.1496 58.9963 55.5925 58.7121C56.6966 57.9984 58.2051 58.1678 59.0686 59.2201V57.0772L59.0665 57.0732Z" fill="white"/>
<path fill-rule="evenodd" clip-rule="evenodd" d="M74.7017 57.5306C75.8361 57.5306 76.6834 58.0245 76.6834 58.0245L76.6935 56.1174H73.8746V53.2227C73.8746 53.2227 73.1365 54.5007 71.6219 55.7405C70.6695 56.5186 68.6716 57.4822 68.6716 57.4822L70.7989 57.5205L70.7949 66.3218C70.7949 68.761 71.8181 68.761 71.8181 68.761C73.6562 68.761 75.1647 68.7691 75.1647 68.7691C75.1647 68.7691 73.8706 67.9063 73.8706 66.2996L73.8746 57.5265C74.7583 57.5306 74.1496 57.5326 74.7017 57.5326" fill="white"/>
<path fill-rule="evenodd" clip-rule="evenodd" d="M84.8893 61.3505C83.0087 63.312 81.5346 63.0036 80.3537 64.4409C80.3537 64.4409 80.5437 66.3882 82.0361 67.0736C82.5457 67.3095 84.6163 68.0533 85.957 65.7472L85.9469 67.7892C85.9469 67.7892 85.0875 68.7851 82.3556 68.7851C79.0635 68.7851 76.8088 66.2048 76.8088 62.7052C76.8088 59.2057 78.647 56.071 82.117 56.0528C85.5182 56.0347 87.3604 58.7743 84.8893 61.3505M82.8308 60.5482C83.3869 59.5242 83.8257 56.9217 81.9249 57.0628C79.7227 57.2281 80.1413 63.0661 80.1413 63.0661C80.8774 62.2678 81.9835 62.1065 82.8308 60.5462" fill="white"/>
<path fill-rule="evenodd" clip-rule="evenodd" d="M47.1886 55.095C48.0521 55.095 48.7517 54.4116 48.7517 53.569C48.7517 52.7264 48.0521 52.043 47.1886 52.043C46.3251 52.043 45.6255 52.7264 45.6255 53.569C45.6255 54.4116 46.3251 55.095 47.1886 55.095Z" fill="white"/>
<path fill-rule="evenodd" clip-rule="evenodd" d="M62.5588 67.334C61.7944 67.334 61.2484 66.5417 61.2484 65.7293C61.2484 62.5725 63.8408 62.135 64.5344 61.2924L64.5405 66.6163C64.2331 66.8884 63.9237 67.334 62.5588 67.334M64.5344 60.0748C63.7559 61.4355 57.6915 61.7238 58.6216 66.3986C58.9877 68.2532 60.2293 68.7935 61.7863 68.7935C63.3434 68.7935 64.2108 68.0052 64.591 67.2735C64.8175 68.6806 65.5313 68.7612 65.5313 68.7612C67.2825 68.7612 68.882 68.7672 68.882 68.7672C68.882 68.7672 67.5757 67.9044 67.5757 66.2353V59.1273C67.5757 57.4279 65.685 56.1035 63.675 56.1035C61.665 56.1035 60.5285 57.0308 60.5285 57.0308V59.2362C60.5285 59.2362 61.2181 57.4884 62.9652 57.4884C64.7123 57.4884 64.7973 58.3351 64.7872 58.7584C64.7872 58.7584 64.959 59.3289 64.5324 60.0728" fill="white"/>
<path fill-rule="evenodd" clip-rule="evenodd" d="M92.3065 65.3327C92.3247 66.2258 91.5239 67.399 89.8172 67.399C88.1105 67.399 87.3724 65.617 87.3724 65.617V67.8768C87.3724 67.8768 88.6322 68.7718 90.5634 68.7718C92.8565 68.7718 95.1739 67.0341 95.1213 64.6171C95.1051 63.7664 94.7998 63.0407 94.3347 62.4158C93.5582 61.3796 92.1467 60.6559 91.0527 59.9846C90.4299 59.6016 90.0983 58.9182 90.0902 58.6783C90.072 58.255 90.2762 57.4003 91.9849 57.4003C93.6937 57.4003 94.3589 59.148 94.3589 59.148L94.3529 57.0314C94.3529 57.0314 93.0789 56.0234 91.1478 56.0234C89.2166 56.0234 87.3118 57.3459 87.3482 59.0473C87.3785 60.539 88.0114 61.5066 89.2348 62.4178C89.7201 62.7766 90.2965 63.1254 90.9658 63.4963C91.9405 64.0365 92.2943 64.6957 92.3085 65.3348" fill="white"/>
</g>
</g>
<defs>
<clipPath id="clip0_2_21417">
<rect width="106" height="80" fill="white"/>
</clipPath>
<clipPath id="clip1_2_21417">
<rect width="106.207" height="80" fill="white" transform="translate(0.379883 0.220703)"/>
</clipPath>
</defs>
</svg>
