<?xml version="1.0" encoding="utf-8"?>
<!-- Generator: Adobe Illustrator 25.4.1, SVG Export Plug-In . SVG Version: 6.00 Build 0)  -->
<svg version="1.1" id="Layer_1" xmlns="http://www.w3.org/2000/svg" xmlns:xlink="http://www.w3.org/1999/xlink" x="0px" y="0px"
	 viewBox="0 0 150.05 80" style="enable-background:new 0 0 150.05 80;" xml:space="preserve">
<style type="text/css">
	.st0{fill:#007DC5;}
</style>
<g id="g1236" transform="translate(72.3245,437.4863)">
	<path id="path1238" class="st0" d="M26.83-392.03c-7.99-1.48-8.94-10.83-16.99-12.73l-54.5-12.64
		c-15.86-3.68-19.19-8.5-27.66-20.08l73.18,20.47c8.75,2.45,9.6,12.39,18.22,14.4l23.59,5.47c5.3,1.23,8.05,5.14,12.11,10.33
		C45.46-388.56,36.15-390.31,26.83-392.03 M77.72-357.49H53.28c-9.25,0-7.3-7.71-14.79-8.08l-46.8-2.16
		c-11.93-0.59-14.86-2.53-21.97-12.25l62.46,5.76c7.34,0.72,7,8.68,14.26,9.02c12.86,0.59,11.51,0.54,21.97,1.03
		C72.96-363.96,75.07-360.89,77.72-357.49 M25.34-383.55l-50.32-6.96c-13.67-1.98-16.44-4.7-24.42-15.62l67.33,12.45
		c7.74,1.45,8.27,10.25,15.96,11.31c14.25,1.97,10.61,1.47,22.65,3.14c4.27,0.59,6.25,2.66,10.63,8.26
		c-8.92-0.83-17.85-1.67-26.77-2.49C32.99-374.14,32.79-382.49,25.34-383.55"/>
</g>
<g id="g1248" transform="translate(172.9158,590.7075)">
</g>
<g id="g1252" transform="translate(203.0896,564.0146)">
</g>
<g id="g1256" transform="translate(202.1028,559.5876)">
</g>
<g id="g1260" transform="translate(477.4399,437.4863)">
</g>
<g id="g1264" transform="translate(507.6138,410.7935)">
</g>
<g id="g1268" transform="translate(506.627,406.3665)">
</g>
<g id="g1272" transform="translate(376.8486,590.7075)">
</g>
<g id="g1276" transform="translate(407.0225,564.0146)">
</g>
<g id="g1280" transform="translate(406.0356,559.5876)">
</g>
</svg>
