<?xml version="1.0" encoding="utf-8"?>
<!-- Generator: Adobe Illustrator 25.4.1, SVG Export Plug-In . SVG Version: 6.00 Build 0)  -->
<svg version="1.1" id="Layer_1" xmlns="http://www.w3.org/2000/svg" xmlns:xlink="http://www.w3.org/1999/xlink" x="0px" y="0px"
	 viewBox="0 0 114.98 80" style="enable-background:new 0 0 114.98 80;" xml:space="preserve">
<style type="text/css">
	.st0{fill:#007DC5;}
	.st1{fill:#58595B;}
</style>
<g id="g1230">
	<g id="g1236" transform="translate(72.3245,437.4863)">
		<path id="path1238" class="st0" d="M-13.82-410.66c-4.71-0.87-5.27-6.39-10.02-7.51L-56-425.63c-9.36-2.17-11.32-5.02-16.32-11.85
			l43.18,12.08c5.16,1.44,5.66,7.31,10.75,8.5l13.92,3.23c3.13,0.73,4.75,3.03,7.15,6.09C-2.82-408.61-8.32-409.65-13.82-410.66
			 M16.22-390.28H1.79c-5.46,0-4.31-4.55-8.73-4.77l-27.62-1.27c-7.04-0.35-8.77-1.49-12.97-7.23l36.86,3.4
			c4.33,0.42,4.13,5.12,8.41,5.32c7.59,0.35,6.79,0.32,12.96,0.61C13.41-394.1,14.65-392.29,16.22-390.28 M-14.69-405.66
			l-29.69-4.11c-8.06-1.17-9.7-2.78-14.41-9.21l39.73,7.35c4.57,0.86,4.88,6.05,9.42,6.68c8.41,1.16,6.26,0.87,13.37,1.85
			c2.52,0.35,3.69,1.57,6.27,4.87c-5.26-0.49-10.53-0.98-15.8-1.47C-10.18-400.11-10.29-405.03-14.69-405.66"/>
	</g>
	<g id="g1240" transform="translate(102.4983,410.7935)">
		<path id="path1242" class="st1" d="M5-340.64l1.84-11.59c0.06-0.39,0.13-0.78,0.21-1.18c0.08-0.4,0.17-0.77,0.26-1.12
			c0.27-0.13,0.57-0.24,0.93-0.32c0.35-0.08,0.72-0.15,1.11-0.19c0.38-0.04,0.76-0.06,1.13-0.06c0.24,0,0.46,0.01,0.67,0.02
			c0.21,0.01,0.41,0.03,0.59,0.05l0.74-2.9c-0.24-0.03-0.49-0.04-0.75-0.05c-0.26-0.01-0.53-0.02-0.8-0.02
			c-0.74,0-1.51,0.05-2.3,0.15c-0.79,0.1-1.57,0.27-2.35,0.49c-0.77,0.22-1.51,0.51-2.2,0.87c-0.13,0.51-0.25,1.03-0.35,1.54
			c-0.1,0.51-0.21,1.05-0.29,1.61l-2.01,12.72H5z M-3.05-356.51l-2.51,15.87h3.6l2.51-15.87C0.55-356.51-3.05-356.51-3.05-356.51z
			 M-2.85-360.13c0,0.52,0.14,0.89,0.43,1.1c0.29,0.22,0.78,0.32,1.46,0.32c0.56,0,1.01-0.07,1.35-0.2c0.34-0.14,0.6-0.38,0.78-0.7
			c0.18-0.33,0.32-0.76,0.39-1.32c0.02-0.15,0.04-0.3,0.06-0.43c0.01-0.13,0.02-0.26,0.02-0.38c0-0.52-0.14-0.89-0.43-1.1
			c-0.3-0.21-0.79-0.32-1.46-0.32c-0.55,0-1,0.06-1.33,0.2c-0.34,0.14-0.6,0.38-0.79,0.7c-0.19,0.32-0.32,0.77-0.41,1.32
			c-0.02,0.15-0.04,0.3-0.05,0.43C-2.84-360.37-2.85-360.24-2.85-360.13 M-7.16-352.61c0.04-0.22,0.06-0.44,0.08-0.64
			c0.02-0.2,0.03-0.4,0.03-0.58c0-0.83-0.16-1.52-0.47-2.06c-0.31-0.54-0.73-0.97-1.28-1.28c-0.54-0.31-1.18-0.53-1.9-0.65
			c-0.72-0.13-1.5-0.19-2.34-0.18c-1.23,0.01-2.4,0.08-3.51,0.2c-1.11,0.12-2.12,0.27-3.06,0.43l-0.12,2.67
			c0.58-0.07,1.2-0.14,1.86-0.21s1.32-0.12,2-0.16c0.68-0.04,1.36-0.06,2.04-0.06c1.08,0,1.87,0.22,2.37,0.65
			c0.5,0.43,0.74,1.07,0.73,1.94c0,0.15,0,0.31-0.02,0.47c-0.01,0.17-0.04,0.34-0.06,0.51c-1.05,0.04-2.08,0.09-3.09,0.15
			c-1.02,0.06-2,0.16-2.95,0.31c-1.1,0.17-2.02,0.48-2.76,0.95c-0.74,0.46-1.32,1.07-1.74,1.81c-0.42,0.74-0.71,1.62-0.86,2.62
			c-0.03,0.23-0.07,0.45-0.09,0.67c-0.02,0.22-0.03,0.44-0.03,0.64c0,0.89,0.19,1.63,0.57,2.23c0.38,0.6,0.99,1.05,1.82,1.35
			c0.82,0.3,1.89,0.45,3.2,0.45c1.57,0,3-0.11,4.28-0.35c1.28-0.23,2.44-0.62,3.46-1.15c0.13-0.51,0.25-1.03,0.35-1.54
			c0.11-0.51,0.2-1.05,0.29-1.6l0.46-2.94c-1.28,0.16-2.39,0.37-3.61,0.67l-0.21,1.29c-0.06,0.39-0.13,0.78-0.21,1.18
			c-0.08,0.4-0.17,0.78-0.26,1.12c-0.39,0.17-0.78,0.29-1.2,0.38c-0.42,0.08-0.83,0.14-1.24,0.17c-0.41,0.03-0.8,0.04-1.17,0.04
			c-0.63,0-1.17-0.05-1.6-0.16c-0.44-0.12-0.78-0.31-1-0.6c-0.23-0.29-0.35-0.69-0.35-1.2c0-0.11,0.01-0.22,0.02-0.34
			c0.01-0.12,0.02-0.24,0.04-0.37c0.1-0.66,0.26-1.18,0.48-1.57c0.22-0.38,0.52-0.69,0.89-0.89c2.09-1.15,7.2-0.97,9.62-1
			C-7.69-349.27-7.16-352.61-7.16-352.61z M-24.19-351.63c0.06-0.4,0.12-0.78,0.15-1.15c0.04-0.37,0.06-0.73,0.06-1.08
			c0-0.62-0.08-1.18-0.25-1.68c-0.17-0.51-0.46-0.95-0.89-1.32c-0.42-0.36-1.01-0.65-1.75-0.85c-0.75-0.2-1.69-0.31-2.83-0.31
			c-1.59,0-3.04,0.14-4.34,0.4c-1.3,0.26-2.46,0.63-3.49,1.11c-0.13,0.51-0.25,1.03-0.35,1.54c-0.1,0.51-0.21,1.05-0.29,1.6
			l-2.01,12.73h3.58l1.84-11.61c0.06-0.39,0.13-0.78,0.21-1.18c0.08-0.4,0.16-0.77,0.25-1.12c0.27-0.13,0.58-0.24,0.93-0.32
			c0.35-0.08,0.72-0.15,1.11-0.19c0.39-0.04,0.76-0.06,1.12-0.06c0.89,0,1.58,0.08,2.09,0.24c0.5,0.16,0.86,0.42,1.06,0.75
			c0.21,0.34,0.3,0.78,0.29,1.32c0,0.22-0.02,0.47-0.04,0.73c-0.03,0.27-0.06,0.55-0.11,0.84l-1.67,10.6h3.59L-24.19-351.63z
			 M-45.08-356.51l-2.51,15.87h3.6l2.51-15.87H-45.08L-45.08-356.51z M-44.88-360.13c0,0.52,0.14,0.89,0.43,1.1
			c0.29,0.22,0.78,0.32,1.46,0.32c0.56,0,1.01-0.07,1.35-0.2c0.34-0.14,0.6-0.38,0.78-0.7c0.18-0.33,0.32-0.76,0.4-1.32
			c0.02-0.15,0.04-0.3,0.05-0.43c0.01-0.13,0.02-0.26,0.02-0.38c0-0.52-0.14-0.89-0.43-1.1c-0.3-0.22-0.79-0.32-1.46-0.32
			c-0.55,0-1,0.06-1.33,0.2c-0.34,0.14-0.6,0.38-0.79,0.7s-0.32,0.76-0.41,1.32c-0.02,0.15-0.04,0.3-0.05,0.43
			C-44.87-360.37-44.88-360.24-44.88-360.13 M-51.5-362.97l-2.96,18.65c-0.24,1.51-0.08,2.2,0.37,3.69h3.87
			c-0.25-0.42-0.43-0.84-0.54-1.26c-0.12-0.43-0.18-0.88-0.18-1.35c0-0.19,0.01-0.39,0.03-0.59c0.02-0.21,0.05-0.42,0.08-0.64
			l2.93-18.48H-51.5L-51.5-362.97z M-58.76-362.97l-2.96,18.65c-0.24,1.51-0.09,2.2,0.37,3.69h3.87c-0.25-0.42-0.43-0.84-0.55-1.26
			c-0.12-0.43-0.18-0.88-0.18-1.35c0-0.19,0.01-0.39,0.03-0.59c0.01-0.21,0.04-0.42,0.08-0.64l2.93-18.48H-58.76L-58.76-362.97z
			 M-70.97-343.71c-0.8,0-1.43-0.05-1.9-0.16c-0.46-0.11-0.8-0.31-1-0.59c-0.2-0.28-0.29-0.68-0.29-1.2c0-0.21,0.02-0.44,0.04-0.69
			c0.02-0.26,0.06-0.54,0.11-0.83l0.53-3.34h9.06l0.48-3.05H-73l0.47-2.94c0.11-0.71,0.24-1.29,0.41-1.75
			c0.16-0.45,0.39-0.81,0.68-1.06c0.29-0.25,0.68-0.43,1.17-0.52c0.49-0.1,1.11-0.15,1.87-0.14h5.9l0.47-2.97
			c-0.41-0.02-0.86-0.04-1.36-0.06c-0.5-0.01-1.02-0.03-1.55-0.05c-0.54-0.02-1.05-0.03-1.54-0.03c-0.5-0.01-0.94-0.02-1.33-0.02
			c-0.78,0-1.55,0.02-2.29,0.06c-0.74,0.05-1.44,0.16-2.1,0.34c-0.66,0.18-1.26,0.45-1.79,0.83c-0.54,0.38-0.99,0.9-1.36,1.56
			c-0.38,0.66-0.64,1.49-0.81,2.5l-1.89,11.96c-0.04,0.25-0.07,0.48-0.09,0.7c-0.02,0.22-0.03,0.43-0.03,0.64
			c0,0.75,0.13,1.37,0.37,1.87c0.24,0.49,0.58,0.88,1.01,1.16c0.43,0.28,0.93,0.49,1.5,0.63c0.57,0.13,1.19,0.22,1.85,0.26
			c0.66,0.04,1.35,0.05,2.06,0.05c0.39,0,0.83,0,1.34-0.02c0.5,0,1.02-0.02,1.55-0.03c0.54-0.02,1.06-0.03,1.57-0.05
			c0.51-0.02,0.96-0.04,1.38-0.06l0.47-2.97H-70.97L-70.97-343.71z"/>
	</g>
	<g id="g1244" transform="translate(101.5115,406.3665)">
		<path id="path1246" class="st1" d="M4.38-329.02v-0.7c0-0.14-0.06-0.23-0.16-0.28c-0.11-0.05-0.31-0.07-0.6-0.07H2.96v1.49h0.67
			c0.28,0,0.47-0.03,0.58-0.1C4.32-328.75,4.38-328.86,4.38-329.02 M5.4-329.82v0.83c0,0.43-0.14,0.73-0.43,0.89
			c-0.29,0.16-0.77,0.24-1.43,0.24H2.96v1.43H1.9v-4.4h1.76c0.62,0,1.07,0.07,1.34,0.21S5.4-330.22,5.4-329.82 M0.97-330.83v3.19
			c0,0.85-0.64,1.27-1.91,1.27c-1.27,0-1.9-0.42-1.9-1.27v-3.19h1.06v3.19c0,0.2,0.07,0.33,0.2,0.41c0.13,0.07,0.35,0.11,0.67,0.11
			c0.31,0,0.52-0.04,0.65-0.11c0.13-0.08,0.19-0.21,0.19-0.41v-3.19C-0.09-330.83,0.97-330.83,0.97-330.83z M-4.74-327.64v-1.93
			c0-0.21-0.09-0.36-0.26-0.45c-0.17-0.09-0.43-0.13-0.77-0.13c-0.34,0-0.6,0.04-0.77,0.13c-0.17,0.08-0.26,0.23-0.26,0.45v1.93
			c0,0.11,0.03,0.21,0.09,0.28s0.14,0.13,0.25,0.16c0.11,0.03,0.22,0.05,0.32,0.06c0.1,0.01,0.23,0.02,0.38,0.02s0.27,0,0.38-0.02
			c0.1-0.01,0.21-0.03,0.31-0.06c0.11-0.03,0.19-0.08,0.25-0.16C-4.77-327.43-4.74-327.53-4.74-327.64 M-3.69-329.56v1.92
			c0,0.25-0.06,0.46-0.2,0.64c-0.13,0.18-0.31,0.31-0.53,0.4c-0.22,0.09-0.44,0.15-0.66,0.19c-0.22,0.04-0.46,0.05-0.71,0.05
			c-0.23,0-0.45-0.01-0.66-0.04c-0.2-0.03-0.42-0.08-0.66-0.17c-0.23-0.08-0.42-0.21-0.56-0.39c-0.14-0.18-0.21-0.4-0.21-0.67v-1.92
			c0-0.23,0.05-0.43,0.15-0.6c0.1-0.17,0.22-0.3,0.37-0.39c0.14-0.09,0.32-0.16,0.52-0.22c0.2-0.06,0.38-0.09,0.54-0.1
			c0.16-0.01,0.33-0.02,0.5-0.02c0.18,0,0.35,0.01,0.51,0.02c0.16,0.01,0.34,0.05,0.55,0.1c0.2,0.06,0.38,0.13,0.52,0.22
			c0.14,0.09,0.27,0.22,0.37,0.39C-3.74-329.99-3.69-329.79-3.69-329.56 M-9.68-329.34v-0.31c0-0.16-0.05-0.27-0.14-0.34
			c-0.1-0.06-0.26-0.09-0.5-0.09h-0.91v1.22h0.91c0.25,0,0.42-0.03,0.51-0.1C-9.73-329.02-9.68-329.15-9.68-329.34 M-8.37-326.43
			h-1.22l-1.15-1.73h-0.49v1.73h-1.06v-4.4h1.98c0.58,0,1,0.07,1.27,0.21c0.27,0.14,0.4,0.38,0.4,0.72v0.77
			c0,0.27-0.1,0.47-0.29,0.62c-0.19,0.14-0.43,0.24-0.71,0.27C-9.65-328.24-8.37-326.43-8.37-326.43z M-13.14-326.65
			c-0.23,0.08-0.51,0.15-0.86,0.2c-0.35,0.06-0.67,0.08-0.96,0.08c-0.25,0-0.46-0.01-0.66-0.03c-0.2-0.02-0.39-0.06-0.59-0.12
			c-0.2-0.06-0.36-0.13-0.5-0.22c-0.13-0.09-0.24-0.21-0.32-0.37s-0.12-0.33-0.12-0.54v-1.83c0-0.23,0.05-0.43,0.14-0.61
			c0.1-0.18,0.21-0.31,0.36-0.41c0.15-0.1,0.32-0.18,0.52-0.25c0.2-0.07,0.4-0.11,0.59-0.13c0.19-0.02,0.38-0.03,0.59-0.03
			c0.62,0,1.22,0.05,1.79,0.14v0.8c-0.54-0.13-1.13-0.19-1.79-0.19c-0.76,0-1.14,0.22-1.14,0.66v1.77c0,0.23,0.11,0.38,0.32,0.47
			c0.21,0.09,0.52,0.13,0.92,0.13c0.22,0,0.46-0.03,0.71-0.1v-1.02h-0.72v-0.69h1.73V-326.65z M-19.36-327.98v0.29
			c0,0.26-0.05,0.48-0.14,0.66c-0.09,0.18-0.23,0.31-0.42,0.41c-0.19,0.09-0.39,0.16-0.61,0.2s-0.48,0.06-0.78,0.06
			c-0.42,0-0.94-0.04-1.56-0.12v-0.81c0.75,0.12,1.27,0.18,1.57,0.18c0.59,0,0.88-0.15,0.88-0.45v-0.29c0-0.13-0.04-0.24-0.11-0.32
			c-0.08-0.08-0.23-0.13-0.46-0.13h-0.51c-0.97,0-1.45-0.38-1.45-1.15v-0.33c0-0.38,0.16-0.66,0.48-0.84
			c0.32-0.18,0.83-0.27,1.53-0.27c0.34,0,0.8,0.03,1.38,0.09v0.79c-0.69-0.08-1.16-0.12-1.41-0.12c-0.35,0-0.59,0.03-0.72,0.09
			c-0.13,0.06-0.2,0.16-0.2,0.3v0.31c0,0.23,0.19,0.35,0.58,0.35h0.53c0.52,0,0.88,0.09,1.1,0.28
			C-19.46-328.63-19.36-328.35-19.36-327.98 M-23.68-326.43h-1.06v-4.4h1.06L-23.68-326.43L-23.68-326.43z M-26.64-327.71v-1.81
			c0-0.21-0.09-0.36-0.26-0.44s-0.43-0.12-0.78-0.12h-0.81v2.89h0.77c0.41,0,0.69-0.03,0.84-0.09
			C-26.72-327.34-26.64-327.48-26.64-327.71 M-25.59-329.49v1.79c0,0.5-0.15,0.83-0.46,1.01c-0.31,0.18-0.85,0.26-1.62,0.26h-1.88
			v-4.4h1.87c0.75,0,1.28,0.09,1.6,0.28C-25.75-330.37-25.59-330.01-25.59-329.49 M-30.49-326.43h-1.06v-4.4h1.06V-326.43z
			 M-32.5-326.43h-1.07l-2.13-3.05v3.05h-0.94v-4.4h1.07l2.13,3v-3h0.94V-326.43z M-37.35-326.43h-3.42v-4.4h3.35v0.75h-2.3v1.01
			h2.07v0.75h-2.07v1.13h2.36L-37.35-326.43L-37.35-326.43z M-41.49-326.43h-3.63v-0.64l2.29-3h-2.22v-0.75h3.52v0.64l-2.29,3h2.33
			V-326.43L-41.49-326.43z M-45.85-330.83v3.19c0,0.85-0.64,1.27-1.91,1.27c-1.27,0-1.9-0.42-1.9-1.27v-3.19h1.06v3.19
			c0,0.2,0.06,0.33,0.2,0.41c0.13,0.07,0.35,0.11,0.66,0.11c0.31,0,0.52-0.04,0.65-0.11c0.13-0.08,0.19-0.21,0.19-0.41v-3.19H-45.85
			L-45.85-330.83z M-51.56-327.64v-1.93c0-0.21-0.09-0.36-0.26-0.45c-0.17-0.09-0.43-0.13-0.77-0.13c-0.34,0-0.6,0.04-0.77,0.13
			c-0.17,0.08-0.26,0.23-0.26,0.45v1.93c0,0.11,0.03,0.21,0.09,0.28s0.14,0.13,0.25,0.16c0.11,0.03,0.22,0.05,0.32,0.06
			c0.1,0.01,0.23,0.02,0.38,0.02c0.15,0,0.27,0,0.38-0.02c0.1-0.01,0.21-0.03,0.31-0.06c0.11-0.03,0.19-0.08,0.25-0.16
			C-51.59-327.43-51.56-327.53-51.56-327.64 M-50.5-329.56v1.92c0,0.25-0.06,0.46-0.2,0.64c-0.13,0.18-0.31,0.31-0.53,0.4
			c-0.22,0.09-0.44,0.15-0.66,0.19c-0.22,0.04-0.46,0.05-0.7,0.05c-0.24,0-0.45-0.01-0.66-0.04c-0.2-0.03-0.43-0.08-0.66-0.17
			c-0.23-0.08-0.42-0.21-0.56-0.39c-0.14-0.18-0.21-0.4-0.21-0.67v-1.92c0-0.23,0.05-0.43,0.15-0.6c0.1-0.17,0.22-0.3,0.37-0.39
			c0.14-0.09,0.31-0.16,0.52-0.22c0.2-0.06,0.38-0.09,0.54-0.1c0.16-0.01,0.32-0.02,0.5-0.02c0.18,0,0.35,0.01,0.51,0.02
			c0.16,0.01,0.34,0.05,0.55,0.1c0.2,0.06,0.38,0.13,0.52,0.22c0.15,0.09,0.27,0.22,0.37,0.39
			C-50.55-329.99-50.5-329.79-50.5-329.56 M-55.53-326.43h-0.95v-3.25h-0.02l-1.11,3.25h-0.85l-1.14-3.25h-0.03v3.25h-0.97v-4.4h1.5
			l1.08,3.14l1.07-3.14h1.42V-326.43z"/>
	</g>
	<g id="g1248" transform="translate(172.9158,590.7075)">
	</g>
	<g id="g1252" transform="translate(203.0896,564.0146)">
	</g>
	<g id="g1256" transform="translate(202.1028,559.5876)">
	</g>
	<g id="g1260" transform="translate(477.4399,437.4863)">
	</g>
	<g id="g1264" transform="translate(507.6138,410.7935)">
	</g>
	<g id="g1268" transform="translate(506.627,406.3665)">
	</g>
	<g id="g1272" transform="translate(376.8486,590.7075)">
	</g>
	<g id="g1276" transform="translate(407.0225,564.0146)">
	</g>
	<g id="g1280" transform="translate(406.0356,559.5876)">
	</g>
</g>
</svg>
