<?xml version="1.0" encoding="utf-8"?>
<!-- Generator: Adobe Illustrator 25.4.1, SVG Export Plug-In . SVG Version: 6.00 Build 0)  -->
<svg version="1.1" id="Layer_1" xmlns="http://www.w3.org/2000/svg" xmlns:xlink="http://www.w3.org/1999/xlink" x="0px" y="0px"
	 viewBox="0 0 106.5 80" style="enable-background:new 0 0 106.5 80;" xml:space="preserve">
<style type="text/css">
	.st0{fill:#363C60;}
</style>
<path id="path859" class="st0" d="M3.2,12.3C1,17.4-0.2,23.3,0,29.5C0.6,49.3,20.5,53.8,40,58c18.8,4.1,37,9.2,50.7,22
	c8.5-14.2,15.9-28.2,15.8-40.6C106.5,27.7,97,22,84.1,18.6C73.1,15.6,66,11.4,68.3,0c-2.4,1.9-4.1,6.6-4.2,10.9
	c-0.2,7.2,4.7,11.3,10.6,14.5c2.4,0.6,4.7,1.1,6.8,2.4c3.5,2.2,6.7,4.8,9.2,8c4.1,5.2,4.4,8.3,3.6,10.4c2.9,5.3,2.7,9,0.6,11.5
	c-1.1,1.4-2,1.3-2.8,1.6c0.1-3.7,0.4-7.6-6.2-7.5c-3.5-3.5-7.7-5.4-12.7-5.9C63.9,39.5,53,37,41.7,36C23.5,34.5,6.9,31.7,3.2,12.3z"
	/>
</svg>
