<?xml version="1.0" encoding="utf-8"?>
<!-- Generator: Adobe Illustrator 25.4.1, SVG Export Plug-In . SVG Version: 6.00 Build 0)  -->
<svg version="1.1" id="Layer_1" xmlns="http://www.w3.org/2000/svg" xmlns:xlink="http://www.w3.org/1999/xlink" x="0px" y="0px"
	 viewBox="0 0 262.1 80" style="enable-background:new 0 0 262.1 80;" xml:space="preserve">
<style type="text/css">
	.st0{fill:#676359;}
	.st1{fill:#363C60;}
	.st2{fill:#931A3C;}
</style>
<g id="layer1">
	<g id="text857" transform="matrix(1.2250957,0,0.3115883,0.81626276,0,0)">
		<path id="path874" class="st0" d="M118.9,95l0.1,2.4c0,0.5,0.1,0.7,0.5,0.7h2.5l0-0.2c-0.3-0.1-0.3-0.2-0.4-0.7l-0.4-10.5
			c0-0.6-0.1-0.7-0.6-0.7h-3.2l-0.1,0.3c0.3,0.1,0.3,0.2,0.3,0.3c0,0.1-0.1,0.2-0.1,0.4l-6.1,10.2c-0.1,0.3-0.2,0.4-0.2,0.5
			c0,0.3,0.2,0.4,0.6,0.4h2.4l0.1-0.2c-0.3-0.1-0.4-0.1-0.4-0.3c0-0.1,0.1-0.2,0.1-0.4l1.1-2H118.9z M118.8,93.1h-2.7l2.6-4.7
			L118.8,93.1z"/>
		<path id="path876" class="st0" d="M126.3,98l0.1-0.2c-0.2-0.1-0.3-0.2-0.3-0.4c0-0.1,0-0.3,0.1-0.5l2.4-10.1
			c0-0.1,0.1-0.3,0.1-0.4c0-0.3-0.2-0.4-0.6-0.4h-2.5l-0.1,0.3c0.2,0.1,0.3,0.2,0.3,0.4c0,0.1,0,0.3-0.1,0.5l-2.4,10.1
			c0,0.1-0.1,0.3-0.1,0.4c0,0.3,0.2,0.4,0.6,0.4H126.3z"/>
		<path id="path878" class="st0" d="M138.1,96h-0.5c-0.4,0-0.5-0.1-0.7-0.5l-1.1-2.9c1.2-0.2,1.8-0.5,2.4-1.3c0.6-0.8,1-2,1-3.1
			c0-0.8-0.2-1.4-0.7-1.8c-0.4-0.4-0.9-0.5-2-0.5h-5.7l-0.1,0.3c0.2,0.1,0.3,0.2,0.3,0.4c0,0.1,0,0.3-0.1,0.5l-2.4,10.1
			c0,0.1-0.1,0.3-0.1,0.4c0,0.3,0.2,0.4,0.6,0.4h2.5l0.1-0.2c-0.2-0.1-0.3-0.2-0.3-0.4c0-0.1,0-0.3,0.1-0.5l1-4.3h0.9l1.3,4.7
			c0.2,0.6,0.4,0.7,0.9,0.7h1.2c0.6,0,0.8-0.1,0.9-0.7L138.1,96z M132.9,90.8l0.7-3h1.5c1,0,1.3,0.2,1.3,0.9c0,0.8-0.3,1.5-0.8,1.8
			c-0.3,0.2-0.7,0.3-1.3,0.3L132.9,90.8z"/>
		<path id="path880" class="st0" d="M144.9,86.6c0-0.1,0-0.2,0-0.3c0-0.2-0.2-0.4-0.6-0.4h-2.5l-0.1,0.3c0.3,0.1,0.3,0.2,0.3,0.4
			c0,0.1,0,0.3-0.1,0.6l-2.4,10.1c-0.1,0.2-0.1,0.3-0.1,0.4c0,0.3,0.2,0.4,0.6,0.4h5.3c0.7,0,0.9-0.2,1.1-0.9l0.4-1.7h-0.3
			c-0.3,0.5-0.4,0.5-0.9,0.5h-3L144.9,86.6z"/>
		<path id="path882" class="st0" d="M150.8,98l0.1-0.2c-0.2-0.1-0.3-0.2-0.3-0.4c0-0.1,0-0.3,0.1-0.5l2.4-10.1
			c0-0.1,0.1-0.3,0.1-0.4c0-0.3-0.2-0.4-0.6-0.4H150l-0.1,0.3c0.2,0.1,0.3,0.2,0.3,0.4c0,0.1,0,0.3-0.1,0.5l-2.4,10.1
			c0,0.1-0.1,0.3-0.1,0.4c0,0.3,0.2,0.4,0.6,0.4H150.8z"/>
		<path id="path884" class="st0" d="M164.2,86.5c0-0.1,0-0.2,0-0.2c0-0.3-0.2-0.4-0.6-0.4h-2.2l-0.1,0.3c0.2,0.1,0.3,0.2,0.3,0.4
			c0,0.1,0,0.3-0.1,0.5l-1.2,4.9l-1.9-5.5c-0.2-0.5-0.3-0.7-0.7-0.7h-2.4l-0.1,0.3c0.2,0.1,0.3,0.2,0.3,0.4c0,0.1,0,0.3-0.1,0.5
			l-2.4,10.1c0,0.1-0.1,0.3-0.1,0.4c0,0.3,0.2,0.4,0.6,0.4h2.3l0.1-0.2c-0.2-0.1-0.3-0.2-0.3-0.4c0-0.1,0-0.3,0.1-0.5l1.5-6.1
			l2.2,6.4c0.2,0.7,0.4,0.9,1,0.9h1.1L164.2,86.5z"/>
		<path id="path886" class="st0" d="M167.3,96l0.7-2.8c0.2-0.7,0.4-0.9,1.1-0.9h2.7c0.5,0,0.7-0.1,0.8-0.6l0.3-1.4h-4.2l0.6-2.6h3.6
			c0.7,0,0.9-0.1,1.1-0.6l0.3-1.2h-7.8l-0.1,0.3c0.2,0.1,0.3,0.2,0.3,0.4c0,0.1,0,0.3-0.1,0.5l-2.4,10.1c0,0.1-0.1,0.3-0.1,0.4
			c0,0.3,0.2,0.4,0.6,0.4h6.1c0.8,0,1-0.1,1.1-0.9l0.4-1.7h-0.2c-0.3,0.5-0.5,0.6-1.5,0.6H167.3z"/>
		<path id="path888" class="st0" d="M174.2,95.2H174l-0.5,2c0,0.1,0,0.2,0,0.3c0,0.3,0.2,0.5,0.6,0.5h4.5c1.7,0,2.8-0.8,3.3-2.4
			c0.3-0.8,0.5-2,0.5-2.6c0-1-0.4-1.5-1.4-1.9l-1.8-0.6c-0.8-0.3-1.1-0.5-1.1-1c0-0.4,0.2-1,0.4-1.3c0.3-0.3,0.6-0.5,1.4-0.5h2
			c0.7,0,0.8-0.1,1-0.8l0.3-1.1h-3.8c-1.5,0-2.3,0.3-2.8,1c-0.6,0.7-1.2,2.6-1.2,3.6c0,0.4,0.1,0.8,0.3,1.1c0.3,0.4,0.5,0.5,1.2,0.8
			l1.7,0.6c0.8,0.3,0.9,0.5,0.9,1c0,0.3-0.1,0.8-0.3,1.2c-0.3,0.5-0.7,0.8-1.7,0.8h-2C174.5,96,174.3,95.8,174.2,95.2L174.2,95.2z"
			/>
	</g>
	<path id="path859" class="st1" d="M2.4,9.2C0.8,13-0.1,17.4,0,21.9c0.4,14.8,15.3,18.1,29.8,21.3c14,3,27.5,6.8,37.8,16.4
		c6.3-10.6,11.8-21,11.8-30.2c-0.1-8.8-7.1-13-16.7-15.5C54.4,11.6,49.2,8.5,50.9,0c-1.8,1.4-3,4.9-3.1,8.1
		c-0.1,5.4,3.5,8.4,7.9,10.8c1.8,0.4,3.5,0.8,5,1.8c2.6,1.7,5,3.6,6.9,6c3.1,3.8,3.3,6.2,2.6,7.8c2.1,3.9,2,6.7,0.5,8.6
		c-0.8,1-1.5,1-2.1,1.2c0-2.8,0.3-5.6-4.6-5.6c-2.6-2.6-5.8-4-9.5-4.4c-6.9-4.8-15-6.7-23.4-7.4C17.5,25.7,5.1,23.6,2.4,9.2z"/>
	<g id="text853" transform="matrix(1.211683,0,-0.13142988,0.82529836,0,0)">
		<path id="path861" class="st2" d="M79.5,66.2l2.1-8.6c0.5-2.1,1.2-2.6,3.4-2.6h8.3c1.5,0,2.1-0.4,2.4-1.7l1-4.2h-13l1.9-8.1h11.1
			c2.2,0,2.9-0.4,3.3-1.9l0.9-3.6H77l-0.2,0.8c0.7,0.2,1.1,0.6,1.1,1.3c0,0.4-0.1,0.9-0.3,1.7l-7.5,31.1c-0.1,0.4-0.2,0.9-0.2,1.1
			c0,0.8,0.6,1.2,1.8,1.2h18.6c2.4,0,2.9-0.4,3.5-2.8l1.3-5.2h-0.7c-0.9,1.5-1.5,1.7-4.5,1.7L79.5,66.2z"/>
		<path id="path863" class="st2" d="M116,52.1l-4.3,18c-0.1,0.4-0.2,1.1-0.2,1.3c0,0.7,0.6,1.1,1.7,1.1h6.9l0.2-0.6
			c-0.7-0.2-1-0.6-1-1.2c0-0.3,0.1-0.9,0.3-1.6l4-16.6c0.7-2.9,1.8-3.9,4.8-3.9c2.2,0,3.1,0.6,3.1,1.8c0,0.5-0.2,1.4-0.4,2.3L127,70
			c-0.1,0.4-0.2,1.1-0.2,1.3c0,0.7,0.6,1.1,1.7,1.1h6.9l0.2-0.6c-0.7-0.2-1-0.6-1-1.2c0-0.3,0.1-0.9,0.3-1.6l4.5-18.8
			c0.4-1.5,0.6-2.7,0.6-3.6c0-2.5-1.2-4.2-7.5-4.2c-1.1,0-2.6,0.1-3.2,0.2c-1.2,0.2-1.6,0.4-2.3,1.5l-2.2,3.3c0.1-3.7-1.9-5-7.5-5
			c-3.5,0-4.6,0.3-5.5,1.7l-2.1,3l0.6-2.3c0.1-0.4,0.2-0.8,0.2-1c0-0.7-0.7-1.1-1.7-1.1h-7l-0.1,0.6c0.7,0.2,0.9,0.6,0.9,1.2
			c0,0.2,0,0.4-0.1,0.6L96.5,70c-0.2,0.6-0.2,0.9-0.2,1.3c0,0.8,0.6,1.2,1.7,1.2h6.9l0.2-0.6c-0.7-0.2-1-0.6-1-1.2
			c0-0.3,0.1-0.9,0.3-1.6l3.7-15.4c1.1-4.3,1.8-5.1,5.2-5.1c2.1,0,3,0.6,3,1.8C116.2,50.7,116.1,51.5,116,52.1L116,52.1z"/>
		<path id="path865" class="st2" d="M152.2,45c0.1-0.4,0.1-0.9,0.1-1c0-0.7-0.6-1.1-1.7-1.1h-6.9l-0.1,0.6c0.7,0.2,0.9,0.6,0.9,1.2
			c0,0.2,0,0.4-0.1,0.6l-7.7,32.2c-0.2,0.6-0.2,1-0.2,1.3c0,0.8,0.6,1.2,1.7,1.2h6.9l0.1-0.6c-0.7-0.2-1-0.6-1-1.1
			c0-0.3,0.1-0.9,0.3-1.6l1-4.1h7c3.1,0,5.1-0.4,6.6-1.3c2.3-1.5,4.6-5,6-9.1c1.3-3.8,2.2-8.6,2.2-11.8c0-5.5-2.3-7.6-8.2-7.6
			c-1.5,0-2.9,0.1-3.6,0.3c-1.1,0.3-1.2,0.4-2,1.8l-2,3.4L152.2,45z M147,66.2l3.3-13.9c0.6-2.7,1.8-3.6,5.1-3.6
			c2.9,0,3.9,0.8,3.9,3c0,3.1-1.3,8.6-2.8,11.3c-1.2,2.3-2.7,3.1-6.5,3.1H147z"/>
		<path id="path867" class="st2" d="M171.2,45.2L165.3,70c-0.1,0.5-0.2,1.1-0.2,1.3c0,0.8,0.6,1.2,1.7,1.2h6.8l0.2-0.6
			c-0.7-0.2-1-0.6-1-1.2c0-0.3,0.1-0.9,0.3-1.6l5.7-23.8c0.1-0.5,0.2-1.1,0.2-1.3c0-0.7-0.6-1.1-1.7-1.1h-6.9l-0.1,0.6
			c0.7,0.2,1,0.6,1,1.2C171.3,44.8,171.2,45.1,171.2,45.2L171.2,45.2z M173.6,35.4l-0.8,3.4c-0.1,0.3-0.1,0.6-0.1,0.8
			c0,0.8,0.6,1.1,2.1,1.1h5.1l0.8-3.3c0.1-0.3,0.1-0.7,0.1-0.9c0-0.8-0.4-1.1-1.6-1.1H173.6z"/>
		<path id="path869" class="st2" d="M182.6,45.2L176.7,70c-0.1,0.4-0.2,1.1-0.2,1.3c0,0.8,0.6,1.2,1.7,1.2h6.9l0.1-0.6
			c-0.7-0.2-1-0.6-1-1.2c0-0.3,0.1-0.9,0.3-1.6l3.8-15.8c0.8-3.6,1.8-4.5,5-4.5h2.9c2.2,0,2.9-0.5,3.3-2.1l0.9-3.9h-5.7
			c-1.8,0-2,0.1-2.9,1.3l-2.1,2.9l0.4-1.8c0.1-0.4,0.2-1.2,0.2-1.3c0-0.7-0.6-1.1-1.7-1.1h-6.8l-0.2,0.6c0.7,0.2,1,0.6,1,1.2
			C182.7,44.8,182.6,45.1,182.6,45.2L182.6,45.2z"/>
		<path id="path871" class="st2" d="M203.3,59h12.8c2.8,0,3.6-0.3,4.2-1.3c0.7-1.5,1.4-5.2,1.4-7.5c0-5.3-2.8-7.6-9.5-7.6
			c-6.1,0-9.5,1.3-12.2,4.8c-2.6,3.4-5.1,11.8-5.1,17.2c0,3.3,1.3,5.8,3.6,7c1.6,0.8,4,1.2,8.1,1.2c4.4,0,7.1-0.4,8.5-1.2
			c1.1-0.6,1.3-1.1,2-4.1l1-4.1h-0.7c-1.8,2.1-3.8,2.8-8.9,2.8c-2.5,0-3.9-0.2-4.6-0.7c-0.9-0.6-1.3-1.4-1.3-2.6
			c0-0.5,0.1-1.2,0.2-1.8L203.3,59z M204.6,54.1c1.2-4.7,2.7-6.2,6.5-6.2c2.8,0,4.2,1,4.2,3.2c0,0.8-0.1,1.5-0.5,3H204.6z"/>
	</g>
</g>
</svg>
