<?xml version="1.0" encoding="utf-8"?>
<!-- Generator: Adobe Illustrator 25.3.1, SVG Export Plug-In . SVG Version: 6.00 Build 0)  -->
<svg version="1.1" id="Layer_1" xmlns="http://www.w3.org/2000/svg" xmlns:xlink="http://www.w3.org/1999/xlink" x="0px" y="0px"
	 viewBox="0 0 431.03 80" style="enable-background:new 0 0 431.03 80;" xml:space="preserve">
<style type="text/css">
	.st0{fill:#ED4138;}
	.st1{fill:#00693A;}
	.st2{fill:#DF1804;}
	.st3{fill:#214078;}
	.st4{fill:#3487C7;}
	.st5{fill:url(#SVGID_1_);}
	.st6{fill:url(#SVGID_2_);}
	.st7{fill:#184A8A;}
	.st8{fill:url(#SVGID_3_);}
	.st9{fill:url(#SVGID_4_);}
	.st10{fill:url(#SVGID_5_);}
	.st11{fill:url(#SVGID_6_);}
	.st12{fill:#9E8266;}
	.st13{fill:#322E26;}
	.st14{fill:#332F27;}
	.st15{fill:#791722;}
	.st16{fill:url(#SVGID_7_);}
	.st17{fill:url(#SVGID_8_);}
	.st18{fill:url(#SVGID_9_);}
	.st19{fill:url(#SVGID_10_);}
	.st20{fill:url(#SVGID_11_);}
	.st21{fill:url(#SVGID_12_);}
	.st22{fill:url(#SVGID_13_);}
	.st23{fill:url(#SVGID_14_);}
	.st24{fill:url(#SVGID_15_);}
	.st25{fill:url(#SVGID_16_);}
	.st26{fill:url(#SVGID_17_);}
	.st27{fill:url(#SVGID_18_);}
	.st28{fill:url(#SVGID_19_);}
	.st29{fill:url(#SVGID_20_);}
	.st30{fill:url(#SVGID_21_);}
	.st31{fill:#222325;}
	.st32{fill:#A0925A;}
	.st33{fill:#061E34;}
	.st34{fill:#028E8F;}
	.st35{fill:#D5192C;}
	.st36{fill:#FAC201;}
	.st37{fill:url(#SVGID_22_);}
	.st38{fill:url(#SVGID_23_);}
	.st39{fill:url(#SVGID_24_);}
	.st40{fill:url(#SVGID_25_);}
	.st41{fill:#9F8A58;}
	.st42{fill:#749ED4;}
	.st43{fill:#045991;}
	.st44{fill:#1F9A8D;}
	.st45{fill:#222D68;}
	.st46{fill:#14152E;}
	.st47{fill:#62B3E4;}
	.st48{fill:#FEFEFE;}
	.st49{fill:none;}
	.st50{fill:#FC0302;}
	.st51{fill:#FE0807;}
	.st52{fill:#98684C;}
	.st53{fill:#86754D;}
	.st54{fill:#42484D;}
	.st55{fill:#41474C;}
	.st56{fill:#43494D;}
	.st57{fill:#DF073D;}
	.st58{fill:#DE023A;}
	.st59{fill:#FFFFFF;}
	.st60{fill:#6F6E6C;}
	.st61{fill:#072F67;}
	.st62{fill:#53A220;}
	.st63{fill:#FDC013;}
	.st64{fill:url(#SVGID_26_);}
	.st65{fill:url(#SVGID_27_);}
	.st66{fill:url(#SVGID_28_);}
	.st67{fill:#793A98;}
	.st68{fill:url(#SVGID_29_);}
	.st69{fill:url(#SVGID_30_);}
	.st70{fill:url(#SVGID_31_);}
	.st71{fill:url(#SVGID_32_);}
	.st72{fill:url(#SVGID_33_);}
</style>
<g>
	<path class="st33" d="M250.75,79.42c-0.17-0.01-0.33-0.04-0.49-0.07c-9.22-1.62-15.2-7-17.89-15.91c-1.43-4.74-0.89-9.51,1.1-14.03
		c3-6.81,8.23-11.12,15.48-12.74c6.54-1.46,12.5,0.19,17.72,4.34c4.57,3.63,7.31,8.42,8.11,14.15c0.83,5.9-0.73,11.29-4.44,15.99
		c-3.27,4.15-7.49,6.86-12.7,7.99c-0.77,0.17-1.53,0.21-2.3,0.25C255.1,79.42,252.43,79.57,250.75,79.42z M253.25,74.82
		c6.12,0.13,11.9-3.65,14.43-8.82c1.53-3.14,2.16-6.43,1.92-9.94c-0.53-7.72-6.9-14.13-15.03-14.85
		c-5.82-0.52-10.58,1.89-14.13,6.46c-3.47,4.45-4.29,9.51-2.84,14.92C239.58,69.94,246.36,75.02,253.25,74.82z"/>
	<path class="st33" d="M304.5,79.42c-0.17-0.01-0.33-0.04-0.49-0.07c-9.22-1.62-15.2-7-17.89-15.91c-1.43-4.74-0.89-9.51,1.1-14.03
		c3-6.81,8.23-11.12,15.48-12.74c6.54-1.46,12.5,0.19,17.72,4.34c4.57,3.63,7.31,8.42,8.11,14.15c0.83,5.9-0.73,11.29-4.44,15.99
		c-3.27,4.15-7.49,6.86-12.7,7.99c-0.77,0.17-1.53,0.21-2.3,0.25C308.84,79.42,306.18,79.57,304.5,79.42z M307,74.82
		c6.12,0.13,11.9-3.65,14.43-8.82c1.53-3.14,2.16-6.43,1.92-9.94c-0.53-7.72-6.9-14.13-15.03-14.85
		c-5.82-0.52-10.58,1.89-14.13,6.46c-3.47,4.45-4.29,9.51-2.84,14.92C293.32,69.94,300.1,75.02,307,74.82z"/>
	<path class="st33" d="M430.54,79.39c-1.6,0-3.21,0-4.78,0c-0.34-1.51-0.46-37.2-0.16-41.45c1.63,0,3.28,0,4.94,0
		C430.54,51.76,430.54,65.57,430.54,79.39z"/>
	<path class="st33" d="M430.54,32.94c-1.6,0-3.2,0-4.97,0c-0.13-1.29-0.05-2.51-0.07-3.73c-0.01-1.23,0-2.46,0-3.78
		c1.76,0,3.4,0,5.04,0C430.54,27.93,430.54,30.43,430.54,32.94z"/>
	<path class="st34" d="M75.77,59.59C63.93,52.74,52.31,46.03,40.6,39.25C52.48,32.5,64.2,25.84,76.08,19.09
		c11.81,6.74,23.55,13.57,35.57,20.5C99.56,46.33,87.7,52.95,75.77,59.59z"/>
	<path class="st34" d="M0.13,37.44C11.11,24.88,21.78,12.67,32.45,0.47c12.31,0,24.55,0,36.87,0c-1.19,1.92-2.81,3.39-4.22,5.04
		c-3.63,4.25-7.38,8.4-11.07,12.6c-3.22,3.66-6.42,7.34-9.62,11.01c-1.87,2.15-3.7,4.34-5.58,6.48c-0.58,0.67-1.27,1.24-1.89,1.83
		C24.8,37.44,12.69,37.44,0.13,37.44z"/>
	<path class="st34" d="M0.14,40.9c12.61,0,24.73,0,37.05,0c10.61,12.08,21.3,24.26,32.19,36.66c-12.56,0-24.78,0-37.06,0
		C21.71,65.47,11.06,53.34,0.14,40.9z"/>
	<path class="st33" d="M142.36,25.4c2.73,0,5.29,0,7.94,0c0,17.95,0,35.84,0,53.83c-1.95,0-3.88,0-5.92,0c0-6.2,0-12.37,0-18.52
		c-1.34-0.34-14.45-0.44-17.67-0.16c-3.93,6.19-7.9,12.45-11.87,18.71c-2.37,0-4.68,0-7.24,0C119.15,61.16,130.78,43.34,142.36,25.4
		z M144.25,33.44c-4.77,7.43-9.37,14.59-14.05,21.89c4.8,0,9.41,0,14.05,0C144.25,48.08,144.25,40.93,144.25,33.44z"/>
	<path class="st33" d="M183.55,79.14c0-1.54,0-3.13,0-4.69c0.53-0.51,1.16-0.29,1.74-0.3c5.8-0.06,11.6,0.14,17.39-0.14
		c3.16-0.15,6.24-0.8,9.18-2c6.37-2.61,9.98-7.61,12.09-13.9c0.72-2.15,1.03-4.41,1-6.65c-0.06-5.1-1.55-9.77-4.67-13.9
		c-3.46-4.58-8.01-7.3-13.67-8.3c-2.47-0.44-4.95-0.68-7.45-0.69c-0.83,0-1.65,0-2.54,0c-0.39-1.67-0.23-3.19-0.23-4.83
		c1.8,0,3.52-0.11,5.22,0.03c2.78,0.22,5.54,0.54,8.26,1.24c10.5,2.69,17.09,9.41,19.7,19.7c2.64,10.44-0.19,19.6-7.95,27.12
		c-3.59,3.48-8.01,5.44-12.88,6.46c-3.63,0.76-7.29,1.05-10.99,1.02c-4.3-0.03-8.61,0-12.91-0.01
		C184.43,79.32,184.01,79.43,183.55,79.14z"/>
	<path class="st33" d="M175.52,37.95c0,1.9,0,3.56,0,5.71c2.61-4.94,6.7-6.54,11.67-6.75c0,1.81,0,3.57,0,5.39
		c-0.79,0.44-1.71,0.39-2.55,0.58c-5.2,1.12-8.88,5.57-9.1,11.12c-0.12,2.97-0.04,5.95-0.04,8.93c0,4.82,0,9.64,0,14.46
		c0,0.58,0,1.17,0,1.85c-1.75,0-3.4,0-5.06,0c-0.34-1.35-0.49-35.45-0.16-41.21C171.95,37.83,173.64,37.94,175.52,37.95z"/>
	<path class="st33" d="M410.46,25.43c1.66,0,3.25,0,5.05,0c0.02,2.05,0.01,4.11,0.01,6.17c0,2.02,0,4.04,0,6.21
		c1.75,0.27,3.52-0.01,5.32,0.16c0,1.63,0,3.15,0,4.83c-1.74,0-3.44,0-5.04,0c-0.43,0.58-0.28,1.07-0.28,1.53
		c-0.01,4.64-0.03,9.29,0.01,13.93c0.01,1.24-0.17,2.48-0.04,3.73c0.12,1.24,0.03,2.5,0.03,3.75c0,1.31,0,2.62,0,3.93
		c0,1.25,0,2.5,0,3.75c0,1.31,0,2.62,0,3.93c0,0.59,0,1.18,0,1.85c-1.72,0.26-3.35,0.05-5.05,0.14
		C410.46,61.28,410.46,43.39,410.46,25.43z"/>
	<path class="st33" d="M282.72,79.25c-1.84,0-3.49,0-5.21,0c0-17.98,0-35.88,0-53.77c0.19-0.1,0.34-0.25,0.5-0.26
		c1.54-0.02,3.08-0.01,4.71-0.01C282.72,43.27,282.72,61.22,282.72,79.25z"/>
	<path class="st33" d="M398.41,37.99c1.76,0,3.41,0,5.13,0c0,13.77,0,27.47,0,41.26c-1.7,0-3.35,0-5,0
		C398.23,77.84,398.11,42.91,398.41,37.99z"/>
	<path class="st33" d="M162.08,32.84c-1.83,0-3.55,0-5.33,0c0-3.11,0-6.16,0-9.3c1.78-0.34,3.5-0.05,5.19-0.18
		C162.27,24.6,162.35,29.78,162.08,32.84z"/>
	<path class="st33" d="M398.36,32.9c0-2.61,0-4.97,0-7.52c1.68-0.38,3.37-0.06,5.22-0.22c0.09,2.57,0.02,5.04,0.05,7.57
		c-0.89,0.34-1.79,0.12-2.65,0.16C400.15,32.93,399.32,32.9,398.36,32.9z"/>
	<path class="st33" d="M159.42,37.93c-0.87,0.04-1.76-0.21-2.61,0.2c0,4.28-0.01,8.51,0,12.73c0.01,3.33,0.04,6.66,0.06,10
		c-0.04,0.08-0.04,0.16,0,0.24c-0.01,5.95-0.01,11.9-0.01,17.85c0,0.09,0.12,0.18,0.26,0.37c1.62-0.07,3.33,0.13,5.01-0.12
		c0-13.78,0-27.45,0-41.28C161.18,37.93,160.3,37.89,159.42,37.93z"/>
	<polygon class="st33" points="337.21,61.32 332.64,61.32 332.64,60.64 337.21,60.64 	"/>
	<path class="st33" d="M392.93,60.95c-0.01-0.32-0.02-0.61-0.03-0.9v-6.36c0-0.04,0-0.08,0-0.12c0-0.05,0-0.09,0-0.14v-0.4h-0.01
		c-0.02-1.91-0.42-3.76-1.07-5.56c-1.54-4.29-4.29-7.47-8.54-9.29c-1.37-0.59-2.81-0.91-4.29-1.12c-4.31-0.6-8.27,0.18-11.86,2.69
		c-1.87,1.3-3.31,2.99-4.58,4.89c-5.71-9.51-19.31-10.34-25.27-2.04c0-1.64,0-3.09,0-4.69c-0.96,0-1.78,0-2.6,0
		c-0.88,0-1.75,0-2.6,0c-0.31,4.18-0.19,40.01,0.12,41.31c1.66,0,3.31,0,5.01,0c0-6.09,0-12.09,0-18.09c-1.47,0-2.95,0-4.42,0
		c0-0.11,0-0.22-0.01-0.33c1.48,0,2.95,0,4.43,0c0.02-1.96,0.08-3.93,0.06-5.89c-0.02-1.8,0.24-3.55,0.74-5.26
		c0.96-3.28,2.77-5.87,6.06-7.25c1.01-0.42,2.05-0.57,3.11-0.71c2.69-0.36,5.2,0.16,7.51,1.58c2.48,1.54,3.73,3.93,4.45,6.63
		c0.51,1.9,0.71,3.84,0.7,5.81c-0.01,7.32-0.01,14.64,0.01,21.96c0,0.51-0.17,1.06,0.25,1.63c1.66-0.07,3.36,0.11,5.13-0.13
		c0-0.68,0-1.27,0-1.86c0-7.62,0.01-15.24,0.01-22.86c0-2.09,0.35-4.13,1.1-6.08c1.22-3.17,3.37-5.44,6.74-6.32
		c1.79-0.47,3.59-0.61,5.47-0.28c3.79,0.67,6.36,2.79,7.85,6.24c1.05,2.43,1.38,5.02,1.39,7.64l0,0v23.66h5.09V60.92L392.93,60.95z"
		/>
</g>
</svg>
