<?xml version="1.0" encoding="utf-8"?>
<!-- Generator: Adobe Illustrator 25.4.1, SVG Export Plug-In . SVG Version: 6.00 Build 0)  -->
<svg version="1.1" id="Layer_1" xmlns="http://www.w3.org/2000/svg" xmlns:xlink="http://www.w3.org/1999/xlink" x="0px" y="0px"
	 viewBox="0 0 80 80" style="enable-background:new 0 0 80 80;" xml:space="preserve">
<style type="text/css">
	.st0{fill:#18659E;}
	.st1{fill:#FEFEFE;}
</style>
<g id="Clip-9">
</g>
<g id="Clip-2">
</g>
<g>
	<circle class="st0" cx="40" cy="40" r="40"/>
	<path class="st1" d="M45.27,61.97c0.1-0.13,0.2-0.26,0.31-0.39c0.16-0.31,0.4-0.59,0.49-0.94c-0.24-0.5-0.55-0.91-1.02-1.24
		c-0.78-0.55-1.41-1.26-1.94-2.06c-0.25-0.37-0.28-0.81-0.41-1.21c-0.33-1.01-0.72-2.01-0.82-3.08c-0.04-0.45-0.06-0.91-0.08-1.36
		c-0.03-0.61-0.28-1.08-0.77-1.45c-1.53-1.17-3.16-2.18-4.83-3.14c-0.74-0.43-1.21-1.12-1.71-1.79c-0.74-1-1.4-2.06-2.01-3.15
		c-0.06-0.13-0.15-0.23-0.29-0.27c-0.05-0.01-0.1-0.01-0.15,0c-0.25,0.24-0.55,0.28-0.88,0.2c-1.2-0.34-2.07-1.16-2.87-2.05
		c-0.23-0.25-0.41-0.54-0.64-0.78c-0.27-0.28-0.47-0.26-0.72,0.02c-0.02,0.02-0.03,0.04-0.05,0.06c-0.69,0.54-0.93,1.23-0.74,2.09
		c0.05,0.24,0.05,0.52-0.19,0.72c-0.08,0.07-0.09,0.18-0.05,0.29c0.05,0.16,0.07,0.34,0.15,0.48c0.37,0.58,0.17,1.08-0.17,1.58
		c-0.3,0.43-0.59,0.86-0.95,1.23c-0.1,0.1-0.19,0.28-0.34,0.22c-0.14-0.05-0.11-0.25-0.13-0.38c-0.11-1.02-0.1-2.05-0.1-3.08
		c0-0.57-0.02-1.14,0.15-1.7c0.06-0.22,0.13-0.44,0.29-0.59c0.44-0.44,0.63-0.99,0.79-1.58c0.21-0.78-0.26-1.5-1.08-1.58
		c-0.42-0.04-0.83,0.02-1.23,0.14c-0.73,0.2-1.42,0.49-2.08,0.85c-0.34,0.18-0.52,0.42-0.56,0.82c-0.06,0.57-0.07,0.54-0.59,0.35
		c-0.71-0.25-1.35-0.61-1.88-1.14c-0.33-0.34-0.33-0.33,0.08-0.51c0.46-0.21,0.92-0.43,1.28-0.81c0.18-0.19,0.43-0.24,0.66-0.31
		c0.53-0.14,1.09-0.22,1.62-0.11c0.81,0.17,1.54-0.03,2.25-0.39c0.31-0.16,0.64-0.29,0.95-0.44c1.09-0.5,2.09-0.4,2.98,0.44
		c0.2,0.19,0.39,0.37,0.54,0.61c0.28,0.43,0.58,0.83,1.03,1.1c0.34,0.2,0.46,0.13,0.53-0.24c0.09-0.51,0.06-1-0.12-1.49
		c-0.13-0.35-0.17-0.73-0.19-1.11c-0.02-0.32,0.18-0.53,0.41-0.71c0.39-0.3,0.8-0.58,1.17-0.9c0.49-0.41,0.81-0.93,0.93-1.58
		c0.11-0.6,0.48-1.07,0.9-1.47c0.63-0.59,1.09-1.29,1.49-2.03c0.25-0.46,0.34-0.95,0.14-1.46c-0.21-0.56-0.44-0.71-1.04-0.62
		c-0.15,0.02-0.31,0.06-0.45,0.13c-0.42,0.19-0.81,0.15-1.16-0.16c-0.31-0.28-0.63-0.26-0.96-0.04c-0.25,0.17-0.48,0.36-0.72,0.54
		c-0.43,0.31-0.75,0.31-1.18,0.02c-0.45-0.3-0.55-0.56-0.42-1.09c0.06-0.25,0.03-0.39-0.26-0.44c-0.35-0.06-0.48-0.31-0.49-0.65
		c-0.04-0.99,0.24-1.41,1.16-1.78c0.78-0.31,1.61-0.4,2.4-0.66c0.15-0.09,0.3-0.2,0.46-0.26c0.03-0.02,0.06-0.03,0.1-0.04
		c0.16,0,0.31-0.06,0.46-0.08c0.41-0.19,0.65-0.52,0.78-0.95c0.07-0.22,0.22-0.38,0.43-0.47c0.28-0.13,0.56-0.26,0.85-0.39
		c0.26-0.12,0.54-0.28,0.65-0.53c0.16-0.38,0.41-0.35,0.73-0.3c0.57,0.09,0.96,0.43,1.28,0.88c0.18,0.25,0.33,0.33,0.59,0.04
		c0.2-0.22,0.51-0.35,0.77-0.52c0.05-0.03,0.12-0.08,0.18-0.04c0.08,0.06,0.03,0.14,0,0.21c-0.08,0.19-0.17,0.38-0.25,0.57
		c-0.08,0.25-0.03,0.51-0.03,0.76c0.01,0.32,0.36,0.24,0.5,0.41c0.13,0.05,0.26,0.11,0.39,0.16c0.15-0.06,0.17,0.08,0.23,0.15
		c0.41,0.26,0.81,0.54,1.16,0.88c0.09,0.01,0.14,0.06,0.15,0.15c0.47,0.64,0.77,1.37,1.14,2.06c0.2,0.37,0.4,0.72,0.66,1.06
		c0.31,0.4,0.5,0.85,0.55,1.35c0.02,0.17,0.07,0.4-0.12,0.5c-0.16,0.09-0.32-0.05-0.46-0.14c-0.13-0.09-0.25-0.19-0.38-0.27
		c-0.09-0.05-0.19-0.1-0.28,0c-0.1,0.1-0.05,0.2,0.01,0.28c0.16,0.26,0.35,0.48,0.57,0.68c0.59,0.54,0.91,1.44,0.79,2.33
		c-0.4-0.34-0.78-0.66-1.15-0.98c-0.18-0.15-0.36-0.29-0.61-0.31c-0.25-0.02-0.34,0.07-0.34,0.3c-0.01,0.28,0.1,0.5,0.3,0.69
		c0.35,0.33,0.68,0.68,1.04,1c0.35,0.31,0.55,0.67,0.5,1.16c-0.03,0.3-0.01,0.6,0,0.9c0,0.31,0.16,0.31,0.38,0.19
		c0.49-0.27,0.94-0.61,1.31-1.03c0.57-0.64,1.08-1.33,1.57-2.03c0.78-1.1,1.67-2.09,2.9-2.71c0.34-0.17,0.68-0.32,1.06-0.35
		c1.74-0.11,3.45,0.02,5.12,0.56c1.25,0.41,2.55,0.44,3.82,0.29c0.89-0.11,1.74-0.5,2.61-0.77c1.11-0.36,2.26-0.59,3.32-1.09
		c1.29-0.62,2.39-1.51,3.42-2.49c0.34-0.32,0.75-0.57,0.95-1.01c0.12-0.24,0.17-0.55,0.55-0.51c0.03,0.03,0.05,0.07,0.05,0.11
		c-0.05,0.44,0,0.91-0.22,1.32c-0.04,0.1-0.09,0.19-0.1,0.29c-0.21,1.79-1.25,3.06-2.58,4.15c-0.24,0.2-0.47,0.41-0.65,0.67
		c-0.09,0.12-0.21,0.26-0.11,0.42c0.1,0.15,0.28,0.13,0.43,0.12c0.54-0.02,0.96-0.3,1.35-0.63c0.11-0.09,0.2-0.19,0.32-0.3
		c0.11,0.24-0.01,0.41-0.11,0.56c-0.21,0.33-0.39,0.67-0.54,1.03c-0.39,0.93-1.09,1.6-1.83,2.24c-0.22,0.19-0.45,0.35-0.63,0.57
		c-0.2,0.24-0.47,0.39-0.77,0.42c-0.48,0.05-0.93,0.23-1.41,0.28c-0.28,0.03-0.52,0.17-0.72,0.35c-0.26,0.24-0.23,0.46,0.11,0.57
		c0.51,0.16,1.04,0.19,1.57,0.06c0.01,0.04,0.03,0.07,0.03,0.08c-0.58,0.84-1.24,1.63-2.09,2.18c-0.6,0.38-1.37,0.37-2.08,0.38
		c-0.21,0-0.42-0.02-0.62-0.01c-0.4,0.02-0.52,0.28-0.29,0.6c0.31,0.43,0.75,0.62,1.28,0.61c0.09,0,0.18,0,0.27,0
		c0.01,0.04,0.03,0.08,0.02,0.09c-0.63,0.77-1.25,1.56-1.91,2.31c-0.29,0.32-0.7,0.47-1.15,0.5c-0.68,0.04-1.27,0.35-1.86,0.66
		c-0.64,0.34-1.29,0.66-1.93,1.02c-0.92,0.52-1.88,0.56-2.81-0.03c-0.24-0.15-0.43-0.26-0.7,0.03c-0.39,0.4-1.35,0.39-1.82,0.07
		c-0.43-0.3-0.9-0.52-1.39-0.68c-0.11-0.04-0.26-0.12-0.35,0.04c-0.08,0.15-0.05,0.31,0.09,0.42c0.17,0.13,0.35,0.28,0.55,0.37
		c0.74,0.34,1.39,0.85,2.16,1.14c0.35,0.13,0.5,0.48,0.64,0.8c0.24,0.55,0.35,1.14,0.53,1.71c0.06,0.21,0.17,0.33,0.4,0.36
		c0.26,0.04,0.51,0.09,0.77,0.05c1.78-0.3,2.58,0.25,3.43,1.6c1.05,1.67,1.31,3.47,0.68,5.37c-0.22,0.64-0.32,1.31-0.32,1.99
		c0,0.35,0.09,0.67,0.26,0.97c0.51,0.89,1.38,1.04,2.15,0.37c0.06-0.05,0.08-0.14,0.16-0.18c0.19,0.46,0.16,0.86-0.13,1.21
		c-0.37,0.43-0.86,0.51-1.39,0.38c-0.33-0.08-0.62-0.26-0.92-0.41c-0.07-0.04-0.15-0.14-0.24-0.05c-0.07,0.07-0.02,0.18,0,0.26
		c0.22,0.86,0.57,1.06,1.45,0.92c0.78-0.13,1.37-0.6,1.96-1.06c0.08-0.06,0.14-0.19,0.26-0.12c0.14,0.08,0.1,0.23,0.08,0.35
		c-0.06,0.24-0.2,0.45-0.34,0.66c-0.23,0.36-0.44,0.74-0.58,1.14c-0.1,0.27-0.05,0.43,0.28,0.41c0.1-0.01,0.23-0.02,0.28,0.09
		s-0.07,0.18-0.12,0.27c-0.25,0.39-0.57,0.7-0.97,0.94c-0.38,0.22-0.68,0.55-1.03,0.82c-0.51,0.39-1.16,0.51-1.77,0.67
		c-0.52,0.14-1.06,0.14-1.59,0.12c-0.55-0.02-1.05-0.27-1.46-0.58c-0.95-0.75-1.55-1.7-1.74-2.96c-0.28-1.83,0.21-3.47,0.91-5.1
		c0.31-0.73,0.6-1.47,0.85-2.22c0.26-0.78,0.39-1.59,0.44-2.4c0.06-0.82-0.45-1.38-1.1-1.81c-0.23-0.15-0.42-0.08-0.57,0.14
		c-0.03,0.04-0.06,0.09-0.08,0.13c-1,1.99-2.36,3.71-3.8,5.38c-0.51,0.59-0.58,1.58-0.08,2.29c0.26,0.36,0.48,0.74,0.66,1.14
		c0.21,0.46,0.48,0.91,0.88,1.22c0.61,0.46,0.76,1.78,0.36,2.45c-0.42,0.69-0.8,1.4-1.17,2.11c-0.35,0.67-0.55,1.42-0.81,2.14
		c-0.17,0.48-0.33,0.96-0.5,1.43c-0.09,0.25-0.2,0.47-0.52,0.51c-0.28,0.04-0.34,0.31-0.36,0.54c-0.13,1.39-0.3,1.37-1.67,1.26
		c-0.23-0.02-0.46-0.07-0.69-0.14c-0.4-0.12-0.47-0.27-0.32-0.66c0.22-0.57,0.62-1.02,1.01-1.47c0.51-0.58,1.12-1.09,1.35-1.88
		c0.09-0.32,0.21-0.64,0.23-0.98c0.01-0.13,0.01-0.27-0.12-0.35c-0.13-0.08-0.25,0-0.36,0.06c-0.39,0.25-0.66,0.62-0.94,0.98
		c-0.29,0.37-0.54,0.74-0.97,0.99c-0.37,0.22-0.35,0.69-0.35,1.06c0,0.63-0.3,1.06-0.78,1.4c-0.49,0.35-0.69,0.28-0.83-0.31
		c-0.23-1.04-0.16-2.01,0.64-2.82c0.25-0.26,0.47-0.54,0.55-0.92c0.05-0.26,0.28-0.43,0.49-0.59c0.56-0.42,1.13-0.83,1.7-1.25
		c0.04-0.07,0.03-0.16,0.09-0.22c0.1-0.07,0.14-0.19,0.21-0.28C45.02,61.98,45.15,62,45.27,61.97z"/>
</g>
</svg>
