<?xml version="1.0" encoding="utf-8"?>
<!-- Generator: Adobe Illustrator 25.4.1, SVG Export Plug-In . SVG Version: 6.00 Build 0)  -->
<svg version="1.1" id="Layer_1" xmlns="http://www.w3.org/2000/svg" xmlns:xlink="http://www.w3.org/1999/xlink" x="0px" y="0px"
	 viewBox="0 0 314.73 80" style="enable-background:new 0 0 314.73 80;" xml:space="preserve">
<style type="text/css">
	.st0{fill:#FFFFFF;}
	.st1{fill-rule:evenodd;clip-rule:evenodd;fill:#3B669E;}
	.st2{fill-rule:evenodd;clip-rule:evenodd;fill:#75AA4F;}
</style>
<g id="Clip-9">
</g>
<g id="Clip-2">
</g>
<g>
	<path class="st0" d="M311.59,13.04c-3.29-4.93-8.47-8.37-14.01-10.28c-5.22-1.92-10.79-2.67-16.32-2.74
		c-8.72-0.21-17.45,1.19-25.75,3.81c-11.25,3.62-21.97,9.28-30.78,17.22c-4.66,4.31-8.63,9.46-11.06,15.36
		c-1.39,3.84-2.27,7.96-1.97,12.07c0.36,4.77,2.61,9.29,6.08,12.56l0,0.01c0,0,3.06,3.22,8.83,5.67c0,0.01-0.01,0.02-0.01,0.03
		c0.35,0.13,0.7,0.26,1.06,0.39c0.98,0.38,2.03,0.73,3.15,1.04c0.02,0.01,0.04,0.01,0.06,0.02c0.02,0.01,0.04,0.01,0.07,0.02
		c0.02,0,0.03,0.01,0.05,0.01c6.16,1.8,12.64,2.55,19.04,2.07c0,0,3.46,0.02,9.35-1.04c-0.01,0.02-0.02,0.04-0.03,0.05
		c1.14-0.22,2.28-0.47,3.41-0.73c0.15-0.03,0.29-0.06,0.44-0.1c0.08-0.02,0.17-0.05,0.26-0.07c11.31-2.68,22.22-7.29,31.63-14.16
		c8.34-6,15.6-14.13,18.78-24.05C315.48,24.51,314.93,18.02,311.59,13.04z"/>
	<g>
		<path class="st1" d="M23.58,17.5c4.33-0.92,8.82-1.18,13.22-0.65c3.57,0.45,7.13,2.06,9.32,4.99c1.88,2.59,2.56,5.86,2.57,9.01
			c-0.1,3.98-1.13,7.88-2.54,11.58c-2.62,6.8-7.24,13.08-13.73,16.61C27.16,62.01,20.8,62.32,15,61.08
			c-1.69,5.9-3.32,11.81-5.06,17.69C6.62,78.76,3.31,78.79,0,78.66c2.36-8.1,4.67-16.21,7.02-24.31c3.37-11.51,6.45-23.11,9.91-34.6
			C18.97,18.58,21.32,18.09,23.58,17.5z M25.83,23.49c-1.27,4.41-2.57,8.81-3.9,13.2c-1.8,6.04-3.33,12.14-5.24,18.14
			c1.83,0.93,3.93,1.05,5.94,0.78c2.58-0.27,5.05-1.3,7.09-2.9c3.43-2.59,5.78-6.45,6.94-10.55c1.18-3.77,1.97-7.69,2.06-11.65
			c0.05-2.67-0.97-5.68-3.48-6.96C32.25,22.21,28.87,22.69,25.83,23.49z M68.73,17.77c3.65-1.12,7.57-1.27,11.31-0.49
			c2.47,0.44,4.82,1.71,6.37,3.72c2.03,2.58,2.42,6.04,2.27,9.22c-0.11,3.16-1.03,6.2-1.97,9.19c-9.34,1.19-18.68,2.44-28.02,3.71
			c-0.36,3.09-0.64,6.58,1.22,9.29c1.42,2.12,4.14,2.61,6.5,2.88c4.31,0.33,8.63-0.68,12.63-2.25c0.31,2.04,0.43,4.11,0.66,6.17
			c-5.55,2.64-11.85,3.36-17.92,2.89c-3.91-0.28-7.98-1.88-10.27-5.2c-2.4-3.43-2.74-7.83-2.24-11.87c0.9-6.28,2.88-12.55,6.68-17.7
			C59.13,23,63.49,19.28,68.73,17.77z M66.67,25.54c-3.74,3.14-5.56,7.86-6.96,12.4c6.3-0.79,12.58-1.69,18.85-2.63
			c0.64-2.71,1.42-5.56,0.76-8.34c-0.36-1.34-1.07-2.74-2.43-3.29C73.53,22.06,69.39,23.18,66.67,25.54z M113.13,17.35
			c6.14-0.62,12.83-0.58,18.2,2.88c-2.84,9.67-5.43,19.41-8.36,29.05c-2.21,6.48-3.16,13.44-6.47,19.52
			c-3.7,6.88-11.43,11.17-19.19,11.18c-5.26,0.13-10.79-0.31-15.42-3.06c1.57-2.16,3.1-4.34,4.63-6.53
			c4.05,2.26,8.92,3.31,13.49,2.26c2.2-0.57,4.38-1.54,5.92-3.26c2.25-2.42,3.22-5.65,4.16-8.74c-4.77,1.57-10.16,2.23-14.93,0.28
			c-2.14-0.83-3.87-2.51-4.91-4.54c-1.92-3.6-2.03-7.88-1.35-11.83c0.62-3.58,1.89-7,3.19-10.37
			C95.8,25.63,103.72,18.61,113.13,17.35z M107.78,25.85c-4.06,3.55-6.12,8.71-7.73,13.73c-0.99,3.36-1.99,6.85-1.62,10.39
			c0.25,2,0.96,4.16,2.78,5.27c3.14,1.97,7.19,1.27,10.39-0.19c0.89-3.34,1.92-6.64,2.85-9.97c1.86-7.09,3.93-14.13,6.04-21.15
			C116.35,22.12,111.2,22.87,107.78,25.85z M138.01,20.39c6.48-2.6,13.64-3.93,20.58-2.79c3.06,0.5,6.26,2.08,7.53,5.07
			c1.46,3.27,0.71,6.97-0.29,10.26c-2.57,8.87-5.11,17.76-7.57,26.67c-6.58,2.99-14,3.49-21.12,2.9c-3.31-0.4-6.93-1.35-9.07-4.12
			c-1.69-2.21-1.56-5.18-1.11-7.78c0.84-5.01,4.22-9.33,8.53-11.89c6.31-3.94,13.9-4.55,21.09-5.59c0.59-2.17,1.37-4.57,0.48-6.77
			c-0.78-1.73-2.79-2.14-4.47-2.43c-4.77-0.74-9.5,0.79-13.91,2.46C138.44,24.39,138.2,22.39,138.01,20.39z M144.8,40.15
			c-4.97,1.75-8.54,6.84-8.53,12.11c-0.03,2.28,1.99,4.17,4.15,4.53c3.16,0.51,6.59,0.54,9.49-1c1.84-5.94,3.48-11.94,5.18-17.92
			C151.62,38.43,148.09,38.85,144.8,40.15z M179.77,19.86c6.11-3.45,14.28-3.46,20.04,0.72c-1.41,1.89-2.77,3.82-4.11,5.75
			c-3.5-3.31-9.76-3.17-12.9,0.56c-1.35,1.64-2.2,4.11-1.12,6.11c1.28,2.21,3.76,3.2,5.91,4.36c2.61,1.67,5.1,4.11,5.48,7.33
			c0.45,4.01-1.18,8.03-3.79,11.03c-6.63,7.57-18.93,9.39-27.4,3.91c1.5-2.09,2.89-4.25,4.43-6.3c2.43,1.92,5.64,2.74,8.7,2.4
			c2.89-0.34,5.71-2.05,6.92-4.76c1.01-1.95,1.33-4.64-0.32-6.34c-2.48-2.27-6.12-2.85-8.36-5.43c-1.82-1.85-2.37-4.55-2.27-7.05
			C171.81,26.98,175.19,22.34,179.77,19.86z"/>
	</g>
	<path class="st2" d="M255.5,3.83c8.3-2.63,17.03-4.02,25.75-3.81c5.54,0.08,11.1,0.83,16.32,2.74c5.55,1.91,10.72,5.35,14.01,10.28
		c3.34,4.98,3.89,11.47,2.26,17.16c-3.18,9.92-10.44,18.05-18.78,24.05c-10.54,7.7-22.97,12.56-35.74,15.05
		c8.05-13.23,16.15-26.43,24.15-39.69c-2.35,0.05-4.7-0.05-7.05-0.06c-4.75,8.35-9.9,16.49-13.89,25.24
		c0.1-1.62,0.48-3.22,0.42-4.85c-0.05-6.78,0.37-13.54,0.41-20.32c-2.69,0-5.38-0.23-8.07-0.08c0.56,6.79,0.37,13.62,1.03,20.41
		c0.12,4.05,0.47,8.1,0.29,12.15c-1.17,2.17-2.78,4.06-4.11,6.13c-0.62,0.87-1.26,2.07-2.48,2.07c-7.94,0.6-15.99-0.69-23.42-3.55
		c2.88-10.81,5.43-21.71,8.31-32.52c1.73,0.08,3.46,0.13,5.2,0.14c0.47-1.65,0.91-3.3,1.31-4.96c-1.72-0.03-3.44-0.07-5.16-0.13
		c0.88-2.7,1.22-5.77,3.26-7.92c1.26-1.34,3.25-1.35,4.8-2.1c0.6-1.52,0.89-3.14,1.32-4.72c-4.71-0.33-9.82,1.23-12.87,4.99
		c-2.3,2.68-3.15,6.19-4.06,9.51c-1.16,0.27-2.42,0-3.61,0.2c-0.47,1.6-0.93,3.2-1.4,4.8c1.19,0.04,2.39,0.07,3.58,0.12
		c-2.54,9.48-5.1,18.95-7.67,28.42c-4.5-3.29-7.5-8.52-7.91-14.09c-0.3-4.11,0.57-8.22,1.97-12.07c2.43-5.89,6.41-11.05,11.06-15.36
		C233.53,13.11,244.25,7.46,255.5,3.83z M249.02,14.62c-4.69,15.7-8.9,31.55-13.51,47.27c2.53,0.08,5.05,0.11,7.58,0.06
		c4.48-15.74,8.94-31.48,13.38-47.24C253.98,14.64,251.5,14.67,249.02,14.62z M278.24,48.23c-1.07,1.01-1.08,2.85-0.28,4.03
		c0.78,0.99,2.21,0.76,3.21,0.27c-0.1-0.27-0.18-0.55-0.27-0.83c-0.56,0.08-1.23,0.43-1.7-0.03c-0.66-0.63-0.72-1.87-0.06-2.52
		c0.43-0.46,1.1-0.09,1.63-0.08c0.09-0.37,0.19-0.74,0.29-1.11C280.13,47.79,279.01,47.52,278.24,48.23z M283.07,47.87
		c-2.5,0.77-1.9,5.26,0.84,5.11c2.09,0.01,2.83-2.67,1.83-4.2C285.21,47.88,284.02,47.55,283.07,47.87z M288.14,48.51
		c-0.09-0.66-0.63-0.63-1.15-0.57c0.05,1.63,0.02,3.26,0.02,4.89c0.43,0,0.86,0.01,1.3,0.02c0.01-1.09-0.06-2.18,0.02-3.26
		c0.07-0.61,0.9-0.97,1.35-0.49c0.28,1.23,0.1,2.5,0.08,3.75c0.43,0.01,0.88,0.02,1.32,0.03c0.03-1.16-0.14-2.34,0.09-3.48
		c0.13-0.61,1.19-0.74,1.32-0.07c0.16,1.15,0.05,2.33,0.08,3.49c0.43-0.01,0.86-0.03,1.3-0.04c-0.1-1.45,0.19-2.95-0.23-4.36
		c-0.58-1.04-2.07-0.72-2.72,0.08C290.24,47.41,288.87,47.65,288.14,48.51z M275.58,51.49c-0.58,0.15-0.69,1.03-0.15,1.31
		c0.51,0.53,1.11-0.16,1.44-0.54C276.56,51.88,276.18,51.12,275.58,51.49z M283.27,48.97c1.89-0.75,2.16,3.17,0.29,2.97
		C282.59,51.33,282.56,49.78,283.27,48.97z"/>
</g>
</svg>
