<?xml version="1.0" encoding="utf-8"?>
<!-- Generator: Adobe Illustrator 25.4.1, SVG Export Plug-In . SVG Version: 6.00 Build 0)  -->
<svg version="1.1" id="Layer_1" xmlns="http://www.w3.org/2000/svg" xmlns:xlink="http://www.w3.org/1999/xlink" x="0px" y="0px"
	 viewBox="0 0 80.46 80" style="enable-background:new 0 0 80.46 80;" xml:space="preserve">
<style type="text/css">
	.st0{fill:#332382;}
</style>
<g>
	<path class="st0" d="M32.52,0.7c1.31-0.31,2.64-0.6,3.98-0.7c-2.5,0.6-4.9,1.57-7.16,2.78c-3.22,1.75-6.13,4.14-8.26,7.13
		c-3.22,4.58-4.66,10.36-4.1,15.92c0.18,2.19,0.68,4.34,1.41,6.41c0.39,1.1,0.86,2.19,1.49,3.18c1.59,2.59,3.46,5.05,5.77,7.04
		c2.31,1.92,5.02,3.33,7.84,4.34c1.7,0.62,3.27,1.74,4.19,3.31c1.28,2.18,2.26,4.57,2.55,7.1c0.05,0.48,0.14,0.97,0.16,1.45
		c0.02,0.29-0.22,0.5-0.41,0.68c-0.8,0.7-1.81,1.1-2.83,1.35c-1.53,0.38-3.08,0.72-4.52,1.39c-1.72,0.79-3.34,1.77-5.06,2.57
		c-1.86,0.88-3.83,1.54-5.85,1.93c-1,0.19-2.03,0.19-3.03,0.02c-0.73-0.12-1.39-0.46-2.06-0.75c-2.16-0.97-4.22-2.17-6.04-3.68
		c-1.43-1.15-2.6-2.57-3.74-4c-2.22-2.9-4.03-6.14-5.14-9.63c-1.17-3.65-1.45-7.59-0.74-11.36c0.1-0.51,0.21-1.03,0.39-1.52
		c0.66,3.75,1.95,7.38,3.73,10.74c1.52,2.86,3.44,5.51,5.74,7.79c1.51,1.48,3.22,2.73,4.98,3.88c0.75,0.49,1.78,0.65,2.58,0.21
		c-0.02-0.46-0.48-0.66-0.82-0.86c-1.56-0.84-2.99-1.9-4.32-3.06c-2.7-2.38-5.02-5.18-6.86-8.27c-1.59-2.7-2.89-5.6-3.64-8.66
		c-0.32-1.63-0.35-3.29-0.34-4.95c0-2.22,0.34-4.45,1.06-6.56c1.7-4.61,4.34-8.94,8.01-12.24c-1.6,2.81-2.6,5.94-3.18,9.11
		c-0.66,3.68-0.6,7.5,0.25,11.14c0.98,4.24,3.01,8.22,5.78,11.57c3.16,3.82,7.22,6.88,11.72,8.94c0.74,0.31,1.53,0.81,2.36,0.5
		c0.53-0.13,0.72-0.85,0.33-1.22c-0.41-0.38-0.99-0.47-1.48-0.73c-4.12-1.93-7.94-4.57-11.02-7.93c-3.11-3.37-5.11-7.66-6.07-12.12
		c-0.29-1.53-0.58-3.08-0.53-4.64c-0.08-2.99,0.41-5.98,1.39-8.81c1.35-3.95,3.71-7.51,6.65-10.45C21.8,4.98,26.96,2.08,32.52,0.7
		L32.52,0.7z"/>
	<path class="st0" d="M44.49,0.01c0.63-0.01,1.25,0.11,1.86,0.23c4.84,0.85,9.48,2.83,13.44,5.75c3.63,2.72,6.76,6.17,8.81,10.24
		c2.21,4.33,3.16,9.3,2.67,14.14c-0.53,4.3-2,8.51-4.45,12.1c-2.38,3.41-5.6,6.16-9.11,8.36c-1.61,1-3.28,1.9-5.04,2.59
		c-0.51,0.17-0.83,0.88-0.4,1.3c0.54,0.42,1.31,0.34,1.89,0.06c5.33-2.27,10.08-5.92,13.54-10.58c2.72-3.7,4.58-8.06,5.22-12.62
		c0.85-6.04-0.4-12.3-3.19-17.7c0.83,0.6,1.48,1.4,2.16,2.15c1.66,1.94,3.06,4.1,4.19,6.39c0.91,1.87,1.74,3.8,2.14,5.85
		c0.52,2.63,0.53,5.35,0.26,8.01c-0.12,1.28-0.53,2.52-0.95,3.73c-2.02,5.61-5.5,10.69-10.02,14.58c-3.4,2.85-7.48,4.8-11.68,6.16
		c-1.33,0.43-2.69,0.79-4.06,1.08c-0.54,0.11-1.1,0.34-1.44,0.79c-0.27,0.34-0.23,0.93,0.19,1.13c0.62,0.3,1.36,0.25,2.01,0.09
		c3.7-1.17,7.29-2.68,10.69-4.57c1.8-1.02,3.55-2.14,5.16-3.45c3.56-2.88,6.29-6.68,8.28-10.78c1.4-2.98,2.51-6.14,3.02-9.4
		c0.06,0.12,0.12,0.23,0.15,0.36c1.18,4.72,0.7,9.79-1.11,14.3c-0.98,2.48-2.31,4.81-3.85,6.98c-0.78,1.05-1.57,2.11-2.51,3.02
		c-2.96,2.62-6.22,4.91-9.71,6.78c-3.72,1.98-7.75,3.32-11.84,4.29c-0.83,0.21-1.77,0.28-2.43,0.88c-0.38,0.31-0.44,0.98-0.01,1.27
		c0.52,0.34,1.19,0.28,1.78,0.2c4.02-0.69,8.02-1.73,11.71-3.5c4.35-2.19,8.27-5.15,11.83-8.45c-0.25,0.82-0.7,1.56-1.12,2.31
		c-2.27,3.8-5.56,6.93-9.25,9.34c-4,2.6-8.49,4.37-13.11,5.49c-5.46,1.41-11.22,1.42-16.74,0.32c-2.88-0.55-5.69-1.39-8.43-2.43
		c-1.73-0.68-3.45-1.41-5.08-2.31c-1.04-0.65-2.13-1.26-3.32-1.6c-1.1-0.33-2.25-0.44-3.37-0.69c-2.57-0.56-5.13-1.29-7.5-2.46
		C3.62,68.65,1.9,66.97,0,65.56c2.03-0.53,3.96-1.41,6.04-1.78c1.95-0.43,4.1-0.05,5.69,1.19c0.78,0.65,1.69,1.12,2.59,1.57
		c2.04,0.98,4.27,1.7,6.56,1.55c2.29-0.13,4.55-0.75,6.63-1.7c3.37-1.71,6.89-3.16,10.57-4.06c1.14-0.33,2.48-0.4,3.33-1.34
		c0.77-0.97,0.62-2.29,0.56-3.44c0.02-2.37,0.53-4.75,1.54-6.89c0.86-1.88,2.53-3.34,4.46-4.03c2.14-0.8,4.19-1.85,6.07-3.15
		c2.89-2.02,5.1-4.85,6.96-7.81c1.46-2.29,2.25-4.93,2.76-7.58c0.94-4.87,0.34-10.03-1.72-14.55c-1.59-3.6-4.24-6.68-7.43-8.95
		C51.58,2.45,48.13,0.84,44.49,0.01L44.49,0.01z"/>
</g>
</svg>
