<?xml version="1.0" encoding="utf-8"?>
<!-- Generator: Adobe Illustrator 25.4.1, SVG Export Plug-In . SVG Version: 6.00 Build 0)  -->
<svg version="1.1" id="Layer_1" xmlns="http://www.w3.org/2000/svg" xmlns:xlink="http://www.w3.org/1999/xlink" x="0px" y="0px"
	 viewBox="0 0 477.25 80" style="enable-background:new 0 0 477.25 80;" xml:space="preserve">
<style type="text/css">
	.st0{fill:#332382;}
	.st1{fill:#00A0E3;}
</style>
<g>
	<path class="st0" d="M416.73,0.52c0.99-0.23,1.99-0.45,3-0.52c-1.88,0.45-3.69,1.18-5.4,2.09c-2.43,1.32-4.62,3.12-6.23,5.38
		c-2.43,3.45-3.51,7.81-3.09,12c0.14,1.65,0.51,3.27,1.06,4.83c0.29,0.83,0.65,1.65,1.13,2.4c1.2,1.95,2.61,3.8,4.35,5.3
		c1.74,1.45,3.78,2.51,5.91,3.27c1.28,0.46,2.46,1.31,3.16,2.5c0.97,1.64,1.7,3.45,1.92,5.35c0.04,0.37,0.1,0.73,0.12,1.1
		c0.02,0.22-0.17,0.37-0.31,0.51c-0.6,0.52-1.36,0.83-2.13,1.02c-1.15,0.29-2.32,0.55-3.41,1.04c-1.3,0.6-2.52,1.34-3.81,1.94
		c-1.4,0.67-2.88,1.16-4.41,1.46c-0.75,0.14-1.53,0.15-2.29,0.01c-0.55-0.09-1.05-0.35-1.55-0.56c-1.63-0.73-3.18-1.64-4.55-2.78
		c-1.08-0.87-1.96-1.94-2.82-3.02c-1.67-2.19-3.03-4.63-3.87-7.26c-0.88-2.75-1.09-5.72-0.56-8.57c0.07-0.39,0.16-0.77,0.29-1.14
		c0.5,2.82,1.47,5.56,2.81,8.09c1.15,2.15,2.59,4.15,4.33,5.87c1.14,1.11,2.43,2.06,3.75,2.93c0.56,0.37,1.34,0.49,1.95,0.15
		c-0.01-0.35-0.36-0.5-0.62-0.65c-1.18-0.63-2.25-1.43-3.26-2.31c-2.03-1.8-3.78-3.91-5.17-6.24c-1.2-2.04-2.18-4.22-2.74-6.52
		c-0.24-1.23-0.26-2.48-0.25-3.73c0-1.68,0.26-3.36,0.8-4.95c1.28-3.48,3.27-6.74,6.04-9.23c-1.2,2.12-1.96,4.48-2.39,6.87
		c-0.5,2.77-0.45,5.65,0.19,8.4c0.74,3.2,2.27,6.19,4.36,8.72c2.38,2.88,5.44,5.19,8.84,6.74c0.56,0.23,1.16,0.61,1.78,0.37
		c0.4-0.09,0.54-0.64,0.25-0.92c-0.31-0.29-0.75-0.36-1.12-0.55c-3.1-1.45-5.98-3.45-8.3-5.98c-2.35-2.54-3.85-5.77-4.57-9.13
		c-0.22-1.16-0.43-2.32-0.4-3.5c-0.06-2.25,0.31-4.51,1.05-6.64c1.01-2.98,2.79-5.66,5.01-7.88C408.65,3.75,412.55,1.57,416.73,0.52
		L416.73,0.52z"/>
	<path class="st0" d="M425.75,0.01c0.47,0,0.94,0.08,1.4,0.17c3.65,0.64,7.15,2.14,10.13,4.33c2.74,2.05,5.1,4.65,6.64,7.72
		c1.67,3.26,2.38,7.01,2.01,10.66c-0.4,3.24-1.51,6.42-3.35,9.12c-1.79,2.57-4.22,4.65-6.87,6.3c-1.21,0.75-2.47,1.43-3.8,1.95
		c-0.39,0.13-0.62,0.66-0.3,0.98c0.4,0.32,0.98,0.26,1.42,0.04c4.02-1.71,7.6-4.46,10.2-7.97c2.05-2.79,3.45-6.08,3.93-9.51
		c0.64-4.56-0.3-9.27-2.41-13.34c0.63,0.45,1.12,1.05,1.63,1.62c1.25,1.46,2.31,3.09,3.16,4.81c0.68,1.41,1.31,2.86,1.61,4.41
		c0.39,1.98,0.4,4.03,0.19,6.04c-0.09,0.97-0.4,1.9-0.71,2.81c-1.52,4.23-4.14,8.06-7.55,10.99c-2.56,2.15-5.64,3.62-8.81,4.64
		c-1.01,0.32-2.03,0.59-3.06,0.81c-0.41,0.08-0.83,0.26-1.09,0.6c-0.2,0.26-0.18,0.7,0.15,0.85c0.47,0.22,1.02,0.19,1.52,0.07
		c2.79-0.88,5.5-2.02,8.05-3.44c1.36-0.77,2.68-1.61,3.89-2.6c2.68-2.17,4.74-5.03,6.24-8.12c1.06-2.25,1.89-4.63,2.28-7.09
		c0.04,0.09,0.09,0.18,0.12,0.27c0.89,3.56,0.53,7.38-0.84,10.78c-0.74,1.87-1.74,3.63-2.9,5.26c-0.59,0.79-1.18,1.59-1.9,2.28
		c-2.23,1.98-4.69,3.7-7.32,5.11c-2.8,1.49-5.84,2.5-8.93,3.23c-0.63,0.16-1.33,0.21-1.83,0.66c-0.28,0.23-0.33,0.74-0.01,0.96
		c0.39,0.26,0.9,0.21,1.34,0.15c3.03-0.52,6.04-1.3,8.83-2.64c3.28-1.65,6.24-3.88,8.92-6.37c-0.19,0.62-0.53,1.18-0.85,1.74
		c-1.71,2.87-4.19,5.22-6.97,7.04c-3.01,1.96-6.4,3.29-9.88,4.14c-4.11,1.07-8.46,1.07-12.62,0.24c-2.17-0.41-4.29-1.05-6.36-1.83
		c-1.3-0.51-2.6-1.06-3.83-1.74c-0.79-0.49-1.61-0.95-2.5-1.2c-0.83-0.25-1.7-0.33-2.54-0.52c-1.94-0.42-3.87-0.97-5.65-1.85
		c-1.6-0.82-2.9-2.08-4.33-3.14c1.53-0.4,2.99-1.06,4.55-1.34c1.47-0.32,3.09-0.04,4.29,0.9c0.59,0.49,1.27,0.84,1.95,1.19
		c1.54,0.74,3.22,1.28,4.94,1.17c1.73-0.1,3.43-0.57,5-1.28c2.54-1.29,5.2-2.38,7.97-3.06c0.86-0.25,1.87-0.3,2.51-1.01
		c0.58-0.73,0.46-1.73,0.42-2.6c0.01-1.79,0.4-3.58,1.16-5.19c0.64-1.42,1.91-2.51,3.36-3.04c1.61-0.6,3.16-1.39,4.58-2.37
		c2.18-1.52,3.84-3.65,5.25-5.88c1.1-1.72,1.69-3.72,2.08-5.71c0.71-3.67,0.25-7.56-1.29-10.97c-1.2-2.71-3.19-5.03-5.6-6.75
		C431.1,1.84,428.5,0.63,425.75,0.01L425.75,0.01z"/>
	<path class="st0" d="M297.78,58.68c0,0,50.51,11.97,96.56,10.14c46.05-1.83,82.97-11.56,82.97-11.56s-31.64,16.84-87.63,16.63
		S297.78,58.68,297.78,58.68z"/>
	<path class="st1" d="M135.23,36.39c0,0,66.57-3.21,116.44,9.94s132.66,26.98,168.57,17.65c0,0-47.47,4.26-104.87-8.93
		s-80.55-21.5-118.47-21.5S135.23,36.39,135.23,36.39z"/>
	<path class="st0" d="M0,60.5c0.61-0.2,34.89-11.24,93.51-17.85s80.94-1.62,80.94-1.62s-40.37,1.83-79.52,5.88S0,60.5,0,60.5z"/>
	<g>
		<path class="st1" d="M51.48,79.6V69.42h2.05V79.6H51.48z"/>
		<path class="st1" d="M57.35,79.6H55.4v-7.37h1.81v1.05c0.31-0.49,0.59-0.82,0.84-0.98c0.25-0.16,0.53-0.24,0.84-0.24
			c0.44,0,0.87,0.12,1.28,0.37l-0.6,1.7c-0.33-0.21-0.63-0.32-0.92-0.32c-0.27,0-0.5,0.08-0.69,0.23c-0.19,0.15-0.34,0.42-0.45,0.82
			c-0.11,0.39-0.16,1.22-0.16,2.47V79.6z"/>
		<path class="st1" d="M62.47,74.47l-1.77-0.32c0.2-0.71,0.54-1.24,1.03-1.58c0.49-0.34,1.21-0.51,2.17-0.51
			c0.87,0,1.52,0.1,1.94,0.31c0.43,0.21,0.73,0.47,0.9,0.78c0.17,0.32,0.26,0.9,0.26,1.75l-0.02,2.28c0,0.65,0.03,1.13,0.09,1.43
			c0.06,0.31,0.18,0.64,0.35,0.99h-1.93c-0.05-0.13-0.11-0.32-0.19-0.58c-0.03-0.12-0.06-0.19-0.07-0.23
			c-0.33,0.32-0.69,0.57-1.07,0.73c-0.38,0.16-0.78,0.24-1.21,0.24c-0.76,0-1.36-0.21-1.79-0.62c-0.44-0.41-0.66-0.93-0.66-1.56
			c0-0.42,0.1-0.79,0.3-1.11c0.2-0.33,0.48-0.58,0.84-0.75c0.36-0.17,0.88-0.33,1.55-0.46c0.91-0.17,1.54-0.33,1.9-0.48v-0.19
			c0-0.37-0.09-0.64-0.28-0.8s-0.53-0.24-1.05-0.24c-0.35,0-0.62,0.07-0.81,0.2C62.75,73.89,62.59,74.13,62.47,74.47z M65.08,76.06
			c-0.25,0.08-0.65,0.18-1.19,0.3c-0.54,0.12-0.9,0.23-1.06,0.34c-0.25,0.18-0.38,0.41-0.38,0.69c0,0.27,0.1,0.51,0.31,0.71
			c0.2,0.2,0.46,0.3,0.78,0.3c0.35,0,0.69-0.12,1.01-0.35c0.24-0.18,0.39-0.39,0.46-0.64c0.05-0.17,0.08-0.48,0.08-0.95V76.06z"/>
		<path class="st1" d="M75.62,79.6h-1.95v-3.76c0-0.8-0.04-1.31-0.13-1.54c-0.08-0.23-0.22-0.42-0.41-0.55s-0.41-0.19-0.68-0.19
			c-0.34,0-0.64,0.09-0.91,0.28c-0.27,0.19-0.45,0.43-0.55,0.74c-0.1,0.31-0.15,0.87-0.15,1.69v3.34H68.9v-7.37h1.81v1.08
			c0.64-0.83,1.45-1.25,2.43-1.25c0.43,0,0.82,0.08,1.18,0.23c0.36,0.15,0.63,0.35,0.81,0.59s0.31,0.51,0.38,0.82
			c0.07,0.31,0.11,0.74,0.11,1.31V79.6z"/>
	</g>
	<g>
		<g>
			<path class="st1" d="M224.01,79.6h-2.24l-0.89-2.31h-4.07l-0.84,2.31h-2.18l3.96-10.18h2.17L224.01,79.6z M220.23,75.57
				l-1.4-3.78l-1.37,3.78H220.23z"/>
			<path class="st1" d="M225.09,71.23v-1.8h1.95v1.8H225.09z M225.09,79.6v-7.37h1.95v7.37H225.09z"/>
			<path class="st1" d="M230.91,79.6h-1.95v-7.37h1.81v1.05c0.31-0.49,0.59-0.82,0.84-0.98c0.25-0.16,0.53-0.24,0.84-0.24
				c0.44,0,0.87,0.12,1.28,0.37l-0.6,1.7c-0.33-0.21-0.63-0.32-0.92-0.32c-0.27,0-0.5,0.08-0.69,0.23
				c-0.19,0.15-0.34,0.42-0.45,0.82c-0.11,0.39-0.16,1.22-0.16,2.47V79.6z"/>
			<path class="st1" d="M234.57,79.6V69.42h1.95V79.6H234.57z"/>
			<path class="st1" d="M238.52,71.23v-1.8h1.95v1.8H238.52z M238.52,79.6v-7.37h1.95v7.37H238.52z"/>
			<path class="st1" d="M249.18,79.6h-1.95v-3.76c0-0.8-0.04-1.31-0.12-1.54c-0.08-0.23-0.22-0.42-0.41-0.55
				c-0.19-0.13-0.41-0.19-0.68-0.19c-0.34,0-0.64,0.09-0.91,0.28c-0.27,0.19-0.45,0.43-0.55,0.74c-0.1,0.31-0.15,0.87-0.15,1.69
				v3.34h-1.95v-7.37h1.81v1.08c0.64-0.83,1.45-1.25,2.43-1.25c0.43,0,0.82,0.08,1.18,0.23c0.36,0.15,0.63,0.35,0.81,0.59
				c0.18,0.24,0.31,0.51,0.38,0.82c0.07,0.31,0.11,0.74,0.11,1.31V79.6z"/>
			<path class="st1" d="M255.42,77.25l1.94,0.33c-0.25,0.71-0.64,1.25-1.18,1.63c-0.54,0.37-1.21,0.56-2.02,0.56
				c-1.28,0-2.23-0.42-2.85-1.26c-0.49-0.67-0.73-1.52-0.73-2.54c0-1.22,0.32-2.18,0.96-2.87c0.64-0.69,1.45-1.04,2.42-1.04
				c1.1,0,1.96,0.36,2.6,1.09c0.63,0.72,0.94,1.83,0.91,3.33h-4.89c0.01,0.58,0.17,1.03,0.47,1.35c0.3,0.32,0.68,0.48,1.12,0.48
				c0.3,0,0.56-0.08,0.77-0.25C255.16,77.89,255.32,77.62,255.42,77.25z M255.54,75.28c-0.01-0.56-0.16-0.99-0.44-1.29
				c-0.28-0.29-0.62-0.44-1.01-0.44c-0.43,0-0.78,0.15-1.05,0.47c-0.28,0.31-0.41,0.73-0.41,1.26H255.54z"/>
			<path class="st1" d="M258.38,77.49l1.96-0.3c0.08,0.38,0.25,0.67,0.51,0.86c0.25,0.2,0.61,0.29,1.07,0.29
				c0.5,0,0.88-0.09,1.14-0.28c0.17-0.13,0.26-0.3,0.26-0.52c0-0.15-0.05-0.27-0.14-0.37c-0.1-0.09-0.32-0.18-0.65-0.26
				c-1.57-0.35-2.57-0.66-2.99-0.95c-0.58-0.4-0.87-0.95-0.87-1.66c0-0.64,0.25-1.17,0.76-1.61c0.5-0.43,1.29-0.65,2.35-0.65
				c1.01,0,1.76,0.16,2.25,0.49c0.49,0.33,0.83,0.81,1.01,1.46l-1.84,0.34c-0.08-0.29-0.23-0.51-0.45-0.66
				c-0.22-0.15-0.53-0.23-0.94-0.23c-0.51,0-0.88,0.07-1.1,0.22c-0.15,0.1-0.22,0.23-0.22,0.4c0,0.14,0.06,0.26,0.19,0.35
				c0.18,0.13,0.78,0.31,1.82,0.55c1.04,0.24,1.76,0.53,2.18,0.87c0.41,0.35,0.61,0.83,0.61,1.45c0,0.68-0.28,1.26-0.85,1.74
				s-1.4,0.73-2.51,0.73c-1,0-1.8-0.2-2.38-0.61C258.94,78.75,258.56,78.19,258.38,77.49z"/>
		</g>
	</g>
	<g>
		<path class="st0" d="M103.17,79.6h-5.4l-2.15-5.58H85.8l-2.03,5.58H78.5l9.58-24.58h5.25L103.17,79.6z M94.03,69.87l-3.39-9.12
			l-3.32,9.12H94.03z"/>
		<path class="st0" d="M104.11,74.52l4.73-0.72c0.2,0.92,0.61,1.61,1.22,2.09c0.61,0.48,1.48,0.71,2.58,0.71
			c1.22,0,2.13-0.22,2.75-0.67c0.41-0.31,0.62-0.73,0.62-1.26c0-0.36-0.11-0.65-0.34-0.89c-0.23-0.22-0.76-0.43-1.58-0.62
			c-3.8-0.84-6.21-1.6-7.23-2.3c-1.41-0.96-2.11-2.3-2.11-4.01c0-1.54,0.61-2.84,1.83-3.89c1.22-1.05,3.11-1.58,5.67-1.58
			c2.44,0,4.25,0.4,5.43,1.19c1.18,0.79,2,1.97,2.45,3.52l-4.44,0.82c-0.19-0.69-0.55-1.22-1.08-1.59
			c-0.53-0.37-1.29-0.55-2.27-0.55c-1.24,0-2.13,0.17-2.67,0.52c-0.36,0.25-0.54,0.56-0.54,0.96c0,0.34,0.16,0.62,0.47,0.86
			c0.42,0.31,1.89,0.75,4.4,1.32c2.51,0.57,4.26,1.27,5.26,2.1c0.98,0.84,1.48,2.01,1.48,3.5c0,1.63-0.68,3.03-2.05,4.21
			c-1.36,1.17-3.38,1.76-6.05,1.76c-2.43,0-4.35-0.49-5.76-1.48C105.47,77.54,104.55,76.2,104.11,74.52z"/>
		<path class="st0" d="M135.18,73.93l4.7,0.79c-0.6,1.72-1.56,3.03-2.86,3.93c-1.3,0.9-2.93,1.35-4.89,1.35
			c-3.1,0-5.39-1.01-6.88-3.03c-1.17-1.62-1.76-3.67-1.76-6.14c0-2.95,0.77-5.26,2.31-6.93c1.54-1.67,3.49-2.51,5.85-2.51
			c2.65,0,4.74,0.88,6.27,2.62c1.53,1.75,2.26,4.43,2.2,8.04h-11.81c0.03,1.4,0.41,2.48,1.14,3.26c0.73,0.78,1.63,1.16,2.72,1.16
			c0.74,0,1.36-0.2,1.86-0.6C134.55,75.47,134.93,74.82,135.18,73.93z M135.45,69.17c-0.03-1.36-0.39-2.4-1.06-3.11
			c-0.67-0.71-1.49-1.07-2.45-1.07c-1.03,0-1.88,0.37-2.55,1.12c-0.67,0.75-1,1.77-0.99,3.05H135.45z"/>
		<path class="st0" d="M143.62,61.79h4.34v2.43c1.55-1.89,3.4-2.83,5.55-2.83c1.14,0,2.13,0.23,2.97,0.7
			c0.84,0.47,1.53,1.18,2.06,2.13c0.78-0.95,1.63-1.66,2.53-2.13c0.91-0.47,1.87-0.7,2.9-0.7c1.31,0,2.41,0.27,3.32,0.8
			c0.91,0.53,1.58,1.31,2.03,2.34c0.32,0.76,0.49,1.99,0.49,3.69V79.6h-4.71V69.42c0-1.77-0.16-2.91-0.49-3.42
			c-0.44-0.67-1.11-1.01-2.01-1.01c-0.66,0-1.28,0.2-1.86,0.6c-0.58,0.4-1,0.99-1.26,1.77c-0.26,0.78-0.39,2-0.39,3.68v8.55h-4.71
			v-9.76c0-1.73-0.08-2.85-0.25-3.35c-0.17-0.5-0.43-0.88-0.78-1.12c-0.35-0.25-0.83-0.37-1.43-0.37c-0.73,0-1.38,0.2-1.96,0.59
			c-0.58,0.39-1,0.96-1.25,1.69c-0.25,0.74-0.38,1.96-0.38,3.67v8.65h-4.71V61.79z"/>
		<path class="st0" d="M178.03,67.22l-4.28-0.77c0.48-1.72,1.31-3,2.48-3.82c1.17-0.83,2.92-1.24,5.23-1.24
			c2.1,0,3.67,0.25,4.7,0.75c1.03,0.5,1.75,1.13,2.17,1.9c0.42,0.77,0.63,2.17,0.63,4.22l-0.05,5.5c0,1.57,0.08,2.72,0.23,3.46
			c0.15,0.74,0.43,1.54,0.85,2.39h-4.66c-0.12-0.31-0.27-0.78-0.45-1.39c-0.08-0.28-0.13-0.46-0.17-0.55
			c-0.8,0.78-1.67,1.37-2.58,1.76c-0.92,0.39-1.89,0.59-2.93,0.59c-1.83,0-3.28-0.5-4.33-1.49c-1.06-1-1.58-2.25-1.58-3.77
			c0-1.01,0.24-1.9,0.72-2.69c0.48-0.79,1.15-1.39,2.02-1.81c0.87-0.42,2.12-0.78,3.75-1.1c2.2-0.41,3.73-0.8,4.58-1.16v-0.47
			c0-0.9-0.22-1.55-0.67-1.94c-0.45-0.39-1.29-0.58-2.53-0.58c-0.84,0-1.49,0.16-1.96,0.49C178.7,65.82,178.32,66.4,178.03,67.22z
			 M184.33,71.05c-0.6,0.2-1.56,0.44-2.87,0.72c-1.31,0.28-2.16,0.55-2.57,0.82c-0.61,0.44-0.92,0.99-0.92,1.66
			c0,0.66,0.25,1.23,0.74,1.71c0.49,0.48,1.12,0.72,1.88,0.72c0.85,0,1.66-0.28,2.43-0.84c0.57-0.42,0.94-0.94,1.12-1.56
			c0.12-0.4,0.18-1.17,0.18-2.3V71.05z"/>
		<path class="st0" d="M209.81,79.6h-4.71v-9.09c0-1.92-0.1-3.17-0.3-3.73c-0.2-0.56-0.53-1-0.98-1.32c-0.45-0.31-1-0.47-1.63-0.47
			c-0.82,0-1.55,0.22-2.2,0.67c-0.65,0.45-1.09,1.04-1.33,1.78c-0.24,0.74-0.36,2.1-0.36,4.09v8.07h-4.71V61.79h4.38v2.62
			c1.55-2.01,3.51-3.02,5.87-3.02c1.04,0,1.99,0.19,2.85,0.56c0.86,0.37,1.51,0.85,1.95,1.43c0.44,0.58,0.75,1.24,0.92,1.98
			c0.17,0.74,0.26,1.79,0.26,3.17V79.6z"/>
	</g>
</g>
</svg>
