<?xml version="1.0" encoding="utf-8"?>
<!-- Generator: Adobe Illustrator 25.4.1, SVG Export Plug-In . SVG Version: 6.00 Build 0)  -->
<svg version="1.1" id="Layer_4" xmlns="http://www.w3.org/2000/svg" xmlns:xlink="http://www.w3.org/1999/xlink" x="0px" y="0px"
	 viewBox="0 0 87.18 80.27" style="enable-background:new 0 0 87.18 80.27;" xml:space="preserve">
<style type="text/css">
	.st0{fill:#D7EFEE;}
	.st1{fill:#36B4AE;}
</style>
<path class="st0" d="M40.48,59.63c11.91,0,19.26-5.86,25.07-5.86c3.12,0,5.77,2.62,5.77,2.62s-0.77-5.45-4.65-6.64
	c-3.87-1.19-10.63-1.75-14.38-1.75c-7.44,0-9.32,4.69-18.51,4.69s-12.82-0.56-12.82-0.56S26.36,59.63,40.48,59.63z"/>
<path class="st1" d="M0,7.13c0,0,8.75-0.53,15.05,5.77c11.8,11.8,7.65,19.67,19.98,32c10.03,10.03,28.56,2.06,34.4,7.89
	c1.65,1.65,1.89,3.6,1.89,3.6s0.23-0.61,0.16-1.61c-0.12-1.65-1.89-6.08-6.7-6.97C41.35,43.5,48.21,5.15,11.22,4.23
	C6.01,4.09,1.86,5.27,0,7.13z"/>
<path class="st1" d="M60.52,43.5c0,0-8.28-8.69-8.28-17.56c0-15.88,16.56-21.72,16.56-21.72s-4.84,3.87-4.84,6.15
	c0,0,8.35-6.62,17.35-6.62c4.12,0,5.87,1.94,5.87,1.94S60.52,4.47,60.52,43.5z"/>
<path class="st1" d="M24.86,6.8c-3.15,2.12-5.98,4.67-8.4,7.58c0.92,1,1.73,1.97,2.44,2.93c2.75-3.42,6.11-6.33,9.92-8.57
	C27.6,8.02,26.28,7.37,24.86,6.8z M66.75,5.11c-1.04,0.5-2.39,1.23-3.84,2.22c0.64,0.3,1.27,0.63,1.89,0.98
	c0.71-1.02,1.74-2.08,2.58-2.85C67.17,5.34,66.96,5.23,66.75,5.11z M74.72,11c-0.99,0.67-1.98,1.45-2.94,2.37
	c7.16,6.62,11.65,16.1,11.65,26.64c0,20.02-16.24,36.25-36.25,36.25c-20.02,0-36.26-16.24-36.26-36.25c0-8.1,2.66-15.58,7.15-21.62
	c-0.71-0.97-1.52-1.95-2.44-2.97C10.33,22.19,7.17,30.74,7.17,40c0,22.09,17.91,40,40.01,40c22.09,0,40.01-17.91,40.01-40
	C87.18,28.58,82.39,18.28,74.72,11z M73.7,10.06c-1.29-1.15-2.66-2.21-4.09-3.18c-1.47,0.73-2.72,1.48-3.66,2.1
	c1.7,1.03,3.31,2.2,4.82,3.49C71.72,11.54,72.71,10.74,73.7,10.06z M47.18,0c-7.69,0-14.87,2.17-20.97,5.93
	c1.41,0.62,2.71,1.3,3.94,2.06c5.08-2.71,10.88-4.25,17.03-4.25c5.09,0,9.94,1.05,14.34,2.95c1.38-0.99,2.7-1.77,3.81-2.35
	C59.88,1.57,53.71,0,47.18,0z"/>
</svg>
