<?xml version="1.0" encoding="utf-8"?>
<!-- Generator: Adobe Illustrator 25.4.1, SVG Export Plug-In . SVG Version: 6.00 Build 0)  -->
<svg version="1.1" id="Layer_4" xmlns="http://www.w3.org/2000/svg" xmlns:xlink="http://www.w3.org/1999/xlink" x="0px" y="0px"
	 viewBox="0 0 345.73 80.27" style="enable-background:new 0 0 345.73 80.27;" xml:space="preserve">
<style type="text/css">
	.st0{fill:#D7EFEE;}
	.st1{fill:#36B4AE;}
</style>
<g>
	<path class="st0" d="M40.48,59.63c11.91,0,19.26-5.86,25.07-5.86c3.12,0,5.77,2.62,5.77,2.62s-0.77-5.45-4.65-6.64
		c-3.87-1.19-10.63-1.75-14.38-1.75c-7.44,0-9.32,4.69-18.51,4.69s-12.82-0.56-12.82-0.56S26.36,59.63,40.48,59.63z"/>
	<path class="st1" d="M0,7.13c0,0,8.75-0.53,15.05,5.77c11.8,11.8,7.65,19.67,19.98,32c10.03,10.03,28.56,2.06,34.4,7.89
		c1.65,1.65,1.89,3.6,1.89,3.6s0.23-0.61,0.16-1.61c-0.12-1.65-1.89-6.08-6.7-6.97C41.35,43.5,48.21,5.15,11.22,4.23
		C6.01,4.09,1.86,5.27,0,7.13z"/>
	<path class="st1" d="M60.52,43.5c0,0-8.28-8.69-8.28-17.56c0-15.88,16.56-21.72,16.56-21.72s-4.84,3.87-4.84,6.15
		c0,0,8.35-6.62,17.35-6.62c4.12,0,5.87,1.94,5.87,1.94S60.52,4.47,60.52,43.5z"/>
	<path class="st1" d="M24.86,6.8c-3.15,2.12-5.98,4.67-8.4,7.58c0.92,1,1.73,1.97,2.44,2.93c2.75-3.42,6.11-6.33,9.92-8.57
		C27.6,8.02,26.28,7.37,24.86,6.8z M66.75,5.11c-1.04,0.5-2.39,1.23-3.84,2.22c0.64,0.3,1.27,0.63,1.89,0.98
		c0.71-1.02,1.74-2.08,2.58-2.85C67.17,5.34,66.96,5.23,66.75,5.11z M74.72,11c-0.99,0.67-1.98,1.45-2.94,2.37
		c7.16,6.62,11.65,16.1,11.65,26.64c0,20.02-16.24,36.25-36.25,36.25c-20.02,0-36.26-16.24-36.26-36.25c0-8.1,2.66-15.58,7.15-21.62
		c-0.71-0.97-1.52-1.95-2.44-2.97C10.33,22.19,7.17,30.74,7.17,40c0,22.09,17.91,40,40.01,40c22.09,0,40.01-17.91,40.01-40
		C87.18,28.58,82.39,18.28,74.72,11z M73.7,10.06c-1.29-1.15-2.66-2.21-4.09-3.18c-1.47,0.73-2.72,1.48-3.66,2.1
		c1.7,1.03,3.31,2.2,4.82,3.49C71.72,11.54,72.71,10.74,73.7,10.06z M47.18,0c-7.69,0-14.87,2.17-20.97,5.93
		c1.41,0.62,2.71,1.3,3.94,2.06c5.08-2.71,10.88-4.25,17.03-4.25c5.09,0,9.94,1.05,14.34,2.95c1.38-0.99,2.7-1.77,3.81-2.35
		C59.88,1.57,53.71,0,47.18,0z"/>
	<path class="st1" d="M111.11,25.2c-4.77,0-7.88,1.6-7.88,4.81c0,8.31,22.77,2.08,22.77,17.81c0,8.01-5.22,12.76-16.6,12.76
		c-6.32,0-13.54-3.09-16.06-9.43l6.23-3.14c2.66,4.04,4.86,5.56,10.03,5.56c5.27,0,8.48-1.6,8.48-5.16
		c0-8.55-22.77-1.48-22.77-17.99c0-6.71,4.92-12.29,15.85-12.29c6.82,0,13.01,3.62,15.74,8.31l-6.45,3.28
		C118.46,27.36,116.48,25.2,111.11,25.2z"/>
	<path class="st1" d="M144.52,54.94c4.06,0,6.67-1.42,8.38-4.51l4.72,3.8c-3.26,5.1-8.33,6.35-14.15,6.35c-9.63,0-14-5.7-14-14.36
		c0-8.73,4.51-14.42,14.65-14.42c9.33,0,13.69,4.63,13.69,16.32h-20.92C137.44,52.98,140.15,54.94,144.52,54.94z M136.99,43.42
		h13.79c-0.3-4.57-2.76-6.23-6.32-6.23C140.45,37.19,137.74,39.03,136.99,43.42z"/>
	<path class="st1" d="M168.89,36.77c-0.06-1.61,2.65-4.1,3.91-4.79c3.39-1.85,7.98-1.11,11.29,0.58c2.01,1.02,0.36,2.67-0.42,4.07
		c-0.69,1.22-1.37,2.45-2.06,3.67c0.46-0.82-2.24-2.23-2.72-2.38c-6.55-2.07-9.8,5.54-9.8,10.6c0,0,0,10.98,0,10.98h-7.17V41.28
		c0-2.49-0.1-6.11-0.25-8.43h6.97C168.74,34.04,168.84,35.41,168.89,36.77z"/>
	<path class="st1" d="M201.15,54.94c4.06,0,6.67-1.42,8.38-4.51l4.72,3.8c-3.26,5.1-8.33,6.35-14.15,6.35c-9.63,0-14-5.7-14-14.36
		c0-8.73,4.51-14.42,14.65-14.42c9.33,0,13.69,4.63,13.69,16.32h-20.92C194.08,52.98,196.78,54.94,201.15,54.94z M193.62,43.42
		h13.79c-0.3-4.57-2.76-6.23-6.32-6.23C197.09,37.19,194.38,39.03,193.62,43.42z"/>
	<path class="st1" d="M225.53,36.71c1.61-3.15,4.51-4.93,9.63-4.93c8.23,0,10.99,4.81,10.99,14.9v12.82h-7.12V47.22
		c0-6.65-1.66-9.32-6.57-9.32c-4.36,0-6.72,2.37-6.72,10.15v11.46h-7.17V41.05c0-2.43-0.1-5.94-0.25-8.19h6.97L225.53,36.71z"/>
	<path class="st1" d="M278.45,61.06h-4.55l17.2-38.85c0.25-0.57,0.82-0.94,1.44-0.94h1.98c0.62,0,1.19,0.37,1.44,0.94l17.09,38.84
		h-4.61l-4.02-9.36l-22.05,0.1L278.45,61.06z M283.89,48.18h19.06l-9.53-22.41L283.89,48.18z"/>
	<path class="st1" d="M321.69,25.05c0,0.78-0.28,1.41-0.83,1.91s-1.16,0.75-1.83,0.75c-0.67,0-1.28-0.25-1.83-0.75
		s-0.83-1.14-0.83-1.91c0-0.78,0.28-1.41,0.83-1.91s1.16-0.75,1.83-0.75c0.67,0,1.28,0.25,1.83,0.75S321.69,24.27,321.69,25.05z
		 M320.91,60.99h-3.77V32.64h3.77V60.99z"/>
	<path class="st1" d="M328.21,35.81c-0.04-1.22-0.1-2.32-0.18-3.29H332c0.08,0.77,0.14,1.63,0.18,2.56
		c0.04,0.94,0.06,1.71,0.06,2.32h0.12c0.81-1.67,2.03-3.02,3.66-4.06c2.06-1.31,5.04-1.53,7.34-0.76c0.82,0.27,1.54,0.85,2.37,1.08
		l-1.71,2.77c-0.24-0.08-0.96-0.54-1.53-0.62c-0.57-0.08-1.14-0.12-1.71-0.12c-1.1,0-2.16,0.2-3.17,0.61
		c-1.02,0.41-1.9,1.04-2.65,1.92c-0.75,0.87-1.36,1.99-1.83,3.35c-0.47,1.36-0.7,2.99-0.7,4.9v14.6h-4.15V38.8
		C328.28,38.03,328.25,37.03,328.21,35.81z"/>
	<path class="st1" d="M272.2,52.29c-1.66,1.8-3.92,2.65-7.05,2.65c-4.36,0-7.07-1.96-7.62-6.83h16.57c1.2-2.66,2.42-5.35,3.47-7.67
		c-1.7-6.1-5.89-8.66-12.81-8.66c-10.13,0-14.65,5.7-14.65,14.42c0,8.67,4.36,14.36,14,14.36c1.54,0,3.02-0.09,4.43-0.31
		C269.18,58.93,270.58,55.87,272.2,52.29z M265.11,37.19c3.56,0,6.02,1.66,6.32,6.23h-13.79C258.38,39.03,261.09,37.19,265.11,37.19
		z"/>
</g>
</svg>
