<?xml version="1.0" encoding="utf-8"?>
<!-- Generator: Adobe Illustrator 25.4.1, SVG Export Plug-In . SVG Version: 6.00 Build 0)  -->
<svg version="1.1" id="Layer_1" xmlns="http://www.w3.org/2000/svg" xmlns:xlink="http://www.w3.org/1999/xlink" x="0px" y="0px"
	 viewBox="0 0 80 80" style="enable-background:new 0 0 80 80;" xml:space="preserve">
<style type="text/css">
	.st0{fill:#202B51;}
</style>
<g>
	<path class="st0" d="M40,0C17.9,0,0,17.9,0,40s17.9,40,40,40s40-17.9,40-40S62.1,0,40,0z M40,76.4C19.9,76.4,3.6,60.1,3.6,40
		C3.6,19.9,19.9,3.6,40,3.6S76.4,19.9,76.4,40C76.4,60.1,60.1,76.4,40,76.4z"/>
	<path class="st0" d="M19.6,62.8c0.1-0.3,8.1-39.8,8.1-39.8s0.5-5.7-2.6-6.7h40.3c0,0-0.7,3.8-4.2,3.8c-3.5,0-16.9,0-16.9,0
		l-3.9,18.4h18.8c0,0-1.1,3.1-5,3.1s-14.3,0-14.3,0l-3.5,14.8c0,0-1,3,1.8,3c2.9,0,16.3,0,16.3,0s-1,3.4-6.2,3.4
		S19.6,62.8,19.6,62.8z"/>
</g>
</svg>
