<?xml version="1.0" encoding="utf-8"?>
<!-- Generator: Adobe Illustrator 25.4.1, SVG Export Plug-In . SVG Version: 6.00 Build 0)  -->
<svg version="1.1" id="Layer_1" xmlns="http://www.w3.org/2000/svg" xmlns:xlink="http://www.w3.org/1999/xlink" x="0px" y="0px"
	 viewBox="0 0 428.3 80" style="enable-background:new 0 0 428.3 80;" xml:space="preserve">
<style type="text/css">
	.st0{fill:#202B51;}
</style>
<g>
	<path class="st0" d="M39.2,0C17.6,0,0,17.6,0,39.2s17.6,39.2,39.2,39.2s39.2-17.6,39.2-39.2S60.9,0,39.2,0z M39.2,74.8
		c-19.7,0-35.6-16-35.6-35.6c0-19.7,16-35.6,35.6-35.6s35.6,16,35.6,35.6C74.8,58.9,58.9,74.8,39.2,74.8z"/>
	<path class="st0" d="M19.2,61.6c0.1-0.3,8-39,8-39s0.5-5.6-2.5-6.6h39.5c0,0-0.7,3.7-4.2,3.7c-3.4,0-16.5,0-16.5,0l-3.8,18.1h18.4
		c0,0-1.1,3.1-4.9,3.1s-14,0-14,0l-3.4,14.5c0,0-1,2.9,1.8,2.9s16,0,16,0s-1,3.3-6.1,3.3S19.2,61.6,19.2,61.6z"/>
	<path class="st0" d="M87.8,80c0.1-0.2,6.2-30.2,6.2-30.2s0.3-4.3-2-5.1h30.6c0,0-0.6,2.9-3.2,2.9s-12.8,0-12.8,0l-2.9,14h14.3
		c0,0-0.8,2.4-3.8,2.4s-10.9,0-10.9,0l-2.6,11.2c0,0-0.8,2.2,1.4,2.2s12.4,0,12.4,0s-0.8,2.6-4.7,2.6C105.8,80,87.8,80,87.8,80z"/>
	<path class="st0" d="M128.8,39.2l-6.3-34.9h-15.3l0.4,6L89.4,39.2c0,0,5.8,0,6,0c0.1,0,2-3.4,4.4-7.5c3.5,0,10.4-0.1,13,0l1.5,7.5
		H128.8z M101.2,29.2c3-5.4,6.1-10.8,6.1-10.8s0.8-1.6,2.4-1.8l2.5,12.7C110,29.2,104.3,29.2,101.2,29.2z"/>
	<path class="st0" d="M185.8,16l-5.1,23.2h-12.9l5.4-21.7c0,0-0.1-4.1-2.4-4.1h27.7c0,0,5.5-0.4,5.2,4s-0.9,8.4-0.9,8.4
		s0.8-0.5,0.9,0.9c0.1,1.4-0.4,2-1.6,2c-1.2,0-9.6,0-9.6,0s-2.3-1.5-1.3-5.2s1.6-7.6-0.6-7.6S185.8,16,185.8,16z"/>
	<path class="st0" d="M294.8,56.8L289.8,80h-12.9l5.4-21.7c0,0-0.1-4.1-2.4-4.1h27.7c0,0,5.5-0.4,5.2,4s-0.9,8.4-0.9,8.4
		s0.8-0.5,0.9,0.9c0.1,1.4-0.4,2-1.6,2c-1.2,0-9.6,0-9.6,0s-2.3-1.5-1.3-5.2c1-3.7,1.6-7.6-0.6-7.6S294.8,56.8,294.8,56.8z"/>
	<path class="st0" d="M302.2,39.2c0,0,8.4,0,9.6,0c1.2,0,1.6-0.6,1.6-2c-0.1-1.4-0.9-0.9-0.9-0.9s2.7-14.5,3.1-18.9s-5.2-4-5.2-4
		h-27.7c1.1,0,1.7,0.9,2,1.8c0.4,1.1,0.4,2.3,0.1,3.4l-5.1,20.5h12.9l5.1-23.2c0,0,2.5-0.1,4.8-0.1c0,0,2.7-0.5,2,2.7
		s-4.4,20.6-4.4,20.6H302.2z"/>
	<path class="st0" d="M161.8,13.5c0,0-14.2,0-19.3,0s-6.8,4.8-6.8,4.8s-2.1,10.4-2.8,15.6c-0.7,5.2,4.8,5.4,4.8,5.4h20.7l2.4-3
		c0,0-13.4,0-14.6,0s-3.5-0.1-2.8-2.4c0.7-2.3,3.3-2.1,3.3-2.1s5.5,0,10.5,0s6.9-3.5,6.9-3.5s1.4-5.2,2.1-9.9S161.8,13.5,161.8,13.5
		z M154.4,17.8c-0.5,2-2.1,10.2-2.1,10.2s-0.3,1.8-1.8,1.8c-1.5,0-3.6,0-3.6,0s-1.4-0.1-0.8-2.5l2.4-10.2c0,0,0.1-1,2.5-1
		c1.5,0,1.9,0,2,0C153.1,16.1,154.9,15.8,154.4,17.8z"/>
	<path class="st0" d="M214.6,54.2c0,0-14.2,0-19.3,0c-5.1,0-6.8,4.8-6.8,4.8s-2.1,10.4-2.8,15.6c-0.7,5.2,4.8,5.4,4.8,5.4h20.7
		l2.4-3c0,0-13.4,0-14.6,0s-3.5-0.1-2.8-2.4c0.7-2.3,3.3-2.1,3.3-2.1s5.5,0,10.5,0c5,0,6.9-3.5,6.9-3.5s1.4-5.2,2.1-9.9
		C219.8,54.5,214.6,54.2,214.6,54.2z M207.2,58.6c-0.5,2-2.1,10.2-2.1,10.2s-0.3,1.8-1.8,1.8c-1.5,0-3.6,0-3.6,0s-1.4-0.1-0.8-2.5
		l2.4-10.2c0,0,0.1-1,2.5-1c1.5,0,1.9,0,2,0C205.8,56.9,207.7,56.6,207.2,58.6z"/>
	<path class="st0" d="M348.2,13.5c0,0-14.2,0-19.3,0s-6.8,4.8-6.8,4.8s-2.1,10.4-2.8,15.6c-0.7,5.2,4.8,5.4,4.8,5.4h20.7l2.4-3
		c0,0-13.4,0-14.6,0c-1.2,0-3.5-0.1-2.8-2.4s3.3-2.1,3.3-2.1s5.5,0,10.5,0c5,0,6.9-3.5,6.9-3.5s1.4-5.2,2.1-9.9
		C353.3,13.7,348.2,13.5,348.2,13.5z M340.8,17.8c-0.5,2-2.1,10.2-2.1,10.2s-0.3,1.8-1.8,1.8c-1.5,0-3.6,0-3.6,0s-1.4-0.1-0.8-2.5
		l2.4-10.2c0,0,0.1-1,2.5-1c1.5,0,1.9,0,2,0C339.4,16.1,341.2,15.8,340.8,17.8z"/>
	<path class="st0" d="M262.1,5.3l-6.3,29.8c0,0,3.4,0,2.6,1.4c-0.8,1.4-3.3,2.7-3.3,2.7s-12.9,0.4-12.9,0s6.5-26.9,6.5-26.9
		s0.4-3.5-1.7-4.6L262.1,5.3z"/>
	<path class="st0" d="M239,45.9l-6.3,29.8c0,0,3.4,0,2.6,1.4c-0.8,1.4-3.3,2.7-3.3,2.7s-12.9,0.4-12.9,0c0-0.4,6.5-26.9,6.5-26.9
		s0.4-3.5-1.7-4.6L239,45.9z"/>
	<path class="st0" d="M279,13.4l-4.9,21.7c0,0,3.4,0,2.6,1.4c-0.8,1.4-3.3,2.7-3.3,2.7s-12.9,0.4-12.9,0s5.5-20.9,5.5-20.9
		s1.1-3.8-0.9-4.8H279z"/>
	<polygon class="st0" points="270.5,9.1 276.7,9.1 283.2,0.3 275.6,0.3 	"/>
	<path class="st0" d="M236.1,13.4c0,0-13.6,0-19.1,0c-5.6,0-7.3,5.1-7.3,5.1s-3.1,14.8-3.2,15.2c-1.1,4.9,4.7,5.7,4.7,5.7h17.4
		c7.9,0,9-5.7,9-5.7s1.4-6.7,2.7-13.4C241.6,13.5,236.1,13.4,236.1,13.4z M228.1,19.1c-0.7,2.9-3.1,14.5-3.1,14.5s-0.7,2.3-2.3,2.3
		c-1.7,0-2.7,0-2.7,0s-2.1-0.3-1.5-3.1l3.2-15.1c0,0,0.3-1.8,2.6-1.8s2.3,0,2.3,0S228.8,16.2,228.1,19.1z"/>
	<path class="st0" d="M385.4,13.5c-4.8,0-25.6,0-25.6,0s0,2.9,4.9,2.9c0.5,0,11.9,0,11.9,0s2.2,0,2,1.7c-0.2,1.7-1.1,2.3-2.9,2.3
		s-11.4,0-11.4,0s-4.2-0.3-6.6,4.2c-2.4,4.5-2.3,10.3-2,11.3c0.3,0.9,1.3,3.5,5.3,3.5c4.1,0,24.1,0,24.1,0l2.9-2.3
		c0,0,1.3-1.9-2-1.8l3.4-16.3C389.3,18.7,390.2,13.5,385.4,13.5z M375.7,24.4c-0.3,1.5-2.2,10.1-2.2,10.1S373.2,36,372,36
		s-3.4,0-3.4,0s-1.5-0.4-1-2.2c0-0.2,2.3-10,2.3-10s0.5-1.3,2.1-1.3c1.6,0,2.6,0,2.6,0S376,22.9,375.7,24.4z"/>
	<path class="st0" d="M270.5,54.2c-4.8,0-25.6,0-25.6,0s0,2.9,4.9,2.9c0.5,0,11.9,0,11.9,0s2.2,0,2,1.7c-0.2,1.7-1.1,2.3-2.9,2.3
		c-1.8,0-11.4,0-11.4,0s-4.2-0.3-6.6,4.2c-2.4,4.5-2.3,10.3-2,11.3c0.3,0.9,1.3,3.5,5.3,3.5c4.1,0,24.1,0,24.1,0l2.9-2.3
		c0,0,1.3-1.9-2-1.8l3.4-16.3C274.4,59.5,275.3,54.2,270.5,54.2z M260.7,65.2c-0.3,1.5-2.2,10.1-2.2,10.1s-0.4,1.5-1.5,1.5
		c-1.2,0-3.4,0-3.4,0s-1.5-0.4-1-2.2c0-0.2,2.3-10,2.3-10s0.5-1.3,2.1-1.3c1.6,0,2.6,0,2.6,0S261,63.7,260.7,65.2z"/>
	<path class="st0" d="M410.8,16.2h13.7c0,0,3.7,0.2,3.7-2.8h-24.9c0,0-5.5-0.2-7.9,7c-2.4,7.1,4.7,8.5,6.2,8.5c1.5,0,9.3,0,9.3,0
		s1.9,0.1,1.9,3.1s-2.8,3.8-3.8,3.8c-0.9,0-11.8,0-11.8,0s-5.3-0.1-5.3,3.4h26.1c0,0,6.5-0.9,7.2-7.8c0.7-6.9-3-7.5-4.2-7.5h-11.6
		c0,0-2.7,0.2-2.7-2.8S409,16.2,410.8,16.2z"/>
	<path class="st0" d="M137,57h13.7c0,0,3.7,0.2,3.7-2.8h-24.9c0,0-5.5-0.2-7.9,7s4.7,8.5,6.2,8.5c1.5,0,9.3,0,9.3,0s1.9,0.1,1.9,3.1
		c0,3-2.8,3.8-3.8,3.8s-11.8,0-11.8,0s-5.3-0.1-5.3,3.4h26.1c0,0,6.5-0.9,7.2-7.8c0.7-6.9-3-7.5-4.2-7.5h-11.6c0,0-2.7,0.2-2.7-2.8
		C133,58.9,135.3,57,137,57z"/>
	<path class="st0" d="M177.2,54.2l2-8.3l-15.4,1.8c3.1,1.2,2.6,3.5,2.6,3.5l-0.7,3.1h-4.2c-4.6,0-5.1,2.9-5.1,2.9h8.5l-3.7,15.6
		c-1.7,6.1,2.7,7.2,2.7,7.2h13.8l2.7-2.9c0,0-3.1,0-5.8,0s-2.2-2.4-2.2-2.4l4.1-17.6h5.6c0,0,3.7-0.4,3.7-2.9H177.2z"/>
</g>
</svg>
