<?xml version="1.0" encoding="utf-8"?>
<!-- Generator: Adobe Illustrator 25.4.1, SVG Export Plug-In . SVG Version: 6.00 Build 0)  -->
<svg version="1.1" xmlns="http://www.w3.org/2000/svg" xmlns:xlink="http://www.w3.org/1999/xlink" x="0px" y="0px"
	 viewBox="0 0 97.09 80" style="enable-background:new 0 0 97.09 80;" xml:space="preserve">
<style type="text/css">
	.st0{fill:#548F46;}
	.st1{fill:#F1D212;}
	.st2{fill:#C12237;}
</style>
<g id="Layer_2">
</g>
<g id="Layer_1">
	<g>
		<path class="st0" d="M92.41,0h2.17c1.12,0.96,2.03,2.17,2.52,3.58v7.83c-0.87,2.12-1.16,4.41-1.92,6.56
			c-1.02,3.18-2.54,6.25-4.85,8.7c-2.7,2.85-5.95,5.11-9.21,7.26c-8.04,5.17-16.37,9.85-24.75,14.44
			C39.43,57.48,22.21,66.09,4.49,73.58c-1.44,0.38-2.87,0.78-4.33,1.1c0.14-1.7,1.93-2.4,3.14-3.26
			c29.32-17.5,55.58-39.65,79.87-63.54C86.14,5.13,88.86,2.01,92.41,0z"/>
		<path class="st1" d="M83.28,36.11c1.07-0.51,2.57,0,2.81,1.24c0.38,1.85-0.36,3.68-1.05,5.36c-2.75,6-7.06,11.42-12.74,14.87
			c-3.03,1.74-6.37,2.85-9.64,4.04c-16.02,5.45-32.5,9.44-48.99,13.16c0.16,0.11,0.5,0.32,0.67,0.43c-0.29,0.07-0.85,0.2-1.13,0.27
			c-0.23-0.92-2.33-0.57-1.29,0.3c-1.9,0.31-3.94,0.38-5.57,1.53c-0.26-0.34-0.5-0.69-0.75-1.04c-1.87,0.09-3.74,0.28-5.6,0.44
			c0.04-0.67,0.1-1.34,0.16-2.01c1.45-0.32,2.88-0.73,4.33-1.1c1.18-0.22,2.36-0.51,3.5-0.92c6.08-2.13,12-4.67,17.87-7.32
			c16.61-7.58,32.92-15.84,48.87-24.74C77.56,39.09,80.26,37.27,83.28,36.11z"/>
		<path class="st2" d="M69.49,61.58c1.32-0.23,3.04-1.01,4.13,0.16c1.3,1.71-0.05,3.83-0.93,5.41c-3.14,4.69-7.22,9.05-12.55,11.21
			c-2.53,1.23-5.38,1.05-8.1,1.34c-14.19,0.82-28.39-0.19-42.52-1.45c-1.09-0.19-2.34-0.13-3.18-0.96c1.63-1.14,3.67-1.22,5.57-1.53
			c0.32-0.07,0.97-0.22,1.29-0.3c0.29-0.07,0.85-0.2,1.13-0.27c9.81-1.64,19.53-3.74,29.16-6.22C52.25,66.83,60.8,63.94,69.49,61.58
			L69.49,61.58z"/>
	</g>
</g>
</svg>
