<?xml version="1.0" encoding="utf-8"?>
<!-- Generator: Adobe Illustrator 25.4.1, SVG Export Plug-In . SVG Version: 6.00 Build 0)  -->
<svg version="1.1" xmlns="http://www.w3.org/2000/svg" xmlns:xlink="http://www.w3.org/1999/xlink" x="0px" y="0px"
	 viewBox="0 0 191.46 80" style="enable-background:new 0 0 191.46 80;" xml:space="preserve">
<style type="text/css">
	.st0{fill:#548F46;}
	.st1{fill:#F1D212;}
	.st2{fill:#C12237;}
	.st3{opacity:0.29;fill:#854728;enable-background:new    ;}
</style>
<g id="Layer_2">
</g>
<g id="Layer_1">
	<g>
		<path class="st0" d="M189.1,0h1.09c0.57,0.49,1.02,1.09,1.27,1.8v3.94c-0.44,1.07-0.59,2.22-0.97,3.3
			c-0.51,1.6-1.28,3.15-2.44,4.38c-1.36,1.44-3,2.57-4.64,3.66c-4.05,2.6-8.24,4.96-12.46,7.27c-8.52,4.59-17.2,8.92-26.11,12.69
			c-0.73,0.19-1.45,0.39-2.18,0.56c0.07-0.86,0.97-1.21,1.58-1.64c14.76-8.81,27.98-19.96,40.21-31.99
			C185.95,2.58,187.32,1.01,189.1,0z"/>
		<path class="st1" d="M184.51,18.18c0.54-0.26,1.3,0,1.42,0.62c0.19,0.93-0.18,1.85-0.53,2.7c-1.38,3.02-3.56,5.75-6.41,7.49
			c-1.52,0.88-3.2,1.43-4.85,2.03c-8.07,2.75-16.36,4.75-24.67,6.63c0.08,0.05,0.25,0.16,0.34,0.22c-0.14,0.03-0.43,0.1-0.57,0.14
			c-0.11-0.46-1.17-0.29-0.65,0.15c-0.96,0.16-1.99,0.19-2.8,0.77c-0.13-0.17-0.25-0.35-0.38-0.52c-0.94,0.05-1.88,0.14-2.82,0.22
			c0.02-0.34,0.05-0.68,0.08-1.01c0.73-0.16,1.45-0.37,2.18-0.56c0.6-0.11,1.19-0.26,1.76-0.46c3.06-1.07,6.04-2.35,9-3.68
			c8.36-3.81,16.57-7.97,24.6-12.45C181.63,19.68,182.99,18.76,184.51,18.18z"/>
		<path class="st2" d="M177.57,31c0.66-0.12,1.53-0.51,2.08,0.08c0.66,0.86-0.03,1.93-0.47,2.72c-1.58,2.36-3.63,4.56-6.32,5.64
			c-1.27,0.62-2.71,0.53-4.08,0.68c-7.14,0.41-14.29-0.1-21.41-0.73c-0.55-0.1-1.18-0.07-1.6-0.48c0.82-0.58,1.85-0.61,2.8-0.77
			c0.16-0.04,0.49-0.11,0.65-0.15c0.14-0.03,0.43-0.1,0.57-0.14c4.94-0.82,9.83-1.88,14.68-3.13
			C168.89,33.64,173.19,32.19,177.57,31L177.57,31z M31.64,35.4c1.61-0.78,3.38-1.35,5.16-1.53c0.43,3.25,0.09,6.55,0.34,9.82
			c1.18-0.52,2.12-1.46,3.27-2.04c1.22-0.67,2.6-0.97,3.99-0.97c1.59-0.05,3.46,0.01,4.56,1.34c0.91,0.97,0.79,2.37,0.82,3.6
			c0.21,3.39,0.12,6.78,0.24,10.17c0.62,0.43,1.21,0.91,1.69,1.51c-1.74,0.39-3.54,0.2-5.3,0.21c-0.02-3.8-0.01-7.61-0.01-11.42
			c-0.01-0.63,0.06-1.28-0.07-1.9c-0.41-0.49-0.86-1.04-1.46-1.29c-1.54-0.14-3.17,0.02-4.51,0.84c-1.1,0.68-2.17,1.41-3.2,2.19
			c-0.17,0.43-0.08,0.91-0.1,1.37c0.04,2.75-0.05,5.51,0.04,8.26c0.4,0.67,1.26,1.01,1.7,1.69c-0.88,0.21-1.78,0.27-2.68,0.26
			c-1.46-0.02-2.95,0.09-4.39-0.26c0.47-0.59,1.08-1.03,1.65-1.5c0.16-0.35,0.08-0.75,0.11-1.13c-0.04-5.83,0.05-11.67-0.05-17.5
			C32.78,36.61,32.02,36.16,31.64,35.4L31.64,35.4z M0.56,34.53c3.62-0.23,7.27-0.09,10.9-0.13c2.03,0.06,4.08-0.16,6.08,0.26
			c0.33,1.13,0.26,2.33-0.04,3.46c-1.13-0.31-1.92-1.23-2.91-1.8c-3-0.12-6.01-0.04-9.01-0.04c0,2.61,0.02,5.21,0.04,7.82
			c2.01,0.03,4.03,0.13,6.04,0.01c0.99-0.45,1.79-1.24,2.82-1.63c0.15,1.76,0.21,3.54-0.08,5.29c-0.96-0.49-1.77-1.2-2.72-1.68
			C9.66,46,7.63,46.12,5.61,46.1c-0.01,3.18-0.03,6.36-0.03,9.54c2.7,0.04,5.39,0,8.09,0.02c0.5-0.03,1.08,0.08,1.5-0.26
			c0.93-0.69,1.81-1.47,2.85-1.99c0.33,1.34,0.25,2.73,0.23,4.1C12.16,57.55,6.08,57.5,0,57.54v-0.16c0.72-0.86,2.15-1.43,2-2.73
			c-0.01-5.86,0-11.73,0-17.59c0.1-1.04-1.06-1.47-1.58-2.21C0.45,34.77,0.53,34.61,0.56,34.53z M55.08,36.79
			c1.08-0.87,2.83-0.43,3.45,0.79c-0.41,1.01-1.51,1.9-2.64,1.45C54.9,38.85,54.33,37.52,55.08,36.79z M105.44,36.42
			c1.05-0.35,2.66,0.31,2.55,1.58c-0.57,1.6-3.25,1.33-3.76-0.2C104.27,37.13,104.86,36.64,105.44,36.42z M22.97,39.3
			c0.77-0.48,1.48-1.1,2.38-1.31c0.27,0.89,0.23,1.83,0.24,2.75c1.46,0.11,2.99-0.2,4.41,0.24c0.51,0.14,0.42,0.73,0.45,1.14
			c-1.49,0.45-3.07,0.19-4.59,0.32c-0.14,0.39-0.27,0.78-0.25,1.2c-0.04,3.59-0.03,7.17,0,10.76c-0.01,0.65,0.16,1.27,0.32,1.89
			c0.52,0.08,1.06,0.15,1.57-0.04c0.86-0.25,1.56-1,2.51-0.91c0.32,0.48,0.12,1.08-0.33,1.4c-0.96,0.71-2.13,1.13-3.31,1.27
			c-1.64,0.17-3.38-0.71-4.05-2.24c-0.35-1.32-0.28-2.7-0.3-4.06c0-2.52,0-5.05-0.02-7.57c0.02-0.57-0.12-1.13-0.31-1.67
			c-0.8-0.09-1.62-0.09-2.4-0.3C20.29,40.97,21.7,40.21,22.97,39.3z M91.21,40.73c2.62-0.58,5.59,0.08,7.52,2
			c0.95,0.89,1.65,2.02,2.12,3.23c0.58,1.36,0.3,2.86,0.37,4.29c0.14,2.43-1.47,4.54-3.21,6.05c-1.84,1.59-4.44,1.73-6.75,1.41
			c-1.48-0.22-2.76-1.02-4.17-1.46c-0.06,1.97-0.09,3.94-0.02,5.91c0.39,0.65,1.05,1.1,1.47,1.73c-1.03,0.28-2.11,0.21-3.17,0.23
			c-1.22-0.01-2.47,0.07-3.66-0.25c0.46-0.61,1.09-1.03,1.67-1.52c0.13-0.36,0.08-0.76,0.1-1.14c-0.01-5.04-0.01-10.08,0-15.12
			c-0.02-0.62,0.06-1.26-0.09-1.87c-0.57-0.44-1.23-0.77-1.72-1.31c0.02-0.09,0.07-0.28,0.1-0.38c1.62-0.65,3.3-1.29,5.05-1.39
			c0.12,0.36,0.24,0.72,0.35,1.08C88.48,41.66,89.76,40.92,91.21,40.73 M91.54,42.49c-1.76,0.17-3.68,0.99-4.47,2.65
			c-0.07,2.1,0,4.21-0.03,6.32c0.03,0.91-0.13,1.95,0.52,2.69c0.85,1,2.16,1.47,3.42,1.69c1.44,0.15,3.08,0.16,4.21-0.88
			c1.69-1.54,2.2-3.99,2.12-6.19c-0.17-1.55-0.47-3.16-1.34-4.49C95.04,42.83,93.16,42.34,91.54,42.49z M68.39,40.85
			c3-0.65,6.3-0.1,8.82,1.7c1.45,1.08,2.66,2.57,3.2,4.32c0.15,1.12,0.05,2.25,0.08,3.38c0.1,1.62-0.79,3.1-1.8,4.29
			c-2,2.22-5.02,3.3-7.95,3.42c-2.58-0.13-5.24-0.95-7.14-2.77c-1.25-1.2-2.3-2.72-2.58-4.46c-0.15-1.6-0.15-3.3,0.57-4.78
			C62.84,43.27,65.52,41.44,68.39,40.85 M69.58,42.25c-2.1,0.49-3.73,2.29-4.21,4.36c-0.47,1.98-0.36,4.1,0.29,6.02
			c0.54,1.66,1.93,3.02,3.62,3.47c1.6,0.54,3.42,0.16,4.77-0.81c1.5-1.18,2.36-3.07,2.42-4.96c0.12-2.21-0.04-4.71-1.63-6.41
			C73.57,42.44,71.48,41.85,69.58,42.25L69.58,42.25z M115.71,41.1c2.73-0.58,5.62-0.78,8.33-0.01c1.3,0.37,2.6,1.23,2.96,2.6
			c0.43,4.03,0.23,8.1,0.3,12.14c0.61,0.44,1.24,0.87,1.73,1.45c-1.74,0.4-3.54,0.23-5.31,0.24c-0.06-0.73,0.11-1.54-0.3-2.19
			c-2.1,0.57-4.05,1.55-6.12,2.22c-1.48,0.45-3.27,0.5-4.51-0.56c-0.94-0.82-1.61-2.05-1.58-3.32c-0.11-2.1,1.44-3.89,3.13-4.92
			c1.76-1.1,3.88-1.14,5.88-1.35c1.14-0.09,2.28-0.05,3.42-0.09c0.02-1.28,0.24-2.69-0.53-3.81c-0.89-1.27-2.63-1.51-4.05-1.25
			c-1.33,0.39-2.41,1.3-3.55,2.05c-0.6,0.38-1.17,0.9-1.91,0.95c-0.19-1.07-0.11-2.17,0.13-3.22
			C114.19,41.41,115.02,41.3,115.71,41.1 M117.72,49.46c-1.5,0.58-2.8,2.02-2.64,3.72c-0.16,1.06,0.62,2,1.54,2.41
			c0.81,0.14,1.59-0.25,2.34-0.52c1.58-0.66,3.21-1.26,4.66-2.18c0.04-1.1,0.15-2.22-0.02-3.31c-0.19-0.33-0.51-0.63-0.92-0.57
			C121.03,48.99,119.31,48.88,117.72,49.46L117.72,49.46z M140.28,41.01c1.33-0.39,2.74-0.3,4.11-0.29
			c1.24-0.04,2.41,0.53,3.37,1.27c0.66,0.52,0.81,1.38,0.94,2.16c0.26,3.89,0.26,7.79,0.31,11.68c0.61,0.44,1.24,0.87,1.72,1.45
			c-1.74,0.4-3.55,0.23-5.32,0.23c-0.02-3.81-0.01-7.61-0.04-11.42c-0.03-0.77-0.02-1.6-0.39-2.29c-0.85-1.02-2.32-0.95-3.52-0.93
			c-2.31-0.02-4.28,1.43-5.83,3c-0.45,0.34-0.26,0.96-0.31,1.44c0.06,2.74-0.1,5.49,0.08,8.22c0.61,0.69,1.36,1.26,1.95,1.98
			c-2.45-0.04-4.93,0.2-7.36-0.22c0.47-0.59,1.1-1.03,1.66-1.52c0.13-0.36,0.08-0.76,0.1-1.13c-0.02-3.42,0.01-6.83-0.02-10.25
			c-0.52-0.49-1.16-0.88-1.52-1.5c-0.23-0.39,0.34-0.51,0.59-0.63c1.41-0.5,2.83-0.99,4.3-1.29c0.27,0.82,0.24,1.7,0.29,2.55
			c0.72-0.07,1.26-0.57,1.82-0.96C138.14,41.88,139.16,41.3,140.28,41.01L140.28,41.01z M103.49,42.26c1.39-0.5,2.8-0.97,4.25-1.29
			c0.41,2.99,0.22,6.02,0.28,9.03c0.05,1.84-0.1,3.7,0.07,5.54c0.61,0.69,1.36,1.26,1.95,1.98c-2.45-0.04-4.94,0.21-7.37-0.25
			c0.51-0.56,1.13-1,1.74-1.43c0.02-3.82,0.01-7.63,0-11.45c-0.51-0.49-1.15-0.88-1.51-1.49C102.69,42.49,103.24,42.38,103.49,42.26
			L103.49,42.26z M52.97,42.67c1.61-0.87,3.46-1.35,5.28-1.51c0.37,3.83,0.2,7.68,0.25,11.53c0.04,1.02-0.11,2.07,0.09,3.09
			c0.58,0.47,1.19,0.91,1.65,1.5c-0.88,0.21-1.78,0.27-2.68,0.26c-1.47-0.01-2.95,0.09-4.39-0.26c0.47-0.59,1.08-1.03,1.65-1.5
			c0.15-0.35,0.08-0.76,0.1-1.13c-0.01-2.85-0.02-5.7-0.02-8.54c0-0.68,0-1.44-0.49-1.98C53.93,43.64,53.32,43.28,52.97,42.67
			L52.97,42.67z M69.67,67.24c1.95-0.86,4.21-1,6.28-0.47c1.08,0.27,2.26,0.89,2.54,2.07c0.38,1.3,0.34,3.06-0.92,3.88
			c-1.58,0.95-3.48,0.58-5.22,0.78c0.55,1.33,2.1,1.88,2.67,3.19c0.27,1.11,0.36,2.28,0.87,3.32h-3.7c0.8-0.74,1.16-2.16,0.31-2.99
			c-1.44-1.41-3.24-2.46-4.46-4.09c-0.63-1.24-0.53-2.74-0.1-4.02C68.21,68.1,68.94,67.59,69.67,67.24 M71.78,67.62
			c-0.98,0.46-1.95,1.43-1.82,2.61c0.03,0.67-0.17,1.59,0.58,1.94c1.5,0.19,3.02,0.09,4.52-0.03c1.14-0.11,1.3-1.48,1.32-2.39
			c0.13-0.98-0.75-1.77-1.57-2.11C73.81,67.49,72.77,67.5,71.78,67.62L71.78,67.62z M81.19,67.53c0.79-0.47,1.68-0.84,2.62-0.84
			c0.64,0.14,0.52,1.01,0.72,1.5c0.87,0.12,1.74,0.25,2.6,0.4c-0.05,1.42-1.33,2.33-1.86,3.57c1.14,0.15,2.29,0.15,3.42,0.36
			c0.74,0.16,1.62,0.53,1.79,1.36c0.34,1.37,0.17,2.8,0.27,4.2c0.7-0.26,1.36-0.63,2.1-0.75c0.38,0.16,0.41,0.6,0.54,0.94
			c0.14,0.63,0.51,1.16,0.85,1.7h-3.05c0-0.46-0.66-0.45-0.66,0h-1.67c-0.4-1.51-0.25-3.09-0.32-4.63
			c-0.03-0.68-0.28-1.53-1.05-1.67c-1.15-0.22-2.58-0.66-3.55,0.24c-1.12,0.95-0.72,2.59-0.81,3.88c-0.12,0.85,0.4,1.54,0.88,2.18
			h-3.85c0.32-0.54,0.77-1.06,0.8-1.71c0.14-1.57-0.23-3.3,0.64-4.72c0.86-1.39,1.96-2.61,2.82-4c-0.64-0.09-1.35-0.03-1.9-0.43
			C81.96,68.73,81.59,68.11,81.19,67.53L81.19,67.53z M109.69,67.98c1.2-1.25,3.05-1.49,4.7-1.48c1.39,0.07,2.9,0.06,4.1,0.87
			c0.94,0.68,1.14,1.89,1.52,2.91c0.77,0.05,1.55,0.07,2.33,0.07c-0.1,1.11,0.4,2.06,1.02,2.94c-0.94,0.14-1.89,0.09-2.83,0.04
			c-0.13-0.64-0.25-1.29-0.4-1.93c-0.85,0.5-1.4,1.46-2.4,1.7c-1.45,0.51-3.02,0.08-4.48,0.52c0.78,1.08,2.06,1.67,2.75,2.81
			c0.41,1.17,0.23,2.5,0.99,3.56h-3.66c0.38-0.74,1.2-1.64,0.61-2.49c-1.33-1.84-3.67-2.69-4.87-4.64
			C108.35,71.32,108.46,69.25,109.69,67.98 M113.01,67.68c-1.65,0.18-2.23,2.11-2.03,3.52c0.11,0.4,0.19,1.03,0.73,1.03
			c1.29,0.13,2.6,0.08,3.89,0.02c1.01,0.04,1.84-1.02,1.74-1.99c0.02-0.79,0.02-1.77-0.72-2.26
			C115.54,67.39,114.21,67.48,113.01,67.68L113.01,67.68z M140.56,68.6c0.74-1.37,2.38-1.85,3.82-2.01
			c1.74-0.14,3.63-0.24,5.22,0.63c1.86,0.98,2.07,3.82,0.68,5.27c-1.58,1.32-3.75,0.63-5.58,1.13c0.92,1.28,2.38,2.03,3.31,3.3
			c0.34,0.34,0.11,0.93-0.36,0.95c-2.03,0.44-4.18,0.25-6.17,0.9c0.28,0.41,0.56,0.82,0.84,1.23h-3.83
			c0.27-0.48,0.57-0.96,0.76-1.48c0.13-0.25,0.16-0.67,0.5-0.72c1.64-0.4,3.36-0.3,5-0.74c-1.21-1.5-3.04-2.39-4.15-3.99
			C139.82,71.72,139.88,69.97,140.56,68.6 M144.21,67.62c-0.98,0.46-1.96,1.43-1.82,2.61c0.03,0.67-0.17,1.59,0.58,1.94
			c1.49,0.19,3.02,0.09,4.52-0.03c1.14-0.11,1.3-1.48,1.31-2.39c0.13-0.98-0.75-1.77-1.57-2.11
			C146.25,67.49,145.21,67.5,144.21,67.62L144.21,67.62z M96.37,67.4c0.97-0.36,1.99-0.63,3.03-0.54c0.17,0.42,0.34,0.85,0.5,1.27
			c0.47,0.2,0.93,0.39,1.4,0.6c0.35,1.2,0.41,2.46,0.42,3.7c1.7,0.03,3.39,0.21,5.09,0.29c0.13,0.98,0.43,1.92,0.92,2.77
			c-0.75,0.08-1.53,0.21-2.28,0.01c-0.77-0.26-0.75-1.2-0.92-1.86c-0.94-0.12-1.88-0.12-2.82-0.08c0,1.58-0.06,3.15-0.01,4.72
			c0,0.61,0.3,1.15,0.53,1.7h-3.7c0.34-0.42,0.75-0.87,0.73-1.45c0.04-1.67,0.02-3.35-0.03-5.02c-0.95-0.09-1.91-0.14-2.86-0.08
			c-0.21,0.63-0.37,1.28-0.54,1.92c-0.87,0.25-1.8,0.34-2.66,0.03c0.57-0.85,0.84-1.83,0.85-2.85c1.72-0.04,3.46,0.07,5.18-0.17
			c0.13-0.92,0.12-1.84,0.06-2.76C97.89,69.6,97.03,68.45,96.37,67.4L96.37,67.4z M128.22,67.23c0.84-0.32,1.73-0.51,2.64-0.45
			c0.07,0.47,0.14,0.94,0.23,1.41c1.26,0.32,2.6,0.61,3.6,1.5c0.79,0.82,2,0.52,2.98,0.9c0.39,0.89,0.5,1.88,1.03,2.71
			c-0.93,0.12-1.88,0.09-2.82,0.04c-0.13-0.65-0.24-1.3-0.37-1.94c-0.6,1.07-1.38,2-2.4,2.69c0.56,0.44,1.27,0.78,1.59,1.45
			c0.49,1.08,0.28,2.3,0.47,3.44c0.2,0.38,0.48,0.7,0.74,1.03h-3.79c0.66-1.03,1.13-2.3,0.64-3.51c-0.35-1.19-1.8-1.59-2.89-1.25
			c-1.2,0.34-2.45,0.69-3.47,1.43c-0.81,1.02-0.11,2.39,0.5,3.33h-3.81c0.26-0.33,0.54-0.65,0.73-1.03
			c0.22-1.21-0.05-2.61,0.78-3.63c0.56-0.53,1.29-0.83,1.93-1.26c-0.96-0.72-2.17-1.68-1.87-3.05c0.3-1.55,1.84-2.25,3.19-2.68
			C127.99,67.98,128.1,67.6,128.22,67.23 M128.38,69.61c-1.15,0.26-1.75,1.64-1.12,2.64c0.63,0.97,1.96,0.84,2.95,0.66
			c0.92-0.26,1.95-0.59,2.52-1.4c0.45-0.6-0.12-1.33-0.61-1.7C131,69.16,129.59,69.3,128.38,69.61L128.38,69.61z"/>
		<path class="st3" d="M148.58,38.14c-0.52-0.44,0.54-0.61,0.65-0.15C149.07,38.03,148.74,38.11,148.58,38.14z M90.53,80
			c0-0.45,0.66-0.46,0.66,0H90.53z"/>
	</g>
</g>
</svg>
