<?xml version="1.0" encoding="utf-8"?>
<!-- Generator: Adobe Illustrator 25.4.1, SVG Export Plug-In . SVG Version: 6.00 Build 0)  -->
<svg version="1.1" id="Layer_1" xmlns="http://www.w3.org/2000/svg" xmlns:xlink="http://www.w3.org/1999/xlink" x="0px" y="0px"
	 viewBox="0 0 80 80" style="enable-background:new 0 0 80 80;" xml:space="preserve">
<style type="text/css">
	.st0{fill:#F4A01D;}
</style>
<path class="st0" d="M68.28,11.72C60.73,4.16,50.68,0,40,0S19.27,4.16,11.72,11.72C4.16,19.27,0,29.32,0,40s4.16,20.73,11.72,28.28
	C19.27,75.84,29.32,80,40,80s20.73-4.16,28.28-11.72C75.84,60.73,80,50.68,80,40S75.84,19.27,68.28,11.72z M74.56,35.24
	c-0.76-0.15-1.36,0.41-1.44,1.3c-0.13,1.35,0.53,2.22,1.65,2.83c0.58,0.32,1.18,0.6,1.74,0.95c1.41,0.87,1.65,3.15,0.46,4.24
	c-0.06-0.48-0.08-0.91-0.18-1.31c-0.19-0.81-0.98-1.31-1.79-1.2c-0.24,0.03-0.31,0.09-0.23,0.35c0.61,1.86,0.33,3.68-0.34,5.46
	c-0.29,0.78-0.35,1.44,0.4,2.04c0.49,0.38,0.36,1.32-0.21,1.44c-0.94,0.2-1.25,0.95-1.67,1.6c-1.14,1.74-2.23,3.51-3.36,5.25
	c-0.19,0.3-0.22,0.42,0.15,0.66c1.46,0.95,1.38,2.17,0.42,3.04c-0.38,0.35-0.82,0.32-1.24,0.1c-0.39-0.2-0.59-0.55-0.6-0.99
	c0-0.13-0.01-0.31,0.18-0.34c0.14-0.02,0.22,0.11,0.24,0.23c0.05,0.36,0.3,0.55,0.6,0.57c0.25,0.01,0.41-0.23,0.51-0.47
	c0.13-0.34,0.15-0.67-0.13-0.96c-0.46-0.5-1.29-0.59-1.94-0.19c-0.51,0.31-0.76,1.1-0.52,1.71c0.1,0.26,0.24,0.5,0.38,0.79
	c-0.63,0.19-0.91-0.31-1.15-0.65c-0.68-0.97-0.03-1.74,0.54-2.5c-1.23-0.28-1.9,0.24-1.93,1.45c0,0.18,0.13,0.46-0.15,0.51
	c-0.34,0.07-0.38-0.26-0.44-0.48c-0.35-1.29,0.54-2.63,2.03-2.5c1.57,0.14,2.08-0.83,2.72-1.79c1.11-1.66,2.16-3.36,3.29-5.01
	c0.6-0.88,0.65-1.8,0.53-2.79c-0.12-0.93-0.39-1.82-0.64-2.72c-0.36-1.25-0.46-2.51-0.01-3.76c0.16-0.43-0.07-0.61-0.4-0.81
	c-1.8-1.06-2.56-2.66-2.33-4.72c0.12-1.06,0.63-1.98,1.4-2.7c0.87-0.81,1.19-1.81,1.27-2.93c0.17-2.45-0.36-4.7-1.96-6.63
	c-0.54-0.64-1.17-1.17-1.9-1.57c-0.5-0.27-0.97-0.6-1.37-0.99c-0.56-0.54-0.9-1.17-0.56-1.96c0.12-0.29,0.01-0.47-0.16-0.65
	c-0.36-0.39-0.77-0.71-1.22-0.99c-0.14-0.09-0.41-0.15-0.3-0.36c0.1-0.21,0.35-0.15,0.55-0.08c0.6,0.22,1.19,0.49,1.66,0.94
	c0.15,0.14,0.28,0.3,0.52,0.25c0.96-0.18,1.55,0.42,2.11,1.04c1.7,1.87,2.9,4.03,3.56,6.47c0.62,2.29,0.83,4.61,0.37,6.96
	c-0.03,0.14,0.02,0.3-0.03,0.42c-0.18,0.44,0.02,0.43,0.38,0.4c0.69-0.06,1.37-0.07,1.8,0.66c0.21,0.35,0.18,0.71,0.09,1.05
	c-0.09,0.35-0.07,0.68-0.06,1.02c0.01,0.35,0.27,0.49,0.59,0.46c0.33-0.03,0.54-0.18,0.44-0.56c-0.07-0.28-0.07-0.55,0.26-0.65
	c0.31-0.09,0.47,0.11,0.6,0.37c0.55,1.06,0.21,1.82-0.96,2.11c-1.41,0.34-2.72-0.47-2.8-1.72c-0.03-0.43,0.1-0.67,0.59-0.58
	c0.24,0.04,0.58,0.25,0.69-0.18C75.33,35.8,74.98,35.32,74.56,35.24z M63.08,54.05c-6.7,6.06-14.15,7.84-22.68,3.98
	c2.08,2.48,6.25,5.01,12.78,5.59c-0.82,0.35-1.62,0.46-2.39,0.54c-1.2,0.13-2.39,0.33-3.61,0.28c-2.83-0.1-5.53-0.67-8.1-1.89
	c-2.92-1.38-5.24-3.46-7.15-6.03c-0.07-0.1-0.14-0.2-0.22-0.29c-0.07-0.08-0.18-0.1-0.27-0.04c-0.09,0.06-0.02,0.13,0.01,0.21
	c0.6,2.06,1.54,3.94,2.85,5.64c1.48,1.93,3.29,3.51,5.37,4.91c-0.68,0.16-1.21-0.19-1.7-0.39c-1.81-0.74-3.58-1.57-5.2-2.7
	c-3.43-2.39-5.85-5.54-7.12-9.54c-0.44-1.39-0.78-2.81-0.88-4.28c-0.01-0.12,0.04-0.32-0.18-0.32c-0.17,0-0.12,0.18-0.16,0.28
	c-0.31,0.79-0.39,1.64-0.44,2.47c-0.15,2.46,0.07,4.88,0.89,7.24c0.39,1.12,0.87,2.2,1.29,3.37c-1.65-0.72-5.04-6.62-5.82-10.52
	c-0.78-3.88-0.36-7.48,1.65-11.93c-0.82,0.15-2.83,2.96-3.92,5.53c-0.9,2.12-1.22,4.4-1.6,6.76c-1.13-1.94-0.96-8.61,0.24-11.94
	c1.4-3.89,3.89-6.94,7.3-9.35c-0.61-0.21-1.11,0.06-1.59,0.24c-2.14,0.82-4.07,1.98-5.72,3.59c-1.33,1.3-2.61,2.63-3.57,4.26
	c-0.51-1.31,3.27-7.8,6.13-10.39c3.15-2.84,6.97-4.17,11.21-4.62c-0.91-0.71-3.62-0.94-6.97-0.56c-2.29,0.26-4.42,1.13-6.55,1.95
	c3.01-2.83,6.43-4.9,10.49-5.72c1.77-0.36,3.57-0.41,5.39-0.23c1.52,0.15,2.96,0.54,4.41,0.96c0.52,0.15,1,0.35,1.47,0.6
	c0.16,0.08,0.29,0.16,0.41-0.03c0.11-0.17-0.03-0.22-0.13-0.33c-1.02-1.11-2.28-1.9-3.59-2.58c-2.02-1.05-4.17-1.69-6.43-1.94
	c-0.58-0.06-1.16-0.21-1.74-0.38c0.95-0.41,1.95-0.49,2.93-0.59c1.9-0.19,3.81-0.19,5.7,0.11c2.96,0.48,5.69,1.52,8.1,3.36
	c1.64,1.25,3.09,2.66,4.25,4.37c0.08,0.12,0.2,0.24,0.35,0.16c0.21-0.11,0.07-0.28,0.03-0.42c-0.89-2.86-2.44-5.31-4.58-7.4
	c-1.04-1.02-2.17-1.92-3.37-2.79c0.31-0.2,0.56-0.05,0.8,0.04c1.81,0.66,3.55,1.45,5.19,2.48c2.12,1.34,3.94,2.99,5.38,5.04
	c1.66,2.36,2.69,4.97,3.12,7.82c0.08,0.51,0.16,1.03,0.24,1.54c0.01,0.09-0.03,0.22,0.1,0.25c0.17,0.03,0.2-0.11,0.22-0.23
	c0.24-1.15,0.47-2.3,0.5-3.48c0.1-3.21-0.74-6.21-2.01-9.11c-0.06-0.13-0.11-0.26-0.16-0.39c-0.01-0.03,0.02-0.07,0.03-0.11
	c1.59,0.62,5.11,7.14,5.72,10.39c0.77,4.12,0.14,8.02-1.57,11.79c0.34,0.12,0.49-0.08,0.65-0.26c2.47-2.8,3.89-6.06,4.44-9.73
	c0.08-0.56,0.23-1.11,0.23-1.68c0-0.11-0.05-0.28,0.12-0.29c0.12-0.01,0.21,0.11,0.23,0.23c0.13,0.67,0.28,1.33,0.36,2
	c0.19,1.63,0.24,3.28,0.11,4.91c-0.26,3.13-1.2,6.05-2.96,8.69c-1.41,2.1-3.18,3.83-5.24,5.28c-0.11,0.08-0.21,0.17-0.44,0.35
	c1.29-0.23,2.36-0.63,3.4-1.12c2.08-1,3.88-2.38,5.42-4.09c0.7-0.77,1.34-1.6,1.99-2.41c0.11-0.14,0.25-0.34,0.4-0.26
	c0.23,0.13-0.01,0.3-0.06,0.45c-0.69,2.21-1.71,4.26-3.03,6.15c-1.41,2.02-3.18,3.72-5.29,5.02c-1.64,1-3.38,1.74-5.25,2.22
	c-1.01,0.26-2.02,0.48-3.06,0.58c-0.21,0.02-0.33,0.13-0.41,0.3C54.44,57,58.79,55.81,63.08,54.05z M61.27,68.03
	c0.1,0.26-0.11,0.62-0.33,0.86c-1.49,1.66-3.32,2.84-5.37,3.7c-1.4,0.58-2.85,0.99-4.34,1.18c-1.55,0.2-3.13,0.19-4.67-0.16
	c-0.22-0.05-0.43-0.08-0.64-0.01c-0.01,0.03-0.02,0.05-0.02,0.06c0.35,1.93-0.58,2.38-2.19,2.15c-0.28-0.04-0.5,0-0.75,0.07
	c-0.29,0.08-0.28,0.32-0.24,0.54c0.04,0.23,0.15,0.39,0.44,0.4c0.27,0.01,0.71-0.26,0.77,0.28c0.05,0.47-0.4,0.57-0.71,0.7
	c-0.73,0.29-1.3,0.04-1.65-0.69c-0.37-0.77-0.32-1.55,0.11-2.26c0.35-0.58,0.88-0.93,1.61-0.89c0.42,0.03,0.6,0.18,0.47,0.6
	c-0.07,0.24-0.22,0.52,0.08,0.63c0.31,0.12,0.64-0.01,0.85-0.29c0.54-0.73,0.06-1.67-0.91-1.82c-1.2-0.19-2.27,0.36-2.91,1.4
	c-0.46,0.75-0.72,1.61-1.3,2.3c-0.9,1.07-2.91,1.21-3.95,0.22c0.43-0.15,0.88-0.11,1.28-0.27c0.75-0.3,1.23-0.9,1.27-1.68
	c0.02-0.33-0.08-0.44-0.43-0.34c-0.67,0.2-1.36,0.4-2.06,0.41c-1.03,0.02-2.03-0.27-3.01-0.58c-0.27-0.08-0.53-0.18-0.8-0.28
	c-0.6-0.21-1.13-0.12-1.53,0.39c-0.29,0.37-0.66,0.47-1.07,0.35c-0.43-0.13-0.75-0.43-0.77-0.91c-0.01-0.29-0.15-0.42-0.38-0.56
	c-2.04-1.3-4.08-2.61-6.11-3.94c-0.45-0.3-0.66-0.13-0.9,0.28c-0.68,1.14-2.23,1.24-2.97,0.21c-0.3-0.43-0.29-1.02,0.08-1.39
	c0.37-0.38,0.81-0.49,1.33-0.22c-0.19,0.21-0.44,0.25-0.65,0.37c-0.42,0.23-0.4,0.66,0.01,0.91c0.52,0.31,1.16,0.11,1.43-0.43
	c0.29-0.59,0.15-1.41-0.31-1.86c-0.43-0.41-1.06-0.46-1.69-0.16c-0.22,0.1-0.5,0.42-0.68,0.17c-0.15-0.2,0.17-0.46,0.34-0.65
	c0.66-0.75,1.71-0.79,2.55-0.11c0.14,0.11,0.25,0.33,0.44,0.22c0.17-0.1,0.1-0.34,0.08-0.51c-0.09-0.85-0.7-1.36-1.62-1.38
	c-0.19,0-0.52,0.16-0.52-0.2c0-0.28,0.29-0.28,0.51-0.31c1.7-0.24,2.51,0.6,2.52,2.25c0,1.02,0.36,1.57,1.14,2.07
	c1.91,1.22,3.81,2.46,5.69,3.72c0.95,0.64,1.97,0.65,3.02,0.44c1-0.21,1.99-0.48,2.99-0.72c1.05-0.26,2.1-0.22,3.12,0.09
	c0.44,0.13,0.63,0.04,0.87-0.34c1.17-1.88,2.85-2.68,5.06-2.29c0.86,0.15,1.64,0.53,2.21,1.16c1.46,1.61,3.33,1.57,5.22,1.38
	c1.79-0.18,3.37-0.89,4.74-2.09c0.72-0.63,1.17-1.43,1.66-2.21c0.3-0.49,0.68-0.91,1.13-1.25c0.43-0.33,0.95-0.43,1.44-0.23
	c0.4,0.16,0.61,0.01,0.84-0.23c0.32-0.34,0.62-0.69,0.85-1.1c0.08-0.15,0.17-0.39,0.38-0.31c0.2,0.07,0.12,0.33,0.1,0.49
	c-0.07,0.57-0.37,1.05-0.74,1.48C61.37,67.18,61.05,67.47,61.27,68.03z M6,45.94c-0.32,0.04-0.64,0.04-0.96-0.09
	c-0.53-0.22-0.89-0.55-0.85-1.18c0.03-0.45,0.05-0.89,0.07-1.34c0.02-0.4-0.15-0.59-0.58-0.58c-0.42,0.01-0.44,0.24-0.42,0.56
	c0.02,0.23,0.09,0.51-0.22,0.62C2.7,44.06,2.55,43.8,2.4,43.6c-0.56-0.78-0.27-1.7,0.64-2.08c1.31-0.54,2.73,0.15,3.09,1.51
	c0.16,0.59-0.09,0.86-0.7,0.72c-0.19-0.04-0.4-0.21-0.54,0.02C4.76,44,4.82,44.23,4.96,44.45c0.38,0.6,1.12,0.66,1.58,0.13
	c0.78-0.9,0.57-2.42-0.45-3.31c-0.6-0.53-1.33-0.83-2.04-1.17c-1.79-0.84-2.02-2.68-1.33-4.11c0.08-0.16,0.15-0.38,0.36-0.34
	c0.25,0.06,0.03,0.26,0.05,0.4c0.08,0.7,0.31,1.33,0.87,1.79c0.29,0.24,0.61,0.22,0.94,0.08c0.39-0.17,0.3-0.44,0.22-0.75
	c-0.39-1.66-0.13-3.26,0.48-4.82c0.4-1.02,0.35-1.35-0.42-2.13c-0.44-0.44-0.18-1.45,0.48-1.58c0.56-0.11,0.79-0.44,1.06-0.87
	c1.21-1.91,2.43-3.82,3.69-5.7c0.29-0.44,0.28-0.62-0.18-0.9c-0.95-0.59-1.23-1.4-0.87-2.25c0.43-1.02,1.53-1.25,2.16-0.43
	c0.1,0.12,0.19,0.28,0.21,0.43c0.02,0.2,0.13,0.5-0.17,0.57c-0.26,0.06-0.2-0.25-0.28-0.39c-0.12-0.22-0.22-0.44-0.53-0.42
	c-0.32,0.02-0.45,0.27-0.54,0.51c-0.14,0.34-0.09,0.68,0.17,0.96c0.51,0.52,1.35,0.58,1.94,0.14c0.56-0.41,0.74-1.21,0.43-1.84
	c-0.11-0.21-0.29-0.39-0.29-0.7c0.63,0.03,1.01,0.38,1.23,0.9c0.38,0.91,0,1.63-0.67,2.25c1.03,0.45,1.96-0.2,1.95-1.33
	c0-0.23-0.13-0.56,0.21-0.58c0.31-0.02,0.3,0.29,0.34,0.53c0.33,1.74-0.73,2.48-2.29,2.5c-1.13,0.02-1.67,0.47-2.2,1.32
	c-1.26,2-2.6,3.94-3.86,5.94c-0.37,0.59-0.33,1.3-0.26,1.99c0.11,1.1,0.52,2.12,0.77,3.18C8,35.6,8.02,36.77,7.68,37.91
	c-0.12,0.42-0.05,0.68,0.36,0.92c1.58,0.95,2.46,2.34,2.38,4.22c-0.04,1.13-0.42,2.18-1.24,2.97c-1.4,1.34-1.61,2.99-1.45,4.8
	c0.08,0.91,0.25,1.77,0.57,2.62c0.65,1.77,1.82,3.1,3.44,4.03c0.47,0.27,0.9,0.6,1.3,0.97c0.54,0.49,0.7,1.12,0.51,1.76
	c-0.15,0.51,0.09,0.77,0.38,1.03c0.42,0.36,0.89,0.67,1.4,1.05c-0.28,0.16-0.45,0.21-0.73,0.12c-0.56-0.18-1.03-0.46-1.46-0.83
	c-0.31-0.27-0.59-0.47-1.07-0.32c-0.4,0.12-0.8-0.16-1.08-0.45C7.1,56.78,5.57,52,6.47,46.46C6.55,45.99,6.43,45.89,6,45.94z
	 M18.84,12.17c-0.14-0.44,0.18-0.81,0.47-1.13c1.21-1.31,2.65-2.31,4.24-3.09c2.1-1.02,4.32-1.59,6.66-1.65
	c1.12-0.03,2.23,0.01,3.32,0.25c0.44,0.1,0.75,0.16,0.6-0.52c-0.23-1.11,0.41-1.79,1.53-1.75c0.38,0.01,0.77,0.03,1.15,0.03
	c0.38,0,0.55-0.21,0.54-0.58c-0.01-0.37-0.26-0.39-0.55-0.4c-0.24-0.01-0.56,0.11-0.63-0.28c-0.06-0.35,0.19-0.48,0.45-0.63
	c0.48-0.28,0.97-0.31,1.43,0c0.59,0.4,0.75,1.05,0.69,1.69c-0.03,0.37-0.09,0.78-0.32,1.14c-0.09,0.14-0.47,0.33-0.14,0.53
	c0.31,0.19,0.69,0.26,0.92-0.18c0.26-0.5,0.52-1,0.77-1.51c0.98-2.02,3.45-2.01,4.67-0.87c-0.95-0.06-1.81,0.06-2.39,0.78
	c-0.31,0.38-0.34,0.89-0.25,1.44c0.61-0.1,1.19-0.28,1.81-0.34c1.32-0.12,2.57,0.11,3.8,0.54c0.28,0.1,0.55,0.22,0.86,0.27
	C49,6,49.4,5.89,49.75,5.45c0.52-0.65,1.54-0.5,1.72,0.3c0.15,0.69,0.65,0.92,1.11,1.22c1.84,1.21,3.71,2.38,5.55,3.58
	c0.34,0.22,0.51,0.27,0.75-0.16c0.55-0.99,1.44-1.3,2.34-0.91c0.75,0.32,1.02,0.8,0.84,1.49c-0.16,0.63-0.55,0.83-1.47,0.73
	c0.11-0.3,0.37-0.29,0.55-0.41c0.45-0.29,0.44-0.66-0.03-0.92c-0.58-0.32-1.13-0.12-1.38,0.48c-0.27,0.66-0.13,1.38,0.36,1.81
	c0.36,0.32,1.18,0.36,1.72,0.1c0.18-0.09,0.42-0.38,0.55-0.12c0.11,0.22,0.02,0.62-0.25,0.77c-0.92,0.5-1.53,0.85-2.58-0.05
	c-0.13-0.11-0.28-0.23-0.43-0.15c-0.19,0.1-0.12,0.33-0.09,0.49c0.12,0.83,0.67,1.28,1.58,1.33c0.21,0.01,0.52-0.08,0.56,0.2
	c0.04,0.29-0.3,0.27-0.49,0.36c-0.83,0.39-2-0.23-2.32-1.07c-0.24-0.64-0.38-1.28-0.27-1.96c0.05-0.32-0.03-0.56-0.29-0.73
	c-2.28-1.49-4.56-2.98-6.83-4.47c-0.52-0.34-1.12-0.35-1.68-0.35c-1.11,0-2.19,0.28-3.23,0.63c-1.36,0.45-2.71,0.5-4.06,0.08
	c-0.32-0.1-0.48-0.02-0.62,0.25c-0.84,1.57-2.22,2.39-3.94,2.52c-1.12,0.09-2.19-0.28-3.08-1.03c-0.23-0.2-0.47-0.38-0.69-0.6
	c-0.76-0.77-1.71-0.95-2.74-1.05c-1.45-0.14-2.83,0.03-4.19,0.51c-1.76,0.61-3.08,1.73-4.01,3.35c-0.35,0.6-0.71,1.2-1.31,1.62
	c-0.44,0.31-0.91,0.52-1.41,0.35c-0.62-0.21-0.96,0.11-1.29,0.51c-0.24,0.29-0.44,0.62-0.66,0.93c-0.08,0.11-0.01,0.39-0.28,0.26
	c-0.18-0.08-0.17-0.27-0.14-0.43c0.15-0.66,0.44-1.27,0.92-1.75C18.82,12.86,18.99,12.63,18.84,12.17z"/>
</svg>
