<?xml version="1.0" encoding="utf-8"?>
<!-- Generator: Adobe Illustrator 25.4.1, SVG Export Plug-In . SVG Version: 6.00 Build 0)  -->
<svg version="1.1" id="Layer_1" xmlns="http://www.w3.org/2000/svg" xmlns:xlink="http://www.w3.org/1999/xlink" x="0px" y="0px"
	 viewBox="0 0 146.4 80" style="enable-background:new 0 0 146.4 80;" xml:space="preserve">
<style type="text/css">
	.st0{fill:#7BCBE2;}
	.st1{fill:#089BC9;}
	.st2{fill:#8F174F;}
	.st3{fill:#C8C4C3;}
	.st4{fill:#B4175E;}
</style>
<g>
	<path class="st0" d="M54,0.25C42.27-1.36,36.31,5.17,28.1,11.17L0.01,33.23l-0.01,0l5.41,2.86c0.01,0.01,0.02,0.01,0.04,0.02
		c7.03,3.46,16.82,2.28,23.48-2.66l11.86-9.42l4.53-3.61l22.6-17.96L54,0.25z"/>
	<path class="st1" d="M0.01,33.23l5.4,2.87c0.01,0,0.02,0.01,0.04,0.02c7.03,3.46,16.82,2.28,23.48-2.66l11.86-9.42l4.54-3.61
		L0.01,33.23z"/>
	<path class="st2" d="M101.96,13.87l-15.08-2.71c0,0-10.5-2.49-19.27,4.3c0,0-6.48,4.82-11.25,8.54l-10.62,8.41L21.18,51.95
		l-0.2,0.16l7.42,3.92c7.04,3.48,16.84,2.3,23.52-2.64l21.97-17.4l17.71-13.95L101.96,13.87z"/>
	<path class="st3" d="M56.37,24c4.77-3.73,11.24-8.54,11.24-8.54c1.66-1.29,3.38-2.24,5.08-2.94l-27.37,7.91l-4.54,3.6l-11.85,9.42
		c-6.66,4.94-16.45,6.12-23.48,2.66c6,3.59,15.31,4.42,29.35,0.24l9.58-2.85l1.38-1.09L56.37,24z"/>
	<path class="st3" d="M94.98,32.38c4.52-3.54,7.93-6.1,11.33-7.62l-30.64,9.82l-1.8,1.42L51.91,53.39
		c-6.67,4.94-16.48,6.13-23.52,2.64c10.81,5.94,27.47,1.57,41.47-3.41l0.84-0.68C70.7,51.95,94.14,32.98,94.98,32.38"/>
	<path class="st3" d="M131,52.11c-12.3-3.57-15.99-1.31-30.47,3.04h0l-1.21,1v0l-0.01,0.01l0.01-0.01l-0.04,0.02L75.94,74.7
		c-6.65,4.93-17.05,5.88-24.08,2.44c8.68,4.53,17.65,3.42,33.01-1.37l61.54-18.89L131,52.11z"/>
	<path class="st2" d="M135.09,26.58l-16.28-2.96c-9.75-1.81-14.36,1.35-23.83,8.76C94.14,32.99,70.7,51.95,70.7,51.95L44.38,73.18
		l7.41,3.92c7.04,3.48,17.49,2.54,24.15-2.41l23.35-18.51l0.03-0.02l-0.01,0.01L135.09,26.58z"/>
	<polygon class="st4" points="44.38,33.5 96.43,18.22 75.67,34.58 20.98,52.11 	"/>
	<polygon class="st4" points="69.86,52.62 126.54,33.65 100.53,55.16 44.38,73.18 	"/>
</g>
</svg>
