<?xml version="1.0" encoding="utf-8"?>
<!-- Generator: Adobe Illustrator 25.4.1, SVG Export Plug-In . SVG Version: 6.00 Build 0)  -->
<svg version="1.1" id="Layer_1" xmlns="http://www.w3.org/2000/svg" xmlns:xlink="http://www.w3.org/1999/xlink" x="0px" y="0px"
	 viewBox="0 0 227.07 80" style="enable-background:new 0 0 227.07 80;" xml:space="preserve">
<style type="text/css">
	.st0{fill:#BD8B13;}
</style>
<g>
	<path class="st0" d="M127.26,7.51l-0.21-0.21l-2.77-2.79l-2.98,3l2.98,3L127.26,7.51z"/>
	<path class="st0" d="M133.44,7.51l-0.43-0.21l-2.77-2.79l-2.98,3l2.98,3L133.44,7.51z"/>
	<path class="st0" d="M92.15,6.86c0,0.64,0.64,0.86,1.06,1.07c0.64,0.21,1.28,0.64,1.28,1.5v23.38h25.75v0.43c0,0.21,0,0.21,0,0.64
		c0,1.93,0.64,3.22,1.7,3.65c0,0,0.64,0.43,1.49,0.43c0.64,0,1.28-0.21,1.92-0.64l0.43-0.21l-0.43-0.43
		c-0.64-0.64-1.06-2.36-1.06-3.43v-0.21h9.58V11.58c0,0-1.28,2.79-5.96,6.22c0,0,0.21,0.86,1.06,1.29c1.28,0.64,1.06,1.29,1.06,1.29
		v8.58h-5.96v-0.43V28.1c0-2.14-0.64-7.29-6.38-7.29h-0.21c-1.7,0-3.4,0-4.68,0h-0.43c-3.4,0-5.11-0.43-5.75-1.29l-0.21-0.43
		l-0.21,0.21c-0.64,0.43-1.06,1.29-1.06,2.14c0,1.29,0.85,3,2.13,3c0.85,0,2.13,0,3.41,0c2.13,0,4.47,0,4.47,0
		c4.68,0,4.89,2.14,4.89,3v1.07H98.32V0c0,0-2.55,3.43-6.17,6.01v0.21V6.86z"/>
	<path class="st0" d="M77.25,36.25c0,0-0.43,3.43,6.6,3.43c5.75,0,5.96-3.65,5.96-3.65v-13.3c0-0.86-0.21-3.22-2.55-3.22h-20v-1.5
		c0-0.43,0.21-0.43,0.64-0.64c1.06-0.64,1.28-1.29,1.06-1.72c-2.34-1.29-4.68-4.29-4.68-4.29v11.58h20h0.21
		c0.64,0,1.49,0.21,1.49,1.5v9.44c0,0,0,1.93-1.92,1.93c-3.19,0-2.98-1.72-2.98-1.72v-5.15H64.27v4.08h13.19v3.22H77.25z"/>
	<path class="st0" d="M160.89,9.44c0-1.07,0.64-1.29,1.06-1.5c0.43-0.21,0.85-0.43,1.06-1.29V6.43c0-0.43-0.21-0.43-0.64-0.64
		c-0.43-0.21-1.06-0.64-2.34-1.72c-2.13-1.72-2.55-2.57-2.55-2.57l-0.64-1.07v32.6h4.04C160.89,32.81,160.89,10.08,160.89,9.44z"/>
	<path class="st0" d="M147.27,37.1l-2.77,2.79l-2.77-2.79l2.77-2.79L147.27,37.1z M138.12,37.1l6.6,6.65l6.6-6.65l-4.04-4.08
		l4.89-5.15V0.43c0,0-1.92,4.08-5.11,6.22v0.21c0,0.64,0.43,0.86,0.85,1.07c0.43,0.21,0.85,0.64,0.85,1.5s0,16.51,0,16.51
		l-4.04,4.29l-4.04-4.29c0-0.21,0-15.87,0-16.51c0-1.07,0.43-1.29,0.85-1.5c0.43-0.21,0.64-0.43,0.85-1.07V6.65
		c-2.98-2.14-5.11-6.22-5.11-6.22v27.88l4.89,4.93L138.12,37.1z"/>
	<path class="st0" d="M126.41,51.47l1.06,0.64c0.21,0.21,0.21,0.21,0.21,0.43v8.58h-18.52l-4.26,5.36V52.55v-0.21l0.21-0.21
		l0.85-0.64v-0.86h-9.36v0.86l0.85,0.64l0.21,0.21v25.52v0.43l-0.21,0.21l-0.85,0.64V80h9.36v-0.86l-1.06-0.64l-0.21-0.21V66.7
		l1.06,0.21l1.28-0.64l0.64-0.21c0,0,0.21,0,0.43,0h19.37v9.01l7.02-7.51v-14.8l0.21-0.21l1.06-0.43v-0.86h-9.36V51.47z"/>
	<path class="st0" d="M226.44,61.98c-1.06-3.43-3.62-6.22-7.45-8.36c-3.4-1.93-8.3-2.79-14.9-2.79h-25.32v0.86l1.06,0.64v3h24.05
		c4.9,0,8.51,0.64,10.64,1.93c3.4,1.93,5.11,4.72,5.11,7.94c0,1.72-0.43,3.22-1.28,4.72c-0.85,1.29-2.34,2.57-4.04,3.43
		c-2.34,1.29-5.96,1.93-10.64,1.93h-12.56v-17.8h-6.81v20.38v0.21l-0.21,0.21l-0.85,0.43v0.86h20.64c4.04,0,7.02-0.21,9.36-0.64
		c2.98-0.64,5.75-1.72,7.88-3.22c2.34-1.5,4.04-3.43,4.89-5.36c0.64-1.5,1.06-3,1.06-4.72C226.86,64.34,226.65,63.06,226.44,61.98z"
		/>
	<path class="st0" d="M148.76,55.98L126.2,79.57h10.43V78.5h-0.43h-0.43h-0.43l17.24-18.23L148.76,55.98z"/>
	<path class="st0" d="M171.53,78.71v1.07h10.21L154.5,50.83l-4.04,4.29l4.47,4.72l4.68,4.72h-7.87l-4.26,4.5l0.85,0.64l1.06-0.64
		h0.21c0,0,0.43,0,0.64,0h13.19l9.15,9.87c0,0-0.21,0.21-0.85,0.21h-0.21V78.71z"/>
	<path class="st0" d="M92.58,52.12l0.85-0.64v-0.86h-9.15v0.86l0.85,0.64l0.43,0.43v25.09v0.43l-0.21,0.21l-1.06,0.43v0.86h9.15
		v-0.86l-0.85-0.43l-0.21-0.21V52.55v-0.21L92.58,52.12z"/>
	<path class="st0" d="M47.03,73.99h-0.43h-1.06l-1.28,0.64c-0.21,0.21-0.43,0.21-0.64,0.21H22.98c-4.68,0-8.3-0.64-10.64-1.93
		c-3.62-1.93-5.32-4.5-5.32-8.15c0-1.5,0.43-3.22,1.49-4.5c1.7-2.57,4.26-4.5,8.09-5.15c1.06-0.21,1.92-0.21,2.55-0.21h10.64
		c0.64,0,0.64,0.21,0.64,0.21l-0.21,0.86h0.85l4.47-5.58H22.77c-2.98,0-5.32,0-6.81,0.21c-0.85,0-1.7,0.21-2.34,0.43
		c-2.13,0.43-4.04,1.29-5.96,2.36c-3.19,1.72-5.32,4.08-6.6,6.65C0.43,61.55,0,63.27,0,65.2c0,4.72,2.55,8.36,7.45,11.15
		c2.13,1.29,4.68,2.14,7.45,2.57c2.13,0.43,4.89,0.43,8.3,0.43h19.15L47.03,73.99z"/>
	<path class="st0" d="M36.6,67.13l4.47-5.58H11.07l-2.98,4.5h27.03c0.43,0,0.64,0.21,0.64,0.21l-0.21,0.86H36.6z"/>
	<path class="st0" d="M38.94,50.62l-4.26,5.36l0.85,0.21h0.21l1.28-0.64c0.43-0.21,0.64-0.43,1.06-0.43h16.6v22.52v0.21l-0.21,0.21
		l-0.85,0.64v0.86h9.36v-0.86l-0.85-0.64l-0.21-0.21v-0.21V55.12h14.68c0.64,0,0.64,0.21,0.64,0.21v0.86h0.85l4.47-5.58H38.94z"/>
</g>
</svg>
