<?xml version="1.0" encoding="utf-8"?>
<!-- Generator: Adobe Illustrator 27.0.0, SVG Export Plug-In . SVG Version: 6.00 Build 0)  -->
<svg version="1.1" id="Layer_1" xmlns="http://www.w3.org/2000/svg" xmlns:xlink="http://www.w3.org/1999/xlink" x="0px" y="0px"
	 viewBox="0 0 200.1 80" style="enable-background:new 0 0 200.1 80;" xml:space="preserve">
<style type="text/css">
	.st0{fill-rule:evenodd;clip-rule:evenodd;fill:#0A3D27;}
</style>
<g>
	<path id="path8" class="st0" d="M112.1,26.4h-7v-3.7h7c0.7,0,1.2,0.3,1.2,1v1.6C113.3,26.1,112.8,26.4,112.1,26.4L112.1,26.4
		L112.1,26.4z M57.5,29.6c-0.3,0-0.6-0.2-0.6-0.6v-1.4h10v-2.7h-10v-1.6c0-0.3,0.2-0.6,0.6-0.6h10.2V20H56.2c-0.8,0-1.5,0.2-2,0.8
		c-0.6,0.6-0.9,1.2-0.9,2v6.5c0,0.8,0.3,1.5,0.9,2.1c0.5,0.5,1.2,0.8,2,0.8h11.5v-2.7H57.5L57.5,29.6z M77.1,29.6L72,20h-4l5.7,10.7
		c0.5,1,1.3,1.5,2.2,1.5h3.7L86.2,20h-4L77.1,29.6L77.1,29.6z M90,29.6c-0.3,0-0.6-0.2-0.6-0.6v-1.4h10.1v-2.7H89.4v-1.6
		c0-0.3,0.2-0.6,0.6-0.6h10.1V20H88.7c-0.8,0-1.5,0.2-2,0.8c-0.6,0.6-0.8,1.2-0.8,2v6.5c0,0.8,0.2,1.5,0.8,2.1
		c0.5,0.5,1.2,0.8,2,0.8h11.4v-2.7H90L90,29.6z M114.9,27.5c1.3-0.2,1.9-0.9,1.9-2.3v-2.3c0-0.8-0.2-1.4-0.8-2
		c-0.6-0.6-1.3-0.8-2.1-0.8h-12.2v12.2h3.5v-3.1h6.1c1.5,0,2.2,0.5,2.2,1.4v1.7h3.5v-2.6C116.9,28.3,116.3,27.5,114.9,27.5
		L114.9,27.5z M125.4,25v2.6h5.5c0.1,0,0.1,0.1,0.1,0.5v0.6c0,0.6-0.3,0.9-0.9,0.9h-7c-0.7,0-1-0.3-1-1v-4.8c0-0.7,0.3-1,1-1h11.2
		c0.2,0,0.3-0.1,0.3-0.2c0-0.2-0.3-0.8-1-1.5c-0.5-0.6-1.3-0.9-2.2-0.9h-10c-0.8,0-1.4,0.2-2,0.8c-0.6,0.6-0.8,1.2-0.8,2v6.5
		c0,0.8,0.2,1.5,0.8,2.1c0.6,0.5,1.2,0.8,2,0.8h10.6c0.7,0,1.4-0.3,2-0.9c0.5-0.5,0.8-1.2,0.8-2V25H125.4L125.4,25z M149.6,27.5
		c1.3-0.2,1.9-0.9,1.9-2.3v-2.3c0-0.8-0.2-1.4-0.8-2c-0.6-0.6-1.3-0.8-2.1-0.8h-12.2v12.2h3.5v-3.1h6.1c1.5,0,2.2,0.5,2.2,1.4v1.7
		h3.5v-2.6C151.6,28.3,151,27.5,149.6,27.5L149.6,27.5L149.6,27.5z M157.4,29.6c-0.5,0-0.7-0.2-0.7-0.6v-1.4h10.1v-2.7h-10.1v-1.6
		c0-0.3,0.2-0.6,0.6-0.6h10.2V20H156c-0.8,0-1.4,0.2-2,0.8c-0.6,0.6-0.8,1.2-0.8,2v6.5c0,0.8,0.2,1.5,0.8,2.1c0.6,0.5,1.2,0.8,2,0.8
		h11.5v-2.7H157.4L157.4,29.6z M172.9,29.6c-0.5,0-0.6-0.2-0.6-0.6v-1.4h10v-2.7h-10v-1.6c0-0.3,0.1-0.6,0.6-0.6h10.1V20h-11.4
		c-0.8,0-1.5,0.2-2.1,0.8c-0.5,0.6-0.8,1.2-0.8,2v6.5c0,0.8,0.3,1.5,0.8,2.1c0.6,0.5,1.3,0.8,2.1,0.8h11.4v-2.7H172.9L172.9,29.6z
		 M196.5,20v7.8l-6.6-6.6c-0.8-0.7-1.6-1.2-2.4-1.2h-2.9v12.2h3.6v-7.8l7.2,7.3c0.4,0.2,0.8,0.5,1.5,0.5h3.3V20H196.5L196.5,20z
		 M146.8,26.4h-7v-3.7h7c0.7,0,1.2,0.3,1.2,1v1.6C148,26.1,147.5,26.4,146.8,26.4L146.8,26.4L146.8,26.4L146.8,26.4z"/>
	<path id="path10" class="st0" d="M18.2,17.8C6.9,19,1.3,21.4,1.3,25.2c0,2,1.4,3.7,4.3,5.1c3,1.5,7.1,2.4,12.6,2.9l0,0
		c-5-2-7.6-4.5-7.6-7.6c0-3.1,2.6-5.7,7.6-7.7V17.8L18.2,17.8L18.2,17.8z M76,57.5c-10.2,0-16.9-0.1-19.8-0.3c1.2,2,3.6,3.7,7.1,5
		C67,63.3,71.2,64,76,64h6.8c-7.3,8.5-16.7,12.8-28.1,12.8c-9.5,0-17.8-3.3-24.8-9.5C22.9,60.9,19,53,18,43.6
		c7,1.3,16.7,1.9,28.8,1.9h56.1l-8.3-8.3c-0.1-1.3-0.2-2.4-0.3-3.7h-3.1c0.2,1.3,0.3,2.4,0.3,3.7H47.6c-15.7,0-27.4-0.8-34.9-2.4
		c-7.3-1.5-11.5-3.6-12.6-6.4C0,29,0,29.6,0,30.2c0,3.4,1.6,6.3,5,8.7c2.7,1.9,5.9,3.3,9.8,4.1c0.8,10.4,5,19.1,12.7,26.3
		C35.2,76.4,44.3,80,54.7,80c6.5,0,12.6-1.4,18.3-4.3c5.5-2.8,10-6.8,13.7-11.6h34.7l-6.4-6.5L76,57.5L76,57.5L76,57.5z M54.6,16.3
		c-8.4,0-15.1,0.9-20.1,2.7c-4.8,1.7-7.1,4-7.1,6.5c0,2.7,2.3,5,7.1,6.8c5.1,1.7,11.8,2.7,20.1,2.7c1.5,0,3.4,0,5.5-0.2l0,0
		c-4.9-0.3-9.1-1.4-12.7-3.1c-3.5-1.7-5.4-3.7-5.4-5.9c0-2.2,1.9-4.2,5.4-5.9c3.6-1.7,7.8-2.8,12.7-3.1l0,0
		C58.2,16.4,56.4,16.3,54.6,16.3L54.6,16.3L54.6,16.3z M53,47.9c-10,0-18.2-0.4-24.5-1c1.3,2.4,4,4.5,8.2,6.1
		c4.3,1.5,9.2,2.3,14.8,2.3h61.3l-7.3-7.3H53L53,47.9z M74.2,5c-6.1-3.4-12.5-5-19.4-5c-7,0-13.4,1.6-19.4,5
		C29.3,8.3,24.6,12.8,21,18.4c-5.7,1.6-8.5,4-8.5,7c0,2.7,2.2,4.9,6.6,6.6c4.8,2,11.2,2.9,19.2,2.9c0.1-0.1,0.1-0.1,0-0.1
		c-3.6-0.8-6.8-2-9.2-3.7c-2.4-1.7-3.6-3.5-3.6-5.5c0-2,1.2-3.8,3.6-5.6c2.4-1.6,5.5-2.8,9.2-3.5c0.1,0,0.1,0,0,0
		c-4.8,0-9.1,0.2-12.8,0.9c3.4-4.4,7.7-8,12.8-10.6S48.9,3,54.7,3c6.1,0,11.8,1.4,17,4.2c5.2,2.7,9.4,6.4,12.9,11.1h3.7
		C84.8,12.6,80.1,8.2,74.2,5L74.2,5L74.2,5z"/>
</g>
</svg>
