<?xml version="1.0" encoding="utf-8"?>
<!-- Generator: Adobe Illustrator 25.4.1, SVG Export Plug-In . SVG Version: 6.00 Build 0)  -->
<svg version="1.1" id="Layer_1" xmlns="http://www.w3.org/2000/svg" xmlns:xlink="http://www.w3.org/1999/xlink" x="0px" y="0px"
	 viewBox="0 0 559.7 80" style="enable-background:new 0 0 559.7 80;" xml:space="preserve">
<style type="text/css">
	.st0{fill:#A28800;}
</style>
<g id="layer1" transform="translate(137.80671,-109.22593)">
	<g id="g48520" transform="translate(0.13229112,-0.13228845)">
		<path id="path47837" class="st0" d="M-137.9,162.4l22.7-1.4c0.5,3.7,1.5,6.5,3,8.4c2.5,3.1,6,4.7,10.6,4.7c3.4,0,6-0.8,7.9-2.4
			c1.8-1.6,2.8-3.5,2.8-5.6c0-2-0.9-3.8-2.6-5.4c-1.8-1.6-5.8-3.1-12.2-4.5c-10.5-2.3-18-5.5-22.4-9.4c-4.5-3.9-6.8-8.9-6.8-14.9
			c0-4,1.2-7.7,3.5-11.3c2.3-3.5,5.8-6.3,10.4-8.3c4.6-2,11-3,19-3c9.9,0,17.4,1.8,22.6,5.5c5.2,3.7,8.3,9.5,9.3,17.6l-22.5,1.3
			c-0.6-3.5-1.9-6-3.8-7.6c-1.9-1.6-4.6-2.4-7.9-2.4c-2.8,0-4.9,0.6-6.3,1.8c-1.4,1.2-2.1,2.6-2.1,4.3c0,1.2,0.6,2.3,1.7,3.3
			c1.1,1,3.8,2,8,2.8c10.4,2.3,17.9,4.5,22.5,6.8c4.5,2.3,7.8,5.2,9.9,8.6c2.1,3.4,3.1,7.2,3.1,11.5c0,5-1.4,9.5-4.1,13.7
			c-2.7,4.2-6.6,7.4-11.5,9.5c-4.9,2.2-11.1,3.3-18.6,3.3c-13.2,0-22.3-2.5-27.3-7.6C-134.4,176.7-137.3,170.3-137.9,162.4"/>
		<path id="path47841" class="st0" d="M-37.6,150.1l-20.5-2.2c0.8-3.6,1.9-6.4,3.4-8.5c1.5-2,3.6-3.8,6.3-5.3c2-1.1,4.7-1.9,8.1-2.5
			c3.4-0.6,7.2-0.9,11.2-0.9c6.4,0,11.6,0.3,15.5,1.1c3.9,0.7,7.2,2.2,9.8,4.5c1.8,1.6,3.3,3.8,4.3,6.7c1.1,2.9,1.6,5.7,1.6,8.3
			v24.8c0,2.6,0.2,4.7,0.5,6.2c0.3,1.5,1.1,3.4,2.2,5.7h-20.2c-0.8-1.5-1.3-2.5-1.6-3.3c-0.2-0.7-0.5-1.9-0.7-3.5
			c-2.8,2.7-5.6,4.6-8.4,5.8c-3.8,1.5-8.2,2.3-13.2,2.3c-6.7,0-11.8-1.5-15.2-4.6c-3.5-3.1-5.2-6.9-5.2-11.4c0-4.3,1.3-7.8,3.8-10.5
			c2.5-2.7,7.1-4.8,13.8-6.1c8.1-1.6,13.3-2.8,15.7-3.4c2.4-0.6,4.9-1.5,7.6-2.6c0-2.6-0.5-4.5-1.6-5.5c-1.1-1.1-3-1.6-5.8-1.6
			c-3.5,0-6.2,0.6-7.9,1.7C-35.6,146.1-36.7,147.7-37.6,150.1 M-18.9,161.4c-2.9,1.1-6,2-9.2,2.8c-4.4,1.2-7.1,2.3-8.3,3.4
			c-1.2,1.2-1.8,2.5-1.8,4c0,1.7,0.6,3.1,1.8,4.1c1.2,1.1,2.9,1.6,5.2,1.6c2.4,0,4.6-0.6,6.7-1.8c2.1-1.2,3.5-2.6,4.4-4.2
			c0.9-1.7,1.3-3.8,1.3-6.5L-18.9,161.4"/>
		<path id="path47845" class="st0" d="M38.9,132h10.2v15.7H38.9V188H17.3v-40.3h-8V132h8v-2.5c0-2.3,0.2-4.8,0.7-7.5
			c0.5-2.8,1.4-5,2.8-6.7c1.3-1.7,3.3-3.2,5.7-4.2c2.5-1.1,6-1.6,10.7-1.6c3.8,0,9.2,0.4,16.4,1.3l-2.4,13c-2.6-0.4-4.7-0.7-6.2-0.7
			c-1.9,0-3.3,0.3-4.2,1c-0.9,0.7-1.4,1.7-1.8,3.1C39,127.9,38.9,129.5,38.9,132"/>
		<path id="path47849" class="st0" d="M75.5,150.1L55,148c0.8-3.6,1.9-6.4,3.4-8.5c1.5-2,3.6-3.8,6.3-5.3c2-1.1,4.7-1.9,8.1-2.5
			c3.4-0.6,7.2-0.9,11.2-0.9c6.5,0,11.6,0.3,15.5,1.1c3.9,0.7,7.2,2.2,9.8,4.5c1.8,1.6,3.3,3.8,4.3,6.7c1.1,2.9,1.6,5.7,1.6,8.3
			v24.8c0,2.6,0.2,4.7,0.5,6.2c0.3,1.5,1.1,3.4,2.2,5.7H97.7c-0.8-1.5-1.3-2.5-1.6-3.3c-0.3-0.7-0.5-1.9-0.7-3.5
			c-2.8,2.7-5.6,4.6-8.4,5.8c-3.8,1.5-8.2,2.3-13.2,2.3c-6.7,0-11.8-1.5-15.2-4.6c-3.5-3.1-5.2-6.9-5.2-11.4c0-4.3,1.3-7.8,3.7-10.5
			c2.5-2.7,7.1-4.8,13.8-6.1c8.1-1.6,13.3-2.8,15.7-3.4c2.4-0.6,4.9-1.5,7.6-2.6c0-2.6-0.5-4.5-1.6-5.5c-1.1-1.1-3-1.6-5.8-1.6
			c-3.5,0-6.2,0.6-7.9,1.7C77.5,146.1,76.4,147.7,75.5,150.1 M94.2,161.4c-3,1.1-6,2-9.2,2.8c-4.4,1.2-7.1,2.3-8.3,3.4
			c-1.2,1.2-1.8,2.5-1.8,4c0,1.7,0.6,3.1,1.8,4.1c1.2,1.1,2.9,1.6,5.2,1.6c2.4,0,4.6-0.6,6.7-1.8c2.1-1.2,3.5-2.6,4.4-4.2
			c0.9-1.7,1.3-3.8,1.3-6.5L94.2,161.4"/>
		<path id="path47853" class="st0" d="M128.3,132h20.1v9.2c1.9-4,3.9-6.7,6-8.2c2.1-1.5,4.6-2.2,7.6-2.2c3.2,0,6.6,1,10.4,2.9
			l-6.6,15.3c-2.5-1.1-4.5-1.6-6-1.6c-2.8,0-5,1.2-6.5,3.5c-2.2,3.3-3.3,9.4-3.3,18.3V188h-21.6"/>
		<path id="path47855" class="st0" d="M176.8,125.3h21.5v-14.6h-21.5V125.3z M176.8,188h21.5v-56h-21.5V188z"/>
		<path id="path47857" class="st0" d="M212.8,188h21.5v-77.4h-21.5V188z"/>
		<path id="path47859" class="st0" d="M248.8,125.3h21.5v-14.6h-21.5V125.3z M248.8,188h21.5v-56h-21.5V188z"/>
		<path id="path47863" class="st0" d="M284,132h20v9.1c3-3.7,6-6.4,9.1-8c3.1-1.6,6.8-2.4,11.2-2.4c5.9,0,10.6,1.8,14,5.3
			c3.4,3.5,5,9,5,16.4V188h-21.6v-30.8c0-3.5-0.6-6-2-7.5c-1.3-1.5-3.1-2.2-5.5-2.2c-2.6,0-4.7,1-6.3,3c-1.6,2-2.4,5.5-2.4,10.6V188
			H284"/>
		<path id="path47867" class="st0" d="M356.1,110.7V188h22v-14.6l8.1-7.9l11.4,22.5h24.2l-21.3-36.4l20.1-19.6h-26.5l-16,18.6v-39.9
			H356.1z"/>
	</g>
</g>
</svg>
