<?xml version="1.0" encoding="utf-8"?>
<!-- Generator: Adobe Illustrator 25.4.1, SVG Export Plug-In . SVG Version: 6.00 Build 0)  -->
<svg version="1.1" id="Layer_1" xmlns="http://www.w3.org/2000/svg" xmlns:xlink="http://www.w3.org/1999/xlink" x="0px" y="0px"
	 viewBox="0 0 136.73 80" style="enable-background:new 0 0 136.73 80;" xml:space="preserve">
<style type="text/css">
	.st0{fill-rule:evenodd;clip-rule:evenodd;fill:#CDDE00;}
</style>
<g>
	<path id="Combined-Shape" class="st0" d="M107.71,43.66c7.58,0,12.03,3.66,12.03,10.72s-3.14,14.9-5.49,18.04
		C55.42,72.42,22.22,80,10.2,80C2.61,80,0,75.56,0,66.67c0-9.93,4.44-18.04,4.44-18.04C60.13,48.63,87.84,43.66,107.71,43.66z
		 M124.71,0c7.58,0,12.03,3.66,12.03,10.72c0,7.06-3.14,14.9-5.49,18.04c-58.82,0-92.03,7.58-104.05,7.58
		c-7.58,0-10.2-4.44-10.2-13.33c0-9.93,4.44-18.04,4.44-18.04C77.12,4.97,104.84,0,124.71,0z"/>
</g>
</svg>
