<?xml version="1.0" encoding="utf-8"?>
<!-- Generator: Adobe Illustrator 25.4.1, SVG Export Plug-In . SVG Version: 6.00 Build 0)  -->
<svg version="1.1" id="Layer_1" xmlns="http://www.w3.org/2000/svg" xmlns:xlink="http://www.w3.org/1999/xlink" x="0px" y="0px"
	 viewBox="0 0 235.99 80" style="enable-background:new 0 0 235.99 80;" xml:space="preserve">
<style type="text/css">
	.st0{fill-rule:evenodd;clip-rule:evenodd;fill:#CDDE00;}
	.st1{fill-rule:evenodd;clip-rule:evenodd;fill:#522D6D;}
</style>
<g>
	<path id="Combined-Shape" class="st0" d="M39.33,55.75c2.77,0,4.39,1.34,4.39,3.91c0,2.58-1.15,5.44-2,6.59
		c-21.48,0-33.6,2.77-38,2.77C0.95,69.02,0,67.4,0,64.15c0-3.63,1.62-6.59,1.62-6.59C21.96,57.57,32.08,55.75,39.33,55.75z
		 M45.54,39.81c2.77,0,4.39,1.34,4.39,3.91s-1.15,5.44-2,6.59c-21.48,0-33.6,2.77-38,2.77c-2.77,0-3.72-1.62-3.72-4.87
		c0-3.63,1.62-6.59,1.62-6.59C28.16,41.62,38.28,39.81,45.54,39.81z"/>
	<path class="st1" d="M94.22,40.1c0.29,0,0.48,0.19,0.57,0.38l5.82,20.33l5.16-18.04c0.48-1.72,1.62-2.67,3.53-2.67h4.49
		c0.38,0,0.67,0.38,0.48,0.76l-10.98,32.65c-0.86,2.39-2,4.11-3.34,5.16C98.62,79.52,96.42,80,93.46,80h-1.53
		c-0.19-0.1-0.48-0.1-0.86-0.19c-0.29,0-0.57-0.1-0.86-0.1v-5.54c0-0.29,0.29-0.57,0.57-0.57h1.53c1.43,0,2.58-0.38,3.44-1.05
		c0.86-0.67,1.05-1.81,0.48-3.34l-9.74-28.35c-0.1-0.38,0.1-0.76,0.48-0.76H94.22z M126.68,39.43c4.11,0,7.16,0.67,9.26,2.1
		c2.1,1.43,3.15,3.53,3.15,6.21v10.02c0,2.96-0.57,5.25-1.62,6.87c-1.05,1.62-2.29,2.86-3.82,3.53c-1.53,0.76-3.15,1.34-4.87,1.53
		s-3.25,0.29-4.58,0.29c-2.67,0-4.96-0.76-6.97-2.1c-2-1.43-2.96-3.82-2.96-7.06c0-3.05,0.86-5.25,2.67-6.59
		c1.81-1.34,4.11-2.2,6.87-2.67c0.38,0,0.76-0.1,1.34-0.19c0.48-0.1,1.15-0.19,1.72-0.29c3.25-0.48,4.87-1.43,4.87-2.86
		c0-1.15-0.57-1.81-1.72-2.1c-1.15-0.29-2.2-0.48-3.15-0.48c-1.05,0-1.91,0.19-2.77,0.48c-0.67,0.29-1.24,0.67-1.62,1.34
		c-0.1,0.19-0.29,0.29-0.48,0.29h-6.4c-0.38,0-0.57-0.29-0.57-0.67c0.38-2,1.43-3.63,2.96-4.96
		C120.19,40.29,122.96,39.43,126.68,39.43z M165.54,31.41c1.05,0,1.91,0.38,2.67,1.15c0.76,0.76,1.15,1.62,1.15,2.58v21.48
		c0,5.25-1.53,8.69-4.49,10.6c-3.05,1.81-6.3,2.77-9.83,2.77c-1.91,0-3.82-0.29-5.63-0.95c-1.81-0.67-3.34-1.62-4.39-3.05
		c-2.1-2.67-3.15-6.4-3.15-11.07c0-4.58,1.05-8.31,3.15-11.07c2.2-2.86,5.06-4.3,8.5-4.3c1.81,0,3.44,0.38,4.87,1.15
		c1.43,0.86,2.67,2,3.53,3.44V31.98c0-0.29,0.29-0.57,0.57-0.57H165.54z M184.82,39.43c4.39,0,7.83,1.34,10.21,4.01
		c2.39,2.67,3.53,6.49,3.53,11.36v1.24c0,0.38-0.1,0.76-0.38,0.76h-18.71c0.1,2.29,0.67,4.01,1.62,5.06
		c0.95,1.15,2.39,1.72,4.3,1.72c1.24,0,2.29-0.29,3.15-0.76c0.19-0.1,0.38-0.19,0.57-0.38c0.19-0.19,0.38-0.38,0.57-0.57
		c0.1-0.19,0.38-0.48,0.86-0.86c0.48-0.38,1.15-0.57,2-0.57h4.77c0.38,0,0.67,0.38,0.57,0.67c-0.86,2.77-2.29,4.87-4.39,6.3
		c-2.29,1.72-5.16,2.58-8.59,2.58c-4.2,0-7.45-1.34-9.83-4.11c-2.39-2.67-3.53-6.4-3.53-11.36c0-4.68,1.15-8.4,3.44-10.98
		C177.37,40.76,180.62,39.43,184.82,39.43z M212.79,39.43c4.11,0,7.16,0.67,9.26,2.1c2.1,1.43,3.15,3.53,3.15,6.21v10.02
		c0,2.96-0.57,5.25-1.62,6.87c-1.05,1.62-2.29,2.86-3.82,3.53c-1.53,0.76-3.15,1.34-4.87,1.53c-1.72,0.19-3.25,0.29-4.58,0.29
		c-2.67,0-4.96-0.76-6.97-2.1c-2-1.43-2.96-3.82-2.96-7.06c0-3.05,0.86-5.25,2.67-6.59c1.81-1.34,4.11-2.2,6.87-2.67
		c0.38,0,0.76-0.1,1.34-0.19c0.48-0.1,1.15-0.19,1.72-0.29c3.25-0.48,4.87-1.43,4.87-2.86c0-1.15-0.57-1.81-1.72-2.1
		s-2.2-0.48-3.15-0.48c-1.05,0-1.91,0.19-2.77,0.48c-0.67,0.29-1.24,0.67-1.62,1.34c-0.1,0.19-0.29,0.29-0.48,0.29h-6.4
		c-0.38,0-0.57-0.29-0.57-0.67c0.38-2,1.43-3.63,2.96-4.96C206.3,40.29,209.16,39.43,212.79,39.43z M69.12,31.41
		c0.76,0,1.34,0,1.72,0.1c0.57,0,0.95,0,1.34,0.1c0.29,0,0.48,0.29,0.48,0.57v4.96c0,0.29-0.29,0.57-0.57,0.57h-1.43
		c-1.05,0-1.72,0.19-2.2,0.48c-0.38,0.29-0.57,0.86-0.57,1.72v2h4.2c0.29,0,0.57,0.29,0.57,0.57v1.05c0,1.15-0.38,2-1.15,2.67
		c-0.76,0.67-1.62,1.05-2.58,1.05h-1.15v21.58c0,0.29-0.29,0.57-0.57,0.57h-6.4c-0.29,0-0.57-0.29-0.57-0.57V39.24
		c0-2.67,0.67-4.58,2.1-5.92C63.87,31.98,66.06,31.41,69.12,31.41z M79.71,31.5c1.05,0,1.91,0.38,2.67,1.05
		c0.76,0.67,1.15,1.53,1.15,2.58v33.7c0,0.29-0.29,0.57-0.57,0.57h-6.59c-0.29,0-0.57-0.29-0.57-0.57V32.08
		c0-0.29,0.29-0.57,0.57-0.57H79.71z M232.08,31.5c1.05,0,1.91,0.38,2.67,1.05c0.76,0.67,1.15,1.53,1.15,2.58v33.7
		c0,0.29-0.29,0.57-0.57,0.57h-6.59c-0.29,0-0.57-0.29-0.57-0.57V32.08c0-0.29,0.29-0.57,0.57-0.57H232.08z M131.93,54.61
		c-1.05,0.48-2.48,0.95-4.3,1.43l-2.58,0.57c-1.34,0.38-2.29,0.86-2.86,1.43c-0.48,0.76-0.76,1.62-0.76,2.39
		c0,1.15,0.29,2,0.95,2.67c0.67,0.57,1.62,0.86,2.86,0.86c2.1,0,3.63-0.57,4.87-1.72c1.15-1.15,1.72-2.77,1.72-4.87L131.93,54.61
		L131.93,54.61z M218.14,54.61c-1.05,0.48-2.48,0.95-4.3,1.43l-2.58,0.57c-1.34,0.38-2.29,0.86-2.86,1.43
		c-0.48,0.76-0.76,1.62-0.76,2.39c0,1.15,0.29,2,0.95,2.67c0.67,0.57,1.62,0.86,2.86,0.86c2.1,0,3.63-0.57,4.87-1.72
		c1.15-1.15,1.72-2.77,1.72-4.87L218.14,54.61L218.14,54.61z M155.32,46.01c-1.91,0-3.44,0.76-4.49,2.29
		c-1.15,1.43-1.62,3.53-1.62,6.21c0,2.96,0.57,5.16,1.62,6.68c1.15,1.53,2.67,2.29,4.77,2.29c2,0,3.53-0.76,4.58-2.29
		c1.05-1.53,1.53-3.82,1.53-6.68c0-2.67-0.57-4.77-1.62-6.3C158.95,46.78,157.33,46.01,155.32,46.01z M185.01,45.82
		c-1.62,0-2.96,0.48-4.01,1.53c-1.05,1.05-1.62,2.48-1.62,4.39h11.26c-0.19-2-0.67-3.44-1.53-4.39
		C188.16,46.3,186.73,45.82,185.01,45.82z M189.21,16.52c0.19,0,0.29,0.1,0.29,0.29l0,0v8.4c0,1.15-0.19,2.1-0.57,2.96
		c-0.38,0.86-0.86,1.53-1.43,2c-0.57,0.48-1.34,0.86-2.2,1.15c-0.86,0.29-1.72,0.38-2.77,0.38c-0.95,0-1.81-0.1-2.67-0.38
		c-0.86-0.29-1.62-0.67-2.2-1.15c-0.67-0.48-1.15-1.24-1.53-2c-0.38-0.86-0.57-1.81-0.57-2.96c0-0.95,0.1-1.81,0.38-2.86
		c0.29-0.95,0.67-1.81,1.15-2.58c0.1-0.1,0.19-0.1,0.38-0.1l0,0l2.96,0.95c0.1,0,0.1,0.1,0.19,0.19c0,0.1,0,0.1,0,0.19
		c-0.29,0.48-0.48,1.05-0.67,1.72c-0.19,0.67-0.29,1.34-0.29,2.2c0,0.67,0.1,1.15,0.29,1.62c0.19,0.48,0.38,0.76,0.76,1.05
		c0.29,0.29,0.67,0.48,1.05,0.57c0.38,0.1,0.76,0.19,1.15,0.19c0.95,0,1.62-0.29,2.2-0.76c0.57-0.57,0.76-1.34,0.76-2.48l0,0v-6.59
		c0-1.05,0.86-2,2-2l0,0H189.21z M138.42,7.16c0.19,0,0.29,0.1,0.29,0.29l0,0V21c0,0.48,0.19,0.86,0.57,1.05
		c0.38,0.29,0.86,0.38,1.53,0.38l0,0h0.67l0,0l0,0l0,0h1.72c0.48,0,0.76-0.1,1.05-0.29c0.19-0.19,0.29-0.57,0.29-1.15l0,0v-4.77
		c0-1.05,0.86-2,2-2l0,0h1.62c0.19,0,0.29,0.1,0.29,0.29l0,0v7.83c0,1.15-0.29,2.1-0.76,2.58c-0.48,0.57-1.34,0.86-2.48,0.86l0,0
		h-3.72l0,0l0,0c-0.57,0-1.15-0.1-1.53-0.19c-0.48-0.1-0.86-0.29-1.15-0.67l0,0v0.29c0,1.15-0.19,2.1-0.57,2.96
		c-0.38,0.86-0.86,1.53-1.43,2c-0.67,0.48-1.34,0.86-2.2,1.15c-0.86,0.29-1.72,0.38-2.77,0.38c-0.95,0-1.81-0.1-2.67-0.38
		c-0.86-0.29-1.62-0.67-2.2-1.15c-0.67-0.48-1.15-1.24-1.53-2c-0.38-0.86-0.57-1.81-0.57-2.96c0-0.95,0.1-1.81,0.38-2.77
		c0.29-0.95,0.67-1.81,1.15-2.67c0.1-0.1,0.19-0.1,0.38-0.1l0,0l2.96,0.95c0.1,0,0.1,0.1,0.19,0.19c0,0.1,0,0.1,0,0.19
		c-0.29,0.48-0.48,1.05-0.67,1.72c-0.19,0.67-0.29,1.34-0.29,2.2c0,0.67,0.1,1.15,0.29,1.62c0.19,0.48,0.38,0.76,0.76,1.05
		c0.29,0.29,0.67,0.48,1.05,0.57c0.38,0.1,0.76,0.19,1.15,0.19c0.95,0,1.62-0.29,2.2-0.76c0.57-0.57,0.76-1.34,0.76-2.48l0,0V9.07
		c0-1.05,0.86-2,2-2l0,0L138.42,7.16L138.42,7.16z M223.01,7.16c0.19,0,0.29,0.1,0.29,0.29l0,0v7.73c0.86-0.38,1.72-0.67,2.77-0.95
		c0.95-0.29,2-0.38,3.15-0.38c2.2,0,3.91,0.57,5.06,1.62s1.72,2.77,1.72,4.96c0,1.15-0.1,2-0.29,2.67
		c-0.19,0.67-0.57,1.24-0.95,1.62c-0.48,0.38-1.05,0.67-1.81,0.86c-0.76,0.19-1.62,0.19-2.67,0.19l0,0h-6.49
		c-0.76,0-1.24-0.19-1.53-0.57c-0.29,0.29-0.67,0.48-1.15,0.48c-0.48,0.1-1.05,0.1-1.72,0.1l0,0h-2.48l0,0l0,0
		c-0.67,0-1.34-0.1-1.81-0.29c-0.48-0.19-0.95-0.57-1.24-1.15c-0.29,0.57-0.76,0.95-1.34,1.15c-0.57,0.19-1.34,0.29-2.39,0.29l0,0
		h-2.86l0,0l0,0c-0.57,0-1.15-0.1-1.53-0.19c-0.48-0.1-0.86-0.38-1.15-0.76l0,0v0.48c0,2.1-0.38,3.63-1.24,4.58
		c-0.76,0.95-2.2,1.53-4.11,1.53l0,0H198c-0.19,0-0.29-0.1-0.29-0.29l0,0v-2.77c0-0.19,0.1-0.29,0.29-0.29l0,0h0.57
		c0.48,0,0.86-0.1,1.15-0.19c0.29-0.19,0.48-0.38,0.57-0.67c0.1-0.29,0.19-0.67,0.29-1.15c0-0.48,0.1-0.95,0.1-1.53l0,0v-8.31
		c0-1.05,0.86-2,2-2l0,0h1.62c0.19,0,0.29,0.1,0.29,0.29l0,0V21c0,0.48,0.19,0.86,0.57,1.05c0.38,0.29,0.86,0.38,1.53,0.38l0,0h0.57
		l0,0l0,0l0,0h1.72c0.57,0,0.95-0.19,1.15-0.48c0.19-0.38,0.19-0.95,0.19-1.72l0,0v-4.01c0-1.05,0.86-2,2-2l0,0h1.62
		c0.19,0,0.29,0.1,0.29,0.29l0,0V21c0,0.48,0.19,0.86,0.57,1.05c0.38,0.29,0.86,0.38,1.53,0.38l0,0h0.67l0,0l0,0h1.15
		c0.29,0,0.57-0.1,0.76-0.19c0.19-0.19,0.29-0.38,0.38-0.57c0.1-0.29,0.19-0.57,0.19-0.86c0-0.38,0-0.67,0-1.05l0,0V9.45
		c0-1.43,0.76-2.29,2.29-2.29l0,0C221.77,7.16,223.01,7.16,223.01,7.16z M215.56,28.16c0.19,0,0.29,0.1,0.29,0.29l0,0v2.67
		c0,0.19-0.1,0.29-0.29,0.29l0,0h-2.77c-0.19,0-0.29-0.1-0.29-0.29l0,0v-2.67c0-0.19,0.1-0.29,0.29-0.29l0,0H215.56z M211.26,28.16
		c0.19,0,0.29,0.1,0.29,0.29l0,0v2.67c0,0.19-0.1,0.29-0.29,0.29l0,0h-2.77c-0.19,0-0.29-0.1-0.29-0.29l0,0v-0.95c0-1.05,0.86-2,2-2
		l0,0C210.21,28.16,211.26,28.16,211.26,28.16z M145.2,28.16c0.19,0,0.29,0.1,0.29,0.29l0,0v2.67c0,0.19-0.1,0.29-0.29,0.29l0,0
		h-2.77c-0.19,0-0.29-0.1-0.29-0.29l0,0v-0.95c0-1.05,0.86-2,2-2l0,0C144.15,28.16,145.2,28.16,145.2,28.16z M149.5,28.16
		c0.19,0,0.29,0.1,0.29,0.29l0,0v2.67c0,0.19-0.1,0.29-0.29,0.29l0,0h-2.77c-0.19,0-0.29-0.1-0.29-0.29l0,0v-2.67
		c0-0.19,0.1-0.29,0.29-0.29l0,0H149.5z M196.37,7.16c0.19,0,0.29,0.1,0.29,0.29l0,0v18.14c0,0.19-0.1,0.29-0.29,0.29l0,0h-3.34
		c-0.19,0-0.29-0.1-0.29-0.29l0,0V9.07c0-1.05,0.86-2,2-2l0,0L196.37,7.16L196.37,7.16z M169.07,7.16c0.19,0,0.29,0.1,0.29,0.29l0,0
		v18.14c0,0.19-0.1,0.29-0.29,0.29l0,0h-3.34c-0.19,0-0.29-0.1-0.29-0.29l0,0V9.07c0-1.05,0.86-2,2-2l0,0L169.07,7.16L169.07,7.16z
		 M157.61,13.84c1.53,0,2.77,0.38,3.63,1.15c0.86,0.76,1.24,2,1.24,3.72v2.39c0,0.86-0.1,1.62-0.29,2.29
		c-0.19,0.57-0.38,1.05-0.76,1.43c-0.38,0.38-0.76,0.57-1.24,0.76c-0.48,0.19-1.15,0.19-1.81,0.19h-6.68c-0.19,0-0.29-0.1-0.29-0.29
		v-1.05c0-1.05,0.86-2,2-2h3.05c0.48,0,0.86,0,1.05-0.1c0.29-0.1,0.48-0.19,0.57-0.29c0.1-0.19,0.19-0.38,0.29-0.57
		c0-0.19,0.1-0.57,0.1-0.86v-1.53c0-0.67-0.19-1.24-0.57-1.53c-0.38-0.29-1.05-0.48-1.81-0.48h-3.15c-0.19,0-0.29-0.1-0.29-0.29
		v-2.77c0-0.19,0.1-0.29,0.29-0.29L157.61,13.84L157.61,13.84z M228.35,17.09c-0.95,0-1.81,0.1-2.77,0.38
		c-0.86,0.29-1.72,0.57-2.39,0.86l0,0v3.05c0,0.38,0,0.76-0.1,1.05l0,0h5.44c0.67,0,1.24,0,1.62-0.1c0.48,0,0.76-0.1,1.05-0.29
		c0.19-0.19,0.38-0.38,0.48-0.67c0.1-0.29,0.1-0.76,0.1-1.34c0-0.48-0.1-0.95-0.19-1.34c-0.1-0.38-0.29-0.67-0.57-0.95
		s-0.67-0.48-1.05-0.57C229.69,17.18,229.12,17.09,228.35,17.09z M184.34,11.07c0.19,0,0.29,0.1,0.29,0.29l0,0v2.67
		c0,0.19-0.1,0.29-0.29,0.29l0,0h-2.77c-0.19,0-0.29-0.1-0.29-0.29l0,0v-0.95c0-1.05,0.86-2,2-2l0,0H184.34z M167.92,0
		c0.57,0,1.05,0.1,1.53,0.29c0.38,0.19,0.76,0.48,0.95,0.76c0.1,0.1,0,0.19,0,0.29l-0.86,0.86c-0.1,0.1-0.19,0.1-0.29,0
		c-0.38-0.38-0.76-0.67-1.24-0.67c-0.38,0-0.67,0.1-0.86,0.29c-0.19,0.19-0.29,0.48-0.29,0.86c0,0.29,0.1,0.57,0.29,0.86
		c0.19,0.19,0.38,0.38,0.57,0.57h2.77c0.1,0,0.19,0.1,0.19,0.19v1.24c0,0.1-0.1,0.19-0.19,0.19h-6.11c-0.1,0-0.19-0.1-0.19-0.19
		V5.35c0-0.76,0.48-1.15,1.15-1.15h0.1c-0.1-0.19-0.19-0.38-0.29-0.67c-0.1-0.19-0.1-0.48-0.1-0.76s0.1-0.67,0.19-0.95
		c0.1-0.29,0.29-0.67,0.57-0.86c0.19-0.29,0.57-0.48,0.95-0.67C166.97,0.1,167.35,0,167.92,0z"/>
</g>
</svg>
