<?xml version="1.0" encoding="utf-8"?>
<!-- Generator: Adobe Illustrator 25.4.1, SVG Export Plug-In . SVG Version: 6.00 Build 0)  -->
<svg version="1.1" xmlns="http://www.w3.org/2000/svg" xmlns:xlink="http://www.w3.org/1999/xlink" x="0px" y="0px"
	 viewBox="0 0 80.8 80" style="enable-background:new 0 0 80.8 80;" xml:space="preserve">
<style type="text/css">
	.st0{fill:#0C0C11;}
	.st1{fill:#F47C00;}
</style>
<g id="Layer_1">
	<path class="st0" d="M-238.6-885.5c-0.7-0.1-1.8,0-2.5,0c0.5-0.4,1.2-0.7,1.6-0.5c0.1,0,0.1,0,0.2,0.1
		C-239.1-885.8-238.8-885.6-238.6-885.5z"/>
	<g id="text835">
	</g>
</g>
<g id="Layer_2">
	<path class="st1" d="M4.5,56.1l12.9,6.7l7,13.2l5.7-5.9l-1-11.7l14.2-14.8L62.5,80l7.3-7.3L58.7,29.2L79.3,8.1c0,0,3-4.4,0.5-6.9
		s-6.7-0.4-8.5,1.4c-1.8,1.8-19.8,19.4-19.8,19.4L7.3,10L0,17.7l36.2,18.9l-14.9,15L10,50.1L4.5,56.1z"/>
</g>
</svg>
