<?xml version="1.0" encoding="utf-8"?>
<!-- Generator: Adobe Illustrator 25.4.1, SVG Export Plug-In . SVG Version: 6.00 Build 0)  -->
<svg version="1.1" xmlns="http://www.w3.org/2000/svg" xmlns:xlink="http://www.w3.org/1999/xlink" x="0px" y="0px"
	 viewBox="0 0 542.6 80" style="enable-background:new 0 0 542.6 80;" xml:space="preserve">
<style type="text/css">
	.st0{fill:#0C0C11;}
	.st1{fill:#F47C00;}
	.st2{fill:#004C9E;}
</style>
<g id="Layer_1">
	<path class="st0" d="M-238.6-885.5c-0.7-0.1-1.8,0-2.5,0c0.5-0.4,1.2-0.7,1.6-0.5c0.1,0,0.1,0,0.2,0.1
		C-239.1-885.8-238.8-885.6-238.6-885.5z"/>
	<g id="text835">
	</g>
</g>
<g id="Layer_2">
	<g>
		<path class="st1" d="M66.1,72.1c-0.9,0.2-4.8,1.2-5.3-1.9c-0.5-3.1-9.7-57.5-9.7-57.5s-0.4-4-3.3-2.9C45,10.8,35,14.5,35,14.5
			s-0.9,1.6,0.8,1.1c1.7-0.5,1.5,1.5,0,3.9C34.4,22,0.5,76.8,0.5,76.8s-1.9,3.2,2.2,2.1C6.8,77.7,14,73.9,14,73.9s0.8-1.8-1.5-1.1
			c0,0-1.4,0.6,0-1.7c1.4-2.3,8.5-15.7,8.5-15.7h11.6c0,0,7.6-0.1,10.1-4.2l2.9,24.5c0,0,0.6,3.7,5.2,3c4.6-0.7,16.3-6.2,16.3-6.2
			S67,71.8,66.1,72.1z M41.6,49.2c-1,0-14.3,0-14.3,0s-2.1-0.4-1-2.2l12.9-22l3.2,23.5C42.4,48.4,42.6,49.2,41.6,49.2z"/>
		<path class="st1" d="M85.1,29.2L64,39.9c0,0-1.5,1.5,0,1.1c1.5-0.5,8.5-3.7,8.5-3.7s5.4-1.5,4.1,4.4c-1.3,6-6.8,30.5-6.8,30.5
			s-2.4,8.7,5.4,6.5s21.1-10.7,21.1-10.7s0.6-1.1-0.5-0.7c-1.1,0.4-7.4,3.7-7.4,3.7s-5.6,2.1-4.7-3.7s7.2-34,7.2-34
			S90.7,26.4,85.1,29.2z"/>
		<path class="st1" d="M78,13.9c0,0-1,0.5,0,1.5c1,1,4.1,5,10.7,3c6.5-2.1,14.4-6.5,14.4-6.5s0.3-1.1-1.4-0.4s-5.9,1.6-8.2,0.2
			S90.7,7.6,90.4,7S78,13.9,78,13.9z"/>
		<path class="st1" d="M93.9,40.1c0,0-1.2,1.3,0,1.1c1.2-0.1,6.6-3.2,8.5-3.6c1.9-0.4,4.1,0,3.5,3.6s-7.7,37.9-7.7,37.9
			s-0.2,1.5,1.8,0.5c2.1-1,11.5-6.6,11.5-6.6s0.8-0.6,1.3-3.1c0.5-2.5,3.4-17.4,4.2-19.3c0.8-1.9,4.5-6.5,7.8-8.5s7.6-2.5,9.4-1.9
			c1.9,0.6,1.8,1.7,2.5,1c0.6-0.6,7.6-9.7,7.6-9.7s0.2-2.6-4.4-2.6c0,0-10.8-0.7-20.8,16.8c0,0-2.5,3.1-2.1,0.3
			c0.4-2.9,4.1-13.6,2.5-16.1C117.8,27.3,101.4,35,93.9,40.1z"/>
		<path class="st2" d="M271.6,66.2c-2.3,0.9-5.5,2.9-7.5,3.7c-2,0.8-4.6,0.3-3.4-5.4c1.2-5.7,7.6-34,7.6-34s0.3-1.2-2.2-1.5
			c-2.6-0.3-16.8-1.5-28.9,6.8c-12,8.3-18.6,20.2-20.5,31.4c0,0-11.3,7.1-9.6-1.5c1.7-8.7,13-62.8,13-62.8s0.7-4.5-4.4-2.1
			c-5.1,2.4-16.9,7.9-16.9,7.9h-37l-15.9,6.6c0,0-0.3,0.6,0.9,0.6s7.6,0,7.6,0l-11.9,59.3c0,0-0.7,4.1,2.4,2.9
			c3.1-1.2,14.9-6.4,14.9-6.4s0.7-0.9-0.6-0.9c0,0-2.7,0.5-2.1-2.4c0.5-2.9,4.5-23.9,4.5-23.9h15.2c0,0,12.9-0.9,18-5.9h-31.9
			l4.6-22.7h17.4l18-6.9c0,0,4.2-1.7,3.3,3s-11.8,58.7-11.9,60c-0.1,1.4-1.4,8,7.3,4.7c8.7-3.3,15.3-7.8,15.3-7.8s-0.3,9.4,6.2,9.4
			c6.5,0,18.5-8.5,23.5-13.9c5.1-5.4,3.2-1.3,2.5,0.8c-0.7,2.1-3.8,12.6,1.6,12.6c5.4,0,21.7-10.3,21.7-10.3S273.9,65.2,271.6,66.2z
			 M254.4,37.2l-5.1,22.4c-8.4,9.6-15.5,8.9-15.5,8.9c-9-0.7,1.7-24.7,5.8-29.4c4-4.7,10-4,12.8-3.9
			C255.2,35.3,254.4,37.2,254.4,37.2z"/>
		<path class="st2" d="M494.6,27.6c-4.9,0.3-35.8,6.1-37.1,38.9c0,0-4.1,2.2-5.9,2.8c-1.8,0.6-7,2.8-5-4.9c2.1-7.7,6.7-27.7,7-30.4
			c0.3-2.7,0.2-6.5-5-6.9c-5.2-0.3-22.2,13.2-26.7,18c0,0,2.7-12.1,2.5-14c-0.3-1.9-0.5-4.7-6.1-2.6c-5.6,2.1-16.9,7.7-16.9,7.7
			s3.5-12.9-13.6-7.3c-17.1,5.6-23.6,18.9-26,24.5c-2.4,5.6-2.6,12.8-2.6,12.8s-10.8,7-10.4,0.3c0.4-6.7,6.4-27.7,6.7-33
			c0.3-5.2-5-8.3-13.1-3.2c-8.2,5.2-17.5,14.1-18.4,14.4c-0.9,0.3-1.1,0.1-0.2-2.7c0.9-2.8,4.6-14.9-3.6-14.3
			c-8.2,0.7-24,15.9-24.7,16.3c-0.7,0.4-2.4,1.5-0.9-2.9c1.5-4.4,5.5-16-2.8-13.1s-22,10.7-21,11.7c0,0,0.3,0.9,1.8,0
			c1.4-0.9,6.1-3.7,7.8-3.8c1.8-0.1,3.9,0.4,2.6,6.4c-1.3,6-7.6,34.9-7.6,34.9s-0.4,2.2,1.7,1c2.1-1.2,12.5-8.1,12.5-8.1
			s4.4-22.7,4.5-22.8c0.2-0.1,9.7-8.8,12.7-10.3c3-1.5,6.9-2,5.5,4.6c-1.4,6.6-7.7,35.8-7.7,35.8s-0.5,1.1,1.1,0.6
			c1.6-0.6,12.4-7.1,12.4-7.1l4.9-23.4c0,0,11.3-11.5,15.7-11.5s2.5,6.8,1.3,12.5c-1.2,5.7-4.6,20.3-4.9,22.6
			c-0.3,2.3-1.4,7.6,5.8,6s18.2-8.8,18.2-8.8s1.5,9.7,10.2,9.7c8.7,0,21.2-8.1,22.4-8.9c1.1-0.8,0.6-1.7-0.6-1.5
			c-0.2,0-4.2,3.2-10.3,3.2c-6.1,0-9.4-6.2-7.8-17.6c0,0,15-1.5,21-5.9c6-4.4,6.9-9,6.9-9s7.5-4.6,9.2-1.4c1.7,3.2-7,40.3-7,40.3
			s-0.9,2,1,1.1s12.6-7.6,12.6-7.6s0.7-0.1,1.1-2.4c0.4-2.2,4.3-21.6,4.3-21.6s9.8-8.5,12.7-10c2.9-1.5,6.2-2.1,5.2,3.6
			s-7.3,32.5-7.3,32.5s-1.5,5.6,4.2,5c5.7-0.6,20.9-9.4,20.9-9.4s1.5,9.6,10.6,9.6c9.1-0.1,21.6-9.4,22.3-10.3
			c0.8-0.9-0.3-1.5-0.9-0.9c-0.6,0.5-3.8,4-10.4,4s-9.5-8.8-8.5-16c1-7.2,5.7-18.6,12.8-19.5c7.1-0.9,8.8,0.2,8.9,1.2
			c0.1,1,0.6,2.1,1.2,1.1c0.6-1,6.6-8.4,6.6-8.4S499.5,27.3,494.6,27.6z M384.7,48.5c0,0-6.8,1.9-10.5,0c-0.1-0.1,4.4-14.3,9.9-15.1
			C389.5,32.7,395.6,39.1,384.7,48.5z"/>
		<path class="st2" d="M537.6,30.1c-6.9-4.9-16.5-1.2-23.1,2.3c0,0-22,11.3-22,31.8c0,20.4,24,13.1,31.5,7.7
			c6.6-4.7,12.8-10.7,16.1-18.2C543.1,46.7,544.6,35.1,537.6,30.1z M528.6,50.1c-0.6,5.3-1.7,10.9-4.3,15.7c-1.3,2.5-3.6,4.9-6.7,5
			c-2.4,0.1-5-0.4-7-1.9c-3.5-2.6-4.3-7.2-4.3-11.3c0-4,0.7-7.9,2-11.7c1.2-3.5,3-8,6.3-9.9c1.2-0.7,2.7-1.1,4.4-0.9
			C526.9,35.9,529.4,43.3,528.6,50.1z"/>
	</g>
</g>
</svg>
