<?xml version="1.0" encoding="utf-8"?>
<!-- Generator: Adobe Illustrator 25.4.1, SVG Export Plug-In . SVG Version: 6.00 Build 0)  -->
<svg version="1.1" id="Layer_2" xmlns="http://www.w3.org/2000/svg" xmlns:xlink="http://www.w3.org/1999/xlink" x="0px" y="0px"
	 viewBox="0 0 79.55 80.27" style="enable-background:new 0 0 79.55 80.27;" xml:space="preserve">
<style type="text/css">
	.st0{fill:#1B3B5E;}
</style>
<g>
	<path class="st0" d="M75.65,9.99c0.16,7.02-4.46,9.96-9.96,9.96s-9.96-4.46-9.96-9.96s4.48-9.52,9.96-9.96
		C72.07-0.47,75.52,4.5,75.65,9.99z"/>
	<path class="st0" d="M0.21,12.55c0,0-1.66,3.19,4.34,6.25s33.57,16.08,37.53,18.51s9.57,7.02,9.32,10.85
		c-0.26,3.83-0.89,10.47-6,19.02s-5.87,12.12-5.23,12.7s7.4-0.57,15.57-9.63S74.5,49.11,76.29,46.27c1.79-2.84,4.6-10.37,2.55-13.56
		c-2.04-3.19-8.17-7.4-19.66-9.96s-22.47-5.62-26.81-6.89c-4.34-1.28-20.93-4.85-24.64-5.23S1.87,10.25,0.21,12.55z"/>
</g>
</svg>
