<?xml version="1.0" encoding="utf-8"?>
<!-- Generator: Adobe Illustrator 25.4.1, SVG Export Plug-In . SVG Version: 6.00 Build 0)  -->
<svg version="1.1" id="Layer_2" xmlns="http://www.w3.org/2000/svg" xmlns:xlink="http://www.w3.org/1999/xlink" x="0px" y="0px"
	 viewBox="0 0 191.17 80.27" style="enable-background:new 0 0 191.17 80.27;" xml:space="preserve">
<style type="text/css">
	.st0{fill:#1B3B5E;}
</style>
<g>
	<path class="st0" d="M69.94,15.28c0.15,6.49-4.12,9.2-9.2,9.2s-9.2-4.12-9.2-9.2s4.14-8.8,9.2-9.2
		C66.64,5.6,69.82,10.19,69.94,15.28z"/>
	<path class="st0" d="M0.19,17.64c0,0-1.53,2.95,4.01,5.78s31.04,14.87,34.7,17.11s8.85,6.49,8.61,10.03s-0.83,9.68-5.55,17.58
		s-5.43,11.21-4.84,11.74c0.59,0.53,6.84-0.53,14.4-8.91s17.35-19.54,19-22.16s4.25-9.59,2.36-12.54s-7.55-6.84-18.17-9.2
		s-20.77-5.19-24.78-6.37s-19.35-4.48-22.78-4.84S1.73,15.51,0.19,17.64z"/>
	<path class="st0" d="M77.85,60.77H94.9l9.91-30.74h7.73l4.01-11.03h-8.2c0,0,1.36-3.54,1.95-4.54s1.12-1.59,3.36-2.01
		s4.84-0.35,5.43-3.01s2.12-9.4,2.12-9.4h-9.5c0,0-12.8-1.34-17.35,12.11S77.85,60.77,77.85,60.77z"/>
	<path class="st0" d="M132.13,62.66c0,0,2.12-0.65,3.01-4.37s1-6.25,1-6.25s-3.25,0.12-4.72-0.53s-0.94-1-0.35-3.07
		s14.28-48.4,14.28-48.4H129c0,0-13.63,43.56-15.58,51.17s-0.71,10.56,6.67,11.15S132.13,62.66,132.13,62.66z"/>
	<path class="st0" d="M151.07,64.16h9.2c0,0-0.35,6.02-8.23,5.84h-2.74l-4.78,10h16.99c0,0,13.63,0.45,20.45-21.33
		c6.82-21.77,9.2-37.44,9.2-37.44h-15.75c0,0-6.64,24.1-7.57,26.61c-0.93,2.51-3.32,5.7-5.62,5.61s-2.04-5.22-1.24-8.94
		c0.8-3.72,6.11-23.28,6.11-23.28h-15.67c0,0-6.11,20.98-8.14,29.92C141.25,60.09,143.37,64.16,151.07,64.16z"/>
	<path class="st0" d="M85.71,66.33h-2.08l-8.1,13.28h2.12l2.21-3.76h5.75l0.75,3.76h1.68L85.71,66.33z M80.71,74.34l3.63-6.42
		l0.93,6.42H80.71z"/>
	<polygon class="st0" points="89.74,79.61 91.46,79.61 93.67,70 92.13,70 	"/>
	<path class="st0" d="M94.25,79.61h1.5l1.33-5.27c0,0,1.33-3.67,3.98-2.83l0.8-1.33c0,0-2.26-1.33-4.2,1.59l0.4-1.77h-1.55
		L94.25,79.61z"/>
	<path class="st0" d="M109.83,79.61h1.5l1.33-5.27c0,0,1.9-3.85,4.56-3.01l0.8-1.33c0,0-2.83-1.15-4.78,1.77l0.4-1.77h-1.55
		L109.83,79.61z"/>
	<polygon class="st0" points="100.89,79.61 102.39,79.61 105.4,66.33 103.9,66.33 	"/>
	<polygon class="st0" points="92.48,67.92 94.03,67.92 94.43,66.33 92.95,66.33 	"/>
	<polygon class="st0" points="105.14,79.61 106.86,79.61 109.07,70 107.53,70 	"/>
	<polygon class="st0" points="107.88,67.92 109.43,67.92 109.83,66.33 108.35,66.33 	"/>
	<path class="st0" d="M117.22,71.33c0,0,1.11,0.32,0.55,2.68s-1.42,5.59-1.42,5.59h1.57c0,0,1.41-5.62,1.55-6.42s0.06-2.3-1.46-3.19
		l-0.9,0.24L117.22,71.33z"/>
	<path class="st0" d="M130.66,75.23c0,0,1.09-5.45-3.57-5.45c-4.66,0-5.64,3.97-5.87,5.45c-0.24,1.48,0.56,4.66,4.22,4.66
		c3.66,0,4.78-3.3,4.78-3.3l-1.74-0.09c0,0-0.65,2.04-2.95,2.04c-2.3,0-3.01-1.74-2.54-3.3H130.66z M126.76,71.04
		c2.39,0,2.45,2.92,2.45,2.92h-5.9C123.31,73.96,124.37,71.04,126.76,71.04z"/>
	<path class="st0" d="M132.19,76.38h1.71c0,0-0.09,2.39,2.54,2.39c0.71,0,1.61-0.11,2.08-0.72c0.49-0.64,0.18-1.41-0.47-1.76
		c-1.21-0.65-2.68-0.97-3.66-1.99c-0.93-0.97-1.04-2.49-0.07-3.46c1.03-1.03,2.12-1.05,3.07-1.05s3.45,0.43,3.95,3
		c-0.18-0.03-1.48,0.19-1.48,0.19s-0.32-1.93-2.42-1.93c-2.09,0-2.63,0.94-2.33,1.65c0.13,0.32,0.58,0.52,0.87,0.66
		c0.52,0.27,1.07,0.49,1.6,0.73c1.35,0.6,2.84,1.3,2.86,2.99c0.01,1.17-0.76,2.06-1.81,2.47c-0.68,0.26-1.43,0.35-2.16,0.35
		C131.72,79.88,132.19,76.38,132.19,76.38z"/>
</g>
</svg>
