<?xml version="1.0" encoding="utf-8"?>
<!-- Generator: Adobe Illustrator 25.4.1, SVG Export Plug-In . SVG Version: 6.00 Build 0)  -->
<svg version="1.1" id="Layer_1" xmlns="http://www.w3.org/2000/svg" xmlns:xlink="http://www.w3.org/1999/xlink" x="0px" y="0px"
	 viewBox="0 0 183.44 80" style="enable-background:new 0 0 183.44 80;" xml:space="preserve">
<path id="path8977" d="M41.86,59.07C41.86,70.63,32.49,80,20.93,80C9.37,80,0,70.63,0,59.07c0-11.56,9.37-20.93,20.93-20.93
	C32.49,38.14,41.86,47.51,41.86,59.07"/>
<path id="path8979" d="M100.35,37.93h7.54v31.61h-7.54V37.93z"/>
<path id="path8983" d="M143.38,57.71V69.5h-6.29v-9.87c0-2.95-1.91-3.75-3.32-3.75c-1.71,0-3.63,1.02-3.63,3.84v9.78h-7.54V48.85
	h6.15l0.57,2.94c1.52-1.81,3.67-2.94,6.72-2.94C139.35,48.85,143.38,51.8,143.38,57.71"/>
<path id="path8987" d="M166.71,66.59l2.94-3.67c1.79,1.63,3.74,1.94,5.24,1.81c1-0.09,1.49-0.63,1.49-1.16c0-0.48-0.28-0.8-2.7-1.53
	c-3.34-0.97-6.29-2.66-6.29-6.41c0-4.35,3.47-6.65,7.58-6.65c3.22,0,5.4,0.84,7.73,2.5l-2.27,4.08c-1.87-1.47-3.66-1.88-4.9-1.81
	c-0.91,0.05-1.57,0.71-1.57,1.28c0,0.4,0.48,0.77,2.46,1.41c4.47,1.41,6.69,2.7,6.69,6.57c0,3.87-2.74,6.53-8.34,6.53
	C171.7,69.53,168.96,68.61,166.71,66.59"/>
<path id="path8989" d="M111.48,48.84h7.66v20.65h-7.66V48.84z"/>
<path id="path8993" d="M97.71,48.85c-3.17,0-5.14,0.79-6.61,2.94l-0.59-2.94h-6.15V69.5h7.34v-7.72c0-6.78,6.06-5.5,6.06-5.5v-7.43
	H97.71z"/>
<path id="path8997" d="M62.47,59.21c0-2.44-2.09-4.13-4.07-4.13c-2.15,0-4.07,1.68-4.07,4.13c0,2.53,1.92,4.17,4.07,4.17
	C60.38,63.38,62.47,61.74,62.47,59.21 M69.68,48.89v20.65h-7.18v-2.6c-1.14,1.36-3.69,2.6-5.96,2.6c-5.65,0-8.98-3.96-8.98-10.32
	c0-6.36,3.9-10.32,9.04-10.32c2.91,0,5.33,0.89,6.77,2.92l0.56-2.92H69.68z"/>
<path id="path8999" d="M73.18,48.85h7.66V69.5h-7.66V48.85z"/>
<path id="path9003" d="M158.73,57.03h-5.95c0,0,0-0.22,0.05-0.51c0.24-1.4,1.45-2.46,2.92-2.46c1.46,0,2.67,1.05,2.92,2.44
	C158.68,56.5,158.73,56.73,158.73,57.03 M157.03,64.25c-2.09,0-4.01-1.43-4.33-3.32h12.92c0.08-0.48,0.16-1.45,0.16-1.93
	c0-5.91-4.23-10.1-9.9-10.1c-5.96,0-10.22,4.31-10.22,10.26c0,6.08,4.43,10.26,10.35,10.26c3.49,0,6.25-1.18,8.05-2.76l-2.9-4.05
	C159.91,63.76,158.63,64.25,157.03,64.25"/>
<path id="path9007" d="M81.33,42.21c0-2.39-1.93-4.32-4.32-4.32c-2.39,0-4.32,1.93-4.32,4.32c0,2.39,1.93,4.32,4.32,4.32
	C79.4,46.53,81.33,44.6,81.33,42.21"/>
<path id="path9011" d="M119.65,42.21c0-2.39-1.93-4.32-4.32-4.32s-4.32,1.93-4.32,4.32c0,2.39,1.93,4.32,4.32,4.32
	S119.65,44.6,119.65,42.21"/>
<path id="path9015" d="M7.89,17.07H5.63v-6.04h2.26V9.51c0-5.39,3.85-9.31,10.57-9.31c0.98,0,2.07,0.01,2.07,0.01l-0.02,5.82h-0.48
	c-3.82,0-4.93,1.93-4.93,4.25v0.74h6.02v6.04H15.5v14.78H7.89V17.07z"/>
<path id="path9017" d="M23.89,0.21h7.6v31.64h-7.6V0.21z"/>
<path id="path9021" d="M84.46,11.03c-3.19,0-5.17,0.8-6.66,2.96l-0.6-2.96h-6.19v20.78h7.39v-7.77c0-6.83,6.1-5.54,6.1-5.54v-7.47
	H84.46z"/>
<path id="path9025" d="M49.27,21.46c0-2.46-2.1-4.16-4.09-4.16c-2.17,0-4.09,1.7-4.09,4.16c0,2.54,1.93,4.2,4.09,4.2
	C47.17,25.66,49.27,24,49.27,21.46 M56.53,11.07v20.78h-7.23v-2.62c-1.15,1.37-3.71,2.62-6,2.62c-5.68,0-9.03-3.99-9.03-10.39
	s3.92-10.39,9.1-10.39c2.92,0,5.36,0.9,6.81,2.94l0.56-2.94H56.53z"/>
<path id="path9027" d="M59.93,11.03h7.71v20.78h-7.71V11.03z"/>
<path id="path9031" d="M68.13,4.35c0-2.4-1.95-4.35-4.35-4.35c-2.4,0-4.35,1.94-4.35,4.35c0,2.4,1.95,4.35,4.35,4.35
	C66.18,8.69,68.13,6.75,68.13,4.35"/>
</svg>
