<?xml version="1.0" encoding="utf-8"?>
<!-- Generator: Adobe Illustrator 25.4.1, SVG Export Plug-In . SVG Version: 6.00 Build 0)  -->
<svg version="1.1" id="Layer_1" xmlns="http://www.w3.org/2000/svg" xmlns:xlink="http://www.w3.org/1999/xlink" x="0px" y="0px"
	 viewBox="0 0 96 80" style="enable-background:new 0 0 96 80;" xml:space="preserve">
<style type="text/css">
	.st0{fill:#006643;}
</style>
<g>
	<g>
		<g>
			<path id="fbpsh" class="st0" d="M95.71,0H31.73c-7.44,0-11.16,3.41-13.64,13.23l-3.1,11.58c-0.1,0.31,0.21,0.62,0.62,0.31
				c0,0,3.72-2.48,10.03-2.48h54.16c6.82,0,11.78-5.89,13.23-10.96l3.1-11.37C96.02,0.31,95.92,0,95.71,0z"/>
		</g>
	</g>
	<g>
		<g>
			<path id="fbpsi" class="st0" d="M85.06,28.73H23.98c-7.34,0-10.54,2.79-13.64,13.23l-3.1,11.47c-0.1,0.31,0.21,0.62,0.62,0.31
				c0,0,3.93-2.48,10.23-2.48H67.8c7.75,0,13.13-5.99,15.61-14.88l2.07-7.44C85.48,28.84,85.27,28.73,85.06,28.73L85.06,28.73z"/>
		</g>
	</g>
	<g>
		<g>
			<path id="fbpsj" class="st0" d="M44.03,57.36H16.12c-7.24,0-10.96,3.2-13.44,12.4L0,79.69C0,79.9,0.1,80,0.31,80h26.67
				c6.82,0,12.4-4.13,14.88-13.33l2.38-8.89C44.44,57.57,44.24,57.36,44.03,57.36z"/>
		</g>
	</g>
</g>
</svg>
