<?xml version="1.0" encoding="utf-8"?>
<!-- Generator: Adobe Illustrator 25.4.1, SVG Export Plug-In . SVG Version: 6.00 Build 0)  -->
<svg version="1.1" id="Layer_1" xmlns="http://www.w3.org/2000/svg" xmlns:xlink="http://www.w3.org/1999/xlink" x="0px" y="0px"
	 viewBox="0 0 421 80" style="enable-background:new 0 0 421 80;" xml:space="preserve">
<style type="text/css">
	.st0{fill:#006643;}
</style>
<g>
	<g>
		<g>
			<path id="fbpsa" class="st0" d="M88.91,27.11c6.88,0,11.31-2.88,11.31-7.51c0-1.47-0.49-2.6-1.4-3.65
				c-1.26-1.26-3.51-1.83-6.81-1.83h-8.29l-3.58,12.99L88.91,27.11L88.91,27.11z M71.98,0.98h20.79c9.2,0,15.24,2.04,18.96,5.69
				c2.81,2.95,4.35,6.95,4.21,11.1c0,9.06-5.27,16.22-16.5,19.24l8.5,18.33H91.09l-7.37-16.43H76.9l-4.42,16.43H57.31L71.98,0.98z"
				/>
		</g>
	</g>
	<g>
		<g>
			<path id="fbpsb" class="st0" d="M162.16,25.56c0-6.95-4.21-12.01-12.01-12.01c-9.62,0-15.94,9.27-15.94,17.35
				c0,6.88,4.21,12.01,12.01,12.01C155.91,42.91,162.16,33.64,162.16,25.56L162.16,25.56z M118.62,31.95
				C118.62,15.38,132.24,0,151.34,0c15.66,0,26.27,10.53,26.27,24.37c0,16.57-13.62,31.95-32.8,31.95
				C129.29,56.39,118.62,45.79,118.62,31.95L118.62,31.95z"/>
		</g>
	</g>
	<g>
		<g>
			<path id="fbpsc" class="st0" d="M191.23,0.98h14.26l14.19,30.2l8.29-30.2h15.17l-14.82,54.36h-13.34l-14.89-31.25l-8.5,31.25
				h-15.24L191.23,0.98z"/>
		</g>
	</g>
	<g>
		<g>
			<path id="fbpsd" class="st0" d="M262.8,14.26h-16.5l3.58-13.2h48.18l-3.44,13.2h-16.64L266.8,55.34h-15.38L262.8,14.26z"/>
		</g>
	</g>
	<g>
		<g>
			<path id="fbpse" class="st0" d="M304.72,0.98h15.31l-14.82,54.36h-15.31L304.72,0.98z"/>
		</g>
	</g>
	<g>
		<g>
			<path id="fbpsf" class="st0" d="M326.71,0.98h44.17l-3.51,12.78h-28.93l-2.25,8.22h26.27l-3.23,11.87h-26.27l-2.32,8.64h29.43
				l-3.44,12.78h-44.6L326.71,0.98z"/>
		</g>
	</g>
	<g>
		<g>
			<path id="fbpsg" class="st0" d="M394.41,27.11c6.88,0,11.31-2.88,11.31-7.51c0-1.47-0.49-2.6-1.4-3.65
				c-1.26-1.26-3.51-1.83-6.81-1.83h-8.29l-3.58,12.99L394.41,27.11L394.41,27.11z M377.48,0.98h20.72c9.2,0,15.31,2.04,18.96,5.69
				c2.88,2.95,4.35,6.95,4.21,11.1c0,9.06-5.34,16.22-16.57,19.24l8.57,18.33h-16.86l-7.23-16.43h-6.81l-4.49,16.43h-15.24
				L377.48,0.98z"/>
		</g>
	</g>
	<g>
		<g>
			<path id="fbpsh" class="st0" d="M65.03,0.98H21.56c-5.06,0-7.58,2.32-9.27,8.99l-2.11,7.87c-0.07,0.21,0.14,0.42,0.42,0.21
				c0,0,2.53-1.69,6.81-1.69h36.8c4.64,0,8.01-4,8.99-7.44l2.11-7.73C65.24,1.19,65.17,0.98,65.03,0.98z"/>
		</g>
	</g>
	<g>
		<g>
			<path id="fbpsi" class="st0" d="M57.8,20.51H16.29c-4.99,0-7.16,1.9-9.27,8.99l-2.11,7.8c-0.07,0.21,0.14,0.42,0.42,0.21
				c0,0,2.67-1.69,6.95-1.69h33.78c5.27,0,8.92-4.07,10.6-10.11l1.4-5.06C58.08,20.58,57.94,20.51,57.8,20.51L57.8,20.51z"/>
		</g>
	</g>
	<g>
		<g>
			<path id="fbpsj" class="st0" d="M29.92,39.96H10.96c-4.92,0-7.44,2.18-9.13,8.43L0,55.13c0,0.14,0.07,0.21,0.21,0.21h18.12
				c4.64,0,8.43-2.81,10.11-9.06l1.62-6.04C30.2,40.1,30.06,39.96,29.92,39.96z"/>
		</g>
	</g>
	<g>
		<g>
			<g>
				<g>
					<path id="fbpsk" class="st0" d="M0.07,62.78h1.97v15.1h9.62v1.76H0.14V62.78H0.07z"/>
				</g>
			</g>
			<g>
				<g>
					<path id="fbpsl" class="st0" d="M28.79,71.28c0-3.86-2.81-6.95-6.67-6.95c-3.93,0-6.6,3.09-6.6,6.88v0.07
						c-0.14,3.72,2.74,6.81,6.46,6.95c0.07,0,0.14,0,0.28,0c3.72-0.07,6.67-3.09,6.6-6.81C28.79,71.35,28.79,71.35,28.79,71.28z
						 M13.41,71.28c-0.07-4.78,3.72-8.71,8.43-8.78c0.07,0,0.21,0,0.28,0c5.13,0,8.71,4,8.71,8.64v0.07
						c0.07,4.71-3.72,8.64-8.5,8.71c-0.07,0-0.21,0-0.28,0c-4.71,0.07-8.57-3.65-8.71-8.29C13.41,71.49,13.41,71.35,13.41,71.28z"/>
				</g>
			</g>
			<g>
				<g>
					<path id="fbpsm" class="st0" d="M32.66,62.78h2.11l4.85,14.05l4.71-14.12h1.55l4.71,14.12l4.85-14.05h2.04l-6.04,16.93h-1.62
						l-4.71-13.62l-4.71,13.62h-1.62L32.66,62.78z"/>
				</g>
			</g>
			<g>
				<g>
					<path id="fbpsn" class="st0" d="M68.26,62.78h12.15v1.76H70.16v5.97h9.2v1.69h-9.27v7.3h-1.97L68.26,62.78L68.26,62.78z"/>
				</g>
			</g>
			<g>
				<g>
					<path id="fbpso" class="st0" d="M93.26,73.46l-3.86-8.57l-3.93,8.57H93.26z M88.56,62.64h1.76l7.8,16.93H96l-2.04-4.49H84.7
						l-2.04,4.49h-1.97L88.56,62.64z"/>
				</g>
			</g>
			<g>
				<g>
					<path id="fbpsp" class="st0" d="M108.57,71.35c2.6,0,4.35-1.33,4.35-3.44v-0.07c0-2.11-1.62-3.3-4.35-3.3h-5.27v6.88h5.27
						V71.35z M101.48,62.78h7.3c2.11,0,3.72,0.63,4.85,1.69c0.84,0.91,1.33,2.11,1.33,3.3v0.07c0,2.74-1.97,4.35-4.64,4.92
						l5.27,6.88h-2.32l-4.92-6.53h-4.85v6.53h-2.04L101.48,62.78z"/>
				</g>
			</g>
			<g>
				<g>
					<path id="fbpsq" class="st0" d="M118.97,62.78h12.36v1.69h-10.39v5.76h9.27v1.69h-9.27v5.83h10.53v1.69h-12.43V62.78H118.97z"
						/>
				</g>
			</g>
			<g>
				<g>
					<path id="fbpsr" class="st0" d="M134.21,77.11l1.19-1.4c1.83,1.62,3.51,2.39,5.83,2.39c2.32,0,3.86-1.19,3.86-2.81v-0.07
						c0-1.55-0.84-2.46-4.42-3.16c-3.86-0.84-5.69-2.11-5.69-4.85v-0.07c0-2.6,2.32-4.64,5.62-4.64c2.46,0,4.28,0.7,5.97,2.11
						l-1.12,1.47c-1.55-1.33-3.23-1.83-4.92-1.83c-2.18,0-3.58,1.19-3.58,2.67V67c0,1.62,0.84,2.46,4.56,3.23
						c3.86,0.84,5.55,2.18,5.55,4.78v0.07c0,2.81-2.39,4.78-5.9,4.78C138.49,79.85,136.24,79.01,134.21,77.11L134.21,77.11z"/>
				</g>
			</g>
			<g>
				<g>
					<path id="fbpss" class="st0" d="M160.12,64.61v13.34h4c4.28,0,7.02-2.81,7.02-6.6v-0.14c0-3.72-2.74-6.6-7.02-6.6H160.12z
						 M158.23,62.78h5.97c5.41,0,9.06,3.65,9.06,8.43v0.07c0,4.71-3.65,8.43-9.06,8.43h-5.97V62.78z"/>
				</g>
			</g>
			<g>
				<g>
					<path id="fbpst" class="st0" d="M191.87,71.28c0-3.86-2.81-6.95-6.74-6.95c-3.86,0-6.6,3.09-6.6,6.88v0.07
						c-0.14,3.72,2.74,6.81,6.46,6.95c0.07,0,0.21,0,0.28,0c3.72-0.07,6.67-3.09,6.6-6.81C191.87,71.35,191.87,71.35,191.87,71.28z
						 M176.49,71.28c-0.07-4.78,3.72-8.71,8.43-8.78c0.07,0,0.21,0,0.28,0c5.13,0,8.64,4,8.64,8.64v0.07
						c0.07,4.71-3.72,8.64-8.5,8.71c-0.07,0-0.21,0-0.28,0c-4.71,0.07-8.57-3.65-8.71-8.29C176.49,71.49,176.49,71.35,176.49,71.28
						L176.49,71.28z"/>
				</g>
			</g>
			<g>
				<g>
					<path id="fbpsu" class="st0" d="M197.91,62.78h1.83l10.75,13.48V62.78h1.9v16.85h-1.55l-10.96-13.76v13.76h-1.97V62.78z"/>
				</g>
			</g>
			<g>
				<g>
					<path id="fbpsv" class="st0" d="M217.15,62.78h12.36v1.69h-10.39v5.76h9.27v1.69h-9.27v5.83h10.53v1.69h-12.43L217.15,62.78
						L217.15,62.78z"/>
				</g>
			</g>
			<g>
				<g>
					<path id="fbpsw" class="st0" d="M247.98,71.35c2.53,0,4.35-1.33,4.35-3.44v-0.07c0-2.11-1.62-3.3-4.35-3.3h-5.34v6.88h5.34
						V71.35z M240.75,62.78h7.37c2.11,0,3.72,0.63,4.85,1.69c0.84,0.91,1.33,2.11,1.33,3.3v0.07c0,2.74-1.97,4.35-4.56,4.92
						l5.2,6.88h-2.32l-4.92-6.53h-4.99v6.53h-1.97L240.75,62.78L240.75,62.78z"/>
				</g>
			</g>
			<g>
				<g>
					<path id="fbpsx" class="st0" d="M258.58,62.78h1.97v16.85h-1.97V62.78z"/>
				</g>
			</g>
			<g>
				<g>
					<path id="fbpsy" class="st0" d="M264.69,71.28c0-4.71,3.44-8.78,8.57-8.78c2.88,0,4.71,0.84,6.32,2.25l-1.26,1.47
						c-1.4-1.26-3.23-1.97-5.13-1.9c-3.72,0-6.46,3.16-6.46,6.88v0.07c0,4,2.6,7.02,6.74,7.02c1.97,0,3.72-0.77,4.92-1.69v-4.21
						h-5.13v-1.69h7.02v6.74c-1.9,1.62-4.35,2.53-6.88,2.53c-4.56,0.21-8.43-3.3-8.64-7.87C264.69,71.77,264.69,71.56,264.69,71.28
						L264.69,71.28z"/>
				</g>
			</g>
			<g>
				<g>
					<path id="fbpsz" class="st0" d="M284.5,62.78h1.97v7.51h9.83v-7.51h1.97v16.78h-1.97v-7.51h-9.83v7.51h-1.97V62.78z"/>
				</g>
			</g>
			<g>
				<g>
					<path id="fbpsA" class="st0" d="M307.53,64.61h-5.69v-1.83h13.34v1.76h-5.69v15.1h-1.97L307.53,64.61z"/>
				</g>
			</g>
		</g>
		<g>
			<g>
				<g>
					<path id="fbpsB" class="st0" d="M317.15,63.56h-0.14v-0.21h0.14c0.07,0,0.14,0.07,0.14,0.14c0,0.07-0.07,0.14-0.14,0.14V63.56z
						 M316.66,64.12h0.21v-0.35h0.14l0.21,0.35h0.21l-0.21-0.35c0.14-0.07,0.21-0.14,0.21-0.28c0-0.21-0.14-0.35-0.42-0.35h-0.49
						L316.66,64.12z M317.08,64.4c-0.49,0-0.77-0.28-0.77-0.77c0-0.42,0.28-0.77,0.77-0.77c0.49,0,0.77,0.28,0.77,0.77
						C317.86,64.12,317.51,64.4,317.08,64.4z M317.08,64.54c0.49,0,0.84-0.42,0.84-0.84c0-0.49-0.42-0.84-0.84-0.84
						c-0.49,0-0.84,0.42-0.84,0.84C316.17,64.12,316.59,64.54,317.08,64.54z"/>
				</g>
			</g>
		</g>
	</g>
</g>
</svg>
