<?xml version="1.0" encoding="utf-8"?>
<!-- Generator: Adobe Illustrator 25.4.1, SVG Export Plug-In . SVG Version: 6.00 Build 0)  -->
<svg version="1.1" id="Layer_1" xmlns="http://www.w3.org/2000/svg" xmlns:xlink="http://www.w3.org/1999/xlink" x="0px" y="0px"
	 viewBox="0 0 260.95 80" style="enable-background:new 0 0 260.95 80;" xml:space="preserve">
<style type="text/css">
	.st0{fill:#EB078C;}
	.st1{fill:#EB048C;}
	.st2{fill:#0094D3;}
	.st3{fill:#A71F62;}
	.st4{fill:#971D58;}
	.st5{fill:#B71F6C;}
	.st6{fill:#640933;}
	.st7{fill:#71113D;}
	.st8{fill:#DD1181;}
	.st9{fill:#891A4F;}
	.st10{fill:#C31D74;}
	.st11{fill:#7E1647;}
	.st12{fill:#D0187A;}
</style>
<g>
	<path id="Fill-17" class="st0" d="M77.48,63.81c2.31-0.57,4.61-1,6.92-1.48c3.61-0.74,7.26-1.44,10.87-2.04
		c3.7-0.65,7.44-1.26,11.18-1.74c2.74-0.35,5.44-0.74,8.18-1.09s5.48-0.61,8.18-0.87c2.96-0.3,5.92-0.57,8.87-0.78
		c2.61-0.22,5.22-0.35,7.83-0.52c2.65-0.13,5.31-0.26,7.96-0.35c2.35-0.09,4.65-0.13,7-0.17c3.7-0.09,7.35-0.04,11.05-0.04
		c2.39,0,4.78,0.09,7.18,0.17c2.52,0.09,5.05,0.17,7.57,0.35c2.78,0.17,5.61,0.3,8.39,0.57c2.44,0.22,4.87,0.39,7.31,0.65
		c2.48,0.26,4.96,0.52,7.44,0.83c2.31,0.26,4.65,0.57,6.96,0.87c2.91,0.39,5.79,0.87,8.7,1.35c3.09,0.52,6.18,1.04,9.26,1.65
		c4.74,0.91,9.48,1.96,14.18,3.09c4.96,1.17,9.87,2.48,14.79,3.91c0.04,0,0.13,0.04,0.17,0.04c0.17,0.04,0.3,0.13,0.26,0.3
		c-0.04,0.26-0.26,0.09-0.35,0.04c-2-0.48-3.96-1-5.96-1.48c-3.78-0.91-7.61-1.7-11.4-2.48c-3.18-0.61-6.31-1.17-9.48-1.7
		c-2.44-0.39-4.92-0.74-7.35-1.04c-2.22-0.3-4.39-0.57-6.61-0.83c-2.09-0.22-4.18-0.43-6.31-0.61c-2.26-0.22-4.48-0.39-6.74-0.57
		c-1.57-0.13-3.09-0.17-4.65-0.3c-2.78-0.17-5.57-0.3-8.35-0.39c-1.61-0.04-3.18-0.09-4.78-0.13c-2.83-0.09-5.61-0.04-8.44-0.09
		c-2.04,0-4.09,0-6.18,0.04c-2.13,0.04-4.31,0.09-6.44,0.17c-2.48,0.09-4.96,0.17-7.44,0.35c-2.87,0.17-5.79,0.35-8.66,0.57
		c-2.26,0.17-4.48,0.35-6.74,0.52c-2.17,0.17-4.31,0.43-6.44,0.65c-1.87,0.22-3.74,0.39-5.61,0.61c-1.91,0.22-3.83,0.48-5.7,0.74
		c-1.87,0.26-3.74,0.52-5.61,0.78c-2.44,0.35-4.92,0.74-7.35,1.13c-2.65,0.43-5.31,0.96-7.96,1.44c-3.35,0.61-6.7,1.3-10.05,2
		c-4.92,1.04-9.83,2.22-14.7,3.48c-1.26,0.35-2.52,0.65-3.78,1c0-0.22,0.04-0.39,0.13-0.57c0.91-2.52,1.87-5.05,2.78-7.57
		C77.61,64.16,77.7,63.98,77.48,63.81"/>
	<path class="st1" d="M53.38,79.99c-0.17,0.04-0.22-0.09-0.3-0.17c-2.39-2.22-4.83-4.48-7.22-6.7c-0.22-0.22-0.3-0.39-0.13-0.7
		c2.13-4.39,4.26-8.74,6.35-13.14c2.04-4.26,4.13-8.53,6.18-12.79c0.13-0.22,0.04-0.43,0-0.65c-1.87-6.09-3.74-12.18-5.61-18.27
		c-1.39-4.61-2.83-9.18-4.22-13.79c-0.04-0.13-0.04-0.26-0.09-0.39h0.48c3.22,0,6.48,0,9.7,0c0.39,0,0.57,0.13,0.65,0.48
		c1.91,6.83,3.87,13.61,5.83,20.44c0.04,0.09,0.09,0.17,0.13,0.35c0.7-1.65,1.35-3.26,2-4.92c2.17-5.35,4.35-10.7,6.52-16.05
		c0.09-0.26,0.26-0.35,0.52-0.35c3.22,0,6.44,0,9.66,0c0.43,0,0.43,0,0.26,0.43c-3.96,8.53-7.96,17.05-11.92,25.58
		c-4.48,9.57-8.92,19.18-13.4,28.75c-0.04,0.13-0.09,0.26-0.13,0.39c-0.09,0.13-0.17,0.26-0.22,0.39c-1.17,2.48-2.31,4.96-3.48,7.44
		C54.43,77.64,53.86,78.82,53.38,79.99 M18.93,0.74c5.09,0,10.18,0,15.22,0c0.52,0,0.52,0,0.48,0.52c-0.13,1.44-0.22,2.87-0.3,4.31
		c-0.09,1.09-0.17,2.22-0.22,3.31c0,0.3-0.13,0.35-0.39,0.35c-2.78,0-5.61,0-8.39,0c-3.65,0-7.31,0-10.96,0
		c-0.26,0-0.48,0.17-0.48,0.43c-0.17,2.22-0.39,4.44-0.57,6.66c-0.04,0.65-0.09,1.35-0.17,2c-0.04,0.35,0.04,0.48,0.43,0.48
		c5.92,0,11.79,0,17.7,0c0.61,0,0.61,0,0.52,0.61c-0.13,1.48-0.22,3-0.3,4.48c-0.09,1-0.17,2-0.22,3.04c0,0.35-0.13,0.43-0.48,0.43
		c-5.18,0-10.4,0-15.57,0c-0.78,0-1.52,0-2.31,0c-0.26,0-0.35,0.04-0.35,0.3c-0.04,1.04-0.13,2.04-0.22,3.09
		c-0.13,1.91-0.26,3.83-0.39,5.7c-0.09,1.39-0.17,2.78-0.26,4.18c-0.13,1.74-0.22,3.44-0.35,5.18c0,0.3-0.17,0.26-0.39,0.26
		c-1.39,0-2.74,0-4.13,0c-2.13,0-4.26,0-6.39,0c-0.39,0-0.48-0.09-0.43-0.43c0.13-1.7,0.26-3.44,0.39-5.13
		c0.09-1.3,0.17-2.65,0.3-3.96c0.13-1.78,0.26-3.57,0.39-5.35c0.09-1.35,0.17-2.65,0.3-4c0.13-1.74,0.26-3.48,0.39-5.22
		c0.09-1.3,0.17-2.65,0.3-3.96c0.13-1.78,0.26-3.57,0.39-5.35c0.09-1.3,0.17-2.57,0.26-3.87C2.88,7,3.01,5.18,3.14,3.39
		c0.04-0.65,0.09-1.26,0.13-1.91c0-0.39,0.13-0.57,0.57-0.57C8.8,0.74,13.89,0.74,18.93,0.74 M39.07,46.46c-1.61,0-3.22,0-4.83,0
		c-0.35,0-0.48,0-0.43-0.43c0.17-1.83,0.26-3.65,0.39-5.48c0.13-1.83,0.26-3.65,0.39-5.44c0.13-1.83,0.26-3.65,0.39-5.48
		c0.13-1.83,0.26-3.7,0.39-5.52c0.09-1.39,0.17-2.74,0.26-4.13c0.13-1.87,0.26-3.78,0.39-5.65c0.09-1.39,0.17-2.74,0.26-4.13
		c0.13-1.87,0.26-3.74,0.39-5.61c0.09-1.09,0.13-2.17,0.22-3.31C36.94,0.7,36.94,0.7,37.5,0.7c3.22,0,6.44,0,9.66,0
		c0.35,0,0.43,0.09,0.39,0.43C47.42,3,47.29,4.87,47.16,6.7c-0.09,1.39-0.17,2.74-0.3,4.13c-0.13,1.91-0.26,3.83-0.39,5.7
		c-0.09,1.39-0.17,2.83-0.3,4.22c-0.13,1.87-0.26,3.74-0.39,5.57c-0.09,1.39-0.17,2.74-0.26,4.13c-0.13,1.87-0.26,3.74-0.39,5.61
		c-0.09,1.39-0.17,2.83-0.3,4.22c-0.13,2-0.3,3.96-0.43,5.96c0,0.3-0.22,0.22-0.39,0.22C42.42,46.46,40.72,46.46,39.07,46.46"/>
	<path class="st2" d="M181.26,0c0.52,0.17,1.04,0.09,1.57,0.13c0.96,0.09,1.96,0.22,2.91,0.35c0.35,0.04,0.39,0.17,0.26,0.83
		c-0.35,1.39-0.43,2.78-0.3,4.22c0.04,0.7-0.04,1.44-0.09,2.13c0,0.3-0.09,0.39-0.43,0.43c-0.7,0-1.35-0.26-2.04-0.43
		c-1.83-0.39-3.61-0.43-5.44,0.04c-1.17,0.3-1.91,1.04-2.31,2.13c-0.35,0.96-0.48,1.96-0.57,2.96c0,0.26,0.13,0.22,0.26,0.22
		c0.7,0,1.39,0,2.09,0c1.78,0,3.61,0,5.39,0c0.26,0,0.39,0.04,0.35,0.35c-0.13,1.96-0.26,3.91-0.43,5.87v0.04
		c-0.04,0.3,0.09,0.7-0.09,0.87c-0.26,0.22-0.65,0.04-0.96,0.09c-2.13,0-4.26,0-6.39,0c-0.35,0-0.43,0.09-0.48,0.43
		c-0.22,3.22-0.43,6.44-0.65,9.7c-0.17,2.26-0.3,4.48-0.43,6.74c-0.22,2.87-0.39,5.79-0.61,8.66c0,0.3-0.13,0.39-0.43,0.39
		c-3.31,0-6.61,0-9.87,0c-0.35,0-0.39-0.09-0.39-0.39c0.22-2.61,0.39-5.26,0.57-7.87c0.13-1.83,0.26-3.65,0.35-5.52
		c0.17-2.26,0.35-4.48,0.48-6.74c0.13-1.65,0.22-3.31,0.35-5c0.04-0.3-0.09-0.35-0.35-0.35c-1.26,0-2.52,0-3.83,0
		c-0.3,0-0.39-0.09-0.35-0.39c0.13-1.96,0.3-3.96,0.43-5.92c0.04-0.52,0.43-0.91,0.96-0.91c1.09,0,2.22,0,3.31,0
		c0.26,0,0.35-0.09,0.39-0.35c0.09-1.87,0.39-3.7,1.04-5.44c1.35-3.52,3.91-5.7,7.57-6.66c1.04-0.26,2.13-0.48,3.22-0.52
		c0.09,0,0.22,0,0.26-0.09L181.26,0L181.26,0z M260.91,14.18c-0.17,0.48-0.09,1-0.13,1.48c-0.17,2.26-0.3,4.48-0.48,6.74
		c0,0.09,0,0.17,0,0.26c-0.09,0.78-0.22,0.91-1.04,0.74c-1.83-0.43-3.7-0.48-5.57-0.43c-2.22,0.04-4.44,0.43-6.52,1.17
		c-0.26,0.09-0.35,0.22-0.35,0.48c-0.13,2.26-0.3,4.48-0.43,6.74c-0.17,2.61-0.39,5.22-0.57,7.83c-0.13,1.83-0.26,3.7-0.35,5.52
		c-0.04,0.39-0.09,0.83-0.09,1.22c0,0.22-0.22,0.43-0.43,0.43c-2.87,0-5.74,0-8.61,0c-0.43,0-0.87,0-1.3,0c-0.17,0-0.3-0.13-0.3-0.3
		c0.13-1.74,0.26-3.44,0.35-5.18c0.09-1.44,0.22-2.87,0.3-4.31c0.17-2.31,0.35-4.65,0.48-6.96c0.13-1.78,0.22-3.57,0.35-5.35
		c0.17-2.31,0.35-4.61,0.48-6.92c0.09-1.26,0.17-2.52,0.26-3.78c0-0.3,0.13-0.35,0.43-0.35c3.26,0,6.57,0,9.83,0
		c0.22,0,0.39,0.17,0.39,0.43c-0.09,1.13-0.17,2.31-0.26,3.44c0,0.3,0,0.57,0,0.91c0.52-0.39,1.04-0.78,1.52-1.17
		c2.13-1.57,4.39-2.87,7-3.44c1.39-0.3,2.83-0.35,4.26-0.26c0.26,0.04,0.52,0,0.83,0.04v1H260.91z M106.19,1.39
		c5.18,0.04,10.22,0.91,15.09,2.74c0.39,0.13,0.48,0.3,0.43,0.7c-0.17,2.26-0.35,4.52-0.48,6.79c-0.04,0.87-0.13,1.7-0.17,2.57
		c0,0.22-0.09,0.3-0.3,0.3c-0.57,0.04-1.04-0.09-1.52-0.48c-3.13-2.35-6.66-3.78-10.53-4.31c-2.48-0.35-4.96-0.3-7.39,0.35
		c-1.26,0.35-2.35,0.87-3.26,1.83c-1.17,1.26-1.3,3.78,0.78,4.83c1.35,0.7,2.83,1.04,4.31,1.35c3.18,0.7,6.35,1.26,9.44,2.31
		c2.17,0.74,4.22,1.7,5.96,3.26c1.74,1.61,2.7,3.61,2.91,5.96c0.3,3.18-0.22,6.18-1.96,8.87c-1.57,2.44-3.74,4.18-6.26,5.52
		c-2.61,1.39-5.39,2.13-8.31,2.52c-2.04,0.26-4.05,0.35-6.09,0.3c-5.31-0.04-10.4-1.22-15.27-3.22c-0.26-0.09-0.35-0.22-0.35-0.52
		c0.13-1.91,0.26-3.83,0.39-5.7c0.09-1.35,0.22-2.74,0.26-4.09c0-0.3,0.09-0.39,0.39-0.39c0.61-0.04,1.09,0.13,1.57,0.52
		c3.22,2.57,6.87,4.09,10.87,4.87c1.48,0.3,3,0.48,4.57,0.39c1.78-0.09,3.61-0.13,5.35-0.83c0.61-0.26,1.17-0.61,1.7-0.96
		c1.48-1,2.09-3.87-0.04-5.35c-1.09-0.78-2.39-1.13-3.65-1.48c-2.48-0.61-5.05-0.96-7.53-1.61c-2.26-0.61-4.48-1.39-6.52-2.61
		c-3.22-1.91-4.96-4.74-5.18-8.48c-0.22-3.44,0.61-6.52,2.87-9.18c1.87-2.22,4.22-3.7,6.87-4.83c2.39-1,4.92-1.57,7.53-1.83
		C103.88,1.44,105.01,1.39,106.19,1.39 M197.36,39.8c2.39,0.04,4.44-0.78,6.35-2.13c0.13-0.09,0.22-0.22,0.26-0.43
		c0.13-2.09,0.3-4.18,0.43-6.26c0-0.26,0-0.35-0.3-0.3c-1.52,0.17-3.04,0.3-4.57,0.48c-1.44,0.17-2.87,0.39-4.26,0.91
		c-1.09,0.43-2.04,1.09-2.57,2.22c-0.39,0.83-0.39,1.7-0.39,2.57c0,0.74,0.3,1.35,0.87,1.83c0.57,0.48,1.17,0.78,1.87,0.96
		C195.83,39.76,196.62,39.8,197.36,39.8 M203.58,42.67c-0.96,0.65-1.83,1.26-2.74,1.87c-2.35,1.57-4.96,2.26-7.79,2.44
		c-2.04,0.13-4.05-0.04-5.96-0.87c-2.96-1.35-5-3.57-5.48-6.83c-0.52-3.65,0.17-7,2.91-9.7c1.74-1.7,3.87-2.65,6.18-3.35
		c2.13-0.65,4.35-0.96,6.52-1.22c2.35-0.26,4.74-0.48,7.09-0.61c0.39,0,0.57-0.13,0.57-0.61c-0.04-1.78-0.78-2.91-2.44-3.57
		c-1.48-0.57-3.04-0.7-4.65-0.83c-2.96-0.22-5.79,0.43-8.57,1.35c-0.87,0.3-1.78,0.61-2.65,0.91c-0.04,0-0.09,0.04-0.17,0.04
		c-0.3,0-0.65,0.13-0.87,0c-0.35-0.17-0.09-0.52-0.09-0.78c0.13-1.83,0.22-3.65,0.35-5.52c0.04-0.43,0.09-0.87,0.09-1.3
		c0-0.35,0.17-0.43,0.48-0.48c1.74-0.39,3.48-0.65,5.26-0.96c3.18-0.52,6.35-0.7,9.57-0.57c2.74,0.13,5.48,0.39,8.09,1.35
		c2.17,0.78,3.96,2,5.09,4.09c0.74,1.35,1.04,2.78,1.09,4.31c0.09,1.87-0.17,3.7-0.3,5.57c-0.09,1.39-0.17,2.83-0.3,4.22
		c-0.17,2.31-0.35,4.57-0.48,6.87c-0.09,1.39-0.17,2.78-0.26,4.18c-0.09,1.04-0.13,2.04-0.22,3.09c0,0.26-0.09,0.39-0.39,0.39
		c-3.26,0-6.52,0-9.79,0c-0.3,0-0.39-0.09-0.35-0.39C203.45,44.76,203.49,43.76,203.58,42.67 M138.64,39.8
		c2.52,0.09,4.61-0.74,6.48-2.13c0.22-0.13,0.3-0.3,0.3-0.57c0.04-0.65,0.09-1.35,0.13-2c0.09-1.39,0.17-2.74,0.3-4.13
		c0-0.22,0-0.35-0.3-0.3c-1.74,0.17-3.44,0.35-5.18,0.57c-1.35,0.17-2.7,0.39-3.91,0.96c-1,0.43-1.83,1.09-2.31,2.13
		c-0.26,0.61-0.3,1.22-0.35,1.87c-0.04,1,0.13,1.91,1,2.57c0.35,0.26,0.74,0.52,1.17,0.65C136.9,39.76,137.85,39.8,138.64,39.8
		 M145.03,42.67c-0.74,0.52-1.39,0.96-2.04,1.44c-2.61,1.87-5.52,2.78-8.74,2.91c-2,0.09-3.91-0.09-5.7-0.91
		c-3.04-1.44-5.09-3.74-5.48-7.18c-0.43-3.7,0.43-7.05,3.35-9.66c1.65-1.48,3.65-2.35,5.74-3c2.13-0.65,4.35-0.96,6.52-1.22
		c2.44-0.26,4.92-0.48,7.35-0.65c0.3,0,0.35-0.13,0.35-0.39c0.09-2-0.83-3.26-2.87-3.91c-1.17-0.39-2.39-0.52-3.61-0.61
		c-3.48-0.35-6.74,0.48-9.96,1.57c-0.61,0.22-1.26,0.43-1.87,0.65c-0.3,0.13-0.65,0.09-0.96,0.09c-0.26,0-0.22-0.17-0.22-0.35
		c0.09-1.04,0.13-2.09,0.22-3.18c0.09-1.39,0.22-2.74,0.3-4.13c0-0.3,0.13-0.43,0.43-0.48c2.13-0.48,4.26-0.83,6.44-1.13
		c2.83-0.39,5.65-0.48,8.48-0.39c2.83,0.13,5.61,0.43,8.26,1.44c2.09,0.78,3.83,2.04,4.87,4.09c0.61,1.17,0.91,2.44,1,3.78
		c0.13,1.83-0.13,3.65-0.26,5.48c-0.09,1.35-0.17,2.74-0.26,4.09c-0.17,2.31-0.35,4.61-0.48,6.92c-0.13,1.78-0.26,3.52-0.35,5.31
		c-0.04,0.87-0.13,1.78-0.17,2.65c0,0.3-0.17,0.26-0.35,0.26c-1.39,0-2.74,0-4.13,0c-1.91,0-3.78,0-5.7,0
		c-0.3,0-0.39-0.09-0.35-0.39C144.9,44.76,144.99,43.76,145.03,42.67 M223.93,46.02c-1.61,0-3.26,0-4.87,0
		c-0.35,0-0.48-0.09-0.43-0.43c0.22-2.61,0.39-5.22,0.57-7.83c0.13-1.83,0.26-3.65,0.35-5.48c0.17-2.26,0.35-4.52,0.48-6.79
		c0.13-1.83,0.26-3.61,0.35-5.44c0.17-2.26,0.35-4.57,0.48-6.83c0-0.26,0.13-0.3,0.35-0.3c3.31,0,6.61,0,9.92,0
		c0.26,0,0.39,0.04,0.35,0.35c-0.13,1.91-0.26,3.83-0.39,5.7c-0.09,1.39-0.17,2.74-0.3,4.13c-0.17,2.31-0.35,4.65-0.48,6.96
		c-0.13,1.78-0.22,3.57-0.35,5.35c-0.17,2.31-0.35,4.61-0.48,6.92c-0.09,1.09-0.13,2.13-0.17,3.22c0,0.35-0.09,0.48-0.48,0.48
		C227.15,46.02,225.54,46.02,223.93,46.02 M227.15,0.22c1.7,0,3.44,0,5.13,0c0.3,0,0.48,0.04,0.43,0.39
		c-0.13,1.83-0.26,3.7-0.39,5.52c-0.04,0.57-0.09,1.13-0.09,1.7c0,0.35-0.13,0.48-0.48,0.48c-2.22,0-4.39,0-6.61,0
		c-1.3,0-2.57,0-3.87,0c-0.3,0-0.39-0.04-0.35-0.39c0.13-1.44,0.22-2.83,0.3-4.26c0.09-1,0.13-2,0.17-3c0-0.35,0.13-0.48,0.52-0.48
		C223.72,0.22,225.41,0.22,227.15,0.22"/>
	<path id="Fill-25" class="st3" d="M66.47,74.86l-2.39,0.78c0.04-0.48,0.26-0.87,0.43-1.3c0.7-1.96,1.48-3.91,2.17-5.87
		c0.26-0.74,0.65-1.44,0.74-2.26c0.74-0.26,1.52-0.39,2.31-0.61c0.04,0.39-0.17,0.74-0.3,1.09c-0.65,1.78-1.3,3.57-1.96,5.31
		C67.13,72.99,66.78,73.95,66.47,74.86"/>
	<path id="Fill-27" class="st4" d="M67.39,66.25c-0.09,0.78-0.48,1.52-0.74,2.26c-0.7,1.96-1.44,3.91-2.17,5.87
		c-0.17,0.43-0.39,0.83-0.43,1.3c-0.74,0.26-1.48,0.52-2.22,0.78c0.09-0.83,0.48-1.61,0.78-2.39c0.83-2.35,1.7-4.65,2.57-6.96
		c0.04-0.13,0.04-0.22-0.13-0.22C65.82,66.59,66.6,66.38,67.39,66.25"/>
	<path id="Fill-29" class="st5" d="M66.47,74.86c0.35-0.96,0.65-1.87,1-2.83c0.65-1.78,1.3-3.52,1.96-5.31
		c0.13-0.35,0.35-0.7,0.3-1.09c0.7-0.22,1.44-0.39,2.13-0.52c0.22,0.22,0.04,0.39-0.04,0.57c-0.13,0.43-0.3,0.87-0.48,1.26
		c-0.74,1.96-1.44,3.87-2.17,5.83c-0.17,0.43-0.39,0.83-0.39,1.35C68,74.38,67.26,74.64,66.47,74.86"/>
	<path id="Fill-31" class="st6" d="M53.38,79.95c0.48-1.22,1.09-2.35,1.61-3.52c1.17-2.48,2.31-4.96,3.48-7.44
		c0.04-0.13,0.17-0.26,0.22-0.39c0.39-0.09,0.78-0.22,1.17-0.3c0,0.13-0.04,0.26-0.09,0.39c-0.22,0.57-0.43,1.17-0.65,1.74
		c-0.83,2.22-1.65,4.44-2.44,6.66c-0.17,0.52-0.48,1-0.48,1.52C55.25,79.03,54.29,79.47,53.38,79.95"/>
	<path id="Fill-33" class="st7" d="M56.21,78.56c0-0.57,0.3-1.04,0.48-1.52c0.78-2.22,1.61-4.44,2.44-6.66
		c0.22-0.57,0.43-1.17,0.65-1.74c0.04-0.13,0.09-0.26,0.09-0.39c0.61-0.17,1.26-0.35,1.87-0.52c0,0.13-0.04,0.26-0.09,0.39
		c-0.22,0.52-0.43,1.09-0.61,1.61c-0.74,2.04-1.52,4.05-2.26,6.09c-0.22,0.65-0.52,1.26-0.65,1.91
		C57.51,78.03,56.86,78.29,56.21,78.56"/>
	<path id="Fill-35" class="st8" d="M77.48,63.81c0.22,0.17,0.13,0.35,0.04,0.52c-0.91,2.52-1.87,5.05-2.78,7.57
		c-0.09,0.17-0.13,0.39-0.13,0.57c-0.7,0.22-1.44,0.39-2.13,0.61c0-0.09,0-0.17,0.04-0.26c0.3-0.83,0.61-1.65,0.91-2.48
		c0.7-1.91,1.44-3.78,2.13-5.7c0.04-0.09,0.17-0.26,0-0.39C76.17,64.03,76.83,63.98,77.48,63.81"/>
	<path id="Fill-37" class="st9" d="M65.08,66.86c0.17,0,0.17,0.09,0.13,0.22c-0.87,2.31-1.74,4.65-2.57,6.96
		c-0.3,0.78-0.7,1.52-0.78,2.35c-0.65,0.22-1.3,0.48-1.96,0.7c0.09-0.57,0.35-1.04,0.52-1.57c0.7-1.96,1.48-3.87,2.17-5.83
		c0.3-0.78,0.65-1.57,0.83-2.39C63.95,67.07,64.52,66.94,65.08,66.86"/>
	<path id="Fill-39" class="st10" d="M68.78,74.16c0-0.48,0.26-0.91,0.39-1.35c0.7-1.96,1.44-3.87,2.17-5.83
		c0.17-0.43,0.35-0.83,0.48-1.26c0.04-0.17,0.26-0.39,0.04-0.57c0.61-0.22,1.26-0.3,1.91-0.48c0.13,0.13,0.04,0.26,0,0.39
		c-0.83,2.22-1.65,4.44-2.48,6.7c-0.22,0.61-0.52,1.22-0.61,1.87C70.04,73.77,69.43,73.95,68.78,74.16"/>
	<path id="Fill-41" class="st11" d="M63.39,67.29c-0.17,0.83-0.57,1.61-0.83,2.39c-0.7,1.96-1.44,3.87-2.17,5.83
		c-0.17,0.52-0.43,1-0.52,1.57c-0.57,0.22-1.13,0.43-1.7,0.65c0.13-0.7,0.43-1.3,0.65-1.91c0.74-2.04,1.52-4.09,2.26-6.09
		c0.22-0.57,0.39-1.09,0.61-1.61c0.04-0.13,0.09-0.26,0.09-0.39C62.3,67.55,62.82,67.42,63.39,67.29"/>
	<path id="Fill-43" class="st12" d="M70.65,73.6c0.09-0.65,0.39-1.26,0.61-1.87c0.83-2.22,1.65-4.44,2.48-6.7
		c0.04-0.13,0.17-0.26,0-0.39c0.61-0.13,1.17-0.26,1.78-0.39c0.17,0.13,0.04,0.26,0,0.39c-0.7,1.91-1.39,3.83-2.13,5.7
		c-0.3,0.83-0.61,1.65-0.91,2.48c-0.04,0.09,0,0.17-0.04,0.26C71.87,73.25,71.26,73.42,70.65,73.6"/>
</g>
</svg>
