<?xml version="1.0" encoding="utf-8"?>
<!-- Generator: Adobe Illustrator 25.4.1, SVG Export Plug-In . SVG Version: 6.00 Build 0)  -->
<svg version="1.1" id="Layer_2" xmlns="http://www.w3.org/2000/svg" xmlns:xlink="http://www.w3.org/1999/xlink" x="0px" y="0px"
	 viewBox="0 0 279.08 80.27" style="enable-background:new 0 0 279.08 80.27;" xml:space="preserve">
<style type="text/css">
	.st0{fill:url(#SVGID_1_);}
	.st1{fill:url(#SVGID_00000182497300178169406490000002563542374793940103_);}
	.st2{fill:url(#SVGID_00000116943523509746277470000010101291062858124209_);}
	.st3{fill:url(#SVGID_00000087375266371859451070000017971214754118145941_);}
</style>
<linearGradient id="SVGID_1_" gradientUnits="userSpaceOnUse" x1="221.2967" y1="46.2259" x2="164.6584" y2="66.6154" gradientTransform="matrix(1 0.144 0.041 -1.013 38.4898 63.9304)">
	<stop  offset="0" style="stop-color:#E5E5E5"/>
	<stop  offset="0.119" style="stop-color:#EEEEEE"/>
	<stop  offset="0.264" style="stop-color:#FFFFFF"/>
	<stop  offset="0.455" style="stop-color:#FBFBFB"/>
	<stop  offset="0.635" style="stop-color:#F0F0F0"/>
	<stop  offset="0.81" style="stop-color:#DDDDDD"/>
	<stop  offset="0.981" style="stop-color:#C2C2C2"/>
	<stop  offset="1" style="stop-color:#BFBFBF"/>
</linearGradient>
<path class="st0" d="M278.24,51.37c-2.67-7.08-9.31-12.34-19.21-16.88C235.72,23.79,202.66,15.32,199.44,0
	c1.62,27.41,39.38,31.46,61.25,41.76c5.38,2.53,9.93,6.65,12.65,9.42c4.33,4.41,2.23,15.03-2.36,19.43
	C280.4,63.74,279.65,55.12,278.24,51.37z"/>
<linearGradient id="SVGID_00000045606048304914296200000002677559347187025568_" gradientUnits="userSpaceOnUse" x1="164.6281" y1="57.7479" x2="164.9938" y2="8.2653" gradientTransform="matrix(1.024 -0.207 -0.563 -0.918 93.2389 104.5789)">
	<stop  offset="0.093" style="stop-color:#7FBB85"/>
	<stop  offset="0.167" style="stop-color:#73B874"/>
	<stop  offset="0.338" style="stop-color:#5AAF53"/>
	<stop  offset="0.486" style="stop-color:#45A73D"/>
	<stop  offset="0.604" style="stop-color:#38A231"/>
	<stop  offset="0.676" style="stop-color:#33A02C"/>
	<stop  offset="0.885" style="stop-color:#00742F"/>
</linearGradient>
<path style="fill:url(#SVGID_00000045606048304914296200000002677559347187025568_);" d="M269.6,46.23
	c-16.54-11.56-58.82-19.45-63.08-26.59c8.59,21.95,48.9,20.81,63.66,34.37c11.18,10.27-1.24,18.16-4.14,20
	C276.58,68.18,283.31,55.82,269.6,46.23z"/>
<linearGradient id="SVGID_00000052101728903315491900000018249275003681659806_" gradientUnits="userSpaceOnUse" x1="171.6285" y1="60.4927" x2="171.8589" y2="29.276" gradientTransform="matrix(1.048 4.000000e-03 -0.388 -0.956 82.5634 89.7442)">
	<stop  offset="0.066" style="stop-color:#E36853"/>
	<stop  offset="0.352" style="stop-color:#FF0000"/>
	<stop  offset="0.533" style="stop-color:#FD0002"/>
	<stop  offset="0.628" style="stop-color:#F40006"/>
	<stop  offset="0.702" style="stop-color:#E70009"/>
	<stop  offset="0.766" style="stop-color:#D3000C"/>
	<stop  offset="0.823" style="stop-color:#BA0010"/>
	<stop  offset="0.85" style="stop-color:#AB0012"/>
</linearGradient>
<path style="fill:url(#SVGID_00000052101728903315491900000018249275003681659806_);" d="M275.29,61.33
	C274.77,44,224.5,40.37,213.31,31.17c13.4,21.91,57.51,20.66,60.51,32.14c0.65,2.49-0.87,4.9-2.64,6.67
	C273.66,67.53,275.41,65.44,275.29,61.33z"/>
<linearGradient id="SVGID_00000004546017759044062590000007376253725300219534_" gradientUnits="userSpaceOnUse" x1="261.8153" y1="11.604" x2="274.0135" y2="33.8324" gradientTransform="matrix(1 0.029 0.029 -1 9.452754e-03 78.6838)">
	<stop  offset="0.066" style="stop-color:#E36853"/>
	<stop  offset="0.352" style="stop-color:#FF0000"/>
	<stop  offset="0.533" style="stop-color:#FD0002"/>
	<stop  offset="0.628" style="stop-color:#F40006"/>
	<stop  offset="0.702" style="stop-color:#E70009"/>
	<stop  offset="0.766" style="stop-color:#D3000C"/>
	<stop  offset="0.823" style="stop-color:#BA0010"/>
	<stop  offset="0.85" style="stop-color:#AB0012"/>
</linearGradient>
<path style="fill:url(#SVGID_00000004546017759044062590000007376253725300219534_);" d="M252.38,79.91
	c15.18-5.09,22.32-17.38,13.67-21.51C282.25,63.41,270.57,74.4,252.38,79.91z"/>
<path d="M58.87,33.92l-0.03,0.12l-6.78,25.1h2.12c2.22,0,4-1.55,4.58-3.88l5.75-21.33C64.5,33.92,58.87,33.92,58.87,33.92z
	 M28.75,35.04L28.75,35.04c-0.3-0.41-0.69-0.74-1.16-1.01c-0.48-0.26-1.02-0.45-1.63-0.58c-0.64-0.13-1.54-0.18-2.74-0.18
	c-0.85,0-1.86-0.02-3.16,0.02c-0.85,0.02-1.6,0.04-2.27,0.05c-3.12,0.01-5.32,2.18-6.22,5.53c-0.38,1.34-0.91,3.02-1.48,4.97
	c-1.15,3.91-1.97,6.67-2.48,8.28c-0.33,1.05-0.94,2.9-1.24,3.78c-0.26,0.78-0.86,1.74-1.4,2.13l-1.52,1.12h9.52
	c3.21,0,5.32-0.09,6.44-0.29c1.1-0.2,2.16-0.6,3.15-1.19c1.01-0.61,1.89-1.43,2.61-2.46c0.73-1.02,1.25-2.16,1.55-3.38
	c0.13-0.55,0.21-1.09,0.23-1.6v0l0-0.07l0.01-0.28c0-0.43-0.04-0.85-0.12-1.23c-0.1-0.48-0.27-0.93-0.52-1.35
	c-0.24-0.41-0.54-0.78-0.88-1.06c-0.21-0.17-0.42-0.32-0.63-0.44l0.02-0.01c0.42-0.21,0.86-0.5,1.33-0.86
	c0.49-0.38,0.95-0.83,1.36-1.35c0.42-0.53,0.78-1.12,1.09-1.76c0.31-0.65,0.55-1.33,0.72-2.04c0.13-0.54,0.2-1.08,0.22-1.61
	l0.01-0.11v-0.17c0-0.51-0.06-1-0.19-1.47C29.25,35.89,29.04,35.43,28.75,35.04z M21.08,50.19c-0.01,0.22-0.05,0.47-0.12,0.75
	c-0.09,0.36-0.22,0.71-0.39,1.05c-0.17,0.34-0.37,0.64-0.58,0.91c-0.21,0.26-0.42,0.46-0.64,0.62c-0.2,0.15-0.5,0.3-0.88,0.46
	c-0.38,0.15-0.75,0.26-1.14,0.31c-0.38,0.06-0.95,0.09-1.67,0.09h-2.88l1.79-6.11h3.57l0.05,0c0.86,0,1.48,0.08,1.76,0.18
	c0.33,0.11,0.56,0.27,0.76,0.49c0.19,0.22,0.3,0.47,0.35,0.79c0.02,0.1,0.02,0.21,0.02,0.33C21.09,50.06,21.08,50.19,21.08,50.19z
	 M23.44,39.59c-0.01,0.18-0.03,0.37-0.08,0.58l-0.02,0.06c-0.09,0.4-0.25,0.79-0.46,1.18c-0.21,0.38-0.47,0.73-0.81,1.05
	c-0.32,0.31-0.66,0.53-1.03,0.67c-0.43,0.16-0.81,0.26-1.15,0.32c-0.31,0.05-1.06,0.08-2.13,0.08h-1.77
	c0.34-1.19,1.04-3.48,1.28-4.33c0.36-1.05,0.57-1.11,1.2-1.19c0.8-0.03,2.41,0,2.41,0l0.05,0c0.74,0,1.29,0.06,1.56,0.15
	c0.31,0.09,0.51,0.22,0.67,0.39c0.14,0.16,0.23,0.35,0.26,0.65l0.02,0.27C23.44,39.46,23.44,39.59,23.44,39.59z M47.25,57.03
	c0.05-0.29,0.12-0.63,0.2-0.9l4.3-16.43h-5.53l-2.82,10.37c-0.36,1.65-0.77,2.83-1.39,3.54c-0.62,0.7-1.46,1.09-3.09,1.1h-0.01
	c-0.96,0-1.54-0.18-1.8-0.39c-0.25-0.21-0.36-0.42-0.36-0.95v-0.08c0.01-0.35,0.09-0.79,0.24-1.32l3.3-12.27h-5.63l-3.35,12.39
	c-0.26,1.01-0.41,1.9-0.43,2.7l-0.01,0.27c0,1.26,0.38,2.35,1.26,3.05c0.94,0.74,2.28,1.03,4.08,1.03h0.22
	c1.76,0,3.57-0.17,5.09-1.33l-0.27,1.23h7.08l-0.81-1.02C47.36,57.78,47.19,57.43,47.25,57.03z M183.07,57.99
	c-0.32-0.41-0.46-0.84-0.47-1.47l0.01,0v-0.27l0,0c0.03-0.86,1.03-18.29,1.08-19.39v-0.04l0-0.23c0.01-1.61-0.85-2.99-2.51-3.14
	c-0.32-0.03-0.62-0.06-0.92-0.06h-0.04c-0.98,0-1.85,0.28-2.74,0.95c-0.69,0.5-1.44,1.34-1.92,2.19
	c-0.43,0.76-11.68,21.68-11.68,21.69l-0.48,0.9l1,0.01l0.54,0l0.62,0h0.03c1.82,0,4.17-0.69,5.51-3.29c0.35-0.67,1.14-2.2,1.5-2.88
	h4.62l-0.44,6.16l7.46,0l-0.35-0.29C183.89,58.85,183.44,58.48,183.07,57.99L183.07,57.99z M177.63,48.67h-2.91l3.34-6.32
	L177.63,48.67z M207.1,39.8h-0.05c-2.74,0-5.12,1.75-5.96,4.94l-3.85,14.39h2.14c2.29,0,4-1.57,4.56-3.88l2.15-7.98
	c0.26-1.04,0.55-1.69,0.93-2.03c0.38-0.35,0.97-0.58,2.17-0.58h1.4c2.59-0.01,4.29-2.1,4.55-4.17l0.07-0.5l0.02-0.19L207.1,39.8
	L207.1,39.8z M153.26,56.02l4.5-16.43h-5.65l-0.28,1.14c-0.38-0.43-0.85-0.73-1.36-0.92c-0.98-0.38-2.09-0.42-3.18-0.43h-0.03
	c-3.08,0-5.28,0.94-6.8,2.61c-1.54,1.67-2.39,3.95-3.09,6.6c-0.56,2.07-1.01,3.91-1.06,5.49l-0.01,0.33c0,1.35,0.34,2.56,1.27,3.4
	c1.01,0.9,2.54,1.31,4.74,1.32h0.2c1.79,0,3.34-0.18,4.87-1.21l-0.23,0.99h6.7l-0.57-0.96c-0.13-0.22-0.21-0.47-0.21-0.86v-0.08
	C153.08,56.76,153.14,56.42,153.26,56.02z M150.27,45.76c-0.03,0.89-0.37,2.23-0.81,3.88h0c-0.53,1.89-1.03,3.13-1.7,3.82
	c-0.66,0.68-1.55,1.02-3.31,1.03h-0.05c-0.95,0.01-1.56-0.14-1.82-0.35c-0.26-0.2-0.4-0.46-0.41-1.2l0.01-0.12
	c0.02-0.67,0.2-1.63,0.53-2.88c0.55-2.02,1-3.59,1.67-4.56c0.68-0.95,1.47-1.43,3.22-1.45h0.02c1.21,0,1.9,0.22,2.21,0.48
	c0.3,0.25,0.43,0.57,0.43,1.22L150.27,45.76L150.27,45.76z M191.84,39.8l-0.03,0.12l-5.16,19.21h2.13c2.23,0,3.9-1.56,4.57-3.86
	l4.13-15.47L191.84,39.8L191.84,39.8z M87.78,39.52h-7.31l-0.12,0.48l-0.17,0.62c-0.38-0.41-0.84-0.69-1.35-0.86
	c-0.94-0.32-2.01-0.34-3.28-0.34h-0.05c-3.34,0-5.59,1-7.08,2.84c-1.5,1.82-2.26,4.33-3.03,7.33c-0.45,1.6-0.77,3.07-0.82,4.39
	l-0.01,0.32c0,1.35,0.35,2.57,1.28,3.43c1.01,0.92,2.54,1.35,4.71,1.35h0.13c1.53,0.01,3.2-0.14,4.72-1.11l-0.1,0.32
	c-0.28,1.09-0.63,1.73-1.21,2.16c-0.58,0.43-1.51,0.69-3.04,0.69h-4.59c-1.79,0-3.04,0.76-3.79,1.69c-0.76,0.96-1.24,3.17-1.25,3.18
	l-0.04,0.2h10.35l0.48,0.01h0.02c2.25,0,4.05-0.39,5.47-1.61c1.41-1.23,2.35-3.17,3.15-6.1l4.28-15.75c0.3-1.23,0.6-1.64,1.19-2.11
	L87.78,39.52L87.78,39.52z M78.53,45.62c-0.02,0.7-0.12,1.33-0.57,2.88c-0.44,1.55-0.98,3.69-1.65,4.57
	c-0.68,0.88-1.57,1.33-3.59,1.35h-0.01c-1.04,0-1.61-0.21-1.86-0.45c-0.24-0.23-0.37-0.55-0.37-1.14l0-0.13
	c0.03-0.91,0.38-2.26,0.82-3.89c0.58-2.14,1.14-3.42,1.78-4.07c0.62-0.64,1.38-0.88,2.82-0.89h0.03c1.16,0,1.86,0.2,2.17,0.45
	c0.3,0.24,0.43,0.53,0.44,1.2L78.53,45.62z M125.94,40.49l0.07-0.5l0.02-0.18h-8.19c-2.74,0-5.12,1.75-5.95,4.94l-3.85,14.39h2.14
	c2.3,0,4-1.57,4.56-3.88l2.15-7.98c0.27-1.04,0.55-1.69,0.93-2.03c0.38-0.35,0.97-0.58,2.17-0.58h1.4
	C123.97,44.66,125.67,42.56,125.94,40.49L125.94,40.49z M103.87,56.02l4.5-16.43h-5.65l-0.28,1.14c-0.38-0.43-0.85-0.73-1.36-0.92
	c-0.98-0.38-2.09-0.43-3.18-0.43h-0.04c-3.08,0-5.27,0.94-6.8,2.61c-1.53,1.67-2.39,3.95-3.08,6.59c-0.56,2.07-1.01,3.91-1.06,5.5
	l-0.01,0.33c0,1.35,0.34,2.56,1.28,3.41c1.01,0.9,2.54,1.32,4.74,1.32h0.22c1.78,0,3.33-0.19,4.86-1.21l-0.23,0.99h6.7l-0.57-0.95
	C103.58,57.41,103.63,56.87,103.87,56.02z M100.89,45.76c-0.03,0.88-0.37,2.19-0.79,3.8l-0.02,0.06c-0.54,1.9-1.03,3.14-1.7,3.83
	c-0.66,0.68-1.55,1.02-3.3,1.03h-0.06c-0.95,0.01-1.56-0.14-1.82-0.35c-0.25-0.2-0.4-0.46-0.4-1.19l0-0.13
	c0.02-0.67,0.2-1.62,0.53-2.88c0.55-2.02,1-3.59,1.67-4.56c0.69-0.95,1.47-1.43,3.22-1.45h0.02l0.01,0c1.21,0,1.9,0.22,2.21,0.49
	c0.3,0.25,0.43,0.57,0.43,1.22C100.89,45.63,100.89,45.76,100.89,45.76z M134.47,40.13l-3.92,15.06c-0.66,2.27-2.25,3.63-4.26,3.63
	h-1.71l5.01-18.68L134.47,40.13L134.47,40.13z M0,79.86l1.64-8.64h1.17l1.99,4.9c0.37,0.97,0.58,1.67,0.76,2.41l0.03-0.01
	c0.05-0.78,0.14-1.5,0.36-2.71l0.87-4.59h1.01l-1.65,8.64H5.12l-1.96-4.88c-0.42-1.06-0.62-1.68-0.81-2.49L2.31,72.5
	c-0.09,0.81-0.23,1.67-0.45,2.85L1,79.86L0,79.86L0,79.86z M12.18,79.86c0-0.37,0.06-0.96,0.14-1.6h-0.03
	C11.61,79.54,10.77,80,9.88,80c-1.09,0-1.78-0.87-1.78-2.05c0-2.15,1.59-4.44,4.3-4.44c0.59,0,1.24,0.1,1.67,0.24l-0.63,3.23
	c-0.21,1.08-0.29,2.18-0.27,2.87L12.18,79.86L12.18,79.86z M12.87,74.45c-0.15-0.04-0.39-0.09-0.74-0.09c-1.6,0-2.91,1.68-2.92,3.4
	c0,0.69,0.24,1.37,1.06,1.37c0.88,0,1.94-1.15,2.24-2.81C12.51,76.32,12.87,74.45,12.87,74.45z M17.54,71.99l-0.32,1.67h1.49
	l-0.17,0.83h-1.49l-0.58,3.01c-0.06,0.35-0.12,0.67-0.12,1c0,0.37,0.18,0.59,0.59,0.59c0.18,0,0.36-0.01,0.5-0.04l-0.05,0.83
	C17.2,79.96,16.88,80,16.57,80c-0.95,0-1.31-0.58-1.31-1.21c0-0.36,0.04-0.72,0.13-1.17l0.62-3.14h-0.9l0.17-0.83h0.88l0.27-1.4
	C16.43,72.26,17.54,71.99,17.54,71.99z M18.77,79.86l1.19-6.21h1.06l-1.19,6.21H18.77z M20.15,71.92c0-0.41,0.32-0.72,0.7-0.72
	c0.39,0,0.63,0.28,0.63,0.67c-0.01,0.42-0.31,0.72-0.72,0.72C20.39,72.59,20.15,72.31,20.15,71.92z M27.65,76.1
	c0,1.91-1.36,3.9-3.44,3.9c-1.55,0-2.42-1.15-2.42-2.55c0-2.04,1.42-3.94,3.44-3.94C26.91,73.51,27.65,74.78,27.65,76.1z
	 M22.89,77.41c0,1.01,0.55,1.74,1.46,1.74c1.26,0,2.21-1.62,2.21-3.06c0-0.72-0.33-1.73-1.45-1.73
	C23.78,74.36,22.88,75.99,22.89,77.41z M28.39,79.86l0.83-4.4c0.14-0.69,0.22-1.29,0.29-1.81h0.95l-0.15,1.22h0.03
	c0.55-0.87,1.38-1.36,2.29-1.36c0.74,0,1.58,0.42,1.58,1.73c0,0.27-0.05,0.67-0.12,1l-0.69,3.62h-1.06l0.68-3.58
	c0.05-0.24,0.09-0.54,0.09-0.79c0-0.63-0.24-1.09-0.97-1.09c-0.76,0-1.83,0.91-2.12,2.45l-0.56,3.01H28.39z M39.35,79.86
	c0-0.37,0.06-0.96,0.14-1.6h-0.03C38.79,79.54,37.94,80,37.06,80c-1.09,0-1.78-0.87-1.78-2.05c0-2.15,1.59-4.44,4.3-4.44
	c0.59,0,1.24,0.1,1.67,0.24l-0.63,3.23c-0.21,1.08-0.29,2.18-0.27,2.87L39.35,79.86L39.35,79.86z M40.05,74.45
	c-0.15-0.04-0.39-0.09-0.74-0.09c-1.6,0-2.91,1.68-2.92,3.4c0,0.69,0.24,1.37,1.06,1.37c0.88,0,1.94-1.15,2.24-2.81
	C39.69,76.32,40.05,74.45,40.05,74.45z M41.94,79.86l1.73-9.1h1.06l-1.74,9.1H41.94z M51.47,79.61c-0.32,0.15-0.96,0.37-1.79,0.37
	c-1.6,0-2.39-1.08-2.39-2.4c0-2.12,1.56-4.06,3.79-4.06c0.58,0,1.1,0.17,1.3,0.27l-0.31,0.85c-0.24-0.12-0.59-0.23-1.05-0.23
	c-1.62,0-2.63,1.59-2.63,3.05c0,1,0.53,1.65,1.54,1.65c0.63,0,1.11-0.19,1.44-0.35C51.36,78.77,51.47,79.61,51.47,79.61z
	 M56.54,79.86c0-0.37,0.06-0.96,0.14-1.6h-0.02C55.98,79.54,55.13,80,54.25,80c-1.09,0-1.78-0.87-1.78-2.05
	c0-2.15,1.59-4.44,4.3-4.44c0.59,0,1.24,0.1,1.67,0.24l-0.63,3.23c-0.21,1.08-0.29,2.18-0.27,2.87L56.54,79.86L56.54,79.86z
	 M57.23,74.45c-0.15-0.04-0.39-0.09-0.74-0.09c-1.6,0-2.91,1.68-2.92,3.4c0,0.69,0.24,1.37,1.06,1.37c0.88,0,1.94-1.15,2.24-2.81
	C56.88,76.32,57.23,74.45,57.23,74.45z M59.12,79.86l0.76-4c0.15-0.81,0.26-1.63,0.32-2.21h0.94c-0.05,0.44-0.1,0.87-0.17,1.35H61
	c0.4-0.85,1.06-1.49,1.9-1.49l0.29,0.03l-0.21,1.05l-0.28-0.02c-0.92,0-1.74,1.12-2.01,2.56l-0.51,2.73
	C60.18,79.86,59.12,79.86,59.12,79.86z M63.19,79.86l0.76-4c0.15-0.81,0.26-1.63,0.32-2.21h0.94c-0.05,0.44-0.1,0.87-0.17,1.35h0.04
	c0.4-0.85,1.06-1.49,1.9-1.49l0.29,0.03l-0.21,1.05l-0.28-0.02c-0.92,0-1.74,1.12-2.01,2.56l-0.51,2.73
	C64.26,79.86,63.19,79.86,63.19,79.86z M67.27,79.86l1.19-6.21h1.06l-1.19,6.21H67.27z M68.66,71.92c0-0.41,0.32-0.72,0.71-0.72
	c0.38,0,0.63,0.28,0.63,0.67c-0.01,0.42-0.31,0.72-0.72,0.72C68.9,72.59,68.66,72.31,68.66,71.92z M74.68,79.5
	c-0.46,0.27-1.22,0.49-2.05,0.49c-1.64,0-2.36-1.12-2.36-2.49c0-1.87,1.38-3.99,3.38-3.99c1.18,0,1.82,0.71,1.82,1.59
	c0,1.63-1.83,2.06-4.13,2.03c-0.05,0.27-0.01,0.85,0.13,1.18c0.24,0.55,0.74,0.83,1.38,0.83c0.73,0,1.28-0.23,1.67-0.44
	C74.53,78.7,74.68,79.5,74.68,79.5z M73.5,74.35c-1.01,0-1.77,0.99-2.03,1.96c1.67,0.01,2.97-0.21,2.97-1.17
	C74.45,74.63,74.06,74.35,73.5,74.35z M76.01,79.86l0.76-4c0.15-0.81,0.26-1.63,0.32-2.21h0.94c-0.05,0.44-0.1,0.87-0.17,1.35h0.04
	c0.4-0.85,1.06-1.49,1.9-1.49l0.29,0.03l-0.21,1.05l-0.28-0.02c-0.92,0-1.74,1.12-2.01,2.56l-0.51,2.73
	C77.08,79.86,76.01,79.86,76.01,79.86z"/>
</svg>
