<?xml version="1.0" encoding="utf-8"?>
<!-- Generator: Adobe Illustrator 25.4.1, SVG Export Plug-In . SVG Version: 6.00 Build 0)  -->
<svg version="1.1" id="Layer_1" xmlns="http://www.w3.org/2000/svg" xmlns:xlink="http://www.w3.org/1999/xlink" x="0px" y="0px"
	 viewBox="0 0 287.78 80" style="enable-background:new 0 0 287.78 80;" xml:space="preserve">
<style type="text/css">
	.st0{fill:#028EAA;}
</style>
<g>
	<path class="st0" d="M75.47,0.15C68-1.51,60.38,12,51.7,26.64C44.6,38.57,41.51,43.4,36.53,43.4c-4.53,0-6.87-4.91-10.49-14.79
		C17.51,5.28,14.72-1.13,8,0.23C3.02,1.21,0,8.6,0,19.02c0,22.64,11.25,60.08,33.21,60.08c26.42,0,48-49.51,48-68.3
		C81.21,5.13,79.62,1.06,75.47,0.15z"/>
	<path class="st0" d="M206.26,0.15c-7.47-1.66-15.09,11.85-23.77,26.49C175.4,38.57,172.3,43.4,167.32,43.4
		c-4.53,0-6.87-4.91-10.49-14.79C148.3,5.28,145.51-1.13,138.79,0.23c-4.98,0.98-8,8.38-8,18.79c0,22.64,11.25,60.08,33.21,60.08
		c26.42,0,48-49.51,48-68.3C212,5.13,210.34,1.06,206.26,0.15z"/>
	<path class="st0" d="M256,0c-12.6,0-24.6,10.72-40.23,43.25c-11.02,22.94-11.4,33.06-4.83,35.4c10.04,3.55,21.21-17.96,30.94-30.26
		c3.77-4.75,6.64-8.08,10.49-8.08s6.04,3.62,8.38,8.68c5.58,12.08,9.74,32.15,20.53,29.89c6.49-1.36,8.53-9.13,4.23-34.49
		C281.36,20.23,272.3,0,256,0z"/>
	<path class="st0" d="M107.77,0c-7.25,0-16.68,14.19-19.47,40c-2.79,25.81,3.17,40,10.87,40c7.25,0,16.68-14.19,19.47-40
		C121.43,14.19,115.4,0,107.77,0z"/>
</g>
</svg>
