<?xml version="1.0" encoding="utf-8"?>
<!-- Generator: Adobe Illustrator 25.4.1, SVG Export Plug-In . SVG Version: 6.00 Build 0)  -->
<svg version="1.1" id="Layer_1" xmlns="http://www.w3.org/2000/svg" xmlns:xlink="http://www.w3.org/1999/xlink" x="0px" y="0px"
	 viewBox="0 0 491.5 80" style="enable-background:new 0 0 491.5 80;" xml:space="preserve">
<style type="text/css">
	.st0{fill:#197EF2;}
</style>
<g>
	<g>
		<path class="st0" d="M317.4,42.3c-0.5-0.5-0.9-0.9-1.5-1.3c-0.3,0.3-0.7,0.7-1,1.1c0.5,0.4,1,0.8,1.5,1.2
			C316.8,43.1,317.1,42.8,317.4,42.3L317.4,42.3z"/>
		<path class="st0" d="M319.9,42.1c-0.5-0.5-0.9-0.9-1.5-1.3c-0.3,0.3-0.7,0.7-1,1.1c0.5,0.4,1,0.8,1.5,1.2
			C319.3,42.9,319.6,42.6,319.9,42.1L319.9,42.1z"/>
		<path class="st0" d="M332.2,47.3c0-1.2-1.3-2.7-3.3-4.2l0.3-0.6l-2.1-0.7v-0.1c1.4-0.6,2.8-1.1,4.2-1.5c0.7-0.2,1.4-0.4,2.1-0.6
			c0.3-0.5,0.7-1,1-1.5l-0.1-0.1c-3,0.9-5.4,1.7-6.9,2.4c-0.6,0.3-0.8,0.5-1,0.7c-0.2,0.3-0.3,0.5-0.3,0.8c0,0.4,0.1,0.8,0.5,1.1
			c2.1,1.5,3.3,2.6,3.9,3.3c0.5,0.6,0.9,1.2,0.9,1.8c0,0.1-0.2,0.4-0.7,0.6c-0.9,0.5-2.1,0.6-3.4,0.6h-1c-0.7,0-1.1-0.1-1.5-0.4
			c-0.3-0.2-0.4-0.5-0.4-1c0-0.3,0.1-0.9,0.3-1.4l-0.1-0.1l-0.9,0.6l-0.6,1.6c-0.5,0.2-1.1,0.4-1.7,0.5c-1.4,0.3-2.9,0.5-4.4,0.5
			c-1.6,0-3-0.2-4.1-0.7c-1-0.6-1.7-1.5-1.7-2.6c0-0.5,0.1-1.1,0.4-1.8l-0.5-0.2c-0.5,0.9-0.8,1.8-0.7,2.9c0,1.4,0.7,2.5,1.9,3.2
			c1.1,0.7,2.6,0.9,4.4,0.9c1.6,0,3.5-0.3,5-0.7c0.9-0.2,1.6-0.5,2-0.7c0.5,0.8,1.4,1,2.6,1h0.8c2.4,0,3.7-0.4,4.5-1.1
			C331.9,49.2,332.2,48.3,332.2,47.3L332.2,47.3z"/>
		<path class="st0" d="M346.6,44.8c0.4-0.3,0.6-0.6,1-1.1c-0.5-0.5-0.9-0.9-1.5-1.3c-0.3,0.3-0.7,0.7-1,1.1
			C345.6,43.9,346.1,44.3,346.6,44.8L346.6,44.8z"/>
		<path class="st0" d="M345.8,41.3c-0.5-0.5-0.9-0.9-1.5-1.3c-0.3,0.3-0.7,0.7-1,1.1c0.5,0.4,1,0.8,1.5,1.2
			C345.2,42.1,345.4,41.8,345.8,41.3L345.8,41.3z"/>
		<path class="st0" d="M345.1,43.8c-0.5-0.5-0.9-0.9-1.5-1.3c-0.3,0.3-0.7,0.7-1,1.1c0.5,0.4,1,0.8,1.5,1.2
			C344.5,44.6,344.7,44.3,345.1,43.8L345.1,43.8z"/>
		<path class="st0" d="M348.5,45.7c-0.4,0.3-0.8,0.7-1.2,1.1c0.2,0.7,0.3,1.5,0.3,1.9c0,0.3-0.3,0.5-0.7,0.5c-0.6,0-1.3-0.5-1.3-1.4
			c0-0.3,0.1-0.8,0.2-1.2l-0.1,0l-0.8,0.4c-0.4,1.2-0.5,1.6-0.9,1.9c-0.3,0.2-0.7,0.3-1.1,0.3c-0.9,0-1.6-0.7-1.6-1.6
			c0-0.2,0-0.5,0.1-0.7l0-0.1c-1.6,0.3-3.2,0.8-4.8,1.4c-0.2,0.5-0.3,1-0.4,1.4c0.5,0.5,0.9,1,0.9,1.4c0,0.6-0.4,1.2-1.3,1.9
			c-1,0.8-2.1,1.3-3.3,1.3c-0.5,0-1.1-0.1-1.6-0.3l-0.2,0.3c1.2,0.7,2.2,1.2,3.1,1.2c0.8,0,1.7-0.4,2.8-1.4c0.6-0.7,1-1.4,1-2.2
			c0-0.5,0.1-1,0.1-1.5c0-0.3-0.1-0.6-0.2-0.9c0.8-0.4,1.7-0.6,3-1c0,1.4,0.9,2.2,2.1,2.2c0.9,0,1.6-0.5,2-1h0.1
			c0.5,0.6,1.1,1,1.6,1c0.7,0,1.4-0.5,1.9-1.3c0.2-0.4,0.5-1.1,0.5-1.6c0-0.5-0.1-1.2-0.2-2.1L348.5,45.7z"/>
		<path class="st0" d="M368.2,50.8c2,0,2.9-0.2,3.4-0.7c0.5-0.6,0.9-1.3,0.9-2.2c0-1.2-0.7-2.6-1.3-3.6h-0.1c-0.4,0.4-0.7,0.9-1,1.3
			c0.7,1.2,1.3,2.4,1.3,2.9c0,0.2-0.3,0.4-0.7,0.5c-0.6,0.2-1.4,0.2-2.5,0.2h-4.7l-0.9,1.3l0.1,0.2c2,0,3.4,0.5,3.7,1.1
			c-0.1,0.2-0.6,0.5-1.2,0.8c-1.6,0.7-2.9,1-4.1,1c-1.2,0-2.3-0.4-3.1-1.1c-0.7-0.6-1-1.6-1-2.6c0-0.8,0.2-1.8,0.8-3l-0.5-0.2
			c-0.7,1.1-1.2,2.7-1.2,3.9c0,1.3,0.3,2.5,1.1,3.3c0.7,0.7,1.9,1.3,3.5,1.3c1.9,0,4.3-0.8,6-2.2c0.2-0.2,0.6-1.1,0.6-1.5
			c0-0.2,0-0.5-0.1-0.9L368.2,50.8z"/>
		<path class="st0" d="M370.5,54.1c0.5,0.4,1,0.8,1.5,1.2c0.4-0.3,0.6-0.6,1-1.1c-0.5-0.5-0.9-0.9-1.5-1.3
			C371.2,53.3,370.8,53.7,370.5,54.1L370.5,54.1z"/>
		<path class="st0" d="M368,54.3c0.5,0.4,1,0.8,1.5,1.2c0.4-0.3,0.6-0.6,1-1.1c-0.5-0.5-0.9-0.9-1.5-1.3
			C368.7,53.5,368.4,53.9,368,54.3L368,54.3z"/>
		<path class="st0" d="M376.1,38.9c-0.4,0.4-0.9,0.8-1.3,1.3c0.2,2,0.5,5.2,0.5,7.3v1.2c0,0.8,0,1.6-0.1,2.4l0.2,0.1
			c0.7-0.7,1.1-1.3,1.1-1.9c0.1-0.5,0.1-1.2,0.1-1.9c0-2.8-0.1-5.7-0.3-8.3L376.1,38.9z"/>
		<path class="st0" d="M394.9,46.1L394.9,46.1c-1.5-1-3.3-2-4.5-3.1h-0.1c-0.1,0.4-0.2,0.8-0.2,1.2c-0.5,0.3-0.9,0.6-1.3,1.1
			c-0.6,0.7-0.8,1.4-0.8,2.1c0,0.5,0.1,1.1,0.3,1.6c-0.8,0.3-1.7,0.3-2.3,0.3h-1.4c-0.4-2.4-1.6-4-2.8-4c-0.8,0-1.5,0.5-2,1.1
			c-0.4,0.5-0.7,1.2-0.6,1.9c0,1.7,1.3,2.4,4,2.4h0.6c-0.2,0.6-0.6,1.1-1.2,1.7c-1.1,1-2.3,1.6-3.6,1.6c-0.8,0-1.4-0.2-1.9-0.4
			l-0.2,0.4c1.2,0.7,2.5,1.2,3.7,1.2c0.7,0,2.1-0.6,3.1-2c0.5-0.7,0.9-1.7,1-2.4h1.4c1,0,2.1-0.3,3.5-0.8c1.7,0.5,3.3,0.8,4.4,0.8
			c1.8,0,2.6-1,2.6-2.2C396.5,47.5,396,46.8,394.9,46.1z M381.4,49.1L381.4,49.1c-0.8-0.2-1.4-0.6-1.4-1.2c0-0.5,0.7-1,1.5-1
			c0.5,0,1,0.2,1.4,0.7c0.4,0.4,0.7,1.1,0.9,1.7C382.9,49.3,382.1,49.3,381.4,49.1z M390,48.6c-0.9-0.4-1.4-1-1.4-1.4
			c0-0.6,1.2-1.9,2.1-1.9c0.5,0,1.3,0.9,1.3,1.9C392.1,47.9,390.7,48.4,390,48.6z M394.3,49.5c-0.9,0-1.7-0.1-2.4-0.3
			c0.6-0.9,0.9-1.8,1-2.8c1.6,1,2.8,1.8,2.8,2.6C395.7,49.2,395,49.5,394.3,49.5z"/>
		<path class="st0" d="M409.6,41.4c-0.5-0.5-1-0.9-1.5-1.3c-0.3,0.4-0.7,0.8-1,1.2c0.5,0.4,1,0.8,1.5,1.2
			C408.9,42.2,409.3,41.8,409.6,41.4z"/>
		<path class="st0" d="M411.4,44c-0.4,0.5-0.7,1-1,1.5c0.4,0.6,0.8,1.4,1.1,2.3c0.2,0.6,0.4,1.3,0.4,2.1c0,0.2-0.3,0.6-0.9,1
			c-0.8,0.6-2.1,1-3.1,1c-1,0-1.9-0.3-2.4-0.8c-0.5-0.4-0.9-1.1-0.9-2c0-0.5,0.3-1.5,0.7-2.2l-0.5-0.2c-0.6,0.9-1.1,1.9-1.1,3.4
			c0,2.1,1.5,3.6,3.9,3.6c1.5,0,3.2-0.7,4.3-1.8c0.5-0.5,0.9-1.8,0.9-3C412.9,47,412.4,45.5,411.4,44L411.4,44z"/>
		<path class="st0" d="M424.6,41.7c-0.5-0.5-1-0.9-1.5-1.3c-0.3,0.4-0.7,0.8-1,1.2c0.5,0.4,1,0.8,1.5,1.2
			C423.9,42.5,424.3,42.1,424.6,41.7z"/>
		<path class="st0" d="M432.4,40.1c-0.5-0.5-1-0.9-1.5-1.3c-0.4,0.4-0.7,0.8-1,1.2c0.5,0.4,1,0.8,1.5,1.2
			C431.8,41,432.2,40.6,432.4,40.1z"/>
		<g>
			<polygon class="st0" points="431.5,42.6 431.5,42.6 431.5,42.6 			"/>
			<path class="st0" d="M433.9,44.9c-0.5-1.4-1.4-2.3-2.4-2.3c-0.6,0-1.1,0.3-1.7,0.8c-0.6,0.6-1,1.5-1,2.3c0,0.3,0.1,0.6,0.2,0.9
				c0.4,0.9,1.6,1.3,3.1,1.3c0.5,0,1,0,1.5,0c0,0.1,0,0.2,0,0.3c0,0.3-0.7,0.7-1.5,1c-0.7,0.2-1.7,0.2-2.8,0.2h-1.6
				c-1.1,0-2.1-0.2-2.9-0.6v0l2.2-1.9l0.4-1.3c-1-0.4-2.2-0.6-3.7-0.6c-1.3,0-2.4,0.2-3.4,0.4l-0.4,0l-0.5,1.4l0,0h0.4
				c0.2,0,0.6,0.2,0.9,0.5c0.6,0.5,1.2,1.2,1.8,1.5v0c-1.4,0.5-2.2,0.6-3.4,0.6h-0.7c-0.3,0-0.5,0-0.8-0.1c-0.5-0.2-1-0.5-1-1.3
				v-0.7c0-2.9,0-6-0.2-8.6l-0.1,0c-0.4,0.3-0.8,0.7-1.2,1.1c0.2,2.5,0.3,4.8,0.3,7.1c0,1.7,0,2.6,0.8,3.3c0.5,0.5,1.2,0.7,2.2,0.7
				h0.5c1.5,0,2.9-0.3,4.5-1.4h0c1.2,0.9,2.8,1.4,4.3,1.4h1.4c2.3,0,3.8-0.3,4.6-1.2c0.4-0.5,0.6-1.1,0.6-1.9
				C434.4,46.6,434.2,45.7,433.9,44.9z M429.6,45.2c0-0.4,0.7-1.1,1.5-1.1c1,0,1.9,1.2,2.2,2.3C431.3,46.5,429.6,46.2,429.6,45.2z
				 M423.8,48.1c-0.5-0.3-1.1-0.7-1.6-1.2c-0.3-0.2-0.5-0.5-0.7-0.7v0c0.8-0.1,1.6-0.2,2.4-0.2c0.9,0,1.7,0.1,2.4,0.3v0
				C425.3,47.1,424.6,47.6,423.8,48.1L423.8,48.1z"/>
		</g>
		<path class="st0" d="M437.9,38.9c-0.4,0.4-0.9,0.8-1.3,1.3c0.2,2,0.5,5.2,0.5,7.3v1.2c0,0.8,0,1.6-0.1,2.4l0.2,0.1
			c0.7-0.7,1.1-1.3,1.1-1.9c0.1-0.5,0.1-1.2,0.1-1.9c0-2.8-0.1-5.7-0.3-8.3L437.9,38.9z"/>
		<path class="st0" d="M452.5,44.3c-0.4,0.4-0.7,0.9-1,1.3c0.7,1.2,1.3,2.4,1.3,2.9c0,0.2-0.3,0.4-0.7,0.5c-0.6,0.2-1.4,0.2-2.5,0.2
			h-0.4c-0.2,0-0.5,0-0.8-0.1c-0.5-0.2-1-0.5-1-1.3v-0.7c0-2.9,0-6-0.2-8.6l-0.1,0c-0.4,0.3-0.8,0.7-1.2,1.1
			c0.2,2.5,0.3,4.8,0.3,7.1c0,1.7,0,2.6,0.8,3.3c0.5,0.5,1.2,0.7,2.2,0.7h0.3c2,0,2.9-0.2,3.4-0.7c0.5-0.6,0.9-1.3,0.9-2.2
			C453.9,46.7,453.2,45.2,452.5,44.3L452.5,44.3z"/>
		<path class="st0" d="M452.9,41.8c-0.5-0.5-1-0.9-1.5-1.3c-0.3,0.4-0.7,0.8-1,1.2c0.5,0.4,1,0.8,1.5,1.2
			C452.3,42.6,452.6,42.2,452.9,41.8L452.9,41.8z"/>
		<path class="st0" d="M459.5,54.3c0.5,0.4,1,0.8,1.5,1.2c0.4-0.3,0.6-0.6,1-1.1c-0.5-0.5-0.9-0.9-1.5-1.3
			C460.2,53.5,459.8,53.9,459.5,54.3L459.5,54.3z"/>
		<path class="st0" d="M462,54.1c0.5,0.4,1,0.8,1.5,1.2c0.4-0.3,0.6-0.6,1-1.1c-0.5-0.5-0.9-0.9-1.5-1.3
			C462.7,53.3,462.3,53.7,462,54.1L462,54.1z"/>
		<path class="st0" d="M463.1,50.1c0.5-0.6,0.9-1.3,0.9-2.2c0-1.2-0.7-2.6-1.3-3.6h-0.1c-0.4,0.4-0.7,0.9-1,1.3
			c0.7,1.2,1.3,2.4,1.3,2.9c0,0.2-0.3,0.4-0.7,0.5c-0.6,0.2-1.4,0.2-2.5,0.2h-0.4c-0.2,0-0.5,0-0.8-0.1c-0.5-0.2-1-0.5-1-1.3v-0.7
			c0-2.9,0-6-0.2-8.6l-0.1,0c-0.4,0.3-0.8,0.7-1.2,1.1c0.2,2.5,0.3,4.8,0.3,7.1c0,1.7,0,2.6,0.8,3.3c0.5,0.5,1.2,0.7,2.2,0.7h0.3
			C461.7,50.8,462.6,50.6,463.1,50.1L463.1,50.1z"/>
		<path class="st0" d="M470.7,44.7L470.7,44.7c-0.4,0.5-0.7,1-1,1.5c0.6,0.8,1.1,1.7,1.5,2.6c0.1,0.2,0.2,0.4,0.2,0.6
			c0,0.1,0,0.3-0.1,0.5c-0.9,1.7-2.7,3.2-4.5,3.2c-0.5,0-1-0.1-1.4-0.2l-0.1,0.4c1.3,0.6,2.4,0.9,3.3,0.9c0.6,0,1.3-0.3,2.1-1.1
			c1-1.1,1.6-2.2,1.6-3.3v-1.3c0-1-0.3-1.7-0.6-2.2L470.7,44.7z"/>
		<path class="st0" d="M477.6,36.8c-0.3,0.1-0.7,0.2-1.1,0.2c-1,0-1.9-0.3-2.8-0.3c-0.9,0-1.2,0.7-1.2,1.3l0.4,0.7h0.1
			c0.3-0.5,0.5-0.9,0.7-0.9c0.6,0,1.6,0.2,2.4,0.2c0.7,0,1.3-0.2,1.8-0.6c0.1-0.2,0.2-0.5,0.4-0.9l-0.1-0.1
			C478.1,36.6,477.8,36.7,477.6,36.8L477.6,36.8z"/>
		<path class="st0" d="M475.9,38.9c-0.4,0.4-0.9,0.8-1.3,1.3c0.2,2,0.5,5.2,0.5,7.3v1.2c0,0.8,0,1.6-0.1,2.4l0.2,0.1
			c0.7-0.7,1.1-1.3,1.1-1.9c0.1-0.5,0.1-1.2,0.1-1.9c0-2.8-0.1-5.7-0.3-8.3L475.9,38.9z"/>
		<path class="st0" d="M490.2,45c-0.9-1-2-1.8-3.1-2.5l-0.1,0c-0.3,0.4-0.6,1.1-0.6,1.3c0,0.1,0.1,0.3,0.4,0.4
			c0.9,0.4,1.9,1.1,2.6,1.8c0.7,0.8,1.2,1.6,1.2,2.2c0,0.1-0.1,0.2-0.3,0.3c-0.9,0.5-1.8,0.8-2.8,0.8c-1.6,0-2.1-0.8-2.1-1.8H485
			c-0.1,0.4-0.1,0.7-0.1,0.9c0,1.7,1,2.5,2.5,2.5c1.2,0,2.4-0.5,3.6-1.1c0.3-0.6,0.5-1.3,0.5-2.1C491.5,46.8,491,45.9,490.2,45
			L490.2,45z"/>
	</g>
	<g>
		<polygon class="st0" points="100.7,18.5 109.5,5 8,0 61.5,22 0,27.4 42.4,38.3 11.9,67.4 71.3,44.1 43.7,80 121.2,39.1 
			105.7,30.6 146.9,14.4 		"/>
		<path class="st0" d="M170.2,10.9L164,29.2h3.2l1.4-4.3h7.1l1.4,4.3h3.3l-6.1-18.3H170.2z M169,23.1l3.1-10h0.1l3,10H169z"/>
		<path class="st0" d="M193.6,20.2c0.5-0.2,0.9-0.5,1.4-0.9c0.4-0.4,0.7-0.9,1-1.4c0.3-0.6,0.4-1.2,0.4-1.9c0-0.9-0.2-1.7-0.5-2.3
			c-0.3-0.6-0.8-1.2-1.4-1.6c-0.6-0.4-1.3-0.7-2.1-0.9c-0.8-0.2-1.7-0.3-2.6-0.3h-6.4v18.3h3.1v-8.2h2.9l4.2,8.2h3.4l-4.6-8.6
			C192.7,20.5,193.1,20.4,193.6,20.2z M189.3,19.2h-2.9v-6.4h2.8c0.5,0,1,0,1.5,0.1c0.5,0.1,0.9,0.3,1.3,0.5c0.4,0.2,0.7,0.6,0.9,1
			c0.2,0.4,0.3,0.9,0.3,1.5c0,1-0.4,1.8-1.1,2.4C191.4,19,190.5,19.2,189.3,19.2z"/>
		<rect x="200.5" y="10.9" class="st0" width="3.1" height="18.3"/>
		<path class="st0" d="M212.8,10.9l-6.2,18.3h3.2l1.4-4.3h7.1l1.4,4.3h3.3l-6.1-18.3H212.8z M211.6,23.1l3.1-10h0.1l3,10H211.6z"/>
		<polygon class="st0" points="237.6,25.1 237.5,25.1 229.8,10.9 226,10.9 226,29.2 228.9,29.2 228.9,15 229,15 236.9,29.2 
			240.5,29.2 240.5,10.9 237.6,10.9 		"/>
		<path class="st0" d="M249.7,10.9l-6.2,18.3h3.2l1.4-4.3h7.1l1.4,4.3h3.3l-6.1-18.3H249.7z M248.5,23.1l3.1-10h0.1l3,10H248.5z"/>
		<path class="st0" d="M272,10.9l-6.2,18.3h3.2l1.4-4.3h7.1l1.4,4.3h3.3l-6.1-18.3H272z M270.8,23.1l3.1-10h0.1l3,10H270.8z"/>
		<polygon class="st0" points="285.2,29.2 288.3,29.2 288.3,20.9 295.1,20.9 295.1,18.9 288.3,18.9 288.3,13 295.6,13 295.6,10.9 
			285.2,10.9 		"/>
		<path class="st0" d="M307,21.2h3.2v5.7c-0.7,0.4-1.7,0.6-3,0.6c-1,0-1.8-0.2-2.5-0.6c-0.7-0.4-1.3-0.9-1.8-1.6
			c-0.5-0.7-0.8-1.4-1.1-2.4c-0.2-0.9-0.4-1.9-0.4-2.9c0-1,0.1-2,0.3-2.9c0.2-0.9,0.6-1.7,1-2.4c0.5-0.7,1-1.2,1.7-1.6
			c0.7-0.4,1.5-0.6,2.5-0.6c0.8,0,1.5,0.1,2.2,0.4c0.7,0.3,1.3,0.7,1.8,1.2l1.9-1.6c-0.7-0.7-1.5-1.3-2.5-1.7
			c-1-0.4-2.2-0.5-3.5-0.5c-1.4,0-2.6,0.2-3.7,0.7c-1.1,0.5-2,1.1-2.7,2c-0.7,0.9-1.3,1.9-1.7,3c-0.4,1.2-0.6,2.4-0.6,3.8
			c0,1.4,0.2,2.7,0.6,3.9c0.4,1.2,1,2.2,1.8,3c0.8,0.8,1.7,1.5,2.8,1.9c1.1,0.5,2.4,0.7,3.8,0.7c1.4,0,2.6-0.1,3.5-0.4
			c1-0.3,1.8-0.6,2.5-1.1v-8.9H307V21.2z"/>
		<polygon class="st0" points="329.9,18.7 321.3,18.7 321.3,10.9 318.1,10.9 318.1,29.2 321.3,29.2 321.3,20.8 329.9,20.8 
			329.9,29.2 333,29.2 333,10.9 329.9,10.9 		"/>
		<path class="st0" d="M342.2,10.9L336,29.2h3.2l1.4-4.3h7.1l1.4,4.3h3.3l-6.1-18.3H342.2z M341,23.1l3.1-10h0.1l3,10H341z"/>
		<polygon class="st0" points="367,25.1 366.9,25.1 359.2,10.9 355.4,10.9 355.4,29.2 358.3,29.2 358.3,15 358.4,15 366.3,29.2 
			369.9,29.2 369.9,10.9 367,10.9 		"/>
		<path class="st0" d="M385.1,10.9l-6.2,18.3h3.2l1.4-4.3h7.1l1.4,4.3h3.3l-6.1-18.3H385.1z M383.9,23.1l3.1-10h0.1l3,10H383.9z"/>
		<rect x="398.3" y="10.9" class="st0" width="3.1" height="18.3"/>
		<path class="st0" d="M417.1,20.2c0.5-0.2,0.9-0.5,1.4-0.9c0.4-0.4,0.7-0.9,1-1.4c0.3-0.6,0.4-1.2,0.4-1.9c0-0.9-0.2-1.7-0.5-2.3
			c-0.3-0.6-0.8-1.2-1.4-1.6c-0.6-0.4-1.3-0.7-2.1-0.9c-0.8-0.2-1.7-0.3-2.6-0.3h-6.4v18.3h3.1v-8.2h2.9l4.2,8.2h3.4l-4.6-8.6
			C416.2,20.5,416.6,20.4,417.1,20.2z M412.8,19.2h-2.9v-6.4h2.8c0.5,0,1,0,1.5,0.1c0.5,0.1,0.9,0.3,1.3,0.5c0.4,0.2,0.7,0.6,0.9,1
			c0.2,0.4,0.3,0.9,0.3,1.5c0,1-0.4,1.8-1.1,2.4C414.9,19,414,19.2,412.8,19.2z"/>
		<polygon class="st0" points="427.1,10.9 424,10.9 424,29.2 434.1,29.2 434.1,27 427.1,27 		"/>
		<rect x="437" y="10.9" class="st0" width="3.1" height="18.3"/>
		<polygon class="st0" points="457.2,25.1 457.1,25.1 449.3,10.9 445.5,10.9 445.5,29.2 448.4,29.2 448.4,15 448.5,15 456.4,29.2 
			460.1,29.2 460.1,10.9 457.2,10.9 		"/>
		<polygon class="st0" points="468.5,20.7 475.4,20.7 475.4,18.8 468.5,18.8 468.5,13 475.9,13 475.9,10.9 465.5,10.9 465.5,29.2 
			476.2,29.2 476.2,27.1 468.5,27.1 		"/>
		<path class="st0" d="M489.7,20.9c-0.5-0.4-1.1-0.8-1.7-1.1c-0.6-0.3-1.3-0.6-1.9-0.8c-0.5-0.2-1-0.4-1.4-0.6
			c-0.4-0.2-0.8-0.5-1.2-0.7c-0.3-0.3-0.6-0.6-0.8-0.9c-0.2-0.3-0.3-0.7-0.3-1.2c0-0.5,0.1-1,0.3-1.4c0.2-0.4,0.5-0.7,0.8-0.9
			c0.3-0.2,0.7-0.4,1.2-0.5c0.4-0.1,0.9-0.2,1.3-0.2c1.5,0,2.7,0.4,3.6,1.3l1.9-1.7c-0.6-0.6-1.4-1-2.4-1.3c-0.9-0.3-2-0.4-3.2-0.4
			c-0.8,0-1.6,0.1-2.4,0.3c-0.8,0.2-1.5,0.5-2.1,1c-0.6,0.4-1.1,1-1.5,1.6c-0.4,0.7-0.6,1.4-0.6,2.3c0,0.7,0.1,1.4,0.4,1.9
			c0.3,0.5,0.6,1,1.1,1.4c0.5,0.4,1,0.7,1.6,1c0.6,0.3,1.2,0.6,1.9,0.8c0.6,0.2,1.1,0.4,1.5,0.7c0.5,0.2,0.9,0.5,1.3,0.8
			c0.4,0.3,0.7,0.6,0.9,1c0.2,0.4,0.3,0.8,0.3,1.2c0,1-0.3,1.7-1,2.2c-0.7,0.5-1.5,0.8-2.6,0.8c-0.8,0-1.6-0.1-2.4-0.4
			c-0.8-0.3-1.5-0.7-2-1.2l-1.8,1.7c0.7,0.6,1.6,1.1,2.7,1.5c1.1,0.4,2.3,0.6,3.6,0.6c0.9,0,1.8-0.1,2.6-0.4c0.8-0.2,1.5-0.6,2.1-1
			c0.6-0.4,1.1-1,1.4-1.7c0.3-0.7,0.5-1.4,0.5-2.2c0-0.7-0.2-1.4-0.5-2C490.7,21.8,490.3,21.4,489.7,20.9z"/>
	</g>
</g>
</svg>
