<?xml version="1.0" encoding="utf-8"?>
<!-- Generator: Adobe Illustrator 25.4.1, SVG Export Plug-In . SVG Version: 6.00 Build 0)  -->
<svg version="1.1" id="Layer_1" xmlns="http://www.w3.org/2000/svg" xmlns:xlink="http://www.w3.org/1999/xlink" x="0px" y="0px"
	 viewBox="0 0 93.24 80" style="enable-background:new 0 0 93.24 80;" xml:space="preserve">
<style type="text/css">
	.st0{fill:#0055A4;}
</style>
<path class="st0" d="M0,56.56c4.8,5.63,9.92,19.94,26.74,23.04c7.45,1.38,15.11-1.09,21.2-3.43c7.03-2.71,12.48-7.47,16.88-11.64
	c16-15.15,18.96-28.13,28.43-22.15c-2.06-3.19-4.35-7.69-6.97-10.31c-4.85-4.1-10.5-2.64-17.47,4.45
	C56.51,48.89,43.82,62.19,32.84,68.17C22.13,73.97,9.48,66.26,0,56.56L0,56.56z"/>
<path class="st0" d="M20.09,0c-2.67,3.95-12.1,9.88-9.28,20.46c1.24,4.57,3.68,7.72,6.67,10.32c3.65,3.23,8.04,5.5,11.5,7.4
	C41.53,45.1,48.8,47.09,46.9,53.91c1.6-1.82,3.65-4.45,5.25-6.28c3.17-3.15,2.34-9.92-3.43-12.85c-10.08-5.18-20.84-10.44-26.7-16
	C16.29,13.33,15.96,7.35,20.09,0L20.09,0z"/>
</svg>
