<?xml version="1.0" encoding="utf-8"?>
<!-- Generator: Adobe Illustrator 25.4.1, SVG Export Plug-In . SVG Version: 6.00 Build 0)  -->
<svg version="1.1" id="Layer_1" xmlns="http://www.w3.org/2000/svg" xmlns:xlink="http://www.w3.org/1999/xlink" x="0px" y="0px"
	 viewBox="0 0 387.86 80" style="enable-background:new 0 0 387.86 80;" xml:space="preserve">
<style type="text/css">
	.st0{fill:#0055A4;}
	.st1{fill:#F68B1F;}
</style>
<g>
	<path class="st0" d="M0,56.56c4.8,5.63,9.92,19.94,26.74,23.04c7.45,1.38,15.11-1.09,21.2-3.43c7.03-2.71,12.48-7.47,16.88-11.64
		c16-15.15,18.96-28.13,28.43-22.15c-2.06-3.19-4.35-7.69-6.97-10.31c-4.85-4.1-10.5-2.64-17.47,4.45
		C56.51,48.89,43.82,62.19,32.84,68.17C22.13,73.97,9.48,66.26,0,56.56L0,56.56z"/>
	<path class="st0" d="M20.09,0c-2.67,3.95-12.1,9.88-9.28,20.46c1.24,4.57,3.68,7.72,6.67,10.32c3.65,3.23,8.04,5.5,11.5,7.4
		C41.53,45.1,48.8,47.09,46.9,53.91c1.6-1.82,3.65-4.45,5.25-6.28c3.17-3.15,2.34-9.92-3.43-12.85c-10.08-5.18-20.84-10.44-26.7-16
		C16.29,13.33,15.96,7.35,20.09,0L20.09,0z"/>
	<path class="st1" d="M118.28,68.17c-0.88,0.49-1.84,0.74-2.88,0.74h-10.38c-0.8,0-1.61-0.16-2.42-0.49c-1.13-0.52-1.7-1.2-1.7-2.05
		c0-0.89,0.57-1.58,1.7-2.04c0.81-0.33,1.61-0.49,2.42-0.49h10.38c0.8,0,1.63,0.16,2.48,0.49c1.14,0.47,1.71,1.15,1.71,2.04
		C119.59,67.07,119.15,67.68,118.28,68.17L118.28,68.17z M118.25,57.15c-0.86,0.47-1.8,0.71-2.83,0.71h-8.42
		c-2.32,0-4.37,0.52-6.17,1.56c-2.41,1.46-3.61,3.66-3.61,6.6v10.07c0,1.32-0.76,2.34-2.27,3.05c-1.09,0.47-2.21,0.71-3.35,0.71
		c-1.19,0-2.32-0.24-3.42-0.7c-1.53-0.72-2.28-1.73-2.28-3.05V66.03c0-4.82,2.23-8.41,6.68-10.77c3.17-1.65,6.75-2.48,10.73-2.48
		h12.09c0.8,0,1.61,0.17,2.42,0.5c1.13,0.47,1.71,1.15,1.71,2.05C119.53,56.07,119.1,56.68,118.25,57.15L118.25,57.15z"/>
	<path class="st1" d="M138.01,67.28c0-0.86,0.56-1.53,1.69-2.01c0.8-0.33,1.62-0.52,2.46-0.57h4.51c0.7,0,1.38-0.17,2.04-0.5
		c0.9-0.42,1.34-1.05,1.34-1.9v-2.83c0-1.17-1.13-1.76-3.4-1.76h-8.29c-2.27,0-3.4,0.59-3.4,1.76v0.29V76.1
		c0,1.32-0.76,2.32-2.28,3.03c-1.09,0.47-2.23,0.7-3.42,0.7c-1.13,0-2.25-0.24-3.34-0.7c-1.53-0.71-2.28-1.72-2.28-3.05V60.76
		c0-0.05,0-0.24,0-0.57c0.28-2.59,1.82-4.54,4.62-5.86c2.04-1.05,4.19-1.56,6.47-1.56h14.15c4.79,0,8.22,1.07,10.31,3.19
		c1.19,1.19,1.78,2.44,1.78,3.76v2.13c0,2.23-1.07,4.12-3.21,5.68c-0.9,0.61-1.99,1.14-3.28,1.56l5.04,3.91
		c0.96,0.78,1.44,1.72,1.44,2.82c0,1.34-0.82,2.37-2.47,3.1c-1.23,0.6-2.4,0.9-3.53,0.9c-1.32,0-2.43-0.25-3.32-0.76l-12.4-9.94
		C138.42,68.62,138.01,67.99,138.01,67.28L138.01,67.28z"/>
	<path class="st1" d="M199.73,68.04c-0.88,0.49-1.84,0.74-2.88,0.74h-10.38c-0.8,0-1.63-0.16-2.49-0.49
		c-1.09-0.47-1.64-1.15-1.64-2.05c0-0.89,0.55-1.57,1.64-2.04c0.85-0.33,1.68-0.48,2.49-0.48h10.38c0.8,0,1.63,0.15,2.49,0.48
		c1.14,0.47,1.71,1.15,1.71,2.04C201.05,66.95,200.61,67.54,199.73,68.04L199.73,68.04z M199.73,79.1
		c-0.88,0.49-1.84,0.74-2.88,0.74h-12.16c-3.93,0-7.48-0.87-10.66-2.61c-4.46-2.45-6.68-6.1-6.68-10.95c0-4.85,2.23-8.48,6.68-10.88
		c3.17-1.74,6.73-2.62,10.66-2.62h12.09c0.85,0,1.68,0.17,2.49,0.5c1.13,0.47,1.7,1.15,1.7,2.05c0,0.89-0.57,1.57-1.7,2.04
		c-0.85,0.33-1.68,0.49-2.49,0.49h-8.36c-2.46,0-4.59,0.54-6.38,1.63c-2.51,1.47-3.76,3.76-3.76,6.87c0,3.07,1.25,5.33,3.76,6.79
		c1.8,1.08,3.92,1.63,6.38,1.63h8.44c0.8,0,1.63,0.16,2.48,0.49c1.14,0.46,1.71,1.15,1.71,2.04C201.05,78,200.61,78.61,199.73,79.1
		L199.73,79.1z"/>
	<path class="st1" d="M238.49,68.04c-0.88,0.49-1.83,0.74-2.88,0.74h-10.38c-0.81,0-1.63-0.16-2.49-0.49
		c-1.09-0.47-1.63-1.15-1.63-2.05c0-0.89,0.54-1.57,1.63-2.04c0.86-0.33,1.68-0.48,2.49-0.48h10.38c0.8,0,1.63,0.15,2.48,0.48
		c1.14,0.47,1.71,1.15,1.71,2.04C239.81,66.95,239.37,67.54,238.49,68.04L238.49,68.04z M238.49,79.1
		c-0.88,0.49-1.83,0.74-2.88,0.74h-12.16c-3.94,0-7.49-0.87-10.66-2.61c-4.46-2.45-6.68-6.1-6.68-10.95c0-4.85,2.23-8.48,6.68-10.88
		c3.17-1.74,6.72-2.62,10.66-2.62h12.08c0.85,0,1.68,0.17,2.49,0.5c1.14,0.47,1.7,1.15,1.7,2.05c0,0.89-0.56,1.57-1.7,2.04
		c-0.86,0.33-1.68,0.49-2.49,0.49h-8.36c-2.46,0-4.59,0.54-6.38,1.63c-2.51,1.47-3.76,3.76-3.76,6.87c0,3.07,1.25,5.33,3.76,6.79
		c1.8,1.08,3.93,1.63,6.38,1.63h8.44c0.8,0,1.63,0.16,2.48,0.49c1.13,0.46,1.7,1.15,1.7,2.04C239.81,78,239.37,78.61,238.49,79.1
		L238.49,79.1z"/>
	<path class="st1" d="M271.03,60.06c0,1.13-1.14,1.7-3.41,1.7h-8.28c-2.27,0-3.41-0.57-3.41-1.7v-0.64c0-1.13,1.13-1.7,3.41-1.7
		h8.28c2.27,0,3.41,0.57,3.41,1.7V60.06L271.03,60.06z M277.94,78.22c2.94-1.46,4.41-3.58,4.41-6.36V69.8
		c0-1.97-0.87-3.69-2.61-5.16c1.48-1.08,2.22-2.73,2.22-4.95c0-1.32-0.59-2.57-1.78-3.74c-2.08-2.12-5.52-3.18-10.32-3.18H255.7
		c-2.27,0-4.43,0.5-6.47,1.49c-2.79,1.37-4.33,3.34-4.62,5.94c0,0.33,0,0.52,0,0.57v15.25c0,1.38,0.76,2.39,2.28,3.05
		c1.09,0.52,2.21,0.77,3.34,0.77c1.19,0,2.32-0.26,3.42-0.77c1.51-0.65,2.28-1.66,2.28-3.02v-6.96c0-0.8,0.45-1.42,1.34-1.9
		c0.62-0.33,1.28-0.49,1.98-0.49h8.36c0.72,0,1.39,0.16,2.06,0.49c0.9,0.47,1.34,1.1,1.34,1.9v3.3c0,0.79-0.45,1.43-1.34,1.89
		c-0.66,0.33-1.36,0.49-2.06,0.49h-4.11c-0.8,0-1.6,0.16-2.41,0.49c-1.14,0.46-1.7,1.15-1.7,2.04c0,0.85,0.56,1.53,1.71,2.04
		c0.8,0.33,1.61,0.49,2.42,0.49h7.67C273.51,79.83,275.76,79.29,277.94,78.22L277.94,78.22z"/>
	<path class="st1" d="M293.83,79.83c-1.14,0-2.26-0.26-3.34-0.77c-1.53-0.66-2.28-1.67-2.28-3.05V56.48c0-1.37,0.76-2.38,2.28-3.05
		c1.09-0.52,2.2-0.78,3.34-0.78c1.19,0,2.32,0.26,3.41,0.78c1.52,0.66,2.28,1.67,2.28,3.05v19.54c0,1.32-0.76,2.34-2.28,3.05
		C296.16,79.58,295.02,79.83,293.83,79.83L293.83,79.83z"/>
	<path class="st1" d="M320.4,67.28c0-0.86,0.57-1.53,1.69-2.01c0.79-0.33,1.62-0.52,2.47-0.57h4.5c0.7,0,1.38-0.17,2.04-0.5
		c0.89-0.42,1.34-1.05,1.34-1.9v-2.83c0-1.17-1.13-1.76-3.4-1.76h-8.29c-2.27,0-3.41,0.59-3.41,1.76v0.29V76.1
		c0,1.32-0.75,2.32-2.27,3.03c-1.09,0.47-2.23,0.7-3.42,0.7c-1.13,0-2.25-0.24-3.34-0.7c-1.51-0.71-2.27-1.72-2.27-3.05V60.76
		c0-0.05,0-0.24,0-0.57c0.28-2.59,1.82-4.54,4.62-5.86c2.05-1.05,4.2-1.56,6.47-1.56h14.15c4.79,0,8.23,1.07,10.31,3.19
		c1.19,1.19,1.78,2.44,1.78,3.76v2.13c0,2.23-1.07,4.12-3.22,5.68c-0.9,0.61-1.99,1.14-3.28,1.56l5.04,3.91
		c0.96,0.78,1.45,1.72,1.45,2.82c0,1.34-0.82,2.37-2.47,3.1c-1.23,0.6-2.41,0.9-3.53,0.9c-1.33,0-2.43-0.25-3.32-0.76l-12.4-9.94
		C320.82,68.62,320.4,67.99,320.4,67.28L320.4,67.28z"/>
	<path class="st1" d="M370.49,79.83h-4.63c-0.81,0-1.63-0.16-2.49-0.49c-1.14-0.47-1.71-1.15-1.71-2.04c0-0.89,0.57-1.58,1.71-2.04
		c0.85-0.33,1.68-0.49,2.49-0.49h0.93c2.46,0,4.61-0.54,6.46-1.62c2.47-1.45,3.7-3.73,3.7-6.83c0-3.15-1.23-5.47-3.7-6.97
		c-1.75-1.08-3.89-1.62-6.39-1.62h-2.77c-0.71,0-1.4,0.16-2.06,0.49c-0.89,0.42-1.36,1.06-1.36,1.9v15.91
		c0,1.37-0.76,2.37-2.27,3.04c-1.1,0.51-2.21,0.77-3.35,0.77c-1.19,0-2.32-0.26-3.41-0.77c-1.53-0.65-2.29-1.67-2.29-3.05V60.77
		c0-2.77,1.48-4.9,4.42-6.36c2.18-1.09,4.44-1.63,6.77-1.63h9.96c3.94,0,7.52,0.9,10.75,2.68c4.4,2.41,6.61,6.03,6.61,10.88
		c0,4.8-2.23,8.42-6.69,10.88C377.99,78.96,374.43,79.83,370.49,79.83L370.49,79.83z"/>
</g>
</svg>
