<?xml version="1.0" encoding="utf-8"?>
<!-- Generator: Adobe Illustrator 25.4.1, SVG Export Plug-In . SVG Version: 6.00 Build 0)  -->
<svg version="1.1" xmlns="http://www.w3.org/2000/svg" xmlns:xlink="http://www.w3.org/1999/xlink" x="0px" y="0px"
	 viewBox="0 0 105.06 80" style="enable-background:new 0 0 105.06 80;" xml:space="preserve">
<style type="text/css">
	.st0{fill:#003A7D;}
	.st1{fill:url(#SVGID_1_);}
	.st2{fill:url(#SVGID_00000145037278835863825990000008360817682851369662_);}
	.st3{fill:none;}
</style>
<g id="Layer_2">
</g>
<g id="Layer_1">
	<g>
		<g>
			<path class="st0" d="M103.29,0.03c-2.37,0.23-21.88,1.44-21.88,1.44S80.72,1.25,79.5,2.4c-0.92,1.21-59.99,67.84-59.99,67.84
				S11.43,79.08,0,80l0,0h80.72l24.25-78.52C104.97,1.42,105.66-0.26,103.29,0.03z"/>
		</g>
		<g>
			
				<linearGradient id="SVGID_1_" gradientUnits="userSpaceOnUse" x1="-1749.1425" y1="-499.183" x2="-1740.8304" y2="-496.1296" gradientTransform="matrix(1.0275 0.0123 -0.0126 0.9999 1836.5192 579.7455)">
				<stop  offset="0.0686" style="stop-color:#8B350B"/>
				<stop  offset="0.1507" style="stop-color:#913C0E"/>
				<stop  offset="0.2756" style="stop-color:#A34E14"/>
				<stop  offset="0.2965" style="stop-color:#A65215"/>
				<stop  offset="0.4558" style="stop-color:#B76519"/>
				<stop  offset="0.8895" style="stop-color:#E8A71F"/>
			</linearGradient>
			<path class="st1" d="M45.44,60.72c-0.46,0.23-0.92,0.69-1.21,1.21c-0.23,0.69,0.46,1.44,1.21,1.91c0.92,0.46,2.14,0.69,4.27,0.69
				c2.37,0,3.58-0.46,3.58-0.46s0.46-1.44,0.92-2.37c0.46-0.92,1.21-2.6,1.67-3.58C51.39,58.35,47.86,59.27,45.44,60.72z"/>
			
				<linearGradient id="SVGID_00000165207353148338085670000007517778661261419690_" gradientUnits="userSpaceOnUse" x1="-1741.7191" y1="-516.6538" x2="-1716.6427" y2="-505.0963" gradientTransform="matrix(1.0275 0.0123 -0.0126 0.9999 1836.5192 579.7455)">
				<stop  offset="0" style="stop-color:#E79000"/>
				<stop  offset="0.0236" style="stop-color:#E89400"/>
				<stop  offset="0.0587" style="stop-color:#ECA022"/>
				<stop  offset="0.07" style="stop-color:#EDA42C"/>
				<stop  offset="0.1001" style="stop-color:#F0B24D"/>
				<stop  offset="0.2" style="stop-color:#FBDDAA"/>
				<stop  offset="0.222" style="stop-color:#FADAA3"/>
				<stop  offset="0.2562" style="stop-color:#F9D48F"/>
				<stop  offset="0.2986" style="stop-color:#F7C96C"/>
				<stop  offset="0.3469" style="stop-color:#F4BB35"/>
				<stop  offset="0.35" style="stop-color:#F4BA30"/>
				<stop  offset="0.66" style="stop-color:#EEA900"/>
				<stop  offset="0.98" style="stop-color:#E78E00"/>
			</linearGradient>
			<path style="fill:url(#SVGID_00000165207353148338085670000007517778661261419690_);" d="M89.03,33.35c0,0-1.91,2.37-9.06,2.14
				c-4.73,0-7.16-1.44-12.88-1.67c-6.41,0-10.97,2.14-12.36,5.02c-0.69,1.44-4.27,9.53-4.27,9.53s1.91-2.14,5.25-3.12
				c4.5-1.44,8.83-1.21,13.11-0.46c3.12,0.46,5.02,1.21,7.85,0.92c2.6,0,4.04-0.69,5.02-1.21c1.44-0.69,2.6-1.91,4.27-4.5
				C87.36,38.31,88.8,34.27,89.03,33.35z M44.75,60.95c0.92-2.14,2.37-5.72,4.27-9.06c0.23-0.69,0.92-1.44,1.67-1.91
				c2.37-2.14,7.85-3.81,14.49-3.35c4.73,0.46,6.64,0.92,9.53,1.21c1.21,0,2.6,0.23,3.81,0c3.12-0.46,4.04-1.21,4.04-1.21
				s-1.91,5.02-4.73,8.08c-3.35,3.81-6.64,4.04-13.11,3.58c-9.3-0.92-15.7,0.23-19.28,2.6c-0.46,0.23-0.92,0.92-1.21,1.44
				C44.28,62.39,44.28,61.87,44.75,60.95z"/>
		</g>
	</g>
	<line class="st3" x1="99.25" y1="40.74" x2="99.25" y2="40.74"/>
</g>
</svg>
