<?xml version="1.0" encoding="utf-8"?>
<!-- Generator: Adobe Illustrator 25.4.1, SVG Export Plug-In . SVG Version: 6.00 Build 0)  -->
<svg version="1.1" xmlns="http://www.w3.org/2000/svg" xmlns:xlink="http://www.w3.org/1999/xlink" x="0px" y="0px"
	 viewBox="0 0 346.4 80" style="enable-background:new 0 0 346.4 80;" xml:space="preserve">
<style type="text/css">
	.st0{fill:#003A7D;}
	.st1{fill:url(#SVGID_1_);}
	.st2{fill:url(#SVGID_00000061437397085597794240000002122830955547799464_);}
	.st3{fill:none;}
</style>
<g id="Layer_2">
</g>
<g id="Layer_1">
	<g>
		<g>
			<path class="st0" d="M344.64,0.03c-2.37,0.23-21.88,1.44-21.88,1.44s-0.69-0.23-1.91,0.92c-0.92,1.21-59.99,67.84-59.99,67.84
				s-8.08,8.83-19.52,9.76l0,0h80.72l24.25-78.52C346.31,1.42,347-0.26,344.64,0.03z"/>
		</g>
		<g>
			
				<linearGradient id="SVGID_1_" gradientUnits="userSpaceOnUse" x1="-1514.2939" y1="-502.0719" x2="-1505.9819" y2="-499.0186" gradientTransform="matrix(1.0275 0.0123 -0.0126 0.9999 1836.5192 579.7455)">
				<stop  offset="0.0686" style="stop-color:#8B350B"/>
				<stop  offset="0.1507" style="stop-color:#913C0E"/>
				<stop  offset="0.2756" style="stop-color:#A34E14"/>
				<stop  offset="0.2965" style="stop-color:#A65215"/>
				<stop  offset="0.4558" style="stop-color:#B76519"/>
				<stop  offset="0.8895" style="stop-color:#E8A71F"/>
			</linearGradient>
			<path class="st1" d="M286.78,60.72c-0.46,0.23-0.92,0.69-1.21,1.21c-0.23,0.69,0.46,1.44,1.21,1.91
				c0.92,0.46,2.14,0.69,4.27,0.69c2.37,0,3.58-0.46,3.58-0.46s0.46-1.44,0.92-2.37c0.46-0.92,1.21-2.6,1.67-3.58
				C292.73,58.35,289.21,59.27,286.78,60.72z"/>
			
				<linearGradient id="SVGID_00000122694332163563823450000008874116264717198777_" gradientUnits="userSpaceOnUse" x1="-1506.8707" y1="-519.5427" x2="-1481.7943" y2="-507.9852" gradientTransform="matrix(1.0275 0.0123 -0.0126 0.9999 1836.5192 579.7455)">
				<stop  offset="0" style="stop-color:#E79000"/>
				<stop  offset="0.0236" style="stop-color:#E89400"/>
				<stop  offset="0.0587" style="stop-color:#ECA022"/>
				<stop  offset="0.07" style="stop-color:#EDA42C"/>
				<stop  offset="0.1001" style="stop-color:#F0B24D"/>
				<stop  offset="0.2" style="stop-color:#FBDDAA"/>
				<stop  offset="0.222" style="stop-color:#FADAA3"/>
				<stop  offset="0.2562" style="stop-color:#F9D48F"/>
				<stop  offset="0.2986" style="stop-color:#F7C96C"/>
				<stop  offset="0.3469" style="stop-color:#F4BB35"/>
				<stop  offset="0.35" style="stop-color:#F4BA30"/>
				<stop  offset="0.66" style="stop-color:#EEA900"/>
				<stop  offset="0.98" style="stop-color:#E78E00"/>
			</linearGradient>
			<path style="fill:url(#SVGID_00000122694332163563823450000008874116264717198777_);" d="M330.37,33.35c0,0-1.91,2.37-9.06,2.14
				c-4.73,0-7.16-1.44-12.88-1.67c-6.41,0-10.97,2.14-12.36,5.02c-0.69,1.44-4.27,9.53-4.27,9.53s1.91-2.14,5.25-3.12
				c4.5-1.44,8.83-1.21,13.11-0.46c3.12,0.46,5.02,1.21,7.85,0.92c2.6,0,4.04-0.69,5.02-1.21c1.44-0.69,2.6-1.91,4.27-4.5
				C328.7,38.31,330.14,34.27,330.37,33.35z M286.09,60.95c0.92-2.14,2.37-5.72,4.27-9.06c0.23-0.69,0.92-1.44,1.67-1.91
				c2.37-2.14,7.85-3.81,14.49-3.35c4.73,0.46,6.64,0.92,9.53,1.21c1.21,0,2.6,0.23,3.81,0c3.12-0.46,4.04-1.21,4.04-1.21
				s-1.91,5.02-4.73,8.08c-3.35,3.81-6.64,4.04-13.11,3.58c-9.3-0.92-15.7,0.23-19.28,2.6c-0.46,0.23-0.92,0.92-1.21,1.44
				C285.63,62.39,285.63,61.87,286.09,60.95z"/>
		</g>
		<path class="st0" d="M124.48,35.72h-9.76c0,0.23,0,0.23,0.23,0.46c0.46,0.23,0.92,0.69,1.44,1.21c0.69,0.69,0.69,0.92,0.69,2.14
			v18.3h5.95V43.05l0,0l13.11,14.78h5.25V35.72h-8.37c0,0.23,0,0.46,0.23,0.46c0.46,0.23,0.92,0.69,1.44,1.21
			c0.46,0.46,0.69,0.69,0.69,1.91v8.55L124.48,35.72z M234.18,57.83l-4.73-7.85h-5.49v7.85h-6.64v-18.3c0-1.21-0.23-1.44-0.46-1.91
			c-0.46-0.69-0.92-0.92-1.44-1.21c-0.23-0.23-0.46-0.23-0.46-0.46h17.15c5.02,0,8.55,2.37,8.55,6.93c0,3.58-1.67,5.49-4.73,6.64
			l5.25,8.31H234.18z M204.22,57.83v-18.3c0-1.21-0.23-1.44-0.46-1.91c-0.46-0.69-0.92-0.92-1.44-1.21
			c-0.23-0.23-0.23-0.23-0.23-0.46h9.06v22.11h-6.93L204.22,57.83L204.22,57.83z M193.71,57.83l-1.91-4.27h-11.2l-1.67,4.27h-6.18
			l8.55-18.82c0-0.23,0.23-0.46,0.23-0.92c0-0.46-0.46-0.92-1.44-1.67c-0.23-0.23-0.23-0.23-0.23-0.69h11.2l10.22,22.11
			L193.71,57.83L193.71,57.83z M159.7,57.83h-11.66v-18.3c0-1.21-0.23-1.44-0.69-1.91c-0.46-0.69-0.92-0.92-1.44-1.21
			c-0.23-0.46-0.23-0.46-0.23-0.69h13.8c8.08,0,12.36,4.27,12.36,10.97C171.83,53.09,168.02,57.83,159.7,57.83z M66.4,57.83v-18.3
			c0-1.21-0.23-1.44-0.46-1.91c-0.46-0.69-0.92-0.92-1.44-1.21c-0.23-0.23-0.23-0.23-0.23-0.46h9.06v16.92h10.45v5.25H66.4V57.83z
			 M40.47,57.83v-18.3c0-1.21-0.23-1.44-0.46-1.91c-0.46-0.69-0.92-0.92-1.44-1.21c-0.23-0.23-0.23-0.23-0.23-0.46h23.1v4.5H47.4
			v3.81h10.45v4.5H47.4v4.27h14.03v4.73C61.38,57.83,40.47,57.83,40.47,57.83z M26.91,58.58c-7.85,0-14.78-3.35-14.78-11.66
			c0-6.64,5.02-12.12,14.78-12.12c3.81,0,6.64,0.69,9.3,1.91l-1.67,5.25c-1.44-0.92-4.04-1.91-7.16-1.91
			c-5.95,0-8.31,3.35-8.31,6.64c0,4.5,3.58,6.93,8.31,6.93c3.12,0,5.72-0.92,7.39-1.91l1.67,4.73
			C34.24,57.37,30.95,58.58,26.91,58.58z M2.14,57.83V34.96c0-1.21-0.23-1.44-0.46-1.91c-0.69-0.69-1.21-0.92-1.44-1.21
			C0,31.62,0,31.62,0,31.38h9.06v26.44H2.14z M230.6,39.99h-6.64v5.49h7.16c2.14,0,3.35-0.92,3.35-2.83
			C234.41,41.43,233.72,39.99,230.6,39.99z M186.38,40.97l-3.81,8.31h7.39L186.38,40.97z M158.72,40.45h-4.04v12.36h4.04
			c4.73,0,6.41-2.14,6.41-6.18C165.19,42.36,163.05,40.45,158.72,40.45z M106.87,57.83l-1.91-4.27h-11.2l-1.91,4.27h-6.18
			l8.55-18.82c0-0.23,0.23-0.46,0.23-0.92c0-0.46-0.46-0.92-1.44-1.67c-0.23-0.23-0.23-0.23-0.23-0.69h11.2l10.22,22.11
			L106.87,57.83L106.87,57.83z M99.48,40.97l-3.81,8.31h7.39L99.48,40.97z"/>
		<line class="st3" x1="99.25" y1="40.74" x2="99.25" y2="40.74"/>
	</g>
</g>
</svg>
