<?xml version="1.0" encoding="utf-8"?>
<!-- Generator: Adobe Illustrator 25.4.1, SVG Export Plug-In . SVG Version: 6.00 Build 0)  -->
<svg version="1.1" id="Layer_1" xmlns="http://www.w3.org/2000/svg" xmlns:xlink="http://www.w3.org/1999/xlink" x="0px" y="0px"
	 viewBox="0 0 78.55 80" style="enable-background:new 0 0 78.55 80;" xml:space="preserve">
<style type="text/css">
	.st0{fill:#2C1E16;}
</style>
<g>
	<path class="st0" d="M41.44,41.41c0.03-0.06,0.08-0.12,0.12-0.17c0.17-0.26,0.33-0.53,0.51-0.8c0.11-0.16,0.22-0.32,0.34-0.47
		c0.11-0.15,0.28-0.3,0.35-0.48c0.02-0.04,0.01-0.04-0.02-0.09c-0.06-0.08-0.08-0.16-0.13-0.24c-0.06-0.11-0.13-0.22-0.21-0.32
		c-0.23-0.32-0.77-1.2-1.21-1.86c-0.44-0.65-1.06-1.67-1.55-2.32c0,0-0.19,0.31-0.55,0.92c-0.36,0.62-0.92,1.45-1.25,1.92
		c-0.25,0.37-0.65,0.89-1.33,1.8c0.3,0.44,0.86,1.6,1.35,2.29c0.48,0.7,1.27,1.8,1.79,2.53c0.26-0.32,0.44-0.53,0.58-0.77
		c0.15-0.23,0.41-0.53,0.53-0.77C40.88,42.35,41.08,42.05,41.44,41.41z"/>
	<path class="st0" d="M39.37,46.84c-0.1,0.26-0.13,0.42-0.2,0.63c-0.09,0.25-0.11,0.46-0.21,0.72c-0.1,0.25-0.27,0.86-0.33,1
		c-0.1,0.21-0.11,0.41-0.22,0.8c-0.1,0.39-0.15,1.07-0.17,1.25c-0.01,0.19,0.18,1.41,0.24,1.87c0.06,0.47,0.29,1.47,0.42,1.86
		c0.13,0.39,0.41,1,0.5,1.23c0.2-0.19,0.2-0.5,0.34-0.83c0.15-0.34,0.33-1.34,0.45-1.94c0.12-0.6,0.16-1.36,0.24-2.01
		c0.09-0.64-0.03-1.73-0.1-2.21c-0.08-0.49-0.22-1-0.38-1.38C39.8,47.44,39.63,47.09,39.37,46.84z"/>
	<path class="st0" d="M34.24,52.02L34.24,52.02c0.16-0.21,0.65-0.87,1.09-1.34c0.44-0.47,0.64-0.98,0.79-1.46
		c0.16-0.48,0.37-1.36,0.41-1.83c0.04-0.48-0.03-0.69-0.04-0.86c-0.03-0.31-0.07-0.38-0.2-0.25c-0.08,0.07-0.47,0.52-0.77,0.87
		c-0.3,0.35-0.79,1.05-0.96,1.46c-0.18,0.41-0.46,1.1-0.56,1.6c-0.1,0.49-0.2,1.23-0.23,1.44c-0.02,0.21,0,0.54,0.03,0.77
		C33.95,52.38,34.08,52.22,34.24,52.02z"/>
	<path class="st0" d="M30.48,48.96c0.18-0.12,0.24-0.11,0.62-0.35c0.37-0.24,0.85-0.48,1.5-1.16c0.65-0.68,0.89-1.1,1.25-1.71
		c0.36-0.61,0.44-0.95,0.64-1.3c0.2-0.35,0.21-0.43,0.05-0.4c-0.23,0.05-0.28,0.05-0.89,0.41c-0.6,0.36-1.28,1.12-1.57,1.39
		c-0.29,0.27-0.96,1.3-1.13,1.63c-0.17,0.32-0.63,1.28-0.79,1.5C30,49.18,30.19,49.12,30.48,48.96z"/>
	<path class="st0" d="M28.75,44.9L28.75,44.9c0.65-0.16,1.41-0.36,2.07-0.85c0.29-0.21,0.58-0.41,0.87-0.61
		c0.11-0.07,0.22-0.14,0.33-0.2c0.12-0.07,0.21-0.16,0.32-0.24c0.06-0.04,0.11-0.08,0.15-0.12c0.07-0.05,0.16-0.1,0.22-0.16
		c0.08-0.09,0.04-0.14-0.06-0.16c-0.3-0.08-0.42-0.1-0.67-0.05c-0.45,0.08-0.69,0.06-1,0.12c-0.27,0.05-0.29,0.1-0.59,0.18
		c-0.3,0.06-0.7,0.26-0.96,0.39c-0.25,0.13-0.99,0.37-1.5,0.75c-0.5,0.37-1.11,0.82-1.27,1.05C27.18,45.01,28.09,45.06,28.75,44.9z"
		/>
	<path class="st0" d="M28.07,40.65c0.72-0.02,1.56-0.09,2.67-0.49c0.37-0.2,0.51-0.14,0.9-0.28c0.4-0.14,0.61-0.24,1.24-0.42
		c-0.19-0.14-0.16-0.11-0.38-0.28c-0.22-0.17-0.8-0.29-1.16-0.36c-0.39-0.08-0.97-0.22-1.38-0.21c-0.4,0.01-0.97-0.02-1.46-0.06
		c-0.48-0.03-1.18,0.04-1.77,0.2c-0.6,0.16-1.27,0.35-1.69,0.52c-0.28,0.11-0.58,0.2-0.98,0.39c-0.21,0.1-0.48,0.1-0.78,0.27
		c-0.31,0.17-0.28,0.22-0.19,0.24c0.09,0.02,0.43,0.15,0.68,0.17c0.34,0.02,1.07,0.22,1.9,0.28C26.49,40.69,27.36,40.67,28.07,40.65
		z"/>
	<path class="st0" d="M40.03,29.36c0.03-0.36,0.13-0.77,0.16-1.13c0.03-0.35,0.13-1.04,0.14-1.37c0.01-0.51,0.01-0.68,0-1
		c-0.01-0.38-0.05-1.65-0.25-2.44c-0.19-0.79-0.21-1.21-0.71-1.93c-0.48,0.52-0.59,1.51-0.66,2c-0.07,0.49-0.14,1.31-0.16,2.14
		c-0.04,1.15,0.08,2.52,0.21,3.06c0.13,0.55,0.4,1.65,0.52,1.86c0.2,0.31,0.2,0.25,0.41-0.09c0,0,0.07-0.12,0.16-0.34v0
		C39.94,29.9,39.99,29.75,40.03,29.36z"/>
	<path class="st0" d="M43.25,27.43c-0.33,0.31-0.68,1.07-0.82,1.48c-0.14,0.4-0.33,1.3-0.43,1.68c-0.1,0.38-0.06,0.38-0.05,0.6
		c0,0.14,0.04,0.38,0.08,0.46c0.05,0.08,0.11,0.1,0.25,0.05c0.4-0.33,1-0.94,1.35-1.7c0.34-0.76,0.54-1.31,0.73-1.92
		c0.21-0.64,0.45-2.31,0.45-2.31C44.28,26.2,43.59,27.12,43.25,27.43z"/>
	<path class="st0" d="M48.4,29.72c-0.35,0.15-0.36,0.2-0.88,0.43c-0.52,0.22-0.43,0.18-1.4,1c-0.98,0.82-1.56,1.91-1.75,2.61
		c0,0,0.29,0.01,0.71-0.17h0c0.42-0.17,1.02-0.65,1.54-1.07c0.52-0.43,0.68-0.64,1-1.03c0.32-0.39,0.57-1.06,0.72-1.34
		C48.5,29.86,48.74,29.58,48.4,29.72z"/>
	<path class="st0" d="M46.62,34.79c-0.16,0.13-0.32,0.24-0.43,0.41c-0.11,0.17-0.19,0.4-0.27,0.57c-0.05,0.1-0.1,0.23-0.11,0.34
		c-0.02,0.17,0.15,0.12,0.26,0.09c0.17-0.03,0.33-0.09,0.49-0.13c0.26-0.08,0.68-0.21,1.07-0.34c0.41-0.12,1.09-0.61,1.77-1.12
		c0.67-0.5,1.03-1.01,1.57-1.74c-0.21,0.02-0.57,0.06-1.02,0.17c-0.45,0.11-0.71,0.23-1.09,0.41c-0.38,0.18-0.57,0.37-1.07,0.57
		C47.35,34.23,46.98,34.51,46.62,34.79z"/>
	<path class="st0" d="M56.34,39.3c0,0-0.11-0.13-0.22-0.22v0c-0.1-0.1-0.27-0.24-0.7-0.4c-0.44-0.15-1.22-0.34-1.67-0.45
		c-0.45-0.13-0.91-0.18-1.42-0.22c-0.52-0.05-0.8-0.05-1.5-0.09c-0.38-0.03-1.06,0.04-1.66,0.2c-0.6,0.16-2.27,0.79-2.66,0.91
		c-0.41,0.12-0.12,0.31-0.01,0.43c0.1,0.12,0.55,0.26,0.73,0.3c0.18,0.03,0.46,0.13,0.83,0.19c0.38,0.07,1.38,0.17,2.56,0.17
		c1.18-0.02,1.99-0.04,2.96-0.14C54.56,39.88,55.63,39.55,56.34,39.3z"/>
	<path class="st0" d="M53.2,44.39c0,0-0.12-0.19-0.34-0.37c-0.22-0.16-0.91-0.51-1.38-0.71c-0.46-0.2-1.15-0.59-1.79-0.82
		c-0.64-0.24-1.26-0.2-1.63-0.2c-0.36-0.01-0.71-0.05-1.12,0.05c0,0,0.04,0.2,0.34,0.43c0.3,0.24,1.28,0.7,1.76,0.92
		c0.47,0.22,1.23,0.47,1.98,0.6C51.75,44.42,52.53,44.43,53.2,44.39z"/>
	<path class="st0" d="M46.42,47.49c0.22,0.28,0.65,0.57,1.08,0.83c0.44,0.26,0.93,0.52,1.15,0.7c0.22,0.18,0.66,0.4,0.89,0.49
		c-0.04-0.23-0.11-0.43-0.34-0.8v0c-0.31-0.49-0.63-1.02-1.31-1.72c-0.67-0.71-1.38-1.24-1.78-1.5c-0.4-0.26-0.73-0.39-1.04-0.62
		c-0.32-0.23-0.25-0.01,0.13,0.63C45.6,46.15,46.2,47.21,46.42,47.49z"/>
	<path class="st0" d="M42.73,49.49c0.51,1.26,1.32,2.38,2.1,3.27c0.19-0.58,0.04-1.58-0.04-2.37h0c-0.1-0.78-0.49-1.54-0.78-1.86
		c-0.3-0.32-0.15-0.2-0.5-0.68c-0.36-0.47-0.78-1.04-1.18-1.42c-0.23-0.23-0.27-0.32-0.26-0.07c0,0,0.01,0.48,0.03,0.64
		C42.15,47.48,42.24,48.22,42.73,49.49z"/>
	<path class="st0" d="M27.67,33.68c-0.17-0.02-0.21-0.04-0.52,0c0,0,0.1,0.18,0.17,0.25c0.07,0.08,0.27,0.37,0.51,0.54
		c0.39,0.3,0.86,0.54,1.37,0.9c0.51,0.37,1.18,0.57,1.99,0.81c0.81,0.23,1.58,0.27,2.16,0.32c0.49-0.02,0.05-0.23-0.25-0.41v0
		c-0.31-0.18-0.93-0.62-1.63-1.17c-0.69-0.55-1.14-0.57-1.62-0.73c-0.47-0.15-1.69-0.37-1.81-0.41
		C27.91,33.74,27.93,33.73,27.67,33.68z"/>
	<path class="st0" d="M32.81,30.92c-0.1-0.12-0.42-0.36-0.57-0.46c-0.16-0.1-0.54-0.44-0.95-0.62c-0.43-0.18-0.58-0.3-1.17-0.52
		c-0.58-0.22-0.46-0.01-0.35,0.2c0.12,0.21,0.42,0.85,0.74,1.43c0.33,0.58,0.48,0.74,0.79,1.07c0.31,0.35,0.78,0.69,1.17,0.98
		c0.39,0.29,0.83,0.5,1.13,0.66c0.3,0.17,0.84,0.51,1.23,0.68c0,0-0.02-0.25-0.03-0.29v0c-0.03-0.16-0.17-0.55-0.44-1.13
		c-0.25-0.51-0.58-0.98-0.97-1.39C33.05,31.18,32.92,31.04,32.81,30.92z"/>
	<path class="st0" d="M34.59,29.63c0.33,0.72,1.01,1.73,1.66,2.41c0,0,0.05-0.37,0.02-0.73c-0.02-0.36-0.1-0.74-0.16-1.05
		c-0.05-0.26-0.13-0.45-0.24-0.8c-0.09-0.29-0.29-0.53-0.41-0.81c-0.12-0.27-0.49-0.96-0.88-1.47c-0.38-0.51-0.65-0.91-1.09-1.36
		c0,0-0.04,0.09,0.01,0.36c0.05,0.26,0.17,0.88,0.34,1.45C34.02,28.22,34.26,28.91,34.59,29.63z"/>
	<path class="st0" d="M9.59,65.96c0.35,0.52,1.8,2.14,2.57,2.86c0.76,0.72,3,2.82,3.78,3.45c0.11,0.06,0.08,0.01,0.17-0.34
		c0.08-0.35-0.03-6.7-0.25-6.69C15.72,65.23,10.4,65.67,9.59,65.96z"/>
	<path class="st0" d="M21.07,58.07c-0.24-0.26-1.91-2.15-1.99-2.24c-0.08-0.09-0.23-0.39-0.36-0.57c0,0,0.25,5.66,0.32,5.8
		c0.08,0.13,3.6,0.19,4.76-0.1c0,0-0.35-0.41-0.7-0.67h0C22.78,60.03,21.32,58.34,21.07,58.07z"/>
	<path class="st0" d="M31.17,64.75c0,0-0.12-0.08-0.25-0.17c-0.15-0.09-0.84-0.49-1.05-0.62c-0.21-0.13-0.09,0.03-0.39-0.24
		c0,0-2.48,4.33-2.62,4.6c-0.13,0.26-0.48,0.88-0.63,1.19c-0.16,0.31-0.41,0.87-0.49,1.01c-0.08,0.14-2.68,3.97-2.82,4.18
		c-0.2,0.31-0.31,0.4-0.6,0.81c0,0,1.04,0.56,1.23,0.8c0.2,0.23,0.99,0.45,1.28,0.73c0,0,0.12-0.18,0.26-0.45
		c0.11-0.21,0.19-0.43,0.34-0.69c0.11-0.2,0.23-0.28,0.36-0.65c0.13-0.37,0.54-1.23,0.68-1.53c0.14-0.3,3.04-5.98,3.27-6.44
		C29.98,66.81,30.91,65.12,31.17,64.75z"/>
	<path class="st0" d="M26.61,62.99c-0.18,0.07-7.73,0.95-8.01,1.15c0.07,0.21,0.01,0.7,0.08,1.08c0.05,0.38,0.61,7.7,0.71,8.03
		c0.17,0.52,0.02,0.5,0.27,0.95c0.18-0.11,0.36-0.25,0.65-0.59c0.29-0.33,6.32-10.15,6.49-10.33C26.96,63.11,26.8,62.93,26.61,62.99
		z"/>
	<path class="st0" d="M8.16,63.36c0.34-0.16,7.44-1.89,7.59-1.98c0.1-0.1,1.03-7.66,1.08-8.54c0,0-8.75,10.09-8.88,10.41
		C8.04,63.21,7.82,63.52,8.16,63.36z"/>
	<path class="st0" d="M11.28,54.45c0.44-0.53,2.73-2.71,4.42-4.81c-0.1-0.33-0.38-1.14-0.53-1.62c-0.14-0.46-0.24-0.73-0.35-1.2
		c0,0-0.18,0.27-0.26,0.4c-0.07,0.12-0.35,0.39-0.88,1.06c-0.54,0.67-3.18,3.31-4.08,4.37C8.7,53.7,4.98,57.3,4.3,58.01
		c0,0,0.07,0.28,0.19,0.52c0.12,0.24,0.49,0.81,0.84,1.55c0,0,0.13,0.26,0.29,0.16c0,0,0.53-0.51,0.78-0.84v0
		C6.65,59.06,10.84,54.98,11.28,54.45z"/>
	<path class="st0" d="M10.37,47c1.08-0.97,2.41-2.6,3.57-3.75c0,0-0.07-1.92-0.01-2.36c0.06-0.44,0.01-1.12,0.03-1.63
		c0.01-0.52-0.01-0.54-0.11-0.64c0,0-0.26-0.14-0.59-0.29c-0.32-0.15-3.94-2.11-4.23-2.23c-0.28-0.12-1.15-0.43-1.67-0.69
		c-0.51-0.26-5.94-3.34-6.53-3.51c0,0.19-0.12,0.87-0.17,1.33c-0.05,0.46-0.22,1.04-0.23,1.48c0.11,0.05,1.1,0.51,1.61,0.77
		c0.52,0.26,4.38,2.32,5.29,2.73c0.91,0.42,4.68,2.29,5.32,2.69c-0.19,0.08-0.91,0.75-1.29,1.01c-0.37,0.27-2.48,2.57-3.16,3.23
		c-0.68,0.66-1.71,1.6-2.16,2.08c-0.45,0.49-3.47,3.33-3.73,3.49c-0.26,0.16-0.53,0.42-0.69,0.49c0.03,0.18,0.11,0.84,0.18,1.17
		c0.08,0.33,0.15,0.92,0.22,1.13c0.06,0.2,0.13,0.64,0.34,1.03c0.19-0.15,0.46-0.33,0.81-0.52c0.33-0.19,1.75-1.71,2.02-1.97
		C5.19,52.04,9.3,47.98,10.37,47z"/>
	<path class="st0" d="M21.59,21.29c1.28-1.21,2.37-2.01,3.25-2.52c-0.12-0.13-0.43-0.16-0.6-0.22c-0.18-0.05-5.74-0.6-6.09-0.64
		c-0.33-0.04-0.41,0.02-0.66,0.02c0,0,0.42,2.06,0.45,2.49c0.03,0.43,0.39,3.52,0.53,4.21C18.66,24.38,20.3,22.49,21.59,21.29z"/>
	<path class="st0" d="M19.13,15.02c0.38,0.08,7.84,1.4,8.47,1.4c0.14,0-0.01-0.14-0.31-0.39c-0.29-0.24-9.94-7.63-10.13-7.84
		c-0.37-0.41-0.4-0.34-0.33,0.26c0.07,0.53,0.34,1.68,0.48,2.38c0.14,0.69,0.57,2.73,0.75,4.02C18.06,14.84,18.76,14.93,19.13,15.02
		z"/>
	<path class="st0" d="M14.56,34.38c0,0,0.04-0.12,0.03-0.24h0c-0.01-0.11,0.07-0.47,0.1-0.78c0.03-0.3,0.07-0.66,0.26-1.16
		c0,0-0.17-0.08-0.39-0.15c-0.18-0.06-3.98-1.61-5.07-2.09c-1.1-0.48-5.55-2.54-5.97-2.78c-0.41-0.24-0.86-0.39-1.2-0.58
		c0,0-0.28,0.5-0.38,0.71c-0.09,0.21-0.3,1.12-0.33,1.58c0,0,1.24,0.37,1.33,0.41C3.03,29.35,13.19,33.83,14.56,34.38z"/>
	<path class="st0" d="M15.57,28.24c0.2,0.16,0.8,0.31,0.8,0.31c0.1-0.12,0.03-0.27,0.05-0.39c0.02-0.12-0.84-3.37-1.02-4.05
		c-0.17-0.69-1.23-3.88-1.25-3.97c-0.03-0.08-0.13-0.38-0.25-0.36c-0.26,0.04-7.45,1.69-7.91,1.8c-0.46,0.1-0.78,0.2-0.93,0.25
		c-0.29,0.11-0.84,0.41-0.84,0.41c0.29,0.2,0.71,0.32,0.95,0.47C5.41,22.85,15.37,28.09,15.57,28.24z"/>
	<path class="st0" d="M20.35,6.08c0.18,0.13,8.94,7.87,9.31,8.16c0.36,0.28,1.07,0.8,1.11,0.84c0.1,0.08,0.09,0,0.29-0.06
		c0.2-0.06,1.29-0.33,1.86-0.45c0,0-0.09-0.17-0.14-0.22v0c-0.05-0.05-0.78-0.78-1.17-1.15c-0.4-0.36-1.68-1.65-2.34-2.25
		c-1.17-1.03-2.34-2.06-3.51-3.09c-0.56-0.49-3.35-3.19-3.52-3.42c0,0-0.08,0-0.35,0.25c-0.27,0.24-1.44,1.05-1.57,1.13
		C20.19,5.9,20.17,5.95,20.35,6.08z"/>
	<path class="st0" d="M8.86,17.02c0.34-0.12,6.11-1.2,6.43-1.28c-0.02-0.18-0.27-1.46-0.33-1.87c-0.06-0.4-0.49-3.38-0.61-3.73
		c-0.1-0.27-0.1-0.35-0.22-0.42c0,0-0.18,0-0.28,0.04c0,0-0.17,0.13-0.48,0.4c-0.31,0.28-1.43,1.34-2.13,2.01
		c-0.7,0.67-2.01,2.37-2.43,2.92c-0.42,0.54-1.15,1.71-1.5,2.3c0,0,0.19-0.05,0.39-0.15C7.95,17.13,8.65,17.1,8.86,17.02z"/>
	<path class="st0" d="M6.78,41.76c0.31-0.24,0.46-0.35,0.46-0.35c-0.15-0.03-1.61-0.37-1.88-0.48c-0.29-0.12-0.56-0.15-0.95-0.35
		c-0.38-0.2-1.17-0.46-1.5-0.63c-0.24-0.12-1.09-0.34-1.67-0.55c-0.44-0.16-0.6-0.23-1.23-0.4c0,0,0.02,0.06-0.02,0.51
		c-0.03,0.44,0.11,2.64,0.17,3.28c0.05,0.64,0.25,2.14,0.52,3.65c0,0,0.34-0.11,0.74-0.4c0.4-0.28,2.12-1.66,2.86-2.24
		C5.03,43.21,6.44,42.01,6.78,41.76z"/>
	<path class="st0" d="M28.11,4.1L28.11,4.1c0.25,0.31,5.02,4.96,5.47,5.4c0.45,0.43,3.57,3.59,3.76,3.74
		c0.19,0.15,0.33,0.33,0.4,0.39c0,0,4.33-0.17,4.88-0.05c0.08-0.22,0.39-0.74,0.59-1.1c0.21-0.36,2.01-5.76,2.45-6.84
		c0.44-1.09,1.36-3.31,1.55-3.78c0.19-0.47,0.25-0.78,0.45-1.03c0,0-0.14-0.12-0.32-0.16c-0.19-0.05-0.87-0.12-1.12-0.2
		c-0.24-0.06-0.53-0.08-0.88-0.15c0,0-0.57,1.08-0.67,1.37c-0.11,0.29-1.53,3.57-1.74,3.93c-0.21,0.37-2.36,6.79-2.69,7.27
		c0,0-1.55-1.83-2.05-2.34c-0.51-0.52-5.31-5.17-6.16-6.02c-0.85-0.85-1.84-1.78-2.64-2.81c0,0-0.18,0.06-0.72,0.22
		c-0.54,0.16-1.36,0.51-1.73,0.63c-0.36,0.13-0.2,0.25-0.03,0.45C27.27,3.42,27.91,3.86,28.11,4.1z"/>
	<path class="st0" d="M77.51,41.46c-0.34-0.14-2.28-0.89-3.1-1.16c-0.81-0.26-7.44-2.69-7.72-2.84c-0.28-0.15-0.18-0.25-0.02-0.48
		c0.13-0.2,0.46-0.74,0.77-0.98c0.22-0.18,5.5-4.26,5.83-4.53c0.33-0.28,1.16-0.84,1.87-1.42c0.71-0.58,1.36-1.05,2.41-1.7
		c0,0-0.02-0.52-0.17-1.08c-0.15-0.56-0.89-2.39-0.89-2.39c0,0-0.43,0.39-0.65,0.57c-0.22,0.18-8.09,7.06-8.72,7.59
		c-0.63,0.52-1.66,1.48-1.88,1.66c-0.22,0.18-0.34,0.25-0.31,0.51c0.03,0.18,0.03,0.78,0.07,1.17c0.04,0.39,0.15,1.13,0.08,1.53
		c-0.06,0.4-0.08,1.31-0.16,1.81c0.33,0.09,4.18,1.57,4.86,1.83c0.67,0.26,2.02,0.77,2.77,1.04c0.76,0.27,2.43,0.89,3.02,1.14
		c0.6,0.24,1.85,0.78,2.55,1.02c0.08-0.28,0.12-0.82,0.12-1.46c0-0.64-0.04-1.03-0.08-1.53C78.15,41.78,77.85,41.61,77.51,41.46z"/>
	<path class="st0" d="M68.48,17.55c0.4-0.27,0.95-0.83,1.24-1.06c0.3-0.23,0.47-0.38,0.33-0.35c-0.14,0.03-0.38,0.1-0.74,0.16
		c-0.36,0.06-4,0.82-4.57,0.91c-0.56,0.1-1.37,0.17-2.21,0.43c0.01,0.21-0.16,2.13-0.16,2.61c-0.01,0.48-0.11,1.93-0.11,2.18
		c0,0.25-0.08,1.06-0.1,1.33c-0.02,0.28-0.05,0.85-0.03,1.38c-0.01,0.09,0.06,0.05,0.26-0.21c0.16-0.27,1.97-2.55,2.56-3.28
		C65.56,20.93,68.09,17.82,68.48,17.55z"/>
	<path class="st0" d="M59.26,17.39c-0.12,0.01-0.33,0.1-0.6,0.2c-0.22,0.09-2.32,0.51-2.73,0.61c-0.4,0.1-1.18,0.15-1.7,0.39
		c0.13,0.03,0.76,0.6,1.21,0.98c0.45,0.38,1.49,1.24,2.07,1.77c0.59,0.53,1.36,1.27,1.78,1.64c0.13,0.12,0.07-0.24,0.06-0.45
		c-0.01-0.21,0.1-4.25,0.12-4.78C59.5,17.23,59.55,17.33,59.26,17.39z"/>
	<path class="st0" d="M68.84,13.94c0,0-0.18-0.32-0.41-0.62v0c-0.24-0.3-0.48-0.67-0.79-1.02c-0.31-0.36-2.65-2.96-2.92-3.33
		c-0.28-0.36-0.92-0.86-1.14-1.11c-0.22-0.24-0.19-0.15-0.29-0.29c-0.07-0.08-0.16-0.21-0.23-0.16c-0.09,0.08-0.07,0.22-0.09,0.42
		c-0.05,0.39-0.04,0.55-0.14,1c-0.08,0.37-0.36,4.58-0.38,4.92c-0.01,0.34-0.07,1.09-0.07,1.09s5.42-0.73,5.63-0.78
		C68.31,14,68.35,14.01,68.84,13.94z"/>
	<path class="st0" d="M69.28,22.32c-0.21,0.26-2.02,2.11-2.46,2.5c-0.44,0.4-2.82,3.08-3.02,3.26c-0.2,0.17-0.22,0.29-0.49,0.52
		c0.1,0.14,0.15,0.71,0.22,1.02c0.07,0.32,0.32,1.64,0.47,2.15c0.2-0.16,0.62-0.47,0.75-0.61v0c0.12-0.14,0.3-0.36,0.5-0.56
		c0.21-0.2,6.22-6.82,6.51-7.09c0.3-0.27,0.5-0.58,0.58-0.69c0.05-0.07,0.45-0.49,0.68-0.66c0.23-0.17-0.06,0.07,1.26-1.02
		c-0.07-0.09-0.31-0.52-0.41-0.7c-0.09-0.18-0.38-0.5-0.66-0.97c-0.29-0.46-0.44-0.65-0.7-0.91c0,0-0.28,0.21-0.49,0.39
		c-0.23,0.18-1.72,1.98-1.97,2.25C69.81,21.48,69.5,22.05,69.28,22.32z"/>
	<path class="st0" d="M36.7,4.27c0.92,1.05,1.99,2.23,2.46,2.86c0,0,2.17-5.84,2.53-7.23c0,0-0.39,0.01-0.8,0.03
		c-0.54-0.01-1.09,0.01-1.63,0.04c-0.67,0.05-2.02,0.08-3.18,0.2c-0.86,0.09-1.4,0.13-2.55,0.47c0,0,0.67,0.77,0.93,1.04
		C34.74,1.93,35.79,3.22,36.7,4.27z"/>
	<path class="st0" d="M45.55,14.34c0,0,0.82,0.2,1.2,0.3c0.39,0.1,1.14,0.35,1.43,0.44c0.24,0.07,0.2-0.03,0.35-0.37
		c0.08-0.18,0.29-0.55,0.62-1.02c0.34-0.47,2.45-3.53,2.89-4.03c0.44-0.49,0.87-1.26,1.25-1.75c0.37-0.48,1.77-2.12,1.99-2.55
		c0.1-0.19,0.33-0.52,0.96-1.43c0,0-0.17-0.12-0.35-0.23c-0.19-0.12-0.67-0.53-1.15-0.7c-0.47-0.17-1.36-0.67-1.95-0.64
		c0,0-0.49,0.95-0.72,1.33c-0.22,0.37-1.45,2.27-1.75,2.74c-0.3,0.47-3.79,6.31-3.99,6.64C46.15,13.41,45.79,13.94,45.55,14.34z"/>
	<path class="st0" d="M52.12,16.4c0,0,0.19,0,0.5-0.08v0c0.31-0.08,5.19-2.15,5.6-2.27c0.42-0.13,0.61-0.28,0.93-0.53
		c0.1-0.21,0.26-0.46,0.26-0.93c0-0.48,0.35-5.6,0.37-6.13c0.03-0.58,0.17-0.98-0.08-0.7c-0.24,0.28-1.66,2.17-2.09,2.71
		c-0.45,0.54-2.36,3.15-2.93,3.95C54.11,13.21,52.66,15.52,52.12,16.4z"/>
	<path class="st0" d="M78.54,36.01c0-0.89-0.14-2.45-0.18-3.17c-0.01-0.14-0.02-0.65-0.01-1.02c0.01-0.38-0.22-0.08-0.45,0.12
		c-0.24,0.2-5.07,3.94-5.22,4.1c-0.15,0.15-0.56,0.33-0.48,0.39c0.09,0.06,0.24,0.05,0.51,0.14c0.33,0.11,3.59,1.22,4.08,1.41
		c0.49,0.18,1.3,0.4,1.69,0.61c0.02-0.29,0.04-0.9,0.05-1.24C78.55,37,78.55,36.47,78.54,36.01z"/>
	<path class="st0" d="M72.45,56.17c-0.34-0.32-5.32-3.82-6.22-4.53c-0.9-0.71-2.76-2.04-2.88-2.15c-0.15-0.15-0.26-0.22-0.28,0
		c-0.03,0.23-0.07,0.52,0,1.02c0.07,0.49,0.2,1.97,0.28,2.51c0.07,0.54,0.17,1.79,0.21,2.46c0.04,0.68,0.15,1.66,0.18,2.44
		c0,0,0.62-0.05,1.08-0.07c0.45-0.02,7.93-0.77,8.5-1.02C73.31,56.82,72.8,56.49,72.45,56.17L72.45,56.17z"/>
	<path class="st0" d="M76.79,49.71c-0.22-0.11-0.67-0.28-1.07-0.54c-0.39-0.26-0.98-0.59-1.42-0.93c-0.45-0.34-2.14-1.14-2.83-1.51
		c-0.69-0.37-4.48-2.37-4.98-2.63c-0.48-0.25-1.37-0.68-2.07-1.04c0,0,0.01,0.51,0,0.82c-0.01,0.32,0,1.32,0.01,1.6
		c0,0.28,0.01,0.44,0.17,0.56c0.15,0.12,6.59,3.8,7.07,4.04c0.47,0.24,4.03,2.3,4.22,2.39c0.28-0.23,0.36-0.52,0.56-0.83
		c0.14-0.21,0.34-0.56,0.47-0.84c0.12-0.28,0.3-0.58,0.42-0.8C77.35,50,77.04,49.82,76.79,49.71L76.79,49.71z"/>
	<path class="st0" d="M59.43,62.93c0,0-0.98,0.07-1.42,0.01c-0.44-0.06-6.59-0.05-7.22,0.01c0,0,0.3,0.3,0.62,0.71
		c0.32,0.41,8.32,8.08,8.53,8.36c0.19,0.29,0.56,0.28,0.71,0.25c0.15-0.28-0.14-1.15-0.18-1.45C60.35,70.18,59.66,63.42,59.43,62.93
		z"/>
	<path class="st0" d="M45.52,72.03L45.52,72.03c-0.91-0.95-1.73-1.89-2.93-3.3c-1.2-1.43-2.11-2.25-3.41-3.33
		c-0.61-0.01-3.13-0.06-4.12-0.2c-0.15,0.23-0.26,0.45-0.36,0.68c-0.1,0.21-3.27,6.56-3.51,7.04c-0.24,0.48-1.12,2.1-1.3,2.49
		c-0.17,0.39-0.11,0.08-0.48,0.63c-0.38,0.55-0.74,1.26-0.97,1.97c0.19,0.14,0.67,0.32,1.04,0.47c0.37,0.16,1.28,0.31,1.66,0.48
		c0.04-0.2,5.06-10.27,5.42-11.02c0.35-0.76,0.61-0.85,0.98-1.43c0,0,4.2,4.38,4.64,4.96c0.43,0.58,2.38,3.09,3.06,3.99
		c0.68,0.89,1.6,1.89,2.21,2.92c0,0,1.48-0.29,1.8-0.42c0.32-0.14,1.07-0.3,1.33-0.47C50.28,77.26,46.42,72.98,45.52,72.03z"/>
	<path class="st0" d="M48.98,65.88c-0.8-0.84-1.06-1.12-1.7-1.79c0,0-0.32,0.13-0.7,0.22c-0.39,0.09-0.84,0.2-1.07,0.28
		c-0.23,0.07-0.34,0.05-0.15,0.18c0.18,0.13,5.23,5.91,5.92,6.66c0.7,0.75,2.46,2.77,2.71,3.09c0.24,0.31,0.39,0.61,0.78,1.27
		c0.56-0.17,1.02-0.54,1.47-0.69c0.46-0.14,0.65-0.3,0.79-0.43c-0.12-0.17-0.36-0.44-0.96-1.12C55.48,72.87,49.79,66.71,48.98,65.88
		z"/>
	<path class="st0" d="M60.51,55.11c-0.02-0.35-0.05-0.7-0.07-1.05c-0.35,0.31-0.5,0.51-0.76,0.85c-0.27,0.34-1.17,1.55-1.65,2.06
		c-0.48,0.5-1.29,1.28-1.62,1.52c-0.32,0.23-1.55,1.11-1.72,1.23c-0.17,0.12-0.11,0.21,0.09,0.25c0.2,0.04,4.53-0.32,5.87-0.49
		C60.77,59.03,60.54,55.45,60.51,55.11L60.51,55.11z"/>
	<path class="st0" d="M63.05,61.82c0.04,0.26,0.21,8.19,0.32,8.51l0.04,0.13l0.14-0.05c0.24-0.28,4.05-3.24,4.59-3.86
		c0.54-0.62,2.47-2.93,2.55-3.05c0.07-0.13,1.48-2.27,1.5-2.41c0.03-0.13,0.1-0.14,0.07-0.31C71.81,60.92,64.11,61.74,63.05,61.82z"
		/>
	<path class="st0" d="M43.12,77.27c-0.42-0.55-0.74-0.94-1.37-1.6c-0.63-0.66-1.91-1.86-2.37-2.37c-0.45-0.52-0.91-1.04-1.31-1.53
		c-0.15,0.13-0.41,0.74-0.63,1.12c-0.22,0.38-0.59,1.28-0.78,1.67c-0.18,0.39-1.08,2.4-1.43,3.08c-0.36,0.68-0.45,1.12-0.8,1.73
		l-0.03,0.09l0.14,0.04c0.2,0.01,0.42,0.19,0.89,0.2c0.37,0.01,1.32,0.21,1.97,0.18h0c0,0,0.13-0.02,0.91,0
		c0.67,0.01,0.7-0.04,1.31-0.03c0.61,0.01,1.42-0.1,2.33-0.31c0.9-0.21,1.01-0.21,1.7-0.36c0.65-0.13,0.71-0.2,0.52-0.48
		C43.98,78.43,43.54,77.82,43.12,77.27z"/>
</g>
</svg>
