<?xml version="1.0" encoding="utf-8"?>
<!-- Generator: Adobe Illustrator 25.4.1, SVG Export Plug-In . SVG Version: 6.00 Build 0)  -->
<svg version="1.1" id="Layer_1" xmlns="http://www.w3.org/2000/svg" xmlns:xlink="http://www.w3.org/1999/xlink" x="0px" y="0px"
	 viewBox="0 0 492.94 80" style="enable-background:new 0 0 492.94 80;" xml:space="preserve">
<style type="text/css">
	.st0{fill:#2C1E16;}
</style>
<g transform="matrix(.541667 0 0 .541667 -45 -16.6666)">
	<path class="st0" d="M159.81,106.89c0.32-0.48,0.62-0.99,0.94-1.47c0.2-0.3,0.41-0.59,0.62-0.87c0.21-0.28,0.52-0.55,0.64-0.89
		c0.04-0.08,0.03-0.08-0.04-0.16c-0.1-0.15-0.15-0.3-0.24-0.45c-0.11-0.21-0.24-0.4-0.39-0.59c-0.43-0.59-1.42-2.21-2.24-3.43
		c-0.81-1.21-1.96-3.08-2.86-4.29c0,0-0.35,0.57-1.02,1.7c-0.66,1.14-1.69,2.68-2.31,3.55c-0.46,0.68-1.19,1.64-2.46,3.32
		c0.55,0.82,1.59,2.95,2.48,4.24c0.89,1.29,2.34,3.32,3.31,4.67c0.48-0.59,0.81-0.98,1.07-1.42c0.28-0.43,0.76-0.98,0.98-1.41
		c0.24-0.44,0.61-0.99,1.28-2.18C159.65,107.09,159.73,106.99,159.81,106.89 M156.45,132.98c0.27-0.62,0.61-2.47,0.83-3.58
		c0.22-1.12,0.29-2.52,0.45-3.71c0.17-1.19-0.05-3.2-0.19-4.09c-0.14-0.9-0.42-1.85-0.7-2.54c-0.29-0.71-0.61-1.36-1.09-1.82
		c-0.19,0.48-0.23,0.77-0.37,1.16c-0.16,0.46-0.21,0.85-0.39,1.33c-0.18,0.47-0.49,1.59-0.61,1.85c-0.19,0.39-0.21,0.75-0.4,1.48
		c-0.18,0.72-0.28,1.97-0.3,2.3c-0.03,0.34,0.34,2.6,0.44,3.45c0.12,0.86,0.53,2.71,0.78,3.44c0.24,0.73,0.76,1.85,0.92,2.28
		C156.18,134.16,156.18,133.6,156.45,132.98 M146.28,126.8c0.3-0.38,1.2-1.6,2.02-2.47c0.82-0.87,1.17-1.81,1.47-2.69
		c0.3-0.89,0.69-2.52,0.76-3.38c0.08-0.89-0.05-1.27-0.07-1.58c-0.06-0.56-0.13-0.71-0.37-0.45c-0.15,0.13-0.86,0.96-1.42,1.61
		c-0.56,0.65-1.46,1.95-1.77,2.7c-0.33,0.76-0.86,2.04-1.03,2.95c-0.19,0.91-0.38,2.27-0.42,2.66c-0.04,0.4,0,1,0.05,1.43
		C145.76,127.47,146,127.18,146.28,126.8 M140.5,120.5c0.67-0.44,1.57-0.89,2.76-2.15c1.19-1.25,1.64-2.02,2.3-3.16
		c0.66-1.13,0.81-1.75,1.18-2.4c0.36-0.65,0.39-0.79,0.09-0.74c-0.43,0.09-0.51,0.09-1.64,0.76c-1.12,0.67-2.37,2.07-2.9,2.57
		c-0.54,0.5-1.77,2.4-2.09,3.01c-0.31,0.59-1.15,2.37-1.45,2.76c-0.3,0.41,0.06,0.31,0.6,0C139.68,120.93,139.81,120.94,140.5,120.5
		 M136.15,113.66c-1.22,0.29-2.9,0.21-3.85,0.17c0.3-0.42,1.43-1.25,2.35-1.94c0.93-0.69,2.3-1.15,2.77-1.39
		c0.47-0.24,1.2-0.6,1.76-0.71c0.56-0.14,0.61-0.23,1.1-0.33c0.58-0.11,1.01-0.06,1.85-0.22c0.46-0.09,0.69-0.06,1.24,0.09
		c0.18,0.05,0.26,0.14,0.11,0.3c-0.1,0.12-0.27,0.21-0.4,0.29c-0.09,0.07-0.18,0.14-0.29,0.22c-0.21,0.14-0.37,0.31-0.59,0.45
		c-0.21,0.13-0.41,0.25-0.61,0.38c-0.54,0.37-1.08,0.73-1.61,1.13C138.75,113,137.36,113.36,136.15,113.66 M143.08,103.11
		c-0.41-0.31-1.48-0.54-2.15-0.67c-0.73-0.16-1.8-0.41-2.55-0.39c-0.74,0.01-1.8-0.04-2.69-0.11c-0.88-0.05-2.17,0.07-3.28,0.36
		c-1.11,0.3-2.35,0.64-3.12,0.95c-0.52,0.2-1.08,0.37-1.82,0.72c-0.39,0.19-0.89,0.19-1.45,0.5c-0.56,0.32-0.52,0.41-0.35,0.44
		c0.16,0.03,0.8,0.28,1.25,0.32c0.62,0.04,1.98,0.4,3.51,0.52c1.54,0.13,3.13,0.1,4.45,0.06c1.33-0.04,2.88-0.17,4.93-0.9
		c0.67-0.37,0.94-0.27,1.65-0.52c0.73-0.25,1.12-0.44,2.3-0.77C143.43,103.37,143.49,103.42,143.08,103.11 M156.67,86.32
		c0.14-0.34,0.24-0.62,0.31-1.35c0.06-0.67,0.24-1.42,0.29-2.09c0.05-0.65,0.25-1.93,0.25-2.53c0.01-0.95,0.02-1.25,0.01-1.85
		c-0.03-0.7-0.09-3.05-0.46-4.51c-0.35-1.46-0.39-2.24-1.31-3.57c-0.88,0.95-1.08,2.78-1.22,3.68c-0.13,0.9-0.25,2.41-0.29,3.94
		c-0.07,2.12,0.14,4.65,0.39,5.65c0.24,1.01,0.73,3.05,0.96,3.42c0.38,0.58,0.38,0.46,0.76-0.17
		C156.37,86.95,156.5,86.72,156.67,86.32 M160.67,89.2c-0.08-0.14-0.15-0.58-0.15-0.84c-0.01-0.41-0.09-0.41,0.1-1.11
		c0.2-0.7,0.55-2.35,0.8-3.1c0.25-0.76,0.89-2.16,1.51-2.74c0.62-0.57,1.89-2.28,2.88-3.08c0,0-0.45,3.08-0.84,4.27
		c-0.36,1.13-0.73,2.15-1.35,3.55c-0.64,1.4-1.75,2.52-2.49,3.14C160.87,89.38,160.76,89.34,160.67,89.2 M166.3,92.8
		c0.77-0.32,1.88-1.21,2.85-1.98c0.97-0.79,1.25-1.18,1.84-1.91c0.58-0.73,1.06-1.95,1.34-2.47c0.29-0.54,0.73-1.07,0.1-0.79
		c-0.65,0.27-0.67,0.37-1.62,0.8c-0.96,0.41-0.79,0.33-2.58,1.85c-1.8,1.51-2.88,3.52-3.23,4.81
		C164.99,93.1,165.53,93.12,166.3,92.8 M171,96.76c0.75-0.22,2.02-1.13,3.27-2.06c1.24-0.93,1.89-1.87,2.9-3.22
		c-0.4,0.03-1.05,0.12-1.89,0.32c-0.83,0.2-1.3,0.42-2.02,0.77c-0.71,0.34-1.05,0.68-1.98,1.05c-0.78,0.35-1.47,0.86-2.14,1.38
		c-0.3,0.24-0.59,0.44-0.8,0.76c-0.2,0.3-0.35,0.73-0.5,1.06c-0.1,0.19-0.18,0.42-0.21,0.63c-0.04,0.31,0.27,0.21,0.48,0.17
		c0.31-0.05,0.61-0.16,0.91-0.25C169.5,97.24,170.27,96.99,171,96.76 M186.69,102.91c-0.18-0.19-0.49-0.45-1.28-0.73
		c-0.81-0.28-2.25-0.62-3.07-0.83c-0.83-0.24-1.68-0.33-2.63-0.41c-0.95-0.09-1.48-0.1-2.77-0.17c-0.71-0.05-1.96,0.08-3.07,0.38
		c-1.11,0.3-4.19,1.45-4.91,1.68c-0.75,0.23-0.21,0.57-0.03,0.79c0.19,0.22,1.01,0.48,1.35,0.55c0.33,0.06,0.84,0.24,1.54,0.36
		c0.7,0.12,2.54,0.32,4.72,0.31c2.18-0.03,3.67-0.08,5.47-0.25c1.8-0.17,3.78-0.79,5.1-1.25
		C187.09,103.32,186.89,103.08,186.69,102.91 M180.66,112.04c-0.41-0.3-1.69-0.94-2.54-1.32c-0.85-0.37-2.12-1.09-3.3-1.51
		c-1.18-0.43-2.33-0.36-3.01-0.38c-0.67-0.01-1.32-0.08-2.07,0.1c0,0,0.07,0.37,0.62,0.79c0.55,0.44,2.37,1.29,3.24,1.69
		c0.86,0.4,2.28,0.86,3.65,1.12c1.36,0.24,2.8,0.26,4.03,0.19C181.28,112.72,181.07,112.36,180.66,112.04 M173.92,120.7
		c-0.58-0.9-1.17-1.88-2.41-3.18c-1.23-1.31-2.54-2.29-3.28-2.76c-0.73-0.48-1.34-0.71-1.92-1.14c-0.58-0.42-0.46-0.03,0.25,1.16
		c0.7,1.19,1.82,3.15,2.22,3.67c0.41,0.51,1.2,1.05,2,1.53c0.82,0.48,1.73,0.96,2.13,1.3c0.4,0.33,1.22,0.73,1.65,0.9
		C174.47,121.76,174.35,121.39,173.92,120.7 M165.77,123.8c-0.18-1.45-0.9-2.84-1.44-3.44c-0.55-0.59-0.27-0.37-0.93-1.25
		c-0.66-0.87-1.44-1.92-2.17-2.63c-0.43-0.42-0.5-0.59-0.49-0.13c0,0,0.01,0.89,0.05,1.19c0.09,0.88,0.26,2.25,1.17,4.58
		c0.93,2.33,2.44,4.4,3.88,6.04C166.2,127.09,165.92,125.25,165.77,123.8 M144.18,97.42c-0.56-0.34-1.72-1.15-3-2.17
		c-1.27-1.02-2.1-1.05-2.99-1.34c-0.88-0.29-3.13-0.68-3.34-0.76c-0.25-0.09-0.22-0.11-0.7-0.2c-0.31-0.04-0.4-0.08-0.96,0.01
		c0,0,0.19,0.33,0.31,0.47c0.13,0.15,0.5,0.68,0.94,1.01c0.71,0.56,1.59,1,2.53,1.67c0.95,0.68,2.18,1.06,3.67,1.49
		c1.49,0.42,2.91,0.5,3.99,0.59C145.54,98.15,144.74,97.76,144.18,97.42 M147.33,93.64c-0.06-0.3-0.31-1.02-0.81-2.08
		c-0.46-0.94-1.07-1.81-1.8-2.56c-0.63-0.65-0.87-0.92-1.07-1.15c-0.19-0.22-0.77-0.67-1.06-0.86c-0.29-0.19-1-0.82-1.75-1.14
		c-0.79-0.33-1.07-0.55-2.16-0.97c-1.08-0.41-0.84-0.02-0.64,0.37c0.21,0.4,0.77,1.56,1.36,2.64c0.61,1.07,0.89,1.36,1.47,1.98
		c0.57,0.64,1.44,1.28,2.16,1.81c0.71,0.53,1.52,0.93,2.09,1.22c0.56,0.31,1.56,0.94,2.27,1.26
		C147.39,94.17,147.35,93.72,147.33,93.64 M150.03,88.58c-0.04-0.67-0.19-1.36-0.29-1.94c-0.08-0.49-0.25-0.84-0.45-1.47
		c-0.16-0.53-0.54-0.98-0.75-1.5c-0.21-0.5-0.91-1.77-1.63-2.71c-0.7-0.93-1.19-1.68-2.01-2.5c0,0-0.07,0.17,0.02,0.66
		c0.1,0.48,0.32,1.62,0.63,2.69c0.32,1.04,0.77,2.33,1.38,3.66c0.62,1.32,1.87,3.2,3.06,4.46C150,89.93,150.08,89.25,150.03,88.58
		 M351.86,39.93l-92.62,0.15l0.19,131.15l12.61-6.25l-0.17-112.29l73.79-0.12C345.66,52.55,351.86,39.93,351.86,39.93"/>
	<path class="st0" d="M351.91,70.48l-6.29-12.62l-68.43,0.12l0.18,106.98l12.61,6.23l-0.05-47.28l50.56-0.08l-6.29-12.61l-44.3,0.07
		l-0.02-5.32l44.34-0.07l6.23-12.62l-50.59,0.08l-0.03-22.77L351.91,70.48z M373.57,38.71l0.22,132.31l12.63-6.23l-0.2-119.87
		L373.57,38.71z M404.14,38.66l0.2,132.31l-12.61-6.2l-0.19-119.86L404.14,38.66L404.14,38.66z M533.49,38.45l0.21,132.32
		l12.61-6.23l-0.18-119.87L533.49,38.45z M564.05,38.41l0.21,132.33l-12.63-6.21l-0.19-119.86L564.05,38.41L564.05,38.41z
		 M489.81,123.98l-0.13-79.22l-12.63-6.21l0.13,83.15c0.02,12.21-2.9,20.12-16,20.13c-8.71,0.02-14.52-4.38-20.39-11.05l-4.75,13.02
		c6.02,5.06,12.2,10.68,26.79,10.66C477.4,154.44,489.85,143.96,489.81,123.98"/>
	<path class="st0" d="M507.74,123.82l-0.13-85.32l-12.63,6.26l0.14,80.44c0.03,22.42-15.89,34.56-32.65,34.58
		c-16.77,0.03-25.37-7.69-30.1-12.07l-13.03,4.84c9.49,9.68,21.4,19.85,42.78,19.81C483.52,172.32,507.79,158.2,507.74,123.82
		 M112.36,151.2c-0.26,0-10.09,0.81-11.57,1.33c0.65,0.95,3.32,3.95,4.74,5.28c1.41,1.32,5.53,5.21,6.98,6.36
		c0.2,0.11,0.15,0.01,0.32-0.62C112.97,162.91,112.77,151.19,112.36,151.2 M125.74,142.08c-0.61-0.49-3.3-3.61-3.76-4.11
		c-0.45-0.49-3.52-3.97-3.67-4.14c-0.15-0.16-0.42-0.72-0.66-1.05c0,0,0.45,10.46,0.6,10.71c0.14,0.25,6.64,0.34,8.78-0.18
		C127.02,143.32,126.37,142.55,125.74,142.08 M124.3,170.15c0,0,1.91,1.04,2.27,1.47c0.37,0.43,1.83,0.84,2.36,1.34
		c0,0,0.22-0.34,0.48-0.83c0.21-0.38,0.35-0.79,0.62-1.27c0.2-0.37,0.42-0.51,0.67-1.2c0.25-0.68,1-2.28,1.26-2.83
		c0.25-0.56,5.62-11.04,6.04-11.88c0.43-0.84,2.15-3.96,2.63-4.65c0,0-0.21-0.14-0.46-0.32c-0.27-0.17-1.56-0.9-1.94-1.14
		c-0.39-0.24-0.17,0.05-0.71-0.45c0,0-4.58,8-4.84,8.49c-0.24,0.49-0.88,1.62-1.16,2.19c-0.29,0.57-0.75,1.6-0.91,1.87
		c-0.15,0.26-4.95,7.32-5.21,7.71C125.03,169.22,124.83,169.38,124.3,170.15 M119.37,167.77c0.34-0.2,0.67-0.47,1.2-1.08
		c0.53-0.62,11.67-18.74,11.98-19.08c0.29-0.34,0-0.67-0.34-0.56c-0.34,0.13-14.26,1.75-14.79,2.13c0.13,0.38,0.01,1.29,0.14,2
		c0.1,0.69,1.12,14.21,1.31,14.83C119.18,166.96,118.9,166.94,119.37,167.77 M114.14,128.33c0,0-16.16,18.62-16.39,19.21
		c0.17-0.07-0.23,0.48,0.39,0.2c0.63-0.3,13.73-3.49,14.01-3.65C112.34,143.9,114.06,129.96,114.14,128.33 M94.89,140.43
		c0.46-0.63,8.2-8.16,9.02-9.15c0.81-0.98,5.04-5.01,8.17-8.87c-0.18-0.61-0.7-2.1-0.98-2.99c-0.27-0.84-0.44-1.36-0.65-2.22
		c0,0-0.33,0.5-0.48,0.74c-0.14,0.22-0.64,0.72-1.63,1.95c-0.99,1.23-5.87,6.11-7.54,8.06c-1.68,1.95-8.53,8.6-9.8,9.93
		c0,0,0.13,0.52,0.35,0.96c0.22,0.44,0.91,1.49,1.54,2.87c0,0,0.25,0.47,0.54,0.29C93.44,141.99,94.43,141.06,94.89,140.43
		 M88.94,130.47c0.6-0.35,3.22-3.15,3.72-3.63c0,0,7.58-7.5,9.56-9.3c2-1.79,4.46-4.8,6.6-6.92c0,0-0.12-3.54-0.02-4.35
		c0.11-0.81,0.02-2.06,0.05-3.01c0.02-0.96-0.02-1-0.2-1.19c0,0-0.48-0.26-1.08-0.54c-0.59-0.28-7.27-3.89-7.82-4.12
		c-0.52-0.23-2.13-0.79-3.08-1.28c-0.95-0.49-10.97-6.16-12.06-6.48c0,0.36-0.22,1.6-0.31,2.46c-0.09,0.85-0.4,1.91-0.43,2.74
		c0.21,0.09,2.03,0.93,2.97,1.42c0.96,0.49,8.08,4.29,9.77,5.04c1.69,0.77,8.63,4.24,9.82,4.96c-0.36,0.16-1.69,1.38-2.38,1.87
		c-0.69,0.51-4.57,4.74-5.83,5.96c-1.26,1.22-3.16,2.95-3.99,3.85c-0.83,0.91-6.41,6.15-6.89,6.45c-0.48,0.3-0.98,0.78-1.27,0.91
		c0.06,0.33,0.21,1.54,0.33,2.15c0.14,0.62,0.29,1.7,0.41,2.08c0.12,0.37,0.24,1.18,0.63,1.89
		C87.79,131.16,88.29,130.83,88.94,130.47"/>
	<path class="st0" d="M85.38,103.51c-0.81-0.3-1.11-0.42-2.26-0.74c0,0,0.04,0.12-0.03,0.94c-0.06,0.82,0.21,4.87,0.31,6.06
		c0.1,1.18,0.47,3.95,0.97,6.73c0,0,0.63-0.21,1.37-0.74c0.73-0.51,3.91-3.06,5.27-4.14c1.36-1.09,3.97-3.31,4.59-3.77
		c0.57-0.44,0.85-0.64,0.85-0.64c-0.27-0.06-2.97-0.68-3.47-0.88c-0.54-0.21-1.03-0.27-1.75-0.65c-0.7-0.37-2.16-0.84-2.78-1.16
		C88.01,104.31,86.44,103.9,85.38,103.51 M110.01,93.8c-0.03-0.21,0.13-0.87,0.18-1.43c0.05-0.55,0.12-1.23,0.48-2.14
		c0,0-0.32-0.15-0.72-0.28c-0.33-0.11-7.34-2.97-9.36-3.86c-2.03-0.89-10.25-4.68-11.02-5.14c-0.77-0.45-1.59-0.72-2.21-1.07
		c0,0-0.52,0.92-0.7,1.31c-0.17,0.38-0.56,2.08-0.61,2.92c0,0,2.29,0.68,2.45,0.77c0.15,0.08,18.92,8.34,21.44,9.36
		C109.96,94.24,110.03,94.02,110.01,93.8 M111.82,82.9c-0.37-0.28-18.75-9.95-19.18-10.23c-0.43-0.28-1.22-0.5-1.75-0.87
		c0,0,1-0.55,1.54-0.75c0.27-0.09,0.87-0.29,1.71-0.47c0.85-0.19,14.12-3.25,14.59-3.32c0.22-0.03,0.41,0.51,0.45,0.67
		c0.04,0.16,1.99,6.06,2.31,7.33c0.32,1.26,1.92,7.26,1.88,7.48c-0.03,0.22,0.1,0.5-0.09,0.72C113.3,83.48,112.19,83.2,111.82,82.9
		 M99.44,62.19c0.63-0.22,11.28-2.21,11.86-2.36c-0.04-0.33-0.5-2.7-0.6-3.45c-0.1-0.73-0.91-6.24-1.12-6.89
		c-0.18-0.49-0.19-0.65-0.41-0.77c0,0-0.33,0-0.52,0.08c0,0-0.31,0.23-0.9,0.75c-0.57,0.51-2.63,2.48-3.93,3.72
		c-1.29,1.23-3.72,4.38-4.48,5.39c-0.77,1.01-2.12,3.16-2.77,4.25c0,0,0.35-0.1,0.73-0.28C97.76,62.4,99.05,62.34,99.44,62.19
		 M122.93,70.07c2.36-2.23,4.37-3.71,6-4.65c-0.22-0.23-0.79-0.3-1.12-0.4c-0.33-0.09-10.6-1.11-11.23-1.18
		c-0.62-0.07-0.76,0.03-1.23,0.03c0,0,0.77,3.8,0.83,4.6c0.05,0.8,0.73,6.5,0.98,7.77C117.53,75.78,120.56,72.29,122.93,70.07
		 M133.47,60.36c-0.53-0.45-18.35-14.08-18.7-14.48c-0.69-0.75-0.75-0.62-0.61,0.47c0.13,0.98,0.63,3.1,0.89,4.39
		c0.26,1.27,1.05,5.03,1.38,7.42c0,0,1.29,0.17,1.98,0.33c0.7,0.16,14.48,2.59,15.64,2.58C134.3,61.07,134.02,60.82,133.47,60.36
		 M143.59,57.27c-0.09-0.09-1.44-1.44-2.17-2.11c-0.74-0.67-3.1-3.04-4.33-4.15c-2.16-1.9-4.32-3.8-6.48-5.7
		c-1.04-0.91-6.19-5.89-6.5-6.32c0,0-0.16,0.01-0.65,0.47c-0.49,0.45-2.65,1.94-2.89,2.08c-0.22,0.13-0.26,0.22,0.07,0.47
		c0.33,0.25,16.51,14.54,17.19,15.07c0.66,0.52,1.97,1.47,2.06,1.54c0.18,0.15,0.16,0,0.54-0.11c0.38-0.11,2.38-0.6,3.42-0.83
		C143.86,57.67,143.69,57.36,143.59,57.27 M134.97,38.35c0.46,0.58,9.27,9.16,10.1,9.97c0.83,0.8,6.58,6.64,6.94,6.9
		c0.34,0.27,0.6,0.62,0.73,0.71c0,0,8-0.32,9.01-0.1c0.15-0.4,0.72-1.37,1.09-2.03c0.38-0.66,3.71-10.64,4.53-12.63
		c0.82-2,2.51-6.1,2.86-6.98c0.35-0.87,0.47-1.44,0.82-1.89c0,0-0.25-0.22-0.58-0.29c-0.35-0.08-1.6-0.23-2.08-0.37
		c-0.44-0.11-0.98-0.15-1.63-0.28c0,0-1.04,2-1.25,2.52c-0.21,0.53-2.83,6.58-3.22,7.26c-0.39,0.68-4.36,12.53-4.96,13.41
		c0,0-2.86-3.38-3.79-4.32c-0.94-0.96-9.8-9.54-11.37-11.11c-1.57-1.58-3.4-3.29-4.88-5.19c0,0-0.34,0.11-1.33,0.4
		c-0.99,0.3-2.52,0.94-3.19,1.17c-0.66,0.23-0.37,0.47-0.06,0.83C133.42,37.09,134.61,37.9,134.97,38.35"/>
	<path class="st0" d="M160.06,30.57c0,0-0.71,0.03-1.49,0.05c-1-0.01-2,0.01-3,0.08c-1.24,0.08-3.72,0.15-5.86,0.36
		c-1.58,0.16-2.59,0.24-4.71,0.86c0,0,1.24,1.42,1.72,1.91c0.49,0.49,2.44,2.88,4.12,4.82c1.7,1.94,3.67,4.11,4.55,5.28
		C155.39,43.93,159.38,33.14,160.06,30.57 M169.38,57.79c0.72,0.18,2.11,0.64,2.65,0.81c0.45,0.14,0.37-0.06,0.65-0.68
		c0.15-0.32,0.54-1.01,1.15-1.88c0.62-0.86,4.52-6.52,5.34-7.43c0.81-0.91,1.61-2.33,2.31-3.23c0.69-0.89,3.26-3.92,3.67-4.71
		c0.19-0.36,0.61-0.96,1.77-2.65c0,0-0.3-0.22-0.65-0.42c-0.35-0.21-1.24-0.98-2.12-1.3c-0.88-0.32-2.51-1.24-3.6-1.18
		c0,0-0.9,1.76-1.32,2.46c-0.41,0.69-2.68,4.2-3.24,5.05c-0.56,0.86-7.01,11.64-7.37,12.27c-0.37,0.61-1.04,1.6-1.48,2.34
		C167.16,57.25,168.68,57.61,169.38,57.79 M180.23,60.9c0.57-0.15,9.58-3.96,10.34-4.2c0.77-0.23,1.12-0.52,1.72-0.98
		c0.19-0.38,0.48-0.85,0.47-1.72c0-0.88,0.64-10.34,0.68-11.33c0.06-1.08,0.31-1.81-0.15-1.29c-0.44,0.51-3.07,4-3.85,5.01
		c-0.82,1-4.36,5.82-5.41,7.3c-1.05,1.47-3.74,5.74-4.73,7.37C179.3,61.05,179.66,61.05,180.23,60.9 M192.65,72.37
		c-0.01-0.39,0.18-7.84,0.23-8.82c0.06-0.98,0.13-0.79-0.39-0.68c-0.21,0.02-0.61,0.18-1.12,0.38c-0.4,0.16-4.28,0.94-5.04,1.12
		c-0.73,0.18-2.19,0.27-3.13,0.72c0.23,0.06,1.4,1.11,2.23,1.82c0.83,0.71,2.74,2.29,3.83,3.27c1.09,0.98,2.5,2.34,3.28,3.02
		C192.77,73.41,192.66,72.75,192.65,72.37 M203.03,70.74c1.08-1.34,5.75-7.08,6.48-7.58c0.75-0.5,1.76-1.54,2.3-1.95
		c0.55-0.43,0.87-0.7,0.61-0.65c-0.25,0.06-0.71,0.19-1.36,0.3c-0.66,0.12-7.38,1.51-8.43,1.67c-1.04,0.18-2.52,0.32-4.09,0.8
		c0.02,0.38-0.29,3.93-0.29,4.81c-0.02,0.9-0.21,3.56-0.21,4.02c0,0.45-0.15,1.95-0.18,2.46c-0.03,0.51-0.09,1.56-0.05,2.55
		c-0.01,0.17,0.11,0.09,0.48-0.38C198.58,76.3,201.94,72.08,203.03,70.74 M202.63,88.31c0.23-0.26,0.56-0.67,0.93-1.04
		c0.38-0.37,11.48-12.59,12.02-13.09c0.56-0.5,0.93-1.06,1.07-1.27c0.09-0.12,0.83-0.91,1.25-1.22c0.42-0.3-0.1,0.13,2.32-1.88
		c-0.14-0.16-0.58-0.95-0.76-1.29c-0.16-0.33-0.69-0.93-1.23-1.78c-0.54-0.86-0.82-1.2-1.29-1.68c0,0-0.51,0.38-0.91,0.72
		c-0.42,0.33-3.17,3.65-3.63,4.15c-0.45,0.49-1.02,1.56-1.42,2.04c-0.39,0.48-3.74,3.89-4.54,4.62c-0.8,0.74-5.2,5.68-5.58,6.02
		c-0.37,0.32-0.4,0.53-0.9,0.97c0.19,0.26,0.28,1.3,0.41,1.89c0.12,0.6,0.59,3.03,0.86,3.98C201.62,89.13,202.38,88.57,202.63,88.31
		 M209.4,55.35c-0.44-0.55-0.9-1.23-1.45-1.88c-0.57-0.66-4.89-5.47-5.4-6.14c-0.52-0.67-1.7-1.6-2.1-2.06
		c-0.4-0.44-0.34-0.29-0.54-0.53c-0.14-0.15-0.29-0.4-0.42-0.29c-0.17,0.15-0.12,0.41-0.17,0.77c-0.09,0.72-0.07,1.01-0.25,1.85
		c-0.15,0.69-0.67,8.46-0.69,9.08c-0.03,0.63-0.13,2.01-0.13,2.01s10.01-1.35,10.39-1.43c0.54-0.13,0.62-0.12,1.52-0.25
		C210.16,56.5,209.82,55.91,209.4,55.35 M207.58,97.25c0.41-0.34,10.15-7.86,10.76-8.36c0.62-0.51,2.14-1.54,3.44-2.62
		c1.3-1.07,2.51-1.93,4.44-3.14c0,0-0.03-0.96-0.32-1.99c-0.28-1.03-1.63-4.42-1.63-4.42c0,0-0.8,0.72-1.21,1.06
		c-0.4,0.34-14.93,13.03-16.1,14.01c-1.17,0.97-3.07,2.73-3.46,3.07c-0.42,0.34-0.64,0.45-0.57,0.95c0.05,0.33,0.05,1.43,0.14,2.16
		c0.08,0.72,0.28,2.09,0.15,2.83c-0.11,0.75-0.14,2.41-0.3,3.35c0.61,0.16,7.72,2.9,8.97,3.37c1.24,0.47,3.73,1.42,5.11,1.92
		c1.39,0.5,4.48,1.65,5.58,2.11c1.1,0.44,3.42,1.44,4.7,1.89c0.15-0.51,0.21-1.52,0.22-2.7c0-1.18-0.08-1.91-0.15-2.83
		c0,0-0.55-0.32-1.19-0.59c-0.63-0.26-4.22-1.65-5.72-2.14c-1.5-0.47-13.74-4.96-14.26-5.24c-0.51-0.28-0.33-0.46-0.04-0.88
		C206.4,98.69,207.01,97.7,207.58,97.25"/>
	<path class="st0" d="M228.05,99.71c0.04-0.63,0.03-1.61,0.03-2.46c0-1.65-0.26-4.52-0.34-5.86c-0.02-0.27-0.04-1.19-0.02-1.88
		c0.01-0.7-0.41-0.15-0.84,0.21c-0.45,0.36-9.36,7.28-9.63,7.57c-0.28,0.28-1.04,0.61-0.88,0.71c0.16,0.11,0.44,0.1,0.93,0.26
		c0.61,0.2,6.62,2.25,7.52,2.6c0.9,0.34,2.4,0.74,3.12,1.13C227.99,101.46,228.03,100.34,228.05,99.71 M224.85,122.53
		c-0.4-0.19-1.25-0.52-1.97-1c-0.73-0.48-1.8-1.08-2.63-1.71c-0.84-0.62-3.96-2.1-5.22-2.79c-1.28-0.69-8.28-4.38-9.19-4.86
		c-0.89-0.47-2.53-1.25-3.81-1.93c0,0,0.02,0.94,0,1.52c-0.02,0.59,0,2.43,0.02,2.95c0.01,0.51,0.01,0.81,0.31,1.04
		c0.28,0.23,12.17,7.01,13.05,7.47c0.88,0.45,7.44,4.24,7.8,4.42c0.51-0.42,0.67-0.96,1.03-1.53c0.25-0.38,0.63-1.03,0.87-1.55
		c0.23-0.52,0.56-1.07,0.78-1.47C225.88,123.07,225.3,122.75,224.85,122.53 M216.84,134.47c-0.62-0.59-9.82-7.05-11.49-8.37
		c-1.67-1.32-5.1-3.76-5.31-3.97c-0.29-0.27-0.47-0.41-0.52,0c-0.05,0.43-0.13,0.97,0,1.88c0.12,0.91,0.37,3.64,0.52,4.63
		c0.14,0.99,0.31,3.3,0.38,4.55c0.07,1.26,0.29,3.06,0.34,4.5c0,0,1.15-0.09,1.99-0.13c0.84-0.04,14.64-1.43,15.69-1.89
		C218.42,135.67,217.47,135.06,216.84,134.47 M194.8,132.5c-0.04-0.64-0.08-1.29-0.12-1.93c-0.64,0.56-0.91,0.95-1.41,1.57
		c-0.49,0.63-2.16,2.87-3.05,3.81c-0.88,0.93-2.38,2.37-2.99,2.8c-0.59,0.43-2.86,2.05-3.18,2.26c-0.32,0.22-0.2,0.38,0.17,0.46
		c0.37,0.07,8.36-0.6,10.84-0.91C195.27,139.75,194.85,133.14,194.8,132.5 M208.88,153.64c1-1.14,4.57-5.4,4.71-5.64
		c0.14-0.23,2.73-4.19,2.76-4.44c0.05-0.25,0.19-0.26,0.13-0.57c-0.82,0.24-15.04,1.76-17,1.91c0.07,0.48,0.38,15.12,0.59,15.72
		l0.07,0.24l0.27-0.08C200.85,160.26,207.89,154.79,208.88,153.64 M192.79,146.96c0,0-1.81,0.14-2.63,0.02
		c-0.81-0.11-12.16-0.08-13.34,0.02c0,0,0.56,0.55,1.14,1.31c0.58,0.76,15.36,14.92,15.74,15.43c0.36,0.53,1.04,0.51,1.31,0.46
		c0.28-0.51-0.26-2.12-0.34-2.67C194.49,160.34,193.22,147.86,192.79,146.96 M186.91,169.41c0.85-0.27,1.21-0.56,1.47-0.79
		c-0.23-0.31-0.67-0.82-1.77-2.07c-1.1-1.25-11.61-12.62-13.1-14.15c-1.48-1.55-1.96-2.07-3.14-3.3c0,0-0.59,0.24-1.29,0.41
		c-0.71,0.17-1.56,0.38-1.97,0.51c-0.43,0.13-0.63,0.1-0.28,0.33c0.33,0.23,9.65,10.91,10.92,12.3c1.28,1.38,4.54,5.12,5,5.71
		c0.45,0.58,0.71,1.13,1.44,2.34C185.22,170.37,186.06,169.68,186.91,169.41 M167.11,163.75c-1.68-1.76-3.2-3.48-5.4-6.1
		c-2.21-2.64-3.9-4.15-6.29-6.15c-1.12-0.02-5.79-0.12-7.6-0.37c-0.28,0.43-0.48,0.83-0.66,1.25c-0.19,0.39-6.04,12.11-6.47,12.99
		c-0.45,0.89-2.07,3.88-2.4,4.59c-0.31,0.71-0.2,0.14-0.89,1.17c-0.7,1.02-1.37,2.33-1.79,3.64c0.36,0.27,1.24,0.59,1.91,0.87
		c0.69,0.29,2.36,0.57,3.06,0.88c0.08-0.37,9.34-18.97,10-20.34c0.65-1.39,1.13-1.58,1.8-2.63c0,0,7.75,8.08,8.56,9.15
		c0.8,1.07,4.39,5.71,5.65,7.37c1.25,1.65,2.95,3.48,4.09,5.4c0,0,2.74-0.53,3.32-0.78c0.6-0.25,1.98-0.56,2.46-0.86
		C175.91,173.4,168.78,165.49,167.11,163.75"/>
	<path class="st0" d="M152.13,178.25c0,0,0.25-0.03,1.69,0c1.23,0.02,1.29-0.07,2.43-0.05c1.13,0.01,2.62-0.18,4.29-0.57
		c1.66-0.39,1.86-0.39,3.14-0.66c1.2-0.25,1.32-0.38,0.96-0.89c-0.37-0.52-1.19-1.64-1.95-2.66c-0.77-1.02-1.37-1.74-2.52-2.96
		c-1.17-1.21-3.52-3.43-4.37-4.38c-0.83-0.95-1.68-1.91-2.42-2.82c-0.27,0.23-0.76,1.37-1.17,2.06c-0.41,0.69-1.09,2.35-1.44,3.08
		c-0.34,0.72-1.99,4.43-2.65,5.69c-0.66,1.25-0.83,2.06-1.48,3.19l-0.06,0.17l0.27,0.07c0.38,0.02,0.77,0.35,1.65,0.38
		C149.18,177.94,150.94,178.32,152.13,178.25 M677.67,170.27l-5.29-2.76l-5,2.77l-0.09-64.56l5.31,2.65l4.97-2.67L677.67,170.27z
		 M788.72,125.47l13.17,44.61l4.91-2.79l4.89,2.76l18.8-64.59l-5.93,2.67l-4.47-2.65l-13.31,48.83l-14.36-48.79l-3.71,2.65
		l-3.75-2.64l-14.17,48.84l-13.48-48.8l-4.44,2.66l-5.95-2.64l19.03,64.55l4.86-2.79l4.93,2.76L788.72,125.47L788.72,125.47z
		 M904.6,169.88l-0.05-25.75l-22.58-38.75l7.19,2.63l4.12-2.65l16.77,29.82l16.54-29.87l4.15,2.64l7.14-2.67l-22.35,38.83
		l0.03,25.75l-5.59-2.76L904.6,169.88L904.6,169.88z M967.12,170.72c-14.26,0.03-27.34-6.18-25.01-20.49l5.06,2.52l5.45-2.53
		c-1.29,7.03,5.97,11.62,14.46,11.61c9.6-0.01,15.44-4.02,15.43-9.53c-0.02-15.28-38.88-7.68-38.92-30.45
		c-0.03-11.52,10.8-17.52,24.01-17.54c13.89-0.01,25.94,5.84,23.14,19.31l-5.23-2.55l-5.6,2.59c1.36-6.69-3.19-10.68-12.29-10.65
		c-7.35,0-13.43,3.53-13.43,8.94c0.02,13.49,38.91,6.97,38.94,29.74C993.16,164.35,982.18,170.7,967.12,170.72 M728.31,148.72
		c6.12-3.29,10.8-11.65,11.08-20.36c-0.03-0.3,0.02-2.03-0.01-2.35c-0.75-12.56-9.71-20.41-20.97-20.4l-24.28,0.04l0.09,64.57
		l0.02-0.01l4.96-2.76l4.87,2.76l-0.03-18.81l11.37-0.05c0,0,1.03,0,2.71-0.14l14.89,18.94l4.02-2.77l9.17,2.77L728.31,148.72
		L728.31,148.72z M704.04,142.52l-0.07-27.63l14.11-0.03c6.19,0,10.97,5.07,11.47,11.37c0.02,0.21,0.12,0.59,0.12,1.58
		c-0.01,1.03-0.16,1.98-0.17,2.22c-0.81,7.56-5.99,12.47-12.26,12.47L704.04,142.52z M617.58,142.64l19.17-0.01l-9.68-26.18
		L617.58,142.64z M632.68,105.78l24.27,64.5l-6.17-2.73l-4.11,2.74l-6.98-18.82l-24.99,0.03l-7.01,18.86l-4.14-2.74l-6.13,2.76
		l24.06-64.57l5.57,2.64L632.68,105.78L632.68,105.78L632.68,105.78z M848.99,142.27l19.15-0.03l-9.79-26.16L848.99,142.27z
		 M864.08,105.41l24.25,64.49l-5.93-2.73l-4.32,2.76l-7-18.84l-24.97,0.04l-7.01,18.86l-4.31-2.75l-5.98,2.76l24.05-64.57l5.66,2.65
		L864.08,105.41L864.08,105.41z"/>
</g>
</svg>
