<?xml version="1.0" encoding="utf-8"?>
<!-- Generator: Adobe Illustrator 25.4.1, SVG Export Plug-In . SVG Version: 6.00 Build 0)  -->
<svg version="1.1" xmlns="http://www.w3.org/2000/svg" xmlns:xlink="http://www.w3.org/1999/xlink" x="0px" y="0px"
	 viewBox="0 0 48.5 80" style="enable-background:new 0 0 48.5 80;" xml:space="preserve">
<style type="text/css">
	.st0{fill:#0C0C11;}
	.st1{fill:#003755;}
</style>
<g id="Layer_1">
	<path class="st0" d="M-238.6-885.5c-0.7-0.1-1.8,0-2.5,0c0.5-0.4,1.2-0.7,1.6-0.5c0.1,0,0.1,0,0.2,0.1
		C-239.1-885.8-238.8-885.6-238.6-885.5z"/>
	<g id="text835">
	</g>
</g>
<g id="Layer_2">
	<g>
		<path class="st1" d="M15.2,59.2C4.9,39.7,34.9,4.5,38.9,0.4c0.2-0.2,0.1-0.3-0.3-0.3L24.3,0c-0.2,0-0.3,0.1-0.4,0.2
			c-2.2,2.6-45.7,54.3-9.6,76.4c8.5,5.2,21.2,4.4,34.3-2.6l-7.2-8.6C28.1,71.4,17.9,64.2,15.2,59.2z"/>
		<path class="st1" d="M40.8,64.9l0.5,0.6c0,0-0.2-0.3-0.6-0.9C40.8,64.8,40.8,64.9,40.8,64.9z"/>
	</g>
</g>
</svg>
