<?xml version="1.0" encoding="utf-8"?>
<!-- Generator: Adobe Illustrator 25.4.1, SVG Export Plug-In . SVG Version: 6.00 Build 0)  -->
<svg version="1.1" xmlns="http://www.w3.org/2000/svg" xmlns:xlink="http://www.w3.org/1999/xlink" x="0px" y="0px"
	 viewBox="0 0 182.3 80" style="enable-background:new 0 0 182.3 80;" xml:space="preserve">
<style type="text/css">
	.st0{fill:#0C0C11;}
	.st1{fill:#F57615;}
</style>
<g id="Layer_1">
	<path class="st0" d="M-238.6-885.5c-0.7-0.1-1.8,0-2.5,0c0.5-0.4,1.2-0.7,1.6-0.5c0.1,0,0.1,0,0.2,0.1
		C-239.1-885.8-238.8-885.6-238.6-885.5z"/>
	<g id="text835">
	</g>
</g>
<g id="Layer_2">
	<g>
		<g id="g1849">
			<g id="g1855" transform="translate(104.1541,773.1725)">
				<path id="path1857" class="st1" d="M78.1-728.7c-0.2-5.8-2.7-11.2-7.1-15.2c-4.4-4-10.2-6.1-16.2-6c-4.2,0.1-8.1,1.3-11.6,3.4
					l0.5-2.8c0.1-0.3-0.2-0.6-0.5-0.6l-10,0c-0.2,0-0.5,0.2-0.5,0.4l-9.9,55.7c-0.1,0.3,0.2,0.6,0.5,0.6l10.1,0
					c0.2,0,0.5-0.2,0.5-0.4l3.6-20.6c4.3,5.1,10.9,8.3,18.3,8.2c10.4-0.3,18.9-7.1,21.4-16.3c0-0.1,0-0.2,0.1-0.3
					c0-0.1,0.1-0.2,0.1-0.4C78-724.8,78.2-726.7,78.1-728.7 M55.6-715.8c-6.9,0.2-12.7-5-12.8-11.7c-0.2-6.6,5.3-12.1,12.2-12.3
					c6.9-0.2,12.7,5,12.8,11.7C68-721.5,62.6-716,55.6-715.8"/>
			</g>
			<g id="g1859" transform="translate(80.821,782.3669)">
				<path id="path1861" class="st1" d="M47.8-759l-10,0c-0.2,0-0.5,0.2-0.5,0.4l-1.5,8.2c-0.1-0.1-0.1-0.1-0.2-0.2
					c-7.1-9.1-20.5-10.4-30-3c-9.5,7.4-11.4,20.7-4.4,29.8c6.9,8.8,19.7,10.3,29.1,3.7l-0.7,4.2c-0.1,0.3,0.2,0.6,0.5,0.6l10.1-0.1
					c0.2,0,0.5-0.2,0.5-0.4l7.5-42.6C48.4-758.8,48.2-759.1,47.8-759 M19.4-725.4c-6.6,0-12.1-5.1-12.1-11.4c0-6.4,5.3-11.6,12-11.6
					c6.6,0,12.1,5.1,12.1,11.4C31.4-730.7,26-725.5,19.4-725.4"/>
			</g>
			<g id="g1863" transform="translate(54.8801,770.2826)">
				<path id="path1865" class="st1" d="M14.1-719.2c-2.8,2.6-6.2,4.4-9.8,5.1c-3.3,0.7-6.6,0.4-9.4-0.6c0.1,0,0.1-0.1,0.2-0.1
					l-0.2-0.2c2.2-1.9,18.3-16,24.4-21.3c0.2-0.2,0.2-0.4,0.1-0.7c-4.8-7.7-12.6-10.4-18.7-10.7c-6.1-0.3-12,1.8-16.5,5.7
					c-4.5,3.9-7,9.3-7.4,15.2c-0.4,5.6,2.4,10.6,2.4,10.6l0.4,0.5c-11,4.9-19.5-1.1-21.7-5.3c-8.7-16.3,16.4-45.6,19.7-49
					c0.1-0.1,0-0.3-0.2-0.3l-11.9-0.1c-0.1,0-0.3,0.1-0.3,0.2c-1.8,2.1-38.1,45.3-8,63.7c7.1,4.4,17.7,3.6,28.6-2.1
					c4.2,3.3,10.2,4.9,15.3,4.6c1.8,0,3.7-0.2,5.5-0.6c5.4-1.1,10.5-3.7,14.8-7.6L14.1-719.2z M-12-726.3c0.2-3.2,1.6-6.1,4.1-8.3
					c2.3-2,5.3-3.1,8.4-3.1c0.2,0,0.5,0,0.7,0c1.3,0.1,2.6,0.3,3.8,0.7c0.4,0.1,0.4,0.6,0.2,0.8l-16.4,14.3
					C-11.9-723.3-12.1-724.8-12-726.3"/>
			</g>
		</g>
		<g id="g1867" transform="matrix(1.65048,0,0,-1.65048,28.629532,0.53865608)">
			<path id="path1869" class="st1" d="M6.2,0.3L1.5-6.6h2.1l1.1,1.7l1.6,0L6.3-6.6l2,0L8,0.3H6.2z M6.4-3.3l-0.9,0l0.9,1.4L6.4-3.3z
				"/>
		</g>
		<g id="g1871" transform="matrix(1.65048,0,0,-1.65048,32.964023,8.6431731)">
			<path id="path1873" class="st1" d="M7.2-1.7h1.9l1.9,6.8l-1.9,0L7.2-1.7z"/>
		</g>
		<g id="g1877">
			<g id="g1883" transform="translate(52.3775,791.301)">
				<path id="path1885" class="st1" d="M10.9-788.5c0-1.4-1.3-2.7-3.4-2.7l-4.8,0l-3.4,11.3h2.9l1.4-5.1l2,0l1.9,5.1h3l-2.1-5.1
					C9.9-785.6,10.9-786.9,10.9-788.5 M7.5-788.1c-0.2,0.8-0.8,0.9-0.8,0.9H4.2l0.6-2h1.7C6.5-789.2,7.7-789.1,7.5-788.1"/>
			</g>
		</g>
	</g>
</g>
</svg>
