<?xml version="1.0" encoding="utf-8"?>
<!-- Generator: Adobe Illustrator 25.3.1, SVG Export Plug-In . SVG Version: 6.00 Build 0)  -->
<svg version="1.1" id="Layer_1" xmlns="http://www.w3.org/2000/svg" xmlns:xlink="http://www.w3.org/1999/xlink" x="0px" y="0px"
	 viewBox="0 0 116.13 80" style="enable-background:new 0 0 116.13 80;" xml:space="preserve">
<style type="text/css">
	.st0{fill:#ED4138;}
	.st1{fill:#00693A;}
	.st2{fill:#DF1804;}
	.st3{fill:#214078;}
	.st4{fill:#3487C7;}
	.st5{fill:url(#SVGID_1_);}
	.st6{fill:url(#SVGID_2_);}
	.st7{fill:#184A8A;}
	.st8{fill:url(#SVGID_3_);}
	.st9{fill:url(#SVGID_4_);}
	.st10{fill:url(#SVGID_5_);}
	.st11{fill:url(#SVGID_6_);}
	.st12{fill:#9E8266;}
	.st13{fill:#322E26;}
	.st14{fill:#332F27;}
	.st15{fill:#791722;}
	.st16{fill:url(#SVGID_7_);}
	.st17{fill:url(#SVGID_8_);}
	.st18{fill:url(#SVGID_9_);}
	.st19{fill:url(#SVGID_10_);}
	.st20{fill:url(#SVGID_11_);}
	.st21{fill:url(#SVGID_12_);}
	.st22{fill:url(#SVGID_13_);}
	.st23{fill:url(#SVGID_14_);}
	.st24{fill:url(#SVGID_15_);}
	.st25{fill:url(#SVGID_16_);}
	.st26{fill:url(#SVGID_17_);}
	.st27{fill:url(#SVGID_18_);}
	.st28{fill:url(#SVGID_19_);}
	.st29{fill:url(#SVGID_20_);}
	.st30{fill:url(#SVGID_21_);}
	.st31{fill:#222325;}
	.st32{fill:#A0925A;}
	.st33{fill:#061E34;}
	.st34{fill:#028E8F;}
	.st35{fill:#D5192C;}
	.st36{fill:#FAC201;}
	.st37{fill:url(#SVGID_22_);}
	.st38{fill:url(#SVGID_23_);}
	.st39{fill:url(#SVGID_24_);}
	.st40{fill:url(#SVGID_25_);}
	.st41{fill:#9F8A58;}
	.st42{fill:#749ED4;}
	.st43{fill:#045991;}
	.st44{fill:#1F9A8D;}
	.st45{fill:#222D68;}
	.st46{fill:#14152E;}
	.st47{fill:#62B3E4;}
	.st48{fill:#FEFEFE;}
	.st49{fill:none;}
	.st50{fill:#FC0302;}
	.st51{fill:#FE0807;}
	.st52{fill:#98684C;}
	.st53{fill:#86754D;}
	.st54{fill:#42484D;}
	.st55{fill:#41474C;}
	.st56{fill:#43494D;}
	.st57{fill:#DF073D;}
	.st58{fill:#DE023A;}
	.st59{fill:#FFFFFF;}
	.st60{fill:#6F6E6C;}
	.st61{fill:#072F67;}
	.st62{fill:#53A220;}
	.st63{fill:#FDC013;}
	.st64{fill:url(#SVGID_26_);}
	.st65{fill:url(#SVGID_27_);}
	.st66{fill:url(#SVGID_28_);}
	.st67{fill:#793A98;}
	.st68{fill:url(#SVGID_29_);}
	.st69{fill:url(#SVGID_30_);}
	.st70{fill:url(#SVGID_31_);}
	.st71{fill:url(#SVGID_32_);}
	.st72{fill:url(#SVGID_33_);}
</style>
<g>
	<path class="st58" d="M115.3,0.54c-1.58-0.27-24.42-0.37-30.69-0.13c-0.44,0.46-0.87,0.89-1.28,1.34
		c-4.31,4.72-8.61,9.45-12.91,14.18c-7.94,8.74-15.87,17.49-23.81,26.24c-4.25,4.69-8.5,9.39-12.76,14.07
		c-1.88,2.07-3.74,4.18-5.72,6.15c-3.02,3.01-6.31,5.72-9.77,8.23c-4.25,3.08-8.73,5.75-13.65,7.64c-1.4,0.54-2.84,1-4.56,1.61
		c1.16,0,1.98,0.01,2.81,0c8.22-0.07,16.44-0.18,24.66-0.22c19.67-0.11,39.34-0.18,59.01-0.28c1.03-0.01,2.05-0.07,3.15-0.12
		C98.3,53.14,106.8,27.1,115.29,1.06C115.34,0.9,115.3,0.71,115.3,0.54z"/>
	<path class="st59" d="M40.13,58.02c0.66,0.46,1.38,0.76,2.19,0.8c2.81,0.13,5.59,0.01,8.33-0.69c1.46-0.37,2.68-1.11,3.73-2.17
		c0.9-0.91,1.68-1.93,2.42-2.96c3.06-4.24,6.05-8.54,8.91-12.92c1.06-1.63,2.21-3.21,3.24-4.85c2.45-3.91,5.95-6.13,10.5-6.8
		c1.45-0.21,2.89-0.4,4.35-0.42c3.22-0.05,7.85-0.06,11.11,0.07c-1.04,0.21-2.15,0.35-2.63,0.44c-0.44,0.11-0.83,0.18-1.24,0.27
		c-2.03,0.45-3.97,1.11-5.74,2.24c-0.88,0.56-1.65,1.25-2.26,2.1c-5.33,7.41-10.66,14.81-15.98,22.22
		c-0.14,0.19-0.24,0.42-0.36,0.62c0.36,0.38,0.68,0.24,0.93-0.05c0.32-0.37,0.59-0.77,0.88-1.17c4.95-6.85,9.91-13.7,14.84-20.57
		c0.8-1.11,1.75-2.02,2.9-2.73c1.88-1.16,3.89-1.82,6.06-2.22c0.15-0.03,0.61-0.06,0.78-0.04c-0.08,0.07-0.26,0.24-0.29,0.28
		c-2.65,2.3-4.58,5.18-6.57,8.02C81.92,43.6,77.58,49.7,73.26,55.8c-0.27,0.39-0.52,0.8-0.88,1.35c1.57,0.3,2.97,0.61,4.38,0.82
		c2.64,0.39,5.3,0.75,7.95,1.08c0.78,0.1,1.58,0.08,2.37,0.08c1.9,0,2.85-0.22,3.99-1.35c0.4,0.23,0.64,0.32,0.96,0.52
		c0.08,0.08,0.17,0.04,0.11,0.12c-0.62,0.76-1.71,1.35-2.64,1.43c-0.67,0.06-1.34,0.05-2.01,0.05c-16.86,0-33.73,0-50.59,0
		c-0.69,0-1.36,0.01-2.8,0c1.31-0.19,3.1-1.07,4.01-1.91C38.75,57.65,39.41,57.54,40.13,58.02z M39.65,58.94
		c-0.46-0.38-0.74-0.51-0.96-0.01C38.94,59.15,39.21,59.09,39.65,58.94z"/>
	<path class="st59" d="M37.31,57.39c0.92-1.59,2.86-1.52,3.56,0H37.31z"/>
	<path class="st58" d="M38.32,59.07c0.39-0.67,1.21-0.64,1.51,0H38.32z"/>
</g>
</svg>
