<?xml version="1.0" encoding="utf-8"?>
<!-- Generator: Adobe Illustrator 25.3.1, SVG Export Plug-In . SVG Version: 6.00 Build 0)  -->
<svg version="1.1" id="Layer_1" xmlns="http://www.w3.org/2000/svg" xmlns:xlink="http://www.w3.org/1999/xlink" x="0px" y="0px"
	 viewBox="0 0 422.12 80" style="enable-background:new 0 0 422.12 80;" xml:space="preserve">
<style type="text/css">
	.st0{fill:#ED4138;}
	.st1{fill:#00693A;}
	.st2{fill:#DF1804;}
	.st3{fill:#214078;}
	.st4{fill:#3487C7;}
	.st5{fill:url(#SVGID_1_);}
	.st6{fill:url(#SVGID_2_);}
	.st7{fill:#184A8A;}
	.st8{fill:url(#SVGID_3_);}
	.st9{fill:url(#SVGID_4_);}
	.st10{fill:url(#SVGID_5_);}
	.st11{fill:url(#SVGID_6_);}
	.st12{fill:#9E8266;}
	.st13{fill:#322E26;}
	.st14{fill:#332F27;}
	.st15{fill:#791722;}
	.st16{fill:url(#SVGID_7_);}
	.st17{fill:url(#SVGID_8_);}
	.st18{fill:url(#SVGID_9_);}
	.st19{fill:url(#SVGID_10_);}
	.st20{fill:url(#SVGID_11_);}
	.st21{fill:url(#SVGID_12_);}
	.st22{fill:url(#SVGID_13_);}
	.st23{fill:url(#SVGID_14_);}
	.st24{fill:url(#SVGID_15_);}
	.st25{fill:url(#SVGID_16_);}
	.st26{fill:url(#SVGID_17_);}
	.st27{fill:url(#SVGID_18_);}
	.st28{fill:url(#SVGID_19_);}
	.st29{fill:url(#SVGID_20_);}
	.st30{fill:url(#SVGID_21_);}
	.st31{fill:#222325;}
	.st32{fill:#A0925A;}
	.st33{fill:#061E34;}
	.st34{fill:#028E8F;}
	.st35{fill:#D5192C;}
	.st36{fill:#FAC201;}
	.st37{fill:url(#SVGID_22_);}
	.st38{fill:url(#SVGID_23_);}
	.st39{fill:url(#SVGID_24_);}
	.st40{fill:url(#SVGID_25_);}
	.st41{fill:#9F8A58;}
	.st42{fill:#749ED4;}
	.st43{fill:#045991;}
	.st44{fill:#1F9A8D;}
	.st45{fill:#222D68;}
	.st46{fill:#14152E;}
	.st47{fill:#62B3E4;}
	.st48{fill:#FEFEFE;}
	.st49{fill:none;}
	.st50{fill:#FC0302;}
	.st51{fill:#FE0807;}
	.st52{fill:#98684C;}
	.st53{fill:#86754D;}
	.st54{fill:#42484D;}
	.st55{fill:#41474C;}
	.st56{fill:#43494D;}
	.st57{fill:#DF073D;}
	.st58{fill:#DE023A;}
	.st59{fill:#FFFFFF;}
	.st60{fill:#6F6E6C;}
	.st61{fill:#072F67;}
	.st62{fill:#53A220;}
	.st63{fill:#FDC013;}
	.st64{fill:url(#SVGID_26_);}
	.st65{fill:url(#SVGID_27_);}
	.st66{fill:url(#SVGID_28_);}
	.st67{fill:#793A98;}
	.st68{fill:url(#SVGID_29_);}
	.st69{fill:url(#SVGID_30_);}
	.st70{fill:url(#SVGID_31_);}
	.st71{fill:url(#SVGID_32_);}
	.st72{fill:url(#SVGID_33_);}
</style>
<g>
	<path class="st57" d="M70.01,67.63c-0.25,3.39-0.51,6.77-0.76,10.18c-0.18,0.09-0.33,0.24-0.49,0.24c-3.1,0.01-6.2,0.01-9.35,0.01
		c-0.72-1.25-0.85-2.68-1.51-4.03c-1.2-0.18-2.47-0.06-3.73-0.08c-1.28-0.02-2.55,0-3.95,0c-0.82,1.31-1.65,2.64-2.48,3.96
		c-1.66,0.27-8.01,0.27-9.72-0.03c-0.03-1.06,0.1-2.13,0.2-3.21c0.1-1.09,0.11-2.18,0.16-3.18c-0.31-0.48-0.7-0.36-1.05-0.36
		c-2.01-0.01-4.02-0.01-6.03,0c-0.29,0-0.61-0.07-0.9,0.18c-0.57,2.14-0.36,4.43-0.9,6.67c-1.45,0.27-2.9,0.03-4.46,0.15
		c0.03-3.29,0.44-6.41,0.63-9.54c0.19-3.09,0.5-6.17,0.76-9.36c1.57-0.29,3.11-0.15,4.79-0.09c-0.17,2.51-0.33,4.92-0.49,7.33
		c1.11,0.33,5.77,0.4,8.02,0.09c0.25-2.42,0.5-4.88,0.77-7.45c1.53-0.07,2.96-0.06,4.52,0c-0.4,5.76-0.88,11.37-1.32,17
		c0.62,0.02,0.69-0.48,0.88-0.8c2.96-5.03,5.91-10.07,8.86-15.1c0.21-0.36,0.44-0.71,0.68-1.09c1.56,0,3.07,0,4.69,0
		C60,65.01,62.02,70.95,64.22,77c0.48-0.43,0.35-0.8,0.39-1.1c0.05-0.36,0.04-0.73,0.06-1.09c0.02-0.36,0.04-0.73,0.07-1.09
		c0.04-0.42,0.11-0.84,0.16-1.27c0.04-0.36,0.05-0.73,0.08-1.09c0.02-0.36,0.03-0.73,0.05-1.09c0.02-0.36,0.04-0.73,0.07-1.09
		c0.03-0.36,0.08-0.73,0.11-1.09c0.04-0.36,0.09-0.72,0.11-1.09c0.03-0.36,0.04-0.73,0.05-1.09c0.02-0.36,0.03-0.73,0.06-1.09
		c0.03-0.42,0.07-0.85,0.12-1.27c0.04-0.36,0.1-0.72,0.13-1.09c0.03-0.36,0.04-0.73,0.06-1.09c0.02-0.36,0.03-0.73,0.06-1.09
		c0.04-0.36-0.02-0.74,0.32-1.18c1.34-0.1,2.78-0.04,4.35-0.03c1.32,1.83,2.46,3.84,3.7,5.77c1.24,1.93,2.47,3.87,3.87,6.08
		c0.63-4.07,0.71-7.87,1.25-11.7c1.36-0.31,2.74-0.1,4.04-0.14c0.44,0.33,0.3,0.72,0.28,1.06c-0.14,2.49-0.28,4.98-0.45,7.47
		c-0.23,3.4-0.49,6.79-0.74,10.29c-1.6,0.39-3.23,0.05-4.85,0.22c-2.46-3.57-4.86-7.07-7.26-10.56
		C70.23,67.56,70.12,67.59,70.01,67.63z M56.97,70.94c-0.32-1.01-0.52-1.83-0.84-2.61c-0.33-0.79-0.35-1.74-1.14-2.52
		c-0.94,1.77-2.02,3.3-2.76,5.13C53.82,70.94,55.26,70.94,56.97,70.94z"/>
	<path class="st58" d="M31.23,22.46c-0.71,1.37-1.78,2.1-3.35,2.09c-0.97-0.01-1.95-0.01-2.92,0c-0.36,0-0.73-0.06-1.17,0.26
		c-0.28,3.33-0.58,6.77-0.86,10.12c0.36,0.45,0.74,0.32,1.08,0.27c1.62-0.24,3.21-0.57,4.75-1.22c1.95-0.83,3.94-0.61,5.85,0.2
		c1.41,0.6,1.79,1.38,1.58,2.9c-0.25,1.77-1.3,2.83-2.97,3.31c-1.34,0.38-2.7,0.72-4.06,1.01c-5.17,1.1-10.33,2.19-15.51,3.23
		C11.75,45,9.8,45.17,7.9,45.57c-1.87,0.39-3.62-0.09-5.38-0.5c-0.4-0.09-0.77-0.34-1.16-0.52c-1.47-0.69-1.51-3.35,0.05-4.07
		c0.94-0.43,1.88-0.84,2.87-1.16c3.25-1.04,6.58-1.69,9.96-2.12c0.97-0.12,1.87-0.45,2.7-0.59c0.36-0.57,0.17-0.98,0.06-1.38
		c-0.91-3.34-1.73-6.7-2.24-10.13c-0.19-1.26-0.27-2.54-0.31-3.81c-0.04-1.2,0.41-2.26,1.22-3.15c1.06-1.16,2.45-1.06,3.29,0.05
		c0.25,0.34,0.51,0.67,0.79,1.05c3.11,0,6.21,0,9.27,0C30.18,19.98,31.06,20.86,31.23,22.46z"/>
	<path class="st57" d="M138.42,74c-2.72,0-5.21,0-7.78,0c-0.83,1.33-1.65,2.67-2.52,4.06c-3.17,0-6.33,0-9.43,0
		c-0.46-0.47-0.26-0.98-0.24-1.44c0.11-1.76,0.38-3.51,0.29-5.27c-1.23-0.31-4.16-0.37-7.9-0.17c-0.65,2.18-0.39,4.53-0.97,6.82
		c-1.47,0.14-2.91,0.12-4.47,0.01c0.09-3.21,0.46-6.33,0.66-9.47c0.2-3.09,0.51-6.17,0.77-9.34c0.8-0.25,1.59-0.11,2.36-0.13
		c0.73-0.02,1.46,0,2.27,0c0.36,1.31-0.12,2.55-0.1,3.8c0.01,1.21-0.15,2.42-0.24,3.71c1.31,0.31,2.65,0.1,3.96,0.14
		c1.27,0.04,2.55,0.01,3.93,0.01c0.62-2.47,0.43-4.98,0.95-7.5c1.38-0.38,2.83-0.03,4.15-0.17c0.48,0.36,0.35,0.74,0.32,1.09
		c-0.34,4.31-0.7,8.61-1.02,12.92c-0.08,1.09-0.38,2.16-0.24,3.32c0.46,0,0.51-0.41,0.66-0.66c2.84-4.82,5.66-9.65,8.49-14.48
		c0.4-0.68,0.81-1.35,1.25-2.09c1.51,0,3.02,0,4.69,0c1.26,2.99,2.24,6.17,3.39,9.29c1.15,3.13,2.23,6.29,3.39,9.57
		c-1.8,0.15-3.48,0.12-5.23,0.01C139.33,76.66,138.88,75.36,138.42,74z M135.74,65.78c-1.08,1.24-2.62,4.03-2.88,5.19
		c1.49-0.03,2.96,0.16,4.59-0.15C136.85,69.07,136.3,67.45,135.74,65.78z"/>
	<path class="st57" d="M118.51,47.73c-0.62-0.8-0.51-1.72-0.81-2.51c-0.31-0.83-1.01-1.34-1.52-2c0.39-0.45,0.85-0.2,1.23-0.33
		c0.6-0.21,0.88-0.62,0.76-1.26c-0.07-0.35-0.22-0.69-0.34-1.07c-0.72-0.21-1.46-0.28-2.08-0.69c-0.68-0.46-1.11-1.11-1.49-1.81
		c-0.34-0.62-0.3-1.41-0.74-1.97c-0.51,0.15-0.4,0.49-0.39,0.75c0.07,2.13,0.02,4.26-0.27,6.38c-0.11,0.78-0.28,1.56-0.49,2.31
		c-0.11,0.4-0.31,0.79-0.64,1.09c-0.51,0.47-1.2,0.39-1.55-0.2c-0.39-0.65-0.51-1.36-0.48-2.11c0.04-1.22,0.11-2.43,0.16-3.65
		c0.05-1.22,0.1-2.43,0.13-3.65c0.01-0.23,0.04-0.48-0.17-0.66c-1.73,0.42-4.25,1.79-5.35,2.91c-0.04,0.04-0.08,0.09-0.12,0.14
		c-0.56,0.68-1.14,1.25-2.16,1.04c-1.1-0.23-1.92-0.75-2.28-1.85c-0.06-0.17-0.08-0.35-0.12-0.5c0.13-0.6,0.63-0.75,1.05-0.96
		c1.7-0.84,3.52-1.34,5.34-1.81c1.29-0.34,2.59-0.61,4-0.93c0.19-1.25,0.41-2.5,0.57-3.75c0.1-0.82,0.4-1.52,0.97-2.11
		c0.21-0.21,0.45-0.4,0.92-0.36c0.64,1.39,0.05,2.94,0.33,4.45c0.44,0.25,0.89,0.23,1.35,0c0.36-0.5,0.13-1.06,0.26-1.52
		c-0.34-0.55-0.66-0.99-0.9-1.48c-0.43-0.91-0.03-1.59,0.95-1.65c0.61-0.04,1.2,0.08,1.79,0.26c0.69,0.21,1.33,0.63,2.17,0.55
		c0.27-0.68,0.11-1.39,0.13-2.07c-0.47-0.27-0.73,0.1-1.02,0.24c-0.88,0.44-1.66,0.32-2.35-0.33c-0.3-0.29-0.51-0.67-0.81-1.07
		c-2.47,1.63-4.94,2.84-6.68,5.08c-0.47,0.11-0.59-0.26-0.75-0.58c1.71-4.34,8.39-13.25,11.98-15.95c0.87-0.02,1.58,0.46,2.27,0.94
		c0.79,0.55,1.26,1.51,0.74,2.56c-0.48,0.98-0.91,1.99-1.4,2.97c-0.35,0.71-0.75,1.38-1.18,2.17c0.56,0.12,1.08,0.19,1.57,0.33
		c1.24,0.36,1.78,1.21,1.6,2.47c-0.11,0.74-0.5,1.37-0.81,2.02c-0.26,0.54-0.73,0.99-0.66,1.73c0.53,0.37,1.49,0.09,1.81,1.14
		c-0.14,1.15-1.12,1.95-1.81,2.81c0,1.12-0.02,2.15,0,3.18c0.02,0.97,0.08,1.95,0.11,2.92c0.06,1.82,0.17,3.65,0.17,5.47
		C121.52,46.74,120.66,47.56,118.51,47.73z M117.41,35.62c0.67-0.61,0.69-0.85,0.1-1.82C117.04,34.42,117.11,34.99,117.41,35.62z"/>
	<path class="st57" d="M23.58,59.11c-0.02,1.58-0.29,2.99-0.42,4.34c-0.55,0.37-1.05,0.24-1.52,0.24c-2.98,0.02-5.96,0.01-8.94,0.01
		c-0.3,0-0.61-0.02-0.91,0c-1.45,0.09-1.76,0.45-1.79,2.09c0.29,0.5,0.76,0.54,1.27,0.54c1.58,0,3.16,0.01,4.75,0.01
		c0.79,0,1.58,0,2.37,0.01c2.75,0.03,4.98,2.09,5.16,4.86c0.1,1.54-0.2,3.03-0.96,4.4c-0.82,1.48-2.04,2.39-3.77,2.5
		c-0.36,0.02-0.73,0.06-1.09,0.06c-4.08,0-8.15,0-12.23,0c-0.36,0-0.73,0.07-1.1-0.19c-0.17-0.87,0-1.78,0.03-2.68
		c0.01-0.47,0.1-0.95,0.17-1.53c1.59-0.06,3.1-0.02,4.6-0.03c1.52-0.01,3.04,0,4.56,0c1.52,0,3.04,0,4.36,0
		c0.62-0.24,0.87-0.6,1.05-0.98c0.41-0.84,0.1-1.62-0.77-1.89c-0.4-0.12-0.84-0.12-1.26-0.12c-2.62-0.01-5.23,0.01-7.85-0.01
		c-2.21-0.01-3.5-1.14-3.86-3.29c-0.2-1.22-0.16-2.43,0.05-3.63c0.36-2.06,1.79-3.24,3.57-4.07c0.89-0.41,1.85-0.63,2.83-0.63
		C15.69,59.1,19.52,59.11,23.58,59.11z"/>
	<path class="st57" d="M293.77,63.7c-0.73,0-1.27,0-1.81,0c-2.92,0-5.85,0-8.77,0.01c-0.37,0-0.73,0-1.1,0.02
		c-0.52,0.02-0.94,0.23-1.25,0.65c-0.32,0.44-0.33,0.73-0.05,1.69c0.35,0.33,0.79,0.26,1.21,0.27c2.38,0.01,4.75,0.01,7.13,0.03
		c2.64,0.02,4.88,2.17,5.03,4.79c0.07,1.23-0.06,2.44-0.52,3.59c-0.82,2.02-2.23,3.31-4.51,3.41c-0.3,0.01-0.61,0.02-0.91,0.02
		c-4.14,0-8.28,0-12.43,0c-0.24,0-0.47-0.03-0.8-0.05c-0.21-0.75-0.02-1.46,0.03-2.16c0.04-0.66,0.14-1.33,0.21-2.06
		c1.52-0.32,3.04-0.11,4.54-0.15c1.52-0.04,3.05-0.01,4.57-0.01c1.52,0,3.04,0,4.32,0c0.61-0.21,0.85-0.5,1.03-0.81
		c0.57-1,0.09-2.01-1.03-2.16c-0.42-0.06-0.85-0.02-1.28-0.02c-2.5,0-4.99,0.01-7.49,0c-2.1-0.01-3.31-0.92-3.78-2.96
		c-0.37-1.63-0.32-3.29,0.24-4.86c0.47-1.32,1.53-2.17,2.71-2.85c1.07-0.62,2.25-0.94,3.48-0.95c3.72-0.03,7.43-0.03,11.15-0.03
		c0.11,0,0.22,0.08,0.45,0.17c0.12,0.65,0,1.37-0.06,2.08C294.01,62.05,293.89,62.76,293.77,63.7z"/>
	<path class="st57" d="M148.57,34.25c0.24,0.55,0.02,1.08-0.07,1.6c-0.25,1.38-0.39,2.77-0.43,4.17c-0.03,0.99,0.14,1.87,0.82,2.71
		c0.87,1.08,0.51,2.01-0.8,2.57c-0.96,0.41-1.99,0.59-3,0.75c-2.65,0.4-5.31,0.74-7.99,0.2c-0.24-0.05-0.48-0.06-0.72-0.12
		c-2.33-0.57-3.51-1.94-3.71-4.34c-0.15-1.84,0.1-3.65,0.55-5.43c0.45-1.77,0.98-3.51,1.46-5.27c0.13-0.47,0.22-0.95,0.31-1.43
		c0.07-0.39-0.07-0.71-0.42-0.96c-0.67-0.22-1.28-0.04-1.88,0.33c-1.01,0.62-1.82,1.42-2.46,2.41c-1.62,2.5-3.23,5.01-4.85,7.51
		c-0.56,0.87-1.11,1.75-1.68,2.61c-0.2,0.29-0.41,0.62-0.96,0.63c-0.51-0.37-0.63-0.91-0.35-1.53c0.22-0.5,0.51-0.97,0.78-1.44
		c2.1-3.64,4.49-7.09,6.89-10.53c0.8-1.15,1.58-2.31,2.33-3.49c0.52-0.81,0.97-1.66,0.97-2.63c-0.42-0.26-0.65-0.04-0.87,0.15
		c-0.85,0.69-1.74,1.34-2.72,1.83c-0.65,0.32-1.34,0.57-2.05,0.74c-0.71,0.17-1.42-0.28-1.61-0.89c-0.2-0.64,0.08-1.37,0.77-1.67
		c0.61-0.26,1.27-0.41,1.91-0.57c1.53-0.38,3.08-0.71,4.6-1.11c0.57-0.15,1.19-0.31,1.42-0.93c-0.01-0.49-0.35-0.68-0.67-0.84
		c-0.54-0.27-1.11-0.5-1.66-0.74c-0.33-0.15-0.68-0.27-1-0.45c-1.84-1.04-2.29-2.24-1.7-4.44c0.28-0.42,0.71-0.67,1.14-0.89
		c1.41-0.71,2.78-0.71,4.15,0.15c2.2,1.38,3.5,3.32,3.82,5.88c0.3,0.46,0.84,0.12,1.18,0.41c0.24,0.4,0.11,0.81,0,1.21
		c-0.09,0.08-0.17,0.22-0.27,0.23c-1.3,0.1-2.28,0.77-3.11,1.72c-0.79,0.9-1.6,1.79-2.02,2.96c0.54,0.34,1.1,0.34,1.62,0.48
		c0.47,0.13,0.94,0.25,1.37,0.47c0.72,0.37,0.92,0.89,0.63,1.68c-0.36,0.97-0.81,1.9-1.21,2.85c-0.8,1.9-1.63,3.79-2.18,5.8
		c-0.75,2.76,0.85,5.04,2.5,5.94c1.94,1.06,3.97,1.04,5.99,0.23c0.95-0.38,1.56-1.18,1.92-2.11c0.37-0.96,0.64-1.96,0.94-2.95
		c0.3-0.99,0.52-2.01,1.12-2.88C147.65,34.43,147.96,34,148.57,34.25z"/>
	<path class="st57" d="M103.31,77.87c-0.45,0.29-0.83,0.21-1.18,0.21c-3.83,0.01-7.67,0.01-11.5,0c-0.73,0-1.45,0.01-2.16-0.24
		c-2.02-0.71-3.09-2.28-3.26-4.24c-0.29-3.27-0.26-6.57,0.29-9.82c0.2-1.17,0.86-2.12,1.82-2.86c1.44-1.12,3.1-1.77,4.88-1.81
		c4.01-0.09,8.02-0.03,12.14-0.03c0.25,1.48,0.08,2.88-0.28,4.37c-0.66,0-1.26,0-1.86,0c-2.92,0-5.84,0.01-8.76,0
		c-0.68,0-1.33,0.07-1.97,0.29c-0.76,0.26-1.23,0.76-1.42,1.53c-0.09,0.35-0.13,0.72-0.15,1.08c-0.08,1.76-0.15,3.53-0.22,5.29
		c-0.03,0.67-0.08,1.35,0.53,1.83c1.3,0.24,6.28,0.29,8.62,0.08c0.26-0.85,0.2-1.74,0.21-2.73c-1.4-0.28-2.8,0-4.27-0.2
		c-0.25-1.39-0.06-2.74-0.01-4.07c1.48-0.24,6.44-0.29,8.82-0.1C103.89,67.92,103.82,71.35,103.31,77.87z"/>
	<path class="st57" d="M293.61,40.72c-0.08-8.8-0.16-17.56-0.24-26.32c0-0.17-0.1-0.34-0.17-0.55c-0.95-0.18-1.79,0.21-2.64,0.49
		c-2.22,0.73-4.19,1.93-6.09,3.25c-0.8,0.56-1.6,1.12-2.53,1.44c-1.68,0.57-3.04,0.05-3.86-1.48c-0.71-1.32-0.28-2.71,1.06-3.38
		c0.78-0.39,1.65-0.57,2.49-0.39c1.58,0.35,2.97-0.15,4.41-0.68c3.19-1.18,6.41-2.26,9.52-3.56c0.82,0.1,1.36,0.59,1.88,1.11
		c0.59,0.58,0.89,1.27,0.86,2.12c-0.15,5.41-0.28,10.83-0.42,16.24c-0.04,1.4-0.07,2.8-0.12,4.2c-0.16,4.19-0.34,8.39-0.68,12.57
		c-0.16,1.99-1.41,2.99-2.98,3.79c-0.74,0.38-1.45,0.15-2.04-0.35c-1.09-0.92-1.67-2.06-1.36-3.54c0.28-1.34,0.92-2.5,1.74-3.57
		C292.82,41.64,293.22,41.18,293.61,40.72z"/>
	<path class="st57" d="M242.61,78.24c-1.38,0-2.59,0.01-3.8,0c-0.23,0-0.46-0.06-0.82-0.11c0.5-6.34,0.97-12.62,1.51-18.99
		c1.55-0.16,3-0.03,4.51-0.09c1.38,1.87,2.48,3.89,3.74,5.81c1.25,1.91,2.34,3.94,3.91,6.04c0.34-4.1,0.65-7.87,0.97-11.72
		c0.77-0.21,1.5-0.11,2.21-0.12c0.72-0.02,1.44,0,2.27,0c0.12,2.25-0.28,4.34-0.35,6.45c-0.06,2.07-0.22,4.14-0.45,6.19
		c-0.23,2.11-0.11,4.25-0.55,6.43c-1.55,0.21-3.06,0.11-4.64,0.07c-1.22-1.8-2.43-3.62-3.67-5.42c-1.23-1.79-2.33-3.66-3.79-5.49
		c-0.37,0.55-0.27,1.03-0.3,1.47c-0.05,0.55-0.05,1.09-0.08,1.64c-0.03,0.49-0.07,0.97-0.11,1.46c-0.05,0.55-0.12,1.09-0.16,1.64
		c-0.04,0.49-0.04,0.97-0.07,1.46c-0.03,0.55-0.06,1.1-0.11,1.64C242.79,77.06,242.71,77.54,242.61,78.24z"/>
	<path class="st57" d="M273.66,78.05c-1.31,0.24-13.25,0.29-15.57,0.05c-0.22-2.09,0.28-4.17,0.35-6.27
		c0.07-2.12,0.32-4.24,0.51-6.36c0.2-2.1,0.18-4.23,0.6-6.3c1.47-0.2,12.39-0.26,15.06-0.08c0.26,1.42,0.04,2.83-0.09,4.15
		c-0.36,0.44-0.74,0.34-1.1,0.34c-2.55,0.01-5.11,0-7.66,0.01c-0.6,0-1.2,0.03-1.83,0.05c-0.07,0.3-0.15,0.53-0.17,0.76
		c-0.05,0.6-0.08,1.2-0.11,1.72c0.37,0.5,0.83,0.41,1.24,0.41c2.55,0.01,5.11,0,7.66,0.01c0.47,0,0.97-0.14,1.43,0.19
		c0,1.32,0,2.65,0,3.86c-0.4,0.53-0.85,0.41-1.26,0.41c-2.49,0.01-4.99,0-7.48,0.01c-0.6,0-1.2,0.03-1.82,0.05
		c-0.29,0.84-0.35,1.61-0.28,2.38c0.32,0.44,0.78,0.31,1.19,0.31c2.74,0.01,5.47,0,8.21,0.01c0.47,0,0.97-0.14,1.47,0.23
		c0.13,1.05-0.03,2.13-0.08,3.21C273.92,77.51,273.91,77.82,273.66,78.05z"/>
	<path class="st57" d="M190.57,14.47c2.77-0.33,5.55-1.1,8.17-2.47c0.22-0.11,0.44-0.21,0.63-0.36c1.06-0.82,2.03-0.56,2.98,0.2
		c0.82,0.66,1.46,1.45,1.89,2.42c0.44,0.99,0.28,1.9-0.29,2.76c-0.52,0.79-1.25,1.32-2.14,1.63c-0.23,0.08-0.46,0.16-0.7,0.18
		c-1.99,0.16-3.97,0.36-5.89,0.93c-0.17,0.05-0.36-0.04-0.42-0.29c0.14-0.43,0.61-0.49,0.93-0.72c0.7-0.49,1.37-1.01,1.91-1.68
		c0.51-0.64,0.85-1.32,0.43-2.2c-0.86-0.27-1.7-0.12-2.51,0.11c-1.69,0.49-3.4,0.94-5.05,1.53c-2.47,0.89-5.02,1.42-7.58,1.94
		c-0.71,0.15-1.42,0.29-2.23,0.45c0.34,2.32-0.23,4.38-1.41,6.29c-1.02,1.67-2.25,3.17-3.68,4.47c-1.62,0.17-1.71,0.1-1.64-1.25
		c0.11-0.1,0.22-0.26,0.37-0.34c1.32-0.73,1.98-1.93,2.37-3.32c0.33-1.19,0.32-3.02,0.01-4.5c-1.93,0.06-6.06,1.18-7.87,2.17
		c-0.23,0.72-0.07,1.51-0.02,2.29c0.03,0.48,0.15,0.96,0.19,1.45c0.16,1.74-0.54,2.8-2.36,3.6c-0.61-0.14-0.84-0.66-1.08-1.14
		c-0.96-1.96-1.39-4.02-1.13-6.19c0.06-0.54,0.19-1.09,0.41-1.58c0.98-2.31,2.05-2.79,4.04-2.66c0.54,0.03,1.09,0.1,1.63,0.2
		c1.26,0.24,2.52,0.31,3.8,0.1c2.58-0.41,5.18-0.68,7.7-1.43c0.35-0.1,0.72-0.15,0.95-0.6c-0.44-0.45-0.9-0.92-1.35-1.4
		c-0.62-0.67-1.24-1.34-1.83-2.03c-0.49-0.58-0.71-1.25-0.67-2.03c0.08-1.45,0.8-2.25,2.24-2.39c1.37-0.13,2.59,0.06,3.64,1.18
		c1.2,1.28,2.6,2.38,3.92,3.55C189.38,13.76,189.83,14.18,190.57,14.47z"/>
	<path class="st57" d="M200.5,64.01c-0.54,4.6-0.76,9.26-1.25,13.91c-0.78,0.28-1.52,0.15-2.23,0.16c-0.71,0.01-1.43-0.03-2.12-0.05
		c-0.15-1.63,0.97-17.27,1.33-18.78c0.3-0.28,0.68-0.18,1.03-0.18c3.53-0.01,7.06,0,10.59,0c0.3,0,0.61-0.01,0.91,0.02
		c2.23,0.24,3.8,1.58,4.34,3.59c0.29,1.09,0.35,2.17,0.17,3.25c-0.29,1.73-1.22,3.02-2.89,3.7c-0.44,0.18-0.88,0.34-1.38,0.53
		c1.39,2.68,2.94,5.2,4.27,7.83c-0.21,0.13-0.3,0.25-0.39,0.25c-1.58,0.01-3.15,0.01-4.66,0.01c-0.87-1.27-5.31-9.29-6.32-11.4
		c0.19-0.48,0.62-0.27,0.94-0.27c1.4-0.02,2.8,0,4.2-0.01c1.33-0.02,1.61-0.3,1.66-1.58c0-0.12-0.01-0.24-0.04-0.36
		c-0.03-0.11-0.09-0.22-0.17-0.41c-0.15-0.08-0.35-0.24-0.58-0.29C207.2,63.75,201.62,63.85,200.5,64.01z"/>
	<path class="st57" d="M185.75,78.01c-1.9,0-3.52,0-5.22,0c-0.44-1.3-0.88-2.55-1.34-3.89c-1.29-0.37-2.62-0.12-3.94-0.16
		c-1.27-0.05-2.55-0.01-3.85-0.01c-0.45,0.74-0.87,1.4-1.27,2.08c-0.38,0.62-0.75,1.25-1.12,1.85c-1.41,0.29-4.17,0.29-5.71-0.01
		c3.67-6.27,7.32-12.51,10.98-18.75c1.59,0,3.11,0,4.73,0C181.3,65.32,183.48,71.56,185.75,78.01z M173.62,70.96
		c1.55,0.02,3,0.09,4.45-0.04c-0.44-2.18-1.14-4.11-1.85-5.13c-0.88,1.56-1.74,3.1-2.59,4.64
		C173.58,70.52,173.62,70.66,173.62,70.96z"/>
	<path class="st57" d="M243.15,44.67c-1.32-0.35-1.62-1.62-2.36-2.48c-0.62-0.08-1.03,0.35-1.5,0.58c-2.18,1.08-4.41,2.01-6.8,2.52
		c-1.15,0.25-2.29,0.24-3.45,0.18c-0.3-0.02-0.6-0.1-0.88-0.19c-1.64-0.52-2.03-1.13-1.89-3.06c2.69-3.19,5.43-6.44,8.13-9.65
		c2.45-0.59,2.75-0.54,3.68,0.53c0.01,0.76-0.43,1.36-0.87,1.92c-0.9,1.14-1.83,2.27-2.77,3.38c-0.74,0.88-1.51,1.73-2.03,2.62
		c0.05,0.72,0.44,0.87,0.9,0.8c0.35-0.05,0.69-0.22,1.01-0.38c0.66-0.31,1.29-0.68,1.96-0.96c1.17-0.49,2.34-1.02,3.75-0.87
		c0.34-1.35,0.67-2.63,0.98-3.86c1.54-1.08,2.35-1.03,3.51,0.2c0.72,0.76,1.2,1.68,1.6,2.63c0.77,1.84,0.33,3.45-1.03,4.83
		C244.53,44,243.89,44.46,243.15,44.67z"/>
	<path class="st57" d="M216.41,59.12c1.58-0.1,3.02-0.08,4.52-0.03c0.23,1.7-0.17,3.24-0.24,4.8c-0.07,1.64-0.24,3.27-0.34,4.91
		c-0.09,1.56-0.16,3.12-0.24,4.81c3.01,0.08,5.91-0.01,8.92,0.06c0.03,1.48-0.39,2.76-0.4,4c-0.25,0.36-0.55,0.36-0.86,0.36
		c-4.07,0-8.15,0-12.22-0.01c-0.12,0-0.24-0.05-0.35-0.07c-0.04-0.04-0.09-0.09-0.12-0.14c-0.03-0.05-0.08-0.1-0.07-0.15
		c0.13-1.88,0.26-3.76,0.4-5.63C215.73,67.79,216.07,63.56,216.41,59.12z"/>
	<path class="st57" d="M171.34,42.49c0.13-1.11,0.79-1.63,1.59-1.99c0.61-0.27,1.26-0.42,1.94-0.44c2.32-0.06,4.6-0.42,6.96-0.79
		c0.27-1.19,0.18-2.37,0.18-3.65c-1.73-0.32-3.67,0.13-4.81-1.6c0.1-0.15,0.15-0.29,0.24-0.34c2.55-1.57,5.23-2.85,8.22-3.34
		c1.54-0.25,3.02-0.15,4.21,0.84c0.22,0.51,0.09,0.83-0.17,1.12c-0.46,0.51-1.04,0.84-1.64,1.13c-0.76,0.37-1.53,0.73-2.35,1.11
		c-0.16,1.34-0.1,2.67-0.02,4.09c1.78,0.02,3.2-0.63,4.3-1.85c1.04-0.21,1.75,0.24,2.34,0.9c0.85,0.95,0.64,2-0.52,2.52
		c-0.55,0.25-1.14,0.42-1.73,0.57c-3.3,0.85-6.66,1.4-10.05,1.78c-1.93,0.22-3.88,0.39-5.63,1.48
		C173.33,43.71,172.16,43.58,171.34,42.49z"/>
	<path class="st57" d="M191.5,78.15c-1.17,0.17-2.26,0.07-3.35,0.08c-0.35,0-0.73,0.11-1.05-0.16c-0.16-1.3,1.06-16.94,1.49-18.92
		c1.4-0.23,2.84-0.02,4.26-0.11C192.99,60.64,191.89,76.16,191.5,78.15z"/>
	<path class="st57" d="M231.93,59.06c1.45,0,2.66-0.01,3.87,0.01c0.17,0,0.33,0.08,0.49,0.13c0.16,1.62-0.97,17.3-1.38,18.92
		c-0.72,0.24-1.51,0.1-2.28,0.12c-0.71,0.02-1.43-0.03-2.26-0.05C230.82,71.79,231.42,65.53,231.93,59.06z"/>
	<path class="st57" d="M150.33,78.24c-1.05,0-2.19,0-3.34,0c-0.3,0-0.61,0.05-1-0.31c0.08-3.03,0.46-6.15,0.69-9.28
		c0.23-3.15,0.53-6.29,0.81-9.47c1.5-0.21,2.88-0.09,4.17-0.1c0.13,0.12,0.19,0.15,0.22,0.2c0.03,0.04,0.07,0.11,0.06,0.16
		c-0.05,1.15-0.07,2.31-0.16,3.46c-0.38,4.97-0.77,9.94-1.17,14.91C150.62,77.91,150.5,78,150.33,78.24z"/>
	<path class="st57" d="M270.98,36.6c2.91-2.35,5.9-4.74,9.2-6.67c1.92-1.13,3.92-0.68,5.3,1.07c0.14,0.18,0.2,0.43,0.34,0.72
		c-1.47,2.77-2.9,5.57-4.78,8.11c-0.37,0.5-0.79,0.92-1.41,1.09c-1.35,0.38-2.72,0.6-4.13,0.41
		C272.66,40.95,271.03,39.12,270.98,36.6z M274.24,37.05c0.49,1.49,0.97,1.84,2.09,1.66c1.04-0.17,1.98-0.58,2.82-1.19
		c1.52-1.1,1.89-3.16,0.86-4.93C277.86,33.77,276.11,35.43,274.24,37.05z"/>
	<path class="st57" d="M251.42,25.92c-0.06,0.73-0.09,1.46-0.19,2.18c-0.08,0.65-0.47,1.08-1.07,1.37
		c-0.87,0.42-1.77,0.41-2.68,0.26c-0.5-0.08-0.88-0.42-1.13-0.86c-1.27-2.19-2.13-4.53-2.15-7.08c-0.01-1.59,0.56-2.99,1.99-3.88
		c1.33-0.83,2.42-0.62,3.31,0.67c0.67,0.96,1.08,2.05,1.34,3.18C251.16,23.13,251.44,24.5,251.42,25.92z"/>
	<path class="st57" d="M62.37,36.19c0.01,2.87-0.68,5.56-1.72,8.16c-0.72,1.8-1.62,3.52-2.67,5.16c-0.2,0.31-0.39,0.62-0.63,0.89
		c-0.62,0.71-1.48,0.91-2.29,0.49c-1.38-0.71-2.49-2.44-1.47-4.29c0.32-0.58,0.68-1.15,1.08-1.68c2.16-2.93,4.55-5.68,6.93-8.43
		C61.75,36.32,61.89,36.1,62.37,36.19z"/>
	<path class="st57" d="M217.56,31.16c-0.47-0.77-0.28-1.51-0.08-2.19c0.72-2.42,1.9-4.58,3.72-6.36c0.53-0.52,1.11-0.98,1.83-1.14
		c2.12-0.47,4.14,0.95,4.51,3.16c0.09,0.51-0.09,0.97-0.47,1.32c-0.62,0.58-1.26,1.14-1.9,1.69c-1.25,1.07-2.6,1.98-4,2.83
		c-0.73,0.44-1.51,0.76-2.34,0.98C218.39,31.58,218,31.49,217.56,31.16z"/>
	<path class="st57" d="M193.23,23.73c0.51,0.23,0.79,0.12,1.04-0.06c0.98-0.7,1.97-0.47,2.93,0.01c0.77,0.38,1,1.04,0.64,1.83
		c-0.38,0.83-0.83,1.62-1.54,2.33c-1.41,0.21-2.87,0.21-4.32,0.08c-0.53-0.05-1.08-0.22-1.57-0.44c-0.76-0.33-1.31-0.9-1.45-1.75
		c-0.42-2.48-0.04-4.84,1.07-7.08c0.08-0.16,0.19-0.31,0.31-0.45c0.48-0.59,1.19-0.64,1.74-0.09c0.26,0.25,0.49,0.55,0.65,0.87
		c0.64,1.27,1.08,2.58,0.65,4.03C193.31,23.22,193.29,23.46,193.23,23.73z"/>
	<path class="st57" d="M286.19,22.1c-0.2,0.78-0.71,1.15-1.13,1.56c-0.87,0.85-1.87,1.54-2.9,2.18c-2.12,1.31-4.34,2.41-6.64,3.36
		c-1.24,0.51-2.49,0.56-3.72,0.09c-1.02-0.38-1.74-1.06-1.68-2.22c0.47-0.45,0.99-0.39,1.45-0.36c1.66,0.12,3.05-0.49,4.42-1.36
		c1.69-1.07,3.5-1.94,5.33-2.74c1-0.44,2.03-0.81,3.12-0.96C285.05,21.57,285.62,21.6,286.19,22.1z"/>
	<path class="st57" d="M59.06,33.51c-0.89,0.96-1.91,1.21-3.14,0.82c-1.5-0.48-2.65-1.45-3.67-2.59c-0.27-0.31-0.44-0.73-0.58-1.12
		c-0.45-1.23-0.05-2.28,1.08-2.95c1.24-0.73,2.95-0.56,4.07,0.41c0.61,0.53,1.05,1.17,1.35,1.91
		C58.64,31.11,58.94,32.28,59.06,33.51z"/>
	<path class="st57" d="M63.09,22.93c-0.94,1.27-2.14,1.26-3.33,0.88c-1.41-0.45-2.52-1.4-3.49-2.51c-0.04-0.05-0.07-0.1-0.1-0.15
		c-0.79-1.2-0.89-2.37-0.25-3.21c0.71-0.94,2.2-1.4,3.43-1.07c1.12,0.3,1.93,0.97,2.45,1.99c0.25,0.48,0.49,0.98,0.64,1.49
		C62.7,21.22,62.88,22.1,63.09,22.93z"/>
	<path class="st57" d="M90.41,33.44c-1-0.09-1.92,0.2-2.82,0.61c-0.27,0.12-0.57,0.23-0.81-0.09c-0.06-2.32,0.94-4.66-0.08-6.89
		c-0.76-0.31-1.33-0.11-1.91,0.09c-1.26,0.45-2.52,0.9-3.78,1.33c-0.68,0.24-1.38,0.48-2.08,0.15c-0.25-0.68,0.16-1.11,0.53-1.49
		c0.8-0.83,1.62-1.66,2.51-2.39c1.56-1.27,3.17-2.47,4.77-3.68c0.39-0.3,0.8-0.56,0.81-1.26c-0.49-0.73-1.27-0.92-2.17-0.78
		c-0.96,0.15-1.89,0.42-2.8,0.77c-1.71,0.66-3.35,1.45-4.93,2.35c-1.69,0.96-3.36,1.96-5.03,2.95c-0.26,0.16-0.52,0.32-0.81,0.06
		c-0.14-0.25-0.09-0.48,0.03-0.69c0.38-0.63,0.76-1.25,1.14-1.87c2.21-3.57,4.42-7.14,6.61-10.71c0.32-0.52,0.58-1.07,0.82-1.63
		c0.3-0.69,0.1-1.33-0.41-1.84c-0.99-1-2.19-0.94-3.4-0.52c-1.08,0.37-1.7,1.14-1.75,2.31c-0.04,0.92-0.02,1.83,0.32,2.7
		c0.26,0.68,0.18,1.32-0.21,1.92c-0.53,0.81-1,1.68-1.63,2.42c-1.79,2.09-3.17,4.46-4.61,6.78c-0.57,0.93-1.12,1.89-1.58,2.88
		c-0.66,1.41-0.14,2.49,1.39,3.1c2-1.41,6.43-2.92,8.91-3c-2.16,3.5-4.29,6.96-6.43,10.46c-1.41-0.03-2.72,0.22-4.05,0.36
		c-0.85,0.09-1.67,0.32-2.46,0.63c-0.53,0.21-0.99,0.53-1.19,1.06c-0.24,0.63-0.3,1.29,0.14,1.88c1.46,0.11,2.92-0.33,4.47,0.19
		c-0.5,0.68-0.93,1.25-1.34,1.84c-1.09,1.57-1.9,3.26-2.06,5.2c-0.03,0.41-0.11,0.85,0.36,1.25c1.31-0.18,2.69-0.38,4.07-0.56
		c2.65-0.35,5.28-0.87,7.95-1.06c0.11,0.11,0.23,0.21,0.34,0.32c-0.11,0.9-0.25,1.81-0.34,2.71c-0.08,0.85-0.14,1.7-0.17,2.55
		c-0.01,0.43,0.08,0.85,0.58,1.11c1.24,0,2.33-0.53,3.23-1.38c1.63-1.53,2.26-3.55,2.49-5.62c0.5-0.6,0.92-1.11,1.34-1.61
		c0.56-2.89,0.61-5.82,1.15-8.66c0.72-0.34,1.39-0.36,2.05-0.38c0.91-0.03,1.83-0.01,2.74-0.02c0.43,0,0.86,0.01,1.28-0.06
		c0.75-0.11,1.17-0.66,1.13-1.41C92.68,34.59,91.67,33.55,90.41,33.44z M74.85,34.96c0.49,0.04,0.73,0.33,0.81,0.96
		c-0.24,0.06-0.41,0.13-0.58,0.13c-0.23,0.01-0.47-0.03-0.71-0.06C74.3,35.5,74.4,35.15,74.85,34.96z M76.05,44.07
		c-2.39,1.19-4.87,1.7-7.7,1.03c0.74-1.95,2.78-4.61,4.5-5.93c1.55,0.99,3.09,2.03,4.14,3.56C76.98,43.47,76.53,43.84,76.05,44.07z
		 M76.32,32.13c-0.21-0.87,0.46-1.27,1-1.88c1.13,0.82,1.16,1.1,0.4,2.56C77.17,32.84,76.77,32.46,76.32,32.13z M79.4,41.15
		c-0.94-0.47-1.31-1.24-1.25-2.23c0.05-0.88,0.67-1.22,1.51-1.41c0.76,0.35,1.13,0.88,1.33,1.57C80.78,40.02,80.36,40.77,79.4,41.15
		z M80.77,35.64c-0.7-0.17-0.84-0.81-1.05-1.34c-0.21-0.51-0.22-1.08-0.04-1.6c0.09-0.27,0.31-0.52,0.54-0.7
		c0.33-0.26,0.72-0.46,1.17-0.19c0.35,0.21,0.5,0.53,0.5,0.91C81.87,33.81,81.72,34.87,80.77,35.64z"/>
	<g>
		<path class="st58" d="M421.57,0.38c-1.58-0.27-24.42-0.37-30.69-0.13c-0.44,0.46-0.87,0.89-1.28,1.34
			c-4.31,4.72-8.61,9.45-12.91,14.18c-7.94,8.74-15.87,17.49-23.81,26.24c-4.25,4.69-8.5,9.39-12.76,14.07
			c-1.88,2.07-3.74,4.18-5.72,6.15c-3.02,3.01-6.31,5.72-9.77,8.23c-4.25,3.08-8.73,5.75-13.65,7.64c-1.4,0.54-2.84,1-4.56,1.61
			c1.16,0,1.98,0.01,2.81,0c8.22-0.07,16.44-0.18,24.66-0.22c19.67-0.11,39.34-0.18,59.01-0.28c1.03-0.01,2.05-0.07,3.15-0.12
			c8.52-26.11,17.02-52.15,25.51-78.18C421.62,0.75,421.57,0.55,421.57,0.38z"/>
		<path class="st59" d="M346.41,57.86c0.66,0.46,1.38,0.76,2.19,0.8c2.81,0.13,5.59,0.01,8.33-0.69c1.46-0.37,2.68-1.11,3.73-2.17
			c0.9-0.91,1.68-1.93,2.42-2.96c3.06-4.24,6.05-8.54,8.91-12.92c1.06-1.63,2.21-3.21,3.24-4.85c2.45-3.91,5.95-6.13,10.5-6.8
			c1.45-0.21,2.89-0.4,4.35-0.42c3.22-0.05,7.85-0.06,11.11,0.07c-1.04,0.21-2.15,0.35-2.63,0.44c-0.44,0.11-0.83,0.18-1.24,0.27
			c-2.03,0.45-3.97,1.11-5.74,2.24c-0.88,0.56-1.65,1.25-2.26,2.1c-5.33,7.41-10.66,14.81-15.98,22.22
			c-0.14,0.19-0.24,0.42-0.36,0.62c0.36,0.38,0.68,0.24,0.93-0.05c0.32-0.37,0.59-0.77,0.88-1.17c4.95-6.85,9.91-13.7,14.84-20.57
			c0.8-1.11,1.75-2.02,2.9-2.73c1.88-1.16,3.89-1.82,6.06-2.22c0.15-0.03,0.61-0.06,0.78-0.04c-0.08,0.07-0.26,0.24-0.29,0.28
			c-2.65,2.3-4.58,5.18-6.57,8.02c-4.31,6.12-8.65,12.21-12.97,18.31c-0.27,0.39-0.52,0.8-0.88,1.35c1.57,0.3,2.97,0.61,4.38,0.82
			c2.64,0.39,5.3,0.75,7.95,1.08c0.78,0.1,1.58,0.08,2.37,0.08c1.9,0,2.85-0.22,3.99-1.35c0.4,0.23,0.64,0.32,0.96,0.52
			c0.08,0.08,0.17,0.04,0.11,0.12c-0.62,0.76-1.71,1.35-2.64,1.43c-0.67,0.06-1.34,0.05-2.01,0.05c-16.86,0-33.73,0-50.59,0
			c-0.69,0-1.36,0.01-2.8,0c1.31-0.19,3.1-1.07,4.01-1.91C345.03,57.49,345.68,57.38,346.41,57.86z M345.92,58.79
			c-0.46-0.38-0.74-0.51-0.96-0.01C345.21,58.99,345.48,58.94,345.92,58.79z"/>
		<path class="st59" d="M343.58,57.23c0.92-1.59,2.86-1.52,3.56,0H343.58z"/>
		<path class="st58" d="M344.6,58.91c0.39-0.67,1.21-0.64,1.51,0H344.6z"/>
	</g>
</g>
</svg>
