<?xml version="1.0" encoding="utf-8"?>
<!-- Generator: Adobe Illustrator 25.4.1, SVG Export Plug-In . SVG Version: 6.00 Build 0)  -->
<svg version="1.1" id="Layer_1" xmlns="http://www.w3.org/2000/svg" xmlns:xlink="http://www.w3.org/1999/xlink" x="0px" y="0px"
	 viewBox="0 0 80 80" style="enable-background:new 0 0 80 80;" xml:space="preserve">
<style type="text/css">
	.st0{fill:#FFC425;}
	.st1{fill:#75787B;}
	.st2{fill:#C0C5C9;}
	.st3{fill:#E2E3E5;}
	.st4{fill:#FFFEFE;}
</style>
<g>
	<path class="st0" d="M40,0C26.8,0,15.1,6.4,7.8,16.3c0,0,0,0,0,0C2.9,22.9,0,31.1,0,40c0,22.1,17.9,40,40,40c3.1,0,6.1-0.3,8.9-1h0
		C66.7,74.9,80,59,80,40C80,17.9,62.1,0,40,0z M47.8,70.3c0,0,7.7-4.8,7.7-9.9s-1.9-8.1-2.7-10c-0.7-1.9-1-4.5-0.5-5.7
		c-3,2.6,1.6,8.5,1.6,13.2s-3.7,7.3-3.7,7.3c-5.9-1-9.1-3.7-10.4-6.8c-1.7-3.9-0.4-8.5,2.1-11.1c4.6-4.6,10.3-2.7,10.3-2.7
		c0.2-0.4,0.4-0.9,0.8-1.4c0.1-0.2,0.3-0.3,0.4-0.5c0,0,0,0,0.1-0.1c0,0,0,0,0.1-0.1c0,0,0.1-0.1,0.2-0.1c0,0,0.1,0,0.1-0.1
		c0.1,0,0.1-0.1,0.2-0.1c0,0,0.1,0,0.1-0.1c0,0,0.1,0,0.1-0.1c0,0,0.1,0,0.1-0.1c0,0,0,0,0.1,0c0.1-0.1,0.3-0.1,0.4-0.2
		c0,0,0.1,0,0.1,0c0,0,0,0,0,0c0,0,0.1,0,0.1,0c0,0,0.1,0,0.1,0c0,0,0.1,0,0.1,0c0,0,0,0,0,0c0,0,0,0,0.1,0c0,0,0.1,0,0.1,0
		c0,0,0.1,0,0.1,0h0c0,0,0.1,0,0.1,0c0,0,0,0,0,0c0,0,0.1,0,0.1,0c0.1,0,0.2,0,0.3,0c0.1,0,0.3,0,0.5,0c2.5,0.3,3.7,3.8,6.6,3.8
		c2.9,0,4.1-2.4,4.2-3.5c0,0,0-0.1,0-0.1c0,0,0-0.1,0-0.1c0,0,0-0.1,0-0.1c0,0,0,0,0-0.1c0,0,0,0,0,0c0,0,0-0.1,0-0.1
		c0,0,0-0.1,0-0.1c0,0,0,0,0,0c0,0,0-0.1,0-0.1c0,0,0-0.1,0-0.1c0,0,0-0.1,0-0.1c0,0,0-0.1,0.1-0.1c0,0,0,0,0-0.1
		c0.1-0.1,0.1-0.2,0.2-0.2c0,0,0-0.1,0.1-0.1c0,0,0,0,0,0c0,0,0,0,0,0c0,0,0,0,0,0c0,0,0.1,0,0.1-0.1v0c0,0,0.1-0.1,0.1-0.1
		c0,0,0,0,0,0c0,0,0,0,0,0c0,0,0,0,0,0c0,0,0,0,0,0c0,0,0.1,0,0.1,0c0,0,0,0,0.1,0c0.3,0,0.6,0.2,0.8,0.7
		C70.2,42.6,76.4,69.6,47.8,70.3z"/>
	<path class="st1" d="M69.4,41c-0.3-0.5-0.6-0.7-0.8-0.7c0,0,0,0-0.1,0c0,0-0.1,0-0.1,0c0,0,0,0,0,0c0,0,0,0,0,0c0,0,0,0,0,0
		c0,0,0,0,0,0c0,0-0.1,0-0.1,0.1v0c0,0-0.1,0-0.1,0.1c0,0,0,0,0,0c0,0,0,0,0,0c0,0,0,0,0,0c0,0,0,0-0.1,0.1
		c-0.1,0.1-0.1,0.2-0.2,0.2c0,0,0,0,0,0.1c0,0,0,0.1-0.1,0.1c0,0,0,0.1,0,0.1c0,0,0,0.1,0,0.1c0,0,0,0.1,0,0.1c0,0,0,0,0,0
		c0,0,0,0.1,0,0.1c0,0,0,0.1,0,0.1c0,0,0,0,0,0c0,0,0,0,0,0.1c0,0,0,0.1,0,0.1c0,0,0,0.1,0,0.1c0,0,0,0.1,0,0.1
		c-0.1,1.1-1.3,3.5-4.2,3.5c-2.9,0-4.1-3.5-6.6-3.8c-0.2,0-0.3,0-0.5,0c-0.1,0-0.2,0-0.3,0c0,0-0.1,0-0.1,0c0,0,0,0,0,0
		c0,0-0.1,0-0.1,0h0c0,0-0.1,0-0.1,0c0,0-0.1,0-0.1,0c0,0,0,0-0.1,0c0,0,0,0,0,0c0,0-0.1,0-0.1,0c0,0-0.1,0-0.1,0c0,0-0.1,0-0.1,0
		c0,0,0,0,0,0c0,0-0.1,0-0.1,0c-0.1,0.1-0.3,0.1-0.4,0.2c0,0,0,0-0.1,0c0,0-0.1,0-0.1,0.1c0,0-0.1,0-0.1,0.1c0,0-0.1,0-0.1,0.1
		c-0.1,0-0.1,0.1-0.2,0.1c0,0-0.1,0-0.1,0.1c-0.1,0-0.1,0.1-0.2,0.1c0,0,0,0-0.1,0.1c0,0,0,0-0.1,0.1c-0.1,0.1-0.3,0.3-0.4,0.5
		c-0.4,0.5-0.6,1-0.8,1.4c0,0-5.7-2-10.3,2.7c-2.5,2.6-3.8,7.1-2.1,11.1l-0.1,0.1c0,0-6.6,1.7-6.6,6.9c0,5.2,6,8.9,15.7,13.6
		c-2.9,0.7-5.9,1-8.9,1C17.9,80,0,62.1,0,40c0-8.9,2.9-17.1,7.8-23.7c0,0,0,0,0,0C8,16.2,26.5,5.1,48.9,10.7
		C71.4,16.3,69.8,37.7,69.4,41z"/>
	<path class="st2" d="M69.4,41c-0.3-0.5-0.6-0.7-0.8-0.7c0,0,0,0-0.1,0c0,0-0.1,0-0.1,0c0,0,0,0,0,0c0,0,0,0,0,0c0,0,0,0,0,0
		c0,0,0,0,0,0c0,0-0.1,0-0.1,0.1v0c0,0-0.1,0-0.1,0.1c0,0,0,0,0,0c0,0,0,0,0,0c0,0,0,0,0,0c0,0,0,0-0.1,0.1
		c-0.1,0.1-0.1,0.2-0.2,0.2c0,0,0,0,0,0.1c0,0,0,0.1-0.1,0.1c0,0,0,0.1,0,0.1c0,0,0,0.1,0,0.1c0,0,0,0.1,0,0.1c0,0,0,0,0,0
		c0,0,0,0.1,0,0.1c0,0,0,0.1,0,0.1c0,0,0,0,0,0c0,0,0,0,0,0.1c0,0,0,0.1,0,0.1c0,0,0,0.1,0,0.1c0,0,0,0.1,0,0.1
		c-0.1,1.1-1.3,3.5-4.2,3.5c-2.9,0-4.1-3.5-6.6-3.8c-0.2,0-0.3,0-0.5,0c-0.1,0-0.2,0-0.3,0c0,0-0.1,0-0.1,0c0,0,0,0,0,0
		c0,0-0.1,0-0.1,0h0c0,0-0.1,0-0.1,0c0,0-0.1,0-0.1,0c0,0,0,0-0.1,0c0,0,0,0,0,0c0,0-0.1,0-0.1,0c0,0-0.1,0-0.1,0c0,0-0.1,0-0.1,0
		c0,0,0,0,0,0c0,0-0.1,0-0.1,0c-0.1,0.1-0.3,0.1-0.4,0.2c0,0,0,0-0.1,0c0,0-0.1,0-0.1,0.1c0,0-0.1,0-0.1,0.1c0,0-0.1,0-0.1,0.1
		c-0.1,0-0.1,0.1-0.2,0.1c0,0-0.1,0-0.1,0.1c-0.1,0-0.1,0.1-0.2,0.1c0,0,0,0-0.1,0.1c0,0,0,0-0.1,0.1c-0.1,0.1-0.3,0.3-0.4,0.5
		c-1.8-1.4-10,0-10,0c-13.1,0-15-14.1-15-14.1c-0.1-6.5,5-10.7,5-10.7c7.4-5.7,16.1-3.1,25.5,2.6C68,26.7,69.4,41,69.4,41z"/>
	<path class="st3" d="M68.1,40.5L68.1,40.5C68.1,40.5,68.1,40.5,68.1,40.5C68,40.6,68,40.6,68,40.6c0,0,0,0,0,0c0,0,0,0,0,0
		c0,0,0,0-0.1,0.1c-0.1,0.1-0.1,0.2-0.2,0.2c0,0,0,0,0,0.1c0,0,0,0.1-0.1,0.1c0,0,0,0.1,0,0.1c0,0,0,0.1,0,0.1c0,0,0,0.1,0,0.1
		c0,0,0,0,0,0c0,0,0,0.1,0,0.1c0,0,0,0.1,0,0.1c0,0,0,0,0,0c0,0,0,0,0,0.1c0,0,0,0.1,0,0.1c0,0,0,0.1,0,0.1c0,0,0,0.1,0,0.1
		c-0.1,1.1-1.3,3.5-4.2,3.5c-2.9,0-4.1-3.5-6.6-3.8c-0.2,0-0.3,0-0.5,0c-0.1,0-0.2,0-0.3,0c0,0-0.1,0-0.1,0c0,0-0.9-1.4-4.1-1.7
		c-3.3-0.4-5.4,0.4-8.2,0.4c-2.8-0.1-4.9,0.1-9.5-3.9c-4.6-3.9-3.5-10.4-3.5-10.4c0.5-3.3,3.4-7.8,9.8-8.9c6.4-1.1,13.2,2,18.9,6.3
		C64.8,27.9,68.1,40.5,68.1,40.5z"/>
	<path class="st4" d="M47.8,19.1c0,0,9.7,0.6,9.7,9.9s-10.2,8.7-11.9,8.6c-1.7-0.2-9.4-2.1-8.8-10.6C36.7,26.9,38.2,19.1,47.8,19.1z
		"/>
	<circle class="st0" cx="47.8" cy="25" r="4.3"/>
	<path d="M53.9,58c0,4.7-3.7,7.3-3.7,7.3c-5.9-1-9.1-3.7-10.4-6.8c-1.7-3.9-0.4-8.5,2.1-11.1c4.6-4.6,10.3-2.7,10.3-2.7
		C49.3,47.3,53.9,53.2,53.9,58z"/>
	<circle cx="47.8" cy="25" r="2.2"/>
	<path d="M47.8,70.3c0,0,7.7-4.8,7.7-9.9s-1.9-8.1-2.7-10c-0.7-1.9-1-4.5-0.5-5.7c0.2-0.4,0.4-0.9,0.8-1.4c0.1-0.2,0.3-0.3,0.4-0.5
		c0,0,0,0,0.1-0.1c0,0,0,0,0.1-0.1c0,0,0.1-0.1,0.2-0.1c0,0,0.1,0,0.1-0.1c0.1,0,0.1-0.1,0.2-0.1c0,0,0.1,0,0.1-0.1
		c0,0,0.1,0,0.1-0.1c0,0,0.1,0,0.1-0.1c0,0,0,0,0.1,0c0.1-0.1,0.3-0.1,0.4-0.2c0,0,0.1,0,0.1,0c0,0,0,0,0,0c0,0,0.1,0,0.1,0
		c0,0,0.1,0,0.1,0c0,0,0.1,0,0.1,0c0,0,0,0,0,0c0,0,0,0,0.1,0c0,0,0.1,0,0.1,0c0,0,0.1,0,0.1,0h0c0,0,0.1,0,0.1,0c0,0,0,0,0,0
		c0,0,0.1,0,0.1,0c0.1,0,0.2,0,0.3,0c0.1,0,0.3,0,0.5,0c2.5,0.3,3.7,3.8,6.6,3.8c2.9,0,4.1-2.4,4.2-3.5c0,0,0-0.1,0-0.1
		c0,0,0-0.1,0-0.1c0,0,0-0.1,0-0.1c0,0,0,0,0-0.1c0,0,0,0,0,0c0,0,0-0.1,0-0.1c0,0,0-0.1,0-0.1c0,0,0,0,0,0c0,0,0-0.1,0-0.1
		c0,0,0-0.1,0-0.1c0,0,0-0.1,0-0.1c0,0,0-0.1,0.1-0.1c0,0,0,0,0-0.1c0.1-0.1,0.1-0.2,0.2-0.2c0,0,0-0.1,0.1-0.1c0,0,0,0,0,0
		c0,0,0,0,0,0c0,0,0,0,0,0c0,0,0.1,0,0.1-0.1v0c0,0,0.1-0.1,0.1-0.1c0,0,0,0,0,0c0,0,0,0,0,0c0,0,0,0,0,0c0,0,0,0,0,0
		c0,0,0.1,0,0.1,0c0,0,0,0,0.1,0c0.3,0,0.6,0.2,0.8,0.7C70.2,42.6,76.4,69.6,47.8,70.3z"/>
	<circle cx="64.8" cy="39.6" r="1.4"/>
</g>
</svg>
