<svg id="Layer_1" data-name="Layer 1" xmlns="http://www.w3.org/2000/svg" xmlns:xlink="http://www.w3.org/1999/xlink" viewBox="0 0 151.46 80"><defs><style>.cls-1{fill:#232323;}.cls-2{fill:url(#linear-gradient);}.cls-3{fill:#585858;}.cls-4{fill:#494949;}.cls-5{fill:#1e1a1f;}.cls-6{fill:#e3e3e3;}</style><linearGradient id="linear-gradient" x1="115.74" y1="-0.44" x2="115.74" y2="45.78" gradientUnits="userSpaceOnUse"><stop offset="0" stop-color="#4f4f4f"/><stop offset="0.2" stop-color="#6c6c6c"/><stop offset="0.62" stop-color="#b4b4b4"/><stop offset="1" stop-color="#fafafa"/></linearGradient></defs><path class="cls-1" d="M10.29,35.9s-.48-5.76,1.42-7.06,5.08-1.6,8.74,1.48V24.64S12.3,20,7.21,25.65c0,0-3.07,3-2.54,11.58V39H0v5.38H4.67V70a.91.91,0,0,0,.91.91H9.37a.92.92,0,0,0,.92-.91V44.39h5.85L18.5,39H10.29Z"/><path class="cls-1" d="M38.31,40c-4.91-3.06-13.48-.52-16.38,1.25V47s7.81-4.55,12.3-2.6S37,51.84,37,51.84s-17.8-1.66-17.8,9.87,17.92,10.34,23.47,8.45V49.47S43.21,43.06,38.31,40ZM37,66.2s-12.12,1.66-12.12-4.26S37,56.86,37,56.86Z"/><path class="cls-1" d="M58.59,51.89c-6.92-1.83-4.38-6.79-3.14-7.5s6.33-2.13,11.94,3.13V41.08a16.76,16.76,0,0,0-9-2.51c-5.5,0-9.7,3-9.7,9.66S57,57.1,57,57.1s6.5,1.71,6.5,5.61-5.14,4.15-7.68,3.7-7.16-4.23-7.16-4.23.89,3.84,0,6.44a17.4,17.4,0,0,0,9.94,3.08c6,0,10.52-4.38,10.52-9.52S65.5,53.73,58.59,51.89Z"/><polygon class="cls-1" points="90.81 39.3 82.71 39.3 82.71 31.81 77.21 31.81 77.21 39.3 72.12 39.3 72.12 44.15 77.21 44.15 77.21 70.87 82.71 70.87 82.71 44.15 88.56 44.15 90.81 39.3"/><path class="cls-1" d="M96.07,72.23c0,3.43-2.13,4.61-4.14,4.61a16,16,0,0,1-5-1.3V79a21.86,21.86,0,0,0,5.62,1c7,0,7.15-7.77,7.15-7.77V39.3H96.07Z"/><polygon class="cls-1" points="151.46 39.3 142.83 39.3 142.83 31.81 139.58 31.81 139.58 39.3 134.79 39.3 134.79 42.79 139.58 42.79 139.58 70.58 142.83 70.58 142.83 42.79 149.45 42.79 151.46 39.3"/><circle class="cls-1" cx="97.9" cy="31.56" r="2.6"/><path class="cls-1" d="M126.68,40.5a10.63,10.63,0,0,0-1.26-.64L125,39.7l-.21-.07-.23-.08-.35-.12-.42-.12a14,14,0,0,0-3.5-.42,15.8,15.8,0,0,0-3.64.41h0c-7,1.67-11.34,8.15-11.34,16.05,0,9.2,7.18,16.08,14.72,16.08s11-3.48,11-3.48V63.63s-3.28,4.32-11,4.32-11-8-11-12.33c0-.16,0-.32,0-.49h22.53a1,1,0,0,0,1-1.05V52.94h0C132.66,48.34,131,43.08,126.68,40.5Zm-6.82,1.61c9.25,0,9,9.77,9,9.78h-19.4C110.24,47.44,112.81,42.11,119.86,42.11Z"/><path class="cls-2" d="M123.83,39.31a14,14,0,0,0-3.5-.42,15.8,15.8,0,0,0-3.64.41A5.71,5.71,0,0,1,118.56,38a22.65,22.65,0,0,1-12.21-11.53c-3.84-8.66-.32-16.67.33-18.06S111,0,118.88,0s7.6,5.63,7.54,6.67l-2.24.77L120,10.27s-2.61,1.47.86,3.47a6.69,6.69,0,0,0-6.36.61,4.44,4.44,0,0,0-1.8,2.21l-.11.3a7.93,7.93,0,0,0,1.29,7.1c2.75,3.64,12.09,13.86,12.89,14.69C127.44,39.31,124.88,39.33,123.83,39.31Z"/><path class="cls-3" d="M132.66,40.69l-2-2-.38-.36h0l-3.4-3.26-1.71-1.64c-2.93-2.82-5.87-5.6-8.84-8.39A18.52,18.52,0,0,1,114,22.54a7.28,7.28,0,0,1-1.53-4,5.39,5.39,0,0,1,.2-1.67l.11-.3a4.44,4.44,0,0,1,1.8-2.21,6.69,6.69,0,0,1,6.36-.61h0a7,7,0,0,1,1.77,1C126.66,19,132.57,40.35,132.66,40.69Z"/><path class="cls-4" d="M135,46.13c-2.28.74-5-6.09-8.32-5.63a10.63,10.63,0,0,0-1.26-.64,11,11,0,0,0-1.59-.55c1,0,3.61,0,3-.66-.8-.83-10.14-11-12.89-14.69a7.93,7.93,0,0,1-1.29-7.1,5.39,5.39,0,0,0-.2,1.67,7.28,7.28,0,0,0,1.53,4,18.52,18.52,0,0,0,2.32,2.53c3,2.79,5.91,5.57,8.84,8.39l1.71,1.64,3.4,3.26h0s-1,.26-.29,1.09S137.27,45.39,135,46.13Z"/><path class="cls-5" d="M122.28,11.48a9.45,9.45,0,0,0,2.12-4.12s-.29-1.13-2.12-.32-2.71,2.08-2.17,3.18A2.92,2.92,0,0,0,122.28,11.48Z"/><path class="cls-5" d="M124.51,7.32a4.73,4.73,0,0,1-.7,2.32c-.71,1.12-1.53,2.12-1.77,2.47s2.17.2,3.17-.86,1.36-3.77,1.21-4.58S124.51,7.32,124.51,7.32Z"/><path class="cls-6" d="M117.88,3.82s.23,3,2.93,3,3-.41,3.7.49c0,0,.38.24.92-.22s.44-1.76.1-2.66a5.34,5.34,0,0,0-4.14-3.05C118.93,1,117.7,3,117.88,3.82Z"/><ellipse class="cls-3" cx="121.57" cy="4.08" rx="2.2" ry="1.97"/><circle class="cls-1" cx="121.76" cy="3.36" r="0.51"/></svg>