<?xml version="1.0" encoding="utf-8"?>
<!-- Generator: Adobe Illustrator 25.4.1, SVG Export Plug-In . SVG Version: 6.00 Build 0)  -->
<svg version="1.1" id="Layer_1" xmlns="http://www.w3.org/2000/svg" xmlns:xlink="http://www.w3.org/1999/xlink" x="0px" y="0px"
	 viewBox="0 0 150 80" style="enable-background:new 0 0 150 80;" xml:space="preserve">
<style type="text/css">
	.st0{fill:#0C0C11;}
	.st1{fill:#ED1C24;}
	.st2{fill:#173667;}
</style>
<path class="st0" d="M84.9-885.5c-0.7-0.1-1.8,0-2.5,0c0.5-0.4,1.2-0.7,1.6-0.5c0.1,0,0.1,0,0.2,0.1
	C84.4-885.8,84.7-885.6,84.9-885.5z"/>
<path class="st1" d="M74.9,16.8c-0.5,0.2-6.6-0.7-8.1-0.9c-1.4-0.2-4.3,0.5-4.3,0.5c-7.4,5.4-22,25.8-22.7,26.6
	c-0.6,0.9-5.8,7.8-5.8,7.8s1-0.6-11.9,15.4c-12.9,16-20.7,8.6-20.7,8.6c-1-0.9-1.6-0.1-1.5,0.5c0.1,0.5,0.8,0.9,0.8,0.9
	c12.4,7.7,23.3-7.4,23.3-7.4S36,53.4,36.6,52.6c0.5-0.8,1.2-0.7,1.2-0.7s7.1,0.4,9.7,0.6c2.6,0.2,1.4,3.3,1.4,3.3s-2,6.6-5.5,15.5
	c-3.5,9,5.9,8.6,5.9,8.6c4.3,0.5,5-3.7,5-3.7l13.3-36.5c0,0,8.5-19.8,8.8-21C76.8,17.5,75.3,16.6,74.9,16.8 M63.2,21.8
	c0,0-9.3,21.3-9.9,22.7c-0.6,1.4-1.1,1.4-1.7,0.9c-0.6-0.5-7.3-1.6-7.3-1.6c-1.6-0.2-0.1-2.1-0.1-2.1c11.1-15.3,16.8-19.2,18-20.5
	C63.6,19.9,63.2,21.8,63.2,21.8"/>
<path class="st2" d="M55.9,7.4c0.4,3.4,1.7,4.7,4.4,4.3c2.7-0.4,18.4-4.4,27.9-4.5c0,0-18.7,39.7-21.6,52.8c0,0-2,5.5,1.5,5.5
	c3.6,0,10-1,10.7-3.1c0.7-2,14.5-46.7,19.7-53.9c0,0,1.3-3.4,6.3-3.6c5-0.2,28.8-2.7,42.8-1.5c0,0,2.8,0.3,2.4-0.8
	c-0.2-0.5-0.6-0.6-1.3-0.9c-1.4-0.5-41.1-4.1-74.7,0.5C74,2.3,55.5,4.1,55.9,7.4"/>
</svg>
