<?xml version="1.0" encoding="utf-8"?>
<!-- Generator: Adobe Illustrator 25.4.1, SVG Export Plug-In . SVG Version: 6.00 Build 0)  -->
<svg version="1.1" id="Layer_1" xmlns="http://www.w3.org/2000/svg" xmlns:xlink="http://www.w3.org/1999/xlink" x="0px" y="0px"
	 viewBox="0 0 389.9 80" style="enable-background:new 0 0 389.9 80;" xml:space="preserve">
<style type="text/css">
	.st0{fill:#0C0C11;}
	.st1{fill:#ED1C24;}
	.st2{fill:#173667;}
</style>
<path class="st0" d="M84.9-885.5c-0.7-0.1-1.8,0-2.5,0c0.5-0.4,1.2-0.7,1.6-0.5c0.1,0,0.1,0,0.2,0.1
	C84.4-885.8,84.7-885.6,84.9-885.5z"/>
<g>
	<path class="st1" d="M74.9,16.8c-0.5,0.2-6.6-0.7-8.1-0.9c-1.4-0.2-4.3,0.5-4.3,0.5c-7.4,5.4-22,25.8-22.7,26.6
		c-0.6,0.9-5.8,7.8-5.8,7.8s1-0.6-11.9,15.4c-12.9,16-20.7,8.6-20.7,8.6c-1-0.9-1.6-0.1-1.5,0.5c0.1,0.5,0.8,0.9,0.8,0.9
		c12.4,7.7,23.3-7.4,23.3-7.4S36,53.4,36.6,52.6c0.5-0.8,1.2-0.7,1.2-0.7s7.1,0.4,9.7,0.6c2.6,0.2,1.4,3.3,1.4,3.3s-2,6.6-5.5,15.5
		c-3.5,9,5.9,8.6,5.9,8.6c4.3,0.5,5-3.7,5-3.7l13.3-36.5c0,0,8.5-19.8,8.8-21C76.8,17.5,75.3,16.6,74.9,16.8 M63.2,21.8
		c0,0-9.3,21.3-9.9,22.7c-0.6,1.4-1.1,1.4-1.7,0.9c-0.6-0.5-7.3-1.6-7.3-1.6c-1.6-0.2-0.1-2.1-0.1-2.1c11.1-15.3,16.8-19.2,18-20.5
		C63.6,19.9,63.2,21.8,63.2,21.8"/>
	<path class="st2" d="M55.9,7.4c0.4,3.4,1.7,4.7,4.4,4.3c2.7-0.4,18.4-4.4,27.9-4.5c0,0-18.7,39.7-21.6,52.8c0,0-2,5.5,1.5,5.5
		c3.6,0,10-1,10.7-3.1c0.7-2,14.5-46.7,19.7-53.9c0,0,1.3-3.4,6.3-3.6c5-0.2,28.8-2.7,42.8-1.5c0,0,2.8,0.3,2.4-0.8
		c-0.2-0.5-0.6-0.6-1.3-0.9c-1.4-0.5-41.1-4.1-74.7,0.5C74,2.3,55.5,4.1,55.9,7.4"/>
	<path class="st2" d="M120.9,48.6c-0.6,0-1.2-0.1-1.7-0.1c-0.6,0-1.2,0.1-1.8,0.1c-1-2.8-2.2-6-3.5-9.1h-8.5c-1.2,3-2.4,5.9-3.3,9.1
		c-0.5,0-0.8-0.1-1.2-0.1c-0.4,0-0.8,0.1-1.2,0.1L110,25.1h0.8L120.9,48.6z M109.6,29.5l-3.7,8.6h7.4L109.6,29.5z"/>
	<path class="st2" d="M126.1,28.5c-0.9,0-1.7-0.8-1.7-1.7c0-0.9,0.8-1.7,1.7-1.7c0.9,0,1.7,0.8,1.7,1.7
		C127.8,27.8,127,28.5,126.1,28.5 M127.5,48.6c-0.5,0-0.9-0.1-1.3-0.1c-0.5,0-0.9,0.1-1.3,0.1V32.6c0.4,0,0.9,0.1,1.3,0.1
		c0.4,0,0.8-0.1,1.3-0.1V48.6z"/>
	<path class="st2" d="M133.4,32.6c0.4,0,0.9,0.1,1.3,0.1c0.4,0,0.8-0.1,1.3-0.1v3.4l0.2-0.4c1.1-1.7,2.6-3.2,4.2-3.2
		c0.5,0,0.7,0,1,0.2l-0.5,2.8c-0.5-0.1-1-0.5-1.6-0.5c-0.7,0-1.7,0.3-2.2,0.8c-1.2,1.3-1.2,2.5-1.2,4.3v8.7c-0.5,0-0.9-0.1-1.3-0.1
		c-0.5,0-0.9,0.1-1.3,0.1V32.6z"/>
	<path class="st2" d="M145.3,23.4c0.4,0,0.9,0.1,1.3,0.1c0.4,0,0.8-0.1,1.3-0.1v25.2c-0.5,0-0.9-0.1-1.3-0.1c-0.5,0-0.9,0.1-1.3,0.1
		V23.4z"/>
	<path class="st2" d="M156,28.5c-0.9,0-1.7-0.8-1.7-1.7c0-0.9,0.8-1.7,1.7-1.7c0.9,0,1.7,0.8,1.7,1.7
		C157.7,27.8,156.9,28.5,156,28.5 M157.3,48.6c-0.5,0-0.9-0.1-1.3-0.1c-0.5,0-0.9,0.1-1.3,0.1V32.6c0.4,0,0.9,0.1,1.3,0.1
		c0.4,0,0.8-0.1,1.3-0.1V48.6z"/>
	<path class="st2" d="M163.2,32.6c0.4,0,0.9,0.1,1.3,0.1c0.4,0,0.8-0.1,1.3-0.1v3.1c1.2-2.1,3-3.3,5.4-3.3c3.9,0,5.4,2.1,5.4,6.5
		v9.7c-0.5,0-0.9-0.1-1.3-0.1c-0.5,0-0.9,0.1-1.3,0.1v-8.9c0-3.1-0.6-5.6-3.7-5.6c-3.5,0-4.4,2.6-4.4,6.7v7.8
		c-0.5,0-0.9-0.1-1.3-0.1c-0.5,0-0.9,0.1-1.3,0.1V32.6z"/>
	<path class="st2" d="M194.2,46.9c-1.6,1.2-3.7,2-5.8,2c-4.6,0-7.9-3.1-7.9-8.3c0-4.7,2.7-8.3,7.7-8.3c3.7,0,7.2,2.6,6.8,8.2
		c-2.3-0.1-4.6-0.1-6.8-0.1h-4.7c-0.3,3.8,1.7,7,5.8,7c2.3,0,4.1-1.4,5-2.3L194.2,46.9z M192.4,39.3c-0.1-2.9-0.9-5.9-4.2-5.9
		c-3.2,0-4.5,3-4.7,5.9H192.4z"/>
	<path class="st2" d="M198.5,45.4c0.8,1.3,2.3,2.5,3.9,2.5c1.7,0,3.3-1.3,3.3-3.1c0-4.5-7.9-1.6-7.9-7.5c0-3.2,2.5-5,5.5-5
		c1.7,0,3.2,0.5,3.8,0.9c-0.3,0.8-0.6,1.6-0.8,2.4h-0.3c-0.4-1.1-1.6-2.2-2.9-2.2c-1.7,0-3.1,1-3.1,2.8c0,4.3,7.9,2,7.9,7.4
		c0,3.6-3.2,5.3-6.2,5.3c-1.4,0-3-0.4-4.2-1.1c0.3-0.8,0.6-1.6,0.7-2.5L198.5,45.4L198.5,45.4z"/>
	<path class="st2" d="M228.2,32.4c4.6,0,7.8,3.2,7.8,8.2c0,4.3-2.9,8.3-8.4,8.3c-4.5,0-8.2-3.3-7.9-8.4
		C219.7,35.6,223.4,32.4,228.2,32.4 M222.7,41c0,3.3,1.4,6.9,5.2,6.9c3.9,0,5.2-4.8,5.2-7.5c0-3-1.1-7-4.9-7
		C223.9,33.4,222.7,37.4,222.7,41"/>
	<path class="st2" d="M240.2,33.8h-2.3c0.1-0.4,0.1-0.8,0-1.3h2.3l0.1-0.3c0.5-3.8,2.3-9.4,7.1-8.9c-0.2,0.9-0.2,1.9-0.2,2.7
		l-0.2,0.1l-0.7-0.3c-0.4-0.1-0.8-0.2-1.2-0.2c-3.4,0-3.1,3.8-2.3,6.9h3.4c-0.1,0.4-0.1,0.9,0,1.3h-3.4v14.8c-0.5,0-0.9-0.1-1.3-0.1
		c-0.5,0-0.9,0.1-1.3,0.1L240.2,33.8L240.2,33.8z"/>
	<path class="st2" d="M266.9,48.7c-0.5,0-1-0.1-1.5-0.1c-0.5,0-1,0.1-1.5,0.1V27.3c-3.4,0-5.4,0.2-7.4,0.4c0-0.3,0.1-0.7,0.1-1
		c0-0.3-0.1-0.6-0.1-1h17.3c0,0.4-0.1,0.7-0.1,1c0,0.3,0.1,0.7,0.1,1c-1.7-0.2-4-0.4-7-0.4L266.9,48.7L266.9,48.7z"/>
	<path class="st2" d="M285.3,45.8c0,1.3-0.1,2,1.9,1.5v0.7c-0.2,0.1-0.6,0.3-1,0.3c-1.7,0.3-3.2,0-3.5-2l-0.3,0.3
		c-1.4,1.4-3,2.1-5,2.1c-2.4,0-4.5-1.6-4.5-4.1c0-3.8,3.1-4.3,6.2-4.8c2.7-0.4,3.6-0.6,3.6-2.2c0-2.5-1.4-3.9-3.9-3.9
		c-2.5,0-3.8,1.6-4,2.3h-0.4v-1.9c1.6-1.1,3.4-1.8,5.4-1.8c3.5,0,5.4,1.8,5.4,5.6L285.3,45.8L285.3,45.8z M282.7,40.3l-1.2,0.2
		c-2.3,0.4-5.7,0.8-5.7,3.8c0,2.1,1.2,3.2,3.3,3.2c0.9,0,2.1-0.6,2.7-1.3c0.2-0.2,0.9-0.8,0.9-1C282.7,45.2,282.7,40.3,282.7,40.3z"
		/>
	<path class="st2" d="M290.7,45.4c0.8,1.3,2.3,2.5,3.9,2.5c1.6,0,3.3-1.3,3.3-3.1c0-4.5-7.9-1.6-7.9-7.5c0-3.2,2.5-5,5.5-5
		c1.7,0,3.2,0.5,3.8,0.9c-0.3,0.8-0.6,1.6-0.8,2.4H298c-0.4-1.1-1.6-2.2-2.9-2.2c-1.7,0-3.1,1-3.1,2.8c0,4.3,7.9,2,7.9,7.4
		c0,3.6-3.2,5.3-6.2,5.3c-1.4,0-3-0.4-4.2-1.1c0.3-0.8,0.6-1.6,0.7-2.5L290.7,45.4L290.7,45.4z"/>
	<path class="st2" d="M303.7,32.6c0.4,0,0.9,0.1,1.3,0.1c0.4,0,0.8-0.1,1.3-0.1v2.9c1.1-1.9,2.6-3.1,5-3.1c2.2,0,4.2,1.2,4.9,3.3
		c1.3-2.2,3-3.3,5.3-3.3c4.1,0,5.4,2.4,5.4,6.5v9.7c-0.5,0-0.9-0.1-1.3-0.1c-0.5,0-0.9,0.1-1.3,0.1v-8.9c0-3-0.4-5.6-3.7-5.6
		c-3.4,0-3.9,3-3.9,5.4v9.1c-0.5,0-0.9-0.1-1.3-0.1c-0.5,0-0.9,0.1-1.3,0.1v-9.8c0-3.2-1.1-4.7-3.6-4.7c-3.5,0-4,2.3-4,4.7v9.8
		c-0.5,0-0.9-0.1-1.3-0.1c-0.5,0-0.9,0.1-1.3,0.1L303.7,32.6L303.7,32.6z"/>
	<path class="st2" d="M343.2,45.8c0,1.3-0.1,2,1.9,1.5v0.7c-0.2,0.1-0.6,0.3-1,0.3c-1.7,0.3-3.2,0-3.5-2l-0.3,0.3
		c-1.4,1.4-3,2.1-5,2.1c-2.4,0-4.5-1.6-4.5-4.1c0-3.8,3.1-4.3,6.2-4.8c2.6-0.4,3.6-0.6,3.6-2.2c0-2.5-1.4-3.9-3.9-3.9
		c-2.5,0-3.8,1.6-4,2.3h-0.4v-1.9c1.6-1.1,3.4-1.8,5.4-1.8c3.5,0,5.4,1.8,5.4,5.6L343.2,45.8L343.2,45.8z M340.5,40.3l-1.2,0.2
		c-2.3,0.4-5.7,0.8-5.7,3.8c0,2.1,1.2,3.2,3.3,3.2c0.9,0,2.1-0.6,2.7-1.3c0.2-0.2,0.9-0.8,0.9-1C340.5,45.2,340.5,40.3,340.5,40.3z"
		/>
	<path class="st2" d="M348.7,32.6c0.4,0,0.9,0.1,1.3,0.1c0.4,0,0.8-0.1,1.3-0.1v3.1c1.2-2.1,3-3.3,5.4-3.3c3.9,0,5.4,2.1,5.4,6.5
		v9.7c-0.5,0-0.9-0.1-1.3-0.1c-0.5,0-0.9,0.1-1.3,0.1v-8.9c0-3.1-0.6-5.6-3.7-5.6c-3.5,0-4.4,2.6-4.4,6.7v7.8
		c-0.5,0-0.9-0.1-1.3-0.1c-0.5,0-0.9,0.1-1.3,0.1V32.6z"/>
	<path class="st2" d="M369.5,28.5c-0.9,0-1.7-0.8-1.7-1.7c0-0.9,0.8-1.7,1.7-1.7c0.9,0,1.7,0.8,1.7,1.7
		C371.2,27.8,370.4,28.5,369.5,28.5 M370.8,48.6c-0.5,0-0.9-0.1-1.3-0.1c-0.5,0-0.9,0.1-1.3,0.1V32.6c0.4,0,0.9,0.1,1.3,0.1
		c0.4,0,0.8-0.1,1.3-0.1V48.6z"/>
	<path class="st2" d="M388,45.8c0,1.3-0.1,2,1.9,1.5v0.7c-0.2,0.1-0.6,0.3-1,0.3c-1.7,0.3-3.2,0-3.5-2l-0.3,0.3
		c-1.4,1.4-3,2.1-5,2.1c-2.4,0-4.5-1.6-4.5-4.1c0-3.8,3.1-4.3,6.2-4.8c2.6-0.4,3.6-0.6,3.6-2.2c0-2.5-1.4-3.9-3.9-3.9
		c-2.4,0-3.8,1.6-4,2.3h-0.4v-1.9c1.6-1.1,3.4-1.8,5.4-1.8c3.5,0,5.4,1.8,5.4,5.6L388,45.8L388,45.8z M385.3,40.3l-1.2,0.2
		c-2.3,0.4-5.7,0.8-5.7,3.8c0,2.1,1.2,3.2,3.3,3.2c0.9,0,2.1-0.6,2.7-1.3c0.2-0.2,0.9-0.8,0.9-1V40.3z"/>
</g>
</svg>
