<?xml version="1.0" encoding="utf-8"?>
<!-- Generator: Adobe Illustrator 25.4.1, SVG Export Plug-In . SVG Version: 6.00 Build 0)  -->
<svg version="1.1" xmlns="http://www.w3.org/2000/svg" xmlns:xlink="http://www.w3.org/1999/xlink" x="0px" y="0px"
	 viewBox="0 0 290.8 80" style="enable-background:new 0 0 290.8 80;" xml:space="preserve">
<style type="text/css">
	.st0{fill:#0C0C11;}
	.st1{fill:#E31423;}
</style>
<g id="Layer_1">
	<path class="st0" d="M-382.1-885.5c-0.7-0.1-1.8,0-2.5,0c0.5-0.4,1.2-0.7,1.6-0.5c0.1,0,0.1,0,0.2,0.1
		C-382.6-885.8-382.3-885.6-382.1-885.5z"/>
	<g id="text835">
	</g>
</g>
<g id="Layer_2">
	<g>
		<polygon class="st1" points="25.1,14.9 50.5,40.4 25.1,65.6 39.7,80 80.5,40 39.8,0 		"/>
		<polygon class="st1" points="15.5,40 27.5,27.9 20.1,19.9 0,40.4 20.1,60.2 27.5,52.4 		"/>
		<polygon class="st1" points="136.5,19.9 126.5,19.9 126.5,59.6 130.9,59.6 136.5,59.6 155.3,59.6 155.3,50.7 136.5,50.7 		"/>
		<polygon class="st1" points="98.4,19.9 92.5,19.9 92.5,59.6 102.5,59.6 102.5,44.5 120.3,44.5 120.3,35.6 102.5,35.6 102.5,28.8 
			122.8,28.8 122.8,19.9 102.5,19.9 		"/>
		<polygon class="st1" points="196.9,19.9 191,19.9 191,59.6 196.9,59.6 201,59.6 221.3,59.6 221.3,50.7 201,50.7 201,44.5 
			218.7,44.5 218.7,35.6 201,35.6 201,28.8 221.3,28.8 221.3,19.9 201,19.9 		"/>
		<polygon class="st1" points="290.8,19.9 279.5,19.9 269.5,19.9 258.4,19.9 258.4,28.8 269.5,28.8 269.5,59.6 279.5,59.6 
			279.5,28.8 290.8,28.8 		"/>
		<polygon class="st1" points="168.2,34.5 159.6,20.4 148.7,20.4 163.3,44.1 163.3,59.6 173.3,59.6 173.3,44.1 187.7,20.4 177,20.4 
					"/>
		<path class="st1" d="M242.4,34.7c-4.5-1-5.7-2.4-6.4-3.8c-0.7-1.3-0.2-2.6,4.9-2.6s9,3.9,9,3.9l5-7.3c-4.1-3.8-10.2-5.6-15.1-5.6
			c-4.9,0-13.7,2.4-13.7,12.5c0,10.2,11.8,11.8,15.2,12.7c3.5,0.9,5,1.5,5,3.8s-2.5,2.4-6.1,2.4c-3.6,0-9.4-4.5-9.4-4.5l-6,6.7
			c4.6,4.9,13.2,7.2,17.2,7.2c4,0,14.3-3.1,14.3-12.5S246.8,35.7,242.4,34.7z"/>
	</g>
</g>
</svg>
