<?xml version="1.0" encoding="utf-8"?>
<!-- Generator: Adobe Illustrator 25.4.1, SVG Export Plug-In . SVG Version: 6.00 Build 0)  -->
<svg version="1.1" id="Layer_1" xmlns="http://www.w3.org/2000/svg" xmlns:xlink="http://www.w3.org/1999/xlink" x="0px" y="0px"
	 viewBox="0 0 79.3 80" style="enable-background:new 0 0 79.3 80;" xml:space="preserve">
<style type="text/css">
	.st0{fill:#F1C931;}
</style>
<g>
	<path class="st0" d="M53.29,4.25C58.52,5.73,63.63,7.2,68.84,8h3.75c2.27,0,3.75-0.8,5.91-1.48h0.8c0,0.8,0,0.8-0.8,1.48
		c-2.95,2.27-5.91,3.75-8.86,4.43c-0.8,0-2.27,0.8-2.95,0.8c-3.75,1.48-8.18,1.48-11.8,1.48c-7.38-0.8-14.08-2.95-21.46-2.95
		c-6.7-0.8-13.28,2.27-17.03,7.38c-0.8,2.95-2.27,5.91-2.27,8.86c0,2.95,4.43,3.75,5.91,5.91l2.27,4.43
		c0.8,2.95,2.27,5.91,4.43,8.86c1.48,1.48,2.95,3.75,5.23,4.43c2.95,2.27,5.23,4.43,6.7,7.38c1.48,2.95,2.95,5.23,3.75,8.18
		c0.8,1.48,1.48,2.95,1.48,5.23v0.8c0.8,1.48,0.8,2.95,1.48,3.75v0.8c0,0.8,0.8,2.27,0,2.27c-1.48-1.48-2.27-2.95-2.95-4.43
		c-0.8-2.95-2.95-5.91-5.23-8.86c-1.48-1.48-2.95-3.75-4.43-5.23C26.86,54.79,18,50.37,11.3,44.46c0,0,0-0.8-0.8-1.48
		c-0.8-1.48-1.48-2.27-2.27-3.75c-1.48-2.95-3.75-5.91-5.23-9.65c0-1.48-0.8-2.95-0.8-4.43v-0.8c0-1.48-3.75-2.27-1.48-5.23
		c1.48-1.48,5.91-2.95,7.38-5.91v-1.48c0,0,0-0.8-0.8-0.8s-2.95,1.48-2.95-0.8V7.87c0.8-1.48,0.8-2.95,0.8-4.43
		c0-0.8,0.8-0.8,1.48-0.8c0.68,0,2.27-0.8,2.95-0.8c2.27,0,5.23,0,6.7,1.48c0.8,1.48,0,2.95,0,4.43s-1.48,2.27-0.8,2.95h1.48
		c2.95-2.27,5.91-5.23,8.86-8.18c2.27-2.27,5.91-2.95,8.86-2.27C41.37,0.5,46.59,2.77,53.29,4.25L53.29,4.25z"/>
	<path class="st0" d="M36.26,16.05c0.8,1.48,0,2.27-0.8,3.75c-3.75,5.23-5.23,11.8-7.38,17.83h-0.8c-0.8,0-0.8-0.8-0.8-1.48
		c0-6.7,2.27-12.6,5.23-18.51c0.8-0.8,1.48-2.27,2.95-1.48C35.46,15.37,35.46,16.05,36.26,16.05L36.26,16.05z M46.59,17.53
		c0.8,2.27-0.8,3.75-1.48,5.91c-3.75,7.38-8.18,14.76-10.33,22.94c0,0,0,0.8-0.8,0.8h-0.8c-0.8-2.95,0-6.7,0.8-9.65
		c2.27-6.7,4.43-13.28,8.18-19.98c0.8,0,0.8-0.8,0.8-0.8C44.32,16.85,45.8,16.85,46.59,17.53L46.59,17.53z M56.92,18.32
		c0.8,0.8,0.8,2.27,0,2.95C52.49,30.93,45.8,39.1,42.84,49.43l-2.27,6.7c0,0.8-0.8,0.8-0.8,0c-0.8-0.8,0-2.27,0-2.95
		c0.8-8.18,2.95-16.23,6.7-22.94c1.48-3.75,3.75-6.7,5.23-10.33c0.8-0.8,1.48-2.27,2.95-2.27C55.45,17.53,56.24,17.53,56.92,18.32
		L56.92,18.32z M68.84,19.01c0.8,1.48,0,2.27,0,3.75c-2.95,7.38-8.18,14.08-11.8,21.46c-3.75,5.91-5.91,12.6-8.18,18.51
		c-0.8,2.27-1.48,3.75-2.27,5.91h-0.8c-0.8-0.8-0.8-1.48-0.8-2.27c0.8-8.18,3.75-14.76,6.7-22.26c3.75-8.18,8.18-15.55,11.8-23.73
		c0.8-0.8,1.48-2.27,2.95-2.95C67.25,17.53,68.04,17.53,68.84,19.01L68.84,19.01z"/>
</g>
</svg>
