<?xml version="1.0" encoding="utf-8"?>
<!-- Generator: Adobe Illustrator 25.4.1, SVG Export Plug-In . SVG Version: 6.00 Build 0)  -->
<svg version="1.1" id="Layer_1" xmlns="http://www.w3.org/2000/svg" xmlns:xlink="http://www.w3.org/1999/xlink" x="0px" y="0px"
	 viewBox="0 0 681.18 80" style="enable-background:new 0 0 681.18 80;" xml:space="preserve">
<style type="text/css">
	.st0{fill:#203C84;}
	.st1{fill:#F1C931;}
</style>
<g>
	<path class="st0" d="M146.5,79.07L125.72,51.7h-8.18v27.37H93.14V7.2h36.33c26.69,0,43.72,7.38,43.72,22.26
		c0,10.33-9.65,16.23-22.94,19.98l23.73,29.63H146.5L146.5,79.07z M128,19.8h-11.12v19.98h11.8c12.6,0,19.3-3.75,19.3-9.65
		C148.78,22.76,142.88,19.8,128,19.8z M233.94,51.59v27.48h-24.41V52.38L173.99,7.2h26.69l10.33,14.76
		c4.43,5.91,8.86,13.28,10.33,17.03c1.48-3.75,5.91-11.12,10.33-17.03L242.01,7.2h26.69L233.94,51.59L233.94,51.59z M326.47,79.07
		l-6.7-14.76h-30.31l-6.7,14.76h-25.1L292.53,7.2h23.73l34.86,71.87C351.12,79.07,326.47,79.07,326.47,79.07z M310.92,43.54
		c-2.27-5.23-5.23-14.08-6.7-17.83c-0.8,3.75-3.75,11.12-5.91,17.03l-3.75,8.86h19.98L310.92,43.54z M418.32,79.07l-25.21-31.79
		c-3.75-4.43-8.18-10.33-10.33-14.76c0,4.43,0.8,11.8,0.8,16.23v30.31h-22.26V7.2h24.41l23.73,31.79
		c2.95,4.43,8.18,11.12,11.12,14.76c0-4.43-0.8-12.6-0.8-17.03V7.09h22.26v71.98L418.32,79.07L418.32,79.07z M520.51,79.07
		l-6.7-14.76H483.5l-6.7,14.76H451.6L486.46,7.2h24.41l34.86,71.87L520.51,79.07L520.51,79.07z M504.96,43.54
		c-2.27-5.23-5.23-14.08-6.7-17.83c-0.8,3.75-3.75,11.12-5.91,17.03l-3.75,8.86h19.98L504.96,43.54L504.96,43.54z M555.37,79.07V7.2
		h24.41v71.87L555.37,79.07L555.37,79.07z M654.49,79.07l-21.46-27.36h-8.18v27.37h-24.41V7.2h36.33c26.69,0,43.72,7.38,43.72,22.26
		c0,10.33-9.65,16.23-22.94,19.98l23.62,29.63H654.49z M635.99,19.8h-11.12v19.98h11.8c12.6,0,19.3-3.75,19.3-9.65
		C656.77,22.76,650.86,19.8,635.99,19.8z"/>
	<g>
		<path class="st1" d="M53.29,4.25C58.52,5.73,63.63,7.2,68.84,8h3.75c2.27,0,3.75-0.8,5.91-1.48h0.8c0,0.8,0,0.8-0.8,1.48
			c-2.95,2.27-5.91,3.75-8.86,4.43c-0.8,0-2.27,0.8-2.95,0.8c-3.75,1.48-8.18,1.48-11.8,1.48c-7.38-0.8-14.08-2.95-21.46-2.95
			c-6.7-0.8-13.28,2.27-17.03,7.38c-0.8,2.95-2.27,5.91-2.27,8.86s4.43,3.75,5.91,5.91l2.27,4.43c0.8,2.95,2.27,5.91,4.43,8.86
			c1.48,1.48,2.95,3.75,5.23,4.43c2.95,2.27,5.23,4.43,6.7,7.38c1.48,2.95,2.95,5.23,3.75,8.18c0.8,1.48,1.48,2.95,1.48,5.23v0.8
			c0.8,1.48,0.8,2.95,1.48,3.75v0.8c0,0.8,0.8,2.27,0,2.27c-1.48-1.48-2.27-2.95-2.95-4.43c-0.8-2.95-2.95-5.91-5.23-8.86
			c-1.48-1.48-2.95-3.75-4.43-5.23C26.86,54.79,18,50.37,11.3,44.46c0,0,0-0.8-0.8-1.48c-0.8-1.48-1.48-2.27-2.27-3.75
			c-1.48-2.95-3.75-5.91-5.23-9.65c0-1.48-0.8-2.95-0.8-4.43v-0.8c0-1.48-3.75-2.27-1.48-5.23c1.48-1.48,5.91-2.95,7.38-5.91v-1.48
			c0,0,0-0.8-0.8-0.8s-2.95,1.48-2.95-0.8V7.87c0.8-1.48,0.8-2.95,0.8-4.43c0-0.8,0.8-0.8,1.48-0.8c0.68,0,2.27-0.8,2.95-0.8
			c2.27,0,5.23,0,6.7,1.48c0.8,1.48,0,2.95,0,4.43s-1.48,2.27-0.8,2.95h1.48c2.95-2.27,5.91-5.23,8.86-8.18
			c2.27-2.27,5.91-2.95,8.86-2.27C41.37,0.5,46.59,2.77,53.29,4.25L53.29,4.25z"/>
		<path class="st1" d="M36.26,16.05c0.8,1.48,0,2.27-0.8,3.75c-3.75,5.23-5.23,11.8-7.38,17.83h-0.8c-0.8,0-0.8-0.8-0.8-1.48
			c0-6.7,2.27-12.6,5.23-18.51c0.8-0.8,1.48-2.27,2.95-1.48C35.46,15.37,35.46,16.05,36.26,16.05L36.26,16.05z M46.59,17.53
			c0.8,2.27-0.8,3.75-1.48,5.91c-3.75,7.38-8.18,14.76-10.33,22.94c0,0,0,0.8-0.8,0.8h-0.8c-0.8-2.95,0-6.7,0.8-9.65
			c2.27-6.7,4.43-13.28,8.18-19.98c0.8,0,0.8-0.8,0.8-0.8C44.32,16.85,45.8,16.85,46.59,17.53L46.59,17.53z M56.92,18.33
			c0.8,0.8,0.8,2.27,0,2.95c-4.43,9.65-11.12,17.83-14.08,28.16l-2.27,6.7c0,0.8-0.8,0.8-0.8,0c-0.8-0.8,0-2.27,0-2.95
			c0.8-8.18,2.95-16.23,6.7-22.94c1.48-3.75,3.75-6.7,5.23-10.33c0.8-0.8,1.48-2.27,2.95-2.27C55.45,17.53,56.24,17.53,56.92,18.33
			L56.92,18.33z M68.84,19.01c0.8,1.48,0,2.27,0,3.75c-2.95,7.38-8.18,14.08-11.8,21.46c-3.75,5.91-5.91,12.6-8.18,18.51
			c-0.8,2.27-1.48,3.75-2.27,5.91h-0.8c-0.8-0.8-0.8-1.48-0.8-2.27c0.8-8.18,3.75-14.76,6.7-22.26c3.75-8.18,8.18-15.55,11.8-23.73
			c0.8-0.8,1.48-2.27,2.95-2.95C67.25,17.53,68.04,17.53,68.84,19.01L68.84,19.01z"/>
	</g>
</g>
</svg>
