<?xml version="1.0" encoding="utf-8"?>
<!-- Generator: Adobe Illustrator 27.0.0, SVG Export Plug-In . SVG Version: 6.00 Build 0)  -->
<svg version="1.1" id="Layer_1" xmlns="http://www.w3.org/2000/svg" xmlns:xlink="http://www.w3.org/1999/xlink" x="0px" y="0px"
	 viewBox="0 0 57.6 80" style="enable-background:new 0 0 57.6 80;" xml:space="preserve">
<style type="text/css">
	.st0{fill:#033B4E;}
</style>
<g>
	<path class="st0" d="M47,16.7c2.7,0,5.4,0.3,8,1l2.6-16.5C54.1,0.4,50.6,0,47,0C33.9,0,21.9,5.2,13.1,14.6C4.7,23.7,0,35.9,0,49
		h10.7C3.8,57.5,0,68.4,0,80h16.7c0-8.5,2.9-16.3,8.2-22c5.3-5.7,12.5-8.8,20.5-8.8c1.5,0,3.1,0.1,4.6,0.3l2.6-16.5
		c-2.4-0.4-4.8-0.5-7.2-0.5c-10.5,0-20.3,3.5-28.1,9.8c1.1-6.3,3.9-12,8.1-16.5C30.9,19.9,38.6,16.7,47,16.7z"/>
</g>
</svg>
