<?xml version="1.0" encoding="utf-8"?>
<!-- Generator: Adobe Illustrator 27.0.0, SVG Export Plug-In . SVG Version: 6.00 Build 0)  -->
<svg version="1.1" id="Layer_1" xmlns="http://www.w3.org/2000/svg" xmlns:xlink="http://www.w3.org/1999/xlink" x="0px" y="0px"
	 viewBox="0 0 158.8 80" style="enable-background:new 0 0 158.8 80;" xml:space="preserve">
<style type="text/css">
	.st0{fill:#033B4E;}
</style>
<g>
	<path class="st0" d="M116.6,17.2l-22.8,45c-3.4,6.7-6.9,11.4-10.6,13.9c-3.6,2.6-8.6,3.9-14.8,3.9c-2,0-4.1-0.2-6.2-0.6
		c-2.1-0.4-4-0.9-5.7-1.5l3.2-11.3c1.4,0.5,2.7,0.9,4,1.2c1.3,0.2,2.7,0.4,4.1,0.4c1.9,0,3.5-0.2,4.8-0.6c1.3-0.4,2.4-1,3.3-1.9
		c0.2-0.2,0.4-0.5,0.7-0.7c0.2-0.3,0.6-0.7,0.9-1.2L68,17.2h13.8l5.4,32.2l15.3-32.2H116.6z"/>
	<path class="st0" d="M158.4,32.8c0.2-1.5,0.3-3,0.3-4.5c0-3.7-1-6.7-3.1-8.9c-2.1-2.2-4.7-3.2-8-3.2c-9.4,0-12.9,5.7-12.9,5.7h-0.2
		l0.8-4.7h-13.4l-7.4,46.7H128l4-24.9c0.7-4.6,1.8-8,3.3-10.3c1.5-2.2,3.4-3.4,5.7-3.4c1.7,0,2.9,0.5,3.8,1.5c0.8,1,1.3,2.5,1.3,4.5
		c0,1.2-0.1,2.4-0.4,3.7c-0.1,0.3-0.1,0.6-0.2,0.8h12.3C158.1,34.8,158.3,33.8,158.4,32.8z"/>
	<path class="st0" d="M37.6,13.3c2.2,0,4.3,0.3,6.4,0.8L46,0.9C43.3,0.3,40.4,0,37.6,0C27.1,0,17.5,4.1,10.5,11.6
		C3.7,18.9,0,28.7,0,39.2h8.5C3,46,0,54.7,0,63.9h13.3c0-6.8,2.3-13,6.6-17.5c4.2-4.5,10-7,16.4-7c1.2,0,2.5,0.1,3.7,0.3L42,26.5
		c-1.9-0.3-3.8-0.4-5.8-0.4c-8.4,0-16.2,2.8-22.5,7.8c0.9-5,3.1-9.6,6.5-13.2C24.7,15.9,30.8,13.3,37.6,13.3z"/>
	<path class="st0" d="M51.9,1l-10,62.9h13.5L65.3,1H51.9z"/>
</g>
</svg>
