<?xml version="1.0" encoding="utf-8"?>
<!-- Generator: Adobe Illustrator 25.4.1, SVG Export Plug-In . SVG Version: 6.00 Build 0)  -->
<svg version="1.1" xmlns="http://www.w3.org/2000/svg" xmlns:xlink="http://www.w3.org/1999/xlink" x="0px" y="0px"
	 viewBox="0 0 533.52 80" style="enable-background:new 0 0 533.52 80;" xml:space="preserve">
<style type="text/css">
	.st0{fill:#DD052B;}
</style>
<g id="Layer_2">
</g>
<g id="Layer_1">
	<g>
		<g>
			<path class="st0" d="M65.72,42.97c19.21-0.68,30.87-8.82,30.87-18.4c0-10.21-12.71-18.49-34.36-18.49h-3.11L65.5,0l-9.47,0.04
				L40.41,6.08H15.54C6.8,6.08,1.94,8.22,0,12.4h51.13c14.1,0,23.57,2.14,23.57,11.86c0,10.48-11.39,12.52-23.57,12.52H28.16
				l20.36,21.86C65.76,76.78,81.91,80,101.97,80L65.72,42.97z"/>
			<path class="st0" d="M230.82,60.72c-9.39,0-15.9-6.88-15.9-17.77c0-10.83,6.51-17.92,15.9-17.92c9.47,0,15.91,7.1,15.91,17.92
				C246.73,53.77,240.29,60.72,230.82,60.72 M230.82,20.49c-17.53,0-29.14,9.14-29.14,22.46c0,13.31,11.61,22.31,29.14,22.31
				c17.53,0,29.15-8.99,29.15-22.31C259.97,29.63,248.36,20.49,230.82,20.49"/>
			<path class="st0" d="M151.3,25.98c2.96-0.38,6.84-0.73,11.02-0.73c7.69,0,12.35,3.07,12.35,9.51c0,6.58-4.66,10.24-12.35,10.24
				H151.3V25.98z M187.92,34.83c0-10.54-9.91-14.12-24.26-14.12c-7.47,0-14.2,0.86-24.19,1.15v0.09v27.43v14.78h11.84V49.38h12.35
				c0.08,0,0.16,0,0.24,0l4.13,4.99c6.95,8.34,12.28,10.61,23.08,10.61h1.48l-15.76-17.09C183.89,45.89,187.92,41.78,187.92,34.83"
				/>
		</g>
		<rect x="398.15" y="21.59" class="st0" width="11.84" height="42.57"/>
		<polygon class="st0" points="470.28,21.58 454.02,43.91 437.95,21.58 424.04,21.58 444.76,49.53 444.76,64.16 456.59,64.16 
			456.59,49.53 477.08,21.58 		"/>
		<path class="st0" d="M491.06,47.85l10.56-20.6l10.45,20.6H491.06z M520.36,64.16h13.17l-21.89-42.57h-7.1h-5.77h-0.74
			l-21.82,42.57h6.51l5.81-11.34h26.09L520.36,64.16z"/>
		<path class="st0" d="M343.85,31.39c0-3.36,4-6.51,12.06-6.51c13.47,0,20.42,5.19,20.42,5.19l2.52-6.44c0,0-9.92-3.15-22.34-3.15
			c-15.09,0-23.38,4.68-23.38,13.61c0,19.53,37.36,10.17,37.36,20.63c0,3.51-4.37,5.67-13.61,5.67c-12.8,0-22.42-5.12-22.42-5.12
			v6.84c0,0,9.76,3.22,23.23,3.22c14.95,0,23.45-3.51,23.45-13.53C381.14,32.48,343.85,40.82,343.85,31.39"/>
		<path class="st0" d="M284.23,31.39c0-3.36,3.99-6.51,12.06-6.51c13.46,0,20.41,5.19,20.41,5.19l2.51-6.44
			c0,0-9.91-3.15-22.34-3.15c-15.09,0-23.38,4.68-23.38,13.61c0,19.53,37.36,10.17,37.36,20.63c0,3.51-4.36,5.67-13.61,5.67
			c-12.8,0-22.42-5.12-22.42-5.12v6.84c0,0,9.76,3.22,23.23,3.22c14.94,0,23.45-3.51,23.45-13.53
			C321.52,32.48,284.23,40.82,284.23,31.39"/>
	</g>
</g>
</svg>
