<?xml version="1.0" encoding="utf-8"?>
<!-- Generator: Adobe Illustrator 25.4.1, SVG Export Plug-In . SVG Version: 6.00 Build 0)  -->
<svg version="1.1" xmlns="http://www.w3.org/2000/svg" xmlns:xlink="http://www.w3.org/1999/xlink" x="0px" y="0px"
	 viewBox="0 0 251.9 80" style="enable-background:new 0 0 251.9 80;" xml:space="preserve">
<style type="text/css">
	.st0{fill:#002E73;}
	.st1{fill:#FFFFFF;}
	.st2{fill:#E4007F;}
</style>
<g id="Layer_2">
</g>
<g id="Layer_1">
	<g>
		<path class="st0" d="M37.5,5.1v4.7l-6.6,0.5l-1.5,0.5c-0.2,0.3-0.5,0.5-0.5,0.8c-0.4,1.1-0.6,2.3-0.5,3.6
			c-0.2,1.7-0.2,3.5-0.2,5.2c-0.2,8.8-0.2,13.5-0.2,14.2v21.5l0.3,9.8c-0.1,2.4,0.1,4.9,0.5,7.3c0.1,0.4,0.4,0.9,0.7,1.2
			c0.5,0.3,1,0.5,1.5,0.5l6.4,0.5V80l-18.8-0.3L3.4,80v-4.6l6.6-0.5l1.5-0.5c0.3-0.3,0.5-0.5,0.5-0.8c0.3-1.7,0.5-3.4,0.5-5.1
			c0.2-4.2,0.3-8.3,0.3-11.8V34.2c0-7.1-0.2-11.7-0.3-13.7c0-2.8-0.2-5.7-0.7-8.5c0.1-0.4-0.1-0.8-0.5-1c-0.2-0.3-0.7-0.5-1.2-0.7
			L3.4,9.8V5.1C7.9,5.4,13,5.6,18.9,5.6S31.6,5.4,37.5,5.1z"/>
		<path class="st0" d="M120.5,80v-2.9c1.8-0.8,3.6-1.8,5.2-3c0.2-1.5,0.3-3.9,0.5-7.3c0.3-6.1,0.5-10.7,0.5-13.4V29.2
			c0-0.8-0.2-4.4-0.3-10.3c0-2.5-0.2-5-0.7-7.4l-0.8-0.8c-2.5-0.6-5-0.9-7.6-1V5.6h54.4l1.7,0.3l0.5,0.7l-1,7.8c0,0.5-0.2,3-0.5,7.6
			h-4.2c0.1-2.6,0-5.2-0.5-7.8c0-0.4-0.2-0.8-0.5-1c-1.4-0.5-2.9-0.8-4.4-0.8l-10.3-0.5c-3.3-0.1-6.5,0.1-9.8,0.3
			c-0.5,5.1-0.8,10.2-0.7,15.4v10.8c2.5,0.3,5.1,0.5,7.6,0.5h8.8c2-0.2,3.2-0.2,3.6-0.5c0.4-0.2,0.6-0.6,0.7-1
			c0.6-2.3,0.9-4.6,0.8-6.9h4.2l-0.3,11.8l0.3,11.7h-4.2c0.2-2.6-0.1-5.1-0.8-7.6c-0.6-0.8-1.4-1.3-2.4-1.4
			c-3.2-0.4-6.4-0.5-9.6-0.5l-8.6,0.3v22c0,2.5,0.2,4.6,0.3,6.4c3.4,0.3,6.8,0.4,10.1,0.3c3.5,0.1,7,0,10.5-0.3
			c2.1,0.1,4.1-0.3,6.1-1l0.7-1c0.8-3.2,1.5-6.4,1.9-9.6h4.6c-0.7,5.8-1.1,11.6-1.2,17.4l-0.7,0.7c-3.3,0.3-6.5,0.4-9.8,0.3h-26
			L120.5,80z"/>
		<path class="st0" d="M182.9,80v-4.4l4.9-0.5l1-0.3c0.9-0.8,1.7-1.7,2.4-2.7c2.7-3.1,5.2-6.4,7.6-9.8l5.4-7.1l7.3-9.8l-4.1-7.1
			L200.3,26c-2-3.6-4.4-6.9-6.9-10.1c-1-1.3-2.2-2.5-3.6-3.4c-0.6-0.3-1.3-0.5-2-0.5l-3.9,0.3l-0.5-4.2l13.9-2.9l6.1-1.4
			c1,0.6,1.9,1.3,2.7,2.2l2.5,3c1,1.5,2.4,3.7,4.2,7.1c1,1.6,1.9,3.2,2.7,4.9l6.1,11.2l6.9-10.1l8.8-12.7V5.1l7.1,0.5l7.4-0.5v4.7
			c-1.8,0-3.5,0.3-5.2,0.7c-0.9,0.8-1.8,1.6-2.5,2.5c-2.4,2.5-6.3,7.6-11.7,14.9l-6.3,8.1l-1.4,2l4.4,7.9l3.2,5.7l6.9,11.7l2.7,4.6
			c1.1,1.9,2.4,3.8,3.7,5.6c0.3,0.5,0.7,0.9,1.2,1.2c0.3,0.3,0.7,0.5,1.2,0.5l2.4,0.3h1.4V80h-21c-1.9-2.7-3.7-5.5-5.2-8.5l-11-20.5
			l-6.3,9l-4.6,6.6l-5.7,9.1V80C198.1,80,182.9,80,182.9,80z"/>
		<path class="st1" d="M34.2,1.4v4.6l-6.6,0.5L26,6.9c-0.2,0.3-0.5,0.5-0.5,0.8c-0.4,1.1-0.6,2.3-0.5,3.6c-0.2,1.7-0.2,3.5-0.2,5.2
			c-0.2,8.8-0.2,13.5-0.2,14.2v21.6l0.3,9.8c-0.1,2.4,0.1,4.8,0.5,7.1c0.1,0.4,0.4,0.9,0.7,1.2l1.5,0.7l6.4,0.3v4.6l-18.8-0.3
			L0,76.1v-4.6L6.6,71c0.6,0,1.1-0.2,1.5-0.5c0.3-0.3,0.5-0.5,0.5-0.8c0.3-1.7,0.5-3.4,0.5-5.1c0.2-4.2,0.3-8.3,0.3-11.8V30.3
			c0-7.1-0.2-11.7-0.3-13.7c0-2.8-0.2-5.7-0.7-8.5c0.1-0.4-0.1-0.8-0.5-1C7.8,6.8,7.3,6.6,6.8,6.4L0,5.9V1.4l15.6,0.3L34.2,1.4z"/>
		<path class="st1" d="M117.3,76.1v-2.9c1.8-0.9,3.5-1.9,5.1-3c0.2-1.5,0.3-3.9,0.5-7.3c0.3-6.1,0.5-10.7,0.5-13.4V25.4
			c0-0.8-0.2-4.4-0.3-10.3c0-2.5-0.2-5-0.7-7.4l-0.8-0.8c-2.5-0.6-5-0.8-7.6-0.8V1.7h54.4l1.7,0.3l0.5,0.7l-1,7.4
			c0,0.5-0.2,3-0.5,7.6h-4.2c0.1-2.5,0-5.1-0.5-7.6c0-0.4-0.2-0.9-0.5-1.2c-1.4-0.5-2.9-0.8-4.4-0.8l-10.3-0.5l-9.8,0.3
			c-0.5,5.1-0.8,10.2-0.7,15.4v10.8c2.5,0.3,5.1,0.5,7.6,0.5h8.8c1.2,0.2,2.4,0,3.6-0.5c0.4-0.2,0.6-0.6,0.7-1
			c0.6-2.3,0.9-4.6,0.8-6.9h4.2L164,38l0.3,11.8h-4.2c0.2-2.6-0.1-5.3-0.8-7.8c-0.6-0.7-1.4-1.1-2.4-1.2c-3.2-0.5-6.4-0.8-9.6-0.7
			c-2.9-0.1-5.8,0-8.6,0.3v22.3c0,2.5,0.2,4.6,0.3,6.4c3.4,0.3,6.8,0.4,10.1,0.3c3.5,0.1,7,0,10.5-0.3c2.1,0.1,4.1-0.3,6.1-1l0.7-1
			c0.5-1.7,1.1-4.9,2-9.6h4.4c-0.7,5.8-1.1,11.6-1.2,17.4l-0.7,0.7c-3.3,0.3-6.5,0.4-9.8,0.3h-26L117.3,76.1z"/>
		<path class="st1" d="M179.5,76.1v-4.4l4.9-0.5l1-0.3c0.9-0.8,1.7-1.6,2.4-2.5c1.7-2,4.2-5.2,7.6-10l5.4-7.1l7.3-9.8l-4.1-7.1
			L197,22.1c-2-3.6-4.4-6.9-6.9-10.1c-1-1.3-2.2-2.5-3.6-3.4c-0.6-0.3-1.3-0.4-2-0.3h-3.9l-0.5-4.2l13.9-2.7L200,0
			c1,0.6,1.9,1.3,2.7,2.2c0.9,1,1.8,2.1,2.5,3.2c1,1.4,2.4,3.7,4.2,6.9c1,1.6,1.9,3.2,2.7,4.9l6.1,11.2l6.9-10.1L234,5.6V1.4
			l7.1,0.3l7.4-0.3v4.6c-1.8,0-3.5,0.3-5.2,0.7c-0.9,0.8-1.8,1.6-2.5,2.5c-2.4,2.7-6.3,7.6-11.7,14.9l-6.3,8.1l-1.4,2l4.4,7.9
			c1.9,3.2,2.9,5.2,3.2,5.9l6.9,11.7l2.7,4.4c1.7,2.9,3,4.7,3.7,5.7l1.2,1c0.3,0.3,0.7,0.5,1.2,0.5c0.8,0.2,1.6,0.4,2.4,0.3h1.4v4.4
			h-21c-1.9-2.7-3.7-5.5-5.2-8.5l-11-20.5l-6.3,9l-4.6,6.8c-1.5,2.4-3.6,5.4-5.7,9.1v4.1C194.8,76.1,179.5,76.1,179.5,76.1z"/>
		<path class="st0" d="M50.6,80v-3c1.6-0.7,3.2-1.6,4.6-2.7c0.2-1.7,0.3-3.9,0.5-6.4c0.2-2.5,0.2-14.5,0.2-28.2
			c0-3.7,0-9.3-0.2-17.1c0.2-3.4,0-6.9-0.5-10.3c-0.1-0.4-0.4-0.8-0.8-1c-0.7-0.5-3.4-0.8-7.9-1.2V5.9h26.9l10-0.5
			c4.5-0.2,9,0.5,13.4,1.9c2.8,0.9,5.3,2.8,6.9,5.2c1.5,2.3,2.3,5,2.2,7.8c0,3-0.9,6-2.5,8.5c-1.6,2.6-3.8,4.8-6.4,6.3
			c-3.3,1.5-6.8,2.7-10.3,3.6c4.6,0.4,9.1,1.4,13.4,3c2.6,1.3,4.7,3.4,6.1,5.9c1.5,2.8,2.3,5.9,2.2,9.1c0,3.3-0.8,6.6-2.4,9.5
			c-1.5,2.8-3.5,5.2-5.9,7.3c-2.5,2.1-5.4,3.7-8.5,4.9c-3.8,1.3-7.8,1.8-11.8,1.7l-17.8-0.3L50.6,80z M71.5,36.5h3
			c2.2,0,4.4-0.2,6.6-0.5c1.7-0.4,3.4-1.1,4.9-2c1.4-1.2,2.5-2.7,3.2-4.4c0.8-2.2,1.2-4.5,1.2-6.8c0-2.3-0.4-4.5-1.4-6.6
			c-0.9-1.6-2.2-2.9-3.9-3.7c-2.2-1-4.7-1.4-7.1-1.2l-6.3,0.3c-0.2,2.7-0.3,5.6-0.3,9C71.5,20.6,71.5,36.5,71.5,36.5z M71.9,74.4
			l6.4,0.3c4,0.1,7.8-1.5,10.5-4.4c2.5-2.9,3.9-7.1,3.9-12.5c0.1-3.2-0.6-6.4-2-9.3c-1.2-2.3-3.2-4-5.6-4.9c-3-1.1-6.1-1.7-9.3-1.5
			l-4.1,0.3v32H71.9z"/>
		<path class="st2" d="M47.2,76.2v-2.5c1.6-1.2,3.1-2.5,4.6-3.9c0.4-2,0.5-3.9,0.5-5.9c0.2-5.1,0.3-14.5,0.3-28.2
			c0-3.6-0.2-9.3-0.3-17.1s-0.2-9-0.5-9.8c-0.1-0.4-0.4-0.9-0.7-1.2c-0.8-0.5-3.5-0.8-8.1-1V1.7h26.9l10-0.2c4.5-0.2,9,0.5,13.4,1.9
			c2.8,0.9,5.3,2.8,6.9,5.2c1.5,2.3,2.3,5,2.2,7.8c0,3.1-0.9,6-2.5,8.6c-1.6,2.5-3.8,4.6-6.4,6.1c-3.3,1.5-6.7,2.7-10.1,3.6
			c4.5,0.4,9,1.4,13.2,3c2.6,1.4,4.7,3.5,6.1,6.1c1.5,2.7,2.3,5.8,2.2,9c0.1,3.3-0.7,6.6-2.2,9.5c-1.5,2.8-3.6,5.4-6.1,7.4
			c-2.5,2.1-5.4,3.7-8.5,4.7c-3.8,1.3-7.8,2-11.8,1.9l-17.8-0.5L47.2,76.2z M67.3,32.5h3c2.2,0,4.4-0.2,6.6-0.5
			c1.7-0.4,3.4-1.1,4.9-2c1.4-1.2,2.5-2.7,3.2-4.4c0.9-2.1,1.4-4.4,1.4-6.8c0.1-2.3-0.5-4.6-1.5-6.6C84,10.5,82.7,9.2,81,8.5
			c-2.2-1-4.7-1.4-7.1-1.2l-6.1,0.3c-0.3,3-0.4,6-0.3,9v15.9H67.3z M67.6,70.3l6.4,0.3c3.9,0.1,7.7-1.5,10.3-4.4
			c2.7-2.9,4.1-7.1,4.1-12.3c0.1-3.3-0.7-6.6-2.2-9.5c-1.2-2.2-3.1-3.9-5.4-4.9c-3-1.1-6.2-1.7-9.5-1.5l-4.1,0.3v30.4
			C67.3,69.3,67.5,69.8,67.6,70.3z"/>
		<path class="st1" d="M48.9,75.1v-3l-0.5,0.8c1.7-0.9,3.2-2,4.6-3.4h0.3V69c0.4-1.9,0.5-3.8,0.5-5.7c0.2-5.1,0.3-14.4,0.3-27.7
			V18.6c-0.2-7.9-0.5-9.3-0.7-10c-0.2-0.7-0.6-1.3-1.2-1.7c-0.7-0.3-2.2-0.8-8.5-1.2l1,1V2l-1.2,1.2H46l7.1,0.3H70l9.6-0.3
			C84,3,88.3,3.6,92.5,4.9c2.5,1,4.7,2.6,6.3,4.7c1.2,2.1,1.9,4.5,1.9,6.9c0.1,2.8-0.7,5.5-2.2,7.8c-1.4,2.4-3.5,4.4-5.9,5.7
			c-3.2,1.4-6.4,2.5-9.8,3.4v2c4.4,0.3,8.6,1.3,12.7,2.9c2.3,1.3,4.1,3.1,5.4,5.4c1.4,2.5,2.1,5.4,2,8.3c0.1,3-0.5,6.1-1.9,8.8
			c-1.5,2.6-3.4,5-5.7,6.9c-2.3,2-5,3.4-7.9,4.4c-3.6,1.3-7.4,1.8-11.2,1.7l-17.4-0.3l-11,0.3L48.9,75.1z M58.7,75.7l17.4,0.3
			c4.1,0.1,8.1-0.4,12-1.7c3.1-1.2,6-2.8,8.6-4.9c2.5-2.1,4.5-4.6,6.1-7.4c1.6-3.1,2.4-6.5,2.4-10c0.1-3.3-0.7-6.5-2.4-9.3
			c-1.4-2.7-3.6-5-6.3-6.4c-4.3-1.7-8.9-2.7-13.5-3v2.2c3.6-0.8,7-2.1,10.3-3.7c2.8-1.5,5.1-3.7,6.8-6.4c1.7-2.7,2.6-5.8,2.5-9
			c0.1-2.9-0.7-5.7-2.2-8.1C98.6,5.7,96,3.7,93,2.7c-4.4-1.4-8.9-2-13.5-1.9l-9.6,0.3H53.1L46,1h-3.6v6.8h1c2.5,0,5,0.3,7.4,0.8
			l0.3,0.5c0.3,3.1,0.4,6.2,0.3,9.3v16.7c0,13.4,0,22.7-0.2,27.7c0,1.9-0.1,3.7-0.5,5.6l0.5-0.7c-1.3,1.2-2.7,2.3-4.2,3.2l-0.5,0.3
			v4.9h1.2L58.7,75.7z"/>
		<path class="st1" d="M67.5,33.3h3c2.2,0,4.4-0.2,6.6-0.5c1.9-0.4,3.7-1.1,5.2-2.2c1.5-1.3,2.8-2.9,3.6-4.7
			c0.9-2.3,1.4-4.7,1.4-7.1c0.1-2.4-0.4-4.8-1.5-6.9c-1-1.8-2.5-3.3-4.4-4.2c-2.4-0.9-4.9-1.3-7.4-1.2l-6.3,0.3h-0.8v0.8
			c-0.2,2.5-0.3,5.4-0.3,8.8v16.7L67.5,33.3z M68.5,24.7v-8.1c0-3.4,0.2-6.3,0.3-8.6l-1,1l5.9-0.3c2.2-0.1,4.5,0.2,6.6,1
			c1.4,0.7,2.5,1.8,3.2,3.2c0.9,1.8,1.4,3.9,1.4,5.9c0,2.1-0.4,4.2-1.2,6.1c-0.6,1.5-1.5,2.8-2.7,3.9c-1.2,0.9-2.7,1.6-4.2,1.9
			c-2.1,0.3-4.2,0.5-6.3,0.5h-3l1,1.2V24.7z"/>
		<path class="st1" d="M67.5,70.3c2.2,0.3,4.4,0.5,6.6,0.3c4.1,0.1,8.1-1.5,11-4.6c2.7-3,4.1-7.4,4.1-12.8c0.2-3.4-0.6-6.8-2.2-9.8
			C85.6,41,83.5,39.1,81,38c-3.1-1.1-6.4-1.7-9.6-1.5c-1.4,0-2.8,0.2-4.2,0.5h-0.8v30.8c0,0.5,0.1,1,0.2,1.5v0.8L67.5,70.3z
			 M68.6,67.8V38l-0.8,1.2c1.2-0.3,2.5-0.5,3.7-0.5c3-0.1,6,0.4,8.8,1.4c2.1,0.9,3.9,2.5,4.9,4.6c1.4,2.6,2.1,5.6,1.9,8.6
			c0,4.9-1.2,8.8-3.6,11.3c-2.3,2.7-5.8,4.1-9.3,3.9c-2,0.1-4.1,0-6.1-0.3l0.8,1C68.8,68.8,68.6,68,68.6,67.8z"/>
	</g>
</g>
</svg>
