<?xml version="1.0" encoding="utf-8"?>
<!-- Generator: Adobe Illustrator 25.4.1, SVG Export Plug-In . SVG Version: 6.00 Build 0)  -->
<svg version="1.1" id="Layer_1" xmlns="http://www.w3.org/2000/svg" xmlns:xlink="http://www.w3.org/1999/xlink" x="0px" y="0px"
	 viewBox="0 0 51.92 80" style="enable-background:new 0 0 51.92 80;" xml:space="preserve">
<style type="text/css">
	.st0{fill:#F06519;}
	.st1{fill:#F79515;}
	.st2{fill:#FFCF02;}
</style>
<path class="st0" d="M27.59,0h1.85c1.42,0.13,2.82,0.47,4.11,1.09c3.32,1.58,5.75,4.52,7.6,7.61c2.93,5,4.68,10.59,6.06,16.19
	c1.84,7.66,2.9,15.48,3.62,23.32c0.72,8.25,1.09,16.53,1.01,24.81c-1.84-1.75-3.6-3.59-5.36-5.42C39.94,60.7,33.7,53.5,28.03,45.86
	c-3.9-5.29-7.55-10.79-10.48-16.68c-1.85-3.8-3.44-7.79-4.09-11.99c-0.47-3.2-0.33-6.62,1.21-9.53c1.39-2.69,3.87-4.64,6.59-5.87
	C23.27,0.88,25.39,0.18,27.59,0 M22.94,5.45c-1.66,0.78-3.22,1.89-4.25,3.43c-1.27,1.78-1.74,4-1.74,6.16
	c0.06,3.08,0.9,6.1,2.03,8.94c1.31,3.34,3.01,6.5,4.84,9.57c3.09,5.09,6.59,9.91,10.29,14.56c3.48,4.39,7.15,8.62,10.94,12.74
	c1.04,1.01,1.9,2.19,3.03,3.11c0.08-0.94,0-1.89,0-2.83c-0.29-8.53-0.95-17.07-2.24-25.51c-1.01-6.38-2.32-12.76-4.63-18.8
	c-1.12-2.89-2.49-5.72-4.41-8.17c-1.64-2.04-3.79-3.84-6.41-4.4C27.86,3.67,25.23,4.35,22.94,5.45z"/>
<path class="st0" d="M6.93,52.57c2.82-0.84,5.85-0.34,8.6,0.53c3.55,1.14,6.86,2.92,10.04,4.87c6.89,4.31,13.16,9.54,19.15,15.02
	c2.45,2.29,4.9,4.58,7.2,7.02c-4.34,0.02-8.68-0.17-13.01-0.47c-7.65-0.57-15.31-1.49-22.73-3.49c-4.11-1.16-8.24-2.6-11.71-5.15
	C2.17,69.2,0.24,66.73,0,63.8v-1.55c0.19-1.94,0.92-3.79,1.86-5.48C2.96,54.81,4.75,53.2,6.93,52.57 M7.39,55.43
	c-1.42,0.62-2.54,1.78-3.26,3.14c-0.7,1.35-1.25,2.83-1.26,4.37c-0.03,1.78,0.76,3.51,1.97,4.79c1.27,1.4,2.9,2.42,4.58,3.28
	c4.23,2.08,8.85,3.2,13.45,4.09c4.71,0.87,9.47,1.43,14.24,1.8c2.78,0.2,5.56,0.39,8.35,0.39c-0.85-1-1.84-1.87-2.8-2.76
	c-2.93-2.74-5.98-5.37-9.11-7.88c-3.87-3.07-7.89-5.99-12.23-8.36c-2.51-1.34-5.12-2.57-7.92-3.17C11.42,54.7,9.27,54.6,7.39,55.43z
	"/>
<g id="_x23_f79515ff">
	<path class="st1" d="M22.94,5.45c2.29-1.1,4.92-1.78,7.45-1.19c2.62,0.56,4.77,2.35,6.41,4.4c1.92,2.45,3.29,5.28,4.41,8.17
		c2.31,6.05,3.62,12.43,4.63,18.8c1.29,8.45,1.95,16.98,2.24,25.51c0,0.94,0.08,1.89,0,2.83c-1.12-0.92-1.99-2.1-3.03-3.11
		c-3.79-4.12-7.47-8.35-10.94-12.74c-3.71-4.65-7.21-9.48-10.29-14.56c-1.84-3.07-3.54-6.23-4.84-9.57
		c-1.13-2.85-1.97-5.86-2.03-8.94c0-2.15,0.47-4.38,1.74-6.16C19.72,7.34,21.28,6.23,22.94,5.45 M25.35,9.02
		c-1.77,0.67-3.35,2.02-3.99,3.84c-0.79,2.17-0.49,4.55,0.08,6.74c1.02,3.8,2.87,7.32,4.85,10.7c2.96,4.93,6.37,9.56,9.96,14.04
		c2.54,3.12,5.11,6.23,7.89,9.15c-0.1-3.18-0.46-6.35-0.79-9.51c-0.78-6.8-1.86-13.58-3.7-20.18c-1.01-3.55-2.24-7.08-4.15-10.25
		c-1.19-1.91-2.7-3.76-4.8-4.68C28.99,8.12,27.02,8.28,25.35,9.02z"/>
	<path class="st1" d="M7.39,55.43c1.88-0.84,4.03-0.73,6.01-0.32c2.8,0.6,5.4,1.83,7.92,3.17c4.34,2.37,8.36,5.29,12.23,8.36
		c3.14,2.51,6.18,5.14,9.11,7.88c0.96,0.89,1.95,1.76,2.8,2.76c-2.79,0-5.57-0.19-8.35-0.39c-4.77-0.37-9.53-0.93-14.24-1.8
		c-4.61-0.89-9.22-2.02-13.45-4.09c-1.67-0.86-3.3-1.87-4.58-3.28c-1.21-1.28-2-3.01-1.97-4.79c0-1.54,0.55-3.02,1.26-4.37
		C4.85,57.21,5.97,56.05,7.39,55.43 M9.02,58.06c-0.95,0.38-1.74,1.11-2.24,1.99c-0.71,1.27-1.08,2.81-0.63,4.23
		c0.46,1.4,1.58,2.48,2.75,3.31c2.21,1.5,4.75,2.4,7.3,3.15c3.25,0.94,6.58,1.55,9.92,2.05c4,0.56,8.02,1.01,12.06,1.13
		c-0.42-0.49-0.93-0.89-1.41-1.32c-1.99-1.73-4.03-3.4-6.13-5.01c-3.82-2.92-7.79-5.7-12.12-7.82c-1.73-0.84-3.54-1.56-5.43-1.93
		C11.74,57.61,10.31,57.55,9.02,58.06z"/>
</g>
<g id="_x23_ffcf02ff">
	<path class="st2" d="M25.35,9.02c1.67-0.74,3.64-0.9,5.34-0.15c2.11,0.92,3.61,2.78,4.8,4.68c1.91,3.17,3.14,6.71,4.15,10.25
		c1.84,6.6,2.91,13.38,3.7,20.18c0.33,3.16,0.69,6.33,0.79,9.51c-2.77-2.92-5.34-6.03-7.89-9.15c-3.59-4.48-7-9.12-9.96-14.04
		c-1.98-3.38-3.83-6.9-4.85-10.7c-0.56-2.19-0.87-4.57-0.08-6.74C22,11.04,23.58,9.69,25.35,9.02z"/>
	<path class="st2" d="M9.02,58.06c1.29-0.51,2.72-0.45,4.06-0.2c1.89,0.37,3.7,1.09,5.43,1.93c4.33,2.12,8.3,4.9,12.12,7.82
		c2.1,1.6,4.13,3.28,6.13,5.01c0.48,0.42,0.99,0.82,1.41,1.32c-4.04-0.12-8.06-0.58-12.06-1.13c-3.34-0.5-6.67-1.11-9.92-2.05
		c-2.54-0.75-5.09-1.65-7.3-3.15c-1.18-0.83-2.29-1.9-2.75-3.31c-0.45-1.42-0.07-2.96,0.63-4.23C7.28,59.17,8.06,58.44,9.02,58.06z"
		/>
</g>
</svg>
