<?xml version="1.0" encoding="utf-8"?>
<!-- Generator: Adobe Illustrator 25.4.1, SVG Export Plug-In . SVG Version: 6.00 Build 0)  -->
<svg version="1.1" id="Layer_1" xmlns="http://www.w3.org/2000/svg" xmlns:xlink="http://www.w3.org/1999/xlink" x="0px" y="0px"
	 viewBox="0 0 181.21 80" style="enable-background:new 0 0 181.21 80;" xml:space="preserve">
<style type="text/css">
	.st0{fill:#F06519;}
	.st1{fill:#F79515;}
	.st2{fill:#FFCF02;}
</style>
<g>
	<g id="_x23_f06519ff">
		<path class="st0" d="M22.81,0h1.53c1.17,0.1,2.33,0.39,3.4,0.9c2.74,1.31,4.75,3.73,6.28,6.29c2.42,4.14,3.87,8.76,5.01,13.39
			c1.52,6.33,2.4,12.8,2.99,19.28c0.59,6.82,0.9,13.67,0.83,20.51c-1.52-1.45-2.98-2.97-4.43-4.48
			c-5.41-5.71-10.56-11.66-15.25-17.98c-3.22-4.37-6.24-8.92-8.66-13.79c-1.53-3.14-2.85-6.44-3.38-9.91
			c-0.39-2.64-0.27-5.48,1-7.88c1.15-2.22,3.2-3.84,5.45-4.85C19.24,0.73,20.99,0.15,22.81,0 M18.97,4.51
			c-1.37,0.65-2.66,1.56-3.52,2.84c-1.05,1.47-1.44,3.31-1.44,5.09c0.05,2.55,0.74,5.04,1.68,7.39c1.08,2.76,2.49,5.37,4,7.91
			c2.55,4.21,5.45,8.19,8.51,12.04c2.87,3.63,5.91,7.13,9.05,10.53c0.86,0.84,1.57,1.81,2.5,2.57c0.06-0.78,0-1.56,0-2.34
			c-0.24-7.06-0.79-14.11-1.85-21.09c-0.84-5.27-1.92-10.55-3.83-15.55c-0.93-2.39-2.06-4.73-3.65-6.75
			c-1.35-1.69-3.13-3.17-5.3-3.64C23.04,3.03,20.86,3.6,18.97,4.51z"/>
		<path class="st0" d="M73.03,29.14c0.89-0.22,1.87-0.16,2.7,0.25c0.96,0.5,1.75,1.41,1.98,2.48c0.17,0.81,0.13,1.7-0.27,2.44
			c-0.46,0.91-1.28,1.61-2.22,2c-1.26,0.47-2.78,0.17-3.73-0.79c-1.32-1.2-1.54-3.37-0.55-4.85C71.44,29.95,72.17,29.36,73.03,29.14
			z"/>
		<path class="st0" d="M59.31,32c2.35-0.92,4.9-1.17,7.41-1.15c0,0.98,0,1.96,0,2.94c-2.07-0.01-4.29,0.26-6.01,1.52
			c-1.92,1.38-3,3.71-3.13,6.04c-0.11,2.02-0.03,4.04-0.05,6.06c3.07,0,6.15,0,9.22,0c0,0.78,0,1.55,0,2.33c-3.07,0-6.15,0-9.22,0
			c0,5.57,0,11.15,0,16.72c-1.93,0-3.85,0-5.78,0c0-7.56,0-15.12,0-22.67c0.03-2.46,0.52-4.97,1.83-7.08
			C54.89,34.54,56.96,32.88,59.31,32z"/>
		<path class="st0" d="M126.83,33.17c2.86-1.86,6.37-2.36,9.72-2.32c0,0.98,0,1.96,0,2.94c-2.1-0.01-4.34,0.27-6.07,1.56
			c-1.97,1.45-3.03,3.89-3.1,6.3c-0.05,1.92-0.01,3.84-0.02,5.76c3.08,0,6.17,0,9.25,0c0,0.78,0,1.55,0,2.33
			c-3.09,0-6.17-0.01-9.26,0c0.01,5.57,0,11.14,0,16.72c-1.92,0-3.85,0-5.77,0c0-6.52,0-13.04,0-19.56
			c0.02-2.34-0.15-4.73,0.49-7.01C122.75,37.15,124.48,34.7,126.83,33.17z"/>
		<path class="st0" d="M141.15,30.91c1.91,0,3.83,0,5.74,0c0.01,7.94-0.01,15.89,0.01,23.83c-0.03,2.32,0.68,4.74,2.37,6.4
			c1.42,1.46,3.48,2.07,5.46,2.18c0,0.98,0,1.95,0,2.93c-2.89-0.04-5.87-0.64-8.32-2.25c-1.79-1.17-3.25-2.86-4.11-4.82
			c-0.74-1.65-1.08-3.46-1.15-5.27C141.15,46.25,141.15,38.58,141.15,30.91z"/>
		<path class="st0" d="M71.32,41.28c1.92,0,3.85,0,5.77,0c0,8.34,0,16.69,0,25.03c-1.92,0-3.85,0-5.77,0
			C71.32,57.97,71.32,49.63,71.32,41.28z"/>
		<path class="st0" d="M156.35,41.32c1.93,0,3.85,0,5.78,0c0,3.75,0,7.5,0,11.25c0.01,1.8-0.11,3.64,0.33,5.4
			c0.38,1.68,1.23,3.32,2.68,4.31c2.09,1.46,5.08,1.47,7.17,0.01c1.95-1.3,3.03-3.64,3.07-5.94c0.01-5.01,0-10.02,0-15.03
			c1.72,0,3.45,0.01,5.17-0.01c0.23,0,0.48-0.02,0.67,0.14v25.66c-0.11,1.47-0.21,2.95-0.66,4.36c-0.76,2.59-2.5,4.89-4.79,6.32
			c-2.51,1.57-5.51,2.1-8.43,2.21h-1.12c0-0.99,0-1.98,0-2.97c2.15,0.06,4.47-0.27,6.21-1.64c1.84-1.43,2.85-3.76,2.95-6.06
			c0.05-1.68,0-3.36,0.03-5.04c-1.3,1.18-3.04,1.74-4.74,2.01c-2.68,0.38-5.51,0.14-7.98-1.02c-1.84-0.87-3.5-2.21-4.5-4
			c-1.27-2.23-1.77-4.81-1.84-7.35C156.35,49.72,156.35,45.52,156.35,41.32z"/>
		<path class="st0" d="M89.61,42.32c1.81-0.72,3.79-0.89,5.73-0.9c0.03,0.83,0.05,1.66,0.04,2.5c-0.84-0.07-1.62,0.28-2.42,0.49
			c-1.57,0.49-2.99,1.5-3.89,2.89c-0.97,1.42-1.35,3.16-1.36,4.86c0,4.73,0,9.46,0,14.19c-1.93,0-3.85,0-5.78,0c0-4.1,0-8.2,0-12.3
			c0.05-2.33,0.57-4.69,1.79-6.7c0.68-1.16,1.62-2.15,2.64-3.02C87.32,43.5,88.41,42.78,89.61,42.32z"/>
		<path class="st0" d="M95.36,47.37c2.25-3.53,6.42-5.73,10.6-5.6c2.24,0.09,4.46,0.77,6.34,2.01c2.43,1.56,4.16,4.1,4.85,6.89
			c0.42,1.58,0.32,3.22,0.29,4.83c-6.18,0-12.37,0-18.56,0c0.18,1.38,0.46,2.77,1.06,4.03c1.01,2.09,3.04,3.71,5.36,4.04
			c1.53,0.21,3.12,0.14,4.61-0.25c2.13-0.56,4.03-1.71,5.76-3.04c0,0.59,0,1.19,0.01,1.78c-1.55,1.49-3.32,2.8-5.37,3.51
			c-2.52,0.88-5.3,0.97-7.89,0.32c-2.49-0.65-4.77-2.11-6.34-4.14c-1.41-1.83-2.3-4.05-2.56-6.34
			C93.14,52.63,93.83,49.73,95.36,47.37 M104.27,44.69c-1.23,0.2-2.3,0.95-3.12,1.85c-1.39,1.62-1.98,3.76-2.21,5.84
			c4.34,0.01,8.68,0.04,13.01-0.01c-0.27-2.15-0.7-4.49-2.31-6.07C108.28,44.88,106.17,44.38,104.27,44.69z"/>
		<path class="st0" d="M5.73,43.46c2.33-0.69,4.83-0.28,7.11,0.44c2.94,0.94,5.68,2.42,8.3,4.02c5.7,3.57,10.88,7.89,15.84,12.41
			c2.03,1.89,4.05,3.78,5.95,5.8c-3.59,0.02-7.18-0.14-10.76-0.38c-6.32-0.47-12.66-1.23-18.79-2.88c-3.4-0.96-6.81-2.15-9.68-4.26
			c-1.9-1.4-3.5-3.44-3.69-5.87v-1.28c0.16-1.6,0.76-3.13,1.53-4.53C2.44,45.32,3.93,43.99,5.73,43.46 M6.11,45.83
			c-1.17,0.51-2.1,1.47-2.7,2.6c-0.58,1.11-1.04,2.34-1.04,3.61C2.35,53.5,3,54.93,4,55.99c1.05,1.16,2.4,2,3.78,2.71
			c3.5,1.72,7.31,2.65,11.12,3.38c3.89,0.72,7.83,1.18,11.77,1.49c2.3,0.16,4.6,0.32,6.9,0.32c-0.7-0.82-1.52-1.55-2.32-2.28
			c-2.43-2.27-4.94-4.44-7.53-6.52c-3.2-2.54-6.52-4.95-10.11-6.91c-2.08-1.1-4.23-2.12-6.54-2.62C9.44,45.22,7.67,45.14,6.11,45.83
			z"/>
	</g>
	<g id="_x23_f79515ff">
		<path class="st1" d="M18.97,4.51c1.9-0.91,4.07-1.47,6.16-0.99c2.16,0.46,3.94,1.95,5.3,3.64c1.59,2.02,2.72,4.36,3.65,6.75
			c1.91,5,2.99,10.27,3.83,15.55c1.07,6.98,1.61,14.03,1.86,21.09c0,0.78,0.06,1.56,0,2.34c-0.93-0.76-1.65-1.73-2.5-2.57
			c-3.13-3.41-6.18-6.9-9.05-10.53c-3.06-3.85-5.96-7.84-8.51-12.04c-1.52-2.54-2.92-5.15-4-7.91c-0.94-2.36-1.63-4.85-1.68-7.39
			c0-1.78,0.39-3.62,1.44-5.09C16.31,6.07,17.59,5.15,18.97,4.51 M20.96,7.46c-1.46,0.56-2.77,1.67-3.3,3.17
			c-0.65,1.79-0.4,3.76,0.06,5.57c0.84,3.14,2.37,6.05,4.01,8.84c2.45,4.07,5.27,7.91,8.23,11.61c2.1,2.58,4.23,5.15,6.52,7.57
			c-0.09-2.63-0.38-5.25-0.66-7.86c-0.65-5.62-1.53-11.23-3.06-16.68c-0.84-2.93-1.85-5.85-3.43-8.48
			c-0.98-1.58-2.23-3.11-3.97-3.87C23.97,6.71,22.34,6.85,20.96,7.46z"/>
		<path class="st1" d="M6.11,45.83c1.56-0.69,3.33-0.61,4.96-0.26c2.31,0.5,4.47,1.51,6.54,2.62c3.59,1.96,6.91,4.38,10.11,6.91
			c2.59,2.08,5.11,4.25,7.53,6.52c0.8,0.73,1.61,1.45,2.32,2.28c-2.31,0-4.61-0.16-6.9-0.32c-3.94-0.31-7.88-0.77-11.77-1.49
			c-3.81-0.74-7.62-1.67-11.12-3.38C6.4,57.99,5.06,57.15,4,55.99c-1-1.06-1.65-2.49-1.63-3.96c0-1.27,0.46-2.5,1.04-3.61
			C4.01,47.3,4.94,46.34,6.11,45.83 M7.45,48c-0.79,0.31-1.44,0.92-1.85,1.65c-0.58,1.05-0.89,2.32-0.52,3.5
			c0.38,1.16,1.3,2.05,2.28,2.74c1.83,1.24,3.93,1.98,6.03,2.6c2.69,0.77,5.44,1.28,8.2,1.69c3.31,0.46,6.63,0.83,9.97,0.94
			c-0.34-0.41-0.77-0.74-1.16-1.09c-1.65-1.43-3.33-2.81-5.07-4.14c-3.16-2.41-6.44-4.71-10.02-6.46c-1.43-0.69-2.93-1.29-4.49-1.59
			C9.71,47.63,8.52,47.58,7.45,48z"/>
	</g>
	<g id="_x23_ffcf02ff">
		<path class="st2" d="M20.96,7.46c1.38-0.61,3.01-0.75,4.41-0.13c1.74,0.76,2.99,2.3,3.97,3.87c1.58,2.62,2.59,5.54,3.43,8.48
			c1.52,5.45,2.41,11.06,3.06,16.68c0.28,2.61,0.57,5.24,0.66,7.86c-2.29-2.42-4.42-4.98-6.52-7.57c-2.97-3.7-5.79-7.54-8.23-11.61
			c-1.64-2.79-3.17-5.7-4.01-8.84c-0.47-1.81-0.72-3.78-0.06-5.57C18.19,9.13,19.5,8.01,20.96,7.46z"/>
		<path class="st2" d="M7.45,48c1.07-0.42,2.25-0.37,3.36-0.17c1.57,0.3,3.06,0.9,4.49,1.59c3.58,1.75,6.86,4.05,10.02,6.46
			c1.73,1.32,3.42,2.71,5.07,4.14c0.4,0.35,0.82,0.68,1.16,1.09c-3.34-0.1-6.66-0.48-9.97-0.93c-2.76-0.41-5.51-0.92-8.2-1.7
			c-2.1-0.62-4.21-1.37-6.03-2.6c-0.97-0.69-1.89-1.57-2.28-2.74c-0.37-1.17-0.06-2.45,0.52-3.5C6.02,48.92,6.67,48.31,7.45,48z"/>
	</g>
</g>
</svg>
