<?xml version="1.0" encoding="utf-8"?>
<!-- Generator: Adobe Illustrator 25.4.1, SVG Export Plug-In . SVG Version: 6.00 Build 0)  -->
<svg version="1.1" xmlns="http://www.w3.org/2000/svg" xmlns:xlink="http://www.w3.org/1999/xlink" x="0px" y="0px"
	 viewBox="0 0 392.6 80" style="enable-background:new 0 0 392.6 80;" xml:space="preserve">
<style type="text/css">
	.st0{fill-rule:evenodd;clip-rule:evenodd;fill:#FF8200;}
	.st1{fill-rule:evenodd;clip-rule:evenodd;fill:#006496;}
</style>
<g id="Layer_2">
</g>
<g id="Layer_1">
	<g id="C1.0_Navigation">
		<g id="C2.5.1_Interactions_Desktop-Phablet" transform="translate(-139.000000, -356.000000)">
			<g id="a.-Logo" transform="translate(139.000000, 356.000000)">
				<path id="Fill-5" class="st0" d="M96.07,17.09v35.82c0,3.3-1.43,8.23-14.61,8.23s-14.62-4.93-14.62-8.23V17.09h-7.49v36.23
					c0,8.87,7.28,12.74,20.8,12.74c6.91,0,12.01-1.17,15.83-2.25V80h7.37l-0.04-62.91H96.07L96.07,17.09z M28.15,0
					c-7.89,0-19.6,1.66-19.6,9.79v7.31H0v4.19h8.55v43.63h7.17V21.29H27l0-4.19H15.72v-6.41c0-6.24,7.22-7.23,12.43-7.23
					c8.63,0,12.92,0.66,12.92,10.19l0,51.28h7.16V1.15h-7.16C37.08,1.15,35.15,0,28.15,0L28.15,0z M384.94,21.67
					c-4.33,0-7.85,3.56-7.85,7.94c0,4.39,3.52,7.95,7.85,7.95c4.37,0,7.87-3.56,7.87-7.95C392.81,25.23,389.31,21.67,384.94,21.67
					L384.94,21.67z"/>
				<path id="Fill-6" class="st1" d="M327.74,27.92c5.57-0.64,10.56-0.95,13.7-0.96c-1.73-6.73-9.64-9.36-22.68-9.36
					c-11.27,0-21.32,3.93-21.32,3.93v9.35c0,0,6.97-5.66,21.52-5.66C323.72,25.21,326.36,26.07,327.74,27.92L327.74,27.92z
					 M153.9,51.42c-0.4,5.18-5.94,7.99-11.31,7.99c-11.64,0-13.27-5.11-13.27-16.78c0-11.65,2.28-16.75,12.7-16.75
					c6.75,0,11.48,2.79,11.88,7.97c0.32,4.19,0.49,6.33,0.49,8.79C154.39,45.1,154.22,47.49,153.9,51.42L153.9,51.42z M154.39,20.45
					c-4.81-1.89-8.46-2.88-14.41-2.88c-18.15,0-23.68,6.91-23.68,25.06c0,18.07,8.14,25.06,26.29,25.06
					c11.06,0,19.11-4.18,24.82-4.18V2.79h-13.02V20.45L154.39,20.45z M365.74,18.69l-13.02,0v7.88h13.02V18.69L365.74,18.69z
					 M329.26,51.3c0,6.83-6.33,8.55-10.67,8.55c-7.4,0-11.18-2.25-11.18-7.08c0-8.16,10.37-12.36,21.85-13.06V51.3L329.26,51.3z
					 M368.48,31.24l-3.78,0.01c-52.8,0-69.9,9.9-69.9,21.21c0,10.51,8.95,15.12,23.45,15.12c9.35,0,18.81-4.08,23.77-4.08V38.02
					c6.18-0.79,10.79-0.92,10.79-0.92v29.46h13.01V44.39C365.81,36.46,368.48,31.24,368.48,31.24L368.48,31.24z M261.67,59.41
					c-5.38,0-10.91-2.8-11.31-7.99c-0.32-3.94-0.49-6.33-0.49-8.79c0-2.46,0.17-4.6,0.49-8.79c0.4-5.18,5.13-7.96,11.89-7.96
					c10.41,0,12.7,5.1,12.7,16.75C274.94,54.3,273.31,59.41,261.67,59.41L261.67,59.41z M264.27,17.58c-5.94,0-9.6,0.99-14.4,2.88
					V2.79h-13.02v60.73c5.71,0,13.75,4.18,24.82,4.18c18.15,0,26.29-6.99,26.29-25.06C287.96,24.48,282.42,17.58,264.27,17.58
					L264.27,17.58z M213.09,51.75c0,3.3-1.07,8.22-10.83,8.22s-10.82-4.92-10.82-8.22V18.73H178.4v36.23
					c0,8.87,9.03,12.74,22.56,12.74c11.96,0,19.68-3.7,23.51-4.11l1.63-0.17V18.73h-13.02V51.75L213.09,51.75z"/>
			</g>
		</g>
	</g>
</g>
</svg>
