<?xml version="1.0" encoding="utf-8"?>
<!-- Generator: Adobe Illustrator 25.4.1, SVG Export Plug-In . SVG Version: 6.00 Build 0)  -->
<svg version="1.1" id="Layer_1" xmlns="http://www.w3.org/2000/svg" xmlns:xlink="http://www.w3.org/1999/xlink" x="0px" y="0px"
	 viewBox="0 0 195.51 80" style="enable-background:new 0 0 195.51 80;" xml:space="preserve">
<style type="text/css">
	.st0{fill:#EB7302;}
	.st1{fill:#B0B0B3;}
</style>
<path id="path648" class="st0" d="M100.13,80c22.09,0,40-17.91,40-40c0-22.09-17.91-40-40-40C81.3,0,65.52,13,61.26,30.51
	c-0.21,0.86-0.98,1.47-1.87,1.47H41.84c-1.07,0-1.92,0.86-1.92,1.92v12.12c0,1.06,0.86,1.92,1.92,1.92h12.17
	c1.06,0,1.92,0.86,1.92,1.92v7.29c0,0.58-0.26,1.12-0.7,1.49c-4.15,3.39-9.45,5.44-15.23,5.44c-13.3,0-24.08-10.78-24.08-24.08
	S26.71,15.93,40,15.93c3.77,0,7.34,0.87,10.52,2.42c0.9,0.44,1.98,0.11,2.5-0.75l6.18-10.4c0.27-0.46,0.34-1,0.2-1.51
	c-0.15-0.51-0.5-0.94-0.97-1.18C52.92,1.63,46.65,0,40,0C17.91,0,0,17.91,0,40c0,22.09,17.91,40,40,40
	c11.25,0,21.41-4.64,28.68-12.12c0.36-0.37,0.86-0.59,1.38-0.59c0.52,0,1.02,0.21,1.38,0.59C78.72,75.36,88.88,80,100.13,80
	 M100.13,64.08c-13.3,0-24.08-10.78-24.08-24.08s10.78-24.08,24.08-24.08S124.2,26.71,124.2,40S113.42,64.08,100.13,64.08"/>
<path id="path650" class="st1" d="M166.18,32.3C162.59,13.9,146.38,0,126.92,0c-4.7,0-9.21,0.81-13.4,2.3
	c7.71,2.74,14.33,7.78,19.04,14.29C143.14,19.14,151,28.65,151,40c0,13.3-10.78,24.08-24.08,24.08S102.85,53.3,102.85,40
	c0-8.33,4.24-15.68,10.67-20c-3.83-2.57-8.43-4.07-13.39-4.07c-1.94,0-3.83,0.23-5.64,0.66c-4.76,6.58-7.57,14.67-7.57,23.41
	c0,22.09,17.91,40,40,40c19.46,0,35.67-13.89,39.26-32.3V32.3"/>
<path id="path652" class="st0" d="M168.82,63.07c-1.06,0-1.92-0.86-1.92-1.92V3.18c0-1.06-0.86-1.92-1.92-1.92H152.9
	c-1.07,0-1.92,0.86-1.92,1.92v73.9c0,1.06,0.86,1.92,1.92,1.92h40.46c1.06,0,1.92-0.86,1.92-1.92V65c0-1.06-0.86-1.92-1.92-1.92
	H168.82"/>
</svg>
