<?xml version="1.0" encoding="utf-8"?>
<!-- Generator: Adobe Illustrator 25.4.1, SVG Export Plug-In . SVG Version: 6.00 Build 0)  -->
<svg version="1.1" id="Layer_1" xmlns="http://www.w3.org/2000/svg" xmlns:xlink="http://www.w3.org/1999/xlink" x="0px" y="0px"
	 viewBox="0 0 150.4 80" style="enable-background:new 0 0 150.4 80;" xml:space="preserve">
<style type="text/css">
	.st0{fill:#EB7302;}
	.st1{fill:#B0B0B3;}
</style>
<g id="g6452" transform="matrix(1.290341,0,0,1.290341,-41.695591,-127.7603)">
	<path id="path600" class="st0" d="M36.65,153.33c0-0.09,0.03-0.17,0.08-0.23c0.05-0.06,0.13-0.09,0.24-0.09h0.48
		c0.11,0,0.19,0.03,0.24,0.09c0.05,0.06,0.08,0.14,0.08,0.23v4.29c0,0.31,0.07,0.53,0.2,0.67c0.13,0.14,0.33,0.21,0.6,0.21h1.39
		c0.12,0,0.2,0.03,0.25,0.09c0.05,0.06,0.08,0.14,0.08,0.23v0.26c0,0.09-0.03,0.17-0.08,0.23c-0.05,0.07-0.13,0.09-0.25,0.09h-1.62
		c-0.56,0-0.98-0.15-1.27-0.45s-0.43-0.73-0.43-1.29V153.33"/>
	<path id="path602" class="st0" d="M41.33,155.61h-0.42c-0.12,0-0.2-0.03-0.25-0.09s-0.08-0.14-0.08-0.24v-0.21
		c0-0.09,0.03-0.17,0.08-0.23c0.05-0.06,0.13-0.09,0.25-0.09h1.16c0.11,0,0.19,0.03,0.25,0.09c0.05,0.07,0.08,0.14,0.08,0.23v4.02
		c0,0.09-0.03,0.17-0.08,0.23c-0.06,0.07-0.14,0.09-0.25,0.09h-0.42c-0.11,0-0.2-0.03-0.25-0.09c-0.05-0.06-0.08-0.14-0.08-0.23
		V155.61z M41.66,153.96c-0.11,0-0.2-0.03-0.25-0.09c-0.05-0.06-0.08-0.14-0.08-0.23v-0.31c0-0.09,0.03-0.17,0.08-0.23
		c0.05-0.06,0.13-0.09,0.25-0.09h0.42c0.11,0,0.19,0.03,0.25,0.09c0.05,0.06,0.08,0.14,0.08,0.23v0.31c0,0.09-0.03,0.17-0.08,0.23
		c-0.06,0.06-0.14,0.09-0.25,0.09H41.66"/>
	<path id="path604" class="st0" d="M43.8,155.06c0-0.09,0.03-0.17,0.08-0.23c0.05-0.06,0.14-0.09,0.24-0.09h0.42
		c0.11,0,0.19,0.03,0.24,0.09c0.06,0.07,0.08,0.14,0.08,0.23v0.53l0.3-0.31c0.16-0.17,0.35-0.32,0.57-0.44
		c0.21-0.12,0.48-0.18,0.79-0.18c0.39,0,0.71,0.11,0.96,0.33c0.25,0.22,0.38,0.61,0.38,1.18v2.91c0,0.09-0.02,0.17-0.08,0.23
		c-0.05,0.07-0.13,0.09-0.25,0.09h-0.42c-0.12,0-0.2-0.03-0.25-0.09c-0.05-0.06-0.08-0.14-0.08-0.23v-2.71
		c0-0.32-0.06-0.54-0.19-0.65c-0.13-0.11-0.28-0.17-0.45-0.17c-0.2,0-0.39,0.08-0.58,0.23c-0.19,0.15-0.34,0.29-0.47,0.41
		l-0.24,0.24v2.65c0,0.09-0.03,0.17-0.08,0.23c-0.05,0.07-0.13,0.09-0.24,0.09h-0.42c-0.11,0-0.19-0.03-0.24-0.09
		c-0.05-0.06-0.08-0.14-0.08-0.23V155.06"/>
	<path id="path606" class="st0" d="M49.24,153.33c0-0.09,0.03-0.17,0.08-0.23c0.05-0.06,0.13-0.09,0.24-0.09h0.42
		c0.11,0,0.19,0.03,0.24,0.09c0.05,0.06,0.08,0.14,0.08,0.23v2.26l0.3-0.31c0.17-0.17,0.36-0.32,0.57-0.44
		c0.21-0.12,0.48-0.18,0.79-0.18c0.38,0,0.7,0.12,0.96,0.35c0.25,0.24,0.38,0.65,0.38,1.24v2.82c0,0.09-0.03,0.17-0.08,0.23
		c-0.05,0.07-0.13,0.09-0.25,0.09h-0.41c-0.11,0-0.2-0.03-0.25-0.09c-0.05-0.06-0.08-0.14-0.08-0.23v-2.71
		c0-0.32-0.07-0.54-0.2-0.65c-0.13-0.11-0.28-0.17-0.45-0.17c-0.2,0-0.39,0.08-0.58,0.23c-0.19,0.15-0.34,0.29-0.47,0.41l-0.24,0.24
		v2.65c0,0.09-0.03,0.17-0.08,0.23c-0.05,0.07-0.14,0.09-0.24,0.09h-0.42c-0.11,0-0.19-0.03-0.24-0.09
		c-0.06-0.06-0.08-0.14-0.08-0.23V153.33"/>
	<path id="path608" class="st0" d="M54.43,157.14c0-0.73,0.26-1.31,0.78-1.74c0.52-0.44,1.1-0.65,1.75-0.65h1.28
		c0.11,0,0.19,0.03,0.24,0.09c0.05,0.07,0.08,0.14,0.08,0.23v4.02c0,0.09-0.03,0.17-0.08,0.23c-0.05,0.07-0.14,0.09-0.24,0.09h-0.42
		c-0.11,0-0.19-0.03-0.25-0.09c-0.05-0.06-0.08-0.14-0.08-0.23v-0.49l-0.34,0.31c-0.18,0.16-0.37,0.29-0.59,0.41
		c-0.22,0.11-0.48,0.17-0.78,0.17c-0.38,0-0.7-0.13-0.96-0.38c-0.27-0.25-0.4-0.66-0.4-1.23V157.14z M55.49,157.78
		c0,0.32,0.06,0.54,0.19,0.65c0.13,0.11,0.28,0.16,0.45,0.16c0.21,0,0.42-0.08,0.63-0.23s0.38-0.29,0.5-0.4l0.23-0.23v-2.11h-0.48
		c-0.44,0-0.8,0.14-1.09,0.41s-0.44,0.64-0.44,1.11V157.78"/>
	<path id="path610" class="st0" d="M59.74,158.75c0-0.09,0.02-0.16,0.07-0.2c0.04-0.04,0.11-0.06,0.18-0.06h0.04l0.05,0.01
		c0.21,0.03,0.4,0.06,0.57,0.08c0.17,0.01,0.36,0.02,0.57,0.02c0.28,0,0.52-0.04,0.73-0.12c0.2-0.08,0.31-0.23,0.31-0.45
		c0-0.16-0.07-0.28-0.21-0.36c-0.14-0.08-0.3-0.14-0.46-0.18l-0.71-0.16c-0.34-0.09-0.62-0.23-0.83-0.42
		c-0.22-0.2-0.32-0.48-0.32-0.86c0-0.47,0.2-0.81,0.59-1.04c0.39-0.23,0.87-0.34,1.44-0.34c0.23,0,0.42,0.01,0.57,0.02
		c0.15,0.02,0.33,0.04,0.52,0.08c0.09,0.01,0.16,0.04,0.2,0.09c0.04,0.05,0.06,0.12,0.06,0.21v0.3c0,0.09-0.02,0.15-0.07,0.2
		c-0.04,0.04-0.1,0.07-0.17,0.07l-0.09-0.01l-0.13-0.02c-0.12-0.02-0.25-0.03-0.41-0.05s-0.31-0.02-0.47-0.02
		c-0.27,0-0.5,0.04-0.68,0.11c-0.18,0.08-0.27,0.21-0.27,0.41c0,0.16,0.06,0.27,0.18,0.32c0.12,0.06,0.25,0.1,0.4,0.14l0.62,0.15
		c0.36,0.09,0.67,0.22,0.93,0.41c0.27,0.19,0.4,0.51,0.4,0.96c0,0.56-0.22,0.94-0.66,1.14c-0.44,0.2-0.93,0.3-1.45,0.3
		c-0.23,0-0.44-0.01-0.62-0.03c-0.18-0.02-0.37-0.04-0.58-0.07c-0.11-0.02-0.18-0.05-0.22-0.11c-0.04-0.05-0.06-0.12-0.06-0.22
		L59.74,158.75"/>
	<path id="path612" class="st0" d="M66.42,157.14c0-0.73,0.26-1.31,0.78-1.74c0.52-0.44,1.11-0.65,1.75-0.65h1.28
		c0.11,0,0.19,0.03,0.24,0.09c0.05,0.07,0.08,0.14,0.08,0.23v4.02c0,0.09-0.03,0.17-0.08,0.23c-0.05,0.07-0.14,0.09-0.24,0.09h-0.42
		c-0.11,0-0.19-0.03-0.24-0.09c-0.06-0.06-0.08-0.14-0.08-0.23v-0.49l-0.34,0.31c-0.18,0.16-0.37,0.29-0.59,0.41
		c-0.22,0.11-0.48,0.17-0.78,0.17c-0.38,0-0.7-0.13-0.96-0.38c-0.27-0.25-0.4-0.66-0.4-1.23V157.14z M67.49,157.78
		c0,0.32,0.06,0.54,0.19,0.65c0.13,0.11,0.28,0.16,0.45,0.16c0.21,0,0.42-0.08,0.63-0.23c0.21-0.16,0.38-0.29,0.5-0.4l0.23-0.23
		v-2.11h-0.48c-0.44,0-0.8,0.14-1.09,0.41s-0.44,0.64-0.44,1.11V157.78"/>
	<path id="path614" class="st0" d="M71.66,156.68c0-0.66,0.22-1.16,0.65-1.5c0.43-0.34,0.96-0.51,1.57-0.51
		c0.5,0,0.92,0.11,1.27,0.32c0.35,0.22,0.53,0.57,0.53,1.07c0,0.44-0.14,0.78-0.41,1c-0.27,0.23-0.65,0.34-1.12,0.34h-1.42v0.2
		c0,0.35,0.11,0.6,0.33,0.76c0.22,0.15,0.49,0.23,0.79,0.23c0.23,0,0.45-0.02,0.64-0.06c0.19-0.04,0.36-0.08,0.51-0.12l0.07-0.01
		l0.05-0.01l0.14,0.06c0.04,0.04,0.06,0.1,0.06,0.17v0.26c0,0.1-0.02,0.19-0.05,0.25c-0.03,0.07-0.1,0.11-0.19,0.13
		c-0.14,0.04-0.33,0.08-0.56,0.13c-0.23,0.05-0.46,0.07-0.7,0.07c-0.61,0-1.12-0.15-1.53-0.44c-0.42-0.29-0.62-0.78-0.62-1.45
		V156.68z M72.73,156.75h1.15c0.29,0,0.49-0.05,0.6-0.16c0.11-0.1,0.17-0.25,0.17-0.46c0-0.22-0.08-0.37-0.23-0.45
		c-0.15-0.09-0.34-0.13-0.57-0.13c-0.35,0-0.62,0.09-0.82,0.28c-0.2,0.18-0.3,0.47-0.3,0.86V156.75z M73.28,154.07l-0.13-0.04
		l-0.04-0.08l0.01-0.05l0.04-0.07l0.59-0.84c0.05-0.07,0.1-0.14,0.16-0.19c0.06-0.05,0.14-0.08,0.25-0.08h0.54
		c0.09,0,0.15,0.01,0.18,0.04l0.05,0.1l-0.03,0.09l-0.07,0.09l-0.82,0.78c-0.08,0.07-0.15,0.12-0.22,0.17
		c-0.07,0.04-0.14,0.07-0.22,0.07L73.28,154.07"/>
	<path id="path616" class="st0" d="M76.71,155.06c0-0.09,0.03-0.17,0.08-0.23c0.05-0.06,0.13-0.09,0.24-0.09h0.42
		c0.11,0,0.19,0.03,0.24,0.09c0.06,0.07,0.08,0.14,0.08,0.23v0.56l0.08-0.1c0.16-0.23,0.34-0.43,0.56-0.58
		c0.21-0.15,0.46-0.23,0.73-0.23h0.04c0.11,0,0.19,0.03,0.24,0.09c0.05,0.06,0.08,0.14,0.08,0.23v0.34c0,0.1-0.03,0.18-0.08,0.24
		c-0.05,0.06-0.14,0.09-0.24,0.09H79.1c-0.17,0-0.33,0.03-0.49,0.08c-0.16,0.05-0.3,0.13-0.42,0.23c-0.01,0-0.07,0.06-0.2,0.19
		c-0.13,0.13-0.2,0.19-0.21,0.2v2.68c0,0.09-0.02,0.17-0.08,0.23c-0.05,0.07-0.13,0.09-0.24,0.09h-0.42c-0.11,0-0.19-0.03-0.24-0.09
		c-0.05-0.06-0.08-0.14-0.08-0.23V155.06"/>
	<path id="path618" class="st0" d="M79.94,156.68c0-0.66,0.22-1.16,0.65-1.5c0.43-0.34,0.96-0.51,1.57-0.51
		c0.49,0,0.92,0.11,1.27,0.32c0.35,0.22,0.52,0.57,0.52,1.07c0,0.44-0.13,0.78-0.41,1c-0.27,0.23-0.64,0.34-1.12,0.34h-1.42v0.2
		c0,0.35,0.11,0.6,0.33,0.76c0.22,0.15,0.49,0.23,0.79,0.23c0.23,0,0.45-0.02,0.64-0.06c0.19-0.04,0.36-0.08,0.51-0.12l0.07-0.01
		l0.06-0.01l0.14,0.06c0.04,0.04,0.06,0.1,0.06,0.17v0.26c0,0.1-0.02,0.19-0.05,0.25c-0.04,0.07-0.1,0.11-0.19,0.13
		c-0.14,0.04-0.33,0.08-0.56,0.13c-0.23,0.05-0.47,0.07-0.7,0.07c-0.61,0-1.12-0.15-1.54-0.44c-0.41-0.29-0.62-0.78-0.62-1.45
		L79.94,156.68z M81.01,156.75h1.14c0.29,0,0.49-0.05,0.6-0.16c0.11-0.1,0.17-0.25,0.17-0.46c0-0.22-0.07-0.37-0.23-0.45
		c-0.15-0.09-0.34-0.13-0.57-0.13c-0.35,0-0.62,0.09-0.82,0.28c-0.2,0.18-0.3,0.47-0.3,0.86V156.75"/>
	<path id="path620" class="st0" d="M84.72,157.14c0-0.73,0.26-1.31,0.78-1.74c0.52-0.44,1.1-0.65,1.76-0.65h1.28
		c0.11,0,0.19,0.03,0.24,0.09c0.05,0.07,0.08,0.14,0.08,0.23v4.02c0,0.09-0.03,0.17-0.08,0.23c-0.05,0.07-0.14,0.09-0.24,0.09h-0.42
		c-0.11,0-0.19-0.03-0.25-0.09c-0.05-0.06-0.08-0.14-0.08-0.23v-0.49l-0.34,0.31c-0.18,0.16-0.37,0.29-0.59,0.41
		c-0.22,0.11-0.48,0.17-0.78,0.17c-0.38,0-0.7-0.13-0.96-0.38c-0.27-0.25-0.4-0.66-0.4-1.23V157.14z M85.79,157.78
		c0,0.32,0.06,0.54,0.19,0.65c0.12,0.11,0.28,0.16,0.45,0.16c0.21,0,0.42-0.08,0.63-0.23s0.38-0.29,0.5-0.4l0.23-0.23v-2.11h-0.48
		c-0.44,0-0.8,0.14-1.09,0.41s-0.44,0.64-0.44,1.11L85.79,157.78"/>
	<path id="path622" class="st0" d="M90.04,158.75c0-0.09,0.02-0.16,0.07-0.2c0.04-0.04,0.11-0.06,0.18-0.06h0.04l0.05,0.01
		c0.21,0.03,0.4,0.06,0.57,0.08c0.17,0.01,0.36,0.02,0.56,0.02c0.28,0,0.52-0.04,0.73-0.12c0.21-0.08,0.31-0.23,0.31-0.45
		c0-0.16-0.07-0.28-0.21-0.36c-0.14-0.08-0.3-0.14-0.46-0.18l-0.71-0.16c-0.34-0.09-0.62-0.23-0.83-0.42
		c-0.21-0.2-0.32-0.48-0.32-0.86c0-0.47,0.2-0.81,0.59-1.04c0.39-0.23,0.87-0.34,1.43-0.34c0.23,0,0.42,0.01,0.57,0.02
		c0.15,0.02,0.33,0.04,0.52,0.08c0.09,0.01,0.16,0.04,0.2,0.09c0.04,0.05,0.06,0.12,0.06,0.21v0.3c0,0.09-0.02,0.15-0.07,0.2
		c-0.04,0.04-0.1,0.07-0.17,0.07l-0.09-0.01l-0.13-0.02c-0.12-0.02-0.25-0.03-0.41-0.05s-0.31-0.02-0.47-0.02
		c-0.27,0-0.5,0.04-0.68,0.11c-0.18,0.08-0.27,0.21-0.27,0.41c0,0.16,0.06,0.27,0.18,0.32c0.12,0.06,0.25,0.1,0.4,0.14l0.62,0.15
		c0.36,0.09,0.67,0.22,0.93,0.41c0.27,0.19,0.4,0.51,0.4,0.96c0,0.56-0.22,0.94-0.66,1.14c-0.44,0.2-0.93,0.3-1.46,0.3
		c-0.23,0-0.44-0.01-0.62-0.03c-0.18-0.02-0.38-0.04-0.58-0.07c-0.11-0.02-0.18-0.05-0.22-0.11c-0.04-0.05-0.06-0.12-0.06-0.22
		L90.04,158.75"/>
	<path id="path624" class="st0" d="M97.12,155.61H96.7c-0.12,0-0.2-0.03-0.25-0.09c-0.05-0.06-0.08-0.14-0.08-0.24v-0.21
		c0-0.09,0.03-0.17,0.08-0.23c0.05-0.06,0.13-0.09,0.25-0.09h1.16c0.11,0,0.19,0.03,0.24,0.09c0.05,0.07,0.08,0.14,0.08,0.23v4.02
		c0,0.09-0.03,0.17-0.08,0.23c-0.05,0.07-0.14,0.09-0.24,0.09h-0.42c-0.11,0-0.2-0.03-0.25-0.09c-0.05-0.06-0.08-0.14-0.08-0.23
		V155.61z M97.44,153.96c-0.11,0-0.2-0.03-0.25-0.09c-0.05-0.06-0.08-0.14-0.08-0.23v-0.31c0-0.09,0.03-0.17,0.08-0.23
		c0.05-0.06,0.13-0.09,0.25-0.09h0.42c0.11,0,0.19,0.03,0.24,0.09c0.05,0.06,0.08,0.14,0.08,0.23v0.31c0,0.09-0.03,0.17-0.08,0.23
		c-0.05,0.06-0.14,0.09-0.24,0.09H97.44"/>
	<path id="path626" class="st0" d="M99.59,155.06c0-0.09,0.03-0.17,0.08-0.23c0.05-0.06,0.14-0.09,0.24-0.09h0.42
		c0.11,0,0.19,0.03,0.24,0.09c0.05,0.07,0.08,0.14,0.08,0.23v0.53l0.3-0.31c0.17-0.17,0.35-0.32,0.57-0.44
		c0.21-0.12,0.47-0.18,0.79-0.18c0.39,0,0.71,0.11,0.96,0.33c0.25,0.22,0.38,0.61,0.38,1.18v2.91c0,0.09-0.03,0.17-0.08,0.23
		c-0.05,0.07-0.13,0.09-0.25,0.09h-0.42c-0.11,0-0.2-0.03-0.25-0.09c-0.05-0.06-0.07-0.14-0.07-0.23v-2.71
		c0-0.32-0.07-0.54-0.19-0.65c-0.13-0.11-0.28-0.17-0.45-0.17c-0.2,0-0.39,0.08-0.58,0.23c-0.19,0.15-0.34,0.29-0.47,0.41
		l-0.24,0.24v2.65c0,0.09-0.03,0.17-0.08,0.23c-0.05,0.07-0.14,0.09-0.24,0.09h-0.42c-0.11,0-0.19-0.03-0.24-0.09
		c-0.05-0.06-0.08-0.14-0.08-0.23L99.59,155.06"/>
	<path id="path628" class="st0" d="M105.1,155.61h-0.35c-0.11,0-0.2-0.03-0.25-0.09c-0.05-0.06-0.08-0.14-0.08-0.24v-0.21
		c0-0.09,0.03-0.17,0.08-0.23c0.05-0.06,0.13-0.09,0.25-0.09h0.35v-0.79c0-0.09,0.03-0.17,0.08-0.23c0.05-0.06,0.13-0.09,0.24-0.09
		h0.42c0.11,0,0.19,0.03,0.25,0.09c0.05,0.06,0.08,0.14,0.08,0.23v0.79h0.93c0.11,0,0.2,0.03,0.25,0.09
		c0.05,0.07,0.07,0.14,0.07,0.23v0.21c0,0.1-0.02,0.18-0.07,0.24c-0.05,0.06-0.14,0.09-0.25,0.09h-0.93v1.95
		c0,0.38,0.07,0.65,0.2,0.78c0.14,0.14,0.37,0.2,0.71,0.2h0.15c0.11,0,0.19,0.03,0.24,0.09c0.06,0.06,0.08,0.15,0.08,0.25v0.21
		c0,0.09-0.03,0.17-0.08,0.23c-0.05,0.07-0.13,0.09-0.24,0.09h-0.45c-0.53,0-0.94-0.13-1.23-0.4c-0.3-0.27-0.44-0.69-0.44-1.26
		V155.61"/>
	<path id="path630" class="st0" d="M108.22,156.68c0-0.66,0.22-1.16,0.65-1.5c0.44-0.34,0.96-0.51,1.57-0.51
		c0.49,0,0.92,0.11,1.27,0.32c0.35,0.22,0.52,0.57,0.52,1.07c0,0.44-0.14,0.78-0.41,1s-0.65,0.34-1.12,0.34h-1.42v0.2
		c0,0.35,0.11,0.6,0.33,0.76c0.22,0.15,0.49,0.23,0.79,0.23c0.23,0,0.45-0.02,0.64-0.06c0.19-0.04,0.36-0.08,0.51-0.12l0.07-0.01
		l0.05-0.01l0.14,0.06c0.04,0.04,0.06,0.1,0.06,0.17v0.26c0,0.1-0.02,0.19-0.05,0.25c-0.04,0.07-0.1,0.11-0.19,0.13
		c-0.14,0.04-0.33,0.08-0.56,0.13c-0.23,0.05-0.46,0.07-0.7,0.07c-0.61,0-1.12-0.15-1.54-0.44c-0.42-0.29-0.62-0.78-0.62-1.45
		L108.22,156.68z M109.29,156.75h1.15c0.29,0,0.49-0.05,0.6-0.16c0.11-0.1,0.17-0.25,0.17-0.46c0-0.22-0.07-0.37-0.23-0.45
		c-0.15-0.09-0.34-0.13-0.57-0.13c-0.35,0-0.62,0.09-0.82,0.28c-0.2,0.18-0.3,0.47-0.3,0.86L109.29,156.75"/>
	<path id="path632" class="st0" d="M113.31,153.88h-0.42c-0.11,0-0.19-0.03-0.24-0.09c-0.06-0.06-0.08-0.14-0.08-0.24v-0.21
		c0-0.09,0.03-0.17,0.08-0.23c0.05-0.06,0.13-0.09,0.24-0.09h1.16c0.11,0,0.19,0.03,0.24,0.09c0.05,0.06,0.08,0.14,0.08,0.23v5.75
		c0,0.09-0.03,0.17-0.08,0.23c-0.05,0.07-0.14,0.09-0.24,0.09h-0.42c-0.11,0-0.19-0.03-0.24-0.09c-0.06-0.06-0.08-0.14-0.08-0.23
		V153.88"/>
	<path id="path634" class="st0" d="M115.91,155.61h-0.42c-0.12,0-0.2-0.03-0.25-0.09c-0.05-0.06-0.08-0.14-0.08-0.24v-0.21
		c0-0.09,0.03-0.17,0.08-0.23c0.05-0.06,0.13-0.09,0.25-0.09h1.16c0.11,0,0.19,0.03,0.24,0.09c0.05,0.07,0.08,0.14,0.08,0.23v4.02
		c0,0.09-0.03,0.17-0.08,0.23c-0.05,0.07-0.14,0.09-0.24,0.09h-0.42c-0.12,0-0.2-0.03-0.25-0.09c-0.05-0.06-0.08-0.14-0.08-0.23
		L115.91,155.61z M116.24,153.96c-0.12,0-0.2-0.03-0.25-0.09c-0.05-0.06-0.08-0.14-0.08-0.23v-0.31c0-0.09,0.03-0.17,0.08-0.23
		c0.05-0.06,0.13-0.09,0.25-0.09h0.42c0.11,0,0.19,0.03,0.24,0.09c0.05,0.06,0.08,0.14,0.08,0.23v0.31c0,0.09-0.03,0.17-0.08,0.23
		c-0.05,0.06-0.14,0.09-0.24,0.09H116.24"/>
	<path id="path636" class="st0" d="M119.5,160.14c0.59,0,1.02-0.09,1.29-0.27c0.28-0.18,0.41-0.53,0.41-1.05v-0.15l-0.18,0.1
		c-0.19,0.1-0.39,0.19-0.61,0.26c-0.22,0.07-0.48,0.11-0.79,0.11c-0.44,0-0.8-0.14-1.09-0.43c-0.29-0.28-0.43-0.71-0.43-1.27v-0.37
		c0-0.75,0.23-1.33,0.69-1.73c0.46-0.4,1.02-0.6,1.67-0.6h1.47c0.11,0,0.2,0.03,0.25,0.09c0.06,0.07,0.08,0.14,0.08,0.23v3.73
		c0,0.77-0.23,1.33-0.67,1.69c-0.45,0.36-1.06,0.53-1.83,0.53h-0.86c-0.11,0-0.2-0.03-0.25-0.09c-0.05-0.06-0.08-0.14-0.08-0.24
		v-0.21c0-0.09,0.03-0.17,0.08-0.24c0.06-0.07,0.14-0.09,0.25-0.09H119.5z M120.61,155.61c-0.44,0-0.79,0.13-1.05,0.39
		c-0.25,0.26-0.38,0.62-0.38,1.1v0.28c0,0.31,0.07,0.53,0.2,0.67c0.13,0.14,0.32,0.21,0.55,0.21c0.21,0,0.41-0.03,0.59-0.09
		c0.18-0.06,0.36-0.12,0.52-0.2l0.17-0.08v-2.29H120.61"/>
	<path id="path638" class="st0" d="M123.38,156.68c0-0.66,0.22-1.16,0.65-1.5c0.43-0.34,0.95-0.51,1.57-0.51
		c0.49,0,0.92,0.11,1.27,0.32c0.35,0.22,0.52,0.57,0.52,1.07c0,0.44-0.13,0.78-0.41,1c-0.27,0.23-0.64,0.34-1.12,0.34h-1.42v0.2
		c0,0.35,0.11,0.6,0.33,0.76c0.22,0.15,0.49,0.23,0.79,0.23c0.23,0,0.45-0.02,0.64-0.06c0.19-0.04,0.36-0.08,0.51-0.12l0.07-0.01
		l0.06-0.01l0.14,0.06c0.04,0.04,0.06,0.1,0.06,0.17v0.26c0,0.1-0.02,0.19-0.05,0.25c-0.04,0.07-0.1,0.11-0.19,0.13
		c-0.14,0.04-0.33,0.08-0.56,0.13c-0.23,0.05-0.47,0.07-0.7,0.07c-0.61,0-1.12-0.15-1.54-0.44c-0.41-0.29-0.62-0.78-0.62-1.45
		L123.38,156.68z M124.45,156.75h1.14c0.29,0,0.49-0.05,0.6-0.16c0.11-0.1,0.17-0.25,0.17-0.46c0-0.22-0.07-0.37-0.23-0.45
		c-0.15-0.09-0.34-0.13-0.57-0.13c-0.35,0-0.62,0.09-0.82,0.28c-0.2,0.18-0.3,0.47-0.3,0.86V156.75"/>
	<path id="path640" class="st0" d="M128.42,155.06c0-0.09,0.03-0.17,0.08-0.23c0.05-0.06,0.14-0.09,0.25-0.09h0.42
		c0.11,0,0.19,0.03,0.24,0.09c0.05,0.07,0.08,0.14,0.08,0.23v0.53l0.3-0.31c0.17-0.17,0.35-0.32,0.57-0.44
		c0.21-0.12,0.48-0.18,0.79-0.18c0.39,0,0.71,0.11,0.96,0.33c0.25,0.22,0.38,0.61,0.38,1.18v2.91c0,0.09-0.03,0.17-0.08,0.23
		c-0.05,0.07-0.13,0.09-0.25,0.09h-0.42c-0.12,0-0.2-0.03-0.25-0.09c-0.05-0.06-0.08-0.14-0.08-0.23v-2.71
		c0-0.32-0.07-0.54-0.19-0.65c-0.13-0.11-0.28-0.17-0.45-0.17c-0.2,0-0.39,0.08-0.58,0.23c-0.19,0.15-0.34,0.29-0.47,0.41
		l-0.24,0.24v2.65c0,0.09-0.03,0.17-0.08,0.23c-0.05,0.07-0.14,0.09-0.24,0.09h-0.42c-0.11,0-0.19-0.03-0.25-0.09
		c-0.05-0.06-0.08-0.14-0.08-0.23V155.06"/>
	<path id="path642" class="st0" d="M133.94,155.61h-0.35c-0.11,0-0.2-0.03-0.25-0.09s-0.08-0.14-0.08-0.24v-0.21
		c0-0.09,0.03-0.17,0.08-0.23c0.05-0.06,0.13-0.09,0.25-0.09h0.35v-0.79c0-0.09,0.03-0.17,0.08-0.23c0.05-0.06,0.14-0.09,0.24-0.09
		h0.42c0.11,0,0.19,0.03,0.25,0.09c0.05,0.06,0.08,0.14,0.08,0.23v0.79h0.93c0.11,0,0.2,0.03,0.25,0.09
		c0.05,0.07,0.08,0.14,0.08,0.23v0.21c0,0.1-0.03,0.18-0.08,0.24c-0.05,0.06-0.14,0.09-0.25,0.09H135v1.95
		c0,0.38,0.07,0.65,0.2,0.78c0.14,0.14,0.37,0.2,0.71,0.2h0.15c0.11,0,0.19,0.03,0.24,0.09c0.05,0.06,0.08,0.15,0.08,0.25v0.21
		c0,0.09-0.03,0.17-0.08,0.23c-0.05,0.07-0.14,0.09-0.24,0.09h-0.45c-0.53,0-0.94-0.13-1.23-0.4c-0.3-0.27-0.44-0.69-0.44-1.26
		V155.61"/>
	<path id="path644" class="st0" d="M137.06,156.68c0-0.66,0.22-1.16,0.65-1.5c0.43-0.34,0.95-0.51,1.57-0.51
		c0.49,0,0.92,0.11,1.27,0.32c0.35,0.22,0.52,0.57,0.52,1.07c0,0.44-0.14,0.78-0.41,1s-0.65,0.34-1.12,0.34h-1.42v0.2
		c0,0.35,0.11,0.6,0.33,0.76c0.22,0.15,0.49,0.23,0.79,0.23c0.23,0,0.45-0.02,0.64-0.06c0.19-0.04,0.36-0.08,0.51-0.12l0.07-0.01
		l0.05-0.01l0.14,0.06c0.04,0.04,0.06,0.1,0.06,0.17v0.26c0,0.1-0.02,0.19-0.05,0.25c-0.03,0.07-0.09,0.11-0.19,0.13
		c-0.14,0.04-0.33,0.08-0.56,0.13c-0.23,0.05-0.46,0.07-0.7,0.07c-0.61,0-1.12-0.15-1.54-0.44c-0.42-0.29-0.62-0.78-0.62-1.45
		L137.06,156.68z M138.12,156.75h1.15c0.29,0,0.49-0.05,0.6-0.16c0.11-0.1,0.17-0.25,0.17-0.46c0-0.22-0.07-0.37-0.23-0.45
		c-0.15-0.09-0.34-0.13-0.57-0.13c-0.35,0-0.62,0.09-0.82,0.28c-0.2,0.18-0.3,0.47-0.3,0.86V156.75"/>
	<path id="path646" class="st0" d="M141.92,158.75c0-0.09,0.02-0.16,0.07-0.2c0.04-0.04,0.11-0.06,0.18-0.06h0.04l0.05,0.01
		c0.21,0.03,0.4,0.06,0.57,0.08c0.17,0.01,0.36,0.02,0.57,0.02c0.28,0,0.52-0.04,0.73-0.12c0.2-0.08,0.31-0.23,0.31-0.45
		c0-0.16-0.07-0.28-0.22-0.36c-0.14-0.08-0.29-0.14-0.46-0.18l-0.71-0.16c-0.34-0.09-0.62-0.23-0.83-0.42
		c-0.21-0.2-0.32-0.48-0.32-0.86c0-0.47,0.2-0.81,0.59-1.04c0.39-0.23,0.87-0.34,1.43-0.34c0.23,0,0.42,0.01,0.57,0.02
		c0.15,0.02,0.33,0.04,0.52,0.08c0.09,0.01,0.16,0.04,0.2,0.09c0.04,0.05,0.06,0.12,0.06,0.21v0.3c0,0.09-0.02,0.15-0.07,0.2
		c-0.04,0.04-0.1,0.07-0.17,0.07l-0.09-0.01l-0.13-0.02c-0.12-0.02-0.25-0.03-0.41-0.05s-0.31-0.02-0.47-0.02
		c-0.27,0-0.5,0.04-0.68,0.11c-0.18,0.08-0.27,0.21-0.27,0.41c0,0.16,0.06,0.27,0.18,0.32c0.12,0.06,0.25,0.1,0.4,0.14l0.62,0.15
		c0.36,0.09,0.67,0.22,0.94,0.41c0.26,0.19,0.39,0.51,0.39,0.96c0,0.56-0.22,0.94-0.66,1.14c-0.44,0.2-0.93,0.3-1.45,0.3
		c-0.23,0-0.44-0.01-0.62-0.03c-0.18-0.02-0.37-0.04-0.58-0.07c-0.11-0.02-0.18-0.05-0.22-0.11c-0.04-0.05-0.06-0.12-0.06-0.22
		L141.92,158.75"/>
	<path id="path648" class="st0" d="M92.08,146.76c13.19,0,23.87-10.69,23.87-23.87c0-13.19-10.69-23.88-23.87-23.88
		c-11.23,0-20.65,7.76-23.2,18.21c-0.12,0.52-0.59,0.88-1.12,0.88H57.29c-0.64,0-1.15,0.52-1.15,1.15v7.23
		c0,0.63,0.51,1.15,1.15,1.15h7.26c0.63,0,1.15,0.51,1.15,1.15v4.35c0,0.34-0.15,0.67-0.42,0.89c-2.48,2.03-5.64,3.25-9.09,3.25
		c-7.94,0-14.37-6.43-14.37-14.37s6.43-14.37,14.37-14.37c2.25,0,4.38,0.52,6.28,1.44c0.54,0.26,1.18,0.07,1.49-0.45l3.69-6.21
		c0.16-0.27,0.2-0.6,0.12-0.9c-0.09-0.31-0.3-0.56-0.58-0.7c-3.29-1.71-7.03-2.68-11-2.68c-13.19,0-23.88,10.69-23.88,23.88
		c0,13.18,10.69,23.87,23.88,23.87c6.72,0,12.78-2.77,17.12-7.23c0.22-0.22,0.51-0.35,0.82-0.35s0.61,0.13,0.82,0.35
		C79.3,143.99,85.36,146.76,92.08,146.76 M92.08,137.26c-7.94,0-14.37-6.43-14.37-14.37s6.43-14.37,14.37-14.37
		s14.37,6.43,14.37,14.37S100.01,137.26,92.08,137.26"/>
	<path id="path650" class="st1" d="M131.5,118.29c-2.14-10.99-11.82-19.28-23.43-19.28c-2.81,0-5.5,0.49-8,1.37
		c4.6,1.64,8.55,4.64,11.36,8.53c6.31,1.52,11.01,7.19,11.01,13.97c0,7.94-6.43,14.37-14.37,14.37s-14.37-6.43-14.37-14.37
		c0-4.97,2.53-9.36,6.37-11.94c-2.28-1.53-5.03-2.43-7.99-2.43c-1.16,0-2.29,0.14-3.37,0.4c-2.84,3.93-4.52,8.76-4.52,13.97
		c0,13.18,10.69,23.87,23.88,23.87c11.61,0,21.29-8.29,23.43-19.28V118.29"/>
	<path id="path652" class="st0" d="M133.08,136.66c-0.63,0-1.15-0.51-1.15-1.15v-34.6c0-0.63-0.52-1.15-1.15-1.15h-7.21
		c-0.64,0-1.15,0.52-1.15,1.15v44.11c0,0.63,0.51,1.15,1.15,1.15h24.15c0.63,0,1.15-0.52,1.15-1.15v-7.21
		c0-0.63-0.51-1.15-1.15-1.15H133.08"/>
</g>
</svg>
