<?xml version="1.0" encoding="utf-8"?>
<!-- Generator: Adobe Illustrator 25.4.1, SVG Export Plug-In . SVG Version: 6.00 Build 0)  -->
<svg version="1.1" xmlns="http://www.w3.org/2000/svg" xmlns:xlink="http://www.w3.org/1999/xlink" x="0px" y="0px"
	 viewBox="0 0 159.47 80" style="enable-background:new 0 0 159.47 80;" xml:space="preserve">
<style type="text/css">
	.st0{fill-rule:evenodd;clip-rule:evenodd;fill:#F48120;}
	.st1{fill-rule:evenodd;clip-rule:evenodd;fill:#FBCE20;}
</style>
<g id="Layer_2">
</g>
<g id="Layer_1">
	<g>
		<path id="Fill-1" class="st0" d="M158.56,77.78l-35.84-5.53l32.79-16.59c0.47-0.24,0.7-0.79,0.54-1.29
			c-0.16-0.5-0.67-0.82-1.19-0.73l-36.41,5.67l26.15-25.88c0.38-0.38,0.42-0.97,0.11-1.4c-0.31-0.44-0.9-0.57-1.37-0.33
			l-32.64,16.74l16.45-32.5c0.23-0.47,0.1-1.05-0.34-1.36c-0.43-0.31-1.03-0.26-1.39,0.12L99.61,40.82l6.07-36.35
			c0.09-0.53-0.23-1.04-0.73-1.21c-0.5-0.16-1.06,0.06-1.3,0.53l-16.89,33L81.2,0.91C81.11,0.39,80.66,0,80.13,0
			c-0.53,0-0.99,0.39-1.07,0.91l-5.63,35.87L56.71,3.65c-0.24-0.48-0.79-0.7-1.3-0.54c-0.5,0.16-0.81,0.67-0.73,1.2l6.04,36.82
			L34.56,14.37c-0.37-0.38-0.96-0.43-1.4-0.12c-0.44,0.31-0.57,0.89-0.33,1.37l17.02,33.22L16.52,31.6
			c-0.47-0.25-1.06-0.11-1.37,0.33c-0.31,0.43-0.26,1.03,0.12,1.4l26.78,26.14L4.99,53.45c-0.53-0.09-1.03,0.22-1.2,0.73
			c-0.16,0.51,0.06,1.06,0.54,1.3l33.3,16.71l-36.72,5.6C0.35,77.87-0.04,78.37,0,78.92c0.04,0.56,0.51,1,1.07,1H158.4
			c0.56,0,1.03-0.43,1.07-1C159.51,78.37,159.12,77.87,158.56,77.78"/>
		<path id="Fill-2" class="st1" d="M114.58,80c0.02-0.43-0.18-0.69-0.47-0.73L98.77,76.9l14.03-7.09c0.24-0.13,0.36-0.41,0.28-0.67
			c-0.09-0.26-0.35-0.43-0.62-0.39l-15.58,2.43l11.2-11.09c0.19-0.19,0.22-0.51,0.06-0.73c-0.16-0.23-0.46-0.3-0.71-0.17
			l-13.98,7.17l7.04-13.91c0.13-0.25,0.05-0.54-0.18-0.71c-0.22-0.16-0.53-0.14-0.72,0.06L88.53,62.97l2.6-15.56
			c0.04-0.27-0.12-0.54-0.38-0.62c-0.26-0.09-0.55,0.03-0.68,0.28L82.85,61.2l-2.39-15.36c-0.05-0.27-0.28-0.47-0.56-0.47
			c-0.27,0-0.51,0.2-0.55,0.47l-2.41,15.35l-7.16-14.19c-0.13-0.25-0.42-0.37-0.68-0.28c-0.26,0.09-0.42,0.35-0.38,0.63l2.59,15.76
			L60.11,51.65c-0.19-0.19-0.51-0.23-0.73-0.06c-0.23,0.16-0.3,0.46-0.17,0.7l7.29,14.23l-14.27-7.38
			c-0.25-0.13-0.55-0.06-0.72,0.17c-0.16,0.23-0.13,0.53,0.06,0.73l11.47,11.19l-15.86-2.57c-0.27-0.04-0.54,0.11-0.62,0.38
			c-0.08,0.27,0.03,0.55,0.28,0.68l14.25,7.15l-15.71,2.4c-0.29,0.04-0.51,0.31-0.48,0.73H114.58"/>
	</g>
</g>
</svg>
