<?xml version="1.0" encoding="utf-8"?>
<!-- Generator: Adobe Illustrator 25.4.1, SVG Export Plug-In . SVG Version: 6.00 Build 0)  -->
<svg version="1.1" xmlns="http://www.w3.org/2000/svg" xmlns:xlink="http://www.w3.org/1999/xlink" x="0px" y="0px"
	 viewBox="0 0 209.76 80" style="enable-background:new 0 0 209.76 80;" xml:space="preserve">
<style type="text/css">
	.st0{fill-rule:evenodd;clip-rule:evenodd;fill:#F48120;}
	.st1{fill-rule:evenodd;clip-rule:evenodd;fill:#FBCE20;}
	.st2{fill-rule:evenodd;clip-rule:evenodd;fill:#01579B;}
</style>
<g id="Layer_2">
</g>
<g id="Layer_1">
	<g>
		<path id="Fill-1" class="st0" d="M159.93,34.99l-16.12-2.49l14.75-7.46c0.21-0.11,0.32-0.36,0.24-0.58
			c-0.07-0.23-0.3-0.37-0.54-0.33l-16.38,2.55l11.76-11.64c0.17-0.17,0.19-0.44,0.05-0.63c-0.14-0.2-0.4-0.26-0.62-0.15l-14.68,7.53
			l7.4-14.62c0.11-0.21,0.04-0.47-0.15-0.61c-0.19-0.14-0.46-0.12-0.63,0.05l-11.62,11.75l2.73-16.35c0.04-0.24-0.1-0.47-0.33-0.54
			c-0.23-0.07-0.48,0.03-0.59,0.24l-7.6,14.85l-2.5-16.14C125.09,0.18,124.89,0,124.65,0c-0.24,0-0.44,0.18-0.48,0.41l-2.53,16.13
			l-7.52-14.9c-0.11-0.21-0.36-0.32-0.58-0.24c-0.23,0.07-0.36,0.3-0.33,0.54l2.71,16.56L104.15,6.46
			c-0.17-0.17-0.43-0.19-0.63-0.06c-0.2,0.14-0.26,0.4-0.15,0.62l7.66,14.94l-15-7.75c-0.21-0.11-0.47-0.05-0.62,0.15
			c-0.14,0.19-0.12,0.46,0.05,0.63l12.05,11.76l-16.67-2.71c-0.24-0.04-0.46,0.1-0.54,0.33c-0.07,0.23,0.03,0.48,0.24,0.58
			l14.98,7.51l-16.52,2.52c-0.25,0.04-0.43,0.26-0.41,0.51c0.02,0.25,0.23,0.45,0.48,0.45h70.77c0.25,0,0.46-0.19,0.48-0.45
			C160.36,35.25,160.18,35.03,159.93,34.99"/>
		<path id="Fill-2" class="st1" d="M140.15,35.99c0.01-0.19-0.08-0.31-0.21-0.33l-6.9-1.06l6.31-3.19c0.11-0.06,0.16-0.19,0.13-0.3
			c-0.04-0.12-0.16-0.19-0.28-0.17l-7.01,1.09l5.04-4.99c0.09-0.09,0.1-0.23,0.03-0.33c-0.07-0.1-0.21-0.13-0.32-0.08l-6.29,3.22
			l3.17-6.26c0.06-0.11,0.02-0.25-0.08-0.32c-0.1-0.07-0.24-0.06-0.33,0.03l-4.97,5.03l1.17-7c0.02-0.12-0.05-0.24-0.17-0.28
			c-0.12-0.04-0.25,0.01-0.3,0.13l-3.25,6.36l-1.07-6.91c-0.02-0.12-0.13-0.21-0.25-0.21c-0.12,0-0.23,0.09-0.25,0.21l-1.08,6.91
			L120,21.15c-0.06-0.11-0.19-0.16-0.31-0.13c-0.12,0.04-0.19,0.16-0.17,0.28l1.16,7.09l-5.03-5.16c-0.09-0.09-0.23-0.1-0.33-0.03
			c-0.1,0.07-0.14,0.21-0.08,0.32l3.28,6.4l-6.42-3.32c-0.11-0.06-0.25-0.03-0.32,0.08c-0.07,0.1-0.06,0.24,0.03,0.33l5.16,5.03
			l-7.13-1.16c-0.12-0.02-0.24,0.05-0.28,0.17c-0.04,0.12,0.02,0.25,0.13,0.31l6.41,3.21l-7.07,1.08c-0.13,0.02-0.23,0.14-0.21,0.33
			H140.15"/>
		<path id="Fill-3" class="st2" d="M16.46,57.71c0,0.47-0.06,0.94-0.16,1.35c-0.48,1.5-2.12,2.79-3.98,2.79
			c-1.75-0.05-2.87-0.83-2.9-2.78c0.02-1.45,0.71-2.31,2.03-2.96c1.22-0.58,2.98-0.85,5.01-0.89V57.71L16.46,57.71z M25.71,50.83
			c0-3.43-0.73-6.63-2.7-9c-1.97-2.38-5.16-3.83-9.85-3.82c-5.11,0-8.96,1.49-10.95,2.64c-0.19,0.11-0.28,0.34-0.22,0.55l1.58,5.66
			c0.04,0.14,0.15,0.26,0.29,0.32c0.14,0.06,0.3,0.04,0.43-0.04c1.71-1.05,4.66-2.03,7.36-2.02c3.91,0.06,4.43,1.74,4.52,3.07
			c-4.71,0.06-8.67,0.94-11.51,2.75C1.71,52.8-0.01,55.74,0,59.59c0.01,4.78,3.54,9.24,9.4,9.25h0.01c3.07,0,5.81-1.06,7.72-3.06
			l0.35,2.02c0.04,0.23,0.24,0.4,0.48,0.4h7.73c0.15,0,0.29-0.07,0.38-0.18c0.09-0.12,0.13-0.27,0.09-0.41
			c-0.33-1.5-0.44-4.11-0.44-6.79V50.83L25.71,50.83z M149.03,57.71c0,0.47-0.06,0.94-0.16,1.35c-0.48,1.5-2.12,2.79-3.98,2.79
			c-1.75-0.05-2.87-0.83-2.9-2.78c0.02-1.45,0.71-2.31,2.03-2.96c1.23-0.58,2.99-0.85,5.01-0.89V57.71L149.03,57.71z M158.28,60.81
			v-9.99c0-3.43-0.73-6.63-2.7-9c-1.97-2.38-5.16-3.83-9.85-3.82c-5.11,0-8.96,1.49-10.95,2.64c-0.19,0.11-0.29,0.34-0.23,0.55
			l1.58,5.66c0.04,0.14,0.15,0.26,0.29,0.32c0.14,0.06,0.3,0.04,0.43-0.04c1.71-1.05,4.66-2.03,7.36-2.02
			c3.91,0.06,4.43,1.74,4.52,3.07c-4.71,0.06-8.67,0.94-11.51,2.75c-2.95,1.87-4.67,4.8-4.66,8.65c0.01,4.78,3.54,9.24,9.4,9.25
			h0.01c3.07,0,5.81-1.06,7.72-3.06l0.36,2.02c0.04,0.23,0.24,0.4,0.48,0.4h7.73c0.15,0,0.28-0.07,0.38-0.18
			c0.09-0.12,0.13-0.27,0.09-0.41C158.39,66.11,158.27,63.49,158.28,60.81L158.28,60.81z M209.89,39.85
			c-0.09-0.09-0.22-0.14-0.35-0.14h-5.65v-7c0-0.15-0.07-0.3-0.19-0.39c-0.12-0.09-0.28-0.12-0.42-0.08l-8.39,2.31
			c-0.21,0.06-0.36,0.25-0.36,0.47v4.7h-3.7c-0.13,0-0.25,0.05-0.35,0.14c-0.09,0.09-0.14,0.21-0.14,0.34v5.96
			c0,0.46,0.14,0.69,0.14,0.69c0.09,0.09,0.22,0.14,0.35,0.14h3.7v10.79c0,3.94,0.79,6.72,2.49,8.5c1.53,1.52,3.96,2.51,6.82,2.52
			c2.42,0,4.53-0.33,5.7-0.76c0.19-0.07,0.32-0.26,0.32-0.46l-0.06-6.48c0-0.15-0.07-0.29-0.19-0.38c-0.11-0.09-0.26-0.13-0.4-0.09
			c-0.76,0.16-1.26,0.21-2.42,0.22c-1.18-0.01-1.8-0.32-2.24-0.96c-0.44-0.65-0.66-1.78-0.66-3.4v-9.49h5.65
			c0.13,0,0.25-0.05,0.34-0.14c0.09-0.09,0.14-0.21,0.14-0.34v-6.31C210.03,40.07,209.98,39.94,209.89,39.85L209.89,39.85z
			 M106.03,55.46c0,0.71-0.07,1.57-0.25,2.17c-0.52,1.79-2.06,3.09-4.11,3.09c-3.19-0.01-5.06-2.84-5.09-6.84
			c0.03-4.88,2.33-7.35,5.15-7.35c2.13,0.02,3.55,1.32,4.15,3.43c0.09,0.45,0.15,0.97,0.15,1.44V55.46L106.03,55.46z M115.29,39.71
			h-7.43c-0.25,0-0.46,0.19-0.48,0.44l-0.17,2.13c-1.53-1.92-3.91-3.21-7.28-3.2c-3.54,0-6.81,1.47-9.17,4.09
			c-2.36,2.62-3.82,6.38-3.82,10.93c0,4.04,1.24,7.51,3.4,9.98c2.15,2.47,5.22,3.92,8.76,3.91c2.83,0.01,5.32-1.02,7.06-2.84v0.55
			c-0.05,4.91-2.78,6.72-6.67,6.78c-3.17,0-6.09-1.04-7.76-2.02c-0.13-0.07-0.29-0.09-0.43-0.03c-0.14,0.06-0.24,0.18-0.28,0.32
			l-1.69,6.53c-0.06,0.21,0.04,0.44,0.24,0.54c2.6,1.42,7.47,2.15,11.2,2.15c4.12,0,7.29-0.8,10.43-3.5
			c3.3-2.9,4.39-7.41,4.39-12.77V48.42c0-4.11,0.1-6.4,0.21-8.19c0.01-0.13-0.04-0.26-0.13-0.36
			C115.56,39.76,115.43,39.71,115.29,39.71L115.29,39.71z M188.8,46.37c-0.5-1.7-1.27-3.11-2.27-4.22
			c-1.86-2.07-4.48-3.07-7.41-3.07c-4.13,0-6.86,2.05-8.3,3.83l-0.28-2.77c-0.03-0.25-0.24-0.44-0.48-0.44h-7.44
			c-0.13,0-0.26,0.06-0.35,0.15c-0.09,0.09-0.14,0.23-0.13,0.36c0.12,2.47,0.23,5.34,0.23,8.76v18.76c0,0.13,0.06,0.25,0.14,0.34
			c0.09,0.09,0.22,0.14,0.34,0.14h8.56c0.13,0,0.25-0.05,0.34-0.14c0.09-0.09,0.14-0.22,0.14-0.34V51.85c0-0.77,0.07-1.52,0.24-1.96
			c0.59-1.47,1.84-2.91,3.94-2.91c2.76,0.02,3.8,2,3.86,5.49v15.27c0,0.13,0.05,0.25,0.14,0.34c0.09,0.09,0.21,0.14,0.34,0.14h8.57
			c0.13,0,0.25-0.05,0.34-0.14c0.09-0.09,0.14-0.22,0.14-0.34V51.46c0-1.7-0.19-3.23-0.53-4.59L188.8,46.37L188.8,46.37z
			 M128.69,38.66h-8.57c-0.13,0-0.25,0.05-0.34,0.14c-0.09,0.09-0.14,0.21-0.14,0.34v28.57c0,0.13,0.05,0.25,0.14,0.34
			c0.09,0.09,0.21,0.14,0.34,0.14h8.57c0.13,0,0.25-0.05,0.34-0.14c0.09-0.09,0.14-0.22,0.14-0.34V39.14c0-0.13-0.05-0.25-0.14-0.34
			C128.94,38.71,128.82,38.66,128.69,38.66L128.69,38.66z M38.97,27.2h-8.57c-0.13,0-0.25,0.05-0.34,0.14
			c-0.09,0.09-0.14,0.22-0.14,0.35v40.06c0,0.13,0.05,0.25,0.14,0.34c0.09,0.09,0.22,0.14,0.34,0.14h8.57
			c0.13,0,0.25-0.05,0.34-0.14c0.09-0.09,0.14-0.22,0.14-0.34V27.68c0-0.13-0.05-0.26-0.14-0.35C39.23,27.25,39.1,27.2,38.97,27.2
			L38.97,27.2z M65.55,50.36c0.38-2.08,1.76-4.62,4.8-4.6c3.23,0,4.13,2.62,4.28,4.6H65.55L65.55,50.36z M70.79,39.08
			c-4.89-0.01-8.53,2-10.9,4.91c-2.37,2.91-3.5,6.69-3.5,10.28c0,4.41,1.37,8.06,3.99,10.6c2.61,2.54,6.43,3.92,11.2,3.91
			c3.76,0,7.26-0.57,10.16-1.77c0.21-0.09,0.33-0.31,0.29-0.54l-1.13-5.8c-0.03-0.14-0.11-0.26-0.23-0.33
			c-0.12-0.07-0.27-0.09-0.4-0.04c-2.27,0.77-4.57,1.15-7.46,1.15c-3.69-0.02-6.69-1.44-7.22-4.27h17.19c0.23,0,0.43-0.16,0.48-0.39
			c0.12-0.65,0.3-1.96,0.3-3.46c0-3.49-0.86-7.03-2.91-9.73C78.63,40.89,75.37,39.07,70.79,39.08L70.79,39.08z M52.57,27.2H44
			c-0.13,0-0.25,0.05-0.34,0.14c-0.09,0.09-0.14,0.22-0.14,0.35v40.06c0,0.13,0.05,0.25,0.14,0.34c0.09,0.09,0.21,0.14,0.34,0.14
			h8.56c0.13,0,0.25-0.05,0.34-0.14c0.09-0.09,0.14-0.22,0.14-0.34V27.68c0-0.13-0.05-0.26-0.14-0.35
			C52.82,27.25,52.7,27.2,52.57,27.2L52.57,27.2z"/>
	</g>
</g>
</svg>
