<?xml version="1.0" encoding="utf-8"?>
<!-- Generator: Adobe Illustrator 25.4.1, SVG Export Plug-In . SVG Version: 6.00 Build 0)  -->
<svg version="1.1" id="Layer_1" xmlns="http://www.w3.org/2000/svg" xmlns:xlink="http://www.w3.org/1999/xlink" x="0px" y="0px"
	 viewBox="0 0 74.56 80" style="enable-background:new 0 0 74.56 80;" xml:space="preserve">
<style type="text/css">
	.st0{fill:#0255A3;}
</style>
<path class="st0" d="M0,47.94c3.06-3.98,7.11-5.58,12.14-3.77c1.69,0.61,3.31,1.4,4.95,2.15c2.13,0.96,4.3,1.61,6.68,1.26
	c2.63-0.38,4.2-2.38,3.93-5.04c-0.3-2.92-0.8-5.83-0.83-8.75c-0.05-4.39,1.17-8.44,4.34-11.69c2.65-2.73,5.95-4.3,9.62-5.15
	c4.61-1.07,9.26-2.01,13.85-3.17c5.81-1.47,10.97-4.21,15.24-8.45C71.6,3.65,73.05,1.75,74.56,0c-0.05,0.31-0.1,0.77-0.19,1.22
	c-0.09,0.46-0.2,0.92-0.3,1.38c-0.59,2.66-1.34,5.26-2.57,7.69c-2.17,4.28-5.78,6.9-10.07,8.77c-3.83,1.67-7.85,2.49-11.97,2.97
	c-3.38,0.4-6.78,0.66-10.08,1.62c-4.71,1.38-6.95,4.41-7.25,9.48c-0.14,2.5,0.21,5.02,0.38,7.54c0.13,1.81,0.14,3.6-0.35,5.36
	c-1.04,3.78-4.3,6.29-8.25,6.45c-3.48,0.14-6.5-1.13-9.38-2.9c-1.23-0.75-2.47-1.48-3.77-2.1c-3.3-1.57-6.63-1.63-9.92,0.07
	C0.6,47.69,0.35,47.79,0,47.94z"/>
<path class="st0" d="M46.16,67.76c-2.09,0.49-4.17,1.05-6.28,1.44c-5.48,1.02-10.92,0.91-16.26-0.88c-2.7-0.9-5.25-2.12-7.55-3.8
	c-1.1-0.8-2.16-0.55-3.21-0.07c-1.09,0.49-1.72,1.37-1.78,2.6c-0.09,1.69,0.64,3.07,1.74,4.27c1.94,2.15,4.48,3.31,7.17,4.18
	c3.96,1.28,8.05,1.77,12.19,2.03c4.94,0.31,9.88,0.13,14.8-0.21c2.79-0.19,5.57-0.51,8.4-0.67c-0.61,0.2-1.2,0.43-1.82,0.59
	c-4.43,1.19-8.94,1.93-13.52,2.2c-3.15,0.19-6.32,0.34-9.48,0.26c-5.64-0.13-11.15-1.02-16.32-3.43c-2.26-1.06-4.3-2.44-5.76-4.52
	c-1.58-2.26-2-4.72-1.07-7.34c0.61-1.74,1.81-2.96,3.58-3.57c0.18-0.06,0.35-0.15,0.63-0.27c-1.77-2.27-3.47-4.53-5.24-6.72
	c-1.76-2.18-3.7-4.19-6.19-5.59c1.58,0.07,3.04,0.54,4.45,1.2c3.07,1.43,5.64,3.54,7.87,6.04c4.83,5.39,10.64,9.16,17.7,10.92
	c4.75,1.19,9.58,1.49,14.45,1.15c0.47-0.03,0.94-0.05,1.41-0.08C46.11,67.6,46.14,67.68,46.16,67.76z"/>
<path class="st0" d="M48.32,28.76c4.88-0.68,9.5-1.97,13.91-4.01c4.41-2.04,8.43-4.66,12.02-8.03c-0.24,0.66-0.43,1.34-0.71,1.99
	c-2.87,6.64-7.82,10.43-15.12,11.01C55.22,29.98,50.56,29.54,48.32,28.76z"/>
<path class="st0" d="M67.28,43.82c-2.38,4.68-5.72,7.99-10.98,8.76c-3.37,0.49-6.7-0.06-9.89-1.19c-1.89-0.67-3.72-1.49-5.54-2.35
	C50.15,49.89,59.17,49.66,67.28,43.82z"/>
<path class="st0" d="M46.69,39.05c9.01-0.29,17.07-3.27,24.52-8.34c-0.02,0.19,0,0.3-0.04,0.38c-2.42,4.8-5.94,8.34-11.38,9.48
	c-4.44,0.93-8.75,0.18-12.96-1.36C46.79,39.2,46.76,39.14,46.69,39.05z"/>
</svg>
