<?xml version="1.0" encoding="utf-8"?>
<!-- Generator: Adobe Illustrator 25.4.1, SVG Export Plug-In . SVG Version: 6.00 Build 0)  -->
<svg version="1.1" id="Layer_1" xmlns="http://www.w3.org/2000/svg" xmlns:xlink="http://www.w3.org/1999/xlink" x="0px" y="0px"
	 viewBox="0 0 264.8 80" style="enable-background:new 0 0 264.8 80;" xml:space="preserve">
<style type="text/css">
	.st0{fill:#0255A3;}
</style>
<g>
	<path class="st0" d="M177.22,52.72c-0.65,1.51-1.24,2.93-1.9,4.32c-0.09,0.18-0.57,0.27-0.86,0.25c-5.78-0.37-11.45-1.28-16.9-3.31
		c-0.44-0.16-1.03-0.17-1.48-0.02c-4.78,1.59-9.69,2.57-14.7,3.04c-0.97,0.09-1.93,0.19-2.9,0.31c-0.47,0.06-0.75-0.07-0.94-0.55
		c-0.45-1.16-0.97-2.29-1.53-3.61c5.22-0.27,10.31-0.74,15.37-2.07c-1.74-1.26-3.37-2.43-4.94-3.56c-1.96,0.88-3.9,1.81-5.88,2.64
		c-1.71,0.71-1.73,0.66-2.79-0.8c-0.5-0.69-0.99-1.38-1.57-2.18c4.42-1.12,8.35-3,11.86-5.73c-0.01-0.07-0.03-0.15-0.04-0.22
		c-1.94,0-3.88,0-5.86,0c0-6.08,0-12.03,0-18.09c0.28-0.01,0.57-0.04,0.87-0.04c2.69,0,5.39,0,8.08,0c1.37,0,1.65-0.21,2.13-1.67
		c-5.39,0-10.76,0-16.24,0c0-1.29-0.02-2.47,0.02-3.66c0-0.15,0.28-0.34,0.47-0.43c0.16-0.07,0.38-0.02,0.58-0.02
		c12.3,0,24.6,0,36.9,0c0.33,0,0.65,0,1.03,0c0,1.53,0,2.96,0,4.45c-0.35,0.02-0.68,0.05-1,0.05c-5.05,0-10.11,0.06-15.16-0.04
		c-1.28-0.02-1.86,0.48-2.26,1.67c4.49,0,8.94,0,13.45,0c0,6.09,0,12.07,0,18.11c-0.37,0.02-0.72,0.05-1.07,0.05
		c-4.83,0-9.66,0.06-14.49-0.03c-1.26-0.02-1.96,0.61-2.93,1.49c0.51,0,0.8,0,1.09,0c4.69,0,9.38,0.01,14.08-0.01
		c0.56,0,0.93,0.16,1.24,0.62c0.47,0.68,1,1.32,1.59,2.09c-2.6,1.86-5.13,3.67-7.76,5.55C167.52,52.31,172.28,52.79,177.22,52.72z
		 M156.54,28.8c2.94,0,5.88-0.02,8.82,0.01c0.65,0.01,0.94-0.12,0.92-0.86c-0.01-0.67-0.19-0.91-0.89-0.91
		c-5.91,0.02-11.82,0.02-17.73,0c-0.66,0-0.94,0.15-0.94,0.87c0,0.69,0.21,0.9,0.9,0.89C150.6,28.79,153.57,28.8,156.54,28.8z
		 M166.17,33.3c0.25-1.74,0.25-1.74-1.3-1.74c-3.02,0-6.05,0-9.07,0c-2.72,0-5.44-0.01-8.16,0.01c-0.29,0-0.73,0.12-0.83,0.31
		c-0.4,0.83,0.02,1.41,0.94,1.41c5.86,0,11.71,0,17.57,0C165.59,33.3,165.86,33.3,166.17,33.3z M156.55,36.3
		c-3,0-5.99,0.02-8.99-0.02c-0.71-0.01-0.82,0.28-0.82,0.88c0,0.62,0.15,0.89,0.84,0.88c5.97-0.02,11.93-0.02,17.9,0
		c0.71,0,0.8-0.3,0.81-0.9c0.01-0.62-0.13-0.88-0.82-0.87C162.49,36.32,159.52,36.3,156.55,36.3z M151.89,46.77
		c0.19,0.2,0.25,0.3,0.33,0.35c1.54,0.8,3.09,1.6,4.65,2.36c0.21,0.1,0.56,0.07,0.78-0.03c1.39-0.61,2.76-1.26,4.13-1.91
		c0.33-0.16,0.61-0.39,0.92-0.59c-0.03-0.06-0.05-0.12-0.08-0.17C159.1,46.77,155.59,46.77,151.89,46.77z"/>
	<path class="st0" d="M211.89,33.88c-1.58,0-3.01,0-4.57,0c0,0.38,0.01,0.73,0,1.08c-0.15,3.65-0.16,7.32-0.48,10.95
		c-0.39,4.34-1.82,8.32-5.06,11.55c-1.03-1.15-2.08-2.31-3.16-3.51c-1.53,2.6-4.02,2.08-6.33,2.14c-0.97,0.02-1.48-0.36-1.58-1.41
		c-0.09-0.95-0.42-1.87-0.65-2.8c1.31,0.06,2.54,0.11,3.77,0.17c0.79,0.04,1.1-0.35,1.1-1.11c-0.01-3.91-0.02-7.82,0.01-11.73
		c0.01-0.73-0.38-0.75-0.89-0.71c-0.54,0.05-1.24-0.17-1.23,0.79c0.01,3,0.01,5.99,0,8.99c0,0.33-0.03,0.65-0.05,1.02
		c-1.2,0-2.32,0-3.59,0c0-3.43,0-6.84,0-10.29c-0.38-0.03-0.62-0.06-0.86-0.06c-0.97,0-1.06,0.11-1.11,1.1
		c-0.21,4.21-0.56,8.41-1.84,12.45c-0.51,1.6-1.17,3.15-1.84,4.91c-1.35-1.27-2.53-2.37-3.76-3.53c1.26-2.16,2.09-4.47,2.46-6.92
		c0.37-2.4,0.6-4.83,0.91-7.43c-1.09,0.13-2,0.23-2.98,0.34c-0.13-1.46-0.26-2.85-0.4-4.35c0.9-0.11,1.74-0.26,2.59-0.3
		c0.71-0.03,0.93-0.3,0.92-1.02c-0.08-4.27-0.12-8.54-0.17-12.81c0-0.24,0-0.49,0-0.82c1.42,0,2.77-0.02,4.12,0.01
		c0.53,0.01,0.8-0.14,0.94-0.68c0.34-1.31,0.73-2.6,1.12-3.99c1.41,0.18,2.88,0.37,4.51,0.58c-0.53,1.38-1.03,2.67-1.56,4.07
		c2.05,0,4.01,0,6.09,0c0,4.39,0,8.7,0,13.05c0.72-0.03,1.32-0.06,2.03-0.09c0,1.24,0.01,2.42-0.02,3.61c0,0.15-0.21,0.37-0.37,0.44
		c-0.27,0.12-0.59,0.19-0.89,0.19c-0.7,0.01-0.78,0.4-0.77,0.98c0.02,2.94,0.01,5.88,0.01,8.82c0,1.94,0,3.87,0,5.81
		c0.08,0.1,0.16,0.2,0.25,0.3c0.13-0.27,0.2-0.58,0.39-0.8c1.74-2.07,2.52-4.53,2.97-7.12c0.89-5.17,0.77-10.38,0.64-15.59
		c0-0.16,0-0.33,0-0.54c4.41,0,8.81,0,13.45,0c0,1.48-0.02,2.93,0,4.39c0.06,4.74,0.14,9.48,0.21,14.22
		c0.01,0.86,0.07,1.72,0.08,2.57c0.01,0.54,0.25,0.83,0.79,0.87c0.51,0.04,0.91-0.17,0.97-0.69c0.15-1.18,0.29-2.37,0.33-3.55
		c0.06-1.58,0.01-3.16,0.01-4.83c0.98,0.46,1.85,0.99,2.8,1.29c0.85,0.27,1.08,0.69,1.01,1.55c-0.22,2.48-0.24,4.98-0.55,7.45
		c-0.3,2.37-1.33,3.23-3.69,3.37c-1.24,0.07-2.5,0-3.73-0.15c-1.58-0.18-2.31-1.02-2.32-2.62c-0.03-6.16-0.03-12.31-0.04-18.47
		C211.89,34.69,211.89,34.33,211.89,33.88z M187.55,24.9c0,3.38,0,6.66,0,9.96c0.17,0.02,0.28,0.05,0.38,0.04
		c2.12-0.17,4.25-0.36,6.37-0.51c0.6-0.04,0.62-0.39,0.62-0.84c-0.01-2.66,0-5.32-0.01-7.97c0-0.21-0.04-0.42-0.07-0.67
		C192.4,24.9,190,24.9,187.55,24.9z"/>
	<path class="st0" d="M0,47.94c3.06-3.98,7.11-5.58,12.14-3.77c1.69,0.61,3.31,1.4,4.95,2.15c2.13,0.96,4.3,1.61,6.68,1.26
		c2.63-0.38,4.2-2.38,3.93-5.04c-0.3-2.92-0.8-5.83-0.83-8.75c-0.05-4.39,1.17-8.44,4.34-11.69c2.65-2.73,5.95-4.3,9.62-5.15
		c4.61-1.07,9.26-2.01,13.85-3.17c5.81-1.47,10.97-4.21,15.24-8.45C71.6,3.65,73.05,1.75,74.56,0c-0.05,0.31-0.1,0.77-0.19,1.22
		c-0.09,0.46-0.2,0.92-0.3,1.38c-0.59,2.66-1.34,5.26-2.57,7.69c-2.17,4.28-5.78,6.9-10.07,8.77c-3.83,1.67-7.85,2.49-11.97,2.97
		c-3.38,0.4-6.78,0.66-10.08,1.62c-4.71,1.38-6.95,4.41-7.25,9.48c-0.14,2.5,0.21,5.02,0.38,7.54c0.13,1.81,0.14,3.6-0.35,5.36
		c-1.04,3.78-4.3,6.29-8.25,6.45c-3.48,0.14-6.5-1.13-9.38-2.9c-1.23-0.75-2.47-1.48-3.77-2.1c-3.3-1.57-6.63-1.63-9.92,0.07
		C0.6,47.69,0.35,47.79,0,47.94z"/>
	<path class="st0" d="M226.03,20.61c5.44,0,10.82,0,16.32,0c0-1.34,0-2.63,0-3.97c1.66,0,3.19,0,4.81,0c0,1.29,0,2.56,0,3.93
		c5.75,0,11.42,0,17.22,0c0.14,3.02,0.27,5.93,0.41,8.91c-1.62,0-3.16,0-4.84,0c0-1.15-0.04-2.31,0.01-3.46
		c0.03-0.74-0.16-1.01-0.96-0.99c-2.52,0.05-5.04,0.02-7.62,0.02c-0.04,0.28-0.09,0.49-0.09,0.69c-0.01,1.94-0.01,3.88,0,5.82
		c0.01,0.98,0.24,1.31,1.2,1.31c1.74,0,3.49-0.06,5.23-0.23c1.24-0.13,1.39-0.41,1.56-1.65c0.04-0.27,0.09-0.54,0.15-0.91
		c1.45,0.46,2.85,0.9,4.35,1.38c-0.12,0.8-0.19,1.57-0.34,2.32c-0.39,1.89-1.74,2.79-3.51,2.86c-3.35,0.13-6.71,0.21-10.05,0.04
		c-2.63-0.13-3.24-1-3.25-3.61c-0.01-2.38,0-4.77,0-7.15c0-0.3,0-0.61,0-0.98c-1.31,0-2.56,0-3.84,0c-0.17,1.05-0.29,2.09-0.51,3.11
		c-0.65,3.04-2.34,5.41-4.83,7.22c-2.47,1.8-5.21,3.03-8.18,3.76c-0.47,0.12-0.74,0.03-1.02-0.38c-0.76-1.15-1.57-2.27-2.34-3.37
		c1.88-0.57,3.77-0.96,5.49-1.72c1.57-0.7,3.04-1.7,4.4-2.77c1.77-1.4,2.03-3.51,2.25-5.67c-2.41,0-4.75,0-7.18,0
		c0,1.96,0,3.89,0,5.87c-1.65,0-3.22,0-4.84,0C226.03,27.52,226.03,24.09,226.03,20.61z"/>
	<path class="st0" d="M261.3,40.12c0,1.57,0,3.09,0,4.71c-0.32,0.02-0.64,0.05-0.96,0.05c-4.05,0-8.11,0.02-12.16-0.02
		c-0.82-0.01-1.04,0.25-1.01,1.04c0.06,1.38,0.05,2.77,0,4.16c-0.02,0.66,0.19,0.85,0.85,0.84c5.25-0.02,10.49-0.01,15.74-0.01
		c0.33,0,0.65,0,1.02,0c0,1.62,0,3.16,0,4.75c-13.05,0-26.06,0-39.13,0c0-1.54,0-3.08,0-4.75c0.3,0,0.62,0,0.94,0
		c5,0,9.99-0.02,14.99,0.02c0.82,0.01,1.04-0.24,1-1.03c-0.06-1.38-0.05-2.77,0-4.16c0.02-0.67-0.2-0.85-0.85-0.85
		c-3.86,0.02-7.72,0.01-11.58,0.01c-0.33,0-0.65,0-1.03,0c0-1.64,0-3.17,0-4.76C239.85,40.12,250.53,40.12,261.3,40.12z"/>
	<path class="st0" d="M46.16,67.76c-2.09,0.49-4.17,1.05-6.28,1.44c-5.48,1.02-10.92,0.91-16.26-0.88c-2.7-0.9-5.25-2.12-7.55-3.8
		c-1.1-0.8-2.16-0.55-3.21-0.07c-1.09,0.49-1.72,1.37-1.78,2.6c-0.09,1.69,0.64,3.07,1.74,4.27c1.94,2.15,4.48,3.31,7.17,4.18
		c3.96,1.28,8.05,1.77,12.19,2.03c4.94,0.31,9.88,0.13,14.8-0.21c2.79-0.19,5.57-0.51,8.4-0.67c-0.61,0.2-1.2,0.43-1.82,0.59
		c-4.43,1.19-8.94,1.93-13.52,2.2c-3.15,0.19-6.32,0.34-9.48,0.26c-5.64-0.13-11.15-1.02-16.32-3.43c-2.26-1.06-4.3-2.44-5.76-4.52
		c-1.58-2.26-2-4.72-1.07-7.34c0.61-1.74,1.81-2.96,3.58-3.57c0.18-0.06,0.35-0.15,0.63-0.27c-1.77-2.27-3.47-4.53-5.24-6.72
		c-1.76-2.18-3.7-4.19-6.19-5.59c1.58,0.07,3.04,0.54,4.45,1.2c3.07,1.43,5.64,3.54,7.87,6.04c4.83,5.39,10.64,9.16,17.7,10.92
		c4.75,1.19,9.58,1.49,14.45,1.15c0.47-0.03,0.94-0.05,1.41-0.08C46.11,67.6,46.14,67.68,46.16,67.76z"/>
	<path class="st0" d="M106.71,32.99c-0.54-1.4-1.06-2.76-1.61-4.2c0.85-0.33,1.66-0.68,2.49-0.97c1.8-0.64,3.6-1.28,5.42-1.87
		c0.52-0.17,0.68-0.42,0.67-0.94c-0.02-2.41-0.01-4.82-0.01-7.24c0-0.3,0.03-0.6,0.04-0.95c1.46,0,2.86,0,4.37,0
		c0,2.11,0,4.2,0,6.46c3.91-1.78,7.27-4.11,10.7-6.52c0.86,1.12,1.71,2.22,2.62,3.41c-0.34,0.24-0.63,0.48-0.95,0.67
		c-3.96,2.33-7.92,4.67-11.9,6.97c-0.47,0.27-0.69,0.53-0.67,1.08c0.07,1.47-0.02,2.94,0.15,4.4c0.16,1.46,0.95,2.05,2.43,2.08
		c1.42,0.02,2.83,0.02,4.25,0c1.68-0.01,2.71-0.82,3.06-2.47c0.27-1.24,0.45-2.5,0.68-3.76c0.05-0.29,0.13-0.58,0.21-0.93
		c1.5,0.55,2.92,1.07,4.42,1.61c-0.4,2.02-0.72,4.01-1.18,5.97c-0.55,2.33-2.18,3.66-4.59,3.72c-3,0.07-6,0.07-8.99,0.02
		c-3.03-0.05-4.78-1.92-4.84-5.06c-0.02-1.3,0-2.6,0-4.08C111.16,31.27,108.97,32.12,106.71,32.99z"/>
	<path class="st0" d="M92.67,49.17c0-1.5,0-2.9,0-4.4c5.87,0,11.74,0,17.73,0c0-1.6,0-3.11,0-4.66c1.53,0,2.93,0,4.42,0
		c0,1.53,0,3.01,0,4.59c6.04,0,11.99,0,18,0c0,1.51,0,2.94,0,4.47c-5.97,0-11.92,0-17.98,0c0,3.31,0,6.51,0,9.75
		c-1.51,0-2.91,0-4.43,0c0-0.35,0-0.68,0-1c0-2.52,0-5.05,0-7.57c0-1.19,0-1.19-1.15-1.19c-5.19,0-10.38,0-15.57,0
		C93.37,49.17,93.04,49.17,92.67,49.17z"/>
	<path class="st0" d="M103.74,16.18c1.37,0.56,2.8,1.14,4.34,1.77c-0.39,0.6-0.73,1.14-1.09,1.68c-0.53,0.78-0.99,1.62-1.62,2.31
		c-1.49,1.64-1.93,3.49-1.84,5.69c0.16,4.04,0.04,8.1,0.04,12.15c0,0.3,0,0.6,0,0.95c-1.51,0-2.94,0-4.44,0c0-3.73,0-7.41,0-11.18
		c-1.72,1.47-3.34,2.86-5.07,4.34c-0.61-1.75-1.18-3.33-1.7-4.92c-0.06-0.17,0.05-0.51,0.2-0.62c4.56-3.23,8.1-7.38,11.03-12.08
		C103.6,16.25,103.63,16.24,103.74,16.18z"/>
	<path class="st0" d="M199.87,26.65c0-1.52,0-3.01,0-4.58c1.66,0,3.27,0,4.87,0c0.69,0,1.39-0.03,2.08,0.01
		c0.57,0.03,0.79-0.17,0.77-0.76c-0.03-1.61-0.01-3.21-0.01-4.9c1.49,0,2.94,0,4.44,0c0,1.87,0,3.69,0,5.64c3.12,0,6.19,0,9.31,0
		c0,1.6,0,3.08,0,4.6C214.19,26.65,207.09,26.65,199.87,26.65z"/>
	<path class="st0" d="M114.13,79.74c0-1.64,0-3.24,0-4.91c-1.61,0-3.14,0-4.78,0c0,1.63,0,3.26,0,4.92c-1.04,0-1.98,0-2.98,0
		c0-4.14,0-8.28,0-12.48c0.94,0,1.9,0,2.96,0c0,1.65,0,3.3,0,5.08c1.53,0,2.97,0.02,4.4-0.03c0.14,0,0.37-0.42,0.37-0.65
		c0.03-1.44,0.02-2.88,0.02-4.39c0.97,0,1.9,0,2.89,0c0,4.13,0,8.27,0,12.46C116.06,79.74,115.13,79.74,114.13,79.74z"/>
	<path class="st0" d="M144.19,79.99c0.56-2.02,1.07-3.88,1.58-5.74c0.56-2.02,1.13-4.05,1.66-6.08c0.14-0.53,0.34-0.79,0.94-0.77
		c1.55,0.04,3.11,0.02,4.66,0.01c0.42,0,0.73,0.04,0.86,0.55c1.04,3.84,2.1,7.68,3.15,11.51c0.04,0.13,0.03,0.27,0.05,0.46
		c-2.18,0-4.33,0-6.54,0c0-0.62,0-1.22,0-1.9c0.91,0,1.78,0,2.8,0c-0.27-1.15-0.5-2.18-0.75-3.22c-0.31-1.32-0.68-2.63-0.92-3.96
		c-0.13-0.71-0.58-0.6-1.04-0.61c-0.46-0.01-0.82-0.02-0.97,0.6c-0.67,2.82-1.42,5.63-2.1,8.45c-0.13,0.55-0.37,0.72-0.9,0.69
		C145.91,79.96,145.13,79.99,144.19,79.99z"/>
	<path class="st0" d="M215.28,69.63c0,3.46,0,6.78,0,10.13c-1.02,0-1.96,0-2.95,0c0-4.17,0-8.31,0-12.55c0.92,0,1.82,0,2.73,0
		c1.8,0,3.61,0,5.41,0c1.54,0,2.21,0.68,2.22,2.24c0,0.78,0,1.55,0,2.33c0,1.94-0.22,2.19-2.32,2.43c0.96,1.8,1.88,3.53,2.87,5.41
		c-1.03,0-1.95,0.01-2.87-0.01c-0.12,0-0.28-0.16-0.34-0.29c-0.93-1.88-1.84-3.77-2.82-5.78c0.94,0,1.75,0,2.67,0
		c0-1.22,0.02-2.35-0.02-3.48c-0.01-0.15-0.29-0.4-0.46-0.41C218.07,69.62,216.75,69.63,215.28,69.63z"/>
	<path class="st0" d="M140.21,79.75c-0.95,0-1.8,0-2.73,0c0-3.34,0-6.65,0-10.05c-1.62,0-3.15,0-4.8,0c0,3.33,0,6.67,0,10.05
		c-1.05,0-1.99,0-2.99,0c0-4.15,0-8.3,0-12.49c0.21-0.02,0.42-0.05,0.64-0.05c2.61,0,5.22-0.01,7.83,0c1.35,0,2.05,0.7,2.05,2.05
		C140.21,72.72,140.21,76.19,140.21,79.75z"/>
	<path class="st0" d="M48.32,28.76c4.88-0.68,9.5-1.97,13.91-4.01c4.41-2.04,8.43-4.66,12.02-8.03c-0.24,0.66-0.43,1.34-0.71,1.99
		c-2.87,6.64-7.82,10.43-15.12,11.01C55.22,29.98,50.56,29.54,48.32,28.76z"/>
	<path class="st0" d="M192.99,67.03c-0.72,1.73-1.32,3.34-2.07,4.87c-0.22,0.44-0.88,0.68-1.36,0.97c-0.28,0.16-0.61,0.23-0.94,0.52
		c0.46,0.11,0.94,0.18,1.39,0.34c0.34,0.12,0.82,0.29,0.94,0.56c0.77,1.77,1.46,3.58,2.23,5.5c-1.1,0-2.08,0.03-3.06-0.02
		c-0.19-0.01-0.44-0.29-0.52-0.5c-0.47-1.21-0.9-2.44-1.34-3.66c-0.17-0.48-0.27-0.9-0.98-0.89c-0.65,0.01-0.76,0.39-0.93,0.84
		c-0.5,1.35-1.01,2.68-1.52,4.03c-1.12,0-2.2,0-3.42,0c0.75-1.84,1.44-3.63,2.23-5.38c0.15-0.33,0.67-0.52,1.06-0.7
		c0.39-0.17,0.82-0.24,1.29-0.48c-2.05,0.06-2.57-1.38-3.1-2.86c-0.36-1.04-0.82-2.04-1.27-3.15c1.01,0,1.9-0.03,2.78,0.02
		c0.22,0.01,0.51,0.28,0.6,0.5c0.5,1.23,0.96,2.47,1.4,3.73c0.16,0.45,0.39,0.65,0.9,0.65c0.53,0.01,0.72-0.24,0.88-0.68
		c0.44-1.22,0.93-2.43,1.36-3.65c0.15-0.44,0.37-0.6,0.84-0.58C191.19,67.06,191.99,67.03,192.99,67.03z"/>
	<path class="st0" d="M200.22,79.58c-1,0-1.85,0-2.76,0c0-4.11,0-8.19,0-12.37c0.78,0,1.52,0,2.26,0c1.94,0,3.88-0.01,5.82,0
		c1.25,0.01,1.97,0.71,1.98,1.95c0.01,1.41,0.01,2.83,0,4.24c-0.01,1.2-0.71,1.9-1.91,1.9c-1.77,0.01-3.53,0-5.39,0
		C200.22,76.76,200.22,78.13,200.22,79.58z M200.43,69.47c0,1.31,0,2.56,0,3.88c1.33,0,2.6,0.02,3.87-0.02
		c0.15,0,0.43-0.28,0.43-0.43c0.04-1.12,0.02-2.25,0.02-3.42C203.26,69.47,201.89,69.47,200.43,69.47z"/>
	<path class="st0" d="M265.14,67.44c-0.6,2.18-0.6,2.18-2.69,2.18c-1.22,0-2.44,0-3.72,0c0,1.01,0,1.97,0,3.07c0.85,0,1.72,0,2.59,0
		c0.67,0,1.33-0.03,2,0.01c1.23,0.08,1.85,0.76,1.86,1.99c0.01,1.14,0.02,2.27-0.01,3.41c-0.02,0.89-0.68,1.65-1.53,1.66
		c-2.75,0.03-5.49,0.01-8.35,0.01c0.24-0.67,0.4-1.29,0.68-1.84c0.09-0.18,0.5-0.28,0.77-0.29c1.55-0.03,3.11-0.04,4.66,0
		c0.67,0.02,0.84-0.22,0.84-0.86c-0.01-2.3,0.02-2.3-2.31-2.3c-0.83,0-1.67,0.02-2.5-0.01c-1.01-0.04-1.66-0.55-1.72-1.55
		c-0.08-1.32-0.07-2.66,0.01-3.98c0.05-0.85,0.65-1.47,1.51-1.49C259.85,67.41,262.45,67.44,265.14,67.44z"/>
	<path class="st0" d="M244.6,72.7c1.38,0,2.73,0,4.08,0c1.81,0,2.37,0.57,2.37,2.38c0,1.03,0.02,2.05-0.01,3.08
		c-0.02,0.91-0.67,1.61-1.56,1.62c-2.5,0.03-4.99,0.01-7.49,0.01c-0.22,0-0.44,0-0.84,0c0.26-0.7,0.45-1.33,0.73-1.9
		c0.08-0.16,0.46-0.23,0.71-0.24c1.5-0.02,3-0.01,4.49-0.01c0.3,0,0.6-0.03,0.99-0.05c0-0.94,0.03-1.82-0.03-2.7
		c-0.01-0.15-0.41-0.38-0.64-0.39c-1.27-0.04-2.55-0.01-3.83-0.02c-1.41-0.02-2.01-0.63-2.01-2.05c0-1.08-0.01-2.16,0-3.24
		c0.01-0.96,0.59-1.72,1.54-1.74c2.6-0.06,5.2-0.02,7.95-0.02c-0.26,0.71-0.44,1.33-0.72,1.91c-0.08,0.16-0.45,0.26-0.68,0.26
		c-1.66,0.02-3.33,0.01-5.06,0.01C244.6,70.65,244.6,71.62,244.6,72.7z"/>
	<path class="st0" d="M177.13,67.27c0.01,0.08,0.03,0.11,0.02,0.13c-0.6,2.02-0.6,2.02-2.73,2.02c-0.92,0-1.83-0.03-2.75,0.02
		c-0.2,0.01-0.55,0.3-0.56,0.48c-0.06,0.88-0.03,1.76-0.03,2.74c1.72,0,3.37,0,5.07,0c0,0.52,0,0.95,0,1.46
		c-1.44,0-2.85,0.04-4.26-0.02c-0.69-0.03-0.83,0.23-0.83,0.86c0,2.44-0.02,2.44,2.41,2.44c1.21,0,2.42,0,3.61,0
		c0.03,0.16,0.06,0.21,0.05,0.25c-0.63,1.95-0.63,1.97-2.67,1.99c-2.08,0.03-4.15,0.01-6.3,0.01c0-4.05,0-8.19,0-12.38
		C171.14,67.27,174.12,67.27,177.13,67.27z"/>
	<path class="st0" d="M67.28,43.82c-2.38,4.68-5.72,7.99-10.98,8.76c-3.37,0.49-6.7-0.06-9.89-1.19c-1.89-0.67-3.72-1.49-5.54-2.35
		C50.15,49.89,59.17,49.66,67.28,43.82z"/>
	<path class="st0" d="M227.95,67.24c3.03,0,5.96,0,8.99,0c-0.23,0.65-0.39,1.27-0.68,1.83c-0.1,0.19-0.48,0.33-0.74,0.33
		c-1.52,0.03-3.04,0.02-4.62,0.02c0,1.11,0,2.15,0,3.25c1.66,0,3.29,0,4.99,0c0,0.49,0,0.91,0,1.44c-1.66,0-3.31,0-5,0
		c0,1.11,0,2.12,0,3.28c1.97,0,3.94,0,6.06,0c-0.27,0.76-0.46,1.36-0.7,1.93c-0.05,0.13-0.28,0.27-0.43,0.27
		c-2.6,0.02-5.21,0.01-7.88,0.01C227.95,75.47,227.95,71.39,227.95,67.24z"/>
	<path class="st0" d="M46.69,39.05c9.01-0.29,17.07-3.27,24.52-8.34c-0.02,0.19,0,0.3-0.04,0.38c-2.42,4.8-5.94,8.34-11.38,9.48
		c-4.44,0.93-8.75,0.18-12.96-1.36C46.79,39.2,46.76,39.14,46.69,39.05z"/>
	<path class="st0" d="M95.9,69.46c0,2.65,0,5.24,0,7.94c1.94,0,3.84,0,5.84,0c-0.23,0.65-0.36,1.19-0.61,1.66
		c-0.13,0.25-0.49,0.52-0.75,0.52c-1.58,0.05-3.16,0.02-4.75,0.02c-0.19,0-0.39-0.01-0.58,0c-1.71,0.12-2.24-0.38-2.24-2.13
		c0-2.69,0-5.38,0-8.07c0-1.55,0.67-2.21,2.24-2.21c2.19,0,4.38,0,6.69,0c-0.24,0.66-0.4,1.27-0.68,1.82
		c-0.1,0.2-0.46,0.37-0.71,0.37c-1.16,0.04-2.33,0.02-3.5,0.02C96.55,69.42,96.25,69.45,95.9,69.46z"/>
	<path class="st0" d="M121.89,67.24c0.99,0,1.93,0,2.93,0c0,4.16,0,8.3,0,12.49c-0.96,0-1.92,0-2.93,0
		C121.89,75.57,121.89,71.42,121.89,67.24z"/>
	<path class="st0" d="M194.21,32.02c-1.06,0.53-2.07,1.03-3.12,1.56c-0.89-2.1-1.75-4.14-2.65-6.26c0.88-0.51,1.78-1.02,2.75-1.58
		C192.19,27.83,193.17,29.87,194.21,32.02z"/>
</g>
</svg>
