<?xml version="1.0" encoding="utf-8"?>
<!-- Generator: Adobe Illustrator 25.4.1, SVG Export Plug-In . SVG Version: 6.00 Build 0)  -->
<svg version="1.1" id="Layer_1" xmlns="http://www.w3.org/2000/svg" xmlns:xlink="http://www.w3.org/1999/xlink" x="0px" y="0px"
	 viewBox="0 0 87.69 80" style="enable-background:new 0 0 87.69 80;" xml:space="preserve">
<style type="text/css">
	.st0{fill-rule:evenodd;clip-rule:evenodd;fill:#324E9B;}
	.st1{fill:#324E9B;}
</style>
<g>
	<path class="st0" d="M54.44,26.86c0.31,5.76,1.28,12.27,1.87,18.06c0.61,6.07,1.21,12.14,1.84,18.15c0.77,7.37-2.45,9.9-8.59,11.34
		c-2.68,0.62-6.08,0.96-9.01,0.78c-1.97-0.13-6.98-0.79-8.27-1.71l2.61-5.82c3.08,0.28,5.24,1.66,9,1c4.4-0.76,4.1-3.66,4.08-5.94
		c-1.45,0.94-1.66,2.39-5.81,3.17c-10.04,1.91-10-7.86-10.91-14.69c-0.17-1.34-0.33-2.63-0.48-3.91c-0.23-1.99-0.6-2.49,0.5-3.82
		c2.69-3.25,5-6.65,7.57-9.74c4.49-5.38,2.82-5.38,6.1-3.96l-0.11-1.96L54.44,26.86z M70.26,24.77c2.54-0.34,5.81-0.16,8.07,0.64
		c5.07,1.8,5.52,7.59,6.14,11.57c0.5,3.24,0.87,4.13,0.27,7.37c-0.92,4.94-1.88,9.78-2.87,14.67c-1.07,5.25-0.57,7.65-2.77,8.34
		c-0.61,0.19-1.15,0.29-1.81,0.4c-6.71,1.17-12.95,0.84-15.53-5.58c-1.62-4.02-1.91-10.42-2.39-15.12
		C57.94,33.31,56.29,26.59,70.26,24.77z M87.69,32.54V0C84.14,0.16,70.21,0.71,67.8,1.03c-5.96,0.81-8.74,5.81-11.49,9.36
		c-1.57,2.02-3.02,3.85-4.57,5.85L33.4,39.84c-1.58,1.99-2.97,3.91-4.55,5.87c-5.92,7.28-12.35,16.08-18.3,23.63
		c-1.66,2.11-2.77,3.4-4.92,5.51L0,79.96L78.34,80L87.69,32.54z M69.14,36.89c0.54,5.24,1.09,10.54,1.6,15.77
		c0.22,2.12,0.16,6.14,1.5,7.22c0.92,0.73,2.53,0.56,3.21-0.19c0.8-0.88,0.53-2.41,0.38-3.67c-0.61-5.27-1.07-10.57-1.59-15.89
		c-0.16-1.58-0.42-6.32-1.38-7.28c-0.83-0.8-2.69-0.51-3.35,0.27C68.72,34.05,69,35.55,69.14,36.89z M41.88,35.41
		c-2,0.82-1.13,3.97-0.93,5.9l1.37,13.27c0.22,2.32,0.65,4.64,3.55,3.71c2.01-0.65,1.18-3.93,0.99-5.86l-1.37-13.24
		C45.21,37.01,44.84,34.19,41.88,35.41"/>
	<path class="st1" d="M69.93,67.14l0.78-5.51l0.6-0.03l0.6-0.03l1.45,5.41L72.87,67l-0.49,0.03l-0.27-1.18l-1.07,0.05l-0.13,1.19
		l-0.48,0.02L69.93,67.14z M71.38,62.62l-0.25,2.46l0.8-0.03L71.38,62.62z M74.05,66.95l-0.34-5.46l0.5-0.02l0.5-0.03l0.35,5.45
		l-0.5,0.03L74.05,66.95z M75.89,66.86l-0.35-5.45l0.51-0.03l0.98-0.04c0.54-0.03,0.92,0.06,1.16,0.27c0.23,0.21,0.37,0.57,0.4,1.08
		c0.04,0.58-0.05,0.97-0.27,1.18c-0.1,0.1-0.28,0.19-0.51,0.26l0.05-0.01c0.28-0.01,0.49,0.08,0.65,0.28
		c0.16,0.19,0.23,0.48,0.24,0.85c0,0.21,0.02,0.43,0.03,0.66c0.03,0.24,0.04,0.42,0.06,0.54c0.02,0.12,0.03,0.21,0.06,0.27
		l-0.51,0.03l-0.5,0.03c-0.02-0.06-0.03-0.15-0.05-0.27c-0.01-0.12-0.03-0.3-0.04-0.54l-0.04-0.67c-0.01-0.27-0.07-0.47-0.17-0.57
		c-0.1-0.1-0.28-0.16-0.52-0.15l-0.29,0.02l0.14,2.23l-0.5,0.02L75.89,66.86z M76.71,63.75l0.28-0.01c0.26-0.02,0.43-0.08,0.51-0.19
		c0.09-0.1,0.11-0.32,0.1-0.65c-0.02-0.29-0.08-0.49-0.17-0.6c-0.1-0.1-0.28-0.15-0.53-0.14l-0.28,0.02L76.71,63.75"/>
</g>
</svg>
