<?xml version="1.0" encoding="utf-8"?>
<!-- Generator: Adobe Illustrator 25.4.1, SVG Export Plug-In . SVG Version: 6.00 Build 0)  -->
<svg version="1.1" id="Layer_1" xmlns="http://www.w3.org/2000/svg" xmlns:xlink="http://www.w3.org/1999/xlink" x="0px" y="0px"
	 viewBox="0 0 136.79 80" style="enable-background:new 0 0 136.79 80;" xml:space="preserve">
<style type="text/css">
	.st0{fill-rule:evenodd;clip-rule:evenodd;fill:#324E9B;}
	.st1{fill-rule:evenodd;clip-rule:evenodd;fill:#3C4F98;}
	.st2{fill-rule:evenodd;clip-rule:evenodd;fill:#364E99;}
	.st3{fill-rule:evenodd;clip-rule:evenodd;fill:#3A4F96;}
	.st4{fill-rule:evenodd;clip-rule:evenodd;fill:#3D4F96;}
	.st5{fill:#324E9B;}
</style>
<g id="surface1">
	<path class="st0" d="M103.53,26.86c0.31,5.76,1.28,12.27,1.87,18.06c0.61,6.07,1.21,12.14,1.84,18.15
		c0.77,7.37-2.45,9.9-8.59,11.34c-2.68,0.62-6.08,0.96-9.01,0.78c-1.97-0.13-6.98-0.79-8.27-1.71l2.61-5.82c3.08,0.28,5.24,1.66,9,1
		c4.4-0.76,4.11-3.66,4.08-5.94c-1.45,0.94-1.66,2.39-5.81,3.17c-10.04,1.91-10-7.86-10.91-14.69c-0.17-1.34-0.33-2.63-0.48-3.91
		c-0.23-1.99-0.6-2.49,0.5-3.82c2.69-3.25,5-6.65,7.57-9.74c4.49-5.38,2.82-5.38,6.1-3.96l-0.11-1.96L103.53,26.86z M119.36,24.77
		c2.54-0.34,5.81-0.16,8.07,0.64c5.07,1.8,5.52,7.59,6.14,11.57c0.5,3.24,0.87,4.13,0.27,7.37c-0.92,4.94-1.88,9.78-2.87,14.67
		c-1.07,5.25-0.57,7.65-2.77,8.34c-0.61,0.19-1.15,0.29-1.81,0.4c-6.71,1.17-12.95,0.84-15.53-5.58
		c-1.62-4.02-1.91-10.42-2.39-15.12C107.03,33.31,105.39,26.59,119.36,24.77z M136.79,32.54V0c-3.55,0.16-17.48,0.71-19.89,1.03
		c-5.96,0.81-8.74,5.81-11.49,9.36c-1.57,2.02-3.02,3.85-4.57,5.85L82.5,39.84c-1.58,1.99-2.97,3.91-4.55,5.87
		c-5.92,7.28-12.35,16.08-18.3,23.63c-1.66,2.11-2.77,3.4-4.92,5.51l-5.63,5.12L127.44,80L136.79,32.54z M118.23,36.89
		c0.54,5.24,1.09,10.54,1.6,15.77c0.22,2.12,0.16,6.14,1.5,7.22c0.92,0.73,2.53,0.56,3.21-0.19c0.8-0.88,0.53-2.41,0.38-3.67
		c-0.61-5.27-1.07-10.57-1.59-15.89c-0.16-1.58-0.42-6.32-1.38-7.28c-0.83-0.8-2.69-0.51-3.35,0.27
		C117.82,34.05,118.09,35.55,118.23,36.89z M90.98,35.41c-2,0.82-1.13,3.97-0.93,5.9l1.37,13.27c0.22,2.32,0.65,4.64,3.55,3.71
		c2.01-0.65,1.18-3.93,0.99-5.86l-1.37-13.24C94.3,37.01,93.93,34.19,90.98,35.41"/>
	<path class="st1" d="M26.85,68.07l1.75,0.14l0.01-8.89l1.63,8.81c1.42,0.12,0.92,0.14,1.57-3.33c0.16-0.87,0.53-3.34,0.98-4
		l0.06,7.28l1.81,0.09l-0.03-12.08l-2.53-0.12l-1.12,6.27c-0.14,0.41-0.16,0.39-0.23,0.53c-0.8-1.54-1-4.78-1.38-6.73L26.87,56
		L26.85,68.07"/>
	<path class="st2" d="M45.09,57.76c1.48,0.01,1.88,0.23,1.87,1.76c-0.01,1.62-0.34,1.75-1.89,1.77L45.09,57.76z M43.19,68.11
		l1.88,0.03c0.01-0.92,0.01-1.78,0-2.64l0.07-1.96c0.15-0.53-0.02-0.18,0.25-0.51c0.8,0.15,0.52-0.31,1.1,2.27
		c0.22,1,0.41,1.91,0.61,2.85l1.93,0.03c-0.17-1.32-0.64-2.81-0.94-4.04c-0.69-2.83,0.48-1.47,0.75-3.8
		c0.49-4.24-1.75-4.79-5.63-4.3L43.19,68.11"/>
	<path class="st2" d="M38.94,58.86l0.6,4.96l-1.37-0.03L38.94,58.86z M35.68,68.13l1.85,0.02l0.37-2.57l1.92-0.04l0.35,2.54
		l1.95,0.11l-2-12.23l-2.44,0.03L35.68,68.13"/>
	<path class="st3" d="M21.21,64.89l-1.61,0.16c0.04,5.45,7.42,3.84,5.73-0.99c-0.76-2.16-5.12-4.65-3.39-6.26
		c1.2-1.11,1.46,0.65,1.7,1.19l1.75-0.16c-0.35-5.4-7.67-2.74-5.31,1.59c0.73,1.35,5.57,5.42,2.81,6.12
		C21.48,66.9,21.6,65.66,21.21,64.89"/>
	<path class="st2" d="M11.73,68.11l1.92,0.06c-0.13-9.33,1.42-7.08,2.08-12.21l-1.82,0.03l-1.14,4.67
		c-0.56-0.87-1.04-3.46-1.37-4.64l-1.8-0.07C9.91,59.87,11.91,59.54,11.73,68.11"/>
	<path class="st2" d="M0,68.08l1.91,0.1l0.03-5.47l2.14-0.03l-0.01-1.75l-2.16-0.05l0.01-3.09l2.96-0.05l-0.01-1.79l-4.86,0.03
		L0,68.08"/>
	<path class="st2" d="M49.33,57.75l1.95,0.04l0.01,10.38h1.84l0.02-10.42l1.95-0.03l-0.01-1.68l-5.73-0.07L49.33,57.75"/>
	<path class="st4" d="M5.77,68.09l4.78,0.09l-0.01-1.74l-2.83-0.05L7.66,55.97l-1.88,0.03L5.77,68.09"/>
	<path class="st5" d="M119.03,67.14l0.78-5.51l0.6-0.03l0.6-0.03l1.45,5.41L121.97,67l-0.49,0.03l-0.27-1.18l-1.07,0.05L120,67.1
		l-0.48,0.02L119.03,67.14z M120.47,62.62l-0.25,2.46l0.8-0.03L120.47,62.62z M123.14,66.95l-0.34-5.46l0.5-0.02l0.5-0.03l0.35,5.45
		l-0.5,0.03L123.14,66.95z M124.98,66.86l-0.35-5.45l0.51-0.03l0.98-0.04c0.54-0.03,0.92,0.06,1.16,0.27
		c0.23,0.21,0.37,0.57,0.4,1.08c0.04,0.58-0.05,0.97-0.27,1.18c-0.1,0.1-0.28,0.19-0.51,0.26l0.05-0.01
		c0.28-0.01,0.49,0.08,0.65,0.28c0.16,0.19,0.23,0.48,0.24,0.85c0,0.21,0.02,0.43,0.03,0.66c0.03,0.24,0.04,0.42,0.06,0.54
		c0.02,0.12,0.03,0.21,0.06,0.27l-0.51,0.03l-0.5,0.03c-0.02-0.06-0.03-0.15-0.05-0.27c-0.01-0.12-0.03-0.3-0.04-0.54l-0.04-0.67
		c-0.01-0.27-0.07-0.47-0.17-0.57c-0.1-0.1-0.28-0.16-0.52-0.15l-0.29,0.02l0.14,2.23l-0.5,0.02L124.98,66.86z M125.8,63.75
		l0.28-0.01c0.26-0.02,0.43-0.08,0.51-0.19c0.09-0.1,0.11-0.32,0.1-0.65c-0.02-0.29-0.08-0.49-0.17-0.6
		c-0.1-0.1-0.28-0.15-0.53-0.14l-0.28,0.02L125.8,63.75"/>
</g>
</svg>
