<?xml version="1.0" encoding="utf-8"?>
<!-- Generator: Adobe Illustrator 25.4.1, SVG Export Plug-In . SVG Version: 6.00 Build 0)  -->
<svg version="1.1" id="Layer_2" xmlns="http://www.w3.org/2000/svg" xmlns:xlink="http://www.w3.org/1999/xlink" x="0px" y="0px"
	 viewBox="0 0 500.63 80" style="enable-background:new 0 0 500.63 80;" xml:space="preserve">
<style type="text/css">
	.st0{fill:#E81142;}
</style>
<g>
	<path id="path14" class="st0" d="M388.84,57.37c-0.7,2.16-1.76,4.05-3.19,5.67c-1.44,1.61-3.27,2.87-5.51,3.75
		c-2.24,0.88-4.9,1.32-7.99,1.32c-2.35,0-4.26-0.11-5.73-0.33c-1.47-0.22-2.42-0.44-2.86-0.66V47.51c0-4.18,1.06-7.67,3.19-10.46
		c2.13-2.79,5.32-4.18,9.58-4.18c4.26,0,7.58,1.56,9.97,4.68c2.38,3.12,3.58,7.25,3.58,12.39C389.89,52.51,389.53,55.2,388.84,57.37
		 M397.98,27.58c-2.39-2.34-5.14-4.13-8.26-5.34c-3.12-1.21-6.44-1.82-9.97-1.82c-2.57,0-4.83,0.31-6.77,0.94
		c-1.95,0.62-3.6,1.36-4.95,2.2c-1.36,0.84-2.41,1.63-3.14,2.37s-1.17,1.21-1.32,1.43V1.32l-15.42,4.46v72.68
		c0.44,0.07,1.3,0.2,2.59,0.38c1.28,0.19,2.88,0.35,4.79,0.5s4.07,0.29,6.5,0.44s4.96,0.22,7.6,0.22c11.96,0,20.98-2.77,27.04-8.31
		c6.06-5.55,9.08-13.56,9.08-23.41c0-4.47-0.7-8.46-2.09-11.95C402.26,32.85,400.37,29.93,397.98,27.58 M319.01,52.91
		c0,4.19-1.07,7.67-3.19,10.46c-2.13,2.79-5.32,4.19-9.59,4.19c-4.25,0-7.58-1.56-9.96-4.68c-2.38-3.12-3.58-7.25-3.58-12.39
		c0-2.57,0.35-5.27,1.05-7.44c0.7-2.16,1.76-4.05,3.19-5.67c1.43-1.62,3.27-2.87,5.51-3.75s4.9-1.32,7.99-1.32
		c2.35,0,4.26,0.11,5.73,0.33c1.47,0.22,2.42,0.44,2.86,0.66V52.91z M326.95,22.9c-2.13-0.63-4.74-1.19-7.82-1.71
		c-3.09-0.51-6.61-0.77-10.58-0.77c-4.92,0-9.33,0.75-13.21,2.25c-3.89,1.51-7.22,3.62-9.97,6.34c-2.75,2.71-4.86,6-6.33,9.86
		c-1.47,3.86-2.2,8.64-2.2,13.27c0,4.55,0.7,8.57,2.09,12.06c1.39,3.49,3.26,6.41,5.62,8.76c2.35,2.35,5.1,4.11,8.26,5.29
		c3.15,1.17,6.5,1.76,10.02,1.76c2.5,0,4.72-0.31,6.66-0.94c1.95-0.62,3.59-1.33,4.96-2.14c1.35-0.8,2.42-1.6,3.19-2.37
		c0.77-0.77,1.23-1.26,1.37-1.49v5.4l15.42-0.01V26.04c-0.37-0.22-1.17-0.64-2.43-1.27C330.76,24.15,329.07,23.52,326.95,22.9
		 M276.65,22.6c-1.55-0.81-3.79-1.51-7.01-2.02c-1.84-0.29-3.79-0.43-5.84-0.43c-3.38,0-6.5,0.31-9.36,0.93
		c-2.87,0.63-5.38,1.32-7.54,2.09c-2.17,0.77-3.91,1.53-5.23,2.26c-1.32,0.73-2.13,1.21-2.42,1.43v51.61h15.42V35.34
		c0.66-0.37,1.84-0.86,3.53-1.49c1.69-0.63,4.07-0.94,7.16-0.94c1.03,0,2.11,0.08,3.25,0.22c1.14,0.15,2.05,0.27,3.19,0.6
		c0.1,0.03,0.18,0.05,0.27,0.08c1.6-3.87,3.08-7.49,4.44-10.84C276.55,22.85,276.6,22.72,276.65,22.6 M485.21,52.91
		c0,4.19-1.07,7.67-3.19,10.46c-2.13,2.79-5.32,4.19-9.59,4.19c-4.25,0-7.58-1.56-9.96-4.68c-2.38-3.12-3.58-7.25-3.58-12.39
		c0-2.57,0.35-5.27,1.05-7.44c0.7-2.16,1.76-4.05,3.2-5.67c1.43-1.62,3.27-2.87,5.5-3.75c2.24-0.88,4.9-1.32,7.99-1.32
		c2.34,0,4.26,0.11,5.73,0.33c1.47,0.22,2.42,0.44,2.86,0.66V52.91z M498.21,24.77c-1.24-0.62-2.94-1.24-5.06-1.87
		c-2.13-0.63-4.74-1.19-7.83-1.71c-3.08-0.51-6.61-0.77-10.57-0.77c-4.92,0-9.33,0.75-13.22,2.25c-3.89,1.51-7.21,3.62-9.96,6.34
		c-2.76,2.71-4.86,6-6.33,9.86c-1.47,3.86-2.2,8.64-2.2,13.27c0,4.55,0.7,8.57,2.09,12.06c1.4,3.49,3.27,6.41,5.62,8.76
		c2.35,2.35,5.1,4.11,8.26,5.29c3.15,1.17,6.5,1.76,10.02,1.76c2.5,0,4.72-0.31,6.66-0.94c1.94-0.62,3.59-1.33,4.95-2.14
		c1.36-0.8,2.43-1.6,3.2-2.37c0.77-0.77,1.23-1.26,1.37-1.49v5.4l15.42-0.01V26.04C500.26,25.81,499.45,25.39,498.21,24.77 M424.6,0
		c-2.36,0-4.37,0.81-6.06,2.43C416.85,4.04,416,6.02,416,8.37s0.85,4.35,2.54,6.01c1.69,1.65,3.7,2.48,6.06,2.48
		c2.42,0,4.47-0.83,6.16-2.48c1.69-1.65,2.53-3.66,2.53-6.01s-0.84-4.33-2.53-5.94C429.07,0.81,427.02,0,424.6,0 M416.94,78.46
		h15.42V20.42l-15.42,4.45V78.46z M178.29,46.95c1.33-3.57,2.68-7.18,4.05-10.79c1.36-3.62,2.62-6.94,3.76-9.98
		c1.15-3.04,2.16-5.64,3.05-7.82c0.88-2.18,1.51-3.66,1.88-4.44c0.37,0.78,1,2.26,1.88,4.44c0.89,2.18,1.9,4.78,3.04,7.82
		c1.14,3.03,2.4,6.36,3.77,9.98c1.37,3.61,2.71,7.22,4.04,10.79H178.29z M221.04,49.63c-1.84-4.82-3.69-9.47-5.53-13.95
		c-1.85-4.47-3.55-8.61-5.1-12.42c-1.55-3.82-2.95-7.14-4.21-9.98c-1.25-2.84-2.25-5.04-2.99-6.59c-1.62-3.66-2.33-5.3-2.33-5.3
		h-19.7c0,0-0.71,1.64-2.33,5.3c-0.74,1.56-1.74,3.75-2.99,6.59c-1.26,2.84-2.66,6.17-4.21,9.98c-1.54,3.81-3.25,7.95-5.09,12.42
		c-1.84,4.48-3.69,9.13-5.54,13.95c-1.84,4.83-3.69,9.69-5.53,14.59s-3.58,9.64-5.2,14.23h16.28l6.31-17.04h36.33l6.32,17.04h16.28
		c-1.62-4.59-3.36-9.33-5.21-14.23C224.73,59.32,222.89,54.45,221.04,49.63 M97.7,0c-2.35,0-4.37,0.81-6.06,2.43
		c-1.69,1.61-2.53,3.59-2.53,5.94s0.84,4.35,2.53,6.01c1.69,1.65,3.71,2.48,6.06,2.48c2.42,0,4.47-0.83,6.17-2.48
		c1.69-1.65,2.53-3.66,2.53-6.01s-0.85-4.33-2.53-5.94C102.17,0.81,100.12,0,97.7,0 M90.04,78.46h15.42V20.42l-15.42,4.45V78.46z
		 M28.01,46.95c1.33-3.57,2.68-7.18,4.05-10.79c1.37-3.62,2.62-6.94,3.77-9.98c1.14-3.04,2.16-5.64,3.05-7.82
		c0.88-2.18,1.51-3.66,1.88-4.44c0.38,0.78,1,2.26,1.88,4.44c0.89,2.18,1.91,4.78,3.05,7.82c1.14,3.03,2.4,6.36,3.76,9.98
		c1.37,3.61,2.72,7.22,4.05,10.79H28.01z M70.77,49.63c-1.84-4.82-3.7-9.47-5.54-13.95c-1.84-4.47-3.54-8.61-5.09-12.42
		c-1.55-3.82-2.96-7.14-4.21-9.98c-1.25-2.84-2.25-5.04-2.99-6.59c-1.63-3.66-2.33-5.3-2.33-5.3H30.9c0,0-0.71,1.64-2.33,5.3
		c-0.74,1.56-1.74,3.75-2.99,6.59c-1.25,2.84-2.66,6.17-4.21,9.98c-1.55,3.81-3.25,7.95-5.09,12.42c-1.84,4.48-3.7,9.13-5.54,13.95
		c-1.84,4.83-3.69,9.69-5.54,14.59c-1.84,4.9-3.58,9.64-5.2,14.23h16.28l6.31-17.04h36.33l6.31,17.04h16.28
		c-1.62-4.59-3.36-9.33-5.2-14.23S72.62,54.45,70.77,49.63 M152.78,33.82c1.59-3.87,3.08-7.49,4.44-10.84
		c0.05-0.13,0.1-0.25,0.15-0.38c-1.55-0.81-3.79-1.51-7.01-2.02c-1.84-0.29-3.79-0.43-5.84-0.43c-3.38,0-6.5,0.31-9.36,0.93
		c-2.87,0.63-5.38,1.32-7.54,2.09c-2.17,0.77-3.91,1.53-5.23,2.26c-1.32,0.73-2.13,1.21-2.42,1.43v51.61h15.42V35.34
		c0.66-0.37,1.83-0.86,3.53-1.49c1.69-0.63,4.07-0.94,7.16-0.94c1.03,0,2.11,0.08,3.25,0.22c1.14,0.15,2.05,0.27,3.19,0.6
		C152.61,33.77,152.69,33.79,152.78,33.82"/>
</g>
</svg>
