<?xml version="1.0" encoding="utf-8"?>
<!-- Generator: Adobe Illustrator 25.4.1, SVG Export Plug-In . SVG Version: 6.00 Build 0)  -->
<svg version="1.1" id="Layer_2" xmlns="http://www.w3.org/2000/svg" xmlns:xlink="http://www.w3.org/1999/xlink" x="0px" y="0px"
	 viewBox="0 0 170.54 80" style="enable-background:new 0 0 170.54 80;" xml:space="preserve">
<style type="text/css">
	.st0{fill:#008193;}
	.st1{fill:#002F5F;}
</style>
<g>
	<path class="st0" d="M68.07,47.73c-12.45-6.54-22.83-7.06-27.7-7.06H23.55l-0.93-1.66h19.82c1.35,0,17.85-0.21,27.5,2.39
		c12.14,3.22,20.44,9.55,22.1,10.69c1.56,1.04,23.76,16.81,23.76,16.81s-3.74,3.84-7.37,3.84c-3.42,0-7.16-2.7-7.16-2.7
		s-11.83-8.51-13.59-9.75C85.81,59.04,76.47,52.09,68.07,47.73"/>
	<path class="st0" d="M67.13,60.18c8.4,5.5,13.28,9.55,14.84,10.69C83.63,72.01,91,77.3,91,77.3s3.42,2.7,7.57,2.7
		c3.22,0,7.06-3.74,7.06-3.74s-17.74-12.55-19.3-13.59c-1.56-1.14-7.26-5.6-17.95-8.4c-8.82-2.28-21.48-2.28-22.31-2.28H29.88
		l0.93,1.66c0,0,12.14,0,13.07,0C46.07,53.75,58.42,54.27,67.13,60.18"/>
	<path class="st0" d="M69.83,34.66c10.79,5.81,21.37,13.8,23.35,15.15c1.97,1.45,18.16,12.97,18.16,12.97s3.74,2.59,7.26,2.59
		c3.42,0,7.26-3.74,7.26-3.74S100.02,43.06,97.74,41.4c-2.28-1.66-11.62-9.23-26.56-12.76c-11.72-2.91-31.13-2.59-32.48-2.59H15.05
		l0.93,1.66h20.65C40.88,27.71,57.38,27.91,69.83,34.66"/>
	<path class="st1" d="M163.42,34.35c-3.22-0.52-7.37-0.83-7.37-0.83l-5.71,1.66l-3.32-2.7c0,0,6.85,0.52,8.72,0.83
		c1.66,0,1.14-0.83,0.31-2.49c-0.83-1.66-2.7-1.66-2.7-1.66h-17.22c0,0-3.01,0-6.54-0.83c-3.63-0.83-4.98-3.42-4.98-3.42
		c-1.35,3.11,4.05,6.85,4.05,6.85l17.02,12.14c2.18,1.35,4.05,0.31,4.05,0.31s4.36-2.18,6.74-2.8c2.18-0.52,9.03-0.83,9.75-0.52
		c1.87,0.31,4.15,2.18,4.15,2.18C171.51,35.49,166.64,34.97,163.42,34.35"/>
	<path class="st1" d="M73.25,9.13c11.83,5.19,28.74,17.85,31.23,19.61c2.49,1.76,26.87,19.3,26.87,19.3s3.84,2.7,7.37,2.7
		c3.53,0,7.06-3.63,7.06-3.63s-34.45-24.69-36.94-26.46c-2.49-1.76-13.9-11.41-35.17-17.02C59.14-0.21,34.14,0,31.23,0H0l1.04,1.66
		h28.53C36.83,1.66,57.59,2.28,73.25,9.13"/>
	<path class="st1" d="M71.39,21.9c-12.76-6.33-28.53-7.16-37.66-7.16H8.51l-0.93-1.66h27.5c2.91,0,23.76-0.21,37.46,2.91
		c15.88,3.63,29.47,14.01,30.92,14.94c1.35,0.93,32.58,23.35,32.58,23.35s-3.53,3.63-7.37,3.63c-3.53,0-7.37-2.7-7.37-2.7
		s-20.34-14.53-22.31-15.98C96.91,37.87,83.32,27.81,71.39,21.9"/>
</g>
</svg>
