<?xml version="1.0" encoding="utf-8"?>
<!-- Generator: Adobe Illustrator 25.4.1, SVG Export Plug-In . SVG Version: 6.00 Build 0)  -->
<svg version="1.1" id="Layer_2" xmlns="http://www.w3.org/2000/svg" xmlns:xlink="http://www.w3.org/1999/xlink" x="0px" y="0px"
	 viewBox="0 0 299.37 80" style="enable-background:new 0 0 299.37 80;" xml:space="preserve">
<style type="text/css">
	.st0{fill:#008193;}
	.st1{fill:#002F5F;}
	.st2{fill:#5B5B5B;}
	.st3{fill:#504F4F;}
</style>
<g>
	<path class="st0" d="M250.08,22.96c-5.99-3.14-10.98-3.39-13.32-3.39h-8.08l-0.45-0.8h9.53c0.65,0,8.58-0.1,13.23,1.15
		c5.84,1.55,9.83,4.59,10.63,5.14c0.75,0.5,11.43,8.08,11.43,8.08s-1.8,1.85-3.54,1.85c-1.65,0-3.44-1.3-3.44-1.3
		s-5.69-4.09-6.54-4.69C258.61,28.4,254.12,25.05,250.08,22.96"/>
	<path class="st0" d="M249.63,28.95c4.04,2.65,6.39,4.59,7.14,5.14c0.8,0.55,4.34,3.09,4.34,3.09s1.65,1.3,3.64,1.3
		c1.55,0,3.39-1.8,3.39-1.8s-8.53-6.04-9.28-6.54c-0.75-0.55-3.49-2.69-8.63-4.04C245.99,25,239.9,25,239.5,25h-7.79l0.45,0.8
		c0,0,5.84,0,6.29,0C239.5,25.85,245.44,26.1,249.63,28.95"/>
	<path class="st0" d="M250.93,16.67c5.19,2.79,10.28,6.64,11.23,7.29c0.95,0.7,8.73,6.24,8.73,6.24s1.8,1.25,3.49,1.25
		c1.65,0,3.49-1.8,3.49-1.8s-12.43-8.93-13.52-9.73c-1.1-0.8-5.59-4.44-12.78-6.14c-5.64-1.4-14.97-1.25-15.62-1.25h-11.38l0.45,0.8
		h9.93C237,13.33,244.94,13.43,250.93,16.67"/>
	<path class="st1" d="M295.94,16.52c-1.55-0.25-3.54-0.4-3.54-0.4l-2.74,0.8l-1.6-1.3c0,0,3.29,0.25,4.19,0.4
		c0.8,0,0.55-0.4,0.15-1.2s-1.3-0.8-1.3-0.8h-8.28c0,0-1.45,0-3.14-0.4c-1.75-0.4-2.4-1.65-2.4-1.65c-0.65,1.5,1.95,3.29,1.95,3.29
		l8.18,5.84c1.05,0.65,1.95,0.15,1.95,0.15s2.1-1.05,3.24-1.35c1.05-0.25,4.34-0.4,4.69-0.25c0.9,0.15,2,1.05,2,1.05
		C299.83,17.07,297.49,16.82,295.94,16.52"/>
	<path class="st1" d="M252.57,4.39c5.69,2.5,13.82,8.58,15.02,9.43c1.2,0.85,12.93,9.28,12.93,9.28s1.85,1.3,3.54,1.3
		c1.7,0,3.39-1.75,3.39-1.75s-16.57-11.88-17.77-12.73c-1.2-0.85-6.69-5.49-16.92-8.18C245.79-0.1,233.76,0,232.36,0h-15.02l0.5,0.8
		h13.72C235.06,0.8,245.04,1.1,252.57,4.39"/>
	<path class="st1" d="M251.68,10.53c-6.14-3.04-13.72-3.44-18.12-3.44h-12.13l-0.45-0.8h13.23c1.4,0,11.43-0.1,18.02,1.4
		c7.64,1.75,14.17,6.74,14.87,7.19c0.65,0.45,15.67,11.23,15.67,11.23s-1.7,1.75-3.54,1.75c-1.7,0-3.54-1.3-3.54-1.3
		s-9.78-6.99-10.73-7.69C263.95,18.22,257.41,13.38,251.68,10.53"/>
	<path class="st2" d="M33.19,54.7c-0.15,0-0.9,0.05-1.2-0.3c-0.25-0.25-0.25-0.65-0.25-1v-1.05c-1.1,1.6-2.89,2.69-5.64,2.6
		c-4.34-0.15-5.24-3.49-5.24-5.39c0-0.65,0.05-1.95,1.05-3.24c1.5-2.15,4.69-2.84,7.54-2.84c1.2,0,2.15,0.15,2.15,0.15v-1.9
		c0-0.65,0-1.85-0.7-2.65c-0.6-0.65-1.65-1.15-3.49-1.15c-2.94,0-4.89,1.65-4.89,1.65l0.35-2.25c0,0,2-1.35,5.19-1.35
		c2.69,0,4.49,0.75,5.59,1.8c1.25,1.3,1.55,2.5,1.55,4.89V54.6 M31.49,45.37c0,0-0.95-0.2-2.05-0.2c-2.5,0-4.34,1.1-4.84,2.79
		c-0.1,0.3-0.15,1-0.15,1.35c0,2.1,1.45,3.29,3.24,3.29c0.35,0,0.9-0.05,1.4-0.25c1.3-0.45,2.35-1.35,2.35-2.69v-4.29H31.49z"/>
	<path class="st2" d="M45.11,38.58c-3.09,0.6-3.44,3.04-3.44,4.74V54.7h-3.64V38.43c0-1.6-1.05-1.9-1.05-1.9h3.59
		c0.8,0,1.05,0.45,1.05,0.95v1c0.1-0.35,1.45-2.05,3.84-2.15c0.8-0.05,1.7,0,2.15,0.3l0.5,2.3C47.61,38.68,46.61,38.28,45.11,38.58"
		/>
	<path class="st2" d="M62.53,54.7c-0.15,0-0.9,0.05-1.2-0.3c-0.3-0.25-0.3-0.75-0.3-1v-1.05c-1,1.6-2.74,2.6-5.19,2.6
		c-1.9,0-3.19-0.45-4.34-1.65c-1.2-1.35-1.5-2.99-1.5-5.19v-9.98c0-1.3-1.1-1.65-1.1-1.6h3.39c0.85,0,1.35,0.4,1.35,1.05v10.98
		c0,3.24,1,4.14,3.24,4.14c1.85,0,3.89-1.25,3.89-3.19V36.53h3.59V54.7"/>
	<path class="st2" d="M112.29,54.7c-0.75,0-1.2-0.3-1.2-1.25V31.99c0-1.35-1.05-1.85-1.05-1.85h3.49c1.05,0,1.5,0.5,1.5,1.25V54.7"
		/>
	<path class="st2" d="M161.74,55c-5.94-0.05-8.08-3.74-8.08-9.23c0-5.04,2.15-9.63,8.08-9.58c5.99,0.05,7.84,4.59,7.84,9.58
		C169.58,50.81,166.69,55,161.74,55 M161.79,38.08c-3.64-0.05-4.29,3.74-4.29,7.74c0,4.99,1.25,7.39,4.29,7.39
		c2.69,0,3.94-3.09,3.94-7.39C165.74,42.32,165.44,38.08,161.79,38.08"/>
	<path class="st2" d="M216.09,53.4c-1.3,1.1-2.99,1.6-4.94,1.65h-0.2c-2.84,0-4.39-0.75-5.09-1.15l-0.5-2.15
		c0,0,2.45,1.65,5.04,1.65c2.5,0,3.94-1.35,3.74-3.59c-0.25-3.54-8.43-2.69-8.43-8.53c0-3.19,2.6-4.89,5.84-4.94h0.2
		c3.34,0,4.54,1.2,4.54,1.2l0.5,2c0,0-1.45-1.4-4.29-1.4c-3.04,0-3.39,2.45-3.29,3.14c0.2,1.75,1.5,2.2,3.94,3.24
		c2.5,1.1,4.49,2.45,4.49,5.09C217.69,51.25,217.04,52.55,216.09,53.4"/>
	<path class="st2" d="M220.98,54.7c-0.7,0-1.05-0.35-1.05-0.95V38.18c0-1.2-1.15-1.65-1.15-1.65h3.69c0.75,0,1.05,0.4,1.05,1.05
		v17.07"/>
	<path class="st2" d="M121.22,36.53c0.7,0,1.05,0.3,1.05,0.95v1.45c1-1.6,2.74-2.65,5.14-2.65c1.9,0,3.19,0.45,4.34,1.65
		c1.2,1.35,1.5,2.94,1.5,5.19V54.7h-2.2c-0.9,0-1.45-0.6-1.45-1.5V42.72c0-3.24-0.95-4.14-3.24-4.14c-1.85,0-3.89,1.25-3.89,3.19
		V54.7h-3.59V38.13c0-1.3-1-1.55-1-1.55"/>
	<path class="st2" d="M238.3,54.7c-0.15,0-0.9,0.05-1.2-0.3c-0.25-0.25-0.25-0.65-0.25-1v-1.05c-1.1,1.6-2.94,2.69-5.69,2.6
		c-4.29-0.15-5.24-3.49-5.24-5.39c0-0.65,0.05-1.95,1.05-3.24c1.5-2.15,4.69-2.84,7.49-2.84c1.2,0,2.15,0.15,2.15,0.15v-1.9
		c0-0.65,0.1-1.75-0.65-2.65c-0.55-0.7-1.7-1.2-3.69-1.15c-3.39,0.05-4.74,1.65-4.74,1.65l0.35-2.25c0,0,2-1.35,5.19-1.35
		c2.65,0,4.49,0.75,5.59,1.8c1.25,1.3,1.55,2.5,1.55,4.89V54.6 M236.6,45.37c0,0-0.9-0.2-2.05-0.2c-2.5,0-4.29,1.1-4.84,2.79
		c-0.1,0.3-0.15,1-0.15,1.35c0,2.1,1.5,3.29,3.24,3.29c0.35,0,0.95-0.05,1.4-0.25c1.3-0.45,2.35-1.35,2.35-2.69v-4.29H236.6z"/>
	<path class="st2" d="M79.65,54.7c-0.7,0-0.95-0.25-0.95-0.9v-0.9c-1.35,1.2-2.69,2-4.69,2.05h-0.05c-5.19,0-6.99-4.39-6.99-9.23
		c0-3.64,1.4-9.58,7.19-9.58c3.44,0,4.39,2.1,4.39,2.1v-6.24c0-1.3-1.1-1.95-1.1-1.95h2.84c1.05,0,1.9,0.75,1.9,1.55v23.06
		 M78.5,42.67c0-1-0.15-2.5-0.95-3.39c-0.6-0.6-1.5-1-2.79-1c-3.54,0-3.94,4.64-3.94,7.24v0.25c0.05,3.59,1.05,7.14,3.99,7.14
		c1.6,0,2.69-0.6,3.64-1.85v-8.38H78.5z"/>
	<path class="st2" d="M97.17,54.7c-0.15,0-0.85,0.05-1.2-0.3c-0.3-0.25-0.3-0.65-0.3-1v-1.05c-1.05,1.6-2.89,2.69-5.64,2.6
		c-4.29-0.15-5.24-3.49-5.24-5.39c0-0.65,0.05-1.95,1.05-3.24c1.55-2.15,4.69-2.84,7.54-2.84c1.2,0,2.15,0.15,2.15,0.15v-1.9
		c0-0.65,0-1.85-0.65-2.65c-0.6-0.65-1.65-1.15-3.49-1.15c-2.99,0-4.89,1.65-4.89,1.65l0.35-2.25c0,0,2-1.35,5.19-1.35
		c2.69,0,4.54,0.75,5.59,1.8c1.25,1.3,1.55,2.5,1.55,4.89V54.6 M95.47,45.37c0,0-0.9-0.2-2.05-0.2c-2.5,0-4.34,1.1-4.84,2.79
		c-0.15,0.3-0.15,1-0.15,1.35c0,2.1,1.45,3.29,3.29,3.29c0.35,0,0.9-0.05,1.4-0.25c1.25-0.45,2.35-1.35,2.35-2.69V45.37z"/>
	<path class="st2" d="M148.62,54.7c-0.7,0-0.95-0.25-0.95-0.9v-0.9c-1.35,1.2-2.69,2-4.69,2.05h-0.1c-5.19,0-6.94-4.39-6.94-9.23
		c0-3.64,1.4-9.58,7.14-9.58c3.49,0,4.44,2.1,4.44,2.1v-6.24c0-1.3-1.1-1.95-1.1-1.95h2.84c1.1,0,1.9,0.75,1.9,1.55v23.06
		 M147.47,42.67c0-1-0.15-2.5-0.95-3.39c-0.6-0.6-1.5-1-2.79-1c-3.54,0-3.94,4.64-3.94,7.24v0.25c0.05,3.59,1.05,7.14,3.99,7.14
		c1.6,0,2.69-0.6,3.69-1.85V42.67z"/>
	<path class="st2" d="M174.52,36.53c0.7,0,1.05,0.3,1.05,0.95v1.45c1-1.6,2.74-2.65,5.19-2.65c1.9,0,3.14,0.45,4.29,1.65
		c1.15,1.35,1.5,2.94,1.5,5.19V54.7h-2.2c-0.9,0-1.45-0.6-1.45-1.5V42.72c0-3.24-0.95-4.14-3.24-4.14c-1.85,0-3.89,1.25-3.89,3.19
		V54.7h-3.59V38.13c0-1.3-1-1.55-1-1.55"/>
	<path class="st2" d="M14.97,54.85c-1.45,0.2-2.35,0.25-3.74,0.25c-3.74,0-6.14-1.15-7.89-2.89C0.7,49.56,0,45.22,0,42.52
		c0-2.2,0.4-6.49,3.89-9.83c1.65-1.55,4.19-2.84,7.98-2.84c3.39,0,5.04,0.95,5.04,0.95l0.65,2.25c-0.15-0.1-1.9-1.1-4.79-1.1
		c-5.99,0-8.53,4.14-8.53,10.53c0,9.68,4.74,10.43,7.39,10.43c1.9,0,2.65-0.3,2.65-0.3v-9.63h-2.1c-1.4,0-2,0.25-2,0.25l0.3-1.95
		h7.69V54.1C16.92,54.5,16.22,54.7,14.97,54.85"/>
	<path class="st2" d="M198.33,36.08c4.29,0.3,5.24,3.54,5.24,5.39c0,0.65-0.05,1.9-1.05,3.24c-1.55,2.15-4.69,2.84-7.54,2.84
		c-1.2,0-2.15-0.2-2.15-0.2v1.7c0,3.19,1.7,4.04,4.49,3.99c3.14-0.05,5.59-2,5.59-2l-0.35,2.25c0,0-2.84,1.65-6.04,1.65
		c-2.69,0-4.69-0.7-5.79-1.85c-1.35-1.4-1.55-3.24-1.55-5.64v-3.99C189.24,40.18,190.64,35.53,198.33,36.08 M192.89,45.61
		c0,0,0.95,0.2,2.05,0.2c3.99,0,4.94-2,5.14-4.24c0.15-2.05-0.4-4.09-3.54-3.69c-2.84,0.35-3.64,2.25-3.64,4.59
		C192.89,44.37,192.89,45.61,192.89,45.61"/>
	<polygon class="st3" points="50.16,64.78 47.16,64.78 44.62,76.91 43.07,76.91 45.61,64.73 42.12,64.73 42.77,63.38 50.75,63.38 	
		"/>
	<path class="st3" d="M57.34,71.67l-1.15,5.24h-1.25l1.15-5.24c0.1-0.55,0.2-1.1,0.2-1.55s0-0.9-0.1-1.2c-0.1-0.35-0.25-0.6-0.5-0.8
		c-0.2-0.2-0.5-0.25-0.85-0.25c-0.5,0-1,0.25-1.45,0.7s-0.85,1-1.2,1.7c-0.35,0.65-0.7,1.4-0.95,2.15c-0.25,0.75-0.5,1.45-0.65,2.05
		l-0.65,2.55h-1.25l2.89-13.62h1.3l-1.65,7.64c0.25-0.8,0.6-1.5,0.95-2.1c0.15-0.25,0.35-0.55,0.55-0.8c0.2-0.25,0.4-0.5,0.65-0.7
		c0.25-0.2,0.5-0.35,0.75-0.5c0.3-0.15,0.55-0.2,0.9-0.2c0.55,0,1,0.15,1.4,0.35c0.35,0.25,0.65,0.6,0.85,1.05
		c0.2,0.45,0.3,0.95,0.3,1.55C57.59,70.27,57.54,70.92,57.34,71.67"/>
	<path class="st3" d="M66.47,70.82c-0.1,0.45-0.25,0.75-0.45,0.9c-0.15,0.15-0.3,0.25-0.4,0.25l-5.44,0.35
		c-0.1,0.55-0.1,1.05,0,1.55c0.05,0.2,0.1,0.4,0.2,0.6c0.1,0.2,0.2,0.4,0.35,0.55c0.15,0.2,0.35,0.35,0.55,0.45
		c0.2,0.15,0.5,0.2,0.8,0.3c0.45,0.1,0.9,0.1,1.25,0.05c0.35-0.05,0.7-0.15,1-0.3c0.3-0.15,0.6-0.3,0.9-0.55l-0.3,1.1
		c-0.05,0.1-0.05,0.15-0.1,0.2c-0.05,0.05-0.1,0.1-0.25,0.2c-0.05,0.05-0.1,0.1-0.25,0.15c-0.15,0.1-0.35,0.15-0.55,0.2
		c-0.25,0.05-0.55,0.1-0.9,0.15c-0.35,0-0.75,0-1.25-0.1c-0.5-0.1-1-0.25-1.4-0.55c-0.4-0.3-0.75-0.65-1-1.1
		c-0.25-0.45-0.45-0.95-0.55-1.55c-0.1-0.6-0.05-1.25,0.05-1.9c0.15-0.9,0.4-1.65,0.75-2.35c0.35-0.65,0.75-1.25,1.25-1.65
		c0.45-0.45,1-0.75,1.5-0.95c0.55-0.2,1.1-0.25,1.6-0.2c0.55,0.05,1.05,0.25,1.4,0.55c0.35,0.3,0.65,0.65,0.85,1.05
		c0.2,0.4,0.35,0.85,0.35,1.3C66.62,70.02,66.57,70.47,66.47,70.82 M65.18,70.47c0.1-0.35,0.1-0.7,0.1-1
		c-0.05-0.3-0.1-0.6-0.25-0.85s-0.3-0.45-0.55-0.6c-0.25-0.15-0.5-0.25-0.8-0.25c-0.35-0.05-0.65,0-0.95,0.1
		c-0.3,0.1-0.55,0.2-0.75,0.4c-0.2,0.15-0.4,0.35-0.6,0.55c-0.15,0.2-0.3,0.45-0.45,0.7c-0.3,0.55-0.5,1.15-0.65,1.85l4.34-0.35
		c0.1,0,0.2-0.05,0.3-0.15C65.08,70.77,65.13,70.67,65.18,70.47"/>
	<path class="st3" d="M79.35,76.91l-0.25-2.84h-5.49l-1.55,2.84h-1.65l7.09-13.52h1.95l1.5,13.52H79.35z M78.25,65.13l-3.89,7.54H79
		L78.25,65.13z"/>
	<path class="st3" d="M85.14,66.92l-2.1,9.93H81.8l2.1-9.93H85.14 M85.89,64.43c-0.05,0.25-0.15,0.45-0.35,0.55s-0.4,0.15-0.6,0.15
		c-0.2-0.05-0.4-0.1-0.55-0.25s-0.2-0.3-0.15-0.55c0.05-0.25,0.15-0.45,0.35-0.55c0.2-0.1,0.4-0.15,0.6-0.15c0.2,0,0.4,0.1,0.5,0.25
		C85.84,63.98,85.94,64.18,85.89,64.43"/>
	<path class="st3" d="M91.93,68.27c-0.05-0.05-0.1-0.15-0.2-0.2c-0.1-0.05-0.15-0.1-0.3-0.15c-0.1-0.05-0.3-0.05-0.5-0.05
		c-0.35,0-0.65,0.1-0.95,0.3c-0.3,0.2-0.6,0.5-0.85,0.85c-0.25,0.35-0.5,0.75-0.7,1.2c-0.2,0.45-0.4,0.9-0.6,1.4
		c-0.2,0.5-0.35,0.95-0.45,1.45c-0.15,0.5-0.25,0.9-0.35,1.3l-0.65,2.55h-1.25l2.1-9.98h1.25l-0.75,3.49
		c0.2-0.65,0.45-1.25,0.7-1.75c0.15-0.2,0.25-0.45,0.4-0.65s0.3-0.45,0.5-0.6c0.2-0.2,0.4-0.35,0.6-0.45c0.2-0.1,0.45-0.2,0.7-0.2
		s0.45,0,0.6,0.05c0.15,0.05,0.3,0.1,0.4,0.15c0.1,0.05,0.15,0.15,0.2,0.3v1"/>
	<polygon class="st3" points="91.83,76.91 90.58,76.91 93.47,63.28 94.77,63.28 	"/>
	<path class="st3" d="M97.47,66.92l-2.1,9.93h-1.25l2.1-9.93H97.47 M98.21,64.43c-0.05,0.25-0.15,0.45-0.35,0.55
		c-0.2,0.1-0.4,0.15-0.6,0.15c-0.2-0.05-0.4-0.1-0.5-0.25c-0.15-0.15-0.2-0.3-0.15-0.55c0.05-0.25,0.15-0.45,0.35-0.55
		c0.2-0.1,0.4-0.15,0.6-0.15c0.2,0,0.4,0.1,0.5,0.25C98.16,63.98,98.21,64.18,98.21,64.43"/>
	<path class="st3" d="M105.5,71.67l-1.15,5.24h-1.25l1.15-5.24c0.15-0.55,0.2-1.1,0.2-1.55s0-0.9-0.1-1.2
		c-0.1-0.35-0.25-0.6-0.5-0.8c-0.2-0.2-0.5-0.25-0.85-0.25c-0.5,0-1,0.25-1.45,0.7s-0.85,1-1.2,1.7c-0.35,0.65-0.7,1.35-0.95,2.15
		c-0.25,0.75-0.5,1.45-0.65,2.05l-0.65,2.55h-1.25l2.15-9.93h1.25l-0.85,3.99c0.25-0.8,0.6-1.5,0.95-2.1
		c0.15-0.25,0.35-0.55,0.55-0.8c0.2-0.25,0.4-0.5,0.65-0.7s0.5-0.35,0.75-0.5c0.3-0.15,0.55-0.2,0.9-0.2c0.55,0,1,0.15,1.4,0.35
		c0.4,0.2,0.65,0.6,0.85,1.05c0.2,0.45,0.3,0.95,0.3,1.55C105.75,70.27,105.65,70.92,105.5,71.67"/>
	<path class="st3" d="M114.63,70.82c-0.1,0.45-0.25,0.75-0.45,0.9c-0.15,0.15-0.3,0.25-0.4,0.25l-5.44,0.35
		c-0.1,0.55-0.1,1.05,0,1.55c0.05,0.2,0.1,0.4,0.2,0.6c0.1,0.2,0.2,0.4,0.35,0.55c0.15,0.2,0.35,0.35,0.55,0.45
		c0.2,0.15,0.45,0.2,0.8,0.3c0.45,0.1,0.9,0.1,1.25,0.05c0.35-0.05,0.7-0.15,1-0.3c0.3-0.15,0.6-0.3,0.9-0.55l-0.3,1.1
		c-0.05,0.1-0.05,0.15-0.1,0.2c-0.05,0.05-0.1,0.1-0.25,0.2c-0.05,0.05-0.1,0.1-0.25,0.15c-0.15,0.1-0.3,0.15-0.55,0.2
		s-0.55,0.1-0.9,0.15c-0.35,0-0.75,0-1.25-0.1c-0.5-0.1-1-0.25-1.4-0.55c-0.4-0.3-0.75-0.65-1-1.1c-0.25-0.45-0.45-0.95-0.55-1.55
		c-0.1-0.6-0.05-1.25,0.05-1.9c0.15-0.9,0.4-1.65,0.75-2.35c0.35-0.65,0.75-1.25,1.25-1.65c0.45-0.45,1-0.75,1.5-0.95
		c0.55-0.2,1.1-0.25,1.6-0.2c0.55,0.05,1.05,0.25,1.4,0.55s0.65,0.65,0.85,1.05c0.2,0.4,0.3,0.85,0.35,1.3
		C114.73,70.02,114.73,70.47,114.63,70.82 M113.34,70.47c0.1-0.35,0.1-0.7,0.1-1c-0.05-0.3-0.1-0.6-0.25-0.85s-0.3-0.45-0.55-0.6
		c-0.25-0.15-0.5-0.25-0.8-0.25c-0.35-0.05-0.65,0-0.95,0.1c-0.3,0.1-0.55,0.2-0.75,0.4c-0.2,0.15-0.4,0.35-0.6,0.55
		c-0.15,0.2-0.3,0.45-0.45,0.7c-0.3,0.55-0.5,1.15-0.65,1.85l4.34-0.35c0.1,0,0.2-0.05,0.3-0.15
		C113.24,70.77,113.29,70.67,113.34,70.47"/>
	<path class="st3" d="M127.96,71.97c-0.15,0.85-0.35,1.6-0.65,2.3c-0.3,0.7-0.65,1.25-1.1,1.7c-0.45,0.45-0.95,0.75-1.5,0.95
		c-0.6,0.2-1.2,0.25-1.95,0.15c-0.75-0.1-1.3-0.35-1.75-0.7c-0.4-0.35-0.7-0.8-0.95-1.25c-0.2-0.5-0.3-1-0.35-1.55
		c-0.05-0.55,0-1.05,0.05-1.5c0.1-0.85,0.3-1.65,0.6-2.3c0.3-0.7,0.65-1.25,1.05-1.7c0.45-0.45,0.95-0.8,1.55-1
		c0.6-0.2,1.25-0.3,2-0.2c0.65,0.05,1.2,0.3,1.65,0.6c0.45,0.35,0.75,0.75,1,1.25c0.25,0.5,0.4,1.05,0.4,1.65
		C128.11,70.77,128.06,71.37,127.96,71.97 M126.46,72.02c0.05-0.35,0.1-0.7,0.1-1.15c0.05-0.45,0-0.9-0.1-1.3
		c-0.1-0.45-0.25-0.8-0.55-1.15c-0.25-0.35-0.65-0.55-1.15-0.6c-0.55-0.05-1,0-1.4,0.15c-0.4,0.2-0.75,0.45-1,0.85
		c-0.3,0.4-0.55,0.85-0.7,1.4c-0.2,0.55-0.35,1.15-0.4,1.85c-0.05,0.5-0.1,1-0.05,1.45c0.05,0.45,0.1,0.85,0.25,1.2
		c0.15,0.35,0.35,0.65,0.6,0.9c0.25,0.25,0.6,0.35,1,0.4c0.55,0.1,1.05,0,1.45-0.25c0.4-0.25,0.75-0.6,1.05-1s0.5-0.85,0.65-1.35
		C126.31,72.86,126.41,72.41,126.46,72.02"/>
	<path class="st3" d="M134.45,64.88c-0.05-0.1-0.1-0.2-0.2-0.25c-0.05-0.05-0.15-0.1-0.3-0.15c-0.1-0.05-0.3-0.05-0.5-0.05
		c-0.2,0-0.35,0.05-0.5,0.2c-0.15,0.1-0.25,0.25-0.35,0.4c-0.1,0.15-0.15,0.3-0.2,0.45s-0.1,0.25-0.1,0.35l-0.25,1.15h1.85
		l-0.35,1.05h-1.75L129.31,80h-1.3l2.5-11.98h-1.5l0.35-1.05h1.4l0.25-1.15c0.05-0.3,0.15-0.65,0.25-0.95
		c0.1-0.3,0.25-0.55,0.45-0.8c0.15-0.25,0.4-0.4,0.65-0.55c0.25-0.15,0.55-0.2,0.85-0.2c0.25,0,0.45,0.05,0.6,0.1
		c0.15,0.05,0.3,0.1,0.4,0.2c0.1,0.1,0.15,0.15,0.2,0.25v1"/>
	<polygon class="st3" points="138.44,76.91 136.89,76.91 139.74,63.38 141.23,63.38 	"/>
	<path class="st3" d="M149.22,71.67l-1.15,5.24h-1.3l1.15-5.24c0.1-0.55,0.2-1.1,0.2-1.55s0-0.9-0.1-1.2c-0.1-0.35-0.25-0.6-0.5-0.8
		c-0.2-0.2-0.5-0.25-0.85-0.25c-0.5,0-1,0.25-1.45,0.7c-0.45,0.45-0.85,1-1.2,1.7c-0.35,0.65-0.7,1.35-0.95,2.15
		c-0.25,0.75-0.5,1.45-0.6,2.05l-0.65,2.55h-1.3l2.15-9.93h1.25l-0.85,3.99c0.25-0.8,0.6-1.5,0.95-2.1c0.15-0.25,0.35-0.55,0.55-0.8
		s0.4-0.5,0.65-0.7s0.5-0.35,0.75-0.5c0.3-0.15,0.6-0.2,0.9-0.2c0.55,0,1,0.15,1.4,0.35c0.35,0.25,0.65,0.6,0.85,1.05
		c0.2,0.45,0.3,0.95,0.3,1.55C149.42,70.27,149.37,70.92,149.22,71.67"/>
	<path class="st3" d="M160.15,63.33l-2.89,13.57h-1.25l0.85-4.04c-0.25,0.75-0.55,1.45-0.95,2.05c-0.15,0.25-0.35,0.5-0.55,0.75
		c-0.2,0.25-0.4,0.45-0.65,0.65c-0.25,0.2-0.5,0.35-0.8,0.5c-0.25,0.1-0.55,0.2-0.9,0.2c-0.65,0.05-1.15-0.15-1.5-0.5
		c-0.35-0.35-0.65-0.8-0.8-1.3c-0.15-0.55-0.25-1.1-0.25-1.7c0-0.6,0.05-1.1,0.1-1.55c0.1-0.7,0.3-1.35,0.6-1.95
		c0.3-0.65,0.65-1.2,1.05-1.65c0.4-0.5,0.9-0.9,1.4-1.2s1.1-0.45,1.7-0.45c0.4,0,0.8,0.05,1.1,0.15c0.3,0.15,0.55,0.25,0.8,0.4
		c0.2,0.15,0.4,0.35,0.6,0.65l1-4.59L160.15,63.33 M157.65,68.92c-0.15-0.25-0.3-0.45-0.45-0.6c-0.15-0.15-0.35-0.3-0.65-0.4
		c-0.25-0.1-0.6-0.15-0.95-0.15c-0.5,0-0.95,0.1-1.35,0.35c-0.4,0.2-0.75,0.5-1,0.9c-0.3,0.35-0.55,0.8-0.7,1.35
		c-0.2,0.5-0.35,1.1-0.45,1.75c-0.1,0.5-0.1,0.95-0.1,1.4c0,0.45,0.05,0.85,0.15,1.2c0.1,0.35,0.25,0.65,0.45,0.85
		c0.2,0.2,0.45,0.35,0.7,0.4c0.3,0.05,0.6-0.05,0.9-0.25c0.3-0.2,0.6-0.45,0.85-0.8c0.3-0.35,0.55-0.75,0.8-1.2
		c0.25-0.45,0.5-0.9,0.7-1.4c0.2-0.5,0.4-0.95,0.55-1.45c0.15-0.5,0.3-0.9,0.4-1.3L157.65,68.92z"/>
	<path class="st3" d="M168.03,71.97c-0.15,0.85-0.35,1.6-0.65,2.3c-0.3,0.7-0.65,1.25-1.1,1.7s-0.95,0.75-1.5,0.95
		c-0.55,0.2-1.2,0.25-1.95,0.15c-0.75-0.1-1.3-0.35-1.75-0.7c-0.4-0.35-0.75-0.8-0.95-1.25c-0.2-0.5-0.3-1-0.35-1.55
		s0-1.05,0.05-1.5c0.1-0.85,0.3-1.65,0.6-2.3c0.3-0.7,0.65-1.25,1.05-1.7c0.45-0.45,0.95-0.8,1.55-1c0.6-0.2,1.25-0.3,2-0.2
		c0.65,0.05,1.2,0.3,1.65,0.6c0.45,0.35,0.75,0.75,1,1.25c0.25,0.5,0.4,1.05,0.4,1.65C168.13,70.77,168.13,71.37,168.03,71.97
		 M166.54,72.02c0.05-0.35,0.1-0.7,0.1-1.15c0.05-0.45,0-0.9-0.1-1.3c-0.1-0.45-0.25-0.8-0.55-1.15c-0.25-0.35-0.65-0.55-1.15-0.6
		c-0.55-0.05-1,0-1.4,0.15c-0.4,0.2-0.75,0.45-1,0.85c-0.3,0.4-0.55,0.85-0.7,1.4c-0.2,0.55-0.35,1.15-0.4,1.85
		c-0.05,0.5-0.1,1-0.05,1.45c0.05,0.45,0.1,0.85,0.25,1.2c0.15,0.35,0.35,0.65,0.6,0.9s0.6,0.35,1,0.4c0.55,0.1,1.05,0,1.45-0.25
		c0.4-0.25,0.75-0.6,1.05-1s0.5-0.85,0.65-1.35C166.34,72.86,166.44,72.41,166.54,72.02"/>
	<path class="st3" d="M176.72,71.67l-1.15,5.24h-1.25l1.15-5.24c0.1-0.55,0.2-1.1,0.2-1.55s0-0.9-0.1-1.2
		c-0.1-0.35-0.25-0.6-0.5-0.8c-0.25-0.2-0.5-0.25-0.85-0.25c-0.5,0-1,0.25-1.45,0.7c-0.45,0.45-0.85,1-1.2,1.7
		c-0.35,0.65-0.7,1.35-0.95,2.15c-0.25,0.75-0.5,1.45-0.65,2.05l-0.65,2.55h-1.25l2.15-9.93h1.25l-0.85,3.99
		c0.25-0.8,0.6-1.5,0.95-2.1c0.15-0.25,0.35-0.55,0.55-0.8c0.2-0.25,0.4-0.5,0.65-0.7c0.25-0.2,0.5-0.35,0.75-0.5
		c0.3-0.15,0.6-0.2,0.9-0.2c0.55,0,1,0.15,1.4,0.35c0.35,0.25,0.65,0.6,0.85,1.05c0.2,0.45,0.3,0.95,0.3,1.55
		C176.97,70.27,176.87,70.92,176.72,71.67"/>
	<path class="st3" d="M185.85,70.82c-0.1,0.45-0.25,0.75-0.45,0.9c-0.15,0.15-0.3,0.25-0.4,0.25l-5.44,0.35
		c-0.1,0.55-0.1,1.05,0,1.55c0.05,0.2,0.1,0.4,0.2,0.6c0.1,0.2,0.2,0.4,0.35,0.55c0.15,0.2,0.35,0.35,0.55,0.45
		c0.2,0.15,0.45,0.2,0.8,0.3c0.45,0.1,0.9,0.1,1.25,0.05c0.35-0.05,0.7-0.15,1-0.3c0.3-0.15,0.6-0.3,0.9-0.55l-0.3,1.1
		c0,0.1-0.05,0.15-0.1,0.2c-0.05,0.05-0.1,0.1-0.25,0.2c-0.05,0.05-0.1,0.1-0.25,0.15c-0.15,0.1-0.3,0.15-0.55,0.2
		s-0.55,0.1-0.9,0.15c-0.35,0-0.75,0-1.25-0.1c-0.5-0.1-1-0.25-1.4-0.55s-0.75-0.65-1-1.1c-0.25-0.45-0.45-0.95-0.55-1.55
		c-0.1-0.6-0.05-1.25,0.05-1.9c0.15-0.9,0.4-1.65,0.75-2.35c0.35-0.65,0.75-1.25,1.25-1.65c0.45-0.45,1-0.75,1.5-0.95
		c0.55-0.2,1.1-0.25,1.6-0.2c0.55,0.05,1.05,0.25,1.4,0.55c0.35,0.3,0.65,0.65,0.85,1.05c0.2,0.4,0.35,0.85,0.35,1.3
		C185.95,70.02,185.95,70.47,185.85,70.82 M184.55,70.47c0.1-0.35,0.1-0.7,0.1-1c-0.05-0.3-0.1-0.6-0.25-0.85
		c-0.15-0.25-0.3-0.45-0.55-0.6c-0.25-0.15-0.5-0.25-0.8-0.25c-0.35-0.05-0.65,0-0.95,0.1s-0.55,0.2-0.75,0.4
		c-0.2,0.15-0.4,0.35-0.6,0.55c-0.15,0.2-0.3,0.45-0.45,0.7c-0.3,0.55-0.5,1.15-0.65,1.85l4.34-0.35c0.1,0,0.2-0.05,0.3-0.15
		C184.45,70.77,184.5,70.67,184.55,70.47"/>
	<path class="st3" d="M192.89,68.72c-0.1-0.15-0.3-0.3-0.45-0.4c-0.15-0.1-0.35-0.2-0.6-0.3s-0.5-0.15-0.8-0.2
		c-0.65-0.1-1.15,0-1.55,0.2c-0.4,0.2-0.65,0.55-0.7,1c-0.05,0.35,0,0.65,0.15,0.95s0.4,0.55,0.65,0.8c0.25,0.25,0.55,0.5,0.9,0.8
		c0.35,0.25,0.65,0.55,0.9,0.85c0.25,0.3,0.5,0.6,0.65,0.95c0.15,0.35,0.2,0.75,0.15,1.25c-0.05,0.45-0.2,0.85-0.4,1.2
		c-0.2,0.35-0.5,0.6-0.8,0.8c-0.35,0.2-0.7,0.35-1.15,0.4c-0.4,0.1-0.9,0.1-1.35,0.05c-0.35-0.05-0.65-0.1-0.95-0.15
		c-0.3-0.1-0.55-0.15-0.75-0.25c-0.2-0.1-0.4-0.2-0.5-0.25c-0.15-0.1-0.2-0.15-0.25-0.2c-0.1-0.1-0.15-0.2-0.15-0.3s0-0.2,0.05-0.25
		l0.15-0.9c0.25,0.2,0.5,0.4,0.75,0.55c0.25,0.15,0.55,0.25,0.85,0.4c0.3,0.1,0.65,0.2,1.05,0.2c0.2,0.05,0.45,0,0.7,0
		c0.25-0.05,0.45-0.1,0.65-0.2c0.2-0.1,0.35-0.25,0.5-0.4c0.15-0.15,0.2-0.4,0.25-0.65c0.05-0.35,0-0.7-0.15-1
		c-0.15-0.3-0.35-0.6-0.65-0.85c-0.25-0.25-0.55-0.5-0.9-0.75c-0.35-0.25-0.65-0.55-0.9-0.8c-0.25-0.3-0.5-0.6-0.65-0.95
		c-0.15-0.35-0.25-0.75-0.2-1.15c0.05-0.4,0.15-0.75,0.35-1.1c0.2-0.3,0.45-0.55,0.75-0.8c0.3-0.2,0.65-0.35,1.05-0.45
		c0.4-0.1,0.8-0.15,1.25-0.1c0.35,0.05,0.65,0.1,0.9,0.15c0.25,0.1,0.45,0.15,0.65,0.2c0.2,0.1,0.4,0.2,0.55,0.25V68.72"/>
	<path class="st3" d="M196.18,66.92l-2.1,9.93h-1.25l2.1-9.93H196.18 M196.93,64.43c-0.05,0.25-0.15,0.45-0.35,0.55
		c-0.2,0.1-0.4,0.15-0.6,0.15c-0.2-0.05-0.4-0.1-0.55-0.25s-0.2-0.3-0.15-0.55c0.05-0.25,0.15-0.45,0.35-0.55
		c0.2-0.1,0.4-0.15,0.6-0.15c0.2,0,0.4,0.1,0.5,0.25C196.88,63.98,196.93,64.18,196.93,64.43"/>
	<path class="st3" d="M205.11,66.92l-2.1,9.98h-1.35l0.95-4.04c-0.25,0.75-0.55,1.45-0.95,2.05c-0.15,0.25-0.35,0.5-0.55,0.75
		c-0.2,0.25-0.4,0.45-0.65,0.65c-0.25,0.2-0.5,0.35-0.8,0.5c-0.3,0.1-0.55,0.2-0.9,0.2c-0.65,0.05-1.15-0.15-1.5-0.5
		c-0.35-0.35-0.65-0.8-0.8-1.3c-0.15-0.55-0.25-1.1-0.25-1.7c0-0.6,0.05-1.1,0.15-1.55c0.1-0.7,0.3-1.35,0.6-1.95
		c0.3-0.65,0.6-1.2,1.05-1.65c0.4-0.5,0.9-0.85,1.4-1.15c0.5-0.3,1.1-0.45,1.7-0.5c0.4,0,0.8,0.05,1.1,0.15
		c0.3,0.15,0.55,0.25,0.8,0.45c0.2,0.15,0.4,0.35,0.6,0.65c0-0.1,0.05-0.2,0.05-0.3c0-0.1,0.05-0.15,0.05-0.25
		c0.05-0.1,0.05-0.15,0.05-0.2c0.1-0.2,0.3-0.3,0.55-0.3L205.11,66.92 M203.42,68.92c-0.15-0.25-0.3-0.5-0.45-0.65
		c-0.15-0.15-0.35-0.3-0.65-0.4c-0.25-0.1-0.6-0.15-0.95-0.15c-0.5,0.05-1,0.2-1.4,0.5c-0.4,0.3-0.75,0.65-1.05,1.05
		c-0.3,0.4-0.55,0.85-0.7,1.35c-0.2,0.5-0.3,0.95-0.4,1.4c-0.1,0.5-0.15,0.95-0.1,1.4c0,0.45,0.05,0.85,0.15,1.2
		c0.1,0.35,0.25,0.65,0.45,0.85c0.2,0.2,0.45,0.35,0.7,0.4c0.3,0.05,0.6-0.05,0.9-0.25c0.3-0.2,0.6-0.45,0.85-0.8
		c0.3-0.35,0.55-0.75,0.8-1.2s0.5-0.9,0.7-1.4c0.2-0.5,0.4-0.95,0.55-1.45c0.15-0.5,0.3-0.9,0.4-1.3L203.42,68.92z"/>
</g>
</svg>
