<?xml version="1.0" encoding="utf-8"?>
<!-- Generator: Adobe Illustrator 25.4.1, SVG Export Plug-In . SVG Version: 6.00 Build 0)  -->
<svg version="1.1" id="Layer_1" xmlns="http://www.w3.org/2000/svg" xmlns:xlink="http://www.w3.org/1999/xlink" x="0px" y="0px"
	 viewBox="0 0 72.41 80" style="enable-background:new 0 0 72.41 80;" xml:space="preserve">
<style type="text/css">
	.st0{fill:#B28F38;}
</style>
<path class="st0" d="M18.45,47.57c-2.2,0.74-5.77,1.46-8.01,1.84c-0.4-10.09-6.13-16.19-3.86-19.32
	c4.21-5.79,13.24-12.27,22.67-17.7c-1.86,2.36-2.21,4.62-3.11,5.23c-2.37,1.58-7.43,5.52-9.99,9.58c1.68-1.6,7.58-7.49,13.56-10.6
	c-1.61,2.85-0.89,3.95-2.17,5.05c-1.02,0.87-6.59,6.03-9.35,10.7c1.55-1.83,3.79-4.12,5.69-5.33c-0.7,1.58-1.06,2.55-1.15,4.24
	C22.44,37.08,21.21,43.05,18.45,47.57L18.45,47.57z M13.85,76.83c-1.49-1.91-4.75-2.4-6.41-0.53c-1.11,1.26-0.24,2.97,0.96,3.3
	c-1.41-1.33,0.38-3.41,2.18-1.75c1,0.92,1.54,2.42,3.32,1.63C12.86,79.28,12.35,77.65,13.85,76.83z M43.02,62.43
	c-1.7,0.92-4.25,3.26-9.9,1.01c2.55,2.49,4.64,3.81,7.18,3.77c2.83-0.14,8-2.49,9.62-3.06L43.02,62.43z M17.82,48.88
	c-2.82,0.85-5.55,1.29-8.9,1.83c-3.83,0.63-5.68,1.5-7.28,3.63c-1.65,2.2-1.75,3.27-1.57,4.27c0.15,0.89,0.8,1.39,0.93,2.34
	c0.11,0.8,1.17,2.37,3.13,2.35c-0.58-0.27-0.87-0.96-0.23-1.55c0.56-0.52,2.47-1.44,4.04-0.62c1.58,0.82,4.43,3.51,6.49,6.48
	c2.27,3.29-0.03,4-2.22,3.26c-3.26-1.11-5.8-3.02-7.2-3.03c-1.72-0.02-2.75,1.26-1.69,3.26c-0.2-2.15,2.54-2.12,2.39-0.43
	c-0.15,1.74-1.17,2.27,0.62,4.29c-0.33-1.52-0.05-3,2.25-3c2.31,0.01,5.33,1.16,7.43,5.74c3.87-0.16,7.76-2.15,11.1-3.2
	c-2.13-0.67-4.46-2.27-7.73-5.76c6.35,1.94,12.76,6.04,20.45,3.29c6.81-2.43,14.44-5.03,22.66-6.63c-2.65-0.16-7.52-0.55-9.53-0.65
	c-2.74,0.97-5.39,1.96-8.54,3.04c-2.91,1-6.78,2.15-10.53-1.81c-4.26-4.49-11.35-9.26-10-12.89c1.39,2.61,2.73,4.04,6.17,5.18
	c3.54,1.17,6.63,1.68,8.14,1.9c3.53,0.5,3.99-0.44,5.07-1.49c2.96-2.9,6.28-8.66,8.47-12.18c-3.83,0.24-12.23,0.19-15.54-1.46
	c4.43,0.2,9.41,0.37,12.17,0.23c2.48-0.12,3.35,0.17,4.12-1.44c0.68-1.42,1.21-3,1.21-3c-3.13,0.62-13.11,0.51-15.5-0.2
	c2.36-0.59,9.74-0.54,11.7-0.59c1.96-0.06,3.16-0.08,3.64-1.61c0.48-1.53,0.74-2.48,0.74-2.48c-1.96,0.68-9.38,0.89-15.02,0.39
	c3.12-0.45,9.3-0.8,11.6-0.99c2.41-0.2,3.07-0.31,3.38-1.74c0.36-1.63,0.55-2.4,0.55-2.4c-2.77,0.35-8.68,0.95-14.64,0.76
	c2.27-0.49,9.2-1.15,11.52-1.6c1.92-0.38,2.59-0.55,2.79-2.11c0.22-1.69,0.75-2.74,0.75-2.74c-4.11,0.59-13.02,2.06-14.22,2.45
	c2.28-1.82,7.86-2.43,10.42-2.96c2.39-0.5,2.9-0.24,3.54-2.06c0.58-1.65,1.06-2.43,1.06-2.43c-3,0.51-9.55,1.77-12.96,3.16
	c1.45-1.62,7.42-3.22,9.78-3.55c4.41-0.62,2.51-1.59,4.85-4.63c-2.68,0.23-7.11,1.04-12.42,3.68c1.77-2.31,6.46-3.64,9.73-4.3
	c1.92-0.38,2.9-0.19,3.82-1.74c0.92-1.55,2.16-2.88,2.71-3.44c-2.4,0.34-8.81,1.72-13.07,4.06c2.14-2.58,7.1-3.9,9.86-4.46
	c2.96-0.59,3.61-0.63,4.7-1.73c0.81-0.82,2.44-2.33,3.43-2.99c-4.21,0.46-8.8,1.15-13.49,3.31c2.56-2.6,10.47-4.22,12.9-4.32
	c3.45-0.14,2.36-1.33,6.59-3.59C62.63-0.13,50.8,1.6,44.99,7.01c-2.2,2.05-10.63,10.31-15.39,16.03c-1.63,1.95-3,2.92-3.47,7.66
	c-0.63,6.25-2.37,15.02-10.54,22.02C15.81,52.39,17.01,50.47,17.82,48.88L17.82,48.88z M5.26,56.52c1.52,0.23,0.62,2.08-0.57,1.18
	c0,0-0.11,0.2-0.14,0.47c0.13,0.19,0.57,0.45,1.16,0.5c-0.8,0.82-1.52,0.22-2.32,0.88c-0.59,0.48-0.85,1.88-0.47,2.61
	c-0.62-0.4-1.12-1.58-0.84-2.15c-0.22-0.23-0.6-0.18-0.89-0.09l-0.11-0.48c0,0,2.48-0.21,2.1-2.05c-0.21-1.03,0.95-2.4,1.3-2.83
	c0.16-0.2,1.51-1.96,8.4-3.01C10.87,52.24,7.13,52.75,5.26,56.52L5.26,56.52z"/>
</svg>
