<?xml version="1.0" encoding="utf-8"?>
<!-- Generator: Adobe Illustrator 25.4.1, SVG Export Plug-In . SVG Version: 6.00 Build 0)  -->
<svg version="1.1" id="Layer_1" xmlns="http://www.w3.org/2000/svg" xmlns:xlink="http://www.w3.org/1999/xlink" x="0px" y="0px"
	 viewBox="0 0 221.23 80" style="enable-background:new 0 0 221.23 80;" xml:space="preserve">
<style type="text/css">
	.st0{fill:#B28F38;}
	.st1{fill:#0A2972;}
</style>
<g>
	<path class="st0" d="M166.69,47.57c-2.2,0.74-5.77,1.46-8.01,1.84c-0.4-10.09-6.13-16.19-3.86-19.32
		c4.21-5.79,13.24-12.27,22.67-17.7c-1.86,2.36-2.21,4.62-3.11,5.23c-2.37,1.58-7.43,5.52-9.99,9.58c1.68-1.6,7.58-7.49,13.56-10.6
		c-1.61,2.85-0.89,3.95-2.17,5.05c-1.02,0.87-6.59,6.03-9.35,10.7c1.55-1.83,3.79-4.12,5.69-5.33c-0.7,1.58-1.06,2.55-1.15,4.24
		C170.67,37.08,169.45,43.05,166.69,47.57L166.69,47.57z M162.09,76.83c-1.49-1.91-4.75-2.4-6.41-0.53
		c-1.11,1.26-0.24,2.97,0.96,3.3c-1.41-1.33,0.38-3.41,2.18-1.75c1,0.92,1.54,2.42,3.32,1.63C161.1,79.28,160.59,77.65,162.09,76.83
		z M191.26,62.43c-1.7,0.92-4.25,3.26-9.9,1.01c2.55,2.49,4.64,3.81,7.18,3.77c2.83-0.14,8-2.49,9.62-3.06L191.26,62.43z
		 M166.06,48.88c-2.82,0.85-5.55,1.29-8.9,1.83c-3.83,0.63-5.68,1.5-7.28,3.63c-1.65,2.2-1.75,3.27-1.57,4.27
		c0.15,0.89,0.8,1.39,0.93,2.34c0.11,0.8,1.17,2.37,3.13,2.35c-0.58-0.27-0.87-0.96-0.23-1.55c0.56-0.52,2.47-1.44,4.04-0.62
		c1.58,0.82,4.43,3.51,6.49,6.48c2.27,3.29-0.03,4-2.22,3.26c-3.26-1.11-5.8-3.02-7.2-3.03c-1.72-0.02-2.75,1.26-1.69,3.26
		c-0.2-2.15,2.54-2.12,2.39-0.43c-0.15,1.74-1.17,2.27,0.62,4.29c-0.33-1.52-0.05-3,2.25-3c2.31,0.01,5.33,1.16,7.43,5.74
		c3.87-0.16,7.76-2.15,11.1-3.2c-2.13-0.67-4.46-2.27-7.73-5.76c6.35,1.94,12.76,6.04,20.45,3.29c6.81-2.43,14.44-5.03,22.66-6.63
		c-2.65-0.16-7.52-0.55-9.53-0.65c-2.74,0.97-5.39,1.96-8.54,3.04c-2.91,1-6.78,2.15-10.53-1.81c-4.26-4.49-11.35-9.26-10-12.89
		c1.39,2.61,2.73,4.04,6.17,5.18c3.54,1.17,6.63,1.68,8.14,1.9c3.53,0.5,3.99-0.44,5.07-1.49c2.96-2.9,6.28-8.66,8.47-12.18
		c-3.83,0.24-12.23,0.19-15.54-1.46c4.43,0.2,9.41,0.37,12.17,0.23c2.48-0.12,3.35,0.17,4.12-1.44c0.68-1.42,1.21-3,1.21-3
		c-3.13,0.62-13.11,0.51-15.5-0.2c2.36-0.59,9.74-0.54,11.7-0.59c1.96-0.06,3.16-0.08,3.64-1.61c0.48-1.53,0.74-2.48,0.74-2.48
		c-1.96,0.68-9.38,0.89-15.02,0.39c3.12-0.45,9.3-0.8,11.6-0.99c2.41-0.2,3.07-0.31,3.38-1.74c0.36-1.63,0.55-2.4,0.55-2.4
		c-2.77,0.35-8.68,0.95-14.64,0.76c2.27-0.49,9.2-1.15,11.52-1.6c1.92-0.38,2.59-0.55,2.79-2.11c0.22-1.69,0.75-2.74,0.75-2.74
		c-4.11,0.59-13.02,2.06-14.22,2.45c2.28-1.82,7.86-2.43,10.42-2.96c2.39-0.5,2.9-0.24,3.54-2.06c0.58-1.65,1.06-2.43,1.06-2.43
		c-3,0.51-9.55,1.77-12.96,3.16c1.45-1.62,7.42-3.22,9.78-3.55c4.41-0.62,2.51-1.59,4.85-4.63c-2.68,0.23-7.11,1.04-12.42,3.68
		c1.77-2.31,6.46-3.64,9.73-4.3c1.92-0.38,2.9-0.19,3.82-1.74c0.92-1.55,2.16-2.88,2.71-3.44c-2.4,0.34-8.81,1.72-13.07,4.06
		c2.14-2.58,7.1-3.9,9.86-4.46c2.96-0.59,3.61-0.63,4.7-1.73c0.81-0.82,2.44-2.33,3.43-2.99c-4.21,0.46-8.8,1.15-13.49,3.31
		c2.56-2.6,10.47-4.22,12.9-4.32c3.45-0.14,2.36-1.33,6.59-3.59c-9.79-0.14-21.61,1.6-27.42,7.01c-2.2,2.05-10.63,10.31-15.39,16.03
		c-1.63,1.95-3,2.92-3.47,7.66c-0.63,6.25-2.37,15.02-10.54,22.02C164.05,52.39,165.24,50.47,166.06,48.88L166.06,48.88z
		 M153.49,56.52c1.52,0.23,0.62,2.08-0.57,1.18c0,0-0.11,0.2-0.14,0.47c0.13,0.19,0.57,0.45,1.16,0.5c-0.8,0.82-1.52,0.22-2.32,0.88
		c-0.59,0.48-0.85,1.88-0.47,2.61c-0.62-0.4-1.12-1.58-0.84-2.15c-0.22-0.23-0.6-0.18-0.89-0.09l-0.11-0.48c0,0,2.48-0.21,2.1-2.05
		c-0.21-1.03,0.95-2.4,1.3-2.83c0.16-0.2,1.51-1.96,8.4-3.01C159.11,52.24,155.37,52.75,153.49,56.52L153.49,56.52z"/>
	<path class="st1" d="M72.07,36.22c0.28,0,0.28,0.15,0.28,0.2c0,0.07-0.02,0.19-0.28,0.19c-0.41,0-1.09-0.05-1.09,0.95v13.15h-1.64
		c-0.73,0-0.8-0.55-0.8-0.85V36.85c0-0.32,0.22-0.63,0.62-0.63H72.07z M96.19,36.22c0.28,0,0.28,0.15,0.28,0.2
		c0,0.07-0.02,0.19-0.28,0.19c-0.41,0-1.1-0.05-1.1,0.95v13.15h-1.64c-0.73,0-0.8-0.55-0.8-0.85V36.85c0-0.32,0.22-0.63,0.62-0.63
		H96.19z M4.77,48.32c0-0.76,0.61-1.37,1.37-1.37s1.37,0.61,1.37,1.37c0,0.75-0.61,1.37-1.37,1.37S4.77,49.08,4.77,48.32z
		 M49.28,36.06c0-0.76,0.61-1.37,1.37-1.37c0,0,0,0,0,0c0.76,0.02,1.36,0.64,1.34,1.4c-0.01,0.73-0.61,1.33-1.34,1.34
		C49.89,37.43,49.28,36.82,49.28,36.06z M81.34,38.8c0-0.76,0.61-1.37,1.37-1.37c0.76,0,1.37,0.61,1.37,1.37
		c0,0.76-0.61,1.37-1.37,1.37C81.96,40.17,81.34,39.56,81.34,38.8z M114.9,54.18c0-0.76,0.61-1.37,1.37-1.37
		c0.76,0,1.37,0.61,1.37,1.37c0,0.76-0.61,1.37-1.37,1.37C115.51,55.55,114.9,54.94,114.9,54.18z M118.56,54.18
		c0-0.75,0.61-1.37,1.37-1.37c0.76,0,1.37,0.61,1.37,1.37c0,0.76-0.61,1.37-1.37,1.37C119.18,55.55,118.56,54.94,118.56,54.18
		C118.56,54.18,118.56,54.18,118.56,54.18z M26.67,54.18c0-0.76,0.61-1.37,1.37-1.37c0.76,0,1.37,0.61,1.37,1.37
		c0,0.76-0.61,1.37-1.37,1.37C27.29,55.55,26.67,54.94,26.67,54.18C26.67,54.18,26.67,54.18,26.67,54.18z M30.34,54.18
		c0-0.75,0.61-1.37,1.37-1.37c0.76,0,1.37,0.61,1.37,1.37c0,0.76-0.61,1.37-1.37,1.37C30.96,55.55,30.34,54.94,30.34,54.18
		C30.34,54.18,30.34,54.18,30.34,54.18z M77.64,41.25c-0.4,0-0.62,0.3-0.62,0.63l0,7.53c0,3.16,0.91,6.59,6.09,6.59
		c5.32,0,6.25-2.97,6.25-6.17v-7.23c0-1,0.69-0.94,1.1-0.94c0.27,0,0.28-0.13,0.28-0.19c0-0.06-0.01-0.2-0.28-0.2h-2.91
		c-0.4,0-0.62,0.3-0.62,0.63v7.74c0,2.77-0.77,5.34-4.02,5.34c-3.63,0-4.21-2.68-4.21-4.76v-7.6c0-0.98,0.65-0.94,1.1-0.94
		c0.27,0,0.28-0.13,0.28-0.19c0-0.06,0-0.2-0.28-0.2H77.64L77.64,41.25z"/>
	<path class="st1" d="M9.57,50.72v-8.27c-0.44-0.12-1.01-0.18-1.37-0.18c-3.02,0-5.67,1.84-5.67,6.04c0,4.24,2.54,6.74,6.34,6.74
		c1.18,0,2.16-0.14,3.37-0.42c0.24-0.06,0.38,0.24,0.12,0.37c-1.07,0.54-2.73,0.99-4.31,0.99C3.55,55.99,0,53.5,0,48.42
		c0-3.33,2.22-7.14,8.22-7.14c0.64,0,1.16,0.07,1.33,0.1c-0.13-1.89-0.83-4.06-3.35-4.06c-1.76,0-2.31,0.93-2.62,1.8
		c-0.07,0.21-0.1,0.35-0.25,0.35c-0.1,0-0.19-0.06-0.19-0.27l0-3.02c0.49-0.04,0.98-0.07,1.47-0.07c5.68,0,7.4,3.09,7.4,6.69l0,5.52
		h16.65v-6.44c0-0.32,0.22-0.63,0.62-0.63h2.92c0.28,0,0.28,0.15,0.28,0.2c0,0.07-0.02,0.2-0.28,0.2c-0.41,0-1.09-0.05-1.09,0.94
		v5.73h6.49V36.85c0-0.32,0.22-0.63,0.62-0.63h2.92c0.28,0,0.28,0.15,0.28,0.2c0,0.07-0.02,0.19-0.28,0.19
		c-0.41,0-1.1-0.05-1.1,0.95v10.75h14.64v-2.75c0-3.5-1.85-5.44-4.32-5.44c-3.06,0-3.65,2.09-3.88,3.02
		c-0.03,0.12-0.11,0.18-0.21,0.18c-0.11,0-0.2-0.08-0.2-0.28l0-3.32c1.68-0.43,3.16-0.58,4.39-0.58c4.75,0,6.66,2.65,6.66,6.99v2.18
		h5.71V36.85c0-0.32,0.22-0.63,0.62-0.63h2.92c0.28,0,0.28,0.15,0.28,0.2c0,0.07-0.02,0.19-0.28,0.19c-0.41,0-1.09-0.05-1.09,0.95
		v13.15L9.57,50.72L9.57,50.72L9.57,50.72z M128.21,43.03v5.28h10.35l0-2.05c0-2-0.76-3.23-3.87-3.23H128.21z M120.42,41.25
		c0.28,0,0.28,0.15,0.28,0.2c0,0.07-0.02,0.2-0.28,0.2c-0.41,0-1.09-0.05-1.09,0.94v5.73h6.45V36.85c0-0.32,0.22-0.63,0.62-0.63
		h2.92c0.28,0,0.28,0.15,0.28,0.2c0,0.07-0.02,0.19-0.28,0.19c-0.41,0-1.1-0.05-1.1,0.95v3.68h7.03c4.86,0,5.75,2.56,5.75,4.55
		l0,4.92h-40.23c-0.45,3.43-3.19,4.97-4.24,5.23c-0.38,0.1-0.48-0.08-0.25-0.21c1.91-1.1,2.12-3.76,2.12-5.03v-8.84
		c0-0.32,0.22-0.63,0.62-0.63h2.92c0.28,0,0.28,0.15,0.28,0.2c0,0.07-0.02,0.2-0.28,0.2c-0.41,0-1.09-0.05-1.09,0.94v5.73h16.06
		v-6.44c0-0.32,0.22-0.63,0.62-0.63L120.42,41.25L120.42,41.25L120.42,41.25z M69.4,72.39l2.33,0.04c1.19-0.01,1.38,0.82,1.39,1.18
		c0,0.2,0.05,0.3,0.17,0.3c0.09,0,0.16-0.09,0.18-0.28c0.03-0.33,0.04-0.94,0.11-1.73c0.04-0.42,0.11-0.76,0.12-0.92
		c0.02-0.21-0.11-0.31-0.23-0.08c-0.09,0.17-0.26,0.47-0.97,0.5l-3.11,0.04V66.2l4.27,0.06c1.51,0.04,1.38,1.23,1.39,1.54
		c0,0.2,0.06,0.3,0.18,0.3c0.1,0,0.18-0.09,0.19-0.28c0.03-0.33,0.05-1.17,0.13-1.77c0.06-0.52,0.08-0.52,0.14-0.84
		c0.03-0.18-0.06-0.28-0.25-0.14c-0.17,0.14-0.63,0.12-1,0.12l-8.59,0c-0.28,0-0.28,0.14-0.28,0.2c0,0.07,0.01,0.19,0.28,0.19
		c0.4,0,1.09-0.05,1.09,0.94v13.15h1.64c0.73,0,0.8-0.55,0.8-0.85V72.39L69.4,72.39z M51.21,78.7V65.84c0-0.32-0.22-0.63-0.62-0.63
		l-2.92,0c-0.28,0-0.28,0.14-0.28,0.2c0,0.07,0.02,0.19,0.28,0.19c0.41,0,1.1-0.05,1.1,0.94l0,13.15h8.11c0.48,0,0.67-0.2,0.75-0.48
		c0.17-0.58,0.34-2.38,0.34-2.59c0-0.33-0.32-0.34-0.36,0.01c-0.06,0.55-0.32,1.89-1.91,1.98C54.04,78.71,52.28,78.71,51.21,78.7z
		 M113.76,65.21c-0.28,0-0.28,0.14-0.28,0.2c0,0.07,0.02,0.19,0.28,0.19c0.41,0,1.1-0.05,1.1,0.94v13.15h1.64
		c0.74,0,0.8-0.55,0.8-0.85l0-13.01c0-0.32-0.22-0.63-0.62-0.63L113.76,65.21L113.76,65.21z M36.95,65.21c0.4,0,0.62,0.31,0.62,0.63
		l0,7.53c0,3.16-0.91,6.59-6.09,6.59c-5.32,0-6.25-2.97-6.25-6.17v-7.23c0-1-0.69-0.94-1.09-0.94c-0.27,0-0.28-0.13-0.28-0.19
		c0-0.06,0.01-0.2,0.28-0.2l2.92,0c0.4,0,0.62,0.31,0.62,0.63v7.74c0,2.77,0.77,5.34,4.03,5.34c3.63,0,4.21-2.68,4.21-4.76v-7.6
		c0-0.98-0.64-0.94-1.09-0.94c-0.27,0-0.28-0.13-0.28-0.19c0-0.06,0-0.2,0.28-0.2L36.95,65.21z M100.09,74.41l-2.35-5.81l-2.42,5.81
		H100.09z M101.62,78.19l-1.09-2.7h-5.66l-1.75,4.21h-2.02c-0.21,0-0.28-0.09-0.28-0.19c0-0.07,0.03-0.19,0.3-0.2
		c0.5-0.03,0.75-0.21,1.05-0.9l5.71-13.04c0.28-0.64,0.55-0.65,0.83,0l6.23,14.34h-4.02c-0.22,0-0.28-0.08-0.28-0.19
		c0-0.08,0.07-0.18,0.28-0.21C101.56,79.22,101.91,78.92,101.62,78.19L101.62,78.19z M131.58,66.07v6.5h1.23
		c1.71,0,3.21-1.12,3.21-3.34C136.01,66.41,133.85,66.07,131.58,66.07z M135.4,72.94c1.59,2.62,2.99,4.8,4.58,6.11
		c0.6,0.49,0.95,0.44,0.95,0.71c0,0.09-0.06,0.18-0.25,0.21c-0.15,0.02-0.35,0.03-0.6,0.03c-3.57,0-4.67-2.87-6.96-6.46h-1.54v5.54
		c0,0.32-0.22,0.63-0.62,0.63h-2.97c-0.28,0-0.28-0.15-0.28-0.2c0-0.07,0.01-0.2,0.28-0.2c0.41,0,1.15-0.05,1.15-0.94l0-11.81
		c0-1-0.69-0.94-1.1-0.94c-0.26,0-0.28-0.13-0.28-0.19c0-0.06,0-0.2,0.28-0.2h5.52c2.04,0,4.6,0.7,4.6,3.82
		C138.16,71.01,136.91,72.27,135.4,72.94L135.4,72.94z M10.32,72.88h2.82c0.4,0,0.62,0.31,0.62,0.63v5.09
		c0,0.31-0.12,0.43-0.36,0.52C11.44,79.88,9.52,80,8.14,80c-4.02,0-8.12-2.11-8.12-7.45c0-6.23,5.14-7.66,8.17-7.66
		c2.03,0,3.93,0.49,4.9,0.64c0.23,0.03,0.27,0.08,0.27,0.23l0,3.07c0,0.42-0.37,0.45-0.42,0c-0.1-0.83-1.13-2.97-4.75-2.97
		c-2.04,0-5.63,1.21-5.63,6.49c0,4.87,3.39,6.61,6.29,6.61c1.01,0,2.56-0.28,2.56-1.05l0-3.68c0-1-0.69-0.94-1.1-0.94
		c-0.26,0-0.28-0.13-0.28-0.2C10.05,73.03,10.05,72.88,10.32,72.88L10.32,72.88z"/>
</g>
</svg>
