<?xml version="1.0" encoding="utf-8"?>
<!-- Generator: Adobe Illustrator 25.4.1, SVG Export Plug-In . SVG Version: 6.00 Build 0)  -->
<svg version="1.1" id="Layer_1" xmlns="http://www.w3.org/2000/svg" xmlns:xlink="http://www.w3.org/1999/xlink" x="0px" y="0px"
	 viewBox="0 0 85.01 80" style="enable-background:new 0 0 85.01 80;" xml:space="preserve">
<style type="text/css">
	.st0{fill:#E40815;}
</style>
<g>
	<path class="st0" d="M24.36,63.63c-2.4-5.16-2.29-10.33,1.2-14.98c3.48-4.63,8.34-6.55,14.1-6.01c1.86,0.17,3.54,0.82,4.28,2.81
		c0.09,0.06,0.13,0.15,0.15,0.25c-0.05-0.08-0.1-0.17-0.15-0.25c0,0.53,0,1.06-0.01,1.59c0,0.28-0.07,0.68,0.37,0.54
		c0.21-0.07,0.33-0.45,0.48-0.69c0.98-1.44,1.73-3.01,2.26-4.66c2.16-6.74-1.2-12.66-8.22-13.67C21.34,26.06,6.17,41.67,11.95,59.16
		c1.95,5.91,5.68,10.51,10.74,13.99c9.67,6.67,20.48,7.75,31.76,6.24c-5.51-0.75-11-1.59-16.21-3.65
		C32.17,73.36,27.17,69.68,24.36,63.63z"/>
	<path class="st0" d="M7.92,55.75c-1.45-13.63,6.29-25.24,19.51-29.18c3.01-0.9,6.09-1.56,9.12-2.39c1.84-0.5,3.55-1.32,4.9-2.72
		c2.63-2.73,1.73-6.27-1.89-7.37c-2.28-0.69-4.54-0.33-6.75,0.29c-4.86,1.37-9.76,1.63-14.74,0.85c-0.93-0.15-1.85-0.7-2.98-0.38
		c3.18,2.1,4.95,2.71,8.11,3.29c2.69,0.5,5.33,0.21,7.99-0.1c0.74-0.09,1.72-0.26,1.9,0.85c0.15,0.96-0.62,1.38-1.4,1.63
		c-0.59,0.19-1.21,0.32-1.83,0.42c-2.7,0.42-5.34-0.1-7.96-0.63c-8.23-1.67-12.96,0.57-16.87,8.04C3.72,30.81,2.6,33.4,0,35.71
		c2.43-0.55,3.78-1.69,4.96-3.07c1.48-1.74,2.85-3.58,4.37-5.27c1.16-1.29,2.54-2.38,4.34-2.69c0.46-0.08,0.99-0.16,1.28,0.32
		c0.27,0.46,0.1,0.95-0.24,1.3c-0.81,0.86-1.67,1.67-2.51,2.5c-7.65,7.52-9.42,19.46-4.3,28.97c0.13,0.64,0.24,1.29,0.78,1.83
		c0.42-0.89,0.25-1.63-0.27-2.34C8.25,56.76,7.97,56.27,7.92,55.75z"/>
	<path class="st0" d="M64.68,29.17c-0.7-0.1-1.41-0.11-2.12-0.13c-1.88-0.05-3.75,0.32-5.66,0.04c-2.11-0.31-3.81-1.04-4.54-3.18
		c-0.76-2.21,0.08-3.99,1.64-5.54c2.16-2.14,4.92-3,7.76-3.73c5.97-1.53,11.44-3.99,15.61-8.72c1.51-1.71,2.21-3.75,1.07-5.87
		c-1.14-2.12-3.19-2.29-5.56-1.81c1.57,1.79,0.8,3.37-0.29,4.89c-3.66,5.1-8.77,7.75-14.85,8.68c-3.29,0.5-6.52,1.18-9.27,3.19
		c-3.14,2.28-4.61,5.41-3.95,9.24c0.66,3.82,3.33,5.93,6.92,6.94c2.23,0.63,4.51,0.58,6.79,0.24c1.16-0.17,2.35-0.28,3.52-0.29
		c1.51-0.02,2.8,0.6,3.58,1.91c0.8,1.33-0.34,2.23-1.02,3.26c3.03-0.52,5.06-2.6,5.04-5.08C69.35,30.97,67.82,29.64,64.68,29.17z"/>
	<path class="st0" d="M40.98,8.43c1.27-0.61,2.5-1.42,3.99-1.29c1.36,0.12,1.99,0.97,1.71,2.28c-0.25,1.19-1.14,1.68-2.32,1.4
		c-0.48-0.11-0.89-0.47-1.38-0.74c0.04,2.66,1.24,3.98,3.82,4.12c2.62,0.14,4.85-0.78,6.27-3.04c1.35-2.16,1.48-4.51,0.08-6.71
		c-1.52-2.38-3.93-3.07-6.59-2.84c-2.62,0.23-5,1.32-7.32,2.5c-3.43,1.75-6.86,3.51-10.64,4.45c-6.33,1.58-12.7,1.99-19.4,0.38
		c2.38,2.2,6.76,3.63,11.21,3.84C27.65,13.15,34.47,11.54,40.98,8.43z"/>
	<path class="st0" d="M81.31,18.75c-0.65-0.33-0.81-0.68-0.99-1.35c-0.74-2.67-2.84-3.03-4.85-0.91c-0.58,0.48-0.46,1.05-0.2,1.78
		c0.33-0.41,0.61-0.75,0.89-1.09c2.09,0.31,1.44,1.3,0.62,2.39c-1.07,1.42-1.47,2.8,0.48,3.97c0.18-1.06,0.15-2.21,1.56-2.29
		c0.85-0.05,1.6,0.24,1.91,1.08c0.39,1.06,0.08,2.04-0.71,2.82c-0.92,0.91-2.09,1.08-3.3,0.77c-1.22-0.3-2.39-0.77-3.45-1.48
		c1.69-2.31,1.97-4.12,0.79-5.58c-1-1.23-2.36-1.61-3.83-1.18c-1.3,0.38-2.21,1.21-1.76,2.83c0.82-0.31,1.34-1.5,2.41-0.72
		c0.59,0.43,0.75,1.06,0.45,1.67c-0.55,1.09-1.55,1.23-2.63,1.02c-0.77-0.15-1.53-0.39-2.29-0.56c-3.14-0.7-6.74-0.84-9.81,1.57
		c4.61-1.26,8.3,0.14,11.81,2.31c1.34,0.83,2.67,1.68,4.02,2.48c1.5,0.89,3.08,1.6,4.8,1.92c3.19,0.58,6.31-1.19,7.37-4.17
		C85.7,22.92,84.61,20.4,81.31,18.75z"/>
</g>
</svg>
