<?xml version="1.0" encoding="utf-8"?>
<!-- Generator: Adobe Illustrator 25.4.1, SVG Export Plug-In . SVG Version: 6.00 Build 0)  -->
<svg version="1.1" id="Layer_1" xmlns="http://www.w3.org/2000/svg" xmlns:xlink="http://www.w3.org/1999/xlink" x="0px" y="0px"
	 viewBox="0 0 68.19 80" style="enable-background:new 0 0 68.19 80;" xml:space="preserve">
<style type="text/css">
	.st0{fill:#010101;}
	.st1{fill:#040404;}
	.st2{fill:#020202;}
	.st3{fill:#080808;}
	.st4{fill:#070707;}
	.st5{fill:#060606;}
	.st6{fill:#E40815;}
</style>
<g>
	<path class="st0" d="M28.33,54.89c-0.15-0.52-0.28-0.94-0.43-1.47c0.67,0,1.26,0.03,1.84-0.01c0.57-0.04,0.97,0.1,1.1,0.72
		c0.1,0.48,0.32,0.82,0.91,0.78c0.61-0.04,0.41,0.46,0.43,0.79c0.04,0.47-0.3,0.47-0.63,0.47c-1.54,0-3.09,0.02-4.63-0.01
		c-0.62-0.01-0.84,0.13-0.86,0.81c-0.12,3.35-0.15,3.35,2.98,2.28c0.81-0.28,1.62-0.54,2.44-0.82c0.44,2.33,0.44,2.33-1.69,3.06
		c-0.9,0.31-1.78,0.71-2.7,0.92c-0.83,0.2-1.04,0.62-1.03,1.43c0.02,2.64-0.01,2.64,2.68,2.64c0.86,0,1.73,0.01,2.59,0
		c0.36,0,0.61,0.05,0.61,0.5c0.01,0.47-0.18,0.63-0.64,0.63c-2.36-0.02-4.73,0-7.09-0.02c-1.02-0.01-1.24-0.7-1.23-1.58
		c0.02-2.95,0.01-5.91,0-8.86c0-0.45,0.2-1-0.65-1.02c-0.76-0.02-0.91,0.34-0.96,0.96c-0.27,3.17-0.59,6.33-0.81,9.5
		c-0.13,1.84-1.45,0.85-2.22,0.98c-1.09,0.18-0.63-0.76-0.6-1.22c0.23-2.99,0.52-5.97,0.77-8.96c0.06-0.64,0.32-1.44-0.88-1.25
		c-0.46,0.07-0.45-0.32-0.46-0.65c0-0.35,0.05-0.6,0.5-0.62c0.39-0.02,0.94,0.26,1.1-0.44c0.09-0.39-0.24-1.03,0.46-1.1
		c0.72-0.07,1.45-0.01,2.17,0.03c0.2,0.01,0.3,0.23,0.25,0.41c-0.37,1.45,0.69,1.11,1.42,1.11C24.81,54.9,26.53,54.89,28.33,54.89z"
		/>
	<path class="st0" d="M11.11,60.56c1.01,2.15,1.91,4.12,2.87,6.06c0.35,0.71,0.38,0.95-0.57,1.03c-1.59,0.13-2.62-0.22-3.14-1.91
		c-0.42-1.37-1.27-2.6-1.79-3.95c-0.39-1.01-0.98-1.3-2.03-1.25c-2.09,0.09-2.09,0.03-2.09,2.17c0,0.82,0.07,1.64-0.02,2.45
		c-0.13,1.12,0.33,1.48,1.38,1.35c0.35-0.04,0.73-0.01,1.06,0.1c0.24,0.08,0.16,0.4,0.14,0.61c-0.04,0.45-0.4,0.41-0.72,0.41
		c-1.18,0-2.36,0.01-3.54-0.01c-0.87-0.01-1.32-0.43-1.3-1.36c0.04-1.54-0.01-3.09,0.02-4.63c0.01-0.64,0.05-1.2-0.87-1.06
		c-0.47,0.07-0.48-0.27-0.48-0.61c0-0.33,0.01-0.7,0.47-0.63c1.07,0.14,0.87-0.6,0.87-1.2c0.01-1.27,0.04-2.55-0.01-3.81
		c-0.03-0.76,0.18-1.01,0.98-1.01c2.02,0,2.02-0.04,2.02,2.01c0,1,0.07,2-0.02,3c-0.08,0.89,0.28,1.04,1.08,1.03
		c2.86-0.05,5.72-0.02,8.58-0.02c0.48,0,1.03-0.14,1.01,0.69c-0.02,0.79-0.57,0.55-0.96,0.56C13.13,60.57,12.22,60.56,11.11,60.56z"
		/>
	<path class="st0" d="M47.44,62.56c0-1.27-0.04-2.55,0.01-3.82c0.03-0.7-0.16-0.94-0.9-0.95c-0.76-0.01-0.77,0.35-0.76,0.91
		c0.02,2.5-0.02,5,0.02,7.5c0.02,1.08-0.46,1.45-1.48,1.42c-0.6-0.02-0.91-0.12-0.9-0.82c0.03-3.09,0.03-6.18,0-9.27
		c-0.01-0.71,0.28-0.83,0.89-0.81c1.36,0.03,2.73,0.03,4.09-0.01c1.01-0.03,1.35,0.43,1.34,1.4c-0.04,2.41-0.02,4.82-0.01,7.22
		c0,0.47-0.15,1,0.6,1.16c0.47,0.1,0.46,0.72,0.21,0.87c-0.76,0.48-1.67,0.26-2.5,0.19c-0.67-0.06-0.6-0.68-0.6-1.18
		C47.44,65.1,47.44,63.83,47.44,62.56z"/>
	<path class="st1" d="M60.44,67.61c-2.23,0-4.45,0-6.68,0c-0.44,0-0.93,0.11-0.94-0.62c-0.01-0.73,0.45-0.65,0.91-0.65
		c1.45,0,2.91-0.03,4.36,0.01c0.67,0.02,0.92-0.13,0.94-0.88c0.08-3.3,0.11-3.3-3.14-3.3c-0.55,0-1.09,0-1.64,0
		c-0.4,0-0.82,0.08-0.83-0.57c-0.02-0.71,0.41-0.67,0.89-0.67c3.32,0.01,6.63,0,9.95,0c0.86,0,1.73,0.01,2.59,0
		c0.41,0,0.7,0.07,0.73,0.58c0.03,0.58-0.28,0.67-0.76,0.67c-1.36-0.02-2.73,0.02-4.09-0.02c-0.64-0.02-0.83,0.16-0.86,0.82
		c-0.14,3.36-0.16,3.36,3.21,3.36c0.73,0,1.45,0,2.18,0c0.4,0,0.83-0.08,0.86,0.56c0.03,0.68-0.37,0.71-0.87,0.7
		C64.99,67.6,62.72,67.61,60.44,67.61z"/>
	<path class="st2" d="M28.9,74.48c0,1.71,0.01,3.06,0,4.41c0,0.47,0.16,1-0.67,1.02c-0.81,0.01-0.71-0.48-0.71-0.98
		c0-2.09-0.02-4.17,0.02-6.26c0.01-0.45-0.31-1.12,0.29-1.31c0.66-0.22,1.32,0,1.83,0.59c1.12,1.31,2.28,2.58,3.43,3.87
		c0.18,0.2,0.36,0.39,0.77,0.82c0-1.63,0-3,0-4.38c0-0.49-0.11-0.98,0.7-0.98c0.82,0,0.84,0.42,0.84,1.03
		c-0.02,2.13,0.01,4.26-0.02,6.39c0,0.4,0.27,1.04-0.37,1.14c-0.58,0.09-1.22,0.22-1.74-0.4C31.92,77.85,30.52,76.31,28.9,74.48z"/>
	<path class="st2" d="M44.83,73.35c-0.59-0.28-1.09-0.58-1.63-0.78c-1.54-0.56-3.1-0.2-3.84,0.84c-0.83,1.16-0.76,3.35,0.13,4.49
		c0.32,0.4,0.71,0.71,1.18,0.88c1.4,0.51,2.08,0.09,1.96-1.36c-0.1-1.28,0.34-1.67,1.57-1.55c0.63,0.07,0.71,0.33,0.74,0.85
		c0.18,2.83-0.12,3.17-3.04,3.24c-2.93,0.07-4.66-0.97-5.2-3.14c-0.67-2.67,0.99-5.2,3.7-5.63c0.95-0.15,1.9-0.1,2.85,0
		C44.52,71.34,45.36,71.78,44.83,73.35z"/>
	<path class="st0" d="M58.28,54.58c0.3-0.47-0.35-0.79-0.03-1.28c0.8,0,1.66-0.01,2.52,0.01c0.21,0,0.57,0.05,0.61,0.16
		c0.56,1.68,1.97,0.99,3.07,1.11c0.4,0.04,0.82,0.02,1.23,0c2.77-0.14,2.48,0.35,2.5,2.89c0,0.45-0.15,0.76-0.61,0.62
		c-0.75-0.23-2.21,0.66-2.18-0.63c0.05-1.85-0.85-1.79-2.12-1.76c-2.18,0.05-4.36,0.07-6.54-0.01c-1.02-0.04-1.44,0.25-1.27,1.28
		c0.26,1.51-0.84,1.05-1.61,1.15c-0.91,0.11-1.26-0.13-1.23-1.14c0.06-2.39,0-2.39,2.42-2.39C56.15,54.58,57.24,54.58,58.28,54.58z"
		/>
	<path class="st2" d="M0.03,75.16c0-0.95,0.07-1.91-0.02-2.85c-0.08-0.9,0.3-1.04,1.09-1.03c0.8,0.01,1.24,0.09,1.19,1.08
		c-0.09,1.76,0.02,3.53-0.04,5.3c-0.03,0.8,0.25,1.04,1.01,0.98c0.63-0.05,1.27,0.01,1.9-0.02c0.47-0.02,0.63,0.18,0.63,0.64
		c0,0.47-0.18,0.63-0.64,0.63c-1.31-0.02-2.63,0.01-3.94-0.02C0.38,79.86,0,79.4,0.02,78.56C0.05,77.43,0.03,76.3,0.03,75.16z"/>
	<path class="st2" d="M58.41,75.6c0,1.09-0.06,2.18,0.02,3.27c0.06,0.88-0.26,1.08-1.08,1.04c-0.7-0.04-1.19,0.01-1.15-0.97
		c0.08-2.22,0.08-4.45,0-6.67c-0.03-0.98,0.46-0.94,1.15-0.98c0.82-0.05,1.14,0.18,1.08,1.05C58.35,73.41,58.41,74.51,58.41,75.6z"
		/>
	<path class="st0" d="M7.59,57.93c0.91-1.44,1.74-2.67,2.47-3.96c0.39-0.68,0.94-0.58,1.52-0.58c0.67,0,1.34,0,2.26,0
		c-0.95,1.51-1.79,2.83-2.61,4.16c-0.35,0.57-0.88,0.34-1.35,0.37C9.22,57.95,8.54,57.93,7.59,57.93z"/>
	<path class="st3" d="M46.61,55.89c-1,0-2-0.02-2.99,0.01c-0.47,0.01-0.65-0.16-0.65-0.63c0-0.47,0.28-0.5,0.63-0.49
		c0.41,0.01,0.82-0.01,1.22,0c0.41,0.02,0.53-0.12,0.51-0.55c-0.02-0.29-0.62-0.91,0.19-0.9c0.74,0.01,1.87-0.53,2.18,0.39
		c0.36,1.07,0.96,1.12,1.82,1.07c0.38-0.02,0.85-0.14,0.82,0.55c-0.03,0.64-0.46,0.55-0.86,0.55
		C48.52,55.89,47.56,55.89,46.61,55.89z"/>
	<path class="st4" d="M66.21,60.21c-2.51,0.2-3.78-0.68-4.25-2.83c-0.04-0.18-0.08-0.34,0.09-0.47c0.29-0.22,2.36,0,2.55,0.33
		C65.15,58.2,65.66,59.18,66.21,60.21z"/>
	<path class="st5" d="M54.69,60.18c0.54-0.98,1-1.85,1.49-2.7c0.13-0.22,0.33-0.55,0.52-0.56c0.75-0.05,1.66-0.36,2.19,0.13
		c0.37,0.34-0.43,0.96-0.57,1.51C57.82,60.49,56.4,60.5,54.69,60.18z"/>
	<g>
		<path class="st6" d="M23.7,36.67c-1.38-2.97-1.32-5.96,0.69-8.63c2-2.67,4.81-3.77,8.13-3.46c1.07,0.1,2.04,0.47,2.47,1.62
			c0.05,0.04,0.07,0.09,0.09,0.15c-0.03-0.05-0.06-0.1-0.09-0.15c0,0.31,0,0.61-0.01,0.92c0,0.16-0.04,0.39,0.22,0.31
			c0.12-0.04,0.19-0.26,0.28-0.4c0.57-0.83,1-1.73,1.3-2.68c1.24-3.89-0.69-7.3-4.74-7.88c-10.08-1.44-18.82,7.55-15.49,17.63
			c1.13,3.41,3.27,6.06,6.19,8.07c5.57,3.84,11.8,4.47,18.3,3.6c-3.17-0.44-6.34-0.91-9.34-2.1C28.2,42.28,25.32,40.15,23.7,36.67z"
			/>
		<path class="st6" d="M14.23,32.13c-0.84-7.85,3.63-14.54,11.24-16.82c1.74-0.52,3.51-0.9,5.26-1.38c1.06-0.29,2.04-0.76,2.82-1.57
			c1.52-1.58,1-3.61-1.09-4.25c-1.31-0.4-2.61-0.19-3.89,0.17c-2.8,0.79-5.62,0.94-8.5,0.49c-0.54-0.08-1.06-0.4-1.72-0.22
			c1.83,1.21,2.85,1.56,4.67,1.9c1.55,0.29,3.07,0.12,4.61-0.06c0.43-0.05,0.99-0.15,1.09,0.49c0.09,0.55-0.36,0.79-0.81,0.94
			c-0.34,0.11-0.7,0.19-1.05,0.24c-1.56,0.24-3.08-0.06-4.59-0.37c-4.74-0.96-7.47,0.33-9.72,4.64c-0.75,1.43-1.39,2.92-2.89,4.25
			c1.4-0.32,2.18-0.97,2.86-1.77c0.85-1,1.64-2.06,2.52-3.04c0.67-0.75,1.46-1.37,2.5-1.55c0.26-0.05,0.57-0.09,0.74,0.19
			c0.16,0.26,0.06,0.55-0.14,0.75c-0.47,0.49-0.96,0.96-1.45,1.44c-4.41,4.33-5.43,11.21-2.48,16.69c0.07,0.37,0.14,0.74,0.45,1.05
			c0.24-0.51,0.14-0.94-0.15-1.35C14.41,32.71,14.26,32.43,14.23,32.13z"/>
		<path class="st6" d="M46.94,16.81c-0.4-0.06-0.81-0.07-1.22-0.08c-1.09-0.03-2.16,0.18-3.26,0.02c-1.21-0.18-2.19-0.6-2.62-1.83
			c-0.44-1.27,0.05-2.3,0.94-3.19c1.24-1.24,2.84-1.73,4.47-2.15c3.44-0.88,6.59-2.3,9-5.02c0.87-0.98,1.28-2.16,0.62-3.38
			c-0.66-1.22-1.84-1.32-3.2-1.04c0.9,1.03,0.46,1.94-0.17,2.82c-2.11,2.94-5.05,4.46-8.56,5c-1.9,0.29-3.75,0.68-5.34,1.84
			c-1.81,1.32-2.66,3.12-2.28,5.32c0.38,2.2,1.92,3.42,3.99,4c1.29,0.36,2.6,0.33,3.91,0.14c0.67-0.1,1.35-0.16,2.03-0.17
			c0.87-0.01,1.61,0.34,2.07,1.1c0.46,0.76-0.19,1.29-0.59,1.88c1.75-0.3,2.92-1.5,2.9-2.93C49.63,17.85,48.75,17.08,46.94,16.81z"
			/>
		<path class="st6" d="M33.28,4.86c0.73-0.35,1.44-0.82,2.3-0.74c0.78,0.07,1.15,0.56,0.98,1.31c-0.15,0.68-0.66,0.97-1.34,0.81
			c-0.27-0.06-0.51-0.27-0.8-0.42c0.02,1.53,0.72,2.29,2.2,2.38c1.51,0.08,2.8-0.45,3.61-1.75c0.78-1.24,0.85-2.6,0.05-3.86
			c-0.87-1.37-2.27-1.77-3.8-1.64c-1.51,0.13-2.88,0.76-4.22,1.44c-1.98,1.01-3.95,2.02-6.13,2.57c-3.65,0.91-7.32,1.14-11.18,0.22
			c1.37,1.27,3.9,2.09,6.46,2.21C25.6,7.58,29.53,6.65,33.28,4.86z"/>
		<path class="st6" d="M56.52,10.8c-0.38-0.19-0.47-0.39-0.57-0.78c-0.43-1.54-1.64-1.75-2.8-0.53c-0.34,0.28-0.27,0.61-0.12,1.03
			c0.19-0.24,0.35-0.43,0.51-0.63c1.21,0.18,0.83,0.75,0.35,1.38c-0.62,0.82-0.85,1.61,0.27,2.29c0.1-0.61,0.09-1.27,0.9-1.32
			c0.49-0.03,0.92,0.14,1.1,0.62c0.23,0.61,0.04,1.17-0.41,1.62c-0.53,0.53-1.2,0.62-1.9,0.45c-0.7-0.18-1.38-0.44-1.99-0.85
			c0.98-1.33,1.13-2.37,0.45-3.21c-0.57-0.71-1.36-0.93-2.21-0.68c-0.75,0.22-1.27,0.7-1.02,1.63c0.47-0.18,0.77-0.86,1.39-0.41
			c0.34,0.25,0.43,0.61,0.26,0.96c-0.31,0.63-0.9,0.71-1.52,0.59c-0.44-0.09-0.88-0.22-1.32-0.32c-1.81-0.41-3.89-0.49-5.66,0.9
			c2.66-0.72,4.78,0.08,6.81,1.33c0.77,0.48,1.54,0.97,2.32,1.43c0.86,0.51,1.77,0.92,2.76,1.11c1.84,0.34,3.63-0.69,4.25-2.4
			C59.05,13.21,58.42,11.76,56.52,10.8z"/>
	</g>
	<path d="M42.78,60.36c-0.83-0.51-0.44-1.31-0.45-1.96c-0.05-4.11,0.35-3.55-3.55-3.61c-0.04,0-0.09-0.02-0.31-0.09
		c0.66-1.19,0.21-1.51-0.98-1.43c-0.74,0.05-1.35,0.06-1.47,0.96c-0.03,0.23-0.15,0.52-0.38,0.51c-0.99-0.04-0.71,0.66-0.78,1.2
		c-0.2,1.56,0.52,3.22-0.51,4.7c-0.08,0.12,0.02,0.52,0.15,0.6c0.53,0.31,0.35,0.79,0.35,1.21c0.02,1.32,0,2.63,0.01,3.95
		c0.01,0.58-0.26,1.31,0.85,1.25c0.93-0.05,1.45-0.31,1.42-1.35c-0.05-1.31-0.03-2.63,0-3.95c0.01-0.34-0.28-0.95,0.34-0.96
		c0.5-0.01,0.32,0.55,0.33,0.88c0.03,0.54,0,1.09,0.01,1.63c0,0.49-0.12,0.99,0.7,1c0.78,0.01,0.76-0.41,0.75-0.95
		c-0.01-0.73,0-1.45,0-2.18c0-0.48,0.29-0.55,0.62-0.37c0.33,0.18,0.22,4.8-0.11,4.99c-0.14,0.09-0.37,0.03-0.52,0.11
		c-0.54,0.25-0.4,0.86-0.13,0.96c0.81,0.29,1.7,0.21,2.54,0.05c0.69-0.14,0.59-0.77,0.66-1.32c0.23-1.77-0.59-3.65,0.53-5.34
		C42.93,60.75,42.88,60.42,42.78,60.36z M38.64,60.28c-1.26,0-1.71-0.36-1.52-1.59c0.06-0.4,0.07-0.82,0-1.22
		c-0.21-1.27,0.2-1.76,1.56-1.63c1.38,0.14,1.39,0.03,1.39,2.22c0,0.23-0.03,0.46,0.01,0.68C40.28,59.91,39.87,60.28,38.64,60.28z"
		/>
	<path class="st0" d="M64.62,75.95c1.74-0.54,2.38-1.24,2.23-2.45c-0.16-1.35-1.14-1.84-2.34-2.07c-1.13-0.22-2.26-0.06-3.39-0.14
		c-0.66-0.04-0.86,0.2-0.85,0.85c0.03,2.31,0.04,4.63,0,6.94c-0.01,0.69,0.27,0.77,0.88,0.82c1.05,0.09,1.48-0.23,1.33-1.32
		c-0.09-0.67-0.02-1.36-0.02-2.4c0.95,1.08,1.75,1.87,2.4,2.77c0.85,1.18,1.93,0.96,3.25,0.84C66.88,78.43,65.77,77.21,64.62,75.95z
		 M62.48,73.01c-0.16-0.72,0.27-0.82,0.86-0.75c0.96,0.11,1.74,0.48,1.67,1.56c-0.08,1.11-1,1.26-2.16,1.3
		C62.02,74.67,62.64,73.72,62.48,73.01z"/>
	<path class="st0" d="M21.47,71.01c-2.67,0.04-4.82,2.09-4.8,4.57c0.02,2.51,2.16,4.44,4.89,4.42c2.69-0.02,4.87-2.06,4.83-4.51
		C26.34,73.03,24.08,70.97,21.47,71.01z M24.04,75.76c-0.01,0.59-0.03,1.16-0.24,1.74c-0.34,0.97-1.02,1.49-2.01,1.56
		c-1.04,0.08-1.9-0.33-2.34-1.29c-0.62-1.37-0.68-2.81-0.16-4.22c0.38-1.05,1.19-1.56,2.32-1.52c1.08,0.03,1.76,0.62,2.12,1.6
		C23.99,74.31,24.07,75.03,24.04,75.76z"/>
	<path class="st0" d="M10.78,71.01c-2.64-0.04-4.85,2-4.87,4.48c-0.03,2.52,2.08,4.5,4.79,4.51c2.73,0.01,4.86-1.92,4.88-4.43
		C15.6,73.1,13.44,71.05,10.78,71.01z M12.39,78.51c-1.18,1.09-3.2,0.59-3.82-0.98c-0.48-1.2-0.54-2.46-0.15-3.72
		c0.37-1.19,1.14-1.81,2.4-1.78c1.23,0.03,1.9,0.76,2.21,1.85c0.17,0.6,0.2,1.25,0.28,1.78C13.22,76.74,13.2,77.76,12.39,78.51z"/>
	<path class="st0" d="M51.33,71.74c-0.37-0.77-1.31-0.85-1.66-0.13c-1.32,2.7-2.57,5.44-3.83,8.13c1.75,0.66,1.91-0.67,2.25-1.64
		c0.3-0.86,0.9-0.91,1.6-0.82c0.77,0.1,1.83-0.47,2.13,0.79c0.42,1.78,1.59,2.11,3.3,1.69C53.83,77.04,52.6,74.38,51.33,71.74z
		 M48.99,76.32c0.15-0.85,0.52-1.53,1-2.39c0.39,0.9,0.7,1.62,1.04,2.39C50.28,76.32,49.66,76.32,48.99,76.32z"/>
	<path class="st4" d="M39.33,57.8c-0.23,0.56,0.4,1.44-0.8,1.41c-1.19-0.03-0.64-0.9-0.66-1.38c-0.02-0.49-0.47-1.35,0.71-1.34
		C39.82,56.51,38.97,57.46,39.33,57.8z"/>
</g>
</svg>
