<?xml version="1.0" encoding="utf-8"?>
<!-- Generator: Adobe Illustrator 25.4.1, SVG Export Plug-In . SVG Version: 6.00 Build 0)  -->
<svg version="1.1" id="Layer_1" xmlns="http://www.w3.org/2000/svg" xmlns:xlink="http://www.w3.org/1999/xlink" x="0px" y="0px"
	 viewBox="0 0 284.55 80" style="enable-background:new 0 0 284.55 80;" xml:space="preserve">
<style type="text/css">
	.st0{fill:none;}
	.st1{fill:#FF5111;}
</style>
<g>
	<path class="st0" d="M0,0h298.67v80H0V0z"/>
	<path d="M92.32,38.31h-7.03v15.12c0,2.74,1.61,3.34,4.09,3.34c0.94,0,1.94-0.13,2.94-0.13V65c-2.07,0.07-4.15,0.34-6.22,0.34
		c-9.7,0-12.18-2.81-12.18-12.25V38.31h-5.75v-7.63h5.75V19.78H85.3v10.91h7.03L92.32,38.31L92.32,38.31z M149.58,38.31h-7.03v15.12
		c0,2.74,1.61,3.34,4.08,3.34c0.94,0,1.95-0.13,2.95-0.13V65c-2.07,0.07-4.15,0.34-6.22,0.34c-9.71,0-12.18-2.81-12.18-12.25V38.31
		h-5.75v-7.63h5.75V19.78h11.38v10.91h7.03L149.58,38.31L149.58,38.31z M31.73,50.56c0,10.15-5.21,15.29-15.87,15.29
		C3.87,65.85,0,58.94,0,48.84v-1.96h11.1v4.19c0,2.99,1.65,4.63,4.57,4.63c2.73,0,4.25-1.52,4.25-5.9V19.6h11.8L31.73,50.56
		L31.73,50.56z M44.24,50.39c0.19,4.71,2.91,7.83,7.69,7.83c2.72,0,5.37-1.26,6.43-3.78h10.54c-2.05,7.95-9.41,11.4-17.11,11.4
		c-11.21,0-18.84-6.76-18.84-18.3c0-10.55,8.43-18.11,18.57-18.11c12.34,0,18.51,9.29,17.98,20.95L44.24,50.39L44.24,50.39z
		 M58.23,44.1c-0.2-3.84-2.92-7.03-6.7-7.03c-3.98,0-6.63,2.85-7.29,7.03L58.23,44.1L58.23,44.1z M103.4,53.55
		c0,1.72,0.73,2.97,1.85,3.83c1.06,0.8,2.59,1.19,4.17,1.19c2.19,0,5.29-0.93,5.29-3.64c0-2.64-3.51-3.17-5.49-3.63
		c-7.08-1.79-15.95-1.98-15.95-11.25c0-8.27,8.93-10.52,15.68-10.52c7.54,0,15.41,2.19,15.81,11.12h-10.39
		c0-1.46-0.53-2.38-1.46-2.99c-0.92-0.59-2.18-0.85-3.57-0.85c-1.85,0-4.83,0.2-4.83,2.59c0,3.23,7.54,3.83,12.7,4.96
		c6.94,1.39,8.73,6.41,8.73,9.26c0,9.19-8.73,12.24-16.47,12.24c-8.14,0-16.47-2.71-16.8-12.3L103.4,53.55L103.4,53.55z
		 M151.63,41.17c0.2-4.49,2.31-7.39,5.34-9.17c3.04-1.72,7-2.38,10.89-2.38c8.12,0,15.97,1.79,15.97,11.48v14.99
		c0,2.9,0,6.06,1.32,8.77h-11.29c-0.39-1.06-0.52-2.11-0.65-3.23c-2.91,3.04-7.19,4.22-11.28,4.22c-6.53,0-11.68-3.3-11.68-10.36
		c0-11.16,12.14-10.29,19.93-11.87c1.91-0.39,2.97-1.06,2.97-3.17c0-2.58-3.1-3.57-5.41-3.57c-3.1,0-5.08,1.39-5.61,4.29
		L151.63,41.17L151.63,41.17z M166.15,58.92c5.35,0,7.13-3.03,6.86-10.09c-1.58,0.99-4.49,1.19-6.93,1.85
		c-2.51,0.59-4.62,1.65-4.62,4.36C161.47,57.81,163.65,58.93,166.15,58.92L166.15,58.92z M201.12,31.68
		c-1.72,1.13-3.05,2.77-3.86,4.91h-0.13v-6.03h-10.92V64.9h11.25v-17c0-4.29,2.91-8.14,8.46-8.14c1.29,0,2.45,0.2,3.65,0.5
		L201.12,31.68L201.12,31.68z"/>
	<path class="st1" d="M250.57,0l1.47,23.55h32.52l-31.15,20.61l6.87,33.99L233.8,55.16l-35.63,18.5l21.25-29.13l-20.15-20.98h32.61
		L250.57,0z"/>
</g>
</svg>
