<?xml version="1.0" encoding="utf-8"?>
<!-- Generator: Adobe Illustrator 25.4.1, SVG Export Plug-In . SVG Version: 6.00 Build 0)  -->
<svg version="1.1" id="Layer_2_00000159471598350358213750000014612203606435250611_"
	 xmlns="http://www.w3.org/2000/svg" xmlns:xlink="http://www.w3.org/1999/xlink" x="0px" y="0px" viewBox="0 0 80 80"
	 style="enable-background:new 0 0 80 80;" xml:space="preserve">
<style type="text/css">
	.st0{fill-rule:evenodd;clip-rule:evenodd;fill:#AA182C;}
	.st1{fill:#AA182C;}
</style>
<g>
	<path class="st0" d="M27.2,65.9c0,1.6-1.3,2.8-2.8,2.8c-1.6,0-2.8-1.3-2.8-2.8c0-1.6,1.3-2.8,2.8-2.8C25.9,63,27.2,64.3,27.2,65.9
		L27.2,65.9z"/>
	<path class="st0" d="M27.2,25.1c0,1.6-1.3,2.8-2.8,2.8c-1.6,0-2.8-1.3-2.8-2.8c0-1.6,1.3-2.8,2.8-2.8
		C25.9,22.3,27.2,23.5,27.2,25.1L27.2,25.1z"/>
	<path class="st0" d="M14.1,62.6c1.8,0,3.2,1.4,3.2,3.2c0,1.8-1.4,3.2-3.2,3.2c-1.8,0-3.2-1.4-3.2-3.2
		C10.9,64.1,12.4,62.6,14.1,62.6L14.1,62.6z"/>
	<path class="st0" d="M14.1,52.8c1.6,0,2.8,1.3,2.8,2.8c0,1.6-1.3,2.8-2.8,2.8c-1.6,0-2.8-1.3-2.8-2.8
		C11.3,54.1,12.6,52.8,14.1,52.8L14.1,52.8z"/>
	<path class="st0" d="M54.9,52.8c1.6,0,2.8,1.3,2.8,2.8c0,1.6-1.3,2.8-2.8,2.8c-1.6,0-2.8-1.3-2.8-2.8
		C52.1,54.1,53.3,52.8,54.9,52.8L54.9,52.8z"/>
	<path class="st0" d="M14.1,43c1.4,0,2.5,1.1,2.5,2.5c0,1.4-1.1,2.4-2.5,2.4c-1.4,0-2.5-1.1-2.5-2.4C11.7,44.1,12.8,43,14.1,43
		L14.1,43z"/>
	<path class="st0" d="M21.9,55.7c0,1.4,1.1,2.4,2.5,2.4c1.4,0,2.5-1.1,2.5-2.4s-1.1-2.4-2.5-2.4C23,53.2,21.9,54.3,21.9,55.7z"/>
	<path class="st0" d="M42.3,55.7c0,1.4,1.1,2.4,2.5,2.4s2.5-1.1,2.5-2.4s-1.1-2.4-2.5-2.4S42.3,54.3,42.3,55.7z"/>
	<path class="st0" d="M21.9,35.3c0,1.4,1.1,2.4,2.5,2.4c1.4,0,2.5-1.1,2.5-2.4c0-1.4-1.1-2.5-2.5-2.5C23,32.8,21.9,33.9,21.9,35.3z"
		/>
	<path class="st0" d="M42.3,35.3c0,1.4,1.1,2.4,2.5,2.4s2.5-1.1,2.5-2.4c0-1.4-1.1-2.5-2.5-2.5S42.3,33.9,42.3,35.3z"/>
	<path class="st0" d="M26.4,45.5c0-1.1-0.9-2.1-2.1-2.1c-1.1,0-2.1,0.9-2.1,2.1c0,1.1,0.9,2.1,2.1,2.1
		C25.5,47.5,26.4,46.6,26.4,45.5z"/>
	<path class="st0" d="M0,76c0,2.2,1.8,4,4,4c2.2,0,4-1.8,4-4c0-2.2-1.8-4-4-4C1.8,72.1,0,73.9,0,76z"/>
	<path class="st0" d="M0,55.7c0,2.2,1.8,4,4,4c2.2,0,4-1.8,4-4s-1.8-4-4-4C1.8,51.7,0,53.5,0,55.7z"/>
	<path class="st0" d="M0,35.3c0,2.2,1.8,4,4,4c2.2,0,4-1.8,4-4c0-2.2-1.8-4-4-4C1.8,31.3,0,33.1,0,35.3z"/>
	<path class="st0" d="M20.4,76c0,2.2,1.8,4,4,4c2.2,0,4-1.8,4-4c0-2.2-1.8-4-4-4C22.2,72.1,20.4,73.9,20.4,76z"/>
	<path class="st0" d="M40.8,76c0,2.2,1.8,4,4,4s4-1.8,4-4c0-2.2-1.8-4-4-4S40.8,73.9,40.8,76z"/>
	<path class="st0" d="M37,65.9c0,1.4-1.1,2.5-2.5,2.5c-1.4,0-2.5-1.1-2.5-2.5c0-1.4,1.1-2.5,2.5-2.5C35.9,63.4,37,64.5,37,65.9z"/>
	<path class="st0" d="M36.6,55.7c0,1.1-0.9,2.1-2.1,2.1c-1.1,0-2.1-0.9-2.1-2.1c0-1.1,0.9-2.1,2.1-2.1
		C35.7,53.6,36.6,54.5,36.6,55.7z"/>
	<path class="st1" d="M36.2,45.5c0-0.9-0.8-1.7-1.7-1.7c-0.9,0-1.7,0.8-1.7,1.7c0,0.9,0.8,1.7,1.7,1.7
		C35.5,47.2,36.2,46.4,36.2,45.5z"/>
	<path class="st0" d="M27.5,14.9c0-1.8-1.4-3.2-3.2-3.2c-1.8,0-3.2,1.4-3.2,3.2c0,1.8,1.4,3.2,3.2,3.2
		C26.1,18.1,27.5,16.7,27.5,14.9z"/>
	<path class="st0" d="M27.9,4.7c0-2-1.6-3.6-3.6-3.6c-2,0-3.6,1.6-3.6,3.6c0,2,1.6,3.6,3.6,3.6C26.3,8.3,27.9,6.7,27.9,4.7z"/>
	<path class="st0" d="M61.9,55.7c0,1.8,1.4,3.2,3.2,3.2c1.8,0,3.2-1.4,3.2-3.2s-1.4-3.2-3.2-3.2C63.3,52.5,61.9,53.9,61.9,55.7z"/>
	<path class="st0" d="M78.9,55.7c0-2-1.6-3.6-3.6-3.6c-2,0-3.6,1.6-3.6,3.6c0,2,1.6,3.6,3.6,3.6C77.3,59.2,78.9,57.6,78.9,55.7z"/>
	<path class="st0" d="M58.1,25.1c0,1.8-1.4,3.2-3.2,3.2c-1.8,0-3.2-1.4-3.2-3.2c0-1.8,1.4-3.2,3.2-3.2
		C56.7,21.9,58.1,23.3,58.1,25.1z"/>
	<path class="st0" d="M69.1,14.9c0,2.2-1.8,4-4,4c-2.2,0-4-1.8-4-4c0-2.2,1.8-4,4-4C67.3,10.9,69.1,12.7,69.1,14.9z"/>
	<path class="st0" d="M80,4.7c0,2.6-2.1,4.7-4.7,4.7c-2.6,0-4.7-2.1-4.7-4.7c0-2.6,2.1-4.7,4.7-4.7C77.9,0,80,2.1,80,4.7z"/>
</g>
</svg>
