<?xml version="1.0" encoding="utf-8"?>
<!-- Generator: Adobe Illustrator 25.4.1, SVG Export Plug-In . SVG Version: 6.00 Build 0)  -->
<svg version="1.1" id="Layer_2_00000159471598350358213750000014612203606435250611_"
	 xmlns="http://www.w3.org/2000/svg" xmlns:xlink="http://www.w3.org/1999/xlink" x="0px" y="0px" viewBox="0 0 298.2 80"
	 style="enable-background:new 0 0 298.2 80;" xml:space="preserve">
<style type="text/css">
	.st0{fill-rule:evenodd;clip-rule:evenodd;fill:#AA182C;}
	.st1{fill:#AA182C;}
</style>
<g>
	<g>
		<path class="st0" d="M255.8,52.9c0,1.3-1,2.3-2.3,2.3c-1.3,0-2.3-1-2.3-2.3c0-1.3,1-2.3,2.3-2.3C254.8,50.6,255.8,51.6,255.8,52.9
			L255.8,52.9z"/>
		<path class="st0" d="M255.8,20.1c0,1.3-1,2.3-2.3,2.3c-1.3,0-2.3-1-2.3-2.3c0-1.3,1-2.3,2.3-2.3C254.8,17.9,255.8,18.9,255.8,20.1
			L255.8,20.1z"/>
		<path class="st0" d="M245.4,50.3c1.4,0,2.6,1.2,2.6,2.6c0,1.4-1.2,2.6-2.6,2.6c-1.4,0-2.6-1.1-2.6-2.6
			C242.8,51.4,244,50.3,245.4,50.3L245.4,50.3z"/>
		<path class="st0" d="M245.4,42.4c1.3,0,2.3,1,2.3,2.3c0,1.3-1,2.3-2.3,2.3c-1.3,0-2.3-1-2.3-2.3C243.1,43.4,244.1,42.4,245.4,42.4
			L245.4,42.4z"/>
		<path class="st0" d="M278.1,42.4c1.2,0,2.3,1,2.3,2.3c0,1.3-1,2.3-2.3,2.3c-1.3,0-2.3-1-2.3-2.3C275.8,43.4,276.9,42.4,278.1,42.4
			L278.1,42.4z"/>
		<path class="st0" d="M245.4,34.5c1.1,0,2,0.9,2,2c0,1.1-0.9,2-2,2c-1.1,0-2-0.9-2-2C243.4,35.4,244.3,34.5,245.4,34.5L245.4,34.5z
			"/>
		<path class="st0" d="M251.6,44.7c0,1.1,0.9,2,2,2c1.1,0,2-0.9,2-2c0-1.1-0.9-2-2-2C252.5,42.7,251.6,43.6,251.6,44.7z"/>
		<path class="st0" d="M268,44.7c0,1.1,0.9,2,2,2c1.1,0,2-0.9,2-2c0-1.1-0.9-2-2-2C268.8,42.7,268,43.6,268,44.7z"/>
		<path class="st0" d="M251.6,28.3c0,1.1,0.9,2,2,2c1.1,0,2-0.9,2-2c0-1.1-0.9-2-2-2C252.5,26.4,251.6,27.2,251.6,28.3z"/>
		<path class="st0" d="M268,28.3c0,1.1,0.9,2,2,2c1.1,0,2-0.9,2-2c0-1.1-0.9-2-2-2C268.8,26.4,268,27.2,268,28.3z"/>
		<path class="st0" d="M255.2,36.5c0-0.9-0.7-1.7-1.7-1.7c-0.9,0-1.7,0.7-1.7,1.7c0,0.9,0.7,1.7,1.7,1.7
			C254.5,38.2,255.2,37.4,255.2,36.5z"/>
		<path class="st0" d="M234,61c0,1.8,1.4,3.2,3.2,3.2c1.8,0,3.2-1.4,3.2-3.2c0-1.8-1.4-3.2-3.2-3.2C235.5,57.9,234,59.3,234,61z"/>
		<path class="st0" d="M234,44.7c0,1.8,1.4,3.2,3.2,3.2c1.8,0,3.2-1.4,3.2-3.2s-1.4-3.2-3.2-3.2C235.5,41.5,234,42.9,234,44.7z"/>
		<path class="st0" d="M234,28.3c0,1.8,1.4,3.2,3.2,3.2c1.8,0,3.2-1.4,3.2-3.2c0-1.8-1.4-3.2-3.2-3.2C235.5,25.1,234,26.6,234,28.3z
			"/>
		<path class="st0" d="M250.4,61c0,1.8,1.4,3.2,3.2,3.2c1.8,0,3.2-1.4,3.2-3.2c0-1.8-1.4-3.2-3.2-3.2
			C251.8,57.9,250.4,59.3,250.4,61z"/>
		<path class="st0" d="M266.7,61c0,1.8,1.4,3.2,3.2,3.2c1.8,0,3.2-1.4,3.2-3.2c0-1.8-1.4-3.2-3.2-3.2
			C268.2,57.9,266.7,59.3,266.7,61z"/>
		<path class="st0" d="M263.7,52.9c0,1.1-0.9,2-2,2c-1.1,0-2-0.9-2-2c0-1.1,0.9-2,2-2C262.8,50.9,263.7,51.8,263.7,52.9z"/>
		<path class="st0" d="M263.4,44.7c0,0.9-0.7,1.7-1.7,1.7c-0.9,0-1.7-0.7-1.7-1.7c0-0.9,0.7-1.7,1.7-1.7
			C262.7,43,263.4,43.8,263.4,44.7z"/>
		<path class="st1" d="M263.1,36.5c0-0.7-0.6-1.4-1.4-1.4s-1.4,0.6-1.4,1.4c0,0.8,0.6,1.4,1.4,1.4S263.1,37.2,263.1,36.5z"/>
		<path class="st0" d="M256.1,12c0-1.4-1.1-2.6-2.6-2.6c-1.4,0-2.6,1.2-2.6,2.6c0,1.4,1.2,2.6,2.6,2.6C255,14.5,256.1,13.4,256.1,12
			z"/>
		<path class="st0" d="M256.4,3.8c0-1.6-1.3-2.9-2.9-2.9c-1.6,0-2.9,1.3-2.9,2.9c0,1.6,1.3,2.9,2.9,2.9
			C255.2,6.7,256.4,5.4,256.4,3.8z"/>
		<path class="st0" d="M283.7,44.7c0,1.4,1.2,2.6,2.6,2.6c1.4,0,2.6-1.1,2.6-2.6c0-1.4-1.2-2.6-2.6-2.6
			C284.9,42.1,283.7,43.3,283.7,44.7z"/>
		<path class="st0" d="M297.3,44.7c0-1.6-1.3-2.9-2.9-2.9c-1.6,0-2.9,1.3-2.9,2.9c0,1.6,1.3,2.9,2.9,2.9
			C296.1,47.6,297.3,46.3,297.3,44.7z"/>
		<path class="st0" d="M280.7,20.1c0,1.4-1.1,2.6-2.6,2.6c-1.4,0-2.6-1.2-2.6-2.6c0-1.4,1.1-2.6,2.6-2.6
			C279.5,17.6,280.7,18.7,280.7,20.1z"/>
		<path class="st0" d="M289.5,12c0,1.8-1.4,3.2-3.2,3.2c-1.7,0-3.2-1.4-3.2-3.2c0-1.8,1.4-3.2,3.2-3.2C288,8.8,289.5,10.2,289.5,12z
			"/>
		<path class="st0" d="M298.2,3.8c0,2.1-1.7,3.8-3.8,3.8c-2.1,0-3.8-1.7-3.8-3.8c0-2.1,1.7-3.8,3.8-3.8C296.6,0,298.2,1.7,298.2,3.8
			z"/>
	</g>
	<path class="st1" d="M20.9,58.6c0,0.2,0,18,0,18.2c0.2,0,4.9,0,5.1,0c0-0.2,0-18.7,0-18.9L20.9,58.6z"/>
	<path class="st1" d="M151.9,51.4c0,0.2,0,25.3,0,25.5c0.2,0,4.8,0,5,0c0-0.2,0-25.9,0-26.2c-0.2,0-2.5,0.3-2.5,0.3
		C152.9,51.3,152.1,51.4,151.9,51.4z"/>
	<path class="st1" d="M11.4,75c0,0,0.6,1.8,0.6,1.9c0.1,0,4.4,0,4.6,0c-0.4-1.6-0.5-3.4-0.5-5.4v-6.7c0-4.8-2.3-6.8-7.7-6.8
		c-4,0-6.5,1.6-7.7,2.6c0.1,0.1,2,2.5,2.1,2.6c0.8-0.5,2.5-1.7,4.9-1.7c2.2,0,3.3,1,3.3,3v1h-0.8C5.3,65.5,0,67.2,0,72
		c0,3.2,2.4,5.4,5.7,5.4c2.8,0,4.5-1.5,5.3-2.3H11.4z M11.1,68.2v4l0,0c-0.8,0.8-1.9,1.7-3.7,1.7c-1.2,0-2.5-0.9-2.5-2.4
		c0-2.1,2-3.4,5.4-3.4H11.1z"/>
	<path class="st1" d="M172.4,75c0,0,0.6,1.8,0.6,1.9c0.1,0,4.4,0,4.6,0c-0.3-1.6-0.5-3.4-0.5-5.4v-6.7c0-4.8-2.3-6.8-7.7-6.8
		c-4,0-6.5,1.6-7.7,2.6c0.1,0.1,2,2.5,2.1,2.6c0.7-0.5,2.5-1.7,4.9-1.7c2.2,0,3.3,1,3.3,3v1h-0.8c-5,0-10.3,1.7-10.3,6.5
		c0,3.2,2.4,5.4,5.7,5.4c2.8,0,4.5-1.5,5.3-2.3H172.4z M172.1,68.2v4l0,0c-0.8,0.8-1.9,1.7-3.7,1.7c-1.2,0-2.5-0.9-2.5-2.4
		c0-2.1,2-3.4,5.4-3.4H172.1z"/>
	<path class="st1" d="M23.4,50.1c-1.9,0-3.1,1.1-3.1,2.9c0,1.8,1.2,2.9,3.1,2.9c1.9,0,3.1-1.1,3.1-2.9
		C26.5,51.2,25.4,50.1,23.4,50.1z"/>
	<path class="st1" d="M129.8,76.9h5V64.1c1.1-1.4,2.6-2.2,4.1-2.2c1.9,0,2.8,0.9,2.8,3v11.9h5v-13c0-2.7-1-5.9-5.7-5.9
		c-2.4,0-4.4,0.9-6.1,2.7h-0.3l-0.9-2.6l-4.5,1.1c0.4,1.6,0.5,2.7,0.5,4.7V76.9z"/>
	<path class="st1" d="M182,76.9h5V64.1c1.1-1.4,2.6-2.2,4.1-2.2c1.9,0,2.8,0.9,2.8,3v11.9h5v-13c0-2.7-1-5.9-5.7-5.9
		c-2.4,0-4.4,0.9-6.1,2.7h-0.3l-0.9-2.6l-4.5,1.1c0.4,1.6,0.5,2.7,0.5,4.7V76.9z"/>
	<path class="st1" d="M35.9,61l-1-2.9l-4.4,1.1c0.3,1.5,0.5,2.5,0.5,4.3c0,0,0,13.3,0,13.5c0.2,0,4.8,0,5,0c0-0.2,0-12,0-12
		c0.3-0.4,1.7-2.7,4.4-2.7c1,0,1.7,0.2,2,0.3c0.1-0.2,1.1-3.9,1.2-4.1C43,58.1,42.2,58,41.2,58c-2.9,0-4.5,2.3-4.9,3H35.9z"/>
	<path class="st1" d="M78.4,61l-1-2.9l-4.4,1.1c0.3,1.5,0.5,2.5,0.5,4.3c0,0,0,13.3,0,13.5c0.2,0,4.8,0,5,0c0-0.2,0-12,0-12
		c0.3-0.4,1.7-2.7,4.4-2.7c1,0,1.7,0.2,2,0.3c0.1-0.2,1.1-3.9,1.2-4.1c-0.6-0.3-1.4-0.4-2.5-0.4c-2.9,0-4.5,2.3-4.9,3H78.4z"/>
	<path class="st1" d="M64.6,73.5c-2,0-5.8,0.5-7.2,0.6c-1.3,0.1-1.8-0.1-1.8-0.7c0-0.4,0.4-0.9,0.6-1.1l1.1-1.3
		c0.6,0.1,1.7,0.3,2.6,0.3c5.1,0,8.3-2.5,8.3-6.6c0-1.3-0.3-2.3-0.9-3.3c0,0,2.1,0,2.3,0l0.9-3c-0.5-0.2-1.1-0.3-1.9-0.3
		c-1.2,0-2.2,0.5-3.1,1.5C63,58,60.8,58,59.6,58c-5.1,0-8.5,2.6-8.5,6.7c0,2.9,1.8,4.6,3.3,5.4c-1.6,1.7-3.1,3.5-3.1,5
		c0,0.3,0.1,1.1,0.8,1.7c0.8,0.7,2,1,3.7,0.9c1.7-0.1,4.6-0.3,6.2-0.3c1.8,0,2.9,0.9,2.8,2.7h4.3c0.3-1.5,0.8-3.6-0.3-5
		C67.9,73.7,65.9,73.5,64.6,73.5z M59.6,61c2.3,0,3.7,1.4,3.7,3.6c0,2.3-1.4,3.6-3.7,3.6c-2.3,0-3.7-1.4-3.7-3.6
		C55.9,62.3,57.3,61,59.6,61z"/>
	<path class="st1" d="M102.2,60.2c-1.4-1.5-3.5-2.3-6.1-2.3c-5.6,0-9.5,3.9-9.5,9.6c0,6,3.9,9.8,10.1,9.8c3.9,0,5.8-1,7.1-1.7
		l-1.6-3.1c-1,0.5-2.6,1.3-5,1.3c-3.9,0-5-2.8-5.2-5.2h12.4C104.7,64.5,103.7,61.7,102.2,60.2z M91.9,65.8c0.3-3,1.9-4.5,4.1-4.5
		c2.2,0,3.5,1.5,3.5,4.1L91.9,65.8z"/>
	<path class="st1" d="M123.2,60.2c-1.4-1.5-3.5-2.3-6.1-2.3c-5.6,0-9.5,3.9-9.5,9.6c0,6,3.9,9.8,10.1,9.8c3.9,0,5.8-1,7.1-1.7
		l-1.6-3.1c-1,0.5-2.6,1.3-5,1.3c-3.9,0-5-2.8-5.2-5.2h12.4C125.8,64.5,124.7,61.7,123.2,60.2z M113,65.8c0.3-3,1.9-4.5,4.1-4.5
		c2.2,0,3.5,1.5,3.5,4.1L113,65.8z"/>
	<path class="st1" d="M220.9,71.7c0,0,0-20.6,0-20.8l-5,0.7c0,0.2,0,7.9,0,7.9c-1.4-1.1-2.9-1.5-4.7-1.5c-5,0-8.6,4-8.6,9.7
		c0,6.1,2.9,9.7,7.9,9.7c2.2,0,4-0.8,5.4-2.4h0.3l0.6,1.9h4.6C221.2,75.9,220.9,74.1,220.9,71.7z M215.8,71.6c-0.2,0.3-1.6,2-3.8,2
		c-2.7,0-4.1-2-4.1-5.9c0-3.8,1.6-6,4.4-6c1.8,0,2.9,0.7,3.6,1.3V71.6z"/>
</g>
</svg>
