<?xml version="1.0" encoding="utf-8"?>
<!-- Generator: Adobe Illustrator 25.4.1, SVG Export Plug-In . SVG Version: 6.00 Build 0)  -->
<svg version="1.1" id="Layer_2_00000159471598350358213750000014612203606435250611_"
	 xmlns="http://www.w3.org/2000/svg" xmlns:xlink="http://www.w3.org/1999/xlink" x="0px" y="0px" viewBox="0 0 249.5 80"
	 style="enable-background:new 0 0 249.5 80;" xml:space="preserve">
<style type="text/css">
	.st0{fill:#35B0E6;}
	.st1{fill:#FF0000;}
</style>
<g id="g18" transform="translate(-79.5,-107.2)">
	<path id="path4" class="st0" d="M294.9,132.9H311v4.1c2.8-3.6,8.8-5,12.2-5c1.8,0,3.7,0.2,5.8,0.9v15.8c-2.4-1.3-4.9-2-8.2-2
		c-2.8,0-6.8,1.4-9.8,4.6v35h-16.1V132.9z"/>
	<path id="path6" class="st0" d="M275.1,131.9L275.1,131.9c4.8,0,8.7,3.6,8.7,8.1v46.4h-17.3V140
		C266.4,135.5,270.3,131.9,275.1,131.9L275.1,131.9z"/>
	<circle id="circle8" class="st1" cx="275.1" cy="116.6" r="9.4"/>
	<g id="g12">
		<path id="path10" class="st0" d="M239,132.8v4.1c-3.4-3.7-9.3-5-13.1-5c-15.8,0-25.9,12.9-25.9,27.5l0,0l0,0l0,0l0,0
			c0,14.7,10.1,27.5,25.9,27.5c4.4,0,10.4-2.1,13.1-4.8v3.9h16.1v-53.4L239,132.8L239,132.8z M239,168c-2.2,2.9-5.5,4.4-9.4,4.4
			c-7.7,0-13.3-5.8-13.3-12.8c0-7,5.2-12.8,12.8-12.8c4,0,7.6,1.6,9.9,4.5V168z"/>
	</g>
	<path id="path14" class="st1" d="M79.5,159.7c0-15.1,12.4-27.5,27.8-27.5c9.9,0,18.5,5,23.4,12.6l-12.8,9.1
		c-2.1-3.9-5.9-6.6-10.5-6.6c-6.6,0-11.5,5.2-11.5,12.5c0,7.4,4.9,12.5,11.5,12.5c4.7,0,8.4-2.6,10.5-6.6l12.8,9.1
		c-4.9,7.6-13.6,12.6-23.4,12.6C91.9,187.2,79.5,174.8,79.5,159.7z"/>
	<path id="path16" class="st1" d="M139.4,108.5h16.1V137c2.3-3,7.6-5,12.3-5c15,0,23.3,10.1,23.3,24.5v29.8H175v-27
		c0-7.1-2.7-12.6-9.9-12.6c-3.1,0-6.9,1.6-9.6,4.6v35h-16.1L139.4,108.5L139.4,108.5z"/>
</g>
</svg>
