<?xml version="1.0" encoding="utf-8"?>
<!-- Generator: Adobe Illustrator 25.4.1, SVG Export Plug-In . SVG Version: 6.00 Build 0)  -->
<svg version="1.1" xmlns="http://www.w3.org/2000/svg" xmlns:xlink="http://www.w3.org/1999/xlink" x="0px" y="0px"
	 viewBox="0 0 115.7 80" style="enable-background:new 0 0 115.7 80;" xml:space="preserve">
<style type="text/css">
	.st0{fill:#0C0C11;}
	.st1{fill:#092028;}
</style>
<g id="Layer_1">
	<path class="st0" d="M-238.6-885.5c-0.7-0.1-1.8,0-2.5,0c0.5-0.4,1.2-0.7,1.6-0.5c0.1,0,0.1,0,0.2,0.1
		C-239.1-885.8-238.8-885.6-238.6-885.5z"/>
	<g id="text835">
	</g>
</g>
<g id="Layer_2">
	<g>
		<polygon class="st1" points="43.5,80 55,44.2 36.4,43.1 30.6,51.2 23.3,50.8 28.5,39.2 24,28.6 30.6,28.6 36.3,36 55,34.6 43.2,0 
			33.7,0 0,80 		"/>
		<path class="st1" d="M51.2,80l20.4-34.8l19.1-0.6c0,0,6.3-0.2,6.3-4.5s-4.1-4.9-6.3-4.9s-18.9,0-18.9,0L51.9,0h63.8L84.2,80H51.2z
			"/>
	</g>
</g>
</svg>
