<?xml version="1.0" encoding="utf-8"?>
<!-- Generator: Adobe Illustrator 25.4.1, SVG Export Plug-In . SVG Version: 6.00 Build 0)  -->
<svg version="1.1" xmlns="http://www.w3.org/2000/svg" xmlns:xlink="http://www.w3.org/1999/xlink" x="0px" y="0px"
	 viewBox="0 0 225.1 80" style="enable-background:new 0 0 225.1 80;" xml:space="preserve">
<style type="text/css">
	.st0{fill:#0C0C11;}
	.st1{fill:#FEA501;}
	.st2{fill:#FEA400;}
	.st3{fill:#092028;}
</style>
<g id="Layer_1">
	<path class="st0" d="M-238.6-885.5c-0.7-0.1-1.8,0-2.5,0c0.5-0.4,1.2-0.7,1.6-0.5c0.1,0,0.1,0,0.2,0.1
		C-239.1-885.8-238.8-885.6-238.6-885.5z"/>
	<g id="text835">
	</g>
</g>
<g id="Layer_2">
	<g>
		<path class="st1" d="M81.5,45.9c0.1-2.6,1.6-4.6,4.1-5.4c0.7-0.2,1.3,0,1.8,0.5c0.5,0.5,0.7,1.2,0.4,1.8c-1,2-2.2,3.8-4.6,4.5
			C81.9,47.6,81.4,47.4,81.5,45.9z"/>
		<path class="st1" d="M132.7,45.9c0.1-3,1.6-4,4-5.2c0.7-0.3,1.4-0.1,1.9,0.4c0.5,0.5,0.7,1.1,0.4,1.8c-1,1.9-2,3.7-4.3,4.4
			C133,47.8,132.6,47.6,132.7,45.9z"/>
		<g>
			<path class="st2" d="M117.1,53.5c2-3.8,3.9-7.6,6.6-11c1.1-1.4,0.7-2.6-0.8-2.8c-4.9,2.8-9.6,15.6-12.2,21.1l0,0
				c-0.8,2.2-10.7,21.1-4.8,19.1c1.2-0.9,2-2.1,2.3-3.6C110.1,68.3,113.7,60.8,117.1,53.5z"/>
			<path class="st2" d="M156.2,73.3c-5.4,2.4-0.3-10-0.6-12.5c1.3-4.1-4-5.7-6.5-2.9c-3.2,2.5-6.1,5.4-8.8,8.4
				c-0.7,0.7-6.8,8.5-5.4,3.9c1.5-1.6,10.8-18.3,3.3-13.8c-2.3,4.2-3.5,9-5.9,13.3c-0.7,2.6-4.4,5.7-2.6,8.2
				c0.8,0.8,1.7,0.5,2.6-0.1c8.4-6.1,25.2-33,17.8-4.4C150.3,83.3,162.7,71,156.2,73.3z"/>
			<path class="st2" d="M129.1,55.4c-3.1-1.6-3.8,4-5.4,5.6h0c-1,2.7-9.6,17.1-6.3,18.1c2.2,0.8,2.6-1.7,3-3.3
				c2.1-6.5,5.1-12.6,8.9-18.3C129.8,56.8,130.1,56,129.1,55.4z"/>
			<path class="st2" d="M77.8,55.1c-3.6-2-11,18.6-12.4,21.8c-0.3,0.9-0.3,1.8,0.9,2.1c3,0.7,2.6-3.3,3.5-5.1
				c1.6-5.2,4.6-9.9,6.8-14.8c0.8-0.2,1.4-1.5,1.6-2.2l0,0C79,56.2,78.7,55.6,77.8,55.1z"/>
			<path class="st2" d="M103.8,59.4c6.1,2.9,4.3-13.5-9.4,0c-0.5,0.7-1.5,1.2-1.8,1.9c-2.3,1.8-4,4.4-5.9,6.8
				c-0.3,0.4-0.6,1.3-1.2,0.9c-0.8-1.1,3.7-8.6,4.4-10.4c0,0,0,0,0,0c0.7-1.2,2.5-3.1,0.8-4.2c-1-0.6-1.8-0.1-2.4,0.7
				c-3.7,6.5-6.3,13.7-8.6,20.8c-1.3,3.4,1.4,5.5,3.4,1.9c3.9-8.1,10.2-14.8,17.7-19.7c0.6,0,1.2-0.2,1.8,0v0
				C103.1,58.5,103.4,59,103.8,59.4z"/>
			<path class="st2" d="M205.6,52.1c-4.7,1.3-9.8,3.1-13.4,6.6c-5.3,5.2-0.2,8.8,4.5,12c4.1,3.5-8.3,7.3-11,5.3
				c-0.8-0.3-1.6-0.3-2.3,0.1c-8.3,8.3,26.2,0.7,16.7-7.9c-3.8-3.4-11.3-4.1-3.9-9.7c2.5-1.1,5.5-4.5,8.4-2.4
				C207.2,58.1,209.2,51.1,205.6,52.1z"/>
			<path class="st2" d="M58.5,71.2c-1.2-8-2.6-16.6-0.8-24.5c1.3-3.1-3.7-1.6-4.4,0.1c-8.4,10.6-18,20.1-27.5,29.7
				c-1,1.2,0.3,2.9,1.7,2.5c3.7-2.2,5.9-6.7,9.2-9.6c1.2-1.6,1.4,1.1,3.1,0.2c2.2,0,14-4.2,13.9-1.3c1,3.3-0.1,12.4,4.8,11.6
				C62.7,78,58.6,74.3,58.5,71.2z M53.6,52.6c-1.2,15.8,2.7,9.1-11.9,13.5c-0.4,0.1-0.9,0.5-1.2,0c2.8-5,8-9.4,11.7-14.2
				C52.6,50.9,54,51.6,53.6,52.6z"/>
			<path class="st2" d="M181.8,69.9c-1.4-0.3-2.5,2-3.8,2.6c-2.8,2.1-12.6,6.5-13,0.6c-0.1-4.6,12.4-5.7,17-12.8
				c6-6.3,0-9.3-5.9-5.4c-6.7,4.1-13.2,10.4-14.8,18.2c-0.9,7.4,7.6,7.3,12.1,4.4C175.7,76.3,182.2,72.5,181.8,69.9z M167.9,65.8
				c2.4-3.6,5.3-6.7,9.1-8.9c2.2-1.7,5-0.5,2.7,2.2C179.3,60.5,166.3,69.9,167.9,65.8z"/>
		</g>
		<polygon class="st3" points="24.4,44.9 30.9,24.8 20.5,24.2 17.2,28.7 13.1,28.6 16,22 13.5,16.1 17.2,16.1 20.4,20.2 30.9,19.4 
			24.3,0 18.9,0 0,44.9 		"/>
		<path class="st3" d="M28.7,44.9l11.4-19.6L50.9,25c0,0,3.5-0.1,3.5-2.5s-2.3-2.8-3.5-2.8s-10.6,0-10.6,0L29.1,0H65L47.3,44.9H28.7
			z"/>
		<path class="st3" d="M171,7.1C170.5,2.7,165,0,159.5,0s-32.3,0-32.3,0L112,32L94.8,0H84.6L54.9,44.3h12.4l8.1-11.9h24.3l6.6,11.9
			h11.2l5.8-11.9h26.8c0,0,11.2,0.1,15.6-8C170,16.4,171.4,11.6,171,7.1z M82.2,22.2l6.6-9.9l5.2,9.9H82.2z M159.5,15
			c-1.4,4.9-3.8,6.7-8.3,6.7c-4.5,0-22.7,0-22.7,0l5.8-11.1h21.1C155.4,10.7,161,10.1,159.5,15z"/>
		<path class="st3" d="M198.6,29.4h5.5c0,0-1.5,5.7-8.2,5.7c-6.7,0-16.1,0-16.1,0s-4.4-0.4-2.7-4.2c1.8-3.7,7.3-15.2,7.3-15.2
			S188,10,194.4,10c6.4,0,13.9,0,13.9,0s5.7,0,3.3,5.6h11l2.2-5.6c0,0,3.2-10-10.1-10C201.4,0,192,0,192,0s-9.7-0.2-14.1,7.7
			c-4.3,7.9-10.9,20.5-10.9,20.5s-7.5,15.7,7.6,16.7c15.1,1.1,24-2,24-2l-0.2,2.3h10.9l11.2-24.8h-17.3L198.6,29.4z"/>
	</g>
</g>
</svg>
