<?xml version="1.0" encoding="utf-8"?>
<!-- Generator: Adobe Illustrator 25.4.1, SVG Export Plug-In . SVG Version: 6.00 Build 0)  -->
<svg version="1.1" id="Layer_1" xmlns="http://www.w3.org/2000/svg" xmlns:xlink="http://www.w3.org/1999/xlink" x="0px" y="0px"
	 viewBox="0 0 391.44 80" style="enable-background:new 0 0 391.44 80;" xml:space="preserve">
<style type="text/css">
	.st0{fill:#203864;}
</style>
<g id="g3457" transform="translate(-67.82027,-40.844178)">
	<path id="path2872" class="st0" d="M458.99,40.85l-0.3,0.02l0.18,0.02L458.99,40.85L458.99,40.85z M458.61,40.95L457.99,41
		l-38.43,2.48l6.8,3.85l0.05,0.02v3.35L458.61,40.95L458.61,40.95z M459.26,41.1l-0.3,0.1l-23.92,10.13v0.02l-0.53,1.9l2.03-1
		l5.03,3.1L459.26,41.1L459.26,41.1z M414.63,43.75l-41.73,2.75l14.76,8.58l0.13,0.08l1.63,7.48l32.55-9.71V48.2v-0.13L414.63,43.75
		L414.63,43.75z M431.02,53.03l-19.86,8.41l-1.1,0.48l-5.08,2.15l-5.85,6.45l9.63-4.6l10.58,5.6l19.21-13.73L431.02,53.03
		L431.02,53.03z"/>
	<path id="path2999" class="st0" d="M110.49,62.78c-4.14,0.49-7.86,0.73-11.13,0.73v45.27h11.13V96.78l2.03-2.72l5.33,14.73h11.75
		l-9.15-24.79l6.35-8.63h-4.46l-11.85,15.73V62.78z M192.28,74.41c-4.25,0-7.74,1.73-10.46,5.18c-2.72,3.45-4.09,7.88-4.09,13.27
		c0,11.12,5.13,16.67,15.37,16.67c7.9,0,12.08-3.86,12.55-11.57l-4.46-1.43c0.04,0.86,0.05,1.63,0.05,2.29
		c0,4.95-1.91,7.42-5.73,7.42c-4.08,0-6.12-4.39-6.12-13.14h16.21C205.59,80.64,201.16,74.41,192.28,74.41L192.28,74.41z
		 M313.54,74.41c-4.25,0-7.72,1.73-10.44,5.18c-2.72,3.45-4.09,7.88-4.09,13.27c0,11.12,5.11,16.67,15.35,16.67
		c7.9,0,12.1-3.86,12.57-11.57l-4.49-1.43c0.04,0.86,0.05,1.63,0.05,2.29c0,4.95-1.91,7.42-5.73,7.42c-4.08,0-6.12-4.39-6.12-13.14
		h16.21C326.85,80.64,322.42,74.41,313.54,74.41L313.54,74.41z M258.4,74.49c-2.99,0-5.54,1.69-7.64,5.07v-5.05
		c-4.27,0.57-7.96,0.86-11.11,0.86v44.71h11.11v-14.06c1.91,2.43,4.35,3.64,7.31,3.64c7.21,0,10.83-5.89,10.83-17.67
		c0-5.33-0.97-9.57-2.88-12.73C264.13,76.09,261.59,74.49,258.4,74.49z M284.81,74.49c-3.41,0.6-6.39,0.89-8.95,0.89l-2.16-0.03
		v33.43h11.11V88.74c0-2.08,0.32-4.05,0.97-5.91c0.65-1.88,1.35-2.81,2.06-2.81c0.93,0,1.39,0.72,1.39,2.13
		c0,0.73-0.14,1.55-0.42,2.46c-0.2,0.62-0.43,1.58-0.69,2.89h7.61c0.26-1.19,0.45-2.1,0.57-2.7c0.35-1.46,0.52-2.76,0.52-3.89
		c0-4.29-1.78-6.42-5.36-6.42c-2.62,0-4.84,1.83-6.64,5.5V74.49z M82.1,74.52c-3.92,0-7.15,1.01-9.64,3.05
		c-2.5,2.01-3.74,4.61-3.74,7.77c0,4.77,3.27,8.69,9.79,11.74c4.33,2.01,6.47,3.85,6.47,5.5c0,2.48-1.34,3.7-4.02,3.7
		c-2.03,0-3.8-0.72-5.31-2.16c-1.48-1.44-2.21-3.13-2.21-5.07c0-0.64,0.02-1.32,0.1-2.05l-5.73,1.27c0,7.54,4.65,11.3,13.96,11.3
		c8.8,0,13.19-3.77,13.19-11.3c0-4.73-3.43-8.64-10.34-11.71c-4.51-1.99-6.77-3.83-6.77-5.56c0-2.34,1.3-3.53,3.92-3.53
		c4.27,0,6.4,2.5,6.4,7.5l5.4-1.03C92.89,77.66,89.07,74.52,82.1,74.52L82.1,74.52z M344.13,74.52c-3.92,0-7.12,1.01-9.62,3.05
		c-2.5,2.01-3.77,4.61-3.77,7.77c0,4.77,3.27,8.69,9.79,11.74c4.33,2.01,6.5,3.85,6.5,5.5c0,2.48-1.36,3.7-4.04,3.7
		c-2.03,0-3.78-0.72-5.28-2.16c-1.48-1.44-2.23-3.13-2.23-5.07c0-0.64,0.04-1.32,0.12-2.05l-5.73,1.27c0,7.54,4.65,11.3,13.96,11.3
		c8.8,0,13.19-3.77,13.19-11.3c0-4.73-3.46-8.64-10.36-11.71c-4.51-1.99-6.77-3.83-6.77-5.56c0-2.34,1.32-3.53,3.94-3.53
		c4.27,0,6.4,2.5,6.4,7.5l5.38-1.03C354.92,77.66,351.1,74.52,344.13,74.52z M373.98,74.52c-3.92,0-7.12,1.01-9.62,3.05
		c-2.5,2.01-3.74,4.61-3.74,7.77c0,4.77,3.25,8.69,9.77,11.74c4.33,2.01,6.5,3.85,6.5,5.5c0,2.48-1.34,3.7-4.02,3.7
		c-2.03,0-3.8-0.72-5.31-2.16c-1.48-1.44-2.23-3.13-2.23-5.07c0-0.64,0.04-1.32,0.12-2.05l-5.73,1.27c0,7.54,4.65,11.3,13.96,11.3
		c8.8,0,13.19-3.77,13.19-11.3c0-4.73-3.46-8.64-10.36-11.71c-4.51-1.99-6.74-3.83-6.74-5.56c0-2.34,1.3-3.53,3.92-3.53
		c4.27,0,6.4,2.5,6.4,7.5l5.4-1.03C384.8,77.66,380.95,74.52,373.98,74.52z M128.49,75.36l12.37,35.07l-0.82,2.37
		c-1,2.94-2.29,4.42-3.89,4.42c-1.42,0-2.3-1.26-2.6-3.8l-3.82,2.99c1.14,2.94,3.28,4.42,6.45,4.42c3.27,0,5.88-2.6,7.81-7.77
		l14.06-37.72h-4.09L146.91,95l-6.2-19.64L128.49,75.36z M206.98,75.36l9.77,18.89l-9.84,14.54h4.26l7.39-10.95l5.78,10.95h12.72
		l-10.39-20.07l9.05-13.36h-4.26l-6.64,9.71l-5.03-9.71H206.98z M192.75,77.7c2.15,0,3.25,3.9,3.25,11.68h-6.64l0.12-3.02
		C189.72,80.59,190.8,77.7,192.75,77.7L192.75,77.7z M314.04,77.7c2.15,0,3.22,3.9,3.22,11.68h-6.64l0.12-3.02
		C310.98,80.59,312.09,77.7,314.04,77.7z M254.33,79.35c2.01,0,3.02,4.18,3.02,12.49c0,8.64-1.06,12.95-3.17,12.95
		c-2.36,0-3.55-4.31-3.55-12.95C250.64,83.53,251.88,79.35,254.33,79.35z"/>
	<path id="path3455" class="st0" d="M445.23,76.08l-0.19,0.02l0.11,0.02L445.23,76.08L445.23,76.08z M444.99,76.14l-0.4,0.03
		l-24.69,1.59l4.37,2.48l0.03,0.02v2.15L444.99,76.14L444.99,76.14z M445.41,76.24l-0.19,0.06l-15.36,6.51v0.02l-0.34,1.22l1.3-0.64
		l3.23,1.99L445.41,76.24L445.41,76.24z M416.74,77.94l-26.81,1.77l9.48,5.51l0.08,0.05l1.04,4.81l20.91-6.24V80.8v-0.08
		C421.44,80.72,416.74,77.94,416.74,77.94z M427.26,83.9l-12.76,5.4l-0.71,0.31l-3.26,1.38l-3.76,4.15l6.19-2.96l6.8,3.6l12.34-8.82
		L427.26,83.9L427.26,83.9z"/>
</g>
</svg>
