<?xml version="1.0" encoding="utf-8"?>
<!-- Generator: Adobe Illustrator 25.4.1, SVG Export Plug-In . SVG Version: 6.00 Build 0)  -->
<svg version="1.1" id="Layer_2_00000159471598350358213750000014612203606435250611_"
	 xmlns="http://www.w3.org/2000/svg" xmlns:xlink="http://www.w3.org/1999/xlink" x="0px" y="0px" viewBox="0 0 274.6 80"
	 style="enable-background:new 0 0 274.6 80;" xml:space="preserve">
<style type="text/css">
	.st0{fill:#153152;}
	.st1{fill:#AD1923;}
</style>
<g>
	<path id="path11" class="st0" d="M28,62.3c-0.3-1.5-0.6-2.9-0.8-4.4c-3.5,3.8-8.5,6-13.7,5.9C5,63.8,0,58.8,0,51
		c0-7.3,3.8-11.7,11.4-13.4c10.1-2.4,15.4-1.7,15.4-5v-1.1c0-2.6-2-3.8-5.6-3.8c-4.1,0-6.4,1.7-7,4.9H1.1
		c1.4-9.9,8.1-14.5,20.4-14.5c7.6,0,13,1.8,15.8,5.6c2.7,3.5,2.9,7.9,2.9,13.9v16.5c0,3.8,0.6,6.1,2.1,6.9v1.7H28L28,62.3z
		 M18.1,44.5c-3.2,0.9-4.7,2.1-4.7,4.9c-0.2,2.7,1.9,5,4.6,5.2c0.2,0,0.4,0,0.6,0c4.9,0,8.2-3,8.2-7.6v-5
		C24.5,43.4,21.3,43.6,18.1,44.5"/>
	<g id="g17" transform="translate(58.315846,23.090846)">
		<path id="path15" class="st0" d="M27.8,39.2H13.9v-5.9c-2.8,4.5-7.8,7.2-13.1,7c-9.6,0-14.5-4.9-14.5-14.6V-4.2H0.5V20
			c0,6.4,1.2,9.4,5.9,9.4c5.2,0,7.2-3.4,7.2-10.5V-4.2h14.2L27.8,39.2z"/>
	</g>
	<g id="g21" transform="translate(58.315846,23.090846)">
		<path id="path19" class="st0" d="M31.4-4.2H45v7.6c3-5.9,7.3-8.5,14.3-8.7v14c-1.2-0.2-2.3-0.3-3.5-0.3c-4.3,0-7.2,1.2-8.8,4
			c-1.4,2.1-1.5,6.1-1.5,12v14.5H31.3V-4.2H31.4z"/>
	</g>
	<g id="g25" transform="translate(58.315846,23.090846)">
		<rect id="rect23" x="62.2" y="-4.2" class="st0" width="14.2" height="43.3"/>
	</g>
	<g id="g29" transform="translate(58.315846,23.090846)">
		<path id="path27" class="st0" d="M96,43.2c0.8,2.6,2.9,3.5,6.6,3.5c6.6,0,8.4-2.9,8.4-9.4v-4.6c-2.9,4.6-8,7.3-13.4,7
			c-10.4,0-18.1-8.7-18.1-22.2S87.1-5.3,97.7-5.3c5.5-0.3,10.7,2.4,13.7,7V-4h13.3v35.8c0,7.5-0.2,13-2.6,16.9
			c-3.4,5.2-9.9,8.2-19,8.2c-13.1,0-19.8-4.3-21.2-13.7C86.5,43.2,91.8,43.2,96,43.2z M102.1,28.4c5.3,0,8.5-4,8.5-11.1
			c0-7.6-2.9-11.6-8.2-11.6s-8.4,4-8.4,11.6C94.1,24.3,97.3,28.4,102.1,28.4"/>
	</g>
	<g id="g33" transform="translate(58.315846,23.090846)">
		<path id="path31" class="st0" d="M128.7-4.2h13.9v5.9c2.7-4.6,7.8-7.3,13.1-7c10.5,0,14.5,5.2,14.5,16.3v28.2h-14.2V17.4
			c0-7.9-0.3-11.9-5.9-11.9c-5.2,0-7.2,3.4-7.2,10.5v23.2h-14.2V-4.2z"/>
	</g>
	<g id="g37" transform="translate(58.315846,23.090846)">
		<path id="path35" class="st0" d="M191.6,55.7c-2.7,1.2-6.6,1.2-11.3,1.2h-3.8V45.6h2.7c4.7,0,6.9-0.8,6.9-4.4
			c-0.3-2.4-1-4.8-2.1-7L169.3-4.2h15.2l8.2,29.6l8.4-29.6h15.1L198.9,44C196.6,50.2,194.9,54.2,191.6,55.7"/>
	</g>
	<g id="g41" transform="translate(58.315846,23.090846)">
		<path id="path39" class="st1" d="M77.1-15.3c0,4.3-3.5,7.8-7.8,7.8s-7.8-3.5-7.8-7.8c0-4.3,3.5-7.8,7.8-7.8
			c4.2-0.1,7.7,3.3,7.8,7.5C77.2-15.5,77.2-15.4,77.1-15.3"/>
	</g>
</g>
</svg>
