<?xml version="1.0" encoding="utf-8"?>
<!-- Generator: Adobe Illustrator 25.4.1, SVG Export Plug-In . SVG Version: 6.00 Build 0)  -->
<svg version="1.1" id="Layer_2_00000159471598350358213750000014612203606435250611_"
	 xmlns="http://www.w3.org/2000/svg" xmlns:xlink="http://www.w3.org/1999/xlink" x="0px" y="0px" viewBox="0 0 219.7 80"
	 style="enable-background:new 0 0 219.7 80;" xml:space="preserve">
<style type="text/css">
	.st0{fill:#153152;}
	.st1{fill:#AD1923;}
</style>
<path id="path11" class="st0" d="M21.5,66.5c-0.3-1.1-0.5-2.2-0.6-3.4c-2.7,2.9-6.5,4.6-10.5,4.6C3.9,67.6,0,63.8,0,57.8
	c0-5.6,2.9-9,8.8-10.3c7.7-1.9,11.8-1.3,11.8-3.9v-0.8c0-2-1.5-2.9-4.3-2.9c-3.2,0-4.9,1.3-5.4,3.7h-10C1.9,36.1,7,32.6,16.5,32.6
	c5.8,0,9.9,1.4,12.1,4.3c2.1,2.7,2.2,6.1,2.2,10.6v12.6c0,2.9,0.5,4.7,1.6,5.3v1.3h-11L21.5,66.5z M13.9,52.8
	c-2.5,0.7-3.6,1.6-3.6,3.7c-0.1,2.1,1.4,3.8,3.5,4c0.2,0,0.3,0,0.5,0c3.7,0,6.3-2.3,6.3-5.8v-3.9C18.8,52,16.4,52.1,13.9,52.8"/>
<g id="g17" transform="translate(58.315846,23.090846)">
	<path id="path15" class="st0" d="M7.7,43.4H-3v-4.6c-2.1,3.5-6,5.5-10,5.4c-7.4,0-11.1-3.7-11.1-11.2V10.1h10.9v18.6
		c0,4.9,0.9,7.2,4.6,7.2c4,0,5.5-2.6,5.5-8.1V10.1H7.7L7.7,43.4z"/>
</g>
<g id="g21" transform="translate(58.315846,23.090846)">
	<path id="path19" class="st0" d="M10.5,10.1h10.4v5.8c2.3-4.6,5.6-6.5,11-6.7V20c-0.9-0.1-1.8-0.2-2.7-0.2c-3.3,0-5.5,0.9-6.8,3
		c-1.1,1.6-1.2,4.7-1.2,9.2v11.1H10.4V10.1H10.5z"/>
</g>
<g id="g25" transform="translate(58.315846,23.090846)">
	<rect id="rect23" x="34.1" y="10.1" class="st0" width="10.9" height="33.2"/>
</g>
<g id="g29" transform="translate(58.315846,23.090846)">
	<path id="path27" class="st0" d="M60,46.4c0.6,2,2.2,2.7,5,2.7c5,0,6.4-2.2,6.4-7.2v-3.5c-2.2,3.5-6.1,5.6-10.3,5.4
		c-7.9,0-13.9-6.7-13.9-17.1s5.8-17.4,14-17.4c4.2-0.2,8.2,1.8,10.5,5.4v-4.4h10.2v27.4c0,5.7-0.1,9.9-2,13c-2.6,4-7.6,6.3-14.6,6.3
		c-10,0-15.2-3.3-16.2-10.5C52.7,46.4,56.8,46.4,60,46.4z M64.7,35.1c4.1,0,6.5-3,6.5-8.5c0-5.8-2.2-8.9-6.3-8.9
		c-4.1,0-6.4,3-6.4,8.9C58.5,31.9,60.9,35.1,64.7,35.1"/>
</g>
<g id="g33" transform="translate(58.315846,23.090846)">
	<path id="path31" class="st0" d="M85,10.1h10.6v4.6c2.1-3.5,6-5.6,10-5.4c8.1,0,11.1,4,11.1,12.5v21.6h-10.9V26.7
		c0-6.1-0.2-9.1-4.6-9.1c-4,0-5.5,2.6-5.5,8.1v17.8H85V10.1z"/>
</g>
<g id="g37" transform="translate(58.315846,23.090846)">
	<path id="path35" class="st0" d="M133.2,56c-2.1,0.9-5,0.9-8.6,0.9h-2.9v-8.6h2.1c3.6,0,5.3-0.6,5.3-3.4c-0.3-1.9-0.8-3.7-1.6-5.4
		l-11.2-29.4h11.7l6.3,22.7l6.4-22.7h11.6L138.8,47C137.1,51.8,135.8,54.8,133.2,56"/>
</g>
<g id="g41" transform="translate(58.315846,23.090846)">
	<path id="path39" class="st1" d="M45.5,1.6c0,3.3-2.7,6-6,6c-3.3,0-6-2.7-6-6c0-3.3,2.7-6,6-6c3.2-0.1,5.9,2.5,6,5.7
		C45.5,1.4,45.5,1.5,45.5,1.6"/>
</g>
<g id="g45" transform="translate(58.315846,23.090846)">
	<path id="path43" class="st0" d="M77-23.1c1.4,0,2.8,0.4,4,1.3l-0.8,1.2c-0.9-0.7-1.9-1.1-3-1.1c-2.2-0.1-4,1.6-4.1,3.8
		c0,0.1,0,0.3,0,0.4c-0.1,2.2,1.5,4.2,3.8,4.3c0.1,0,0.2,0,0.3,0c1.2,0,2.3-0.5,3.2-1.4v-1.6h-2.9v-1.3h4.3v5.5h-1.4v-1.2l0,0
		c-0.9,0.9-2.1,1.3-3.4,1.3c-3.1,0-5.6-2.6-5.5-5.7C71.4-20.6,73.9-23.1,77-23.1"/>
</g>
<g id="g49" transform="translate(58.315846,23.090846)">
	<path id="path47" class="st0" d="M83.3-22.9h1.5v7.1c0,1.5,1.3,2.8,2.8,2.8c1.5,0,2.8-1.3,2.8-2.8v-7H92v7.1
		c-0.2,2.4-2.3,4.2-4.6,4c-2.1-0.2-3.8-1.9-4-4L83.3-22.9z"/>
</g>
<g id="g53" transform="translate(58.315846,23.090846)">
	<polygon id="polygon51" class="st0" points="96,-16.8 96,-13.3 101.1,-13.3 101.1,-12 94.4,-12 94.4,-22.9 100.9,-22.9 
		100.9,-21.6 96,-21.6 96,-18.2 99.9,-18.2 99.9,-16.8 	"/>
</g>
<g id="g57" transform="translate(58.315846,23.090846)">
	<path id="path55" class="st0" d="M103.7-22.9h3.4c0.7,0,1.4,0.1,2.1,0.2c1.6,0.7,2.3,2.6,1.6,4.2c-0.3,0.7-0.9,1.3-1.7,1.6l0,0
		c0.1,0.1,0.2,0.3,0.4,0.5l2.3,4.2H110l-2.3-4.3h-2.3v4.3h-1.6L103.7-22.9z M107.4-17.6c1.1,0,1.9-0.8,2-1.8c0-0.1,0-0.1,0-0.2
		c0.1-0.7-0.3-1.3-0.8-1.6c-0.5-0.2-1-0.3-1.5-0.2h-1.8v3.9H107.4z"/>
</g>
<g id="g61" transform="translate(58.315846,23.090846)">
	<path id="path59" class="st0" d="M113.6-22.9h1.5l4.9,7.1c0.4,0.6,0.9,1.6,0.9,1.6l0,0c-0.1-0.5-0.1-1.1-0.1-1.6v-7.1h1.5v11h-1.5
		l-4.9-7.1c-0.4-0.6-0.9-1.6-0.9-1.6l0,0c0.1,0.5,0.1,1.1,0.1,1.6v7.1h-1.5V-22.9z"/>
</g>
<g id="g65" transform="translate(58.315846,23.090846)">
	<path id="path63" class="st0" d="M125.4-14.3c0.8,0.7,1.8,1.1,2.8,1.2c0.9,0.1,1.7-0.5,1.9-1.4c0-0.1,0-0.1,0-0.2
		c0-2.3-5.3-1.9-5.3-5.3c0.1-1.8,1.6-3.1,3.4-3c0,0,0.1,0,0.1,0c1.1,0,2.3,0.3,3.2,1.1l-0.7,1.3c-0.7-0.6-1.6-0.9-2.5-0.9
		c-1-0.1-1.9,0.6-2,1.5c0,0,0,0.1,0,0.1c0,2.2,5.3,1.6,5.3,5.3c-0.1,1.7-1.5,3.1-3.2,3.1c-0.1,0-0.2,0-0.3,0c-1.3,0-2.6-0.5-3.6-1.4
		L125.4-14.3z"/>
</g>
<g id="g69" transform="translate(58.315846,23.090846)">
	<polygon id="polygon67" class="st0" points="135.3,-16.8 135.3,-13.3 140.5,-13.3 140.5,-12 133.8,-12 133.8,-22.9 140.1,-22.9 
		140.1,-21.6 135.3,-21.6 135.3,-18.2 139.3,-18.2 139.3,-16.8 	"/>
</g>
<g id="g73" transform="translate(58.315846,23.090846)">
	<path id="path71" class="st0" d="M145-16.6l-3.6-6.3h1.8l2,3.6c0.3,0.5,0.5,0.9,0.7,1.4l0,0l0.7-1.4l2-3.6h1.8l-3.6,6.3v4.7h-1.5
		v-4.7H145z"/>
</g>
<g id="g77" transform="translate(58.315846,23.090846)">
	<polygon id="polygon75" class="st0" points="151.3,-20.1 152,-23.1 153.5,-23.1 152.5,-20.1 	"/>
</g>
<g id="g81" transform="translate(58.315846,23.090846)">
	<path id="path79" class="st0" d="M155.2-14.3c0.8,0.7,1.8,1.1,2.8,1.2c0.9,0.1,1.7-0.5,1.9-1.4c0-0.1,0-0.1,0-0.2
		c0-2.3-5.3-1.9-5.3-5.3c0.1-1.8,1.6-3.1,3.4-3c0,0,0.1,0,0.1,0c1.1,0,2.3,0.3,3.2,1.1l-0.7,1.3c-0.7-0.6-1.6-0.9-2.5-0.9
		c-1-0.1-1.9,0.6-2,1.5c0,0,0,0.1,0,0.1c0,2.2,5.3,1.6,5.3,5.3c-0.1,1.7-1.5,3.1-3.2,3.1c-0.1,0-0.2,0-0.3,0c-1.3,0-2.6-0.5-3.6-1.4
		L155.2-14.3z"/>
</g>
<g id="g85" transform="translate(58.315846,23.090846)">
	<path id="path83" class="st0" d="M105.9,0.2h-4.1l-1.1,3.2h-1.6l4-11h1.6l4,11h-1.6L105.9,0.2z M103.9-6.2c-0.1,0.5-0.3,1-0.5,1.5
		l-1.2,3.5h3.3l-1.2-3.5C104.2-5.1,104-5.6,103.9-6.2z"/>
</g>
<g id="g89" transform="translate(58.315846,23.090846)">
	<rect id="rect87" x="110.2" y="-7.7" class="st0" width="1.5" height="11"/>
</g>
<g id="g93" transform="translate(58.315846,23.090846)">
	<path id="path91" class="st0" d="M114.8-7.7h3.4c0.7,0,1.4,0.1,2.1,0.2c1.6,0.7,2.3,2.6,1.6,4.2c-0.3,0.7-0.9,1.3-1.7,1.6l0,0
		c0.1,0.1,0.2,0.3,0.4,0.5l2.3,4.2h-1.8l-2.3-4.3h-2.3v4.3h-1.5V-7.7H114.8z M118.5-2.4c1.1,0,1.9-0.8,2-1.8c0-0.1,0-0.1,0-0.2
		c0.1-0.7-0.3-1.3-0.8-1.6c-0.5-0.2-1-0.3-1.5-0.2h-1.8v3.9H118.5z"/>
</g>
<g id="g97" transform="translate(58.315846,23.090846)">
	<polygon id="polygon95" class="st0" points="126.2,-7.7 126.2,1.9 131.1,1.9 131.1,3.3 124.7,3.3 124.7,-7.7 	"/>
</g>
<g id="g101" transform="translate(58.315846,23.090846)">
	<rect id="rect99" x="132.9" y="-7.7" class="st0" width="1.5" height="11"/>
</g>
<g id="g105" transform="translate(58.315846,23.090846)">
	<path id="path103" class="st0" d="M137.4-7.7h1.5l4.9,7.1c0.4,0.6,0.9,1.6,0.9,1.6l0,0c-0.1-0.5-0.1-1.1-0.1-1.6v-7.1h1.5v11h-1.5
		l-4.9-7.1c-0.4-0.6-0.9-1.6-0.9-1.6l0,0c0.1,0.5,0.1,1.1,0.1,1.6v7.1h-1.5V-7.7z"/>
</g>
<g id="g109" transform="translate(58.315846,23.090846)">
	<polygon id="polygon107" class="st0" points="150.6,-1.6 150.6,1.9 155.8,1.9 155.2,3.3 149.1,3.3 149.1,-7.7 155.5,-7.7 
		155.5,-6.4 150.6,-6.4 150.6,-2.9 154.6,-2.9 154.6,-1.6 	"/>
</g>
</svg>
