<?xml version="1.0" encoding="utf-8"?>
<!-- Generator: Adobe Illustrator 25.4.1, SVG Export Plug-In . SVG Version: 6.00 Build 0)  -->
<svg version="1.1" id="Layer_1" xmlns="http://www.w3.org/2000/svg" xmlns:xlink="http://www.w3.org/1999/xlink" x="0px" y="0px"
	 viewBox="0 0 80 80" style="enable-background:new 0 0 80 80;" xml:space="preserve">
<style type="text/css">
	.st0{fill:#ED1C24;}
	.st1{fill:#FEE702;}
</style>
<g id="Clip-9">
</g>
<g id="Clip-2">
</g>
<g>
	<path class="st0" d="M80,40c0,22.09-17.91,40-40,40C17.91,80,0,62.09,0,40C0,17.91,17.91,0,40,0C62.09,0,80,17.91,80,40"/>
	<path class="st1" d="M66.39,15.92c-6.41-4.13-13.78-5.52-20.26-4.59c-6.31,0.9-13.34,6.35-13.34,13.83c0,4.43-3.71,7.63-8.11,7.63
		c-6,0-9.2-4.72-14.75-4.72c-4.34,0-7.04,2.08-8.5,3.4c-0.32,0.28-0.47,0.56-0.47,0.84c0,0.28,0.24,0.63,0.6,0.75
		c2.65,0.92,5.97,2.33,9.93,5.12c5.12,3.59,8.68,7.32,11.71,11.59c12.35,17.42,31.93,16.54,38.64,13.83
		c6.95-2.81,12.39-8.35,14.9-14.46c0.19-0.45-0.44-0.76-0.72-0.32c-0.78,1.21-4.68,6.43-11.95,6.43c-8.03,0-14.46-6.54-14.46-14.39
		c0-6.67,5.05-14.36,14.84-14.36c8.23,0,15.35,7.07,15.47,15.07C79.99,28.8,72.72,19.99,66.39,15.92"/>
</g>
</svg>
