<?xml version="1.0" encoding="utf-8"?>
<!-- Generator: Adobe Illustrator 25.4.1, SVG Export Plug-In . SVG Version: 6.00 Build 0)  -->
<svg version="1.1" id="Layer_1" xmlns="http://www.w3.org/2000/svg" xmlns:xlink="http://www.w3.org/1999/xlink" x="0px" y="0px"
	 viewBox="0 0 216.29 80" style="enable-background:new 0 0 216.29 80;" xml:space="preserve">
<style type="text/css">
	.st0{fill:#ED1C24;}
	.st1{fill:#FEE702;}
</style>
<g id="Clip-9">
</g>
<g id="Clip-2">
</g>
<g>
	<path class="st0" d="M80,40c0,22.09-17.91,40-40,40C17.91,80,0,62.09,0,40C0,17.91,17.91,0,40,0C62.09,0,80,17.91,80,40"/>
	<path class="st1" d="M66.39,15.92c-6.41-4.13-13.78-5.52-20.26-4.59c-6.31,0.9-13.34,6.35-13.34,13.83c0,4.43-3.71,7.63-8.11,7.63
		c-6,0-9.2-4.72-14.75-4.72c-4.34,0-7.04,2.08-8.5,3.4c-0.32,0.28-0.47,0.56-0.47,0.84c0,0.28,0.24,0.63,0.6,0.75
		c2.65,0.92,5.97,2.33,9.93,5.12c5.12,3.59,8.68,7.32,11.71,11.59c12.35,17.42,31.93,16.54,38.64,13.83
		c6.95-2.81,12.39-8.35,14.9-14.46c0.19-0.45-0.44-0.76-0.72-0.32c-0.78,1.21-4.68,6.43-11.95,6.43c-8.03,0-14.46-6.54-14.46-14.39
		c0-6.67,5.05-14.36,14.84-14.36c8.23,0,15.35,7.07,15.47,15.07C79.99,28.8,72.72,19.99,66.39,15.92"/>
</g>
<g>
	<path class="st0" d="M172.58,21.56c-0.04,0.86,0.5,1.3,0.87,1.88c0.43,0.67,0.75,0.73,1.94,0.42c-0.18,0.32-0.32,0.58-0.48,0.82
		c-1.29,1.98-2.45,4.03-3.46,6.17c-0.44,0.92-0.83,1.85-0.91,2.9c-0.04,0.51,0.3,0.72,0.57,0.96c0.26,0.24,0.45-0.13,0.61-0.26
		c1.1-0.87,2-1.93,2.82-3.06c0.55-0.76,1.72-0.66,2.14,0.2c0.76,1.54,1.52,3.08,2.24,4.63c0.21,0.46,0.48,0.54,0.93,0.42
		c1.46-0.4,2.33-1.46,3.03-2.69c1.37-2.41,2.09-5.05,2.69-7.73c0.3-1.31,0.59-2.62,0.75-3.96c0.06-0.55-0.23-0.51-0.57-0.47
		c-0.21,0.02-0.21,0.22-0.26,0.37c-1.17,3.63-3.59,6.54-5.56,9.71c-0.1,0.15-0.18,0.41-0.46,0.35c-0.26-0.06-0.16-0.31-0.21-0.46
		c-0.41-1.2-1.67-2.11-2.93-2.12c-0.25,0-0.5,0.07-0.78-0.09c0.08-0.17,0.15-0.33,0.23-0.49c1.24-2.59,2.44-5.2,3.74-7.76
		c0.56-1.11,0.2-2.65-1.06-3.33c-0.41-0.22-0.68-0.25-1.01,0.12c-0.86,0.93-1.85,1.69-2.98,2.27c-0.29,0.15-0.66,0.53-0.92,0.24
		c-0.19-0.21,0.09-0.64,0.24-0.95c1.2-2.47,3.04-4.46,4.82-6.5c0.71-0.81,0.73-1.45,0.01-2.26c-0.95-1.08-1.31-1.14-2.41-0.22
		c-0.76,0.64-1.75,1.06-2.12,2.1c-0.08,0.23-0.32,0.33-0.54,0.41c-0.2,0.08-0.5,0.04-0.47,0.38c0.03,0.33,0.19,0.57,0.53,0.63
		c0.39,0.08,0.77,0.14,1.23,0.22c-0.32,0.84-0.65,1.64-0.92,2.45C173.41,18.39,172.65,19.86,172.58,21.56z"/>
	<path class="st0" d="M204.19,37.37c-0.63,0.62-1.32,1.17-2.02,1.71c-0.63,0.48-1.26,0.95-1.89,1.43c0.78,0,1.4-0.37,2.05-0.65
		c1.35-0.58,2.81-0.86,4.11-1.61c1-0.58,1.44-1.31,1.36-2.41c-0.06-0.92-0.54-1.42-1.46-1.54c-0.46-0.06-0.92-0.04-1.39-0.02
		c-0.92,0.03-1.84,0.01-2.89,0.01c0.28-0.32,0.48-0.54,0.68-0.77c1.23-1.39,2.43-2.8,3.45-4.36c0.53-0.81,0.22-1.52-0.71-1.6
		c-1.11-0.09-2.15,0.16-3.18,0.56c-1.83,0.71-3.55,1.68-5.46,2.2c-0.47,0.13-0.61,0.43-0.26,0.89c1,1.31,2.31,1.51,3.8,1.1
		c0.15-0.04,0.32-0.18,0.43,0.01c0.09,0.14-0.07,0.25-0.15,0.36c-0.67,0.92-1.36,1.82-2.24,2.55c-0.43,0.36-0.72,1.4-0.51,1.91
		c0.25,0.59,0.78,0.55,1.3,0.56c1.6,0.03,3.11-0.44,4.61-0.91c0.22-0.07,0.48-0.23,0.62,0.01C204.6,37.01,204.36,37.2,204.19,37.37z
		"/>
	<path class="st0" d="M214.83,12.95c-0.72-0.12-1.43-0.08-2.15-0.04c-2.03,0.14-3.96,0.72-5.98,1.27c0-0.21-0.02-0.35,0-0.48
		c0.41-2.98-1.12-4.01-3.24-4.27c-0.76-0.09-1.59-0.31-2.24,0.35c-0.29,0.29-0.46,0.53,0.1,0.82c1.64,0.85,1.92,2.31,0.86,3.83
		c-0.4,0.57-1,0.95-1.41,1.56c0.32,0.06,0.62-0.01,0.89,0.24c-1.66,0.84-3.43,1.32-5.2,1.9c0.24,0.29,0.49,0.23,0.71,0.25
		c1.15,0.12,2.27-0.08,3.38-0.34c3.11-0.72,6.11-1.81,9.16-2.75c1.08-0.34,2.18-0.61,3.27-0.91c-0.57,0.91-1.24,1.66-2.02,2.32
		c1.44-0.22,2.8-0.66,4.18-1.05c0.68-0.2,1.14-0.56,1.16-1.28C216.3,13.73,215.58,13.07,214.83,12.95z"/>
	<path class="st0" d="M102.22,60.11c0.06-0.19,0.23-0.39,0.09-0.58c-0.15-0.19-0.34-0.01-0.51,0.03c-0.84,0.17-1.66,0.39-2.52,0.47
		c-2.01,0.19-4.04,0.03-6.05,0.21c-0.19,0.02-0.31-0.07-0.42-0.19c-0.45-0.52-0.73-0.34-0.93,0.21c-0.12,0.33-0.27,0.64-0.38,0.97
		c-0.17,0.55,0.01,0.88,0.61,0.99c1.01,0.19,2.04,0.16,3.06,0.17c0.72,0.01,0.74,0.06,0.48,0.71c-1.01,2.52-1.77,5.13-2.49,7.74
		c-0.34,1.24,0.13,1.74,1.4,1.74c1.03,0,1.21-0.2,1.01-1.16c-0.08-0.38,0.02-0.74,0.11-1.1c0.6-2.31,1.24-4.62,1.81-6.94
		c0.16-0.64,0.4-0.9,1.11-0.92C100.23,62.4,101.64,61.87,102.22,60.11z"/>
	<path class="st0" d="M123.92,70.99c0.06-0.17,0.2-0.42-0.22-0.38c-0.97,0.08-1.28-0.1-1.61-1c-0.42-1.15-0.8-2.31-1.2-3.47
		c-0.21-0.6-0.52-0.73-1.1-0.46c-0.6,0.29-1.01,0.8-1.48,1.25c-0.66,0.63-1.16,1.41-1.97,2.02c-0.09-0.83,0.12-1.57-0.08-2.3
		c-0.15-0.56-0.27-1.11-1.02-1.11c-0.68,0-1.28,0.49-1.47,1.21c1.12,0.01,1.14,0.01,1.03,1.16c-0.11,1.11-0.38,2.19-0.62,3.28
		c-0.11,0.51,0.01,0.92,0.55,1.12c0.53,0.2,0.78-0.05,1.02-0.5c0.68-1.31,1.44-2.58,2.33-3.76c0.14-0.19,0.3-0.47,0.61-0.38
		c0.3,0.09,0.4,0.36,0.44,0.65c0.05,0.32,0.13,0.64,0.13,0.97c0,0.88,0.36,1.62,0.83,2.32c0.41,0.61,0.93,1,1.75,0.86
		C122.76,72.3,123.56,71.96,123.92,70.99z"/>
	<path class="st0" d="M197.29,69.46c-0.37-1-0.71-2-1.06-3c-0.36-1.02-0.82-1.15-1.7-0.46c-0.35,0.27-0.66,0.59-0.96,0.91
		c-0.64,0.67-1.26,1.36-1.94,2.1c-0.17-0.33-0.07-0.56-0.06-0.78c0.05-0.58,0.04-1.16-0.1-1.72c-0.25-0.97-1.06-1.25-1.85-0.64
		c-0.16,0.13-0.3,0.28-0.43,0.44c-0.1,0.12-0.29,0.22-0.2,0.41c0.09,0.2,0.3,0.08,0.43,0.05c0.51-0.1,0.65,0.13,0.64,0.6
		c-0.01,0.51-0.05,1.02-0.16,1.52c-0.17,0.82-0.36,1.63-0.5,2.45c-0.09,0.5,0.12,0.85,0.63,1.01c0.46,0.14,0.69-0.03,0.92-0.45
		c0.67-1.24,1.35-2.47,2.21-3.6c0.2-0.26,0.38-0.68,0.77-0.59c0.42,0.1,0.43,0.55,0.49,0.92c0.05,0.32,0.09,0.64,0.11,0.97
		c0.07,0.95,0.52,1.72,1.13,2.4c0.66,0.73,1.48,0.58,2.24,0.26c0.71-0.3,1.29-0.78,1.36-1.68
		C198.04,70.79,197.71,70.61,197.29,69.46z"/>
	<path class="st0" d="M126.95,12.17c1.06,0.8,1.45,1.77,1.31,3.07c-0.12,1.06-0.38,2.08-0.7,3.12c0.34-0.06,0.38-0.32,0.49-0.51
		c0.62-1,1.27-1.98,2.16-2.78c0.22-0.2,0.45-0.54,0.78-0.1c0.14,0.19,0.32,0.09,0.37-0.09c0.27-0.94,0.8-1.84,0.24-2.87
		c-1.09-1.98-2.63-3.44-4.74-4.27c-0.4-0.16-0.89-0.29-1.23,0.14c-0.41,0.51-0.93,0.99-0.75,1.77
		C125.15,10.84,126.08,11.52,126.95,12.17z"/>
	<path class="st0" d="M143.97,69.25c-0.35-0.98-0.67-1.96-1.02-2.94c-0.29-0.82-0.62-0.93-1.39-0.49c-0.61,0.36-1.06,0.89-1.53,1.41
		c-0.53,0.59-1.08,1.16-1.63,1.74c-0.07-0.81,0.03-1.52-0.13-2.24c-0.12-0.55-0.27-1.05-0.92-1.16c-0.52-0.09-1.3,0.38-1.53,0.89
		c-0.1,0.21-0.14,0.32,0.18,0.34c0.89,0.06,0.91,0.09,0.81,0.98c-0.13,1.16-0.4,2.29-0.64,3.42c-0.11,0.51,0.03,0.94,0.54,1.13
		c0.55,0.21,0.83-0.11,1.07-0.57c0.58-1.13,1.23-2.22,1.95-3.26c0.24-0.35,0.51-0.89,0.93-0.79c0.5,0.11,0.51,0.71,0.52,1.18
		c0.02,1.05,0.33,2,0.96,2.84c0.52,0.69,1.23,0.95,2.09,0.67c0.83-0.27,1.75-0.78,1.69-1.75C144.68,70.67,144.42,70.49,143.97,69.25
		z"/>
	<path class="st0" d="M211.64,21.51c-0.05-0.81-0.71-0.7-1.17-0.8c-1.67-0.33-3.38-0.53-5.02,0.01c-1.85,0.6-3.59,1.48-5.36,2.28
		c-1.11,0.51-2.17,1.17-3.43,1.29c-0.4,0.04-0.57,0.36-0.64,0.73c-0.12,0.65,0.44,1.67,1.07,1.94c0.63,0.27,1.15,0.05,1.69-0.7
		c0.27-0.38,0.37-0.85,0.72-1.19c1-0.97,2.01-1.93,3.22-2.64c1.45-0.85,2.99-1.35,4.68-1.36c0.25,0,0.56-0.06,0.68,0.22
		c0.11,0.26-0.09,0.5-0.25,0.69c-0.35,0.43-0.73,0.84-1.1,1.25c-0.68,0.77-1.56,1.29-2.35,1.94c2.18-0.44,4.32-0.98,6.31-2.01
		C211.46,22.77,211.7,22.31,211.64,21.51z"/>
	<path class="st0" d="M181.53,70.92c-0.9-0.15-0.91-0.17-0.64-1.02c0.98-3.12,1.96-6.24,2.94-9.36c0.2-0.65-0.2-2.01-0.71-2.42
		c-0.37-0.29-0.7-0.38-0.88,0.21c-0.12,0.4-0.31,0.78-0.42,1.18c-0.76,2.92-1.52,5.84-2.26,8.76c-0.24,0.92-0.51,1.84-0.52,2.44
		c0.04,1.9,0.57,2.2,1.94,1.45c0.24-0.13,0.48-0.28,0.71-0.44c0.2-0.14,0.18-0.37,0.17-0.57C181.83,70.95,181.66,70.95,181.53,70.92
		z"/>
	<path class="st0" d="M213.11,65.78c-1.78-0.67-4.46,0.99-5.22,2.16c-0.31,0.49-0.12,0.9,0.46,1.05c0.86,0.22,1.73,0.34,2.62,0.25
		c0.25-0.02,0.63-0.16,0.74,0.19c0.1,0.33-0.12,0.63-0.38,0.84c-0.21,0.18-0.47,0.29-0.75,0.35c-0.66,0.15-1.33,0.18-2,0.16
		c-0.4,0-0.79,0.02-1.19-0.01c-0.3-0.02-0.43,0.12-0.49,0.38c-0.13,0.64,0.35,1.25,1,1.28c1.38,0.05,2.6-0.43,3.7-1.19
		c0.68-0.47,1.1-1.17,1.37-1.96c0.19-0.58-0.01-0.95-0.56-1.15c-0.49-0.18-0.99-0.19-1.51-0.1c-0.71,0.13-1.42,0.23-2.13,0.31
		c-0.13,0.01-0.35,0.01-0.4-0.19c-0.03-0.12,0.04-0.21,0.12-0.31c0.78-0.95,3.09-1.44,4.11-0.75c0.44,0.3,0.61,0.12,0.83-0.16
		C213.87,66.37,213.76,66.03,213.11,65.78z"/>
	<path class="st0" d="M178.81,65.29c-0.98-0.28-1.72,0.15-2.38,0.78c-0.39,0.38-0.7,0.84-1.1,1.33c-0.03-0.15-0.04-0.23-0.06-0.3
		c-0.21-1.39-1.31-1.39-2.29-0.76c-0.17,0.11-0.43,0.39-0.11,0.5c0.79,0.28,0.73,0.9,0.67,1.48c-0.11,1.15-0.29,2.3-0.43,3.45
		c-0.03,0.24-0.11,0.52,0.21,0.67c0.26,0.12,0.5,0.05,0.73-0.08c0.19-0.11,0.25-0.32,0.32-0.52c0.31-0.9,0.63-1.79,0.94-2.69
		c0.47-1.37,0.63-1.45,2-1.05c0.27,0.08,0.51,0.2,0.7-0.18c0.34-0.68,0.73-1.34,1.1-2C179.33,65.55,179.19,65.4,178.81,65.29z"/>
	<path class="st0" d="M192.68,22.88c0.23,0.49,0.69,0.6,1.18,0.46c0.75-0.21,1.23-0.77,1.48-1.46c0.49-1.41,0.79-2.86,0.82-4.39
		c-0.08-0.34,0.19-0.89-0.25-1.04c-0.41-0.14-0.6,0.42-0.9,0.65c-0.07,0.06-0.11,0.15-0.17,0.22c-0.77,0.98-1.51,1.99-2.34,2.92
		c-0.28,0.32-0.39,0.6-0.34,0.98C192.23,21.82,192.43,22.36,192.68,22.88z"/>
	<path class="st0" d="M133.43,70.5c-0.44,0.18-0.9,0.27-1.32-0.04c-0.4-0.3-0.35-0.74-0.26-1.15c0.24-1.08,0.3-2.2,0.83-3.22
		c0.22-0.42,0.07-0.66-0.46-0.59c-0.62,0.08-0.98,0.48-1.3,0.95c-0.91,1.34-1.12,2.87-1.15,4.43c-0.02,0.9,1.03,1.78,1.9,1.59
		c0.74-0.16,1.46-0.45,1.95-1.11c0.25-0.34,0.47-0.68,0.39-1.15C133.8,70.31,133.62,70.42,133.43,70.5z"/>
	<path class="st0" d="M187.06,70.5c-0.45,0.14-0.9,0.29-1.32-0.05c-0.41-0.33-0.33-0.78-0.24-1.22c0.24-1.08,0.32-2.2,0.83-3.22
		c0.17-0.35,0.07-0.56-0.41-0.5c-0.58,0.07-0.96,0.39-1.3,0.83c-0.95,1.24-0.99,2.75-1.26,4.01c0,0.9,0.17,1.5,0.88,1.86
		c1.12,0.56,2.65-0.01,3.24-1.25c0.08-0.18,0.29-0.38,0.13-0.56C187.43,70.18,187.24,70.44,187.06,70.5z"/>
	<path class="st0" d="M170.97,70.51c-0.86,0.37-1.77-0.03-1.65-0.79c0.18-1.11,0.27-2.26,0.75-3.31c0.13-0.29,0.38-0.64,0.07-0.88
		c-0.26-0.2-0.62,0-0.91,0.14c-0.14,0.07-0.26,0.19-0.37,0.31c-1.29,1.25-1.32,2.93-1.57,4.33c0.02,0.79-0.01,1.36,0.61,1.72
		c1.21,0.72,2.91,0.21,3.48-1.09c0.08-0.18,0.26-0.39,0.08-0.57C171.28,70.21,171.13,70.44,170.97,70.51z"/>
	<path class="st0" d="M103.32,70.62c-0.44,0.14-0.88,0.2-1.25-0.13c-0.35-0.31-0.34-0.73-0.22-1.16c0.32-1.06,0.44-2.17,1.02-3.15
		c0.25-0.43,0.13-0.67-0.45-0.63c-0.55,0.04-0.89,0.36-1.2,0.73c-1.08,1.26-1.28,2.83-1.54,4.37c-0.08,0.76,0.27,1.23,0.92,1.56
		c0.92,0.46,2.54-0.05,3.13-1.04c0.11-0.18,0.32-0.42,0.14-0.63C103.7,70.31,103.5,70.55,103.32,70.62z"/>
	<path class="st0" d="M167.02,13.59c0.65-0.15,1.31-0.23,1.95-0.46c1.11-0.4,1.3-0.63,1.39-2.08c-0.03-0.39-0.51-0.85-0.99-1.1
		c-0.42-0.22-1.04-0.26-1.49,0.29c-0.51,0.62-1.12,1.16-1.68,1.75c-0.25,0.26-0.67,0.49-0.41,0.92
		C166.04,13.35,166.4,13.73,167.02,13.59z"/>
	<path class="st0" d="M171.54,59.2c-1,0.03-1.93,1.03-1.93,2.05c0,0.82,0.31,1.16,0.89,0.99c0.8-0.24,1.75-1.61,1.71-2.42
		C172.18,59.37,171.93,59.19,171.54,59.2z"/>
	<path class="st0" d="M187.58,59.24c-1.06,0.14-1.8,0.92-1.83,1.98c-0.02,0.85,0.28,1.2,0.88,1.03c0.74-0.21,1.75-1.59,1.71-2.36
		C188.31,59.41,188.1,59.17,187.58,59.24z"/>
	<path class="st0" d="M105.76,59.91c0.05-0.57-0.24-0.75-0.75-0.67c-1.09,0.17-1.81,1-1.82,2.06c0,0.79,0.43,1.23,0.97,0.9
		C105.01,61.68,105.68,60.98,105.76,59.91z"/>
	<path class="st0" d="M134.01,59.21c-1.01,0.04-1.91,1.01-1.91,2.05c0,0.82,0.27,1.13,0.86,0.98c0.84-0.22,1.79-1.62,1.7-2.48
		C134.62,59.35,134.37,59.19,134.01,59.21z"/>
	<path class="st0" d="M129.25,60.31c-0.4-0.08-0.66,0.05-0.82,0.34c-0.04,0.08,0.01,0.19,0.13,0.19
		C128.91,60.85,129.12,60.67,129.25,60.31z"/>
	<path class="st0" d="M126.75,19.76c-0.04,0.09,0.02,0.18,0.13,0.19c0.1,0,0.17-0.06,0.17-0.16c0-0.08,0.03-0.19-0.15-0.2
		C126.85,19.63,126.78,19.68,126.75,19.76z"/>
	<path class="st0" d="M149.7,8.68c-0.58-0.19-1.21-0.45-1.71,0.22c-0.06,0.08-0.2,0.12-0.31,0.13c-0.79,0.03-1.45,0.46-2.16,0.71
		c-0.72,0.26-1.34,0.73-2.11,0.86c-0.42,0.07-0.44-0.04-0.43-0.41c0.07-2.29,0.81-4.47,1.09-6.72c0.01-0.11,0.07-0.22,0.12-0.32
		c0.28-0.53,0.2-0.68-0.41-0.65c-0.76,0.03-1.52,0.16-2.26,0.37c-0.03,0.01-0.06,0.07-0.07,0.08c0.05,0.25,0.37,0,0.43,0.3
		c-0.41,0.19-0.33,0.66-0.57,0.97c-0.38,0.49-0.55,1.01-0.3,1.6c0.07,0.17,0.07,0.31,0,0.46c-0.88,1.75-1.01,3.65-1.09,5.56
		c-0.02,0.37-0.15,0.49-0.46,0.65c-2.07,1.05-4.1,2.16-6.14,3.27c-1.11,0.6-1.43,1.36-1.01,2.25c2.57-0.67,5.05-1.54,7.3-3.09
		c-0.1,0.79-0.37,1.38-1.03,1.77c-1.23,0.71-2.46,1.42-3.64,2.2c-2.26,1.49-4.8,2.55-6.86,4.36c-0.2,0.17-0.47,0.46-0.73,0.31
		c-0.63-0.36-1.29-0.72-1.51-1.5c0.14-0.16,0.24-0.33,0.19-0.61c-0.21,0.13-0.31,0.26-0.34,0.45c-0.68,0.23-1.34,0.48-1.7,1.17
		c-0.36,0.69-0.06,1.36,0.12,2.01c0.95,3.58,0.86,7.13-0.26,10.66c-0.1,0.3-0.29,0.72,0.25,0.84c0.39,0.08,0.66,0.31,0.93,0.57
		c0.52,0.5,1.71,0.36,2.13-0.22c0.58-0.79,0.83-1.75,1.31-2.6c0.7-1.24,1.38-2.5,1.71-3.91c-0.09-0.01-0.21,0.17-0.28,0
		c-0.06-0.15-0.02-0.31,0.11-0.42c0,0,0,0,0,0c0.04-0.18,0.08-0.36,0.11-0.54c0.27-2.01,0.62-4,1.05-5.98
		c0.06-0.28,0.16-0.42,0.46-0.5c1.06-0.31,2.07-0.77,3.03-1.32c0.03,0.03,0.07,0.07,0.1,0.1c-0.29,0.39-0.59,0.78-0.99,1.07
		c-0.42,0.31-0.3,0.78-0.22,1.15c0.08,0.35,0.5,0.25,0.78,0.24c0.65-0.04,1.28-0.17,1.9-0.38c0.53-0.18,1.06-0.34,1.77-0.57
		c-0.81,1.18-1.68,2.04-2.6,2.84c-0.72,0.63-0.91,1.22-0.56,2.1c0.15,0.37,0.34,0.54,0.72,0.25c0.5-0.38,1-0.75,1.51-1.12
		c0.29-0.21,0.59-0.22,0.8,0.08c0.2,0.29,0.09,0.62-0.21,0.75c-0.43,0.2-0.73,0.53-0.96,0.89c-0.87,1.37-2.3,2.22-3.25,3.54
		c-0.93,1.29-2.19,2.33-2.84,3.84c-0.11,0.25-0.16,0.43,0.02,0.62c0.17,0.17,0.35,0.41,0.65,0.23c0.91-0.52,1.96-0.63,2.91-1.02
		c0.98-0.4,1.9-0.96,2.85-1.45c0.16-0.08,0.32-0.31,0.48-0.16c0.1,0.09,0.08,0.34,0.08,0.52c-0.01,0.44-0.04,0.88-0.06,1.32
		c-0.07,2.13,0.05,4.28-0.67,6.34c-0.04,0.1-0.07,0.25-0.02,0.34c0.31,0.61,0.17,1.23,0.06,1.84c-0.17,0.93-0.63,1.88-0.54,2.78
		c0.15,1.58-0.06,3.04-0.63,4.48c-0.06,0.15-0.2,0.44,0.01,0.5c0.43,0.12,0.17,0.35,0.13,0.53c-0.05,0.24-0.14,0.47-0.22,0.71
		c0.33,0.12,0.93-0.17,0.69,0.61c-0.06,0.21,0.17,0.78,0.68,0.83c0.1,0.01,2.15-1.53,2.12-1.61c-0.17-0.55,0.14-1.07,0.05-1.63
		c-0.19-1.34-0.07-2.69,0.09-4.02c0.33-2.71,0.35-5.44,0.58-8.16c0.18-2.23,0.29-4.47,0.37-6.71c0.03-0.7,0.31-1.12,0.91-1.4
		c1.88-0.87,3.27-2.35,4.65-3.83c1.06-1.13,1.08-1.9,0.16-3.15c-0.54-0.73-1.09-1.44-1.49-2.26c-0.38-0.79-1.17-1.07-1.91-1.62
		c0.12,0.71,0.42,1.16,0.89,1.62c-0.86-0.1-1.36,0.47-1.98,0.71c-0.15,0.06-0.39,0.28-0.41-0.03c-0.04-0.55-0.13-1.26,0.26-1.6
		c0.98-0.87,1.68-2.14,3.2-2.3c0.57-0.06,0.9-0.58,1.06-1.09c0.13-0.4-0.11-0.85-0.46-1.01c-0.62-0.29-0.3-0.53-0.05-0.79
		c0.72-0.78,1.63-1.3,2.47-1.92c0.8-0.59,1.7-1.07,2.25-1.97c0.24-0.4,0.13-0.65-0.16-0.89c-0.15-0.12-0.34-0.19-0.57-0.31
		c0.54-0.4,0.87-0.88,1.14-1.43C150.6,9.31,150.51,8.95,149.7,8.68z M126.54,32.06c-0.3-2.82,0.76-5.37,1.13-7.98
		c1.22,0.15,2.16-0.69,3.27-0.87C130.86,23.69,126.9,31.7,126.54,32.06z M137.82,29.59c-0.07,0.83-0.2,1.66-0.23,2.49
		c-0.02,0.53-0.23,0.89-0.68,1.11c-1.38,0.67-2.78,1.33-4.35,2.07c1.14-2.76,3.44-4.28,5.12-6.31
		C137.97,29.14,137.83,29.39,137.82,29.59z M138.69,24.71c0.06-0.28,0.07-0.49,0.33-0.54C139.19,24.47,139.01,24.58,138.69,24.71z
		 M137.5,21.41c0.47-0.73,1.17-1.21,1.86-1.87C139.21,20.75,138.35,21.07,137.5,21.41z M143.18,25.87c0.49-0.01,0.7-0.25,0.89-0.61
		c0.22-0.42,0.37-0.46,0.6,0.03c0.4,0.84,0.26,1.79-0.46,2.54c-0.78,0.8-1.75,1.36-2.63,2.04c-0.36,0.28-0.7,0.57-1.1,0.89
		c0-0.91,0.02-1.71,0-2.52C140.44,27.05,141.55,25.89,143.18,25.87z M141.44,18.71c0.17-0.39,0.37-0.56,0.77-0.56
		C142.05,18.46,141.87,18.65,141.44,18.71z M142.25,16.26c0.11-0.2,0.2-0.43,0.6-0.48C142.7,16.09,142.52,16.22,142.25,16.26z
		 M142.55,13.78c-0.23-0.83,0.02-1.2,0.73-1.27c0.47-0.04,0.83-0.44,1.45-0.45C144.1,12.87,143.23,13.12,142.55,13.78z"/>
	<path class="st0" d="M117.79,34.27c-0.66-0.03-1.25,0.2-1.85,0.39c-1.48,0.47-2.84,0.31-3.86-0.92c-1-1.21-2.11-2.28-3.39-3.17
		c-1.32-0.93-2.49-2.05-3.92-2.81c0-0.01,0-0.01,0-0.01c0.04-0.02,0.07-0.04,0.11-0.06c-0.03-0.02-0.06-0.04-0.09-0.06
		c-0.04-0.01-0.09-0.02-0.14-0.02c0,0,0,0,0,0c-0.32-0.62-0.86-1.2-0.27-1.94c0.3-0.38,0.58-0.79,0.98-1.08
		c1.32-0.92,2.5-2,3.48-3.28c0.22-0.29,0.45-0.59,0.62-0.91c0.31-0.59,0.12-1.23-0.13-1.75c-0.2-0.42-0.77-0.21-1.15-0.12
		c-1,0.24-1.81-0.09-2.54-0.78c0.9-0.92,1.61-2.04,2.68-2.8c0.99-0.7,1.78-1.53,2.36-2.6c0.59-1.09,0.47-1.69-0.6-2.35
		c-2.25-1.39-4.72-1.86-7.33-1.68c-0.31,0.02-0.71-0.1-0.84,0.32c-0.12,0.36,0.1,0.67,0.34,0.93c0.76,0.82,1.56,1.59,2.45,2.26
		c1.11,0.82,2.39,1.19,3.81,1.27c-0.5,1.68-1.9,2.56-2.93,3.78c-0.21-0.25-0.2-0.49-0.23-0.71c-0.21-1.82-1.55-2.87-3.37-2.68
		c-0.44,0.05-0.54,0.2-0.37,0.57c0.27,0.59,0.32,1.22,0.2,1.84c-0.15,0.77,0.37,1.46,0.16,2.24c-0.2,0.74-0.29,1.5-0.3,2.27
		c-0.01,0.52-0.25,0.89-0.6,1.27c-1.69,1.85-3.33,3.74-4.9,5.7c-0.72,0.9-1.23,2.05-2.28,2.58c-0.75,0.38-0.67,0.84-0.59,1.45
		c0.04,0.34,0.23,0.61,0.32,0.92c0.14,0.47,0.42,0.62,0.93,0.54c1.39-0.24,2.74-0.59,4.16-1.33c-0.85,2.09-2.31,3.55-3.45,5.22
		c-1.19,1.75-2.78,3.01-4.71,3.9c0.45,0.18,0.93-0.21,1.11-0.03c0.53,0.52,0.99,0.17,1.43,0c3.12-1.24,5.44-3.37,7.01-6.33
		c0.06-0.11,0.14-0.24,0.05-0.32c-0.49-0.4,0.07-0.46,0.22-0.61c0.05-0.06,0.23-0.03,0.34-0.15c0.78-0.86,0.99-1.99,1.33-3.02
		c0.32-0.97,0.72-1.87,1.27-2.87c0.2,0.4,0.35,0.69,0.49,0.97c0.81,1.7,1.7,3.35,3.04,4.72c0.85,0.86,1.49,1.88,2.19,2.86
		c0.44,0.62,0.87,1.28,1.56,1.63c0.95,0.48,1.81,0.12,2.58-0.46c0.86-0.65,1.75-1.2,2.79-1.5
		C116.67,35.33,117.19,34.74,117.79,34.27z M105.22,18.31c1,0.91,0.85,1.71-0.62,2.54C104.83,19.9,105.02,19.12,105.22,18.31z
		 M100.31,25.11c-1.05,1.11-2.04,2.28-3.17,3.32c-0.17,0.15-0.33,0.31-0.5,0.46c1.29-2.51,3.19-4.57,4.63-7.04
		C101.54,23.3,101.19,24.16,100.31,25.11z"/>
	<path class="st0" d="M167.36,29.64c-0.4-0.91-0.4-1.62,0.57-2.3c0.87-0.61,1.47-1.54,1.23-2.76c-0.28-1.43,0.17-2.69,1.13-3.72
		c0.86-0.92,1.23-1.95,1.25-3.19c0.04-2.11-0.53-2.56-2.54-1.95c-1.61,0.49-2.95,1.44-4.26,2.44c-0.29,0.22-0.44,0.24-0.67-0.06
		c-0.34-0.44-0.73-0.84-1.11-1.25c-0.1-0.11-0.2-0.32-0.39-0.19c-0.46,0.31-1.04,0.44-1.21,1.14c-0.66,2.8-1.37,5.59-2.33,8.3
		c-0.4,1.13-0.76,2.32-1.64,3.17c-0.37,0.36-0.6,0.67-0.65,1.17c-0.1,1.01-0.11,1.01,0.88,1.04c0.25,0.01,0.54-0.06,0.47,0.37
		c-0.13,0.78-0.01,1.61-0.35,2.33c-0.57,1.21-0.23,2.26,0.35,3.34c0.34,0.64,0.87,0.75,1.47,0.63c0.64-0.12,0.51-0.67,0.51-1.13
		c0-1.9-0.15-3.81-0.03-5.71c0.07-1.09,0.33-1.29,1.59-1.31c-0.11,0.41-0.15,0.79-0.3,1.12c-0.38,0.85-0.16,1.59,0.26,2.36
		c0.98,1.79,2.47,3.12,3.87,4.54c0.17,0.17,0.38,0.2,0.58,0.1c0.23-0.12,0.39-0.3,0.35-0.62c-0.07-0.6-0.1-1.2-0.14-1.8
		c-0.08-1.23-0.22-2.46,0.08-3.67c0.13-0.52,0.24-1.11,0.74-1.37C167.6,30.4,167.55,30.08,167.36,29.64z M162.36,23.37
		c-0.08,0.83-0.21,1.66-0.25,2.49c-0.03,0.59-0.2,0.96-0.84,1.02c-0.22,0.02-0.44,0.12-0.83,0.23c0.52-1.38,0.99-2.61,1.46-3.83
		c0.06-0.17,0.07-0.42,0.33-0.37C162.5,22.96,162.37,23.21,162.36,23.37z M166.61,22.58c-0.05,0.17-0.12,0.29-0.32,0.31
		c-0.28,0.02-0.53-0.08-0.64-0.33c-0.34-0.79-0.32-1.62-0.3-2.46c0-0.19,0.18-0.21,0.3-0.23c0.61-0.13,1.22-0.24,1.96-0.39
		C167.25,20.6,166.92,21.59,166.61,22.58z"/>
	<path class="st0" d="M164.91,67.41c-0.6-0.01-0.6-0.37-0.59-0.79c0.05-2.18,0.2-4.36,0.42-6.53c0.08-0.81-0.17-1.27-0.79-1.72
		c-0.54-0.39-0.78-0.3-1.12,0.23c-1.72,2.68-3.35,5.42-4.94,8.18c-0.5,0.88-0.9,1.82-2.2,1.67c-0.24-0.03-0.6,0.06-0.66,0.4
		c-0.07,0.41,0.02,0.84,0.36,1.07c0.4,0.27,0.35,0.53,0.16,0.87c-0.12,0.22-0.2,0.47-0.34,0.68c-0.31,0.48-0.16,0.81,0.28,1.09
		c0.43,0.28,0.72,0.14,0.97-0.27c0.19-0.31,0.46-0.58,0.65-0.89c0.45-0.73,0.66-0.79,1.42-0.37c1.64,0.91,3.41,1.43,5.22,1.87
		c0.45,0.11,0.86-0.28,0.7-0.72c-0.19-0.53-0.1-1.06-0.14-1.51c0-0.19,0-0.31,0-0.42c0-1.15,0-1.14,1.15-1.26
		c0.17-0.02,0.39,0,0.41-0.27C165.92,68.34,165.3,67.42,164.91,67.41z M159.22,67.77c1.03-1.74,2.06-3.49,3.09-5.23
		c0.1-0.17,0.22-0.35,0.49-0.46c0.22,1.12,0.03,2.18,0.04,3.24c0.01,0.49-0.03,0.98,0.03,1.46c0.05,0.45-0.12,0.7-0.53,0.71
		c-1,0.04-1.95,0.36-2.93,0.5c-0.09,0.01-0.16,0.06-0.23-0.02C159.07,67.86,159.18,67.84,159.22,67.77z M162.65,71.49
		c-1.55,0.02-2.98-0.47-4.4-0.97c0.01-0.06,0.01-0.12,0.02-0.18c1.43-0.28,2.86-0.54,4.28-0.83c0.38-0.08,0.5,0.12,0.53,0.43
		c0.03,0.35,0.02,0.7,0.05,1.04C163.17,71.35,162.98,71.49,162.65,71.49z"/>
	<path class="st0" d="M111.01,65.58c-2.69-0.28-6.09,1.95-6.29,5.38c-0.05,0.92,0.27,1.34,1.16,1.49c0.89,0.15,1.68-0.16,2.46-0.56
		c0.68-0.35,1.26-0.84,1.97-1.32c0.06,0.5-0.09,0.85-0.18,1.21c-0.14,0.55,0.07,0.68,0.57,0.54c0.9-0.25,1.08-1.03,1.24-1.77
		c0.24-1.15,0.31-2.35,0.87-3.42c0.16-0.3-0.03-0.55-0.22-0.75C112.16,65.95,111.62,65.65,111.01,65.58z M111.16,68.19
		c-0.45,0.7-1.17,1.04-1.9,1.33c-0.62,0.24-1.27,0.38-1.92,0.54c-0.33,0.08-0.69,0.13-0.98-0.21c0.82-0.88,1.74-1.64,2.84-2.17
		c0.51-0.24,1.05-0.36,1.61-0.27C111.37,67.49,111.47,67.7,111.16,68.19z"/>
	<path class="st0" d="M205.57,65.57c-1.19,0.03-2.3,0.37-3.27,1.04c-1.36,0.93-2.41,2.09-2.42,3.9c-0.01,1.13,0.34,1.69,1.46,1.91
		c1.61,0.32,3.02-0.23,4.34-1.08c0.29-0.19,0.45-0.52,0.57-0.85c0.04-0.12,0.17-0.26,0.05-0.38c-0.11-0.12-0.26-0.03-0.39,0
		c-0.69,0.19-1.38,0.41-2.08,0.56c-0.74,0.16-1.48,0.22-2.09-0.41c0.18-0.2,0.36-0.22,0.55-0.25c1-0.13,1.9-0.56,2.8-0.98
		c0.75-0.35,1.34-0.91,1.68-1.69C207.11,66.52,206.45,65.54,205.57,65.57z M205.22,67.57c-0.9,0.66-1.86,1.19-2.97,1.38c0,0,0,0,0,0
		c0,0,0,0,0,0c-0.14-0.06-0.34,0.02-0.44-0.15c0.65-1.29,1.81-1.76,3.14-1.93c0.21-0.03,0.51-0.04,0.59,0.23
		C205.63,67.33,205.38,67.45,205.22,67.57z"/>
	<path class="st0" d="M128.33,69.49c-0.16,0.07-0.33,0.26-0.5,0.1c-0.14-0.13-0.07-0.36-0.03-0.53c0.14-0.59,0.32-1.16,0.46-1.75
		c0.16-0.64-0.19-1.61-0.7-1.91c-0.35-0.21-0.61-0.26-0.72,0.28c-0.27,1.29-0.55,2.58-0.87,3.86c-0.18,0.73-0.2,1.51-0.77,2.12
		c-1.22,1.33-1.71,2.99-1.96,4.73c-0.06,0.42-0.09,0.9,0.4,1.07c0.49,0.18,0.61-0.34,0.79-0.62c0.88-1.4,1.5-2.92,2.11-4.45
		c0.41-1.03,0.91-1.96,2.02-2.4c0.32-0.12,0.56-0.38,0.74-0.76C128.9,69.22,128.62,69.37,128.33,69.49z M124.51,75.17
		c-0.36-0.83-0.4-1.59,0.5-2.13C124.85,73.75,124.68,74.46,124.51,75.17z"/>
</g>
</svg>
