<?xml version="1.0" encoding="utf-8"?>
<!-- Generator: Adobe Illustrator 25.4.1, SVG Export Plug-In . SVG Version: 6.00 Build 0)  -->
<svg version="1.1" id="Layer_3" xmlns="http://www.w3.org/2000/svg" xmlns:xlink="http://www.w3.org/1999/xlink" x="0px" y="0px"
	 viewBox="0 0 104.46 80.27" style="enable-background:new 0 0 104.46 80.27;" xml:space="preserve">
<style type="text/css">
	.st0{fill:url(#SVGID_1_);}
	.st1{fill:url(#SVGID_00000026150639390847519530000012651700271561823112_);}
	.st2{fill:url(#SVGID_00000168796679349043860350000006810574926404486561_);}
	.st3{fill:url(#SVGID_00000167386194168437481970000000445732363078643115_);}
	.st4{fill:url(#SVGID_00000088134587312365683860000012505472329426648709_);}
	.st5{fill:url(#SVGID_00000181051211670641898280000012352197501994414500_);}
	.st6{fill:url(#SVGID_00000083793550267285751130000003071085032005569459_);}
	.st7{fill:url(#SVGID_00000068642551942573322050000004166107047391496598_);}
	.st8{fill:url(#SVGID_00000145777331897598326310000010595152068521416625_);}
</style>
<path d="M5.66,67.59c0.01-0.32,0.06-0.64,0.14-0.95C5.72,67.07,5.68,67.39,5.66,67.59z"/>
<linearGradient id="SVGID_1_" gradientUnits="userSpaceOnUse" x1="9.2215" y1="40.981" x2="13.198" y2="64.8402">
	<stop  offset="0.1207" style="stop-color:#FEE849"/>
	<stop  offset="0.2713" style="stop-color:#FBCD41"/>
	<stop  offset="0.3281" style="stop-color:#F5B53A"/>
	<stop  offset="0.4393" style="stop-color:#EA8C2D"/>
	<stop  offset="0.4966" style="stop-color:#E67C28"/>
	<stop  offset="0.5464" style="stop-color:#E25F26"/>
	<stop  offset="0.6409" style="stop-color:#DC2D23"/>
	<stop  offset="0.7126" style="stop-color:#D80E21"/>
	<stop  offset="0.7525" style="stop-color:#D70220"/>
</linearGradient>
<path class="st0" d="M21.05,50.98C21,55.97,7.51,60.22,5.82,66.54c0.2-0.98,0.61-2.46,1.48-4.3c0.91-1.93,2.34-4.26,4.54-6.8
	C17.8,48.55,1.81,46.62,0,46.88c1.26-0.34,15.57-4.02,20.26,2.01c0.53,0.68,0.77,1.34,0.79,1.98
	C21.05,50.91,21.05,50.94,21.05,50.98z"/>
<linearGradient id="SVGID_00000078755196632193932880000006917125597758214532_" gradientUnits="userSpaceOnUse" x1="16.3126" y1="53.1024" x2="16.7804" y2="83.7451">
	<stop  offset="0.1207" style="stop-color:#FEE849"/>
	<stop  offset="0.2713" style="stop-color:#FBCD41"/>
	<stop  offset="0.3281" style="stop-color:#F5B53A"/>
	<stop  offset="0.4393" style="stop-color:#EA8C2D"/>
	<stop  offset="0.4966" style="stop-color:#E67C28"/>
	<stop  offset="0.5464" style="stop-color:#E25F26"/>
	<stop  offset="0.6409" style="stop-color:#DC2D23"/>
	<stop  offset="0.7126" style="stop-color:#D80E21"/>
	<stop  offset="0.7525" style="stop-color:#D70220"/>
</linearGradient>
<path style="fill:url(#SVGID_00000078755196632193932880000006917125597758214532_);" d="M27.51,72.87
	C10,79.18,6.49,71.51,5.8,68.75C5.8,68.73,5.8,68.72,5.8,68.72c-0.13-0.53-0.15-0.88-0.15-0.88s0-0.08,0.01-0.25
	c0.02-0.2,0.06-0.52,0.14-0.95c0.01-0.03,0.01-0.06,0.02-0.1C7.51,60.22,21,55.97,21.05,50.98c0.62,8.43-5.59,9.4-6.06,16.39
	c-0.04,0.48,0,0.91,0.08,1.32C16.23,74.19,27.51,72.87,27.51,72.87z"/>
<linearGradient id="SVGID_00000005966316277357584700000008494488281735433868_" gradientUnits="userSpaceOnUse" x1="5.8032" y1="67.8225" x2="104.4639" y2="67.8225">
	<stop  offset="0.1207" style="stop-color:#FEE849"/>
	<stop  offset="0.2713" style="stop-color:#FBCD41"/>
	<stop  offset="0.3152" style="stop-color:#F7BD3C"/>
	<stop  offset="0.4011" style="stop-color:#EC922F"/>
	<stop  offset="0.4412" style="stop-color:#E67C28"/>
	<stop  offset="0.4531" style="stop-color:#E46F27"/>
	<stop  offset="0.4894" style="stop-color:#E04E25"/>
	<stop  offset="0.5285" style="stop-color:#DD3223"/>
	<stop  offset="0.5705" style="stop-color:#DA1D22"/>
	<stop  offset="0.617" style="stop-color:#D80E21"/>
	<stop  offset="0.6713" style="stop-color:#D70520"/>
	<stop  offset="0.7525" style="stop-color:#D70220"/>
</linearGradient>
<path style="fill:url(#SVGID_00000005966316277357584700000008494488281735433868_);" d="M104.46,63.86c0,0-16.84-3.74-33.45,1.03
	C54.41,69.67,39.55,80,23.3,80C7.57,80,5.89,69.44,5.8,68.75c0.68,2.76,4.19,10.43,21.71,4.11c18.22-5.75,20.47-12.4,42.69-16.38
	C92.42,52.51,104.46,63.86,104.46,63.86z"/>
<g>
	
		<linearGradient id="SVGID_00000140697099747285927440000007632966060434355863_" gradientUnits="userSpaceOnUse" x1="52.3625" y1="75.905" x2="52.3625" y2="-2.2908">
		<stop  offset="0.1207" style="stop-color:#FEE849"/>
		<stop  offset="0.2713" style="stop-color:#FBCD41"/>
		<stop  offset="0.3281" style="stop-color:#F5B53A"/>
		<stop  offset="0.4393" style="stop-color:#EA8C2D"/>
		<stop  offset="0.4966" style="stop-color:#E67C28"/>
		<stop  offset="0.5464" style="stop-color:#E25F26"/>
		<stop  offset="0.6409" style="stop-color:#DC2D23"/>
		<stop  offset="0.7126" style="stop-color:#D80E21"/>
		<stop  offset="0.7525" style="stop-color:#D70220"/>
	</linearGradient>
	<path style="fill:url(#SVGID_00000140697099747285927440000007632966060434355863_);" d="M64.23,52.51
		c-12.16,2.22-18.6,9.47-29.47,7.37c0,0-6.78-1.79-6.78-8.9s5.85-4.66,5.85-10.33h-4.56v-1.86h11.58v1.86H36.4
		c0,0-0.94,6.61,6.67,6.61c7.6,0,6.67-1.87,6.67-3.51c0-1.64,0-3.1,0-3.1s-4.39,0.47-5.96-1.11c-1.58-1.58-6.43-10.01-8.54-10.01
		c-2.11,0-6.9,9.44-8.19,9.26s1.75-4.8,3.16-6.82c1.4-2.02,3.63-7.28,2.81-11.61c0,0-10.06,5.03-10.06,27.84
		c0,22.81,22.22,14.62,30.06,11.23c7.84-3.39,19.88-6.78,28.77-5.26C81.78,54.15,76.4,50.29,64.23,52.51z"/>
	
		<linearGradient id="SVGID_00000050655122489566704910000002250232005180917124_" gradientUnits="userSpaceOnUse" x1="55.3926" y1="75.905" x2="55.3926" y2="-2.2908">
		<stop  offset="0.1207" style="stop-color:#FEE849"/>
		<stop  offset="0.2713" style="stop-color:#FBCD41"/>
		<stop  offset="0.3281" style="stop-color:#F5B53A"/>
		<stop  offset="0.4393" style="stop-color:#EA8C2D"/>
		<stop  offset="0.4966" style="stop-color:#E67C28"/>
		<stop  offset="0.5464" style="stop-color:#E25F26"/>
		<stop  offset="0.6409" style="stop-color:#DC2D23"/>
		<stop  offset="0.7126" style="stop-color:#D80E21"/>
		<stop  offset="0.7525" style="stop-color:#D70220"/>
	</linearGradient>
	<path style="fill:url(#SVGID_00000050655122489566704910000002250232005180917124_);" d="M53.01,51.69h-3.04v-2.81
		c0,0,0-1.05-1.17-0.58c-1.17,0.47-8.91,1.96-13.33-0.58c-0.42-0.24-1.29-0.82-2.46,0.47c-1.17,1.29-2.46,7.25,2.46,8.3
		c4.91,1.05,12.28-1.75,16.9-3.27c4.62-1.52,9.65-2.24,9.65-2.24s-1.99-12.2,4.56-12.2c6.55,0,5.96,10.93,5.96,10.93
		s3.74-0.12,6.32,0.23c0,0,0.23-25.09-12.98-25.09c-0.58,0.06-3.04,0.77-4.09,1.76v-5.44h-1.29V38c0,0,0.17,2.49-2.49,2.49
		c-2.66,0-5,0-5,0V51.69z"/>
	
		<linearGradient id="SVGID_00000126318884659735451540000000206502707838579612_" gradientUnits="userSpaceOnUse" x1="39.8843" y1="75.905" x2="39.8843" y2="-2.2908">
		<stop  offset="0.1207" style="stop-color:#FEE849"/>
		<stop  offset="0.2713" style="stop-color:#FBCD41"/>
		<stop  offset="0.3281" style="stop-color:#F5B53A"/>
		<stop  offset="0.4393" style="stop-color:#EA8C2D"/>
		<stop  offset="0.4966" style="stop-color:#E67C28"/>
		<stop  offset="0.5464" style="stop-color:#E25F26"/>
		<stop  offset="0.6409" style="stop-color:#DC2D23"/>
		<stop  offset="0.7126" style="stop-color:#D80E21"/>
		<stop  offset="0.7525" style="stop-color:#D70220"/>
	</linearGradient>
	<path style="fill:url(#SVGID_00000126318884659735451540000000206502707838579612_);" d="M36.51,21.17c0,0,0.35,4.91,3.04,8.95
		c2.69,4.04,3.39,6.02,3.63,4.15c0.23-1.87,0-7.52-2.22-10.13C38.74,21.52,37.33,20.58,36.51,21.17z"/>
	
		<linearGradient id="SVGID_00000099630485511037934450000016377967464469325499_" gradientUnits="userSpaceOnUse" x1="51.4664" y1="75.905" x2="51.4664" y2="-2.2908">
		<stop  offset="0.1207" style="stop-color:#FEE849"/>
		<stop  offset="0.2713" style="stop-color:#FBCD41"/>
		<stop  offset="0.3281" style="stop-color:#F5B53A"/>
		<stop  offset="0.4393" style="stop-color:#EA8C2D"/>
		<stop  offset="0.4966" style="stop-color:#E67C28"/>
		<stop  offset="0.5464" style="stop-color:#E25F26"/>
		<stop  offset="0.6409" style="stop-color:#DC2D23"/>
		<stop  offset="0.7126" style="stop-color:#D80E21"/>
		<stop  offset="0.7525" style="stop-color:#D70220"/>
	</linearGradient>
	<path style="fill:url(#SVGID_00000099630485511037934450000016377967464469325499_);" d="M55.39,15.09c0,0-5.19,0-7.47,0
		c-2.28,0-1.81,1.4-1.81,1.4V38c0,0,0.7,0,2.23,0c1.53,0,1.4-1.51,1.4-1.51s0-4.44,0-6.37c0-1.93-0.94-1.81-2.22-2.57
		c-1.29-0.76,0-2.22,0-2.22s0-0.12,1.28-0.12s1.06-1.06,1.06-1.06s0-5.77,0-6.59c0-0.82,0.23-1.41,1.86-1.41c1.63,0,1.3,1.3,1.3,1.3
		v1.64c0,0,0,3.39,0,4.96c0,1.57,0.82,1.03,2.39,1.03c1.57,0,1.47-1.53,1.47-1.53s0-5.74,0-7.15
		C56.87,14.97,55.39,15.09,55.39,15.09z"/>
	
		<linearGradient id="SVGID_00000083069271279236623280000016646461868778801822_" gradientUnits="userSpaceOnUse" x1="54.9657" y1="75.905" x2="54.9657" y2="-2.2908">
		<stop  offset="0.1207" style="stop-color:#FEE849"/>
		<stop  offset="0.2713" style="stop-color:#FBCD41"/>
		<stop  offset="0.3281" style="stop-color:#F5B53A"/>
		<stop  offset="0.4393" style="stop-color:#EA8C2D"/>
		<stop  offset="0.4966" style="stop-color:#E67C28"/>
		<stop  offset="0.5464" style="stop-color:#E25F26"/>
		<stop  offset="0.6409" style="stop-color:#DC2D23"/>
		<stop  offset="0.7126" style="stop-color:#D80E21"/>
		<stop  offset="0.7525" style="stop-color:#D70220"/>
	</linearGradient>
	<path style="fill:url(#SVGID_00000083069271279236623280000016646461868778801822_);" d="M55.89,28.03c-1.07,0-1.48-0.02-1.48-0.02
		s-1.29-0.41-1.29,0.99s0,7.49,0,7.49s-0.35,1.26,0.64,1.26c0.99,0,2.51,0,2.51,0s0.59,0.15,0.59-1.26s0-7.49,0-7.49
		S56.96,28.03,55.89,28.03z"/>
	
		<linearGradient id="SVGID_00000146486601234371651030000003824848890119578795_" gradientUnits="userSpaceOnUse" x1="44.059" y1="75.905" x2="44.059" y2="-2.2908">
		<stop  offset="0.1207" style="stop-color:#FEE849"/>
		<stop  offset="0.2713" style="stop-color:#FBCD41"/>
		<stop  offset="0.3281" style="stop-color:#F5B53A"/>
		<stop  offset="0.4393" style="stop-color:#EA8C2D"/>
		<stop  offset="0.4966" style="stop-color:#E67C28"/>
		<stop  offset="0.5464" style="stop-color:#E25F26"/>
		<stop  offset="0.6409" style="stop-color:#DC2D23"/>
		<stop  offset="0.7126" style="stop-color:#D80E21"/>
		<stop  offset="0.7525" style="stop-color:#D70220"/>
	</linearGradient>
	<path style="fill:url(#SVGID_00000146486601234371651030000003824848890119578795_);" d="M32.83,11.7c1.11,0,7.31,0,7.31,0
		s0.99-0.18,0.99,0.88c0,1.05,0,2.51,0,2.51h-3.45c0,0-2.49,0.18-1.16,1.29c1.33,1.11,4.84,4.15,5.49,5.2
		c0.64,1.05,1.24,1.46,1.24-0.41s0-7.66,0-7.66s-0.48-1.7,1.51-1.7s10.37,0,10.37,0s1.56,0.06,0.91-1.46C55.4,8.83,50.67,0,43.71,0
		c-6.96,0-11.78,9.59-11.78,10.99C31.93,10.99,31.72,11.7,32.83,11.7z"/>
</g>
</svg>
