<?xml version="1.0" encoding="utf-8"?>
<!-- Generator: Adobe Illustrator 25.4.1, SVG Export Plug-In . SVG Version: 6.00 Build 0)  -->
<svg version="1.1" id="Layer_3" xmlns="http://www.w3.org/2000/svg" xmlns:xlink="http://www.w3.org/1999/xlink" x="0px" y="0px"
	 viewBox="0 0 207.14 80.27" style="enable-background:new 0 0 207.14 80.27;" xml:space="preserve">
<style type="text/css">
	.st0{fill:#D70220;}
	.st1{fill:url(#SVGID_1_);}
	.st2{fill:url(#SVGID_00000043457286835487051650000004806041495925675158_);}
	.st3{fill:url(#SVGID_00000159461598228999993920000007797566917923604880_);}
	.st4{fill:url(#SVGID_00000026871530726393232940000003740364805474251445_);}
	.st5{fill:url(#SVGID_00000009572020727124260970000018256343541671474580_);}
	.st6{fill:url(#SVGID_00000036954544725321849760000008255849824187247503_);}
	.st7{fill:url(#SVGID_00000054266963921809876800000001326259426356805822_);}
	.st8{fill:url(#SVGID_00000035499183033697113090000004913057583041781159_);}
	.st9{fill:url(#SVGID_00000021821771447710500190000003645160541482022537_);}
</style>
<g>
	<g>
		<polygon class="st0" points="119.09,36.49 124.54,36.49 124.54,34.27 119.09,34.27 119.09,33.22 117.1,33.22 117.1,34.27 
			112.29,34.27 112.29,36.49 117.1,36.49 117.1,39.53 111.13,39.53 111.13,41.75 117.1,41.75 119.09,41.75 125.69,41.75 
			125.69,39.53 119.09,39.53 		"/>
		<polygon class="st0" points="198.1,35.52 205.3,35.52 205.3,33.67 188.92,33.67 188.92,35.52 196.11,35.52 196.11,39.9 
			187.34,39.9 187.34,41.75 206.87,41.75 206.87,39.9 198.1,39.9 		"/>
		<path class="st0" d="M189.33,25.05h15.55v2.49h1.99v-2.49V23.2v0h-1.99v0h-6.78v-1.6h-1.65v0.03c0,0.22-0.08,1.56-1.75,1.56h-5.37
			v0h-1.99v0v1.85v2.49h1.99V25.05z"/>
		<polygon class="st0" points="119.09,31.23 124.54,31.23 124.54,29.01 119.09,29.01 119.09,25.96 124.54,25.96 124.54,23.74 
			119.09,23.74 119.09,21.17 117.1,21.17 117.1,23.74 112.29,23.74 112.29,25.96 117.1,25.96 117.1,29.01 112.29,29.01 
			112.29,31.23 117.1,31.23 		"/>
		<polygon class="st0" points="147.27,27.54 149.96,27.54 149.96,25.32 147.27,25.32 147.27,21.17 145.17,21.17 145.17,25.32 
			142.48,25.32 142.48,27.54 145.17,27.54 145.17,28.59 139.55,36.49 140.9,37.48 145.17,31.55 145.17,41.75 147.27,41.75 
			147.27,32.3 151.13,37.75 152.54,36.49 147.27,29.3 		"/>
		<path class="st0" d="M178.67,24.03h-3.85v-2.04h-1.5c0,0-0.08,2.04-1.66,2.04h-1.86v1.65h8.87V24.03z"/>
		<path class="st0" d="M164.43,23.42v-1.43h-1.5v1.43h-0.86h-1.75v1.43v5.56h-1.4v1.87h1.4v3.63c0,4.04-1.4,4.92-1.4,4.92l1.4,0.93
			c1.33,0,1.65-2.74,1.73-4.27h0.02v-0.87c0-0.06,0-0.11,0-0.12v-4.21h0.99v4.21h1.23v-4.21h1.88v3.63v1.58v1.17
			c0,0,0.03,1.99-1.74,1.99v1.4c0,0,3.49,0.53,3.49-3.39c0-0.43,0-0.81,0-1.17v-3.57v-9.06v-1.43h-1.75H164.43z M166.17,30.41h-1.88
			v-2.4h-1.23v2.4h-0.99v-5.56h0.86h1.5h1.74V30.41z"/>
		<path class="st0" d="M111.13,31.99l-2.4-2.23v-2.22h2.11v-1.86h-2.11v-4.51h-2.11v4.51h-2.16v1.86h2.16v1.75
			c-0.67,1.08-2.58,4.19-2.63,4.62c-0.06,0.53,0.38,1.46,0.86,1.05c0.29-0.25,1.15-1.39,1.77-2.24v9.03h2.11v-9.17
			c0.93,0.54,2.01,1.14,2.11,1.08C111.02,33.57,111.13,31.99,111.13,31.99z"/>
		<polygon class="st0" points="140.02,31.96 136.86,28.93 136.86,27.54 139.55,27.54 139.55,25.32 136.86,25.32 136.86,21.17 
			134.76,21.17 134.76,25.32 132.07,25.32 132.07,27.54 134.76,27.54 134.76,28.81 131.54,35.07 132.77,35.91 134.76,32.26 
			134.76,41.75 136.86,41.75 136.86,31.23 138.97,33.22 		"/>
		<path class="st0" d="M177.95,39.43c-0.67,0-0.94-0.99-1.04-1.94h0.02v-9.53h-1.75v0.06h-2.98v-0.06h-1.75v7.95
			c0,4.04-1.4,4.92-1.4,4.92l1.4,0.93c1.33,0,1.65-2.74,1.73-4.27h0.02v-0.87c0-0.06,0-0.11,0-0.12v-6.67h2.98v6.08
			c0,0-0.31,5.85,1.68,5.85s3.04-0.41,4.1-2.57L179.38,38C179.38,38,178.87,39.43,177.95,39.43z"/>
		<path class="st0" d="M187.92,30.45v1.83c0,0,5.91,0.06,7.95-4.74l-1.35-0.87C194.52,26.67,192.18,30.45,187.92,30.45z"/>
		<path class="st0" d="M206.98,30.12c-0.35,0-4.39,0-4.39,0s-2.52-0.88-2.52-2.57h-1.42c0,0-0.1,3.8,4.11,3.8s4.21,0,4.21,0
			S207.33,30.12,206.98,30.12z"/>
	</g>
	<g>
		<path class="st0" d="M114.03,64.89l5.73-14.91h2.13L128,64.89h-2.25l-1.74-4.52h-6.24l-1.64,4.52H114.03z M118.33,58.77h5.06
			l-1.56-4.13c-0.48-1.25-0.83-2.29-1.06-3.09c-0.19,0.96-0.46,1.91-0.8,2.85L118.33,58.77z"/>
		<path class="st0" d="M129.35,52.09v-2.11h1.83v2.11H129.35z M129.35,64.89v-10.8h1.83v10.8H129.35z"/>
		<path class="st0" d="M133.96,64.89v-10.8h1.65v1.64c0.42-0.77,0.81-1.27,1.17-1.52s0.75-0.37,1.18-0.37c0.62,0,1.25,0.2,1.88,0.59
			l-0.63,1.7c-0.45-0.26-0.9-0.4-1.34-0.4c-0.4,0-0.76,0.12-1.08,0.36c-0.32,0.24-0.55,0.57-0.68,1c-0.2,0.65-0.31,1.36-0.31,2.14
			v5.66H133.96z"/>
		<path class="st0" d="M153.93,59.04V57.3l6.32-0.01v5.53c-0.97,0.77-1.97,1.35-3,1.74c-1.03,0.39-2.09,0.58-3.18,0.58
			c-1.47,0-2.8-0.31-4-0.94c-1.2-0.63-2.1-1.53-2.71-2.72c-0.61-1.19-0.92-2.51-0.92-3.98c0-1.45,0.3-2.81,0.91-4.06
			c0.61-1.26,1.48-2.19,2.62-2.8c1.14-0.61,2.45-0.92,3.94-0.92c1.08,0,2.06,0.17,2.93,0.52c0.87,0.35,1.56,0.84,2.05,1.46
			c0.5,0.62,0.87,1.44,1.13,2.44l-1.78,0.49c-0.22-0.76-0.5-1.36-0.84-1.79c-0.33-0.43-0.81-0.78-1.43-1.04
			c-0.62-0.26-1.3-0.39-2.06-0.39c-0.9,0-1.68,0.14-2.34,0.41c-0.66,0.27-1.19,0.64-1.59,1.08c-0.4,0.45-0.72,0.94-0.94,1.47
			c-0.38,0.92-0.57,1.92-0.57,3c0,1.33,0.23,2.44,0.69,3.34c0.46,0.9,1.13,1.56,2,1.99c0.88,0.43,1.81,0.65,2.79,0.65
			c0.86,0,1.69-0.16,2.51-0.49c0.81-0.33,1.43-0.68,1.85-1.05v-2.78H153.93z"/>
		<path class="st0" d="M170.02,64.89v-1.59c-0.84,1.22-1.99,1.83-3.43,1.83c-0.64,0-1.23-0.12-1.79-0.37
			c-0.55-0.24-0.96-0.55-1.23-0.92c-0.27-0.37-0.46-0.82-0.57-1.36c-0.07-0.36-0.11-0.93-0.11-1.71v-6.69h1.83v5.99
			c0,0.96,0.04,1.6,0.11,1.93c0.11,0.48,0.36,0.86,0.73,1.13c0.37,0.27,0.84,0.41,1.38,0.41c0.55,0,1.07-0.14,1.55-0.42
			c0.48-0.28,0.82-0.66,1.02-1.15c0.2-0.48,0.3-1.19,0.3-2.11v-5.79h1.83v10.8H170.02z"/>
		<path class="st0" d="M174.55,52.09v-2.11h1.83v2.11H174.55z M174.55,64.89v-10.8h1.83v10.8H174.55z"/>
		<path class="st0" d="M179.13,64.89V49.98h1.83v14.91H179.13z"/>
		<path class="st0" d="M183.81,52.09v-2.11h1.83v2.11H183.81z M183.81,64.89v-10.8h1.83v10.8H183.81z"/>
		<path class="st0" d="M188.44,64.89v-10.8h1.65v1.54c0.79-1.19,1.94-1.78,3.44-1.78c0.65,0,1.25,0.12,1.8,0.35
			c0.55,0.23,0.96,0.54,1.23,0.92c0.27,0.38,0.46,0.83,0.57,1.35c0.07,0.34,0.1,0.93,0.1,1.78v6.64h-1.83v-6.57
			c0-0.75-0.07-1.3-0.21-1.67c-0.14-0.37-0.4-0.66-0.76-0.88c-0.36-0.22-0.79-0.33-1.28-0.33c-0.78,0-1.45,0.25-2.02,0.74
			c-0.57,0.5-0.85,1.43-0.85,2.82v5.9H188.44z"/>
	</g>
	<path d="M5.66,67.59c0.01-0.32,0.06-0.64,0.14-0.95C5.72,67.07,5.68,67.39,5.66,67.59z"/>
	<linearGradient id="SVGID_1_" gradientUnits="userSpaceOnUse" x1="9.2215" y1="40.981" x2="13.198" y2="64.8402">
		<stop  offset="0.1207" style="stop-color:#FEE849"/>
		<stop  offset="0.2713" style="stop-color:#FBCD41"/>
		<stop  offset="0.3281" style="stop-color:#F5B53A"/>
		<stop  offset="0.4393" style="stop-color:#EA8C2D"/>
		<stop  offset="0.4966" style="stop-color:#E67C28"/>
		<stop  offset="0.5464" style="stop-color:#E25F26"/>
		<stop  offset="0.6409" style="stop-color:#DC2D23"/>
		<stop  offset="0.7126" style="stop-color:#D80E21"/>
		<stop  offset="0.7525" style="stop-color:#D70220"/>
	</linearGradient>
	<path class="st1" d="M21.05,50.98C21,55.97,7.51,60.22,5.82,66.54c0.2-0.98,0.61-2.46,1.48-4.3c0.91-1.93,2.34-4.26,4.54-6.8
		C17.8,48.55,1.81,46.62,0,46.88c1.26-0.34,15.57-4.02,20.26,2.01c0.53,0.68,0.77,1.34,0.79,1.98
		C21.05,50.91,21.05,50.94,21.05,50.98z"/>
	
		<linearGradient id="SVGID_00000119075590564665955320000016727042787072137407_" gradientUnits="userSpaceOnUse" x1="16.3126" y1="53.1024" x2="16.7804" y2="83.7451">
		<stop  offset="0.1207" style="stop-color:#FEE849"/>
		<stop  offset="0.2713" style="stop-color:#FBCD41"/>
		<stop  offset="0.3281" style="stop-color:#F5B53A"/>
		<stop  offset="0.4393" style="stop-color:#EA8C2D"/>
		<stop  offset="0.4966" style="stop-color:#E67C28"/>
		<stop  offset="0.5464" style="stop-color:#E25F26"/>
		<stop  offset="0.6409" style="stop-color:#DC2D23"/>
		<stop  offset="0.7126" style="stop-color:#D80E21"/>
		<stop  offset="0.7525" style="stop-color:#D70220"/>
	</linearGradient>
	<path style="fill:url(#SVGID_00000119075590564665955320000016727042787072137407_);" d="M27.51,72.87
		C10,79.18,6.49,71.51,5.8,68.75C5.8,68.73,5.8,68.72,5.8,68.72c-0.13-0.53-0.15-0.88-0.15-0.88s0-0.08,0.01-0.25
		c0.02-0.2,0.06-0.52,0.14-0.95c0.01-0.03,0.01-0.06,0.02-0.1C7.51,60.22,21,55.97,21.05,50.98c0.62,8.43-5.59,9.4-6.06,16.39
		c-0.04,0.48,0,0.91,0.08,1.32C16.23,74.19,27.51,72.87,27.51,72.87z"/>
	
		<linearGradient id="SVGID_00000021110837007134401320000001282906950471470739_" gradientUnits="userSpaceOnUse" x1="5.8032" y1="67.8225" x2="104.4639" y2="67.8225">
		<stop  offset="0.1207" style="stop-color:#FEE849"/>
		<stop  offset="0.2713" style="stop-color:#FBCD41"/>
		<stop  offset="0.3152" style="stop-color:#F7BD3C"/>
		<stop  offset="0.4011" style="stop-color:#EC922F"/>
		<stop  offset="0.4412" style="stop-color:#E67C28"/>
		<stop  offset="0.4531" style="stop-color:#E46F27"/>
		<stop  offset="0.4894" style="stop-color:#E04E25"/>
		<stop  offset="0.5285" style="stop-color:#DD3223"/>
		<stop  offset="0.5705" style="stop-color:#DA1D22"/>
		<stop  offset="0.617" style="stop-color:#D80E21"/>
		<stop  offset="0.6713" style="stop-color:#D70520"/>
		<stop  offset="0.7525" style="stop-color:#D70220"/>
	</linearGradient>
	<path style="fill:url(#SVGID_00000021110837007134401320000001282906950471470739_);" d="M104.46,63.86c0,0-16.84-3.74-33.45,1.03
		C54.41,69.67,39.55,80,23.3,80C7.57,80,5.89,69.44,5.8,68.75c0.68,2.76,4.19,10.43,21.71,4.11c18.22-5.75,20.47-12.4,42.69-16.38
		C92.42,52.51,104.46,63.86,104.46,63.86z"/>
	<g>
		
			<linearGradient id="SVGID_00000091013352582665409260000013312680377563141508_" gradientUnits="userSpaceOnUse" x1="52.3625" y1="75.905" x2="52.3625" y2="-2.2908">
			<stop  offset="0.1207" style="stop-color:#FEE849"/>
			<stop  offset="0.2713" style="stop-color:#FBCD41"/>
			<stop  offset="0.3281" style="stop-color:#F5B53A"/>
			<stop  offset="0.4393" style="stop-color:#EA8C2D"/>
			<stop  offset="0.4966" style="stop-color:#E67C28"/>
			<stop  offset="0.5464" style="stop-color:#E25F26"/>
			<stop  offset="0.6409" style="stop-color:#DC2D23"/>
			<stop  offset="0.7126" style="stop-color:#D80E21"/>
			<stop  offset="0.7525" style="stop-color:#D70220"/>
		</linearGradient>
		<path style="fill:url(#SVGID_00000091013352582665409260000013312680377563141508_);" d="M64.23,52.51
			c-12.16,2.22-18.6,9.47-29.47,7.37c0,0-6.78-1.79-6.78-8.9s5.85-4.66,5.85-10.33h-4.56v-1.86h11.58v1.86H36.4
			c0,0-0.94,6.61,6.67,6.61c7.6,0,6.67-1.87,6.67-3.51c0-1.64,0-3.1,0-3.1s-4.39,0.47-5.96-1.11c-1.58-1.58-6.43-10.01-8.54-10.01
			c-2.11,0-6.9,9.44-8.19,9.26s1.75-4.8,3.16-6.82c1.4-2.02,3.63-7.28,2.81-11.61c0,0-10.06,5.03-10.06,27.84
			c0,22.81,22.22,14.62,30.06,11.23c7.84-3.39,19.88-6.78,28.77-5.26C81.78,54.15,76.4,50.29,64.23,52.51z"/>
		
			<linearGradient id="SVGID_00000150797504281466845330000004738289938089659537_" gradientUnits="userSpaceOnUse" x1="55.3926" y1="75.905" x2="55.3926" y2="-2.2908">
			<stop  offset="0.1207" style="stop-color:#FEE849"/>
			<stop  offset="0.2713" style="stop-color:#FBCD41"/>
			<stop  offset="0.3281" style="stop-color:#F5B53A"/>
			<stop  offset="0.4393" style="stop-color:#EA8C2D"/>
			<stop  offset="0.4966" style="stop-color:#E67C28"/>
			<stop  offset="0.5464" style="stop-color:#E25F26"/>
			<stop  offset="0.6409" style="stop-color:#DC2D23"/>
			<stop  offset="0.7126" style="stop-color:#D80E21"/>
			<stop  offset="0.7525" style="stop-color:#D70220"/>
		</linearGradient>
		<path style="fill:url(#SVGID_00000150797504281466845330000004738289938089659537_);" d="M53.01,51.69h-3.04v-2.81
			c0,0,0-1.05-1.17-0.58c-1.17,0.47-8.91,1.96-13.33-0.58c-0.42-0.24-1.29-0.82-2.46,0.47c-1.17,1.29-2.46,7.25,2.46,8.3
			c4.91,1.05,12.28-1.75,16.9-3.27c4.62-1.52,9.65-2.24,9.65-2.24s-1.99-12.2,4.56-12.2c6.55,0,5.96,10.93,5.96,10.93
			s3.74-0.12,6.32,0.23c0,0,0.23-25.09-12.98-25.09c-0.58,0.06-3.04,0.77-4.09,1.76v-5.44h-1.29V38c0,0,0.17,2.49-2.49,2.49
			c-2.66,0-5,0-5,0V51.69z"/>
		
			<linearGradient id="SVGID_00000088845005629013148740000009714315707283138441_" gradientUnits="userSpaceOnUse" x1="39.8843" y1="75.905" x2="39.8843" y2="-2.2908">
			<stop  offset="0.1207" style="stop-color:#FEE849"/>
			<stop  offset="0.2713" style="stop-color:#FBCD41"/>
			<stop  offset="0.3281" style="stop-color:#F5B53A"/>
			<stop  offset="0.4393" style="stop-color:#EA8C2D"/>
			<stop  offset="0.4966" style="stop-color:#E67C28"/>
			<stop  offset="0.5464" style="stop-color:#E25F26"/>
			<stop  offset="0.6409" style="stop-color:#DC2D23"/>
			<stop  offset="0.7126" style="stop-color:#D80E21"/>
			<stop  offset="0.7525" style="stop-color:#D70220"/>
		</linearGradient>
		<path style="fill:url(#SVGID_00000088845005629013148740000009714315707283138441_);" d="M36.51,21.17c0,0,0.35,4.91,3.04,8.95
			c2.69,4.04,3.39,6.02,3.63,4.15c0.23-1.87,0-7.52-2.22-10.13C38.74,21.52,37.33,20.58,36.51,21.17z"/>
		
			<linearGradient id="SVGID_00000031181204354070049350000004098864921239743914_" gradientUnits="userSpaceOnUse" x1="51.4664" y1="75.905" x2="51.4664" y2="-2.2908">
			<stop  offset="0.1207" style="stop-color:#FEE849"/>
			<stop  offset="0.2713" style="stop-color:#FBCD41"/>
			<stop  offset="0.3281" style="stop-color:#F5B53A"/>
			<stop  offset="0.4393" style="stop-color:#EA8C2D"/>
			<stop  offset="0.4966" style="stop-color:#E67C28"/>
			<stop  offset="0.5464" style="stop-color:#E25F26"/>
			<stop  offset="0.6409" style="stop-color:#DC2D23"/>
			<stop  offset="0.7126" style="stop-color:#D80E21"/>
			<stop  offset="0.7525" style="stop-color:#D70220"/>
		</linearGradient>
		<path style="fill:url(#SVGID_00000031181204354070049350000004098864921239743914_);" d="M55.39,15.09c0,0-5.19,0-7.47,0
			c-2.28,0-1.81,1.4-1.81,1.4V38c0,0,0.7,0,2.23,0c1.53,0,1.4-1.51,1.4-1.51s0-4.44,0-6.37c0-1.93-0.94-1.81-2.22-2.57
			c-1.29-0.76,0-2.22,0-2.22s0-0.12,1.28-0.12s1.06-1.06,1.06-1.06s0-5.77,0-6.59c0-0.82,0.23-1.41,1.86-1.41
			c1.63,0,1.3,1.3,1.3,1.3v1.64c0,0,0,3.39,0,4.96c0,1.57,0.82,1.03,2.39,1.03c1.57,0,1.47-1.53,1.47-1.53s0-5.74,0-7.15
			C56.87,14.97,55.39,15.09,55.39,15.09z"/>
		
			<linearGradient id="SVGID_00000138539740000302079180000006638585309431149246_" gradientUnits="userSpaceOnUse" x1="54.9657" y1="75.905" x2="54.9657" y2="-2.2908">
			<stop  offset="0.1207" style="stop-color:#FEE849"/>
			<stop  offset="0.2713" style="stop-color:#FBCD41"/>
			<stop  offset="0.3281" style="stop-color:#F5B53A"/>
			<stop  offset="0.4393" style="stop-color:#EA8C2D"/>
			<stop  offset="0.4966" style="stop-color:#E67C28"/>
			<stop  offset="0.5464" style="stop-color:#E25F26"/>
			<stop  offset="0.6409" style="stop-color:#DC2D23"/>
			<stop  offset="0.7126" style="stop-color:#D80E21"/>
			<stop  offset="0.7525" style="stop-color:#D70220"/>
		</linearGradient>
		<path style="fill:url(#SVGID_00000138539740000302079180000006638585309431149246_);" d="M55.89,28.03
			c-1.07,0-1.48-0.02-1.48-0.02s-1.29-0.41-1.29,0.99s0,7.49,0,7.49s-0.35,1.26,0.64,1.26c0.99,0,2.51,0,2.51,0s0.59,0.15,0.59-1.26
			s0-7.49,0-7.49S56.96,28.03,55.89,28.03z"/>
		
			<linearGradient id="SVGID_00000117636450841334698870000006555532141449246880_" gradientUnits="userSpaceOnUse" x1="44.059" y1="75.905" x2="44.059" y2="-2.2908">
			<stop  offset="0.1207" style="stop-color:#FEE849"/>
			<stop  offset="0.2713" style="stop-color:#FBCD41"/>
			<stop  offset="0.3281" style="stop-color:#F5B53A"/>
			<stop  offset="0.4393" style="stop-color:#EA8C2D"/>
			<stop  offset="0.4966" style="stop-color:#E67C28"/>
			<stop  offset="0.5464" style="stop-color:#E25F26"/>
			<stop  offset="0.6409" style="stop-color:#DC2D23"/>
			<stop  offset="0.7126" style="stop-color:#D80E21"/>
			<stop  offset="0.7525" style="stop-color:#D70220"/>
		</linearGradient>
		<path style="fill:url(#SVGID_00000117636450841334698870000006555532141449246880_);" d="M32.83,11.7c1.11,0,7.31,0,7.31,0
			s0.99-0.18,0.99,0.88c0,1.05,0,2.51,0,2.51h-3.45c0,0-2.49,0.18-1.16,1.29c1.33,1.11,4.84,4.15,5.49,5.2
			c0.64,1.05,1.24,1.46,1.24-0.41s0-7.66,0-7.66s-0.48-1.7,1.51-1.7s10.37,0,10.37,0s1.56,0.06,0.91-1.46C55.4,8.83,50.67,0,43.71,0
			c-6.96,0-11.78,9.59-11.78,10.99C31.93,10.99,31.72,11.7,32.83,11.7z"/>
	</g>
</g>
</svg>
