<?xml version="1.0" encoding="utf-8"?>
<!-- Generator: Adobe Illustrator 25.4.1, SVG Export Plug-In . SVG Version: 6.00 Build 0)  -->
<svg version="1.1" id="Layer_1" xmlns="http://www.w3.org/2000/svg" xmlns:xlink="http://www.w3.org/1999/xlink" x="0px" y="0px"
	 viewBox="0 0 193.45 80.27" style="enable-background:new 0 0 193.45 80.27;" xml:space="preserve">
<style type="text/css">
	.st0{fill:#E5004F;enable-background:new    ;}
	.st1{fill:#EE7700;enable-background:new    ;}
	.st2{fill:#FABE00;enable-background:new    ;}
	.st3{fill:#01ADA9;enable-background:new    ;}
	.st4{fill:#0068B7;enable-background:new    ;}
	.st5{fill:#6EB92B;enable-background:new    ;}
	.st6{fill:#AACD06;enable-background:new    ;}
</style>
<g>
	<path class="st0" d="M0.41,24.47c0,0,16.41,1.41,41.27,22.2s41.27,32.67,57.22,33.3s27.36-9.07,27.36-9.07s-15.16,7.35-34.86,0.63
		S45.12,31.2,23.08,26.51S0.41,24.47,0.41,24.47z"/>
	<path class="st1" d="M26.01,24.31c0,0,12.88,1.1,32.38,17.41s32.07,27.12,44.58,27.62s21.1-5.16,21.1-5.16s-9.85,5.19-26.76-1.72
		C82.2,56.29,61.09,29.58,43.8,25.91S26.01,24.31,26.01,24.31z"/>
	<path class="st2" d="M49,24.19c0,0,10.25,0.88,25.77,13.86s26.38,22.61,36.33,23s11.88-1.9,11.88-1.9s-3.58,1.77-17.04-3.73
		c-12.03-4.91-27.67-27.05-42.79-29.97C49.34,22.79,49,24.19,49,24.19z"/>
	<path class="st3" d="M70.53,15.41c5.18-2.99,13.93-2.5,19.44-1.4c10.73,2.13,18.93,10.06,26.62,17.3
		c14.47,13.63,31.73,26.19,52.67,24.3c-6.09-1.86-12.07-4.3-17.77-7.14c-19.62-9.78-32.21-30.55-53.63-36.99
		C84.39,7.42,70.53,15.4,70.53,15.41z"/>
	<path class="st4" d="M69.51,8.37c0,0,22.28-11.14,46.2,6.1c7.51,5.41,14.74,11.21,21.94,17.04C144.5,37.05,151.2,43.53,159,47.7
		c10.18,5.43,22.58,8.54,34.18,7.37c0.09-0.01,0.18-0.02,0.27-0.03c-1.29,0.17-3.25-0.73-4.44-1.09c-4.31-1.29-8.47-3.07-12.49-5.07
		c-14.21-7.1-25.59-17.63-37.76-27.6C119.96,5.87,91.89-10.26,69.51,8.37z"/>
	<path class="st5" d="M71.08,20.56c0,0,14.91-2.89,28.16,10.84c7.54,7.82,15.83,15.65,25.79,20.27c6.56,3.04,13.93,4.6,21.09,3.58
		c-5.43-1.67-10.66-3.88-15.71-6.47c-12.33-6.32-20.76-18.31-32.68-25.4c-6.03-3.59-12.78-5.44-19.84-4.95
		C75.85,18.58,72.56,18.85,71.08,20.56z"/>
	<path class="st6" d="M67.95,24.79c0,0,6.22-0.45,18.04,9.22c15.66,12.81,21.01,21.67,33.71,22.2c8.39,0.35,9.22-1.25,9.22-1.25
		c-0.59,1.14-8.6-1.82-9.24-2.05c-8.17-2.89-14.12-7.6-20.19-13.62c-6.59-6.54-13.39-12.56-22.62-14.58
		C73.5,23.98,71.08,24.56,67.95,24.79z"/>
</g>
</svg>
