<?xml version="1.0" encoding="utf-8"?>
<!-- Generator: Adobe Illustrator 25.4.1, SVG Export Plug-In . SVG Version: 6.00 Build 0)  -->
<svg version="1.1" id="Layer_1" xmlns="http://www.w3.org/2000/svg" xmlns:xlink="http://www.w3.org/1999/xlink" x="0px" y="0px"
	 viewBox="0 0 132.24 80.27" style="enable-background:new 0 0 132.24 80.27;" xml:space="preserve">
<style type="text/css">
	.st0{fill:#E5004F;enable-background:new    ;}
	.st1{fill:#EE7700;enable-background:new    ;}
	.st2{fill:#FABE00;enable-background:new    ;}
	.st3{fill:#01ADA9;enable-background:new    ;}
	.st4{fill:#0068B7;enable-background:new    ;}
	.st5{fill:#6EB92B;enable-background:new    ;}
	.st6{fill:#AACD06;enable-background:new    ;}
	.st7{enable-background:new    ;}
	.st8{fill:#383635;}
</style>
<g>
	<path class="st0" d="M0.41,16.65c0,0,11.17,0.96,28.08,15.11s28.08,22.23,38.94,22.66s18.62-6.17,18.62-6.17s-10.32,5-23.72,0.43
		S30.84,21.23,15.84,18.04S0.41,16.65,0.41,16.65z"/>
	<path class="st1" d="M17.83,16.54c0,0,8.76,0.75,22.03,11.85S61.69,46.85,70.2,47.18s14.36-3.51,14.36-3.51s-6.7,3.53-18.21-1.17
		C56.07,38.3,41.7,20.13,29.93,17.63S17.83,16.54,17.83,16.54z"/>
	<path class="st2" d="M33.47,16.46c0,0,6.97,0.6,17.53,9.43s17.95,15.39,24.72,15.65c6.77,0.27,8.09-1.29,8.09-1.29
		s-2.44,1.21-11.6-2.54c-8.19-3.34-18.83-18.4-29.12-20.39C33.7,15.51,33.47,16.46,33.47,16.46z"/>
	<path class="st3" d="M48.13,10.48c3.52-2.03,9.48-1.7,13.23-0.95c7.3,1.45,12.88,6.85,18.11,11.77
		c9.85,9.27,21.59,17.82,35.84,16.53c-4.14-1.27-8.22-2.93-12.09-4.86C89.87,26.32,81.3,12.19,66.72,7.8
		C57.55,5.05,48.13,10.48,48.13,10.48z"/>
	<path class="st4" d="M47.43,5.7c0,0,15.16-7.58,31.44,4.15c5.11,3.68,10.03,7.63,14.93,11.59c4.66,3.78,9.22,8.19,14.53,11.02
		c6.93,3.7,15.37,5.81,23.26,5.02c0.06-0.01,0.12-0.01,0.18-0.02c-0.88,0.11-2.21-0.5-3.02-0.74c-2.93-0.88-5.76-2.09-8.5-3.45
		c-9.67-4.83-17.42-11.99-25.69-18.78C81.77,3.99,62.66-6.98,47.43,5.7z"/>
	<path class="st5" d="M48.5,13.99c0,0,10.15-1.97,19.16,7.38c5.13,5.32,10.77,10.65,17.55,13.79c4.46,2.07,9.48,3.13,14.35,2.43
		c-3.7-1.14-7.25-2.64-10.69-4.4c-8.39-4.3-14.13-12.46-22.24-17.28c-4.11-2.44-8.69-3.7-13.5-3.37
		C51.75,12.64,49.5,12.83,48.5,13.99z"/>
	<path class="st6" d="M46.37,16.87c0,0,4.23-0.3,12.28,6.28c10.66,8.72,14.3,14.74,22.94,15.11c5.71,0.24,6.27-0.85,6.28-0.85
		c-0.4,0.77-5.85-1.24-6.28-1.39c-5.56-1.96-9.61-5.17-13.74-9.27c-4.48-4.45-9.11-8.55-15.39-9.92
		C50.15,16.32,48.5,16.71,46.37,16.87z"/>
	<g class="st7">
		<path class="st8" d="M87.13,71.9l0.62,0.07c-0.2,0.46-0.48,0.8-0.86,1.04c-0.38,0.23-0.8,0.35-1.27,0.35
			c-0.57,0-1.03-0.15-1.36-0.44c-0.34-0.29-0.5-0.71-0.5-1.26c0-0.71,0.26-1.3,0.77-1.77c0.45-0.42,1.02-0.62,1.7-0.62
			c0.5,0,0.9,0.11,1.21,0.34c0.31,0.23,0.49,0.53,0.54,0.91l-0.59,0.05c-0.06-0.29-0.19-0.5-0.38-0.64
			c-0.19-0.14-0.44-0.21-0.75-0.21c-0.58,0-1.04,0.22-1.4,0.65c-0.31,0.37-0.46,0.81-0.46,1.32c0,0.41,0.12,0.72,0.36,0.93
			c0.24,0.21,0.55,0.32,0.93,0.32c0.33,0,0.62-0.09,0.88-0.27C86.82,72.48,87.01,72.23,87.13,71.9z"/>
		<path class="st8" d="M88.24,72.21c0-0.56,0.2-1.02,0.59-1.39c0.32-0.3,0.75-0.45,1.27-0.45c0.41,0,0.74,0.11,1,0.32
			c0.25,0.22,0.38,0.51,0.38,0.88c0,0.33-0.08,0.64-0.24,0.92c-0.16,0.28-0.38,0.5-0.68,0.65s-0.6,0.23-0.93,0.23
			c-0.27,0-0.51-0.05-0.73-0.14c-0.22-0.1-0.38-0.23-0.5-0.41C88.29,72.64,88.24,72.43,88.24,72.21z M88.82,72.16
			c0,0.27,0.08,0.48,0.23,0.61c0.15,0.14,0.35,0.21,0.59,0.21c0.12,0,0.25-0.02,0.37-0.06c0.12-0.04,0.24-0.11,0.34-0.19
			c0.11-0.09,0.19-0.19,0.27-0.3c0.07-0.11,0.13-0.23,0.18-0.36c0.07-0.18,0.1-0.35,0.1-0.51c0-0.26-0.08-0.46-0.23-0.6
			c-0.16-0.14-0.35-0.21-0.59-0.21c-0.18,0-0.35,0.04-0.5,0.11c-0.15,0.07-0.29,0.18-0.41,0.32c-0.12,0.14-0.21,0.3-0.27,0.49
			C88.85,71.84,88.82,72.01,88.82,72.16z"/>
		<path class="st8" d="M91.75,73.29l0.98-3.96h0.58l-0.98,3.96H91.75z"/>
		<path class="st8" d="M93.36,72.21c0-0.56,0.2-1.02,0.59-1.39c0.32-0.3,0.75-0.45,1.27-0.45c0.41,0,0.74,0.11,1,0.32
			c0.25,0.22,0.38,0.51,0.38,0.88c0,0.33-0.08,0.64-0.24,0.92c-0.16,0.28-0.38,0.5-0.68,0.65c-0.29,0.15-0.6,0.23-0.93,0.23
			c-0.27,0-0.51-0.05-0.73-0.14c-0.22-0.1-0.38-0.23-0.5-0.41C93.42,72.64,93.36,72.43,93.36,72.21z M93.95,72.16
			c0,0.27,0.08,0.48,0.23,0.61c0.15,0.14,0.35,0.21,0.59,0.21c0.12,0,0.25-0.02,0.37-0.06c0.12-0.04,0.24-0.11,0.34-0.19
			c0.11-0.09,0.19-0.19,0.27-0.3c0.07-0.11,0.13-0.23,0.18-0.36c0.07-0.18,0.1-0.35,0.1-0.51c0-0.26-0.08-0.46-0.23-0.6
			c-0.16-0.14-0.35-0.21-0.59-0.21c-0.18,0-0.35,0.04-0.5,0.11c-0.15,0.07-0.29,0.18-0.41,0.32c-0.12,0.14-0.21,0.3-0.27,0.49
			C93.97,71.84,93.95,72.01,93.95,72.16z"/>
		<path class="st8" d="M96.93,73.29l0.71-2.87h0.52l-0.14,0.59c0.18-0.22,0.35-0.39,0.52-0.49c0.17-0.11,0.34-0.16,0.52-0.16
			c0.12,0,0.26,0.04,0.43,0.11l-0.24,0.45c-0.1-0.06-0.21-0.09-0.33-0.09c-0.2,0-0.41,0.1-0.63,0.29c-0.21,0.19-0.38,0.53-0.51,1.03
			l-0.29,1.15H96.93z"/>
		<path class="st8" d="M99.2,73.29l0.62-2.49H99.3l0.09-0.38h0.52l0.1-0.41c0.05-0.2,0.1-0.35,0.16-0.44
			c0.05-0.09,0.14-0.16,0.27-0.22s0.29-0.09,0.5-0.09c0.15,0,0.36,0.03,0.64,0.08l-0.11,0.43c-0.2-0.04-0.36-0.07-0.5-0.07
			c-0.11,0-0.2,0.02-0.26,0.07s-0.11,0.16-0.15,0.34l-0.08,0.31h0.65l-0.09,0.38h-0.65l-0.62,2.49H99.2z"/>
		<path class="st8" d="M103.28,72.78c-0.41,0.39-0.83,0.58-1.26,0.58c-0.26,0-0.48-0.06-0.64-0.19c-0.16-0.13-0.24-0.28-0.24-0.47
			c0-0.12,0.04-0.33,0.11-0.62l0.41-1.66h0.58l-0.46,1.84c-0.04,0.15-0.06,0.27-0.06,0.36c0,0.11,0.04,0.19,0.12,0.25
			c0.08,0.06,0.19,0.09,0.35,0.09c0.16,0,0.32-0.03,0.48-0.1c0.16-0.07,0.29-0.16,0.4-0.27c0.11-0.11,0.2-0.25,0.28-0.4
			c0.05-0.1,0.1-0.27,0.16-0.52l0.31-1.24h0.58l-0.71,2.87h-0.54L103.28,72.78z"/>
		<path class="st8" d="M104.57,73.29l0.98-3.96h0.58l-0.98,3.96H104.57z"/>
		<path class="st8" d="M110.39,71.73l0.11-0.45h2.07l-0.4,1.61c-0.26,0.14-0.56,0.25-0.89,0.34c-0.33,0.09-0.66,0.13-0.98,0.13
			c-0.69,0-1.2-0.17-1.54-0.52c-0.28-0.29-0.43-0.67-0.43-1.13c0-0.48,0.13-0.91,0.37-1.3c0.25-0.39,0.57-0.68,0.95-0.86
			c0.38-0.19,0.8-0.28,1.27-0.28c0.33,0,0.63,0.05,0.9,0.15c0.27,0.1,0.47,0.24,0.61,0.41c0.14,0.17,0.24,0.39,0.31,0.67l-0.62,0.06
			c-0.07-0.27-0.2-0.48-0.41-0.63c-0.21-0.15-0.48-0.22-0.81-0.22c-0.34,0-0.66,0.08-0.96,0.23c-0.3,0.16-0.53,0.39-0.71,0.71
			c-0.18,0.31-0.27,0.67-0.27,1.07c0,0.4,0.12,0.7,0.35,0.9c0.23,0.2,0.56,0.31,0.97,0.31c0.41,0,0.85-0.11,1.32-0.34l0.21-0.85
			H110.39z"/>
		<path class="st8" d="M115.37,72.78c-0.41,0.39-0.83,0.58-1.26,0.58c-0.26,0-0.48-0.06-0.64-0.19c-0.16-0.13-0.24-0.28-0.24-0.47
			c0-0.12,0.04-0.33,0.11-0.62l0.41-1.66h0.58l-0.46,1.84c-0.04,0.15-0.06,0.27-0.06,0.36c0,0.11,0.04,0.19,0.12,0.25
			c0.08,0.06,0.19,0.09,0.35,0.09c0.16,0,0.32-0.03,0.48-0.1c0.16-0.07,0.29-0.16,0.4-0.27c0.11-0.11,0.2-0.25,0.28-0.4
			c0.05-0.1,0.1-0.27,0.16-0.52l0.31-1.24h0.58l-0.71,2.87h-0.54L115.37,72.78z"/>
		<path class="st8" d="M116.68,73.29l0.71-2.87h0.58l-0.71,2.87H116.68z M117.53,69.89l0.14-0.55h0.58l-0.14,0.55H117.53z"/>
		<path class="st8" d="M118.07,73.29l0.09-0.38l1.84-1.74c0.13-0.12,0.28-0.25,0.44-0.38c-0.28,0.02-0.48,0.04-0.6,0.04h-1.27
			l0.1-0.41h2.64l-0.08,0.31l-1.85,1.75c-0.11,0.1-0.26,0.24-0.47,0.41c0.32-0.02,0.55-0.02,0.67-0.02h1.34l-0.11,0.43H118.07z"/>
		<path class="st8" d="M121.46,73.29l0.98-3.96h0.58l-0.38,1.52c0.22-0.18,0.42-0.3,0.6-0.38c0.19-0.08,0.38-0.11,0.58-0.11
			c0.28,0,0.5,0.06,0.66,0.19c0.16,0.13,0.24,0.29,0.24,0.5c0,0.1-0.03,0.29-0.1,0.56l-0.42,1.69h-0.58l0.43-1.74
			c0.06-0.25,0.09-0.41,0.09-0.48c0-0.09-0.04-0.17-0.12-0.23c-0.08-0.06-0.19-0.09-0.34-0.09c-0.21,0-0.41,0.05-0.6,0.14
			c-0.19,0.09-0.34,0.22-0.45,0.38c-0.11,0.16-0.21,0.42-0.3,0.78l-0.31,1.23H121.46z"/>
		<path class="st8" d="M125.23,72.21c0-0.56,0.2-1.02,0.59-1.39c0.32-0.3,0.75-0.45,1.27-0.45c0.41,0,0.74,0.11,1,0.32
			c0.25,0.22,0.38,0.51,0.38,0.88c0,0.33-0.08,0.64-0.24,0.92c-0.16,0.28-0.38,0.5-0.68,0.65c-0.29,0.15-0.6,0.23-0.93,0.23
			c-0.27,0-0.51-0.05-0.73-0.14c-0.22-0.1-0.38-0.23-0.5-0.41C125.28,72.64,125.23,72.43,125.23,72.21z M125.81,72.16
			c0,0.27,0.08,0.48,0.23,0.61c0.15,0.14,0.35,0.21,0.59,0.21c0.12,0,0.25-0.02,0.37-0.06c0.12-0.04,0.24-0.11,0.34-0.19
			c0.11-0.09,0.19-0.19,0.27-0.3c0.07-0.11,0.13-0.23,0.18-0.36c0.07-0.18,0.1-0.35,0.1-0.51c0-0.26-0.08-0.46-0.23-0.6
			c-0.16-0.14-0.35-0.21-0.59-0.21c-0.18,0-0.35,0.04-0.5,0.11c-0.15,0.07-0.29,0.18-0.41,0.32c-0.12,0.14-0.21,0.3-0.27,0.49
			C125.84,71.84,125.81,72.01,125.81,72.16z"/>
		<path class="st8" d="M131.12,72.78c-0.41,0.39-0.83,0.58-1.26,0.58c-0.26,0-0.48-0.06-0.64-0.19c-0.16-0.13-0.24-0.28-0.24-0.47
			c0-0.12,0.04-0.33,0.11-0.62l0.41-1.66h0.58l-0.46,1.84c-0.04,0.15-0.06,0.27-0.06,0.36c0,0.11,0.04,0.19,0.12,0.25
			c0.08,0.06,0.19,0.09,0.35,0.09c0.16,0,0.32-0.03,0.48-0.1c0.16-0.07,0.29-0.16,0.4-0.27c0.11-0.11,0.2-0.25,0.28-0.4
			c0.05-0.1,0.1-0.27,0.16-0.52l0.31-1.24h0.58l-0.71,2.87h-0.54L131.12,72.78z"/>
		<path class="st8" d="M83.02,79.94l2.67-3.96h0.74l0.78,3.96h-0.61l-0.23-1.14h-1.91l-0.76,1.14H83.02z M84.74,78.39h1.56
			l-0.18-0.99C86.05,77,86,76.67,85.99,76.41c-0.11,0.23-0.26,0.5-0.47,0.81L84.74,78.39z"/>
		<path class="st8" d="M87.75,79.94l0.71-2.87h0.58l-0.71,2.87H87.75z M88.6,76.53l0.14-0.55h0.58l-0.14,0.55H88.6z"/>
		<path class="st8" d="M89.23,79.94l0.71-2.87h0.52l-0.14,0.59c0.18-0.22,0.35-0.39,0.52-0.49C91,77.05,91.17,77,91.35,77
			c0.12,0,0.26,0.04,0.43,0.11l-0.24,0.45c-0.1-0.06-0.21-0.09-0.33-0.09c-0.2,0-0.41,0.1-0.63,0.29c-0.21,0.19-0.38,0.53-0.51,1.03
			l-0.29,1.15H89.23z"/>
		<path class="st8" d="M91.38,79.94l0.98-3.96h0.58l-0.98,3.96H91.38z"/>
		<path class="st8" d="M92.87,79.94l0.71-2.87h0.58l-0.71,2.87H92.87z M93.72,76.53l0.14-0.55h0.58l-0.14,0.55H93.72z"/>
		<path class="st8" d="M94.35,79.94l0.71-2.87h0.53l-0.13,0.5c0.23-0.2,0.44-0.34,0.64-0.43c0.2-0.09,0.4-0.13,0.61-0.13
			c0.28,0,0.49,0.06,0.65,0.19c0.16,0.13,0.24,0.29,0.24,0.51c0,0.11-0.03,0.27-0.08,0.5l-0.43,1.74h-0.58l0.45-1.82
			c0.04-0.18,0.07-0.31,0.07-0.39c0-0.1-0.04-0.17-0.12-0.23c-0.08-0.06-0.19-0.09-0.34-0.09c-0.3,0-0.56,0.09-0.8,0.27
			c-0.23,0.18-0.4,0.49-0.51,0.93l-0.33,1.34H94.35z"/>
		<path class="st8" d="M100.53,78.96l0.57,0.05c-0.08,0.24-0.27,0.46-0.56,0.67c-0.29,0.21-0.64,0.32-1.05,0.32
			c-0.25,0-0.49-0.05-0.7-0.15c-0.21-0.1-0.37-0.24-0.48-0.43c-0.11-0.19-0.17-0.4-0.17-0.64c0-0.31,0.09-0.62,0.26-0.91
			c0.17-0.29,0.4-0.51,0.67-0.66c0.27-0.14,0.57-0.21,0.89-0.21c0.41,0,0.73,0.11,0.98,0.32c0.24,0.21,0.37,0.5,0.37,0.87
			c0,0.14-0.01,0.28-0.04,0.43h-2.52c-0.01,0.06-0.01,0.11-0.01,0.15c0,0.27,0.07,0.47,0.22,0.61c0.15,0.14,0.33,0.21,0.54,0.21
			c0.2,0,0.4-0.05,0.59-0.16C100.27,79.33,100.42,79.17,100.53,78.96z M98.84,78.25h1.92c0-0.05,0-0.09,0-0.11
			c0-0.25-0.07-0.43-0.22-0.56c-0.15-0.13-0.33-0.2-0.56-0.2c-0.25,0-0.48,0.07-0.68,0.22C99.09,77.74,98.94,77.96,98.84,78.25z"/>
		<path class="st8" d="M101.74,78.95l0.58-0.03c0,0.14,0.03,0.26,0.08,0.36c0.05,0.1,0.15,0.18,0.28,0.24
			c0.14,0.06,0.3,0.09,0.48,0.09c0.26,0,0.45-0.04,0.58-0.13c0.13-0.09,0.19-0.19,0.19-0.31c0-0.08-0.04-0.16-0.12-0.24
			c-0.08-0.08-0.27-0.17-0.58-0.28c-0.31-0.11-0.5-0.19-0.59-0.23c-0.14-0.07-0.25-0.16-0.32-0.26c-0.07-0.1-0.11-0.21-0.11-0.34
			c0-0.23,0.11-0.42,0.32-0.58s0.52-0.24,0.9-0.24c0.43,0,0.76,0.08,0.98,0.25c0.22,0.17,0.34,0.39,0.35,0.66l-0.57,0.03
			c-0.01-0.17-0.08-0.31-0.22-0.41c-0.14-0.1-0.33-0.15-0.58-0.15c-0.2,0-0.36,0.04-0.47,0.12c-0.11,0.08-0.17,0.16-0.17,0.25
			c0,0.09,0.05,0.17,0.14,0.24c0.06,0.05,0.23,0.12,0.5,0.22c0.45,0.16,0.73,0.29,0.84,0.38c0.18,0.15,0.28,0.33,0.28,0.55
			c0,0.14-0.05,0.28-0.16,0.42c-0.1,0.14-0.26,0.25-0.48,0.33c-0.21,0.08-0.46,0.12-0.75,0.12c-0.39,0-0.73-0.08-1.01-0.25
			C101.85,79.59,101.72,79.32,101.74,78.95z"/>
	</g>
	<g class="st7">
		<path class="st8" d="M10.97,75.67c-1.04-0.08-5.74-0.32-5.74-0.32l0.24-0.56c0,0-1.44-0.16-1.99,0c-0.56,0.16-3.33,2.41-3.33,2.41
			s-0.18,0.29,0.33,0.38s1.49,0.07,1.81,0.13c0.32,0.07,0.84,0.92,1.04,1.25c0.2,0.33-2.61,0.17-2.94,0.15
			c-0.33-0.03-0.52,0.45-0.23,0.47c0.06,0,7.08,0.56,8.68-0.8c1.6-1.36,2.55-2.39,2.55-2.39S12.01,75.75,10.97,75.67z M8.62,76.84
			c-0.25,0.4-2.61,2.11-3.05,1.87c-0.44-0.24-1.49-1.37-2.17-1.51c-0.68-0.14,0-0.49,0-0.49c0.22-0.16,0.19-0.29,0.53-0.44
			c0.35-0.15,3.39-0.07,4.26-0.09C9.06,76.16,8.87,76.44,8.62,76.84z"/>
		<path class="st8" d="M11.08,70c-1.04-0.08-6.06-0.05-6.06-0.05l0.95-0.74c0,0-1.94-0.09-2.49,0.07c-0.56,0.16-3.33,2.41-3.33,2.41
			s-0.18,0.29,0.33,0.38s1.49,0.07,1.81,0.13c0.32,0.07,0.81,0.69,1.01,1.02c0.2,0.33-1.54,0.28-1.87,0.26s-0.6,0.69-0.31,0.7
			c0.06,0,6.12,0.44,7.72-0.91c1.6-1.36,2.55-2.39,2.55-2.39S12.12,70.08,11.08,70z M8.62,71.33c-0.25,0.4-2.13,1.97-2.57,1.73
			c-0.44-0.24-0.85-1.15-1.54-1.18c-1.21-0.06-0.97-0.67-0.97-0.67c0.17-0.26,0.11-0.21,0.4-0.44c0.29-0.23,3.39-0.07,4.26-0.09
			C9.06,70.66,8.87,70.93,8.62,71.33z"/>
		<path class="st8" d="M25.59,69.3h-1.67c-0.03,0-0.06,0.01-0.08,0.04l-1.95,2.37c-0.05,0.06-0.01,0.16,0.08,0.16h1.6
			c0.03,0,0.06-0.01,0.07-0.03l2.03-2.37C25.72,69.4,25.67,69.3,25.59,69.3z"/>
		<path class="st8" d="M25.1,72.97h-1.67c-0.03,0-0.06,0.01-0.08,0.04l-1.95,2.37c-0.05,0.06-0.01,0.16,0.08,0.16h1.6
			c0.03,0,0.06-0.01,0.07-0.03l2.03-2.37C25.22,73.07,25.18,72.97,25.1,72.97z"/>
		<path class="st8" d="M24.92,76.36h-1.74c-0.03,0-0.06,0.02-0.08,0.04l-2.13,2.49l0,0l0,0l-0.04,0.05
			c-0.07,0.07-0.25,0.19-0.65,0.19c-0.22,0-0.32-0.15-0.37-0.37c0-0.39-0.02-0.89-0.04-1.31c0,0,0,0,0,0c0,0,0,0,0,0
			c-0.02-0.45-0.05-0.81-0.05-0.81s0.07-0.43-0.31-0.52c-0.19-0.05-0.4-0.05-0.55-0.03c-0.14,0.01-0.26,0.1-0.3,0.24l-0.28,2.95
			c0,0-0.21,0.31,0.43,0.31c0.12,0,0.22,0.01,0.32,0.01c0,0,0,0.01,0,0.01h2.12l-0.01-0.02h1.06c0.03,0,0.06-0.02,0.08-0.04
			L25,76.56C25.06,76.48,25.01,76.36,24.92,76.36z"/>
		<path class="st8" d="M14.71,70.39h6.13c0.06,0,0.1-0.03,0.13-0.07h0l0,0C20.99,70.3,21,70.29,21,70.27
			c0.1-0.22,0.47-1.15,0.29-1.21c-0.2-0.07-0.36-0.12-0.93,0.13c-0.57,0.25-1.69,0.53-1.69,0.53h-3.96c-0.09,0-0.17,0.07-0.17,0.17
			v0.33C14.55,70.32,14.62,70.39,14.71,70.39z"/>
		<path class="st8" d="M14.91,76.11c-0.19-0.05-0.4-0.05-0.55-0.03c-0.14,0.01-0.26,0.1-0.3,0.24l-0.99,2.96
			c0,0-0.21,0.31,0.43,0.31c0.64,0,0.92,0.14,1.05-0.26c0.13-0.4,0.66-2.7,0.66-2.7S15.28,76.2,14.91,76.11z"/>
		<path class="st8" d="M20.16,75.27c0,0,0.16,0.03,0.16-0.17c0-0.2,0-0.55,0-0.55s0.01-0.13-0.13-0.13c-0.15,0-2.35,0-2.35,0
			s0.07-0.25-0.05-0.37c-0.12-0.12-1.57-0.15-1.64-0.11c-0.07,0.04-0.07,0.43-0.07,0.43l-1.95,0.03c0,0-0.16-0.08-0.16,0.15
			c0,0.23,0,0.61,0,0.61s-0.05,0.15,0.29,0.15c0.35,0,1.68,0,1.68,0s-0.12,3.23-0.19,3.92c0,0-0.11,0.37,0.29,0.37
			c0.4,0,1.69,0,1.69,0s0.19-0.01,0.13-0.37c-0.05-0.36,0.01-3.95,0.01-3.95H20.16z"/>
		<path class="st8" d="M14.94,71.43c-0.16-0.01-0.29,0.11-0.3,0.27l-0.07,1.11c-0.01,0.16,0.11,0.29,0.27,0.3l0.61,0.02
			c0.16,0.01,0.46-0.21,0.47-0.37l0.02-0.99c0.01-0.16-0.05-0.32-0.2-0.33L14.94,71.43z"/>
		<path class="st8" d="M17.95,71.45h-0.68c-0.14,0-0.26,0.12-0.26,0.26l-0.04,1.17c0,0.14,0.03,0.26,0.17,0.26h0.96
			c0.14,0,0.17-0.12,0.17-0.26l-0.07-1.17C18.21,71.57,18.09,71.45,17.95,71.45z"/>
		<path class="st8" d="M19.57,71.45c-0.12,0-0.22,0.1-0.22,0.22l-0.34,1.25c0,0.12,0.1,0.22,0.22,0.22H20
			c0.12,0,0.53-0.21,0.53-0.33l0.12-0.94c0-0.12,0.06-0.41-0.22-0.41H19.57z"/>
		<path class="st8" d="M43.9,69.66c-0.03-0.27-0.27-0.22-0.72-0.22s-0.98-0.08-0.98,0.28c0,0.36-0.66,3-1.33,3.57
			c-0.66,0.57-0.59,1.18,0.08,0.96c0.66-0.21,0.77-0.34,0.77-0.34s-0.59,4.83-1.68,5.36c0,0-0.16,0.3,0.4,0.3c0.56,0,1.01,0,1.01,0
			s1.17-0.3,1.52-2.21C43.31,75.46,43.92,69.94,43.9,69.66z"/>
		<path class="st8" d="M47.59,69.66c-0.03-0.27-0.27-0.22-0.72-0.22c-0.45,0-0.98-0.08-0.98,0.28c0,0.36-0.66,3-1.33,3.57
			c-0.66,0.57-0.59,1.18,0.08,0.96c0.66-0.21,0.77-0.34,0.77-0.34s-0.59,4.83-1.68,5.36c0,0-0.16,0.3,0.4,0.3c0.56,0,1.01,0,1.01,0
			s1.17-0.3,1.52-2.21C47.01,75.46,47.62,69.94,47.59,69.66z"/>
		<path class="st8" d="M50.47,69.45c-0.45,0-0.98-0.08-0.98,0.28c0,0.36-0.66,3-1.33,3.57c-0.66,0.57-0.59,1.18,0.08,0.96
			C48.9,74.05,49,73.92,49,73.92s-0.59,4.83-1.68,5.36c0,0-0.16,0.3,0.4,0.3c0.56,0,1.01,0,1.01,0s1.17-0.3,1.52-2.21
			c0.35-1.91,0.96-7.43,0.93-7.71C51.16,69.39,50.92,69.45,50.47,69.45z"/>
		<path class="st8" d="M38.35,73.29h-4.02c0.02-0.25,0.04-0.59,0.06-0.99c1.69,0,3.11,0,3.11,0s0.55,0,0.56-0.52
			c0.01-0.52,0.03-1.94-0.08-2.09c-0.11-0.15-0.52-0.11-0.7-0.12c-0.07-0.01-1.3-0.02-2.77-0.03c0-0.17-0.01-0.29-0.03-0.31
			c-0.13-0.16-0.78-0.05-1.12-0.07c-0.33-0.01-0.41,0.01-0.55,0.21c-0.01,0.02-0.03,0.08-0.05,0.15c-1.82-0.02-3.5-0.03-3.5-0.03
			s-0.32,0.04-0.4,0.29c-0.08,0.25-0.35,2.08-0.35,2.08s-0.16,0.42,0.48,0.44c0.25,0.01,1.65,0.01,3.24,0.01
			c-0.07,0.41-0.14,0.76-0.18,0.98h-4.29c-0.12,0-0.22,0.1-0.22,0.22v0.12c0,0.12,0.1,0.22,0.22,0.22h10.59
			c0.12,0,0.22-0.1,0.22-0.22v-0.12C38.56,73.39,38.47,73.29,38.35,73.29z M37.05,70.45c0.13,0.08,0.08,0.44,0,0.72
			c-0.08,0.28-0.48,0.23-0.48,0.23s-0.95,0-2.13,0.01c0.02-0.34,0.03-0.68,0.05-0.98C35.78,70.42,36.99,70.42,37.05,70.45z
			 M30.11,71.41c-0.59-0.02-0.24-0.63-0.2-0.83c0.04-0.19,1.28-0.11,1.37-0.11c0,0,0.54-0.01,1.29-0.02
			c-0.06,0.3-0.12,0.63-0.18,0.97C31.28,71.42,30.32,71.42,30.11,71.41z"/>
		<path class="st8" d="M77.96,75.7H67.37c-0.12,0-0.22,0.1-0.22,0.22v0.12c0,0.12,0.1,0.22,0.22,0.22h4.01
			c-0.14,0.63-0.31,2.15-0.39,2.78h-3.98c-0.12,0-0.22,0.1-0.22,0.22v0.12c0,0.12,0.1,0.22,0.22,0.22H77.6
			c0.12,0,0.22-0.1,0.22-0.22v-0.12c0-0.12-0.1-0.22-0.22-0.22h-3.94c0-0.63,0.01-2.15,0-2.78h4.3c0.12,0,0.22-0.1,0.22-0.22v-0.12
			C78.18,75.8,78.08,75.7,77.96,75.7z"/>
		<path class="st8" d="M65.15,70.38h-1.1c0-0.2,0-0.51,0-0.67c0-0.24-0.19-0.2-0.19-0.2s-1.1,0-1.5,0c-0.27,0-0.8,0.53-1.11,0.87h-1
			c-0.12,0-0.22,0.1-0.22,0.22v0.12c0,0.12,0.1,0.22,0.22,0.22h4.9c0.12,0,0.22-0.1,0.22-0.22V70.6
			C65.37,70.48,65.28,70.38,65.15,70.38z"/>
		<path class="st8" d="M36.28,79.18c-0.48-0.2-3.11-2.1-3.11-2.93h-1.34c0,0-2.47,2.75-3.64,3.05c0,0-0.29,0.29,0,0.29
			c0.29,0,1.41,0,1.46,0c0.05,0,1.04-0.06,1.85-0.88c0.81-0.82,0.88-0.9,0.88-0.9s1.41,1.79,2.41,1.79c1,0,1.68,0,1.68,0
			S36.76,79.38,36.28,79.18z"/>
		<path class="st8" d="M36.96,74.79c-0.48,0-8.7,0-8.7,0s-0.21,0.04-0.21,0.27c0,0.23-0.49,2.86-0.64,3.19c0,0-0.2,0.39,0.43,0.16
			c0.63-0.23,2.01-1.18,2.01-3.11h5.68c0,0-0.12,2.65,1.41,3.06c0,0,0.36,0.11,0.33-0.11c-0.03-0.21,0.03-2.83,0.07-3.31
			C37.33,74.94,37.43,74.79,36.96,74.79z"/>
		<path class="st8" d="M69.77,74.64c0,0,0.56,0.04,1.37-0.85c0.81-0.89,1.52-1.57,1.41-1.72c-0.11-0.15-1.37-0.17-1.56-0.15
			c-0.19,0.03-0.48,0.28-0.6,0.44c-0.12,0.16-2.11,1.86-2.26,1.94c0,0-0.27,0.33,0.23,0.33S69.77,74.64,69.77,74.64z"/>
		<path class="st8" d="M76.1,74.64c0.61,0,1.13,0,1.13,0s0.78,0,0.44-0.43c-0.35-0.43-1.57-1.61-1.86-1.88
			c-0.29-0.27-0.37-0.42-1.02-0.42h-0.59c0,0-0.52,0.02-0.28,0.46c0.24,0.44,1.18,1.61,1.18,1.61S75.49,74.64,76.1,74.64z"/>
		<path class="st8" d="M78.76,70.71c0,0,0.05-0.32-0.24-0.32c-0.12,0-1.96,0-4.04,0c0-0.2,0-0.52,0-0.68c0-0.24-0.19-0.2-0.19-0.2
			s-1.1,0-1.5,0c-0.28,0-0.81,0.54-1.12,0.88c-1.86,0-3.37,0-3.37,0s-0.52-0.01-0.52,0.39s-0.09,1.25-0.15,1.34
			c-0.05,0.09-0.15,0.28,0.33,0.28s1.76-0.27,1.76-1.42h7.1c0,0,0.03,1.42,0.86,1.42c0.84,0,1.13,0,1.13,0s0.09,0,0.09-0.21
			C78.91,71.97,78.76,71.4,78.76,70.71z"/>
		<path class="st8" d="M64.4,71.92c-0.44,0-3.75,0-3.75,0s-0.33,0.05-0.39,0.47c-0.05,0.43-0.31,5.73-0.92,6.72
			c-0.04,0.07-0.29,0.32-0.07,0.4c0.23,0.08,0.82,0.05,0.98,0.07s0.69-0.3,0.89-1.8c0.2-1.5,0.41-4.69,0.56-4.85
			c0.15-0.16,1.26-0.09,1.26-0.09s-1.02,5.87-1.04,6.2c-0.01,0.33-0.01,0.53,0.66,0.55c0.68,0.02,1.8,0,1.8,0s0.11-0.01,0.08-0.46
			c-0.03-0.45,0.11-0.4-0.03-0.45c-0.13-0.05-0.84,0.12-0.88-0.05c-0.04-0.17,0.92-4.89,0.94-5.61
			C64.53,72.29,64.84,71.93,64.4,71.92z"/>
		<path class="st8" d="M59.34,70.66V70.6c0-0.12-0.1-0.22-0.22-0.22h-1.98c0-0.2,0-0.51,0-0.67c0-0.24-0.19-0.2-0.19-0.2
			s-1.1,0-1.5,0c-0.54,0-0.97,0.4-1.21,0.7l0,0c0,0-0.09,0.06-0.16,0.22c-0.02,0.03-0.04,0.05-0.04,0.07c0,0.01-0.01,0.01-0.01,0.02
			l0,0h0C54.01,70.54,54,70.57,54,70.6v0.12c0,0,0,0.01,0,0.01c-0.01,0.08-0.01,0.18,0,0.29c0.02,0.19-0.03,1.65-0.14,3.29h-0.74
			c-0.12,0-0.22,0.1-0.22,0.22v0.12c0,0.12,0.1,0.22,0.22,0.22h0.7c-0.14,1.85-0.36,3.77-0.66,4.26c-0.04,0.07-0.29,0.32-0.07,0.4
			c0.23,0.08,0.82,0.05,0.98,0.07c0.16,0.02,0.69-0.3,0.89-1.8c0.08-0.59,0.21-1.74,0.36-2.93h1.95c-0.03,0.69-0.14,1.41-0.4,1.4
			c-0.45-0.01-0.89-0.2-0.77,0.31c0.12,0.51,0.73,0.78,0.68,1.73c-0.05,0.94-0.45,1.17-0.37,1.37c0.08,0.2,0.89,0.13,1.34,0
			c0.45-0.13,0.65-2.09,0.69-3.34s0.39-3.67,0.65-4.4C59.38,71.19,59.34,70.66,59.34,70.66z M55.9,70.93h1.5
			c0.23,0,0.31,0.12,0.31,0.6c0,0.48-0.19,0.78-0.74,0.81s-0.6,0.24-0.41,0.47c0.19,0.23,0.61,0.48,0.69,0.85
			c0.02,0.1,0.04,0.35,0.04,0.64h-1.9C55.61,72.62,55.82,71.02,55.9,70.93z"/>
	</g>
</g>
</svg>
