<?xml version="1.0" encoding="utf-8"?>
<!-- Generator: Adobe Illustrator 25.4.1, SVG Export Plug-In . SVG Version: 6.00 Build 0)  -->
<svg version="1.1" id="Layer_1" xmlns="http://www.w3.org/2000/svg" xmlns:xlink="http://www.w3.org/1999/xlink" x="0px" y="0px"
	 viewBox="0 0 110.4 80" style="enable-background:new 0 0 110.4 80;" xml:space="preserve">
<style type="text/css">
	.st0{fill:url(#SVGID_1_);}
	.st1{fill:#FE439F;}
	.st2{fill:url(#SVGID_00000080925799767218667350000013211463905073995658_);}
	.st3{fill:#FE319B;}
	.st4{fill:url(#SVGID_00000005963274431155500590000009683135348924734882_);}
</style>
<g>
	<radialGradient id="SVGID_1_" cx="37.1771" cy="29.1318" r="33.3976" gradientUnits="userSpaceOnUse">
		<stop  offset="0" style="stop-color:#006FBD"/>
		<stop  offset="0.2701" style="stop-color:#0073C0"/>
		<stop  offset="0.5502" style="stop-color:#0080CA"/>
		<stop  offset="0.834" style="stop-color:#0094DB"/>
		<stop  offset="1" style="stop-color:#00A4E7"/>
	</radialGradient>
	<path class="st0" d="M0,40.7c0,0,14.5,2.1,24-1.4c0,0-9.2,11.1,5.7,19c0,0,12.3-8.1,17-18.4c0,0,9.1,8.9,27.6-6.2
		c0,0-0.8-8.6-14.9-12.3c0,0,15.6-6,14.4-20.7c0,0-11.3-5-28.2,12.4c0,0-6.5-16.3-22.9-8.5c0,0-5.2,10,4.2,17.9
		C26.9,22.4,6.9,27.7,0,40.7z"/>
	<path class="st1" d="M47.2,22c0,0,8.7-9.6,10.1-15.4c0,0,7-4.6,12.9-4.6C70.2,1.9,74.4,17.9,47.2,22z"/>
	<path class="st1" d="M43.2,22.3c0,0,6.8-4.8,8.3-11.1C51.5,11.2,45.1,16.3,43.2,22.3z"/>
	<path class="st1" d="M41.4,19.6c0,0-5.4-8-16.9-8.3c0.1-0.3,0.4-3.4,1.2-4.7c0.5-0.2,8.3-2.8,13.4,2S43.8,18.1,41.4,19.6z"/>
	<path class="st1" d="M25.4,14.7c0,0,1,7.9,13.5,9.5C39,24.1,39.4,15.6,25.4,14.7z"/>
	<path class="st1" d="M44.7,25.3c0,0,3.8,3.2,19.7,1.3C64.3,26.6,60.4,21.9,44.7,25.3z"/>
	<path class="st1" d="M34.5,26.7c0,0-13.2,4.2-18.1,10c0,0-2.3,4-12.2,2.4c0,0,3.5-5.5,11.3-9.4s14-5.8,16.5-4.8
		C34.4,25.7,34.5,26.7,34.5,26.7z"/>
	<path class="st1" d="M35.2,28.7c0,0-10.8,4.2-15.6,9.1C19.5,37.9,29.8,34.7,35.2,28.7z"/>
	<path class="st1" d="M37.7,30.6c0,0-1.1,7.8,0.6,16.6c0,0-3.9,6.6-9.3,8c0,0-7.9-4.2-3.9-12.3S37.7,30.6,37.7,30.6z"/>
	<path class="st1" d="M41.7,27.7c0,0-2.3,9.1-0.3,16c0,0,3.2-2.5,3.2-9S41.7,27.7,41.7,27.7z"/>
	<path class="st1" d="M47.2,29.1c0,0-1.2,6.9,2.1,8.7s7.7,2.5,12.6,0.7s9-5,9-5s-1.7-4.1-3.4-4.4S54.9,32.1,47.2,29.1z"/>
	
		<radialGradient id="SVGID_00000170969813303557947590000003193231660452784284_" cx="48.3766" cy="63.7592" r="19.8684" gradientUnits="userSpaceOnUse">
		<stop  offset="0" style="stop-color:#006FBD"/>
		<stop  offset="0.2701" style="stop-color:#0073C0"/>
		<stop  offset="0.5502" style="stop-color:#0080CA"/>
		<stop  offset="0.834" style="stop-color:#0094DB"/>
		<stop  offset="1" style="stop-color:#00A4E7"/>
	</radialGradient>
	<path style="fill:url(#SVGID_00000170969813303557947590000003193231660452784284_);" d="M43.2,47.6c0,0-3.8,4.8-0.6,11.3
		c0,0-14.1,0-17.2,5.4c0,0,2.4,2.9,12.9,3.7c0,0-6.6,4.3-0.4,12.1c0,0,6.8-1.3,12.3-7.5c0,0,2.6,7.4,16.1,1.4c0,0,0.3-5.5-6.2-9.6
		c0,0,10.1-2.3,11.2-9.1c0,0-4.8-5.8-17.2,1.8C54.1,56.9,53.9,46.5,43.2,47.6z"/>
	<path class="st3" d="M43.2,51.7c0,0,6.4,2.9,7.6,8.3c0,0,3.2-2.7,0-7.9c0,0-1.6-2.4-5.6-2.8C45.2,49.4,43.5,50.5,43.2,51.7z"/>
	<path class="st3" d="M43.2,54.2c0,0-0.1,5.4,5.6,8C48.8,62.2,50.2,56.6,43.2,54.2z"/>
	<path class="st3" d="M53.5,62.5c0,0,5.1-3.6,8.2-7.4c0,0,3.2-0.8,7.5,0C69.1,55.1,67.9,64.8,53.5,62.5z"/>
	<path class="st3" d="M51.5,61.7c-0.2,0,1.5-2.8,5.8-4.7C57.3,57,55.4,60.5,51.5,61.7z"/>
	<path class="st3" d="M51.7,63.8c0,0,6.2,0.6,9.9,4.1C61.6,67.9,55,67.1,51.7,63.8z"/>
	<path class="st3" d="M52.4,66.5c0,0,3.1,2.6,10.2,3.4c0,0,1.6,1,1.6,3.3c0,0-9.3,4.4-13.1-2.6C51.2,70.6,51.5,67.6,52.4,66.5z"/>
	<path class="st3" d="M49.6,64.8c0,0,1.9,5.9-2.6,8.7C47.1,73.5,47.3,67.9,49.6,64.8z"/>
	<path class="st3" d="M47.1,65.5c0,0-2.6,5.3-2.4,9.7c0,0-3.6,2.7-6.2,2.9c0,0-2.9-2.3-1.3-6.6C38.9,67.2,47.1,65.5,47.1,65.5z"/>
	<path class="st3" d="M36.4,66.1c0,0,5.8,0.8,9.4-2.1C45.8,64.1,40.5,63.8,36.4,66.1z"/>
	<path class="st3" d="M33.7,65.7c0,0,4.3-3.2,12.4-3c0,0-1.4-2.1-3.4-2.4c0,0-9.9-0.6-15,3.8C27.6,64.1,29.3,66,33.7,65.7z"/>
	
		<radialGradient id="SVGID_00000011028453745609272120000004014320157916787088_" cx="85.8464" cy="44.3121" r="23.5759" gradientUnits="userSpaceOnUse">
		<stop  offset="0" style="stop-color:#006FBD"/>
		<stop  offset="0.2701" style="stop-color:#0073C0"/>
		<stop  offset="0.5502" style="stop-color:#0080CA"/>
		<stop  offset="0.834" style="stop-color:#0094DB"/>
		<stop  offset="1" style="stop-color:#00A4E7"/>
	</radialGradient>
	<path style="fill:url(#SVGID_00000011028453745609272120000004014320157916787088_);" d="M61.3,46.9c0,0,3.5,5.2,14.2,4
		c0,0-8.3,6.2-3.7,16c0,0,8.8,1.8,15.6-13.8c0,0,8.9,8.7,18.6,0c0,0,0.5-7.4-8.5-9.9c0,0,13.7-10.3,12.7-17.3c0,0-8.4,0.9-16.3,6.4
		c0,0,3.2-8.9-9.4-10.5c0,0-6.6,7.2-6,15C78.6,36.8,69.4,32.8,61.3,46.9z"/>
	<path class="st3" d="M63.5,46c0,0,2.7,2.3,4.1,2.1c0,0,9.1-4.6,13.7-4.6c0,0-1.2-4-3.1-4.5C76.3,38.4,70,37.5,63.5,46z"/>
	<path class="st3" d="M80.6,33.3c0,0-2,7.4,4.9,10.1C85.6,43.3,84.3,36.1,80.6,33.3z"/>
	<path class="st3" d="M81.7,30.6c0,0,5.1,6.4,5.6,9.9c0,0,4.2-5.7,4.9-8c0.7-2.3,0.3-7.9-6.3-9.1C85.8,23.4,82.3,26.6,81.7,30.6z"/>
	<path class="st3" d="M89.9,41c0,0,2.8-6.2,7.8-8.6C97.6,32.4,93.7,38.8,89.9,41z"/>
	<path class="st3" d="M91.1,42.2c0,0,8.2-6,9.3-10.7c0,0,3-3.4,7.5-3.8C107.9,27.7,100.6,44.3,91.1,42.2z"/>
	<path class="st3" d="M70.4,48.9c0,0,6.7-4,13.8-3.6C84.2,45.3,79.1,48.6,70.4,48.9z"/>
	<path class="st3" d="M83.6,47.8c0,0-2.1,5.5-2.3,11.9c0,0-3.7,4.3-7.4,5.1c0,0-3.3-4.6,0.5-10.1C78.1,49.3,83.6,47.8,83.6,47.8z"/>
	<path class="st3" d="M86.2,47.1c0,0-2.8,2.6-2.1,8.1C84.2,55.1,86.4,51.8,86.2,47.1z"/>
	<path class="st3" d="M88.3,44.6c0,0,2.1,5.2,12.6,2.9C100.9,47.5,98.7,42.8,88.3,44.6z"/>
	<path class="st3" d="M88.3,48.1c0,0,6.8,3.9,14.4,1.3c0,0,0.7,1.5,0.6,2.9c0,0-8.2,7-15.4-2.6C87.9,49.7,87.9,48.8,88.3,48.1z"/>
</g>
</svg>
