<?xml version="1.0" encoding="utf-8"?>
<!-- Generator: Adobe Illustrator 25.4.1, SVG Export Plug-In . SVG Version: 6.00 Build 0)  -->
<svg version="1.1" id="Layer_1" xmlns="http://www.w3.org/2000/svg" xmlns:xlink="http://www.w3.org/1999/xlink" x="0px" y="0px"
	 viewBox="0 0 387.7 80" style="enable-background:new 0 0 387.7 80;" xml:space="preserve">
<style type="text/css">
	.st0{fill:url(#SVGID_1_);}
	.st1{fill:url(#SVGID_00000129918636534331118800000005212558442310344895_);}
	.st2{fill:url(#SVGID_00000171686182942068017540000001651905053603032207_);}
	.st3{fill:url(#SVGID_00000108992451694542229420000017084966213391941037_);}
	.st4{fill:url(#SVGID_00000111171755244194463570000009535063645021204356_);}
	.st5{fill:url(#SVGID_00000142134561501563901260000003007462347261709471_);}
	.st6{fill:url(#SVGID_00000181792299341840061480000004406234478635696022_);}
	.st7{fill:url(#SVGID_00000025434620152888574150000001510537279380785815_);}
	.st8{fill:url(#SVGID_00000136377423247889875990000009720728779602186885_);}
	.st9{fill:url(#SVGID_00000137108119371694831330000003049237997999290291_);}
	.st10{fill:url(#SVGID_00000139984565452632451630000015436769894785005233_);}
	.st11{fill:url(#SVGID_00000066514401034384366790000004702573263691325110_);}
	.st12{fill:url(#SVGID_00000075845400025147073660000000451364322320131227_);}
	.st13{fill:url(#SVGID_00000020374179281264122960000004450680976490819769_);}
	.st14{fill:#FE439F;}
	.st15{fill:url(#SVGID_00000047762959698171284160000013058932859436566439_);}
	.st16{fill:#FE319B;}
	.st17{fill:url(#SVGID_00000080170807475951516610000017276142444409627303_);}
</style>
<g>
	<g>
		<linearGradient id="SVGID_1_" gradientUnits="userSpaceOnUse" x1="18.8258" y1="38.4872" x2="18.8258" y2="77.5346">
			<stop  offset="1.476039e-06" style="stop-color:#00A6E9"/>
			<stop  offset="0.9992" style="stop-color:#006FBD"/>
		</linearGradient>
		<path class="st0" d="M36.4,68.4c-0.8,0-3-0.5-4.2-3.8c-1.5-4.1-9-25.7-9-25.7s-0.4-1.8-2.8-1.5c-2.4,0.4-4.8,1.1-5.4,2.7
			C14.5,41.7,4.9,65.6,4.9,65.6s-1.3,2.8-3.2,2.8H0v1.8h11.4v-1.8H8.4c-0.7-0.1-1.8-0.5-0.9-2.9c0.5-1.4,2.1-5.4,3.8-9.6
			c2,0,7.4,0,9.7,0l4.5,12.6c0,0,0.5,1.8,1.8,1.8h10.2v-1.8H36.4z M12.2,53.8c2.2-5.4,4.3-10.7,4.3-10.7l3.8,10.7H12.2z"/>
		
			<linearGradient id="SVGID_00000068662933710675248140000003793064214472489398_" gradientUnits="userSpaceOnUse" x1="44.5276" y1="38.4872" x2="44.5276" y2="77.5346">
			<stop  offset="1.476039e-06" style="stop-color:#00A6E9"/>
			<stop  offset="0.9992" style="stop-color:#006FBD"/>
		</linearGradient>
		<path style="fill:url(#SVGID_00000068662933710675248140000003793064214472489398_);" d="M48.4,66c0,0,0-16.7,0-17.5
			c0-0.9,0.1-1.9-0.5-2.2s-2,0.3-3.7,0.9c-1.7,0.6-7.2,0.7-7.2,0.7l-0.1,2c0,0,0.9,0,2.2,0c0.1,0,0.1,0,0.2,0c1.6,0,1.7,1.9,1.7,1.9
			s0,11.4,0,14.7c0,3.3,2.5,3.7,2.5,3.7h8.6v-2.5c0,0-1,0-2.4,0S48.4,66,48.4,66z"/>
		
			<linearGradient id="SVGID_00000095333078843639173050000013302974957294436264_" gradientUnits="userSpaceOnUse" x1="44.2812" y1="38.4872" x2="44.2812" y2="77.5346">
			<stop  offset="1.476039e-06" style="stop-color:#00A6E9"/>
			<stop  offset="0.9992" style="stop-color:#006FBD"/>
		</linearGradient>
		<path style="fill:url(#SVGID_00000095333078843639173050000013302974957294436264_);" d="M42,44c1.6,0.9,4,0,5.2-2.2
			c1.2-2.2,0.9-4.7-0.7-5.6s-4,0-5.2,2.2C40.1,40.6,40.4,43.1,42,44z"/>
		
			<linearGradient id="SVGID_00000096769399065745228170000014733971186311641257_" gradientUnits="userSpaceOnUse" x1="62.71" y1="38.4872" x2="62.71" y2="77.5346">
			<stop  offset="1.476039e-06" style="stop-color:#00A6E9"/>
			<stop  offset="0.9992" style="stop-color:#006FBD"/>
		</linearGradient>
		<path style="fill:url(#SVGID_00000096769399065745228170000014733971186311641257_);" d="M71.6,46.2c-2.4,0-6.2,4.3-7,5.1
			c-0.8,0.8-1-0.3-1-0.3s0-2.8,0-3.8s-1.2-1.2-2.8-0.4c-1.6,0.8-7.5,1.1-7.5,1.1h-1.1l-0.1,2c0,0,1,0,2.3,0l0,0c0,0,0,0,0,0
			c0,0,0.1,0,0.1,0c0.4,0,1.6,0.2,1.6,1.6v17.1c0,0.9,0.8,1.7,1.7,1.7h3.9c0.9,0,1.7-0.8,1.7-1.7v-9c0,0,0-2.5,0.6-4
			c0.6-1.5,1.9-2.9,3.6-3.1c1.7-0.2,1.1,1,2.8,1c1.6,0,2.7-2.7,2.7-3.8C73.1,48.7,74,46.2,71.6,46.2z"/>
		
			<linearGradient id="SVGID_00000150083968561513597830000008085732454526764707_" gradientUnits="userSpaceOnUse" x1="149.4577" y1="38.4872" x2="149.4577" y2="77.5346">
			<stop  offset="1.476039e-06" style="stop-color:#00A6E9"/>
			<stop  offset="0.9992" style="stop-color:#006FBD"/>
		</linearGradient>
		<path style="fill:url(#SVGID_00000150083968561513597830000008085732454526764707_);" d="M158.4,46.2c-2.4,0-6.2,4.3-7,5.1
			c-0.8,0.8-1-0.3-1-0.3s0-2.8,0-3.8s-1.2-1.2-2.8-0.4c-1.6,0.8-7.5,1.1-7.5,1.1H139l-0.1,2c0,0,1,0,2.3,0l0,0c0,0,0,0,0,0
			c0,0,0.1,0,0.1,0c0.4,0,1.6,0.2,1.6,1.6v17.1c0,0.9,0.8,1.7,1.7,1.7h3.9c0.9,0,1.7-0.8,1.7-1.7v-9c0,0,0-2.5,0.6-4
			c0.6-1.5,1.9-2.9,3.6-3.1c1.7-0.2,1.1,1,2.8,1c1.6,0,2.7-2.7,2.7-3.8C159.8,48.7,160.7,46.2,158.4,46.2z"/>
		
			<linearGradient id="SVGID_00000005242947318118630690000009498382016061553554_" gradientUnits="userSpaceOnUse" x1="95.8903" y1="38.4872" x2="95.8903" y2="77.5346">
			<stop  offset="1.476039e-06" style="stop-color:#00A6E9"/>
			<stop  offset="0.9992" style="stop-color:#006FBD"/>
		</linearGradient>
		<path style="fill:url(#SVGID_00000005242947318118630690000009498382016061553554_);" d="M106,65.6c-2.1-3.3-7.4-12-7.4-12
			s7.9-1.7,7.9-7.6s-5.6-8.2-12.5-8.2h-5.1h-3.9h-5.8v1.8h0.5H80c3.2,0,3.3,3.5,3.3,3.5v23c0,2-2,2.2-2.5,2.2h-1.6v1.8h5.8h3.9h5.1
			v-1.8h-1.2c-1.8,0-2.2-2.4-2.2-2.4V54c0,0,1.4,0,1.4,0l7.2,13.6c0,0,1.4,2.7,4.5,2.7s9,0,9,0v-1.6h-1.6
			C111.1,68.7,108.1,68.9,106,65.6z M93.3,52c-2.4,0-2.8-0.1-2.8-1v-9.3c0.1-0.3,0.5-1,1.8-1c1.7,0,5.5,1,5.5,5.4
			C97.8,50.7,95.7,52,93.3,52z"/>
		
			<linearGradient id="SVGID_00000178176204804842477120000002850944809059443077_" gradientUnits="userSpaceOnUse" x1="125.7141" y1="38.4872" x2="125.7141" y2="77.5346">
			<stop  offset="1.476039e-06" style="stop-color:#00A6E9"/>
			<stop  offset="0.9992" style="stop-color:#006FBD"/>
		</linearGradient>
		<path style="fill:url(#SVGID_00000178176204804842477120000002850944809059443077_);" d="M133.6,67.2V51c0,0,0.2-1.5,1.3-1.5
			c1.2,0,1.2-0.2,1.2-0.2v-1.3c0,0-3.2-1.4-8.1-1.4c-4.9,0-14.3,2.5-14.3,14.3s7,9.9,8,9.2c0.8-0.5,3.3-3.1,4.6-4.6v3.1
			c0,0.9,0.8,1.7,1.7,1.7h2.6h1.3h5.8v-2.5h-3.1C134.7,67.7,133.9,67.8,133.6,67.2z M122.1,64.8c-2.3-0.4-2.2-3.7-2.2-7
			s1.6-7.5,4.4-7.5c1.4,0,1.9,0.9,2.1,1.8v9.3C126.3,61.5,124.4,65.2,122.1,64.8z"/>
		
			<linearGradient id="SVGID_00000086687270374941549540000000088708584577126046_" gradientUnits="userSpaceOnUse" x1="267.0705" y1="38.4872" x2="267.0705" y2="77.5346">
			<stop  offset="1.476039e-06" style="stop-color:#00A6E9"/>
			<stop  offset="0.9992" style="stop-color:#006FBD"/>
		</linearGradient>
		<path style="fill:url(#SVGID_00000086687270374941549540000000088708584577126046_);" d="M255.9,60.8c0,11.9,7,9.9,8,9.2
			c0.9-0.6,4.3-4.2,5.3-5.2V68v0.5c0,1,0,3.2,0,3.2s-0.3,4.4-3.7,5c-3.4,0.6-6-0.6-7.8-2.6c-1.8-2-1.3,0.3-1.3,1.1
			c0,0.8,0.1,3.5,0.1,3.5s1.7,1.6,6.3,1.3c4.6-0.3,9.5-3.2,10.9-5c1.4-1.8,2.2-4.1,2.2-6.4V51c0,0,0.2-1.5,1.3-1.5
			c1.2,0,1.2-0.2,1.2-0.2v-1.3c0,0-3.2-1.4-8.1-1.4C265.3,46.4,255.9,48.9,255.9,60.8z M264.3,64.8c-2.2-0.7-2.2-3.7-2.2-7
			s1.6-7.5,4.4-7.5c2.6,0,2.7,3.2,2.7,3.6v5.7C269.1,59.6,267.8,66,264.3,64.8z"/>
		
			<linearGradient id="SVGID_00000003088832691202104380000009831266954891231106_" gradientUnits="userSpaceOnUse" x1="292.7019" y1="38.4872" x2="292.7019" y2="77.5346">
			<stop  offset="1.476039e-06" style="stop-color:#00A6E9"/>
			<stop  offset="0.9992" style="stop-color:#006FBD"/>
		</linearGradient>
		<path style="fill:url(#SVGID_00000003088832691202104380000009831266954891231106_);" d="M301.7,67.7c0,0-0.7,0-1.1-0.5V51
			c0,0,0.2-1.5,1.3-1.5c1.2,0,1.2-0.2,1.2-0.2v-1.3c0,0-3.2-1.4-8.1-1.4c-4.9,0-14.3,2.5-14.3,14.3s7,9.9,8,9.2
			c0.8-0.5,3.3-3.1,4.6-4.6v3.1c0,0.9,0.8,1.7,1.7,1.7h2.6h1.3h5.8v-2.5H301.7z M289.1,64.8c-2.3-0.4-2.2-3.7-2.2-7s1.6-7.5,4.4-7.5
			c1.4,0,1.9,0.9,2.1,1.8v9.3C293.3,61.5,291.4,65.2,289.1,64.8z"/>
		
			<linearGradient id="SVGID_00000071558478879710212450000012099374374401507986_" gradientUnits="userSpaceOnUse" x1="240.3716" y1="38.4872" x2="240.3716" y2="77.5346">
			<stop  offset="1.476039e-06" style="stop-color:#00A6E9"/>
			<stop  offset="0.9992" style="stop-color:#006FBD"/>
		</linearGradient>
		<path style="fill:url(#SVGID_00000071558478879710212450000012099374374401507986_);" d="M253.6,68.2c-1.3,0-2.1,0-2.1,0
			s-1.2,0.1-1.2-1.2V51.2c0,0,0.6-4.5-3.7-4.5c-3.5,0-7.7,3.2-9.2,4.4v-0.6c0-0.1,0-0.2,0-0.3c0-0.1,0-0.2,0-0.3l0,0v0
			c0-0.9,0-2.1,0-2.7c0-1.1-1.2-1.2-2.8-0.4c-1.6,0.8-7.5,1.1-7.5,1.1h-1.1l-0.1,2c0.1,0,1.4,0,3.1,0c0,0,1.1,0,1.1,1.8v16.8
			c0,0.9,0.8,1.7,1.7,1.7h3.9c0.9,0,1.7-0.8,1.7-1.7V55.9c0,0,2.1-4.6,4.4-4.6c1.2,0,1.7,1.3,1.8,2.6v14.7c0,0.9,0.8,1.7,1.7,1.7
			h1.7h1.7h5.6c0,0,0.6,0,0.6-0.6c0-0.7,0-1,0-1S254.9,68.2,253.6,68.2z"/>
		
			<linearGradient id="SVGID_00000013871396985943675360000010533904907142062481_" gradientUnits="userSpaceOnUse" x1="192.6523" y1="38.4872" x2="192.6523" y2="77.5346">
			<stop  offset="1.476039e-06" style="stop-color:#00A6E9"/>
			<stop  offset="0.9992" style="stop-color:#006FBD"/>
		</linearGradient>
		<path style="fill:url(#SVGID_00000013871396985943675360000010533904907142062481_);" d="M201.3,66.5c-0.4-0.3-0.7,0.1-0.7,0.1
			s-0.6,1.2-3,1.2c-2.2,0-2.3-2.3-2.3-2.7V49.6h5.3c0.6,0,1-0.5,1-1v-0.7c0-0.6-0.5-1-1-1h-5.3v-4.1c0-2.8-0.8-3.1-1.7-3.1l-3.9,1.1
			c-1,0.5-1.7,1-1.7,2v4.1h-4c-0.6,0-1,0.5-1,1v0.7c0,0.6,0.5,1,1,1h4v16.2c0,0,0,0.1,0,0.1c0.1,2.9,2.7,4.5,6.2,4.5
			c3.6,0,6.2-1.4,7.1-2c0.9-0.6,0.7-1,0.7-1S201.7,66.8,201.3,66.5z"/>
		
			<linearGradient id="SVGID_00000083809275716405318510000008145004483188951217_" gradientUnits="userSpaceOnUse" x1="171.6748" y1="38.4872" x2="171.6748" y2="77.5346">
			<stop  offset="1.476039e-06" style="stop-color:#00A6E9"/>
			<stop  offset="0.9992" style="stop-color:#006FBD"/>
		</linearGradient>
		<path style="fill:url(#SVGID_00000083809275716405318510000008145004483188951217_);" d="M172.1,46.4c-5.5,0.3-10.1,5.6-10.7,12.2
			c-0.8,9.2,5.2,11.8,10.7,11.8c5.5,0,10-5.4,10-12C182,51.8,180.3,45.9,172.1,46.4z M171.8,67.3c-1.8,0-3.7-1.9-3.5-8.7
			c0.2-4.9,1.7-8.7,3.5-9c2.7-0.4,3.2,4,3.2,8.8S173.6,67.3,171.8,67.3z"/>
		
			<linearGradient id="SVGID_00000064355682756338997830000018040654031814779548_" gradientUnits="userSpaceOnUse" x1="214.6495" y1="38.4872" x2="214.6495" y2="77.5346">
			<stop  offset="1.476039e-06" style="stop-color:#00A6E9"/>
			<stop  offset="0.9992" style="stop-color:#006FBD"/>
		</linearGradient>
		<path style="fill:url(#SVGID_00000064355682756338997830000018040654031814779548_);" d="M215,46.4c-5.5,0.3-10.1,5.6-10.7,12.2
			c-0.8,9.2,5.2,11.8,10.7,11.8c5.5,0,10-5.4,10-12C225,51.8,223.3,45.9,215,46.4z M214.8,67.3c-1.8,0-3.7-1.9-3.5-8.7
			c0.2-4.9,1.7-8.7,3.5-9c2.7-0.4,3.2,4,3.2,8.8S216.6,67.3,214.8,67.3z"/>
	</g>
	
		<radialGradient id="SVGID_00000129168784751076913060000014623617871344470424_" cx="319.9142" cy="26.988" r="30.9399" gradientUnits="userSpaceOnUse">
		<stop  offset="0" style="stop-color:#006FBD"/>
		<stop  offset="0.2701" style="stop-color:#0073C0"/>
		<stop  offset="0.5502" style="stop-color:#0080CA"/>
		<stop  offset="0.834" style="stop-color:#0094DB"/>
		<stop  offset="1" style="stop-color:#00A4E7"/>
	</radialGradient>
	<path style="fill:url(#SVGID_00000129168784751076913060000014623617871344470424_);" d="M285.5,37.7c0,0,13.4,2,22.2-1.3
		c0,0-8.5,10.3,5.3,17.6c0,0,11.4-7.5,15.8-17c0,0,8.4,8.2,25.6-5.7c0,0-0.7-8-13.8-11.4c0,0,14.4-5.6,13.3-19.2
		c0,0-10.4-4.7-26.1,11.5c0,0-6-15.1-21.2-7.9c0,0-4.8,9.3,3.9,16.6C310.4,20.8,291.9,25.7,285.5,37.7z"/>
	<path class="st14" d="M329.2,20.4c0,0,8-8.9,9.4-14.3c0,0,6.4-4.3,11.9-4.3C350.5,1.8,354.4,16.6,329.2,20.4z"/>
	<path class="st14" d="M325.5,20.6c0,0,6.3-4.5,7.7-10.3C333.2,10.4,327.2,15.1,325.5,20.6z"/>
	<path class="st14" d="M323.8,18.1c0,0-5-7.4-15.7-7.7c0.1-0.3,0.4-3.1,1.1-4.4c0.4-0.2,7.7-2.6,12.4,1.8S326.1,16.8,323.8,18.1z"/>
	<path class="st14" d="M309,13.6c0,0,0.9,7.3,12.5,8.8C321.6,22.4,321.9,14.4,309,13.6z"/>
	<path class="st14" d="M326.9,23.4c0,0,3.6,2.9,18.2,1.2C345.1,24.6,341.4,20.3,326.9,23.4z"/>
	<path class="st14" d="M317.4,24.7c0,0-12.2,3.9-16.8,9.3c0,0-2.2,3.7-11.3,2.2c0,0,3.3-5.1,10.4-8.7s13-5.3,15.3-4.5
		S317.4,24.7,317.4,24.7z"/>
	<path class="st14" d="M318.1,26.6c0,0-10,3.9-14.5,8.5C303.6,35.1,313.1,32.1,318.1,26.6z"/>
	<path class="st14" d="M320.4,28.3c0,0-1,7.2,0.6,15.4c0,0-3.6,6.1-8.7,7.4c0,0-7.3-3.9-3.6-11.4C312.4,32.2,320.4,28.3,320.4,28.3z
		"/>
	<path class="st14" d="M324.2,25.7c0,0-2.1,8.4-0.2,14.9c0,0,2.9-2.3,2.9-8.3S324.2,25.7,324.2,25.7z"/>
	<path class="st14" d="M329.2,27c0,0-1.1,6.4,1.9,8.1c3,1.7,7.1,2.3,11.7,0.6c4.5-1.7,8.3-4.6,8.3-4.6s-1.6-3.8-3.1-4.1
		C346.4,26.7,336.4,29.8,329.2,27z"/>
	
		<radialGradient id="SVGID_00000049918079204898299370000007061050016541950396_" cx="330.2895" cy="59.0672" r="18.4063" gradientUnits="userSpaceOnUse">
		<stop  offset="0" style="stop-color:#006FBD"/>
		<stop  offset="0.2701" style="stop-color:#0073C0"/>
		<stop  offset="0.5502" style="stop-color:#0080CA"/>
		<stop  offset="0.834" style="stop-color:#0094DB"/>
		<stop  offset="1" style="stop-color:#00A4E7"/>
	</radialGradient>
	<path style="fill:url(#SVGID_00000049918079204898299370000007061050016541950396_);" d="M325.5,44.1c0,0-3.5,4.5-0.5,10.5
		c0,0-13.1,0-15.9,5c0,0,2.2,2.7,11.9,3.4c0,0-6.1,4-0.4,11.2c0,0,6.3-1.2,11.4-6.9c0,0,2.4,6.8,14.9,1.3c0,0,0.3-5.1-5.8-8.9
		c0,0,9.3-2.1,10.4-8.5c0,0-4.4-5.3-15.9,1.7C335.6,52.7,335.4,43.1,325.5,44.1z"/>
	<path class="st16" d="M325.5,47.9c0,0,5.9,2.7,7.1,7.7c0,0,2.9-2.5,0-7.3c0,0-1.5-2.2-5.2-2.6C327.3,45.7,325.8,46.8,325.5,47.9z"
		/>
	<path class="st16" d="M325.5,50.2c0,0-0.1,5,5.2,7.4C330.7,57.6,331.9,52.4,325.5,50.2z"/>
	<path class="st16" d="M335,57.9c0,0,4.7-3.3,7.6-6.8c0,0,3-0.7,6.9,0C349.5,51.1,348.3,60.1,335,57.9z"/>
	<path class="st16" d="M333.2,57.1c-0.1,0,1.4-2.6,5.4-4.3C338.6,52.8,336.8,56,333.2,57.1z"/>
	<path class="st16" d="M333.4,59.1c0,0,5.8,0.5,9.1,3.8C342.5,62.9,336.5,62.1,333.4,59.1z"/>
	<path class="st16" d="M334,61.6c0,0,2.9,2.4,9.5,3.1c0,0,1.5,0.9,1.5,3.1c0,0-8.7,4.1-12.1-2.4C332.9,65.4,333.2,62.7,334,61.6z"/>
	<path class="st16" d="M331.5,60c0,0,1.8,5.5-2.4,8.1C329.1,68.1,329.2,62.9,331.5,60z"/>
	<path class="st16" d="M329.1,60.7c0,0-2.4,4.9-2.2,9c0,0-3.4,2.5-5.8,2.7c0,0-2.7-2.1-1.2-6.1C321.5,62.3,329.1,60.7,329.1,60.7z"
		/>
	<path class="st16" d="M319.2,61.3c0,0,5.4,0.7,8.7-1.9C327.9,59.3,323,59.1,319.2,61.3z"/>
	<path class="st16" d="M316.7,60.9c0,0,4-3,11.5-2.8c0,0-1.3-2-3.2-2.2c0,0-9.2-0.6-13.9,3.5C311.1,59.3,312.6,61.2,316.7,60.9z"/>
	
		<radialGradient id="SVGID_00000027594092378431798160000011220153352149221303_" cx="365.0019" cy="41.0512" r="21.841" gradientUnits="userSpaceOnUse">
		<stop  offset="0" style="stop-color:#006FBD"/>
		<stop  offset="0.2701" style="stop-color:#0073C0"/>
		<stop  offset="0.5502" style="stop-color:#0080CA"/>
		<stop  offset="0.834" style="stop-color:#0094DB"/>
		<stop  offset="1" style="stop-color:#00A4E7"/>
	</radialGradient>
	<path style="fill:url(#SVGID_00000027594092378431798160000011220153352149221303_);" d="M342.3,43.4c0,0,3.3,4.8,13.2,3.7
		c0,0-7.7,5.7-3.4,14.8c0,0,8.2,1.7,14.5-12.8c0,0,8.3,8.1,17.3,0c0,0,0.4-6.9-7.9-9.1c0,0,12.7-9.6,11.8-16c0,0-7.8,0.9-15.1,6
		c0,0,3-8.3-8.7-9.8c0,0-6.1,6.7-5.6,13.9C358.3,34.1,349.8,30.3,342.3,43.4z"/>
	<path class="st16" d="M344.3,42.6c0,0,2.5,2.1,3.8,1.9c0,0,8.4-4.3,12.7-4.3c0,0-1.1-3.7-2.9-4.2C356.1,35.6,350.4,34.7,344.3,42.6
		z"/>
	<path class="st16" d="M360.2,30.8c0,0-1.8,6.8,4.5,9.3C364.7,40.1,363.6,33.4,360.2,30.8z"/>
	<path class="st16" d="M361.2,28.3c0,0,4.7,6,5.2,9.2c0,0,3.9-5.3,4.5-7.4s0.2-7.3-5.9-8.4C365,21.7,361.7,24.6,361.2,28.3z"/>
	<path class="st16" d="M368.7,38c0,0,2.6-5.8,7.2-8C375.9,30,372.3,36,368.7,38z"/>
	<path class="st16" d="M369.8,39.1c0,0,7.6-5.6,8.7-9.9c0,0,2.8-3.1,6.9-3.5C385.4,25.7,378.6,41.1,369.8,39.1z"/>
	<path class="st16" d="M350.7,45.3c0,0,6.2-3.7,12.7-3.4C363.4,41.9,358.7,45,350.7,45.3z"/>
	<path class="st16" d="M362.9,44.3c0,0-1.9,5.1-2.1,11.1c0,0-3.4,4-6.9,4.7c0,0-3.1-4.3,0.4-9.3C357.9,45.6,362.9,44.3,362.9,44.3z"
		/>
	<path class="st16" d="M365.3,43.6c0,0-2.6,2.4-1.9,7.5C363.4,51.1,365.5,48,365.3,43.6z"/>
	<path class="st16" d="M367.3,41.3c0,0,2,4.8,11.7,2.7C379,44,376.9,39.7,367.3,41.3z"/>
	<path class="st16" d="M367.3,44.6c0,0,6.3,3.6,13.3,1.2c0,0,0.7,1.4,0.6,2.7c0,0-7.6,6.4-14.2-2.4
		C366.9,46.1,366.9,45.2,367.3,44.6z"/>
</g>
</svg>
