<?xml version="1.0" encoding="utf-8"?>
<!-- Generator: Adobe Illustrator 25.4.1, SVG Export Plug-In . SVG Version: 6.00 Build 0)  -->
<svg version="1.1" xmlns="http://www.w3.org/2000/svg" xmlns:xlink="http://www.w3.org/1999/xlink" x="0px" y="0px"
	 viewBox="0 0 222.45 80" style="enable-background:new 0 0 222.45 80;" xml:space="preserve">
<style type="text/css">
	.st0{fill:#59237F;}
	.st1{fill:#5DBC5E;}
</style>
<g id="Layer_2">
</g>
<g id="Layer_1">
	<g id="layer1">
		<path id="path5572" class="st0" d="M116.53,1.41v77.35h20.99V1.41H116.53z"/>
		<path id="path5574" class="st1" d="M63.47,1.12L92.3,39.94L63.47,78.76h24.09l28.83-38.82L87.56,1.12H63.47z"/>
		<path id="path5599-7" class="st0" d="M172.39,78.76V51.8L144.05,1.41h22.65l16.54,30.3l16.54-30.3h22.65L194.11,51.8v26.96H172.39
			z"/>
		<path id="path5623" class="st0" d="M60.34,55.82c0.01-11.18-6.9-21.04-24.89-24.96c-13.21-2.87-14.92-5.49-14.92-8.52
			c0-4.96,7.05-5.47,11.17-5.47c10.53,0,17.16,3.97,23.41,7.66V5.87C47.76,1.42,39.2,0.07,30.14,0C3.85,1.51,0,15.02,0,23.88
			c0,14.37,8.18,19.16,23.34,23.93c5.9,1.85,16.05,2.81,16.1,9c0.03,3.42-3.16,5.98-11.94,6.26c-11.31,0.36-18.42-4.15-25.77-8.16
			V73.7C9.77,77.77,18.2,80,27.77,80C48.73,80,60.34,70.25,60.34,55.82L60.34,55.82z"/>
	</g>
</g>
</svg>
