<?xml version="1.0" encoding="utf-8"?>
<!-- Generator: Adobe Illustrator 25.4.1, SVG Export Plug-In . SVG Version: 6.00 Build 0)  -->
<svg version="1.1" id="Layer_1" xmlns="http://www.w3.org/2000/svg" xmlns:xlink="http://www.w3.org/1999/xlink" x="0px" y="0px"
	 viewBox="0 0 255.7 80" style="enable-background:new 0 0 255.7 80;" xml:space="preserve">
<style type="text/css">
	.st0{fill:#0C0C11;}
	.st1{fill-rule:evenodd;clip-rule:evenodd;fill:#0E72BA;}
	.st2{fill-rule:evenodd;clip-rule:evenodd;fill:#18AFE5;}
	.st3{fill-rule:evenodd;clip-rule:evenodd;fill:#FFFFFF;}
	.st4{fill-rule:evenodd;clip-rule:evenodd;fill:#ADC4E6;}
</style>
<path class="st0" d="M84.9-885.5c-0.7-0.1-1.8,0-2.5,0c0.5-0.4,1.2-0.7,1.6-0.5c0.1,0,0.1,0,0.2,0.1
	C84.4-885.8,84.7-885.6,84.9-885.5z"/>
<g>
	<path class="st1" d="M7.6,18.9L15.3,0h75l-3.3,15.9C64.1,32.8,45.9,53.8,33.5,80H0c14-21.4,32.9-42.7,56.8-64.1h-44L9.3,19
		L7.6,18.9"/>
	<path class="st2" d="M14.3,2.3L15.3,0h75l-3.3,15.9c-1.9,1.4-3.8,2.8-5.6,4.3C60.8,13,38.2,7.3,14.3,2.3"/>
	<path class="st1" d="M126.9,42.4l10.5-31.7h-2.1l-37,31.7H126.9z M156,0l-11.3,42.4h14.1l-5.7,19.8h-14l-2.8,11.3
		c-0.6,2.3,1,4.3,2.8,6.5h-36.3c2.2-2.8,5.6-5,6.5-8.5l2.5-9.3H60.3l7.9-19.8L121.8,0H156"/>
	<path class="st2" d="M111.2,31.3l-19.6-7.4L121.8,0H156L148,30.4l-18.9,5.4l8.3-25.2h-2.1L111.2,31.3"/>
	<g>
		<path class="st1" d="M201.2,45.4H215c2.6,0,4.2,2.1,3.4,4.7L215.1,62c-0.7,2.6-3.4,4.7-6,4.7h-13.7c-2.6,0-4.2-2.1-3.4-4.7
			l3.3-11.9C195.9,47.5,198.6,45.4,201.2,45.4z M209.7,12.5h13.7c2.6,0,4.2,2.1,3.4,4.7l-3.3,11.9c-0.7,2.6-3.4,4.7-6.1,4.7h-13.7
			c-2.6,0-4.2-2.1-3.4-4.7l3.3-11.9C204.4,14.6,207.1,12.5,209.7,12.5z M198.2,0h44.2c9.6,0,15.4,7.7,12.7,17l-1.6,5.7
			c-2.6,9.3-12.5,16.9-22.1,17c9.1,1.2,15.5,7.5,12.8,17l-1.6,5.7c-2.6,9.4-12.7,17-22.3,17H176c-9.6,0-15.4-7.7-12.7-17l1.6-5.7
			c2.6-9.4,12.4-16,22.3-17c-9.8,0-15.7-7.5-13-17l1.6-5.7C178.5,7.7,188.5,0,198.2,0"/>
	</g>
	<path class="st2" d="M198.2,0h44.2c3,0,5.6,0.7,7.7,2c-26.9,3.7-52.4,10.1-75.8,20.8l1.6-5.7C178.5,7.7,188.5,0,198.2,0"/>
	<path class="st3" d="M125.2,31C89.3,23.8,50.3,7.2,17.7,4.1c-1.7-0.9,5-1,7.3-0.7c3.1,0.3,19.3,3,29.2,5.5
		c13.1,3.4,26.2,7,39.1,10.9c10.2,3.1,20.7,5.9,30.7,8.3c2.3,0.5,4.8,0.6,7.1-0.1c11.7-3.5,22.6-6.7,32.5-9.3
		c14.5-3.9,26.9-7.1,37.4-9.4c21.5-4.6,34.6-5.8,38.9-6.4c5-0.7,11.8-0.5,9.2,0.8c-8.7-1-29.4,3.5-44.4,7.8
		C177.8,19,152.2,36.4,125.2,31"/>
	<path class="st4" d="M98.1,49.8c1.1-2.5-3.7-3.1-4.5-5.5c-5.9,1-10.4,3.3-13.9,6.4C86.9,49.5,97.1,51.2,98.1,49.8z M17.5,4.1
		c1.3-1.4,12,0.4,18.1,1.5c30.9,5.9,59.4,16.6,88.4,23.5c4.5,1.1,9.4-0.5,13.9-1.9c31.1-9.7,61.5-17.7,92.9-22.3
		c6.2-0.9,16.6-3.2,18.9-1.2c-41.8,5.9-82,22-116.4,38.1c0.6,10.6-3.4,18.4-10,16.7c6.5-4.9,8.3-17.1,2.2-17.9
		c2.5,4.6-0.3,14.2-4.2,16.2c-2,1-4.6,1-7.9,0c-2.3-1.3-4.5-2.6-7-3.4c-1.7-0.6-4.7-0.8-6.1-2c5.5-1.7,2.9-4.3-0.2-5.5
		c-1.8-0.7-3.2-1.4-4.1-2.5c-1.4-1.8,0.2-4.1,2.6-5.7c0.7-0.5,2.3-0.9,3.1-1.1c0.7-0.2,1-0.8,0.4-1.5c-1.6-1.9-3.9-3.1-6.1-4.6
		c-5.3-3.5-11.4-6-17.1-8.6C58.8,12.9,39.9,8.6,17.5,4.1"/>
	<path class="st3" d="M102,35.1c1.5-0.7,8.9-2.5,15.5-2.3c6.1,0.1,14.5,2.6,11.6,7.3c-4-6.1-21.1-4.5-27.3-3.6
		C102.4,36,102.4,35.6,102,35.1"/>
</g>
</svg>
