<?xml version="1.0" encoding="utf-8"?>
<!-- Generator: Adobe Illustrator 25.4.1, SVG Export Plug-In . SVG Version: 6.00 Build 0)  -->
<svg version="1.1" id="Layer_1" xmlns="http://www.w3.org/2000/svg" xmlns:xlink="http://www.w3.org/1999/xlink" x="0px" y="0px"
	 viewBox="0 0 196.4 80" style="enable-background:new 0 0 196.4 80;" xml:space="preserve">
<style type="text/css">
	.st0{fill:#0C0C11;}
	.st1{fill-rule:evenodd;clip-rule:evenodd;fill:#0E72BA;}
	.st2{fill-rule:evenodd;clip-rule:evenodd;fill:#18AFE5;}
	.st3{fill-rule:evenodd;clip-rule:evenodd;fill:#FFFFFF;}
	.st4{fill-rule:evenodd;clip-rule:evenodd;fill:#ADC4E6;}
	.st5{fill-rule:evenodd;clip-rule:evenodd;fill:#18B0E7;}
	.st6{clip-path:url(#SVGID_00000160176891150375447220000004350181333376482226_);}
	.st7{fill:#0E72BA;}
</style>
<path class="st0" d="M84.9-885.5c-0.7-0.1-1.8,0-2.5,0c0.5-0.4,1.2-0.7,1.6-0.5c0.1,0,0.1,0,0.2,0.1
	C84.4-885.8,84.7-885.6,84.9-885.5z"/>
<g>
	<path class="st1" d="M10.9,14.1L16.7,0h56.1l-2.5,11.9C53.2,24.5,39.6,40.2,30.3,59.8H5.2c10.5-16,24.6-31.9,42.4-47.9H14.8
		l-2.6,2.3L10.9,14.1"/>
	<path class="st2" d="M16,1.7L16.7,0h56.1l-2.5,11.9c-1.4,1-2.8,2.1-4.2,3.2C50.7,9.7,33.8,5.4,16,1.7"/>
	<path class="st1" d="M100.1,31.7L108,8h-1.6L78.7,31.7H100.1z M121.9,0l-8.4,31.7H124l-4.3,14.8h-10.5l-2.1,8.4
		c-0.4,1.7,0.8,3.2,2.1,4.9H82c1.6-2.1,4.2-3.8,4.9-6.3l1.8-7H50.3l5.9-14.8L96.3,0H121.9"/>
	<path class="st2" d="M88.4,23.4l-14.7-5.5L96.3,0h25.6l-6.1,22.7l-14.1,4.1L108,8h-1.6L88.4,23.4"/>
	<g>
		<path class="st1" d="M155.7,33.9H166c2,0,3.1,1.6,2.6,3.5l-2.5,8.9c-0.5,2-2.6,3.5-4.5,3.5h-10.3c-2,0-3.1-1.6-2.6-3.5l2.5-8.9
			C151.7,35.5,153.7,33.9,155.7,33.9z M162.1,9.3h10.3c2,0,3.1,1.6,2.6,3.5l-2.5,8.9c-0.5,2-2.6,3.5-4.5,3.5h-10.3
			c-2,0-3.1-1.6-2.6-3.5l2.5-8.9C158.1,10.9,160.1,9.3,162.1,9.3z M153.4,0h33c7.2,0,11.5,5.7,9.5,12.7l-1.2,4.3
			c-2,6.9-9.4,12.6-16.5,12.7c6.8,0.9,11.6,5.6,9.5,12.7l-1.2,4.3c-2,7-9.5,12.7-16.7,12.7h-33c-7.2,0-11.5-5.7-9.5-12.7l1.2-4.3
			c2-7,9.3-11.9,16.7-12.7c-7.3,0-11.7-5.6-9.7-12.7l1.2-4.3C138.7,5.7,146.2,0,153.4,0"/>
	</g>
	<path class="st2" d="M153.4,0h33c2.2,0,4.2,0.5,5.7,1.5C172.1,4.3,153,9,135.5,17l1.2-4.3C138.7,5.7,146.2,0,153.4,0"/>
	<path class="st3" d="M98.8,23.2C72,17.8,42.8,5.4,18.4,3.1c-1.3-0.6,3.7-0.7,5.4-0.5c2.3,0.3,14.4,2.2,21.8,4.1
		c9.8,2.5,19.6,5.2,29.2,8.1c7.6,2.3,15.5,4.4,23,6.2c1.7,0.4,3.6,0.4,5.3-0.1c8.7-2.6,16.9-5,24.3-7c10.8-2.9,20.1-5.3,28-7
		c16-3.5,25.9-4.3,29.1-4.8c3.7-0.5,8.8-0.3,6.8,0.6c-6.5-0.8-22,2.7-33.2,5.8C138.2,14.2,119,27.2,98.8,23.2"/>
	<path class="st4" d="M78.6,37.2c0.8-1.9-2.8-2.3-3.4-4.1c-4.4,0.8-7.7,2.5-10.4,4.8C70.2,37,77.8,38.3,78.6,37.2z M18.3,3.1
		c1-1,9,0.3,13.5,1.2c23.1,4.4,44.4,12.4,66.1,17.6c3.4,0.8,7-0.4,10.4-1.4c23.2-7.3,46-13.2,69.4-16.7c4.7-0.7,12.4-2.4,14.1-0.9
		c-31.2,4.4-61.3,16.4-87,28.5c0.4,7.9-2.5,13.8-7.4,12.5c4.9-3.7,6.2-12.8,1.7-13.4c1.9,3.5-0.3,10.6-3.2,12.1
		c-1.5,0.7-3.4,0.8-5.9,0c-1.7-1-3.4-1.9-5.2-2.6c-1.3-0.4-3.5-0.6-4.5-1.5c4.1-1.3,2.2-3.2-0.1-4.1c-1.3-0.5-2.4-1-3-1.9
		c-1-1.3,0.2-3.1,2-4.3c0.6-0.4,1.7-0.7,2.3-0.9c0.6-0.2,0.8-0.6,0.3-1.2c-1.2-1.4-2.9-2.4-4.6-3.4c-4-2.6-8.5-4.5-12.8-6.4
		C49.2,9.7,35.1,6.4,18.3,3.1"/>
	<path class="st3" d="M81.5,26.2c1.1-0.5,6.7-1.9,11.6-1.8c4.6,0.1,10.8,2,8.7,5.5c-3-4.5-15.7-3.3-20.4-2.7
		C81.8,26.9,81.8,26.6,81.5,26.2"/>
	<path class="st5" d="M0,63.9h188v2.5H0V63.9"/>
	<g>
		<defs>
			<rect id="SVGID_1_" y="77.3" width="188.1" height="2.7"/>
		</defs>
		<clipPath id="SVGID_00000026126907239599040820000002847851042988593280_">
			<use xlink:href="#SVGID_1_"  style="overflow:visible;"/>
		</clipPath>
		<g style="clip-path:url(#SVGID_00000026126907239599040820000002847851042988593280_);">
			<path class="st5" d="M0,77.5h188V80H0V77.5"/>
		</g>
	</g>
	<path class="st7" d="M179.2,73.6l1.6-0.2c0.2,1,0.8,1.6,1.8,1.6c1.1,0,1.6-0.4,1.6-1.1c0-0.3-0.1-0.5-0.3-0.6
		c-0.2-0.1-0.8-0.3-1.7-0.6c-1.7-0.4-2.6-1.2-2.6-2.4c0-0.7,0.3-1.3,0.8-1.7c0.5-0.4,1.3-0.6,2.1-0.6c2,0,3,0.8,3.1,2.4l-1.6,0.1
		c-0.1-0.8-0.6-1.2-1.5-1.2c-0.9,0-1.4,0.3-1.4,0.8c0,0.2,0.1,0.3,0.2,0.5c0.2,0.2,0.7,0.3,1.5,0.6c1.4,0.3,2.2,0.7,2.5,1.2
		c0.3,0.4,0.5,0.9,0.5,1.5c0,1.7-1.1,2.5-3.2,2.5C180.5,76.3,179.4,75.4,179.2,73.6z M162.7,76.3v-8.1h6v1.4h-4.4v1.8h4.1v1.4h-4.1
		V75h4.5v1.4H162.7z M150.5,73.2l1.6,0.5c-0.5,1.7-1.6,2.6-3.4,2.6c-1.3,0-2.2-0.4-2.8-1.2c-0.6-0.8-0.9-1.8-0.9-2.9
		c0-1.3,0.3-2.3,1-3.1c0.7-0.8,1.6-1.2,2.8-1.2c1.7,0,2.8,0.8,3.2,2.4l-1.6,0.4c-0.2-0.9-0.8-1.4-1.7-1.4c-1.3,0-2,0.9-2,2.7
		c0,1.9,0.7,2.8,2,2.8C149.7,74.9,150.3,74.4,150.5,73.2z M132,76.3v-8.1h1.6v8.1H132z M117.1,76.3l-2.9-8.1h1.8l2,6l2-6h1.7
		l-2.9,8.1H117.1z M99.3,71.7h1.2c0.8,0,1.4-0.1,1.7-0.2c0.3-0.1,0.4-0.4,0.4-0.8c0-0.4-0.1-0.7-0.4-0.8c-0.2-0.1-0.8-0.2-1.7-0.2
		h-1.3V71.7z M97.6,76.3v-8.1h3.4c1.1,0,1.9,0.2,2.4,0.5c0.5,0.3,0.8,0.9,0.8,1.8c0,1.3-0.7,2-2.1,2.3c0.5,0.3,1.2,0.9,1.8,2l1,1.6
		h-2l-1.8-2.6c-0.2-0.3-0.4-0.4-0.6-0.6c-0.2-0.1-0.5-0.2-1-0.2h-0.3v3.4H97.6z M80.9,76.3v-8.1h6v1.4h-4.4v1.8h4.1v1.4h-4.1V75H87
		v1.4H80.9z M62.8,73.6l1.6-0.2c0.2,1,0.8,1.6,1.8,1.6c1.1,0,1.6-0.4,1.6-1.1c0-0.3-0.1-0.5-0.3-0.6c-0.2-0.1-0.8-0.3-1.7-0.6
		c-1.7-0.4-2.6-1.2-2.6-2.4c0-0.7,0.3-1.3,0.8-1.7c0.5-0.4,1.3-0.6,2.1-0.6c2,0,3,0.8,3.1,2.4l-1.6,0.1c-0.1-0.8-0.6-1.2-1.5-1.2
		c-0.9,0-1.4,0.3-1.4,0.8c0,0.2,0.1,0.3,0.2,0.5c0.2,0.2,0.7,0.3,1.5,0.6c1.4,0.3,2.2,0.7,2.5,1.2c0.3,0.4,0.5,0.9,0.5,1.5
		c0,1.7-1.1,2.5-3.2,2.5C64.2,76.3,63.1,75.4,62.8,73.6z M34.6,71.7h1.2c0.8,0,1.4-0.1,1.7-0.2c0.3-0.1,0.4-0.4,0.4-0.8
		c0-0.4-0.1-0.7-0.4-0.8c-0.2-0.1-0.8-0.2-1.7-0.2h-1.3V71.7z M33,76.3v-8.1h3.4c1.1,0,1.9,0.2,2.4,0.5c0.5,0.3,0.8,0.9,0.8,1.8
		c0,1.3-0.7,2-2.1,2.3c0.6,0.3,1.2,0.9,1.8,2l1,1.6h-2l-1.8-2.6c-0.2-0.3-0.4-0.4-0.6-0.6C35.8,73,35.4,73,35,73h-0.3v3.4H33z
		 M19.9,76.3v-8.1h1.6v8.1H19.9z M7.2,73l-1.1-3L5,73H7.2z M10.2,76.2H8.5l-0.7-1.8H4.5l-0.7,1.8H2.1l3.1-8.1H7L10.2,76.2"/>
</g>
</svg>
