<?xml version="1.0" encoding="utf-8"?>
<!-- Generator: Adobe Illustrator 25.4.1, SVG Export Plug-In . SVG Version: 6.00 Build 0)  -->
<svg version="1.1" id="Layer_1" xmlns="http://www.w3.org/2000/svg" xmlns:xlink="http://www.w3.org/1999/xlink" x="0px" y="0px"
	 viewBox="0 0 342.3 80" style="enable-background:new 0 0 342.3 80;" xml:space="preserve">
<style type="text/css">
	.st0{fill:#A91F2D;}
	.st1{fill:#808184;}
	.st2{fill:#068D4B;}
</style>
<g>
	<path class="st0" d="M342.3,31.2c-2.1-0.9-4.4-1.8-6.9-2.5c-21-6.1-55.9-4.8-83.3,2.5c-30.7,8.3-94.4,43.1-146.8,47.8
		c-52.5,4.7-74.9-9.4-74.9-9.4c5,0.3,10,0.3,15.1,0.2c28.3-0.9,56.8-5.5,83.5-14.8c15.3-5.3,29.6-12.9,44.1-19.9
		c11.4-5.6,22.9-10.8,35.2-14.6c20.4-6.2,41.6-9.9,62.9-11C316,7.1,341.6,30.5,342.3,31.2C342.3,31.2,342.3,31.2,342.3,31.2z"/>
	<path class="st1" d="M342.3,31.2c-0.8-0.7-26.3-24.1-71.2-21.8c-21.3,1.1-42.5,4.8-62.9,11c-12.2,3.7-23.8,9-35.2,14.6
		c-17.5,2.2-44.4,4-80.2,1.6C25.1,32.1,0,3,0,3c121.8,23,101.1-3,209.6-3C316.6,0,341.6,30.4,342.3,31.2z"/>
	<path class="st2" d="M342.3,31.2l-6.9-2.5C337.9,29.5,340.2,30.3,342.3,31.2z"/>
</g>
</svg>
