<?xml version="1.0" encoding="utf-8"?>
<!-- Generator: Adobe Illustrator 25.4.1, SVG Export Plug-In . SVG Version: 6.00 Build 0)  -->
<svg version="1.1" id="Layer_1" xmlns="http://www.w3.org/2000/svg" xmlns:xlink="http://www.w3.org/1999/xlink" x="0px" y="0px"
	 viewBox="0 0 242.5 80" style="enable-background:new 0 0 242.5 80;" xml:space="preserve">
<style type="text/css">
	.st0{fill:#221E20;}
	.st1{fill:#A91F2D;}
	.st2{fill:#808184;}
	.st3{fill:#068D4B;}
</style>
<g>
	<path class="st0" d="M0,58.5V15.1h5.5v18.6h21.7V15.1h5.5v43.4h-5.5V38.7H5.5v19.8H0z"/>
	<path class="st0" d="M59.2,55.2c-1.8,1.6-3.5,2.8-5.2,3.4c-1.7,0.7-3.4,1-5.3,1c-3.1,0-5.5-0.8-7.2-2.5c-1.7-1.6-2.5-3.7-2.5-6.3
		c0-1.5,0.3-2.9,1-4.1c0.6-1.2,1.5-2.2,2.5-3c1-0.7,2.2-1.3,3.5-1.7c0.9-0.3,2.4-0.5,4.3-0.8c3.9-0.5,6.8-1.1,8.6-1.8
		c0-0.7,0-1.2,0-1.3c0-2.1-0.5-3.6-1.4-4.4c-1.2-1.2-3.1-1.8-5.5-1.8c-2.3,0-3.9,0.4-5,1.3c-1.1,0.9-1.9,2.4-2.4,4.5l-4.7-0.7
		c0.4-2.2,1.1-3.9,2.1-5.2c1-1.3,2.4-2.4,4.3-3.1c1.9-0.7,4-1.1,6.5-1.1c2.4,0,4.4,0.3,5.9,0.9c1.5,0.6,2.6,1.4,3.3,2.3
		c0.7,0.9,1.2,2.1,1.5,3.5c0.2,0.9,0.2,2.5,0.2,4.8v6.9c0,4.8,0.1,7.8,0.3,9.1c0.2,1.3,0.6,2.5,1.2,3.7h-5
		C59.7,57.9,59.3,56.7,59.2,55.2z M58.8,43.7c-1.7,0.8-4.4,1.4-7.9,2c-2,0.3-3.4,0.7-4.2,1c-0.8,0.4-1.5,0.9-1.9,1.7
		c-0.4,0.7-0.7,1.6-0.7,2.5c0,1.4,0.5,2.5,1.5,3.4c1,0.9,2.4,1.4,4.3,1.4c1.9,0,3.5-0.4,5-1.3c1.4-0.9,2.5-2.1,3.2-3.6
		c0.5-1.2,0.8-2.9,0.8-5.2V43.7z"/>
	<path class="st0" d="M73.2,71.4c-0.9-0.5-1.1-1.2-0.7-1.8c0.3-0.7,0.4-1.6,1.6-1.7c1.2-0.1,2.9,0.5,2.9,0.5
		c2.2,0.8,4.4,1.4,6.8,1.3c2.2-0.2,4.2-1.2,5.8-2.7c1.7-1.6,2.5-3.6,3.1-5.9c0.3-1.1,0.4-3.3,0.4-6.6c-2.2,2.7-5,4-8.4,4
		c-4.2,0-9.9-1.5-12.2-4.5c-2.3-3-3.4-6.6-3.4-10.9c0-3.9,1.2-8,3.8-11.1c3.2-3.8,7.1-4.7,11.9-4.7c3.6,0,6.5,1.5,8.8,4.4V28h4.7
		v26.3c0,4.7-0.5,8.1-1.4,10.1c-1,2-2.4,4.8-4.4,6.1c-2,1.3-4.5,2-6.8,2.3c-3.2,0.4-7.2,0.8-10.2-0.6C75.5,72.3,74.1,71.9,73.2,71.4
		z M74.5,42.7c0,4,0.8,6.9,2.4,8.8c1.6,1.8,5.9,2.8,8.3,2.8c2.3,0,4.3-0.9,5.9-2.7c1.6-1.8,2.4-4.7,2.4-8.6c0-3.7-0.8-6.5-2.5-8.4
		c-2.8-3.3-7.3-4.4-11.2-2.3C75.8,34.2,74.5,38.4,74.5,42.7z"/>
	<path class="st0" d="M130.5,57.4c-2.3,1.7-7.7,2.9-11.9,2.9c-4.4,0-7.9-2.4-10.5-5.2c-2.6-2.7-3.9-6.6-3.9-11.6
		c0-5.1,1.3-9.1,3.9-11.9c2.6-2.8,6-4.2,10.2-4.2c4,0,7.3,1.4,9.9,4.2c2.6,2.8,3.8,6.7,3.8,11.7c0,0.3,0,0.8,0,1.4h-22.5
		c0.2,3.3,1.1,5.9,2.8,7.7c1.7,1.8,3.9,3.1,6.4,3.5c2.5,0.4,6.6-0.5,7.9-1.5L130.5,57.4z M109.8,40.3h16.9c-0.2-2.6-0.9-4.5-1.9-5.8
		c-1.6-2-3.7-3-6.3-3c-2.3,0-4.3,0.8-5.9,2.4C110.9,35.5,110,37.7,109.8,40.3z"/>
	<path class="st0" d="M138.2,58.5V12.4h5.1v46.1H138.2z"/>
	<path class="st0" d="M167.9,54.7c-1.8,1.6-3.5,2.8-5.2,3.4c-1.7,0.7-3.4,1-5.3,1c-3.1,0-5.6-0.8-7.2-2.5c-1.7-1.6-2.5-3.7-2.5-6.3
		c0-1.5,0.3-2.9,1-4.1c0.6-1.2,1.5-2.2,2.5-3c1-0.7,2.2-1.3,3.5-1.7c1-0.3,2.4-0.5,4.3-0.8c3.9-0.5,6.8-1.1,8.6-1.8
		c0-0.7,0-1.2,0-1.3c0-2.1-0.5-3.6-1.4-4.4c-1.2-1.2-3.1-1.8-5.5-1.8c-2.3,0-4,0.4-5,1.3c-1.1,0.9-1.9,2.4-2.4,4.5l-4.7-0.7
		c0.4-2.2,1.1-3.9,2.1-5.2c1-1.3,2.4-2.4,4.3-3.1c1.9-0.7,4-1.1,6.5-1.1c2.4,0,4.4,0.3,6,0.9c1.5,0.6,2.6,1.4,3.4,2.3
		c0.7,0.9,1.2,2.1,1.5,3.5c0.2,0.9,0.2,2.5,0.2,4.8v6.9c0,4.8,0.1,7.8,0.3,9.1c0.2,1.3,0.6,2.5,1.2,3.7h-5.1
		C168.3,57.4,168,56.2,167.9,54.7z M167.5,43.2c-1.8,0.8-4.4,1.4-7.9,2c-2,0.3-3.4,0.7-4.2,1c-0.8,0.4-1.5,0.9-1.9,1.7
		c-0.4,0.7-0.7,1.6-0.7,2.5c0,1.4,0.5,2.5,1.5,3.4c1,0.9,2.4,1.4,4.3,1.4c1.9,0,3.5-0.4,5-1.3c1.5-0.9,2.5-2.1,3.2-3.6
		c0.5-1.2,0.8-2.9,0.8-5.2V43.2z"/>
	<path class="st0" d="M179.6,58.5V28h5.4v4.3c2.6-3.3,6.3-5,11.2-5c2.1,0,4.1,0.3,5.8,1c1.8,0.7,3.1,1.5,4,2.6
		c0.9,1.1,1.5,2.3,1.9,3.8c0.2,1,0.3,2.6,0.3,5v18.7h-6V40c0-2.1-0.2-3.7-0.7-4.7c-0.5-1-1.3-1.9-2.5-2.5c-1.2-0.6-2.6-0.9-4.2-0.9
		c-2.5,0-4.7,0.7-6.6,2.1c-1.8,1.4-2.8,4-2.8,7.9v16.6H179.6z"/>
	<path class="st0" d="M236.5,58.5v-3.8c-2.2,3-5.4,4.5-9.7,4.5c-2.8,0-5.3-0.7-7.6-2c-2.3-1.3-4.1-3.2-5.4-5.6
		c-1.3-2.4-1.9-5.2-1.9-8.3c0-3,0.6-5.8,1.7-8.3c1.1-2.5,2.9-4.4,5.2-5.7c2.3-1.3,4.9-2,7.7-2c2.1,0,3.9,0.4,5.6,1.2
		c1.6,0.8,2.9,1.8,4,3V12.4h5.8v46.1H236.5z M218,43.3c0,3.9,0.9,6.8,2.8,8.8c1.9,1.9,4.1,2.9,6.6,2.9c2.6,0,4.7-0.9,6.5-2.8
		c1.8-1.8,2.7-4.7,2.7-8.5c0-4.2-0.9-7.2-2.7-9.2c-1.8-2-4.1-2.9-6.7-2.9c-2.6,0-4.8,0.9-6.5,2.8C218.9,36.3,218,39.2,218,43.3z"/>
	<path class="st1" d="M103.3,79.8l4.4-11.5h1.6l4.7,11.5h-1.7l-1.3-3.5h-4.8l-1.3,3.5H103.3z M106.6,75.1h3.9l-1.2-3.2
		c-0.4-1-0.6-1.8-0.8-2.4c-0.1,0.7-0.4,1.5-0.6,2.2L106.6,75.1z"/>
	<path class="st1" d="M127.1,79.8l-4.4-11.5h1.6l3,8.4c0.2,0.7,0.4,1.3,0.6,1.9c0.2-0.6,0.4-1.3,0.6-1.9l3.1-8.4h1.5l-4.5,11.5
		H127.1z"/>
	<path class="st1" d="M144,79.8V68.3h1.5v11.5H144z"/>
	<path class="st1" d="M156.8,79.8l4.4-11.5h1.6l4.7,11.5h-1.7l-1.3-3.5h-4.8l-1.3,3.5H156.8z M160.1,75.1h3.9l-1.2-3.2
		c-0.4-1-0.6-1.8-0.8-2.4c-0.1,0.7-0.4,1.5-0.6,2.2L160.1,75.1z"/>
	<path class="st1" d="M179.7,79.8V69.6H176v-1.4h9.1v1.4h-3.8v10.2H179.7z"/>
	<path class="st1" d="M196.9,79.8V68.3h1.5v11.5H196.9z"/>
	<path class="st1" d="M210.5,74.2c0-1.9,0.5-3.4,1.5-4.5c1-1.1,2.3-1.6,3.9-1.6c1.1,0,2,0.3,2.9,0.8c0.8,0.5,1.5,1.2,1.9,2.1
		c0.4,0.9,0.7,1.9,0.7,3.1c0,1.2-0.2,2.2-0.7,3.1c-0.5,0.9-1.1,1.6-2,2.1c-0.9,0.5-1.8,0.7-2.8,0.7c-1.1,0-2-0.3-2.9-0.8
		c-0.8-0.5-1.5-1.2-1.9-2.1C210.7,76.2,210.5,75.2,210.5,74.2z M212,74.2c0,1.4,0.4,2.5,1.1,3.3c0.7,0.8,1.7,1.2,2.8,1.2
		c1.1,0,2.1-0.4,2.8-1.2c0.7-0.8,1.1-2,1.1-3.4c0-0.9-0.2-1.8-0.5-2.5c-0.3-0.7-0.8-1.2-1.4-1.6c-0.6-0.4-1.3-0.6-2-0.6
		c-1.1,0-2,0.4-2.8,1.1C212.4,71.2,212,72.5,212,74.2z"/>
	<path class="st1" d="M233.5,79.8V68.3h1.6l6,9.1v-9.1h1.5v11.5H241l-6-9.1v9.1H233.5z"/>
	<path class="st1" d="M227.9,7.7c-0.5-0.2-1.1-0.4-1.7-0.6c-5.2-1.5-13.7-1.2-20.4,0.6c-7.5,2-23.1,10.6-36,11.7
		c-12.9,1.2-18.4-2.3-18.4-2.3c1.2,0.1,2.5,0.1,3.7,0c6.9-0.2,13.9-1.3,20.5-3.6c3.8-1.3,7.3-3.2,10.8-4.9c2.8-1.4,5.6-2.7,8.6-3.6
		c5-1.5,10.2-2.4,15.4-2.7C221.5,1.7,227.8,7.5,227.9,7.7C227.9,7.7,227.9,7.7,227.9,7.7z"/>
	<path class="st2" d="M227.9,7.7c-0.2-0.2-6.4-5.9-17.5-5.3c-5.2,0.3-10.4,1.2-15.4,2.7c-3,0.9-5.8,2.2-8.6,3.6
		c-4.3,0.5-10.9,1-19.7,0.4C150.2,7.9,144,0.7,144,0.7C173.9,6.4,168.8,0,195.4,0C221.6,0,227.8,7.5,227.9,7.7z"/>
	<path class="st3" d="M227.9,7.7L226.2,7C226.9,7.2,227.4,7.4,227.9,7.7z"/>
</g>
</svg>
