<?xml version="1.0" encoding="utf-8"?>
<!-- Generator: Adobe Illustrator 25.4.1, SVG Export Plug-In . SVG Version: 6.00 Build 0)  -->
<svg version="1.1" xmlns="http://www.w3.org/2000/svg" xmlns:xlink="http://www.w3.org/1999/xlink" x="0px" y="0px"
	 viewBox="0 0 105.3 80" style="enable-background:new 0 0 105.3 80;" xml:space="preserve">
<style type="text/css">
	.st0{fill:#0C0C11;}
	.st1{fill:#F26537;}
	.st2{fill:#0E4CA3;}
</style>
<g id="Layer_1">
	<path class="st0" d="M-382.1-885.5c-0.7-0.1-1.8,0-2.5,0c0.5-0.4,1.2-0.7,1.6-0.5c0.1,0,0.1,0,0.2,0.1
		C-382.6-885.8-382.3-885.6-382.1-885.5z"/>
	<g id="text835">
	</g>
</g>
<g id="Layer_2">
	<path class="st1" d="M62.6,29c-1.4,2-2.8,3.9-4.2,5.8l-6.2-10.3l-6,9.3l-3.8-5.2c2.2-3.5,7.2-11.5,7.7-12c0.5-0.6,0.6-1.5,1.9-1.5
		c1.3,0,1.9,1,1.9,1L62.6,29z"/>
	<path class="st2" d="M81.7,12.8c0,0-1.2-1.8-3.4-1.8s-3.7,1.5-4.6,2.7c-0.3,0.4-2.6,3.6-5.6,7.8l-6.1-9.5c0,0-1.5-2.6,1.7-2.6
		c3.3,0,3.7,0.1,3.7,0.1S62.9,0,54.8,0c0,0-5.1-0.5-9.7,6.9c-3.3,5.4-6.9,10.8-8.6,13.4l-4.9-6.8c0,0-1.5-2.5-4.3-2.5
		s-4.6,3.2-5.6,4.7C20.7,17.3,0,49.8,0,49.8s6.4-2.1,10.7-9c4.3-6.9,14.2-22.6,14.2-22.6s2-3,4.3,0c2.3,3,35.6,50.1,35.6,50.1
		s6.8,10.1,14.5,11.6L62.8,56.9L59,51.6l-3.3-4.7L75.7,19c0,0,1.1-1.9,2.5-1.9c1.4,0,2.4,0.7,3,1.9c0.6,1.1,14.6,23.2,14.6,23.2
		s4.6,6.5,9.6,7.7L81.7,12.8z M62.6,29c-1.4,2-2.8,3.9-4.2,5.8c-2.4,3.3-4.5,6.2-5.8,8l-6.5-9l-3.8-5.2l-2.9-4.1
		c2.7-4.3,11-17.4,11.8-18c1-0.6,1.1-1.4,3.7-1.4c2.6,0,4.6,0.9,5.2,2.5c0,0-2.7-0.8-3.4,0.9c-0.7,1.6-0.1,3.9,0.7,5.3
		c0.7,1.2,5.5,9.1,7.4,12C64.2,26.9,63.4,28,62.6,29z"/>
	<path class="st1" d="M105.3,49.9C88.2,52.6,84.4,44,84.4,44l-5.6-9.2c0,0-12.5,17.4-16,22L59,51.6c3.8-5.4,17.3-24.7,18.5-26.3
		c1.3-1.9,2.2,0,2.2,0S88,38.8,92.1,44.4C96.2,49.9,105.3,49.9,105.3,49.9z"/>
	<path class="st1" d="M79.3,79.9C58.1,80.8,54.2,73,54.2,73l-1.2-1.8l-2,2.4c-6.4,7-24.5,6.4-24.5,6.4s0,0,0,0
		c13.9-2.4,17.7-8.6,17.7-8.6l4.7-5.9l-3-4.2l-3.2-4.4L27.4,35.4c0,0-6.8,12.3-13.5,14.1C7.2,51.3,0,49.8,0,49.8
		c9.8,0.2,14.5-6.5,14.5-6.5L26,25c1-1.5,2.1,0,2.1,0S56.5,66.1,62,72.6C67.4,79.2,79.3,79.9,79.3,79.9z"/>
	<path class="st2" d="M45.8,61.3c-1.2,1.9-3.8,5.7-7.5,10.3c-5,6.4-11.5,8.3-11.9,8.5c0,0,0,0,0,0l16.2-23.2L45.8,61.3z"/>
</g>
</svg>
