<?xml version="1.0" encoding="utf-8"?>
<!-- Generator: Adobe Illustrator 25.4.1, SVG Export Plug-In . SVG Version: 6.00 Build 0)  -->
<svg version="1.1" id="Layer_1" xmlns="http://www.w3.org/2000/svg" xmlns:xlink="http://www.w3.org/1999/xlink" x="0px" y="0px"
	 viewBox="0 0 70.83 80" style="enable-background:new 0 0 70.83 80;" xml:space="preserve">
<style type="text/css">
	.st0{fill:url(#path656_00000068656135558392609930000011172470977771833728_);}
	.st1{fill:#413691;}
	.st2{fill:#EF3138;}
</style>
<g id="Group_1_" transform="translate(79.448276, 0.000000)">
	<g id="g638" transform="translate(0.000000, 0.112508)">
		<g id="g644">
			<g id="g646">
				
					<linearGradient id="path656_00000005954879437194193400000012753862067838845083_" gradientUnits="userSpaceOnUse" x1="-121.3855" y1="-654.8113" x2="-121.4881" y2="-653.3321" gradientTransform="matrix(17.9654 0 0 30.4448 2125.2209 19943.3184)">
					<stop  offset="0" style="stop-color:#D2068A"/>
					<stop  offset="0.737" style="stop-color:#413691"/>
					<stop  offset="1" style="stop-color:#413691"/>
				</linearGradient>
				<path id="path656" style="fill:url(#path656_00000005954879437194193400000012753862067838845083_);" d="M-79.45,33.02
					c0,16.29,11.87,29.83,27.5,32.53l0,0c-0.14,1.16-0.28,2.28-0.47,3.16l0,0c-1.07,5.21-4.7,10.01-6.7,11.17l0,0
					c5.26-0.47,9.45-2,11.96-4.42l0,0l0,0c-0.19,0-1.82-0.05-1.95-0.05l0,0c0.98-0.37,2-0.84,2.93-1.4l0,0l0,0l0,0l0,0l0,0l0,0l0,0
					c0.37-3.03,0.23-6.66-0.56-11.12l0,0c-1.07-5.77-3.26-7.73-3.63-8.1l0,0c-0.05-0.05-0.05-0.05-0.05-0.05l0,0
					c0-0.05,0.05-0.05,0.09-0.05l0,0c1.86-1.16,3.49-2.51,4.24-3.16l0,0c0.56-0.47,0.37-0.7-0.23-0.47l0,0
					c-1.58,0.7-4.14,1.58-7.45,2l0,0c-2.89,0.37-6.33,0.28-10.05-0.42l0,0c0,0-2.61-0.37-2.23-2.98l0,0
					c0.09-0.74,0.47-1.49,0.79-2.23l0,0c0.09-0.23,0.33-0.93,0.23-1.49l0,0c-0.05-0.14-0.23-0.42-0.33-0.56l0,0
					c-0.19-0.28-0.28-0.7-0.05-1.16l0,0c0.19-0.37,0.84-0.98,1.82-1.07l0,0c0.47-0.05,0.98-0.05,1.54-0.05l0,0
					c0.7,0,1.4,0,1.95-0.09l0,0c1.49-0.28,2.42-1.26,2.23-1.58l0,0c-0.14-0.19-1.49,0.05-1.91,0.14l0,0
					c-0.65,0.14-1.91-0.42-2.56-0.6l0,0c-0.98-0.33-1.54-0.56-2.37-0.19l0,0c-0.56,0.23-0.98,1.3-1.12,0.79l0,0
					c-0.05-0.23,0.05-0.47,0.23-0.74l0,0c0.19-0.28,0.56-0.74,0.56-1.02l0,0c0.05-0.28,0.14-0.74-0.74-1.35l0,0
					c-0.65-0.47-1.07-0.74-1.3-1.02l0,0c-0.84-0.84-0.98-1.68,0.65-3.03l0,0c1.16-0.93,3.68-3.49,4.42-5.07l0,0
					c0.14-0.23,0.74-1.21,0.05-2.23l0,0c-0.51-0.74-0.6-0.88-0.74-1.16l0,0c-0.37-0.7-0.14-1.35,0.51-2.28l0,0
					c0.28-0.47,0.56-1.02,1.16-2.93l0,0c0.74-2.19,1.82-4.1,3.4-5.72l0,0l0,0c0.14-0.33,0.28-2.84,1.77-5.17l0,0
					c0.47-0.93,1.16-1.91,2-2.84l0,0c0.6-0.61,1.54-1.35,2.75-2.05l0,0c1.26-0.7,2.75-1.4,4.56-1.91l0,0
					c2.14-0.61,4.65-1.02,7.45-1.02l0,0c2.09,0.05,4.05,0.19,6.42,0.79l0,0l0,0l0,0c0,0,0.14,0.05,0.28,0.09l0,0
					c-4.24-1.95-8.89-3.03-13.87-3.03l0,0C-64.56-0.02-79.45,14.78-79.45,33.02 M-66.18,37.07c-0.05,0.14,0.05,0.19,0.19,0.23l0,0
					c0.6,0.28,0.88,0.42,2,1.07l0,0c1.3,0.74,1.86,0.14,2.14-0.37l0,0c0.09-0.14,0.19-0.7,0.05-0.84l0,0
					c-0.14-0.19-0.37-0.05-0.6,0.19l0,0c-0.28,0.28-0.98,0.14-1.21,0.09l0,0c-0.23-0.05-1.3-0.28-1.95-0.42l0,0
					c-0.14-0.05-0.23-0.05-0.33-0.05l0,0C-66.09,36.98-66.18,36.98-66.18,37.07"/>
			</g>
		</g>
	</g>
	<g id="g660" transform="translate(6.993562, 0.000000)">
		<g id="g666" transform="translate(0.010605, 8.040664)">
			<path id="path668" class="st1" d="M-58.06,13.89c-0.19-0.05-4.56-1.02-6.05-0.93c-1.49,0.09-2.7,0.93-3.49,1.82
				c-0.42,0.47-0.61,0.93-0.7,1.35c-0.05,0.7,0.47,1.02,1.02,0.84c0.42-0.14,0.74-0.47,1.21-1.07c0.28-0.42,0.47-0.93,0.88-1.16
				c0.7-0.47,1.91-0.51,3.86-0.51c1.49,0.05,2.75,0.14,3.03,0.14C-57.69,14.31-57.83,13.94-58.06,13.89"/>
		</g>
		<g id="g670" transform="translate(0.724499, 9.182782)">
			<path id="path672" class="st1" d="M-61.33,16.73c-0.79-0.47-1.91-0.47-2.14-0.51s-0.28-0.28,0.05-0.42
				c0.47-0.19,1.3-0.05,1.3-0.19c0.05-0.14-0.14-0.42-0.79-0.65c-0.33-0.14-0.98-0.19-1.49-0.19c-1.35,0.14-2.09,0.98-2.23,1.12
				c-0.14,0.14-0.37,0.37-0.47,0.74c-0.09,0.47,0.23,0.84,0.51,1.26c0.14,0.23,0.28,0.42,0.33,0.56c0.05,0.23,0.05,0.37-0.19,0.51
				c-0.23,0.19-0.09,0.51,0.37,0.37c0.56-0.14,0.84-0.28,1.26-0.65c0.56-0.47,0.56-0.79,0.98-1.16c0.37-0.37,1.68-0.37,2.33-0.28
				C-60.68,17.42-60.49,17.24-61.33,16.73"/>
		</g>
		<g id="g674" transform="translate(1.361417, 0.815349)">
			<path id="path676" class="st1" d="M-20.9,31.3c0-1.49-0.42-4.42-0.51-5.03c-0.19-1.77-0.6-4.24-2-7.68
				c-1.49-3.72-2.75-6.33-6.47-9.96c-4.37-4.24-9.54-6-10.75-6.33c-0.19-0.05-0.28-0.09-0.28-0.09l0,0
				c-2.33-0.61-4.33-0.74-6.42-0.79c-7.4-0.14-12.84,2.93-14.75,4.98c-0.88,0.93-1.54,1.91-2,2.84c-1.49,2.33-1.68,4.89-1.77,5.17
				l0,0c0.14-0.09,1.91-2.05,3.91-2.61c0.47,0.79,1.54,1.86,3.58,2.89c2.09,1.07,4.42,1.68,4.42,1.68s2.89,0.84,5.82,1.82
				c2.33,0.84,4.75,3.77,4.75,4.42c0,1.26-1.26,2.47-2.51,6.28c-1.35,4.1-1.82,8-1.4,12.57c0,0,0,0,0,0.05v0.05
				c0.28,2.7,0.88,5.68,1.77,9.08l0,0c0.74,2.75,0.98,5.49,0.88,8.1c-0.65,6.75-4.84,11.82-9.87,14.66l0,0l0,0
				c-0.98,0.51-1.91,1.02-2.93,1.4c0.14,0,1.82,0.05,1.95,0.05c4.24-0.05,10.19-0.84,15.31-6.1c1.77-1.82,3.16-3.72,4.05-5.54
				c0.37-0.74,1.86-3.4,2.75-8.7c0.14-0.7,0.47-2.98,0.47-2.98s0.23,1.63,0.28,3.07c0.05,2,0.14,4.47-1.07,8.24
				c0.42-0.09,2.42-1.54,4.75-4.7c0.88-1.16,1.68-2.33,2.37-3.58C-23.23,49.26-20.81,43.07-20.9,31.3"/>
		</g>
		<g id="g678" transform="translate(5.977226, 0.048019)">
			<path id="path680" class="st2" d="M-43.85,20.49c-0.05,0.23,0.05,0.28,0.28,0.14c0.93-0.74,2.42-1.82,4.51-2.23
				c2.51-0.47,3.86-1.63,4.56-2.98c0.37-0.79,0.7-2.28,1.91-3.12c0.37-0.28,0-0.37-0.33-0.33c-0.28,0.05-1.95,0.51-3.03,1.63
				c-0.74-0.74-0.65-1.77-0.56-2.37c0.05-0.19-0.09-0.28-0.33-0.14c-0.79,0.65-1.35,1.49-1.54,2.09c0,0-0.65-0.47-0.28-1.58
				c0.05-0.19-0.09-0.14-0.14-0.05c-1.16,0.84-1.07,2.09-1.07,2.23c0,0-1.16-0.65-2.98-0.88c-0.28-1.16-2.23-1.49-2.56-0.28
				c-0.28,1.07,1.58,1.91,2.37,1.02c0,0,2.56,0.28,4.79,2.47c0.23,0.23,0.28,0.42,0.14,0.51c-0.09,0.09-0.42-0.09-0.84-0.37
				c-0.47-0.28-3.54-2.23-6.19-0.93c-0.14,0.05-0.14,0.19-0.05,0.19c0.51,0.14,1.63,0.51,1.91,1.26c-0.74,0.19-1.86,0.6-2.7,2.28
				c-0.23,0.47,0.05,0.51,0.28,0.33c0.28-0.19,1.95-1.07,2.56-1.02C-43.06,18.49-43.61,19.28-43.85,20.49 M-22.58,8.07
				c-0.09,0.84,0.14,3.21,0.79,5.35c0.7,2.28-0.56,4.37-2.65,5.54c-0.65-1.02-2-1.49-3.21-1.58c-0.7-0.05-0.51,0.28-0.14,0.37
				c4.93,2.05,3.21,7.68,2.56,8.89c-0.65,1.21-0.47,2.84-0.47,2.84c-1.54-0.47-2.93-0.14-4.19,0.05c-2.42,0.37-4.1-0.05-5.35-0.6
				c-1.02-0.47-2.61-1.49-2.84-3.44c-0.05-0.37-0.28-0.6-0.42,0.05c-0.23,1.16-0.05,2.56,0.74,3.44c-0.88,4.42-9.73,4.1-9.73,4.1
				c-0.56-1.91-4.61-2.47-5.49-5.26c-0.42-1.3-0.09-2.7-0.09-2.7c2.33,0.51,3.63-0.51,4.37-1.44c0.42-0.51,0.09-0.56-0.23-0.37
				c-2.93,1.82-5.63,0-6.19-2.56c-0.74-2.79-3.54-3.72-3.54-3.72c2-1.26,1.44-3.4,2.51-5.21c2.75-4.79,6.7-3.35,6.7-3.35
				c0.37,1.16,1.54,2,2.7,2.28c0.65,0.19,0.56-0.14,0.28-0.37c-2.79-2-2.09-5.12,0.09-6.56c3.86-2.56,4.51-3.68,4.51-3.68
				c0.7,0.51,2.61,0.98,4.56,1.16c4.42,0.37,5.45,2.61,5.54,3.49c-0.51,0.28-1.4,1.07-1.82,2.37c-0.23,0.65,0.14,0.56,0.37,0.28
				c1.72-2.28,3.82-1.86,5.82-0.98C-26.21,7-24.39,8.44-22.58,8.07"/>
		</g>
	</g>
</g>
</svg>
