<?xml version="1.0" encoding="utf-8"?>
<!-- Generator: Adobe Illustrator 25.4.1, SVG Export Plug-In . SVG Version: 6.00 Build 0)  -->
<svg version="1.1" xmlns="http://www.w3.org/2000/svg" xmlns:xlink="http://www.w3.org/1999/xlink" x="0px" y="0px"
	 viewBox="0 0 279.24 80" style="enable-background:new 0 0 279.24 80;" xml:space="preserve">
<style type="text/css">
	.st0{fill:#413691;}
	.st1{fill:url(#path656_00000099645872843590616980000015306095318624449467_);}
	.st2{fill:#EF3138;}
</style>
<g id="Layer_2">
</g>
<g id="Layer_1">
	<g>
		<g id="g556" transform="translate(0.000000, 9.931034)">
			<g id="Group">
				<g id="g558">
					<g id="g564" transform="translate(76.640843, 18.091173)">
						<path id="path566" class="st0" d="M126.28,46.77c0-0.19-0.09-0.28-0.28-0.28h-0.37c-0.05,0-0.05,0-0.05,0.05v0.42
							c0,0.05,0,0.05,0.05,0.05H126C126.18,47,126.28,46.91,126.28,46.77L126.28,46.77z M125.3,48.03c-0.05,0-0.05-0.05-0.05-0.05
							V46.3c0-0.05,0.05-0.05,0.05-0.05h0.7c0.42,0,0.65,0.19,0.65,0.56c0,0.28-0.14,0.42-0.37,0.51l0.37,0.7
							c0.05,0.05,0,0.05-0.05,0.05h-0.19c-0.05,0-0.05-0.05-0.09-0.05l-0.37-0.65h-0.33c-0.05,0-0.05,0-0.05,0.05v0.65
							c0,0.05-0.05,0.05-0.05,0.05h-0.23V48.03z M127.25,47.14c0-0.79-0.6-1.35-1.35-1.35c-0.79,0-1.35,0.56-1.35,1.35
							s0.6,1.35,1.35,1.35C126.65,48.45,127.25,47.89,127.25,47.14L127.25,47.14z M124.23,47.14c0-0.93,0.7-1.63,1.63-1.63
							c0.93,0,1.63,0.7,1.63,1.63s-0.7,1.68-1.63,1.68C124.93,48.77,124.23,48.07,124.23,47.14L124.23,47.14z"/>
					</g>
					<g id="g568" transform="translate(0.024121, 0.074050)">
						<path id="path570" class="st0" d="M23.85,16.24v24.99c0,1.12,0,2.7-1.54,2.7h-4.24V32.62H5.75v8.61c0,1.12,0.09,2.7-1.44,2.7
							h-4.33V18.94c0-1.12,0-2.7,1.54-2.7h4.24v11.91h12.38v-9.21c0-1.07-0.09-2.7,1.44-2.7L23.85,16.24L23.85,16.24z"/>
					</g>
					<g id="g572" transform="translate(10.284890, 0.065845)">
						<path id="path574" class="st0" d="M34.47,31.88l-3.96-11.63L24.88,35.6l0.23,0.05c0.74-1.4,2.61-3.82,5.86-3.82L34.47,31.88
							L34.47,31.88L34.47,31.88z M43.64,43.93h-5.07l-2.65-7.73H24.88l-1.91,5.68c-0.33,0.88-0.74,2.05-2.19,2.05H16.6l9.03-25.41
							c0.33-0.88,0.74-2.28,2.28-2.28h6.84l9.54,26.81C44.43,43.56,44.19,43.93,43.64,43.93L43.64,43.93z"/>
					</g>
					<g id="g576" transform="translate(20.347104, 0.074050)">
						<path id="path578" class="st0" d="M73.07,16.24l-9.21,25.64c-0.19,0.56-0.56,2.05-2,2.05h-3.54l-5.26-14.75L48.4,41.93
							c-0.19,0.56-0.56,2.05-2,2.05h-3.86L33,17.17c-0.19-0.56,0.09-0.88,0.65-0.88h5.07l6.89,20.62l4.98-14.71l-1.82-5.03
							c-0.19-0.56,0.09-0.88,0.65-0.88h5.12l6.38,20.06l5.54-18.06c0.28-0.88,0.74-2,2.19-2h4.42V16.24z"/>
					</g>
					<g id="g580" transform="translate(35.038663, 0.065845)">
						<path id="path582" class="st0" d="M74.43,31.88l-3.96-11.63L64.84,35.6l0.23,0.05c0.74-1.4,2.61-3.82,5.86-3.82L74.43,31.88
							L74.43,31.88L74.43,31.88z M83.6,43.93h-5.07l-2.65-7.73H64.89l-1.91,5.68c-0.33,0.88-0.74,2.05-2.19,2.05H56.6l9.03-25.41
							c0.33-0.88,0.74-2.28,2.28-2.28h6.84l9.54,26.81C84.43,43.56,84.15,43.93,83.6,43.93L83.6,43.93z"/>
					</g>
					<g id="g584" transform="translate(46.761322, 0.141520)">
						<path id="path586" class="st0" d="M75.79,18.86c0-1.12,0-2.7,1.35-2.7h4.42v21.31v3.68c0,1.12,0,2.7-1.35,2.7h-4.42V18.86z"/>
					</g>
					<g id="g588" transform="translate(51.237106, 0.141520)">
						<path id="path590" class="st0" d="M83.03,18.86c0-1.12,0-2.7,1.35-2.7h4.42v20.85v4.14c0,1.12,0,2.7-1.35,2.7h-4.42V18.86z"/>
					</g>
					<g id="g592" transform="translate(54.548669, 0.065845)">
						<path id="path594" class="st0" d="M106.3,31.88l-3.96-11.63L96.71,35.6l0.23,0.05c0.74-1.4,2.61-3.82,5.86-3.82L106.3,31.88
							L106.3,31.88L106.3,31.88z M115.47,43.93h-5.07l-2.65-7.73H96.71l-1.91,5.68c-0.33,0.88-0.74,2.05-2.19,2.05h-4.19l9.03-25.41
							c0.33-0.88,0.74-2.28,2.28-2.28h6.84l9.54,26.81C116.31,43.56,116.03,43.93,115.47,43.93L115.47,43.93z"/>
					</g>
					<g id="g596" transform="translate(66.314677, 0.074050)">
						<path id="path598" class="st0" d="M131.89,16.24v24.99c0,1.12,0,2.7-1.35,2.7h-3.63l-13.68-18.29v15.59c0,1.12,0,2.7-1.49,2.7
							h-4.1V18.94c0-1.12,0-2.7,1.35-2.7h3.77L126.3,34.9V18.94c0-1.12-0.23-2.7,1.3-2.7L131.89,16.24L131.89,16.24z"/>
					</g>
					<g id="g600" transform="translate(37.522825, 14.053986)">
						<path id="path602" class="st0" d="M68.77,47.9l-2.19-6.28h-0.05L64.3,47.9H68.77z M65.65,39.16c0.05-0.09,0.09-0.19,0.23-0.19
							h1.35c0.14,0,0.23,0.09,0.28,0.19l4.79,13.45c0.05,0.09-0.05,0.19-0.14,0.19h-1.44c-0.14,0-0.23-0.05-0.28-0.19l-1.07-3.03
							H63.7l-1.07,3.03c-0.05,0.14-0.14,0.19-0.28,0.19h-1.44c-0.14,0-0.19-0.09-0.14-0.19L65.65,39.16z"/>
					</g>
					<g id="g604" transform="translate(43.574507, 14.111946)">
						<path id="path606" class="st0" d="M70.65,39.08c0-0.09,0.09-0.19,0.19-0.19h1.4c0.14,0,0.19,0.09,0.19,0.19v10.66v2.79
							c0,0.09-0.09,0.19-0.19,0.19h-1.4c-0.14,0-0.19-0.09-0.19-0.19V39.08z"/>
					</g>
					<g id="g608" transform="translate(46.729699, 14.116679)">
						<path id="path610" class="st0" d="M83.49,42.84c0-1.44-0.98-2.28-2.61-2.28h-3.3c-0.09,0-0.14,0.05-0.14,0.09v4.37
							c0,0.09,0.05,0.09,0.14,0.09h3.3C82.51,45.17,83.49,44.29,83.49,42.84L83.49,42.84z M83.81,52.71c-0.14,0-0.19-0.05-0.28-0.19
							l-2.79-5.68h-3.12c-0.09,0-0.14,0.05-0.14,0.09v5.54c0,0.09-0.09,0.19-0.19,0.19h-1.4c-0.14,0-0.19-0.09-0.19-0.19V39.03
							c0-0.09,0.09-0.19,0.19-0.19h5.07c2.61,0,4.37,1.58,4.37,3.96c0,1.91-1.07,3.26-2.75,3.77l2.98,5.82
							c0.09,0.09,0.05,0.23-0.14,0.23L83.81,52.71L83.81,52.71z"/>
					</g>
					<g id="g612" transform="translate(52.525614, 14.111946)">
						<path id="path614" class="st0" d="M85.09,39.08c0-0.09,0.09-0.19,0.19-0.19h1.4c0.14,0,0.19,0.09,0.19,0.19V50.9
							c0,0.09,0.05,0.09,0.14,0.09h6.7c0.14,0,0.19,0.09,0.19,0.19v1.26c0,0.09-0.09,0.19-0.19,0.19h-8.42
							c-0.14,0-0.19-0.09-0.19-0.19V39.08z"/>
					</g>
					<g id="g616" transform="translate(57.408978, 14.111946)">
						<path id="path618" class="st0" d="M93.14,39.08c0-0.09,0.09-0.19,0.19-0.19h1.4c0.14,0,0.19,0.09,0.19,0.19v9.82v3.58
							c0,0.09-0.09,0.19-0.19,0.19h-1.4c-0.14,0-0.19-0.09-0.19-0.19V39.08z"/>
					</g>
					<g id="g620" transform="translate(60.564394, 14.111946)">
						<path id="path622" class="st0" d="M98.2,39.08c0-0.09,0.09-0.19,0.19-0.19h1.3c0.19,0,0.28,0.05,0.37,0.19l6.33,10.38h0.09
							V39.08c0-0.09,0.09-0.19,0.19-0.19h1.3c0.14,0,0.19,0.09,0.19,0.19v13.45c0,0.09-0.09,0.19-0.19,0.19h-1.3
							c-0.14,0-0.28-0.05-0.37-0.19L99.92,42.2h-0.05v10.33c0,0.09-0.09,0.19-0.19,0.19h-1.3c-0.14,0-0.19-0.09-0.19-0.19V39.08
							L98.2,39.08z"/>
					</g>
					<g id="g624" transform="translate(66.763209, 14.111946)">
						<path id="path626" class="st0" d="M108.33,39.08c0-0.09,0.09-0.19,0.19-0.19h8.42c0.14,0,0.19,0.09,0.19,0.19v1.26
							c0,0.09-0.09,0.19-0.19,0.19h-6.66c-0.09,0-0.14,0.05-0.14,0.09v4.05c0,0.09,0.05,0.09,0.14,0.09h5.68
							c0.14,0,0.19,0.09,0.19,0.19v1.26c0,0.09-0.09,0.19-0.19,0.19h-5.68c-0.09,0-0.14,0.05-0.14,0.09v4.19
							c0,0.09,0.05,0.09,0.14,0.09h6.66c0.14,0,0.19,0.09,0.19,0.19v1.26c0,0.09-0.09,0.19-0.19,0.19h-8.42
							c-0.14,0-0.19-0.09-0.19-0.19V39.08z"/>
					</g>
					<g id="g628" transform="translate(71.902384, 13.971399)">
						<path id="path630" class="st0" d="M116.71,51.35c-0.09-0.09-0.14-0.19-0.05-0.33l0.93-1.02c0.09-0.09,0.19-0.09,0.28-0.05
							c0.93,0.74,2.33,1.44,3.91,1.44c1.95,0,3.07-0.98,3.07-2.37c0-1.21-0.7-1.95-2.93-2.28l-0.7-0.09
							c-2.75-0.37-4.1-1.68-4.1-3.82c0-2.47,1.82-4.05,4.56-4.05c1.63,0,3.21,0.51,4.28,1.26c0.14,0.09,0.14,0.19,0.05,0.28
							l-0.7,1.12c-0.09,0.09-0.19,0.09-0.28,0.05c-1.16-0.7-2.19-1.02-3.4-1.02c-1.72,0-2.65,0.93-2.65,2.23
							c0,1.16,0.79,1.95,2.93,2.19l0.7,0.09c2.75,0.37,4.1,1.58,4.1,3.86c0,2.42-1.72,4.19-5.12,4.19
							C119.64,53.11,117.73,52.28,116.71,51.35"/>
					</g>
				</g>
			</g>
		</g>
		<g id="Group_1_" transform="translate(79.448276, 0.000000)">
			<g id="g638_00000087389436649152028710000006677158866083463347_" transform="translate(0.000000, 0.112508)">
				<g id="g644_00000044175567263031562460000004292534448017551503_">
					<g id="g646_00000067939159002239179590000009638595894257600897_">
						
							<linearGradient id="path656_00000075148597596233866760000004179927812427923112_" gradientUnits="userSpaceOnUse" x1="-109.7848" y1="-654.8113" x2="-109.8873" y2="-653.3321" gradientTransform="matrix(17.9654 0 0 30.4448 2125.2209 19943.3184)">
							<stop  offset="0" style="stop-color:#D2068A"/>
							<stop  offset="0.737" style="stop-color:#413691"/>
							<stop  offset="1" style="stop-color:#413691"/>
						</linearGradient>
						
							<path id="path656_00000090264220418030536170000015395550093038672033_" style="fill:url(#path656_00000075148597596233866760000004179927812427923112_);" d="
							M128.96,33.02c0,16.29,11.87,29.83,27.5,32.53l0,0c-0.14,1.16-0.28,2.28-0.47,3.16l0,0c-1.07,5.21-4.7,10.01-6.7,11.17l0,0
							c5.26-0.47,9.45-2,11.96-4.42l0,0l0,0c-0.19,0-1.82-0.05-1.95-0.05l0,0c0.98-0.37,2-0.84,2.93-1.4l0,0l0,0l0,0l0,0l0,0l0,0
							l0,0c0.37-3.03,0.23-6.66-0.56-11.12l0,0c-1.07-5.77-3.26-7.73-3.63-8.1l0,0C158,54.76,158,54.76,158,54.76l0,0
							c0-0.05,0.05-0.05,0.09-0.05l0,0c1.86-1.16,3.49-2.51,4.24-3.16l0,0c0.56-0.47,0.37-0.7-0.23-0.47l0,0
							c-1.58,0.7-4.14,1.58-7.45,2l0,0c-2.89,0.37-6.33,0.28-10.05-0.42l0,0c0,0-2.61-0.37-2.23-2.98l0,0
							c0.09-0.74,0.47-1.49,0.79-2.23l0,0c0.09-0.23,0.33-0.93,0.23-1.49l0,0c-0.05-0.14-0.23-0.42-0.33-0.56l0,0
							c-0.19-0.28-0.28-0.7-0.05-1.16l0,0c0.19-0.37,0.84-0.98,1.82-1.07l0,0c0.47-0.05,0.98-0.05,1.54-0.05l0,0
							c0.7,0,1.4,0,1.95-0.09l0,0c1.49-0.28,2.42-1.26,2.23-1.58l0,0c-0.14-0.19-1.49,0.05-1.91,0.14l0,0
							c-0.65,0.14-1.91-0.42-2.56-0.6l0,0c-0.98-0.33-1.54-0.56-2.37-0.19l0,0c-0.56,0.23-0.98,1.3-1.12,0.79l0,0
							c-0.05-0.23,0.05-0.47,0.23-0.74l0,0c0.19-0.28,0.56-0.74,0.56-1.02l0,0c0.05-0.28,0.14-0.74-0.74-1.35l0,0
							c-0.65-0.47-1.07-0.74-1.3-1.02l0,0c-0.84-0.84-0.98-1.68,0.65-3.03l0,0c1.16-0.93,3.68-3.49,4.42-5.07l0,0
							c0.14-0.23,0.74-1.21,0.05-2.23l0,0c-0.51-0.74-0.6-0.88-0.74-1.16l0,0c-0.37-0.7-0.14-1.35,0.51-2.28l0,0
							c0.28-0.47,0.56-1.02,1.16-2.93l0,0c0.74-2.19,1.82-4.1,3.4-5.72l0,0l0,0c0.14-0.33,0.28-2.84,1.77-5.17l0,0
							c0.47-0.93,1.16-1.91,2-2.84l0,0c0.6-0.61,1.54-1.35,2.75-2.05l0,0c1.26-0.7,2.75-1.4,4.56-1.91l0,0
							c2.14-0.61,4.65-1.02,7.45-1.02l0,0c2.09,0.05,4.05,0.19,6.42,0.79l0,0l0,0l0,0c0,0,0.14,0.05,0.28,0.09l0,0
							c-4.24-1.95-8.89-3.03-13.87-3.03l0,0C143.86-0.02,128.96,14.78,128.96,33.02 M142.23,37.07c-0.05,0.14,0.05,0.19,0.19,0.23
							l0,0c0.61,0.28,0.88,0.42,2,1.07l0,0c1.3,0.74,1.86,0.14,2.14-0.37l0,0c0.09-0.14,0.19-0.7,0.05-0.84l0,0
							c-0.14-0.19-0.37-0.05-0.6,0.19l0,0c-0.28,0.28-0.98,0.14-1.21,0.09l0,0c-0.23-0.05-1.3-0.28-1.95-0.42l0,0
							c-0.14-0.05-0.23-0.05-0.33-0.05l0,0C142.32,36.98,142.23,36.98,142.23,37.07"/>
					</g>
				</g>
			</g>
			<g id="g660" transform="translate(6.993562, 0.000000)">
				<g id="g666_00000135689681110123033410000006097578406997044646_" transform="translate(0.010605, 8.040664)">
					<path id="path668_00000067922417432608224310000001486707125590469011_" class="st0" d="M150.35,13.89
						c-0.19-0.05-4.56-1.02-6.05-0.93s-2.7,0.93-3.49,1.82c-0.42,0.47-0.6,0.93-0.7,1.35c-0.05,0.7,0.47,1.02,1.02,0.84
						c0.42-0.14,0.74-0.47,1.21-1.07c0.28-0.42,0.47-0.93,0.88-1.16c0.7-0.47,1.91-0.51,3.86-0.51c1.49,0.05,2.75,0.14,3.03,0.14
						C150.72,14.31,150.58,13.94,150.35,13.89"/>
				</g>
				<g id="g670_00000009592388776903907740000008301076404772761521_" transform="translate(0.724499, 9.182782)">
					<path id="path672_00000039849137352731601750000004574388961820152482_" class="st0" d="M147.08,16.73
						c-0.79-0.47-1.91-0.47-2.14-0.51c-0.23-0.05-0.28-0.28,0.05-0.42c0.47-0.19,1.3-0.05,1.3-0.19c0.05-0.14-0.14-0.42-0.79-0.65
						c-0.33-0.14-0.98-0.19-1.49-0.19c-1.35,0.14-2.09,0.98-2.23,1.12c-0.14,0.14-0.37,0.37-0.47,0.74
						c-0.09,0.47,0.23,0.84,0.51,1.26c0.14,0.23,0.28,0.42,0.33,0.56c0.05,0.23,0.05,0.37-0.19,0.51c-0.23,0.19-0.09,0.51,0.37,0.37
						c0.56-0.14,0.84-0.28,1.26-0.65c0.56-0.47,0.56-0.79,0.98-1.16c0.37-0.37,1.68-0.37,2.33-0.28
						C147.73,17.42,147.92,17.24,147.08,16.73"/>
				</g>
				<g id="g674_00000172398577744387128050000001334821848748380086_" transform="translate(1.361417, 0.815349)">
					<path id="path676_00000178167666715981670590000001255677957582747043_" class="st0" d="M187.51,31.3
						c0-1.49-0.42-4.42-0.51-5.03c-0.19-1.77-0.6-4.24-2-7.68c-1.49-3.72-2.75-6.33-6.47-9.96c-4.37-4.24-9.54-6-10.75-6.33
						c-0.19-0.05-0.28-0.09-0.28-0.09l0,0c-2.33-0.61-4.33-0.74-6.42-0.79c-7.4-0.14-12.84,2.93-14.75,4.98
						c-0.88,0.93-1.54,1.91-2,2.84c-1.49,2.33-1.68,4.89-1.77,5.17l0,0c0.14-0.09,1.91-2.05,3.91-2.61
						c0.47,0.79,1.54,1.86,3.58,2.89c2.09,1.07,4.42,1.68,4.42,1.68s2.89,0.84,5.82,1.82c2.33,0.84,4.75,3.77,4.75,4.42
						c0,1.26-1.26,2.47-2.51,6.28c-1.35,4.1-1.82,8-1.4,12.57c0,0,0,0,0,0.05v0.05c0.28,2.7,0.88,5.68,1.77,9.08l0,0
						c0.74,2.75,0.98,5.49,0.88,8.1c-0.65,6.75-4.84,11.82-9.87,14.66l0,0l0,0c-0.98,0.51-1.91,1.02-2.93,1.4
						c0.14,0,1.82,0.05,1.95,0.05c4.24-0.05,10.19-0.84,15.31-6.1c1.77-1.82,3.16-3.72,4.05-5.54c0.37-0.74,1.86-3.4,2.75-8.7
						c0.14-0.7,0.47-2.98,0.47-2.98s0.23,1.63,0.28,3.07c0.05,2,0.14,4.47-1.07,8.24c0.42-0.09,2.42-1.54,4.75-4.7
						c0.88-1.16,1.68-2.33,2.37-3.58C185.18,49.26,187.6,43.07,187.51,31.3"/>
				</g>
				<g id="g678" transform="translate(5.977226, 0.048019)">
					<path id="path680_00000052795657677948982310000009572204913571051181_" class="st2" d="M164.57,20.49
						c-0.05,0.23,0.05,0.28,0.28,0.14c0.93-0.74,2.42-1.82,4.51-2.23c2.51-0.47,3.86-1.63,4.56-2.98c0.37-0.79,0.7-2.28,1.91-3.12
						c0.37-0.28,0-0.37-0.33-0.33c-0.28,0.05-1.95,0.51-3.03,1.63c-0.74-0.74-0.65-1.77-0.56-2.37c0.05-0.19-0.09-0.28-0.33-0.14
						c-0.79,0.65-1.35,1.49-1.54,2.09c0,0-0.65-0.47-0.28-1.58c0.05-0.19-0.09-0.14-0.14-0.05c-1.16,0.84-1.07,2.09-1.07,2.23
						c0,0-1.16-0.65-2.98-0.88c-0.28-1.16-2.23-1.49-2.56-0.28c-0.28,1.07,1.58,1.91,2.37,1.02c0,0,2.56,0.28,4.79,2.47
						c0.23,0.23,0.28,0.42,0.14,0.51c-0.09,0.09-0.42-0.09-0.84-0.37c-0.47-0.28-3.54-2.23-6.19-0.93
						c-0.14,0.05-0.14,0.19-0.05,0.19c0.51,0.14,1.63,0.51,1.91,1.26c-0.74,0.19-1.86,0.6-2.7,2.28c-0.23,0.47,0.05,0.51,0.28,0.33
						c0.28-0.19,1.95-1.07,2.56-1.02C165.36,18.49,164.8,19.28,164.57,20.49 M185.83,8.07c-0.09,0.84,0.14,3.21,0.79,5.35
						c0.7,2.28-0.56,4.37-2.65,5.54c-0.65-1.02-2-1.49-3.21-1.58c-0.7-0.05-0.51,0.28-0.14,0.37c4.93,2.05,3.21,7.68,2.56,8.89
						c-0.65,1.21-0.47,2.84-0.47,2.84c-1.54-0.47-2.93-0.14-4.19,0.05c-2.42,0.37-4.1-0.05-5.35-0.6c-1.02-0.47-2.61-1.49-2.84-3.44
						c-0.05-0.37-0.28-0.6-0.42,0.05c-0.23,1.16-0.05,2.56,0.74,3.44c-0.88,4.42-9.73,4.1-9.73,4.1c-0.56-1.91-4.61-2.47-5.49-5.26
						c-0.42-1.3-0.09-2.7-0.09-2.7c2.33,0.51,3.63-0.51,4.37-1.44c0.42-0.51,0.09-0.56-0.23-0.37c-2.93,1.82-5.63,0-6.19-2.56
						c-0.74-2.79-3.54-3.72-3.54-3.72c2-1.26,1.44-3.4,2.51-5.21c2.75-4.79,6.7-3.35,6.7-3.35c0.37,1.16,1.54,2,2.7,2.28
						c0.65,0.19,0.56-0.14,0.28-0.37c-2.79-2-2.09-5.12,0.09-6.56c3.86-2.56,4.51-3.68,4.51-3.68c0.7,0.51,2.61,0.98,4.56,1.16
						c4.42,0.37,5.45,2.61,5.54,3.49c-0.51,0.28-1.4,1.07-1.82,2.37c-0.23,0.65,0.14,0.56,0.37,0.28c1.72-2.28,3.82-1.86,5.82-0.98
						C182.2,7,184.02,8.44,185.83,8.07"/>
				</g>
			</g>
		</g>
	</g>
</g>
</svg>
