<?xml version="1.0" encoding="utf-8"?>
<!-- Generator: Adobe Illustrator 25.4.1, SVG Export Plug-In . SVG Version: 6.00 Build 0)  -->
<svg version="1.1" id="Layer_2_00000159471598350358213750000014612203606435250611_"
	 xmlns="http://www.w3.org/2000/svg" xmlns:xlink="http://www.w3.org/1999/xlink" x="0px" y="0px" viewBox="0 0 99.9 80"
	 style="enable-background:new 0 0 99.9 80;" xml:space="preserve">
<style type="text/css">
	.st0{fill:#D30C14;}
	.st1{fill:#FDD700;}
	.st2{fill:#007F38;}
</style>
<path class="st0" d="M56,17.4L71.7,0h28.2l-6.3,16.8C93.6,16.8,67.4,13.5,56,17.4z"/>
<path class="st1" d="M0,80l6.1-6.7c0,0,17.7,1.4,28.9-1.3c11.2-2.7,20.8-5.7,28-13.8S68.7,39.1,58,32H43l5.9-6.7
	c0,0,6.5-5.9,14.1-5.9s29.4,0,29.4,0l-14,38c0,0-8.4,22.6-37,22.6S0,80,0,80z"/>
<path class="st2" d="M10,68.6l30.8-34.2h12c0,0,9.5,7.9,7.1,17.1S42.7,70.9,10,68.6z"/>
<polygon class="st2" points="87.6,32.7 86.4,26.4 81.9,31.3 74.6,30.1 78.5,35.9 74.6,41.4 81.1,39 83.6,43.5 "/>
</svg>
