<?xml version="1.0" encoding="utf-8"?>
<!-- Generator: Adobe Illustrator 25.4.1, SVG Export Plug-In . SVG Version: 6.00 Build 0)  -->
<svg version="1.1" id="Layer_2_00000159471598350358213750000014612203606435250611_"
	 xmlns="http://www.w3.org/2000/svg" xmlns:xlink="http://www.w3.org/1999/xlink" x="0px" y="0px" viewBox="0 0 510.6 80"
	 style="enable-background:new 0 0 510.6 80;" xml:space="preserve">
<style type="text/css">
	.st0{fill:#D30C14;}
	.st1{fill:#FDD700;}
	.st2{fill:#007F38;}
</style>
<g>
	<path class="st0" d="M466.7,17.4L482.5,0h28.2l-6.3,16.8C504.4,16.8,478.2,13.5,466.7,17.4z"/>
	<path class="st1" d="M410.8,80l6.1-6.7c0,0,17.7,1.4,28.9-1.3c11.2-2.7,20.8-5.7,28-13.8s5.6-19.1-5.1-26.2h-15l5.9-6.7
		c0,0,6.5-5.9,14.1-5.9c7.7,0,29.4,0,29.4,0l-14,38c0,0-8.4,22.6-37,22.6C423.7,80,410.8,80,410.8,80z"/>
	<path class="st2" d="M420.8,68.6l30.8-34.2h12c0,0,9.5,7.9,7.1,17.1C468.4,60.7,453.5,70.9,420.8,68.6z"/>
	<polygon class="st2" points="498.4,32.7 497.2,26.4 492.7,31.3 485.4,30.1 489.3,35.9 485.4,41.4 491.9,39 494.4,43.5 	"/>
	<g>
		<rect x="52.8" y="11.1" class="st0" width="7" height="46.9"/>
		<polygon class="st0" points="402.3,52.9 402.3,11.1 395.3,11.1 395.3,52.9 395.3,58 402.3,58 420,58 420,52.9 		"/>
		<path class="st0" d="M362.7,10.5l-18.8,46.7h6.3l6.6-16.4H374l6.6,16.4h7.1l-18.5-46.7H362.7z M358.5,36.3l6.8-16.9l6.9,16.9
			H358.5z"/>
		<path class="st0" d="M18.8,11.3L0,58h6.3l6.6-16.4H30L36.7,58h7.1L25.2,11.3H18.8z M14.6,37.2l6.8-16.9l6.9,16.9H14.6z"/>
		<path class="st0" d="M320.1,14.8c10.6,0,14,6.6,14,6.6L336,12c0,0-6-0.9-11.4-1.5C319.1,9.8,303.7,8.6,298,23
			c-5.7,14.3,0.1,26.6,6.4,32c6.3,5.4,23.7,4.9,31.6,2.2V38h-6.8v15c0,0-1.2,1.3-10.8,1.3s-15-8.2-15-19.8
			C303.4,22.7,309.6,14.8,320.1,14.8z"/>
		<polygon class="st0" points="261.8,11.1 261.8,16.1 261.8,52.9 261.8,58 268.8,58 286.3,58 286.3,52.9 268.8,52.9 268.8,36.3 
			283.7,36.3 283.7,31.3 268.8,31.3 268.8,16.1 286.3,16.1 286.3,11.1 268.8,11.1 		"/>
		<polygon class="st0" points="174.4,11.1 174.4,16.1 174.4,52.9 174.4,58 181.4,58 198.8,58 198.8,52.9 181.4,52.9 181.4,36.3 
			196.2,36.3 196.2,31.3 181.4,31.3 181.4,16.1 198.8,16.1 198.8,11.1 181.4,11.1 		"/>
		<polygon class="st0" points="243.5,44.3 213.1,11.1 208.7,11.1 208.7,58 214.8,58 214.8,25.7 245.2,58.1 249.5,58.1 249.5,11.2 
			243.5,11.2 		"/>
		<path class="st0" d="M154.9,32.9c-3.6-2-11.3-5.6-12.8-8.7s0.4-7.8,5-8.9c4.5-1.2,6.9,0.6,8.3,2.5c1.4,1.8,5.2,3.8,5.2,3.8l1-7.9
			c0,0-3.8-2.6-10.1-3.5s-13,1.3-16.1,8.8c-3,7.5,3.6,12.4,6.1,14c2.6,1.6,8.6,4.9,11.4,6.5c2.8,1.6,7,6.6,3.3,11.3
			c-3.7,4.7-11.6,3.6-13.5,2.9c-1.8-0.6-7.2-5.6-7.2-5.6l-0.9,9.2c0,0,1.8,2,11.9,2c10,0,16.6-4,18-12.2
			C165.9,38.9,158.5,34.9,154.9,32.9z"/>
		<path class="st0" d="M106,23.3c0-10-8.7-12.2-14.4-12.2c-2.4,0-5.4,0-8.1,0h-7V58h7V38.3h3.9L100.8,58h8.5L94.8,36.8
			C94.8,36.8,106,33.3,106,23.3z M83.6,33.2V16.2h5.1c0,0,10.3-0.8,10.3,7.5s-7.6,9.4-10.9,9.4C86.2,33.2,84.7,33.2,83.6,33.2z"/>
	</g>
</g>
</svg>
