<?xml version="1.0" encoding="utf-8"?>
<!-- Generator: Adobe Illustrator 25.4.1, SVG Export Plug-In . SVG Version: 6.00 Build 0)  -->
<svg version="1.1" id="Layer_1" xmlns="http://www.w3.org/2000/svg" xmlns:xlink="http://www.w3.org/1999/xlink" x="0px" y="0px"
	 viewBox="0 0 81.85 80" style="enable-background:new 0 0 81.85 80;" xml:space="preserve">
<style type="text/css">
	.st0{fill:#A1DBE7;}
	.st1{fill:#FFF06C;}
</style>
<g id="Clip-9">
</g>
<g id="Clip-2">
</g>
<g>
	<g transform="matrix(1.8 0 0 1.8 100 145.999)">
		<path d="M-51.11-40.23l1.39-2.36l0.44,2.16L-51.11-40.23z M-50-44.42l-5.05,7.75l1.71-0.09l1.41-2.14l2.96-0.29l0.54,2.07
			l1.64-0.07l-1.91-7.44L-50-44.42z"/>
		<path d="M-45.12-37.23l1.56-0.11l1.45-8.17l-1.53,0.24L-45.12-37.23z"/>
		<path d="M-34.3-44.97c-0.56-1.57-2.45-1.19-2.45-1.19l-3.1,0.42l-1.48,8.31l1.56-0.09l1.21-7.05l1.23-0.15
			c0,0,0.31-0.04,0.64,0.02c0.53,0.08,1.13,0.4,0.8,1.45c-0.32,1.41-2.91,1.49-2.91,1.49l2.5,3.99l1.93-0.12l-2.02-3.06
			C-36.38-40.94-33.74-41.89-34.3-44.97z"/>
		<path d="M-25.24-40.51c-1.03,0.67-2.9,0.62-2.9,0.62l0.81-6.07c0,0,1.2-0.19,1.43-0.22c0.23-0.03,0.75-0.03,1.04,0.03
			c1.09,0.06,1.3,1.37,1.3,1.37S-22.94-42.15-25.24-40.51L-25.24-40.51z M-24.56-47.84c0,0-0.72-0.03-1.57,0.1
			c-0.85,0.13-2.64,0.38-2.64,0.38l-1.32,9.2l2.74-0.18c0,0,2.89,0.01,4.42-2.24c0.27-0.32,2.02-3.26,0.5-6.04
			C-22.42-46.62-23.3-47.88-24.56-47.84"/>
		<path d="M-12.78-43.28c-0.31,1.22-1.83,3.24-3.91,2.76c-0.34-0.03-2.91-1.23-1.24-4.87c0,0,1.15-2.34,3.4-2.14
			C-13.65-47.47-11.83-46.35-12.78-43.28L-12.78-43.28z M-14.06-49.4c-3.93-0.23-5.65,3.97-5.8,4.52c-1.35,4.09,1.46,6.03,2.94,6.18
			c3.86,0.34,5.59-3.54,5.87-4.81C-9.99-48.15-13.08-49.35-14.06-49.4"/>
	</g>
	<rect class="st0" width="81.85" height="24.13"/>
	<rect y="24.13" class="st1" width="81.85" height="27.11"/>
</g>
</svg>
