<?xml version="1.0" encoding="utf-8"?>
<!-- Generator: Adobe Illustrator 25.4.1, SVG Export Plug-In . SVG Version: 6.00 Build 0)  -->
<svg version="1.1" id="Layer_1" xmlns="http://www.w3.org/2000/svg" xmlns:xlink="http://www.w3.org/1999/xlink" x="0px" y="0px"
	 viewBox="0 0 277.67 80" style="enable-background:new 0 0 277.67 80;" xml:space="preserve">
<g id="Clip-9">
</g>
<g id="Clip-2">
</g>
<g transform="matrix(1.8 0 0 1.8 100 145.999)">
	<path d="M-41.79-49.08l4.86-8.24l1.55,7.53L-41.79-49.08z M-37.94-63.71l-17.61,27.05l5.96-0.33l4.91-7.45l10.32-1.03l1.9,7.22
		l5.71-0.23l-6.66-25.94L-37.94-63.71z"/>
	<path d="M-20.92-38.63l5.43-0.38l5.06-28.49l-5.34,0.84L-20.92-38.63z"/>
	<path d="M16.83-65.64c-1.94-5.47-8.53-4.14-8.53-4.14l-10.8,1.45l-5.15,29l5.45-0.31l4.21-24.61l4.3-0.54c0,0,1.07-0.14,2.25,0.07
		c1.83,0.29,3.94,1.41,2.77,5.07C10.24-54.72,1.2-54.42,1.2-54.42l8.7,13.91l6.72-0.42L9.59-51.59
		C9.59-51.59,18.79-54.9,16.83-65.64z"/>
	<path d="M48.44-50.08c-3.58,2.33-10.11,2.17-10.11,2.17l2.81-21.16c0,0,4.2-0.67,5.01-0.77c0.81-0.1,2.61-0.11,3.63,0.11
		c3.79,0.22,4.53,4.78,4.53,4.78S56.46-55.78,48.44-50.08L48.44-50.08z M50.82-75.65c0,0-2.49-0.11-5.46,0.34
		c-2.96,0.44-9.22,1.33-9.22,1.33l-4.59,32.09l9.57-0.64c0,0,10.07,0.03,15.41-7.8c0.94-1.13,7.05-11.38,1.74-21.05
		C58.27-71.39,55.21-75.78,50.82-75.65"/>
	<path d="M91.9-59.75c-1.09,4.27-6.37,11.31-13.66,9.63c-1.19-0.09-10.14-4.3-4.32-16.99c0,0,4-8.17,11.87-7.47
		C88.86-74.36,95.2-70.45,91.9-59.75L91.9-59.75z M87.42-81.08c-13.7-0.79-19.69,13.84-20.22,15.77
		c-4.7,14.27,5.1,21.05,10.27,21.56c13.47,1.2,19.51-12.34,20.48-16.78C101.64-76.71,90.85-80.9,87.42-81.08"/>
</g>
</svg>
