<?xml version="1.0" encoding="utf-8"?>
<!-- Generator: Adobe Illustrator 25.4.1, SVG Export Plug-In . SVG Version: 6.00 Build 0)  -->
<svg version="1.1" id="Layer_1" xmlns="http://www.w3.org/2000/svg" xmlns:xlink="http://www.w3.org/1999/xlink" x="0px" y="0px"
	 viewBox="0 0 575.99 80" style="enable-background:new 0 0 575.99 80;" xml:space="preserve">
<style type="text/css">
	.st0{fill:url(#SVGID_1_);}
	.st1{fill:#E78346;}
	.st2{fill:#AACB56;}
</style>
<g>
	<path d="M410.81,42.28c1.55-7.98,3.14-16.21,4.74-24.48c1.73,0,3.41,0,5.25,0c-0.95,3.93-1.98,7.75-2.78,11.62
		c-2.57,12.49-5.09,24.99-7.55,37.51c-0.23,1.18-0.58,1.66-1.8,1.54c-1.05-0.1-2.12-0.02-3.35-0.02c0.42-1.76,0.8-3.37,1.13-4.73
		c-0.78,0.66-1.77,1.34-2.57,2.2c-4.02,4.28-12.72,4.41-16.73,1.37c-3.37-2.55-4.77-6.05-4.86-10.07
		c-0.17-7.7,2.51-14.18,8.95-18.75c4.64-3.29,11.42-3.65,15.42-0.72C408.28,38.93,409.43,40.73,410.81,42.28z M387.61,56.53
		c0.04,0.72,0.06,1.4,0.13,2.07c0.33,3.4,1.35,6.46,4.91,7.74c3.74,1.35,7.23,0.71,10.18-2.02c4.2-3.89,5.8-8.98,6.2-14.45
		c0.16-2.29,0.05-4.8-0.72-6.93c-1.94-5.31-9.8-6.36-14.43-2.15C389.21,45.04,387.9,50.61,387.61,56.53z"/>
	<path d="M178.98,20.74c3.42,16.24,6.7,31.87,10.01,47.61c-1.84,0-3.78,0-5.76,0c-0.95-5.46-1.95-10.96-2.85-16.47
		c-0.2-1.21-0.63-1.78-1.91-1.77c-4.96,0.05-9.92,0.07-14.88,0.03c-1.34-0.01-2.15,0.49-2.82,1.65c-2.91,5.05-5.95,10.02-8.82,15.1
		c-0.67,1.19-1.32,1.78-2.7,1.57c-0.76-0.12-1.56-0.02-2.61-0.02c0.33-0.51,0.54-0.86,0.76-1.19c9.93-15.01,19.87-30.02,29.83-45.02
		C177.6,21.69,178.25,21.35,178.98,20.74z M163.56,47.58c5.39,0,10.52,0,15.91,0c-1.27-6.08-2.51-12.02-3.83-18.34
		C171.5,35.53,167.62,41.42,163.56,47.58z"/>
	<path d="M279.73,62.64c-0.2,2.82-1.39,4.43-4.22,5.23c-7.87,2.23-15.61,2.44-22.95-1.44c-6.05-3.2-8.86-8.68-9.28-15.41
		c-0.44-6.95,1.11-13.36,5.41-18.98c4.81-6.29,11.35-9.52,19.06-10.57c5.35-0.73,10.67-0.48,15.82,1.34
		c0.73,0.26,1.43,0.6,2.23,0.94c-0.67,1.53-1.28,2.93-1.94,4.45c-3.4-3.13-7.32-4.7-11.83-4.74c-9.1-0.09-15.58,4.16-19.62,12.11
		c-3.09,6.08-3.94,12.58-2.71,19.29c1.11,6.09,6.33,10.81,12.56,11.8c5.79,0.92,11.03-0.49,16.01-3.31c0.34-0.19,0.68-0.4,1.02-0.59
		C279.39,62.72,279.5,62.7,279.73,62.64z"/>
	<path d="M512.28,49.21c-0.02,9.45-6.46,17.71-15.37,19.6c-3.3,0.7-6.62,0.63-9.85-0.41c-5.31-1.7-8.33-5.91-8.51-12.23
		c-0.27-9.22,5.9-18.03,15.01-20.03c3.6-0.79,7.17-0.63,10.64,0.58C509.5,38.56,512.3,42.96,512.28,49.21z M506.87,48.91
		c0-5.46-1.73-8.83-5.14-10.2c-4.03-1.61-7.99-1.17-11.15,1.87c-6.01,5.78-7.58,13.03-5.99,20.98c0.5,2.48,2.1,4.47,4.78,5.19
		c4.1,1.1,7.82,0.42,10.95-2.54C504.99,59.81,506.51,54.12,506.87,48.91z"/>
	<path d="M301.76,35.62c5.53,0.23,9.83,1.22,12.73,5.13c2.56,3.45,2.98,7.45,2.19,11.56c-1.51,7.84-5.64,13.57-13.53,16.08
		c-3.73,1.19-7.56,1.18-11.3,0.04c-5.63-1.72-8.13-5.96-8.56-11.48c-0.66-8.55,4.62-17.63,13.43-20.35
		C298.64,36.01,300.68,35.83,301.76,35.62z M302.54,37.94c-2.91-0.12-5.59,0.71-7.47,2.89c-1.76,2.05-3.5,4.31-4.5,6.78
		c-1.92,4.72-2.87,9.68-1.02,14.74c0.89,2.44,2.57,4.06,5.14,4.61c4.82,1.02,8.75-0.51,11.83-4.29c3.57-4.37,4.98-9.52,5.06-15
		C311.68,41.74,308.01,37.97,302.54,37.94z"/>
	<path d="M571.51,63.28c-0.13,2.04-0.71,3.32-2.52,4.04c-4.47,1.78-9.04,2.3-13.73,1.28c-5.32-1.16-8.85-5.77-9.15-11.68
		c-0.4-7.9,1.99-14.54,9-18.84c4.53-2.78,9.5-3,14.46-1.25c4.74,1.68,7.15,6.72,6.22,12.49c-0.16,0.99-0.4,1.98-0.61,3.03
		c-1.3,0-2.58,0-3.86,0c-5.92-0.02-11.83,0-17.75-0.1c-1.66-0.03-2.22,0.62-2.07,2.17c0.21,2.1,0.02,4.32,0.63,6.3
		c1.33,4.25,5.13,6.39,9.94,6.09C565.48,66.6,568.54,65.5,571.51,63.28z M552.15,49.54c0.87,0.09,1.58,0.22,2.28,0.22
		c4.39,0.02,8.78,0.04,13.16,0.02c3.32-0.01,3.35-0.04,3.44-3.32c0.03-1.06-0.03-2.15-0.26-3.17c-0.62-2.65-2.21-4.59-4.89-5.25
		c-3.18-0.77-6.14-0.04-8.65,2.12C554.45,42.57,553.03,45.74,552.15,49.54z"/>
	<path d="M364.3,52.31c-8.01,0-15.71,0-23.35,0c-1.71,5.23,0.04,11.14,4.04,13.25c3.73,1.96,7.63,1.56,11.43,0.05
		c1.4-0.56,2.68-1.4,4.15-2.19c-0.28,1.76-0.71,3.15-2.63,3.91c-4.59,1.82-9.29,2.42-14.04,1.14c-5.15-1.38-8.03-5.07-8.66-10.26
		c-0.94-7.68,1.05-14.42,7.47-19.22c4.74-3.55,10.16-4.08,15.7-2.22c4.41,1.48,6.63,5.37,6.42,10.7
		C364.77,49.07,364.48,50.67,364.3,52.31z M341.36,49.8c4.81,0,9.48,0.02,14.15-0.01c4.68-0.03,4.82-0.2,4.51-4.95
		c-0.31-4.79-3.8-7.52-8.59-7C345.64,38.48,341.73,44.8,341.36,49.8z"/>
	<path d="M439.74,68.37c-1.68,0-3.56,0-5.4,0c3.29-15.4,6.58-30.78,9.89-46.27c1.72,0,3.66,0,5.45,0
		C446.38,37.49,443.07,52.87,439.74,68.37z"/>
	<path d="M481.54,36.62c-2.39,3.78-4.8,7.41-7.02,11.14c-3.52,5.92-7.05,11.84-10.28,17.92c-1.16,2.19-2.32,3.4-4.97,2.6
		c-2.47-10.47-4.98-21.09-7.49-31.75c1.66,0,3.21,0,4.99,0c1.9,8.48,3.84,17.09,5.78,25.71c0.16,0.03,0.32,0.06,0.48,0.08
		c1.57-2.66,3.22-5.28,4.7-7.99c2.99-5.45,5.92-10.93,8.79-16.44c0.57-1.09,1.08-1.65,2.4-1.31
		C479.69,36.78,480.55,36.62,481.54,36.62z"/>
	<path d="M331.76,27.86c-0.75,3.26-1.43,6.24-2.16,9.42c2.47-0.12,4.7-0.23,7.06-0.35c-0.16,0.97-0.29,1.78-0.42,2.56
		c-1.96,0-3.87,0.04-5.77-0.02c-0.98-0.03-1.48,0.12-1.7,1.27c-1.24,6.54-2.7,13.03-3.89,19.58c-0.88,4.83,2.62,7.67,7.28,6.13
		c0.62-0.21,1.23-0.48,1.84-0.72c0.13,0.1,0.26,0.2,0.39,0.3c-0.41,0.62-0.67,1.53-1.24,1.81c-2.98,1.44-6.13,1.92-9.31,0.76
		c-3.18-1.16-4.6-3.81-3.91-7.29c1.19-6.03,2.47-12.05,3.71-18.07c0.24-1.19,0.44-2.38,0.68-3.68c-1.47,0-2.74,0-4.22,0
		c0.13-0.87,0.25-1.65,0.4-2.59c1.36,0.1,2.69,0.19,4.13,0.29c0.39-2.16,0.72-4.25,1.17-6.31c0.11-0.49,0.55-1.1,1-1.29
		C328.35,29,329.96,28.5,331.76,27.86z"/>
	<path d="M533.19,36.52c1.5,0,3.05,0,4.71,0c-0.55,2.33-1.1,4.63-1.65,6.93c0.13,0.08,0.26,0.17,0.39,0.25
		c0.94-1.16,1.81-2.39,2.84-3.46c1.08-1.13,2.21-2.3,3.54-3.08c1.28-0.75,2.85-1.04,4.57-1.62c-0.2,2.05-0.29,3.6-0.56,5.13
		c-0.06,0.35-0.82,0.88-1.17,0.82c-4.18-0.71-7.33,0.51-8.93,4.42c-1.49,3.64-2.36,7.55-3.3,11.39c-0.88,3.63-1.5,7.33-2.25,11.08
		c-1.66,0-3.33,0-4.87,0C528.74,57.75,530.97,47.12,533.19,36.52z"/>
	<path d="M210.61,68.42c-1.7,0-3.32,0-4.85,0c2.23-10.64,4.45-21.26,6.67-31.9c1.47,0,3.07,0,4.72,0c-0.56,2.38-1.1,4.68-1.64,6.98
		c2.92-2.7,4.92-6.3,9.03-7.37c0.68-0.18,1.42-0.16,2.25-0.24c-0.17,1.71-0.25,3.26-0.52,4.77c-0.06,0.35-0.82,0.88-1.17,0.82
		c-4.34-0.73-7.44,0.65-9.18,4.83c-1.25,3.02-1.99,6.27-2.74,9.47C212.22,59.92,211.48,64.1,210.61,68.42z"/>
	<path d="M518.4,68.41c-1.68,0-3.46,0-5,0c2.29-10.63,4.58-21.25,6.88-31.89c1.61,0,3.33,0,5.03,0
		C523.01,47.11,520.73,57.67,518.4,68.41z"/>
	<path d="M197.66,68.42c-1.69,0-3.43,0-5.01,0c2.29-10.64,4.58-21.26,6.88-31.9c1.6,0,3.32,0,5.03,0
		C202.26,47.15,199.97,57.72,197.66,68.42z"/>
	<path d="M313.45,31.42c-1.35,0.49-2.18,0.1-2.91-0.88c-1.53-2.06-3.15-4.07-4.8-6.19c-2.85,2.21-5.55,4.39-8.35,6.43
		c-0.77,0.57-1.83,0.75-2.92,1.18c0-0.56-0.05-0.71,0.01-0.76c3.28-3.46,6.54-6.95,9.87-10.36c1.16-1.2,3.09-0.8,3.87,0.67
		c1.5,2.81,3,5.63,4.49,8.44C312.96,30.42,313.2,30.91,313.45,31.42z"/>
	<path d="M422.47,38.08c3.05-5.06,6.07-10.09,9.13-15.09c0.34-0.55,0.86-1.21,1.43-1.36c0.78-0.2,1.86-0.24,2.45,0.17
		c0.5,0.34,0.78,1.5,0.62,2.16c-0.23,0.92-0.87,1.8-1.52,2.54c-3.33,3.8-6.71,7.55-10.09,11.31C424,38.35,423.57,39.27,422.47,38.08
		z"/>
	<path d="M525.16,28.81c-1.71-0.01-3.19-1.5-3.23-3.24c-0.04-1.82,1.46-3.33,3.29-3.33c1.66,0,3.23,1.56,3.26,3.24
		C528.52,27.19,526.91,28.82,525.16,28.81z"/>
	<path d="M207.74,25.44c0.04,1.79-1.48,3.35-3.29,3.37c-1.72,0.01-3.2-1.45-3.24-3.22c-0.04-1.85,1.4-3.34,3.25-3.36
		C206.16,22.22,207.69,23.72,207.74,25.44z"/>
	<linearGradient id="SVGID_1_" gradientUnits="userSpaceOnUse" x1="132.2196" y1="-8.1863" x2="70.6781" y2="83.6757">
		<stop  offset="0.2112" style="stop-color:#4EAA57"/>
		<stop  offset="0.7653" style="stop-color:#124E33"/>
	</linearGradient>
	<path class="st0" d="M131.99,16.62c13.9,17.95,11.44,42.68-6.77,56.24c-15.59,11.61-42.82,9.3-56.72-8.65S55.64,22.12,73.6,8.22
		S118.08-1.33,131.99,16.62z"/>
	<path class="st1" d="M0,39.89c0,0,1.55,27.92,42.58,27.92s69.85-36.02,91.06-50.03c1-0.4,17.21-10.61,35.82-5.4
		c0,0-4-4.8-21.81-4.8s-32.02,12.81-36.02,16.21c-4,3.4-32.22,25.22-43.43,29.42S43.78,61.8,28.37,60C12.96,58.2,5.26,49.39,0,39.89
		z"/>
	<path class="st2" d="M61.79,70.81c0,0,16.01-1.2,34.32-14.91s25.07-22.92,39.63-31.17s30.62-6.15,36.32-2.1c0,0-9.31-1.8-16.96,1.2
		s-20.71,9.76-28.52,19.06S89.46,76.81,61.79,70.81z"/>
</g>
</svg>
