<?xml version="1.0" encoding="utf-8"?>
<!-- Generator: Adobe Illustrator 25.4.1, SVG Export Plug-In . SVG Version: 6.00 Build 0)  -->
<svg version="1.1" id="Layer_1" xmlns="http://www.w3.org/2000/svg" xmlns:xlink="http://www.w3.org/1999/xlink" x="0px" y="0px"
	 viewBox="0 0 254.62 80" style="enable-background:new 0 0 254.62 80;" xml:space="preserve">
<style type="text/css">
	.st0{fill-rule:evenodd;clip-rule:evenodd;fill:#F88602;}
	.st1{fill-rule:evenodd;clip-rule:evenodd;fill:#110E69;}
	.st2{fill-rule:evenodd;clip-rule:evenodd;fill:#65739C;}
</style>
<g>
	<path class="st0" d="M73.19,0c20.97,0,37.97,17,37.97,37.97s-17,37.97-37.97,37.97c-20.97,0-37.97-17-37.97-37.97S52.22,0,73.19,0
		L73.19,0z"/>
	<g>
		<path class="st1" d="M13.02,62.08c0,0,0.7-0.07,0.7,0.36c0,0.43,0.27,0.7,1.45,0.27c1.17-0.43,8.29-2.57,10.25-3.13
			c1.97-0.56,4.05-0.66,4.88-1.02c0.82-0.35,2.24-0.18,2.6-0.58c0,0,0.56,0.59,1.85,0c1.29-0.59,2.2-1.28,3.75-1.37
			c1.24-0.08,1.46-0.74,2.59-1.26c0.35-0.11,0.7-0.22,1.06-0.35c0,0,0,0,0,0c2.14-0.5,4.09-0.69,5.7-2.1
			c1.6-1.41,3.44-2.27,4.93-3.09c1.49-0.82,5.34-4.39,6.9-6.2c0,0,0,0,0.01-0.01c3.42-3.64,5.98-8.34,7.43-12.49
			c1.36-3.89-1.19-8.1-2.69-4.32c-6.36,16.06-33.38,27.49-54.18,33.92c-2.56,0.81-2.35,1.99-2.35,1.99
			C9.47,62.56,11.2,62.35,13.02,62.08z"/>
		<path class="st1" d="M79.35,36.71c-3.25,9.07-12.33,19.32-27.66,27.27c-3.05,1.58-5.09,5.72-7.96,7.61
			c-4.04,2.67-5.35,2.12-7.42,4.5c-2.58,0.43-3.95,1.41-5.16,2.15c-1.21,0.74-2.97,0.55-2.97,0.55V80
			c11.92-0.98,27.37-9.32,41.46-20.19c8.46-6.53,11.56-12.38,12.04-16.62C82.61,35.13,79.83,35.37,79.35,36.71z"/>
		<path class="st1" d="M45.07,64.83c1.55,0.26,1.13-1.41,2.62-2.07c1.49-0.66,5.02-2.15,5.94-3.13c0.92-0.98,3.05-2.23,3.79-2.19
			c0.74,0.04,11.41-8.29,14.52-12.59c0-0.01,0.01-0.01,0.01-0.02c3.06-3.69,5.42-7.8,6.7-12.33c1.3-4.6,1.96-10.34,1.32-15.49
			c-0.15-1.18-2.7-0.86-3.3,0.16c-1.74,3.01-1.44,7.51-2.8,10.71c-3.63,8.52-10,15.42-17.14,21.24
			C45.39,58.39,27.45,69.6,1.86,76.53c-0.81,0.22-3.36,3.73-0.62,2.81l0,0c0,0,7.01-2.42,9.83-2.66c0,0-0.04,1.29,1.92,0.78
			c1.95-0.51,4.57-1.68,6.88-3.01c2.31-1.33,5.59-2.35,7.15-2.66c1.56-0.31,6.53-1.64,8.91-3.09
			C38.31,67.26,43.53,64.58,45.07,64.83z"/>
	</g>
	<polygon class="st1" points="128.11,55.37 134.6,55.37 134.6,39.11 141.71,39.11 141.71,34.1 121.62,34.1 121.62,39.26 
		128.11,39.26 	"/>
	<path class="st1" d="M147.34,55.37l2.5-5.71h7.51l2.03,5.71h6.96l-7.27-21.27h-8.44l-10.79,21.27H147.34z M154.14,40.05l1.72,4.69
		h-3.99L154.14,40.05z"/>
	<path class="st2" d="M130.37,61.72l-8.75,17.54h6.09l2.03-4.71h6.09l1.65,4.71h5.64l-5.9-17.54H130.37z M131.39,70.49l1.84-3.87
		l1.4,3.87H131.39z"/>
	<path class="st1" d="M197.62,49.66h7.51l2.03,5.71h6.96l-7.27-21.27h-8.44l-10.79,21.27h7.51L197.62,49.66z M201.92,40.05
		l1.72,4.69h-3.99L201.92,40.05z"/>
	<polygon class="st2" points="147.03,79.26 152.46,79.26 153.27,60.71 147.83,60.71 	"/>
	<polygon class="st1" points="230.22,55.37 231.24,55.37 237.57,55.37 238.51,34.1 232.17,34.1 231.66,45.73 224.43,34.1 
		223.11,34.1 219.12,34.1 216.77,34.1 215.83,55.37 222.17,55.37 222.71,42.99 	"/>
	<path class="st1" d="M187.14,50.5c0.44-3.23-1.1-4.97-2.6-5.73c0.92-0.76,1.82-2.16,1.82-4.72c0-5.19-5.06-5.94-5.06-5.94h-6.05
		h-6.33l-0.94,21.27h6.33h6.41C180.73,55.37,186.51,55.14,187.14,50.5z M175.15,38.56h3.13c0.4,0,0.79,0.12,1.12,0.34
		c0.45,0.31,0.96,0.86,0.96,1.74c0,1.39-2.72,1.38-2.72,1.38h-2.72L175.15,38.56z M177.64,50.82h-3.15l0.27-4.01h3.63
		c0.46,0,0.92,0.13,1.3,0.4c0.52,0.36,1.11,1,1.11,2.02C180.79,50.83,177.64,50.82,177.64,50.82z"/>
	<polygon class="st2" points="181.96,60.71 175.72,60.71 174.92,79.26 181.16,79.26 189.51,79.26 189.85,75.1 181.34,75.1 	"/>
	<polygon class="st2" points="192.17,79.26 197.6,79.26 198.41,60.71 192.97,60.71 	"/>
	<polygon class="st2" points="214.72,70.82 208.39,60.65 207.23,60.65 203.74,60.65 201.68,60.65 200.86,79.26 206.4,79.26 
		206.88,68.43 213.45,79.26 214.34,79.26 219.89,79.26 220.71,60.65 215.16,60.65 	"/>
	<path class="st2" d="M172.08,66.29c0-4.98-5.34-5.58-5.34-5.58h-5.02h-5.43l-0.81,18.56h5.43l0.65-14.93c1.05,0,2.46,0,3.64,0
		c2.22,0,2.06,2.74,2.06,2.74c0,3.28-4.17,3.73-4.17,3.73l3.26,8.46h6.15l-4.25-8.02C171.66,70.36,172.08,66.29,172.08,66.29z"/>
	<polygon class="st2" points="224.82,60.71 224.02,79.26 225.63,79.26 229.45,79.26 238.95,79.26 238.95,74.92 229.99,74.92 
		230.09,71.95 238.12,71.95 238.22,67.91 230.38,67.91 230.45,65.2 239.47,65.2 239.73,60.71 230.26,60.71 	"/>
	<path class="st2" d="M253.7,69.84c-1.56-1.93-5.89-3.02-7.04-3.36c-1.15-0.34-1.36-2.61,1.04-2.61c2.4,0,2.16,2.06,2.16,2.06h4.35
		c0-3.83-3.15-5.45-6.31-5.45c-3.15,0-6.31,1.43-6.31,5.42s3.73,4.95,6.23,5.71c2.5,0.76,2.53,2.03,2.53,2.42s-0.29,1.62-2.48,1.62
		c-2.19,0-2.48-2.66-2.48-2.66h-4.22c0.05,0.86,0.29,3.81,2.19,5c1.9,1.2,5.16,1.9,8.37,0.36C254.95,76.82,255.27,71.76,253.7,69.84
		z"/>
</g>
</svg>
