<?xml version="1.0" encoding="utf-8"?>
<!-- Generator: Adobe Illustrator 25.4.1, SVG Export Plug-In . SVG Version: 6.00 Build 0)  -->
<svg version="1.1" id="Layer_2_00000159471598350358213750000014612203606435250611_"
	 xmlns="http://www.w3.org/2000/svg" xmlns:xlink="http://www.w3.org/1999/xlink" x="0px" y="0px" viewBox="0 0 162.6 80"
	 style="enable-background:new 0 0 162.6 80;" xml:space="preserve">
<style type="text/css">
	.st0{fill-rule:evenodd;clip-rule:evenodd;fill:#A6CE42;}
	.st1{fill-rule:evenodd;clip-rule:evenodd;fill:#D32F24;}
	.st2{fill-rule:evenodd;clip-rule:evenodd;fill:#E24E27;}
	.st3{fill-rule:evenodd;clip-rule:evenodd;fill:#D63823;}
	.st4{fill-rule:evenodd;clip-rule:evenodd;fill:#DAE24C;}
	.st5{fill-rule:evenodd;clip-rule:evenodd;fill:#C71B21;}
	.st6{fill-rule:evenodd;clip-rule:evenodd;fill:#C1D83A;}
	.st7{fill-rule:evenodd;clip-rule:evenodd;fill:#7BBD42;}
	.st8{fill-rule:evenodd;clip-rule:evenodd;fill:#8DC642;}
	.st9{fill-rule:evenodd;clip-rule:evenodd;fill:#FFFFFF;}
</style>
<path class="st0" d="M113.1,11.6c9.3,10.3,11.1,13,20.4,27.5c5.8,9.8,10.7,18.8,17.4,28.1c3.5,4.7,5.1,7.9,11.4,12.8
	c-18.6,0.2-50.4-0.5-75.9,0.2c-36.3,0.9-46.3-19.8-53.9-30.5c8.7,4.6,11.9,6.2,25.4,5.4c12.6-0.8,16.4-4.6,19.6-6.6
	c4.4,7.4,9.3,11.9,15.2,12.5c-6.5,3.8-12,5.2-19.3,5.4c7.1,7.1,23.2,6.2,31.9,2.1c6.5-3,11.4-8.7,18.3-11.2
	c-0.8-1.6-3.3-2.4-6.3-1.9l16.1-15.8c-0.2-0.3-0.5-0.8-0.6-0.8c-9.3-4-23.9,3.2-31,12.3c-5.5-3-8.4-6.5-14.5-9.3
	c4.3-2.8,6.5-4.4,11.9-5.7c-0.6-1.1-4.3-3.5-8.4-2.2C96.7,24,103.7,14.8,113.1,11.6z"/>
<path class="st1" d="M113,11.5c-16.1-7.4-35.7,7.9-42.8,16.6c-2.5-0.9-4.4-1.7-6.6-3.2c-6-3.8-9.2-6.3-11.7-8.2
	C46.1,12.4,33.7,5.6,22,11.8c10.4,4.9,14.4,13.3,21.8,21c0,0,4.9,6.2,13.6,8.5c-8.7,5.2-12.6,6.5-25.4,7.4l-20.5-37
	C7.9,5.5,4.4,2.2,0.2,0.3c18.6,0,49.3,0.3,75.7,0C91.7,0.1,102.1,2.5,113,11.5z"/>
<path class="st0" d="M85.3,57L85.3,57c-2.8-2.5-4.9-5.7-7.4-8.8c-1.6,0.9-6.3,3.5-11.2,4.9c-10.1,3.3-21.6,2.7-31.6-2.4
	c-0.2,0-0.6-0.2-0.8-0.3c-0.2-0.2-0.9-0.6-0.9-0.6l0.8,0.3l0.3,0.2l0.3,0.2c4.7,2.8,14.2,7.9,23.7,9c1.3,0.2,2.7,0.2,4,0.2
	C69.2,59.8,77.1,58.4,85.3,57L85.3,57L85.3,57z"/>
<path class="st2" d="M64.8,26c0.6,0.3,2.7,1.3,3.3,1.7c0,0,0.8,0.3,1.7,0.8c0,0,0.8-0.8,0.8-0.9c0.2-0.2,0.6-0.8,0.8-0.8
	c0.2-0.2,1.3-1.4,1.3-1.6c0.2-0.2,0.6-0.6,0.8-0.8c0.2-0.2,0.9-0.9,1.1-0.9c0.2-0.2,0.3-0.3,0.8-0.6c9.8-7.6,23.5-16.3,37.9-11.2
	c-1.3-1.1-2.1-1.7-3-2.5c-2.5-0.6-5.2-0.8-9-0.8c-7.6,0-18.3,1.9-32.6,7.6c-2.5,0.9-4.7,1.9-7,2.7c0.9,2.1,1.7,4.3,2.1,6.6l0,0
	C64,25.4,64.8,26,64.8,26z"/>
<path class="st2" d="M80.1,0.3h-9.6h-28C48,2.8,53.4,6.4,57.7,11.5C64,6.9,69.2,1.4,80.1,0.3L80.1,0.3L80.1,0.3z"/>
<path class="st3" d="M104,5.3c-1.3-0.8-2.8-1.4-4.3-1.9c-3.5-1.3-7.3-2.1-11.1-2.7l0,0c-2.8-0.2-5.5-0.3-8.4-0.3l0,0h-0.2H80
	C68.9,1.5,63.5,7.1,57.4,11.6c1.3,1.7,2.7,3.8,3.6,5.8c0.2,0.3,0.3,0.6,0.3,0.9c2.1-0.8,4.4-1.6,7-2.7c14.4-5.7,24.8-7.6,32.6-7.6
	c3.8,0,6.8,0.3,9.3,0.9C108.2,7.8,106.2,6.4,104,5.3z"/>
<path class="st0" d="M34.3,51.6c1.4,1.9,2.8,4.3,4.7,7c13.1,17.9,25.8,21.5,42.5,21.5h81.1l0,0c-5.4-1.7-11.1-6.5-20.2-12.8
	c-2.8-2.1-6.2-4.3-9.8-6.3c-4.4,1.9-9.3,4.3-14.2,7c-6.2,3.5-14.9,5.2-24.7,5.2C72.9,72.8,47.9,65.4,34.3,51.6z"/>
<path class="st4" d="M132.3,60.8c3.6,2.1,7,4.4,9.8,6.3c9.2,6.3,14.9,10.9,20.2,12.8l0,0c-5.2-3.5-10.7-11.2-18-23.1
	C141,57.5,137,58.9,132.3,60.8z"/>
<path class="st4" d="M133.4,38.5c-3.8-6.3-7.6-12.5-12-18.2c-1.3,0.6-2.5,1.3-3.5,2.4c-2.8,2.5-4.7,5.7-6.5,9
	c-0.6,0.9-1.1,2.1-1.6,3c1.1,0,2.4,0,3.5,0C120.1,34.7,127.1,35.8,133.4,38.5L133.4,38.5z"/>
<path class="st5" d="M61,17.5c-0.9-2.1-2.4-4.3-3.6-5.8c-2.1,1.6-4.4,3-7.3,4.3c2.4,1.3,4.4,2.7,6.3,4.3c0.9-0.2,2.1-0.6,3-0.9
	c0.6-0.2,1.1-0.3,1.7-0.6C61.5,18.3,61.2,18,61,17.5z"/>
<path class="st2" d="M57.5,41.2L57.5,41.2c-0.3,0-0.6-0.2-0.9-0.2l0,0c-0.2,0-0.6-0.2-0.8-0.2l0,0l0,0L55.5,41l0,0
	c-3.3,0.9-6.5,1.7-9.8,1.9c-0.3,0-0.8,0-1.1,0c-0.2,0-0.3,0-0.8,0l0,0c-0.8,0.9-1.6,1.7-2.5,2.5c-1.3,1.1-2.5,2.4-4.3,2.8
	c-0.9,0.2-1.9,0.3-2.8,0.3c-0.8,0-1.3,0-2.1-0.2c0,0,0,0.2,0.2,0.2C43.8,49.7,51.7,46.2,57.5,41.2z"/>
<path class="st1" d="M60.2,22.9c0.9,0.8,2.1,1.6,3.5,2.4c-0.6-2.4-1.4-4.6-2.1-6.6c-0.6,0.2-1.1,0.3-1.7,0.6c-1.1,0.3-2.1,0.6-3,0.9
	C57.7,21,59.1,21.9,60.2,22.9z"/>
<path class="st6" d="M137.5,45.5c-1.1-1.9-2.4-3.8-3.5-5.7l-0.3-0.6c-7.9,3-11.7,9.6-16.1,15.8l0,0c1.9-0.2,4.6,0.2,6.2,1.7h0.2
	c1.6,0.6,3.5,1.1,5.2,2.1c1.1,0.6,2.2,1.1,3.5,1.9c4.4-1.9,8.5-3.3,12-3.8C142.2,53.5,140,49.7,137.5,45.5z"/>
<path class="st7" d="M92.8,60.8L92.8,60.8c-2.8-0.6-5.4-1.9-7.4-3.8l0,0l0,0c-8.2,1.6-16.1,2.8-22.6,2.8c-1.3,0-2.7,0-4-0.2
	c-9.8-0.9-19-5.8-23.7-9c-0.8-0.3-1.6-0.8-2.4-1.1c0,0.2,0.2,0.3,0.3,0.6l0,0c10.9,9.2,27.7,14.2,41.9,14.2
	C81.9,64.3,88.2,63,92.8,60.8z"/>
<path class="st8" d="M123.9,57L123.9,57C123.7,56.7,123.7,56.7,123.9,57c-4.9,0.9-7.4,3.3-10.9,5.5c-4,2.8-9.8,6.2-16.4,7.6
	c-7.4,1.7-15.6,0.3-22.6-4l0,0l0,0l0,0l0,0c8.8,0.9,14.5-1.7,19.1-5.4l0,0l0,0h-0.2c-4.6,2.4-10.9,3.5-17.5,3.5
	c-14.2,0-31-4.9-41.9-14.2c0.3,0.6,0.6,0.9,0.9,1.6C48.2,65.4,73,72.8,93.7,72.8c9.8,0,18.5-1.7,24.7-5.2c4.7-2.7,9.6-5.2,14.2-7
	c-1.1-0.6-2.4-1.3-3.5-1.9C127.4,58.1,125.5,57.5,123.9,57z"/>
<path class="st6" d="M133.4,38.5c-6.2-2.5-13.3-3.6-20.2-3.6c-1.1,0-2.4,0-3.5,0c-1.3,2.7-2.5,5.5-3.6,8.2c-0.8,1.9-1.7,3.8-2.7,5.5
	c-0.2,0.2-0.6,1.3-0.9,1.9l0,0l0,0c0,0,0,0.2-0.2,0.2l-0.2,0.2c1.3-1.6,2.7-2.8,4-4.1C113,41.7,122.9,35.3,133.4,38.5L133.4,38.5z"
	/>
<path class="st0" d="M102.2,50.7L102.2,50.7L102.2,50.7c0.3-0.6,0.9-1.7,0.9-1.9c0.9-1.9,1.7-3.6,2.7-5.5c1.1-2.7,2.5-5.5,3.6-8.2
	c-0.3,0-2.8,0.2-3.6,0.3c-0.8,0-1.6,0.2-2.4,0.3c-1.6,0.2-4.4,0.6-4.4,0.6c-0.3,0-0.6,0.2-0.8,0.2h-0.2c-1.6,0.3-2.7,0.8-3.8,1.4
	l0,0c-0.2,0.2-1.1,0.6-1.3,0.6c-0.9,0.3-1.7,0.9-2.5,1.6c0,0-2.4,1.7-2.5,1.7c-0.2,0.2-0.3,0.2-0.6,0.3c2.7,1.6,5.4,3.5,7.4,5.4
	c1.7,1.6,5.4,3.3,7.1,4C102.1,51,102.2,50.8,102.2,50.7z"/>
<path class="st6" d="M113.1,11.6c-11.1,4-16.3,13.3-22.4,22l0,0c2.7-0.2,6.2,0.2,8.4,2.5c0,0,2.8-0.3,4.4-0.6c0,0,0.8-0.2,1.1-0.2
	s3.3-0.3,3.6-0.3l0,0l0,0c0.2,0,0.9,0,1.1,0c0.6-1.1,0.9-2.1,1.6-3c1.7-3.3,3.8-6.5,6.5-9c0.9-0.9,2.5-1.9,3.6-2.5
	C119.3,17.6,114.9,13.4,113.1,11.6z"/>
<path class="st1" d="M48,37.9L48,37.9L48,37.9c0.2-0.2,0.2-0.3,0.3-0.6l0,0l0,0l0,0C39,30.1,35.1,16.4,22,11.8
	c10-3.6,19.9-0.8,28.1,4c2.7-1.1,4.9-2.5,7.1-4.3C53.1,6.3,47.9,2.6,42,0.3H30.8H1.6H0l0.9,0.3c0.2,0,0.6,0.2,0.8,0.3
	c0.6,0.2,1.1,0.6,1.7,0.8C3.6,1.8,4.1,2,4.3,2c0.2,0.2,0.3,0.2,0.8,0.3c0.2,0.2,0.3,0.2,0.3,0.2s0,0-0.2,0c2.8,2.1,5.8,4.7,8.4,8.4
	c6.2,8.5,16.8,22.8,33.3,27.7C47.6,38.3,47.9,38.2,48,37.9z"/>
<path class="st5" d="M48.2,37.4c-0.2,0.3-0.6,0.8-0.8,1.1c1.7,0.6,3.6,0.9,5.4,1.4h0.2l0,0c-1.7-0.8-3.3-1.7-4.6-2.7L48.2,37.4z"/>
<path class="st3" d="M52.9,39.9L52.9,39.9h-0.2c-1.6-0.2-3.3-0.6-4.7-1.1c-0.2,0-0.3-0.2-0.8-0.2c-1.1,1.6-2.1,2.8-3.5,4.3
	c0.2,0,0.3,0,0.8,0c0.3,0,0.8,0,1.1,0c3.5-0.2,6.6-0.8,9.8-1.9l0.3-0.2l0,0C54.8,40.7,52.9,39.9,52.9,39.9z"/>
<path class="st9" d="M133.7,39.1l-0.3-0.6c-10.3-3.3-20.2,2.8-27.3,8.4c-1.3,1.1-2.7,2.5-4,4c-1.7-0.8-5.2-2.5-7.1-4
	c-2.4-1.9-4.7-3.6-7.4-5.4c1.9-1.3,3.3-2.2,5.1-3.2c1.9-1.1,4-1.9,6.8-2.5c-2.4-2.2-5.7-2.7-8.2-2.5l0.6-1.1
	c3.8-5.4,7-10.3,11.4-14.4c2.8-2.5,6-4.9,10.3-6.3l-0.2-0.2c-14.4-4.9-28,3.6-37.6,11.2c-1.9,1.6-3.6,3.5-5.5,5.4
	c-2.4-1.1-7.1-3.5-9.6-5.4c-10-7.9-24-16.1-38.6-10.7c15.8,5.5,18.3,25,33.8,29.1c0.2,0,0.6,0.2,0.8,0.2l0,0c0.2,0,0.6,0.2,0.8,0.2
	l0,0c-5.8,4.9-13.7,8.4-25.3,7.4l0.3,0.8C43,55.6,55.3,56.5,66.2,53c4.9-1.6,6.8-2.5,11.4-4.9c4.3,5.5,7.6,11.2,15,12.5l0,0
	C88,64.3,82.3,67,73.5,66c7,4.4,14.5,5.7,22.8,4c7-1.6,12.6-4.7,16.6-7.6c3.5-2.5,5.8-4.4,10.9-5.5c-1.7-1.7-4.4-2.1-6.3-1.9
	l1.6-2.2C123.7,46.4,126.4,42.1,133.7,39.1z"/>
</svg>
