<?xml version="1.0" encoding="utf-8"?>
<!-- Generator: Adobe Illustrator 25.4.1, SVG Export Plug-In . SVG Version: 6.00 Build 0)  -->
<svg version="1.1" id="Layer_2_00000159471598350358213750000014612203606435250611_"
	 xmlns="http://www.w3.org/2000/svg" xmlns:xlink="http://www.w3.org/1999/xlink" x="0px" y="0px" viewBox="0 0 400.9 80"
	 style="enable-background:new 0 0 400.9 80;" xml:space="preserve">
<style type="text/css">
	.st0{fill-rule:evenodd;clip-rule:evenodd;fill:#A6CE42;}
	.st1{fill-rule:evenodd;clip-rule:evenodd;fill:#D32F24;}
	.st2{fill-rule:evenodd;clip-rule:evenodd;fill:#066AA6;}
	.st3{fill-rule:evenodd;clip-rule:evenodd;fill:#009FC3;}
	.st4{fill-rule:evenodd;clip-rule:evenodd;fill:#E24E27;}
	.st5{fill-rule:evenodd;clip-rule:evenodd;fill:#D63823;}
	.st6{fill-rule:evenodd;clip-rule:evenodd;fill:#DAE24C;}
	.st7{fill-rule:evenodd;clip-rule:evenodd;fill:#C71B21;}
	.st8{fill-rule:evenodd;clip-rule:evenodd;fill:#C1D83A;}
	.st9{fill-rule:evenodd;clip-rule:evenodd;fill:#7BBD42;}
	.st10{fill-rule:evenodd;clip-rule:evenodd;fill:#8DC642;}
	.st11{fill-rule:evenodd;clip-rule:evenodd;fill:#FFFFFF;}
</style>
<path class="st0" d="M93.9,9.7c7.7,8.5,9.2,10.8,16.9,22.8c4.9,8.1,8.9,15.6,14.4,23.3c2.9,3.9,4.2,6.6,9.4,10.6
	c-15.5,0.1-41.8-0.4-63,0.1C41.6,67.4,33.3,50.2,27,41.3c7.2,3.8,9.8,5.1,21.1,4.5c10.5-0.7,13.6-3.8,16.3-5.5
	c3.7,6.2,7.7,9.8,12.6,10.4c-5.4,3.1-10,4.3-16,4.5c5.9,5.9,19.3,5.1,26.5,1.7c5.4-2.5,9.4-7.2,15.2-9.3c-0.7-1.3-2.8-2-5.2-1.6
	l13.4-13.1c-0.1-0.3-0.4-0.7-0.5-0.7c-7.7-3.3-19.8,2.6-25.7,10.2c-4.6-2.5-7-5.4-12.1-7.7c3.5-2.4,5.4-3.7,9.8-4.7
	c-0.5-0.9-3.5-2.9-7-1.8C80.3,19.9,86,12.3,93.9,9.7z"/>
<path class="st1" d="M93.8,9.6c-13.4-6.2-29.6,6.6-35.5,13.8c-2.1-0.8-3.7-1.4-5.5-2.6c-5-3.1-7.6-5.2-9.7-6.8
	c-4.7-3.5-15.1-9.2-24.8-4.1c8.7,4.1,11.9,11,18.1,17.4c0,0,4.1,5.1,11.3,7.1c-7.2,4.3-10.5,5.4-21.1,6.2L9.4,9.8
	c-2.9-5.2-5.8-8-9.3-9.6c15.5,0,40.9,0.3,62.8,0C76.1,0.1,84.7,2.1,93.8,9.6z"/>
<path class="st2" d="M171.8,57.8c0-9.6-14.4-7.7-14.4-14.3c0-2.8,2.8-3.7,5.9-3.7c3.1,0,5.4,0.8,7.6,1.7v-3.9
	c-2.1-0.8-4.6-1.6-7.7-1.6c-7.1,0-10.4,3.5-10.4,7.7c0,10,14.2,7.5,14.2,14.6c0,2.8-2.8,4.3-6.7,4.3c-3.5,0-6.2-1.3-7.6-2.1l-2,3.5
	c2.1,1.2,4.7,2.2,9.2,2.2C166.7,66.4,171.8,63.9,171.8,57.8z"/>
<path class="st2" d="M231.5,37h-4.9l-8.4,23.3h-0.1l-11-23.3h-5.2l13.8,29c-2.2,7.6-5.8,10.5-9.6,10.5c-2,0-3.3-0.3-4.5-0.9l-1,3.5
	c1.4,0.7,3,0.9,5.5,0.9c5.1,0,9.8-1.7,13.5-11.5L231.5,37L231.5,37z"/>
<path class="st2" d="M256.9,63.5l-1.4-3.1c-2,1-4.3,2.1-7.7,2.1c-6.3,0-10-4.5-10-11S241.8,40,247.9,40c3.3,0,6.2,1.3,8.1,2.5v-4.6
	c-2.1-1-5.1-2-7.7-2c-10.4,0-15.2,7.5-15.2,15.6c0,7.7,4.6,14.8,14.4,14.8C251.1,66.4,254.7,64.9,256.9,63.5L256.9,63.5z"/>
<g>
	<path class="st2" d="M287.5,65.8v-19c0-8-4.6-10.6-9-10.6c-4.3,0-7.5,1.7-10.8,4.1V22.6H263v43.3h4.7V45.1c2.5-2,5.5-4.6,9.2-4.6
		c4.9,0,5.4,3.8,5.4,7.3v18H287.5L287.5,65.8L287.5,65.8z M287.5,65.8L287.5,65.8L287.5,65.8z"/>
</g>
<path class="st2" d="M400.9,57.8c0-9.6-14.4-7.7-14.4-14.3c0-2.8,2.8-3.7,5.9-3.7s5.4,0.8,7.6,1.7v-3.9c-2.1-0.8-4.6-1.6-7.7-1.6
	c-7.1,0-10.4,3.5-10.4,7.7c0,10,14.2,7.5,14.2,14.6c0,2.8-2.8,4.3-6.7,4.3c-3.5,0-6.2-1.3-7.6-2.1l-2,3.5c2.1,1.2,4.7,2.2,9.2,2.2
	C395.7,66.4,400.9,63.9,400.9,57.8L400.9,57.8z"/>
<g>
	<path class="st2" d="M317.8,45.2c0-0.3-0.3-1-0.5-1.7c-2-4.7-5.8-7.3-11-7.3c-7.1,0-12.6,6.2-12.6,14.6c0,8.3,4.5,15.7,14.4,15.7
		c3.8,0,7.3-1.3,9.6-2.9l-1.4-3.1c-1.7,1.2-4.5,2-7.5,2c-4.3,0-6.7-1.7-8.8-4.7L317.8,45.2L317.8,45.2L317.8,45.2z M312.5,44.1
		L299,53.5c-0.3-1.6-0.5-5.2,0.5-8.1c0.9-3.3,3.8-5.4,7-5.4C309,40.1,311.5,41.7,312.5,44.1L312.5,44.1z"/>
</g>
<g>
	<path class="st2" d="M375.3,45.2c0-0.3-0.3-1-0.5-1.7c-2-4.7-5.8-7.3-11-7.3c-7.1,0-12.6,6.2-12.6,14.6c0,8.3,4.5,15.7,14.4,15.7
		c3.8,0,7.3-1.3,9.6-2.9l-1.4-3.1c-1.7,1.2-4.5,2-7.5,2c-4.3,0-6.7-1.7-8.8-4.7L375.3,45.2L375.3,45.2z M370.1,44.1l-13.5,9.3
		c-0.3-1.6-0.5-5.2,0.5-8.1c0.9-3.3,3.8-5.4,7-5.4C366.7,40.1,369,41.7,370.1,44.1L370.1,44.1z"/>
</g>
<path class="st2" d="M334.3,65.4l-0.7-3.1c-0.8,0.1-1.3,0.1-1.6,0.1c-1.8,0-2.5-0.5-2.5-3.3V22.6h-4.7V61c0,3,1.6,5.2,5.5,5.2
	C331.7,66.4,332.9,66,334.3,65.4z"/>
<path class="st2" d="M348.9,65.4l-0.7-3.1c-0.8,0.1-1.3,0.1-1.6,0.1c-2,0-2.5-0.5-2.5-3.3V22.6h-4.7V61c0,3,1.6,5.2,5.5,5.2
	C346.4,66.4,347.4,66,348.9,65.4z"/>
<g>
	<path class="st2" d="M200.3,45.2c0-0.3-0.3-1-0.5-1.7c-2-4.7-5.8-7.3-11-7.3c-7.1,0-12.6,6.2-12.6,14.6c0,8.3,4.5,15.7,14.4,15.7
		c3.8,0,7.3-1.3,9.6-2.9l-1.4-3.1c-1.7,1.2-4.5,2-7.5,2c-4.3,0-6.7-1.7-8.8-4.7L200.3,45.2L200.3,45.2L200.3,45.2z M195,44.1
		l-13.5,9.3c-0.3-1.6-0.5-5.2,0.5-8.1c0.9-3.3,3.8-5.4,7-5.4C191.6,40.1,194,41.7,195,44.1z"/>
</g>
<rect x="166" y="0.5" class="st3" width="4.9" height="29"/>
<path class="st3" d="M194.5,0.8c-0.7-0.3-1.7-0.8-3.3-0.8c-2,0-3.9,0.1-8.1,3.8l-0.7-3.1h-4.1v29h5.1V7.7c2.5-2.4,3.9-3,6-3
	c1,0,2.4,0.1,3,0.5L194.5,0.8L194.5,0.8z"/>
<g>
	<path class="st3" d="M154,22.7c-1.4,1.4-3.7,3.4-7.7,3.4c-3.9,0-6.2-2.2-6.2-5c0-3.3,2.4-5.1,8.1-5.4l5.9-0.1v7.1H154z M159.3,29.5
		c-0.3-0.9-0.7-2.9-0.7-11.1V9.7c0-7.5-4.7-9.7-10.8-9.7c-3.8,0-7.1,0.9-10.6,3.3l2,3.1c2.1-1.4,4.7-2.8,8.3-2.8
		c3.9,0,6.6,2.5,6.6,6v2.1h-6.6c-8.1,0.3-12.2,3.8-12.2,9.6c0,5.5,4.5,8.9,9.6,8.9c4.6,0,7.6-1.7,9.6-3.3l1.3,2.9h3.8
		C159.3,29.6,159.3,29.5,159.3,29.5z"/>
</g>
<path class="st0" d="M70.8,47.3L70.8,47.3c-2.4-2.1-4.1-4.7-6.2-7.3c-1.3,0.8-5.2,2.9-9.3,4.1c-8.4,2.8-18,2.2-26.2-2
	c-0.1,0-0.5-0.1-0.7-0.3c-0.1-0.1-0.8-0.5-0.8-0.5l0.7,0.3l0.3,0.1l0.3,0.1c3.9,2.4,11.8,6.6,19.7,7.5c1,0.1,2.2,0.1,3.3,0.1
	C57.4,49.7,64,48.5,70.8,47.3L70.8,47.3L70.8,47.3z"/>
<path class="st4" d="M53.8,21.6c0.5,0.3,2.2,1,2.8,1.4c0,0,0.7,0.3,1.4,0.7c0,0,0.7-0.7,0.7-0.8c0.1-0.1,0.5-0.7,0.7-0.7
	c0.1-0.1,1-1.2,1-1.3c0.1-0.1,0.5-0.5,0.7-0.7s0.8-0.8,0.9-0.8c0.1-0.1,0.3-0.3,0.7-0.5C70.7,12.7,82.1,5.5,94,9.7
	c-1-0.9-1.7-1.4-2.5-2.1C89.4,7.1,87.2,7,84.1,7c-6.3,0-15.2,1.6-27,6.3c-2.1,0.8-3.9,1.6-5.8,2.2c0.8,1.7,1.4,3.5,1.7,5.5l0,0
	C53.1,21.1,53.8,21.6,53.8,21.6z"/>
<path class="st4" d="M66.5,0.3h-8H35.3c4.6,2.1,9,5.1,12.6,9.3C53.1,5.8,57.4,1.2,66.5,0.3L66.5,0.3L66.5,0.3z"/>
<path class="st5" d="M86.3,4.5c-1-0.7-2.4-1.2-3.5-1.6c-2.9-1-6-1.7-9.2-2.2l0,0c-2.4-0.1-4.6-0.3-7-0.3l0,0h-0.1h-0.1
	c-9.2,0.9-13.6,5.5-18.8,9.3c1,1.4,2.2,3.1,3,4.9c0.1,0.3,0.3,0.5,0.3,0.8c1.7-0.7,3.7-1.3,5.8-2.2c11.9-4.7,20.6-6.3,27-6.3
	c3.1,0,5.6,0.3,7.7,0.8C89.8,6.6,88.1,5.4,86.3,4.5z"/>
<path class="st0" d="M28.5,42.9c1.2,1.6,2.4,3.5,3.9,5.8c10.9,14.8,21.4,17.8,35.3,17.8H135l0,0c-4.5-1.4-9.2-5.4-16.8-10.6
	c-2.4-1.7-5.1-3.5-8.1-5.2c-3.7,1.6-7.7,3.5-11.8,5.8c-5.1,2.9-12.3,4.3-20.5,4.3C60.5,60.5,39.7,54.3,28.5,42.9z"/>
<path class="st6" d="M109.8,50.5c3,1.7,5.8,3.7,8.1,5.2c7.6,5.2,12.3,9,16.8,10.6l0,0c-4.3-2.9-8.9-9.3-15-19.1
	C117,47.7,113.7,48.9,109.8,50.5z"/>
<path class="st6" d="M110.7,32c-3.1-5.2-6.3-10.4-10-15.1c-1,0.5-2.1,1-2.9,2c-2.4,2.1-3.9,4.7-5.4,7.5c-0.5,0.8-0.9,1.7-1.3,2.5
	c0.9,0,2,0,2.9,0C99.7,28.9,105.4,29.8,110.7,32L110.7,32z"/>
<path class="st7" d="M50.6,14.6c-0.8-1.7-2-3.5-3-4.9c-1.7,1.3-3.7,2.5-6,3.5c2,1,3.7,2.2,5.2,3.5c0.8-0.1,1.7-0.5,2.5-0.8
	c0.5-0.1,0.9-0.3,1.4-0.5C51,15.2,50.8,15,50.6,14.6z"/>
<path class="st4" d="M47.7,34.2L47.7,34.2c-0.3,0-0.5-0.1-0.8-0.1l0,0c-0.1,0-0.5-0.1-0.7-0.1l0,0l0,0L46,34.1l0,0
	c-2.8,0.8-5.4,1.4-8.1,1.6c-0.3,0-0.7,0-0.9,0c-0.1,0-0.3,0-0.7,0l0,0c-0.7,0.8-1.3,1.4-2.1,2.1c-1,0.9-2.1,2-3.5,2.4
	c-0.8,0.1-1.6,0.3-2.4,0.3c-0.7,0-1,0-1.7-0.1c0,0,0,0.1,0.1,0.1C36.3,41.3,42.9,38.4,47.7,34.2z"/>
<path class="st1" d="M50,19c0.8,0.7,1.7,1.3,2.9,2c-0.5-2-1.2-3.8-1.7-5.5c-0.5,0.1-0.9,0.3-1.4,0.5c-0.9,0.3-1.7,0.5-2.5,0.8
	C47.9,17.4,49,18.2,50,19z"/>
<path class="st8" d="M114.1,37.8c-0.9-1.6-2-3.1-2.9-4.7l-0.3-0.5c-6.6,2.5-9.7,8-13.4,13.1l0,0c1.6-0.1,3.8,0.1,5.1,1.4h0.1
	c1.3,0.5,2.9,0.9,4.3,1.7c0.9,0.5,1.8,0.9,2.9,1.6c3.7-1.6,7.1-2.8,10-3.1C118,44.5,116.2,41.3,114.1,37.8z"/>
<path class="st9" d="M77,50.5L77,50.5c-2.4-0.5-4.5-1.6-6.2-3.1l0,0l0,0c-6.8,1.3-13.4,2.4-18.8,2.4c-1,0-2.2,0-3.3-0.1
	c-8.1-0.8-15.7-4.9-19.7-7.5c-0.7-0.3-1.3-0.7-2-0.9c0,0.1,0.1,0.3,0.3,0.5l0,0c9,7.6,23,11.8,34.8,11.8
	C67.9,53.4,73.2,52.3,77,50.5z"/>
<path class="st10" d="M102.8,47.3L102.8,47.3C102.7,47.1,102.7,47.1,102.8,47.3c-4.1,0.8-6.2,2.8-9,4.6c-3.3,2.4-8.1,5.1-13.6,6.3
	c-6.2,1.4-13,0.3-18.8-3.3l0,0l0,0l0,0l0,0c7.3,0.8,12.1-1.4,15.9-4.5l0,0l0,0h-0.1c-3.8,2-9,2.9-14.6,2.9
	c-11.8,0-25.7-4.1-34.8-11.8c0.3,0.5,0.5,0.8,0.8,1.3c11.4,11.4,32,17.6,49.2,17.6c8.1,0,15.3-1.4,20.5-4.3c3.9-2.2,8-4.3,11.8-5.8
	c-0.9-0.5-2-1-2.9-1.6C105.7,48.3,104.1,47.7,102.8,47.3z"/>
<path class="st8" d="M110.7,32c-5.1-2.1-11-3-16.8-3c-0.9,0-2,0-2.9,0c-1,2.2-2.1,4.6-3,6.8c-0.7,1.6-1.4,3.1-2.2,4.6
	c-0.1,0.1-0.5,1-0.8,1.6l0,0l0,0c0,0,0,0.1-0.1,0.1l-0.1,0.1c1-1.3,2.2-2.4,3.3-3.4C93.8,34.6,102,29.4,110.7,32L110.7,32z"/>
<path class="st0" d="M84.9,42.1L84.9,42.1L84.9,42.1c0.3-0.5,0.8-1.4,0.8-1.6c0.8-1.6,1.4-3,2.2-4.6c0.9-2.2,2.1-4.6,3-6.8
	c-0.3,0-2.4,0.1-3,0.3c-0.7,0-1.3,0.1-2,0.3c-1.3,0.1-3.7,0.5-3.7,0.5c-0.3,0-0.5,0.1-0.7,0.1h-0.1c-1.3,0.3-2.2,0.7-3.1,1.2l0,0
	c-0.1,0.1-0.9,0.5-1,0.5c-0.8,0.3-1.4,0.8-2.1,1.3c0,0-2,1.4-2.1,1.4c-0.1,0.1-0.3,0.1-0.5,0.3c2.2,1.3,4.5,2.9,6.2,4.5
	c1.4,1.3,4.5,2.8,5.9,3.3C84.7,42.4,84.9,42.2,84.9,42.1z"/>
<path class="st8" d="M93.9,9.7c-9.2,3.3-13.5,11-18.6,18.2l0,0c2.2-0.1,5.1,0.1,7,2.1c0,0,2.4-0.3,3.7-0.5c0,0,0.7-0.1,0.9-0.1
	s2.8-0.3,3-0.3l0,0l0,0c0.1,0,0.8,0,0.9,0c0.5-0.9,0.8-1.7,1.3-2.5c1.4-2.8,3.1-5.4,5.4-7.5c0.8-0.8,2.1-1.6,3-2.1
	C99,14.7,95.3,11.1,93.9,9.7z"/>
<path class="st1" d="M39.9,31.5L39.9,31.5L39.9,31.5c0.1-0.1,0.1-0.3,0.3-0.5l0,0l0,0l0,0c-7.7-5.9-11-17.3-21.9-21.1
	c8.3-3,16.5-0.7,23.3,3.3c2.2-0.9,4.1-2.1,5.9-3.5c-3.4-4.3-7.7-7.3-12.6-9.3h-9.3H1.3H0l0.8,0.3c0.1,0,0.5,0.1,0.7,0.3
	C2,0.9,2.4,1.3,2.9,1.4C3,1.6,3.4,1.7,3.5,1.7C3.7,1.8,3.8,1.8,4.2,2c0.1,0.1,0.3,0.1,0.3,0.1s0,0-0.1,0c2.4,1.7,4.9,3.9,7,7
	c5.1,7.1,13.9,18.9,27.7,23C39.5,31.9,39.7,31.7,39.9,31.5z"/>
<path class="st7" d="M40,31.1c-0.1,0.3-0.5,0.7-0.7,0.9c1.4,0.5,3,0.8,4.5,1.2h0.1l0,0c-1.4-0.7-2.8-1.4-3.8-2.2L40,31.1z"/>
<path class="st5" d="M43.9,33.2L43.9,33.2h-0.1c-1.3-0.1-2.8-0.5-3.9-0.9c-0.1,0-0.3-0.1-0.7-0.1c-0.9,1.3-1.7,2.4-2.9,3.5
	c0.1,0,0.3,0,0.7,0c0.3,0,0.7,0,0.9,0c2.9-0.1,5.5-0.7,8.1-1.6l0.3-0.1l0,0C45.5,33.8,43.9,33.2,43.9,33.2z"/>
<path class="st11" d="M111,32.5l-0.3-0.5c-8.5-2.8-16.8,2.4-22.7,7c-1,0.9-2.2,2.1-3.3,3.3c-1.4-0.7-4.3-2.1-5.9-3.3
	c-2-1.6-3.9-3-6.2-4.5c1.6-1,2.8-1.8,4.2-2.6c1.6-0.9,3.3-1.6,5.6-2.1c-2-1.8-4.7-2.2-6.8-2.1l0.5-0.9c3.1-4.5,5.8-8.5,9.4-11.9
	c2.4-2.1,5-4.1,8.5-5.2L94,9.4c-11.9-4.1-23.2,3-31.2,9.3c-1.6,1.3-3,2.9-4.6,4.5c-2-0.9-5.9-2.9-8-4.5c-8.3-6.6-19.9-13.4-32-8.9
	C31.3,14.4,33.4,30.6,46.3,34c0.1,0,0.5,0.1,0.7,0.1l0,0c0.1,0,0.5,0.1,0.7,0.1l0,0c-4.9,4.1-11.4,7-21,6.2l0.3,0.7
	c8.8,5.1,19,5.9,28.1,3c4.1-1.3,5.6-2.1,9.4-4.1c3.5,4.6,6.3,9.3,12.5,10.4l0,0c-3.8,3-8.5,5.2-15.9,4.5c5.8,3.7,12.1,4.7,18.9,3.3
	c5.8-1.3,10.5-3.9,13.8-6.3c2.9-2.1,4.9-3.7,9-4.6c-1.4-1.4-3.7-1.7-5.2-1.6l1.3-1.8C102.7,38.6,104.9,35,111,32.5z"/>
</svg>
