<?xml version="1.0" encoding="utf-8"?>
<!-- Generator: Adobe Illustrator 25.4.1, SVG Export Plug-In . SVG Version: 6.00 Build 0)  -->
<svg version="1.1" id="Layer_1" xmlns="http://www.w3.org/2000/svg" xmlns:xlink="http://www.w3.org/1999/xlink" x="0px" y="0px"
	 viewBox="0 0 80.21 80" style="enable-background:new 0 0 80.21 80;" xml:space="preserve">
<style type="text/css">
	.st0{fill:#BB9373;}
	.st1{fill:#FEFDFD;}
</style>
<g>
	<path class="st0" d="M40.11,0c21.88-0.25,40.44,17.94,40.09,40.62C79.88,62.1,62.03,80.2,39.71,80C18.33,79.8-0.15,62.57,0,39.68
		C0.15,16.97,18.79-0.23,40.11,0z M77.94,39.89C77.86,19.1,61.26,2.53,40.91,2.13C19.38,1.7,2.76,18.9,2.3,38.92
		c-0.49,21.22,16.38,38.39,37,38.79C60.75,78.13,77.88,60.88,77.94,39.89z"/>
	<path class="st0" d="M77.23,39.91c0.16,19.81-16.13,37.32-37.69,37.03C19.49,76.67,2.87,60.51,2.95,39.71
		C3.02,18.9,20.22,2.69,40.27,2.77C60.75,2.85,77.42,19.74,77.23,39.91z M40.16,3.68c-20.1,0-36.38,16.14-36.43,36.14
		C3.67,59.83,20.18,76.34,40.2,76.29c19.98-0.05,36.29-16.32,36.3-36.21C76.5,19.89,60.31,3.68,40.16,3.68z"/>
	<path class="st0" d="M64.4,22.91c4.32-1.7,7.67,1.28,8.11,4.84c0.29,2.32-0.62,4.3-2.23,5.89c-2.57,2.53-5.62,4.31-9.17,5.16
		c-0.15,0.04-0.31,0.05-0.45,0.09c-0.17,0.06-0.39,0.14-0.35,0.36c0.04,0.25,0.27,0.34,0.5,0.28c0.71-0.19,1.42-0.38,2.12-0.61
		c0.49-0.16,1.01-0.31,1.45-0.58c1.65-1.05,3.07-0.38,4.36,0.62c2.3,1.8,2.92,4.3,2.55,7.06c-0.34,2.52-1.93,4.07-4.26,4.95
		c-1.95,0.74-3.98,1.01-6.04,1.02c-5.52,0.03-11.04,0.08-16.56-0.04c-8.12-0.17-16.25-0.12-24.37-0.17
		c-1.48-0.01-2.94,0.15-4.32,0.73c-0.83,0.35-1.6,0.82-2.13,1.55c-0.41,0.56-0.82,0.55-1.42,0.37c-2.98-0.88-5.2-2.51-6.07-5.65
		c-1.45-5.21,2.75-8.78,6.51-8.97c0.8-0.04,1.85,0.39,2.74,1.17c-0.63-0.08-1.15-0.12-1.66-0.22c-3.14-0.59-5.57,2.15-5.9,4.72
		c-0.44,3.35,2.3,6.02,4.84,6.54c0.28,0.06,0.69,0.29,0.78-0.14c0.09-0.42-0.37-0.37-0.65-0.44c-3.84-0.88-5.52-4.94-3.42-8.14
		c1.67-2.55,5.41-2.15,6.98-0.64c0.96,0.92,0.9,2.37-0.08,3.04c-0.65,0.44-1.25,0.3-1.62-0.41c-0.3-0.59-0.81-0.72-1.39-0.62
		c-0.63,0.11-0.82,0.57-0.83,1.15c-0.01,0.92,1.01,2.04,2.17,2.33c1.57,0.39,3.17,0.23,4.76,0.19c3.52-0.08,7.05-0.21,10.57-0.13
		c9.63,0.21,19.25,0.1,28.88,0.12c1.35,0,2.7-0.08,4.02-0.36c1.45-0.3,2.32-1.15,2.24-2.05c-0.09-0.96-1.24-1.88-2.56-2
		c-1.65-0.15-3.3-0.08-4.95-0.08c-4.93,0.02-9.87,0.3-14.8-0.07c-0.29-0.02-0.75-0.12-0.78,0.25c-0.04,0.43,0.44,0.43,0.77,0.43
		c3.47,0.02,6.93,0.02,10.4,0.05c3,0.03,6.01-0.12,9.01,0.13c0.69,0.06,1.34,0.23,1.85,0.71c0.46,0.43,0.59,0.93,0.14,1.45
		c-0.16,0.18-0.39,0.39-0.59,0.06c-0.56-0.93-1.51-0.87-2.37-0.88c-4.69-0.03-9.39-0.03-14.08-0.01c-4.91,0.02-9.81-0.06-14.63-1.14
		C29.1,44.11,25.9,43,23.46,40.4c-4.95-5.28-3.69-13.65,2.63-17.58c1.23-0.76,2.55-1.33,3.91-1.81c0.27-0.1,0.57-0.18,0.45-0.54
		c-0.08-0.25-0.34-0.21-0.55-0.14c-4.64,1.55-8.51,4.04-9.71,9.1c-1.35,5.66,0.83,11.98,7.92,14.71c2.06,0.79,4.18,1.34,6.46,1.74
		c-7.1,0.45-13.73-1.72-16.66-8.74c-1.54-3.68-0.95-7.38,0.79-10.9c0.64-1.29,1.47-2.47,2.37-3.66c-0.78-0.5-1.54-0.23-2.23-0.05
		c-2.09,0.55-3.9,1.61-5.38,3.2c-0.74,0.79-1.14,1.76-0.98,2.85c0.1,0.65,0.39,1.31,1.22,1.21c0.79-0.09,1.02-0.67,0.98-1.4
		c-0.02-0.32-0.17-0.71,0.2-0.92c0.36-0.2,0.63-0.82,1-0.65c0.56,0.25,0.87,0.84,0.93,1.5c0.14,1.49-0.97,3.28-2.39,3.81
		c-1.38,0.51-2.75,0.48-3.9-0.51c-1.27-1.09-1.47-2.57-1.13-4.12c0.35-1.55,1.29-2.76,2.51-3.74c3.38-2.72,7.16-4.44,11.57-4.6
		c0.29-0.01,0.71,0.03,0.67-0.41c-0.04-0.4-0.43-0.35-0.73-0.34c-5.13,0.21-9.55,2.07-13.11,5.77c-1.51,1.57-2.18,3.55-1.56,5.76
		c1.04,3.68,5.21,3.68,7.09,1.91c0.33-0.31,0.61-0.67,1.06-1.18c-0.2,1.19-0.65,2.01-1.49,2.55c-1.66,1.06-3.41,1.11-5.16,0.27
		c-1.85-0.88-2.68-2.46-2.76-4.43c-0.15-3.43,1.44-6.08,3.99-8.18c2.94-2.42,6.33-3.94,10.08-4.6c0.69-0.12,0.86-0.25,0.58-0.96
		c-0.79-2.03-0.2-3.84,1.52-4.95l-0.01-0.02c0.11,0.37-0.17,0.63-0.3,0.93c-1.08,2.47-0.07,4.94,2.45,5.93
		c1.84,0.72,3.72,0.58,5.61,0.23c3.33-0.6,6.23-2.17,8.97-4.05c1.37-0.93,2.75-1.83,4.19-2.65c0.89-0.5,1.83-0.88,2.86-0.91
		c1.23-0.03,2.2,0.43,2.79,1.57c0.13,0.25,0.21,0.72,0.6,0.5c0.28-0.16,0.11-0.55-0.02-0.84c-0.58-1.34-2.32-2.18-3.92-1.92
		c-1.08,0.18-2.03,0.62-2.97,1.15c-2.63,1.5-5.13,3.24-7.86,4.56c-2.43,1.18-4.94,1.98-7.67,1.93c-0.93-0.02-1.83-0.17-2.68-0.54
		c-1.92-0.84-2.74-2.76-1.98-4.7c0.73-1.86,2.26-2.82,4.03-3.5c0.31-0.12,0.53-0.05,0.71,0.22C28.62,8.5,28.77,8.77,28.97,9
		c0.57,0.66,0.48,1.12-0.32,1.54c-0.6,0.32-1.18,0.8-0.93,1.6c0.27,0.85,1.02,0.99,1.8,0.95c2.09-0.12,4-0.86,5.82-1.83
		c2.7-1.44,5.28-3.1,8.12-4.28c2.16-0.9,4.35-1.18,6.63-0.51c2.11,0.62,3.53,2.32,3.74,4.51c0.14,1.38,0.21,1.46,1.57,1.63
		c1.58,0.2,3.18,0.09,4.74,0.49c2.98,0.75,4.98,2.84,5.36,5.7c0.2,1.51-0.32,2.82-1.21,4.02c-0.05,0.07-0.11,0.14-0.16,0.2
		c-0.05,0.03-0.22,0-0.07,0.13c0.02-0.05,0.04-0.09,0.06-0.14C64.22,22.98,64.31,22.94,64.4,22.91z M49.06,11.99
		c-0.03,0.09-0.03,0.15,0.09,0.1c-0.04-0.03-0.07-0.06-0.11-0.09c-0.7-0.98-1.74-0.93-2.65-0.63c-1.67,0.56-2.94,1.76-4.31,2.95
		c2.07,0.83,4.05,1.29,6.14,0.72c-0.26-0.23-0.55-0.32-0.8-0.47c-0.65-0.39-0.94-0.98-0.76-1.71c0.19-0.76,0.8-0.94,1.5-0.92
		C48.45,11.96,48.76,11.97,49.06,11.99z M33.98,30.16c0.89,0.14,1.35,0.82,1.74,1.5c0.67,1.17,0.91,2.47,0.74,3.81
		c-0.06,0.44,0,0.61,0.47,0.6c1.13-0.04,2.27-0.05,3.4-0.06c0.58-0.01,0.91-0.26,1.16-0.82c0.71-1.62,1.97-2.69,3.58-3.38
		c1.6-0.69,3.29-0.94,5.01-1.04c3.81-0.23,7.63-0.13,11.45-0.11c-1.3,0.46-2.67,0.55-4.03,0.61c-2.75,0.13-5.52-0.12-8.27,0.21
		c-2.24,0.27-4.32,0.91-5.89,2.66c-2.19,2.44-1.5,5.89,1.48,7.26c1.21,0.56,2.5,0.8,3.84,0.76c0.27-0.01,0.67,0.05,0.66-0.3
		c0-0.34-0.4-0.28-0.67-0.3c-1.38-0.08-2.75-0.25-3.98-0.95c-1.25-0.71-1.9-1.78-1.88-3.23c0.02-1.83,1.47-3.6,3.61-4.43
		c1.83-0.71,3.75-0.84,5.69-0.89c2.57-0.06,5.15,0.13,7.72-0.19c1.8-0.22,3.48-0.71,4.86-1.95c0.38-0.34,0.67-0.6-0.1-0.94
		c-1.5-0.66-2.16-2.25-1.71-3.83c0.15-0.51,0.39-0.99,0.64-1.61c-0.91,0.31-1.7,0.53-2.53,0.42c-0.78-0.1-1.42-0.37-1.68-1.2
		c-0.28-0.92,0.22-1.51,1.16-1.3c0.36,0.08,0.6,0,0.81-0.25c0.24-0.3,0.36-0.63,0.18-1.02c-0.22-0.48-0.61-0.78-1.08-0.95
		c-1.9-0.67-3.86-0.65-6-0.63c0.66,0.79,0.94,1.56,1.08,2.38c0.6,3.54-2.52,6.3-5.85,5.17c-0.57-0.19-1.06-0.5-1.42-0.97
		c-0.38-0.49-0.3-0.97,0.15-1.38c0.49-0.44,0.66-0.08,0.95,0.3c0.41,0.54,1.24,0.45,1.68-0.11c0.68-0.86,0.29-2.14-0.82-2.55
		c-0.82-0.31-1.67-0.35-2.54-0.19c-2.57,0.46-4.81,1.58-6.79,3.26c-1.03,0.87-1.95,1.87-3.2,2.45c-1.27,0.59-2.92,0.31-3.84-0.64
		c-0.79-0.81-0.84-1.88-0.17-3.32c0.04-0.08,0.07-0.17,0.1-0.26c0.13-0.12,0.45-0.2,0.2-0.42c-0.14-0.12-0.28,0.11-0.34,0.28
		c-0.69,0.74-0.92,1.64-0.75,2.61c0.09,0.51-0.03,0.75-0.52,0.98c-1.09,0.51-2.05,1.23-2.83,2.15c-0.98,1.17-1.57,2.47-1.4,4.04
		c0.18,1.65,1.29,2.67,2.85,2.58c0.99-0.06,1.62-0.64,1.62-1.51c0-0.89-0.45-1.3-1.59-1.29c-0.54,0-0.62-0.18-0.54-0.65
		c0.12-0.73,0.45-1.26,1.2-1.46c0.84-0.23,1.5,0.11,2.03,0.74c0.97,1.15,1.14,2.52,1.1,3.96c-0.09,2.68-1.81,4.6-4.47,4.99
		c-0.89,0.13-1.76,0.11-2.65-0.02c-0.22-0.03-0.55-0.12-0.62,0.2c-0.08,0.41,0.31,0.4,0.55,0.45c0.79,0.16,1.59,0.13,2.38,0.07
		c2.49-0.18,4.4-1.68,5.1-3.95c0.7-2.29,0.36-4.39-1.08-6.32L33.98,30.16z M71.27,28.05c0.03-2.37-1.66-4.23-3.72-4.11
		c-1.22,0.07-2.33,1.35-2.25,2.58c0.07,1.11,1.04,2.03,2.12,2.01c0.98-0.02,1.84-1.02,1.64-1.91c-0.05-0.21-0.1-0.44-0.36-0.47
		c-0.31-0.03-0.33,0.22-0.32,0.43c0.03,0.72-0.3,1.08-1.04,1.08c-0.74,0-1.14-0.42-1.3-1.07c-0.22-0.89,0.59-1.85,1.62-1.94
		c1.43-0.13,2.76,1.08,2.94,2.69c0.26,2.21-0.69,3.87-2.45,5.09c-2.37,1.64-4.97,2.75-7.82,3.26c-0.9,0.16-1.82,0.26-2.72,0.38
		c-0.24,0.03-0.57,0.03-0.56,0.33c0.01,0.35,0.34,0.38,0.62,0.36c0.4-0.04,0.79-0.1,1.18-0.16c3.71-0.51,7.11-1.78,10.09-4.08
		C70.4,31.39,71.25,29.93,71.27,28.05z M51.08,38.27c0.01,1.6,1.76,2.78,3.25,2.19c0.67-0.26,1.21-0.7,1.7-1.22
		c0.5-0.53,1.12-0.74,1.84-0.59c0.76,0.17,1.28,0.88,1.1,1.55c-0.19,0.69-0.59,1.15-1.42,0.83c-0.16-0.06-0.41-0.09-0.47,0.12
		c-0.07,0.23,0.13,0.39,0.31,0.5c0.59,0.37,1.43,0.21,1.91-0.35c0.58-0.67,0.69-1.59,0.27-2.3c-0.43-0.74-1.45-1.21-2.29-1.05
		c-0.79,0.15-1.4,0.6-1.93,1.17c-0.61,0.65-1.34,0.96-2.23,0.81c-0.78-0.13-1.38-0.97-1.27-1.76c0.13-0.94,0.64-1.35,1.55-1.26
		c0.23,0.03,0.53,0.17,0.59-0.19c0.06-0.33-0.25-0.38-0.48-0.45C52.27,35.9,51.07,36.89,51.08,38.27z M34.19,22.29
		c0.28-0.11,0.55-0.23,0.83-0.31c0.91-0.26,1.82,0.19,2.34,1.17c0.39,0.73,0.22,1.38-0.37,1.9c-0.53,0.47-1.17,0.53-1.63-0.03
		c-0.44-0.53-0.32-1.08,0.31-1.47c0.09-0.06,0.16-0.17,0.26-0.28c-0.8-0.02-1.33,0.63-1.18,1.42c0.15,0.79,0.58,1.34,1.43,1.46
		c0.96,0.13,1.8-0.31,2.2-1.14c0.48-1,0.09-2.42-0.87-3.11C36.39,21.1,35.02,21.2,34.19,22.29z M63.72,23.47
		c-0.02-0.02-0.04-0.05-0.06-0.05c-0.02,0-0.04,0.03-0.06,0.05c0.02,0.02,0.04,0.05,0.06,0.05C63.68,23.52,63.7,23.49,63.72,23.47z"
		/>
	<path class="st0" d="M71.54,40.06c1.73,1.35,2.55,3.19,2.71,5.31c0.38,5.13-2.5,8.69-7.79,9.79c-2.04,0.43-4.09,0.47-6.32,0.37
		c3.91,1.77,4.43,5.35,3.58,7.61c-0.9,2.41-3.39,3.73-5.88,3.12c0.59-0.15,1.19-0.26,1.77-0.45c3.26-1.1,4.22-4.78,1.9-7.33
		c-1.87-2.06-4.3-2.57-6.95-2.32c-4.17,0.39-7.06,2.8-9.54,5.93c-1.14,1.44-2.44,2.74-3.63,4.14c-2.24,2.64-5.25,3.74-8.54,4.16
		c-7.25,0.93-13.29-1.65-18.43-6.6c-1.59-1.53-2.69-3.34-2.54-5.67c0.04-0.6,0.14-1.18,0.51-1.96c0.09,1-0.02,1.75,0.24,2.48
		c0.95,2.72,3.91,4.04,6.57,2.9c0.17-0.07,0.34-0.14,0.51-0.21c0.03,0.03,0.07,0.06,0.1,0.09c-0.44,0.75-1.34,0.86-1.99,1.34
		c1.35,1.41,2.81,2.35,4.6,3.05c3.24,1.25,6.62,1.49,10.03,1.25c1.39-0.09,2.69-0.55,3.84-1.39c0.62-0.45,1.06-1.02,1.29-1.74
		c0.37-1.15-0.1-2.18-1.1-2.46c-0.77-0.21-1.22,0.24-1.6,0.79c-0.37,0.54-0.11,0.93,0.36,1.21c0.44,0.27,0.27,0.55,0.05,0.83
		c-0.54,0.69-1.52,0.78-2.21,0.21c-1.21-1-1.62-2.72-0.99-4.16c0.94-2.15,4.32-3.03,6.43-1.67c1.62,1.04,2.26,2.86,1.77,5.08
		c-0.06,0.26-0.23,0.58,0.12,0.71c0.3,0.12,0.42-0.19,0.5-0.41c1.07-3.13-0.82-6.42-3.96-6.73c-1.28-0.13-2.49,0.13-3.66,0.64
		c-0.03-0.03-0.07-0.07-0.1-0.1c1.38-1.71,3.23-2,5.23-1.59c2.79,0.58,3.88,2.69,4.46,5.31c2.03-2.81,4.64-4.74,7.83-6.19
		c-0.28-0.03-0.36-0.04-0.45-0.04c-6-0.04-12,0.01-18.01-0.17c-3.92-0.12-7.84-0.07-11.76-0.09c-0.92,0-1.84-0.01-2.73,0.25
		c-1.12,0.32-1.84,1.35-1.69,2.41c0.1,0.71,0.87,1.39,1.6,1.4c0.62,0,1.04-0.3,1.19-0.93c0.23-0.94,0.97-1.17,1.71-0.53
		c0.77,0.65,0.73,1.91-0.06,2.69c-0.23,0.23-0.62,0.28-0.73,0.64l0.01-0.01c-0.84,0.05-1.63,0.41-2.52,0.23
		c-1.8-0.37-3.05-1.44-3.44-3.14c-0.34-1.47,0.42-3.31,1.76-4.26c1.24-0.88,2.66-1.26,4.15-1.27c6.25-0.01,12.5,0.01,18.76,0.03
		c0.18,0,0.37,0.02,0.55,0.02c7.6,0.04,15.2,0.09,22.8,0.12c1.81,0.01,3.6-0.23,5.35-0.73c5.59-1.61,6.54-6.61,4.73-10.78
		c-0.16-0.36-0.34-0.72-0.51-1.08C71.46,40.14,71.5,40.1,71.54,40.06z"/>
	<path class="st0" d="M26.58,70.95c1.4,0.03,2.6,0.22,3.81,0.2c1.73-0.03,3.41-0.29,5.08-0.68c3.58-0.83,6.07-3.14,8.25-5.93
		c1.69-2.17,3.4-4.38,5.7-5.94c2.9-1.98,6.12-2.63,9.52-1.4c2.51,0.9,3.59,3.05,3.04,5.43c-0.52,2.26-4.03,3.13-5.63,2.23
		c-0.87-0.49-1.14-2.17-0.5-2.95c0.38-0.47,1.28-0.54,1.6-0.03c0.37,0.59,0.83,0.63,1.31,0.32c0.49-0.33,0.53-0.87,0.29-1.4
		c-0.24-0.54-0.67-0.87-1.22-1.04c-1.26-0.38-2.48-0.27-3.67,0.28c-2.2,1.01-4.01,2.58-5.78,4.19c-2.44,2.23-4.84,4.51-7.8,6.08
		c-2.97,1.57-6.17,1.9-9.46,1.68C29.64,71.86,28.16,71.64,26.58,70.95z"/>
	<path class="st0" d="M19.7,61.33c0.03-0.1,0.06-0.2,0.09-0.3c0,0-0.01,0.01-0.01,0.01c0.08,0.06,0.28-0.05,0.26,0.13
		c-0.01,0.09-0.16,0.17-0.24,0.25C19.77,61.39,19.74,61.36,19.7,61.33z"/>
	<path class="st0" d="M71.32,39.91c-0.05-0.02-0.09-0.04-0.14-0.07C71.3,39.7,71.29,39.85,71.32,39.91
		C71.32,39.91,71.32,39.91,71.32,39.91z"/>
	<path class="st0" d="M71.42,40.18c-0.03-0.09-0.07-0.18-0.1-0.26c0,0,0,0,0,0c0.07,0.05,0.15,0.1,0.22,0.15
		C71.5,40.1,71.46,40.14,71.42,40.18z"/>
	<path class="st0" d="M23.66,10.35c0.01-0.02,0.02-0.05,0.04-0.07c0.01-0.01,0.03,0,0.05,0c-0.04,0.02-0.07,0.04-0.11,0.05
		C23.64,10.33,23.66,10.35,23.66,10.35z"/>
	<path class="st1" d="M63.72,23.47c-0.02,0.02-0.04,0.05-0.06,0.05c-0.02,0-0.04-0.03-0.06-0.05c0.02-0.02,0.04-0.05,0.06-0.05
		C63.68,23.42,63.7,23.45,63.72,23.47z"/>
	<path class="st1" d="M64.14,23.01c-0.02,0.05-0.04,0.09-0.06,0.14C63.92,23.02,64.09,23.05,64.14,23.01
		C64.14,23.02,64.14,23.01,64.14,23.01z"/>
	<path class="st1" d="M64.4,22.91c-0.09,0.03-0.18,0.07-0.27,0.1c0,0,0.01,0.01,0.01,0.01c0.05-0.07,0.11-0.14,0.16-0.2
		C64.34,22.85,64.37,22.88,64.4,22.91z"/>
	<path class="st1" d="M49.04,12c0.04,0.03,0.07,0.06,0.11,0.09c-0.12,0.04-0.12-0.01-0.09-0.1C49.06,11.99,49.04,12,49.04,12z"/>
	<path class="st0" d="M33.95,30.19c-0.04-0.03-0.08-0.06-0.13-0.09c0.09-0.1,0.13-0.04,0.16,0.05
		C33.98,30.16,33.95,30.19,33.95,30.19z"/>
	<path class="st0" d="M33.29,57.98c-0.06,0.02-0.12,0.04-0.18,0.06c0.03-0.05,0.06-0.11,0.08-0.16
		C33.22,57.91,33.26,57.94,33.29,57.98z"/>
</g>
</svg>
