<?xml version="1.0" encoding="utf-8"?>
<!-- Generator: Adobe Illustrator 25.4.1, SVG Export Plug-In . SVG Version: 6.00 Build 0)  -->
<svg version="1.1" id="Layer_1" xmlns="http://www.w3.org/2000/svg" xmlns:xlink="http://www.w3.org/1999/xlink" x="0px" y="0px"
	 viewBox="0 0 130.1 80" style="enable-background:new 0 0 130.1 80;" xml:space="preserve">
<style type="text/css">
	.st0{fill-rule:evenodd;clip-rule:evenodd;fill:#0C4173;}
	.st1{fill-rule:evenodd;clip-rule:evenodd;fill:#FFFFFF;}
</style>
<polygon class="st0" points="16.7,0 130.1,0 113.4,80 0,80 16.7,0 "/>
<path class="st1" d="M24.4,50.7h2.1c1.6,0,2.8-0.3,3.6-0.8c0.8-0.6,1.3-1.3,1.4-2.2c0.2-0.9,0-1.6-0.4-2.2c-0.4-0.6-1.5-0.9-3-0.9
	h-2.4L24.4,50.7L24.4,50.7z M18.3,39h14c3,0,5.2,0.7,6.4,2.2c1.2,1.4,1.6,3.5,1,6.2c-0.6,2.8-1.8,4.9-3.8,6.5
	c-2,1.6-4.7,2.3-8.1,2.3h-4.6l-2.1,10.1h-8.5L18.3,39L18.3,39z"/>
<path class="st1" d="M55.3,44.1c4.8,0.1,5.2,4.4,3.8,9.6c-1.4,5.1-4.2,7.3-8.2,7.2c-4-0.1-4.8-3.9-3.6-8.7
	C48.5,47.4,50.5,44,55.3,44.1L55.3,44.1z M56.8,38.7c10.1,0.1,12.1,7.1,9.7,15.6c-2.4,8.5-8.4,12.2-16.9,12.2
	c-8.5-0.1-12-6.8-9.9-14.6C41.7,44,46.7,38.6,56.8,38.7L56.8,38.7z"/>
<polygon class="st1" points="52.8,12.6 64.3,12.6 64.6,31.1 73,12.6 84.8,12.6 73.8,60.7 109.6,60.5 108.5,65.7 65.5,65.7 
	76.4,18.5 66,39.4 59.1,39.4 58.3,17.2 53.5,39.4 47.3,39.4 52.8,12.6 "/>
<path class="st1" d="M102.2,21.9l-1.3-10.8l-6.1,10.8H102.2L102.2,21.9z M102.6,26.6H92.1l-2.6,5.6h-7.8L97.8,6h9.8l3.6,26.2h-7.9
	L102.6,26.6L102.6,26.6z"/>
<path class="st1" d="M95.6,47.9l-1.3-10.8l-5.9,10.8H95.6L95.6,47.9z M96,52.6H85.8l-2.6,5.6h-7.6L91.4,32h9.5l3.5,26.2h-7.7
	L96,52.6L96,52.6z"/>
<path class="st1" d="M37,28.9l-1.3-11.1l-6.1,11.1H37L37,28.9z M37.4,33.7H26.8l-2.6,5.7h-7.8l16.3-26.8h9.8l3.6,26.8h-8L37.4,33.7
	L37.4,33.7z"/>
<path class="st1" d="M99.8,77H98l-0.2-2.2h-3.3L93.2,77h-1.8l5.5-9.5h1.8L99.8,77L99.8,77z M97.6,73.2l-0.3-3.5l-2,3.5H97.6
	L97.6,73.2z M102.9,67.5h3.3c0.9,0,1.5,0.1,1.9,0.2c0.3,0.2,0.6,0.4,0.7,0.8c0.2,0.4,0.2,0.8,0.1,1.3c-0.1,0.5-0.3,0.9-0.6,1.2
	c-0.3,0.4-0.6,0.6-1,0.8c0.5,0.2,0.8,0.4,1,0.8c0.2,0.4,0.2,0.9,0.1,1.4c-0.2,0.7-0.5,1.3-0.9,1.7c-0.5,0.5-1,0.8-1.5,0.9
	c-0.4,0.1-1.1,0.1-2.4,0.1h-2.8L102.9,67.5L102.9,67.5z M104.2,69.1l-0.5,2.2h1.1c0.7,0,1.1,0,1.2,0c0.3,0,0.5-0.2,0.8-0.3
	c0.2-0.2,0.3-0.4,0.4-0.7c0.1-0.3,0.1-0.5,0-0.7c-0.1-0.2-0.2-0.3-0.4-0.3c-0.2,0-0.7-0.1-1.6-0.1H104.2L104.2,69.1z M103.3,72.8
	l-0.6,2.5h1.6c0.7,0,1.1,0,1.3-0.1c0.2-0.1,0.4-0.2,0.6-0.4c0.2-0.2,0.3-0.4,0.4-0.7c0.1-0.3,0.1-0.6,0-0.8
	c-0.1-0.2-0.2-0.3-0.5-0.4c-0.2-0.1-0.7-0.1-1.4-0.1H103.3L103.3,72.8z M85.8,73.5l0.4-1.6H90l-0.9,3.8c-0.5,0.4-1.1,0.7-1.9,1
	c-0.8,0.3-1.5,0.4-2.2,0.4c-0.9,0-1.6-0.2-2.1-0.6c-0.6-0.4-1-0.9-1.2-1.7c-0.2-0.8-0.2-1.6,0.1-2.7c0.3-1,0.7-1.9,1.2-2.7
	c0.6-0.7,1.2-1.3,1.9-1.7c0.7-0.4,1.5-0.5,2.4-0.5c1,0,1.8,0.2,2.3,0.7c0.5,0.5,0.7,1.2,0.7,2.1l-1.8,0.4c0-0.5-0.2-0.9-0.4-1.1
	c-0.3-0.3-0.7-0.4-1.2-0.4c-0.7,0-1.4,0.3-2,0.8c-0.6,0.5-1,1.3-1.3,2.4c-0.3,1.1-0.2,2,0.1,2.6c0.3,0.5,0.8,0.8,1.6,0.8
	c0.3,0,0.7-0.1,1.1-0.2c0.4-0.1,0.8-0.3,1.1-0.6l0.3-1.2H85.8L85.8,73.5z M75.8,77l1-4l-1.9-5.5H77l1.2,3.7l3-3.7h2.1L78.6,73l-1,4
	H75.8L75.8,77z M69.5,77l2-9.4H73l-1.7,7.8h3.8L74.9,77H69.5L69.5,77z M63,77l2.2-9.5h5.6l-0.4,1.6h-4l-0.5,2.2h3.4L69,72.9h-3.4
	l-0.9,4H63L63,77z"/>
</svg>
