<svg width="402" height="80" viewBox="0 0 402 80" fill="none" xmlns="http://www.w3.org/2000/svg">
<path d="M40 0C17.9264 0 0 17.8595 0 40C0 62.1405 17.9264 80 40 80C62.0736 80 80 62.1405 80 40C80 17.8595 62.0736 0 40 0ZM63.2776 24.9498L35.9866 40.2676L41.806 43.612L63.0769 31.3712V45.1505L49.1639 52.9766L63.01 55.5184V69.7659L2.47492 35.7859L10.903 30.903L22.8094 33.0435L63.1438 10.2341L63.2776 24.9498Z" fill="#1D5382"/>
<path d="M107.359 16.9902H121.808V33.3113H137.527V16.9902H152.042V63.6123H137.527V44.7494H121.808V63.6123H107.359V16.9902Z" fill="#1D5382"/>
<path d="M171.035 40.8029L158.661 39.4651C159.129 37.3247 159.798 35.5855 160.667 34.3815C161.537 33.1106 162.808 32.1073 164.48 31.1708C165.684 30.5019 167.289 29.9668 169.363 29.6324C171.436 29.2979 173.711 29.0303 176.119 29.0303C179.998 29.0303 183.142 29.231 185.483 29.6324C187.824 30.1006 189.831 30.9701 191.37 32.3748C192.44 33.3782 193.376 34.6491 193.978 36.4551C194.58 38.2611 194.982 39.8665 194.982 41.4718V56.3882C194.982 57.9936 195.115 59.2645 195.249 60.0671C195.45 61.0036 195.851 62.1407 196.587 63.4785H184.413C183.878 62.6089 183.61 61.94 183.41 61.4718C183.209 61.0036 183.142 60.2678 182.941 59.3313C181.202 61.0036 179.597 62.1407 177.858 62.8096C175.584 63.7461 172.908 64.2143 169.831 64.2143C165.751 64.2143 162.741 63.2778 160.667 61.4049C158.527 59.532 157.523 57.2578 157.523 54.5153C157.523 51.9735 158.259 49.833 159.798 48.1608C161.269 46.4885 164.079 45.2176 168.159 44.4818C173.042 43.4785 176.186 42.8096 177.657 42.4083C179.062 42.0069 180.6 41.4718 182.206 40.8698C182.206 39.2645 181.871 38.1942 181.202 37.5253C180.533 36.9233 179.396 36.522 177.724 36.522C175.584 36.522 174.045 36.8564 172.975 37.5253C172.239 38.328 171.57 39.3313 171.035 40.8029ZM182.206 47.6257C180.467 48.2277 178.527 48.8297 176.654 49.3648C174.045 50.0337 172.373 50.7026 171.704 51.4384C170.968 52.1073 170.634 52.9099 170.634 53.8464C170.634 54.8497 170.968 55.6524 171.704 56.3882C172.44 56.9902 173.443 57.3916 174.848 57.3916C176.253 57.3916 177.657 57.0571 178.928 56.3882C180.199 55.7193 181.069 54.8497 181.537 53.8464C182.072 52.843 182.273 51.5053 182.273 49.8999L182.206 47.6257Z" fill="#1D5382"/>
<path d="M202.676 16.9902H215.653V34.1809C217.392 32.3749 219.131 31.0371 220.937 30.3013C222.676 29.4986 224.75 29.0973 227.091 29.0973C230.636 29.0973 233.379 30.1675 235.452 32.308C237.459 34.4484 238.462 37.726 238.462 42.2076V63.6792H225.419V45.0839C225.419 42.9434 225.017 41.4718 224.215 40.6023C223.412 39.6658 222.342 39.2645 220.87 39.2645C219.332 39.2645 217.994 39.8665 217.058 41.0036C216.121 42.1408 215.586 44.3481 215.586 47.425V63.6123H202.609L202.676 16.9902Z" fill="#1D5382"/>
<path d="M246.153 29.8328H258.193V35.3177C259.999 33.1104 261.872 31.505 263.678 30.5017C265.484 29.4983 267.758 29.097 270.434 29.097C274.046 29.097 276.855 30.1672 278.795 32.3077C280.802 34.4482 281.805 37.7258 281.805 42.2074V63.6789H268.762V45.0836C268.762 42.9431 268.36 41.4716 267.558 40.602C266.755 39.6656 265.685 39.2642 264.213 39.2642C262.675 39.2642 261.337 39.8662 260.4 41.0034C259.464 42.1405 258.929 44.3478 258.929 47.4247V63.612H246.086V29.8328H246.153Z" fill="#1D5382"/>
<path d="M332.507 55.92H316.052L313.778 63.6123H299.062L316.588 16.9902H332.374L349.899 63.6123H334.848L332.507 55.92ZM329.497 45.8197L324.347 29.0304L319.196 45.8197H329.497Z" fill="#1D5382"/>
<path d="M354.117 16.9902H367.094V25.7528H354.117V16.9902ZM354.117 29.8331H367.094V63.6123H354.117V29.8331Z" fill="#1D5382"/>
<path d="M374.853 29.8328H386.96V35.3846C388.164 32.9766 389.368 31.3043 390.572 30.4348C391.843 29.4983 393.314 29.097 395.12 29.097C396.993 29.097 399.133 29.699 401.408 30.8361L397.394 40.0669C395.856 39.4649 394.652 39.0635 393.715 39.0635C391.976 39.0635 390.705 39.7324 389.769 41.204C388.431 43.2107 387.762 46.8896 387.762 52.3077V63.612H374.719L374.853 29.8328Z" fill="#1D5382"/>
</svg>
