<?xml version="1.0" encoding="utf-8"?>
<!-- Generator: Adobe Illustrator 25.4.1, SVG Export Plug-In . SVG Version: 6.00 Build 0)  -->
<svg version="1.1" id="Layer_2" xmlns="http://www.w3.org/2000/svg" xmlns:xlink="http://www.w3.org/1999/xlink" x="0px" y="0px"
	 viewBox="0 0 309.84 80" style="enable-background:new 0 0 309.84 80;" xml:space="preserve">
<style type="text/css">
	.st0{fill:#E50615;}
</style>
<g>
	<path class="st0" d="M27.7,1.95c3.95-1.03,8.02-1.63,12.08-1.9C32.35,0.7,24.99,2.76,18.7,6.83c-3.9,2.6-7.42,6.12-9.16,10.51
		c-1.41,3.52-1.46,7.58-0.11,11.16c1.63,4.28,4.88,7.8,8.61,10.4c3.14,2.22,6.61,3.79,10.24,5.04c3.68,1.25,7.42,2.38,10.78,4.44
		c2.11,1.3,4.06,3.03,5.26,5.26c0.87-1.68,2.17-3.09,3.63-4.17c3.52-2.65,7.75-4.01,11.86-5.36c4.44-1.46,8.78-3.47,12.41-6.45
		c3.36-2.65,6.18-6.18,7.31-10.35c1.03-3.52,0.7-7.37-0.81-10.73c-1.95-4.28-5.47-7.64-9.37-10.13C63.18,2.6,55.98,0.65,48.77,0
		c6.99,0.43,13.98,1.9,20.42,4.66c4.12,1.79,8.07,4.06,11.43,7.1c2.76,2.49,5.2,5.47,6.61,8.94c1.14,2.65,1.63,5.53,1.46,8.4
		c-0.16,3.52-1.41,6.99-3.36,9.97c-2.65,4.01-6.5,7.04-10.62,9.43c-2.49,1.46-5.15,2.65-7.86,3.68c-3.95,1.52-7.86,3.25-11.27,5.69
		c-3.41,2.38-6.34,5.36-8.4,8.99c-1.35,2.33-2.28,4.93-2.82,7.53c-1.03-4.71-3.36-9.21-6.77-12.68c-4.12-4.33-9.59-7.15-15.12-9.26
		c-4.01-1.52-7.91-3.36-11.43-5.8c-3.79-2.65-7.21-6.07-9.21-10.29c-2-4.28-2.44-9.32-1.03-13.87c1.46-4.71,4.71-8.67,8.45-11.7
		C14.58,6.45,21.03,3.63,27.7,1.95"/>
	<path class="st0" d="M34.25,1.95c-4.88,0.98-9.64,2.76-13.76,5.53c-2.6,1.79-4.98,4.01-6.61,6.77c-1.68,2.71-2.38,6.01-1.95,9.16
		c0.43,3.41,2.38,6.5,4.88,8.89c3.63,3.47,8.29,5.69,12.95,7.37c3.41,1.25,7.04,1.95,10.4,3.36c1.63,0.7,3.2,1.73,4.12,3.3
		c0.92-1.57,2.44-2.6,4.06-3.25c3.03-1.3,6.23-1.95,9.32-2.98c3.09-1.03,6.07-2.28,8.89-3.9c3.36-1.95,6.5-4.5,8.45-7.96
		c1.79-3.2,2.28-7.1,1.19-10.56c-1.08-3.58-3.52-6.56-6.39-8.83c-4.23-3.36-9.37-5.47-14.63-6.66c-1.57-0.33-3.2-0.7-4.82-0.76
		c0.7,0.05,1.41,0.11,2.11,0.27c4.98,0.98,9.86,2.82,13.92,5.91c2.71,2.11,5.09,4.88,6.07,8.18c1.03,3.25,0.54,6.88-1.19,9.75
		c-1.9,3.3-4.98,5.69-8.29,7.48c-3.58,1.9-7.53,3.14-11.54,3.95c-2.55,0.49-5.26,0.98-7.26,2.82c-1.9-1.73-4.55-2.28-6.99-2.76
		c-4.93-0.98-9.86-2.55-14.03-5.36c-2.87-1.9-5.47-4.5-6.77-7.75c-1.25-3.03-1.19-6.56,0.11-9.54c1.57-3.52,4.5-6.28,7.75-8.29
		c4.23-2.55,8.99-4.12,13.87-4.71C36.8,1.41,35.55,1.68,34.25,1.95"/>
	<path class="st0" d="M26.34,6.45c-2.76,1.79-5.26,4.17-6.56,7.21c-1.14,2.6-1.14,5.63,0,8.23c1.25,2.93,3.58,5.2,6.18,6.93
		c3.9,2.55,8.4,4.01,13,4.61c1.79,0.33,3.95,0.33,5.31,1.79c0.6-0.65,1.35-1.08,2.22-1.25c2.17-0.54,4.39-0.65,6.5-1.14
		c3.9-0.87,7.64-2.49,10.84-4.88c2.38-1.84,4.5-4.33,5.31-7.26c0.76-2.65,0.38-5.58-0.92-8.02c-1.68-3.14-4.61-5.47-7.69-7.1
		c-2.55-1.35-5.31-2.33-8.13-2.87c1.08,0.27,2.11,0.6,3.2,0.98c3.47,1.3,6.83,3.3,9.05,6.34c1.63,2.17,2.44,5.04,1.95,7.75
		c-0.54,3.14-2.65,5.8-5.15,7.69c-3.95,2.98-8.83,4.44-13.71,4.98c-5.8,0.54-11.81-0.22-17.12-2.76c-3.14-1.57-6.12-3.79-7.8-6.99
		c-1.19-2.28-1.46-5.04-0.65-7.42c0.87-2.71,2.82-4.88,5.04-6.56c2.6-1.9,5.63-3.2,8.78-3.95C32.63,3.3,29.32,4.61,26.34,6.45"/>
	<path class="st0" d="M43.35,4.93c-1.95,0.22-3.79,1.14-5.15,2.55c-1.57,1.63-2.44,3.85-2.38,6.12c0,2.38,1.14,4.71,2.93,6.23
		c1.68,1.46,3.9,2.22,6.07,2.06c2.33-0.11,4.55-1.3,6.01-3.14c1.35-1.68,2-3.85,1.84-6.01c-0.16-2.38-1.41-4.71-3.36-6.18
		C47.63,5.31,45.47,4.71,43.35,4.93"/>
	<path class="st0" d="M15.61,56.72c-2.49,0.49-4.98,1.41-6.99,3.03c-1.95,1.63-3.47,3.85-4.06,6.28c-0.76,2.93-0.27,6.18,1.35,8.72
		c1.41,2.22,3.58,3.9,6.07,4.66c2.44,0.76,5.15,0.81,7.53-0.11c1.73-0.7,3.41-1.84,4.33-3.52c1.19-2.06,1.19-4.77,0-6.83
		c-0.76-1.35-2.06-2.38-3.47-2.98c1.19,0.81,1.84,2.38,1.57,3.79c-0.33,1.68-1.95,3.03-3.68,2.93c-1.52-0.05-2.87-1.14-3.3-2.55
		c-0.38-1.3-0.11-2.71,0.65-3.79c0.87-1.25,2.22-2.11,3.68-2.55c2.71-0.81,5.69-0.54,8.4,0.33c3.79,1.25,7.15,3.58,10.13,6.23
		c2.22,2,4.23,4.23,5.91,6.72c-0.87-3.14-2.33-6.07-4.23-8.72c-2.93-4.12-6.83-7.58-11.38-9.75C24.28,56.72,19.84,55.91,15.61,56.72
		"/>
	<path class="st0" d="M65.08,56.89c-4.17,0.92-8.02,3.14-11.27,5.96c-4.28,3.79-7.58,8.72-9.16,14.25c1.84-2.76,4.17-5.2,6.66-7.42
		c2.28-1.95,4.82-3.68,7.58-4.88c2.6-1.14,5.47-1.68,8.29-1.35c1.9,0.22,3.85,0.92,5.15,2.38c0.98,1.08,1.52,2.65,1.19,4.12
		c-0.38,1.52-1.79,2.71-3.36,2.76c-1.57,0.11-3.09-0.98-3.58-2.44c-0.54-1.52,0.11-3.36,1.46-4.28c-1.19,0.49-2.33,1.3-3.09,2.33
		c-1.41,1.9-1.68,4.5-0.76,6.66c0.76,1.95,2.44,3.36,4.33,4.17c4.5,1.84,10.19,0.43,13.17-3.36c1.95-2.38,2.82-5.58,2.33-8.61
		c-0.33-2.22-1.35-4.39-2.87-6.07c-1.57-1.79-3.63-2.98-5.8-3.68C72.12,56.24,68.49,56.13,65.08,56.89"/>
	<path class="st0" d="M257.46,0c-5.83,11.89-11.56,23.88-17.39,35.77h6.05c1.32-2.64,2.64-5.39,3.85-8.03c4.95,0,9.91,0,14.75,0
		c1.32,2.64,2.64,5.39,3.96,8.03h5.94C269.02,23.88,263.3,11.89,257.46,0z M252.4,22.67c1.65-3.63,3.41-7.15,5.06-10.9
		c1.65,3.63,3.41,7.26,5.06,10.9H252.4z"/>
	<path class="st0" d="M171.94,0c-5.72,11.89-11.45,23.88-17.28,35.77h6.05c1.32-2.64,2.64-5.39,3.85-8.03c4.95,0,9.91,0,14.75,0
		c1.32,2.75,2.64,5.39,3.96,8.03h5.94C183.5,23.88,177.67,11.89,171.94,0z M166.99,22.67c1.65-3.63,3.41-7.26,5.06-10.9
		c1.65,3.63,3.41,7.26,5.06,10.9H166.99z"/>
	<path class="st0" d="M137.72,44.74c-5.3,11.22-10.8,22.54-16.21,33.76h5.71c1.25-2.49,2.49-5.09,3.74-7.58c4.67,0,9.35,0,13.92,0
		c1.25,2.49,2.49,5.09,3.64,7.58h5.61C148.74,67.28,143.23,55.96,137.72,44.74z M133.15,66.14c1.56-3.43,3.12-6.75,4.67-10.18
		c1.66,3.43,3.22,6.86,4.88,10.18C139.49,66.14,136.27,66.14,133.15,66.14z"/>
	<path class="st0" d="M205.18,0.55c0,11.67,0,23.44,0,35.22h5.5c0-7.48,0-14.97,0-22.45c8.59,7.92,17.17,15.96,25.76,23.88v-35
		h-5.61c0,7.37,0,14.86,0,22.23C222.24,16.51,213.66,8.48,205.18,0.55"/>
	<path class="st0" d="M278.27,0.55c0,11.67,0,23.44,0,35.22c1.76,0,3.63,0,5.5,0c0-7.48,0-14.97,0-22.45
		c8.59,7.92,17.17,15.85,25.76,23.88c0-11.67,0-23.33,0-35c-1.87,0-3.74,0-5.61,0v22.23C295.44,16.51,286.85,8.48,278.27,0.55"/>
	<path class="st0" d="M228.72,45.36c0,11.01,0,22.13,0,33.24c1.66,0,3.43,0,5.19,0c0-7.06,0-14.13,0-21.19
		c8.1,7.48,16.21,14.96,24.31,22.54c0-11.01,0-22.02,0-33.03h-5.3c0,6.96,0,13.92,0,20.98C244.82,60.32,236.83,52.74,228.72,45.36"
		/>
	<path class="st0" d="M291.67,48.79c-1.97,2.18-2.6,5.4-1.56,8.21c0.93,2.49,3.12,4.36,5.4,5.61c2.29,1.35,5.09,1.87,7.06,3.64
		c1.25,1.04,1.97,2.8,1.25,4.36c-0.93,2.7-4.36,4.05-6.96,3.01c-2.18-0.73-3.53-2.91-4.05-4.99c-1.77,0.31-3.43,0.62-5.19,0.93
		c0.62,3.22,2.29,6.23,5.09,8c3.12,1.97,7.17,2.08,10.6,0.73c4.05-1.66,6.75-6.13,6.13-10.39c-0.21-2.49-1.77-4.67-3.74-6.13
		c-2.49-1.87-5.61-2.49-8.1-4.16c-1.14-0.73-2.29-1.66-2.7-2.91c-0.42-1.25,0.21-2.7,1.35-3.32c2.6-1.56,6.23-0.21,7.58,2.39
		c1.56-0.73,3.12-1.45,4.57-2.29c-0.93-1.97-2.39-3.74-4.36-4.67C300.09,44.74,294.79,45.47,291.67,48.79"/>
	<path class="st0" d="M125.05,2.2c0,11.23,0,22.34,0,33.57h5.5V20.25c4.95,0,10.02,0,14.97,0c0,5.17,0,10.35,0,15.52h5.5V2.2h-5.5
		c0,4.29,0,8.7,0,12.99c-4.95,0-10.02,0-14.97,0c0-4.29,0-8.7,0-12.99H125.05"/>
	<path class="st0" d="M192.96,2.2c0,11.23,0,22.34,0,33.57h5.5V2.2H192.96"/>
	<path class="st0" d="M162.97,78.5V46.82h-5.19c0,10.6,0,21.09,0,31.68H162.97z"/>
	<path class="st0" d="M169.62,46.82c0,10.6,0,21.09,0,31.68h5.19V51.29c1.66,0,3.32,0,5.09,0c1.66,0,3.32,1.04,4.16,2.49
		c1.14,2.08,0.52,4.99-1.56,6.13c-2.08,1.35-4.67,0.62-7.06,0.83c3.95,5.92,7.89,11.84,11.84,17.76c2.08,0,4.05,0,6.13,0
		c-3.32-4.78-6.65-9.56-9.97-14.23c3.43-1.14,6.03-4.26,6.13-7.89c0.52-4.78-3.53-9.25-8.21-9.45
		C177.51,46.82,173.56,46.82,169.62,46.82"/>
	<path class="st0" d="M197.45,47.03c0,10.49,0,20.98,0,31.48h15.69c0-1.45,0-3.01,0-4.47h-10.39V47.03
		C200.88,47.03,199.22,47.03,197.45,47.03"/>
	<path class="st0" d="M221.97,78.5V46.82h-5.19c0,10.6,0,21.09,0,31.68H221.97z"/>
	<path class="st0" d="M284.4,78.5c0-1.45,0-3.01,0-4.47c-4.78,0-9.56,0-14.23,0c0-3.53,0-7.06,0-10.6h13.82v-4.47
		c-4.57,0-9.25,0-13.82,0c0-2.49,0-5.09,0-7.58h14.23c0-1.45,0-3.01,0-4.47h-19.53v31.68h19.53V78.5z"/>
</g>
</svg>
