<?xml version="1.0" encoding="utf-8"?>
<!-- Generator: Adobe Illustrator 25.4.1, SVG Export Plug-In . SVG Version: 6.00 Build 0)  -->
<svg version="1.1" id="Layer_1" xmlns="http://www.w3.org/2000/svg" xmlns:xlink="http://www.w3.org/1999/xlink" x="0px" y="0px"
	 viewBox="0 0 80 80" style="enable-background:new 0 0 80 80;" xml:space="preserve">
<style type="text/css">
	.st0{fill:#2B4664;}
	.st1{fill:#F1673A;}
</style>
<g>
	<path class="st0" d="M64.7,23.4c-0.6,2.3-2,4.2-4.1,5.3c-2,1.1-3.9,2.4-5.7,3.9c-1.7,1.3-3.6,2.5-5.5,3.5c-0.9,0.5-1.7,1-2.6,1.5
		c-3.6,1.7-4,5.6-2.6,8.6c0.9,2,2,3.9,3.3,5.6c2.6,3.6,5.5,7,8.6,10.2c0.1,0.3,0.1,0.6-0.1,0.9c-0.8,0-1.6-0.3-2.3-0.7
		c-3.3-2-5.6-4.9-8-7.8c-0.7-0.8-1.4-1.8-1.9-2.8c-1.2-2.5-3.5-3.8-5.8-5.1c-2.4-1.4-4.4-3.3-6-5.6c-2.3-3.2-4.5-6.5-6.7-9.8
		c-0.8-1.2-1.9-2.2-3.3-2.6c-1.7-0.3-3-1.6-3.5-3.2c-0.3-1-1.3-1.6-1.6-2.8c1.5,0.2,3,0.4,4.5,0.8c1.6,0.4,2.8,1.5,3.5,2.9
		c0.5,1,1.1,1.9,1.8,2.8c1.6,2,4,2.9,6.2,4c0.8,0.4,1.5,1.1,2.7,1.1c0.3-3.3,0.8-6.6,2.9-9.4c2-2.9,4.6-5.4,7.5-7.4l-1,9.2
		c-2,2.3-2.8,5.5-4,8.6c0.8,0.1,1.6-0.2,2.2-0.8c1.5-1.4,3.1-2.8,4.6-4.3c2.1-2,4.5-3.6,7.1-5c1.4-0.8,3.1-1.2,4.7-1
		c1,0.1,2.1,0,3.1-0.4C63.5,23.4,64.1,23.3,64.7,23.4z"/>
	<path class="st1" d="M66.4,69.9c11.2-9.8,16.4-25.6,12.1-40.9c-1.7-5.9-4.7-11.3-8.7-15.7C60.9,3.5,47.3-1.8,33.3,0.6
		C25.2,2,18,5.7,12.4,11.2c-0.1,0.1-0.2,0.2-0.3,0.2c-0.2,0.2-0.4,0.4-0.6,0.6c-8.8,8.8-13.3,21.6-11,34.7
		c1.3,7.6,4.7,14.4,9.7,19.9c0,0,0,0.1,0.1,0.1c0.2,0.3,0.5,0.5,0.8,0.8c9.9,10.4,25.1,15.2,39.8,11c5.2-1.5,10-4,14.1-7.4
		c0.2-0.2,0.5-0.4,0.7-0.6C65.9,70.3,66.2,70.1,66.4,69.9z M33,77.4L33,77.4C12.4,73.5-1.2,53.7,2.7,33C5.6,17.6,17.6,5.6,33,2.7v0
		c4.5-0.8,9.2-0.9,13.9,0C62.4,5.6,74.4,17.6,77.3,33h0.1c1.1,5.8,0.8,12-1,18.1c0,0,0,0,0,0h-0.1c-2.5,8.1-7.5,14.8-13.8,19.5
		c0,0-0.1,0-0.1,0.1c-0.5,0.3-0.9,0.7-1.4,1c-0.1,0-0.1,0.1-0.2,0.1c-1.3,0.8-2.6,1.6-3.9,2.2c-0.3,0.2-0.7,0.3-1,0.5
		c-0.2,0.1-0.5,0.2-0.7,0.3c-0.5,0.2-1,0.4-1.5,0.6c-0.1,0-0.3,0.1-0.4,0.1c-0.7,0.3-1.4,0.5-2.1,0.7v0C45.4,78.1,39.2,78.6,33,77.4
		z"/>
</g>
</svg>
