<?xml version="1.0" encoding="utf-8"?>
<!-- Generator: Adobe Illustrator 25.4.1, SVG Export Plug-In . SVG Version: 6.00 Build 0)  -->
<svg version="1.1" id="Layer_1" xmlns="http://www.w3.org/2000/svg" xmlns:xlink="http://www.w3.org/1999/xlink" x="0px" y="0px"
	 viewBox="0 0 243 80" style="enable-background:new 0 0 243 80;" xml:space="preserve">
<style type="text/css">
	.st0{fill:#2B4664;}
	.st1{fill:#F1673A;}
</style>
<g>
	<path class="st0" d="M116,23.4c-0.6,2.3-2,4.2-4.1,5.3c-2,1.1-3.9,2.4-5.7,3.9c-1.7,1.3-3.6,2.5-5.5,3.5c-0.9,0.5-1.7,1-2.6,1.5
		c-3.6,1.7-4,5.6-2.6,8.6c0.9,2,2,3.9,3.3,5.6c2.6,3.6,5.5,7,8.6,10.2c0.1,0.3,0.1,0.6-0.1,0.9c-0.8,0-1.6-0.3-2.3-0.7
		c-3.3-2-5.6-4.9-8-7.8c-0.7-0.8-1.4-1.8-1.9-2.8c-1.2-2.5-3.5-3.8-5.8-5.1c-2.4-1.4-4.4-3.3-6-5.6c-2.3-3.2-4.5-6.5-6.7-9.8
		c-0.8-1.2-1.9-2.2-3.3-2.6c-1.7-0.3-3-1.6-3.5-3.2c-0.3-1-1.3-1.6-1.6-2.8c1.5,0.2,3,0.4,4.5,0.8c1.6,0.4,2.8,1.5,3.5,2.9
		c0.5,1,1.1,1.9,1.8,2.8c1.6,2,4,2.9,6.2,4c0.8,0.4,1.5,1.1,2.7,1.1c0.3-3.3,0.8-6.6,2.9-9.4c2-2.9,4.6-5.4,7.5-7.4l-1,9.2
		c-2,2.3-2.8,5.5-4,8.6c0.8,0.1,1.6-0.2,2.2-0.8c1.5-1.4,3.1-2.8,4.6-4.3c2.1-2,4.5-3.6,7.1-5c1.4-0.8,3.1-1.2,4.7-1
		c1,0.1,2.1,0,3.1-0.4C114.7,23.4,115.4,23.3,116,23.4z"/>
	<path class="st1" d="M53.9,33C57.8,12.4,77.6-1.2,98.2,2.7c15.4,2.9,27.5,14.9,30.4,30.4h1.9c-3.7-21.6-24.3-36.2-45.9-32.5
		C68,3.4,54.9,16.4,52.1,33H53.9z M127.6,51.2c-6.1,20.1-27.4,31.4-47.4,25.2c-12.1-3.7-21.5-13.1-25.2-25.2H53
		c6,21.1,28,33.3,49.1,27.3c13.2-3.8,23.5-14.1,27.3-27.3H127.6z"/>
	<path class="st0" d="M0,35.2h2.8l6.5,8.5v-8.5h3v13.9H9.7l-6.7-8.8v8.8H0V35.2z M15,42.2c0-3.9,3.2-7.1,7.1-7.1c0.1,0,0.2,0,0.2,0
		c3.9-0.1,7.2,3,7.3,6.9c0,0.1,0,0.1,0,0.2c0,3.9-3.2,7.1-7.1,7.1c-0.1,0-0.2,0-0.2,0c-3.9,0.1-7.2-3-7.3-6.9
		C15,42.3,15,42.2,15,42.2z M26.6,42.2c0.1-2.3-1.7-4.3-4-4.4c0,0-0.1,0-0.1,0c-2.3,0-4.1,1.8-4.2,4.1c0,0.1,0,0.1,0,0.2
		c-0.1,2.3,1.7,4.3,4,4.4c0,0,0.1,0,0.1,0c2.3,0,4.1-1.8,4.1-4.1C26.6,42.3,26.6,42.2,26.6,42.2z M32.5,35.2h6.3
		c1.5-0.1,3,0.4,4.1,1.4c0.8,0.9,1.2,2,1.2,3.2c0.1,1.9-1.1,3.7-3,4.3l3.4,5h-3.6l-3-4.4h-2.4V49h-3.1L32.5,35.2z M38.6,41.9
		c1.5,0,2.3-0.8,2.3-2c0-1.3-0.9-2-2.4-2h-3.1v4L38.6,41.9z M50,38h-4.2v-2.8h11.5V38H53v11H50V38z M59.6,35.2h3.1v5.5h5.6v-5.5h3.1
		v13.9h-3.1v-5.6h-5.6v5.6h-3.1V35.2z M115.2,35.2h3.3l2.8,9.4l3.1-9.4h2.6l3.1,9.4l2.9-9.4h3.2l-4.6,13.9h-2.6l-3.1-9.1l-3.2,9.1
		h-2.6L115.2,35.2z M138.4,35.2h6.3c1.5-0.1,3,0.4,4.1,1.4c0.8,0.9,1.2,2,1.2,3.2c0.1,1.9-1.1,3.7-3,4.3l3.4,5h-3.6l-3-4.4h-2.4V49
		h-3.1L138.4,35.2z M144.5,41.9c1.5,0,2.3-0.8,2.3-2c0-1.3-0.9-2-2.4-2h-3.1v4L144.5,41.9z M152.9,35.2h3.1v13.9h-3.1V35.2z
		 M158.7,42.2c0-3.9,3.2-7.1,7.1-7.1c0,0,0.1,0,0.1,0c2-0.1,3.9,0.6,5.4,1.9l-1.9,2.3c-1-0.9-2.3-1.4-3.6-1.4c-2.3,0.1-4.1,2-4,4.3
		c-0.1,2.3,1.6,4.3,3.9,4.4c0.1,0,0.2,0,0.3,0c1,0,2-0.3,2.9-0.8v-2h-3.1v-2.6h6v6c-1.6,1.4-3.7,2.2-5.9,2.2
		c-3.8,0.2-7.1-2.7-7.3-6.6C158.7,42.5,158.7,42.4,158.7,42.2z M174.9,35.2h3.1v5.5h5.6v-5.5h3.1v13.9h-3.1v-5.6h-5.6v5.6h-3.1V35.2
		z M193.1,38h-4.2v-2.8h11.5V38h-4.2v11h-3.1L193.1,38z M213.4,35.1h2.8l5.9,14H219l-1.3-3.1h-5.9l-1.3,3.1h-3.1L213.4,35.1z
		 M216.6,43.3l-1.8-4.5l-1.8,4.5L216.6,43.3z M224.5,35.2h3.1v13.9h-3.1V35.2z M231,35.2h6.3c1.5-0.1,3,0.4,4.1,1.4
		c0.8,0.9,1.2,2,1.2,3.2c0.1,1.9-1.1,3.7-3,4.3l3.4,5h-3.6l-3-4.4H234v4.4H231L231,35.2z M237.1,41.9c1.5,0,2.3-0.8,2.3-2
		c0-1.3-0.9-2-2.4-2H234v4L237.1,41.9z"/>
</g>
</svg>
