<?xml version="1.0" encoding="utf-8"?>
<!-- Generator: Adobe Illustrator 25.4.1, SVG Export Plug-In . SVG Version: 6.00 Build 0)  -->
<svg version="1.1" id="Layer_1" xmlns="http://www.w3.org/2000/svg" xmlns:xlink="http://www.w3.org/1999/xlink" x="0px" y="0px"
	 viewBox="0 0 86.51 80" style="enable-background:new 0 0 86.51 80;" xml:space="preserve">
<style type="text/css">
	.st0{fill:#E60012;}
</style>
<path id="XMLID_46_" class="st0" d="M40.2,12.11C41.6,8.15,42.67,4.07,43.31,0c0.75,4.29,1.82,8.47,3.32,12.54
	c1.39,3.64,3.32,6.97,5.15,10.4c1.61,3.11,2.89,6.65,2.47,10.18c-0.21,3.32-2.25,6.33-5.15,7.93c-1.82,1.18-4.07,1.5-5.79,2.79
	c-0.86-0.75-1.82-1.07-2.79-1.5c-1.93-0.75-3.86-1.61-5.25-3.11c-2.25-2.14-3.11-5.36-2.89-8.36c0.21-3.54,1.93-6.86,3.54-9.86
	C37.41,18.12,39.02,15.22,40.2,12.11 M42.02,34.31c-1.5,0.64-2.36,2.47-1.82,3.97c0.54,1.61,2.36,2.57,3.97,2.04
	c1.72-0.43,2.79-2.47,2.14-4.07C45.78,34.41,43.74,33.56,42.02,34.31z"/>
<path id="XMLID_47_" class="st0" d="M0,28.41c3.75-2.25,8.36-3.43,12.76-2.68c2.79,0.43,5.47,1.61,7.18,3.75
	c1.29,1.5,2.14,3.22,2.68,5.15c0.54,1.72,0.86,3.54,1.5,5.25c0.96,2.47,2.57,4.72,4.82,6.22c2.47,1.82,5.47,2.89,8.36,3.97
	c2.25,0.96,4.61,2.36,5.9,4.61c0.86-1.5,2.25-2.68,3.75-3.54c2.04-1.18,4.18-1.82,6.33-2.68c2.68-1.18,5.25-2.79,7.08-5.15
	c1.5-1.93,2.36-4.18,2.89-6.54c0.75-3.11,1.93-6.22,4.4-8.25c2.68-2.36,6.33-3,9.65-2.89c3.22,0.11,6.43,1.18,9.22,2.89
	c-1.5,0.11-2.89,0.64-4.07,1.72c-1.5,1.18-2.25,3-2.79,4.82c-0.64,2.68-1.39,5.47-2.68,7.93c-1.39,2.89-3.75,5.36-6.65,6.75
	c-4.29,2.14-9.22,2.47-13.83,2.25c-3.43-0.21-6.97,0.21-9.97,1.82c-1.29,0.64-2.36,1.61-3.32,2.68c-2.25-2.68-5.79-4.07-9.33-4.5
	c-2.36-0.32-4.72,0-6.97,0c-4.07-0.11-8.36-0.75-11.9-2.89c-2.25-1.29-3.97-3.32-5.25-5.47c-1.18-2.14-1.93-4.5-2.57-6.86
	c-0.54-1.93-0.96-3.97-2.25-5.57C3.86,29.48,1.93,28.62,0,28.41z"/>
<path id="XMLID_48_" class="st0" d="M28.84,27.98c0.86-1.07,1.93-1.93,3-2.68c-2.04,2.25-3.64,5.25-3.43,8.47
	c0.11,2.68,1.5,5.15,3.43,6.86c2.36,2.04,5.36,3.11,8.25,4.18c1.18,0.43,2.36,0.86,3.22,1.72c1.29-1.18,3.11-1.61,4.72-2.25
	c3.32-1.18,6.65-2.79,8.68-5.79c1.5-2.25,2.04-5.25,1.18-7.83c-0.54-2.04-1.72-3.75-3.11-5.25c2.68,1.72,4.72,4.4,5.47,7.5
	c0.75,2.79,0,5.79-1.72,8.04c-2.47,3.22-6.33,4.82-9.97,6.22c-1.93,0.75-4.07,1.39-5.25,3.32c-0.96-1.61-2.89-2.36-4.61-3
	c-3.11-1.18-6.33-2.47-8.9-4.72c-1.93-1.61-3.32-3.97-3.64-6.43C25.73,33.13,27.02,30.23,28.84,27.98z"/>
<path id="XMLID_51_" class="st0" d="M27.44,54.35c5.57-1.93,12.44,0,15.87,4.82c3.86-5.47,11.9-7.29,17.69-3.97
	c2.68,1.5,4.61,3.97,6,6.65c1.5,2.89,2.14,6.11,3.43,9.11c0.75,1.82,1.72,3.64,3.43,4.82c1.72,1.18,3.86,1.5,5.79,1.93
	c-4.4,2.04-9.54,2.68-14.37,2.04c-3.86-0.54-7.61-2.25-10.51-4.93c-2.36-2.14-4.07-5.04-5.25-8.04c-0.64-1.61-1.07-3.43-2.14-4.82
	c-0.75-1.07-1.93-1.82-3.22-1.93l0.11-0.32c2.68-1.93,6.11-2.79,9.43-2.36c0.96,0.11,1.93,0.43,2.47,1.29
	c0.43,0.64,0.32,1.72-0.43,2.14c-0.75,0.54-2.04,0-2.14-0.96c-0.11-0.54,0.32-0.86,0.64-1.18c-0.54,0.21-1.18,0.43-1.5,1.07
	c-0.75,1.07-0.43,2.68,0.54,3.43c1.61,1.39,4.18,1.07,5.57-0.54c1.07-1.18,1.29-3.11,0.32-4.5c-0.75-1.29-2.14-2.04-3.64-2.36
	c-2.14-0.43-4.29-0.21-6.33,0.43c-2.14,0.75-4.07,1.93-5.47,3.75c-0.32,0.11-0.64,0-0.96,0c-1.61,0-3.22,0.75-4.18,2.04
	c-1.07,1.39-1.5,3.22-2.14,4.82c-1.18,3-2.89,5.79-5.25,7.93c-3,2.79-6.86,4.5-10.83,5.04c-4.72,0.54-9.65,0-13.94-2.04
	c2.25-0.32,4.72-0.86,6.54-2.36c1.82-1.72,2.79-4.29,3.64-6.65c0.96-2.89,1.82-6,3.54-8.58C22.19,57.57,24.55,55.42,27.44,54.35
	 M29.7,55.96c-1.07,0.43-2.14,1.18-2.68,2.25c-0.75,1.39-0.54,3.22,0.64,4.29c1.29,1.29,3.32,1.61,4.93,0.75
	c1.29-0.64,1.93-2.14,1.39-3.54c-0.32-0.75-0.96-1.07-1.72-1.39c0.43,0.32,0.86,0.86,0.64,1.39c-0.21,0.96-1.5,1.29-2.25,0.64
	c-0.75-0.54-0.75-1.61-0.11-2.25c0.86-0.96,2.14-1.07,3.43-1.18c3-0.11,6.11,0.64,8.47,2.57l0.21-0.11
	c-0.54-0.43-0.96-0.96-1.5-1.39c-1.72-1.39-3.75-2.25-5.9-2.57C33.23,55.32,31.3,55.32,29.7,55.96z"/>
</svg>
