<?xml version="1.0" encoding="utf-8"?>
<!-- Generator: Adobe Illustrator 25.4.1, SVG Export Plug-In . SVG Version: 6.00 Build 0)  -->
<svg version="1.1" id="Layer_1" xmlns="http://www.w3.org/2000/svg" xmlns:xlink="http://www.w3.org/1999/xlink" x="0px" y="0px"
	 viewBox="0 0 396.65 80" style="enable-background:new 0 0 396.65 80;" xml:space="preserve">
<style type="text/css">
	.st0{fill:#E60012;}
</style>
<g id="XMLID_39_">
	<path id="XMLID_46_" class="st0" d="M40.2,12.11C41.6,8.15,42.67,4.07,43.31,0c0.75,4.29,1.82,8.47,3.32,12.54
		c1.39,3.64,3.32,6.97,5.15,10.4c1.61,3.11,2.89,6.65,2.47,10.18c-0.21,3.32-2.25,6.33-5.15,7.93c-1.82,1.18-4.07,1.5-5.79,2.79
		c-0.86-0.75-1.82-1.07-2.79-1.5c-1.93-0.75-3.86-1.61-5.25-3.11c-2.25-2.14-3.11-5.36-2.89-8.36c0.21-3.54,1.93-6.86,3.54-9.86
		C37.41,18.12,39.02,15.22,40.2,12.11 M42.02,34.31c-1.5,0.64-2.36,2.47-1.82,3.97c0.54,1.61,2.36,2.57,3.97,2.04
		c1.72-0.43,2.79-2.47,2.14-4.07C45.78,34.41,43.74,33.56,42.02,34.31z"/>
	<path id="XMLID_47_" class="st0" d="M0,28.41c3.75-2.25,8.36-3.43,12.76-2.68c2.79,0.43,5.47,1.61,7.18,3.75
		c1.29,1.5,2.14,3.22,2.68,5.15c0.54,1.72,0.86,3.54,1.5,5.25c0.96,2.47,2.57,4.72,4.82,6.22c2.47,1.82,5.47,2.89,8.36,3.97
		c2.25,0.96,4.61,2.36,5.9,4.61c0.86-1.5,2.25-2.68,3.75-3.54c2.04-1.18,4.18-1.82,6.33-2.68c2.68-1.18,5.25-2.79,7.08-5.15
		c1.5-1.93,2.36-4.18,2.89-6.54c0.75-3.11,1.93-6.22,4.4-8.25c2.68-2.36,6.33-3,9.65-2.89c3.22,0.11,6.43,1.18,9.22,2.89
		c-1.5,0.11-2.89,0.64-4.07,1.72c-1.5,1.18-2.25,3-2.79,4.82c-0.64,2.68-1.39,5.47-2.68,7.93c-1.39,2.89-3.75,5.36-6.65,6.75
		c-4.29,2.14-9.22,2.47-13.83,2.25c-3.43-0.21-6.97,0.21-9.97,1.82c-1.29,0.64-2.36,1.61-3.32,2.68c-2.25-2.68-5.79-4.07-9.33-4.5
		c-2.36-0.32-4.72,0-6.97,0c-4.07-0.11-8.36-0.75-11.9-2.89c-2.25-1.29-3.97-3.32-5.25-5.47c-1.18-2.14-1.93-4.5-2.57-6.86
		c-0.54-1.93-0.96-3.97-2.25-5.57C3.86,29.48,1.93,28.62,0,28.41z"/>
	<path id="XMLID_48_" class="st0" d="M28.84,27.98c0.86-1.07,1.93-1.93,3-2.68c-2.04,2.25-3.64,5.25-3.43,8.47
		c0.11,2.68,1.5,5.15,3.43,6.86c2.36,2.04,5.36,3.11,8.25,4.18c1.18,0.43,2.36,0.86,3.22,1.72c1.29-1.18,3.11-1.61,4.72-2.25
		c3.32-1.18,6.65-2.79,8.68-5.79c1.5-2.25,2.04-5.25,1.18-7.83c-0.54-2.04-1.72-3.75-3.11-5.25c2.68,1.72,4.72,4.4,5.47,7.5
		c0.75,2.79,0,5.79-1.72,8.04c-2.47,3.22-6.33,4.82-9.97,6.22c-1.93,0.75-4.07,1.39-5.25,3.32c-0.96-1.61-2.89-2.36-4.61-3
		c-3.11-1.18-6.33-2.47-8.9-4.72c-1.93-1.61-3.32-3.97-3.64-6.43C25.73,33.13,27.02,30.23,28.84,27.98z"/>
	<path id="XMLID_51_" class="st0" d="M27.44,54.35c5.57-1.93,12.44,0,15.87,4.82c3.86-5.47,11.9-7.29,17.69-3.97
		c2.68,1.5,4.61,3.97,6,6.65c1.5,2.89,2.14,6.11,3.43,9.11c0.75,1.82,1.72,3.64,3.43,4.82c1.72,1.18,3.86,1.5,5.79,1.93
		c-4.4,2.04-9.54,2.68-14.37,2.04c-3.86-0.54-7.61-2.25-10.51-4.93c-2.36-2.14-4.07-5.04-5.25-8.04c-0.64-1.61-1.07-3.43-2.14-4.82
		c-0.75-1.07-1.93-1.82-3.22-1.93l0.11-0.32c2.68-1.93,6.11-2.79,9.43-2.36c0.96,0.11,1.93,0.43,2.47,1.29
		c0.43,0.64,0.32,1.72-0.43,2.14c-0.75,0.54-2.04,0-2.14-0.96c-0.11-0.54,0.32-0.86,0.64-1.18c-0.54,0.21-1.18,0.43-1.5,1.07
		c-0.75,1.07-0.43,2.68,0.54,3.43c1.61,1.39,4.18,1.07,5.57-0.54c1.07-1.18,1.29-3.11,0.32-4.5c-0.75-1.29-2.14-2.04-3.64-2.36
		c-2.14-0.43-4.29-0.21-6.33,0.43c-2.14,0.75-4.07,1.93-5.47,3.75c-0.32,0.11-0.64,0-0.96,0c-1.61,0-3.22,0.75-4.18,2.04
		c-1.07,1.39-1.5,3.22-2.14,4.82c-1.18,3-2.89,5.79-5.25,7.93c-3,2.79-6.86,4.5-10.83,5.04c-4.72,0.54-9.65,0-13.94-2.04
		c2.25-0.32,4.72-0.86,6.54-2.36c1.82-1.72,2.79-4.29,3.64-6.65c0.96-2.89,1.82-6,3.54-8.58C22.19,57.57,24.55,55.42,27.44,54.35
		 M29.7,55.96c-1.07,0.43-2.14,1.18-2.68,2.25c-0.75,1.39-0.54,3.22,0.64,4.29c1.29,1.29,3.32,1.61,4.93,0.75
		c1.29-0.64,1.93-2.14,1.39-3.54c-0.32-0.75-0.96-1.07-1.72-1.39c0.43,0.32,0.86,0.86,0.64,1.39c-0.21,0.96-1.5,1.29-2.25,0.64
		c-0.75-0.54-0.75-1.61-0.11-2.25c0.86-0.96,2.14-1.07,3.43-1.18c3-0.11,6.11,0.64,8.47,2.57l0.21-0.11
		c-0.54-0.43-0.96-0.96-1.5-1.39c-1.72-1.39-3.75-2.25-5.9-2.57C33.23,55.32,31.3,55.32,29.7,55.96z"/>
	<path id="XMLID_54_" d="M134.43,7.29c3.86-0.54,8.25,0.75,10.61,3.97c1.5,2.04,2.04,4.82,1.72,7.29c-0.32,2.57-1.93,4.93-4.18,6.33
		c-3.11,2.04-7.08,2.68-10.61,1.61c-2.14-0.64-4.07-2.14-5.36-4.07c-1.61-2.25-2.14-5.25-1.29-7.83
		C126.61,10.61,130.47,7.83,134.43,7.29 M135.08,9.86c-0.75,0.21-1.5,0.43-2.14,0.96c-1.61,1.07-2.47,2.89-2.79,4.72
		c-0.43,2.04-0.21,4.29,0.96,6.11c1.18,1.82,3.43,2.79,5.57,2.68c1.82-0.11,3.43-1.39,4.29-2.89c1.29-2.36,1.5-5.25,0.64-7.83
		c-0.54-1.61-1.93-3.11-3.54-3.54C137.01,9.76,135.94,9.65,135.08,9.86z"/>
	<path id="XMLID_56_" d="M177.85,7.5c3.32-0.75,6.86-0.43,9.97,1.07c-0.21,0.86-0.86,1.5-1.18,2.36c-2.57-1.18-5.57-1.39-8.15-0.43
		c-1.72,0.64-3.22,1.93-3.97,3.64c-1.18,2.89-0.43,6.54,2.04,8.47c2.14,1.72,5.04,1.93,7.61,1.29c0.32-2.04,0.11-4.07,0.11-6
		c1.39,0,2.89,0,4.29,0c0,2.57,0,5.25,0,7.83c-3.86,1.82-8.47,1.82-12.44,0.21c-2.68-1.07-5.25-2.89-6.43-5.57s-0.64-5.79,0.86-8.25
		C172.17,9.65,175.07,8.15,177.85,7.5z"/>
	<path id="XMLID_62_" d="M216.88,7.29c2.89-0.32,6.11,0.11,8.58,1.82c2.04,1.39,3.43,3.54,3.75,6c0.43,2.57,0.11,5.47-1.61,7.61
		c-3.32,4.4-10.08,5.79-14.79,3.11c-2.36-1.29-4.18-3.54-4.82-6.22c-0.86-3.43,0.32-7.18,2.79-9.65
		C212.37,8.25,214.62,7.4,216.88,7.29 M217.41,9.97c-1.5,0.21-2.79,1.29-3.64,2.57c-1.18,1.93-1.72,4.4-1.29,6.65
		c0.32,1.61,1.18,3.22,2.57,4.18c1.39,0.86,3.22,1.39,4.82,0.96c1.5-0.43,2.68-1.5,3.32-2.79c1.07-1.93,1.5-4.29,1.07-6.43
		c-0.32-1.61-1.07-3.22-2.36-4.18C220.73,9.86,219.02,9.76,217.41,9.97z"/>
	<path id="XMLID_63_" d="M255.79,9.65c4.18-3,9.97-3.43,14.58-1.18c-0.21,0.86-0.86,1.5-1.18,2.36c-3.54-1.82-8.36-1.29-11.15,1.72
		c-2.68,2.89-1.93,8.04,1.18,10.29c2.14,1.5,4.93,1.72,7.4,1.07c0.32-2.04,0.11-3.97,0.21-6c1.39,0,2.79,0,4.29,0
		c0,2.68,0,5.36,0,8.04c-3.43,0.96-7.08,1.29-10.61,0.64c-1.93-0.43-3.86-1.07-5.47-2.36c-2.36-1.93-3.64-5.04-3.32-8.04
		C252.04,13.51,253.65,11.15,255.79,9.65z"/>
	<path id="XMLID_64_" d="M387.44,7.5c2.79-0.75,6-0.43,8.47,1.07c-0.43,0.86-0.96,1.72-1.82,2.25c-1.07-0.86-2.47-1.07-3.86-0.96
		c-0.75,0.11-1.5,0.32-1.82,0.96c-0.43,0.75-0.32,1.72,0.21,2.36c0.86,1.07,2.14,1.72,3.22,2.57c1.29,0.96,2.57,1.82,3.64,3
		c0.86,1.18,1.39,2.68,1.07,4.18c-0.32,1.29-1.29,2.25-2.47,2.89c-1.61,0.96-3.54,1.39-5.47,1.39c-2.14,0-4.4-0.43-6.11-1.82
		c0.43-0.75,1.18-1.5,1.5-2.36c1.5,0.96,3.22,1.5,5.04,1.5c0.96,0,2.04-0.32,2.57-1.18c0.64-1.07,0.32-2.57-0.54-3.43
		c-1.93-2.04-4.93-3-6.75-5.25c-1.07-1.29-1.18-3.22-0.32-4.72C384.87,8.58,386.15,7.83,387.44,7.5z"/>
	<path id="XMLID_65_" d="M105.28,7.4c1.39,0,2.89,0,4.29,0c0,2.47,0,4.93,0,7.29c3,0,6,0,8.9,0c0.43-2.47,0-4.93,0.21-7.29
		c1.39,0,2.79,0,4.29,0c0,6.43,0,12.76,0,19.19c-1.39,0-2.79,0-4.29,0c0-3.11,0-6.11,0-9.11c-3-0.43-5.9,0-8.9-0.21
		c-0.43,3.11,0,6.22-0.21,9.33c-1.39,0-2.89,0-4.29,0C105.28,20.26,105.28,13.83,105.28,7.4z"/>
	<path id="XMLID_70_" d="M149.01,7.4c1.5-0.32,3.11,0.11,4.18,1.29c3.54,3.97,6.65,8.15,10.29,11.9c0-4.4,0-8.79,0-13.19
		c1.18,0,2.36,0,3.54,0c0,6.33,0,12.76,0,19.08c-0.86,0.21-1.82,0.43-2.68,0c-1.39-0.64-2.25-1.93-3.22-3
		c-2.89-3.32-5.57-6.86-8.68-9.97c0,4.4,0,8.68,0,13.08c-1.18,0.21-2.36,0.11-3.54,0.11C149.01,20.26,149.01,13.83,149.01,7.4z"/>
	<path id="XMLID_71_" d="M191.58,7.4c1.5,0,3,0,4.4,0c0,2.68,0,5.36,0,8.04c2.79-2.47,5.15-5.36,7.83-8.04c1.5,0,3,0,4.4,0
		c-2.57,2.89-5.36,5.68-8.15,8.47c3,3.75,6.33,7.08,9.43,10.61c-1.82,0-3.64,0.75-5.36,0c-1.72-0.96-2.47-2.79-3.64-4.29
		c-1.39-1.72-3-3.32-4.5-5.04c0,3,0,6,0,9.01l0.32,0.21l-0.54,0.11l0.21,0.11c-1.5,0-2.89,0-4.4,0
		C191.58,20.26,191.58,13.83,191.58,7.4z"/>
	<path id="XMLID_72_" d="M231.56,7.4c1.5-0.32,3,0.11,4.07,1.18c3.64,3.86,6.65,8.25,10.4,12.01c0-4.4,0-8.79,0-13.19
		c1.18,0,2.36,0,3.54,0c0,6.33,0,12.76,0,19.08c-0.96,0.32-2.04,0.43-2.89-0.11c-1.39-0.75-2.25-2.14-3.22-3.32
		c-2.79-3.22-5.36-6.54-8.25-9.54c0,4.4,0,8.68,0,13.08c-1.18,0.21-2.36,0.11-3.54,0.11C231.56,20.26,231.56,13.83,231.56,7.4z"/>
	<path id="XMLID_75_" d="M289.24,7.4c1.07,0,2.25,0,3.32,0c2.47,6.43,5.25,12.76,7.93,19.08c-1.5,0.32-3.11,0.11-4.61,0.11
		c-0.75-1.72-1.39-3.54-2.04-5.36c-2.57,0-5.04,0-7.61,0c-0.96,1.72-1.61,3.54-2.47,5.36c-1.18,0-2.36,0-3.54,0
		C283.34,20.26,286.13,13.72,289.24,7.4 M290.2,11.9c-1.07,2.36-2.14,4.72-3,7.08c1.93,0,3.86,0,5.79,0
		C292.13,16.62,291.28,14.15,290.2,11.9z"/>
	<path id="XMLID_76_" d="M301.57,7.4c1.39,0,2.89,0,4.29,0c0,6.43,0,12.76,0,19.19c-1.39,0-2.89,0-4.29,0
		C301.57,20.26,301.57,13.83,301.57,7.4z"/>
	<path id="XMLID_79_" d="M309.29,7.4c3,0,6.11-0.21,9.11,0.21c1.72,0.21,3.54,0.75,4.61,2.14c1.29,1.72,1.18,4.07,0,5.79
		c-0.75,1.07-1.82,1.82-3,2.36c1.61,3,3.97,5.47,5.36,8.58c-1.61,0-3.22,0-4.82,0c-2.04-2.36-3.11-5.25-4.93-7.72
		c-0.64,0-1.29,0-1.93,0c-0.43,2.57,0,5.15-0.11,7.72c-1.39,0-2.89,0-4.29,0C309.29,20.15,309.29,13.72,309.29,7.4 M313.57,9.97
		c0,2.14,0,4.29,0,6.43c1.5,0.32,3.32,0.32,4.61-0.75c1.39-1.29,1.61-3.75,0.11-5.04C317,9.43,315.18,9.54,313.57,9.97z"/>
	<path id="XMLID_80_" d="M326.44,7.4c1.39,0,2.79,0,4.29,0c0,5.47,0,10.93,0,16.51c2.79,0.43,5.68,0.11,8.58,0.21
		c0,0.86,0,1.72,0,2.57c-4.29,0-8.47,0-12.76,0C326.44,20.26,326.44,13.83,326.44,7.4z"/>
	<path id="XMLID_81_" d="M340.27,7.4c1.39,0,2.89,0,4.29,0c0,6.43,0,12.76,0,19.19c-1.39,0-2.68,0-4.07,0.11
		c-0.43-0.11-0.21-0.64-0.21-0.96C340.27,19.62,340.27,13.51,340.27,7.4z"/>
	<path id="XMLID_82_" d="M348.09,7.4c0.86-0.21,1.93-0.21,2.79,0.21c1.29,0.64,1.93,2.04,2.89,3.11c2.89,3.32,5.9,6.54,8.9,9.86
		c0-4.4,0-8.79,0-13.19c1.07,0,2.25,0,3.32,0c0,6.43,0,12.86,0,19.19c-1.07,0.21-2.25,0.11-3.22-0.54c-1.18-0.86-2.04-2.25-3-3.32
		c-2.68-3.11-5.25-6.22-8.04-9.33c-0.43,4.4-0.11,8.79-0.21,13.19c-1.07,0-2.25,0-3.32,0C348.09,20.26,348.09,13.83,348.09,7.4z"/>
	<path id="XMLID_83_" d="M369.43,7.4c3.86,0,7.83,0,11.69,0c0,0.86,0,1.72,0,2.57c-2.47,0-4.93,0-7.4,0c0,1.72,0,3.43,0,5.15
		c2.36,0.43,4.82,0.11,7.29,0.11c0,0.86,0,1.72,0,2.57c-2.47,0-4.82,0-7.29,0c0,2.04,0,4.07,0,6c2.57,0.43,5.15,0.11,7.83,0.21
		c0,0.86,0,1.72,0,2.57c-4.07,0-8.04,0-12.11,0C369.43,20.26,369.43,13.83,369.43,7.4z"/>
	<path id="XMLID_89_" d="M179.78,44.81c3.97-0.32,8.04-0.75,11.9-1.61c0.43-0.11,0.86,0.32,1.07,0.64c0.43,0.75,0.64,1.61,0.96,2.47
		c-3.43,0.86-7.08,0.96-10.61,1.5c-0.43,0.54-0.11,1.39-0.11,2.04c4.4,0.43,8.9,0.11,13.29,0.21c0,0.96,0,1.93,0,2.89
		c-3,0-6.11,0-9.11,0c2.47,2.68,6.11,3.64,9.54,4.18c-0.43,1.18-1.18,2.14-1.5,3.32c-0.96-0.32-1.82-0.54-2.79-0.86
		c0,4.4,0,8.79,0,13.19c-1.29,0-2.47,0-3.75,0c0-0.43,0-0.96-0.11-1.39c-0.21-0.11-0.64-0.11-0.86-0.11c-4.4,0-8.79,0-13.19,0
		c-0.75,0-0.43,0.96-0.43,1.5c-1.18,0-2.47,0-3.64,0c0.43-4.29,0.11-8.68,0.21-12.97c-0.96,0.21-1.82,0.64-2.79,0.75
		c-0.54-0.96-1.07-2.04-1.72-3c3.32-1.07,6.86-2.14,9.43-4.61c-3,0-6.11,0-9.11,0c0-0.96,0-1.93,0-2.89c4.29,0,8.47,0,12.76,0
		c0.21-0.75,0.11-1.5,0-2.25c-3.32,0.32-6.65,0.21-9.97,0.21c-0.21-1.07-0.64-2.04-0.75-3.11
		C172.28,45.13,176.03,45.03,179.78,44.81 M183,58.21c2.14-0.11,4.18,0.21,6.33-0.11c-2.36-0.96-4.5-2.68-6.11-4.61
		C182.78,55,183.11,56.6,183,58.21 M178.5,54.35c-0.21,0.21-0.43,0.54-0.64,0.75c-1.29,1.18-2.79,2.04-4.18,3.11
		c1.82,0,3.64,0,5.57,0c-0.11-1.39,0.21-2.79-0.11-4.18C179.14,53.39,178.71,54.14,178.5,54.35 M174.1,61.32c0,0.64,0,1.18,0,1.82
		c4.93,0,9.76,0,14.69,0c0-0.64,0-1.39,0-2.04C183.86,61,178.93,61.43,174.1,61.32 M174.1,68.29c4.82,0,9.76,0,14.58,0
		c0-0.75,0-1.5,0-2.14c-4.82,0-9.65,0-14.47,0C173.99,66.79,174.1,67.54,174.1,68.29z"/>
	<path id="XMLID_94_" d="M223.95,43.53c1.18,0,2.36,0,3.54,0c0,1.07,0,2.04,0,3.11c1.61,0.32,3.32,0.11,5.04,0.21
		c0-1.07,0-2.14,0-3.32c1.18,0,2.36,0,3.54,0c0,1.07,0,2.04,0,3.11c1.72,0.32,3.43,0.11,5.15,0.11c0,0.96,0,1.82,0,2.79
		c-1.72,0-3.43,0-5.04,0c-0.21,0.86-0.11,1.82-0.11,2.79c1.93,0,3.86,0,5.79,0c0,0.96,0,1.93,0,2.89c-1.82,0-3.75,0-5.57,0
		c1.29,2.36,3.75,3.54,6.11,4.61c-0.43,1.18-1.29,2.14-1.72,3.32c-1.61-0.86-3.11-2.04-4.61-3.11c0,2.04,0,4.07,0,6
		c-3.32,0-6.75,0-10.08,0c-0.21,0.86-0.11,1.72,0.21,2.57c3.54-0.11,6.97,0.21,10.51-0.21c0.96-1.18,0.75-2.79,0.86-4.18
		c1.29,0.32,2.68,0.64,3.86,1.29c-0.32,1.61-0.32,3.43-1.29,4.82c-0.75,1.07-2.04,1.39-3.22,1.5c-3.54,0.32-7.08,0.43-10.61,0.11
		c-1.18-0.11-2.57-0.21-3.43-1.18c-0.96-0.96-0.96-2.47-0.86-3.64c0.11-1.82,0.54-3.64,0.11-5.47c-0.86,0.43-1.61,0.96-2.47,1.5
		c-0.96-0.75-1.61-1.93-2.25-3c2.47-0.96,4.82-2.47,6.33-4.72c-1.5,0.21-2.89-0.32-4.4,0c-1.39,0.43-1.61,2.04-2.68,2.79
		c-1.72-0.96-3-2.47-4.82-3.32c0.64-0.96,1.39-1.82,2.04-2.68c1.93,0.75,3.43,2.14,5.15,3.11c0-0.96,0-1.93,0-3
		c1.61,0,3.11,0,4.72,0c0.32-0.86,0.11-1.72,0.11-2.57c-1.39,0-2.79,0-4.07,0c-0.11-0.32-0.11-0.75-0.21-1.07
		c-0.64,0.43-0.96,1.18-1.5,1.61c-1.82-1.07-3.11-2.79-5.04-3.54c0.75-1.07,1.39-2.14,2.57-2.79c1.39,1.07,2.79,2.25,4.5,2.68
		c1.18,0.32,2.47,0.32,3.75,0.11C224.17,45.78,223.95,44.7,223.95,43.53 M227.49,49.74c0,0.86,0,1.72,0,2.57c1.72,0,3.32,0,5.04,0
		c0-0.86,0-1.72,0-2.57C230.81,49.74,229.2,49.74,227.49,49.74 M227.81,55.85c-0.64,0.43-1.07,1.18-1.29,2.04c2.36,0,4.61,0,6.97,0
		c-0.32-0.96-1.07-1.72-1.61-2.57C230.6,55.1,228.99,55,227.81,55.85 M225.88,60.57c0,0.86,0,1.72,0,2.57c2.14,0,4.29,0,6.43,0
		c0-0.86,0-1.72,0-2.57C230.17,60.57,228.02,60.57,225.88,60.57z"/>
	<path id="XMLID_95_" d="M316.9,43.95c1.5-0.32,3.11-0.11,4.61-0.11c0.43,0.75,0.96,1.5,1.18,2.36c3.97,0,7.93,0,11.79,0
		c0,2.36,0,4.61,0,6.97c-1.39,0-2.68,0-4.07,0c0-1.18,0-2.47,0-3.64c-6.86-0.43-13.72,0-20.58-0.21c0,1.29,0,2.57,0,3.86
		c-1.29,0-2.57,0-3.86,0c0-2.36,0-4.61,0-6.97c3.97,0,7.93,0,11.9,0C317.86,45.24,317.33,44.6,316.9,43.95z"/>
	<path id="XMLID_98_" d="M265.22,43.95c1.18,0,2.36,0,3.54,0c0,0.86-0.21,1.72-0.54,2.57c1.39,0.21,2.89,0.21,4.29,0
		c-0.11,7.18,0.75,14.47,0.32,21.66c-0.11,1.29-0.21,2.79-1.39,3.43c-1.5,0.75-3.22,0.54-4.72,0.43c-0.11-1.07-0.54-2.04-0.64-3.11
		c0.96,0.11,2.04,0.21,3,0.21c0.86-3.32,0.11-6.75,0.32-10.08c-1.61,0-3.22,0-4.82,0c-0.64,4.5-0.43,9.22-2.57,13.4
		c-1.07-0.64-2.04-1.18-3-2.04c1.5-3.54,2.14-7.4,2.04-11.26c-0.64-0.11-1.29-0.11-2.04,0c0-0.96,0-1.82,0-2.79
		c0.64,0,1.39,0,2.04,0c0-3.22,0-6.43,0-9.76c1.07,0,2.25,0.21,3.32-0.11c0.21,0,0.32-0.32,0.43-0.54
		C264.9,45.35,265.01,44.6,265.22,43.95 M264.26,49.42c0,2.36,0,4.61,0,6.97c1.72,0,3.32,0,5.04,0c0-2.36,0-4.61,0-6.97
		C267.58,49.42,265.87,49.42,264.26,49.42z"/>
	<path id="XMLID_99_" d="M277.02,43.95c1.29,0,2.57,0,3.86,0c0.43,1.18,1.07,2.25,1.29,3.43c1.93,0,3.97,0,5.9,0
		c0,1.07,0,2.04,0,3.11c-5.04,0-10.18,0-15.22,0c0-1.07,0-2.04,0-3.11c1.72,0,3.43,0,5.25,0C277.98,46.21,277.45,45.13,277.02,43.95
		z"/>
	<path id="XMLID_100_" d="M315.61,50.17c1.29,0.21,2.47,0.75,3.64,1.29c-1.29,2.47-3.32,4.4-5.79,5.68
		c-2.04,1.07-4.18,1.61-6.43,2.04c-0.54-0.96-1.07-2.04-1.72-2.89c3-0.75,6.22-1.5,8.47-3.64
		C314.65,51.89,315.18,51.03,315.61,50.17z"/>
	<path id="XMLID_101_" d="M264.58,50.71c0.96,0,1.82-0.43,2.79-0.43c0.54,1.5,1.07,3,1.5,4.61c-0.96,0.32-2.04,0.54-3,0.54
		C265.65,53.82,265.12,52.32,264.58,50.71z"/>
	<path id="XMLID_102_" d="M321.94,50.49c1.29-0.32,2.57-0.11,3.97-0.11c0.11,1.29-0.21,2.79,0.21,3.97c2.89,0.86,6,0.11,8.9,0.32
		c0.21,1.07,0.11,2.04,0.11,3.11c-3-0.11-5.9,0.32-8.9,0c-1.5-0.21-3.22-0.75-4.07-2.14C321.29,54.03,321.61,52.21,321.94,50.49z"/>
	<path id="XMLID_103_" d="M275.41,52.85c3.11-0.43,6.33-0.11,9.43-0.21c0,4.4,0,8.79,0,13.19c0,1.18-0.32,2.57,0.75,3.32
		c0.75-1.18,0.75-2.57,0.75-3.86c0-1.18-0.11-2.47-0.21-3.64c1.07,0.21,2.04,0.75,3.11,0.96c-0.32,1.93,0.21,3.97,0.21,5.9
		c0,1.07-0.32,2.36-1.29,3c-1.5,1.07-3.64,1.29-5.36,0.54c-1.29-0.54-1.72-2.04-1.93-3.32c-0.43-3.97,0.75-7.83,0.43-11.79
		c-0.11-0.32,0-0.96-0.43-1.07c-0.64-0.11-1.29,0-1.93,0c0.11,3.75,0,7.61-0.86,11.26c-0.43,1.82-1.18,3.64-2.25,5.25
		c-1.07-0.64-2.04-1.39-3-2.25c1.82-2.68,2.25-6,2.47-9.22C275.52,58.21,275.41,55.53,275.41,52.85L275.41,52.85z"/>
	<path id="XMLID_104_" d="M308.43,60.36c7.93-0.43,15.76-0.11,23.69-0.21c0,1.07,0,2.14,0,3.11c-3.22,0-6.43,0-9.65,0
		c-0.43,1.72-0.11,3.43-0.11,5.15c4.4,0.43,8.79,0,13.19,0.21c0,1.07,0,2.04,0,3.11c-10.18,0-20.26,0-30.45,0c0-1.07,0-2.04,0-3.11
		c4.29,0,8.58,0,12.86,0c0.32-1.72,0.11-3.43,0.11-5.15c-3.11,0-6.33,0-9.43,0C308.54,62.5,308.75,61.43,308.43,60.36z"/>
	<path id="XMLID_105_" d="M264.58,61.32c0.75-0.32,1.61-0.43,2.36-0.64c1.39,1.39,1.5,3.43,1.93,5.25c-0.96,0.11-1.93,0.54-3,0.64
		C265.65,64.75,265.01,63.04,264.58,61.32z"/>
	<path id="XMLID_106_" d="M216.02,61.11c1.07,0.54,2.04,1.5,3.11,2.04c-1.07,3.22-2.04,6.75-4.61,9.11
		c-0.64-1.07-1.82-1.72-2.47-2.89C214.09,67,215.16,64,216.02,61.11z"/>
</g>
</svg>
