<?xml version="1.0" encoding="utf-8"?>
<!-- Generator: Adobe Illustrator 25.4.1, SVG Export Plug-In . SVG Version: 6.00 Build 0)  -->
<svg version="1.1" id="Layer_1" xmlns="http://www.w3.org/2000/svg" xmlns:xlink="http://www.w3.org/1999/xlink" x="0px" y="0px"
	 viewBox="0 0 80 80" style="enable-background:new 0 0 80 80;" xml:space="preserve">
<style type="text/css">
	.st0{fill:#FCDD53;}
	.st1{fill:#E42A2B;}
	.st2{fill:#478C3E;}
</style>
<g>
	<g>
		<circle class="st0" cx="40" cy="40" r="38.25"/>
		<path class="st1" d="M40,80C17.94,80,0,62.06,0,40S17.94,0,40,0s40,17.94,40,40S62.06,80,40,80z M40,3.5
			C19.87,3.5,3.5,19.87,3.5,40c0,20.13,16.37,36.5,36.5,36.5S76.5,60.13,76.5,40C76.5,19.87,60.13,3.5,40,3.5z"/>
	</g>
	<g>
		<path class="st2" d="M65.77,48.98c-1.28,1.52-2.45,2.33-4.55,2.68H38.13c-1.17-0.58-1.28-1.4,0-1.98H51.2
			c1.17,0,2.22-0.35,3.03-1.4c3.85-5.13,8.28-10.03,11.66-15.63c-1.52,1.4-2.45,2.22-4.66,2.57H45.25c-1.63,0-2.92,0.58-3.97,1.98
			c-3.15,4.08-6.41,8.05-9.56,12.13c-8.28,9.91-13.99-11.9-2.8-8.4c-1.52-1.98-3.15-3.85-4.66-5.83c-1.17-1.17-2.92-1.28-4.08,0
			c-7,8.86-7.11,22.51,7.46,23.79h31.02C60.99,55.51,63.44,52.24,65.77,48.98L65.77,48.98z M60.99,21.22
			c-1.05,0.82-1.75,1.17-3.38,1.17H43.5c-1.4,0-3.15,0.58-4.08,1.75l-8.98,11.43L33,38.83c1.05-1.28,2.1-2.57,3.15-3.85
			c1.05-1.17,2.22-1.63,3.85-1.63h8.75C53.18,33.35,58.89,23.79,60.99,21.22z"/>
	</g>
</g>
</svg>
