<?xml version="1.0" encoding="utf-8"?>
<!-- Generator: Adobe Illustrator 25.4.1, SVG Export Plug-In . SVG Version: 6.00 Build 0)  -->
<svg version="1.1" id="Layer_1" xmlns="http://www.w3.org/2000/svg" xmlns:xlink="http://www.w3.org/1999/xlink" x="0px" y="0px"
	 viewBox="0 0 343.99 80" style="enable-background:new 0 0 343.99 80;" xml:space="preserve">
<style type="text/css">
	.st0{fill:#FCDD53;}
	.st1{fill:#E42A2B;}
	.st2{fill:#478C3E;}
	.st3{fill-rule:evenodd;clip-rule:evenodd;fill:#0F477F;}
</style>
<g>
	<circle class="st0" cx="36.98" cy="36.98" r="35.36"/>
	<path class="st1" d="M36.98,73.96C16.59,73.96,0,57.37,0,36.98S16.59,0,36.98,0s36.98,16.59,36.98,36.98S57.37,73.96,36.98,73.96z
		 M36.98,3.23c-18.61,0-33.75,15.14-33.75,33.75c0,18.61,15.14,33.75,33.75,33.75s33.75-15.14,33.75-33.75
		C70.73,18.37,55.59,3.23,36.98,3.23z"/>
</g>
<g>
	<path class="st2" d="M60.81,45.28c-1.19,1.4-2.26,2.16-4.2,2.48H35.26c-1.08-0.54-1.19-1.29,0-1.83h12.08
		c1.08,0,2.05-0.32,2.8-1.29c3.56-4.74,7.65-9.27,10.78-14.45c-1.4,1.29-2.26,2.05-4.31,2.37H41.83c-1.51,0-2.7,0.54-3.67,1.83
		c-2.91,3.77-5.93,7.44-8.84,11.21c-7.65,9.16-12.94-11-2.59-7.76c-1.4-1.83-2.91-3.56-4.31-5.39c-1.08-1.08-2.7-1.19-3.77,0
		c-6.47,8.19-6.58,20.81,6.9,21.99h28.68C56.39,51.32,58.65,48.3,60.81,45.28L60.81,45.28z M56.39,19.62
		c-0.97,0.75-1.62,1.08-3.13,1.08H40.22c-1.29,0-2.91,0.54-3.77,1.62l-8.3,10.57l2.37,3.02c0.97-1.19,1.94-2.37,2.91-3.56
		c0.97-1.08,2.05-1.51,3.56-1.51h8.09C49.16,30.84,54.45,21.99,56.39,19.62z"/>
</g>
<g>
	<path class="st3" d="M322.48,26.74l-4.96,18.11h-7.12l8.19-29.76h7.22l5.93,18.01l4.96-18.01h7.12l-8.3,29.76h-7.12L322.48,26.74z
		 M293.8,34.29h7.01l-0.43-10.67L293.8,34.29z M306.2,15.09l2.37,29.76h-7.44l-0.32-5.5H291l-3.34,5.5h-7.44l18.76-29.76
		L306.2,15.09z M273.64,20.92h-8.52l1.62-5.82h24.04l-1.62,5.82h-8.41l-6.68,23.94h-7.01L273.64,20.92z M243.67,35.26
		c0,3.34,1.73,5.61,5.5,4.96c5.28-1.08,4.85-7.55-1.4-8.19c-5.28-0.65-7.98-4.96-6.68-10.03c2.26-4.85,6.04-6.9,11.54-7.55h0.11
		c4.1-0.86,10.24,0.22,10.89,5.39c0.11,0.86,0.32,2.59-0.22,3.45h-6.68c0-1.51-0.32-2.91-1.83-3.34c-4.96-1.4-11.21,4.42-0.75,7.12
		c2.7,0.65,6.36,1.62,7.12,4.64c1.08,5.28-2.05,10.24-6.25,12.61c-3.88,1.62-9.49,1.73-13.48,0.97c-4.96-1.73-5.93-4.85-5.07-10.03
		H243.67z M238.71,15.09c-2.8,9.92-5.5,19.84-8.19,29.76h-7.12l8.19-29.76L238.71,15.09z M205.71,26.74l13.69-11.64h8.63
		l-14.66,12.29l7.44,17.47h-8.73l-4.85-12.61l-3.88,3.23l-2.7,9.38h-7.01l8.3-29.76h7.01L205.71,26.74z M178.54,26.95h14.02
		l-1.51,5.39h-13.91l-1.83,6.68h15.96l-1.51,5.82h-23.18l8.19-29.76h22.86l-1.62,5.82h-15.74L178.54,26.95z M151.81,20.59
		l-1.73,6.36h5.39c1.94,0,3.77-0.86,4.53-3.13c0.43-1.4,0.11-2.48-1.29-3.02C156.87,20.27,153.85,20.59,151.81,20.59z M148.57,32.13
		l-1.94,7.33c3.99,0,9.7,1.19,11.21-3.77c0.43-2.59-1.4-3.56-3.67-3.56H148.57z M160.86,15.09c3.67,0,7.65,1.4,6.9,5.82
		c-0.54,3.45-3.56,6.68-6.68,7.87V29c4.53,0,4.53,5.93,3.45,8.95c-1.62,4.74-6.68,6.9-11.43,6.9h-15.09l8.19-29.76L160.86,15.09z
		 M131.11,21.02h-13.58l1.73-5.93h22.21l-1.4,5.5l-19.62,18.33h15.42l-1.51,5.93h-24.15l1.73-6.25L131.11,21.02z M97.57,15.09
		c-1.62,5.82-3.34,11.64-4.96,17.36c-0.65,3.02-0.54,8.09,3.88,7.44c3.56-0.43,6.36-4.1,7.12-7.44c1.51-5.71,3.02-11.54,4.64-17.36
		h7.01c-2.16,7.87-3.34,18.54-8.41,25.44c-3.56,3.45-6.79,4.96-12.08,4.96c-8.52,0-10.57-3.88-9.49-11.97
		c1.62-6.15,3.34-12.29,5.07-18.44L97.57,15.09z"/>
</g>
<g>
	<path class="st3" d="M285.71,65.34l-4.85,9.27h-4.74l-0.43-15.09h4.85l-0.22,9.27l4.74-9.27h4.42l-0.43,9.27l4.85-9.27h5.07
		l-8.84,15.09h-4.85L285.71,65.34z M275.26,59.19l-0.97,3.56h-0.22c-1.51,0-1.83-0.11-3.23,0.43c-2.05,1.19-3.02,2.8-3.67,5.28
		l-1.62,6.15h-5.39l4.96-15.09h4.31l-0.65,2.05C270.62,59.84,272.88,59.19,275.26,59.19L275.26,59.19z M257.68,57.36l0.86-3.56h4.74
		l-0.97,3.56H257.68z M261.67,59.51l-4.1,15.09h-4.64l4.2-15.09H261.67z M312.13,76.98c3.02,0,2.8,0,4.42-2.59l-2.26-14.88h5.5
		l0.65,9.38l4.96-9.38h4.85l-9.27,15.96c-2.48,3.99-4.74,4.53-9.7,4.53L312.13,76.98z M328.09,69.65h4.42
		c-0.22,0.97-0.22,1.4,0.43,2.16c1.62,1.29,3.45,0.22,4.31-1.29c0.43-2.7-4.85-1.83-6.68-3.67c-0.43-0.54-0.65-0.86-0.65-1.62
		c0-1.51,0.43-2.91,1.4-4.1c0.65-0.65,1.4-1.08,2.26-1.4c1.4-0.54,2.8-0.65,4.2-0.65c0.97,0,1.73,0,2.7,0.11
		c2.7,0.43,2.7,2.37,2.7,4.42h-4.2l0.11-0.43c0-1.4-1.08-1.4-2.05-1.4c-1.29,0-2.26,0.54-2.48,1.94c0,0.65,0.32,0.97,0.86,1.19
		c3.88,0.65,7.98,1.4,6.36,5.71c-0.75,1.83-2.16,3.13-3.99,3.88c-1.19,0.43-2.7,0.54-3.99,0.54c-1.08,0-2.16,0-3.23-0.32
		c-0.97-0.43-1.62-0.86-2.26-1.62c-0.65-1.29-0.75-1.94-0.54-3.45H328.09z M247.22,67.6c-1.94,0-5.28,0.75-5.93,2.8
		c-0.43,0.86,0.32,1.51,1.08,1.83C245.61,72.24,246.15,69.97,247.22,67.6z M238.92,64.26c0-3.45,4.53-4.74,7.44-5.18
		c2.8,0,4.85-0.11,6.25,2.37c0.11,0.75,0.22,1.19,0.11,1.94c-0.54,2.7-3.34,8.63-2.26,11.11v0.11h-4.74v-1.29
		c-9.6,6.9-13.05-5.82-3.13-7.12c0.86-0.22,5.61-0.65,5.61-2.48c0-3.02-3.56-1.83-4.64-0.22c0,0.22-0.22,0.65-0.22,0.75
		L238.92,64.26z M306.95,67.6c-1.94,0-5.28,0.75-5.93,2.8c-0.43,0.86,0.32,1.51,1.08,1.83C305.34,72.24,305.88,69.97,306.95,67.6z
		 M298.65,64.26c0-3.45,4.53-4.74,7.44-5.18c2.8,0,4.85-0.11,6.25,2.37c0.11,0.75,0.22,1.19,0.11,1.94
		c-0.54,2.7-3.34,8.63-2.26,11.11v0.11h-4.74v-1.29c-9.6,6.9-13.05-5.82-3.13-7.12c0.86-0.22,5.61-0.65,5.61-2.48
		c0-3.02-3.56-1.83-4.64-0.22c0,0.22-0.22,0.65-0.22,0.75L298.65,64.26z"/>
</g>
</svg>
