<?xml version="1.0" encoding="utf-8"?>
<!-- Generator: Adobe Illustrator 25.4.1, SVG Export Plug-In . SVG Version: 6.00 Build 0)  -->
<svg version="1.1" id="Layer_1" xmlns="http://www.w3.org/2000/svg" xmlns:xlink="http://www.w3.org/1999/xlink" x="0px" y="0px"
	 viewBox="0 0 80.01 80.27" style="enable-background:new 0 0 80.01 80.27;" xml:space="preserve">
<style type="text/css">
	.st0{fill:#0F3258;}
</style>
<g>
	<g id="_x23_fefefeff">
	</g>
	<path class="st0" d="M72.62,33.85c-4.74-5.05-11.05-8.08-17.89-8.59c-0.47-6.19-3.01-11.99-7.31-16.59
		C37.1-2.37,19.71-2.94,8.68,7.38C-2.36,17.7-2.95,35.09,7.39,46.14c4.85,5.19,11.3,8.08,17.89,8.57
		c0.45,5.99,2.87,11.87,7.29,16.61C37.97,77.07,45.28,80,52.61,80c6.7,0,13.44-2.46,18.71-7.39c5.35-4.99,8.43-11.79,8.67-19.1
		C80.24,46.18,77.63,39.2,72.62,33.85z M25.21,52.25c-5.92-0.51-11.67-3.13-16.04-7.8C-0.22,34.4,0.31,18.58,10.35,9.17
		c4.82-4.5,10.93-6.72,17.04-6.72c3.34,0,6.68,0.67,9.79,1.99c3.11,1.32,5.99,3.28,8.45,5.92c3.85,4.13,6.15,9.3,6.64,14.82
		c0.06,0.81,0.1,1.63,0.1,2.46c0,0.2-0.02,0.41-0.02,0.61c-0.04,0.9-0.12,1.81-0.24,2.69c-0.12,0.85-0.28,1.67-0.49,2.48
		c-0.22,0.96-0.51,1.91-0.86,2.83c-0.33,0.92-0.75,1.83-1.2,2.71c-1.3,2.48-3.01,4.74-5.11,6.68l-0.1,0.22
		c-1.12,1.36-1.89,2.95-2.22,4.68c-0.12,0.57-0.18,1.14-0.2,1.71c-0.1,2.85,0.92,5.56,2.87,7.65c2.1,2.24,4.95,3.38,7.8,3.38
		c2.61,0,5.23-0.94,7.27-2.87c2.08-1.95,3.28-4.58,3.38-7.43v-0.37c0-2.71-1-5.29-2.87-7.27c-2.61-2.79-6.37-3.85-9.85-3.18
		c0.73-1.14,1.36-2.32,1.91-3.54h0.14c0.16,0,0.31,0.02,0.47,0.02c3.73,0.12,7.21,1.69,9.77,4.42c5.27,5.64,4.97,14.5-0.67,19.79
		c-5.64,5.27-14.5,4.97-19.79-0.67c-2.48-2.67-3.81-6.11-3.75-9.75v-0.28c0.02-0.88,0.14-1.75,0.33-2.59
		c0.49-2.28,1.55-4.4,3.13-6.17c0.04-0.06,0.1-0.1,0.14-0.14c0.26-0.29,0.53-0.59,0.83-0.86c0.06-0.06,0.12-0.1,0.18-0.14
		c0.02-0.02,0.02-0.02,0.04-0.04l0.02-0.02c1.4-1.51,2.55-3.16,3.44-4.95c0.55-1.06,1-2.14,1.36-3.28c0.28-0.86,0.49-1.75,0.65-2.65
		c0.22-1.12,0.31-2.26,0.35-3.4v-0.49c0-0.67-0.04-1.34-0.1-1.99c-0.41-4.64-2.32-9.16-5.74-12.81c-8.16-8.73-21.91-9.18-30.64-1.02
		c-4.23,3.95-6.66,9.32-6.86,15.11c-0.2,5.78,1.89,11.3,5.84,15.53c3.68,3.93,8.55,6.31,13.88,6.78
		C25.29,50.07,25.21,51.17,25.21,52.25z M52.59,44.39c2.2,0,4.38,0.88,6.01,2.59c1.49,1.61,2.28,3.69,2.2,5.9
		c-0.08,2.18-1,4.21-2.59,5.72c-3.3,3.09-8.51,2.91-11.6-0.39c-3.11-3.3-2.93-8.51,0.37-11.6C48.58,45.11,50.59,44.39,52.59,44.39z
		 M25.88,46.55c-4.8-0.37-9.2-2.48-12.52-6.01c-3.5-3.75-5.33-8.65-5.17-13.78c0.18-5.13,2.34-9.89,6.09-13.4
		c3.69-3.46,8.41-5.17,13.11-5.17c2.57,0,5.15,0.51,7.55,1.53c2.4,1.02,4.62,2.54,6.51,4.56c3.07,3.28,4.76,7.37,5.11,11.54
		c0.06,0.85,0.08,1.69,0.04,2.54c-0.06,1.2-0.24,2.4-0.51,3.58c-0.24,1-0.57,2-0.96,2.97c-0.85,2-2.04,3.89-3.62,5.56
		c-0.29,0.33-0.63,0.67-0.96,0.98c-0.02,0.02-0.06,0.04-0.08,0.06c-1.43,1.55-2.52,3.3-3.22,5.23c-0.51,1.28-0.83,2.61-0.96,4.01
		c-0.08,0.43-0.1,0.86-0.12,1.32c-0.02,0.45-0.02,0.88,0.02,1.32c0.16,3.89,1.71,7.57,4.4,10.46c3.01,3.22,7.08,5.07,11.48,5.21
		c0.18,0,0.37,0.02,0.55,0.02c4.19,0,8.16-1.57,11.22-4.44c6.62-6.19,6.98-16.63,0.79-23.25c-2.95-3.16-6.92-4.99-11.22-5.19
		c0.29-0.9,0.55-1.81,0.75-2.73c2.04,0.18,4.09,0.65,5.99,1.47c2.4,1,4.62,2.52,6.51,4.54c3.5,3.75,5.35,8.65,5.17,13.78
		c-0.18,5.13-2.34,9.89-6.07,13.4c-3.75,3.5-8.67,5.35-13.78,5.17c-5.13-0.18-9.89-2.34-13.4-6.07c-2.99-3.22-4.8-7.27-5.13-11.6
		c-0.04-0.73-0.06-1.45-0.04-2.18c0-0.12,0-0.22,0.02-0.33c0.06-1.2,0.24-2.38,0.49-3.52c0.26-1.02,0.59-2.02,1-3.01
		c0.83-1.99,2-3.81,3.48-5.44c0.02,0,0.04-0.02,0.06-0.04c0.31-0.37,0.67-0.73,1.02-1.06c0.1-0.1,0.2-0.18,0.29-0.26l0.02-0.02
		c1.32-1.49,2.32-3.2,2.99-4.99v-0.02c0.51-1.32,0.83-2.65,0.98-4.03c0.06-0.61,0.1-1.22,0.1-1.83c0-0.28,0-0.55-0.04-0.83
		c-0.16-3.75-1.61-7.47-4.38-10.42c-3.01-3.2-7.08-5.05-11.46-5.21c-4.4-0.16-8.59,1.42-11.79,4.42c-3.22,3.01-5.07,7.08-5.21,11.48
		c-0.14,4.38,1.43,8.57,4.42,11.79c3.05,3.24,7.11,4.97,11.24,5.17C26.33,44.72,26.08,45.63,25.88,46.55z M69.65,70.82
		c-10.06,9.39-25.88,8.86-35.28-1.18c-3.95-4.23-6.15-9.47-6.62-14.84c-0.08-0.83-0.12-1.65-0.1-2.46c0.02-1.08,0.1-2.18,0.26-3.26
		c0.12-0.83,0.28-1.67,0.47-2.5c0.24-0.96,0.53-1.93,0.88-2.87c0.35-0.9,0.75-1.81,1.2-2.67c1.08-2.06,2.46-3.99,4.13-5.74
		c0.06-0.04,0.1-0.08,0.14-0.12c0.1-0.08,0.18-0.18,0.24-0.26c1.57-1.53,2.54-3.46,2.93-5.48c0.14-0.67,0.2-1.36,0.2-2.04
		c0-2.61-0.94-5.23-2.87-7.29c-4.01-4.28-10.77-4.52-15.07-0.51c-4.28,4.03-4.52,10.79-0.49,15.07c2.08,2.24,4.93,3.38,7.78,3.38
		c0.69,0,1.38-0.06,2.04-0.2c-0.73,1.14-1.38,2.32-1.89,3.54c-3.79,0.04-7.61-1.45-10.4-4.44c-2.55-2.73-3.89-6.29-3.77-10.02
		c0.12-3.73,1.69-7.19,4.42-9.75c2.61-2.46,5.99-3.77,9.55-3.77h0.47c3.75,0.12,7.21,1.69,9.77,4.42c2.55,2.73,3.79,6.23,3.77,9.71
		c-0.02,0.98-0.12,1.97-0.35,2.91c-0.49,2.28-1.57,4.44-3.2,6.25c0,0.02-0.02,0.04-0.06,0.06c-0.24,0.29-0.53,0.59-0.83,0.86
		c-0.08,0.08-0.14,0.12-0.22,0.18c0,0.02-0.02,0.02-0.02,0.02c-1.4,1.49-2.56,3.14-3.46,4.93c-0.53,1.06-0.98,2.16-1.34,3.3h-0.02
		c-0.28,0.88-0.49,1.77-0.67,2.69c-0.18,1.02-0.28,2.06-0.31,3.13v0.22c-0.02,0.85,0,1.67,0.08,2.48c0.41,4.78,2.44,9.28,5.76,12.83
		c3.95,4.23,9.32,6.66,15.11,6.86c0.24,0,0.49,0.02,0.73,0.02c5.52,0,10.75-2.06,14.8-5.86c4.23-3.95,6.66-9.32,6.86-15.11
		c0-0.26,0.02-0.49,0.02-0.75c0-5.5-2.08-10.73-5.86-14.78c-3.77-4.03-8.75-6.31-13.86-6.78c0.12-0.88,0.2-1.79,0.24-2.69
		c0-0.18,0-0.37,0.02-0.57c2.83,0.24,5.56,0.96,8.1,2.1c2.95,1.34,5.62,3.26,7.9,5.7c4.54,4.85,6.94,11.22,6.72,17.89
		C77.32,60.09,74.5,66.26,69.65,70.82z M21.44,33.01c-3.09-3.3-2.91-8.51,0.39-11.6c1.57-1.47,3.6-2.22,5.6-2.22
		c2.2,0,4.38,0.88,5.99,2.59c2.89,3.11,2.91,7.84,0.22,10.99c-0.2,0.22-0.39,0.43-0.61,0.63c-0.08,0.06-0.14,0.14-0.22,0.2
		C29.52,36.49,24.47,36.23,21.44,33.01z"/>
</g>
</svg>
