<?xml version="1.0" encoding="utf-8"?>
<!-- Generator: Adobe Illustrator 25.4.1, SVG Export Plug-In . SVG Version: 6.00 Build 0)  -->
<svg version="1.1" id="Layer_1" xmlns="http://www.w3.org/2000/svg" xmlns:xlink="http://www.w3.org/1999/xlink" x="0px" y="0px"
	 viewBox="0 0 131.78 80.27" style="enable-background:new 0 0 131.78 80.27;" xml:space="preserve">
<style type="text/css">
	.st0{fill:#0F3258;}
</style>
<g id="_x23_fefefeff">
</g>
<g>
	<g>
		<path class="st0" d="M10.87,50.71L0,79.64h7.69l1.54-4.31h9.64l1.54,4.31h8L17.85,50.71H10.87z M10.57,69.59l3.64-10.26
			l3.44,10.26H10.57z"/>
		<path class="st0" d="M42.88,70.67c0,1.95-1.59,3.85-4.05,3.85c-2.46,0-2.92-1.95-2.92-1.95V57.79h-6.26v14.77
			c0,4.05,3.64,7.44,7.39,7.44c3.74,0,5.85-2.62,5.85-2.62v2.26h6.26V57.79h-6.26V70.67z"/>
		<path class="st0" d="M58.68,61.13v-3.33h-6.26v21.85h6.26V69.02c0,0,0.46-6.1,5.95-6.1v-6C64.63,56.92,60.93,56.41,58.68,61.13z"
			/>
		<path class="st0" d="M120.33,56.9v1.35c-1.63-1.04-3.49-1.69-5.46-1.69c-6.47,0-11.72,5.25-11.72,11.72
			c0,6.47,5.25,11.72,11.72,11.72c1.97,0,3.83-0.49,5.46-1.35v1h6.26V56.9H120.33z M114.86,73.59c-2.76,0-5-2.38-5-5.31
			c0-2.93,2.24-5.31,5-5.31c2.76,0,5,2.38,5,5.31C119.86,71.21,117.63,73.59,114.86,73.59z"/>
		<path class="st0" d="M96.94,61.13v-3.33h-6.26v21.85h6.26V69.02c0,0,0.46-6.1,5.95-6.1v-6C102.89,56.92,99.19,56.41,96.94,61.13z"
			/>
		<path class="st0" d="M77.06,56.56c-6.47,0-11.72,5.25-11.72,11.72c0,6.47,5.25,11.72,11.72,11.72c6.47,0,11.72-5.25,11.72-11.72
			C88.78,61.81,83.54,56.56,77.06,56.56z M77.06,73.59c-2.76,0-5-2.38-5-5.31c0-2.93,2.24-5.31,5-5.31c2.76,0,5,2.38,5,5.31
			C82.06,71.21,79.82,73.59,77.06,73.59z"/>
	</g>
	<g>
		<path class="st0" d="M127.43,21.25c-2.97-3.17-6.93-5.07-11.23-5.39c0.05,0.51,0.06,1.02,0.06,1.55c1.78,0.15,3.49,0.6,5.08,1.32
			c1.85,0.84,3.53,2.05,4.96,3.58c2.85,3.05,4.36,7.05,4.22,11.23c-0.15,4.18-1.91,8.06-4.96,10.92c-6.32,5.9-16.25,5.56-22.15-0.74
			c-2.48-2.65-3.86-5.95-4.16-9.32c-0.05-0.52-0.07-1.04-0.06-1.54c0.01-0.68,0.06-1.37,0.16-2.05c0.07-0.52,0.17-1.05,0.3-1.57
			c0.15-0.6,0.33-1.21,0.56-1.8c0.22-0.57,0.47-1.14,0.75-1.68c0.68-1.3,1.54-2.5,2.59-3.6c0.04-0.02,0.06-0.05,0.09-0.07
			c0.06-0.05,0.11-0.11,0.15-0.16c0.99-0.96,1.59-2.17,1.84-3.44c0.09-0.42,0.12-0.85,0.12-1.28c0-1.64-0.59-3.28-1.8-4.58
			c-2.52-2.69-6.76-2.84-9.46-0.32c-2.69,2.53-2.84,6.77-0.31,9.46c1.31,1.41,3.1,2.12,4.89,2.12c0.43,0,0.86-0.04,1.28-0.12
			c-0.46,0.72-0.86,1.46-1.18,2.22c-0.23,0.49-0.43,1-0.6,1.52c-0.19,0.57-0.35,1.14-0.47,1.72c-0.12,0.51-0.21,1.01-0.27,1.53
			c-0.1,0.68-0.15,1.37-0.15,2.05c-0.01,0.52,0,1.02,0.04,1.54c0.28,3.76,1.8,7.45,4.58,10.43c3.39,3.62,7.98,5.45,12.59,5.45
			c4.21,0,8.44-1.54,11.75-4.64c3.36-3.13,5.29-7.4,5.44-11.99C132.22,28.99,130.58,24.61,127.43,21.25z M95.3,20.72
			c-1.94-2.07-1.83-5.34,0.25-7.28c0.99-0.93,2.26-1.39,3.52-1.39c1.38,0,2.75,0.56,3.76,1.63c1.81,1.95,1.83,4.92,0.14,6.9
			c-0.12,0.14-0.25,0.27-0.38,0.39c-0.05,0.04-0.09,0.09-0.14,0.12C100.37,22.91,97.2,22.75,95.3,20.72z"/>
	</g>
	<path class="st0" d="M128.48,33c0,0.16-0.01,0.31-0.01,0.47c-0.12,3.64-1.65,7.01-4.31,9.49c-2.54,2.38-5.82,3.68-9.29,3.68
		c-0.15,0-0.31-0.01-0.46-0.01c-3.64-0.12-7.01-1.65-9.49-4.31c-2.09-2.23-3.36-5.06-3.62-8.06c-0.05-0.51-0.06-1.02-0.05-1.55
		v-0.14c0.02-0.67,0.09-1.32,0.2-1.96c0.11-0.58,0.25-1.14,0.42-1.69h0.01c0.22-0.72,0.51-1.41,0.84-2.07
		c0.57-1.12,1.3-2.16,2.17-3.1c0,0,0.01,0,0.01-0.01c0.05-0.04,0.09-0.06,0.14-0.11c0.19-0.17,0.37-0.36,0.52-0.54
		c0.02-0.01,0.04-0.02,0.04-0.04c1.02-1.14,1.7-2.49,2.01-3.92c0.15-0.59,0.21-1.21,0.22-1.83c0.01-2.18-0.77-4.38-2.37-6.1
		s-3.78-2.7-6.13-2.78h-0.3c-2.23,0-4.36,0.83-6,2.37c-1.72,1.6-2.7,3.78-2.78,6.12c-0.07,2.34,0.77,4.58,2.37,6.29
		c1.75,1.88,4.15,2.81,6.53,2.79c-0.23,0.49-0.43,1-0.6,1.52c-2.59-0.12-5.15-1.21-7.06-3.25c-1.88-2.02-2.86-4.65-2.78-7.4
		c0.09-2.76,1.25-5.32,3.27-7.21c2.01-1.89,4.64-2.87,7.4-2.78c2.75,0.1,5.31,1.26,7.19,3.27c1.74,1.85,2.65,4.18,2.75,6.54
		c0.02,0.17,0.02,0.35,0.02,0.52c0,0.38-0.02,0.77-0.06,1.15c-0.1,0.86-0.3,1.7-0.62,2.53v0.01c-0.42,1.12-1.05,2.2-1.88,3.13
		l-0.01,0.01c-0.06,0.05-0.12,0.1-0.19,0.16c-0.22,0.21-0.44,0.43-0.64,0.67c-0.01,0.01-0.02,0.02-0.04,0.02
		c-0.93,1.02-1.67,2.17-2.18,3.42c-0.26,0.62-0.47,1.25-0.63,1.89c-0.16,0.72-0.27,1.46-0.31,2.21c-0.01,0.07-0.01,0.14-0.01,0.21
		c-0.01,0.46,0,0.91,0.02,1.37c0.21,2.71,1.34,5.26,3.22,7.28c2.21,2.34,5.19,3.7,8.42,3.81c3.21,0.11,6.29-1.05,8.65-3.25
		c2.34-2.21,3.7-5.19,3.81-8.42c0.11-3.22-1.05-6.29-3.25-8.65c-1.18-1.27-2.58-2.22-4.08-2.85c-1.2-0.52-2.48-0.81-3.76-0.93
		c0.11-0.49,0.21-1.01,0.27-1.53c3.21,0.3,6.33,1.73,8.7,4.26C127.17,26.26,128.48,29.54,128.48,33z"/>
	<path class="st0" d="M121.91,40.56c-1.92,1.8-4.42,2.79-7.05,2.79c-0.11,0-0.23-0.01-0.35-0.01c-2.76-0.09-5.32-1.25-7.21-3.27
		c-1.69-1.81-2.67-4.12-2.76-6.56c-0.02-0.27-0.02-0.54-0.01-0.83c0.01-0.28,0.02-0.56,0.07-0.83c0.09-0.88,0.28-1.72,0.6-2.52
		c0.44-1.21,1.12-2.31,2.02-3.28c0.01-0.01,0.04-0.02,0.05-0.04c0.21-0.2,0.42-0.41,0.6-0.62c0.99-1.05,1.74-2.23,2.27-3.49
		c0.25-0.6,0.46-1.23,0.6-1.86c0.17-0.74,0.28-1.49,0.32-2.25c0.02-0.53,0.01-1.06-0.02-1.59c-0.22-2.62-1.28-5.18-3.21-7.24
		c-1.18-1.27-2.58-2.22-4.08-2.86c-1.51-0.64-3.12-0.96-4.74-0.96c-2.95,0-5.91,1.07-8.23,3.25c-2.36,2.21-3.71,5.19-3.83,8.42
		c-0.1,3.22,1.05,6.29,3.25,8.65c2.09,2.22,4.85,3.54,7.86,3.78c-0.12,0.51-0.21,1.01-0.27,1.53c-3.34-0.3-6.4-1.79-8.71-4.26
		c-2.48-2.65-3.79-6.12-3.66-9.75c0.12-3.64,1.65-7.01,4.31-9.49c5.48-5.12,14.12-4.84,19.24,0.64c2.15,2.3,3.34,5.13,3.6,8.04
		c0.04,0.41,0.06,0.83,0.06,1.25v0.31c-0.02,0.72-0.09,1.43-0.22,2.13c-0.1,0.57-0.23,1.12-0.41,1.67
		c-0.22,0.72-0.51,1.39-0.85,2.06c-0.56,1.12-1.28,2.16-2.16,3.11L109,26.48c-0.01,0.01-0.01,0.01-0.02,0.02
		c-0.04,0.02-0.07,0.05-0.11,0.09c-0.19,0.17-0.36,0.36-0.52,0.54c-0.02,0.02-0.06,0.05-0.09,0.09c-0.99,1.11-1.65,2.44-1.96,3.87
		c-0.12,0.53-0.2,1.07-0.21,1.63v0.17c-0.04,2.28,0.8,4.44,2.36,6.12c3.32,3.54,8.88,3.73,12.43,0.42
		c3.54-3.32,3.73-8.88,0.42-12.43c-1.6-1.72-3.79-2.7-6.13-2.78c-0.1,0-0.2-0.01-0.3-0.01h-0.09c0.22-0.49,0.42-1,0.59-1.52
		c2.7,0.12,5.19,1.27,7.05,3.26C126.3,30.12,126.07,36.68,121.91,40.56z"/>
	<path class="st0" d="M119.76,28.45c-1.64-1.75-4-2.42-6.18-2c0.46-0.72,0.85-1.46,1.2-2.22c0.22-0.49,0.42-1,0.59-1.52
		c0.19-0.57,0.35-1.14,0.47-1.72c0.11-0.49,0.21-1.01,0.27-1.53c0.07-0.56,0.12-1.12,0.15-1.69c0-0.11,0-0.23,0.01-0.36
		c0-0.53-0.01-1.05-0.06-1.55c-0.3-3.89-1.89-7.53-4.59-10.41c-6.48-6.93-17.4-7.29-24.32-0.81c-6.93,6.48-7.3,17.4-0.81,24.33
		c3.05,3.26,7.09,5.07,11.23,5.38c-0.04-0.52-0.05-1.02-0.04-1.54c-3.71-0.32-7.33-1.96-10.07-4.9c-5.9-6.31-5.56-16.24,0.74-22.15
		c3.02-2.83,6.86-4.22,10.7-4.22c2.1,0,4.2,0.42,6.14,1.25c1.95,0.83,3.76,2.06,5.31,3.71c2.42,2.59,3.86,5.84,4.17,9.3
		c0.04,0.51,0.06,1.02,0.06,1.54c0,0.12-0.01,0.26-0.01,0.38c-0.02,0.57-0.07,1.14-0.15,1.69c-0.07,0.53-0.17,1.05-0.31,1.55
		c-0.14,0.6-0.32,1.2-0.54,1.78c-0.21,0.58-0.47,1.15-0.75,1.7c-0.81,1.55-1.89,2.97-3.21,4.2l-0.06,0.14
		c-0.7,0.85-1.18,1.85-1.39,2.94c-0.07,0.36-0.11,0.72-0.12,1.07c-0.06,1.79,0.58,3.49,1.8,4.8c1.32,1.41,3.11,2.12,4.9,2.12
		c1.64,0,3.28-0.59,4.57-1.8c1.31-1.22,2.06-2.87,2.12-4.66v-0.23C121.56,31.31,120.93,29.69,119.76,28.45z M118.39,36.79
		c-2.07,1.94-5.34,1.83-7.28-0.25c-1.95-2.07-1.84-5.34,0.23-7.28c1-0.94,2.26-1.39,3.52-1.39c1.38,0,2.75,0.56,3.78,1.63
		c0.94,1.01,1.43,2.32,1.38,3.7C119.97,34.57,119.39,35.84,118.39,36.79z"/>
</g>
</svg>
