<?xml version="1.0" encoding="utf-8"?>
<!-- Generator: Adobe Illustrator 25.3.1, SVG Export Plug-In . SVG Version: 6.00 Build 0)  -->
<svg version="1.1" id="Layer_1" xmlns="http://www.w3.org/2000/svg" xmlns:xlink="http://www.w3.org/1999/xlink" x="0px" y="0px"
	 viewBox="0 0 371.33 80" style="enable-background:new 0 0 371.33 80;" xml:space="preserve">
<style type="text/css">
	.st0{fill:#ED4138;}
	.st1{fill:#00693A;}
	.st2{fill:#DF1804;}
	.st3{fill:#214078;}
	.st4{fill:#3487C7;}
	.st5{fill:url(#SVGID_1_);}
	.st6{fill:url(#SVGID_2_);}
	.st7{fill:#184A8A;}
	.st8{fill:url(#SVGID_3_);}
	.st9{fill:url(#SVGID_4_);}
	.st10{fill:url(#SVGID_5_);}
	.st11{fill:url(#SVGID_6_);}
	.st12{fill:#9E8266;}
	.st13{fill:#322E26;}
	.st14{fill:#332F27;}
	.st15{fill:#791722;}
	.st16{fill:url(#SVGID_7_);}
	.st17{fill:url(#SVGID_8_);}
	.st18{fill:url(#SVGID_9_);}
	.st19{fill:url(#SVGID_10_);}
	.st20{fill:url(#SVGID_11_);}
	.st21{fill:url(#SVGID_12_);}
	.st22{fill:url(#SVGID_13_);}
	.st23{fill:url(#SVGID_14_);}
	.st24{fill:url(#SVGID_15_);}
	.st25{fill:url(#SVGID_16_);}
	.st26{fill:url(#SVGID_17_);}
	.st27{fill:url(#SVGID_18_);}
	.st28{fill:url(#SVGID_19_);}
	.st29{fill:url(#SVGID_20_);}
	.st30{fill:url(#SVGID_21_);}
	.st31{fill:#222325;}
	.st32{fill:#A0925A;}
	.st33{fill:#061E34;}
	.st34{fill:#028E8F;}
	.st35{fill:#D5192C;}
	.st36{fill:#FAC201;}
	.st37{fill:url(#SVGID_22_);}
	.st38{fill:url(#SVGID_23_);}
	.st39{fill:url(#SVGID_24_);}
	.st40{fill:url(#SVGID_25_);}
	.st41{fill:#9F8A58;}
	.st42{fill:#749ED4;}
	.st43{fill:#045991;}
	.st44{fill:#1F9A8D;}
	.st45{fill:#222D68;}
	.st46{fill:#14152E;}
	.st47{fill:#62B3E4;}
	.st48{fill:#FEFEFE;}
	.st49{fill:none;}
	.st50{fill:#FC0302;}
	.st51{fill:#FE0807;}
	.st52{fill:#98684C;}
	.st53{fill:#86754D;}
	.st54{fill:#42484D;}
	.st55{fill:#41474C;}
	.st56{fill:#43494D;}
	.st57{fill:#DF073D;}
	.st58{fill:#DE023A;}
	.st59{fill:#FFFFFF;}
	.st60{fill:#6F6E6C;}
	.st61{fill:#072F67;}
	.st62{fill:#53A220;}
	.st63{fill:#FDC013;}
	.st64{fill:url(#SVGID_26_);}
	.st65{fill:url(#SVGID_27_);}
	.st66{fill:url(#SVGID_28_);}
	.st67{fill:#793A98;}
	.st68{fill:url(#SVGID_29_);}
	.st69{fill:url(#SVGID_30_);}
	.st70{fill:url(#SVGID_31_);}
	.st71{fill:url(#SVGID_32_);}
	.st72{fill:url(#SVGID_33_);}
</style>
<g>
	<path class="st35" d="M142.82,59.4c1.1,0.97,1.82,2.05,2.58,3.1c2.8,3.85,5.19,7.93,7.14,12.27c0.1,0.21,0.18,0.43,0.3,0.71
		c-2.12,0-4.17,0-6.26,0c-0.58-1.18-1.15-2.37-1.76-3.54c-1.78-3.44-3.77-6.74-6.2-9.76c-0.43-0.54-0.83-1.17-1.4-1.5
		c-0.52-0.31-1.25-0.09-1.88-0.09c-3.4-0.01-6.8,0-10.2,0c-0.26,0-0.52,0-0.87,0c0,4.99,0,9.93,0,14.91c-2.14,0-4.21,0-6.33,0
		c0-12.6,0-25.21,0-37.84c1.79-0.16,3.57-0.12,5.34-0.12c3.72,0,7.44-0.03,11.16,0.03c2.68,0.04,5.35,0.28,7.95,1.04
		c4.27,1.26,6.66,4.3,6.94,8.75c0.17,2.68-0.18,5.23-1.61,7.56c-0.38,0.63-0.82,1.21-1.36,1.73
		C145.31,57.67,144.2,58.63,142.82,59.4z M124.23,55.75c0.13,0.03,0.2,0.07,0.28,0.07c4.94,0,9.88,0,14.81,0.01
		c0.31,0,0.56-0.11,0.81-0.26c1.36-0.84,2.28-2.03,2.81-3.54c0.56-1.59,0.61-3.23,0.41-4.87c-0.29-2.33-1.59-3.86-3.85-4.56
		c-0.2-0.06-0.41-0.12-0.61-0.18c-1.78-0.48-3.61-0.56-5.44-0.59c-2.87-0.04-5.73-0.01-8.6-0.01c-0.2,0-0.43-0.07-0.62,0.15
		C124.23,46.53,124.23,51.11,124.23,55.75z"/>
	<path class="st35" d="M83.6,62.42c0,4.34,0,8.7,0,13.11c-2.02,0-3.97,0-5.96,0c0-12.61,0-25.2,0-37.76
		c0.11-0.13,0.22-0.12,0.32-0.12c6.03-0.04,12.06-0.11,18.09-0.1c2.36,0,4.71,0.27,6.98,1.03c5.5,1.85,7.49,6.73,7.52,10.45
		c0.02,2.19-0.17,4.35-1.09,6.37c-0.73,1.59-1.79,2.92-3.2,3.99c-1.97,1.5-4.2,2.26-6.61,2.61c-1.77,0.26-3.54,0.32-5.32,0.32
		c-3.35-0.01-6.7,0-10.04,0C84.08,62.33,83.86,62.27,83.6,62.42z M83.61,57.54c4.38,0,8.66,0.01,12.94-0.01
		c0.95-0.01,1.89-0.19,2.83-0.4c2.77-0.63,4.35-2.39,4.91-5.11c0.23-1.12,0.3-2.27,0.18-3.41c-0.33-3.26-1.98-5.63-5.55-6.35
		c-1.6-0.32-3.21-0.41-4.83-0.42c-3.29-0.03-6.59-0.01-9.88-0.01c-0.2,0-0.43-0.07-0.59,0.1C83.61,47.12,83.61,52.31,83.61,57.54z"
		/>
	<path class="st35" d="M33.81,37.51c2.44,0,4.78,0,7.18,0c3.47,5.24,7.31,10.2,11.62,14.89c4.34-4.64,8.19-9.6,11.61-14.87
		c2.33,0,4.61,0,6.9,0c-0.18,0.63-3.04,4.38-7.24,9.53c-2.51,3.09-5.08,6.13-7.77,9.15c5.44,6.16,10.67,12.46,15.48,19.25
		c-2.44,0-4.75,0-7.16,0c-1.78-2.6-3.65-5.23-5.67-7.76c-2.02-2.52-4.08-5.01-6.31-7.4c-4.56,4.69-8.4,9.88-12.07,15.2
		c-2.25,0-4.45,0-6.82,0c2.47-3.4,4.98-6.63,7.53-9.84c2.54-3.2,5.16-6.33,7.84-9.46C43.54,50.27,38.73,43.93,33.81,37.51z"/>
	<path class="st35" d="M29.02,41.83c-7.18,0-14.32,0-21.49,0c0,4.04,0,8.01,0,12.04c5.37-0.19,10.72-0.05,16.1-0.1
		c0,1.46,0,2.83,0,4.3c-5.4,0-10.77,0-16.19,0c0,4.28,0,8.46,0,12.74c1,0.05,2,0.02,2.99,0.02c1.04,0.01,2.07,0,3.11,0
		c1.01,0,2.02,0,3.03,0c1.04,0,2.07,0,3.11,0c1.01,0,2.02,0,3.03,0c1.04,0,2.07,0,3.11,0c1.01,0,2.01,0,3.01,0
		c0.3,1.59,0.58,3.1,0.86,4.59c-0.24,0.18-0.49,0.1-0.72,0.1c-7.36,0-14.72,0.02-22.09-0.01c-1.78-0.01-3.55-0.15-5.37-0.23
		c0-12.61,0-25.15,0-37.75c9.42,0,18.81,0,28.23,0C29.51,38.97,29.27,40.37,29.02,41.83z"/>
	<path class="st35" d="M165.19,53.87c5.38-0.21,10.71-0.05,16.11-0.12c0,1.43,0,2.82,0,4.29c-5.34,0-10.69,0-16.1,0
		c0,4.28,0,8.48,0,12.75c7.12,0,14.24,0,21.43,0c0.29,1.57,0.58,3.09,0.86,4.58c-0.17,0.18-0.34,0.15-0.49,0.15
		c-7.73,0-15.47,0.01-23.2-0.02c-1.51-0.01-3.02-0.15-4.57-0.23c0-12.59,0-25.14,0-37.74c9.43,0,18.83,0,28.27,0
		c-0.24,1.41-0.47,2.81-0.72,4.27c-7.2,0-14.36,0-21.58,0C165.19,45.85,165.19,49.82,165.19,53.87z"/>
	<path class="st35" d="M228.25,73.42c0.31-1.46,0.62-2.87,0.93-4.35c0.84,0.24,1.59,0.45,2.35,0.67c2.66,0.75,5.38,1.2,8.14,1.39
		c1.92,0.13,3.82,0.16,5.71-0.19c1.29-0.24,2.52-0.65,3.57-1.47c1.8-1.4,2.29-3.3,2.04-5.46c-0.21-1.76-1.19-2.95-2.75-3.73
		c-1.57-0.79-3.25-1.3-4.93-1.76c-2.07-0.57-4.17-1.03-6.2-1.76c-1.9-0.67-3.69-1.53-5.26-2.82c-1.85-1.52-2.89-3.47-3.15-5.86
		c-0.14-1.34-0.08-2.64,0.3-3.93c0.79-2.67,2.65-4.41,5.06-5.62c1.94-0.97,4.03-1.48,6.18-1.69c4.92-0.48,9.75,0.09,14.52,1.29
		c0.07,0.02,0.14,0.06,0.3,0.12c-0.2,1.45-0.41,2.9-0.62,4.42c-1.2-0.23-2.33-0.45-3.47-0.65c-3.15-0.56-6.33-0.73-9.53-0.52
		c-1.43,0.09-2.84,0.39-4.14,1.04c-1.86,0.93-2.87,2.4-2.82,4.5c0.03,1.43,0.68,2.6,1.75,3.53c1.37,1.19,3.02,1.86,4.73,2.36
		c2.32,0.67,4.68,1.15,6.97,1.91c1.99,0.67,3.93,1.44,5.64,2.7c1.78,1.31,2.8,3.05,3.08,5.26c0.24,1.9,0.19,3.76-0.42,5.58
		c-0.87,2.57-2.61,4.39-5,5.61c-1.94,1-4.02,1.51-6.17,1.7c-5.61,0.5-11.06-0.32-16.39-2.08C228.57,73.57,228.45,73.51,228.25,73.42
		z"/>
	<path class="st35" d="M220.26,38.28c-0.22,1.45-0.44,2.89-0.67,4.37c-0.83-0.03-1.61-0.29-2.4-0.44c-3.41-0.67-6.84-0.91-10.3-0.73
		c-1.54,0.08-3.04,0.4-4.46,1.07c-3.43,1.61-3.57,5.84-1.14,7.94c1.02,0.88,2.18,1.49,3.43,1.97c1.86,0.71,3.82,1.07,5.74,1.6
		c2.4,0.66,4.78,1.4,6.97,2.63c0.65,0.37,1.27,0.77,1.83,1.26c1.33,1.15,2.18,2.59,2.46,4.33c0.32,1.96,0.35,3.91-0.26,5.82
		c-0.4,1.25-1.05,2.38-1.94,3.37c-2.2,2.45-5.03,3.6-8.21,4.08c-2.89,0.44-5.77,0.32-8.66,0.02c-3.05-0.32-6.01-1.02-8.91-1.98
		c-0.1-0.03-0.18-0.1-0.34-0.19c0.3-1.41,0.59-2.83,0.9-4.31c0.7,0.1,1.32,0.39,1.97,0.56c2.87,0.79,5.79,1.31,8.77,1.49
		c1.84,0.11,3.66,0.12,5.48-0.21c1-0.18,1.96-0.47,2.84-0.98c1.74-1,2.69-2.49,2.81-4.5c0.03-0.61,0.02-1.22-0.09-1.82
		c-0.26-1.43-1.07-2.45-2.33-3.15c-1.35-0.75-2.8-1.23-4.27-1.65c-1.92-0.55-3.86-1.04-5.77-1.61c-2.32-0.69-4.56-1.59-6.49-3.1
		c-2.21-1.73-3.31-3.99-3.43-6.79c-0.11-2.66,0.68-4.96,2.59-6.84c1.39-1.36,3.1-2.22,4.93-2.82c1.88-0.61,3.82-0.9,5.79-0.97
		c4.38-0.16,8.69,0.36,12.93,1.45C220.08,38.17,220.13,38.2,220.26,38.28z"/>
	<path class="st35" d="M169.1,24.18c-0.42-5-0.49-9.99-0.03-15c0.17-0.02,0.27-0.04,0.37-0.04c3.08,0,6.17-0.01,9.25,0.02
		c1.14,0.01,2.28,0.12,3.38,0.44c1.39,0.4,2.47,1.12,2.71,2.67c0.24,1.53-0.29,2.76-1.51,3.69c-0.04,0.03-0.08,0.07-0.12,0.11
		c0.14,0.26,0.42,0.3,0.64,0.45c1.31,0.9,2,2.13,1.83,3.72c-0.17,1.64-1,2.82-2.61,3.39c-1.27,0.45-2.6,0.56-3.92,0.58
		c-3.24,0.05-6.49,0.03-9.73,0.03C169.31,24.23,169.23,24.2,169.1,24.18z M173.34,18.03c0.08,1.12-0.05,2.18,0.24,3.21
		c1.91,0,3.76,0,5.62,0c0.32,0,0.63-0.1,0.92-0.23c0.69-0.3,1.03-0.97,0.9-1.77c-0.11-0.67-0.64-1.2-1.37-1.21
		C177.59,18.02,175.53,18.03,173.34,18.03z M173.24,14.93c0.29,0.17,0.51,0.12,0.71,0.12c1.65,0,3.29-0.02,4.94,0.02
		c0.61,0.02,0.94-0.24,1.17-0.74c0.52-1.09-0.05-2.15-1.31-2.33c-1.72-0.24-3.44-0.14-5.17-0.1c-0.04,0-0.08,0.06-0.16,0.13
		C173.38,12.97,173.38,13.95,173.24,14.93z"/>
	<path class="st35" d="M207.97,9.23c0.26-0.17,0.45-0.12,0.63-0.12c3.19,0,6.37,0,9.56,0c0.91,0,1.8,0.09,2.67,0.33
		c1.8,0.5,2.99,1.6,3.25,3.49c0.26,1.93-0.41,3.49-2.09,4.56c-0.29,0.18-0.6,0.33-0.98,0.53c1.69,1.82,2.9,3.96,4.26,6.09
		c-1.74,0-3.37,0-5.09,0c-0.89-1.94-1.79-3.92-3.3-5.57c-1.47,0-2.98,0-4.54,0c-0.12,1.86,0.08,3.69,0.25,5.56c-1.53,0-3,0-4.59,0
		C207.58,19.13,207.54,14.16,207.97,9.23z M212.22,11.96c0,1.38,0,2.68,0,4.03c1.96,0,3.92,0,5.87,0c0.3,0,0.5-0.14,0.69-0.33
		c0.7-0.67,0.73-1.5,0.51-2.35c-0.23-0.87-0.98-1.19-1.75-1.27C215.8,11.87,214.05,11.99,212.22,11.96z"/>
	<path class="st35" d="M202.47,18.11c-2.98,0-5.84,0-8.75,0c-0.16,1.09,0.05,2.14,0.08,3.26c3.21,0,6.4,0,9.66,0
		c0.15,0.92,0.03,1.8,0.21,2.71c-4.77,0-9.48,0-14.26,0c-0.46-4.96-0.37-9.92,0-14.93c4.77,0,9.48,0,14.28,0
		c-0.1,1.06-0.19,2.1-0.16,3.2c-3.26,0-6.44,0-9.66,0c-0.18,0.96-0.22,1.86-0.18,2.87c2.93,0,5.84,0,8.79,0
		C202.47,16.21,202.47,17.12,202.47,18.11z"/>
	<path class="st35" d="M242.86,9.13c1.6,0,3.16,0,4.73,0c2.93,4.74,5.53,9.64,7.5,14.92c-1.63,0-3.21,0-4.82,0
		c-0.34-0.9-0.67-1.82-1.03-2.77c-2.69,0-5.36,0-8.09,0c-0.33,0.92-0.66,1.85-1,2.79c-1.61,0-3.17,0-4.81,0
		C237.37,18.83,239.79,13.85,242.86,9.13z M248.04,18.37c-0.95-1.94-1.8-3.85-2.92-5.77c-1.01,1.97-1.97,3.79-2.76,5.77
		C244.31,18.37,246.13,18.37,248.04,18.37z"/>
	<path class="st35" d="M163.64,24.12c-1.34,0-2.58,0-3.92,0c-0.52-4.97-0.33-9.93-0.01-14.95c1.33,0,2.64,0,4.01,0
		C164.02,14.13,164.12,19.1,163.64,24.12z"/>
	<path class="st35" d="M228.78,9.14c1.24,0,2.48,0,3.83,0c0.41,4.97,0.4,9.93,0.01,14.94c-1.31,0-2.57,0-3.88,0
		c-0.28-0.73-0.24-1.54-0.26-2.31c-0.12-3.34-0.17-6.68,0.05-10.02c0.04-0.56,0.04-1.11,0.07-1.67
		C228.62,9.77,228.61,9.45,228.78,9.14z"/>
	<path class="st36" d="M306.94,37.37c-0.04,0.06-0.1,0.14-0.16,0.07c-0.07-0.08,0.02-0.12,0.09-0.14
		C306.89,37.33,306.91,37.35,306.94,37.37z"/>
	<g>
		
			<linearGradient id="SVGID_1_" gradientUnits="userSpaceOnUse" x1="268.0627" y1="-1939.2833" x2="364.4814" y2="-1883.6156" gradientTransform="matrix(1 0 0 -1 0 -1854.0369)">
			<stop  offset="0" style="stop-color:#A61C22"/>
			<stop  offset="0.5" style="stop-color:#DC1C2E"/>
			<stop  offset="1" style="stop-color:#DC1C2E"/>
		</linearGradient>
		<path class="st5" d="M283.54,60.86l-18.67,18.85v0c64.82,0,80.1-15.24,89.02-35.98l7.49-19.53
			C339.54,24.83,306.58,37.7,283.54,60.86z"/>
		
			<linearGradient id="SVGID_2_" gradientUnits="userSpaceOnUse" x1="305.2756" y1="-1890.7183" x2="370.0166" y2="-1853.3401" gradientTransform="matrix(1 0 0 -1 0 -1854.0369)">
			<stop  offset="0" style="stop-color:#ED7417"/>
			<stop  offset="0.85" style="stop-color:#FACD08"/>
			<stop  offset="1" style="stop-color:#FACD08"/>
		</linearGradient>
		<path class="st6" d="M327.08,16.77l-21.01,21.28c19.95-14.33,39.84-22.97,59.66-25.21l4.83-12.6
			C341.22,0.25,337.23,6.66,327.08,16.77z"/>
	</g>
</g>
</svg>
