<?xml version="1.0" encoding="utf-8"?>
<!-- Generator: Adobe Illustrator 25.4.1, SVG Export Plug-In . SVG Version: 6.00 Build 0)  -->
<svg version="1.1" id="Layer_1" xmlns="http://www.w3.org/2000/svg" xmlns:xlink="http://www.w3.org/1999/xlink" x="0px" y="0px"
	 viewBox="0 0 205.19 80.27" style="enable-background:new 0 0 205.19 80.27;" xml:space="preserve">
<style type="text/css">
	.st0{fill:#2A4A78;}
	.st1{fill:#D4011B;}
</style>
<path class="st0" d="M0.27,45.42c1.52-0.8,3.04-1.61,4.91-2.59c0,2.74,0,5.12,0,7.51c0.01,3.23,0.14,3.37,3.45,3.32
	c0.58-0.01,1.16-0.08,2.05-0.59c-0.86-0.58-1.71-1.16-2.73-1.85c1.16-1.33,2.01-2.31,2.86-3.29c2.37,1.91,3.18,5.66,1.81,8.23
	c-1.01,1.91-2.9,2.04-4.72,2.04c-2.23,0-4.73,0.52-6.26-1.75c-0.48-0.7-0.44-1.78-0.54-2.7c-0.3-2.64-0.55-5.28-0.82-7.92
	C0.27,45.69,0.27,45.55,0.27,45.42z"/>
<path class="st0" d="M64.47,43.52c0.59-0.32,1.31,0.11,1.31,0.78c0,2.49-0.01,4.73,0.01,6.97c0.01,1.01-0.04,2.1,1.34,2.33
	c1.3,0.21,1.65-0.62,2.07-1.65c1.12-2.76,5.07-3.08,6.91-0.47c1.24,1.76,2.68,2.76,4.71,2.01c0.7-0.26,1.26-0.89,1.82-1.52
	c0.37-0.41,1.02-0.38,1.35,0.06c0.49,0.64,0.98,1.28,1.59,1.44c0.84,0.22,1.74,0.22,2.71,0.08c0.8-0.11,1.03-1.16,0.37-1.61
	l-0.19-0.13c-0.44-0.3-0.52-0.92-0.16-1.32l1.61-1.81c0.36-0.41,0.95-0.44,1.3-0.08c1.96,2.03,2.44,5.58,0.97,7.88
	c-1.26,1.98-5.34,2.36-8.23,0.86c-0.27-0.14-0.58-0.15-0.84-0.01c-2.52,1.3-4.08,1.32-5.94-0.03c-0.31-0.22-0.73-0.22-1.03,0.01
	c-1.87,1.41-3.76,1.31-5.2,0.3c-0.2-0.14-0.45-0.21-0.69-0.17c-1.88,0.33-3.29,0.77-4.68,0.7c-2.92-0.15-3.84-1.3-3.94-4.24
	c-0.07-2.14-0.07-4.3-0.34-6.42c-0.21-1.63,0.17-2.67,1.76-3.26C63.53,44.03,63.96,43.8,64.47,43.52z M75.32,54.62
	c0.11-0.14,0.19-0.31,0.21-0.5c0.06-0.52-0.23-1.04-0.48-1.47c-0.17-0.3-0.45-0.68-0.79-0.77c-0.42-0.11-0.81,0.13-1.09,0.42
	c-0.16,0.17-0.34,0.33-0.42,0.56c-0.14,0.38-0.31,0.82-0.13,1.21c0.15,0.33,0.45,0.52,0.76,0.67c0.39,0.19,0.81,0.38,1.25,0.3
	C74.9,55,75.15,54.84,75.32,54.62z"/>
<path class="st0" d="M47.32,58.67c-1.46,0-2.63,0.33-4.06,0.14c-0.28-0.04-1.05-0.23-1.31-0.37c-0.86-0.44-1.16-1.5-0.66-2.32
	c0.27-0.44,1.08-0.96,1.45-1.07c2.16-0.67,4.43-1.04,6.68-1.27c2-0.2,4.03-0.04,6.05-0.04c0.1-0.33,0.1-0.31,0.2-0.65l-2.25-1.55
	c-0.25-0.18-0.3-0.53-0.09-0.76l2.2-2.48c0.18-0.2,0.47-0.23,0.69-0.08c2.47,1.63,2.49,6.38,1.27,8.25
	c-1.1,1.69-4.91,2.36-6.78,1.15c-2.29-1.48-4.71-1.48-7.2-1.1c-0.02,0.19-0.05,0.37-0.07,0.56c1.26,0.09,2.57,0.02,3.77,0.33
	c0.87,0.22,2.23,0.89,2.28,1.44c0.08,0.96-0.54,2.11-1.17,2.94c-0.43,0.57-1.38,0.99-2.12,1.03c-3.39,0.16-6.85,0.57-10.18,0.12
	c-3.8-0.52-5.11-5.37-2.49-8.21c0.31-0.33,0.91-0.4,1.37-0.59c0.14,0.47,0.42,0.94,0.41,1.41c-0.03,2.49,0.47,3.56,2.82,3.78
	c3.13,0.3,5.94,0.08,9.1,0.08C47.84,59.33,47.77,58.7,47.32,58.67z"/>
<path class="st0" d="M97.82,58.44c-0.4-1.02-0.8-1.77-0.99-2.57c-0.4-1.62-0.69-3.27-1.03-4.9c-1.04-4.94-1.04-4.94,3.31-7.86
	C101.04,46.75,100.47,55.74,97.82,58.44z"/>
<path class="st0" d="M22.82,44.42c-0.35,5.01,0.84,9.92-3.37,14.25c-0.4-1.44-0.81-2.4-0.9-3.39c-0.21-2.2-0.11-4.43-0.41-6.61
	c-0.29-2.08,0.52-3.12,2.45-3.55C21.21,44.98,21.82,44.74,22.82,44.42z"/>
<path class="st0" d="M27.12,41.46c-1.86,2.12-4.11,2.3-6.21,2.55c-2.01,0.24-4.08,0.05-6.16,0.05c-0.08-1.77,1.31-2.84,3.35-2.64
	c2.42,0.24,4.87,0.1,7.31,0.11C25.84,41.54,26.27,41.5,27.12,41.46z"/>
<path class="st0" d="M92.44,63.26c-0.68,0.53-1.13,0.89-1.67,1.31c-0.56-0.41-1.08-0.79-1.67-1.24c0.53-0.47,0.97-0.86,1.5-1.34
	C91.15,62.37,91.68,62.73,92.44,63.26z"/>
<path class="st0" d="M90.54,61.24c-0.68,0.53-1.13,0.89-1.67,1.31c-0.56-0.41-1.08-0.79-1.67-1.24c0.53-0.47,0.97-0.86,1.5-1.34
	C89.25,60.36,89.77,60.72,90.54,61.24z"/>
<path class="st0" d="M94.11,61.24c-0.68,0.53-1.13,0.89-1.67,1.31c-0.56-0.41-1.08-0.79-1.67-1.24c0.53-0.47,0.97-0.86,1.5-1.34
	C92.82,60.36,93.35,60.72,94.11,61.24z"/>
<path class="st0" d="M82.82,61.97c-0.68,0.53-1.13,0.89-1.67,1.31c-0.56-0.41-1.08-0.79-1.67-1.24c0.53-0.47,0.97-0.86,1.5-1.34
	C81.53,61.09,82.05,61.45,82.82,61.97z"/>
<path class="st0" d="M86.39,61.97c-0.68,0.53-1.13,0.89-1.67,1.31c-0.56-0.41-1.08-0.79-1.67-1.24c0.53-0.47,0.97-0.86,1.5-1.34
	C85.1,61.09,85.63,61.45,86.39,61.97z"/>
<path class="st0" d="M55.7,61.97c-0.68,0.53-1.13,0.89-1.67,1.31c-0.56-0.41-1.08-0.79-1.67-1.24c0.53-0.47,0.97-0.86,1.5-1.34
	C54.41,61.09,54.94,61.45,55.7,61.97z"/>
<path class="st0" d="M59.28,61.97c-0.68,0.53-1.13,0.89-1.67,1.31c-0.56-0.41-1.08-0.79-1.67-1.24c0.53-0.47,0.97-0.86,1.5-1.34
	C57.99,61.09,58.51,61.45,59.28,61.97z"/>
<path class="st0" d="M10.11,45.4c-0.68,0.53-1.13,0.89-1.67,1.31c-0.56-0.41-1.08-0.79-1.67-1.24c0.53-0.47,0.97-0.86,1.5-1.34
	C8.82,44.52,9.35,44.88,10.11,45.4z"/>
<path class="st0" d="M13.69,45.4c-0.68,0.53-1.13,0.89-1.67,1.31c-0.56-0.41-1.08-0.79-1.67-1.24c0.53-0.47,0.97-0.86,1.5-1.34
	C12.4,44.52,12.92,44.88,13.69,45.4z"/>
<g>
	<path class="st1" d="M164.48,10.56c0.77-5.25,3.45-9.01,8.59-10.56c0.86,1.78,1.68,3.49,2.63,5.46c3.95-2.93,8.02-3.82,12.45-2.74
		c2.71,0.66,5.19,1.76,7.33,3.73c-0.31,0.49-0.52,0.9-0.8,1.26c-1.03,1.31-0.93,2.21,0.57,3.26c5.27,3.67,7.59,9.62,6.08,15.4
		c-1.33-0.62-2.64-1.24-3.95-1.85c-15.21-7.09-29.82,4.36-28.43,20.57c1.04,12.13,7.58,20.67,18.86,25.42
		c2.84,1.2,5.78,2.21,8.76,2.99c2.95,0.77,6.02,1.12,9.18,1.69c-3.98,2.72-8.38,4.18-13.09,4.62
		c-22.59,2.13-42.61-13.96-46.12-36.97c-0.38-2.51-0.9-5.01-1.58-7.46c-0.86-3.11-2.61-5.44-6.16-5.8c1.3-2.89,4.32-4.63,7.68-4.39
		c4.06,0.3,7.34,1.99,9.59,5.48c0.54,0.84,0.99,1.85,1.75,2.42c0.64,0.48,1.86,0.83,2.47,0.52c0.62-0.3,1.09-1.47,1.12-2.27
		c0.03-0.78-0.48-1.65-0.94-2.36c-2.33-3.63-5.69-6.01-9.9-7.58c1.93-2.23,4.24-3.24,6.78-3.51c0-2.08-0.01-4.04,0-6.01
		c0.01-1.18,0.66-1.67,1.81-1.61C160.88,10.38,162.61,10.47,164.48,10.56z M141.4,28.65c3.75,2.25,4.98,5.82,5.75,9.65
		c0.19,0.92,0.31,1.85,0.41,2.78c1.35,12.27,6.97,22.16,16.91,29.45c9.19,6.74,19.46,9.53,30.83,7.33c1.65-0.32,3.25-0.95,5.01-1.48
		c-0.29-0.34-0.33-0.42-0.37-0.43c-0.26-0.06-0.53-0.09-0.78-0.15c-10.75-2.55-20.36-7.05-26.82-16.45
		c-4.49-6.53-6.16-13.84-4.39-21.64c2.58-11.37,12.51-18.33,23.55-16.5c2.93,0.48,5.74,1.71,8.59,2.59
		c0.84-4.31-1.54-9.21-5.88-11.97c-2.21-1.4-2.34-1.88-1.22-4.27c0.16-0.33,0.3-0.68,0.49-1.12c-5.99-3.6-11.72-3.91-17.37,0.72
		c-0.79-0.84-1.56-1.57-2.22-2.4c-0.66-0.82-1.2-1.74-1.78-2.6c-3.81,1.6-4.84,3.36-6.27,10.49c-1.84-0.32-3.66-0.66-5.5-0.95
		c-1.29-0.2-1.94,0.41-1.79,1.7c0.23,1.88,0.54,3.76,0.78,5.41c-1.92,0.62-3.8,1.23-5.68,1.84c3.57,2.63,6.63,5.08,8.53,8.72
		c1.28,2.45,1.04,4.36-0.77,5.49c-1.72,1.07-3.87,0.38-5.36-1.71c-0.85-1.2-1.61-2.49-2.6-3.57
		C150.25,26.15,144.95,25.67,141.4,28.65z"/>
	<path class="st1" d="M157.33,21.18c0.87-0.05,1.78-0.18,2.69-0.13c0.93,0.04,1.84,0.25,3.1,0.44c-1.96-2.47-3.28-4.96-2.77-8.1
		c3.11-0.31,5.44,1.27,8.13,3.24c-1.53-4.91-1.29-9.01,2.79-12.11c1.78,1.64,3.49,3.21,5.34,4.91c3.33-4.13,7.48-4.77,12.13-3.54
		c1.68,0.44,2.98,1.02,2.15,3.26c-0.62,1.65,0.07,2.73,1.81,3.58c3.52,1.74,5.53,4.74,6.15,8.88c-0.42-0.08-0.72-0.1-0.98-0.21
		c-14.98-6.18-29.15,1.81-31.62,17.8c-0.54,3.49-2.91,5.71-5.95,7.07c-2.1,0.94-4.09,0.06-5.7-1.5c-1.4-1.37-1.98-3.02-1.39-4.95
		c0.7-2.31,2.83-3.64,5.17-3.01c1.95,0.53,3.62,0.36,4.92-1.23c1.38-1.7,1.61-3.61,0.78-5.67c-1.26-3.15-3.36-5.62-6.03-7.65
		c-0.26-0.2-0.49-0.44-0.72-0.68C157.28,21.54,157.31,21.45,157.33,21.18z"/>
	<path class="st1" d="M194.61,76.15c-7.16,1.5-13.66,0.89-19.87-1.66c-12.73-5.24-21-14.55-24.7-27.81
		c-0.38-1.34-0.53-2.76-0.69-4.16c-0.57-4.98-1.4-9.85-5.26-13.59c4.4-1.96,8.58,0.52,10.67,6.19c-4.17,3.8-4.55,7.21-1.19,10.81
		c3.27,3.51,7.22,2.94,11.97-1.69C167.6,61.47,178.32,70.98,194.61,76.15z"/>
</g>
<rect x="0" y="37.98" class="st1" width="125.25" height="1.46"/>
<g>
	<rect x="41.04" y="20.22" class="st0" width="3.98" height="15.8"/>
	<rect x="41.04" y="15.07" class="st0" width="3.98" height="3.42"/>
	<rect x="69.22" y="20.22" class="st0" width="3.98" height="15.8"/>
	<rect x="69.22" y="15.07" class="st0" width="3.98" height="3.42"/>
	<rect x="62.05" y="14.35" class="st0" width="3.98" height="21.67"/>
	<path class="st0" d="M53.14,22.83v-2.61h-3.98v15.8h3.98v-9.19c0,0,0.78-3.31,2.63-3.31c0,0,1.04-0.08,1.88,0.48
		c0.11-0.25,1.46-3.03,1.46-3.03s-1.23-1.04-2.69-1.04C54.96,19.94,53.59,21.79,53.14,22.83z"/>
	<path class="st0" d="M89.7,21.15c0,0-1.09-1.46-4.96-1.2c-1.45,0.09-2.83,1.85-3.28,2.89v-2.61h-3.98v15.8h3.98v-9.19
		c0,0,1.43-3.46,3.28-3.46c0,0,2.02-0.27,2.69,2.11c0.2,0.55,0.11,2.07,0.11,2.07v8.47h3.98V28.8v-1.24v-1.48
		C91.52,22.74,89.7,21.15,89.7,21.15z"/>
	<path class="st0" d="M101.44,20.04c-8.09,0-7.12,9.23-7.04,9.8c0.07,0.58,1.38,6.37,7.51,6.37c0,0,4.72,0.22,6.48-4.42l-3.44-0.7
		c0,0-0.99,2.24-3.06,2.24c-2.07,0-3.6-2.07-3.6-4.15h10.48C108.76,29.19,109.52,20.04,101.44,20.04z M98.32,26.83
		c0.02-0.04,0.22-4.02,3.4-4.02c3.17,0,3.31,4.02,3.31,4.02H98.32z"/>
	<path class="st0" d="M120.28,26.61c-5.57-1.01-5.53-2.11-5.53-2.37c0-0.26,0.43-1.61,2.91-1.61c2.48,0,3.25,2.07,3.25,2.07
		l3.31-1.2c0,0-1.72-3.47-6.33-3.47c-4.61,0-6.44,2.41-6.44,4.71s2.2,3.88,5.23,4.54c3.03,0.65,4.54,1.64,4.54,2.15
		s-0.15,1.94-3.21,1.94c-3.06,0-3.55-2.3-3.55-2.3l-3.62,0.58c0.8,2.78,3.88,4.56,7.54,4.56c3.66,0,5.85-2.69,6.16-3.44
		C124.85,32.03,125.84,27.62,120.28,26.61z"/>
</g>
<path class="st0" d="M0,36.02h4.81c1.06-1.87,4.21-7.46,4.85-8.6c0.77-1.37,1.53-1.29,1.53-1.29h1.2v9.89h3.42v-15.8H8.93
	C5.47,26.34,0,36.02,0,36.02z"/>
<path class="st1" d="M29.69,20.22h-6.88v15.8h3.42v-9.89h1.2c0,0,0.76-0.08,1.53,1.29c0.64,1.14,3.79,6.73,4.85,8.6h4.81
	C38.62,36.02,33.15,26.34,29.69,20.22z"/>
<path class="st0" d="M28.64,18.35c-0.91-1.62-1.55-2.74-1.68-2.98c-0.59-1.06-1.51-1-1.51-1h-4.64h-0.4h-1.1h-1.1h-0.4h-4.64
	c0,0-0.92-0.06-1.51,1c-0.13,0.23-0.76,1.36-1.68,2.98h5.82h1.34h0.64v17.67h0.02h1.5h1.5h0.02V18.35h0.64h1.34H28.64z"/>
<path class="st0" d="M120.39,49.37c-4.03-2.35-4.41-2.24-4.41-2.24l-2.28,3.64c0,0-0.04,0.24,0.67,0.43c0,0-1.26,0.64-1.26,1.61
	s0.7,1.4,0.7,1.4s-0.49,0.28-1.83,0c-1.34-0.28-1.15-3.67-4.34-3.67s-3.99,3.49-3.99,4.89c0,1.4,0.66,3.38,3.39,3.38
	c0,0,1.57-0.04,1.92-0.13c0,0-3.95,3.36-6.25,4.02c0,0-1.16,0.31-1.41,0.58c0,0-0.3,0.7,0.6,0.7c0.9,0,6.76,0,6.76,0
	s3.03-2.02,2.65-5.04c0.19-0.07,5.49,0.22,6.5-1.72c0,0,2.8,1.53,4,1.57c1.2,0.04,2.61-1.53,2.95-2.99
	C125.1,54.34,124.43,51.73,120.39,49.37z M108.1,55.18c-0.82,0.21-2.39,0.06-2.39-0.62s1.49-0.73,1.49-0.73
	C108.61,54.08,108.93,54.98,108.1,55.18z M117.29,54.16c-0.58,0-2.11,0-2.11-0.99c0-0.99,1.9-1.11,1.96-1.1
	c0.82,0.06,1.64,0.54,1.64,1.14C118.79,53.8,117.87,54.16,117.29,54.16z M122.48,55.87c-0.5,0.49-2.05,0.09-2.47-0.32
	c-0.41-0.41,0.11-1.23,0.39-1.72c0.28-0.49,0.82-0.11,0.82-0.11C121.79,54.17,122.99,55.39,122.48,55.87z"/>
</svg>
