<?xml version="1.0" encoding="utf-8"?>
<!-- Generator: Adobe Illustrator 25.4.1, SVG Export Plug-In . SVG Version: 6.00 Build 0)  -->
<svg version="1.1" id="Layer_1" xmlns="http://www.w3.org/2000/svg" xmlns:xlink="http://www.w3.org/1999/xlink" x="0px" y="0px"
	 viewBox="0 0 80.1 80" style="enable-background:new 0 0 80.1 80;" xml:space="preserve">
<style type="text/css">
	.st0{fill:#0C0C11;}
	.st1{fill-rule:evenodd;clip-rule:evenodd;fill:#273375;}
	.st2{fill-rule:evenodd;clip-rule:evenodd;fill:#989A9B;}
</style>
<path class="st0" d="M84.9-885.5c-0.7-0.1-1.8,0-2.5,0c0.5-0.4,1.2-0.7,1.6-0.5c0.1,0,0.1,0,0.2,0.1
	C84.4-885.8,84.7-885.6,84.9-885.5z"/>
<path class="st1" d="M11.8,44.5h13.1c0,0,12.9,16.6,27.4,16.6s23.2-12.4,23.2-12.4S78,80,54.3,80S12.7,51.7,11.8,44.5z"/>
<path class="st1" d="M8.1,26c0,0,4.8-16.7,21.2-16.7s27,6.1,40.1,20.2C69.4,29.6,54,0,29.1,0C29.1,0,8.1-0.9,8.1,26z"/>
<path class="st2" d="M0,47.9c0,0,10.6-6.9,19.2-6s28,7.6,43.3,7.6S80.1,39,80.1,39s-7.2,4.7-14.8,4.7c-7.6,0-21.3-2.2-30.5-4.7
	s-20.3-3.2-25.6-1.1S1.8,44.5,0,47.9z"/>
<path class="st2" d="M6.3,38c0,0,5.1-3.2,12.3-3.2s23.8,4.7,32,4.7s12.5-2.5,14.3-6.3c0,0-5.4,2.7-9,2.7c-3.6,0-13.2-0.6-21.2-2.1
	c-8-1.5-13.7-1.7-19.4-1.7S6.3,38,6.3,38z"/>
<path class="st2" d="M11.2,32.1c0.2,0.1,3.1-1.5,7.7-1.6s16.8,0.8,20.7,0.8s5.5-2.3,5.7-3.1c0,0-2.2,1.4-4.6,1.4
	c-2.4,0-21.2-1.6-25.1-0.7C11.7,29.9,11.2,32.1,11.2,32.1z"/>
</svg>
