<?xml version="1.0" encoding="utf-8"?>
<!-- Generator: Adobe Illustrator 25.4.1, SVG Export Plug-In . SVG Version: 6.00 Build 0)  -->
<svg version="1.1" id="Layer_1" xmlns="http://www.w3.org/2000/svg" xmlns:xlink="http://www.w3.org/1999/xlink" x="0px" y="0px"
	 viewBox="0 0 249.6 80" style="enable-background:new 0 0 249.6 80;" xml:space="preserve">
<style type="text/css">
	.st0{fill:#0C0C11;}
	.st1{fill-rule:evenodd;clip-rule:evenodd;fill:#273375;}
	.st2{fill-rule:evenodd;clip-rule:evenodd;fill:#989A9B;}
	.st3{fill:#77797B;}
</style>
<path class="st0" d="M84.9-885.5c-0.7-0.1-1.8,0-2.5,0c0.5-0.4,1.2-0.7,1.6-0.5c0.1,0,0.1,0,0.2,0.1
	C84.4-885.8,84.7-885.6,84.9-885.5z"/>
<g>
	<g>
		<rect x="85.5" y="5.2" class="st1" width="7.7" height="52"/>
		<polygon class="st1" points="136,14 129.8,14 129.8,50 129.8,57.2 136,57.2 151.9,57.2 151.9,50 136,50 		"/>
		<path class="st1" d="M172.6,14h-6.7h-0.2l-12.5,43.2h6.9l2.8-9.5h12.9l2.8,9.5h6.9L172.8,14H172.6z M165,40l4.2-14.4l4.2,14.4H165
			z"/>
		<polygon class="st1" points="207.8,43.2 194.7,14 188.5,14 188.5,57.2 194.7,57.2 194.7,28 207.8,57.2 214.1,57.2 214.1,14 
			207.8,14 		"/>
		<path class="st1" d="M241.8,17.1c-3-3.4-9-3-9-3H227h-3.9h-2.4v43.2h2.4h3.9h5.8c4.8,0,6.7-1.2,9.4-3.6c2.7-2.4,5.1-9.4,5.1-18.4
			C247.3,26.3,244.9,20.4,241.8,17.1z M240.5,41.7c-0.9,9.2-7.7,8.2-7.7,8.2H227V21.3h5.8c3.7,0,5.6,2.2,6.5,4.5
			C240.2,28.1,241.4,32.5,240.5,41.7z"/>
		<path class="st1" d="M111.7,29.8c-5.1-1.5-5.3-2.9-5.9-4.1c-0.6-1.2-1-5.5,4.9-5.5c5.9,0,6,6.3,6,6.3l6.4-0.4
			c0.4-6-3.2-13.2-12.1-13.2c-9,0-11.6,7.9-11.6,12c0,4.1,0.9,6.7,3.5,9.2c2.6,2.6,8,4.4,11.2,5.8c3.2,1.4,3.8,3.4,3.8,5.1
			c0,1.7-1.2,5.6-6.9,5.6s-6.4-8.2-6.4-8.2l-6.2,1c1.5,11.4,7,14.6,13.6,14.6c6.6,0,12.1-4.3,12.1-14.2
			C123.9,34,116.7,31.4,111.7,29.8z"/>
	</g>
	<path class="st1" d="M11.8,44.5h13.1c0,0,12.9,16.6,27.4,16.6s23.2-12.4,23.2-12.4S78,80,54.3,80S12.7,51.7,11.8,44.5z"/>
	<path class="st1" d="M8.1,26c0,0,4.8-16.7,21.2-16.7s27,6.1,40.1,20.2C69.4,29.6,54,0,29.1,0C29.1,0,8.1-0.9,8.1,26z"/>
	<path class="st2" d="M0,47.9c0,0,10.6-6.9,19.2-6s28,7.6,43.3,7.6S80.1,39,80.1,39s-7.2,4.7-14.8,4.7c-7.6,0-21.3-2.2-30.5-4.7
		s-20.3-3.2-25.6-1.1S1.8,44.5,0,47.9z"/>
	<path class="st2" d="M6.3,38c0,0,5.1-3.2,12.3-3.2s23.8,4.7,32,4.7s12.5-2.5,14.3-6.3c0,0-5.4,2.7-9,2.7c-3.6,0-13.2-0.6-21.2-2.1
		c-8-1.5-13.7-1.7-19.4-1.7S6.3,38,6.3,38z"/>
	<path class="st2" d="M11.2,32.1c0.2,0.1,3.1-1.5,7.7-1.6s16.8,0.8,20.7,0.8s5.5-2.3,5.7-3.1c0,0-2.2,1.4-4.6,1.4
		c-2.4,0-21.2-1.6-25.1-0.7C11.7,29.9,11.2,32.1,11.2,32.1z"/>
	<rect x="77.4" y="68.6" class="st2" width="69.3" height="2.2"/>
	<g>
		<rect x="166.9" y="61.7" class="st3" width="1.3" height="16.1"/>
		<path class="st3" d="M161.4,61.7h-0.9h-0.5l-3.7,16.1h1.3l1.1-4.9h4.3l1.1,4.9h1.3l-3.7-16.1H161.4z M159.2,71.2l1.8-7.7l1.8,7.7
			H159.2z"/>
		<polygon class="st3" points="186.1,70.3 191.4,70.3 191.4,68.6 186.1,68.6 186.1,63.5 191.9,63.5 191.9,61.7 186.1,61.7 
			184.8,61.7 184.8,63.5 184.8,76 184.8,77.8 186.1,77.8 192.1,77.8 192.1,76 186.1,76 		"/>
		<polygon class="st3" points="202.2,61.7 200.7,61.7 197.8,67.8 195,61.7 193.4,61.7 197.1,69.5 193.2,77.8 194.7,77.8 197.8,71.1 
			200.9,77.8 202.5,77.8 198.6,69.5 		"/>
		<polygon class="st3" points="224.5,70.3 229.8,70.3 229.8,68.6 224.5,68.6 224.5,63.5 230.2,63.5 230.2,61.7 224.5,61.7 
			223.1,61.7 223.1,63.5 223.1,76 223.1,77.8 224.5,77.8 230.4,77.8 230.4,76 224.5,76 		"/>
		<path class="st3" d="M175.8,70.5c1.3-0.4,2.9-1.6,2.9-4.4c0-4.6-3.5-4.3-3.5-4.3H172h-1.3v1.8v14.3h1.3v-7h2c1.9,0.3,3.8,7,3.8,7
			h1.6c0,0-0.9-2.7-1.9-4.9C176.9,71.5,176.3,70.8,175.8,70.5z M175,68.8H172v-5.3h3.3c0.6,0,2,0,2,2.7
			C177.3,68.9,175,68.8,175,68.8z"/>
		<path class="st3" d="M218.2,70.5c1.3-0.4,2.9-1.6,2.9-4.4c0-4.6-3.5-4.3-3.5-4.3h-3.3H213l0,0v16.1h1.3v-7h2c1.9,0.3,3.8,7,3.8,7
			h1.6c0,0-0.9-2.7-1.9-4.9C219.3,71.5,218.6,70.8,218.2,70.5z M217.4,68.8h-3.1v-5.3h3.3c0.6,0,2,0,2,2.7
			C219.7,68.9,217.4,68.8,217.4,68.8z"/>
		<path class="st3" d="M207.9,61.7h-3.1h-1.3v1.8v14.3h1.3v-6.6h2.8c0,0,3.6,0.2,3.6-4.8C211.3,61.5,207.9,61.7,207.9,61.7z
			 M207.7,69.3h-2.8v-5.8h2.9c0.4,0,2.1,0.2,2.1,2.9C209.9,69.5,207.7,69.3,207.7,69.3z"/>
		<path class="st3" d="M235.5,68c-1.6-0.8-1.8-1.6-1.8-2.1s0.2-2.7,2.4-2.7c2.2,0,2.5,3,2.5,3h1.2c0-4.2-3.1-4.6-3.7-4.6
			c-0.6,0-3.7,0.3-3.7,4.3c0,3.9,3.9,4.8,5.1,5.2c1.2,0.4,1.4,1.6,1.4,2.2c0,0.6-0.1,2.9-2.6,2.9c-2.5,0-3.1-3.6-3.1-3.6h-1.1
			c0,5.1,3.1,5.5,4.3,5.5c1.3,0,3.7-1.1,3.7-5C240.2,69.2,237.1,68.8,235.5,68z"/>
		<path class="st3" d="M244.9,68c-1.6-0.8-1.8-1.6-1.8-2.1s0.2-2.7,2.4-2.7c2.2,0,2.5,3,2.5,3h1.2c0-4.2-3.1-4.6-3.7-4.6
			c-0.6,0-3.7,0.3-3.7,4.3c0,3.9,3.9,4.8,5.1,5.2c1.2,0.4,1.4,1.6,1.4,2.2c0,0.6-0.1,2.9-2.6,2.9c-2.5,0-3.1-3.6-3.1-3.6h-1.1
			c0,5.1,3.1,5.5,4.3,5.5c1.3,0,3.7-1.1,3.7-5C249.6,69.2,246.5,68.8,244.9,68z"/>
	</g>
</g>
</svg>
