<?xml version="1.0" encoding="utf-8"?>
<!-- Generator: Adobe Illustrator 25.4.1, SVG Export Plug-In . SVG Version: 6.00 Build 0)  -->
<svg version="1.1" id="Layer_1" xmlns="http://www.w3.org/2000/svg" xmlns:xlink="http://www.w3.org/1999/xlink" x="0px" y="0px"
	 viewBox="0 0 94.3 80" style="enable-background:new 0 0 94.3 80;" xml:space="preserve">
<style type="text/css">
	.st0{fill:#E22424;}
	.st1{fill:#11549F;}
</style>
<path class="st0" d="M64.2,48.1c-2.5-1.4-6.2-2.7-10.8-3.4l-0.4-6c-1.8-0.1-3.5,2-3.5,2c-2.5,2.7-4.8,3.4-5.9,3.6
	c-0.2,0-0.5,0-0.7,0.1c0,0,0,0,0,0l0,0c-6.7,0.6-14.1,2.8-21.2,7.5C4.9,63.2,0,76.8,0,76.8s8.3-7.9,16.6-13.5
	c8.3-5.5,15.4-7.3,19.4-7.3c4,0,3.1,0.8,2.8,4.7C38.4,64.5,31.3,80,31.3,80s6.6-11.2,8.9-11.3c2.3-0.1,1.7,8.1,1.7,8.1
	s6.7-15.4,9-18.8c2.3-3.4,7.1-4.8,16.1,1.4c9,6.3,14.8,19.8,14.8,19.8C82.2,59.9,71.5,52.3,64.2,48.1z"/>
<path class="st1" d="M30.1,31.9c2.5,1.4,6.2,2.7,10.8,3.4l0.4,6c1.8,0.1,3.5-2,3.5-2c2.5-2.7,4.8-3.4,5.9-3.6c0.2,0,0.5,0,0.7-0.1
	c0,0,0,0,0,0l0,0c6.7-0.6,14.1-2.8,21.2-7.5C89.4,16.8,94.3,3.2,94.3,3.2S86,11.2,77.7,16.7c-8.3,5.5-15.4,7.3-19.4,7.3
	c-4,0-3.1-0.8-2.8-4.7C55.9,15.5,63,0,63,0s-6.6,11.2-8.9,11.3c-2.3,0.1-1.7-8.1-1.7-8.1s-6.7,15.4-9,18.8
	c-2.3,3.4-7.1,4.8-16.1-1.4c-9-6.3-14.8-19.8-14.8-19.8C12.2,20.1,22.9,27.7,30.1,31.9z"/>
</svg>
