<?xml version="1.0" encoding="utf-8"?>
<!-- Generator: Adobe Illustrator 25.4.1, SVG Export Plug-In . SVG Version: 6.00 Build 0)  -->
<svg version="1.1" id="Layer_1" xmlns="http://www.w3.org/2000/svg" xmlns:xlink="http://www.w3.org/1999/xlink" x="0px" y="0px"
	 viewBox="0 0 269.1 80" style="enable-background:new 0 0 269.1 80;" xml:space="preserve">
<style type="text/css">
	.st0{fill:#E22424;}
	.st1{fill:#11549F;}
</style>
<g>
	<path class="st0" d="M64.2,48.1c-2.5-1.4-6.2-2.7-10.8-3.4l-0.4-6c-1.8-0.1-3.5,2-3.5,2c-2.5,2.7-4.8,3.4-5.9,3.6
		c-0.2,0-0.5,0-0.7,0.1c0,0,0,0,0,0l0,0c-6.7,0.6-14.1,2.8-21.2,7.5C4.9,63.2,0,76.8,0,76.8s8.3-7.9,16.6-13.5
		c8.3-5.5,15.4-7.3,19.4-7.3c4,0,3.1,0.8,2.8,4.7C38.4,64.5,31.3,80,31.3,80s6.6-11.2,8.9-11.3c2.3-0.1,1.7,8.1,1.7,8.1
		s6.7-15.4,9-18.8c2.3-3.4,7.1-4.8,16.1,1.4c9,6.3,14.8,19.8,14.8,19.8C82.2,59.9,71.5,52.3,64.2,48.1z"/>
	<path class="st1" d="M30.1,31.9c2.5,1.4,6.2,2.7,10.8,3.4l0.4,6c1.8,0.1,3.5-2,3.5-2c2.5-2.7,4.8-3.4,5.9-3.6c0.2,0,0.5,0,0.7-0.1
		c0,0,0,0,0,0l0,0c6.7-0.6,14.1-2.8,21.2-7.5C89.4,16.8,94.3,3.2,94.3,3.2S86,11.2,77.7,16.7c-8.3,5.5-15.4,7.3-19.4,7.3
		c-4,0-3.1-0.8-2.8-4.7C55.9,15.5,63,0,63,0s-6.6,11.2-8.9,11.3c-2.3,0.1-1.7-8.1-1.7-8.1s-6.7,15.4-9,18.8
		c-2.3,3.4-7.1,4.8-16.1-1.4c-9-6.3-14.8-19.8-14.8-19.8C12.2,20.1,22.9,27.7,30.1,31.9z"/>
	<path class="st0" d="M103.2,27.3h8.2c0,0-6,16.8-6,21.7h6l6.3-21.7h8.3L118,56.4h-14.2c0,0-9.9,0.7-7.3-7.3
		C99,41,103.2,27.3,103.2,27.3z"/>
	<path class="st0" d="M223.9,27.3h8.2c0,0-6,16.8-6,21.7h6l6.3-21.7h8.3l-7.9,29.1h-14.2c0,0-9.9,0.7-7.3-7.3
		C219.7,41,223.9,27.3,223.9,27.3z"/>
	<polygon class="st0" points="167.9,39.5 176.4,39.5 171.6,49.4 177.5,49.4 176.8,27.3 186.5,27.3 187.4,56.4 158.2,56.4 	"/>
	<polygon class="st0" points="249.6,39.5 258.1,39.5 253.3,49.4 259.2,49.4 258.5,27.3 268.2,27.3 269.1,56.4 239.9,56.4 	"/>
	<path class="st0" d="M218.9,34.2c0-7.4-5.1-6.9-5.1-6.9h-15.7l-5,17.9h14.2c0.9,0.3,1,2.2,1,2.2c0,2.1-3,2.3-3,2.3h-13.6l-2.1,6.7
		c0,0,10.2,0,16.6,0c6.3,0,9.7-3,10.8-6.8s-1.7-8.8-1.7-8.8C218.7,38.6,218.9,34.2,218.9,34.2z M206.6,38.3c-0.5,0-3.6,0.3-3.4-0.2
		l1.1-4h3.5c0,0,2.2-0.2,2.2,2S207.1,38.3,206.6,38.3z"/>
	<path class="st0" d="M118.6,56.4h8.8c0,0,3.1-6,5.6-5.6c2.5,0.4,0.5,5.6,0.5,5.6h10.2c0,0-0.8-4.7,0.5-5.3s3.4,1.5,4.4,5.3h7.5
		c0,0-2-14-14.6-14S119.2,54.3,118.6,56.4z"/>
	<path class="st1" d="M165.8,27.7H157c0,0-3.1,6-5.6,5.6c-2.5-0.4-0.5-5.6-0.5-5.6h-10.2c0,0,0.8,4.7-0.5,5.3s-3.4-1.5-4.4-5.3h-7.5
		c0,0,2,14,14.6,14S165.2,29.9,165.8,27.7z"/>
</g>
</svg>
