<svg width="364" height="80" viewBox="0 0 364 80" fill="none" xmlns="http://www.w3.org/2000/svg">
<g clip-path="url(#clip0_706_2680)">
<path d="M223.709 7.98415C220.495 12.7627 216.964 18.734 213.084 26.3827C209.172 34.0816 205.644 41.9714 203.457 47.9728H216.507C217.305 45.4718 218.277 42.9407 219.307 40.5652H240.749C241.786 42.9306 242.705 45.3136 243.556 47.9728H256.609C254.286 41.9588 250.909 34.1218 247.006 26.4304C243.117 18.7717 239.631 12.7727 236.354 7.98415H223.709ZM230.019 17.4333C232.711 22.2545 235.126 27.1436 237.816 33.1626H222.242C224.866 27.2616 227.284 22.3751 230.019 17.4333ZM130.159 7.98415C129.521 14.1187 129.195 21.4234 129.195 27.9747C129.195 34.4759 129.519 41.0172 130.167 47.9728H142.536C142.004 42.7975 141.743 38.363 141.567 33.1274H154.014C154.921 34.1293 156.407 36.0352 157.969 38.5036C159.787 41.3612 161.191 44.1761 162.753 47.9728H176.581C174.766 44.5101 172.799 41.3838 169.844 37.2154C168.154 34.8374 166.557 32.9039 165.093 31.455C170.281 29.632 173.49 25.2527 173.49 19.9293C173.49 16.8858 172.398 14.0056 170.499 12.0169C167.8 9.22709 163.609 7.98415 156.899 7.98415H130.159ZM141.938 15.4747H152.819C156.824 15.4747 158.773 15.9643 160.018 17.2901C160.759 18.0334 161.201 19.2211 161.201 20.4716C161.201 22.6287 160.088 24.5371 158.137 25.7323H141.559C141.567 22.7768 141.692 19.4095 141.938 15.4747ZM80.7186 7.98415C80.1285 14.3221 79.7468 21.4937 79.7468 27.9999C79.7468 34.4759 80.1787 41.5872 80.7211 47.9779H118.882C118.683 45.3111 118.528 42.8779 118.387 40.0027H92.4101C92.2092 37.007 92.1164 34.2474 92.1113 31.5555H116.074V24.0123H92.1113C92.1113 21.8201 92.1867 18.616 92.4076 15.9567H118.354C118.483 13.1519 118.638 10.7965 118.892 7.98415H80.7186ZM26.2562 7.98415C25.6209 13.958 25.2869 21.4861 25.2869 27.9747C25.2869 34.4759 25.5832 40.8389 26.2562 47.9728H49.8376C58.1818 47.9728 63.3195 47.0061 66.5085 44.8265C68.9668 43.139 70.4885 39.7868 70.4885 36.0729C70.4885 31.7037 67.9925 28.2133 63.6133 26.4279C66.5261 24.7907 68.3793 21.6393 68.3793 18.2318C68.3793 15.0754 67.4677 12.8882 65.4212 11.1506C61.9836 8.22517 55.6808 7.98415 48.9788 7.98415H26.2562ZM38.028 15.55H48.4916C52.7202 15.55 54.129 15.8714 55.3393 17.0893C55.9595 17.717 56.3287 18.8194 56.3287 20.0448C56.3287 21.7373 55.6482 23.1937 54.4052 24.1529H37.6589C37.6991 21.1622 37.8196 18.38 38.028 15.55ZM37.6489 31.3973H52.7102C54.8898 31.3973 55.9997 31.6936 56.9765 32.5247C57.8905 33.3057 58.3149 34.2725 58.3149 35.5832C58.3149 36.9593 57.9156 38.0316 57.097 38.8451C55.9244 39.945 54.2721 40.4146 51.3869 40.4146H38.028C37.7643 37.233 37.6614 34.0264 37.6489 31.3973ZM185.646 7.98668C185.013 13.7094 184.654 21.2526 184.669 28.3187C184.684 35.0911 184.953 41.6048 185.646 47.9728H196.293C197.014 41.6374 197.25 35.1061 197.267 28.3162C197.287 21.2651 196.883 13.6567 196.303 7.98668H185.646ZM0.974753 7.98668C0.341965 13.7094 -0.0146075 21.2526 0.000458896 28.3187C0.0155253 35.0911 0.281699 41.6048 0.974753 47.9728H11.6292C12.3449 41.6374 12.5809 35.1061 12.601 28.3162C12.6186 21.2651 12.2168 13.6567 11.6342 7.98668H0.974753Z" fill="url(#paint0_linear_706_2680)"/>
<path d="M275.425 61.0206L256.625 79.9968V79.9992C321.885 79.9992 337.27 64.6566 346.247 43.7721L353.786 24.113C331.799 24.7458 298.62 37.7054 275.425 61.0206Z" fill="url(#paint1_linear_706_2680)"/>
<path d="M319.259 16.6346L298.105 38.0615C318.189 23.6355 338.217 14.9321 358.17 12.6847L363.034 -0.0011673C333.496 -0.0011673 329.474 6.45729 319.259 16.6346Z" fill="url(#paint2_linear_706_2680)"/>
</g>
<defs>
<linearGradient id="paint0_linear_706_2680" x1="128.305" y1="79.0835" x2="128.305" y2="9.23875" gradientUnits="userSpaceOnUse">
<stop stop-color="#A61C22"/>
<stop offset="0.8" stop-color="#DA1C2D"/>
<stop offset="1" stop-color="#DA1C2D"/>
</linearGradient>
<linearGradient id="paint1_linear_706_2680" x1="259.841" y1="85.5723" x2="356.91" y2="29.5291" gradientUnits="userSpaceOnUse">
<stop stop-color="#A61C22"/>
<stop offset="0.5" stop-color="#DC1C2E"/>
<stop offset="1" stop-color="#DC1C2E"/>
</linearGradient>
<linearGradient id="paint2_linear_706_2680" x1="297.308" y1="36.6789" x2="362.487" y2="-0.952193" gradientUnits="userSpaceOnUse">
<stop stop-color="#ED7417"/>
<stop offset="0.85" stop-color="#FACD08"/>
<stop offset="1" stop-color="#FACD08"/>
</linearGradient>
<clipPath id="clip0_706_2680">
<rect width="363.035" height="80" fill="white"/>
</clipPath>
</defs>
</svg>
