<?xml version="1.0" encoding="utf-8"?>
<!-- Generator: Adobe Illustrator 25.4.1, SVG Export Plug-In . SVG Version: 6.00 Build 0)  -->
<svg version="1.1" xmlns="http://www.w3.org/2000/svg" xmlns:xlink="http://www.w3.org/1999/xlink" x="0px" y="0px"
	 viewBox="0 0 65.35 80" style="enable-background:new 0 0 65.35 80;" xml:space="preserve">
<style type="text/css">
	.st0{fill:#C0486C;}
	.st1{fill:#F9D828;}
	.st2{fill:#E6B52D;}
	.st3{fill:#83582E;}
	.st4{fill:#6A4D31;}
</style>
<g id="Layer_2">
</g>
<g id="Layer_1">
	<path class="st0" d="M50.87,52.56c-7.28,8.99-28.25,12.49-35.94,6.34c-2.69-2.11-4.42-3.84-4.42-6.34c0-1.54,0.38-2.88,0.96-4.42
		c0.58-1.54,1.73-3.27,3.08-5l4.42-5.57c-11.92-1.15-5.19-6.73,6.34-6.73c4.04-4.04,8.07-8.07,10.76-9.8s5-2.5,7.11-2.5
		c0.19,0,0.38,0,0.58,0.19c0.19,0.19,0.19,0.38,0.19,0.58s0,0.38-0.19,0.77c-0.19,0.38-0.38,0.58-0.77,0.96l-7.11,7.88
		c6.73-0.96,12.49-2.5,16.72-4.42c4.23-1.92,5.96-4.04,5.96-5.96c0-1.15-0.77-2.11-2.31-2.69c-1.54-0.77-3.46-0.96-5.96-0.96
		c-3.46,0-7.5,0.38-11.92,1.35c-4.42,0.77-9.03,2.11-14.22,3.84c1.73,0.58,1.92,1.54,0.38,2.88l-10.38,2.69
		c-1.15,0.19-7.69,3.46-6.34-1.35c1.15-4.23,5.96-9.99,8.46-11.53c1.15-0.77,2.69-1.54,4.81-2.11C31.46,7.59,51.45,2.59,62.4,8.93
		c6.53,5.57,1.15,15.38-5.96,17.87c-6.34,2.11-14.03,4.81-24.79,5.96l-2.31,2.11c5.96,1.15,34.6,2.5,23.26,15.76
		C52.02,51.22,51.45,51.99,50.87,52.56 M27.23,37.96l-3.65,4.04c-0.96,1.15-1.73,2.11-2.31,3.27c-0.58,0.96-0.96,1.92-0.96,2.5
		c0,1.15,0.77,2.11,2.5,2.88c1.73,0.96,3.65,1.35,5.96,1.35c4.04,0,7.88-0.96,11.72-2.88c3.84-1.92,5.77-3.65,5.77-5.38
		c0-1.15-1.73-2.31-5-3.27C37.99,39.3,33.38,38.53,27.23,37.96z"/>
	<path class="st1" d="M47.6,0.28C43.18,4.51,27.81,27,13.58,44.68l-2.11,2.5l-0.38,2.11c0,0.38-18.07,1.15-8.07,23.64
		c-1.15,1.92-2.11,1.92-2.31,6.92c0.38,0.19,0.77,0.19,1.15,0c0.19-3.08,0.96-5.38,4.8-8.26c3.46-2.88,13.65-10.57,16.15-19.99
		c0.19-0.96,0.58-1.73,0.96-2.69L55.29,5.28C55.29,5.28,51.26-1.45,47.6,0.28"/>
	<path class="st2" d="M50.87,3.74C46.64,8.93,34.92,26.62,20.7,44.3l-2.5,0.19c4.04,2.11,3.27,3.46,4.61,6.92
		c0.19,0.38,0.58-1.92,0.96-2.5L55.29,5.28c0,0-1.54-2.69-3.65-4.23C50.68,0.28,52.79,3.36,50.87,3.74"/>
	<path class="st3" d="M53.37,5.67c-4.23,5.19-13.45,20.57-27.68,38.44c-0.19-0.77-0.38-1.54-0.19-2.5c-2.5,1.73-4.23,5.77-2.69,9.99
		c0.19-0.96,0.96-2.11,0.96-2.69L55.29,5.28c-0.19-0.19-0.38-1.92-1.92-3.08C52.41,1.44,54.52,4.7,53.37,5.67"/>
	<path class="st3" d="M13.78,55.83c-0.77,5.19-4.23,7.11-5,7.88c-0.19,0.19,0,3.46-0.38,6.53c3.08-3.27,19.03-17.49,8.07-23.06
		C21.27,51.02,15.12,55.45,13.78,55.83"/>
	<path class="st4" d="M9.74,61.21c6.73-6.53,0.19-12.11-4.42-7.88C-1.6,59.67,4.36,66.59,9.74,61.21"/>
	<path class="st0" d="M48.57,14.89c-3.08,0.19-6.34,0.58-9.8,1.15c-1.35,0.19-2.69,0.58-4.04,0.77c-3.27,0.77-6.53,1.73-10.19,2.88
		c1.73,0.58,1.92,1.54,0.38,2.88l-10.38,2.69c-1.15,0.19-7.69,3.46-6.34-1.35c1.15-4.23,5.96-9.99,8.46-11.53
		c1.15-0.77,2.69-1.54,4.8-2.11c5.38-1.54,13.26-3.65,21.14-4.42c4.04-0.38,9.6,0.17,13.45,0.74L48.57,14.89"/>
</g>
</svg>
