<?xml version="1.0" encoding="utf-8"?>
<!-- Generator: Adobe Illustrator 25.4.1, SVG Export Plug-In . SVG Version: 6.00 Build 0)  -->
<svg version="1.1" xmlns="http://www.w3.org/2000/svg" xmlns:xlink="http://www.w3.org/1999/xlink" x="0px" y="0px"
	 viewBox="0 0 296.12 80" style="enable-background:new 0 0 296.12 80;" xml:space="preserve">
<style type="text/css">
	.st0{fill:#C0486C;}
	.st1{fill:#F9D828;}
	.st2{fill:#E6B52D;}
	.st3{fill:#83582E;}
	.st4{fill:#6A4D31;}
</style>
<g id="Layer_2">
</g>
<g id="Layer_1">
	<g id="surface1">
		<path class="st0" d="M80.47,49.1c-4.61,3.65-12.49,10.38-15.95,11.34c-3.08-0.38-5.77-4.61-6.92-7.69
			c-9.99,6.92-34.98,12.3-42.67,6.15c-2.69-2.11-4.42-3.84-4.42-6.34c0-1.54,0.38-2.88,0.96-4.42c0.58-1.54,1.73-3.27,3.08-5
			l4.42-5.57c-11.92-1.15-5.19-6.73,6.34-6.73c4.04-4.04,8.07-8.07,10.76-9.8s5-2.5,7.11-2.5c0.19,0,0.38,0,0.58,0.19
			c0.19,0.19,0.19,0.38,0.19,0.58s0,0.38-0.19,0.77c-0.19,0.38-0.38,0.58-0.77,0.96l-7.11,7.88c6.73-0.96,12.49-2.5,16.72-4.42
			c4.23-1.92,5.96-4.04,5.96-5.96c0-1.15-0.77-2.11-2.31-2.69c-1.54-0.77-3.46-0.96-5.96-0.96c-3.46,0-7.5,0.38-11.92,1.35
			c-4.42,0.77-9.03,2.11-14.22,3.84c1.73,0.58,1.92,1.54,0.38,2.88l-10.38,2.69c-1.15,0.19-7.69,3.46-6.34-1.35
			c1.15-4.23,5.96-9.99,8.46-11.53c1.15-0.77,2.69-1.54,4.81-2.11C31.46,7.59,51.45,2.59,62.4,8.93c6.53,5.57,1.15,15.38-5.96,17.87
			c-6.34,2.11-14.03,4.81-24.79,5.96l-2.31,2.11c5.96,1.15,34.6,2.5,23.26,15.76c-0.58,0.58-1.15,1.35-1.73,1.92
			c2.11-0.96,4.42-2.31,6.53-4.61c0.38-0.77,0.77-1.54,1.35-2.31c1.54-2.11,3.46-4.23,6.15-5.96c5.96-4.23,13.26-7.69,20.76-8.65
			c0.96-0.19,3.46,0.19,4.42,1.15c0.77,0.96,1.15,1.35,1.54,2.11c0.19,0.19,0,0.77-0.19,0.96c-0.58,0.38-1.92,1.15-2.69,1.54
			c3.27,1.73,3.46,3.65-1.54,9.23c-8.07,10.95,1.54,9.42,9.61,1.35v-0.19c2.11-2.11,4.04-4.04,5.57-5.77
			c1.54-1.73,2.11-2.5,3.46-4.23c-2.31-0.38-6.15,0.77-7.11,0c-0.38-0.58,1.15-2.88,2.5-4.42c3.46-4.61,5.96-4.8,11.34-5
			c0.19-0.38,0.96-0.96,1.15-1.54c2.88-6.53,15.38-8.46,6.53,1.35c1.35,0,3.84,0.77,4.61,0.38c0.19-0.19-0.58,2.88-1.15,3.65
			c-1.15,2.11-3.27,4.8-4.61,5.38c-0.58,0.38-3.08,0.58-4.04,0.58c-0.77,0-1.35-0.19-1.73-0.19c-0.38,0-0.77,0.19-1.15,0.19
			c-2.31,2.69-4.04,5.38-5.38,8.26c-1.35,2.88-2.11,5.57-2.11,7.69c0,0.77,0.19,1.35,0.58,1.73c0.38,0.38,0.96,0.58,1.73,0.58
			c1.15,0,2.88-0.77,5.38-2.31c2.11-1.35,5-3.46,8.46-6.34c0.38-0.77,0.77-1.73,1.15-2.69c3.65-9.99,21.53-16.72,13.26-4.04
			c-1.73,2.69-4.61,5-8.07,7.69c-0.19,0.58-0.19,0.96-0.38,1.54c0,0.38,0,0.77-0.19,1.15c-0.96,2.69,0.96,4.23,4.04,3.65
			c1.35-0.19,3.27-0.77,5.57-2.31c1.92-1.15,3.84-2.5,5.96-4.42c0.58-2.11,1.54-4.42,2.69-6.73c2.12-4.04,5.77-8.46,10.96-14.22
			c4.8-5.38,19.03-17.87,22.68-17.68c0.58,0,0.96,0.19,1.35,0.58c0.38,0.38,0.58,0.77,0.58,1.34c0,1.73-4.04,6.34-9.61,13.07
			c-5.57,6.73-14.61,14.42-23.83,23.83v2.69c5-5,24.79-20.95,27.29-18.84c11.15,9.8-9.03,17.49-11.72,19.6l-0.77,0.58
			c4.23,8.26,12.3,0.58,19.6-5.57l0.77,3.08c-4.81,4.8-8.65,8.07-11.72,9.99c-4.23,2.69-8.27,4.42-12.11,0.77
			c-1.54-1.54-4.23-4.23-5.96-7.88c-2.5,1.15-2.5,1.92-3.46,3.65c-3.08,6.15-7.11,5.38-7.11-4.04c-2.69,2.88-5,5-7.11,6.53
			c-2.69,1.92-5.38,2.88-7.5,2.88c-2.31,0-4.23-0.96-5.57-2.69c-1.34-1.73-1.92-4.23-1.92-7.3c-3.46,3.27-6.73,5.77-9.61,7.69
			c-3.65,2.31-6.73,3.65-9.03,3.65c-1.73,0-2.88-0.39-3.84-1.35c-0.96-0.77-1.35-2.11-1.35-3.65c0-1.35,0.19-2.69,0.77-4.23
			c0.58-1.54,1.35-3.27,2.31-5C95.65,54.68,68.36,75.63,80.47,49.1z M27.23,37.96l-3.65,4.04c-0.96,1.15-1.73,2.11-2.31,3.27
			c-0.58,0.96-0.96,1.92-0.96,2.5c0,1.15,0.77,2.11,2.5,2.88c1.73,0.96,3.65,1.35,5.96,1.35c4.04,0,7.88-0.96,11.72-2.88
			c3.84-1.92,5.77-3.65,5.77-5.38c0-1.15-1.73-2.31-5-3.27C37.99,39.3,33.38,38.53,27.23,37.96z M157.54,47.76l3.07,1.73
			c3.65-2.69,7.5-5,9.03-6.34c5.96-5.38-1.35-3.46-3.84-1.73C163.5,43.15,160.43,45.07,157.54,47.76z M136.59,29.11
			c0-1.73,0.77-3.27,2.31-4.8c1.54-1.54,3.08-2.31,4.61-2.31c0.77,0,1.54,0.19,1.92,0.58c0.38,0.38,0.58,1.15,0.58,1.92
			c0,1.54-0.77,3.08-2.31,4.61c-1.54,1.73-2.88,2.5-4.42,2.5c-0.77,0-1.54-0.19-2.11-0.77C136.79,30.46,136.59,29.88,136.59,29.11z
			 M84.89,38.53c-23.83,6.34-23.83,16.34-19.8,16.34c1.35,0,3.84-1.54,7.88-4.81C77.01,46.6,80.85,43.53,84.89,38.53"/>
		<path class="st1" d="M47.6,0.28C43.18,4.51,27.81,27,13.58,44.68l-2.11,2.5l-0.38,2.11c0,0.38-18.07,1.15-8.07,23.64
			c-1.15,1.92-2.11,1.92-2.31,6.92c0.38,0.19,0.77,0.19,1.15,0c0.19-3.08,0.96-5.38,4.8-8.26c3.46-2.88,13.65-10.57,16.15-19.99
			c0.19-0.96,0.58-1.73,0.96-2.69L55.29,5.28C55.29,5.28,51.26-1.45,47.6,0.28"/>
		<path class="st2" d="M50.87,3.74C46.64,8.93,34.92,26.62,20.7,44.3l-2.5,0.19c4.04,2.11,3.27,3.46,4.61,6.92
			c0.19,0.38,0.58-1.92,0.96-2.5L55.29,5.28c0,0-1.54-2.69-3.65-4.23C50.68,0.28,52.79,3.36,50.87,3.74"/>
		<path class="st3" d="M53.37,5.67c-4.23,5.19-13.45,20.57-27.68,38.44c-0.19-0.77-0.38-1.54-0.19-2.5
			c-2.5,1.73-4.23,5.77-2.69,9.99c0.19-0.96,0.96-2.11,0.96-2.69L55.29,5.28c-0.19-0.19-0.38-1.92-1.92-3.08
			C52.41,1.44,54.52,4.7,53.37,5.67"/>
		<path class="st3" d="M13.78,55.83c-0.77,5.19-4.23,7.11-5,7.88c-0.19,0.19,0,3.46-0.38,6.53c3.08-3.27,19.03-17.49,8.07-23.06
			C21.27,51.02,15.12,55.45,13.78,55.83"/>
		<path class="st4" d="M9.74,61.21c6.73-6.53,0.19-12.11-4.42-7.88C-1.6,59.67,4.36,66.59,9.74,61.21"/>
		<path class="st0" d="M222.7,46.03c-1.54,1.35-17.11,14.22-19.6,13.84c-5.19-0.58-10.76-10.76-8.07-15.76
			c0.96-1.73,2.11-4.23,4.23-6.34c6.73-6.92,18.83-12.49,29.41-14.8c1.15-0.19,2.31-0.19,3.84-0.19c2.69,0.77,5.19,2.88,5,5
			c0,0.38-0.19,0.58-0.38,0.77c-0.19,0.19-0.77,0.38-1.35,0.77l-1.73,0.96c1.92,0.58,2.69,1.73,2.88,3.27
			c0.38,2.69-2.88,5.96-5.38,9.03c-4.8,5.77-4.23,11.15,2.88,7.69c4.61-2.11,11.34-8.84,15.76-12.11
			c5.96-6.34,16.14-8.07,10.19,1.54c-1.73,2.69-5,5-8.46,7.69c0,0.19-0.77,1.54-0.77,1.73c0,3.08,1.54,4.81,4.42,4.42
			c2.69-0.39,5-1.73,6.92-3.46c2.11-1.92,4.04-4.04,5.96-6.54c-0.58,0-1.54,0-1.73-0.58c-2.11-3.27,2.11-8.26,3.08-9.23
			c0.19-0.19,6.34-6.15,7.88-3.27c0.38,0.58-0.19,2.31-0.58,2.88c2.5-0.19,4.61-0.77,7.3-0.96c1.15-0.19,4.42-0.77,4.81-0.19
			c3.08,3.27,2.88,6.15-0.38,9.03c-3.08,2.69-5,5.19-5.96,6.92c-1.92,3.27-0.38,5.77,3.46,4.42c2.31-0.77,5.38-3.46,9.03-6.73
			l0.77,2.69c-4.61,5-9.03,8.65-12.11,10.76c-8.07,5.19-12.11-2.69-8.84-9.42c1.15-2.5,3.27-5.38,6.53-8.46
			c-1.92,0.38-3.65,0.77-5,0.96c-1.34,0.19-2.5,0.38-3.65,0.58c-1.15,1.73-1.73,2.88-3.08,4.42c-4.04,4.42-7.88,8.84-10.76,10.96
			c-2.69,1.92-5.57,3.27-7.88,3.27c-5.96,0.19-7.5-6.15-7.3-10.57c0-0.58,0.19-1.15,0.19-1.54c-6.92,6.73-18.45,13.84-20.37,13.65
			C214.24,61.79,221.55,49.68,222.7,46.03z M260.37,28.35c-0.19-1.73,0.77-3.27,2.31-4.8c1.54-1.73,6.92-3.65,7.3,0.38
			c0.19,1.35-0.77,2.88-2.12,4.61c-1.54,1.73-2.88,2.5-4.42,2.5c-0.77,0-1.54-0.19-2.11-0.77
			C260.56,29.69,260.37,29.11,260.37,28.35z M228.47,32.57c-10.38,2.69-16.15,6.34-19.99,8.07c-9.23,4.61-10.19,20.18,4.23,6.53
			C217.13,43.34,223.28,38.15,228.47,32.57"/>
		<path class="st0" d="M48.57,14.89c-3.08,0.19-6.34,0.58-9.8,1.15c-1.35,0.19-2.69,0.58-4.04,0.77c-3.27,0.77-6.53,1.73-10.19,2.88
			c1.73,0.58,1.92,1.54,0.38,2.88l-10.38,2.69c-1.15,0.19-7.69,3.46-6.34-1.35c1.15-4.23,5.96-9.99,8.46-11.53
			c1.15-0.77,2.69-1.54,4.8-2.11c5.38-1.54,13.26-3.65,21.14-4.42c4.04-0.38,8.07-0.38,11.92,0.19L48.57,14.89"/>
	</g>
</g>
</svg>
