<?xml version="1.0" encoding="utf-8"?>
<!-- Generator: Adobe Illustrator 25.4.1, SVG Export Plug-In . SVG Version: 6.00 Build 0)  -->
<svg version="1.1" id="Layer_1" xmlns="http://www.w3.org/2000/svg" xmlns:xlink="http://www.w3.org/1999/xlink" x="0px" y="0px"
	 viewBox="0 0 512.2 80" style="enable-background:new 0 0 512.2 80;" xml:space="preserve">
<style type="text/css">
	.st0{fill:#27286F;}
	.st1{fill:#1B6B36;}
	.st2{fill:#FBB713;}
</style>
<g>
	<path class="st0" d="M100.2,64.1c0.1,2.4,0.6,4.3,1.6,5.8c1.8,2.8,4.9,4.1,9.3,4.1c2,0,3.8-0.3,5.4-0.9c3.2-1.2,4.7-3.3,4.7-6.3
		c0-2.3-0.7-3.9-2-4.9c-1.4-0.9-3.5-1.8-6.4-2.5l-5.3-1.3c-3.5-0.8-5.9-1.8-7.4-2.8c-2.5-1.7-3.7-4.3-3.7-7.8c0-3.8,1.2-6.8,3.7-9.2
		c2.5-2.4,5.9-3.6,10.4-3.6c4.1,0,7.7,1.1,10.6,3.2c2.9,2.1,4.3,5.5,4.3,10.1h-5.2c-0.3-2.2-0.8-4-1.7-5.1c-1.6-2.2-4.3-3.3-8.2-3.3
		c-3.1,0-5.3,0.7-6.7,2.1c-1.4,1.4-2,3-2,4.9c0,2,0.8,3.5,2.4,4.5c1.1,0.6,3.4,1.4,7.2,2.3l5.5,1.3c2.7,0.6,4.7,1.5,6.2,2.6
		c2.5,2,3.8,4.8,3.8,8.5c0,4.6-1.6,7.9-4.8,9.9c-3.2,2-6.9,3-11.1,3c-4.9,0-8.8-1.3-11.6-4c-2.8-2.6-4.2-6.2-4.1-10.7H100.2z"/>
	<path class="st0" d="M155.1,50.2c2.6,2.6,3.9,6.5,3.9,11.5c0,4.9-1.2,9-3.5,12.2c-2.3,3.2-5.9,4.8-10.7,4.8c-4,0-7.3-1.4-9.6-4.2
		c-2.4-2.8-3.6-6.6-3.6-11.4c0-5.1,1.3-9.2,3.8-12.2c2.5-3,5.9-4.5,10.1-4.5C149.3,46.3,152.5,47.6,155.1,50.2z M152,70.4
		c1.2-2.6,1.8-5.4,1.8-8.6c0-2.8-0.4-5.1-1.3-6.9c-1.4-2.8-3.8-4.2-7.2-4.2c-3,0-5.2,1.2-6.6,3.6c-1.4,2.4-2,5.3-2,8.6
		c0,3.2,0.7,5.9,2,8.1c1.4,2.2,3.5,3.2,6.5,3.2C148.6,74.3,150.8,73,152,70.4z"/>
	<path class="st0" d="M165.3,35.9h5v41.7h-5V35.9z"/>
	<path class="st0" d="M199.2,50.2c2.6,2.6,3.9,6.5,3.9,11.5c0,4.9-1.2,9-3.5,12.2c-2.3,3.2-5.9,4.8-10.7,4.8c-4,0-7.3-1.4-9.6-4.2
		c-2.4-2.8-3.6-6.6-3.6-11.4c0-5.1,1.3-9.2,3.8-12.2c2.5-3,5.9-4.5,10.1-4.5C193.4,46.3,196.6,47.6,199.2,50.2z M196.1,70.4
		c1.2-2.6,1.8-5.4,1.8-8.6c0-2.8-0.4-5.1-1.3-6.9c-1.4-2.8-3.8-4.2-7.2-4.2c-3,0-5.2,1.2-6.6,3.6c-1.4,2.4-2,5.3-2,8.6
		c0,3.2,0.7,5.9,2,8.1c1.4,2.2,3.5,3.2,6.5,3.2C192.7,74.3,194.9,73,196.1,70.4z"/>
	<path class="st0" d="M277.8,50.2c2.6,2.6,3.9,6.5,3.9,11.5c0,4.9-1.2,9-3.5,12.2s-5.9,4.8-10.7,4.8c-4,0-7.3-1.4-9.6-4.2
		c-2.4-2.8-3.6-6.6-3.6-11.4c0-5.1,1.3-9.2,3.8-12.2c2.5-3,5.9-4.5,10.1-4.5C272,46.3,275.2,47.6,277.8,50.2z M274.8,70.4
		c1.2-2.6,1.8-5.4,1.8-8.6c0-2.8-0.4-5.1-1.3-6.9c-1.4-2.8-3.8-4.2-7.2-4.2c-3,0-5.2,1.2-6.6,3.6c-1.4,2.4-2,5.3-2,8.6
		c0,3.2,0.7,5.9,2,8.1c1.4,2.2,3.5,3.2,6.5,3.2C271.3,74.3,273.5,73,274.8,70.4z"/>
	<path class="st0" d="M288.1,59.8c0-3.5,0.7-6.7,3.3-9.1c2.7-2.5,6.1-3.7,9.8-3.7c4.2,0,8.4,0.8,9.9,3.8c0.8,1.6,1.2,4,1.2,7.1v19.5
		h-5.1V58.2c0-1.9-0.3-3.4-0.8-4.5c-0.9-1.9-2.5-2.8-4.8-2.8c-1.2,0-2.1,0.1-2.9,0.4c-1.4,0.4-2.6,1.3-3.6,2.5c-0.8,1-1.4,2-1.6,3.1
		c-0.2,1.1-0.4,2.6-0.4,4.6v15.9h-5C288.1,77.4,288.1,64.4,288.1,59.8z"/>
	<path class="st0" d="M248.5,50.8c-1.5-3-5.7-3.8-9.9-3.8c-3.5,0-6.9,1.2-9.5,3.5c-1.6-2.7-5.6-3.5-9.7-3.5c-3.6,0-7.1,1.2-9.8,3.7
		c-2.6,2.4-3.3,5.6-3.3,9.1c0,4.6,0,17.6,0,17.6h5V61.5c0-2,0.1-3.5,0.4-4.6c0.2-1.1,0.8-2.1,1.6-3.1c1-1.3,2.2-2.1,3.6-2.5
		c0.8-0.2,1.7-0.4,2.9-0.4c2.3,0,3.9,0.9,4.8,2.8c0.5,1.1,0.8,2.6,0.8,4.5v19.2h0.1h4.9h0V61.5c0-2,0.1-3.5,0.4-4.6
		c0.2-1.1,0.8-2.1,1.6-3.1c1-1.3,2.2-2.1,3.6-2.5c0.8-0.2,1.7-0.4,2.9-0.4c2.3,0,3.9,0.9,4.8,2.8c0.5,1.1,0.8,2.6,0.8,4.5v19.2h5.1
		V57.9C249.7,54.8,249.3,52.4,248.5,50.8z"/>
	<path class="st0" d="M428.3,59.8c0-3.5,0.7-6.7,3.3-9.1c2.7-2.5,6.1-3.7,9.8-3.7c4.2,0,8.4,0.8,9.9,3.8c0.8,1.6,1.2,4,1.2,7.1v19.5
		h-5.1V58.2c0-1.9-0.3-3.4-0.8-4.5c-0.9-1.9-2.5-2.8-4.8-2.8c-1.2,0-2.1,0.1-2.9,0.4c-1.4,0.4-2.6,1.3-3.6,2.5c-0.8,1-1.4,2-1.6,3.1
		c-0.2,1.1-0.4,2.6-0.4,4.6v15.9h-5C428.3,77.4,428.3,64.4,428.3,59.8z"/>
	<path class="st0" d="M344.5,35.9h6.2l14.7,41.7h-6l-4.1-12.5h-16.1l-4.4,12.5h-5.6L344.5,35.9z M353.5,60.5L347.3,42l-6.6,18.4
		H353.5z"/>
	<path class="st0" d="M372.3,35.9L372.3,35.9c1.4,0,2.5,1.1,2.5,2.5v0.7c0,1.4-1.1,2.5-2.5,2.5l0,0c-1.4,0-2.5-1.1-2.5-2.5v-0.7
		C369.8,37,370.9,35.9,372.3,35.9z"/>
	<rect x="369.8" y="47.3" class="st0" width="5.1" height="30.3"/>
	<path class="st0" d="M382.5,47.2h4.7v5.3c0.4-1,1.3-2.3,2.8-3.7c1.5-1.5,3.3-2.2,5.2-2.2c0.1,0,0.2,0,0.5,0s0.6,0.1,1.1,0.1V52
		c-0.3-0.1-0.6-0.1-0.8-0.1c-0.2,0-0.5,0-0.8,0c-2.5,0-4.4,0.8-5.8,2.5c-1.3,1.7-2,3.6-2,5.7v17.5h-5V47.2z"/>
	<path class="st0" d="M401.3,35.9h5v41.7h-5V35.9z"/>
	<path class="st0" d="M416.3,35.9L416.3,35.9c1.4,0,2.5,1.1,2.5,2.5v0.7c0,1.4-1.1,2.5-2.5,2.5l0,0c-1.4,0-2.5-1.1-2.5-2.5v-0.7
		C413.8,37,414.9,35.9,416.3,35.9z"/>
	<rect x="413.8" y="47.3" class="st0" width="5.1" height="30.3"/>
	<path class="st0" d="M476.1,48c2,1,3.5,2.3,4.5,3.9c1,1.5,1.6,3.3,2,5.4c0.3,1.4,0.4,3.6,0.4,6.7h-21.5c0.1,3.1,0.8,5.6,2.1,7.5
		c1.3,1.9,3.4,2.8,6.1,2.8c2.6,0,4.6-0.9,6.2-2.7c0.9-1,1.5-2.2,1.8-3.6h4.9c-0.1,1.1-0.6,2.4-1.3,3.7c-0.7,1.4-1.5,2.5-2.4,3.4
		c-1.5,1.5-3.4,2.5-5.6,3.1c-1.2,0.3-2.5,0.5-4,0.5c-3.7,0-6.8-1.4-9.3-4.1c-2.5-2.8-3.8-6.6-3.8-11.6c0-4.9,1.3-8.9,3.8-11.9
		c2.6-3,5.9-4.6,10.1-4.6C472.1,46.5,474.1,47,476.1,48z M477.9,60c-0.2-2.2-0.7-4-1.4-5.3c-1.4-2.5-3.6-3.7-6.8-3.7
		c-2.3,0-4.2,0.8-5.7,2.5c-1.5,1.7-2.3,3.9-2.4,6.5H477.9z"/>
	<path class="st0" d="M492.3,68c0.2,1.7,0.6,3,1.3,3.9c1.3,1.6,3.5,2.5,6.7,2.5c1.9,0,3.5-0.4,5-1.2c1.4-0.8,2.1-2.1,2.1-3.8
		c0-1.3-0.6-2.3-1.7-3c-0.7-0.4-2.2-0.9-4.3-1.4l-4-1c-2.6-0.6-4.5-1.4-5.7-2.2c-2.2-1.4-3.3-3.3-3.3-5.7c0-2.9,1-5.2,3.1-7
		c2-1.8,4.8-2.7,8.2-2.7c4.5,0,7.8,1.3,9.8,4c1.3,1.7,1.9,3.5,1.8,5.5h-4.7c-0.1-1.1-0.5-2.2-1.2-3.1c-1.2-1.3-3.2-2-6.1-2
		c-1.9,0-3.4,0.4-4.4,1.1c-1,0.7-1.5,1.7-1.5,2.9c0,1.3,0.7,2.4,2,3.2c0.8,0.5,1.9,0.9,3.3,1.2L502,60c3.6,0.9,6.1,1.8,7.3,2.6
		c1.9,1.3,2.9,3.4,2.9,6.2c0,2.7-1,5-3,7c-2,2-5.1,3-9.2,3c-4.5,0-7.6-1-9.5-3.1c-1.9-2.1-2.9-4.6-3-7.6H492.3z"/>
	<path class="st1" d="M60.9,64c0-4.4-5.8-5.8-8.2-8.9c-2.4-3,6.8-8.2,6.8-8.2l33.1,33H40.7C53.5,72.3,60.9,68.4,60.9,64z"/>
	<path class="st0" d="M60.9,64c0,4.4-7.3,8.3-20.2,16h-5.1c0,0,17.2-10,16.4-13.8c-0.8-3.8-7-6.4-7-10.9s12.2-10.5,12.2-10.5
		l2.2,2.2c0,0-9.1,5.2-6.8,8.2C55,58.2,60.9,59.6,60.9,64z"/>
	<path class="st2" d="M60.9,64c0,4.4-7.3,8.3-20.2,16h-5.1c0,0,17.2-10,16.4-13.8c-0.8-3.8-7-6.4-7-10.9s12.2-10.5,12.2-10.5
		l2.2,2.2c0,0-9.1,5.2-6.8,8.2C55,58.2,60.9,59.6,60.9,64z"/>
	<path class="st0" d="M45,55.3c0-4.5,12.2-10.5,12.2-10.5L12.4,0H0v80h35.6c0,0,17.2-10,16.4-13.8C51.3,62.4,45,59.8,45,55.3z
		 M3.4,21.6c0,0,2.8,0.2,6,0.4l2-5.9l1.8,6.2c3,0.2,5.5,0.4,5.5,0.4c-0.1,0-2.4,1.7-4.5,3.2l1.7,5.9l-4.6-3.8l-5.2,3.8l2.1-6.3
		L3.4,21.6z M17.8,56.4l-3.4-2.9l-3.9,2.9l1.6-4.7l-3.6-2.8c0,0,2.1,0.1,4.5,0.3l1.5-4.4l1.3,4.6c2.3,0.1,4.1,0.3,4.1,0.3
		c-0.1,0-1.8,1.3-3.3,2.4L17.8,56.4z M30.7,46.8l-3.4-2.9l-3.9,2.9l1.6-4.7l-3.6-2.8c0,0,2.1,0.1,4.5,0.3l1.5-4.4l1.3,4.6
		c2.3,0.1,4.1,0.3,4.1,0.3c-0.1,0-1.8,1.3-3.3,2.4L30.7,46.8z M39.2,55.9l-1.9-1.6l-2.2,1.6l0.9-2.6l-2-1.6c0,0,1.2,0.1,2.5,0.2
		l0.9-2.5l0.7,2.6c1.3,0.1,2.3,0.1,2.3,0.2c0,0-1,0.7-1.9,1.3L39.2,55.9z M38.7,36l0.8,2.9l-2.3-1.9l-2.6,1.9l1.1-3.1L33.4,34
		c0,0,1.4,0.1,3,0.2l1-2.9l0.9,3c1.5,0.1,2.7,0.2,2.7,0.2C40.8,34.5,39.7,35.3,38.7,36z"/>
</g>
</svg>
