<?xml version="1.0" encoding="utf-8"?>
<!-- Generator: Adobe Illustrator 25.4.1, SVG Export Plug-In . SVG Version: 6.00 Build 0)  -->
<svg version="1.1" id="Layer_1" xmlns="http://www.w3.org/2000/svg" xmlns:xlink="http://www.w3.org/1999/xlink" x="0px" y="0px"
	 viewBox="0 0 86.48 80" style="enable-background:new 0 0 86.48 80;" xml:space="preserve">
<style type="text/css">
	.st0{fill:#008856;}
</style>
<path class="st0" d="M86.37,56.58c-0.09-0.89-0.13-1.79-0.26-2.68c-0.14-0.98-0.24-2-0.57-2.93c-0.83-2.28-2.07-4.34-3.72-6.12
	c-0.83-0.89-1.75-1.69-2.62-2.53c-0.13-0.12-0.34-0.14-0.34-0.14l-0.8-0.55l0,0c-0.05-0.04-0.11-0.07-0.17-0.11c0,0,0,0.01,0,0.01
	l-0.42-0.25c0,0-0.01-0.01-0.01-0.01c-0.13-0.09-0.27-0.17-0.42-0.24l0,0c0,0,0,0,0,0c-0.1-0.05-0.21-0.1-0.31-0.16c0,0,0,0,0,0
	c-0.8-0.4-1.58-0.84-2.4-1.19c-2.59-1.1-5.3-1.76-8.07-2.24c-2.73-0.47-5.49-0.75-8.26-0.91c-1.35-0.08-2.71-0.06-4.04-0.29
	c-1.87-0.31-3.73-0.71-5.54-1.25c-3.36-0.99-6.41-2.6-8.98-5.02c-2.31-2.18-3.91-4.77-4.52-7.93c-0.07-0.35-0.13-0.7-0.19-1.09
	c0,0,0,0,0,0c-0.15-0.87-0.1-1.8-0.1-1.8s0,0,0,0c0-0.04,0.01-0.08,0.01-0.12c0.12-2.73,1.36-4.82,3.66-6.24
	c2.15-1.32,4.5-1.74,6.98-1.28c2.87,0.53,5.05,2.06,6.44,4.64c0.98,1.82,1.36,3.8,1.33,5.86c-0.01,0.39,0.13,0.54,0.48,0.62
	c3.1,0.77,6.19,1.54,9.28,2.33c0.4,0.1,0.53-0.01,0.6-0.36c0.21-1,0.47-2,0.64-3.01c0.43-2.65,0.3-5.27-0.45-7.86
	c-0.96-3.34-2.8-6.15-5.18-8.63c-1.31-1.37-2.68-2.65-4.41-3.49c-3.42-1.65-7.03-1.86-10.72-1.44c-2.3,0.26-4.53,0.85-6.67,1.72
	c-3.72,1.5-7.01,3.64-9.6,6.75c-2.01,2.42-3.31,5.17-3.77,8.3c-0.24,1.66-0.17,3.31,0,4.97c0.31,3.11,1.2,6.05,2.55,8.87
	c1.46,3.04,2.95,6.07,4.31,9.16c0.68,1.54,1.19,3.16,1.6,4.79c0.3,1.2,0.32,2.48,0.43,3.72c0.27,3,0.22,5.99-0.26,8.96
	c-0.34,2.08-0.92,4.09-1.96,5.93c-1.39,2.47-3.4,4.13-6.25,4.64c-1.68,0.3-3.33,0.13-4.98-0.24c-1.39-0.31-2.72-0.76-3.82-1.69
	c-0.62-0.53-1.2-1.13-1.77-1.7c0,0,0,0,0,0c-0.36-0.63-1.27-2.45-1.27-2.45s0,0,0,0c-0.14-0.69-0.29-1.37-0.33-2.06
	c-0.13-2.36,0.64-4.48,1.81-6.49c1.14-1.95,2.63-3.61,4.3-5.11c0.13-0.12,0.27-0.3,0.29-0.47c0.03-0.24-0.03-0.5-0.06-0.75
	c-0.18-1.47-0.36-2.93-0.54-4.4c-0.17-1.39-0.34-2.79-0.52-4.23c-2.5,0.9-4.84,2.03-7.01,3.52l-0.82,0.62l0,0
	c-0.28,0.19-0.55,0.37-0.81,0.57c-1.29,1-2.46,2.14-3.51,3.4c-2.88,3.44-4.44,7.4-4.59,11.89c-0.08,2.54,0.35,5.02,1.16,7.42
	c0.86,2.56,1.94,5,3.72,7.08c3.33,3.9,7.46,6.27,12.59,6.77c3.45,0.34,6.79-0.24,10.01-1.48c3.1-1.19,5.9-2.89,8.45-5.02
	c3.65-3.06,6.61-6.67,8.86-10.87c1.49-2.79,3.52-5.16,5.97-7.14c3.64-2.93,7.71-4.86,12.41-5.35c2.46-0.25,4.84,0,7.09,1.06
	c3.52,1.66,5.5,4.38,5.41,8.38c-0.02,0.74-0.12,1.48-0.21,2.22l0,0c0,0-0.45,1.85-1.24,3.16c-0.04,0.07-0.09,0.13-0.13,0.2
	c-2,3.12-5.44,4.4-9.01,3.73c-2.08-0.39-3.95-1.28-5.69-2.45c-0.28-0.19-0.42-0.13-0.64,0.07c-2.25,2.13-4.5,4.25-6.75,6.38
	c-0.6,0.57-1.2,1.14-1.85,1.75c0.45,0.32,0.84,0.62,1.24,0.88c4.08,2.67,8.56,4.19,13.41,4.67c2.62,0.26,5.23,0.16,7.79-0.5
	c1.83-0.47,3.57-1.15,5.07-2.31c1.43-1.11,2.7-2.38,3.83-3.79c2.68-3.33,4.23-7.13,4.73-11.37c0.08-0.68,0.17-1.36,0.25-2.04v-2.79
	C86.44,56.9,86.38,56.74,86.37,56.58z"/>
</svg>
