<?xml version="1.0" encoding="utf-8"?>
<!-- Generator: Adobe Illustrator 25.4.1, SVG Export Plug-In . SVG Version: 6.00 Build 0)  -->
<svg version="1.1" id="Layer_1" xmlns="http://www.w3.org/2000/svg" xmlns:xlink="http://www.w3.org/1999/xlink" x="0px" y="0px"
	 viewBox="0 0 379.02 80" style="enable-background:new 0 0 379.02 80;" xml:space="preserve">
<style type="text/css">
	.st0{fill:#008856;}
</style>
<g>
	<path class="st0" d="M86.37,56.58c-0.09-0.89-0.13-1.79-0.26-2.68c-0.14-0.98-0.24-2-0.57-2.93c-0.83-2.28-2.07-4.34-3.72-6.12
		c-0.83-0.89-1.75-1.69-2.62-2.53c-0.13-0.12-0.34-0.14-0.34-0.14l-0.8-0.55l0,0c-0.05-0.04-0.11-0.07-0.17-0.11c0,0,0,0.01,0,0.01
		l-0.42-0.25c0,0-0.01-0.01-0.01-0.01c-0.13-0.09-0.27-0.17-0.42-0.24l0,0c0,0,0,0,0,0c-0.1-0.05-0.21-0.1-0.31-0.16c0,0,0,0,0,0
		c-0.8-0.4-1.58-0.84-2.4-1.19c-2.59-1.1-5.3-1.76-8.07-2.24c-2.73-0.47-5.49-0.75-8.26-0.91c-1.35-0.08-2.71-0.06-4.04-0.29
		c-1.87-0.31-3.73-0.71-5.54-1.25c-3.36-0.99-6.41-2.6-8.98-5.02c-2.31-2.18-3.91-4.77-4.52-7.93c-0.07-0.35-0.13-0.7-0.19-1.09
		c0,0,0,0,0,0c-0.15-0.87-0.1-1.8-0.1-1.8s0,0,0,0c0-0.04,0.01-0.08,0.01-0.12c0.12-2.73,1.36-4.82,3.66-6.24
		c2.15-1.32,4.5-1.74,6.98-1.28c2.87,0.53,5.05,2.06,6.44,4.64c0.98,1.82,1.36,3.8,1.33,5.86c-0.01,0.39,0.13,0.54,0.48,0.62
		c3.1,0.77,6.19,1.54,9.28,2.33c0.4,0.1,0.53-0.01,0.6-0.36c0.21-1,0.47-2,0.64-3.01c0.43-2.65,0.3-5.27-0.45-7.86
		c-0.96-3.34-2.8-6.15-5.18-8.63c-1.31-1.37-2.68-2.65-4.41-3.49c-3.42-1.65-7.03-1.86-10.72-1.44c-2.3,0.26-4.53,0.85-6.67,1.72
		c-3.72,1.5-7.01,3.64-9.6,6.75c-2.01,2.42-3.31,5.17-3.77,8.3c-0.24,1.66-0.17,3.31,0,4.97c0.31,3.11,1.2,6.05,2.55,8.87
		c1.46,3.04,2.95,6.07,4.31,9.16c0.68,1.54,1.19,3.16,1.6,4.79c0.3,1.2,0.32,2.48,0.43,3.72c0.27,3,0.22,5.99-0.26,8.96
		c-0.34,2.08-0.92,4.09-1.96,5.93c-1.39,2.47-3.4,4.13-6.25,4.64c-1.68,0.3-3.33,0.13-4.98-0.24c-1.39-0.31-2.72-0.76-3.82-1.69
		c-0.62-0.53-1.2-1.13-1.77-1.7c0,0,0,0,0,0c-0.36-0.63-1.27-2.45-1.27-2.45s0,0,0,0c-0.14-0.69-0.29-1.37-0.33-2.06
		c-0.13-2.36,0.64-4.48,1.81-6.49c1.14-1.95,2.63-3.61,4.3-5.11c0.13-0.12,0.27-0.3,0.29-0.47c0.03-0.24-0.03-0.5-0.06-0.75
		c-0.18-1.47-0.36-2.93-0.54-4.4c-0.17-1.39-0.34-2.79-0.52-4.23c-2.5,0.9-4.84,2.03-7.01,3.52l-0.82,0.62l0,0
		c-0.28,0.19-0.55,0.37-0.81,0.57c-1.29,1-2.46,2.14-3.51,3.4c-2.88,3.44-4.44,7.4-4.59,11.89c-0.08,2.54,0.35,5.02,1.16,7.42
		c0.86,2.56,1.94,5,3.72,7.08c3.33,3.9,7.46,6.27,12.59,6.77c3.45,0.34,6.79-0.24,10.01-1.48c3.1-1.19,5.9-2.89,8.45-5.02
		c3.65-3.06,6.61-6.67,8.86-10.87c1.49-2.79,3.52-5.16,5.97-7.14c3.64-2.93,7.71-4.86,12.41-5.35c2.46-0.25,4.84,0,7.09,1.06
		c3.52,1.66,5.5,4.38,5.41,8.38c-0.02,0.74-0.12,1.48-0.21,2.22l0,0c0,0-0.45,1.85-1.24,3.16c-0.04,0.07-0.09,0.13-0.13,0.2
		c-2,3.12-5.44,4.4-9.01,3.73c-2.08-0.39-3.95-1.28-5.69-2.45c-0.28-0.19-0.42-0.13-0.64,0.07c-2.25,2.13-4.5,4.25-6.75,6.38
		c-0.6,0.57-1.2,1.14-1.85,1.75c0.45,0.32,0.84,0.62,1.24,0.88c4.08,2.67,8.56,4.19,13.41,4.67c2.62,0.26,5.23,0.16,7.79-0.5
		c1.83-0.47,3.57-1.15,5.07-2.31c1.43-1.11,2.7-2.38,3.83-3.79c2.68-3.33,4.23-7.13,4.73-11.37c0.08-0.68,0.17-1.36,0.25-2.04v-2.79
		C86.44,56.9,86.38,56.74,86.37,56.58z"/>
	<g>
		<path class="st0" d="M135.73,41.39c-4.89-2.1-10.05-3.56-15.07-5.38c-2.48-0.9-5.07-1.66-7.3-3c-5.21-3.13-4.99-9.48,0.26-12.54
			c2.47-1.44,5.16-1.93,7.99-1.69c5.92,0.51,10.08,3.91,13.5,8.39c1.22,1.6,2.2,3.4,3.36,5.2c0.9-0.32,1.79-0.63,2.8-0.98
			c-1.18-4.97-2.3-9.81-3.51-14.62c-0.1-0.39-0.83-0.87-1.27-0.87c-0.54,0-1.26,0.33-1.57,0.76c-0.53,0.75-0.81,1.69-1.23,2.63
			c-7.71-5.19-15.44-5.84-23.37-1.5c-4.21,2.3-6.61,5.91-6.56,10.81c0.06,4.9,2.5,8.53,6.8,10.64c3.21,1.58,6.69,2.61,10.08,3.83
			c3.89,1.4,7.97,2.4,11.68,4.17c5.85,2.79,6.46,9.41,1.45,13.56c-4.5,3.72-9.62,4.19-14.93,2.16c-5.96-2.28-9.74-6.84-12.34-12.49
			c-1.15-2.5-1.11-2.52-3.86-1.45c0.99,5.63,1.97,11.3,3.03,16.94c0.08,0.42,0.76,1,1.16,1c0.51,0,1.28-0.39,1.49-0.83
			c0.59-1.22,0.95-2.55,1.43-3.95c0.55,0.36,0.92,0.55,1.24,0.81c3.35,2.71,7.09,4.48,11.45,4.81c6.41,0.49,12.16-0.89,16.83-5.63
			C144.98,56.38,144.79,45.28,135.73,41.39z"/>
		<path class="st0" d="M305.22,15.91c-0.33,0.01-0.9,0.84-0.91,1.3c-0.01,0.46,0.63,1.36,0.85,1.32c1.89-0.33,3.04,0.49,4.02,1.55
			c0.16,0.19,0.86,1.23,0.86,5c0,4.25,0.37,14.45,0.37,14.45c0,4.79,0,9.58,0,14.38c-0.91-0.7-1.43-1.49-1.91-2.3
			c-6.77-11.52-13.54-23.05-20.33-34.56c-0.29-0.5-0.92-1.12-1.4-1.13c-4.68-0.08-9.35-0.05-14.11-0.05c0,1,0,1.8,0,2.68
			c0.43,0.03,0.72,0.06,1.01,0.06c4.45,0.13,5.16,0.8,5.18,5.19c0.03,8.04,0.02,16.08,0.02,24.12c0,3.84,0.06,7.68-0.1,11.52
			c-0.15,3.74-1.84,5.08-4.86,4.82c-0.98-0.08-1.42,0.3-1.41,1.34c0.01,1.03,0.3,1.52,1.44,1.51c4.51-0.05,9.03-0.04,13.54-0.01
			c1.05,0.01,1.51-0.35,1.52-1.46c0.02-1.15-0.55-1.25-1.51-1.46c-1.33-0.29-2.9-0.7-3.74-1.62c-0.76-0.84-0.92-2.43-0.93-3.7
			c-0.07-12.12-0.05-24.24-0.05-36.36c0-0.44,0.09-0.88,0.14-1.32c0.14-0.04,0.27-0.09,0.41-0.13c7.1,12.07,14.19,24.14,21.33,36.27
			l0,0l4.5,7.76c0,0,0.01,0,0.01,0c1.32,2.24,2.88,2.69,5.07,1.63c0,0,0.23-0.93,0.23-12.87c0-0.03,0-0.07,0-0.1
			c0-0.13,0.01-0.26,0.01-0.39c0.08-6.3,0.09-12.6,0-18.9c-0.05-3.63-0.4-7.25-0.49-10.87c-0.06-2.41,2.18-4.72,4.51-4.91
			c2.32-0.19,2.35-0.23,1.81-2.78C315.29,15.85,310.25,15.82,305.22,15.91z"/>
		<path class="st0" d="M242.75,64.26c-2.76-0.13-4.77-1.48-6.4-3.54c-4.38-5.57-8.75-11.15-13.11-16.74
			c-0.3-0.39-0.52-0.84-0.68-1.09c3.02-0.68,5.98-1.03,8.71-2.01c5.6-2.03,8.5-6.97,8.17-13.22c-0.27-5.19-3.72-9.35-9.28-10.83
			c-2.13-0.57-4.38-0.87-6.58-0.89c-8.85-0.11-17.69-0.07-26.54-0.08c-0.46,0-0.93,0.1-1.4,0.16c0,0.9,0,1.69,0,2.46
			c4.38,0.48,5.28,0.59,5.81,2.59l0,0c0,0,0.38,7.91,0.38,9.03c0,9.26,0,18.55,0,27.99c0,0.8-0.38,4.06-1.54,5.61
			c-0.11,0.13-0.22,0.25-0.33,0.38c-1.41,1.33-3.12,1.4-4.11,1.4c-0.99,0-0.84,1.65-0.84,1.65h8.9l0.07,0
			c1.19,0.01,2.39,0,3.53-0.03H214v-0.77c0-2.25-3.05-2.35-3.05-2.35s-1.59-0.24-2.06-0.92c-0.47-0.68-0.88-4.06-0.88-4.06
			c0-4.24,0-8.2,0-12.16c0-4.38,0-4.31,4.34-4.41c1.61-0.04,2.62,0.45,3.58,1.78c5.21,7.2,10.51,14.33,15.83,21.45
			c0.46,0.61,1.25,1.34,1.91,1.36c3.35,0.14,6.71,0.06,10.22,0.06C243.7,65.92,244.9,64.36,242.75,64.26z M210.27,39.35
			c-1.87,0.09-2.4-0.51-2.3-2.32c0.15-2.71,0.04-5.42,0.04-8.07l0-5.57c0-1.12,0.03-1.82-0.01-2.52c-0.05-0.95,0.28-1.45,1.33-1.44
			c4.39,0.04,8.79-0.04,13.18,0.08c2.94,0.08,5.79,0.7,7.7,3.25c2.49,3.32,2.68,7.02,1.22,10.75c-1.32,3.39-4.09,5.2-7.65,5.42
			C219.29,39.23,214.77,39.13,210.27,39.35z"/>
		<path class="st0" d="M190.8,25.96c-0.06-0.22-0.13-0.42-0.21-0.59c0,0,0-0.01-0.01-0.01c-0.2-0.5-0.45-0.98-0.69-1.46
			c-0.38-0.81-0.59-1.27-0.59-1.27s-1.1-1.42-1.79-2.07c-0.01-0.01-0.03-0.03-0.05-0.04c-3.3-3.33-7.53-4.45-12.1-4.53
			c-7.94-0.15-15.88-0.11-23.83-0.14c-0.47,0-0.93,0.09-1.47,0.14c0,0.88,0,1.67,0,2.52c0.5,0.04,0.85,0.08,1.2,0.09
			c4.01,0.13,4.79,0.94,4.82,4.97c0,0.54,0,1.08,0,1.62c-0.06,11.81,0.13,23.62-0.31,35.58c-0.11,3.35-1.56,3.33-1.56,3.33
			c-1.96-0.05-3.83,0.06-4.21,2.8c6.21,0,12.38,0,19.05,0c0,0,0.02-2.54-1.62-2.54c0,0-0.01,0-0.03,0
			c-0.09-0.03-0.19-0.05-0.31-0.05c-0.63-0.12-2.04-0.43-3.2-0.99c-1.53-0.75-1.42-5.6-1.42-5.6c0-3.49,0.09-6.91-0.04-10.32
			c-0.06-1.75,0.52-2.2,2.24-2.23c5.04-0.08,10.12-0.08,15.12-0.67c5.94-0.71,10.78-6.11,11.41-12.03c0.04-0.03,0.07-0.05,0.07-0.05
			s0.06-3.14-0.28-5.36C190.99,26.67,190.91,26.31,190.8,25.96z M175.37,41.16c-3.64,0.37-7.33,0.17-10.99,0.35
			c-1.56,0.07-1.94-0.54-1.91-1.98c0.05-2.41,0.05-4.82,0.04-7.23c0.03-0.01,0.05-0.02,0.05-0.02V20.21
			c0.11-0.47,0.39-0.82,1.29-0.78c3.91,0.16,7.83,0.02,11.72,0.39c2.85,0.27,5.14,1.42,6.62,3.54c0.19,0.4,2.22,4.71,1.67,9.71
			C183.02,37.68,180.09,40.68,175.37,41.16z"/>
		<path class="st0" d="M263.96,64.23c-2.47-0.12-3.59-1.11-3.91-3.57c-0.09-0.71-0.11-1.44-0.11-2.15c-0.01-11.16,0-22.31,0-33.47
			c0-0.9,0.01-1.8,0.12-2.69c0.31-2.44,1.59-3.59,4.06-3.73c0.63-0.04,1.27-0.07,1.88-0.1c0-0.97,0-1.72,0-2.51
			c-6.22,0-12.32,0-18.41,0c0,0.92,0,1.67,0,2.49c0.4,0.05,0.69,0.1,0.98,0.11c4.23,0.18,5.05,0.97,5.06,5.16
			c0.02,11.88,0.01,23.75,0.01,35.63c0,0.54,0,1.08-0.07,1.62c-0.29,2.08-1.36,3.06-3.45,3.22c-0.83,0.06-1.65,0.11-2.45,0.17
			c-0.39,2.63-0.36,2.68,1.96,2.68c4.75,0.01,9.5,0.01,14.26,0c2.39,0,2.39-0.01,2.1-2.7C265.26,64.32,264.61,64.26,263.96,64.23z"
			/>
		<path class="st0" d="M376.79,41.32c-4.75-0.01-9.5-0.01-14.25,0c-0.66,0-1.32,0.03-1.98,0.01c-1-0.02-1.16,0.58-1.16,1.4
			c-0.01,0.83,0.15,1.41,1.16,1.39c0.78-0.01,1.56,0.03,2.34,0.09c1.81,0.14,3.39,1.1,3.51,2.81c0.24,3.43,0.1,6.9-0.13,10.33
			c-0.06,0.88-0.86,1.96-1.63,2.48c0,0-1.31,0.97-3.31,2c0,0,0-0.01-0.01-0.01c0,0.01-0.01,0.01-0.01,0.02
			c-1.21,0.62-2.67,1.27-4.24,1.73c-4.16,1.23-9.72-0.83-9.75-0.84c-0.87-0.36-1.49-0.68-1.49-0.68s0,0,0,0
			c-1.11-0.79-2.26-1.52-3.42-2.26c-0.04-0.03-1.45-1.29-2.26-2.33c-0.05-0.07-0.1-0.13-0.15-0.2c-0.01-0.02-0.03-0.03-0.04-0.05
			c-5.86-8.08-6.79-16.89-3.51-26.35c0.01-0.03,0.02-0.06,0.02-0.09c0.54-1.58,3.03-8.01,8.56-10.36c0.01,0,0.01,0,0.02-0.01
			c0.37-0.15,0.75-0.3,1.11-0.46c5.99-2.63,11.78-1.78,16.56,2.27c2.68,2.26,4.26,5.85,6.19,8.94c0.6,0.96,1,1.27,2.09,0.84
			c0.98-0.39,1.5-0.73,1.18-1.92c-1.15-4.28-2.16-8.59-3.32-12.87c-0.14-0.54-0.75-1.14-1.28-1.33c-0.9-0.32-1.58,0.12-1.88,1.12
			c-0.21,0.71-0.57,1.38-0.89,2.13c-0.4-0.24-0.62-0.33-0.81-0.48c-7.03-5.47-20.94-5.04-28.18,2.69c-0.01,0.01-0.01,0.01-0.02,0.02
			c-4.63,4.44-6.78,10.19-6.78,10.19s0.01,0,0.01,0c-3.2,7.72-1.94,19.35,3.07,26.02l-0.01,0c0,0,4.52,7.63,13.16,9.52
			c0.03,0.01,0.05,0.01,0.08,0.02c0.13,0.04,0.26,0.08,0.39,0.11c4.68,1.21,9.29,0.8,13.87-0.55c0,0,1.56-0.38,3.56-1.34
			c0,0.02,0,0.03,0.01,0.05c0.41-0.23,0.81-0.46,1.2-0.68c0,0,0,0,0,0c0,0,0,0,0,0c1.21-0.69,2.38-1.34,3.66-2.07
			c0.49,1.15,1.04,2.21,1.38,3.33c0.48,1.53,1.66,1.07,2.67,1.07c1.24,0,1-0.96,1.01-1.69c0.02-3.72-0.02-7.44,0.02-11.16
			c0.03-2.51,0.09-5.03,0.28-7.54c0.11-1.51,1.12-2.33,2.64-2.46c1-0.08,2-0.14,3.05-0.21c0-0.87,0-1.58,0-2.55
			C378.21,41.39,377.5,41.32,376.79,41.32z"/>
	</g>
</g>
</svg>
