<?xml version="1.0" encoding="utf-8"?>
<!-- Generator: Adobe Illustrator 25.4.1, SVG Export Plug-In . SVG Version: 6.00 Build 0)  -->
<svg version="1.1" id="Layer_1" xmlns="http://www.w3.org/2000/svg" xmlns:xlink="http://www.w3.org/1999/xlink" x="0px" y="0px"
	 viewBox="0 0 188.3 80" style="enable-background:new 0 0 188.3 80;" xml:space="preserve">
<style type="text/css">
	.st0{fill:#252C73;}
	.st1{fill:#80CBDB;}
	.st2{fill:#339444;}
	.st3{fill:#E33C23;}
	.st4{fill:#F5C70A;}
	.st5{fill:#ECE41A;}
	.st6{fill:#010003;}
</style>
<path id="_252C73" class="st0" d="M185.5,45.2c0,0-19.2-2.5-25.9-3.1c-2.9-0.3-5.8-0.5-8.7-0.4c-8.9-0.1-17.7,1.3-26.1,4.3
	c0,0-7.7,3.1-22.9,11S62.4,76.7,62.4,76.7c-3.6,1.6-7.4,2.7-11.2,3.2c-6.1,0.7-14-2-14-2s-5.7-1.6-13.5-8.6
	c-3.4-3.3-6.4-7.2-8.7-11.3c3.4,3.2,7.2,5.9,11.4,8c4.5,2.3,9.1,4.3,14,5.8c0,0,8.8,2.4,20.1-1.8c5.7-2,11.3-4.3,16.7-6.9l15.6-8
	c0,0,18.3-10.6,29.8-14.9c6.6-2.6,13.7-3.7,20.7-3.3c5.5,0.1,11,0.7,16.4,1.7C168.4,40,177.1,42.2,185.5,45.2z"/>
<path class="st1" d="M181,42.3c-5.6-2.1-11.3-3.8-17.1-5.1c0,0-7.3-1.9-13.9-3c-3.4-0.6-6.8-1-10.2-1.2c-5-0.5-10-0.2-14.9,0.9
	c-4.7,1.3-9.4,3-13.8,5.1l-20.2,9.7l-13.6,7.2l-2.9,1.8l0.1-3.3l5.3-2.5l24.7-14.4c0,0,11.6-7.2,18.1-9.3c4.1-1.3,8.4-1.8,12.7-1.5
	c0,0,5.8,0,16.7,3.7s20.4,7.8,20.4,7.8L181,42.3z"/>
<path class="st2" d="M188.3,45.2c0,0-10.9-5.6-14.9-7.5s-24.9-11.3-24.9-11.3s-8.1-3.3-11.5-3.8c-3.3-0.5-6.2-2-14.4,0.6
	S82.6,43.9,82.6,43.9l-5.1,2.9v-9.6l6.2-2.5l16.1-8.5l15.2-7.8c3.7-2,7.6-3.5,11.6-4.5c3.9-0.7,8-0.4,11.8,1
	c6.2,2.3,17.7,8.9,17.7,8.9l12.4,8l13,8.8L188.3,45.2z"/>
<circle id="RED" class="st3" cx="48.9" cy="34.7" r="34.7"/>
<circle id="SUN" class="st4" cx="52.5" cy="31.1" r="29.4"/>
<ellipse id="YELLOW" class="st5" cx="56.7" cy="30" rx="25.2" ry="24.5"/>
<path class="st6" d="M77.4,28.1l-5.8-1.9c0,0-3.9-1.2-7.1-2.6c-2.2-0.8-4.5-1.3-6.8-1.6c-3.3-0.5-6.6-0.5-9.9,0
	c-1.7,0.2-3.3,0.7-4.9,1.5c-1.9,1.1-6.8,0.2-9.8-2.5c-3-2.6-8.5-3.4-8.5-3.4c-3.7-0.4-7.4-0.6-11.1-0.5c-5.8,0.2-13-0.4-13-0.4
	s-1.7-0.2,0,0.3s6.1,1.1,6.1,1.1l6.9,0.6c1.8,0.1,3.7,0.4,5.4,0.9c2.7,0.6,5.4,1.2,8,2.1c1.9,1.1,3.7,2.4,5.4,3.7
	c3.1,2.5-5.3,2.5-5.3,2.5l-1.7,0.2c0,0-1.1,0.2,4.3,0.6c1.4,0.1,2.9,0.1,4.3-0.1c0.8-0.2,1.6,0,2.2,0.4c1.4,0.8,3.9-0.9,3.9-0.9
	l1.1-0.8c0.5-0.3,1.1-0.4,1.7-0.3c0,0,3.6,1.4,2.2,0.6c-0.8-0.5-2.2-1.5-2.2-1.5s-0.5-0.5-0.2-0.7c0.5-0.1,0.9-0.2,1.4-0.1
	c0.6,0,1.2-0.1,1.8-0.3c2-0.1,4.1-0.1,6.1,0c4.7,0.3,9.4,0.8,14,1.6c8.4,1.4,9.7,1.5,9.7,1.5S78.3,28.7,77.4,28.1z"/>
</svg>
