<?xml version="1.0" encoding="utf-8"?>
<!-- Generator: Adobe Illustrator 25.4.1, SVG Export Plug-In . SVG Version: 6.00 Build 0)  -->
<svg version="1.1" id="Layer_1" xmlns="http://www.w3.org/2000/svg" xmlns:xlink="http://www.w3.org/1999/xlink" x="0px" y="0px"
	 viewBox="0 0 234.6 80" style="enable-background:new 0 0 234.6 80;" xml:space="preserve">
<style type="text/css">
	.st0{fill:#252C73;}
	.st1{fill:#80CBDB;}
	.st2{fill:#339444;}
	.st3{fill:#E33C23;}
	.st4{fill:#F5C70A;}
	.st5{fill:#ECE41A;}
	.st6{fill:#010003;}
	.st7{enable-background:new    ;}
</style>
<g>
	<path id="_252C73" class="st0" d="M143.2,34.9c0,0-14.8-1.9-20-2.4c-2.2-0.3-4.5-0.4-6.7-0.3c-6.9-0.1-13.7,1-20.1,3.3
		c0,0-5.9,2.4-17.6,8.5S48.1,59.2,48.1,59.2c-2.8,1.2-5.7,2.1-8.7,2.5c-4.7,0.6-10.8-1.5-10.8-1.5s-4.4-1.2-10.4-6.6
		c-2.6-2.6-4.9-5.5-6.7-8.7c2.6,2.5,5.6,4.5,8.8,6.2c3.5,1.8,7.1,3.3,10.8,4.5c0,0,6.8,1.8,15.5-1.4c4.4-1.5,8.7-3.3,12.9-5.3
		l12.1-6.2c0,0,14.1-8.2,23-11.5c5.1-2,10.5-2.8,16-2.6c4.3,0.1,8.5,0.5,12.7,1.3C130,30.9,136.7,32.6,143.2,34.9z"/>
	<path class="st1" d="M139.7,32.6c-4.3-1.6-8.7-2.9-13.2-4c0,0-5.6-1.5-10.7-2.3c-2.6-0.5-5.2-0.8-7.9-1c-3.8-0.4-7.7-0.1-11.5,0.7
		c-3.7,1-7.2,2.3-10.7,3.9l-15.6,7.5l-10.5,5.6l-2.2,1.4l0.1-2.6l4.1-1.9l19.1-11.1c0,0,8.9-5.6,14-7.2c3.2-1,6.5-1.4,9.8-1.2
		c0,0,4.5,0,12.9,2.9s15.7,6.1,15.7,6.1L139.7,32.6z"/>
	<path class="st2" d="M145.3,34.9c0,0-8.4-4.3-11.5-5.8s-19.2-8.7-19.2-8.7s-6.3-2.5-8.9-2.9s-4.8-1.5-11.1,0.5
		c-6.3,2-30.8,16-30.8,16l-4,2.3v-7.4l4.8-1.9l12.4-6.6l11.8-6.1c2.8-1.5,5.8-2.7,9-3.5c3-0.6,6.2-0.3,9.1,0.7
		c4.8,1.8,13.7,6.9,13.7,6.9l9.6,6.2l10.1,6.8L145.3,34.9z"/>
	<circle id="RED" class="st3" cx="37.8" cy="26.8" r="26.8"/>
	<circle id="SUN" class="st4" cx="40.5" cy="24" r="22.7"/>
	<ellipse id="YELLOW" class="st5" cx="43.8" cy="23.1" rx="19.5" ry="18.9"/>
	<path class="st6" d="M59.7,21.7l-4.4-1.5c0,0-3-1-5.5-2c-1.7-0.6-3.5-1-5.2-1.3c-2.5-0.4-5.1-0.4-7.6,0c-1.3,0.2-2.6,0.6-3.8,1.1
		c-1.5,0.8-5.2,0.1-7.6-1.9s-6.5-2.6-6.5-2.6c-2.8-0.3-5.7-0.4-8.5-0.4c-4.5,0.1-10-0.3-10-0.3s-1.3-0.2,0,0.2
		C1.9,13.5,5.3,14,5.3,14l5.3,0.5c1.4,0.1,2.8,0.3,4.2,0.7c2.1,0.4,4.1,1,6.2,1.6c1.4,0.9,2.8,1.8,4.1,2.9c2.4,1.9-4.1,1.9-4.1,1.9
		l-1.3,0.2c0,0-0.9,0.2,3.3,0.5c1.1,0.1,2.2,0.1,3.3-0.1c0.6-0.1,1.2,0,1.7,0.3c1,0.6,3-0.7,3-0.7l0.8-0.6c0.4-0.2,0.9-0.3,1.3-0.3
		c0,0,2.8,1.1,1.7,0.5c-0.6-0.4-1.7-1.2-1.7-1.2s-0.4-0.4-0.1-0.5c0.4-0.1,0.7-0.1,1.1-0.1c0.5,0,1-0.1,1.4-0.2
		c1.6-0.1,3.1-0.1,4.7,0c3.6,0.2,7.2,0.6,10.8,1.3c6.5,1.1,7.5,1.2,7.5,1.2S60.5,22.1,59.7,21.7z"/>
	<g class="st7">
		<path class="st0" d="M82.7,63.2l8.7-22.5h3.2l9.2,22.5h-3.4l-2.6-6.8h-9.4l-2.5,6.8H82.7z M89.2,53.9h7.6l-2.4-6.2
			c-0.7-1.9-1.3-3.5-1.6-4.7c-0.3,1.4-0.7,2.9-1.2,4.3L89.2,53.9z"/>
		<path class="st0" d="M105.2,43.8v-3.2h2.8v3.2H105.2z M105.2,63.2V46.8h2.8v16.3H105.2z"/>
		<path class="st0" d="M111.5,63.2V46.8h2.5v2.5c0.6-1.2,1.2-1.9,1.8-2.3c0.5-0.4,1.1-0.6,1.8-0.6c0.9,0,1.9,0.3,2.8,0.9l-1,2.6
			c-0.7-0.4-1.4-0.6-2-0.6c-0.6,0-1.1,0.2-1.6,0.5c-0.5,0.4-0.8,0.9-1,1.5c-0.3,1-0.5,2.1-0.5,3.2v8.5H111.5z"/>
	</g>
	<g class="st7">
		<path class="st3" d="M134.5,63.2V40.6h3v11.2l11.2-11.2h4l-9.5,9.1l9.9,13.4h-3.9l-8-11.4l-3.7,3.6v7.8H134.5z"/>
		<path class="st3" d="M154.7,43.8v-3.2h2.8v3.2H154.7z M154.7,63.2V46.8h2.8v16.3H154.7z"/>
		<path class="st3" d="M161,63.2V46.8h2.5v2.5c0.6-1.2,1.2-1.9,1.8-2.3c0.5-0.4,1.1-0.6,1.8-0.6c0.9,0,1.9,0.3,2.8,0.9l-1,2.6
			c-0.7-0.4-1.4-0.6-2-0.6c-0.6,0-1.1,0.2-1.6,0.5c-0.5,0.4-0.8,0.9-1,1.5c-0.3,1-0.5,2.1-0.5,3.2v8.5H161z"/>
		<path class="st3" d="M170.9,43.8v-3.2h2.8v3.2H170.9z M170.9,63.2V46.8h2.8v16.3H170.9z"/>
		<path class="st3" d="M179.8,63.2h-2.6V40.6h2.8v8c1.2-1.5,2.7-2.2,4.5-2.2c1,0,2,0.2,2.9,0.6c0.9,0.4,1.6,1,2.2,1.7
			c0.6,0.7,1,1.6,1.4,2.7c0.3,1,0.5,2.1,0.5,3.3c0,2.8-0.7,5-2.1,6.5c-1.4,1.5-3,2.3-5,2.3c-1.9,0-3.4-0.8-4.5-2.4V63.2z
			 M179.8,54.9c0,2,0.3,3.4,0.8,4.2c0.9,1.4,2,2.1,3.5,2.1c1.2,0,2.3-0.5,3.1-1.6c0.9-1.1,1.3-2.6,1.3-4.7c0-2.1-0.4-3.7-1.3-4.7
			c-0.8-1-1.9-1.5-3.1-1.5c-1.2,0-2.3,0.5-3.1,1.6C180.2,51.4,179.8,52.9,179.8,54.9z"/>
		<path class="st3" d="M204.8,61.2c-1,0.9-2,1.5-3,1.8c-0.9,0.4-2,0.5-3.1,0.5c-1.8,0-3.2-0.4-4.1-1.3c-1-0.9-1.4-2-1.4-3.4
			c0-0.8,0.2-1.5,0.5-2.2c0.4-0.7,0.8-1.2,1.4-1.6c0.6-0.4,1.3-0.7,2-0.9c0.5-0.1,1.4-0.3,2.5-0.4c2.2-0.3,3.9-0.6,4.9-1
			c0-0.4,0-0.6,0-0.7c0-1.1-0.3-1.9-0.8-2.4c-0.7-0.6-1.8-0.9-3.2-0.9c-1.3,0-2.3,0.2-2.9,0.7c-0.6,0.5-1.1,1.3-1.4,2.4l-2.7-0.4
			c0.2-1.2,0.7-2.1,1.2-2.8c0.6-0.7,1.4-1.3,2.4-1.6c1.1-0.4,2.3-0.6,3.7-0.6c1.4,0,2.5,0.2,3.4,0.5s1.5,0.7,1.9,1.2
			c0.4,0.5,0.7,1.1,0.9,1.9c0.1,0.5,0.1,1.3,0.1,2.6v3.7c0,2.6,0.1,4.2,0.2,4.9c0.1,0.7,0.4,1.3,0.7,2h-2.9
			C205,62.6,204.9,61.9,204.8,61.2z M204.6,55c-1,0.4-2.5,0.8-4.5,1c-1.1,0.2-1.9,0.3-2.4,0.6c-0.5,0.2-0.8,0.5-1.1,0.9
			c-0.3,0.4-0.4,0.8-0.4,1.3c0,0.7,0.3,1.4,0.8,1.8c0.6,0.5,1.4,0.7,2.5,0.7c1.1,0,2-0.2,2.8-0.7c0.8-0.5,1.4-1.1,1.8-1.9
			c0.3-0.6,0.4-1.5,0.4-2.8V55z"/>
		<path class="st3" d="M217,60.7l0.4,2.4c-0.8,0.2-1.5,0.2-2.1,0.2c-1,0-1.8-0.2-2.3-0.5c-0.6-0.3-0.9-0.7-1.2-1.3
			c-0.2-0.5-0.3-1.6-0.3-3.3V49h-2v-2.2h2v-4l2.8-1.7v5.7h2.8V49h-2.8v9.5c0,0.8,0,1.3,0.1,1.5c0.1,0.2,0.3,0.4,0.5,0.5
			c0.2,0.1,0.5,0.2,0.9,0.2C216.1,60.8,216.5,60.8,217,60.7z"/>
		<path class="st3" d="M219.1,43.8v-3.2h2.8v3.2H219.1z M219.1,63.2V46.8h2.8v16.3H219.1z"/>
	</g>
	<g class="st7">
		<path class="st0" d="M83.6,77.8v-7.6h4.9v1.3H85v1.8h3v1.3h-3v3.2H83.6z"/>
		<path class="st0" d="M90.8,77.8v-7.6h1.4v7.6H90.8z"/>
		<path class="st0" d="M94.2,72.3h1.5l1.2,3.9l1.2-3.9h1.4l-1.8,5.3l-0.3,1c-0.1,0.3-0.2,0.6-0.3,0.7c-0.1,0.2-0.2,0.3-0.4,0.4
			c-0.1,0.1-0.3,0.2-0.5,0.2C95.9,80,95.6,80,95.4,80c-0.3,0-0.5,0-0.8-0.1l-0.1-1.1c0.2,0,0.4,0.1,0.6,0.1c0.3,0,0.6-0.1,0.7-0.3
			c0.2-0.2,0.3-0.5,0.3-0.8L94.2,72.3z"/>
		<path class="st0" d="M101.5,71.5v-1.3h1.4v1.3H101.5z M101.5,77.8v-5.5h1.4v5.5H101.5z"/>
		<path class="st0" d="M110.2,77.8h-1.4V75c0-0.6,0-1-0.1-1.2c-0.1-0.2-0.2-0.3-0.3-0.4c-0.1-0.1-0.3-0.1-0.5-0.1
			c-0.2,0-0.4,0.1-0.6,0.2c-0.2,0.1-0.3,0.3-0.4,0.5c-0.1,0.2-0.1,0.6-0.1,1.3v2.5h-1.4v-5.5h1.3v0.8c0.5-0.6,1-0.9,1.7-0.9
			c0.3,0,0.6,0.1,0.8,0.2c0.2,0.1,0.4,0.3,0.6,0.4c0.1,0.2,0.2,0.4,0.3,0.6c0.1,0.2,0.1,0.6,0.1,1V77.8z"/>
		<path class="st0" d="M112.6,78.1l1.6,0.2c0,0.2,0.1,0.3,0.2,0.4c0.1,0.1,0.3,0.2,0.6,0.2c0.4,0,0.6-0.1,0.8-0.2
			c0.1-0.1,0.2-0.2,0.3-0.4c0-0.1,0.1-0.3,0.1-0.7v-0.8c-0.4,0.6-0.9,0.9-1.5,0.9c-0.7,0-1.2-0.3-1.6-0.9c-0.3-0.5-0.5-1.1-0.5-1.8
			c0-0.9,0.2-1.6,0.6-2.1c0.4-0.5,0.9-0.7,1.6-0.7c0.6,0,1.2,0.3,1.6,0.9v-0.8h1.3v4.9c0,0.6-0.1,1.1-0.2,1.5
			c-0.1,0.3-0.2,0.6-0.4,0.8c-0.2,0.2-0.4,0.3-0.7,0.4c-0.3,0.1-0.7,0.2-1.1,0.2c-0.9,0-1.5-0.2-1.9-0.5c-0.4-0.3-0.5-0.7-0.5-1.2
			C112.6,78.3,112.6,78.2,112.6,78.1z M113.8,74.9c0,0.6,0.1,1,0.3,1.3c0.2,0.3,0.5,0.4,0.8,0.4c0.3,0,0.6-0.1,0.8-0.4
			c0.2-0.3,0.3-0.7,0.3-1.2c0-0.6-0.1-1-0.3-1.3c-0.2-0.3-0.5-0.4-0.8-0.4c-0.3,0-0.6,0.1-0.8,0.4C114,73.9,113.8,74.4,113.8,74.9z"
			/>
		<path class="st0" d="M123.7,75c0-0.5,0.1-0.9,0.3-1.4c0.2-0.5,0.5-0.8,0.9-1c0.4-0.2,0.9-0.4,1.4-0.4c0.8,0,1.4,0.3,1.9,0.8
			s0.7,1.2,0.7,2c0,0.8-0.3,1.5-0.8,2.1c-0.5,0.5-1.1,0.8-1.9,0.8c-0.5,0-0.9-0.1-1.4-0.3c-0.4-0.2-0.8-0.6-1-1
			C123.8,76.1,123.7,75.6,123.7,75z M125.1,75c0,0.5,0.1,1,0.4,1.3c0.2,0.3,0.5,0.4,0.9,0.4s0.7-0.1,0.9-0.4
			c0.2-0.3,0.4-0.7,0.4-1.3c0-0.5-0.1-1-0.4-1.2c-0.2-0.3-0.5-0.4-0.9-0.4s-0.7,0.1-0.9,0.4C125.2,74.1,125.1,74.5,125.1,75z"/>
		<path class="st0" d="M134.7,77.8V77c-0.2,0.3-0.4,0.5-0.7,0.7c-0.3,0.2-0.6,0.3-1,0.3c-0.3,0-0.7-0.1-0.9-0.2
			c-0.3-0.2-0.5-0.4-0.6-0.7c-0.1-0.3-0.2-0.7-0.2-1.2v-3.5h1.4v2.5c0,0.8,0,1.2,0.1,1.4s0.1,0.3,0.3,0.4s0.3,0.2,0.5,0.2
			c0.2,0,0.4-0.1,0.6-0.2c0.2-0.1,0.3-0.3,0.4-0.5c0.1-0.2,0.1-0.7,0.1-1.5v-2.3h1.4v5.5H134.7z"/>
		<path class="st0" d="M139.8,77.8h-1.4v-5.5h1.3v0.8c0.2-0.4,0.4-0.6,0.6-0.7c0.2-0.1,0.4-0.2,0.6-0.2c0.3,0,0.6,0.1,0.9,0.3
			l-0.4,1.3c-0.2-0.2-0.4-0.2-0.6-0.2c-0.2,0-0.4,0.1-0.5,0.2c-0.1,0.1-0.2,0.3-0.3,0.6c-0.1,0.3-0.1,0.9-0.1,1.8V77.8z"/>
		<path class="st0" d="M147.6,77.8v-7.6h1.4l2.9,5.1v-5.1h1.3v7.6h-1.4l-2.9-4.9v4.9H147.6z"/>
		<path class="st0" d="M156.9,74l-1.2-0.2c0.1-0.5,0.4-0.9,0.7-1.2c0.3-0.3,0.8-0.4,1.5-0.4c0.6,0,1.1,0.1,1.4,0.2
			c0.3,0.2,0.5,0.3,0.6,0.6c0.1,0.2,0.2,0.7,0.2,1.3l0,1.7c0,0.5,0,0.8,0.1,1.1c0,0.2,0.1,0.5,0.2,0.7h-1.4c0-0.1-0.1-0.2-0.1-0.4
			c0-0.1,0-0.1,0-0.2c-0.2,0.2-0.5,0.4-0.7,0.5c-0.3,0.1-0.5,0.2-0.9,0.2c-0.5,0-0.9-0.2-1.3-0.5c-0.3-0.3-0.5-0.7-0.5-1.2
			c0-0.3,0.1-0.6,0.2-0.8c0.1-0.2,0.3-0.4,0.6-0.6c0.3-0.1,0.6-0.2,1.1-0.3c0.6-0.1,1.1-0.2,1.3-0.4V74c0-0.3-0.1-0.5-0.2-0.6
			c-0.1-0.1-0.4-0.2-0.7-0.2c-0.2,0-0.4,0.1-0.6,0.2C157.1,73.5,157,73.7,156.9,74z M158.8,75.1c-0.2,0.1-0.5,0.1-0.8,0.2
			c-0.4,0.1-0.6,0.2-0.7,0.3c-0.2,0.1-0.3,0.3-0.3,0.5c0,0.2,0.1,0.4,0.2,0.5c0.1,0.1,0.3,0.2,0.5,0.2c0.2,0,0.5-0.1,0.7-0.3
			c0.2-0.1,0.3-0.3,0.3-0.5c0-0.1,0.1-0.4,0.1-0.7V75.1z"/>
		<path class="st0" d="M165,72.3v1.2h-0.9v2.2c0,0.4,0,0.7,0,0.8c0,0.1,0.1,0.1,0.1,0.2c0.1,0,0.1,0.1,0.2,0.1c0.1,0,0.3,0,0.5-0.1
			l0.1,1.1c-0.3,0.1-0.7,0.2-1.1,0.2c-0.2,0-0.5,0-0.7-0.1c-0.2-0.1-0.3-0.2-0.4-0.3c-0.1-0.1-0.2-0.3-0.2-0.6c0-0.2,0-0.5,0-1v-2.4
			h-0.6v-1.2h0.6v-1.1l1.4-0.8v1.9H165z"/>
		<path class="st0" d="M167.2,71.5v-1.3h1.4v1.3H167.2z M167.2,77.8v-5.5h1.4v5.5H167.2z"/>
		<path class="st0" d="M170.8,75c0-0.5,0.1-0.9,0.3-1.4c0.2-0.5,0.5-0.8,0.9-1c0.4-0.2,0.9-0.4,1.4-0.4c0.8,0,1.4,0.3,1.9,0.8
			s0.7,1.2,0.7,2c0,0.8-0.3,1.5-0.8,2.1c-0.5,0.5-1.1,0.8-1.9,0.8c-0.5,0-0.9-0.1-1.4-0.3c-0.4-0.2-0.8-0.6-1-1
			C170.9,76.1,170.8,75.6,170.8,75z M172.2,75c0,0.5,0.1,1,0.4,1.3s0.5,0.4,0.9,0.4s0.7-0.1,0.9-0.4c0.2-0.3,0.4-0.7,0.4-1.3
			c0-0.5-0.1-1-0.4-1.2c-0.2-0.3-0.5-0.4-0.9-0.4s-0.7,0.1-0.9,0.4C172.3,74.1,172.2,74.5,172.2,75z"/>
		<path class="st0" d="M183.1,77.8h-1.4V75c0-0.6,0-1-0.1-1.2c-0.1-0.2-0.2-0.3-0.3-0.4c-0.1-0.1-0.3-0.1-0.5-0.1
			c-0.2,0-0.4,0.1-0.6,0.2c-0.2,0.1-0.3,0.3-0.4,0.5c-0.1,0.2-0.1,0.6-0.1,1.3v2.5h-1.4v-5.5h1.3v0.8c0.5-0.6,1-0.9,1.7-0.9
			c0.3,0,0.6,0.1,0.8,0.2c0.2,0.1,0.4,0.3,0.6,0.4c0.1,0.2,0.2,0.4,0.3,0.6c0.1,0.2,0.1,0.6,0.1,1V77.8z"/>
		<path class="st0" d="M189.6,77.8v-7.6h4.9v1.3h-3.4v1.8h3v1.3h-3v3.2H189.6z"/>
		<path class="st0" d="M196.6,75c0-0.5,0.1-0.9,0.3-1.4s0.5-0.8,0.9-1c0.4-0.2,0.9-0.4,1.4-0.4c0.8,0,1.4,0.3,1.9,0.8s0.7,1.2,0.7,2
			c0,0.8-0.3,1.5-0.8,2.1c-0.5,0.5-1.1,0.8-1.9,0.8c-0.5,0-0.9-0.1-1.4-0.3c-0.4-0.2-0.8-0.6-1-1S196.6,75.6,196.6,75z M198,75
			c0,0.5,0.1,1,0.4,1.3s0.5,0.4,0.9,0.4s0.7-0.1,0.9-0.4c0.2-0.3,0.4-0.7,0.4-1.3c0-0.5-0.1-1-0.4-1.2c-0.2-0.3-0.5-0.4-0.9-0.4
			s-0.7,0.1-0.9,0.4C198.1,74.1,198,74.5,198,75z"/>
		<path class="st0" d="M205.5,77.8h-1.4v-5.5h1.3v0.8c0.2-0.4,0.4-0.6,0.6-0.7c0.2-0.1,0.4-0.2,0.6-0.2c0.3,0,0.6,0.1,0.9,0.3
			l-0.4,1.3c-0.2-0.2-0.4-0.2-0.6-0.2c-0.2,0-0.4,0.1-0.5,0.2c-0.1,0.1-0.2,0.3-0.3,0.6c-0.1,0.3-0.1,0.9-0.1,1.8V77.8z"/>
		<path class="st0" d="M210.2,77.8l-1.6-5.5h1.3l1,3.6l0.9-3.6h1.3l0.9,3.6l1-3.6h1.3l-1.7,5.5h-1.3l-0.9-3.5l-0.9,3.5H210.2z"/>
		<path class="st0" d="M219.2,74l-1.2-0.2c0.1-0.5,0.4-0.9,0.7-1.2c0.3-0.3,0.8-0.4,1.5-0.4c0.6,0,1.1,0.1,1.4,0.2
			c0.3,0.2,0.5,0.3,0.6,0.6c0.1,0.2,0.2,0.7,0.2,1.3l0,1.7c0,0.5,0,0.8,0.1,1.1c0,0.2,0.1,0.5,0.2,0.7h-1.4c0-0.1-0.1-0.2-0.1-0.4
			c0-0.1,0-0.1,0-0.2c-0.2,0.2-0.5,0.4-0.7,0.5c-0.3,0.1-0.5,0.2-0.9,0.2c-0.5,0-0.9-0.2-1.3-0.5c-0.3-0.3-0.5-0.7-0.5-1.2
			c0-0.3,0.1-0.6,0.2-0.8c0.1-0.2,0.3-0.4,0.6-0.6c0.3-0.1,0.6-0.2,1.1-0.3c0.6-0.1,1.1-0.2,1.3-0.4V74c0-0.3-0.1-0.5-0.2-0.6
			c-0.1-0.1-0.4-0.2-0.7-0.2c-0.2,0-0.4,0.1-0.6,0.2C219.4,73.5,219.3,73.7,219.2,74z M221,75.1c-0.2,0.1-0.5,0.1-0.8,0.2
			c-0.4,0.1-0.6,0.2-0.7,0.3c-0.2,0.1-0.3,0.3-0.3,0.5c0,0.2,0.1,0.4,0.2,0.5c0.1,0.1,0.3,0.2,0.5,0.2c0.2,0,0.5-0.1,0.7-0.3
			c0.2-0.1,0.3-0.3,0.3-0.5c0-0.1,0.1-0.4,0.1-0.7V75.1z"/>
		<path class="st0" d="M226.2,77.8h-1.4v-5.5h1.3v0.8c0.2-0.4,0.4-0.6,0.6-0.7c0.2-0.1,0.4-0.2,0.6-0.2c0.3,0,0.6,0.1,0.9,0.3
			l-0.4,1.3c-0.2-0.2-0.4-0.2-0.6-0.2c-0.2,0-0.4,0.1-0.5,0.2c-0.1,0.1-0.2,0.3-0.3,0.6c-0.1,0.3-0.1,0.9-0.1,1.8V77.8z"/>
		<path class="st0" d="M234.7,77.8h-1.3V77c-0.2,0.3-0.5,0.5-0.7,0.7c-0.3,0.2-0.6,0.2-0.9,0.2c-0.6,0-1.1-0.3-1.5-0.8
			s-0.6-1.2-0.6-2.1c0-0.9,0.2-1.6,0.6-2.1s0.9-0.7,1.6-0.7c0.6,0,1.1,0.3,1.5,0.8v-2.7h1.4V77.8z M231,74.9c0,0.6,0.1,1,0.2,1.3
			c0.2,0.4,0.5,0.6,0.9,0.6c0.3,0,0.6-0.1,0.8-0.4c0.2-0.3,0.3-0.7,0.3-1.3c0-0.6-0.1-1.1-0.3-1.4c-0.2-0.3-0.5-0.4-0.8-0.4
			c-0.3,0-0.6,0.1-0.8,0.4C231.1,74,231,74.4,231,74.9z"/>
	</g>
</g>
</svg>
