<?xml version="1.0" encoding="utf-8"?>
<!-- Generator: Adobe Illustrator 25.4.1, SVG Export Plug-In . SVG Version: 6.00 Build 0)  -->
<svg version="1.1" id="Layer_1" xmlns="http://www.w3.org/2000/svg" xmlns:xlink="http://www.w3.org/1999/xlink" x="0px" y="0px"
	 viewBox="0 0 90.3 80" style="enable-background:new 0 0 90.3 80;" xml:space="preserve">
<style type="text/css">
	.st0{fill-rule:evenodd;clip-rule:evenodd;fill:#2C4274;}
	.st1{fill-rule:evenodd;clip-rule:evenodd;fill:#2A5D9D;}
	.st2{fill-rule:evenodd;clip-rule:evenodd;fill:#64A4D9;}
</style>
<path class="st0" d="M22.2,0c0,0-5.4,0.9-2.6,2.8s8.7,4,8.7,4s3.3,0.5,5.8-1.7c2.5-2.2,2.2-2.5,4-2.5s5.3,0,5.3,0s4.6,0.8,8.9,4.9
	s25.2,25.6,25.2,25.6s2.2,2.1,2.2,5.9s-3.2,6.9-5.2,8.8c-2,1.9-24.1,24.6-24.1,24.6s-5,5-9.5,5s-10.6,0-10.6,0s-4.2-4.7-7.4-4.7
	s-6.4,3.8-6.4,4.2s-0.9,3,3,3s29.1,0,29.1,0s7.3,0.7,12.8-4.8s25.8-26.9,25.8-26.9s3.3-2.9,3.3-8.3s-2.3-7.5-4.3-9.8
	C84,27.8,62.4,4.1,62.4,4.1S59.2,0,53,0S22.2,0,22.2,0z"/>
<path class="st1" d="M38.2,4c0,0-3.7,1.6-1.1,4.3c2.6,2.8,26.7,26.5,26.7,26.5s2.1,1.6,2.1,3.9c0,2.3-1.3,3.8-2.4,5
	C62.3,45,41.7,66,41.7,66s-1.7,1.6-4.1,1.6s-3.9-1.1-4.9-2.1c-1-1-20.6-21.2-20.6-21.2s-1.8-1.8-1.8-4.3s1-3.6,3-5.2l14.7-13.5
	c0,0,1.8-1.6,3.2-1.6c1.4,0,2.3,0.4,4.6,2.3S51,36.8,51,36.8s1.3,0.7,1.3,2.4c0,1.8-0.8,3-1.8,3.9S34.9,59,34.9,59s-2.2,2.1-0.7,3.8
	c1.5,1.7,2.6,2.3,2.6,2.3s1.8,1.7,5.1-1.6c3.3-3.3,20.1-20.6,20.1-20.6s1.4-1.2,1.4-3.4s-2-3.6-2-3.6L36,10.4c0,0-1.3-1.8-4.3-1.8
	s-11.4,8.5-17,13.5S4.1,31.8,4.1,31.8S0,35,0,40.6s3.5,7.7,6.3,10.7s22.4,22.2,22.4,22.2s2.4,2.8,7.7,2.8s7.4-1.3,10.3-4
	s28.8-28.1,28.8-28.1s2.2-1.9,2.2-5c0-3.1-2-5.3-3.9-7.2S49.6,7.6,49.6,7.6S44.8,3.3,38.2,4z"/>
<path class="st2" d="M13.2,42.9l13.9,14.4c0,0,0.9,1.6,3.2,1.6s2.7-0.7,4.5-2.4s14-14,14-14s1.1-0.7,1.1-2.4s-1.3-3-1.3-3L33.8,22.8
	c0,0-1-0.9-2.3-0.9s-2.4,1.1-3.2,1.9S13.2,38.1,13.2,38.1s-1.2,1-1.2,2.3S13.2,42.9,13.2,42.9z"/>
</svg>
