<?xml version="1.0" encoding="utf-8"?>
<!-- Generator: Adobe Illustrator 25.4.1, SVG Export Plug-In . SVG Version: 6.00 Build 0)  -->
<svg version="1.1" id="Layer_1" xmlns="http://www.w3.org/2000/svg" xmlns:xlink="http://www.w3.org/1999/xlink" x="0px" y="0px"
	 viewBox="0 0 395.8 80" style="enable-background:new 0 0 395.8 80;" xml:space="preserve">
<style type="text/css">
	.st0{fill-rule:evenodd;clip-rule:evenodd;fill:#2D3657;}
	.st1{fill-rule:evenodd;clip-rule:evenodd;fill:#2C4274;}
	.st2{fill-rule:evenodd;clip-rule:evenodd;fill:#2A5D9D;}
	.st3{fill-rule:evenodd;clip-rule:evenodd;fill:#64A4D9;}
	.st4{fill-rule:evenodd;clip-rule:evenodd;fill:url(#SVGID_1_);}
	.st5{fill-rule:evenodd;clip-rule:evenodd;fill:url(#SVGID_00000122704589456594063180000008117321331937970835_);}
	.st6{fill-rule:evenodd;clip-rule:evenodd;fill:url(#SVGID_00000051359751187128357490000002380597926113651898_);}
	.st7{fill-rule:evenodd;clip-rule:evenodd;fill:url(#SVGID_00000091729708532848808130000015907136601643022266_);}
	.st8{fill-rule:evenodd;clip-rule:evenodd;fill:url(#SVGID_00000140013476742759275310000007267256246141359266_);}
	.st9{fill-rule:evenodd;clip-rule:evenodd;fill:url(#SVGID_00000142143325717191797680000010426702522271616673_);}
	.st10{fill-rule:evenodd;clip-rule:evenodd;fill:url(#SVGID_00000102533192432234792570000006079836293122452647_);}
	.st11{fill-rule:evenodd;clip-rule:evenodd;fill:url(#SVGID_00000099622898319590190780000000443756359486505867_);}
	.st12{fill-rule:evenodd;clip-rule:evenodd;fill:url(#SVGID_00000094585794959932092990000004328914434555501964_);}
	.st13{fill-rule:evenodd;clip-rule:evenodd;fill:url(#SVGID_00000161627464752939198520000005440792973407351222_);}
	.st14{fill-rule:evenodd;clip-rule:evenodd;fill:url(#SVGID_00000047765974008065403670000002950625829130539449_);}
	.st15{fill-rule:evenodd;clip-rule:evenodd;fill:url(#SVGID_00000163795399059532976400000004603815611121982095_);}
</style>
<g>
	<path class="st0" d="M118.2,24.4h10.5c0,0,4.1-2.7,1.4-10.3H94.9c0,0-3.3,3.6-1.1,10.1h7.8c0,0,2,0,3,1.5c1,1.5-0.5,7.1-1.1,9.4
		s-6.5,28.2-6.5,28.2s0.9,2.6,6.6,2.6c5.7,0,7-2.7,7-2.7L118.2,24.4z"/>
	<path class="st0" d="M123.4,33.3l-6.1,30.8c0,0,0.4,2.2,4.3,2.2c3.9,0,5.7-1.8,7.1-6.8c1.4-5.1,3.2-12.9,3.5-13.7
		c0.3-0.8,1.1-1.7,2.7-1.7s8,0,8,0s4.7-5.1,2-11.5c0,0-8.3-2.7-10.8,0.7C134.1,33.3,130.6,29.6,123.4,33.3z"/>
	<path class="st0" d="M372.6,33.3l-6.1,30.8c0,0,0.4,2.2,4.3,2.2s5.7-1.8,7.1-6.8c1.4-5.1,3.2-12.9,3.5-13.7
		c0.3-0.8,1.1-1.7,2.7-1.7c1.5,0,8,0,8,0s4.7-5.1,2-11.5c0,0-8.3-2.7-10.8,0.7C383.4,33.3,379.8,29.6,372.6,33.3z"/>
	<path class="st0" d="M152.2,33.3l-6.8,31.3c0,0,1.7,1.7,5.8,1.7c4.1,0,4.4-1.5,4.6-2.3s6-30.6,6-30.6S157.2,30.7,152.2,33.3z"/>
	<ellipse class="st0" cx="159.1" cy="23.7" rx="5.3" ry="3.4"/>
	<path class="st0" d="M356,33.3l-6.8,31.3c0,0,1.7,1.7,5.8,1.7c4.1,0,4.4-1.5,4.6-2.3c0.2-0.8,6-30.6,6-30.6S361,30.7,356,33.3z"/>
	<ellipse class="st0" cx="362.9" cy="23.7" rx="5.3" ry="3.4"/>
	<path class="st0" d="M182.7,34.4c-2.4-2.8-5.6-2.9-5.9-2.7c-5.4,0-9.7,7.3-10.9,12c-1.2,4.7-3.9,19.7,1.4,21.4
		c5.3,1.6,11-0.9,11-0.9c-1.2,7.8-4.5,8-6,8.3c-1.5,0.3-5.5,0.3-5.6-2.4c-0.2-2.6-3.4-2.1-3.4-2.1c-1.4,0.3-4.6,1.2-3.6,4.4
		c1,3.3,3.1,5.4,11.8,6.5c8.7,1.1,14-2.8,15.2-7.1c1.1-4.3,8-38.9,8-38.9C184.6,29.5,182.7,34.4,182.7,34.4z M180.1,53.3
		c-1.1,5-3.4,8.7-5.1,8.4c-1.7-0.4-2.3-4.7-1.2-9.7c1.1-5,3.4-8.7,5.1-8.4C180.6,43.9,181.1,48.3,180.1,53.3z"/>
	<path class="st0" d="M225.9,39.1c-0.1-2.3,0.3-6.8-7.1-6.8c-7.4,0-15.4,0-15.4,0s-6.5,1.3-4.8,9.6c0,0,10.7,0.1,13.1,0.5
		c2.4,0.4,2.6,3.2,1.1,4.7c0,0-9.7-4.1-16.1,3.8c-6.4,8-1.9,15.1,2.5,15.7c4.4,0.6,8.7-0.5,10.5-1.4c0,0,1.1,2.8,6.3,2.4
		c5.1-0.4,5.2-2.8,5.7-4.6C222.3,61.2,226,41.3,225.9,39.1z M210.7,56.8c0,0-2.3,0.1-3.5,0c-1.3-0.1-4.4,0.9-2.8-3.5
		c1.6-4.4,7.8-2.1,7.8-2.1C211.8,51.9,210.7,56.8,210.7,56.8z"/>
	<path class="st0" d="M290.2,39.1c-0.1-2.3,0.3-6.8-7.1-6.8s-15.4,0-15.4,0s-6.5,1.3-4.8,9.6c0,0,10.7,0.1,13.1,0.5
		c2.4,0.4,2.6,3.2,1.1,4.7c0,0-9.7-4.1-16.1,3.8c-6.4,8-1.9,15.1,2.5,15.7c4.4,0.6,8.7-0.5,10.5-1.4c0,0,1.1,2.8,6.3,2.4
		c5.1-0.4,5.2-2.8,5.7-4.6C286.5,61.2,290.2,41.3,290.2,39.1z M275,56.8c0,0-2.3,0.1-3.5,0s-4.4,0.9-2.8-3.5
		c1.6-4.4,7.8-2.1,7.8-2.1C276,51.9,275,56.8,275,56.8z"/>
	<path class="st0" d="M231.6,35c0,0.2-6.5,30.1-6.5,30.1s0.9,1.9,5.6,1.9c4.6,0,6.1-1.2,6.5-3.1c0.3-1.9,4.3-21,4.3-21
		s1.2-1,3.1-0.6c1.9,0.4,1,3.4,0.7,5.1c-0.3,1.7-3.7,16.9-3.7,16.9s1.1,2.8,5.8,2.8c4.6,0,6.6-1.4,6.8-3.3
		c0.3-1.8,3.8-27.7,3.8-27.7s-1.8-4.9-6.5-4.9s-7.5,2.9-7.5,2.9s-2.7-2.4-6.9-2.4C232.7,31.6,231.8,34,231.6,35z"/>
	<path class="st0" d="M343.5,16c-10.2-3.9-17.4,0-17.4,0l-22.3,50c6.7,3.3,12.9,1.1,13.9-0.8c1-1.9,3.8-9.4,3.8-9.4l10.4-0.2
		l-0.3,9.9c9.4,4.3,14.9-1,14.9-1L343.5,16z M331.4,51.9l-8.3-0.8c0.3-0.4,7.5-19.6,7.5-19.6h1.4L331.4,51.9z"/>
	<path class="st1" d="M22.2,0c0,0-5.4,0.9-2.6,2.8s8.7,4,8.7,4s3.3,0.5,5.8-1.7c2.5-2.2,2.2-2.5,4-2.5s5.3,0,5.3,0s4.6,0.8,8.9,4.9
		s25.2,25.6,25.2,25.6s2.2,2.1,2.2,5.9s-3.2,6.9-5.2,8.8c-2,1.9-24.1,24.6-24.1,24.6s-5,5-9.5,5s-10.6,0-10.6,0s-4.2-4.7-7.4-4.7
		s-6.4,3.8-6.4,4.2s-0.9,3,3,3s29.1,0,29.1,0s7.3,0.7,12.8-4.8s25.8-26.9,25.8-26.9s3.3-2.9,3.3-8.3s-2.3-7.5-4.3-9.8
		C84,27.8,62.4,4.1,62.4,4.1S59.2,0,53,0S22.2,0,22.2,0z"/>
	<path class="st2" d="M38.2,4c0,0-3.7,1.6-1.1,4.3c2.6,2.8,26.7,26.5,26.7,26.5s2.1,1.6,2.1,3.9c0,2.3-1.3,3.8-2.4,5
		C62.3,45,41.7,66,41.7,66s-1.7,1.6-4.1,1.6s-3.9-1.1-4.9-2.1c-1-1-20.6-21.2-20.6-21.2s-1.8-1.8-1.8-4.3s1-3.6,3-5.2l14.7-13.5
		c0,0,1.8-1.6,3.2-1.6c1.4,0,2.3,0.4,4.6,2.3S51,36.8,51,36.8s1.3,0.7,1.3,2.4c0,1.8-0.8,3-1.8,3.9S34.9,59,34.9,59
		s-2.2,2.1-0.7,3.8c1.5,1.7,2.6,2.3,2.6,2.3s1.8,1.7,5.1-1.6c3.3-3.3,20.1-20.6,20.1-20.6s1.4-1.2,1.4-3.4s-2-3.6-2-3.6L36,10.4
		c0,0-1.3-1.8-4.3-1.8s-11.4,8.5-17,13.5S4.1,31.8,4.1,31.8S0,35,0,40.6s3.5,7.7,6.3,10.7s22.4,22.2,22.4,22.2s2.4,2.8,7.7,2.8
		s7.4-1.3,10.3-4s28.8-28.1,28.8-28.1s2.2-1.9,2.2-5c0-3.1-2-5.3-3.9-7.2S49.6,7.6,49.6,7.6S44.8,3.3,38.2,4z"/>
	<path class="st3" d="M13.2,42.9l13.9,14.4c0,0,0.9,1.6,3.2,1.6s2.7-0.7,4.5-2.4s14-14,14-14s1.1-0.7,1.1-2.4s-1.3-3-1.3-3
		L33.8,22.8c0,0-1-0.9-2.3-0.9s-2.4,1.1-3.2,1.9S13.2,38.1,13.2,38.1s-1.2,1-1.2,2.3S13.2,42.9,13.2,42.9z"/>
	<linearGradient id="SVGID_1_" gradientUnits="userSpaceOnUse" x1="112.8047" y1="10.5289" x2="112.8047" y2="64.149">
		<stop  offset="2.740783e-04" style="stop-color:#62A1D6"/>
		<stop  offset="0.2016" style="stop-color:#609DD2"/>
		<stop  offset="0.3947" style="stop-color:#5992C7"/>
		<stop  offset="0.5838" style="stop-color:#4E7FB3"/>
		<stop  offset="0.7038" style="stop-color:#446FA3"/>
		<stop  offset="0.8417" style="stop-color:#3A5C8F"/>
		<stop  offset="1" style="stop-color:#2D4273"/>
	</linearGradient>
	<path class="st4" d="M119,23.5h10.5c0,0,4.1-2.7,1.4-10.3H95.7c0,0-3.3,3.6-1.1,10.1h7.8c0,0,2,0,3,1.5c1,1.5-0.5,7.1-1.1,9.4
		s-6.5,28.2-6.5,28.2s0.9,2.6,6.6,2.6c5.7,0,7-2.7,7-2.7L119,23.5z"/>
	
		<linearGradient id="SVGID_00000111172411135558275790000012740353315386866326_" gradientUnits="userSpaceOnUse" x1="132.2933" y1="10.5289" x2="132.2933" y2="64.149">
		<stop  offset="2.740783e-04" style="stop-color:#62A1D6"/>
		<stop  offset="0.2016" style="stop-color:#609DD2"/>
		<stop  offset="0.3947" style="stop-color:#5992C7"/>
		<stop  offset="0.5838" style="stop-color:#4E7FB3"/>
		<stop  offset="0.7038" style="stop-color:#446FA3"/>
		<stop  offset="0.8417" style="stop-color:#3A5C8F"/>
		<stop  offset="1" style="stop-color:#2D4273"/>
	</linearGradient>
	<path style="fill-rule:evenodd;clip-rule:evenodd;fill:url(#SVGID_00000111172411135558275790000012740353315386866326_);" d="
		M124.1,32.5l-6.1,30.8c0,0,0.4,2.2,4.3,2.2c3.9,0,5.7-1.8,7.1-6.8s3.2-12.9,3.5-13.7c0.3-0.8,1.1-1.7,2.7-1.7c1.5,0,8,0,8,0
		s4.7-5.1,2-11.5c0,0-8.3-2.7-10.8,0.7C134.9,32.4,131.3,28.7,124.1,32.5z"/>
	
		<linearGradient id="SVGID_00000142162208208464763430000001466366469458856878_" gradientUnits="userSpaceOnUse" x1="381.5351" y1="10.5289" x2="381.5351" y2="64.149">
		<stop  offset="2.740783e-04" style="stop-color:#62A1D6"/>
		<stop  offset="0.2016" style="stop-color:#609DD2"/>
		<stop  offset="0.3947" style="stop-color:#5992C7"/>
		<stop  offset="0.5838" style="stop-color:#4E7FB3"/>
		<stop  offset="0.7038" style="stop-color:#446FA3"/>
		<stop  offset="0.8417" style="stop-color:#3A5C8F"/>
		<stop  offset="1" style="stop-color:#2D4273"/>
	</linearGradient>
	<path style="fill-rule:evenodd;clip-rule:evenodd;fill:url(#SVGID_00000142162208208464763430000001466366469458856878_);" d="
		M373.4,32.5l-6.1,30.8c0,0,0.4,2.2,4.3,2.2c3.9,0,5.7-1.8,7.1-6.8s3.2-12.9,3.5-13.7c0.3-0.8,1.1-1.7,2.7-1.7c1.5,0,8,0,8,0
		s4.7-5.1,2-11.5c0,0-8.3-2.7-10.8,0.7C384.1,32.4,380.6,28.7,373.4,32.5z"/>
	
		<linearGradient id="SVGID_00000168818343317829683950000010103576295550150564_" gradientUnits="userSpaceOnUse" x1="154.3395" y1="10.5289" x2="154.3395" y2="64.149">
		<stop  offset="2.740783e-04" style="stop-color:#62A1D6"/>
		<stop  offset="0.2016" style="stop-color:#609DD2"/>
		<stop  offset="0.3947" style="stop-color:#5992C7"/>
		<stop  offset="0.5838" style="stop-color:#4E7FB3"/>
		<stop  offset="0.7038" style="stop-color:#446FA3"/>
		<stop  offset="0.8417" style="stop-color:#3A5C8F"/>
		<stop  offset="1" style="stop-color:#2D4273"/>
	</linearGradient>
	<path style="fill-rule:evenodd;clip-rule:evenodd;fill:url(#SVGID_00000168818343317829683950000010103576295550150564_);" d="
		M152.9,32.5l-6.8,31.3c0,0,1.7,1.7,5.8,1.7s4.4-1.5,4.6-2.3c0.2-0.8,6-30.6,6-30.6S158,29.9,152.9,32.5z"/>
	
		<linearGradient id="SVGID_00000128459257788988599100000000522014280763473577_" gradientUnits="userSpaceOnUse" x1="159.8129" y1="10.5289" x2="159.8129" y2="64.149">
		<stop  offset="2.740783e-04" style="stop-color:#62A1D6"/>
		<stop  offset="0.2016" style="stop-color:#609DD2"/>
		<stop  offset="0.3947" style="stop-color:#5992C7"/>
		<stop  offset="0.5838" style="stop-color:#4E7FB3"/>
		<stop  offset="0.7038" style="stop-color:#446FA3"/>
		<stop  offset="0.8417" style="stop-color:#3A5C8F"/>
		<stop  offset="1" style="stop-color:#2D4273"/>
	</linearGradient>
	
		<ellipse style="fill-rule:evenodd;clip-rule:evenodd;fill:url(#SVGID_00000128459257788988599100000000522014280763473577_);" cx="159.8" cy="22.9" rx="5.3" ry="3.4"/>
	
		<linearGradient id="SVGID_00000120551418386161258970000016153792537883197851_" gradientUnits="userSpaceOnUse" x1="358.1498" y1="10.5289" x2="358.1498" y2="64.149">
		<stop  offset="2.740783e-04" style="stop-color:#62A1D6"/>
		<stop  offset="0.2016" style="stop-color:#609DD2"/>
		<stop  offset="0.3947" style="stop-color:#5992C7"/>
		<stop  offset="0.5838" style="stop-color:#4E7FB3"/>
		<stop  offset="0.7038" style="stop-color:#446FA3"/>
		<stop  offset="0.8417" style="stop-color:#3A5C8F"/>
		<stop  offset="1" style="stop-color:#2D4273"/>
	</linearGradient>
	<path style="fill-rule:evenodd;clip-rule:evenodd;fill:url(#SVGID_00000120551418386161258970000016153792537883197851_);" d="
		M356.8,32.5L350,63.8c0,0,1.7,1.7,5.8,1.7s4.4-1.5,4.6-2.3c0.2-0.8,6-30.6,6-30.6S361.8,29.9,356.8,32.5z"/>
	
		<linearGradient id="SVGID_00000173861522970630176770000012686859689735331232_" gradientUnits="userSpaceOnUse" x1="363.6232" y1="10.5289" x2="363.6232" y2="64.149">
		<stop  offset="2.740783e-04" style="stop-color:#62A1D6"/>
		<stop  offset="0.2016" style="stop-color:#609DD2"/>
		<stop  offset="0.3947" style="stop-color:#5992C7"/>
		<stop  offset="0.5838" style="stop-color:#4E7FB3"/>
		<stop  offset="0.7038" style="stop-color:#446FA3"/>
		<stop  offset="0.8417" style="stop-color:#3A5C8F"/>
		<stop  offset="1" style="stop-color:#2D4273"/>
	</linearGradient>
	
		<ellipse style="fill-rule:evenodd;clip-rule:evenodd;fill:url(#SVGID_00000173861522970630176770000012686859689735331232_);" cx="363.6" cy="22.9" rx="5.3" ry="3.4"/>
	
		<linearGradient id="SVGID_00000052826813177561676450000005863838678171665853_" gradientUnits="userSpaceOnUse" x1="177.8712" y1="10.5289" x2="177.8712" y2="64.149">
		<stop  offset="2.740783e-04" style="stop-color:#62A1D6"/>
		<stop  offset="0.2016" style="stop-color:#609DD2"/>
		<stop  offset="0.3947" style="stop-color:#5992C7"/>
		<stop  offset="0.5838" style="stop-color:#4E7FB3"/>
		<stop  offset="0.7038" style="stop-color:#446FA3"/>
		<stop  offset="0.8417" style="stop-color:#3A5C8F"/>
		<stop  offset="1" style="stop-color:#2D4273"/>
	</linearGradient>
	<path style="fill-rule:evenodd;clip-rule:evenodd;fill:url(#SVGID_00000052826813177561676450000005863838678171665853_);" d="
		M183.5,33.6c-2.4-2.8-5.6-2.9-5.9-2.7c-5.4,0-9.7,7.3-10.9,12c-1.2,4.7-3.9,19.7,1.4,21.4c5.3,1.6,11-0.9,11-0.9
		c-1.2,7.8-4.5,8-6,8.3s-5.5,0.3-5.6-2.4c-0.2-2.6-3.4-2.1-3.4-2.1c-1.4,0.3-4.6,1.2-3.6,4.4c1,3.3,3.1,5.4,11.8,6.5
		c8.7,1.1,14-2.8,15.2-7.1c1.1-4.3,8-38.9,8-38.9C185.4,28.7,183.5,33.6,183.5,33.6z M180.8,52.4c-1.1,5-3.4,8.7-5.1,8.4
		c-1.7-0.4-2.3-4.7-1.2-9.7s3.4-8.7,5.1-8.4C181.4,43.1,181.9,47.4,180.8,52.4z"/>
	
		<linearGradient id="SVGID_00000060025157375046198020000009780152285852212114_" gradientUnits="userSpaceOnUse" x1="210.503" y1="10.5289" x2="210.503" y2="64.149">
		<stop  offset="2.740783e-04" style="stop-color:#62A1D6"/>
		<stop  offset="0.2016" style="stop-color:#609DD2"/>
		<stop  offset="0.3947" style="stop-color:#5992C7"/>
		<stop  offset="0.5838" style="stop-color:#4E7FB3"/>
		<stop  offset="0.7038" style="stop-color:#446FA3"/>
		<stop  offset="0.8417" style="stop-color:#3A5C8F"/>
		<stop  offset="1" style="stop-color:#2D4273"/>
	</linearGradient>
	<path style="fill-rule:evenodd;clip-rule:evenodd;fill:url(#SVGID_00000060025157375046198020000009780152285852212114_);" d="
		M226.7,38.2c-0.1-2.3,0.3-6.8-7.1-6.8s-15.4,0-15.4,0s-6.5,1.3-4.8,9.6c0,0,10.7,0.1,13.1,0.5c2.4,0.4,2.6,3.2,1.1,4.7
		c0,0-9.7-4.1-16.1,3.8c-6.4,8-1.9,15.1,2.5,15.7c4.4,0.6,8.7-0.5,10.5-1.4c0,0,1.1,2.8,6.3,2.4c5.1-0.4,5.2-2.8,5.7-4.6
		C223,60.4,226.7,40.5,226.7,38.2z M211.5,56c0,0-2.3,0.1-3.5,0s-4.4,0.9-2.8-3.5c1.6-4.4,7.8-2.1,7.8-2.1
		C212.6,51.1,211.5,56,211.5,56z"/>
	
		<linearGradient id="SVGID_00000090277587615216804960000001812778166771226535_" gradientUnits="userSpaceOnUse" x1="274.7421" y1="10.5289" x2="274.7421" y2="64.149">
		<stop  offset="2.740783e-04" style="stop-color:#62A1D6"/>
		<stop  offset="0.2016" style="stop-color:#609DD2"/>
		<stop  offset="0.3947" style="stop-color:#5992C7"/>
		<stop  offset="0.5838" style="stop-color:#4E7FB3"/>
		<stop  offset="0.7038" style="stop-color:#446FA3"/>
		<stop  offset="0.8417" style="stop-color:#3A5C8F"/>
		<stop  offset="1" style="stop-color:#2D4273"/>
	</linearGradient>
	<path style="fill-rule:evenodd;clip-rule:evenodd;fill:url(#SVGID_00000090277587615216804960000001812778166771226535_);" d="
		M290.9,38.2c-0.1-2.3,0.3-6.8-7.1-6.8c-7.4,0-15.4,0-15.4,0s-6.5,1.3-4.8,9.6c0,0,10.7,0.1,13.1,0.5c2.4,0.4,2.6,3.2,1.1,4.7
		c0,0-9.7-4.1-16.1,3.8c-6.4,8-1.9,15.1,2.5,15.7c4.4,0.6,8.7-0.5,10.5-1.4c0,0,1.1,2.8,6.3,2.4c5.1-0.4,5.2-2.8,5.7-4.6
		C287.3,60.4,291,40.5,290.9,38.2z M275.7,56c0,0-2.3,0.1-3.5,0c-1.3-0.1-4.4,0.9-2.8-3.5c1.6-4.4,7.8-2.1,7.8-2.1
		C276.8,51.1,275.7,56,275.7,56z"/>
	
		<linearGradient id="SVGID_00000173854964537669533590000009405791412402886303_" gradientUnits="userSpaceOnUse" x1="242.2148" y1="10.5289" x2="242.2148" y2="64.149">
		<stop  offset="2.740783e-04" style="stop-color:#62A1D6"/>
		<stop  offset="0.2016" style="stop-color:#609DD2"/>
		<stop  offset="0.3947" style="stop-color:#5992C7"/>
		<stop  offset="0.5838" style="stop-color:#4E7FB3"/>
		<stop  offset="0.7038" style="stop-color:#446FA3"/>
		<stop  offset="0.8417" style="stop-color:#3A5C8F"/>
		<stop  offset="1" style="stop-color:#2D4273"/>
	</linearGradient>
	<path style="fill-rule:evenodd;clip-rule:evenodd;fill:url(#SVGID_00000173854964537669533590000009405791412402886303_);" d="
		M232.3,34.2c0,0.2-6.5,30.1-6.5,30.1s0.9,1.9,5.6,1.9c4.6,0,6.1-1.2,6.5-3.1c0.3-1.9,4.3-21,4.3-21s1.2-1,3.1-0.6
		c1.9,0.4,1,3.4,0.7,5.1c-0.3,1.7-3.7,16.9-3.7,16.9s1.1,2.8,5.8,2.8c4.6,0,6.6-1.4,6.8-3.3c0.3-1.8,3.8-27.7,3.8-27.7
		s-1.8-4.9-6.5-4.9c-4.7,0-7.5,2.9-7.5,2.9s-2.7-2.4-6.9-2.4C233.5,30.8,232.5,33.2,232.3,34.2z"/>
	
		<linearGradient id="SVGID_00000062165666759755930600000005791241412856271033_" gradientUnits="userSpaceOnUse" x1="325.8735" y1="10.5289" x2="325.8735" y2="64.149">
		<stop  offset="2.740783e-04" style="stop-color:#62A1D6"/>
		<stop  offset="0.2016" style="stop-color:#609DD2"/>
		<stop  offset="0.3947" style="stop-color:#5992C7"/>
		<stop  offset="0.5838" style="stop-color:#4E7FB3"/>
		<stop  offset="0.7038" style="stop-color:#446FA3"/>
		<stop  offset="0.8417" style="stop-color:#3A5C8F"/>
		<stop  offset="1" style="stop-color:#2D4273"/>
	</linearGradient>
	<path style="fill-rule:evenodd;clip-rule:evenodd;fill:url(#SVGID_00000062165666759755930600000005791241412856271033_);" d="
		M344.3,15.1c-10.2-3.9-17.4,0-17.4,0l-22.3,50c6.7,3.3,12.9,1.1,13.9-0.8c1-1.9,3.8-9.4,3.8-9.4l10.4-0.2l-0.3,9.9
		c9.4,4.3,14.9-1,14.9-1L344.3,15.1z M332.1,51.1l-8.3-0.8c0.3-0.4,7.5-19.6,7.5-19.6h1.4L332.1,51.1z"/>
</g>
</svg>
