<?xml version="1.0" encoding="utf-8"?>
<!-- Generator: Adobe Illustrator 25.4.1, SVG Export Plug-In . SVG Version: 6.00 Build 0)  -->
<svg version="1.1" id="Layer_1" xmlns="http://www.w3.org/2000/svg" xmlns:xlink="http://www.w3.org/1999/xlink" x="0px" y="0px"
	 viewBox="0 0 62.44 80" style="enable-background:new 0 0 62.44 80;" xml:space="preserve">
<style type="text/css">
	.st0{fill:#2AABE8;}
</style>
<g>
	<path class="st0" d="M32.33,45.81c0,0-4.91-10.29,2.96-23.15S60.07,0,60.07,0L3.96,18.92L32.33,45.81z"/>
	<g>
		<rect x="4.35" y="49.36" width="0.97" height="11.4"/>
		<rect x="12.52" y="68.38" width="0.97" height="11.4"/>
		<polygon points="27.07,68.38 26.1,68.38 26.1,79.78 27.07,79.78 31.44,79.78 31.44,78.7 27.07,78.7 		"/>
		<rect x="33.1" y="68.38" width="0.97" height="11.4"/>
		<polygon points="44.67,76.93 37.88,69.39 36.91,68.38 36.91,79.78 37.88,79.78 37.88,71.82 44.67,78.84 45.64,79.78 45.64,68.38 
			44.67,68.38 		"/>
		<path d="M19.73,74.48c0.97-0.07,3.64,0.03,3.64-3.12c0-3.15-2.56-2.98-2.56-2.98h-3.26h-0.97v11.4h0.97V74.6
			c0.17-0.01,0.41-0.02,0.68-0.03c0.94,1.15,4.1,5.21,4.1,5.21h1.42l-4.06-5.3C19.7,74.48,19.71,74.48,19.73,74.48z M17.55,73.51
			V69.6l1.63-0.11c0,0,3.08-0.33,3.08,1.77s-1.35,1.91-2.08,2.08C19.6,73.47,18.13,73.5,17.55,73.51z"/>
		<polygon points="48.65,68.38 48.65,69.56 48.65,73.31 48.65,74.23 48.65,78.65 48.65,79.78 48.65,79.83 54.89,79.83 54.89,78.65 
			49.62,78.65 49.62,74.23 54.89,74.23 54.89,73.31 49.62,73.31 49.62,69.56 54.89,69.56 54.89,68.38 49.62,68.38 		"/>
		<polygon points="29.68,49.36 29.68,50.54 29.68,54.29 29.68,55.21 29.68,59.64 29.68,60.76 29.68,60.81 35.91,60.81 35.91,59.64 
			30.65,59.64 30.65,55.21 35.91,55.21 35.91,54.29 30.65,54.29 30.65,50.54 35.91,50.54 35.91,49.36 30.65,49.36 		"/>
		<path d="M39.17,55.59c0.17-0.01,0.41-0.02,0.68-0.03c0.94,1.15,4.1,5.21,4.1,5.21h1.42l-4.06-5.3c0.01,0,0.03,0,0.04,0
			c0.97-0.07,3.64,0.03,3.64-3.12c0-3.15-2.56-2.98-2.56-2.98h-3.26H38.2v11.4h0.97V55.59z M39.17,50.58l1.63-0.11
			c0,0,3.08-0.33,3.08,1.77c0,2.1-1.35,1.91-2.08,2.08c-0.58,0.14-2.05,0.17-2.63,0.17V50.58z"/>
		<path d="M11.49,55.46c0.97-0.07,3.64,0.03,3.64-3.12c0-3.15-2.56-2.98-2.56-2.98H9.31H8.34v11.4h0.97v-5.17
			c0.17-0.01,0.41-0.02,0.68-0.03c0.94,1.15,4.1,5.21,4.1,5.21h1.42l-4.06-5.3C11.47,55.46,11.48,55.46,11.49,55.46z M9.31,54.49
			v-3.91l1.63-0.11c0,0,3.08-0.33,3.08,1.77c0,2.1-1.35,1.91-2.08,2.08C11.37,54.46,9.89,54.48,9.31,54.49z"/>
		<path d="M53.26,61.09c3.36,0,6.08-2.69,6.08-6s-2.72-6-6.08-6c-3.36,0-6.08,2.69-6.08,6S49.9,61.09,53.26,61.09z M50.55,50.87
			c1.86-1.19,5.24-0.8,6.74,1.48c1.5,2.28,0.53,5.68-1.32,6.77c-2.29,1.36-5.3,1.01-6.79-1.27C47.68,55.57,48.31,52.31,50.55,50.87z
			"/>
		<path d="M27.76,60.76l-5.28-11.4h-0.36l-5.4,11.45h1.39l1.87-3.79h4.61l2.01,3.74H27.76z M20.28,56.08
			c0.02-0.03,1.96-4.17,1.96-4.17l1.98,4.17H20.28z"/>
		<path d="M5.4,68.38L0,79.83h1.39l1.87-3.79h4.61l2.01,3.74h1.18l-5.28-11.4H5.4z M3.57,75.09c0.02-0.03,1.96-4.17,1.96-4.17
			l1.98,4.17H3.57z"/>
		<path d="M60.9,73.89c-1.14-1.02-3.06-1.94-3.06-3.06c0-1.12,0.81-1.6,1.6-1.6c0.8,0,1.51,0.4,2.13,1.37l0.78-0.57
			c0,0-1.11-1.82-3.08-1.82c-1.97,0-2.65,1.77-2.65,2.56c0,0.8,0.31,1.73,1.84,2.77c1.52,1.04,2.96,2.2,2.96,3.71
			c0,1.51-1.73,1.73-2.06,1.73c-0.33,0-1.59,0.02-2.39-1.85l-0.92,0.45c0,0,0.95,2.42,3.38,2.42c2.42,0,3.01-2.14,3.01-3.03
			C62.44,76.09,62.04,74.91,60.9,73.89z"/>
	</g>
</g>
</svg>
