<?xml version="1.0" encoding="utf-8"?>
<!-- Generator: Adobe Illustrator 25.4.1, SVG Export Plug-In . SVG Version: 6.00 Build 0)  -->
<svg version="1.1" id="Layer_1" xmlns="http://www.w3.org/2000/svg" xmlns:xlink="http://www.w3.org/1999/xlink" x="0px" y="0px"
	 viewBox="0 0 99.7 80" style="enable-background:new 0 0 99.7 80;" xml:space="preserve">
<style type="text/css">
	.st0{fill:#00B5D8;}
	.st1{fill:#A31781;}
	.st2{fill:#FFD600;}
	.st3{fill:#006AB4;}
</style>
<g>
	<path class="st0" d="M15.7,29.3c0,1.6-0.5,3.1-1.3,4.4c-0.9,1.3-2.1,2.3-3.5,2.9c-1.4,0.6-3,0.8-4.5,0.5c-1.5-0.3-2.9-1.1-4-2.2
		c-1.1-1.1-1.8-2.5-2.2-4.1c-0.3-1.6-0.1-3.2,0.4-4.6c0.6-1.5,1.6-2.7,2.9-3.6c1.3-0.9,2.8-1.3,4.4-1.3c1,0,2.1,0.2,3,0.6
		c1,0.4,1.8,1,2.6,1.7c0.7,0.7,1.3,1.6,1.7,2.6C15.5,27.3,15.7,28.3,15.7,29.3"/>
	<path class="st1" d="M36.7,29.3c0,1.6-0.5,3.1-1.3,4.4c-0.9,1.3-2.1,2.3-3.5,2.9c-1.4,0.6-3,0.8-4.5,0.5c-1.5-0.3-2.9-1.1-4-2.2
		c-1.1-1.1-1.9-2.5-2.2-4.1c-0.3-1.6-0.1-3.2,0.4-4.6c0.6-1.5,1.6-2.7,2.9-3.6c1.3-0.9,2.8-1.3,4.4-1.3c1,0,2.1,0.2,3,0.6
		c1,0.4,1.8,1,2.6,1.7c0.7,0.7,1.3,1.6,1.7,2.6C36.5,27.3,36.7,28.3,36.7,29.3"/>
	<path class="st1" d="M57.7,8c0,1.6-0.5,3.1-1.3,4.4c-0.9,1.3-2.1,2.3-3.5,2.9c-1.4,0.6-3,0.8-4.5,0.5c-1.5-0.3-2.9-1.1-4-2.2
		c-1.1-1.1-1.9-2.5-2.2-4.1C41.8,8,42,6.4,42.6,4.9c0.6-1.5,1.6-2.7,2.9-3.6C46.8,0.5,48.3,0,49.8,0c2.1,0,4.1,0.8,5.6,2.3
		C56.9,3.8,57.7,5.9,57.7,8z"/>
	<path class="st0" d="M78.7,8c0,1.6-0.5,3.1-1.3,4.4c-0.9,1.3-2.1,2.3-3.5,2.9c-1.4,0.6-3,0.8-4.5,0.5c-1.5-0.3-2.9-1.1-4-2.2
		c-1.1-1.1-1.9-2.5-2.2-4.1C62.8,8,63,6.4,63.6,4.9c0.6-1.5,1.6-2.7,2.9-3.6S69.3,0,70.8,0c2.1,0,4.1,0.8,5.6,2.3
		C77.9,3.8,78.7,5.9,78.7,8z"/>
	<path class="st2" d="M57.7,29.3c0,1.6-0.5,3.1-1.3,4.4c-0.9,1.3-2.1,2.3-3.5,2.9c-1.4,0.6-3,0.8-4.5,0.5c-1.5-0.3-2.9-1.1-4-2.2
		c-1.1-1.1-1.8-2.5-2.2-4.1c-0.3-1.6-0.1-3.2,0.4-4.6c0.6-1.5,1.6-2.7,2.9-3.6c1.3-0.9,2.8-1.3,4.4-1.3c1,0,2.1,0.2,3,0.6
		c1,0.4,1.8,1,2.6,1.7c0.7,0.7,1.3,1.6,1.7,2.6C57.5,27.3,57.7,28.3,57.7,29.3"/>
	<path class="st3" d="M78.7,29.3c0,1.6-0.5,3.1-1.3,4.4c-0.9,1.3-2.1,2.3-3.5,2.9c-1.4,0.6-3,0.8-4.5,0.5c-1.5-0.3-2.9-1.1-4-2.2
		c-1.1-1.1-1.9-2.5-2.2-4.1c-0.3-1.6-0.1-3.2,0.4-4.6c0.6-1.5,1.6-2.7,2.9-3.6c1.3-0.9,2.8-1.3,4.4-1.3c1,0,2.1,0.2,3,0.6
		c1,0.4,1.8,1,2.6,1.7c0.7,0.7,1.3,1.6,1.7,2.6C78.5,27.3,78.7,28.3,78.7,29.3"/>
	<path class="st3" d="M36.7,50.7c0,1.6-0.5,3.1-1.3,4.4c-0.9,1.3-2.1,2.3-3.5,2.9c-1.4,0.6-3,0.8-4.5,0.5c-1.5-0.3-2.9-1.1-4-2.2
		c-1.1-1.1-1.9-2.5-2.2-4.1c-0.3-1.6-0.1-3.2,0.4-4.6c0.6-1.5,1.6-2.7,2.9-3.6c1.3-0.9,2.8-1.3,4.4-1.3c2.1,0,4.1,0.8,5.6,2.3
		C35.9,46.5,36.7,48.6,36.7,50.7z"/>
	<path class="st0" d="M57.7,50.7c0,1.6-0.5,3.1-1.3,4.4c-0.9,1.3-2.1,2.3-3.5,2.9c-1.4,0.6-3,0.8-4.5,0.5c-1.5-0.3-2.9-1.1-4-2.2
		c-1.1-1.1-1.9-2.5-2.2-4.1c-0.3-1.6-0.1-3.2,0.4-4.6c0.6-1.5,1.6-2.7,2.9-3.6c1.3-0.9,2.8-1.3,4.4-1.3c2.1,0,4.1,0.8,5.6,2.3
		C56.9,46.5,57.7,48.6,57.7,50.7z"/>
	<path class="st2" d="M78.7,50.7c0,1.6-0.5,3.1-1.3,4.4c-0.9,1.3-2.1,2.3-3.5,2.9c-1.4,0.6-3,0.8-4.5,0.5c-1.5-0.3-2.9-1.1-4-2.2
		c-1.1-1.1-1.9-2.5-2.2-4.1c-0.3-1.6-0.1-3.2,0.4-4.6c0.6-1.5,1.6-2.7,2.9-3.6c1.3-0.9,2.8-1.3,4.4-1.3c2.1,0,4.1,0.8,5.6,2.3
		C77.9,46.5,78.7,48.6,78.7,50.7z"/>
	<path class="st1" d="M57.7,72c0,1.6-0.5,3.1-1.3,4.4c-0.9,1.3-2.1,2.3-3.5,2.9c-1.4,0.6-3,0.8-4.5,0.4c-1.5-0.3-2.9-1.1-4-2.2
		c-1.1-1.1-1.8-2.5-2.2-4.1c-0.3-1.6-0.1-3.2,0.5-4.6c0.6-1.5,1.6-2.7,2.9-3.6c1.3-0.9,2.8-1.3,4.4-1.3c1,0,2.1,0.2,3,0.6
		c1,0.4,1.8,1,2.6,1.7c0.7,0.7,1.3,1.6,1.7,2.6C57.5,69.9,57.7,71,57.7,72z"/>
	<path class="st3" d="M78.7,72c0,1.6-0.5,3.1-1.3,4.4c-0.9,1.3-2.1,2.3-3.5,2.9c-1.4,0.6-3,0.8-4.5,0.4c-1.5-0.3-2.9-1.1-4-2.2
		c-1.1-1.1-1.8-2.5-2.1-4.1c-0.3-1.6-0.1-3.2,0.4-4.6c0.6-1.5,1.6-2.7,2.9-3.6c1.3-0.9,2.8-1.3,4.4-1.3c1,0,2.1,0.2,3,0.6
		c1,0.4,1.8,1,2.6,1.7c0.7,0.7,1.3,1.6,1.7,2.6C78.5,69.9,78.7,71,78.7,72z"/>
	<path class="st0" d="M99.7,29.3c0,1.6-0.5,3.1-1.3,4.4c-0.9,1.3-2.1,2.3-3.5,2.9s-3,0.8-4.5,0.5c-1.5-0.3-2.9-1.1-4-2.2
		c-1.1-1.1-1.9-2.5-2.2-4.1c-0.3-1.6-0.1-3.2,0.4-4.6c0.6-1.5,1.6-2.7,2.9-3.6c1.3-0.9,2.8-1.3,4.4-1.3c1,0,2.1,0.2,3,0.6
		c1,0.4,1.8,1,2.6,1.7c0.7,0.7,1.3,1.6,1.7,2.6C99.5,27.3,99.7,28.3,99.7,29.3"/>
	<path class="st1" d="M99.7,50.7c0,1.6-0.5,3.1-1.3,4.4c-0.9,1.3-2.1,2.3-3.5,2.9c-1.4,0.6-3,0.8-4.5,0.5c-1.5-0.3-2.9-1.1-4-2.2
		c-1.1-1.1-1.9-2.5-2.2-4.1c-0.3-1.6-0.1-3.2,0.4-4.6c0.6-1.5,1.6-2.7,2.9-3.6c1.3-0.9,2.8-1.3,4.4-1.3c2.1,0,4.1,0.8,5.6,2.3
		C98.9,46.5,99.7,48.6,99.7,50.7z"/>
</g>
</svg>
