<?xml version="1.0" encoding="utf-8"?>
<!-- Generator: Adobe Illustrator 25.4.1, SVG Export Plug-In . SVG Version: 6.00 Build 0)  -->
<svg version="1.1" id="Layer_1" xmlns="http://www.w3.org/2000/svg" xmlns:xlink="http://www.w3.org/1999/xlink" x="0px" y="0px"
	 viewBox="0 0 205.2 80" style="enable-background:new 0 0 205.2 80;" xml:space="preserve">
<style type="text/css">
	.st0{fill:#00B5D8;}
	.st1{fill:#A31781;}
	.st2{fill:#FFD600;}
	.st3{fill:#006AB4;}
	.st4{fill:#192A67;}
</style>
<g>
	<path class="st0" d="M127.8,27.1c0,1.5-0.4,2.9-1.2,4.1c-0.8,1.2-1.9,2.2-3.3,2.7c-1.3,0.6-2.8,0.7-4.2,0.4c-1.4-0.3-2.7-1-3.7-2
		c-1-1-1.7-2.3-2-3.8c-0.3-1.4-0.1-2.9,0.4-4.3c0.5-1.3,1.5-2.5,2.7-3.3c1.2-0.8,2.6-1.2,4-1.2c1,0,1.9,0.2,2.8,0.6
		c0.9,0.4,1.7,0.9,2.4,1.6c0.7,0.7,1.2,1.5,1.6,2.4C127.6,25.1,127.8,26.1,127.8,27.1"/>
	<path class="st1" d="M147.1,27.1c0,1.5-0.4,2.9-1.2,4.1s-1.9,2.2-3.3,2.7c-1.3,0.6-2.8,0.7-4.2,0.4c-1.4-0.3-2.7-1-3.7-2
		c-1-1-1.7-2.3-2-3.8c-0.3-1.4-0.1-2.9,0.4-4.3c0.6-1.3,1.5-2.5,2.7-3.3c1.2-0.8,2.6-1.2,4-1.2c1,0,1.9,0.2,2.8,0.6
		c0.9,0.4,1.7,0.9,2.4,1.6c0.7,0.7,1.2,1.5,1.6,2.4C147,25.1,147.1,26.1,147.1,27.1"/>
	<path class="st1" d="M166.5,7.4c0,1.5-0.4,2.9-1.2,4.1c-0.8,1.2-1.9,2.2-3.3,2.7c-1.3,0.6-2.8,0.7-4.2,0.4c-1.4-0.3-2.7-1-3.7-2
		c-1-1-1.7-2.3-2-3.8c-0.3-1.4-0.1-2.9,0.4-4.3c0.5-1.3,1.5-2.5,2.7-3.3c1.2-0.8,2.6-1.2,4-1.2c1.9,0,3.8,0.8,5.1,2.2
		C165.7,3.5,166.5,5.4,166.5,7.4z"/>
	<path class="st0" d="M185.9,7.4c0,1.5-0.4,2.9-1.2,4.1c-0.8,1.2-1.9,2.2-3.3,2.7c-1.3,0.6-2.8,0.7-4.2,0.4c-1.4-0.3-2.7-1-3.7-2
		c-1-1-1.7-2.3-2-3.8c-0.3-1.4-0.1-2.9,0.4-4.3c0.5-1.3,1.5-2.5,2.7-3.3s2.6-1.2,4-1.2c1.9,0,3.8,0.8,5.1,2.2
		C185.1,3.5,185.9,5.4,185.9,7.4z"/>
	<path class="st2" d="M166.5,27.1c0,1.5-0.4,2.9-1.2,4.1s-1.9,2.2-3.3,2.7c-1.3,0.6-2.8,0.7-4.2,0.4c-1.4-0.3-2.7-1-3.7-2
		c-1-1-1.7-2.3-2-3.8c-0.3-1.4-0.1-2.9,0.4-4.3c0.5-1.3,1.5-2.5,2.7-3.3c1.2-0.8,2.6-1.2,4-1.2c1,0,1.9,0.2,2.8,0.6
		c0.9,0.4,1.7,0.9,2.4,1.6c0.7,0.7,1.2,1.5,1.6,2.4C166.3,25.1,166.5,26.1,166.5,27.1"/>
	<path class="st3" d="M185.9,27.1c0,1.5-0.4,2.9-1.2,4.1s-1.9,2.2-3.3,2.7c-1.3,0.6-2.8,0.7-4.2,0.4c-1.4-0.3-2.7-1-3.7-2
		c-1-1-1.7-2.3-2-3.8c-0.3-1.4-0.1-2.9,0.4-4.3c0.5-1.3,1.5-2.5,2.7-3.3c1.2-0.8,2.6-1.2,4-1.2c1,0,1.9,0.2,2.8,0.6
		c0.9,0.4,1.7,0.9,2.4,1.6c0.7,0.7,1.2,1.5,1.6,2.4C185.7,25.1,185.9,26.1,185.9,27.1"/>
	<path class="st3" d="M147.1,46.7c0,1.5-0.4,2.9-1.2,4.1c-0.8,1.2-1.9,2.2-3.3,2.7c-1.3,0.6-2.8,0.7-4.2,0.4c-1.4-0.3-2.7-1-3.7-2
		c-1-1-1.7-2.3-2-3.8c-0.3-1.4-0.1-2.9,0.4-4.3s1.5-2.5,2.7-3.3c1.2-0.8,2.6-1.2,4-1.2c1.9,0,3.8,0.8,5.1,2.2
		C146.4,42.9,147.1,44.8,147.1,46.7z"/>
	<path class="st2" d="M127.8,66.4c0,1.5-0.4,2.9-1.2,4.1c-0.8,1.2-1.9,2.2-3.3,2.7c-1.3,0.6-2.8,0.7-4.2,0.4c-1.4-0.3-2.7-1-3.7-2
		c-1-1-1.7-2.3-2-3.8c-0.3-1.4-0.1-2.9,0.4-4.3c0.5-1.3,1.5-2.5,2.7-3.3c1.2-0.8,2.6-1.2,4-1.2c1,0,1.9,0.2,2.8,0.6
		c0.9,0.4,1.7,0.9,2.4,1.6c0.7,0.7,1.2,1.5,1.6,2.4C127.6,64.5,127.8,65.5,127.8,66.4z"/>
	<path class="st0" d="M166.5,46.7c0,1.5-0.4,2.9-1.2,4.1c-0.8,1.2-1.9,2.2-3.3,2.7c-1.3,0.6-2.8,0.7-4.2,0.4c-1.4-0.3-2.7-1-3.7-2
		c-1-1-1.7-2.3-2-3.8c-0.3-1.4-0.1-2.9,0.4-4.3c0.5-1.3,1.5-2.5,2.7-3.3c1.2-0.8,2.6-1.2,4-1.2c1.9,0,3.8,0.8,5.1,2.2
		C165.7,42.9,166.5,44.8,166.5,46.7z"/>
	<path class="st2" d="M185.9,46.7c0,1.5-0.4,2.9-1.2,4.1c-0.8,1.2-1.9,2.2-3.3,2.7c-1.3,0.6-2.8,0.7-4.2,0.4c-1.4-0.3-2.7-1-3.7-2
		c-1-1-1.7-2.3-2-3.8c-0.3-1.4-0.1-2.9,0.4-4.3c0.5-1.3,1.5-2.5,2.7-3.3c1.2-0.8,2.6-1.2,4-1.2c1.9,0,3.8,0.8,5.1,2.2
		C185.1,42.9,185.9,44.8,185.9,46.7z"/>
	<path class="st1" d="M166.5,66.4c0,1.5-0.4,2.9-1.2,4.1c-0.8,1.2-1.9,2.2-3.3,2.7c-1.3,0.6-2.8,0.7-4.2,0.4c-1.4-0.3-2.7-1-3.7-2
		c-1-1-1.7-2.3-2-3.8c-0.3-1.4-0.1-2.9,0.4-4.3s1.5-2.5,2.7-3.3c1.2-0.8,2.6-1.2,4-1.2c1,0,1.9,0.2,2.8,0.6c0.9,0.4,1.7,0.9,2.4,1.6
		c0.7,0.7,1.2,1.5,1.6,2.4C166.3,64.5,166.5,65.5,166.5,66.4z"/>
	<path class="st3" d="M185.9,66.4c0,1.5-0.4,2.9-1.2,4.1c-0.8,1.2-1.9,2.2-3.3,2.7c-1.3,0.6-2.8,0.7-4.2,0.4c-1.4-0.3-2.7-1-3.7-2
		c-1-1-1.7-2.3-2-3.8c-0.3-1.4-0.1-2.9,0.4-4.3c0.5-1.3,1.5-2.5,2.7-3.3c1.2-0.8,2.6-1.2,4-1.2c1,0,1.9,0.2,2.8,0.6
		c0.9,0.4,1.7,0.9,2.4,1.6c0.7,0.7,1.2,1.5,1.6,2.4C185.7,64.5,185.9,65.5,185.9,66.4z"/>
	<path class="st0" d="M205.2,27.1c0,1.5-0.4,2.9-1.2,4.1c-0.8,1.2-1.9,2.2-3.3,2.7c-1.3,0.6-2.8,0.7-4.2,0.4c-1.4-0.3-2.7-1-3.7-2
		c-1-1-1.7-2.3-2-3.8c-0.3-1.4-0.1-2.9,0.4-4.3c0.5-1.3,1.5-2.5,2.7-3.3c1.2-0.8,2.6-1.2,4-1.2c1,0,1.9,0.2,2.8,0.6
		c0.9,0.4,1.7,0.9,2.4,1.6c0.7,0.7,1.2,1.5,1.6,2.4C205,25.1,205.2,26.1,205.2,27.1"/>
	<path class="st1" d="M205.2,46.7c0,1.5-0.4,2.9-1.2,4.1c-0.8,1.2-1.9,2.2-3.3,2.7c-1.3,0.6-2.8,0.7-4.2,0.4c-1.4-0.3-2.7-1-3.7-2
		c-1-1-1.7-2.3-2-3.8c-0.3-1.4-0.1-2.9,0.4-4.3c0.5-1.3,1.5-2.5,2.7-3.3c1.2-0.8,2.6-1.2,4-1.2c1.9,0,3.8,0.8,5.1,2.2
		C204.5,42.9,205.2,44.8,205.2,46.7z"/>
	<path class="st4" d="M24.8,73.9c0.6-0.6,1.2-1.3,1.6-2.1c0.4-0.8,0.7-1.7,1-2.6c0.2-0.9,0.3-1.8,0.3-2.8c0-1.9-0.4-3.7-1.1-5.5
		c-0.7-1.6-1.7-3.1-3-4.3c-1.3-1.2-2.8-2.2-4.4-2.8c-1.7-0.7-3.5-1-5.4-1c-1.8,0-3.7,0.3-5.4,1c-1.6,0.6-3.1,1.6-4.4,2.8
		c-1.3,1.2-2.3,2.7-3,4.3C0.4,62.7,0,64.5,0,66.4c0,1.9,0.3,3.9,1.1,5.7c0.7,1.6,1.7,3.1,3,4.3c1.3,1.2,2.8,2.1,4.5,2.7
		c1.8,0.6,3.7,0.9,5.5,0.9h13.4l2.8-6L24.8,73.9z M19.8,69c-0.7,1.6-1.9,2.9-3.4,3.5c-0.8,0.3-1.6,0.5-2.5,0.5s-1.7-0.2-2.5-0.5
		c-0.8-0.3-1.5-0.8-2-1.4c-1.2-1.3-1.9-3-1.9-4.7c0-1.8,0.7-3.5,1.9-4.7c0.6-0.6,1.3-1.1,2-1.4c0.8-0.3,1.6-0.5,2.5-0.5
		c0.9,0,1.7,0.2,2.5,0.5c0.8,0.3,1.5,0.8,2,1.4c0.9,1,1.5,2.2,1.8,3.5C20.4,66.5,20.2,67.8,19.8,69"/>
	<path class="st4" d="M46.3,53.5h-5.6L29.5,80h7.9l2-5.2h8.1l2.1,5.2h8L46.3,53.5z M45,68.3h-3.2l1.6-4.1L45,68.3z"/>
	<path class="st4" d="M68.8,73.1l11-13.5v-6.1H59.7v6.7h10.7L59.2,73.7v6.3h19.7l3-6.9H68.8z"/>
	<path class="st4" d="M98,53.5h-5.6L81.1,80H89l2-5.2h8.1l2.1,5.2h8L98,53.5z M96.6,68.3h-3.2l1.6-4.1L96.6,68.3z"/>
	<path class="st4" d="M131.6,73.9c0.6-0.6,1.2-1.3,1.6-2.1c0.4-0.8,0.7-1.7,1-2.6c0.2-0.9,0.3-1.8,0.3-2.8c0-1.9-0.4-3.7-1.1-5.5
		c-0.7-1.6-1.7-3.1-3-4.3c-1.3-1.2-2.8-2.2-4.4-2.8c-1.7-0.7-3.5-1-5.4-1c-1.8,0-3.7,0.3-5.4,1c-1.6,0.6-3.1,1.6-4.4,2.8
		c-1.3,1.2-2.3,2.7-3,4.3c-0.7,1.7-1.1,3.6-1.1,5.5c0,1.9,0.3,3.9,1.1,5.7c0.7,1.6,1.7,3.1,3,4.3c1.3,1.2,2.8,2.1,4.5,2.7
		c1.8,0.6,3.7,0.9,5.5,0.9h12.8l2.8-6L131.6,73.9z M126.6,69c-0.7,1.6-1.9,2.9-3.4,3.5c-0.8,0.3-1.6,0.5-2.5,0.5
		c-0.9,0-1.7-0.2-2.5-0.5c-1.6-0.7-2.8-1.9-3.4-3.5c-0.5-1.2-0.6-2.6-0.4-3.9c0.2-1.3,0.9-2.5,1.8-3.5c0.6-0.6,1.3-1.1,2-1.4
		c0.8-0.3,1.6-0.5,2.5-0.5c0.9,0,1.7,0.2,2.5,0.5c0.8,0.3,1.5,0.8,2,1.4c0.9,1,1.5,2.2,1.8,3.5C127.2,66.5,127.1,67.8,126.6,69"/>
	<path class="st4" d="M138.5,74.1h1.1l2.5,5.9h-1.4l-0.5-1.2h-2.3l-0.5,1.2H136L138.5,74.1z M139,75.8l-0.7,1.8h1.4L139,75.8z"/>
	<path class="st4" d="M144,74.1h-1.3V80h1.3V74.1z"/>
	<path class="st4" d="M145.1,74.1h2.2c0.3,0,0.6,0,0.8,0.1c0.2,0.1,0.5,0.2,0.7,0.3c0.2,0.1,0.4,0.3,0.5,0.5
		c0.1,0.3,0.2,0.6,0.2,0.9c0,0.4-0.1,0.8-0.3,1.1c-0.2,0.3-0.6,0.5-0.9,0.6l1.5,2.5h-1.5l-1.2-2.4h-0.6V80h-1.3V74.1z M146.4,76.5
		h0.8c0.1,0,0.2,0,0.4,0c0.1,0,0.2,0,0.3-0.1c0.1,0,0.2-0.1,0.3-0.2c0.1-0.1,0.1-0.2,0.1-0.4c0-0.1,0-0.3-0.1-0.4
		c-0.1-0.1-0.1-0.2-0.2-0.2c-0.1,0-0.2-0.1-0.3-0.1c-0.1,0-0.2,0-0.4,0h-0.8L146.4,76.5z"/>
</g>
</svg>
