<?xml version="1.0" encoding="utf-8"?>
<!-- Generator: Adobe Illustrator 25.4.1, SVG Export Plug-In . SVG Version: 6.00 Build 0)  -->
<svg version="1.1" id="Layer_1" xmlns="http://www.w3.org/2000/svg" xmlns:xlink="http://www.w3.org/1999/xlink" x="0px" y="0px"
	 viewBox="0 0 93.78 80" style="enable-background:new 0 0 93.78 80;" xml:space="preserve">
<style type="text/css">
	.st0{fill-rule:evenodd;clip-rule:evenodd;fill:#24195D;}
</style>
<g>
	<path class="st0" d="M80.22,10.23c0,0,0.08-0.34,0.85-0.11c0.77,0.22,0.76,0.53,0.57,0.66c-0.19,0.13-0.46-0.02-0.78-0.11
		C80.53,10.56,80.06,10.62,80.22,10.23"/>
	<path class="st0" d="M79.54,11.46c0,0,0.7-0.09,0.91,0.71c0.21,0.77-1.4,0.79-1.41-0.13C79.05,12.05,79.04,11.57,79.54,11.46"/>
	<path class="st0" d="M89.25,0.23c0,0-2.79,0.53-3.79,0.87c-1,0.34-1.66,0.99-2.52,2c-0.86,1.02-3.23,3.69-4.73,5.09
		c0,0-0.84,0.59-0.69,1.78c0.15,1.18,0.7,1.18,0.95,0.67c0.15-0.3,0.52-0.18,0.69-0.46c0.05-0.08,0.09-0.29,0.09-0.29
		s0.25-1.77,2.09-0.89c1.84,0.88,1.79,1.12,2.73,0.32c0.94-0.8,6.17-4.97,8.17-6.57C94,1.35,95.52-0.58,89.25,0.23 M92.46,1.53
		c-1.6,1.21-5.92,4.66-6.88,5.24c-0.97,0.58-1.59,0.63-2.27-0.12c-0.61-0.67,0-1.36,0-1.36s2.99-4.04,8.14-4.54
		C91.44,0.76,94.07,0.32,92.46,1.53"/>
	<path class="st0" d="M90.2,20.03c0,0,4.41-3.57-1.04-9.99c0,0-1.71-1.89-2.25-1.47c-0.54,0.42-2.48,2.23-3.64,2.86
		c-0.14,0.07-0.56,0.17-0.62,0.31c-0.06,0.14-0.05,0.36,0.51,0.4c0.56,0.03,0.71,1.05,0.71,1.05s0.07,0.72,0.94,0.36
		c0.87-0.35,3.14-1.01,4.91,1.2c0.07,0.09,2,2.24-0.83,4.86c0,0-0.76,0.52-0.2,0.8C89.24,20.69,89.91,20.31,90.2,20.03"/>
	<path class="st0" d="M76.36,5.45c0,0,3.53-0.53,2.55,0.43c-0.98,0.97-3.4,2.56-2.53,5.08c0,0,0.23,0.92,1.07,1.53
		c0.84,0.61,0.44,1.05,1.76,1.29c1.49,0.27,1.8-0.42,2-0.65s0.41-0.37,0.92-0.23c0.51,0.14,0.84,0.53,0.56,2.34
		c0,0-0.9,4.98,4.21,5.1c0,0,0.17-0.02,0.48,0.21c0.3,0.24,1.33,1.24,2.55,0.87c1.22-0.37,1.13,0.41,1.18,0.87
		c0,0,0.18,0.69-1.38,1.02c-1.56,0.33-2.49,0.26-2.86,0.27c-0.37,0.01-0.91,0.03-0.8,0.57c0.11,0.54,2.05,1.12,1.96,2.48
		c-0.09,1.37,0.17,1.51,0.25,1.84c0.08,0.33,0.1,0.74-0.9,0.92c0,0-0.5,0.11-0.38-1.06c0.12-1.16,0.31-2.28-0.68-2.93
		c-0.97-0.63-2.38-1.47-4.69-1.69c-2.21-0.21-1.17,0.95-0.33,1.48c0,0,3,2.01,3.47,3.08c0.47,1.07,1.03,2.11,0.13,1.89
		c-0.9-0.22-3.51-0.89-4.12-1.13c-0.61-0.24-0.82-0.49-1.26-1.72c-0.44-1.23-3.67-10.69-4.33-11.95c-0.66-1.25-2.28,0.92-2.79,3.49
		c-0.52,2.61-1.62,8.12,6.29,14.57c3.13,2.56,14.31,17.92-5.24,35.16c0,0-14.64,12.6-43.74,11.34c0,0-1.81-0.26,1.61-1.07
		c3.42-0.81,25.6-8.8,21.92-27.73c0,0-0.55-3.36-4.45-7.69c0,0-0.74-1.43,2.16,1.12c2.9,2.54,12.12,14.63-5.38,30.9
		c-0.91,0.89-3.7,2.53,0.07,1.87c0,0,31.91-3.47,36.9-26.42c0,0,1.33-5.77-2.08-12.23c0,0-0.34-1.2-1.33-0.06
		c-0.81,0.94-8.48,8.16-19.15,4.85c0,0-0.62-0.23-0.76-1.04c0,0-3.07-19.67,2.77-27.86C61.99,14.56,66.03,7.24,76.36,5.45"/>
	<path class="st0" d="M75.11,18.66c0,0-0.6-2.02-0.99-0.8c-0.39,1.22-2.09,7.18,3.38,12.84c0,0,1.36,1.19,1.51-0.31
		C79.16,28.91,76.43,23.58,75.11,18.66"/>
	<path class="st0" d="M87.48,17.1c-0.13,0.36-0.65,0.49-1.15,0.3c-0.5-0.19-0.8-0.63-0.67-0.99c0.13-0.36,0.65-0.49,1.15-0.3
		C87.31,16.3,87.61,16.75,87.48,17.1"/>
	<path class="st0" d="M87.27,14.51c0,0-2.3-0.63-3.28,1.04c-0.85,1.45,0.92,3.31,1.62,3.58c0.61,0.24,2.27,0.87,3.46-1.08
		C89.07,18.05,90.45,15.62,87.27,14.51 M88.46,17.19c0,0-0.14,1.43-1.78,1.43c-1.06,0-1.95-1.27-1.95-1.27s-1.06-1.57,0.53-2.1
		C86.85,14.74,88.75,15.74,88.46,17.19"/>
	<path class="st0" d="M89.48,27.81c0,0,1.42-0.96,1.82-3.53c0,0,0.06-0.54-0.49-0.23c-0.55,0.31-1.12,0.33-1.68,0.39
		c-0.56,0.06-0.8,0.17-0.49,0.5c0.32,0.33,0.36,0.66,0.38,1.61C89.04,27.49,88.95,28.04,89.48,27.81"/>
	<path class="st0" d="M56.21,41.54c0,0-6.87-5.86-5.58-20.8c0,0,0.16-1.27,0.44-2.16c0.28-0.9,0.41-1.51-1.96-3.42
		C46.74,13.26,27.8-0.05,2.5,0c0,0-2.3-0.06-2.47,0.41c0,0-0.36,0.31,1.6,5.63c0.16,0.25,0.24,0.37,0.73,0.33
		c0,0,20.92-3.33,44.34,11.85l0.52,0.34c0,0,0.73,0.38,0.81,1.28c0.09,0.91-0.82,14.28,7.05,21.04
		C55.09,40.88,55.48,41.2,56.21,41.54"/>
	<path class="st0" d="M18.25,32.01c6.63-0.58,27.98,3.33,36.75,15.79c8.17,11.79-5.47,26.19-6.95,27.37
		c-1.48,1.18,2.33,0.25,2.33,0.25c39.12-10.8,29.79-33.56,29.41-34.61c-0.39-1.05-0.89-0.17-0.89-0.17
		c-8.36,7.21-17.92,4.35-17.92,4.35C45.66,41.6,47.04,21.83,47.05,20.84c0.01-0.99-0.95-1.46-0.95-1.46
		C23.71,4.7,4.15,7.47,2.47,7.63C0.79,7.79,1.26,8.32,1.26,8.32c0.65,1.6,1.79,3.98,1.79,3.98s0.24,0.46,0.75,0.38
		c0.51-0.09,13.4-3.05,32.22,5.55c0,0,0.73,0.32,0.76,0.87c0.04,0.56-0.39,0.67-1.31,0.23C34.55,18.89,17.7,10.64,3.9,14.2
		c0,0-0.76,0.17-0.43,0.65c0.33,0.48,1.37,2.81,2.66,4.3c0,0,0.32,0.43,0.94,0.18c0.62-0.25,11.23-3.85,30.4,5.2
		c0,0,0.83,0.43,0.66,1.03c-0.18,0.65-0.84,0.45-1.22,0.26c-0.38-0.19-18.41-9.04-29.2-4.96c0,0-0.88,0.36-0.56,0.7
		c0.32,0.34,3.82,4.06,3.82,4.06s0.28,0.39,0.99,0.25c0.71-0.14,10.99-3.55,25.91,4.73c0,0,1.33,0.7,1.29,1.33
		c-0.04,0.63-0.69,0.68-1.42,0.27c-0.73-0.41-12.73-8.24-25.16-4.96c0,0-1.02,0.35-0.47,0.74c0.55,0.39,3.78,3.28,4.62,3.72
		C16.73,31.73,17.28,32.14,18.25,32.01"/>
	<path class="st0" d="M58.09,42.09c0,0-0.02-0.29-0.33-0.23c-0.31,0.06-0.29,0.45-0.03,0.5C58.09,42.44,58.09,42.09,58.09,42.09"/>
	<path class="st0" d="M56.55,40.74c0,0-0.31-0.01-0.32,0.25c-0.01,0.26,0.37,0.25,0.55,0.25c0.17,0,1.05,0.02,1.1-0.21
		C57.93,40.8,57.18,40.69,56.55,40.74"/>
	<path class="st0" d="M56.54,39.46c0,0-0.74-0.02-0.67,0.33c0.07,0.35,0.78,0.29,1.03,0.29c0.25,0,0.85,0,0.85-0.31
		C57.75,39.47,56.54,39.46,56.54,39.46"/>
	<path class="st0" d="M56.27,38.14c0,0-0.69,0.02-0.65,0.37c0.05,0.35,0.73,0.32,1.1,0.29c0.37-0.02,0.92-0.02,0.92-0.34
		C57.65,38.16,56.64,38.12,56.27,38.14"/>
	<path class="st0" d="M55.44,37.1c0,0-0.09,0.38,0.88,0.36c0.97-0.02,1.13-0.13,1.14-0.36c0.01-0.23-0.79-0.37-1.22-0.33
		C55.82,36.8,55.42,36.89,55.44,37.1"/>
	<path class="st0" d="M55.4,35.66c0,0-0.05,0.37,0.76,0.36c0.81-0.01,1.16-0.08,1.15-0.36c-0.01-0.28-0.78-0.33-1.12-0.33
		C55.85,35.33,55.43,35.37,55.4,35.66"/>
	<path class="st0" d="M55.37,34.16c0,0-0.07-0.33,0.71-0.36c0.78-0.03,1.18,0.17,1.18,0.34c0,0.17-0.23,0.31-0.91,0.34
		C55.67,34.51,55.38,34.39,55.37,34.16"/>
	<path class="st0" d="M56.07,32.44c0,0-0.79-0.07-0.79,0.36c0,0.4,0.82,0.36,1.1,0.33c0.29-0.03,0.81-0.06,0.81-0.34
		C57.18,32.49,56.32,32.43,56.07,32.44"/>
	<path class="st0" d="M56.09,31.02c0,0-0.8-0.04-0.81,0.35c-0.01,0.39,0.66,0.35,0.93,0.33c0.27-0.01,0.93-0.01,0.96-0.33
		C57.21,31.02,56.09,31.02,56.09,31.02"/>
	<path class="st0" d="M56.21,29.67c0,0-0.96-0.08-0.99,0.35c-0.03,0.46,1.26,0.34,1.51,0.31c0.25-0.03,0.53-0.08,0.5-0.36
		C57.19,29.66,56.21,29.67,56.21,29.67"/>
	<path class="st0" d="M55.72,28.22c0,0-0.49-0.01-0.53,0.3c-0.04,0.31,0.69,0.44,1.33,0.39c0.65-0.05,0.8-0.06,0.79-0.29
		C57.3,28.42,56.92,28.23,55.72,28.22"/>
	<path class="st0" d="M56.1,26.62c0,0-0.77-0.05-0.89,0.29c-0.12,0.33,0.61,0.43,1.45,0.4C57.55,27.27,57.7,26.59,56.1,26.62"/>
	<path class="st0" d="M56.17,25.17c0,0-0.76-0.09-0.86,0.32c-0.1,0.41,0.9,0.4,1.1,0.4c0.19,0,0.97,0.07,0.93-0.34
		C57.28,25.13,56.17,25.17,56.17,25.17"/>
	<path class="st0" d="M56.21,23.69c0,0-0.68-0.06-0.72,0.3c-0.04,0.36,0.99,0.4,1.48,0.43c0.49,0.03,0.64-0.07,0.61-0.32
		C57.57,23.95,57.31,23.72,56.21,23.69"/>
	<path class="st0" d="M56.86,22.26c0,0-0.89-0.2-1.09,0.14c-0.2,0.35,0.66,0.54,1.55,0.6C58.22,23.06,57.93,22.4,56.86,22.26"/>
	<path class="st0" d="M56.82,20.89c0,0-0.72-0.16-0.81,0.23c-0.09,0.39,1,0.49,1.57,0.58C58.15,21.78,58.61,21.07,56.82,20.89"/>
	<path class="st0" d="M57.18,19.44c0,0-0.75-0.17-0.79,0.2c-0.04,0.37,1.1,0.63,1.72,0.64C58.73,20.29,58.63,19.65,57.18,19.44"/>
	<path class="st0" d="M57.71,17.82c0,0-0.63-0.26-0.78,0.08c-0.15,0.34,0.69,0.76,1.62,0.87C59.02,18.83,59.16,18.25,57.71,17.82"/>
	<path class="st0" d="M58.23,16.43c0,0-0.67-0.35-0.72,0.14c-0.05,0.48,1.73,1.13,1.79,0.78C59.36,17.01,58.69,16.64,58.23,16.43"/>
	<path class="st0" d="M58.77,14.99c0,0-0.61-0.3-0.72,0.07c-0.1,0.32,1.01,1.03,1.64,1.04C60.08,16.1,60.08,15.49,58.77,14.99"/>
	<path class="st0" d="M58.88,13.7c0,0-0.42,0.29,0.55,0.87c0.97,0.58,1.29,0.45,0.99-0.02C60.14,14.1,59.01,13.48,58.88,13.7"/>
	<path class="st0" d="M60.19,12.58c0,0-0.67-0.36-0.69,0.1c-0.01,0.46,1.89,1.41,1.74,0.83C61.08,12.92,60.19,12.58,60.19,12.58"/>
	<path class="st0" d="M61.03,11.39c0,0-0.7-0.44-0.65,0.08s1.19,1.17,1.39,1.25c0.2,0.07,0.5-0.22-0.07-0.75
		C61.2,11.49,61.03,11.39,61.03,11.39"/>
	<path class="st0" d="M61.91,10.13c0,0-0.27-0.2-0.41,0.09c-0.14,0.29,0.67,0.99,0.67,0.99s0.56,0.63,0.75,0.27
		C63.11,11.13,61.91,10.13,61.91,10.13"/>
	<path class="st0" d="M63.15,9.37c0,0-0.61-0.65-0.73-0.09c-0.07,0.34,1.07,1.33,1.07,1.33s0.53,0.33,0.41-0.2
		C63.78,9.88,63.15,9.37,63.15,9.37"/>
	<path class="st0" d="M63.4,8.39c0,0,0.08-0.53,0.62-0.01c0.54,0.51,0.9,1.24,0.75,1.39c-0.15,0.15-0.52-0.07-0.84-0.48
		C63.59,8.88,63.41,8.58,63.4,8.39"/>
	<path class="st0" d="M65.1,7.42c0,0-0.49-0.52-0.6-0.03c0,0,0.01,0.33,0.4,0.85c0.38,0.52,0.68,0.84,0.86,0.6
		C65.93,8.6,65.1,7.42,65.1,7.42"/>
	<path class="st0" d="M66.31,6.68c0,0-0.47-0.68-0.69-0.26c-0.22,0.42,0.93,1.86,1.22,1.63C67.13,7.83,66.31,6.68,66.31,6.68"/>
	<path class="st0" d="M67.49,5.62c0,0-0.37-0.57-0.53-0.07c-0.16,0.5,0.71,1.88,0.95,1.74C68.18,7.15,67.73,6.08,67.49,5.62"/>
	<path class="st0" d="M68.88,5.29c0,0-0.22-0.6-0.58-0.57c-0.36,0.03,0.08,1.1,0.35,1.62s0.65,0.43,0.59,0.07
		C69.17,6.05,68.88,5.29,68.88,5.29"/>
	<path class="st0" d="M69.53,4.71c0,0-0.19-0.66,0.24-0.67c0.42-0.01,0.62,1.11,0.74,1.64c0.12,0.54-0.38,0.75-0.65,0
		C69.59,4.94,69.53,4.71,69.53,4.71"/>
	<path class="st0" d="M70.89,4.38c0,0-0.2-0.74,0.2-0.87c0.4-0.13,0.59,1.27,0.59,1.27s0.1,0.86-0.15,0.9
		C71.29,5.72,70.98,5.17,70.89,4.38"/>
	<path class="st0" d="M72.1,3.58c0,0-0.02-0.53,0.24-0.52c0.26,0.01,0.49,0.58,0.55,1.08c0.05,0.5,0.04,1.05-0.13,1.1
		C72.59,5.28,72.18,4.78,72.1,3.58"/>
	<path class="st0" d="M73.52,3.77c0,0-0.15-0.94,0.17-1.06c0.32-0.13,0.49,0.71,0.57,1.3C74.35,4.67,73.88,5.84,73.52,3.77"/>
	<path class="st0" d="M75.01,3.49c0,0-0.15-0.94,0.17-1.06c0.32-0.13,0.49,0.71,0.57,1.3C75.84,4.39,75.38,5.56,75.01,3.49"/>
	<path class="st0" d="M76.44,3.26c0,0-0.07-0.97,0.27-1.07c0.34-0.1,0.44,0.77,0.46,1.38C77.2,4.26,76.62,5.42,76.44,3.26"/>
	<path class="st0" d="M77.85,3.09c0,0-0.02-0.97,0.32-1.06c0.34-0.09,0.4,0.79,0.4,1.4C78.57,4.13,77.93,5.26,77.85,3.09"/>
	<path class="st0" d="M79.29,3.08c0,0,0.01-0.97,0.36-1.05c0.35-0.08,0.38,0.8,0.35,1.41C79.97,4.14,79.3,5.25,79.29,3.08"/>
	<path class="st0" d="M80.92,2.74c0,0,0.04-0.44,0.37-0.42c0.34,0.02,0.11,1.32-0.07,1.28C81.03,3.56,80.92,3.33,80.92,2.74"/>
	<path class="st0" d="M89.22,7.09c0,0,0.72-0.62,1-0.41c0.28,0.21-0.35,0.8-0.8,1.17C88.89,8.27,87.65,8.5,89.22,7.09"/>
	<path class="st0" d="M90.24,8.08c0,0,0.71-0.58,0.97-0.36c0.27,0.22-0.35,0.77-0.8,1.12C89.9,9.23,88.69,9.4,90.24,8.08"/>
	<path class="st0" d="M91.19,9.25c0,0,0.77-0.44,0.99-0.18c0.22,0.26-0.45,0.69-0.94,0.96C90.68,10.33,89.5,10.27,91.19,9.25"/>
	<path class="st0" d="M91.9,10.48c0,0,0.75-0.32,0.92-0.03c0.17,0.29-0.49,0.62-0.96,0.8C91.32,11.46,90.25,11.22,91.9,10.48"/>
	<path class="st0" d="M92.06,12.09c0,0,0.81-0.32,0.61,0.33c-0.2,0.65-0.87,0.66-0.97,0.4C91.6,12.56,91.76,12.2,92.06,12.09"/>
</g>
</svg>
