<?xml version="1.0" encoding="utf-8"?>
<!-- Generator: Adobe Illustrator 25.4.1, SVG Export Plug-In . SVG Version: 6.00 Build 0)  -->
<svg version="1.1" id="Layer_1" xmlns="http://www.w3.org/2000/svg" xmlns:xlink="http://www.w3.org/1999/xlink" x="0px" y="0px"
	 viewBox="0 0 219.63 80" style="enable-background:new 0 0 219.63 80;" xml:space="preserve">
<style type="text/css">
	.st0{fill-rule:evenodd;clip-rule:evenodd;fill:#24195D;}
	.st1{fill:#24195D;}
</style>
<g>
	<path class="st0" d="M206.58,9.84c0,0,0.08-0.32,0.82-0.11c0.74,0.21,0.73,0.51,0.55,0.63c-0.19,0.13-0.45-0.02-0.75-0.11
		C206.87,10.16,206.43,10.22,206.58,9.84"/>
	<path class="st0" d="M205.93,11.03c0,0,0.67-0.09,0.88,0.69c0.2,0.75-1.35,0.76-1.35-0.12C205.46,11.6,205.45,11.14,205.93,11.03"
		/>
	<path class="st0" d="M215.27,0.22c0,0-2.69,0.51-3.65,0.84c-0.96,0.33-1.6,0.95-2.43,1.93c-0.83,0.98-3.1,3.55-4.55,4.9
		c0,0-0.81,0.57-0.67,1.71c0.14,1.14,0.67,1.14,0.91,0.65c0.14-0.29,0.5-0.17,0.66-0.44c0.05-0.07,0.08-0.28,0.08-0.28
		s0.24-1.7,2.01-0.85c1.77,0.84,1.72,1.08,2.63,0.31c0.91-0.77,5.94-4.78,7.87-6.32C219.84,1.3,221.31-0.56,215.27,0.22
		 M218.36,1.47c-1.54,1.16-5.7,4.49-6.63,5.04c-0.93,0.56-1.53,0.61-2.19-0.11c-0.59-0.65,0-1.31,0-1.31s2.88-3.89,7.83-4.37
		C217.38,0.73,219.9,0.31,218.36,1.47"/>
	<path class="st0" d="M216.19,19.27c0,0,4.24-3.44-1-9.61c0,0-1.64-1.82-2.17-1.42c-0.52,0.4-2.39,2.15-3.51,2.75
		c-0.13,0.07-0.54,0.16-0.6,0.3c-0.05,0.14-0.05,0.35,0.49,0.38c0.54,0.03,0.68,1.01,0.68,1.01s0.07,0.69,0.9,0.35
		c0.83-0.34,3.02-0.97,4.72,1.15c0.07,0.09,1.93,2.15-0.8,4.68c0,0-0.73,0.5-0.19,0.77C215.26,19.91,215.91,19.54,216.19,19.27"/>
	<path class="st0" d="M202.86,5.25c0,0,3.4-0.51,2.45,0.42c-0.94,0.93-3.27,2.46-2.43,4.89c0,0,0.22,0.88,1.03,1.47
		c0.81,0.59,0.42,1.01,1.7,1.25c1.44,0.26,1.74-0.41,1.93-0.63c0.19-0.22,0.39-0.35,0.88-0.22c0.49,0.13,0.81,0.51,0.54,2.25
		c0,0-0.87,4.79,4.05,4.91c0,0,0.17-0.02,0.46,0.2c0.29,0.23,1.28,1.19,2.46,0.84c1.18-0.35,1.08,0.39,1.13,0.84
		c0,0,0.18,0.67-1.33,0.98c-1.5,0.31-2.4,0.25-2.75,0.26c-0.35,0.01-0.87,0.03-0.77,0.54c0.1,0.52,1.97,1.07,1.89,2.39
		c-0.08,1.32,0.16,1.45,0.24,1.77c0.08,0.31,0.09,0.72-0.87,0.88c0,0-0.48,0.1-0.36-1.02c0.12-1.12,0.3-2.19-0.66-2.82
		c-0.94-0.61-2.29-1.42-4.51-1.63c-2.13-0.2-1.13,0.91-0.32,1.42c0,0,2.89,1.94,3.34,2.97c0.45,1.03,0.99,2.03,0.12,1.82
		c-0.87-0.21-3.38-0.86-3.96-1.09c-0.58-0.23-0.79-0.47-1.21-1.66c-0.42-1.19-3.53-10.29-4.17-11.5c-0.64-1.21-2.2,0.89-2.69,3.36
		c-0.5,2.52-1.55,7.81,6.06,14.02c3.01,2.46,13.77,17.25-5.04,33.83c0,0-14.09,12.12-42.1,10.92c0,0-1.74-0.25,1.55-1.03
		c3.3-0.78,24.64-8.47,21.09-26.69c0,0-0.52-3.23-4.28-7.4c0,0-0.71-1.37,2.08,1.08c2.8,2.45,11.66,14.08-5.18,29.74
		c-0.87,0.85-3.56,2.43,0.07,1.8c0,0,30.71-3.34,35.52-25.43c0,0,1.28-5.55-2-11.77c0,0-0.32-1.16-1.28-0.05
		c-0.78,0.9-8.16,7.85-18.43,4.67c0,0-0.6-0.22-0.73-1c0,0-2.95-18.93,2.66-26.81C189.04,14.01,192.92,6.97,202.86,5.25"/>
	<path class="st0" d="M201.66,17.96c0,0-0.58-1.95-0.95-0.77c-0.37,1.17-2.01,6.91,3.25,12.36c0,0,1.3,1.14,1.45-0.3
		C205.56,27.82,202.93,22.69,201.66,17.96"/>
	<path class="st0" d="M213.56,16.46c-0.13,0.34-0.63,0.47-1.11,0.29c-0.48-0.18-0.77-0.61-0.64-0.95c0.13-0.34,0.63-0.47,1.11-0.29
		C213.4,15.69,213.69,16.12,213.56,16.46"/>
	<path class="st0" d="M213.36,13.96c0,0-2.22-0.61-3.16,1c-0.82,1.39,0.89,3.19,1.56,3.45c0.59,0.23,2.18,0.83,3.33-1.04
		C215.1,17.38,216.42,15.03,213.36,13.96 M214.51,16.55c0,0-0.13,1.38-1.71,1.38c-1.02,0-1.88-1.22-1.88-1.22s-1.02-1.51,0.51-2.02
		C212.96,14.18,214.79,15.15,214.51,16.55"/>
	<path class="st0" d="M215.49,26.76c0,0,1.37-0.93,1.75-3.39c0,0,0.06-0.52-0.47-0.22s-1.08,0.32-1.61,0.37
		c-0.54,0.06-0.77,0.17-0.47,0.48c0.3,0.32,0.34,0.64,0.36,1.55C215.07,26.46,214.99,26.99,215.49,26.76"/>
	<path class="st0" d="M183.47,39.98c0,0-6.61-5.64-5.37-20.02c0,0,0.16-1.22,0.42-2.08c0.27-0.86,0.39-1.46-1.89-3.29
		C174.36,12.76,156.13-0.05,131.78,0c0,0-2.21-0.05-2.38,0.39c0,0-0.35,0.3,1.54,5.41c0.15,0.24,0.23,0.36,0.7,0.32
		c0,0,20.13-3.2,42.68,11.41l0.5,0.33c0,0,0.7,0.36,0.78,1.24s-0.79,13.74,6.79,20.24C182.4,39.35,182.77,39.65,183.47,39.98"/>
	<path class="st0" d="M146.94,30.8c6.38-0.56,26.93,3.2,35.36,15.19c7.86,11.34-5.27,25.2-6.69,26.34
		c-1.43,1.14,2.24,0.24,2.24,0.24c37.65-10.39,28.67-32.3,28.3-33.31c-0.37-1.01-0.86-0.17-0.86-0.17
		c-8.05,6.94-17.24,4.18-17.24,4.18c-14.73-3.26-13.41-22.29-13.39-23.24c0.01-0.95-0.91-1.41-0.91-1.41
		c-21.55-14.12-40.37-11.46-41.99-11.3c-1.62,0.16-1.17,0.66-1.17,0.66c0.62,1.54,1.73,3.83,1.73,3.83s0.23,0.44,0.72,0.36
		c0.5-0.08,12.9-2.93,31.01,5.34c0,0,0.7,0.3,0.73,0.84c0.03,0.54-0.37,0.65-1.26,0.22c-0.89-0.43-17.1-8.37-30.38-4.94
		c0,0-0.73,0.16-0.42,0.63c0.32,0.46,1.32,2.71,2.56,4.14c0,0,0.3,0.41,0.9,0.18c0.6-0.24,10.81-3.71,29.26,5.01
		c0,0,0.8,0.42,0.63,0.99c-0.17,0.62-0.81,0.43-1.17,0.25c-0.36-0.18-17.72-8.7-28.1-4.77c0,0-0.84,0.35-0.54,0.68
		c0.31,0.33,3.67,3.91,3.67,3.91s0.27,0.38,0.96,0.24c0.68-0.14,10.58-3.42,24.94,4.56c0,0,1.28,0.67,1.24,1.28
		s-0.67,0.66-1.37,0.26c-0.7-0.39-12.25-7.93-24.22-4.77c0,0-0.99,0.34-0.46,0.72c0.53,0.38,3.64,3.16,4.45,3.58
		C145.47,30.53,146,30.94,146.94,30.8"/>
	<path class="st0" d="M185.28,40.51c0,0-0.02-0.28-0.32-0.22c-0.3,0.06-0.28,0.43-0.03,0.48C185.28,40.84,185.28,40.51,185.28,40.51
		"/>
	<path class="st0" d="M183.8,39.21c0,0-0.3-0.01-0.31,0.24c-0.01,0.25,0.36,0.24,0.53,0.24c0.17,0,1.01,0.01,1.06-0.21
		C185.13,39.26,184.41,39.16,183.8,39.21"/>
	<path class="st0" d="M183.79,37.98c0,0-0.71-0.02-0.65,0.32c0.06,0.34,0.75,0.28,0.99,0.28c0.24,0,0.82,0,0.82-0.29
		C184.95,37.99,183.79,37.98,183.79,37.98"/>
	<path class="st0" d="M183.53,36.71c0,0-0.67,0.02-0.62,0.36c0.05,0.34,0.7,0.3,1.06,0.28c0.36-0.02,0.89-0.02,0.89-0.32
		C184.86,36.73,183.89,36.68,183.53,36.71"/>
	<path class="st0" d="M182.73,35.7c0,0-0.08,0.36,0.85,0.34c0.93-0.02,1.09-0.12,1.1-0.34c0.01-0.22-0.76-0.35-1.17-0.32
		S182.71,35.5,182.73,35.7"/>
	<path class="st0" d="M182.69,34.32c0,0-0.05,0.36,0.73,0.35c0.78-0.01,1.12-0.08,1.1-0.35c-0.01-0.27-0.75-0.31-1.08-0.32
		C183.12,34,182.72,34.04,182.69,34.32"/>
	<path class="st0" d="M182.66,32.87c0,0-0.06-0.32,0.68-0.35c0.75-0.03,1.13,0.17,1.13,0.33c0,0.16-0.22,0.3-0.87,0.33
		C182.95,33.21,182.68,33.1,182.66,32.87"/>
	<path class="st0" d="M183.34,31.22c0,0-0.76-0.07-0.76,0.35c0,0.38,0.78,0.34,1.06,0.32c0.27-0.03,0.78-0.06,0.78-0.33
		C184.41,31.27,183.57,31.21,183.34,31.22"/>
	<path class="st0" d="M183.36,29.85c0,0-0.77-0.04-0.78,0.34s0.63,0.33,0.9,0.32c0.26-0.01,0.9-0.01,0.92-0.31
		C184.43,29.85,183.36,29.85,183.36,29.85"/>
	<path class="st0" d="M183.47,28.55c0,0-0.93-0.07-0.95,0.33c-0.03,0.44,1.21,0.33,1.46,0.3c0.24-0.03,0.51-0.08,0.48-0.34
		C184.41,28.54,183.47,28.55,183.47,28.55"/>
	<path class="st0" d="M183.01,27.16c0,0-0.47-0.01-0.51,0.29c-0.04,0.3,0.66,0.42,1.28,0.37c0.62-0.05,0.77-0.06,0.76-0.28
		C184.52,27.35,184.15,27.16,183.01,27.16"/>
	<path class="st0" d="M183.36,25.61c0,0-0.74-0.04-0.86,0.28c-0.11,0.32,0.59,0.42,1.4,0.39C184.76,26.25,184.91,25.59,183.36,25.61
		"/>
	<path class="st0" d="M183.43,24.22c0,0-0.73-0.09-0.83,0.3c-0.09,0.39,0.87,0.39,1.06,0.39c0.19,0,0.94,0.07,0.89-0.33
		C184.5,24.18,183.43,24.22,183.43,24.22"/>
	<path class="st0" d="M183.47,22.8c0,0-0.65-0.06-0.69,0.29c-0.04,0.35,0.96,0.38,1.42,0.41c0.47,0.03,0.62-0.07,0.59-0.3
		C184.78,23.05,184.53,22.83,183.47,22.8"/>
	<path class="st0" d="M184.1,21.42c0,0-0.86-0.2-1.05,0.14c-0.19,0.33,0.64,0.52,1.5,0.58C185.4,22.2,185.13,21.56,184.1,21.42"/>
	<path class="st0" d="M184.06,20.1c0,0-0.69-0.15-0.78,0.22c-0.09,0.37,0.97,0.47,1.51,0.56C185.34,20.96,185.78,20.28,184.06,20.1"
		/>
	<path class="st0" d="M184.4,18.71c0,0-0.72-0.16-0.76,0.19c-0.04,0.36,1.06,0.61,1.66,0.62C185.9,19.52,185.8,18.92,184.4,18.71"/>
	<path class="st0" d="M184.91,17.15c0,0-0.61-0.25-0.75,0.08c-0.14,0.33,0.67,0.73,1.56,0.84
		C186.17,18.13,186.31,17.56,184.91,17.15"/>
	<path class="st0" d="M185.42,15.81c0,0-0.65-0.34-0.7,0.13c-0.05,0.47,1.66,1.08,1.72,0.75C186.51,16.37,185.86,16.02,185.42,15.81
		"/>
	<path class="st0" d="M185.93,14.43c0,0-0.58-0.29-0.69,0.07c-0.09,0.31,0.98,0.99,1.58,1C187.19,15.49,187.19,14.9,185.93,14.43"/>
	<path class="st0" d="M186.04,13.19c0,0-0.41,0.28,0.53,0.84c0.94,0.56,1.24,0.43,0.96-0.02C187.25,13.57,186.16,12.98,186.04,13.19
		"/>
	<path class="st0" d="M187.3,12.1c0,0-0.65-0.35-0.66,0.1c-0.01,0.45,1.82,1.36,1.67,0.8C188.16,12.43,187.3,12.1,187.3,12.1"/>
	<path class="st0" d="M188.11,10.96c0,0-0.67-0.43-0.62,0.08c0.05,0.51,1.15,1.13,1.34,1.2c0.19,0.07,0.48-0.21-0.07-0.72
		C188.28,11.06,188.11,10.96,188.11,10.96"/>
	<path class="st0" d="M188.96,9.75c0,0-0.26-0.19-0.39,0.09c-0.13,0.28,0.65,0.95,0.65,0.95s0.54,0.61,0.72,0.26
		C190.11,10.71,188.96,9.75,188.96,9.75"/>
	<path class="st0" d="M190.15,9.01c0,0-0.59-0.63-0.7-0.08c-0.07,0.33,1.03,1.28,1.03,1.28s0.51,0.32,0.39-0.19
		C190.76,9.51,190.15,9.01,190.15,9.01"/>
	<path class="st0" d="M190.39,8.08c0,0,0.07-0.51,0.59-0.01c0.52,0.49,0.86,1.19,0.72,1.34c-0.15,0.15-0.5-0.07-0.81-0.46
		C190.58,8.54,190.4,8.25,190.39,8.08"/>
	<path class="st0" d="M192.03,7.14c0,0-0.47-0.5-0.58-0.03c0,0,0.01,0.32,0.38,0.82c0.37,0.5,0.66,0.81,0.83,0.58
		C192.83,8.28,192.03,7.14,192.03,7.14"/>
	<path class="st0" d="M193.19,6.43c0,0-0.45-0.66-0.66-0.25c-0.21,0.41,0.89,1.79,1.17,1.57C193.98,7.54,193.19,6.43,193.19,6.43"/>
	<path class="st0" d="M194.33,5.41c0,0-0.36-0.55-0.51-0.06c-0.16,0.48,0.68,1.81,0.92,1.68C195,6.88,194.56,5.85,194.33,5.41"/>
	<path class="st0" d="M195.66,5.09c0,0-0.21-0.58-0.56-0.55c-0.35,0.03,0.08,1.06,0.34,1.56s0.62,0.41,0.57,0.06
		C195.95,5.83,195.66,5.09,195.66,5.09"/>
	<path class="st0" d="M196.3,4.54c0,0-0.18-0.64,0.23-0.64c0.41-0.01,0.6,1.06,0.71,1.58c0.11,0.52-0.36,0.72-0.62,0
		C196.35,4.75,196.3,4.54,196.3,4.54"/>
	<path class="st0" d="M197.6,4.22c0,0-0.19-0.72,0.2-0.84c0.39-0.12,0.57,1.23,0.57,1.23s0.09,0.83-0.14,0.87
		C197.98,5.51,197.69,4.98,197.6,4.22"/>
	<path class="st0" d="M198.76,3.44c0,0-0.01-0.51,0.23-0.5c0.25,0.01,0.48,0.56,0.53,1.04c0.05,0.48,0.04,1.01-0.12,1.06
		C199.23,5.08,198.84,4.6,198.76,3.44"/>
	<path class="st0" d="M200.13,3.63c0,0-0.14-0.9,0.17-1.02c0.31-0.12,0.47,0.69,0.55,1.25C200.93,4.5,200.48,5.62,200.13,3.63"/>
	<path class="st0" d="M201.57,3.36c0,0-0.14-0.9,0.17-1.02c0.31-0.12,0.47,0.69,0.55,1.25C202.37,4.23,201.92,5.36,201.57,3.36"/>
	<path class="st0" d="M202.94,3.14c0,0-0.06-0.93,0.26-1.03c0.33-0.1,0.42,0.74,0.44,1.33C203.67,4.1,203.11,5.21,202.94,3.14"/>
	<path class="st0" d="M204.3,2.98c0,0-0.02-0.94,0.31-1.02c0.33-0.08,0.38,0.76,0.38,1.35C204.99,3.97,204.38,5.06,204.3,2.98"/>
	<path class="st0" d="M205.68,2.97c0,0,0.01-0.94,0.34-1.01c0.33-0.07,0.36,0.77,0.34,1.36C206.34,3.98,205.69,5.05,205.68,2.97"/>
	<path class="st0" d="M207.25,2.64c0,0,0.04-0.42,0.36-0.4c0.32,0.02,0.11,1.27-0.07,1.23C207.36,3.42,207.25,3.21,207.25,2.64"/>
	<path class="st0" d="M215.24,6.82c0,0,0.69-0.6,0.96-0.4c0.27,0.2-0.33,0.77-0.77,1.12C214.92,7.96,213.73,8.18,215.24,6.82"/>
	<path class="st0" d="M216.22,7.77c0,0,0.68-0.56,0.94-0.35c0.26,0.21-0.33,0.74-0.77,1.08C215.89,8.89,214.73,9.04,216.22,7.77"/>
	<path class="st0" d="M217.14,8.91c0,0,0.74-0.43,0.95-0.18c0.21,0.25-0.44,0.67-0.91,0.92C216.65,9.94,215.51,9.88,217.14,8.91"/>
	<path class="st0" d="M217.82,10.08c0,0,0.72-0.31,0.89-0.03c0.17,0.28-0.47,0.59-0.92,0.77C217.26,11.03,216.23,10.8,217.82,10.08"
		/>
	<path class="st0" d="M217.97,11.64c0,0,0.78-0.31,0.59,0.32c-0.19,0.63-0.83,0.64-0.93,0.39
		C217.53,12.09,217.68,11.75,217.97,11.64"/>
	<rect x="0.54" y="19.59" class="st0" width="7.6" height="29.6"/>
	<path class="st0" d="M49.85,27.09h6.81v4.14c1.52-3.02,5.23-4.55,8.74-4.44c4.34,0.13,7.9,2.38,7.98,8.23v14.16h-7.67V38.27
		c0-4.71-1.98-5.31-4.1-5.31c-2.27,0-4.23,1.23-4.23,5.57v10.65h-7.53V27.09z"/>
	<path class="st0" d="M95.78,19.59h-9.84l-11.33,29.6h7.94l2.6-6.7h11.19l2.62,6.7h8.51L95.78,19.59z M87.05,37.12l3.74-11.24
		l3.74,11.24H87.05z"/>
	<rect x="108.74" y="27.09" class="st0" width="7.31" height="22.1"/>
	<path class="st0" d="M118.32,27.06l6.59,0v4.59c1-3.66,4.35-5.42,9.27-4.94v6.47c-3.04-0.84-7.94,0.48-8.3,4.77l-0.01,11.24h-7.54
		V27.06z"/>
	<rect x="108.7" y="17.6" class="st0" width="7.37" height="7.37"/>
	<path class="st0" d="M47.32,33.26c-0.49-3.66-4.06-5.22-4.06-5.22c-8.46-2.89-15.23,0.48-15.23,0.48L28,33.44
		c0,0,3.22-1.73,7.95-1.44c4.73,0.28,4.02,3.41,4.02,3.41h-5.3c-3.8,0-8.8,1.84-9.31,5.99c-0.51,4.16,1.69,8.02,7.23,8.11
		c5.53,0.1,7.8-3.1,7.8-3.1c0.3,1.56,0.78,2.77,0.78,2.77h7.28C47.04,46.17,47.81,36.92,47.32,33.26 M36.32,44.61
		c-1.08,0.04-3.99,0-3.65-2.6c0.34-2.6,4.16-2.74,4.16-2.74h3.14C40.21,44.21,37.4,44.57,36.32,44.61"/>
	<path class="st0" d="M10.51,27.06l6.59,0v4.59c1-3.66,4.35-5.42,9.27-4.94v6.47c-3.04-0.84-7.94,0.48-8.3,4.77l-0.01,11.24h-7.54
		V27.06z"/>
	<polygon class="st1" points="37.31,65.65 37.31,58.32 34.69,58.32 34.69,56.83 41.7,56.83 41.7,58.32 39.09,58.32 39.09,65.65 	"/>
	<path class="st1" d="M44.52,56.83v3.24c0.55-0.64,1.2-0.96,1.96-0.96c0.39,0,0.74,0.07,1.05,0.22c0.31,0.14,0.55,0.33,0.71,0.55
		c0.16,0.22,0.27,0.47,0.32,0.75c0.06,0.27,0.09,0.7,0.09,1.27v3.75h-1.69v-3.38c0-0.67-0.03-1.1-0.1-1.28
		c-0.06-0.18-0.18-0.32-0.34-0.43c-0.16-0.11-0.37-0.16-0.61-0.16c-0.28,0-0.53,0.07-0.75,0.2c-0.22,0.14-0.38,0.34-0.48,0.62
		c-0.1,0.27-0.15,0.68-0.15,1.22v3.2h-1.69v-8.82H44.52z"/>
	<path class="st1" d="M54.06,63.69l1.74-0.01c-0.22,0.62-0.5,1.27-1.08,1.63c-0.48,0.3-1.05,0.48-1.75,0.48
		c-1.11,0-1.93-0.36-2.47-1.09c-0.42-0.58-0.63-1.32-0.63-2.2c0-1.06,0.28-1.89,0.83-2.49c0.55-0.6,1.25-0.9,2.1-0.9
		c0.95,0,1.7,0.31,2.25,0.94c0.55,0.63,0.81,1.59,0.79,2.88H51.6c0.01,0.5,0.15,0.89,0.41,1.17c0.26,0.28,0.59,0.42,0.97,0.42
		c0.27,0,0.49-0.07,0.67-0.22C53.83,64.17,53.97,64.01,54.06,63.69 M54.16,61.91c-0.01-0.49-0.14-0.86-0.38-1.12
		c-0.24-0.25-0.53-0.38-0.88-0.38c-0.37,0-0.67,0.13-0.91,0.4c-0.24,0.27-0.36,0.63-0.35,1.09H54.16z"/>
	<path class="st1" d="M68.47,65.65h-1.94l-0.77-2h-3.53l-0.73,2h-1.89l3.44-8.82h1.88L68.47,65.65z M65.19,62.16l-1.22-3.27
		l-1.19,3.27H65.19z"/>
	<path class="st1" d="M69.38,56.83h1.69v1.56h-1.69V56.83z M69.38,59.26h1.69v6.39h-1.69V59.26z"/>
	<path class="st1" d="M74.5,65.65h-1.69v-6.39h1.57v0.91c0.27-0.43,0.51-0.71,0.72-0.85c0.21-0.14,0.46-0.2,0.73-0.2
		c0.38,0,0.76,0.11,1.11,0.32l-0.52,1.47c-0.29-0.18-0.55-0.28-0.79-0.28c-0.24,0-0.44,0.07-0.6,0.2c-0.16,0.13-0.29,0.37-0.39,0.71
		c-0.09,0.34-0.14,1.06-0.14,2.14V65.65z"/>
	<rect x="77.59" y="56.83" class="st1" width="1.69" height="8.82"/>
	<path class="st1" d="M81.01,56.83h1.69v1.56h-1.69V56.83z M81.01,59.26h1.69v6.39h-1.69V59.26z"/>
	<path class="st1" d="M90.21,65.65h-1.69v-3.26c0-0.69-0.04-1.14-0.11-1.34c-0.07-0.2-0.19-0.36-0.35-0.47
		c-0.16-0.11-0.36-0.17-0.59-0.17c-0.29,0-0.56,0.08-0.79,0.24c-0.23,0.16-0.39,0.37-0.48,0.64c-0.09,0.26-0.13,0.75-0.13,1.47v2.89
		h-1.69v-6.39h1.57v0.94c0.56-0.72,1.26-1.08,2.11-1.08c0.37,0,0.71,0.07,1.02,0.2c0.31,0.13,0.54,0.31,0.7,0.51
		c0.16,0.21,0.27,0.45,0.33,0.71c0.06,0.26,0.09,0.64,0.09,1.14V65.65z"/>
	<path class="st1" d="M101.74,62.36c0-0.56,0.14-1.11,0.42-1.63c0.28-0.53,0.67-0.93,1.18-1.2c0.51-0.28,1.07-0.41,1.7-0.41
		c0.97,0,1.76,0.31,2.38,0.94c0.62,0.63,0.93,1.42,0.93,2.38c0,0.97-0.31,1.77-0.94,2.4c-0.62,0.64-1.41,0.95-2.36,0.95
		c-0.59,0-1.14-0.13-1.68-0.4c-0.53-0.26-0.94-0.65-1.21-1.16C101.87,63.72,101.74,63.1,101.74,62.36 M103.47,62.45
		c0,0.63,0.15,1.12,0.45,1.46c0.3,0.34,0.67,0.51,1.11,0.51s0.81-0.17,1.11-0.51c0.3-0.34,0.45-0.83,0.45-1.47
		c0-0.63-0.15-1.11-0.45-1.44c-0.3-0.34-0.67-0.51-1.11-0.51s-0.81,0.17-1.11,0.51C103.62,61.33,103.47,61.82,103.47,62.45"/>
	<path class="st1" d="M108.91,59.26h0.94v-0.48c0-0.54,0.06-0.94,0.17-1.2c0.11-0.26,0.32-0.48,0.63-0.65
		c0.31-0.17,0.7-0.25,1.16-0.25c0.48,0,0.95,0.07,1.41,0.22l-0.23,1.18c-0.27-0.06-0.53-0.1-0.78-0.1c-0.24,0-0.42,0.06-0.53,0.17
		c-0.11,0.11-0.16,0.33-0.16,0.66v0.45h1.26v1.33h-1.26v5.06h-1.69v-5.06h-0.94V59.26z"/>
	<path class="st1" d="M120.04,59.26v1.35h-1.15v2.58c0,0.52,0.01,0.82,0.03,0.91c0.02,0.09,0.07,0.16,0.15,0.21
		c0.08,0.06,0.17,0.08,0.29,0.08c0.16,0,0.38-0.05,0.68-0.16l0.14,1.31c-0.39,0.17-0.84,0.25-1.34,0.25c-0.3,0-0.58-0.05-0.82-0.15
		c-0.24-0.1-0.42-0.23-0.54-0.4c-0.11-0.16-0.19-0.38-0.24-0.66c-0.04-0.2-0.05-0.59-0.05-1.19v-2.79h-0.78v-1.35h0.78v-2.27
		l1.7,0.02v2.26H120.04z"/>
	<path class="st1" d="M122.9,56.83v3.24c0.55-0.64,1.2-0.96,1.96-0.96c0.39,0,0.74,0.07,1.05,0.22c0.31,0.14,0.55,0.33,0.71,0.55
		c0.16,0.22,0.27,0.47,0.32,0.75c0.06,0.27,0.09,0.7,0.09,1.27v3.75h-1.69v-3.38c0-0.67-0.03-1.1-0.1-1.28
		c-0.06-0.18-0.18-0.32-0.34-0.43c-0.16-0.11-0.37-0.16-0.61-0.16c-0.28,0-0.53,0.07-0.75,0.2c-0.22,0.14-0.38,0.34-0.48,0.62
		c-0.1,0.27-0.15,0.68-0.15,1.22v3.2h-1.69v-8.82H122.9z"/>
	<rect y="69.11" class="st1" width="1.78" height="8.46"/>
	<path class="st1" d="M2.73,75.88l1.7-0.25c0.07,0.31,0.22,0.55,0.44,0.71c0.22,0.16,0.53,0.24,0.93,0.24
		c0.44,0,0.77-0.08,0.99-0.23C6.92,76.25,7,76.11,7,75.93c0-0.12-0.04-0.22-0.12-0.3c-0.08-0.08-0.27-0.15-0.57-0.21
		c-1.36-0.29-2.23-0.55-2.59-0.79c-0.51-0.33-0.76-0.79-0.76-1.37c0-0.53,0.22-0.97,0.66-1.33c0.44-0.36,1.12-0.54,2.03-0.54
		c0.87,0,1.52,0.14,1.95,0.41c0.42,0.27,0.72,0.67,0.88,1.2l-1.59,0.28c-0.07-0.24-0.2-0.42-0.39-0.54
		c-0.19-0.13-0.46-0.19-0.82-0.19c-0.45,0-0.76,0.06-0.96,0.18c-0.13,0.08-0.19,0.19-0.19,0.33c0,0.12,0.06,0.21,0.17,0.29
		c0.15,0.11,0.68,0.26,1.58,0.45c0.9,0.2,1.53,0.43,1.89,0.72c0.35,0.29,0.53,0.69,0.53,1.2c0,0.56-0.24,1.04-0.73,1.44
		c-0.49,0.4-1.21,0.6-2.17,0.6c-0.87,0-1.56-0.17-2.07-0.5C3.21,76.91,2.88,76.46,2.73,75.88"/>
	<rect x="10.14" y="69.11" class="st1" width="1.69" height="8.46"/>
	<path class="st1" d="M14.68,73.39l-1.53-0.26c0.17-0.59,0.47-1.02,0.89-1.31c0.42-0.28,1.05-0.42,1.88-0.42
		c0.75,0,1.31,0.09,1.68,0.26c0.37,0.17,0.63,0.39,0.78,0.65c0.15,0.26,0.23,0.74,0.23,1.44l-0.02,1.88c0,0.54,0.03,0.93,0.08,1.18
		c0.05,0.25,0.16,0.53,0.3,0.82H17.3c-0.04-0.11-0.1-0.27-0.16-0.48c-0.03-0.1-0.05-0.16-0.06-0.19c-0.29,0.27-0.6,0.47-0.93,0.6
		c-0.33,0.13-0.68,0.2-1.05,0.2c-0.66,0-1.18-0.17-1.56-0.51c-0.38-0.34-0.57-0.77-0.57-1.29c0-0.34,0.09-0.65,0.26-0.92
		c0.17-0.27,0.41-0.48,0.72-0.62c0.31-0.14,0.76-0.27,1.34-0.38c0.79-0.14,1.34-0.27,1.64-0.4v-0.16c0-0.31-0.08-0.53-0.24-0.66
		c-0.16-0.13-0.46-0.2-0.91-0.2c-0.3,0-0.54,0.06-0.7,0.17C14.92,72.91,14.79,73.1,14.68,73.39 M16.94,74.69
		c-0.22,0.07-0.56,0.15-1.03,0.25c-0.47,0.1-0.78,0.19-0.92,0.28c-0.22,0.15-0.33,0.34-0.33,0.57c0,0.23,0.09,0.42,0.26,0.58
		c0.18,0.16,0.4,0.25,0.67,0.25c0.3,0,0.6-0.1,0.87-0.29c0.2-0.14,0.34-0.32,0.4-0.53c0.04-0.14,0.07-0.4,0.07-0.78V74.69z"/>
	<path class="st1" d="M20.11,71.54h1.53v0.87c0.55-0.68,1.2-1.02,1.95-1.02c0.4,0,0.75,0.08,1.04,0.25c0.3,0.17,0.54,0.42,0.73,0.76
		c0.28-0.34,0.57-0.6,0.89-0.76c0.32-0.17,0.66-0.25,1.02-0.25c0.46,0,0.85,0.1,1.17,0.29c0.32,0.19,0.56,0.47,0.71,0.84
		c0.11,0.27,0.17,0.71,0.17,1.32v3.73h-1.66v-3.29c0-0.63-0.06-1.04-0.17-1.23c-0.15-0.24-0.39-0.36-0.71-0.36
		c-0.23,0-0.45,0.07-0.66,0.22c-0.2,0.14-0.35,0.36-0.44,0.63c-0.09,0.28-0.14,0.72-0.14,1.32v2.71H23.9v-3.14
		c0-0.62-0.03-1.02-0.09-1.2c-0.06-0.18-0.15-0.31-0.27-0.4c-0.12-0.09-0.29-0.13-0.5-0.13c-0.26,0-0.49,0.07-0.69,0.21
		c-0.2,0.14-0.35,0.34-0.44,0.61c-0.09,0.27-0.13,0.7-0.13,1.32v2.75h-1.66V71.54z"/>
	<path class="st1" d="M30.94,69.11h1.69v1.56h-1.69V69.11z M30.94,71.54h1.69v6.03h-1.69V71.54z"/>
	<path class="st1" d="M37.08,72.72c-0.42,0-0.76,0.15-1.01,0.44c-0.25,0.29-0.38,0.71-0.38,1.39c0,0.76,0.13,1.19,0.38,1.5
		c0.25,0.31,0.6,0.47,1.03,0.47c0,0,1.17-0.08,1.17-1.18h1.58c0,0-0.2,2.56-2.83,2.56c-0.93,0-1.68-0.3-2.24-0.88
		c-0.56-0.59-0.83-1.3-0.83-2.34c0-1.06,0.28-1.8,0.84-2.39c0.56-0.59,1.31-0.88,2.26-0.88c0,0,2.77-0.18,2.77,2.35h-1.63
		c0,0-0.07-1.02-1.14-1.02"/>
	<path class="st1" d="M51.3,76.84c0.01,0.72,0.14,0.79,0.14,0.79h-2.18v-1.67c-0.13-1.88-1.69-1.78-1.69-1.78h-1.32v3.47h-1.78
		v-8.25h3.64c0.94,0,1.63,0.08,2.05,0.24c0.43,0.16,0.77,0.44,1.03,0.85c0.26,0.4,0.38,0.69,0.38,1.21c0,0.66-0.19,1.21-0.58,1.64
		c-0.25,0.28-0.58,0.49-0.99,0.63c0,0,1.18,0.42,1.24,1.61C51.31,76.73,51.3,76.84,51.3,76.84 M46.26,72.91h1.32
		c0.85,0,1.39-0.04,1.6-0.11c0.21-0.07,0.38-0.2,0.5-0.37c0.12-0.18,0.18-0.4,0.18-0.66c0-0.3-0.08-0.43-0.24-0.61
		c-0.16-0.18-0.38-0.3-0.67-0.35c-0.14-0.02-0.58-0.03-1.3-0.03h-1.39V72.91z"/>
	<path class="st1" d="M59.79,71.54h1.58v0.94c0.21-0.32,0.48-0.58,0.83-0.78c0.35-0.2,0.74-0.3,1.16-0.3c0.74,0,1.37,0.29,1.89,0.87
		c0.52,0.58,0.78,1.39,0.78,2.43c0,1.07-0.26,1.54-0.78,2.13c-0.52,0.59-1.15,0.89-1.9,0.89c-0.35,0-0.67-0.07-0.96-0.21
		c-0.29-0.14-0.59-0.38-0.91-0.72V80h-1.69V71.54z M61.46,74.62c0,0.72,0.14,1.03,0.43,1.38c0.28,0.34,0.63,0.51,1.04,0.51
		c0.39,0,0.72-0.16,0.98-0.47c0.26-0.31,0.39-0.62,0.39-1.33c0-0.67-0.13-1.17-0.4-1.49c-0.27-0.33-0.6-0.49-1-0.49
		c-0.41,0-0.76,0.16-1.03,0.48C61.6,73.53,61.46,74,61.46,74.62"/>
	<path class="st1" d="M71.44,77.57v-0.96c-0.23,0.34-0.54,0.61-0.92,0.81c-0.38,0.2-0.78,0.29-1.2,0.29c-0.43,0-0.81-0.09-1.15-0.28
		c-0.34-0.19-0.59-0.45-0.74-0.79c-0.15-0.34-0.23-0.81-0.23-1.41v-3.68h1.69v2.94c0,0.9,0.03,1.09,0.09,1.29
		c0.06,0.2,0.18,0.36,0.34,0.48c0.16,0.12,0.37,0.18,0.63,0.18c0.29,0,0.55-0.08,0.78-0.24c0.23-0.16,0.38-0.36,0.47-0.59
		c0.08-0.23,0.13-0.45,0.13-1.36v-2.7h1.69v6.03H71.44z"/>
	<path class="st1" d="M74.5,77.61v-8.15h1.69v2.82c0.52-0.59,1.14-0.89,1.85-0.89c0.78,0,1.42,0.28,1.93,0.85
		c0.51,0.56,0.76,1.22,0.76,2.23c0,1.05-0.26,1.86-0.78,2.43c-0.52,0.57-1.15,0.85-1.89,0.85c-0.37,0-0.72-0.09-1.08-0.26
		c-0.35-0.18-0.66-0.44-0.92-0.78v0.9H74.5z M76.18,74.4c0,0.64,0.1,1.11,0.31,1.41c0.29,0.43,0.68,0.65,1.17,0.65
		c0.37,0,0.69-0.15,0.95-0.46C78.87,75.7,79,75.22,79,74.56c0-0.7-0.13-1.06-0.4-1.38c-0.26-0.32-0.6-0.48-1.02-0.48
		c-0.41,0-0.74,0.16-1.01,0.47C76.31,73.48,76.18,73.79,76.18,74.4"/>
	<rect x="82.07" y="69.47" class="st1" width="1.69" height="8.1"/>
	<path class="st1" d="M85.49,69.47h1.69v1.56h-1.69V69.47z M85.49,71.54h1.69v6.03h-1.69V71.54z"/>
	<path class="st1" d="M98.49,74.49c0-0.54,0.13-1.05,0.4-1.56c0.27-0.5,0.65-0.88,1.15-1.15c0.49-0.26,1.05-0.4,1.66-0.4
		c0.94,0,1.72,0.3,2.32,0.9c0.6,0.6,0.9,1.35,0.9,2.27c0,0.92-0.3,1.69-0.91,2.29c-0.61,0.61-1.37,0.91-2.3,0.91
		c-0.57,0-1.12-0.13-1.63-0.38c-0.52-0.25-0.91-0.62-1.18-1.11C98.62,75.79,98.49,75.19,98.49,74.49 M100.18,74.58
		c0,0.6,0.15,1.07,0.44,1.39c0.29,0.32,0.65,0.48,1.09,0.48c0.43,0,0.79-0.16,1.08-0.48c0.29-0.32,0.44-0.79,0.44-1.4
		c0-0.6-0.15-1.06-0.44-1.38c-0.29-0.32-0.65-0.48-1.08-0.48c-0.43,0-0.79,0.16-1.09,0.48C100.32,73.51,100.18,73.97,100.18,74.58"
		/>
	<path class="st1" d="M105.46,71.61h0.94v-0.34c0-0.54,0.06-0.94,0.17-1.2c0.11-0.26,0.32-0.48,0.63-0.65
		c0.31-0.17,0.7-0.25,1.16-0.25c0.48,0,0.95,0.07,1.41,0.22l-0.23,1.18c-0.27-0.06-0.53-0.1-0.78-0.1c-0.24,0-0.42,0.06-0.53,0.17
		c-0.11,0.11-0.16,0.33-0.16,0.66v0.31h1.26v1.33h-1.26v4.63h-1.69v-4.63h-0.94V71.61z"/>
	<rect x="113.67" y="69.47" class="st1" width="1.78" height="8.1"/>
	<path class="st1" d="M118.65,77.57h-1.69v-6.03h1.57v0.91c0.27-0.43,0.51-0.71,0.72-0.85c0.21-0.14,0.46-0.2,0.73-0.2
		c0.38,0,0.76,0.11,1.11,0.32l-0.52,1.47c-0.29-0.18-0.55-0.28-0.79-0.28c-0.24,0-0.44,0.07-0.6,0.2c-0.16,0.13-0.29,0.37-0.39,0.71
		c-0.09,0.34-0.14,1.06-0.14,2.14V77.57z"/>
	<path class="st1" d="M122.98,73.39l-1.53-0.26c0.17-0.59,0.47-1.02,0.89-1.31c0.42-0.28,1.05-0.42,1.88-0.42
		c0.75,0,1.31,0.09,1.68,0.26s0.63,0.39,0.78,0.65c0.15,0.26,0.23,0.74,0.23,1.44l-0.02,1.88c0,0.54,0.03,0.93,0.08,1.18
		c0.05,0.25,0.16,0.53,0.3,0.82h-1.67c-0.04-0.11-0.1-0.27-0.16-0.48c-0.03-0.1-0.05-0.16-0.06-0.19c-0.29,0.27-0.6,0.47-0.93,0.6
		c-0.33,0.13-0.68,0.2-1.05,0.2c-0.66,0-1.18-0.17-1.56-0.51c-0.38-0.34-0.57-0.77-0.57-1.29c0-0.34,0.09-0.65,0.26-0.92
		c0.17-0.27,0.41-0.48,0.72-0.62c0.31-0.14,0.76-0.27,1.34-0.38c0.79-0.14,1.34-0.27,1.64-0.4v-0.16c0-0.31-0.08-0.53-0.24-0.66
		c-0.16-0.13-0.46-0.2-0.91-0.2c-0.3,0-0.54,0.06-0.7,0.17C123.22,72.91,123.08,73.1,122.98,73.39 M125.24,74.69
		c-0.22,0.07-0.56,0.15-1.03,0.25c-0.47,0.1-0.78,0.19-0.92,0.28c-0.22,0.15-0.33,0.34-0.33,0.57c0,0.23,0.09,0.42,0.26,0.58
		c0.18,0.16,0.4,0.25,0.67,0.25c0.3,0,0.6-0.1,0.87-0.29c0.21-0.14,0.34-0.32,0.4-0.53c0.04-0.14,0.07-0.4,0.07-0.78V74.69z"/>
	<path class="st1" d="M134.24,77.57h-1.69v-2.9c0-0.69-0.04-1.14-0.11-1.34s-0.19-0.36-0.35-0.47c-0.16-0.11-0.36-0.17-0.59-0.17
		c-0.29,0-0.56,0.08-0.79,0.24c-0.23,0.16-0.39,0.37-0.48,0.64c-0.09,0.27-0.13,0.75-0.13,1.47v2.53h-1.69v-6.03h1.57v0.94
		c0.56-0.72,1.26-1.08,2.11-1.08c0.37,0,0.71,0.07,1.02,0.2c0.31,0.13,0.54,0.31,0.7,0.51c0.16,0.21,0.27,0.45,0.33,0.71
		c0.06,0.27,0.09,0.64,0.09,1.14V77.57z"/>
	<path class="st1" d="M91.57,72.56c-0.42,0-0.76,0.15-1.01,0.44c-0.25,0.29-0.38,0.71-0.38,1.39c0,0.76,0.13,1.19,0.38,1.5
		c0.25,0.31,0.6,0.47,1.03,0.47c0,0,1.17-0.08,1.17-1.18h1.58c0,0-0.2,2.56-2.83,2.56c-0.93,0-1.68-0.3-2.24-0.88
		c-0.56-0.59-0.83-1.3-0.83-2.34c0-1.06,0.28-1.8,0.84-2.39c0.56-0.59,1.31-0.88,2.26-0.88c0,0,2.77-0.18,2.77,2.35h-1.63
		c0,0-0.07-1.02-1.14-1.02"/>
	<path class="st1" d="M95.55,63.62l1.74-0.01c-0.22,0.62-0.5,1.27-1.08,1.63c-0.48,0.3-1.05,0.48-1.75,0.48
		c-1.11,0-1.93-0.36-2.47-1.09c-0.42-0.58-0.63-1.32-0.63-2.2c0-1.06,0.28-1.89,0.83-2.49c0.55-0.6,1.25-0.9,2.1-0.9
		c0.95,0,1.7,0.31,2.25,0.94c0.55,0.63,0.81,1.59,0.79,2.88h-4.24c0.01,0.5,0.15,0.89,0.41,1.17c0.26,0.28,0.59,0.42,0.97,0.42
		c0.27,0,0.49-0.07,0.67-0.22C95.32,64.1,95.46,63.94,95.55,63.62 M95.65,61.83c-0.01-0.49-0.14-0.86-0.38-1.12
		c-0.24-0.25-0.53-0.38-0.88-0.38c-0.37,0-0.67,0.13-0.91,0.4c-0.24,0.27-0.36,0.63-0.35,1.09H95.65z"/>
	<path class="st1" d="M132.41,63.69l1.74-0.01c-0.22,0.62-0.5,1.27-1.08,1.63c-0.48,0.3-1.05,0.48-1.75,0.48
		c-1.11,0-1.93-0.36-2.47-1.09c-0.42-0.58-0.63-1.32-0.63-2.2c0-1.06,0.28-1.89,0.83-2.49c0.55-0.6,1.25-0.9,2.1-0.9
		c0.95,0,1.7,0.31,2.25,0.94c0.55,0.63,0.81,1.59,0.79,2.88h-4.24c0.01,0.5,0.15,0.89,0.41,1.17c0.26,0.28,0.59,0.42,0.97,0.42
		c0.27,0,0.49-0.07,0.67-0.22C132.18,64.17,132.32,64.01,132.41,63.69 M132.5,61.91c-0.01-0.49-0.14-0.86-0.38-1.12
		c-0.24-0.25-0.53-0.38-0.88-0.38c-0.37,0-0.67,0.13-0.91,0.4c-0.24,0.27-0.36,0.63-0.35,1.09H132.5z"/>
	<path class="st1" d="M56.83,75.8l1.74-0.01c-0.22,0.62-0.5,1.27-1.08,1.63c-0.48,0.3-1.05,0.48-1.75,0.48
		c-1.11,0-1.93-0.36-2.47-1.09c-0.42-0.58-0.63-1.32-0.63-2.2c0-1.06,0.28-1.89,0.83-2.49c0.55-0.6,1.25-0.9,2.1-0.9
		c0.95,0,1.7,0.31,2.25,0.94c0.55,0.63,0.81,1.59,0.79,2.88h-4.24c0.01,0.5,0.15,0.89,0.41,1.17c0.26,0.28,0.59,0.42,0.97,0.42
		c0.27,0,0.49-0.07,0.67-0.22C56.6,76.28,56.74,76.12,56.83,75.8 M56.93,74.02c-0.01-0.49-0.14-0.86-0.38-1.12
		c-0.24-0.25-0.53-0.38-0.88-0.38c-0.37,0-0.67,0.13-0.91,0.4c-0.24,0.27-0.36,0.63-0.35,1.09H56.93z"/>
</g>
</svg>
