<?xml version="1.0" encoding="utf-8"?>
<!-- Generator: Adobe Illustrator 25.4.1, SVG Export Plug-In . SVG Version: 6.00 Build 0)  -->
<svg version="1.1" id="Layer_1" xmlns="http://www.w3.org/2000/svg" xmlns:xlink="http://www.w3.org/1999/xlink" x="0px" y="0px"
	 viewBox="0 0 255.3 80" style="enable-background:new 0 0 255.3 80;" xml:space="preserve">
<style type="text/css">
	.st0{fill:#ED222B;}
	.st1{fill:#222D6B;}
</style>
<g>
	<g>
		<path class="st0" d="M14.3,39.1c2-1.9,2.4,0.3,3.3,0.1c6.3-4.9,8-14,14.7-18.2c2.5-2,5.6-2.7,8.5-3.9c-9.9,0.8-16.2,9.2-21.8,16.4
			c-1.3,1.3-2.8,2.3-4.7,2.3c-0.2,0-0.2,0.1-0.3,0.2c-0.4,0.7-0.4,1.9-1.4,1.9c-1.8,0.1-1.3,4.8-1.3,6.1
			C12.5,42.6,12.8,40.4,14.3,39.1z"/>
		<path class="st0" d="M52.4,27.3c-5.2-0.1-11-4.5-15.9-3.6c5,1.4,14.7,10.6,18,3.5C53.8,27.3,53.1,27.4,52.4,27.3z"/>
		<path class="st0" d="M36.6,17.4c3.7-1.2,7.8-2.3,10.7-5.1c2.2-2.7,4-6.5,3.2-10C48.4,9.5,42,13.3,36.2,17.4
			C36.4,17.5,36.5,17.4,36.6,17.4z"/>
		<path class="st0" d="M43.7,16c7.8,0.6,12.6-3.4,13.7-11.2C53.7,9.7,49,13.2,43.7,16z"/>
		<path class="st0" d="M40.1,31.5c-2.3-1.4-4.4-3.2-7.2-3.6c1.9,1.9,4.1,3.2,5.8,5.3c2.4,3.1,8.3,5.5,11,1.5
			C46.2,34.7,42.9,33.4,40.1,31.5z"/>
		<path class="st0" d="M51.7,30.9c-5.5-0.2-12.1-4.2-16.7-4.8c4.7,2.1,8.7,7.7,14.2,7.1c1.1-0.2,2.1-0.8,2.7-1.9
			C52.1,31,52.1,30.9,51.7,30.9z"/>
		<path class="st0" d="M20.7,46c0.1,0.4,0.3,0,0-0.1c-0.8-1.7-1.5-3.6-2.4-5.2c-1.1-0.1-1.3,1.1-1.9-0.6c-0.5-0.9-2,0.5-2.4,1
			c-1.6,2.1-3.1,6.1-0.9,8.2c0.2-1.9-0.6-4.3,0.9-5.8c-0.5,2.6-0.7,5.6,1.6,7.4c-0.8-3-1.1-6,0-9c0.5,1.5,1.7,2.6,2.1,4.2
			c0.1,0.4,0.3,0.8,0.7,1.1c0-1.8-1.5-3.4-1.3-5.1C18.9,42.3,19.6,44.8,20.7,46z"/>
		<path class="st0" d="M39.3,48.3C35.9,46.6,33,44,30.7,41c-1.1-1.3-2.6-2.6-4-3.4c0.9,1.6,2,3.3,3.1,4.9
			C31.7,45.9,34.9,51.3,39.3,48.3z M29.3,41.3C29.4,41.3,29.4,41.3,29.3,41.3C29.4,41.4,29.4,41.3,29.3,41.3z"/>
		<path class="st0" d="M40,36.3c-2.9-1.4-4.8-4.6-8-5.3c2.4,3.2,5.3,6.1,8.7,8.2c2.1,1.5,4.4,0.5,6.4-0.7C44.6,38,42.2,37.7,40,36.3
			z"/>
		<path class="st0" d="M44,41.5c-4.3-0.7-7.8-3.5-11-6.3c-1.2-0.9-2.2-2.3-3.7-2.6c3.6,2.6,10.1,14.9,14.9,9.3
			C44.4,41.6,44.4,41.5,44,41.5z"/>
		<path class="st0" d="M25.9,15.5c-1.9,0-3.9,0.1-5.7,0.9c3.6,0.2,7.2,0.4,10.8,0.5c2-0.1,5.5,0.8,5.7-2c0-0.3,0.2-1.7-0.4-1.5
			C33,14.7,29.6,15.7,25.9,15.5z"/>
		<path class="st0" d="M41.8,44.6c-2.2-0.4-4.1-1.5-5.9-2.9c0,0,0,0,0,0c-1.5-1.3-3-2.7-4.5-4c-1.1-0.8-2-2.2-3.4-2.5
			c3.4,3.3,8.2,14.5,13.8,9.8C42.1,44.8,42.1,44.7,41.8,44.6z M35.3,42.1C35.3,42.1,35.3,42.1,35.3,42.1
			C35.3,42.1,35.3,42.1,35.3,42.1z"/>
		<path class="st0" d="M11.4,36.3c0.2,0.4,0.3,0.8,0.5,1.2c0.6-0.7,0.2-2.6,1.3-2.6c0.2,0,0.3-0.1,0.2-0.3c-0.7-1.8-1.2-4-3.4-4.5
			c-1.2-0.3-2.3-0.2-3.2,0.9c-0.3,0.3-1.4,2.7-0.8,2.6c0.7-0.3,0.8-1.1,1.2-1.7c0.9-1.4,2.3-0.8,2.6,0.7c0.4-0.1,0.6-0.9,1-0.7
			c0.6,0.5,1.1,1.2,0.7,2.1c-0.3,0.1-0.3-0.5-0.6-0.6c-0.3,0.5-0.4,1.2-0.7,1.9c-3.2-6.5-1.7,1.3,0.3,3.4
			C10.8,37.9,11.1,37.2,11.4,36.3z"/>
		<path class="st0" d="M34.9,66.8c-2.1-2.3-4.9-3.8-7.6-5.3c-0.1-0.1-0.2-0.2-0.3-0.2h0c-3.3-1.9-6.7-3.9-10-5.9
			c-0.2-0.3-0.4,0-0.1,0.2c0,0,0,0,0,0c2.4,2.2,4.9,4.4,7.7,6.1c0,0.1,0.1,0.2,0.2,0.1c3.5,2.2,7.4,3.7,10.1,7c1.6,1.9,3,3.8,4,6.1
			c0.8,1.6,0.8,3.5,1.6,5.1C40.4,75,38.2,70.4,34.9,66.8z"/>
		<path class="st0" d="M49.4,20c-1.1-0.1-2.3-0.2-3.5-0.2c-0.8,0-0.9,1.1-0.2,1.2c2.2,0.5,4.4,0.9,6.6,1.3v0
			c1.3,0.4,3.6-0.3,4.3-1.2c0,0,0.1-0.2,0.1-0.2c0.2-0.2,1.9-2.6,1.8-2.5C55.6,19.8,52.6,20.2,49.4,20z"/>
		<path class="st0" d="M22.9,13.3c-0.7,0.1-1.3,0.3-1.9,0.6c4.5,0.3,9.1-0.3,13.6-1c1.8-0.5,1.5-2.6,1.2-3.9c0-0.2-0.1-0.1-0.3,0
			C32.2,12.5,27.3,12.5,22.9,13.3z"/>
		<path class="st0" d="M31.8,52.2c-3.1-3.7-5.8-7.9-9-11.3c0.3,1.1,1.1,1.9,1.5,3C25.6,47.4,26.8,53.4,31.8,52.2z"/>
		<path class="st0" d="M36.4,50.6c-4.5-1.4-6.8-6-9.6-9.3l0,0c-2.3-2.8-3.4-3.3-0.7,0.2c0,0,0,0,0,0C28.3,44.4,31.6,55.3,36.4,50.6z
			"/>
		<path class="st0" d="M14,23.7c0.6-0.5-0.1-1.7,0.1-2.5c-0.5-4.7,2.2-9,5.9-11.4c-5.7,2.4-8.5,8.7-7.9,14.7
			C12.8,24.2,13.4,24,14,23.7z"/>
		<path class="st0" d="M6.8,43.2c1.7,0.8,2.3-2.8,2.1-4c-0.5,0.4-0.5,2.1-1.2,1c-0.2-0.2-0.3-0.6-0.5-0.7c-0.5,0.4-1,2.7-1.6,1.5
			c-0.1-0.2-0.2-0.5-0.5-0.6c0.1,0.2-0.2,0.2,0,0.4c-0.5,1.2-0.6,2.7-1.1,3.9c0.3-0.1,0.3-0.4,0.5-0.6c0.2,0.1,0.1,0.3,0.1,0.4
			c0,0,0,0,0,0c-0.3,1.7-0.8,3.7,0.4,5.2c0.7-2,1.1-4.1,1.3-6.2C6.3,43,6.3,43,6.8,43.2z M5.1,41.3C5.1,41.3,5.1,41.3,5.1,41.3
			C5.1,41.2,5.1,41.2,5.1,41.3C5.1,41.2,5.1,41.3,5.1,41.3z"/>
		<path class="st0" d="M26,63.9c-1.5-0.7-3.1-1.2-4.3-2.4c0,0,0,0,0,0c-2.4-2-4.3-4.9-7.1-6.4c1.9,2.1,3.8,4.2,5.2,6.8
			c1.2,2.1,3.9,4.3,6.2,2.6C26.4,64.2,26.4,64.2,26,63.9z"/>
		<path class="st0" d="M10.4,49.5c-2.2-0.8-1.1-0.4-1.1-2.1C8,47.2,7,48.3,6.5,46.3c-1,2.1-0.8,5,1.4,6.1c0.1-1-0.4-2.1-0.5-3.2
			C9,50.3,8.1,52.5,9.3,54c0.6-1.4,0.8-2.8,1.3-4.3C10.6,49.6,10.6,49.6,10.4,49.5z"/>
		<path class="st0" d="M24.7,52.3c0.5,0,2.4,0.6,1.7-0.5c-1.7-3-3.4-6.2-5.7-8.7c0.6,1.1,1.1,2.4,1.3,3.6
			C22.5,48.7,22.2,51.8,24.7,52.3z"/>
		<path class="st0" d="M22.6,11.3c-0.2,0-0.3,0.1-0.4,0.2c2.7-0.3,5.6-0.3,8.2-1c2-1,3.6-3.6,2.2-5.7C30.7,9.7,27.2,10.1,22.6,11.3z
			"/>
		<path class="st0" d="M9,45.1c0.8,1.4,0.4,3.3,2.8,3.8c-0.9-2.9-1.6-5.8-2-8.7c-0.2,1.6-4.3,6.8-0.7,6.4C9,46.2,8.4,45.4,9,45.1z"
			/>
		<path class="st0" d="M36.2,62.4c-0.2-0.1-0.4-0.5-0.7-0.5c-1.4-1.3-3.5-2.2-5.3-3c-4.7-1.7-9.4-3.9-14.1-5.7
			c0.1,0.1,0.2,0.2,0.3,0.2c0,0,0,0,0,0C28.3,62.6,38.7,59,44.3,76C43.8,70.4,40.3,65.8,36.2,62.4z"/>
		<path class="st0" d="M20.9,7.1c0.4-2.3,0.2-5.1-1.2-7.1c0.3,3.7-0.4,6.9-2,10.3C19.2,9.6,20.5,8.7,20.9,7.1z"/>
		<path class="st0" d="M16.2,30.7c-1.3-0.1-2.6-0.4-3.9-0.5c0.7,1.5,2.4,2.3,4,2.6c2.1,0.4,3.4-1.8,4.2-3.5v0
			c-0.2-0.1-0.2-0.1-0.3,0.1C19,30.4,17.7,30.9,16.2,30.7z"/>
		<path class="st0" d="M6.2,40c0.4-0.7,0.8-1.5,1.3-2.3c0.2,0.5,0.5,1,0.7,1.4c0.1-1,0.6-2,0.2-2.9c-0.3-0.2-0.3-0.5-0.4-0.9
			c-0.2-0.9,0.2-1.8-0.5-2.5c-0.2,0.5-0.1,2.9-0.5,2.8c-0.2-0.1-0.3-0.1-0.4,0c-0.6,0.3-1.6,0-1.6,0.9c0,1.3,0.2,2.5-0.4,3.7
			c0.8-0.5,0.9-1.6,1.8-2.1C6.2,38.8,6.1,39.4,6.2,40C6.1,40,6.1,40,6.2,40z"/>
		<path class="st0" d="M14.6,27.9c-1.2,0.3-4.3-0.5-4.4,1.2c0.5,0.8,3.9,0.6,4.9,0.6c1.7-0.3,2.5-2.1,3.5-3.4
			C17.2,26.8,16.2,27.8,14.6,27.9z"/>
		<path class="st0" d="M23.1,9.1c5.3,0,7.7-1.8,5.7-7.1c-0.8,1.9-0.9,4.7-3.1,5.9C24.9,8.4,23.8,8.4,23.1,9.1z"/>
		<path class="st0" d="M21.1,64.4c-2.5-2.1-3.6-5.6-6.1-7.7c1.8,2.9,2,9.1,6.9,8.5C21.6,64.9,21.4,64.6,21.1,64.4z"/>
		<path class="st0" d="M22.2,52.8c0.5,0,0.6,0,0.3-0.5c-1.4-2.4-2.1-5-3.7-7.3C19.1,47.6,18.4,52.7,22.2,52.8z"/>
		<path class="st0" d="M9.9,26.7c-0.6,0.6-1.1,1.4-2,1.8c1.4,1.2,2.7-1.2,4.2-1.3c1.5-0.4,2.3-1.8,2.7-3.3
			C13,24.6,11.2,25.3,9.9,26.7z"/>
		<path class="st0" d="M14.4,52c-0.1-1.3-0.8-2.3-1.4-0.5c-0.2-0.3,0.1-0.6-0.2-0.9c0,0,0,0,0,0c-0.1-0.4-0.3-0.4-0.6-0.4
			c-0.4,0-0.6,1.7-1.2,1.5c-0.5-0.3,0-0.9-0.2-1.3c-1.1,1.8-1,3.7-0.5,5.6c0.6-0.5,2-3.6,2.2-3.2c0,0,0,0,0,0
			c-0.2,1.2-1.3,2.5-0.8,3.7c0.5,0.6,0.8,1.5,1.5,1.7c0-0.7-0.7-5.8,0.9-4.3C14.5,53.5,14.4,52.7,14.4,52z"/>
		<path class="st0" d="M22.2,8.2c3.2-0.5,2.7-4.4,2.6-6.8v0c0-0.2,0-0.5-0.2-0.5c-0.3,0.1-0.1,0.7-0.3,0.9c-0.3,1.6-0.8,3.2-1.6,4.6
			C22.5,6.7,21.4,8.2,22.2,8.2z"/>
		<path class="st0" d="M9.8,25.6c0.7-0.9,1.3-2.3,0.8-3.4c-1.5,1.9-3.6,3.5-4.1,6.2C7.8,27.6,8.9,26.7,9.8,25.6z"/>
		<path class="st0" d="M16.2,49.5c0.1,1.4,1,2.4,2.3,2.5c-0.1-0.6-0.5-1.3-0.6-1.9c-0.6-1.8-0.4-3.9-1.9-5.3
			C16.3,46.4,16.1,47.9,16.2,49.5z"/>
		<path class="st0" d="M36.7,32.7c-1.4-1.6-6.7-6.4-8.9-5.2c-0.2,0.2-0.2,0.3,0.1,0.4C31,29.2,33.8,30.9,36.7,32.7z"/>
		<path class="st0" d="M5.9,22.2c-0.5,2.4-1,4.8-2,7.2C6.6,28,7.5,24.3,5.9,22.2z"/>
		<path class="st0" d="M39.9,26.4c3.3,0.9-9.1-4.7-9.4-2C33.6,25.1,36.9,25.2,39.9,26.4z"/>
		<path class="st0" d="M34,34.8c0.1,0.1,0.2,0.2,0.3,0.2c-1.7-2.3-3.9-4.4-6.5-5.8c-0.3-0.3-1.9-0.5-1.4,0.2
			C28.8,31.4,31.8,32.6,34,34.8z"/>
		<path class="st0" d="M38.6,29.4c0.1,0.1,0.2,0.2,0.3,0.1c-2.6-2-6-4.2-9.4-4.1c-0.4,0.1-0.4,0.4,0,0.5
			C32.5,27.1,35.7,27.8,38.6,29.4z"/>
		<path class="st0" d="M4.6,34.5c-1-0.6-1.5,0.2-2.4-1.3C2.1,33,2.1,33,2,33.1c-1.2,1.4-2.8,2.8-1.5,4.8c0.6-1.1,0.4-2.8,2.1-2.7
			C3.3,35.2,4.4,35.2,4.6,34.5z"/>
		<path class="st0" d="M3.4,33.5c0.4,0.7,1.6,0.2,1.9-0.5c0.2-0.6,0.3-1.3,0.4-2c-0.5,0-0.9,0.8-1.3,0.3c-0.5-0.7,0.6-0.8,0.8-1.4
			c-1.2,0.1-1.9,0.8-2.5,1.7C2.7,32.2,3.2,32.9,3.4,33.5z"/>
		<path class="st0" d="M19.1,23.9c1.7,0.5,3.4,1.1,5.2,1.6c0.7,0,1.3-0.9,1.8-1.5c-2.4-0.1-4.8-0.3-7.2-0.4
			C18.9,23.8,19,23.9,19.1,23.9z"/>
		<path class="st0" d="M24.2,36.2c-4.7-3.1,1.1,2.8,2.2,3.5c0.6,0.5,1.2,1.2,1.8,1.7c0.2,0.3,0.3-0.1,0-0.1C28,41,28,40.8,27.8,40.6
			c0,0,0,0,0,0C26.8,39,25.7,37.4,24.2,36.2z"/>
		<path class="st0" d="M44.1,21.5c1.2-0.3-3.9-0.8-4.2-0.9c-1.4-0.1-5.4-0.8-6.2,0.3c-0.2,0.4-0.2,0.5,0.3,0.5v0c0.2,0,0.3,0,0.5,0
			v0c0.2,0,0.4,0,0.5-0.1c0.2,0.1,0.4,0,0.6,0v0C38.4,21.1,41.2,21.3,44.1,21.5z"/>
		<path class="st0" d="M14.5,57.4c0.2,1.7,0.4,3.4,0.8,5c0.3,0.5,1.2,0.3,1.8,0.5C16.6,60.9,15.1,57.8,14.5,57.4z"/>
		<path class="st0" d="M41.1,23.5c-2.4-1.2-5.2-1.4-7.8-1.5v0c-2.5,0.2-1,1.1,0.5,1C36.3,22.8,38.7,23.3,41.1,23.5z"/>
		<path class="st0" d="M28.1,37.7c1,0.5-0.3-0.8-0.4-1c-0.6-0.4-3.9-4.9-4.1-3.4C23.2,34.6,27.2,36.4,28.1,37.7z"/>
		<path class="st0" d="M20.7,26c-2.4,0,0.2,1.1,0.9,1.5c0.9,0.6,0.9,0.5,1.6-0.3C24.4,26.2,21.2,26.1,20.7,26z"/>
		<path class="st0" d="M16.1,33.7c-0.3-0.2-2.1-1.2-2.2-0.7c0.2,0.6,0.1,1.9,0.8,1.9C15.3,35.1,16.8,34.3,16.1,33.7z"/>
		<path class="st0" d="M22.2,41.9c-0.1-0.1-0.1-0.3-0.2-0.4l0,0c-0.5-1-1.4-2.6-2.7-2.3c0.8,2.4,3.3,4.1,4.5,6.3
			c0-0.1,0.1-0.2,0-0.3C23.5,44.1,22.9,43,22.2,41.9z"/>
		<path class="st0" d="M14.1,58c-0.6,0.7-1,1.8-0.3,2.6c0.2,0.2,0.3,0.1,0.3-0.1C14.2,59.8,14.4,58.7,14.1,58z"/>
		<path class="st0" d="M21.7,21.7c0.1,0.1,0.3,0.1,0.5,0.1c0.5,0.2,1.1,0.3,1.6,0.3v0c0.7,0.2,1.5,0.3,2.2,0.5c0,0,0,0,0,0
			c0.5,0,1.3,0.5,1.7,0h0c0.1-0.3,1.8-1.4,1.1-1.5c-1.1,0-2.1-0.2-3.2-0.1c-0.3-0.2-0.5,0-0.8,0l0,0c-0.5-0.2-1.1,0-1.6-0.1
			c0,0,0,0,0,0c0,0,0,0,0,0c-1.3,0-2.6-0.1-3.8,0.4C20.2,21.4,20.9,21.6,21.7,21.7z"/>
		<path class="st0" d="M20,19c2.9,0.2,5.9,0.5,8.7,1.1c1.8,0.5,3.4-0.9,5-1.6c0.1-0.1,0.5-0.4,0.3-0.5C29.6,18.3,23.8,17.7,20,19z"
			/>
		<path class="st0" d="M45,19c0.3,0.1,0.3-0.3,0-0.2c-2.8-0.4-6.1-0.5-8.6,0.9C39.3,19.7,42.1,19.1,45,19z"/>
		<path class="st0" d="M57.1,22.8c-3.7,0.9-7.6,0.6-11.3-0.4c-1.7-0.4-3.5-0.8-5.2-0.5c3,1.3,6.1,3,9.2,4c2.9,0.8,5.3-1.1,7.2-2.9
			C57.3,22.9,57.3,22.8,57.1,22.8z"/>
		<path class="st0" d="M16.6,55.1c0.1-0.2-0.2-0.3-0.4-0.2C16.4,55,16.4,55.1,16.6,55.1z"/>
		<path class="st0" d="M59.8,11.8c-5.1,6.8-10.4,4.2-17.1,6c3.7,0.5,7.6,1,11.3,0.9c3.2-0.6,4.3-3.9,5.7-6.5
			C59.9,12.2,60,11.9,59.8,11.8z"/>
		<path class="st0" d="M26.2,43.5c-0.3-0.8-4.6-7.5-5.3-6.1c-0.3,0.5,0,0.8,0.3,1.2c1.7,1.8,3.3,3.4,5,5.2c0,0,0,0,0,0
			c0,0.1,0.1,0.1,0.1,0.2v0c0,0.1,0.1,0.2,0.2,0.1C26.6,43.9,26.3,43.7,26.2,43.5z"/>
		<path class="st0" d="M32.5,37.4c-1.8-2.6-4.3-4.8-7-6.3c-0.2-0.1-0.3-0.1-0.5,0.2c-0.6,1.3,1.7,2,2.5,2.7c1.8,1,3.3,2.3,4.9,3.5
			C32.5,37.7,32.8,37.5,32.5,37.4z"/>
	</g>
	<g>
		<path class="st1" d="M100.3,16.7c0,0,3.2-1.9,2.8-4.2c-0.4-2.3-3.4-3.8-3.4-3.8l-3,5.1C96.7,13.8,98.4,16.2,100.3,16.7z"/>
		<path class="st1" d="M179.3,33.7c-0.4-2.3-3.4-3.8-3.4-3.8l-3,5.1c0,0,1.7,2.4,3.6,2.9C176.5,37.9,179.7,36,179.3,33.7z"/>
		<path class="st1" d="M208.1,44.1c-0.4-2.3-3.3-2.7-3.3-2.7l-2.5,3.8c0,0,1.7,2.4,3.6,2.9C205.9,48.1,208.6,46.4,208.1,44.1z"/>
		<path class="st1" d="M221.7,41.4l-1.7,3.4c0,0,0.9,2.9,2.8,3.4c0,0,2.7-1.7,2.2-4C224.5,41.8,221.7,41.4,221.7,41.4z"/>
		<path class="st1" d="M236.5,44.1c-0.4-2.3-3.3-2.7-3.3-2.7l-1.7,3.4c0,0,0.9,2.9,2.8,3.4C234.3,48.1,237,46.4,236.5,44.1z"/>
		<path class="st1" d="M234,49.7c-0.4-2.3-2.8-2.8-2.8-2.8l-2.9,4.2c0,0,1.4,1.8,3.3,2.3C231.5,53.3,234.5,52,234,49.7z"/>
		<path class="st1" d="M213.5,44.1c-0.4-2.3-3.3-2.7-3.3-2.7l-1.7,3.4c0,0,1,2.9,2.8,3.4C211.2,48.1,213.9,46.4,213.5,44.1z"/>
		<path class="st1" d="M219.5,44.1c-0.4-2.3-3.3-2.7-3.3-2.7l-2.2,4.2c0,0,1.4,2,3.3,2.5C217.3,48.1,219.9,46.4,219.5,44.1z"/>
		<path class="st1" d="M185.7,33.7c-0.4-2.3-3.4-3.8-3.4-3.8l-2.7,4.4c0,0,1.5,3,3.3,3.5C182.9,37.9,186.2,36,185.7,33.7z"/>
		<path class="st1" d="M179.7,44.1c0,0,3.2-1.9,2.8-4.2c-0.4-2.3-3.4-3.8-3.4-3.8l-3,5.1C176.1,41.3,177.8,43.6,179.7,44.1z"/>
		<path class="st1" d="M90.7,40c6.5,0.8,9.6-0.9,15.2-6.3c5.6-5.4,7.3-18.8,7.5-20.2c0.2-1.4,0.6-6.1,0.8-7.2
			c0.2-1.2,0.2-1.5-0.4-1.1c-0.5,0.4-1.6,4.1-2.5,6.5c-0.9,2.4-0.5,7.1-0.7,8.6c-0.2,1.5-1.7,6.1-6.4,9.5
			c-4.7,3.4-10.8,3.8-15.3,1.6c-4.5-2.1-3.1-8.5-2-11.1c1.1-2.6,2-6.2,2-6.2c-0.1,0.3-0.5,0.7-0.6,0.9c-0.2,0.4-0.4,0.7-0.6,1.1
			c-0.4,0.8-0.8,1.6-1.2,2.4c-0.7,1.7-1.3,3.4-1.8,5.1c-0.5,1.8-1,3.7-1,5.6c0,1.8,0.3,3.7,0.9,5.4C85.6,37.4,87.7,39.6,90.7,40z"/>
		<path class="st1" d="M113,34.6c2.6-1.8,3.6-6.4,4.1-9.3c0.5-2.9,1.7-15.7,1.7-15.7c-2.7,3-3.8,9.5-4.1,12.3
			c-0.2,2.7-0.2,6-0.8,8.3C113.3,32.3,113,34.6,113,34.6z"/>
		<path class="st1" d="M104,49c0.1,0.1,2-0.4,3.5-0.8c1.5-0.4,3.4-0.8,4.9-3c1.5-2.3,4.4-9,5.8-8.9c1.4,0.1,5.5,1.8,9.1,2.2
			c3.6,0.4,13.4,0.6,21.5-1c8.2-1.6,18.4-5.5,23.1-7.9c4.7-2.4,6.7-3.7,9.8-4.4c3.1-0.8,5.5-1.9,6.7-3.8c1.2-1.9,1.2-4.1,0.7-4.7
			c-0.5-0.6-2.6-0.9-3.3-0.7c-0.7,0.1,0.6-1,1.2-1.4c0.6-0.4,1.2-0.5,2-0.1c0.7,0.4,2.2,0.6,3.8-0.9c1.6-1.5,2.4-0.9,3-1.4
			c0.7-0.5,2.8-2.3,3.8-3.7c1-1.5,2-3.2,2.2-4.2s0-2.4-0.4-2.2c-0.4,0.2-0.4,0.9-0.7,1.6c0,0-0.6,1.5-1.1,1.8
			c-0.5,0.3-1.3,0.5-1.6,0.9c-0.3,0.4-0.7,1.3-1.4,1.6c-0.6,0.3-2,0.6-2.1,0.7c-0.1,0.1-1.1,1.4-1.5,1.8c-0.4,0.4-1.5,0.7-2.1,0.6
			c-0.7-0.2-1.8-1.1-2.1-1.1c-0.4,0-3.7,1.8-5,5.8c0,0-1.6-1.7-3.2-1.5c-1.6,0.2-3.8,2.7-5.2,5.6c-1.4,2.9-2.4,5.7-10.5,8.3
			c-8,2.6-14.5,4.2-23.7,4s-19.8-2-19.8-2s-1.8-0.3-2.7,1c-0.9,1.3-7.2,11.2-9.4,13.5C107.3,46.6,103.9,48.8,104,49z M183.4,19.7
			c2.1-1.3,3.8-0.3,4.2,0.6c0.4,0.9-7,3.8-7,3.8S181.2,21.1,183.4,19.7z M174.4,24.1c0.2-0.3,2.1-4.5,3.8-5.7c1.8-1.2,3.1-0.8,3.2,0
			c0.1,0.8-0.7,2.4-2.7,3.7C176.9,23.2,174.7,23.9,174.4,24.1C174.4,24.1,174.4,24.1,174.4,24.1C174.4,24.1,174.4,24.1,174.4,24.1z"
			/>
		<path class="st1" d="M229.2,47.4c0.6-0.6,2-1.8,1.8-2.4c-0.2-0.6-0.6-1.6-1.3-2.5c-0.7-0.9-1.4-1.1-1.4-1.1s-1.6,1.3-2.6,4
			c0,0,1.6,1.6,2.3,2.1C228.6,47.9,228.6,48,229.2,47.4z"/>
		<path class="st1" d="M207.4,28.9c1,0.3,1.1,0.4,0.7,1.8c-0.3,1.4-2.4,4.6-7.6,6.2c-5.2,1.6-8.9-0.2-10.3-3.4
			c-1.3-3.2,1.3-8.7,2.6-11.1c1.3-2.4,1.7-4.6,1.7-4.6s-5.5,7.6-6.7,16.7c-1.2,9.2,6.6,9.4,6.6,9.4c9.1,0,13.1-7.9,14.2-11.1
			c1.2-3.2,1.5-8.2,0.9-9.2c-0.6-0.9-2.8-1.6-3.5-2.1c-0.7-0.5-0.3-1,0.3-2.5s2.8-7.4,3-9.3c0.2-1.9-0.6-4.7-1.4-5.7
			c-0.8-1-1.3-1.5-1.8-1.2s-1.6,3.1-1.9,5c-0.4,1.9,1.3,2.5,1.8,5.3c0.5,2.8-1.7,6.3-2.5,8s-0.9,2.9-0.7,4.9
			C203,28.2,206.4,28.6,207.4,28.9z"/>
		<path class="st1" d="M216.1,38.8c3.8,0,5.3-4.4,5.6-5.1c0.3-0.7,1.6-2.8,0.6-3.4c-1-0.6-3.3-0.1-3.3-0.1s0.9-2.3,2.5-3.4
			c1.6-1.1,5,0.5,5,0.5c3.2-1.6,3.9-6.9,3.2-6.6c-0.6,0.3-2.1,2.6-2.1,2.6c-1.6-0.4-4.1-1.1-6.9,1.6c-2.8,2.7-4.7,6.7-4.7,6.7
			s-0.4-1.8-0.6-5.6s1.8-13.4,1.8-13.4c-3.2,2.3-4.8,14.6-4.8,17.4S212.3,38.8,216.1,38.8z"/>
		<path class="st1" d="M234.8,21.8c0.3-2.9,1.2-7.7,0.6-7.3c-0.6,0.4-1.6,3.1-2.6,5.2c-1,2.1-0.7,5.8-1,9.5
			c-0.3,3.7-1.5,8.7-1.5,8.7C233.7,36.3,234.5,24.8,234.8,21.8z"/>
		<path class="st1" d="M252.1,37.6c0.1-1.5-2.1-2.1-2.1-2.1c-0.2-2.3,2.7-7.1,2.7-7.1c-1.7,0.6-3.7,5-4.2,7.2
			c-0.5,2.2-0.1,3.7,0.8,4.4C250.3,40.7,252,39.1,252.1,37.6z"/>
		<path class="st1" d="M249.9,22.7c1,0.2,2.6,0.7,3.8-0.1c1.1-0.9,1.3-2.9,0.9-4.2c-0.4-1.3-0.4-1.3-1.1-1s-0.9,1.2-1.3,1.6
			c-0.4,0.4-0.5-0.3-1.6-0.7c-1.1-0.4-2.8,0.7-3.3,2.7s-1.4,3.1-2.1,3.9c-0.7,0.8-1,1-1.1,0.4c-0.1-0.6-1-1.9-1.5-2.3
			c-0.5-0.4-1.6-0.4-2.6,0.4c-1,0.8-2.5,3.6-2.9,5.2c-0.4,1.7,1,3.3,2.5,3.3c1.4,0.1,2-0.3,2.1,0c0.1,0.3-1.4,2.8-3.6,4.2
			c-2.2,1.4-4.3,3-4.3,3c7.2,0.9,8.9-6,9.5-7.3c0.6-1.3,1-2.2,1.6-2.8c0.6-0.6,1.4-2,1.6-2.7c0.2-0.7,1.2-2.3,1.4-2.8
			C248.1,23,248.9,22.5,249.9,22.7z"/>
		<path class="st1" d="M109.4,69.9c-0.1,0-1.1,1.6-1.7,2c-0.5,0.5-1,0.9-2.1,0.9h-5.4v-7.5h6.7v-0.8h-6.7v-6.9h5.4
			c1,0,1.6,0.6,2.2,1.5c0.5,0.9,0.7,2,0.7,0.9c0-1.1-0.3-2.5-0.7-2.9c-0.2-0.3-0.7-0.3-0.9-0.3v0h0c-0.1,0-0.2,0-0.2,0h-8.8h-2.1V57
			c0,0,2.1-0.2,2.1,1.8v14.7h1.5h0.8h6.2c0,0,1.5,0.3,2.3-1.3C109.5,70.7,109.5,69.8,109.4,69.9z"/>
		<path class="st1" d="M136.8,69.9c-0.1,0-1.1,1.6-1.7,2c-0.5,0.5-1,0.9-2.1,0.9h-5.4v-7.5h6.7v-0.8h-6.7v-6.9h5.4
			c1,0,1.6,0.6,2.2,1.5c0.5,0.9,0.7,2,0.7,0.9c0-1.1-0.3-2.5-0.7-2.9c-0.2-0.3-0.7-0.3-0.9-0.3v0h0c-0.1,0-0.2,0-0.2,0h-8.8h-2.1V57
			c0,0,2.1-0.2,2.1,1.8v14.7h1.5h0.8h6.2c0,0,1.5,0.3,2.3-1.3C137,70.7,136.9,69.8,136.8,69.9z"/>
		<path class="st1" d="M116.6,56.7h-2.2h-1.9h-0.4v0l0,0H110V57c0,0,2.1-0.2,2.1,1.8c0,0.1,0,0.2,0,0.3v14.4h2.3V67
			c0-0.1,0-0.4,0.5-0.4h1.7c0,0,2.4,0,3.5-0.5c1.1-0.5,2.8-2.3,2.8-4.7C122.9,59.1,121,56.7,116.6,56.7z M116.6,65.8h-1.9
			c-0.1,0-0.4-0.1-0.4-0.5v-7.8h2.2c0,0,3.8,0.1,3.8,3.9C120.4,65.3,116.6,65.8,116.6,65.8z"/>
		<path class="st1" d="M168.7,73.1c-0.8-0.1-1.3-0.4-2.2-1.7c-0.9-1.2-2.9-5.4-3.9-5.9c0.6-0.1,1.3-0.2,1.7-0.4
			c1.1-0.5,2.8-1.4,2.8-3.7c0-2.3-1.9-4.8-6.2-4.8h-2.2h-1.9h-0.4v0l0,0h-2.1V57c0,0,2.1-0.2,2.1,1.8c0,0.1,0,0.2,0,0.3v14.4h2.3V66
			c0-0.1,0-0.4,0.5-0.4h1.3c0.4,0.8,2.6,4.7,3.6,6c1.1,1.4,2.4,2.3,3.8,2.3C169.3,73.9,169.4,73.3,168.7,73.1z M160.8,57.5
			c0,0,3.8,0.1,3.8,3.9c0,3.8-3.8,3.4-3.8,3.4l0,0h-1.8c0,0,0,0,0,0s0,0,0,0H159c-0.1,0-0.4-0.1-0.4-0.5v-6.9H160.8z"/>
		<path class="st1" d="M152.8,73.1c-1,0-1.1-1.5-1.1-1.5V56.7h-2.3v7.7h-7.7v-5.7c0-2-2.3-2-2.3-2h-2.1c0,0,0,0.5,1,0.5
			s1.1,1.5,1.1,1.5v14.9h2.3v-8.4h7.7v6.5h0c0.1,1.8,2.3,1.8,2.3,1.8h2.1C153.9,73.6,153.9,73.1,152.8,73.1z"/>
		<path class="st1" d="M87.2,62.2c-2.1-1.4-1.8-3.1-0.5-4.4c1.2-1.3,3.5-0.9,5-0.2c1.5,0.7,2.1,3.2,2.2,3.7c0.1,0.5,0.4,0.5,0.4,0.5
			s0.1-2.8,0.1-3c0-0.2-1.3-1.9-3.3-2.5c-2-0.6-4.4-0.1-5.4,0.8c-1,0.8-2.3,2.3-1.7,4.5c0.6,2.3,3.9,4.1,5.7,5.1
			c1.8,1,2.9,2.4,3.2,3.4c0.3,1-0.3,3.3-3.6,3.3c-3.3,0-4.2-2.4-4.5-3.1c-0.4-0.8-0.2-1.6-0.5-1.7c-0.3-0.1-0.4,0.2-0.4,0.2v2.5
			c1,2.8,5.5,3,5.5,3c6.4,0,6.1-5.2,4.9-7C93.1,65.3,89.3,63.6,87.2,62.2z"/>
		<path class="st1" d="M178.5,56.4c-0.5,0-0.8,1.4-1.1,2.1c0,0-4.7,11.4-5.1,12.5c-0.5,1.1-1.2,1.8-2.1,1.8c0,0-0.6,0.9,1.1,0.9
			c1.7,0,3.6-2.2,4.1-4.1c0.5-2,1.6-2.2,3-2.2c1.4,0,3,0,3,0s2.3,5.7,3.4,6c1.1,0.4,1.4,0.3,1.4,0.3l-7-16.8
			C179.2,57,179,56.4,178.5,56.4z M175.6,66.2l2.8-6.9l2.9,6.9H175.6z"/>
		<path class="st1" d="M198.8,68.8c-0.9-1.1-1.8-2.2-2.7-3.4c-1.4-1.8-2.8-3.6-4.3-5.3c-1.3-1.5-2.7-3.3-4.8-3.7
			c-0.6-0.1-1.3-0.1-1.9,0.1c0,0-0.4,0.4,0.2,0.4c0.6,0,2.1,0.6,2.1,2.6v14.1h0.9V60.1L199.6,74c0,0,0-1.1,0-2.3v-1.8V56.4h-0.9
			V68.8z"/>
		<path class="st1" d="M212.9,65.7c-0.4,0-1,0-1,0.1c0,0.1,0.1,0.4,0.6,0.4c0.5,0,0.6,0.9,0.6,0.9v4.2c0,0,0.1,1.3,1,1.3
			c0,0,0.4,0.1,0.4-0.9c0-1,0-4.4,0-4.4C214.5,65.8,213.3,65.7,212.9,65.7z"/>
		<path class="st1" d="M212.9,64.1c0,0.4,0.3,0.7,0.8,0.7c0.4,0,0.8-0.3,0.8-0.7c0-0.4-0.3-0.7-0.8-0.7
			C213.3,63.4,212.9,63.7,212.9,64.1z"/>
		<path class="st1" d="M228,65.7c-0.4,0-1,0-1,0.1c0,0.1,0.1,0.4,0.6,0.4c0.5,0,0.6,0.9,0.6,0.9v4.2c0,0,0.1,1.3,1,1.3
			c0,0,0.4,0.1,0.4-0.9c0-1,0-4.4,0-4.4C229.6,65.8,228.4,65.7,228,65.7z"/>
		<path class="st1" d="M228,64.1c0,0.4,0.3,0.7,0.8,0.7s0.8-0.3,0.8-0.7c0-0.4-0.3-0.7-0.8-0.7S228,63.7,228,64.1z"/>
		<path class="st1" d="M220.8,65.6c-0.8,0-1.9,0.6-2.3,1.2c-0.3-0.9-1.2-1-1.5-1c-0.4,0-1,0-1,0.1c0,0.1,0.1,0.4,0.6,0.4
			s0.6,0.9,0.6,0.9v4.2c0,0,0.1,1.3,1,1.3c0,0,0.4,0.1,0.4-0.9c0-0.9,0-3.7,0-4.3c0-0.1,0.3-0.8,1.2-1c0.9-0.2,1.7,0,2,0.2
			c0.3,0.2,0.5,0.1,0.4-0.2C222.1,66.2,221.7,65.6,220.8,65.6z"/>
		<path class="st1" d="M224.7,63.1c-0.8-0.3-1.6-0.1-1.8-0.1c-0.2,0.1-0.2,0.2,0.5,0.4c0.7,0.2,0.7,1,0.7,1v6.9c0,0,0.1,1.3,1,1.3
			c0,0,0.4,0.1,0.4-0.9c0-1,0-7.3,0-7.3S225.5,63.4,224.7,63.1z"/>
		<path class="st1" d="M237.7,65.8c-1.3-0.6-3.2,0-4.1,0.7c-0.3-0.8-1.1-0.8-1.4-0.8c-0.4,0-1,0-1,0.1c0,0.1,0.1,0.4,0.6,0.4
			c0.5,0,0.6,0.9,0.6,0.9v4.2c0,0,0.1,1.3,1,1.3c0,0,0.4,0.1,0.4-0.9c0-1,0-4.4,0-4.4c0-0.1,0-0.1,0-0.2c0,0,0,0,0,0s0.7-1,1.9-1
			c1.2,0,2.1,0.9,2.1,2v3.2c0,0,0.1,1.3,1,1.3c0,0,0.4,0.1,0.4-0.9c0-1,0-3.6,0-3.6S239.1,66.4,237.7,65.8z"/>
		<path class="st1" d="M209.3,65.8c-1.2-0.6-3.7-0.6-4.7,0.6c0,0-0.4,0.5,0,0.8c0.4,0.3,0.7-0.3,1-0.6c0.3-0.3,0.9-0.6,2.1-0.6
			c1.2,0,1.5,1.5,1.5,2.1v0.3c-0.6,0-5.2,0-5.2,2.2c0,2.4,2.9,2.1,3.4,2c0.5-0.1,1.6-0.6,1.8-1.2c0.1,0.4,0.3,1.1,0.9,1.1
			c0,0,0.4,0.1,0.4-0.9c0-1,0-4.4,0-4.4S210.4,66.4,209.3,65.8z M207.3,72.1c-1.1,0-2-0.8-1.8-1.4c0.1-0.6,1.1-1.4,2.2-1.5
			c0.9-0.1,1.2-0.1,1.4,0v1.6C209.1,70.8,208.4,72.1,207.3,72.1z"/>
		<path class="st1" d="M244.7,65.4c-3.5,0-3.6,3.4-3.6,4.1c0.1,0.7,0.9,3.3,3.7,3.3c2.8,0,3-1.6,2.9-1.6c-0.1,0-0.2,0-0.5,0.5
			c0,0-0.8,0.6-2.3,0.6c-1.4,0-2.3-1.8-2.3-3h5.4V69C247.9,69,248.2,65.4,244.7,65.4z M244.6,65.9c1.4,0,1.8,1.7,1.8,3h-3.9
			C242.6,67.7,243.3,65.9,244.6,65.9z"/>
		<path class="st1" d="M253,68.7c-1.6-0.4-2-1-2-1.5c0-0.6,0.7-1.1,1.8-1.1c1.1,0,2,0.9,2.3,1.3c0.3,0.4,0.4,0.3,0.3-0.1
			c0-0.3,0-0.9-0.2-1c-0.2-0.1-1-0.7-2.7-0.7c-1.4,0-2.5,0.5-2.8,1.3c-0.2,0.4-0.2,0.9,0.1,1.3c0.2,0.4,0.6,0.8,1.5,1.1
			c1.7,0.6,3,1.1,3,1.9s-1.2,1.2-1.9,1.2c-0.7,0-2.1-0.6-2.3-1.2c-0.2-0.6-0.5-0.6-0.5-0.3V71c0,0.6,0.3,1.1,0.8,1.3
			c0.5,0.3,1.1,0.5,2.1,0.5c1.9,0,3.2-1,3.2-1.9C255.6,70.1,254.5,69.1,253,68.7z"/>
	</g>
</g>
</svg>
