<?xml version="1.0" encoding="utf-8"?>
<!-- Generator: Adobe Illustrator 25.4.1, SVG Export Plug-In . SVG Version: 6.00 Build 0)  -->
<svg version="1.1" id="Layer_1" xmlns="http://www.w3.org/2000/svg" xmlns:xlink="http://www.w3.org/1999/xlink" x="0px" y="0px"
	 viewBox="0 0 80 80" style="enable-background:new 0 0 80 80;" xml:space="preserve">
<style type="text/css">
	.st0{fill:#F69E25;}
	.st1{fill:#525350;}
</style>
<path class="st0" d="M70,80H10C4.48,80,0,75.52,0,70V10C0,4.48,4.48,0,10,0h60c5.52,0,10,4.48,10,10v60C80,75.52,75.52,80,70,80z"/>
<path class="st1" d="M33.06,36.8h-1.1c-2.2,0-3.53-1.1-3.53-3.53v-1.54c0-2.42,1.32-3.75,3.53-3.75h1.32v-6.17
	c0-2.42,1.32-3.53,3.53-3.53h3.75c2.42,0,3.75,1.1,3.75,3.53v6.17h3.31c2.2,0,3.53,1.32,3.53,3.75v1.54c0,2.42-1.32,3.53-3.53,3.53
	H44.3v10.36c0,2.87,1.76,3.97,3.75,4.41c2.64,0.22,3.53,1.1,3.53,3.53v3.09c0,2.64-1.76,3.53-4.63,3.53
	c-4.85,0-13.88-2.42-13.88-12.34V36.8"/>
</svg>
