<?xml version="1.0" encoding="utf-8"?>
<!-- Generator: Adobe Illustrator 25.4.1, SVG Export Plug-In . SVG Version: 6.00 Build 0)  -->
<svg version="1.1" id="Layer_1" xmlns="http://www.w3.org/2000/svg" xmlns:xlink="http://www.w3.org/1999/xlink" x="0px" y="0px"
	 viewBox="0 0 210.03 80" style="enable-background:new 0 0 210.03 80;" xml:space="preserve">
<style type="text/css">
	.st0{fill:#525350;}
	.st1{fill:#F69E25;}
</style>
<g>
	<path class="st0" d="M197.25,27.33L197.25,27.33c1.1-3.53,5.95-6.39,8.82-6.39c2.42,0,3.97,1.32,3.97,3.75v3.53
		c0,2.2-2.2,3.53-4.63,3.53c-5.29,0-7.93,4.63-7.93,10.14v9.7c0,2.42-1.1,3.75-3.3,3.75h-4.19c-2.2,0-3.53-1.32-3.53-3.75V24.9
		c0-2.42,1.32-3.75,3.53-3.75h3.75c2.2,0,3.53,1.32,3.53,3.75V27.33"/>
	<path class="st0" d="M123.64,27.33L123.64,27.33c1.1-3.53,5.95-6.39,9.04-6.39c2.2,0,3.74,1.32,3.74,3.75v3.53
		c0,2.2-1.98,3.53-4.41,3.53c-5.29,0-7.93,4.63-7.93,10.14v9.7c0,2.42-1.1,3.75-3.53,3.75h-4.19c-2.2,0-3.3-1.32-3.3-3.75V24.91
		c0-2.42,1.1-3.75,3.3-3.75h3.75c2.42,0,3.53,1.32,3.53,3.75V27.33"/>
	<path class="st1" d="M177.19,17.41L177.19,17.41c-4.85,0-8.6-3.97-8.6-8.6c0-4.85,3.75-8.82,8.6-8.82c4.63,0,8.37,3.97,8.37,8.82
		C185.56,13.44,181.82,17.41,177.19,17.41"/>
	<path class="st0" d="M31.52,17.41L31.52,17.41c-4.63,0-8.6-3.97-8.6-8.6c0-4.85,3.97-8.82,8.6-8.82c4.85,0,8.6,3.97,8.6,8.82
		C40.11,13.44,36.14,17.41,31.52,17.41"/>
	<path class="st0" d="M155.15,34.16h1.1v-0.44c0-2.87-2.42-3.75-4.85-3.75c-2.2,0-4.63,0.66-6.39,1.32c-2.2,1.1-3.75,0.66-4.85-1.54
		l-0.88-1.54c-1.1-1.98-0.66-3.75,1.54-4.85c2.64-1.1,6.61-2.64,11.68-2.64c9.48,0,15.43,5.29,15.43,13.66v17.19
		c0,2.42-1.32,3.75-3.74,3.75h-3.31c-2.42,0-3.53-1.32-3.53-3.75v-0.22c0-0.44,0-0.88,0-0.88l-0.22,0.22c0,0-3.31,5.29-10.14,5.29
		c-6.61,0-11.46-4.41-11.46-10.14C135.54,36.8,146.78,34.16,155.15,34.16 M149.64,48.04L149.64,48.04c3.74,0,6.61-3.75,6.61-6.83
		v-0.88h-1.1c-4.19,0-9.48,1.1-9.48,4.63C145.67,46.72,147.22,48.04,149.64,48.04z"/>
	<path class="st0" d="M4.63,30.85h-1.1c-2.2,0-3.53-1.1-3.53-3.53v-1.54c0-2.42,1.32-3.75,3.53-3.75h1.32v-6.17
		c0-2.42,1.32-3.53,3.53-3.53h3.75c2.42,0,3.75,1.1,3.75,3.53v6.17h3.31c2.2,0,3.53,1.32,3.53,3.75v1.54c0,2.42-1.32,3.53-3.53,3.53
		h-3.31v10.36c0,2.87,1.76,3.97,3.75,4.41c2.64,0.22,3.53,1.1,3.53,3.53v3.09c0,2.64-1.76,3.53-4.63,3.53
		c-4.85,0-13.88-2.42-13.88-12.34V30.85"/>
	<path class="st0" d="M26.01,24.9L26.01,24.9c0-2.42,1.1-3.75,3.53-3.75h3.97c2.42,0,3.75,1.32,3.75,3.75v26.67
		c0,2.42-1.32,3.75-3.75,3.75h-3.97c-2.42,0-3.53-1.32-3.53-3.75L26.01,24.9"/>
	<path class="st0" d="M171.68,24.9L171.68,24.9c0-2.42,1.1-3.75,3.3-3.75h4.19c2.2,0,3.53,1.32,3.53,3.75v26.67
		c0,2.42-1.32,3.75-3.53,3.75h-4.19c-2.2,0-3.3-1.32-3.3-3.75V24.9"/>
	<path class="st0" d="M94.99,20.72L94.99,20.72c10.14,0,15.43,7.05,15.43,16.09c0,1.98-1.54,3.97-3.75,3.97H89.26
		c0.88,3.97,4.19,5.95,7.71,5.95c2.2,0,4.41-0.88,6.17-1.54c1.98-1.1,3.53-0.88,4.63,1.32l1.1,1.76c0.88,1.98,0.66,3.75-1.32,4.85
		c-2.43,1.54-6.39,3.09-11.46,3.09c-11.9,0-18.29-8.6-18.29-17.85C77.8,28.43,84.41,20.72,94.99,20.72 M99.83,34.16L99.83,34.16
		c0-2.87-1.76-5.29-4.85-5.29c-3.31,0-4.85,2.42-5.51,5.29C89.48,34.16,99.83,34.16,99.83,34.16z"/>
	<path class="st0" d="M63.91,52.01v0.22c0,1.32,0,3.53,0,5.29c0.88-0.88,2.2-1.32,3.75-1.32h3.97c1.54,0,2.87,0.44,3.53,1.32V24.46
		c0-2.42-1.32-3.75-3.53-3.75h-4.19c-1.98,0-3.31,1.1-3.53,3.09v0.22c0,0-1.98-3.31-8.82-3.31c-8.82,0-15.21,7.05-15.21,17.63
		S45.84,56.2,54.88,56.2C60.17,56.2,62.81,53.33,63.91,52.01 M57.52,46.72L57.52,46.72c-3.97,0-6.83-3.09-6.83-8.38
		c0-5.07,3.31-8.15,6.83-8.15c4.41,0,6.83,4.19,6.83,8.15C64.35,44.3,60.83,46.72,57.52,46.72z"/>
	<path class="st1" d="M75.15,64.35v-1.32c0-2.42-1.32-3.75-3.53-3.75h-3.97c-1.1,0-1.98,0.44-2.64,1.1
		c-0.44,0.66-0.66,1.32-0.66,2.64c0,2.2-1.1,3.75-1.98,4.63c-0.88,0.88-2.2,1.32-4.19,1.32c-2.2,0-3.53-0.44-4.41-1.32
		c-0.66-0.88-1.98-1.98-1.76-4.63c0-1.32-0.44-1.98-0.88-2.42c-0.44-0.88-1.54-1.32-2.64-1.32h-3.97c-2.42,0-3.53,1.32-3.53,3.75
		v1.54c0,0,0,0,0.22,1.54c0.44,7.27,8.37,13.66,16.97,13.88c8.37-0.22,16.31-6.61,16.97-13.88C75.15,66.12,75.15,65.24,75.15,64.35"
		/>
</g>
<g>
	<path class="st0" d="M91.26,63.31c0-0.36-0.13-0.66-0.38-0.89c-0.25-0.22-0.61-0.33-1.08-0.33h-7.58c-0.45,0-0.8,0.11-1.05,0.32
		c-0.26,0.22-0.39,0.53-0.39,0.9c0,0.36,0.13,0.66,0.38,0.89c0.24,0.22,0.6,0.33,1.07,0.33h2.36v8.31c0,0.55,0.13,0.97,0.4,1.25
		c0.27,0.29,0.62,0.44,1.04,0.44c0.42,0,0.76-0.15,1.03-0.43c0.26-0.28,0.39-0.71,0.39-1.26v-8.31h2.36c0.46,0,0.83-0.11,1.07-0.33
		C91.13,63.97,91.26,63.67,91.26,63.31z"/>
	<path class="st0" d="M99.23,71.25l0.01-1.2c0-0.36,0-0.8,0-1.31c0-0.84-0.12-1.54-0.36-2.06c-0.25-0.55-0.69-0.95-1.29-1.2
		c-0.58-0.24-1.37-0.36-2.36-0.36c-0.89,0-1.65,0.12-2.25,0.37c-0.62,0.25-1.08,0.58-1.38,0.98c-0.3,0.4-0.46,0.83-0.46,1.27
		c0,0.32,0.12,0.58,0.35,0.79c0.22,0.2,0.49,0.3,0.8,0.3c0.36,0,0.58-0.07,0.72-0.23c0.09-0.11,0.23-0.31,0.44-0.64
		c0.18-0.28,0.39-0.48,0.64-0.62c0.24-0.13,0.63-0.2,1.14-0.2c0.56,0,0.93,0.11,1.09,0.31c0.15,0.2,0.25,0.52,0.29,0.95
		c-0.39,0.11-0.75,0.21-1.08,0.29c-0.39,0.09-0.86,0.2-1.41,0.31c-0.55,0.11-0.9,0.19-1.04,0.22c-0.71,0.16-1.28,0.47-1.69,0.93
		c-0.42,0.47-0.63,1.04-0.63,1.69c0,0.49,0.13,0.94,0.38,1.36c0.25,0.42,0.61,0.75,1.08,0.99c0.46,0.24,0.99,0.36,1.59,0.36
		c0.64,0,1.24-0.11,1.76-0.33c0.45-0.19,0.91-0.45,1.38-0.8c0.21,0.31,0.4,0.56,0.6,0.74c0.26,0.25,0.54,0.38,0.83,0.38
		c0.33,0,0.62-0.11,0.88-0.34c0.26-0.23,0.4-0.5,0.4-0.79c0-0.11-0.02-0.31-0.22-0.93C99.3,72.04,99.23,71.63,99.23,71.25z
		 M96.62,70.21c0,0.7-0.09,1.21-0.26,1.5c-0.15,0.26-0.38,0.47-0.71,0.64c-0.62,0.32-1.47,0.38-1.91-0.03
		c-0.2-0.19-0.3-0.41-0.3-0.67c0-0.25,0.08-0.43,0.24-0.57c0.19-0.16,0.38-0.26,0.58-0.31c0.23-0.06,0.65-0.16,1.26-0.29
		C95.95,70.39,96.32,70.3,96.62,70.21z"/>
	<path class="st0" d="M102.32,65.14c-0.39,0-0.71,0.14-0.96,0.41c-0.24,0.26-0.36,0.65-0.36,1.14v6.27c0,0.49,0.12,0.87,0.36,1.15
		c0.25,0.28,0.57,0.43,0.96,0.43c0.39,0,0.72-0.14,0.97-0.41c0.25-0.27,0.38-0.66,0.38-1.16v-6.34c0-0.45-0.13-0.82-0.38-1.08
		C103.03,65.27,102.7,65.14,102.32,65.14z"/>
	<path class="st0" d="M101.41,62.34c-0.27,0.25-0.41,0.56-0.41,0.94c0,0.41,0.14,0.74,0.41,0.98c0.26,0.22,0.58,0.34,0.94,0.34
		c0.35,0,0.66-0.12,0.92-0.35c0.27-0.24,0.4-0.56,0.4-0.97c0-0.42-0.14-0.75-0.42-0.98C102.71,61.86,101.93,61.87,101.41,62.34z"/>
	<path class="st0" d="M115.82,65.38c-0.17,0.15-0.29,0.32-0.37,0.52c-0.06,0.16-0.14,0.42-0.24,0.78L114,70.78l-1.07-3.76
		c-0.14-0.47-0.24-0.79-0.32-0.98c-0.09-0.22-0.24-0.42-0.46-0.61c-0.23-0.19-0.54-0.29-0.92-0.29c-0.38,0-0.69,0.1-0.91,0.29
		c-0.21,0.18-0.36,0.38-0.45,0.59c-0.07,0.18-0.17,0.5-0.32,1l-1.07,3.75l-1.2-4.1c-0.15-0.52-0.29-0.89-0.44-1.12
		c-0.17-0.28-0.49-0.42-0.94-0.42c-0.34,0-0.63,0.12-0.86,0.35s-0.35,0.5-0.35,0.8c0,0.22,0.09,0.57,0.28,1.1l1.77,5.25
		c0.05,0.14,0.12,0.33,0.2,0.57c0.09,0.26,0.2,0.48,0.32,0.67c0.13,0.21,0.3,0.37,0.51,0.48c0.2,0.11,0.45,0.17,0.73,0.17
		c0.56,0,0.96-0.19,1.19-0.57c0.2-0.33,0.38-0.79,0.55-1.41l0.99-3.47l1.02,3.47c0.11,0.4,0.21,0.71,0.3,0.96
		c0.1,0.28,0.27,0.51,0.49,0.71c0.23,0.2,0.55,0.31,0.94,0.31c0.38,0,0.68-0.1,0.91-0.29c0.21-0.18,0.37-0.39,0.47-0.62
		c0.09-0.2,0.21-0.53,0.37-0.98l1.79-5.25c0.18-0.49,0.26-0.85,0.26-1.1c0-0.31-0.12-0.59-0.36-0.82
		C116.95,65.03,116.19,65.06,115.82,65.38z"/>
	<path class="st0" d="M126.61,71.25l0.01-1.2c0-0.36,0-0.8,0-1.31c0-0.84-0.12-1.54-0.36-2.06c-0.25-0.55-0.69-0.95-1.29-1.2
		c-0.58-0.24-1.37-0.36-2.36-0.36c-0.89,0-1.65,0.12-2.25,0.37c-0.62,0.25-1.08,0.58-1.38,0.98c-0.3,0.4-0.46,0.83-0.46,1.27
		c0,0.32,0.12,0.58,0.35,0.79c0.22,0.2,0.49,0.3,0.8,0.3c0.36,0,0.58-0.07,0.72-0.23c0.09-0.11,0.23-0.31,0.44-0.64
		c0.18-0.28,0.39-0.48,0.64-0.62c0.24-0.13,0.63-0.2,1.14-0.2c0.56,0,0.93,0.11,1.09,0.31c0.15,0.2,0.25,0.52,0.29,0.95
		c-0.39,0.11-0.75,0.21-1.08,0.29c-0.39,0.09-0.86,0.2-1.41,0.31c-0.55,0.11-0.9,0.19-1.04,0.22c-0.71,0.16-1.28,0.47-1.69,0.93
		c-0.42,0.47-0.63,1.04-0.63,1.69c0,0.49,0.13,0.94,0.38,1.36c0.25,0.42,0.61,0.75,1.08,0.99c0.46,0.24,0.99,0.36,1.59,0.36
		c0.64,0,1.24-0.11,1.76-0.33c0.45-0.19,0.91-0.45,1.38-0.8c0.21,0.31,0.4,0.56,0.6,0.74c0.26,0.25,0.54,0.38,0.83,0.38
		c0.33,0,0.62-0.11,0.88-0.34c0.26-0.23,0.4-0.5,0.4-0.79c0-0.11-0.02-0.31-0.22-0.93C126.68,72.04,126.61,71.63,126.61,71.25z
		 M124,70.21c0,0.7-0.09,1.21-0.26,1.5c-0.15,0.26-0.38,0.47-0.71,0.64c-0.62,0.32-1.47,0.38-1.91-0.03c-0.2-0.19-0.3-0.41-0.3-0.67
		c0-0.25,0.08-0.43,0.24-0.57c0.19-0.16,0.38-0.26,0.58-0.31c0.23-0.06,0.65-0.16,1.26-0.29C123.33,70.39,123.7,70.3,124,70.21z"/>
	<path class="st0" d="M136.53,67.66c-0.05-0.34-0.15-0.66-0.3-0.94c-0.25-0.5-0.62-0.9-1.12-1.17c-0.49-0.27-1.05-0.41-1.67-0.41
		c-0.63,0-1.2,0.13-1.69,0.38c-0.33,0.17-0.65,0.41-0.94,0.72c-0.03-0.16-0.07-0.3-0.14-0.43c-0.11-0.22-0.27-0.39-0.47-0.51
		c-0.19-0.11-0.41-0.17-0.64-0.17c-0.39,0-0.7,0.13-0.93,0.39c-0.22,0.25-0.33,0.62-0.33,1.09v6.34c0,0.49,0.12,0.87,0.37,1.15
		c0.25,0.28,0.57,0.43,0.96,0.43c0.39,0,0.72-0.14,0.98-0.41c0.25-0.27,0.37-0.66,0.37-1.16v-2.75c0-0.86,0.05-1.46,0.15-1.75
		c0.13-0.36,0.34-0.65,0.62-0.85c0.28-0.2,0.59-0.3,0.93-0.3c0.51,0,0.83,0.15,0.99,0.45c0.18,0.35,0.27,0.87,0.27,1.55v3.65
		c0,0.49,0.12,0.87,0.37,1.15c0.25,0.28,0.58,0.43,0.97,0.43c0.39,0,0.71-0.14,0.96-0.42c0.24-0.27,0.36-0.66,0.36-1.16v-4.08
		C136.6,68.39,136.58,67.98,136.53,67.66z"/>
</g>
</svg>
