<?xml version="1.0" encoding="utf-8"?>
<!-- Generator: Adobe Illustrator 25.4.1, SVG Export Plug-In . SVG Version: 6.00 Build 0)  -->
<svg version="1.1" id="Layer_1" xmlns="http://www.w3.org/2000/svg" xmlns:xlink="http://www.w3.org/1999/xlink" x="0px" y="0px"
	 viewBox="0 0 78.22 80" style="enable-background:new 0 0 78.22 80;" xml:space="preserve">
<style type="text/css">
	.st0{fill-rule:evenodd;clip-rule:evenodd;fill:#EC2028;}
</style>
<g>
	<path class="st0" d="M17.07,28.4c-1.48,0.57-3.16-5.07-3.54-6.6c-0.48-1.91-0.62-3.21-0.62-4.4c0-1.53,0.1-3.21,0.33-5.07
		C9.61,12.08,7.84,14,6.55,16.2c-2.97,4.88,0,11.68,2.54,16.08c0.67,1.15,1.29,2.15,2.06,3.21c0.24,0.38,3.21,4.35,0.86,3.4
		c-0.81-0.33-1.48-0.96-2.15-1.48c-1.2-0.91-2.34-1.91-3.35-3.06c-1-1.2-2.2-3.16-2.92-5.12c-2.01,0.48-3.21,3.68-3.49,5.5
		c-0.91,5.6,5.65,10.1,9.81,12.49c0.43,0.24,0.96,0.57,1.34,0.86c0.24,0.14,0.43,0.33,0.62,0.53c0.1,0.1,0.19,0.19,0.24,0.29
		c0.05,0.19,0.05,0.29-0.05,0.43c-0.72,0.57-3.59-0.33-4.5-0.67c-0.62-0.24-1.2-0.48-1.48-0.57C4.34,47.4,2.53,46.2,1.47,45.2
		c-1.34,1.39-1.2,4.35-0.53,6.22c1.29,3.64,6.17,4.98,9.71,5.89c1.48,0.38,6.17,0.86,6.17,1.67c-0.05,1.34-7.47,0.72-9.24,0.29
		c-0.91-0.24-2.2-0.77-2.82-1c-0.33,4.4,1.67,6.03,5.46,6.75c1.72,0.29,3.92,0.48,5.69,0.29c1.39-0.14,5.07-0.96,5.36-0.43
		c0.48,0.91-3.68,1.96-4.79,2.15c-2.63,0.48-4.69,0.19-6.6-0.05c0.33,1.39,1.72,2.97,2.54,3.59c1.96,1.44,4.26,1.44,6.56,0.91
		c3.35-0.77,7.51-3.06,7.94-2.54c0.53,0.72-2.87,2.78-4.02,3.3c-2.06,1-3.45,1.24-6.03,1.29c0.48,2.92,5.69,4.45,9.04,3.11
		c1.87-0.72,4.26-2.73,5.65-4.12c1.05-1,1.67-1.72,1.82-1.53c0.43,0.86-1.63,3.78-2.49,4.69c-0.86,0.86-1.34,1.34-1.96,1.77
		c-0.57,0.38-1.39,0.81-2.49,1.15c0.86,1.1,3.21,1.48,5.31,1.39c1.15-0.05,2.06-0.43,2.87-0.91c2.25-1.24,3.3-3.83,4.26-6.41
		c0.05-0.05,0.14-0.19,0.24-0.19l0,0c0.14,0,0.24,0.14,0.24,0.19c1,2.58,2.01,5.17,4.26,6.41c0.81,0.48,1.72,0.86,2.87,0.91
		c2.11,0.1,4.5-0.29,5.31-1.39c-1.05-0.33-1.91-0.77-2.49-1.15c-0.62-0.43-1.1-0.91-1.96-1.77c-0.91-0.91-2.92-3.83-2.49-4.69
		c0.1-0.19,0.77,0.53,1.82,1.53c1.39,1.39,3.78,3.4,5.65,4.12c3.35,1.29,8.52-0.19,9.04-3.11c-2.58,0-4.02-0.29-6.03-1.29
		c-1.15-0.57-4.55-2.63-4.02-3.3c0.43-0.53,4.59,1.77,7.94,2.54c2.25,0.53,4.59,0.53,6.56-0.91c0.77-0.57,2.2-2.15,2.54-3.59
		c-1.91,0.24-3.97,0.53-6.6,0.05c-1.1-0.19-5.26-1.24-4.79-2.15c0.29-0.57,3.92,0.24,5.36,0.43c1.82,0.19,3.97,0.05,5.69-0.29
		c3.78-0.67,5.79-2.34,5.46-6.75c-0.62,0.24-1.91,0.77-2.82,1c-1.77,0.48-9.19,1.1-9.24-0.29c0-0.77,4.69-1.29,6.17-1.67
		c3.54-0.91,8.37-2.25,9.67-5.89c0.67-1.87,0.81-4.88-0.53-6.22c-1.05,1.05-2.92,2.2-4.59,2.87c-0.29,0.1-0.86,0.33-1.48,0.57
		c-0.86,0.33-3.73,1.2-4.5,0.67c-0.1-0.1-0.1-0.24-0.05-0.43c0.05-0.1,0.14-0.19,0.24-0.29c0.19-0.19,0.38-0.33,0.62-0.53
		c0.38-0.29,0.91-0.57,1.34-0.86c4.21-2.39,10.72-6.89,9.81-12.49c-0.29-1.82-1.48-5.02-3.49-5.5c-0.77,1.96-1.91,3.92-2.92,5.12
		c-1,1.15-2.15,2.11-3.35,3.06c-0.67,0.53-1.34,1.15-2.15,1.48c-2.34,0.96,0.57-3.06,0.86-3.4c0.72-1.1,1.39-2.11,2.06-3.21
		c2.58-4.4,5.5-11.25,2.54-16.08c-1.29-2.15-3.06-4.07-6.7-3.88c0.24,1.87,0.33,3.54,0.33,5.07c0,1.2-0.14,2.49-0.62,4.4
		c-0.38,1.53-2.06,7.18-3.54,6.6c-0.72-0.29-0.05-3.3,0.14-4.74c0.67-4.98,0.91-10.62-0.38-15.36c-1.2-4.4-3.68-8.66-8.52-8.28
		c-1.24,0.1-3.35,0.72-4.16,1.39l1.15,2.11c3.45,6.8,5.12,16.27,1.77,23.3c-0.72,1.53-1.67,2.44-2.58,3.88
		c-2.25,3.68,0.05,6.94,2.15,8.71c2.58,2.2,3.83,3.68,5.12,7.8c2.97,9.62-5.79,20.72-16.46,20.67h-0.24l0,0h-0.24
		c-10.67,0.05-19.43-11.1-16.46-20.67c1.29-4.12,2.54-5.55,5.12-7.8c2.06-1.77,4.4-5.02,2.15-8.71c-0.86-1.44-1.87-2.34-2.58-3.88
		c-3.35-7.03-1.67-16.51,1.77-23.3l1.15-2.11c-0.81-0.67-2.92-1.29-4.16-1.39c-4.83-0.38-7.32,3.88-8.52,8.28
		c-1.29,4.79-1.05,10.38-0.38,15.36c0.19,1.39,0.86,4.4,0.14,4.74H17.07z M39.09,69.65L39.09,69.65h-0.24h-0.1
		c-4.26-0.05-8.37-1.44-12.15-4.07c-2.63-1.82-5.31-4.59-6.99-7.8c-3.83-7.27-2.97-16.8,1.77-23.3c1.82-2.54,2.11-1.24,1.1-5.31
		c-0.38-1.44-1.15-4.88-0.53-6.32c0.57,2.54,1.58,4.79,2.63,6.99c1.1,2.25,1.39,2.92,1.05,3.49c-0.67,0.67-0.96,0.77-2.34,2.44
		c-2.58,3.4-4.07,7.42-4.35,11.48c-0.24,3.54,0.33,7.13,1.96,10.38c1.05,2.15,2.63,4.21,4.55,5.98c2.78,2.58,7.7,5.55,13.26,5.6l0,0
		h0.05l0,0h0.1h0.24l0,0h0.24h0.1l0,0h0.05l0,0c5.55-0.05,10.48-3.01,13.26-5.6c1.91-1.82,3.45-3.83,4.55-5.98
		c1.63-3.25,2.2-6.89,1.96-10.38c-0.29-4.07-1.72-8.04-4.35-11.48c-1.39-1.67-1.67-1.77-2.34-2.44c-0.33-0.57-0.05-1.24,1.05-3.49
		c1.05-2.2,2.06-4.45,2.63-6.99c0.62,1.44-0.14,4.88-0.53,6.32c-1,4.02-0.77,2.78,1.1,5.31c4.69,6.51,5.6,16.03,1.77,23.3
		c-1.67,3.21-4.35,5.98-6.99,7.8c-3.73,2.63-7.9,4.02-12.15,4.07h-0.1H39.09z"/>
</g>
</svg>
