<?xml version="1.0" encoding="utf-8"?>
<!-- Generator: Adobe Illustrator 25.4.1, SVG Export Plug-In . SVG Version: 6.00 Build 0)  -->
<svg version="1.1" id="Layer_1" xmlns="http://www.w3.org/2000/svg" xmlns:xlink="http://www.w3.org/1999/xlink" x="0px" y="0px"
	 viewBox="0 0 110.56 80" style="enable-background:new 0 0 110.56 80;" xml:space="preserve">
<style type="text/css">
	.st0{fill-rule:evenodd;clip-rule:evenodd;fill:#EC2028;}
</style>
<g id="Layer_x0020_1">
	<g id="_166868888">
		<path class="st0" d="M5.9,55.02c0.22-0.47,0.44-0.76,0.6-1.38c0.03-0.06-0.06-0.03-0.09-0.03c-1.16,0.13-3.59,3.02-4.15,3.65
			c-0.53,0.6-1.45,1.32-1.73,2.23c-0.19,0.53-0.72,2.8-0.44,3.34c0.38,0.79,2.23-0.44,2.67-0.69c0.85-0.5,1.64-0.85,2.61-1.26
			c1.07-0.47,4.85-2.27,5.98-1.35c0.44,0.72-1.57,2.55-2.14,3.15c-1.13,1.2-2.45,2.96-3.52,4.34c-1.42,1.79-2.27,3.08-0.63,5.32
			c1.1,1.51,2.3,0.88,3.52,0.03c1.1-0.76,1.89-1.67,2.74-2.49c0.72-0.69,1.76-1.95,2.49-2.77l2.55-2.71
			c-0.35,1.86-2.39,5.1-1.29,7.05c1.42,2.49,3.81,2.01,5.82,0.38c3.02-2.45,6.1-6.61,7.71-10.16c0.41-0.91,0.98-2.27,1.2-3.27
			c0.85-3.62-1.54-4.85-3.02-1.01c-0.44,1.13,0.13,1.13-0.13,1.83c-0.6,1.7-3.43,5.6-4.44,6.73c-0.47,0.53-4.34,4.53-4.97,3.78
			c-0.53-1.29,3.68-7.77,4.34-8.78c0.44-0.69,2.45-3.52,2.61-4c0.28-0.91-0.76-3.74-3.05-1.04l-3.87,4.44
			c-1.42,1.7-7.96,8.65-9.28,8.75c-0.16-0.53,0.47-1.2,0.72-1.48c1.45-1.83,3.68-4.44,4.88-6.2c1.79-2.67,2.86-3.4,2.01-6.26
			c-0.16-0.57-0.44-1.1-0.76-1.45c-0.38-0.41-1.1-0.44-1.83-0.44c-3.46,0.03-5.63,1.45-7.14,1.76H5.9z"/>
		<path class="st0" d="M60.56,68.43c0.66-0.6,3.37-3.43,3.81-3.71l0.28,1.95c0.28,1.73-1.35,3.3-2.23,3.4
			c-0.31-0.35-0.47-0.66-0.79-1.01c-0.35-0.38-0.41-0.35-0.79-0.5l-0.28-0.16V68.43z M56.13,70.76c0.13-0.47,1.86-3.71,2.33-4.59
			c0.76-1.38-0.47-2.99-1.51-1.86c-0.79,0.82-2.61,3.08-3.21,3.65c-0.63,0.6-1.67,1.42-2.8,1.76c-2.11,0.63-1.13-1.76-0.47-2.33
			c0.85-0.72,4.56-2.67,5.73-3.4c0.47-0.28,1.13-0.53,1.13-1.2c-0.03-0.72-0.85-0.79-1.54-0.76c-1.35,0.09-3.62,1.35-4.72,2.11
			c-0.5,0.35-0.85,0.66-1.26,1.01c-1.38,1.13-0.94,1.35-2.2,2.36c-0.66,0.53-1.92,1.64-2.55,2.05c-1.76,1.16-1.86-0.47-0.94-1.64
			c0.69-0.85,1.35-1.67,2.08-2.49c0.38-0.44,0.79-0.69,0.6-1.6c-0.13-0.57-0.38-1.23-0.6-1.64h-0.03c-1.42-0.03-5.88,3.84-6.99,4.97
			c-0.91,0.91-1.38,1.92-2.08,1.73c-0.06-0.72,1.67-2.33,2.3-3.12c0.19-0.22,0.35-0.35,0.53-0.57c0.25-0.31,0.76-0.91,0.5-1.48
			c-0.19-0.38-1.98-0.63-2.8,0.22c-0.57,0.57-1.13,1.23-1.57,1.98c-0.22,0.38-0.41,0.76-0.6,1.16c-0.31,0.72-0.19,0.63-0.72,1.07
			c-0.72,0.57-1.23,1.01-2.01,1.54c-1.57,1.01-3.4,0.91-3.37-0.69c0-0.57,0.44-0.69,0.79-0.98c5.48-4.56,2.64-5.66,0.85-4.66
			c-2.05,1.16-4,4-3.9,6.73c0.06,2.17,1.35,3.84,3.68,2.86c1.83-0.79,2.8-2.01,3.9-3.18c0.06,0.76,0,1.23,0.31,1.89
			c0.66,1.35,1.64,1.23,2.52,0.25c0.31-0.35,0.66-0.72,0.98-1.13c0.79-0.98,3.08-3.87,4.25-4.34c-0.25,0.69-1.32,1.86-1.92,3.27
			c-0.25,0.6-0.53,1.35-0.31,2.11c0.22,0.72,0.41,1.32,1.13,1.42c1.16,0.16,2.83-1.16,3.46-1.7c0.66-0.57,2.23-2.2,2.61-2.45
			c0.28,2.49,0.85,4.09,3.56,2.77c1.79-0.88,3.65-2.96,4-3.12c-0.13,0.47-0.57,1.2-0.82,1.67c-0.94,1.83-0.69,1.83-1.92,2.83
			c-6.73,5.51-5.38,8.06-2.67,6.04c2.2-1.67,3.27-3.52,4.69-5.63c0.22-0.31,2.36-1.92,2.83-2.27c0.38-0.28,1.07-0.91,1.45-1.1
			c0.28,0.28,0.5,1.45,2.3,2.36c1.07,0.57,2.39,0.76,3.68,0.28c1.54-0.57,4.37-2.74,5.35-3.93l-0.22-1.07
			c-0.82,0.31-3.34,3.46-5.76,2.86c0.28-0.35,1.51-0.98,2.27-1.98c1.86-2.42,1.16-3.84,0.69-6.73c-0.22-1.32-2.01-0.76-2.45,0.22
			s0.16,0.5-0.72,1.38c-1.64,1.64-3.68,3.68-5.38,5.19c-0.41,0.38-0.69,0.63-1.1,1.01c-0.19,0.19-0.31,0.25-0.57,0.47
			c-0.28,0.25-0.35,0.31-0.63,0.44L56.13,70.76z"/>
		<path class="st0" d="M35.61,60.65c0.85-2.42-2.55-2.05-3.08,0.09c-0.25,1.01,0.41,1.89,1.45,1.51c0.79-0.28,1.35-0.79,1.67-1.6
			H35.61z"/>
		<path class="st0" d="M84.16,63.52c0.31-0.44,3.27-3.05,3.74-3.52c0.6-0.57,3.27-3.12,3.81-3.43l-3.68,6.67l-3.9,0.25L84.16,63.52z
			 M91.46,63.23c0.38-1.07,1.1-2.42,1.6-3.52c0.53-1.2,1.07-2.36,1.64-3.56c0.25-0.6,0.63-1.35,0.25-2.08
			c-0.69-1.26-2.17-0.09-2.64,0.25c-1.32,0.94-3.9,3.05-4.94,4.03c-1.29,1.26-3.02,2.64-4.06,3.74c-0.22,0.25-0.41,0.38-0.66,0.6
			c-0.88,0.79-0.66,0.88-1.67,0.94c-0.44,0.03-0.85,0.06-1.26,0.06c-0.79-0.03-1.6-0.09-2.39-0.22l0.44-1.38
			c-0.79,0.25-3.02,2.17-3.65,2.93c-0.28,0.35-0.66,0.91-0.6,1.51c0.35,0.82,2.99,0.19,4.85,0.38c-0.06,0.19-1.83,2.3-1.98,2.39
			c-0.35,0.22-0.57,0.22-1.45,0.85c-1.04,0.72-2.9,2.42-2.93,3.74c0,0.72,0.88,0.76,1.45,0.53c0.88-0.35,1.67-1.48,2.33-2.17
			c1.23-1.23,3.34-3.65,4.37-4.59c0.66-0.63,0.31-0.72,1.48-0.72h4.41l-1.32,3.3c-0.5,1.29-0.53,3.05,1.16,2.96
			c1.16-0.06,2.49-0.94,3.21-1.45c0.44-0.31,0.94-0.72,1.32-1.07l1.13-1.13l-0.44-0.76c-0.35,0.25-0.72,0.53-1.07,0.85
			c-1.45,1.16-1.73,0.53-1.42-0.16l1.16-2.64l2.96-0.09c0.25-0.28,0.66-1.32,0.91-1.76c0.25-0.44,0.88-1.32,1.01-1.67
			c-1.26-0.31-1.95,0-3.18-0.13L91.46,63.23z"/>
		<path class="st0" d="M103.8,64.02c0.03-0.31,0.28-0.85-0.03-1.07c-0.63-0.41-1.86,0.98-2.2,1.38c-0.5,0.57-1.6,2.42-0.82,2.96
			c0.09,0.06,0.13,0.06,0.22,0.13c0.13,0.09,0.06,0.03,0.16,0.09c-0.66,1.07-1.54,1.76-2.61,2.45c-0.82,0.53-3.02,1.1-2.8-1.35
			c0.79-0.47,3.56-3.21,3.68-4.56c0.16-1.54-2.3-1.7-4.53,1.7c-0.76,1.16-1.32,2.3-1.35,4.06c-0.03,1.67,0.5,3.34,1.98,3.52
			c1.38,0.19,2.93-1.2,3.59-1.76l3.08-3.68c0.25-0.35,0.25-0.57,0.69-0.66c0.6-0.19,1.57-0.41,2.2-0.5
			c-0.09,0.25-0.85,1.23-1.1,1.64c-1.64,2.67-1.13,5.07,1.07,4.81c2.08-0.25,3.62-1.79,4.78-3.18l0.76-0.91l-0.19-0.85
			c-0.66,0.5-2.17,2.2-3.15,2.33c-1.01,0.13-0.98-0.88-0.66-1.54c0.35-0.82,0.53-1.01,1.07-1.57c1.2-1.29,1.64-1.35,1.42-2.67
			c-0.06-0.47-0.16-0.69-0.5-0.85c-1.29-0.6-3.3,0.03-4.69,0.16L103.8,64.02z"/>
		<path class="st0" d="M101.6,60.75c0.88-2.55-2.2-2.14-2.9-0.16c-0.31,0.98,0.25,2.01,1.23,1.76c0.72-0.19,1.42-0.94,1.64-1.6
			H101.6z"/>
		<path class="st0" d="M43.13,18.68c-0.98,0.38-2.08-3.34-2.33-4.34c-0.31-1.26-0.41-2.11-0.41-2.9c0-1.01,0.06-2.11,0.22-3.34
			c-2.39-0.16-3.56,1.1-4.41,2.55c-1.95,3.21,0,7.68,1.67,10.57c0.44,0.76,0.85,1.42,1.35,2.11c0.16,0.25,2.11,2.86,0.57,2.23
			c-0.53-0.22-0.98-0.63-1.42-0.98c-0.79-0.6-1.54-1.26-2.2-2.01c-0.66-0.79-1.45-2.08-1.92-3.37c-1.32,0.31-2.11,2.42-2.3,3.62
			c-0.6,3.68,3.71,6.64,6.45,8.21c0.28,0.16,0.63,0.38,0.88,0.57c0.16,0.09,0.28,0.22,0.41,0.35c0.06,0.06,0.13,0.13,0.16,0.19
			c0.03,0.13,0.03,0.19-0.03,0.28c-0.47,0.38-2.36-0.22-2.96-0.44c-0.41-0.16-0.79-0.31-0.98-0.38c-1.13-0.44-2.33-1.23-3.02-1.89
			c-0.88,0.91-0.79,2.86-0.35,4.09c0.85,2.39,4.06,3.27,6.39,3.87c0.98,0.25,4.06,0.57,4.06,1.1c-0.03,0.88-4.91,0.47-6.07,0.19
			c-0.6-0.16-1.45-0.5-1.86-0.66c-0.22,2.9,1.1,3.96,3.59,4.44c1.13,0.19,2.58,0.31,3.74,0.19c0.91-0.09,3.34-0.63,3.52-0.28
			c0.31,0.6-2.42,1.29-3.15,1.42c-1.73,0.31-3.08,0.13-4.34-0.03c0.22,0.91,1.13,1.95,1.67,2.36c1.29,0.94,2.8,0.94,4.31,0.6
			c2.2-0.5,4.94-2.01,5.22-1.67c0.35,0.47-1.89,1.83-2.64,2.17c-1.35,0.66-2.27,0.82-3.96,0.85c0.31,1.92,3.74,2.93,5.95,2.05
			c1.23-0.47,2.8-1.79,3.71-2.71c0.69-0.66,1.1-1.13,1.2-1.01c0.28,0.57-1.07,2.49-1.64,3.08c-0.57,0.57-0.88,0.88-1.29,1.16
			c-0.38,0.25-0.91,0.53-1.64,0.76c0.57,0.72,2.11,0.98,3.49,0.91c0.76-0.03,1.35-0.28,1.89-0.6c1.48-0.82,2.17-2.52,2.8-4.22
			c0.03-0.03,0.09-0.13,0.16-0.13l0,0c0.09,0,0.16,0.09,0.16,0.13c0.66,1.7,1.32,3.4,2.8,4.22c0.53,0.31,1.13,0.57,1.89,0.6
			c1.38,0.06,2.96-0.19,3.49-0.91c-0.69-0.22-1.26-0.5-1.64-0.76c-0.41-0.28-0.72-0.6-1.29-1.16c-0.6-0.6-1.92-2.52-1.64-3.08
			c0.06-0.13,0.5,0.35,1.2,1.01c0.91,0.91,2.49,2.23,3.71,2.71c2.2,0.85,5.6-0.13,5.95-2.05c-1.7,0-2.64-0.19-3.96-0.85
			c-0.76-0.38-2.99-1.73-2.64-2.17c0.28-0.35,3.02,1.16,5.22,1.67c1.48,0.35,3.02,0.35,4.31-0.6c0.5-0.38,1.45-1.42,1.67-2.36
			c-1.26,0.16-2.61,0.35-4.34,0.03c-0.72-0.13-3.46-0.82-3.15-1.42c0.19-0.38,2.58,0.16,3.52,0.28c1.2,0.13,2.61,0.03,3.74-0.19
			c2.49-0.44,3.81-1.54,3.59-4.44c-0.41,0.16-1.26,0.5-1.86,0.66c-1.16,0.31-6.04,0.72-6.07-0.19c0-0.5,3.08-0.85,4.06-1.1
			c2.33-0.6,5.51-1.48,6.36-3.87c0.44-1.23,0.53-3.21-0.35-4.09c-0.69,0.69-1.92,1.45-3.02,1.89c-0.19,0.06-0.57,0.22-0.98,0.38
			c-0.57,0.22-2.45,0.79-2.96,0.44c-0.06-0.06-0.06-0.16-0.03-0.28c0.03-0.06,0.09-0.13,0.16-0.19c0.13-0.13,0.25-0.22,0.41-0.35
			c0.25-0.19,0.6-0.38,0.88-0.57c2.77-1.57,7.05-4.53,6.45-8.21c-0.19-1.2-0.98-3.3-2.3-3.62c-0.5,1.29-1.26,2.58-1.92,3.37
			c-0.66,0.76-1.42,1.38-2.2,2.01c-0.44,0.35-0.88,0.76-1.42,0.98c-1.54,0.63,0.38-2.01,0.57-2.23c0.47-0.72,0.91-1.38,1.35-2.11
			c1.7-2.9,3.62-7.39,1.67-10.57c-0.85-1.42-2.01-2.67-4.41-2.55c0.16,1.23,0.22,2.33,0.22,3.34c0,0.79-0.09,1.64-0.41,2.9
			c-0.25,1.01-1.35,4.72-2.33,4.34c-0.47-0.19-0.03-2.17,0.09-3.12c0.44-3.27,0.6-6.99-0.25-10.1c-0.79-2.9-2.42-5.7-5.6-5.44
			c-0.82,0.06-2.2,0.47-2.74,0.91l0.76,1.38c2.27,4.47,3.37,10.7,1.16,15.32c-0.47,1.01-1.1,1.6-1.7,2.55
			c-1.48,2.42,0.03,4.56,1.42,5.73c1.7,1.45,2.52,2.42,3.37,5.13c1.95,6.33-3.81,13.63-10.82,13.59h-0.16l0,0h-0.16
			c-7.02,0.03-12.78-7.3-10.82-13.59c0.85-2.71,1.67-3.65,3.37-5.13c1.35-1.16,2.9-3.3,1.42-5.73c-0.57-0.94-1.23-1.54-1.7-2.55
			c-2.2-4.63-1.1-10.86,1.16-15.32l0.76-1.38c-0.53-0.44-1.92-0.85-2.74-0.91c-3.18-0.25-4.81,2.55-5.6,5.44
			c-0.85,3.15-0.69,6.83-0.25,10.1c0.13,0.91,0.57,2.9,0.09,3.12H43.13z M57.6,45.8L57.6,45.8h-0.16h-0.06
			c-2.8-0.03-5.51-0.94-7.99-2.67c-1.73-1.2-3.49-3.02-4.59-5.13c-2.52-4.78-1.95-11.05,1.16-15.32c1.2-1.67,1.38-0.82,0.72-3.49
			c-0.25-0.94-0.76-3.21-0.35-4.15c0.38,1.67,1.04,3.15,1.73,4.59c0.72,1.48,0.91,1.92,0.69,2.3c-0.44,0.44-0.63,0.5-1.54,1.6
			c-1.7,2.23-2.67,4.88-2.86,7.55c-0.16,2.33,0.22,4.69,1.29,6.83c0.69,1.42,1.73,2.77,2.99,3.93c1.83,1.7,5.07,3.65,8.72,3.68l0,0
			h0.03l0,0h0.06h0.16l0,0h0.16h0.06l0,0h0.03l0,0c3.65-0.03,6.89-1.98,8.72-3.68c1.26-1.2,2.27-2.52,2.99-3.93
			c1.07-2.14,1.45-4.53,1.29-6.83c-0.19-2.67-1.13-5.29-2.86-7.55c-0.91-1.1-1.1-1.16-1.54-1.6c-0.22-0.38-0.03-0.82,0.69-2.3
			c0.69-1.45,1.35-2.93,1.73-4.59c0.41,0.94-0.09,3.21-0.35,4.15c-0.66,2.64-0.5,1.83,0.72,3.49c3.08,4.28,3.68,10.54,1.16,15.32
			c-1.1,2.11-2.86,3.93-4.59,5.13c-2.45,1.73-5.19,2.64-7.99,2.67h-0.06H57.6z"/>
	</g>
</g>
</svg>
