<?xml version="1.0" encoding="utf-8"?>
<!-- Generator: Adobe Illustrator 25.4.1, SVG Export Plug-In . SVG Version: 6.00 Build 0)  -->
<svg version="1.1" xmlns="http://www.w3.org/2000/svg" xmlns:xlink="http://www.w3.org/1999/xlink" x="0px" y="0px"
	 viewBox="0 0 240.81 80" style="enable-background:new 0 0 240.81 80;" xml:space="preserve">
<style type="text/css">
	.st0{fill:#E41B47;}
</style>
<g id="Layer_2">
</g>
<g id="Layer_1">
	<g id="layer1">
		<g id="g10" transform="matrix(0.04592501,0,0,-0.04592501,0.2823509,21.177272)">
			<path id="path6791" class="st0" d="M888.05,461.13l-61.24-116.27c-33.68-63.95-61.21-116.99-61.21-117.84
				c0-0.86,43.28-1.5,96.2-1.47l96.23,0.06l22.09,37.24c12.15,20.49,22.63,37.24,23.32,37.21c0.68-0.03,13.31-16.81,28.06-37.28
				l26.83-37.21l94.12-0.06l94.15-0.04l-20.96,22.74c-11.53,12.51-25.83,28.16-31.78,34.79l-10.82,12.05l7.61,1.47
				c23.98,4.61,40.07,9.37,46.63,13.79c9.83,6.62,28.52,35.09,46.46,70.77c11.75,23.36,14.76,31.58,15.57,42.77
				c1.24,17.14-2.09,22.93-17.51,30.52l-11.2,5.53l-191.27,0.61L888.05,461.13z M626.39,461.06l-19.97-36.73
				c-10.99-20.21-28.1-51.44-38-69.4c-9.9-17.96-22.26-40.53-27.45-50.15c-7.88-14.61-39.44-71.68-42.91-77.6
				c-0.57-0.98,42.84-1.5,96.44-1.16l97.46,0.61l23.52,43.15c12.95,23.73,41.61,76.08,63.67,116.31
				c22.05,40.23,40.08,73.54,40.08,74.04c0,0.5-43.37,0.92-96.4,0.92H626.39z M1878.76,461.06l-54.24-103.23
				c-29.83-56.77-57.86-109.77-62.3-117.81l-8.06-14.61l79.78,0.62l79.81,0.61l23.86,40.69c13.13,22.39,24.83,41.02,25.98,41.37
				c1.15,0.36,11.86-18.24,23.79-41.31l21.71-41.92h95.38h95.38l10.99,20.41c6.05,11.23,14.89,27.23,19.63,35.57
				c4.74,8.34,13.12,23.53,18.64,33.8s20.76,38.09,33.83,61.82c13.07,23.73,28.72,52.34,34.79,63.56l11.03,20.41h-79.2h-79.2
				l-27.58-45.71c-21.77-36.09-28.06-45-30.01-42.3c-1.35,1.88-12.94,22.45-25.74,45.71l-23.28,42.3h-92.51L1878.76,461.06z
				 M2401.88,461.06l-6.14-11.09c-3.37-6.09-9.26-16.84-13.11-23.9c-40.01-73.34-102.27-187.04-105.76-193.12l-4.4-7.68l211.65,0.68
				l211.65,0.68l13.89,7c18.14,9.14,28.69,19.87,46.63,47.38c16.54,25.37,49.79,85.32,66.91,120.57
				c10.72,22.08,14.85,38.57,8.67,34.75c-1.73-1.07-2.07-0.62-0.92,1.23c2.33,3.77-9.26,16.08-19.08,20.28
				c-6.18,2.64-43.04,3.21-208.75,3.21L2401.88,461.06z M3231.4,461.06l-27.96-33.25c-15.37-18.28-38.17-45.29-50.66-60.05
				c-12.49-14.75-37.7-44.69-56.02-66.5c-18.32-21.81-40.14-47.65-48.51-57.45c-13.35-15.65-14.65-17.99-10.58-19.05
				c2.55-0.67,23.16-1.38,45.85-1.54c22.68-0.17,41.74-0.78,42.33-1.37c0.59-0.59,19.02-1.06,40.97-1.06h39.91l14.58,17.51
				l14.61,17.48h43.08c23.69,0,43.08-0.58,43.08-1.3c0-0.71-3.11-7.53-6.9-15.16l-6.86-13.86h89.41h89.37l7.44,27.41
				c4.09,15.07,13.05,47.87,19.94,72.88c25.61,93,33.72,122.62,35.2,128.87l1.5,6.42h-159.9L3231.4,461.06z M353.45,460.96
				l-160.52-0.14l-37.31-44.72c-40.22-48.18-112.52-134.06-141.6-168.2C4.14,236.3-3.39,226.24-2.7,225.55
				c0.69-0.69,21.91-1.83,47.14-2.56c25.23-0.73,63.84-1.51,85.82-1.74c39.09-0.42,40.07-0.32,43.49,4.81
				c3.32,4.98,6.2,8.47,19.36,23.32l5.7,6.42h43.12c23.72,0,43.15-0.55,43.15-1.23c0-0.68-3.17-7.5-7.03-15.16l-7.03-13.93h89.44
				h89.44l2.39,9.9c2,8.3,56.8,209.05,60.49,221.59C513.91,460.83,505.26,461.07,353.45,460.96z M1672.29,460.59
				c-34.64-0.06-59.53-0.53-60.22-1.26c-1.67-1.78-52.51-93.74-73.36-132.69c-6.09-11.38-14.98-27.51-19.73-35.84
				c-4.75-8.34-14.64-26.46-21.98-40.25l-13.35-25.06h96.78h96.78l12.26,22.74c6.74,12.51,14.28,26.4,16.8,30.89
				c2.52,4.49,11.72,21.31,20.41,37.35c8.7,16.04,30,54.87,47.35,86.3l31.54,57.15l-95.93,0.62
				C1696.45,460.6,1683.84,460.6,1672.29,460.59L1672.29,460.59z M2983.62,460.59c-34.85-0.06-59.59-0.53-59.84-1.26
				c-0.34-0.98-28.47-52.43-62.51-114.36c-34.04-61.93-62.5-114.14-63.22-116.03c-1.16-3.01,10.97-3.47,95.14-3.41l96.47,0.06
				l38.51,70.29c21.17,38.66,43.9,80.34,50.56,92.65c6.65,12.31,18.28,33.4,25.81,46.87l13.66,24.51l-96.88,0.62
				C3007.99,460.6,2995.24,460.6,2983.62,460.59L2983.62,460.59z M349.73,432.18c0.48-0.48-4.24-13.86-10.48-29.73
				c-6.24-15.87-16.51-42.23-22.84-58.58l-11.5-29.73l-28.57-0.04c-15.77,0-28.57,0.97-28.57,2.15c0,1.18,0.88,2.47,1.98,2.9
				c3.82,1.49,63.01,71.46,61.62,72.85c-0.77,0.77-0.26,1.4,1.16,1.4c1.42,0,10.18,8.94,19.46,19.83
				C341.26,424.13,349.26,432.66,349.73,432.18L349.73,432.18z M3385.43,430.82c0.23-0.03,0.44-0.14,0.62-0.31
				c0.68-0.69-4.88-16.92-12.36-36.08c-7.48-19.16-17.54-45.08-22.36-57.59l-8.74-22.74h-27.75c-15.26,0-27.75,0.8-27.75,1.78
				c0,0.98,2.37,4.38,5.29,7.58c2.92,3.19,11.59,13.25,19.25,22.33c7.67,9.08,26.53,31.06,41.92,48.85
				c15.4,17.79,28.74,33.4,29.63,34.72C3383.84,430.33,3384.73,430.89,3385.43,430.82L3385.43,430.82z M2566.7,402.76h17.44
				c16.74,0,25.68-2.44,29.36-7.95c2.3-3.44,2.5-8.16-0.31-16.86c-2.8-8.7-8.62-21.37-18.23-40.62
				c-11.18-22.39-20.18-42.08-20.04-43.76c0.14-1.69-0.21-2.59-0.78-2.01c-0.58,0.58-6.27-0.93-12.63-3.35
				c-8.38-3.18-17.66-4.4-33.69-4.4c-10.59,0-16.75,0.26-19.7,1.13c-2.94,0.87-2.69,2.35-0.41,4.81
				c1.13,1.22,14.86,27.16,30.52,57.62L2566.7,402.76z M1048.16,398.62l22.56-1.6c12.42-0.87,24.42-2.09,26.66-2.73
				c3.45-0.99,5.26-3.95,5.77-7.95c0.51-4-0.3-9.06-2.12-14.3c-3.64-10.48-11.31-21.64-20.55-26.42c-6.53-3.38-38.4-4.74-46.67-1.98
				c-1.92,0.64-4.77,1.56-6.35,2.05c-3.08,0.96-1.33,5.86,13.21,36.94L1048.16,398.62z M5237.12,76.5
				c-1.69-0.33-11.57-6.54-28.03-17.24c-53.19-34.57-145.03-90.89-185.74-113.88l-9.66-5.43l6.15-11.16
				c3.38-6.13,6.71-11.18,7.37-11.2c2.9-0.08,66.26,46.07,118.9,86.61C5213.74,56.27,5240.35,77.12,5237.12,76.5z M3182.41,44.62
				c-11.63,0.02-23.38-0.39-35.26-1.23c-96.33-6.78-164.75-35.82-228.48-96.95c-72.83-69.86-107.97-159.04-113.41-287.78
				c-3.59-85.14,11.71-167.91,42.3-228.93c52.11-103.96,145.95-168.15,270.4-184.96v0.04c45.6-6.16,121.97-4.04,171.44,4.74
				c43.77,7.77,99.57,29.4,130.27,50.49c16.58,11.39,50.62,45.16,65.75,65.24c18.89,25.06,37.46,58.9,49.94,90.91
				c5.84,14.98,10.62,28.14,10.62,29.26s-28.05,4.95-62.37,8.5c-34.32,3.55-65.2,6.98-68.58,7.61c-5.82,1.08-7.02-0.52-21.64-28.54
				c-29.61-56.73-56.49-86.96-93.06-104.6c-33.4-16.11-65.18-22.26-114.94-22.26c-56.66,0-99.64,13.92-144.4,46.77
				c-38.41,28.19-68.15,80.95-82.75,146.83c-4.65,20.99-10.6,67.19-8.88,68.92c0.56,0.56,135.08,1.06,298.91,1.06h297.89l2.49,6.38
				c3.66,9.26,2.77,71.49-1.5,104.36c-9.07,69.76-29.24,126.83-62.57,177.07c-17.97,27.08-59.03,68.23-85.79,85.99
				C3338.57,23.5,3263.83,44.48,3182.41,44.62L3182.41,44.62z M373.87,44.48c-29.99,0.16-62.68-2.25-88.86-6.79
				c-106.28-18.44-197.87-87.07-246-184.28C9.47-206.25-3.03-261.29-5.74-343.66C-8.69-433.3,4.36-504.48,35.7-569.45
				c7.39-15.32,12.53-23.43,14.2-22.39c1.6,1,2.01,0.58,0.99-1.06c-2.49-4.03,20.36-35.75,42.74-59.3
				c53.03-55.8,126.16-91.4,211.52-103.03v-0.04c28.12-3.83,96.68-4.48,129.55-1.23c55.21,5.46,103.61,18.83,144.85,40.01
				c54.37,27.93,101.67,79.61,132.08,144.37c10.75,22.88,24.54,58.23,23.11,59.23c-0.36,0.25-28.47,3.35-62.47,6.86
				c-34,3.51-64.97,6.9-68.86,7.54c-6.8,1.12-7.35,0.57-14.3-15.09c-17.78-40.01-49.09-83.39-73.7-102.04
				c-19.36-14.67-43.91-25.83-70.08-31.85c-29.86-6.87-101.05-7.42-128.49-0.99c-35.4,8.3-61.1,21.13-92.17,45.98
				c-18.57,14.85-30.02,28.62-44.96,54.21c-20,34.24-36.82,91.62-40.62,138.46l-1.57,19.46l293.62,0.31
				c161.5,0.17,296.05,0.56,298.98,0.85c2.93,0.31,6.08,1.29,7,2.22c3.46,3.49,1.34,97.34-2.73,121.33
				c-15.4,90.62-47.27,157.19-100.54,210.01C572.94,4.76,498.56,36.64,402.61,43.45C393.56,44.1,383.87,44.43,373.87,44.48
				L373.87,44.48z M3966.79,39.33c-9.37-0.04-18.05-0.25-25.19-0.68c-51.79-3.17-107.95-16.8-143.99-34.92
				c-28.93-14.55-56.03-33.15-69.16-47.52c-33.85-37.04-56.85-102.04-53.22-150.41c2.23-29.72,7.23-47.71,21.2-76.33
				c10.45-21.42,15.72-29.09,29.7-43.32c28.53-29.04,63.59-48.47,121.94-67.52c26.74-8.73,105.71-28.94,135.29-34.62
				c31.84-6.11,136.62-38.28,153.96-47.28c2.57-1.33,6-4.36,7.68-6.73c1.68-2.36,4.37-4.3,5.94-4.3c2.33,0,47.25,19.08,126.89,53.84
				c5.45,2.38,9.93,5,9.93,5.84c0,3.67-16.94,24.07-27,32.53c-11.16,9.38-42.26,29.09-45.92,29.09c-1.09,0-14.29,5.68-29.29,12.6
				c-34.64,15.96-66.25,26.08-127.64,40.9c-88.14,21.28-176.73,47.04-199.81,58.1c-16.92,8.11-39.76,30.53-49.12,48.2
				c-6.3,11.9-6.49,37.1-0.38,52.47c11.55,29.04,38.02,51.89,74.04,63.94c35.15,11.76,111.73,15.61,149.08,7.48
				c64.08-13.95,111.52-55.9,123.1-108.83l2.83-12.9l64.96,7.2c35.73,3.96,65.67,7.92,66.57,8.81c2.25,2.25-9.07,44.43-17.82,66.33
				c-9.5,23.78-24.3,47.32-41.82,66.43c-14.93,16.29-42.79,35.81-47.21,33.08c-1.47-0.91-1.95-0.59-1.13,0.75
				c1.85,2.99-32.94,19.25-57.9,27.04c-17.06,5.33-53.82,13.3-76.98,16.73C4029.14,37.84,3994.89,39.43,3966.79,39.33L3966.79,39.33
				z M4735.6,39.26c-54.9-0.09-104.53-8.35-147.41-24.51c-17.57-6.62-49.17-23.48-47.38-25.26c0.64-0.64-0.32-1.16-2.15-1.16
				c-7.1,0-30.49-16.69-45.3-32.33c-24.34-25.7-45.5-70.31-51.75-109.07c-3.52-21.86-1.79-59.81,3.65-79.81
				c6.66-24.5,21-51.7,37.55-71.31c8.57-10.16,15.92-18.47,16.32-18.47s25.16,11.83,55.03,26.32
				c29.87,14.49,62.43,29.89,72.37,34.24c9.94,4.35,18.09,8.66,18.09,9.56s-5.95,4.05-13.21,7c-7.26,2.95-17.66,8.74-23.11,12.9
				c-5.45,4.16-10.54,7.13-11.3,6.59c-0.76-0.55-0.87-0.33-0.27,0.48c0.6,0.81-2.39,5.54-6.62,10.48
				c-4.23,4.94-10.74,14.51-14.47,21.27c-9.58,17.33-9.67,39.13-0.24,58.34c7.96,16.22,26.15,36.64,39.57,44.45
				c14.94,8.69,41.79,17.6,65.51,21.78c30.57,5.38,89.98,5.32,115.76-0.14c31.56-6.68,68.85-23.5,80.36-36.22
				c2.47-2.72,7.96-7.1,12.22-9.73l7.75-4.78l42.57,22.05c36.82,19.08,66.13,35.18,69.09,37.96c0.48,0.45-3.59,6.15-9.05,12.67
				c-27.67,33.05-84.88,62.15-148.43,75.51C4811.89,36.23,4780.19,39.33,4735.6,39.26L4735.6,39.26z M1916.69,39.23
				c-68.78,0.01-113.31-14.88-168.98-56.5c-19.67-14.7-33.32-27.49-49.7-46.46l-11.06-12.77v50.69v50.69h-67.63h-67.66V-509.3
				v-534.15h69.98h69.98v183.63c0,171.47,0.26,183.24,3.86,177.86c15.28-22.88,61.42-55.9,94.12-67.35
				c19.65-6.88,66.4-16.11,95.41-18.84c62.22-5.87,136.33,8.9,189.16,37.72c112.02,61.12,178.75,159.43,199.91,294.44
				c5.79,36.93,5.71,121.14-0.17,156.49c-10.83,65.17-30.34,120.57-55.81,158.6c-27.95,41.73-79.42,90.53-119.45,113.27
				C2042.25,24.38,1984.66,39.22,1916.69,39.23L1916.69,39.23z M1295.79,20.21l-24.07-34.31c-13.24-18.87-24.07-35.66-24.07-37.31
				c0-1.65-0.47-2.53-1.06-1.95c-1.3,1.3-24.12-30.76-77.19-108.39c-27.98-40.94-63.3-89.66-65.58-90.5
				c-1.06-0.39-4.31,3.52-7.2,8.67c-2.89,5.15-6.27,8.71-7.54,7.92c-1.32-0.82-1.58-0.27-0.61,1.3c0.99,1.61-6.46,15.1-17.89,32.43
				C1049.06-169.27,922.92,12.6,918.54,17.31c-2.13,2.28-21.29,2.83-85.96,2.36l-83.23-0.62L760.99,2.7
				c6.39-8.98,14.54-20.51,18.13-25.64c33.16-47.41,190.23-269.75,222.95-315.6l7.17-10.04l-4.61-7.92
				c-2.54-4.36-18.36-27.67-35.16-51.79c-27.98-40.16-97.83-141.36-177.99-257.94c-17.45-25.38-38.44-55.81-46.63-67.63
				c-8.2-11.82-16.41-23.83-18.26-26.66v0.06l-3.38-5.15l81.52-0.17l81.52-0.17l25.23,36.77c13.88,20.23,31.02,45.18,38.06,55.44
				c7.05,10.26,24.49,35.46,38.78,55.99c27.93,40.12,53.96,78.05,90.4,131.81c12.61,18.6,23.79,34.11,24.85,34.48
				c1.06,0.37,3.82-2.26,6.14-5.84c2.33-3.58,13.57-18.45,24.99-33.08c11.41-14.63,58.12-82.58,103.78-150.99l82.99-124.36h81.38
				c63.37,0.01,80.99,0.65,79.71,2.87c-5.96,10.37-41.84,61.7-44.79,64.08c-1.99,1.6-2.86,2.9-1.91,2.9
				c0.95,0-11.28,19.16-27.17,42.57s-52.32,77.21-80.94,119.55c-28.62,42.33-68.15,100.76-87.84,129.83
				c-19.69,29.06-35.81,53.44-35.81,54.18c0,1.81,18.41,28.6,143.58,209.2c59.07,85.23,108.19,156.28,109.17,157.89
				c1.41,2.31-15.12,2.9-79.64,2.9L1295.79,20.21z M2368.05,15.53v-387.19v-387.22h68.62h68.65l0.99,230.36
				c0.88,202.32,1.49,233.41,4.98,255.69c8.07,51.46,22.72,83.11,53.25,114.91c41.07,42.78,86.99,59.93,140.27,52.4
				c15.01-2.12,56.34-12.72,69.81-17.89c3.23-1.24,4.79,3.19,23.76,67.8c4.52,15.39,9.24,29.83,10.51,32.06
				c1.98,3.46,0.01,5.22-13.42,11.95c-67.27,33.73-142.07,35.95-202.09,5.97c-26.17-13.07-44.41-26.79-66.16-49.77
				c-10.42-11.01-19.52-20.04-20.24-20.04c-0.72,0-1.33,20.49-1.33,45.51v45.47h-68.79H2368.05z M367.86-59.46
				c5.19-0.03,10.49-0.22,15.87-0.55c27.7-1.67,51.09-5.96,72.54-13.69c21.45-7.73,40.97-18.9,60.83-34.38
				c13.53-10.54,24.67-22.08,34.34-35.84c9.67-13.77,17.87-29.76,25.47-49.29c7.83-20.15,17.35-60.15,19.01-79.88l1.02-12.26H369.57
				H142.18l1.64,14.58c2.34,21.2,6.97,41.46,13.72,60.46c6.76,19,15.62,36.72,26.39,52.91s23.44,30.84,37.82,43.63
				c14.38,12.79,30.47,23.72,48.07,32.5c17.03,8.5,34.76,14.47,53.6,17.99C337.54-60.65,352.28-59.38,367.86-59.46L367.86-59.46z
				 M3178.58-60.18c21.02,0.18,42.35-1.26,57.15-4.4c20.39-4.33,39.6-11.16,57.32-20.35c17.72-9.18,33.93-20.73,48.34-34.44
				c16.8-15.99,24.14-26.34,37.69-53.25c7.21-14.32,13.03-29.49,17.65-46.05c4.62-16.56,8.04-34.51,10.38-54.42l1.43-12.26h-227.66
				h-227.7l1.54,13.42c2.96,25.92,9.26,50.36,18.47,72.78c9.21,22.43,21.37,42.84,35.98,60.73c14.61,17.89,31.7,33.26,50.86,45.57
				c19.17,12.32,40.42,21.57,63.29,27.28C3136.88-62.19,3157.57-60.36,3178.58-60.18L3178.58-60.18z M5024.31-88.65
				c-0.1-0.01-0.19-0.05-0.27-0.1c-1.42-0.88-17.89-12.16-36.56-25.06c-18.68-12.89-41.65-28.68-51.07-35.09
				c-9.42-6.41-17.61-12.91-18.2-14.44c-0.59-1.53,0.1-8.36,1.54-15.23l2.59-12.49l65.2,7.27c35.88,3.99,65.79,7.79,66.47,8.47
				c1.54,1.55-4.72,31.95-9.76,47.42C5038.05-108.95,5027.53-88.33,5024.31-88.65L5024.31-88.65z M1929.11-100.19
				c11.59-0.12,22.93-1.23,34-3.28c14.76-2.73,28.99-7.14,42.54-13.07c13.55-5.94,26.42-13.42,38.44-22.33s23.2-19.23,33.35-30.86
				s19.3-24.56,27.28-38.68c7.97-14.12,14.78-29.41,20.24-45.78c5.47-16.36,9.58-33.79,12.22-52.16c3.24-22.59,3.24-74.86,0-100.91
				c-3.48-28.02-10.22-54.19-19.83-78.04c-9.61-23.84-22.09-45.34-37.04-64.01c-14.95-18.67-32.37-34.53-51.86-47.04
				s-41.05-21.69-64.28-27.04c-14.72-3.39-29.52-5.24-44.28-5.63c-14.75-0.39-29.45,0.7-43.83,3.24
				c-14.38,2.54-28.48,6.52-42.09,11.91c-13.61,5.39-26.73,12.2-39.16,20.38c-15.95,10.5-30.11,23.05-42.43,37.55
				c-12.32,14.51-22.8,30.97-31.41,49.29c-8.6,18.32-15.35,38.51-20.14,60.46s-7.64,45.63-8.53,71.01
				c-0.96,27.37,0.38,51.06,4.44,73.36c4.06,22.31,10.84,43.24,20.76,65.1c6.77,14.93,15.63,29.34,26.15,42.84
				c10.52,13.5,22.7,26.12,36.02,37.38c13.31,11.26,27.76,21.18,42.91,29.39c15.15,8.22,30.99,14.73,47.01,19.08
				c16.21,4.4,32.22,6.9,47.86,7.61C1921.35-100.22,1925.25-100.15,1929.11-100.19L1929.11-100.19z M4729.77-274.81l-29.53-16.35
				c-16.24-8.99-29.12-17.03-28.61-17.85c0.51-0.82-0.44-1.34-2.12-1.16c-4.46,0.47-97.43-52.89-95.42-54.76
				c5.58-5.16,86.07-28.86,162.5-47.83c53.82-13.36,123.25-33.91,151.06-44.72c17.66-6.86,32.86-19.91,42.71-36.66
				c8.53-14.52,16.86-49.2,14.75-61.38c-2.44-14.04-12.1-34.29-22.39-46.87c-4.78-5.83-8.31-11.66-7.89-12.97
				c0.43-1.31,0.05-1.66-0.82-0.79c-0.87,0.87-7.53-3.27-14.78-9.18c-24.52-19.99-60.54-32.86-106.65-38.1
				c-28.39-3.22-52.12-1.49-81.42,5.94c-51.23,13-111.31,43.36-124.81,63.05c-12.92,18.85-32.71,64.36-36.25,83.4
				c-1.38,7.39-2.39,8.54-6.62,7.54c-2.75-0.64-30.18-4.83-60.97-9.32c-76.24-11.12-68.67-8.79-66.06-20.52
				c18.27-81.83,83.34-169.25,146.62-196.94c35.38-15.48,80.19-26.48,129.38-31.75c23.36-2.5,135.75,0.52,155.09,4.16
				c45.15,8.51,82.16,21.33,115.32,39.98c27.81,15.64,37.48,23.04,62.13,47.59c19.79,19.71,23.65,24.98,34.21,46.7
				c17.94,36.9,24.02,58.81,25.57,92.14c2.52,54.24-13.24,99.86-46.94,135.83c-20.41,21.79-33.13,30.31-72.65,48.71
				c-49.58,23.09-89.31,35.71-174.78,55.51c-19.24,4.46-40.74,10.02-47.79,12.36L4729.77-274.81z M4315.54-492.94l-9.18-4.68
				c-5.05-2.58-35.2-15.83-66.98-29.43c-31.78-13.59-58.95-25.66-60.39-26.83c-1.44-1.17-3.26-6.07-4.03-10.86
				c-2.23-13.93-12.65-32.24-25.5-44.82c-43.68-42.77-103.85-60.56-181.13-53.53l-32.09,2.94l-79.54-30.11l-79.57-30.11l9.8-4.98
				c30.81-15.6,83.61-29.9,131.12-35.57c29.04-3.46,140.87-1.59,163.31,2.73c79.52,15.31,129.37,39.41,176.83,85.48
				c27.13,26.34,45.12,58.03,56.53,99.55c5,18.19,6.98,57.52,3.52,70.29L4315.54-492.94z M3777.84-504.01
				c-13.81-1.73-117.28-17.22-121.84-18.23c-4.99-1.12-5.3-2.05-3.79-11.06c3.97-23.74,21.88-66.04,41.44-97.87
				c5.32-8.66,10.35-15.74,11.16-15.74c1.68,0,119.46,42.29,120.75,43.35c2.02,1.67-9.62,14.85-11.88,13.45
				c-1.5-0.93-1.82-0.45-0.82,1.16c0.92,1.49-0.55,5.81-3.24,9.59c-8,11.23-16.58,32.53-22.12,54.89
				C3783.09-506.68,3781.6-503.53,3777.84-504.01L3777.84-504.01z M3697.24-655.61l-50.56-18.13
				c-157.69-56.58-362.9-123.38-508.89-165.6c-25.02-7.24-57.55-16.68-72.3-20.99c-327.74-95.83-773.56-194.16-1156.96-255.21
				c-243.89-38.84-574.61-79.69-737.07-91.05c-306.94-21.44-627.64,3.8-831.56,65.44c-152.81,46.2-247.39,102.11-325.13,192.2
				L4.7-937.31l6.45-11.64c28.99-52.34,90.7-111.83,162.39-156.56c30.52-19.04,100.65-54.06,136.28-68.07
				c159.29-62.63,348.65-96.58,592.22-106.2c43.23-1.71,181.35-1.27,234.42,0.75c394.13,15.04,888.79,81.26,1361.03,182.16
				c186.82,39.92,421.23,98.31,574.98,143.28c16.04,4.69,41.75,12.13,57.15,16.52c119.55,34.09,347.27,109.27,499.16,164.82
				c61.8,22.6,136.45,51.58,136.45,52.98c0,0.74-6.37,6-14.17,11.68c-7.79,5.68-23.09,19.7-34,31.17L3697.24-655.61z"/>
		</g>
	</g>
</g>
</svg>
