<?xml version="1.0" encoding="utf-8"?>
<!-- Generator: Adobe Illustrator 25.4.1, SVG Export Plug-In . SVG Version: 6.00 Build 0)  -->
<svg version="1.1" id="Layer_1" xmlns="http://www.w3.org/2000/svg" xmlns:xlink="http://www.w3.org/1999/xlink" x="0px" y="0px"
	 viewBox="0 0 153.2 80" style="enable-background:new 0 0 153.2 80;" xml:space="preserve">
<style type="text/css">
	.st0{fill:#174191;}
	.st1{fill:#E21B37;}
</style>
<g>
	<path class="st0" d="M76.6,0C34.3,0,0,17.9,0,40s34.3,40,76.6,40s76.6-17.9,76.6-40S118.9,0,76.6,0 M76.6,76.8
		C35.9,76.8,3,60.3,3,40s33-36.8,73.6-36.8c40.7,0,73.6,16.5,73.6,36.9S117.2,76.9,76.6,76.8"/>
	<path class="st1" d="M93.5,14.3c0,0-34.2-2.4-34,24.4c0.5,29.5,57.6,30.2,73.9,21.5c-12.1,3.7-54.2,5-60.5-20.6
		C67.6,17.2,93.4,14.3,93.5,14.3"/>
	<path class="st0" d="M57.4,43.7c-8.5,0-15.5-1.8-15.5-4s6.9-3.9,15.5-3.9h0.8c0.2-2.2,0.6-4.4,1.3-6.5c-18.6,0.8-36.8,6-36.8,10.6
		s20.2,11,39.3,11.5c-1.6-2.3-2.7-4.9-3.4-7.6L57.4,43.7"/>
	<path class="st0" d="M125.9,39.3c-1.1,0-17.5,0-25.5,0c-0.2-0.7-0.6-1.4-1.1-2h24.2c0.5,0.1,0.9-0.2,1-0.7c0.1-0.5-0.2-0.9-0.7-1
		c-0.1,0-0.2,0-0.3,0c-1,0-18.5,0-26.2,0c-4.3-2.8-12.9-5-22.6-6c-0.9,3-0.7,6.7,0.1,10.4c0.8,3.9,3,7.3,6.1,9.8
		c6.4-1.2,11.8-2.9,15.3-5h23.6c0.5,0.1,0.9-0.2,1-0.7c0.1-0.5-0.2-0.9-0.7-1c-0.1,0-0.2,0-0.3,0H98.5c0.8-0.6,1.3-1.4,1.7-2.3h25.7
		C127.1,41.1,127.4,39.4,125.9,39.3"/>
</g>
</svg>
