<?xml version="1.0" encoding="utf-8"?>
<!-- Generator: Adobe Illustrator 25.4.1, SVG Export Plug-In . SVG Version: 6.00 Build 0)  -->
<svg version="1.1" id="Layer_1" xmlns="http://www.w3.org/2000/svg" xmlns:xlink="http://www.w3.org/1999/xlink" x="0px" y="0px"
	 viewBox="0 0 508.3 80" style="enable-background:new 0 0 508.3 80;" xml:space="preserve">
<style type="text/css">
	.st0{fill:#174191;}
	.st1{fill:none;}
	.st2{fill:#E21B37;}
</style>
<g>
	<path class="st0" d="M491.9,62.9c0,0.5-0.4,0.9-0.9,0.9c-0.5,0-0.9-0.4-0.9-0.9c0-0.5,0.4-0.9,0.9-0.9
		C491.5,62.1,491.9,62.5,491.9,62.9"/>
	<path class="st0" d="M404.4,59.8c0.1,0.5-0.2,0.9-0.6,1c-0.5,0.1-0.9-0.2-1-0.6c0-0.1,0-0.3,0-0.4c-0.1-0.5,0.2-0.9,0.6-1
		c0.5-0.1,0.9,0.2,1,0.6C404.4,59.5,404.4,59.6,404.4,59.8"/>
	<path class="st0" d="M401.8,59.8c0,0.5-0.4,0.9-0.9,0.9c-0.5,0-0.9-0.4-0.9-0.9s0.4-0.9,0.9-0.9C401.4,58.9,401.8,59.3,401.8,59.8"
		/>
	<path class="st0" d="M350.1,59.8c0.1,0.5-0.2,0.9-0.6,1c-0.5,0.1-0.9-0.2-1-0.6c0-0.1,0-0.3,0-0.4c-0.1-0.5,0.2-0.9,0.6-1
		c0.5-0.1,0.9,0.2,1,0.6C350.2,59.5,350.2,59.6,350.1,59.8"/>
	<path class="st0" d="M347.5,59.8c0,0.5-0.4,0.9-0.9,0.9c-0.5,0-0.9-0.4-0.9-0.9s0.4-0.9,0.9-0.9C347.1,58.9,347.5,59.3,347.5,59.8"
		/>
	<polyline class="st0" points="508.1,74.2 507,74.2 507,59 508.1,59 	"/>
	<polyline class="st0" points="508.1,74.2 507,74.2 507,59 508.1,59 	"/>
	<polyline class="st0" points="463.5,73.1 463.5,74.1 449.4,74.1 449.4,73.1 	"/>
	<path class="st0" d="M431.5,76.9c0,0.5-0.4,0.9-0.9,0.9c-0.5,0-0.9-0.4-0.9-0.9c-0.1-0.5,0.2-0.9,0.6-1c0.5-0.1,0.9,0.2,1,0.6
		C431.5,76.6,431.5,76.8,431.5,76.9"/>
	<path class="st0" d="M409.4,76.9c0,0.5-0.4,0.9-0.9,0.9c-0.5,0-0.9-0.4-0.9-0.9c0-0.5,0.4-0.9,0.9-0.9
		C409.1,76,409.4,76.4,409.4,76.9"/>
	<path class="st0" d="M406.8,76.8c0,0.5-0.4,0.9-0.9,0.9c-0.5,0-0.9-0.4-0.9-0.9c0-0.5,0.4-0.9,0.9-0.9
		C406.5,76,406.8,76.4,406.8,76.8"/>
	<path class="st0" d="M384.7,76.8c0,0.5-0.4,0.9-0.9,0.9s-0.9-0.4-0.9-0.9c0-0.5,0.4-0.9,0.9-0.9S384.7,76.4,384.7,76.8"/>
	<path class="st0" d="M382.1,76.8c0,0.5-0.4,0.9-0.9,0.9s-0.9-0.4-0.9-0.9c0-0.5,0.4-0.9,0.9-0.9S382.1,76.4,382.1,76.8"/>
	<path class="st0" d="M354.4,76.8c0.1,0.5-0.2,0.9-0.6,1c-0.5,0.1-0.9-0.2-1-0.6c0-0.1,0-0.3,0-0.4c0.1-0.5,0.6-0.7,1-0.6
		C354.1,76.3,354.3,76.5,354.4,76.8"/>
	<path class="st0" d="M351.8,76.8c0,0.5-0.4,0.9-0.9,0.9c-0.5,0-0.9-0.4-0.9-0.9c0-0.5,0.4-0.9,0.9-0.9
		C351.4,76,351.8,76.4,351.8,76.8"/>
	<path class="st0" d="M453.7,73.1H453c0.4-0.5,0.8-1.1,1-1.7c0.4-1.3,0.6-2.7,0.6-4V59h-1.1v8.3l0,0c0.1,1.5-0.2,2.9-0.9,4.3
		c-0.5,0.7-1.2,1.3-2.1,1.5H449v1.1h4.5L453.7,73.1"/>
	<path class="st0" d="M463.5,73.1c-0.7-5.9-6.2-7.6-9.8-8.1v1c9.8,1.6,8.5,8.1,8.5,8.1h1.3C463.5,73.8,463.5,73.5,463.5,73.1"/>
	<path class="st0" d="M472.1,74.1c0,0-1.6,3.6-7.2,3.5V77c0,0,4.8-0.2,6-2.8H472.1"/>
	<polyline class="st0" points="445,74.1 444,74.1 444,59 445,59 	"/>
	<polyline class="st0" points="445,74.1 444,74.1 444,59 445,59 	"/>
	<polyline class="st0" points="392.3,74.1 391.2,74.1 391.2,59 392.3,59 	"/>
	<line class="st1" x1="423.7" y1="73.1" x2="414.4" y2="73.1"/>
	<path class="st0" d="M440.7,59v14.1h-3l0,0c-1-8.9-12.9-8.2-12.9-8.2c-0.9,0.2-0.2,0.9,0.4,0.9c9.9,0.6,11.2,5.3,11.3,7.4h-15.2
		v-6.4h-1.1c0,0-0.7,5.6-6.2,6.4v1.1h6.1c-1.2,2.6-6,2.8-6,2.8v0.7c5.3,0,7-3.3,7.2-3.5h20.5V59L440.7,59 M420.1,69.5V73h-2.9
		C418.6,72.3,419.6,71,420.1,69.5"/>
	<path class="st0" d="M503.7,59v14.1h-3l0,0c-1-8.9-12.9-8.2-12.9-8.2c-0.9,0.2-0.2,0.9,0.4,0.9c9.9,0.6,11.2,5.3,11.3,7.4H488l0,0
		c-0.6-5.5-5.4-7.3-9-7.9v1c6.7,1.4,7.7,5.1,7.7,6.9h-9.3c0.4-0.5,0.8-1.1,1-1.7c0.4-1.3,0.6-2.7,0.6-4V59H478v8.3l0,0
		c0.1,1.5-0.2,2.9-0.9,4.3c-0.5,0.8-1.2,1.3-2.1,1.5h-2.9v-6.4h-1.1c0,0-0.7,5.6-6.2,6.4l0,0v1.1h6.1c-1.3,2.7-6,2.8-6,2.8v0.7
		c5.4,0,7.1-3.2,7.2-3.5h0h31.6h1.1V59H503.7 M471,69.5v3.6h-2.9C469.5,72.3,470.5,71,471,69.5"/>
	<path class="st0" d="M408.8,67.7v5.4h-4.3V61.9c0,0-6.5-0.4-7,7.4h5.9v4.8h6.4v-6.4H408.8 M398.9,68.3c0,0,0.2-5.3,4.6-5.3v5.3
		H398.9"/>
	<path class="st0" d="M359.1,64.5c0,0.5-0.4,0.9-0.9,0.9c-0.5,0-0.9-0.4-0.9-0.9c0-0.5,0.4-0.9,0.9-0.9
		C358.7,63.6,359.1,64,359.1,64.5"/>
	<path class="st0" d="M388,59v14.1h-3v-5.4h-1.1V73h-5c-0.3-2.9-2.9-5.1-5.8-4.8c-2.5,0.2-4.5,2.3-4.8,4.8h-6.6v-5.4h-1.1V73h-4.9
		v-5.4h-1.1V73h-4.4v-9.9l0,0v-1.3c0,0-6.5-0.4-7,7.4h5.9V73l0,0v1.1l0,0c4.2,0,8.3,0,12.5,0h6.6c0.3,2.9,2.9,5.1,5.8,4.8
		c2.6-0.2,4.6-2.3,4.8-4.8H389V59H388 M344.7,68.3c0,0,0.2-5.3,4.6-5.3v5.3H344.7 M373.6,78c-2.4,0-4.4-1.9-4.4-4.3
		c0-2.4,1.9-4.4,4.3-4.4c2.4,0,4.4,1.9,4.4,4.3c0,0,0,0,0,0C378,76,376,78,373.6,78"/>
	<path class="st0" d="M28.9,30.7c0.4-2.6,2.1-4.3,4.7-4.3c2.3,0,4.2,1.9,4.3,4.3H28.9 M45,34.5c0.3-7.1-3.6-12.8-11.5-12.9
		c-6.5,0-11.8,4.6-11.8,11.1c0,7.1,4.9,11.2,12,11.2c4.9,0,9.6-2.1,10.9-7h-6.7c-0.8,1.5-2.4,2.4-4.1,2.3c-3.1,0-4.8-1.9-4.9-4.8H45
		"/>
	<path class="st0" d="M89.6,30.7c0.4-2.6,2.1-4.3,4.7-4.3c2.4,0,4.2,2,4.3,4.3H89.6 M105.7,34.6c0.3-7.1-3.6-12.8-11.4-12.8
		c-6.5,0-11.8,4.6-11.8,11.1c0,7.1,4.9,11.2,12,11.2c4.9,0,9.6-2.1,10.9-7h-6.7c-0.8,1.5-2.4,2.4-4.1,2.3c-3,0-4.8-1.9-4.9-4.8
		L105.7,34.6"/>
	<path class="st0" d="M46.9,22.3h6.9v2.9h0.1c1.3-2.2,3.7-3.6,6.2-3.6c2.7,0,5.1,0.9,6.3,3.5c1.5-2.2,4.1-3.6,6.8-3.5
		c6.9,0,7.6,5.2,7.6,9.3v12.9h-7.1V31.2c0-2.3-1.1-3.7-3-3.7c-3,0-3.3,2.3-3.3,5.8v10.6h-7.1V31.6c0-2.6-0.7-4.1-2.7-4.1
		c-2.6,0-3.6,1.5-3.6,5.8v10.5h-7.1L46.9,22.3"/>
	<path class="st0" d="M107.2,22.6h6.8v2.9h0.1c1.3-2.1,4.2-3.5,6.7-3.5c7.2,0,7.7,5.1,7.7,8.1v13.4h-7V33.4c0-2.9,0.3-5.8-3.5-5.8
		c-2.6,0-3.8,2.2-3.8,4.5v11.4h-7L107.2,22.6"/>
	<polyline class="st0" points="131.1,22.4 138.3,22.4 138.3,43.8 131.1,43.8 	"/>
	<polyline class="st0" points="8.2,10.4 15.9,21.2 23.9,10.4 32.7,10.4 19.9,29 19.9,43.8 13.1,43.8 13.1,29 0,10.4 	"/>
	<path class="st0" d="M147.8,32.7c0-1.3,0.5-2.5,1.4-3.4c1.6-1.5,3.9-1.8,5.8-0.7c0.7,0.4,1.3,1,1.7,1.7c0.4,0.7,0.7,1.6,0.6,2.4
		c0,1.2-0.5,2.4-1.4,3.3c-1.9,1.8-4.9,1.8-6.8,0C148.2,35.2,147.7,34,147.8,32.7 M157.1,22.5v2c-0.8-0.9-1.8-1.6-2.9-2
		c-1.2-0.4-2.4-0.7-3.6-0.6c-1.4,0-2.8,0.3-4.1,0.8c-1.3,0.6-2.4,1.4-3.4,2.4c-2,2.1-3.1,4.8-3,7.7c0,2,0.5,3.9,1.4,5.6
		c0.9,1.7,2.3,3,3.9,3.9c1.7,0.9,3.6,1.4,5.6,1.4c1.2,0,2.4-0.2,3.5-0.8c1.1-0.5,2-1.3,2.7-2.2V43h7.4V22.5L157.1,22.5"/>
	<path class="st0" d="M138.1,13.9c0,1.9-1.6,3.5-3.5,3.5c-1.9,0-3.5-1.6-3.5-3.5c0-1.9,1.6-3.5,3.5-3.5
		C136.6,10.5,138.1,12,138.1,13.9C138.1,13.9,138.1,13.9,138.1,13.9"/>
	<path class="st0" d="M252.9,0c-33.2,0-60.2,14.1-60.2,31.4s26.9,31.4,60.2,31.4s60.2-14,60.2-31.4S286.1,0,252.9,0 M252.9,60.4
		c-31.9,0-57.9-13-57.8-28.9s25.9-28.9,57.8-28.9c32,0,57.8,13,57.8,29S284.8,60.4,252.9,60.4"/>
	<path class="st2" d="M266.1,11.2c0,0-26.9-1.9-26.7,19.2c0.4,23.2,45.3,23.7,58.1,16.9c-9.5,2.9-42.6,3.9-47.5-16.2
		C245.8,13.5,266.1,11.2,266.1,11.2"/>
	<path class="st0" d="M237.8,34.3c-6.7,0-12.2-1.4-12.2-3.1c0-1.7,5.4-3.1,12.2-3.1h0.6c0.1-1.7,0.5-3.5,1-5.1
		c-14.6,0.6-28.9,4.7-28.9,8.3s15.9,8.7,30.9,9c-1.2-1.8-2.1-3.8-2.6-6L237.8,34.3"/>
	<path class="st0" d="M291.6,30.9c-0.9,0-13.8,0-20.1,0c-0.1-0.6-0.4-1.1-0.9-1.5h19c0.4,0.1,0.7-0.2,0.8-0.5
		c0.1-0.4-0.2-0.7-0.5-0.8c-0.1,0-0.1,0-0.2,0c-0.8,0-14.5,0-20.6,0c-3.4-2.2-10.1-4-17.8-4.7c-0.7,2.3-0.5,5.2,0.1,8.2
		c0.6,3,2.3,5.8,4.8,7.7c5-0.9,9.3-2.3,12.1-3.9h18.6c0.4,0.1,0.7-0.2,0.8-0.5c0.1-0.4-0.2-0.7-0.5-0.8c-0.1,0-0.1,0-0.2,0H270
		c0.6-0.5,1.1-1.1,1.4-1.8h20.2C292.5,32.3,292.8,31,291.6,30.9"/>
	<path class="st0" d="M6.4,76.7H5v-5.2l-5-8.4h1.6l3.6,6.3c0.2,0.4,0.3,0.7,0.5,0.7c0.2,0,0.4-0.7,0.9-1.5l3.1-5.5h1.6l-4.9,8.4"/>
	<path class="st0" d="M16.1,71.6c0,1.8,0.4,4.1,2.6,4.1c0.9,0,1.7-0.4,2.2-1.1l0.9,0.7c-0.7,1-1.9,1.6-3.2,1.5c-2.6,0-4-2.5-4-4.8
		c-0.1-1.3,0.2-2.6,0.9-3.7c0.6-1.1,1.8-1.7,3-1.7c3,0,3.4,2.6,3.5,5 M20.8,70.6c0-0.7-0.1-1.4-0.4-2c-0.4-0.6-1.1-1-1.8-0.9
		c-1.2,0-2.2,0.8-2.4,2.9H20.8z"/>
	<path class="st0" d="M26.8,67.4l1.2-0.7v2.1c0,0.1,0,0.2,0.2,0.2c0.7-0.6,1.3-2.3,3.2-2.3c2.1,0,2.1,1.5,2.4,2.3c0,0,0.1,0,0.1,0
		c0,0,0,0,0,0c0.5-0.5,1.1-2.3,3.4-2.3c1.9,0,2.3,1.2,2.3,2.9v7.1h-1.3v-6.9c0-0.9-0.1-2-1.4-2c-1.5,0-3.1,2.2-3.1,2.4v6.5h-1.3
		v-6.8c0-1-0.1-2.1-1.4-2.1c-1.2,0-2,1-3.1,2.4v6.4h-1.3"/>
	<path class="st0" d="M46,71.6c0,1.8,0.4,4.1,2.6,4.1c0.9,0,1.7-0.4,2.2-1.1l0.9,0.7c-0.7,1-1.9,1.6-3.2,1.5c-2.6,0-4-2.5-4-4.8
		c-0.1-1.3,0.2-2.6,0.9-3.7c0.6-1.1,1.8-1.7,3-1.7c3,0,3.4,2.6,3.5,5 M50.6,70.6c0-0.7-0.1-1.4-0.4-2c-0.4-0.6-1.1-1-1.8-0.9
		c-1.2,0-2.2,0.8-2.4,2.9H50.6z"/>
	<path class="st0" d="M57.7,67.4l1.3-0.7v2.2c0,0.1,0.1,0.2,0.2,0.2c0.4-0.3,1.3-2.3,3.4-2.3c1.9,0,2.4,1.4,2.4,3v7h-1.3v-7
		c0-0.9,0-1.9-1.3-1.9c-0.8,0-1.5,0.4-2.1,1c-0.5,0.5-0.9,1-1.2,1.6v6.3h-1.3"/>
	<path class="st0" d="M77,76.7l5.3-13.8h1.4L89,76.7h-1.5l-1.2-3.3h-6.5l-1.2,3.3 M85.8,72.2l-2.7-7.4c0,0-0.1-0.1-0.1-0.1
		c-0.1,0-0.1,0.1-0.1,0.1l-2.7,7.4L85.8,72.2z"/>
	<path class="st0" d="M95.3,63.7h1.8v2h-1.8V63.7z M96.9,77.5h-1.2v-9.8h1.3L96.9,77.5z"/>
	<path class="st0" d="M106,67.4l1.3-0.7v3.6c0,0.1,0,0.1,0.1,0.1c0.5,0,1.3-2.7,4.1-3.7V69c-2,0-3,1-4.1,2.6v5.1H106"/>
	<path class="st0" d="M119.5,76.7l-3-9.8h1.3l1.8,6.2c0.2,0.6,0.2,0.7,0.3,1c0.1,0.3,0.1,0.5,0.2,0.8c0,0,0.1,0,0.1,0
		c0,0,0.1,0,0.1,0c0.1-0.3,0.4-1.6,0.4-1.8l1.6-6.1h1.4l1.6,6.1c0.1,0.4,0.2,1.1,0.4,1.6c0.1,0.3,0.2,0.4,0.3,0.4s0.2-0.1,0.3-0.6
		c0.1-0.4,0.2-0.9,0.3-1.3l1.8-6.1h1.2l-3,9.8h-1.4l-1.8-6.5c0-0.2-0.2-0.9-0.3-1.3s0-0.3-0.1-0.4H123c-0.1,0.1-0.1,0.1-0.2,0.4
		l-0.3,1.3l-1.6,6.5"/>
	<path class="st0" d="M139.9,68.8c0-0.6,0-1.7-1.9-1.7c-1.1,0.1-2.1,0.4-3,1.1l-0.6-1.3c1.1-0.6,2.3-1,3.6-1c0.8,0,1.6,0.2,2.2,0.6
		c0.7,0.5,1,1.3,1,2.1V74c0,0.3,0.1,0.6,0.3,0.9c0.2,0.1,0.2,0.1,0.9,0.1v1.1c-0.5,0.1-1.1,0.1-1.6-0.1c-0.5-0.4-0.8-0.9-0.8-1.5
		c0-0.1,0-0.1,0-0.2H140c0,0,0,0-0.1,0c-1,1.1-1.9,1.9-3.5,1.9c-0.8,0.1-1.6-0.2-2.1-0.8c-0.4-0.5-0.7-1.1-0.7-1.8
		c0-1.4,0.9-2.6,2.1-3c1.3-0.5,2.8-0.7,4.2-0.6 M140,70.8c-1.1-0.1-2.1,0.1-3.1,0.4c-1,0.3-1.7,1.2-1.8,2.2c0,0.9,0.7,1.6,1.6,1.6
		c0.1,0,0.1,0,0.1,0c1.3,0,2.7-1.4,3.1-1.9L140,70.8z"/>
	<path class="st0" d="M147.2,78.1h0.4c0.2,0.4,0.6,0.6,1,0.6c1.3,0,1.6-1.7,1.9-2.6l-3.5-9.2h1.5l2,5.4c0.1,0.2,0.2,0.7,0.4,1.1
		c0.2,0.4,0.2,0.7,0.3,0.7s0.2-0.6,0.6-1.9l1.8-5.4h1.3L151.5,77c-0.5,1.5-1.2,3-3,3c-0.5,0-0.9-0.1-1.3-0.3"/>
	<path class="st0" d="M158.7,74.6c0.7,0.7,1.7,1.1,2.6,1.2c1.3,0,2.1-0.7,2.1-1.7c0-0.7-0.4-1.2-1.1-1.5c-0.2-0.1-2.3-0.9-2.7-1.1
		c-0.9-0.4-1.4-1.2-1.4-2.2c0-1.5,1.2-2.7,2.7-2.7c0.1,0,0.2,0,0.3,0c1,0,2,0.3,2.9,0.8l-0.4,1.2c-0.7-0.6-1.6-0.9-2.6-0.9
		c-0.8-0.1-1.6,0.5-1.6,1.3c0,0,0,0,0,0.1c0,1,0.6,1.2,2.4,2c1.6,0.6,2.7,1.1,2.7,2.9s-1.5,2.9-3.2,2.9c-1.1,0-2.2-0.3-3.1-1"/>
	<polyline class="st0" points="508.3,43.7 500.6,43.7 500.6,9.5 508.3,9.5 	"/>
	<path class="st0" d="M397.4,12.3c0,2-1.7,3.7-3.7,3.7c-2,0-3.7-1.7-3.7-3.7c0-2,1.7-3.7,3.7-3.7C395.7,8.5,397.4,10.2,397.4,12.3
		C397.4,12.2,397.4,12.2,397.4,12.3"/>
	<path class="st0" d="M461.2,48.3c0,2-1.7,3.7-3.7,3.7c-2,0-3.7-1.7-3.7-3.7c0-2,1.7-3.7,3.7-3.7c0,0,0,0,0,0
		C459.5,44.6,461.2,46.3,461.2,48.3"/>
	<path class="st0" d="M470.6,48.3c0,2-1.7,3.7-3.7,3.7c-2,0-3.7-1.7-3.7-3.7c0-2,1.7-3.7,3.7-3.7c0,0,0,0,0,0
		C468.9,44.6,470.6,46.3,470.6,48.3"/>
	<path class="st0" d="M370.6,48.3c0,2-1.7,3.7-3.7,3.7c-2,0-3.7-1.7-3.7-3.7s1.7-3.7,3.7-3.7c0,0,0,0,0,0
		C369,44.6,370.6,46.2,370.6,48.3C370.6,48.3,370.6,48.3,370.6,48.3"/>
	<path class="st0" d="M380,48.3c0,2-1.7,3.7-3.7,3.7c-2,0-3.7-1.7-3.7-3.7c0-2,1.7-3.7,3.7-3.7C378.4,44.6,380,46.2,380,48.3
		C380,48.3,380,48.3,380,48.3"/>
	<path class="st0" d="M354.3,12.2c0,2-1.6,3.7-3.7,3.7c-2,0-3.7-1.6-3.7-3.7c0-2,1.6-3.7,3.7-3.7c0,0,0,0,0,0
		C352.7,8.5,354.3,10.2,354.3,12.2"/>
	<path class="st0" d="M363.7,12.2c0,2-1.7,3.7-3.7,3.7c-2,0-3.7-1.7-3.7-3.7c0-2,1.7-3.7,3.7-3.7C362,8.5,363.7,10.2,363.7,12.2
		C363.7,12.2,363.7,12.2,363.7,12.2"/>
	<path class="st0" d="M480.7,9.5V36H466V22h-7.7V36h-4.4h-10.1c-3-5.6-10-7.7-15.5-4.7c-2,1.1-3.6,2.7-4.7,4.7h-14.4V22h-7.6v13.9
		h-14.7V22h-7.6v13.9h-14.7V17.3h-8.7c0,0-13.8,0.2-12.1,19.4l13.1-0.1v7h65.6c1.3,6.2,7.3,10.2,13.5,9c4.5-0.9,8-4.4,9-9h13.3l0,0
		h7.7l0,0h14.8l0,0h7.7V9.5L480.7,9.5 M356.2,29.8h-5.1c0.1-2.8,2.2-5.1,5.1-5.4V29.8 M433.5,45.6c-2.4,0-4.3-1.9-4.4-4.3
		s1.9-4.3,4.3-4.4c2.4,0,4.3,1.9,4.4,4.3c0,0,0,0,0,0C437.8,43.6,435.9,45.6,433.5,45.6"/>
</g>
</svg>
