<?xml version="1.0" encoding="utf-8"?>
<!-- Generator: Adobe Illustrator 25.4.1, SVG Export Plug-In . SVG Version: 6.00 Build 0)  -->
<svg version="1.1" id="Layer_4" xmlns="http://www.w3.org/2000/svg" xmlns:xlink="http://www.w3.org/1999/xlink" x="0px" y="0px"
	 viewBox="0 0 72.22 80.27" style="enable-background:new 0 0 72.22 80.27;" xml:space="preserve">
<style type="text/css">
	.st0{fill:#D40E8C;}
	.st1{fill:#009989;}
	.st2{fill:#F8A800;}
	.st3{fill:#70B62B;}
	.st4{fill:#00873B;}
	.st5{fill:#A71580;}
	.st6{fill:#E6420F;}
	.st7{fill:#009EE2;}
	.st8{fill:#8E7A3B;}
</style>
<g>
	<path id="path358" class="st0" d="M23.56,54.42c0-0.49,0.08-1.06,0.26-1.65L0.07,57.09c0.07,0.88,0.17,1.73,0.32,2.55l23.27-4.23
		C23.6,55.05,23.56,54.72,23.56,54.42"/>
	<path id="path362" class="st1" d="M34.6,80c4.45,0,9.45-0.57,14.3-1.45l23.32-4.24V60.36L7.48,72.13C14.46,78.06,25.18,80,34.6,80"
		/>
	<path id="path366" class="st2" d="M36.35,63.45c-6.7,0-10.22-2.82-11.77-5.57l-23.6,4.29c0.89,3.03,2.36,5.58,4.24,7.73l38.13-6.93
		C41.56,63.25,39.27,63.45,36.35,63.45"/>
	<path id="path370" class="st3" d="M0,54.46l25.55-4.65c1.92-2.11,5.42-3.92,11.31-3.92c3.45,0,5.93,0.2,7.72,0.46l27.64-5.03v-8.82
		L2.25,45.23C0.89,47.82,0.07,50.87,0,54.46"/>
	<path id="path374" class="st4" d="M33.35,31.35c-7.72,0-22.02,2.02-29.12,10.88l44.67-8.13C48.89,34.11,43.88,31.35,33.35,31.35"/>
	<path id="path378" class="st5" d="M55.31,3.82L4.11,13.13l8.67,12.7c4.52-2.76,13.54-6.77,21.32-6.77
		c7.78,0,14.79,4.26,14.79,10.28v4.77l22.56-4.1l0.74-0.14C71.88,17.7,65.74,8.62,55.31,3.82"/>
	<path id="path382" class="st6" d="M35.85,0C13.53,0,2.5,10.79,2.5,10.79l48.1-8.75C46.23,0.71,41.29,0,35.85,0"/>
	<path id="path386" class="st7" d="M48.89,61.96l23.32-4.24v-8.5l-23.32,4.24V61.96z"/>
	<path id="path390" class="st8" d="M48.89,50.82l23.32-4.24v-2.61l-23.32,4.24V50.82z"/>
</g>
</svg>
