<?xml version="1.0" encoding="utf-8"?>
<!-- Generator: Adobe Illustrator 25.4.1, SVG Export Plug-In . SVG Version: 6.00 Build 0)  -->
<svg version="1.1" id="Layer_4" xmlns="http://www.w3.org/2000/svg" xmlns:xlink="http://www.w3.org/1999/xlink" x="0px" y="0px"
	 viewBox="0 0 167 80.27" style="enable-background:new 0 0 167 80.27;" xml:space="preserve">
<style type="text/css">
	.st0{fill:#D40E8C;}
	.st1{fill:#009989;}
	.st2{fill:#F8A800;}
	.st3{fill:#70B62B;}
	.st4{fill:#00873B;}
	.st5{fill:#A71580;}
	.st6{fill:#E6420F;}
	.st7{fill:#009EE2;}
	.st8{fill:#8E7A3B;}
	.st9{fill:#0046BA;}
</style>
<g id="layer1" transform="translate(-131.31437,-267.96648)">
	<g id="g29071" transform="matrix(0.61842999,0,0,0.61842999,50.370209,114.71133)">
		<path id="path358" class="st0" d="M150,323.67c0-0.4,0.07-0.86,0.21-1.34l-19.27,3.5c0.05,0.71,0.14,1.41,0.26,2.07l18.88-3.43
			C150.03,324.18,150,323.91,150,323.67"/>
		<path id="path362" class="st1" d="M158.96,344.42c3.61,0,7.67-0.46,11.6-1.18l18.92-3.44v-11.32l-52.51,9.55
			C142.62,342.85,151.31,344.42,158.96,344.42"/>
		<path id="path366" class="st2" d="M160.38,330.99c-5.43,0-8.29-2.29-9.55-4.52l-19.15,3.48c0.73,2.46,1.91,4.53,3.44,6.27
			l30.93-5.62C164.61,330.84,162.75,330.99,160.38,330.99"/>
		<path id="path370" class="st3" d="M130.89,323.7l20.73-3.77c1.56-1.71,4.4-3.18,9.17-3.18c2.8,0,4.81,0.16,6.26,0.37l22.42-4.08
			v-7.16l-56.76,10.32C131.61,318.31,130.94,320.79,130.89,323.7"/>
		<path id="path374" class="st4" d="M157.94,304.95c-6.26,0-17.86,1.64-23.63,8.83l36.24-6.59
			C170.55,307.19,166.48,304.95,157.94,304.95"/>
		<path id="path378" class="st5" d="M175.76,282.62l-41.54,7.55l7.04,10.3c3.66-2.24,10.99-5.5,17.29-5.5c6.31,0,12,3.46,12,8.34
			v3.87l18.3-3.33l0.6-0.11C189.2,293.88,184.21,286.51,175.76,282.62"/>
		<path id="path382" class="st6" d="M159.97,279.52c-18.11,0-27.06,8.75-27.06,8.75l39.02-7.1
			C168.39,280.09,164.38,279.52,159.97,279.52"/>
		<path id="path386" class="st7" d="M170.55,329.78l18.92-3.44v-6.89l-18.92,3.44V329.78z"/>
		<path id="path390" class="st8" d="M170.55,320.75l18.92-3.44v-2.12l-18.92,3.44V320.75z"/>
		<g id="g29053">
			<path id="path394" class="st9" d="M335.48,247.81l-19.17,3.48v19.29l19.17-3.48V247.81z"/>
			<path id="path398" class="st9" d="M381.96,329.75l-4.04,0.74c-1.51,0.28-3.52,0.47-6.15,0.47c-7.95,0-10.4-4.89-10.4-7.34
				s2.44-6.93,10.8-6.93c8.36,0,9.79,1.43,9.79,1.43L381.96,329.75z M371.36,279.38c-18.15,0-27.12,8.77-27.12,8.77l8.36,12.23
				c3.67-2.24,11.01-5.5,17.33-5.5c6.32,0,12.03,3.47,12.03,8.36v3.87c0,0-4.08-2.24-12.64-2.24c-8.56,0-27.11,3.06-27.11,19.16
				c0,16.11,15.49,20.39,28.14,20.39c3.62,0,7.68-0.46,11.62-1.18l18.96-3.45v-35.34C400.92,288.97,389.51,279.38,371.36,279.38"/>
			<path id="path402" class="st9" d="M316.32,281.12v27.56v34.6l19.17-3.48v-31.12v-31.05L316.32,281.12z"/>
			<path id="path406" class="st9" d="M214.73,279.38l-16.36,2.97v26.32v10.86v11.91v11.83l16.36-2.98l2.81-0.51v-8.34V318.7v-0.14
				v-8.16v-0.43v-2.95c0-6.87,6.85-11.15,14.23-11.44c2.41-0.09,5.05,0.21,7.22,0.7v-16.72c-2.4-0.43-3.97-0.65-7.22-0.55
				c-9.17,0.29-14.39,6.24-17.04,10.91V279.38z"/>
			<path id="path410" class="st9" d="M296.77,299.94c6.45-7.78,10.03-14.84,11.47-17.35l-24.6,4.47
				c-3.87,5.97-11.03,14.28-17.28,19.09v-12.8v-32.96l-19.17,3.49c0,10.38,0,37.56,0,48.13h0v31.28l19.17-3.48v-15.32
				c2.38-1.12,3.88-2.28,3.88-2.28l18.77,21.29l21.09-3.84L285.73,312C288.04,309.71,292.47,305.12,296.77,299.94"/>
			<path id="path414" class="st9" d="M350.69,351.84c-2.89,0-5.55,0.47-6.7,0.7v3.8c1.4-0.31,4.04-0.81,6.26-0.81
				c1.47,0,4.09,0.2,5.13,1.52c0.71,0.9,0.94,2.2,0.69,3.87c-0.19,1.3-0.6,2.66-1.34,3.74c-0.51,0.75-1.26,1.4-1.92,1.92l2.35,3.27
				c0.85-0.63,2.19-1.74,3.09-3.04c0.75-1.09,1.35-2.65,1.69-4.39c0.75-3.88,0.24-6.85-1.44-8.36
				C356.36,352.13,352.69,351.84,350.69,351.84 M344.67,377.17l4.44-0.8v-17.15l-4.44,0.81V377.17z M326.08,363.97
				c0,1.32-1.14,2.35-2.8,2.93c-0.57,0.19-0.9,0.24-0.9,0.24l-0.13-0.75c-0.78-5-1.91-9.98-3.35-14.81l-4.09,0.84
				c1.29,4.37,2.58,9.76,3.32,14.58c-1.15-0.32-2.49-0.96-3.05-1.22l-2.07,2.77c1.12,0.73,3.84,2.13,8.14,2.13
				c5.73,0,9.29-2.71,9.29-7.09v-11.99l-4.37,0.91V363.97z M369.63,351.81c-3.95,0-6.44,1.41-7.45,2.12l1.9,2.78
				c1.28-0.66,3.28-1.43,5.1-1.43c2.57,0,4.58,1.51,4.58,3.43v11.15l4.37-0.79V358.9C378.13,354.46,374.95,351.81,369.63,351.81
				 M397.58,364.98l0.41-1.9c0.57-2.62,1.03-5.29,1.39-7.96l0.47-3.53l-4.31,0.78c-0.26,2.16-0.6,4.42-1.03,6.73l-0.33,1.77
				l-7.11-9.39l-4.89,0.89l2.3,2.73l-0.7,3.24c-0.57,2.63-1.04,5.3-1.39,7.96l-0.47,3.54l4.31-0.78c0.32-2.74,0.76-5.49,1.31-8.2
				l0.35-1.74l8.14,10.83l4.91-0.9L397.58,364.98z M335.47,352.37l4.44-0.81v9.76l-4.44,0.81V352.37z"/>
		</g>
	</g>
</g>
</svg>
