<?xml version="1.0" encoding="utf-8"?>
<!-- Generator: Adobe Illustrator 25.4.1, SVG Export Plug-In . SVG Version: 6.00 Build 0)  -->
<svg version="1.1" id="Layer_2_00000159471598350358213750000014612203606435250611_"
	 xmlns="http://www.w3.org/2000/svg" xmlns:xlink="http://www.w3.org/1999/xlink" x="0px" y="0px" viewBox="0 0 128.1 80"
	 style="enable-background:new 0 0 128.1 80;" xml:space="preserve">
<style type="text/css">
	.st0{fill:#EF3340;}
	.st1{fill:#002D72;}
</style>
<g>
	<path class="st0" d="M53.9,1.8C57.4,1.9,60,3.4,60.8,7c1.4,6.3-7.7,15.6-10.9,22.3c-2.7,5.6-2.6,10.5,0.6,15.9
		c3.1,5.3,9.7,9.2,15.9,8.6c4.9-0.4,7.8-2.8,11.1-6.2c-6.2,2.1-9.7,1.4-12-2.1c4.3,1.8,7.3,0.8,7.3,0.8s-3-0.7-5.6-3.1
		c-0.9-0.8-1.6-1.8-2.2-2.7c-4-0.5-7.8,0.5-10,4.4l-0.3,0.6L54.5,45c-2-2.7-2.6-5.3-2.1-7.8c0.5-2.5,1.9-4.8,3.9-6.9
		c0.4-0.5,0.7-0.8,1-1.1c1.5-1.7,3.4-3.7,5.5-6.5c0.1-0.1,0.2-0.2,0.2-0.3c-0.1-5.6,4-13.5,1-19c0.8,0.5,2.9-0.2,3.2-1.2
		c-1.9-0.3-3.2-0.6-3.3-1.1c-0.1-0.7-5.1-1.9-6.3-0.7C57.5,0.5,54.8-0.2,53.9,1.8"/>
	<path class="st0" d="M69.2,3.4C69.3,7,69,10.6,68,13.9c-1,3.4-2.5,6.6-4.6,9.3c-2.2,2.8-4,4.8-5.6,6.5c-0.4,0.4-0.8,0.9-1,1.1
		c-1.8,2-3.2,4.2-3.7,6.5c-0.4,2.1,0,4.3,1.6,6.6c5.6-8.9,19.2-2,24.5,0.8c1-1.4,1.9-3,2.6-4.7c0.7-1.7,1-3.6,0.9-5.8
		c-1.7,0.2-3.9,0.2-6,0.1c-2.5-0.2-5-0.6-6.4-1.1l-1.9-0.7l2-0.1c2.7-0.1,5.8-0.7,8.4-2.2c1.3-0.8,2.4-1.7,3.2-3
		c0.8-1.2,1.2-2.7,1.1-4.6c-0.1-1.9-0.7-4.2-2.1-6.9c-0.6,2.6-2.1,5.1-4,7.1c-2.4,2.5-5.4,4.2-8,4.4l-1.5,0.1l1.3-0.9
		c3.2-2.2,6-5.2,7.4-8.3c0.7-1.6,1.2-3.3,1.1-4.9c0-1.6-0.6-3.3-1.6-4.8C74.4,6.7,72.3,5,69.2,3.4"/>
	<path class="st1" d="M128.1,73.2c0-3.3-5-2.9-5-3.6c0-0.3,0.4-0.5,1-0.5c1.1,0,2.5,0.6,2.5,0.6l1.2-2.2c0,0-1.4-0.7-3.8-0.7
		c-2.3,0-4.1,1.3-4.1,2.8c0,3.2,5,2.8,5,3.6c0,0.4-0.4,0.6-1.2,0.6c-1.4,0-2.8-0.9-2.8-0.9l-1.2,2.3c0,0,1.6,1.1,4,1.1
		C126.7,76.3,128.1,74.8,128.1,73.2 M111.4,76.1c-0.3,0.9-0.6,1.3-1,1.3c-0.7,0-1.4-0.3-1.4-0.3l-0.6,2.5c0,0,1.1,0.4,2.1,0.4
		c2.1,0,3.2-0.9,4.3-3.5l4.1-9.5h-3.6l-2.2,5.7l-1.3-3.8c-0.4-1.3-1.3-2-3.3-2l-1,2.4c1,0.1,1.3,0.7,1.5,1.4l2.1,5.5L111.4,76.1
		L111.4,76.1z M101.8,73.2c0,0-0.7,0.5-1.5,0.5c-0.5,0-0.9-0.3-0.9-0.8c0-0.5,0.5-0.8,1.3-0.8c0.7,0,1.2,0.1,1.2,0.1V73.2z
		 M106.3,73.7c-0.8,0-1.1-0.5-1.1-0.9v-2.7c0-2.2-1.6-3.3-4.3-3.3c-2.2,0-3.9,1-3.9,1l1.2,2.1c0,0,1.2-0.6,2.3-0.6
		c0.7,0,1.3,0.3,1.3,1.1c-0.4-0.1-0.8-0.1-1.3-0.1c-2.1,0-4.2,0.6-4.2,3c0,1.7,1.4,3,3.7,3c1.6,0,2.7-0.9,2.7-0.9s0.8,0.9,3,0.9
		L106.3,73.7z M83.7,76.2c1.2,0,2.3-0.3,3.1-1c0.8,0.6,1.9,1,3,1c2.6,0,4.8-1.7,4.8-4.9c0-2-0.4-3.9-2.7-4.9l-1.8,2.2
		c0.8,0.4,1.1,1.3,1.1,2.8c0,1.7-0.8,2.1-1.5,2.1c-0.7,0-1.2-0.4-1.2-1.5V67h-3.3v5.2c0,1.1-0.7,1.5-1.4,1.5c-0.7,0-1.3-0.5-1.3-1.4
		V67h-3.4V72C79.2,74.9,81.4,76.2,83.7,76.2z M78.2,67.7c0,0-0.8-0.9-2.4-0.9c-1.1,0-2.1,0.7-2.1,0.7L73.7,67h-3.2v9.1h3.4v-4.6
		c0-1.1,0.5-2,1.6-2c0.7,0,1.5,0.4,1.5,0.4L78.2,67.7z M67.4,67h-3.4v6.4c0,2,1.7,2.9,3.8,2.9l0.8-2.6c-0.8-0.1-1.1-0.4-1.1-0.8
		L67.4,67L67.4,67z M67.6,63c-1.4-0.1-2.7-0.7-3.5-1.4l-0.8,2.7c0,0,1.4,1.4,4.3,1.7V63z M57.3,73.9l0.8,2.2h4.4L57.1,63h-3.6
		l-5.4,13.1h4l0.8-2.2H57.3z M56.3,71.3h-2.4l1.2-3.8L56.3,71.3z"/>
	<path class="st0" d="M38.5,73.2c0,0-0.7,0.5-1.5,0.5c-0.5,0-0.9-0.3-0.9-0.8c0-0.5,0.5-0.8,1.3-0.8c0.7,0,1.2,0.1,1.2,0.1
		L38.5,73.2L38.5,73.2z M43,73.7c-0.8,0-1.1-0.5-1.1-0.9v-2.7c0-2.2-1.6-3.3-4.3-3.3c-2.2,0-3.9,1-3.9,1l1.2,2.1
		c0,0,1.2-0.6,2.3-0.6c0.7,0,1.3,0.3,1.3,1.1c-0.4-0.1-0.8-0.1-1.3-0.1c-2.1,0-4.2,0.6-4.2,3c0,1.7,1.4,3,3.7,3
		c1.6,0,2.7-0.9,2.7-0.9s0.8,0.9,3,0.9L43,73.7z M31.5,67h-2.1v-3L26,65.6V67h-1.4v2.5H26V73c0,1.7,1,3.2,3.7,3.2
		c0.7,0,1.5-0.1,1.5-0.1l0.3-2.6c0,0-0.9,0.2-1.3,0.2c-0.8,0-0.9-0.6-0.9-1.4v-2.8h2.1V67z M19.7,75.4c0,0,0.8,0.9,3,0.9l0.7-2.6
		c-0.8,0-1.1-0.5-1.1-0.9V67h-3.4v5.9c0,0-0.4,0.7-1.4,0.7c-0.7,0-1.1-0.5-1.1-1.3V67h-3.4v5.3c0,2.5,1.5,4,3.9,4
		C18.6,76.2,19.7,75.4,19.7,75.4z M6.7,71.7c0,0.7-0.6,1.2-1.7,1.2H3.8v-2.3h1.3C6.1,70.5,6.7,70.9,6.7,71.7z M6.4,67.1
		c0,0.5-0.2,1.1-1.4,1.1H3.8v-2h1.4C5.9,66.1,6.4,66.5,6.4,67.1z M10.7,72.1c0-2.1-1.5-2.9-1.5-2.9s1.1-0.8,1.1-2.4
		c0-2.5-1.7-3.8-5.3-3.8H0v13.1h5C8.8,76.1,10.7,74.7,10.7,72.1z"/>
</g>
</svg>
