<?xml version="1.0" encoding="utf-8"?>
<!-- Generator: Adobe Illustrator 25.4.1, SVG Export Plug-In . SVG Version: 6.00 Build 0)  -->
<svg version="1.1" id="Layer_1" xmlns="http://www.w3.org/2000/svg" xmlns:xlink="http://www.w3.org/1999/xlink" x="0px" y="0px"
	 viewBox="0 0 165.3 80" style="enable-background:new 0 0 165.3 80;" xml:space="preserve">
<style type="text/css">
	.st0{fill:#125A9C;}
</style>
<g>
	<g>
		<g>
			<path id="SVGID_1_" class="st0" d="M105.6,71c-5.9-0.8-12.1-3.5-13-9.5l-1.4-13.8c12.8,3,22.9,12.6,26.7,25.1L105.6,71z
				 M86.2,59.6c0,5.1-0.2,11.8,3.3,15.4c3.7,3.8,11.6,3.9,16.9,3.8l58.9,1.1L120,73.1c-3.8-13.8-14.9-24.3-28.9-27.4L86.2,0V59.6z"
				/>
		</g>
	</g>
	<g>
		<g>
			<path id="SVGID_3_" class="st0" d="M74.1,47.6l-1.5,13.9c-0.8,5.9-7,8.6-13,9.5l-12.4,1.9C51.1,60.1,61.2,50.5,74.1,47.6
				 M74.3,45.7c-14.1,2.9-25.2,13.4-29,27.5L0,80l58.9-1.1c5.3,0.1,13.2-0.1,16.9-3.8c3.5-3.6,3.3-10.4,3.3-15.4l0-59.6L74.3,45.7z"
				/>
		</g>
	</g>
</g>
</svg>
