<?xml version="1.0" encoding="utf-8"?>
<!-- Generator: Adobe Illustrator 25.4.1, SVG Export Plug-In . SVG Version: 6.00 Build 0)  -->
<svg version="1.1" id="Layer_1" xmlns="http://www.w3.org/2000/svg" xmlns:xlink="http://www.w3.org/1999/xlink" x="0px" y="0px"
	 viewBox="0 0 140 80" style="enable-background:new 0 0 140 80;" xml:space="preserve">
<style type="text/css">
	.st0{fill:#125A9C;}
</style>
<g>
	<g>
		<g>
			<path id="SVGID_1_" class="st0" d="M79.7,38.8c-3.2-0.4-6.6-1.9-7.1-5.2l-0.8-7.5c7,1.7,12.5,6.9,14.6,13.7L79.7,38.8z
				 M69.1,32.6c0,2.8-0.1,6.5,1.8,8.4c2,2.1,6.3,2.1,9.2,2.1l32.2,0.6L87.5,40c-2.1-7.5-8.1-13.3-15.8-15L69.1,0V32.6z"/>
		</g>
	</g>
	<g>
		<g>
			<path id="SVGID_3_" class="st0" d="M62.4,26l-0.8,7.6c-0.4,3.2-3.8,4.7-7.1,5.2l-6.8,1C49.8,32.8,55.4,27.6,62.4,26 M62.5,25
				c-7.7,1.6-13.8,7.3-15.8,15l-24.8,3.7l32.2-0.6c2.9,0,7.2,0,9.2-2.1c1.9-2,1.8-5.7,1.8-8.4l0-32.6L62.5,25z"/>
		</g>
	</g>
	<g>
		<g>
			<path class="st0" d="M0,67.1V51.3h4.2l3.3,5.8c0.9,1.7,1.9,3.6,2.6,5.4h0c-0.2-2.1-0.3-4.2-0.3-6.6v-4.6h3.3v15.8H9.3L6,61
				c-0.9-1.7-2-3.7-2.7-5.6H3.1c0.1,2.1,0.2,4.3,0.2,6.9v4.8L0,67.1L0,67.1z"/>
			<path class="st0" d="M30.7,59.1c0,5.2-3.1,8.3-7.8,8.3c-4.7,0-7.4-3.5-7.4-8.1c0-4.7,3.1-8.3,7.7-8.3C28,51,30.7,54.7,30.7,59.1z
				 M19.2,59.3c0,3.1,1.5,5.3,3.8,5.3c2.4,0,3.8-2.3,3.8-5.4c0-2.9-1.3-5.3-3.8-5.3C20.7,53.9,19.2,56.2,19.2,59.3z"/>
			<path class="st0" d="M33,51.5c1.2-0.2,2.8-0.3,4.8-0.3c2.3,0,4,0.4,5.1,1.2c1,0.8,1.5,1.9,1.5,3.3c0,2-1.4,3.4-2.8,3.9v0.1
				c1.1,0.4,1.7,1.5,2.1,2.9c0.5,1.8,1,3.9,1.3,4.5h-3.7c-0.2-0.5-0.6-1.7-1.1-3.7c-0.4-2-1.1-2.5-2.6-2.5h-1.1v6.2H33V51.5z
				 M36.6,58.3H38c1.8,0,2.8-0.9,2.8-2.3c0-1.4-1-2.2-2.6-2.2c-0.9,0-1.4,0-1.6,0.1V58.3z"/>
			<path class="st0" d="M50,54.3h-4.3v-3h12.2v3h-4.3v12.8H50V54.3z"/>
			<path class="st0" d="M63.4,51.3v6.1h5.9v-6.1h3.6v15.8h-3.6v-6.6h-5.9v6.6h-3.6V51.3H63.4z"/>
			<path class="st0" d="M81.3,59.8v2.4h-6.1v-2.4H81.3z"/>
			<path class="st0" d="M85.5,67.1l-3.8-15.8h3.8l1.2,6.5c0.4,1.9,0.7,3.9,0.9,5.5h0c0.3-1.7,0.6-3.6,1-5.6l1.3-6.5h3.8l1.3,6.7
				c0.4,1.9,0.6,3.5,0.8,5.3h0c0.2-1.8,0.6-3.6,0.9-5.5l1.3-6.5h3.6l-4.1,15.8H94l-1.3-6.8c-0.3-1.6-0.6-3.1-0.8-4.9h0
				c-0.3,1.8-0.5,3.3-0.9,4.9l-1.5,6.8H85.5z"/>
			<path class="st0" d="M113.2,60.5h-5.8v3.8h6.5v2.9h-10.1V51.3h9.7v2.9h-6.2v3.3h5.8C113.2,57.5,113.2,60.5,113.2,60.5z"/>
			<path class="st0" d="M116.5,63.5c0.9,0.5,2.4,1,4,1c1.6,0,2.5-0.7,2.5-1.7c0-1-0.8-1.5-2.7-2.2c-2.6-0.9-4.4-2.4-4.4-4.7
				c0-2.7,2.3-4.7,6-4.7c1.8,0,3.1,0.4,4,0.8l-0.8,2.9c-0.6-0.3-1.8-0.8-3.3-0.8c-1.5,0-2.3,0.7-2.3,1.5c0,1,0.9,1.5,2.9,2.2
				c2.8,1,4.1,2.5,4.1,4.7c0,2.7-2,4.9-6.4,4.9c-1.8,0-3.6-0.5-4.5-1L116.5,63.5z"/>
			<path class="st0" d="M132.1,54.3h-4.3v-3H140v3h-4.3v12.8h-3.6L132.1,54.3L132.1,54.3z"/>
		</g>
	</g>
	<g>
		<path class="st0" d="M42.2,78l-0.6,1.9h-0.8l2.1-6.2h1l2.1,6.2h-0.9L44.4,78H42.2z M44.2,77.3l-0.6-1.8c-0.1-0.4-0.2-0.8-0.3-1.1
			h0c-0.1,0.4-0.2,0.7-0.3,1.1l-0.6,1.8L44.2,77.3L44.2,77.3z"/>
		<path class="st0" d="M47.6,73.7v6.2h-0.8v-6.2H47.6z"/>
		<path class="st0" d="M49,73.8c0.4-0.1,1-0.1,1.5-0.1c0.9,0,1.4,0.2,1.8,0.5c0.3,0.3,0.5,0.7,0.5,1.2c0,0.8-0.5,1.4-1.2,1.6v0
			c0.5,0.2,0.8,0.6,0.9,1.3c0.2,0.9,0.3,1.5,0.5,1.7h-0.8c-0.1-0.2-0.2-0.7-0.4-1.5c-0.2-0.9-0.5-1.2-1.3-1.2h-0.8v2.7H49V73.8z
			 M49.8,76.6h0.8c0.9,0,1.4-0.5,1.4-1.2c0-0.8-0.6-1.1-1.4-1.1c-0.4,0-0.7,0-0.8,0.1V76.6z"/>
		<path class="st0" d="M60.2,79.7c-0.3,0.1-0.9,0.3-1.6,0.3c-1.7,0-3.1-1.1-3.1-3.1c0-1.9,1.3-3.3,3.2-3.3c0.8,0,1.3,0.2,1.5,0.3
			L60,74.5c-0.3-0.1-0.7-0.3-1.2-0.3c-1.5,0-2.4,0.9-2.4,2.6c0,1.5,0.9,2.5,2.4,2.5c0.5,0,1-0.1,1.3-0.3L60.2,79.7z"/>
		<path class="st0" d="M66.3,76.7c0,2.1-1.3,3.3-2.9,3.3c-1.6,0-2.8-1.3-2.8-3.2c0-2,1.2-3.3,2.9-3.3C65.2,73.6,66.3,74.9,66.3,76.7
			z M61.5,76.8c0,1.3,0.7,2.5,2,2.5c1.3,0,2-1.2,2-2.6c0-1.2-0.6-2.5-2-2.5C62.2,74.2,61.5,75.5,61.5,76.8z"/>
		<path class="st0" d="M72.6,77.2c0-0.9-0.1-1.9-0.1-2.7h0c-0.2,0.7-0.5,1.5-0.8,2.4l-1.1,3H70l-1-2.9c-0.3-0.9-0.5-1.7-0.7-2.4h0
			c0,0.8-0.1,1.8-0.1,2.7L68,79.9h-0.8l0.4-6.2h1l1.1,3c0.3,0.8,0.5,1.4,0.6,2.1h0c0.2-0.6,0.4-1.3,0.7-2.1l1.1-3h1l0.4,6.2h-0.8
			L72.6,77.2z"/>
		<path class="st0" d="M74.7,73.8c0.4-0.1,0.9-0.1,1.5-0.1c0.8,0,1.4,0.2,1.7,0.5c0.3,0.3,0.5,0.7,0.5,1.3c0,0.6-0.2,1-0.5,1.3
			c-0.4,0.5-1.1,0.7-1.9,0.7c-0.2,0-0.5,0-0.6-0.1v2.5h-0.8V73.8z M75.5,76.8c0.2,0,0.4,0.1,0.7,0.1c1,0,1.6-0.5,1.6-1.3
			c0-0.8-0.6-1.2-1.5-1.2c-0.3,0-0.6,0-0.8,0.1L75.5,76.8L75.5,76.8z"/>
		<path class="st0" d="M79.9,78l-0.6,1.9h-0.8l2.1-6.2h1l2.1,6.2h-0.9L82.1,78H79.9z M81.9,77.3l-0.6-1.8c-0.1-0.4-0.2-0.8-0.3-1.1
			h0c-0.1,0.4-0.2,0.7-0.3,1.1L80,77.3L81.9,77.3L81.9,77.3z"/>
		<path class="st0" d="M84.5,79.9v-6.2h0.9l2,3.1c0.5,0.7,0.8,1.4,1.1,2l0,0c-0.1-0.8-0.1-1.6-0.1-2.5v-2.6h0.8v6.2h-0.8l-2-3.1
			c-0.4-0.7-0.8-1.4-1.1-2.1l0,0c0,0.8,0.1,1.5,0.1,2.6v2.6H84.5z"/>
		<path class="st0" d="M91.8,79.9v-2.6l-2-3.6h0.9l0.9,1.7c0.2,0.5,0.4,0.8,0.6,1.3h0c0.2-0.4,0.4-0.8,0.6-1.3l0.9-1.7h0.9l-2.1,3.6
			v2.6C92.6,79.9,91.8,79.9,91.8,79.9z"/>
	</g>
</g>
</svg>
