<?xml version="1.0" encoding="utf-8"?>
<!-- Generator: Adobe Illustrator 25.4.1, SVG Export Plug-In . SVG Version: 6.00 Build 0)  -->
<svg version="1.1" id="Layer_1" xmlns="http://www.w3.org/2000/svg" xmlns:xlink="http://www.w3.org/1999/xlink" x="0px" y="0px"
	 viewBox="0 0 405.3 80" style="enable-background:new 0 0 405.3 80;" xml:space="preserve">
<style type="text/css">
	.st0{fill-rule:evenodd;clip-rule:evenodd;fill:#29156E;}
	.st1{fill-rule:evenodd;clip-rule:evenodd;fill:#D9261D;}
	.st2{fill-rule:evenodd;clip-rule:evenodd;fill:#0693DC;}
</style>
<g>
	<path class="st0" d="M2.6,57.8H35c10.4,0,22.2-8.2,24.3-16.9c0.2-0.9,0-1.7-0.5-2.4c-1.1-1.4-3.6-2.2-6.8-2.1c-0.4,0-0.7,0-0.8-0.1
		c0.3-0.5,1.7-1.7,3.6-2.1c8.4-2,14.5-3.5,16.6-10.6c0.4-1.3,0.1-2.6-0.8-3.8c-1.4-1.9-4.5-3.3-7.3-3.3H28.4c-0.4,0-0.7,0.3-0.8,0.7
		c0,0.4,0.2,0.8,0.6,0.8c1,0.2,2.3,0.7,2.6,1.6c0.2,0.7,0,1.6-0.9,2.8L8.8,52.8c-1.6,2.3-3.4,3-6.2,3.4c-0.4,0.1-0.7,0.4-0.7,0.8
		C1.9,57.4,2.2,57.8,2.6,57.8z M37.9,33.2l9.3-13c0,0,0,0,0,0c0.4-0.5,2.6-1,4.8-1c1.6,0,3.2,0.2,4.1,0.9c0.3,0.2,0.9,0.7,0,2
		l-7.9,11.1c-0.9,1.3-4.8,2.2-8,1.9c-1.7-0.2-2.5-0.6-2.7-1C37.5,33.8,37.7,33.4,37.9,33.2z M24.5,52.2l9.3-13c0.4-0.5,2.6-1,4.8-1
		c1.6,0,3.2,0.2,4.1,0.9c0.3,0.2,0.9,0.7,0,2l-7.9,11.1c-0.9,1.3-4.8,2.2-8,1.9c-1.7-0.2-2.5-0.6-2.7-1C24,52.9,24.3,52.5,24.5,52.2
		z"/>
	<path class="st0" d="M50.7,56.2c-0.4,0-0.7,0.4-0.7,0.8c0,0.4,0.4,0.7,0.8,0.7h16.1c9.8,0,20.1-9.2,22.7-17.4c0.4-1.3,0-3-1.1-4.5
		c-1.2-1.7-3-2.8-4.6-2.8H66.2c-0.4,0-0.7,0.3-0.8,0.6s0.2,0.7,0.5,0.9c0.5,0.2,0.8,0.4,0.9,0.8c0.2,0.5,0,1.2-0.3,1.6l-12,17.2
		C53.6,55.6,52.7,56,50.7,56.2z M63.1,52.9l10.3-14c1.4-1.9,4.4-2.8,6.4-2.8c0.7,0,1.4,0.1,1.7,0.4c0.1,0.1,0.5,0.4-0.3,1.4
		L70.9,52.2c-1.6,2.2-4.4,3-6.3,2.8c-1-0.1-1.7-0.4-1.9-0.9C62.6,53.7,62.8,53.3,63.1,52.9z"/>
	<path class="st0" d="M94,34.6c0.3,0.1,0.5,0.2,0.6,0.5c0.2,0.5,0.1,1.2-0.4,1.8L83.2,54.3c-0.8,1.3-2.2,1.9-3.1,1.9
		c-0.4,0-0.8,0.3-0.8,0.8s0.3,0.8,0.8,0.8h12.7c0.4,0,0.7-0.3,0.8-0.7c0.1-0.4-0.2-0.7-0.6-0.8c-0.9-0.3-1.3-0.7-1.3-0.8l4.1-6.4
		c0.4-0.5,1.6-1,3-1.1c1.1-0.1,1.9,0.1,2.1,0.2l-4.8,8.4c-0.1,0.2-0.1,0.5,0,0.8c0.1,0.2,0.4,0.4,0.7,0.4h12.1c1.1,0,2.5-1.1,3-2.1
		c0.4-0.8,0.1-1.4-0.1-1.6c-0.5-0.6-1.3-0.5-2.3-0.4c-0.7,0.1-1.7,0.1-2.5,0c-1.3-0.2-3.4-1-3.4-3.4c0-1.8,4-4,7.5-5.9
		c4.4-2.3,8.5-4.6,8.7-7.4c0.1-0.9-0.2-1.7-0.8-2.4c-1.3-1.4-3.5-1.5-4.2-1.5H94.2c-0.4,0-0.7,0.3-0.8,0.7
		C93.4,34.1,93.6,34.5,94,34.6z M103.3,37.5c0.4-0.6,1.9-1.1,3.6-1.2c1.5-0.1,2.5,0.2,2.8,0.4l-5.5,7.2c-0.4,0.6-2,1.1-3.6,1.1
		c-1.2,0.1-2-0.1-2.2-0.3L103.3,37.5z"/>
	<path class="st1" d="M121.1,46.5l-6.9,14.3h28.5C128.2,59.6,123.3,53.7,121.1,46.5z"/>
	<path class="st0" d="M43.7,58.9c1.5-0.3,3.1-0.9,3.3-1.5c0.2-0.6,1.5-1.8,2.4-1.9c1-0.2,2.4-0.6,2.8-1c0.4-0.4,1.2-1.8,1-2
		c-0.1-0.3-1.8,1.5-6.3,3.6c-4.5,2.1-10.3,2.7-10.3,2.7s-33.2,0-34.3,0S0.6,59,0.1,59.7c-0.5,0.7,1.2,0.7,1.2,0.7s26.9,0,31.7,0
		S42.1,59.3,43.7,58.9z"/>
	<path class="st0" d="M112.2,58c-0.5,0.9-1.7,0.9-1.7,0.9s-13.2,0-14.1,0c-0.9,0-1.2-0.9-1.2-0.9c-0.5,0.9-2.1,0.9-2.1,0.9
		s-12,0-14.4,0c-2.5,0-1.8-2.5-1.8-2.5c-4,2.2-9.9,2.5-9.9,2.5s-12.9,0-13.7,0c-0.8,0-1.1,0.5-1.9,0.6c-0.9,0.1-1.6,0-2.2,0.5
		c-0.6,0.5,0.7,0.4,0.7,0.4s60.5,0,61,0c0.6,0,1.1,0,1.4-0.5c0.3-0.5,1.7-2.7,1.2-3C112.9,56.7,112.8,57.1,112.2,58z"/>
	<path class="st0" d="M108.3,47.5c-3.5,1.8-2.7,3.7-2.7,3.7c0.7-1.9,9.5-5.3,11.2-6.4c1.7-1.2,3.6-4.3,3.3-4.6
		c-0.3-0.3-0.5,0.7-1.4,1.7C117.9,42.8,111.8,45.7,108.3,47.5z"/>
	<path class="st0" d="M97.9,49.6c-0.5,0.3-3.6,5.2-3.7,5.5c-0.1,0.2,0.9,1.3,0.9,1.3s4.1-6.5,4.2-6.7C99.3,49.3,98.4,49.3,97.9,49.6
		z"/>
	<path class="st0" d="M102.3,43.4c1.9-3.1,4.2-3.7,4.4-3.8c0.3-0.1,1-1.2,1.1-1.6s-0.2-0.6-1.9,0.3c-1.7,0.9-3.1,3.3-3.6,4.2
		C101.8,43.5,102.3,43.4,102.3,43.4z"/>
	<path class="st0" d="M66.4,53.7c0,0,6.5-9.3,8.3-12c1.8-2.6,3-2.5,3.6-2.7c0.6-0.2,1.1-0.5,1.2-1s0-0.9,0-0.9
		c-2.3,0-3.7,1.9-4.3,2.8c-0.6,0.9-8.5,12.3-9,13.3C65.5,54.2,66.4,53.7,66.4,53.7z"/>
	<path class="st0" d="M27,53c0.5-0.2,4.3-5.6,5.7-7.5c1.3-1.9,2.7-4.4,3.4-4.4c0.7,0,4,0.1,4.5,0c0.5-0.1,0.7-0.6,0.6-0.9
		c-0.1-0.4-0.3-1-2.1-1c-1.8,0-2.8,0.1-3.2,0.4S27,52,27,52S26.6,53.2,27,53z"/>
	<path class="st0" d="M41.1,33.1c0,0,8.3-10.4,8.9-11c0.7-0.6,2.8-0.3,3.5-0.3c0.7,0,1-0.5,1.3-1.2S53.6,20,52,20
		c-1.6,0-2.1,0.3-3.6,1.7s-6.6,8.9-7.6,10.6C39.8,33.9,41.1,33.1,41.1,33.1z"/>
	<path class="st0" d="M27.9,21.1c0.9,0.2,1.3-0.9,1.4-1.1c0-0.2-0.1-1.2-1.9,0.3C27.3,20.3,27,20.9,27.9,21.1z"/>
	<path class="st0" d="M64.1,33.1c0.9-0.6,2.3-0.5,2.9-0.7c0.6-0.2,2.7-1.8,3.5-3.3c0.9-1.4,1.4-2.7,1.1-2.7c-0.3,0-1.2,1.7-2.1,2.7
		c-1,0.9-8.1,4.8-11.2,5.9c0,0-0.9,0.3-0.3,0.7c0.6,0.4,1.2,0.9,1.6,0.9c0.4-0.1,3.6-1.5,3.7-1.7C63.5,34.6,63.2,33.6,64.1,33.1z"/>
	<path class="st2" d="M15.1,41.5c0-0.5,0-1,0-1.5c0-10.2,4.1-19.4,10.8-26.1C32.6,7.2,41.9,3.1,52.1,3.1c10.2,0,19.4,4.1,26.1,10.8
		c5.3,5.3,9,12.2,10.3,19.9c2.5,1.1,3,5.2,3.1,5.5c0.1,0.2,0.3,0.2,0.5,0.1C92,28.6,87.5,18.8,80.4,11.7C73.1,4.5,63.1,0,52.1,0
		C41,0,31,4.5,23.7,11.7C16.5,19,12,29,12,40c0,1.7,0.1,3.4,0.3,5C13.1,44,14.2,42.7,15.1,41.5z"/>
	<path class="st2" d="M78.2,66.1c-6.7,6.7-15.9,10.8-26.1,10.8c-10.2,0-19.4-4.1-26.1-10.8c-1.4-1.4-2.8-3-4-4.7h-3.7
		c1.6,2.5,3.4,4.8,5.5,6.8C31,75.5,41,80,52.1,80c11.1,0,21.1-4.5,28.3-11.7c2.2-2.2,4.1-4.6,5.7-7.2c-1.3,0-2.7-0.1-3.6-0.1
		C81.2,62.8,79.8,64.5,78.2,66.1z"/>
	<rect x="277.2" y="47.6" class="st1" width="6.8" height="20.8"/>
	<rect x="330.6" y="47.6" class="st1" width="6.8" height="20.8"/>
	<polygon class="st1" points="355.8,58.5 348.3,47.6 341.6,47.6 341.6,68.4 348.3,68.4 348.3,57.5 355.8,68.4 362.5,68.4 
		362.5,47.6 355.8,47.6 	"/>
	<polygon class="st1" points="372.9,59.7 382.8,59.7 382.8,54.9 372.9,54.9 372.9,52.1 383.6,52.1 383.6,47.6 372.9,47.6 
		366.4,47.6 366.4,52.1 366.4,54.9 366.4,59.7 366.4,63.6 366.4,68.4 372.9,68.4 384,68.4 384,63.6 372.9,63.6 	"/>
	<polygon class="st1" points="318.1,47.6 311.4,47.6 311.4,63.2 311.4,68.4 318.1,68.4 327.8,68.4 327.8,63.2 318.1,63.2 	"/>
	<path class="st1" d="M182.3,47.6l-7.6,20.8h6.8l1.3-3.6h6.3l1.4,3.6h6.8l-8.1-20.8H182.3z M184.3,60.6l1.5-4l1.6,4H184.3z"/>
	<path class="st1" d="M260.1,47.6l-7.6,20.8h6.8l1.3-3.6h6.3l1.4,3.6h6.8l-8.1-20.8H260.1z M262.1,60.6l1.5-4l1.6,4H262.1z"/>
	<path class="st1" d="M209.3,47.6h-3.1h-6.8v20.8h1.9h4.9c0.6,0,1.2,0,1.8,0c5.7,0,10.3-2,10.3-11.7C218.3,47,209.3,47.6,209.3,47.6
		z M212.1,58.7c-0.2,4.6-4.4,4.8-4.4,4.8h-1.5V52c0.4,0,0.9,0,1.4,0C210,52,212.3,52.8,212.1,58.7z"/>
	<path class="st1" d="M236.1,59.1c0,0,4.8-0.9,4.8-5.5c0-4.6-3.3-6-8.8-6c-5.5,0-6.1,0-6.1,0l0,0h-4v20.8h6.8v-8.6
		c0,0,2.1,0,3.3,2.3c1.2,2.4,3.3,6.3,3.3,6.3h6.9C242.3,68.4,240.4,61.5,236.1,59.1z M231,55.9c-0.6,0-1.5,0-2.2,0v-4.3
		c0.8,0,3.1,0,3.1,0s2.7,0,2.7,2.1S231.9,55.9,231,55.9z"/>
	<path class="st1" d="M302.8,59.1c0,0,4.8-0.9,4.8-5.5c0-4.6-3.3-6-8.8-6s-6.1,0-6.1,0l0,0h-4v20.8h6.8v-8.6c0,0,2.1,0,3.3,2.3
		c1.2,2.4,3.3,6.3,3.3,6.3h6.9C309,68.4,307.1,61.5,302.8,59.1z M297.7,55.9c-0.6,0-1.5,0-2.2,0v-4.3c0.8,0,3.1,0,3.1,0
		s2.7,0,2.7,2.1S298.6,55.9,297.7,55.9z"/>
	<path class="st1" d="M169.7,57.3c0,0,3.1-0.8,3.1-4.7c0-3.9-3.8-5-6.3-5c-1.6,0-4,0-5.4,0h-1.2h-5.5v20.8h5.3h1.4h4.3
		c0,0,8.2,0.4,8.2-5.7C173.7,62.7,174,58.1,169.7,57.3z M163.8,51.5c0,0,2.7-0.1,2.7,2.1c0,2.2-2.8,2.2-3.3,2.2c-0.3,0-1.2,0-2,0
		v-4.3H163.8z M161.2,64v-4.5h2.9c0,0,3.1-0.1,3.1,2.4S161.2,64,161.2,64z"/>
	<path class="st1" d="M397.6,54.7c-4-0.9-4.3-1.5-4.6-2.1c-0.3-0.5,0.1-1.9,2.5-1.9s3.3,2.7,3.3,2.7l5.8-0.3c0-4.3-4.6-6-8.7-6
		c-4.1,0-8.6,1.5-8.6,5.9s4.7,5.8,8.2,6.7c3.5,0.8,3.5,1.6,3.8,2.3c0.3,0.7,0.2,2.7-3.1,2.7c-3.3,0-3.7-3.5-3.7-3.5l-6,0.3
		c0,5.2,6.2,7.2,9.4,7.2c3.2,0,9.4-1.9,9.4-6.6S401.7,55.6,397.6,54.7z"/>
	<path class="st0" d="M167.2,37.7c3.1-0.8,7.8-2.1,8.7-9.7c0.8-7.6-3.4-12.3-3.4-12.3c-3.4,2.6-4,5.3-4,5.3c3.3,4.3,3.7,7.8,3.7,7.8
		c-3,3.1-9.6,2.2-11.3,1.8c-1.7-0.4-3.2-1.5-3.5-3.6s2.6-6.4,2.6-6.4c-3.7,1-9.9,10.5-6.2,14.5C157.4,39.1,164.1,38.5,167.2,37.7z"
		/>
	<path class="st0" d="M188,25.4c1.6-12.9-1.2-22-1.2-22c-3.7,3.5-4.6,6.6-4.9,6.9c0.8,2.4,2.3,19.5,2.3,19.5
		C186.3,28.8,188,25.4,188,25.4z"/>
	<path class="st0" d="M171.2,9.6l-5.7-3.5c0,0-3.9,2.7-4.8,4.2l5.9,3.3L171.2,9.6z"/>
	<path class="st0" d="M217.2,34.1c0,0-2.3,1.6-3.7,3l-4.9-3c0,0-3.9,2.7-4.8,4.2l5.9,3.3l3.4-2.9l5.3,2.9l4.6-4L217.2,34.1z"/>
	<path class="st0" d="M390.6,38.3l5.9,3.3l4.6-4l-5.7-3.5C395.4,34.1,391.5,36.8,390.6,38.3z"/>
	<path class="st0" d="M328.2,14.1l-3,5.4c0,0,4,3.6,4.4,4.8c0.4,1.2,0.3,2-0.6,3.1c-0.9,1.2-6.9,7.2-16.4,4.1c0,0,5.9,5.7,11.6,5.6
		c5.7-0.1,9.9-8.2,10.2-9.7C334.9,26,336.6,19.4,328.2,14.1z"/>
	<path class="st0" d="M350,29.6c0.2-0.2,2.7,0.4,4.3-3.9c0,0,0,4,2.1,4c2.1,0,42.4,0,42.4,0s3.6-4,3.6-10.7c0-6.8-4.8-9.9-4.8-9.9
		l-3.9,6.3l3.6,4.4c0,0,1,1.6-0.6,1.6s-38.1,0-38.1,0s-3.7-12.6-4.9-15.7c0,0-2.5,3.9-3.1,5.2c-0.6,1.3,0.3,3,0.7,4.1
		s1.5,4.3,1.5,6.3c-0.3,0-10.1,0-10.1,0s-2,0.1-2-1.7c0-1.8,0.2-3.2,0.2-3.2s-2.2,1.5-2.8,6.9c-0.6,5.4,1.2,6.3,2.6,6.3
		C342,29.6,349.8,29.7,350,29.6z"/>
	<path class="st0" d="M309,9.3L302.8,4c0-1.9,0.1-2.3-2-0.1c-2.1,2.2-2.8,4.9-2.8,4.9c4,3.9,3.7,12.1,3.7,12.1h-11.8
		c-0.3-13.5-2.6-18-3-17.8c-0.3,0.2-4.5,4.2-3.4,6.9c1.1,2.6,1.5,10.9,1.5,10.9h-6.7c2.2-3.3-0.8-5.1-3.2-7.3
		c-2.4-2.2-5.3-1.3-9.2,0.3c-3.9,1.5-9.6,5.1-9.6,5.1c1.2-3.7,0.4-7.3,0.5-7.6s0.6,0.3,1.1-0.2c0.5-0.4,2.4-4.8,2.4-5.1
		s-1.5-0.3-3.4-1.2c-1.9-0.8-2.8-3.3-2.8-3.3c-2.4,1-3.7,3.9-3.9,4.5c-0.2,0.6,1.3,1.5,1.7,2.2c0.3,0.7,1.3,9.8,1.6,11.4
		c0.3,1.6-1.2,1.6-1.2,1.6s-29,0-30.1,0c-1.1,0-2.1-0.4-2.5-2.3c-0.4-1.9-2.1-8.9-2.1-8.9s-3.3,6.5-6.7,6.5c-3.4,0-5.9-5.2-5.9-5.2
		l-4.2,5.8c0,0,2.9,4,3.8,5.6c0.9,1.6-0.1,3.5-5.3,6.6c-5.2,3.1-11.4,1-11.4,1c7.5,5.8,12.3,5.2,12.3,5.2c8.9-2.7,8.8-12.5,8.8-12.5
		c5.1-0.3,5.5-3.5,5.5-3.5s1.3,4.9,2.2,7.3c0.9,2.4,3.8,2.4,3.8,2.4s58.9,0,61.9,0c3.1,0,3-2.5,3-2.5c0,2.1,2.7,2.5,2.7,2.5
		s10.7,0,13.6,0c3,0,3.1-1.7,3.1-1.7c1.9-5,0.5-13.9,0.5-13.9L309,9.3z M259.2,21c0,0,3.1-3.3,6.6-3.3c3.5,0,4.6,3.3,4.6,3.3H259.2z
		"/>
</g>
</svg>
