<?xml version="1.0" encoding="utf-8"?>
<!-- Generator: Adobe Illustrator 25.4.1, SVG Export Plug-In . SVG Version: 6.00 Build 0)  -->
<svg version="1.1" id="Layer_1" xmlns="http://www.w3.org/2000/svg" xmlns:xlink="http://www.w3.org/1999/xlink" x="0px" y="0px"
	 viewBox="0 0 325.5 80" style="enable-background:new 0 0 325.5 80;" xml:space="preserve">
<style type="text/css">
	.st0{fill:#F6B21A;}
	.st1{fill:#002856;}
	.st2{fill:#FFFFFF;}
	.st3{fill:#070809;}
</style>
<g>
	<g>
		<circle class="st0" cx="88.8" cy="21.2" r="19.7"/>
	</g>
	<g>
		<g>
			<path class="st1" d="M159.3,33.8c-4.4,0-6.5,0-6.5,0l4.7-22.8h-3.5l-5.4,25.9h15.8C164.4,36.9,163.7,33.8,159.3,33.8z"/>
		</g>
		<g>
			<path class="st1" d="M220.3,63.9c-4.4,0-6.5,0-6.5,0l4.7-22.8h-3.5l-5.4,25.9h15.8C225.4,67.1,224.7,63.9,220.3,63.9z"/>
		</g>
		<g>
			<path class="st1" d="M150.8,43.7h12.8l0.5-2.8h-16.3l0.2,0.3h-0.2l-5.4,25.9h15.8c0,0-0.7-3.2-5.1-3.2c-4.4,0-6.5,0-6.5,0
				l1.8-8.7c3.3-0.1,12.1,0.1,12.1,0.1l0.6-3.1h-12.1L150.8,43.7z"/>
		</g>
		<g>
			<path class="st1" d="M128.8,28.2h7.9l2.5-2.8l2.3,11.8h3.8L140.1,11h-3.4l-16.9,26.2h3.3L128.8,28.2z M137.2,14.9l2,10.5h-8.6
				L137.2,14.9z"/>
		</g>
		<g>
			<path class="st1" d="M176.4,28.2h7.9l2.5-2.8l2.3,11.8h3.8L187.8,11h-3.4l-16.9,26.2h3.3L176.4,28.2z M184.8,14.9l2,10.5h-8.6
				L184.8,14.9z"/>
		</g>
		<g>
			<path class="st1" d="M178.7,40.9l-16.9,26.2h3.3l5.7-9h7.9l2.5-2.8l2.3,11.8h3.8l-5.1-26.2H178.7z M172.6,55.3l6.6-10.5l2,10.5
				H172.6z"/>
		</g>
		<g>
			<path class="st1" d="M244.5,40.9l-16.9,26.2h3.3l5.7-9h7.9l2.5-2.8l2.3,11.8h3.8L248,40.9H244.5z M238.4,55.3l6.6-10.5l2,10.5
				H238.4z"/>
		</g>
		<g>
			<path class="st1" d="M246.1,37.2l5.7-9h7.9l2.5-2.8l2.3,11.8h3.8L263.1,11h-3.4l-16.9,26.2H246.1z M260.2,14.9l2,10.5h-8.6
				L260.2,14.9z"/>
		</g>
		<g>
			<polygon class="st1" points="226.3,23 235.5,36.9 240.5,36.9 231.1,22.4 244.3,11 239.5,11 226.5,21.9 228.8,11 225.2,11 
				219.9,36.9 223.4,36.9 			"/>
		</g>
		<g>
			<path class="st1" d="M203.3,37.5c5.1,0,9-1.7,11.3-4.3c2.3-2.6,2.8-7.5-0.3-9.5c-3.1-2-12.4-2.5-11.3-6.6c1.2-4.1,7.6-4.2,10-3.2
				c2.3,1,1.4,4.7,1.4,4.7s3.2-0.1,4.1-2.9c0.9-2.8-1.9-5.8-8.5-5.8c-6.6,0-10.4,5.4-10.9,8.2c-0.6,2.8,1.5,5.4,7.3,6.7
				c5.8,1.2,6.2,2.8,6.3,4.3c0.1,1.5-1.3,4.8-7.8,5.3c-6.5,0.5-4.5-6.2-4.5-6.2s-3.5,0.3-4.3,3C195.3,34,198.2,37.5,203.3,37.5z"/>
		</g>
		<g>
			<path class="st1" d="M142.9,46c0.9-2.8-1.9-5.8-8.5-5.8c-6.6,0-10.4,5.4-10.9,8.2c-0.6,2.8,1.5,5.4,7.3,6.7
				c5.8,1.2,6.2,2.8,6.3,4.3c0.1,1.5-1.3,4.8-7.8,5.3c-6.5,0.5-4.5-6.2-4.5-6.2s-3.5,0.3-4.3,3c-0.8,2.8,2.1,6.2,7.2,6.2
				c5.1,0,9-1.7,11.3-4.3c2.3-2.6,2.8-7.5-0.3-9.5c-3.1-2-12.4-2.5-11.3-6.6s7.6-4.2,10-3.2c2.3,1,1.4,4.7,1.4,4.7
				S142,48.8,142.9,46z"/>
		</g>
		<g>
			<path class="st1" d="M316.8,40.2c-6.6,0-10.4,5.4-10.9,8.2c-0.6,2.8,1.5,5.4,7.3,6.7c5.8,1.2,6.2,2.8,6.3,4.3
				c0.1,1.5-1.3,4.8-7.8,5.3c-6.5,0.5-4.5-6.2-4.5-6.2s-3.5,0.3-4.3,3c-0.8,2.8,2.1,6.2,7.2,6.2c5.1,0,9-1.7,11.3-4.3
				c2.3-2.6,2.8-7.5-0.3-9.5c-3.1-2-12.4-2.5-11.3-6.6s7.6-4.2,10-3.2c2.3,1,1.4,4.7,1.4,4.7s3.2-0.1,4.1-2.9
				C326.2,43.2,323.4,40.2,316.8,40.2z"/>
		</g>
		<g>
			<path class="st1" d="M286.7,41.2h-0.2l-5.4,25.9h15.8c0,0-0.7-3.2-5.1-3.2c-4.4,0-6.5,0-6.5,0l1.8-8.7c3.3-0.1,12.1,0.1,12.1,0.1
				l0.6-3.1h-12.1l1.8-8.5h12.8l0.5-2.8h-16.3L286.7,41.2z"/>
		</g>
		<g>
			<path class="st1" d="M204.2,40.9h-5.5h-4.1L189,67.1h3.3l2.8-11.7c0.7,0,1.7,0,3.3,0c3.4,0,10.1-0.3,12.3-7.3
				S204.2,40.9,204.2,40.9z M201.1,52.4h-5.2h0l2.1-8.6c1.2,0,2.9,0,3.7,0c1.2,0,5.8-0.1,5.8,4C207.4,52,201.1,52.4,201.1,52.4z"/>
		</g>
		<g>
			<path class="st1" d="M277.9,45.2l-3.6,16.6l-8.2-20.9h-4.7l-5.9,26.2h3.3l4.8-22.1l8.4,22.1h4.6l5.5-26.2
				C279.4,40.9,277.9,45.2,277.9,45.2z"/>
		</g>
	</g>
	<g>
		<path class="st2" d="M100.5,39.1c-0.2,2.1-0.8,10.7-1.8,12.6c-0.9,1.9-4,10.4-8.3,14.7c-4.3,4.3-13.2,13.3-13.2,13.3H53
			c0,0,11.9-10.4,13.2-14.8c0,0,1.9,1.6,2.4,1.7c0,0-3.7-3.5-3.5-5.8c0,0-9.2,1.5-8.5-5.1c0,0-8.1-0.4-11.2-8.2c0,0,1.8,0.2,3.3,0.9
			C48,48.1,38.2,42.5,37,37c0,0,3.9,0.4,5.1,0.2c0,0-10.6-1.2-15.2-7l2.1-0.5c0,0-5.9-1.8-7.9-3.6l1.2-1.3c0,0-6.4-0.6-9.2-3.6
			l1.6-1.5c0,0-4.8-0.5-6.4-1.9c0,0,1.7-1.2,2.1-1.7c0,0-5.6-0.8-7.1-3.4c0,0,4.5,0.8,6.5,0.7c0,0-6.8-2.5-7.4-5.1
			c0,0,4.4,1.5,7.5,1.8c0,0-8.4-3.1-9.3-5.8c0,0,8.4,2.7,11.9,3.1C12.4,7.5,2,4,1,0.6c0,0,10.2,3.7,13.4,4.2c0,0-3-3.1-3.3-4.2
			c0,0,11,5.8,19.3,8.3c8,2.4,11.3,3.2,11.4,3.3c-0.2-0.1-2.5-1.4-2.8-3.9c0,0,3.3,2.6,5.6,3.1c2.3,0.5,11.2,3.1,14.4,6.7
			c3.2,3.6,6.3,8.2,7.4,9.2c1.1,1,7.7,8.5,16.5,10c0.3-0.1,2.7-2.1,3.1-2.5c0.4-0.4,0.1-1.2-0.8-1.6c-0.8-0.4-9.6-6.1-9.6-12
			c0-5.9,5.5-9.7,6.8-10.5c1.3-0.8,6.5-2.6,9.7-2.3c3.1,0.2,5.4,2.7,5.5,2.8c0,0,0,0,0,0s-0.3,0.2-1.7,0.2c-1.4,0-2.4-0.5-1.6,0.2
			c0.8,0.6,2.8,1.9,2.9,3c0.2,1.1,0.3,2.7,0.3,2.7s-4.1-0.2-6.7-1.3c-2.5-1.1-5.1-2.9-7.7-1s-2.9,5.9-0.3,8c2.6,2.1,7.4,5,8,5.1
			c0.7,0.2,5.8,0.4,8.2,3C101.4,33.7,100.7,37.1,100.5,39.1z"/>
		<path d="M77.4,80H52.2l0.6-0.5c0.1-0.1,11.8-10.4,13.1-14.6l0.1-0.5l0.4,0.3c0.1,0.1,0.1,0.1,0.2,0.2c-0.9-1.1-1.7-2.5-1.8-3.7
			c-1.2,0.2-5.2,0.5-7.2-1.5c-0.9-0.9-1.4-2.1-1.3-3.6c-1.6-0.2-8.4-1.4-11.2-8.4l-0.2-0.5l0.5,0.1c0,0,0.4,0,1,0.2
			c-3.2-2.1-8.7-6.2-9.7-10.4l-0.1-0.4l0.4,0c0,0,0.5,0,1.1,0.1c-3.5-0.9-8.6-2.7-11.5-6.4L26.3,30l1.4-0.3c-1.8-0.6-5.4-1.9-7-3.3
			l-0.2-0.2l1-1.1c-1.7-0.2-6.4-1.1-8.8-3.6l-0.2-0.2l1.4-1.3c-1.4-0.2-4.6-0.8-5.9-1.8l-0.3-0.3L8,17.7c0.3-0.2,1.1-0.8,1.6-1.3
			c-1.5-0.3-5.4-1.3-6.7-3.4l-0.4-0.6l0.7,0.1c0,0,2.7,0.5,4.8,0.6c-2.1-0.9-5.6-2.7-6-4.7L1.9,7.9l0.5,0.2c0,0,2.3,0.8,4.7,1.3
			C4.5,8.3,0.8,6.3,0.2,4.5L0,3.9l0.6,0.2c0.1,0,4.6,1.5,8.4,2.4C5.8,5.2,1.4,2.9,0.8,0.7L0.6,0.1l0.6,0.2c0.1,0,8.5,3.1,12.4,4
			c-0.9-1-2.5-2.8-2.7-3.6L10.6,0l0.6,0.3c0.1,0.1,11.1,5.8,19.2,8.2c5.1,1.5,8.2,2.4,9.9,2.9c-0.7-0.7-1.5-1.7-1.7-3.2l-0.1-0.8
			L39.2,8c0,0,3.2,2.6,5.4,3c1.1,0.2,3.9,1,6.9,2.2c2.5,1,5.9,2.6,7.7,4.6c1.8,2,3.6,4.3,5,6.2c1.1,1.4,2,2.6,2.4,3
			c0.1,0.1,0.3,0.3,0.5,0.5c2,2,8,8,15.6,9.4c0.4-0.3,2.6-2,2.9-2.4c0.1-0.1,0.1-0.2,0.1-0.3c0-0.3-0.3-0.6-0.7-0.9
			c-1.2-0.6-9.8-6.4-9.8-12.2c0-6.6,6.7-10.6,7-10.7c1.5-0.8,6.7-2.6,9.9-2.4c3,0.2,5.1,2.3,5.6,2.8l0.3,0.4l-0.2,0.1
			c-0.1,0.1-0.5,0.3-1.9,0.3c-0.3,0-0.7,0-0.9-0.1c1,0.7,2.4,1.8,2.6,2.9c0.2,1.1,0.3,2.6,0.3,2.7l0,0.3l-0.3,0
			c-0.2,0-4.2-0.2-6.8-1.4c-0.3-0.2-0.7-0.3-1-0.5c-2.2-1.1-4.3-2-6.4-0.6c-1.2,0.8-1.9,2.2-2,3.7c-0.1,1.5,0.6,2.9,1.7,3.8
			c2.7,2.2,7.3,4.9,7.9,5c0.1,0,0.3,0,0.6,0.1c1.6,0.2,5.7,0.7,7.8,3c2.1,2.4,1.8,5.3,1.6,7.4c0,0.3-0.1,0.6-0.1,0.9
			c-0.3,4-0.9,11-1.8,12.7c-0.2,0.3-0.4,1-0.8,1.7c-1.4,3.3-4.1,9.5-7.6,13.1C86.5,70.9,77.6,79.8,77.4,80L77.4,80z M53.8,79.4h23.3
			c1-1,9.1-9.1,13.1-13.2c3.4-3.5,6-9.6,7.4-12.9c0.3-0.8,0.6-1.4,0.8-1.7c0.6-1.2,1.2-5.7,1.7-12.5c0-0.3,0.1-0.6,0.1-0.9
			c0.2-2,0.5-4.8-1.4-7c-1.9-2.1-5.9-2.6-7.4-2.8c-0.3,0-0.5-0.1-0.6-0.1c-0.8-0.2-5.7-3.1-8.2-5.2c-1.3-1-2-2.6-2-4.3
			c0.1-1.7,0.9-3.3,2.2-4.2c2.4-1.7,4.8-0.6,7,0.5c0.3,0.2,0.7,0.3,1,0.5c2,0.9,5.2,1.2,6.2,1.3c0-0.5-0.1-1.6-0.2-2.3
			c-0.1-0.8-1.6-1.9-2.5-2.5c-0.1-0.1-0.3-0.2-0.4-0.3c-0.2-0.2-0.5-0.4-0.4-0.7c0.1-0.3,0.4-0.2,0.9-0.2c0.3,0,0.8,0.1,1.3,0.1
			c0.5,0,0.9,0,1.1-0.1c-0.8-0.7-2.6-2.2-4.9-2.4c-3.2-0.3-8.4,1.6-9.6,2.3c-0.3,0.2-6.7,3.9-6.7,10.2c0,5.6,8.3,11.1,9.5,11.7
			c0.6,0.3,1,0.8,1.1,1.3c0.1,0.3,0,0.6-0.2,0.8c-0.3,0.3-2.9,2.4-3.2,2.5l-0.1,0l-0.1,0C75,36.2,68.8,30,66.8,28
			c-0.2-0.2-0.4-0.4-0.5-0.5c-0.5-0.5-1.4-1.6-2.5-3.1c-1.4-1.9-3.2-4.2-5-6.1c-3.2-3.5-12.1-6.2-14.3-6.6c-1.7-0.3-3.9-1.8-5-2.6
			c0.6,1.8,2.3,2.8,2.5,2.9l2.2,1.2l-2.4-0.6c0,0-3.2-0.8-11.5-3.3c-6.9-2.1-15.7-6.4-18.5-7.8C12.6,2.4,14,4,14.6,4.6l0.6,0.7
			l-0.9-0.2C11.7,4.7,4,2,1.6,1.1C2.4,2.3,4.3,3.6,7.2,5c2.7,1.3,5.3,2.1,5.3,2.1l2.7,0.9l-2.8-0.3c-3-0.3-9.1-2.2-11.3-2.9
			c1.5,2,6.7,4.2,8.8,5l2.3,0.8l-2.4-0.2c-2.4-0.2-5.6-1.2-6.9-1.6c1.1,1.8,5.3,3.7,6.9,4.3l1.3,0.5l-1.4,0.1
			c-1.5,0.1-4.4-0.3-5.8-0.5c1.9,2,6.4,2.6,6.4,2.7l0.5,0.1l-0.3,0.4c-0.3,0.4-1.2,1.1-1.8,1.5c1.8,1.1,5.9,1.5,5.9,1.6l0.7,0.1
			l-1.9,1.8c2.8,2.7,8.7,3.2,8.8,3.2l0.6,0.1l-1.5,1.5c2.1,1.7,7.5,3.3,7.6,3.3l1.1,0.3l-2.7,0.6c4.6,5.3,14.6,6.5,14.7,6.5l2.4,0.3
			l-2.4,0.3c-1,0.1-3.7-0.1-4.7-0.2c1.6,5.3,11,10.6,11.4,10.9l-0.3,0.6c-1-0.4-2.1-0.7-2.7-0.8c3.2,7,10.7,7.5,10.8,7.5l0.3,0
			l0,0.3c-0.1,1.5,0.2,2.6,1.1,3.4c2.2,2.1,7,1.3,7.1,1.3l0.4-0.1l0,0.4c-0.2,2.2,3.4,5.5,3.4,5.6l0.8,0.7l-1.1-0.2
			c-0.5-0.1-1.6-1-2.2-1.5C64.7,69.5,56.2,77.2,53.8,79.4z"/>
	</g>
	<g>
		<path class="st3" d="M104.9,19.1c-0.1,0.2-0.7,0.5-1.8,0c-1.1-0.5-5.5-1.9-5.5-1.9s-0.1-1.6-0.3-2.7c-0.2-1.1-2.1-2.4-2.9-3
			c-0.8-0.6,0.2-0.2,1.6-0.2c1.4,0,1.7-0.2,1.7-0.2s1,0.7,2.3,2.3c1.3,1.6,2.6,3.2,3.9,4.1C105.2,18.5,105,19,104.9,19.1z"/>
		<path d="M104.2,19.6c-0.3,0-0.7-0.1-1.1-0.3c-1.1-0.5-5.5-1.9-5.5-1.9l-0.1,0l0-0.1c0,0-0.1-1.6-0.3-2.7c-0.1-0.9-1.6-2-2.5-2.6
			c-0.1-0.1-0.3-0.2-0.4-0.3c-0.3-0.2-0.4-0.3-0.3-0.5c0.1-0.2,0.2-0.1,0.7-0.1c0.3,0,0.8,0.1,1.3,0.1c1.3,0,1.6-0.2,1.6-0.2
			l0.1-0.1l0.1,0.1c0,0,1,0.7,2.3,2.4l0.4,0.4c1.2,1.5,2.4,2.9,3.5,3.6c1.4,0.9,1.1,1.5,1.1,1.7l-0.1,0l0.1,0.1
			c0,0.1-0.1,0.2-0.3,0.3C104.6,19.5,104.4,19.6,104.2,19.6z M97.7,17.2c0.7,0.2,4.4,1.4,5.5,1.8c1.1,0.5,1.5,0.1,1.6,0.1l0,0
			c0.1-0.1,0.2-0.6-0.9-1.3c-1.2-0.8-2.4-2.2-3.6-3.7l-0.4-0.4c-1.1-1.3-2-2.1-2.2-2.3c-0.2,0.1-0.7,0.2-1.7,0.2
			c-0.5,0-1-0.1-1.4-0.1c0,0-0.1,0-0.1,0c0,0,0,0,0,0c0.1,0.1,0.2,0.2,0.4,0.3c1,0.7,2.5,1.8,2.6,2.8C97.6,15.5,97.7,16.8,97.7,17.2
			z"/>
	</g>
</g>
</svg>
