<?xml version="1.0" encoding="utf-8"?>
<!-- Generator: Adobe Illustrator 25.4.1, SVG Export Plug-In . SVG Version: 6.00 Build 0)  -->
<svg version="1.1" id="Layer_1" xmlns="http://www.w3.org/2000/svg" xmlns:xlink="http://www.w3.org/1999/xlink" x="0px" y="0px"
	 viewBox="0 0 1035.3 80" style="enable-background:new 0 0 1035.3 80;" xml:space="preserve">
<style type="text/css">
	.st0{fill:#860002;}
	.st1{fill:#DD0619;}
</style>
<g>
	<g>
		<polygon class="st0" points="1035.3,0 853.9,0 844.4,0 804,0 804,9.5 844.4,9.5 844.4,80 853.9,80 853.9,9.5 1035.3,9.5 		"/>
		<polygon class="st0" points="712.6,0 712.6,9.5 712.6,33.5 712.6,43 712.6,70.5 712.6,80 722.1,80 788.8,80 788.8,70.5 
			722.1,70.5 722.1,43 763.7,43 763.7,33.5 722.1,33.5 722.1,9.5 788.8,9.5 788.8,0 722.1,0 		"/>
		<path class="st0" d="M657.1,70.5h-50.7V44.8h-9.5v25.7v1.3c0,4.5,3.7,8.2,8.2,8.2h1.3h50.7c5.3,0,9.5-4.3,9.5-9.5V0h-9.5V70.5z"/>
	</g>
	<g>
		<rect x="546.4" class="st1" width="9.5" height="80"/>
		<polygon class="st1" points="323.3,0 323.3,9.5 323.3,38.2 323.3,47.8 323.3,80 332.8,80 332.8,47.8 371.1,47.8 371.1,38.2 
			332.8,38.2 332.8,9.5 399.4,9.5 399.4,0 332.8,0 		"/>
		<path class="st1" d="M487.5,48.6c0,0,16.8,0.1,16.8-12.6V14.4c0,0,0.8-14.4-16.8-14.4h-53.8h-9.5v9.5V39v9.5V80h9.5V48.6h28.1
			L493.4,80h18.8l-36.8-31.4H487.5z M433.8,9.5h53.8c0,0,7.3-0.9,7.3,4.9V36c0,0,0.6,3-7.3,3h-53.8V9.5z"/>
		<path class="st1" d="M232.9,0l-38.7,70.5H0V80h201l10.4-18.9h56.7L278.5,80h14.3L246.1,0H232.9z M216.7,51.5l23.1-42l23.1,42
			H216.7z"/>
	</g>
</g>
</svg>
