<?xml version="1.0" encoding="utf-8"?>
<!-- Generator: Adobe Illustrator 25.4.1, SVG Export Plug-In . SVG Version: 6.00 Build 0)  -->
<svg version="1.1" id="Layer_1" xmlns="http://www.w3.org/2000/svg" xmlns:xlink="http://www.w3.org/1999/xlink" x="0px" y="0px"
	 viewBox="0 0 257.25 80" style="enable-background:new 0 0 257.25 80;" xml:space="preserve">
<style type="text/css">
	.st0{fill:#00A1DF;}
	.st1{fill:#40B4E5;}
	.st2{fill:#004A97;}
	.st3{fill:#001689;}
	.st4{fill:#0082CA;}
	.st5{fill:#139BD7;}
</style>
<g id="Clip-9">
</g>
<g id="Clip-2">
</g>
<g>
	<path class="st0" d="M25.22,28.21H13.21v32.16c0,3.38-0.64,5.8-1.92,7.24C10,69.04,7.9,69.76,4.98,69.76
		c-0.32,0-0.63-0.03-0.94-0.04L0,79.51C1.78,79.84,3.74,80,5.89,80c3.8,0,6.94-0.5,9.43-1.5c2.49-1,4.46-2.36,5.93-4.08
		c1.47-1.72,2.49-3.73,3.08-6.04c0.59-2.31,0.88-4.77,0.88-7.38L25.22,28.21L25.22,28.21z"/>
	<path class="st1" d="M221.1,37.34c-1.34,0-2.66,0.07-3.96,0.19c-1.31,0.13-2.56,0.28-3.73,0.46c-0.62,0.09-1.22,0.2-1.79,0.3v0.01
		c-0.35,0.06-0.7,0.13-1.05,0.2c-0.87,0.18-1.63,0.4-2.25,0.65v9.47c0.95-0.24,3.13-1.25,8.71-1.25c0.42,0,0.86,0.01,1.32,0.02
		c0.72,0.02,1.58,0.06,2.58,0.19c1,0.13,1.76,0.27,2.27,0.42l0.23,0.07c1.07,0.3,1.92,0.74,2.52,1.36c1.18,1.18,1.77,1.96,1.77,3.91
		v0.96c-2.48-0.16-5.48-0.34-6.77-0.34c-2.21,0-4.34,0.22-6.39,0.65c-2.05,0.43-3.88,1.15-5.47,2.12c-1.59,0.97-2.86,2.28-3.81,3.93
		c-0.95,1.64-1.43,3.64-1.43,6c0,2.46,0.41,4.54,1.23,6.23c0.82,1.7,2,3.07,3.54,4.12c1.54,1.05,3.37,1.81,5.5,2.27
		c2.13,0.46,4.5,0.69,7.12,0.69c4.15,0,7.7-0.24,10.62-0.73c2.92-0.49,5.21-0.91,6.85-1.27V53.89c0-2.51-0.28-4.8-0.85-6.85
		c-0.57-2.05-1.53-3.8-2.89-5.23c-1.36-1.44-3.17-2.54-5.42-3.31C227.31,37.72,224.49,37.34,221.1,37.34 M222.02,71.13
		c-2.11,0-3.76-0.34-4.96-1.04c-1.21-0.69-1.81-1.93-1.81-3.73c0-0.92,0.2-1.69,0.62-2.31c0.41-0.61,0.97-1.1,1.69-1.46
		c0.42-0.21,2.28-0.55,4.75-0.55c1.62,0,3.5,0.15,5.41,0.57v8.22c-0.62,0.1-1.44,0.18-2.46,0.23
		C224.23,71.1,223.15,71.13,222.02,71.13"/>
	<path class="st1" d="M161.56,8.85c-1.36-0.09-2.09-0.21-2.8-0.21c-1.2,0-2.35,0.05-3.48,0.28c-1.12,0.24-2.12,0.63-2.99,1.16
		c-0.87,0.53-1.56,1.25-2.08,2.15c-0.52,0.9-0.78,1.99-0.78,3.28c0,1.35,0.22,2.48,0.67,3.41c0.45,0.93,1.09,1.68,1.94,2.25
		c0.84,0.58,1.85,0.99,3.01,1.24c1.16,0.25,2.28,0.38,3.71,0.38c2.27,0,2.78-0.14,4.38-0.4c1.6-0.27,2.85-0.5,3.75-0.69V9.56
		L161.56,8.85z M158.47,17.96c-1.15,0-2.06-0.19-2.71-0.57c-0.66-0.38-0.99-1.06-0.99-2.04c0-0.51,0.11-0.93,0.34-1.26
		c0.22-0.34,0.53-0.6,0.93-0.8c0.23-0.11,1.25-0.3,2.6-0.3c0.88,0,1.91,0.08,2.96,0.31v4.49c-0.34,0.06-0.79,0.1-1.35,0.13
		C159.67,17.95,159.08,17.96,158.47,17.96"/>
	<path class="st2" d="M97.45,38.43H65.28v9.55h17.24c-1.38,1.64-2.9,3.48-4.54,5.5c-1.65,2.03-3.3,4.12-4.97,6.27
		c-1.67,2.16-3.26,4.3-4.77,6.43c-1.51,2.13-2.81,4.12-3.89,5.97v6.77h33.48v-9.55H78.24c1.49-2.15,3.15-4.39,4.98-6.7
		c1.82-2.31,3.63-4.51,5.44-6.62c1.8-2.1,3.48-4.03,5.05-5.77c1.57-1.74,2.82-3.13,3.74-4.16V38.43z"/>
	<path class="st3" d="M117.82,37.35c-2.46,0-4.86,0.46-7.19,1.38c-2.34,0.92-4.4,2.28-6.2,4.08c-1.8,1.8-3.24,4.04-4.35,6.74
		c-1.1,2.69-1.66,5.84-1.66,9.43c0,2.98,0.42,5.75,1.27,8.31c0.85,2.57,2.15,4.78,3.93,6.66c1.77,1.87,4,3.35,6.7,4.43
		s5.86,1.62,9.51,1.62c1.43,0,2.87-0.08,4.31-0.23c1.43-0.15,2.78-0.35,4.04-0.58c1.26-0.23,2.4-0.5,3.43-0.81
		c1.03-0.31,3.11-0.99,4.62-1.9v-9.71c-4.01,1.57-5.99,2.15-8.66,2.8c-2.01,0.48-4.09,0.58-6.2,0.58c-3.28,0-5.9-0.69-7.85-2.08
		c-1.95-1.38-3.05-3.26-3.31-5.62h26.02c0.05-0.62,0.1-1.32,0.15-2.12c0.05-0.79,0.08-1.53,0.08-2.19c0-6.83-1.67-11.99-5-15.51
		C128.11,39.11,123.56,37.35,117.82,37.35 M110.2,54.59c0.15-0.97,0.39-1.94,0.73-2.89c0.33-0.95,0.81-1.78,1.42-2.5
		c0.61-0.72,1.38-1.3,2.31-1.73c0.93-0.43,2.03-0.65,3.31-0.65c1.33,0,2.45,0.23,3.35,0.69c0.9,0.46,1.64,1.05,2.23,1.77
		c0.59,0.72,1.03,1.54,1.31,2.46c0.28,0.93,0.45,1.87,0.5,2.85C125.36,54.59,110.2,54.59,110.2,54.59z"/>
	<path class="st4" d="M158.32,37.35c-2.46,0-4.87,0.46-7.2,1.38c-2.33,0.92-4.4,2.28-6.19,4.08c-1.8,1.8-3.24,4.04-4.35,6.74
		c-1.1,2.69-1.66,5.84-1.66,9.43c0,2.98,0.42,5.75,1.27,8.31c0.85,2.57,2.15,4.78,3.93,6.66c1.77,1.87,4,3.35,6.69,4.43
		c2.69,1.08,5.86,1.62,9.51,1.62c1.43,0,2.87-0.08,4.31-0.23s2.78-0.35,4.04-0.58c1.26-0.23,2.4-0.5,3.43-0.81
		c1.03-0.31,3.11-0.99,4.62-1.9v-9.71c-4.01,1.57-5.99,2.15-8.66,2.8c-2.01,0.48-4.09,0.58-6.2,0.58c-3.29,0-5.9-0.69-7.85-2.08
		c-1.95-1.38-3.05-3.26-3.31-5.62h26.02c0.05-0.62,0.1-1.32,0.15-2.12c0.05-0.79,0.08-1.53,0.08-2.19c0-6.83-1.67-11.99-5-15.51
		C168.6,39.11,164.06,37.35,158.32,37.35 M150.69,54.59c0.16-0.97,0.4-1.94,0.73-2.89c0.33-0.95,0.81-1.78,1.42-2.5
		c0.62-0.72,1.39-1.3,2.31-1.73c0.92-0.43,2.03-0.65,3.31-0.65c1.33,0,2.45,0.23,3.35,0.69c0.9,0.46,1.64,1.05,2.23,1.77
		c0.59,0.72,1.02,1.54,1.31,2.46c0.28,0.93,0.45,1.87,0.5,2.85C165.86,54.59,150.69,54.59,150.69,54.59z"/>
	<path class="st5" d="M196.1,37.58c-3.44,0-6.56,0.32-9.35,0.96c-2.8,0.64-5.22,1.32-7.28,2.04v38.33h11.47V47.97
		c0.51-0.16,1.27-0.29,2.27-0.42c1-0.13,1.86-0.19,2.58-0.19c0.11,0,0.21,0,0.32,0c4.53,0,8.68,0.98,9.69,1.23v-9.47
		c-0.62-0.26-1.36-0.47-2.23-0.65c-0.88-0.18-1.74-0.33-2.62-0.46c-0.87-0.13-1.74-0.23-2.62-0.31
		C197.46,37.62,196.72,37.58,196.1,37.58"/>
	<path class="st4" d="M44.26,37.34c-1.34,0-2.65,0.07-3.96,0.19c-1.31,0.13-2.56,0.28-3.73,0.46c-0.62,0.09-1.22,0.2-1.79,0.3v0.01
		c-0.35,0.06-0.7,0.13-1.05,0.2c-0.87,0.18-1.63,0.4-2.25,0.65v9.47c0.95-0.24,3.13-1.25,8.71-1.25c0.42,0,0.86,0.01,1.32,0.02
		c0.72,0.02,1.58,0.06,2.58,0.19c1,0.13,1.76,0.27,2.27,0.42l0.23,0.07c1.07,0.3,1.91,0.74,2.52,1.36c1.18,1.18,1.77,1.96,1.77,3.91
		v0.96c-2.48-0.16-5.48-0.34-6.77-0.34c-2.2,0-4.34,0.22-6.39,0.65c-2.05,0.43-3.88,1.15-5.47,2.12c-1.59,0.97-2.86,2.28-3.81,3.93
		c-0.95,1.64-1.43,3.64-1.43,6c0,2.46,0.41,4.54,1.23,6.23c0.82,1.7,2,3.07,3.54,4.12c1.54,1.05,3.37,1.81,5.5,2.27
		c2.13,0.46,4.5,0.69,7.12,0.69c4.15,0,7.7-0.24,10.62-0.73c2.92-0.49,5.21-0.91,6.85-1.27V53.89c0-2.51-0.28-4.8-0.85-6.85
		c-0.57-2.05-1.53-3.8-2.89-5.23c-1.36-1.44-3.17-2.54-5.42-3.31C50.47,37.72,47.65,37.34,44.26,37.34 M45.19,71.13
		c-2.11,0-3.76-0.34-4.96-1.04c-1.21-0.69-1.81-1.93-1.81-3.73c0-0.92,0.2-1.69,0.62-2.31c0.41-0.61,0.97-1.1,1.69-1.46
		c0.42-0.21,2.28-0.55,4.75-0.55c1.62,0,3.5,0.15,5.41,0.57v8.22c-0.61,0.1-1.44,0.18-2.46,0.23C47.39,71.1,46.32,71.13,45.19,71.13
		"/>
	
		<rect x="244.07" y="65.28" transform="matrix(0.7072 -0.707 0.707 0.7072 22.981 197.2907)" class="st4" width="11.25" height="11.25"/>
	<path class="st2" d="M210.41,25.99c-1.4,0-2.55,1.15-2.55,2.55s1.16,2.56,2.55,2.56c1.4,0,2.55-1.16,2.55-2.56
		C212.96,27.14,211.81,25.99,210.41,25.99"/>
	<path class="st1" d="M163.4,6.17c1.4,0,2.55-1.15,2.55-2.55c0-1.4-1.15-2.56-2.55-2.56s-2.55,1.15-2.55,2.56
		C160.85,5.02,162,6.17,163.4,6.17"/>
	<path class="st1" d="M157.91,6.17c1.4,0,2.55-1.15,2.55-2.55c0-1.4-1.15-2.56-2.55-2.56s-2.55,1.15-2.55,2.56
		C155.36,5.02,156.51,6.17,157.91,6.17"/>
	<path class="st4" d="M180.51,25.99c-1.4,0-2.55,1.15-2.55,2.55s1.16,2.56,2.55,2.56c1.4,0,2.55-1.16,2.55-2.56
		S181.91,25.99,180.51,25.99"/>
	<path class="st4" d="M186,25.99c-1.4,0-2.55,1.15-2.55,2.55s1.16,2.56,2.55,2.56c1.4,0,2.55-1.16,2.55-2.56S187.4,25.99,186,25.99"
		/>
	<path class="st2" d="M228.97,0h-5.32v12.07v3.27c0,2.66-0.96,4.17-3.65,4.17h-0.06v-3.87c0-4.94-2.55-7.36-7.8-7.36h-1.26
		c-1.84,0-3.93,0.14-5.69,0.83v4.2c0.44-0.11,1.4-0.55,3.87-0.55h1.84c1.65,0,4.17,0.44,4.17,2.64v4.12c0-0.03-10.11,0-10.11,0
		h-0.77c-0.9,0-1.76-0.08-2.66-0.16l-0.03,4.26c1,0.08,2.03,0.13,3.08,0.13h0.38h0.28h11.86h2.83h0.44c5.52,0,8.59-2.88,8.59-8.43
		v-3.24C228.97,12.07,228.97,0,228.97,0z"/>
	<rect x="233.26" y="0" class="st1" width="5.32" height="23.74"/>
	<path class="st4" d="M180.48,23.74H177c-0.38,4.84-3.42,7.36-8.57,7.36h-0.66v-4.53h0.27c2.69,0,3.65-1.51,3.65-4.18v-2.86v-0.58
		v-0.69v-1.1V8.53h5.31v10.98h3.23h0.64h0.75c2.69,0,3.65-1.51,3.65-4.17v-3.27V8.51h5.32v3.56v3.24c0,5.55-3.07,8.43-8.59,8.43
		L180.48,23.74z"/>
	
		<rect x="139.99" y="17.12" transform="matrix(0.7072 -0.707 0.707 0.7072 27.7912 106.631)" class="st4" width="5.29" height="5.29"/>
	<path class="st3" d="M198.68,6.17c1.4,0,2.55-1.15,2.55-2.55c0-1.4-1.15-2.56-2.55-2.56c-1.4,0-2.55,1.15-2.55,2.56
		C196.13,5.02,197.29,6.17,198.68,6.17"/>
	<path class="st3" d="M196.25,8.53v8.65v1.1v0.69v0.58v2.86c0,2.67-0.96,4.18-3.65,4.18h-0.27v4.53h0.66c5.2,0,8.25-2.56,8.58-7.48
		V8.53H196.25z"/>
</g>
</svg>
