<?xml version="1.0" encoding="utf-8"?>
<!-- Generator: Adobe Illustrator 25.4.1, SVG Export Plug-In . SVG Version: 6.00 Build 0)  -->
<svg version="1.1" id="Layer_1" xmlns="http://www.w3.org/2000/svg" xmlns:xlink="http://www.w3.org/1999/xlink" x="0px" y="0px"
	 viewBox="0 0 90.97 80" style="enable-background:new 0 0 90.97 80;" xml:space="preserve">
<style type="text/css">
	.st0{fill:#153E69;}
	.st1{fill:#9E202D;}
</style>
<g id="Clip-9">
</g>
<g id="Clip-2">
</g>
<path class="st0" d="M53.3,37.14c0.24-0.85,0.41-1.73,0.49-2.61c1.47-6.03,5.54-9.62,11.25-11.41c3.76-1.06,7.69-1.39,11.57-0.98
	c3.94,0.33,7.83,1.15,11.57,2.44c0.47,0.09,0.78,0.54,0.69,1.01c-0.01,0.04-0.02,0.09-0.04,0.13l-1.47,9.78
	c-1.47-0.33-2.93-0.81-4.4-1.14c-3.82-1.05-7.8-1.38-11.73-0.98c-1.31,0.13-2.59,0.52-3.75,1.14c-2.12,1.28-2.8,4.03-1.52,6.15
	c0.27,0.45,0.62,0.85,1.03,1.18c1.45,1.04,3.04,1.86,4.73,2.44c3.39,1.03,6.71,2.29,9.94,3.75c2.84,1.25,5.28,3.29,7.01,5.87
	c1.54,2.37,2.33,5.16,2.28,7.99c0.44,8.33-5.33,15.71-13.53,17.28c-1.44,0.38-2.91,0.59-4.4,0.65c-0.16,0-0.16,0-0.33,0.16h-5.22
	c-0.86-0.19-1.73-0.3-2.61-0.33c-3.92-0.49-7.72-1.65-11.25-3.42c-0.33-0.65-0.49-0.81-0.33-1.47c0.49-3.26,0.98-6.68,1.47-9.94
	c0.33,0,0.65,0.33,0.98,0.49c4.83,2.49,10.21,3.72,15.65,3.59c1.52-0.01,3.02-0.34,4.4-0.98c2.58-1.09,3.79-4.06,2.71-6.64
	c-0.08-0.18-0.16-0.36-0.26-0.53c-0.71-0.93-1.6-1.7-2.61-2.28c-2.32-1.14-4.71-2.13-7.17-2.93c-3.08-1.02-6.03-2.39-8.8-4.07
	c-1.65-1.16-3.08-2.59-4.24-4.24c-0.59-1.1-1.08-2.24-1.47-3.42c-0.54-1.85-0.76-3.78-0.65-5.7C53.46,37.63,53.46,37.3,53.3,37.14z"
	/>
<path class="st1" d="M53.06,0c0,0.17,0.17,0.17,0.34,0.17c2.53,0.73,4.07,3.3,3.53,5.88c-0.5,3.53-0.84,6.88-1.18,10.41
	c-0.5,3.86-0.84,7.56-1.34,11.42c-0.34,3.19-0.67,6.55-1.01,9.74c-0.5,3.53-1.01,7.22-1.51,10.75c-0.44,3.87-1.23,7.69-2.35,11.42
	c-1.34,4.86-3.68,9.38-6.88,13.27c-4.09,4.87-10.29,7.44-16.62,6.88c-6.11-0.23-12.01-2.28-16.96-5.88
	c-4.71-3.42-7.9-8.54-8.9-14.27c-0.31-1.23-0.19-2.54,0.34-3.69c1.16-1.86,3.45-2.7,5.54-2.01c1.22,0.4,2.12,1.43,2.35,2.69
	c0.34,1.01,0.5,2.01,0.84,3.02c1.48,4.47,4.96,8.01,9.4,9.57c2.96,1.27,6.21,1.74,9.4,1.34c4-0.43,7.55-2.74,9.57-6.21
	c2.08-3.32,3.45-7.04,4.03-10.91c1.01-6.21,1.68-12.43,2.35-18.64c0.34-3.86,0.84-7.72,1.34-11.75c0.5-4.37,0.84-8.9,1.18-13.27
	c0.17-1.68,0.34-3.53,0.5-5.21c0.18-2.24,1.83-4.09,4.03-4.53c0.09,0,0.17-0.08,0.17-0.17c0,0,0,0,0,0H53.06z"/>
</svg>
