<?xml version="1.0" encoding="utf-8"?>
<!-- Generator: Adobe Illustrator 25.4.1, SVG Export Plug-In . SVG Version: 6.00 Build 0)  -->
<svg version="1.1" id="Layer_1" xmlns="http://www.w3.org/2000/svg" xmlns:xlink="http://www.w3.org/1999/xlink" x="0px" y="0px"
	 viewBox="0 0 339.21 80" style="enable-background:new 0 0 339.21 80;" xml:space="preserve">
<style type="text/css">
	.st0{fill:#153E69;}
	.st1{fill:#9E202D;}
</style>
<g id="Clip-9">
</g>
<g id="Clip-2">
</g>
<g id="IRWs97">
	<path class="st0" d="M102.06,40.53c0.22-0.79,0.37-1.59,0.45-2.4c1.35-5.55,5.1-8.86,10.36-10.51c3.46-0.97,7.08-1.28,10.66-0.9
		c3.63,0.3,7.21,1.06,10.66,2.25c0.43,0.08,0.72,0.5,0.63,0.93c-0.01,0.04-0.02,0.08-0.03,0.12l-1.35,9.01
		c-1.35-0.3-2.7-0.75-4.05-1.05c-3.52-0.97-7.18-1.27-10.81-0.9c-1.21,0.12-2.38,0.48-3.45,1.05c-1.95,1.18-2.58,3.71-1.4,5.67
		c0.25,0.42,0.57,0.78,0.95,1.09c1.34,0.95,2.8,1.71,4.35,2.25c3.12,0.95,6.18,2.11,9.16,3.45c2.62,1.15,4.86,3.03,6.45,5.4
		c1.42,2.19,2.15,4.75,2.1,7.35c0.41,7.67-4.91,14.47-12.46,15.91c-1.33,0.35-2.68,0.55-4.05,0.6c-0.15,0-0.15,0-0.3,0.15h-4.8
		c-0.79-0.17-1.59-0.27-2.4-0.3c-3.61-0.45-7.11-1.52-10.36-3.15c-0.3-0.6-0.45-0.75-0.3-1.35c0.45-3,0.9-6.15,1.35-9.16
		c0.3,0,0.6,0.3,0.9,0.45c4.45,2.29,9.41,3.42,14.41,3.3c1.4-0.01,2.78-0.32,4.05-0.9c2.38-1,3.49-3.74,2.49-6.11
		c-0.07-0.17-0.15-0.33-0.24-0.49c-0.65-0.85-1.47-1.57-2.4-2.1c-2.14-1.05-4.34-1.96-6.6-2.7c-2.83-0.94-5.55-2.2-8.11-3.75
		c-1.52-1.07-2.84-2.39-3.9-3.9c-0.54-1.01-0.99-2.06-1.35-3.15c-0.5-1.7-0.7-3.48-0.6-5.25C102.21,40.98,102.21,40.68,102.06,40.53
		z"/>
	<path class="st1" d="M47.43,0c0,0.15,0.15,0.15,0.3,0.15c2.26,0.66,3.64,2.95,3.15,5.25c-0.45,3.15-0.75,6.15-1.05,9.31
		c-0.45,3.45-0.75,6.75-1.2,10.21c-0.3,2.85-0.6,5.85-0.9,8.71c-0.45,3.15-0.9,6.45-1.35,9.61c-0.4,3.46-1.1,6.87-2.1,10.21
		c-1.19,4.34-3.29,8.38-6.15,11.86c-3.65,4.35-9.2,6.65-14.86,6.15c-5.46-0.21-10.74-2.04-15.16-5.25
		c-4.21-3.06-7.06-7.63-7.95-12.76c-0.27-1.1-0.17-2.27,0.3-3.3c1.04-1.67,3.08-2.41,4.95-1.8c1.09,0.36,1.89,1.28,2.1,2.4
		c0.3,0.9,0.45,1.8,0.75,2.7c1.32,4,4.43,7.16,8.41,8.56c2.65,1.14,5.55,1.55,8.41,1.2c3.57-0.38,6.75-2.45,8.56-5.55
		c1.86-2.97,3.08-6.29,3.6-9.76c0.9-5.55,1.5-11.11,2.1-16.66c0.3-3.45,0.75-6.9,1.2-10.51c0.45-3.9,0.75-7.95,1.05-11.86
		c0.15-1.5,0.3-3.15,0.45-4.65c0.16-2,1.63-3.66,3.6-4.05c0.08,0,0.15-0.07,0.15-0.15c0,0,0,0,0,0H47.43z"/>
	<path class="st0" d="M339.21,27.62c-0.6,2.55-1.35,5.25-1.95,7.8c-0.15,0.6-0.3,1.2-0.45,1.95c0,0.45-0.3,0.45-0.6,0.45H324.5
		c-0.6,0-0.75,0.15-0.75,0.6v39.32c0,0.75,0,0.75-0.75,0.75H312.8c-0.45,0-0.6-0.15-0.6-0.6V38.42c0-0.6-0.15-0.75-0.75-0.75h-11.56
		c-0.45,0-0.6-0.15-0.75-0.6c-0.75-3.15-1.5-6.15-2.25-9.31c-0.15-0.6,0-0.6,0.45-0.6h32.12C332.76,27.47,335.91,27.47,339.21,27.62
		z M186.42,46.98c-0.3,0.15-0.3,0.3-0.45,0.45c-3.75,10.21-8.11,20.41-12.01,30.62c-0.15,0.45-0.3,0.6-0.9,0.6h-6.6
		c-0.3,0-0.45-0.15-0.6-0.45c-3.6-9.16-7.2-18.31-10.81-27.32c-0.45-1.2-0.9-2.55-1.5-3.9c-0.11,0.34-0.16,0.69-0.15,1.05
		c0.15,10.06,0,19.96,0,30.02c0,0.45-0.15,0.45-0.45,0.45h-9.16c-0.45,0-0.45-0.15-0.45-0.45V27.92c0-0.45,0.15-0.6,0.6-0.6h11.56
		c0.45,0,0.6,0.15,0.75,0.6c4.5,11.41,9.16,22.66,13.36,34.07c0,0.15,0,0.45,0.3,0.45s0.15-0.3,0.15-0.45
		c3.9-10.36,8.26-20.71,12.31-31.07c0.47-1.02,0.87-2.08,1.2-3.15c0.15-0.3,0.3-0.45,0.6-0.45h11.71c0.45,0,0.6,0.15,0.6,0.6v50.13
		c0.03,0.22-0.13,0.42-0.35,0.45c-0.03,0-0.06,0-0.1,0h-9.61c-0.45,0-0.45-0.15-0.45-0.45V49.98c-0.02-0.85,0.03-1.71,0.15-2.55
		C186.42,47.43,186.42,47.28,186.42,46.98L186.42,46.98z M285.78,57.34c3.9,7.05,7.95,14.26,11.86,21.31c-0.15,0.15-0.45,0-0.6,0
		h-12.31c-0.33,0.05-0.64-0.14-0.75-0.45c-2.85-6-5.7-12.16-8.56-18.16c-0.11-0.31-0.42-0.5-0.75-0.45h-6.15
		c-0.45,0-0.6,0.15-0.6,0.6v17.86c0,0.45-0.15,0.6-0.6,0.6h-10.36c-0.45,0-0.6-0.15-0.6-0.6V28.07c0-0.6,0.15-0.75,0.6-0.75h19.81
		c3.03-0.05,6.04,0.51,8.86,1.65c4.14,1.56,7.2,5.12,8.11,9.46c0.8,3.42,0.7,6.99-0.3,10.36C292.76,52.88,289.78,56.21,285.78,57.34
		z M268.07,43.98v6.45c0,0.45,0.15,0.45,0.45,0.45h3.6c1.75,0.1,3.51,0.05,5.25-0.15c2.27-0.05,4.21-1.67,4.65-3.9
		c0.45-1.93,0.45-3.93,0-5.85c-0.27-1.81-1.65-3.26-3.45-3.6c-0.84-0.17-1.69-0.27-2.55-0.3h-7.35c-0.45,0-0.6,0.15-0.6,0.45
		L268.07,43.98L268.07,43.98z M251.26,78.65h-12.31c-0.45,0-0.6-0.15-0.75-0.6c-0.9-3-1.65-6-2.55-8.86c-0.15-0.45-0.3-0.6-0.75-0.6
		h-17.41c-0.45,0-0.6,0.15-0.75,0.6c-0.9,3-1.65,6-2.55,9.01c-0.15,0.3-0.15,0.45-0.45,0.45h-11.86c0.45-1.2,0.75-2.4,1.2-3.6
		l13.96-40.53l2.25-6.75c0.15-0.3,0.3-0.45,0.6-0.45h12.91c0.3,0,0.45,0,0.6,0.3c2.4,7.05,4.95,14.11,7.35,21.16
		c3.45,9.76,6.75,19.36,10.21,29.12C251.26,78.35,251.26,78.5,251.26,78.65z M226.64,36.17h-0.15c-1.95,7.65-4.35,15.16-6.45,22.96
		h11.26c0.6,0,1.35,0.15,1.65-0.15c0.3-0.3-0.15-1.05-0.3-1.65c-1.65-5.85-3.3-11.71-4.8-17.56
		C227.31,38.62,226.91,37.41,226.64,36.17z"/>
	<path class="st1" d="M102.06,40.53c0.11,0.23,0.16,0.49,0.15,0.75c-0.1,1.77,0.11,3.55,0.6,5.25c0.36,1.09,0.81,2.14,1.35,3.15
		c-1.81,3.48-4.5,6.43-7.8,8.56c-2.71,1.75-5.97,2.45-9.16,1.95c-3.15-0.49-5.85-2.51-7.2-5.4c-0.45-0.9-0.75-1.8-1.2-2.7
		c-0.9,0.9-1.8,1.65-2.7,2.4c-2.62,2.32-5.76,3.97-9.16,4.8c-5.86,1.48-11.86-1.79-13.81-7.5c-0.49-1.31-0.84-2.67-1.05-4.05
		c0-0.3-0.15-0.45-0.45-0.6c-1.49-0.94-1.93-2.9-1-4.39c0.32-0.5,0.77-0.91,1.3-1.17c0.4-0.11,0.65-0.49,0.6-0.9
		c0.75-3.58,2.52-6.87,5.1-9.46c1.99-2.11,4.76-3.3,7.65-3.3c3.24-0.12,6.01,2.32,6.3,5.55c0.42,3.88-1.03,7.72-3.9,10.36
		c-2.27,2.41-5.28,3.99-8.56,4.5c-0.3,0-0.3,0.15-0.3,0.45c0.9,2.4,2.4,4.2,5.25,4.35c3.2,0.22,6.33-0.99,8.56-3.3
		c1.78-1.59,3.35-3.4,4.65-5.4c0.15-0.15,0.15-0.3,0.15-0.6c0.03-3.78,0.43-7.55,1.2-11.26c0.45-3,1.05-6,1.65-9.01
		c0.15-0.45,0-0.6-0.45-0.6c-3.6,0-7.2-0.15-10.81-0.15h-1.8c-1.66,0-3-1.34-3-3s1.34-3,3-3c3.6,0,7.35-0.15,10.96-0.15h3
		c0.22,0.03,0.42-0.13,0.45-0.35c0-0.03,0-0.06,0-0.1l1.8-7.65c0.43-1.69,2.01-2.83,3.75-2.7c1.67,0.16,2.99,1.48,3.15,3.15
		c0,1.41-0.15,2.82-0.45,4.2l-0.45,2.7c-0.15,0.45,0,0.75,0.6,0.6c4.5,0,9.01-0.15,13.51-0.15c0.99-0.03,1.96,0.17,2.85,0.6
		c0.99,0.53,1.57,1.58,1.5,2.7c-0.08,1.12-0.77,2.1-1.8,2.55c-1.17,0.55-2.46,0.81-3.75,0.75H89.16c-0.6,0-0.75,0.15-0.9,0.75
		C87.2,29.42,86,34.97,85.1,40.83c-0.45,3.33-0.14,6.71,0.9,9.91c0.17,0.27,0.27,0.58,0.3,0.9c0.57,1.76,2.46,2.72,4.22,2.15
		c0.05-0.01,0.09-0.03,0.13-0.05c1.88-0.46,3.57-1.51,4.8-3c2.14-2.32,3.91-4.95,5.25-7.8C101.31,42.03,101.61,41.28,102.06,40.53
		L102.06,40.53z M59.59,42.03c2.81-0.31,5.17-2.25,6-4.95c0.22-0.92,0.06-1.9-0.45-2.7c-0.22-0.44-0.74-0.64-1.2-0.45
		c-0.65,0.18-1.27,0.48-1.8,0.9c-1.89,1.67-3.11,3.96-3.45,6.45C58.54,42.03,58.54,42.18,59.59,42.03z"/>
</g>
</svg>
