<?xml version="1.0" encoding="utf-8"?>
<!-- Generator: Adobe Illustrator 25.4.1, SVG Export Plug-In . SVG Version: 6.00 Build 0)  -->
<svg version="1.1" xmlns="http://www.w3.org/2000/svg" xmlns:xlink="http://www.w3.org/1999/xlink" x="0px" y="0px"
	 viewBox="0 0 105.76 80" style="enable-background:new 0 0 105.76 80;" xml:space="preserve">
<style type="text/css">
	.st0{fill:#E50616;}
</style>
<g id="Layer_2">
</g>
<g id="Layer_1">
	<path class="st0" d="M0.51,79.77C0.39,80,0.23,80.07,0,79.92c0.09-0.13,0.18-0.25,0.27-0.38C0.35,79.62,0.43,79.7,0.51,79.77z"/>
	<path class="st0" d="M79.92,8.09C81.14,5.33,83.96,3.44,84.5,0c-0.97,0.49-1.69,0.87-2.41,1.22c-2.21,1.09-4.39,2.31-6.9,2.58
		C70.06,4.36,64.97,4.21,59.9,3.12c-2.4-0.52-4.84-1.1-7.32-0.35c-0.45,0.19-0.89,0.38-1.34,0.56c-1.04,0.04-1.6,0.8-2.19,1.49
		c-0.31,0.22-0.4,0.56-0.51,0.88c-0.43-0.02-0.5,0.37-0.57,0.62c-0.54,1.74-1.84,2.84-3.26,3.78c-0.8,0.53-0.67,0.88-0.08,1.39
		c0.68,0.6,1.61,0.95,1.98,1.93c-0.63,0.11-1.09-0.22-1.59-0.4c-2.41-0.87-4.69-2.07-7.16-2.75c-1.84-0.51-3.54-0.14-4.77,1.34
		c-1.23,1.47-1.32,3.2-0.55,4.94c0.81,1.84,2.42,2.39,4.22,1.52c0.3-0.15,0.54-0.51,1.17-0.41c-0.58,0.71-1.05,1.14-1.85,1.25
		c-2.1,0.3-2.62,1.23-1.78,3.14c0.29,0.65,0.69,1.25,1.07,1.87c0.4,0.66,1,0.93,1.8,0.86c-0.64-2.69-0.17-3.38,2.51-3.72
		c0.58-0.08,1.17-0.09,1.75-0.07c3.63,0.16,6.8,2.34,10.49,2.27c-4.3,2.78-8.45,1.92-12.57-0.48c0.89,2.74,2.95,3.81,5.34,4.12
		c8.45,1.1,15.6-1.9,21.96-7.2c0.16-0.14,0.35-0.3,0.04-0.7c-4.7,1.08-9.51,1.82-14.54,0.16c0.38-0.08,0.55-0.16,0.72-0.15
		c6.01,0.23,11.69-1.09,17.08-3.7c0.45-0.22,0.94-0.49,1.42-0.35c3.1,0.91,6.26,0.37,9.39,0.42c4.11,0.06,8.01-0.92,11.72-2.68
		c4.51-2.13,8.69-4.72,12.04-8.46c0.56-0.63,1.19-1.27,1.25-2.29C96.57,7.27,86.06,9.76,79.92,8.09z M57.62,12.59
		c-0.75-0.17-0.66-0.73-0.72-1.25c-0.26-2.03-0.99-2.92-2.56-3.36c-0.7-0.19-0.99-0.12-0.95,0.67c0.03,0.52,0.11,1.14-0.56,1.37
		c-0.48,0.15-0.85,0.82-1.44,0.41c-0.68-0.48-1.21-1.09-0.95-2.04c0.46-0.33,0.92-0.67,1.37-1c0.26-0.06,0.51-0.12,0.77-0.18
		c0.36-0.04,0.72-0.06,1.07-0.06c4.37,0,7.23,3,10.26,5.73C61.78,13.07,59.69,13.05,57.62,12.59z"/>
	<path class="st0" d="M100.27,10.24c-1.06,0.34-1.99,0.87-2.91,1.42c-4.15,2.49-8.49,4.46-13.33,5.22
		c-3.27,0.51-6.55,0.33-9.83,0.35c-0.69,0-1.14,0.14-1.5,0.82c-2.6,4.94-6.11,9.16-10.33,12.81c-0.79,0.69-1.64,1.36-2.21,2.49
		c6.43-0.82,12.5-2.31,18.38-4.61c3.8-1.48,6.96-4.09,10.58-5.87c0.42-0.2,0.83-0.53,1-1.03c0.05-0.07,0.1-0.14,0.15-0.21
		c-0.1,0.01-0.21,0.03-0.31,0.04c-2.32,0.71-4.47,2.05-6.99,2.02c2.77-1.32,5.7-2.26,8.15-4.19c-2.41,0.04-4.69,0.87-7.06,0.91
		C94.04,16.04,99.1,12.89,100.27,10.24z"/>
	<path class="st0" d="M91.03,41.45C79.51,55.23,65.02,60.18,47.65,62.35v-0.01c-5.67,1.01-11.34,2.02-17.01,3.03
		c-0.03-0.11-0.05-0.22-0.08-0.32c19.57-9.88,42.37-11.96,60.84-24.89C91.57,40.74,91.33,41.19,91.03,41.45z"/>
	<path class="st0" d="M64.13,60.71c-13.31,4.18-28,3.79-40.11,11.35c13.61-1.49,27.28-2.26,39.65-8.95
		c-0.86-0.37-1.66,0.34-2.72-0.05c1.65-0.82,3.09-1.54,4.63-2.3C64.97,60.49,64.55,60.6,64.13,60.71z"/>
	<path class="st0" d="M99.46,29.39C93,33.88,85.65,36.55,78.57,39.83c2.89-0.13,5.62-1.19,8.46-1.62c0.04,0.1,0.09,0.21,0.13,0.31
		c-2.41,1.19-4.81,2.38-7.56,3.74c1.98,0.16,3.47-0.48,5.2-0.79c-0.99,1.07-2.22,1.27-3.26,1.8c-0.94,0.47-2.29,0.41-2.41,1.96
		c-0.02,0.21-0.66,0.39-1.02,0.56c-8.28,3.67-16.95,6.16-25.73,8.28c-3.18,0.77-6.27,1.91-9.52,2.46c-1.22,0.21-2.17,1.31-3.53,1.07
		c-0.26,0.11-0.53,0.22-0.79,0.33c-0.87,0.67-1.93,0.81-2.94,1.09c-0.38,0.15-0.75,0.29-1.13,0.44c-1.24,0.43-2.38,1.18-3.75,1.22
		c-0.17,0.09-0.34,0.17-0.51,0.26c-0.61,0.62-1.39,0.83-2.21,0.95c-0.28,0.17-0.56,0.34-0.84,0.51c-8.83,3.73-16.4,9.43-23.81,15.36
		c-0.91,0.72-1.79,1.5-2.84,2.02c-0.08-0.08-0.16-0.15-0.24-0.22c3.24-5.7,7.49-10.6,12.04-15.28c1.14-1.17,2.38-2.26,3.58-3.38
		c0.14-0.35,0.49-0.42,0.78-0.56c0.05-0.48,0.35-0.71,0.78-0.82c0.87-1.03,1.78-2.03,3.02-2.64c1.97-2.17,4.42-3.76,6.68-5.59
		c9.41-7.62,20.4-11.86,31.96-14.93c10.5-2.79,21.15-5.03,31.5-8.35c4.7-1.51,9.32-3.24,13.98-4.88c0.29-0.1,0.57-0.28,1.18-0.11
		c-4.67,3.31-9.71,5.53-14.68,7.84c-4.94,2.3-9.92,4.52-14.85,6.87C84.02,35.06,91.5,31.58,99.46,29.39z"/>
	<path class="st0" d="M59.7,27.54c-2.21,1.44-4.82,1.94-7.13,3.11c-0.54,0.28-0.89,0.95-1.64,0.8c-0.26,0.72-0.92,0.93-1.54,1.19
		c-0.26,0.12-0.51,0.25-0.77,0.38c-0.13,0.24-0.32,0.39-0.6,0.42c-0.37,0.17-0.74,0.34-1.12,0.51c-0.34,0.43-0.86,0.53-1.34,0.69
		c-1.74,0.61-3.43,0.84-4.88-0.66c-0.94-0.35-1.67-1.02-2.41-1.64c-0.67-0.56-0.31-1.39-0.2-2.13c0.01-0.19,0.02-0.39,0.03-0.59
		c-0.05-0.3-0.12-0.6-0.15-0.9c-0.06-0.63,0.21-0.89,0.74-0.48c0.88,0.67,1.8,1.31,2.43,2.25c0.21,0.08,0.43,0.15,0.64,0.23
		c1.07,0.28,2.16,0.18,3.25,0.11c0.26-0.13,0.53-0.26,0.79-0.4c0.34-0.18,0.57-0.65,1.08-0.43c0.46-0.19,0.91-0.39,1.37-0.58
		C51.91,27.86,55.74,27.39,59.7,27.54z"/>
</g>
</svg>
