<?xml version="1.0" encoding="utf-8"?>
<!-- Generator: Adobe Illustrator 25.4.1, SVG Export Plug-In . SVG Version: 6.00 Build 0)  -->
<svg version="1.1" xmlns="http://www.w3.org/2000/svg" xmlns:xlink="http://www.w3.org/1999/xlink" x="0px" y="0px"
	 viewBox="0 0 276.6 80" style="enable-background:new 0 0 276.6 80;" xml:space="preserve">
<style type="text/css">
	.st0{fill:#E50616;}
</style>
<g id="Layer_2">
</g>
<g id="Layer_1">
	<g>
		<path class="st0" d="M0.51,79.77C0.39,80,0.23,80.07,0,79.92c0.09-0.13,0.18-0.25,0.27-0.38C0.35,79.62,0.43,79.7,0.51,79.77z"/>
		<path class="st0" d="M79.92,8.09C81.14,5.33,83.96,3.44,84.5,0c-0.97,0.49-1.69,0.87-2.41,1.22c-2.21,1.09-4.39,2.31-6.9,2.58
			C70.06,4.36,64.97,4.21,59.9,3.12c-2.4-0.52-4.84-1.1-7.32-0.35c-0.45,0.19-0.89,0.38-1.34,0.56c-1.04,0.04-1.6,0.8-2.19,1.49
			c-0.31,0.22-0.4,0.56-0.51,0.88c-0.43-0.02-0.5,0.37-0.57,0.62c-0.54,1.74-1.84,2.84-3.26,3.78c-0.8,0.53-0.67,0.88-0.08,1.39
			c0.68,0.6,1.61,0.95,1.98,1.93c-0.63,0.11-1.09-0.22-1.59-0.4c-2.41-0.87-4.69-2.07-7.16-2.75c-1.84-0.51-3.54-0.14-4.77,1.34
			c-1.23,1.47-1.32,3.2-0.55,4.94c0.81,1.84,2.42,2.39,4.22,1.52c0.3-0.15,0.54-0.51,1.17-0.41c-0.58,0.71-1.05,1.14-1.85,1.25
			c-2.1,0.3-2.62,1.23-1.78,3.14c0.29,0.65,0.69,1.25,1.07,1.87c0.4,0.66,1,0.93,1.8,0.86c-0.64-2.69-0.17-3.38,2.51-3.72
			c0.58-0.08,1.17-0.09,1.75-0.07c3.63,0.16,6.8,2.34,10.49,2.27c-4.3,2.78-8.45,1.92-12.57-0.48c0.89,2.74,2.95,3.81,5.34,4.12
			c8.45,1.1,15.6-1.9,21.96-7.2c0.16-0.14,0.35-0.3,0.04-0.7c-4.7,1.08-9.51,1.82-14.54,0.16c0.38-0.08,0.55-0.16,0.72-0.15
			c6.01,0.23,11.69-1.09,17.08-3.7c0.45-0.22,0.94-0.49,1.42-0.35c3.1,0.91,6.26,0.37,9.39,0.42c4.11,0.06,8.01-0.92,11.72-2.68
			c4.51-2.13,8.69-4.72,12.04-8.46c0.56-0.63,1.19-1.27,1.25-2.29C96.57,7.27,86.06,9.76,79.92,8.09z M57.62,12.59
			c-0.75-0.17-0.66-0.73-0.72-1.25c-0.26-2.03-0.99-2.92-2.56-3.36c-0.7-0.19-0.99-0.12-0.95,0.67c0.03,0.52,0.11,1.14-0.56,1.37
			c-0.48,0.15-0.85,0.82-1.44,0.41c-0.68-0.48-1.21-1.09-0.95-2.04c0.46-0.33,0.92-0.67,1.37-1c0.26-0.06,0.51-0.12,0.77-0.18
			c0.36-0.04,0.72-0.06,1.07-0.06c4.37,0,7.23,3,10.26,5.73C61.78,13.07,59.69,13.05,57.62,12.59z"/>
		<path class="st0" d="M160.65,12.61c-1.39-0.08-2.79,0-4.18-0.04c-0.62-0.02-1.3,0.21-1.98-0.28c0.75-0.66,1.44-1.24,2.09-1.85
			c0.19-0.18,0.61-0.29,0.33-0.73c-0.57-0.92-1.85-1.07-2.61-0.31c-0.85,0.87-1.71,1.72-2.56,2.58c-0.32,0.32-0.63,0.61-1.15,0.6
			c-1.17-0.02-2.34,0-3.51-0.02c-0.24-0.01-0.71,0.16-0.57-0.44c0.18-0.78-0.31-1.38-0.61-2.01c-0.83-1.75-0.81-1.67-2.48-0.8
			c-1.31,0.68-0.3,1.38-0.09,1.98c0.34,0.99,0.25,1.35-0.91,1.31c-1.98-0.08-3.96-0.02-5.94-0.02c-1.31-0.01-1.2,1.16-1.3,1.84
			c-0.13,0.9,0.79,0.4,1.18,0.41c3.18,0.05,6.36,0.03,9.57,0.03c-0.56,2.28-0.74,2.43-2.83,2.43c-1.58,0-3.15,0.07-4.72-0.02
			c-0.96-0.06-1.32,0.32-1.61,1.17c-1.09,3.23-2.29,6.41-3.4,9.63c-0.45,1.31-0.7,2.04-0.79,2.4c0,0,0,0,0,0
			c-0.55,1.52-1.21,3.03-1.4,4.68c1.11,0.12,2.16,0.29,2.58-1.06c0.12-0.39,0.46-0.35,0.77-0.36c1.17-0.03,2.33-0.11,3.5-0.1
			c3.09,0.01,6.17,0.12,9.26,0.08c1.74-0.02,1.74-0.11,1.44,1.5c2.13,0.33,2.24,0.26,2.92-1.66c1.74-4.94,3.48-9.88,5.21-14.82
			c0.5-1.42,0.5-1.43-1.05-1.43h-8.22c1.03-2.43,1.03-2.43,3.35-2.43h3.24c2.11,0,4.23-0.02,6.34,0.01
			c1.32,0.02,1.21-1.15,1.32-1.82C162,12.15,161.06,12.64,160.65,12.61z M150.6,29.56c-0.09,0.81-0.09,2.01-1.1,1.98
			c-4.87-0.14-9.75,0.23-14.61-0.09c-0.04,0-0.07-0.04-0.1-0.06c-0.1-0.5,0.13-0.51,0.21-1.32c0,0,0.11-0.41,0.11-0.42
			c0.63-1.03,1.43-0.7,2.47-0.69c4,0.03,8,0,12,0.03C149.96,28.98,150.7,28.67,150.6,29.56z M152.19,24.7
			c-0.13,0.77,0.03,2.05-1.38,2.08c-0.94,0.02-1.89,0-2.83,0c-3.37,0-6.74,0.02-10.12-0.03c-0.43-0.01-1.44,0.5-1.27-0.5
			c0.13-0.76,0-2.03,1.45-2.02c2.25,0.02,4.5,0.01,6.74,0.01c2.07,0,4.14-0.03,6.2,0.02C151.4,24.28,152.33,23.85,152.19,24.7z
			 M152.61,19.59c0.43,0.01,1.17-0.42,1.28,0.44c0.12,0.83-0.76,2.05-1.41,2.06c-1.44,0.02-2.88,0.01-4.32,0.01h-9.98
			c0.3-2.41,0.42-2.53,2.55-2.53C144.69,19.56,148.65,19.55,152.61,19.59z"/>
		<path class="st0" d="M183.67,32.25c-1.05,1.19-1.39,2.04,0.13,3.12c2.29-2.19,3.88-4.82,5.15-7.66c0.89-1.99,0.89-1.97,3.02-1.88
			c0.68,0.03,0.9,0.18,0.63,0.86c-0.36,0.92-0.74,1.84-0.98,2.79c-0.53,2.19-1.38,3.72-4.13,3.07c-0.99-0.23-0.54,0.98-0.79,1.51
			c-0.15,0.32-0.27,0.76,0.32,0.78c1.56,0.06,3.2,0.42,4.55-0.66c0.62-0.5,0.97-0.32,1.23,0.21c0.71,1.44,1.42,0.92,2.3,0.14
			c3.36-2.99,5.32-6.83,6.79-10.98c1-2.83,1.02-2.8,4.02-2.7c0.88,0.03,0.97,0.3,0.69,1.04c-0.74,1.97-1.42,3.96-2.12,5.95
			c-0.5,1.44-1.07,2.86-1.45,4.33c-0.41,1.6,0.26,2.34,1.91,2.48c2.02,0.17,3.52-0.6,4.45-2.38c0.73-1.39,1.33-2.84,2.04-4.24
			c0.29-0.57,0.06-0.75-0.41-1.01c-0.92-0.52-1.6-0.7-1.9,0.65c-0.15,0.65-0.49,1.25-0.78,1.86c-0.37,0.77-0.74,1.53-1.16,2.27
			c-0.27,0.47-0.77,0.72-1.27,0.5c-0.59-0.26-0.23-0.77-0.1-1.16c0.33-1.02,0.72-2.03,1.07-3.04c1.09-3.11,2.19-6.23,3.32-9.47
			c-2.91,0-5.65,0.02-8.39-0.01c-0.69-0.01-0.8,0.44-0.96,0.9c-0.56,1.56-1.09,3.13-1.66,4.69c-1.2,3.29-2.83,6.3-5.57,8.59
			c-0.35,0.29-0.81,0.95-1.17,0.64c-0.6-0.51,0.32-0.73,0.49-1.12c0.07-0.16,0.2-0.31,0.26-0.47c2.42-6.84,4.84-13.69,7.27-20.53
			c0.24-0.68,0.03-0.86-0.65-0.85c-1.98,0.03-3.96,0.05-5.94-0.01c-0.86-0.03-1.26,0.23-1.54,1.07c-1.09,3.27-2.27,6.52-3.43,9.77
			C187.55,25.12,186.43,29.12,183.67,32.25z M193.36,15.52c0.24-0.67,0.51-1.34,0.7-2.03c0.17-0.6,0.46-0.84,1.13-0.86
			c2.39-0.06,2.39-0.09,1.59,2.19c-0.09,0.25-0.21,0.5-0.27,0.76c-0.24,1.11-0.73,1.83-1.84,1.47
			C192.82,17.05,192.82,17.05,193.36,15.52z M191.85,19.87c0.21-0.56,2.88-0.99,3.19-0.53c0.06,0.09,0.07,0.27,0.03,0.38
			c-0.43,1.22-0.86,2.43-1.3,3.64c-0.14,0.38-0.48,0.33-0.79,0.33c-0.76,0-1.51,0-2.48,0C190.98,22.29,191.4,21.07,191.85,19.87z"/>
		<path class="st0" d="M100.27,10.24c-1.06,0.34-1.99,0.87-2.91,1.42c-4.15,2.49-8.49,4.46-13.33,5.22
			c-3.27,0.51-6.55,0.33-9.83,0.35c-0.69,0-1.14,0.14-1.5,0.82c-2.6,4.94-6.11,9.16-10.33,12.81c-0.79,0.69-1.64,1.36-2.21,2.49
			c6.43-0.82,12.5-2.31,18.38-4.61c3.8-1.48,6.96-4.09,10.58-5.87c0.42-0.2,0.83-0.53,1-1.03c0.05-0.07,0.1-0.14,0.15-0.21
			c-0.1,0.01-0.21,0.03-0.31,0.04c-2.32,0.71-4.47,2.05-6.99,2.02c2.77-1.32,5.7-2.26,8.15-4.19c-2.41,0.04-4.69,0.87-7.06,0.91
			C94.04,16.04,99.1,12.89,100.27,10.24z"/>
		<path class="st0" d="M164.27,14.56c0.9,0.06,1.8,0.01,2.7,0.03c0.24,0,0.55-0.11,0.68,0.24c0.3,0.79-1.1,2.82-1.96,2.83
			c-1.35,0.01-2.7-0.01-4.05,0.01c-1.22,0.01-1.09,1.14-1.21,1.78c-0.14,0.72,0.7,0.39,1.1,0.4c1.64,0.04,3.28,0.02,4.91,0.02
			c-2.2,1.86-4.59,3.25-7.14,4.29c-1.41,0.58-0.81,1.24-0.52,2.03c0.42,1.15,0.97,0.17,1.46,0.08c0.19-0.04,0.37-0.28,0.62,0
			c-0.96,2.94-2.16,5.82-2.98,8.93c0.2-0.04,0.38-0.13,0.52-0.09c1.09,0.27,1.96,0.17,2.14-1.19c0.04-0.31,0.28-0.42,0.59-0.41
			c1.71,0.03,3.41,0.06,5.12,0.09c0.34,0.01,0.59,0.05,0.55,0.53c-0.03,0.35-0.76,1.05,0.28,1.03c0.66-0.01,1.55,0.49,1.94-0.63
			c1.4-4.01,2.83-8.01,4.32-12.21c-2.11,0-4.04,0-6.3,0c1.95-1.38,3.39-2.87,5.77-2.5c1.19,0.19,2.46,0.19,3.67-0.15
			c0,0.01,0.01,0.01,0.01,0.02l0,0l0,0l0,0c0.01,0,0.01-0.01,0.01-0.01c-0.09,1.26-0.69,2.38-1.09,3.54
			c-1.27,3.68-2.59,7.34-3.87,11.02c-0.11,0.33-0.5,0.74,0.01,1.04c0.73,0.43,2.06-0.11,2.36-0.95c0.43-1.17,0.84-2.35,1.27-3.56
			c0.71,0.71,2.39,0.95,4.07,0.66c4.58-0.79,7.18-6.81,4.67-10.94c-0.43-0.7-0.45-1.11,0.1-1.72c1.02-1.14,1.97-2.33,2.9-3.54
			c0.95-1.23,2.07-2.35,2.49-3.95c0.18-0.69,0.18-0.95-0.65-0.93c-2.65,0.05-5.3,0.04-7.95,0c-0.67-0.01-0.93,0.25-1.13,0.85
			c-0.73,2.16-1.5,4.31-2.3,6.45c-0.13,0.34,0.03,0.93-0.6,0.96c-0.01-0.01-0.01-0.01-0.01-0.02c-0.01,0.01-0.02,0.02-0.02,0.02
			c0.08-0.6,0.03-1.03-0.78-0.96c-0.77,0.07-1.54,0.01-2.59,0.01c1.61-1.5,2.96-2.73,4.28-3.99c1.1-1.05,1.02-1.4-0.38-1.99
			c-0.87-0.37-0.96,0.59-1.47,0.84c-0.33,0.16-0.58,1.04-0.97,0.37c-0.37-0.64-0.82-0.42-1.25-0.44c-0.82-0.05-1.65-0.01-2.61-0.01
			c0.44-1.3,0.8-2.38,1.17-3.47c-2.26-0.18-2.26-0.18-2.92,1.65c-0.11,0.29-0.24,0.59-0.3,0.89c-0.16,0.74-0.58,1-1.35,0.95
			c-1.08-0.07-2.16-0.07-3.24,0c-1.06,0.07-0.98,1.09-1.08,1.74C163.16,14.9,163.92,14.54,164.27,14.56z M168.3,30.03
			c-0.32,1.13-0.82,1.68-2.04,1.48c-0.53-0.09-1.08-0.01-1.62-0.01c-0.81,0-1.62-0.03-2.43,0.01c-0.68,0.03-0.69-0.24-0.56-0.81
			c0.29-1.25,0.86-1.92,2.3-1.74c1.15,0.15,2.34,0.06,3.5,0.02C168.27,28.95,168.57,29.07,168.3,30.03z M169.44,24.45
			c0.54,0,0.69,0.18,0.56,0.72c-0.29,1.16-0.7,2.09-2.2,1.78c-0.51-0.1-1.07-0.02-1.61-0.02c-0.58,0-1.18,0.08-1.74-0.03
			c-0.42-0.08-1.33,0.46-1.21-0.37c0.1-0.74,0.02-1.98,1.24-2.06C166.12,24.38,167.78,24.46,169.44,24.45z M179.41,18.79
			c0.63-1.77,1.27-3.54,1.89-5.31c0.15-0.43,0.24-0.86,0.86-0.84c1.24,0.03,2.48,0.01,4.11,0.01c-1.85,2.29-3.4,4.31-5.07,6.24
			c-0.66,0.77-0.8,1.27-0.14,2.14c1.21,1.61,1.7,3.41,0.93,5.43c-0.87,2.27-3.36,3.27-5.53,2.19c-0.7-0.35-0.24-0.79-0.13-1.12
			C177.34,24.61,178.38,21.7,179.41,18.79z M174.71,13.39c0.02,0.03,0.03,0.06,0.05,0.09l0,0
			C174.74,13.45,174.73,13.42,174.71,13.39z M169.45,16.75c0.7-2.23,0.7-2.23,4.31-2.13c-1.31,1.09-2.34,1.97-3.4,2.82
			c-0.28,0.23-0.66,0.38-0.98,0.14C169.03,17.32,169.37,17.02,169.45,16.75z"/>
		<path class="st0" d="M91.03,41.45C79.51,55.23,65.02,60.18,47.65,62.35v-0.01c-5.67,1.01-11.34,2.02-17.01,3.03
			c-0.03-0.11-0.05-0.22-0.08-0.32c19.57-9.88,42.37-11.96,60.84-24.89C91.57,40.74,91.33,41.19,91.03,41.45z"/>
		<path class="st0" d="M214.61,23.33c0.45,0.63,0.71,0.6,1.25,0.31c0.4-0.21,0.79-0.56,1.34-0.46c-0.55,1.8-0.55,1.8,1.27,1.8
			c1.76,0,3.51,0.06,5.26-0.02c1.11-0.05,1.16,0.32,0.82,1.22c-0.52,1.33-1.02,2.69-1.34,4.08c-0.24,1.07-0.85,1.45-1.79,1.36
			c-2.61-0.23-5.21-0.06-7.82-0.1c-2.16-0.03-2.16-0.01-2.79,2.43c0.54,0,0.99,0,1.44,0c4.31,0,8.61,0,12.92,0
			c3.25,0,6.51-0.03,9.76,0.01c0.79,0.01,0.9-0.49,0.98-1c0.05-0.33,0.4-0.99-0.15-1.01c-0.96-0.03-1.81-0.49-2.78-0.45
			c-2.22,0.08-4.45,0.1-6.67,0.13c-0.63,0.01-1-0.16-0.69-0.96c0.63-1.63,1.2-3.28,1.73-4.94c0.21-0.66,0.62-0.76,1.21-0.75
			c1.75,0.02,3.52-0.13,5.26,0.05c1.67,0.17,2.65-0.33,2.91-2.02c0.01-0.05,0.13-0.08,0.18-0.12c0.72,0.01,0.79,1.52,1.81,0.78
			c0.55-0.39,1.03-0.87,1.56-1.29c0.38-0.3,0.35-0.54,0.01-0.85c-2.2-2.06-4.48-4.04-6.97-5.74c-1.01-0.68-1.5,0.65-2.11,1.15
			c-0.67,0.55,0.23,0.79,0.51,1.04c1.6,1.41,3.27,2.75,4.9,4.48c-6.18,0-12.11,0-18.09,0c0.14-0.4,0.5-0.43,0.75-0.58
			c2.34-1.34,4.7-2.65,7.03-3.99c0.53-0.3,1.32-0.46,0.62-1.44c-0.57-0.79-0.94-1.06-1.87-0.45c-3.09,2.01-6.34,3.77-9.73,5.22
			C214.17,21.75,213.74,22.11,214.61,23.33z"/>
		<path class="st0" d="M64.13,60.71c-13.31,4.18-28,3.79-40.11,11.35c13.61-1.49,27.28-2.26,39.65-8.95
			c-0.86-0.37-1.66,0.34-2.72-0.05c1.65-0.82,3.09-1.54,4.63-2.3C64.97,60.49,64.55,60.6,64.13,60.71z"/>
		<path class="st0" d="M217.4,17.72c1.26,0.15,2.11-0.1,2.42-1.55c0.13-0.6,0.05-1.62,1.22-1.62c6.16,0.01,12.32,0.01,18.66,0.01
			c-0.18,0.53-0.3,0.86-0.42,1.19c-0.13,0.38-0.28,0.76-0.4,1.14c-0.07,0.24-0.29,0.5-0.04,0.74c0.39,0.38,2.41-0.04,2.6-0.56
			c0.5-1.35,0.94-2.71,1.44-4.05c0.27-0.74,0.04-0.93-0.71-0.92c-2.07,0.04-4.14,0.02-6.21,0.01c-0.94-0.01-2.06,0.24-2.75-0.18
			c-0.53-0.32-0.51-1.52-0.74-2.33c-0.06-0.22-0.11-0.43-0.19-0.64c-0.08-0.22-0.22-0.34-0.5-0.33c-1.38,0.04-2.31,1.13-1.94,2.45
			c0.24,0.85,0.06,1.09-0.84,1.06c-1.93-0.06-3.87-0.05-5.8-0.01c-1.52,0.03-3.35-0.58-4.47,0.23c-1.12,0.81-1.13,2.73-1.7,4.14
			c-0.07,0.17-0.12,0.34-0.19,0.5C216.62,17.55,216.88,17.65,217.4,17.72z"/>
		<path class="st0" d="M201.32,15.54c2.69,0.05,5.39,0.02,8.09,0.02c1.53,0,3.06-0.03,4.58,0.01c1.32,0.03,1.21-1.13,1.34-1.8
			c0.19-0.95-0.76-0.47-1.16-0.48c-1.7-0.07-3.41-0.03-5.12-0.03c1.17-0.65,1.04-1.41,0.5-2.3c-0.16-0.26-0.29-0.56-0.37-0.86
			c-0.35-1.27-0.92-1.57-2.14-0.78c-0.78,0.5-0.98,0.88-0.54,1.66c0.22,0.39,0.31,0.84,0.5,1.24c0.38,0.8,0.2,1.09-0.74,1.06
			c-1.61-0.07-3.23-0.01-4.85-0.02c-1.31-0.01-1.2,1.16-1.31,1.83C199.98,15.95,200.9,15.53,201.32,15.54z"/>
		<path class="st0" d="M99.46,29.39C93,33.88,85.65,36.55,78.57,39.83c2.89-0.13,5.62-1.19,8.46-1.62c0.04,0.1,0.09,0.21,0.13,0.31
			c-2.41,1.19-4.81,2.38-7.56,3.74c1.98,0.16,3.47-0.48,5.2-0.79c-0.99,1.07-2.22,1.27-3.26,1.8c-0.94,0.47-2.29,0.41-2.41,1.96
			c-0.02,0.21-0.66,0.39-1.02,0.56c-8.28,3.67-16.95,6.16-25.73,8.28c-3.18,0.77-6.27,1.91-9.52,2.46
			c-1.22,0.21-2.17,1.31-3.53,1.07c-0.26,0.11-0.53,0.22-0.79,0.33c-0.87,0.67-1.93,0.81-2.94,1.09c-0.38,0.15-0.75,0.29-1.13,0.44
			c-1.24,0.43-2.38,1.18-3.75,1.22c-0.17,0.09-0.34,0.17-0.51,0.26c-0.61,0.62-1.39,0.83-2.21,0.95c-0.28,0.17-0.56,0.34-0.84,0.51
			c-8.83,3.73-16.4,9.43-23.81,15.36c-0.91,0.72-1.79,1.5-2.84,2.02c-0.08-0.08-0.16-0.15-0.24-0.22c3.24-5.7,7.49-10.6,12.04-15.28
			c1.14-1.17,2.38-2.26,3.58-3.38c0.14-0.35,0.49-0.42,0.78-0.56c0.05-0.48,0.35-0.71,0.78-0.82c0.87-1.03,1.78-2.03,3.02-2.64
			c1.97-2.17,4.42-3.76,6.68-5.59c9.41-7.62,20.4-11.86,31.96-14.93c10.5-2.79,21.15-5.03,31.5-8.35c4.7-1.51,9.32-3.24,13.98-4.88
			c0.29-0.1,0.57-0.28,1.18-0.11c-4.67,3.31-9.71,5.53-14.68,7.84c-4.94,2.3-9.92,4.52-14.85,6.87
			C84.02,35.06,91.5,31.58,99.46,29.39z"/>
		<path class="st0" d="M59.7,27.54c-2.21,1.44-4.82,1.94-7.13,3.11c-0.54,0.28-0.89,0.95-1.64,0.8c-0.26,0.72-0.92,0.93-1.54,1.19
			c-0.26,0.12-0.51,0.25-0.77,0.38c-0.13,0.24-0.32,0.39-0.6,0.42c-0.37,0.17-0.74,0.34-1.12,0.51c-0.34,0.43-0.86,0.53-1.34,0.69
			c-1.74,0.61-3.43,0.84-4.88-0.66c-0.94-0.35-1.67-1.02-2.41-1.64c-0.67-0.56-0.31-1.39-0.2-2.13c0.01-0.19,0.02-0.39,0.03-0.59
			c-0.05-0.3-0.12-0.6-0.15-0.9c-0.06-0.63,0.21-0.89,0.74-0.48c0.88,0.67,1.8,1.31,2.43,2.25c0.21,0.08,0.43,0.15,0.64,0.23
			c1.07,0.28,2.16,0.18,3.25,0.11c0.26-0.13,0.53-0.26,0.79-0.4c0.34-0.18,0.57-0.65,1.08-0.43c0.46-0.19,0.91-0.39,1.37-0.58
			C51.91,27.86,55.74,27.39,59.7,27.54z"/>
		<g>
			<path class="st0" d="M110.52,60.79c-0.45,1.55-1.24,2.79-2.35,3.7c-0.88,0.72-1.88,1.07-3.06,1.07c-1.36,0-2.45-0.46-3.33-1.4
				c-0.88-0.94-1.33-2.4-1.33-4.34c0-2.58,0.68-4.84,2.01-6.72c1.3-1.83,2.95-2.72,5.03-2.72c2.31,0,3.6,1.21,4.06,3.82l0.11,0.62
				l3.75-0.36l-0.07-0.68c-0.22-2.2-1.08-3.93-2.54-5.16c-1.45-1.22-3.27-1.84-5.4-1.84c-3.29,0-6.01,1.36-8.08,4.05
				c-1.88,2.43-2.83,5.44-2.83,8.93c0,3.04,0.79,5.4,2.34,6.99c1.55,1.6,3.61,2.41,6.1,2.41c2.03,0,3.92-0.64,5.63-1.91
				c1.7-1.26,3-3.17,3.86-5.67l0.27-0.77l-3.98-0.58L110.52,60.79z"/>
			<path class="st0" d="M128.04,66.17c0-0.66,0.14-1.55,0.43-2.65l0.93-3.65c0.27-1.09,0.41-2.06,0.41-2.88
				c0-1.35-0.58-2.47-1.74-3.35c-1.1-0.83-2.57-1.25-4.38-1.25c-3.69,0-6.14,1.67-7.3,4.97l-0.29,0.82l3.84,0.33l0.17-0.49
				c0.53-1.51,1.62-2.21,3.43-2.21c0.9,0,1.57,0.15,2,0.44c0.36,0.25,0.53,0.53,0.53,0.92c0,0.31-0.07,0.71-0.22,1.2
				c-0.26,0.08-0.55,0.14-0.88,0.19c-0.49,0.07-1.43,0.14-2.79,0.2c-1.74,0.07-3.06,0.3-4.03,0.71c-1,0.42-1.79,1.05-2.35,1.85
				c-0.57,0.81-0.85,1.77-0.85,2.85c0,1.51,0.49,2.73,1.46,3.63c0.96,0.88,2.17,1.33,3.59,1.33c0.89,0,1.78-0.18,2.64-0.54
				c0.55-0.23,1.12-0.56,1.71-0.99c0.04,0.25,0.09,0.48,0.14,0.69l0.13,0.51h3.86l-0.19-0.83
				C128.13,67.22,128.04,66.62,128.04,66.17z M125.06,61.62c-0.25,0.94-0.53,1.67-0.83,2.19c-0.4,0.67-0.89,1.17-1.52,1.52
				c-0.63,0.35-1.26,0.52-1.92,0.52c-0.66,0-1.16-0.16-1.53-0.48c-0.34-0.3-0.51-0.72-0.51-1.27c0-0.4,0.11-0.74,0.33-1.04
				c0.23-0.31,0.55-0.54,0.99-0.7c0.34-0.12,1.12-0.31,2.88-0.46C123.78,61.82,124.49,61.73,125.06,61.62z"/>
			<path class="st0" d="M143.45,54.13c-1.03-1.15-2.32-1.74-3.82-1.74c-0.82,0-1.61,0.19-2.35,0.57c-0.27,0.14-0.56,0.32-0.86,0.55
				l0.16-0.79h-3.65l-4.37,21.73h3.81l1.41-6.97c0.96,1.1,2.16,1.66,3.61,1.66c1.15,0,2.26-0.36,3.31-1.07
				c1.3-0.89,2.35-2.15,3.13-3.76c0.77-1.59,1.16-3.38,1.16-5.3C144.98,56.9,144.46,55.26,143.45,54.13z M137.23,56.4
				c0.57-0.42,1.12-0.64,1.64-0.64c0.65,0,1.18,0.25,1.64,0.78c0.47,0.54,0.72,1.36,0.72,2.44c0,1.24-0.26,2.49-0.77,3.72
				c-0.5,1.2-1.09,2.06-1.74,2.55c-0.41,0.31-0.89,0.46-1.44,0.46c-0.69,0-1.25-0.25-1.71-0.75c-0.47-0.52-0.71-1.32-0.71-2.38
				c0-1.29,0.26-2.55,0.76-3.76C136.09,57.66,136.64,56.84,137.23,56.4z"/>
			<polygon class="st0" points="148.11,52.72 144.88,68.81 148.69,68.81 151.92,52.72 			"/>
			<polygon class="st0" points="153.05,47.12 149.24,47.12 148.4,51.32 152.21,51.32 			"/>
			<path class="st0" d="M155.95,65.58c-0.2,0-0.29-0.04-0.3-0.05c0,0-0.03-0.05-0.03-0.21c0-0.06,0.03-0.35,0.3-1.72l1.53-7.58h2.36
				l0.66-3.29h-2.36l1.21-6l-4.36,2.72l-0.66,3.28h-1.91l-0.66,3.29h1.91l-1.56,7.73c-0.33,1.64-0.37,2.15-0.37,2.38
				c0,0.89,0.35,1.63,1.02,2.17c0.63,0.5,1.47,0.76,2.5,0.76c0.59,0,1.2-0.09,1.81-0.26l0.4-0.11l0.71-3.54l-1.06,0.3
				C156.76,65.53,156.38,65.58,155.95,65.58z"/>
			<path class="st0" d="M173.55,59.87c0.27-1.09,0.41-2.06,0.41-2.88c0-1.35-0.58-2.47-1.74-3.35c-1.1-0.83-2.57-1.25-4.38-1.25
				c-3.69,0-6.14,1.67-7.3,4.97l-0.29,0.82l3.84,0.33l0.17-0.49c0.53-1.51,1.62-2.21,3.43-2.21c0.9,0,1.57,0.15,2,0.44
				c0.36,0.25,0.53,0.53,0.53,0.92c0,0.31-0.07,0.71-0.22,1.2c-0.26,0.08-0.55,0.14-0.88,0.19c-0.49,0.07-1.43,0.14-2.79,0.2
				c-1.74,0.07-3.06,0.3-4.03,0.71c-1,0.42-1.79,1.05-2.35,1.85c-0.57,0.81-0.85,1.77-0.85,2.85c0,1.51,0.49,2.73,1.46,3.63
				c0.96,0.88,2.17,1.33,3.59,1.33c0.89,0,1.78-0.18,2.64-0.54c0.55-0.23,1.12-0.56,1.71-0.99c0.04,0.25,0.09,0.48,0.14,0.69
				l0.13,0.51h3.86l-0.19-0.83c-0.17-0.75-0.26-1.36-0.26-1.81c0-0.66,0.14-1.55,0.43-2.65L173.55,59.87z M169.21,61.62
				c-0.25,0.94-0.53,1.67-0.83,2.19c-0.4,0.67-0.89,1.17-1.52,1.52c-0.63,0.35-1.26,0.52-1.92,0.52c-0.66,0-1.16-0.16-1.53-0.48
				c-0.34-0.3-0.51-0.72-0.51-1.27c0-0.4,0.11-0.74,0.33-1.04c0.23-0.31,0.55-0.54,0.99-0.7c0.34-0.12,1.12-0.31,2.88-0.46
				C167.93,61.82,168.63,61.73,169.21,61.62z"/>
			<polygon class="st0" points="173.7,68.81 177.51,68.81 181.88,47.12 178.07,47.12 			"/>
			<path class="st0" d="M197.96,47.12l-0.02-0.36l-0.14,0.36h-1.96l-11.86,21.68h4.41l3.14-5.85h6.96l0.94,5.85h3.91l-3.46-21.68
				H197.96z M193.4,59.51l2.7-5.02c0.33-0.62,0.64-1.21,0.91-1.77c0.09,0.76,0.2,1.58,0.32,2.46l0.64,4.33H193.4z"/>
			<polygon class="st0" points="207.15,52.72 203.91,68.81 207.72,68.81 210.96,52.72 			"/>
			<polygon class="st0" points="212.09,47.12 208.28,47.12 207.43,51.32 211.24,51.32 			"/>
			<path class="st0" d="M223.37,47.12l-1.22,6.06l-0.35-0.18c-0.81-0.41-1.49-0.62-2.09-0.62c-1.05,0-2.07,0.46-3.06,1.41l0.22-1.07
				h-3.53l-3.24,16.08h3.68l1.32-6.45c0.48-2.38,1.12-4.05,1.92-4.95c0.74-0.84,1.47-1.26,2.15-1.26c0.32,0,0.62,0.11,0.93,0.34
				l0.69,0.51l1.13-2.65l-2.91,14.47h3.81l4.36-21.68H223.37z"/>
			<polygon class="st0" points="233.36,47.12 229.55,47.12 228.71,51.32 232.52,51.32 			"/>
			<polygon class="st0" points="228.42,52.72 225.19,68.81 229,68.81 232.23,52.72 			"/>
			<path class="st0" d="M242.12,52.39c-0.89,0-1.82,0.24-2.76,0.7c-0.46,0.23-0.94,0.54-1.44,0.95l0.26-1.31h-3.59l-3.24,16.08h3.81
				l1.5-7.39c0.43-2.11,1.09-3.6,1.97-4.41c0.86-0.8,1.8-1.19,2.87-1.19c0.43,0,0.76,0.09,0.98,0.28c0.13,0.11,0.28,0.29,0.28,0.68
				c0,0.38-0.09,1.02-0.28,1.88l-2.17,10.15h3.81l2-9.44c0.26-1.22,0.39-2.09,0.39-2.66c0-1.35-0.42-2.42-1.25-3.19
				C244.46,52.77,243.4,52.39,242.12,52.39z"/>
			<path class="st0" d="M255.47,52.39c-1.41,0-2.75,0.38-3.96,1.14c-1.21,0.75-2.24,1.94-3.06,3.55c-0.81,1.59-1.22,3.32-1.22,5.15
				c0,1.42,0.28,2.67,0.83,3.71c0.56,1.06,1.33,1.87,2.29,2.41c0.95,0.53,2.01,0.8,3.16,0.8c1.6,0,3.07-0.5,4.37-1.48
				c1.54-1.15,2.54-2.53,2.97-4.11l0.21-0.77l-3.65-0.39l-0.2,0.46c-0.4,0.94-0.95,1.66-1.64,2.14c-0.69,0.48-1.37,0.72-2.06,0.72
				c-0.67,0-1.24-0.27-1.73-0.84c-0.51-0.58-0.77-1.49-0.77-2.7c0-0.04,0-0.07,0-0.11h10.43l0.09-0.57
				c0.12-0.79,0.19-1.57,0.19-2.32c0-2.12-0.59-3.79-1.75-4.98C258.81,53,257.29,52.39,255.47,52.39z M251.72,58.8
				c0.37-0.93,0.84-1.66,1.42-2.17c0.73-0.64,1.51-0.95,2.37-0.95c0.76,0,1.36,0.25,1.84,0.77c0.46,0.5,0.71,1.29,0.73,2.34H251.72z
				"/>
			<path class="st0" d="M269.96,58.61c-1.5-0.66-1.91-0.99-2.02-1.11c-0.17-0.18-0.25-0.38-0.25-0.63c0-0.17,0.05-0.44,0.47-0.76
				c0.37-0.28,0.87-0.42,1.5-0.42c0.84,0,1.48,0.19,1.95,0.59c0.44,0.37,0.67,0.91,0.7,1.64l0.02,0.7l3.73-0.26l-0.02-0.65
				c-0.05-1.66-0.65-2.99-1.77-3.93c-1.1-0.92-2.59-1.39-4.43-1.39c-1.68,0-3.07,0.46-4.12,1.35c-1.09,0.93-1.64,2.12-1.64,3.55
				c0,0.71,0.15,1.36,0.45,1.94c0.3,0.58,0.72,1.07,1.25,1.47c0.49,0.37,1.45,0.87,2.93,1.53c1.5,0.67,2.01,1.06,2.18,1.23
				c0.24,0.25,0.35,0.51,0.35,0.81c0,0.44-0.19,0.78-0.59,1.07c-0.46,0.33-1.11,0.5-1.95,0.5c-0.92,0-1.61-0.23-2.11-0.7
				c-0.48-0.45-0.72-1.19-0.72-2.19l0.01-0.73l-3.77,0.24v0.91c0,1.82,0.6,3.25,1.78,4.27c1.15,0.99,2.74,1.5,4.71,1.5
				c1.96,0,3.53-0.5,4.67-1.48c1.17-1.01,1.76-2.24,1.76-3.66c0-1.28-0.45-2.38-1.34-3.28C273.11,60.16,271.89,59.47,269.96,58.61z"
				/>
		</g>
		<rect x="100.35" y="42.01" class="st0" width="175.51" height="2.33"/>
	</g>
</g>
</svg>
