<?xml version="1.0" encoding="utf-8"?>
<!-- Generator: Adobe Illustrator 25.4.1, SVG Export Plug-In . SVG Version: 6.00 Build 0)  -->
<svg version="1.1" id="Layer_1" xmlns="http://www.w3.org/2000/svg" xmlns:xlink="http://www.w3.org/1999/xlink" x="0px" y="0px"
	 viewBox="0 0 172.57 80" style="enable-background:new 0 0 172.57 80;" xml:space="preserve">
<style type="text/css">
	.st0{fill-rule:evenodd;clip-rule:evenodd;fill:#FFFFFF;}
	.st1{fill-rule:evenodd;clip-rule:evenodd;fill:#B8CD21;}
	.st2{fill-rule:evenodd;clip-rule:evenodd;fill:#020005;}
</style>
<g>
	<path class="st0" d="M106.5,62.7c3.42-2.61,4.88-4.77,9.8-14.45c0.09-0.18,1.7,1.39,3.58,3.47c8,8.86,26.45,8.84,33.1-0.04
		c7.55-10.07,7.83-18.92,0.8-25.02c-6.24-5.43-13.02-9.14-16.66-9.13c-4.52,0.01-11.89,4.36-16.74,9.86l-3.89,4.42l-2.31-2.95
		c-4.4-5.62-13.46-5.89-19.78-0.57c-2.26,1.9-2.82,2.07-2.82,0.85c0-2.98-2.66-6.58-6.43-8.69c-3.43-1.93-4.54-2.08-10.7-1.51
		c-9.46,0.89-10.2,1.8-9.34,11.65c0.36,4.16,0.88,8.13,1.15,8.83c0.34,0.88-0.26,1.28-1.93,1.28c-2.72,0-2.83-0.38-1.39-4.51
		c1.49-4.27,0.37-7.19-3.96-10.32c-5.66-4.1-13.39-3.49-17.43,1.37c-1.11,1.33-1.51,1.16-3.84-1.67c-7.14-8.66-19.43-8.02-23.7,1.25
		c-1.25,2.72-2.23,3.65-3.87,3.67c-3.23,0.04-9.1,6.3-9.9,10.57c-0.77,4.08,0,5.82,5.27,11.98c3.9,4.56,7.06,5.53,11.05,3.39
		c2.69-1.44,2.37-6.56-0.64-10.13c-1.34-1.59-2.22-3.1-1.96-3.37c0.26-0.26,1.37,0.77,2.45,2.29c2.4,3.37,7.5,5.31,10.17,3.88
		c3.13-1.67,3.17-4.2,0.14-9.87c-2.66-4.99-2.74-5.41-1.29-7.01c0.85-0.94,1.88-1.71,2.3-1.71c1.41,0,3.63,5.53,3.09,7.67
		c-1.21,4.81,2.96,9.39,6.67,7.31c1.16-0.65,2.3-0.35,4.27,1.1c1.94,1.44,4.04,1.99,7.58,2c2.75,0.01,5.56,0.56,6.41,1.27
		c0.84,0.7,3.39,1.47,5.67,1.73c5.43,0.61,8.82-1.44,8.82-5.35c0-2.26,0.38-2.76,2.13-2.76c3.33,0,4.35-1.79,4.35-7.6
		c0-4.56,0.25-5.37,1.67-5.37c2.78,0,3.89,1.99,3.89,6.95c0,2.6,0.5,5.23,1.11,5.84c1.56,1.56,4.51,1.39,5.78-0.35
		c0.93-1.28,1.22-1.17,2.31,0.86c1,1.88,3.81,3.76,10.1,6.76c0.16,0.08-0.25,1.01-0.91,2.07c-1.44,2.3-7.12,4.74-11.05,4.74
		c-4.02,0-6.41,1.55-6.41,4.16c0,3.28,2.3,4.13,11.28,4.16C102.18,65.71,102.74,65.57,106.5,62.7L106.5,62.7L106.5,62.7z"/>
	<path class="st0" d="M103.63,38.83c-1.19-0.77-1.16-0.9,0.23-0.91c0.89-0.01,1.62,0.4,1.62,0.91
		C105.48,39.96,105.38,39.96,103.63,38.83L103.63,38.83L103.63,38.83z"/>
	<path class="st0" d="M107.15,40.5c1.73-1.73,1.32-3.13-1.26-4.3c-4.27-1.95-8.28,2.12-4.35,4.41
		C103.73,41.88,105.81,41.85,107.15,40.5L107.15,40.5L107.15,40.5z"/>
	<path class="st1" d="M144.69,79.03c-1.11-0.53-2.53-2.2-3.15-3.7c-0.98-2.36-0.88-3.06,0.72-5.22c2.33-3.13,7.05-3.82,9.72-1.41
		c4.38,3.96,4.31,7.72-0.19,10.05C148.72,80.34,147.5,80.39,144.69,79.03L144.69,79.03z M126.22,69.55
		c-0.76-1.97,1.31-5.17,3.34-5.17c2.77,0,4.02,3.13,1.98,4.98C129.49,71.22,126.9,71.31,126.22,69.55L126.22,69.55z M113.31,66.18
		c-1.05-1.7,0.42-5.36,2.4-5.99c2.27-0.72,4.59,0.97,4.59,3.34C120.3,66.32,114.71,68.44,113.31,66.18L113.31,66.18z M86.68,62.44
		c-2.02-1.18-1.24-2.7,1.38-2.7c1.07,0,4.24-0.72,7.05-1.61c3.94-1.24,5.7-2.43,7.73-5.24c3.24-4.47,3.27-5.21,0.25-5.21
		c-2.77,0-5.58-1.32-8.51-3.98c-1.55-1.42-2.09-2.93-2.09-5.94c0-7.12,4.62-11.41,12.24-11.37c4.32,0.02,6.76,1.54,9.48,5.89
		c4.68,7.52-3.09,26.85-12.19,30.31C99.02,63.74,88.73,63.63,86.68,62.44L86.68,62.44L86.68,62.44z M107.14,40.1
		c1.73-1.73,1.32-3.13-1.26-4.3c-4.28-1.95-8.29,2.12-4.35,4.42C103.72,41.48,105.79,41.44,107.14,40.1L107.14,40.1L107.14,40.1z
		 M129.15,54.71c-7.74-2.88-11.64-8.06-11.64-15.47c0-5.49,4.15-11.92,10.48-16.25c7.26-4.96,9.57-4.95,17.61,0.06
		c8.87,5.53,10.08,6.96,10.62,12.57c0.59,6.17-2.89,13.54-8.11,17.16C143.58,55.92,134.82,56.82,129.15,54.71L129.15,54.71
		L129.15,54.71z M5.78,49.37c-4.72-6.41-4.81-8.15-0.75-13.49c1.65-2.16,3.3-3.17,5.9-3.59c2.98-0.48,3.71-1.02,4.17-3.12
		c0.3-1.4,1.72-3.65,3.15-5.02c7.67-7.35,20.49-0.5,20.49,10.97c0,5.23-1.27,7.94-3.74,7.94c-1.59,0-1.82-0.65-1.82-5.05
		c0-6.47-2.86-10.43-6.82-9.44c-1.38,0.35-2.97,1.64-3.53,2.88c-0.85,1.87-0.59,3.12,1.51,7.42c1.39,2.85,2.3,5.79,2.01,6.53
		c-0.91,2.37-4.56,1.46-8.12-2.01c-5.55-5.42-8.76-2.44-4.04,3.75c2.56,3.36,2.88,5.18,1.21,6.85
		C12.84,56.55,10.09,55.22,5.78,49.37L5.78,49.37L5.78,49.37z M162.91,50.44c-2.37-4.43,2.66-8.73,6.93-5.93
		c3.1,2.03,3.53,3.86,1.4,5.98C168.8,52.94,164.23,52.91,162.91,50.44L162.91,50.44z M58.51,48.62c-1.1-0.44-2.38-1.48-2.84-2.3
		c-0.67-1.2-1.33-1.3-3.32-0.54c-3.16,1.2-7.37,0.37-9.84-1.93c-2.6-2.42-2.66-10.3-0.12-14.16c4.13-6.26,10.33-6.88,15.98-1.6
		c3.66,3.42,3.77,3.68,2.75,6.63c-2.25,6.46-0.82,8.79,4.95,8.11c1.27-0.15,1.94,0.4,2.14,1.75C68.79,48.61,63.73,50.72,58.51,48.62
		L58.51,48.62z M51.87,37.82c1.85-1.68,2.2-3.6,0.8-4.47c-1.14-0.71-4.67,2.78-4.67,4.61C48.01,39.79,49.76,39.73,51.87,37.82
		L51.87,37.82L51.87,37.82z M84.77,41.52c-0.34-0.34-0.62-2.78-0.62-5.42c0-5.66-2.02-8.18-6.17-7.7c-2.53,0.29-2.64,0.52-2.91,5.86
		c-0.32,6.2-0.99,7.41-3.69,6.55c-2.39-0.76-3.67-4.15-4.42-11.79c-0.56-5.72-0.46-6.25,1.42-7.26c1.12-0.59,2.62-0.85,3.35-0.57
		c0.73,0.28,2.37,0.04,3.63-0.54c3.3-1.5,8.98,0.41,12.06,4.07c2.25,2.68,2.42,3.39,1.83,8.03C88.27,40.6,86.78,43.52,84.77,41.52
		L84.77,41.52z M159.79,23.1c-1.13-1.13-1.21-1.88-0.39-3.69c1.38-3.04,4.14-3.81,6.38-1.78c2.23,2.02,2.26,3.4,0.09,5.36
		C163.75,24.91,161.63,24.95,159.79,23.1L159.79,23.1L159.79,23.1z M107,18.72c-1.06-0.78-1.59-2.1-1.39-3.51
		c0.28-1.96,0.81-2.26,3.93-2.26c2.43,0,3.94,0.53,4.63,1.62C116.43,18.15,110.74,21.45,107,18.72L107,18.72L107,18.72z
		 M117.45,11.94c-1.55-1.87-0.11-4.43,2.71-4.85c2.7-0.4,3.56,2.21,1.49,4.5C119.66,13.79,119.03,13.84,117.45,11.94L117.45,11.94
		L117.45,11.94z M143.75,4.46c-0.72-1.87,2.89-5.1,4.86-4.34c1.63,0.62,1.76,3.24,0.23,4.77C147.24,6.48,144.43,6.25,143.75,4.46
		L143.75,4.46z"/>
	<path class="st2" d="M87.11,62.47c-2.72-1.09-1.78-2.73,1.57-2.73c4.85,0,11.14-2.84,14.02-6.32c1.52-1.85,2.77-3.86,2.77-4.46
		c0-0.6-1.66-1.38-3.69-1.72c-2.11-0.36-4.89-1.74-6.49-3.24c-6.86-6.41-0.62-17.62,9.82-17.62c2.85,0,4.06,0.67,7.09,3.94
		c3.61,3.88,3.65,4.01,3.1,9.42c-1.01,9.88-6.8,19.67-13.27,22.44C98.67,63.61,90.36,63.78,87.11,62.47L87.11,62.47L87.11,62.47z
		 M108.08,38.67c0.54-3.82-6.43-5.29-7.83-1.64c-0.88,2.28,1.5,4.3,4.68,3.99C107.08,40.81,107.86,40.23,108.08,38.67L108.08,38.67z
		 M131.59,55.08c-5.85-1.2-9.97-4.14-12.15-8.64c-3.44-7.1-2.13-13.13,4.22-19.49c3.3-3.31,11.41-7.96,13.91-7.98
		c2.26-0.02,15.57,8.95,17.17,11.57c2.21,3.61,2.13,8.24-0.23,13.44C150.19,53.52,142.38,57.3,131.59,55.08L131.59,55.08z
		 M146.89,50.36c4.18-2.58,7.19-8.93,6.36-13.39c-0.32-1.72-1.7-4.44-3.05-6.06c-9-10.7-28.39-4.82-28.21,8.55
		C122.14,50.52,136.48,56.8,146.89,50.36L146.89,50.36z M133.65,46.48c-2.53-1.42-4.94-4.55-4.98-6.47
		c-0.04-2.44,2.5-6.94,4.55-8.03c1.9-1.02,4.69-0.4,4.69,1.04c0,0.49,1.39,0.61,3.16,0.27c2.64-0.5,3.34-0.26,4.25,1.43
		C148.13,39.97,138.8,49.36,133.65,46.48L133.65,46.48z M8.68,52.61c-1.34-1.43-3.48-4.12-4.77-5.97c-2.21-3.17-2.27-3.56-1.02-6.49
		c1.84-4.33,5.16-7.09,8.95-7.45c2.79-0.26,3.29-0.7,3.82-3.31c1.83-9.03,12.21-10.88,19.41-3.45c2.98,3.08,3.21,3.73,3.21,9.24
		c0,6.16-1.14,8.52-3.65,7.56c-1.05-0.4-1.45-1.83-1.45-5.1c0-7.65-5.58-12.15-9.59-7.73c-2.16,2.39-1.91,5.38,0.86,10.1
		c1.31,2.25,2.16,4.68,1.88,5.41c-0.89,2.33-4.42,1.43-7.58-1.92c-3.14-3.33-6.32-4.21-7.17-2c-0.26,0.69,0.81,3.23,2.39,5.65
		c2.21,3.39,2.65,4.76,1.91,5.94C14.29,55.65,11.32,55.44,8.68,52.61L8.68,52.61L8.68,52.61z M56.67,46.85
		c-1.25-1.46-2.36-1.69-6.25-1.29c-3.96,0.4-5.16,0.14-7.38-1.62c-2.48-1.96-2.63-2.45-2.26-7.51c0.32-4.39,0.89-5.94,3.04-8.18
		c3.26-3.41,7.63-4.38,11.25-2.5c4.98,2.58,5.93,4.4,5.67,10.91l-0.23,5.95l3.94,0.28c4.12,0.3,5.27,2.19,2.83,4.63
		C65.46,49.33,58.42,48.89,56.67,46.85L56.67,46.85z M52.11,37.9c1.7-1.7,1.95-5.03,0.37-5.03c-1.74,0-4.47,2.92-4.47,4.77
		C48.01,39.74,50.14,39.87,52.11,37.9L52.11,37.9z M85.27,41.03c-0.62-0.62-1.12-3.28-1.12-5.92c0-4.16-0.33-5.02-2.43-6.4
		c-1.92-1.26-2.89-1.38-4.64-0.59c-1.92,0.88-2.2,1.64-2.2,6.01c0,3.39-0.46,5.39-1.44,6.2c-2.44,2.02-4.81-1.45-5.96-8.71
		c-1.45-9.19-1.22-9.54,6.88-10.3c11.47-1.07,16,3.07,14.39,13.15C87.75,40.71,86.78,42.54,85.27,41.03L85.27,41.03L85.27,41.03z"/>
</g>
</svg>
