<?xml version="1.0" encoding="utf-8"?>
<!-- Generator: Adobe Illustrator 25.4.1, SVG Export Plug-In . SVG Version: 6.00 Build 0)  -->
<svg version="1.1" id="Layer_1" xmlns="http://www.w3.org/2000/svg" xmlns:xlink="http://www.w3.org/1999/xlink" x="0px" y="0px"
	 viewBox="0 0 103.3 80" style="enable-background:new 0 0 103.3 80;" xml:space="preserve">
<style type="text/css">
	.st0{fill:#D02B2F;}
	.st1{fill:#01609A;}
</style>
<path class="st0" d="M103.3,80H56c0,0,0.2-3.1,5-3.7c4.8-0.6,8.6-2.4,9.8-8.9C72,61,74.6,32.1,48.6,0c0,0,21.7,6.5,32.9,31
	c0,0,8.3,18.9,9.2,30.7s1.3,12.7,4.5,14.2C98.6,77.4,103,76.4,103.3,80z"/>
<path class="st1" d="M12,52.2c0,0,7.9,0.9,7,8.5c-0.9,7.5-6.5,10.1-1.9,14.2s11.2,0.4,13-1.2s4.7-9.8,6.1-21.1
	C37.6,41.4,46.9,1.8,47.8,0c0,0-1.2,22.9,0.5,30.6s7.1,18.9,6.8,21.3S51.6,80,22.8,80C22.8,80,0,79.3,0,63.7
	C0,63.7-0.2,52.2,12,52.2z"/>
</svg>
