<?xml version="1.0" encoding="utf-8"?>
<!-- Generator: Adobe Illustrator 25.4.1, SVG Export Plug-In . SVG Version: 6.00 Build 0)  -->
<svg version="1.1" id="Layer_1" xmlns="http://www.w3.org/2000/svg" xmlns:xlink="http://www.w3.org/1999/xlink" x="0px" y="0px"
	 viewBox="0 0 368.2 80" style="enable-background:new 0 0 368.2 80;" xml:space="preserve">
<style type="text/css">
	.st0{fill:#D02B2F;}
	.st1{fill:#01609A;}
	.st2{fill:#050608;}
</style>
<g>
	<path class="st0" d="M103.3,80H56c0,0,0.2-3.1,5-3.7c4.8-0.6,8.6-2.4,9.8-8.9C72,61,74.6,32.1,48.6,0c0,0,21.7,6.5,32.9,31
		c0,0,8.3,18.9,9.2,30.7s1.3,12.7,4.5,14.2C98.6,77.4,103,76.4,103.3,80z"/>
	<path class="st1" d="M12,52.2c0,0,7.9,0.9,7,8.5c-0.9,7.5-6.5,10.1-1.9,14.2s11.2,0.4,13-1.2s4.7-9.8,6.1-21.1
		C37.6,41.4,46.9,1.8,47.8,0c0,0-1.2,22.9,0.5,30.6s7.1,18.9,6.8,21.3S51.6,80,22.8,80C22.8,80,0,79.3,0,63.7
		C0,63.7-0.2,52.2,12,52.2z"/>
	<g>
		<path class="st2" d="M187.1,32c0.5-0.3,0.6-3,0.6-3s-18.1-2.1-22.9,0.9c-4.7,3-4.7,30.9-9.2,38.8c-4.5,7.9-18.7,7.1-21.7,5.8
			c-2.3-1-2-3-1.8-3.9c0-0.1,0.1-0.2,0.1-0.4c0,0,0,0,0,0l0,0c0.2-0.6,0.3-1.3,0.3-2c0-4-3.2-7.2-7.2-7.2c-4,0-7.2,3.2-7.2,7.2
			c0,0.8,0.1,1.6,0.4,2.3l0,0c0,0,0.7,9.4,24.9,9.4c24.2,0,29.5-13,30.1-15.6c0.5-2.6,5.8-24,6.8-28.3
			C181.3,31.8,186.7,32.3,187.1,32z"/>
		<path class="st2" d="M197.1,45c-14.2,0-18.9,12.2-19.4,17.6c-0.5,5.4,1.4,16.7,13.6,16.7c12.2,0,17-8.9,17-8.9s-4.4,3.7-11.5,3.7
			c-7.1,0-7.9-9.6-7.6-12.6h20.4C209.6,61.5,211.3,45,197.1,45z M200.1,58.4h-10.5c0.4-6.4,2.5-10.8,7.6-10.8
			C202.4,47.6,200.1,58.4,200.1,58.4z"/>
		<path class="st2" d="M226.5,74.4c-3.4,0.3-2.8-3.3-2.8-3.3l2.7-22.2h7.6l0.3-2.9h-7.5l0.9-7.5l-11.1,4.5l-0.4,3h-3.5l-1.1,2.9h4.2
			l-3,22.2c0,0-1.6,8.2,7.5,8.2s13.4-8.9,13.4-8.9S229.9,74.1,226.5,74.4z"/>
		<path class="st2" d="M277.7,75c0,0-14-41.6-14.3-42.5c-0.3-0.9-0.5-1.6-1.6-1.6s-1.6,0.8-1.6,0.8s-20.2,38-22.6,42.1
			c-2.4,4-5.2,3.7-5.2,3.7l-0.5,1.9h14.8l0.2-1.6c0,0-0.9-0.3-4-0.7c-3-0.4-1-4.3-1-4.3l3.8-6.9c3.3,0.1,11.9,0.2,16.4,0.1
			c1.1,3.6,2,6.7,2.2,7.8c0.7,3.6-2.9,3.7-4.6,3.7c-1.7,0-1.2,1.9-1.2,1.9h23c0.2-0.5,0-1.9,0-1.9C279,77.4,277.7,75,277.7,75z
			 M247.4,62.6l8.6-15.8c0,0,2.7,8.3,5,15.8H247.4z"/>
		<circle class="st2" cx="324.7" cy="35.6" r="5.5"/>
		<path class="st2" d="M329.7,45h-12.9c-1.6,0-1.4,1.1-1.4,1.1c-0.1,0.9,0.9,0.9,0.9,0.9c2.4,0.2,2.4,3,2.4,3s-2.2,20.2-2.6,23.9
			c-0.4,3.7-3.5,3.6-3.5,3.6c-0.9,0.2-0.8,1.9-0.8,1.9h17.3c0.3-2.2-0.8-1.9-0.8-1.9c-2.5-0.5-2-2.7-2-2.7L329.7,45z"/>
		<path class="st2" d="M298.2,55.9c-2.4-1.4-3.1-3.2-3.1-4.4c0-1.2,1-4.1,7-4.1c6,0,7.6,8,7.6,8h1.6l1.5-10.2
			c-2-0.3-2.4,1.1-3.4,1.5c-0.9,0.3-5.2-1.1-9.7-1.5c-4.4-0.3-9.2,2.9-10.6,4.8s-3,5.1-2,8.9c1,3.8,7.5,6.7,9.6,7.5
			c2,0.8,7.4,3.3,6.8,6.4c-0.6,3-4.5,5.2-9.8,3.8s-6.2-5.9-6.3-7.3c-0.1-1.3-1.9-1.5-1.9-1.5s-2,11.2-1.9,11.5c2.7,0,2.6-1.2,4-1.9
			c1.5-0.7,4.7,2.2,10.1,2.2c5.5,0,14-4.7,14-11.9C311.8,60.5,300.6,57.3,298.2,55.9z"/>
		<path class="st2" d="M361.6,74.1c-1.7-1-1.5-1.3-1-4.5c0.5-3.1,1.6-10.8,1.7-13.9c0.1-3.1,0.6-10.4-11.7-10.4
			c-12.3,0-16.1,5.1-16.2,9.2c0,2.4,2.1,4.3,4.6,4.3s4.6-1.9,4.6-4.3c0-0.5-0.1-0.9-0.2-1.3l0,0c0,0,0,0,0,0
			c-0.2-0.5-0.4-0.9-0.7-1.2c-0.5-1-0.9-2.3-0.2-2.8c1.1-0.9,3.3-1.7,6.1-1.4s4.5,1.6,4,6.1c-0.5,4.4-0.8,5-0.8,5s-20.2,4.7-21,12.5
			c-0.8,7.8,4.8,8,5.9,8.2c1.2,0.1,7,0.9,13.4-4.4c0,0,0.8,4.5,4.1,4.5s9-0.3,14-8.6C368.2,70.8,363.3,75,361.6,74.1z M350.3,71.5
			c0,0-2.1,2.8-5.4,2.8s-3.8-4.1-2.8-6.5c1-2.3,5.3-5.9,9.4-6.5C351.7,61.4,350.3,71.5,350.3,71.5z"/>
	</g>
</g>
</svg>
