<?xml version="1.0" encoding="utf-8"?>
<!-- Generator: Adobe Illustrator 25.4.1, SVG Export Plug-In . SVG Version: 6.00 Build 0)  -->
<svg version="1.1" id="Layer_1" xmlns="http://www.w3.org/2000/svg" xmlns:xlink="http://www.w3.org/1999/xlink" x="0px" y="0px"
	 viewBox="0 0 93.7 80" style="enable-background:new 0 0 93.7 80;" xml:space="preserve">
<style type="text/css">
	.st0{fill:#D7001D;}
	.st1{fill:#FFF000;}
</style>
<g>
	<path class="st0" d="M61.37,54.73l0.99-13.16l0.98,12.03c8.23-4.97,16.5-10.43,24.88-16.3L93.7,3.17
		c-6.1,8.11-12.14,15.53-18.13,22.31l9.75,0.84l-11.01,1.01L73.3,45.45l-0.95-16.39C49.56,54.08,27.6,69.96,6.16,79.98
		c17.77-5.38,35.06-13.4,52.51-23.6l-6.05-0.68L61.37,54.73z M13.75,79.77c13.64-1.91,30.62-6.11,48.5-11.67L61.4,57.87
		C45,67.49,29.28,74.85,13.75,79.77z M66.19,55.02l5.95,0.69L63.4,56.7l-0.92,11.33c7.24-2.25,14.6-4.72,21.98-7.35l3.14-19.61
		C80.32,46.11,73.18,50.76,66.19,55.02z"/>
	<path class="st1" d="M70.79,0C50.12,42.5,20.55,66.15,0,80c22.4-9.04,46.44-26.47,70.45-52.85l-9.13-0.83l11.01-0.9L73.3,7
		l0.87,15.97c6.2-7.05,12.38-14.69,18.52-22.96h-21.9V0z"/>
	<path class="st0" d="M26.1,79.53l55.44-0.71l2.42-15.1C61.18,71.68,39.71,77.67,26.1,79.53z"/>
	<path class="st0" d="M62.36,69.54l0.12-1.5c-0.09,0.03-0.17,0.05-0.24,0.08C62.24,68.12,62.36,69.54,62.36,69.54z"/>
</g>
</svg>
