<?xml version="1.0" encoding="utf-8"?>
<!-- Generator: Adobe Illustrator 25.4.1, SVG Export Plug-In . SVG Version: 6.00 Build 0)  -->
<svg version="1.1" id="Layer_1" xmlns="http://www.w3.org/2000/svg" xmlns:xlink="http://www.w3.org/1999/xlink" x="0px" y="0px"
	 viewBox="0 0 247.41 80" style="enable-background:new 0 0 247.41 80;" xml:space="preserve">
<style type="text/css">
	.st0{fill:#D7001D;}
	.st1{fill:#FFF000;}
</style>
<g>
	<path class="st0" d="M59.46,53.64l0.96-12.75l0.95,11.66c7.98-4.82,15.98-10.1,24.1-15.79l5.31-33.07
		c-5.91,7.86-11.76,15.05-17.57,21.61l9.45,0.82l-10.67,0.98l-0.98,17.55L70.1,28.76C48.02,53.01,26.74,68.4,5.97,78.1
		c17.22-5.21,33.97-12.98,50.87-22.87l-5.87-0.65L59.46,53.64z M13.32,77.9c13.22-1.85,29.66-5.92,46.98-11.31l-0.82-9.91
		C43.59,65.99,28.37,73.13,13.32,77.9z M64.13,53.91l5.76,0.67l-8.47,0.96l-0.89,10.97c7.02-2.18,14.15-4.57,21.29-7.12l3.04-18.99
		C77.81,45.28,70.9,49.79,64.13,53.91z"/>
	<path class="st1" d="M68.59,0.61C48.56,41.79,19.91,64.7,0,78.12c21.7-8.76,44.99-25.65,68.25-51.21l-8.85-0.8l10.67-0.87
		l0.95-17.84l0.84,15.47c6.01-6.83,11.99-14.24,17.95-22.24H68.59V0.61z"/>
	<path class="st0" d="M25.28,77.67l53.71-0.68l2.34-14.63C59.27,70.06,38.47,75.86,25.28,77.67z M60.42,67.99l0.12-1.46
		c-0.09,0.03-0.16,0.04-0.23,0.07C60.3,66.61,60.42,67.99,60.42,67.99z M188.8,7.42C180.87,0.39,170.97,0,165.34,0
		c-6.19,0-14.72,0.76-14.72,0.76c-1.73,0.09-2.36,0.49-2.65,2.29l-5.3,34.31c0,0-2.42,15.5-2.9,18.38
		c-0.33,2.01,1.43,2.46,2.18,2.55c0.19,0.03,6.58,0.61,10.45,0.76c3.25,0.04,6.71,0.04,10.93-0.7c7.26-1.11,14.1-3.62,20.17-8.27
		c3.04-2.37,10.41-8.68,12.27-20.55C197.82,16.77,191.83,10.04,188.8,7.42z M182.79,29.88c-1.15,7.28-3.94,10.23-6.87,13.1
		c-5.28,5.15-12.12,7.12-18.22,7.12h-3.87l6.77-42.09c0,0,1.37-0.03,3.17-0.03c7.34,0,12.84,1.92,16.43,6.93
		C181.42,16.78,184.16,21.21,182.79,29.88z M138.71,8.37c1.72,0,2.05-0.54,2.24-1.56c0.06-0.2,0.82-5.04,0.82-5.18
		c0-0.95-0.65-1.02-1.91-1.02h-33.03c-1.63,0.09-2.18,0.49-2.4,1.96l-8.54,54.04c-0.23,1.47,0.1,1.8,1.8,1.8h9.01
		c1.43,0,2.13-0.16,2.37-1.72l3.81-24.1h18.28c1.91,0,2.1-0.65,2.3-1.89l0.71-4.38c0.22-1.4-0.44-1.47-1.86-1.47H114.1l2.61-16.49
		C116.71,8.37,138.71,8.37,138.71,8.37z M109.24,75.73c0.42-0.57,0.51-1.12,0.6-1.57l1.08-6.78c0.04-0.23-0.06-0.28-0.31-0.28h-1.11
		c-0.26,0-0.33,0.04-0.38,0.31l-1.03,6.56c-0.07,0.42-0.32,1.86-2.21,1.86c-1.92,0-1.76-1.4-1.67-2.01l1.02-6.46
		c0.03-0.26-0.04-0.28-0.31-0.28h-1.62c-0.23,0-0.32,0.03-0.36,0.28l-1.05,6.67c-0.09,0.57-0.12,1.18,0.09,1.69
		c0.45,1.18,1.89,1.59,3.42,1.59C108.1,77.3,109.05,75.99,109.24,75.73z M120.42,67.12h-1.57c-0.31,0-0.35,0.1-0.39,0.29l-1.48,9.36
		c-0.04,0.25,0.09,0.31,0.32,0.31h1.53c0.2,0,0.36-0.04,0.41-0.31l1.47-9.36C120.74,67.16,120.65,67.12,120.42,67.12z M144.74,67.73
		c-0.89-0.67-2.31-0.63-3.29-0.63h-2.62c-0.31,0.01-0.41,0.09-0.47,0.41l-1.46,9.27c-0.06,0.26,0.09,0.29,0.31,0.29h1.43
		c0.32,0,0.39-0.07,0.44-0.33l1.31-8.3h1.19c0.76,0.01,1.86,0.16,1.62,1.72c-0.2,1.31-1.28,1.66-2.29,1.76
		c-1,0.1-0.33,1.25-0.33,1.25l1.89,3.62c0.12,0.23,0.16,0.28,0.49,0.28h1.66c0.12,0,0.33,0,0.35-0.2c0.01-0.09-0.03-0.17-0.09-0.28
		l-2.42-4.15c1.21-0.32,2.74-1.11,2.98-2.65C145.61,69.02,145.38,68.24,144.74,67.73z M205.55,67.73c-0.87-0.67-2.31-0.63-3.29-0.63
		h-2.62c-0.29,0.01-0.41,0.09-0.45,0.41l-1.47,9.27c-0.03,0.26,0.09,0.29,0.32,0.29h1.43c0.32,0,0.39-0.07,0.44-0.33l1.31-8.3h1.19
		c0.76,0.01,1.86,0.16,1.62,1.72c-0.2,1.31-1.28,1.66-2.29,1.76c-1,0.1-0.32,1.25-0.32,1.25l1.89,3.62
		c0.13,0.23,0.16,0.28,0.49,0.28h1.66c0.12,0,0.33,0,0.36-0.2c0.01-0.09-0.04-0.17-0.09-0.28l-2.42-4.15
		c1.19-0.32,2.74-1.11,2.98-2.65C206.41,69.02,206.19,68.24,205.55,67.73z M177.33,67.1h-1.6c-0.31,0-0.36,0.04-0.54,0.32
		l-3.55,6.43l-1.62-6.45c-0.1-0.26-0.15-0.31-0.45-0.31h-1.56c-0.26,0-0.35,0.07-0.39,0.31l-1.47,9.36
		c-0.04,0.25,0.01,0.32,0.29,0.32h0.99c0.23,0,0.35-0.06,0.39-0.29l1.08-6.78l1.62,6.81c0.07,0.25,0.16,0.33,0.42,0.33
		c0.25,0,0.31-0.07,0.47-0.31l3.77-6.83l-1.06,6.75c-0.04,0.26,0,0.32,0.31,0.32h1.31c0.31,0,0.39-0.03,0.45-0.29l1.48-9.42
		C177.66,67.14,177.59,67.1,177.33,67.1L177.33,67.1z M196.54,67.12h-1.56c-0.29,0-0.33,0.1-0.39,0.29l-1.48,9.36
		c-0.03,0.25,0.09,0.31,0.32,0.31h1.53c0.22,0,0.36-0.04,0.41-0.31l1.47-9.36C196.89,67.16,196.79,67.12,196.54,67.12L196.54,67.12z
		 M213.7,75.75h-3.77l1.31-8.35c0.04-0.23-0.03-0.29-0.31-0.29h-1.53c-0.25,0-0.35,0.04-0.38,0.29l-1.48,9.4
		c-0.03,0.26,0.07,0.28,0.28,0.28h5.63c0.28,0,0.35-0.04,0.41-0.28l0.12-0.77C214.02,75.8,213.98,75.75,213.7,75.75L213.7,75.75z
		 M219,67.12h-1.56c-0.29,0-0.35,0.1-0.39,0.29l-1.47,9.36c-0.04,0.25,0.09,0.31,0.32,0.31h1.53c0.22,0,0.36-0.04,0.41-0.31
		l1.48-9.36C219.34,67.16,219.25,67.12,219,67.12z M230.12,67.12h-1.03c-0.26,0-0.35,0.07-0.38,0.28l-0.99,6.29l-3.94-6.32
		c-0.15-0.22-0.2-0.25-0.48-0.25h-1.25c-0.22,0-0.36,0.03-0.41,0.29l-1.48,9.39c-0.04,0.26,0.06,0.28,0.32,0.28h1.03
		c0.28,0,0.33-0.07,0.38-0.31l1.08-6.84l4.28,6.86c0.15,0.22,0.19,0.26,0.38,0.29h0.93c0.25,0,0.35-0.04,0.39-0.28l1.48-9.4
		C230.46,67.16,230.4,67.1,230.12,67.12z M247.08,67.1h-2.07c-2.1,0-3.58,0.16-4.32,2.13c-0.58,1.56,0.35,2.68,1.14,3.16l2.26,1.21
		c0.44,0.26,0.68,0.6,0.47,1.18c-0.25,0.71-0.99,0.98-1.83,0.98h-2.77c-0.28,0-0.39,0.03-0.42,0.31l-0.12,0.76
		c-0.06,0.26,0.1,0.26,0.33,0.26h2.47v0.01c2.04,0,3.83-0.25,4.56-2.26c0.61-1.7-0.86-2.74-1.38-3.04c0,0-1.98-1.08-2.23-1.22
		c-0.44-0.26-0.7-0.6-0.51-1.22c0.25-0.71,0.8-0.9,1.64-0.9h2.55c0.28,0,0.39-0.03,0.42-0.31l0.12-0.76
		C247.47,67.1,247.31,67.1,247.08,67.1L247.08,67.1z M115.56,67.1h-1.54c-0.28-0.01-0.35,0.1-0.38,0.31l-1.02,6.33
		c0,0-0.15,0.96-0.29,1.44c-0.33,1.09-1.19,3.06-3.13,3.99c0,0-0.42,0.16-0.47,0.45c-0.01,0.13,0,0.33,0.38,0.38
		c0.23,0.01,0.52-0.01,1.02-0.16c1.75-0.54,2.84-1.54,3.49-2.52c1-1.63,1.27-3.64,1.27-3.64l0.99-6.27
		C115.92,67.16,115.85,67.1,115.56,67.1z M100.84,67.12h-5.79c-0.28,0.01-0.38,0.09-0.41,0.33l-1.48,9.32
		c-0.03,0.25,0.01,0.31,0.32,0.31h1.56c0.25,0,0.38-0.03,0.41-0.29l0.65-4.16h3.14c0.33,0,0.36-0.12,0.39-0.32l0.13-0.76
		c0.03-0.23-0.07-0.25-0.32-0.25H96.3l0.45-2.85h3.78c0.29,0,0.35-0.09,0.39-0.26c0-0.04,0.15-0.87,0.15-0.89
		C101.09,67.14,101,67.12,100.84,67.12L100.84,67.12z M188.8,67.32c-0.06-0.19-0.1-0.22-0.35-0.22h-0.96
		c-0.26,0-0.33,0.07-0.45,0.26l-5.46,9.26c-0.06,0.08-0.11,0.17-0.15,0.26c-0.03,0.17,0.16,0.17,0.29,0.17h1.08
		c0.28,0,0.33-0.04,0.47-0.26l3.96-7.18l0.84,3.64h-1.62c-0.23,0-0.33,0.1-0.36,0.16c-0.01,0.01-0.33,0.58-0.44,0.77
		c-0.01,0.04-0.17,0.33,0.29,0.33h2.45l0.6,2.29c0.09,0.25,0.15,0.25,0.42,0.25h1.66c0.12,0,0.28-0.01,0.31-0.17
		c0.01-0.06,0-0.12-0.03-0.19L188.8,67.32L188.8,67.32z M162.05,67.32c-0.07-0.19-0.1-0.22-0.35-0.22h-0.96
		c-0.26,0-0.32,0.07-0.44,0.26l-5.47,9.26l-0.15,0.26c-0.01,0.17,0.17,0.17,0.29,0.17h1.09c0.28,0,0.33-0.04,0.48-0.26l3.96-7.18
		l0.84,3.64h-1.63c-0.25,0-0.33,0.1-0.36,0.16c0,0.01-0.32,0.58-0.42,0.77c-0.03,0.04-0.17,0.33,0.28,0.33h2.45l0.61,2.29
		c0.07,0.25,0.13,0.25,0.41,0.25h1.66c0.12,0,0.29-0.01,0.31-0.17c0.01-0.06,0-0.12-0.03-0.19
		C164.61,76.69,162.05,67.32,162.05,67.32z M134.58,68.26c-1.37-1.22-3.09-1.28-4.06-1.28c-1.06,0-2.53,0.13-2.53,0.13
		c-0.31,0.01-0.42,0.09-0.47,0.41c0,0-1.32,8.62-1.41,9.11c-0.06,0.35,0.25,0.42,0.38,0.44c0.03,0.01,1.15,0.1,1.8,0.13
		c0.57,0.01,1.16,0.01,1.89-0.12c1.25-0.19,2.43-0.63,3.48-1.43c0.52-0.41,1.8-1.5,2.13-3.55
		C136.15,69.88,135.12,68.72,134.58,68.26z M133.55,72.15c-0.2,1.27-0.68,1.78-1.19,2.27c-0.92,0.89-2.1,1.22-3.16,1.22h-0.67
		l1.18-7.28h0.55c1.28,0,2.23,0.33,2.84,1.19C133.31,69.88,133.78,70.65,133.55,72.15z M246.73,56.23L232.04,1.86
		c-0.41-1.06-0.65-1.24-2.1-1.24h-5.53c-1.53,0-1.88,0.41-2.53,1.56c0,0-32.33,54.82-32.34,54.86c-0.45,0.77-0.09,1.4,1.46,1.4h6.29
		c1.62,0,1.94-0.25,2.72-1.56l22.97-41.6l4.85,21.06h-9.4c-1.4,0-1.92,0.63-2.08,0.93c-0.06,0.1-1.89,3.38-2.49,4.5
		c-0.16,0.29-1.06,1.94,1.62,1.94h14.15l3.46,13.26c0.45,1.4,0.82,1.47,2.43,1.47h9.64C246.39,58.44,247.22,58.06,246.73,56.23
		L246.73,56.23z M154.48,67.12h-5.73c-0.29,0.01-0.41,0.09-0.45,0.41l-1.47,9.24c-0.04,0.29,0.06,0.32,0.33,0.32h5.73
		c0.28,0,0.35-0.04,0.41-0.17l0.13-0.87c0.04-0.26-0.09-0.28-0.33-0.28h-3.9l0.49-3.11h3.27c0.31,0,0.35-0.09,0.39-0.26
		c0.01-0.03,0.15-0.82,0.15-0.82c0.03-0.23-0.07-0.25-0.32-0.25h-3.27l0.45-2.85h3.92c0.28,0,0.35-0.04,0.41-0.19l0.13-0.87
		C154.86,67.13,154.72,67.12,154.48,67.12z M238.9,67.12h-5.72c-0.29,0.01-0.41,0.09-0.45,0.41l-1.46,9.24
		c-0.06,0.29,0.07,0.32,0.33,0.32h5.72c0.28,0,0.35-0.04,0.41-0.17l0.13-0.87c0.04-0.26-0.09-0.28-0.32-0.28h-3.9l0.49-3.11h3.29
		c0.31,0,0.36-0.09,0.39-0.26c0-0.03,0.13-0.82,0.13-0.82c0.03-0.23-0.07-0.25-0.32-0.25h-3.27l0.45-2.85h3.89
		c0.28,0,0.35-0.04,0.41-0.19l0.13-0.87C239.28,67.13,239.15,67.12,238.9,67.12z"/>
</g>
</svg>
