<?xml version="1.0" encoding="utf-8"?>
<!-- Generator: Adobe Illustrator 25.4.1, SVG Export Plug-In . SVG Version: 6.00 Build 0)  -->
<svg version="1.1" id="Layer_1" xmlns="http://www.w3.org/2000/svg" xmlns:xlink="http://www.w3.org/1999/xlink" x="0px" y="0px"
	 viewBox="0 0 79.8 80" style="enable-background:new 0 0 79.8 80;" xml:space="preserve">
<style type="text/css">
	.st0{fill:#222879;}
	.st1{fill:#BB1F35;}
</style>
<path class="st0" d="M39.9,0C17.9,0,0,17.9,0,39.9c0,22,17.8,39.9,39.8,39.9l-3.1-3l0.4-0.1C18,75.3,3,59.3,3,39.9
	C3,19.5,19.5,3,39.9,3c8.4,0,16.1,2.8,22.3,7.5c1.3,1.1,2.8,4.6,1.2,6.7c-1.7,2.2-8.4,9.5-12.7,13.2c-4.4,3.7-14.4,13-19.1,20.3
	c-4.7,7.3,1.7,14,1.7,14l11.9,11.6c0,0,0,0,0,0l2.7,2.6c18.2-3.7,31.9-19.8,31.9-39.1C79.8,17.9,61.9,0,39.9,0z M48.3,75.8
	c0,0-4.2-3.1-6.8-6.1c-2.6-3-0.9-7.4,0.8-9.9c1.7-2.6,9.7-9.7,17.2-17.1c7.5-7.4,9.9-11.9,9.9-11.9c2.8-5.1,2.1-9.2,2.1-9.9
	c3.4,5.6,5.3,12.1,5.3,19.1C76.8,57.4,64.6,72.1,48.3,75.8z"/>
<path class="st1" d="M43.3,80l2.3-0.2c0,0-10.3-11-14.2-14.8c-3.9-3.8-12.8-13.1-17.1-16c-4.3-2.9-10-5.2-10.4-5.3
	c-0.3-0.1-0.6,0.1-0.4,0.8s2.9,6.8,7.3,9.6c0,0,11.4,5.7,15.3,8.8C30,66.1,43.3,80,43.3,80z"/>
</svg>
