<?xml version="1.0" encoding="utf-8"?>
<!-- Generator: Adobe Illustrator 25.4.1, SVG Export Plug-In . SVG Version: 6.00 Build 0)  -->
<svg version="1.1" id="Layer_1" xmlns="http://www.w3.org/2000/svg" xmlns:xlink="http://www.w3.org/1999/xlink" x="0px" y="0px"
	 viewBox="0 0 338.8 80" style="enable-background:new 0 0 338.8 80;" xml:space="preserve">
<style type="text/css">
	.st0{fill:#222879;}
	.st1{fill:#BB1F35;}
</style>
<g>
	<path class="st0" d="M39.9,0C17.9,0,0,17.9,0,39.9c0,22,17.8,39.9,39.8,39.9l-3.1-3l0.4-0.1C18,75.3,3,59.3,3,39.9
		C3,19.5,19.5,3,39.9,3c8.4,0,16.1,2.8,22.3,7.5c1.3,1.1,2.8,4.6,1.2,6.7c-1.7,2.2-8.4,9.5-12.7,13.2c-4.4,3.7-14.4,13-19.1,20.3
		c-4.7,7.3,1.7,14,1.7,14l11.9,11.6c0,0,0,0,0,0l2.7,2.6c18.2-3.7,31.9-19.8,31.9-39.1C79.8,17.9,61.9,0,39.9,0z M48.3,75.8
		c0,0-4.2-3.1-6.8-6.1c-2.6-3-0.9-7.4,0.8-9.9c1.7-2.6,9.7-9.7,17.2-17.1c7.5-7.4,9.9-11.9,9.9-11.9c2.8-5.1,2.1-9.2,2.1-9.9
		c3.4,5.6,5.3,12.1,5.3,19.1C76.8,57.4,64.6,72.1,48.3,75.8z"/>
	<path class="st1" d="M43.3,80l2.3-0.2c0,0-10.3-11-14.2-14.8c-3.9-3.8-12.8-13.1-17.1-16c-4.3-2.9-10-5.2-10.4-5.3
		c-0.3-0.1-0.6,0.1-0.4,0.8s2.9,6.8,7.3,9.6c0,0,11.4,5.7,15.3,8.8C30,66.1,43.3,80,43.3,80z"/>
	<polygon class="st1" points="105,55.1 109.3,9.7 127.6,9.7 134,38.4 144.2,9.2 162.9,9.2 161.5,55.9 150.1,55.9 150.8,22.7 
		139,55.6 127.2,55.6 119.2,23.7 115.9,55.4 105,55.4 	"/>
	<polygon class="st1" points="170.4,55.9 173.1,9.6 211.6,9.6 209.6,19 186.9,19 186,27.7 204.6,27.7 204.5,36.4 185.8,36.4 
		185.3,46.3 208.1,46.3 208.1,55.9 	"/>
	<path class="st1" d="M217.4,55.9h13.8l-0.3-37.8H241c0,0,6.4-0.4,6.4,5.9c0,0-0.1,8.4-12.1,7.3l8.3,24.6h14.1l-9-20.4
		c0,0,10.9-2.7,10.9-12.8s-8.2-13.5-14.2-13.5c-6,0-26.1,0-26.1,0L217.4,55.9z"/>
	<path class="st1" d="M301.2,9.2h-16.4l-24.6,46.7h15l5.9-13.2h18.5l3.7,12.5H318L301.2,9.2z M285.1,33l7.2-13.7l5.1,13.7H285.1z"/>
	<path class="st0" d="M294.6,72.8h3.4l-0.1-9.5h2.5c0,0,1.6-0.1,1.6,1.5c0,0,0,2.1-3,1.8l2.1,6.1h3.5l-2.3-5.1c0,0,2.7-0.7,2.7-3.2
		c0-2.5-2.1-3.4-3.6-3.4c-1.5,0-6.5,0-6.5,0L294.6,72.8z"/>
	<path class="st0" d="M282.1,61.1H278l-6.1,11.7h3.8l1.5-3.3h4.6l0.9,3.1h3.6L282.1,61.1z M278,67l1.8-3.4l1.3,3.4H278z"/>
	<path class="st1" d="M308.9,72.9l-3.1-10.7h14.9c0,0,4.9-1,4.9-5.1s0-47.8,0-47.8h13.1l-0.5,51.9c0,0,0.1,11.7-12.1,11.7
		C314,72.9,308.9,72.9,308.9,72.9z"/>
	<polygon class="st0" points="270.7,64.6 105,64.6 105,60.6 272.6,60.6 	"/>
	<polygon class="st0" points="266.8,72.7 105,72.7 105,68.7 268.6,68.7 	"/>
	<polygon class="st0" points="288.2,72.8 288.7,61.1 292.1,61.1 291.7,72.8 	"/>
</g>
</svg>
