<svg width="80" height="80" viewBox="0 0 80 80" fill="none" xmlns="http://www.w3.org/2000/svg">
<path fill-rule="evenodd" clip-rule="evenodd" d="M20.7402 32.7465L29.6495 30.2088C29.6495 30.2088 29.5541 29.6154 29.2347 29.3241C28.9152 29.0329 28.3406 28.8528 28.3406 28.8528L15.9575 24.3673C15.9575 24.3673 15.5644 24.2355 15.2772 24.3941C14.99 24.5528 15.0002 24.9649 15.0002 24.9649V30.7073C15.0002 30.7073 14.9693 31.2571 15.7678 32.4894C16.5664 33.7217 18.458 33.4079 18.458 33.4079L20.7402 32.7465Z" fill="#ED1651"/>
<path fill-rule="evenodd" clip-rule="evenodd" d="M56.2121 18.8907L64.4997 14.2606C64.4997 14.2606 64.6245 13.4606 64.3051 13.1693C63.9856 12.878 63.6052 12.7884 63.6052 12.7884L27.8129 0.0513742C27.8129 0.0513742 27.4198 -0.0804384 27.1325 0.0782089C26.8453 0.236856 26.8555 0.649007 26.8555 0.649007V5.6001C26.8555 5.6001 26.8505 6.7473 27.6491 7.97961C28.4477 9.21192 29.7435 9.53096 29.7435 9.53096L56.2121 18.8907Z" fill="#ED1651"/>
<path fill-rule="evenodd" clip-rule="evenodd" d="M56.208 33.3025L64.4956 29.0211C64.4956 29.0211 64.6722 27.9369 64.3527 27.6457C64.0333 27.3544 63.6011 27.2002 63.6011 27.2002L15.9574 9.9431C15.9574 9.9431 15.5643 9.81129 15.2771 9.96993C14.9899 10.1286 15 10.5407 15 10.5407V15.4918C15 15.4918 14.9951 16.639 15.7936 17.8713C16.5922 19.1036 17.888 19.4227 17.888 19.4227L56.208 33.3025Z" fill="#ED1651"/>
<path fill-rule="evenodd" clip-rule="evenodd" d="M63.6011 12.788C63.6011 12.788 64.0849 12.8611 64.4952 13.2593C64.9055 13.6575 64.9101 14.144 64.9101 14.144V20.6993C64.9101 20.6993 64.8903 21.595 64.5219 22.4004C64.1535 23.2058 63.614 23.3964 63.614 23.3964L62.4915 23.803L26.7225 36.759C26.7225 36.759 26.5505 36.812 26.3267 36.812C26.1029 36.812 25.9309 36.759 25.9309 36.759L15.965 33.1491C15.965 33.1491 15.7178 33.0918 15.367 32.5438C14.972 31.9289 15.0005 30.7084 15.0005 30.7084C15.0005 30.7084 15.0624 31.3341 15.4171 31.6313C15.7718 31.9285 16.7172 31.6025 16.7172 31.6025L62.4918 15.0222C62.4918 15.0222 64.3094 14.2828 64.3094 13.5315C64.3094 13.0128 63.6014 12.7901 63.6014 12.7901L63.6011 12.788Z" fill="#2A0088"/>
<path fill-rule="evenodd" clip-rule="evenodd" d="M63.6013 27.198C63.6013 27.198 64.0851 27.2711 64.4954 27.6693C64.9057 28.0676 64.9102 28.554 64.9102 28.554V35.1094C64.9102 35.1094 64.8905 36.005 64.5221 36.8104C64.1537 37.6159 63.6142 37.8064 63.6142 37.8064L62.4917 38.213L26.7227 51.1691V42.3862L62.4917 29.4301C62.4917 29.4301 64.3093 28.6907 64.3093 27.9395C64.3093 27.4208 63.6012 27.198 63.6012 27.198L63.6013 27.198Z" fill="#2A0088"/>
<path fill-rule="evenodd" clip-rule="evenodd" d="M45.8454 50.2712C46.1877 50.6126 46.1877 51.3638 46.1877 51.3638V56.2658C46.1877 56.2658 46.168 57.1614 45.7996 57.9669C45.4312 58.7723 44.8917 58.9628 44.8917 58.9628L43.7692 59.3694L26.7227 65.5442V56.7613L43.7692 50.5866C43.7692 50.5866 45.5031 49.9298 45.8454 50.2712L45.8454 50.2712Z" fill="#2A0088"/>
<path fill-rule="evenodd" clip-rule="evenodd" d="M34.8489 68.6017C35.1912 68.9431 35.1912 69.6944 35.1912 69.6944V74.5964C35.1912 74.5964 35.1715 75.492 34.8031 76.2974C34.4347 77.1029 33.8952 77.2934 33.8952 77.2934L32.7727 77.7L26.7227 80V71.2171L32.7727 68.9171C32.7727 68.9171 34.5066 68.2604 34.8489 68.6018L34.8489 68.6017Z" fill="#2A0088"/>
</svg>
