<?xml version="1.0" encoding="utf-8"?>
<!-- Generator: Adobe Illustrator 25.4.1, SVG Export Plug-In . SVG Version: 6.00 Build 0)  -->
<svg version="1.1" id="Layer_1" xmlns="http://www.w3.org/2000/svg" xmlns:xlink="http://www.w3.org/1999/xlink" x="0px" y="0px"
	 viewBox="0 0 80.01 80" style="enable-background:new 0 0 80.01 80;" xml:space="preserve">
<style type="text/css">
	.st0{fill:#CC0000;}
	.st1{fill:#FFFFFF;}
</style>
<polygon class="st0" points="43.68,64.77 40.61,64.77 43.54,61.11 "/>
<path class="st0" d="M79.66,34.67c0-0.05-0.06-0.05-0.07,0c-1.29,5.38-4.39,10.14-8.8,13.48c-0.02,0.02-0.05,0.02-0.07,0
	c-0.01-0.02-0.01-0.05,0.01-0.07c2.33-2.42,4.21-5.22,5.58-8.24c1.37-3.02,2.21-6.28,2.49-9.63c-0.89-3.52-2.25-6.9-4.06-10.05
	c-0.03-0.04-0.07-0.03-0.06,0.02c1.09,8.06-1.45,16.18-6.93,22.19c-0.01,0.02-0.04,0.03-0.07,0.02c-0.02-0.02-0.03-0.05-0.01-0.07
	c0,0,0,0,0-0.01c5.3-7.59,6.96-17.14,4.51-26.07C59.06-1.53,34.02-5.3,16.25,7.82c-3.21,2.37-6.05,5.21-8.42,8.42
	c-2.44,8.93-0.79,18.48,4.51,26.07c0.01,0.02,0.01,0.05-0.01,0.07c-0.02,0.01-0.05,0.01-0.07-0.01c-4.65-5.09-7.18-11.7-7.18-18.51
	c0-1.22,0.08-2.45,0.25-3.68c0-0.05-0.04-0.06-0.06-0.02c-1.81,3.15-3.17,6.53-4.06,10.05c0.55,6.71,3.4,13.02,8.07,17.87
	c0.02,0.01,0.02,0.04,0.01,0.07c-0.02,0.02-0.05,0.02-0.07,0c-2.2-1.67-4.08-3.69-5.57-5.97c-1.49-2.28-2.59-4.82-3.23-7.51
	c0-0.05-0.07-0.05-0.07,0c-0.39,2.94-0.45,5.91-0.19,8.85c1.44,4.11,3.97,7.74,7.31,10.52c0.05,0.05,0,0.12-0.05,0.09
	c-2.56-1.52-4.78-3.54-6.52-5.94c-0.02-0.04-0.06-0.02-0.05,0.02C5.38,69.83,26.58,83.67,48.2,79.14
	c15.53-3.26,27.67-15.4,30.92-30.93c0-0.04-0.02-0.06-0.05-0.02c-1.74,2.4-3.96,4.43-6.52,5.94c-0.06,0.03-0.11-0.04-0.05-0.09
	c3.34-2.78,5.87-6.41,7.32-10.52h0.04C80.12,40.58,80.05,37.61,79.66,34.67z M25.15,69.6h-0.01c-1.27,0.01-2.54-0.12-3.79-0.38
	l0.93-2.43c2.5,0.29,4.64,0.08,5.48-2.1l2.64-6.91h5.46l-2.92,7.61C31.58,68.38,28.4,70.1,25.15,69.6z M43.81,69.22l-0.09-2.26H38.8
	l-1.81,2.26h-4.51l9.14-10.58c0.41-0.51,1.02-0.82,1.68-0.86h4.87l1.09,11.44H43.81z M63.1,69.22H50.73l4.39-11.44h5.45L57.1,66.8
	h6.93L63.1,69.22z M61.7,40.57c-1.03,1.63-2.25,3.13-3.62,4.49l-0.01,0.01c-8.18,7.96-20.39,2.87-19.15-6.9
	c0.95-7.54,10.19-15.04,17.19-19.12c0.02-0.01,0.03-0.05,0.01-0.07c0-0.01-0.01-0.01-0.01-0.01c-0.92-0.88-2.82-2.85-4.05-4.33
	c-2.73-3.5-7.78-4.12-11.29-1.39c-0.59,0.47-1.11,1.01-1.56,1.62L19.1,16.74c-0.03,0-0.06,0.02-0.06,0.06
	c0,0.03,0.03,0.06,0.06,0.06l21.56,1.25c3.82,0.21,5.07,3.68,1.38,6.47C28.35,34.96,25.91,45.95,28.98,54.65
	c0.01,0.03-0.01,0.06-0.04,0.07c-0.02,0.01-0.05,0-0.06-0.02c-1.31-1.89-2.23-4.01-2.72-6.25C14.17,40.8,10.65,24.89,18.29,12.9
	C25.93,0.92,41.84-2.61,53.83,5.03C65.82,12.67,69.34,28.58,61.7,40.57z"/>
<polygon class="st1" points="64.03,66.8 63.1,69.22 50.73,69.22 55.12,57.78 60.57,57.78 57.1,66.8 "/>
<path class="st1" d="M48.17,57.78H43.3c-0.66,0.04-1.27,0.35-1.68,0.86l-9.14,10.58h4.51l1.81-2.26h4.92l0.09,2.26h5.45L48.17,57.78
	z M40.61,64.77l2.93-3.66l0.14,3.66H40.61z"/>
<path class="st1" d="M35.86,57.78l-2.92,7.61c-1.36,2.99-4.54,4.71-7.79,4.21h-0.01c-1.27,0.01-2.54-0.12-3.79-0.38l0.93-2.43
	c2.5,0.29,4.64,0.08,5.48-2.1l2.64-6.91H35.86z"/>
</svg>
