<?xml version="1.0" encoding="utf-8"?>
<!-- Generator: Adobe Illustrator 25.4.1, SVG Export Plug-In . SVG Version: 6.00 Build 0)  -->
<svg version="1.1" id="Layer_1" xmlns="http://www.w3.org/2000/svg" xmlns:xlink="http://www.w3.org/1999/xlink" x="0px" y="0px"
	 viewBox="0 0 300.25 80" style="enable-background:new 0 0 300.25 80;" xml:space="preserve">
<style type="text/css">
	.st0{fill-rule:evenodd;clip-rule:evenodd;fill:#E20177;}
	.st1{fill-rule:evenodd;clip-rule:evenodd;fill:#A9218E;}
</style>
<g>
	<path class="st0" d="M279,24.99h-5.8c0-1.29,0.13-2.7,0.26-3.99c0.26-1.42,0.64-2.83,1.16-4.12h5.8l0.39-2.19
		c0.26-1.16,0.39-2.32,0.39-3.48s0.13-2.06,0.13-2.83c1.55-0.9,3.09-1.55,4.89-1.8c1.8-0.39,3.61-0.52,5.41-0.52
		c0.26,0.9,0.39,1.93,0.39,2.83s-0.13,1.67-0.13,2.58c-0.13,0.9-0.26,1.93-0.52,2.96l-0.39,2.45h9.27c0,1.42-0.13,2.7-0.39,4.12
		c-0.26,1.29-0.64,2.7-1.03,3.99h-9.27l-2.58,14.68c-0.13,0.64-0.13,1.29-0.26,1.93c-0.13,0.52-0.13,1.16-0.13,1.67
		c0,1.03,0.26,2.19,0.9,3.09c0.9,0.9,2.19,1.29,3.35,1.16c0.77,0,1.55,0,2.19-0.13s1.29-0.26,1.8-0.39c0.77,1.8,1.03,3.74,1.03,5.67
		v1.16c0,0.39,0,0.77-0.13,1.16c-2.45,0.64-5.15,1.03-7.73,1.03c-4.12,0-7.34-0.77-9.27-2.32s-3.09-4.12-3.09-7.73
		c0-0.77,0-1.55,0.13-2.32c0.13-0.77,0.26-1.67,0.39-2.58L279,24.99z M251.82,33.23c1.55-0.26,3.09-0.64,4.64-1.16
		c1.03-0.39,1.93-0.9,2.83-1.55c0.64-0.52,1.03-1.03,1.42-1.8c0.26-0.52,0.39-1.16,0.39-1.8c0-0.9-0.26-1.67-0.9-2.32
		c-0.64-0.64-1.55-0.9-2.45-0.9c-1.29,0-2.45,0.26-3.61,0.9c-1.03,0.52-2.06,1.29-2.83,2.32c-0.77,1.03-1.55,2.06-2.06,3.22
		c-0.52,1.16-1.03,2.45-1.29,3.74L251.82,33.23z M247.57,40.83c0.13,2.06,1.03,3.86,2.45,5.28c1.55,1.29,3.61,1.93,5.67,1.8
		c1.8,0,3.61-0.13,5.28-0.64c1.67-0.52,3.22-1.03,4.77-1.67c0.77,1.03,1.42,2.32,1.55,3.61c0.26,1.55,0.39,2.96,0.39,4.51
		c-0.9,0.39-1.93,0.77-2.96,1.03c-1.16,0.39-2.32,0.64-3.48,0.77c-1.16,0.26-2.45,0.39-3.61,0.52c-1.03,0.13-2.19,0.13-3.22,0.13
		c-2.71,0-5.28-0.26-7.86-1.16c-2.06-0.64-3.86-1.67-5.41-3.22c-1.42-1.42-2.45-3.09-3.09-5.02c-0.64-2.06-1.03-4.25-1.03-6.57
		c0-3.09,0.52-6.05,1.55-8.89c1.03-2.83,2.58-5.54,4.51-7.86c1.93-2.32,4.38-4.25,7.08-5.54c2.83-1.42,6.05-2.19,9.27-2.06
		c1.55,0,3.09,0.13,4.64,0.64c1.29,0.39,2.58,1.03,3.74,1.8c1.03,0.77,1.93,1.8,2.45,2.96c0.64,1.29,0.9,2.7,0.9,4.12
		c0,2.06-0.52,4.12-1.55,5.8c-1.03,1.67-2.45,3.09-4.12,4.12c-1.8,1.16-3.86,2.19-5.93,2.83c-2.32,0.77-4.51,1.29-6.96,1.55
		L247.57,40.83z M225.16,10.18c-0.13-1.55,0-3.22,0.26-4.77c0.26-1.67,0.77-3.22,1.29-4.77c1.03-0.26,1.93-0.39,2.96-0.52
		C230.57,0,231.34,0,232.24,0c0.77,0,1.67,0.13,2.45,0.13c0.9,0.13,1.8,0.26,2.71,0.52c0,1.55-0.13,2.96-0.39,4.51
		c-0.26,1.67-0.77,3.35-1.29,4.89c-1.03,0.26-1.93,0.39-2.96,0.52c-1.03,0.13-1.8,0.13-2.58,0.13c-0.77,0-1.55,0-2.58-0.13
		C226.96,10.56,226.06,10.43,225.16,10.18z M222.97,24.99h-4.77c0-0.13,0-0.39,0-0.52s0-0.39,0-0.52c0-1.16,0.13-2.32,0.39-3.48
		c0.26-1.16,0.64-2.32,1.03-3.48h15.07l-9.66,49.46c-0.9,4.77-2.7,8.24-5.8,10.3c-3.22,2.19-7.08,3.35-11.08,3.22
		c-2.19,0-4.38-0.26-6.57-0.77c0-0.26-0.13-0.52-0.13-0.9v-0.77c0-2.19,0.52-4.25,1.55-6.18c0.64,0.13,1.29,0.26,1.93,0.39
		s1.29,0.13,1.93,0.13c0.9,0,1.67-0.13,2.58-0.26c0.77-0.13,1.55-0.52,2.32-1.03c0.77-0.64,1.42-1.29,1.8-2.19
		c0.64-1.16,1.03-2.45,1.29-3.74L222.97,24.99z M192.57,48.3c1.8,0,3.48-0.64,4.77-1.8c1.29-1.29,2.45-2.7,3.22-4.38
		c0.77-1.8,1.42-3.61,1.8-5.54c0.39-1.8,0.52-3.48,0.52-5.28c0-4.64-1.93-6.83-5.67-6.83c-1.8,0-3.48,0.64-4.77,1.8
		c-1.29,1.29-2.32,2.83-3.09,4.51c-0.77,1.8-1.42,3.74-1.67,5.67c-0.26,1.8-0.52,3.48-0.52,5.28
		C187.29,46.11,188.96,48.3,192.57,48.3L192.57,48.3z M191.54,56.42c-5.15,0-8.89-1.29-11.34-3.99c-2.45-2.7-3.61-6.31-3.61-11.08
		c0-3.09,0.52-6.05,1.29-9.02c0.9-2.96,2.19-5.67,3.99-8.11c1.8-2.45,4.12-4.38,6.83-5.93c2.96-1.55,6.18-2.32,9.53-2.32
		c5.15,0,9.02,1.42,11.46,4.12c2.45,2.7,3.61,6.44,3.61,11.08c0,3.09-0.39,6.18-1.29,9.15c-0.77,2.96-2.19,5.67-3.99,8.11
		c-1.8,2.45-4.12,4.38-6.83,5.8C198.24,55.65,194.89,56.42,191.54,56.42L191.54,56.42z M141.69,15.46
		c0.77-3.86,1.16-7.86,1.29-11.85c0-0.52,0-1.03,0-1.42s0-0.77-0.13-1.29c0.9-0.13,1.93-0.26,2.96-0.39
		c1.16-0.13,2.06-0.13,2.83-0.13c1.55,0,3.22,0.13,4.77,0.39c0.26,0.9,0.39,1.93,0.39,2.83c0,2.7-0.39,5.41-0.9,7.99l-1.93,10.3
		c0.64-0.77,1.29-1.55,1.93-2.19c0.77-0.77,1.55-1.42,2.45-1.93c1.03-0.64,2.19-1.16,3.35-1.42c1.42-0.39,2.83-0.52,4.38-0.52
		c3.09-0.13,6.05,1.16,7.99,3.61c1.93,2.45,2.83,5.8,2.83,10.3c0,3.09-0.52,6.31-1.29,9.27c-0.9,3.09-2.45,6.05-4.51,8.5
		c-2.32,2.7-5.15,4.77-8.37,6.18c-4.12,1.67-8.5,2.58-12.88,2.45c-4.12,0-8.11-0.77-11.98-2.19L141.69,15.46z M146.58,47.14
		c0.52,0.13,1.03,0.26,1.55,0.39c0.64,0.13,1.29,0.13,1.93,0.13c1.93,0,3.99-0.52,5.67-1.55c1.55-1.03,2.83-2.32,3.86-3.86
		c1.03-1.55,1.8-3.35,2.19-5.15c0.52-1.8,0.64-3.61,0.77-5.54c0-1.55-0.39-3.09-1.03-4.51c-0.77-1.29-2.19-2.06-3.74-1.93
		c-2.32,0-4.51,1.03-5.93,2.96c-1.67,1.93-2.83,5.15-3.61,9.66L146.58,47.14z M76.25,33.49c0.52-3.09,0.9-5.93,1.29-8.37
		c0.26-1.8,0.39-3.74,0.39-5.67v-1.42c0-0.39,0-0.77-0.13-1.29c1.67-0.26,3.22-0.39,4.89-0.39c0.77,0,1.55,0,2.19,0.13
		c0.77,0.13,1.55,0.13,2.45,0.39c0.13,0.39,0.26,0.9,0.26,1.42c0.13,0.77,0.13,1.67,0.13,2.45c0,0.39,0,0.9,0,1.29
		c0,0.39-0.13,1.03-0.13,1.67c1.16-2.19,2.96-4.12,5.15-5.41c2.19-1.42,4.89-2.32,7.47-2.19c2.19-0.13,4.38,0.52,6.18,1.8
		c1.67,1.55,2.58,3.61,2.7,5.8c1.29-2.19,3.09-3.99,5.28-5.28c2.19-1.42,4.77-2.19,7.47-2.19c2.45-0.13,4.89,0.64,6.83,2.19
		c1.55,1.42,2.32,3.86,2.32,7.34c0,1.8-0.13,3.61-0.52,5.41l-4.38,24.47c-1.8,0.26-3.61,0.39-5.41,0.39c-1.67,0-3.48-0.13-5.15-0.39
		l4.12-23.57c0.13-1.03,0.26-2.19,0.26-3.22c0.13-1.03-0.13-2.06-0.77-2.83c-0.64-0.64-1.67-0.9-2.58-0.77
		c-0.77,0-1.55,0.26-2.32,0.52c-1.03,0.52-1.8,1.16-2.45,2.06c-1.03,1.29-1.8,2.58-2.45,4.12c-0.9,2.19-1.55,4.51-1.93,6.83
		l-2.96,17.13c-1.8,0.26-3.61,0.39-5.41,0.39c-1.67,0-3.48-0.13-5.15-0.39l4.12-23.57c0.13-1.03,0.26-2.19,0.26-3.22
		c0.13-1.03-0.13-2.06-0.77-2.83c-0.64-0.64-1.67-0.9-2.58-0.77c-0.77,0-1.55,0.26-2.32,0.52c-1.03,0.52-1.93,1.29-2.58,2.19
		c-1.03,1.42-1.8,3.09-2.45,4.77c-0.9,2.58-1.67,5.28-2.06,7.99l-2.7,14.94c-1.8,0.26-3.61,0.39-5.41,0.39
		c-1.67,0-3.48-0.13-5.15-0.39L76.25,33.49z M66.34,38.77c-0.52,3.09-0.9,5.93-1.16,8.37c-0.26,2.45-0.39,4.25-0.39,5.67v1.29
		c0,0.39,0,0.77,0.13,1.29c-1.55,0.26-3.22,0.39-4.89,0.39c-1.55,0-3.09-0.13-4.64-0.39c-0.13-0.39-0.26-0.9-0.26-1.42
		C55,53.2,55,52.3,55,51.52v-1.42c0-0.52,0-1.16,0.13-1.67c-1.42,2.32-3.35,4.25-5.54,5.8c-2.32,1.55-5.02,2.32-7.86,2.32
		c-2.83,0.26-5.54-0.9-7.34-3.09c-1.8-2.45-2.58-5.28-2.45-8.24c0-3.61,0.52-7.34,1.67-10.82c1.03-3.35,2.7-6.57,5.02-9.27
		c2.32-2.7,5.02-4.89,8.24-6.44c3.61-1.67,7.6-2.58,11.46-2.45c2.06,0,4.12,0.13,6.18,0.39c1.93,0.26,3.74,0.77,5.67,1.29
		L66.34,38.77z M58.61,24.86c-0.39-0.13-0.9-0.13-1.29-0.13c-0.39,0-0.77,0-1.29,0c-2.19-0.13-4.25,0.52-6.05,1.8
		c-1.67,1.16-3.09,2.7-4.12,4.51c-1.16,1.8-1.93,3.74-2.45,5.8c-0.52,1.8-0.77,3.74-0.77,5.67c0,3.74,1.16,5.54,3.61,5.54
		c2.45,0,4.64-1.42,6.7-4.38c2.32-3.74,3.86-7.86,4.51-12.24L58.61,24.86z M19.71,11.08h-8.37c0-0.64,0.13-1.42,0.13-2.32
		c0.13-0.77,0.26-1.55,0.39-2.32c0.13-0.77,0.26-1.55,0.39-2.32c0.26-0.77,0.39-1.55,0.64-2.32H32.2l-6.83,39.42
		c-1.03,5.41-3.09,9.4-6.05,11.72c-3.48,2.45-7.73,3.61-11.98,3.48c-1.29,0-2.45-0.13-3.74-0.26C2.32,55.9,1.16,55.65,0,55.39
		c0-1.29,0.13-2.83,0.39-4.38c0.13-1.55,0.64-3.22,1.42-4.64c0.52,0.13,1.29,0.26,2.19,0.39s1.8,0.26,2.7,0.26s1.67,0,2.58-0.13
		c0.77-0.13,1.55-0.52,2.32-0.9c0.77-0.52,1.42-1.29,1.93-2.19c0.64-1.29,1.03-2.7,1.29-4.12L19.71,11.08z"/>
	<path class="st1" d="M269.85,69.04c0.26-1.29,0.39-2.45,0.52-3.48c0.13-0.77,0.13-1.55,0.13-2.32v-0.52c0-0.13,0-0.39,0-0.52
		c0.64-0.13,1.29-0.13,2.06-0.13c0.26,0,0.64,0,0.9,0c0.26,0,0.64,0.13,1.03,0.13c0,0.13,0.13,0.39,0.13,0.64
		c0,0.39,0.13,0.64,0,1.03c0,0.13,0,0.39,0,0.52c0,0.13,0,0.39-0.13,0.64c0.52-0.9,1.29-1.67,2.06-2.32c0.9-0.64,1.93-0.9,3.09-0.9
		c0.9,0,1.8,0.26,2.58,0.77c0.64,0.64,1.03,1.55,1.03,2.45c0.52-0.9,1.29-1.67,2.19-2.19c0.9-0.64,1.93-0.9,3.09-0.9
		c1.03-0.13,2.06,0.26,2.83,0.9c0.77,0.9,1.03,1.93,0.9,3.09c0,0.77-0.13,1.55-0.26,2.19l-1.8,10.18c-0.77,0.13-1.55,0.13-2.19,0.13
		c-0.77,0-1.42,0-2.06-0.13l1.67-9.79c0.13-0.39,0.13-0.9,0.13-1.29s-0.13-0.9-0.39-1.16c-0.26-0.26-0.64-0.39-1.03-0.39
		c-0.39,0-0.64,0.13-0.9,0.26c-0.39,0.26-0.77,0.52-1.03,0.77c-0.39,0.52-0.77,1.03-1.03,1.67c-0.39,0.9-0.64,1.8-0.77,2.83
		l-1.29,7.08c-0.77,0.13-1.55,0.13-2.19,0.13c-0.77,0-1.42,0-2.06-0.13l1.67-9.79c0.13-0.39,0.13-0.9,0.13-1.29s-0.13-0.9-0.39-1.16
		c-0.26-0.26-0.64-0.39-1.03-0.39c-0.39,0-0.64,0.13-0.9,0.26c-0.39,0.26-0.77,0.52-1.03,0.9c-0.39,0.64-0.77,1.29-1.03,1.93
		c-0.39,1.03-0.64,2.19-0.9,3.35l-1.16,6.18c-0.77,0.13-1.55,0.13-2.19,0.13c-0.77,0-1.42,0-2.06-0.13L269.85,69.04z M257.75,75.22
		c0.77,0,1.42-0.26,1.93-0.77c0.52-0.52,1.03-1.16,1.29-1.8c0.39-0.77,0.64-1.55,0.77-2.32s0.26-1.42,0.26-2.19
		c0-1.93-0.77-2.83-2.32-2.83c-0.77,0-1.42,0.26-1.93,0.77s-0.9,1.16-1.29,1.93c-0.39,0.77-0.52,1.55-0.64,2.32
		s-0.13,1.42-0.26,2.19C255.56,74.32,256.33,75.22,257.75,75.22z M257.36,78.57c-1.67,0.13-3.48-0.52-4.64-1.67
		c-1.03-1.29-1.55-2.96-1.55-4.64c0-1.29,0.13-2.58,0.52-3.74c0.39-1.16,0.9-2.32,1.67-3.35c0.77-1.03,1.67-1.8,2.83-2.45
		c1.16-0.64,2.58-1.03,3.86-0.9c1.67-0.13,3.48,0.52,4.64,1.67c1.03,1.29,1.55,2.96,1.55,4.64c0,1.29-0.13,2.58-0.52,3.74
		c-0.39,1.16-0.9,2.32-1.67,3.35s-1.67,1.8-2.83,2.45S258.78,78.57,257.36,78.57z M247.57,74.45c0.26,0.39,0.39,0.9,0.52,1.29
		c0.13,0.64,0.26,1.42,0.26,2.06c-0.64,0.26-1.42,0.52-2.06,0.64c-0.77,0.13-1.67,0.13-2.45,0.13c-1.93,0.13-3.74-0.52-5.15-1.67
		c-1.16-1.29-1.67-2.96-1.67-4.77c0-1.29,0.26-2.45,0.64-3.61c0.39-1.16,1.03-2.32,1.8-3.35c0.77-1.03,1.8-1.8,2.83-2.45
		c1.16-0.64,2.58-0.9,3.99-0.9c0.64,0,1.42,0,2.06,0.13s1.29,0.26,1.93,0.52c0,0.64-0.13,1.16-0.26,1.67
		c-0.13,0.64-0.39,1.16-0.77,1.8c-0.39-0.13-0.9-0.39-1.29-0.39c-0.52-0.13-1.03-0.13-1.42-0.13c-0.77,0-1.42,0.13-2.06,0.52
		c-0.64,0.39-1.16,0.9-1.55,1.42c-0.39,0.64-0.77,1.29-0.9,2.06c-0.26,0.77-0.26,1.55-0.26,2.32c-0.13,0.9,0.26,1.8,0.9,2.45
		c0.64,0.52,1.42,0.77,2.19,0.77c0.39,0,0.9,0,1.29-0.13C246.54,74.84,247.06,74.58,247.57,74.45z M228.76,73.68
		c0.39-0.13,0.77-0.13,1.16-0.13c0.39,0,0.77,0,1.16,0c0.39,0,0.77,0,1.03,0c0.39,0,0.77,0.13,1.16,0.13c0,0.77,0,1.55-0.26,2.32
		c-0.13,0.77-0.39,1.55-0.52,2.19c-0.39,0.13-0.77,0.13-1.16,0.13c-0.39,0-0.77,0-1.16,0c-0.39,0-0.77,0-1.03,0
		c-0.39,0-0.77-0.13-1.16-0.13c0-0.77,0-1.55,0.26-2.32C228.38,75.1,228.51,74.45,228.76,73.68z"/>
</g>
</svg>
