<?xml version="1.0" encoding="utf-8"?>
<!-- Generator: Adobe Illustrator 25.4.1, SVG Export Plug-In . SVG Version: 6.00 Build 0)  -->
<svg version="1.1" id="Layer_1" xmlns="http://www.w3.org/2000/svg" xmlns:xlink="http://www.w3.org/1999/xlink" x="0px" y="0px"
	 viewBox="0 0 91.5 80" style="enable-background:new 0 0 91.5 80;" xml:space="preserve">
<style type="text/css">
	.st0{fill:url(#SVGID_1_);}
	.st1{fill:url(#SVGID_00000131347262118482931290000008762553066653954184_);}
	.st2{fill:url(#SVGID_00000111891971843861947620000000119437324651902085_);}
	.st3{fill:url(#SVGID_00000136397820325268545210000005041851425801441447_);}
	.st4{fill:url(#SVGID_00000065052952526869789880000003478664670293189042_);}
</style>
<linearGradient id="SVGID_1_" gradientUnits="userSpaceOnUse" x1="71.9026" y1="84.6988" x2="71.1873" y2="37.8456">
	<stop  offset="0" style="stop-color:#F8C704"/>
	<stop  offset="0.2359" style="stop-color:#F7C305"/>
	<stop  offset="0.4621" style="stop-color:#F4B808"/>
	<stop  offset="0.6846" style="stop-color:#F0A40E"/>
	<stop  offset="0.9034" style="stop-color:#E98915"/>
	<stop  offset="0.9994" style="stop-color:#E67B19"/>
</linearGradient>
<path class="st0" d="M54.5,73.3c0,0,43.6-10.3,36.2-42.5c0,0-3.8,6.3-11.2,10.3c-7.4,4-16.5,7.6-16.5,7.6L51.2,61.2L54.5,73.3z"/>
<linearGradient id="SVGID_00000022533993507836988890000013058164654634110347_" gradientUnits="userSpaceOnUse" x1="91.0877" y1="87.0229" x2="6.3228" y2="22.6445">
	<stop  offset="0" style="stop-color:#F8C704"/>
	<stop  offset="0.2359" style="stop-color:#F7C305"/>
	<stop  offset="0.4621" style="stop-color:#F4B808"/>
	<stop  offset="0.6846" style="stop-color:#F0A40E"/>
	<stop  offset="0.9034" style="stop-color:#E98915"/>
	<stop  offset="0.9994" style="stop-color:#E67B19"/>
</linearGradient>
<path style="fill:url(#SVGID_00000022533993507836988890000013058164654634110347_);" d="M15.2,16.6c0,0,11.4,11.4,10.5,33.4
	c-0.9,22,29,28,29,28L47,57.6l-9.5-35.3C37.5,22.3,32.1,13.9,15.2,16.6z"/>
<linearGradient id="SVGID_00000051363932998270980680000011893537845485828787_" gradientUnits="userSpaceOnUse" x1="-1.6253" y1="96.0162" x2="48.4468" y2="45.9441">
	<stop  offset="0" style="stop-color:#F8C704"/>
	<stop  offset="0.2359" style="stop-color:#F7C305"/>
	<stop  offset="0.4621" style="stop-color:#F4B808"/>
	<stop  offset="0.6846" style="stop-color:#F0A40E"/>
	<stop  offset="0.9034" style="stop-color:#E98915"/>
	<stop  offset="0.9994" style="stop-color:#E67B19"/>
</linearGradient>
<path style="fill:url(#SVGID_00000051363932998270980680000011893537845485828787_);" d="M64.3,79.7c0,0-27.8,3.1-40.6-9.8
	s-7.2-17-23.7-25c0,0,3.9-4.7,14.7-4.5c10.8,0.3,11.4,8.9,12.8,11.8C27.5,52.1,44.8,80.8,64.3,79.7z"/>
<linearGradient id="SVGID_00000122001911790941375220000002284961630251359671_" gradientUnits="userSpaceOnUse" x1="45.665" y1="93.173" x2="49.5993" y2="-1.9639">
	<stop  offset="0" style="stop-color:#F8C704"/>
	<stop  offset="0.2359" style="stop-color:#F7C305"/>
	<stop  offset="0.4621" style="stop-color:#F4B808"/>
	<stop  offset="0.6846" style="stop-color:#F0A40E"/>
	<stop  offset="0.9034" style="stop-color:#E98915"/>
	<stop  offset="0.9994" style="stop-color:#E67B19"/>
</linearGradient>
<path style="fill:url(#SVGID_00000122001911790941375220000002284961630251359671_);" d="M54.7,78c0,0-14-6.6-19-25.9
	s4.1-32.7,4.6-38.8C40.8,7.2,39.6,0,39.6,0s26,3.3,22.2,32.5s-7.1,33.2-7.1,33.2L54.7,78z"/>
<linearGradient id="SVGID_00000100360205589084856900000012337324563603125903_" gradientUnits="userSpaceOnUse" x1="34.0882" y1="95.2776" x2="78.4378" y2="11.9434">
	<stop  offset="0" style="stop-color:#F8C704"/>
	<stop  offset="0.2359" style="stop-color:#F7C305"/>
	<stop  offset="0.4621" style="stop-color:#F4B808"/>
	<stop  offset="0.6846" style="stop-color:#F0A40E"/>
	<stop  offset="0.9034" style="stop-color:#E98915"/>
	<stop  offset="0.9994" style="stop-color:#E67B19"/>
</linearGradient>
<path style="fill:url(#SVGID_00000100360205589084856900000012337324563603125903_);" d="M54.4,76.2c0,0-13-20.5-1.9-38.8
	S69.4,23.6,75.8,8.2c0,0,10.7,12.6,3.3,25.8C71.7,47.3,53.8,57.9,54.4,76.2z"/>
</svg>
