<?xml version="1.0" encoding="utf-8"?>
<!-- Generator: Adobe Illustrator 25.4.1, SVG Export Plug-In . SVG Version: 6.00 Build 0)  -->
<svg version="1.1" id="Layer_1" xmlns="http://www.w3.org/2000/svg" xmlns:xlink="http://www.w3.org/1999/xlink" x="0px" y="0px"
	 viewBox="0 0 512.4 80" style="enable-background:new 0 0 512.4 80;" xml:space="preserve">
<style type="text/css">
	.st0{fill:url(#SVGID_1_);}
	.st1{fill:url(#SVGID_00000132787199222370971130000001320678210666240433_);}
	.st2{fill:url(#SVGID_00000081612394383209489370000015584051870773380006_);}
	.st3{fill-rule:evenodd;clip-rule:evenodd;fill:#0D3C6C;}
	.st4{fill-rule:evenodd;clip-rule:evenodd;fill:#E67A18;}
	.st5{fill:url(#SVGID_00000087396786516081296890000015848123322300353168_);}
	.st6{fill:url(#SVGID_00000111873368723868339230000010328438503133061525_);}
</style>
<g>
	<linearGradient id="SVGID_1_" gradientUnits="userSpaceOnUse" x1="65.2454" y1="76.8568" x2="64.5963" y2="34.3416">
		<stop  offset="0" style="stop-color:#F8C704"/>
		<stop  offset="0.2359" style="stop-color:#F7C305"/>
		<stop  offset="0.4621" style="stop-color:#F4B808"/>
		<stop  offset="0.6846" style="stop-color:#F0A40E"/>
		<stop  offset="0.9034" style="stop-color:#E98915"/>
		<stop  offset="0.9994" style="stop-color:#E67B19"/>
	</linearGradient>
	<path class="st0" d="M49.4,66.5c0,0,39.5-9.3,32.9-38.5c0,0-3.4,5.7-10.1,9.3c-6.7,3.7-15,6.9-15,6.9L46.4,55.5L49.4,66.5z"/>
	
		<linearGradient id="SVGID_00000082359768800189110080000004009720299082166163_" gradientUnits="userSpaceOnUse" x1="82.6543" y1="78.9658" x2="5.7374" y2="20.5479">
		<stop  offset="0" style="stop-color:#F8C704"/>
		<stop  offset="0.2359" style="stop-color:#F7C305"/>
		<stop  offset="0.4621" style="stop-color:#F4B808"/>
		<stop  offset="0.6846" style="stop-color:#F0A40E"/>
		<stop  offset="0.9034" style="stop-color:#E98915"/>
		<stop  offset="0.9994" style="stop-color:#E67B19"/>
	</linearGradient>
	<path style="fill:url(#SVGID_00000082359768800189110080000004009720299082166163_);" d="M13.8,15.1c0,0,10.3,10.3,9.5,30.3
		s26.3,25.4,26.3,25.4l-7-18.5l-8.6-32C34,20.3,29.2,12.6,13.8,15.1z"/>
	
		<linearGradient id="SVGID_00000132048406681816398830000016038543783970556595_" gradientUnits="userSpaceOnUse" x1="-1.4748" y1="87.1265" x2="43.9613" y2="41.6904">
		<stop  offset="0" style="stop-color:#F8C704"/>
		<stop  offset="0.2359" style="stop-color:#F7C305"/>
		<stop  offset="0.4621" style="stop-color:#F4B808"/>
		<stop  offset="0.6846" style="stop-color:#F0A40E"/>
		<stop  offset="0.9034" style="stop-color:#E98915"/>
		<stop  offset="0.9994" style="stop-color:#E67B19"/>
	</linearGradient>
	<path style="fill:url(#SVGID_00000132048406681816398830000016038543783970556595_);" d="M58.4,72.3c0,0-25.2,2.8-36.8-8.9
		S15,48,0,40.6c0,0,3.5-4.3,13.3-4.1s10.3,8.1,11.6,10.7C24.9,47.3,40.7,73.3,58.4,72.3z"/>
	<path class="st3" d="M129.2,55.5h20.3v-5.3h-10.3l3.8-3.3l-4.3-1.7h14.3v-5.7h-23.7v-3.4h19.9v-5.2h-19.9v-3.6h-8v3.6h-19.8v5.2
		h19.8v3.4H97.6v5.7h13.7l-3.6,1.3c0,0,1.7,2.1,3,3.8h-9.8v5.3h20.3v4h-24v5.6h24v7.5h8v-7.5h24.1v-5.6h-24.1V55.5z M115.8,45.2
		h18.9c-1.3,1.4-3.4,3.7-4.7,5h-13.2c1.4-0.7,2.7-1.4,2.7-1.4L115.8,45.2z"/>
	<polygon class="st3" points="158.5,40.7 166.4,40.7 166.4,72.6 170.7,72.6 170.7,40.7 177.6,40.7 177.6,36.4 158.5,36.4 	"/>
	<rect x="160.2" y="29.5" class="st3" width="15.1" height="4"/>
	<rect x="179.8" y="29.5" class="st3" width="27.1" height="4"/>
	<path class="st3" d="M268.6,32.9h-14.6c1.6-0.6,3-1.1,3-1.1c-0.1-0.1-3.8-5.1-3.8-5.1l-7.7,1.7l3.4,4.6h-10.7v5.6h30.4V32.9z"/>
	<path class="st3" d="M194.8,50.1L194.8,50.1l-3.9,0v0h-7h-4.8v3.8V67v2.1v2.1h27.5v-2.1V67V53.9v-3.8h-4.8H194.8z M191,53.9v5.3h-7
		v-5.3H191z M183.9,62.3h7V67h-7V62.3z M194.8,67v-4.8h7V67H194.8z M201.8,59.2h-7v-5.3h7V59.2z"/>
	<path class="st3" d="M204.8,45.6v-2v-4.1v-3.1h-5.3h-13.2H181v3.1v4.1v2v2h23.8V45.6z M186.3,39.5h13.2v4.1h-13.2V39.5z"/>
	<rect x="173.2" y="45.2" class="st3" width="4.4" height="21.3"/>
	<path class="st3" d="M159.8,61.4c0,4.4-3.6,8.6-3.6,8.6h4.3c2.9-3.1,3.4-8.6,3.4-8.6V45.2h-4.1V61.4z"/>
	<polygon class="st3" points="226.5,38.3 223.3,39.5 226.2,45.6 229.5,44.4 	"/>
	<polygon class="st3" points="229.7,61.7 226.3,54.1 223.1,55.3 226.4,62.9 	"/>
	<path class="st3" d="M236.5,62.9V37.1v-5.6H230h-1.3l2.5-4.8h-8.3l-1.3,4.8h-5v5.6v10.1h-2.7v5.2h2.7v4.9c0,4.3-3,9.6-3,9.6
		l5.4,5.4c3.9-5.2,3.9-15.1,3.9-15.1v-4.9h7.1v10.4c0,3.3-1.7,3-1.7,3h-5l1.8,5.7h4.7c7.7,0,6.8-5.7,6.8-5.7V62.9z M222.9,47.2V37.1
		h7.1v10.1H222.9z"/>
	<path class="st3" d="M265.1,64c-0.1,1-0.4,1.9-1.7,1.9s-1.3-1.7-1.3-1.7V42.7h-20.9c0,0,0,7.3,0,13.3c0,5.9-4.2,11.1-4.2,11.1
		l5.5,5.4c1.9-2.1,4.7-9.7,5.3-12.4s0.5-10.7,0.5-10.7h6.4v14.8c0,5.5,1.9,7.4,7.7,7.4c5.8,0,6.9-3.1,7.2-4.4
		c0.3-1.3,0.6-10.2,0.6-10.2l-4.9-2C265.3,55,265.1,63,265.1,64z"/>
	<polygon class="st3" points="281.5,37.4 319.6,37.4 319.6,41.7 327.3,41.7 327.3,31.4 305.2,31.4 303.4,26.7 294.9,27.7 
		296.5,31.6 273.4,31.6 273.4,41.7 281.5,41.7 	"/>
	<polygon class="st3" points="303.4,43.2 324.8,52.6 328.5,47.3 307.7,38.5 	"/>
	<path class="st3" d="M304.2,56.2h15.2v-5.6h-36.3c6.9-3.3,14-7.7,14-7.7l-5-4.4c-7.4,5.2-19.8,9.4-19.8,9.4l4.1,5.4
		c1.4-0.4,3-1.1,4.7-1.8v4.7h15.2v8H273v5.6h54.9v-5.6h-23.7V56.2z"/>
	<path class="st3" d="M352,19.7c-3.1,0-3.1,1-3.1,1v36.2c0,3.7-2.7,5.2-4.5,5.2s-3-0.4-5-1.6c-1.9-1.1-1.8,2.2-1.8,2.2s0,0.4,0,1.5
		c0,1.1,4.6,4.2,11,2.5c6.4-1.6,6.4-9.8,6.4-9.8V20.7H355C354.8,20.4,354.2,19.7,352,19.7z"/>
	<path class="st4" d="M478.8,32.1c-3.1,0-3.1,1-3.1,1V66h0c0.1,0.3,0.7,1.1,3,1.1c3.1,0,3.1-1,3.1-1l-0.1-0.1h0.1V33h-0.1
		C481.6,32.7,481,32.1,478.8,32.1z"/>
	<path class="st3" d="M381.1,31.3c-9.5,0-17.2,8.1-17.2,18.2s7.7,18.2,17.2,18.2s17.2-8.1,17.2-18.2S390.6,31.3,381.1,31.3z
		 M381.1,62.3c-5.6,0-10.1-3.4-10.1-12.8c0-8,4.5-12.8,10.1-12.8c5.6,0,10.1,3,10.1,12.8C391.2,58.6,386.6,62.3,381.1,62.3z"/>
	<path class="st3" d="M430.9,32.1c-2.5,0-3.1,0.9-3.1,0.9l-9.6,26.9l-9.8-26.8c0,0-0.2-1.1-2.9-1.1c-2.7,0-3.5,1.1-3.5,1.1L415,67
		L411,77.7c-0.3,0.7-1.6,2.3,1.9,2.3c3.6,0,4-1.1,4-1.1l16.7-45.7C433.6,33.2,433.4,32.1,430.9,32.1z"/>
	<circle class="st4" cx="478.8" cy="22.3" r="3.6"/>
	<path class="st4" d="M511.5,32.4c-1.1-0.6-5.8-1.9-8.8,0.7c-1.7,1.5-2.9,3.2-3.6,4.4V33H499c-0.2-0.4-0.8-1-3-1c-3.1,0-3.1,1-3.1,1
		V66h0c0.1,0.3,0.7,1.1,3,1.1c3.1,0,3.1-1,3.1-1l-0.1-0.1h0.1V44.6c0,0,2.9-6,6.4-7.2c3.6-1.2,5.2,1.1,6,1c0.8-0.1,0.8-0.8,0.8-2.6
		S512.6,33,511.5,32.4z"/>
	<path class="st4" d="M452.2,31.5c-7.4,0-11.2,2.6-12.2,3.3c-1,0.8-1.3,2.9-0.7,4.1c0.6,1.3,1.9,0.4,1.9,0.4
		c4.3-3.9,12.2-3.6,15-1.9c2.8,1.7,2.7,7.2,2.7,7.2v2.2c0,0-12.4-1.8-18.2,3.4c-5.8,5.2-3.3,13.5,1.3,15.7c4.7,2.2,10,1.7,13.6-0.3
		c1.5-0.8,2.5-1.7,3.2-2.5V66h0c0.1,0.3,0.7,1.1,3,1.1c3.1,0,3.1-1,3.1-1l-0.1-0.1h0.1V44.6C465,35.1,459.6,31.5,452.2,31.5z
		 M449.5,62.7c-5.5,0-5.9-4-5.9-5.7c0-1.7,1.9-6.3,8-6.3c4,0,6.3,0.1,7.3,0.2v6.3v0.2C458.8,57.5,454.9,62.7,449.5,62.7z"/>
	
		<linearGradient id="SVGID_00000154398014064866848830000017642846404019433646_" gradientUnits="userSpaceOnUse" x1="41.4371" y1="84.5465" x2="45.0071" y2="-1.7821">
		<stop  offset="0" style="stop-color:#F8C704"/>
		<stop  offset="0.2359" style="stop-color:#F7C305"/>
		<stop  offset="0.4621" style="stop-color:#F4B808"/>
		<stop  offset="0.6846" style="stop-color:#F0A40E"/>
		<stop  offset="0.9034" style="stop-color:#E98915"/>
		<stop  offset="0.9994" style="stop-color:#E67B19"/>
	</linearGradient>
	<path style="fill:url(#SVGID_00000154398014064866848830000017642846404019433646_);" d="M49.6,70.7c0,0-12.7-6-17.3-23.5
		s3.7-29.7,4.2-35.2C37,6.5,35.9,0,35.9,0S59.5,3,56,29.5s-6.4,30.1-6.4,30.1L49.6,70.7z"/>
	
		<linearGradient id="SVGID_00000088122494819678127110000014829401695397130895_" gradientUnits="userSpaceOnUse" x1="30.9321" y1="86.4562" x2="71.1755" y2="10.8376">
		<stop  offset="0" style="stop-color:#F8C704"/>
		<stop  offset="0.2359" style="stop-color:#F7C305"/>
		<stop  offset="0.4621" style="stop-color:#F4B808"/>
		<stop  offset="0.6846" style="stop-color:#F0A40E"/>
		<stop  offset="0.9034" style="stop-color:#E98915"/>
		<stop  offset="0.9994" style="stop-color:#E67B19"/>
	</linearGradient>
	<path style="fill:url(#SVGID_00000088122494819678127110000014829401695397130895_);" d="M49.4,69.1c0,0-11.8-18.6-1.7-35.2
		S63,21.4,68.8,7.5c0,0,9.7,11.4,3,23.4C65,42.9,48.8,52.5,49.4,69.1z"/>
</g>
</svg>
