<?xml version="1.0" encoding="utf-8"?>
<!-- Generator: Adobe Illustrator 25.4.1, SVG Export Plug-In . SVG Version: 6.00 Build 0)  -->
<svg version="1.1" id="Layer_1" xmlns="http://www.w3.org/2000/svg" xmlns:xlink="http://www.w3.org/1999/xlink" x="0px" y="0px"
	 viewBox="0 0 146.3 80" style="enable-background:new 0 0 146.3 80;" xml:space="preserve">
<style type="text/css">
	.st0{fill:url(#path124_00000126315861114656445510000017209000063646108813_);}
</style>
<linearGradient id="path124_00000126310368176772891640000000366249861473245316_" gradientUnits="userSpaceOnUse" x1="29751.1816" y1="-2336.6919" x2="29751.1816" y2="-5643.9087" gradientTransform="matrix(2.032123e-02 0 0 2.032123e-02 -531.4476 120.3564)">
	<stop  offset="0" style="stop-color:#244D5F"/>
	<stop  offset="1" style="stop-color:#8EC4E5"/>
</linearGradient>
<path id="path124" style="fill:url(#path124_00000126310368176772891640000000366249861473245316_);" d="M116.7,0.2
	c-0.4,0.1-2.1,0.9-3.9,1.8c-3.5,1.7-4.9,2.2-7.7,3.1c-3.3,1-7.2,1.8-14.3,3c-4.5,0.8-8,1.5-9.3,1.9c-3,0.9-6.8,3.6-10.3,7.1
	c-2,2.1-3.4,3.9-4.3,5.6c-0.7,1.5-0.9,2.2-0.8,3.8c0.1,2.2,0.5,2.8,3.1,4.3c2,1.1,3.4,2.6,4.3,4.5c1.7,3.6,2,7.9,0.8,11.9
	c-0.8,2.5-2.8,6.1-5,8.8c-1.5,1.9-2.5,2.9-4.1,4.3c-6.5,5.5-14.7,7.9-23,6.7c-2.6-0.4-4.5-1-10.3-3.2c-7.2-2.8-10-3.4-12.5-2.8
	c-0.5,0.1-1.5,0.5-2.2,0.8c-1.9,0.9-2.5,1-4.6,0.9c-2.2-0.1-7.9-0.7-10.2-1.1C0,61,0.1,61,0,61.5c-0.1,1.3,2.4,2.4,9.9,4.3
	c6.5,1.6,11.7,2.5,15.9,2.8c5,0.3,10.4,1.2,21.5,3.8c19.9,4.6,33.6,6.5,54.3,7.4c5,0.2,25.7,0.2,30.1,0c7.6-0.4,12-1.1,13.8-2.2
	c0.6-0.4,0.7-0.5,0.8-0.9c0.1-0.5,0.3-0.5-3.1-0.2c-4.2,0.3-9.2,0.5-10.8,0.4c-3.9-0.2-8.4-1.5-12.7-3.6c-3.4-1.7-5.3-3-9.1-6.5
	c-1.1-1-2-1.7-2-1.7c-0.1,0-1.2,0.6-2.5,1.5c-5.2,3.2-10.1,5.4-12.8,6c-1.1,0.2-1.8,0.1-1.8-0.3c0-0.3,0.9-0.8,4.4-2.4
	c4.1-1.8,7.1-3.3,8.4-4.1c1.8-1.2,3.7-3.4,4.3-4.9c0.5-1.3,0.4-1.9-0.7-4c-1-2-1.8-4.1-3-8.4c-1.5-5.2-2.8-8.2-5-11.1
	c-0.5-0.6-2.1-2.4-3.6-4c-3.2-3.2-3.3-3.3-2.9-4.7c0.7-2.8,2.2-4.2,6.2-5.8c0.8-0.3,1.9-0.8,2.4-1.1c2.6-1.5,6.7-5.1,8.1-7.2
	c0.9-1.3,1.2-2.3,1.2-4c0-1.7,0.2-2,2.5-4.7c1.9-2.3,3.7-4.6,4-5.2C117.8,0,117.6-0.1,116.7,0.2z"/>
</svg>
