<?xml version="1.0" encoding="utf-8"?>
<!-- Generator: Adobe Illustrator 25.4.1, SVG Export Plug-In . SVG Version: 6.00 Build 0)  -->
<svg version="1.1" id="Layer_1" xmlns="http://www.w3.org/2000/svg" xmlns:xlink="http://www.w3.org/1999/xlink" x="0px" y="0px"
	 viewBox="0 0 340.4 80" style="enable-background:new 0 0 340.4 80;" xml:space="preserve">
<style type="text/css">
	.st0{fill:url(#path124_00000052094077009784267620000009214182722034507183_);}
	.st1{fill:url(#path126_00000042715228817174741580000018093788433169253815_);}
	.st2{fill:#305B6F;}
</style>
<linearGradient id="path124_00000039824157029123362490000018357794084201501086_" gradientUnits="userSpaceOnUse" x1="29751.1816" y1="-2336.6919" x2="29751.1816" y2="-5643.9087" gradientTransform="matrix(2.032123e-02 0 0 2.032123e-02 -531.4476 120.3564)">
	<stop  offset="0" style="stop-color:#244D5F"/>
	<stop  offset="1" style="stop-color:#8EC4E5"/>
</linearGradient>
<path id="path124" style="fill:url(#path124_00000039824157029123362490000018357794084201501086_);" d="M116.7,0.2
	c-0.4,0.1-2.1,0.9-3.9,1.8c-3.5,1.7-4.9,2.2-7.7,3.1c-3.3,1-7.2,1.8-14.3,3c-4.5,0.8-8,1.5-9.3,1.9c-3,0.9-6.8,3.6-10.3,7.1
	c-2,2.1-3.4,3.9-4.3,5.6c-0.7,1.5-0.9,2.2-0.8,3.8c0.1,2.2,0.5,2.8,3.1,4.3c2,1.1,3.4,2.6,4.3,4.5c1.7,3.6,2,7.9,0.8,11.9
	c-0.8,2.5-2.8,6.1-5,8.8c-1.5,1.9-2.5,2.9-4.1,4.3c-6.5,5.5-14.7,7.9-23,6.7c-2.6-0.4-4.5-1-10.3-3.2c-7.2-2.8-10-3.4-12.5-2.8
	c-0.5,0.1-1.5,0.5-2.2,0.8c-1.9,0.9-2.5,1-4.6,0.9c-2.2-0.1-7.9-0.7-10.2-1.1C0,61,0.1,61,0,61.5c-0.1,1.3,2.4,2.4,9.9,4.3
	c6.5,1.6,11.7,2.5,15.9,2.8c5,0.3,10.4,1.2,21.5,3.8c19.9,4.6,33.6,6.5,54.3,7.4c5,0.2,25.7,0.2,30.1,0c7.6-0.4,12-1.1,13.8-2.2
	c0.6-0.4,0.7-0.5,0.8-0.9c0.1-0.5,0.3-0.5-3.1-0.2c-4.2,0.3-9.2,0.5-10.8,0.4c-3.9-0.2-8.4-1.5-12.7-3.6c-3.4-1.7-5.3-3-9.1-6.5
	c-1.1-1-2-1.7-2-1.7c-0.1,0-1.2,0.6-2.5,1.5c-5.2,3.2-10.1,5.4-12.8,6c-1.1,0.2-1.8,0.1-1.8-0.3c0-0.3,0.9-0.8,4.4-2.4
	c4.1-1.8,7.1-3.3,8.4-4.1c1.8-1.2,3.7-3.4,4.3-4.9c0.5-1.3,0.4-1.9-0.7-4c-1-2-1.8-4.1-3-8.4c-1.5-5.2-2.8-8.2-5-11.1
	c-0.5-0.6-2.1-2.4-3.6-4c-3.2-3.2-3.3-3.3-2.9-4.7c0.7-2.8,2.2-4.2,6.2-5.8c0.8-0.3,1.9-0.8,2.4-1.1c2.6-1.5,6.7-5.1,8.1-7.2
	c0.9-1.3,1.2-2.3,1.2-4c0-1.7,0.2-2,2.5-4.7c1.9-2.3,3.7-4.6,4-5.2C117.8,0,117.6-0.1,116.7,0.2z"/>
<linearGradient id="path126_00000066484278352575364340000017548158581502706096_" gradientUnits="userSpaceOnUse" x1="1534.0161" y1="-385.3041" x2="1534.0161" y2="-276.2262" gradientTransform="matrix(0.3106 0 0 -0.3106 -233.9896 -67.3826)">
	<stop  offset="0" style="stop-color:#4A7891"/>
	<stop  offset="1" style="stop-color:#7BB2D2"/>
</linearGradient>
<path id="path126" style="fill:url(#path126_00000066484278352575364340000017548158581502706096_);" d="M254.2,11
	c-0.3,0-0.6,0.1-0.9,0.2c-1.7,0.8-2.3,1.9-2.7,5.6c-0.1,1-0.3,1.9-0.4,1.9c-0.1,0-0.9,0.2-1.9,0.4c-3,0.5-4,0.9-3.9,1.7
	c0.1,0.6,0.7,0.9,3,1c1.2,0.1,2.3,0.2,2.6,0.2l0.4,0.1v2.7c0,2.2,0,2.7-0.2,2.7c-0.7,0-5.4,0.6-6,0.8c-0.9,0.2-1.2,0.6-1,1.2
	c0.2,0.9,1.3,1.2,4.6,1.2h1.9v3.1c0,4.7,0.2,9.1,0.5,10.1c0.6,2.3,2.2,4.7,4.2,6.2c1.3,1,2.6,1.5,3,1.2c0.5-0.4,0.6-0.5,0.8-9.4
	c0.1-3.7,0.3-10.2,0.5-14.5l0.3-7.9l2.2-2.2c1.2-1.2,2.2-2.3,2.2-2.4c-0.1-0.3-1.8-1.6-2.4-1.9c-0.3-0.1-1.1-0.3-1.7-0.5
	c-0.6-0.1-1.7-0.5-2.5-0.9C255.9,11.2,255,10.9,254.2,11z M298.6,12.7c-0.3,0-0.7,0-1.1,0.1c-0.5,0.1-1.6,0.6-2.5,1l-1.6,0.8l0,0.9
	c0,0.5-0.1,3.8-0.2,7.4l-0.2,6.5h1.2c1.4,0,2-0.2,2.6-1c0.5-0.6,0.9-1.7,0.9-2.4c0-0.8,0.5-1.2,1.7-1.2c2.4,0,5.7-2.2,4.1-2.8
	c-0.2-0.1-1.6-0.2-3.1-0.2c-2.7-0.1-2.8-0.1-3-0.4c-0.2-0.3-0.3-0.5-0.2-1.2c0.1-1.1,0.5-1.9,1.5-2.9c1-1.1,1.5-1.8,1.7-2.6
	C300.8,13.4,300.1,12.7,298.6,12.7z M281.9,13.2c-1.4,0-2.5,0-2.8,0.1c-0.4,0.1-0.8,0.2-1,0.3c-0.4,0.3-1.2,2-1,2.2
	c0.2,0.2,4.2,0.4,6,0.2c3.2-0.3,5.1-1.1,4.9-2.2c0-0.3-0.2-0.4-0.5-0.5C287,13.3,284.2,13.2,281.9,13.2z M233,14.1
	c-2.3,0-4.5,0.1-5.8,0.2c-5.2,0.6-8.1,1.4-10.6,2.9c-1.9,1.2-2.2,2.2-1.2,3.2c0.5,0.5,0.6,0.6,1.2,0.6c0.7,0,1.2-0.2,4.2-1.4
	c5.4-2.2,11.8-3,14.1-1.8c0.9,0.5,1.1,1,1.1,3.8c0,2.2,0,2.3-0.2,2.2c-2-0.8-5.2-1.1-7.1-0.7c-2.9,0.6-4,1.5-5,4
	c-0.7,1.7-1,3.5-1,5.5c0,2.7,0.5,4.2,1.8,5.4c1.4,1.3,2.8,1.2,6-0.5c2.4-1.2,2.6-1.3,6.6-0.8c5.4,0.6,5.9,0.6,7.5-0.2
	c1.3-0.6,1.8-1.2,2.1-2.1c0.3-1.1,0.3-1.3-0.1-1.5c-0.5-0.3-1.6-0.3-8.1-0.4l-6.4-0.1l-0.2-1.4c-0.5-2.9,0-4.1,2-4.8
	c1.3-0.5,2.9-0.4,4.5,0.1c2,0.7,3.8,0.6,4.4-0.2c0.2-0.3,0.4-1.5,0.6-3.6c0.2-2.3,0.5-3.6,1.2-4.8c1.2-2.1,0.8-3-1.8-3.4
	C241.2,14.3,236.8,14.1,233,14.1z M319.9,14.5c-2.2,0-4,0-4.3,0.1c-1.7,0.3-3.8,1.8-4,2.9c-0.1,0.5,0.1,1,0.6,1.3
	c0.3,0.2,1.7-0.1,3.5-0.8c1.8-0.7,3-1,4.5-1.2c1.3-0.2,3.4-0.2,4.7,0l0.9,0.1l-0.1,3.7c0,2.1-0.1,3.9-0.2,4.1
	c-0.4,1.2-2.6,0.2-2.8-1.3c-0.1-0.5,0-0.7,0.3-1.4c0.5-1,0.5-1.4,0-1.8c-0.6-0.5-1.4-0.7-2.6-0.6c-1.3,0.1-2.2,0.6-2.7,1.6
	c-0.3,0.6-0.4,1-0.4,2c-0.1,1.1-0.1,1.4-0.3,1.4c-0.6,0-6.6,0.4-7.9,0.6c-2.9,0.3-4.4,0.8-4.9,1.6c-0.2,0.3-0.2,0.6-0.2,1.3
	c0.1,1.8,0.9,2.1,3,1.1c0.7-0.3,1.6-0.6,2.4-0.8c1.6-0.3,5.7-0.5,13.4-0.6c7.1-0.2,12.4-0.3,15.1-0.6c1.7-0.1,1.7-0.2,2.1-0.6
	c0.4-0.5,0.5-1.2,0.2-1.5c-0.3-0.3-2.2-0.4-5.6-0.4h-3.4v-1.6c0-1.9,0.2-3.3,0.9-5.1c0.5-1.4,0.6-2.1,0.3-2.5c-0.2-0.3-1-0.5-3-0.7
	C328.3,14.6,323.5,14.5,319.9,14.5L319.9,14.5z M177.4,14.5c-3.1,0-5.6,0-6.4,0.1c-4.9,0.4-7,1.2-9.6,3.6c-1.7,1.6-2.3,2.9-1.7,4
	c0.3,0.5,1.1,1.1,1.8,1.2c1.1,0.2,1.7,0,5.6-1.8c4.7-2.2,9-3.1,14.5-3.1c2.7,0,3.5,0.1,5,0.3c1,0.2,1.8,0.3,1.8,0.4
	c0,0-0.1,0.9-0.4,1.9c-0.8,3.9-1,6-0.8,12.1c0.1,2.7,0,2.9-1.2,2.9c-0.7,0-3.1-0.4-4.3-0.6l-0.3-0.1l0.1-2.6c0-2.9,0.1-3.2,1-3.7
	c1.3-0.9,0.5-2.5-1.7-3.7c-1.3-0.7-2.6-0.9-4.1-0.7c-4.4,0.6-6.1,3.3-5.5,8.8c0.1,1.2,0.1,1.8,0,1.8c-1.6,0-15,0.5-16.6,0.6
	c-5.3,0.3-7.5,1-9.1,2.8c-1.6,1.7-1.4,3.5,0.6,5.9l0.5,0.5l2.1-1c4.4-2.1,6.7-2.7,11.5-3.1c1.1-0.1,2.4-0.2,2.8-0.2
	c0.5,0,10.6-0.1,22.6-0.2c20.7-0.1,25.2-0.2,26.9-0.6c2.1-0.4,4-2.2,3.9-3.5c-0.1-0.9,0-0.9-7-1.1c-5.5-0.1-7.3-0.2-10.7-0.6
	c-0.7-0.1-0.7-0.1-0.6-0.5c0-0.2,0.2-1.7,0.3-3.3c0.4-5.7,0.8-7.1,2.7-11.5l0.9-1.9l-0.6-0.6c-0.9-0.9-1.7-1.4-2.7-1.6
	c-1-0.2-4.1-0.5-7.8-0.8C189,14.5,182.5,14.5,177.4,14.5z M279,17.2c-2.7,0-5,0-5.7,0.1c-1.5,0.2-1.9,0.4-2.3,1.3
	c-0.4,0.9-0.4,1.2-0.1,1.5c0.6,0.5,1.5,0.6,8.5,0.6c8.2,0,8.3,0,9.4-1.2c1.2-1.2,1.3-1.8,0.4-2.1C288.9,17.3,283.5,17.2,279,17.2z
	 M281.6,21.3c-0.9,0-1.8,0-2.3,0.1c-1,0.2-2,0.5-3.2,1.2c-2,1.1-2.3,1.4-2.3,3.1c0,1,0.1,1.3,0.3,1.9c0.9,1.8,3,2.7,6.9,2.8
	c2.4,0.1,3.6-0.1,4.9-0.7c1.1-0.5,2.4-1.7,2.8-2.5c0.3-0.7,0.3-1.9,0-2.5c-0.6-1.2-2.9-2.7-4.8-3.1
	C283.4,21.4,282.5,21.4,281.6,21.3z M280.5,24c0.9,0,2.2,0.1,2.8,0.3c1.4,0.5,1.6,1.2,0.6,2.1c-1.6,1.5-4.5,1.5-5.9-0.1
	c-0.3-0.3-0.5-0.6-0.5-0.7c0-0.6,1-1.2,2.3-1.5C280,24,280.2,24,280.5,24z M323.3,28.2c-0.7,0-1.3,0.1-2.1,0.4
	c-0.6,0.2-1.4,0.6-1.7,0.8c-1.5,0.9-2.8,2.9-3.5,5.1c-0.3,0.9-0.3,1.3-0.3,2.9c0,2.1,0.1,2.8,0.8,4.1c0.9,1.7,2.3,3.1,4,4
	c1.7,0.9,3.8,0.8,5.8-0.2c1.3-0.6,2.7-1.9,3.4-3.3c1.5-2.8,1.5-6.4,0-9.2c-0.6-1.2-2-2.7-3.1-3.4C325.5,28.6,324.4,28.2,323.3,28.2
	L323.3,28.2z M289.6,30.6c-1.2,0-1.9,0.1-2.4,0.2c-3,1-5,4-5,7.4c0,3.2,1.8,6.1,4.6,7.4c2,1,3.9,1.1,5.7,0.4c1.2-0.5,1.9-0.9,3-2
	c2-1.9,2.4-2.9,2.3-6.2c0-2-0.1-2.2-0.4-2.9c-0.5-1.1-2.5-3.2-3.4-3.6C293,30.8,291.7,30.6,289.6,30.6z M323.4,32.7
	c0.5,0,1,0.1,1.4,0.4c1.2,0.8,2,2.6,1.9,4.4c-0.1,1.7-1.3,3.4-2.6,3.8c-1.6,0.5-3.4-1-4-3.2C319.4,35.3,321.3,32.7,323.4,32.7z
	 M289.9,33.5c0.5,0,0.9,0.1,1.4,0.4c1.3,0.8,2,3.2,1.4,5.2c-0.5,1.6-1.6,2.8-2.7,2.8c-1.1,0-2.4-1-3-2.5c-0.3-0.6-0.3-1-0.3-1.7
	C286.7,35.3,288.3,33.5,289.9,33.5z"/>
<path id="path146" class="st2" d="M179,56.9c-0.1,0-0.2,0.2-0.5,0.7c-0.7,1.1-2.7,4.7-3.9,7.2c-2,4-3.6,6.7-4.6,7.7l-0.5,0.5l1.5,0
	c0.8,0,2.1,0,2.9,0l1.4,0l-0.7-0.3c-1.3-0.6-1.5-1.7-0.6-3.2l0.4-0.7l2.6,0l2.6,0l0.4,0.5c0.5,0.7,1.2,2.2,1.2,2.7
	c0,0.3-0.1,0.5-0.6,0.8l-0.6,0.4l3.9,0c2.5,0,3.9,0,4-0.1s0-0.3-0.3-0.6c-1-0.9-2.4-3.4-5.8-10.2c-1.3-2.6-2.5-4.9-2.6-5
	C179.1,57,179,56.9,179,56.9z M193.7,57c-2.8,0-5.1,0-5.1,0.1c0,0,0.5,0.3,0.9,0.5c1.4,0.7,1.4,0.8,1.6,4.5c0.2,4,0,9-0.4,9.6
	c-0.2,0.3-0.5,0.5-1.2,0.9l-1,0.4l5.2,0c2.8,0,5.1,0,5.1-0.1c0,0-0.5-0.2-1.1-0.4c-0.7-0.2-1.1-0.4-1.3-0.7c-0.5-0.6-0.6-2-0.5-7.4
	c0-4.5,0.1-5.3,0.3-5.7c0.2-0.6,0.8-0.9,1.8-1.3c0.3-0.1,0.7-0.3,0.7-0.3C198.8,57,196.5,57,193.7,57L193.7,57z M230,57
	c-2.7,0-5,0-5,0.1s0.4,0.2,0.9,0.5c0.8,0.4,0.9,0.5,1.1,1.1c0.2,0.6,0.3,1.1,0.3,6.7c0,6.9,0,6.9-1,7.3c-0.3,0.1-0.6,0.3-0.6,0.3
	c0,0.1,1.9,0.1,4.2,0.1h4.2l-0.8-0.5c-0.6-0.4-0.9-0.7-1-1c-0.1-0.3-0.2-1.5-0.2-3.2v-2.8l0.3,0.3c0.5,0.4,3.5,4,4.3,5
	c0.4,0.5,0.7,1,0.7,1.1c0,0.1-0.2,0.4-0.4,0.6c-0.2,0.2-0.3,0.4-0.3,0.5c0,0,2.1,0.1,4.7,0l4.6,0l-1-0.6c-1.3-0.8-3.2-2.6-6.3-6.1
	l-2.6-2.9l0.5-0.4c1-0.8,4.8-3.5,6.2-4.3c0.8-0.5,1.8-1.1,2.3-1.3l0.9-0.4l-4.6,0c-2.6,0-4.5,0.1-4.4,0.1c0.1,0.1,0.4,0.2,0.7,0.3
	c0.6,0.2,1.5,0.9,1.5,1.3c0,0.3-0.6,1-1.6,1.8c-0.9,0.7-5.4,3.9-5.6,3.9c0,0-0.1-1-0.1-2.1c0-3,0.3-3.8,2.1-4.8L235,57L230,57z
	 M289.1,57c-5.2,0-5.2,0-4.6,0.3c1.1,0.5,2.6,2.3,4.8,5.8c1.2,1.9,2.3,4.1,2.5,5c0.2,0.9,0.1,2.7-0.2,3.5c-0.2,0.4-0.4,0.6-0.8,0.8
	c-1.5,0.7-1.7,0.7,3.7,0.7h5l-1-0.5c-1.4-0.7-1.5-0.8-1.5-3.6v-2.2l0.6-1.1c0.7-1.3,2.8-4.5,3.9-6c0.9-1.2,1.8-2.1,2.4-2.4
	c0.4-0.2,0.2-0.2-2.8-0.2c-3.1,0-3.2,0-2.8,0.2c0.2,0.2,0.6,0.5,0.9,0.8l0.5,0.6l-0.2,0.5c-0.1,0.3-0.4,0.8-0.6,1.1
	c-0.6,1-2.8,4.2-3,4.4c-0.2,0.1-0.3,0.1-0.5-0.3c-1-1.3-3.3-5.7-3.3-6.2c0-0.4,0.4-0.7,1.4-0.9c0.4-0.1,0.7-0.2,0.7-0.3
	C294.2,57,291.9,57,289.1,57z M201.1,57c-1,0-1.7,0-1.7,0c0,0,0.4,0.3,0.8,0.6c0.5,0.3,0.9,0.7,1,1c0.3,0.6,0.3,12.3,0,12.9
	c-0.2,0.4-0.8,0.9-1.5,1.3c-0.3,0.1,0.8,0.2,4.1,0.2c3.5,0,4.4,0,4.2-0.2c-1.7-1.1-1.7-1-1.7-4.3l-0.1-2.8l0.7,0.7
	c0.4,0.4,1,1.1,1.3,1.5c0.4,0.5,1.5,1.8,2.5,3l1.9,2.2h3.1c1.7,0,3.1,0,3.1-0.1c0,0-0.2-0.2-0.5-0.3c-0.7-0.3-2.6-2.3-4.5-4.8
	c-0.9-1.1-1.6-2-1.6-2s0.5-0.4,1.1-0.7c1.8-1.1,2.5-2.1,2.5-3.7c0-1.5-1-3.1-2.4-3.8c-1.4-0.7-2.1-0.7-8.3-0.8
	C203.6,57,202.1,57,201.1,57L201.1,57z M269.4,57c-2.3,0-3.2,0-3,0.1c1.4,0.6,1.9,0.9,2.2,1.7c0.3,0.6,0.3,0.7,0.2,6.3
	c-0.1,6.6-0.1,6.6-1.1,7.3c-0.4,0.2-0.7,0.5-0.7,0.5c0,0,1.9,0.1,4.3,0.1h4.4l-0.7-0.5c-1.2-0.7-1.3-1-1.4-4.2l-0.1-2.6l0.8,0.7
	c0.4,0.4,1.9,2.1,3.2,3.8l2.5,3l3.2,0c2.8,0,3.1,0,2.8-0.2c-0.6-0.3-2.4-2.2-4.4-4.7c-1-1.2-1.8-2.3-1.8-2.4
	c-0.1-0.1,0.2-0.4,0.9-0.7c1.3-0.8,1.7-1.1,2.1-1.9c0.8-1.4,0.6-3.1-0.6-4.4c-0.6-0.8-1.4-1.2-2.8-1.6c-1-0.3-1.4-0.3-7.2-0.3
	C271.1,57,270.2,57,269.4,57L269.4,57z M254.7,57c-1.1,0-2,0-2.2,0.1c-1.5,0.3-3.5,1.9-4.8,3.8c-1,1.4-1.2,2.3-1.2,4.2
	s0.3,3,1.3,4.5c1.6,2.4,4.3,3.9,7.5,4c3.5,0.2,6.4-1,8.4-3.6c1.2-1.5,1.8-3.2,1.8-5.1c0-2.3-0.7-3.9-2.3-5.5
	c-1.9-1.9-3.3-2.4-7.3-2.4C255.4,57,255,57,254.7,57z M313,57c-1.1,0-2,0-2.2,0.1c-1.5,0.3-3.5,1.9-4.8,3.8c-1,1.4-1.2,2.3-1.2,4.2
	s0.3,3,1.3,4.5c1.6,2.4,4.3,3.9,7.5,4c3.5,0.2,6.4-1,8.4-3.6c1.2-1.5,1.8-3.2,1.8-5.1c0-2.3-0.7-3.9-2.3-5.5
	c-1.9-1.9-3.3-2.4-7.3-2.4C313.8,57,313.4,57,313,57z M256,58.2c0.6,0,1.1,0.1,1.7,0.4c0.8,0.4,1.5,1.1,1.8,1.9
	c0.4,1.1,0.7,3.2,0.7,5c0,2.9-0.5,4.6-1.6,5.7c-0.8,0.8-1.5,1.1-2.6,1.1c-1.8,0-3.2-1-3.7-2.9c-0.6-1.9-0.6-6.4-0.1-8.1
	C252.8,59.4,254.3,58.2,256,58.2z M314.4,58.2c0.6,0,1.1,0.1,1.7,0.4c0.8,0.4,1.5,1.1,1.8,1.9c0.4,1.1,0.7,3.2,0.7,5
	c0,2.9-0.5,4.6-1.6,5.7c-0.8,0.8-1.5,1.1-2.6,1.1c-1.8,0-3.2-1-3.7-2.9c-0.6-1.9-0.6-6.4-0.1-8.1C311.1,59.4,312.7,58.2,314.4,58.2z
	 M206.3,58.2h1c0.6,0,1.2,0.1,1.7,0.3c1.2,0.4,1.6,1.1,1.9,2.7c0.4,2.3-0.8,3.6-3.4,3.8l-1.2,0.1v-3.4V58.2z M273.6,58.2h1
	c0.8,0,1.2,0.1,1.7,0.3c1.9,0.9,2.5,2.2,1.9,4.1c-0.3,0.9-0.8,1.5-1.8,2c-0.6,0.3-0.9,0.4-1.8,0.4h-1.1v-3.4V58.2z M177,63
	c0.1,0,0.4,0.4,1.3,2.2l1,2h-2.1H175l0.9-2C176.4,64.2,176.9,63.2,177,63C176.9,63,177,63,177,63z"/>
</svg>
