<?xml version="1.0" encoding="utf-8"?>
<!-- Generator: Adobe Illustrator 25.4.1, SVG Export Plug-In . SVG Version: 6.00 Build 0)  -->
<svg version="1.1" id="Layer_1" xmlns="http://www.w3.org/2000/svg" xmlns:xlink="http://www.w3.org/1999/xlink" x="0px" y="0px"
	 viewBox="0 0 70.35 80" style="enable-background:new 0 0 70.35 80;" xml:space="preserve">
<style type="text/css">
	.st0{fill:#FB0102;}
</style>
<g>
	<path class="st0" d="M62.42,19.94c-0.17,0.75-0.91,1.74-1.24,2.4c-0.25-0.17-0.58-0.66-0.83-0.91c-0.33-0.33-0.58-0.66-0.75-1.08
		c0.58,0,1.08,0,1.49-0.08C61.76,20.18,61.93,20.02,62.42,19.94z M44.6,69.27L44.6,69.27c-0.08-0.5-0.17-1.08-0.25-1.66
		c0.5,0,0.99-0.08,1.58-0.08l0,0l0,0c0.83-0.08,2.24-0.25,4.56-1.49c1.41-0.75,3.4-2.74,4.31-4.06c1.49-2.07,2.24-4.73,2.24-7.38
		l0,0l0,0v-0.08c0-0.66-0.08-1.41-0.17-2.07c0-0.08,0-0.08,0-0.17l0,0c-0.25-1.24-0.58-2.4-1.16-3.57c-1.66-3.4-4.81-5.72-8.37-6.72
		c-0.75-0.17-1.49-0.33-2.24-0.41h-0.17h-0.08c-2.16-0.17-4.31,0.17-6.38,1.08c-0.17,0.08-0.41,0.17-0.58,0.25
		c-1.58,0.83-2.98,1.91-4.06,3.23l0,0l-0.25-0.08c-4.06-1.99-10.12-13.27-11.52-18.41c-1.74-6.38-2.9-17.25-1.41-23.8
		c0.25-0.99,0.5-2.49,0.58-2.98c-4.15-2.65-9.78,0.91-10.45,9.04c-0.99,13.02,6.96,26.7,16.25,34.74c1.33,1.16,2.4,1.91,3.15,2.49
		l1.99,1.49c-0.33,0.58-0.58,1.16-0.75,1.74c-1.41-0.83-2.74-1.66-4.23-2.82c-1.33-0.99-2.57-1.99-3.9-3.07
		c-2.82-2.4-4.31-4.06-6.8-7.05c-3.15-3.65-8.54-12.77-8.87-19.07C1.49,17.53-2.33,29.14,9.2,39.67
		c7.46,6.88,12.27,8.87,21.72,12.85c-0.08,0.5-0.17,0.99-0.17,1.41v0.17c-1.49,0.17-7.13-1.66-8.79-2.24
		C7.21,46.47,3.81,40.08,2.07,38.26c-2.4,1.74-2.82,6.63-0.66,9.53c3.65,4.81,11.44,7.63,17.58,8.29c3.81,0.41,6.72,0.58,10.53,0.41
		l1.41-0.17c0.08,0.66,0.25,1.33,0.41,1.91l-0.25,0.08l-0.25-0.08l0,0c-8.04,1.66-14.34,1.33-22.05-1.16
		c-2.16-0.66-5.06-2.4-5.39-2.57C2.73,55.09,1.4,64.87,14.67,64.96c3.32,0,6.72-0.66,9.53-1.58c2.74-0.91,5.14-1.91,7.96-2.98
		c0.25,0.5,0.58,0.99,0.91,1.49l-0.41,0.33c-0.08,0.08-0.17,0.17-0.33,0.25c-1.82,1.58-6.38,3.48-8.71,4.23
		c-5.22,1.66-7.54,1.41-12.77,0.83c0.66,6.88,8.37,6.05,12.77,4.31c4.48-1.74,7.38-5.06,10.7-8.37c0.33,0.41,0.75,0.75,1.16,1.08
		c-0.25,0.66-0.58,1.16-0.99,1.66c-1.91,2.82-6.63,6.38-9.45,7.71c-2.9,1.33-4.56,1.41-4.97,1.49c0.25,1.82,2.16,2.82,4.39,2.74
		c6.63-0.08,10.94-8.54,12.19-11.03l0.66-1.41c0.41,0.25,0.91,0.5,1.41,0.66l-0.5,1.66c0,0.08-0.08,0.17-0.08,0.25l0,0
		c-0.33,0.91-0.83,2.07-1.74,3.65c-3.4,5.72-6.47,6.55-6.8,6.72c0.75,1.33,3.15,1.74,4.89,0.99c4.31-1.74,4.97-8.13,5.72-11.69
		l0.17-0.99c0.5,0.17,0.91,0.25,1.41,0.33v0.08c0.83,7.46-2.57,11.03-2.74,11.44c2.32,0.41,4.31,0,5.31-1.74
		c0.99-1.66,0.5-4.56,0.25-6.63c2.32-0.08,5.06-0.91,6.8-1.49c5.64-1.91,9.37-6.63,10.86-12.27c0.17-0.5,0.41-1.08,0.5-1.66
		c0.91,0,1.91-0.08,1.91-1.24c0-0.25-0.25-0.99-0.33-1.16c-0.33-0.58-1.82-1.49-1.82-3.07c0-0.33,0.17-0.91,0.25-1.24
		c0.75-0.08,1.74-0.83,1.74-1.66c0-1.24-2.07-1.82-2.82-2.57c-0.75-0.75-1.66-2.65-1.66-3.73c0-0.66-0.33-2.4,0.66-2.4
		c1.08,0,5.47,2.24,5.47-4.48c-1.66,0.83-2.9,1.33-4.64,0c-1.99-1.58-0.33-6.96,3.4-6.96c0.83,0,1.41,0.17,1.82,0.66
		c0.33,0.41,0.58,1.24,0.66,1.91c0.75-0.5,1.33-1.16,1.82-1.91c0.33-0.5,0.99-2.24,0.99-2.98c0-0.5-0.25-0.66-0.25-1.08
		c0.08-0.66,0.91-1.49-0.17-2.24c-0.91-0.58-2.65,0.5-5.64-0.99c-0.41-0.17-0.83-0.5-1.16-0.58c0-0.75,0.25-0.91,0.25-1.66
		c0-1.16-3.73-2.65-4.97-3.48c-0.91-0.58-1.66-1.08-2.4-1.82c-0.99-0.99-1.49-1.82-1.58-2.32c-0.17-0.08-0.41-0.17-0.66-0.17
		c-1.08,0-1.99,0.83-2.16,1.74c-0.25-0.25-0.41-0.41-0.75-0.66c-0.33-0.25-0.75-0.41-1.08-0.58c-2.49-1.08-4.15-1.16-6.8-2.57
		c-0.99,0.66-1.82,1.74-1.49,3.15c-1.24-0.66-2.4-0.58-3.73-0.33c-0.83,0.08-3.4,0.5-4.06,0.41c-0.66,0-1.58-0.08-2.07-0.25
		c-0.08,0.75-0.41,1.41-0.41,2.32s0.25,1.49,0.41,1.74c-1.58,0-2.32,0-3.57,0.25s-2.24,0.33-3.48,0.25
		c-0.41,1.66-0.41,2.4,0.41,4.06c0.33,0.58,0.99,1.66,1.33,1.91c-0.66,0.25-1.91,0.5-2.57,0.58c0,1.91,0.83,4.64,1.33,6.38
		c1.49,5.31,4.06,9.7,7.38,13.93c0.33,0.41,0.66,0.75,0.99,1.08c0.33-0.33,0.58-0.5,0.99-0.83c3.07-2.4,5.97-3.4,10.2-3.4
		c1.99,0,4.39,0.75,5.8,1.41c1.82,0.91,2.9,1.66,4.31,3.07c1.99,1.99,3.15,4.31,3.81,7.05c1.41,5.56-0.58,12.11-5.22,15.42
		c-0.83,0.58-1.58,0.99-2.49,1.49C49.41,68.52,46.75,69.18,44.6,69.27L44.6,69.27z M47.25,18.19c0,0.5,0.5,1.41,0.25,1.49
		c-1.08-0.08-1.66-1.16-1.66-2.32c0-2.24,4.06-2.98,4.73-0.17c-0.5-0.25-1.49-0.58-2.07-0.58C47.92,16.7,47.25,17.53,47.25,18.19
		L47.25,18.19z"/>
</g>
</svg>
