<?xml version="1.0" encoding="utf-8"?>
<!-- Generator: Adobe Illustrator 25.4.1, SVG Export Plug-In . SVG Version: 6.00 Build 0)  -->
<svg version="1.1" id="Layer_1" xmlns="http://www.w3.org/2000/svg" xmlns:xlink="http://www.w3.org/1999/xlink" x="0px" y="0px"
	 viewBox="0 0 306.12 80" style="enable-background:new 0 0 306.12 80;" xml:space="preserve">
<style type="text/css">
	.st0{fill:#FB0102;}
</style>
<g id="Layer_x5F_1">
	<g id="_118875824">
		<path id="XMLID_14_" class="st0" d="M9.43,22.67c-2.9,8.13-5.72,16.25-8.54,24.38c-0.17,0.66-0.41,1.41-0.5,2.07
			c-0.17,0.66-0.25,1.33-0.33,1.99c-0.08,0.66-0.08,1.41,0,1.99c0.08,0.66,0.17,1.24,0.41,1.99s0.58,1.58,0.99,2.24
			c0.41,0.75,0.99,1.33,1.66,1.82c0.66,0.5,1.41,0.91,2.24,1.24c0.91,0.33,1.91,0.5,2.74,0.66c0.83,0.08,1.58,0.08,2.24,0.08
			c6.55,0,13.18,0,19.73,0c0.17,0,0.33,0,0.5-0.08c0.17-0.08,0.33-0.17,0.5-0.25c0.17-0.08,0.33-0.25,0.5-0.41
			c0.17-0.17,0.25-0.33,0.41-0.58c0.08-0.25,0.17-0.41,0.25-0.66c0.75-2.16,1.41-4.31,1.91-5.97c0.5-1.58,0.83-2.65,0.99-3.23
			c0.17-0.58,0.25-0.75,0.25-0.91s0-0.25,0-0.41s-0.08-0.25-0.17-0.33c-0.08-0.08-0.17-0.17-0.33-0.25
			c-0.08-0.08-0.25-0.08-0.33-0.08c-0.08,0-0.25,0-0.41,0c-4.81,0-9.62,0-14.43,0c-0.25,0-0.41,0-0.66-0.08
			c-0.25-0.08-0.41-0.17-0.58-0.25c-0.17-0.08-0.33-0.25-0.41-0.33c-0.17-0.17-0.25-0.33-0.33-0.5c-0.08-0.25-0.17-0.5-0.17-0.75
			c0-0.25,0-0.58,0.08-0.91c0.08-0.33,0.17-0.75,0.33-1.08c2.4-7.05,4.81-14.09,7.21-21.14c0-0.17,0.08-0.25,0.08-0.41
			c0-0.17-0.08-0.33-0.08-0.5c-0.08-0.17-0.17-0.25-0.25-0.33c-0.08-0.08-0.17-0.08-0.33-0.17c-0.08,0-0.25,0-0.41,0
			c-4.31,0-8.71,0-13.02,0c-0.08,0-0.25,0-0.33,0c-0.08,0-0.25,0.08-0.33,0.08c-0.08,0.08-0.25,0.08-0.33,0.17
			c-0.08,0.08-0.17,0.17-0.25,0.25c-0.08,0.08-0.17,0.17-0.25,0.33C9.51,22.42,9.51,22.59,9.43,22.67z"/>
		<path id="XMLID_13_" class="st0" d="M46,32.62c-0.08,0-0.25,0-0.33,0.08c-0.08,0-0.25,0.08-0.33,0.17
			c-0.08,0.08-0.17,0.08-0.25,0.17c-0.08,0.08-0.17,0.17-0.25,0.25c-0.08,0.08-0.08,0.17-0.17,0.25
			c-2.74,8.79-5.39,17.58-8.13,26.37c0,0.08,0,0.17-0.08,0.25c0,0.08,0,0.17,0,0.25c0,0.08,0.08,0.17,0.17,0.25
			c0.08,0.08,0.17,0.17,0.25,0.17c0.08,0.08,0.17,0.08,0.25,0.08c0.08,0,0.17,0,0.25,0c4.15,0,8.29,0,12.44,0c0.08,0,0.25,0,0.33,0
			c0.08,0,0.25-0.08,0.33-0.17c0.08-0.08,0.17-0.08,0.25-0.25c0.08-0.08,0.17-0.33,0.25-0.5c2.82-8.79,5.56-17.58,8.37-26.37
			c0-0.08,0-0.17,0.08-0.25c0-0.08,0-0.17,0-0.25c0-0.08,0-0.17-0.08-0.17c0-0.08-0.08-0.08-0.17-0.17
			c-0.08-0.08-0.17-0.08-0.17-0.08c-0.08,0-0.17,0-0.17,0C54.45,32.62,50.22,32.62,46,32.62L46,32.62z"/>
		<path class="st0" d="M83.22,47.05c-2.49,5.22-14.18,5.89-11.69-1.08c0.75-2.16,3.57-4.06,6.55-4.31
			C81.4,41.33,84.96,43.4,83.22,47.05L83.22,47.05z M96.16,45.8c3.57-12.44-14.34-20.56-30.76-8.79
			c-7.88,5.64-10.61,16.75-2.4,21.81c4.15,2.57,8.37,3.15,14.18,2.24C84.47,59.9,93.75,54.09,96.16,45.8L96.16,45.8z"/>
		<path id="XMLID_10_" class="st0" d="M53.95,18.69c4.64-0.75,8.54,1.16,8.71,4.23c0.17,3.07-3.4,6.14-8.04,6.88
			c-4.64,0.75-8.54-1.16-8.71-4.23C45.66,22.51,49.31,19.44,53.95,18.69z"/>
		<path id="XMLID_9_" class="st0" d="M104.12,32.46c-2.82,9.04-5.64,18.07-8.46,27.11c0,0.17-0.08,0.33-0.08,0.5
			s0.08,0.33,0.08,0.41c0.08,0.08,0.17,0.17,0.25,0.25c0.08,0.08,0.17,0.08,0.25,0.17c0.08,0,0.17,0,0.25,0c4.15,0,8.21,0,12.35,0
			c0.08,0,0.25,0,0.33,0c0.17,0,0.25-0.08,0.41-0.08c0.08-0.08,0.17-0.08,0.25-0.17s0.17-0.17,0.25-0.25
			c0.08-0.08,0.08-0.17,0.17-0.25c1.58-5.31,3.07-10.53,4.64-15.84c0.08-0.25,0.25-0.58,0.41-0.75c0.17-0.17,0.5-0.25,0.83-0.33
			c0.41-0.08,0.91-0.17,1.58-0.17c0.66-0.08,1.49-0.08,2.16-0.08s1.08,0,1.41,0c0.33,0.08,0.58,0.17,0.75,0.25
			c0.17,0.08,0.25,0.25,0.33,0.33c0.08,0.17,0.17,0.33,0.25,0.66c0.08,0.33,0.08,0.75,0,1.08c-0.08,0.33-0.17,0.66-0.33,1.08
			c-0.17,0.41-0.33,1.08-1.08,3.32c-0.75,2.24-1.91,6.14-3.15,10.03c0,0.08,0,0.17-0.08,0.25c0,0.08,0,0.17,0,0.33
			c0,0.08,0.08,0.17,0.08,0.25c0.08,0.08,0.17,0.17,0.25,0.25c0.08,0.08,0.17,0.08,0.33,0.08c0.08,0,0.17,0,0.25,0
			c4.23,0,8.46,0,12.69,0c0.17,0,0.33,0,0.41,0c0.17,0,0.25-0.08,0.33-0.17s0.17-0.17,0.25-0.25c0.08-0.08,0.08-0.17,0.17-0.25
			c1.49-4.81,2.9-9.62,4.39-14.43c0.08-0.33,0.17-0.66,0.33-1.24c0.08-0.58,0.17-1.33,0.25-1.91s0.08-1.08,0-1.66
			s-0.17-1.33-0.25-1.82c-0.08-0.58-0.25-0.99-0.33-1.33c-0.17-0.33-0.33-0.66-0.58-1.08c-0.25-0.41-0.58-0.91-0.91-1.33
			c-0.33-0.41-0.75-0.83-1.24-1.24c-0.5-0.41-1.08-0.83-1.66-1.08c-0.58-0.33-1.08-0.5-1.58-0.66c-0.5-0.17-0.99-0.41-1.66-0.58
			c-0.58-0.17-1.33-0.25-2.49-0.33c-1.08-0.08-2.57-0.08-3.81,0s-2.24,0.17-3.07,0.25c-0.91,0.08-1.66,0.25-2.32,0.41
			c-0.75,0.17-1.41,0.33-2.07,0.5c-0.66,0.17-1.41,0.33-2.07,0.5c-0.75,0.08-1.49,0.08-1.99,0.08c-0.5-0.08-0.83-0.17-1.24-0.25
			s-0.83-0.17-1.24-0.25s-0.75-0.17-1.24-0.25c-0.41-0.08-0.99-0.08-1.58-0.08S104.78,32.46,104.12,32.46L104.12,32.46z"/>
		<path id="XMLID_8_" class="st0" d="M264.88,31.96c-0.08,0-0.17,0-0.25,0c-0.08,0-0.17,0.08-0.25,0.08
			c-0.08,0.08-0.17,0.08-0.17,0.17c-0.08,0.08-0.08,0.08-0.17,0.17c0,0.08-0.08,0.17-0.08,0.25c-2.82,9.12-5.56,18.16-8.37,27.28
			c0,0.08,0,0.17,0,0.25c0,0.08,0,0.17,0.08,0.25c0,0.08,0.08,0.17,0.17,0.17c0.08,0.08,0.17,0.08,0.25,0.08c0.08,0,0.17,0,0.25,0
			c4.31,0,8.71,0,13.02,0c0.08,0,0.25,0,0.33-0.08c0.08,0,0.17-0.08,0.25-0.17c0.08-0.08,0.17-0.17,0.17-0.25
			c0-0.08,0.08-0.17,0.08-0.25c2.82-9.12,5.72-18.32,8.54-27.44c0-0.08,0-0.08,0-0.17s0-0.08,0-0.17c0-0.08-0.08-0.17-0.08-0.17
			c-0.08-0.08-0.08-0.08-0.17-0.08s-0.17,0-0.25-0.08c-0.08,0-0.17,0-0.25,0C273.59,31.87,269.19,31.87,264.88,31.96L264.88,31.96z"
			/>
		<path id="XMLID_7_" class="st0" d="M273.09,18.19c4.64-0.75,8.54,1.16,8.71,4.23c0.17,3.07-3.4,6.14-8.04,6.88
			c-4.64,0.75-8.54-1.16-8.71-4.23C264.88,22.01,268.45,18.94,273.09,18.19z"/>
		<path id="XMLID_6_" class="st0" d="M241.09,44.73c-0.99,3.23-2.82,9.29-4.73,15.42c0,0.08,0,0.08,0,0.17s0,0.17,0.08,0.25
			c0.08,0.08,0.17,0.17,0.17,0.17c0.08,0,0.17,0.08,0.17,0.08c0.08,0,0.08,0,0.17,0c4.31,0,8.62,0,13.02,0c0.08,0,0.17,0,0.25,0
			c0.08,0,0.17,0,0.17-0.08c0.08,0,0.17-0.08,0.25-0.08c0.08-0.08,0.17-0.08,0.25-0.17c0.08-0.08,0.08-0.17,0.17-0.25
			c2.9-9.2,5.72-18.41,8.62-27.61c0-0.08,0.08-0.25,0.08-0.33c0-0.08-0.08-0.17-0.17-0.25c-0.08-0.08-0.17-0.08-0.25-0.08
			c-1.58,0-3.15,0-4.23-0.08c-1.08-0.08-1.58-0.17-2.07-0.25c-0.5-0.08-0.91-0.25-1.41-0.33c-0.5-0.17-0.99-0.33-1.41-0.5
			c-0.41-0.17-0.83-0.25-1.41-0.41c-0.58-0.17-1.41-0.33-2.07-0.5c-0.66-0.17-1.24-0.25-1.99-0.33c-0.75-0.08-1.74-0.17-2.74-0.25
			c-0.91-0.08-1.82-0.08-2.74,0c-0.91,0.08-1.91,0.17-2.65,0.25c-0.75,0.08-1.24,0.25-1.82,0.33c-0.5,0.17-1.08,0.33-1.58,0.5
			c-0.5,0.17-0.99,0.41-1.58,0.66c-0.5,0.25-1.08,0.5-1.66,0.83s-1.24,0.66-1.91,1.16c-0.66,0.5-1.33,0.99-1.99,1.66
			c-0.66,0.58-1.33,1.24-1.99,1.91c-0.66,0.66-1.24,1.41-1.91,2.32c-0.58,0.91-1.16,1.91-1.66,2.82c-0.5,0.91-0.91,1.74-1.24,2.49
			s-0.58,1.49-0.91,2.4c-0.25,0.99-0.58,2.24-0.66,3.23c-0.17,1.08-0.17,1.91-0.08,2.57c0.08,0.66,0.17,1.16,0.25,1.66
			c0.08,0.41,0.17,0.83,0.33,1.16c0.08,0.33,0.17,0.66,0.33,0.99c0.08,0.33,0.25,0.58,0.41,0.91c0.17,0.33,0.33,0.58,0.58,0.91
			c0.25,0.33,0.5,0.58,0.75,0.83c0.25,0.25,0.41,0.41,0.66,0.66c0.25,0.17,0.58,0.41,0.91,0.58c0.33,0.17,0.75,0.41,1.24,0.58
			c0.5,0.17,0.99,0.25,1.49,0.33c0.5,0.08,1.08,0.08,1.58,0.08c0.5,0,0.99,0,1.41-0.08c0.41-0.08,0.83-0.17,1.24-0.33
			c0.41-0.17,0.91-0.33,1.41-0.58c0.41-0.17,0.83-0.41,1.33-0.66c0.41-0.25,0.91-0.58,1.41-0.83c0.41-0.33,0.83-0.58,1.24-0.99
			c0.41-0.33,0.83-0.75,1.08-1.08c0.33-0.33,0.5-0.66,0.75-0.91c0.17-0.33,0.41-0.58,0.58-0.99c0.17-0.33,0.41-0.75,0.58-1.16
			c0.17-0.41,0.25-0.83,0.33-1.16c-0.17,0.08-0.41,0.25-0.66,0.33c-0.25,0.08-0.58,0.17-1.08,0.33c-0.5,0.17-1.16,0.33-1.74,0.41
			s-1.08,0.08-1.49,0.08c-0.41-0.08-0.75-0.17-0.99-0.33c-0.33-0.17-0.66-0.33-0.91-0.58c-0.25-0.25-0.5-0.58-0.66-0.91
			c-0.17-0.33-0.25-0.66-0.25-1.16c0-0.5,0-1.16,0-1.66c0.08-0.58,0.17-0.99,0.25-1.49c0.08-0.5,0.25-0.91,0.33-1.41
			c0.17-0.5,0.33-0.99,0.58-1.58c0.25-0.58,0.58-1.16,0.91-1.74c0.33-0.58,0.75-1.24,1.33-1.82c0.58-0.66,1.24-1.33,1.91-1.82
			c0.66-0.5,1.16-0.83,1.66-0.99c0.5-0.17,0.99-0.33,1.49-0.33c0.5-0.08,0.91-0.08,1.41,0c0.41,0.08,0.83,0.17,1.16,0.33
			s0.5,0.33,0.66,0.5c0.17,0.17,0.33,0.41,0.41,0.66c0.08,0.25,0.17,0.58,0.17,0.83c0,0.33,0,0.58,0,0.91
			C242.08,41.24,242.08,41.58,241.09,44.73L241.09,44.73z"/>
		<path id="XMLID_5_" class="st0" d="M283.37,31.96c-2.9,9.29-5.72,18.49-8.62,27.78c0,0.08-0.08,0.25-0.08,0.33s0,0.25,0.08,0.33
			s0.17,0.17,0.25,0.25c0.08,0.08,0.25,0.08,0.33,0.08s0.17,0,0.25,0c4.06,0,8.04,0,12.11,0c0.08,0,0.17,0,0.33,0
			s0.33-0.08,0.5-0.17s0.33-0.25,0.5-0.41c0.08-0.17,0.17-0.33,0.25-0.58c1.24-4.39,2.57-8.87,3.81-13.35
			c0.17-0.33,0.25-0.75,0.41-1.08c0.17-0.33,0.33-0.58,0.5-0.75c0.17-0.25,0.41-0.41,0.58-0.58s0.41-0.33,0.58-0.41
			c0.25-0.17,0.41-0.25,0.75-0.33c0.25-0.08,0.58-0.17,0.91-0.25s0.58-0.08,0.91-0.08c0.33,0,0.58,0,0.83,0.08s0.41,0.08,0.66,0.17
			c0.25,0.08,0.5,0.17,0.75,0.25c2.24-2.74,4.48-5.47,6.72-8.13c-0.08-0.33-0.17-0.58-0.33-0.83c-0.17-0.33-0.33-0.58-0.58-0.83
			c-0.25-0.33-0.58-0.58-0.99-0.83c-0.33-0.25-0.75-0.41-1.08-0.58c-0.41-0.17-0.75-0.25-1.24-0.33c-0.5-0.08-1.08-0.25-1.82-0.25
			s-1.82,0-2.82,0.08c-0.91,0.08-1.74,0.25-2.57,0.33c-0.83,0.08-1.58,0.25-2.4,0.33c-0.75,0.08-1.58,0.17-2.32,0.17
			c-0.75,0-1.58,0-2.16-0.08c-0.58-0.08-0.99-0.17-1.82-0.17C285.69,31.96,284.53,31.96,283.37,31.96L283.37,31.96z"/>
		<path class="st0" d="M208.17,19.94c-0.17,0.75-0.91,1.74-1.24,2.4c-0.25-0.17-0.58-0.66-0.83-0.91c-0.33-0.33-0.58-0.66-0.75-1.08
			c0.58,0,1.08,0,1.49-0.08C207.51,20.18,207.67,20.02,208.17,19.94z M190.34,69.27L190.34,69.27c-0.08-0.5-0.17-1.08-0.25-1.66
			c0.5,0,0.99-0.08,1.58-0.08l0,0l0,0c0.83-0.08,2.24-0.25,4.56-1.49c1.41-0.75,3.4-2.74,4.31-4.06c1.49-2.07,2.24-4.73,2.24-7.38
			l0,0l0,0v-0.08c0-0.66-0.08-1.41-0.17-2.07c0-0.08,0-0.08,0-0.17l0,0c-0.25-1.24-0.58-2.4-1.16-3.57
			c-1.66-3.4-4.81-5.72-8.37-6.72c-0.75-0.17-1.49-0.33-2.24-0.41h-0.17h-0.08c-2.16-0.17-4.31,0.17-6.38,1.08
			c-0.17,0.08-0.41,0.17-0.58,0.25c-1.58,0.83-2.98,1.91-4.06,3.23l0,0l-0.25-0.08c-4.06-1.99-10.12-13.27-11.52-18.41
			c-1.74-6.38-2.9-17.25-1.41-23.8c0.25-0.99,0.5-2.49,0.58-2.98c-4.15-2.65-9.78,0.91-10.45,9.04
			c-0.99,13.02,6.96,26.7,16.25,34.74c1.33,1.16,2.4,1.91,3.15,2.49l1.99,1.49c-0.33,0.58-0.58,1.16-0.75,1.74
			c-1.41-0.83-2.74-1.66-4.23-2.82c-1.33-0.99-2.57-1.99-3.9-3.07c-2.82-2.4-4.31-4.06-6.8-7.05c-3.15-3.65-8.54-12.77-8.87-19.07
			c-6.14-0.83-9.95,10.78,1.58,21.31c7.46,6.88,12.27,8.87,21.72,12.85c-0.08,0.5-0.17,0.99-0.17,1.41v0.17
			c-1.49,0.17-7.13-1.66-8.79-2.24c-14.76-5.39-18.16-11.77-19.9-13.6c-2.4,1.74-2.82,6.63-0.66,9.53
			c3.65,4.81,11.44,7.63,17.58,8.29c3.81,0.41,6.72,0.58,10.53,0.41l1.41-0.17c0.08,0.66,0.25,1.33,0.41,1.91l-0.25,0.08l-0.25-0.08
			l0,0c-8.04,1.66-14.34,1.33-22.05-1.16c-2.16-0.66-5.06-2.4-5.39-2.57c-0.66,0.58-1.99,10.36,11.28,10.45
			c3.32,0,6.72-0.66,9.53-1.58c2.74-0.91,5.14-1.91,7.96-2.98c0.25,0.5,0.58,0.99,0.91,1.49l-0.41,0.33
			c-0.08,0.08-0.17,0.17-0.33,0.25c-1.82,1.58-6.38,3.48-8.71,4.23c-5.22,1.66-7.54,1.41-12.77,0.83c0.66,6.88,8.37,6.05,12.77,4.31
			c4.48-1.74,7.38-5.06,10.7-8.37c0.33,0.41,0.75,0.75,1.16,1.08c-0.25,0.66-0.58,1.16-0.99,1.66c-1.91,2.82-6.63,6.38-9.45,7.71
			c-2.9,1.33-4.56,1.41-4.97,1.49c0.25,1.82,2.16,2.82,4.39,2.74c6.63-0.08,10.94-8.54,12.19-11.03l0.66-1.41
			c0.41,0.25,0.91,0.5,1.41,0.66l-0.5,1.66c0,0.08-0.08,0.17-0.08,0.25l0,0c-0.33,0.91-0.83,2.07-1.74,3.65
			c-3.4,5.72-6.47,6.55-6.8,6.72c0.75,1.33,3.15,1.74,4.89,0.99c4.31-1.74,4.97-8.13,5.72-11.69l0.17-0.99
			c0.5,0.17,0.91,0.25,1.41,0.33v0.08c0.83,7.46-2.57,11.03-2.74,11.44c2.32,0.41,4.31,0,5.31-1.74c0.99-1.66,0.5-4.56,0.25-6.63
			c2.32-0.08,5.06-0.91,6.8-1.49c5.64-1.91,9.37-6.63,10.86-12.27c0.17-0.5,0.41-1.08,0.5-1.66c0.91,0,1.91-0.08,1.91-1.24
			c0-0.25-0.25-0.99-0.33-1.16c-0.33-0.58-1.82-1.49-1.82-3.07c0-0.33,0.17-0.91,0.25-1.24c0.75-0.08,1.74-0.83,1.74-1.66
			c0-1.24-2.07-1.82-2.82-2.57c-0.75-0.75-1.66-2.65-1.66-3.73c0-0.66-0.33-2.4,0.66-2.4c1.08,0,5.47,2.24,5.47-4.48
			c-1.66,0.83-2.9,1.33-4.64,0c-1.99-1.58-0.33-6.96,3.4-6.96c0.83,0,1.41,0.17,1.82,0.66c0.33,0.41,0.58,1.24,0.66,1.91
			c0.75-0.5,1.33-1.16,1.82-1.91c0.33-0.5,0.99-2.24,0.99-2.98c0-0.5-0.25-0.66-0.25-1.08c0.08-0.66,0.91-1.49-0.17-2.24
			c-0.91-0.58-2.65,0.5-5.64-0.99c-0.41-0.17-0.83-0.5-1.16-0.58c0-0.75,0.25-0.91,0.25-1.66c0-1.16-3.73-2.65-4.97-3.48
			c-0.91-0.58-1.66-1.08-2.4-1.82c-0.99-0.99-1.49-1.82-1.58-2.32c-0.17-0.08-0.41-0.17-0.66-0.17c-1.08,0-1.99,0.83-2.16,1.74
			c-0.25-0.25-0.41-0.41-0.75-0.66c-0.33-0.25-0.75-0.41-1.08-0.58c-2.49-1.08-4.15-1.16-6.8-2.57c-0.99,0.66-1.82,1.74-1.49,3.15
			c-1.24-0.66-2.4-0.58-3.73-0.33c-0.83,0.08-3.4,0.5-4.06,0.41c-0.66,0-1.58-0.08-2.07-0.25c-0.08,0.75-0.41,1.41-0.41,2.32
			s0.25,1.49,0.41,1.74c-1.58,0-2.32,0-3.57,0.25s-2.24,0.33-3.48,0.25c-0.41,1.66-0.41,2.4,0.41,4.06
			c0.33,0.58,0.99,1.66,1.33,1.91c-0.66,0.25-1.91,0.5-2.57,0.58c0,1.91,0.83,4.64,1.33,6.38c1.49,5.31,4.06,9.7,7.38,13.93
			c0.33,0.41,0.66,0.75,0.99,1.08c0.33-0.33,0.58-0.5,0.99-0.83c3.07-2.4,5.97-3.4,10.2-3.4c1.99,0,4.39,0.75,5.8,1.41
			c1.82,0.91,2.9,1.66,4.31,3.07c1.99,1.99,3.15,4.31,3.81,7.05c1.41,5.56-0.58,12.11-5.22,15.42c-0.83,0.58-1.58,0.99-2.49,1.49
			C195.15,68.52,192.5,69.18,190.34,69.27L190.34,69.27z M193,18.19c0,0.5,0.5,1.41,0.25,1.49c-1.08-0.08-1.66-1.16-1.66-2.32
			c0-2.24,4.06-2.98,4.73-0.17c-0.5-0.25-1.49-0.58-2.07-0.58C193.66,16.7,193,17.53,193,18.19L193,18.19z"/>
	</g>
</g>
</svg>
