<?xml version="1.0" encoding="utf-8"?>
<!-- Generator: Adobe Illustrator 25.4.1, SVG Export Plug-In . SVG Version: 6.00 Build 0)  -->
<svg version="1.1" id="Layer_1" xmlns="http://www.w3.org/2000/svg" xmlns:xlink="http://www.w3.org/1999/xlink" x="0px" y="0px"
	 viewBox="0 0 116.13 80" style="enable-background:new 0 0 116.13 80;" xml:space="preserve">
<style type="text/css">
	.st0{fill:#0F2D53;}
</style>
<polygon class="st0" points="48.12,55.64 53.31,61.64 56.64,57.79 50.05,50.16 46.72,46.31 43.63,42.7 40.57,46.77 44.04,50.81 
	44.03,50.82 "/>
<path class="st0" d="M114.66,26.55c-4.72-4.63-9.74-6.87-14.91-6.66c-4.11,0.17-7.47,1.89-9.73,3.47c-0.09,0.06-0.17,0.12-0.26,0.18
	l-0.08,0.06c-0.29,0.21-0.56,0.41-0.81,0.61l-3.58-3.88c-0.88-1.03-2.21-2.69-2.56-3.64c-0.26-0.74-0.32-1.49-0.41-1.93
	c-0.3-1.53-0.47-4.08-0.47-4.08s0-0.61-0.29-1.3l-0.36-0.89c0,0,2.98-1.31,5.12-1.21l1.28,1.56l0.04-1.55V5.07
	c0,0-0.14-1.2-1.28-2.11c-0.85-0.67-1.24-0.73-2.29-0.89c-1.31-0.19-1.55,0.17-2.54-0.75L80.64,0l-5.57,0.02l-2.18,0.81
	c0,0-1.2,0.29-2.02,2.33L69.2,8.43c0,0-0.45,1.74-0.55,4.37c-0.1,2.64-0.05,0.09-0.05,0.09s-0.12,3.94-0.59,5.11l-0.9,3.1
	c-1.3,3.09-2.61,4.61-2.64,4.64l-5.01,5.8h0l-1.4,1.62l-1.4-1.62l0.02-0.01l-3.07-3.52l-0.44-0.5h0l-1.54-1.76
	c-0.03-0.04-1.42-1.64-2.75-4.91l-0.83-2.84c-0.47-1.18-0.59-5.11-0.59-5.11s0.05,2.55-0.05-0.09c-0.1-2.63-0.55-4.37-0.55-4.37
	l-1.66-5.26c-0.81-2.05-2.01-2.33-2.01-2.33l-2.19-0.81L35.44,0l-0.9,1.32C33.56,2.24,33.31,1.88,32,2.07
	c-1.05,0.16-1.44,0.22-2.29,0.89c-1.14,0.91-1.28,2.11-1.28,2.11v2.25l0.04,1.55l1.28-1.56c2.13-0.11,5.12,1.21,5.12,1.21L34.51,9.4
	c-0.29,0.69-0.29,1.3-0.29,1.3s-0.16,2.55-0.47,4.08c-0.09,0.43-0.14,1.19-0.41,1.93c-0.46,1.28-2.73,3.84-3.24,4.41l-2.87,3.1
	c-2.2-1.77-6-4.14-10.87-4.33c-5.17-0.21-10.2,2.03-14.91,6.66L0,27.97l1.09,1.72c0.16,0.26,4.04,6.26,10.99,7.61
	c4.51,0.87,9.42-0.49,14.07-3.83l-3.39-3.84c-3.46,2.48-6.6,3.31-9.68,2.74c-2.9-0.55-5.11-2.38-6.41-3.75
	c3.13-2.57,6.29-3.81,9.44-3.7c5.51,0.2,9.38,4.53,9.41,4.57l8.17,9.46l3.32-3.86l-6.25-7.23l7.3-9.12l2.98-3.71
	c0.7,3.67,4.04,10.01,5.47,12.23l-8.11,9.45l-3.24,3.77h0l-0.04,0.06l-0.03,0.04h0l-3.46,4.04c-1.81,1.88-8.1,8.12-15.49,12.1
	c0,0,2.31,1.59,5.36,1.53c1.83-0.02,3.92-0.64,5.94-2.55c0.83-0.79,2.03-1.86,3.21-3.02c0,0-0.55,1.36,0.76,3.8
	c1.01,1.88,2.79,3,5.18,3.09c3.75,0.14,6.45-1.83,8.33-4.09l-2.69-2.98c0,0-2.44,3.47-5.4,1.35c-1.09-1.02-1-2.75-1-2.75
	s-0.03-0.58,0.54-1.79c2.02-3.43,7.55-10.65,10.83-14.85l2.53-3.2l3.6,4.16l0.01-0.01l1.42,1.64l-0.01,0.01l0.08,0.09l-6.31,7.83
	l2.87,3.22l6.67-7.29l0.01,0.02l0.02-0.02l8.15,9.07l-0.01,0.01l3.38,3.8v-0.01l1.2,1.28l0.83,0.93c1.86,2.04,4.42,3.72,7.9,3.59
	c2.4-0.09,4.17-1.21,5.18-3.09c1.32-2.45,0.76-3.8,0.76-3.8c1.18,1.16,2.39,2.23,3.21,3.02c5.37,5.09,11.29,1.02,11.29,1.02
	c-7.38-3.98-13.68-10.22-15.49-12.1l-1.97-2.3l-4.12,4.62c2,2.73,1.9,4.18,1.9,4.18s0.08,1.73-1,2.75
	c-2.95,2.15-5.56-1.54-5.56-1.54l-8.19-9.94l-0.04-0.05l-4.2-5.19l0.08-0.09l-0.01-0.01l3.12-3.61l0,0l1.88-2.17l0.83,1.04
	l5.35,7.24l3.76-4.47l-6.12-7.14l-0.01,0.02l-0.6-0.7c1.43-2.21,4.77-8.55,5.46-12.23l2.98,3.71l7.3,9.12l-1.5,1.73h0l-6.14,7.11
	l-5.3,6.14l-1.59,1.84l3.33,3.85l2.65-3.06l0.27-0.32l3.98-4.59l2.32-2.69l7.24-8.38c0.03-0.03,3.9-4.36,9.41-4.57
	c3.15-0.11,6.31,1.13,9.44,3.7c-1.3,1.37-3.51,3.19-6.41,3.75c-3.08,0.58-6.25-0.27-9.71-2.76l-3.3,3.84
	c4.66,3.34,9.51,4.74,14.02,3.86c6.96-1.35,10.84-7.35,11-7.61l1.09-1.72L114.66,26.55L114.66,26.55z M62.81,64.76l-3.42,4.03
	l0.39,0.46l-0.01,0l2.07,2.4c1.09,1.34,4.09,4.79,4.55,8.34c0,0,2.96-4.07,0.71-9.79C67.11,70.21,66.77,68.7,62.81,64.76"/>
<path class="st0" d="M60.11,57.06l-5.38,6.22c-5.41,5.05-5.83,6.92-5.83,6.92C46.65,75.93,49.61,80,49.61,80
	c0.46-3.55,3.45-7,4.55-8.33l2.08-2.41l-0.01-0.01l7.44-8.6l0.01,0.01l4.4-5.09l-3.29-3.91C64.78,51.65,60.11,57.06,60.11,57.06z"/>
</svg>
