<?xml version="1.0" encoding="utf-8"?>
<!-- Generator: Adobe Illustrator 25.4.1, SVG Export Plug-In . SVG Version: 6.00 Build 0)  -->
<svg version="1.1" id="Layer_1" xmlns="http://www.w3.org/2000/svg" xmlns:xlink="http://www.w3.org/1999/xlink" x="0px" y="0px"
	 viewBox="0 0 398.92 80" style="enable-background:new 0 0 398.92 80;" xml:space="preserve">
<style type="text/css">
	.st0{fill:#0F2D53;}
</style>
<g>
	<path class="st0" d="M181.75,58.13l3.33-15.9c0.66-3.19,1.68-5.87,3.05-8.03c1.37-2.16,2.99-3.89,4.86-5.18
		c1.79-1.23,3.78-2.13,5.89-2.66c2.11-0.55,4.27-0.82,6.45-0.81c0.16,0,0.36,0.01,0.6,0.01c0.24,0,2.27,0.01,2.43,0.01
		c0,0-1.24,1.5-2.07,3.68c-0.63,1.67-0.68,5.02-0.68,5.02l-3.41-0.02c-2.55-0.01-4.38,0.54-5.74,1.68
		c-1.36,1.14-2.29,2.93-2.81,5.39l-3.51,16.82L181.75,58.13L181.75,58.13z M206.98,46.51l7.62,0.01c-0.3,2.15,0.13,3.66,1.27,4.52
		c1.18,1.01,3.04,1.51,5.58,1.51c2.25,0,4.06-0.39,5.44-1.18c1.33-0.73,2.3-1.97,2.69-3.44c0.63-2.3-2.13-4.16-8.27-5.61l-0.19-0.1
		l-0.81-0.22c-3.48-0.79-5.73-1.62-6.73-2.48c-1.23-0.8-1.94-1.94-2.1-3.45c-0.38-1.3-0.29-2.94,0.27-4.95
		c0.96-3.51,2.96-6.28,5.98-8.28c2.99-1.94,6.86-2.9,11.58-2.89c4.43,0,7.56,1.01,9.42,3.02c1.85,2.23,2.37,5.13,1.53,8.72l-4.36,0
		c-1.67-0.01-2.66-0.76-2.97-2.27c-0.16-0.7-0.51-1.33-1.03-1.83c-1.05-0.93-2.7-1.4-4.95-1.4c-2.18,0-3.85,0.39-5.01,1.18
		c-1.26,0.73-2.17,1.93-2.55,3.33c-0.53,1.94,1.18,3.38,5.14,4.32c1.13,0.36,1.99,0.58,2.55,0.65c1.19,0.43,2.23,0.77,3.15,1.03
		c0.91,0.26,1.63,0.45,2.18,0.59c0.9,0.43,1.8,0.87,2.7,1.29c1.21,0.86,2.04,1.98,2.46,3.34c0.38,1.51,0.33,3.16-0.16,4.95
		c-1.06,3.87-3.2,6.89-6.4,9.04c-3.16,2-7.14,3.01-11.94,3.01c-4.94-0.01-8.36-1.05-10.25-3.14
		C206.68,53.69,206.08,50.6,206.98,46.51 M240.81,58.08l9.09-33.15c0.29-1.08,0.92-2,1.89-2.74c0.97-0.76,2.01-1.12,3.1-1.12l23.3,0
		l-1.74,6.34h-19.61l-2.18,7.96l14.6-0.01l-0.68,2.5c-0.29,1.08-0.92,1.99-1.9,2.74c-0.97,0.76-2,1.12-3.09,1.12l-10.66-0.01
		l-2.61,9.48l19.62,0l-1.89,6.88L240.81,58.08L240.81,58.08z M275.05,58.13l9.09-33.19c0.29-1.08,0.92-1.99,1.89-2.74
		c0.98-0.75,2.02-1.13,3.11-1.13l14.25,0.02c4.07,0,6.85,0.86,8.33,2.59c1.54,1.8,1.84,4.41,0.89,7.86c-0.63,2.3-1.66,4.2-3.09,5.71
		c-1.26,1.44-2.93,2.47-4.99,3.12c1.51,0.58,2.44,1.44,2.78,2.58c0.36,1.08,0.26,2.91-0.31,5.5l-0.99,4.41
		c-0.12,0.43-0.24,0.9-0.38,1.4c-0.14,0.5-0.23,0.97-0.27,1.4c-0.14,1.29,0.1,2.12,0.65,2.49h-8.52c-0.16-0.75-0.18-1.53-0.03-2.28
		c0.17-1.15,0.31-1.93,0.44-2.36l0.98-3.98c0.44-2.16,0.43-3.7-0.04-4.63c-0.59-0.8-1.89-1.2-3.93-1.2l-8.17,0l-3.96,14.45
		L275.05,58.13L275.05,58.13L275.05,58.13z M288.51,37.21l9.04,0.01c1.96,0,3.52-0.39,4.68-1.18c1.16-0.79,1.96-2.01,2.42-3.66
		c0.45-1.65,0.31-2.87-0.41-3.66c-0.64-0.86-1.83-1.3-3.57-1.3l-9.47-0.01L288.51,37.21L288.51,37.21z M312.15,58.13l9.09-33.16
		c0.29-1.07,0.92-1.99,1.89-2.75c0.97-0.75,2.03-1.15,3.11-1.15h13.7c3.85,0.01,6.58,0.83,8.17,2.41c1.57,1.73,1.95,4.06,1.14,7.01
		c-0.52,1.86-1.34,3.44-2.5,4.73c-1.17,1.25-2.59,2.23-4.17,2.9c1.67,0.79,2.81,1.91,3.44,3.35c0.57,1.36,0.55,3.15-0.06,5.38
		c-0.98,3.59-2.91,6.38-5.79,8.39c-2.93,1.94-6.57,2.88-10.93,2.88L312.15,58.13L312.15,58.13z M325.79,35.42l8.82,0
		c1.88,0,3.35-0.32,4.4-0.96c1.05-0.65,1.76-1.65,2.13-3.01c0.38-1.36,0.21-2.37-0.48-3.02c-0.57-0.57-1.9-0.86-4.01-0.86
		l-8.72-0.01L325.79,35.42L325.79,35.42z M321.39,51.46l9.15,0.01c2.04,0,3.71-0.39,5.01-1.18c1.21-0.71,2.06-1.94,2.53-3.66
		c0.47-1.72,0.31-2.97-0.49-3.77c-0.75-0.72-2.25-1.08-4.49-1.08l-9.04-0.01C324.04,41.77,321.39,51.46,321.39,51.46z M349.91,58.13
		L358.99,25c0.3-1.08,0.93-1.99,1.9-2.74c0.96-0.75,2.04-1.19,3.13-1.19h3.78l-10.16,37.06L349.91,58.13L349.91,58.13z
		 M179.88,27.67c0.17-1.04-0.03-1.96-0.62-2.73c-0.62-0.83-1.49-1.25-2.61-1.26l-4.29-0.03l-1.81,8.57
		C173.7,30.79,176.81,29.27,179.88,27.67 M178.47,34.27c-2.98,1.34-6.02,2.54-9.11,3.6l-4.26,20.25h8.38l5.07-24.05L178.47,34.27z
		 M389.13,44.27h-9.63l9.52-15.69l1.02,16.72c2.25-0.29,5.03,0.86,7.65,0.05l-2.28-24.28h-6.01c-1.82,0-3.36,0.9-4.47,2.55
		l-21.89,34.51h8.19l4.52-7.58l14.55-0.01l0.38,7.59h8.21l-1.37-14.67C392.11,44.42,389.13,44.27,389.13,44.27 M148.41,44.27h-9.63
		l9.53-15.69l0.77,13.1c2.25-0.28,4.77-0.89,7.4-1.7l-1.78-18.91h-6.01c-1.82,0-3.36,0.9-4.46,2.55l-21.89,34.51h8.19l4.52-7.58
		l14.54-0.01l0.39,7.59h8.2l-1.38-14.67C151.39,44.42,148.41,44.27,148.41,44.27 M48.12,55.64l5.19,6l3.33-3.85l-6.59-7.63
		l-3.33-3.85l-3.09-3.61l-3.07,4.08l3.47,4.03l-0.01,0.01L48.12,55.64z"/>
	<path class="st0" d="M114.66,26.55c-4.72-4.63-9.74-6.87-14.91-6.66c-4.11,0.17-7.47,1.89-9.73,3.47
		c-0.09,0.06-0.17,0.12-0.26,0.18l-0.08,0.06c-0.29,0.21-0.56,0.41-0.81,0.61l-3.58-3.88c-0.88-1.03-2.21-2.69-2.56-3.64
		c-0.26-0.74-0.32-1.49-0.41-1.93c-0.3-1.53-0.47-4.08-0.47-4.08s0-0.61-0.29-1.3l-0.36-0.89c0,0,2.98-1.31,5.12-1.21l1.28,1.56
		l0.04-1.55V5.07c0,0-0.14-1.2-1.28-2.11c-0.85-0.67-1.24-0.73-2.29-0.89c-1.31-0.19-1.55,0.17-2.54-0.75L80.64,0l-5.57,0.02
		l-2.18,0.81c0,0-1.2,0.29-2.02,2.33L69.2,8.43c0,0-0.45,1.74-0.55,4.37c-0.1,2.64-0.05,0.09-0.05,0.09s-0.12,3.94-0.59,5.11
		l-0.9,3.1c-1.3,3.09-2.61,4.61-2.64,4.64l-5.01,5.8h0l-1.4,1.62l-1.4-1.62l0.02-0.01l-3.07-3.52l-0.44-0.5h0l-1.54-1.76
		c-0.03-0.04-1.42-1.64-2.75-4.91l-0.83-2.84c-0.47-1.18-0.59-5.11-0.59-5.11s0.05,2.55-0.05-0.09c-0.1-2.63-0.55-4.37-0.55-4.37
		l-1.66-5.26c-0.81-2.05-2.01-2.33-2.01-2.33l-2.19-0.81L35.44,0l-0.9,1.32C33.56,2.24,33.31,1.88,32,2.07
		c-1.05,0.16-1.44,0.22-2.29,0.89c-1.14,0.91-1.28,2.11-1.28,2.11v2.25l0.04,1.55l1.28-1.56c2.13-0.11,5.12,1.21,5.12,1.21
		L34.51,9.4c-0.29,0.69-0.29,1.3-0.29,1.3s-0.16,2.55-0.47,4.08c-0.09,0.43-0.14,1.19-0.41,1.93c-0.46,1.28-2.73,3.84-3.24,4.41
		l-2.87,3.1c-2.2-1.77-6-4.14-10.87-4.33c-5.17-0.21-10.2,2.03-14.91,6.66L0,27.97l1.09,1.72c0.16,0.26,4.04,6.26,10.99,7.61
		c4.51,0.87,9.42-0.49,14.07-3.83l-3.39-3.84c-3.46,2.48-6.6,3.31-9.68,2.74c-2.9-0.55-5.11-2.38-6.41-3.75
		c3.13-2.57,6.29-3.81,9.44-3.7c5.51,0.2,9.38,4.53,9.41,4.57l8.17,9.46l3.32-3.86l-6.25-7.23l7.3-9.12l2.98-3.71
		c0.7,3.67,4.04,10.01,5.47,12.23l-8.11,9.45l-3.24,3.77h0l-0.04,0.06l-0.03,0.04h0l-3.46,4.04c-1.81,1.88-8.1,8.12-15.49,12.1
		c0,0,2.31,1.59,5.36,1.53c1.83-0.02,3.92-0.64,5.94-2.55c0.83-0.79,2.03-1.86,3.21-3.02c0,0-0.55,1.36,0.76,3.8
		c1.01,1.88,2.79,3,5.18,3.09c3.75,0.14,6.45-1.83,8.33-4.09l-2.69-2.98c0,0-2.44,3.47-5.4,1.35c-1.09-1.02-1-2.75-1-2.75
		s-0.03-0.58,0.54-1.79c2.02-3.43,7.55-10.65,10.83-14.85l2.53-3.2l3.6,4.16l0.01-0.01l1.42,1.64l-0.01,0.01l0.08,0.09l-6.31,7.83
		l2.87,3.22l6.67-7.29l0.01,0.02l0.02-0.02l8.15,9.07l-0.01,0.01l3.38,3.8v-0.01l1.2,1.28l0.83,0.93c1.86,2.04,4.42,3.72,7.9,3.59
		c2.4-0.09,4.17-1.21,5.18-3.09c1.32-2.45,0.76-3.8,0.76-3.8c1.18,1.16,2.39,2.23,3.21,3.02c5.37,5.09,11.29,1.02,11.29,1.02
		c-7.38-3.98-13.68-10.22-15.49-12.1l-1.97-2.3l-4.12,4.62c2,2.73,1.9,4.18,1.9,4.18s0.08,1.73-1,2.75
		c-2.95,2.15-5.56-1.54-5.56-1.54l-8.19-9.94l-0.04-0.05l-4.2-5.19l0.08-0.09l-0.01-0.01l3.12-3.61l0,0l1.88-2.17l0.83,1.04
		l5.35,7.24l3.76-4.47l-6.12-7.14l-0.01,0.02l-0.6-0.7c1.43-2.21,4.77-8.55,5.46-12.23l2.98,3.71l7.3,9.12l-1.5,1.73h0l-6.14,7.11
		l-5.3,6.14l-1.59,1.84l3.33,3.85l2.65-3.06l0.27-0.32l3.98-4.59l2.32-2.69l7.24-8.38c0.03-0.03,3.9-4.36,9.41-4.57
		c3.15-0.11,6.31,1.13,9.44,3.7c-1.3,1.37-3.51,3.19-6.41,3.75c-3.08,0.58-6.25-0.27-9.71-2.76l-3.3,3.84
		c4.66,3.34,9.51,4.74,14.02,3.86c6.96-1.35,10.84-7.35,11-7.61l1.09-1.72L114.66,26.55L114.66,26.55z M62.81,64.76l-3.42,4.03
		l0.39,0.46l-0.01,0l2.07,2.4c1.09,1.34,4.09,4.79,4.55,8.34c0,0,2.96-4.07,0.71-9.79C67.11,70.21,66.77,68.7,62.81,64.76"/>
	<path class="st0" d="M60.11,57.06l-5.38,6.22c-5.41,5.05-5.83,6.92-5.83,6.92C46.65,75.93,49.61,80,49.61,80
		c0.46-3.55,3.45-7,4.55-8.33l2.08-2.41l-0.01-0.01l7.44-8.6l0.01,0.01l4.4-5.09l-3.29-3.91C64.78,51.65,60.11,57.06,60.11,57.06z"
		/>
</g>
</svg>
