<?xml version="1.0" encoding="utf-8"?>
<!-- Generator: Adobe Illustrator 25.4.1, SVG Export Plug-In . SVG Version: 6.00 Build 0)  -->
<svg version="1.1" id="Layer_1" xmlns="http://www.w3.org/2000/svg" xmlns:xlink="http://www.w3.org/1999/xlink" x="0px" y="0px"
	 viewBox="0 0 338.5 80" style="enable-background:new 0 0 338.5 80;" xml:space="preserve">
<style type="text/css">
	.st0{fill:#0398F9;}
	.st1{fill:#151398;}
	.st2{fill:#151398;stroke:#000000;stroke-width:0.3211;stroke-miterlimit:15.1181;}
	.st3{fill:#8CD701;}
	.st4{fill:#E40098;}
</style>
<g id="layer1">
	<path id="path855" class="st0" d="M4.6,42.5C2,42.5,0,44.5,0,46.9c0,2.4,2,4.4,4.6,4.4c2.5,0,4.6-1.9,4.6-4.4
		C9.2,44.4,7.2,42.5,4.6,42.5z M43.9,48.3v6.4h-3.9v6H44V71c0,5.2,2.2,8.7,8.7,8.7c1.7,0,3.6-0.3,4.7-0.7L57.2,73
		c-0.6,0.2-1.6,0.4-2.4,0.4c-2.3,0-3-1.2-3-3.4v-9.3h5.7v-6h-5.7v-6.4H43.9z M72,53.9c-7.4,0-13.2,5.1-13.2,13.1
		c0,8.2,6.1,12.9,13.4,12.9c4.9,0,8.8-1.9,11.1-5.2l-5.6-3.5c-1.1,1.5-2.8,2.5-5.4,2.5c-2.9,0-5.6-1.9-5.8-4.6h17.7
		c0-0.6,0-1.3,0-1.9C84.2,58.8,79.2,53.9,72,53.9L72,53.9z M29.1,54c-3.2,0-5.9,1.8-7.1,3.8v-3.1h-0.2h-7.8v16.5c0,3,2,7.9,8,7.9V66
		c0,0,0-0.1,0-0.1c0-2.8,1.5-5.2,4.3-5.2c2.9,0,3.6,2.4,3.6,5.1v13.3H38V64C38,59.1,35.6,54,29.1,54L29.1,54z M103,54
		c-2.8,0-5.1,1.6-6.4,3.8v-3.2h-0.3h-7.7v16.5c0,3,2,7.9,8,7.9V66.5c0-2,1.4-5.5,5.7-5.5c0.6,0,1.3,0,2.1,0.2l0.3-7.1
		C104.3,54,103.6,54,103,54z M0.6,54.7v16.5c0,3,2,7.9,8,7.9V54.7H0.6z M72.1,59.4c3.2,0,4.8,2.1,4.8,4.7H66.5
		C66.7,61.6,69,59.4,72.1,59.4z"/>
	<path id="path865" class="st1" d="M198.7,42v19v18.1h7.4v-3.2h0.1c1.6,2.4,4.7,3.9,8,3.9c7.3,0,11.6-6.2,11.6-13
		c0-6.8-4.4-12.8-11.5-12.8c-3.6,0-6.1,1.7-7.4,3.3h-0.1v-7.3C206.8,46.9,204.7,42,198.7,42z M228.8,42v19v18.1h7.4v-3.2h0.1
		c1.6,2.4,4.7,3.9,8,3.9c7.3,0,11.6-6.2,11.6-13c0-6.8-4.4-12.8-11.5-12.8c-3.6,0-6.1,1.7-7.4,3.3h-0.1v-7.3
		C236.8,46.9,234.8,42,228.8,42z M189.4,42.5c-2.6,0-4.6,2.1-4.6,4.4c0,2.4,2,4.4,4.6,4.4c2.5,0,4.6-1.9,4.6-4.4
		C194,44.4,191.9,42.5,189.4,42.5z M125.6,43.5c-10.6,0-18.8,7.1-18.8,18.2c0,10.9,8,18.3,18.7,18.3c5.8,0,10.4-2.2,13.5-5.7
		l-5.8-5.5c-1.5,2.1-4.1,3.5-7.3,3.5c-5.8,0-9.8-4.3-9.8-10.6c0-6.1,4.2-10.6,10-10.6c2.6,0,5.4,1,7,3.2l5.7-5.7
		C135.6,45.2,130.4,43.5,125.6,43.5L125.6,43.5z M152,53.9c-4,0-8,1.4-10.9,4.1l4.1,4.4c1.5-1.4,3.7-2.5,6-2.5
		c2.5,0,4.4,1.1,4.4,3.5v0.4c-7.1,0-15.7,1.2-15.7,8.2c0,5.7,5,7.6,8.9,7.6c2.9,0,5.7-1.2,6.9-3.2h0.1v2.6h7.3V66.8
		C163.2,57.9,160.2,53.9,152,53.9L152,53.9z M272,53.9c-7.4,0-13.2,5.1-13.2,13.1c0,8.2,6.1,12.9,13.4,12.9c4.9,0,8.8-1.9,11.1-5.2
		l-5.6-3.5c-1.1,1.5-2.8,2.5-5.4,2.5c-2.9,0-5.6-1.9-5.8-4.6h17.7c0-0.6,0-1.3,0-1.9C284.2,58.8,279.2,53.9,272,53.9L272,53.9z
		 M298.2,53.9c-4,0-8,1.4-10.9,4.1l4.1,4.4c1.5-1.4,3.7-2.5,6-2.5c2.5,0,4.4,1.1,4.4,3.5v0.4c-7.1,0-15.7,1.2-15.7,8.2
		c0,5.7,5,7.6,8.9,7.6c2.9,0,5.7-1.2,6.9-3.2h0.1v2.6h7.3V66.8C309.4,57.9,306.4,53.9,298.2,53.9L298.2,53.9z M181.5,54
		c-2.8,0-5.1,1.6-6.4,3.8v-3.2h-0.3h-7.7v16.5c0,3,2,7.9,8,7.9V66.5c0-2,1.4-5.5,5.7-5.5c0.6,0,1.3,0,2.1,0.2l0.3-7.1
		C182.9,54,182.2,54,181.5,54L181.5,54z M329.6,54c-3.2,0-5.9,1.8-7.1,3.8v-3.1h-0.2h-7.8v16.5c0,3,2,7.9,8,7.9V66c0,0,0-0.1,0-0.1
		c0-2.8,1.5-5.2,4.3-5.2c2.9,0,3.6,2.4,3.6,5.1v13.3h8.1V64C338.5,59.1,336.2,54,329.6,54L329.6,54z M185.3,54.7v16.5
		c0,3,2,7.9,8,7.9V54.7L185.3,54.7z M272,59.4c3.2,0,4.8,2.1,4.8,4.7h-10.3C266.7,61.6,268.9,59.4,272,59.4z M212.3,60.6
		c3.8,0,5.8,3.1,5.8,6.2c0,3.2-2,6.3-5.8,6.3c-3.6,0-5.9-3.1-5.9-6.3C206.4,63.7,208.7,60.6,212.3,60.6z M242.3,60.6
		c3.8,0,5.8,3.1,5.8,6.2c0,3.2-2,6.3-5.8,6.3c-3.6,0-5.9-3.1-5.9-6.3C236.5,63.7,238.7,60.6,242.3,60.6z M154.8,68.4h1v0.8
		c0,3-1.8,5-5,5c-1.6,0-3.5-0.6-3.5-2.5C147.3,68.9,151.3,68.4,154.8,68.4z M301,68.4h1v0.8c0,3-1.8,5-5,5c-1.6,0-3.5-0.6-3.5-2.5
		C293.5,68.9,297.5,68.4,301,68.4L301,68.4z"/>
	<path id="path1143" class="st2" d="M105.1,37.6c5.6-5.6,12.5-10.2,23.6-9.9c14.2,0.4,25.4,5.2,37.8,8.1c-2.4,0.5-4.2,1.1-8.4,1.2
		c-10.5,0.1-22-6.5-32.9-6.2C116.9,30.6,111.1,34.3,105.1,37.6L105.1,37.6z"/>
	<path id="path1143-9" class="st0" d="M102.3,31c7-6.7,15.6-12.1,29.5-11.8c17.7,0.5,31.7,6.2,47.2,9.7c-3,0.6-5.3,1.4-10.4,1.4
		c-13,0.1-27.5-7.7-41.1-7.5C117.1,22.7,109.9,27.1,102.3,31z"/>
	<path id="path1143-9-8" class="st3" d="M98.9,25.4c8.9-8.8,19.8-15.9,37.3-15.4c22.3,0.6,40.1,8.1,59.7,12.7
		c-3.8,0.8-6.7,1.8-13.2,1.8c-16.5,0.1-34.7-10.1-52-9.8C117.6,14.5,108.4,20.2,98.9,25.4z"/>
	<path id="path1143-9-8-4" class="st4" d="M95.7,19.4c11.2-11.1,24.9-20,47-19.4c28.2,0.8,50.6,10.2,75.3,16
		c-4.8,1-8.4,2.2-16.6,2.3c-20.8,0.2-43.8-12.8-65.6-12.3C119.3,5.8,107.8,13,95.7,19.4z"/>
</g>
</svg>
