<?xml version="1.0" encoding="utf-8"?>
<!-- Generator: Adobe Illustrator 25.4.1, SVG Export Plug-In . SVG Version: 6.00 Build 0)  -->
<svg version="1.1" xmlns="http://www.w3.org/2000/svg" xmlns:xlink="http://www.w3.org/1999/xlink" x="0px" y="0px"
	 viewBox="0 0 508.7 80" style="enable-background:new 0 0 508.7 80;" xml:space="preserve">
<style type="text/css">
	.st0{fill:#0C0C11;}
	.st1{fill:#232C62;}
</style>
<g id="Layer_1">
	<path class="st0" d="M-238.6-885.5c-0.7-0.1-1.8,0-2.5,0c0.5-0.4,1.2-0.7,1.6-0.5c0.1,0,0.1,0,0.2,0.1
		C-239.1-885.8-238.8-885.6-238.6-885.5z"/>
	<g id="text835">
	</g>
</g>
<g id="Layer_2">
	<g>
		<path class="st1" d="M29.6,8.9C29.6,8.9,8,34.5,8,49.3s4.7,20.9,12.7,20.3s13.5-9.5,13.5-9.5s-16.1-7.4-13.1-21.8
			s9.9-20.1,19.7-25.1s21.1-5.8,26.8-6s18,1.6,18-6c-1,0-68.6-4-85.7,5.5c0,0,0.3,8.2,3.8,12.1c0.8-0.3,3.7-1.9,7.7-5.5
			S21.3,7.4,29.6,8.9z"/>
		<path class="st1" d="M49.7,37.1c0,0-0.1-4.8,5.8-5.3s14.1,0.5,16.4-4.7s2.6-7.4,2.6-7.4s-19.1-1.8-30,12.4s-1.6,22.4,3.9,22.4
			s11.3-2.9,16.9-5.8c5.6-2.9,5.3-3,6.4,0c1.2,3,2.4,6.8,8.5,5.3c6.1-1.5,12.8-6.4,12.8-6.4s-9.7-4.3-8.6-9.9
			c1.1-5.6,2.3-7.5,4.2-11.2s2.7-5.6,1.3-6c-1.4-0.4-6.4-0.8-8.9,1.3c0,0-3.9,2.9-7.3,10.3S59.4,42.5,54.1,42.5S49.7,37.1,49.7,37.1
			z"/>
		<path class="st1" d="M137,19.1c0,0-0.8,9.5-7.6,11.4c-6.9,1.9-14.2-1.9-18,6c0,0,0.2,5.6,8.5,5.6s14.7-6.3,16.3-8.9
			c1.6-2.6,3.8-9.3,5.9-11.5c2.1-2.1,8.4-1.7,11.3-1.1c0,0,0.4,3.8-4.4,10.6c-4.8,6.9-17.4,25.6-16.6,33.3s4.5,5.7,2.7,8.5
			s-6.6,6.4-15.5,7c0,0-6-6.8-2.7-14.9c3.3-8.2,10.1-19,10.1-19s-8.9,8.5-14.1,8.5s-13.2-2.4-12.4-9.3c0.9-7,9-14.8,11.1-17.3
			C113.7,25.4,118.8,19.1,137,19.1z"/>
		<path class="st1" d="M173.7,20.8c0,0,0.2,3-4.5,9.8s-4.4,12.2-0.8,12.2s9.5-2.7,13.6-8.6s6.2-12.4,12.2-12.8s5.8,0.1,5.8,0.1
			s-6.4,13.1-6.4,16.8s0.1,4.3,2.9,6c2.8,1.7,3.5,3.8,3.5,3.8s-9.2,6.9-17.2,6.4c0,0-3.2-6-3.9-8.3c0,0-10.2,8.3-19.8,8.3
			s-8.9-9.9-6.8-13.9s9.3-16.8,9.3-16.8S164.5,19.4,173.7,20.8z"/>
		<path class="st1" d="M243.2,19.1c0,0-3.5,11.3-8.3,11.8c-4.7,0.5-13.2-3-17.4,4.2s8.3,8.4,12.8,5.9c4.6-2.5,12.8-8.1,17.7-19.7
			h11.2c0,0-2.4,7.1-4.9,9.9s-3,6.2-1.9,8.2c1.1,1.9,7.5,8.3,7.5,8.3s-13.3,9-17.4,5.9s-5.3-7.7-5.3-7.7s-11.5,7.6-20.6,7.6
			c-9.1,0-10.9-8.4-9-13c1.8-4.6,5.3-11.5,13.6-16.9C229.7,18.2,243.2,19.1,243.2,19.1z"/>
		<path class="st1" d="M296.9,20.1c0,0-11.6-2.3-18.4,9.5s-6.1,13.4-9.1,17.1s-3.4,7.2-3.4,7.2s7.8,0.6,13.6-3.7
			s12.9-12.4,22.1-13.3c0,0-0.9,4.7-2.1,8.8s0.4,7.1,0.4,7.1s9.5,1.7,13.5-0.6c4.1-2.4,0.4-5.4,0.5-8.5s2-8.7,3.4-11.9s2-8.3,0-11.1
			c0,0-6.3-0.7-12.6,4.5s-11.6,10.1-16,10C289,35,297.4,22.6,296.9,20.1z"/>
		<path class="st1" d="M432.6,40.8l1.6-7.1c0,0-4.6-0.2-6.7-0.2c-2,0-0.8-2.4-0.8-2.4C431.3,23,441,0.5,441,0.5
			c-25-4-41.8,16.2-47.5,23.8c-5.7,7.6-9.6,9.1-9.6,9.1s-6.4-0.2-16.6-0.4c-10.2-0.2-11.1,7.1-11.1,7.1l20,0.8c0,0-1.4,3.8-11,10.4
			c-9.6,6.7-21.1,9.3-21.1,9.3c1.7,6.6,9.6,7.1,9.6,7.1c15.6,0,32.8-26.9,32.8-26.9c9.3-0.1,14.7,8.2,18.2,15.6
			c3.4,7.4,9.2,12.5,9.2,12.5c9.9-0.8,19.2-9.8,19.2-9.8s-3.8-2.3-7.2-4.9c-3.4-2.7-4.5-6.6-4.1-10.9
			C422.3,39.1,432.6,40.8,432.6,40.8z M409.6,49.3c0,0-6-4.1-7.9-8.7h7.9V49.3z M415.3,33H395C407.2,17.3,426.7,14,426.7,14
			L415.3,33z"/>
		<path class="st1" d="M460.8,21.1c0,0-9.7,15.3-7.7,21.6s3.7,9,3.7,9s-9.9,4.5-15.1,3c0,0-4-8.3-2.9-12.4c1.1-4.1,9-17.8,9-17.8
			S449.8,20.2,460.8,21.1z"/>
		<path class="st1" d="M455.2,14.9c0,0,12,3,13.4-7.2C468.6,7.7,456.2,3.2,455.2,14.9z"/>
		<path class="st1" d="M488.9,18.1c0,0-9.6,1.5-12.9,4.4c0,0,0.5,8.8-1.4,12.5S463,49.1,465,53.8c0,0,7.6,3.2,12.9-2
			s9.8-23,14.3-24.2c4.5-1.2,4.4,4.2,7.4,4.2c3,0,9.1-2.7,9.1-2.7s-1.4-9.2-4.8-10c0,0-4.1,0.4-8.8,2.7S490,24.1,488.9,18.1z"/>
	</g>
</g>
</svg>
