<?xml version="1.0" encoding="utf-8"?>
<!-- Generator: Adobe Illustrator 25.4.1, SVG Export Plug-In . SVG Version: 6.00 Build 0)  -->
<svg version="1.1" id="Layer_1" xmlns="http://www.w3.org/2000/svg" xmlns:xlink="http://www.w3.org/1999/xlink" x="0px" y="0px"
	 viewBox="0 0 69.44 80" style="enable-background:new 0 0 69.44 80;" xml:space="preserve">
<style type="text/css">
	.st0{fill:#D2A145;}
</style>
<path class="st0" d="M39.02,66.1c4.78-0.45,9.58-0.24,14.37-0.14c-10.52,1.09-21.53,1.58-31.13,6.53c-3.2,1.61-5.8,4.23-7.29,7.5
	c-3.83-1.08-7.59-2.32-11.38-3.52C13.89,69.27,26.7,66.96,39.02,66.1z M54.73,58.43c2.56-4.3,5.81-8.2,8.85-12.18
	c0.46,6.58-2.39,12.86-6.12,18.1C56.44,62.43,55.38,60.51,54.73,58.43z M55.22,50.27c1.79-2.34,3.3-4.91,5.32-7.07
	c-1.14,4.88-3.86,9.28-7.17,12.99C51.87,53.9,53.96,52.02,55.22,50.27z M50.12,48.93c2.31-3.09,4.37-6.38,6.88-9.3
	c-0.31,4.55-2.74,8.52-5.32,12.13C51.16,50.82,50.63,49.87,50.12,48.93z M60.59,39.9c0.18-1.03,1.14-1.68,1.7-2.51
	c0.24,2.15,0.52,4.28,0.78,6.43C62.14,42.6,60.86,41.47,60.59,39.9z M48.45,44.22c1.75-2.61,3.52-5.24,5.69-7.53
	c-0.47,3.85-2.48,7.3-5.19,10.01C48.71,45.88,48.55,45.06,48.45,44.22z M45.99,39.86c1.55-2.18,3.03-4.43,4.87-6.4
	c0.04,3.29-1.48,6.27-3.49,8.79C46.9,41.46,46.44,40.66,45.99,39.86z M56.01,34.26c0.43-0.4,1.28-1.2,1.71-1.61
	c0.08,2.06,0.29,4.12,0.47,6.17C57.21,37.5,55.41,36.12,56.01,34.26z M43.87,34.95c1.25-1.65,2.47-3.32,3.92-4.81
	c0.16,2.84-1.1,5.39-2.8,7.57C44.61,36.79,44.23,35.87,43.87,34.95z M58.58,31.67c-0.74-1.34,0.89-2.16,1.58-3.07
	c0.27,2.09,0.52,4.19,0.8,6.28C60.12,33.84,59.12,32.9,58.58,31.67z M51.33,29.93c0.47-0.8,1.08-1.48,1.67-2.19
	c0.31,2.06,0.58,4.12,0.82,6.18C52.77,32.75,51.64,31.53,51.33,29.93z M41.45,29.85c0.72-1.25,1.45-2.48,2.24-3.68
	c0.92,2.31,0.43,4.73-0.78,6.83C42.4,31.95,41.92,30.91,41.45,29.85z M54.57,27.63c-0.44-1.25,1.03-1.98,1.67-2.81
	c0.11,2.05,0.33,4.1,0.5,6.15C55.95,29.91,54.97,28.92,54.57,27.63z M46.36,26.07c-0.4-1.3,1-2.08,1.62-3.03
	c0.22,2.12,0.47,4.24,0.72,6.36C47.86,28.34,46.9,27.33,46.36,26.07z M49.78,22.78c0.35-0.87,1.16-1.42,1.75-2.11
	c0.2,2.07,0.42,4.14,0.65,6.21C51.23,25.65,49.65,24.51,49.78,22.78z M37.89,21.29c0.53-0.73,1.1-1.43,1.71-2.08
	c0.24,2.05,0.49,4.1,0.66,6.15C39.3,24.12,38.18,22.88,37.89,21.29z M41.54,19.88c0.57-0.76,1.19-1.47,1.88-2.13
	c0.12,2.05,0.32,4.11,0.47,6.17C42.89,22.73,41.67,21.53,41.54,19.88z M44.89,18.47c0.22-0.96,1.1-1.56,1.67-2.32
	c0.29,2.07,0.55,4.15,0.8,6.22C46.37,21.2,45.09,20.08,44.89,18.47z M21.15,24.83c0.77-3.45,2.75-6.43,4.1-9.66
	c1.93,0.01,3.87,0.01,5.81,0.04c1.35,3.24,3.14,6.29,4.27,9.63c-0.52,0.95-1.02,1.9-1.51,2.86c1.57,0.49,3.15,0.94,4.7,1.5
	c-0.7,1.39-1.44,2.75-2.16,4.12c1.45,0.59,2.88,1.21,4.3,1.85c-0.52,1.48-0.91,3.12-2.11,4.21c-3.21,0.55-6.53,0.15-9.76,0.68
	c5.21,0.76,10.45,1.41,15.64,2.28c0.87,2.07,1.75,4.13,2.62,6.2c-7,0.05-14.03-0.01-20.99,0.77c7.59,0.26,15.17,1.12,22.56,2.93
	c1.67,4,3.41,7.98,5.02,12c-13.47-0.27-27.23,0.41-40.13,4.64c-4.24,1.34-8.06,3.63-11.77,6.04c-2.25-0.5-1.81-3.25-1.45-4.95
	c0.97-3.4,2.47-6.62,3.63-9.97c0.7,1.49,1.25,3.22,2.99,3.75c0.27-2.8-3.06-4.53-2.34-7.32c1.35-3.52,3.23-6.8,4.64-10.28
	c0.65,1.45,1.33,2.9,2.38,4.11c0.36-1.14,1.44-2.38,0.51-3.52c-0.99-1.55-1.41-3.74,0.01-5.19c1.89-1.35,4.32-1.54,6.47-2.3
	c-1-1.36-2.15-2.59-3.24-3.87c1.49-0.76,3.02-1.44,4.56-2.09c-0.74-1.38-1.47-2.77-2.11-4.19c1.49-0.47,2.99-0.88,4.49-1.32
	C21.89,26.8,21.43,25.85,21.15,24.83z M41.6,13.37c0-1.16,1.22-1.79,1.83-2.63c0.14,2.08,0.32,4.15,0.44,6.24
	C43,15.87,41.91,14.81,41.6,13.37z M41.59,0c4.09,9.46,10.6,17.95,19.05,23.91c5.79,3.95,9.43,11.03,8.7,18.07
	c-0.24,3.31-1.51,6.4-2.79,9.42c1.08-4.3,2.43-8.8,1.3-13.24c-0.85-4.74-3.67-8.93-7.43-11.88c-7.29-5.82-13.65-12.87-18.14-21.08
	c-1.78,4.9-3.51,9.81-5.39,14.67c-0.76-1.63-1.48-3.27-2.24-4.9C38.23,10.69,40.74,5.54,41.59,0"/>
</svg>
