<?xml version="1.0" encoding="utf-8"?>
<!-- Generator: Adobe Illustrator 25.4.1, SVG Export Plug-In . SVG Version: 6.00 Build 0)  -->
<svg version="1.1" id="Layer_1" xmlns="http://www.w3.org/2000/svg" xmlns:xlink="http://www.w3.org/1999/xlink" x="0px" y="0px"
	 viewBox="0 0 410.5 80" style="enable-background:new 0 0 410.5 80;" xml:space="preserve">
<style type="text/css">
	.st0{fill:#D2A145;}
	.st1{fill:#4B0C62;}
</style>
<g>
	<path class="st0" d="M39.02,66.1c4.78-0.45,9.58-0.24,14.37-0.14c-10.52,1.09-21.53,1.58-31.13,6.53c-3.2,1.61-5.8,4.23-7.29,7.5
		c-3.83-1.08-7.59-2.32-11.38-3.52C13.89,69.27,26.7,66.96,39.02,66.1z M54.73,58.43c2.56-4.3,5.81-8.2,8.85-12.18
		c0.46,6.58-2.39,12.86-6.12,18.1C56.44,62.43,55.38,60.51,54.73,58.43z M55.22,50.27c1.79-2.34,3.3-4.91,5.32-7.07
		c-1.14,4.88-3.86,9.28-7.17,12.99C51.87,53.9,53.96,52.02,55.22,50.27z M50.12,48.93c2.31-3.09,4.37-6.38,6.88-9.3
		c-0.31,4.55-2.74,8.52-5.32,12.13C51.16,50.82,50.63,49.87,50.12,48.93z M60.59,39.9c0.18-1.03,1.14-1.68,1.7-2.51
		c0.24,2.15,0.52,4.28,0.78,6.43C62.14,42.6,60.86,41.47,60.59,39.9z M48.45,44.22c1.75-2.61,3.52-5.24,5.69-7.53
		c-0.47,3.85-2.48,7.3-5.19,10.01C48.71,45.88,48.55,45.06,48.45,44.22z M45.99,39.86c1.55-2.18,3.03-4.43,4.87-6.4
		c0.04,3.29-1.48,6.27-3.49,8.79C46.9,41.46,46.44,40.66,45.99,39.86z M56.01,34.26c0.43-0.4,1.28-1.2,1.71-1.61
		c0.08,2.06,0.29,4.12,0.47,6.17C57.21,37.5,55.41,36.12,56.01,34.26z M43.87,34.95c1.25-1.65,2.47-3.32,3.92-4.81
		c0.16,2.84-1.1,5.39-2.8,7.57C44.61,36.79,44.23,35.87,43.87,34.95z M58.58,31.67c-0.74-1.34,0.89-2.16,1.58-3.07
		c0.27,2.09,0.52,4.19,0.8,6.28C60.12,33.84,59.12,32.9,58.58,31.67z M51.33,29.93c0.47-0.8,1.08-1.48,1.67-2.19
		c0.31,2.06,0.58,4.12,0.82,6.18C52.77,32.75,51.64,31.53,51.33,29.93z M41.45,29.85c0.72-1.25,1.45-2.48,2.24-3.68
		c0.92,2.31,0.43,4.73-0.78,6.83C42.4,31.95,41.92,30.91,41.45,29.85z M54.57,27.63c-0.44-1.25,1.03-1.98,1.67-2.81
		c0.11,2.05,0.33,4.1,0.5,6.15C55.95,29.91,54.97,28.92,54.57,27.63z M46.36,26.07c-0.4-1.3,1-2.08,1.62-3.03
		c0.22,2.12,0.47,4.24,0.72,6.36C47.86,28.34,46.9,27.33,46.36,26.07z M49.78,22.78c0.35-0.87,1.16-1.42,1.75-2.11
		c0.2,2.07,0.42,4.14,0.65,6.21C51.23,25.65,49.65,24.51,49.78,22.78z M37.89,21.29c0.53-0.73,1.1-1.43,1.71-2.08
		c0.24,2.05,0.49,4.1,0.66,6.15C39.3,24.12,38.18,22.88,37.89,21.29z M41.54,19.88c0.57-0.76,1.19-1.47,1.88-2.13
		c0.12,2.05,0.32,4.11,0.47,6.17C42.89,22.73,41.67,21.53,41.54,19.88z M44.89,18.47c0.22-0.96,1.1-1.56,1.67-2.32
		c0.29,2.07,0.55,4.15,0.8,6.22C46.37,21.2,45.09,20.08,44.89,18.47z M21.15,24.83c0.77-3.45,2.75-6.43,4.1-9.66
		c1.93,0.01,3.87,0.01,5.81,0.04c1.35,3.24,3.14,6.29,4.27,9.63c-0.52,0.95-1.02,1.9-1.51,2.86c1.57,0.49,3.15,0.94,4.7,1.5
		c-0.7,1.39-1.44,2.75-2.16,4.12c1.45,0.59,2.88,1.21,4.3,1.85c-0.52,1.48-0.91,3.12-2.11,4.21c-3.21,0.55-6.53,0.15-9.76,0.68
		c5.21,0.76,10.45,1.41,15.64,2.28c0.87,2.07,1.75,4.13,2.62,6.2c-7,0.05-14.03-0.01-20.99,0.77c7.59,0.26,15.17,1.12,22.56,2.93
		c1.67,4,3.41,7.98,5.02,12c-13.47-0.27-27.23,0.41-40.13,4.64c-4.24,1.34-8.06,3.63-11.77,6.04c-2.25-0.5-1.81-3.25-1.45-4.95
		c0.97-3.4,2.47-6.62,3.63-9.97c0.7,1.49,1.25,3.22,2.99,3.75c0.27-2.8-3.06-4.53-2.34-7.32c1.35-3.52,3.23-6.8,4.64-10.28
		c0.65,1.45,1.33,2.9,2.38,4.11c0.36-1.14,1.44-2.38,0.51-3.52c-0.99-1.55-1.41-3.74,0.01-5.19c1.89-1.35,4.32-1.54,6.47-2.3
		c-1-1.36-2.15-2.59-3.24-3.87c1.49-0.76,3.02-1.44,4.56-2.09c-0.74-1.38-1.47-2.77-2.11-4.19c1.49-0.47,2.99-0.88,4.49-1.32
		C21.89,26.8,21.43,25.85,21.15,24.83z M41.6,13.37c0-1.16,1.22-1.79,1.83-2.63c0.14,2.08,0.32,4.15,0.44,6.24
		C43,15.87,41.91,14.81,41.6,13.37z M41.59,0c4.09,9.46,10.6,17.95,19.05,23.91c5.79,3.95,9.43,11.03,8.7,18.07
		c-0.24,3.31-1.51,6.4-2.79,9.42c1.08-4.3,2.43-8.8,1.3-13.24c-0.85-4.74-3.67-8.93-7.43-11.88c-7.29-5.82-13.65-12.87-18.14-21.08
		c-1.78,4.9-3.51,9.81-5.39,14.67c-0.76-1.63-1.48-3.27-2.24-4.9C38.23,10.69,40.74,5.54,41.59,0"/>
	<path class="st1" d="M377.47,20.13c4.91-1.92,10.22-2.05,15.4-2.67c5.29-0.7,8.83,5.5,7.45,10.3c-0.87,4.01-4.48,6.25-7.43,8.51
		c5.29,3.56,11.3,5.73,17.62,6.29c-3.12,0.99-6.32,2.49-9.66,1.85c-5.24-0.98-9.9-3.82-14.61-6.23c2.75-1.96,6.13-2.98,8.5-5.49
		c2.54-3.42,1.02-8.49-1.93-11.1c-2.26-2.01-5.44-1.72-8.19-2.18c-0.7,9.95-0.39,19.92-0.64,29.88c-1.57,0.83-3.13,1.66-4.69,2.48
		c0.01-8.7,0.35-17.41,0.25-26.11C379.54,23.6,378.24,21.93,377.47,20.13z M365.51,21.84c2.46-2.13,5.03-4.13,7.87-5.68
		c0.34,8.72,0.17,17.48-0.17,26.22c-1.47,1.07-2.95,2.13-4.42,3.19c0.02-7.07,0.09-14.13,0.27-21.21
		C367.89,23.52,366.7,22.69,365.51,21.84z M338.04,39.37c4.16-1.18,8.33-2.33,12.52-3.38c-1.9-2.6-3.81-5.2-5.71-7.79
		C342.76,32.03,340.41,35.72,338.04,39.37z M339.69,28.2c0.71-4.06-0.77-9.05,3.35-11.57c6.28,9.76,11.95,20.98,22.69,26.26
		c-5.23,3.18-10.22-0.64-13.45-4.8c-7.35,0.67-14.61,2.57-20.98,6.49C334.68,39.51,338.74,34.47,339.69,28.2"/>
	<path class="st1" d="M99.97,33.69l3.66,0.95c-0.77,3.07-2.15,5.42-4.14,7.05c-2,1.61-4.42,2.42-7.3,2.42
		c-2.98,0-5.39-0.62-7.26-1.86c-1.86-1.25-3.28-3.05-4.26-5.4c-0.97-2.36-1.46-4.9-1.46-7.6c0-2.95,0.55-5.52,1.65-7.72
		c1.1-2.2,2.66-3.86,4.69-5.01c2.03-1.14,4.26-1.71,6.69-1.71c2.77,0,5.09,0.72,6.97,2.16c1.89,1.45,3.2,3.47,3.93,6.09l-3.59,0.87
		c-0.64-2.06-1.57-3.56-2.79-4.5c-1.22-0.94-2.75-1.41-4.6-1.41c-2.12,0-3.89,0.52-5.32,1.56c-1.43,1.05-2.43,2.45-3,4.21
		c-0.58,1.75-0.87,3.57-0.87,5.44c0,2.41,0.34,4.51,1.02,6.31c0.69,1.79,1.75,3.14,3.2,4.03c1.45,0.89,3.01,1.33,4.69,1.33
		c2.04,0,3.77-0.61,5.2-1.82C98.51,37.87,99.47,36.07,99.97,33.69z M116.56,41.42c-1.02,0.89-2,1.52-2.94,1.89
		c-0.95,0.36-1.96,0.55-3.04,0.55c-1.78,0-3.15-0.45-4.11-1.34c-0.95-0.9-1.43-2.04-1.43-3.43c0-0.82,0.18-1.57,0.54-2.24
		c0.36-0.67,0.83-1.21,1.42-1.62c0.59-0.41,1.25-0.72,1.98-0.93c0.54-0.14,1.35-0.29,2.44-0.42c2.22-0.27,3.86-0.6,4.91-0.98
		c0.01-0.39,0.02-0.63,0.02-0.73c0-1.15-0.26-1.97-0.78-2.43c-0.7-0.64-1.75-0.96-3.13-0.96c-1.29,0-2.25,0.23-2.87,0.7
		c-0.62,0.46-1.07,1.29-1.37,2.48l-2.69-0.38c0.24-1.18,0.65-2.14,1.2-2.86c0.56-0.73,1.37-1.29,2.43-1.68
		c1.06-0.39,2.29-0.59,3.68-0.59c1.39,0,2.51,0.17,3.37,0.51c0.87,0.34,1.51,0.75,1.92,1.26c0.41,0.51,0.69,1.15,0.86,1.93
		c0.09,0.48,0.14,1.35,0.14,2.61v3.77c0,2.63,0.06,4.29,0.18,4.98c0.11,0.7,0.35,1.37,0.69,2.01h-2.87
		C116.83,42.89,116.64,42.21,116.56,41.42z M116.33,35.1c-1,0.42-2.5,0.78-4.49,1.07c-1.13,0.17-1.93,0.36-2.4,0.57
		c-0.47,0.21-0.83,0.51-1.08,0.92c-0.26,0.4-0.39,0.84-0.39,1.34c0,0.75,0.28,1.38,0.84,1.89c0.55,0.5,1.36,0.75,2.44,0.75
		c1.06,0,2-0.23,2.83-0.71c0.82-0.48,1.43-1.13,1.82-1.96c0.3-0.64,0.44-1.58,0.44-2.82V35.1z M123.38,43.56V26.88h2.46v2.34
		c0.51-0.81,1.19-1.47,2.03-1.97c0.85-0.5,1.81-0.75,2.89-0.75c1.2,0,2.19,0.25,2.95,0.77c0.77,0.52,1.32,1.23,1.63,2.15
		c1.29-1.95,2.96-2.92,5.01-2.92c1.61,0,2.85,0.46,3.71,1.38c0.87,0.92,1.3,2.33,1.3,4.23v11.45h-2.74V33.05
		c0-1.13-0.09-1.95-0.26-2.45c-0.18-0.49-0.51-0.89-0.97-1.2c-0.47-0.3-1.02-0.45-1.65-0.45c-1.14,0-2.09,0.39-2.84,1.17
		c-0.75,0.78-1.13,2.03-1.13,3.74v9.7h-2.75V32.72c0-1.26-0.22-2.2-0.67-2.83c-0.45-0.63-1.18-0.94-2.2-0.94
		c-0.77,0-1.49,0.21-2.14,0.63c-0.66,0.42-1.14,1.03-1.43,1.83c-0.3,0.81-0.44,1.97-0.44,3.49v8.65H123.38z M151.9,43.56h-2.55
		V20.53h2.75v8.22c1.16-1.5,2.64-2.25,4.44-2.25c1,0,1.95,0.21,2.84,0.62c0.89,0.41,1.62,1,2.2,1.74c0.57,0.75,1.03,1.65,1.35,2.71
		c0.33,1.06,0.49,2.19,0.49,3.39c0,2.86-0.69,5.07-2.06,6.63c-1.37,1.56-3.03,2.34-4.95,2.34c-1.92,0-3.42-0.82-4.51-2.47V43.56z
		 M151.87,35.09c0,2,0.27,3.44,0.79,4.33c0.87,1.46,2.04,2.19,3.52,2.19c1.2,0,2.24-0.54,3.12-1.61c0.88-1.07,1.32-2.67,1.32-4.8
		c0-2.18-0.43-3.79-1.27-4.82s-1.85-1.55-3.04-1.55c-1.2,0-2.24,0.54-3.12,1.61C152.31,31.5,151.87,33.06,151.87,35.09z
		 M166.36,35.37c0-3.09,0.84-5.38,2.51-6.86c1.39-1.23,3.09-1.86,5.1-1.86c2.23,0,4.06,0.75,5.47,2.26c1.42,1.5,2.12,3.57,2.12,6.22
		c0,2.15-0.31,3.84-0.94,5.07c-0.63,1.23-1.54,2.19-2.73,2.87c-1.2,0.68-2.5,1.02-3.93,1.02c-2.27,0-4.1-0.75-5.51-2.25
		C167.06,40.35,166.36,38.19,166.36,35.37z M169.19,35.37c0,2.14,0.45,3.73,1.36,4.8c0.91,1.07,2.05,1.6,3.42,1.6s2.5-0.54,3.41-1.6
		c0.9-1.07,1.36-2.7,1.36-4.89c0-2.06-0.46-3.63-1.37-4.69c-0.91-1.06-2.04-1.59-3.4-1.59c-1.37,0-2.51,0.53-3.42,1.59
		C169.64,31.64,169.19,33.24,169.19,35.37z M196.24,43.56v-2.11c-1.03,1.66-2.54,2.48-4.54,2.48c-1.3,0-2.49-0.36-3.57-1.1
		c-1.08-0.73-1.93-1.75-2.52-3.07c-0.6-1.31-0.89-2.82-0.89-4.53c0-1.66,0.27-3.17,0.81-4.53c0.54-1.36,1.35-2.4,2.43-3.12
		c1.08-0.72,2.29-1.09,3.63-1.09c0.98,0,1.85,0.21,2.61,0.64c0.77,0.42,1.39,0.98,1.87,1.66v-8.26h2.73v23.03H196.24z M187.55,35.23
		c0,2.14,0.44,3.74,1.31,4.79c0.87,1.06,1.91,1.59,3.1,1.59c1.2,0,2.22-0.51,3.06-1.52s1.26-2.55,1.26-4.63
		c0-2.29-0.43-3.96-1.28-5.02c-0.86-1.07-1.91-1.61-3.17-1.61c-1.22,0-2.24,0.52-3.06,1.54C187.96,31.4,187.55,33.02,187.55,35.23z
		 M202.6,23.78v-3.25h2.76v3.25H202.6z M202.6,43.56V26.88h2.76v16.68H202.6z M219.44,41.42c-1.02,0.89-2.01,1.52-2.95,1.89
		c-0.94,0.36-1.95,0.55-3.04,0.55c-1.78,0-3.15-0.45-4.11-1.34c-0.95-0.89-1.43-2.04-1.43-3.43c0-0.82,0.17-1.57,0.54-2.24
		c0.36-0.68,0.84-1.22,1.42-1.63c0.59-0.41,1.25-0.72,1.98-0.93c0.54-0.14,1.35-0.29,2.44-0.42c2.22-0.27,3.86-0.59,4.91-0.98
		c0.01-0.39,0.02-0.63,0.02-0.73c0-1.15-0.26-1.97-0.78-2.43c-0.7-0.64-1.75-0.96-3.13-0.96c-1.3,0-2.25,0.23-2.87,0.7
		c-0.62,0.46-1.07,1.29-1.37,2.48l-2.68-0.38c0.24-1.18,0.65-2.14,1.2-2.87c0.56-0.73,1.37-1.29,2.43-1.68
		c1.06-0.39,2.28-0.59,3.68-0.59c1.39,0,2.51,0.17,3.37,0.5c0.87,0.34,1.5,0.75,1.92,1.26c0.41,0.51,0.69,1.15,0.86,1.93
		c0.09,0.48,0.14,1.35,0.14,2.61v3.77c0,2.63,0.06,4.29,0.17,4.98c0.11,0.7,0.35,1.37,0.7,2.01h-2.87
		C219.7,42.89,219.52,42.21,219.44,41.42z M219.21,35.1c-1,0.42-2.5,0.78-4.49,1.07c-1.13,0.16-1.93,0.35-2.4,0.56
		c-0.47,0.21-0.83,0.51-1.09,0.92c-0.25,0.4-0.38,0.84-0.38,1.34c0,0.75,0.28,1.38,0.84,1.89c0.55,0.5,1.36,0.75,2.44,0.75
		c1.06,0,2-0.23,2.82-0.71c0.82-0.48,1.44-1.13,1.82-1.95c0.3-0.64,0.44-1.58,0.44-2.83V35.1"/>
	<path class="st1" d="M228.46,43.49l9.73-27.35h3.69l10.33,27.35h-3.82l-2.93-8.29h-10.68l-2.75,8.29H228.46z M235.76,32.26h8.64
		l-2.65-7.58c-0.8-2.3-1.4-4.21-1.82-5.71c-0.35,1.78-0.81,3.53-1.4,5.26L235.76,32.26"/>
	<path class="st1" d="M253.49,43.74v-16.7h2.47v2.37c1.19-1.82,2.91-2.73,5.16-2.73c0.98,0,1.88,0.18,2.7,0.54
		c0.82,0.36,1.44,0.84,1.84,1.42c0.41,0.58,0.69,1.28,0.86,2.09c0.1,0.52,0.15,1.44,0.15,2.75v10.25h-2.75V33.6
		c0-1.15-0.11-2.02-0.32-2.59c-0.21-0.57-0.6-1.02-1.14-1.36c-0.54-0.34-1.19-0.51-1.92-0.51c-1.17,0-2.17,0.38-3.03,1.15
		c-0.85,0.76-1.27,2.22-1.27,4.35v9.11H253.49"/>
	<path class="st1" d="M271.36,45.37l2.66,0.39c0.11,0.85,0.43,1.47,0.93,1.86c0.68,0.52,1.62,0.78,2.8,0.78
		c1.27,0,2.26-0.26,2.95-0.78c0.69-0.52,1.16-1.25,1.41-2.19c0.14-0.57,0.21-1.78,0.2-3.62c-1.2,1.46-2.7,2.19-4.5,2.19
		c-2.23,0-3.97-0.82-5.19-2.48c-1.22-1.65-1.84-3.64-1.84-5.95c0-1.59,0.29-3.06,0.84-4.41c0.56-1.35,1.37-2.38,2.44-3.12
		s2.32-1.1,3.75-1.1c1.92,0,3.5,0.8,4.74,2.41V27.3h2.53v14.42c0,2.6-0.25,4.44-0.77,5.52c-0.51,1.08-1.33,1.94-2.44,2.57
		c-1.12,0.63-2.49,0.95-4.12,0.95c-1.93,0-3.49-0.45-4.68-1.34C271.89,48.52,271.31,47.17,271.36,45.37z M273.61,35.36
		c0,2.18,0.43,3.77,1.27,4.78c0.85,1,1.91,1.5,3.18,1.5c1.27,0,2.33-0.5,3.19-1.5c0.86-1,1.28-2.56,1.28-4.7
		c0-2.04-0.44-3.57-1.32-4.61c-0.88-1.04-1.95-1.55-3.19-1.55c-1.22,0-2.26,0.51-3.12,1.53C274.04,31.84,273.61,33.35,273.61,35.36"
		/>
	<path class="st1" d="M289.04,43.74V20.71h2.76v13.12l6.51-6.78h3.56l-6.19,6.2l6.82,10.49h-3.39l-5.39-8.53l-1.91,1.91v6.62H289.04
		"/>
	<path class="st1" d="M303.4,35.4c0-3.08,0.84-5.37,2.51-6.85c1.39-1.23,3.1-1.85,5.1-1.85c2.23,0,4.06,0.75,5.47,2.25
		c1.41,1.5,2.12,3.57,2.12,6.22c0,2.14-0.31,3.83-0.94,5.06c-0.62,1.23-1.54,2.18-2.74,2.86c-1.19,0.68-2.5,1.02-3.92,1.02
		c-2.27,0-4.11-0.75-5.51-2.24C304.1,40.36,303.4,38.2,303.4,35.4z M306.21,35.4c0,2.14,0.46,3.73,1.36,4.79
		c0.91,1.06,2.05,1.59,3.44,1.59c1.37,0,2.5-0.53,3.42-1.6c0.91-1.07,1.36-2.69,1.36-4.88c0-2.06-0.46-3.62-1.37-4.68
		c-0.91-1.06-2.05-1.59-3.41-1.59c-1.38,0-2.52,0.52-3.44,1.58C306.67,31.68,306.21,33.27,306.21,35.4"/>
	<path class="st1" d="M321.08,43.74v-16.7h2.47v2.56c0.63-1.19,1.21-1.97,1.75-2.34c0.54-0.38,1.12-0.57,1.77-0.57
		c0.93,0,1.87,0.3,2.83,0.9l-0.98,2.61c-0.67-0.39-1.33-0.58-2-0.58c-0.6,0-1.14,0.19-1.61,0.56c-0.48,0.37-0.81,0.88-1.02,1.54
		c-0.3,1-0.46,2.1-0.46,3.3v8.72H321.08"/>
</g>
</svg>
