<?xml version="1.0" encoding="utf-8"?>
<!-- Generator: Adobe Illustrator 26.5.0, SVG Export Plug-In . SVG Version: 6.00 Build 0)  -->
<svg version="1.1" id="Layer_1" xmlns="http://www.w3.org/2000/svg" xmlns:xlink="http://www.w3.org/1999/xlink" x="0px" y="0px"
	 viewBox="0 0 303.5 80" style="enable-background:new 0 0 303.5 80;" xml:space="preserve">
<style type="text/css">
	.st0{fill:#FFF200;}
	.st1{fill:#1D1D1B;}
	.st2{fill:#BCBDC0;}
	.st3{fill:#FBCDCD;}
	.st4{fill:#78C9F1;}
	.st5{fill:#FFFFFF;}
	.st6{fill:#F9CDCD;}
	.st7{fill:#20419A;}
</style>
<g id="Layer_3">
</g>
<g id="Layer_2_00000157996412323444973750000012107168311156921474_">
	<g>
		<path class="st0" d="M50.3,0c52.6,0.9,52.6,79.1,0,80C-2.2,79.1-2.2,0.9,50.3,0z"/>
		<path class="st1" d="M99.5,55.2c-2.3,1.9-3.7-3.3-6.7-3.2c-2.8-0.5-5.7,2.8-5.5,4.9c-1.3-1.1-2.7-0.2-3.5,1c2.4-1.1,2.7,1,2,2.7
			c-0.3,0-0.5-0.1-0.7,0.2c-0.6-1.3-5.1-3-5.5-2.8c-0.3-1-0.4-1.9,0.3-3c0.5-0.4-0.8-0.1-0.9,0v0c-0.4,0.3-0.6,0.4-1.1,0.8
			c0.3-0.6-0.3-1.3-0.9-1.4c0.2-0.1,0.3-0.3,0.4-0.5c0.9,0.7,2.5-0.4,3.4,0.4c0.3,0.3,0.3-0.1,0.2-0.5c-0.2-0.7-0.6-1-1-1.2
			c0,0,0-0.1,0-0.1c2.4-0.1,3.8-6,0.9-6.6c0-0.6,0.4-2.3-0.7-1.9c0,0,0-0.1,0-0.1c0.5-0.5,1-3.1-0.4-2.6c0-0.4,0-1.7-0.8-1.3
			c-0.2-0.4-0.9-0.8-0.9-1.3c0.1-0.7-0.1-1.4-0.5-1.7L77.4,37c0-0.5-0.2-0.8-0.6-1l0,0l0,0c-0.6-0.3-1-0.4-1.7-0.5
			c2.5,2.1-0.5,3.1-0.3,5.2c-0.6,0.2-0.8,0.9-1,1.5c-1.1,0.1-1.3,1.9-0.9,2.7c0-0.1-0.2-0.2-0.7-0.4c0.3,0.6,0.3,2,1,2.7l0,0
			c0.4,0.8,1.4,0.8,2,0.7c1,1.1-1,1.3-1.4,2c-1.1-0.6-2.4-1.6-3.2-2.9l-0.2,0c0-0.7-0.3-1.4-0.6-1.9c0.5-0.2,0.7-1.4,0.7-1.4
			c0.1-0.9-0.1-2.1-0.5-2.7c1.1-0.1,1.8-1.1,2.7-1.8c0.1,0,0.2-0.1,0.2-0.1c0.1,0,0.7-0.7,0.3-1c0.4-0.2,1.2-0.4,1-1
			c0.4-0.1,0.5-0.5,0.3-0.8c0.6-1.3-1.9-0.7-2.5-0.8c-0.6,0.2-1,0.6-1.7,0.8c0-0.3,0-0.5-0.3-0.6c0-0.1,0-0.2,0-0.2
			c0.6-1.7,0.1-4.9-1.5-6c-0.8-3.4-0.6-11.2-4.2-12.7c0.5,1.1,0.7,1.5,1,3c-0.7,0.1-0.9,2.5-0.9,3.5c-1.2,0.5-1,2.8-0.7,4.1
			c-0.8,0.4-0.5,2.2-0.2,3.2c-0.2,0.2-0.2,0.4-0.2,0.7c-0.1,0-0.2,0-0.2,0c-1.2-1.9-3.2-1.6-5.2-1.7c-0.1-0.9-0.8-1.5-0.6-2.5
			c-0.1-0.8,0.9-1.8,0.4-1.4c-0.7,0.4-1.2,1.2-1.7,1.8c-0.1,0-0.6,0.6-0.9,1c-0.5,0.2-0.6,0.6-1.2,1.1c-0.1-1.5-0.2-2.8-0.2-3.7
			c-0.5,0.7-1.6,1.6-1.7,2.6c-0.3,0-0.3,0.5-0.4,0.8c-0.3-0.2-0.6,0.2-1.1,0.2c1-0.9,0.9-3,0.3-4.3c0.3-0.3,0.3-0.6,0.1-1
			c0.2,0,0.5-0.4,0.6-0.5c0.2-0.1,0.4-0.2,0.4-0.5c0.1,0,0.5,0.2,0.6,0.2c-0.1-0.6,0.2-0.9-1-1.2c0-0.1,0-0.2-0.1-0.2
			c0.1,0,0.1-0.1,0.1-0.2c0.7,0.2,1.1-0.8,0.6-1.4c1.2,0.4,1-1.7,0.5-3c-0.7-1.1-2-2.2-2.7-2.3c0.2-1.5,0.9-3.9,0-5.1
			c0.3,1.6-4.3,3.4-2.6,5.1c0,0.1,0,0.2,0.1,0.3c-0.2,0.1-0.3,0.2-0.4,0.4c-1.8,0.8,0.8,3.3,1.8,1.4c0.9,0.3,1,1,0.8,1.8
			c-0.2,0.1-0.5,0.4-0.6,0.6c-0.2-0.1-0.9-0.1-1,0.5c-0.3,0.1-0.5,0.2-0.6,0.2c-0.8-1.4-1.6,0.1-1.4,1c-0.4,0-0.5,0.1-0.7,0.3
			c-0.7,0-1.1-0.2-1.6,0.1c-0.4-0.5-0.9,0.1-1.1,0.4c-0.2,0.1-0.4,0.3-0.6,0.5c-0.3-0.2-0.5-0.1-1,0c0.1-0.4-0.2-1.2-0.8-1.2
			c0.5-0.3,0.8-0.9,0.8-1.2c0.7-0.3,1.9-1.3,1.4-1.9l0,0c0.8-0.3,1.7-1.5,1.2-2.4c0.7-0.8,1.1-1.9,1-2.8c-1.2,0.4-3.3,2.1-5.2,3.2
			c0-0.4-0.5-1.9-1.4-2.8c0.7,0,1.1-0.8,0.9-1.6c-0.2-0.1-0.2-0.1-0.6-0.1c0.1-0.4,0.1-0.6-0.2-1c0.1-0.2,0-0.5-0.2-0.6
			c0.3-0.2,0.9-0.6,0.7-1.1c0.1,0,0.3-0.4,0.2-0.6c0.2-0.1,0.6-0.5,0.5-0.8c0.2-0.2,0.2-0.5,0-0.8c0.1-0.1,0.1-0.4,0.2-0.5
			c0.4-0.5,0.4-2.2,0.4-2.8c-0.6-0.4-2.3,1.9-2.2,2.7c-0.2,0-0.5,0.2-0.5,0.4c-0.1,0.1-0.1,0.2-0.1,0.3l0,0
			c-0.2,0.2-0.1,0.5-0.1,0.7c-0.3,0-0.6,0.2-0.5,0.6c-0.4,0.2-0.4,0.8-0.3,1.2c-0.1,0-0.2,0.1-0.3,0.1c0,0,0,0,0,0.1
			c-0.4-0.1-1,0-1.4,0.5c-0.4-0.5-1.5-0.4-1.2,0.4c-0.2,0.1-0.1,0.6-0.1,1c-1.1-0.2-2,0-3.4,0.7c-0.3-3.1-1.8-3.3-2,0.3l-0.1,0
			c-0.6,0.4-0.6,1.5-0.6,2c-0.2,0.2-0.5,0.3-0.4,1.5c-0.1,0.2-0.6,0.6-0.4,1.5c-1.8,0.3-1.3,3.3,0.4,3.3c-0.5,2.3,2.1,4.5,4.4,3.6
			c-0.1,0.4,0.1,0.8,0.4,1.2c-0.6-0.1-1.6-0.1-2.3-0.3c0-0.1-1-0.6-1.1-0.7c0-0.6-1.8-1.9-2.4-2.3c0.2,0.4,0.9,1.5,1,1.9
			c-0.6-0.4-1.9-1.1-3.1-1.2c-0.4-0.5-0.9-1.1-1.4-0.6c-0.4-0.1-0.7,0-0.7,0.3c-0.2,0-0.4,0.1-0.6,0.2c-0.1,0-0.5,0.1-1.9,0.6l0,0
			c-0.1,0-0.2,0.1-0.2,0.1c0,0-0.1-0.1-0.2-0.1c2.1-5-1.6-4.5-2-8.5c-0.5,0.2-0.6,0.1-1.1,0.7C13.3,12,2.6,10.9,0,6.8
			c0.5,2.2,0.5,3.8,3.4,5.4c0.3,0.5,0.6,1.6,2.2,2.4c0.2,0.4,0.4,1.2,1.7,2.2c-0.5,0.6,0.3,1.9,1.2,2.6c-0.2,0.2-0.4,1.4,0.2,1.8
			c-0.5,0.4-0.2,1.4,0.3,1.9c-0.2,0.4-0.2,1,0.3,1.7c-0.2,0.5-0.2,1.4,0.9,1.9c0.1,0.3,0.5,1.2,1.9,1.5c0,0,0.1,0,0.1,0
			c0.1,0.2,0.2,0.4,0.5,0.6c-0.3,1.7,4.5,2.4,5.2,1.2c0.5,0.4,1.3,0,0.9-0.6c0,0,0,0,0,0c0.3,0.7,0.6,1.2,1.2,1
			c0.2,0.3,0.5,0.6,0.8,0.9c-1.2-0.5-1.2-0.5-2.1-0.8c0.6,0.9,0.5,1.3,2.1,2.2c0.2,0.3,0.3,1.2,1.4,1.8c0,0.2,0,1.5,1.7,2.4
			c0.1,0.2,0.2,1.5,1.4,2.4c0,0.2,0,1.2,1.1,1.9c-0.3,0.5,0.9,2.1,1.4,2.4c-0.5,1.7,2.7,4.2,4.3,3.7c0.2,0.2,0.7,0.3,1,0.1
			c0.5,0.1,1.4,0.3,1.6-0.3c0.1,0,0.1,0,0.2,0c0,0.5,1.2,1.1,1.7,1.2c0,0,0,0,0,0c0.2,0.8,1.1,1.8,1.6,0.8c0.1,0,0.1-0.1,0.2-0.1
			c0.9,0.8,2.3,0.4,3.2-0.2c0.3,0.4,1.4,1.4,1.9,1.8c-0.4,0.3-1,0.7-1.4,0.8c-0.1-0.1-0.2-0.3-0.4-0.2c-0.3-1-2.1-0.8-1.9,0.3
			c-0.2,0.2-0.2,0.4-0.3,0.7c-0.4-0.2-0.7,0.4-1.2,0.5c-0.5,0.2-1.7-0.1-1.9-0.6c2.1-2.3-5.4-4.4-5.6-0.9c-0.3,0.1-0.8,0.1-1.1,0.1
			c-0.4-0.5-1.3-0.9-1.9-0.6c-0.6,0.3-1.1,1.3-0.1,1.2c0.3-0.1,0.5-0.1,0.7,0.1c-0.7,0.8,0.3,1.8,1.2,1.5c0,0.6,1.1,1.1,1.5,0.6
			c0.3,0.3,0.9,0.3,1.3,0.1c0.8,0.8,1.9,2.4,3.4,2.2c-0.5,0.6-0.5,1.9,0.3,2c0.5-0.2,0.4-1,1-0.9c0.6,0.7,1,0.7,1.7,0.2
			c0.7-0.5,2-0.6,2.4-1.3c0.1,0,0.1,0,0.2,0c0.7,2.2,1.2-1.1,1.5-1.6c0.6-0.2,0.2-0.1,1.7-1.5c0,1.7,4.4,3.4,5.3,1.4
			c0.7,0.5,2.1,1.4,3.6,1.4c-0.2,0.3,0.2,0.9,0.5,1c0,0.3,0.1,0.7,0.5,0.9c-0.1,0.5-0.5,1.4-1.1,1.8c-0.7-0.5-1.4-1.4-2.2-0.2
			c-1.3-0.7-1.7-1.7-3.4-0.7c0.5,0.2,1.1,0.4,1.5,0.9l0,0.2l0,0c-0.3,1.9,1,2.6,2.7,2.7c-0.4,1.1,0.6,1.8,1.6,1.8c0,1,1,2,1.8,2.3
			c-1.2,1.3-0.4,1.2,0.7,1.1c-0.3,0.5,0,1.1,0.6,0.7c1.7,0.2,4.5,0.2,5.7-0.7c0.1,0.1,0.1,0.2,0.2,0.2c-0.3,2.4,1.8-0.2,2.2-0.8
			c1.4,0.6,2.1-0.3,3-1.5c0.1,0,0.2,0,0.6,0l-0.1,0c0.9,0.7,2,1.9,6.4,3.4c3.1,0.9,3.7,1.1,5.2,0.8c0.3,0.1,0.7,0.3,0.9,0
			c0.2,0.5,0.9,1,1.4,0.7c0.3,0.3,0.6,0.8,0.9,1.2c-0.3,0.1-1.2,0.3-1.5,0.3c1.2,0.5,3.3,1.5,4.3-0.1c0.9,0.4,2.4,1.1,3.1,1.7
			c0.7,0.4,1.7,2,2.7,2c0.2,0.2,0.5,0.3,0.7,0.1c0.3,0.4,0.9,0.8,1.3,0.3c0.5,0.1,0.7-0.4,0.7-0.7c1.1-0.5,0.3-2.1-0.5-2.4
			c-0.1-0.6-0.3-1.1-0.9-1.4c5.7-3.6,1.9-7.3,2.4-11.9c0.2-0.4,0-0.9-0.2-0.9c0.3-0.3,0.5-0.5,0.7-0.7c3.1,0.8,4.9-2.8,4.6-4.5
			L99.5,55.2z M70.4,38.9c0.1-0.2,0.3-0.4,0.5-0.7c0.2,0.1,0.4,0.4,0.6,0.5c-0.4,0.1-0.8,0.3-1,0.5c-0.1,0-0.2,0-0.2-0.1
			C70.3,39,70.4,38.9,70.4,38.9z M31.2,38c0,0,0,0.1,0,0.2c-3.5-2.1-5.8-4.7-9.9-6.4c1.9,0.5,3-0.8,3.9-2.3c1,0.3,2.1,1.1,3,1.3
			c1.6,2.2,2.6,5.4,4.2,6.3C31.8,37.3,31.4,37.8,31.2,38z M45.9,52.9c-0.3,0.1-0.7,0.1-1,0l0,0c0.2-0.2,0.3-0.4,0.5-0.5
			C45.6,52.7,45.7,52.7,45.9,52.9L45.9,52.9L45.9,52.9z M55,67.9L55,67.9L55,67.9L55,67.9z M55.2,68L55,67.9l0,0L55.2,68z
			 M56.1,60.5C56.1,60.5,56.1,60.6,56.1,60.5C56,60.6,56,60.6,56.1,60.5C56,60.5,56.1,60.5,56.1,60.5C56.1,60.5,56.1,60.5,56.1,60.5
			z M56.7,60.8L56.7,60.8L56.7,60.8L56.7,60.8z M62.8,63.4c-0.1,0.1-0.2,0.3-0.1,0.4c-0.5,0.2-1.1,0.5-0.8,1.1c0,0-0.1,0.1-0.1,0.1
			c-0.3-0.5-1.2-0.3-1.7-0.4c0-0.1-0.1-0.1-0.1-0.1c2.4-0.4,0.3-4.4-1.3-4c-0.4,0.3,0.1,0.8-0.2,1.1c-0.7,0.2-1.3-0.9-1.8-1.1
			l-0.1,0.2c0,0,0.1-0.2,0.1-0.2c-0.1,0-0.2-0.1-0.3-0.1c0.5-0.2,0.7-0.3,0.7-0.7c1,0.5,1.9,0.4,2.7-0.1c-0.1,1.2,2.5,2.7,3.2,3.6
			C62.9,63.3,62.8,63.3,62.8,63.4z M68.3,42.2c0,0-0.1,0.1-0.1,0.1c-0.3,0-0.6,0.2-1,0.2c-1,0-2.7-0.6-3.2-0.2
			c-0.4-1.4-1.9-2.3-2.8-3.3c0,0-0.4-0.5-0.5-0.9c-0.2-0.4,0.3-1-0.2-0.5C59.9,38,60.1,39,60.1,39l0,0c0,0.6,0,1.3,0.1,1.9
			c-0.3,0-0.6,0.4-0.6,0.7c-0.6,0.2-1.5,0.7-2.1,1c-0.3-0.4-1.1-0.5-1.1,0.2c-0.2-0.1-0.5-0.3-0.7-0.3c0.1-0.7-0.8-1.2-1.2-0.5
			c-0.4-0.3-1-0.9-1.3-1c0.2-0.3,0.2-0.9,0.2-1.4c0-2.6,0.1-2.5-0.4-2.6c1.6-1.6,5.1-1.7,6.8-2.6c0.7,0.8,2.4,2.3,3.5,2.9
			c0.3,1,1.1,2.3,2.1,2.6c0,0.4,0.7,0.6,0.9,0.8c0.1,0.3,1,0.6,1.3,0.2c0.4,0.3,0.9,0.7,1.3,0.6C68.7,41.5,68.5,41.9,68.3,42.2z"/>
		<path class="st2" d="M10.5,12.7c-3.2-1.1-7.6-2.3-9.8-4.5c1.2,5.3,9.8,4,13.9,9c0.1,0,0.5-0.1,0.8,0c-0.1-0.2-0.2-0.6-0.1-1.2
			C15.1,15.6,13.2,13.7,10.5,12.7z"/>
		<path class="st2" d="M14.2,17.4c-1.7-1.9-7.4-4.2-10.1-4.8c1.7,2.9,8.1,2.5,9.9,6C14.4,19.1,14.6,17.5,14.2,17.4z"/>
		<path class="st2" d="M10.6,16.4c-1.1-0.5-3.6-1.2-4.3-1.5c1.2,2.7,5.3,2.7,7,4.6c0.1-0.1,0.2-0.4,0.2-0.7
			C13.2,18.6,11.7,16.9,10.6,16.4z"/>
		<path class="st2" d="M7.6,17.2c-0.3,0.8,1.2,1.8,1.6,2.3c1,0.2,2.7,0.5,3.5,1.3c0.2-0.2,0.4-0.5,0.4-0.7
			C12.5,18.9,8.4,18.1,7.6,17.2z"/>
		<path class="st2" d="M11.8,20.9c-0.8-0.4-2.3-0.6-3.1-1.1c-0.8,2.3,3.9,1.5,4.6,3.3C13.9,23,12.4,21.3,11.8,20.9z"/>
		<path class="st2" d="M12.9,23.5c-0.4-0.9-3-1.5-4.1-1.9c-0.4,2.8,2.7,1.1,4,2.9l0,0C12.9,24.5,13,24.4,12.9,23.5z"/>
		<path class="st2" d="M10.9,23.9c-0.5-0.1-1.2,0-1.6-0.3c0,0.2,0,0.7,0.5,1.1c0.4-0.1,2.3,0.4,2.7,1C12.6,24.7,11.9,24.1,10.9,23.9
			z"/>
		<path class="st2" d="M9.6,25.1c-0.4,1.3,1.6,1.4,2.7,1.5C12.1,25.7,11.1,25.5,9.6,25.1z"/>
		<path class="st2" d="M10.8,27c0.2,0.2,0.6,0.7,1.3,0.9c0.1,0,0.3-0.2,0.3-0.7C12,27.1,11.2,27.1,10.8,27z"/>
		<path class="st2" d="M17.9,23.1c0.1,0.1,0.3,0.2,0.4,0.2c1.9-4-1.1-4.3-2-7.7c-1.8,1.6,1.6,3.4,1.5,5.2
			C17.8,21.4,17.7,22.9,17.9,23.1z"/>
		<path class="st2" d="M15.1,18.9c1.4,1,1.1,3.9,2.1,4.4c0.2-0.5,0-2.8-0.1-3.2c-0.5-0.7-1.2-2.6-2.2-2.2
			C14.9,17.9,14.6,18.4,15.1,18.9z"/>
		<path class="st2" d="M14.1,20.2c0.7,0.5,1.7,2.9,2.1,3.6c0.5-0.4-0.4-3.4-0.7-3.7C15.2,19.1,13.3,18.4,14.1,20.2z"/>
		<path class="st2" d="M15.6,24C15.6,24,15.6,24,15.6,24c0-0.4-1.2-2.8-1.5-3.1l0,0c-0.5-0.8-1.1,0-0.7,0.9c0.3,0.7,1.6,2.4,1.9,2.6
			C15.3,24.3,15.4,24.2,15.6,24z"/>
		<path class="st2" d="M15.2,25.5L15.2,25.5c0.4-0.7-1.1-1.5-1.5-1.8C12.5,24.2,14.9,26,15.2,25.5z"/>
		<path class="st2" d="M13,25.7c0,1,3.7,1.5,1.9,0.3c-0.6-0.1-1.5-1.3-1.9-1l0,0C12.9,25.2,12.9,25.5,13,25.7z"/>
		<path class="st2" d="M13.6,27.8c0.8,0.2,1.8,0.1,1.9,0c0-1-1.8-0.5-2.5-1.3C12.7,26.9,12.8,27.6,13.6,27.8z"/>
		<path class="st2" d="M16,29.1c-0.2-0.3-0.4-0.8-0.9-0.7c-0.6,0-1.8-0.2-2.5-0.5C12.2,29.1,15.7,29,16,29.1z"/>
		<path class="st2" d="M13.4,29.3c-0.1,0-0.3-0.1-0.4-0.1c0.6,1.7,6.8,1.1,3.3,0.5C15.6,29.4,14.8,29.6,13.4,29.3z"/>
		<path class="st2" d="M16.3,24.3c-0.3-0.2-0.8,0.4-0.6,0.7c0.1,0.1,0.5,0,0.7,0C16.5,24.6,16.4,24.4,16.3,24.3z"/>
		<path class="st2" d="M15.7,26.2c0.6,0.5,0.7-0.9,0.2-0.8c-0.1,0-0.2,0-0.2,0.1C15.7,25.6,15.5,26,15.7,26.2z"/>
		<path class="st2" d="M17.3,25.4c-0.3-0.3-0.9,0.1-0.7,0.7c0.2,0,0.5,0.1,0.7,0C17.3,26,17.4,25.5,17.3,25.4z"/>
		<path class="st2" d="M15.7,26.8c-0.2,0.1,0,0.6,0.1,0.5C15.8,27.3,15.8,27,15.7,26.8C15.7,26.8,15.7,26.8,15.7,26.8z"/>
		<path class="st2" d="M16.1,27.2c0.1,0.1,0.2,0.2,0.2,0.2c0-0.1,0-0.4,0-0.8C16.2,26.7,16,27,16.1,27.2z"/>
		<path class="st2" d="M17.6,25c0.1-0.8-0.8-0.7-0.8-0.1C17.2,25,17.5,25,17.6,25z"/>
		<path class="st2" d="M16.7,24L16.7,24c1-0.2-0.3-0.7-0.1,0C16.6,24,16.6,24,16.7,24z"/>
		<path class="st2" d="M18.6,23.9c-0.3-0.3-0.8-0.4-1.1,0C17.7,24,18.4,23.9,18.6,23.9z"/>
		<g>
			<path class="st2" d="M18.1,24.8c0.2,0,0.5,0,0.7,0c0-0.1,0-0.3,0-0.4l0,0C18.5,24.2,17.8,24.4,18.1,24.8z"/>
			<path class="st2" d="M18.8,24.8L18.8,24.8L18.8,24.8z"/>
		</g>
		<path class="st2" d="M16.7,26.8c0,0,0,0.2,0.2,0.5C17.4,27.2,17.1,26.1,16.7,26.8z"/>
		<g>
			<path class="st2" d="M15.9,27.9L15.9,27.9L15.9,27.9z"/>
			<path class="st2" d="M16,27.9C16,27.9,16,27.9,16,27.9c-0.1,0.1,0,0.5,0.1,0.6C16.1,28.3,16,28,16,27.9z"/>
		</g>
		<path class="st2" d="M17.1,28.5c0-0.1-0.3-0.6-0.5-0.7C16.2,28,16.8,28.6,17.1,28.5z"/>
		<path class="st2" d="M17.6,27.5c0,0-0.1,0-0.1,0c-0.2,0.2,0,0.8,0.3,0.7C17.9,28,17.9,27.6,17.6,27.5z"/>
		<path class="st2" d="M17.7,26.9c0.6-0.3,0.8-0.9-0.1-0.6C17.6,26.6,17.5,26.9,17.7,26.9z"/>
		<path class="st2" d="M17.7,25.7c0.1,0.1,0.5,0,0.6,0c0,0,0.1-0.4,0-0.5C18.3,25.2,17.7,25.3,17.7,25.7z"/>
		<path class="st2" d="M19,25.2c-0.3-0.1-0.2,0.5-0.2,0.6c0.1-0.1,0.5-0.4,0.6-0.5C19.3,25.2,19.2,25.2,19,25.2L19,25.2z"/>
		<path class="st2" d="M19.1,24.6c0,0.1,0,0.1,0,0.1c0,0,0.1,0,0.2,0C19.2,24.8,19.1,24.7,19.1,24.6z"/>
		<path class="st2" d="M18.1,29.3c-0.1-0.2-0.2-0.4-0.2-0.5c-0.9-0.2,0.2,1.3,0.5,1C18.3,29.7,18.2,29.5,18.1,29.3L18.1,29.3
			L18.1,29.3z"/>
		<path class="st2" d="M16.5,28.9c0,0.2,0.4,0.4,0.6,0.4l0,0c0.1-0.2,0-0.6-0.4-0.5l0,0l0,0C16.6,28.9,16.5,28.9,16.5,28.9z"/>
		<path class="st2" d="M19.5,26.2c0.5-0.5,0.9-0.5,1.2-0.5c-0.8-1.3-3.4,2-2.1,3.2C18.3,27.8,18.5,27,19.5,26.2z"/>
		<path class="st2" d="M20.5,26.2c-1.7,0.4-2.2,2.9-0.9,4c-0.4-0.6-0.7-2.2-0.2-2.9C19.6,27,20.4,26.5,20.5,26.2z"/>
		<path class="st3" d="M19.9,29.3c0,1.4,1.7,2.6,3.1,1.9c1.2-0.4,1.6-2.6,3-2.6c-0.2-0.5-1.3-0.3-1.8,0.2c-0.8,0.8-0.8,0.8-1,0.5
			c0.3-1,1.1-1.1-0.4-1.7c-0.5-0.5-1.4-0.3-1.1-1.3c0.1-0.9,0.2-2-0.4-2.6c-0.2,1.3,0.3,2.1-0.8,3.8C20.5,27.4,19.8,28.2,19.9,29.3z
			"/>
		<path class="st3" d="M22.3,26.7c1-0.5,0.8-3.6-0.2-3.9C22.6,23.5,22.1,26.1,22.3,26.7z"/>
		<path class="st3" d="M23.4,27.3L23.4,27.3c1.1-0.8,0.6-4.1-0.7-4.7c0.2,0.3,0.6,1.1,0.6,1.8C23.5,25.4,22.6,27,23.4,27.3z"/>
		<path class="st3" d="M25,27.6c0.1,0.3,0.5,0.3,0.8,0.4c-0.6-0.3,0-1.5-0.8-1.6c-0.3,0.1-1.4,1.1-0.9,1.4c0.4,0.1,0.6-1.4,0.8-0.6
			C24.9,27.2,24.9,27.4,25,27.6z"/>
		<path class="st4" d="M21,23.4c-0.2,0.1-1.4,0.3-1.8,0.7c0.4,0.4,1.1,1.1,1.7,0.9C20.9,24.5,20.7,23.7,21,23.4z"/>
		<path class="st4" d="M21.5,23.2C21.4,23.2,21.4,23.2,21.5,23.2C21.4,23.2,21.4,23.2,21.5,23.2c0.1,0.1,0.2,0.2,0.3,0.2
			c0-0.1,0-0.2,0-0.3C21.7,23.1,21.6,23.2,21.5,23.2z"/>
		<path class="st4" d="M39.9,33.6c0.8,0.4,1.7,0.4,2.7,0.4c-0.7-1.9-4-0.7-4.2-2.9c-1.4,0.8-4.8,1.9-4.7,4
			c-2.1-3.7-7.1-3.9-6.7-10.3c-0.2-0.2-1.6-1.1-3-1.4c0.4,0.7,0.5,2,0.4,2.7c1.5-0.9,1.3,0.3,1.6,1.3c0.9,1.1,0.8,1-0.4,1.7
			c0.7,0.2,1.7,0.6,2.2,1c-0.3-0.3-1-0.6-0.6-0.8c2.5,1.1,3.9,6.9,5.6,7.4c0.3-0.3,1.5-0.5,2-0.5v-1.7c-0.1-0.2-0.1-0.7,0.2-0.5
			c0.8,1.3,2.7,1.4,4,1.2c0-0.3-1.1-1.5-1.4-1.6C37.9,33.6,39.4,33.5,39.9,33.6z"/>
		<path class="st2" d="M27.8,24.8c0,0,0.1-0.3-0.6-0.9c0.3,6.4,1.9,6.2,6.4,10.1c0.1-1.4,4.1-3,4.7-3.3v-0.2c-0.7,0.3-4.1,1.6-4.8,3
			C30.7,31,27.3,30.1,27.8,24.8L27.8,24.8z"/>
		<g>
			<path class="st2" d="M31.5,31.4c0.8,0.5,1.6,1,1.9,1.5c-0.2-0.7,4.5-2.9,4.8-2.9c0-0.2,0-0.8,0.1-1.1c-0.3,0-0.9-0.2-1.2-0.2
				c0.9,2.2-2.6,1.8-3.1-0.2H34c0,0.2,0,0.5,0.2,0.7c1,1.2-0.7,2.1-0.7,3.4c-0.3-0.5-1.3-1.8-1.1-2.7c-0.8,1.4-3.1-0.1-2.1-1.2
				c-0.8,0.3-2-1.8-0.7-1.9c0.4,0.3,1.4,0.3,1.8,0l-0.1-0.1c-1.8,0.9-1.9-1.1-3.1-1.5C28,27,28.9,30.6,31.5,31.4L31.5,31.4
				L31.5,31.4z"/>
			<path class="st2" d="M31,28.5c-0.2,0.1-0.3,0.1-0.5,0.2c0.6,0,1,0.1,1.3-0.6C31.5,28.2,31.3,28.4,31,28.5z"/>
		</g>
		<path class="st2" d="M30.3,26.5c0.5,0.1,1.1-0.4,1.1-0.4c0,0,0,0-0.1,0c0,0-1.3,0.1-1.9-0.2C29.5,26,29.8,26.4,30.3,26.5z"/>
		<path class="st2" d="M29.4,27.3c0.1,1.8,1.9,0.6,2.6,0v0c-0.2-0.3-0.4-0.3-0.7-0.1c-0.5,0.4-1.3,0.2-1.6,0
			C29.6,27.1,29.5,27.2,29.4,27.3z"/>
		<path class="st2" d="M30.9,29.9c0.8,0.7,2.5-1.3,1.6-1.9c-0.3,0.4-0.9,1.2-1.4,1C30.3,28.8,30.4,29.8,30.9,29.9z"/>
		<path class="st2" d="M33.5,28.7c0-0.1-0.1-0.2-0.2-0.1c-0.7,0.6-0.6,2.2,0,3C34.2,29.9,34.1,30.4,33.5,28.7L33.5,28.7L33.5,28.7z"
			/>
		<path class="st2" d="M34.6,28.6c0.3,0.8,2,2,2.4,0.7c-0.1-0.4-0.7,0.1-0.9-0.1c-0.5-0.2-0.8-1.2-1.4-0.8
			C34.7,28.4,34.5,28.5,34.6,28.6z"/>
		<g>
			<path class="st2" d="M35.5,28c0.3,0.3,0.8,1,1.2,0.5c-0.1-0.1-0.5-0.3-0.5-0.4l0,0C36,27.8,35.7,27.8,35.5,28z"/>
			<path class="st2" d="M36.2,28L36.2,28L36.2,28z"/>
		</g>
		<path class="st2" d="M38.8,27.7c-0.5-1.1-0.5,1-2-0.6c-0.1,0-0.6,0.3-0.4,0.4C37,28.1,38.8,29.2,38.8,27.7z"/>
		<path class="st2" d="M38.4,26.8c-0.3-0.2-0.8-0.7-1-0.2l0,0l0,0c-0.4,0.3,0.4,0.7,0.6,0.7C37.9,27.3,38.1,27.3,38.4,26.8z"/>
		<path class="st2" d="M37,26.3c0.4-0.6,0.9-1.1,0.8-1.7c-0.2-0.2-0.4,0-0.5,0.5c-0.3,1.6-2.6,2.9-4,2.8c-0.5,0-1.3-1.5-1.5-1.6
			c-0.1,0-0.2,0.1-0.2,0.1l0,0l0,0C33.1,29.2,35.3,28,37,26.3z"/>
		<path class="st2" d="M38,26c0.6,0.7,2.6,0.6,1.8-0.5c-0.4,0.4-0.9,0.5-1.4,0.2C38.2,25.3,37.8,25.8,38,26z"/>
		<path class="st2" d="M38.7,24.9c-0.1-0.1-0.3-0.1-0.4-0.1c0,0.1-0.1,0.1-0.1,0.2c0.4,0.4,1.3,0.7,1.2,0C39.2,25,38.8,25,38.7,24.9
			z"/>
		<path class="st2" d="M41.7,23C41.8,23,41.8,23,41.7,23c-0.8-0.2-1.2,0.8-1.6,1.1c-0.2,0.1-0.9,0.2-1,0.4c0.3,0.1,0.7,0.1,0.9-0.2
			c0.3-0.1,0.1,0.4-0.1,0.5c0.1,0.2,0.4,0.4,0.5,0.5c0.4-0.4,0-0.7,0.3-1.2C41,24,41.6,23.1,41.7,23z"/>
		<path class="st3" d="M36.8,25.6c0.8-1.4-1.6-1.8-2.2-2.9c-0.1-0.1-0.2-0.2-0.2-0.1c-1,0.4-1.6,1.1-2.6,1.8
			c-0.5,0.6,1.3,2.3,1.4,2.6C34.1,28.2,36,26.5,36.8,25.6z"/>
		<path class="st2" d="M36.8,23.9c1.4,0.6,3.4,0.1,3.9-1.2c0.4-1.3-1.9-0.7-0.7,0c0-0.2,0.3-0.2,0.3,0c-0.5,1.4-2.8,1.1-3.7,0.7
			c-0.6-0.3-0.9-1.4-1.7-1l0,0C35.1,22.7,36.1,23.6,36.8,23.9z"/>
		<path class="st2" d="M39.3,23.2c1-0.3-0.5-0.6-0.1-1.1c0.2-0.3-0.1-0.2-0.2-0.1c0.3,0.7-0.5,1-1,1.3
			C38.1,23.3,38.9,23.4,39.3,23.2z"/>
		<path class="st2" d="M36.5,22.6c0.2,0.1,0.8,0.5,1.1,0.5c0.8-0.2,1.5-0.9,0.5-1.2C37.5,21.8,37.4,22.5,36.5,22.6z"/>
		<path class="st2" d="M39.8,20.6c-4.6,0.7,0.3,1.8,0.8-0.2C40.4,20.5,40.1,20.6,39.8,20.6z"/>
		<path class="st2" d="M38.8,20.3c0.8,0,3.1-0.6,3.4-1.6C41,18.7,39.6,19.3,38.8,20.3z"/>
		<path class="st2" d="M42.7,16.6c-0.5,0.3-1.2,0.7-2.1,0.9c-1.3,2.4,1.4,0.7,2.2,0.2C43.3,17,43.9,15.7,42.7,16.6z"/>
		<path class="st2" d="M40.6,16.9c0,0,0,0.1,0,0.1c1.2-0.2,3.6-1.4,3.7-3.2C43.7,14.2,40.9,15.7,40.6,16.9z"/>
		<path class="st2" d="M38.2,18.4L38.2,18.4c0.3-0.3,0.5-1,0.6-1.3c-0.5,0-1.7,1.3-1.6,1.8C37.4,19,37.9,18.8,38.2,18.4z"/>
		<path class="st2" d="M38.9,18.1c0.6,0,1.7-1.4,1.6-1.9c-0.2,0.1-0.7,0.3-1.1,0.7l0,0C39.5,17,39,17.4,38.9,18.1z"/>
		<path class="st2" d="M36.6,21.1c-0.3,0.4,0.7,0.5,0.5,0c-0.1-0.9,1.2-1.1,1.6-1.9C35.7,20.4,37.9,19.8,36.6,21.1z"/>
		<path class="st2" d="M37.2,22c0.8-0.4,0.2-0.6,0.7-1.2c0.8-0.8,2.2-1.5,2.1-2.7c-0.4-0.1-1.9,1.3-3,1.2c-0.8-1-1.7,0.3-2.4-0.5
			c-0.3-1,0.1-2.9-0.8-3.2c-1-0.6-5-1.9-5.3-0.4c1.4-0.6,4.8,0.1,5.6,1.2c0.4,0.9-0.1,2.1,0.4,2.7c0.6,0.6,1.6-0.4,2.2,0.4
			c0.8,0,2.2-0.7,2.8-1.2c-0.1,0.4,0,0.6-0.7,1.4c-0.4,0.5-1.3,0.6-1.2,1.2c0.2,0.7-0.7,1.3-1.2,0.8c-0.1-0.2-0.3,0-0.3,0.1
			C36,22,36.4,22.4,37.2,22z"/>
		<path class="st2" d="M29.5,13.6c-0.3,0.2-0.4,0.4-0.4,0.6c0.2,0,0.6,0,0.7,0C29.9,13.9,29.6,13.7,29.5,13.6z"/>
		<path class="st2" d="M31,13.5c-0.4,0.1-0.7,0.5-0.8,0.7c0.6,0,1.2,0.1,1.5,0.2C31.6,13.8,31.1,13.6,31,13.5z"/>
		<path class="st2" d="M33,14.3c-0.3,0-0.5,0.2-0.6,0.3c0.3,0.1,0.8,0.3,1.1,0.5C33.4,14.6,33,14.4,33,14.3z"/>
		<path class="st2" d="M34.8,18.5c0.5,0.7,1.4-0.5,1.9,0.2c0.2-0.6,1.3-2.4,2.3-2.3c-0.6-3.9-8.8-6.4-10.7-2c0.7-0.1,1-1.9,1.8-0.5
			c0.6-1.1,1.7-0.7,2,0.5c1.2-0.9,1.3,0,1.8,1C34.9,15.7,34.7,17.6,34.8,18.5z"/>
		<g>
			<path class="st2" d="M37.6,13.1c-0.1,0-0.2,0.1-0.2,0.1c0.2,0.2,0.4,0,0.6-0.2C37.9,13,37.7,13.1,37.6,13.1z"/>
			<path class="st2" d="M33.7,11.3c0,0.8,3.1,1.2,3.5,1.7c0-0.3,0-0.9-0.1-1.1c-1.5,0.5-1,0.8-1.7-0.6C34,12,34.6,11.9,33.7,11
				C33.6,11.1,33.7,11.2,33.7,11.3L33.7,11.3L33.7,11.3z"/>
		</g>
		<path class="st2" d="M38.7,12.3c-0.1,0-0.6,0-1,0.2c0-0.2,0.1-0.5-0.1-1.1c-0.2-0.1-0.9-0.1-1.3,0.2c-0.1-0.2-0.1-0.7-0.6-1
			c-0.2,0-0.9,0.1-1.1,0.5c0.1-0.1-0.5-1-0.9-0.9c0,0-0.1,0.1,0,0.3c0.2,0.1,0.6,0.6,0.7,0.9c0.4-0.2,0.9-0.4,1.1-0.4
			c0.3,0,0.5,0.8,0.6,1c0.8-0.5,1.6-0.6,1.4,0.7c0.4-0.3,1.1-0.2,0.6,0.4C38.4,13.1,38.6,12.9,38.7,12.3z"/>
		<path class="st2" d="M35.8,10.3c0.3,0.1,0.6,0.5,0.7,0.7c0.5-0.1,1.5-0.1,1.5,0.6c0.2-0.7-2.6-2.4-3.2-1.2c0,0,0,0.1,0,0.1
			C35.1,10.5,35.5,10.3,35.8,10.3z"/>
		<path class="st2" d="M37.8,10.6c0-0.1-0.3-0.3-0.6-0.4l0,0c-0.5-0.3-0.8-0.3-0.8-0.3C36.6,10.1,37.5,10.6,37.8,10.6
			C37.8,10.6,37.8,10.6,37.8,10.6z"/>
		<path class="st2" d="M38.3,9.3c-0.1-0.3-2.2-1.4-1.6,0.2C37.4,9.7,38.1,10.1,38.3,9.3z"/>
		<path class="st2" d="M38.1,8.3c-0.3-0.1-0.9-0.3-1-0.1c0.3,0,1.3,0.3,1.4,0.6c0.1,0.1,0.1,0.1,0.1-0.1l0,0
			C38.5,8.6,38.3,8.4,38.1,8.3z"/>
		<path class="st2" d="M37.6,7.7L37.6,7.7c0.3,0,0.8,0.2,1,0.5C39.8,7.7,37.1,6.7,37.6,7.7z"/>
		<path class="st2" d="M37.7,6.8C37.7,6.9,37.7,6.9,37.7,6.8c0.4,0,1.1,0.2,1.4,0.5C39.2,7,38.1,6.5,37.7,6.8z"/>
		<path class="st2" d="M38.2,5.9c-0.2,0.6,0.6,0.4,0.9,0.7c0.1-0.2,0-0.6,0.2-0.6c0.1-0.3,0.2-1.4,0.2-2C39.2,4.4,38.4,5.5,38.2,5.9
			z"/>
		<path class="st2" d="M28.3,12.9c0,0.1,0.1,0.3,0.2,0.4c0.2-0.1,0.3-0.3,0.5-0.5l0,0c0.9-0.5,0.3-1.9-0.1-2.6
			C28.6,10.4,28.2,12.2,28.3,12.9z"/>
		<path class="st2" d="M28.2,13.7L28.2,13.7c0.1-0.1-0.2-0.7-0.4-0.7c-0.3,0.4-0.3,1.4-0.3,1.7c0.1,0.1,0.3,0.2,0.4,0.3
			C27.9,14.5,28.1,13.9,28.2,13.7z"/>
		<path class="st2" d="M27.3,14.9c-0.1,0.1-0.2,0.3-0.1,0.9c0.1,0.1,0.4,0.3,0.5,0.5C27.7,15.9,27.9,15.2,27.3,14.9z"/>
		<path class="st2" d="M27,16.4c-0.3,0.2-0.3,1.5,0.2,1.6C27.2,17.5,27.6,16.7,27,16.4z"/>
		<path class="st2" d="M25.7,19.3c0.1,0.6,0.7,1.1,1.2,1.1v-0.3c-0.2-0.1-0.6,0-0.9-0.7c-0.2-0.3,0.1-1.5,0.6-1.1
			c0,0.2,0.3,0.1,0.3,0C26.6,17.2,25.4,18.6,25.7,19.3z"/>
		<path class="st2" d="M27.1,18.7c-0.1,0-0.2,0-0.2,0.1c-0.1,0.1-0.3-0.1-0.5-0.1c-0.3,0.3,0.1,1.1,0.5,1
			C26.9,19.6,27,18.9,27.1,18.7z"/>
		<path class="st2" d="M33.5,21.6c-0.5,0-0.5,0.9,0,0.9C34,22.6,34,21.6,33.5,21.6z"/>
		<path class="st2" d="M39.5,27c-0.2,0-0.5,0-0.7,0l0,0l0,0c0.1,0.1,0.3,0.4,0.3,0.4C39.2,27.3,39.5,27,39.5,27
			C39.5,26.9,39.5,26.9,39.5,27z"/>
		<path class="st3" d="M28.1,17.3c-0.4,0.4,0.1,0.6,0.5,0.8c0.2,0.2,0.1,0.4,0.3,0.5C29.2,18,28.7,16.8,28.1,17.3z"/>
		<g>
			<path class="st5" d="M28.3,18.3c-0.2,0.1,0.3,0.4,0.3,0.3C28.7,18.5,28.4,18.1,28.3,18.3z"/>
		</g>
		<g>
			<g>
				<path class="st6" d="M36.5,20.3c-0.1-1-1.2-0.5-1.9-0.4c-2.1,0-0.3-2.8-1.7-3.6c-1.1-0.7-5-1.9-4.7,0.2c0.7,0.3,1,1.4,0.8,2.3
					c-1.6,3.2-0.4,1,0.6,2.2c-0.1,0.2-0.2-0.1-0.3-0.1c-0.5-0.1-1.2,0.2-1.4-0.4C28,20,29,19.2,28.6,18.7c-0.3-0.1-0.6-0.2-0.8-0.5
					c-0.5,0.4-0.6,2.9-0.5,3.5c0.3,2.8,4.4,3,5.9,1c-0.4-0.4-0.6-1.3,0.2-1.6c0.7-0.3,0.8,0.5,1.2,0.7
					C35.2,21.9,36.7,21.2,36.5,20.3z M29.6,22.4c0,0-0.1,0-0.1,0c0.1,0.4-0.8,0.4-1,0.3c-0.5-0.1-1-1.1-0.5-1.4
					c0.3,0.4,1,0.4,1.4,0.7c-0.3-0.5-0.9-0.2-1.2-0.6c0-0.3,0.2,0,0.4,0c0.2,0,0.3-0.1,0.5,0C29.3,21.7,30.2,22.2,29.6,22.4z
					 M32.7,19.1L32.7,19.1c-0.4,0.3-1.4,0.6-1.8,0c-0.1-0.2-0.2,0-0.3-0.1C30.5,18,32.6,18.4,32.7,19.1z M33,18.5L33,18.5L33,18.5
					L33,18.5c-0.1,0.1-0.1,0-0.4-0.2C32,17.7,31,18,30.4,17.9C30,16.6,33.2,17.8,33,18.5z M35.3,21.4c-0.6,0.1-0.7-0.3-0.3-0.7l0,0
					c0.4-0.2,0.3,0.2,0.1,0.4c0.4,0.1,1-0.3,0.7-0.8c-0.1-0.2-0.7-0.1-0.5-0.4C36.6,19.6,36.5,21.5,35.3,21.4z"/>
			</g>
			<g>
				<path class="st6" d="M29.2,22.3c-0.2-0.2-0.9-0.1-1.2-0.5l0,0c-0.1,0.6,0.8,0.7,1.3,0.6C29.3,22.4,29.3,22.3,29.2,22.3z"/>
			</g>
		</g>
		<g>
			<path class="st5" d="M31.9,18.8c-0.3,0.1-0.2,0.6,0.2,0.4C32.1,19.1,32,18.8,31.9,18.8z"/>
		</g>
		<g>
			<path class="st5" d="M43.3,28.1c0.1,0,0.1-0.4-0.1-0.4C42.9,27.7,42.8,28.2,43.3,28.1z"/>
		</g>
		<path class="st4" d="M35.1,40.1c0.3,1.5,1.9,0.8,3,0.6c0.9-0.1,2.5-0.1,2.8-0.1c-1.5-2-4.3,0-6-3.8c-0.3-0.4-3.3,0.9-3.3,1.4
			c-0.3,0.2,2.9,1.9,2.9,2c0.3-0.7-1.3-1.8-1.6-1.7l-0.1-0.1C33.4,37.9,35.4,39.3,35.1,40.1z"/>
		<path class="st4" d="M36.8,41.8L36.8,41.8c0,0.1,0.2,0.2,0.2,0.2c1.1,1,1.4,1.4,1.6,1.4c0.3-0.6,0.9-1.4,1-2.1
			C39.3,41.2,37.2,41.5,36.8,41.8z"/>
		<path class="st4" d="M62.2,35.8c0.4,0.3,0.6,0.5,1,0.8c0.6-1.2-0.5-2-0.7-3.3c-0.1-0.7,0-1.2,0.2-1.7c-1-1.7-3-1.4-4.8-1.6
			c0.2,3.8-4.6,5-7,7.2c-1.3,2-3.6,7.7-6.6,4.4c-0.7-0.9-1.8-0.5-2.6-1.3c-0.5-0.4-0.8-0.7-1.1-0.7c1.3,0.7,1.4,2.1,1.9,3.5
			c0.7,2.1,4.3,2.1,5.2,0.3c0.8,0-1.2,1.9-1.8,1.6c0.9,1.4,4.8,4.6,6.2,2c0-0.5,0.6-0.6,0.8-1.1c0.5-0.3,0.1-1.2,0.8-1.4
			c0.6-0.3,0.6-1.9,0.6-2.4c-0.1-0.1-1.1-1-1.3-1c-0.6,0.9-2.9,1.6-3.8,1.1c-0.2-0.2-0.1-0.3,0.5-0.3c3.3,0.2,3.5-2.5,3.2-4.9
			c-0.4-0.2-1.1,1.6-1.6,1.2c0.7-2.6,5.7-4,8.1-4.4c-0.4-0.7-0.4-3.5,1-3.2C58.5,32.5,60.4,34.6,62.2,35.8L62.2,35.8L62.2,35.8
			L62.2,35.8z"/>
		<path class="st4" d="M41.7,43c0,0.2,0,0.7,0,0.9c0.1,0,0.3,0,0.5,0.1C42.1,43.6,41.9,43.2,41.7,43z"/>
		<path class="st2" d="M35.7,35.2c-0.1-0.1-0.4-0.2-0.5-0.3c-0.8,2.4,3.2,5.3,5.1,4.2c0,0,0,0,0,0c-1.8,0.7-4.9-1.6-4.3-3.6
			C35.9,35.3,35.8,35.2,35.7,35.2z"/>
		<path class="st2" d="M39.6,38.3c-0.7,0.3-2.5-0.8-2.5-1.8c0-0.6-0.2-0.9-0.8-1C36,37.4,38.4,39,40,38.4c0,0,0-0.1-0.1-0.2
			C39.9,38.3,39.8,38.3,39.6,38.3z"/>
		<path class="st2" d="M39.8,36.5c-0.1-1.3-1.5-0.6-2.5-0.8c0.5,2.2,1.2,2,2.5,2.1C39.8,37.5,39.8,36.8,39.8,36.5z"/>
		<path class="st2" d="M35,40.9c-5.2-2.6-9.5-7.3-15.3-9.5c0.3,0.4,1,1.1,2,1.2c1.4,0.2,6.6,4.6,7,5c1.4,1,4,2.4,5.4,3.7
			c0.2,0.5,1.1-0.1,1.2-0.3C35.2,41.1,35.2,41,35,40.9L35,40.9L35,40.9L35,40.9z"/>
		<path class="st2" d="M32.6,41.4c0.1-0.1,0.3-0.2,0.3-0.3c-1.2-1.2-3.4-2.2-4.7-3.3c-1.9-1.5-5.4-4.5-7-4.7
			c0.6,1.3,3.8,2.5,4.5,3.5C27.8,38.1,30.5,40.4,32.6,41.4z"/>
		<path class="st2" d="M31.7,41.7c0.1-0.8-2.9-1.8-3.5-2.7c-1.7-1.3-3.6-3.1-5.6-4.1c0.1,0.4,0.4,1.3,1.7,1.9
			c1.8,0.8,1.5,1.5,3.3,2.5C30.1,40.4,30.8,42.1,31.7,41.7z"/>
		<path class="st2" d="M30.4,41.6c-1.4-1.1-2.6-1.5-3.9-2.4c-0.6-0.6-1.3-1.5-2.2-1.9c0.5,2.4,5.2,3.7,6.1,5.4
			c0.2,0.3,0.6-0.2,0.8-0.2C31.2,42.4,31,42,30.4,41.6z"/>
		<path class="st2" d="M30.2,43c-0.9-1.1-3.1-2.3-4.5-3.2c0,1.3,2.9,2.1,3.4,3c0.6,0.8,0.6,0.4,1.3,0.4C30.3,43.2,30.3,43.1,30.2,43
			z"/>
		<path class="st2" d="M26.7,41.6c-0.3,0.3,0.9,1.6,1.2,1.9c0.3,0,0.9,0,1.3,0.2C29,43.2,27.8,42,26.7,41.6z"/>
		<path class="st2" d="M31.7,46.9c-1.2-0.8-1.8-2.9-3.5-3c-0.5,1.4,2.6,3.7,3.7,3.2C31.9,47.1,31.9,47.1,31.7,46.9z"/>
		<path class="st2" d="M29.6,43.9c0.2,0.6,1.7,1.9,2,2.3c1.4,1.1,1.8,0.2,0.6-0.9l0,0c-0.8-0.5-1.5-2-2.5-1.8
			C29.8,43.7,29.7,43.8,29.6,43.9z"/>
		<path class="st2" d="M33.4,45.6c0.1-0.2,0.6-0.3,0.4-0.5c-0.9-0.7-1.7-1.8-2.6-2.1c-1,0.4,1,1.5,1.3,2
			C32.8,45.2,33.1,46.1,33.4,45.6z"/>
		<path class="st2" d="M31.8,42.7c0.7,0.2,2.6,3,2.8,2.2c0.8-0.8-0.1-1-0.7-1.7c-0.7-0.5-1.4-1.6-2-1.1
			C31.8,42.3,31.6,42.6,31.8,42.7z"/>
		<path class="st2" d="M33,42c0.7,0.6,1.7,1.5,2.4,1.9c0.1-0.1,0.5-0.5,0.5-0.6C35.6,43.1,32.8,40.4,33,42z"/>
		<path class="st2" d="M35,42c0.8,0.9,1.8,1.5,3,1.6C37.5,43.2,35.8,40.9,35,42z"/>
		<path class="st2" d="M35.6,44.2c0.7,1,1.1,0,0.6-0.6l0,0c0,0-0.1,0-0.1,0C36,43.8,35.7,44.1,35.6,44.2z"/>
		<path class="st2" d="M36.9,44.7c0.1,0.1,0.4,0.2,0.5,0.2C38.5,43.9,36.5,43.4,36.9,44.7z"/>
		<path class="st2" d="M32.5,47.3c0.1,0,0.3,0,0.3,0c0.2-0.4-0.4-0.3-0.5-0.1c0,0,0,0,0,0C32.3,47.2,32.4,47.3,32.5,47.3z"/>
		<path class="st2" d="M33.2,47.1c0,0.1-0.1,0.1-0.1,0.1c0,0,1.4,0.2,0.9-0.2C33.7,46.6,33.4,46.8,33.2,47.1z"/>
		<path class="st2" d="M33.6,46c-0.3,0.3,0.4,0.4,0.5,0.5c0-0.1,0.3-0.8-0.1-0.8v0v0C34,45.7,33.8,45.9,33.6,46z"/>
		<path class="st2" d="M35.9,45.5c0.1-1.5-2.1-0.3-0.2,0.3C35.8,46,35.9,45.8,35.9,45.5z"/>
		<path class="st2" d="M35.5,46.9c0.2-0.4-0.2-1.1-0.7-0.9C34.3,46.5,34.7,47.2,35.5,46.9z"/>
		<path class="st2" d="M35.9,46.3c-0.5,0.8,0.4,0.5,0.8,0.6c0.3-0.1-0.5-0.7-0.7-0.7C36,46.2,36,46.2,35.9,46.3z"/>
		<path class="st2" d="M37,45.1c-0.8-0.6-1,1.2-0.1,0.8C37.3,45.5,37.6,45.5,37,45.1z"/>
		<path class="st2" d="M35.3,47.5c0.4,0.2,0.8,0.4,1.1,0.6C36.6,46.9,35.9,47.3,35.3,47.5C35.3,47.4,35.3,47.4,35.3,47.5z"/>
		<path class="st2" d="M37.8,45.8c-0.2-0.2-0.5,0.1-0.6,0.5C37.6,46.4,37.9,46,37.8,45.8z"/>
		<path class="st2" d="M38.1,44.8c-0.1,0-0.3,0-0.2,0.2C37.9,45.6,38.2,45.1,38.1,44.8z"/>
		<path class="st2" d="M37.9,46.7c0,0-0.1,0-0.1,0c-0.6,0.4-1.1,1-0.9,1.7c0.2,0.4,0.6,1.2,0.8,0.8c-0.5-0.4-0.8-1.9,0-2.1
			C37.9,47,37.9,46.8,37.9,46.7z"/>
		<path class="st2" d="M37.6,48c0,0.5,0.2,0.9,0.3,1c-0.1-0.4,0-1-0.1-1.5l0,0C37.8,47.5,37.6,47.6,37.6,48z"/>
		<path class="st2" d="M48.7,15.7c1.4-0.2,1-3.1,1.3-4.2c-0.4,0.7-2.8,2.1-2.5,3.1C48.6,12.7,49.9,14.3,48.7,15.7z"/>
		<path class="st2" d="M47.8,15c0,1.2,1.1,0.3,1-0.4l0,0C48.7,13.9,47.9,14.4,47.8,15z"/>
		<path class="st2" d="M47.5,16.7c0.1,0.1,0.2,0.1,0.3,0.1C49.2,16.3,46.9,15.2,47.5,16.7z"/>
		<path class="st2" d="M46.9,16.7c-0.1,1.5,2,0.8,1.6-0.4c0.1,1.1-1.7,1.2-1.5,0C46.9,16.5,46.9,16.6,46.9,16.7z"/>
		<path class="st2" d="M50.3,19.1c0.8,0,1.5,0.8,2.1,1.2c0,0,0-0.1,0.1-0.2l0,0c0.7-1.5-1.5-4-2.5-4.3C49.6,16,48.6,16.5,49,17
			c0.9,0.3,1.2,1.2,1,2.1c0,0,0.1,0,0.1,0l0,0l0,0C50.2,19.1,50.2,19.1,50.3,19.1z"/>
		<path class="st2" d="M51.8,21.4c0.5-0.7-2.1-2.6-2.4-1.5c0.5,0,1.8,1.2,2.1,1.6C51.7,21.6,51.7,21.6,51.8,21.4z"/>
		<path class="st2" d="M50.2,20.9c-0.3-0.2-1.1-1-1.7-0.6c0,0,0,0,0,0c0.8,0.1,1.9,1,2.5,1.5C51,21.6,50.6,21.2,50.2,20.9z"/>
		<path class="st2" d="M48,21.7L48,21.7c1.2-0.8,2-0.7,2,1.2c0.2-0.3,0.7-0.5,1-0.4c-0.5-0.9-2.2-2.2-3.3-1.6
			C47.7,21,47.9,21.3,48,21.7C48,21.7,48,21.7,48,21.7z"/>
		<path class="st2" d="M46.8,20.3c-0.1,0.2-0.3,0.6-0.3,0.9c0.2-0.2,0.3-0.3,0.4-0.4c0.4,0.3,0.6,0.9,0.6,1.1
			C47.6,21.4,47,20.4,46.8,20.3z"/>
		<path class="st2" d="M49.4,21.5c-0.3,0.1-1.4,0.3-1.4,0.7c0,0,0.1,0,0.3-0.2c0.5-0.3,0.8-0.3,0.9-0.3c0.2,0.4,0,1.2,0.2,1.5
			C49.9,23.2,49.5,21.4,49.4,21.5z"/>
		<path class="st2" d="M50.1,23.4c0.2-0.3,1.4-0.6,1.8-0.5c-0.4-0.4-2.4,0.1-1.9,0.6C50,23.5,50,23.5,50.1,23.4z"/>
		<g>
			<path class="st2" d="M50.5,23.7c0.1,0.2,0.2,0.3,0.2,0.3c0.2-0.2,0.4-0.4,0.6-0.5C50.9,23.5,50.5,23.5,50.5,23.7z"/>
		</g>
		<path class="st2" d="M49,22.8c0-0.1,0-0.4,0-0.5c0,0-0.4,0-0.5,0.2C48.7,22.6,48.9,22.8,49,22.8z"/>
		<path class="st2" d="M46.8,21.3C46.8,21.2,46.8,21.2,46.8,21.3C46.8,21.2,46.8,21.2,46.8,21.3c-0.1,0-0.2,0.1-0.2,0.2
			c0.1,0,0.2,0.1,0.4,0.2C47,21.5,46.9,21.4,46.8,21.3L46.8,21.3L46.8,21.3z"/>
		<path class="st2" d="M48.8,23.1c-1.1-0.7-2.1-1.2-2.9-1.1c1.4,0.3,3.8,1.8,4.6,3.1C50.5,24.1,49.8,24,48.8,23.1z"/>
		<path class="st2" d="M50.7,27.1c-0.3-3-3.9-5.1-6.6-5c0,0.1,0.3,0.9,0.3,1c2.3,0.6,5.3,3.5,4.8,6.2C50.5,29.9,50.8,28.3,50.7,27.1
			z"/>
		<path class="st2" d="M48.5,29.3c0.1,0,0.1,0,0.1-0.1c0.8-2.4-2.7-5.5-4.6-5.8c-0.1-0.7-0.4-1.4-0.5-1.4c-0.1,0.1-0.3,0.3-0.4,0.3
			c0.3,0.2,0.6,1.3,0.6,1.4c0,0,0,0,0,0c2.3,0.2,4.9,3.2,4.5,5.5C48.2,29.4,48.4,29.3,48.5,29.3z"/>
		<path class="st2" d="M44.1,24.2c0,0-0.1-0.1-0.1-0.1C43.2,24,43.9,25.2,44.1,24.2z"/>
		<path class="st2" d="M44.4,24.7c0,0.1,0.1,0.2,0.4,0.3C45.2,24.9,44.7,24.1,44.4,24.7z"/>
		<path class="st2" d="M45.1,25.2c0.1,0.1,0.3,0.2,0.4,0.3c0.2-0.1,0.4-0.4-0.1-0.5C45.3,24.7,45.1,25.2,45.1,25.2z"/>
		<path class="st2" d="M46,25.4c-0.1,0.1-0.2,0.4-0.2,0.3c0.1,0.1,0.3,0.3,0.3,0.3c0.1,0,0.2-0.2,0.2-0.3
			C46.4,25.7,46.3,25.5,46,25.4z"/>
		<path class="st2" d="M46.6,26.1c-0.2,0.2,0.1,0.4,0.2,0.5C47.2,26.5,46.8,25.7,46.6,26.1L46.6,26.1z"/>
		<path class="st2" d="M47.2,27.2c0.1,0,0.2-0.1,0.3-0.1c0-0.1-0.1-0.4-0.2-0.4c-0.1,0-0.2,0.3-0.2,0.2C47,27,47.1,27.1,47.2,27.2z"
			/>
		<path class="st2" d="M47.5,27.5c-0.1,0-0.2,0-0.2,0c0,0.2,0,0.3,0,0.3c0.1,0,0.3,0,0.3,0c0,0,0-0.1,0-0.3
			C47.7,27.5,47.6,27.5,47.5,27.5C47.5,27.5,47.5,27.5,47.5,27.5z"/>
		<path class="st2" d="M47.8,28.5c0-0.1,0-0.2,0-0.2c0,0-0.1,0-0.4,0c0,0,0,0.3,0,0.3C47.5,28.5,47.8,28.7,47.8,28.5z"/>
		<path class="st2" d="M47.4,29c-0.1,0.3,0.1,0.4,0.3,0.4c0.1-0.1,0.1-0.5,0-0.5c0,0-0.2,0-0.3,0C47.4,28.9,47.4,29,47.4,29z"/>
		<path class="st2" d="M45,25.5c-2.7-0.9-0.8-1.4-2.2-2.8c-0.1,0-0.3,0.3-0.4,0.4c1,0.3,0.9,1.7,0.1,2.1c1.7,0.6,3.8,1.1,3.6,3.2
			c0,0.5,0.2,1,0.5,1C48.2,29.3,46.1,25.8,45,25.5z"/>
		<path class="st2" d="M42.2,23.5c-0.3-0.2-1.1,1-0.8,1.2C42.2,25.6,43.3,23.8,42.2,23.5z"/>
		<path class="st3" d="M42.4,33c0,0-0.1,0-0.2,0c1.9,1.9,1.6,2.6,3.2,2.9c2.6-0.3,2.5-3.3,0.2-3.8c-0.4,1.1-1.2,0.5-1.8,0.3
			C43.6,32.5,42.8,33,42.4,33z"/>
		<path class="st2" d="M44.7,31.2c-0.7,0-0.7,1.1,0,1.1C45.4,32.3,45.4,31.2,44.7,31.2z"/>
		<g>
			<g>
				<path class="st3" d="M40.3,30.1c-0.1-0.2-0.3-0.2-0.5-0.3C39.9,29.9,40.2,30,40.3,30.1z"/>
			</g>
			<g>
				<path class="st3" d="M39.8,30.2c-0.2-0.1-0.3-0.2-0.4-0.4c-0.1,0.4,0.4,0.8,0.9,0.8C40.2,30.5,40.1,30.4,39.8,30.2z"/>
			</g>
			<g>
				<path class="st3" d="M45.6,31.2L45.6,31.2c1,0.2,1.5-0.3,1.7-1.1c-0.4-0.5-1.4-0.3-1.7-0.8c-0.1-2.3,0.2-2.7-2.7-3.6
					c-1.5-0.4-2.2-1.5-1.6,0.2c0.1,1-1.4,1.7-1.7,2.6c0.3,0.1,1.5,0.4,0.9,0.8c-0.3-0.5-1.3-0.2-1.3-1c0-0.4,1.6-1.6,1.4-1.7
					c-0.2,0-0.5,0.2-0.7,0.1c-3.1,3.9-1,7.1,3.8,5.3C43.4,30.9,45,30.6,45.6,31.2z M40.8,30.6L40.8,30.6c0,0.1-0.3,0.2-0.4,0.2
					c-0.5,0.5-1.6-0.3-1.4-1c0.1-0.4,0.3-0.7,0.5-0.4c0.1-0.3,0.3,0,0.4,0.1C40.5,29.6,40.7,30.3,40.8,30.6z M43.9,28.3
					c-0.5,0.2-1.5,0.1-1.6-0.6c-0.7-0.1,0.3-0.8,0.8-0.5C43.6,27.5,44,28,43.9,28.3z M43.5,26.9c-2.5-0.7,1.1-1.1,1.3,0.6
					C44.6,28.2,44.2,26.8,43.5,26.9z"/>
			</g>
		</g>
		<path class="st2" d="M46.7,31.5c-0.2,0-0.7-0.1-1,0C45.7,32,46.6,31.8,46.7,31.5z"/>
		<path class="st2" d="M49.3,32.2c0-0.9-1.3-0.2-0.4,0c0,0.7-1.8,0.2-2-0.3C45.6,32.4,49.4,33.5,49.3,32.2z"/>
		<path class="st2" d="M49.4,31.1c-0.1,0.1-0.4,0.2-0.2,0.4c0.3,0.6,1.4,0.2,1.3-0.4c0,0-0.1,0-0.2,0l0,0l0,0
			C50.2,31.1,49.9,31.2,49.4,31.1z"/>
		<path class="st2" d="M49.7,30.1c-0.6,1.3,1.8,0.6,1.5-0.3C51.1,30.1,50.1,30.1,49.7,30.1z"/>
		<path class="st2" d="M49.1,31c0.9-0.8-0.8-2-1-0.7c-0.3,0.7-1.6,0.9-0.5,1.7c0.8,0.5,0.6-0.2,1-0.6c-1.6-0.6,0.6-1.9,0.4-0.6
			C47.8,30.3,48.6,31.3,49.1,31L49.1,31z"/>
		<path class="st2" d="M46.3,41.5c-9-2.1-2.9-7.2-7.5-7.5c2.7,2.4-0.1,5.8,4.9,6.7c0.9,0.4,1.3,1.6,2.7,1.6c1.9-0.4,2.6-2.9,3.5-4.4
			c3.3-3.8,3.8-5.4,3.3-10.6c-0.7,0.8-0.9,1.2-0.6,2.3c1.1,4.1-2.1,6.5-4.1,9.8l0,0l0,0C47.9,40.3,47.3,41.4,46.3,41.5z"/>
		<g>
			<path class="st2" d="M41.8,38.7c0.8,1.3,2.4,1.1,3.4,1.9c1.7,1.7,2.7-1.2,3.5-2.3c0,0-0.1,0-0.1,0c-0.1,0.3-1.8-0.4-1.8-0.8
				c0,0.4,0.6,1,0.5,1.2c-0.1,0.1-0.6,1.9-0.9,2.1c-0.6-0.4-1.6-1.9-1.3-2.7c-0.5,1.5-3.1,0.9-2.2-0.6c0.3-0.2,1.1,0.1,1.2-0.4
				c-2.1,1.2-2.9-2-1.5-1.7c-0.5-0.6-0.8-1-1.6-0.8C41.7,35.8,40.9,37.3,41.8,38.7z"/>
			<path class="st2" d="M42.8,35.4c-0.1,0-0.1,0-0.2-0.1c0,0,0,0,0,0c0.4,0.3,1.2,0.5,1.2,0.2C43.6,35.5,43.1,35.5,42.8,35.4z"/>
		</g>
		<g>
			<path class="st2" d="M43.2,34.7c-0.1,0-0.4-0.1-0.7-0.1c0.2,0.4,0.6,0.5,1.1,0.5C43.5,35,43.3,34.7,43.2,34.7z"/>
			<path class="st2" d="M43.6,35.1L43.6,35.1L43.6,35.1z"/>
		</g>
		<path class="st2" d="M44.4,36.1c-0.2-0.3-0.6,0-0.9,0c-0.4,0-1-0.2-1.1-0.5C41.9,37,43.7,37,44.4,36.1z"/>
		<path class="st2" d="M43.5,38.6c0.8,0.1,2.3-1.7,1.2-2c-0.2,0.5-0.6,1.4-1.4,1.1C42.7,37.6,43.3,38.8,43.5,38.6z"/>
		<path class="st2" d="M46.7,36.4c1.1-0.5,1.6-2.2,1.4-3.3c-0.1,0-0.4,0-0.5,0c0.4,1.6-0.9,3.4-2.7,3.1c-0.1,0.2,0.3,0.4,0.4,0.4
			C45.6,36.6,46.5,36.5,46.7,36.4z"/>
		<path class="st2" d="M46.7,38.3c-0.6-1.3-0.9-1.8-1.2,0c-0.2,0.6,0.6,1.4,0.8,1.7c0,0,0,0,0,0C46.2,40,46.8,38.8,46.7,38.3z"/>
		<path class="st2" d="M46.8,36.7c-0.6,0.1,0.5,0.9,1,1c1.2,0.3,1.8-0.7,1-1.1c-0.4,0.3-1,0.5-1.4,0C47.2,36.4,47.1,36.7,46.8,36.7z
			"/>
		<g>
			<path class="st2" d="M50.2,35.3c0.3-1.2-0.3-0.3-0.9-0.2c-0.4,0-0.8,0-1-0.1c0,0.2-0.1,0.3-0.2,0.4C48.6,35.6,50,36,50.2,35.3z"
				/>
			<path class="st2" d="M48.1,35.4L48.1,35.4L48.1,35.4z"/>
		</g>
		<path class="st2" d="M50,32.3c-0.2,0.8-0.8,1-1.5,1c0,0.1,0,0.3-0.1,0.4c0.4,0.4,2.3-0.3,2.1-0.9C50.7,32.3,50.3,31.9,50,32.3z"/>
		<path class="st2" d="M48.8,36.2c0.5,0,0.7,0.5,0.7,0.8c1.9-1.9,3.2-4.2,2.8-6.9l0,0c0-0.4-0.2-0.8-0.2-1c-0.1,0.8-1.1,2.1-1.3,2.7
			c1.1,0.8-0.3,2.3-1.3,2.3c-0.4,0.1-0.6,0-0.9,0c-0.1,0.1-0.2,0.5,0.1,0.5c0.2,0,0.9,0.1,1.1-0.2c0.1-0.2,0.4-0.4,0.7-0.3
			c1.2,1.7-1.1,2.4-2.4,1.6c-0.3,0.2-0.7,0.7,0.1,0.8C48.4,36.5,48.4,36.2,48.8,36.2z"/>
		<path class="st2" d="M55.3,30.7c0-0.6-0.2-1.3-0.3-1.6c-0.2,0.2-1,1.1-1.2,1.3c0,0.6-0.1,1.8-0.1,2.2
			C54.3,32.4,55.3,31.3,55.3,30.7z"/>
		<path class="st2" d="M56.3,31.5c0.5-1.1,0.1-2.4-0.3-3.4c-0.1,0.1-0.5,0.5-0.6,0.9c0.9,1.5,0,3.2-1.5,4.1l0,0
			c-0.4,0.2-0.6,1.1-0.7,1.2C53.9,33.8,55.7,32.4,56.3,31.5z"/>
		<path class="st2" d="M54.6,33.7c-0.8,0.5-1.9,1.3-2.5,2.2l0,0c4.5-3,6.2-2.8,4.6-8.8C55.4,29.1,59.1,30.4,54.6,33.7z"/>
		<path class="st2" d="M68.1,29.4c-1-3-0.4-8.8-2.8-11.2C66.3,20,66.1,30.2,68.1,29.4z"/>
		<path class="st2" d="M66.6,29.5c0.2-0.1,0.3-0.1,0.4-0.1c-1.1-2.8-1-6.6-1.6-9.2C63.9,22.1,65.3,28.6,66.6,29.5z"/>
		<path class="st2" d="M64.4,23.7c-1.5,1.3,0.3,5.7,0.9,6.8c0.2-0.1,0.6-0.4,0.7-0.4c-0.1-0.6-1.5-3.2-1.5-3.9
			C64.5,25.3,64.6,24,64.4,23.7z"/>
		<path class="st2" d="M63.7,29.9c0.2,0.7,0.7,1.7,1,1.8c1.1-0.7-0.2-1.6-0.5-2.8C63.6,26.9,63.5,28.5,63.7,29.9z"/>
		<path class="st2" d="M64.6,33.9c0-0.3-0.1-1.4-0.1-1.7c-0.2-0.4-0.6-1-0.8-1.3c-0.3,0.4,0.3,3.1,0.8,3.3
			C64.6,34.2,64.6,34.2,64.6,33.9z"/>
		<path class="st2" d="M63.9,33.9c-0.3-0.5-0.6-1.8-0.7-2.2c-0.6,0.2-0.3,1.6-0.1,2.3C63.8,36.5,64.8,35.4,63.9,33.9z"/>
		<path class="st2" d="M66.6,36.5c-0.2-1.1-0.5-3.7-1.1-4.7c-1.4,0-0.1,3.2,0.4,4C66.2,36.4,66.1,36.8,66.6,36.5z"/>
		<path class="st2" d="M67,35.3c1.3-0.3-0.2-3.4-0.5-4.4l0,0c-0.3-0.8-1-0.3-0.9,0.3c0.5,0.8,0.7,2.1,1,3
			C66.7,34.5,66.5,35.8,67,35.3z"/>
		<path class="st2" d="M66.7,30.1c0.1,1,1,2.5,1,3.5c0.2,1,0.3,0.4,0.8,0.7c0-1.3-0.4-4-1.6-4.5C66.9,29.9,66.7,29.9,66.7,30.1z"/>
		<path class="st2" d="M69.2,31.1c-2.3-3.2-0.4,0.8-0.4,2.1c0.1,0.5-0.2,1.3,0.3,1.6c0.3,0,0.4,0.2,0.6,0.4
			C69.8,34.4,69.7,31.9,69.2,31.1z"/>
		<path class="st2" d="M65.2,35.4L65.2,35.4c-0.5-1.5-0.7,0-0.5,0.7c0.2,0.4,0.7,1.3,0.9,1.5C66.6,37.2,65.4,36.3,65.2,35.4
			L65.2,35.4L65.2,35.4z"/>
		<path class="st2" d="M67,37.3c0.4-0.4,0.1-0.8-0.3-0.5C66.6,36.9,66.5,38,67,37.3z"/>
		<path class="st2" d="M67,36.1c0.1,1.1,1.8-0.6,0.5-0.6C67.2,35.5,67.1,35.7,67,36.1z"/>
		<path class="st2" d="M68.6,35.2c0.2-0.2-0.3-0.5-0.4-0.6c-0.4,0-0.6,0.7-0.2,0.8C68.4,35.6,68.3,35.5,68.6,35.2z"/>
		<path class="st2" d="M69.6,35.7c-0.1-0.5-0.6-0.6-0.8-0.1C68.9,36.1,69.3,36.2,69.6,35.7z"/>
		<path class="st2" d="M68.2,36.3c-0.4,0.3,0.1,0.5,0.3,0.7c0.1,0,0.4-0.2,0.5-0.4C68.8,36.4,68.4,35.9,68.2,36.3z"/>
		<path class="st2" d="M69.8,36.7L69.8,36.7c0.1-1.1-0.9,0,0,0.2C69.8,36.9,69.8,36.8,69.8,36.7z"/>
		<path class="st2" d="M65.2,37.8c-0.3-0.6-1.1-2.8-1.6-1.2C63.5,37.9,66.3,40.9,65.2,37.8L65.2,37.8L65.2,37.8z"/>
		<path class="st2" d="M69,37.9L69,37.9C69,37.9,69,37.9,69,37.9c-1.2-0.6-2.6,0.4-2.3,1.7c-0.5,0.5-0.3-0.9-0.6-0.7
			c-0.7,0.4-0.3,0.8,0.2,1c0.3,0.1,0.6,0.5,0.9,0.4c-1.3-1.3,0.3-2.6,1.7-2.4C68.9,37.9,68.9,37.9,69,37.9L69,37.9L69,37.9L69,37.9z
			"/>
		<path class="st2" d="M65.9,37.9c-0.2,0.1,0,0.7,0.2,0.6C67,38.4,66.7,37.7,65.9,37.9z"/>
		<path class="st2" d="M67.2,37.6C67.2,37.6,67.1,37.6,67.2,37.6c0.2-0.2,0.8-0.2,1.1-0.2C68,36.8,67.4,37.1,67.2,37.6z"/>
		<path class="st2" d="M68.7,37.3c0.5,0.4,0.4,0.2,0.7,0C69.2,37,68.9,37.1,68.7,37.3L68.7,37.3z"/>
		<g>
			<path class="st3" d="M72.9,38.6c-1.2-1.3-2.1-3-3.5-0.8c-0.3,0.7-1.7,0.2-2.1,0.8c-1,0.8,0.6,2.1,1.3,2.2c0.3-1,0.7-1.5,1.1-0.1
				c0.8,0,1.7-1.1,2.4-1.5c-0.1-0.5-1.7,0.1-1.6,0.3c-1.8-0.1,0.4-1.5,0.3-2.5c-0.1,0.5,0.3,0.8,0.7,1.1c0.2,0.3,0.7,0.4,0.3,0.6
				c0,0,0,0,0,0C72.4,39.1,72.8,39.1,72.9,38.6z"/>
		</g>
		<path class="st3" d="M73.9,36.1c-0.6,0-1.4,0-2,0c-1.3,0.7,0.3,0.4,1,0.3c0.4,0,1,0.1,1.2-0.3C74.1,36.1,74,36.1,73.9,36.1
			L73.9,36.1z"/>
		<path class="st3" d="M72.9,36.7c-0.3,0-1.1,0.1-0.8,0.4c0.6,0.3,1.3-0.3,2-0.3l0,0c0.1-0.3-0.5-0.2-0.7-0.2l0,0l0,0l0,0v0.1
			C73.2,36.7,73.1,36.7,72.9,36.7z"/>
		<path class="st3" d="M73.1,37.8L73.1,37.8c0.2-0.2,0.5-0.1,0.6-0.4c0,0-1.3-0.1-1.1,0.3C72.8,38,72.9,38,73.1,37.8z"/>
		<path class="st3" d="M40.8,45.2L40.8,45.2c1-0.6,0.8-2.9,0.1-3.9c-0.3-0.4-0.5-0.1-0.4,0.3C41.2,42.3,40.5,44.6,40.8,45.2z"/>
		<path class="st3" d="M39.8,44.7c0.4,2,1.3-2.8,0.2-3.1C40.1,42.5,40.1,43.7,39.8,44.7z"/>
		<path class="st3" d="M41.9,48.1c0.3-0.4,0.8-1.1,1-1.6c-0.5-0.3-1.2,0.8-1.4,1.2c-1.2-1.2,1.4-2.6-1.7-2.2
			c-0.1,0.6-0.6,0.9-0.5-0.3c0.1-0.9,1-4.1-0.2-1.7C37.7,46.4,37.6,51.7,41.9,48.1z"/>
		<path class="st3" d="M42.2,45.6L42.2,45.6c0.2,0.2,0.5,0.8,0.8,0.7c-0.4-0.5-1.1-3.2-1.6-1.3c-0.1,0.2,0.2,0.3,0.3,0.4
			C42,44.1,42.1,45.2,42.2,45.6z"/>
		<path class="st4" d="M41.9,45.9c-0.2,0-0.2,0.7-0.2,0.8C41.9,46.5,42.5,46.1,41.9,45.9C41.9,45.9,41.9,45.9,41.9,45.9z"/>
		<path class="st4" d="M43,47.2c-1.6,2.3-1.6,1.4,0.6,3.4C44,49.8,43.6,47.7,43,47.2L43,47.2L43,47.2z"/>
		<path class="st2" d="M51.2,52.8C51.2,52.9,51.2,52.9,51.2,52.8c0.2-0.1,0.4-1.8,0.2-2.1c-0.5-0.1-0.6-0.6-0.9-0.9
			c-0.4-0.6-1.2-0.5-1.5-1.5c-0.6-0.8-2.4-1.4-2.9-2.4c-0.7-1-1.4-0.9-2.4-1.1c1.9,2.5,5.3,4.7,4.4,8C50.2,51.6,48.4,48.4,51.2,52.8
			z"/>
		<path class="st2" d="M50.5,52.3c-0.2-0.3-0.6-0.7-0.8-0.9c-0.2,0.6-1,2.3-2,2.1c0.2-1,0.5-3-0.3-4c-1.3-1.4-3.4-3.9-4.6-5.1
			c0.5,2.7,6.8,6.7,3.6,9.4c0.2,0.5,3.1,1.2,2.4-0.3c0-0.1,0.1-0.1,0.2-0.1c0.5,0,0.3-0.9,0.6-1c0.3-0.1,0.5,0.7,0.6,0.8
			C50.7,54,50.9,53,50.5,52.3z"/>
		<path class="st2" d="M42,52.3c0.1,3.2,2.1-0.4,3-1c1.2-1.8-0.4-3.3-1.5-4.7c-0.3,0.5,0.5,1,0.6,1.5c0.6,1.9-0.2,3.2-1.9,3.9l0,0v0
			C42.1,52.1,42,52.1,42,52.3z"/>
		<path class="st2" d="M44.6,52.6c0.8-0.8,1.6-1.8,1.3-2.8c-0.2-0.1-0.1-0.1-0.2,0.1c0,1.7-1.8,3.1-2.9,4.2
			c-1.2,0.6-1.1-1.7-1.3-2.2c-0.5,0.9,0.2,2.7,1.2,2.6c0.1-0.1,0.5-0.4,1.5-1.5l0,0C44.3,52.9,44.5,52.8,44.6,52.6z"/>
		<path class="st2" d="M44.9,53.3c-0.4,0.3,1,1.7,2,1.9c1.2,0.1,2-0.1,2.3-0.5c-0.1-0.1-0.3-0.2-0.5-0.1c-0.9,0.6-2.6,0-3-0.9
			c-0.1-0.4,0.5-0.3,0.7-0.6c0.5-0.5,0.3-2.2-0.2-2.5C45.9,51.9,47.1,53.7,44.9,53.3z"/>
		<path class="st2" d="M45.9,52.3c0-0.2,0-0.4,0-0.7l0,0C45.6,52.1,45.6,52.1,45.9,52.3z"/>
		<path class="st2" d="M50,48.9c0.9,0,2-0.7,2.4-1.3c-0.8,0.4-1.7,0.8-2.9,0.7C49.6,48.6,49.6,48.9,50,48.9z"/>
		<path class="st2" d="M54.7,42.5c0,0.4-0.1,1.2-0.1,1.5c0,0.4-0.4,0.6-0.2,0.8C55.4,45,55.4,40.5,54.7,42.5z"/>
		<path class="st2" d="M56,45.6c0.6-0.6,0.8-2.7-0.4-2.7c0.1,0.5-0.2,1.7-0.5,2.1C55.6,44.8,56.1,44.7,56,45.6z"/>
		<path class="st2" d="M56.2,46L56.2,46c0.9,0.9,1.7-3.5,0.5-3.3C56.8,43.6,57,45.1,56.2,46z"/>
		<path class="st2" d="M58.2,45.4c1.7,0.1,1.7-0.8,1.9-2c0.4-0.4-0.4-1.3-0.6-1.4c-0.3,0.1-1.5,0.8-1.8,0.8c-0.3,0.3,0,2.1-0.2,2.5
			c-0.1,0.2,0.2,0.1,0.4,0.1v0v0C58,45.4,58.1,45.4,58.2,45.4z"/>
		<path class="st2" d="M61.7,43.2c-0.2-0.7-1.6-2.6-1.8-1.5c0.5,0.5,0.8,1.2,0.8,1.9c0.4,0.3,0.7,1.2,0.8,1.8
			C61.8,45.3,61.9,43.8,61.7,43.2z"/>
		<path class="st2" d="M61.9,46c2.5,0.7,2.2-3,1.5-4.3c-0.6-1-2.2-2.1-2.8-3c-0.4,2.7,0.7,2.3,1.7,4.3c0.2,0.4,0.1,1.5,0,1.8
			C62.2,45.3,61.5,45.9,61.9,46z"/>
		<path class="st2" d="M57,46.2c-0.5,0.8,2.5,2,2.6,2.2c1.7,0.3,1.8-4,0.8-4.4C60.1,46.9,58,45.1,57,46.2L57,46.2z"/>
		<path class="st2" d="M63.8,45.9c2.5,0.5,3.6-0.7,3.2-3c-0.5-0.1-2.1-0.1-2.6-0.4C64.3,42.8,64.8,45.2,63.8,45.9z"/>
		<path class="st2" d="M67,45.9c1.4,0.4,1.7-2.4,1.2-3.1c-0.2,0.1-0.5,0.2-0.8,0.2C67.8,43.8,67.2,45.5,67,45.9z"/>
		<path class="st2" d="M69.3,44.7c0.1,0.1,0.2,0.2,0.2,0.2c0.8-0.8,0.5-3.1-0.2-3.8c-0.1,0.3-0.3,0.9-0.6,1.3c0,0,0,0,0,0
			C68.9,43,68.6,44.2,69.3,44.7L69.3,44.7L69.3,44.7z"/>
		<path class="st2" d="M68.3,47.7c0.3,0.2,0.8,0.7,1.1,0.9c1.1-0.4,0.1-3.8-0.6-3.6c0,0.5-0.3,1.4-1.7,1.5
			C67.2,46.7,67.8,47.4,68.3,47.7z"/>
		<path class="st4" d="M73.7,50.6c-1.2-0.8-2.3-1.3-3.3-2.9C69.2,50.3,71.8,51.3,73.7,50.6z"/>
		<path class="st2" d="M75.8,52.1c-1.3-1.3-4.4-0.4-5.6-1.4C69.8,52.4,77.8,55.1,75.8,52.1z"/>
		<path class="st2" d="M70,51.9c0.5,1.1,2.5,1.9,4,2.3c2.8,0.8,4.6-1.6,1.7-2.8c2.4,1.9-0.2,3.1-2.3,2.2C72.6,53.3,70.3,52,70,51.9
			l0.1-0.1L70,51.9C70,51.8,70,51.9,70,51.9z"/>
		<path class="st4" d="M74.8,55c-0.8,0.1-4.7-1.7-5.1-2.4c-0.2-0.2-0.4-0.1-0.4,0.2c1.9,1.4,5.6,6,7.9,3.3c0.7-0.7,0.3-1.5-0.7-1.3
			l0,0l0,0C76,55,75.5,55.2,74.8,55z"/>
		<path class="st2" d="M79.9,53.6c0.3,0,0.4,0,0.4,0c-0.2-1.2-2.2-0.7-2.7,0C77.8,53.9,79.4,53.4,79.9,53.6z"/>
		<path class="st2" d="M77.6,52.8c0.5-0.1,1.3-0.4,1.9-0.4C78.9,51.4,77.7,52,77.6,52.8L77.6,52.8C77.6,52.7,77.6,52.8,77.6,52.8z"
			/>
		<path class="st2" d="M78.5,51.3c-0.5-0.7-1.1,0.3-1.4,0.6C77.2,52.3,78.5,51.6,78.5,51.3z"/>
		<path class="st2" d="M76.6,51.3C76.6,51.3,76.5,51.3,76.6,51.3c0.2,0.3,0.9-0.3,0.9-0.4C77.1,50.6,76.9,51.1,76.6,51.3z"/>
		<path class="st2" d="M75.9,51c0.2,0.1,0.7-0.2,0.7-0.4c0,0-0.1,0-0.3-0.1C76.3,50.6,76,51.1,75.9,51L75.9,51z"/>
		<path class="st2" d="M75.9,50.4c-0.3-0.1-0.5,0.4-0.6,0.4c0,0,0,0,0,0c0,0,0,0,0,0l0,0C75.5,50.8,75.9,50.6,75.9,50.4
			C75.9,50.4,75.9,50.4,75.9,50.4z"/>
		<path class="st2" d="M74.8,50.6c0.2,0,0.5-0.2,0.5-0.4C75,50.2,74.9,50.3,74.8,50.6z"/>
		<path class="st2" d="M75.9,49.8c1.8,1,2.3-1.1,1.2-2.3c-0.8-1-2.2-1.2-2.2-2.6c0-1.2,1.5-1.4,1.1-2.4c-0.2-0.3-0.8-0.9-1.2-1.1
			c-0.8,0.5-0.7,2.2-0.4,2.8c-0.3-0.1-0.9-0.6-0.8-1.2c-1.3,1.2,0.7,3.4-0.5,2.7c-0.2,3.8,3.8,0.9,2.8,3.7
			C75.8,49.4,75.7,49.7,75.9,49.8z"/>
		<path class="st2" d="M78.9,47.7c-4.4-4.1,0.1-4.1-1.9-7c-1.6-1.3,1.3-3.7-0.8-4.3c1.4,1.6-1.6,3.1-0.9,4.7c1.8,1.8,1.4,2,0.2,3.9
			c0.6,1.7,3.7,2.6,2.5,4.9c-0.3,0.9,0.6,0,0.9-0.5C79.1,49,79.2,48.2,78.9,47.7z"/>
		<path class="st2" d="M77.2,44.1c-0.2,0.9,0.8,2.4,1.6,2.8c0-0.5-2.4-3.3-0.7-3.2C79.1,43.4,77.1,42.6,77.2,44.1z"/>
		<path class="st2" d="M79.7,51.7L79.7,51.7L79.7,51.7L79.7,51.7c1.8,0.9,3.6-4.7,1.2-5.4c-1,0.1-0.2-1.4-0.5-2
			c-1.5,0.3,0-1.1-0.1-2c0-1-0.3-0.6-0.9-0.5c-0.2-0.4,0-1-0.2-1.5c-0.7,0.7-0.4,0-0.8-0.5c-0.8-0.5-0.7-1.4-0.8-2.1
			c-1.7,1.7,0.9,3,0.5,4.8c-0.2,0.4,0.2,0.3,0.5,0.6c0.4,0.5-0.1,1.2-0.7,0.8l0,0c-0.2,0.9,0.8,1.9,1.3,2.7c0.7,0.3,1.4,0.5,1.6,1.5
			c0.4,1-0.3,2.6-1.2,3.3C79.5,51.4,79.6,51.7,79.7,51.7z"/>
		<path class="st2" d="M79.5,48.7c0,0.8-0.3,1.3-1,1.9l0,0c0.7,0.2,2-1.4,1.4-2C79.6,48.3,79.4,48.3,79.5,48.7z"/>
		<path class="st2" d="M79.2,51c1.2-0.3,2.2-3.5,0.4-3.7c-0.7,0.2,0.1,1.1,0.4,0.6c0-0.1,0-0.1,0.1-0.2c0.3,0.2,0,0.6,0.2,0.9
			C80.6,49.2,79.6,50.8,79.2,51C79.1,50.9,79.1,50.9,79.2,51C79.2,50.9,79.2,51,79.2,51z"/>
		<path class="st2" d="M66.1,47.3c0-0.2,0-0.8-0.1-0.8c-0.8,0.2-3.2,0.2-3.8,0.1c-0.4-0.1-0.6-0.1-0.6,0.3c-0.1,0.4-0.4,1.4-1.1,2
			c0.8,0.6,3.1,1.1,3.1-0.8c0.3,0,1,0.9,1.4,1.3C65.7,49.1,66,48.4,66.1,47.3z"/>
		<path class="st2" d="M50.7,49.3c0.3,1,1.9,0,2.2-0.4c-0.1-0.1-0.4-0.6-0.6-0.6C52,48.6,51.2,49.1,50.7,49.3z"/>
		<path class="st2" d="M53.4,46.5c-0.3,0.2,0.2,0.5,0.3,0.5c0.2-0.2,0.6-0.3,0.2-0.6l0,0C53.8,46,53.5,46.4,53.4,46.5z"/>
		<path class="st2" d="M55.1,47.2c-0.2-0.8-0.9-0.3-1,0.2C54.3,47.8,55.2,47.8,55.1,47.2z"/>
		<path class="st2" d="M53.8,47.4c-0.6,0.7,0.9,1,1.4,0.7c0.8-0.3,0.6-1.7-0.1-1.9c-0.2,0-0.2,0.2,0,0.4
			C56.2,47.6,54.3,48.7,53.8,47.4L53.8,47.4L53.8,47.4z"/>
		<path class="st2" d="M55.4,45.4c-0.1,0-0.4,0-0.6,0c0,0.1,0.4,0.4,0.5,0.4C55.4,45.8,55.6,45.3,55.4,45.4z"/>
		<path class="st2" d="M54.2,46.1c0.1,0.2,0.2,0.2,0.2,0.2C55.1,45.9,54.4,45.4,54.2,46.1z"/>
		<path class="st2" d="M54.1,45.6c0.1-0.1,0.3-0.2,0.1-0.3c-0.2-0.3-0.3,0.2-0.4,0.3l0,0v0l0,0C53.9,45.8,54,45.8,54.1,45.6z"/>
		<path class="st2" d="M52.9,47.1c-0.4,0.1,0.3,0.6,0.5,0.7c0.1-0.1,0.1-0.4,0.1-0.5C53.4,47.1,53.1,46.8,52.9,47.1z"/>
		<path class="st2" d="M52.8,48.1c0.1,0.2,0.3,0.6,0.6,0.5c0.3-0.1,0.3-0.3,0.2-0.5c0,0,0,0,0,0C53.2,48.3,52.9,47.8,52.8,48.1z"/>
		<path class="st2" d="M53.6,48.9c-0.7,0.6-1.6,1.2-2.5,1.3c0.6,0.8,2.5-0.9,2.8-1.1C53.9,48.9,53.7,48.8,53.6,48.9
			C53.7,48.8,53.7,48.8,53.6,48.9z"/>
		<path class="st2" d="M60.7,54.3c0.6-0.1,0.8-0.5,1-0.8c-1.2-0.5-2.3-1.8-3.4-2.5l0,0c-1.3-0.8-2.5-2.1-3.9-2.4
			c1.6,1.5,6.1,3,5.5,5.8C59.9,54.4,60.1,54.4,60.7,54.3z"/>
		<path class="st2" d="M62.9,52.4c0.8-1.7-0.8-1.4-2.1-1.9c-1.6-1-3.2-2.3-4.7-3.3c-0.1,0.5,1.6,1.3,2.2,1.9c1.3,1,2.4,1.9,3.9,2.1
			c0.9,0.6,0,2-0.9,1.6c-1.9-1.4-4-3.3-6.1-4.3c0,0,0,0,0,0c1.5,1.1,3.4,2.4,4.9,3.5C61,52.9,62.1,53.7,62.9,52.4z"/>
		<path class="st2" d="M61.1,51.4c-1.6-0.7-3.1-2.1-4.6-3c-0.2-0.2-0.5-0.5-0.6-0.1c1.7,1.3,4.1,3,5.8,4.2c0.5,0,0.8-1.1,0.1-1.1
			C61.7,51.4,61.4,51.5,61.1,51.4z"/>
		<path class="st2" d="M64.1,51c0.3-0.3,0.3-1.7-0.2-2c-2,2.9-5.8-1.6-7.8-2.4c1,1.3,3.3,2.3,4.6,3.4c0.9,0.8,2.3,0.1,2.8,1.3l0,0
			C63.6,51.4,63.9,51.3,64.1,51z"/>
		<path class="st2" d="M67.4,48.9c0.1-0.4-0.6-0.6-0.9-0.8c-0.1,0.4-0.3,1-0.5,1.4c-0.2,0.4-1.1,0.4-1.1,0.7
			C65.5,50.6,67.3,49.5,67.4,48.9z"/>
		<path class="st2" d="M69.3,49c-0.7-0.8-2.2-1.1-2.6-2.2c0,0-0.1,0-0.1-0.1c-0.3,0.9,0.6,1.3,1.4,1.7c2.2,0.9,1.5,3.7-0.3,4.3
			c-0.3,0.1,0,0.3,0.1,0.5c1.3,1.6-0.5,4.2-2.4,2.8c-0.8,1.7-1.1,1.3-2.6,1.5c-0.3,0.4-0.5,0.8-1.1,0.9c-1.7,0.4-2.6-2-3.9-1.7
			c2.5,1.3,3,3.5,5.5,0.9c2.2,0.3,1.6-1.3,2.8-1.1c2.6,0.3,2.7-2,2-3.7C69.6,52.2,70.3,50.5,69.3,49z"/>
		<path class="st2" d="M53.8,52.1c1-0.1,0.4-2.1,0-2.2c-0.5,0.1-1.1,0.7-1.8,0.9c0,0.3,0,1.1,0,1.3C52.2,52.2,53.4,52.2,53.8,52.1z"
			/>
		<path class="st2" d="M55.8,52.5c1.1-0.6,2-1.2,1-1.6c-0.6-0.3-2-1.6-2.5-1.5c0,0.1-0.2,0.2-0.2,0.2c0.7,0.5,1.2,2.7,0,2.9
			C54.3,52.6,55,52.9,55.8,52.5z"/>
		<path class="st2" d="M59.1,52.8c-0.3-0.4-0.9-0.9-1.3-1.2c-1.1,1-1.6,1.3-0.9,2.9c0.4,0.8,0.3,1.8,0.9,2c0.9,0,1.9-0.9,1.9-1.6
			c-0.4,0.1-1.1-0.1-0.5-0.5C59.5,54.1,59.4,53.3,59.1,52.8z"/>
		<path class="st2" d="M59.1,56.6c0,0-0.1,0-0.1,0.1c1.3,0.9,1.6,1.8,2.4-0.4c0.1-1.9,0.1-1.4-1.3-1.4C60,55.3,59.9,56.1,59.1,56.6z
			"/>
		<path class="st2" d="M61,57.8L61,57.8c-0.1,0-0.1,0.1-0.2,0.1c1.1,0.7,2.6-1.1,1.9-2.1c-0.4-0.4,0-2.4-0.9-1.6
			C61.6,55.1,62.3,57,61,57.8z"/>
		<path class="st2" d="M63.6,57.1L63.6,57.1c1.4,0,1.9-1.5,0.9-2.3c-0.3-0.1-1.2,0-1.5,0c-0.1,0.5,0.8,1.9,0.3,2.3
			C63.3,57,63.3,57.1,63.6,57.1z"/>
		<path class="st2" d="M65.7,55.5c2.6,2,3.4-3.3-0.5-2.2c0,0.2,0,0.8-0.2,1.1C65.1,54.7,65.5,55.2,65.7,55.5z"/>
		<path class="st2" d="M68,50.8C67.6,51,67.2,51,66.8,51c-0.5,0-1.3,0-2.1,1c0.1,0.1,0.4,0.4,0.4,0.8c1.8,0.5,4.8-1.1,3.6-3.3
			C68.8,49.9,68.5,50.6,68,50.8z"/>
		<path class="st2" d="M67.1,50.1c-0.7,0.6-2.5,0.2-2.6,1.4c0.7-0.7,2.5-0.8,3.4-1.3c0.4-0.4,0.6-1.1,0.1-1.2
			C67.6,49.2,67.5,49.7,67.1,50.1z"/>
		<path class="st2" d="M62.9,53.1c-0.1,0.5,0.8,0.7,1.2,0.7C64.4,52.8,63.6,51.8,62.9,53.1z"/>
		<path class="st2" d="M62.8,53.8c-0.1-0.1-0.3-0.3-0.4-0.3c-0.3,0.9,1.7,1.1,2.1,0.9c0.6-0.6,0.1-2.2-0.6-2.5
			c-0.5,0.1,0.4,0.5,0.4,0.9C65,54.1,63.7,54.6,62.8,53.8z"/>
		<g>
			<path class="st3" d="M41.1,26c0.1-0.2-0.2-0.6-0.4-0.4C40.7,25.7,41,25.9,41.1,26z"/>
		</g>
		<path class="st2" d="M54.4,53.3c-0.3,0-0.7-0.5-1-0.6c-0.5,0-1.2,0.1-1.6-0.2c0,0.1-0.2,0.4-0.3,0.6l0,0c0.3,0.8,2.7,0.5,3,0.2
			C54.6,53.3,54.5,53.3,54.4,53.3L54.4,53.3L54.4,53.3L54.4,53.3z"/>
		<path class="st2" d="M49.5,54c0.5,0.5,1.7,1.6,3.6,1.8c2.1-0.2,3.5-0.7,3.2-2.1c-0.1-0.7-0.4-0.8-0.9-0.3c-0.9,1.3-3,0.8-4.2,0.2
			C50.9,53.8,50.1,54.1,49.5,54z"/>
		<path class="st2" d="M56.7,56.1c0-0.3-0.2-0.8-0.4-0.9c-0.3,0.4-1.8,1.1-2.7,1.3C54,57.5,56.6,56.9,56.7,56.1z"/>
		<path class="st2" d="M54.7,57.9c0.7,0,3.1-0.1,2.3-1.3c-0.2,0.2-1.2,0.8-2.8,0.7C54.2,57.6,54.4,57.9,54.7,57.9z"/>
		<path class="st2" d="M57.2,59.2c0.3,0.6,2.5,0.4,2.7-0.2c0.1-0.6-1.5-1.3-2-1.7C58,58.1,58,59.1,57.2,59.2z"/>
		<path class="st4" d="M60.2,59.8c0.1,0.5,1,0.9,1.6,1.7c1.3,1.3,2.2,2.4,2.3-0.2c-0.1-0.8-0.7-2.3-1.4-2.4
			C62,59.7,60.9,58.9,60.2,59.8z"/>
		<path class="st2" d="M57.3,58.2c0-0.2-0.1-0.4-0.3-0.3c-0.5,0.4-1.7,0.6-2.3,0.5c-0.3,0.3-0.5,1.5-1.1,1.8
			c0.8,0.2,2.4,0.1,3.1-0.5c-0.2-0.3-0.7-0.8-0.5-1C56.5,58.5,57.4,58.9,57.3,58.2z"/>
		<path class="st2" d="M56.2,61.2c-0.3-0.4-0.9-0.4-1.1-0.1c0.7,0.3,1.3,1.1,1.4,2c0.3,2.3,2.7,3.5,4.8,2.9l0,0.1v-0.1
			c0,0,0.1,0,0.1,0c0.1-0.6,0.1-0.8-0.6-0.8c-0.6,0.2-2.4-1-1.1-1c2.2,0,0.4-3-0.7-3.2c0.3,2.5-2,0.3-2.5-0.1c0.5,1.7,2,3.9,3.6,4.7
			C58.3,66.2,56.9,62.5,56.2,61.2z"/>
		<path class="st2" d="M64.6,65.5c1.1,2.1,3-2.3,2.6-3.5c-0.6-1.7-1.7-4.6-3.5-3.8c-0.3,0.1-0.2,0.2,0,0.3
			C65.8,60.1,63.7,63.6,64.6,65.5L64.6,65.5L64.6,65.5z"/>
		<path class="st2" d="M67.7,65.1c1-2.4,1-4.1-2-7c4.9,5.5-1.5,12.2-1.7,5.9C62.9,67.5,66,68.6,67.7,65.1z"/>
		<path class="st4" d="M70.1,62.7c-0.1-2.5-1.6-2.9-3.1-4c1.3,1.6,2,3.5,1.5,5.6C69,64.3,70.1,63.6,70.1,62.7z"/>
		<path class="st2" d="M75.3,59.8L75.3,59.8c0-0.2,1-0.8,0.9-2c-2.7,0.4-4.7-3-6.8-4c-0.4,1.5,5.3,4.1,5.8,6
			c0.3,1.3-0.5,2.3-1.9,2.1c-2.5-0.9-4-4.4-7-4.8l0,0c1.5,1.6,4.3,2.7,4.8,5.5c0.3,0.1,1.5,0.2,2.1-0.6
			C74.6,63.1,77.1,61.7,75.3,59.8z"/>
		<path class="st2" d="M72.7,58.8c-0.6-0.1-3.4-3.7-4.2-2.4c0.1,0.5,3,2.5,3.6,3.3C74.1,61.8,74.7,60.2,72.7,58.8L72.7,58.8
			L72.7,58.8z"/>
		<path class="st2" d="M67.7,57c0.9,0.6,4.4,4,5.3,4.4c1.3,0.6,2.4-0.7,1.6-1.8l0,0c-0.1-0.7-6.8-6.1-5-3.9c1,0.9,3.3,2.6,4.3,3.5
			c0.9,0.8,1,2.3-0.4,2.1c-0.6-0.1-2-1.4-2.5-2C69.9,58.5,68.4,56.5,67.7,57z"/>
		<path class="st2" d="M76.2,59.7L76.2,59.7c0.2,0,0.9-1.6,0.4-2c0.2,0.9-0.6,1.7-0.8,1.9c1.4,1.8-0.2,3.9-2.3,3
			c-0.7-0.1-1,0.7-2,0.6c0.9,0.3,1.3-0.7,2-0.3c0.5,0.5,2-0.1,2.6,0C76.2,62.6,76.7,59.8,76.2,59.7z"/>
		<path class="st2" d="M78.3,61.2c-0.2-0.4-0.2-0.7-0.1-0.8c1.6-1.1-0.3-3,0.2-4.5c-2.1,1-0.6,2.7-1.7,4c0.7,1.1-0.5,2.7-0.1,3.8
			c-0.8-0.4-2.4,0.5-3.2-0.1c-0.7,0.1-1.8,0.7-2.4,0.2c-0.7,0-0.9,0.8-1.8,1c3.5,0.5,3.2,3.1,5.7-0.4c0.3,0,0.8,0.7,1.3,0.8
			c0.8,0.1,1.1-0.4,1.8-0.3C78.1,63.9,78.8,61.9,78.3,61.2z"/>
		<path class="st2" d="M79.2,61.8c-0.4-0.7,0.4-1.9,0.2-2.6c0-1.2-0.8-2.1-0.3-3.4c-0.7,1.1,1.1,3.4-0.1,4.4
			c-0.2,0.2-0.4,0.5-0.3,0.8c0.5,1.4-0.3,2.8-0.4,4.1c-0.9,0.2-2.5,0.6-3.3-0.4c-2,4.3-4.4-1-7.1,1c2.7-0.8,5.2,3,7.1-0.4
			c0.9,1.3,2.9,0.2,3.8,0.2C78.2,64,80,63,79.2,61.8z"/>
		<path class="st2" d="M78.8,66.1c0.9,1.2,4,1.9,5,0.9c-0.8-2-2.3-1.6-3.9-2.2c-1-0.6-0.5,0.7-0.5,1.4C79.2,66.1,79,66.1,78.8,66.1z
			"/>
		<path class="st2" d="M78.8,66.6c-0.2-0.3-0.7-0.5-1-0.3c0.7,1.5,5.8,3.3,7.5,1.2c-0.8-2.1-1.6-3.4-4.1-3.2c-0.7,0-1.2-0.9-1.7-0.2
			c1.7,0.9,4.2,0.6,4.7,3C83.1,68.5,79.7,67.9,78.8,66.6z"/>
		<path class="st2" d="M85.8,66.5c-0.8-3.6-3.5-2.1-5.9-3.2l0,0c3.4,2,4-1.1,6,4.3c-1.5,2.1-6.5,1.6-7.7-0.4
			c-0.3-0.3-0.8-0.9-1.3-0.8c2.4,2.5,6.3,4.4,9.5,1.3C86.2,67.5,85.9,67,85.8,66.5z"/>
		<path class="st2" d="M80,62.8c0.5-0.1,1-0.5,0.3-0.6C80.2,62.2,79.8,62.8,80,62.8z"/>
		<path class="st2" d="M81.6,62.9c0.1-0.1,0.1-0.3,0-0.3c-0.4-0.1-0.5,0.1-0.8,0.5C80.7,63.6,81.5,63.1,81.6,62.9z"/>
		<path class="st2" d="M82.3,63c-0.2,0.1-0.5,0.3-0.6,0.4c0.2,0.5,1.9-0.4,2.1-0.6c-0.1,0-0.4-0.1-0.6-0.1
			C82.8,62.7,82.5,62.9,82.3,63z"/>
		<path class="st2" d="M85.5,61.9c-0.2,0.4-1.8,1.6-1.9,1.5c0.6,0.5,2.9-0.8,2.1-1.7C85.6,61.7,85.6,61.8,85.5,61.9z"/>
		<path class="st2" d="M85.8,63.2c-0.2,0.2-1.1,0.6-1.2,0.7c0.3,0.8,2.1-0.3,1.5-1l0,0C86.1,62.9,85.9,63.1,85.8,63.2z"/>
		<path class="st2" d="M87,64.9c0.2,0,0.6,0.1,0.8,0.1C87,63.2,83.7,65.2,87,64.9z"/>
		<path class="st2" d="M87.9,65.4c-0.2,0-1.5,0-1.9,0c-0.4,1.3,2.2,0.5,2.7,0.9C88.7,65.9,88.2,65.5,87.9,65.4z"/>
		<path class="st2" d="M88,66.6c-0.8,0.1-2.4-0.4-1.1,1c0.7,0.1,1.6,0.4,2.1,0.7C89.1,67.7,88.9,66.5,88,66.6z"/>
		<path class="st2" d="M86.3,68.4c0.7,0.1,1.7,2,2.1,0.7C89.2,68.4,86.6,67.8,86.3,68.4z"/>
		<path class="st2" d="M87.4,70c-0.3-0.4-1.7-2-1.8-0.9C86,69.6,86.8,70.6,87.4,70z"/>
		<path class="st2" d="M85.6,69.6L85.6,69.6c-0.3-0.4-0.8-0.6-1.1-0.3c0.4,0.3,1,0.9,1.5,0.9C86.1,70.2,85.7,69.8,85.6,69.6z"/>
		<path class="st2" d="M85.1,71.6c0.7-1.1-1.2-2.7-1.8-1.8c0.5,0.6,1.5,1.2,1.7,2C85,71.8,85.1,71.7,85.1,71.6z"/>
		<path class="st2" d="M84.6,72c0-0.3-0.6-0.9-0.9-1.2c-0.5-0.4-0.8-1.1-1.7-0.9C82.1,70.9,83.4,73.3,84.6,72z"/>
		<path class="st2" d="M80.8,69.5C80.7,69.5,80.7,69.5,80.8,69.5C81.1,71.7,82.9,70.3,80.8,69.5z"/>
		<path class="st2" d="M80.2,69.6c0-0.4-0.4-0.6-1.1-0.8c-0.3,0.4,0.6,1.4,1.1,1.3C80.3,70.1,80.2,69.7,80.2,69.6z"/>
		<path class="st2" d="M78.4,69.2c0.1,0.1,0.3,0.2,0.4,0.2c0.1-0.7-0.2-1.2-0.7-1.3C78,68.4,77.9,68.9,78.4,69.2z"/>
		<path class="st2" d="M77.2,67.4c-0.4-0.1-0.3,1,0,1.2C77.9,69.2,77.6,67.6,77.2,67.4z"/>
		<path class="st2" d="M76.1,67c0.3,2.4,1.1-0.3,0.1-0.5C76.1,66.4,76,66.9,76.1,67z"/>
		<path class="st2" d="M75.3,67.1c0.5,0.5,0.3-0.8,0.3-0.7c0,0-0.6-0.1-0.8-0.2C74.7,66.4,75.2,67,75.3,67.1z"/>
		<path class="st2" d="M84.1,72.7c-0.7,0.1-0.8-0.1-1.3,0.1c1.7,0.9,2.9-0.7,3.5-2c4.8,0.2,4.2-6.2,0.5-7.3c0.5-0.9-0.1-2.7-1.4-2.4
			c1,0.5,1.3,1.6,1.1,2.5c3.8,1.7,4.1,7.3-0.9,7.1C85.4,72.1,85.5,72.2,84.1,72.7z"/>
		<path class="st2" d="M87.9,58.5c-0.3-1.2-1.7-2.1-2.8-1.4c1.5-0.1,1.8,2.5,1.1,3.4c0.3,0.2,1.3,0.6,1.2,1.1
			C87.7,61.3,88.4,60.5,87.9,58.5z"/>
		<path class="st2" d="M88.7,62.9c0.1-0.6,0-1.2-0.1-1.4c-0.6,0.4-0.9,1.1-1.1,1.4C87.9,63.3,88.7,63.9,88.7,62.9z"/>
		<path class="st2" d="M95.1,57.8c1.4,1.1,4.5-0.6,4.6-2.1c-3.3,2-5.2-6.4-10.2-2.2c-1,1.3-2.4,3-1.2,3.8c0.4-3.7,4.3-5.3,6-2.2
			C96.1,55.7,93.4,57.2,95.1,57.8z"/>
		<path class="st2" d="M92.2,57.1c4.6-4-5.8-5.5-3,4.3c0.2,1.2-0.7,3.7,0.5,3.8c1.1-2.6-2.1-10.4,2.3-10.7
			C93,55,91.2,56.8,92.2,57.1z"/>
		<path class="st2" d="M93.8,56.8L93.8,56.8c0.4-0.3,0.9-0.8,0.3-1c-0.8,0.3-1,1.7-2.2,2c-0.8-0.1-0.5-1.4-0.3-1.8
			c0.2-0.3,0.3-0.9,0.2-1c-3,1.4-1.1,6.1-1,8.9c0.1,1.4-0.1,1.7-0.3,2c-0.4,0.6,0.1,2.5-0.2,2.8C95.2,66.5,89.3,59.8,93.8,56.8z"/>
		<path class="st2" d="M95,58.5c-0.4,0.1-1.4-0.3-1.3-0.8c-3.7,2.8,2.2,10.8-3.9,12.1c-0.6,0.6-1.2,0.9-1.7,1.1
			C98.9,70.5,91.4,62.4,95,58.5z"/>
		<path class="st2" d="M89.3,71.5c-1,0-1.9,0-2.9-0.1c-0.1,0.2-0.3,0.6-0.5,0.8l0,0c3.7,1.2,10-0.9,9.7-5.7c0-2.4-1.8-4.7-0.8-7
			c-0.8,1.1,0,3.7,0.1,5C95.3,67.9,92.8,71.8,89.3,71.5z"/>
		<path class="st4" d="M81.3,61.8L81.3,61.8c7,1.5,2.1-2.8-1.1-3.3c0.4,0.5-0.2,2-0.5,2.5C80,61.4,80.8,61.5,81.3,61.8L81.3,61.8
			L81.3,61.8z"/>
		<path class="st4" d="M78.6,69.8c-1.5-0.7-3-1.8-4.2-3c-1.3,1.9-3.8-0.7-5.5-0.5C69,67,77.9,70.6,79,70
			C78.9,69.9,78.8,69.9,78.6,69.8z"/>
		<path class="st3" d="M93.9,74.1c-0.7-0.2-0.7-1-1.1-1.5c-0.9-0.7-2.5,0.5-3.7,0.2l0,0c-0.3,0-1.4,0-1.9,0c1.6,0.7,2.5,1.9,3.9,2.9
			c-0.2-0.2-0.4-0.6-0.5-0.9c0.5,0.3,0.9,0.9,1.2,1.1c-0.2-0.3-0.7-0.9-0.9-1.3c0.6,0.4,1.5,1.7,2.1,1.6c-0.3-0.3-1.2-1.1-1.2-1.5
			c0.5-0.6,1.4,2.1,1.9,1.1c0-0.4-2.2-1.9-1.5-2c0.4,0,1.5,1.9,1.9,1.3C94.3,74.9,94.1,74.2,93.9,74.1z"/>
		<path class="st2" d="M62.7,68.4c0,0-0.1,0.4,0,0.6c0.3-0.5,1.1-1.1,1.4-1.5C63.9,67.1,62.7,68.3,62.7,68.4z"/>
		<path class="st2" d="M62.7,67.5c0,0-0.3,0.3-0.2,0.5c0.2-0.1,1.4-1.2,1-1.1l0-0.1v0.1C63.4,66.9,63,67.1,62.7,67.5z"/>
		<path class="st2" d="M63.4,66.2c-0.2-0.2-1.8,0.9-1,1C62.4,67.1,63.2,66.6,63.4,66.2z"/>
		<path class="st2" d="M62.9,65.8c0.1-0.1,0.5-0.3,0.3-0.4C62.4,65.5,61.2,67.1,62.9,65.8z"/>
		<path class="st2" d="M62.9,64.9c-0.4,0.3-0.9,0.4-0.9,0.7C62.2,65.6,63.6,64.7,62.9,64.9z"/>
		<path class="st2" d="M62.2,64.7c0,0.1,1-0.4,1.2-0.6c-0.3-0.1-1,0.3-1,0.3C62.4,64.4,62.2,64.5,62.2,64.7z"/>
		<path class="st2" d="M63.5,63.5c-0.2,0-0.3,0.1-0.4,0.1C63.3,63.7,63.4,63.6,63.5,63.5C63.5,63.5,63.5,63.5,63.5,63.5z"/>
		<path class="st2" d="M52.4,60.7c0.3,0,0.7,0,0.9,0c-0.2-0.4-0.7-0.3-0.9-0.7c-0.1-0.2-0.3-0.4-0.6-0.3c-0.5,0.1-0.4,0.5-0.9,0.5
			c-0.9-0.1-1.3-1.5-2.3-1.1C49.8,60,50.6,61.9,52.4,60.7z"/>
		<path class="st2" d="M53.7,64.9c0.2,1.2,2.5,2.8,2.8,0.8c-0.5-0.7-1.3-1.9-1.2-2.7c-0.8,0.2-1.4-1-0.5-1.4
			c-1.3-1.5-4.3,1.3-5.4-1.1c0.1,1.1,0.3,1.8,1.5,1.9c0.9,0.1,3.1,0.5,1.1,0.8C51.9,64.8,53.9,63.7,53.7,64.9z"/>
		<path class="st2" d="M56.2,64.6c0.5,0.8,0.8,0.9,0.9,0.9c-0.6-0.7-1-1.7-1-2.6c0-0.7-1-1.6-1.3-0.6c0.1,0.5,0.6,0.4,0.8,0.1
			C55.9,62.8,55.5,63.7,56.2,64.6z"/>
		<path class="st2" d="M61.6,67.4c-3.3,2-5.3-1.5-6.6,0.4c0.9-0.2,1.3,0.1,1.8,0.2c-0.3,0-0.6,0.2-0.6,0.5c1.7-0.1,4.4,0.3,5.7-0.6
			C61.7,67.7,61.7,67.4,61.6,67.4z"/>
		<path class="st2" d="M56.8,66.6c0.8,1.3,3.6,0.9,4.7,0.1c-1.2,0.3-2.5,0.6-3.7,0.3c-0.4-0.2-0.7-0.7-0.2-0.6
			C57.7,65.7,56.6,66,56.8,66.6z"/>
		<path class="st2" d="M61,66.5c0.2,0,0.4-0.1,0.4-0.2c-1.1,0.3-2.5,0.3-3.6-0.3c0,0.2,0,0.5,0,0.6C58.7,67.1,60.1,66.7,61,66.5z"/>
		<path class="st2" d="M42,54.7c-0.2,0.1-0.7,1.6-0.3,2C41.6,56,42.6,55,42,54.7L42,54.7L42,54.7C42,54.7,42,54.7,42,54.7z"/>
		<path class="st2" d="M41.7,54.5c0,0-0.1-0.1-0.1-0.1c-0.4,0.2-0.8,1.2-0.5,1.7C41,55.5,41.6,54.8,41.7,54.5z"/>
		<path class="st2" d="M41.2,54.2c0.2-0.2,0.3-0.3,0.3-0.4l0,0c0,0-0.1-0.1-0.2-0.1c-0.5,0.2-0.9,0.9-0.8,1.4
			C40.5,55,40.9,54.5,41.2,54.2z"/>
		<path class="st2" d="M40,54.1c0,0.3,0.1,0.5,0.1,0.5c-0.1-0.6,1-0.9,0.9-1.4C40.6,53.1,40.1,53.2,40,54.1z"/>
		<path class="st2" d="M39.8,53.2c0,0.1,0,0.1,0,0.2c0.2-0.4,0.7-0.5,1.1-0.6C41,52.1,39.8,52.6,39.8,53.2z"/>
		<path class="st2" d="M39.8,52.2c0,0.1,0,0.2,0,0.3c0.3-0.4,0.9-0.3,1.3-0.3C40.9,51.7,39.9,51.7,39.8,52.2z"/>
		<path class="st2" d="M40,51.5c0.3,0,0.8-0.2,1,0C40.8,51.2,40.3,51.1,40,51.5z"/>
		<path class="st2" d="M38.2,57.6c0.6-0.5,3-0.8,2.2-1.7c-0.9,1-2.8,1.6-3.9,0.6c-0.8-0.2-1.1,1.1-0.8,1.5c0.2-0.8,1.4-1.2,1.7-0.3
			C37.6,57.9,37.7,57.9,38.2,57.6z"/>
		<path class="st2" d="M33.4,53.8c1.3-3,3,6,6.7,1.8c-1,0-1.4,1.2-2.8,0.7c-1.7-0.8-1.8-3-3.6-3.4C33.4,52.7,32.7,53.6,33.4,53.8
			C33.4,53.8,33.4,53.8,33.4,53.8z"/>
		<path class="st2" d="M39.6,54.9c-0.9,0.6-2.4,0.9-3.3,0.1c0.8,1.5,2.8,1.1,3.7,0l0,0c0,0,0,0-0.1-0.1l0,0
			C39.9,54.8,39.8,54.8,39.6,54.9z"/>
		<path class="st2" d="M33.4,55c0.7,0.9,1.6,1.1,2.6,1.1c-0.5-0.4-1.7-3.3-2.3-2.1c-0.3,0.7-0.8-0.3-1.2,0.1
			C32.6,54.2,33.2,54.8,33.4,55z"/>
		<path class="st2" d="M30.9,53.7c1.3,1.1,1.7-1.2,2.9-1.2c-0.2-0.4-1.1-1.5-1.6-1c0.4,0,0.7,1.2,0.1,0.9c-0.2,0.4-0.2,0.6-1.2,0.4
			c-0.7-0.2-0.6-0.1-1,0.1c-0.6,0.3-1.3-0.1-1.8-0.5c-0.2,0.9,0.7,0.6,1.2,0.9C29.9,54.1,30.3,54.2,30.9,53.7z"/>
		<path class="st2" d="M32.6,51c1.7,0.6,2.7,3.3,4.5,4c0.6,0.2,2.8-0.1,2.4-1.1c-2.9,1.2-3.6-0.2-5.2-2.4c-0.4-0.8-1.5-0.5-1.9-0.9
			c1.8-0.8,2.9,1.6,3.9,2.7c0.6,0.6,2.1,0.7,2.6,0.3c0.4-0.1,0.7-1.1,0.1-0.7c-0.8,0.8-3.2,0.4-3.2-0.9c1-0.5,0.2-1.3-0.6-1.7
			c-1.3-0.7-3.3-0.8-4,0.7c0.1,0.7-0.8,0.9-1.3,0.8c-0.9,0-1.9-1.5-2.5-0.2c0.9-0.3,1.2,0.4,1.8,0.8c0.3,0.2,0.7,0,1.1-0.1
			c0.6-0.3,1.1,0.4,1.7,0c0.1-0.2,0.3-0.4,0.1-0.5c-0.6-0.1-0.4-0.9,0.3-0.9C32.5,51,32.5,51,32.6,51z"/>
		<g>
			<path class="st7" d="M129.6,54.9h10L128,24.5h-10.4L106,54.9h9.6l1.7-4.9h10.6L129.6,54.9z M119.2,43.5l3.6-11l3.3,11H119.2z"/>
			<rect x="142.9" y="24.5" class="st7" width="9.5" height="30.4"/>
			<path class="st7" d="M180.1,41.4c7.6-1.8,7.2-8.8,7.2-8.8c0-8.6-10.4-8.1-10.4-8.1c-4.6,0-12.7,0-17.3,0v30.4h9.5V42.6
				c3.2-0.5,4.3,2,4.3,2l5.5,10.3h10.7C189.4,54.2,183.1,40.9,180.1,41.4z M173.5,36.7h-4.4v-6.1c2.7,0.6,8-1.8,8.7,2.8
				C177.9,36.8,173.5,36.7,173.5,36.7z"/>
			<polygon class="st7" points="239.1,24.5 226.6,24.5 216.6,36 216.6,24.5 207.1,24.5 207.1,54.9 216.6,54.9 216.6,47.8 
				221.6,42.6 228,54.9 239.6,54.9 228.1,36 			"/>
			<path class="st7" d="M265.1,38.5c4.8-1.2,4.8-6.3,4.8-6.3c0-9.2-11.9-7.6-11.9-7.6c-3.4,0-11.5,0-15,0c0,9.8,0,20.7,0,30.4
				c3.5,0,11.6,0,15,0C273,56.5,275.5,41.5,265.1,38.5z M252.5,30.5c2.5,0.5,7.8-1.7,8.2,2.8c-0.5,4.6-5.7,2.3-8.2,2.9L252.5,30.5
				L252.5,30.5z M258,48.6h-5.5v-6.4c2.8,0.2,8.9-1.1,9.4,3C261.9,48.6,258,48.6,258,48.6z"/>
			<path class="st7" d="M303.1,48.6h-17.7l17.1-17.8v-6.4h-26.9V31h15.3l-16.9,17.7v6.1c0,0,28.9,0.2,29.1,0V48.6z"/>
			<path class="st7" d="M112.6,63.3c-0.1,0.2-0.6,1.3-0.7,1.6c0-1.1-0.2-4-0.3-5.1h-0.9c-0.7,1.2-2,3.7-2.7,5c0-1.5-0.1-3.6-0.2-5
				h-0.8l0.4,6.2h0.9c0.4-0.7,2.3-4.2,2.6-4.9c0,0.9,0.2,4,0.3,4.9h0.9l3.2-6.2h-0.8L112.6,63.3z"/>
			<polygon class="st7" points="120,65.9 120.8,65.9 122.1,59.8 121.3,59.8 			"/>
			<path class="st7" d="M132.1,63.4c-0.1,0.5-0.2,1.1-0.3,1.6c-0.5-1.7-1.5-3.6-2.2-5.2h-0.8l-1.3,6.2h0.8c0.2-1,0.9-4.3,1-5.2
				c0.3,1,1.7,4.1,2.2,5.2h0.8l1.3-6.2h-0.8L132.1,63.4z"/>
			<path class="st7" d="M141.6,60.7c1-0.7,2.7-0.4,2.9,1l0.8-0.1c-4.2-7.4-10.2,7.9-0.8,3.7l0.5-2.5h-2.7l-0.1,0.7h1.9l-0.3,1.3
				C140.6,67,139.1,62.4,141.6,60.7z"/>
			<path class="st7" d="M155.5,59.9c-4.5-1-4.5,2.5-0.5,3.8c1.2,2-3.4,2.2-2.9,0.1l-0.8,0.1c-0.3,3.2,5.9,2.5,4.6-0.4
				c-0.3-0.7-2-1.2-2.5-1.5c-2.1-1.6,2.5-2.6,2.3-0.4l0.8-0.1C156.5,60.9,156.1,60.2,155.5,59.9z"/>
			<polygon class="st7" points="169.7,65.9 170.5,65.9 171.1,63.2 174.4,63.2 174.5,62.5 171.3,62.5 171.7,60.5 174.9,60.5 
				175,59.8 171,59.8 			"/>
			<path class="st7" d="M183.9,59.7c-3.6-0.3-4.8,6.3-0.7,6.4C186.9,66.3,188,59.7,183.9,59.7z M185.5,63.5
				c-0.5,2.3-4.1,2.5-4.1-0.1C181.1,59.5,187,59.5,185.5,63.5z"/>
			<path class="st7" d="M198.2,61.3c0.1-2.3-3.3-1.3-4.6-1.5l-1.3,6.2h0.8l0.6-2.7c2.1-0.4,2.5,1,3.1,2.7h0.9
				c-0.4-0.9-0.7-2.1-1.6-2.8C197.3,63,198.2,62.5,198.2,61.3z M197.2,61.9c-0.7,1-2.3,0.6-3.4,0.7l0.4-2.1
				C195.2,60.5,198.2,60,197.2,61.9z"/>
			<polygon class="st7" points="211.4,65.9 216.1,65.9 216.3,65.2 212.4,65.2 212.8,63.1 216.4,63.1 216.5,62.4 213,62.4 
				213.4,60.5 217,60.5 217.2,59.8 212.7,59.8 			"/>
			<path class="st7" d="M225.5,63.8c-0.2,0.3-0.4,0.7-0.6,1.2c-0.1-0.9-0.8-4.2-1-5.3h-0.8l1.2,6.2h0.9l3.4-6.2h-0.9L225.5,63.8z"/>
			<polygon class="st7" points="233.4,65.9 238.2,65.9 238.4,65.2 234.4,65.2 234.9,63.1 238.5,63.1 238.6,62.4 235,62.4 
				235.4,60.5 239.1,60.5 239.3,59.8 234.8,59.8 			"/>
			<path class="st7" d="M250.4,61.3c0.1-2.3-3.3-1.3-4.6-1.5l-1.3,6.2h0.8l0.6-2.7c2.1-0.4,2.5,1,3.1,2.7h0.9
				c-0.4-0.9-0.7-2.1-1.6-2.8C249.6,63,250.4,62.5,250.4,61.3z M249.5,61.9c-0.7,1-2.3,0.6-3.4,0.7l0.4-2.1
				C247.5,60.6,250.4,60,249.5,61.9z"/>
			<path class="st7" d="M259.6,61.6c-0.4,0.5-0.6,0.9-0.9,1.2c-0.4-0.9-1.1-2.2-1.5-3.1h-0.9l1.9,3.8l-0.5,2.4h0.8l0.5-2.3l3-3.8h-1
				L259.6,61.6z"/>
			<path class="st7" d="M277.9,59.7c-3.6-0.3-4.8,6.3-0.7,6.4C280.9,66.3,282,59.7,277.9,59.7z M279.5,63.5
				c-0.5,2.3-4.1,2.5-4.1-0.1C275.1,59.5,281,59.5,279.5,63.5z"/>
			<path class="st7" d="M290.8,63.4c-0.1,0.5-0.2,1.1-0.3,1.6c-0.5-1.7-1.5-3.6-2.2-5.2h-0.8l-1.3,6.2h0.8c0.2-1,0.9-4.3,1-5.2
				c0.3,1,1.7,4.1,2.2,5.2h0.8l1.3-6.2h-0.8L290.8,63.4z"/>
			<polygon class="st7" points="303.4,60.5 303.5,59.8 299,59.8 297.7,65.9 302.5,65.9 302.6,65.2 298.7,65.2 299.1,63.1 
				302.7,63.1 302.9,62.4 299.3,62.4 299.7,60.5 			"/>
		</g>
	</g>
</g>
</svg>
