<?xml version="1.0" encoding="utf-8"?>
<!-- Generator: Adobe Illustrator 25.4.1, SVG Export Plug-In . SVG Version: 6.00 Build 0)  -->
<svg version="1.1" id="Layer_1" xmlns="http://www.w3.org/2000/svg" xmlns:xlink="http://www.w3.org/1999/xlink" x="0px" y="0px"
	 viewBox="0 0 156.4 80" style="enable-background:new 0 0 156.4 80;" xml:space="preserve">
<style type="text/css">
	.st0{fill-rule:evenodd;clip-rule:evenodd;fill:#E16523;}
</style>
<g>
	<path class="st0" d="M154.9,72.7l-6.5,1c-4,0.6-4-3.4-4-6v-32c0-6,0.9-16.4-16.7-13.8c-25,3.6-28.2,13.4-29.4,16.8
		c-0.9,2.6-0.4,3.2,1.4,2l10.6-3.7c1.6-0.6,2-3.5,2.4-5.6c1-5.3,14.9-6.3,14.9,1.8v12.7c-25.2,5-32.2,13.9-31.1,24.6
		c1.4,12.6,18.6,13.2,31.1-1.8v5.1c0,4.5,4.3,7,9.9,5.5c5.9-1.7,11.9-3.2,17.8-4.8C157,73,156.8,72.4,154.9,72.7z M127.4,65.8
		c-5.3,8.2-14.7,3.9-14.5-3.1c0.2-7.9,4.6-13.5,14.5-15.2V65.8z"/>
	<path class="st0" d="M47.1,0H25.2c-8.3,0-18,2.3-23.3,4.8c-2.3,1.1-2.7,2.4,0,2.3c2.4-0.1,5.1,0,7.5,0v72.4
		c51.3,3.8,76.3-14.8,76.3-39.6C85.6,13.3,66.6,0,47.1,0z M52.8,72.1c-1.4,1-3.1,1.5-4.8,1.6H30.8c-1.9,0-3.2,0.1-3.2-2V6.5
		C51.8,6,67,19,67.4,38.5C67.8,53.2,63.9,64.7,52.8,72.1z"/>
</g>
</svg>
