<?xml version="1.0" encoding="utf-8"?>
<!-- Generator: Adobe Illustrator 25.4.1, SVG Export Plug-In . SVG Version: 6.00 Build 0)  -->
<svg version="1.1" id="Layer_1" xmlns="http://www.w3.org/2000/svg" xmlns:xlink="http://www.w3.org/1999/xlink" x="0px" y="0px"
	 viewBox="0 0 76.84 80" style="enable-background:new 0 0 76.84 80;" xml:space="preserve">
<style type="text/css">
	.st0{fill:#283966;}
	.st1{fill:#B72944;}
</style>
<path class="st0" d="M0,48.18c2.62-0.26,3.95,1.18,5.28,3.29c5.91,9.41,14.66,14.88,25.26,17.82c4.94,1.37,9.82,3.01,14.59,4.87
	c3.01,1.17,5.39,3.41,7.1,5.85c-8.39-1.34-16.92-2.63-25.42-4.1c-4.25-0.74-8.31-2.18-12.11-4.28C6.24,66.93,1.96,59.44,0.31,50.19
	C0.26,49.89,0.11,49.6,0,49.31C0,48.93,0,48.56,0,48.18z"/>
<path class="st1" d="M76.84,33.68c-1.37,0.37-2.37,0.63-3.37,0.9c0,0-0.01,0.1,0.05,0.16c2.62,2.52,2.62,3.46-0.02,5.88
	c-3.13,2.87-6.2,3.38-10.16,1.18c-2.42-1.35-4.76-2.4-7.57-2.76c-2.9-0.37-5.15-2.33-7.42-4.67c0.7,2.32,1.96,3.82,3.51,5.07
	c1.86,1.5,3.99,2.37,6.38,2.7c0.54,0.07,1.29,0.52,1.47,0.98c0.95,2.4,1.75,4.86,2.41,7.39c-2.83-1.53-5.65-2.53-8.78-2.68
	c0.86,0.43,1.77,0.78,2.57,1.29c2.24,1.43,4.62,2.71,6.61,4.45c5.67,4.94,6.76,11.62,3.2,18.24c-1.75,3.25-4.1,6-7.19,7.96
	c-0.69-2.57-1.19-5.17-2.09-7.61c-0.93-2.5-2.63-4.55-4.87-6.14c1.64,3.21,3.23,6.4,2.53,10.37c-0.95-1-1.71-1.92-2.59-2.72
	c-3.54-3.26-7.95-4.82-12.44-6.21c-4.06-1.25-8.21-2.3-12.14-3.89c-7.71-3.12-10.78-8.62-9.84-16.88c0.03-0.27,0.03-0.55,0.05-1.07
	c-1.41,1.13-1.93,2.55-2.29,4c-0.37,1.48-0.56,3.01-0.89,4.81c-3.12-3.67-5.23-7.51-5.28-12.28c-0.05-4.61,1.42-8.76,3.9-12.63
	c-3.38,1.82-5.71,4.7-8.12,7.64c-1.89-12.8,6.36-25.82,23.82-26.48c-3.96-1.15-8-0.63-12.45-0.37c0.92-1.03,1.56-1.86,2.32-2.56
	c3.97-3.66,8.81-5.18,14.08-5.52c4.68-0.3,9.25,0.21,13.61,2.07c0.11,0.05,0.25,0.02,0.59,0.05c-2.29-2.27-5.16-2.93-8.15-3.8
	c8.1-1.76,18.66,0.2,22.42,12.58c0.61-2.96-0.43-5.23-1.79-7.5c5.32,1.58,6.28,5.91,3.2,12.56c1.66,2,3.18,3.86,4.73,5.69
	c0.63,0.74,1.28,1.46,2,2.11c2.11,1.92,4.26,3.79,6.37,5.71C75.7,32.17,76.09,32.77,76.84,33.68z M38.83,50.92
	c0.6,0.22,1.2,0.44,1.8,0.66c5.89,2.2,11.64,4.67,16.37,8.98c1.86,1.7,3.32,3.67,3.86,6.2c0.09,0.41,0.09,0.83,0.13,1.25
	c0.03,0.37,0.06,0.74,0.09,1.1c1.39-3.23,0.99-6.22-1.04-8.99c-1.76-2.4-4.19-3.98-6.82-5.26C48.69,52.68,43.86,51.47,38.83,50.92z
	 M27.45,35.47c-4.04,2.6-5.9,10.1-3.42,14.67c2.8,5.17,7.84,6.98,13.1,8.36c-0.34-0.38-0.77-0.6-1.21-0.83
	c-2.83-1.5-5.45-3.28-7.54-5.75c-2.52-2.98-3.75-6.39-2.97-10.25C25.83,39.56,26.75,37.54,27.45,35.47z M37.99,26.83
	c-3.04,2.25-5.26,5.06-5.93,8.8c-0.48,2.67,0.62,4.59,2.97,5.54c0.73,0.29,1.52,0.49,2.3,0.6c3.7,0.5,7.45,0.74,10.96,2.2
	c0.05,0.02,0.15-0.07,0.32-0.15c-2.2-1.68-4.78-2.39-7.28-3.24c-1.76-0.6-3.57-1.14-5.24-1.95c-2.15-1.05-2.85-2.66-2.05-4.87
	c0.59-1.65,1.53-3.18,2.39-4.72C36.86,28.25,37.47,27.56,37.99,26.83z M15.68,22.33c7.25-5.66,15.53-6.1,24.26-5.73
	C32.6,12.38,18.84,15.61,15.68,22.33z M30.04,25.02c-6.92,0.58-15.08,8.69-14.09,13.92C19.27,32.95,24.33,28.81,30.04,25.02z
	 M54.16,12.58C49.95,7,36.92,3.23,32.34,6.26C40.06,6.95,47.66,7.87,54.16,12.58z M42.97,28.12c-2.29,1.38-2.65,3.99-1,7.07
	c1.68-1.45,3.4-2.92,5.11-4.4c1.71-1.48,2.25-3.43,1.37-5.28c-0.89,2.98-2.64,5.11-5.82,6.68C42.76,30.57,42.87,29.34,42.97,28.12z
	 M54.66,18.37c-1.09-1.6-2.47-2.89-4.37-3.46c-2.15-0.65-4.41,0.81-4.45,2.96c-0.03,1.65,0.67,3.09,1.95,4.51
	c-0.12-0.9-0.24-1.54-0.28-2.18c-0.21-3.09,1.13-4.13,4.08-3.14C52.65,17.41,53.64,17.93,54.66,18.37z M61.2,24.26
	c-0.03,0.08-0.06,0.17-0.09,0.25c0.38,0.33,0.76,0.66,1.15,1c-0.07,0.18-0.14,0.36-0.21,0.54c-1.44-0.24-2.88-0.49-4.32-0.73
	c-0.04,0.07-0.09,0.14-0.13,0.21c1.63,1.15,3.26,2.31,4.7,3.33c0.67-1.22,1.19-2.18,1.73-3.17C63.14,25.24,62.17,24.75,61.2,24.26z"
	/>
<path class="st1" d="M70.69,44.77c0.1,1.85,0.39,3.65-1.19,4.57c-1.52,0.89-2.86-0.28-4.01-1.23c-1.38-1.14-2.42-2.54-2.99-4.66
	C65.17,44.96,67.66,46.14,70.69,44.77z"/>
</svg>
