<?xml version="1.0" encoding="utf-8"?>
<!-- Generator: Adobe Illustrator 25.4.1, SVG Export Plug-In . SVG Version: 6.00 Build 0)  -->
<svg version="1.1" id="Layer_1" xmlns="http://www.w3.org/2000/svg" xmlns:xlink="http://www.w3.org/1999/xlink" x="0px" y="0px"
	 viewBox="0 0 79.91 80" style="enable-background:new 0 0 79.91 80;" xml:space="preserve">
<style type="text/css">
	.st0{fill:#FFFFFF;}
	.st1{fill:#ED192D;}
	.st2{fill:#1C4E9D;}
</style>
<g>
	<path class="st0" d="M79.9,40.01c0,11.45-4.81,21.77-12.52,29.06c-0.01,0.01-0.02,0.03-0.04,0.04
		c-7.14,6.73-16.78,10.86-27.38,10.86C17.89,79.97,0,62.08,0,40.01c0-4.83,0.86-9.46,2.42-13.74c0.45-1.23,0.96-2.43,1.52-3.59
		c0.14-0.29,0.28-0.58,0.43-0.87c0.28-0.55,0.57-1.09,0.88-1.62c0.35-0.64,0.73-1.27,1.14-1.88c0.14-0.22,0.29-0.43,0.43-0.65
		c0.17-0.27,0.35-0.53,0.55-0.79c0.19-0.26,0.37-0.52,0.57-0.78c0.13-0.18,0.27-0.36,0.42-0.54c0.03-0.05,0.06-0.1,0.1-0.15
		c7.32-9.35,18.71-15.36,31.5-15.36C62.02,0.04,79.9,17.93,79.9,40.01z"/>
	<path id="path3197" class="st1" d="M57.12,15.92c12.17,3.74,21.02,15.07,21.02,28.49c0,1.97-0.2,3.87-0.56,5.7l-0.05,0.26
		c-0.92,5.26-3.06,10.12-6.09,14.24l-0.06,0.07c5.33-6.78,8.52-15.37,8.52-24.69C79.91,17.91,62.01,0,39.92,0
		C29.87,0,20.7,3.72,13.67,9.85l-0.1,0.09c-5.54,5.08-9,12.38-9,20.48c0,3.34,0.58,6.58,1.68,9.56l0.05,0.14
		c2.78,6.08,8.92,10.32,16.05,10.32C32.09,50.44,40,42.55,40,32.8l-0.05-7.59c0-3.46,1.95-6.52,4.82-8.09l0.03-0.01
		c2.24-1.22,4.8-1.94,7.55-1.94c1.66,0,3.25,0.25,4.75,0.73L57.12,15.92"/>
	<path class="st2" d="M75.33,49.59c0,7.57-3.03,14.45-7.95,19.48c-0.01,0.01-0.02,0.03-0.04,0.04
		c-7.14,6.73-16.78,10.86-27.38,10.86C17.89,79.97,0,62.08,0,40.01c0-4.83,0.86-9.46,2.42-13.74c0.44-1.23,0.95-2.43,1.52-3.59
		c0.14-0.29,0.28-0.58,0.43-0.87c0.27-0.55,0.56-1.09,0.88-1.62c0.35-0.64,0.73-1.27,1.14-1.88c0.14-0.22,0.29-0.43,0.43-0.65
		c0.17-0.27,0.35-0.53,0.55-0.79c0.19-0.26,0.37-0.52,0.57-0.78c0.16-0.23,0.34-0.46,0.52-0.69c-0.04,0.05-0.07,0.1-0.1,0.15
		c-3,4.1-5.1,8.87-6.01,14.08l-0.04,0.25c-0.36,1.85-0.55,3.77-0.55,5.72c0,13.4,8.85,24.74,21.03,28.49l0.02,0.02
		c1.49,0.45,3.09,0.73,4.76,0.73c2.72,0,5.3-0.72,7.54-1.94l0.03-0.02c2.87-1.56,4.82-4.61,4.82-8.08l-0.05-7.61
		c0-9.74,7.89-17.63,17.63-17.63c7.14,0,13.27,4.23,16.06,10.35l0.05,0.12C74.74,43.01,75.33,46.25,75.33,49.59z"/>
</g>
</svg>
