<?xml version="1.0" encoding="utf-8"?>
<!-- Generator: Adobe Illustrator 25.4.1, SVG Export Plug-In . SVG Version: 6.00 Build 0)  -->
<svg version="1.1" id="Layer_1" xmlns="http://www.w3.org/2000/svg" xmlns:xlink="http://www.w3.org/1999/xlink" x="0px" y="0px"
	 viewBox="0 0 86.6 80" style="enable-background:new 0 0 86.6 80;" xml:space="preserve">
<style type="text/css">
	.st0{fill:#E30613;}
	.st1{fill:#FFCC00;}
</style>
<path d="M56.7,62.7c0,0,8.7-1.2,11.5-1.3c5.1-0.2,7.5,1.8,7.5,5.6c0,3.7-2.5,5.2-7.5,5.2H56.7V62.7z M46.5,79.9h22.3
	c3.7,0,7.5,0.1,9.9-0.9c2.4-0.9,3.5-1.8,5.1-3.7c1.7-2.2,2.5-5.4,2.5-7.8c0-2.9-0.5-5.7-2.7-8.1c-0.4-0.5-0.6-1.1-0.4-1.8
	c0.2-0.8,2.4-1.8,3.5-2.3c-17.3,0.8-29.8,2.4-40,4.4L46.5,79.9z"/>
<path d="M40.1,65.8c-0.1-0.4-0.4-1.4-0.1-2.6c0.4-1.3,2.7-2.6,3.1-2.8c-0.1,0-1.5,0.3-1.6,0.3c-2.8,0.6-3.4,0.8-5.6,1.3
	c-3.3,0.9-18.2,4.3-31,11.4c0,0-0.4,1.1-0.4,1.2C2.8,78.9,0,79.9,0,79.9h13l2.2-6.1c0.4-1,2-2.6,4-2.8l12.3-1.5L34.9,80h10.2
	L40.1,65.8z"/>
<path class="st0" d="M55.8,36.9H42.5v0.2c1.7,0.8,4,2.8,4,6.5v10.6c3.8-0.3,6-0.5,10.2-0.9v-9.1h8.9c4.7,0,7.2,1.6,7.2,4.8
	c0,1.9-1.9,2.9-4.5,3.7c1.4,0,3-0.1,4.4-0.1c4.3-0.3,6.9-0.4,9-3.1c1.8-2.3,1.7-5.3,0.5-7.2c-0.9-1.4-1.7-2.4-3.1-3.2
	c-1.5-1-4.6-1.7-8-2C68.9,37,58.5,36.9,55.8,36.9"/>
<path class="st0" d="M23.9,46.8l3.4,10.3c3-0.6,6.1-1.1,9.2-1.5L30,37H18.4l0,0H14v0.3c1.2,0.5,3.3,2.2,2,6.3L9.5,61.5
	c2.8-0.9,7.8-2.2,10.9-2.8L23.9,46.8z"/>
<path class="st1" d="M34.5,14.9c-1.5-1-4.3-2.8-6.2-6.3c-0.2,3.5-1.8,6.2-2.8,7.6c0.8,0.2,1.4,0.3,2.3,0.3
	C30.5,16.9,32.7,16.2,34.5,14.9"/>
<path class="st1" d="M58.7,16.6c0.8-0.1,1.5-0.2,2.3-0.3c-1-1.4-2.6-4.1-2.8-7.6c-1.9,3.5-4.8,5.5-6.2,6.3
	C53.8,16.2,56,16.9,58.7,16.6"/>
<path class="st1" d="M43.2,26c8,0,15.2,1.5,20.6,4H64c1.9-5.2,9.7-22.8,9.7-22.8c-1.2,1.2-6.3,10.5-15.5,11.3
	c-9,0.8-12.7-8.3-14.9-18.5l0,0l0,0C41,10.1,37.4,19.2,28.3,18.5c-9-0.8-14.2-10.1-15.4-11.3c0,0,7.7,17.6,9.7,22.8
	C28,27.5,35.3,26,43.2,26"/>
</svg>
