<?xml version="1.0" encoding="utf-8"?>
<!-- Generator: Adobe Illustrator 25.3.1, SVG Export Plug-In . SVG Version: 6.00 Build 0)  -->
<svg version="1.1" id="Layer_1" xmlns="http://www.w3.org/2000/svg" xmlns:xlink="http://www.w3.org/1999/xlink" x="0px" y="0px"
	 viewBox="0 0 169.02 80" style="enable-background:new 0 0 169.02 80;" xml:space="preserve">
<style type="text/css">
	.st0{fill:#ED4138;}
	.st1{fill:#00693A;}
	.st2{fill:#DF1804;}
	.st3{fill:#214078;}
	.st4{fill:#3487C7;}
	.st5{fill:url(#SVGID_1_);}
	.st6{fill:url(#SVGID_2_);}
	.st7{fill:#184A8A;}
	.st8{fill:url(#SVGID_3_);}
	.st9{fill:url(#SVGID_4_);}
	.st10{fill:url(#SVGID_5_);}
	.st11{fill:url(#SVGID_6_);}
	.st12{fill:#9E8266;}
	.st13{fill:#322E26;}
	.st14{fill:#332F27;}
	.st15{fill:#791722;}
	.st16{fill:url(#SVGID_7_);}
	.st17{fill:url(#SVGID_8_);}
	.st18{fill:url(#SVGID_9_);}
	.st19{fill:url(#SVGID_10_);}
	.st20{fill:url(#SVGID_11_);}
	.st21{fill:url(#SVGID_12_);}
	.st22{fill:url(#SVGID_13_);}
	.st23{fill:url(#SVGID_14_);}
	.st24{fill:url(#SVGID_15_);}
	.st25{fill:url(#SVGID_16_);}
	.st26{fill:url(#SVGID_17_);}
	.st27{fill:url(#SVGID_18_);}
	.st28{fill:url(#SVGID_19_);}
	.st29{fill:url(#SVGID_20_);}
	.st30{fill:url(#SVGID_21_);}
	.st31{fill:#222325;}
	.st32{fill:#A0925A;}
	.st33{fill:#061E34;}
	.st34{fill:#028E8F;}
	.st35{fill:#D5192C;}
	.st36{fill:#FAC201;}
	.st37{fill:url(#SVGID_22_);}
	.st38{fill:url(#SVGID_23_);}
	.st39{fill:url(#SVGID_24_);}
	.st40{fill:url(#SVGID_25_);}
	.st41{fill:#9F8A58;}
	.st42{fill:#749ED4;}
	.st43{fill:#045991;}
	.st44{fill:#1F9A8D;}
	.st45{fill:#222D68;}
	.st46{fill:#14152E;}
	.st47{fill:#62B3E4;}
	.st48{fill:#FEFEFE;}
	.st49{fill:none;}
	.st50{fill:#FC0302;}
	.st51{fill:#FE0807;}
	.st52{fill:#98684C;}
	.st53{fill:#86754D;}
	.st54{fill:#42484D;}
	.st55{fill:#41474C;}
	.st56{fill:#43494D;}
	.st57{fill:#DF073D;}
	.st58{fill:#DE023A;}
	.st59{fill:#FFFFFF;}
	.st60{fill:#6F6E6C;}
	.st61{fill:#072F67;}
	.st62{fill:#53A220;}
	.st63{fill:#FDC013;}
	.st64{fill:url(#SVGID_26_);}
	.st65{fill:url(#SVGID_27_);}
	.st66{fill:url(#SVGID_28_);}
	.st67{fill:#793A98;}
	.st68{fill:url(#SVGID_29_);}
	.st69{fill:url(#SVGID_30_);}
	.st70{fill:url(#SVGID_31_);}
	.st71{fill:url(#SVGID_32_);}
	.st72{fill:url(#SVGID_33_);}
</style>
<g>
	<path class="st62" d="M63.07,18.56c0.94,15.2-3.16,29.07-11.38,41.71c-5.66,8.7-13.72,14.19-23.99,16.18
		c-2.21,0.43-4.47,0.73-6.75,0.72c-6.25-0.01-12.51,0-18.76,0c-0.46,0-0.94,0.09-1.48-0.37c1.27-4.73,2.57-9.54,3.86-14.35
		c3.16-11.74,6.31-23.49,9.48-35.23c2.14-7.91,4.31-15.81,6.44-23.72c0.27-1.02,0.84-1.38,1.85-1.36C29.76,2.26,37.19,1.88,44.6,2.4
		c3.37,0.24,6.62,1.12,9.61,2.74c3.26,1.77,5.63,4.38,7.18,7.78C62.41,15.07,63.03,17.89,63.07,18.56z M18.47,63.51
		c1.61,0,2.77-0.03,3.94,0c7.53,0.22,13.18-3.07,17.37-9.19c3.22-4.7,5.08-9.97,6.52-15.42c1.17-4.4,1.83-8.87,1.36-13.44
		c-0.52-5.15-3.53-8.47-8.6-9.4c-2.53-0.47-5.09-0.09-7.69-0.24C27.04,31.8,22.8,47.5,18.47,63.51z"/>
	<path class="st62" d="M82.55,9.31c1.31-2.38,2.65-4.75,3.93-7.04c6.4,0,12.61,0,19.14,0c0,2.05,0,3.98,0,5.91
		c0,0.94,0.15,6.7,0.12,8.74c-0.01,0.38-0.06,2.96-0.05,4.08c0.1,18.36,0.18,36.72,0.25,55.08c0,0.23-0.05,0.46-0.07,0.69
		c-1.54,0.49-10.83,0.63-14.35,0.19c0-5.16,0-10.36,0-15.71c-7.77,0-15.31,0-23.13,0c-2.81,5.17-5.7,10.5-8.61,15.86
		c-4.67,0-9.26,0-13.83,0c-0.39-0.78,0.22-1.24,0.49-1.73c4.24-7.8,8.53-15.59,12.79-23.38c6.28-11.48,12.55-22.96,18.84-34.43
		C78.49,16.81,82.32,9.73,82.55,9.31z M91.43,48.33c0-10.03,0-19.75,0-29.47c-0.11-0.01-0.21-0.02-0.32-0.03
		c-5.26,9.77-10.53,19.53-15.91,29.5C80.85,48.33,86.12,48.33,91.43,48.33z"/>
	<path class="st62" d="M143.23,15.95c-3.03,1.46-4.13,2.27-5.88,3.72c-4.36,3.61-7.17,8.38-9.24,13.6c-2.34,5.9-4.1,11.95-3.9,18.38
		c0.1,3.38,1.03,6.64,3.16,9.32c2.34,2.95,5.58,4.33,9.34,4.49c3.99,0.18,7.69-0.91,11.27-2.53c0.35-0.16,0.69-0.35,1.05-0.51
		c0.06-0.03,0.15,0.02,0.3,0.04c0.61,0.43,0.31,1.1,0.23,1.65c-0.44,3.17-0.99,6.32-1.39,9.49c-0.16,1.2-0.91,1.74-1.84,2.2
		c-5.53,2.73-11.4,3.7-17.5,3.09c-1.98-0.2-3.99-0.27-5.92-0.88c-5.92-1.89-10.16-5.66-12.66-11.35c-1.4-3.18-1.9-6.51-1.91-10
		c-0.01-4.17-0.19-8.43,1.01-12.37c2.14-7.03,4.05-14.2,7.92-20.59c0.8-1.32,2.36-3.89,3.27-5.2c1.38-1.97,6.32-7.22,6.82-7.65
		c9.1-7.85,19.43-11.74,31.54-9.76c2.92,0.48,5.73,1.42,8.07,3.57c-1.8,4.34-3.24,8.69-5.3,12.9c-0.85-0.51-1.49-0.96-2.18-1.31
		c-2.97-1.51-6.1-2.37-9.46-2.19C146.61,14.48,145.17,15.09,143.23,15.95z"/>
</g>
</svg>
