<?xml version="1.0" encoding="utf-8"?>
<!-- Generator: Adobe Illustrator 27.0.0, SVG Export Plug-In . SVG Version: 6.00 Build 0)  -->
<svg version="1.1" id="Layer_1" xmlns="http://www.w3.org/2000/svg" xmlns:xlink="http://www.w3.org/1999/xlink" x="0px" y="0px"
	 viewBox="0 0 142.3 80" style="enable-background:new 0 0 142.3 80;" xml:space="preserve">
<style type="text/css">
	.st0{fill:#F6CB3A;}
	.st1{fill:#A72E42;}
</style>
<g>
	<path class="st0" d="M55.7,32.9c-4.2,1.4-4.2,1.4-10.5,7c-1.1,1-4.8,5.5-6.4,7.2c18.6-5.2,27.7-1.3,35.4,2.6
		c9.4,4.8,16.5,9.6,36.7-2.6c-14.2,1.9-17.5-6.5-32-11.7c0,0-6.7-3.7-15.3-3.7C61,31.8,58.4,32.1,55.7,32.9"/>
	<path class="st1" d="M38.8,47.3C72.2,25.3,118.2,60.5,123.6,0C99.3,28.1,72.5,22.3,38.8,47.3"/>
	<path d="M43.4,36c2.5-8.3,9.9-9.9,16.4-9.1c-14.7-6.5-21-22.4-42.3-26.1C29.4,8.5,29.5,23.7,43.4,36"/>
	<path d="M5.4,73.5h3.4v6.1C8.5,79.6,6.2,80,4.8,80C1,80,0,77.6,0,73.6c0-4.1,1.1-6.5,4.8-6.5c1.9,0,4.1,0.5,4.1,0.5l-0.1,1.1
		c0,0-2.2-0.4-3.9-0.4c-2.9,0-3.5,1.7-3.5,5.2c0,3.4,0.6,5.2,3.5,5.2c0.9,0,2.1-0.2,2.6-0.2v-3.9H5.4L5.4,73.5z"/>
	<path d="M11.2,67.3h7.6v1.2h-6.2v4.3h5.1v1.2h-5.1v4.5h6.2v1.2h-7.6L11.2,67.3z"/>
	<path d="M22.1,75.1v4.8h-1.4V67.4h4.6c2.6,0,4,1.1,4,3.8c0,1.8-0.7,3.1-2.3,3.6l2.4,5.1h-1.6l-2.2-4.8L22.1,75.1z M25.3,68.6h-3.2
		v5.2h3.2c1.9,0,2.6-1.1,2.6-2.7C27.9,69.4,27.1,68.6,25.3,68.6"/>
	<path d="M31.3,67.3h2.6l3.5,10.5l3.6-10.5h2.5v12.5H42v-11h-0.2l-3.6,10.5h-1.6L33,68.8h-0.2v11h-1.4V67.3z"/>
	<path d="M48.3,67.3h3.1l3.4,12.5h-1.4l-0.9-3.2h-5.4l-0.9,3.2h-1.4L48.3,67.3z M47.5,75.4h4.7l-1.9-6.9h-0.9L47.5,75.4z"/>
	<path d="M56.3,67.3h2.6l4.7,11.2H64V67.3h1.4v12.5h-2.5l-4.9-11.2h-0.4v11.2h-1.4L56.3,67.3z"/>
	<path d="M73.5,67.6h4.7L81,79.9h-2.5L78,77.6h-4.3l-0.5,2.2h-2.5L73.5,67.6z M74.2,75.4h3.4l-1.2-5.8h-0.9L74.2,75.4z"/>
	<path d="M82.6,67.6h2.5v12.3h-2.5V67.6z"/>
	<path d="M90.1,75.7v4.1h-2.5V67.5h4.7c2.8,0,4.3,1.2,4.3,4.1c0,1.7-0.7,2.8-1.8,3.6l1.7,4.7h-2.7l-1.4-4.1H90.1z M92.4,69.7h-2.2
		v3.9h2.3c1.2,0,1.7-0.9,1.7-1.9C94.2,70.5,93.6,69.7,92.4,69.7"/>
	<path d="M100.3,67.6l1.6,10.1h0.2l2.2-10.1h2.9l2.2,10.1h0.2l1.5-10.1h2.6l-2.3,12.2h-3.8l-1.9-9.3l-1.9,9.3h-3.7l-2.4-12.2
		L100.3,67.6z"/>
	<path d="M116.8,67.6h4.7l2.7,12.3h-2.5l-0.5-2.2H117l-0.5,2.2H114L116.8,67.6z M117.5,75.4h3.4l-1.2-5.8h-0.9L117.5,75.4z"/>
	<path d="M129.8,79.8h-2.5v-4.9l-3.8-7.3h2.7l2.2,4.9l2.3-4.9h2.7l-3.7,7.3V79.8z"/>
	<path d="M141.9,69.8c0,0-2.6-0.3-3.6-0.3c-1.3,0-1.9,0.5-1.9,1.3c0,0.7,0.5,1.1,2.6,1.7c2.6,0.9,3.4,1.6,3.4,3.6
		c0,2.7-1.8,3.9-4.2,3.9c-1.7,0-4.1-0.6-4.1-0.6l0.2-1.9c0,0,2.4,0.3,3.7,0.3c1.3,0,1.9-0.6,1.9-1.6c0-0.7-0.4-1.1-2.2-1.6
		c-2.7-0.8-3.8-1.7-3.8-3.7c0-2.6,1.7-3.6,4.2-3.6c1.6,0,4.1,0.5,4.1,0.5L141.9,69.8z"/>
</g>
</svg>
