<?xml version="1.0" encoding="utf-8"?>
<!-- Generator: Adobe Illustrator 25.4.1, SVG Export Plug-In . SVG Version: 6.00 Build 0)  -->
<svg version="1.1" id="Layer_1" xmlns="http://www.w3.org/2000/svg" xmlns:xlink="http://www.w3.org/1999/xlink" x="0px" y="0px"
	 viewBox="0 0 358.57 80" style="enable-background:new 0 0 358.57 80;" xml:space="preserve">
<style type="text/css">
	.st0{fill-rule:evenodd;clip-rule:evenodd;fill:#0096D8;}
</style>
<g>
	<rect x="39.77" y="27.46" class="st0" width="47.68" height="8.32"/>
	<path class="st0" d="M45.79,18.43c0-3.53-2.86-6.39-6.39-6.39c-3.53,0-6.38,2.86-6.38,6.39c0,3.52,2.85,6.37,6.38,6.37
		C42.92,24.81,45.79,21.95,45.79,18.43z"/>
	<path class="st0" d="M55.27,24.66c3.52,0,6.39-2.86,6.39-6.39c0-3.52-2.86-6.38-6.39-6.38c-3.52,0-6.38,2.86-6.38,6.38
		C48.89,21.8,51.74,24.66,55.27,24.66z"/>
	<path class="st0" d="M64.44,18.27c0,3.53,2.85,6.39,6.38,6.39c3.52,0,6.38-2.86,6.38-6.39c0-3.52-2.86-6.38-6.38-6.38
		C67.3,11.89,64.44,14.75,64.44,18.27z"/>
	<path class="st0" d="M87.01,24.66c3.52,0,6.37-2.86,6.37-6.39c0-3.52-2.86-6.38-6.37-6.38c-3.53,0-6.39,2.86-6.39,6.38
		C80.62,21.8,83.48,24.66,87.01,24.66z"/>
	<polygon class="st0" points="61.4,12.18 64.93,12.18 64.93,7.91 69.51,7.91 69.51,4.38 64.93,4.38 64.93,0 61.4,0 61.4,4.38 
		57.32,4.38 57.32,7.91 61.4,7.91 	"/>
	<polygon class="st0" points="35.59,43.22 23.21,43.22 11.84,54.82 11.84,43.22 0,43.22 0,74.58 11.84,74.58 11.84,62.03 
		24.15,74.58 38.57,74.58 22.18,56.7 	"/>
	<polygon class="st0" points="50.8,43.22 39.51,43.22 39.51,74.58 70.87,74.58 70.87,66.74 50.8,66.74 	"/>
	<polygon class="st0" points="100.81,61.09 94.86,43.22 75.41,43.22 75.41,74.58 87.01,74.58 87.01,51.06 94.86,74.58 106.46,74.58 
		114.61,51.06 114.61,74.58 125.9,74.58 125.9,43.22 106.77,43.22 	"/>
	<path class="st0" d="M171.53,73.14l-0.14-2.96c-0.09-2.27-1.01-2.68-1.93-3.07c1.03-0.61,2.25-1.5,2.25-3.9
		c0-3.45-2.65-4.39-5.31-4.39h-7.47v16.3h2.19v-6.99h5.28c2.6,0,2.88,1.57,2.88,2.9c0,0.62,0.06,3.09,0.38,4.09h2.67v-0.36
		C171.66,74.39,171.55,74.05,171.53,73.14z M166.17,66.26h-5.05v-5.54h5.43c1.08,0,2.9,0.2,2.9,2.72
		C169.46,65.85,167.77,66.26,166.17,66.26z"/>
	<path class="st0" d="M179.45,62.92c-3.76,0-5.47,3.21-5.47,6.27c0,3.06,1.71,6.26,5.47,6.26c3.75,0,5.46-3.2,5.46-6.26
		C184.91,66.13,183.2,62.92,179.45,62.92z M179.45,73.73c-2.84,0-3.42-2.95-3.42-4.54c0-1.59,0.58-4.55,3.42-4.55
		c2.83,0,3.41,2.95,3.41,4.55C182.86,70.78,182.28,73.73,179.45,73.73z"/>
	<path class="st0" d="M191.37,72.94h-0.05l-3.13-9.68h-2.25l4.37,12.2c-0.95,2.46-1.06,2.75-2.09,2.75c-0.54,0-0.95-0.11-1.19-0.21
		v1.82c0.32,0.09,0.54,0.18,0.83,0.18c2.54,0,2.75-0.28,4.61-5.09c1.5-3.88,2.85-7.76,4.22-11.65h-2.18L191.37,72.94z"/>
	<path class="st0" d="M207.55,73.07v-6.83c0-3.04-3.42-3.32-4.35-3.32c-2.91,0-4.78,1.12-4.86,3.95h1.82
		c0.14-0.91,0.45-2.29,2.7-2.29c1.87,0,2.77,0.67,2.77,1.92c0,1.19-0.56,1.37-1.03,1.41l-3.26,0.41c-3.28,0.41-3.57,2.72-3.57,3.72
		c0,2.05,1.53,3.43,3.68,3.43c2.3,0,3.48-1.09,4.25-1.92c0.06,0.9,0.34,1.81,2.09,1.81c0.46,0,0.74-0.14,1.08-0.23v-1.44
		c-0.23,0.05-0.47,0.08-0.65,0.08C207.81,73.77,207.55,73.57,207.55,73.07z M205.58,71.03c0,1.59-1.8,2.8-3.64,2.8
		c-1.49,0-2.14-0.77-2.14-2.07c0-1.5,1.54-1.79,2.51-1.92c2.45-0.32,2.95-0.5,3.27-0.75V71.03z"/>
	<rect x="210.95" y="58.83" class="st0" width="1.98" height="16.3"/>
	<path class="st0" d="M229.04,58.83h-6.54v16.3h6.45c5.3,0,6.88-4.72,6.88-8.38C235.84,62.06,233.25,58.83,229.04,58.83z
		 M228.92,73.25h-4.23V60.72h4.07c2.97,0,4.83,2.06,4.83,6.17C233.59,71.01,231.74,73.25,228.92,73.25z"/>
	<path class="st0" d="M245.94,69.8c0,1.73-0.74,3.95-3.24,3.95c-1.29,0-2.27-0.66-2.27-2.61v-7.88h-1.98v8.54
		c0,2.84,2.09,3.68,3.83,3.68c1.88,0,2.89-0.73,3.73-2.11l0.05,0.04v1.72h1.86V63.26h-1.98V69.8z"/>
	<path class="st0" d="M253.32,59.95h-1.98v3.31h-1.6v1.66h1.6v7.83c0,1.43,0.43,2.54,2.38,2.54c0.2,0,0.76-0.09,1.48-0.16v-1.56
		h-0.69c-0.41,0-1.19,0-1.19-0.93v-7.72h1.88v-1.66h-1.88V59.95z"/>
	<path class="st0" d="M261.7,64.72c1.66,0,2.54,0.95,2.79,2.54h1.92c-0.16-2.07-1.34-4.34-4.42-4.34c-3.89,0-5.65,2.93-5.65,6.61
		c0,3.44,1.97,5.95,5.26,5.95c3.44,0,4.59-2.66,4.8-4.54h-1.92c-0.34,1.82-1.48,2.82-2.81,2.82c-2.72,0-3.21-2.52-3.21-4.56
		C258.46,67.08,259.25,64.72,261.7,64.72z"/>
	<path class="st0" d="M273.85,62.92c-1.9,0-2.88,1.18-3.45,1.93h-0.05v-6.02h-1.97v16.3h1.97v-6.47c0-2.99,1.66-3.95,3.29-3.95
		c1.88,0,2.33,1.04,2.33,2.66v7.76h1.98v-8.08C277.96,63.66,275.67,62.92,273.85,62.92z"/>
	<path class="st0" d="M292.06,58.83l-6.07,16.3h2.25l1.69-4.74h6.47l1.6,4.74h2.38l-5.84-16.3H292.06z M290.59,68.44l2.59-7.17h0.04
		l2.39,7.17H290.59z"/>
	<rect x="302.18" y="63.26" class="st0" width="1.98" height="11.88"/>
	<rect x="302.18" y="58.83" class="st0" width="1.98" height="2.27"/>
	<path class="st0" d="M309.3,65.24h-0.03v-1.98h-1.87v11.88h1.99v-6.9c0-1.73,1.17-3.18,3.01-3.18h0.74v-2.07
		c-0.16-0.05-0.26-0.07-0.51-0.07C311.13,62.92,310.09,63.85,309.3,65.24z"/>
	<rect x="314.65" y="58.83" class="st0" width="1.98" height="16.3"/>
	<rect x="319.65" y="63.26" class="st0" width="1.98" height="11.88"/>
	<rect x="319.65" y="58.83" class="st0" width="1.98" height="2.27"/>
	<path class="st0" d="M330.06,62.92c-2.03,0-3.12,1.39-3.55,2.02h-0.05v-1.69h-1.87v11.88h1.97v-6.47c0-3.22,1.99-3.95,3.11-3.95
		c1.93,0,2.52,1.04,2.52,3.11v7.31h1.98v-8.08C334.17,63.66,331.88,62.92,330.06,62.92z"/>
	<path class="st0" d="M342.18,62.92c-3.89,0-5.64,2.93-5.64,6.61c0,3.44,1.95,5.95,5.26,5.95c1.89,0,2.66-0.45,3.19-0.82
		c1.49-1,2.02-2.68,2.09-3.24h-1.98c-0.07,0.88-1.17,2.33-3.04,2.33c-2.27,0-3.41-1.43-3.41-3.91h8.59
		C347.24,65.65,345.57,62.92,342.18,62.92z M338.65,68.26c0-1.84,1.44-3.55,3.26-3.55c2.4,0,3.17,1.7,3.29,3.55H338.65z"/>
	<path class="st0" d="M355.27,68.42l-1.98-0.5c-1.53-0.39-2.14-0.62-2.14-1.59c0-1.48,1.74-1.68,2.34-1.68c2.5,0,2.77,1.25,2.79,2
		h1.92c0-0.59-0.3-3.73-4.51-3.73c-2.31,0-4.44,1.18-4.44,3.79c0,1.64,1.07,2.48,2.72,2.89l2.3,0.56c1.67,0.44,2.33,0.75,2.33,1.7
		c0,1.32-1.28,1.89-2.7,1.89c-2.79,0-3.06-1.5-3.12-2.43h-1.92c0.07,1.43,0.41,4.16,5.07,4.16c2.65,0,4.65-1.48,4.65-3.93
		C358.57,69.94,357.72,69.03,355.27,68.42z"/>
</g>
</svg>
