<?xml version="1.0" encoding="utf-8"?>
<!-- Generator: Adobe Illustrator 25.4.1, SVG Export Plug-In . SVG Version: 6.00 Build 0)  -->
<svg version="1.1" id="Layer_1" xmlns="http://www.w3.org/2000/svg" xmlns:xlink="http://www.w3.org/1999/xlink" x="0px" y="0px"
	 viewBox="0 0 279.82 80" style="enable-background:new 0 0 279.82 80;" xml:space="preserve">
<style type="text/css">
	.st0{fill-rule:evenodd;clip-rule:evenodd;fill:#BC1427;}
	.st1{filter:url(#Adobe_OpacityMaskFilter);}
	.st2{fill-rule:evenodd;clip-rule:evenodd;fill:#FFFFFF;}
	.st3{mask:url(#mask-2_00000083789393471100316760000005710383358570071223_);fill-rule:evenodd;clip-rule:evenodd;fill:#BC1427;}
</style>
<g id="Group-22" transform="translate(0.000000, 0.000100)">
	<path id="Fill-1" class="st0" d="M178.34,30.15c-1.95,0-3.56,0.48-4.83,1.44c-1.27,0.96-2.25,2.08-2.95,3.37
		c-1.18-3.2-3.88-4.8-8.09-4.8c-0.98,0-1.85,0.13-2.64,0.39c-0.78,0.26-1.49,0.6-2.11,1.02c-0.63,0.42-1.17,0.89-1.62,1.41
		c-0.45,0.52-0.82,1.05-1.1,1.57c-0.04-0.24-0.08-0.54-0.13-0.89c-0.05-0.35-0.11-0.7-0.18-1.07c-0.07-0.37-0.15-0.71-0.24-1.04
		c-0.09-0.33-0.18-0.58-0.29-0.76c-0.49-0.1-0.96-0.18-1.41-0.23c-0.45-0.05-0.98-0.08-1.57-0.08c-0.59,0-1.13,0.03-1.62,0.08
		c-0.49,0.05-0.97,0.13-1.46,0.23v27c1.25,0.21,2.49,0.31,3.71,0.31c1.22,0,2.45-0.1,3.71-0.31V43.63c0-1.46,0.14-2.65,0.42-3.55
		c0.28-0.91,0.65-1.61,1.12-2.12c0.47-0.5,1-0.84,1.59-1.02c0.59-0.17,1.18-0.26,1.78-0.26c1.43,0,2.38,0.51,2.85,1.51
		c0.47,1.01,0.71,2.45,0.71,4.34v15.25c1.25,0.21,2.49,0.31,3.71,0.31c1.22,0,2.45-0.1,3.71-0.31V43.21c0-1.36,0.15-2.46,0.44-3.32
		c0.3-0.85,0.68-1.52,1.15-1.99c0.47-0.47,0.99-0.79,1.57-0.97c0.57-0.17,1.16-0.26,1.75-0.26c1.43,0,2.38,0.51,2.85,1.51
		c0.47,1.01,0.7,2.45,0.7,4.34v15.25c1.25,0.21,2.49,0.31,3.71,0.31c1.22,0,2.45-0.1,3.71-0.31V40.6c0-3.58-0.72-6.22-2.17-7.91
		C183.65,31,181.4,30.15,178.34,30.15"/>
	<path id="Fill-3" class="st0" d="M207.48,52.29c-0.38,0.07-0.84,0.15-1.36,0.23c-0.52,0.09-1.04,0.13-1.57,0.13
		c-0.45,0-0.98-0.03-1.59-0.08c-0.61-0.05-1.18-0.19-1.72-0.42c-0.54-0.23-1-0.58-1.38-1.07c-0.38-0.49-0.58-1.18-0.58-2.09
		c0-1.36,0.5-2.34,1.49-2.95c0.99-0.61,2.34-0.91,4.05-0.91c0.38,0,0.82,0.03,1.3,0.08c0.49,0.05,0.94,0.11,1.36,0.18V52.29z
		 M211.63,32.76c-2.04-1.74-4.87-2.61-8.48-2.61c-1.32,0-2.75,0.12-4.28,0.37c-1.53,0.24-3.06,0.63-4.6,1.15
		c0,1.11,0.12,2.07,0.37,2.87c0.24,0.8,0.61,1.65,1.1,2.56c2.12-0.73,4.13-1.1,6.01-1.1c0.87,0,1.66,0.05,2.38,0.16
		c0.71,0.1,1.31,0.3,1.8,0.6c0.49,0.3,0.87,0.7,1.15,1.23c0.28,0.52,0.42,1.2,0.42,2.04v0.63c-1.22-0.1-2.33-0.16-3.34-0.16
		c-1.39,0-2.79,0.15-4.18,0.44c-1.39,0.3-2.65,0.78-3.79,1.46c-1.13,0.68-2.05,1.59-2.77,2.72c-0.71,1.13-1.07,2.53-1.07,4.2
		c0,1.67,0.29,3.08,0.86,4.23c0.57,1.15,1.39,2.09,2.45,2.82c1.06,0.73,2.33,1.25,3.81,1.57c1.48,0.31,3.11,0.47,4.88,0.47
		c2.19,0,4.16-0.17,5.9-0.52c1.74-0.35,3.22-0.71,4.44-1.1V41.12C214.68,37.29,213.66,34.5,211.63,32.76L211.63,32.76z"/>
	<path id="Fill-5" class="st0" d="M232.67,52.09c-0.33,0.03-0.64,0.05-0.91,0.05c-0.63,0-1.15-0.07-1.57-0.21
		c-0.42-0.14-0.76-0.39-1.02-0.76c-0.26-0.37-0.45-0.88-0.58-1.54c-0.12-0.66-0.18-1.53-0.18-2.61V19.6
		c-1.25-0.21-2.47-0.31-3.66-0.31c-1.22,0-2.45,0.1-3.71,0.31v29.04c0,3.34,0.81,5.75,2.43,7.23c1.62,1.48,3.77,2.22,6.45,2.22
		c0.66,0,1.38-0.04,2.17-0.1c0.78-0.07,1.45-0.19,2.01-0.37c0.07-0.28,0.1-0.53,0.1-0.76v-0.76c0-1.36-0.19-2.75-0.57-4.18
		C233.33,52,233,52.05,232.67,52.09"/>
	<path id="Fill-7" class="st0" d="M253.07,51.82c-0.38,0.07-0.83,0.15-1.33,0.24c-0.5,0.09-1.02,0.13-1.54,0.13
		c-0.66,0-1.24-0.07-1.72-0.21c-0.49-0.14-0.9-0.4-1.23-0.78c-0.33-0.38-0.58-0.91-0.76-1.57c-0.17-0.66-0.26-1.53-0.26-2.61v-10.6
		h6.32c0.11-0.56,0.18-1.06,0.21-1.52c0.03-0.45,0.05-0.92,0.05-1.41c0-0.45-0.02-0.89-0.05-1.31c-0.03-0.42-0.1-0.89-0.21-1.41
		h-6.32v-7.89h-1.2l-9.77,12.48l0.26,1.05h3.39v12.22c0,3.34,0.84,5.75,2.51,7.23c1.67,1.48,4.09,2.22,7.26,2.22
		c1.71,0,3.36-0.19,4.96-0.58c0.03-0.24,0.06-0.5,0.08-0.76c0.02-0.26,0.03-0.58,0.03-0.97c0-0.56-0.05-1.19-0.16-1.91
		C253.48,53.17,253.31,52.49,253.07,51.82"/>
	<path id="Fill-9" class="st0" d="M271.66,52.29c-0.38,0.07-0.84,0.15-1.36,0.23c-0.52,0.09-1.04,0.13-1.57,0.13
		c-0.45,0-0.98-0.03-1.59-0.08c-0.61-0.05-1.18-0.19-1.72-0.42c-0.54-0.23-1-0.58-1.38-1.07c-0.38-0.49-0.58-1.18-0.58-2.09
		c0-1.36,0.5-2.34,1.49-2.95c0.99-0.61,2.34-0.91,4.05-0.91c0.38,0,0.82,0.03,1.3,0.08c0.49,0.05,0.94,0.11,1.36,0.18V52.29z
		 M275.81,32.76c-2.04-1.74-4.87-2.61-8.48-2.61c-1.32,0-2.75,0.12-4.28,0.37c-1.53,0.24-3.06,0.63-4.6,1.15
		c0,1.11,0.12,2.07,0.37,2.87c0.24,0.8,0.61,1.65,1.1,2.56c2.12-0.73,4.13-1.1,6.01-1.1c0.87,0,1.66,0.05,2.38,0.16
		c0.71,0.1,1.31,0.3,1.8,0.6c0.49,0.3,0.87,0.7,1.15,1.23c0.28,0.52,0.42,1.2,0.42,2.04v0.63c-1.22-0.1-2.33-0.16-3.34-0.16
		c-1.39,0-2.79,0.15-4.18,0.44c-1.39,0.3-2.65,0.78-3.79,1.46c-1.13,0.68-2.05,1.59-2.77,2.72c-0.71,1.13-1.07,2.53-1.07,4.2
		c0,1.67,0.29,3.08,0.86,4.23c0.57,1.15,1.39,2.09,2.45,2.82c1.06,0.73,2.33,1.25,3.81,1.57c1.48,0.31,3.11,0.47,4.88,0.47
		c2.19,0,4.16-0.17,5.9-0.52c1.74-0.35,3.22-0.71,4.44-1.1V41.12C278.86,37.29,277.84,34.5,275.81,32.76L275.81,32.76z"/>
	<path id="Fill-11" class="st0" d="M110.38,54.8c-0.91,0.17-1.83,0.31-2.77,0.42c-0.94,0.1-1.95,0.16-3.03,0.16
		c-0.84,0-1.67-0.06-2.51-0.18c-0.84-0.12-1.6-0.37-2.3-0.73c-0.7-0.37-1.26-0.9-1.7-1.59c-0.44-0.7-0.65-1.62-0.65-2.77
		c0-1.81,0.71-3.2,2.14-4.18c1.43-0.97,3.45-1.46,6.06-1.46c0.8,0,1.64,0.04,2.53,0.13c0.89,0.09,1.63,0.16,2.22,0.23V54.8z
		 M103.85,30.52c-1.39,0-2.75,0.1-4.07,0.29c-1.32,0.19-2.44,0.43-3.34,0.71c0,0.52,0.06,1.08,0.18,1.67
		c0.12,0.59,0.27,1.04,0.44,1.36c0.9-0.28,1.93-0.51,3.08-0.71c1.15-0.19,2.42-0.29,3.81-0.29c2.12,0,3.72,0.53,4.8,1.59
		c1.08,1.06,1.62,2.74,1.62,5.04v1.62c-0.59-0.07-1.34-0.15-2.25-0.24c-0.91-0.09-1.98-0.13-3.24-0.13c-1.6,0-3.07,0.19-4.41,0.57
		c-1.34,0.38-2.49,0.95-3.45,1.7c-0.96,0.75-1.71,1.67-2.24,2.77c-0.54,1.1-0.81,2.34-0.81,3.73c0,2.89,0.93,4.98,2.79,6.27
		c1.86,1.29,4.41,1.93,7.65,1.93c1.57,0,3.22-0.12,4.96-0.37c1.74-0.24,3.22-0.49,4.44-0.73v-17.6c0-3.17-0.82-5.49-2.45-6.97
		C109.74,31.26,107.23,30.52,103.85,30.52L103.85,30.52z"/>
	<path id="Fill-13" class="st0" d="M117.93,31.82c-0.02,0.28-0.03,0.56-0.03,0.84c0,0.28,0.01,0.54,0.03,0.78
		c0.02,0.24,0.04,0.45,0.08,0.63h3.34v23.71c0.21,0.04,0.5,0.06,0.89,0.08c0.38,0.02,0.66,0.03,0.84,0.03c0.21,0,0.5-0.01,0.86-0.03
		c0.37-0.02,0.65-0.04,0.86-0.08V31.15H118C117.97,31.32,117.94,31.55,117.93,31.82"/>
	<path id="Fill-15" class="st0" d="M119.62,24.62c0.31,0.03,0.7,0.06,1.15,0.08c0.45,0.02,0.84,0.03,1.15,0.03
		c0.28,0,0.63-0.01,1.05-0.03c0.42-0.02,0.76-0.04,1.04-0.08c0.03-0.31,0.06-0.7,0.08-1.15c0.02-0.45,0.03-0.84,0.03-1.15
		c0-0.28-0.01-0.63-0.03-1.04c-0.02-0.42-0.04-0.77-0.08-1.04c-0.28-0.03-0.63-0.06-1.04-0.08c-0.42-0.02-0.77-0.03-1.05-0.03
		c-0.31,0-0.7,0.01-1.15,0.03c-0.45,0.02-0.84,0.04-1.15,0.08c-0.04,0.28-0.06,0.63-0.08,1.04c-0.02,0.42-0.03,0.77-0.03,1.04
		c0,0.31,0.01,0.7,0.03,1.15C119.56,23.92,119.59,24.3,119.62,24.62"/>
	<path id="Fill-17" class="st0" d="M142.99,31.09h-0.55c-2.06,0-3.71,0.44-4.96,1.33c-1.25,0.89-2.23,1.98-2.92,3.26
		c0-0.7-0.02-1.47-0.05-2.32c-0.03-0.85-0.09-1.59-0.16-2.22c-0.28-0.03-0.54-0.06-0.78-0.08c-0.24-0.02-0.51-0.03-0.78-0.03
		c-0.24,0-0.5,0.01-0.76,0.03c-0.26,0.02-0.53,0.04-0.81,0.08v26.63c0.21,0.03,0.5,0.06,0.89,0.08s0.66,0.03,0.84,0.03
		c0.21,0,0.5-0.01,0.86-0.03c0.37-0.02,0.65-0.04,0.86-0.08V44.09c0-3.48,0.71-5.97,2.14-7.47c1.43-1.5,3.32-2.24,5.69-2.24h0.5
		c0.16,0,0.37,0.02,0.65,0.05c0.11-0.52,0.16-1.06,0.16-1.62c0-0.52-0.05-1.08-0.16-1.67C143.4,31.11,143.18,31.09,142.99,31.09"/>
	<g id="Group-21">
		<g id="Clip-20">
		</g>
		<defs>
			<filter id="Adobe_OpacityMaskFilter" filterUnits="userSpaceOnUse" x="0" y="0" width="80" height="80">
				<feColorMatrix  type="matrix" values="1 0 0 0 0  0 1 0 0 0  0 0 1 0 0  0 0 0 1 0"/>
			</filter>
		</defs>
		
			<mask maskUnits="userSpaceOnUse" x="0" y="0" width="80" height="80" id="mask-2_00000083789393471100316760000005710383358570071223_">
			<g class="st1">
				<polygon id="path-1_00000145056775728327793900000002101889542506465693_" class="st2" points="0,0 80,0 80,80 0,80 				"/>
			</g>
		</mask>
		<polygon id="Fill-19" class="st3" points="63.49,40 79.71,23.14 40.43,39.59 56.16,0 39.99,16.5 23.15,0.29 39.63,39.59 0,23.84 
			16.49,40 0.29,56.85 39.63,40.39 23.84,80 39.99,63.49 56.85,79.7 40.43,40.39 80,56.16 		"/>
	</g>
</g>
</svg>
