<?xml version="1.0" encoding="utf-8"?>
<!-- Generator: Adobe Illustrator 25.4.1, SVG Export Plug-In . SVG Version: 6.00 Build 0)  -->
<svg version="1.1" id="Layer_1" xmlns="http://www.w3.org/2000/svg" xmlns:xlink="http://www.w3.org/1999/xlink" x="0px" y="0px"
	 viewBox="0 0 124.2 80" style="enable-background:new 0 0 124.2 80;" xml:space="preserve">
<style type="text/css">
	.st0{fill:#287BEC;}
</style>
<path class="st0" d="M124.2,40c0-22.1-27.8-40-62.1-40C27.8,0,0,17.9,0,40s27.8,40,62.1,40c14.4,0,27.7-3.2,38.3-8.5
	c3.4,2,6.7,4.1,10,6.4v-4c0,0-2.5-2.1-5.9-4.8C116.6,61.9,124.2,51.5,124.2,40z M100.8,66.3c-5.1-4.1-10.8-8.4-12.8-9.4
	c-4-2,4.1-4.9,5.6-5.3c1.5-0.4,2.9-1.9,0.4-2.3c-1.7-0.3-11.5-4.2-37.6-5.6c2.2-2.6,6.4-8.2,7.5-13.1c0,0,1.4,0.8,3.4,1.9
	c2.1,1.1,4.9-1.6,5.1-2.2c0.2-0.6-5.5-1-8.2-1.1c-0.1,0-0.3,0-0.4,0c-0.1-0.4,0.7-1.2,1.9-1.7c1.5-0.6,5.5-0.5,7.2-0.6
	c1.6-0.1,5.6,0.5,6.5-0.6c0.9-1.1-0.7-0.6-2.3-1.4c-1.6-0.9,2.5-1.1,4.9-2.2c2.4-1.1,3.1-2.7,2.8-3.8c-0.3-1.1-0.6,0.2-1.9,0.9
	c-1.3,0.7-2.3,0.3-2-1.3c0.4-1.6,0.9-5.3,0.7-6.3c-0.2-1-0.8,0.4-1.6,2.2c-0.8,1.7-0.8,0.2-1.9-0.8c-1.1-1-2.8-2-3.9-1.9
	c-1.1,0.1-1.3,1.2-0.4,2.7c0.9,1.5,2.6,4.1,0.7,6.9c-1.9,2.9-8.4,4.6-11.5,4.7c-3.2,0.2-5.3-0.1-8-2.3c-2.7-2.2-0.3-5.5,0.2-6.2
	c0.5-0.7-0.1-1.3-0.6-1.2c-0.6,0.1-1.2,1.3-1.4,0.8c-0.2-0.5,0.1-2.2-1.1-1.2c-1.2,0.9-1.4,4.3-1.7,4.7c-0.3,0.4-1-2-1.3-2.3
	c-0.4-0.3-1.3,0.8,0.5,4.6c1.7,3.8,7.5,4,9.4,4.6c1.3,0.4,0.7,1,0.1,1.3c-0.4-0.1-7.2-1-13.6-0.5c0,0-1.2,0.2-1.5,1.1
	c-0.3,0.9,0.6,1.7,1.4,1.6c0.8-0.1,2.3,0.9,3.9,1.5s3.4,0.6,3.4,0.6s0.7,0.5-0.4,1.1c-0.9,0.6-7,6.1-9.3,8.9
	c-9-0.1-19.4,0.1-31.5,0.7c0,0-0.1,3.3,2.7,3.1c2.6-0.1,42.1,0.3,81.4,21.8c-9.4,4.3-21.1,6.9-33.6,6.9c-38.6,0-57-16-57-35.8
	s25.5-35.8,57-35.8c36.9,0,57,16,57,35.8C119.1,50.4,112,59.7,100.8,66.3z"/>
</svg>
