<?xml version="1.0" encoding="utf-8"?>
<!-- Generator: Adobe Illustrator 25.4.1, SVG Export Plug-In . SVG Version: 6.00 Build 0)  -->
<svg version="1.1" id="Layer_1" xmlns="http://www.w3.org/2000/svg" xmlns:xlink="http://www.w3.org/1999/xlink" x="0px" y="0px"
	 viewBox="0 0 648.2 80" style="enable-background:new 0 0 648.2 80;" xml:space="preserve">
<style type="text/css">
	.st0{fill:#287BEC;}
</style>
<g>
	<path class="st0" d="M190.5,30.5H182l-17.5,13.3l3.7-13.3h-8.5l-9.2,26.4h10.4l1.5-5.3c1.8-1.3,4.5-3.3,7.5-5.6l4.4,10.9h10
		l-6-17.2C184.7,34.8,190.5,30.5,190.5,30.5z"/>
	<path class="st0" d="M209,29.9c-9.6,0-18.5,9.6-18.5,17.1c0,7.6,6.4,10.8,16,10.8s17.6-6.9,19.6-14.2C229,33.2,218.6,29.9,209,29.9
		z M215.1,45.3c-1.9,4.5-5.9,8.3-9.5,7.4c-3.5-0.9-5.4-3.5-4.2-8.4c1.2-4.9,6-10.2,9.5-9.4C214.5,35.8,217.8,38.9,215.1,45.3z"/>
	<polygon class="st0" points="264.5,30.5 253.8,44.8 252.4,30.5 238.2,30.5 228.3,56.8 236,56.8 243.9,35.5 246,56.8 252.1,56.8 
		267.9,35.6 261.6,56.8 271.2,56.8 279.2,30.5 	"/>
	<polygon class="st0" points="310.7,30.5 291.3,48.1 297.1,30.5 288.6,30.5 279.2,56.8 288.6,56.8 306.2,40.7 301.5,56.8 311,56.8 
		320.3,30.5 	"/>
	<polygon class="st0" points="427,30.5 407.6,48.1 413.4,30.5 404.9,30.5 395.5,56.8 404.9,56.8 422.5,40.7 417.8,56.8 427.3,56.8 
		436.6,30.5 	"/>
	<path class="st0" d="M337.6,30.5L318,56.8h7.4l4.6-6.3h11.2l0.7,6.3h10.3L348,30.5H337.6z M332.5,47.2l7.2-9.8l1.1,9.8H332.5z"/>
	<path class="st0" d="M453.1,30.5l-19.6,26.4h7.4l4.6-6.3h11.2l0.7,6.3h10.3l-4.2-26.4H453.1z M448,47.2l7.2-9.8l1.1,9.8H448z"/>
	<path class="st0" d="M550.6,30.5L531,56.8h7.4l4.6-6.3h11.2l0.7,6.3h10.3L561,30.5H550.6z M545.5,47.2l7.2-9.8l1.1,9.8H545.5z"/>
	<path class="st0" d="M384.9,30.5c-6.4,0-19.2,0-19.2,0l-7.8,26.4h23.5c0,0,7.9,0.1,9.6-6.3c1.7-6.4-5.6-4.8-4.5-6.9
		c1.1-2.1,7.6-1.5,7.6-6S391.3,30.5,384.9,30.5z M380.1,48.9c-0.8,3.4-5.2,3.2-6.7,3.2c-1.4,0-4.1,0-4.1,0l2-6.4h5.5
		C376.8,45.7,380.9,45.5,380.1,48.9z M383.7,38.6c-0.8,3.4-5.2,3.2-6.7,3.2c-1.4,0-4.1,0-4.1,0l2-6.4h5.5
		C380.4,35.4,384.5,35.2,383.7,38.6z"/>
	<polygon class="st0" points="503,30.5 476.6,30.5 474.9,35.6 483.2,35.6 476.3,56.8 486.3,56.8 493.9,35.5 501,35.5 	"/>
	<path class="st0" d="M534.7,37.9c1.5-7.6-8.9-7.5-8.9-7.5h-7h-9.6l-8.4,26.4h9.1l3.3-9.6c2.1,0,5.5,0,8.9,0
		C527.7,47.2,533.2,45.5,534.7,37.9z M515,41.7l2.2-6.5c1.8,0,4.7,0,5.6,0c1.4,0,3,0,3,3c0,3-3.7,3.5-3.7,3.5H515L515,41.7z"/>
	<polygon class="st0" points="597.7,40.5 585.8,40.5 589.1,30.5 579.5,30.5 570.4,56.8 580.3,56.8 584.1,45.4 596,45.4 592.1,56.8 
		602,56.8 610.8,30.5 601.1,30.5 	"/>
	<path class="st0" d="M627.2,52.7c-3.5-0.9-5.4-3.5-4.2-8.4c1.2-4.9,6-10.2,9.5-9.4c2.1,0.5,4.1,1.8,4.9,4.1h10.7
		c-0.9-6.8-9.5-9.1-17.5-9.1c-9.6,0-18.5,9.6-18.5,17.1c0,7.6,6.4,10.8,16,10.8c7.2,0,13.4-3.9,17-8.9h-10.6
		C632.5,51.6,629.7,53.3,627.2,52.7z"/>
	<path class="st0" d="M124.2,40c0-22.1-27.8-40-62.1-40C27.8,0,0,17.9,0,40s27.8,40,62.1,40c14.4,0,27.7-3.2,38.3-8.5
		c3.4,2,6.7,4.1,10,6.4v-4c0,0-2.5-2.1-5.9-4.8C116.6,61.9,124.2,51.5,124.2,40z M100.8,66.3c-5.1-4.1-10.8-8.4-12.8-9.4
		c-4-2,4.1-4.9,5.6-5.3c1.5-0.4,2.9-1.9,0.4-2.3c-1.7-0.3-11.5-4.2-37.6-5.6c2.2-2.6,6.4-8.2,7.5-13.1c0,0,1.4,0.8,3.4,1.9
		c2.1,1.1,4.9-1.6,5.1-2.2c0.2-0.6-5.5-1-8.2-1.1c-0.1,0-0.3,0-0.4,0c-0.1-0.4,0.7-1.2,1.9-1.7c1.5-0.6,5.5-0.5,7.2-0.6
		c1.6-0.1,5.6,0.5,6.5-0.6c0.9-1.1-0.7-0.6-2.3-1.4c-1.6-0.9,2.5-1.1,4.9-2.2c2.4-1.1,3.1-2.7,2.8-3.8c-0.3-1.1-0.6,0.2-1.9,0.9
		c-1.3,0.7-2.3,0.3-2-1.3c0.4-1.6,0.9-5.3,0.7-6.3c-0.2-1-0.8,0.4-1.6,2.2c-0.8,1.7-0.8,0.2-1.9-0.8c-1.1-1-2.8-2-3.9-1.9
		c-1.1,0.1-1.3,1.2-0.4,2.7c0.9,1.5,2.6,4.1,0.7,6.9c-1.9,2.9-8.4,4.6-11.5,4.7c-3.2,0.2-5.3-0.1-8-2.3c-2.7-2.2-0.3-5.5,0.2-6.2
		c0.5-0.7-0.1-1.3-0.6-1.2c-0.6,0.1-1.2,1.3-1.4,0.8c-0.2-0.5,0.1-2.2-1.1-1.2c-1.2,0.9-1.4,4.3-1.7,4.7c-0.3,0.4-1-2-1.3-2.3
		c-0.4-0.3-1.3,0.8,0.5,4.6c1.7,3.8,7.5,4,9.4,4.6c1.3,0.4,0.7,1,0.1,1.3c-0.4-0.1-7.2-1-13.6-0.5c0,0-1.2,0.2-1.5,1.1
		c-0.3,0.9,0.6,1.7,1.4,1.6c0.8-0.1,2.3,0.9,3.9,1.5s3.4,0.6,3.4,0.6s0.7,0.5-0.4,1.1c-0.9,0.6-7,6.1-9.3,8.9
		c-9-0.1-19.4,0.1-31.5,0.7c0,0-0.1,3.3,2.7,3.1c2.6-0.1,42.1,0.3,81.4,21.8c-9.4,4.3-21.1,6.9-33.6,6.9c-38.6,0-57-16-57-35.8
		s25.5-35.8,57-35.8c36.9,0,57,16,57,35.8C119.1,50.4,112,59.7,100.8,66.3z"/>
</g>
</svg>
