<?xml version="1.0" encoding="utf-8"?>
<!-- Generator: Adobe Illustrator 25.4.1, SVG Export Plug-In . SVG Version: 6.00 Build 0)  -->
<svg version="1.1" id="Layer_2_00000159471598350358213750000014612203606435250611_"
	 xmlns="http://www.w3.org/2000/svg" xmlns:xlink="http://www.w3.org/1999/xlink" x="0px" y="0px" viewBox="0 0 132.2 80"
	 style="enable-background:new 0 0 132.2 80;" xml:space="preserve">
<style type="text/css">
	.st0{fill-rule:evenodd;clip-rule:evenodd;fill:#440F08;}
	.st1{fill-rule:evenodd;clip-rule:evenodd;fill:#F2A22E;}
	.st2{fill-rule:evenodd;clip-rule:evenodd;fill:#45120A;}
</style>
<g>
	<path class="st0" d="M58.2,4.2c1-0.1,1.9-0.1,2.9-0.2c1.1-0.1,2.2-0.5,3.1-1.1c1-0.7,2-1.3,3-2c1.7-1.2,3.5-1.2,5.4-0.4
		C76.3,2.3,80,4,83.7,5.7c1.5,0.7,3.1,0.9,4.7,0.7c1.8-0.3,2.7,0.4,3.5,1.9c0.9,1.6,1.7,3.2,2.5,4.7c2.2,4.2,4.5,8.4,6.8,12.6
		c0.1,0.3,0.3,0.5,0.6,0.7c1.3,1.1,2.5,2.3,3.7,3.4c0.4,0.3,0.7,0.4,1.2,0.3c2.2-0.5,4.5-1,6.7-1.5c0.3-0.1,0.6-0.2,0.8-0.4
		c0.5-0.4,0.7-0.2,0.8,0.4c0.1,1.2-0.3,2.3-0.7,3.4c-2.1,5.4-5.6,9.6-10.6,12.5c-0.5,0.3-0.7,0.6-0.7,1.2c0,2.2-0.1,4.5-0.2,6.7
		c-0.1,1.6-1.1,2.6-2.4,3.3c-1.1,0.6-1.8,1.5-2.1,2.7c-0.7,3-1.8,5.9-2.9,8.7c-0.9,2.4-1.8,4.8-3.2,6.9c-0.5,0.9-1.1,1.8-1.8,2.6
		c-1.4,1.8-3.4,2.6-5.6,2.9C83.9,79.6,83,80,82,80c-1.3-0.1-2.3-0.6-3.1-1.6c-1.6-2.3-2.6-4.9-2.5-7.8c0-0.4-0.1-0.7-0.3-1.1
		c-1.2-1.9-2.4-3.8-3.9-5.4c-0.2-0.2-0.2-0.5-0.2-0.8c0-2.2,0-4.3,0-6.5c0-0.4,0.1-0.7,0.3-1c0.7-1.5,0.6-2.8-0.5-4
		c-1.1-1.2-2-2.6-2.6-4.2c-0.3-0.6-0.4-1.3-0.3-2c0.1-0.3-0.1-0.5-0.3-0.7c-0.9-1.1-1.1-2.3-0.5-3.6c0.6-1.2-0.6-3.3-1.9-3.4
		c-0.8,0-1.6-0.3-2.3-0.6c-0.4-0.2-0.7-0.2-1,0.1c-0.4,0.5-1,0.5-1.6,0.5c-3.1-0.2-6.1-0.5-9.1-1.4c-1.6-0.4-2.9-1.4-3.7-2.8
		c-1.8-2.8-3.4-5.7-4.7-8.8c-0.7-1.5-0.6-3.1,0-4.6c0.7-1.8,1.6-3.3,2.7-4.9c1.8-2.7,3.5-5.5,5.7-7.9c0.7-0.7,1.4-1.4,2-2.2
		c0.6-0.9,1.6-1.2,2.7-1.1C57.3,4.2,57.8,4.2,58.2,4.2"/>
	<path class="st1" d="M92.9,5.1c1.3-0.3,2.5-0.2,3.6-0.3c4.3-0.3,8.6-0.3,12.8,0.1c2.2,0.2,4.4,0.3,6.5,0.7
		c4.1,0.7,8.2,1.8,11.7,4.2c1.7,1.2,3.2,2.5,4.1,4.5c0.7,1.5,0.6,3.1,0.3,4.7c-0.8,4-3.3,6.8-6.3,9.3c-1.1,0.9-2.3,1.7-3.4,2.6
		c-0.3,0.2-0.5,0.2-0.8-0.1c-1-1.4-1-1.4,0.2-2.5c1.9-1.9,3.7-3.9,4.7-6.4c1.3-3.1,0.6-5.3-1.7-7.6c-2.4-2.3-5.4-3.7-8.5-4.8
		c-6.4-2.1-13-2.3-19.7-2.1c-0.6,0-1.4,0.3-1.8-0.1C94,6.8,93.4,6,92.9,5.1"/>
	<path class="st1" d="M0,33.9c13.7-10.2,29-17,45.5-21.2c0.2,0.6-0.3,1-0.3,1.6c-0.1,0.6-0.7,0.6-1.2,0.8c-4.4,1.4-8.8,2.8-13.1,4.4
		c-5.4,2.1-10.8,4.4-15.9,7.1c-3.9,2-7.6,4.3-11,7.1c-0.4,0.3-0.8,0.5-1.4,0.5c-0.9,0-1.7,0-2.6,0L0,33.9z"/>
	<path class="st2" d="M108,56.3c0.6,1.1,0.9,2.2,1,3.2c0.1,0.9,0,1.7-0.4,2.5c-1,2.6-1.7,5.2-2.3,7.9l0,0.2
		c-0.3,1.4-1.1,2.2-2.2,2.2c-1.3,0-2.4-0.9-2.7-2.3c-0.3-1.6,0-3.1,0.6-4.5c0.4-1,0.7-2,0.4-3.1c-0.2-0.6,0.1-1,0.7-1.3
		c1.4-0.7,2.6-1.7,3.7-2.9C107.2,57.8,107.6,57.1,108,56.3"/>
	<path class="st2" d="M37.6,26.8c0-0.4,0-0.8-0.4-1.1c-0.4-0.2-0.8-0.6-0.6-1.2c0.3-0.6,1.1-1.3,1.6-1.1c1,0.3,1.9,0.7,2.5,1.5
		c0.1,0.2,0.3,0.3,0.3,0.5c0.2,1.2-1.5,2.8-2.7,2.5C37.8,27.9,37.4,27.5,37.6,26.8"/>
</g>
</svg>
