<?xml version="1.0" encoding="utf-8"?>
<!-- Generator: Adobe Illustrator 25.4.1, SVG Export Plug-In . SVG Version: 6.00 Build 0)  -->
<svg version="1.1" id="Layer_2_00000159471598350358213750000014612203606435250611_"
	 xmlns="http://www.w3.org/2000/svg" xmlns:xlink="http://www.w3.org/1999/xlink" x="0px" y="0px" viewBox="0 0 155.4 80"
	 style="enable-background:new 0 0 155.4 80;" xml:space="preserve">
<style type="text/css">
	.st0{fill-rule:evenodd;clip-rule:evenodd;fill:#440F08;}
	.st1{fill-rule:evenodd;clip-rule:evenodd;fill:#F4A12B;}
	.st2{fill-rule:evenodd;clip-rule:evenodd;fill:#F2A22E;}
	.st3{fill-rule:evenodd;clip-rule:evenodd;fill:#45120A;}
	.st4{fill:#450E06;}
</style>
<g>
	<path class="st0" d="M101,3.1c0.7,0,1.4-0.1,2.1-0.1c0.8-0.1,1.6-0.3,2.3-0.8c0.7-0.5,1.5-1,2.2-1.5c1.3-0.9,2.6-0.9,3.9-0.3
		c2.7,1.2,5.5,2.5,8.2,3.8c1.1,0.5,2.3,0.7,3.5,0.5c1.4-0.2,2,0.3,2.6,1.4c0.6,1.1,1.2,2.3,1.8,3.5c1.6,3.1,3.3,6.2,5,9.3
		c0.1,0.2,0.2,0.4,0.4,0.5c0.9,0.8,1.8,1.7,2.7,2.5c0.3,0.3,0.5,0.3,0.9,0.2c1.6-0.4,3.3-0.8,4.9-1.1c0.2-0.1,0.4-0.1,0.6-0.3
		c0.4-0.3,0.5-0.2,0.6,0.3c0.1,0.9-0.2,1.7-0.5,2.5c-1.5,4-4.1,7-7.8,9.2c-0.4,0.2-0.5,0.4-0.5,0.9c0,1.6-0.1,3.3-0.2,4.9
		c-0.1,1.2-0.8,1.9-1.7,2.4c-0.8,0.5-1.3,1.1-1.5,2c-0.5,2.2-1.3,4.3-2.1,6.4c-0.7,1.8-1.3,3.5-2.3,5.1c-0.4,0.7-0.8,1.3-1.3,1.9
		c-1,1.3-2.5,1.9-4.1,2.1c-0.7,0.1-1.4,0.4-2.1,0.4c-1,0-1.7-0.4-2.3-1.2c-1.2-1.7-1.9-3.6-1.8-5.7c0-0.3-0.1-0.5-0.2-0.8
		c-0.9-1.4-1.7-2.8-2.8-4c-0.2-0.2-0.2-0.3-0.2-0.6c0-1.6,0-3.2,0-4.7c0-0.3,0.1-0.5,0.2-0.7c0.5-1.1,0.5-2-0.4-3
		c-0.8-0.9-1.5-1.9-1.9-3.1c-0.2-0.5-0.3-1-0.2-1.5c0.1-0.2,0-0.4-0.2-0.5c-0.7-0.8-0.8-1.7-0.4-2.6c0.4-0.9-0.4-2.5-1.4-2.5
		c-0.6,0-1.2-0.2-1.7-0.5c-0.3-0.1-0.5-0.2-0.7,0.1c-0.3,0.3-0.7,0.4-1.2,0.4c-2.3-0.2-4.5-0.4-6.7-1c-1.2-0.3-2.1-1-2.7-2.1
		c-1.3-2.1-2.5-4.2-3.5-6.4c-0.5-1.1-0.5-2.3,0-3.4c0.5-1.3,1.2-2.5,2-3.6c1.3-2,2.6-4,4.2-5.8c0.5-0.5,1-1,1.5-1.7
		c0.5-0.7,1.2-0.9,2-0.8C100.3,3.1,100.7,3.1,101,3.1"/>
	<path class="st0" d="M1.1,59.5c1.5-3.1,3-6.1,4.5-9.2h-3c0.4-0.7,0.7-1.3,1.1-2c0.7-1.2,1.3-2.4,2-3.6c0.1-0.3,0.3-0.4,0.6-0.4
		c0.6,0,1.2,0,1.8,0c0.3,0,0.5-0.1,0.6-0.4c1.7-3.6,3.5-7.2,5.2-10.8c0.8-1.6,1.6-3.3,2.4-4.9c0.1-0.3,0.3-0.5,0.7-0.4
		c4.3,0,8.6,0,12.9,0c0.4,0,0.5,0.1,0.6,0.5c2.2,6.4,4.4,12.7,6.7,19.1c1.4,3.9,2.7,7.9,4.1,11.8c0,0.1,0.1,0.2,0.1,0.3h-0.5
		c-3.2,0-6.4,0-9.6,0c-0.5,0-0.6-0.2-0.7-0.6c-0.8-2.7-1.7-5.5-2.5-8.2c-0.1-0.4-0.3-0.5-0.7-0.5c-3.5,0-7,0-10.5,0
		c-0.4,0-0.6,0.1-0.7,0.4c-1.3,2.8-2.7,5.6-4.1,8.3c-0.2,0.4-0.4,0.5-0.8,0.5C7.9,59.5,4.5,59.5,1.1,59.5 M23.3,35.9
		c-1.4,2.9-2.8,5.7-4.2,8.5c2.2,0,4.4,0,6.5,0c0.3,0,0.3-0.1,0.2-0.3c-0.2-0.5-0.3-1.1-0.5-1.6C24.7,40.3,24,38.2,23.3,35.9"/>
	<path class="st1" d="M85.6,49.6c-1.2-2.6-2.4-5.1-3.6-7.7c-0.3-0.7-0.6-1.4-1-2.2c-0.7,0.9-1.4,1.7-2.1,2.6
		c-1.1,1.4-2.3,2.9-3.4,4.3c-0.3,0.3-0.2,0.5,0,0.8c0.7,1.1,1.5,2.2,2.2,3.4l-0.2,0.1c-2.3,0.3-4.6,0.6-6.9,0.8
		c-0.7-0.9-1.2-2-1.8-3c-0.3-0.5-0.5-0.9-0.8-1.4c-0.1-0.2-0.2-0.4,0-0.7c2.1-3,4.2-6,6.4-8.9c0.6-0.8,1.1-1.6,1.7-2.4
		c0.2-0.3,0.4-0.4,0.8-0.4c3.1,0,6.1,0,9.2,0c0.5,0,0.7,0.2,0.9,0.6c1.4,2.9,2.7,5.8,4.1,8.8c0.5-0.8,1-1.6,1.5-2.4
		c1.3-2.2,2.6-4.4,3.9-6.6c0.2-0.3,0.3-0.4,0.7-0.4c2.4,0,4.8,0,7.2,0c0.1,0,0.4-0.1,0.5,0.1c0.1,0.2-0.1,0.3-0.2,0.4
		c-1.7,2.4-3.3,4.8-5,7.1c-1,1.5-2.1,3-3.2,4.5C96,47.2,87,49.5,85.6,49.6"/>
	<path class="st1" d="M51.2,51.3c-1.5-1.4-3.4-2.1-5.2-2.8c-1.4-0.6-2.6-1.4-3.3-2.8c-0.3-0.5-0.4-1.1-0.5-1.7c-0.2-2-0.2-4,1.1-5.7
		c1-1.4,2.4-2.2,3.9-2.7c2.6-0.8,5.2-0.8,7.9-0.2c0.5,0.1,1,0.3,1.5,0.4c0.2,0.1,0.4,0.2,0.4,0.5c0,1.4,0,2.8,0,4.1
		c0,0.3-0.1,0.4-0.5,0.3c-1.9-0.7-3.8-1.1-5.9-0.9c-0.5,0-1,0.1-1.4,0.4c-1.4,0.7-1.5,2.1-0.2,3c1.2,0.8,2.5,1.3,3.8,1.8
		c2.1,0.8,3.9,1.8,4.8,4c0.4,1,0.7,2.1,0.5,3.2C55.8,52,53.5,51.7,51.2,51.3"/>
	<path class="st1" d="M59.1,52.1c0-0.4,0-0.9,0.1-1.3c0.1-2.1,0.3-4.1,0.4-6.2c0.2-2.9,0.4-5.8,0.6-8.7c0.1-1,0.1-1,1.1-1
		c2.1,0,4.2,0,6.3,0c0.3,0,0.5,0.1,0.5,0.5c-0.1,1.9-0.3,3.9-0.4,5.8c-0.2,3.1-0.4,6.3-0.7,9.4c0,0.5-0.1,0.9-0.1,1.4
		C64.2,52.1,61.7,52.3,59.1,52.1"/>
	<path class="st2" d="M126.5,3.8c0.9-0.2,1.8-0.2,2.7-0.2c3.1-0.2,6.3-0.2,9.4,0c1.6,0.1,3.2,0.3,4.8,0.5c3,0.6,6,1.3,8.6,3.1
		c1.3,0.9,2.4,1.9,3,3.3c0.5,1.1,0.5,2.3,0.2,3.4c-0.6,2.9-2.4,5-4.6,6.9c-0.8,0.7-1.7,1.3-2.5,1.9c-0.2,0.2-0.4,0.2-0.6-0.1
		c-0.7-1-0.7-1,0.2-1.9c1.4-1.4,2.7-2.8,3.5-4.7c0.9-2.3,0.4-3.9-1.3-5.6c-1.8-1.7-4-2.8-6.3-3.5c-4.7-1.5-9.6-1.7-14.5-1.6
		c-0.5,0-1,0.2-1.4-0.1C127.3,5,126.9,4.4,126.5,3.8"/>
	<path class="st3" d="M51.2,51.3c2.3,0.4,4.6,0.7,6.9,0.7c0,3.5-1.8,6.2-5.7,7.1c-3.2,0.7-6.4,0.5-9.5-0.4c-0.4-0.1-0.6-0.3-0.7-0.7
		c-0.6-1.7-1.2-3.4-1.8-5.1c1.7,0.7,3.4,1,5.2,1.4c1.4,0.3,2.8,0.3,4.2,0.1C51.1,54.2,52.1,52.7,51.2,51.3"/>
	<path class="st0" d="M85.6,49.6c0.9-0.3,1.6-0.4,2.4-0.5c2.7-0.6,8.3-2,8.4-1.9c-0.7,1.1-1.5,2.1-2.2,3.2c-0.2,0.2-0.2,0.5-0.2,0.8
		c0,2.6,0,5.2,0,7.9c0,0.4-0.1,0.5-0.5,0.5c-2.3,0-4.6,0-6.9,0c-0.4,0-0.5-0.1-0.5-0.5c0-2.4,0-4.9,0-7.3
		C86.1,50.9,86,50.2,85.6,49.6"/>
	<path class="st3" d="M70.4,51.7c2.3-0.2,7.1-0.9,7.2-0.9c1.2,1.9,2.5,3.7,3.7,5.6c0.7,1,1.3,2,2,3c-0.1,0.1-0.3,0.1-0.4,0.1
		c-2.6,0-5.1,0-7.7,0c-0.3,0-0.5-0.1-0.7-0.4c-1.3-2.4-2.7-4.8-4-7.2L70.4,51.7z"/>
	<path class="st3" d="M59.1,52.1c2.6,0.2,5.1,0,7.7-0.1c-0.2,2.4-0.3,4.7-0.5,7c0,0.3-0.1,0.4-0.4,0.4c-2.3,0-4.7,0-7,0
		c-0.2,0-0.4,0-0.4-0.3C58.8,56.8,58.9,54.5,59.1,52.1"/>
	<path class="st2" d="M58.2,24.9c10.1-7.5,21.3-12.5,33.5-15.6c0.1,0.4-0.2,0.8-0.2,1.2c-0.1,0.5-0.5,0.5-0.9,0.6
		c-3.2,1-6.5,2.1-9.6,3.3c-4,1.5-7.9,3.2-11.7,5.2c-2.8,1.5-5.6,3.2-8.1,5.2c-0.3,0.2-0.6,0.4-1,0.3c-0.6,0-1.3,0-1.9,0L58.2,24.9z"
		/>
	<path class="st3" d="M137.6,41.4c0.4,0.8,0.6,1.6,0.7,2.4c0.1,0.6,0,1.2-0.3,1.8c-0.7,1.9-1.3,3.8-1.7,5.8l0,0.2
		c-0.2,1-0.8,1.6-1.6,1.6c-0.9,0-1.7-0.7-1.9-1.7c-0.3-1.2,0-2.3,0.4-3.3c0.3-0.7,0.5-1.5,0.3-2.3c-0.1-0.5,0.1-0.7,0.5-0.9
		c1-0.5,1.9-1.3,2.7-2.1C137,42.5,137.3,42,137.6,41.4"/>
	<path class="st3" d="M85.8,19.7c0-0.3,0-0.6-0.3-0.8c-0.3-0.2-0.6-0.4-0.4-0.8c0.2-0.5,0.8-0.9,1.2-0.8c0.7,0.2,1.4,0.5,1.9,1.1
		c0.1,0.1,0.2,0.2,0.2,0.4c0.1,0.9-1.1,2-1.9,1.8C86,20.5,85.7,20.2,85.8,19.7"/>
	<polygon class="st4" points="4.7,74.9 2.7,74.9 2.7,79.9 2,79.9 2,74.9 0,74.9 0,74.3 4.7,74.3 	"/>
	<path class="st4" d="M11.2,79.9h-0.7v-2.4c0-0.2,0-0.4,0-0.5c0-0.2-0.1-0.3-0.1-0.4l-0.3-0.2c-0.1-0.1-0.3-0.1-0.5-0.1
		c-0.2,0-0.4,0-0.6,0.1c-0.2,0.1-0.4,0.2-0.6,0.4v3.1H7.7V74h0.7v2.1c0.2-0.2,0.4-0.3,0.7-0.4c0.2-0.1,0.5-0.2,0.7-0.2
		c0.5,0,0.8,0.1,1,0.4c0.2,0.3,0.4,0.7,0.4,1.2V79.9z"/>
	<path class="st4" d="M18.4,77.9h-3.1c0,0.3,0,0.5,0.1,0.7c0.1,0.2,0.2,0.3,0.3,0.5c0.1,0.1,0.3,0.2,0.5,0.3
		c0.2,0.1,0.4,0.1,0.6,0.1c0.3,0,0.6-0.1,0.9-0.2c0.3-0.1,0.5-0.2,0.6-0.3h0v0.8c-0.2,0.1-0.5,0.2-0.7,0.3c-0.2,0.1-0.5,0.1-0.8,0.1
		c-0.7,0-1.2-0.2-1.6-0.6c-0.4-0.4-0.6-0.9-0.6-1.6c0-0.7,0.2-1.2,0.6-1.6c0.4-0.4,0.9-0.6,1.5-0.6c0.6,0,1,0.2,1.3,0.5
		c0.3,0.3,0.5,0.8,0.5,1.4V77.9z M17.7,77.3c0-0.4-0.1-0.7-0.3-0.9c-0.2-0.2-0.5-0.3-0.8-0.3c-0.4,0-0.7,0.1-0.9,0.3
		c-0.2,0.2-0.4,0.5-0.4,0.8H17.7z"/>
	<path class="st4" d="M30.5,76c0,0.2,0,0.5-0.1,0.7c-0.1,0.2-0.2,0.4-0.4,0.6c-0.2,0.2-0.4,0.3-0.7,0.4c-0.3,0.1-0.6,0.1-1,0.1h-0.7
		v2.1h-0.7v-5.6h1.5c0.3,0,0.6,0,0.9,0.1c0.2,0.1,0.4,0.1,0.6,0.3c0.2,0.1,0.4,0.3,0.5,0.5C30.4,75.4,30.5,75.7,30.5,76 M29.7,76
		c0-0.2,0-0.4-0.1-0.5c-0.1-0.1-0.2-0.3-0.3-0.4C29.2,75.1,29,75,28.9,75c-0.2,0-0.3-0.1-0.6-0.1h-0.7v2.2h0.6c0.3,0,0.5,0,0.7-0.1
		c0.2-0.1,0.3-0.1,0.5-0.3l0.2-0.4C29.7,76.3,29.7,76.2,29.7,76"/>
	<path class="st4" d="M36.8,79.9H36v-0.4l-0.3,0.2l-0.3,0.2c-0.1,0.1-0.3,0.1-0.4,0.1c-0.2,0-0.3,0.1-0.5,0.1c-0.4,0-0.7-0.1-1-0.4
		c-0.3-0.3-0.4-0.6-0.4-1c0-0.3,0.1-0.6,0.2-0.8c0.1-0.2,0.3-0.3,0.6-0.5c0.3-0.1,0.6-0.2,0.9-0.2c0.4,0,0.7-0.1,1.1-0.1V77
		c0-0.2,0-0.3-0.1-0.4l-0.2-0.2c-0.1-0.1-0.2-0.1-0.4-0.1c-0.1,0-0.3,0-0.4,0c-0.2,0-0.4,0-0.6,0.1c-0.2,0-0.5,0.1-0.7,0.2h0v-0.7
		c0.1,0,0.3-0.1,0.6-0.1c0.3,0,0.5-0.1,0.8-0.1c0.3,0,0.6,0,0.8,0.1c0.2,0,0.4,0.1,0.6,0.3c0.2,0.1,0.3,0.3,0.4,0.4
		c0.1,0.2,0.1,0.4,0.1,0.7V79.9z M36,78.9v-1.2c-0.2,0-0.5,0-0.8,0.1c-0.3,0-0.5,0.1-0.7,0.1c-0.2,0.1-0.4,0.1-0.5,0.3
		c-0.1,0.1-0.2,0.3-0.2,0.5c0,0.2,0.1,0.4,0.2,0.5c0.1,0.1,0.4,0.2,0.7,0.2c0.2,0,0.5,0,0.7-0.1C35.7,79.1,35.9,79,36,78.9"/>
	<path class="st4" d="M43.9,79.9h-0.7v-2.4c0-0.2,0-0.4,0-0.5c0-0.2-0.1-0.3-0.1-0.4l-0.3-0.2c-0.1-0.1-0.3-0.1-0.5-0.1
		c-0.2,0-0.4,0-0.6,0.1c-0.2,0.1-0.4,0.2-0.6,0.4v3.1h-0.7v-4.2h0.7v0.5c0.2-0.2,0.4-0.3,0.7-0.4c0.2-0.1,0.5-0.2,0.7-0.2
		c0.5,0,0.8,0.1,1,0.4c0.2,0.3,0.4,0.7,0.4,1.2V79.9z"/>
	<path class="st4" d="M57,79.9h-0.8l-0.5-1.6h-2.4l-0.5,1.6H52l2-5.6h1L57,79.9z M55.5,77.7l-1-2.7l-1,2.7H55.5z"/>
	<path class="st4" d="M62.4,74.7L62.4,74.7L62,74.6l-0.3,0c-0.3,0-0.5,0.1-0.7,0.2c-0.1,0.1-0.2,0.4-0.2,0.7v0.1h1.3v0.6h-1.2v3.6
		h-0.7v-3.6h-0.5v-0.6h0.5v-0.1c0-0.5,0.1-0.9,0.4-1.1c0.2-0.3,0.6-0.4,1.1-0.4c0.2,0,0.3,0,0.4,0l0.3,0.1V74.7z"/>
	<path class="st4" d="M67.7,76.5L67.7,76.5l-0.3-0.1l-0.4,0c-0.2,0-0.4,0-0.6,0.1c-0.2,0.1-0.4,0.2-0.6,0.4v3h-0.7v-4.2h0.7v0.6
		c0.3-0.2,0.5-0.4,0.7-0.5c0.2-0.1,0.4-0.1,0.7-0.1l0.3,0l0.2,0V76.5z"/>
	<path class="st4" d="M71.4,75h-0.8v-0.7h0.8V75z M71.4,79.9h-0.7v-4.2h0.7V79.9z"/>
	<path class="st4" d="M78.2,79.6c-0.2,0.1-0.5,0.2-0.7,0.3c-0.2,0.1-0.4,0.1-0.7,0.1c-0.3,0-0.6,0-0.8-0.1c-0.3-0.1-0.5-0.2-0.6-0.4
		c-0.2-0.2-0.3-0.4-0.4-0.7c-0.1-0.3-0.2-0.6-0.2-1c0-0.7,0.2-1.2,0.6-1.6c0.4-0.4,0.9-0.6,1.5-0.6c0.2,0,0.5,0,0.7,0.1
		c0.2,0.1,0.4,0.2,0.6,0.2v0.8h0c-0.2-0.2-0.4-0.3-0.7-0.4c-0.2-0.1-0.5-0.1-0.7-0.1c-0.4,0-0.7,0.1-0.9,0.4
		c-0.2,0.3-0.3,0.7-0.3,1.2c0,0.5,0.1,0.9,0.3,1.2c0.2,0.3,0.5,0.4,1,0.4c0.1,0,0.3,0,0.4-0.1c0.1,0,0.3-0.1,0.4-0.1l0.3-0.2
		l0.2-0.2h0V79.6z"/>
	<path class="st4" d="M84.7,79.9H84v-0.4l-0.3,0.2l-0.3,0.2c-0.1,0.1-0.3,0.1-0.4,0.1c-0.2,0-0.3,0.1-0.5,0.1c-0.4,0-0.7-0.1-1-0.4
		c-0.3-0.3-0.4-0.6-0.4-1c0-0.3,0.1-0.6,0.2-0.8c0.1-0.2,0.3-0.3,0.6-0.5c0.3-0.1,0.6-0.2,0.9-0.2c0.4,0,0.7-0.1,1.2-0.1V77
		c0-0.2,0-0.3-0.1-0.4l-0.2-0.2l-0.4-0.1c-0.1,0-0.3,0-0.4,0c-0.2,0-0.4,0-0.6,0.1c-0.2,0-0.5,0.1-0.7,0.2h0v-0.7
		c0.1,0,0.3-0.1,0.6-0.1c0.3,0,0.5-0.1,0.8-0.1c0.3,0,0.6,0,0.8,0.1c0.2,0,0.4,0.1,0.6,0.3c0.2,0.1,0.3,0.3,0.4,0.4
		c0.1,0.2,0.1,0.4,0.1,0.7V79.9z M84,78.9v-1.2c-0.2,0-0.5,0-0.8,0.1c-0.3,0-0.5,0.1-0.7,0.1c-0.2,0.1-0.4,0.1-0.5,0.3
		c-0.1,0.1-0.2,0.3-0.2,0.5c0,0.2,0.1,0.4,0.2,0.5c0.1,0.1,0.4,0.2,0.7,0.2c0.2,0,0.5,0,0.7-0.1C83.6,79.1,83.8,79,84,78.9"/>
	<path class="st4" d="M91.8,79.9h-0.7v-2.4c0-0.2,0-0.4,0-0.5c0-0.2-0.1-0.3-0.1-0.4l-0.3-0.2c-0.1-0.1-0.3-0.1-0.5-0.1
		c-0.2,0-0.4,0-0.6,0.1c-0.2,0.1-0.4,0.2-0.6,0.4v3.1h-0.7v-4.2H89v0.5c0.2-0.2,0.4-0.3,0.7-0.4c0.2-0.1,0.5-0.2,0.7-0.2
		c0.5,0,0.8,0.1,1,0.4c0.2,0.3,0.4,0.7,0.4,1.2V79.9z"/>
	<path class="st4" d="M104.9,79.9h-0.8l-0.5-1.6h-2.4l-0.5,1.6h-0.8l2-5.6h1L104.9,79.9z M103.4,77.7l-1-2.7l-1,2.7H103.4z"/>
	<path class="st4" d="M108.8,75H108v-0.7h0.8V75z M108.7,79.9H108v-4.2h0.7V79.9z"/>
	<path class="st4" d="M115,76.5L115,76.5l-0.3-0.1l-0.3,0c-0.2,0-0.4,0-0.6,0.1c-0.2,0.1-0.4,0.2-0.6,0.4v3h-0.7v-4.2h0.7v0.6
		c0.3-0.2,0.5-0.4,0.7-0.5c0.2-0.1,0.4-0.1,0.7-0.1l0.3,0l0.2,0V76.5z"/>
	<rect x="118" y="74" class="st4" width="0.7" height="5.9"/>
	<path class="st4" d="M123.2,75h-0.8v-0.7h0.8V75z M123.1,79.9h-0.7v-4.2h0.7V79.9z"/>
	<path class="st4" d="M130.3,79.9h-0.7v-2.4c0-0.2,0-0.4,0-0.5c0-0.2-0.1-0.3-0.1-0.4l-0.3-0.2c-0.1-0.1-0.3-0.1-0.5-0.1
		c-0.2,0-0.4,0-0.6,0.1c-0.2,0.1-0.4,0.2-0.6,0.4v3.1h-0.7v-4.2h0.7v0.5c0.2-0.2,0.4-0.3,0.7-0.4c0.2-0.1,0.5-0.2,0.7-0.2
		c0.5,0,0.8,0.1,1,0.4c0.2,0.3,0.4,0.7,0.4,1.2V79.9z"/>
	<path class="st4" d="M137.5,77.9h-3.1c0,0.3,0,0.5,0.1,0.7c0.1,0.2,0.2,0.3,0.3,0.5c0.1,0.1,0.3,0.2,0.5,0.3
		c0.2,0.1,0.4,0.1,0.6,0.1c0.3,0,0.6-0.1,0.9-0.2c0.3-0.1,0.5-0.2,0.6-0.3h0v0.8c-0.2,0.1-0.5,0.2-0.7,0.3c-0.2,0.1-0.5,0.1-0.8,0.1
		c-0.7,0-1.2-0.2-1.6-0.6c-0.4-0.4-0.6-0.9-0.6-1.6c0-0.7,0.2-1.2,0.6-1.6c0.4-0.4,0.9-0.6,1.5-0.6c0.6,0,1,0.2,1.3,0.5
		c0.3,0.3,0.5,0.8,0.5,1.4V77.9z M136.8,77.3c0-0.4-0.1-0.7-0.3-0.9c-0.2-0.2-0.5-0.3-0.8-0.3c-0.4,0-0.7,0.1-0.9,0.3
		c-0.2,0.2-0.3,0.5-0.4,0.8H136.8z"/>
</g>
</svg>
