<?xml version="1.0" encoding="utf-8"?>
<!-- Generator: Adobe Illustrator 25.4.1, SVG Export Plug-In . SVG Version: 6.00 Build 0)  -->
<svg version="1.1" id="Layer_1" xmlns="http://www.w3.org/2000/svg" xmlns:xlink="http://www.w3.org/1999/xlink" x="0px" y="0px"
	 viewBox="0 0 87.83 80" style="enable-background:new 0 0 87.83 80;" xml:space="preserve">
<style type="text/css">
	.st0{fill:#EC0921;}
</style>
<path class="st0" d="M69.61,63.68c13.17-15.18,15.16-36.61,3.71-50.9C60.38-3.42,35.16-4.34,16.96,10.71
	C-1.21,25.76-5.45,51.08,7.51,67.26c11.6,14.5,33.05,16.71,50.47,6.2c13.11,7.41,22.17,2.76,25.86-1.04c4-4.12,4-12.37,4-12.37
	S79.36,66.93,69.61,63.68z M10.84,66.72c-10.5-13.11-5.2-35.13,11.8-49.2C39.66,3.45,61.9,2.66,72.4,15.76
	c9.58,11.97,5.95,31.4-7.72,45.4c-7.95-5.55-18.82-15.27-23.01-18.95c0.72-0.31,16.28-1.99,23.73-12.47
	c4.37-6.15,1.96-20.4-0.79-16.09c-2.37,3.75-14.38,11.77-24.98,18.22c0,0,2.6-6.86,4.8-12.39c2.23-5.52-7.74-3.21-13.52-0.23
	c-0.54,0.28-5.13,3.18-5.51,5.01c2.4-0.43,3.81-0.59,3.53,0.05c-0.18,0.43-0.36,0.88-0.56,1.36c-1.77,4.25-4.15,10.02-6.55,15.76
	c-5.53,15.62-2.76,22.68-2.76,22.68l14.8,0.63c0,0-3.71-1.6-2.14-10.19c1.54-8.47,3.82-9.74,4.31-9.93
	c0.82,3.45,5.81,16.93,16.97,25.56C37.43,78.93,19.81,77.93,10.84,66.72z"/>
</svg>
