<?xml version="1.0" encoding="utf-8"?>
<!-- Generator: Adobe Illustrator 25.4.1, SVG Export Plug-In . SVG Version: 6.00 Build 0)  -->
<svg version="1.1" id="Layer_1" xmlns="http://www.w3.org/2000/svg" xmlns:xlink="http://www.w3.org/1999/xlink" x="0px" y="0px"
	 viewBox="0 0 345.08 80" style="enable-background:new 0 0 345.08 80;" xml:space="preserve">
<style type="text/css">
	.st0{fill:#EC0921;}
</style>
<g>
	<path class="st0" d="M164.5,70.98c0.1-0.05,5.27-0.44,5.23-2.5c-0.01-0.55-0.45-1.04-1.29-1.04c-1.03,0.04-5.82,1.71-5.76,4.07
		c0.01,0.2,0.05,0.38,0.1,0.54c-0.67,0.4-1.34,0.67-1.96,0.61c-0.08-0.1-0.26-0.29-0.34-0.41c-0.02-0.79,0-1.66-0.09-2.42
		c-0.08-0.49,0-1.11-0.6-1.53c-0.61-0.12-1.25,0.21-1.57,0.42c-0.7,0.45-1.47,1.06-2.07,1.55c-0.73,0.58-1.68,1.38-2.21,1.38
		c-0.75-0.03-0.98-1.22-1-1.46c-0.01-1.3,3.59-3.66,4.11-4.15c1.37-1.33,1.88-2.25,2.35-3.23c0.22-0.47,0.41-1.44,0.41-1.67
		c0-0.3,0.1-0.63-0.49-0.63c-0.26,0-0.85,0.39-1.03,0.61c-2.43,2.8-4.56,5.68-6.75,8.58c-2.34,1.31-4,2.07-6.36,2.11
		c-1.42,0-5.12-0.59-5.19-3.77c-0.03-2.28,2.15-5.12,4.24-7.24h4.95c0.22,0,2.46,0.21,2.72,0.21c0.31,0,0.9,0.03,1.15-0.32h0
		l-0.03-0.02c-0.11-0.32-0.23-0.75-0.42-0.85c-1.33-0.61-5.04-0.56-6.78-0.79c0.49-0.52,0.95-1.03,1.25-1.43
		c-0.09,0-0.25-0.14-0.86-0.14c-0.52,0.37-1.06,1.01-1.65,1.63h-10.01c-0.65,0-1.36,1.56-1.36,1.93c0,0.43,0.41,0.43,0.72,0.4
		l9.05-0.45c-2.74,2.84-5.48,5.66-5.43,8.49c0.07,3.48,4.04,4.41,6.02,4.41c2.2,0,4.75-1.03,7.29-2.9
		c-0.07,0.29-0.06,0.54-0.06,0.82c0,0.48,0.08,1.87,1.13,1.87c1.58,0.03,4.86-3.83,5.81-3.83c0.23,0,0.41,0.14,0.41,0.38l0.05,2.49
		c0.02,0.44,0.44,1.48,1.38,1.48c0.77,0,2.32-0.85,3.49-1.61c0.68,0.9,2.15,1.18,3.05,1.18c1.95,0,3.89-1.18,6.07-2.56v-0.35
		c-1.61,0.74-3.41,1.4-4.78,1.4C166.56,72.22,164.86,72.12,164.5,70.98z M167.29,68.36L167.29,68.36c0.48,0,0.67,0.24,0.67,0.57
		c0.02,1.18-3.29,1.52-3.41,1.52C164.77,69.36,166.48,68.36,167.29,68.36z"/>
	<path class="st0" d="M199.09,60.56c-5.45,0-12.47,4.56-17.02,9.09c0.03-0.72,0.76-1.84,1.15-2.8c0.17-0.36,0.39-0.98,0.63-1.27
		c0.85-0.93,2.53-1.29,2.52-2.4c0-0.23-0.29-1.75-0.49-2.37c-0.08-0.11-0.33-0.25-0.39-0.25c-1.18,1.92-3.86,4.25-5.72,4.25
		c-0.25,0-0.49,0.02-0.99-0.03c0.33,0.73,2.04,1.71,2.68,1.71c0.18,0,0.92-0.23,1.33-0.49l0.05,0.14c-0.69,1.59-1.39,3.36-2.14,4.75
		c-0.15,0.24-6.23,6.71-6.22,8.09c0.02,0.63,0.91,1.03,1.44,1.03c2.14,0,4.8-7.95,5.4-8.68c4.19-5.17,11.05-9.02,15.96-8.99
		c1.6,0,4.99,0.66,5,3.72c0.03,0.81-0.28,1.7-0.71,2.42c-2.85,4.44-8.05,5.51-11.57,5.51c-2,0-5.3-0.31-6.92-2.45h-0.36
		c0.02,0.1-0.05,0.25-0.05,0.35c1.27,2.1,4.84,2.8,7.51,2.8c0.68,0,2.99-0.27,4.06-0.42h0c3.23-0.4,10.79-4.37,10.69-9.2
		C204.88,61.7,201.36,60.56,199.09,60.56z"/>
	<path class="st0" d="M216.51,64.85c0.02,0.54,1.15,0.9,1.59,0.9c0.49,0,1.52-0.2,1.88-0.87c-0.72-0.31-1.93-1.17-2.18-1.17
		C217.68,63.74,216.54,64.32,216.51,64.85z"/>
	<path class="st0" d="M233.53,71.08c-0.01,0.01-0.03,0.02-0.04,0.03l0,0.01L233.53,71.08z"/>
	<path class="st0" d="M233.43,71.15c0.02-0.01,0.04-0.03,0.06-0.04l-0.01-0.16c0.8-0.11,5.13-0.59,5.1-2.48
		c-0.02-0.55-0.44-1.04-1.3-1.04c-1.03,0.04-5.8,1.71-5.76,4.07c0,0.07,0.03,0.12,0.04,0.18c-0.52,0.3-1.07,0.53-1.72,0.53
		c-1,0-2.1-0.58-2.12-2.07c-0.06-3.24,5.57-4.89,5.49-8.78c0-0.04-0.12-0.91-0.5-0.91c-0.97,0.04-4.11,4.96-4.36,5.45
		c-0.63,1.14-1,2.51-1.77,3.5c-0.95,1.16-3.04,2.6-4.38,2.6c-0.27,0.03-1.15,0.03-1.16-0.84c-0.03-1.65,3.14-2.7,4.12-2.7
		c0.22,0,0.53,0.12,0.78,0.12c0.27,0,0.36-0.13,0.42-0.24c0-0.11-0.1-0.37-0.1-0.47c-0.34,0.02-0.93-0.09-1.16-0.09
		c-1.01-0.02-6.28,1.17-6.49,3.89c-0.64,0.32-1.29,0.55-1.99,0.55c-0.41,0-1.49-0.16-1.52-1.22c-0.02-0.85,1.12-1.96,2.04-2.76
		l-0.01-0.35c-0.12,0-0.22-0.11-0.47-0.11c-0.54-0.02-3.43,2.8-3.54,2.95c-0.08,0.21-0.13,0.48-0.16,0.71
		c-0.78,0.43-1.61,0.78-2.34,0.78c-0.05,0-1.67,0-1.68-0.91c0.01-0.78,1.45-0.75,1.43-1.67c-0.01-0.64-1.83-1.14-2.11-1.48
		c0.35-0.35,0.59-0.59,0.59-0.86l0.03-0.32c-0.12-0.1-0.15-0.22-0.42-0.22c-0.66,0-2.36,1.69-2.52,2.03
		c-0.01,0.25,0.21,0.43,0.16,0.5c-0.33,0.32-0.76,0.7-0.98,0.96c0.12,0.03,0.28,0.15,0.28,0.15c0.4-0.21,1.11-0.82,1.38-0.82
		c0.06,0,1.7,0.59,1.86,1.06c-0.21,0.35-1.93,1.27-1.93,1.71c0.03,0.81,1.9,1.36,2.32,1.36c1.03,0,2.63-0.74,3.94-1.56
		c0.13,1.02,0.81,1.56,2.09,1.56c1.09,0,2.47-0.65,3.65-1.36c0.25,0.84,1.03,1.36,2.04,1.36c1.69,0,3.55-1.75,5.42-3.34
		c0.11,0.11,0.05,0.15,0.05,0.15c-0.61,2.3,0.71,3.2,2.11,3.2c1.05,0,2.27-0.66,3.44-1.43c0.59,1.09,2.21,1.43,3.18,1.43
		c1.95,0,3.89-1.18,6.06-2.56v-0.35c-1.59,0.74-3.39,1.4-4.79,1.4C235.45,72.22,233.89,72.12,233.43,71.15z M236.12,68.36
		L236.12,68.36c0.48,0,0.67,0.24,0.67,0.57c0.03,1.18-3.29,1.52-3.4,1.52C233.6,69.36,235.34,68.36,236.12,68.36z"/>
	<path class="st0" d="M265.37,60.46c-0.11,0.04-0.78,0.33-1,0.67c-1.04,1.83-4.29,7.65-4.5,7.65c-0.27,0-1.19-0.31-1.44-0.31
		c-0.15,0-0.92,0.35-1.41,0.61c-0.1,0.01-0.18,0.01-0.24,0.01c-1.42,0-2.61-0.8-3.82-1.31c-0.38,0.54-0.74,1.28-1.02,1.89
		c0.9,0.19,1.73,0.4,2.55,0.48c-0.83,1.68-2.27,2.07-3.17,2.07c-0.41,0-2.54-0.12-2.57-1.57c0.02-1.69,2.65-2.13,3.17-2.3
		c0.11-0.09,0.2-0.37,0.2-0.37h-0.81c-0.25,0-0.33,0.1-0.45,0.18c-1.62,0.36-4.35,1.86-4.32,3.79c0.03,1.45,1.93,1.81,2.76,1.81
		c1.93-0.04,5.05-1.11,5.74-3.67h0c0.37-0.07,0.94-0.15,1.5-0.29c0.58,0.16,1.17,0.26,1.77,0.29c0.21,0.21,0.37,0.38,0.37,0.58
		c0,0.18-1.16,2.37-1.52,3.19c-0.56,1.35-0.83,3.64-0.8,4.62c0,0.22-0.12,1.44,0.66,1.44c1.24,0,2.51-5.39,2.51-5.63
		c0.02-0.9-0.2-2.31-0.11-2.71c0.11-0.55,0.7-1.27,0.97-1.32c1.52-0.4,4.09,0.05,5.15-1.14c-1.29,0-2.38,0.08-2.64,0.08
		c-0.39,0-1.31,0.08-1.54-0.24c2.85-3.14,4.55-5.14,4.52-7.72C265.86,61.07,265.92,60.46,265.37,60.46z"/>
	<polygon class="st0" points="319.52,73.73 319.52,73.73 319.52,73.73 	"/>
	<path class="st0" d="M320.99,64.85c0.01,0.54,1.15,0.9,1.58,0.9c0.49,0,1.52-0.2,1.88-0.87c-0.72-0.31-1.91-1.17-2.17-1.17
		C322.17,63.74,321.02,64.32,320.99,64.85z"/>
	<path class="st0" d="M344.86,70.68c-1.28,0.45-1.97,1.12-3.26,1.23c-0.57-0.69,0.12-1.7-1.24-2.41c-0.12-0.09-0.17-0.17-0.17-0.17
		c-0.08-0.41,0.52-1.85-0.55-1.85c-0.82,0-0.58,0.55-1.01,1.03c-0.43-0.13-1.1-0.21-1.32-0.21c-1.09-0.03-4.87,0.92-6.06,2.8
		c-0.77,0.35-1.73,0.79-2.4,0.99c-0.26,0.05-0.74,0.13-0.96,0.13c-0.56,0-2.18-0.24-2.18-1.58c-0.04-1.52,2.08-1.84,2.87-1.84
		c0.23-0.02,1.12,0.08,1.37,0.08c0.23,0,0.6-0.03,0.91-0.22l-0.04-0.57c-0.29-0.19-0.54-0.21-0.8-0.21c-1.06,0-6.32,1.11-6.54,3.58
		c-0.75,0.42-1.52,0.76-2.37,0.76c-0.42,0-1.49-0.16-1.51-1.22c-0.02-0.85,1.12-1.96,2.03-2.76V67.9c-0.11,0-0.22-0.11-0.48-0.11
		c-0.54-0.02-3.44,2.8-3.54,2.95c-0.06,0.17-0.1,0.39-0.13,0.59c-0.82,0.49-1.71,0.9-2.5,0.9c-0.01,0-1.59,0-1.61-0.91
		c0.02-0.78,1.4-0.75,1.4-1.67c-0.02-0.64-1.78-1.14-2.05-1.48c0.33-0.35,0.58-0.59,0.58-0.86l0.02-0.32
		c-0.11-0.1-0.14-0.22-0.42-0.22c-0.64,0-2.26,1.69-2.42,2.03c-0.01,0.13,0.05,0.24,0.1,0.32c-1.1,0.01-1.99,0.08-2.21,0.08
		c-0.36,0-1.29,0.08-1.52-0.24c2.82-3.14,4.54-5.14,4.49-7.72c0-0.17,0.07-0.78-0.48-0.78c-0.12,0.04-0.79,0.33-1,0.67
		c-1.05,1.83-4.3,7.65-4.51,7.65c-0.25,0-1.16-0.31-1.43-0.31c-0.21,0-1.7,0.7-1.85,0.88c-0.1,0.06-0.22,0.32-0.19,0.42
		c0,0,0.01,0,0.01,0c-0.93,0.69-1.79,1.94-2.63,1.94c-1.8,0-2.53-12.65-6.37-12.65c-2.51,0-12.91,7.3-12.98,7.3
		c-0.23,0-1.33-0.62-1.54-0.62c-0.3,0-1.58,0.86-2.03,1.24l0.06,0.38c0.39,0.18,0.9,0.35,1.19,0.56c-1.65,1.25-7.46,5.07-7.46,5.79
		c0.02,0.34,0.5,0.65,0.99,0.65c2.46,0,8.21-5.97,8.29-5.97c0.26,0,1.54,0.26,2.1,0.29c1.19,0.08,3.84,0.14,4.06,0.14
		c2.54-0.02,5.96-0.29,7.69-1.45c0.1-0.08,0.3-0.33,0.28-0.45l0.04-0.23h-0.33c-0.26-0.02-1.07,0.23-1.42,0.25
		c-1.29,0.16-3.6,0.13-3.83,0.13c-1.98,0.03-3.5,0.11-6.58-0.35c2.33-1.4,6.21-5.3,9.5-5.3c0.51,0,1.37,0.06,1.94,0.87
		c1.16,1.58,1.18,3.21,1.87,5.36c0.3,0.9,0.52,2.02,0.74,2.66c0.32,0.74,0.49,3.16,2.12,3.16c1.55,0,3.77-2.05,4.85-3.54
		c0.44,0.1,0.89,0.17,1.35,0.19c0.2,0.21,0.34,0.38,0.34,0.58c0.02,0.18-1.15,2.37-1.51,3.19c-0.57,1.35-0.82,3.64-0.79,4.62
		c0.01,0.22-0.12,1.44,0.66,1.44c1.23,0,2.5-5.39,2.5-5.63c0-0.9-0.19-2.31-0.09-2.71c0.09-0.55,0.68-1.27,0.92-1.32
		c1.28-0.33,3.27-0.09,4.51-0.69c-0.27,0.24-0.54,0.49-0.66,0.69c0.11,0.03,0.25,0.15,0.25,0.15c0.37-0.21,1.08-0.82,1.34-0.82
		c0.07,0,1.66,0.59,1.8,1.06c-0.2,0.35-1.86,1.27-1.86,1.71c0.01,0.81,1.81,1.36,2.22,1.36c1.05,0,2.7-0.8,3.99-1.67
		c0.07,1.1,0.76,1.67,2.08,1.67c1.21,0,2.76-0.79,4-1.57c0.36,1.22,1.94,1.57,2.67,1.57c1.24,0,3.16-0.79,4.69-1.56
		c0,0.06-0.02,0.11-0.02,0.17c0,0.84,0.76,1.39,1.7,1.39c2.02,0,6.12-3.44,6.61-3.44c0.22,0.02,0.22,0.07,0.34,0.19v0.25
		c-0.51,0.8-1.32,1.25-1.31,2c0.05,0.61,0.72,0.9,1.41,0.9c1.33,0.03,5.24-2.05,5.45-2.86v-0.03L344.86,70.68z M338.68,69.52
		c0.01,1.25-3.67,2.55-4.05,2.55c-0.42,0-0.98-0.38-0.99-0.8c-0.03-1.59,2.96-2.46,3.94-2.46c0.61,0,1.08,0.12,1.1,0.7h0V69.52z"/>
	<path class="st0" d="M56.76,51.92c10.74-12.37,12.36-29.85,3.02-41.5C49.23-2.79,28.66-3.53,13.83,8.73
		C-0.99,21-4.44,41.64,6.12,54.83c9.46,11.82,26.94,13.63,41.15,5.06c10.69,6.04,18.08,2.25,21.08-0.85
		c3.26-3.36,3.26-10.09,3.26-10.09S64.7,54.57,56.76,51.92z M8.84,54.4C0.28,43.71,4.6,25.76,18.46,14.29
		c13.87-11.47,32-12.12,40.56-1.44c7.81,9.76,4.85,25.6-6.3,37.01c-6.48-4.52-15.34-12.45-18.76-15.45
		c0.59-0.25,13.27-1.63,19.35-10.17c3.56-5.01,1.6-16.63-0.64-13.12c-1.93,3.06-11.73,9.6-20.37,14.85c0,0,2.12-5.59,3.91-10.1
		c1.82-4.5-6.31-2.62-11.02-0.19c-0.44,0.23-4.19,2.6-4.5,4.08c1.96-0.35,3.1-0.48,2.88,0.04c-0.15,0.35-0.3,0.72-0.46,1.11
		c-1.44,3.46-3.39,8.17-5.34,12.85c-4.51,12.74-2.25,18.49-2.25,18.49l12.07,0.51c0,0-3.03-1.3-1.74-8.31
		c1.26-6.9,3.12-7.94,3.52-8.1c0.67,2.81,4.73,13.81,13.83,20.84C30.51,64.35,16.15,63.53,8.84,54.4z"/>
	<polygon class="st0" points="102.82,20.8 97.27,20.8 87.57,33.44 87.49,33.44 90.09,20.8 83.04,20.8 77.79,47.4 84.83,47.4 
		87.28,34.78 87.35,34.78 94.05,47.4 102.05,47.4 93.74,32.6 	"/>
	<path class="st0" d="M202.93,40.75h9.75l1.27,6.65h6.73l-5.09-26.6h-6.98l0,0l-14.2,26.6h5L202.93,40.75z M210.09,27.28h0.07
		l1.72,9.27h-6.67L210.09,27.28z"/>
	<polygon class="st0" points="143.94,54.49 151.23,54.49 169.46,27.46 164.11,27.46 156.28,39.13 154.08,27.46 146.9,27.46 
		150.67,47.4 	"/>
	<path class="st0" d="M137.12,33.3c0.35,0,0.41,0.37,0.41,0.6c0,0.29-0.15,0.74-0.18,1l-2.45,12.5h7l2.68-13.35
		c0.18-0.96,0.42-1.91,0.42-2.88c0-2.32-1.46-4.16-3.94-4.16c-4.04,0-7.77,5.49-9.23,8.86h-0.44l2.08-8.42h-6.95l-3.94,19.94h7.05
		l1.22-6.22C131.56,39.74,135.87,33.3,137.12,33.3z"/>
	<path class="st0" d="M108.72,40.63c4.99,0.15,12.4-3.38,12.4-9.16c0-3.1-2.88-4.46-5.36-4.46c-9.12,0-14.09,8.4-14.09,14.17
		c0,4.63,4.3,6.66,8.33,6.66c3.48,0,6.89-0.96,10.34-2.21l1.02-4.88c-2.38,1.29-6.4,2.9-9.05,2.9
		C110.36,43.65,108.76,42.76,108.72,40.63z M113.32,31.43c0.9,0,1.46,0.56,1.46,1.5c0,2.62-2.26,3.81-5.57,3.72
		C109.51,34.73,111.03,31.43,113.32,31.43z"/>
	<path class="st0" d="M170.1,47.84c4.06,0,7.75-5.49,9.23-8.87h0.44l0,0l-2.06,8.43h6.98l3.94-19.94h-6.59
		c-0.53,0-1.66-0.33-3.29-0.33c-6.91,0-13.18,9.02-13.18,15.46C165.58,45.24,167.25,47.84,170.1,47.84z M178.49,31.11
		c0.79,0,1.62,0.29,2.25,0.66h0l-0.4,2.03c-1.57,2.28-5,8.09-6.93,8.09c-0.63,0-0.81-0.63-0.81-1.14
		C172.61,38.86,174.27,31.11,178.49,31.11z"/>
	<polygon class="st0" points="304.67,54.49 311.93,54.49 330.15,27.46 324.83,27.46 317,39.13 314.81,27.46 307.6,27.46 
		311.37,47.4 	"/>
	<path class="st0" d="M336.09,41.96c0,1.29-1.24,1.91-2.19,1.91c-1.9,0-4.55-1.03-6.32-1.8l-0.9,4.67c2.44,0.62,4.74,1.1,7.22,1.1
		c7.49,0,9.24-3.97,9.24-6.63c0-4.33-6.08-6.03-6.08-8.38c0-1.48,1.6-1.84,2.76-1.84c1.51,0,2.99,0.41,4.42,0.92l0.84-4.31
		c-1.7-0.22-3.68-0.59-5.52-0.59c-7.5,0-9.11,3.81-9.11,6.18C330.44,37.55,336.09,39.23,336.09,41.96z"/>
	<path class="st0" d="M250.67,33.6l2.48-6.18c-0.35-0.19-1-0.4-1.8-0.4c-4.05,0-7.76,5.49-9.24,8.86h-0.43l2.07-8.42h-6.97
		l-3.95,19.94h7.05l1.23-6.22c1.39-2.32,4.45-8.06,8-8.06C249.66,33.12,250.19,33.36,250.67,33.6z"/>
	<polygon class="st0" points="234.73,20.68 227.7,20.68 226.85,24.61 233.9,24.61 	"/>
	<polygon class="st0" points="233.31,27.46 226.27,27.46 222.3,47.4 229.37,47.4 	"/>
	<polygon class="st0" points="285.25,27.46 280.32,27.46 274.07,40.15 274.01,40.15 273.47,27.46 267.58,27.46 261.4,40.11 
		261.31,40.11 260.87,27.46 254.71,27.46 255.47,47.4 262.19,47.4 268.07,35.38 268.15,35.38 268.64,47.4 275.36,47.4 	"/>
	<path class="st0" d="M286.67,47.84c4.05,0,7.77-5.49,9.23-8.87h0.45l0,0l-2.09,8.43h7l3.94-19.94h-6.58
		c-0.53,0-1.66-0.33-3.31-0.33c-6.87,0-13.15,9.02-13.15,15.46C282.16,45.24,283.83,47.84,286.67,47.84z M295.06,31.11
		c0.79,0,1.6,0.29,2.26,0.66h0l-0.39,2.03c-1.56,2.28-5,8.09-6.94,8.09c-0.62,0-0.8-0.63-0.8-1.14
		C289.19,38.86,290.83,31.11,295.06,31.11z"/>
</g>
</svg>
