<?xml version="1.0" encoding="utf-8"?>
<!-- Generator: Adobe Illustrator 25.4.1, SVG Export Plug-In . SVG Version: 6.00 Build 0)  -->
<svg version="1.1" id="Layer_1" xmlns="http://www.w3.org/2000/svg" xmlns:xlink="http://www.w3.org/1999/xlink" x="0px" y="0px"
	 viewBox="0 0 77.1 80" style="enable-background:new 0 0 77.1 80;" xml:space="preserve">
<style type="text/css">
	.st0{fill:#2A3176;}
	.st1{fill:#D01227;}
</style>
<path class="st0" d="M16.7,68.7c0,0,6.2,0.9,10.4-5.3s8.5-8.3,18.4-5.3c0,0-3.2-6.9-10.2-6.5c-7,0.5-10.2,6.8-11.2,9.3
	C23,63.5,21.4,67.1,16.7,68.7z"/>
<path class="st0" d="M3.9,72.9c0,0,2.8,4,8.5,4.5c5.7,0.5,6.6-3.1,10.9-0.9s5.7,4,11.5,3.5c5.8-0.5,8.7-4.8,8.9-7
	c0.1-2.3,0-6.2,0-6.2s1,0.2,3.5,6s10.5,6.3,13.2,5.9c0,0-6.2-1.9-9.2-7.1c-3-5.2-5.7-11.2-11.1-11.4c-5.4-0.2-8.8,2.2-9.7,4.7
	s-1,5.8,0.7,6.8c1.8,1,4.1,0,3.9-2.2c-0.2-2.2,0.5-3.5,2-3.4c1.4,0.1,3,1.3,2.5,4.2s-2.2,4.9-5.4,5.4c-3.2,0.4-3.8,0.2-6.4-1.6
	s-4.8-2.7-7.7-2s-5,2.5-8,2.6C8.9,74.5,6.4,74,3.9,72.9z"/>
<path class="st0" d="M76.4,63.7c0,4.6-3.1,10.8-10.1,10.8c0,0-6.4,0.7-10-3c-3.6-3.7-6.2-7.9-6.5-12.2V44.9c0,0,2.2-1.4,3.8-3.8h3
	c0,0,0-1.5-0.2-2.8c-0.2-1.2,0.1-1.6,1.9-0.3c0,0,0.4-2.1-0.2-4.2c-0.6-2.1,1.4-0.5,1.4-0.5s-0.1-2.6-0.4-4.1
	c-0.3-1.4,0.9-0.6,1.3-0.2c0.4,0.3,0.3-1.3-0.5-2.8c-0.8-1.4,0.7-1.9,1.7-1.3c0.9,0.6-0.6-2.2-0.6-2.6c0-0.4,1-1,1.8-0.9v-3.4
	c0,0,0.9-0.8,1.7-2.4c0.7-1.6,1.1-3.3,2.3-3.3s1.9,2.6,2.3,3.3c0.4,0.6,1.7,1.7,1.7,1.9c0,0.2,0,3.7,0,3.7s1.5,0.6,1.7,1.1
	c0.2,0.4-0.6,2.8-0.6,2.9c0.1,0,1.4-0.4,1.8,0.5c0.4,0.9-1,1.4-0.9,2.9c0,0-0.2,0.3,0.6,0.4c0.8,0.1,1.3,0.1,1.1,0.9
	c-0.2,0.8-0.5,3.4-0.3,3.7c0.3,0.3,0.7-0.7,1.4-0.6c0.7,0.1-0.1,2.1-0.3,3.6c-0.1,1.5-0.1,2,0.7,1.5c0.8-0.5,1.1-0.8,1.1-0.1
	c0,0.6,1,7.5-5.7,12.1c-5.4,3.6-9.1,2.6-12.3,8.7c-2,3.9-0.2,8.7,2.6,10.3c2.8,1.6,7,0.4,8.4-1.7s2-6.2-1.2-6.8c0,0-1.9-0.1-1.8,2.4
	c0.1,2.4-0.4,3.4-2.1,3.4c-1.7,0-3.6-1.4-3.2-4.2c0.4-2.7,3.1-5.7,7-5.8C72.9,55.9,76.4,59.1,76.4,63.7z"/>
<path class="st0" d="M27.3,44.9v6.4c-3.7,2-3.9,7.2-7.5,11c-3.6,3.7-9,3.7-9,3.7c-7,0-10.1-5.6-10.1-10.2c0-4.6,3.7-7.3,7.6-7.2
	c4,0.1,5.6,2.8,6.1,5.6c0.4,2.7-0.6,3.9-2.3,3.9c-1.7,0-1.8-0.5-2.3-2.9c-0.5-2.4-1.9-2.1-1.9-2.1c-3.2,0.5-2.3,3.8-0.8,6
	c1.4,2.1,5,3.2,7.8,1.6c2.8-1.6,4.6-5.8,1.9-9.9c-2.6-4.1-7-4.9-12.1-6.7c-5-1.9-4.6-5.7-4.6-6.3c0-0.6,0.3-0.3,1.1,0.1
	c0.8,0.5,0.8,0,0.7-1.5c-0.1-1.5-1-3.6-0.3-3.6c0.7,0,1.2,0.9,1.4,0.6c0.2-0.2-0.1-2.8-0.3-3.7c-0.2-0.8,0.3-0.9,1.1-0.9
	c0.8-0.1,0.6-0.4,0.6-0.4c0.1-1.5-1.3-2-0.9-2.9C3.8,24.6,5.1,25,5.2,25c0-0.1-0.8-2.4-0.6-2.9C4.8,21.7,6.4,21,6.4,21s0-3.5,0-3.7
	c0-0.2,1.3-1.2,1.7-1.9c0.4-0.6,1.1-3.3,2.3-3.3c1.1,0,1.5,1.7,2.3,3.3c0.7,1.6,1.7,2.4,1.7,2.4v3.4c0.8-0.1,1.8,0.5,1.8,0.9
	c0,0.4-1.5,3.2-0.6,2.6c0.9-0.6,2.5-0.1,1.7,1.3c-0.8,1.4-0.9,3.1-0.5,2.8c0.4-0.3,1.6-1.2,1.3,0.2c-0.3,1.4-0.4,4.1-0.4,4.1
	s2-1.6,1.4,0.5c-0.6,2.1-0.2,4.2-0.2,4.2c1.8-1.2,2.1-0.9,1.9,0.3c-0.2,1.2-0.2,2.8-0.2,2.8h3C25.1,43.5,27.3,44.9,27.3,44.9z"/>
<path class="st1" d="M53.5,41.1c-1.6,2.4-3.8,3.8-3.8,3.8v14.4c0,0-4-9-11-10.8c-5.1-1.6-11.5,2.8-11.5,2.8v-6.4
	c0,0-2.2-1.4-3.8-3.8l1-4.4c0,0,1.3,1.7,2,1.5c0.7-0.3-0.1-2.5-0.6-3.8c-0.5-1.3-0.5-3.6,0-4c0.5-0.4,0.8,0.4,1.8,0.5
	c1,0.1,0.9-1.6,0.4-2.9c-0.5-1.3-0.5-3.8,0-4c0.5-0.2,1.1,0.8,1.5,0.8c0.4,0,0.8-2.7-0.3-3.1c-1.1-0.4-0.9-1.5-0.9-2.2
	c0.1-0.7,0.5-0.7,1.7-0.8c1.3-0.1,1.3-1.1,1.2-2.1c-0.1-1.1-1.2-2-1.2-2.6c0-0.7,1.9-0.5,1.9-0.5c0-6.3,0.9-5.2,2.6-7.3
	C36.4,4,37.3,0,37.3,0h2.9c0,0,0.9,4,2.6,6.1c1.7,2.1,2.6,1,2.6,7.3c0,0,1.9-0.2,1.9,0.5c0,0.7-1.1,1.6-1.2,2.6
	c-0.1,1.1-0.1,2.1,1.2,2.1c1.3,0.1,1.7,0.1,1.7,0.8c0.1,0.7,0.2,1.8-0.9,2.2c-1.1,0.4-0.7,3.1-0.3,3.1c0.4,0,1.1-1,1.5-0.8
	c0.5,0.2,0.5,2.7,0,4c-0.5,1.3-0.6,3,0.4,2.9c1-0.1,1.3-0.9,1.8-0.5c0.5,0.4,0.5,2.8,0,4c-0.5,1.3-1.6,2.7-0.9,2.9
	c0.7,0.3,2.4,0.4,2.4,0.4L53.5,41.1z"/>
</svg>
