<?xml version="1.0" encoding="utf-8"?>
<!-- Generator: Adobe Illustrator 25.4.1, SVG Export Plug-In . SVG Version: 6.00 Build 0)  -->
<svg version="1.1" id="Layer_1" xmlns="http://www.w3.org/2000/svg" xmlns:xlink="http://www.w3.org/1999/xlink" x="0px" y="0px"
	 viewBox="0 0 304.6 80" style="enable-background:new 0 0 304.6 80;" xml:space="preserve">
<style type="text/css">
	.st0{fill:#2B3176;}
	.st1{fill:#2B3177;}
	.st2{fill:#2B3179;}
	.st3{fill:#2B317D;}
	.st4{fill:#2B317A;}
	.st5{fill:#2A3176;}
	.st6{fill:#2B3076;}
	.st7{fill:#5457A1;}
	.st8{fill:#D01227;}
	.st9{fill:#2B317C;}
</style>
<path class="st0" d="M156.8,29.7c1.5,0.6,2.9,0.4,4.1,1.2c2.3,1.4,3,4,1.4,6.3c-1.3,1.9-0.4,2.3,1.1,2.7c2.5,0.7,5.1,0.8,7.5-0.2
	c1.2-0.5,2.1-1.4,2-2.7c-0.2-1.2-1.4-1.6-2.6-1.5c-2.9,0.3-3.4-1.2-3.2-3.6c0.2-1.6,0.2-3.2,0-4.7c-0.3-2.2,1.4-3.1,2.6-4.1
	c1.3-1.2,1.9,0.7,2.8,1.2c1.1,0.5,3.1,0.6,1.9,2.9c-0.8,1.5-1.4,2.6-3.3,1.5c-0.8-0.5-2.1-0.9-2.3,0.6c-0.2,1.2,1.1,0.7,1.8,0.8
	c2.8,0.4,4.1,2.1,4.3,4.7c0.7,6.9-3.9,11.1-11.5,10.5c-5.6-0.5-7.9-2.5-8.3-7.5c1.8-0.5,3.9,0.2,5.4-1.4c-0.1-0.8-0.7-0.7-1.1-0.8
	c-4.7-0.6-4.8-0.6-4.6-5.4c0.1-1.8-1.4-4.1,1.2-5.4c1.1-0.6,1.9-2.4,3.1-2c1.6,0.5,2.9,1.8,4.6,2.4c1.1,0.4-0.2,1.7-0.4,2.5
	c-0.4,1.3-1.4,1.9-2.8,1.2C159.3,28.3,157.9,27.5,156.8,29.7z"/>
<path class="st0" d="M268.3,25.1c-0.7,2.8-1.7,5-5.2,3.5c-0.8-0.4-1.8-0.2-2.2,0.9c6.8,2.5,6.8,2.5,6.2,10.1c0,0.2,0,0.4-0.1,0.6
	c-0.3,2.1-0.5,4.4-3,4.9c-1.6,0.3-4.9-3.7-5-5.6c-0.1-0.9,0.4-1,1.1-1.2c1.4-0.4,2.7-1,4.1-1.5c-1.1-2.4-5.8,0.9-5.3-3.7
	c0.2-2.4-0.2-4.9,0.2-7.3c0.1-0.9,1.8-1.6,2.6-2.4c1.3-1.3,2.1,0,3,0.6C265.9,24.4,267,25,268.3,25.1z"/>
<path class="st1" d="M235,19.6c-0.1-1-0.1-1.8,1.2-2c0.7-0.2,1.5-0.6,2-1.1c2.1-1.9,4.2-1.8,6.3-0.2c1.4,1,2.5,1.3,3.7-0.3
	c1.1-1.4,2.5-1.3,3.8-0.1c0.5,0.5,1.2,0.7,1.7,1.1c0.7,0.6,2.9-0.3,1.8,2c-0.8,1.6-1.8,3.2-3.7,2.3c-2.5-1.2-4.8-2.2-7.3,0
	c-0.4,0.4-0.9-0.1-1.3-0.4c-2.1-1.3-4.2-1.4-6.4-0.2C235.6,21.4,234.8,21.3,235,19.6z"/>
<path class="st2" d="M175.6,50.4c-1.4,4.8-3.5,6.4-7.1,5.3c-1.2-0.4-2.1-1-2.4-2.3c-0.4-1.7,1.1-1.2,1.8-1.6
	c0.7-0.4,1.4-0.8,1.1-1.8c-0.2-0.6-0.8-0.6-1.2-0.4c-0.7,0.4-1.4,1.5-1.7-0.2c-0.2-1.3-0.4-2.7,1.3-3.2c1-0.3,2.2-0.5,3.1,0.4
	c0.9,0.8,1.1,1.8,0.8,2.9c-0.3,0.9-0.7,1.8-1.1,2.8c2.9,0.6,3.7-1.7,4.9-3.3C176.1,49.1,175.8,49.8,175.6,50.4z"/>
<path class="st0" d="M151.1,34.9c-0.4-3.1-2-5-5.4-5c-0.6,0-1-0.2-0.9-0.8c0.1-0.5,0.5-0.9,1-0.9c0.6,0,1.2,0.2,1.7,0.5
	c1.6,1,2.3,0.1,2.8-1.3c0.5-1.2,1.1-2.3-0.8-2.8c-0.8-0.2-1.5-0.9-2.2-1.5c-0.6-0.5-1.1-0.7-1.7,0c-1.3,1.5-3,2.5-2.6,5.1
	c0.4,2.2,0,4.5,0,6.7c1.2,0.2,2.5,0.4,3.7,0.6c1,0.2,2,0.3,2.1,1.6c0.1,1.1-0.5,1.9-1.4,2.3c-2.9,1.4-5.9,1.2-8.8,0.2
	c-1-0.3-1.4-1-0.6-2c1-1.3,1.2-2.8,1-4.4c-0.8-2.1-2.5-2.8-4.6-3.2c-0.5-0.1-1.7,0.3-1.4-0.9c0.2-0.7,0.9-1.1,1.7-0.9
	c0.7,0.1,1.3,0.4,2,0.7c2.1,0.9,2.5-0.8,3.2-2c0.9-1.6-0.3-1.8-1.4-2.3c-0.9-0.4-1.7-1-2.5-1.5c-0.5-0.4-1-0.7-1.6-0.2
	c-1.6,1.5-4.1,2.4-3.4,5.4c0.3,1.6,0.1,3.3,0,5c-0.1,1.5,0.3,2.1,1.9,2.1c1.3,0,2.6-0.2,3.8,0.7c-0.8,1.2-2,1.4-3,1.3
	c-3-0.3-2.9,1.2-2.1,3.3c0.7,1.6,1.8,2.9,3.4,3.5c3.9,1.5,7.9,1.6,11.7-0.3C149.9,42.3,151.6,38.6,151.1,34.9z"/>
<path class="st3" d="M298.3,19c-0.6-2.4,0.7-4.6-1.3-6.5c-0.8-0.8,0.1-2.7,1.7-3.2c1.8-0.6,2.7,0.6,2.9,2
	C302,14.3,300.4,16.5,298.3,19z"/>
<path class="st3" d="M291.3,19c-0.7-2.3,1.1-4.6-1.4-6.4c-0.8-0.6,0.2-2.8,1.9-3.3c1.5-0.4,2.5,0.4,2.7,1.9
	C295,14.2,293.6,16.5,291.3,19z"/>
<path class="st4" d="M255.2,36c-0.4,1.8-0.2,3.7-0.3,5.6c-0.1,1.3-0.5,2.7-1.7,3.3c-1.2,0.6-1.8-0.9-2.6-1.4c-2-1.2-2.2-3.3-2.2-5.4
	c1.8,0.5,2.9-0.6,4.3-1.8c-1.2-0.7-2.2-0.7-3.2-0.6c-0.1,0.2-0.2,0.4-0.3,0.6c-0.4,0.7-1.2,1.1-1.7,1.7c-1.5,0.5-3,0.2-4.6,0.1
	c0,0.9,0,1.8-0.1,2.6c-0.3,2-0.6,4.2-3.1,4.4c-2,0.1-5-3.9-4.8-5.7c0.1-0.8,0.5-0.9,1.1-1.1c1.4-0.5,2.7-1,4.1-1.6
	c-0.4-0.9-1.1-1-1.7-1c-3.4,0.4-4.3-1.3-3.8-4.3c0.1-0.9,0.2-1.8,0-2.6c-0.5-2.4,0.6-3.9,2.5-5.2c1-0.7,1.7-1.1,2.8-0.2
	c0.6,0.5,1.5,0.7,2,1.2c0.5,0.7,2.7-0.4,1.9,1.7c-0.7,1.7-1.2,3.4-3.7,2.8c-1.2-0.3-2.4-1.2-3.5,0.5c2.4,0.8,4.9,1.2,6.8,2.9
	c-1,1.5-0.4,3.2-0.5,4.8c0.8-0.7,0.6-1.6,0.6-2.4c0-0.3,0-0.6,0-0.9c1.4,0.9,2.8,2,4.6,1.7c0-2.8,0-5.7,0.1-8.5c0-0.9-0.2-1.9,1-2.4
	c1-0.4,1.3-2.3,2.3-1.9c1.5,0.5,2.8,1.7,4.2,2.6c0.8,0.5-0.2,1.6-0.5,2.3c-0.4,0.9-1,1.8-2.2,1.4c-0.6-0.1-1.1-0.4-1.7-0.5
	c-0.6-0.1-1.3,0.1-1.3,0.8c-0.1,0.6,0.6,0.7,1.1,0.8C254.6,30.6,256,32.5,255.2,36z"/>
<path class="st5" d="M297.7,27.8c4.4,1.8,4.5,1.8,6.9-2.2c0-0.2,0-0.4,0-0.6c-1.6,0.4-2.9-0.4-4-1.3c-1.6-1.4-3-1.4-4.3,0.2
	c-1.1,1.3-2,1-3.2,0.2c-1.3-0.8-2.6-1.9-4.3-1.3c-4.5,1.5-5.6,3.1-5.5,7.7c0,0.5,0.1,1,0.1,1.5c4.3-0.7,8.5-0.6,12.5,1
	c1.7,0.7,2.8,2,2.7,3.8c-0.1,1.9-1.5,2.6-3.1,3.1c-2.4,0.8-4.9,0.7-7.3,0.5c-1-0.1-1.8-0.7-2.4-1.5c-0.3-0.4-0.7-1.1,0-1.5
	c0.6-0.3,1.3-0.7,1.6,0.4c0.6,1.9,2.1,1.5,3.3,1.2c1.4-0.4,2-1.6,1.9-3c-0.1-1.6-1-2.4-2.6-2.7c-2.9-0.6-5.7,0.5-6.5,2.7
	c-1.1,2.7,0.3,6.6,2.8,8c4.1,2.4,10.9,1.8,14.5-1.3c4-3.4,3.3-9.1-1.5-11.4c-1.9-0.9-3.9-1.3-5.9-1.7c-2.5-0.1-5-0.3-7.7-0.5
	c1-2,2.5-1.9,4.2-1.4c1.2,0.3,2,1.5,3.4,1.3C294.5,27.6,295.8,27,297.7,27.8z"/>
<path class="st6" d="M225.9,35c0.3,0.4,0.6,0.7,0.8,1.2c0.4,0.7,0.6,1.6-0.4,1.9c-0.9,0.2-1-0.7-1.1-1.3c-0.3-1.6-0.7-3.2,0-4.8
	c0,0,0,0,0,0c-0.1-2.4,0.6-3.5,3.1-1.9c1,0.7,2,0.3,2.4-0.8c0.3-1,1.8-2.2,0.3-3c-1.7-0.9-2.7-2.4-4-3.5c-5.1,5.3-4.5,11.6-3.4,17.9
	c0.4,2,1.7,4.3,3.5,4.2c1.9-0.1,3.1-2.3,3.6-4.4C231.6,36.1,229.6,33.9,225.9,35z"/>
<path class="st1" d="M100.9,30.3c1.5,0.1,1.7-1.1,2.1-2.1c0.3-0.7,0.9-1.7-0.4-2.2c-1.7-0.6-2.7-2.1-3.7-3.5
	c-5.1,5.3-4.7,11.5-3.6,17.8c0.4,2,1.5,4.6,3.7,4.3c2-0.2,3.2-2.6,3.6-4.9c0.7-3.8-1.2-5.8-4.8-4.9c0.2,0.4,0.5,0.8,0.7,1.2
	c0.4,0.8,0.5,1.7-0.4,2c-0.9,0.2-0.9-0.8-1.1-1.4c-0.2-0.8-0.2-1.5-0.2-2.3c-0.2-1.7-0.3-3.5,0.9-4.8
	C98.8,28.5,99.8,30.2,100.9,30.3z"/>
<path class="st1" d="M274,35.1c0.2,0.2,0.3,0.5,0.5,0.7c0.6,0.6,0.8,1.3,0.4,2.1c-0.1,0.2-0.5,0.3-0.7,0.3c-0.7-0.3-0.8-1.1-0.9-1.7
	c-0.1-0.5,0-1-0.1-1.4c0-0.5-0.1-1-0.1-1.5c0.1-3.7,0.3-3.9,3.9-3.3c1.3,0.2,1.8-0.4,2.1-1.5c0.2-0.9,1.4-2-0.2-2.7
	c-1.6-0.8-2.7-2-3.7-3.5c-5.2,5.5-4.8,11.8-3.5,18.2c0.4,2,1.6,4.3,3.6,4c1.8-0.2,3-2.4,3.5-4.3c0.4-1.7,0.5-3.5-0.9-5
	C276.8,34.1,275.4,34.4,274,35.1z"/>
<g>
	<path class="st6" d="M111,29.2c0.1,0,0.1,0,0.2,0C111.2,29.1,111.1,29.2,111,29.2z"/>
	<path class="st6" d="M126.9,27.3c0-0.6,0.2-1.3-0.6-1.7c-2.8-1.4-5.5-3.2-8.7-3.3c-4-0.1-8,0.5-10.1,4.6c-1.9,3.5,0.3,7.7,3.9,7.5
		c2-0.1,2.7-1.3,2.8-3.1c0.1-2.1-1.2-2.5-2.9-2.1c-0.5,0.7,0.3,1.9-0.9,2.1c-0.2,0-0.7-0.1-0.7-0.3c-0.4-1,0-1.6,0.9-2h0l0,0
		c2.5-1.9,9.4-1.9,11.7,0c1.1,0.9,0.7,1.5-0.2,2.1c-4.6,2.8-9.1,6.1-15.1,5.4c0.3,3.8,1.7,6.8,5.6,7.9c4.2,1.2,8.4,1.7,11.9-1.8
		c2.6-2.6,3.2-6,1.8-8.7c-2.7,6.4-8.2,8.6-12.9,4.9c3.5-1.5,6.9-2.9,9.9-5.1C125.3,32,126.9,30.1,126.9,27.3z"/>
</g>
<path class="st2" d="M230.4,13.8c-0.8-1.5-2.3-1.7-3.9-1.4c-0.6,0.1-1.1,0.4-1.3,1c-0.3,0.8,0.3,1,0.8,1.2c1.9,0.9,2,2.2,1,3.8
	c-0.4,1-1.2,0.7-1.9,0.5c-0.4-0.1-0.5-0.6-0.3-0.9c0.4-0.6,1-0.4,1.5-0.3c0.1-1.3-0.5-2-1.8-2.1c-0.9-0.1-1.6,0.3-1.9,1.1
	c-0.4,0.9-0.5,1.9,0.2,2.7c1.4,1.8,5.9,1.8,7.2-0.1C231.2,17.7,231.3,15.6,230.4,13.8z"/>
<path class="st7" d="M175.6,50.4c-0.2-0.4-0.4-0.8-0.6-1.2c0.1-0.6,0.2-1.3,1.1-1.5C176.3,48.7,176.2,49.5,175.6,50.4z"/>
<path class="st5" d="M207.4,23.7c-3.2-1.2-6.1-2.4-9,0.2c-0.7,0.6-1.1,0.3-1.8,0c-4.2-2.1-4.2-2.1-7.4,1.7c-1.1-1.1-2.2-2.3-3.7-2.9
	c-0.6-0.2-1.1-0.6-1.9-0.3c-3.5,1.4-5.4,6.8-3.5,10c1.1,1.8,2.7,2.2,4.6,1.8c1.6-0.3,2.3-1.5,1.9-3.1c-0.2-0.8-0.1-1.3,0.7-1
	c1.2,0.4,1.6-0.5,2.3-0.9c1.5-1.1,3.1-1.2,4.7-0.4c1.1,0.5,1.7,1.2,0.3,2c-4.2,2.7-8.4,5.7-13.7,5.4c-1.7-0.1-1.4,0.5-1.3,1.6
	c0.8,6.2,8.3,9.2,13.7,5.5c1.4-1,2.6-2.3,4.2-3.8c-0.2,2.2,0.5,4.1-1.8,5.4c-1.8,1-0.7,2.3,0.5,2.8c1.6,0.7,3,0.2,3.1-1.8
	c0.2-3.1,0.2-6.3,0.2-9.4c0-1.1,0.2-2.5-1.1-2.7c-1.6-0.3-1,1.3-1.3,2.1c-1.9,4.2-8.1,5.8-10.8,2.6c1.7-0.8,3.4-1.5,5-2.4
	c1.7-0.9,3.4-2,5-3.1c1.5-1,2.9-2.3,3-4.2c0.1-2.1,1.1-2.4,2.8-1.7c0.8,0.4,1.7,0.6,2.5,0.9c5.3,2.3,5.4,3.4,1,7.1
	c-2.2,1.8-2.4,4.2-0.6,6.5c0.6,0.7,1.6,1.2,2.2,2c1.7,2.3,2.5,0.7,3.2-0.8c0.4-0.8,0.5-1.7,0.5-2.6c0.1-3.6-0.2-7.3,0.2-10.9
	C211.4,26.3,210.3,24.8,207.4,23.7z M183.5,30.1c-0.3,0.5,0.1,1.6-1.1,1.3c-0.5-0.1-0.7-0.6-0.6-1.2c0.1-0.8,0.4-1.5,1.4-1.7
	c0.8-0.1,1.6-0.1,2.4,0.7C185,30.1,183.9,29.3,183.5,30.1z M208.5,37.9c-1.1-0.8-1.3-1.6,0-2.4C208.9,36.3,208.9,37.1,208.5,37.9z"
	/>
<path class="st5" d="M16.7,68.7c0,0,6.2,0.9,10.4-5.3s8.5-8.3,18.4-5.3c0,0-3.2-6.9-10.2-6.5c-7,0.5-10.2,6.8-11.2,9.3
	C23,63.5,21.4,67.1,16.7,68.7z"/>
<path class="st5" d="M3.9,72.9c0,0,2.8,4,8.5,4.5c5.7,0.5,6.6-3.1,10.9-0.9s5.7,4,11.5,3.5c5.8-0.5,8.7-4.8,8.9-7
	c0.1-2.3,0-6.2,0-6.2s1,0.2,3.5,6s10.5,6.3,13.2,5.9c0,0-6.2-1.9-9.2-7.1c-3-5.2-5.7-11.2-11.1-11.4c-5.4-0.2-8.8,2.2-9.7,4.7
	s-1,5.8,0.7,6.8c1.8,1,4.1,0,3.9-2.2c-0.2-2.2,0.5-3.5,2-3.4c1.4,0.1,3,1.3,2.5,4.2s-2.2,4.9-5.4,5.4c-3.2,0.4-3.8,0.2-6.4-1.6
	s-4.8-2.7-7.7-2s-5,2.5-8,2.6C8.9,74.5,6.4,74,3.9,72.9z"/>
<path class="st5" d="M76.4,63.7c0,4.6-3.1,10.8-10.1,10.8c0,0-6.4,0.7-10-3c-3.6-3.7-6.2-7.9-6.5-12.2V44.9c0,0,2.2-1.4,3.8-3.8h3
	c0,0,0-1.5-0.2-2.8c-0.2-1.2,0.1-1.6,1.9-0.3c0,0,0.4-2.1-0.2-4.2c-0.6-2.1,1.4-0.5,1.4-0.5s-0.1-2.6-0.4-4.1
	c-0.3-1.4,0.9-0.6,1.3-0.2c0.4,0.3,0.3-1.3-0.5-2.8c-0.8-1.4,0.7-1.9,1.7-1.3c0.9,0.6-0.6-2.2-0.6-2.6c0-0.4,1-1,1.8-0.9v-3.4
	c0,0,0.9-0.8,1.7-2.4c0.7-1.6,1.1-3.3,2.3-3.3s1.9,2.6,2.3,3.3c0.4,0.6,1.7,1.7,1.7,1.9c0,0.2,0,3.7,0,3.7s1.5,0.6,1.7,1.1
	c0.2,0.4-0.6,2.8-0.6,2.9c0.1,0,1.4-0.4,1.8,0.5c0.4,0.9-1,1.4-0.9,2.9c0,0-0.2,0.3,0.6,0.4c0.8,0.1,1.3,0.1,1.1,0.9
	c-0.2,0.8-0.5,3.4-0.3,3.7c0.3,0.3,0.7-0.7,1.4-0.6c0.7,0.1-0.1,2.1-0.3,3.6c-0.1,1.5-0.1,2,0.7,1.5c0.8-0.5,1.1-0.8,1.1-0.1
	c0,0.6,1,7.5-5.7,12.1c-5.4,3.6-9.1,2.6-12.3,8.7c-2,3.9-0.2,8.7,2.6,10.3c2.8,1.6,7,0.4,8.4-1.7s2-6.2-1.2-6.8c0,0-1.9-0.1-1.8,2.4
	c0.1,2.4-0.4,3.4-2.1,3.4c-1.7,0-3.6-1.4-3.2-4.2c0.4-2.7,3.1-5.7,7-5.8C72.9,55.9,76.4,59.1,76.4,63.7z"/>
<path class="st5" d="M27.3,44.9v6.4c-3.7,2-3.9,7.2-7.5,11c-3.6,3.7-9,3.7-9,3.7c-7,0-10.1-5.6-10.1-10.2c0-4.6,3.7-7.3,7.6-7.2
	c4,0.1,5.6,2.8,6.1,5.6c0.4,2.7-0.6,3.9-2.3,3.9c-1.7,0-1.8-0.5-2.3-2.9c-0.5-2.4-1.9-2.1-1.9-2.1c-3.2,0.5-2.3,3.8-0.8,6
	c1.4,2.1,5,3.2,7.8,1.6c2.8-1.6,4.6-5.8,1.9-9.9c-2.6-4.1-7-4.9-12.1-6.7c-5-1.9-4.6-5.7-4.6-6.3c0-0.6,0.3-0.3,1.1,0.1
	c0.8,0.5,0.8,0,0.7-1.5c-0.1-1.5-1-3.6-0.3-3.6c0.7,0,1.2,0.9,1.4,0.6c0.2-0.2-0.1-2.8-0.3-3.7c-0.2-0.8,0.3-0.9,1.1-0.9
	c0.8-0.1,0.6-0.4,0.6-0.4c0.1-1.5-1.3-2-0.9-2.9C3.8,24.6,5.1,25,5.2,25c0-0.1-0.8-2.4-0.6-2.9C4.8,21.7,6.4,21,6.4,21s0-3.5,0-3.7
	c0-0.2,1.3-1.2,1.7-1.9c0.4-0.6,1.1-3.3,2.3-3.3c1.1,0,1.5,1.7,2.3,3.3c0.7,1.6,1.7,2.4,1.7,2.4v3.4c0.8-0.1,1.8,0.5,1.8,0.9
	c0,0.4-1.5,3.2-0.6,2.6c0.9-0.6,2.5-0.1,1.7,1.3c-0.8,1.4-0.9,3.1-0.5,2.8c0.4-0.3,1.6-1.2,1.3,0.2c-0.3,1.4-0.4,4.1-0.4,4.1
	s2-1.6,1.4,0.5c-0.6,2.1-0.2,4.2-0.2,4.2c1.8-1.2,2.1-0.9,1.9,0.3c-0.2,1.2-0.2,2.8-0.2,2.8h3C25.1,43.5,27.3,44.9,27.3,44.9z"/>
<path class="st8" d="M53.5,41.1c-1.6,2.4-3.8,3.8-3.8,3.8v14.4c0,0-4-9-11-10.8c-5.1-1.6-11.5,2.8-11.5,2.8v-6.4
	c0,0-2.2-1.4-3.8-3.8l1-4.4c0,0,1.3,1.7,2,1.5c0.7-0.3-0.1-2.5-0.6-3.8c-0.5-1.3-0.5-3.6,0-4c0.5-0.4,0.8,0.4,1.8,0.5
	c1,0.1,0.9-1.6,0.4-2.9c-0.5-1.3-0.5-3.8,0-4c0.5-0.2,1.1,0.8,1.5,0.8c0.4,0,0.8-2.7-0.3-3.1c-1.1-0.4-0.9-1.5-0.9-2.2
	c0.1-0.7,0.5-0.7,1.7-0.8c1.3-0.1,1.3-1.1,1.2-2.1c-0.1-1.1-1.2-2-1.2-2.6c0-0.7,1.9-0.5,1.9-0.5c0-6.3,0.9-5.2,2.6-7.3
	C36.4,4,37.3,0,37.3,0h2.9c0,0,0.9,4,2.6,6.1c1.7,2.1,2.6,1,2.6,7.3c0,0,1.9-0.2,1.9,0.5c0,0.7-1.1,1.6-1.2,2.6
	c-0.1,1.1-0.1,2.1,1.2,2.1c1.3,0.1,1.7,0.1,1.7,0.8c0.1,0.7,0.2,1.8-0.9,2.2c-1.1,0.4-0.7,3.1-0.3,3.1c0.4,0,1.1-1,1.5-0.8
	c0.5,0.2,0.5,2.7,0,4c-0.5,1.3-0.6,3,0.4,2.9c1-0.1,1.3-0.9,1.8-0.5c0.5,0.4,0.5,2.8,0,4c-0.5,1.3-1.6,2.7-0.9,2.9
	c0.7,0.3,2.4,0.4,2.4,0.4L53.5,41.1z"/>
<path class="st5" d="M103.3,57.4c1.8,0,3.4,0.5,4.9,1.4c1.5,0.9,2.6,2.1,3.4,3.6h-2.8c-0.6-0.8-1.4-1.5-2.4-2c-1-0.5-2-0.7-3.1-0.7
	c-1.9,0-3.5,0.6-4.8,1.9c-1.3,1.2-2,2.8-2,4.5c0,1.8,0.7,3.3,2,4.5c1.3,1.2,2.9,1.9,4.8,1.9c1.1,0,2.2-0.2,3.1-0.7
	c1-0.5,1.8-1.1,2.4-2h2.8c-0.7,1.5-1.9,2.7-3.4,3.6c-1.5,0.9-3.1,1.4-4.9,1.4c-2.5,0-4.7-0.8-6.5-2.5c-1.8-1.7-2.7-3.7-2.7-6.1
	c0-2.4,0.9-4.4,2.7-6.1C98.6,58.2,100.8,57.4,103.3,57.4z"/>
<path class="st5" d="M126.9,67.9v6.8h-2.4v-1.7c-1.3,1.2-2.9,1.7-4.8,1.7c-2,0-3.7-0.7-5.1-2s-2.1-2.9-2.1-4.8
	c0-1.9,0.7-3.5,2.1-4.8c1.4-1.3,3.1-2,5.1-2c2,0,3.7,0.7,5.1,2C126.2,64.4,126.9,66,126.9,67.9z M119.7,63.4c-1.3,0-2.4,0.4-3.4,1.3
	c-0.9,0.9-1.4,1.9-1.4,3.2c0,1.2,0.5,2.3,1.4,3.2c0.9,0.9,2.1,1.3,3.4,1.3c1.3,0,2.4-0.4,3.4-1.3c0.9-0.9,1.4-1.9,1.4-3.2
	c0-1.3-0.5-2.3-1.4-3.2C122.2,63.8,121,63.4,119.7,63.4z"/>
<path class="st5" d="M140.7,61.1c1.3,0,2.4,0.4,3.4,1.3c0.9,0.9,1.4,1.9,1.4,3.2v9h-2.4v-9c0-0.6-0.2-1.1-0.7-1.6
	c-0.5-0.4-1-0.7-1.7-0.7c-0.7,0-1.2,0.2-1.7,0.7c-0.5,0.4-0.7,1-0.7,1.6v9H136l0-9c0-0.6-0.2-1.1-0.7-1.6c-0.5-0.4-1-0.7-1.7-0.7
	c-0.7,0-1.2,0.2-1.7,0.7c-0.5,0.4-0.7,1-0.7,1.6v9h-2.4v-9c0-1.2,0.5-2.3,1.4-3.2c0.9-0.9,2.1-1.3,3.4-1.3c1.4,0,2.6,0.5,3.6,1.5
	C138.1,61.6,139.3,61.1,140.7,61.1z"/>
<path class="st5" d="M147.1,67.9V57.4h2.4v5.5c1.4-1.1,3-1.7,4.8-1.7c2,0,3.7,0.7,5.1,2c1.4,1.3,2.1,2.9,2.1,4.8
	c0,1.9-0.7,3.5-2.1,4.8c-1.4,1.3-3.1,2-5.1,2c-2,0-3.7-0.7-5.1-2C147.8,71.3,147.1,69.7,147.1,67.9z M150.9,71.1
	c0.9,0.9,2.1,1.3,3.4,1.3c1.3,0,2.4-0.4,3.4-1.3c0.9-0.9,1.4-1.9,1.4-3.2c0-1.2-0.5-2.3-1.4-3.2c-0.9-0.9-2.1-1.3-3.4-1.3
	c-1.3,0-2.4,0.4-3.4,1.3c-0.9,0.9-1.4,1.9-1.4,3.2C149.5,69.1,150,70.2,150.9,71.1z"/>
<path class="st5" d="M165,63.1c1.4-1.3,3.1-2,5.1-2c2,0,3.7,0.7,5.1,2c1.4,1.3,2.1,2.9,2.1,4.8c0,1.9-0.7,3.5-2.1,4.8
	c-1.4,1.3-3.1,2-5.1,2c-2,0-3.7-0.7-5.1-2c-1.4-1.3-2.1-2.9-2.1-4.8C162.9,66,163.6,64.4,165,63.1z M173.5,64.7
	c-0.9-0.9-2.1-1.3-3.4-1.3c-1.3,0-2.4,0.4-3.4,1.3c-0.9,0.9-1.4,1.9-1.4,3.2c0,1.2,0.5,2.3,1.4,3.2c0.9,0.9,2.1,1.3,3.4,1.3
	c1.3,0,2.4-0.4,3.4-1.3c0.9-0.9,1.4-1.9,1.4-3.2C174.9,66.6,174.4,65.6,173.5,64.7z"/>
<path class="st5" d="M193.1,67.9c0,1.9-0.7,3.5-2.1,4.8c-1.4,1.3-3.1,2-5.1,2c-2,0-3.7-0.7-5.1-2c-1.4-1.3-2.1-2.9-2.1-4.8
	c0-1.9,0.7-3.5,2.1-4.8c1.4-1.3,3.1-2,5.1-2c1.8,0,3.4,0.6,4.8,1.7v-5.5h2.4V67.9z M182.6,71c0.9,0.9,2.1,1.3,3.4,1.3
	c1.3,0,2.4-0.4,3.4-1.3c0.9-0.9,1.4-1.9,1.4-3.2c0-1.2-0.5-2.3-1.4-3.2c-0.9-0.9-2.1-1.3-3.4-1.3c-1.3,0-2.4,0.4-3.4,1.3
	c-0.9,0.9-1.4,1.9-1.4,3.2C181.2,69.1,181.7,70.2,182.6,71z"/>
<path class="st5" d="M195.5,57.7c0.2-0.2,0.5-0.3,0.8-0.3s0.6,0.1,0.8,0.3c0.2,0.2,0.3,0.5,0.3,0.8s-0.1,0.6-0.3,0.8
	c-0.2,0.2-0.5,0.3-0.8,0.3s-0.6-0.1-0.8-0.3c-0.2-0.2-0.3-0.5-0.3-0.8S195.3,57.9,195.5,57.7z M195.2,61.1h2.4v13.5h-2.4V61.1z"/>
<path class="st5" d="M213.6,67.9v6.8h-2.4v-1.7c-1.3,1.2-2.9,1.7-4.8,1.7c-2,0-3.7-0.7-5.1-2c-1.4-1.3-2.1-2.9-2.1-4.8
	c0-1.9,0.7-3.5,2.1-4.8c1.4-1.3,3.1-2,5.1-2c2,0,3.7,0.7,5.1,2C212.9,64.4,213.6,66,213.6,67.9z M206.4,63.4c-1.3,0-2.4,0.4-3.4,1.3
	c-0.9,0.9-1.4,1.9-1.4,3.2c0,1.2,0.5,2.3,1.4,3.2c0.9,0.9,2.1,1.3,3.4,1.3c1.3,0,2.4-0.4,3.4-1.3c0.9-0.9,1.4-1.9,1.4-3.2
	c0-1.3-0.5-2.3-1.4-3.2C208.9,63.8,207.7,63.4,206.4,63.4z"/>
<path class="st5" d="M226.1,57.4h2.3l6.8,17.2h-1.6l-2.1-5.4H223l-2.1,5.4h-1.6L226.1,57.4z M227.2,58.6l-3.6,9.1h7.2L227.2,58.6z"
	/>
<path class="st5" d="M237.9,57.4c0.3,0,0.5,0.1,0.7,0.3c0.2,0.2,0.3,0.4,0.3,0.7c0,0.3-0.1,0.5-0.3,0.7c-0.2,0.2-0.4,0.3-0.7,0.3
	c-0.3,0-0.5-0.1-0.7-0.3c-0.2-0.2-0.3-0.4-0.3-0.7c0-0.3,0.1-0.5,0.3-0.7C237.3,57.5,237.6,57.4,237.9,57.4z M237.1,61.1h1.5v13.5
	h-1.5V61.1z"/>
<path class="st5" d="M260.2,69.9l2.8-8.8h1.5l-4.1,12.4h-0.6l-2.9-9.2l-2.9,9.2h-0.8l-4-12.4h1.5c0,0,2.5,9.8,2.7,9.4
	c0.1-0.3,2.7-9.4,2.7-9.4h1.5L260.2,69.9z"/>
<path class="st5" d="M273,61.1c1.9,0,3.5,0.7,4.9,2c1.3,1.3,2,2.9,2,4.8v6.8h-1.5v-2.5c-0.6,0.8-1.4,1.4-2.4,1.8
	c-0.9,0.5-1.9,0.7-3,0.7c-1.9,0-3.6-0.7-4.9-2s-2-2.9-2-4.8c0-1.9,0.7-3.5,2-4.8C269.4,61.8,271.1,61.1,273,61.1z M273,62.6
	c-1.5,0-2.8,0.5-3.8,1.5s-1.6,2.3-1.6,3.7c0,1.5,0.5,2.7,1.6,3.7c1,1,2.3,1.5,3.8,1.5c1.5,0,2.7-0.5,3.8-1.5c1.1-1,1.6-2.3,1.6-3.7
	c0-1.5-0.5-2.7-1.6-3.7C275.7,63.1,274.5,62.6,273,62.6z"/>
<path class="st5" d="M285.9,76c-0.4,1.1-1.1,2-2.1,2.7c-1,0.7-2,1.1-3.2,1.2v-1.5c0.9-0.1,1.6-0.4,2.3-0.9c0.7-0.5,1.2-1.2,1.5-2
	l1-2.7l-4.6-11.7h1.6l3.8,9.6l3.6-9.6h1.6L285.9,76z"/>
<path class="st5" d="M298.4,74.6c-1.6,0-3-0.4-4.1-1.2c-1.1-0.8-1.7-1.8-1.7-2.9h2.1c0,0.7,0.4,1.3,1.1,1.8c0.7,0.5,1.6,0.8,2.6,0.8
	c1,0,1.9-0.3,2.6-0.8c0.7-0.5,1.1-1.1,1.1-1.9c0-0.7-0.3-1.2-0.8-1.6c-0.6-0.4-1.2-0.8-2.1-1s-1.6-0.5-2.4-0.7
	c-0.8-0.2-1.5-0.6-2-1.1c-0.6-0.5-0.8-1.1-0.8-1.8c0-0.9,0.4-1.6,1.3-2.2c0.9-0.6,1.9-0.9,3.2-0.9c1.2,0,2.3,0.3,3.2,0.9
	c0.9,0.6,1.3,1.4,1.3,2.2h-2.1c0-0.5-0.2-0.8-0.7-1.2c-0.5-0.3-1-0.5-1.6-0.5c-0.6,0-1.2,0.2-1.6,0.5c-0.5,0.3-0.7,0.7-0.7,1.2
	c0,0.5,0.3,0.9,0.8,1.2c0.6,0.3,1.2,0.6,2,0.8c0.8,0.2,1.6,0.5,2.4,0.8c0.8,0.3,1.5,0.7,2.1,1.3c0.6,0.6,0.8,1.3,0.8,2.1
	c0,1.1-0.6,2.1-1.7,2.9C301.4,74.2,300.1,74.6,298.4,74.6z"/>
<path class="st5" d="M247.7,61.1c-1.7,0-3.2,0.6-4.4,1.8c-0.1,0.1-0.2,0.2-0.3,0.3v-1.7h-1.5v5.6v7.5h1.5v-7.5
	c0-1.2,0.5-2.3,1.4-3.2c0.9-0.9,2-1.3,3.3-1.3h0.6v-1.5H247.7z"/>
<path class="st9" d="M142.3,35.6c1.1,1,2.6,0.4,4,0.9c-1.3,2.6-3.5,2.6-5.9,2.1c-2.4-0.5-0.1-2.1-0.6-3
	C140.7,32.6,141.5,36.4,142.3,35.6z"/>
</svg>
