<?xml version="1.0" encoding="utf-8"?>
<!-- Generator: Adobe Illustrator 25.4.1, SVG Export Plug-In . SVG Version: 6.00 Build 0)  -->
<svg version="1.1" xmlns="http://www.w3.org/2000/svg" xmlns:xlink="http://www.w3.org/1999/xlink" x="0px" y="0px"
	 viewBox="0 0 220.96 80" style="enable-background:new 0 0 220.96 80;" xml:space="preserve">
<style type="text/css">
	.st0{fill:url(#SVGID_1_);}
</style>
<g id="Layer_2">
</g>
<g id="Layer_1">
	<g>
		
			<radialGradient id="SVGID_1_" cx="404.2751" cy="-248.2889" r="5.0787" gradientTransform="matrix(18.3789 0 0 18.3789 -7270.4644 4611.46)" gradientUnits="userSpaceOnUse">
			<stop  offset="0" style="stop-color:#00AEEF"/>
			<stop  offset="0.476" style="stop-color:#00AEEF"/>
			<stop  offset="0.799" style="stop-color:#0B4379"/>
			<stop  offset="1" style="stop-color:#1E285A"/>
		</radialGradient>
		<path class="st0" d="M0,0.55c21.71,11.53,78.36,53.51,138.66,70.58c2.89,0.85,5.79,1.6,8.59,2.25
			c23.66,5.79,48.07,7.84,72.37,5.94c-87.9-14.82-115.7-39.83-119.69-45.27c-0.45-0.6-0.65-0.95-0.65-0.95
			c-0.25-0.1,14.23-14.18,42.23-13.83c34.94,0.45,58.6,11.08,58.6,11.08c-11.03-6.54-22.86-11.68-35.14-15.22
			c-5.54-1.7-11.18-3.04-16.87-4.04c-3.54-0.7-7.14-1.2-10.78-1.55c-18.07-1.9-31.55,2.05-42.78,5.99
			C84,19.22,70.43,26.15,52.41,18.42c-7.74-3.34-13.13-4.44-22.01-3.44C16.37,9.13,5.79,2.3,0.5,0L0,0.55z"/>
	</g>
</g>
</svg>
