<?xml version="1.0" encoding="utf-8"?>
<!-- Generator: Adobe Illustrator 25.4.1, SVG Export Plug-In . SVG Version: 6.00 Build 0)  -->
<svg version="1.1" xmlns="http://www.w3.org/2000/svg" xmlns:xlink="http://www.w3.org/1999/xlink" x="0px" y="0px"
	 viewBox="0 0 220.96 80" style="enable-background:new 0 0 220.96 80;" xml:space="preserve">
<style type="text/css">
	.st0{fill:url(#SVGID_1_);}
	.st1{fill:#20285C;}
</style>
<g id="Layer_2">
</g>
<g id="Layer_1">
	<g>
		
			<radialGradient id="SVGID_1_" cx="399.776" cy="-248.4401" r="2.4485" gradientTransform="matrix(18.3789 0 0 18.3789 -7270.4644 4611.46)" gradientUnits="userSpaceOnUse">
			<stop  offset="0" style="stop-color:#00AEEF"/>
			<stop  offset="0.476" style="stop-color:#00AEEF"/>
			<stop  offset="0.799" style="stop-color:#0B4379"/>
			<stop  offset="1" style="stop-color:#1E285A"/>
		</radialGradient>
		<path class="st0" d="M0,22.44C10.47,28,37.78,48.24,66.85,56.47c1.4,0.41,2.79,0.77,4.14,1.08c11.41,2.79,23.17,3.78,34.89,2.86
			c-42.38-7.15-55.78-19.2-57.71-21.83c-0.22-0.29-0.31-0.46-0.31-0.46c-0.12-0.05,6.86-6.83,20.36-6.67
			c16.85,0.22,28.25,5.34,28.25,5.34c-5.32-3.15-11.02-5.63-16.94-7.34c-2.67-0.82-5.39-1.47-8.13-1.95
			c-1.71-0.34-3.44-0.58-5.2-0.75c-8.71-0.91-15.21,0.99-20.62,2.89c-5.08,1.78-11.62,5.13-20.31,1.4
			c-3.73-1.61-6.33-2.14-10.61-1.66c-6.76-2.82-11.86-6.11-14.41-7.22L0,22.44z"/>
		<g>
			<path class="st1" d="M220.89,13.8c0.07-0.31,0.19-1.08-0.26-1.18c-0.55-0.12-1.18,1.4-1.37,1.73c-1.44,2.74-1.18,3.73-0.94,8.01
				s-0.34,6.74-0.51,7.53c-0.17,0.79-0.63,2.05-0.07,2.09c0.53,0.05,0.84-0.46,1.83-2.86s1.2-5.94,1.23-8.13
				c0.02-2-0.29-3.99-0.1-5.97C220.74,14.64,220.79,14.23,220.89,13.8 M194.42,20.59c-0.36-0.17-0.96,1.08-1.83,2.38
				c-0.87,1.28-1.8,2.41-3.56,2.26c-1.76-0.14-1.11-2.26-0.94-3.03c0.14-0.63,0.26-1.23,0.36-1.88c0.05-0.34,0.12-0.72,0.07-1.06
				c-0.02-0.22-0.14-0.31-0.36-0.29c-0.46,0.05-0.91,0.77-1.13,1.16c-0.29,0.48-0.46,1.01-0.65,1.54c-0.24,0.72-0.41,1.47-0.63,2.21
				c-0.19,0.65-0.29,0.96-0.29,0.96c-6.81,4.33-21.85,6.3-28.47,6.52c-6.62,0.19-14.17-1.25-18.05-2.91
				c-3.87-1.66-4.36-3.13-4.52-3.03c-0.17,0.12-1.28,2-2.24,3.1c-0.96,1.11-3.42,3.08-4.89,1.11c-1.47-1.97-2.43-2.29-2.96-2.38
				c-3.2-0.51-7.32,4.48-8.11,6.93c-0.6,1.47-1.37,3.87-1.06,3.87c0.31,0,0.34-0.17,1.78-2.45c1.83-2.89,4.04-3.85,5.63-3.51
				s1.4,2.65,3.56,2.74c3.44,0.17,6.02-3.99,6.38-4.4c0.36-0.41,0.26-0.41,0.79-0.1c0.53,0.31,9.79,4.91,20.09,5.22
				c15.06,0.46,32.05-8.33,32.05-8.33s0.05,2.6,2.29,2.38c3.42-0.19,5.82-5.58,6.47-6.95C194.85,21.33,194.63,20.68,194.42,20.59"/>
			<path class="st1" d="M171.39,16.93c1.54,0.48,2.65,1.76,2.84,2.17c0.17,0.41,0.05,0.67,0.26,0.72c0.17,0.02,0.53-0.39,0.65-0.48
				c0.79-0.67,1.54-1.42,2.21-2.21c0.07-0.1,0.17-0.19,0.24-0.29c0.1,0.05,0.19,0.07,0.29,0.1c1.54,0.48,2.65,1.76,2.84,2.17
				c0.17,0.41,0.05,0.67,0.26,0.72c0.17,0.02,0.53-0.39,0.65-0.48c0.79-0.67,1.54-1.42,2.21-2.21c0.36-0.43,0.6-0.79,0.36-1.35
				c-0.24-0.48-0.58-0.89-1.01-1.23c-0.55-0.48-1.16-0.89-1.78-1.28c-0.31-0.19-0.84-0.63-1.23-0.51c-0.34,0.1-0.67,0.58-0.89,0.82
				c-0.58,0.63-1.13,1.28-1.66,1.95l-0.02,0.02c-0.24-0.39-0.55-0.75-0.91-1.01c-0.58-0.51-1.2-0.94-1.88-1.32
				c-0.36-0.22-0.89-0.63-1.3-0.36c-0.36,0.24-0.67,0.67-0.96,0.99c-0.48,0.55-1.06,1.11-1.47,1.71
				C170.4,16.64,170.9,16.78,171.39,16.93 M118.13,16.93c1.54,0.48,2.65,1.76,2.84,2.17c0.17,0.41,0.05,0.67,0.26,0.72
				c0.17,0.02,0.53-0.39,0.65-0.48c0.77-0.67,1.54-1.42,2.21-2.21c0.07-0.1,0.17-0.19,0.24-0.29c0.1,0.05,0.19,0.07,0.29,0.1
				c1.54,0.48,2.65,1.76,2.84,2.17c0.17,0.41,0.05,0.67,0.26,0.72c0.17,0.02,0.53-0.39,0.65-0.48c0.79-0.67,1.54-1.42,2.21-2.21
				c0.36-0.43,0.6-0.79,0.36-1.35c-0.24-0.48-0.58-0.89-1.01-1.23c-0.55-0.48-1.16-0.89-1.78-1.28c-0.31-0.19-0.84-0.63-1.23-0.51
				c-0.34,0.1-0.67,0.58-0.89,0.82c-0.58,0.63-1.13,1.28-1.66,1.95l-0.02,0.02c-0.24-0.39-0.55-0.75-0.91-1.01
				c-0.58-0.51-1.2-0.94-1.88-1.32c-0.36-0.22-0.89-0.63-1.3-0.36c-0.36,0.24-0.67,0.67-0.96,0.99c-0.48,0.55-1.06,1.11-1.47,1.71
				C117.15,16.64,117.67,16.78,118.13,16.93 M187.89,36.01c-0.55-0.48-1.16-0.89-1.78-1.28c-0.31-0.19-0.82-0.63-1.23-0.51
				c-0.34,0.1-0.67,0.58-0.89,0.82c-0.58,0.63-1.13,1.28-1.66,1.95l-0.02,0.02c-0.24-0.39-0.55-0.75-0.89-1.03
				c-0.58-0.51-1.2-0.94-1.88-1.32c-0.36-0.22-0.89-0.63-1.3-0.36c-0.36,0.22-0.67,0.67-0.96,0.99c-0.48,0.55-1.06,1.11-1.44,1.71
				c-0.7,1.06-0.19,1.2,0.26,1.35c1.54,0.48,2.65,1.76,2.84,2.17c0.17,0.41,0.05,0.67,0.29,0.72c0.17,0.02,0.53-0.39,0.65-0.48
				c0.77-0.67,1.54-1.42,2.21-2.21c0.07-0.1,0.17-0.19,0.24-0.29c0.1,0.02,0.19,0.07,0.29,0.1c1.54,0.48,2.65,1.76,2.84,2.17
				c0.17,0.41,0.05,0.67,0.29,0.72c0.17,0.02,0.53-0.39,0.65-0.48c0.79-0.7,1.52-1.42,2.21-2.21c0.36-0.43,0.6-0.79,0.36-1.35
				C188.66,36.76,188.33,36.32,187.89,36.01 M139.65,36.01c-0.55-0.48-1.16-0.89-1.78-1.28c-0.31-0.19-0.82-0.63-1.23-0.51
				c-0.34,0.1-0.67,0.58-0.89,0.82c-0.58,0.63-1.13,1.28-1.66,1.95l-0.02,0.02c-0.24-0.39-0.55-0.75-0.91-1.03
				c-0.58-0.51-1.2-0.94-1.88-1.32c-0.36-0.22-0.89-0.63-1.3-0.36c-0.36,0.22-0.67,0.67-0.96,0.99c-0.48,0.55-1.06,1.11-1.44,1.71
				c-0.7,1.06-0.19,1.2,0.29,1.35c1.54,0.48,2.65,1.76,2.84,2.17c0.17,0.41,0.05,0.67,0.29,0.72c0.17,0.02,0.53-0.39,0.65-0.48
				c0.77-0.67,1.54-1.42,2.21-2.21c0.07-0.1,0.17-0.19,0.24-0.29c0.1,0.02,0.19,0.07,0.29,0.1c1.54,0.48,2.65,1.76,2.84,2.17
				c0.17,0.41,0.05,0.67,0.26,0.72c0.17,0.02,0.55-0.39,0.65-0.48c0.79-0.7,1.52-1.42,2.21-2.21c0.36-0.43,0.6-0.79,0.36-1.35
				C140.42,36.76,140.05,36.32,139.65,36.01 M217.25,8.6c0.55-1.32,0.17-1.56,0-1.56c-0.39,0-1.44,1.93-2.6,4.43
				c-0.84,1.78-1.23,3.73-1.11,5.68c0.02,1.28-0.1,5.7-0.17,6.18c-0.48,2.77-2.02,4.64-4.16,3.95c-1.61-0.84-1.56-11.45-1.2-11.86
				c1.68-1.85,7.32-9.41,7.51-9.6c1.47-1.83,1.28-2.96,1.28-5.27c0-0.87-0.48-0.53-0.87-0.1c-0.07,0.07-7.03,8.4-8.81,11.57
				c-1.52,2.74-0.43,12.32-0.96,13.5c-1.01,2.14-3.83,3.34-3.83,3.34c-0.1-0.63-0.43-1.95-1.76-3.49c-1.32-1.54-3.42-0.46-4.24,0.84
				c-0.82,1.28-2.31,3.68-1.95,5.32c0.34,1.64,2.07,2.24,3.13,2.24c1.01,0,2.09-0.43,2.36-0.22c0.46,0.36-1.08,1.18-1.83,1.73
				c-1.95,1.35-4.45,2.7-5.17,3.13c-0.6,0.36-1.88,0.87-1.68,1.35c0.12,0.31,0.53,0.17,0.79,0.12c0.63-0.1,2.38-0.51,3.42-0.67
				c4.14-0.77,4.93-2.72,5.92-5.32c0.82-2.19,4.31-5.61,4.79-5.61c0.51,0,0.12,3.66,2.72,3.66c7.46,0,7.29-14.7,7.22-17.69
				C215.88,11.27,216.7,9.92,217.25,8.6 M129.56,66.26l-5.97-7.05l7.84-8.25h-2.77l-7.72,8.11v-8.09h-5.92v1.06h0.29
				c1.93,0.07,2.31,0.43,2.31,2.17v16.07h3.32v-9.26l7.89,9.26h5.29v-1.03l-0.29-0.02C132.38,69.07,131.37,68.4,129.56,66.26
				 M149.01,62.51c0,4.24-1.47,6.23-4.6,6.23c-3.03,0-4.36-1.83-4.36-5.9V50.93h-5.9v1.06h0.29c1.88,0.02,2.29,0.41,2.29,2.17v8.54
				c0,5.29,2.33,7.84,7.17,7.84c4.81,0,7.07-2.57,7.07-8.09V50.91h-1.97L149.01,62.51z M176.22,50.95l-3.85,13.14l-4.48-13.14h-5.37
				v1.06h0.31c1.28,0,2.31,0.89,2.77,2.38l-3.37,9.6l-3.9-13.07h-5.05v1.06h0.31c1.11,0,1.9,0.84,2.41,2.48l4.72,15.98h1.56
				l4.45-12.78l4.45,12.78h1.47l5.68-19.52L176.22,50.95z M194.1,66.57l-6.21-15.62h-4.96v1.06h0.29c1.88,0.02,1.88,0.58,1.88,0.79
				c0,0.14-0.12,0.58-0.43,1.35l-6.45,16.1h2.07l2.45-6.18h6.88l2.48,6.18h4.91V69.2h-0.29C195.47,69.17,194.92,68.59,194.1,66.57
				 M188.93,62.31h-5.46l2.74-6.86L188.93,62.31z M197.01,51.99h0.29c1.95,0.07,2.31,0.41,2.31,2.17v16.07h3.3v-19.3h-5.9V51.99z
				 M220.96,50.95h-15.81v4.89h0.89l0.05-0.24c0.31-1.61,0.65-2.24,1.35-2.57c0.55-0.26,1.2-0.34,2.96-0.34h1.06v17.57h3.32V52.69
				h1.03c3.34,0,3.78,0.29,4.31,2.91l0.05,0.24h0.79V50.95z M118.9,79.88l-0.7-1.73h-2.05l-0.7,1.73h-0.41l1.78-4.4
				c0.07-0.12,0.12-0.26,0.14-0.41c0-0.22-0.19-0.31-0.63-0.31v-0.14h1.25l1.73,4.36c0.24,0.6,0.41,0.79,0.82,0.79v0.12H118.9z
				 M117.19,75.57l-0.89,2.26h1.78L117.19,75.57z M133.29,79.88v-4.45c0-0.55-0.14-0.67-0.72-0.7v-0.12h1.49v5.27H133.29z
				 M151.39,79.11c0.26,0.41,0.6,0.63,0.89,0.63v0.14h-1.23l-1.64-2.45h-0.48v2.43h-0.75V75.4c0-0.53-0.17-0.67-0.75-0.7v-0.12h2.17
				c1.32,0,1.97,0.46,1.97,1.42c0,0.51-0.22,0.91-0.63,1.13c-0.22,0.12-0.46,0.17-0.7,0.19L151.39,79.11z M148.91,77.11
				c0.63,0,0.79,0,0.99-0.05c0.58-0.12,0.84-0.43,0.84-1.03c0-0.77-0.43-1.11-1.44-1.11c-0.36,0-0.39,0.02-0.39,0.43V77.11z
				 M169.46,79.95h-0.29l-1.32-3.78l-1.32,3.78h-0.31l-1.3-4.45c-0.14-0.51-0.41-0.77-0.77-0.77v-0.12h1.28l1.16,3.87l1.03-2.98
				c-0.14-0.48-0.46-0.77-0.87-0.77v-0.12h1.37l1.32,3.9l1.16-3.9H171L169.46,79.95z M187.2,79.88l-0.7-1.73h-2.05l-0.7,1.73h-0.41
				l1.78-4.4c0.07-0.12,0.1-0.26,0.12-0.41c0-0.22-0.19-0.31-0.6-0.31v-0.14h1.25l1.73,4.36c0.24,0.6,0.41,0.79,0.82,0.79v0.12
				H187.2z M185.46,75.57l-0.89,2.26h1.78L185.46,75.57z M202.91,77.43v1.59c0,0.58,0.14,0.7,0.72,0.72v0.12h-1.49v-2.41l-1.13-1.78
				c-0.48-0.75-0.7-0.94-1.18-0.96v-0.12h1.35l1.56,2.41l1.52-2.41h0.46L202.91,77.43z M219.66,74.8c-0.89,0.05-1.37,0.34-1.37,0.84
				c0,0.41,0.31,0.72,1.16,1.16c1.11,0.55,1.49,1.01,1.49,1.71c0,0.87-0.75,1.49-1.78,1.49c-0.29,0-0.53-0.05-1.2-0.19
				c0,0-0.17-0.05-0.34-0.05l-0.12-1.23h0.12c0.24,0.75,0.77,1.16,1.47,1.16c0.63,0,1.11-0.41,1.11-0.94c0-0.46-0.31-0.79-1.18-1.23
				c-0.6-0.29-0.99-0.58-1.16-0.84c-0.14-0.22-0.24-0.48-0.24-0.75c0-0.46,0.22-0.84,0.58-1.06c0.36-0.19,0.72-0.26,1.44-0.29
				L219.66,74.8z"/>
		</g>
	</g>
</g>
</svg>
