<?xml version="1.0" encoding="utf-8"?>
<!-- Generator: Adobe Illustrator 26.0.0, SVG Export Plug-In . SVG Version: 6.00 Build 0)  -->
<svg version="1.1" id="Layer_1" xmlns="http://www.w3.org/2000/svg" xmlns:xlink="http://www.w3.org/1999/xlink" x="0px" y="0px"
	 viewBox="0 0 67.79 80" style="enable-background:new 0 0 67.79 80;" xml:space="preserve">
<style type="text/css">
	.st0{fill:#18468B;}
	.st1{fill:#419629;}
	.st2{fill:#C4122E;}
</style>
<path class="st0" d="M15.28,29.47L2.8,45.34c0,0-2.79,3.36,3.5,7.4l4.95-6.38l1.05,0.76l-4.75,6.61l4.69,3.38l-3.58,4.54
	c0,0-1.91,2.54,0.33,5.23l0.03,0.13l-6.85,9.37c0,0-0.56,0.73-0.62,1.04c-0.06,0.31-0.13,0.59,0,0.69c0.13,0.09,0.43,0.23,1.02-0.34
	c0.58-0.59,8.36-8.24,8.36-8.24s0.29-0.59,1.24-0.11c0.95,0.48,1.84,1.04,3.87-0.61c2.03-1.66,6.06-7.52,6.06-7.52l0.32,0.04
	l0.56,7.86l10.71,0.03L48,80L50,79.9L26.75,61.62l0.81-0.84l5.23,4.05L28.3,29.54L15.28,29.47"/>
<path class="st1" d="M17.52,11.37c-4.69-0.06-7.45,0.38-7.45,0.38c-3.24,0.43-4.39,1.34-4.39,1.34c-3.62,2.25-3.22,7.77-3.22,7.77
	l3.59-0.11l0.05,0.59c0.25,2.33,2.52,2.3,2.52,2.3c4.21-0.38,5.31,0.21,5.31,0.21c1.49,0.29,1.5,1.61,1.5,1.61l12.76-0.11
	c0,0-0.67-9.69-2.09-11.79c-1.18-1.71-3.27-1.98-3.27-1.98C20.87,11.43,19.09,11.39,17.52,11.37z M30.17,30.34l0.75,5.63l6.16,0.16
	l1.07-3.27C38.16,32.86,34.61,30.38,30.17,30.34L30.17,30.34z M39.55,33.72l-1.07,3.22l3.54,4.13l4.02-0.11
	C46.03,40.95,44.23,36.03,39.55,33.72z M31.08,37.53l1.29,8.84l6.16,0.32l2.36-4.88l-3.8-4.23L31.08,37.53L31.08,37.53z M46.3,42.29
	l-4.02,0.16l-2.14,4.66l3.16,3.59h4.45C48.38,45.69,46.3,42.29,46.3,42.29L46.3,42.29z M32.58,47.87l1.23,8.52l5.73-0.11l2.89-4.82
	l-3.11-3.38L32.58,47.87z M17.04,50.81l-4.98,6.16c3.73,2.76,5.89-0.48,5.89-0.48C20.3,53.67,17.04,50.81,17.04,50.81L17.04,50.81z
	 M43.3,52.21l-2.73,4.34l3.48,3.21c2.44-2.69,3.32-7.56,3.32-7.56L43.3,52.21L43.3,52.21z M39.6,57.73l-5.63,0.16l1.18,8.31
	c4.11-1.06,7.88-5.04,7.88-5.04S39.6,57.73,39.6,57.73z"/>
<path class="st2" d="M17.31,0.01C7.2,0.21,0,7.19,0,7.19l6.27,6.06c2.83-1.9,14.79-1.02,14.79-1.02c4.36-0.16,4.77,2.25,4.77,2.25
	c0.97,2.15,1.93,10.82,1.93,10.82l-12.81,0.05c-0.86,2.2,0.32,4.13,0.32,4.13l18.11,0.11h0.27c0.59-0.07,1.79-1.05,2.36-1.29
	c1.2-0.49,2.39-1.25,3.16-2.36c0.17-0.27,0.31-0.52,0.54-0.75c0.75-0.75,1.82-1.13,2.84-1.18c1.49-0.09,2.91,0.59,4.39,0.7
	c1.22,0.09,2.5-0.07,3.59-0.7c1.12-0.65,1.98-1.7,2.63-2.89c0.32-0.62,0.48-1.37,0.91-1.93c0.25-0.33,0.55-0.63,0.91-0.8
	c0.62-0.28,1.33-0.27,1.98-0.11c0.93,0.55,1.91,0.98,2.95,1.13c0.77,0.1,1.55,0.03,2.25-0.32c0.36-0.18,0.71-0.49,0.96-0.8
	c0.36-0.43,0.51-1,0.64-1.55l0.91-5.79c0.09-0.54,0.27-1.04,0.43-1.55c0.2-0.65,0.3-1.32,0.59-1.93c0.56-1.14,1.3-2.15,2.09-3.11
	V4.19c-0.43-0.11-0.89-0.06-1.34-0.05c-1.44,0.05-2.88,0.29-4.29,0.59c-2.78,0.63-5.46,1.76-7.72,3.64
	c-0.39,0.32-0.76,0.72-1.13,1.07l-0.43,0.32c-1.8,0.44-3.44,1.53-4.56,3.11c-0.27,0.37-0.54,0.76-0.75,1.18
	c-0.12,0.24-0.17,0.48-0.27,0.75c-0.2,0.51-0.44,1.02-0.64,1.55c-0.24,0.6-0.7,1.14-1.23,1.45c-0.49,0.28-1.11,0.36-1.66,0.43
	c-1.42,0.2-2.84,0.17-4.29,0.05c-1.43,0.11-2.9,0.53-4.13,1.39c-0.45,0.33-0.86,0.74-1.23,1.18c-0.65,0.75-1.05,1.7-1.82,2.3
	c-2.59,2.04-2.95,2.2-3.59,2.14l-0.11-1.02l10.82-11.31l-0.21-0.05c-2.56,1.9-3.38-1.61-3.38-1.61c-1.07-4.05-4.72-6.97-4.72-6.97
	C25.9-0.46,17.31,0.01,17.31,0.01L17.31,0.01z M16.56,31.68l0.86,1.29l8.63,0.11l0.64-1.29L16.56,31.68z M18.33,34.26l0.86,1.18
	l5.04,0.11l0.8-1.29H18.33z M19.88,36.67l0.64,1.02h2.41l0.54-1.02H19.88z M21.49,39.62c-3.96-0.19-5.57,2.52-5.57,2.52
	c-1.96,3.47,0.11,6,0.11,6L21.49,39.62z M22.03,39.62l5.95,9.11c0,0,1.73-2.67-0.43-6.11C27.54,42.62,25.64,39.72,22.03,39.62z
	 M23.58,70.7c-0.29,0-0.39,0.37-0.48,0.64l-0.05,7.55l0.05,0.22v0.05l0.16,0.11l4.77,0.05c0.22,0,0.41-0.17,0.48-0.37
	c-0.08-0.7-0.04-1.39,0.16-2.09h0.11c0.92,1.31,2.37,2.06,3.86,2.46l6.86,0.11l0.27-0.16l0.11-0.43c0.08-0.8,0.12-1.67,0.05-2.47
	c0.1-0.25-0.09-0.44-0.32-0.53c-0.31-0.11-0.65,0.02-0.96,0c-0.92-0.08-1.85-0.36-2.63-0.91c-0.85-0.59-1.58-1.41-1.93-2.41
	c-0.19-0.46-0.24-0.95-0.32-1.45l-0.21-0.21L23.58,70.7L23.58,70.7L23.58,70.7z"/>
<path class="st0" d="M16.67,10.78c-4.2,0-6.62,0.37-6.65,0.37c-3.33,0.43-4.59,1.44-4.66,1.5c-1.56,1.01-2.45,2.57-2.89,4.02
	C2,18.16,1.93,19.55,1.93,20.32v0.59l0.05,0.54l3.59-0.16l0.05,0.11c0.13,1.36,0.9,2.13,1.61,2.47c0.72,0.35,1.35,0.32,1.39,0.32
	h0.05c1.05-0.09,1.89-0.11,2.57-0.11c1,0,1.67,0.09,2.04,0.16l0.32,0.11h0.16l0.05,0.05c0.6,0.13,0.78,0.4,0.91,0.64l0.16,0.32v0.11
	h1.07c0-0.06-0.02-0.47-0.27-0.96c-0.23-0.47-0.73-0.99-1.55-1.18c-0.11-0.05-0.78-0.37-2.89-0.38c-0.72,0-1.6,0.06-2.68,0.16
	C8.4,23.1,7.91,22.99,7.5,22.73c-0.39-0.26-0.75-0.64-0.86-1.45c0.14,0,0.17,0,0.43,0c0.84,0,2.23-0.05,3.54-0.21
	c0.65-0.08,1.27-0.21,1.82-0.38c0.54-0.18,1-0.38,1.34-0.8l-0.8-0.7c-0.08,0.12-0.4,0.29-0.86,0.43c-1.38,0.45-3.82,0.54-5.04,0.54
	H6.32L3,20.32c0-0.69,0.07-2.01,0.48-3.32c0.41-1.31,1.15-2.61,2.47-3.43H6c0.07-0.05,1.21-0.89,4.18-1.29l0.43-0.05
	c0.86-0.1,2.95-0.32,6.05-0.32c1.75,0,3.84,0.09,6.16,0.27h0.05c0.35,0.05,1.91,0.42,2.79,1.71c0.27,0.38,0.55,1.35,0.8,2.52
	c0.39,1.76,0.71,4.04,0.91,5.84c0.19,1.8,0.26,3.11,0.27,3.11l1.07-0.05c0-0.01-0.18-2.45-0.54-5.14c-0.17-1.35-0.37-2.79-0.64-4.02
	c-0.27-1.23-0.58-2.23-1.02-2.89c-1.36-1.94-3.54-2.18-3.59-2.2h-0.05C20.53,10.87,18.44,10.78,16.67,10.78z M10.88,14.96
	c0,0-2.02-0.11-2.2,2.09L13.29,17C13.29,17,13.06,14.89,10.88,14.96z"/>
</svg>
