<?xml version="1.0" encoding="utf-8"?>
<!-- Generator: Adobe Illustrator 26.0.0, SVG Export Plug-In . SVG Version: 6.00 Build 0)  -->
<svg version="1.1" id="Layer_1" xmlns="http://www.w3.org/2000/svg" xmlns:xlink="http://www.w3.org/1999/xlink" x="0px" y="0px"
	 viewBox="0 0 490.16 80" style="enable-background:new 0 0 490.16 80;" xml:space="preserve">
<style type="text/css">
	.st0{fill:#18468B;}
	.st1{fill:#419629;}
	.st2{fill:#C4122E;}
</style>
<g>
	<path class="st0" d="M335.92,19.56c-2.04,0-3.46,1.69-3.46,3.64c0,1.88,1.43,3.64,3.46,3.64c2.04,0,3.46-1.76,3.46-3.64
		C339.39,21.25,337.96,19.56,335.92,19.56L335.92,19.56z M78.55,20.96c-9.75,0-23.05,5.15-23.05,22.49
		c0,16.49,11.13,22.31,22.92,22.31c5.99,0,11.02-1.65,12.75-2.5c1.48-3.9,2.13-6.95,2.5-11.05l-1.67-0.35
		c-1.91,5.19-3.46,11.75-13.72,11.75c-11.24,0-16.3-10.29-16.3-21.39c0-12.14,6.39-19.15,16.52-19.15
		c10.56,0,11.35,7.92,11.97,10.52l1.66-0.35c0-3.25-0.41-7.05-0.96-9.64C89.57,22.55,84.86,20.96,78.55,20.96L78.55,20.96z
		 M308.83,20.96l-1.8,0.61c-0.49,1.24-1.01,2.56-1.49,3.86l-12.84,32.83c-1.49,3.77-1.81,4.47-4.16,4.87l-1.14,0.22v1.4h12.97v-1.4
		l-3.72-0.52c-0.68-0.07-1.49-0.25-1.49-1.49c0-0.51,0.53-2.3,1.27-4.38l3.11-8.98c2.16-0.39,4.33-0.66,6.49-0.66
		c2.3,0,4.6,0.2,6.88,0.66l4.3,12.27c0.12,0.46,0.39,0.92,0.39,1.36c0,0.71-0.82,1.04-1.93,1.23l-2.76,0.52v1.4h15.3v-1.4
		l-2.45-0.39c-1.6-0.32-2.22-1.82-3.16-4.42L308.83,20.96z M306.25,29.77l5.65,15.69c-1.98-0.25-3.94-0.31-5.92-0.31
		c-1.85,0-3.76,0.18-5.61,0.31L306.25,29.77z M110.5,34.24c-6.55,0-10.5,4.37-12.36,6.97c0.44,1.18,0.9,1.8,1.58,2.59h0.53
		c1.18-2.41,2.68-6.49,7.63-6.49c4.63,0,5.74,3.69,5.74,7.98v1.49c-5.43,1.68-16.09,4.23-16.09,12.67c0,3.58,3.05,6.31,7.63,6.31
		c4.81,0,7.13-1.41,9.12-2.76c0.62,1.35,1.71,2.76,4.87,2.76c2.59,0,3.89-1.04,4.69-1.62l-0.31-0.92c-0.24,0.13-0.48,0.26-1.1,0.26
		c-3.4,0-3.42-4.88-3.42-9.42v-9.29C119.01,38.13,117.54,34.24,110.5,34.24L110.5,34.24z M165.16,34.24c-2.17,0-7.81,1.69-9.6,2.28
		l0.26,1.58l1.36-0.39c0.12,0,0.57-0.09,0.88-0.09c1.74,0,1.71,1.83,1.71,8.2v12.58c0,4.03-0.55,4.47-2.72,4.73l-1.49,0.22v1.4
		h13.81v-1.4l-1.45-0.22c-2.28-0.26-2.76-0.7-2.76-4.73V41.12c0.93-1.1,2.95-3.81,6.66-3.81c6.36,0,6.35,6.5,6.35,9.03v12.06
		c0,4.03-0.56,4.47-2.72,4.73l-1.49,0.22v1.4h13.76v-1.4l-1.4-0.22c-2.28-0.26-2.76-0.7-2.76-4.73v-9.16c0-5.53-0.06-6.73-0.31-8.81
		c1.74-1.87,3.71-3.11,6.49-3.11c6.85,0,6.84,6.15,6.84,12.05v9.03c0,4.03-0.55,4.47-2.72,4.73l-1.49,0.22v1.4h13.76v-1.4l-1.4-0.22
		c-2.29-0.26-2.76-0.7-2.76-4.73V47.83c0-6.43-0.04-13.59-10.17-13.59c-4.51,0-7.9,2.91-9.38,4.21c-0.68-1.87-2.88-4.21-8.06-4.21
		c-4.88,0-7.79,3-9.2,4.43L165.16,34.24z M221.66,34.24c-6.54,0-10.47,4.37-12.32,6.97c0.42,1.18,0.9,1.8,1.58,2.59h0.53
		c1.17-2.41,2.68-6.49,7.63-6.49c4.63,0,5.74,3.69,5.74,7.98v1.49c-5.44,1.68-16.13,4.23-16.13,12.67c0,3.58,3.09,6.31,7.67,6.31
		c4.81,0,7.09-1.41,9.07-2.76c0.62,1.35,1.76,2.76,4.91,2.76c2.59,0,3.88-1.04,4.69-1.62l-0.31-0.92c-0.25,0.13-0.52,0.26-1.14,0.26
		c-3.4,0-3.37-4.88-3.37-9.42v-9.29C230.2,38.13,228.7,34.24,221.66,34.24L221.66,34.24z M247.47,34.24c-2.17,0-7.76,1.69-9.56,2.28
		l0.26,1.58l1.36-0.39c0.12,0,0.52-0.09,0.83-0.09c1.73,0,1.75,1.83,1.75,8.2v12.58c0,4.16-0.56,4.47-2.72,4.73l-1.49,0.22v1.4
		h13.76v-1.4l-1.4-0.22c-2.29-0.26-2.8-0.58-2.8-4.73V40.82c1.11-1.49,3.12-3.51,6.4-3.51c7.35,0,7.32,6.3,7.32,12.4v8.68
		c0,4.16-0.55,4.47-2.72,4.73l-1.49,0.22v1.4h13.81v-1.4l-1.45-0.22c-2.29-0.26-2.76-0.58-2.76-4.73v-9.64
		c0-7.47-0.01-14.51-9.64-14.51c-4.7,0-8.05,2.75-9.47,4.12V34.24L247.47,34.24z M339.3,34.24c-2.17,0-7.8,1.69-9.6,2.28l0.26,1.58
		l1.36-0.39c0.13,0,0.52-0.09,0.83-0.09c1.73,0,1.75,1.83,1.75,8.2v12.58c0,4.35-0.55,4.47-2.72,4.73l-1.49,0.22v1.4h13.76v-1.4
		l-1.4-0.22c-2.28-0.26-2.76-0.38-2.76-4.73V34.24z M354.42,34.24c-1.73,0-5.86,1.24-8.94,2.41l0.48,1.53l0.57-0.18
		c0.49-0.13,0.95-0.39,1.45-0.39c1.73,0,1.75,1.42,1.75,8.11v12.67c0,4.48-0.55,4.47-2.72,4.73l-1.49,0.22v1.4h14.77v-1.4
		l-1.45-0.22c-3.28-0.26-3.73-0.25-3.73-4.73v-17.4c0-0.97,0.96-2.54,2.94-2.54c0.87,0,4.22,1.13,5.09,1.45
		c1.43-1.16,2.25-2.13,3.11-3.68c-0.8-0.52-2.77-1.97-4.69-1.97c-3.15,0-5.79,3.17-6.71,4.21C354.86,36.7,354.67,35.35,354.42,34.24
		L354.42,34.24z M426.78,34.24c-6.55,0-10.5,4.37-12.36,6.97c0.44,1.18,0.94,1.8,1.62,2.59h0.48c1.16-2.41,2.73-6.49,7.67-6.49
		c4.64,0,5.74,3.69,5.74,7.98v1.49c-5.44,1.68-16.13,4.23-16.13,12.67c0,3.58,3.1,6.31,7.67,6.31c4.82,0,7.1-1.41,9.07-2.76
		c0.61,1.35,1.72,2.76,4.87,2.76c2.59,0,3.93-1.04,4.73-1.62l-0.31-0.92c-0.25,0.13-0.52,0.26-1.14,0.26c-3.4,0-3.38-4.88-3.38-9.42
		v-9.29C435.33,38.13,433.82,34.24,426.78,34.24z M480.96,34.24c-5.37,0-9.86,2.92-9.86,8.24c0,10.59,13.72,7.47,13.72,16.31
		c0,2.28-1.64,4.82-4.43,4.82c-4.94,0-7.04-4.23-8.28-8.46h-1.67c0,2.54,0.25,5.8,1.18,8.72c1.66,0.78,3.83,1.88,7.85,1.88
		c5.86,0,10.7-2.95,10.7-9.12c0-10.39-13.72-8.24-13.72-15.65c0-2.85,1.6-4.6,3.94-4.6c4.02,0,6.01,4.66,6.01,7.58h1.93
		c0-3.44-0.21-5.51-0.83-7.84C486.13,35.29,484.23,34.24,480.96,34.24z M121.81,35.21v1.45l1.62,0.53c2.42,0.78,2.4,1.81,3.2,3.94
		l7.41,17.58c0.8,2.02,1.84,4.52,1.84,7.19c0,6.09-6.09,7.43-9.56,10.61c-0.43,0.58-0.8,2.01-0.92,3.37
		c0.44,0.07,0.8,0.13,1.23,0.13c6.18,0,9-6.62,11.35-12.54l6.75-16.52c1.73-4.41,4.58-11.44,6-12.93c0.43-0.45,1.11-0.72,1.67-0.92
		l1.27-0.44v-1.45h-12.54v1.45l3.29,0.57c0.74,0.13,1.84,0.26,1.84,1.05c0,1.81-6.23,18.32-6.97,20.21l-7.06-18.06
		c-0.31-0.77-0.61-1.71-0.61-1.97c0-0.71,1.04-0.97,1.97-1.23l2.41-0.57v-1.45H121.81z M366.82,35.21v1.45l1.84,0.44
		c1.79,0.46,2,1.98,2.67,3.99l8.33,24.67c0.87-0.13,1.79-0.86,2.41-1.45l7.85-20.47l8.46,21.91c0.56-0.19,1.61-0.73,2.23-1.45
		l7.98-22.53c1.05-3.05,1.53-4.17,3.2-4.69l1.4-0.44v-1.45h-12.01v1.45l2.06,0.39c2.1,0.39,2.76,0.52,2.76,1.62
		c0,0.92-0.47,2.44-0.66,3.02l-4.69,16.17h-0.13l-8.46-22.31c-0.5,0-1.33,0.31-1.75,0.57l-8.2,21.74h-0.09l-5.26-17.01
		c-0.18-0.59-0.44-1.35-0.44-2.06c0-1.17,0.48-1.38,2.15-1.71l2.24-0.44v-1.45L366.82,35.21L366.82,35.21z M438.13,35.21v1.45
		l1.58,0.53c2.41,0.78,2.44,1.81,3.24,3.94l7.41,17.58c0.8,2.02,1.84,4.52,1.84,7.19c0,6.09-6.13,7.43-9.6,10.61
		c-0.42,0.58-0.79,2.01-0.92,3.37c0.43,0.07,0.84,0.13,1.27,0.13c6.17,0,9.01-6.62,11.35-12.54l6.71-16.52
		c1.73-4.41,4.59-11.44,6-12.93c0.43-0.45,1.12-0.72,1.66-0.92l1.32-0.44v-1.45h-12.54v1.45l3.24,0.57
		c0.74,0.13,1.89,0.26,1.89,1.05c0,1.81-6.23,18.32-6.97,20.21l-7.06-18.06c-0.3-0.77-0.61-1.71-0.61-1.97
		c0-0.71,1.05-0.98,1.97-1.23l2.41-0.57v-1.45H438.13L438.13,35.21z M112.78,49.85h0.83V60.8c-0.43,0.64-1.97,2.67-4.69,2.67
		c-3.52,0-5.74-2.22-5.74-5.92C103.19,51.46,109.26,49.85,112.78,49.85L112.78,49.85z M223.98,49.85h0.83V60.8
		c-0.43,0.64-1.97,2.67-4.69,2.67c-3.53,0-5.74-2.22-5.74-5.92C214.38,51.46,220.45,49.85,223.98,49.85z M429.11,49.85h0.83V60.8
		c-0.43,0.64-1.98,2.67-4.69,2.67c-3.52,0-5.74-2.22-5.74-5.92C419.51,51.46,425.57,49.85,429.11,49.85L429.11,49.85z M12.5,24.11
		L2.29,37.08c0,0-2.28,2.75,2.87,6.05l4.05-5.22l0.86,0.62l-3.88,5.41l3.83,2.76l-2.92,3.71c0,0-1.56,2.08,0.27,4.28l0.03,0.11
		l-5.6,7.67c0,0-0.45,0.6-0.51,0.85c-0.05,0.25-0.11,0.48,0,0.57c0.11,0.07,0.35,0.19,0.84-0.28c0.47-0.49,6.84-6.74,6.84-6.74
		s0.23-0.48,1.01-0.09c0.78,0.39,1.51,0.85,3.17-0.5c1.66-1.36,4.96-6.15,4.96-6.15l0.27,0.04l0.46,6.43l8.76,0.03l11.69,8.8
		l1.63-0.08L21.88,50.4l0.66-0.69l4.28,3.31l-3.67-28.86L12.5,24.11"/>
	<path class="st1" d="M14.33,9.3c-3.84-0.05-6.09,0.31-6.09,0.31c-2.65,0.35-3.59,1.1-3.59,1.1c-2.96,1.84-2.63,6.35-2.63,6.35
		l2.94-0.09L5,17.45c0.2,1.91,2.06,1.88,2.06,1.88c3.44-0.31,4.34,0.18,4.34,0.18c1.22,0.24,1.23,1.31,1.23,1.31l10.43-0.09
		c0,0-0.55-7.92-1.71-9.64c-0.96-1.4-2.67-1.62-2.67-1.62C17.07,9.35,15.61,9.32,14.33,9.3z M24.68,24.82l0.61,4.6l5.04,0.13
		l0.88-2.67C31.21,26.88,28.31,24.85,24.68,24.82L24.68,24.82z M32.35,27.58l-0.88,2.63l2.89,3.37l3.29-0.09
		C37.65,33.5,36.18,29.47,32.35,27.58z M25.42,30.69l1.05,7.23l5.04,0.26l1.93-3.99l-3.11-3.46L25.42,30.69L25.42,30.69z
		 M37.87,34.59l-3.29,0.13l-1.75,3.81l2.59,2.94h3.64C39.57,37.37,37.87,34.59,37.87,34.59L37.87,34.59z M26.65,39.15l1.01,6.97
		l4.69-0.09l2.37-3.94l-2.54-2.76L26.65,39.15z M13.94,41.56L9.86,46.6c3.05,2.26,4.82-0.39,4.82-0.39
		C16.6,43.89,13.94,41.56,13.94,41.56L13.94,41.56z M35.42,42.7l-2.24,3.55l2.85,2.63c2-2.2,2.72-6.18,2.72-6.18L35.42,42.7
		L35.42,42.7z M32.39,47.21l-4.6,0.13l0.96,6.79c3.36-0.86,6.44-4.12,6.44-4.12S32.39,47.21,32.39,47.21z"/>
	<path class="st2" d="M14.16,0.01C5.89,0.17,0,5.88,0,5.88l5.13,4.95C7.44,9.28,17.23,10,17.23,10c3.57-0.13,3.9,1.84,3.9,1.84
		c0.8,1.76,1.58,8.85,1.58,8.85l-10.48,0.04c-0.71,1.8,0.26,3.37,0.26,3.37l14.81,0.09h0.22c0.48-0.06,1.47-0.86,1.93-1.05
		c0.98-0.4,1.96-1.02,2.59-1.93c0.14-0.22,0.25-0.43,0.44-0.61c0.61-0.61,1.49-0.92,2.32-0.96c1.22-0.07,2.38,0.49,3.59,0.57
		c1,0.07,2.04-0.06,2.94-0.57c0.92-0.53,1.62-1.39,2.15-2.37c0.26-0.51,0.4-1.12,0.74-1.58c0.2-0.27,0.45-0.52,0.75-0.66
		c0.51-0.23,1.09-0.22,1.62-0.09c0.76,0.45,1.56,0.8,2.41,0.92c0.63,0.09,1.27,0.03,1.84-0.26c0.29-0.15,0.58-0.4,0.79-0.66
		c0.29-0.35,0.41-0.82,0.53-1.27l0.75-4.73c0.07-0.45,0.22-0.85,0.35-1.27c0.16-0.53,0.25-1.08,0.48-1.58
		c0.46-0.93,1.06-1.76,1.71-2.54V3.43c-0.36-0.09-0.73-0.05-1.1-0.04c-1.18,0.04-2.36,0.24-3.51,0.48
		c-2.27,0.51-4.47,1.44-6.31,2.98c-0.32,0.26-0.62,0.59-0.92,0.88l-0.35,0.26c-1.47,0.36-2.81,1.25-3.73,2.54
		c-0.22,0.31-0.44,0.62-0.61,0.97c-0.1,0.19-0.14,0.4-0.22,0.61c-0.16,0.42-0.36,0.84-0.53,1.27c-0.2,0.49-0.57,0.93-1.01,1.18
		c-0.4,0.23-0.91,0.29-1.36,0.35c-1.16,0.16-2.32,0.14-3.51,0.04c-1.17,0.09-2.38,0.43-3.37,1.14c-0.37,0.27-0.7,0.6-1.01,0.96
		c-0.53,0.61-0.86,1.39-1.49,1.89c-2.12,1.67-2.42,1.8-2.94,1.75l-0.09-0.83l8.85-9.25l-0.18-0.04c-2.09,1.56-2.76-1.31-2.76-1.31
		c-0.87-3.31-3.86-5.7-3.86-5.7C21.18-0.37,14.16,0.01,14.16,0.01L14.16,0.01z M13.54,25.91l0.7,1.05l7.06,0.09L21.83,26
		L13.54,25.91z M14.99,28.02l0.7,0.96l4.12,0.09l0.66-1.05H14.99z M16.26,29.99l0.53,0.83h1.97l0.44-0.83H16.26z M17.58,32.4
		c-3.24-0.16-4.56,2.06-4.56,2.06c-1.6,2.84,0.09,4.91,0.09,4.91L17.58,32.4z M18.01,32.4l4.87,7.45c0,0,1.41-2.18-0.35-5
		C22.53,34.86,20.97,32.48,18.01,32.4z M19.29,57.82c-0.24,0-0.32,0.31-0.4,0.53l-0.04,6.18l0.04,0.18v0.04l0.13,0.09l3.9,0.04
		c0.18,0,0.33-0.14,0.39-0.31c-0.06-0.57-0.04-1.14,0.13-1.71h0.09c0.75,1.07,1.94,1.68,3.16,2.01l5.61,0.09l0.22-0.13l0.09-0.35
		c0.06-0.65,0.09-1.36,0.04-2.02c0.08-0.21-0.07-0.36-0.26-0.44c-0.26-0.09-0.53,0.01-0.79,0c-0.75-0.07-1.52-0.3-2.15-0.75
		c-0.69-0.48-1.29-1.15-1.58-1.97c-0.15-0.38-0.19-0.77-0.26-1.18l-0.18-0.17L19.29,57.82L19.29,57.82L19.29,57.82z"/>
	<path class="st0" d="M13.63,8.82c-3.44,0-5.41,0.3-5.43,0.31c-2.72,0.35-3.75,1.18-3.81,1.23c-1.28,0.82-2,2.1-2.37,3.29
		c-0.38,1.21-0.44,2.35-0.44,2.98v0.48l0.04,0.44l2.94-0.13L4.6,17.5c0.11,1.11,0.73,1.74,1.32,2.02c0.58,0.28,1.1,0.26,1.14,0.26
		H7.1c0.86-0.07,1.55-0.09,2.1-0.09c0.82,0,1.36,0.07,1.67,0.13l0.26,0.09h0.13l0.04,0.04c0.49,0.1,0.63,0.33,0.74,0.53l0.13,0.26
		v0.09h0.88c0-0.05-0.02-0.39-0.22-0.79c-0.19-0.39-0.6-0.81-1.27-0.96c-0.09-0.04-0.64-0.31-2.37-0.31c-0.59,0-1.31,0.05-2.19,0.13
		c-0.14-0.01-0.54-0.1-0.88-0.31c-0.32-0.21-0.61-0.52-0.7-1.18c0.11,0,0.14,0,0.35,0c0.69,0,1.82-0.04,2.89-0.18
		c0.53-0.07,1.04-0.17,1.49-0.31c0.44-0.15,0.82-0.31,1.1-0.66l-0.66-0.57c-0.06,0.09-0.33,0.23-0.7,0.35
		c-1.13,0.37-3.12,0.44-4.12,0.44H5.17l-2.72,0.13c0-0.56,0.06-1.64,0.39-2.72c0.34-1.08,0.94-2.13,2.02-2.81h0.04
		c0.05-0.04,0.99-0.73,3.42-1.05L8.68,10c0.7-0.08,2.41-0.26,4.95-0.26c1.43,0,3.14,0.07,5.04,0.22h0.04
		c0.29,0.04,1.57,0.34,2.28,1.4c0.22,0.31,0.45,1.1,0.66,2.06c0.32,1.44,0.58,3.3,0.74,4.78c0.16,1.47,0.22,2.54,0.22,2.54
		l0.88-0.04c0-0.01-0.15-2.01-0.44-4.21c-0.14-1.1-0.3-2.28-0.53-3.29c-0.22-1.01-0.47-1.82-0.83-2.37
		c-1.11-1.59-2.89-1.78-2.94-1.8h-0.04C16.79,8.89,15.08,8.82,13.63,8.82z M8.9,12.24c0,0-1.65-0.09-1.8,1.71l3.77-0.04
		C10.87,13.91,10.68,12.18,8.9,12.24z"/>
</g>
</svg>
