<?xml version="1.0" encoding="utf-8"?>
<!-- Generator: Adobe Illustrator 25.4.1, SVG Export Plug-In . SVG Version: 6.00 Build 0)  -->
<svg version="1.1" id="Layer_1" xmlns="http://www.w3.org/2000/svg" xmlns:xlink="http://www.w3.org/1999/xlink" x="0px" y="0px"
	 viewBox="0 0 189.7 80" style="enable-background:new 0 0 189.7 80;" xml:space="preserve">
<style type="text/css">
	.st0{fill:#2EC42D;}
	.st1{fill:#FAFB15;}
</style>
<path class="st0" d="M0,0c0,0-0.7,3.6,3.6,3.6s19.8-1.8,22.5,17s10.6,48.1,50.8,48.1s105.4,0,105.4,0s-1.9-9.7-13.7-9.7h-63.3
	c0,0-16.4,2.8-26.5-15.2S69.6,0,38.3,0H0z"/>
<path class="st1" d="M73.6,32.2l0.7,1.9c0,0,11.2-0.7,16.9,4.7c5.6,5.4,7.5,18.6,9.8,24.6c2.2,6,6.3,16.6,31,16.6s57.3,0,57.3,0
	s3.4-8-8.3-8h-51.5c0,0-14.1,0.3-16.5-8.7c-2.5-9-3.7-18.6-13.9-25.9S73.6,32.2,73.6,32.2z"/>
</svg>
