<?xml version="1.0" encoding="utf-8"?>
<!-- Generator: Adobe Illustrator 25.4.1, SVG Export Plug-In . SVG Version: 6.00 Build 0)  -->
<svg version="1.1" id="Layer_1" xmlns="http://www.w3.org/2000/svg" xmlns:xlink="http://www.w3.org/1999/xlink" x="0px" y="0px"
	 viewBox="0 0 150.3 80" style="enable-background:new 0 0 150.3 80;" xml:space="preserve">
<style type="text/css">
	.st0{fill:#2EC42D;}
	.st1{fill:#FAFB15;}
</style>
<g>
	<path class="st0" d="M0,0c0,0-0.6,2.9,2.8,2.9s15.7-1.4,17.8,13.5S29.1,54.5,61,54.5s83.5,0,83.5,0s-1.5-7.7-10.9-7.7H83.4
		c0,0-13,2.2-21-12S55.2,0,30.4,0H0z"/>
	<path class="st1" d="M58.3,25.5l0.6,1.5c0,0,8.9-0.6,13.4,3.7c4.4,4.3,6,14.7,7.8,19.5s5,13.2,24.6,13.2s45.4,0,45.4,0
		s2.7-6.4-6.6-6.4h-40.8c0,0-11.2,0.2-13.1-6.9c-1.9-7.1-3-14.8-11-20.5S58.3,25.5,58.3,25.5z"/>
	<g>
		<polygon class="st0" points="7.9,76.8 6.3,70.9 3.6,70.9 3.3,79.9 5.1,79.9 5.2,73 7.1,79.9 8.8,79.9 10.7,73.2 10.6,79.9 
			12.4,79.9 12.4,70.9 9.7,70.9 		"/>
		<path class="st0" d="M17.2,70.9l-3.9,9h2.1l0.9-2.2h3.5l0.9,2.2h2.1l-3.8-9H17.2z M16.8,76.2l1.2-3.1l1.2,3.1H16.8z"/>
		<path class="st0" d="M56.1,70.9l-3.9,9h2.1l0.9-2.2h3.5l0.9,2.2h2.1l-3.8-9H56.1z M55.8,76.2l1.2-3.1l1.2,3.1H55.8z"/>
		<path class="st0" d="M78.7,70.9l-3.9,9h2.1l0.9-2.2h3.5l0.9,2.2h2.1l-3.8-9H78.7z M78.3,76.2l1.2-3.1l1.2,3.1H78.3z"/>
		<path class="st0" d="M95.9,70.9l-3.9,9h2.1l0.9-2.2h3.5l0.9,2.2h2.1l-3.8-9H95.9z M95.6,76.2l1.2-3.1l1.2,3.1H95.6z"/>
		<path class="st0" d="M31.2,70.9h-1.8v5.4c0,0,0.1,2.2-1.9,2.2s-1.9-2-1.9-2v-5.6h-1.8v5.5c0,0.8,0.1,3.6,3.8,3.6
			c3.7,0,3.6-2.7,3.6-2.7V70.9z"/>
		<rect x="42.7" y="70.9" class="st0" width="1.8" height="9"/>
		<rect x="72.2" y="70.9" class="st0" width="1.8" height="9"/>
		<rect x="102.2" y="70.9" class="st0" width="1.8" height="9"/>
		<polygon class="st0" points="116.7,70.9 114.9,70.9 114.9,78.3 114.9,79.9 116.7,79.9 121.1,79.9 121.1,78.3 116.7,78.3 		"/>
		<rect x="122.2" y="70.9" class="st0" width="1.8" height="9"/>
		<polygon class="st0" points="53.1,72.4 53.1,70.9 50.3,70.9 48.4,70.9 45.6,70.9 45.6,72.4 48.4,72.4 48.4,79.9 50.3,79.9 
			50.3,72.4 		"/>
		<polygon class="st0" points="68.4,76.9 64.6,70.9 62.8,70.9 62.8,79.9 64.6,79.9 64.6,73.8 68.4,79.9 70.2,79.9 70.2,70.9 
			68.4,70.9 		"/>
		<polygon class="st0" points="131.2,76.9 127.5,70.9 125.6,70.9 125.6,79.9 127.5,79.9 127.5,73.8 131.2,79.9 133.1,79.9 
			133.1,70.9 131.2,70.9 		"/>
		<path class="st0" d="M38.5,75.9c0,0,2.4-0.2,2.4-2.2c0-2-1-2.8-4-2.8c-0.2,0-1.2,0-1.8,0h-0.5h-1.3v9h1.8v-4H36
			c0,0,0.7-0.2,1.4,0.9s2,3.1,2,3.1h2.2C41.6,79.9,40.2,76.8,38.5,75.9z M37.1,74.8c-0.2,0-1.5,0-2,0v-2.5h2.4c0,0,1.5,0,1.5,1.2
			C39.1,74.8,37.3,74.8,37.1,74.8z"/>
		<path class="st0" d="M111,75.9c0,0,2.4-0.2,2.4-2.2c0-2-1-2.8-4-2.8c-0.2,0-1.2,0-1.8,0h-0.5h-1.3v9h1.8v-4h0.8
			c0,0,0.7-0.2,1.4,0.9c0.8,1,2,3.1,2,3.1h2.2C114.1,79.9,112.7,76.8,111,75.9z M109.6,74.8c-0.2,0-1.5,0-2,0v-2.5h2.4
			c0,0,1.5,0,1.5,1.2C111.6,74.8,109.8,74.8,109.6,74.8z"/>
		<polygon class="st0" points="134.8,70.9 134.8,72.5 134.8,74.4 134.8,76 134.8,78.3 134.8,79.9 136.6,79.9 141.6,79.9 141.6,78.3 
			136.6,78.3 136.6,76 141,76 141,74.4 136.6,74.4 136.6,72.5 141.6,72.5 141.6,70.9 136.6,70.9 		"/>
		<path class="st0" d="M147.6,74.7c-0.2-0.1-0.5-0.1-0.8-0.2c-2-0.5-2.5-0.9-2.4-1.6c0.1-0.5,1-0.8,1.7-0.8c0.7,0,1.5,0.1,1.9,1.4
			l1.3-0.4c-0.8-2.4-2.6-2.4-3.3-2.4c-1.3,0-2.8,0.5-3.1,1.8c-0.6,2.3,2,2.9,3.4,3.3c0.3,0.1,0.5,0.1,0.7,0.2
			c1.1,0.4,1.1,0.8,1.1,1.1c0,0,0,0.1,0,0.1c0,0.1-0.1,1.2-2,1.2c-1.8,0-2.1-1.6-2.1-1.8l-1.4,0.2c0.2,1,1.1,2.9,3.5,2.9
			c2.7,0,3.4-1.7,3.4-2.6c0,0,0,0,0-0.1C149.6,76.8,149.7,75.4,147.6,74.7z"/>
	</g>
</g>
</svg>
