<svg width="340" height="80" viewBox="0 0 340 80" fill="none" xmlns="http://www.w3.org/2000/svg">
<path fill-rule="evenodd" clip-rule="evenodd" d="M271.227 59.6876L281.412 20.3226H292.673C292.673 20.3226 295.529 20.0474 296.998 21.2115C298.467 22.3755 298.883 24.1744 298.883 24.1744L305.002 43.2245L312.987 20.3229H323.884C323.884 20.3229 326.594 20.3229 327.999 21.4235C329.403 22.524 329.825 24.1748 329.825 24.1748L338.758 59.6885H328.177L320.196 29.418L311.82 52.4936H300.603C300.603 52.4936 299.252 52.6259 297.96 51.7528C296.668 50.8798 296.627 50.0808 296.627 50.0808L289.799 29.4192L281.964 59.6897L271.227 59.6876Z" fill="#2A0088"/>
<path fill-rule="evenodd" clip-rule="evenodd" d="M166.309 20.3175V28.1694L185.206 29.4393V59.6831H196.121V29.4393L215.019 28.1694V20.3175H166.309Z" fill="#2A0088"/>
<path fill-rule="evenodd" clip-rule="evenodd" d="M134.897 20.3175L115.215 59.6826H127.314L130.752 52.4445H152.697L156.057 59.6826H168.088L149.415 22.8991C149.415 22.8991 148.805 21.5443 147.747 20.9387C146.689 20.3332 145.576 20.3169 145.576 20.3169H134.897L134.897 20.3175ZM141.58 28.8182L148.813 44.4449H134.234L141.58 28.8182H141.58Z" fill="#2A0088"/>
<path fill-rule="evenodd" clip-rule="evenodd" d="M73.6523 20.3175V59.6826H106.88L111.409 50.6244H85.0386V20.3171L73.6523 20.3175Z" fill="#2A0088"/>
<path fill-rule="evenodd" clip-rule="evenodd" d="M233.054 20.3175L213.371 59.6826H225.47L228.908 52.4445H250.854L254.213 59.6826H266.245L247.572 22.8991C247.572 22.8991 246.962 21.5443 245.904 20.9387C244.845 20.3332 243.732 20.3169 243.732 20.3169H233.053L233.054 20.3175ZM239.736 28.8182L246.969 44.4449H232.39L239.736 28.8182H239.736Z" fill="#2A0088"/>
<path fill-rule="evenodd" clip-rule="evenodd" d="M6.01439 32.9677L14.7491 30.4727C14.7491 30.4727 14.6556 29.8893 14.3424 29.6029C14.0292 29.3166 13.4658 29.1395 13.4658 29.1395L1.32548 24.7296C1.32548 24.7296 0.940055 24.6 0.658468 24.756C0.37688 24.912 0.386875 25.3172 0.386875 25.3172V30.9628C0.386875 30.9628 0.356589 31.5033 1.13951 32.7149C1.92244 33.9264 3.77697 33.6179 3.77697 33.6179L6.01439 32.9677Z" fill="#ED1651"/>
<path fill-rule="evenodd" clip-rule="evenodd" d="M40.789 19.3461L48.9142 14.7939C48.9142 14.7939 49.0366 14.0074 48.7234 13.721C48.4102 13.4347 48.0373 13.3465 48.0373 13.3465L12.9465 0.824084C12.9465 0.824084 12.561 0.694492 12.2794 0.850466C11.9979 1.00644 12.0079 1.41165 12.0079 1.41165V6.27933C12.0079 6.27933 12.003 7.4072 12.7859 8.61876C13.5688 9.8303 14.8392 10.144 14.8392 10.144L40.789 19.3461Z" fill="#ED1651"/>
<path fill-rule="evenodd" clip-rule="evenodd" d="M40.787 33.5149L48.9122 29.3057C48.9122 29.3057 49.0853 28.2397 48.7721 27.9534C48.4589 27.6671 48.0352 27.5154 48.0352 27.5154L1.32536 10.5491C1.32536 10.5491 0.939943 10.4195 0.658356 10.5755C0.376768 10.7314 0.386763 11.1366 0.386763 11.1366V16.0043C0.386763 16.0043 0.381876 17.1322 1.1648 18.3437C1.94773 19.5553 3.21813 19.869 3.21813 19.869L40.787 33.5149Z" fill="#ED1651"/>
<path fill-rule="evenodd" clip-rule="evenodd" d="M48.0352 13.3461C48.0352 13.3461 48.5095 13.418 48.9118 13.8095C49.314 14.201 49.3185 14.6792 49.3185 14.6792V21.1242C49.3185 21.1242 49.2992 22.0047 48.938 22.7966C48.5768 23.5884 48.0479 23.7757 48.0479 23.7757L46.9474 24.1755L11.8794 36.9133C11.8794 36.9133 11.7108 36.9653 11.4914 36.9653C11.272 36.9653 11.1034 36.9133 11.1034 36.9133L1.33283 33.3642C1.33283 33.3642 1.09044 33.3078 0.74653 32.769C0.359228 32.1646 0.387163 30.9646 0.387163 30.9646C0.387163 30.9646 0.447925 31.5798 0.795676 31.872C1.14343 32.1641 2.07021 31.8436 2.07021 31.8436L46.9477 15.5426C46.9477 15.5426 48.7296 14.8157 48.7296 14.0771C48.7296 13.5671 48.0355 13.3481 48.0355 13.3481L48.0352 13.3461Z" fill="#2A0088"/>
<path fill-rule="evenodd" clip-rule="evenodd" d="M48.0347 27.515C48.0347 27.515 48.509 27.5869 48.9113 27.9784C49.3135 28.3699 49.318 28.8481 49.318 28.8481V35.2931C49.318 35.2931 49.2987 36.1736 48.9375 36.9654C48.5763 37.7573 48.0474 37.9446 48.0474 37.9446L46.9468 38.3444L11.8789 51.0822V42.4472L46.9468 29.7095C46.9468 29.7095 48.7288 28.9825 48.7288 28.2439C48.7288 27.734 48.0346 27.515 48.0346 27.515L48.0347 27.515Z" fill="#2A0088"/>
<path fill-rule="evenodd" clip-rule="evenodd" d="M30.6268 50.1994C30.9624 50.535 30.9624 51.2737 30.9624 51.2737V56.0931C30.9624 56.0931 30.9431 56.9736 30.5819 57.7655C30.2208 58.5573 29.6918 58.7446 29.6918 58.7446L28.5913 59.1444L11.8789 65.2151V56.5802L28.5913 50.5095C28.5913 50.5095 30.2912 49.8638 30.6268 50.1995L30.6268 50.1994Z" fill="#2A0088"/>
<path fill-rule="evenodd" clip-rule="evenodd" d="M19.8459 68.221C20.1815 68.5566 20.1815 69.2952 20.1815 69.2952V74.1146C20.1815 74.1146 20.1621 74.9952 19.801 75.787C19.4398 76.5789 18.9109 76.7662 18.9109 76.7662L17.8103 77.166L11.8789 79.4272V70.7923L17.8103 68.5311C17.8103 68.5311 19.5103 67.8854 19.8459 68.221L19.8459 68.221Z" fill="#2A0088"/>
</svg>
