<?xml version="1.0" encoding="utf-8"?>
<!-- Generator: Adobe Illustrator 25.4.1, SVG Export Plug-In . SVG Version: 6.00 Build 0)  -->
<svg version="1.1" id="Layer_2" xmlns="http://www.w3.org/2000/svg" xmlns:xlink="http://www.w3.org/1999/xlink" x="0px" y="0px"
	 viewBox="0 0 79.96 80" style="enable-background:new 0 0 79.96 80;" xml:space="preserve">
<style type="text/css">
	.st0{fill:#00ABBF;}
</style>
<g>
	<path class="st0" d="M47.4,8.75L10.62,52.99c-0.38,0.42-0.52,0.92-0.35,1.31c0.17,0.42,0.55,0.67,1.08,0.67l56.83,0.01
		c0.51,0,0.87-0.44,0.87-0.92c0-0.5-0.24-0.79-0.74-0.91c-2.04-0.48-13.2-2.9-21.22-5.32c-4.97-1.5-6.91-5.77-5.61-11.47
		c1.43-6.31,7.49-26.6,7.51-26.66c0.14-0.42,0.05-0.95-0.39-1.15C48.12,8.28,47.7,8.4,47.4,8.75"/>
	<path class="st0" d="M40.05,0c22,0,39.91,17.92,39.91,40.09C79.96,62.07,62.06,80,40.05,80C17.91,80,0,62.07,0,40.09
		C0,17.93,17.91,0,40.05,0 M40.05,4.89C20.63,4.89,4.88,20.64,4.88,40.1c0,19.4,15.75,35.15,35.17,35.15S75.23,59.5,75.23,40.1
		C75.23,20.49,59.47,4.89,40.05,4.89"/>
</g>
</svg>
