<svg width="80" height="80" viewBox="0 0 80 80" fill="none" xmlns="http://www.w3.org/2000/svg">
<path d="M79.722 40.0982C79.722 62.2441 62.1321 80 40.313 80C18.5899 80 1 62.2441 1 40.195C1 17.658 18.5899 0 40.9855 0C62.2286 0 79.722 18.1469 79.722 40.0982ZM5.0374 40.0982C5.0374 59.9033 20.8012 75.8052 40.3136 75.8052C59.7295 75.8052 75.5892 60.0001 75.5892 40.195C75.5892 19.9999 60.0183 4.19533 40.0253 4.19533C20.8976 4.19533 5.0374 20.3904 5.0374 40.0982ZM31.6628 38.4389L31.1821 39.414C29.452 39.024 26.0887 37.7552 22.6273 36.1943L22.1466 37.0727L23.5885 37.8537C28.5866 40.487 30.3168 41.0728 33.1047 41.0728C38.9676 41.0728 43.3892 37.7563 45.5041 31.8043C49.0603 31.0239 53.6737 30.7318 59.2489 30.7318C63.9582 30.7318 67.9956 30.926 73.282 31.6096L71.9365 33.2684C69.5334 32.9758 65.0159 32.6832 61.8438 32.6832C57.9034 32.6832 55.5962 32.6832 54.2502 32.7805L53.6737 34.2441C56.8457 34.0494 57.9988 34.0494 60.4984 34.0494C64.8235 34.0494 68.1879 34.2441 70.9753 34.4399L69.6298 36.2933C64.6317 36.0981 62.4209 36.0007 58.6723 36.0007C56.6534 36.0007 55.1161 36.0981 52.713 36.1954L52.041 37.6584C54.1548 37.4637 57.1345 37.3669 60.1148 37.3669C63.095 37.3669 66.5542 37.4637 68.5721 37.5611L67.2267 39.3172C65.7853 39.2193 63.0939 39.2193 60.979 39.2193C57.6152 39.2193 53.29 39.414 51.1752 39.7071L50.5022 40.9754C54.539 40.5855 57.0381 40.3908 61.4602 40.3908C63.1898 40.3908 64.2475 40.3908 66.2665 40.5855L64.7282 42.4389C62.0367 42.2442 61.1719 42.2442 60.1142 42.2442C52.713 42.2442 47.8107 43.3173 42.9085 46.147C47.4266 50.7322 54.8273 53.8545 61.5556 53.8545C62.1321 53.8545 62.4209 53.8545 63.8628 53.7566L60.6908 57.0736C42.9091 52.2931 39.737 51.0248 23.3967 41.1712C16.9567 37.4643 11.6708 34.9266 7.44109 33.6589L8.01763 31.6102C8.97889 31.8049 11.1897 32.3912 13.2086 33.171L14.1694 30.9271L31.6628 38.4389Z" fill="#EFAE00"/>
</svg>
