<svg width="461" height="80" viewBox="0 0 461 80" fill="none" xmlns="http://www.w3.org/2000/svg">
<path d="M78.722 40.0982C78.722 62.2441 61.1321 80 39.313 80C17.5899 80 0 62.2441 0 40.195C0 17.658 17.5899 0 39.9855 0C61.2286 0 78.722 18.1464 78.722 40.0976V40.0982ZM4.0374 40.0982C4.0374 59.9033 19.8012 75.8052 39.3136 75.8052C58.7295 75.8052 74.5892 60.0001 74.5892 40.195C74.5892 19.9999 59.0183 4.19533 39.0253 4.19533C19.8976 4.19533 4.0374 20.3898 4.0374 40.0976V40.0982ZM30.6628 38.4389L30.1821 39.414C28.452 39.024 25.0887 37.7552 21.6273 36.1943L21.1466 37.0727L22.5885 37.8537C27.5866 40.487 29.3168 41.0728 32.1047 41.0728C37.9676 41.0728 42.3892 37.7563 44.5041 31.8043C48.0603 31.0239 52.6737 30.7318 58.2489 30.7318C62.9582 30.7318 66.9956 30.926 72.282 31.6096L70.9365 33.2684C68.5334 32.9758 64.0159 32.6832 60.8438 32.6832C56.9034 32.6832 54.5962 32.6832 53.2502 32.7805L52.6737 34.2441C55.8457 34.0494 56.9988 34.0494 59.4984 34.0494C63.8235 34.0494 67.1879 34.2441 69.9753 34.4399L68.6298 36.2933C63.6317 36.0981 61.4209 36.0007 57.6723 36.0007C55.6534 36.0007 54.1161 36.0981 51.713 36.1954L51.041 37.6584C53.1548 37.4637 56.1345 37.3669 59.1148 37.3669C62.095 37.3669 65.5542 37.4637 67.5721 37.5611L66.2267 39.3172C64.7853 39.2193 62.0939 39.2193 59.979 39.2193C56.6152 39.2193 52.29 39.414 50.1752 39.7071L49.5022 40.9754C53.539 40.5855 56.0381 40.3908 60.4602 40.3908C62.1898 40.3908 63.2475 40.3908 65.2665 40.5855L63.7282 42.4389C61.0367 42.2442 60.1719 42.2442 59.1142 42.2442C51.713 42.2442 46.8107 43.3173 41.9085 46.147C46.4266 50.7322 53.8273 53.8545 60.5556 53.8545C61.1321 53.8545 61.4209 53.8545 62.8628 53.7566L59.6908 57.0736C41.9091 52.2931 38.737 51.0248 22.3967 41.1712C15.9567 37.4643 10.6708 34.9266 6.44109 33.6589L7.01763 31.6102C7.97889 31.8049 10.1897 32.3912 12.2086 33.171L13.1694 30.9271L30.6628 38.4389ZM421.868 56.2926C421.868 50.5364 425.52 46.439 432.728 44.3898C433.882 44.0972 437.535 43.2188 443.782 42.1458C446.378 41.5606 447.434 40.7802 447.434 38.8293C447.434 36.6827 445.224 35.3166 441.956 35.3166C438.015 35.3166 435.516 37.2679 435.516 40.5855H424.269C424.269 31.9022 430.998 26.7312 442.244 26.7312C453.97 26.7312 459.641 31.707 459.641 41.7558V61.3652C459.641 64.6822 459.641 64.6822 460.796 66.7315H449.26L448.587 63.5118C444.07 67.2193 441.283 68.2924 436.381 68.2924C427.923 68.2924 421.867 63.2192 421.867 56.2926H421.868ZM444.455 49.3655C443.109 49.5602 441.571 49.9507 439.937 50.3406C435.9 51.4137 433.977 53.0725 433.977 55.5111C433.977 58.0477 435.804 59.4138 438.976 59.4138C445.032 59.4138 447.819 56.682 447.819 51.0237V48.3893C446.281 48.8788 445.704 48.8788 444.455 49.3655ZM382.554 53.9508H394.665V54.4386C394.665 57.6583 397.261 59.6096 401.394 59.6096C404.95 59.6096 407.161 58.2435 407.161 56.0969C407.161 53.8534 405.142 52.4878 400.336 51.7068L396.396 51.0248C387.457 49.4629 383.612 46.1464 383.612 40.0976C383.612 31.707 390.437 26.7312 401.683 26.7312C409.564 26.7312 414.467 28.8778 416.966 33.5604C418.023 35.4145 418.215 36.097 418.503 40.2923H406.969C406.682 36.6827 405.143 35.3166 401.394 35.3166C398.318 35.3166 396.396 36.488 396.396 38.5362C396.396 40.3902 398.222 41.4632 402.355 42.1458L406.585 42.9268C415.524 44.4876 419.657 48.3898 419.657 55.0238C419.657 63.1219 412.928 68.2924 402.163 68.2924C389.474 68.2924 382.554 63.2192 382.554 53.9508ZM301.43 56.2926C301.43 50.5364 305.178 46.439 312.387 44.3898C313.541 44.0972 317.193 43.3173 323.345 42.1458C326.037 41.5606 327.094 40.7802 327.094 38.8293C327.094 36.6827 324.883 35.3166 321.519 35.3166C317.578 35.3166 315.175 37.17 315.079 40.5855H303.832C303.832 31.9022 310.561 26.7312 321.71 26.7312C333.437 26.7312 339.3 31.707 339.3 41.7558V61.3652C339.3 64.6822 339.3 64.6822 340.261 66.7315H328.823L328.15 63.5118C324.21 67.0246 320.846 68.2924 315.943 68.2924C307.581 68.2924 301.43 63.2192 301.43 56.2926ZM324.114 49.3655C322.576 49.6581 321.231 50.0481 319.596 50.3406C315.559 51.4137 313.637 53.0725 313.637 55.5111C313.637 58.0477 315.559 59.4138 318.635 59.4138C324.498 59.4138 327.382 56.682 327.382 51.0237V48.3893C325.748 48.8788 325.267 48.8788 324.114 49.3655ZM170.804 61.6584C169.17 58.8287 168.882 57.3657 168.882 51.0243V28.39H181.281V50.537C181.281 56.1953 182.819 58.4393 186.76 58.4393C190.797 58.4393 192.912 55.8048 192.912 50.537V28.39H205.215V66.732H193.969L193.584 62.9266C190.509 66.2436 187.048 67.7072 182.723 67.7072C177.436 67.7072 173.015 65.5611 170.804 61.6584ZM367.463 66.732V44.9755C367.463 39.3172 365.829 36.9753 361.985 36.9753C357.948 36.9753 355.929 39.6098 355.929 44.9755V66.732H343.626V28.39H354.872L355.256 32.6832C358.14 28.8784 361.6 27.2196 366.214 27.2196C371.501 27.2196 375.73 29.5609 377.941 33.561C379.575 36.4875 379.767 38.1463 379.767 44.4876V66.7315H367.463V66.732ZM286.339 66.732V44.9755C286.339 39.4151 284.609 36.9753 280.861 36.9753C276.824 36.9753 274.805 39.6098 274.805 44.9755V66.732H262.405V13.3664H274.805V32.6832C277.016 28.8784 280.283 27.2196 284.993 27.2196C290.183 27.2196 294.413 29.4636 296.72 33.561C298.354 36.4875 298.546 38.0489 298.546 44.4876V66.7315H286.339V66.732ZM250.487 66.732C243.181 66.732 239.818 63.2192 239.818 55.5122V36.7806H234.627V28.39H239.818V16.2924H252.121V28.39H259.138V36.7806H252.121V52C252.217 57.6594 252.602 57.9514 257.311 57.9514H259.714V66.732H250.487ZM213.096 66.732V36.7806H207.713V28.39H213.096V27.2196C213.096 17.0734 216.845 13.3659 226.456 13.3659H233.185V21.8539H231.166C226.552 21.8539 225.399 22.9269 225.399 27.2201V28.3905H232.703V36.7817H225.399V66.7331H213.096V66.732ZM131.203 66.7331V13.3653H144.276V56.1947H166.479V66.7315H131.204" fill="#EFAE00"/>
</svg>
