<?xml version="1.0" encoding="utf-8"?>
<!-- Generator: Adobe Illustrator 25.4.1, SVG Export Plug-In . SVG Version: 6.00 Build 0)  -->
<svg version="1.1" id="Layer_1" xmlns="http://www.w3.org/2000/svg" xmlns:xlink="http://www.w3.org/1999/xlink" x="0px" y="0px"
	 viewBox="0 0 440.32 80" style="enable-background:new 0 0 440.32 80;" xml:space="preserve">
<style type="text/css">
	.st0{fill:#089EDC;}
	.st1{fill:#661E43;}
	.st2{fill:#6F234C;}
</style>
<g>
	<path class="st0" d="M51.56,60.34c-0.57-5.16-1.09-10.33-1.67-15.81c-7.44,4.92-15.6,7.7-23.56,10.98
		c-4.14,1.7-6.44,5.18-6.15,9.93c0.01,0.29,0.02,0.57,0.03,0.86c-0.22,1.14,0.23,2.19,0.49,3.26h0c0.14,0.32,0.27,0.64,0.41,0.96
		c0.1,1.08,0.84,1.88,1.24,2.82c0.14,0.28,0.27,0.56,0.41,0.84c0,0,0,0,0,0v0c0.09,0.4,0.28,0.74,0.66,0.94v0
		c2.86,4.32,7.22,5.85,12.15,4.19c3.81-1.29,6.8-3.72,9.33-6.78c1.32-0.68,2.02-2.01,3.12-2.91c1-0.82,0.38-1.48-0.4-1.51
		c-1.98-0.08-1.92-1.34-1.89-2.69c0,0,0,0,0,0c0,0,0,0,0,0c1.21-1.63,3.07-2.34,4.75-3.31C51.18,61.69,51.66,61.28,51.56,60.34z"/>
	<path class="st1" d="M107.81,7.52c-1.06-5.6-4.09-7.82-9.73-7.36c-1.96,0.16-3.85,0.6-5.72,1.17c-12.1,3.65-22.95,9.99-34.06,15.77
		c-0.92,0.48-0.92,0.96-0.57,1.81c0.6,1.48,0.91,3.06,1.09,4.66c-0.02,2.54-0.13,5.08-0.02,7.61c0.04,0.95-0.49,2.03,0.38,2.89
		c7.28,4.9,14.52,9.86,21.86,14.66c4.77,3.12,10.29,2.77,14.85-0.6c7.12-5.28,10.93-12.51,12.25-21.08
		C109.14,20.54,109.04,14,107.81,7.52z"/>
	<path class="st0" d="M51.08,18.98c0.42-1.12,0.12-1.55-0.85-2.05c-5.77-2.95-11.47-6.04-17.27-8.92c-6.44-3.2-13.02-6.06-20.1-7.59
		C5.84-1.1,1.94,1.48,0.8,8.52c-0.92,5.73-1.08,11.5-0.32,17.27c1.16,8.75,4.67,16.25,11.76,21.84c5.01,3.95,10.8,4.33,16.1,0.81
		c6.85-4.55,13.64-9.19,20.46-13.78c0.63-0.43,1.41-0.76,1.04-1.76c0.03-3.09,0.05-6.18,0.08-9.27
		C50.29,22.07,50.53,20.47,51.08,18.98z"/>
	<path class="st1" d="M80.38,54.56c-4.68-1.61-9.27-3.42-13.7-5.62c-2.59-1.29-5.08-2.78-7.78-4.27c-0.46,4.41-0.76,8.69-1.41,12.92
		c-0.43,2.81-0.03,4.83,2.99,5.72c0.57,0.17,1.07,0.65,1.57,1.02c0.67,0.51,1.5,1.11,1.21,2c-0.26,0.8-0.53,1.83-1.88,1.8
		c-0.6-0.02-1.46,0.4-0.59,1.35c3.2,3.48,6.37,7,10.71,9.14c4.54,2.25,9.06,1.74,12.37-1.51c1.91-1.88,3.02-4.31,3.94-6.8
		C90.48,63.1,87.66,57.06,80.38,54.56z"/>
	<g>
		<polygon class="st2" points="174.38,57.69 144.96,57.69 144.96,44.45 133.51,44.45 133.51,57.69 133.51,67.15 144.96,67.15 
			174.38,67.15 185.11,67.15 185.11,57.69 185.11,18.09 174.38,18.09 		"/>
		<rect x="200.25" y="18.09" class="st2" width="11.81" height="49.06"/>
		<polygon class="st2" points="267.99,18.09 237.72,18.09 227.52,18.09 227.52,29.46 227.52,67.15 237.72,67.15 237.72,29.46 
			267.99,29.46 267.99,67.15 278.89,67.15 278.89,29.46 278.89,18.09 		"/>
	</g>
	<g>
		<rect x="361.71" y="18.09" class="st0" width="10.9" height="49.06"/>
		<path class="st0" d="M335.92,18.09H305.3h-10.38h-0.52v49.06h10.9V52.73h30.62v14.42h10.9V18.09h-0.52H335.92z M305.3,41.36V29.46
			h30.62v11.89H305.3z"/>
		<polygon class="st0" points="428.86,18.09 399.18,18.09 388.28,18.09 388.28,29.46 388.28,67.15 399.18,67.15 399.18,29.46 
			428.86,29.46 428.86,40.71 440.32,40.71 440.32,29.46 440.32,18.09 		"/>
	</g>
</g>
</svg>
