<?xml version="1.0" encoding="utf-8"?>
<!-- Generator: Adobe Illustrator 25.4.1, SVG Export Plug-In . SVG Version: 6.00 Build 0)  -->
<svg version="1.1" xmlns="http://www.w3.org/2000/svg" xmlns:xlink="http://www.w3.org/1999/xlink" x="0px" y="0px"
	 viewBox="0 0 75.6 80" style="enable-background:new 0 0 75.6 80;" xml:space="preserve">
<style type="text/css">
	.st0{fill-rule:evenodd;clip-rule:evenodd;fill:#B21217;}
</style>
<g id="Layer_2">
</g>
<g id="Layer_1">
	<path class="st0" d="M38.7,33.6c-1-1.8-1.6-3.7-1.6-5.5C37.1,13.7,75.6,0,75.6,0S24.5,8.1,19.9,26.7C13,28.3,0.6,32.3,0,39.9
		c0,0-0.6,8.8,20.2,14.4c2,5.4,11.2,17.9,52.7,25.7c0,0-35.7-14.3-35.7-28.7c0-1.6,0.4-3.1,1.2-4.6c7.8,3.6,18.8,7.3,34.5,10.2
		c0,0-18.4-7.4-28.8-16.9c11.1-9.5,31.5-16.8,31.5-16.8S54.9,26.4,38.7,33.6z M19.8,50.6c-4-3.1-7.9-7.2-7.9-11
		c0-4.4,4.2-8.3,7.8-10.8c0,0.9,0.6,5.6,7.7,11.3C23.3,43.1,20.5,46.6,19.8,50.6z"/>
</g>
</svg>
