<?xml version="1.0" encoding="utf-8"?>
<!-- Generator: Adobe Illustrator 25.4.1, SVG Export Plug-In . SVG Version: 6.00 Build 0)  -->
<svg version="1.1" id="Layer_1" xmlns="http://www.w3.org/2000/svg" xmlns:xlink="http://www.w3.org/1999/xlink" x="0px" y="0px"
	 viewBox="0 0 88.43 80" style="enable-background:new 0 0 88.43 80;" xml:space="preserve">
<style type="text/css">
	.st0{fill:#E2241C;}
</style>
<polygon points="23.05,0.11 35.66,0.11 88.43,45.75 88.43,56.83 "/>
<polygon points="45.2,0.11 57.81,0.11 88.43,26.33 88.43,37.48 "/>
<polygon points="67.35,0.11 79.96,0.11 88.43,7.16 88.43,18.3 "/>
<path class="st0" d="M88.22,80v-7.87H39.9C22.21,72.12,7.87,57.78,7.87,40.09L7.89,0.06H0l0,39.97C0,62.15,17.79,80,39.92,80
	L88.22,80z"/>
<path class="st0" d="M39.9,66.22c-14.37,0-26.03-11.75-26.03-26.13c0-0.01,0-0.02,0-0.02L13.9,0.07h8.02v39.99
	c0,9.96,8.04,18.04,17.99,18.04h0.07l48.23-0.04v8.15H39.9z"/>
</svg>
