<?xml version="1.0" encoding="utf-8"?>
<!-- Generator: Adobe Illustrator 25.4.1, SVG Export Plug-In . SVG Version: 6.00 Build 0)  -->
<svg version="1.1" id="Layer_1" xmlns="http://www.w3.org/2000/svg" xmlns:xlink="http://www.w3.org/1999/xlink" x="0px" y="0px"
	 viewBox="0 0 360.05 80" style="enable-background:new 0 0 360.05 80;" xml:space="preserve">
<style type="text/css">
	.st0{fill:#E2241C;}
</style>
<g>
	<path d="M23.05,0.11h12.61l52.77,45.64v11.08L23.05,0.11z M45.2,0.11h12.61l30.62,26.23v11.15L45.2,0.11z M67.35,0.11h12.61
		l8.47,7.05V18.3L67.35,0.11z M102.32,72.97h2.04v1.33c0,1.85,0.84,2.74,3.56,2.74h6.75c3.16,0,4.09-0.78,4.09-3.5
		c0-2.37-0.8-2.97-3.51-2.97h-4.13c-6.64,0-8.82-0.47-8.82-5.48c0-4.3,2.18-5.27,6.66-5.27h4.69c5.4,0,6.75,1.62,6.75,4.98v0.65
		h-2.04c-0.04-3-0.31-3.55-6.02-3.55h-2.31c-4.2,0-5.69,0.26-5.69,3.37c0,2.24,0.6,3,4,3h6.44c4.24,0,6.02,1.44,6.02,4.64v1.23
		c0,4.64-3.24,4.98-6.47,4.98h-6.04c-3.18,0-5.98-0.65-5.98-4.77L102.32,72.97z M123.81,70.78c0-4.83,2.89-5.37,5.69-5.37h3.2
		c3.56,0,4.96,1.7,4.96,4.51v0.36h-1.78v-0.31c0-2.22-1.24-2.74-3.16-2.74h-3.51c-1.8,0-3.49,0.31-3.49,3.63v2.79
		c0,2.97,1.55,3.65,3.87,3.65h3.22c1.78,0,3.27-0.63,3.27-2.79v-0.44h1.78v0.39c0,3.37-1.42,4.67-4.98,4.67h-4.31
		c-1.71,0-4.76-0.55-4.76-5.38L123.81,70.78z M140.41,70.8c0-4.38,2.64-5.4,6.27-5.4h2.74c3.62,0,6.26,1.02,6.26,5.4v2.92
		c0,4.38-2.64,5.4-6.26,5.4h-2.74c-3.62,0-6.27-1.02-6.27-5.4V70.8z M153.76,70.93c0-3.1-1.56-3.71-3.78-3.71h-3.89
		c-2.22,0-3.78,0.6-3.78,3.71v2.66c0,3.1,1.55,3.7,3.78,3.7h3.89c2.22,0,3.78-0.6,3.78-3.7V70.93z M159.92,67.44h-2.49v-1.83h2.49
		v-3.16h1.91v3.16h7.58v1.83h-7.58v6.63c0,2.48,0.73,3.24,2.82,3.24h0.6c2.53,0,2.93-0.63,2.93-3.42v-0.99h1.55v1.46
		c0,2.66-0.22,4.77-4.36,4.77h-1.04c-3.58,0-4.42-2.03-4.42-4.2V67.44z M172.34,78.92h1.91V60.03h-1.91V78.92z M189.83,77.59h-0.04
		c-0.51,1.2-1.11,1.54-4.05,1.54h-4.58c-2.89,0-3.65-1.49-3.65-3.99v-0.89c0-3.02,1.82-3.39,5.16-3.39h3.07
		c2.49,0,3.38,0.31,4.05,1.59h0.04v-2.5c0-2.4-1.29-2.71-4.22-2.71h-2.8c-2.4,0-2.87,0.68-2.87,1.77v0.47h-1.91v-0.65
		c0-2.43,1.31-3.42,4.73-3.42h3.02c3.56,0,5.96,0.63,5.96,4.59v8.92h-1.91L189.83,77.59z M189.83,74.74c0-1.83-1.38-2.06-4.31-2.06
		h-2.93c-2.47,0-3.16,0.42-3.16,2.09v0.42c0,1.49,0.44,2.11,3.07,2.11h2.53c3.47,0,4.8-0.29,4.8-1.96L189.83,74.74z M195.11,65.61
		h1.78v2.3h0.05c0.71-2.06,2.2-2.5,4.58-2.5h2.87c3.58,0,4.71,2.11,4.71,4.51v9h-1.91v-8.45c0-1.96-0.47-3.23-4.18-3.23h-0.49
		c-4.47,0-5.49,0.99-5.49,4.12v7.56h-1.91L195.11,65.61z M226.67,78.92h-1.78V76.8h-0.04c-0.56,1.62-2.11,2.32-4.11,2.32h-2.66
		c-3.47,0-5.89-1.02-5.89-5.61v-2.35c0-4.25,1.4-5.77,6-5.77h2.91c2.18,0,3.22,0.6,3.62,1.98h0.05v-7.36h1.91V78.92z M214.09,73.49
		c0,2.58,0.69,3.81,3.8,3.81H221c2.84,0,3.76-1.41,3.76-3.83v-2.53c0-3.18-1.58-3.7-4.16-3.7h-2.58c-2.62,0-3.93,0.57-3.93,3.65
		L214.09,73.49z M232.73,63.26c0,1.85-0.33,3.08-2.49,3.08v-1.51c0.78,0,0.98-0.31,0.98-1.41h-0.84v-3.39h2.35V63.26z M235.07,74.33
		h1.78v0.65c0,1.64,0.73,2.32,2.69,2.32h4.09c2.87,0,3.78-0.13,3.78-2.11v-0.1c0-1.28-0.31-1.98-2.6-1.98h-5.89
		c-2.69,0-3.69-1.02-3.69-3.55v-0.78c0-2.17,1.04-3.37,5.76-3.37h2.93c4.31,0,4.91,1.46,4.91,3.34v0.7h-1.78v-0.13
		c0-2.03-1.15-2.09-3.25-2.09h-3.33c-2.73,0-3.33,0.31-3.33,1.83v0.5c0,1.1,0.31,1.72,2.31,1.72h5.04c2.87,0,4.82,0.34,4.82,3.94
		v0.05c0,3.73-2.94,3.86-5.27,3.86h-3.51c-2.82,0-5.47,0-5.47-3.99L235.07,74.33z M271.29,60.03H274l9.56,18.89h-2.47l-2-3.99H266.2
		l-2,3.99h-2.47L271.29,60.03z M272.65,62.12l-5.4,10.72h10.8L272.65,62.12z M285.95,62.48h1.91v-2.45h-1.91V62.48z M285.95,78.92
		h1.91v-13.3h-1.91V78.92z M291.89,65.61h1.78v1.93h0.04c0.71-1.72,2.15-2.14,3.47-2.14h1.8c3.58,0,4.76,1.36,4.76,4.62v1.59h-1.78
		v-0.57c0-3.29-0.58-3.81-3.98-3.81h-1.18c-2.02,0-3,1.51-3,3.23v8.45h-1.91V65.61z M306.27,78.92h1.91V60.03h-1.91V78.92z
		 M312.31,62.48h1.91v-2.45h-1.91V62.48z M312.31,78.92h1.91v-13.3h-1.91V78.92z M318.09,65.61h1.78v2.3h0.04
		c0.71-2.06,2.2-2.5,4.58-2.5h2.87c3.58,0,4.71,2.11,4.71,4.51v9h-1.91v-8.45c0-1.96-0.47-3.23-4.18-3.23h-0.49
		c-4.47,0-5.49,0.99-5.49,4.12v7.56h-1.91V65.61z M335.15,70.78c0-4.83,2.84-5.37,5.55-5.37h3.07c3.42,0,5.89,1.02,5.89,5.76v1.49
		h-12.6v0.83c0,3.03,1.24,3.81,4.58,3.81h2.62c2.4,0,3.38-0.37,3.49-2.4h1.91v0.26c0,3.05-2.16,3.97-5.71,3.97h-3.46
		c-2.49,0-5.33-0.55-5.33-5.45L335.15,70.78z M347.75,69.94c0-1.36-0.87-2.71-3.98-2.71h-2.8c-3.02,0-3.73,0.57-3.91,3.6h10.69
		L347.75,69.94z"/>
	<g>
		<path class="st0" d="M88.22,80v-7.87H39.9C22.21,72.12,7.87,57.78,7.87,40.09L7.89,0.06H0l0,39.97C0,62.15,17.79,80,39.92,80
			L88.22,80z"/>
		<path class="st0" d="M39.9,66.22c-14.37,0-26.03-11.75-26.03-26.13c0-0.01,0-0.02,0-0.02L13.9,0.07h8.02v39.99
			c0,9.96,8.04,18.04,17.99,18.04h0.07l48.23-0.04v8.15H39.9z M108.54,41.56h24.61v4.62h-30.08V0h5.48V41.56z M152.53,13.48
			c12.56,0,15.01,2.9,15.01,16.56c0,13.61-2.45,16.5-15.01,16.5c-12.56,0-15.01-2.89-15.01-16.5
			C137.52,16.38,139.97,13.48,152.53,13.48 M152.53,42.61c9.08,0,9.73-1.35,9.73-12.56c0-11.27-0.64-12.62-9.73-12.62
			c-9.08,0-9.73,1.35-9.73,12.62C142.8,41.25,143.45,42.61,152.53,42.61 M203.61,50c0,8.62-6.7,10.53-14.88,10.53
			c-7.86,0-14.04-1.17-13.53-10.53h5.09c0,6.22,3.09,6.59,8.44,6.59c6.06,0,9.73-0.62,9.79-6.96v-7.45h-0.13
			c-1.42,3.94-6.89,4.37-10.88,4.37c-10.95,0-13.33-5.42-13.33-16.5c0-10.77,1.74-16.56,13.33-16.56c4.7,0,8.89,0.61,10.88,4.49
			l0.13-0.06v-4.06h5.09L203.61,50z M198.52,30.05c0-8.99-0.64-12.62-9.79-12.62c-9.4,0-9.28,4.13-9.28,12.62
			c0,7.76-0.58,12.56,9.28,12.56C198.52,42.61,198.52,37.25,198.52,30.05 M235.11,46.18v-3.33l-0.13-0.12
			c-1.93,3.69-6.89,3.82-11.14,3.82c-7.6,0-12.88-1.35-12.88-9.79c0-8.93,4.83-10.16,13.21-10.16c3.35,0,9.92,0.31,10.63,3.26h0.32
			v-5.97c0-5.91-3.29-6.47-9.02-6.47c-4,0-8.89,0-8.83,4.43v1.11h-5.28v-0.68c0-8.31,5.99-8.87,13.53-8.8
			c8.5-0.06,14.75,0.8,14.69,10.65v22.04L235.11,46.18z M234.98,36.57c0-6.1-3.8-6.04-10.24-6.04c-6.05,0-8.5,0.37-8.5,5.6
			c0,6.16,2.64,6.47,8.5,6.47C229.83,42.61,234.98,42.48,234.98,36.57 M254.05,17.79h0.13c1.61-3.88,6.57-4.31,10.44-4.31
			c8.69,0,12.88,2.22,12.75,11.21v21.49h-5.09V24.32c0-5.91-2.38-6.9-8.12-6.9c-8.31,0-10.11,2.46-10.11,9.91v18.84h-5.09V13.85
			h5.09V17.79z M309.19,46.18v-3.33l-0.13-0.12c-1.93,3.69-6.89,3.82-11.14,3.82c-7.6,0-12.88-1.35-12.88-9.79
			c0-8.93,4.83-10.16,13.21-10.16c3.35,0,9.92,0.31,10.63,3.26h0.32v-5.97c0-5.91-3.29-6.47-9.02-6.47c-4,0-8.89,0-8.83,4.43v1.11
			h-5.28v-0.68c0-8.31,5.99-8.87,13.53-8.8c8.5-0.06,14.75,0.8,14.69,10.65v22.04L309.19,46.18z M309.06,36.57
			c0-6.1-3.8-6.04-10.24-6.04c-6.05,0-8.5,0.37-8.5,5.6c0,6.16,2.64,6.47,8.5,6.47C303.91,42.61,309.06,42.48,309.06,36.57
			 M328.06,5.36h-5.09V0h5.09V5.36z M328.06,46.18h-5.09V13.85h5.09V46.18z M341.14,13.85l-0.26,4l0.13,0.12
			c1.74-3.57,5.8-4.49,9.6-4.49c6.5,0,9.4,3.08,9.4,9.11v2.34h-4.83v-2.15c0-4-1.42-5.36-5.67-5.36c-6.31,0-8.38,2.9-8.25,8.62
			v20.13h-5.09V13.85L341.14,13.85z"/>
	</g>
</g>
</svg>
