<?xml version="1.0" encoding="utf-8"?>
<!-- Generator: Adobe Illustrator 25.4.1, SVG Export Plug-In . SVG Version: 6.00 Build 0)  -->
<svg version="1.1" id="Layer_2_00000159471598350358213750000014612203606435250611_"
	 xmlns="http://www.w3.org/2000/svg" xmlns:xlink="http://www.w3.org/1999/xlink" x="0px" y="0px" viewBox="0 0 84 80"
	 style="enable-background:new 0 0 84 80;" xml:space="preserve">
<style type="text/css">
	.st0{fill-rule:evenodd;clip-rule:evenodd;fill:#501616;}
	.st1{fill-rule:evenodd;clip-rule:evenodd;fill:#906B29;}
	.st2{fill-rule:evenodd;clip-rule:evenodd;fill:#020202;}
	.st3{fill-rule:evenodd;clip-rule:evenodd;fill:#FFFFFF;}
</style>
<g>
	<path class="st0" d="M14.3,33.3c1.3-1.5,4.3-1.3,5.6,0c-0.1,0.2-0.9,0.7-1.2,0.8C17,34.9,14.5,34.3,14.3,33.3z M20.9,32.4l0-6.7
		c-0.2,0.1-3.3,3-3.5,3.2c-1.2,1.1-2.4,2.2-3.5,3.2c-1.2,1.1-2.3,2.2-3.5,3.2l-3.1,2.8c-0.2,0.2-0.4,0.3-0.4,0.5
		c1.7-0.1,3.5,0,5.2,0l7.8,0c1.5,0,1.1,0.2,2.2-0.4c1.1-0.6,2.3-1.2,3.4-1.8c0.6-0.3,13.6-7.1,13.8-7.1c0.2,0.1,0.4,0.3,0.6,0.4
		l1.8,1.4c0.8,0.6,1.5,1.2,2.3,1.8c0.8,0.6,1.6,1.3,2.3,1.8c0.3,0.2,2.2,1.7,2.3,1.8l-8.7,0l0-3.7c-0.2,0-2.7,1.3-3.1,1.5
		c-1.3,0.7-9.2,4.7-9.2,4.8c0.1,0.2,0.6,0.3,0.7,0.4c0.3,0.1,0.5,0.3,0.8,0.4c0.6,0.3,1,0.5,1.5,0.8l4.5,2.5
		c0.5,0.3,0.9,0.5,1.5,0.8c0.4,0.2,2.9,1.6,3.1,1.6c0-1.1,0-2.6,0-3.7l15.7,0c0.3,0,0.3,0.1,0.5,0.2c1.3,1.1,3.1,2.4,4.4,3.5
		l2.4,1.9c1.2,1,2.9,2.2,4,3.2l1.2,0.9c0.2,0.2,0.2,0.2,0.5,0.2h8.4c0.4,0,0.3,0,0.3-1.1c0-1.1,0.1-3.5,0-4.3c-0.3-0.1-5.2,0-6.2,0
		c-1.2,0-0.9,0.1-1.6-0.5c-0.8-0.7-1.5-1.3-2.3-1.9l-1.7-1.4c-0.1-0.1-0.5-0.4-0.5-0.5c2.1-0.1,4.2,0,6.3,0l5.9,0
		c0.2,0,0.1,0,0.1-0.3c0-1.1,0-4.3,0-5.2c-1-0.1-2.2,0-3.2,0c-5.3,0-10.8-0.1-16.1,0c-0.6,0-0.4,0-1.1-0.5L54,33.9
		c-1.2-0.9-2.4-1.8-3.6-2.8l-7.2-5.7c-0.9-0.7-2.8-2.3-3.6-2.8l-2.3,1.2c-4.6,2.5-9.4,4.9-14,7.4C23,31.4,21.1,32.4,20.9,32.4"/>
	<path class="st1" d="M55.1,4.1c0.4,0.1,1.1,0.4,1.8,0.6c3,1.2,5.4,2.4,8,4.2c1,0.7,1.9,1.3,2.8,2.1c3.5,2.8,6.6,6.2,9,10.4
		c2.4,4.1,4.3,9,4.9,14.6c0.7,6-0.3,12-2.1,16.9c-0.9,2.3-2,4.5-3.2,6.5c-2.5,4.1-5.5,7.2-9.3,10.2c-1.9,1.5-3.9,2.7-6,3.8
		c-3,1.6-7.3,3.2-10.8,3.8C47,77.8,44.7,78,41.3,78c-4.2,0-8.8-0.8-12.5-2.1c-7.5-2.6-13.8-6.9-18.6-13C6.6,58.4,4.4,53.8,3,48.1
		c-0.3-1.4-0.5-2.7-0.7-4.2c-0.4-2.8-0.2-6.4,0.2-9.2C3.4,28.5,6,22.6,9.7,17.7c0.7-0.9,1.5-1.8,2.2-2.6c1.4-1.6,3.3-3.3,5.1-4.6
		c2.6-2,6.1-4.1,9.3-5.3c4.4-1.7,7-2.3,11.7-2.9c2.9-0.3,6.3-0.2,9.2,0.1c1.4,0.2,2.8,0.4,4.1,0.7C52.6,3.3,54,3.7,55.1,4.1z
		 M40.2,0.1c-0.8,0.1-1.7,0-2.4,0.1c-0.4,0.1-0.8,0.1-1.2,0.1c-4.5,0.6-8.9,1.9-13,3.7c-9,4.1-16.4,11.5-20.4,20.6
		C0.9,30-0.2,35.7,0,41.8c0,1.1,0.4,3.6,0.5,4.6c0.7,4.2,2,7.8,3.9,11.5c4.3,8.5,12.9,15.9,21.8,19.2c2,0.8,5.7,1.9,8,2.2
		c0.7,0.1,1.4,0.3,2.2,0.3c0.8,0.1,1.6,0.2,2.4,0.2c1.6,0.1,3.3,0.1,5,0.1c5.5-0.1,11.6-1.7,16.5-4c4.7-2.2,8.8-5.2,12.1-8.4
		c2.8-2.8,4.6-5.3,6.6-8.7c2.5-4.3,4.5-10.7,4.8-15.7c0-0.4,0.1-0.8,0.1-1.1c0.1-0.5,0-3.4,0-3.8L83.8,37c-0.4-4.2-1-7.4-2.7-11.4
		c-0.5-1.2-1.1-2.4-1.6-3.5c-2.4-4.6-5.3-8-9-11.5c-3.4-3.1-8.4-6.1-12.7-7.7c-2.7-1-3.4-1.2-5.8-1.8c-0.6-0.2-1.5-0.3-2.1-0.4
		c-2.4-0.4-4.5-0.7-7-0.7C41.9,0,41,0,40.2,0.1"/>
	<path class="st0" d="M8.7,48.9l6.1,3.4c0.9,0.5,2.1,1.2,3,1.7c0.5,0.3,1.1,0.6,1.5,0.8c0.3,0.1,0.5,0.3,0.8,0.4
		c0.2,0.1,0.6,0.4,0.8,0.4l0-3.7L58,51.9c0.4,0,0.3-0.1,0.3-1.2l0-4.4c-2.3-0.1-5.1,0-7.5,0l-24.5,0.1c-0.7,0-5.1,0-5.5,0l0-4
		c-0.3,0-9.7,5-10.7,5.6l-1.3,0.7C8.6,48.8,8.7,48.7,8.7,48.9"/>
	<path class="st2" d="M6.2,38.3c0.3,0,0.7-0.6,1-0.8l2.7-2.7c1.3-1.3,5.1-4.9,6.5-5.9c1.8-1.4,3.1-2.5,5.1-3.9
		c0.7-0.5,1.4-0.9,2.2-1.4c2.2-1.3,4.7-2.7,7.1-3.6c3.8-1.5,5.5-2.1,9.3-3.2c0.2-0.1,0.5-0.1,0.7-0.2c0.3-0.1,0.6,0,0.6-0.3
		c-0.4-0.3-5,1.1-5.7,1.3c-2.3,0.7-5.6,1.9-7.8,2.9c-0.8,0.4-1.7,0.7-2.4,1.1c-1.5,0.8-3.1,1.7-4.6,2.6c-3,1.9-7.8,6.2-10.1,8.6
		c-0.9,0.9-2.2,2.5-2.9,3.4C7.5,36.5,6.3,38,6.2,38.3"/>
	<path class="st0" d="M14.8,33.3c0.2,0.6,2.3,1,3.5,0.5c0.3-0.1,0.8-0.3,0.9-0.6C18.7,32.6,15.9,32.2,14.8,33.3"/>
	<path class="st3" d="M14.8,33.3c1.1-1.2,3.9-0.7,4.4,0c-0.1,0.2-0.7,0.5-0.9,0.6C17.1,34.3,15,34,14.8,33.3z M14.3,33.3
		c0.2,1,2.7,1.6,4.4,0.8c0.2-0.1,1.1-0.6,1.2-0.8C18.6,31.9,15.6,31.8,14.3,33.3"/>
</g>
</svg>
