<?xml version="1.0" encoding="utf-8"?>
<!-- Generator: Adobe Illustrator 25.4.1, SVG Export Plug-In . SVG Version: 6.00 Build 0)  -->
<svg version="1.1" id="Layer_2_00000159471598350358213750000014612203606435250611_"
	 xmlns="http://www.w3.org/2000/svg" xmlns:xlink="http://www.w3.org/1999/xlink" x="0px" y="0px" viewBox="0 0 121.9 80"
	 style="enable-background:new 0 0 121.9 80;" xml:space="preserve">
<style type="text/css">
	.st0{fill-rule:evenodd;clip-rule:evenodd;fill:#906B29;}
	.st1{fill-rule:evenodd;clip-rule:evenodd;fill:#501616;}
	.st2{fill-rule:evenodd;clip-rule:evenodd;fill:#020202;}
	.st3{fill-rule:evenodd;clip-rule:evenodd;fill:#FFFFFF;}
</style>
<path class="st0" d="M121.2,70H0.4l-0.3-0.2L0,69.4v-1.6l0.1-0.5l0.3-0.2h120.8c0.3,0,0.3,0.1,0.3,0.2l0.3,0.5v1.6l-0.3,0.4
	C121.5,69.9,121.5,70,121.2,70L121.2,70z"/>
<path class="st1" d="M5.1,73.7h2v6.1h-2V73.7z M13.5,75.5c0,0.5-0.3,0.9-0.7,0.9c0.8,0.2,1.3,0.5,1.3,1l0.1,1
	c-0.1,0.8-0.8,1.2-2,1.2H8.7v-6.1h2.8c1.2,0.1,1.9,0.5,1.9,1.2L13.5,75.5L13.5,75.5z M11.8,75.3c0-0.4-0.4-0.4-1.3-0.4l0.3,1.2
	l0.8-0.3C11.8,75.8,11.8,75.6,11.8,75.3L11.8,75.3z M10.5,78.6h1.1c0.5-0.1,0.7-0.3,0.7-0.7c0-0.4-0.1-0.6-0.7-0.7h-1.1V78.6z
	 M14.8,73.6H17l1.3,1.8l1.3-1.8h2.6l-2.7,3.2v3h-2v-2.9L14.8,73.6z M23.9,77.5h1.6l-0.7-2L23.9,77.5z M23.5,78.8l-0.5,1h-2l2.7-6.2
	h2l3,6.2h-2l-0.4-1L23.5,78.8L23.5,78.8z M36.7,79.8v-6.2H35v3.8l-3.4-3.7h-2v6.1h1.7v-3.6l3.6,3.6H36.7z M44.4,77.5h1.5l-0.7-2
	L44.4,77.5L44.4,77.5z M43.9,78.8l-0.4,1h-2l2.7-6.2h2l3,6.2h-2l-0.5-1L43.9,78.8L43.9,78.8z M59.2,77.5h1.5l-0.7-2L59.2,77.5
	L59.2,77.5z M58.7,78.8l-0.4,1h-2l2.7-6.2h2l3,6.2h-2l-0.5-1L58.7,78.8L58.7,78.8z M77.5,77.5h1.6l-0.7-2L77.5,77.5z M77.1,78.8
	l-0.4,1h-2l2.7-6.2h2l2.8,6.2h-2l-0.4-1L77.1,78.8L77.1,78.8z M83.4,73.7h2v6.1h-2V73.7z M98.9,73.7h2v6.1h-2V73.7z M53.5,77.2
	l2.4,2.6h-2.4l-1.7-2.3v2.3h-1.9v-6.1h3.4c1.3,0.1,2,0.6,2,1.7C55.3,76.4,54.6,77,53.5,77.2L53.5,77.2z M53.3,75.6
	c0-0.6-0.4-0.9-1.3-0.7v1.5C52.9,76.5,53.3,76.2,53.3,75.6z M69.7,75.3c0,0.6-0.3,1-0.9,1.3c1.2,0.1,1.6,0.5,1.6,1.4
	c0,0.6-0.3,1-0.7,1.3c-0.3,0.3-0.7,0.5-1.1,0.5h-3.9v-6.1h3.4C69.3,73.6,69.7,74.1,69.7,75.3z M67.3,74.9h-0.7v1.2h0.7
	c0.4-0.1,0.7-0.4,0.7-0.7C67.9,75.1,67.7,74.9,67.3,74.9z M66.6,78.6h1.1c0.4-0.1,0.7-0.3,0.7-0.7c0-0.4-0.3-0.6-0.7-0.6h-1.1V78.6
	L66.6,78.6z M90.1,77.2l2.4,2.6h-2.4l-1.9-2.3v2.3h-1.7v-6.1h3.4c1.3,0.1,2,0.6,2,1.7C91.9,76.4,91.2,77,90.1,77.2L90.1,77.2z
	 M89.9,75.6c0-0.6-0.4-0.9-1.3-0.7v1.5C89.5,76.5,89.9,76.2,89.9,75.6z M0.1,73.7H2v4.8h2.2v1.4H0L0.1,73.7L0.1,73.7z M93.5,73.7
	h1.7v4.8h2.3v1.4h-4.3L93.5,73.7L93.5,73.7z M109.6,79.8v-6.2h-1.9v3.8l-3.4-3.7h-2v6.1h1.9v-3.6l3.5,3.6H109.6L109.6,79.8z
	 M115.2,77.5H113v1h2.2v1.4h-4v-6.1h4V75H113v1.1h2.2V77.5L115.2,77.5z M121.5,74.1c-0.9-0.5-1.7-0.7-3-0.5
	c-0.8,0.1-1.5,0.6-1.7,1.6c-0.4,1-0.3,1.7,0.9,2l1.5,0.4c0.5,0.1,0.7,0.3,0.7,0.5s-0.4,0.5-1.1,0.7c-0.3,0.1-0.9-0.2-1.6-0.7
	l-0.8,1.2c0.7,0.6,1.7,0.8,3.1,0.7c1.3-0.2,2-0.7,2.3-1.7c0.4-0.9,0.1-1.6-0.9-2l-2-0.6c-0.4-0.5-0.3-0.8,0.7-0.9
	c0.7,0.1,0.9,0.3,1.1,0.5L121.5,74.1L121.5,74.1z"/>
<path class="st1" d="M39.9,25.2c1-1.1,3.2-1,4.2,0c-0.1,0.2-0.7,0.5-0.9,0.6C41.9,26.4,40,26,39.9,25.2z M44.9,24.5l0-5.1
	c-0.2,0-2.5,2.3-2.7,2.4c-0.9,0.8-1.8,1.6-2.7,2.4c-0.9,0.8-1.8,1.6-2.6,2.4l-2.3,2.1c-0.1,0.1-0.3,0.2-0.3,0.4c1.3,0,2.6,0,3.9,0
	l5.9,0c1.1,0,0.8,0.1,1.7-0.3c0.8-0.4,1.7-0.9,2.6-1.4c0.4-0.2,10.3-5.4,10.4-5.4c0.1,0.1,0.3,0.2,0.4,0.3l1.3,1
	c0.6,0.5,1.1,0.9,1.8,1.4c0.6,0.4,1.2,1,1.8,1.4c0.2,0.1,1.7,1.3,1.7,1.4l-6.6,0l0-2.8c-0.1,0-2,1-2.3,1.2c-0.9,0.5-6.9,3.6-7,3.7
	c0.1,0.1,0.4,0.3,0.5,0.3c0.2,0.1,0.4,0.2,0.6,0.3c0.4,0.2,0.7,0.4,1.1,0.6l3.4,1.9c0.4,0.2,0.7,0.4,1.1,0.6
	c0.3,0.2,2.2,1.2,2.3,1.2c0-0.9,0-2,0-2.8l11.9,0c0.2,0,0.2,0.1,0.4,0.1c1,0.8,2.3,1.8,3.3,2.6l1.8,1.4c0.9,0.7,2.2,1.7,3,2.4
	l0.9,0.7c0.2,0.1,0.1,0.1,0.4,0.1h6.4c0.3,0,0.2,0,0.2-0.8c0-0.8,0-2.7,0-3.3c-0.2-0.1-4,0-4.7,0c-0.9,0-0.7,0.1-1.2-0.4
	c-0.6-0.5-1.1-1-1.7-1.5l-1.3-1.1c-0.1-0.1-0.4-0.3-0.4-0.4c1.6,0,3.2,0,4.8,0l4.5,0c0.2,0,0.1,0,0.1-0.2c0-0.8,0-3.3,0-3.9
	c-0.7-0.1-1.7,0-2.4,0c-4,0-8.2,0-12.2,0c-0.5,0-0.3,0-0.8-0.4L70,25.7c-0.9-0.7-1.8-1.4-2.7-2.1l-5.5-4.3c-0.7-0.5-2.2-1.8-2.7-2.2
	L57.3,18c-3.5,1.9-7.1,3.7-10.6,5.6C46.5,23.8,45.1,24.5,44.9,24.5"/>
<path class="st0" d="M70.8,3.1c0.3,0.1,0.9,0.3,1.4,0.5c2.3,0.9,4.1,1.8,6.1,3.2c0.8,0.5,1.5,1,2.1,1.6c2.6,2.1,5,4.7,6.9,7.9
	c1.8,3.1,3.2,6.8,3.7,11c0.5,4.6-0.2,9.1-1.6,12.8c-0.7,1.8-1.5,3.4-2.4,4.9c-1.9,3.1-4.2,5.5-7,7.7c-1.4,1.1-3,2-4.5,2.9
	c-2.3,1.2-5.6,2.4-8.2,2.9c-2.5,0.5-4.2,0.6-6.8,0.6c-3.1,0-6.6-0.6-9.5-1.6c-5.7-2-10.5-5.2-14.1-9.8c-2.7-3.4-4.4-6.9-5.4-11.2
	c-0.3-1-0.4-2-0.5-3.2c-0.3-2.1-0.2-4.9,0.1-7c0.7-4.7,2.6-9.3,5.5-13c0.5-0.7,1.1-1.3,1.7-2c1.1-1.2,2.5-2.5,3.8-3.5
	c2-1.5,4.7-3.1,7-4c3.3-1.3,5.3-1.8,8.9-2.2c2.2-0.2,4.8-0.2,6.9,0.1C65.9,1.9,67,2.1,68,2.3C68.9,2.5,70,2.8,70.8,3.1z M59.5,0
	c-0.6,0.1-1.3,0-1.8,0.1c-0.3,0-0.6,0-0.9,0.1C53.4,0.6,50.1,1.6,47,3c-6.8,3.1-12.4,8.7-15.5,15.6c-1.8,4.1-2.6,8.4-2.4,13.1
	c0,0.8,0.3,2.7,0.4,3.5c0.5,3.2,1.5,5.9,2.9,8.7c3.3,6.5,9.7,12.1,16.5,14.6c1.6,0.6,4.3,1.5,6,1.7c0.6,0.1,1.1,0.2,1.7,0.3
	c0.6,0.1,1.2,0.1,1.8,0.2c1.2,0.1,2.5,0.1,3.8,0.1c4.2-0.1,8.8-1.3,12.5-3c3.5-1.6,6.7-3.9,9.1-6.4c2.1-2.1,3.5-4,5-6.6
	c1.9-3.3,3.4-8.1,3.6-11.9c0-0.3,0.1-0.6,0.1-0.8c0-0.4,0-2.5,0-2.9l-0.1-0.9c-0.3-3.2-0.8-5.6-2-8.6c-0.4-0.9-0.8-1.8-1.2-2.7
	c-1.8-3.5-4-6.1-6.8-8.7c-2.6-2.4-6.4-4.6-9.7-5.9c-2-0.8-2.6-0.9-4.4-1.4c-0.5-0.1-1.1-0.3-1.6-0.3C64.9,0.2,63.4,0,61.5,0
	C60.8,0,60.1,0,59.5,0"/>
<path class="st1" d="M35.6,37l4.6,2.6c0.7,0.4,1.6,0.9,2.3,1.3c0.4,0.2,0.8,0.4,1.2,0.6c0.2,0.1,0.4,0.2,0.6,0.3
	c0.1,0.1,0.5,0.3,0.6,0.3l0-2.8L73,39.3c0.3,0,0.2,0,0.2-0.9l0-3.3c-1.8,0-3.9,0-5.7,0L49,35.2c-0.6,0-3.9,0-4.2,0l0-3
	c-0.2,0-7.4,3.8-8.1,4.2l-1,0.5C35.6,37,35.7,36.9,35.6,37"/>
<path class="st2" d="M33.8,29c0.2,0,0.6-0.5,0.7-0.6l2-2c1-1,3.9-3.7,4.9-4.5c1.4-1.1,2.3-1.9,3.9-2.9c0.6-0.4,1-0.7,1.6-1.1
	c1.7-1,3.6-2,5.4-2.7c2.9-1.2,4.2-1.6,7-2.4c0.2-0.1,0.4-0.1,0.5-0.1c0.2-0.1,0.4,0,0.4-0.2c-0.3-0.2-3.8,0.9-4.3,1
	c-1.8,0.5-4.2,1.4-5.9,2.2c-0.6,0.3-1.3,0.6-1.9,0.9c-1.2,0.6-2.4,1.3-3.5,2c-2.3,1.5-5.9,4.7-7.7,6.5c-0.7,0.7-1.7,1.9-2.2,2.6
	C34.7,27.7,33.8,28.8,33.8,29"/>
<path class="st1" d="M40.3,25.3c0.1,0.5,1.7,0.8,2.7,0.4c0.2-0.1,0.6-0.3,0.7-0.4C43.2,24.7,41.1,24.4,40.3,25.3"/>
<path class="st3" d="M40.3,25.3c0.8-0.9,3-0.6,3.4,0c-0.1,0.2-0.5,0.4-0.7,0.4C42,26,40.4,25.7,40.3,25.3z M39.9,25.2
	c0.1,0.8,2,1.2,3.3,0.6c0.2-0.1,0.8-0.5,0.9-0.6C43.1,24.2,40.9,24.1,39.9,25.2"/>
</svg>
