<?xml version="1.0" encoding="utf-8"?>
<!-- Generator: Adobe Illustrator 25.4.1, SVG Export Plug-In . SVG Version: 6.00 Build 0)  -->
<svg version="1.1" xmlns="http://www.w3.org/2000/svg" xmlns:xlink="http://www.w3.org/1999/xlink" x="0px" y="0px"
	 viewBox="0 0 187.78 80" style="enable-background:new 0 0 187.78 80;" xml:space="preserve">
<style type="text/css">
	.st0{fill-rule:evenodd;clip-rule:evenodd;fill:#1A3171;}
</style>
<g id="Layer_2">
</g>
<g id="Layer_1">
	<g>
		<path class="st0" d="M28.73,59.91h21.62c-2.05-3.42-3.23-7.42-3.23-11.7c0-17.56,14.24-31.8,31.8-31.8l108.86,0.5l-5.62,19.59
			h-21.48l-12.34,43h-23.11l12.33-43h-21.7c2.05,3.42,3.23,7.42,3.23,11.7c0,17.56-14.24,31.8-31.8,31.8l-0.57,0L0,79.5l17.95-62.59
			h23.11L28.73,59.91z M69.91,48.21c0-7.29,5.91-13.21,13.21-13.21c7.29,0,13.21,5.91,13.21,13.21c0,7.29-5.91,13.21-13.21,13.21
			C75.82,61.41,69.91,55.5,69.91,48.21z M80.06,50.48l7.36-14.76c0.91,0.44,1.52,1.41,1.52,2.49c0,0.51-0.14,0.99-0.38,1.4
			l-6.34,10.54l2.14-0.33c0.11-0.02,0.22-0.03,0.34-0.03c1.2,0,2.17,0.97,2.17,2.17h5.96l-0.54-0.67H91.2l-0.24-0.33h3.17
			c0.34,0.57,0.95,0.96,1.65,1l-0.1,0.33H82.28l5.54,4.25c0.62,0.47,1,1.22,1,2.06c0,0.72-0.29,1.38-0.76,1.85l-8.31-8.17h-9.2
			l-0.1-0.33L80.06,50.48"/>
		<path class="st0" d="M29.46,0h1.76l-2.42,8.46h-1.76L29.46,0z M119.52,1.41L119.93,0h-4.05c-1.11,0-2.26,0.53-2.58,1.66L112.91,3
			c-0.26,0.92,0.26,1.76,1.58,1.76h1.98c0.28,0,0.67,0.16,0.45,0.93l-0.1,0.34c-0.18,0.62-0.73,1.02-1.24,1.02h-3.82l-0.4,1.41h4.24
			c1.12,0,2.42-0.44,2.84-1.92l0.3-1.04c0.42-1.48-0.63-2.15-1.64-2.15h-1.86c-0.26,0-0.63-0.07-0.48-0.59l0.14-0.49
			c0.19-0.67,0.55-0.86,1.05-0.86L119.52,1.41z M89.55,0h1.76l-2.43,8.46h-1.76L89.55,0z M68.16,0h1.76L67.5,8.46h-1.76L68.16,0z
			 M82.5,0h1.76l-2.02,7.05h3.87l-0.4,1.41h-5.64L82.5,0z M43.38,0l-2.42,8.46h1.69l0.96-3.35h4.3l-0.96,3.35h1.69L51.07,0h-1.69
			l-1.06,3.7h-4.3L45.08,0H43.38z M102.88,8.46L105.31,0h5.99l-0.4,1.41h-4.38l-0.56,1.94l3.64,0l-0.4,1.41h-3.64l-0.66,2.29h4.38
			l-0.4,1.41H102.88z M92.06,8.46L94.48,0h2.21l1.77,6.34c0.15,0.52,0.15,0.71,0.15,0.71L100.63,0h1.51l-2.42,8.46h-2.26l-1.72-6.34
			c-0.12-0.46-0.14-0.75-0.14-0.75l-2.03,7.09L92.06,8.46z M39.79,1.41L40.19,0h-4.05c-1.11,0-2.26,0.53-2.58,1.66L33.17,3
			c-0.26,0.92,0.26,1.76,1.58,1.76h1.97c0.28,0,0.67,0.16,0.45,0.93l-0.1,0.34c-0.18,0.62-0.73,1.02-1.24,1.02h-3.82l-0.4,1.41h4.24
			c1.12,0,2.41-0.44,2.84-1.92l0.3-1.04c0.42-1.48-0.63-2.15-1.65-2.15h-1.86c-0.26,0-0.63-0.07-0.48-0.59l0.14-0.49
			c0.19-0.67,0.55-0.86,1.05-0.86L39.79,1.41z M22.41,0h1.76l-2.02,7.05h3.87l-0.4,1.41h-5.64L22.41,0z M6.17,1.41
			c0.55,0,0.64,0.47,0.56,0.78L6.45,3.17C6.22,3.96,5.5,4.23,5.11,4.23H2.96l0.81-2.82L6.17,1.41z M2.43,0L0,8.46h1.76l0.85-3h2.67
			c0.86,0,2.38-0.42,2.75-1.7l0.44-1.54C8.95,0.58,7.53,0,6.9,0H2.43z M72.93,0h4.48c0.62,0,2.04,0.58,1.58,2.22l-0.27,0.95
			c-0.38,1.34-2.01,1.47-2.01,1.47c1.3,0.54,1.34,0.85,1.18,2.06c-0.16,1.21,0.01,1.7,0.08,1.76h-1.6c0,0-0.33-0.46-0.1-1.64
			c0.27-1.42-0.15-1.53-0.55-1.53h-2.55l-0.9,3.17h-1.76L72.93,0z M76.68,1.41c0.55,0,0.64,0.47,0.56,0.78l-0.28,0.98
			c-0.19,0.53-0.84,0.71-1.23,0.71h-2.14l0.7-2.47H76.68z M63.62,8.46L62.74,0H60.8l-5.81,8.46h1.87l1.11-1.76l3.81,0l0.07,1.76
			H63.62z M61.73,5.43l-0.17-4.02c-0.01-0.19,0.03-0.44,0.03-0.44l-0.27,0.44l-2.55,4.02L61.73,5.43z M12.38,7.05h2.39
			c0.64,0,1.37-0.51,1.62-1.39l0.86-3c0.22-0.75-0.42-1.24-0.8-1.24l-2.43,0c-0.67,0-1.4,0.56-1.59,1.22L11.6,5.5
			C11.3,6.57,11.91,7.05,12.38,7.05z M14.19,0.01h2.37c1.24,0,2.69,1.13,2.28,2.56l-1.02,3.57c-0.4,1.38-1.9,2.32-3.3,2.32h-1.87
			c-1.78,0-3.14-1.28-2.66-2.96l0.94-3.26C11.33,0.85,12.8,0.01,14.19,0.01"/>
	</g>
</g>
</svg>
