<?xml version="1.0" encoding="utf-8"?>
<!-- Generator: Adobe Illustrator 25.4.1, SVG Export Plug-In . SVG Version: 6.00 Build 0)  -->
<svg version="1.1" xmlns="http://www.w3.org/2000/svg" xmlns:xlink="http://www.w3.org/1999/xlink" x="0px" y="0px"
	 viewBox="0 0 233.49 80" style="enable-background:new 0 0 233.49 80;" xml:space="preserve">
<style type="text/css">
	.st0{fill:#E83926;}
</style>
<g id="Layer_2">
</g>
<g id="Layer_1">
	<g>
		<g>
			<path class="st0" d="M123.4,20.08L120.7,30.6h10.12c0,0-2.12,9.79-3.59,16.81c-1.14,5.3-4.41,19.02-2.04,24.16
				c1.71,3.67,6.2,5.96,9.79,6.12c7.43,0.41,16.4,0.24,16.4,0.24l2.53-13.63l-5.55,0.16c0,0-4.9,0.24-5.55-2.29
				c-1.55-5.55,5.47-31.58,5.47-31.58h12.65l1.88-10.36l-12.08-0.16l3.84-17.06c0,0-9.63-0.33-11.92,0
				c-3.18,0.41-5.71,4.16-6.86,7.51c-1.39,4.16-2.29,9.55-2.29,9.55L123.4,20.08z"/>
			<path class="st0" d="M155.88,77.94c0,0,1.47-10.45,6.69-17.3c6.94-9.14,23.59-16.4,28.81-18.85
				c9.55-4.49,15.26-10.45,15.26-15.67c0-3.67-3.02-9.39-10.12-9.39c-7.1,0-13.22,5.96-13.96,13.96c-2.04,0-4.82,0-9.47,0
				c-2.04,0-8.73,0-8.73,0s2.53-14.2,10.94-20.48c6.69-5.06,11.83-7.18,21.06-7.51c10.53-0.41,20.48,3.26,25.05,10.53
				c4.41,6.94,5.63,18.44-0.98,25.71c-5.79,6.37-11.67,9.88-16.89,12.89c-7.02,4.08-16.49,8.81-19.18,10.2
				c-2.29,1.14-1.96,2.29-1.96,2.29h30.44c4.57,0,7.02-1.8,7.02-1.8s1.96,6.37-1.14,10.61c-1.14,1.47-4.33,4.98-9.88,4.98h-52.97
				V77.94z"/>
		</g>
		<path class="st0" d="M93.28,19.75c-8.81,0.33-15.83,1.8-23.42,9.88c-8.08,8.57-9.63,31.5-7.35,36.24
			c2.29,4.65,6.28,13.47,26.52,14.12c23.42,0.73,29.05-18.93,29.05-18.93H99.57c0,0-0.16,6.2-9.71,6.37
			c-13.47,0.24-10.53-13.47-10.53-13.47h41.21c0,0,0.08-0.82,0.73-11.59C121.93,30.69,111.16,19.02,93.28,19.75 M103.48,42.6
			l-23.1,0.08c0,0,1.8-11.75,13.14-11.75C103.89,31.01,103.48,42.6,103.48,42.6"/>
		<path class="st0" d="M56.88,3.02c-3.59,0.08-7.83,0.73-10.2,3.67c-2.37,2.86-3.75,8.41-4.33,11.92c-0.16,0.9-0.33,1.96-0.57,3.26
			c0.33,0,0.65-0.08,0.98-0.08c0.82,0,3.02-0.08,3.02-0.08l8.16-11.18l2.12-0.08l-4.73,11.26l9.79,0.57l1.8-2.12
			c2.12-9.71,3.75-17.06,3.75-17.06S60.47,2.94,56.88,3.02 M51.33,24.97l4.73,11.26l-2.12-0.08l-8.16-11.18c0,0-2.12-0.08-3.02-0.08
			c-0.41,0-0.9,0-1.39-0.16c-0.73,4.49-1.71,10.45-3.02,16.89c-2.45,12.57-2.29,21.55-13.14,21.55c-3.43,0-6.69-1.55-6.69-4.16
			c0-4.57,0.65-12.57,0.65-12.57L0.82,46.27c0,0-0.82,7.67-0.82,15.83c0,7.43,8.08,17.06,24.08,16.98
			C36.32,79,44.4,76.14,51.42,66.19c3.51-4.98,5.22-16.89,8-29.87c0.82-3.75,1.63-7.59,2.37-11.18l-0.73-0.82L51.33,24.97z"/>
		<path class="st0" d="M229.25,0c2.37,0,4.24,1.88,4.24,4.33s-1.88,4.33-4.24,4.33c-2.37,0-4.24-1.88-4.24-4.33
			C224.92,1.96,226.88,0,229.25,0L229.25,0z M229.25,0.73c-1.88,0-3.43,1.63-3.43,3.59c0,2.04,1.55,3.67,3.43,3.67
			c1.88,0,3.43-1.63,3.43-3.67C232.68,2.37,231.13,0.73,229.25,0.73L229.25,0.73z M228.43,6.86h-0.73V2.04
			c0.41-0.08,0.82-0.08,1.39-0.08c0.73,0,1.22,0.16,1.47,0.33c0.24,0.24,0.41,0.57,0.41,0.98c0,0.65-0.41,0.98-0.98,1.14l0,0
			c0.41,0.08,0.73,0.49,0.82,1.14c0.08,0.73,0.24,1.06,0.33,1.22h-0.82c-0.08-0.16-0.24-0.57-0.33-1.22
			c-0.08-0.57-0.41-0.82-1.06-0.82h-0.57v2.12H228.43z M228.43,4.16H229c0.65,0,1.14-0.24,1.14-0.82c0-0.41-0.33-0.82-1.14-0.82
			c-0.24,0-0.41,0-0.57,0V4.16z"/>
	</g>
</g>
</svg>
