<?xml version="1.0" encoding="utf-8"?>
<!-- Generator: Adobe Illustrator 25.4.1, SVG Export Plug-In . SVG Version: 6.00 Build 0)  -->
<svg version="1.1" xmlns="http://www.w3.org/2000/svg" xmlns:xlink="http://www.w3.org/1999/xlink" x="0px" y="0px"
	 viewBox="0 0 268.31 80" style="enable-background:new 0 0 268.31 80;" xml:space="preserve">
<style type="text/css">
	.st0{fill:#E83926;}
</style>
<g id="Layer_2">
</g>
<g id="Layer_1">
	<g>
		<g>
			<path class="st0" d="M69.98,11l-1.48,5.77h5.54c0,0-1.16,5.37-1.97,9.21c-0.63,2.91-2.41,10.42-1.12,13.24
				c0.94,2.01,3.4,3.26,5.37,3.35c4.07,0.22,8.99,0.13,8.99,0.13l1.39-7.47l-3.04,0.09c0,0-2.68,0.13-3.04-1.25
				c-0.85-3.04,3-17.31,3-17.31h6.93l1.03-5.68L84.96,11l2.1-9.35c0,0-5.28-0.18-6.53,0c-1.74,0.22-3.13,2.28-3.76,4.11
				C76.02,8.05,75.53,11,75.53,11L69.98,11z"/>
			<path class="st0" d="M87.78,42.71c0,0,0.8-5.72,3.67-9.48c3.8-5.01,12.92-8.99,15.79-10.33c5.23-2.46,8.36-5.72,8.36-8.59
				c0-2.01-1.65-5.14-5.54-5.14s-7.24,3.26-7.65,7.65c-1.12,0-2.64,0-5.19,0c-1.12,0-4.78,0-4.78,0s1.39-7.78,5.99-11.22
				c3.67-2.77,6.48-3.94,11.54-4.11c5.77-0.22,11.22,1.79,13.73,5.77c2.41,3.8,3.09,10.11-0.54,14.09
				c-3.17,3.49-6.39,5.41-9.26,7.07c-3.85,2.24-9.03,4.83-10.51,5.59c-1.25,0.63-1.07,1.25-1.07,1.25h16.68
				c2.5,0,3.85-0.98,3.85-0.98s1.07,3.49-0.63,5.81c-0.63,0.8-2.37,2.73-5.41,2.73H87.78V42.71z"/>
		</g>
		<polygon class="st0" points="127.62,42.71 129.37,32.33 140.91,32.29 139.12,42.71 		"/>
		<path class="st0" d="M177.62,31.08c0,9.93-9.84,12.39-10.64,12.61c-2.01,0.63-4.96,0.85-7.83,0.89
			c-6.13,0.04-13.64-5.23-13.64-13.95c0-11.94,7.33-21.02,20.08-20.57c13.28,0.45,13.5,10.73,13.42,12.66H168.9
			c0-0.76,0.22-4.87-5.05-4.87c-6.22,0-8.54,5.68-8.54,11.98c0,4.7,2.95,7.02,6.57,7.02c1.39,0,2.24-0.4,3.13-0.94
			c2.5-1.65,2.5-3.89,2.41-4.83H177.62z"/>
		<path class="st0" d="M194.3,44.45c-8.32,0-13.86-5.41-13.86-13.46c0-11.27,7.87-20.61,19.45-20.61c8.81,0,13.86,5.99,13.86,13.46
			c0,11.85-8.18,20.61-19.41,20.61H194.3z M195.55,37.12c5.19,0,8.18-7.65,8.18-13.19c0-3.09-1.34-6.22-5.14-6.22
			c-5.54,0-8.32,8-8.32,13.06c0,3.8,1.92,6.35,5.19,6.35L195.55,37.12L195.55,37.12z"/>
		<path class="st0" d="M214.51,43.38l4.25-21.46c0.85-4.02,1.3-7.47,1.74-10.33h8.63l-0.63,5.19h0.13c3.13-4.11,7.24-5.9,11.58-5.9
			c5.41,0,7.78,3.26,8.05,6.04c3.04-4.11,7.29-6.04,11.76-6.04c5.23,0,8.27,3.17,8.27,8.59c0,1.3-0.27,3.85-0.54,5.46l-3.67,18.47
			h-9.75l3.4-17.35c0.27-1.25,0.49-2.59,0.49-3.85c0-2.19-1.03-3.76-3.35-3.76c-3.35,0-6.66,4.16-8,10.6l-2.86,14.35h-9.66
			l3.53-17.48c0.22-1.25,0.4-2.46,0.4-3.58c0-2.19-0.76-3.89-3.17-3.89c-3.4,0-6.93,4.43-8.14,10.64l-2.86,14.31H214.51z"/>
		<path class="st0" d="M53.48,10.82c-4.83,0.18-8.68,0.98-12.83,5.41c-4.43,4.7-5.28,17.26-4.02,19.85
			c1.25,2.55,3.44,7.38,14.53,7.74c12.83,0.4,15.92-10.37,15.92-10.37H56.93c0,0-0.09,3.4-5.32,3.49c-7.38,0.13-5.77-7.38-5.77-7.38
			h22.58c0,0,0.04-0.45,0.4-6.35C69.18,16.81,63.28,10.42,53.48,10.82 M59.07,23.34l-12.66,0.04c0,0,0.98-6.44,7.2-6.44
			C59.3,16.99,59.07,23.34,59.07,23.34"/>
		<path class="st0" d="M33.54,1.65c-1.97,0.04-4.29,0.4-5.59,2.01c-1.3,1.57-2.06,4.61-2.37,6.53c-0.09,0.49-0.18,1.07-0.31,1.79
			c0.18,0,0.36-0.04,0.54-0.04c0.45,0,1.65-0.04,1.65-0.04l4.47-6.13l1.16-0.04l-2.59,6.17l5.37,0.31l0.98-1.16
			C38.01,5.72,38.9,1.7,38.9,1.7S35.51,1.61,33.54,1.65 M30.5,13.68l2.59,6.17l-1.16-0.04l-4.47-6.13c0,0-1.16-0.04-1.65-0.04
			c-0.22,0-0.49,0-0.76-0.09c-0.4,2.46-0.94,5.72-1.65,9.26c-1.34,6.89-1.25,11.81-7.2,11.81c-1.88,0-3.67-0.85-3.67-2.28
			c0-2.5,0.36-6.89,0.36-6.89L2.82,25.35c0,0-0.45,4.2-0.45,8.68c0,4.07,4.43,9.35,13.19,9.3c6.71-0.04,11.13-1.61,14.98-7.07
			c1.92-2.73,2.86-9.26,4.38-16.37c0.45-2.06,0.89-4.16,1.3-6.13l-0.4-0.45L30.5,13.68z"/>
		<path class="st0" d="M127.98,0c1.3,0,2.33,1.03,2.33,2.37s-1.03,2.37-2.33,2.37c-1.3,0-2.33-1.03-2.33-2.37
			C125.61,1.07,126.69,0,127.98,0L127.98,0z M127.98,0.4c-1.03,0-1.88,0.89-1.88,1.97c0,1.12,0.85,2.01,1.88,2.01
			c1.03,0,1.88-0.89,1.88-2.01C129.86,1.3,129.01,0.4,127.98,0.4L127.98,0.4z M127.53,3.76h-0.4V1.12c0.22-0.04,0.45-0.04,0.76-0.04
			c0.4,0,0.67,0.09,0.8,0.18c0.13,0.13,0.22,0.31,0.22,0.54c0,0.36-0.22,0.54-0.54,0.63l0,0c0.22,0.04,0.4,0.27,0.45,0.63
			c0.04,0.4,0.13,0.58,0.18,0.67h-0.45c-0.04-0.09-0.13-0.31-0.18-0.67c-0.04-0.31-0.22-0.45-0.58-0.45h-0.31v1.16H127.53z
			 M127.53,2.28h0.31c0.36,0,0.63-0.13,0.63-0.45c0-0.22-0.18-0.45-0.63-0.45c-0.13,0-0.22,0-0.31,0V2.28z"/>
		<polygon class="st0" points="3.85,49.73 20.39,49.73 19.54,55.05 9.88,55.05 9.12,59.79 15.56,59.79 14.8,64.84 8.36,64.84 
			6.84,74.1 0,74.1 		"/>
		<g>
			<path class="st0" d="M19.81,56.93h5.86l-0.45,2.82c1.52-1.97,3.04-2.86,5.1-2.86c0.18,0,0.31,0.04,0.54,0.04l-1.16,6.13
				c-1.07-0.4-1.92-0.58-2.5-0.58c-0.94,0-1.74,0.27-2.5,0.85l-1.7,10.73h-5.9L19.81,56.93z"/>
		</g>
		<path class="st0" d="M29.83,74.1l2.73-17.17h5.81L35.68,74.1H29.83z M32.87,54.73l0.8-5.01h5.86l-0.8,5.01H32.87z"/>
		<g>
			<path class="st0" d="M55.14,69.98c-2.15,3.17-4.61,4.7-7.83,4.7c-5.01,0-8.23-3.17-8.23-7.96c0-2.46,0.72-4.74,1.97-6.53
				c1.65-2.41,4.07-3.67,7.02-3.67c4.7,0,7.38,2.95,7.38,8.18c0,0.63-0.04,1.3-0.13,1.97H44.99c-0.04,0.27-0.04,0.49-0.04,0.76
				c0,1.92,1.16,3.13,2.86,3.13c1.34,0,2.55-0.8,3.67-2.41L55.14,69.98z M50.62,63.23c0-2.1-0.72-3.09-2.33-3.09
				c-1.57,0-2.68,1.21-3.09,3.49h5.41V63.23z"/>
			<path class="st0" d="M59.07,56.93h5.86l-0.36,2.19c1.88-1.74,3.71-2.59,5.5-2.59c2.5,0,4.2,1.65,4.2,4.29
				c0,0.63-0.13,1.52-0.31,2.68l-1.7,10.6h-5.86l1.65-10.24c0.13-0.72,0.18-1.25,0.18-1.48c0-1.07-0.45-1.52-1.34-1.52
				c-0.85,0-1.92,0.76-2.95,2.28L62.2,74.1h-5.86L59.07,56.93z"/>
			<path class="st0" d="M91.58,74.1h-5.86l0.18-1.52c-1.7,1.39-3.35,2.06-5.14,2.06c-3.26,0-5.23-2.33-5.23-6.48
				c0-6.89,3.53-11.54,8.05-11.54c1.88,0,3.26,0.63,4.52,2.06l1.43-8.94h5.86L91.58,74.1z M85.46,60.37c-2.28,0-3.85,2.86-3.85,7.83
				c0,1.79,0.76,2.73,1.97,2.73c0.85,0,1.74-0.49,2.86-1.48l1.3-8.05C86.93,60.73,86.22,60.37,85.46,60.37"/>
		</g>
		<polygon class="st0" points="94.44,74.1 98.24,49.73 104.1,49.73 100.26,74.1 		"/>
		<g>
			<path class="st0" d="M103.48,75.48c0.4,0.04,0.72,0.04,1.07,0.04c2.59,0,3.76-0.72,3.76-2.5c0-0.54-0.18-1.12-0.36-1.74
				l-4.02-14.35h5.9l1.61,6.04c0.27,0.98,0.45,2.01,0.63,3.13c0.18-0.94,0.54-1.88,1.03-2.86l2.95-6.31h4.87l-8.72,17.71
				c-1.03,2.06-1.74,3.67-3.89,4.65c-0.98,0.49-2.19,0.72-3.53,0.72c-0.4,0-0.8-0.04-1.25-0.04v-4.47H103.48z"/>
		</g>
		<polygon class="st0" points="129.1,74.1 132.9,49.73 138.76,49.73 134.96,74.1 		"/>
		<g>
			<path class="st0" d="M147.57,56.52c4.83,0,7.78,2.95,7.78,7.6c0,6.35-3.71,10.51-9.3,10.51c-4.87,0-7.74-2.86-7.74-7.51
				C138.31,60.68,142.02,56.52,147.57,56.52 M146.27,70.65c1.88,0,3.17-2.77,3.17-7.33c0-1.83-0.72-2.77-2.01-2.77
				c-1.88,0-3.17,2.73-3.17,7.29C144.21,69.67,144.93,70.65,146.27,70.65"/>
			<path class="st0" d="M156.51,56.93h5.77l0.98,6.13c0.13,0.85,0.22,1.88,0.27,3.09c0.22-0.98,0.54-1.97,0.98-2.86l2.91-6.31h4.2
				l0.89,6.04c0.13,0.89,0.22,1.97,0.31,3.13c0.27-0.98,0.63-1.97,1.07-2.95l2.82-6.22h4.78l-8.54,17.13h-4.11l-0.89-6.26
				c-0.09-0.67-0.18-1.61-0.22-2.77c-0.27,0.85-0.63,1.74-1.07,2.73l-3,6.31h-4.29L156.51,56.93z"/>
			<path class="st0" d="M193.27,60.77h-2.28l0.63-3.85h2.24l0.45-3.04c0.49-3.22,2.19-4.7,5.68-4.7c0.89,0,1.97,0.18,3.17,0.45
				l-0.63,4.16c-0.49-0.04-0.8-0.09-0.98-0.09c-1.16,0-1.39,0.58-1.61,1.97l-0.18,1.25h2.82l-0.63,3.85h-2.82l-2.1,13.33h-5.86
				L193.27,60.77z"/>
			<path class="st0" d="M210.98,74.1l-0.04-1.52c-1.74,1.3-3.35,1.97-4.92,1.97c-2.77,0-4.74-1.97-4.74-4.78
				c0-3.98,3.62-6.22,10.6-6.22h0.27c0.13-0.67,0.18-1.12,0.18-1.43c0-1.07-0.63-1.65-1.65-1.65c-1.3,0-2.1,0.58-2.95,1.97
				l-4.92-1.16c1.48-3.22,4.16-4.78,8.09-4.78c4.52,0,7.11,1.97,7.11,4.7c0,0.58-0.04,1.34-0.22,2.33l-0.98,6.04
				c-0.13,0.89-0.22,1.65-0.22,2.28c0,0.72,0.04,1.48,0.09,2.28L210.98,74.1L210.98,74.1z M210.67,66.5c-2.33,0-3.76,1.21-3.76,2.91
				c0,0.85,0.72,1.52,1.79,1.52c0.72,0,1.57-0.36,2.5-1.03l0.45-3.35C211.29,66.54,210.93,66.5,210.67,66.5"/>
			<path class="st0" d="M221.89,56.93h5.86l-0.45,2.82c1.52-1.97,3.04-2.86,5.1-2.86c0.18,0,0.31,0.04,0.54,0.04l-1.16,6.13
				c-1.07-0.4-1.92-0.58-2.55-0.58c-0.94,0-1.74,0.27-2.5,0.85l-1.7,10.73h-5.86L221.89,56.93z"/>
			<path class="st0" d="M248.45,69.98c-2.15,3.17-4.61,4.7-7.83,4.7c-5.01,0-8.23-3.17-8.23-7.96c0-2.46,0.72-4.74,1.97-6.53
				c1.65-2.41,4.07-3.67,7.07-3.67c4.65,0,7.38,2.95,7.38,8.18c0,0.63-0.04,1.3-0.13,1.97H238.3c-0.04,0.27-0.04,0.49-0.04,0.76
				c0,1.92,1.16,3.13,2.86,3.13c1.34,0,2.55-0.8,3.67-2.41L248.45,69.98z M243.94,63.23c0-2.1-0.72-3.09-2.28-3.09
				c-1.57,0-2.68,1.21-3.09,3.49h5.41v-0.4H243.94z"/>
			<path class="st0" d="M252.61,68.11c1.25,1.88,2.68,2.73,4.61,2.73c1.3,0,2.06-0.49,2.06-1.34c0-0.31-0.18-0.63-0.54-0.98
				c-0.63-0.54-1.92-0.63-3.53-1.21c-2.59-0.94-4.02-2.77-4.02-5.1c0-3.17,3.04-5.77,7.2-5.77c2.95,0,5.41,1.3,7.24,3.94l-3.35,2.24
				c-1.48-1.65-2.95-2.41-4.43-2.41c-0.89,0-1.43,0.45-1.43,1.12c0,1.3,1.43,1.3,3.44,1.97c3.4,1.16,5.01,2.64,5.01,5.23
				c0,3.44-2.95,6.04-7.78,6.04c-3.67,0-6.35-1.25-8.18-4.02L252.61,68.11z"/>
			<path class="st0" d="M265.58,51.96c1.3,0,2.33,1.03,2.33,2.37c0,1.34-1.03,2.37-2.33,2.37c-1.3,0-2.33-1.03-2.33-2.37
				C263.21,52.99,264.24,51.96,265.58,51.96L265.58,51.96z M265.53,52.32c-1.03,0-1.88,0.89-1.88,1.97c0,1.12,0.85,2.01,1.88,2.01
				s1.88-0.89,1.88-2.01C267.46,53.21,266.61,52.32,265.53,52.32L265.53,52.32z M265.09,55.67h-0.4v-2.59
				c0.22-0.04,0.45-0.04,0.76-0.04c0.4,0,0.67,0.09,0.8,0.18c0.13,0.13,0.22,0.31,0.22,0.54c0,0.36-0.22,0.54-0.54,0.63l0,0
				c0.22,0.04,0.4,0.27,0.45,0.63c0.04,0.4,0.13,0.58,0.18,0.67h-0.45c-0.04-0.09-0.13-0.31-0.18-0.67
				c-0.04-0.31-0.22-0.45-0.58-0.45h-0.31v1.12H265.09z M265.09,54.24h0.31c0.36,0,0.63-0.13,0.63-0.45c0-0.22-0.18-0.45-0.63-0.45
				c-0.13,0-0.22,0-0.31,0V54.24z"/>
		</g>
	</g>
</g>
</svg>
