<svg width="443" height="80" viewBox="0 0 443 80" fill="none" xmlns="http://www.w3.org/2000/svg">
<path d="M79.5601 0.000701904H0V40.0006H79.5601V0.000701904Z" fill="#00AADB"/>
<path d="M79.5601 40.0002H0V80.0001H79.5601V40.0002Z" fill="#3FA74D"/>
<path d="M192.365 15.4818C192.378 14.5432 193.139 13.7895 194.073 13.7896H228.373C229.316 13.7896 230.081 13.0207 230.081 12.0723V1.71812C230.081 0.774554 229.324 0.00772659 228.386 0.000793457H178.388C177.445 0.000793457 176.68 0.769711 176.68 1.71812V78.2709C176.68 79.2193 177.444 79.9882 178.388 79.9882H228.386C229.329 79.9882 230.094 79.2193 230.094 78.2709V67.9544C230.094 67.0059 229.329 66.237 228.386 66.237H194.085C193.142 66.237 192.377 65.4681 192.377 64.5197V46.3812C192.377 45.4328 193.142 44.6638 194.085 44.6638H225.381C226.324 44.6638 227.089 43.8949 227.089 42.9465V32.5924C227.089 31.644 226.324 30.875 225.381 30.875H193.786C192.966 30.7345 192.365 30.0197 192.365 29.1828V15.4818H192.365Z" fill="black"/>
<path d="M337.888 15.4818C337.901 14.5624 338.632 13.8163 339.546 13.7896H373.847C374.79 13.7896 375.555 13.0207 375.555 12.0723V1.71812C375.555 0.769711 374.79 0.000793457 373.847 0.000793457H323.849C322.905 0.000793457 322.141 0.769711 322.141 1.71812V78.2709C322.141 79.2193 322.905 79.9882 323.849 79.9882H373.847C374.79 79.9882 375.555 79.2193 375.555 78.2709V67.9544C375.555 67.0059 374.79 66.237 373.847 66.237H339.546C338.618 66.2097 337.881 65.4413 337.888 64.5071V46.3812C337.888 45.4328 338.653 44.6638 339.596 44.6638H370.892C371.835 44.6638 372.6 43.8949 372.6 42.9465V32.5924C372.6 31.644 371.835 30.875 370.892 30.875H339.247C338.46 30.71 337.895 30.0158 337.888 29.2079V15.4818Z" fill="black"/>
<path d="M164.729 66.2244H132.848C132.395 66.2244 131.96 66.0435 131.64 65.7214C131.32 65.3993 131.14 64.9625 131.14 64.5071V1.71807C131.14 1.26038 130.958 0.821718 130.635 0.499272C130.312 0.176826 129.874 -0.00255481 129.419 0.000746683H117.2C116.747 0.000746683 116.313 0.181668 115.992 0.503784C115.672 0.8259 115.492 1.26269 115.492 1.71807V78.2708C115.492 78.7263 115.672 79.1631 115.992 79.4851C116.313 79.8071 116.747 79.9881 117.2 79.9881H164.779C165.723 79.9881 166.487 79.2192 166.487 78.2708V67.9543C166.491 67.4878 166.306 67.04 165.974 66.7137C165.642 66.3874 165.193 66.2108 164.729 66.2244Z" fill="black"/>
<path d="M440.554 66.2241H408.673C407.73 66.2241 406.965 65.4552 406.965 64.5068V1.71774C406.965 1.25564 406.78 0.813131 406.451 0.489914C406.123 0.166698 405.679 -0.00971163 405.219 0.000412949H392.95C392.007 0.000412949 391.242 0.769331 391.242 1.71774V78.2705C391.242 79.2189 392.007 79.9878 392.95 79.9878H440.529C441.473 79.9878 442.238 79.2189 442.238 78.2705V67.954C442.244 67.0103 441.493 66.2379 440.554 66.2241Z" fill="black"/>
<path d="M311.805 0.000690033H298.688C298.023 0.00355133 297.419 0.394888 297.142 1.00346L297.067 1.19154L277.717 53.476V53.5762L277.33 54.6417C277.146 55.1287 276.682 55.4507 276.164 55.4507C275.646 55.4507 275.182 55.1287 274.999 54.6417L274.587 53.5512V53.4509L255.174 1.25416L255.074 0.978372C254.792 0.383663 254.196 0.00377128 253.541 0.000579834H240.424C239.86 0.00289088 239.334 0.284398 239.018 0.7531C238.701 1.2218 238.635 1.81728 238.84 2.34475L267.031 78.4964L267.256 79.098C267.565 79.6109 268.118 79.9246 268.714 79.9254H283.452C284.212 79.9232 284.876 79.4096 285.073 78.6719L313.363 2.43257L313.426 2.25704C313.488 2.08393 313.521 1.90191 313.525 1.71802C313.525 1.26032 313.344 0.821662 313.021 0.499216C312.698 0.17677 312.26 -0.00261146 311.805 0.000690033Z" fill="black"/>
</svg>
