<svg width="352" height="80" viewBox="0 0 352 80" fill="none" xmlns="http://www.w3.org/2000/svg">
<g clip-path="url(#clip0_706_2487)">
<path fill-rule="evenodd" clip-rule="evenodd" d="M329.695 66.6835C318.923 66.6835 308.594 62.5692 308.594 50.9601H321.91C321.979 54.255 324.232 57.7036 330.071 57.7036C335.227 57.7036 337.634 54.9379 337.634 51.9332C337.634 49.6797 336.592 47.8871 330.89 46.2482L322.064 43.6362C318.103 42.5094 309.567 39.7437 309.567 29.7224C309.567 20.0596 318.24 14.4599 330.071 14.4599C341.065 14.4599 350.062 18.9499 350.284 29.1249H337.036C336.729 23.5935 332.239 23.2862 330.003 23.2862C326.042 23.2862 323.122 25.0105 323.122 27.9298C323.122 31.293 325.376 32.3515 329.627 33.5465L338.539 36.0903C343.558 37.5926 351.343 40.6485 351.343 50.1577C351.309 58.745 344.65 66.6835 329.695 66.6835ZM282.542 66.6835C271.77 66.6835 261.441 62.5692 261.441 50.9601H274.757C274.825 54.255 277.147 57.7036 282.918 57.7036C288.159 57.7036 290.481 54.9379 290.481 51.9332C290.481 49.6797 289.439 47.8871 283.737 46.2482L274.911 43.6362C270.865 42.5094 262.414 39.7437 262.414 29.7224C262.414 20.0596 271.104 14.4599 282.918 14.4599C293.997 14.4599 302.909 18.9499 303.131 29.1249H289.883C289.576 23.5935 285.086 23.2862 282.764 23.2862C278.872 23.2862 275.884 25.0105 275.884 27.9298C275.884 31.293 278.137 32.3515 282.474 33.5465L291.385 36.0903C296.405 37.5926 304.104 40.6485 304.104 50.1577C304.087 58.745 297.497 66.6835 282.542 66.6835ZM242.115 15.6379H255.141V65.2666H242.115V15.6379ZM223.182 65.2666H209.268L199.469 30.1663L189.67 65.2666H175.824L160.254 15.6379H173.656L182.79 50.1407L192.299 15.6379H206.674L216.183 50.1407L225.231 15.6379H238.103L223.182 65.2666ZM138.539 66.6835C127.834 66.6835 117.438 62.5692 117.438 50.9601H130.839C130.907 54.255 133.161 57.7036 138.914 57.7036C144.155 57.7036 146.545 54.9379 146.545 51.9332C146.545 49.6797 145.419 47.8871 139.802 46.2482L130.89 43.6362C126.844 42.5094 118.462 39.7437 118.462 29.7224C118.462 20.0596 127.066 14.4599 138.897 14.4599C149.892 14.4599 158.889 18.9499 159.111 29.1249H145.863C145.572 23.5935 140.997 23.2862 138.761 23.2862C134.868 23.2862 131.949 25.0105 131.949 27.9298C131.949 31.293 134.202 32.3515 138.453 33.5465L147.365 36.0903C152.299 37.5926 160.169 40.6485 160.169 50.1577C160.169 58.745 153.579 66.6835 138.539 66.6835Z" fill="#DC2F34"/>
<path fill-rule="evenodd" clip-rule="evenodd" d="M109.057 0H65.3009L0 80H89.2019L109.057 0Z" fill="#DC2F34"/>
<path d="M75.018 33.3416V15.5866H61.2067V33.3416H43.4688V47.153H61.2067V64.908H75.018V47.153H92.7731V33.3416H75.018Z" fill="white"/>
</g>
<defs>
<clipPath id="clip0_706_2487">
<rect width="351.31" height="80" fill="white"/>
</clipPath>
</defs>
</svg>
