<?xml version="1.0" encoding="utf-8"?>
<!-- Generator: Adobe Illustrator 25.4.1, SVG Export Plug-In . SVG Version: 6.00 Build 0)  -->
<svg version="1.1" xmlns="http://www.w3.org/2000/svg" xmlns:xlink="http://www.w3.org/1999/xlink" x="0px" y="0px"
	 viewBox="0 0 164.1 80" style="enable-background:new 0 0 164.1 80;" xml:space="preserve">
<style type="text/css">
	.st0{fill:#001246;}
</style>
<g id="Layer_2">
</g>
<g id="Layer_1">
	<g>
		<path class="st0" d="M38.74,0.08c8.63-0.16,17.27-0.03,25.9-0.06h97.25c1-0.06,1.99,0.69,2.15,1.71c0.22,1.15-0.37,2.28-0.81,3.3
			c-1.59,3.27-3.05,6.61-4.61,9.88c-0.72,1.59-2.06,2.81-3.62,3.52c-1.71,0.75-3.65,0.59-5.49,0.59c-38.03,0-76.09,0-114.11,0
			c-1.87-0.09-3.77,0.28-5.58-0.34c-1.46-0.62-1.34-2.56-0.78-3.8c1.75-3.68,3.43-7.39,5.17-11.1C35.07,1.95,36.84,0.7,38.74,0.08
			L38.74,0.08z M77.43,31.03c2.28-2.49,4.27-5.27,6.8-7.51c0.44,0.5,0.87,1.03,1.09,1.68c0.72,1.93,1.46,3.9,2.18,5.83
			c3.02,0.09,6.08-0.16,9.1,0.12c1.18,0.19,1,1.75,0.41,2.46c-1.84,2.43-4.02,4.61-5.92,6.98c0.81,1.9,1.53,3.87,2.21,5.8
			c0.25,0.78,0.37,2.09-0.72,2.28c-2.9,0.69-5.89,0.16-8.85,0.37c-2.03,2.09-3.77,4.46-5.8,6.55c-0.31,0.41-0.84,0.53-1.31,0.44
			c-1.15-2.24-1.87-4.68-2.77-7.01c-3.05-0.12-6.14,0.19-9.2-0.16c-1.31-0.16-1.12-1.78-0.5-2.56c1.84-2.46,4.11-4.58,5.92-7.04
			c-0.65-2.18-1.75-4.24-2.31-6.42c-0.28-1.03,0.81-1.68,1.71-1.71C72.16,30.91,74.81,31.09,77.43,31.03L77.43,31.03z M10.69,61.14
			c18.48-0.12,36.97,0,55.45-0.06H133c1.25-0.12,2.59,0.84,2.49,2.15c0.09,0.97-0.41,1.84-0.78,2.68c-1.53,3.24-3.05,6.51-4.55,9.79
			c-1.12,2.46-3.71,4.58-6.55,4.27c-40.52-0.03-81.07,0-121.59-0.03c-1.78,0-2.46-2.15-1.75-3.55c1.22-2.81,2.59-5.58,3.83-8.35
			c0.87-1.71,1.43-3.71,2.9-5.05C8.01,62.08,9.29,61.3,10.69,61.14L10.69,61.14z"/>
	</g>
</g>
</svg>
