<?xml version="1.0" encoding="utf-8"?>
<!-- Generator: Adobe Illustrator 25.4.1, SVG Export Plug-In . SVG Version: 6.00 Build 0)  -->
<svg version="1.1" xmlns="http://www.w3.org/2000/svg" xmlns:xlink="http://www.w3.org/1999/xlink" x="0px" y="0px"
	 viewBox="0 0 346.22 80" style="enable-background:new 0 0 346.22 80;" xml:space="preserve">
<style type="text/css">
	.st0{fill:#948771;}
	.st1{fill:#001246;}
</style>
<g id="Layer_2">
</g>
<g id="Layer_1">
	<g>
		<path class="st0" d="M63.97,0.18c0.5-0.24,1.07-0.17,1.61-0.18c1.5,0.03,3.02-0.01,4.52,0.01c0.69,0.01,1.38,0.51,1.46,1.24
			c0.08,1.28-0.07,2.57,0.06,3.85c0.11,0.79,0.9,1.28,1.67,1.21h19.73c1.86,0.04,3.64,0.96,4.86,2.35c1.82,2.14,2.51,5.22,1.63,7.91
			c-0.46,1.33-1.17,2.58-1.74,3.88c-2.9,6.17-5.82,12.34-8.7,18.51c-0.4,0.74-0.67,1.56-1.11,2.28c-0.26,0.46-0.81,0.61-1.29,0.58
			c-2.22,0-4.46,0-6.68,0c-0.58-0.01-1.26-0.08-1.68-0.54c-0.28-0.49-0.11-1.1,0.11-1.58c3.64-7.74,7.27-15.48,10.92-23.22
			c0.31-0.54,0.35-1.36-0.28-1.7c-0.93-0.5-2.03-0.26-3.04-0.26c-1.29-0.06-2.57,0.03-3.85-0.04c-2.18,0.1-4.36-0.08-6.54,0.03
			c-3.72-0.04-7.46,0.01-11.19-0.04c-0.56,0-1.03-0.46-1.21-0.97c-0.1-0.5-0.06-1-0.06-1.5c0-3.46,0-6.92,0-10.38
			C63.15,1.02,63.45,0.41,63.97,0.18L63.97,0.18z M200.72,0.18c0.44-0.22,0.96-0.18,1.43-0.18c1.5,0.01,3.02,0,4.52,0
			c0.63-0.01,1.35,0.29,1.57,0.93c0.26,1.38-0.06,2.78,0.13,4.15c0.08,0.79,0.92,1.25,1.64,1.21h19.58c1.38,0,2.77,0.46,3.88,1.28
			c2.17,1.6,3.29,4.39,3.17,7.04c-0.07,1.56-0.75,2.96-1.42,4.34c-3.06,6.53-6.14,13.05-9.2,19.59c-0.47,0.92-0.82,1.92-1.36,2.79
			c-0.26,0.42-0.82,0.44-1.26,0.46c-2.13,0-4.25-0.01-6.38,0c-0.6,0-1.22-0.01-1.76-0.32c-0.5-0.33-0.42-1.06-0.22-1.54
			c3.53-7.52,7.07-15.02,10.59-22.54c0.22-0.51,0.53-1.01,0.65-1.58c0.11-0.56-0.31-1.1-0.85-1.22c-1.22-0.31-2.49-0.03-3.72-0.14
			c-4.52-0.04-9.05,0.03-13.56-0.01c-2.24,0.01-4.46-0.04-6.7,0.04c-0.83,0.07-1.61-0.69-1.56-1.53c0-3.79,0-7.59,0-11.39
			C199.89,1.02,200.2,0.43,200.72,0.18L200.72,0.18z"/>
		<path class="st1" d="M170.52,6.19c-0.06,0-0.11,0-0.15,0c-4.9,0.01-9.82-0.01-14.73,0.01c-2.88,0.36-5.36,2.4-6.57,5
			c-4.42,9.48-8.84,18.97-13.26,28.46c-0.18,0.47-0.43,1.04-0.15,1.53c0.28,0.49,0.85,0.69,1.39,0.68h5.54
			c0.81-0.01,1.47-0.58,1.86-1.25c0.71-1.19,1.19-2.5,1.82-3.72c0.28-0.5,0.4-1.1,0.81-1.5c1.18-0.04,2.36,0,3.54-0.01h12.51
			c0.14,1.68-0.03,3.38,0.06,5.06c-0.04,0.78,0.69,1.51,1.49,1.43h5.7c0.88,0.1,1.6-0.78,1.53-1.61V7.77
			C171.93,6.99,171.3,6.21,170.52,6.19L170.52,6.19z M159.87,14.01c0.76,0,1.51,0.01,2.28,0.01c0.69-0.06,1.33,0.61,1.28,1.31v10.88
			c0.06,0.69-0.6,1.32-1.29,1.29c-3.85,0-7.68,0.01-11.53-0.01c1.97-4.25,3.99-8.49,5.97-12.74c0.21-0.36,0.56-0.72,1-0.69
			C158.36,14.01,159.12,14.01,159.87,14.01L159.87,14.01z M4.02,7.8c1.33-0.89,2.89-1.49,4.5-1.6H34.3
			c0.42,0.01,0.89-0.07,1.25,0.19c0.54,0.31,0.69,0.97,0.69,1.56c0,1.85,0.01,3.68,0,5.53c0.04,0.53-0.35,1.14-0.93,1.08
			c-8.2,0-16.4,0-24.59,0c-0.63-0.04-1.24,0.38-1.45,0.96c-0.1,0.82,0,1.64-0.07,2.46c-0.03,0.6-0.06,1.31,0.46,1.72
			c0.26,0.29,0.67,0.39,1.06,0.39h22.27c0.75-0.03,1.35,0.67,1.33,1.39c0.03,1.46,0,2.92,0.01,4.36c0,0.5,0.04,1.03-0.24,1.47
			c-0.15,0.28-0.47,0.42-0.72,0.6c-7.5-0.01-14.99,0-22.5-0.01c-0.54-0.01-1.11,0.18-1.42,0.64c-0.33,0.42-0.19,0.99-0.22,1.49
			c0.06,0.85-0.17,1.71,0.08,2.53c0.24,0.54,0.82,0.86,1.39,0.85h23.77c0.69,0,1.4-0.04,2.1,0.08c0.08,0.6-0.26,1.1-0.5,1.63
			c-0.85,1.76-1.7,3.54-2.54,5.31c-0.35,0.65-0.88,1.49-1.72,1.42c-10.16,0-20.31,0-30.46,0c-0.54,0.03-1.01-0.38-1.22-0.85
			C-0.01,40.35,0.02,39.7,0,39.05c0.04-4.29-0.03-8.59,0.01-12.88c0.04-3.96-0.11-7.92,0.08-11.88C0.37,11.7,1.87,9.28,4.02,7.8
			L4.02,7.8z M40.63,7.78c-0.04-0.72,0.42-1.5,1.18-1.58c1.96-0.01,3.92,0,5.88-0.01c0.75-0.06,1.39,0.68,1.36,1.4v24.27
			c-0.06,0.81,0.64,1.58,1.46,1.54c7.36,0.01,14.74,0,22.11,0c0.75,0.01,1.51-0.04,2.25,0.1c0,0.29,0,0.58-0.14,0.85
			c-0.9,1.88-1.81,3.75-2.7,5.64c-0.38,0.74-0.82,1.74-1.75,1.85c-9.43,0.01-18.88,0-28.32,0c-0.69,0.03-1.28-0.6-1.32-1.26
			c-0.08-0.94-0.01-1.9-0.04-2.85c0-0.78,0-1.57,0-2.35C40.63,26.19,40.62,16.98,40.63,7.78L40.63,7.78z"/>
		<path class="st0" d="M107.05,6.55c0.4-0.28,0.92-0.24,1.39-0.25c2.01,0.03,4.02-0.01,6.03,0.01c0.65-0.03,1.25,0.46,1.38,1.11
			c1.82,8.27,3.7,16.52,5.52,24.79c0.15,0.6,0.19,1.26,0.6,1.75c0.54,0.07,0.76-0.51,0.96-0.92c3.71-8.64,7.46-17.27,11.17-25.93
			c0.17-0.47,0.58-0.83,1.11-0.82c2.35-0.03,4.7,0.01,7.04-0.01c0.44,0,0.97-0.04,1.29,0.35c0.51,0.47,0.57,1.24,0.25,1.83
			c-3.74,8.41-7.5,16.81-11.24,25.22c-1.08,2.36-2.38,4.79-4.54,6.34c-2.03,1.43-4.59,1.75-7,1.76c-8.31-0.01-16.62,0-24.93,0
			c-0.57-0.03-1.24-0.08-1.58-0.6c-0.4-0.46-0.04-1.1,0.14-1.58c0.86-1.76,1.67-3.56,2.53-5.34c0.26-0.64,0.97-0.81,1.6-0.79h13.56
			c-0.46-2.46-1.1-4.88-1.61-7.31c-1.39-6.07-2.74-12.14-4.13-18.22C106.38,7.44,106.56,6.81,107.05,6.55L107.05,6.55z"/>
		<path class="st1" d="M177.41,7.78c-0.14-0.78,0.5-1.61,1.29-1.58h5.7c0.75-0.06,1.39,0.68,1.39,1.4v24.44
			c-0.01,0.76,0.69,1.42,1.45,1.38c6.81,0.01,13.62,0,20.42,0c1.31,0.04,2.64-0.1,3.95,0.1c0.08,0.6-0.28,1.1-0.5,1.61
			c-0.86,1.76-1.7,3.56-2.56,5.32c-0.35,0.65-0.86,1.46-1.7,1.4c-9.38,0-18.76,0-28.14,0c-0.74,0.03-1.39-0.69-1.29-1.43
			C177.41,29.54,177.42,18.66,177.41,7.78L177.41,7.78z"/>
		<path class="st0" d="M241.71,7.46c-0.29-0.43-0.13-1.08,0.44-1.11c1.83-0.11,3.67-0.01,5.5-0.04c0.94,0.03,1.96-0.14,2.83,0.31
			c1,0.53,1.4,1.65,1.97,2.56c2.56,4.53,5.14,9.05,7.7,13.57c0.29,0.54,0.58,1.11,1.03,1.56c2.67-5.7,5.31-11.39,7.96-17.09
			c0.21-0.51,0.67-0.93,1.25-0.9c1.96,0,3.9-0.01,5.86,0c0.78-0.03,1.53,0.53,1.7,1.31c0.13,0.86-0.14,1.71-0.4,2.5
			c-0.5,1.56-1.32,2.99-1.97,4.49c-2.96,6.36-5.92,12.73-8.89,19.08c-0.18,0.29,0.01,0.6,0.15,0.85c1.1,1.93,2.2,3.86,3.28,5.79
			c0.13,0.33,0.42,0.78,0.13,1.1c-0.35,0.35-0.89,0.35-1.35,0.36c-2.13-0.01-4.25,0-6.38,0c-0.79,0-1.61-0.36-1.97-1.08
			c-3.31-5.79-6.57-11.6-9.89-17.38c-0.5,0.47-0.68,1.15-0.99,1.75c-1.45,3.06-2.89,6.13-4.34,9.18c-0.68,1.42-1.24,2.9-2.26,4.13
			c-0.92,1.06-1.97,2.04-3.28,2.6c-1.64,0.71-3.46,0.85-5.22,0.82c-0.6,0-1.25,0.01-1.79-0.31c-0.38-0.26-0.35-0.81-0.15-1.18
			c4.13-8.75,8.23-17.52,12.35-26.26c0.14-0.32,0.06-0.68-0.13-0.97C243.83,11.2,242.77,9.34,241.71,7.46L241.71,7.46z"/>
		<path class="st1" d="M290.34,6.23c3.85-0.07,7.7-0.01,11.55-0.03h43.35c0.44-0.03,0.89,0.31,0.96,0.76
			c0.1,0.51-0.17,1.01-0.36,1.47c-0.71,1.46-1.36,2.95-2.06,4.4c-0.32,0.71-0.92,1.25-1.61,1.57c-0.76,0.33-1.63,0.26-2.45,0.26
			c-16.95,0-33.92,0-50.87,0c-0.83-0.04-1.68,0.13-2.49-0.15c-0.65-0.28-0.6-1.14-0.35-1.7c0.78-1.64,1.53-3.29,2.31-4.95
			C288.7,7.06,289.5,6.51,290.34,6.23L290.34,6.23z M307.59,20.03c1.01-1.11,1.9-2.35,3.03-3.35c0.19,0.22,0.39,0.46,0.49,0.75
			c0.32,0.86,0.65,1.74,0.97,2.6c1.35,0.04,2.71-0.07,4.06,0.06c0.53,0.08,0.44,0.78,0.18,1.1c-0.82,1.08-1.79,2.06-2.64,3.11
			c0.36,0.85,0.68,1.72,0.99,2.58c0.11,0.35,0.17,0.93-0.32,1.01c-1.29,0.31-2.63,0.07-3.95,0.17c-0.9,0.93-1.68,1.99-2.58,2.92
			c-0.14,0.18-0.38,0.24-0.58,0.19c-0.51-1-0.83-2.08-1.24-3.13c-1.36-0.06-2.74,0.08-4.1-0.07c-0.58-0.07-0.5-0.79-0.22-1.14
			c0.82-1.1,1.83-2.04,2.64-3.14c-0.29-0.97-0.78-1.89-1.03-2.86c-0.13-0.46,0.36-0.75,0.76-0.76
			C305.24,19.97,306.42,20.05,307.59,20.03L307.59,20.03z M277.84,33.45c8.24-0.06,16.48,0,24.72-0.03h29.8
			c0.56-0.06,1.15,0.38,1.11,0.96c0.04,0.43-0.18,0.82-0.35,1.19c-0.68,1.45-1.36,2.9-2.03,4.36c-0.5,1.1-1.65,2.04-2.92,1.9
			c-18.06-0.01-36.14,0-54.2-0.01c-0.79,0-1.1-0.96-0.78-1.58c0.54-1.25,1.15-2.49,1.71-3.72c0.39-0.76,0.64-1.65,1.29-2.25
			C276.64,33.86,277.21,33.52,277.84,33.45L277.84,33.45z"/>
		<path class="st0" d="M84.89,53h2.85c0.01,2.38,0,4.77,0.01,7.14c1.21,0.11,2.42,0.04,3.63,0.07c2.61,0.01,5.22-0.03,7.84,0.03
			c-0.07,0.94-0.28,1.88-0.44,2.81c-0.6,3.32-1.21,6.64-1.81,9.96c-0.38,1.93-1.08,3.92-2.58,5.27c-1.36,1.22-3.25,1.61-5.03,1.61
			c-0.21-0.03-0.64,0.08-0.61-0.28c-0.06-0.88,0-1.75-0.03-2.63c1.08-0.1,2.25-0.08,3.22-0.65c1.14-0.68,1.81-1.96,1.99-3.24
			c0.56-3.31,1.22-6.6,1.7-9.92c-3.32-0.01-6.64,0-9.95,0c-0.29,0-0.82-0.03-0.76-0.44C84.87,59.44,84.9,56.22,84.89,53z
			 M65.03,60.18c-0.01,6.54,0,13.09-0.01,19.63c5.4,0.01,10.81,0.01,16.21,0c-0.01-3.88,0-7.74,0-11.62
			c0.03-1.63-0.01-3.27-0.4-4.85c-0.4-1.67-1.9-3.2-3.7-3.15C73.09,60.19,69.06,60.19,65.03,60.18z M72.49,63.06h4.47
			c1.01-0.03,1.13,1.22,1.24,1.97c0.06,3.99,0.01,7.96,0.03,11.95c-3.4-0.01-6.82-0.01-10.23,0c0-4.64,0-9.28,0-13.94
			C69.5,63.06,71.01,63.06,72.49,63.06L72.49,63.06z M103.69,60.18c0.94,0.01,1.9,0,2.85,0c-0.01,6.53,0,13.05,0,19.58
			c-0.94,0.1-1.9,0.06-2.85,0.06C103.69,73.28,103.67,66.72,103.69,60.18L103.69,60.18z M112.26,60.19c1-0.01,1.99-0.01,2.99,0
			c1.31,5.56,2.63,11.12,3.92,16.67c1.47,0.03,3.04-0.47,3.96-1.7c1.01-1.26,1.21-2.92,1.24-4.49c0-3.5,0-7,0-10.52
			c0.97,0,1.93-0.01,2.9,0.01c0.03,2.89,0,5.77,0.01,8.66c0,1.82,0.08,3.68-0.49,5.45c-0.58,2.08-2.07,3.93-4.06,4.82
			c-1.22,0.58-2.6,0.74-3.93,0.72c-2.6-0.01-5.2,0.01-7.79-0.01c-0.03-0.97-0.01-1.93-0.01-2.9c1.75-0.13,3.52,0.13,5.25-0.07
			c-0.83-3.29-1.58-6.61-2.4-9.92C113.34,64.67,112.72,62.45,112.26,60.19L112.26,60.19z M131.65,60.19c2.68-0.01,5.38,0,8.06-0.01
			c1.72-0.04,3.36,1.15,3.92,2.77c0.6,1.68,0.64,3.49,0.72,5.25c0.04,2.92,0.01,5.99-1.33,8.64c1.11,0.17,2.22-0.04,3.33,0.08
			c-0.01,0.97-0.01,1.93,0,2.9c-5.09-0.01-10.16,0.01-15.24-0.01c-0.04-0.96-0.01-1.93-0.03-2.89c1.65,0.01,3.31-0.06,4.95-0.01
			c1.29-0.06,2.6,0.08,3.89-0.13c0.64-0.1,0.96-0.75,1.07-1.32c0.21-1.07,0.33-2.17,0.32-3.25c-0.01-1,0.19-2,0.11-3
			c-0.19-1.76,0.01-3.58-0.6-5.28c-0.18-0.53-0.74-0.83-1.28-0.81c-2.61-0.01-5.24,0.01-7.85-0.01
			C131.61,62.13,131.65,61.17,131.65,60.19L131.65,60.19z M160.79,60.19c3.75-0.01,7.5,0,11.25,0c1.33-0.03,2.49,0.89,3.14,1.99
			c0.6,1.06,0.74,2.31,0.79,3.5c0.19,1.78,0.07,3.57,0.11,5.36v8.78c-0.99,0.03-1.97,0.03-2.97,0c-0.03-4.1,0-8.18-0.01-12.28
			c-0.01-1.22,0.11-2.49-0.31-3.65c-0.13-0.4-0.47-0.79-0.93-0.75c-2.71-0.03-5.4,0-8.11-0.01c-0.04,3.08,0,6.18-0.01,9.27
			c-0.01,1.49,0.1,3.02-0.33,4.46c-0.44,1.49-1.76,2.64-3.27,2.96c-1.18,0.32-2.43,0.18-3.61-0.06c0-0.94,0-1.89,0-2.83
			c1,0.07,2.03,0.43,3,0.03c0.79-0.24,1.29-1.06,1.26-1.86C160.79,70.1,160.76,65.15,160.79,60.19L160.79,60.19z M180.2,60.19
			c0.97,0,1.96,0,2.95-0.01c0.03,3.71,0,7.42,0.01,11.12c-0.97,0.06-1.93,0.06-2.9,0C180.13,67.6,180.23,63.9,180.2,60.19
			L180.2,60.19z M187.8,60.18c2.5,0.01,5,0.01,7.49,0c0.94-0.06,1.93,0.06,2.72,0.6c1.01,0.53,1.6,1.58,1.92,2.64
			c0.47,1.49,0.49,3.06,0.53,4.6c0.19,1.38,0,2.75-0.06,4.13c-0.11,1.61-0.51,3.21-1.21,4.68c1.11,0.18,2.24-0.01,3.36,0.11
			c-0.01,0.96-0.01,1.93-0.01,2.89c-4.65,0-9.31,0-13.96,0c-0.46-0.01-0.93,0.06-1.38-0.08c-0.06-0.85-0.04-1.7-0.01-2.54
			c-0.04-0.42,0.47-0.28,0.72-0.33c2.29,0.11,4.59-0.08,6.86,0.03c0.67-0.06,1.5,0.03,1.97-0.54c0.67-1.22,0.6-2.67,0.74-4
			c-0.03-2.5,0.15-5.03-0.26-7.5c-0.08-0.51-0.29-1-0.5-1.47c-0.42-0.15-0.83-0.31-1.28-0.29c-2.54,0-5.1,0.01-7.64,0
			C187.75,62.13,187.8,61.15,187.8,60.18L187.8,60.18z M207.03,60.19h7.16c0.72,0,1.47-0.07,2.15,0.19c1.17,0.38,2.1,1.29,2.54,2.43
			c0.74,1.86,0.71,3.9,0.79,5.88c0.04,2.75-0.1,5.63-1.32,8.14c1.1,0.15,2.22-0.04,3.32,0.08c-0.06,0.94,0.1,1.92-0.08,2.85
			c-1.57,0.15-3.15,0.01-4.72,0.06c-3.5,0-7,0-10.5,0c-0.06-0.97,0-1.93,0-2.9c2.56-0.03,5.1-0.04,7.66-0.04
			c0.58-0.04,1.32,0.07,1.78-0.38c0.71-0.83,0.61-2.01,0.79-3.03c0.07-2.35,0.11-4.7,0-7.04c-0.14-0.94-0.1-2-0.64-2.83
			c-0.43-0.61-1.28-0.47-1.93-0.49c-2.33-0.03-4.67,0.07-7-0.06C207.03,62.1,207.03,61.14,207.03,60.19L207.03,60.19z M233.92,60.19
			c0.94-0.01,1.89,0,2.85,0c-0.01,3.71,0.03,7.42-0.01,11.14c-0.93,0.03-1.88,0.01-2.81,0.01C233.89,67.63,233.92,63.9,233.92,60.19
			L233.92,60.19z M241.25,60.18c2.53,0.01,5.06,0,7.59,0c1.46,0,2.96,0.63,3.85,1.81c1.03,1.39,1.38,3.14,1.56,4.82
			c0.1,1.57,0.29,3.15,0.1,4.72c-0.14,2.06-0.36,4.21-1.51,5.97c-0.75,1.22-2.1,2-3.5,2.2c-1.76,0.24-3.56,0.07-5.34,0.11
			c-0.9-0.06-1.83,0.11-2.71-0.08c-0.1-0.96-0.01-1.92-0.03-2.88c2.14,0.08,4.28,0.01,6.41,0.06c1.04-0.07,2.4,0,2.99-1.06
			c0.65-1.28,0.65-2.75,0.74-4.15c-0.06-2.29,0.21-4.63-0.38-6.86c-0.21-0.86-0.88-1.7-1.82-1.72c-2.24-0.06-4.47-0.01-6.7-0.01
			c-0.4-0.03-0.83,0.06-1.21-0.1C241.2,62.07,241.27,61.13,241.25,60.18L241.25,60.18z M259.12,60.19h11.14
			c1-0.01,1.96,0.46,2.61,1.19c0.85,0.88,1.19,2.1,1.31,3.28c0.24,2.11,0.15,4.25,0.17,6.38v8.03c-0.01,0.24-0.01,0.49-0.08,0.72
			c-0.94,0.08-1.89,0.04-2.83-0.01c-0.01-2.81,0-5.61-0.01-8.42c-0.06-2.01,0.1-4.03-0.08-6.03c-0.11-0.75-0.1-1.68-0.79-2.17
			c-1.06-0.14-2.11-0.03-3.17-0.06c-2.76-0.01-5.52,0.03-8.28-0.01C259.12,62.13,259.14,61.15,259.12,60.19L259.12,60.19z
			 M259.12,68.54c0.97-0.1,1.96,0,2.93,0.01c0.04,2.45,0.01,4.89,0.03,7.32c-0.01,1.31,0.06,2.63-0.07,3.93
			c-0.96,0.01-1.92,0.01-2.88-0.01C259.11,76.06,259.15,72.3,259.12,68.54L259.12,68.54z"/>
	</g>
</g>
</svg>
