<?xml version="1.0" encoding="utf-8"?>
<!-- Generator: Adobe Illustrator 25.4.1, SVG Export Plug-In . SVG Version: 6.00 Build 0)  -->
<svg version="1.1" id="Layer_1" xmlns="http://www.w3.org/2000/svg" xmlns:xlink="http://www.w3.org/1999/xlink" x="0px" y="0px"
	 viewBox="0 0 824.9 80" style="enable-background:new 0 0 824.9 80;" xml:space="preserve">
<style type="text/css">
	.st0{fill:#231F20;}
</style>
<g>
	<path class="st0" d="M31,17.7L33.6,0H12.7L0,79.7h21.9L28,38.3c1.9-1,4.5-2.4,7.7-4.2c4.3,6.6,14.5,23.8,19.3,45.6h22.9
		c0,0-5.2-31.1-22.4-57.4C66.6,15.3,78.2,7.1,84.8,0H56.4L31,17.7z"/>
	<path class="st0" d="M216.8,25.9c0,0-28.2-25.9-35.5-25.9h-14.1l-10.2,65.6h-48.1l5.2-27.4H141l2.9-12h-27.2l1.8-11.8h30.6L154.9,0
		H97.4L86.1,79.7h86l8.6-54.1c0,0,32.1,14.9,31.4,32.9l-2.4,21.2h18L237.4,0H221L216.8,25.9z"/>
	<path class="st0" d="M322.1,0c0,0-24.8,14.6-33.4,31.6c0,0-10.7-25.1-21.9-31.6h-17.8L239,79.7h15.9l6.8-49.6
		c0,0,14.9,19.1,17,37.6h6.8c0,0,13.1-23.8,20.6-30s7.3-0.5,6.8,2.2c-0.5,2.7-5.5,39.8-5.5,39.8h19.3L338.3,0H322.1z"/>
	<path class="st0" d="M487.4,0c-11.2,0-45.7,0-45.7,0L430,79.7h18.8l10.5-65.3h17c0,0,13.1,2.4,13.1,14.4s-9.7,19.3-22.7,16.5
		L463.1,63c0,0,1,12.5,37.6,16.7l2.6-18.8c0,0-14.4-3.4-16.2-7.1c0,0,23.8-5.2,23.8-25.6C510.9,7.8,498.7,0,487.4,0z"/>
	<polygon class="st0" points="512,79.7 570.5,79.7 572.3,65.6 533.9,65.6 539.2,38.4 568.2,38.4 570,25.9 540.2,25.9 542.2,14.4 
		578.9,14.4 579.9,0 523.2,0 	"/>
	<polygon class="st0" points="701.4,0 691.3,79.7 712.2,79.7 723.4,0 	"/>
	<path class="st0" d="M781,53.3c0,0,24-3.5,24-24.7C805,7.3,789.7,0,774.6,0c-8.8,0-15.3,0-19.2,0h-4.2h-17.8l-10.1,79.7h20.9
		l9-64.4l0,0h17.5c0,0,14.3,0.3,14.3,15.2c0,15-15.7,15.8-23.5,14.6c0,0-3.8,0.3-3.1,18.5c0,0,13.1,16.1,44.2,16.1h22.3L781,53.3z"
		/>
	<path class="st0" d="M645.7,0c0,0-27.9,28.9-44.4,79.7h20.6c0,0,17.6-46.9,27.9-57c0,0,6.4,8.1,9.7,29.4h-15.1L638,67.2h23
		c0.2,3.9,0.4,8,0.4,12.5h20.9c0,0-2.1-54.3-17.9-79.7H645.7z"/>
	<path class="st0" d="M384.1,0c-20.6,0-42,15.6-45.6,36.5c-4.2,24.6,11,43.5,42.2,43.5c22.4,0,42.3-16.9,47.5-38.6
		c2.4-10,0.9-20.6-5.8-28.7C412.9,1.3,398.2,0,384.1,0z M403,43.8c-2.7,14.5-17.6,23.9-26,22.4c-10.4-1.9-21.4-6.1-16.9-30.3
		c2.7-14.5,14.6-24.5,26.6-22.3C397.1,15.5,407.5,19.2,403,43.8z"/>
</g>
</svg>
