<?xml version="1.0" encoding="utf-8"?>
<!-- Generator: Adobe Illustrator 25.4.1, SVG Export Plug-In . SVG Version: 6.00 Build 0)  -->
<svg version="1.1" id="Layer_1" xmlns="http://www.w3.org/2000/svg" xmlns:xlink="http://www.w3.org/1999/xlink" x="0px" y="0px"
	 viewBox="0 0 76.8 80" style="enable-background:new 0 0 76.8 80;" xml:space="preserve">
<style type="text/css">
	.st0{fill:#005DAB;}
	.st1{fill:#00AEEB;}
</style>
<g>
	<path class="st0" d="M15.4,79.1c0.1-0.5,2.4-5.9,5.1-12c2.7-6.1,6.9-15.7,9.4-21.4s4.7-10.4,4.9-10.4c0.2,0,4.4,2.5,9.3,5.6
		c4.9,3.1,9.2,5.7,9.5,5.9c1.2,0.6-0.4-0.9-2.6-2.6c-2.7-2.1-7.1-7.2-8.7-10.1c-1.6-2.9-2-5.4-1.2-6.6c0.5-0.8,0.8-0.8,3.4-0.6
		c1.9,0.1,3.4,0.5,4.7,1.2c3.9,2,12.4,4.3,18.5,5.1c1.1,0.1,2.1,0.3,2.2,0.4c0.1,0.1-2.1,7.2-5,15.7c-3.7,10.9-5.6,16.2-6.5,17.5
		c-3.9,6-10.4,10-19,11.8c-3.2,0.7-5.7,0.9-14.1,1L15.2,80L15.4,79.1z"/>
	<path class="st0" d="M66.2,31.7c-5.6-2-11.8-5.4-11.1-6.1c0.6-0.5,6.7-1.5,11.2-1.8c2.4-0.1,4.4-0.3,4.3-0.4
		c-0.5-0.5-10.1-0.9-14-0.6c-4.1,0.4-4.7,0.3-7.1-0.4c-4.9-1.5-7.1-3.1-7.1-5c0-1.3,0.8-2.2,3-3.1c3.6-1.6,6.3-1.8,19.2-1.8
		c6.8,0,12.3,0.1,12.3,0.3c0,0.9-6.5,20-6.8,20.1C69.9,32.9,68.1,32.4,66.2,31.7L66.2,31.7z"/>
	<path id="path3418" class="st1" d="M7.6,51.9c4.2-8.5,9.4-19.2,11.7-23.8s4.2-8.4,4.4-8.4c0.2,0,0.5,0.2,0.7,0.5
		c2,2.5,2.9,3.4,4,3.8c0.7,0.3,1.3,0.5,1.4,0.6c0.1,0-0.2,0.8-0.7,1.7c-0.4,0.9-0.8,2.2-0.8,3c0,1.2,0.3,1.7,1.7,3.1l1.7,1.7
		l-5,11.3c-2.7,6.2-6,13.7-7.3,16.6l-2.3,5.2l-8.6,0.1L0,67.3L7.6,51.9L7.6,51.9z M24,19c0-0.2,1.3-2.9,2.9-6.1
		c3.1-6.4,4.9-8.5,8.6-10.4c4.1-2.1,5.5-2.3,20-2.5C64.2-0.1,68.9,0,68.9,0.3c0,0.2-0.8,2.5-1.7,5.2l-1.7,4.8l-5.4,0.2
		c-3,0.1-9.1,0.3-13.7,0.3c-6.4,0-8.8,0.2-10.4,0.7c-2.6,0.8-4.6,2.7-4.6,4.3c0,1.1-0.1,1.2-2.1,1.3c-1.5,0.1-2.5,0.5-3.5,1.2
		C24.4,19.4,24,19.5,24,19L24,19z"/>
</g>
</svg>
