<?xml version="1.0" encoding="utf-8"?>
<!-- Generator: Adobe Illustrator 25.4.1, SVG Export Plug-In . SVG Version: 6.00 Build 0)  -->
<svg version="1.1" id="Layer_1" xmlns="http://www.w3.org/2000/svg" xmlns:xlink="http://www.w3.org/1999/xlink" x="0px" y="0px"
	 viewBox="0 0 341.8 80" style="enable-background:new 0 0 341.8 80;" xml:space="preserve">
<style type="text/css">
	.st0{fill:#005DAB;}
	.st1{fill:#00AEEB;}
</style>
<g>
	<path id="path3403" class="st0" d="M137.6,79.7c-0.1-0.3,6.2-12.4,6.8-13c0.3-0.3,2.3-0.3,6.4-0.3c5,0.1,6.3,0.2,7.2,0.7
		c0.6,0.3,1.1,0.8,1.1,1.1c0,1.6-2.3,4-4.1,4.4c-1.3,0.3-1.3,0.5-0.1,1.4l0.9,0.7l-0.9,1.9c-0.5,1-0.9,2.1-0.9,2.4
		c0,0.4-0.5,0.5-2.7,0.5c-1.5,0-2.7-0.1-2.7-0.2s0.4-0.9,0.8-1.9c1.4-2.8,1.1-3.4-1.9-3.4c-1.9,0-2.3,0.3-3.6,2.8
		c-0.7,1.3-1.3,2.5-1.3,2.5C142.3,79.9,137.7,80,137.6,79.7L137.6,79.7z M151.4,72.1c0.8-0.3,1.3-0.9,1.8-1.9c0.8-1.8,0.5-2-2.4-2.1
		l-2.1,0l-1,2c-0.6,1.1-1,2.1-1,2.2C146.5,72.7,150.3,72.5,151.4,72.1L151.4,72.1z M195.2,79.4c-0.2-0.3-0.6-2.4-0.9-4.5
		c-0.3-2.2-0.7-4.1-0.9-4.4c-0.2-0.3-1.1,1.2-2.8,4.3l-2.5,4.8l-2.3,0l-2.3,0l2.8-5.4c1.5-2.9,3.1-5.9,3.6-6.6l0.8-1.3h3.2h3.2
		l0.4,2.5c0.2,1.4,0.5,3.1,0.6,3.8c0.1,0.7,0.4,1.3,0.6,1.3c0.2,0,1.2-1.7,2.3-3.8l2-3.8h2.2c1.2,0,2.2,0.1,2.2,0.2
		c0,0.3-5.9,11.5-6.5,12.5c-0.6,0.9-0.8,0.9-3,0.9C195.9,80,195.4,79.9,195.2,79.4L195.2,79.4z M226.7,79.7c-1.6-0.3-3-1.2-3-2
		c0-1.5,0.3-1.7,2.9-1.7h2.5l-0.1,1c-0.1,0.9-0.1,1,1.2,1.2c1.7,0.3,4-0.3,4.5-1.2c0.6-1.1-0.1-1.8-3-3.2c-4.4-2.1-5.1-3.2-3-5.1
		c1.7-1.6,4.6-2.3,8.9-2.3c4.3,0,6.1,0.7,6.1,2.3v1l-2.5,0.1c-2.4,0.1-2.5,0.1-2.5-0.7c0-0.7-0.2-0.9-1.3-1c-1.5-0.2-3.6,0.2-4.2,1
		c-0.9,1.1-0.1,2,3.2,3.7c3.5,1.8,4.1,2.5,3.2,4.2C238.4,79.1,231.5,80.6,226.7,79.7L226.7,79.7z M106.7,79.5
		c0-0.2,9.7-10.7,11.3-12.1c1-0.9,1.1-0.9,4.7-0.9c3.3,0,3.7,0.1,3.7,0.6c0,0.3-0.3,3.1-0.7,6.2c-0.4,3.1-0.7,5.8-0.7,6
		c0,0.3-0.7,0.4-2.6,0.4H120v-1.2v-1.2h-3.4h-3.4l-1.2,1.2c-1.1,1.1-1.4,1.2-3.2,1.2C107.6,79.7,106.7,79.6,106.7,79.5z M120.3,75.3
		c0-0.1,0.2-1.6,0.5-3.3c0.3-1.7,0.4-3.1,0.3-3.2c-0.2-0.2-1.9,1.6-4.9,5.2l-1.4,1.6h2.8C119.1,75.6,120.3,75.5,120.3,75.3
		L120.3,75.3z M128.1,79.4c0-0.1,1.5-3.1,3.3-6.5l3.3-6.3l2.6-0.1l2.6-0.1l-2.1,3.8c-1.1,2.1-2.7,5.1-3.5,6.6l-1.4,2.8h-2.5
		C129.3,79.7,128.1,79.5,128.1,79.4L128.1,79.4z M159.8,75c1.3-2.6,2.9-5.6,3.5-6.6l1-2h2.5c1.4,0,2.5,0.1,2.5,0.1s-1.3,2.6-2.9,5.6
		c-1.6,3-2.9,5.5-2.9,5.6c0,0.1,2,0.2,4.4,0.3l4.4,0.1l-0.5,0.8c-0.5,0.8-0.7,0.8-7.5,0.8h-7L159.8,75z M174.4,79.4
		c0-0.1,1.5-3.1,3.3-6.6l3.3-6.3l2.6-0.1l2.6-0.1l-2.5,4.7c-1.4,2.6-2.9,5.5-3.5,6.6l-1,1.9l-2.5,0.1
		C175.5,79.6,174.4,79.6,174.4,79.4z M205,79.4c0-0.1,1.5-3.1,3.3-6.5l3.3-6.3l7.2-0.1c4-0.1,7.2,0,7.2,0.1s-0.2,0.5-0.4,0.9
		c-0.3,0.6-0.8,0.7-5,0.7l-4.7,0l-0.9,1.7c-0.5,0.9-0.9,1.8-0.9,2c0,0.2,1.2,0.4,3.6,0.4c2,0,3.6,0.1,3.6,0.3s-0.3,0.5-0.6,0.8
		c-0.5,0.4-1.3,0.6-4.2,0.6l-3.5,0l-0.9,1.8c-0.5,1-0.9,1.9-0.9,2c0,0.1,2,0.2,4.4,0.2c4.5,0,5.1,0.2,4,1.3
		C219.1,79.7,205,79.9,205,79.4L205,79.4z M287.4,69.4c0.1-0.4,2.1-5.2,4.5-10.5c2.3-5.3,6.1-13.8,8.2-18.8c2.2-5,4.1-9.1,4.3-9.1
		c0.2,0,3.9,2.2,8.2,4.9c4.3,2.7,8.1,5,8.4,5.2c1,0.6-0.3-0.8-2.3-2.3c-2.4-1.8-6.3-6.4-7.6-8.9c-1.4-2.6-1.8-4.8-1.1-5.8
		c0.5-0.7,0.7-0.7,3-0.6c1.6,0.1,3,0.5,4.1,1c3.4,1.7,10.9,3.8,16.3,4.5c0.9,0.1,1.8,0.3,1.9,0.4c0.1,0.1-1.8,6.3-4.4,13.8
		c-3.2,9.6-4.9,14.2-5.7,15.4c-3.5,5.2-9.1,8.8-16.7,10.4c-2.8,0.6-5,0.8-12.4,0.9l-9,0.2L287.4,69.4z M16.8,59.3
		c-9.8-1-15.7-4.4-16.7-9.5c-0.2-1-0.2-1,1-1c1.1,0,12.1-1.1,15.2-1.5c1.2-0.2,1.3-0.1,1.8,1c0.7,1.4,2.3,2.3,5.1,2.8
		c4.2,0.8,10.3,0.2,11.7-1.2c1-0.9,0.9-2.1-0.3-2.7c-0.6-0.3-4.1-1-7.9-1.5c-10.1-1.5-13.8-2.6-16.4-4.8c-1.8-1.6-2.4-2.8-2.1-4.7
		c0.6-4.2,5.6-8.6,12.4-10.9c5.7-1.9,15.2-2.9,22.2-2.4c7.2,0.6,12,2.2,14.8,5c1.3,1.3,2.2,3,1.8,3.4c-0.1,0.1-3.7,0.7-7.9,1.4
		L43.7,34l-1.2-1.3c-1.5-1.6-3.4-2.1-7.6-2.2c-5,0-7.8,1.2-7.1,3.2c0.3,1,1.7,1.3,8.8,2.3c12,1.6,16.6,3.2,18.4,6.7
		c0.8,1.6,0.6,4-0.5,5.9c-1.8,3.1-7.6,6.9-13.1,8.6C35.8,58.9,23.3,60,16.8,59.3L16.8,59.3z M53.7,59.5c0-0.1,1.3-3.5,2.9-7.6
		c1.6-4.1,4.6-12,6.6-17.5l3.7-10l8.4-0.1c4.6,0,8.2,0,7.9,0.1c-0.3,0.1-4.1,1.6-8.5,3.3c-4.4,1.7-8.3,3.2-8.6,3.4
		c-0.4,0.1-0.6,0.3-0.5,0.4c0.1,0.1,4.1-0.7,8.9-1.7c4.8-1,8.8-1.8,8.9-1.8c0.1,0.1-0.9,2.4-2.1,5.2c-1.2,2.8-2,5.2-1.8,5.2
		c0.2,0.1,5.3-3.1,11.3-7.1l11-7.2h11.2h11.2l1.3,2.3c0.7,1.3,2.1,3.9,3.1,5.8s1.9,3.5,2,3.5s3.4-2.5,7.2-5.5c3.8-3,7.2-5.6,7.5-5.8
		c0.3-0.2,3.9-0.3,8.1-0.2l7.5,0.1l-12.7,9.6c-7,5.3-13,9.9-13.3,10.3c-0.3,0.4-1.9,3.9-3.5,7.9l-2.9,7.2l-8.8,0.1
		c-4.8,0-8.8,0-8.8-0.1c0-0.1,1.2-3.3,2.7-7.1c1.5-3.8,2.7-7.3,2.7-7.7c0-0.7-6.1-11.1-7.8-13.3c-0.6-0.8-0.7-0.8-1.6-0.3
		c-2.8,1.7-9,6.2-9,6.6c0,0.2,1.9,4.8,4.3,10.1s4.5,10.2,4.8,10.8l0.5,1.1h-10h-10L85.3,53c-1.4-3.6-2.6-6.6-2.8-6.6
		c-0.3,0-7.9,4.5-8.4,4.9c-0.1,0.1-0.8,1.9-1.7,4.1l-1.6,4l-8.6,0.1C57.5,59.6,53.7,59.6,53.7,59.5L53.7,59.5z M171.3,59.3
		c0-0.1,3.1-8.1,6.9-17.6l6.9-17.3l19.8-0.1c10.9,0,19.8,0,19.8,0.2c0,0.1-0.6,1.9-1.4,3.9l-1.4,3.7l-11.1,0.1l-11.1,0.1l-1,2.3
		c-0.5,1.3-1,2.5-1,2.6s4.9,0.3,10.9,0.3s10.9,0,10.9,0.1c0,0.1-0.7,1.8-1.5,3.8l-1.5,3.7l-11,0.1l-11,0.1l-1.1,2.8
		c-0.6,1.5-1,2.9-0.9,3.1c0.1,0.2,6.1,0.3,13.4,0.3s13.2,0.1,13.2,0.2c0,0.4-2.8,7.2-3.1,7.6c-0.3,0.3-5.2,0.4-22.6,0.4
		C181.3,59.6,171.3,59.5,171.3,59.3L171.3,59.3z M229.9,59.2c2.9-7.1,10.2-25.8,10.4-26.3l0.2-0.8l-8.1-0.1l-8.1-0.1l1.4-3.7
		l1.4-3.7l25.4-0.1c25.1-0.1,25.4-0.1,25.2,0.6c-0.1,0.4-0.8,2.1-1.5,3.8l-1.3,3.2l-8.5,0.2l-8.5,0.2l-5.4,13.7L247,59.6h-8.7
		C231.6,59.6,229.8,59.5,229.9,59.2L229.9,59.2z M140.4,58.9c-1.8-0.2-3.3-0.4-3.4-0.5c-0.1-0.1,0.5-1.9,1.4-4l1.6-3.8l1.7,0.2
		c0.9,0.1,3.3,0.2,5.4,0.1c4.3,0,6.3-0.7,7.7-2.5c0.4-0.6,2.9-6.2,5.4-12.5l4.6-11.5l8.6-0.1l8.6-0.1l-5,12.6
		c-3,7.4-5.6,13.4-6.3,14.5c-2.8,4.2-8.2,6.9-15.5,7.6C151,59.3,145.1,59.3,140.4,58.9L140.4,58.9z M331.9,27.9
		c-4.9-1.8-10.4-4.8-9.8-5.3c0.5-0.5,5.9-1.3,9.8-1.6c2.1-0.1,3.8-0.3,3.8-0.3c-0.4-0.4-8.9-0.8-12.3-0.5c-3.6,0.3-4.1,0.3-6.2-0.4
		c-4.3-1.3-6.2-2.7-6.2-4.4c0-1.1,0.7-1.9,2.6-2.8c3.1-1.4,5.5-1.6,16.8-1.6c5.9,0,10.8,0.1,10.8,0.2c0,0.8-5.7,17.6-5.9,17.6
		C335.2,28.9,333.6,28.5,331.9,27.9L331.9,27.9z"/>
	<path id="path3418" class="st1" d="M280.5,45.6c3.7-7.4,8.3-16.8,10.3-20.9c2-4.1,3.7-7.4,3.9-7.4c0.1,0,0.4,0.2,0.6,0.4
		c1.8,2.2,2.6,3,3.5,3.3c0.6,0.2,1.2,0.5,1.2,0.5c0.1,0-0.2,0.7-0.6,1.5c-0.4,0.8-0.7,1.9-0.7,2.6c0,1.1,0.3,1.5,1.5,2.7l1.5,1.5
		l-4.4,10c-2.4,5.5-5.3,12-6.4,14.5l-2,4.6l-7.5,0.1l-7.5,0.1L280.5,45.6L280.5,45.6z M294.9,16.7c0-0.1,1.1-2.6,2.5-5.4
		c2.7-5.6,4.3-7.5,7.6-9.1c3.6-1.8,4.8-2,17.5-2.2c7.7-0.1,11.8-0.1,11.8,0.2c0,0.2-0.7,2.2-1.5,4.5L331.3,9l-4.7,0.2
		c-2.6,0.1-8,0.2-12,0.3c-5.6,0-7.8,0.2-9.2,0.6c-2.3,0.7-4.1,2.4-4.1,3.8c0,1-0.1,1-1.8,1.2c-1.3,0.1-2.2,0.4-3,1.1
		C295.2,17,294.9,17.1,294.9,16.7L294.9,16.7z"/>
</g>
</svg>
