<?xml version="1.0" encoding="utf-8"?>
<!-- Generator: Adobe Illustrator 25.4.1, SVG Export Plug-In . SVG Version: 6.00 Build 0)  -->
<svg version="1.1" id="Layer_1" xmlns="http://www.w3.org/2000/svg" xmlns:xlink="http://www.w3.org/1999/xlink" x="0px" y="0px"
	 viewBox="0 0 88 80" style="enable-background:new 0 0 88 80;" xml:space="preserve">
<style type="text/css">
	.st0{fill:#040268;}
	.st1{fill:#FF0000;}
</style>
<g>
	<path class="st0" d="M0,0v61.6l6.9-12l1.7-3L17.1,32c0,0,3.5-6.8,10.5-12.2c0.9-0.7,1.9-1.4,2.9-2C34.8,15,40.1,13,46.4,13h18.9
		c9.4,0,15.5,0,15.5,0L84,29.6H47.2c0,0-1.8-0.4-4.8,1.5c-2.9,1.8-7,5.7-11.6,14.1l-2.2,4.1l-1.3,2.4l-1.7,3.1L11.8,80h42.4
		l-3.2-19.6h16.9l0.8,3.4L72.6,80H88V0H0z M58.3,37c5,0,9.1,3.8,9.1,8.4s-4.1,8.4-9.1,8.4c-5,0-9.1-3.8-9.1-8.4S53.3,37,58.3,37z"/>
	<path class="st1" d="M22.6,11.1l7.9,6.7c-1,0.6-2,1.3-2.9,2l-8.2-6.9C10.5,18.2,3.9,24,0,27.8v-6.7C7.2,14.6,19.2,5.7,35.1,0h18
		l0.1,0.4C41.4,2.2,31.1,6.3,22.6,11.1z"/>
	<path class="st1" d="M8.7,46.6l-1.7,3c-2.8-1-5.1-2-6.9-2.9v-3.8C2,43.9,4.8,45.2,8.7,46.6z"/>
	<path class="st1" d="M70.4,56.9c5.5,0.3,11.3,0.5,17.6,0.6v3.4c-6.6-0.1-12.8-0.3-18.6-0.6c-0.3,1.3-0.6,2.5-0.7,3.5l-0.8-3.4h-3.5
		c0-0.1,0.1-0.3,0.1-0.5c-13.1-0.9-24-2.3-32.9-3.9c-2.6,9.5-3.2,17.9-3.2,24h-4.9c-0.1-8.3,1-16.7,3.2-24.9
		c-0.4-0.1-0.8-0.2-1.3-0.3l1.7-3.1c0.2,0,0.3,0.1,0.5,0.1c0.3-0.9,0.5-1.7,0.8-2.6l2.2-4.1c4.6-8.4,8.7-12.3,11.6-14.1
		c-4.6,7.5-7.7,14.9-9.9,21.7c8.9,1.6,19.7,3,32.8,3.8c2.1-6.6,6.1-15,14.3-22.3c-6.1-1.2-13.7-3.5-18-4.7h12.6
		c3.2,0.8,6.3,1.5,8.8,1.9c1.5-1.1,3.1-2.2,4.8-3.2v5.7C77.7,40.9,72.8,49.9,70.4,56.9z"/>
	<path class="st1" d="M88,3.2v3.4C80.5,7,74.1,8.5,69,10.9c-1.3,0.6-2.5,1.3-3.6,2.1H60C62.7,10.3,70.6,4.1,88,3.2z"/>
</g>
</svg>
