<?xml version="1.0" encoding="utf-8"?>
<!-- Generator: Adobe Illustrator 25.4.1, SVG Export Plug-In . SVG Version: 6.00 Build 0)  -->
<svg version="1.1" id="Layer_1" xmlns="http://www.w3.org/2000/svg" xmlns:xlink="http://www.w3.org/1999/xlink" x="0px" y="0px"
	 viewBox="0 0 257.9 80" style="enable-background:new 0 0 257.9 80;" xml:space="preserve">
<style type="text/css">
	.st0{fill:#040268;}
	.st1{fill:#FF0000;}
</style>
<g>
	<g>
		<rect x="9.7" y="49.3" class="st0" width="2.5" height="23.9"/>
		<path class="st0" d="M3.6,49.8c-1.4,1.6-1.2,3.4-1.2,3.4v2.7H0v2.2h2.4v15.1h2.5V58.1h2.9v-2.2H4.9v-2.7c0,0,0.2-1.9,1.8-1.7
			c1.6,0.2,1.6,0.2,1.6,0.2l0.5-2.4C8.8,49.3,5.1,48.2,3.6,49.8z"/>
		<path class="st0" d="M21.7,69.7l-4.3-13.8h-2.6L20.6,73c0,0-0.7,3.5-2,4.2s-2.6,0-2.6,0s0.1,2.1,0.2,2.4c3.6,1.8,5.5-2.9,5.5-2.9
			l6.9-20.8h-2.5L21.7,69.7z"/>
		<rect x="142.8" y="55.9" class="st0" width="4.3" height="16.9"/>
		<rect x="190.5" y="70.3" class="st0" width="3.3" height="3.5"/>
		<path class="st0" d="M87.3,69.8c-1.3,0.4-1.4-1.4-1.4-1.4v-9h3v-3.5h-3v-4.8h-4.3v4.8h-2.2v3.5h2.2v9c0,1.6,0.8,4.7,3.7,4.7
			s4-0.7,4-0.7l-0.4-3.4C88.9,69.1,88.7,69.4,87.3,69.8z"/>
		<path class="st0" d="M69.1,55.7c-4.8,0-8.7,3.9-8.7,8.7s3.9,8.7,8.7,8.7s8.7-3.9,8.7-8.7S73.9,55.7,69.1,55.7z M69.1,69.5
			c-2.3,0-4.2-2.3-4.2-5.1c0-2.8,1.9-5.1,4.2-5.1c2.3,0,4.2,2.3,4.2,5.1C73.3,67.2,71.4,69.5,69.1,69.5z"/>
		<path class="st0" d="M99.8,55.7c-4.8,0-8.7,3.9-8.7,8.7s3.9,8.7,8.7,8.7s8.7-3.9,8.7-8.7S104.6,55.7,99.8,55.7z M99.8,69.5
			c-2.3,0-4.2-2.3-4.2-5.1c0-2.8,1.9-5.1,4.2-5.1c2.3,0,4.2,2.3,4.2,5.1C104,67.2,102.1,69.5,99.8,69.5z"/>
		<path class="st0" d="M51.9,55.5c-2.8,0-4.6,1.5-5.7,3c-0.2-0.7-1.3-3-4.5-3c-2.5,0-4.3,1.5-5.1,2.6v-2.2h-4.3v16.9h4.3v-10
			c0.1-0.1,0.6-3.8,3.2-3.8c2.6,0,2.8,2.6,2.8,2.6v11.2h4.3V62.5c0-0.1,0.5-3.6,3.2-3.6c2.3,0,2.6,2.1,2.6,2.8v10.9h4.3V60.4
			C56.9,60.4,57.1,55.5,51.9,55.5z"/>
		<path class="st0" d="M119.7,55.5c-1.4,0-2.9,1.8-3.7,3v-2.6h-4.3v16.9h4.3v-9.4c0-0.1,1-4.1,3.3-4c0,0,1.2,0.3,1.9,0.9
			c0.1-0.2,1.6-3.5,1.6-3.5S121.8,55.5,119.7,55.5z"/>
		<rect x="142.8" y="49.4" class="st0" width="4.3" height="4.1"/>
		<path class="st0" d="M135.6,63.2c0,0-6.1-1.6-7-2s-0.9-1.3-0.4-1.8c0.5-0.5,1.4-0.8,2.6-0.8s2.7,0.5,3.4,2.2l4-0.9
			c0,0-0.4-4.4-7.1-4.4c-6.7,0-7.3,4.4-7.3,5.3c0,0.9,0.3,3.6,4,4.7c3.7,1.1,6.7,1,6.7,2.7s-2.6,1.8-3.2,1.8s-2.9-0.2-3.8-2.6
			l-4.3,0.7c0,0,1.4,5.1,8.1,5.1c6.6,0,7.7-4.3,7.7-5.5C138.9,66.6,138.1,63.8,135.6,63.2z"/>
		<path class="st0" d="M159.1,69.8c-2,0-3.6-2.4-3.6-5.3c0-2.9,1.6-5.3,3.6-5.3c1.4,0,2.6,1.1,3.2,2.8c1.1-0.2,3.3-0.7,4.4-1
			c-1.2-3.3-4.2-5.6-7.6-5.6c-4.6,0-8.3,4.1-8.3,9c0,5,3.7,9,8.3,9c3.7,0,6.8-2.6,7.8-6.2l-4.5-0.7
			C161.8,68.4,160.6,69.8,159.1,69.8z"/>
		<path class="st0" d="M180.1,55.5c-2.9,0-4.7,1.4-5.7,2.7v-8.7h-4.3v23.3h4.3V63c0-0.1,0.3-4,3.8-4c2.2,0,2.7,1.5,2.9,2.6v11.3h4.3
			V61.1C185.4,61.1,185.6,55.5,180.1,55.5z"/>
		<path class="st0" d="M222.8,55.9c-4.5,0-8.1,4.1-8.1,9.1c0,5,3.6,9.1,8.1,9.1c4.5,0,8.1-4.1,8.1-9.1
			C230.9,60,227.3,55.9,222.8,55.9z M222.8,71.6c-2.9,0-5.2-2.9-5.2-6.6c0-3.6,2.3-6.6,5.2-6.6c2.9,0,5.2,2.9,5.2,6.6
			C228,68.6,225.6,71.6,222.8,71.6z"/>
		<path class="st0" d="M205.8,71.6c-2.8,0-5.1-2.9-5.1-6.6c0-3.6,2.3-6.6,5.1-6.6c2,0,3.7,1.5,4.5,3.6l2.7-0.7
			c-1.2-3.2-4-5.4-7.2-5.4c-4.4,0-7.9,4.1-7.9,9.1c0,5,3.5,9.1,7.9,9.1c3.4,0,6.3-2.5,7.4-6.1l-2.8-0.5
			C209.7,69.9,207.9,71.6,205.8,71.6z"/>
		<path class="st0" d="M253,55.9c-4.7,0-5.9,3.3-5.9,3.3s-0.8-3.3-4.5-3.3c-2.6,0-4.5,1.6-5.4,2.7v-2.1h-2.8v17.2h2.8V62.4
			c0,0,1.2-4,4.3-4c3,0,3.3,1.9,3.3,3v12.3h2.8V61.4c0,0,1.4-3,4.2-3c2.8,0,3.2,2.1,3.2,3.2v12.1h2.8V60.5
			C257.9,60.5,257.7,55.9,253,55.9z"/>
	</g>
	<path class="st0" d="M208.2,0v33.8l3.8-6.6l0.9-1.6l4.6-8c0,0,1.9-3.7,5.8-6.7c0.5-0.4,1-0.8,1.6-1.1c2.4-1.5,5.3-2.6,8.8-2.6h10.4
		c5.2,0,8.5,0,8.5,0l1.8,9.1h-20.2c0,0-1-0.2-2.6,0.8c-1.6,1-3.8,3.1-6.4,7.8l-1.2,2.2l-0.7,1.3l-0.9,1.7L214.6,44h23.3l-1.8-10.8
		h9.3l0.4,1.8l2.2,8.9h8.4V0H208.2z M240.2,20.3c2.8,0,5,2.1,5,4.6s-2.2,4.6-5,4.6c-2.8,0-5-2.1-5-4.6S237.4,20.3,240.2,20.3z"/>
	<path class="st1" d="M220.6,6.1l4.4,3.7c-0.6,0.3-1.1,0.7-1.6,1.1l-4.5-3.8c-4.9,2.9-8.5,6.1-10.7,8.2v-3.7
		c4-3.6,10.6-8.5,19.3-11.6h9.9l0,0.2C230.9,1.2,225.2,3.5,220.6,6.1z"/>
	<path class="st1" d="M212.9,25.6l-0.9,1.6c-1.6-0.6-2.8-1.1-3.8-1.6v-2.1C209.3,24.1,210.8,24.8,212.9,25.6z"/>
	<path class="st1" d="M246.8,31.3c3,0.2,6.2,0.3,9.6,0.3v1.9c-3.6-0.1-7-0.2-10.2-0.3c-0.2,0.7-0.3,1.4-0.4,1.9l-0.4-1.8h-1.9
		c0-0.1,0-0.2,0.1-0.2c-7.2-0.5-13.2-1.3-18.1-2.2c-1.4,5.2-1.8,9.8-1.7,13.2h-2.7c-0.1-4.5,0.6-9.2,1.8-13.7
		c-0.2,0-0.5-0.1-0.7-0.1l0.9-1.7c0.1,0,0.2,0,0.3,0.1c0.1-0.5,0.3-0.9,0.5-1.4l1.2-2.2c2.5-4.6,4.8-6.8,6.4-7.8
		c-2.5,4.1-4.2,8.2-5.4,11.9c4.9,0.9,10.8,1.6,18,2.1c1.1-3.6,3.4-8.3,7.9-12.2c-3.3-0.7-7.6-1.9-9.9-2.6h6.9c1.7,0.4,3.5,0.8,4.9,1
		c0.8-0.6,1.7-1.2,2.6-1.7v3.1C250.9,22.5,248.2,27.4,246.8,31.3z"/>
	<path class="st1" d="M256.5,1.8v1.9c-4.1,0.2-7.6,1-10.4,2.4c-0.7,0.3-1.4,0.7-2,1.1h-2.9C242.6,5.6,246.9,2.3,256.5,1.8z"/>
</g>
</svg>
