<?xml version="1.0" encoding="utf-8"?>
<!-- Generator: Adobe Illustrator 25.4.1, SVG Export Plug-In . SVG Version: 6.00 Build 0)  -->
<svg version="1.1" id="Layer_2_00000159471598350358213750000014612203606435250611_"
	 xmlns="http://www.w3.org/2000/svg" xmlns:xlink="http://www.w3.org/1999/xlink" x="0px" y="0px" viewBox="0 0 470.7 80"
	 style="enable-background:new 0 0 470.7 80;" xml:space="preserve">
<style type="text/css">
	.st0{fill:#7E1D2E;}
	.st1{fill:#29812F;}
</style>
<g>
	<g id="_x23_7e1d2eff">
		<path id="path6" class="st0" d="M52.7,0.2c3.4-0.6,8.1,0,9.3,3.9c0.7-1.3,1.6-2.6,3-3.2c2-1,4.3-0.8,6.5-0.6
			c-2.1,1.8-3,4.5-3.6,7.2c-1.1,4.8-1.4,9.7-2.1,14.6c-0.2,1.1-0.4,2.2-0.9,3.1c-0.5,0.6-1.3,0.9-2,1.3c0,5.4,0,10.7,0,16.1
			c0.7,0.6,1.4,1.2,2,1.8c1.7-8.1,3.5-16.1,5.8-24.1c1.1-4.6,2.6-9.1,4.3-13.5c0.7-1.9,2.4-3.6,4.5-3.8c3.8-0.5,7.3,1.5,10.3,3.4
			C88.5,6.7,87,7.1,86,8c-1.6,1.3-2.6,3.1-3.5,5c-1.8,3.7-3.5,7.5-5.2,11.3c-0.7,1.3-1.4,2.9-2.8,3.5c-1.4,0-2.7-0.6-4.1-0.9
			c-1.5,6.2-3,12.4-4.2,18.7c0.1,1,0.5,2.4,1.6,2.6c6.7-12,13.4-24.2,22.4-34.6c1.4-1.8,3.8-2.8,6.1-2.2c3.8,0.8,6.5,4,8.8,7
			c-2.9-0.3-5.8,0.6-8,2.5c-3.6,3.1-6.7,6.7-10.2,9.8c-1,0.7-2,1.6-3.3,1.6c-1.2-0.3-2.2-1.1-3.3-1.6c-0.6-0.4-0.8,0.5-1.1,0.8
			C75.4,37.5,72,43.8,68.5,50c0.5,1.1,1.1,2.1,1.6,3.2C77.4,45,84.9,37,93.6,30.3c2.7-2.1,5.6-4,8.6-5.6c3.1-1.7,7.2-1,9.6,1.5
			c2,2.2,3.2,5,4.2,7.8c-2.6-1.1-5.5-1.6-8.2-0.7c-4.6,1.4-8.7,4-13.1,5.7c-1,0.3-2.2,0.7-3.3,0.2c-1.1-0.7-1.9-1.7-2.9-2.6
			c-5.3,4.7-10.2,9.9-14.9,15.1c-0.8,1-1.8,1.8-2.5,2.9c0,1.4,0.9,2.6,1.5,3.9c10.3-7.8,21-15.6,33.6-19.2c3.6-0.9,7.6-1.7,11,0.2
			c2.2,1.2,3.4,3.5,3.9,5.8c0.5,1.9,1,3.8,1.2,5.7c-4.4-3.7-10.4-3.4-15.7-2.5c-2.9,0.3-6.1,1.4-8.9,0.3c-1-1.1-1.5-2.4-2.2-3.6
			c-8,4-15.2,9.3-22.2,14.8c0.5,1.4,1.1,2.9,1.7,4.2c10.7-5.6,22.1-10.9,34.4-11.5c4.3,0,9.2,0.4,12.4,3.6c3,3.2,2.5,8,2,12
			c-1-1.4-2.1-2.9-3.6-3.7c-4.4-2.5-9.5-2.9-14.4-3.4c-1.5-0.3-3.2-0.3-4.5-1.3c-0.9-1.3-0.9-3-1.5-4.4c-8.5,2.1-16.5,5.9-24.2,10.1
			c0.2,1.1,0.7,2.3,0.5,3.5c-0.8,1.4-2.1,2.5-3.1,3.6c-2.8,2.7-5.7,5.5-9.4,7.1c-2.3,0.8-4.5-0.9-6.3-2.1c-3.1-2.4-5.9-5.1-8.4-8
			c-1-1.2-0.1-2.8,0.1-4.1c-7.8-4.1-15.8-8.1-24.4-10c-0.4,1.8-0.4,4.7-2.8,5c-4.9,1.1-10,0.8-14.7,2.6C4.3,64,2,65.8,0.6,68.1
			c-0.8-2.8-0.6-5.8,0.1-8.6c0.9-3.2,3.9-5.4,7-6.1c5.5-1.4,11.2-0.7,16.7,0.6c8.8,2,17,6,25,10.1c0.6-1.4,1.1-2.8,1.7-4.2
			C44,54.4,36.7,49,28.7,45c-0.7,1.2-1.2,2.6-2.2,3.6c-1.7,0.8-3.7,0.5-5.5,0.3c-4.3-0.6-8.8-1.5-13.2-0.7c-2.2,0.4-4.2,1.4-6,2.8
			c0.4-2.7,1-5.3,1.9-7.8c1-2.6,3.6-4.4,6.3-4.8c3.3-0.5,6.6,0.5,9.8,1.4c11.8,3.8,22,11.1,31.7,18.6c0.6-1.2,1.2-2.3,1.6-3.6
			c0-0.5-0.5-0.9-0.8-1.3c-5.3-5.9-10.7-11.7-16.6-17c-1.5,1.2-2.8,3.4-5.1,2.7c-5.3-1.5-9.8-5-15.2-6.2c-2.5-0.6-5,0-7.3,0.9
			c0.9-2.5,2-5,3.6-7.1c2.1-2.9,6.3-3.9,9.6-2.5c2.2,1,4.2,2.4,6.2,3.7c10,7.1,18.4,16,26.5,25.1c0.6-1,1.1-2.1,1.6-3.2
			c-3.7-6.6-7.2-13.3-11.3-19.7c-1.7,0.7-3.5,2.7-5.3,1.4c-2.7-1.6-4.7-4.2-7-6.3c-2.6-2.4-5-5.5-8.5-6.7c-1.4-0.5-2.9-0.5-4.4-0.4
			c2.6-3.2,5.7-7.1,10.2-7.1c2.8-0.1,4.6,2.2,6.2,4.1c8.3,10.1,14.7,21.7,21,33.1c0.6-0.8,1.3-1.5,1.5-2.5c-1.2-6.4-2.8-12.7-4.2-19
			c-1.4,0.2-2.7,0.8-4,0.8c-1.3-0.3-1.9-1.8-2.5-2.8c-2.2-4.5-4.1-9.1-6.4-13.6c-1.3-2.5-3.5-4.5-6.3-4.8c2.7-2,6-3.6,9.4-3.5
			c2.3,0,4.3,1.6,5.2,3.6c1.8,4.3,3.2,8.8,4.3,13.4c2.2,8,4.1,16.2,5.8,24.3c0.7-0.6,1.4-1.1,2-1.9c0.1-5.3,0-10.7,0.1-16
			c-0.8-0.5-1.9-0.8-2.3-1.8c-0.4-0.9-0.5-1.8-0.7-2.8c-0.7-4.8-1-9.7-2.1-14.4C55.7,4.7,54.7,2,52.7,0.2z"/>
	</g>
	<g id="_x23_29812fff">
		<path id="path9" class="st1" d="M307.5,35c2-0.1,3.9-0.1,5.9,0c-2,10.2-4.5,20.3-6.3,30.5c-1.8,0.1-3.6,0.1-5.4,0
			c0.1-1.2,0.3-2.3,0.5-3.4c-1.6,1.9-3.7,3.6-6.2,3.9c-2,0.2-4.1,0.1-5.7-1.3c-2-1.5-2.6-4.3-2.5-6.7c0.2-4.1,1.5-8.4,4.5-11.3
			c2.5-2.4,6.2-3.6,9.5-2.4c1.4,0.5,2.4,1.7,3.1,3C305.7,43.2,306.7,39.1,307.5,35 M298.9,48c-1.6,0.6-2.8,2-3.5,3.6
			c-1,2.2-1.6,4.7-1.4,7.2c0.1,1.3,0.8,2.7,2.2,3.1c1.2,0.2,2.6,0.2,3.6-0.6c2-1.5,3-3.9,3.6-6.2c0.4-1.9,0.7-4.1-0.3-6
			C302.3,47.7,300.4,47.6,298.9,48z"/>
		<path id="path11" class="st1" d="M189.8,40.3c0.2-1.6,0.5-3.2,0.9-4.7c2,0,3.9,0,5.9,0c-0.2,1.5-0.5,3-0.8,4.5
			C193.7,40.4,191.8,40.3,189.8,40.3z"/>
		<path id="path13" class="st1" d="M169.1,37.3c2.7,0,5.5,0,8.2,0c1.6,9.4,3.2,18.8,4.7,28.2c-2.1,0.1-4.3,0.1-6.4,0
			c-0.2-2.3-0.6-4.6-0.9-6.9c-4-0.1-8-0.1-12,0c-1.3,2.3-2.6,4.6-3.9,6.9c-2.1,0.2-4.2,0.2-6.4,0C158,56,163.7,46.7,169.1,37.3
			 M169.8,46c-1.5,2.7-3.3,5.3-4.5,8.2c3,0,5.9,0,8.9,0c-0.3-4.2-1-8.4-1.7-12.5C171.3,43,170.6,44.5,169.8,46z"/>
		<path id="path15" class="st1" d="M228.8,37.3c3.1-0.1,6.2,0,9.4,0c0.9,7.1,1.7,14.2,2.7,21.3c4.1-7,7.8-14.2,11.8-21.3
			c3.1,0,6.2,0,9.2,0c-1.8,9.4-4,18.8-5.9,28.2c-1.9,0.1-3.8,0.1-5.7,0c1.5-7.9,3.5-15.7,4.9-23.6c-4.5,7.7-8.7,15.7-13.1,23.5
			c-1.8,0.5-3.7,0.2-5.5,0.1c-1.1-7.8-1.9-15.7-3.1-23.6c-2,7.8-3.4,15.7-5.1,23.6c-1.8,0.1-3.7,0.1-5.5,0
			C224.7,56.1,226.7,46.7,228.8,37.3z"/>
		<path id="path17" class="st1" d="M208.3,44.5c1.4-0.8,3-0.7,4.6-0.7c-0.3,1.7-0.7,3.4-1.1,5.1c-1.7,0.1-3.6,0-5.1,1.1
			c-1.8,1.4-3,3.7-3.5,5.9c-0.7,3.2-1.4,6.4-2,9.5c-2,0.2-3.9,0.1-5.9,0c1.3-7.1,3.1-14.1,4.4-21.2c1.8,0,3.7,0,5.5,0
			c-0.2,1.3-0.5,2.6-0.7,3.9C205.5,46.8,206.7,45.3,208.3,44.5z"/>
		<path id="path19" class="st1" d="M269.7,46.3c4.8-3,10.9-3,16.3-1.7c-1.2,7-3.5,13.7-3.9,20.8c-2,0.1-4,0.1-5.9,0
			c0.1-1.6,0.4-3.2,0.7-4.9c-1.3,1.9-2.8,3.9-5,4.7c-2.5,0.9-5.5,0.9-7.6-1c-1.5-1.3-1.9-3.3-2-5.1C262.1,54,265.2,49,269.7,46.3
			 M268.6,57.1c-0.1,1.6-0.3,3.8,1.4,4.7c1.7,0.6,3.6-0.2,4.8-1.5c3.1-3.3,3.7-8,4.7-12.3C274,46.7,269.2,52,268.6,57.1z"/>
		<path id="path21" class="st1" d="M319.9,46.7c4.9-3.4,11.3-3.6,16.9-2c-1.4,6.9-3.5,13.7-4,20.7c-2,0.1-4,0.1-6,0
			c0.2-1.6,0.5-3.2,0.7-4.8c-1.3,2.1-3.1,4.2-5.6,4.9c-2.2,0.6-4.7,0.6-6.6-0.8c-1.7-1.3-2.4-3.5-2.4-5.5
			C312.9,54.3,315.7,49.4,319.9,46.7 M319.5,60.4c0.3,1.2,1.6,1.7,2.8,1.6c2.1,0,3.5-1.8,4.6-3.4c1.9-3.3,2.8-7,3.3-10.8
			C323.5,46.8,318.1,54.2,319.5,60.4z"/>
		<path id="path23" class="st1" d="M346.1,46.2c4.8-2.9,10.7-2.8,15.9-1.5c-0.8,4.2-1.9,8.4-2.8,12.6c-0.9,4-1.6,8.2-3.5,11.9
			c-1.4,2.9-4.3,4.9-7.4,5.4c-4,0.7-8.3,0.6-12.2-0.7c0.3-1.4,0.7-2.7,1.1-4c3.5,1.2,7.8,2.1,11.2-0.1c2.8-1.8,3.3-5.3,4.1-8.3
			c-1.4,1.8-3.3,3.5-5.7,3.7c-2.2,0.2-4.7,0.3-6.5-1.3c-2-1.7-2.2-4.5-1.9-6.9C339,52.5,342.1,48.5,346.1,46.2 M344.6,57.6
			c0,1.4-0.3,3.3,1.1,4.1c1.9,0.8,4.1-0.1,5.4-1.6c2.9-3.3,3.4-7.9,4.5-12.1C349.9,46.7,344.9,52.2,344.6,57.6z"/>
		<path id="path25" class="st1" d="M368.1,48.7c3.1-3,7.3-4.7,11.5-4.8c2.6-0.1,5.2,0.3,7.8,0.8c-1.2,6.9-3.5,13.7-3.9,20.8
			c-2,0.1-4,0.2-6,0c0.2-1.6,0.5-3.2,0.8-4.8c-1.4,2.2-3.3,4.4-5.9,5c-2.2,0.4-4.7,0.4-6.5-1c-1.6-1.3-2.2-3.4-2.3-5.3
			C363.6,55.4,365.2,51.4,368.1,48.7 M369.9,58.9c-0.1,1.4,0.7,3,2.2,3.1c2.1,0.4,3.9-1.3,5-2.9c2.2-3.3,3-7.3,3.7-11.2
			C374.7,46.9,369.5,53.1,369.9,58.9z"/>
		<path id="path27" class="st1" d="M398.1,44c3-0.4,6.2-0.2,9.1,0.8c-0.4,1.2-0.8,2.4-1.2,3.6c-2.6-0.9-5.6-1.6-8.2-0.5
			c-1.3,0.5-2,2.5-0.7,3.4c2.3,1.7,5.4,2.4,7.4,4.7c1,1.1,1,2.7,0.8,4.1c-0.4,2.5-2.6,4.4-5,5.1c-4,1.3-8.3,1.1-12.2-0.2
			c0.3-1.3,0.6-2.6,1.1-3.9c2.9,1.3,6.3,2,9.3,0.5c1.2-0.7,1.8-2.7,0.5-3.5c-2.3-1.7-5.4-2.4-7.3-4.6c-1.5-2-1-5.1,0.8-6.7
			C393.8,45.1,396,44.4,398.1,44z"/>
		<path id="path29" class="st1" d="M412.7,47.5c4-3.8,10.2-4.5,15.3-2.8c-0.2,1.3-0.5,2.6-0.7,3.9c-2.3-0.7-4.8-1.2-7.1-0.3
			c-3.2,1.3-5.3,4.6-5.5,8c-0.3,2.2,0.8,4.7,3,5.5c2.3,0.9,4.7,0,6.9-0.5c-0.2,1.3-0.3,2.6-0.7,3.8c-0.7,0.6-1.7,0.6-2.6,0.8
			c-3.3,0.3-6.9,0.6-9.7-1.5c-2.1-1.3-3.1-3.9-3.1-6.3C408.5,54.1,409.8,50.1,412.7,47.5z"/>
		<path id="path31" class="st1" d="M435.2,46.4c4.9-3.1,11-3.1,16.5-1.7c-1.2,7-3.5,13.7-3.9,20.8c-2,0.1-4,0.1-6,0
			c0.2-1.5,0.4-2.9,0.5-4.4c-1.4,2-3.1,4-5.6,4.6c-2.3,0.6-5.1,0.4-7-1.3c-1.7-1.6-2-4.1-1.8-6.3C428.2,53.2,431.2,48.9,435.2,46.4
			 M441,48.2c-3.9,1.4-6.4,5.4-6.9,9.4c-0.1,1.5-0.1,3.3,1.3,4.2c1.8,0.6,3.8-0.1,5-1.6c2.9-3.4,3.8-8,4.5-12.3
			C443.7,47.8,442.3,47.7,441,48.2z"/>
		<path id="path33" class="st1" d="M466.8,44.2c1.3-0.5,2.6-0.3,3.9-0.3c-0.4,1.8-0.9,3.5-1.3,5.2c-1.6,0-3.4-0.2-4.8,0.8
			c-2,1.4-3.1,3.7-3.7,6.1c-0.7,3.1-1.3,6.3-2.1,9.5c-1.9,0.1-3.9,0.1-5.8,0c1.3-7.1,3.1-14.1,4.3-21.2c1.8-0.1,3.6-0.1,5.5,0
			c-0.2,1.2-0.3,2.3-0.4,3.5C463.7,46.4,464.9,44.8,466.8,44.2z"/>
		<path id="path35" class="st1" d="M188.9,44.3c1.9,0,3.9,0,5.8,0c-1.3,7.1-3,14.1-4.4,21.2c-2,0.1-3.9,0.1-5.9,0
			C185.9,58.4,187.4,51.3,188.9,44.3z"/>
	</g>
</g>
</svg>
