<?xml version="1.0" encoding="utf-8"?>
<!-- Generator: Adobe Illustrator 25.4.1, SVG Export Plug-In . SVG Version: 6.00 Build 0)  -->
<svg version="1.1" id="Layer_1" xmlns="http://www.w3.org/2000/svg" xmlns:xlink="http://www.w3.org/1999/xlink" x="0px" y="0px"
	 viewBox="0 0 102.29 80" style="enable-background:new 0 0 102.29 80;" xml:space="preserve">
<style type="text/css">
	.st0{fill:#007E5E;}
</style>
<path class="st0" d="M54.11,65.23c-1.11-0.55,0-2.13-0.16-3.32c0.16,0,0.16-0.71,0.47-0.16c0,0.16,0,0.16-0.16,0.32
	c0,0.16,0,0.24,0.16,0.32c0.16,0.24,0.47,0.24,0.47,0.32c0,0.55,0.16,0.71,0,1.03C54.74,64.36,54.26,65.39,54.11,65.23 M46.84,16.73
	c0.16,0,0.16,0.16,0.16,0.32h1.26c0-0.16,0-0.32,0.16-0.32s0.32,0.32,0.32,0.32c0.47-0.32,1.11,0,1.42,0.39c-0.95,0.71-2.05,0-3,0
	c-0.79,0-1.74,0.16-2.53-0.39c1.11-0.87,2.37-0.87,3.63-0.87c1.42,0,2.69-0.32,4.11,0C50.63,17.28,48.73,16.18,46.84,16.73
	 M51.58,49.04c-0.16,0.16-0.24,0.32-0.47,0.55c-0.16,0-0.32,0-0.32-0.16c0-0.55,0-1.18,0.47-1.18h0.08l-0.08-0.16l0.16-0.16v0.32
	C51.82,48.17,51.97,48.64,51.58,49.04 M50.79,53.07c-0.16-0.16-0.32-0.16-0.32-0.32c0.32-0.87-0.32-1.9,0.63-2.45
	C51.42,51.17,51.26,52.2,50.79,53.07 M50.16,60.1c-0.32-1.26-0.71-2.92,0.16-3.87c0.16-0.16,0.47,0,0.47,0.16
	C50.63,57.65,50.79,59.07,50.16,60.1 M49.21,40.11c0-0.32,0.63-0.55,0.79-0.16c0.16,0.32,0,1.03-0.32,1.03
	C49.37,41.14,49.21,40.51,49.21,40.11 M47.79,35.21h0.32c0,0.16,0.63,0.55,0.16,0.55c-0.16,0-0.47,0.16-0.63-0.16
	C47.63,35.37,47.63,35.21,47.79,35.21 M49.52,29.21c0,0.16,0.63,0.39,0.16,0.55c-0.47,0-0.95-0.16-1.26-0.32
	C48.73,29.05,49.21,29.21,49.52,29.21 M49.37,23.6c-0.32-0.16-0.63-0.87-0.16-1.26c0.16,0,0.32,0,0.79,0.16
	c0.47,0.24,0.79,0,0.95,0.55c0.16,0.32-0.16,0.32-0.32,0.55C50.16,23.76,49.68,23.76,49.37,23.6 M48.26,30.63
	c-0.16,0-0.16-0.24-0.16-0.39c0.47-0.71,1.42-0.32,2.05-0.32c0.16,0,0.16,0.16,0.32,0.16C49.84,30.79,49.05,30.63,48.26,30.63
	 M50,34.5c-0.16-0.32-0.79-0.47-0.63-1.03c0.16-0.16,0.32,0,0.32,0.24c0-0.24,0.16-0.24,0.32-0.24c0.32,0.24,0.47,0.55,0.32,0.87
	C50.31,34.35,50.16,34.5,50,34.5 M50.31,33.08c-0.32,0.16-0.63,0.32-0.95,0C49.68,32.77,50,32.77,50.31,33.08 M48.89,36.4
	c0,0.16,0,0.32-0.16,0.32c-0.32,0-0.79,0.16-0.95-0.16c0-0.32,0.47-0.32,0.79-0.32C48.73,36.24,48.73,36.4,48.89,36.4 M48.73,33.24
	h-0.32c0-0.16-0.63-0.32-0.16-0.55c-0.32-0.32-0.32-0.87,0-1.03c0.32,0,0.63-0.16,0.95,0.16c0.16,0.24,0.63,0.32,0.63,0.55
	c-0.32,0.55-1.11-0.24-1.58,0.32c0.32,0,0.79-0.16,1.11,0.16c0,0.16,0,0.32-0.16,0.32h-0.47V33.24z M49.05,35.53
	c0.16-0.16,0.47-0.16,0.63-0.16c0,0.16,0.55,0.32,0.16,0.47c0.16,0.08,0.24,0.16,0.24,0.39c0,0.32-0.47,0.55-0.79,0.55
	c-0.32,0-0.47-0.71,0-0.87c0.08-0.08,0.16-0.08,0.16-0.08C49.37,35.77,49.13,35.69,49.05,35.53 M48.26,22.89h0.32l-0.16,0.16
	L48.26,22.89z M48.89,27.08c0,0.39-0.79,0.55-1.26,0.39c0.16-0.16,0.32-0.55,0.63-0.55C48.58,26.92,49.05,26.76,48.89,27.08
	 M47.63,37.43c0-0.32,0.71-0.63,0.95-0.32c0.16,0.24,0,0.55-0.16,0.55h0.95c0.16,0,1.11,0.24,0.63,0.39
	c-0.47,0.32-1.42-0.16-1.9,0.32c0-0.32-0.47,0-0.47-0.32c0-0.16,0-0.32,0.08-0.32C47.71,37.66,47.63,37.58,47.63,37.43 M47.15,42.01
	c-0.16-0.16,0-0.32,0.16-0.32c0.32,0,0.79-0.16,1.11,0.16c0,0,0.16-0.16,0.32-0.16c0.16,0.16,0.32,0.32,0.47,0.55
	C48.73,42.8,47.63,42.56,47.15,42.01 M47.63,43.43c0.16-0.16,0.16-0.55,0.47-0.32c0.16,0,0.32,0.24,0.16,0.32
	c-0.16,0.16-0.16,0.32-0.32,0.32C47.79,43.82,47.79,43.67,47.63,43.43 M48.26,51.88c-0.47-1.18-0.16-2.61-0.47-4.03
	c0-0.32,0.47-0.16,0.63-0.16c0.32,0,0.63,0.32,0.63,0.55C48.89,49.43,49.21,51.01,48.26,51.88 M46.52,30.79
	c0-0.16-0.47-0.16-0.16-0.55c0.32-0.32,0.79-0.16,0.79,0.16C47.15,30.63,46.84,30.95,46.52,30.79 M46.52,33.08
	c-0.32,0.16-0.47-0.16-0.63-0.39c0-0.16,0.32-0.16,0.47-0.16s0.16,0.16,0.32,0.16C46.68,32.92,46.68,33.08,46.52,33.08 M45.42,56.3
	c-0.16,0-0.16-0.16-0.16-0.32c0-0.24,0.16-0.24,0.16-0.32C45.73,55.75,45.73,56.07,45.42,56.3 M44.94,36.4
	c-0.32,0.16-0.95-0.71-0.32-1.03c0,0,0.24,0,0.32,0.16C45.1,35.93,45.26,36.4,44.94,36.4 M44.31,51.72
	c-0.32-0.32-0.63-0.87-0.63-1.42c0-0.16,0.32-0.16,0.47-0.16s0.08,0.16,0.16,0.32C44.47,50.85,44.63,51.33,44.31,51.72 M43.52,49.43
	c0-0.32,0.32-0.32,0.63,0C43.84,49.59,43.52,49.75,43.52,49.43 M42.89,45.72l0.16,0.16c0.79,0.55,0.95,1.74,0.16,1.74
	C42.89,47.62,42.42,46.43,42.89,45.72 M42.42,33.79c0.32-0.16,0.87,0.16,0.95,0.32c0.16,0.47-0.47,0-0.79,0.16
	C42.57,34.19,41.94,33.95,42.42,33.79 M42.26,59.78c-0.16,0.32-0.79,0.55-0.95,0.16c0-0.32,0.16-0.71,0.32-1.03
	c-1.74,0.16-3.32,0-5.06,0.39c-0.95,0.32-2.05,0.63-2.69,0c-0.16-0.16-0.63-0.39-0.16-0.55c1.58-0.55,3.63,0.87,4.58-0.87
	c1.26,0.39,2.53-0.32,3.63,0.39C42.42,58.36,42.42,59.23,42.26,59.78 M42.1,64.12c-0.32,0.71-0.95,0.16-1.42,0.32
	c-0.47,0.16-1.42,0.63-1.42,0c0-0.16,0.08-0.55,0.32-0.55c0.47,0,0.79-0.16,1.11-0.32c0.47,0,0.95-0.39,1.42,0V64.12z M32.62,52.75
	c-0.16-0.39-0.63-0.24-0.79-0.24c-1.42-0.47-2.84,0.24-4.11,0.47c-0.47,0.24-1.42,0.55-1.58,0c-0.16-0.71,0.79-0.32,1.26-0.87
	c0.32-0.16,0.95,0.24,1.26,0c1.58-0.71,3.16-0.71,4.74-0.32c1.58,0.24,3.32,0.24,4.74,1.18c-0.95,0.39-1.74,0.39-2.69,0.39
	c-0.47,0-0.63-0.71-1.11-0.87C33.73,52.59,33.1,52.43,32.62,52.75 M31.36,55.36c-1.11,0.55-2.37,0.32-3.63,0.32
	c-1.9-0.32-3.48,0.55-5.37,1.11c-0.16,0-0.32-0.32-0.32-0.32c0.47-0.71,1.26-0.55,1.9-0.87c0.16-0.16-0.63-0.16-0.63-0.16
	c0.79-0.71,1.74-0.16,2.53-0.32l-0.16-0.32c0-0.32,0.47-0.32,0.63-0.47c0.79-0.16,1.58,0.16,2.37-0.16
	c0.32-0.39,0.63-0.87,1.11-1.03h0.95l0.16,0.32c-0.32,0.55-0.79,0.55-1.26,0.87c0.16,0,0.16,0.16,0.16,0.32c0.32,0,0.63,0,0.95-0.32
	c0.47-0.16,0.63,0.32,0.95,0.71C31.83,55.04,31.52,55.2,31.36,55.36 M26.3,59.38c-0.16,0-0.16,0.32-0.16,0.55
	c-0.63,0.55-1.58,0.39-2.05,0c-0.63-0.32-1.11,0.55-1.74-0.16c1.9-0.71,3.95-0.87,5.84-1.58c0.95-0.39,2.05-0.55,3.16,0
	C29.78,59.07,28.04,59.38,26.3,59.38 M20.46,58.36c-0.24,0-0.24-0.55-0.47-0.87c0-0.55,0.71-0.71,0.95-0.55
	c0.63,0.55,1.11,0.24,1.74,0.24c0.63,0.16,1.42-0.55,2.05-0.71c0.32,0,0.63,0.16,0.95,0.32c0.24,0,0.79-0.32,1.11,0
	C24.88,58.36,22.75,58.04,20.46,58.36 M26.93,45.25c-0.32,0.16-0.47,0.32-0.79,0.32c-0.16,1.42-1.74,0.71-2.53,1.42
	c-0.47,0.16-0.47-0.55-0.79-0.71c0.47-0.32,1.11-0.16,1.74-0.32c0.32,0,0.16-0.55,0.16-0.55c-1.11-0.32-2.21,0.32-3.32,0
	c-0.16-0.16-0.63-0.47-0.32-0.47c2.37-0.55,4.66-0.71,7.11,0v0.32C27.72,45.25,27.25,45.01,26.93,45.25 M23.06,43.43
	c2.92-0.16,6-0.32,9-0.55c-0.79-0.55-1.74,0-2.53-0.16c0,0-0.63-0.39-0.16-0.55c2.21-0.71,4.58-0.24,6.95-0.71
	c0.95-0.16,1.9,0.16,2.21,1.03c0.32,0.71-0.63,0.32-0.79,0.32c-1.58,0.16-3.32-0.55-4.74,0.32c0.95-0.16,1.9-0.16,2.84,0.16
	c0,0,0.63,0.32,0.16,0.32c-1.9,0.32-3.63,0.71-5.37,0.71c-0.79,0.16-1.74-0.16-2.53-0.39c-2.05-0.16-4.27-0.16-6.32-0.16
	C22.04,43.43,22.75,43.43,23.06,43.43 M23.93,39.01c0.32-0.16,0.47,0.16,0.63,0.39c0,0.16,0,0.55-0.16,0.55
	c-0.47,0-0.95,0.16-1.42-0.16C23.3,39.56,23.62,39.24,23.93,39.01 M24.25,34.35c0.47-0.16,0.79,0,1.26,0c0.87,0,1.42-0.32,2.21-0.16
	c0.16,0.16,0.32,0.47,0.63,0.71c-0.32,0.55-0.95,0-1.42,0.16v0.55c-1.11,0.71-2.05-0.32-3-0.87C24.09,34.5,24.09,34.35,24.25,34.35
	 M29.3,32.77l-0.16,0.16c0.79,0.71,1.74-0.55,2.37,0.16c0,0.16-0.39,0-0.47,0.16c-0.63,1.42-2.37,0.87-3.48,0.55
	c-0.47-0.16-1.11-0.16-1.58-0.55C26.93,32.77,28.2,32.21,29.3,32.77 M29.46,27.79v0.32c-0.79,0.32-1.74,0.71-2.69,0.16
	C27.57,27.79,28.51,28.18,29.46,27.79 M33.73,40.66c-0.95,0.55-2.37,0.55-3.48,0.16c0.32-0.71,0.79-0.55,1.26-0.55
	C32.31,40.27,33.1,39.95,33.73,40.66 M34.04,35.69C33.73,36,33.41,36,32.94,36s-0.95-0.16-1.26-0.32
	C32.46,35.37,33.25,35.37,34.04,35.69 M34.44,22.02c1.26-0.32,2.69-0.32,3.95,0c0-0.16,0-0.32,0.16-0.32c0.63,0,1.58-0.55,1.9,0.32
	c0.16,0.55-0.47,0.39-0.63,0.39c-2.53,0.39-5.06,0.39-7.58,0.16C32.78,21.63,33.57,22.18,34.44,22.02 M35.78,18.31
	c0.63-0.16,1.26,0,1.9,0.16c-0.47,0.32-0.95,0-1.42,0.32c0.79,0,1.58-0.55,2.21,0.39c-1.11,0.55-2.37,0.55-3.63,0.16
	c-0.47,0-0.79-0.16-1.26,0.16c-0.16-0.55-0.32-0.71-0.79-0.87C33.73,18.15,34.91,18.63,35.78,18.31 M36.49,14.84h0.63
	c0.16,0,0.16,0.16,0.16,0.32c-0.32,0.32-0.95,0.55-0.95,0C36.25,14.99,36.49,14.84,36.49,14.84 M37.68,14.44
	c0.47,0,0.79,0.16,1.26,0c0.63-0.16,1.11,0,1.58,0.16c-0.47,0.16-0.63,0.55-0.95,0.71c-0.63,0.32-1.42-0.16-2.05-0.47
	C37.52,14.68,37.52,14.44,37.68,14.44 M40.99,15.86c0.16,0,0.16,0.24,0.32,0.24c-0.32,0.32-0.63,0.32-0.79,0
	C40.52,15.86,40.84,15.86,40.99,15.86 M40.84,31.5c-0.32,0-0.16-0.71-0.47-0.87c0.47-0.39,1.03-0.39,1.42-0.24
	c0.32,0.24,0.79,0.24,1.11,0.55C42.42,31.82,41.47,31.19,40.84,31.5 M38.31,36.79c0.63-0.16,1.42-1.18,1.9-0.71
	c0.16,0.16,0.63-0.16,0.79,0c0.32,0.55,0.79,0.32,1.26,0.71c0.16,0.16,0,0.32-0.16,0.32C40.84,37.11,39.57,37.35,38.31,36.79
	 M41.94,56.07c0,0.16,0.24,0.47-0.16,0.71c-0.16,0-0.32-0.16-0.63-0.16c-0.16,0-0.16-0.16-0.32-0.32
	C41.15,56.07,41.63,56.07,41.94,56.07 M39.41,54.65c0.63,0,1.58-0.16,2.29,0c0.24,0.16,0.47,0.87,0.16,1.26
	c-0.95-1.26-2.53-0.55-3.95-0.55c-0.32,0-0.47-0.16-0.63-0.32C37.83,54.49,38.78,54.65,39.41,54.65 M41.63,51.33
	c0.16,0.16,0.24,0.71,0,0.71c-0.63,0.16-1.58,0-1.58-0.55C40.05,50.85,41.23,50.85,41.63,51.33 M39.89,48.88
	c0.47,0.24,1.34,0.16,1.26,0.87c-0.16,0.87-1.26,0.55-1.9,0C39.41,49.43,39.57,48.88,39.89,48.88 M41.31,39.95
	c-0.47,0.16-0.79,0.32-1.26,0C40.52,39.56,40.84,39.56,41.31,39.95 M39.89,39.24c-0.16,0-0.55,0.16-0.63-0.16
	c0-0.16,0-0.32,0.08-0.32c0.16,0,0.24-0.08,0.32,0C39.89,38.93,40.36,39.01,39.89,39.24 M40.36,53.78c-0.47,0.87-1.42-0.24-1.9,0.47
	c-0.32-0.47-0.95,0.16-1.26-0.32C37.99,53.3,39.41,53.62,40.36,53.78 M38.47,49.2c0,0.16,0.63,0.16,0.16,0.55
	c-0.32,0.16-0.79-0.24-0.79,0.16v0.39c-0.63,0.16-1.58,0.55-2.05-0.16C36.57,49.2,37.52,49.43,38.47,49.2 M38.62,43.98
	c-0.47,0.32-0.95,0.71-1.58,0.71c-0.95,0-1.74,0.71-2.69,0.39c0.47-0.87,1.42-0.39,2.05-0.87C36.89,43.67,37.83,43.82,38.62,43.98
	 M35.46,33.24c0.63-0.55,1.58-0.32,2.37,0C37.04,33.95,36.1,33.63,35.46,33.24 M35.78,36.79c-0.47,0.32-0.79,0.71-1.26,0.71h-0.47
	c-0.16,0-0.32-0.16-0.16-0.32C34.44,36.64,35.31,36.24,35.78,36.79 M33.25,32.37c0.32-0.71,1.26-0.32,2.05,0
	c-0.32,0.32-0.63,0.55-0.79,0.87C34.04,33.4,33.1,32.77,33.25,32.37 M39.57,30.79c0,0.16-0.16,0.24-0.32,0.16
	c-0.47-0.32-1.11-0.55-1.42-1.03c0-0.16,0-0.32,0.16-0.32C38.62,29.61,39.41,30.08,39.57,30.79 M37.36,26.05
	c0.32,0.16,0,0.71,0.16,0.87c0.32,0.16,0.87-0.16,1.11,0.32c0.16,0.32-0.32,0.32-0.47,0.55c-0.63-0.32-1.58,0.55-1.9,0
	c-0.47-0.71,0.32-0.16,0.63-0.55c-1.42-0.55-2.84-0.16-4.27-0.55C34.2,26.61,35.78,26.05,37.36,26.05 M32.46,22.89
	c1.26-0.55,2.69-0.16,3.95,0.32c-0.16,0.71-0.79,0.47-1.5,0.47c-0.79,0-1.42,0.24-2.21-0.16c0.32-0.32,0.79-0.16,1.26-0.32
	C33.57,23.05,32.94,23.45,32.46,22.89 M37.52,39.95c-0.16,0-0.47-0.16-0.47-0.32c0-0.32,0.32-0.71,0.63-0.55
	c0.32,0.39,0.63,0.87,0.95,1.42c0,0.16,0,0.32-0.16,0.32c-0.32,0-0.47-0.16-0.63-0.32v-0.32C37.83,39.95,37.68,39.95,37.52,39.95
	 M28.83,46.43c-0.32,0-0.95,0.16-0.95-0.16c0.16-0.87,1.26-0.55,1.9-0.71c0.95-0.32,1.66-0.16,2.84-0.16c0.16,0,0.16,0.16,0.32,0.16
	C31.67,46.27,30.25,45.88,28.83,46.43 M35.46,48.56c-0.95,0.87-2.21,0.71-3,0c0.32-0.32,0.79,0,1.11,0.16
	C34.44,48.88,34.83,47.85,35.46,48.56 M34.44,46.75c-0.87,0.47-1.9,0.24-2.53-0.32c0.32-0.39,0.79,0,1.11,0.16
	c0.63,0.16,1.03-0.47,1.5-0.39c0.87-0.32,1.66-0.55,2.61-0.79c0.47,0,0.79,0.32,1.11,0.71C36.97,46.19,35.78,46.9,34.44,46.75
	 M43.05,22.73c-0.16,0.16-0.32,0.47-0.47,0.47c-0.71,0-1.11,0.47-1.58,0.71c-0.16,0-0.16-0.32-0.47-0.32c-0.95,0-2.05,0.16-3-0.55
	c0.79-0.71,1.74,0,2.69-0.32C40.99,22.34,42.1,22.18,43.05,22.73 M43.84,48.72c-0.16,0-0.16-0.16-0.16-0.39
	c0-0.16,0.16-0.16,0.16-0.32C44.15,48.17,44.15,48.56,43.84,48.72 M44,31.19c0-0.16,0-0.32,0.16-0.32s0.08,0.16,0.32,0.16
	c0.16,0,0.16,0.16,0.32,0.16C44.47,31.5,44.31,31.5,44,31.19 M46.05,28.9c0.16,0.16,0,0.32-0.16,0.32c-0.47,0-0.79,0-1.26-0.32
	l-0.32,0.32c-0.32-0.16-0.63-0.55-0.63-0.87c0-0.39,0.47-0.24,0.79-0.16C45.1,28.34,45.58,28.5,46.05,28.9 M44.79,19.89
	c0-0.16,0.47-0.32,0.47,0C45.26,20.05,44.79,20.05,44.79,19.89 M46.52,27.63c0,0.16-0.16,0.32-0.16,0.32
	c-0.47-0.32-1.42-0.16-1.26-0.87c0-0.32,0.47-0.47,0.95-0.47c0.47,0,0.63,0.32,0.79,0.47c0,0.39-0.47,0.16-0.63,0.16
	C46.37,27.47,46.37,27.47,46.52,27.63 M46.21,13.57c1.42-0.16,2.69-0.16,3.95,0.32c-0.16,0.55-0.63,0.39-0.95,0.39
	c-0.47,0.16-0.95,0.32-1.26,0.16c-0.47-0.32-0.79-0.55-1.26-0.55c0,0.39-0.16,0.55-0.32,0.55c-1.11,0.16-2.21,0.16-3.16-0.32
	C44.15,13.81,45.26,13.73,46.21,13.57 M51.42,12.55h0.32c0.16,0,0.63-0.32,0.63,0c-0.16,0.39-0.63,0.87-1.11,0.39
	C51.26,12.7,51.26,12.55,51.42,12.55 M53.47,12.55c0.16,0,0.16,0.16,0.16,0.39c-0.47,0.55-1.26,1.03-1.9,0.55
	c0.32-0.55,0.79-0.32,1.11-0.71C53,12.55,53.32,12.86,53.47,12.55 M55.69,31.5c0.16,0.16,0,0.32-0.16,0.32h-1.26
	c-0.16,0-0.16-0.16-0.32-0.16C54.26,31.19,55.21,31.19,55.69,31.5 M55.21,25.74c0.47,0,0.95,0,1.26,0.32
	c-0.47,0.32-1.11,0.87-1.74,0.71c-0.16,0-0.16-0.16-0.16-0.32c0.16-0.16,0.16-0.16,0.32-0.32c-0.16,0-0.63,0.16-0.63-0.24
	C54.42,25.5,54.9,25.74,55.21,25.74 M56.63,14.68c0.16,0,0.32-0.16,0.47-0.32c0.16,0,0.32,0.16,0.16,0.32
	c-0.63,0.55-1.74,0.71-2.53,0.39C55.21,14.28,56,14.68,56.63,14.68 M55.84,13.57c0.16,0.24,0.32,0.32,0,0.55
	c-0.32,0-0.79,0.16-0.79-0.24C54.9,13.57,55.61,13.34,55.84,13.57 M57.11,13.26c0.16,0,0.39-0.08,0.47,0.16
	c0.16,0.32,0.79,0,0.95,0.32c-0.47,0.16-1.26,0.47-1.74,0.16C57.11,13.81,56.79,13.41,57.11,13.26 M56.79,39.8l-0.16,0.16h-0.32
	c-0.16-0.16,0-0.32,0.16-0.32C56.63,39.56,56.79,39.56,56.79,39.8 M57.58,36.08c0.16,0.16,0.47,0.16,0.63,0.55
	c0,0.16,0,0.32-0.16,0.32c-0.47,0.16-1.11,0.47-1.26,0C56.63,36.4,57.27,36.08,57.58,36.08 M58.37,26.05c0.32,0,0.79,0,0.63,0.32
	c-0.16,1.03-1.58,0.55-2.21,0.16C57.27,26.45,57.74,26.05,58.37,26.05 M58.37,20.05c1.58,0,3.16-0.55,4.66,0.55
	c0.16,0.16,0,0.32-0.16,0.32c-0.87,0-1.74-0.71-2.61-0.16c-0.95,0.55-2.21,0-3.32,0c-0.16,0-0.16-0.32-0.16-0.55
	C57.27,19.73,57.82,20.05,58.37,20.05 M63.27,24.79c0.63,0.16,1.26,0.32,1.74,0.71c-0.16,0.16-0.16,0.32-0.32,0.32
	c-0.79-0.16-1.74,0.24-2.37-0.55C62.64,25.18,62.79,24.71,63.27,24.79 M65.64,27.63c1.9,0.32,3.63-0.16,5.37,0.32
	c-0.47,0.87-1.26,0-1.9,0.39c-0.32,0.16-0.79,0.55-1.11,0.32c-0.79-0.55-1.74-0.32-2.53-0.71C65.32,27.79,65.48,27.63,65.64,27.63
	 M71.8,30.08c0,0.16,0,0.32-0.16,0.32c-0.95-0.47-1.9,0.55-2.84-0.16c0.63-0.55,1.34-0.55,2.21-0.55
	C71.32,29.76,71.64,29.76,71.8,30.08 M72.9,28.66c-0.16,0-0.32,0-0.32-0.16c0.47-0.32,1.11-0.32,1.58,0
	c-0.16,0.39-0.47,0.16-0.79,0.16c1.26,0.71,2.69-0.55,3.79,0.16c-1.11,0.32-2.21,0.39-3.48,0.71c-0.79,0.16-1.11-0.55-1.74-0.71
	C72.27,28.34,72.59,29.05,72.9,28.66 M74.96,41.69c0,0.16,0,0.32-0.16,0.32c-1.58,0-3.32,0.32-4.9-0.55
	c0.47-0.55,1.26,0.16,1.74-0.55c0.32-0.32,0.87,0.16,1.42,0C73.69,40.82,74.64,40.82,74.96,41.69 M69.19,45.25
	c-0.32,0-0.95,0.16-1.26-0.32c1.42-0.32,2.84-0.32,4.27-0.32c0.47,0,1.11,0,1.58,0.32C72.27,46.11,70.69,45.25,69.19,45.25
	 M66.43,43.82c-0.16-0.32,0.16-0.87,1.11-0.87c0.16,0,0.16,0.16,0.32,0.16l-0.16,0.16c0.63,0.16,1.42,0,2.05,0.71
	c0.16,0.16,0,0.32-0.16,0.32C68.48,44.3,66.9,44.85,66.43,43.82 M65.95,39.01c-0.16-0.16,0-0.32,0.16-0.32c0.16,0,0.24-0.08,0.32,0
	c0.63,0.47,1.58-0.16,2.21,0.47c0,0.16,0,0.32-0.16,0.32C67.69,39.24,66.74,39.8,65.95,39.01 M65.16,37.11
	c-0.79,0.55-1.74,0.71-2.69,0.32c0.47-0.16,0.95-0.16,1.26-0.71C64.22,37.11,64.69,36.79,65.16,37.11 M65.32,30.79
	c0-0.16,0.32-0.16,0.47-0.16v0.32C65.64,30.95,65.32,30.95,65.32,30.79 M67.22,34.19c0.32,0.16,1.11,0.16,0.95,0.47
	c-0.47,1.03-2.05,0-3-0.32C65.8,33.95,66.66,33.87,67.22,34.19 M67.69,30.95c0.79-0.32,1.66-0.63,2.37-0.16
	c0.32,0.16,0.63-0.16,0.95,0.16C70.06,31.5,68.88,31.5,67.69,30.95 M69.59,35.06c0-0.16,0.32-0.16,0.47-0.16
	c0.16,0,1.26,0,0.79,0.55C70.53,35.53,69.9,35.37,69.59,35.06 M69.75,42.56c0-0.16,0.16-0.16,0.32-0.32c0,0.16,0.16,0.16,0.32,0.16
	c0.95,0.16,1.9,0.16,2.69,0.71c-0.63,0.16-0.47,0.32-0.79,0.87c-0.79-0.55-2.05-0.24-2.69-1.11c0-0.16,0.32-0.16,0.47-0.16
	C69.9,42.8,69.75,42.8,69.75,42.56 M67.22,29.05c0.79-0.32,2.21-0.55,2.37,0.32c0.16,0.16-0.63,0.24-0.95,0.32
	c-1.26,0.32-2.53,0.71-3.79,0c0.79-0.16,1.58-0.55,2.53-0.55L67.22,29.05z M59.79,33.4c0.16-0.32,0.47-0.24,0.79-0.16
	c0.63,0.16,1.26-0.32,1.74,0.16C61.69,34.19,59.63,34.82,59.79,33.4 M65.64,46.98c0-0.16-0.16-0.16-0.32-0.16
	c0,0.16,0,0.32-0.16,0.32c-0.47,0-0.79-0.16-1.26-0.32c-1.26-0.16-2.61,0.16-3.71-0.55c0.32-1.42,1.58-0.16,2.61-0.71
	c-1.97-0.87-4.19,1.11-5.77-0.32c-0.16-0.16,0.63-0.16,0.95-0.32c-0.32-0.32-0.63-0.16-0.95-0.16c-0.16,0-0.16-0.16-0.32-0.16
	c0.79-0.87,1.58-1.42,2.53-1.9c0.47-0.32,1.58-0.16,2.21,0.55c-0.63,0.32-1.58-0.16-2.05,0.71c0,0.24,0,0.55,0.16,0.55
	c0.47,0,0.95-0.16,1.42-0.16c0.87,0.16,1.58,0.87,2.53,0.55c0.32-0.16,0.63-0.71,1.11-0.55c0.47,0.16,0.47,0.87,0,1.11h-0.79
	c0.16,1.26,1.74,0.16,2.21,1.26C66.27,46.83,65.8,46.83,65.64,46.98 M66.11,49.43c0.16,0,0.16,0.16,0.32,0.32
	c0,0.16,0,0.39-0.16,0.39c-0.32,0-0.63-0.39-0.95-0.24c-0.79,0.24-1.58-0.16-2.21,0.39c0.63,0.16,1.42-0.16,2.05,0.16
	c-1.42,0.71-3.24,1.26-4.58,0.87c-0.16,0-0.24-0.08-0.32-0.08c0.08,0.08,0.08,0.16,0.16,0.24C59.95,51.8,59.63,52.2,59,52.2
	c-0.16,0-0.16,0.24-0.32,0.24c-0.16,0-0.16-0.24-0.16-0.32c0.32-0.63,0.87-0.71,1.42-0.79c-0.79-0.08-1.58,0.08-2.21-0.55
	c0.79-0.87,1.9-0.87,2.84-0.55c-0.16,0.16-0.16,0.16-0.32,0.32c0.63-0.32,1.58,0.24,1.97-0.55c0.16-0.16-0.63-0.16-0.63-0.55
	c0-0.16,0.47-0.32,0.79-0.32c0.63,0,1.42,0.32,2.05,0.32C65.01,49.59,65.48,49.43,66.11,49.43 M66.9,52.04c0,0.32-0.47,0-0.63,0.32
	c-0.16,0.16-0.32,0-0.32-0.24c0.16-0.16,0.32-0.32,0.63-0.32C66.74,51.88,66.9,52.04,66.9,52.04 M66.9,59.94
	c-0.63-0.16-1.26,0.16-1.74,0c-0.16-0.16-0.47,0-0.47-0.32c0-0.16,0-0.16,0.16-0.32c0.16-0.16,0.24,0.39,0.47,0.16
	c0.47-0.32,1.26-0.16,1.74,0.16C67.22,59.78,67.14,59.94,66.9,59.94 M68.09,64.36c-0.63,0.16-1.11,0.32-1.74,0.16
	c0.32-0.16,0.63-0.71,0.95-0.55C67.53,64.12,67.85,63.97,68.09,64.36 M68.09,56.78c0.47,0,0.95-0.16,1.42,0
	c0.63,0.16,1.42,0,1.9,0.47c0.16,0.16,0,0.32-0.16,0.32c-0.79-0.16-1.58,0.16-2.29-0.16c-0.32,0-0.63,0-0.95-0.32
	C67.69,56.94,67.85,56.78,68.09,56.78 M71.48,48.01c0.47,0.32,0.95,0.55,1.42,0.55c0.16,0,0.32,0.16,0.32,0.32
	c-0.16,0.39-0.47,0.24-0.63,0.24c-0.63-0.32-1.42,0.16-1.9-0.55C71.01,48.33,71.17,47.85,71.48,48.01 M74.17,51.33
	c0.16,0.32-0.47,0.32-0.95,0.32c-0.63,0-1.42,0.16-1.9-0.32C72.27,51.01,73.85,50.3,74.17,51.33 M75.43,55.75
	c-0.95,0.39-2.37,0.87-3-0.16c-0.32-0.39,0.47-0.63,0.63-0.55C73.85,55.36,74.8,54.88,75.43,55.75 M66.11,64.52h-0.95
	c0,0.16,0,0.32-0.16,0.32c-0.63-0.16-1.26,0-1.74-0.32c0.47-1.03,1.42-0.55,2.37-0.55c0.16,0,0.47-0.16,0.63,0.16
	C66.27,64.36,66.27,64.52,66.11,64.52 M62.48,60.33c0-0.16,0-0.39,0.16-0.39s0.16,0,0.32,0c1.11,0.16,2.21,0.16,3.32,0.71
	c-0.16,0.24-0.32,0.55-0.47,0.55c-0.95-0.32-1.74-0.16-2.53-0.55C63.11,60.65,62.64,60.65,62.48,60.33 M60.74,55.91
	c-0.79,0-1.58,0.16-2.37,0c0.32-0.71,1.11-0.32,1.42-0.87c0.47,0.32,1.11-0.16,1.42,0.32C61.37,55.75,60.9,55.75,60.74,55.91
	 M56.32,48.72C56,48.56,55.61,48.09,56,47.85c0.32-0.16,0.79,0,1.11,0c1.11-0.55,2.21-0.55,3.32-0.55c0.16,0,0.16,0.16,0.32,0.32
	c0,0.16,0,0.32-0.16,0.32c-0.95,0.32-1.9-0.32-2.76,0.16C57.42,48.33,56.95,48.72,56.32,48.72 M56.95,57.65
	c0,0.16-0.16,0.08-0.32,0.16c-0.47,0.55-0.79,1.58-1.58,1.03c0.47-0.71,0.95-1.42,1.58-1.74c0.16,0,0.32,0,0.32,0.16V57.65z
	 M54.74,55.04c0.16-0.71,0.95-0.87,1.74-0.71c0.16,0,0.16,0.16,0.16,0.32c-0.16,0.32-0.55,0.47-0.79,0.71
	c-0.47,0.55-0.95,1.58-1.58,1.42C53.63,56.62,54.42,55.75,54.74,55.04 M54.74,51.72c-0.16,0.16-0.32,0.39-0.47,0
	c0-0.32,0-0.87,0.32-1.03C54.9,50.62,55.05,51.33,54.74,51.72 M54.11,39.24v-0.32c0.47,0,1.11-0.55,1.58,0
	C55.21,39.4,54.74,39.4,54.11,39.24 M56.79,60.96c-0.32,0-0.63,0.16-0.79-0.16c0,0.16,0,0.32-0.16,0.32h-1.42
	c-0.16,0-0.16-0.32-0.16-0.55c0.16-0.16,0.47-0.32,0.79-0.32c0.47,0,0.63,0.16,0.95,0.55c0.32-0.24,0.63-0.39,0.95-0.24
	C56.95,60.81,56.79,60.96,56.79,60.96 M19.27,45.88c0,0.16,0,0.32-0.16,0.32c-1.26-0.16-2.37,0.55-3.63,0
	c0.32-0.16,0.47-0.32,0.79-0.16v-0.39c-0.63,0.16-1.26,0-1.9,0c0,0.39-0.16,0.39-0.32,0.55c-0.32,0.16-0.32-0.16-0.47-0.32
	c0,0.16,0,0.32-0.16,0.32c-0.16-0.32-0.32,0.16-0.47,0c-0.16-0.16-0.32-0.16-0.16-0.32c1.11-0.71,2.21-1.03,3.48-0.87
	c0.16,0,0.16,0.16,0.16,0.32c1.11,0,2.05-0.47,3.16,0c-0.16,0.16-0.32,0.16-0.47,0.16C18.88,45.72,19.11,45.72,19.27,45.88
	 M19.27,49.59c-0.32,0-0.95,0.16-0.95-0.16c-0.16-0.32,0.63-0.55,0.95-0.16V49.59z M17.93,50.46c-0.32,0.87-1.58,0.24-2.37-0.16
	c0.16-0.39,0.63-0.55,0.79-0.39C16.98,49.91,18.17,49.99,17.93,50.46 M9.87,45.4c-0.32-0.87,1.74-0.87,2.69-0.87
	c0.16,0,0.16,0.16,0.32,0.16C12.16,45.56,10.43,46.43,9.87,45.4 M79.54,34.5c0.16,0,0.16,0.63,0.47,0.39c0.63-0.55,1.26,0,1.9,0.16
	c0,0.16,0.63,0.32,0.16,0.55c-0.79,0.16-1.58,0.16-2.37,0C79.38,35.37,78.91,34.66,79.54,34.5 M83.01,48.17
	c1.11,0.16,2.37,0,3.48,0.71c0.16,0.24,0,0.39-0.16,0.39c-0.63,0-1.18,0.16-1.74-0.16c-0.63-0.32-1.26-0.24-1.9-0.55
	C82.86,48.33,82.86,48.17,83.01,48.17 M76.54,61.12c0.32,0.24,0.79,0.24,1.11,0.55c-0.47,0.16-1.26,0.71-1.74,0.16
	c-0.16-0.32,0.63,0,0.47-0.32c-0.16-0.16-0.63,0.16-0.63-0.16C75.91,60.96,76.3,61.04,76.54,61.12 M70.69,77.87
	c-3.32-0.16-6-0.63-6.87-0.87c-1.97-0.55-3.87-0.95-5.61-2.13c-0.32-0.16-0.47-0.24-0.79-0.39c-0.16,0-0.32-0.24-0.47-0.24
	c-1.11-0.87-2.05-1.82-2.21-3.16c-0.24-1.74,0.32-3.32,1.34-4.66c0.32-0.39,0.79-0.79,1.18-1.11c0.47-0.39,1.11-0.24,1.58-0.39
	c0.32,0,0.47-1.03,1.11-0.87c0.63,0.32,0.16,1.03-0.32,1.42v0.55c0.24,0.08,0.63,0,0.95,0c-0.32,0.55-0.63,0.55-0.79,0.87
	c0,0.16,0.63,0.16,0.63,0.32c-0.47,0.55-1.42,0.24-2.05,0.55v0.39c1.58-0.16,3.32-1.42,4.9-0.55c0,0-0.47,0.16-0.79,0.32
	c0.79,0.55,1.58,0,2.37,0.16c0.95,0.32,1.9,0,2.84,0.16c-0.16-0.32-0.63-0.16-0.79-0.55c1.26-0.32,2.53,0.39,3.79,0.71
	c-0.47-0.55-1.11-0.87-1.82-0.87c-0.47,0-0.95-0.55-1.26-1.03v-0.16c0-0.16,0.08-0.24,0.16-0.24c0.39-0.08,0.87,0.08,1.26,0.24
	c0.39,0.16,0.79,0.32,1.11,0.08c0.63-0.32,1.03,0.32,1.58-0.08l0,0c0.08,0,0.08-0.08,0.16-0.08c-0.63-0.71-1.74,0-2.37-0.87
	c0.63-0.32,1.26,0,1.9-0.55c0.32-0.32,1.11-0.32,1.74-0.32c0.79-0.16,1.58,0.16,2.37,0.16c0.16,0,0.47,0.32,0.63,0.32
	c0.63,0,1.26,0.71,1.9,0.32c0-0.16-0.32-0.32-0.47-0.55c-0.47,0-1.11,0-1.42-0.55c0-0.16,0-0.32,0.16-0.32
	c0.79,0,1.42,0.87,2.21,0.55c-1.26-0.87-2.69-0.32-3.95-1.03c-0.79-0.55-1.82-0.71-2.53-1.58c-0.16,0.32-0.47,0.16-0.63,0.16
	s-0.16-0.32-0.32-0.32c-0.79,0-1.74,0.16-1.74-0.55c0-0.71,0.87-0.55,1.34-0.55c1.74-0.32,3.16,0.71,4.9,0.87
	c0.16,0,0.16,0.32,0.16,0.55c0,0.32-0.32,0.16-0.47,0.16c0.79,0.16,1.74,0.16,2.53,0.16c1.11,0,2.37,0.24,3.48,0.55
	c0.63,0.24,1.26,0.55,1.9,0.24c-0.47-0.39-1.42,0.16-1.26-0.71c0-0.32,0.63,0,0.95-0.16l-0.16-0.16c0.16-0.32,0.47-0.16,0.87-0.16
	c-1.18-0.55-2.21-1.03-3.32-1.58c0.63-1.03,1.74-0.39,2.69-0.39c0,0,0-0.32-0.16-0.32c0.32-0.55,0.87,0.16,1.26,0
	c-0.16-0.32-0.47-0.32-0.79-0.55c-1.11-0.16-2.21-0.55-3.32-0.71c0.16-0.39,0.95,0.16,0.79-0.55c-0.32-0.87-1.42-0.71-2.05-1.03
	c0.63-0.32,1.42-0.55,2.05-0.32c0.79,0.16,1.74-0.16,2.53,0c-1.26-1.26-3,0.16-4.42-1.03c0.32-0.32,0.79-0.55,0.95-1.03
	c0.95,0.32,2.05-0.16,3,0c-1.18-0.47-2.37-0.95-3.55-1.34c0,0-0.16-0.08-0.24-0.08c-0.47-0.24-0.95-0.08-1.5,0.08
	c-0.24,0.08-0.55,0.24-0.87,0.32c-1.11,0.32-2.21,0.32-3.32-0.24c0.08,0,0.16-0.08,0.24-0.08c0.55-0.24,1.26-0.39,1.82-0.39h0.95
	c0.32,0,0-0.47,0.32-0.47c0.63,0,1.42-0.24,2.05,0c0.87,0.47,1.9,0.71,2.76,0.95c0.39,0.08,0.79,0.24,1.18,0.32
	c0.16,0.16,0.32,0.32,0.47,0.55c0.95,0.16,1.9,0.16,2.53,0.87c0.16,0.16,0.32,0,0.32-0.16c-0.16-0.79-0.32-1.18,0.32-1.5
	c0,0,0.08-0.08,0.16-0.08c-0.16-0.55-0.47-0.71-0.95-0.87c1.11-0.39,2.37-0.55,3.16,0.71h0.47c0-0.39,0.32-0.55,0.47-0.71
	c0.79-0.24,1.26,0.71,2.05,0.71c1.58-0.39,3-0.24,4.42-0.39c-1.11-0.32-2.05-0.55-3.16-0.87c-0.32,0-0.79,0-1.11-0.32
	c0.47-0.55,1.42-0.32,1.9-0.16c0.32,0.16,0.32-0.71,0.47-0.55c0.79,0.24,1.58,0.39,2.21,0.71c0.47,0.16,1.42,0.55,2.05,0.87
	c-0.63-1.42-2.69-1.26-2.69-2.45c-0.16-0.71,1.03,0.47,1.58-0.16c-3-0.71-6-0.39-9-0.95c-0.16-0.16-0.32-0.32-0.39-0.55
	c0.87-0.55,1.9-0.87,2.76-0.71c0.16,0.16,0.32,0.16,0.47,0.32c0.63,0,0.95,0,1.58,0.16v-0.32c-1.11-0.32-2.21-0.16-3.32-0.32
	c-0.79-0.32-1.74,0.16-2.53,0.32c-2.69,0.16-5.37-0.32-8.06-0.16c-1.26,0-2.53-0.16-3.95,0c-1.11,0.32-2.37,0-3.48,0
	c-0.95-0.16-1.97,0-3,0.16c-0.79,0-1.58,0-2.21-0.32c-0.16-0.16,0-0.32,0.16-0.32c2.05-0.32,3.95,0.16,5.85,0
	c-0.79-0.71-1.9-0.32-2.76-0.55c-0.16,0-0.32-0.32-0.47-0.55c0.63-0.32,1.34-0.16,2.05-0.16c0.16,0,0.16,0.16,0.16,0.39h3
	l-0.24-0.16c2.05-0.47,4.11-0.16,6.16-0.47c-1.42-0.55-3.16,0.16-4.58-0.32c0.47-0.32,0.95-0.32,1.42-0.16
	c-0.16-0.32-0.79-0.16-0.95-0.55c1.42-0.47,2.84-0.16,4.27-0.32c0-0.32-0.32-0.71,0-1.03c0.16,0.32,0.47,0.47,0.63,0.47
	c0.95-0.16,1.74-0.32,2.37,0.55c-0.47,0.32-0.95,0.32-1.42,0.32c0.47,0.71,1.26,0,1.9,0.16c0.16,0,0.16,0.16,0.16,0.32
	c0.95,0,2.05,0.16,3-0.32c0.16,0,0.47,0.71,0.79,0.16c-0.95-0.55-2.05-0.39-2.84-0.87c-0.79-0.55-1.74-1.26-2.53-1.9
	c0.32-0.39,0.95-0.39,1.34,0c0.47,0.32,0.79,0.32,1.26,0.55c0.32,0.16,0.16-0.55,0.47-0.55c0.63-0.16,1.42-0.16,2.05,0.16
	c0.95,0.55,1.9,0.32,3,0.55c0.16,0,0.16-0.16,0.32-0.32c0,0.24,0.16,0.16,0.32,0.16c-0.95-0.79-2.05,0-3-0.71
	c-0.32-0.32-0.63-0.55-1.11-0.87c0.63-0.32,1.26-0.16,1.74,0.32c0-0.16,0-0.47,0.16-0.47c0.32,0,0.63,0.47,0.95,0.32
	c-0.47-0.71-1.26-0.32-1.9-0.87c-1.11-0.55-2.53-0.16-3.63-0.71c0-0.16,0.16-0.16,0.32-0.16c0.16-0.16,0-0.32-0.16-0.32
	c-1.11,0-2.21,0-3.16-0.71c0.95-0.55,2.05-0.39,3,0c0.32,0.16,0.79,0.55,1.26,0.71c0.16,0,0.63,0.16,0.63-0.16
	c-0.16-0.16-0.32-0.55-0.63-0.71c0.47-0.55,1.11,0.55,1.58,0c-0.16-0.24-0.16-0.39-0.16-0.55c0.79-0.55,2.05,0.55,2.53,0
	c0.79-0.71,1.26,0.16,2.05,0c-0.71-0.55-1.42-0.79-2.21-1.03c-1.03-0.24-2.05-0.47-3-0.95c0.16-0.32,0.47-0.32,0.79-0.32
	c-0.47-0.55-1.11-0.55-1.74-0.87c0.79-0.16,1.58-0.16,2.37,0c0.63,0.16,1.26,0.47,1.9,0.71c0.32,0.16,0.63,0.32,0.79,0.71
	c-0.47-1.11-1.11-1.58-2.05-1.9c-0.16-0.24,0-0.32,0.16-0.32c0.32-0.16,0.63,0.16,0.95,0.32c0.16,0,0.32-0.24,0.16-0.32
	c-0.16,0-0.32-0.16-0.32-0.16c0.63-0.71,1.26,0,1.9,0c0.16,0,0.32,0.32,0.47,0.55c0-0.24,0-0.32,0.16-0.55
	c-1.74-0.71-3.48-1.58-5.21-1.82c-1.42-0.16-2.84-0.16-4.27-0.16c-2.84-0.16-5.69,0-8.53-0.32c1.58-0.87,3.48,0.16,5.06-0.55
	c-0.16-0.32-0.63-0.16-0.79-0.55c1.11-0.71,2.53,0.55,3.48-0.16c-1.42-0.55-3-0.39-4.42-0.87c0.24-0.32,0.55-0.39,0.87-0.39
	c-0.16-0.16-0.55-0.47-0.08-0.79c0.47-0.16,1.11,0.16,1.58,0c-1.58-0.39-3.32-0.39-4.42-1.74c2.05-0.87,4.27-0.55,6.48-0.87
	c1.11-0.32,2.21-0.32,3.32,0c0.32,0.16,0.63,0.32,0.79,0.71c0.32-0.55-0.16-0.55-0.32-0.71c-0.79-0.71-1.74-0.71-2.69-1.11
	c-0.63-0.16-1.26-0.16-1.9-0.32c-1.9-0.71-3.79,0-5.85-0.32c-0.32-0.16-0.79,0.16-1.26,0.16c0.16,0.32,0.79,0,0.63,0.32
	c-0.47,0.87-1.58,0.16-2.53,0.32c-1.74,0.32-3.48-0.24-5.21-0.55c1.26-0.71,2.69,0,4.11-0.16c-0.16-0.16,0.32-0.32,0-0.47
	c0.79-0.55,1.42,0.47,2.21,0.16c0.16-0.16-0.32-0.55-0.16-0.87s0.47,0,0.79-0.16v-0.32c1.26-0.87,2.37,0,3.63,0.47
	c-0.63-0.47-1.42-0.71-1.9-1.42c-0.16-0.32,0.16-0.55,0.32-0.55c1.26,0,2.53,0,3.63,0.55c-1.26-1.26-3.16-1.26-4.9-1.26
	c-2.53,0.16-5.21,0.71-7.74,0.16c-3.79-0.55-7.27-0.87-11.06-1.74c-0.16-0.16-0.47-0.32-0.47-0.55c0-0.71,0.79,0,0.95-0.55
	l-0.16-0.16c0.32-0.32,0.79-0.32,1.11,0c0.16,0.16,0,0.32-0.16,0.32h-0.32c-0.16,0.71,0.63,0.39,0.79,0.39
	c1.11,0.16,2.37,0,3.48-0.16c1.42-0.32,2.84,0.55,4.27,0.71c-0.16-0.16-0.63-0.16-0.47-0.55c0.47-0.71,1.42-0.16,2.05-0.16
	c1.26,0,2.53,0.39,3.95,0.87c0.32,0,0.63,0.32,0.95,0.16c0.47,0-0.16-0.16-0.16-0.32c-1.74-1.11-3.63-0.71-5.21-1.9
	c-0.16-0.16,0-0.32,0.16-0.32c0.32-0.16,0.47,0.32,0.79,0.16c-1.42-1.58-3.79,0-5.61-1.03c0.32-0.55,0-1.03,0.16-1.42
	c0.16-0.55,0.95-0.16,1.58-0.16c0.16,0.16,0.32,0.16,0.47,0.16c1.11,0.16,2.05,0.71,3,1.03c0.32,0.16-0.16-0.16-0.16-0.39
	c0-0.16,0.16-0.32,0.32-0.32c0.32,0,0.63,0.24,0.63,0.55c0.63-0.24,1.26-0.24,1.74,0c0.47,0.32,0.79,1.03,1.42,1.03
	c-0.16-0.55-0.63-0.71-0.95-1.03c-0.16-0.24,0-0.32,0.16-0.32h0.79c-0.47,0-0.79-0.24-1.11-0.24c-0.95-0.16-1.58-0.87-2.37-1.26
	c0.16-0.39,0.63-0.16,0.95-0.39c-0.95-0.71-2.37,0-3.32-0.87c0.95-0.55,1.74-0.55,2.69-0.32c-1.11-0.32-2.05-0.16-3.16-0.16
	c-0.47,0.16-0.95,0-1.26-0.47c-0.16-0.39,0.63-0.16,0.32-0.55c-0.63-0.32-1.42,0.16-2.21-0.16l0.16-0.16
	c-0.79-0.71-1.58-0.39-2.37-0.24c0.47,0.39-0.16,0.39-0.16,0.55c-1.11,0-2.21,0.32-3.32,0.32c-1.11,0.16-2.37,0.55-3.32,0.71
	c-0.63,0-1.11-0.87-1.9-1.03c0.16-0.32,0.63-0.16,0.95-0.16c1.26-0.16,2.69,0.32,3.95,0c0.32,0,1.11,0.55,1.26-0.39
	c-0.32,0-0.63,0.24-0.79-0.16c1.11-0.55,2.21,0,3.32-0.55c-0.63,0-1.11-0.55-1.58-0.71c0.47-0.87,1.11-0.16,1.58,0.16
	c0.32,0.16,0.47-0.32,0.79-0.16c0.79,0.71,1.74,1.26,2.69,0.87c-0.95-0.32-1.9-0.55-2.53-1.42c1.26-0.32,2.53,0,3.63,0.55
	c-0.63-0.71-1.42-1.03-2.37-1.18c-3.71-0.39-7.11-0.71-10.58-0.39c-0.32,0-1.26,0.71-1.42,0.24c-0.16-0.87,1.11-0.39,1.58-0.87
	c-0.63-0.47-1.42,0.32-1.74-0.32c1.58-0.71,3.32,0,5.06,0.32c-0.16-0.71-0.95-0.16-1.11-0.71c0-0.16,0.16-0.32,0.32-0.32
	c0.79,0,1.74,0.55,2.37,0.32c0.95-0.32,2.05,0.24,3,0.24c-0.63-0.71-1.42-0.71-2.05-0.87c-1.42-0.55-3-0.16-4.42-1.03l0.16-0.24
	c-0.16,0-0.32-0.16-0.32-0.16c1.11-1.26,2.53,0.16,3.55,0c-0.32,0-0.47-0.16-0.63-0.32c0.47-0.39,0.95,0,1.42-0.24
	c-2.84-0.71-5.69-0.71-8.69-1.18c-0.32,0-0.16-0.32-0.16-0.55c1.11-1.11,2.53,0,3.79-0.55c-1.58-0.16-3.32-0.32-4.9-0.16
	c-1.42,0.16-2.84,0.24-4.27,0.16l0,0c0,0.24,0.63,0.32,0.16,0.55c-0.79,0.16-1.58,0-2.37,0.32c0.63,0.16,1.42-0.16,1.97,0.16
	c-1.34,0.87-3.24,0.32-4.58,1.42c-0.32,0.32-1.11,0-1.58,0.16c-0.95,0.55-2.21,0.55-3.16,1.18c1.26,0.16,2.37,0,3.63-0.55
	c0.16,0,0.32,0.32,0.32,0.32c1.11-0.71,2.21-0.32,3.48-0.47c0.16-0.24,0.47,0,0.47-0.39c0.16,0.39,0.63,0.71,0.16,0.87
	c-1.11,0.32-2.05,1.03-3.16,0.71c-0.47,0-0.95,0-1.42,0.16C35.7,4.8,35.39,5.2,34.91,5.2c0.16,0.16-0.63,0.32-0.16,0.32
	c0.32,0,0.47-0.32,0.95-0.32c0.32,0,0.16,0.71,0.47,0.47c0.16-0.32,0.63-0.47,0.79-0.32c1.42,0.16,3-0.71,4.27,0
	c0,0-0.32,0.71-0.63,0.71c-1.58,0-3.16,0.32-4.58,0.55c-1.26,0-2.69,0.55-4.11,0c-0.79-0.24-1.42,0-2.05,0.55
	c0.63,0.16,1.26-0.24,1.74,0.16c-0.63,0.71-1.58,0.71-2.37,1.18c-0.32,0.32-0.79,0.55-1.11,1.11c1.9-0.87,3.95-1.26,5.84-1.97
	c0.32-0.16,0.47,0.71,0,0.87c-0.24,0-0.47,0.32-0.79,0.39c0.55,0.08,1.18-0.24,1.74-0.08c0.32,0,0.95,0,1.11-0.32
	c0-0.16-0.47-0.39-0.63-0.55c0.95-0.71,3.16-1.03,3,0.71c0,0.32-0.47,0.16-0.63,0.16c-0.32-0.16,0-0.55-0.16-0.71
	c-0.32-0.16-0.63,0.39-0.95,0.16c0,0.55,0.95,0.16,0.79,0.87c-0.16,0.16-0.32,0.55-0.47,0.55c-1.9-0.39-3.48,0.55-5.21,0.32
	c-0.63,0-1.74-0.32-2.21,0.16c0.32,0,0.79,0,0.95,0.32c0,0.32-0.63,0.32-0.79,0.71c0.16,0,0.32,0,0.47,0.16
	c0.32-0.32,0.79-0.32,1.11-0.32c2.45-0.32,5.06-0.71,7.58-0.71c0.39,0,1.58-0.16,1.58,0.32c-0.16,0.87-1.42,0.32-2.37,0.47
	c-0.32,0.16-0.63,0.71-0.79,0.71c-1.11,0.32-2.05-0.39-3.16-0.16c0,0.16,0,0.32-0.16,0.32h-2.21l0.16,0.16
	c-0.16,0.39-0.63,0.24-0.95,0.24c-1.26-0.55-2.53-1.03-3.95-0.71c0.32,0,0.79-0.16,1.11,0s0.47,0.32,0.79,0.32
	c0.32,0.16,0,0.87-0.16,0.87c-1.26-0.32-2.37-0.32-3.48-0.16c0.32,0.55,0.95-0.16,1.11,0.39c0,0.71-0.79,0-1.03,0.55
	c-0.95-0.55-1.82,0.47-3,0.32c0.95,0.47,1.9-0.24,3,0.16c0.32,0,0.63-0.16,1.03-0.32c1.42-0.16,2.84-0.16,4.19,0.32
	c0,0,0,0.39-0.16,0.39h-1.26c-0.16,0-0.16,0.32-0.16,0.32c0.95,0.39,1.9-0.55,2.84,0.39c-0.16,0.16-0.32,0.47-0.63,0.32
	c-0.63-0.16-1.26,0-1.9-0.16c0,0.32-0.47,0.16-0.32,0.32c0.47,0.32,1.11,0.16,1.58,0.16c0,0.16,0.63,0.16,0.16,0.55
	c0,0.08-0.08,0.08-0.16,0.08c0.63,0.24,1.34,0.08,1.9,0.39c0.16,0.16,0,0.32-0.16,0.32h-0.63c0.32,0.55,1.11-0.16,1.26,0.55
	c0,0.16-0.16,0.39-0.32,0.39c-1.74,0-3.48,0.16-5.06-0.87c-0.16-0.16,0-0.32,0.16-0.32c0.95-0.16,1.58,0.55,2.53,0.55
	c-0.95-0.71-2.37-0.39-3.32-1.18c0.32-0.39,0.63-0.39,1.11-0.39c-0.95-0.55-1.74,0.16-2.69,0c-0.39-0.16-0.71-0.55-1.26-0.32v0.32
	c-1.26,0.55-2.45,0.55-3.79,1.03c1.11,0.16,2.05-0.55,3.16,0c-0.16,0.32-0.79,0.16-0.79,0.71c0.79,0,1.42-0.16,2.21,0.16
	c-1.9,0.71-4.11,0.39-6,1.42c1.26-0.32,2.37-0.55,3.63-0.32c0.32,0,0.16,0.55,0.32,0.55c1.58-0.55,2.84,0,4.27,0.32
	c0.16,0.16,0.32,0.32,0.47,0.55c-0.79,0.32-1.74-0.16-2.53-0.16c-2.21-0.32-4.03,0.55-6.16,1.42c1.26-0.32,2.69-0.87,4.11-0.71
	c0.16,0,0.47,0.55,0.63,0.32c1.11,0,2.21,0.32,3.32,0.16c1.42-0.32,2.69-0.32,4.03,0.16c-0.63,0.32-1.42,0-1.97,0.16
	c0,0,0,0.32,0.16,0.32c-2.05,1.03-4.11,0-6.32,0.39c-0.95,0.32-1.74,0.55-2.69,0.55c1.42,0.16,3-0.71,4.27,0
	c0.79,0.47,2.05,0.32,3.16,0.32c0.16,0,0.16,0.16,0.16,0.32c0.63,0,0.63,0.32,0.79,0.87c-1.58,0.32-3-0.55-4.58-0.55
	c-0.16,0-0.16,0.39-0.16,0.39c0.63,0.16,1.26-0.16,1.74,0.32c-0.32,0.32-0.47,0.87-0.79,1.03c-1.11,0.16-2.05-0.39-3.16,0.16
	c0.79,0,1.74-0.16,1.9,0.55c0.16,0.32-0.47,0-0.63,0.32c-0.95-0.55-1.9,0.16-2.84,0.16c0.39,0.32,0.95-0.16,1.34,0
	c0.16,0,0.16,0.16,0.16,0.32c-0.16,0.16-0.16,0.39-0.32,0.39c-0.47,0-0.95,0.16-1.42,0.16c-1.26,0.16-2.69,0-3.95,0
	c0,0.32-0.47,0.16-0.32,0.32c0.63,0.16,1.42-0.47,2.05,0c-0.95,0.87-2.21,0-3.16,0.55c-0.47,0.39-1.11,0.55-1.42,1.11
	c1.26-0.16,2.37-0.87,3.63-0.55c0,0.32-0.47,0.32-0.47,0.55c0.32,0.16,0.95-0.16,1.26,0.16c-0.79,0.71-1.9,0.71-2.69,1.26
	c0.47,0.16,1.11-0.32,0.95,0c-0.47,0.87-1.74,1.26-2.53,1.97c0.63-0.16,1.26-0.32,1.9-0.55c0.87-0.24,2.05-0.71,3.16-0.55
	c0.47,0.24,0.32,0.71,0,0.87c-1.42,0-2.69,0.16-4.11,0.55c-0.63,0.16-1.42,0.71-1.9,1.42c0.95-0.47,1.9-1.42,3-1.03
	c0.32,0,0.95,0,1.11,0.32c0,0.32-0.79,0.87-0.63,0.87c0.95,0.32,1.97-0.39,3,0.16c-0.71,0.63-2.05,0.39-2.69,1.34
	c-0.08,0.08-0.16,0.16-0.16,0.32c0.24-0.08,0.55-0.24,0.87-0.32c0.16-0.08,0.32-0.08,0.55-0.08c2.21-0.16,4.27-1.03,6.48-0.55
	c-0.63,0.24-1.26,0.47-1.9,0.63c-3,0.63-6.08,0.16-9.08,0.79c0.55,0,1.03,0.24,1.5,0.71c-0.95,0.55-2.05-0.24-2.84,0.32
	c-0.63,0.32-1.58,0.16-2.05,1.03c0.95-0.16,2.05-1.18,2.53-0.16c0.16,0.55-1.26,0-0.95,0.87c0,0.16,0.95-0.32,1.26,0.16
	c0,0.16-0.47,0-0.47,0.32c1.26,0.16,2.53-0.32,3.63,0.16c-0.95,0.55-2.05,0.16-3,0.32v0.32c0.16,0.16,0.63,0,0.47,0.16
	c-0.32,0.55-1.26,0.16-1.74,0.71c0.63,0,1.11,0,1.74,0.32c0.32,0.32,1.26-0.32,1.42,0.24c0.16,0.87-1.11,0.71-1.74,0.71
	c-1.74,0-3.48,0-5.21,0.16v0.32c0.63-0.24,1.26-0.32,1.9,0C7.74,44.93,6,44.46,4.42,45.17c0.95,0,1.9,0,2.84,0.47
	c-0.95,0.87-2.21,0.39-3.32,0.71c2.21,0.32,4.58-0.32,6.79,0.16c0,0.32-0.32,0.16-0.47,0.32c-0.63,0.16-1.26-0.16-1.9,0.16
	C7.9,47.14,7.42,47.3,6.95,47.3c-0.16,0.16-0.32,0.32-0.63,0.32C7.27,47.93,8.06,46.9,9,47.3c0.47,0.32,1.26,0,1.11,0.55
	c0,0.32-0.79,0.16-1.11,0.87c0.47,0,1.11-0.16,1.42,0.39c-1.26,0.71-2.53,0.71-3.79,0.55c-1.42-0.32-3-0.16-4.42,0
	c0.47,0.16,0.95,0,1.26,0.55c-0.63,0.55-1.42,0.87-2.21,1.26c0.47,0,0.79-0.16,1.11-0.32c0.16,0,0.47,0.32,0.79,0.16
	c0-0.16,0-0.32,0.16-0.32c0.63,0,1.26-0.16,1.74,0.16c-0.32,0.32-0.95-0.16-1.11,0.55c1.11,0.16,2.69-0.71,3.63,0.16
	c-0.87,0.55-1.9,0.87-2.92,1.11C3,53.46,1.34,53.78,0,54.88c0.47,0,1.26-0.16,1.58-0.16c2.21-0.32,4.27-0.71,6.4-0.47
	c0.47,0,1.42-0.16,1.26,0.47c-0.32,1.03-1.42,1.42-2.69,1.42c0,0,0,0.32,0.16,0.32c0.63-0.16,1.26,0,1.74-0.32
	c0.47-0.16,0.95-0.39,1.42-0.71c0.47-0.16,0.95-0.32,1.34-0.16c0.24,0.16,0.24,0.39,0.24,0.55c-0.95,1.11-2.21,1.11-3.55,1.42
	c0.95,0.32,1.97-0.32,3-0.32c0.95,0.16,1.74-0.55,2.84-0.32c-0.16-0.32-0.79-0.16-0.63-0.55c0.32-0.55,1.42-1.9,1.9-1.26
	c0.32,0.32-0.63,0.71-0.47,0.71c1.11,1.26,2.21-0.87,3.63-0.32v-0.32c-0.47-0.16-0.95,0.16-1.42-0.16c1.11-0.71,2.53-0.71,3.63-1.42
	c0.08,0,0,0-0.16-0.08c-0.16-0.08-0.32-0.16-0.32-0.24c0-0.71,0.63-0.55,0.95-0.55c2.05-0.47,4.11-1.34,6-0.47
	c-1.11,0.39-2.05,0.71-3.16,0.47c0.47,0.71,1.58-0.47,1.74,0.55c0,0.08,0,0.16,0,0.24c0,0.39-0.55,0.63-0.95,0.47
	c0.16,0.87,1.11,0,0.95,0.55c0,0.16-0.32,0.71-0.47,0.71c-0.79,0.32-1.74-0.16-2.53,0c-1.11,0.32-2.21-0.16-3.32,0.55
	c-0.16,0.16,0,0.39,0.16,0.39c-0.79,0.55-1.74,0-2.37,0.87h-0.47c1.11,0.16,2.05-0.16,3.16,0l-0.16,0.16l0.16,0.16
	c-0.47,0.16-0.79,0.71-1.26,0.87c-0.95,0.16-1.9-0.32-2.84,0.39c0.79,0.16,1.58-0.24,2.37,0.16c-0.47,0.32-1.11,0.16-1.58,0.32
	c0,0.24,0,0.32,0.16,0.32c1.11,0,2.37-0.16,3.48,0.16c-0.79,0.55-1.74,1.03-2.53,1.42c0,0-0.16-0.32-0.32-0.32
	c-0.63,0-1.11-0.32-1.74-0.55c-0.79-0.16-1.58,0.16-2.37,0.32c0.16,0,0.47,0,0.47,0.16c-0.16,0.32-0.63,0.16-0.95,0.16
	c-1.11-0.71-2.37-0.39-3.48-0.87c-1.11-0.55-2.37-0.71-3.48-0.16c0,0-0.79,0-0.47,0.16c1.11,0.32,2.53-0.32,3.48,0.32
	c-1.26,1.26-3.16,0.87-4.27,2.13c2.05-0.71,4.11-1.03,6.16-1.03c0.79,0,1.74-0.39,2.53,0.32c-1.74,0.39-3.16,1.26-4.9,1.74
	c-0.16,0.24-0.16,0.55-0.47,0.71c-1.58,0.47-3,1.18-4.27,2.13c0.79,0.16,1.58-0.55,2.37-0.55c0.95,0,2.37-1.42,3.32-0.55
	c-0.55,0.71-1.66,0.87-2.13,1.66c-0.08,0.16-0.16,0.32-0.16,0.47c0.08-0.24,0.24-0.32,0.39-0.47c0.16-0.08,0.24-0.16,0.39-0.24
	c0.79-0.16,1.42-0.32,2.05-0.87c0.32-0.24,0.79,0.16,1.11,0c0.47-0.39,0.95-0.55,1.42-0.71c0.16,0,0.16,0.16,0.16,0.32
	c-0.16,0.39-0.63,0.39-0.79,0.71c0.47,0.32,0.95-0.32,1.42-0.32c0.79,0,1.42-1.11,2.05-1.26c1.42-0.55,2.84-0.55,4.27-0.87
	c0.47,0,0.95-0.39,1.42-0.55c1.74-0.39,3.32-0.55,5.06-0.87c0.79-0.16,1.58-0.55,2.45,0c-1.9,0.87-3.95,1.18-6,1.18
	c-0.47,0.24-0.79,0.87-1.42,1.03c-2.05,0.32-3.95,0.32-5.84,1.26c0.95,0.55,2.05-0.55,3,0.16c0,0.16,0,0.55-0.16,0.55
	c-0.71,0.24-1.26,0.32-1.97,0.39c-0.39,0.08-0.79,0.16-1.18,0.32c0.79-0.24,1.74-0.55,2.53,0c-0.32,0.16-0.47,0.47-0.63,0.87
	c0,0.16,0.24,0.16,0.47,0.16c0.32-0.16,0.32-0.55,0.63-0.71c0.63-0.32,1.26-0.32,1.9-0.32c0.16,0,0.32,0.32,0.32,0.71
	c0.55-0.24,1.11-0.63,1.58-1.03c0.39-0.24,0.79-0.39,1.26-0.39c1.74-0.16,3.32-0.32,5.06-0.55c-0.95-0.16-1.74,0.16-2.69-0.16
	c1.58-0.87,3.32-0.87,5.06-1.42c0.32,0,0.79-0.16,0.63,0.16c-0.16,0.71-1.26,0-1.74,0.87c0.63,0.39,1.26,0,1.9,0.16
	c0.16,0,0.16-0.32,0.32-0.32c1.74-0.16,3.79-0.71,5.21,0.32c-1.42,0.55-3-0.32-4.42,0c-1.11,0.39-2.13,0.79-3.4,1.34H28.2
	c-0.24,0.08-0.55,0.16-0.79,0.32H26.3c-1.42,0-2.84,0-4.27,0.47c0,0,0,0.32,0.16,0.32c-1.58,0.55-3.32,1.42-4.9,1.58
	c-1.11,0-2.21,1.03-3.48,1.42c0.79,0.55,1.42-0.32,2.29-0.71c0.16,0,0.32,0,0.47,0.16c0.16,0.55,0,0.87-0.32,1.26
	c-0.16,0.32,0.16,0.47,0.32,0.71c0.32-0.71,1.11-1.42,1.74-0.71c0.16,0.16,0,0.47,0,0.71c0.63-0.87,1.58-1.58,2.53-1.58
	c0.32,0,0.32,0.55,0,0.71c0.79,0,1.42-0.55,2.05-1.03c0.47-0.16,0.95,0.32,1.42,0c1.11-0.47,2.21-1.03,3.48-1.18
	c0.16,0,0.16,0.16,0.16,0.32c0.47-0.16,0.95-0.32,1.42-0.32c0.16-0.16,0.47,0,0.47-0.32c0,0.24,0.63,0.24,0.16,0.55
	c1.58,0.16,3.16-0.32,4.74-0.32c-0.63-0.55-1.42,0.16-1.9-0.55c0-0.16,0-0.39,0.16-0.39c1.58,0,3.32,0.16,4.9,0
	c-0.79-0.71-1.9,0-2.84-0.16c-0.16,0-0.16-0.16-0.32-0.32c0.32-0.16,0.55-0.32,0.79-0.39c1.82-0.71,4.27-0.71,5.84-0.79
	c0.16,0,0.16,0.16,0.16,0.39c0,0.16,0,0.32,0,0.47c-0.47,1.58-0.95,3.16-1.58,4.58c-0.87,1.58-1.9,3-3.32,4.11
	c-1.9,1.26-3.95,2.13-6.16,2.45H6.32c0,0.47,0,1.66,0,1.82h95.97v-1.82H70.69V77.87z"/>
</svg>
