<svg width="80" height="80" viewBox="0 0 80 80" fill="none" xmlns="http://www.w3.org/2000/svg">
<path d="M64.9475 50.0079C58.2999 50.3071 52.4928 47.8392 55.702 41.632C58.9112 35.4249 74.8042 28.2456 80 26.0021C80 26.0021 52.4928 26.0021 50.8118 26.0021C49.8185 26.0021 48.596 25.8525 47.8319 28.0961C47.297 29.7413 44.6227 36.1728 38.8157 38.1172C31.6332 40.5851 25.5969 36.5467 16.4279 29.4422C12.9895 26.8247 12.4546 26.5256 9.16905 27.049C7.48806 27.3482 3.82044 26.4508 2.75072 26.2264C1.68099 25.9273 0 26.0769 0 26.0769C0 26.2264 6.64756 27.1238 19.4842 36.098C24.3744 39.5381 33.085 46.1939 42.1012 50.0079C51.8816 54.1959 66.0936 56.3646 79.0831 47.54L79.1595 47.0165C79.0067 47.1661 71.5186 49.7836 64.9475 50.0079Z" fill="#008BCE"/>
</svg>
