<svg width="817" height="80" viewBox="0 0 817 80" fill="none" xmlns="http://www.w3.org/2000/svg">
<path d="M183.89 69.4515C165.068 70.3168 148.626 63.1776 157.713 45.2213C166.799 27.2649 211.798 6.49622 226.509 0.00598716C226.509 0.00598716 148.626 0.00598716 143.867 0.00598716C141.054 0.00598716 137.593 -0.426655 135.43 6.06358C133.915 10.8231 126.343 29.4284 109.901 35.0533C89.5652 42.1925 72.4743 30.5101 46.5133 9.95769C36.778 2.38575 35.2636 1.52036 25.9609 3.03475C21.2014 3.90011 10.8171 1.30407 7.78828 0.65505C4.7595 -0.210314 0 0.222341 0 0.222341C0 0.655024 18.8217 3.2511 55.167 29.212C69.0128 39.1637 93.6757 58.4181 119.204 69.4515C146.896 81.5666 187.135 87.8405 223.913 62.3123L224.129 60.7978C223.697 61.2305 202.495 68.8025 183.89 69.4515Z" fill="#008BCE"/>
<path d="M352.199 3.0349H365.395V67.5046H352.199V3.0349ZM658.105 67.5046H649.884L610.943 22.5056V67.5046H597.746V3.0349H610.077L645.125 43.4907V3.0349H658.321V67.5046H658.105ZM277.777 67.5046L302.224 32.6736L281.455 3.0349H296.166L309.58 22.073L322.993 3.0349H337.704L316.935 32.6736L341.382 67.5046H326.67L309.58 43.058L292.489 67.5046H277.777ZM421.861 54.5241H394.169L388.977 67.7209H375.78L401.092 3.25125H414.289L440.25 67.7209H427.053L421.861 54.5241ZM397.63 45.8705H418.615L408.015 19.2605L397.63 45.8705ZM554.478 58.8509H584.333V67.5046H554.478H546.906H541.281V3.0349H544.742H554.261H581.953V11.6885H554.261V30.0775H577.842V38.7312H554.261V58.8509H554.478ZM507.099 3.0349H508.181H519.647H521.377L527.435 67.5046H514.238L509.911 22.7219L488.277 67.5046H487.412L465.345 22.7219L461.018 67.5046H447.821L454.095 3.0349H455.826H467.292H468.374L487.628 43.058L507.099 3.0349ZM741.829 3.0349H749.185V67.5046H741.829V3.0349ZM714.786 49.7646H684.066L676.927 67.5046H669.571L695.532 3.0349H702.888L729.281 67.5046H721.926L714.786 49.7646ZM686.229 44.3561H712.407L699.21 11.9049L686.229 44.3561ZM790.073 36.5678H774.929V67.5046H767.574V36.5678V30.9429V8.65978V3.0349H774.929H791.804C802.405 3.0349 809.976 10.6069 809.976 19.6932C809.976 27.2651 804.784 33.7553 796.996 35.7024L816.034 67.2882H808.678L790.073 36.5678ZM774.929 30.9429H791.155C798.294 30.9429 803.27 25.9671 803.27 19.9095C803.27 13.6356 798.294 8.65978 791.155 8.65978H774.929V30.9429Z" fill="#284A7D"/>
</svg>
