<?xml version="1.0" encoding="utf-8"?>
<!-- Generator: Adobe Illustrator 25.4.1, SVG Export Plug-In . SVG Version: 6.00 Build 0)  -->
<svg version="1.1" xmlns="http://www.w3.org/2000/svg" xmlns:xlink="http://www.w3.org/1999/xlink" x="0px" y="0px"
	 viewBox="0 0 80 80" style="enable-background:new 0 0 80 80;" xml:space="preserve">
<style type="text/css">
	.st0{fill:#FF6E00;}
</style>
<g id="Layer_2">
</g>
<g id="Layer_1">
	<path class="st0" d="M40,49.2C42,61,47.8,71.8,56.6,80c0.4-12-3.1-23.7-10.1-33.5C56.3,53.4,68,57,80,56.6C71.8,47.8,61,42,49.2,40
		C61,38,71.9,32.2,80,23.4c-12-0.4-23.7,3.1-33.5,10.1C53.5,23.7,57,12,56.6,0C47.8,8.2,42,19,40,30.8C38,19,32.2,8.2,23.4,0
		C23,12,26.6,23.7,33.5,33.5C23.7,26.6,12,23,0,23.4C8.2,32.2,19,38,30.8,40C19,42,8.2,47.8,0,56.6c12,0.4,23.7-3.1,33.5-10.1
		C26.6,56.3,23,68,23.4,80C32.2,71.8,38,61,40,49.2"/>
</g>
</svg>
