<?xml version="1.0" encoding="utf-8"?>
<!-- Generator: Adobe Illustrator 25.4.1, SVG Export Plug-In . SVG Version: 6.00 Build 0)  -->
<svg version="1.1" xmlns="http://www.w3.org/2000/svg" xmlns:xlink="http://www.w3.org/1999/xlink" x="0px" y="0px"
	 viewBox="0 0 72.1 80" style="enable-background:new 0 0 72.1 80;" xml:space="preserve">
<style type="text/css">
	.st0{fill:#FF6E00;}
</style>
<g id="Layer_2">
</g>
<g id="Layer_1">
	<g>
		<path class="st0" d="M36,24.5c1,5.9,3.9,11.2,8.2,15.3c0.2-5.9-1.6-11.8-5-16.6c4.9,3.4,10.7,5.2,16.6,5
			c-4.1-4.3-9.4-7.2-15.3-8.2c5.9-1,11.2-3.9,15.3-8.2c-5.9-0.2-11.8,1.6-16.7,5c3.4-4.9,5.2-10.7,5-16.6C39.9,4.1,37,9.4,36,15.3
			C35,9.4,32.1,4.1,27.8,0c-0.2,5.9,1.6,11.8,5,16.6c-4.9-3.4-10.7-5.2-16.7-5c4.1,4.3,9.4,7.2,15.3,8.2c-5.9,1-11.2,3.9-15.3,8.2
			c5.9,0.2,11.8-1.6,16.6-5c-3.4,4.9-5.2,10.7-5,16.6C32.1,35.7,35,30.3,36,24.5"/>
		<path class="st0" d="M7.8,66.7c0.8,0.8,1.2,1.9,1.1,3v6.4H7.5v-1.6c-0.3,0.5-0.8,1-1.4,1.3c-0.7,0.3-1.4,0.5-2.2,0.5
			c-1,0.1-2-0.2-2.7-0.8c-1.2-1-1.4-2.8-0.4-4c0.1-0.1,0.2-0.2,0.3-0.3c0.9-0.6,2-0.9,3-0.8h3.3v-0.6c0.1-0.8-0.2-1.5-0.7-2
			c-0.6-0.5-1.4-0.8-2.2-0.7c-0.6,0-1.3,0.1-1.9,0.3c-0.6,0.2-1.1,0.5-1.5,0.9l-0.6-1c0.6-0.5,1.2-0.8,1.9-1
			c0.7-0.2,1.5-0.4,2.3-0.4C5.8,65.6,6.9,66,7.8,66.7 M6.2,74.6c0.6-0.4,1-0.9,1.3-1.6v-1.7H4.2c-1.8,0-2.6,0.6-2.6,1.8
			c0,0.6,0.2,1.1,0.7,1.4c0.6,0.4,1.2,0.6,1.9,0.5C4.9,75.1,5.6,74.9,6.2,74.6"/>
		<path class="st0" d="M12.6,63.2c-0.2-0.2-0.3-0.4-0.3-0.7c0-0.3,0.1-0.5,0.3-0.7c0.2-0.2,0.5-0.3,0.7-0.3c0.3,0,0.5,0.1,0.7,0.3
			c0.2,0.2,0.3,0.4,0.3,0.7c0,0.6-0.5,1-1,1C13,63.5,12.8,63.4,12.6,63.2 M12.6,65.8H14v10.3h-1.4V65.8z"/>
		<path class="st0" d="M20.7,66.2c0.7-0.4,1.6-0.6,2.4-0.5v1.4l-0.3,0c-1-0.1-1.9,0.3-2.6,1c-0.7,0.8-1,1.8-0.9,2.8v5.3h-1.4V65.8
			h1.3v2C19.5,67.1,20,66.6,20.7,66.2"/>
		<path class="st0" d="M41.2,65.8l-3.9,10.3H36l-3.3-8.5l-3.3,8.5h-1.3l-3.9-10.3h1.3l3.2,8.8l3.3-8.8h1.2l3.3,8.8l3.3-8.8
			L41.2,65.8z"/>
		<path class="st0" d="M49.7,66.7c0.8,0.8,1.2,1.9,1.1,3v6.4h-1.3v-1.6c-0.3,0.5-0.8,1-1.4,1.3c-0.7,0.3-1.4,0.5-2.2,0.5
			c-1,0.1-2-0.2-2.7-0.8c-1.2-1-1.4-2.8-0.4-4c0.1-0.1,0.2-0.2,0.3-0.3c0.9-0.6,2-0.9,3-0.8h3.3v-0.6c0.1-0.8-0.2-1.5-0.7-2
			c-0.6-0.5-1.4-0.8-2.2-0.7c-0.6,0-1.3,0.1-1.9,0.3c-0.6,0.2-1.1,0.5-1.6,0.9l-0.6-1c0.6-0.5,1.2-0.8,1.9-1
			c0.7-0.2,1.5-0.4,2.3-0.4C47.7,65.6,48.8,66,49.7,66.7 M48.1,74.6c0.6-0.4,1-0.9,1.3-1.6v-1.7h-3.2c-1.8,0-2.6,0.6-2.6,1.8
			c0,0.6,0.2,1.1,0.7,1.4c0.6,0.4,1.2,0.6,1.9,0.5C46.8,75.1,47.5,74.9,48.1,74.6"/>
		<path class="st0" d="M63,65.8l-5.2,11.6c-0.3,0.8-0.8,1.5-1.5,2.1c-0.6,0.4-1.3,0.6-2,0.6c-0.5,0-0.9-0.1-1.4-0.2
			c-0.4-0.1-0.8-0.4-1.1-0.7l0.6-1c0.5,0.5,1.2,0.8,1.9,0.8c0.4,0,0.9-0.1,1.2-0.4c0.4-0.4,0.7-0.8,0.9-1.3l0.5-1l-4.6-10.3h1.5
			l3.9,8.8l3.9-8.8H63z"/>
		<path class="st0" d="M65.2,75.8c-0.7-0.2-1.3-0.5-1.8-0.9l0.6-1.1c0.5,0.4,1,0.7,1.6,0.8c0.7,0.2,1.3,0.3,2,0.3
			c0.7,0.1,1.4-0.1,2.1-0.4c0.4-0.3,0.7-0.7,0.7-1.2c0-0.3-0.1-0.7-0.4-0.9c-0.3-0.2-0.6-0.4-0.9-0.5c-0.5-0.1-1-0.2-1.5-0.3
			c-0.7-0.1-1.4-0.3-2-0.5c-0.5-0.2-1-0.4-1.3-0.8c-0.4-0.5-0.6-1-0.5-1.6c0-0.8,0.4-1.6,1.1-2.1c0.9-0.6,1.9-0.9,3-0.8
			c0.7,0,1.3,0.1,2,0.3c0.6,0.1,1.1,0.4,1.6,0.7l-0.6,1.1c-0.9-0.6-2-0.9-3-0.9c-0.7,0-1.4,0.1-2,0.5c-0.4,0.3-0.7,0.7-0.7,1.2
			c0,0.4,0.1,0.7,0.4,0.9c0.3,0.2,0.6,0.4,1,0.5c0.5,0.1,1,0.3,1.6,0.3c0.7,0.1,1.3,0.3,2,0.5c0.5,0.2,0.9,0.4,1.3,0.8
			c0.4,0.4,0.6,1,0.5,1.6c0,0.9-0.4,1.7-1.1,2.1c-0.9,0.6-2,0.9-3.1,0.8C66.8,76.2,66,76.1,65.2,75.8"/>
		<path class="st0" d="M14.4,53.4H2c0.1,1.5,0.7,2.8,1.8,3.8c1.1,1,2.6,1.5,4,1.4c0.9,0,1.7-0.2,2.5-0.5c0.8-0.3,1.5-0.8,2-1.5
			l1.1,1.3c-0.7,0.8-1.5,1.4-2.5,1.8c-1,0.4-2.1,0.6-3.2,0.6c-1.4,0-2.8-0.3-4-1c-1.2-0.6-2.1-1.6-2.7-2.7c-0.7-1.2-1-2.6-1-4
			c0-1.4,0.3-2.7,0.9-4c0.6-1.1,1.5-2.1,2.6-2.7c1.1-0.7,2.4-1,3.7-1c1.3,0,2.6,0.3,3.7,1c1.1,0.7,2,1.6,2.6,2.7
			c0.6,1.2,1,2.6,0.9,4L14.4,53.4z M3.6,48.3c-1,1-1.6,2.3-1.6,3.6h10.5c-0.1-1.4-0.7-2.7-1.6-3.6C8.8,46.4,5.7,46.4,3.6,48.3"/>
		<path class="st0" d="M47.4,51.7v8.7H43v-8c0-2.4-1.1-3.6-3.1-3.6c-2.1,0-3.6,1.3-3.6,4.1v7.5h-4.4V45.2h4.2V47
			c1.3-1.3,3.1-2.1,5-2C44.7,45,47.4,47.1,47.4,51.7"/>
		<path class="st0" d="M50.8,40.7c0-1.4,1.2-2.5,2.6-2.5c0.1,0,0.1,0,0.2,0c1.6,0,2.7,1,2.7,2.4c-0.1,1.5-1.4,2.6-2.9,2.5
			C52,43,51,42,50.8,40.7 M51.4,45.2h4.4v15.1h-4.4V45.2z"/>
		<path class="st0" d="M58.4,58.9l1.5-3.1c1.6,0.9,3.4,1.5,5.3,1.5c2,0,2.8-0.5,2.8-1.4c0-2.5-9.1,0.1-9.1-6c0-2.9,2.6-4.9,7-4.9
			c2,0,4,0.4,5.8,1.3l-1.5,3.1c-1.3-0.8-2.8-1.1-4.4-1.1c-2,0-2.8,0.6-2.8,1.4c0,2.6,9.1,0.1,9.1,6c0,2.8-2.6,4.8-7.1,4.8
			C62.6,60.6,60.4,60.1,58.4,58.9"/>
		<path class="st0" d="M29.7,45.1H16.9v1.7H26L15.7,60.4h13.1v-1.7h-9.5L29.7,45.1z"/>
	</g>
</g>
</svg>
