<?xml version="1.0" encoding="utf-8"?>
<!-- Generator: Adobe Illustrator 25.4.1, SVG Export Plug-In . SVG Version: 6.00 Build 0)  -->
<svg version="1.1" xmlns="http://www.w3.org/2000/svg" xmlns:xlink="http://www.w3.org/1999/xlink" x="0px" y="0px"
	 viewBox="0 0 106.62 80" style="enable-background:new 0 0 106.62 80;" xml:space="preserve">
<style type="text/css">
	.st0{fill:#002856;}
	.st1{clip-path:url(#SVGID_00000109026809490678998410000001022495479804510345_);fill:#DB0F18;}
</style>
<g id="Layer_2">
</g>
<g id="Layer_1">
	<g>
		<g>
			<path class="st0" d="M106.57,38.73c-0.07,0-2.47-0.15-2.47-0.15c-9.75-0.73-9.54-9.54-9.54-9.54C94.7,18.2,88.52,1.02,64.2,0
				H22.13l-0.58,2.11h35.3c3.57,0.07,6.11,2.69,4.88,6.92l-6.33,23c-2.4,6.92-8.74,6.55-8.74,6.55C40.18,38,42,31.88,42,31.88
				l2.91-10.56c0.87-3.57-1.6-5.24-3.86-5.31H17.69l-0.58,2.11h9.97c3.64,0.07,4.44,2.84,3.79,5.31c0,0-1.24,4.37-2.69,9.83
				c-1.46,5.31-6.33,5.46-7.06,5.46h-9.75L10.7,41.2h9.24c1.09,0,6.04,0.22,4.59,5.53c-1.53,5.53-2.69,9.83-2.69,9.83
				c-0.73,2.47-2.98,5.17-6.77,5.31H5.02l-0.58,2.11h23.37c2.26-0.07,5.75-1.75,6.84-5.39l2.91-10.48c0,0,1.53-6.19,8.3-6.7
				c0,0,6.55-0.36,5.1,6.55l-6.33,23c-1.16,4.29-5.1,6.92-8.74,6.92H0.58L0,80h42.15c24.9-1.02,40.55-18.27,46.37-29.04
				c0,0,4.66-8.81,14.78-9.54l2.47-0.15c0,0,0.15,0,0.22-0.15c0.15-0.44,0.58-2.11,0.58-2.18C106.72,38.8,106.64,38.73,106.57,38.73
				"/>
		</g>
		<g>
			<g>
				<defs>
					<path id="SVGID_1_" d="M22.13,0l-0.58,2.11h35.3c3.57,0.07,6.11,2.69,4.88,6.92l-6.33,23c-2.4,6.92-8.74,6.55-8.74,6.55
						C40.18,38,42,31.88,42,31.88l2.91-10.56c0.87-3.57-1.6-5.24-3.86-5.31H17.69l-0.58,2.11h9.97c3.64,0.07,4.44,2.84,3.79,5.31
						c0,0-1.24,4.37-2.69,9.83c-1.46,5.31-6.33,5.46-7.06,5.46h-9.75L10.7,41.2h9.24c1.09,0,6.04,0.22,4.59,5.53
						c-1.53,5.53-2.69,9.83-2.69,9.83c-0.73,2.47-2.98,5.17-6.77,5.31H5.02l-0.58,2.11h23.37c2.26-0.07,5.75-1.75,6.84-5.39
						l2.91-10.48c0,0,1.53-6.19,8.3-6.7c0,0,6.55-0.36,5.1,6.55l-6.33,23c-1.16,4.29-5.1,6.92-8.74,6.92H0.58L0,80h42.15
						c24.9-1.02,40.55-18.2,46.37-29.04c0,0,4.66-8.81,14.78-9.54l2.47-0.15c0,0,0.15,0,0.22-0.15c0.15-0.44,0.58-2.11,0.58-2.18
						c0-0.07,0-0.15-0.07-0.15s-2.47-0.15-2.47-0.15c-9.75-0.73-9.54-9.54-9.54-9.54c0.15-10.77-6.04-28.03-30.35-29.04h-42V0z"/>
				</defs>
				<clipPath id="SVGID_00000142867267191542898240000004387362384649669801_">
					<use xlink:href="#SVGID_1_"  style="overflow:visible;"/>
				</clipPath>
				
					<rect x="9.54" y="-2.04" style="clip-path:url(#SVGID_00000142867267191542898240000004387362384649669801_);fill:#DB0F18;" width="98.78" height="42"/>
			</g>
		</g>
	</g>
</g>
</svg>
