<?xml version="1.0" encoding="utf-8"?>
<!-- Generator: Adobe Illustrator 25.4.1, SVG Export Plug-In . SVG Version: 6.00 Build 0)  -->
<svg version="1.1" xmlns="http://www.w3.org/2000/svg" xmlns:xlink="http://www.w3.org/1999/xlink" x="0px" y="0px"
	 viewBox="0 0 323.62 80" style="enable-background:new 0 0 323.62 80;" xml:space="preserve">
<style type="text/css">
	.st0{fill:#002856;}
	.st1{clip-path:url(#SVGID_00000149344692745733368490000007962220341868512924_);fill:#DB0F18;}
</style>
<g id="Layer_2">
</g>
<g id="Layer_1">
	<g>
		<g>
			<path class="st0" d="M323.56,28.7c-0.05,0-1.83-0.11-1.83-0.11c-7.23-0.54-7.07-7.07-7.07-7.07c0.11-8.04-4.48-20.77-22.49-21.52
				h-31.18l-0.43,1.56h26.16c2.64,0.05,4.53,2,3.61,5.12l-4.69,17.05c-1.78,5.12-6.47,4.86-6.47,4.86c-4.8-0.43-3.45-4.96-3.45-4.96
				l2.16-7.82c0.65-2.64-1.19-3.88-2.86-3.94h-17.32l-0.43,1.56h7.39c2.7,0.05,3.29,2.1,2.81,3.94c0,0-0.92,3.24-2,7.28
				c-1.08,3.94-4.69,4.05-5.23,4.05H253l-0.49,1.83h6.85c0.81,0,4.48,0.16,3.4,4.1c-1.13,4.1-2,7.28-2,7.28
				c-0.54,1.83-2.21,3.83-5.02,3.94h-7.44l-0.43,1.56h17.32c1.67-0.05,4.26-1.29,5.07-3.99l2.16-7.77c0,0,1.13-4.59,6.15-4.96
				c0,0,4.86-0.27,3.78,4.86l-4.69,17.05c-0.86,3.18-3.78,5.12-6.47,5.12h-26.16l-0.43,1.56h31.23
				c18.45-0.76,30.05-13.54,34.36-21.52c0,0,3.45-6.53,10.95-7.07l1.83-0.11c0,0,0.11,0,0.16-0.11c0.11-0.32,0.43-1.56,0.43-1.62
				C323.67,28.75,323.61,28.7,323.56,28.7"/>
		</g>
		<g>
			<g>
				<defs>
					<path id="SVGID_1_" d="M260.98,0l-0.43,1.56h26.16c2.64,0.05,4.53,2,3.61,5.12l-4.69,17.05c-1.78,5.12-6.47,4.86-6.47,4.86
						c-4.8-0.43-3.45-4.96-3.45-4.96l2.16-7.82c0.65-2.64-1.19-3.88-2.86-3.94h-17.32l-0.43,1.56h7.39c2.7,0.05,3.29,2.1,2.81,3.94
						c0,0-0.92,3.24-2,7.28c-1.08,3.94-4.69,4.05-5.23,4.05H253l-0.49,1.83h6.85c0.81,0,4.48,0.16,3.4,4.1c-1.13,4.1-2,7.28-2,7.28
						c-0.54,1.83-2.21,3.83-5.02,3.94h-7.44l-0.43,1.56h17.32c1.67-0.05,4.26-1.29,5.07-3.99l2.16-7.77c0,0,1.13-4.59,6.15-4.96
						c0,0,4.86-0.27,3.78,4.86l-4.69,17.05c-0.86,3.18-3.78,5.12-6.47,5.12h-26.16l-0.43,1.56h31.23
						c18.45-0.76,30.05-13.49,34.36-21.52c0,0,3.45-6.53,10.95-7.07l1.83-0.11c0,0,0.11,0,0.16-0.11c0.11-0.32,0.43-1.56,0.43-1.62
						c0-0.05,0-0.11-0.05-0.11s-1.83-0.11-1.83-0.11c-7.23-0.54-7.07-7.07-7.07-7.07c0.11-7.98-4.48-20.77-22.49-21.52h-31.13V0z"/>
				</defs>
				<clipPath id="SVGID_00000067207555634532013240000006158702925596409262_">
					<use xlink:href="#SVGID_1_"  style="overflow:visible;"/>
				</clipPath>
				
					<rect x="251.65" y="-1.51" style="clip-path:url(#SVGID_00000067207555634532013240000006158702925596409262_);fill:#DB0F18;" width="73.2" height="31.13"/>
			</g>
		</g>
		<path class="st0" d="M43.96,31.29c-0.97-1.24-2.86-2.7-6.37-2.7H8.36L0,59.29h8.2l6.53-23.95h7.34l-6.53,23.95h8.2l6.53-23.95
			h3.18c1.29,0,2.21,0.32,2.75,0.97c0.76,0.97,0.54,2.37,0.32,3.13l-5.39,19.85h8.2l5.83-21.31C45.8,35.5,45.37,33.07,43.96,31.29"
			/>
		<path class="st0" d="M78,31.5c-1.46-1.83-3.99-2.91-6.85-2.91H53.41l-1.73,6.42h15.54c1.62,0,2.75,0.38,3.34,1.13
			c0.59,0.76,0.7,1.89,0.27,3.4l-0.32,1.19h-13c-5.88,0-10.47,3.51-12.03,9.22c-0.76,2.86-0.49,5.23,0.81,6.9
			c1.24,1.56,3.45,2.43,6.26,2.43h21.09l5.39-19.69C79.89,36.2,79.57,33.45,78,31.5 M67.11,52.87h-9.98c-0.97,0-2.27-0.05-2.86-0.81
			c-0.38-0.43-0.43-1.13-0.16-2.05c0.7-2.59,2.81-2.97,4.75-2.97h9.87L67.11,52.87z"/>
		<path class="st0" d="M125.42,31.5c-1.46-1.83-3.99-2.91-6.85-2.91h-17.75l-1.73,6.42h15.54c1.62,0,2.75,0.38,3.34,1.13
			c0.59,0.76,0.7,1.89,0.27,3.4l-0.32,1.19h-13c-5.88,0-10.47,3.51-12.03,9.22c-0.81,2.86-0.49,5.23,0.81,6.9
			c1.24,1.56,3.4,2.43,6.26,2.43h21.09l5.39-19.69C127.31,36.2,126.99,33.45,125.42,31.5 M114.58,52.87h-9.98
			c-0.97,0-2.27-0.05-2.86-0.81c-0.38-0.43-0.43-1.13-0.16-2.05c0.7-2.59,2.81-2.97,4.75-2.97h9.87L114.58,52.87z"/>
		<path class="st0" d="M154.44,28.59l-6.53,23.95h-8.09c-1.29,0-2.21-0.32-2.75-0.97c-0.76-0.97-0.49-2.43-0.32-3.18l5.39-19.8h-8.2
			l-5.61,20.55c-0.86,3.18-0.59,5.66,0.81,7.39c1.78,2.27,5.02,2.75,7.44,2.75h9.49l-0.86,3.02c-0.49,1.83-2.7,3.83-5.66,3.83H124.5
			l-1.73,6.42h17.48c4.91,0,11.54-4.26,13.22-10.3l9.17-33.61h-8.2V28.59z"/>
		<path class="st0" d="M191.23,43.16c-1.29-1.56-3.45-2.43-6.26-2.43h-8.47c-1.02,0-2.37-0.05-2.97-0.81
			c-0.32-0.43-0.38-1.08-0.16-1.94c0.7-2.59,2.86-2.97,4.86-2.97h16.35l1.73-6.42h-19.58c-5.88,0-10.47,3.56-12.03,9.22
			c-0.76,2.86-0.49,5.23,0.81,6.85c1.24,1.56,3.45,2.43,6.26,2.43h8.47c0.97,0,2.37,0.11,2.97,0.81c0.32,0.43,0.43,1.13,0.16,2
			c-0.7,2.59-2.86,2.97-4.86,2.97h-17.96l-1.73,6.42h21.2c5.88,0,10.47-3.56,12.03-9.22C192.85,47.2,192.58,44.83,191.23,43.16"/>
		<polygon class="st0" points="201.75,28.59 193.34,59.29 201.59,59.29 209.95,28.59 		"/>
		<path class="st0" d="M240.16,31.5c-1.46-1.83-3.99-2.91-6.85-2.91h-17.75l-1.73,6.42h15.54c1.62,0,2.75,0.38,3.34,1.13
			c0.59,0.76,0.7,1.89,0.27,3.4l-0.32,1.19h-13c-5.88,0-10.47,3.51-12.03,9.22c-0.81,2.86-0.49,5.23,0.81,6.9
			c1.24,1.56,3.45,2.43,6.26,2.43h21.04l5.39-19.69C242.05,36.2,241.73,33.45,240.16,31.5 M229.26,52.87h-9.98
			c-0.97,0-2.27-0.05-2.86-0.81c-0.38-0.43-0.43-1.13-0.16-2.05c0.7-2.59,2.81-2.97,4.75-2.97h9.87L229.26,52.87z"/>
		<polygon class="st0" points="89.01,20.28 78.33,59.29 86.58,59.29 97.21,20.28 		"/>
		<path class="st0" d="M168.58,67.11c-0.7-0.92-2-1.02-2.37-1.02h-8.9l-0.54,1.94h8.15c0.65,0,1.19,0.22,1.51,0.59
			c0.22,0.32,0.22,0.81,0.11,1.24c-0.11,0.43-0.49,1.67-0.49,1.67h-6.2c-2.91,0-4.96,1.46-5.61,4.26c-0.32,1.29,0,2.27,0.54,2.97
			c0.54,0.76,1.67,1.13,3.13,1.13h8.31l2.64-9.82C169.17,68.83,169.12,67.81,168.58,67.11 M164.32,78h-5.39
			c-1.02,0-1.67-0.22-2-0.65c-0.27-0.38-0.38-0.86-0.22-1.56c0.43-1.51,1.56-2.27,3.34-2.27h5.5L164.32,78z"/>
		<polygon class="st0" points="170.9,79.95 174.67,66.14 172.3,66.14 168.52,79.95 		"/>
		<polygon class="st0" points="184.33,79.95 189.13,62.31 186.76,62.31 181.96,79.95 		"/>
		<polygon class="st0" points="189.08,79.95 192.8,66.14 190.42,66.14 186.7,79.95 		"/>
		<path class="st0" d="M202.35,66.14h-7.17l-3.72,13.81h2.37l3.24-11.87h4.42c0.97,0,1.62,0.22,2,0.7c0.43,0.59,0.27,1.4-0.05,2.54
			l-2.32,8.58h2.43l2.48-9.28c0.43-1.51,0.27-2.64-0.32-3.4C205.1,66.51,203.96,66.14,202.35,66.14"/>
		<path class="st0" d="M210.22,71.8c0.59-1.56,2.21-3.72,5.07-3.72h4.8l0.54-1.94h-5.66c-4.1,0-6.85,3.51-7.77,6.96
			c-0.59,2.21-0.43,4.15,0.54,5.39c0.76,0.97,1.89,1.46,3.45,1.46h5.66L217.4,78h-4.91c-1.19,0-2.1-0.27-2.59-0.86
			c-0.59-0.7-0.65-1.94-0.32-3.18l0.05-0.11h8.58l0.54-1.89h-8.58L210.22,71.8z"/>
		<path class="st0" d="M233.96,68.13l0.54-1.94h-7.55c-3.88,0-5.12,2.48-5.56,3.99c-0.27,1.08-0.11,2,0.32,2.59
			c0.54,0.7,1.4,1.08,2.91,1.08h3.72c2.27,0,1.89,1.67,1.73,2.21c-0.54,1.73-2.43,1.89-4.37,1.89h-6.47l-0.54,1.94h9.12
			c2.32,0,4.26-1.46,4.86-3.94c0.27-1.19,0.05-2.21-0.54-2.91c-0.54-0.65-1.4-1.13-2.97-1.13h-3.18c-0.32,0-1.35,0.05-1.73-0.54
			c-0.22-0.38-0.27-0.76-0.05-1.35c0.49-1.67,2.1-1.94,2.81-1.94h6.96V68.13z"/>
		<path class="st0" d="M180.93,66.08c-4.15,0-4.96,3.83-5.02,4.15c-0.05,0.27-2.64,9.76-2.64,9.76h2.37c0,0,2.48-9.12,2.54-9.39
			c0.16-0.43,0.81-2.48,3.13-2.48h2l0.54-2h-2.91V66.08z"/>
	</g>
</g>
</svg>
