<?xml version="1.0" encoding="utf-8"?>
<!-- Generator: Adobe Illustrator 25.4.1, SVG Export Plug-In . SVG Version: 6.00 Build 0)  -->
<svg version="1.1" id="Layer_1" xmlns="http://www.w3.org/2000/svg" xmlns:xlink="http://www.w3.org/1999/xlink" x="0px" y="0px"
	 viewBox="0 0 103.3 80" style="enable-background:new 0 0 103.3 80;" xml:space="preserve">
<style type="text/css">
	.st0{fill:#D62A74;}
	.st1{fill:#1A6EAF;}
</style>
<path class="st0" d="M82.7,41c-2.5,7.6-5.2,14-7.7,19.2c-6.2,12.7-11.5,18.3-11.5,18.3s-18.1-4.1-30.1-26.1
	c-11.9-22-13.1-29.8-13.1-29.8s7.6,5.6,19.7,3.2c0.3-0.1,0.6-0.1,0.9-0.2c12.3-2.9,34.4-17.5,39.9-24C80.8,1.7,91.3,14.7,82.7,41z"
	/>
<path class="st1" d="M103.3,71.8c-18.5,12.9-39.8,6.6-39.8,6.6s5.3-5.6,11.5-18.3L103.3,71.8z"/>
<path class="st1" d="M40.9,25.6c-0.3,0.1-0.6,0.1-0.9,0.2c-12.1,2.4-19.7-3.2-19.7-3.2C11.2,5.2,0,1,0,1C18.5-6,40.9,25.6,40.9,25.6
	z"/>
</svg>
