<?xml version="1.0" encoding="utf-8"?>
<!-- Generator: Adobe Illustrator 25.4.1, SVG Export Plug-In . SVG Version: 6.00 Build 0)  -->
<svg version="1.1" id="Layer_1" xmlns="http://www.w3.org/2000/svg" xmlns:xlink="http://www.w3.org/1999/xlink" x="0px" y="0px"
	 viewBox="0 0 423.6 80" style="enable-background:new 0 0 423.6 80;" xml:space="preserve">
<style type="text/css">
	.st0{fill:#D62A74;}
	.st1{fill:#414042;}
	.st2{fill:#1A1A1A;}
	.st3{fill:#1A6EAF;}
</style>
<g>
	<path class="st0" d="M140.3,56.7c-0.4,0-0.8,0.1-1.2,0.3v0l0,0c-0.4,0.2-0.8,0.6-1,1l-7.7,7.5l-7.1-7.7c-0.1-0.2-0.3-0.4-0.5-0.6
		l0,0v0c-0.4-0.3-1-0.5-1.6-0.5c-1.4,0-2.5,1.1-2.5,2.5v1.4v12.4v6.5h5v-6.5v-6.1l6.7,6.7l7.3-7v6.4v6.5h5v-6.5V60.7v-1.4
		C142.8,57.9,141.7,56.7,140.3,56.7z"/>
	<path class="st1" d="M189.3,63.8v5.9l-7.2-7.5l-7,7.2v-5.6v-7h-5v7v10.7v2c0,1.4,1.1,2.5,2.5,2.5c0.6,0,1.1-0.2,1.6-0.5v0l0,0
		c0.2-0.2,0.4-0.4,0.5-0.6l7.5-8l7.9,8.4c0,0,0,0,0,0l0,0l0,0c0.5,0.5,1.1,0.7,1.8,0.7c1.4,0,2.5-1.1,2.5-2.5v-2V63.8v-7h-5V63.8z"
		/>
	<path class="st1" d="M292.1,56.7c-1.4,0-2.5,1.1-2.5,2.5v2.6V72v7.6h5V72V61.8v-2.6C294.6,57.9,293.5,56.7,292.1,56.7z"/>
	<path class="st1" d="M327.8,72V61.8v-2.6c0-1.4-1.1-2.5-2.5-2.5c-1.4,0-2.5,1.1-2.5,2.5v2.6V72v7.6h2.5h2.5h13.3v-5.1h-13.3V72z"/>
	<path class="st1" d="M345.4,56.7c-1.4,0-2.5,1.1-2.5,2.5v2.6V72v7.6h5V72V61.8v-2.6C347.9,57.9,346.8,56.7,345.4,56.7z"/>
	<path class="st1" d="M369.7,64.3v6.7l-13.9-13.3c-0.2-0.2-0.3-0.4-0.5-0.5l0,0v0c-0.4-0.3-0.9-0.5-1.4-0.5c-1.4,0-2.5,1.1-2.5,2.5
		v2.6V72v7.6h5V72v-6.3l14.1,13.2c0.5,0.5,1.1,0.8,1.8,0.8c1.4,0,2.5-1.1,2.5-2.5v-2.6V64.3v-7.6h-5V64.3z"/>
	<path class="st1" d="M165.5,56.9c-0.6-0.6-1.6-0.6-2.3,0l-7.1,7l-7.1-7c-0.6-0.6-1.6-0.6-2.3,0l-1.5,1.5c-0.7,0.7-0.7,1.8,0,2.4
		l8.4,8.7v10h5v-9.9l8.5-8.8c0.7-0.7,0.6-1.8,0-2.4L165.5,56.9z"/>
	<path class="st1" d="M239.5,56.9c-0.6-0.6-1.6-0.6-2.3,0l-7.1,7l-7.1-7c-0.6-0.6-1.6-0.6-2.3,0l-1.5,1.5c-0.7,0.7-0.7,1.8,0,2.4
		l8.4,8.7v10h5v-9.9l8.5-8.8c0.7-0.7,0.6-1.8,0-2.4L239.5,56.9z"/>
	<path class="st1" d="M208.1,56.7c-10.7,0-11,10.2-11,10.2v12.6h5V66.9c0,0,0.3-4.8,5.8-4.8c5.4,0,6,4.8,6,4.8v4.1h-7.2
		c-1.4,0-2.5,1.1-2.5,2.5c0,1.4,1.1,2.5,2.5,2.5h7.2v3.5h5V66.9C219,66.9,218.8,56.7,208.1,56.7z"/>
	<path class="st2" d="M394,66h-6.6c-1.1,0-2,0.9-2,2c0,1.1,0.9,2,2,2h6.6c1.1,0,2-0.9,2-2C396,66.9,395.1,66,394,66z"/>
	<path class="st1" d="M398.2,59.7c0-1.4-1.1-2.5-2.5-2.5H388l0,0c0,0,0,0,0,0h-0.1c-0.2,0-0.3,0-0.5,0c-2.2,0.2-9.6,1.7-9.6,10.8
		c0,9,7.2,10.6,9.5,10.9c0.2,0,0.4,0.1,0.6,0.1h7.8c1.4,0,2.5-1.1,2.5-2.5c0-1.4-1.1-2.5-2.5-2.5H388l0,0c0,0-4.8-0.3-4.8-5.8
		c0-5.4,4.8-6,4.8-6h7.7C397,62.2,398.2,61.1,398.2,59.7z"/>
	<path class="st3" d="M274.9,56.7c-10.7,0-11,10.2-11,10.2v12.6h5V66.9c0,0,0.3-4.8,5.8-4.8s6,4.8,6,4.8v4.1h-7.2
		c-1.4,0-2.5,1.1-2.5,2.5c0,1.4,1.1,2.5,2.5,2.5h7.2v3.5h5V66.9C285.8,66.9,285.6,56.7,274.9,56.7z"/>
	<path class="st1" d="M313.8,70.3c0,0,5.5-0.2,5.5-5.7c0-5.5-3.7-8.2-6.7-8.2c-2.2,0-6.9,0-9.4,0h-1.5h-3.5v23.1h5V61.8h7.6
		c0,0,3.7-0.1,3.7,1.9c0,1.9-1.7,1.9-3.4,1.9c-1.5,0-4.1-0.5-5.3,0.7c-1.1,1-0.2,2.7,0.6,3.6c1.3,1.5,9.5,9.4,9.5,9.4
		s1.1,1.4,2.5,0.3s2-2.4,0.9-3.5C318.3,75,313.8,70.3,313.8,70.3z"/>
	<path class="st1" d="M416.9,65.3h-7.2h-1.1c0,0-1.6,0-1.6-1.8c0-1.8,1.6-1.9,2.4-1.9c0.3,0,0.8,0,1.3,0c0.1,0,0.3,0,0.4,0h7.8
		c1.4,0,2.5-1.1,2.5-2.5c0-1.4-1.1-2.5-2.5-2.5h-7.5h-0.3h-2.5c0,0-6.1-0.1-6.1,7.1s7.2,6.6,7.2,6.6h7.2c0,0,1.9-0.1,1.9,2
		c0,2.1-2.6,1.7-2.6,1.7h-12.9v5h12.9c0,0,7.4,0.9,7.4-6.6C423.6,64.9,416.9,65.3,416.9,65.3z"/>
	<path class="st0" d="M82.7,41c-2.5,7.6-5.2,14-7.7,19.2c-6.2,12.7-11.5,18.3-11.5,18.3s-18.1-4.1-30.1-26.1
		c-11.9-22-13.1-29.8-13.1-29.8s7.6,5.6,19.7,3.2c0.3-0.1,0.6-0.1,0.9-0.2c12.3-2.9,34.4-17.5,39.9-24C80.8,1.7,91.3,14.7,82.7,41z"
		/>
	<path class="st3" d="M103.3,71.8c-18.5,12.9-39.8,6.6-39.8,6.6s5.3-5.6,11.5-18.3L103.3,71.8z"/>
	<path class="st3" d="M40.9,25.6c-0.3,0.1-0.6,0.1-0.9,0.2c-12.1,2.4-19.7-3.2-19.7-3.2C11.2,5.2,0,1,0,1
		C18.5-6,40.9,25.6,40.9,25.6z"/>
</g>
</svg>
