<?xml version="1.0" encoding="utf-8"?>
<!-- Generator: Adobe Illustrator 25.4.1, SVG Export Plug-In . SVG Version: 6.00 Build 0)  -->
<svg version="1.1" id="Layer_4" xmlns="http://www.w3.org/2000/svg" xmlns:xlink="http://www.w3.org/1999/xlink" x="0px" y="0px"
	 viewBox="0 0 421.8 80.27" style="enable-background:new 0 0 421.8 80.27;" xml:space="preserve">
<style type="text/css">
	.st0{fill:#C1012F;}
</style>
<g>
	<path id="path6" class="st0" d="M97.81,6.05c29.65-9.73,62.54-7.35,91.11,4.54c14.72,5.63,27.7,15.37,42.86,19.92
		c27.49,8.87,56.71,7.57,85.06,6.93c23.16-0.22,47.18,10.83,59.74,30.73c-9.09-4.54-18.82-9.31-29.21-9.09
		c-19.48-0.22-36.79,10.61-55.19,14.93c-13.21,3.68-26.83,3.46-40.26,3.04c-11.03-0.44-21.86-3.46-32.89-4.12
		c-17.32-1.08-34.41,1.94-51.51,3.24C111.89,80.7,55.63,82.22,0,75.08c65.58-0.64,131.8-0.64,196.07-15.8
		c9.95-2.6,19.92-5.41,29.21-9.73c-20.78-4.98-39.82-15.37-57.78-26.83C146.94,9.5,122.05,3.45,97.81,6.05z"/>
	<path id="path8" class="st0" d="M350.17,9.72c24.24-3.68,50.85-0.86,71.63,12.99c-7.14-1.74-14.07-4.33-21.2-4.76
		c-21.2-1.94-42.64,4.54-61.04,14.72c-3.68,2.6-8.01,0.64-11.91,0.22c-13.85-2.38-27.91-0.44-41.98-0.44
		C305.79,21.85,327.65,13.84,350.17,9.72z"/>
</g>
</svg>
