<?xml version="1.0" encoding="utf-8"?>
<!-- Generator: Adobe Illustrator 25.4.1, SVG Export Plug-In . SVG Version: 6.00 Build 0)  -->
<svg version="1.1" id="Layer_4" xmlns="http://www.w3.org/2000/svg" xmlns:xlink="http://www.w3.org/1999/xlink" x="0px" y="0px"
	 viewBox="0 0 360.67 80.27" style="enable-background:new 0 0 360.67 80.27;" xml:space="preserve">
<style type="text/css">
	.st0{fill:#C1012F;}
</style>
<g id="_x23_c1012fff">
	<path id="path6" class="st0" d="M182.3,2.72c13.35-4.38,28.16-3.31,41.02,2.04c6.63,2.54,12.47,6.92,19.29,8.97
		c12.38,3.99,25.53,3.41,38.29,3.12c10.43-0.1,21.24,4.87,26.9,13.84c-4.09-2.04-8.47-4.19-13.15-4.09
		c-8.77-0.1-16.56,4.78-24.85,6.72c-5.95,1.66-12.08,1.56-18.13,1.37c-4.97-0.2-9.84-1.56-14.81-1.85
		c-7.8-0.49-15.49,0.87-23.19,1.46c-25.04,2.04-50.38,2.73-75.42-0.49c29.52-0.29,59.34-0.29,88.27-7.11
		c4.48-1.17,8.97-2.44,13.15-4.38c-9.36-2.24-17.93-6.92-26.02-12.08C204.42,4.28,193.21,1.55,182.3,2.72z"/>
	<path id="path8" class="st0" d="M295.91,4.38c10.91-1.66,22.89-0.39,32.25,5.85c-3.21-0.78-6.33-1.95-9.55-2.14
		c-9.55-0.87-19.2,2.04-27.48,6.63c-1.66,1.17-3.61,0.29-5.36,0.1c-6.23-1.07-12.57-0.2-18.9-0.2
		C275.93,9.84,285.77,6.23,295.91,4.38z"/>
	<path id="path10" class="st0" d="M6.72,55.24c5.95-0.58,11.88-0.1,17.83-0.29c2.14,0.1,4.58-0.39,6.33,1.07
		c1.56,1.37,1.07,3.8,0.78,5.55c-1.27,6.04-2.63,11.98-3.8,18.03C21.44,79.89,15,79.8,8.57,79.7c-3.02-0.29-6.82-0.87-8.28-3.9
		c-1.37-4.38,2.34-8.57,6.43-9.36c5.85-1.17,11.79-1.46,17.64-2.24c0.29-1.66,0.78-4.19-1.46-4.68c-5.65-0.49-11.4,0-17.05-0.2
		C6.23,57.97,6.42,56.61,6.72,55.24 M9.45,70.34c-1.75,0.1-3.8,1.56-3.31,3.61c0.68,1.46,2.44,1.66,3.9,1.75c3.9,0.1,7.8,0,11.79,0
		c0.68-2.24,1.07-4.58,1.46-6.92C18.7,69.17,14.03,69.76,9.45,70.34z"/>
	<path id="path12" class="st0" d="M38.87,57.97c0.39-0.97,0.2-2.24,1.07-2.92c2.14-0.2,4.29-0.1,6.33,0
		c-1.37,7.31-3.12,14.52-4.58,21.82c-0.29,0.97-0.39,2.34-1.46,2.73c-1.95,0.29-3.99,0.2-5.95,0.1
		C35.75,72.48,37.41,65.28,38.87,57.97z"/>
	<path id="path14" class="st0" d="M52.81,55.05c6.23-0.1,12.47,0,18.8,0c3.21,0.1,7.02,0.68,8.97,3.61
		c1.75,2.73,0.49,6.23-1.56,8.38c-1.75,1.95-4.38,2.63-6.82,3.41c1.95,3.21,4.29,6.14,6.23,9.45c-2.44,0.1-4.97,0.1-7.4,0
		c-2.04-2.92-3.99-5.85-6.14-8.67c-3.02,0.2-5.95,0.49-8.97,0.97c-0.49,2.63-0.97,5.26-1.66,7.8c-2.24,0-4.48,0-6.72-0.1
		C49.3,71.51,50.95,63.23,52.81,55.05 M58.65,59.43c-0.58,2.63-1.17,5.26-1.56,7.89c5.06-0.49,10.04-1.07,15.1-1.66
		c2.24-0.1,3.99-2.44,3.21-4.68c-0.87-1.56-2.92-1.85-4.58-1.75C66.84,59.33,62.75,59.23,58.65,59.43z"/>
	<path id="path16" class="st0" d="M104.93,55.05c10.13-0.2,20.27,0,30.4-0.1c1.75,0,3.99-0.1,5.26,1.56
		c1.17,1.37,0.68,3.41,0.49,5.06c-1.27,6.04-2.63,12.08-3.8,18.13c-2.24,0.2-4.58,0.2-6.82,0.1c1.17-5.65,2.34-11.21,3.61-16.76
		c0.29-1.17,0.2-2.34,0.2-3.51c-2.63-0.2-5.26-0.29-7.89,0c-1.37,6.72-2.92,13.45-4.19,20.17c-2.34,0.2-4.58,0.2-6.92,0.1
		c1.07-5.55,2.34-11.11,3.51-16.66c0.29-1.17,0.2-2.34,0.2-3.51c-2.63-0.29-5.26-0.29-7.89-0.1c-1.37,6.72-2.92,13.45-4.19,20.27
		c-2.24,0.2-4.58,0.2-6.82,0.1C101.33,71.51,103.18,63.33,104.93,55.05z"/>
	<path id="path18" class="st0" d="M148.49,55.14c6.92-0.29,13.93-0.1,20.95-0.1c2.54-0.29,4.87,1.95,4.38,4.58
		c-1.17,6.72-2.82,13.35-4.09,20.17c-5.16,0.39-10.33,0.1-15.49,0.2c-3.99-0.1-9.06,0.1-11.79-3.41c-2.04-4.29,1.66-8.97,5.85-9.84
		c5.95-1.27,11.98-1.46,18.03-2.34c0.1-1.37,0.58-2.92-0.29-4.09c-1.37-0.87-3.02-0.78-4.48-0.78c-4.58,0-9.16,0-13.74,0
		C148,57.97,148.19,56.51,148.49,55.14 M151.22,70.34c-1.75,0.2-3.61,1.46-3.41,3.41c0.58,1.66,2.63,1.85,4.09,1.85
		c3.9,0,7.8,0,11.69,0c0.58-2.24,1.07-4.58,1.46-6.92C160.37,69.17,155.8,69.76,151.22,70.34z"/>
	<path id="path20" class="st0" d="M181.13,55.14c2.24-0.2,4.58-0.2,6.92-0.1c-1.17,5.85-2.44,11.69-3.71,17.54
		c-0.1,0.97-0.68,2.24,0.39,2.92c3.8,0.29,7.6,0.2,11.4,0.1c1.27,0.1,2.34-0.68,2.54-1.95c1.46-6.14,2.54-12.47,4.09-18.61
		c2.24-0.1,4.48-0.1,6.72,0c-1.27,6.53-2.73,13.05-4.09,19.68c-0.39,2.44-2.04,5.26-4.87,5.16c-5.85,0.2-11.6,0-17.44,0.1
		c-1.75-0.1-3.9,0.2-5.16-1.37c-1.07-1.27-0.97-3.02-0.68-4.48C178.5,67.71,179.96,61.47,181.13,55.14z"/>
	<path id="path22" class="st0" d="M215.91,55.14c5.95-0.39,11.98-0.1,17.93-0.2c3.51,0,7.6,0.49,9.84,3.41
		c1.75,2.54,0.78,6.04-1.27,8.19c-1.75,2.14-4.58,2.92-7.11,3.71c2.14,3.21,4.38,6.33,6.53,9.45c-2.54,0.1-5.16,0.1-7.7-0.1
		c-1.95-2.92-3.99-5.85-6.14-8.77c-2.82,0.39-5.65,0.49-8.38,0.97c-1.37,2.24-1.27,5.16-1.95,7.7c-2.24,0.2-4.58,0.2-6.92,0.1
		C212.4,71.51,214.26,63.33,215.91,55.14 M220.2,67.32c4.97-0.39,9.94-0.97,14.91-1.56c2.44-0.1,4.48-2.63,3.31-4.97
		c-1.27-1.66-3.51-1.46-5.26-1.46c-3.61,0.1-7.21-0.1-10.71,0.1C220.69,61.57,220.98,64.79,220.2,67.32z"/>
	<path id="path24" class="st0" d="M250.6,55.05c2.24-0.1,4.48-0.1,6.82-0.1c-1.37,7.4-3.12,14.62-4.58,22.02
		c-0.29,0.97-0.39,2.63-1.75,2.73c-1.85,0.29-3.71,0.1-5.55,0.1C246.99,71.51,248.94,63.33,250.6,55.05z"/>
	<path id="path26" class="st0" d="M259.07,59.33c0.29-1.66,0.49-4.68,2.92-4.29c8.47,0,16.86-0.1,25.33,0.1
		c-0.49,1.37-0.29,3.31-1.75,4.09c-3.21,0.49-6.43,0-9.64,0.29c-1.66,6.72-2.44,13.64-4.68,20.27c-2.14,0.2-4.29,0.2-6.43,0.1
		c1.27-6.82,3.02-13.55,4.19-20.37C265.7,59.33,262.39,59.33,259.07,59.33z"/>
	<path id="path28" class="st0" d="M290.26,55.05c2.24,0,4.38,0,6.63,0c-1.27,7.11-2.92,14.13-4.38,21.14
		c-0.29,1.07-0.39,2.44-1.17,3.31c-2.04,0.68-4.29,0.29-6.33,0.29C286.65,71.51,288.41,63.23,290.26,55.05z"/>
	<path id="path30" class="st0" d="M303.41,55.05c2.24-0.1,4.48-0.1,6.72,0c-1.17,6.82-3.21,13.45-3.9,20.37
		c4.09,0.49,8.19,0.29,12.28,0.2c1.27,0.1,2.24-0.87,2.34-2.14c1.46-6.14,2.44-12.47,4.09-18.51c2.24,0,4.38,0,6.63,0.1
		c-1.07,6.14-2.54,12.08-3.8,18.22c-0.49,1.95-0.78,4.19-2.44,5.55c-1.46,1.37-3.61,1.07-5.46,1.07c-5.75-0.1-11.6,0.1-17.34-0.1
		c-2.44,0-3.9-2.73-3.31-4.87C300.49,68.2,302.05,61.67,303.41,55.05z"/>
	<path id="path32" class="st0" d="M335.56,66.35c-3.8-3.61-0.78-10.33,4.09-11.01c6.23-0.78,12.57-0.29,18.9-0.29
		c-0.29,1.37-0.49,2.82-0.68,4.19c-5.36,0.29-10.81-0.1-16.08,0.2c-2.63,0.1-2.92,4.29-0.39,4.87c5.06,1.56,10.71,0.97,15.59,3.31
		c2.54,1.07,4.38,4.09,3.41,6.82c-1.17,3.8-5.55,5.16-9.16,5.36c-6.23,0.1-12.47,0.1-18.8,0c0.29-1.37,0.58-2.73,0.87-4.09
		c5.75-0.1,11.5,0.1,17.24-0.1c1.46-0.1,3.41-0.68,3.51-2.44c0.29-1.17-0.78-2.14-1.75-2.54C346.77,68.98,340.24,70.24,335.56,66.35
		z"/>
</g>
</svg>
