<?xml version="1.0" encoding="utf-8"?>
<!-- Generator: Adobe Illustrator 25.4.1, SVG Export Plug-In . SVG Version: 6.00 Build 0)  -->
<svg version="1.1" id="Layer_1" xmlns="http://www.w3.org/2000/svg" xmlns:xlink="http://www.w3.org/1999/xlink" x="0px" y="0px"
	 viewBox="0 0 255.32 80" style="enable-background:new 0 0 255.32 80;" xml:space="preserve">
<style type="text/css">
	.st0{fill:#9B308C;}
</style>
<g>
	<path class="st0" d="M22.13,40c0-5.82-2.13-11.21-5.67-15.32c-3.55,4.11-5.67,9.5-5.67,15.32v0.28V80h11.21V40.57
		C22.13,40.28,22.13,40.14,22.13,40"/>
	<path class="st0" d="M34.61,16.31c-6.24,0-11.77,2.41-16.03,6.24l0.14,0.28c2.55,2.98,4.4,6.52,5.39,10.35
		c2.27-3.4,6.1-5.53,10.35-5.53c6.95,0,12.48,5.67,12.48,12.48c0,6.95-5.67,12.48-12.48,12.48c-3.83,0-7.23-1.7-9.5-4.4v13.62
		c2.98,1.28,6.1,1.99,9.5,1.99c13.05,0,23.69-10.64,23.69-23.69C58.3,26.95,47.66,16.31,34.61,16.31"/>
	<path class="st0" d="M94.89,47.23c-2.27,3.26-5.96,5.39-10.21,5.39c-5.39,0-10.07-3.55-11.77-8.37h19.15h16.03
		c0.28-1.28,0.43-2.7,0.43-4.11c0-13.05-10.64-23.69-23.69-23.69S61.13,27.09,61.13,40.14s10.64,23.69,23.69,23.69
		c10.64,0,19.57-6.95,22.7-16.6L94.89,47.23z M84.68,27.52c4.96,0,9.22,2.98,11.35,7.09h-22.7C75.32,30.35,79.72,27.52,84.68,27.52"
		/>
	<path class="st0" d="M0,16.31v11.35c3.55,0.57,6.67,2.55,8.65,5.53c0.99-3.83,2.84-7.38,5.39-10.35l0.14-0.28
		C10.5,19.01,5.53,16.74,0,16.31"/>
	<path class="st0" d="M194.47,48.09c-2.27,2.7-5.82,4.54-9.65,4.54c-6.95,0-12.48-5.67-12.48-12.48s5.67-12.48,12.48-12.48
		c3.83,0,7.38,1.7,9.65,4.54h12.77c-3.26-9.22-12.06-15.74-22.41-15.74c-13.05,0-23.69,10.64-23.69,23.69s10.64,23.69,23.69,23.69
		c10.35,0,19.01-6.52,22.41-15.74L194.47,48.09z"/>
	<path class="st0" d="M158.44,39.86c0-13.05-10.64-23.69-23.69-23.69s-23.69,10.64-23.69,23.69s10.64,23.69,23.69,23.69
		c3.4,0,6.67-0.71,9.5-1.99V47.94c-2.27,2.7-5.67,4.4-9.5,4.4c-6.95,0-12.48-5.67-12.48-12.48c0-6.95,5.67-12.48,12.48-12.48
		c6.95,0,12.48,5.53,12.48,12.48V62.7h11.21V39.86z"/>
	<path class="st0" d="M211.21,0h11.21v62.84h-11.21V0z"/>
	<path class="st0" d="M255.32,39.86c0-13.05-9.93-23.69-22.13-23.69c-2.7,0-5.39,0.57-7.8,1.56v13.62c1.99-2.41,4.82-3.83,7.8-3.83
		c5.96,0,10.78,5.67,10.78,12.48v22.84h11.21L255.32,39.86z"/>
</g>
</svg>
