<?xml version="1.0" encoding="utf-8"?>
<!-- Generator: Adobe Illustrator 25.4.1, SVG Export Plug-In . SVG Version: 6.00 Build 0)  -->
<svg version="1.1" id="Layer_1" xmlns="http://www.w3.org/2000/svg" xmlns:xlink="http://www.w3.org/1999/xlink" x="0px" y="0px"
	 viewBox="0 0 76.23 80" style="enable-background:new 0 0 76.23 80;" xml:space="preserve">
<style type="text/css">
	.st0{fill:#01145C;}
</style>
<g>
	<g id="path5431">
		<path class="st0" d="M35.29,40c0,1.65,1.27,2.98,2.83,2.98c1.56,0,2.83-1.33,2.83-2.98c0-1.65-1.27-2.98-2.83-2.98
			C36.56,37.02,35.29,38.35,35.29,40 M32.61,30.93c-0.62-1.05-1.33-2.76-1.99-4.87c-0.97-3.09-2.1-4.52-4.08-5.36
			c-1.98-0.85-3.66,0.09-4.59,0.04c-0.93-0.06-0.47-0.81-0.47-0.81c0.6-2.02,3.56-4.99,5.73-6.63c-6.07,2.76-11.01,7.76-13.9,14.01
			c0.15-0.23,0.3-0.27,0.45-0.09c0.08,0.1,0.16,0.2,0.25,0.29c0.93,0.98,2.01,0.99,3.23,0.2c1.34-0.86,5.89-2.39,8.02,1.82
			c1.28,2.53,3.01,3.99,4.19,4.75C30.27,32.93,31.34,31.79,32.61,30.93 M38.73,29.25c0.28-1.15,1.21-3.05,2.58-5.23
			c1.71-2.7,2.08-4.53,1.49-6.7c-0.59-2.17-2.32-2.98-2.85-3.79c-0.53-0.81,0.32-0.89,0.32-0.89c2.32-0.92,7.97,0.26,10,1.27
			c-3.67-1.91-7.8-2.98-12.17-2.98c-2.97,0-5.83,0.49-8.5,1.41c-0.01,0.19-0.02,0.32-0.01,0.44c0.02,1.39,0.79,2.18,2.19,2.52
			c1.53,0.36,5.81,2.6,4.57,7.19c-0.82,3.05-0.39,5.56,0,6.9c0.57-0.1,1.16-0.16,1.76-0.16C38.32,29.23,38.53,29.24,38.73,29.25
			 M46.13,33.33c1-0.59,2.84-1.24,5.14-1.77c3.01-0.69,4.48-1.73,5.48-3.72c1.01-1.99,0.3-3.84,0.44-4.81
			c0.15-0.97,0.82-0.41,0.82-0.41c2,0.92,4.78,4.87,5.97,7.33C61.55,23,56.68,17.3,50.46,14.01c0.52,0.29,0.73,0.56,0.44,0.76
			c-0.11,0.07-0.21,0.15-0.3,0.23c-1.02,0.87-1.14,2-0.53,3.37c0.67,1.5,1.63,6.43-2.56,8.23c-2.43,1.04-3.97,2.63-4.83,3.78
			C44.04,31.08,45.21,32.1,46.13,33.33 M48.28,41c1.1,0.27,2.91,1.18,4.99,2.53c2.62,1.71,4.36,2.03,6.4,1.34
			c2.03-0.7,2.74-2.55,3.49-3.14c0.75-0.59,0.86,0.3,0.86,0.3c0.75,1.91,0.33,6.06-0.31,8.79c1.27-3.34,1.97-7,1.97-10.82
			c0-2.87-0.39-5.64-1.13-8.26c-0.03,0.15-0.12,0.22-0.29,0.19c-0.13-0.03-0.25-0.04-0.37-0.06c-1.31-0.12-2.14,0.6-2.6,2.04
			c-0.5,1.57-3.06,5.82-7.25,4.05c-2.5-1.06-4.71-1.01-6.07-0.8c0.23,0.9,0.36,1.86,0.36,2.84C48.32,40.34,48.31,40.67,48.28,41
			 M44.61,48.31c0.61,1.02,1.3,2.97,1.89,5.42c0.76,3.15,1.8,4.66,3.72,5.65c1.92,0.99,3.65,0.18,4.58,0.3
			c0.92,0.12,0.42,0.85,0.42,0.85c-0.72,1.92-3.74,4.6-6.01,6.09c5.74-2.67,10.46-7.34,13.35-13.19c-0.07,0-0.13-0.04-0.19-0.13
			c-0.07-0.11-0.15-0.21-0.23-0.31c-0.86-1.05-1.94-1.13-3.21-0.44c-1.39,0.76-6.03,1.95-7.88-2.41c-1.13-2.66-2.79-4.25-3.92-5.08
			C46.49,46.32,45.64,47.42,44.61,48.31 M37.73,50.76c-0.22,1.18-1.01,3.11-2.22,5.33c-1.52,2.82-1.77,4.67-1.04,6.79
			c0.73,2.12,2.51,2.8,3.09,3.57c0.58,0.77-0.26,0.92-0.26,0.92c-1.91,0.92-6.32,0.52-8.89-0.15c3.02,1.2,6.29,1.85,9.7,1.85
			c2.98,0,5.85-0.5,8.53-1.42c-0.04-0.05-0.05-0.12-0.04-0.22c0.02-0.13,0.03-0.26,0.04-0.39c0.07-1.39-0.65-2.24-2.02-2.67
			c-1.5-0.48-5.62-3.02-4.08-7.5c0.94-2.76,0.79-5.13,0.52-6.56c-0.93,0.29-1.92,0.45-2.95,0.45L37.73,50.76L37.73,50.76z M6.69,40
			c0-18.25,14.07-33.05,31.43-33.05c17.36,0,31.43,14.8,31.43,33.05c0,18.25-14.07,33.04-31.43,33.04
			C20.76,73.04,6.69,58.25,6.69,40 M30.19,46.8c-1.02,0.61-2.65,1.29-4.63,1.9c-2.96,0.91-4.35,2.06-5.22,4.12
			c-0.87,2.06-0.04,3.86-0.13,4.83c-0.08,0.98-0.79,0.47-0.79,0.47c-3.09-1.15-8.39-9.02-6.85-8.83c0.13,0.01,0.25,0.02,0.37,0.03
			c1.32,0.03,2.1-0.76,2.46-2.23c0.4-1.6,2.67-6.03,6.97-4.57c2.44,0.83,4.54,0.68,5.9,0.4c-0.25-0.93-0.38-1.9-0.38-2.91
			c0-0.57,0.04-1.13,0.12-1.68c-1.13-0.31-2.73-1.02-4.53-2.02c-2.73-1.51-4.49-1.71-6.47-0.86c-1.98,0.84-2.57,2.74-3.27,3.38
			c-0.71,0.64-0.88-0.24-0.88-0.24c-1.11-2.35-0.59-8.42,0.16-10.65c-1.59,3.68-2.48,7.76-2.48,12.06
			c0,11.67,6.52,21.74,15.94,26.37c-0.07-0.12-0.06-0.23,0.07-0.33c0.1-0.08,0.2-0.16,0.28-0.25c0.96-0.95,1.01-2.08,0.3-3.4
			c-0.77-1.44-2.06-6.29,2-8.39c2.43-1.25,3.87-3.02,4.63-4.23C32.39,49.07,31.16,48.05,30.19,46.8"/>
	</g>
	<g id="path5435">
		<path class="st0" d="M38.11,80C17.1,80,0,62.06,0,40C0,17.94,17.1,0,38.11,0c21.02,0,38.12,17.94,38.12,40
			C76.23,62.06,59.13,80,38.11,80z M38.11,3.06C18.79,3.06,3.06,19.63,3.06,40c0,20.37,15.73,36.94,35.05,36.94
			c19.33,0,35.06-16.57,35.06-36.94C73.17,19.63,57.44,3.06,38.11,3.06z"/>
	</g>
</g>
</svg>
