<?xml version="1.0" encoding="utf-8"?>
<!-- Generator: Adobe Illustrator 25.4.1, SVG Export Plug-In . SVG Version: 6.00 Build 0)  -->
<svg version="1.1" id="Layer_1" xmlns="http://www.w3.org/2000/svg" xmlns:xlink="http://www.w3.org/1999/xlink" x="0px" y="0px"
	 viewBox="0 0 341.15 80" style="enable-background:new 0 0 341.15 80;" xml:space="preserve">
<style type="text/css">
	.st0{fill:#01145C;}
</style>
<g id="g5351" transform="matrix(1.25,0,0,-1.25,0,99.999951)">
	<g id="g6437" transform="matrix(1.0479983,0,0,1.0479983,-149.80413,-518.3875)">
		<g id="path5377">
			<path class="st0" d="M160.97,570.89v-3.87c-0.14,0-0.29,0.01-0.44,0.02c-0.15,0.01-0.3,0.02-0.44,0.02h-0.48h-0.44
				c-0.45,0-0.9-0.01-1.35-0.04c-0.45-0.03-0.9-0.09-1.35-0.17c-0.7-0.03-1.38-0.15-2.05-0.37c-0.66-0.22-1.31-0.48-1.96-0.8
				c-0.51-0.23-0.99-0.52-1.45-0.87c-0.46-0.35-0.89-0.72-1.29-1.13c-0.39-0.41-0.75-0.85-1.07-1.33c-0.32-0.48-0.6-0.98-0.82-1.5
				c-0.25-0.55-0.46-1.12-0.63-1.72c-0.17-0.59-0.28-1.18-0.34-1.76c-0.06-0.29-0.1-0.59-0.13-0.91c-0.03-0.32-0.04-0.64-0.04-0.96
				c0-0.29,0.02-0.58,0.06-0.87c0.04-0.29,0.08-0.59,0.11-0.91c0.11-0.61,0.28-1.19,0.51-1.76c0.23-0.57,0.51-1.11,0.84-1.63
				c0.65-0.9,1.38-1.72,2.19-2.46c0.82-0.74,1.7-1.36,2.66-1.85c0.9-0.29,1.81-0.51,2.74-0.65c0.93-0.15,1.85-0.22,2.78-0.22
				c0.39,0,0.79,0.01,1.2,0.04c0.41,0.03,0.81,0.07,1.2,0.13v-3.74h-2.91l-2.87,0.04c-0.73,0.06-1.46,0.19-2.19,0.39
				c-0.73,0.2-1.43,0.46-2.11,0.78c-0.59,0.26-1.16,0.57-1.71,0.93c-0.55,0.36-1.06,0.77-1.54,1.24c-0.51,0.41-0.97,0.86-1.39,1.35
				c-0.42,0.49-0.82,1.01-1.18,1.57c-0.45,0.75-0.84,1.54-1.16,2.37s-0.6,1.67-0.82,2.54c-0.08,0.9-0.13,1.79-0.15,2.67
				c-0.01,0.88,0.01,1.76,0.06,2.63c0.11,0.78,0.29,1.54,0.53,2.28c0.24,0.74,0.54,1.46,0.91,2.15c0.39,0.7,0.81,1.37,1.24,2.02
				c0.44,0.65,0.92,1.27,1.46,1.85c0.42,0.49,0.89,0.93,1.41,1.33c0.52,0.39,1.06,0.73,1.62,1.02c0.84,0.46,1.7,0.85,2.57,1.15
				c0.87,0.3,1.77,0.54,2.7,0.72c0.59,0.12,1.18,0.2,1.77,0.26c0.59,0.06,1.18,0.09,1.77,0.09c0.34,0,0.67-0.01,1.01-0.02
				c0.34-0.02,0.66-0.05,0.97-0.11V570.89z"/>
		</g>
		<g id="path5381">
			<path class="st0" d="M174.42,561.89c0.48,0,0.96-0.04,1.45-0.13c0.49-0.09,0.96-0.22,1.41-0.39c0.7-0.26,1.37-0.59,2-1
				c0.63-0.41,1.22-0.88,1.75-1.43c0.53-0.55,1-1.16,1.41-1.83c0.41-0.67,0.72-1.38,0.95-2.13c0.22-0.73,0.37-1.48,0.44-2.26
				c0.07-0.78,0.08-1.56,0.02-2.35c-0.06-0.75-0.21-1.49-0.46-2.22c-0.25-0.72-0.58-1.42-0.97-2.09c-0.39-0.67-0.86-1.28-1.39-1.85
				c-0.53-0.56-1.12-1.06-1.77-1.5c-0.62-0.38-1.29-0.68-2-0.91c-0.72-0.23-1.44-0.38-2.17-0.43c-0.14-0.03-0.27-0.05-0.4-0.06
				c-0.13-0.02-0.26-0.02-0.4-0.02c-0.14-0.03-0.27-0.04-0.4-0.04h-0.4c-0.48,0-0.95,0.03-1.41,0.09c-0.46,0.06-0.93,0.14-1.41,0.26
				c-0.7,0.23-1.38,0.54-2.04,0.93c-0.66,0.39-1.27,0.83-1.83,1.33c-0.53,0.55-1.02,1.15-1.45,1.8c-0.44,0.65-0.79,1.34-1.08,2.07
				c-0.2,0.58-0.35,1.16-0.46,1.74c-0.11,0.58-0.17,1.17-0.17,1.78v0.26v0.26c0,0.06,0.01,0.13,0.02,0.22
				c0.01,0.09,0.02,0.17,0.02,0.26c0.06,0.78,0.2,1.55,0.44,2.3c0.24,0.75,0.54,1.46,0.91,2.13c0.39,0.67,0.84,1.28,1.33,1.85
				c0.49,0.56,1.05,1.08,1.67,1.54c0.65,0.43,1.32,0.79,2.02,1.06c0.7,0.28,1.42,0.47,2.15,0.59c0.37,0.06,0.74,0.1,1.12,0.13
				c0.38,0.03,0.75,0.03,1.12,0L174.42,561.89L174.42,561.89z M174.93,558.37c-0.11,0-0.22,0.01-0.32,0.02
				c-0.1,0.02-0.19,0.02-0.27,0.02c-0.11,0.03-0.22,0.04-0.32,0.04h-0.32c-0.14,0-0.28-0.01-0.42-0.02s-0.28-0.02-0.42-0.02
				c-0.14-0.03-0.28-0.06-0.42-0.09c-0.14-0.03-0.28-0.07-0.42-0.13c-0.56-0.14-1.08-0.37-1.56-0.67c-0.48-0.3-0.91-0.69-1.31-1.15
				c-0.34-0.38-0.63-0.77-0.89-1.17c-0.25-0.41-0.46-0.86-0.63-1.35c-0.11-0.49-0.2-1-0.25-1.52c-0.06-0.52-0.07-1.04-0.04-1.56
				c0.03-0.49,0.11-0.99,0.25-1.48c0.14-0.49,0.32-0.96,0.55-1.39c0.22-0.46,0.51-0.88,0.84-1.24c0.34-0.36,0.7-0.7,1.1-1.02
				c0.42-0.29,0.86-0.53,1.33-0.72c0.46-0.19,0.93-0.31,1.41-0.37c0.17-0.03,0.34-0.05,0.51-0.07s0.32-0.02,0.46-0.02
				c0.34,0,0.67,0.03,1.01,0.09c0.34,0.06,0.66,0.14,0.97,0.26c0.48,0.15,0.92,0.35,1.33,0.61c0.41,0.26,0.79,0.58,1.16,0.96
				c0.37,0.32,0.69,0.69,0.97,1.13c0.28,0.43,0.51,0.88,0.67,1.35c0.14,0.35,0.24,0.7,0.3,1.04c0.06,0.35,0.08,0.71,0.08,1.09v0.46
				c0,0.16-0.01,0.31-0.04,0.46c0.03,0.52-0.01,1.03-0.13,1.52c-0.11,0.49-0.28,0.97-0.51,1.43c-0.22,0.49-0.51,0.94-0.84,1.33
				c-0.34,0.39-0.7,0.73-1.1,1.02c-0.39,0.32-0.82,0.57-1.29,0.76c-0.46,0.19-0.95,0.31-1.46,0.37V558.37L174.93,558.37z"/>
		</g>
		<g id="path5385">
			<path class="st0" d="M193.42,561.85c0.23,0.03,0.46,0.04,0.7,0.04h0.65c0.22,0,0.45-0.01,0.67-0.02
				c0.23-0.01,0.44-0.04,0.63-0.06c0.87-0.17,1.69-0.48,2.44-0.91c0.76-0.44,1.42-0.99,1.98-1.65c0.62,0.75,1.35,1.35,2.19,1.78
				c0.84,0.43,1.74,0.7,2.7,0.78c0.51,0.03,1,0.02,1.5-0.02c0.49-0.04,0.98-0.14,1.45-0.28c0.39-0.09,0.76-0.21,1.1-0.37
				c0.34-0.16,0.65-0.35,0.93-0.59c0.31-0.23,0.6-0.49,0.89-0.76c0.28-0.28,0.53-0.57,0.76-0.89c0.28-0.46,0.51-0.94,0.7-1.43
				c0.18-0.49,0.33-1.01,0.44-1.57v-14.3h-3.5v12.78c-0.03,0.38-0.08,0.75-0.17,1.13c-0.08,0.38-0.2,0.75-0.34,1.13
				c-0.28,0.49-0.65,0.91-1.12,1.26c-0.46,0.35-0.98,0.57-1.54,0.65c-0.11,0.03-0.22,0.05-0.34,0.07c-0.11,0.01-0.24,0.02-0.38,0.02
				c-0.42,0-0.84-0.08-1.24-0.24c-0.41-0.16-0.78-0.4-1.12-0.72c-0.37-0.35-0.66-0.77-0.89-1.26c-0.23-0.49-0.34-1.01-0.34-1.56
				v-13.26h-3.58v13.09c-0.03,0.61-0.16,1.2-0.4,1.76c-0.24,0.57-0.57,1.05-0.99,1.46c-0.2,0.17-0.42,0.32-0.68,0.43
				c-0.25,0.12-0.51,0.19-0.76,0.22c-0.08,0-0.16,0.01-0.23,0.02c-0.07,0.01-0.13,0.02-0.19,0.02c-0.06,0.03-0.12,0.04-0.19,0.04
				h-0.23c-0.17,0-0.33-0.01-0.48-0.02c-0.16-0.01-0.3-0.05-0.44-0.11c-0.59-0.15-1.11-0.43-1.56-0.87
				c-0.45-0.43-0.79-0.94-1.01-1.52c-0.08-0.29-0.15-0.57-0.19-0.85c-0.04-0.28-0.06-0.57-0.06-0.89v-0.13
				c0-0.06,0.01-0.1,0.04-0.13v-0.15v-0.15v-12.22h-3.58v13.57c0,0.38,0.04,0.75,0.11,1.11c0.07,0.36,0.16,0.73,0.27,1.11
				c0.31,0.72,0.72,1.38,1.22,1.98c0.51,0.59,1.08,1.11,1.73,1.54c0.39,0.23,0.79,0.42,1.2,0.56c0.41,0.15,0.82,0.26,1.24,0.35
				L193.42,561.85L193.42,561.85z"/>
		</g>
		<g id="path5389">
			<path class="st0" d="M227.63,561.85c0.11-0.03,0.23-0.04,0.36-0.04h0.36c0.7-0.03,1.4-0.15,2.09-0.35
				c0.69-0.2,1.34-0.49,1.96-0.87c0.37-0.15,0.7-0.33,1.01-0.54c0.31-0.22,0.6-0.47,0.89-0.76c0.73-0.7,1.32-1.5,1.77-2.41
				s0.73-1.88,0.84-2.89v-12.39h-3.46v11.52c-0.03,0.41-0.11,0.83-0.23,1.26c-0.13,0.43-0.3,0.84-0.53,1.22
				c-0.42,0.75-0.98,1.38-1.69,1.87s-1.48,0.81-2.32,0.96c-0.2,0.06-0.41,0.09-0.65,0.11c-0.24,0.01-0.47,0.02-0.7,0.02h-0.27
				c-0.1,0-0.19-0.01-0.27-0.04c-0.08,0-0.18-0.01-0.27-0.02c-0.1-0.01-0.19-0.02-0.27-0.02c-0.87-0.03-1.69-0.25-2.44-0.67
				c-0.76-0.42-1.38-1.01-1.86-1.76c-0.37-0.61-0.65-1.26-0.84-1.96c-0.2-0.7-0.3-1.42-0.3-2.17v-0.28v-0.33
				c0-0.12,0.01-0.22,0.02-0.33c0.01-0.1,0.04-0.19,0.06-0.28c0.03-0.44,0.1-0.86,0.21-1.28c0.11-0.42,0.27-0.83,0.46-1.24
				c0.2-0.38,0.42-0.73,0.67-1.07c0.25-0.33,0.52-0.64,0.8-0.93c0.31-0.29,0.65-0.54,1.01-0.74c0.37-0.2,0.75-0.36,1.14-0.48
				c0.31-0.12,0.63-0.2,0.97-0.26c0.34-0.06,0.68-0.09,1.01-0.09h0.15c0.04,0,0.08,0.01,0.11,0.04h0.15h0.11
				c0.39,0.03,0.77,0.1,1.12,0.22c0.35,0.12,0.69,0.28,1.03,0.48c0.37,0.23,0.71,0.5,1.03,0.8c0.32,0.3,0.6,0.63,0.82,0.98v-4.17
				c-0.65-0.49-1.35-0.87-2.11-1.13c-0.76-0.26-1.55-0.42-2.36-0.48c-0.17-0.03-0.33-0.04-0.49-0.04h-0.48
				c-0.34,0.03-0.67,0.06-0.99,0.11c-0.32,0.04-0.64,0.11-0.95,0.2c-0.53,0.12-1.05,0.3-1.54,0.56c-0.49,0.26-0.96,0.57-1.41,0.91
				c-0.39,0.32-0.77,0.66-1.14,1.02c-0.37,0.36-0.7,0.75-1.01,1.15c-0.31,0.43-0.59,0.89-0.84,1.37c-0.25,0.48-0.46,0.96-0.63,1.46
				c-0.17,0.58-0.3,1.17-0.38,1.76c-0.08,0.59-0.13,1.2-0.13,1.8c0,0.55,0.04,1.09,0.13,1.63c0.08,0.54,0.2,1.07,0.34,1.59
				c0.17,0.55,0.38,1.08,0.63,1.59c0.25,0.51,0.53,0.99,0.84,1.46c0.31,0.41,0.64,0.78,0.99,1.13c0.35,0.35,0.72,0.67,1.12,0.96
				c0.39,0.32,0.82,0.59,1.29,0.83c0.46,0.23,0.93,0.41,1.41,0.52c0.59,0.17,1.19,0.3,1.81,0.39c0.62,0.09,1.24,0.12,1.85,0.09
				L227.63,561.85L227.63,561.85z"/>
		</g>
		<g id="path5391">
			<path class="st0" d="M242.96,561.72h3.71V541.5h-3.71V561.72z M244.65,568.59c0.37,0,0.7-0.08,1.01-0.24
				c0.31-0.16,0.56-0.38,0.76-0.67c0.08-0.12,0.16-0.25,0.23-0.39c0.07-0.14,0.13-0.29,0.19-0.43c0-0.06,0.01-0.11,0.02-0.15
				c0.01-0.04,0.02-0.09,0.02-0.15c0-0.03,0.01-0.07,0.02-0.11c0.01-0.04,0.02-0.08,0.02-0.11v-0.13v-0.13
				c0-0.09-0.01-0.17-0.02-0.24c-0.01-0.07-0.02-0.14-0.02-0.2c-0.03-0.06-0.06-0.12-0.08-0.2c-0.03-0.07-0.06-0.15-0.08-0.24
				c-0.11-0.17-0.23-0.33-0.36-0.48c-0.13-0.15-0.27-0.28-0.44-0.39c-0.23-0.09-0.46-0.15-0.72-0.2c-0.25-0.04-0.51-0.07-0.76-0.07
				c-0.2,0.03-0.39,0.09-0.57,0.17c-0.18,0.09-0.36,0.19-0.53,0.3c-0.17,0.14-0.32,0.31-0.44,0.5c-0.13,0.19-0.23,0.38-0.32,0.59
				v0.11v0.11c-0.03,0.03-0.04,0.07-0.04,0.11v0.11c0.03,0.41,0.11,0.78,0.25,1.13c0.14,0.35,0.35,0.67,0.63,0.96
				c0.14,0.09,0.29,0.17,0.44,0.24c0.15,0.07,0.3,0.11,0.44,0.11c0.06,0.03,0.11,0.04,0.17,0.04h0.17V568.59L244.65,568.59z"/>
		</g>
		<g id="path5395">
			<path class="st0" d="M262.18,561.85v-3.22c-0.42,0-0.84-0.02-1.26-0.06c-0.42-0.04-0.83-0.12-1.22-0.24
				c-0.37-0.12-0.71-0.27-1.03-0.46c-0.32-0.19-0.64-0.41-0.95-0.67c-0.28-0.29-0.53-0.6-0.76-0.93c-0.23-0.33-0.41-0.7-0.55-1.11
				c-0.11-0.46-0.2-0.92-0.25-1.37c-0.06-0.45-0.08-0.9-0.08-1.37v-10.83h-3.58v20.13h3.37v-2.48c0.22,0.29,0.47,0.58,0.74,0.87
				c0.27,0.29,0.57,0.54,0.91,0.74c0.31,0.2,0.65,0.38,1.01,0.52c0.37,0.15,0.73,0.25,1.1,0.3c0.28,0.06,0.56,0.11,0.82,0.15
				c0.27,0.04,0.54,0.07,0.82,0.07h0.23c0.07,0,0.15-0.02,0.23-0.04c0.08,0,0.16-0.01,0.23-0.02c0.07-0.01,0.15-0.02,0.23-0.02
				L262.18,561.85L262.18,561.85z"/>
		</g>
		<g id="path5399">
			<path class="st0" d="M278.07,570.81h3.71v-20.09c0-0.46,0.04-0.9,0.13-1.33c0.08-0.42,0.2-0.83,0.34-1.24
				c0.17-0.38,0.37-0.72,0.61-1.02c0.24-0.3,0.5-0.59,0.78-0.85c0.56-0.35,1.15-0.61,1.75-0.78c0.6-0.17,1.23-0.25,1.88-0.22
				l4.22,0.04v-3.74h-3.16h-1.52l-1.52,0.13c-0.96,0.11-1.86,0.38-2.72,0.78c-0.86,0.41-1.64,0.94-2.34,1.61
				c-0.28,0.32-0.55,0.65-0.8,1c-0.25,0.35-0.49,0.71-0.72,1.09c-0.17,0.49-0.31,1-0.42,1.52c-0.11,0.52-0.18,1.06-0.21,1.61V570.81
				z"/>
		</g>
		<g id="path5401">
			<path class="st0" d="M295.48,561.72h3.71V541.5h-3.71V561.72z M297.16,568.59c0.37,0,0.7-0.08,1.01-0.24
				c0.31-0.16,0.56-0.38,0.76-0.67c0.08-0.12,0.16-0.25,0.23-0.39c0.07-0.14,0.13-0.29,0.19-0.43c0-0.06,0.01-0.11,0.02-0.15
				c0.01-0.04,0.02-0.09,0.02-0.15c0-0.03,0.01-0.07,0.02-0.11c0.01-0.04,0.02-0.08,0.02-0.11v-0.13v-0.13
				c0-0.09-0.01-0.17-0.02-0.24c-0.01-0.07-0.02-0.14-0.02-0.2c-0.03-0.06-0.06-0.12-0.08-0.2c-0.03-0.07-0.06-0.15-0.08-0.24
				c-0.11-0.17-0.23-0.33-0.36-0.48c-0.13-0.15-0.27-0.28-0.44-0.39c-0.22-0.09-0.46-0.15-0.72-0.2c-0.25-0.04-0.51-0.07-0.76-0.07
				c-0.2,0.03-0.39,0.09-0.57,0.17c-0.18,0.09-0.36,0.19-0.53,0.3c-0.17,0.14-0.32,0.31-0.44,0.5c-0.13,0.19-0.23,0.38-0.32,0.59
				v0.11v0.11c-0.03,0.03-0.04,0.07-0.04,0.11v0.11c0.03,0.41,0.11,0.78,0.25,1.13c0.14,0.35,0.35,0.67,0.63,0.96
				c0.14,0.09,0.29,0.17,0.44,0.24c0.15,0.07,0.3,0.11,0.44,0.11c0.06,0.03,0.11,0.04,0.17,0.04h0.17L297.16,568.59L297.16,568.59z"
				/>
		</g>
		<g id="path5405">
			<path class="st0" d="M311.03,561.85c0.22,0.03,0.46,0.04,0.7,0.04h0.65c0.22,0,0.45-0.01,0.67-0.02
				c0.23-0.01,0.44-0.04,0.63-0.06c0.87-0.17,1.69-0.48,2.44-0.91c0.76-0.44,1.42-0.99,1.98-1.65c0.62,0.75,1.35,1.35,2.19,1.78
				c0.84,0.43,1.74,0.7,2.7,0.78c0.51,0.03,1,0.02,1.5-0.02c0.49-0.04,0.98-0.14,1.45-0.28c0.39-0.09,0.76-0.21,1.1-0.37
				c0.34-0.16,0.65-0.35,0.93-0.59c0.31-0.23,0.6-0.49,0.89-0.76c0.28-0.28,0.53-0.57,0.76-0.89c0.28-0.46,0.51-0.94,0.7-1.43
				c0.18-0.49,0.33-1.01,0.44-1.57v-14.3h-3.5v12.78c-0.03,0.38-0.08,0.75-0.17,1.13c-0.08,0.38-0.2,0.75-0.34,1.13
				c-0.28,0.49-0.65,0.91-1.12,1.26c-0.46,0.35-0.98,0.57-1.54,0.65c-0.11,0.03-0.22,0.05-0.34,0.07c-0.11,0.01-0.24,0.02-0.38,0.02
				c-0.42,0-0.84-0.08-1.24-0.24c-0.41-0.16-0.78-0.4-1.12-0.72c-0.37-0.35-0.66-0.77-0.89-1.26c-0.23-0.49-0.34-1.01-0.34-1.56
				v-13.26h-3.58v13.09c-0.03,0.61-0.16,1.2-0.4,1.76c-0.24,0.57-0.57,1.05-0.99,1.46c-0.2,0.17-0.42,0.32-0.67,0.43
				c-0.25,0.12-0.51,0.19-0.76,0.22c-0.08,0-0.16,0.01-0.23,0.02c-0.07,0.01-0.13,0.02-0.19,0.02c-0.06,0.03-0.12,0.04-0.19,0.04
				h-0.23c-0.17,0-0.33-0.01-0.48-0.02c-0.16-0.01-0.3-0.05-0.44-0.11c-0.59-0.15-1.11-0.43-1.56-0.87
				c-0.45-0.43-0.79-0.94-1.01-1.52c-0.08-0.29-0.15-0.57-0.19-0.85c-0.04-0.28-0.06-0.57-0.06-0.89v-0.13
				c0-0.06,0.01-0.1,0.04-0.13v-0.15v-0.15v-12.22h-3.58v13.57c0,0.38,0.04,0.75,0.11,1.11c0.07,0.36,0.16,0.73,0.27,1.11
				c0.31,0.72,0.72,1.38,1.22,1.98c0.51,0.59,1.08,1.11,1.73,1.54c0.39,0.23,0.79,0.42,1.2,0.56c0.41,0.15,0.82,0.26,1.24,0.35
				L311.03,561.85L311.03,561.85z"/>
		</g>
		<g id="path5407">
			<path class="st0" d="M337.39,561.72h3.71V541.5h-3.71V561.72z M339.07,568.59c0.37,0,0.7-0.08,1.01-0.24
				c0.31-0.16,0.56-0.38,0.76-0.67c0.08-0.12,0.16-0.25,0.23-0.39c0.07-0.14,0.13-0.29,0.19-0.43c0-0.06,0.01-0.11,0.02-0.15
				c0.01-0.04,0.02-0.09,0.02-0.15c0-0.03,0.01-0.07,0.02-0.11c0.01-0.04,0.02-0.08,0.02-0.11v-0.13v-0.13
				c0-0.09-0.01-0.17-0.02-0.24c-0.01-0.07-0.02-0.14-0.02-0.2c-0.03-0.06-0.06-0.12-0.08-0.2c-0.03-0.07-0.06-0.15-0.08-0.24
				c-0.11-0.17-0.23-0.33-0.36-0.48c-0.13-0.15-0.27-0.28-0.44-0.39c-0.22-0.09-0.46-0.15-0.72-0.2c-0.25-0.04-0.51-0.07-0.76-0.07
				c-0.2,0.03-0.39,0.09-0.57,0.17c-0.18,0.09-0.36,0.19-0.53,0.3c-0.17,0.14-0.32,0.31-0.44,0.5c-0.13,0.19-0.23,0.38-0.32,0.59
				v0.11v0.11c-0.03,0.03-0.04,0.07-0.04,0.11v0.11c0.03,0.41,0.11,0.78,0.25,1.13c0.14,0.35,0.35,0.67,0.63,0.96
				c0.14,0.09,0.29,0.17,0.44,0.24c0.15,0.07,0.3,0.11,0.44,0.11c0.06,0.03,0.11,0.04,0.17,0.04h0.17V568.59L339.07,568.59z"/>
		</g>
		<g id="path5411">
			<path class="st0" d="M347.5,566.94h3.63v-5.22h7.17v-3.35h-7.08v-11.43c0-0.09,0.01-0.15,0.02-0.2c0.01-0.04,0.02-0.09,0.02-0.15
				c0.06-0.23,0.13-0.45,0.23-0.65c0.1-0.2,0.23-0.38,0.4-0.52c0.22-0.17,0.48-0.3,0.78-0.39c0.3-0.09,0.58-0.14,0.86-0.17
				l4.68,0.04v-3.3h-5.86c-0.37,0.03-0.73,0.1-1.1,0.22c-0.37,0.12-0.7,0.27-1.01,0.48c-0.37,0.2-0.71,0.45-1.03,0.74
				c-0.32,0.29-0.6,0.62-0.82,1c-0.2,0.32-0.36,0.65-0.48,0.98c-0.13,0.33-0.22,0.67-0.27,1.02c-0.03,0.17-0.05,0.34-0.06,0.5
				c-0.01,0.16-0.02,0.31-0.02,0.46c-0.03,0.14-0.04,0.3-0.04,0.46v0.5V566.94L347.5,566.94z"/>
		</g>
		<g id="path5415">
			<path class="st0" d="M369.44,562.11h0.67c0.23,0,0.45-0.01,0.68-0.04c0.45-0.03,0.91-0.08,1.37-0.15
				c0.46-0.07,0.91-0.18,1.33-0.33c0.65-0.2,1.28-0.47,1.9-0.8c0.62-0.33,1.19-0.72,1.73-1.15c0.59-0.55,1.12-1.14,1.58-1.78
				c0.46-0.64,0.86-1.33,1.2-2.09l-12.86-7.56l-1.64,2.96l9.4,5.61c-0.25,0.29-0.53,0.57-0.82,0.83c-0.3,0.26-0.64,0.49-1.03,0.7
				c-0.39,0.17-0.81,0.32-1.24,0.43c-0.44,0.12-0.88,0.19-1.33,0.22c-0.42,0-0.84-0.04-1.24-0.11c-0.41-0.07-0.81-0.18-1.2-0.33
				c-0.87-0.29-1.63-0.78-2.28-1.48c-0.65-0.7-1.11-1.51-1.39-2.43c-0.06-0.2-0.11-0.41-0.15-0.63c-0.04-0.22-0.08-0.43-0.11-0.63
				c-0.03-0.2-0.04-0.41-0.04-0.63v-0.63c0.03-0.67,0.13-1.31,0.32-1.93c0.18-0.62,0.44-1.22,0.78-1.8c0.31-0.55,0.7-1.07,1.16-1.54
				c0.46-0.48,0.96-0.89,1.5-1.24c0.48-0.26,0.98-0.45,1.5-0.56c0.52-0.12,1.05-0.17,1.58-0.17c0.31,0,0.61,0.01,0.91,0.04
				c0.3,0.03,0.58,0.09,0.86,0.17c0.39,0.15,0.77,0.32,1.14,0.52c0.37,0.2,0.72,0.42,1.05,0.65c0.37,0.26,0.69,0.56,0.97,0.89
				c0.28,0.33,0.52,0.69,0.72,1.06c0.17,0.43,0.3,0.88,0.4,1.33c0.1,0.45,0.16,0.91,0.19,1.37l3.54-0.74
				c-0.06-0.75-0.2-1.46-0.42-2.13c-0.22-0.67-0.52-1.3-0.89-1.91c-0.37-0.61-0.79-1.17-1.26-1.67c-0.48-0.51-1-0.96-1.56-1.37
				c-0.59-0.41-1.2-0.74-1.83-1c-0.63-0.26-1.29-0.43-1.96-0.52c-0.17-0.03-0.34-0.06-0.51-0.09c-0.17-0.03-0.34-0.06-0.51-0.09
				h-0.55h-0.51c-0.34,0-0.68,0.01-1.01,0.04c-0.34,0.03-0.67,0.07-1.01,0.13c-0.68,0.06-1.33,0.22-1.98,0.5
				c-0.65,0.28-1.25,0.62-1.81,1.02c-1.04,0.9-1.9,1.95-2.59,3.15c-0.69,1.2-1.19,2.48-1.5,3.85c-0.03,0.23-0.04,0.46-0.04,0.67
				v0.63v0.5c0,0.16,0.01,0.31,0.04,0.46c0,0.32,0.02,0.64,0.06,0.98c0.04,0.33,0.09,0.65,0.15,0.94c0.14,0.7,0.34,1.37,0.59,2.02
				c0.25,0.65,0.56,1.28,0.93,1.89c0.39,0.58,0.85,1.11,1.37,1.59c0.52,0.48,1.09,0.89,1.71,1.24c0.62,0.35,1.26,0.62,1.92,0.8
				c0.66,0.19,1.34,0.3,2.05,0.33L369.44,562.11L369.44,562.11z"/>
		</g>
		<g id="path5419">
			<path class="st0" d="M399.74,570.85h3.63V551.2c-0.03-0.87-0.15-1.7-0.38-2.5c-0.22-0.8-0.53-1.57-0.93-2.33
				c-0.25-0.58-0.57-1.12-0.95-1.63c-0.38-0.51-0.81-0.96-1.29-1.37c-0.48-0.38-0.99-0.71-1.54-1c-0.55-0.29-1.12-0.54-1.71-0.74
				c-0.28-0.03-0.58-0.08-0.91-0.15c-0.32-0.07-0.64-0.12-0.95-0.15c-0.14,0-0.29-0.01-0.44-0.02c-0.15-0.01-0.32-0.02-0.48-0.02
				h-0.23h-0.19c-0.06,0-0.12,0.01-0.19,0.02c-0.07,0.01-0.15,0.02-0.23,0.02c-0.62,0-1.23,0.06-1.83,0.17
				c-0.6,0.12-1.19,0.29-1.75,0.52c-0.53,0.29-1.05,0.63-1.54,1.02s-0.93,0.82-1.33,1.28c-0.42,0.46-0.81,0.96-1.16,1.5
				c-0.35,0.54-0.65,1.09-0.91,1.67c-0.22,0.58-0.41,1.17-0.55,1.78c-0.14,0.61-0.23,1.23-0.25,1.87c-0.03,1.28,0.14,2.52,0.51,3.74
				c0.37,1.22,0.9,2.33,1.6,3.35c0.82,0.99,1.76,1.8,2.82,2.43c1.07,0.64,2.21,1.06,3.42,1.26c1.12,0.06,2.23-0.03,3.31-0.26
				c1.08-0.23,2.11-0.59,3.1-1.09v-3.61c-0.42,0.29-0.86,0.55-1.33,0.78c-0.46,0.23-0.93,0.44-1.41,0.61
				c-0.39,0.14-0.79,0.24-1.2,0.28c-0.41,0.04-0.81,0.05-1.2,0.02c-0.39,0-0.79-0.05-1.18-0.15s-0.77-0.24-1.14-0.41
				c-0.79-0.29-1.48-0.75-2.09-1.37c-0.6-0.62-1.05-1.35-1.33-2.2c-0.17-0.41-0.29-0.83-0.36-1.26c-0.07-0.43-0.11-0.87-0.11-1.3
				c0-0.43,0.04-0.86,0.13-1.28c0.08-0.42,0.2-0.83,0.34-1.24c0.25-0.78,0.62-1.51,1.1-2.2c0.48-0.68,1.04-1.27,1.69-1.76
				c0.37-0.2,0.74-0.37,1.12-0.5c0.38-0.13,0.78-0.22,1.2-0.28c0.17-0.03,0.34-0.05,0.51-0.07c0.17-0.01,0.34-0.02,0.51-0.02
				c0.22,0,0.46,0.01,0.7,0.04c0.24,0.03,0.47,0.06,0.69,0.09c0.39,0.12,0.78,0.26,1.16,0.43c0.38,0.17,0.72,0.41,1.03,0.7
				c0.65,0.46,1.19,1.04,1.64,1.72c0.45,0.68,0.75,1.43,0.89,2.24L399.74,570.85L399.74,570.85z"/>
		</g>
		<g id="path5423">
			<path class="st0" d="M292.17,530.12l108.43-2.19l-108.42-7.52c0.36,1.55,0.55,3.17,0.55,4.83
				C292.73,526.93,292.53,528.56,292.17,530.12"/>
		</g>
		<g id="path5427">
			<path class="st0" d="M254.73,520.43l-108.42,7.51l108.43,2.18c-0.36-1.56-0.56-3.19-0.56-4.86
				C254.18,523.59,254.37,521.97,254.73,520.43"/>
		</g>
		<g id="path5431">
			<path class="st0" d="M272.37,525.25c0-0.63,0.49-1.14,1.08-1.14c0.6,0,1.08,0.51,1.08,1.14c0,0.63-0.49,1.14-1.08,1.14
				C272.85,526.4,272.37,525.88,272.37,525.25 M271.34,528.73c-0.24,0.4-0.51,1.06-0.76,1.87c-0.37,1.18-0.81,1.73-1.57,2.06
				c-0.76,0.33-1.4-0.03-1.76-0.01c-0.36,0.02-0.18,0.31-0.18,0.31c0.23,0.77,1.36,1.91,2.2,2.54c-2.33-1.06-4.22-2.98-5.33-5.37
				c0.06,0.09,0.12,0.11,0.17,0.03c0.03-0.04,0.06-0.08,0.1-0.11c0.36-0.38,0.77-0.38,1.24-0.08c0.51,0.33,2.26,0.91,3.08-0.7
				c0.49-0.97,1.16-1.53,1.61-1.82C270.44,527.96,270.85,528.4,271.34,528.73 M273.69,529.38c0.11,0.44,0.46,1.17,0.99,2.01
				c0.66,1.04,0.8,1.74,0.57,2.57c-0.22,0.83-0.89,1.14-1.09,1.45c-0.2,0.31,0.12,0.34,0.12,0.34c0.89,0.35,3.06-0.1,3.84-0.49
				c-1.41,0.73-2.99,1.14-4.67,1.14c-1.14,0-2.23-0.19-3.26-0.54c0-0.07-0.01-0.12-0.01-0.17c0.01-0.53,0.3-0.84,0.84-0.97
				c0.59-0.14,2.23-1,1.75-2.76c-0.32-1.17-0.15-2.13,0-2.65c0.22,0.04,0.44,0.06,0.67,0.06
				C273.53,529.38,273.61,529.38,273.69,529.38 M276.53,527.81c0.39,0.23,1.09,0.47,1.97,0.68c1.15,0.26,1.72,0.67,2.1,1.43
				c0.39,0.76,0.11,1.47,0.17,1.85c0.06,0.37,0.31,0.16,0.31,0.16c0.77-0.35,1.83-1.87,2.29-2.81c-0.93,2.67-2.8,4.85-5.18,6.11
				c0.2-0.11,0.28-0.21,0.17-0.29c-0.04-0.03-0.08-0.06-0.11-0.09c-0.39-0.33-0.44-0.77-0.2-1.29c0.26-0.57,0.63-2.47-0.98-3.15
				c-0.93-0.4-1.52-1.01-1.85-1.45C275.72,528.67,276.17,528.28,276.53,527.81 M277.35,524.87c0.42-0.1,1.12-0.45,1.91-0.97
				c1-0.66,1.67-0.78,2.45-0.51c0.78,0.27,1.05,0.98,1.34,1.2c0.29,0.23,0.33-0.12,0.33-0.12c0.29-0.73,0.13-2.32-0.12-3.37
				c0.49,1.28,0.76,2.68,0.76,4.15c0,1.1-0.15,2.16-0.43,3.17c-0.01-0.06-0.04-0.09-0.11-0.07c-0.05,0.01-0.1,0.02-0.14,0.02
				c-0.5,0.05-0.82-0.23-1-0.78c-0.19-0.6-1.17-2.23-2.78-1.55c-0.96,0.41-1.8,0.39-2.33,0.31c0.09-0.35,0.14-0.71,0.14-1.09
				C277.37,525.13,277.36,525,277.35,524.87 M275.94,522.07c0.23-0.39,0.5-1.14,0.73-2.08c0.29-1.21,0.69-1.79,1.43-2.17
				c0.74-0.38,1.4-0.07,1.76-0.12c0.35-0.05,0.16-0.32,0.16-0.32c-0.28-0.74-1.44-1.76-2.3-2.34c2.2,1.02,4.01,2.82,5.12,5.06
				c-0.03,0-0.05,0.02-0.07,0.05c-0.03,0.04-0.06,0.08-0.09,0.12c-0.33,0.4-0.74,0.43-1.23,0.17c-0.53-0.29-2.31-0.75-3.02,0.92
				c-0.43,1.02-1.07,1.63-1.5,1.95C276.67,522.83,276.34,522.41,275.94,522.07 M273.31,521.13c-0.08-0.45-0.39-1.19-0.85-2.05
				c-0.58-1.08-0.68-1.79-0.4-2.61c0.28-0.81,0.96-1.07,1.19-1.37c0.22-0.29-0.1-0.35-0.1-0.35c-0.73-0.35-2.42-0.2-3.41,0.06
				c1.16-0.46,2.41-0.71,3.72-0.71c1.14,0,2.24,0.19,3.27,0.54c-0.01,0.02-0.02,0.05-0.01,0.08c0.01,0.05,0.01,0.1,0.02,0.15
				c0.03,0.53-0.25,0.86-0.78,1.02c-0.58,0.18-2.16,1.16-1.57,2.88c0.36,1.06,0.3,1.97,0.2,2.51c-0.36-0.11-0.74-0.17-1.13-0.17
				L273.31,521.13L273.31,521.13z M261.4,525.25c0,7,5.4,12.67,12.05,12.67c6.66,0,12.05-5.67,12.05-12.67
				c0-7-5.4-12.67-12.05-12.67C266.8,512.58,261.4,518.25,261.4,525.25 M270.41,522.65c-0.39-0.23-1.01-0.49-1.77-0.73
				c-1.13-0.35-1.67-0.79-2-1.58c-0.33-0.79-0.02-1.48-0.05-1.85c-0.03-0.38-0.3-0.18-0.3-0.18c-1.18,0.44-3.22,3.46-2.63,3.39
				c0.05-0.01,0.1-0.01,0.14-0.01c0.5-0.01,0.8,0.29,0.94,0.85c0.15,0.61,1.02,2.31,2.67,1.75c0.94-0.32,1.74-0.26,2.26-0.15
				c-0.09,0.36-0.14,0.73-0.14,1.12c0,0.22,0.02,0.43,0.05,0.64c-0.43,0.12-1.05,0.39-1.74,0.77c-1.05,0.58-1.72,0.65-2.48,0.33
				c-0.76-0.32-0.98-1.05-1.26-1.3c-0.27-0.25-0.34,0.09-0.34,0.09c-0.43,0.9-0.23,3.23,0.06,4.08c-0.61-1.41-0.95-2.98-0.95-4.63
				c0-4.48,2.5-8.34,6.11-10.11c-0.03,0.04-0.02,0.09,0.03,0.13c0.04,0.03,0.08,0.06,0.11,0.1c0.37,0.36,0.39,0.8,0.12,1.31
				c-0.29,0.55-0.79,2.41,0.77,3.22c0.93,0.48,1.48,1.16,1.78,1.62C271.25,521.78,270.78,522.17,270.41,522.65"/>
		</g>
		<g id="path5435">
			<path class="st0" d="M273.45,509.91c-8.06,0-14.62,6.88-14.62,15.34c0,8.46,6.56,15.34,14.62,15.34
				c8.06,0,14.62-6.88,14.62-15.34C288.07,516.79,281.51,509.91,273.45,509.91z M273.45,539.42c-7.41,0-13.44-6.36-13.44-14.17
				c0-7.81,6.03-14.17,13.44-14.17c7.41,0,13.44,6.36,13.44,14.17C286.9,533.07,280.86,539.42,273.45,539.42z"/>
		</g>
	</g>
</g>
</svg>
