<?xml version="1.0" encoding="utf-8"?>
<!-- Generator: Adobe Illustrator 25.4.1, SVG Export Plug-In . SVG Version: 6.00 Build 0)  -->
<svg version="1.1" id="Layer_1" xmlns="http://www.w3.org/2000/svg" xmlns:xlink="http://www.w3.org/1999/xlink" x="0px" y="0px"
	 viewBox="0 0 153.9 80" style="enable-background:new 0 0 153.9 80;" xml:space="preserve">
<style type="text/css">
	.st0{fill-rule:evenodd;clip-rule:evenodd;fill:#B38808;}
</style>
<g>
	<path class="st0" d="M127.5,68.4c-1-1.7-2.2-3-3.2-4.8c-4.7-7.5-9.1-15.3-13.5-23.1c-1.5-2.7-3.1-5.2-4.5-8s-3.5-6.2-5.2-9.2
		c-0.6-1.5-1.6-2.9-2.8-4c-1.2-0.8-2.7-1-4.1-0.8c-3,0.8-3.8,3.4-5.2,5.8c-2.4,3.9-4.6,8-7,12c-3.3,5.2-6.4,11.2-9.7,16.6
		c-2.1,3.5-3.7,7.3-6.1,10.5c-3.2,4.4-7.5,7.9-12.6,10c-6.8,2.8-14.2,3.4-21.3,1.8c-3.6-0.9-7.1-2.2-10.5-3.9
		C7.5,62.8,0.7,45.6,5.4,29.5c1.1-3.6,2.7-7,4.9-10.1c3.6-4.8,8.2-8.7,13.5-11.4c2.7-1.2,5.5-2.2,8.4-2.9c2.5-0.5,5.1-0.8,7.6-0.7
		c1.7-0.1,3.5-0.1,5.2,0c2.1,0.3,4.2,0.9,6.2,1.6c1.4,0.5,2.8,1.1,4.1,1.9V3.4c-2.3-0.9-4.7-1.7-7.1-2.4C44.3,0.2,40,0,35.9,0.3
		c-1.2,0.1-2.4,0.2-3.6,0.5c-2.3,0.5-4.5,1.1-6.6,1.8c-8.4,3.2-15.5,9.1-20,16.8c-1.9,3.4-3.5,7.1-4.5,10.8
		c-1.7,7.4-1.4,15,0.9,22.2c0.8,2.4,1.8,4.7,3,6.9c2.4,4.6,5.8,8.6,9.9,11.8c5.7,4.3,12.3,7.2,19.4,8.4c2.2,0.4,4.5,0.5,6.8,0.4
		c4.6-0.1,9.1-1,13.3-2.7c3.1-1.3,5.9-2.9,8.6-4.9c1-0.7,1.9-1.5,2.7-2.4c2-1.9,3.7-4.1,5.2-6.4c0.6-0.8,1.3-2.4,1.8-3.2
		c3.8-6.2,7.5-12.7,11.1-19c2.7-4.8,5.2-9.8,8.1-14.4l2.4-4c0.4-0.7,1.8-0.6,2.4,0c1.3,1.5,16.1,28.6,24.8,42.9
		c1.9,3,3.4,6.2,5.2,9.2c0.4,0.6,1.4,2.5,1.9,3.5h4.6c-0.8-1.3-1.6-3-1.9-3.6C130.1,72.7,128.8,70.5,127.5,68.4 M150.9,73.9
		c-1.2-1.9-1.9-4.6-3-6.6c-1.7-3-3.3-5.9-5.2-8.8C136,47.6,130,36.2,123.5,25.2s-9.6-21.5-22.6-24.6c-2.9-0.6-5.8-0.7-8.7-0.4
		c-1.8,0.2-3.6,0.7-5.2,1.4c-2.8,1.2-5.4,2.9-7.6,5c-4,4.7-7.3,9.9-10.1,15.4c-3.6,5.8-7.1,11.9-10.5,17.9c-0.7,1.2-1.4,2.3-2,3.5
		c-1.7,3.4-3.6,6.6-5.7,9.7c-2.4,3.3-6.3,5.3-10.5,5.2c-1.8,0.1-3.5,0-5.2-0.4c-5.4-1.4-9.9-5.1-12.2-10.1
		c-3.9-9.1,0.3-19.7,9.4-23.6c0.6-0.2,1.2-0.5,1.8-0.7c5.1-1.5,10.6-0.5,15,2.6c0.9,0.7,1.7,1.5,2.5,2.4c2.3,3,2.6,4.8,3.4,4.8v-7.3
		c-1-1-2.1-1.9-3.2-2.7c-2.5-1.7-5.2-3-8.2-3.8c-3.9-0.7-8-0.4-11.8,1c-7.9,2.8-13.4,10-14,18.3c-0.1,2.8,0.1,5.6,0.7,8.3
		c1.1,3.4,3,6.6,5.7,9.1c1.8,1.8,3.9,3.2,6.2,4.1c3,1.5,6.3,2.2,9.6,2c5.2,0.1,10.1-2,13.6-5.8c1.4-1.9,2.6-3.9,3.7-6.1
		c5.2-8.4,9.8-17.4,15-25.9c2.4-3.9,4.2-8.1,6.9-11.7c1.5-1.9,3.2-3.6,5.2-5c6.3-3.8,14.1-4,20.7-0.7c6.3,3.5,8.9,10.9,12.6,17
		c7.3,12,13.9,24.6,21.2,36.6c2.6,4.3,4.9,8.8,7.4,13c0.6,0.9,2.4,4.2,3,5.5h4.6L150.9,73.9 M138.1,68.9c-1.2-2-2.6-3.8-3.8-5.8
		c-2.9-4.8-5.8-9.6-8.5-14.5c-3.9-6.9-8-13.7-11.8-20.6c-1.6-2.9-3.3-5.8-4.8-8.5c-2.1-4.7-6.3-8.2-11.3-9.5c-1.4-0.1-2.8-0.1-4.2,0
		c-1.6,0.1-3.2,0.5-4.7,1.4C87.5,12,86.2,13,85,14.1c-2.7,3.5-5.1,7.2-7,11.2c-5,8.1-9.5,16.8-14.4,24.9c-1.5,2.4-2.6,4.9-4,7.1
		c-1.8,2.9-4.2,5.3-7,7.1c-6.9,3.5-15,4.1-22.4,1.6c-7.6-2.8-13.5-8.9-16.1-16.5c-0.4-1.9-0.8-3.8-0.9-5.8c-0.2-1.5-0.2-3,0-4.6
		c0-2.2,0.4-4.4,1-6.5c1.2-3.4,2.9-6.6,5.2-9.4c1.4-1.7,3-3.2,4.8-4.4c4.6-3.3,10.1-5,15.7-4.9c2.3,0,4.6,0.2,6.9,0.8
		c2.2,0.7,4.4,1.7,6.4,2.8c0.8,0.5,1.6,1.2,2.4,1.8v-4.9c-1.5-0.9-3.1-1.7-4.7-2.4c-2.6-1.1-5.4-1.7-8.2-1.9c-2-0.1-3.9-0.1-5.9,0
		c-1.4,0-2.7,0.2-4.1,0.4c-1.8,0.5-3.5,1.1-5.2,1.8c-8,3.4-14,10.1-16.7,18.4c-0.4,1.7-0.8,3.5-1.2,5.2c-0.2,1.4-0.3,2.8-0.3,4.2
		c0,2.7,0.4,5.4,1,8c0.4,1.5,0.8,3,1.4,4.4c2.9,7.9,9.2,14,17.2,16.8c1.9,0.6,3.9,1.2,5.9,1.6c1.6,0.2,3.3,0.4,5,0.5
		c2.1,0,4.2-0.1,6.3-0.4c3.2-0.7,6.4-1.9,9.2-3.6c3.6-2.4,6.6-5.7,8.7-9.4c1.3-2.1,2.4-4.6,3.9-6.9c4.1-6.8,8-14,12.1-20.9
		c1.7-2.8,3.7-7,5.7-10.2c1-2.1,2.6-4,4.6-5.2c0.8-0.5,1.6-0.8,2.5-1c2-0.4,4-0.4,6,0c1.5,0.4,2.9,1.2,4,2.3
		c2.9,3.5,5.3,7.4,7.2,11.6c6.9,11.6,13.2,23.6,20.3,35.1c2.4,3.9,4.3,7.9,6.6,11.7c0.5,0.7,2,3.6,2.4,4.3h4.4c0-0.4-1.4-2.7-3-5.7
		C139.8,71.5,138.9,70.2,138.1,68.9 M112,54.8c-1.7,0.2-3.5,0.2-5.2,0c-0.3-1-0.5-2.1-0.7-3.2c-0.9,1-3.2,3.3-4.7,4.8
		c-1.2,0-1.4-0.4-1.3-1.2c0.6-1.7,1.7-6.2,2.2-8.2c-1.7,0.6-2.4,1.1-3.8,0.5c-1.2-2.3-2.3-4.4-3.2-6.5c-1.5,2.8-1.9,3.7-3.4,6.4
		c-1,0.8-2.5,0-3.6-0.3c0.4,3,2,6,2.1,8.9c-0.2,0.3-0.5,0.5-0.9,0.4c-2.3-1.2-3.1-3.4-5.2-4.6c0,1.5,0,2.7-1,3c-1.5,0.2-3,0.2-4.4,0
		c0.6,2,1.6,2.4,1.6,4.5c-0.9,0.6-1.9,1.1-2.9,1.4l0,0c1.2,1.1,2.5,2.1,3.9,3l2.3,1.7c0.8,0.7,2.6,1.5,3,2.4c0.5,0.9-0.7,2-0.8,3
		s0.3,0,0.4,0c0.8-0.2,1.5-0.4,2.3-0.5c2.1-0.4,5.6-1,5.8-0.5c0,1.8,0,5.2-0.4,8.5H96c0-2.8,0-5.7-0.3-8.5c0-0.3,0.9,0,1.6,0
		l6.9,1.2c0,0,0-0.3,0-0.4c-0.6-0.8-0.9-1.8-0.7-2.7c0.7-0.8,1.5-1.5,2.4-2.1c1-0.8,2.1-1.5,3.1-2.2c0,0,2.4-1.7,3.9-2.9
		c-0.8-0.5-2.4-0.5-2.8-1.4c-0.4-0.8,1.2-3.8,1.7-4.6"/>
</g>
</svg>
