<?xml version="1.0" encoding="utf-8"?>
<!-- Generator: Adobe Illustrator 25.4.1, SVG Export Plug-In . SVG Version: 6.00 Build 0)  -->
<svg version="1.1" id="Layer_1" xmlns="http://www.w3.org/2000/svg" xmlns:xlink="http://www.w3.org/1999/xlink" x="0px" y="0px"
	 viewBox="0 0 259 80" style="enable-background:new 0 0 259 80;" xml:space="preserve">
<style type="text/css">
	.st0{fill:#121E40;}
	.st1{fill:none;stroke:#B38808;stroke-width:1.02;}
	.st2{clip-path:url(#SVGID_00000134235771191903103310000001832261808610883758_);}
	.st3{fill:url(#SVGID_00000153679742286764894030000018348089635354063540_);}
	.st4{clip-path:url(#SVGID_00000154427754852769235090000017793254391260542110_);}
	.st5{fill:url(#SVGID_00000084489127974975062220000011386823292591748517_);}
	.st6{clip-path:url(#SVGID_00000026845471709064618230000014654403838525728661_);}
	.st7{fill:url(#SVGID_00000040544839265898531690000011774694201925363338_);}
	.st8{fill-rule:evenodd;clip-rule:evenodd;fill:#B38808;}
	.st9{fill:#141E41;}
</style>
<g>
	<g>
		<path class="st0" d="M239.7,80c-1.1-0.8-2.3-1.4-3.5-2c-2.7-1.3-5.5-2.3-8.4-3c-8.1-2-28.4-3.1-32.8-3.4
			c-4.4-0.3-31.6-2.3-49.3-3.3c-24.9-1.4-51.3-3-74.7-3.9C32.3,63,0.3,62.8,0,61.8s47.6-0.5,93.8-0.2c10.1,0.1,20.2,0.1,29.6,0
			c7.9,0,15.3,0,22-0.6c4.3-0.4,8.4-1,12.2-1.7c48.6-8.6,62.2-41.2,68.7-55.9c0.6-1.4,3.1-2.3,6.5-2.8c3.9-0.5,9-0.5,13.5-0.6
			c6.8-0.2,11.1,0,12.5,0s-19.7,55.4-22.4,64.5c-1.4,4.8-0.7,8.8,0.6,10.8C238.7,78,240.2,80.3,239.7,80"/>
		<path class="st1" d="M239.7,80c-1.1-0.8-2.3-1.4-3.5-2c-2.7-1.3-5.5-2.3-8.4-3c-8.1-2-28.4-3.1-32.8-3.4
			c-4.4-0.3-31.6-2.3-49.3-3.3c-24.9-1.4-51.3-3-74.7-3.9C32.3,63,0.3,62.8,0,61.8s47.6-0.5,93.8-0.2c10.1,0.1,20.2,0.1,29.6,0
			c7.9,0,15.3,0,22-0.6c4.3-0.4,8.4-1,12.2-1.7c48.6-8.6,62.2-41.2,68.7-55.9c0.6-1.4,3.1-2.3,6.5-2.8c3.9-0.5,9-0.5,13.5-0.6
			c6.8-0.2,11.1,0,12.5,0s-19.7,55.4-22.4,64.5c-1.4,4.8-0.7,8.8,0.6,10.8C238.7,78,240.2,80.3,239.7,80z"/>
	</g>
	<g>
		<g>
			<defs>
				<path id="SVGID_1_" d="M129.1,61.4v0.7c44,0,85.9-6.4,110.7-29.2l-0.5-0.5C214.8,55,173.1,61.4,129.1,61.4"/>
			</defs>
			<clipPath id="SVGID_00000019662047501288317940000016836681352266174870_">
				<use xlink:href="#SVGID_1_"  style="overflow:visible;"/>
			</clipPath>
			<g style="clip-path:url(#SVGID_00000019662047501288317940000016836681352266174870_);">
				
					<linearGradient id="SVGID_00000172422100732502809660000001525397170938752932_" gradientUnits="userSpaceOnUse" x1="-3434.4978" y1="125.4754" x2="-3433.48" y2="125.4754" gradientTransform="matrix(108.49 0 0 109.06 372737.5312 -13637.1201)">
					<stop  offset="0" style="stop-color:#B38808"/>
					<stop  offset="0.88" style="stop-color:#B38808"/>
					<stop  offset="0.89" style="stop-color:#A9810C"/>
					<stop  offset="0.91" style="stop-color:#8D6E16"/>
					<stop  offset="0.93" style="stop-color:#5F5026"/>
					<stop  offset="0.96" style="stop-color:#21273C"/>
					<stop  offset="0.97" style="stop-color:#141E41"/>
					<stop  offset="1" style="stop-color:#141E41"/>
				</linearGradient>
				
					<rect x="129.1" y="32.4" style="fill:url(#SVGID_00000172422100732502809660000001525397170938752932_);" width="110.7" height="29.7"/>
			</g>
		</g>
		<g>
			<defs>
				<path id="SVGID_00000142880206572416221960000016571527167933776794_" d="M132.6,61.4h-3.5v0.7h3.5c45.8,0,77.2-10.1,95.8-29.3
					l-0.5-0.5C209.5,51.4,178.2,61.5,132.6,61.4"/>
			</defs>
			<clipPath id="SVGID_00000152976399454090380130000018074426501884424066_">
				<use xlink:href="#SVGID_00000142880206572416221960000016571527167933776794_"  style="overflow:visible;"/>
			</clipPath>
			<g style="clip-path:url(#SVGID_00000152976399454090380130000018074426501884424066_);">
				
					<linearGradient id="SVGID_00000164503493376881400270000011025359817614860422_" gradientUnits="userSpaceOnUse" x1="-3467.1841" y1="225.5263" x2="-3466.1663" y2="225.5263" gradientTransform="matrix(0 -29.16 29.01 0 -6363.7886 -101041.7578)">
					<stop  offset="0" style="stop-color:#B38808"/>
					<stop  offset="0.61" style="stop-color:#B38808"/>
					<stop  offset="0.73" style="stop-color:#B18709"/>
					<stop  offset="0.78" style="stop-color:#AA820B"/>
					<stop  offset="0.81" style="stop-color:#9F7A0F"/>
					<stop  offset="0.84" style="stop-color:#8E6F15"/>
					<stop  offset="0.86" style="stop-color:#78601D"/>
					<stop  offset="0.88" style="stop-color:#5C4E27"/>
					<stop  offset="0.89" style="stop-color:#3D3932"/>
					<stop  offset="0.91" style="stop-color:#18213F"/>
					<stop  offset="0.91" style="stop-color:#141E41"/>
					<stop  offset="1" style="stop-color:#141E41"/>
				</linearGradient>
				
					<rect x="129.1" y="32.4" style="fill:url(#SVGID_00000164503493376881400270000011025359817614860422_);" width="99.3" height="29.8"/>
			</g>
		</g>
		<g>
			<defs>
				<path id="SVGID_00000103252063099464360310000016505234413809524658_" d="M129.1,61.4v0.7h0.1c48.2,0,71-10.7,89.9-29.8
					l-0.5-0.5C199.7,50.7,177.2,61.4,129.1,61.4"/>
			</defs>
			<clipPath id="SVGID_00000168811529502564986260000010237243568965390494_">
				<use xlink:href="#SVGID_00000103252063099464360310000016505234413809524658_"  style="overflow:visible;"/>
			</clipPath>
			<g style="clip-path:url(#SVGID_00000168811529502564986260000010237243568965390494_);">
				
					<linearGradient id="SVGID_00000067927733895305691790000007602408571011664807_" gradientUnits="userSpaceOnUse" x1="-3467.0894" y1="223.7864" x2="-3466.0715" y2="223.7864" gradientTransform="matrix(0 -29.66 29.5 0 -6427.6284 -102771.5859)">
					<stop  offset="0" style="stop-color:#B38808"/>
					<stop  offset="0.75" style="stop-color:#B38808"/>
					<stop  offset="0.77" style="stop-color:#A9810C"/>
					<stop  offset="0.8" style="stop-color:#8D6E16"/>
					<stop  offset="0.85" style="stop-color:#5F5026"/>
					<stop  offset="0.9" style="stop-color:#21273C"/>
					<stop  offset="0.91" style="stop-color:#141E41"/>
					<stop  offset="1" style="stop-color:#141E41"/>
				</linearGradient>
				
					<rect x="129.1" y="31.8" style="fill:url(#SVGID_00000067927733895305691790000007602408571011664807_);" width="90" height="30.3"/>
			</g>
		</g>
	</g>
	<g>
		<path class="st8" d="M240.4,31.9c-0.2-0.3-0.3-0.6-0.5-0.9c-0.8-1.3-1.6-2.7-2.3-4c-0.3-0.5-0.5-0.9-0.8-1.4s-0.6-1.1-0.9-1.6
			c-0.1-0.3-0.3-0.5-0.5-0.7c-0.2-0.1-0.5-0.2-0.7-0.1c-0.5,0.1-0.7,0.6-0.9,1c-0.4,0.7-0.8,1.4-1.2,2.1c-0.6,0.9-1.1,1.9-1.7,2.9
			c-0.4,0.6-0.6,1.3-1.1,1.8c-0.6,0.8-1.3,1.4-2.2,1.7c-1.2,0.5-2.5,0.6-3.7,0.3c-0.6-0.2-1.2-0.4-1.8-0.7c-2.5-1.5-3.7-4.5-2.9-7.3
			c0.2-0.6,0.5-1.2,0.8-1.8c0.6-0.8,1.4-1.5,2.3-2c0.5-0.2,1-0.4,1.5-0.5c0.4-0.1,0.9-0.1,1.3-0.1c0.3,0,0.6,0,0.9,0
			c0.4,0.1,0.7,0.2,1.1,0.3c0.3,0.1,0.5,0.2,0.7,0.3v-0.8c-0.4-0.2-0.8-0.3-1.2-0.4c-0.7-0.1-1.4-0.2-2.2-0.1c-0.2,0-0.4,0-0.6,0.1
			c-0.4,0.1-0.8,0.2-1.2,0.3c-1.5,0.5-2.7,1.6-3.5,2.9c-0.3,0.6-0.6,1.2-0.8,1.9c-0.3,1.3-0.2,2.6,0.2,3.9c0.1,0.4,0.3,0.8,0.5,1.2
			c0.4,0.8,1,1.5,1.7,2c1,0.8,2.1,1.3,3.4,1.5c0.4,0.1,0.8,0.1,1.2,0.1c0.8,0,1.6-0.2,2.3-0.5c0.5-0.2,1-0.5,1.5-0.9
			c0.2-0.1,0.3-0.3,0.5-0.4c0.3-0.3,0.6-0.7,0.9-1.1c0.1-0.1,0.2-0.4,0.3-0.6c0.7-1.1,1.3-2.2,1.9-3.3c0.5-0.8,0.9-1.7,1.4-2.5
			l0.4-0.7c0.1-0.1,0.3-0.1,0.4,0c0.2,0.3,2.8,5,4.3,7.4c0.3,0.5,0.6,1.1,0.9,1.6c0.1,0.1,0.2,0.4,0.3,0.6h0.8
			c-0.1-0.2-0.3-0.5-0.3-0.6C240.9,32.6,240.7,32.2,240.4,31.9 M244.6,32.7c-0.2-0.3-0.4-0.7-0.6-1c-0.3-0.5-0.6-1-0.9-1.5
			c-1.1-1.9-2.2-3.9-3.3-5.8c-1.1-1.9-1.7-3.7-3.9-4.3c-0.5-0.1-1-0.1-1.5-0.1c-0.3,0-0.6,0.1-0.9,0.2c-0.5,0.2-0.9,0.5-1.3,0.9
			c-0.7,0.8-1.3,1.7-1.8,2.7c-0.6,1-1.2,2.1-1.8,3.1c-0.1,0.2-0.2,0.4-0.3,0.6c-0.3,0.6-0.6,1.1-1,1.7c-0.4,0.6-1.1,0.9-1.8,0.9
			c-0.3,0-0.6,0-0.9-0.1c-0.9-0.2-1.7-0.9-2.1-1.8c-0.7-1.6,0.1-3.4,1.6-4.1c0.1,0,0.2-0.1,0.3-0.1c0.9-0.3,1.8-0.1,2.6,0.4
			c0.2,0.1,0.3,0.3,0.4,0.4c0.4,0.5,0.4,0.8,0.6,0.8v-1.3c-0.2-0.2-0.4-0.3-0.6-0.5c-0.4-0.3-0.9-0.5-1.4-0.7
			c-0.7-0.1-1.4-0.1-2,0.2c-1.4,0.5-2.3,1.7-2.4,3.2c0,0.5,0,1,0.1,1.4c0.2,0.6,0.5,1.1,1,1.6c0.3,0.3,0.7,0.6,1.1,0.7
			c0.5,0.3,1.1,0.4,1.7,0.3c0.9,0,1.8-0.3,2.4-1c0.2-0.3,0.5-0.7,0.6-1.1c0.9-1.5,1.7-3,2.6-4.5c0.4-0.7,0.7-1.4,1.2-2
			c0.3-0.3,0.6-0.6,0.9-0.9c1.1-0.7,2.5-0.7,3.6-0.1c1.1,0.6,1.5,1.9,2.2,2.9c1.3,2.1,2.4,4.3,3.7,6.4c0.5,0.8,0.8,1.5,1.3,2.3
			c0.1,0.2,0.4,0.7,0.5,1h0.8l-0.5-0.9 M242.3,32c-0.2-0.4-0.4-0.7-0.6-1.1c-0.5-0.8-1-1.7-1.5-2.5c-0.7-1.2-1.4-2.4-2.1-3.6
			c-0.3-0.5-0.6-1-0.8-1.5c-0.4-0.8-1.1-1.4-2-1.6c-0.2,0-0.5,0-0.7,0c-0.3,0-0.6,0.1-0.8,0.2c-0.3,0.1-0.5,0.3-0.7,0.5
			c-0.5,0.6-0.9,1.2-1.2,1.9c-0.9,1.4-1.6,2.9-2.5,4.3c-0.3,0.4-0.4,0.8-0.7,1.2c-0.3,0.5-0.7,0.9-1.2,1.2c-1.2,0.6-2.6,0.7-3.9,0.3
			c-1.3-0.5-2.3-1.5-2.8-2.9c-0.1-0.3-0.1-0.7-0.2-1c0-0.3,0-0.5,0-0.8c0-0.4,0.1-0.8,0.2-1.1c0.2-0.6,0.5-1.1,0.9-1.6
			c0.2-0.3,0.5-0.6,0.8-0.8c0.8-0.6,1.7-0.9,2.7-0.9c0.4,0,0.8,0,1.2,0.1c0.4,0.1,0.8,0.3,1.1,0.5c0.1,0.1,0.3,0.2,0.4,0.3v-0.9
			c-0.3-0.2-0.5-0.3-0.8-0.4c-0.5-0.2-0.9-0.3-1.4-0.3c-0.3,0-0.7,0-1,0c-0.2,0-0.5,0-0.7,0.1c-0.3,0.1-0.6,0.2-0.9,0.3
			c-1.4,0.6-2.4,1.8-2.9,3.2c-0.1,0.3-0.1,0.6-0.2,0.9c0,0.2-0.1,0.5,0,0.7c0,0.5,0.1,0.9,0.2,1.4c0.1,0.3,0.1,0.5,0.2,0.8
			c0.5,1.4,1.6,2.4,3,2.9c0.3,0.1,0.7,0.2,1,0.3c0.3,0,0.6,0.1,0.9,0.1c0.4,0,0.7,0,1.1-0.1c0.6-0.1,1.1-0.3,1.6-0.6
			c0.6-0.4,1.1-1,1.5-1.6c0.2-0.4,0.4-0.8,0.7-1.2c0.7-1.2,1.4-2.4,2.1-3.6c0.3-0.5,0.6-1.2,1-1.8c0.2-0.4,0.4-0.7,0.8-0.9
			c0.1-0.1,0.3-0.1,0.4-0.2c0.3-0.1,0.7-0.1,1,0c0.3,0.1,0.5,0.2,0.7,0.4c0.5,0.6,0.9,1.3,1.3,2c1.2,2,2.3,4.1,3.5,6.1
			c0.4,0.7,0.8,1.4,1.2,2c0.1,0.1,0.3,0.6,0.4,0.7h0.8c0-0.1-0.2-0.5-0.5-1C242.6,32.4,242.4,32.2,242.3,32 M237.8,29.5
			c-0.3,0-0.6,0-0.9,0c-0.1-0.2-0.1-0.4-0.1-0.6c-0.2,0.2-0.6,0.6-0.8,0.8c-0.2,0-0.2-0.1-0.2-0.2c0.1-0.3,0.3-1.1,0.4-1.4
			c-0.3,0.1-0.4,0.2-0.7,0.1c-0.2-0.4-0.4-0.8-0.6-1.1c-0.3,0.5-0.3,0.6-0.6,1.1c-0.2,0.1-0.4,0-0.6,0c0.1,0.5,0.3,1,0.4,1.5
			c0,0.1-0.1,0.1-0.2,0.1c-0.4-0.2-0.5-0.6-0.9-0.8c0,0.3,0,0.5-0.2,0.5c-0.3,0-0.5,0-0.8,0c0.1,0.4,0.3,0.4,0.3,0.8
			c-0.2,0.1-0.3,0.2-0.5,0.2l0,0c0.2,0.2,0.4,0.4,0.7,0.5l0.4,0.3c0.1,0.1,0.4,0.3,0.5,0.4c0.1,0.2-0.1,0.4-0.1,0.5c0,0.2,0,0,0.1,0
			c0.1,0,0.3-0.1,0.4-0.1c0.4-0.1,1-0.2,1-0.1c0,0.3,0,0.9-0.1,1.5h0.4c0-0.5,0-1-0.1-1.5c0-0.1,0.2,0,0.3,0l1.2,0.2c0,0,0,0,0-0.1
			c-0.1-0.1-0.2-0.3-0.1-0.5c0.1-0.1,0.3-0.3,0.4-0.4c0.2-0.1,0.4-0.3,0.5-0.4c0,0,0.4-0.3,0.7-0.5c-0.1-0.1-0.4-0.1-0.5-0.2
			S237.6,29.6,237.8,29.5"/>
		<path class="st9" d="M39.2,15.3l-3,13.2h-1.1L35,25.1C35,24,34.7,23,34.3,21.9c-0.3-0.9-0.9-1.8-1.6-2.4C32,18.8,31,18.2,30,17.9
			c-1.2-0.4-2.4-0.6-3.6-0.6c-3.3-0.1-6.6,1-9.3,2.9c-3.6,2.7-6.4,6.4-8,10.6c-1.6,3.6-2.4,7.5-2.4,11.4c0,3.9,1.1,7.1,3.4,9.4
			c2.3,2.4,5.6,3.6,8.9,3.5c2.6,0.1,5.1-0.6,7.4-1.8c2.4-1.5,4.4-3.4,6-5.7h1.4c-1.8,3.1-4.3,5.7-7.3,7.7c-2.9,1.7-6.2,2.5-9.6,2.4
			c-3.1,0.1-6.1-0.7-8.8-2.1c-2.5-1.3-4.5-3.4-5.8-5.9c-1.3-2.5-2-5.3-2-8.1c0.1-9.4,5.2-18.1,13.3-22.9c3.8-2.3,8.1-3.6,12.5-3.6
			c2.3,0.1,4.5,0.5,6.6,1.4c0.7,0.3,1.5,0.5,2.3,0.6c0.4,0,0.9-0.1,1.2-0.3c0.7-0.5,1.3-1.1,1.8-1.7L39.2,15.3z"/>
		<path class="st9" d="M62.3,29.7l-5.8,20.3l-0.7,2.7c-0.1,0.2-0.1,0.4-0.1,0.7c0,0.3,0.1,0.6,0.3,0.8c0.1,0.2,0.4,0.3,0.6,0.3
			c0.4,0,0.8-0.2,1.1-0.5c1.2-1.1,2.2-2.3,3.1-3.6l1,0.7c-1.1,1.8-2.6,3.4-4.2,4.8c-1.1,1-2.5,1.5-4,1.6c-0.7,0.1-1.4-0.2-1.9-0.6
			c-0.5-0.5-0.7-1.2-0.6-1.9c0.1-1.3,0.3-2.6,0.7-3.9l0.6-2.2c-2.6,3.4-5,5.8-7.2,7.2c-1.4,0.9-3,1.4-4.6,1.5
			c-1.5,0-2.8-0.7-3.8-1.8c-1.1-1.4-1.7-3.2-1.6-5c0.1-3.5,1.1-7,2.8-10.1c1.7-3.3,4.2-6.2,7.3-8.5c1.8-1.5,4.1-2.4,6.5-2.5
			c1.1-0.1,2.2,0.3,3,0.9c0.9,0.8,1.6,2,1.8,3.2l1.1-3.4L62.3,29.7z M51.7,31.3c-1.5,0.1-3,0.8-4.1,1.8c-2.3,2.1-4.2,4.7-5.5,7.6
			c-1.5,2.8-2.3,5.9-2.4,9.1c-0.1,1.2,0.3,2.3,1,3.2c0.6,0.7,1.4,1.1,2.3,1.1c2.2,0,4.5-1.6,7.1-4.8c3.4-4.2,5.1-8.6,5.1-13.2
			c0.1-1.3-0.2-2.6-1-3.7C53.7,31.6,52.7,31.2,51.7,31.3"/>
		<path class="st9" d="M77.8,14.2L67.6,49.9c-0.4,1.1-0.6,2.2-0.8,3.3c0,0.3,0.1,0.5,0.3,0.8c0.2,0.2,0.4,0.3,0.7,0.3
			c0.5,0,0.9-0.2,1.2-0.5c1.3-1.1,2.4-2.4,3.3-3.8l0.9,0.9c-1.4,2.2-3.2,4.1-5.2,5.6c-1,0.7-2.1,1.1-3.3,1.1c-1.4,0-2.6-1.1-2.7-2.6
			c0.1-1.5,0.4-3,0.9-4.4l8.1-28.1c0.4-1.3,0.7-2.6,1-4c0-0.5-0.2-0.9-0.5-1.2c-0.5-0.4-1.1-0.5-1.8-0.5c-0.7,0-1.4,0.1-2.1,0.2
			v-1.1L77.8,14.2z"/>
		<path class="st9" d="M85.2,29.7l-3.9,13.5c1.3-2.5,2.8-4.9,4.4-7.2c1.5-2.1,3.4-3.9,5.6-5.4c1-0.6,2.1-0.9,3.3-0.9
			c0.9,0,1.8,0.3,2.5,0.9c0.7,0.6,1,1.5,1,2.5c-0.1,1.3-0.3,2.6-0.7,3.8l-2.1,7.6c3.2-6.1,6.3-10.4,9.2-12.8c1.3-1.2,3-1.9,4.8-2
			c0.8,0,1.7,0.3,2.3,0.9c0.7,0.8,1,1.9,0.9,2.9c0,1.2-0.2,2.5-0.5,3.7l-3.3,11.7c-0.4,1.4-0.8,2.8-1.1,4.2c0,0.3,0.1,0.5,0.3,0.7
			c0.1,0.1,0.3,0.2,0.5,0.2c0.4-0.1,0.8-0.3,1-0.6c1.2-1,2.3-2.2,3.2-3.5l1,0.6c-0.8,1.2-1.7,2.3-2.6,3.3c-0.9,1.1-2,2.1-3.2,2.9
			c-0.8,0.5-1.6,0.7-2.5,0.7c-0.7,0-1.3-0.2-1.7-0.7c-0.5-0.5-0.7-1.1-0.7-1.8c0.2-2,0.6-3.9,1.2-5.8l2.7-9.6c0.6-2.2,0.9-3.4,1-3.6
			c0.1-0.4,0.1-0.7,0.1-1.1c0-0.4-0.1-0.8-0.3-1.2c-0.2-0.3-0.5-0.4-0.8-0.4c-1,0.1-2,0.5-2.7,1.3c-3.1,3.1-5.7,6.7-7.7,10.7
			c-1.8,3.7-3.3,7.6-4.4,11.6h-4.5l5.1-18.2c0.4-1.3,0.7-2.6,0.8-3.9c0-0.4-0.1-0.9-0.3-1.2c-0.2-0.2-0.5-0.4-0.8-0.4
			c-0.8,0-1.5,0.3-2.1,0.7c-1.8,1.4-3.3,3.1-4.6,5c-1.7,2.3-3.2,4.7-4.4,7.3c-0.5,1.1-1.7,4.6-3.6,10.6H73l5.6-19.4l0.7-2.5
			c0.1-0.3,0.2-0.6,0.2-0.8c0-0.5-0.2-0.9-0.6-1.2c-0.4-0.4-1-0.5-1.5-0.5c-0.7,0.1-1.4,0.2-2.1,0.4L75,31.6L85.2,29.7z"/>
		<path class="st9" d="M145.1,15.3L142,49.1c-0.2,1.6-0.2,2.6-0.2,3.1c0,0.6,0.1,1.3,0.5,1.8c0.4,0.6,0.9,1,1.5,1.3
			c1.1,0.3,2.2,0.5,3.3,0.4l-0.3,1.1h-15.9l0.3-1.1h0.7c1.1,0,2.2-0.2,3.2-0.8c0.6-0.5,1.1-1.1,1.3-1.9c0.3-1.4,0.6-2.9,0.6-4.4
			l0.5-5.2h-11.5l-4.2,5.6c-0.7,0.8-1.3,1.8-1.8,2.7c-0.2,0.5-0.4,1-0.4,1.5c0,0.6,0.3,1.2,0.8,1.7c0.7,0.5,1.6,0.8,2.6,0.7
			l-0.3,1.1h-12l0.3-1.1c1.4,0,2.8-0.6,3.9-1.5c1.9-1.8,3.6-3.8,5-6l24.2-33H145.1z M139.2,25.3l-11.7,16h10.2L139.2,25.3z"/>
		<path class="st9" d="M158.1,29.7l-5.9,21c-0.3,0.8-0.5,1.7-0.6,2.6c0,0.3,0.1,0.6,0.3,0.8c0.2,0.2,0.4,0.3,0.7,0.3
			c0.4,0,0.8-0.2,1.1-0.5c1.3-1.1,2.5-2.4,3.4-3.8l1,0.7c-1.3,2-2.9,3.8-4.8,5.2c-1.1,0.9-2.4,1.5-3.9,1.6c-0.7,0-1.5-0.2-2-0.7
			c-0.5-0.5-0.8-1.1-0.8-1.8c0.1-1.3,0.3-2.5,0.7-3.7l3.8-13.5c0.5-1.3,0.8-2.7,1-4.1c0-0.4-0.2-0.8-0.5-1.1
			c-0.4-0.3-0.8-0.4-1.3-0.4c-0.9,0.1-1.8,0.2-2.7,0.3v-1.2L158.1,29.7z M157.7,17.8c1.6,0,3,1.3,3,2.9c0,0,0,0,0,0.1
			c0,1.6-1.3,3-2.9,3c-0.8,0-1.6-0.3-2.1-0.9c-1.2-1.2-1.2-3.1,0-4.2C156.2,18.1,157,17.8,157.7,17.8"/>
		<path class="st9" d="M159.6,31.4l10.3-1.7l-4.3,14.5c3.5-6,6.6-10.2,9.5-12.5c1.6-1.4,2.9-2,3.9-2c0.6,0,1.1,0.2,1.6,0.6
			c0.4,0.5,0.6,1.1,0.6,1.7c0,1.3-0.3,2.6-1,3.8c-0.4,0.8-1.2,1.4-2.1,1.4c-0.4,0-0.9-0.2-1.2-0.5c-0.4-0.4-0.6-0.9-0.6-1.4
			c0-0.3-0.1-0.5-0.3-0.8c-0.2-0.2-0.4-0.2-0.6-0.2c-0.3,0-0.6,0.1-0.9,0.2c-0.9,0.7-1.7,1.4-2.4,2.3c-2,2.4-3.8,5-5.4,7.7
			c-0.9,1.4-1.6,2.9-2.1,4.5c-0.8,2.3-1.3,3.7-1.4,4.1l-1,3.8h-4.5l5.5-18.6c0.5-1.5,0.8-3,0.9-4.6c0-0.4-0.2-0.7-0.4-0.9
			c-0.5-0.3-1-0.5-1.6-0.5c-0.8,0-1.5,0.1-2.3,0.3L159.6,31.4z"/>
	</g>
</g>
</svg>
