<?xml version="1.0" encoding="utf-8"?>
<!-- Generator: Adobe Illustrator 25.4.1, SVG Export Plug-In . SVG Version: 6.00 Build 0)  -->
<svg version="1.1" id="Layer_1" xmlns="http://www.w3.org/2000/svg" xmlns:xlink="http://www.w3.org/1999/xlink" x="0px" y="0px"
	 viewBox="0 0 328.4 80" style="enable-background:new 0 0 328.4 80;" xml:space="preserve">
<style type="text/css">
	.st0{fill:#FCCB11;}
	.st1{fill:#8C2F87;}
	.st2{fill:#8E3289;}
</style>
<g>
	<path class="st0" d="M287.5,42.9c-10.1-1.6-18.3,2.5-26.2,7.5c-1.5,0.9-2.8,1.9-4.4,2.8c1.1-1.6,2.5-2.7,3.9-3.8
		c4.9-4,10-7.6,16.1-9.5c1.2-0.4,2.4-0.6,3.6-0.8c0.5-0.1,1.1-0.2,1.7,0.2C284,40.3,285.8,41.3,287.5,42.9z"/>
	<path class="st1" d="M285,54.6c-4.7,0.1-7.2-1.8-8.7-6.3c-1.1-3.5-1.1-3.5,2.4-4.2c2.9-0.5,2.9-0.5,3.8,2.2
		c0.9,2.5,1.4,5.9,4.4,6.7c0.4,0.1,0.9,0.1,0.8,0.7C287.5,55.1,285.9,54.5,285,54.6z"/>
	<path class="st1" d="M299.9,29c0.7-2.2-3.8-0.7-5-1.2c-0.9-0.1-1.2,0.3-1.4,1.2c-0.9,5.3-1.9,10.6-2.8,15.9c-2,9.5-1.8,9.9,8,9.5
		c0.8,0,0.8-1.3,0-1.2c-2.5-0.7-2.8-1-2.4-3.6c0.5-3.2,1.1-6.3,1.6-9.5l0,0h0c0.1-0.5,0.2-1.1,0.3-1.6c0,0,0,0,0,0
		c0.1-0.7,0.3-1.4,0.4-2.1v0c0.4-0.8,0.3-1.7,0.5-2.5c0,0,0,0,0,0l0,0C299.4,32.2,299.6,30.6,299.9,29z"/>
	<path class="st1" d="M321.1,41.8c8.4-1.6,10.6-11.4,1.2-13.4c-6-1.1-12.3-0.4-18.4-0.6c-1.3-0.2-1.6,1.5-0.2,1.3
		c3,0.3,2.3,2.8,2.1,5c-0.4,1.5-0.9,3.1-0.9,4.7c0,0,0,0,0,0h0c0,0.3,0,0.6,0,1c0,0,0,0,0,0c-1.3,4.6-1.8,9.3-2.6,14
		c-0.1,0.8,0.4,0.7,0.9,0.7c1.5-0.3,5.4,0.9,5.6-1.1c0.5-3.3,1.2-6.5,1.8-9.8c0.1-0.6-0.1-1.3,0.9-1.3c0.8,0,1.3,0.1,1.7,0.9
		c3.2,6.2,6.9,14.2,15.2,11.2c0.3-1.9-3.8-2.1-5.1-5.6c-0.9-1.7-1.8-3.5-2.8-5.2C319.7,42.5,320,42.1,321.1,41.8z M319.4,38.2
		c-2.4,1.9-5.4,1.7-8.2,1.8c0.1-3,1.1-6.1,1.5-9.1c0.2-0.8,0.5-1.2,1.3-1.2C320,28.3,324.3,33.4,319.4,38.2z"/>
	<path class="st1" d="M279.7,37.9c-0.9-2.9-1.8-5.7-2.7-8.5c-0.2-0.6-0.1-1.5-1.2-1.6c-2.7-0.3-4,4.2-5.8,5.9h0
		c-0.8,1-1.6,2-2.2,3.1l0,0l0,0c-3,4.1-6,8.2-9,12.3c5.7-3,9.3-8.1,12.8-13.2c1.1,0,0.6,1.2,1.2,1.6c0.4,2.9,1.4,2.2,3.5,1.2
		c0,0,0,0,0,0C277.6,39,278.6,38.2,279.7,37.9z"/>
	<g>
		<path class="st2" d="M220.8,27.6c-1.7,0.5-5.1-1.1-5.3,1.5c-1,6.4-2,12-3.2,18.5c-3.2-5.6-6.1-11-9.1-16.6
			c-0.9-1.6-2.1-2.7-3.9-3.1c-1.3-0.1-6.8-1.2-7.1,0.3c0.3,1.7,5-0.5,3.7,5.1c-1,5.6-2,11.1-3,16.7c-0.2,1.4-1.2,3.1-0.4,4
			c0.8,0.8,2.7,0.1,4.1,0.3c1.6,0.2,2.1-0.5,2.3-2c0.8-5.2,1.7-10.4,2.7-16.1c2.8,4.7,5,9.4,7.6,14.2c1.5,3,4.1,3.9,7.3,3.9
			c0.7,0,1.1-0.2,1.2-1c1.4-8.1,2.9-16.3,4.3-24.4C222.2,27.8,221.8,27.6,220.8,27.6z"/>
		<path class="st2" d="M125.6,27.6c-1.5,0.5-4.7-1-5,1.2c-0.5,3.2-1.2,6.3-1.7,9.5c-0.2,1.1-0.7,1.4-1.6,1.3c-3.4,0-6.8-0.1-10.2,0
			c-1.2,0-1.6-0.2-1.3-1.6c0.2-2.9,3.3-9.3-1.1-10.2c-1.1,0-7.6-0.8-7.4,0.6c0.2,1.5,4.2-0.3,3.1,4.1c-1.1,6.4-2.3,12.8-3.4,19.2
			c-0.5,2.7-0.5,2.7,2.2,2.7c1.4-0.3,3.8,0.9,4-1.2c2.6-11.8-0.9-10.6,8.4-10.6c0,0,0,0,0,0c1.7,0,3.3,0.1,5,0
			c1.2-0.1,1.7,0.1,1.3,1.5c-1.8,9.2-3.1,10.9,7.5,10.4c0.5,0,0.9,0,1-0.7c0.1-0.8-0.6-0.6-1-0.7c-4.3-0.5-1.2-6.5-1.1-9.3
			c0.9-4.9,1.7-9.7,2.6-14.6C127.1,28,126.9,27.5,125.6,27.6z"/>
		<path class="st2" d="M252.7,27.6c-1.8,0.5-5.1-1.2-5.5,1.4c-1,5.7-2,11.3-3.1,17c-0.3,1.7-0.9,3.2-2,4.5
			c-3.3,4.1-10.9,2.6-10.9-3.1c-0.4-5.4,1.5-10.6,2.2-15.8c0.9-3.9-2.7-4.1-5.6-3.9c0,0,0,0,0,0c-1.1,0.2-3.1-0.7-3.5,0.7
			c-0.1,0.6,0.5,0.6,0.8,0.7c3.4,0.7,1.3,5.3,1.1,7.6c-1.8,6.8-3.1,16.7,6.2,17.8c7.9,1.3,16.4-0.9,18.2-9.6
			c1.4-5.3,2.1-10.7,3-16.1C253.8,27.8,253.6,27.6,252.7,27.6z"/>
		<path class="st2" d="M157.6,27.6c-1.8,0.5-5.4-1.2-5.7,1.5c-0.9,5.3-1.6,10.6-2.8,15.9c-0.5,4.7-4.5,9.2-9.5,7.5
			c-7-2.9-2.4-12-2.1-17.5l0,0c0.1-2.4,2.1-6.6-1.6-7.1c-1.2,0-6.9-0.9-7,0.4c-0.1,0.8,0.5,0.7,0.9,0.8c3.8,0.9,0.6,6.5,0.8,9.1
			c0,0,0,0,0,0c-3.4,10.9,0.3,17.6,12.3,16.4c9.5-0.3,12.8-8.1,13.6-16.4v0c0.6-1.2,0.1-2.5,0.6-3.7c0.6-1.8,0.6-4,1.1-5.9
			C158.5,27.8,158.3,27.6,157.6,27.6z"/>
		<path class="st2" d="M190.2,28.4c-1.6,8.4-3,16.8-4.5,25.2c-0.1,0.6-0.4,0.7-0.9,0.8c-3.1,0.1-5.6-0.7-7.3-3.5
			c-2.8-4.7-4.9-9.6-7.6-14.3c-1.5,5.4-2,11.2-3.1,16.8c-0.2,2-4.1,0.6-5.5,1.1c-0.8,0-1-0.3-0.8-1c1-4.5,1.6-9.1,2.6-13.6
			c0.2-2.8,3.3-10.2-1.1-10.7c-0.5-0.1-1.6,0.3-1.5-0.8c0.1-1,1.1-0.5,1.7-0.6c1.6-0.1,3.1,0,4.7,0.2c4.2,0.4,5.3,4.9,7.1,8
			c2.3,3.6,4,7.6,6.3,11.3c0.1,0,0.3,0,0.4,0c1.2-6.3,2.1-12.5,3.3-18.8c0.5-1.7,4.2-0.5,5.6-0.8C190,27.6,190.4,27.6,190.2,28.4z"
			/>
	</g>
	<g>
		<path class="st1" d="M265.2,68.5c-0.3-1.7,1.9-10.7,0.6-10.5c-1.6-0.9-4.6,8-5.7,9.5c-0.5,0.4-0.6,0.9-0.7,1.5
			c-0.2,0.1-0.4,0.3-0.6,0c0.1-0.9-0.5-1.6-0.7-2.4c0,0,0,0,0,0c0,0,0,0,0,0c-1.3-2.9-1.6-11.5-6.6-7.7c1,0,2.1-0.3,2,1.2
			c-0.2,3.7-0.5,7.4-1.8,11c-0.1,0.3-0.8,0.8,0,1.1c2.5,1.1,2.1-9.6,2.7-11.7c0.8,2.5,1.5,4.7,2.2,6.9h0c0.2,0.5,0.2,1.2,0.6,1.6h0
			c0.2,1.1,0.4,2.2,1.1,3.4c0.9-1.7,1.5-3.1,2.3-4.7h0c1.1-2.2,2.1-4.3,3.2-6.5c0.1,0.2,0.2,0.4,0.3,0.6c0,0,0,0,0,0
			c-0.2,2.6-0.4,5.3-0.5,7.9c-0.6,2.8,2.1,3.3,4,1.6C265.1,71.1,265.1,71.1,265.2,68.5z"/>
		<path class="st1" d="M248.5,59.4c-2.1-0.7-4.4,0.7-5,2.9c-0.2,0.6,0.1,1.5-0.9,1.8c-0.4,0-0.8-0.2-1,0.4c0.5,0.3,1.1-0.4,1.4,0.2
			c-0.2,3,0.2,6.1-2.2,8.5c-0.4,0.5-1.1,1.1-0.5,1.7c0.5,0.5,1.3,0.1,1.9-0.2c3-2.4,1.1-7,2.6-10.2c0.8,0.2,1.6,0.4,2.3-0.4
			c-0.8,0-1.6,0-2.4,0c-0.4-3.2,0.8-3.9,3.6-3.7C249.5,60.6,249.5,59.5,248.5,59.4z"/>
		<path class="st1" d="M206.3,63.3c-2.5-0.8-3.7,2.4-5,3.9c0.1-2.5,1.1-5-2.5-3.5c-0.3,0-0.7,0.1-0.5,0.5c0.3,0.7,2-1.2,1.8,1.4
			c0.1,1-1.2,6.7-0.2,6.6c1.7,0.1,1.3-3,2-4.1c1-1.1,1.6-3.8,3.4-3.3c1.7,1.2-0.6,5,0.3,6.9c0.2,1.1,1.6,1,1.4-0.1
			C206.3,69,208.7,65,206.3,63.3z"/>
		<path class="st1" d="M191.4,57.8c1.9,3.6-2.1,8.9-3.6,12.4c-0.9-1.1-0.4-2.5-0.9-3.7c0,0,0,0,0,0c-0.3-2.6-0.4-5.7-1.5-8.1
			c-0.3-0.1-0.5,0.1-0.6,0.4c-1.5,3.7-2.4,7.6-4.4,10.9c-0.1-0.1-0.1-0.3-0.2-0.4h0l0,0c-0.3-1.6-0.5-3.2-0.8-4.8
			c-1-3.2,0.1-8.9-5.1-5.9c2.1-0.3,2.5,1,2.8,2.6c0.6,2.8,1.1,5.5,1.5,8.4c0,0,0,0,0,0c0.1,0.5-0.1,1.1,0.3,1.6
			c0.1,0.4-0.1,1,0.6,1.1c1.6,0,2-3.7,2.9-4.9c0,0,0,0,0,0c0.1-0.8,0.4-1.4,0.8-2.1c0,0,0,0,0,0c0.4-1.1,0.9-2.2,1.5-3.6
			c0.5,3,1,5.7,1.5,8.4c0,0,0,0,0,0c0.1,0.7-0.3,2.2,0.7,2.2c0.8,0.1,1-0.5,1.2-1.1l0,0C189,69.2,197,56.8,191.4,57.8z"/>
		<path class="st1" d="M196.1,63.4c-0.6-0.4-1.3,0.1-1.9,0.5c0.9,0.4,0.6,1.2,0.5,1.8c-0.3,1.9-0.3,3.7-0.2,5.6
			c0,1.6,2.1,1.4,1.5-0.1c-0.3-2,0.1-4,0.2-6C196.2,64.5,196.8,63.8,196.1,63.4z"/>
		<path class="st1" d="M315,63.3c-0.4,0.1-1.3,0-1,0.6c0.8,1.5-1.4,8.5,1,8.4c0.7-0.1,0.7-0.7,0.5-1.2c-0.4-1.2-0.2-2.5-0.1-3.7
			C315.1,66.5,316.7,63.1,315,63.3z"/>
		<path class="st1" d="M310.4,59.3c-0.5,0.1-1.3,0.1-1.2,0.6c0.5,3.9-0.7,7.7-0.4,11.6c0.1,0.6,0.4,1,1.1,0.9
			c1.2-0.3,0.4-1.6,0.3-2.4c0.3-3.3,0.5-6.5,1-9.8C311.2,59.6,311,59.3,310.4,59.3z"/>
		<path class="st1" d="M224.9,63.4c-1.8-0.7-4.9,0.1-5,2.4c-0.6,2.7,7.5,3.3,3.4,5.7c-2.8,0.7-2.3-1.8-3.4-1.5
			c-0.4,0.1-0.6,0.4-0.7,0.8c1.1,4,9.8,0.3,5.3-2.9c-1.5-0.9-5-1.8-2.4-3.8c1.1,0,2.5-0.6,2.4,1.4c0,0.3,0.4,0.3,0.6,0.3
			C226.3,65.5,225.9,63.7,224.9,63.4z"/>
		<path class="st1" d="M196.2,58.5c-1.3,0-1.5,2.1-0.2,2.1C197.3,60.6,197.6,58.5,196.2,58.5z"/>
		<path class="st1" d="M315.4,59.8c-1.1-0.1-1.5,2-0.3,2.1C316.5,61.9,316.8,59.7,315.4,59.8z"/>
		<path class="st1" d="M286.1,64.3c-0.2-0.5-0.5-0.9-1.1-1.1c-0.9-0.3-1.7,0.4-2.3,0.9c-0.9,1.1-2.2,2.2-2.2,3.7
			c-0.1-0.1-0.3-0.2-0.4-0.3c0.1-0.4,0.1-0.8,0.2-1.2c0.4-0.6,0.2-1.3,0.2-2c0.3-1.8-1.8-0.8-2.7-0.6c-0.3,0-0.7,0.1-0.5,0.4
			c0.5,0.7,1.1-0.4,1.7,0.3c0.3,1.8-0.4,3.5-0.3,5.3c0,0.5-0.1,1-0.1,1.5c-0.2,0.4-0.5,0.9,0.3,1c1.3,0.3,0.9-1.1,1.3-1.9
			c0.2-0.7,0.4-1.4,0.6-2.2c0.1-0.3,0.3-0.6,0.4-0.9c0.7-1,1.4-2,2.4-2.6c0.4,0.1,0.7,0.3,1.1,0.4c0.5,2.1-0.6,4.3-0.3,6.3
			c0.2,1.3,1.8,0.9,1.4-0.6c-0.3-1.2,0.2-2.1,0.4-3.3C286.3,66.5,286.4,65.3,286.1,64.3z"/>
		<path class="st1" d="M218.3,63.2c-1.5-0.6-1,0.9-1.9,0.5c-7.8-4.2-11.3,12.2-1.4,7.7c0.1,2.5-2.9,4.2-5,2.7
			c-0.3-0.2-0.2-1.2-0.9-0.5c-0.5,0.5-0.3,1.1,0.1,1.5c2.6,2.1,6.7,0.1,7.3-3c0.7-2.7,1.3-5.4,1.9-8
			C218.5,63.8,218.8,63.3,218.3,63.2z M216.3,66.9c-0.3,1.5-0.7,2.9-2.2,3.7c-4,1.9-4.3-4.5-1.3-6C214.4,63.4,216.8,64.9,216.3,66.9
			z"/>
		<path class="st1" d="M235.4,63.3c-5,0.8-5.5,11.2,0.9,8.8C240.3,70.7,240.9,62.3,235.4,63.3z M237.9,67.8c0.1,2.2-2.4,5.5-4.3,2.5
			C231.1,65.3,237.6,60.3,237.9,67.8z"/>
		<path class="st1" d="M274.2,63.4c-3.9-1.5-8,5.4-4.7,8.2C274.1,75.6,279,65.5,274.2,63.4z M274.2,69.9c-0.7,1.7-1.8,2-3.4,1
			c-1.4-2-1.2-6.9,1.9-6.8C275.1,64.7,275.1,68.1,274.2,69.9z"/>
		<path class="st1" d="M295.2,64.6C295.2,64.6,295.2,64.6,295.2,64.6c-0.2,0.5-0.5,0-0.7,0c-7.5-4.1-10.9,12.7-1.1,7.6
			c-0.2,2.6-3.1,4.4-5.1,2.8c-0.2-0.2-0.1-1.2-0.9-0.5c-0.5,0.4-0.3,1,0,1.4c3.3,2.5,7.6-0.4,7.7-4.8c0.4-2.3,1.5-4.6,1.6-6.9
			C296.1,63.8,295.6,63.8,295.2,64.6z M293.8,70.2c-4,4.5-6.8-0.9-3.5-4C293.3,63.3,295.8,67.5,293.8,70.2z"/>
		<path class="st1" d="M306.4,65.2c-2.3-5-8.6,0.1-7.5,4.2c1,6,8.3,2,7.7-2.6c0,0,0,0,0,0C306.8,66.3,306.9,65.7,306.4,65.2z
			 M304.8,70c-0.3,0.5-0.9,0.8-1,1.5c-3.9,1.1-4.4-4.7-2.4-6.8C304.4,62.1,306.6,67.9,304.8,70z"/>
		<path class="st1" d="M325.7,63.8c-7.8-3.3-11.2,10.4-3.1,8.7c0.4-0.1,0.8-0.6,1.3-0.3c1.3,0.9,1.5-0.1,1.5-1
			c0.2-2.2,0.2-4.4,0.7-6.5C326.2,64.3,326.3,64,325.7,63.8z M324.2,65.8c-0.4,2.1,0.4,5.6-2.8,5.5c-3.9-0.3-1.5-7,1.7-6.7
			C324,64.6,324.4,64.8,324.2,65.8z"/>
	</g>
	<path class="st2" d="M74.8,34.5C72.3,32.4,72.4,29,75,27c0.5,0.7,0.8,1.8,1.9,1.5c0.6-0.1,1.2-0.5,1.2-1.2
		c-0.2-2.3-3.5-2.5-5.1-1.4c-6.2,4-1.1,9.5-3.5,9.3c-13,0.2-12.1-16,0-15c0.7,0.1,1.1,0.3,1.3,1.1c0.7,3,4.3,0.2,3.7-1.9
		c-0.3-1.3-1.4-1.8-2.6-2c-5.1-0.9-10.3-0.2-12.9,6c-0.7,2.2-4,6.9-5.7,2.9c-3.1-6.4,4.1-13,10.5-12.5c1.8,0.2,2.9-1.3,2.5-3
		C66.1,9,62.5,5.5,62,8.9c-0.4,3.1-2.4,5.7-5.6,3.9c-4.7-2.3,9.6-2.8,1.5-8.3c-0.3-0.4-0.8-0.5-1.3-0.6c-9.5-5.1-21.9-4.9-31.9-0.6
		c0,0,0,0,0,0c-0.3,0-0.5,0.1-0.6,0.3c0,0,0,0,0,0C22,4,8,11.7,13.9,13.4c4.5,0.8,3.3-2.8,5.4-4.6c1.2-1,2.2-2.2,3.5-3.1
		c0.3-0.1,0.7-0.3,0.9-0.6c0.5,0,0.8-0.2,0.9-0.6v0c1.7-0.6,3.3-2.1,5.1-1.8c-0.5,0.8-1.4,1.3-1.3,2.5c-0.3,0.1-0.3,0.4-0.3,0.7h0
		c-0.6,3.7,3.2,6.5,6.6,6.6c6.5,0.9,7.8-7.7,3-10.4c-0.2-0.5-0.9-0.3-1.1-1.1c8,0,16.7,1.8,15.1,11.7c0,0,0,0,0,0
		c-1.5,10.2-11.8,13.7-18.1,9.6c0.2-0.4,0.6-0.1,0.9-0.3c0,0,0,0,0,0c10.2,1.8,17.8-9.5,10.7-17.5c-2.3-1.7-1.1,3.5-1.3,4.5
		c0,0,0,0,0,0c-0.8,6.8-6.8,11.2-13.5,8.6c-2.1-0.8-2.6-1.6-2.7-3.8c-0.3-3.1-4.5-0.5-3.4,1.8c1.9,5.9,7.7,9.5,13.1,11.9
		c4.8,2.9-0.5,7.8-5.7,4.4c-3.2-1.6-25.8-15-23.5-5c1.5,3.3,6.1-1.3,9.4,3.4c1.3,1.3,0.2,3-1.5,2.5c-2-0.3-3.7-1.3-5.3-2.4
		C7.3,27,5.5,34.9,10,34.6c-0.1,0.1-0.2,0.1-0.4,0.1c1,0.4,2.1,0.4,3.1-0.1c2.1,0.1,4.2-0.5,6.3-0.3c0,0,0,0,0,0c0.4,0,0.8,0,1.3,0
		c0,0,0,0,0,0c1.6,0.2,3.2,0.5,4.7,0.9l0,0c0.5,0.1,1,0.4,1.5,0.3c2.5,0.9,4.9,2.3,7.2,3.8v0c4.9,3.7,8.7,8.4,11.1,14.5
		c-7.4-3.3-15-6.9-22.9-4c-4.2,1.7-7.7,6.6-7.3,10.7c5.2-2.9,10.7-0.6,14.2,3.8c1.2,1.8,2.9,4.2,1.6,6.3c-2.9,3.4-11.5-0.1-13.7-3.1
		c1.3-0.1,2.7,0.1,3.7-1l0,0c2.8-0.1,4.5-5.4,0.6-4.1c-1.4,0.7,0.2,1.9-0.7,2.9c-2.2,0.9-4,1.1-6.2,0v0c-2.6-1.7-4.6-3.9-6.5-6.5
		c4.5,0.9,8-4,4.1-4.2c-0.6,0.2-0.8,0.6-0.8,1.2c-0.1,2-3.3,3-4.3,1.2c-1.1-1.2-4.4-6.4-0.4-4.7c1.3,0.6,4.2-0.8,2.8-2.3
		c-0.5-0.3-1-0.2-1.3,0.4c-0.5,1.3-1.5,1-2.5,0.6c-3.5-1.9-4.2-6.8-4.4-10.4c-0.4-2.6,3.1-2.9,3.2-0.9C4,40.1,4.2,40.7,5,40.6
		c2-0.5,0.9-3.5-0.6-4.1c0,0,0,0,0,0c-2.3-1-4.3,0.3-4.4,3C-0.2,50.3,3.7,60,11.2,67.8v0c0.4,0.4,0.8,0.8,1.3,1.2
		c0.3,0.5,0.7,0.7,1.2,1c0,0,0,0,0,0c8.2,7.3,19.2,10.6,30.1,9.9c0.6,0,1.3,0,1.4-0.7c0.1-0.7-0.7-0.7-1.3-0.9
		c-6.1-1.7-4.5-9.5-7.4-13.7c-3.8-5.4,1.8-3.1,2.4-7.6c0.4-2.2,0.6-2.3,2.6-1.2c5.3,3.3,11.9,8,11,15h0c-1,2.4-4.1,4.7-5.5,1.4
		c-0.3-0.7-0.8-1-1.6-0.9c-4.1,1,0,5.3,2.5,5.6c5.3,1.5,16.5-1.4,16.6-8.1c-0.3-1,0-1.2,1-1.5c4.3-1.3,7.8-3.6,9.9-7.8
		c1-1.6-0.3-2.9-1.8-1.6c-2,1.2-4.2,1.9-6.6,1.6c-5.8,0.1-27.3-9.8-15.8-15.6c3.5-1.5,7.2-1.6,10.9-1.1c3.7,0.3,4.9,4.1,6.6,6.8
		c1,1.9,4,0.6,3.3-1.4c-1.5-9.4-13.3-6-19.5-9.3c-1.6-1.5-2.9-3-1.3-5c0.9,0,1.9,0,2.8,0c0,0,0,0,0,0c1.1,0.1,2.1,0.4,3.1,0.6
		c0,0,0,0,0,0c1.6,0.4,3.1,1.1,4.7,1.5c8.6,3.2,17.1,6.1,12.3,17c-0.7,1.2,0.4,1.9,1.5,1.2C81.6,50.2,80.6,38.8,74.8,34.5z M30.8,54
		c-1.6,2.3-2.6-1.7-4.7-1.1c-1.1,0.2-1.3-1.2-0.3-1.5C28,50.2,32.7,50.9,30.8,54z M43.8,42.2c-3.1-0.7-5.6-2.2-6.9-5.3
		c0.7-2.4,1.9-3.1,5.6-3.1c0.7-0.1,1.2,0.1,1.6,0.7C47.6,35.7,48.9,42.8,43.8,42.2z"/>
</g>
</svg>
