<?xml version="1.0" encoding="utf-8"?>
<!-- Generator: Adobe Illustrator 25.4.1, SVG Export Plug-In . SVG Version: 6.00 Build 0)  -->
<svg version="1.1" xmlns="http://www.w3.org/2000/svg" xmlns:xlink="http://www.w3.org/1999/xlink" x="0px" y="0px"
	 viewBox="0 0 76.26 80" style="enable-background:new 0 0 76.26 80;" xml:space="preserve">
<style type="text/css">
	.st0{fill-rule:evenodd;clip-rule:evenodd;fill:#00265D;}
</style>
<g id="Layer_2">
</g>
<g id="Layer_1">
	<g>
		<path class="st0" d="M65.62,13.54c-11.49-1.65-17.87,7.62-17.71,7.47c1.78-1.33,3.24-2.46,4.69-3.36
			c2.17,2.57,5.33,3.48,7.35,2.01c1.27-0.93,1.74-2.62,1.46-4.47c1.2,0.18,2.37,0.55,3.77,1.11C65.87,16.52,66.69,13.64,65.62,13.54
			z M59.15,18.71c-1.52,1.23-4.05,0.46-5.83-1.5c2.4-1.48,4.43-2.18,6.62-2.16C60.39,16.46,60.01,18.03,59.15,18.71z"/>
		<path class="st0" d="M1.92,22.8c1.98-6.48,5.42-12.36,9.9-17.24c19.8-8.35,45.32-8.29,64.45,7.11C64.26,6.55,28.77,0.03,1.92,22.8
			"/>
		<path class="st0" d="M0.77,44.02c-0.87-4.68-1.02-9.51-0.36-14.24C14.42,15.54,35.38,6.16,57.39,10.77
			C45.34,10.8,16.47,19.05,0.77,44.02"/>
		<path class="st0" d="M8.26,61.55c-2.33-3.26-4.25-6.86-5.63-10.68c8.33-17.65,24.4-33.01,46-36.36
			C37.89,18.56,15.48,35.05,8.26,61.55"/>
		<path class="st0" d="M21.86,74.12c-3.32-1.96-6.32-4.35-9.01-7.07c2.88-18.65,14.27-38.15,32.5-48.27
			c-1.34,1.97-1.96,4.28-1.85,6.74C32.87,36.29,22.32,53.02,21.86,74.12"/>
		<path class="st0" d="M38.71,80c-3.59-0.5-7.07-1.39-10.36-2.66c0.12-16.88,5.6-36.93,15.53-49.23c0.55,2.16,1.6,4.37,3.29,6.58
			C55.05,25.44,64.12,18.9,75.39,16C60.02,21.84,36.11,40.44,38.71,80"/>
	</g>
</g>
</svg>
