<?xml version="1.0" encoding="utf-8"?>
<!-- Generator: Adobe Illustrator 25.4.1, SVG Export Plug-In . SVG Version: 6.00 Build 0)  -->
<svg version="1.1" xmlns="http://www.w3.org/2000/svg" xmlns:xlink="http://www.w3.org/1999/xlink" x="0px" y="0px"
	 viewBox="0 0 545.74 80" style="enable-background:new 0 0 545.74 80;" xml:space="preserve">
<style type="text/css">
	.st0{fill-rule:evenodd;clip-rule:evenodd;fill:#00265D;}
</style>
<g id="Layer_2">
</g>
<g id="Layer_1">
	<g>
		<path class="st0" d="M522.08,17.65c2.17,2.57,5.33,3.48,7.35,2.01c1.27-0.93,1.74-2.62,1.46-4.47c1.2,0.18,2.37,0.55,3.77,1.11
			c0.69,0.23,1.51-2.65,0.44-2.75c-11.49-1.65-17.87,7.62-17.71,7.47C519.16,19.68,520.63,18.55,522.08,17.65 M528.63,18.71
			c-1.52,1.23-4.05,0.46-5.83-1.5c2.4-1.48,4.43-2.18,6.62-2.16C529.87,16.46,529.49,18.03,528.63,18.71 M471.39,22.8
			c1.98-6.48,5.42-12.36,9.9-17.24c19.8-8.35,45.32-8.29,64.45,7.11C533.74,6.55,498.25,0.03,471.39,22.8 M470.25,44.02
			c-0.87-4.68-1.02-9.51-0.36-14.24c14.01-14.24,34.97-23.61,56.98-19.01C514.82,10.8,485.95,19.05,470.25,44.02 M477.74,61.55
			c-2.33-3.26-4.25-6.86-5.63-10.68c8.33-17.65,24.4-33.01,46-36.36C507.36,18.56,484.96,35.05,477.74,61.55 M491.33,74.12
			c-3.32-1.96-6.32-4.35-9.01-7.07c2.88-18.65,14.27-38.15,32.5-48.27c-1.34,1.97-1.96,4.28-1.85,6.74
			C502.35,36.29,491.8,53.02,491.33,74.12 M508.19,80c-3.59-0.5-7.07-1.39-10.36-2.66c0.12-16.88,5.6-36.93,15.53-49.23
			c0.55,2.16,1.6,4.37,3.29,6.58c7.87-9.26,16.94-15.8,28.21-18.69C529.5,21.84,505.59,40.44,508.19,80 M81.78,65.32h17.48
			c1.65,0,3.54-1.31,4.24-3.06l0.72-1.71h-9.19l4.34-10.19h24.33v0.03l-9.73,22.62c-1.89,4.16-4.85,7.13-10.37,6.84L59.79,79.8
			L82.1,27.7c1.9-4.2,4.83-6.98,10.37-6.87h43.88l-10.47,24.41h-15.11l4.27-10.03H95.89c-0.67,0-1.48,0.6-1.73,1.3L81.78,65.32z
			 M85.64,0.11L41.7,0.19c-5.59-0.15-8.48,2.72-10.44,6.93c-0.75,1.58-1.95,4.34-3.43,7.82L0,79.86h44.18
			c5.58,0.03,8.5-2.74,10.42-6.94c0.72-1.58,1.97-4.37,3.44-7.81l-36.03-0.11l7.41-17.26h20.34l6.32-14.75h-20.3l7.19-16.76
			c0.31-0.7,1.1-1.3,1.79-1.3h34.53L85.64,0.11z M410.83,45.44h17.41c1.64,0,3.48-1.41,4.24-3.09l3.11-7.13h-19.17
			c-0.68,0-1.47,0.6-1.76,1.3L410.83,45.44z M411.88,60.44h-7.75c-2.46,5.66-4.49,10.29-5.54,12.57c-1.89,4.16-4.77,6.9-10.37,6.83
			h-8.02l8.24-19.33c5.71-13.41,11.97-28.09,14.1-32.82c1.87-4.16,4.85-7.11,10.39-6.85l43.84-0.01
			c-5.68,13.4-11.98,28.09-14.15,32.83c-1.89,4.14-4.82,7.09-10.36,6.84l13.65,19.34h-20.98L411.88,60.44z M187.63,20.85l8.06-0.01
			c-5.69,13.4-11.93,28.09-14.08,32.83c-1.89,4.14-4.82,7.09-10.34,6.84h-10.29c-2.44,5.67-4.45,10.22-5.47,12.51
			c-1.87,4.16-4.82,7.13-10.36,6.84l-8.07,0.03l8.3-19.37h-17.96c5.72-13.42,11.96-28.1,14.08-32.82c1.92-4.16,4.83-7.11,10.36-6.85
			l8.03-0.03l-10.4,24.59l17.42,0.02c1.65,0,3.56-1.38,4.23-3.09c2-4.91,3.94-9.8,6.17-14.64
			C179.19,23.54,182.07,20.72,187.63,20.85 M356.54,79.85l8.11,0.01c5.55,0.29,8.47-2.68,10.35-6.84l22.4-52.18l-8.1,0.01
			c-5.55-0.25-8.48,2.69-10.36,6.85c-2.18,4.72-8.44,19.4-14.13,32.82L356.54,79.85z M208.84,45.44H226c1.69,0,3.5-1.41,4.24-3.09
			l3.1-7.14h-18.94c-0.67,0-1.48,0.61-1.78,1.3L208.84,45.44z M202.45,60.44l28.2,0.07c5.7,0,8.44-2.7,10.33-6.84
			c2.15-4.74,8.4-19.44,14.06-32.83l-43.89,0.01c-5.56-0.16-8.44,2.69-10.34,6.85l-22.26,52.15h8.08c5.62,0.1,8.46-2.68,10.36-6.84
			C198.03,70.73,200.01,66.1,202.45,60.44 M255.72,79.83l8.13,0.03c5.51,0.29,8.42-2.68,10.31-6.84c2.08-4.6,8.03-18.66,13.58-31.77
			c0.17-0.35,2.4-5.68,2.58-6.04h17.86l6.06-14.34l-43.7-0.03c-5.57-0.24-8.48,2.71-10.36,6.87L257,35.27l17.77-0.06L255.72,79.83z
			 M327.47,45.44h17.11c1.64,0,3.53-1.41,4.24-3.09l3.08-7.13h-18.83c-0.68,0-1.47,0.6-1.76,1.3L327.47,45.44z M341.09,60.51h-20.01
			c-2.45,5.64-4.45,10.22-5.48,12.51c-1.91,4.16-4.82,7.13-10.55,6.84l-7.83-0.01l8.21-19.33c5.71-13.42,11.97-28.1,14.14-32.82
			c1.87-4.16,4.51-6.88,10.35-6.85h43.73l-22.33,52.17c-1.87,4.16-4.82,7.13-10.37,6.84h-7.85L341.09,60.51z"/>
	</g>
</g>
</svg>
