<?xml version="1.0" encoding="utf-8"?>
<!-- Generator: Adobe Illustrator 25.4.1, SVG Export Plug-In . SVG Version: 6.00 Build 0)  -->
<svg version="1.1" xmlns="http://www.w3.org/2000/svg" xmlns:xlink="http://www.w3.org/1999/xlink" x="0px" y="0px"
	 viewBox="0 0 371.62 80" style="enable-background:new 0 0 371.62 80;" xml:space="preserve">
<style type="text/css">
	.st0{fill-rule:evenodd;clip-rule:evenodd;fill:#1B1D80;}
	.st1{filter:url(#Adobe_OpacityMaskFilter);}
	.st2{fill-rule:evenodd;clip-rule:evenodd;fill:#FFFFFF;}
	.st3{mask:url(#b_00000153684999180475420230000011648853615886582950_);fill-rule:evenodd;clip-rule:evenodd;fill:#DF0011;}
	.st4{fill-rule:evenodd;clip-rule:evenodd;fill:#DF0011;}
	.st5{filter:url(#Adobe_OpacityMaskFilter_00000119096264537914112850000014152895211997977990_);}
	.st6{mask:url(#d_00000161614306157399110570000009317989787712479150_);fill-rule:evenodd;clip-rule:evenodd;fill:#DF0011;}
	.st7{filter:url(#Adobe_OpacityMaskFilter_00000145030971107467894690000015806027186165138323_);}
	.st8{mask:url(#d_00000101091297855754504920000001515616973767497105_);fill-rule:evenodd;clip-rule:evenodd;fill:#1B1D80;}
</style>
<g id="Layer_2">
</g>
<g id="Layer_1">
	<g>
		<path class="st0" d="M97.63,28.52C64.78,29.43,33,36.89,30.04,47.45c-0.27,0.96-0.34,1.91-0.34,2.87
			c0,10.41,21.73,13.97,45.25,16.9c0.41,0.05,0.39-0.27,0.26-0.51l-0.69-1.21c-0.09-0.17-0.2-0.28-0.52-0.37
			c-12.88-3.28-25.95-8.06-25.95-12.52c0-8.44,21.9-16.8,46.84-20.62c0.82-0.16,1.22-0.31,1.77-0.75c0.69-0.55,2.21-1.8,2.86-2.31
			c0.42-0.35,0.27-0.46,0.11-0.46C98.97,28.48,98.3,28.5,97.63,28.52z"/>
		<g>
			<defs>
				<filter id="Adobe_OpacityMaskFilter" filterUnits="userSpaceOnUse" x="0" y="0" width="93.06" height="80">
					<feColorMatrix  type="matrix" values="1 0 0 0 0  0 1 0 0 0  0 0 1 0 0  0 0 0 1 0"/>
				</filter>
			</defs>
			
				<mask maskUnits="userSpaceOnUse" x="0" y="0" width="93.06" height="80" id="b_00000153684999180475420230000011648853615886582950_">
				<g class="st1">
					<path id="a_00000126289562442357507410000015994746233897060530_" class="st2" d="M46.53,80H0V0h93.06v80L46.53,80L46.53,80z"
						/>
				</g>
			</mask>
			<path class="st3" d="M61.29,79.48c-17.06-4.28-33.97-18.59-31.3-31.86C33.88,28.26,59.91,9.51,92.4,0.7c0.73-0.22,1-0.7,0.06-0.7
				H48.12c-7.68,0-9.34,0.99-12.31,5.02C34.23,7.16,20.96,25.45,14.97,33.7c-0.77,0.98-1.86,2.04-4.28,2.04H0c0,0,0,0.01,0.01,0.01
				C12.68,71.56,26.3,80,39.93,80h21.53C61.77,80,62.08,79.67,61.29,79.48"/>
		</g>
		<path class="st4" d="M265.61,7.45v3.07h-13.49c-1.26,0-2.29,1.02-2.29,2.29s1.02,2.29,2.29,2.29l6.6-0.07l-0.01,5.6
			c-0.32,8.88-4.47,14.27-6.24,16.56l-0.48,0.64c-0.56,0.43-0.88,1.09-0.87,1.8c0,1.26,1.03,2.29,2.29,2.29
			c0.7,0,1.47-0.33,1.88-0.79c-0.02,0.01,0.04-0.03,0.04-0.03c1.62-1.29,6.99-6.35,8.03-17.78h14.55c0,2.33-0.07,5.08-0.2,8.4
			c-0.24,5.75-4.22,5.62-6.14,5.54l-0.12,0c-1.68-0.18-4.19-0.79-4.21-0.79l-0.62-0.07c-1.26,0.01-2.28,1.03-2.28,2.3
			c0,1.04,0.72,1.95,1.73,2.21c0,0.03,2.43,0.86,4.68,0.89l0.45,0.01c2.87,0.04,6.11,0.09,8.4-2.12c1.93-1.88,2.89-5.08,2.96-9.77
			c0.1-1.94,0.15-5.04,0.15-6.81c0-0.55,0-0.97-0.01-1.19c-0.1-1.8-1.46-3.15-3.16-3.15c0,0-14.5-0.02-15.94-0.02v-3.71l20.43,0.07
			c1.26-0.05,2.25-1.11,2.2-2.38c-0.05-1.19-1-2.15-2.2-2.2H270.4V7.39c0-1.2-1.12-2.22-2.43-2.22
			C266.69,5.17,265.61,6.22,265.61,7.45 M339.94,26.56c-1.27,0-2.29,1.03-2.29,2.29s1.03,2.29,2.29,2.29l0,0h11.35v5.82h-13.52
			c-1.26,0-2.29,1.03-2.29,2.29c0,1.26,1.03,2.29,2.29,2.29h31.57c1.25,0,2.28-1.03,2.28-2.29c0-1.26-1.03-2.29-2.28-2.29H356v-5.82
			h11.36c1.27-0.04,2.26-1.09,2.23-2.35c-0.03-1.22-1.01-2.19-2.23-2.23C367.36,26.56,339.94,26.56,339.94,26.56z M351.27,7.53v1.53
			h-11.78c-1.75,0.02-3.17,1.45-3.17,3.18l0.01,0.08v4.59c-0.07,1.26,0.89,2.34,2.16,2.41c1.26,0.07,2.34-0.9,2.41-2.16
			c0-0.09,0-0.17,0-0.26v-3.28h5.34c0.1,0.84,0.03,1.69-0.19,2.5c-0.66,2.31-3.01,3.93-7,4.79l-0.15,0.03
			c-1.17,0.12-2.02,1.05-2.02,2.21c0,1.24,1.11,2.29,2.41,2.29l0.25-0.02c8.88-0.82,11.24-5.44,11.67-9.19
			c0.11-1.04,0.13-2.18,0.13-2.61v-0.03l4.48,0.03v8.32c0,1.71,1.37,3.11,3.09,3.14h6.66c3.46,0,4.92-2.41,4.93-2.42
			c0.26-0.38,0.4-0.99,0.42-1.42c0.07-1.1-0.42-1.4-0.94-1.72l-0.12-0.08c-0.82-0.51-1.71-0.35-2.67,0.48
			c-1.14,0.97-2.1,0.83-2.11,0.83l-3.9-0.01c0,0-0.36,0.01-0.59-0.22c-0.14-0.13-0.21-0.33-0.21-0.59l0.01-6.3h6.16l-0.49,1.84
			c-0.04,0.18-0.07,0.36-0.07,0.54c0,0.4,0.11,0.79,0.33,1.14c0.32,0.51,0.82,0.88,1.43,1.02c1.23,0.29,2.67-0.58,2.96-1.79
			c0.04-0.1,0.92-2.53,0.89-3.94c-0.03-2.23-1.11-3.35-3.31-3.4l-12.38,0.01V7.53c0-1.24-1.08-2.29-2.36-2.29
			C352.29,5.24,351.27,6.26,351.27,7.53C351.27,7.53,351.27,7.53,351.27,7.53 M184.56,11.85c-0.32,0.36-0.44,0.85-0.39,1.45
			l0.01,0.05c0,0.03,0.04,0.4,0.06,0.64l-10.53,0.03c-0.95,0-2.01,0.75-2.01,1.82c0,0.99,0.87,1.82,1.91,1.82l11.12,0.03
			c0.67,4.18,1.55,7.69,2.69,10.73c-1.04,1.63-2.15,3.21-3.34,4.74c-0.26,0.27-0.47,1.11-0.47,1.75c0,0.26,0.02,0.49,0.11,0.62
			c0.3,0.51,0.76,0.84,1.3,0.91c0.6,0.08,1.23-0.17,1.75-0.69c0.51-0.51,0.8-0.98,1.25-1.7l1.16-1.77c0.61,1.2,1.29,2.36,2.03,3.48
			c0.34,0.56,0.97,0.92,1.62,0.92c0.72,0,1.38-0.42,1.7-1.08l0.09-0.17c0.32-0.6,1.16-2.2,1.72-5.51V29.9
			c0.05-0.72-0.11-1.3-0.46-1.71c-0.3-0.34-0.72-0.54-1.17-0.55c-0.73-0.03-1.55,0.39-1.73,1.27c0,0-0.31,1.38-0.47,2.08
			c-0.25-0.55-0.9-2.03-0.95-2.13c1.74-2.9,2.94-5.6,3.67-8.22c0.01-0.02,0.06-0.68,0.06-0.68c-0.03-0.49-0.26-0.95-0.62-1.28
			c-0.76-0.67-1.93-0.6-2.6,0.16c-0.18,0.2-0.31,0.44-0.38,0.69c-0.01,0.02-0.95,2.93-1.81,4.69c-0.52-1.74-0.99-3.84-1.45-6.54
			h6.13c1,0,1.82-0.83,1.82-1.85c0-1.02-0.81-1.85-1.82-1.85h-0.97c0.01-0.07,0.02-0.14,0.02-0.19c0-0.47-0.16-0.92-0.46-1.27
			l-0.22-0.27c-0.33-0.4-0.81-0.65-1.33-0.69c-0.52-0.05-1.04,0.12-1.44,0.46c-0.24,0.2-0.38,0.5-0.38,0.82v0.02
			c0,0.36,0.2,0.74,0.47,1.07c-0.43,0.01-2.05,0.02-2.25,0.02c-0.03-0.19-0.12-0.79-0.12-0.79c-0.14-1.24-0.77-1.87-1.87-1.87
			C185.39,11.3,184.89,11.5,184.56,11.85"/>
		<path class="st4" d="M196.88,36.61c-0.01,0.37-0.19,0.56-0.57,0.56l-10.13-0.02l-14.46-0.03c-0.34,0-0.5-0.18-0.5-0.55l0.01-24.97
			c0-0.18,0.04-0.31,0.13-0.4c0.09-0.08,0.22-0.12,0.41-0.12l24.61,0.01c0.21,0,0.34,0.05,0.45,0.14c0.08,0.1,0.12,0.23,0.12,0.37
			C196.94,11.6,196.88,36.61,196.88,36.61z M198.14,6.73L198.14,6.73l-28.09,0.01c-1.74,0.03-3.14,1.45-3.15,3.19v28.37
			c0.01,1.75,1.4,3.17,3.15,3.22h28.08c1.76-0.01,3.18-1.43,3.19-3.19c0.01,0,0.01-28.4,0.01-28.4
			C201.33,8.16,199.9,6.73,198.14,6.73z"/>
		<defs>
			
				<filter id="Adobe_OpacityMaskFilter_00000003787433340649892150000016768594314146374842_" filterUnits="userSpaceOnUse" x="123.67" y="4.87" width="207.19" height="37.66">
				<feColorMatrix  type="matrix" values="1 0 0 0 0  0 1 0 0 0  0 0 1 0 0  0 0 0 1 0"/>
			</filter>
		</defs>
		
			<mask maskUnits="userSpaceOnUse" x="123.67" y="4.87" width="207.19" height="37.66" id="d_00000161614306157399110570000009317989787712479150_">
			<g style="filter:url(#Adobe_OpacityMaskFilter_00000003787433340649892150000016768594314146374842_);">
				<path id="c_00000018208368112305448340000017194222616044804261_" class="st2" d="M0,80h475.9V0H0V80z"/>
			</g>
		</mask>
		<path class="st6" d="M175.74,25.79h5.33v-3.56h-5.33V25.79z M184.31,19.83c-0.25-0.64-0.87-1.07-1.56-1.07h-8.69
			c-0.51,0-1,0.24-1.32,0.64c-0.25,0.32-0.39,0.7-0.39,1.12v7.01l0.04,0.35c0.16,0.81,0.85,1.39,1.67,1.39h8.7l0.5-0.08
			c0.72-0.21,1.21-0.9,1.21-1.66v-7.02C184.45,20.27,184.4,20.04,184.31,19.83z M181.38,30c-0.04,0.01-4.44,1.42-7.44,1.38
			c-1.42-0.01-2.13,0.97-2.19,1.87c-0.03,0.4,0.14,0.83,0.48,1.19c0.44,0.47,1.09,0.78,1.65,0.79c5.17,0.03,9.06-1.7,9.09-1.72h0.01
			c0.97-0.45,1.78-1.53,1.33-2.65C183.66,29.18,181.41,29.99,181.38,30 M154.21,27.16c0,0.11-0.02,0.34-0.14,0.48
			c-0.1,0.1-0.24,0.15-0.38,0.14h-10.12V15h10.04c0.21,0,0.36,0.05,0.46,0.16c0.08,0.09,0.12,0.21,0.12,0.33v0.04l0.03,11.57
			C154.21,27.1,154.21,27.16,154.21,27.16z M138.97,27.79l-10.18-0.01c-0.04,0-0.46-0.02-0.49-0.57V15.52
			c0-0.06,0.01-0.24,0.13-0.38c0.09-0.09,0.22-0.14,0.39-0.14l10.14,0.02C138.97,15.02,138.97,27.79,138.97,27.79z M155.79,10.42
			h-12.2V7.11c-0.04-1.27-1.1-2.28-2.37-2.24c-1.22,0.03-2.21,1.02-2.24,2.24v3.31h-12.14c-1.75,0-3.17,1.45-3.17,3.2l0,15.55
			c0,1.74,1.42,3.18,3.16,3.19c0,0,10.77,0.02,12.14,0.02v7.45c0,1.27,1.03,2.31,2.31,2.31c1.27,0,2.31-1.03,2.31-2.31v-7.44
			l12.19,0.02c1.76,0,3.19-1.43,3.2-3.19V13.6C158.98,11.84,157.55,10.42,155.79,10.42z M229.08,26l0.01-2.25h9.12
			c0,0.23-0.03,2.01-0.03,2.25H229.08L229.08,26z M229.08,17.94h9.12c0,0.24-0.03,2.01-0.03,2.25h-9.1L229.08,17.94L229.08,17.94z
			 M224.38,20.2h-9.22l0.01-2.26h9.22V20.2z M224.38,26.02h-9.22l0.01-2.25h9.22V26.02z M243.76,36.56L243.76,36.56
			c-0.07-0.02-6.21-2.59-12.11-6.72h7.59c1.75,0,3.16-1.42,3.16-3.15l-0.01-0.21v-0.24c0-1.45-0.03-8.76-0.03-8.76
			c0-1.7-1.33-3.07-3.03-3.14l-10.39-0.01v-2.14l13.58-0.03c1.28,0,2.28-0.96,2.28-2.2c0-1.24-1.04-2.25-2.31-2.25h-13.55V7.27
			c-0.05-1.26-1.11-2.24-2.37-2.19c-1.19,0.05-2.14,1-2.19,2.19v0.43h-13.54c-1.25,0-2.28,1.01-2.28,2.25
			c0,1.23,1.04,2.23,2.28,2.23h13.54v2.14h-10.42c-2,0.07-3.15,1.22-3.15,3.17l-0.01,9.15c0.02,0.01,0.02,0.05,0.02,0.05
			c0,1.74,1.42,3.15,3.15,3.15l7.54-0.01c-4.31,3.2-12.17,6.53-12.25,6.56c-0.77,0.39-1.26,1.18-1.26,2.05
			c0,1.26,1.02,2.28,2.29,2.28l0.59-0.08c0.1,0,8.45-2.51,13.49-8c0.01,0.65,0,7.59,0,7.59c0,1.26,1.05,2.28,2.3,2.28
			c1.25,0,2.27-1.02,2.26-2.27c0,0,0-0.01,0-0.01c0,0,0.01-6.19,0-7.77c3.68,4.13,12.65,8.18,12.74,8.23
			c0.34,0.21,1.3,0.34,1.71,0.34c1.2,0,2.13-1.04,2.13-2.35C245.5,37.73,244.6,36.96,243.76,36.56L243.76,36.56z M315.84,16.53
			h-0.29l-0.11,0.02l-0.1,0.01c-1.59,0-2.86,1.34-2.95,3.13v10.94c-0.2,4.56-2.11,7.23-2.5,7.73c-0.03,0.03-0.06,0.07-0.08,0.1
			l-0.06,0.09c-0.04,0.06-0.39,0.75-0.39,1.28c0,1.22,1,2.22,2.22,2.22c0.71,0,1.36-0.32,1.78-0.89c0.01-0.01,3.83-3.98,3.83-10.24
			v-0.06c0.01-0.98-0.05-9.69-0.05-9.69h3.88c0,1,0.01,7.35,0.01,11.97c0,2.5,0,4.49-0.01,4.8c0.02,1.85,1.17,3.72,3.33,3.71l2.73,0
			c0.07,0.01,2.34,0.2,3.55-3.91c0-0.02,0.08-0.34,0.08-0.34l0.14-0.85l0-0.14c0.04-0.46,0.1-1.43-1.51-1.92
			c-0.98-0.3-1.78,0.13-2.16,1.15l-0.23,0.65c-0.19,0.63-0.28,0.86-0.62,0.88l-0.85,0.01V19.67c0-0.03-0.08-2.96-3.07-3.14
			L315.84,16.53 M316.27,7.31v2.68h-4.16c-1.33,0-2.41,1-2.41,2.23c0,1.23,1.08,2.24,2.41,2.24h14.16c1.32,0,2.4-1.01,2.4-2.24
			c0-1.22-1.08-2.23-2.4-2.23h-5.51c-0.01-0.25,0-2.69,0-2.69c0-1.23-1-2.24-2.24-2.24C317.27,5.06,316.27,6.08,316.27,7.31
			 M304.52,22.26l-2.06,0.01c0.4-0.44,0.58-1.05,0.48-1.63l-0.49-3.13c-0.06-0.52-0.34-0.99-0.77-1.3c-0.4-0.28-0.9-0.38-1.37-0.28
			c-0.93,0.18-1.57,1.01-1.57,1.98c0,0.11,0.01,0.22,0.02,0.33l0.49,3.13c0.06,0.36,0.18,0.64,0.35,0.9h-1.95v-7.79l6.88-0.02
			L304.52,22.26L304.52,22.26z M309.29,22.24h-0.22v-10.1c0-1.27-1-2.29-2.23-2.29l-3.69,0.01l0.39-1.56l0.13-0.34
			c0.15-0.57,0.06-1.17-0.25-1.68c-0.62-1.05-1.98-1.4-3.03-0.78c-0.01,0-0.01,0.01-0.02,0.01c-0.51,0.3-0.87,0.79-1.01,1.37
			c0,0-0.7,2.81-0.76,3l-3.1,0.02c-0.03-0.02-0.09-0.02-0.09-0.02c-1.23,0-2.23,1.04-2.23,2.3v10.1c-1.27,0.01-2.29,0.99-2.29,2.2
			c0,1.2,1.02,2.18,2.28,2.19c-0.01,0.24-0.02,1.28-0.02,1.28c0-0.01-0.02,0.22-0.02,0.22l0,0.08c-0.04,1.75-0.14,3.37-0.31,4.85
			l-0.02,0.22c-0.51,4.33-1.36,6.03-1.37,6.05c-0.09,0.31-0.15,0.62-0.15,0.92c0,1.23,1,2.21,2.23,2.21c0.86,0,1.65-0.51,2.01-1.29
			c0.1-0.18,1.09-2.03,1.69-7.36l0.03-0.32c0.16-1.63,0.29-3.43,0.35-5.35c0-0.01,0.03-1.12,0.03-1.51l1.63-0.01v5.5
			c0,1.2,0.75,2.07,1.78,2.07c1.05,0,1.84-0.89,1.84-2.07v-5.52l1.74-0.01v10.65c0.01,0.17-0.06,0.33-0.18,0.44
			c-0.47,0.39-1.67,0.18-2.12,0.1l-0.25-0.04c-1.2,0.05-2.02,0.92-2.02,2.14c0,0.97,0.37,1.29,0.76,1.61l0.1,0.09
			c0.54,0.46,1.44,0.5,1.55,0.5c2.88,0.11,4.45-0.23,5.41-1.16c0.83-0.81,1.2-2.11,1.2-4.18V26.64h0.22c1.22,0,2.11-0.92,2.11-2.2
			C311.4,23.17,310.5,22.24,309.29,22.24L309.29,22.24z"/>
		<defs>
			
				<filter id="Adobe_OpacityMaskFilter_00000056416452158059732740000009468667754141008040_" filterUnits="userSpaceOnUse" x="123.67" y="51.86" width="247.95" height="23.34">
				<feColorMatrix  type="matrix" values="1 0 0 0 0  0 1 0 0 0  0 0 1 0 0  0 0 0 1 0"/>
			</filter>
		</defs>
		
			<mask maskUnits="userSpaceOnUse" x="123.67" y="51.86" width="247.95" height="23.34" id="d_00000101091297855754504920000001515616973767497105_">
			<g style="filter:url(#Adobe_OpacityMaskFilter_00000056416452158059732740000009468667754141008040_);">
				<path id="c_00000127743664159659651040000004725180940779310764_" class="st2" d="M0,80h475.9V0H0V80z"/>
			</g>
		</mask>
		<path class="st8" d="M192.6,52.86c-0.38,0.46-0.57,1.16-0.57,2.11v12.12c-0.49-0.83-7.05-11.89-7.05-11.89
			c-1.19-2.02-2.42-3.04-3.65-3.04c-1.06,0-1.82,0.26-2.25,0.77c-0.42,0.51-0.62,1.42-0.62,2.79v16.32c0,0.96,0.18,1.68,0.55,2.13
			c0.38,0.46,0.98,0.69,1.79,0.69c0.8,0,1.4-0.24,1.79-0.7c0.39-0.46,0.58-1.17,0.58-2.12V59.96c0.5,0.83,7.36,12.38,7.36,12.38
			c0.66,1.11,1.21,1.8,1.7,2.08c0.47,0.29,1.13,0.44,1.94,0.44c0.94,0,1.62-0.27,2.01-0.79c0.38-0.52,0.57-1.41,0.57-2.72V54.98
			c0-0.95-0.19-1.67-0.57-2.12c-0.38-0.46-0.98-0.69-1.78-0.69C193.59,52.16,192.99,52.39,192.6,52.86 M169.87,52.79
			c-0.4,0.42-0.6,1.06-0.6,1.9v17.63c0,0.82,0.22,1.45,0.61,1.89c0.4,0.43,1,0.65,1.78,0.65c0.8,0,1.41-0.22,1.81-0.65
			c0.39-0.41,0.59-1.05,0.59-1.89V54.7c0-0.83-0.21-1.47-0.6-1.9c-0.4-0.43-1.01-0.64-1.8-0.64
			C170.87,52.16,170.27,52.38,169.87,52.79 M160.68,52.79c-0.39,0.42-0.6,1.06-0.6,1.9v5.91h-8.73V54.7c0-0.83-0.2-1.47-0.6-1.9
			c-0.4-0.43-1.01-0.64-1.79-0.64c-0.8,0-1.4,0.21-1.8,0.63c-0.4,0.42-0.59,1.06-0.59,1.9v17.63c0,0.82,0.19,1.45,0.59,1.89
			c0.4,0.42,1,0.65,1.8,0.65c0.79,0,1.41-0.22,1.8-0.65c0.4-0.41,0.59-1.05,0.59-1.89v-7.42h8.73v7.42c0,0.83,0.21,1.46,0.61,1.89
			c0.4,0.43,1,0.65,1.79,0.65c0.8,0,1.41-0.22,1.81-0.64c0.39-0.42,0.6-1.05,0.6-1.89V54.7c0-0.83-0.21-1.47-0.61-1.9
			c-0.41-0.43-1-0.64-1.8-0.64C161.69,52.16,161.08,52.38,160.68,52.79 M126.48,55.04c-1.86,2.11-2.81,5.08-2.81,8.83
			c0,3.49,0.94,6.28,2.77,8.3c1.84,2.01,4.41,3.03,7.61,3.03c1.52,0,2.87-0.21,4.02-0.61c1.21-0.44,2.32-1.11,3.28-1.97
			c0.62-0.57,1.13-1.2,1.51-1.86c0.38-0.69,0.58-1.33,0.58-1.9c0-0.61-0.23-1.12-0.68-1.54c-0.44-0.42-1.03-0.65-1.63-0.64
			c-0.42,0-0.82,0.11-1.16,0.3c-0.32,0.19-0.69,0.54-1.08,1.04l-0.35,0.6l-0.49,0.76c-0.42,0.49-0.96,0.86-1.56,1.09
			c-0.64,0.25-1.37,0.37-2.18,0.37c-1.84,0-3.27-0.64-4.26-1.9c-1-1.26-1.5-3.09-1.5-5.43c0-2.29,0.5-4.1,1.49-5.4
			c0.99-1.28,2.36-1.93,4.07-1.93c0.82,0,1.55,0.14,2.18,0.4c0.62,0.26,1.18,0.66,1.64,1.2l0.43,0.62c0.21,0.35,0.39,0.59,0.57,0.75
			c0.34,0.31,0.69,0.56,1.03,0.71c0.35,0.15,0.72,0.24,1.11,0.24c0.69,0,1.24-0.22,1.66-0.64c0.42-0.41,0.62-0.98,0.62-1.66
			c0-0.62-0.19-1.27-0.59-1.94c-0.42-0.69-0.97-1.29-1.63-1.76c-0.94-0.74-2.01-1.32-3.15-1.7c-1.18-0.38-2.4-0.56-3.64-0.55
			C130.99,51.86,128.35,52.93,126.48,55.04 M206.2,66.13c0.94-2.9,1.88-5.8,2.83-8.69l2.84,8.69H206.2z M218.85,72.18
			c-0.07-0.22-0.18-0.61-0.18-0.61l-6.15-17.02c-0.37-1.01-0.78-1.64-1.24-1.93c-0.46-0.28-1.17-0.42-2.16-0.42
			c-1.05,0-1.78,0.14-2.24,0.45c-0.45,0.29-0.85,0.95-1.21,1.96l-6.04,16.97l-0.18,0.6l-0.05,0.6c0,0.64,0.22,1.15,0.65,1.53
			c0.43,0.39,0.98,0.58,1.66,0.58c0.59,0,1.08-0.15,1.47-0.43c0.38-0.29,0.66-0.72,0.85-1.3l0.97-3.03h8.26l1,3.03
			c0.19,0.58,0.47,1.02,0.85,1.31c0.37,0.27,0.86,0.41,1.44,0.41c0.69,0,1.26-0.19,1.68-0.58c0.44-0.39,0.66-0.91,0.66-1.53
			C218.9,72.79,218.91,72.41,218.85,72.18L218.85,72.18z M367.47,52.86c-0.38,0.46-0.58,1.16-0.58,2.11v12.12
			c-0.49-0.83-7.04-11.89-7.04-11.89c-1.2-2.02-2.42-3.04-3.65-3.04c-1.07,0-1.82,0.26-2.24,0.77c-0.42,0.51-0.63,1.42-0.63,2.79
			v16.32c0,0.98,0.19,1.67,0.56,2.13c0.37,0.46,0.98,0.69,1.79,0.69c0.79,0,1.39-0.24,1.78-0.7c0.39-0.46,0.58-1.17,0.58-2.12V59.96
			c0.49,0.82,7.35,12.38,7.35,12.38c0.66,1.11,1.22,1.8,1.71,2.08c0.47,0.29,1.13,0.44,1.94,0.44c0.94,0,1.61-0.27,2-0.79
			c0.39-0.52,0.58-1.41,0.58-2.72V54.98c0-0.95-0.2-1.67-0.57-2.12c-0.39-0.46-0.99-0.69-1.8-0.69
			C368.46,52.16,367.86,52.39,367.47,52.86 M314.48,52.45c-1.06,0-1.82,0.26-2.24,0.77c-0.42,0.51-0.62,1.43-0.62,2.81v14.98
			c0,1.38,0.21,2.29,0.62,2.8c0.42,0.51,1.18,0.77,2.24,0.77h11.54c0.83,0,1.47-0.18,1.9-0.54c0.44-0.37,0.67-0.9,0.67-1.61
			c0-0.71-0.22-1.26-0.65-1.61c-0.44-0.36-1.09-0.53-1.93-0.53h-9.69v-5.37h8.17c0.83,0,1.45-0.17,1.88-0.51
			c0.45-0.34,0.67-0.85,0.67-1.49c0-0.67-0.22-1.19-0.65-1.53c-0.43-0.33-1.06-0.5-1.9-0.5h-8.18v-4.37h9.11
			c0.83,0,1.47-0.17,1.91-0.51c0.45-0.34,0.67-0.84,0.67-1.5c0-0.68-0.23-1.2-0.67-1.55c-0.43-0.35-1.07-0.53-1.91-0.53
			L314.48,52.45L314.48,52.45z M292.97,52.5c-0.76,0-1.34,0.18-1.74,0.52c-0.4,0.36-0.61,0.87-0.61,1.57c0,0.68,0.2,1.2,0.59,1.55
			c0.38,0.34,0.97,0.5,1.75,0.5h4.41v15.69c0,0.82,0.21,1.46,0.6,1.89c0.41,0.43,1.01,0.65,1.8,0.65c0.79,0,1.39-0.21,1.78-0.65
			c0.39-0.41,0.6-1.05,0.6-1.89V56.64h4.41c0.76,0,1.35-0.17,1.73-0.52c0.4-0.35,0.59-0.86,0.59-1.53c0-0.69-0.2-1.21-0.59-1.57
			c-0.38-0.34-0.97-0.52-1.73-0.52L292.97,52.5L292.97,52.5z M233.62,52.45c-1.07,0-1.82,0.26-2.25,0.77
			c-0.42,0.51-0.63,1.43-0.63,2.81v14.98c0,1.38,0.21,2.29,0.63,2.8c0.43,0.51,1.17,0.77,2.25,0.77h11.53
			c0.83,0,1.47-0.18,1.91-0.54c0.44-0.37,0.67-0.9,0.67-1.61c0-0.71-0.21-1.26-0.66-1.61c-0.42-0.36-1.07-0.54-1.91-0.54h-9.68
			v-5.36h8.17c0.81,0,1.44-0.17,1.87-0.51c0.45-0.34,0.67-0.85,0.67-1.49c0-0.68-0.22-1.2-0.66-1.53c-0.42-0.33-1.06-0.5-1.89-0.5
			h-8.17v-4.37h9.1c0.83,0,1.47-0.17,1.9-0.51c0.44-0.34,0.67-0.84,0.67-1.5c0-0.68-0.22-1.2-0.67-1.55
			c-0.43-0.35-1.07-0.53-1.9-0.53H233.62L233.62,52.45z M274.22,53.65c-1.48,1.18-2.23,2.84-2.23,4.94c0,1.86,0.51,3.3,1.53,4.28
			c1.01,0.98,2.96,1.79,5.81,2.44l0.31,0.08c3.58,0.82,5.4,1.86,5.4,3.08c0,0.88-0.33,1.53-1.01,1.99
			c-0.69,0.46-1.71,0.69-3.08,0.69c-0.86,0-1.61-0.13-2.23-0.38c-0.6-0.25-1.13-0.64-1.55-1.14l-0.61-0.87
			c-0.71-1.07-1.48-1.61-2.32-1.61c-0.64,0-1.18,0.22-1.58,0.66c-0.39,0.44-0.59,1.01-0.59,1.69c0,0.65,0.2,1.32,0.61,2
			c0.39,0.67,0.94,1.26,1.6,1.74c0.92,0.66,1.95,1.17,3.04,1.5c1.04,0.32,2.28,0.47,3.7,0.47c2.67,0,4.81-0.66,6.36-1.93
			c1.56-1.28,2.34-3.05,2.34-5.26c0-1.2-0.22-2.24-0.67-3.07c-0.45-0.85-1.14-1.55-2.08-2.07c-0.6-0.32-1.23-0.59-1.88-0.8
			c-0.72-0.24-1.88-0.56-3.44-0.95l-1.4-0.34c-2.41-0.57-3.62-1.39-3.62-2.46c0-0.8,0.29-1.4,0.9-1.85c0.61-0.44,1.5-0.66,2.63-0.66
			c0.79,0,1.47,0.11,2.05,0.33c0.56,0.22,1.03,0.55,1.4,0.98l0.43,0.56c0.75,0.99,1.55,1.49,2.38,1.49c0.64,0,1.16-0.2,1.56-0.58
			c0.39-0.39,0.58-0.91,0.58-1.54c0-0.57-0.2-1.19-0.6-1.83c-0.4-0.64-0.93-1.19-1.55-1.62c-0.82-0.58-1.73-1.01-2.7-1.28
			c-1.08-0.29-2.19-0.42-3.3-0.41C277.77,51.89,275.69,52.48,274.22,53.65 M344,61.34c-0.51,0.44-1.33,0.66-2.44,0.66h-5.13v-5.5
			h5.35c0.99,0,1.74,0.24,2.24,0.7c0.49,0.46,0.74,1.15,0.74,2.05C344.75,60.22,344.5,60.91,344,61.34z M349.12,70.54
			c-0.07-0.44-0.1-0.88-0.11-1.32l-0.09-1.59c-0.09-1.02-0.36-1.83-0.79-2.44c-0.38-0.54-0.95-0.92-1.64-1.21
			c0.93-0.36,1.66-0.94,2.18-1.76c0.57-0.9,0.86-2.05,0.86-3.41c0-2.13-0.59-3.75-1.77-4.78c-1.17-1.04-2.98-1.57-5.39-1.57h-7.86
			c-1.06,0-1.82,0.26-2.24,0.77c-0.42,0.51-0.63,1.43-0.63,2.81v16.29c0,0.82,0.2,1.45,0.59,1.88c0.41,0.43,1.01,0.65,1.8,0.65
			c0.79,0,1.4-0.21,1.8-0.65c0.39-0.41,0.59-1.05,0.59-1.88v-6.24h4.62c1.1,0,1.88,0.2,2.29,0.58c0.43,0.38,0.7,1.44,0.81,3.14
			c0.15,2.27,0.43,3.64,0.85,4.21c0.42,0.57,1.14,0.87,2.12,0.87c0.71,0,1.29-0.2,1.73-0.59c0.43-0.39,0.66-0.93,0.66-1.6
			c0-0.2-0.06-0.55-0.17-1.05L349.12,70.54L349.12,70.54z M257.06,66.13c0.11-0.34,2.59-7.95,2.83-8.69
			c0.25,0.73,2.73,8.35,2.84,8.69H257.06z M269.71,72.18c-0.07-0.22-0.18-0.61-0.18-0.61l-6.15-17.02
			c-0.37-1.01-0.78-1.64-1.24-1.93c-0.46-0.28-1.17-0.42-2.16-0.42c-1.05,0-1.78,0.14-2.23,0.45c-0.45,0.29-0.85,0.95-1.21,1.96
			l-6.04,16.97l-0.18,0.6l-0.05,0.6c0,0.64,0.22,1.15,0.65,1.53c0.43,0.39,0.98,0.58,1.66,0.58c0.59,0,1.08-0.15,1.47-0.43
			c0.38-0.29,0.66-0.72,0.86-1.3l0.97-3.03h8.26c0.06,0.19,1,3.03,1,3.03c0.19,0.58,0.47,1.02,0.85,1.31
			c0.37,0.27,0.85,0.41,1.45,0.41c0.68,0,1.25-0.19,1.68-0.58c0.44-0.39,0.66-0.91,0.66-1.53
			C269.76,72.79,269.77,72.41,269.71,72.18L269.71,72.18z"/>
	</g>
</g>
</svg>
