<?xml version="1.0" encoding="utf-8"?>
<!-- Generator: Adobe Illustrator 25.4.1, SVG Export Plug-In . SVG Version: 6.00 Build 0)  -->
<svg version="1.1" id="Layer_1" xmlns="http://www.w3.org/2000/svg" xmlns:xlink="http://www.w3.org/1999/xlink" x="0px" y="0px"
	 viewBox="0 0 77.1 80" style="enable-background:new 0 0 77.1 80;" xml:space="preserve">
<style type="text/css">
	.st0{fill:#ED1C24;}
	.st1{fill:url(#SVGID_1_);}
</style>
<circle class="st0" cx="34.3" cy="38.7" r="4.3"/>
<linearGradient id="SVGID_1_" gradientUnits="userSpaceOnUse" x1="69.2443" y1="17.7102" x2="-8.1348" y2="64.3103">
	<stop  offset="0" style="stop-color:#ED1C24"/>
	<stop  offset="0.1507" style="stop-color:#EE2424"/>
	<stop  offset="0.379" style="stop-color:#EF3823"/>
	<stop  offset="0.655" style="stop-color:#F25A21"/>
	<stop  offset="0.8649" style="stop-color:#F57920"/>
</linearGradient>
<path class="st1" d="M22.5,59.4c0,0-4.8,4.3-14.2,1.7c0,0-0.4-16.7,21.7-28.8s29.3-10.8,29.3-10.8s0.5,0.9,0.1,2.6
	c0,0,1.9-0.3,1.7-3c0,0,1.6,0,1.9-0.4c0,0-0.3-0.9-1.8-0.8c0,0,0-2.2-2-1.8c0,0,0.6,1.4,0.2,2.1c0,0-17.6,0.7-35.9,11.5
	S-0.2,55.2,0,62.6C0,62.6,11.7,68,22.5,59.4z"/>
<path class="st0" d="M11.3,33.4c0,0-5.5-7-4.7-12.3c0,0,12.5-5,22.5,6.4c0,0,2.6-0.7,1.8-2.3C30,23.8,19.6,8.3,2.1,13.2
	C2.1,13.2-0.3,23,11.3,33.4z"/>
<path class="st0" d="M32.1,19.7c0,0,4.7-11.3,12.1-12.3c0,0,4.4,4.1,3.9,13.4c0,0,3.3-0.8,4.7-1c0,0,3-13.2-3.2-19.7
	C49.7,0,37.1,1,32.1,19.7z"/>
<path class="st0" d="M43,33.6c0,0,3.1-3.9,3.9-7.1c0,0,0.7-1.7,4.2-2.1c0,0-1.4,4.2-4.6,7.4c0,0,19.8-6.8,30.6,9.4
	c0,0-8.8,14.6-31,6.9c0,0,12.6,16.8,0.3,32c0,0-8-2.6-12.7-11s-4-17.6-1.6-18.9c0,0-0.7,18.2,14.8,21.9c0,0,9.1-12-3.5-26.1
	c0,0,16.9,5.8,25.2-7.2C68.8,38.7,61.6,26.6,43,33.6z"/>
</svg>
