<?xml version="1.0" encoding="utf-8"?>
<!-- Generator: Adobe Illustrator 25.4.1, SVG Export Plug-In . SVG Version: 6.00 Build 0)  -->
<svg version="1.1" id="Layer_1" xmlns="http://www.w3.org/2000/svg" xmlns:xlink="http://www.w3.org/1999/xlink" x="0px" y="0px"
	 viewBox="0 0 302.8 80" style="enable-background:new 0 0 302.8 80;" xml:space="preserve">
<style type="text/css">
	.st0{fill:#ED1C24;}
	.st1{fill:url(#SVGID_1_);}
	.st2{fill:#58585A;}
</style>
<g>
	<path class="st0" d="M87.9,29L81,52.1H89L95,33.3L97.6,46h1.8l9.9-11.8l-4.9,17.9h8.3l8.2-27.9h-7.9c0,0-2.5-0.5-5,2.6
		c-2.5,3.1-5.2,6.3-5.2,6.3l-0.9-5.7c0,0-0.1-3.3-5.1-3.3c0,0-17-0.1-18.4-0.5C78.6,23.7,81.7,29,87.9,29z"/>
	<polygon class="st0" points="145.9,52.1 153.1,52.1 157.3,40.6 162.8,52.1 170.5,52.1 163.5,36.9 177.4,23.7 169.4,23.7 159.7,33 
		162.5,23.7 154,23.7 	"/>
	<path class="st0" d="M138.9,23.7c0,0-14.1-1.3-16.8,6.3c-2.7,7.5-3.8,12.5-3.8,12.5s-2.9,9.6,7.9,9.9c11.1,0.3,14.8-1,16.7-5.1
		c1.9-4.1,4-10.3,4.5-14.1C147.9,29.2,148.4,23.7,138.9,23.7z M138.9,32.2c-0.1,1.3-2.7,9.2-3.6,11.6c-0.9,2.4-2.2,2.8-6.2,2.8
		c-4,0-2.1-4.8-2.1-4.8s2-6.7,3-9.5c1-2.8,3.9-2.7,6.5-2.7C139,29.6,139,30.8,138.9,32.2z"/>
	<path class="st0" d="M204.8,23.7h-6.1c0,0-2.6-0.3-3.1,2.4c-0.6,2.7-5,17.3-5,17.3s-1,3.2-4.9,3.2c-3.8,0-4.7-1.2-4.3-2.7
		c0.4-1.5,6.1-19.8,6.1-19.8h-8l-6.4,21.4c0,0-2.4,6.9,10.4,6.9s14.5-5.1,15-6.7C199,44.1,204.8,23.7,204.8,23.7z"/>
	<path class="st0" d="M206.4,24h8.8c0,0-5.7,14.3-5,20.8c0,0,3.9,1.6,13.2,0l-1.6,6.5c0,0-13.7,2.4-18,0s-2.4-9.3-2-10.9
		C202.1,38.8,206.4,24,206.4,24z"/>
	<path class="st0" d="M255.3,24h8.8c0,0-5.7,14.3-5,20.8c0,0,3.9,1.6,13.2,0l-1.6,6.5c0,0-13.7,2.4-18,0c-4.2-2.4-2.4-9.3-2-10.9
		C251.1,38.8,255.3,24,255.3,24z"/>
	<path class="st0" d="M234.2,40.6c0,0-1.6,3.5,0.3,4.2c1.9,0.7,8.7,0.9,12.5,0l-1.9,7.3c0,0-18,2-19.6-2.9s0.3-12.3,1.2-15
		s4.2-10.2,9.9-10.2s16.9,0,16.9,0s-1.7,6.4-2,6.6h-11.3c0,0-3.3-0.1-3.8,3.8c0,0,0.8-0.6,3.3-0.6c2.5,0,9.3,0,9.3,0l-2,6.8H234.2z"
		/>
	<path class="st0" d="M283.6,40.6c0,0-1.6,3.5,0.3,4.2c1.9,0.7,8.7,0.9,12.5,0l-1.9,7.3c0,0-18,2-19.6-2.9s0.3-12.3,1.2-15
		c0.9-2.6,4.2-10.2,9.9-10.2c5.7,0,16.9,0,16.9,0s-1.7,6.4-2,6.6h-11.3c0,0-3.3-0.1-3.8,3.8c0,0,0.8-0.6,3.3-0.6s9.3,0,9.3,0l-2,6.8
		H283.6z"/>
	<circle class="st0" cx="34.3" cy="38.7" r="4.3"/>
	<linearGradient id="SVGID_1_" gradientUnits="userSpaceOnUse" x1="69.2443" y1="17.7102" x2="-8.1348" y2="64.3103">
		<stop  offset="0" style="stop-color:#ED1C24"/>
		<stop  offset="0.1507" style="stop-color:#EE2424"/>
		<stop  offset="0.379" style="stop-color:#EF3823"/>
		<stop  offset="0.655" style="stop-color:#F25A21"/>
		<stop  offset="0.8649" style="stop-color:#F57920"/>
	</linearGradient>
	<path class="st1" d="M22.5,59.4c0,0-4.8,4.3-14.2,1.7c0,0-0.4-16.7,21.7-28.8s29.3-10.8,29.3-10.8s0.5,0.9,0.1,2.6
		c0,0,1.9-0.3,1.7-3c0,0,1.6,0,1.9-0.4c0,0-0.3-0.9-1.8-0.8c0,0,0-2.2-2-1.8c0,0,0.6,1.4,0.2,2.1c0,0-17.6,0.7-35.9,11.5
		S-0.2,55.2,0,62.6C0,62.6,11.7,68,22.5,59.4z"/>
	<path class="st0" d="M11.3,33.4c0,0-5.5-7-4.7-12.3c0,0,12.5-5,22.5,6.4c0,0,2.6-0.7,1.8-2.3C30,23.8,19.6,8.3,2.1,13.2
		C2.1,13.2-0.3,23,11.3,33.4z"/>
	<path class="st0" d="M32.1,19.7c0,0,4.7-11.3,12.1-12.3c0,0,4.4,4.1,3.9,13.4c0,0,3.3-0.8,4.7-1c0,0,3-13.2-3.2-19.7
		C49.7,0,37.1,1,32.1,19.7z"/>
	<path class="st0" d="M43,33.6c0,0,3.1-3.9,3.9-7.1c0,0,0.7-1.7,4.2-2.1c0,0-1.4,4.2-4.6,7.4c0,0,19.8-6.8,30.6,9.4
		c0,0-8.8,14.6-31,6.9c0,0,12.6,16.8,0.3,32c0,0-8-2.6-12.7-11s-4-17.6-1.6-18.9c0,0-0.7,18.2,14.8,21.9c0,0,9.1-12-3.5-26.1
		c0,0,16.9,5.8,25.2-7.2C68.8,38.7,61.6,26.6,43,33.6z"/>
	<polygon class="st2" points="80.7,72.9 81.7,72.9 84.8,63.6 87.9,72.9 89,72.9 85.3,62.2 84.4,62.2 	"/>
	<polygon class="st2" points="82.4,69.7 87.4,69.7 86.8,68.8 82.6,68.8 	"/>
	<rect x="113.4" y="62.2" class="st2" width="1.1" height="10.7"/>
	<rect x="139.9" y="62.2" class="st2" width="1.1" height="10.7"/>
	<rect x="139.9" y="62.2" class="st2" width="3" height="1.1"/>
	<rect x="171.8" y="62.2" class="st2" width="1.1" height="10.7"/>
	<rect x="171.8" y="71.8" class="st2" width="4.7" height="1.1"/>
	<rect x="261.1" y="71.8" class="st2" width="4.7" height="1.1"/>
	<rect x="261.1" y="62.2" class="st2" width="4.7" height="1.1"/>
	<rect x="261.1" y="66.7" class="st2" width="4.3" height="1.1"/>
	<rect x="201.1" y="62.2" class="st2" width="1.1" height="10.7"/>
	<rect x="228.2" y="62.2" class="st2" width="1.1" height="10.7"/>
	<rect x="234.1" y="62.2" class="st2" width="1.1" height="10.7"/>
	<rect x="261.1" y="62.2" class="st2" width="1.1" height="10.7"/>
	<polygon class="st2" points="228.2,62.2 229.3,62.2 235.3,72.9 234.1,72.9 	"/>
	<path class="st2" d="M142.5,62.8l0.5,0.6c0,0,2.2-0.1,2.2,1.9s-3.1,2.6-3.1,2.6l3.3,5h1.6l-3.4-4.8c0,0,2.7-0.8,2.7-2.9
		c0-2.1-2-3-3.4-3C141.5,62.2,142.5,62.8,142.5,62.8z"/>
	<path class="st2" d="M291.4,72.1v-1.2c0,0,1.1,0.8,2.3,0.8s2.2-0.7,2.2-1.5s-0.4-1.6-1.4-2.1s-3.2-1.5-3.2-3.4
		c0-1.9,1.8-2.7,3.1-2.7s2.3,0.4,2.3,0.4v1.2c0,0-1-0.7-2.3-0.7c-1.3,0-2,1.2-2,1.8s0.4,1.3,2.1,2.1c1.6,0.8,2.5,1.8,2.5,3.4
		C297,71.9,294.9,73.7,291.4,72.1z"/>
</g>
</svg>
