<?xml version="1.0" encoding="utf-8"?>
<!-- Generator: Adobe Illustrator 25.4.1, SVG Export Plug-In . SVG Version: 6.00 Build 0)  -->
<svg version="1.1" id="Layer_1" xmlns="http://www.w3.org/2000/svg" xmlns:xlink="http://www.w3.org/1999/xlink" x="0px" y="0px"
	 viewBox="0 0 215.5 80" style="enable-background:new 0 0 215.5 80;" xml:space="preserve">
<style type="text/css">
	.st0{fill:#2B2A29;}
	.st1{fill:url(#SVGID_1_);}
</style>
<path class="st0" d="M49.1,71.2h12L58.5,6.8H43.8L0,71.2h13.8L23,57.5h25.7L49.1,71.2z M30.5,46.3l17.1-25.5l0.8,25.5H30.5z"/>
<polygon class="st0" points="69.7,71.2 81.7,71.2 98.2,17.6 93.9,71.2 106,71.2 137.1,17.6 119.6,71.2 131.6,71.2 150.8,6.8 
	132.2,6.8 106.6,50.4 109.2,6.8 91.1,6.8 "/>
<polygon class="st0" points="157.5,6.8 171.6,6.8 197.4,71.2 182.6,71.2 "/>
<radialGradient id="SVGID_1_" cx="176.2351" cy="40" r="39.6314" gradientUnits="userSpaceOnUse">
	<stop  offset="0" style="stop-color:#F5C525"/>
	<stop  offset="0.9965" style="stop-color:#7D0949"/>
</radialGradient>
<path class="st1" d="M214,1.3c-6.3-6.1-37.3,9.6-40.4,35.3c0,0-19.8,5.1-27.9,18.7c-8,13.5-11,19.6-6.9,24c0,0,5.5,4.9,22.2-10.6
	c18-16.8,18.9-27.3,18.9-27.3s10.2-4.7,17.5-10.4C204.8,25.3,220.3,7.4,214,1.3z M155.5,63.3c-5.5,6.5-12.8,11.1-12.8,11.1
	c2.1-13.9,23.3-28.1,23.3-28.1S161,56.7,155.5,63.3z M198.8,19.7c-6.5,7.1-14.3,10.6-14.3,10.6c7.2-13.7,24.5-23.5,24.5-23.5
	S205.4,12.6,198.8,19.7z"/>
</svg>
