<?xml version="1.0" encoding="utf-8"?>
<!-- Generator: Adobe Illustrator 25.4.1, SVG Export Plug-In . SVG Version: 6.00 Build 0)  -->
<svg version="1.1" id="Layer_1" xmlns="http://www.w3.org/2000/svg" xmlns:xlink="http://www.w3.org/1999/xlink" x="0px" y="0px"
	 viewBox="0 0 619.9 80" style="enable-background:new 0 0 619.9 80;" xml:space="preserve">
<style type="text/css">
	.st0{fill:#2B2A29;}
	.st1{fill:url(#SVGID_1_);}
</style>
<g>
	<path class="st0" d="M49.1,71.2h12L58.5,6.8H43.8L0,71.2h13.8L23,57.5h25.7L49.1,71.2z M30.5,46.3l17.1-25.5l0.8,25.5H30.5z"/>
	<polygon class="st0" points="69.7,71.2 81.7,71.2 98.2,17.6 93.9,71.2 106,71.2 137.1,17.6 119.6,71.2 131.6,71.2 150.8,6.8 
		132.2,6.8 106.6,50.4 109.2,6.8 91.1,6.8 	"/>
	<polygon class="st0" points="157.5,6.8 171.6,6.8 197.4,71.2 182.6,71.2 	"/>
	<radialGradient id="SVGID_1_" cx="176.2351" cy="40" r="39.6314" gradientUnits="userSpaceOnUse">
		<stop  offset="0" style="stop-color:#F5C525"/>
		<stop  offset="0.9965" style="stop-color:#7D0949"/>
	</radialGradient>
	<path class="st1" d="M214,1.3c-6.3-6.1-37.3,9.6-40.4,35.3c0,0-19.8,5.1-27.9,18.7c-8,13.5-11,19.6-6.9,24c0,0,5.5,4.9,22.2-10.6
		c18-16.8,18.9-27.3,18.9-27.3s10.2-4.7,17.5-10.4C204.8,25.3,220.3,7.4,214,1.3z M155.5,63.3c-5.5,6.5-12.8,11.1-12.8,11.1
		c2.1-13.9,23.3-28.1,23.3-28.1S161,56.7,155.5,63.3z M198.8,19.7c-6.5,7.1-14.3,10.6-14.3,10.6c7.2-13.7,24.5-23.5,24.5-23.5
		S205.4,12.6,198.8,19.7z"/>
	<g>
		<path class="st0" d="M229.7,39.3h-1.8h-1.7l-11,30.5h3.4l3.5-9.6h13.4l3.5,9.6h3.4l-11-30.5H229.7z M223.2,57.4l5.6-15.6l5.6,15.6
			H223.2z"/>
		<path class="st0" d="M293.2,39.3h-1.8h-1.7l-11,30.5h3.4l3.5-9.6H299l3.5,9.6h3.4l-11-30.5H293.2z M286.7,57.4l5.6-15.6l5.6,15.6
			H286.7z"/>
		<path class="st0" d="M408.7,39.3h-1.8h-1.7l-11,30.5h3.4l3.5-9.6h13.4l3.5,9.6h3.4l-11-30.5H408.7z M402.1,57.4l5.6-15.6l5.6,15.6
			H402.1z"/>
		<path class="st0" d="M444,39.3h-1.8h-1.7l-11,30.5h3.4l3.5-9.6h13.4l3.5,9.6h3.4l-11-30.5H444z M437.5,57.4l5.6-15.6l5.6,15.6
			H437.5z"/>
		<polygon class="st0" points="269.9,39.3 260.7,64.7 251.9,39.3 249.8,39.3 248.8,39.3 246.3,39.3 246.3,69.9 249.8,69.9 
			249.8,43.6 259,69.9 262.2,69.9 271.6,44.3 271.6,69.9 275,69.9 275,39.3 271.6,39.3 		"/>
		<rect x="461.7" y="39.3" class="st0" width="3.5" height="30.5"/>
		<polygon class="st0" points="506.6,39.3 503.1,39.3 503.1,69.9 504.8,69.9 506.6,69.9 521.6,69.9 521.6,66.5 506.6,66.5 		"/>
		<rect x="527.9" y="39.3" class="st0" width="3.5" height="30.5"/>
		<path class="st0" d="M558.3,63c-3.9-5.7-15.8-23.3-16.3-23.7h-3.5v30.5h3.5V46.6l16.3,23.2h3.5V39.3h-3.5V63z"/>
		<polygon class="st0" points="572.9,55.9 589.6,55.9 589.6,52.2 572.9,52.2 572.9,42.5 590.7,42.5 590.7,39.3 572.9,39.3 
			571.1,39.3 569.4,39.3 569.4,69.9 571.1,69.9 572.9,69.9 591.3,69.9 591.3,66.1 572.9,66.1 		"/>
		<path class="st0" d="M361.9,39.3h-3.5v19c0,0,0,8.7-8.3,8.7c-8.3,0-8.1-8.7-8.1-8.7v-19h-3.5v19c0,0.3-0.3,12.1,11.8,12.1
			s11.7-12.1,11.7-12.1V39.3z"/>
		<polygon class="st0" points="334,39.3 328.9,39.3 313.3,54.8 313.3,39.3 309.7,39.3 309.7,69.9 313.3,69.9 313.3,59.4 318.3,54.5 
			329.8,69.9 334.6,69.9 321.2,51.7 		"/>
		<path class="st0" d="M376.6,51.3c-4.3-1.3-4.1-3.3-4.1-4.5c0-1.1,1.1-4.7,7.1-4.7c6,0,7.3,5.6,7.3,5.6l3.9-0.5
			c-0.7-4.9-5.3-8.5-11.1-8.5c-5.8,0-11.1,2.9-11.1,8.7c0,5.8,8,7.7,13.6,9.2c5.6,1.5,5.5,4,5.5,4.9c0,0.9-0.5,5.4-8.1,5.4
			c-7.6,0-8.5-7-8.5-7h-3.6c0.7,8.3,8.6,10.1,12.4,10.1c3.7,0,11.6-1.5,11.6-9.1C391.4,53.4,380.9,52.6,376.6,51.3z"/>
		<path class="st0" d="M605.1,51.3c-4.3-1.3-4.1-3.3-4.1-4.5c0-1.1,1.1-4.7,7.1-4.7s7.3,5.6,7.3,5.6l3.9-0.5
			c-0.7-4.9-5.3-8.5-11.1-8.5c-5.8,0-11.1,2.9-11.1,8.7c0,5.8,8,7.7,13.6,9.2c5.6,1.5,5.5,4,5.5,4.9c0,0.9-0.5,5.4-8.1,5.4
			s-8.5-7-8.5-7h-3.6c0.7,8.3,8.6,10.1,12.4,10.1c3.7,0,11.6-1.5,11.6-9.1C619.9,53.4,609.4,52.6,605.1,51.3z"/>
		<path class="st0" d="M488.4,56.3c-0.1,0-0.2,0-0.3-0.1c2.9-0.3,8.7-1.6,8.7-8.3c0-8.9-9.6-8.6-9.6-8.6h-10.8H475h-2.1v30.5h3.5
			V56.3h6.7c0,0,2.7,0.5,4.7,3.4c2,2.9,7,10.1,7,10.1h4.5C499.3,69.9,492.4,57.1,488.4,56.3z M476.4,52.9V42.7h10.8
			c0,0,5.8,0.2,5.8,5.2s-5.8,5-5.8,5H476.4z"/>
	</g>
</g>
</svg>
