<?xml version="1.0" encoding="utf-8"?>
<!-- Generator: Adobe Illustrator 27.0.0, SVG Export Plug-In . SVG Version: 6.00 Build 0)  -->
<svg version="1.1" id="Layer_1" xmlns="http://www.w3.org/2000/svg" xmlns:xlink="http://www.w3.org/1999/xlink" x="0px" y="0px"
	 viewBox="0 0 118.5 80" style="enable-background:new 0 0 118.5 80;" xml:space="preserve">
<style type="text/css">
	.st0{fill:#CC202C;}
	.st1{fill:#135BA4;}
	.st2{fill:url(#SVGID_1_);}
	.st3{fill:url(#SVGID_00000070811692208046916640000006007123812579235200_);}
</style>
<g>
	<path class="st0" d="M20.2,0.1c0,0,13.6-0.2,22.3,15.6c5.2,9.5,10.2,19.7,18.1,27.3c0.2,0.2,0.5,0.4,0.7,0.7
		c3.9,3.6,8.5,6.4,13.3,8.6c4.5,2.1,9.6,4.1,14.5,4.8c8.3,1.2,15.9,1.7,24.9,1.6c-2.4-0.1-4.7-0.2-7.2-0.5
		c-4.9-0.5-10.1-1.3-14.6-3.1c-3.6-1.5-7.3-2.8-10.8-4.7c-3.6-2-6.9-4.4-9.9-7.2c-8.2-7.6-13.9-17.5-19.1-27.2
		c-1.1-2.1-2.2-4.2-3.3-6.3C47,5.9,40.2-0.8,20.2,0.1z"/>
	<path class="st1" d="M0,0c0,0,11.7,1.3,18.9,11.7c5.9,8.5,10.1,18.2,16.4,26.4c3.3,4.2,7.2,8,11.6,11.1c9.2,6.6,20.7,9.2,31.8,10.1
		c3.6,0.3,7.2,0.4,10.7,0.3c1.4,0,2.4-0.1,4.3-0.2c0,0-19.2-1-34.6-9.6c-15.5-8.6-23.3-27.6-26.4-32.9C29.5,11.6,27.7,1.4,0,0z"/>
	<g>
		<linearGradient id="SVGID_1_" gradientUnits="userSpaceOnUse" x1="92.6463" y1="80.1977" x2="93.404" y2="15.6487">
			<stop  offset="0" style="stop-color:#135BA4"/>
			<stop  offset="0.1041" style="stop-color:#4181BB"/>
			<stop  offset="0.108" style="stop-color:#4382BC"/>
			<stop  offset="0.1613" style="stop-color:#5C93C5"/>
			<stop  offset="0.2102" style="stop-color:#6B9DCB"/>
			<stop  offset="0.2502" style="stop-color:#70A1CD"/>
			<stop  offset="0.2504" style="stop-color:#70A1CD"/>
			<stop  offset="0.2885" style="stop-color:#ADC9E2"/>
			<stop  offset="0.3207" style="stop-color:#DAE6F2"/>
			<stop  offset="0.3457" style="stop-color:#F5F8FB"/>
			<stop  offset="0.3603" style="stop-color:#FFFFFF"/>
			<stop  offset="0.3662" style="stop-color:#F9FBFD"/>
			<stop  offset="0.4606" style="stop-color:#A0C0DD"/>
			<stop  offset="0.5034" style="stop-color:#7CA9D1"/>
			<stop  offset="0.5606" style="stop-color:#6C9FCB"/>
			<stop  offset="0.6863" style="stop-color:#4C8AC0"/>
			<stop  offset="0.7732" style="stop-color:#397AB7"/>
			<stop  offset="0.9138" style="stop-color:#2065AB"/>
			<stop  offset="0.9992" style="stop-color:#175DA7"/>
		</linearGradient>
		<path class="st2" d="M105.4,6.1H87L67.3,38.8c1.3,1.5,2.7,3,4.2,4.3c1.8,1.6,3.6,3.1,5.6,4.5l16.3-29.3l6.1,38.8
			c2.4,0.5,4.9,0.8,7.2,1c2.5,0.2,4.8,0.4,7.2,0.5c-5.1,0.1-9.7-0.1-14.3-0.4l3.5,21.8h15.3L105.4,6.1z"/>
		
			<linearGradient id="SVGID_00000176741473520694401360000005066922666664692629_" gradientUnits="userSpaceOnUse" x1="56.6787" y1="79.7755" x2="57.4364" y2="15.2265">
			<stop  offset="0" style="stop-color:#135BA4"/>
			<stop  offset="0.1041" style="stop-color:#4181BB"/>
			<stop  offset="0.108" style="stop-color:#4382BC"/>
			<stop  offset="0.1613" style="stop-color:#5C93C5"/>
			<stop  offset="0.2102" style="stop-color:#6B9DCB"/>
			<stop  offset="0.2502" style="stop-color:#70A1CD"/>
			<stop  offset="0.2504" style="stop-color:#70A1CD"/>
			<stop  offset="0.2885" style="stop-color:#ADC9E2"/>
			<stop  offset="0.3207" style="stop-color:#DAE6F2"/>
			<stop  offset="0.3457" style="stop-color:#F5F8FB"/>
			<stop  offset="0.3603" style="stop-color:#FFFFFF"/>
			<stop  offset="0.3662" style="stop-color:#F9FBFD"/>
			<stop  offset="0.4606" style="stop-color:#A0C0DD"/>
			<stop  offset="0.5034" style="stop-color:#7CA9D1"/>
			<stop  offset="0.5606" style="stop-color:#6C9FCB"/>
			<stop  offset="0.6863" style="stop-color:#4C8AC0"/>
			<stop  offset="0.7732" style="stop-color:#397AB7"/>
			<stop  offset="0.9138" style="stop-color:#2065AB"/>
			<stop  offset="0.9992" style="stop-color:#175DA7"/>
		</linearGradient>
		<path style="fill:url(#SVGID_00000176741473520694401360000005066922666664692629_);" d="M57.6,54.9L42.5,80h16.6l12-21.6
			C66.5,57.7,61.9,56.5,57.6,54.9z"/>
	</g>
</g>
</svg>
