<?xml version="1.0" encoding="utf-8"?>
<!-- Generator: Adobe Illustrator 27.0.0, SVG Export Plug-In . SVG Version: 6.00 Build 0)  -->
<svg version="1.1" id="Layer_1" xmlns="http://www.w3.org/2000/svg" xmlns:xlink="http://www.w3.org/1999/xlink" x="0px" y="0px"
	 viewBox="0 0 98.8 80" style="enable-background:new 0 0 98.8 80;" xml:space="preserve">
<style type="text/css">
	.st0{fill:#135BA4;}
	.st1{fill:#3291CF;}
	.st2{fill:#CC202C;}
	.st3{fill:url(#SVGID_1_);}
	.st4{fill:url(#SVGID_00000096761588452473218020000013101726027957388166_);}
</style>
<g>
	<g>
		<g>
			<polygon class="st0" points="32.1,70.5 30.2,79.8 31.9,79.8 33.8,70.5 			"/>
			<polygon class="st0" points="35.7,70.5 35.3,72.2 37,72.2 37.4,70.5 			"/>
			<polygon class="st0" points="33.8,79.8 35.5,79.8 36.9,72.9 35.2,72.9 			"/>
			<path class="st0" d="M19.9,74.3L19.9,74.3l0.3-1.4h-1.7l-1.4,6.8h1.7l0.7-3.6c0,0,0,0,0,0c0.4-1.8,2.6-1.5,2.6-1.5l0.3-1.8
				C20.7,72.9,19.9,74.3,19.9,74.3z"/>
			<path class="st0" d="M42.8,72.8c-1.1,0-2,0.6-2.5,1.2l0.2-1h-1.7l-1.4,6.8h1.7l0.9-4.3v0c0,0,0.7-1.4,1.8-1.4s0.8,1.7,0.8,1.7
				l-0.8,4h1.7l0.8-4.1C44.3,75.6,44.8,72.8,42.8,72.8z"/>
			<path class="st0" d="M28.1,72.9c-0.4-0.2-0.8-0.2-1.3-0.2c-3.3,0-4.2,2.8-4.4,3.7c-0.2,0.9-0.2,3.7,2.8,3.7
				c1.4,0,2.7-0.8,3.5-1.9C29.7,76.6,30.1,73.8,28.1,72.9z M27.4,77.4c-0.4,0.7-1.1,1.1-1.8,1.1c-1.5,0-1.6-1.6-1.5-2.1
				s0.6-2.2,2.3-2.2c0.2,0,0.4,0,0.6,0.1C28.1,74.8,27.9,76.5,27.4,77.4z"/>
			<path class="st0" d="M15.5,72.9c-0.4-0.2-0.8-0.2-1.2-0.2c-3.3,0-4.1,2.8-4.3,3.7C9.6,77.2,9.7,80,12.7,80c1.4,0,2.6-0.8,3.4-1.9
				c0.1-0.1,0.2-0.3,0.2-0.4h-1.8c-0.4,0.5-0.9,0.8-1.5,0.8c-1.2,0-1.5-1-1.5-1.6h2.9H15h1.7C17.1,75.4,17,73.6,15.5,72.9z
				 M11.7,75.7c0.3-0.7,0.8-1.5,2-1.5c0.2,0,0.4,0,0.6,0.1c0.5,0.3,0.7,0.8,0.7,1.4H11.7z"/>
			<path class="st0" d="M50.7,72.9c-0.4-0.2-0.8-0.2-1.2-0.2c-3.3,0-4.1,2.8-4.3,3.7C44.9,77.2,45,80,47.9,80c1.4,0,2.6-0.8,3.4-1.9
				c0.1-0.1,0.2-0.3,0.2-0.4h-1.8c-0.4,0.5-0.9,0.8-1.5,0.8c-1.2,0-1.5-1-1.5-1.6h2.9h0.6h1.7C52.4,75.4,52.2,73.6,50.7,72.9z
				 M47,75.7c0.3-0.7,0.8-1.5,2-1.5c0.2,0,0.4,0,0.6,0.1c0.5,0.3,0.7,0.8,0.7,1.4H47z"/>
			<path class="st0" d="M5.3,70.5L0,79.8h2l1.1-2h3.5l0.3,2h2l-1.5-9.2H5.3z M3.9,76.3l2-3.8l0.5,3.8H3.9z"/>
			<path class="st0" d="M56.6,72.6c-2.5,0-3.4,2.3-3.4,2.3h1.7c0,0,0.3-1,1.5-1c1.2,0,1,1,1,1s-0.1,0.3-0.2,0.8
				c-0.7,0-1.7,0-2.8,0.2c-1.8,0.3-2.2,1.8-2.2,2.3c0,0.5,0.3,1.7,1.8,1.7s2.5-1.1,2.5-1.1l0,0c-0.1,0.7,0.1,0.9,0.1,0.9h1.8
				c-0.9,0,0.5-4.8,0.5-4.8S59.1,72.6,56.6,72.6z M54.9,78.8c-0.7,0-0.9-0.7-0.9-0.7c0-1.2,2-1.7,3.1-1.8c-0.1,0.3-0.2,0.7-0.3,1.1
				C56.8,77.3,55.6,78.8,54.9,78.8z"/>
			<path class="st0" d="M64.9,76.2c-0.5-0.3-1.1-0.5-1.7-0.6c-0.5-0.1-1.3-0.3-1.3-0.9c0-0.2,0.2-0.4,0.4-0.5c0.5-0.3,1.3-0.4,1.8,0
				c0.1,0.1,0.2,0.3,0.3,0.5c0,0,0.1,0.3,0.1,0.3c0,0,1.8,0,1.8,0c0,0,0-0.1,0-0.1c0-1.6-1.5-2.4-3-2.2c-0.7,0.1-1.5,0.4-2,0.8
				c-0.6,0.5-1,1.3-0.9,2.1c0.2,1.1,1.6,1.2,2.4,1.5c1,0.3,1,0.6,1.1,0.9c0.1,0.3-0.1,0.8-1.3,0.8c-1.2,0-1.4-1.1-1.4-1.1h-1.6
				c0,0.6,0.2,1.2,0.7,1.7c0.5,0.4,1.1,0.6,1.8,0.6c0.7,0,1.5-0.1,2.1-0.3c0.6-0.2,1.3-0.7,1.6-1.3C65.9,77.6,65.6,76.7,64.9,76.2z"
				/>
		</g>
		<polygon class="st1" points="70.3,79.8 72,79.8 73.8,72.2 73.8,79.8 75.7,79.8 79.2,72.1 77.5,79.8 79.4,79.8 81.2,70.5 
			78.4,70.5 75.1,77.5 75,70.5 72.4,70.5 		"/>
		<path class="st1" d="M87.3,79.8h1.9L88,70.5h-2.1l-5.4,9.2h2.1l1-1.9h3.4L87.3,79.8z M84.4,76.4l2.1-3.8l0.4,3.8H84.4z"/>
		<path class="st1" d="M90.7,76.9h1.7c0,0,0.2,1.7,1.8,1.7c0.7,0,1.4-0.1,1.9-0.6c0.4-0.4,0.5-1,0-1.4c-0.5-0.4-1.2-0.6-1.8-0.8
			c-0.7-0.2-1.5-0.2-2-0.7c-1.1-1-0.7-2.7,0.2-3.7c0.8-0.8,2-1.2,3.1-1.2c3.1,0,3.3,2.2,3.3,3.1h-1.7c0,0,0-1.7-1.8-1.7
			c-0.6,0-1.3,0.1-1.7,0.6c-0.3,0.4-0.5,0.9,0,1.3c0.5,0.4,1.1,0.5,1.7,0.7c0.6,0.1,1.3,0.3,1.8,0.7c0.6,0.5,1,1.2,1,1.9
			c0,1.5-1.9,3.1-4.2,3.1C91.7,80,90.7,78.8,90.7,76.9z"/>
	</g>
	<path class="st2" d="M22.3,0.1c0,0,9.9-0.2,16.3,11.4c3.8,6.9,7.5,14.5,13.3,20c0.2,0.2,0.3,0.3,0.5,0.5c2.9,2.6,6.2,4.7,9.8,6.3
		c3.3,1.5,7,3,10.6,3.5c6.1,0.9,11.7,1.2,18.3,1.2c-1.7-0.1-3.5-0.2-5.3-0.4c-3.6-0.4-7.4-0.9-10.7-2.3c-2.7-1.1-5.4-2-7.9-3.5
		c-2.6-1.5-5-3.2-7.2-5.3c-6-5.5-10.2-12.8-14-20c-0.8-1.5-1.6-3.1-2.4-4.6C41.9,4.3,36.9-0.6,22.3,0.1z"/>
	<path class="st0" d="M7.4,0c0,0,8.6,0.9,13.9,8.6c4.3,6.2,7.4,13.3,12.1,19.3c2.4,3.1,5.3,5.9,8.5,8.2c6.7,4.8,15.2,6.8,23.3,7.4
		c2.6,0.2,5.2,0.3,7.9,0.2c1,0,1.7,0,3.2-0.2c0,0-14.1-0.7-25.4-7.1c-11.3-6.3-17.1-20.2-19.4-24.1C29.1,8.5,27.7,1.1,7.4,0z"/>
	<g>
		<linearGradient id="SVGID_1_" gradientUnits="userSpaceOnUse" x1="75.3861" y1="58.8338" x2="75.9419" y2="11.48">
			<stop  offset="0" style="stop-color:#135BA4"/>
			<stop  offset="0.1041" style="stop-color:#4181BB"/>
			<stop  offset="0.108" style="stop-color:#4382BC"/>
			<stop  offset="0.1613" style="stop-color:#5C93C5"/>
			<stop  offset="0.2102" style="stop-color:#6B9DCB"/>
			<stop  offset="0.2502" style="stop-color:#70A1CD"/>
			<stop  offset="0.2504" style="stop-color:#70A1CD"/>
			<stop  offset="0.2885" style="stop-color:#ADC9E2"/>
			<stop  offset="0.3207" style="stop-color:#DAE6F2"/>
			<stop  offset="0.3457" style="stop-color:#F5F8FB"/>
			<stop  offset="0.3603" style="stop-color:#FFFFFF"/>
			<stop  offset="0.3662" style="stop-color:#F9FBFD"/>
			<stop  offset="0.4606" style="stop-color:#A0C0DD"/>
			<stop  offset="0.5034" style="stop-color:#7CA9D1"/>
			<stop  offset="0.5606" style="stop-color:#6C9FCB"/>
			<stop  offset="0.6863" style="stop-color:#4C8AC0"/>
			<stop  offset="0.7732" style="stop-color:#397AB7"/>
			<stop  offset="0.9138" style="stop-color:#2065AB"/>
			<stop  offset="0.9992" style="stop-color:#175DA7"/>
		</linearGradient>
		<path class="st3" d="M84.7,4.4H71.2l-14.4,24c1,1.1,2,2.2,3.1,3.2c1.3,1.2,2.7,2.3,4.1,3.3l12-21.5l4.5,28.5
			c1.8,0.3,3.6,0.6,5.3,0.7c1.8,0.2,3.6,0.3,5.3,0.4c-3.7,0-7.1-0.1-10.5-0.3l2.5,16h11.2L84.7,4.4z"/>
		
			<linearGradient id="SVGID_00000086694243528656807730000010892230217536941464_" gradientUnits="userSpaceOnUse" x1="48.9999" y1="58.5241" x2="49.5557" y2="11.1703">
			<stop  offset="0" style="stop-color:#135BA4"/>
			<stop  offset="0.1041" style="stop-color:#4181BB"/>
			<stop  offset="0.108" style="stop-color:#4382BC"/>
			<stop  offset="0.1613" style="stop-color:#5C93C5"/>
			<stop  offset="0.2102" style="stop-color:#6B9DCB"/>
			<stop  offset="0.2502" style="stop-color:#70A1CD"/>
			<stop  offset="0.2504" style="stop-color:#70A1CD"/>
			<stop  offset="0.2885" style="stop-color:#ADC9E2"/>
			<stop  offset="0.3207" style="stop-color:#DAE6F2"/>
			<stop  offset="0.3457" style="stop-color:#F5F8FB"/>
			<stop  offset="0.3603" style="stop-color:#FFFFFF"/>
			<stop  offset="0.3662" style="stop-color:#F9FBFD"/>
			<stop  offset="0.4606" style="stop-color:#A0C0DD"/>
			<stop  offset="0.5034" style="stop-color:#7CA9D1"/>
			<stop  offset="0.5606" style="stop-color:#6C9FCB"/>
			<stop  offset="0.6863" style="stop-color:#4C8AC0"/>
			<stop  offset="0.7732" style="stop-color:#397AB7"/>
			<stop  offset="0.9138" style="stop-color:#2065AB"/>
			<stop  offset="0.9992" style="stop-color:#175DA7"/>
		</linearGradient>
		<path style="fill:url(#SVGID_00000086694243528656807730000010892230217536941464_);" d="M49.7,40.3L38.6,58.7h12.2l8.8-15.8
			C56.2,42.3,52.9,41.5,49.7,40.3z"/>
	</g>
</g>
</svg>
