<?xml version="1.0" encoding="utf-8"?>
<!-- Generator: Adobe Illustrator 25.4.1, SVG Export Plug-In . SVG Version: 6.00 Build 0)  -->
<svg version="1.1" id="Layer_1" xmlns="http://www.w3.org/2000/svg" xmlns:xlink="http://www.w3.org/1999/xlink" x="0px" y="0px"
	 viewBox="0 0 528 80" style="enable-background:new 0 0 528 80;" xml:space="preserve">
<style type="text/css">
	.st0{fill:#CD202C;}
</style>
<g>
	<path d="M384.38,74.92c-1.32,0-3.2-0.19-4.71-0.56l0.19-1.88c1.32,0.38,3.01,0.56,4.14,0.56c1.88,0,3.2-0.38,3.39-1.51
		c0-1.13-1.13-1.51-3.01-1.88c-3.76-0.75-4.52-2.07-4.52-3.58c0-2.64,2.26-3.39,5.08-3.39c1.32,0,3.2,0.19,4.52,0.56l-0.19,1.88
		c-1.32-0.38-2.82-0.56-3.95-0.56c-1.69,0-2.82,0.38-2.82,1.32c0,0.75,0.38,1.32,3.2,1.88c3.76,0.75,4.33,2.45,4.33,3.58
		C390.02,74.16,387.58,74.92,384.38,74.92L384.38,74.92z M367.44,67.39h6.78c0.56-1.69-0.19-3.01-2.82-3.01
		C369.69,64.56,367.81,65.32,367.44,67.39z M371.76,73.04c1.51,0,2.82-0.19,4.52-0.94l0.38,1.88c-1.13,0.56-3.2,0.94-5.27,0.94
		c-4.52,0-6.59-2.82-6.59-6.21c0-4.14,3.01-6.21,6.4-6.21c4.52,0,6.4,2.26,4.89,6.59h-9.04C367.44,71.34,369.13,73.04,371.76,73.04z
		 M352.38,64.38c1.51-0.94,3.01-1.88,5.08-1.88c3.01,0,4.14,1.69,4.14,4.52v7.72h-2.26V67.2c0-1.88-0.94-2.64-2.64-2.64
		c-1.32,0-2.82,0.75-4.33,1.69v8.28h-2.26V62.68h2.26C352.38,62.68,352.38,64.38,352.38,64.38z M343.91,62.87h2.26v11.86h-2.26
		V62.87z M337.69,58.73h2.26v16h-2.26V58.73z M329.98,64.38C330.16,64.38,330.16,64.38,329.98,64.38c1.51-0.94,3.01-1.88,4.89-1.88
		v2.07c-1.32,0-3.39,0.75-4.89,1.69v8.28h-2.26V62.68h2.26C329.98,62.68,329.98,64.38,329.98,64.38z M321.51,62.87h2.26v11.86h-2.26
		V62.87z M311.72,61.36l-2.64,7.15h5.27L311.72,61.36L311.72,61.36z M313.22,58.73l6.02,16h-2.64l-1.51-4.14h-6.59l-1.51,4.14h-2.64
		l6.02-16C310.4,58.73,313.22,58.73,313.22,58.73z M321.51,58.73h2.26v2.26h-2.26C321.51,60.99,321.51,58.73,321.51,58.73z
		 M343.91,58.73h2.26v2.26h-2.26C343.91,60.99,343.91,58.73,343.91,58.73z M464.38,15.06h3.76v4.71h-3.76
		C464.38,19.76,464.38,15.06,464.38,15.06z M528,15.06V48h-3.76v-1.88h-0.19c-2.64,1.88-5.27,2.45-7.91,2.45
		c-8.09,0-12.24-5.84-12.24-12.61c0-7.15,4.52-12.99,12.42-12.99c2.64,0,5.27,0.56,7.72,1.51h0.19v-9.41
		C524.24,15.06,528,15.06,528,15.06z M524.24,43.29V27.67c-2.64-0.94-5.08-1.51-7.34-1.51c-4.89,0-9.22,3.39-9.22,9.6
		c0,6.4,4.14,9.6,9.22,9.6C519.34,45.36,521.41,44.8,524.24,43.29z M478.49,26.73c3.76-2.07,6.96-3.76,11.11-3.76
		c6.21,0,8.66,3.39,8.66,9.04v16h-3.76V32.19c0-4.33-2.07-6.02-6.21-6.02c-2.82,0-6.21,1.51-9.79,3.76V48h-3.76V23.34h3.76
		L478.49,26.73L478.49,26.73z M464.38,23.34h3.76V48h-3.76C464.38,48,464.38,23.34,464.38,23.34z M432.19,48.19h-4.89l-9.22-24.85
		h4.14l7.53,21.27l7.34-21.27h4.14l7.53,21.27l7.34-21.27h4.14l-9.04,24.85h-4.89l-7.34-19.2L432.19,48.19L432.19,48.19z
		 M414.12,15.06V48h-3.76v-1.88h-0.19c-2.64,1.88-5.27,2.45-7.91,2.45c-8.09,0-12.24-5.84-12.24-12.61
		c0-7.15,4.52-12.99,12.42-12.99c2.64,0,5.27,0.56,7.72,1.51h0.19v-9.41H414.12L414.12,15.06z M410.35,43.29V27.67
		c-2.64-0.94-5.08-1.51-7.34-1.51c-4.89,0-9.22,3.39-9.22,9.6c0,6.4,4.14,9.6,9.22,9.6C405.46,45.36,407.72,44.8,410.35,43.29z
		 M377.04,26.73C377.22,26.73,377.22,26.92,377.04,26.73c3.39-2.07,6.59-3.76,10.73-3.76v3.58c-2.82,0-7.15,1.32-10.73,3.58v18.07
		h-3.76V23.34h3.76V26.73z M345.79,35.76c0,5.27,3.01,9.6,9.04,9.6c6.02,0,9.04-4.52,9.04-9.6s-3.01-9.6-9.04-9.6
		C348.8,25.98,345.79,30.68,345.79,35.76z M342.02,35.76c0-6.96,4.33-12.8,12.8-12.8c8.66,0,12.8,5.84,12.8,12.8
		s-4.33,12.8-12.8,12.8C346.16,48.56,342.02,42.54,342.02,35.76z M331.48,48l-18.07-26.92V48h-3.95V15.06h4.71l18.07,26.92V15.06
		h3.95V48H331.48z"/>
	<path class="st0" d="M220.61,80h-78.31L98.64,4.71L55.15,80H0l30.87-53.27C39.34,11.86,58.16,0,72.85,0h78.31l43.48,75.48L238.31,0
		h55.15l-30.87,53.27C254.12,68.14,235.29,80,220.61,80z"/>
</g>
</svg>
