<?xml version="1.0" encoding="utf-8"?>
<!-- Generator: Adobe Illustrator 25.4.1, SVG Export Plug-In . SVG Version: 6.00 Build 0)  -->
<svg version="1.1" xmlns="http://www.w3.org/2000/svg" xmlns:xlink="http://www.w3.org/1999/xlink" x="0px" y="0px"
	 viewBox="0 0 347.7 80" style="enable-background:new 0 0 347.7 80;" xml:space="preserve">
<style type="text/css">
	.st0{fill:#0C0C11;}
	.st1{fill:#0055A5;}
	.st2{fill:#ED1B24;}
</style>
<g id="Layer_1">
	<path class="st0" d="M-238.6-885.5c-0.7-0.1-1.8,0-2.5,0c0.5-0.4,1.2-0.7,1.6-0.5c0.1,0,0.1,0,0.2,0.1
		C-239.1-885.8-238.8-885.6-238.6-885.5z"/>
	<g id="text835">
	</g>
</g>
<g id="Layer_2">
	<g id="layer1">
		<g id="text4752" transform="matrix(0.18209208,0,-0.10350601,0.19532942,61.201134,10.02451)">
			<g id="path4762-6">
				<path class="st1" d="M1023.6-47.4h57.3L1176,111l0-158.4h59l0,229.2h-59l-94.7-151.4l0,151.4h-57.8L1023.6-47.4z"/>
			</g>
			<g id="path4762">
				<path class="st1" d="M84-47.4h57.3L236.5,111l0-158.4h59l0,229.2h-59L141.8,30.4l0,151.4H84L84-47.4z"/>
			</g>
			<g id="path4764">
				<path class="st1" d="M460,144h-84.3l-7.8,37.8h-72.4l73.4-229.2h70.3l102.2,229.2h-66.8L460,144z M440.9,94.4L408.5,12
					l-21.8,82.4H440.9z"/>
			</g>
			<g id="path4766">
				<path class="st1" d="M486.5-47.4H748l0,47H620.2l0,182.2h-61.5l0-182.2h-72.2L486.5-47.4z"/>
			</g>
			<g id="path4768">
				<path class="st1" d="M678.5-47.4h71l0,229.2h-71L678.5-47.4z"/>
			</g>
			<g id="path4770">
				<path class="st1" d="M767,67.3c-4.1-37.4,3.1-66.6,21.7-87.4c18.6-20.8,46.5-31.3,83.7-31.3c38.1,0,68.7,10.3,91.6,30.8
					c22.9,20.4,36.3,49.1,40.4,86c2.9,26.8,0.8,48.8-6.4,66c-7.1,17.1-18.7,30.4-34.7,40c-16,9.5-36.6,14.2-62.1,14.2
					c-25.9,0-47.7-4.1-65.6-12.4c-17.8-8.2-32.9-21.3-45.4-39.1C777.7,116.4,770,94.1,767,67.3z M893,143.1c81,0,77.4-151-10.2-151
					C794.2-7.8,810.9,143.1,893,143.1z"/>
			</g>
			<g id="path4776">
				<path class="st1" d="M1468.2-47.4h62.5l0,181.5h118.8l0,47.7h-181.4L1468.2-47.4z"/>
			</g>
			<g id="path4764-9">
				<path class="st1" d="M1403.5,144h-84.3l-7.8,37.8h-72.4l73.4-229.2h70.3l102.2,229.2H1418L1403.5,144z M1384.4,94.4L1352,12
					l-21.8,82.4H1384.4z"/>
			</g>
			<g id="path4762-3">
				<path class="st1" d="M26.8,181.8h-257l0-229.2H26.4L26.8,181.8z"/>
			</g>
		</g>
		<g id="text4760" transform="matrix(0.18859465,0,0,0.18859465,61.201134,10.02451)">
			<g id="path4852">
				<path class="st1" d="M-319.8,284.4h27c28.9,0,43.4,14,43.4,42.1c0,28.7-14.5,43-43.4,43h-27V284.4z M-308.5,359.5h15.5
					c12.4,0,20.8-2.9,25.3-8.6c4.5-5.8,6.7-13.9,6.7-24.3c0-10.2-2.2-18.1-6.7-23.6c-4.5-5.6-12.9-8.4-25.3-8.4h-15.5V359.5z"/>
			</g>
			<g id="path4854">
				<path class="st1" d="M-161.2,369.6h-63.5v-85.2h61.5v10.1h-50.3v26h47v10.1h-47v28.8h52.2V369.6z"/>
			</g>
			<g id="path4856">
				<path class="st1" d="M-104.1,371c-12,0-21-2.7-27-8.1c-5.9-5.4-9-12.3-9.4-20.7h10.9c0.6,6.4,3.2,11.1,7.9,14.1
					c4.7,3,10.4,4.5,17.1,4.5c6.3,0,11.4-1.3,15.2-3.9c3.9-2.6,5.8-6.1,5.8-10.6c0-4.7-2-8.1-6-10.2c-4-2.1-10.9-4.2-20.6-6.3
					c-9.7-2.1-16.7-5-21-8.7c-4.2-3.7-6.3-8.6-6.3-14.7c0-6.9,2.7-12.5,8.2-17c5.5-4.4,12.9-6.6,22-6.6c9.6,0,17.4,2.2,23.2,6.7
					c5.9,4.5,9,10.7,9.4,18.9h-11c-1.1-10.3-8.2-15.5-21.1-15.5c-6.3,0-11.1,1.2-14.6,3.5c-3.4,2.4-5.2,5.5-5.2,9.4
					c0,3.6,1.4,6.2,4.1,8c2.8,1.8,8,3.5,15.5,5.2c7.6,1.7,13.6,3.3,18.1,4.9c4.5,1.6,8.3,4.2,11.4,7.6c3.2,3.4,4.8,8,4.8,13.8
					c0,7.3-2.9,13.4-8.8,18.2C-87.2,368.6-94.8,371-104.1,371L-104.1,371z"/>
			</g>
			<g id="path4858">
				<path class="st1" d="M12.8,294.5h-28.2v75.1h-11.3v-75.1h-27.9v-10.1h67.4V294.5z"/>
			</g>
			<g id="path4860">
				<path class="st1" d="M46.7,369.6H35.4v-85.2h11.3V369.6z"/>
			</g>
			<g id="path4862">
				<path class="st1" d="M143.1,369.6h-11.6l-44.6-67.2v67.2H76.2v-85.2h11.5l44.6,67.2v-67.2h10.7V369.6z"/>
			</g>
			<g id="path4864">
				<path class="st1" d="M215.3,334.7l-15-39.5L186,334.7H215.3z M241.2,369.6h-12.7l-9.9-25.9h-35.7l-9.4,25.9h-11.9l32.7-85.2
					h12.1L241.2,369.6z"/>
			</g>
			<g id="path4866">
				<path class="st1" d="M320.2,294.5h-28.2v75.1h-11.3v-75.1h-27.9v-10.1h67.4V294.5z"/>
			</g>
			<g id="path4868">
				<path class="st1" d="M354.2,369.6h-11.3v-85.2h11.3V369.6z"/>
			</g>
			<g id="path4870">
				<path class="st1" d="M420.5,283c11.9,0,21.7,4,29.3,12.1c7.6,8.1,11.4,18.7,11.4,32s-3.8,23.9-11.4,32
					c-7.6,8.1-17.4,12.1-29.3,12.1c-12,0-21.8-4-29.4-12.1c-7.6-8.1-11.4-18.7-11.4-32c0-13.2,3.8-23.9,11.4-32
					C398.8,287,408.6,283,420.5,283z M420.4,361.4c8.5,0,15.5-3,20.9-9.1c5.5-6,8.2-14.5,8.2-25.3s-2.7-19.3-8.1-25.3
					c-5.4-6-12.3-9.1-20.7-9.1c-8.6,0-15.6,3-21.1,9.1c-5.5,6-8.2,14.5-8.2,25.3c0,10.8,2.7,19.2,8.2,25.3
					C405,358.4,412,361.4,420.4,361.4z"/>
			</g>
			<g id="path4872">
				<path class="st1" d="M552.2,369.6h-11.6L496,302.4v67.2h-10.7v-85.2h11.5l44.6,67.2v-67.2h10.7V369.6z"/>
			</g>
			<g id="path4874">
				<path class="st1" d="M570.8,369.6"/>
			</g>
			<g id="path4876">
				<path class="st1" d="M684.6,369.6h-63.5v-85.2h61.5v10.1h-50.3v26h47v10.1h-47v28.8h52.2V369.6z"/>
			</g>
			<g id="path4878">
				<path class="st1" d="M778.8,369.6H765l-25.2-36.1l-25.3,36.1h-13.8l32.7-44.8l-29.5-40.3h13.8l22,31.5l22.1-31.5h13.8L746,324.7
					L778.8,369.6z"/>
			</g>
			<g id="path4880">
				<path class="st1" d="M833.7,371c-12,0-21.7-4-28.9-11.9c-7.2-7.9-10.7-18.7-10.7-32.2s3.6-24.2,10.7-32.1
					c7.2-7.9,16.8-11.9,28.9-11.9c9.3,0,17.1,2.5,23.6,7.5c6.5,5,10.2,11.6,11,19.8h-11.6c-0.5-5.4-2.8-9.7-7-12.8
					c-4.2-3.2-9.5-4.8-15.9-4.8c-8.6,0-15.5,3-20.5,8.9c-5,5.9-7.6,14.4-7.6,25.4c0,11,2.5,19.5,7.5,25.4c5,6,11.8,8.9,20.3,8.9
					c6.7,0,12-1.6,16.1-4.9c4.1-3.3,6.4-7.9,7-13.9h11.6c-0.8,9.1-4.4,16.1-10.7,21C851.3,368.6,843.3,371,833.7,371z"/>
			</g>
			<g id="path4882">
				<path class="st1" d="M956.6,369.6h-63.5v-85.2h61.5v10.1h-50.3v26h47v10.1h-47v28.8h52.2L956.6,369.6z"/>
			</g>
			<g id="path4884">
				<path class="st1" d="M1034.2,369.6h-52.7v-85.2h11.3v75.1h41.4V369.6z"/>
			</g>
			<g id="path4886">
				<path class="st1" d="M1109.5,369.6h-52.7v-85.2h11.3v75.1h41.4V369.6z"/>
			</g>
			<g id="path4888">
				<path class="st1" d="M1195.6,369.6h-63.5v-85.2h61.5v10.1h-50.3v26h47v10.1h-47v28.8h52.2V369.6z"/>
			</g>
			<g id="path4890">
				<path class="st1" d="M1287.4,369.6h-11.6l-44.6-67.2v67.2h-10.7v-85.2h11.5l44.6,67.2v-67.2h10.7L1287.4,369.6z"/>
			</g>
			<g id="path4892">
				<path class="st1" d="M1351.3,371c-12,0-21.7-4-28.9-11.9c-7.2-7.9-10.7-18.7-10.7-32.2s3.6-24.2,10.7-32.1
					c7.2-7.9,16.8-11.9,28.9-11.9c9.3,0,17.1,2.5,23.6,7.5c6.5,5,10.2,11.6,11,19.8h-11.6c-0.5-5.4-2.8-9.7-7-12.8
					c-4.2-3.2-9.5-4.8-15.9-4.8c-8.6,0-15.5,3-20.5,8.9c-5,5.9-7.6,14.4-7.6,25.4c0,11,2.5,19.5,7.5,25.4c5,6,11.8,8.9,20.3,8.9
					c6.7,0,12-1.6,16.2-4.9c4.1-3.3,6.4-7.9,7-13.9h11.6c-0.8,9.1-4.4,16.1-10.7,21C1368.9,368.6,1360.9,371,1351.3,371L1351.3,371z
					"/>
			</g>
			<g id="path4894">
				<path class="st1" d="M1474.1,369.6h-63.5v-85.2h61.5v10.1h-50.3v26h47v10.1h-47v28.8h52.2V369.6z"/>
			</g>
		</g>
		<g id="path4850">
			<rect x="0" y="53.4" class="st2" width="343.6" height="2"/>
		</g>
	</g>
</g>
</svg>
