<?xml version="1.0" encoding="utf-8"?>
<!-- Generator: Adobe Illustrator 25.4.1, SVG Export Plug-In . SVG Version: 6.00 Build 0)  -->
<svg version="1.1" xmlns="http://www.w3.org/2000/svg" xmlns:xlink="http://www.w3.org/1999/xlink" x="0px" y="0px"
	 viewBox="0 0 78.7 80" style="enable-background:new 0 0 78.7 80;" xml:space="preserve">
<style type="text/css">
	.st0{fill:#FFCF01;}
</style>
<g id="Layer_2">
</g>
<g id="Layer_1">
	<g>
		<g>
			<path class="st0" d="M48.7,66.1c-0.6-2.4-1.5-4.9-2.5-7.3l0,0l30.2-17.5c0.3-0.2,0.4-0.5,0.2-0.9l-6.3-11
				c-0.2-0.3-0.5-0.4-0.9-0.2L38.7,47l0,0c-1.6-1.9-3.4-3.6-5.2-5.2l0,0L51.2,11c0.2-0.3,0.1-0.7-0.2-0.9l-11-6.4
				C39.6,3.6,39.2,3.7,39,4L21.3,34.3l0,0c-2.4-1-5-1.6-7.7-2.3l0,0V0.6C13.6,0.2,13.3,0,13,0H0.6C0.2,0,0,0.3,0,0.6v42
				c0,0.4,0.3,0.6,0.6,0.6c28.6,0.3,33.5,22.9,33.5,22.9H0.6c-0.4,0-0.6,0.3-0.6,0.6v12.6C0,79.8,0.3,80,0.6,80h77.5
				c0.4,0,0.6-0.3,0.6-0.6V66.8c0-0.4-0.3-0.6-0.6-0.6L48.7,66.1L48.7,66.1z"/>
		</g>
	</g>
</g>
</svg>
