<?xml version="1.0" encoding="utf-8"?>
<!-- Generator: Adobe Illustrator 25.4.1, SVG Export Plug-In . SVG Version: 6.00 Build 0)  -->
<svg version="1.1" xmlns="http://www.w3.org/2000/svg" xmlns:xlink="http://www.w3.org/1999/xlink" x="0px" y="0px"
	 viewBox="0 0 398.6 80" style="enable-background:new 0 0 398.6 80;" xml:space="preserve">
<style type="text/css">
	.st0{fill:#FFCF01;}
	.st1{fill:#132361;}
</style>
<g id="Layer_2">
</g>
<g id="Layer_1">
	<g>
		<g>
			<g>
				<path class="st0" d="M369.4,64.9c-0.6-2.3-1.4-4.7-2.4-7.1l0,0l29.3-16.9c0.3-0.2,0.4-0.5,0.2-0.8l-6.1-10.6
					c-0.2-0.3-0.5-0.4-0.8-0.2l-29.7,17.2l0,0c-1.5-1.8-3.3-3.5-5.1-5.1l0,0l17.2-29.7c0.2-0.3,0.1-0.7-0.2-0.8l-10.7-6.2
					c-0.3-0.2-0.7-0.1-0.8,0.2l-17.2,29.4l0,0c-2.4-1-4.9-1.6-7.4-2.2l0,0V1.5c0-0.4-0.3-0.6-0.6-0.6h-12c-0.4,0-0.6,0.3-0.6,0.6
					v40.7c0,0.4,0.3,0.6,0.6,0.6c27.7,0.3,32.5,22.2,32.5,22.2h-32.5c-0.4,0-0.6,0.3-0.6,0.6v12.2c0,0.4,0.3,0.6,0.6,0.6h75.1
					c0.4,0,0.6-0.3,0.6-0.6V65.6c0-0.4-0.3-0.6-0.6-0.6L369.4,64.9L369.4,64.9z"/>
			</g>
		</g>
		<g>
			<path class="st1" d="M52.7,45.6v32.2c0,0.4-0.3,0.7-0.7,0.7H39.2c-0.4,0-0.7-0.3-0.7-0.7V48.6c0-7.5-4.3-12.6-10.9-12.6
				c-8.1,0-13.4,5.4-13.4,18.5v23.2c0,0.4-0.3,0.7-0.7,0.7H0.7c-0.4,0-0.7-0.3-0.7-0.7V25.3c0-0.4,0.3-0.7,0.7-0.7h13
				c0.4,0,0.7,0.3,0.7,0.7v4.2c4.2-4.2,9.8-6.5,16.9-6.5C44.1,23,52.7,32.3,52.7,45.6"/>
			<path class="st1" d="M151,78.4h-14.3c-0.2,0-0.5-0.2-0.6-0.4l-21.9-52.7c-0.2-0.5,0.2-0.9,0.6-0.9h13.9c0.2,0,0.5,0.2,0.6,0.4
				l14.5,36.1l14.5-36.1c0.1-0.2,0.3-0.4,0.6-0.4h13.9c0.5,0,0.8,0.5,0.6,0.9L151.5,78C151.5,78.2,151.2,78.4,151,78.4"/>
			<path class="st1" d="M216.1,51.5c0-9.9-7.7-16.2-15.3-16.2c-8.7,0-15.1,6.2-15.1,16.2s6.5,16.1,15.1,16.1
				C208.5,67.6,216.1,61.5,216.1,51.5 M229.7,78.4h-13c-0.4,0-0.7-0.3-0.7-0.7v-3.6c-4.6,3.6-10.5,5.8-17.8,5.8
				c-13.7,0-26.4-11.5-26.4-28.5s12.7-28.6,26.4-28.6c7.4,0,13.3,2.1,17.8,5.9v-3.6c0-0.4,0.3-0.7,0.7-0.7h13c0.4,0,0.7,0.3,0.7,0.7
				v52.5C230.4,78.1,230.1,78.4,229.7,78.4"/>
			<path class="st1" d="M239.5,77.8V25.3c0-0.4,0.3-0.7,0.7-0.7h13c0.4,0,0.7,0.3,0.7,0.7v52.5c0,0.4-0.3,0.7-0.7,0.7h-13
				C239.8,78.4,239.5,78.1,239.5,77.8 M255.3,8.5c0,4.8-3.6,8.3-8.7,8.3c-5.1,0-8.7-3.6-8.7-8.3c0-4.6,3.6-8.5,8.7-8.5
				C251.6,0,255.3,4,255.3,8.5"/>
			<path class="st1" d="M300.2,24.8l-0.1,12.6c0,0.4-0.3,0.6-0.6,0.6l-3.2-0.1c-13.1,0-19.2,8.1-19.2,23.1v16.7
				c0,0.4-0.3,0.7-0.7,0.7h-13c-0.4,0-0.7-0.3-0.7-0.7V25.3c0-0.4,0.3-0.7,0.7-0.7h13c0.4,0,0.7,0.3,0.7,0.7v9.2
				c4.3-6.2,10.5-10.5,19.3-10.5c1.2,0,2.2,0,3.3,0.3C300,24.2,300.2,24.4,300.2,24.8"/>
			<path class="st1" d="M71.6,51.4c0-8.7,7.1-15.7,15.9-15.7c8.5,0,15.2,6.6,15.5,15.1c0.3,8.2-5.9,15.4-14,16.2
				C79.6,67.9,71.6,60.6,71.6,51.4 M58.7,51.4C58.7,67.5,72,80.5,88.3,80c15.3-0.5,27.7-13.3,27.7-28.5c0-7.7-2.9-14.9-8.3-20.3
				c-5.4-5.5-12.5-8.4-20.2-8.4C71.6,22.8,58.7,35.6,58.7,51.4"/>
		</g>
	</g>
</g>
</svg>
