<?xml version="1.0" encoding="utf-8"?>
<!-- Generator: Adobe Illustrator 25.4.1, SVG Export Plug-In . SVG Version: 6.00 Build 0)  -->
<svg version="1.1" id="Layer_1" xmlns="http://www.w3.org/2000/svg" xmlns:xlink="http://www.w3.org/1999/xlink" x="0px" y="0px"
	 viewBox="0 0 213.87 80" style="enable-background:new 0 0 213.87 80;" xml:space="preserve">
<style type="text/css">
	.st0{fill:#646263;}
</style>
<g>
	<path class="st0" d="M97.22,68.13l0-60.31c0-3.12-1.71-4.67-5.09-4.67c-3.06,0-5.13,0.13-6.18,0.39c-2.09,0.57-3.11,2.02-3.11,4.34
		v50.63L16.87,6.42c-3.24-2.54-6.42-3.8-9.52-3.8C2.46,2.61,0,5.24,0,10.52v60.81c0,3.16,1.67,4.74,5.05,4.74
		c3.07,0,5.13-0.14,6.22-0.37c2.07-0.6,3.1-2.05,3.1-4.42V20.24l66.8,52.68c3.05,2.33,5.78,3.5,8.18,3.5
		C94.6,76.43,97.22,73.65,97.22,68.13z"/>
	<path class="st0" d="M200.36,76.19c1.72,2.56,3.91,3.81,6.63,3.81c1.97,0,3.6-0.65,4.9-1.97c1.32-1.31,1.99-2.94,1.99-4.88l0,0
		c0-1-0.09-1.6-0.24-1.93L166.25,4.19c-0.24-0.32-0.42-0.6-0.5-0.85c-0.12-0.24-0.2-0.41-0.29-0.53c-1.11-1.87-3.32-2.8-6.63-2.8
		c-4.45,0-7.61,1.39-9.45,4.19l-44.7,68.31c-0.24,0.38-0.36,0.8-0.36,1.27c0,1.48,0.79,2.8,2.43,3.89c1.44,1.01,2.95,1.54,4.52,1.54
		c1.57,0,3.01-1.03,4.37-3.01l12.58-18.17h59.6L200.36,76.19z M136.47,46.32l21.61-31.67l21.46,31.67H136.47z"/>
</g>
</svg>
