<?xml version="1.0" encoding="utf-8"?>
<!-- Generator: Adobe Illustrator 25.4.1, SVG Export Plug-In . SVG Version: 6.00 Build 0)  -->
<svg version="1.1" id="Layer_1" xmlns="http://www.w3.org/2000/svg" xmlns:xlink="http://www.w3.org/1999/xlink" x="0px" y="0px"
	 viewBox="0 0 317.3 80" style="enable-background:new 0 0 317.3 80;" xml:space="preserve">
<style type="text/css">
	.st0{fill:#114C8D;}
	.st1{fill:#00B0CB;}
</style>
<path class="st0" d="M83.66,10.5h23.82l15.51,53.86c0.61,1.71,2.08,1.22,2.32,0l9.89-53.86h10.5L133.37,80h-24.3L93.92,26.62
	c-0.49-1.47-1.96-1.83-2.44,0.12L81.95,80H70.96L83.66,10.5L83.66,10.5z"/>
<path class="st0" d="M40.43,10.5h23.21L68.27,80H50.93l-0.37-7.82c0-1.71-1.34-2.93-3.05-2.93H20.76l5.86-9.89h18.32
	c2.08,0,4.52,0.24,4.4-2.56l-1.96-31.14c0-2.08-1.83-3.05-2.93-1.1L11.85,80H0L40.43,10.5L40.43,10.5z"/>
<path class="st0" d="M172.45,10.5h23.33l5.5,69.5h-17.47l-0.37-7.82c0-1.71-1.22-2.93-2.93-2.93h-24.55l5.74-9.89h16.25
	c2.08,0,4.52,0.24,4.27-2.56l-2.81-31.14c0-2.08-1.83-3.05-2.93-1.1L147.9,80h-11.85L172.45,10.5L172.45,10.5z"/>
<polygon class="st1" points="271.38,80 317.3,0 252.21,0 206.28,80 "/>
<polygon class="st0" points="258.56,80 304.48,0 252.21,0 206.28,80 "/>
</svg>
