<?xml version="1.0" encoding="utf-8"?>
<!-- Generator: Adobe Illustrator 25.4.1, SVG Export Plug-In . SVG Version: 6.00 Build 0)  -->
<svg version="1.1" id="Layer_1" xmlns="http://www.w3.org/2000/svg" xmlns:xlink="http://www.w3.org/1999/xlink" x="0px" y="0px"
	 viewBox="0 0 851.23 80" style="enable-background:new 0 0 851.23 80;" xml:space="preserve">
<style type="text/css">
	.st0{fill:#114C8D;}
	.st1{fill:#00B0CB;}
</style>
<g>
	<g>
		<path class="st0" d="M357.24,29.55v38.93h-7.11V29.55H357.24z"/>
		<path class="st0" d="M365.48,48.73c0-3.25-0.1-5.93-0.23-8.36h6.21l0.35,4.22h0.17c1.24-2.18,4.29-4.86,8.96-4.86
			c4.9,0,10,3.16,10,12.05v16.7h-7.12V52.62c0-4.04-1.48-7.11-5.36-7.11c-2.83,0-4.79,2-5.53,4.17c-0.22,0.58-0.33,1.45-0.33,2.26
			v16.54h-7.12V48.73z"/>
		<path class="st0" d="M398.17,61.94c1.57,0.97,4.63,2.05,7.18,2.05c3.13,0,4.52-1.31,4.52-3.16c0-1.91-1.16-2.87-4.62-4.1
			c-5.5-1.88-7.79-4.88-7.77-8.21c0-4.95,4.11-8.8,10.67-8.8c3.1,0,5.81,0.77,7.46,1.68l-1.41,4.99c-1.18-0.67-3.46-1.62-5.95-1.62
			c-2.53,0-3.94,1.25-3.94,2.98c0,1.78,1.35,2.64,4.91,3.94c5.12,1.81,7.48,4.42,7.5,8.56c0,5.13-3.99,8.83-11.42,8.83
			c-3.4,0-6.5-0.81-8.57-1.97L398.17,61.94z"/>
		<path class="st0" d="M422.59,49.68c0-3.65-0.1-6.67-0.23-9.32h6.24l0.35,4.32h0.12c2.07-3.17,5.34-4.95,9.64-4.95
			c6.45,0,11.8,5.52,11.8,14.3c0,10.2-6.38,15.09-12.79,15.09c-3.54,0-6.47-1.48-7.9-3.75h-0.12v14.55h-7.11V49.68z M429.7,56.71
			c0,0.69,0.06,1.34,0.2,1.94c0.72,2.89,3.22,4.97,6.24,4.97c4.51,0,7.16-3.75,7.16-9.27c0-4.98-2.42-9.03-6.99-9.03
			c-2.92,0-5.62,2.14-6.35,5.27c-0.15,0.57-0.26,1.2-0.26,1.79V56.71z"/>
		<path class="st0" d="M463.92,32.5c0.01,2.12-1.54,3.83-4.05,3.83c-2.36,0-3.9-1.71-3.9-3.83c-0.01-2.17,1.59-3.84,3.98-3.84
			C462.37,28.65,463.9,30.31,463.92,32.5z M456.39,68.48V40.37h7.11v28.12H456.39z"/>
		<path class="st0" d="M471.17,49.4c0-3.77-0.08-6.53-0.23-9.04h6.16l0.26,5.34h0.2c1.39-3.96,4.66-5.98,7.7-5.98
			c0.69,0,1.1,0.03,1.67,0.15v6.7c-0.61-0.13-1.23-0.2-2.08-0.2c-3.39,0-5.74,2.16-6.37,5.38c-0.12,0.63-0.18,1.38-0.18,2.14v14.58
			h-7.11V49.4z"/>
		<path class="st0" d="M507.03,68.48l-0.49-3.13h-0.17c-1.71,2.22-4.65,3.77-8.29,3.77c-5.71,0-8.87-4.08-8.87-8.36
			c0-7.1,6.32-10.69,16.68-10.65v-0.47c0-1.85-0.73-4.92-5.71-4.9c-2.75,0-5.64,0.89-7.56,2.1l-1.41-4.61
			c2.12-1.29,5.77-2.5,10.19-2.5c9.02,0,11.59,5.69,11.59,11.85v10.12c0,2.56,0.13,5.04,0.44,6.77H507.03z M506.09,54.71
			c-5.02-0.07-9.82,0.99-9.82,5.27c0,2.75,1.81,4.05,4.05,4.05c2.84,0,4.88-1.83,5.56-3.89c0.15-0.49,0.2-1.05,0.2-1.54V54.71z"/>
		<path class="st0" d="M528.35,32.31v8.05h6.76v5.3h-6.76v12.41c0,3.44,0.92,5.19,3.64,5.19c1.21,0,2.13-0.14,2.76-0.31l0.14,5.41
			c-1.07,0.4-2.93,0.73-5.17,0.73c-2.61,0-4.79-0.89-6.11-2.32c-1.53-1.62-2.23-4.2-2.23-7.89V45.66h-4.01v-5.3h4.01V34
			L528.35,32.31z"/>
		<path class="st0" d="M548.02,32.5c0.01,2.12-1.54,3.83-4.05,3.83c-2.36,0-3.9-1.71-3.9-3.83c-0.01-2.17,1.59-3.84,3.98-3.84
			C546.47,28.65,548,30.31,548.02,32.5z M540.49,68.48V40.37h7.11v28.12H540.49z"/>
		<path class="st0" d="M581.99,54.15c0,10.34-7.25,14.97-14.44,14.97c-7.93,0-14.07-5.48-14.07-14.49c0-9.22,6.08-14.9,14.55-14.9
			C576.39,39.73,581.99,45.62,581.99,54.15z M560.78,54.45c0,5.41,2.7,9.5,6.99,9.5c4.08,0,6.91-3.93,6.91-9.59
			c0-4.42-1.96-9.46-6.86-9.46C562.83,44.89,560.78,49.77,560.78,54.45z"/>
		<path class="st0" d="M587.85,48.73c0-3.25-0.1-5.93-0.23-8.36h6.21l0.35,4.22h0.17c1.25-2.18,4.29-4.86,8.96-4.86
			c4.9,0,10,3.16,10,12.05v16.7h-7.12V52.62c0-4.04-1.48-7.11-5.36-7.11c-2.83,0-4.79,2-5.53,4.17c-0.22,0.58-0.33,1.45-0.33,2.26
			v16.54h-7.11V48.73z"/>
		<path class="st0" d="M659.56,54.15c0,10.34-7.25,14.97-14.44,14.97c-7.93,0-14.07-5.48-14.07-14.49c0-9.22,6.08-14.9,14.55-14.9
			C653.96,39.73,659.56,45.62,659.56,54.15z M638.35,54.45c0,5.41,2.7,9.5,6.99,9.5c4.08,0,6.91-3.93,6.91-9.59
			c0-4.42-1.96-9.46-6.86-9.46C640.4,44.89,638.35,49.77,638.35,54.45z"/>
		<path class="st0" d="M666.2,68.48V45.66h-3.81v-5.3h3.81v-1.2c0-3.64,0.98-7.31,3.41-9.62c2.08-1.98,4.89-2.71,7.36-2.71
			c1.89,0,3.4,0.31,4.51,0.7l-0.5,5.46c-0.77-0.28-1.71-0.51-3.03-0.51c-3.52,0-4.69,2.96-4.69,6.4v1.47h6.15v5.3h-6.1v22.82H666.2z
			"/>
		<path class="st0" d="M703.8,29.55h7.11V54.8c0,10.74-5.2,14.31-12.92,14.31c-1.97,0-4.45-0.36-5.97-0.92l0.88-5.74
			c1.13,0.39,2.68,0.71,4.39,0.71c4.05,0,6.51-1.83,6.51-8.59V29.55z"/>
		<path class="st0" d="M726.49,57.48l-3.32,11h-7.35l12.49-38.93h9.06l12.65,38.93h-7.64l-3.52-11H726.49z M737.68,52.1l-3.07-9.59
			c-0.75-2.41-1.39-5.06-1.98-7.32h-0.13c-0.56,2.28-1.16,4.98-1.85,7.29l-3,9.62H737.68z"/>
		<path class="st0" d="M755.42,30.05c2.58-0.44,6.11-0.8,10.89-0.8c5.19,0,8.98,1.09,11.46,3.19c2.32,1.9,3.81,4.96,3.81,8.62
			c0,3.69-1.15,6.73-3.32,8.82c-2.86,2.83-7.26,4.19-12.31,4.19c-1.33,0-2.52-0.07-3.48-0.27v14.69h-7.06V30.05z M762.48,48.2
			c0.91,0.24,2.03,0.32,3.48,0.32c5.31,0,8.56-2.65,8.56-7.21c0-4.29-3-6.6-7.93-6.6c-1.95,0-3.36,0.17-4.12,0.34V48.2z"/>
		<path class="st0" d="M791.41,57.48l-3.32,11h-7.35l12.49-38.93h9.06l12.65,38.93h-7.64l-3.52-11H791.41z M802.6,52.1l-3.07-9.59
			c-0.75-2.41-1.39-5.06-1.98-7.32h-0.13c-0.56,2.28-1.16,4.98-1.85,7.29l-3,9.62H802.6z"/>
		<path class="st0" d="M820.34,68.48V29.55h8.13l10.06,16.71c2.56,4.3,4.83,8.82,6.62,13.05l0.14-0.04
			c-0.5-5.17-0.64-10.19-0.64-16.13V29.55h6.57v38.93h-7.37L833.7,51.36c-2.48-4.27-5.06-9.01-6.98-13.43l-0.18,0.04
			c0.28,5.06,0.38,10.2,0.38,16.59v13.93H820.34z"/>
	</g>
	<g>
		<path class="st0" d="M83.66,10.5h23.82l15.51,53.86c0.61,1.71,2.08,1.22,2.32,0l9.89-53.86h10.5L133.37,80h-24.3L93.92,26.62
			c-0.49-1.47-1.96-1.83-2.44,0.12L81.95,80H70.96L83.66,10.5L83.66,10.5z"/>
		<path class="st0" d="M40.43,10.5h23.21L68.27,80H50.93l-0.37-7.82c0-1.71-1.34-2.93-3.05-2.93H20.76l5.86-9.89h18.32
			c2.08,0,4.52,0.24,4.4-2.56l-1.96-31.14c0-2.08-1.83-3.05-2.93-1.1L11.85,80H0L40.43,10.5L40.43,10.5z"/>
		<path class="st0" d="M172.45,10.5h23.33l5.5,69.5h-17.47l-0.37-7.82c0-1.71-1.22-2.93-2.93-2.93h-24.55l5.74-9.89h16.25
			c2.08,0,4.52,0.24,4.27-2.56l-2.81-31.14c0-2.08-1.83-3.05-2.93-1.1L147.9,80h-11.85L172.45,10.5L172.45,10.5z"/>
		<polygon class="st1" points="271.38,80 317.3,0 252.21,0 206.28,80 		"/>
		<polygon class="st0" points="258.56,80 304.48,0 252.21,0 206.28,80 		"/>
	</g>
</g>
</svg>
