<?xml version="1.0" encoding="utf-8"?>
<!-- Generator: Adobe Illustrator 25.4.1, SVG Export Plug-In . SVG Version: 6.00 Build 0)  -->
<svg version="1.1" id="Layer_1" xmlns="http://www.w3.org/2000/svg" xmlns:xlink="http://www.w3.org/1999/xlink" x="0px" y="0px"
	 viewBox="0 0 139.93 80" style="enable-background:new 0 0 139.93 80;" xml:space="preserve">
<style type="text/css">
	.st0{fill-rule:evenodd;clip-rule:evenodd;fill:#ED1C24;}
	.st1{fill-rule:evenodd;clip-rule:evenodd;fill:#BFD730;}
	.st2{fill-rule:evenodd;clip-rule:evenodd;fill:#46A41A;}
	.st3{fill-rule:evenodd;clip-rule:evenodd;fill:#BA141A;}
</style>
<path class="st0" d="M72.73,0h39.2c15.46,0,28,12.79,28,28.57s-12.54,28.57-28,28.57h-16.8V80h-22.4V0z M95.13,22.85h16.8
	c3.09,0,5.6,2.56,5.6,5.72c0,3.15-2.51,5.71-5.6,5.71h-16.8C95.13,34.28,95.13,22.85,95.13,22.85z"/>
<path class="st1" d="M16.74,80V22.85H0V0h72.75v80l-4.28-14.55v0.27H43.34L39.14,80H16.74z M50.06,42.86h11.76l-5.89-20L50.06,42.86
	L50.06,42.86z"/>
<path class="st2" d="M16.74,80h22.4V22.85h16.8V0h-16.8L16.74,80z"/>
<path class="st3" d="M72.73,80h22.4L72.73,0V80z"/>
</svg>
