<?xml version="1.0" encoding="utf-8"?>
<!-- Generator: Adobe Illustrator 25.4.1, SVG Export Plug-In . SVG Version: 6.00 Build 0)  -->
<svg version="1.1" id="Layer_1" xmlns="http://www.w3.org/2000/svg" xmlns:xlink="http://www.w3.org/1999/xlink" x="0px" y="0px"
	 viewBox="0 0 480.18 80" style="enable-background:new 0 0 480.18 80;" xml:space="preserve">
<style type="text/css">
	.st0{fill-rule:evenodd;clip-rule:evenodd;fill:#ED1C24;}
	.st1{fill-rule:evenodd;clip-rule:evenodd;fill:#BFD730;}
	.st2{fill-rule:evenodd;clip-rule:evenodd;fill:#46A41A;}
	.st3{fill-rule:evenodd;clip-rule:evenodd;fill:#BA141A;}
	.st4{fill-rule:evenodd;clip-rule:evenodd;}
</style>
<g>
	<path class="st0" d="M72.73,0h39.2c15.46,0,28,12.79,28,28.57c0,15.78-12.54,28.57-28,28.57h-16.8V80h-22.4V0z M95.13,22.85h16.8
		c3.09,0,5.6,2.56,5.6,5.72c0,3.15-2.51,5.71-5.6,5.71h-16.8V22.85z"/>
	<path class="st1" d="M16.74,80V22.85H0V0h72.75v80l-4.28-14.55v0.27H43.34L39.14,80H16.74z M50.06,42.86h11.76l-5.89-20
		L50.06,42.86L50.06,42.86z"/>
	<path class="st2" d="M16.74,80h22.4V22.85h16.8V0h-16.8L16.74,80z"/>
	<path class="st3" d="M72.73,80h22.4L72.73,0V80z"/>
	<path class="st4" d="M241.75,57.11h4.51V43.5c1.17,0.33,2.57,0.4,4.11,0.4c4.66,0,8.56-1.26,11.04-3.74
		c1.85-1.79,2.8-4.37,2.8-7.45c0-3.08-1.22-5.56-3.1-7.22c-2.12-1.85-5.44-2.95-10.08-2.95c-3.95,0-7,0.33-9.29,0.69L241.75,57.11
		L241.75,57.11z M246.26,26.52c1.57-0.27,3.17-0.4,4.77-0.4c4.92,0,8.67,1.95,8.67,6.82c0,4.6-3.39,7.28-9.15,7.28
		c-1.68,0-3.14-0.13-4.29-0.46V26.52L246.26,26.52z M284.41,57.74c9.56,0,17.49-6.72,17.49-18.14c0-9.9-6.8-17.35-17.1-17.35
		c-10.01,0-17.46,7.48-17.46,18.14c0,9.96,7.01,17.35,17.02,17.35H284.41L284.41,57.74L284.41,57.74z M284.48,54.1
		c-7.64,0-12.4-6.42-12.4-13.84c0-7.68,4.34-14.37,12.54-14.37c8.18,0,12.45,6.98,12.45,13.94c0,8.14-4.79,14.27-12.54,14.27
		L284.48,54.1L284.48,54.1z M305.34,57.11h4.49v-14.8h4.99c4.14,0.17,6.08,2.02,7.17,6.69c1,4.34,1.8,7.15,2.34,8.11h4.69
		c-0.74-1.42-1.59-4.8-2.81-9.63c-0.83-3.24-2.46-5.73-5.05-6.69v-0.13c3.57-1.13,6.64-4.17,6.64-8.71c0-2.68-1.08-5-2.73-6.46
		c-2.2-1.99-5.42-2.95-10.46-2.95c-3.33,0-6.88,0.3-9.27,0.76L305.34,57.11L305.34,57.11z M309.83,26.52
		c0.82-0.2,2.52-0.43,5.07-0.43c4.72,0,8.38,1.72,8.38,6.36c0,3.87-3.1,6.39-8.08,6.39h-5.37L309.83,26.52z M341.64,57.11h4.54
		V26.65h11.65v-3.81h-27.78v3.81h11.59V57.11z M360.49,22.84v19.3c0,11.39,5.82,15.59,13.28,15.59c8.06,0,14.08-4.6,14.08-15.69
		v-19.2h-4.54v19.43c0,8.01-3.68,11.79-9.32,11.79c-5.2,0-8.95-3.67-8.95-11.79V22.84L360.49,22.84z M423.03,39.1h-12.11v3.64h7.61
		v9.9c-1.24,0.63-3.54,1.09-6.9,1.09c-9.11,0-14.62-5.73-14.62-13.8c0-7.88,5.61-13.64,15.07-13.64c3.93,0,6.52,0.73,8.6,1.66
		l1.17-3.67c-1.59-0.76-5.14-1.75-9.61-1.75c-13.04,0-20,8.44-20,17.61c0,5.03,1.84,9.53,4.89,12.41c3.61,3.48,8.28,4.93,14.1,4.93
		c5.33,0,9.66-1.32,11.78-2.12L423.03,39.1L423.03,39.1z M447.89,46.18l4.06,10.92h4.92l-12.81-34.26h-5.54l-12.67,34.26h4.76
		l3.89-10.92H447.89L447.89,46.18z M435.48,42.61l3.85-10.33c0.71-2.02,1.24-3.84,1.76-5.63h0.1c0.53,1.75,1.05,3.54,1.85,5.73
		l3.84,10.23H435.48z"/>
	<path class="st4" d="M459.51,57.13h20.55v-3.86h-16.02V22.85h-4.54L459.51,57.13z"/>
	<path class="st4" d="M193.38,57.14h6.42V22.86h-6.42V57.14z M178.69,47.21l3.46,9.93h7.05l-12.24-34.28h-8.35l-11.88,34.28h6.74
		l3.22-9.93H178.69z M167.83,42.32l2.97-8.68c0.65-1.99,1.18-4.07,1.69-5.96h0.1c0.56,1.86,1.15,3.91,1.87,6l3.06,8.64H167.83
		L167.83,42.32z M213.1,28.2c0.76-0.13,2.11-0.28,4.18-0.28c3.42,0,7.5,0.94,7.5,5.45c0,3.39-2.75,5.5-7.19,5.5h-4.49L213.1,28.2
		L213.1,28.2z M213.1,44.13h4.06c3.74,0.17,5.34,1.68,6.34,6.02c0.87,3.78,1.46,5.83,1.86,7h6.59c-0.61-1.48-1.34-4.38-2.32-8.24
		l-0.19-0.74c-0.76-2.94-2.1-5.12-3.93-6.41c2.92-1.48,5.55-4.38,5.55-8.87c0-2.87-1.11-5.47-3.03-7.13
		c-2.42-2.2-5.83-3.17-11.05-3.17c-3.28,0-6.89,0.29-9.43,0.77l-0.73,0.14v33.66h6.27L213.1,44.13z"/>
</g>
</svg>
