<?xml version="1.0" encoding="utf-8"?>
<!-- Generator: Adobe Illustrator 25.4.1, SVG Export Plug-In . SVG Version: 6.00 Build 0)  -->
<svg version="1.1" id="Layer_1" xmlns="http://www.w3.org/2000/svg" xmlns:xlink="http://www.w3.org/1999/xlink" x="0px" y="0px"
	 viewBox="0 0 289.98 80" style="enable-background:new 0 0 289.98 80;" xml:space="preserve">
<path id="black" d="M268.71,16.43h12.1l-2.59,12.1h-12.1l-4,18.77c-0.92,4.25,0,4.84,4.92,4.84c2.25,0,4.09-0.08,6.51-0.17
	l-2.42,11.35c-3.84,0.5-8.68,0.83-14.1,0.83c-11.93,0-16.18-2.92-14.01-13.01l4.84-22.69h-9.59l2.5-12.01h9.59l3.17-14.85h18.27
	L268.71,16.43z M206.06,63.15h18.27l9.93-46.72h-18.27L206.06,63.15z M217.16,11.09h18.27l2.34-11.01h-18.27L217.16,11.09z
	 M167.6,16.43l-9.93,46.72h17.77l9.93-46.72H167.6z M209.9,14.43c-1.17-0.08-2.34-0.17-3.42-0.17c-8.18,0-21.19,8.01-24.61,22.36
	l-0.92,3.25h0.33c2.59-6.17,9.09-9.51,17.85-9.51c2.34,0,5.09,0.33,7.17,0.83L209.9,14.43z M141.74,16.43l-9.93,46.72h18.27
	l9.93-46.72H141.74z M163.52,0h-18.27l-2.34,11.01h18.27L163.52,0z M130.73,40.54c-2.84,13.51-15.18,24.44-32.37,24.44
	c-8.09,0-13.76-2.67-16.1-6.09H82.1L77.59,80H59.32l13.51-63.65h17.77l-1.33,6.17h0.17c4.92-4.75,11.93-7.42,19.35-7.42
	C125.31,15.18,134.15,24.36,130.73,40.54z M101.7,27.95c-8.59,0-14.01,4.67-15.52,11.93C84.6,47.13,88.1,51.72,96.7,51.72
	c8.34,0,13.85-4.17,15.43-11.85C113.71,32.12,110.04,27.95,101.7,27.95z M45.31,34.45L29.88,32.7c-4.5-0.5-5.51-1.84-5.17-3.25
	c0.67-3.17,4-4.42,9.34-4.42c2.34,0,4.67,0.25,6.34,1.08c1.67,0.67,2.67,2,2.42,3.92h20.52c1.84-13.26-13.43-15.52-25.86-15.52
	c-17.52,0-29.2,4-31.87,16.68c-1.67,7.92,2.92,11.76,13.35,13.01l15.93,2c4.42,0.5,6.09,1.25,5.51,3.67
	c-0.75,3.34-5.17,4.17-9.26,4.17c-4,0-6.34-0.5-7.76-1.42c-1.42-0.92-1.84-2.25-1.75-4H0.26c-2.59,14.18,14.43,16.43,27.36,16.43
	c19.44,0,31.03-5.17,33.37-16.18C63,39.71,57.57,35.79,45.31,34.45z M287.23,20.52l0.83,1.5h-1l-0.58-1.25h-0.67v1.25h-1v-3.84l0,0
	h1.58c0.42,0,0.75,0.08,1.08,0.33c0.33,0.17,0.42,0.5,0.42,1c0,0.25-0.08,0.42-0.17,0.58C287.65,20.27,287.48,20.44,287.23,20.52z
	 M286.89,19.52c0-0.17-0.08-0.33-0.17-0.42c-0.08-0.08-0.33-0.17-0.5-0.17h-0.42v1.17h0.42c0.25,0,0.42-0.08,0.5-0.17
	C286.81,19.85,286.89,19.69,286.89,19.52z M289.98,20.19c0,0.58-0.08,1.08-0.33,1.5c-0.17,0.42-0.42,0.83-0.75,1.25
	c-0.33,0.33-0.75,0.58-1.17,0.75c-0.42,0.17-0.92,0.25-1.42,0.25c-0.5,0-1-0.08-1.42-0.25c-0.42-0.17-0.83-0.42-1.17-0.75
	c-0.33-0.33-0.58-0.75-0.75-1.25c-0.17-0.42-0.33-1-0.33-1.5c0-0.58,0.08-1.08,0.33-1.58c0.17-0.5,0.42-0.92,0.75-1.25
	c0.33-0.33,0.75-0.58,1.17-0.75c0.42-0.17,0.92-0.25,1.42-0.25c0.5,0,1,0.08,1.42,0.25c0.42,0.17,0.83,0.42,1.17,0.75
	s0.58,0.75,0.75,1.25C289.9,19.1,289.98,19.6,289.98,20.19z M289.06,20.19c0-0.42-0.08-0.83-0.25-1.25c-0.17-0.42-0.33-0.67-0.58-1
	c-0.25-0.25-0.5-0.5-0.92-0.58c-0.33-0.17-0.75-0.25-1.08-0.25c-0.42,0-0.75,0.08-1.17,0.25c-0.33,0.17-0.67,0.33-0.92,0.58
	c-0.25,0.25-0.42,0.58-0.58,1s-0.25,0.75-0.25,1.25c0,0.42,0.08,0.83,0.25,1.25c0.17,0.33,0.33,0.67,0.58,0.92
	c0.25,0.25,0.5,0.42,0.92,0.58c0.33,0.17,0.75,0.25,1.17,0.25c0.42,0,0.75-0.08,1.08-0.25s0.67-0.33,0.92-0.58
	c0.25-0.25,0.42-0.58,0.58-0.92C288.98,21.02,289.06,20.6,289.06,20.19z"/>
</svg>
