<?xml version="1.0" encoding="utf-8"?>
<!-- Generator: Adobe Illustrator 25.4.1, SVG Export Plug-In . SVG Version: 6.00 Build 0)  -->
<svg version="1.1" id="Layer_4" xmlns="http://www.w3.org/2000/svg" xmlns:xlink="http://www.w3.org/1999/xlink" x="0px" y="0px"
	 viewBox="0 0 170.22 80.27" style="enable-background:new 0 0 170.22 80.27;" xml:space="preserve">
<style type="text/css">
	.st0{fill:#DA1A15;}
</style>
<g id="g598" transform="translate(91.9677,50.4085)">
	<path id="path600" class="st0" d="M-91.97-41.28C-57.05-50,23.92-63.6,43.88-20.41c4.97,10.76,13.21-1.63,34.37,11.84
		C62.88-3.86,59.98,9.2,41.53,19.65C7.96,38.67-45,23.77-91.97,27.95v-0.72c19.93-2.01,34.47-1.87,36.33-6.84
		c1.34-3.59-9.6-5.45-20.33-5.69l0-0.38c33.66,0.26,60.64-2.82,80.11-12.39c14.2-6.98,11.45-15.12-15.13-25.88
		C-18.15-34.71-29.6-41.81-91.97-40.3V-41.28z"/>
</g>
</svg>
