<?xml version="1.0" encoding="utf-8"?>
<!-- Generator: Adobe Illustrator 25.4.1, SVG Export Plug-In . SVG Version: 6.00 Build 0)  -->
<svg version="1.1" id="Layer_4" xmlns="http://www.w3.org/2000/svg" xmlns:xlink="http://www.w3.org/1999/xlink" x="0px" y="0px"
	 viewBox="0 0 253.9 80.27" style="enable-background:new 0 0 253.9 80.27;" xml:space="preserve">
<style type="text/css">
	.st0{fill:#DA1A15;}
</style>
<g>
	<g id="g592">
		<g id="g598" transform="translate(91.9677,50.4085)">
			<path id="path600" class="st0" d="M-8.29-41.28C26.63-50,107.6-63.6,127.56-20.41c4.97,10.76,13.21-1.63,34.37,11.84
				c-15.37,4.71-18.28,17.76-36.73,28.22c-33.57,19.02-86.53,4.12-133.5,8.3v-0.72c19.93-2.01,34.47-1.87,36.33-6.84
				c1.34-3.59-9.6-5.45-20.33-5.69l0-0.38c33.66,0.26,60.64-2.82,80.11-12.39c14.2-6.98,11.45-15.12-15.13-25.88
				C65.52-34.71,54.08-41.81-8.29-40.3V-41.28z"/>
		</g>
		<g id="g602" transform="translate(86.0536,40.0437)">
			<path id="path604" class="st0" d="M-18.98-1.82h-22.16c0.08,3.06,2.26,4.59,6.54,4.59c3.11,0,5.22-0.76,6.36-2.28l7.72,2.07
				c-1.92,3.07-6.41,4.61-13.47,4.61c-5.17,0-9.29-0.96-12.35-2.89c-2.94-1.85-4.41-4.27-4.41-7.27c0-2.96,1.51-5.45,4.53-7.46
				c3.03-2,6.91-3.01,11.66-3.01s8.53,1.01,11.34,3.02c2.81,2.01,4.21,4.78,4.21,8.3V-1.82z M-29.09-5.69
				c-0.15-1.08-0.78-1.94-1.88-2.59c-1.1-0.65-2.41-0.98-3.94-0.98c-3.37,0-5.35,1.19-5.94,3.57H-29.09z"/>
		</g>
		<g id="g606" transform="translate(98.4862,40.516)">
			<path id="path608" class="st0" d="M3.49-3.61c0,2.87-1.57,5.3-4.71,7.3c-3.14,2-6.99,3-11.55,3c-4.6,0-8.44-1-11.55-3
				c-3.11-2.01-4.65-4.44-4.65-7.3c0-2.86,1.56-5.3,4.68-7.3c3.12-2,6.96-3.01,11.52-3.01s8.41,1,11.55,3.01S3.49-6.48,3.49-3.61
				 M-6.72-3.59c0-1.42-0.54-2.55-1.62-3.37c-1.08-0.83-2.56-1.24-4.45-1.24c-1.89,0-3.37,0.41-4.46,1.24
				c-1.08,0.83-1.62,1.95-1.62,3.37s0.54,2.54,1.62,3.35c1.08,0.81,2.57,1.22,4.46,1.22c1.89,0,3.37-0.41,4.45-1.22
				C-7.26-1.06-6.72-2.17-6.72-3.59"/>
		</g>
		<g id="g610" transform="translate(98.9912,37.6783)">
			<path id="path612" class="st0" d="M4.4,7.19L6.53,2c3.06,1.76,6.52,2.64,10.37,2.64c2.63,0,3.95-0.53,3.95-1.6
				c0-0.7-0.55-1.19-1.65-1.48c-1.54-0.26-3.05-0.52-4.55-0.78C8.77-0.23,5.83-2.14,5.83-4.94c0-1.82,1.04-3.3,3.12-4.44
				c2.08-1.14,4.97-1.71,8.66-1.71c3.73,0,7.6,0.58,11.61,1.75L27.1-4.67c-2.74-1.22-5.53-1.83-8.35-1.83
				c-2.35,0-3.53,0.47-3.53,1.4c0,0.57,0.61,1,1.83,1.29c1.61,0.31,3.22,0.62,4.83,0.94c2.83,0.57,4.89,1.29,6.19,2.14
				c1.38,0.94,2.06,2.16,2.06,3.67c0,1.95-1.13,3.54-3.39,4.76c-2.26,1.22-5.29,1.83-9.1,1.83C12.67,9.53,8.25,8.75,4.4,7.19"/>
		</g>
		<g id="g614" transform="translate(70.1283,40.6498)">
			<path id="path616" class="st0" d="M-47.76-4.12c-0.08-1.27-0.69-2.28-1.68-3.04c-1.08-0.83-2.56-1.24-4.45-1.24
				c-1.89,0-3.37,0.42-4.45,1.24c-1,0.76-1.8,1.89-1.88,3.16l0.02,10.08h-9.92c0-3.5,0-7.02,0-9.88c0-2.86,1.61-5.3,4.73-7.3
				c3.12-2.01,6.96-3.01,11.52-3.01s8.41,1,11.55,3.01c3.14,2,4.73,4.44,4.73,7.3v9.88h-10.17C-47.76,6.06-47.76-4.02-47.76-4.12"/>
		</g>
	</g>
</g>
</svg>
