<?xml version="1.0" encoding="utf-8"?>
<!-- Generator: Adobe Illustrator 25.4.1, SVG Export Plug-In . SVG Version: 6.00 Build 0)  -->
<svg version="1.1" id="Layer_1" xmlns="http://www.w3.org/2000/svg" xmlns:xlink="http://www.w3.org/1999/xlink" x="0px" y="0px"
	 viewBox="0 0 89.11 80" style="enable-background:new 0 0 89.11 80;" xml:space="preserve">
<style type="text/css">
	.st0{fill:#C3AE79;}
</style>
<g>
	<path class="st0" d="M44.79,48.09c-0.08-0.04-0.15-0.09-0.22-0.14c-3.02-2.1-6.04-4.2-9.06-6.3c-3.95-2.74-7.9-5.47-11.86-8.21
		c-6.05-4.19-12.1-8.38-18.15-12.56c-1.38-0.95-2.75-1.91-4.13-2.86C0.92,17.71,0.5,17.36,0,17.12c0,0.12,0,0.23,0,0.35
		c0.23,0.55,0.24,1.15,0.34,1.73c0.38,2.25,0.75,4.51,1.11,6.76c0.04,0.26,0.16,0.4,0.39,0.52c1.41,0.75,2.8,1.51,4.21,2.27
		c4.14,2.24,8.28,4.48,12.42,6.72c2.7,1.46,5.41,2.9,8.11,4.36c2.94,1.59,5.88,3.18,8.83,4.77c2.72,1.47,5.43,2.92,8.15,4.39
		c0.87,0.47,0.85,0.47,1.36-0.36C45.08,48.36,45.05,48.22,44.79,48.09z"/>
	<path class="st0" d="M14.54,7.48c2.16,2.25,4.32,4.5,6.48,6.74c2.89,3.01,5.79,6.02,8.68,9.02c3.04,3.15,6.07,6.31,9.11,9.46
		c1.31,1.36,2.61,2.72,3.92,4.07c1.91,1.98,3.82,3.97,5.74,5.94c0.25,0.25,0.43,0.72,0.77,0.69c0.31-0.03,0.58-0.39,0.87-0.61
		c0.03-0.03,0.07-0.05,0.11-0.07c0.21-0.13,0.21-0.27,0.05-0.46c-0.29-0.32-0.55-0.67-0.83-1c-1.72-2.07-3.44-4.14-5.15-6.22
		c-2.64-3.21-5.28-6.42-7.92-9.64c-1.99-2.42-3.98-4.83-5.96-7.25c-1.76-2.14-3.51-4.27-5.27-6.41c-1.99-2.42-3.98-4.83-5.97-7.24
		c-1.18-1.43-2.36-2.86-3.54-4.29C15.54,0.14,15.48,0.07,15.42,0c-0.15,0.02-0.16,0.12-0.2,0.22c-0.7,1.78-1.39,3.56-2.1,5.33
		c-0.1,0.24-0.06,0.4,0.12,0.58C13.69,6.57,14.1,7.03,14.54,7.48z"/>
	<path class="st0" d="M11.86,19.54c0.01,0.3,0.11,0.47,0.34,0.64c1.96,1.47,3.91,2.95,5.86,4.43c5.44,4.14,10.88,8.27,16.32,12.41
		c0.85,0.65,1.69,1.29,2.54,1.94l0,0c0,0,0.01,0.01,0.01,0.01c0.8,0.62,1.6,1.23,2.41,1.85c0.05,0.04,0.11,0.09,0.17,0.11
		c0.59,0.45,1.22,0.92,1.82,1.38c0.04,0.03,0.08,0.07,0.12,0.1c0.56,0.42,1.13,0.85,1.69,1.27c0.36,0.27,0.66,0.5,0.89,0.67
		c0.56,0.43,1.12,0.85,1.68,1.28c0.88,0.67,0.86,0.67,1.65-0.1c0.27-0.26,0.29-0.41,0-0.68c-2.41-2.26-4.81-4.53-7.21-6.8
		c-3.43-3.25-6.86-6.5-10.29-9.74c-2-1.89-4-3.78-6-5.67c-3.65-3.46-7.29-6.92-10.94-10.38c-0.44-0.41-0.88-0.81-1.38-1.27
		c0.04,0.89,0.09,1.68,0.12,2.47C11.73,15.49,11.8,17.51,11.86,19.54z"/>
	<path class="st0" d="M41.66,53.94c-3.01-0.82-6.02-1.66-9.04-2.49c-4.18-1.16-8.36-2.32-12.54-3.49c-2.49-0.69-4.98-1.4-7.48-2.09
		c-2.3-0.64-4.6-1.27-6.9-1.91c-1.7-0.47-3.4-0.94-5.2-1.43c0.17,0.46,0.3,0.82,0.43,1.19c0.78,2.15,1.57,4.3,2.35,6.44
		c0.07,0.2,0.15,0.35,0.4,0.38c3.28,0.43,6.57,0.87,9.85,1.32c3.07,0.42,6.13,0.86,9.2,1.28c3.22,0.44,6.45,0.87,9.67,1.32
		c2.89,0.4,5.79,0.8,8.68,1.2c0.71,0.1,0.71,0.1,0.87-0.58c0.04-0.15,0.05-0.32,0.11-0.46C42.24,54.19,42.06,54.05,41.66,53.94z"/>
	<path class="st0" d="M42.72,50.65c-3.32-1.58-6.65-3.14-9.97-4.71c-2.97-1.4-5.94-2.82-8.91-4.22c-3.4-1.61-6.81-3.21-10.21-4.81
		c-1.44-0.68-2.88-1.35-4.32-2.04c-0.27-0.13-0.42-0.15-0.43,0.23c-0.07,1.91-0.17,3.81-0.26,5.77c-0.09,0.34,0.08,0.51,0.46,0.62
		c0.64,0.17,1.29,0.33,1.9,0.56c1.44,0.53,2.91,0.95,4.37,1.42c2.54,0.83,5.11,1.6,7.66,2.41c2.82,0.89,5.63,1.78,8.44,2.67
		c2.59,0.82,5.19,1.64,7.78,2.46c1.14,0.36,2.29,0.73,3.44,1.08c0.12,0.04,0.32,0.21,0.41-0.02c0.13-0.32,0.3-0.67,0.28-0.99
		C43.36,50.8,42.96,50.76,42.72,50.65z"/>
	<path class="st0" d="M35.47,19.23c1.7,2.16,3.38,4.34,5.08,6.5c2.97,3.78,5.94,7.56,8.91,11.34c0.97,1.23,1.93,2.46,2.89,3.69
		c0.18,0.24,0.32,0.32,0.57,0.07c0.24-0.25,0.53-0.46,0.81-0.65c0.3-0.21,0.33-0.38,0.11-0.7c-1.44-2.1-2.86-4.22-4.29-6.33
		c-3.4-5.01-6.8-10.01-10.2-15.01c-1.47-2.16-2.93-4.31-4.4-6.47c-1.52-2.24-3.04-4.48-4.57-6.74c-0.14,0.09-0.16,0.19-0.19,0.28
		c-0.53,1.5-1.03,3.01-1.59,4.51c-0.16,0.42-0.1,0.71,0.18,1.05C31.03,13.59,33.25,16.41,35.47,19.23z"/>
	<path class="st0" d="M40.29,13.31c2.26,3.69,4.53,7.37,6.8,11.06c2.89,4.71,5.78,9.43,8.67,14.15c0.33,0.54,0.34,0.54,0.88,0.24
		c0.16-0.09,0.32-0.21,0.49-0.28c0.34-0.14,0.34-0.33,0.18-0.64c-1.38-2.61-2.74-5.23-4.1-7.85c-2.01-3.87-4.02-7.75-6.02-11.63
		c-0.59-1.13-1.18-2.26-1.77-3.39c-1.63-3.12-3.25-6.24-4.88-9.36c-0.75-1.44-1.5-2.88-2.25-4.31c-0.05-0.1-0.08-0.22-0.2-0.27
		c-0.17,0.01-0.15,0.16-0.19,0.25c-0.63,1.54-1.25,3.08-1.88,4.62c-0.08,0.19-0.08,0.34,0.04,0.52
		C37.48,8.72,38.88,11.02,40.29,13.31z"/>
	<path class="st0" d="M58.01,17.96c0.8,3.07,1.6,6.13,2.4,9.2c0.81,3.11,1.62,6.21,2.42,9.33c0.07,0.29,0.18,0.42,0.49,0.39
		c0.47-0.05,0.95-0.07,1.43-0.09c0.21-0.01,0.27-0.08,0.23-0.3c-0.39-2.16-0.77-4.33-1.16-6.49c-0.35-1.95-0.71-3.9-1.06-5.85
		c-0.46-2.55-0.91-5.1-1.37-7.64c-0.39-2.18-0.78-4.36-1.17-6.53c-0.33-1.83-0.66-3.67-1-5.56c-0.09,0.06-0.14,0.07-0.16,0.1
		c-1.05,1.56-2.1,3.12-3.16,4.68c-0.09,0.13-0.1,0.25-0.06,0.4C56.57,12.38,57.29,15.17,58.01,17.96z"/>
	<path class="st0" d="M40.59,57.61c-0.61-0.04-1.21-0.08-1.82-0.14c-2-0.19-4-0.39-6.01-0.58c-1.31-0.13-2.62-0.25-3.93-0.38
		c-2-0.19-4-0.39-6.01-0.58c-1.34-0.13-2.68-0.25-4.02-0.38c-1.93-0.19-3.86-0.38-5.79-0.57c-1.68-0.16-3.37-0.32-5.05-0.49
		c-0.52-0.05-0.56-0.04-0.64,0.47c-0.19,1.11-0.37,2.23-0.59,3.33c-0.08,0.39,0.02,0.5,0.42,0.5c4.07,0.03,8.15-0.02,12.22,0.07
		c3.65,0.08,7.31,0.02,10.96,0.08c3.32,0.05,6.64,0.01,9.96,0.01c0.63,0.09,0.63,0.09,0.74-0.54c0.01-0.07,0.01-0.15,0.03-0.21
		C41.18,57.78,40.98,57.63,40.59,57.61z"/>
	<path class="st0" d="M52.03,19.59c1.46,3.69,2.92,7.37,4.37,11.06c0.89,2.26,1.79,4.52,2.67,6.79c0.1,0.26,0.24,0.37,0.52,0.28
		c0.41-0.13,0.83-0.26,1.25-0.37c0.24-0.07,0.29-0.18,0.21-0.41c-0.22-0.66-0.41-1.32-0.61-1.99c-0.96-3.14-1.92-6.27-2.88-9.41
		c-1.05-3.43-2.1-6.85-3.15-10.28c-0.69-2.27-1.38-4.53-2.1-6.87c-0.08,0.09-0.14,0.12-0.16,0.17c-0.77,1.68-1.55,3.37-2.32,5.05
		c-0.07,0.14-0.05,0.27,0,0.42C50.57,15.88,51.3,17.74,52.03,19.59z"/>
	<path class="st0" d="M74.56,37.68c0.29,0.13,0.59,0.25,0.87,0.4c0.32,0.18,0.45,0.09,0.54-0.26c0.77-2.95,1.54-5.91,2.32-8.86
		c1-3.8,2.01-7.6,3.01-11.41c0.03-0.11,0.12-0.23,0.01-0.32c-0.1-0.08-0.22,0.01-0.33,0.05c-0.8,0.29-1.6,0.57-2.4,0.88
		c-0.86,0.33-1.91,0.48-1.78,1.79c0,0.04-0.01,0.09-0.02,0.13c-0.38,2.72-0.76,5.44-1.14,8.16c-0.28,2-0.58,4.01-0.86,6.01
		c-0.15,1.03-0.28,2.06-0.42,3.05C74.3,37.54,74.43,37.61,74.56,37.68z"/>
	<path class="st0" d="M65.28,21.77c0.13,1.35,0.24,2.71,0.38,4.06c0.22,2.25,0.45,4.49,0.67,6.74c0.12,1.24,0.24,2.48,0.36,3.72
		c0.02,0.25,0.13,0.35,0.39,0.34c0.27-0.01,0.55-0.01,0.82,0.04c0.39,0.07,0.54-0.02,0.52-0.46c-0.07-2.53-0.12-5.07-0.18-7.61
		c-0.06-2.67-0.12-5.33-0.18-8c-0.04-2.03-0.07-4.06-0.12-6.09c0-0.11,0.03-0.23-0.06-0.32c-0.09-0.03-0.14,0.03-0.19,0.08
		c-0.9,0.9-1.8,1.8-2.71,2.7c-0.17,0.17-0.16,0.35-0.14,0.56C65,18.94,65.15,20.36,65.28,21.77z"/>
	<path class="st0" d="M71.44,36.93c1.01,0.14,1.06,0.11,1.12-0.89c0.13-2.28,0.25-4.57,0.38-6.85c0.05-0.93,0.1-1.85,0.18-2.77
		c0.18-2.09,0.29-4.19,0.4-6.28c0.07-1.34,0.15-2.69,0.25-4.03c0.05-0.63,0-1.26,0.13-1.95c-0.13,0.05-0.17,0.05-0.18,0.07
		c-0.9,0.95-1.79,1.9-2.69,2.84c-0.13,0.13-0.11,0.29-0.11,0.45c-0.02,0.96-0.04,1.93-0.06,2.89c-0.03,1.3-0.03,2.61-0.06,3.91
		c-0.07,2.39-0.01,4.78-0.09,7.17c-0.05,1.51-0.02,3.02-0.03,4.52C70.66,36.82,70.66,36.82,71.44,36.93z"/>
	<path class="st0" d="M78.59,39.57c0.36,0.21,0.46,0.11,0.61-0.23c0.92-2.09,1.87-4.18,2.8-6.26c1.38-3.06,2.75-6.13,4.14-9.18
		c0.11-0.24,0.07-0.32-0.2-0.36c-0.89-0.11-1.78-0.24-2.68-0.37c-0.24-0.08-0.27,0.12-0.33,0.28c-0.19,0.56-0.38,1.12-0.57,1.69
		c-1.47,4.27-2.93,8.54-4.4,12.81C77.6,39.02,77.62,39,78.59,39.57z"/>
	<path class="st0" d="M89.01,30.83c-0.37-0.8-0.73-1.61-1.11-2.4c-0.08-0.17-0.09-0.46-0.26-0.47c-0.23-0.01-0.27,0.29-0.37,0.47
		c-2.05,3.73-4.09,7.47-6.15,11.2c-0.65,1.17-0.6,0.82,0.36,1.64c0.14,0.12,0.25,0.16,0.31,0.06l0,0l0.95-1.28
		c0.02-0.03,0.04-0.06,0.07-0.09c0.45-0.64,0.91-1.27,1.37-1.91c1.6-2.24,3.2-4.48,4.79-6.72c0.06-0.08,0.15-0.15,0.14-0.29
		C89.08,30.98,89.05,30.91,89.01,30.83z"/>
	<ellipse class="st0" cx="66.15" cy="60.92" rx="20.63" ry="19.08"/>
</g>
</svg>
