<?xml version="1.0" encoding="utf-8"?>
<!-- Generator: Adobe Illustrator 25.4.1, SVG Export Plug-In . SVG Version: 6.00 Build 0)  -->
<svg version="1.1" id="Layer_1" xmlns="http://www.w3.org/2000/svg" xmlns:xlink="http://www.w3.org/1999/xlink" x="0px" y="0px"
	 viewBox="0 0 190.91 80" style="enable-background:new 0 0 190.91 80;" xml:space="preserve">
<style type="text/css">
	.st0{fill:#C3AE79;}
	.st1{fill:#112D73;}
</style>
<g>
	<g>
		<path class="st0" d="M44.39,47.67c-0.08-0.04-0.15-0.09-0.22-0.14c-2.99-2.08-5.98-4.17-8.98-6.24
			c-3.92-2.72-7.83-5.43-11.75-8.14c-6-4.15-11.99-8.3-17.99-12.45c-1.36-0.94-2.73-1.89-4.09-2.83c-0.45-0.31-0.87-0.65-1.36-0.9
			c0,0.12,0,0.23,0,0.35c0.23,0.55,0.24,1.14,0.34,1.71c0.38,2.23,0.74,4.47,1.1,6.7c0.04,0.26,0.16,0.4,0.39,0.52
			c1.39,0.74,2.78,1.5,4.17,2.25c4.1,2.22,8.2,4.44,12.31,6.66c2.68,1.44,5.36,2.88,8.04,4.32c2.92,1.57,5.83,3.15,8.75,4.73
			c2.69,1.45,5.39,2.9,8.08,4.35c0.86,0.47,0.84,0.47,1.35-0.36C44.68,47.94,44.65,47.8,44.39,47.67z"/>
		<path class="st0" d="M14.41,7.41c2.14,2.23,4.28,4.46,6.42,6.68c2.87,2.98,5.74,5.96,8.6,8.95c3.01,3.13,6.02,6.25,9.03,9.38
			c1.29,1.35,2.59,2.69,3.88,4.04c1.89,1.96,3.78,3.93,5.69,5.89c0.24,0.25,0.43,0.71,0.76,0.68c0.31-0.03,0.58-0.39,0.86-0.6
			c0.03-0.03,0.07-0.05,0.11-0.07c0.21-0.13,0.21-0.27,0.05-0.45c-0.28-0.32-0.54-0.66-0.82-0.99c-1.7-2.06-3.41-4.11-5.1-6.17
			c-2.62-3.18-5.23-6.37-7.85-9.55c-1.97-2.4-3.94-4.79-5.91-7.18c-1.74-2.12-3.48-4.24-5.23-6.35c-1.97-2.39-3.95-4.79-5.92-7.18
			c-1.17-1.42-2.34-2.84-3.51-4.25C15.41,0.14,15.34,0.07,15.28,0c-0.15,0.02-0.16,0.12-0.2,0.21c-0.69,1.76-1.38,3.53-2.08,5.29
			c-0.1,0.24-0.06,0.39,0.12,0.57C13.57,6.51,13.98,6.97,14.41,7.41z"/>
		<path class="st0" d="M11.75,19.37c0.01,0.3,0.11,0.46,0.34,0.63c1.94,1.46,3.87,2.92,5.81,4.39c5.39,4.1,10.79,8.2,16.18,12.3
			c0.84,0.64,1.68,1.28,2.52,1.93l0,0c0,0,0.01,0.01,0.01,0.01c0.8,0.61,1.59,1.22,2.39,1.83c0.05,0.04,0.11,0.08,0.17,0.11
			c0.58,0.44,1.21,0.91,1.81,1.37c0.04,0.03,0.08,0.07,0.12,0.1c0.56,0.42,1.12,0.84,1.67,1.26c0.36,0.27,0.66,0.5,0.88,0.67
			c0.56,0.42,1.11,0.85,1.67,1.27c0.87,0.67,0.85,0.66,1.63-0.1c0.27-0.26,0.28-0.41,0-0.68c-2.39-2.24-4.77-4.49-7.14-6.74
			c-3.4-3.22-6.8-6.44-10.2-9.66c-1.98-1.88-3.97-3.75-5.95-5.62c-3.62-3.43-7.23-6.86-10.85-10.29c-0.43-0.41-0.88-0.8-1.37-1.26
			c0.04,0.88,0.09,1.67,0.12,2.45C11.62,15.35,11.7,17.36,11.75,19.37z"/>
		<path class="st0" d="M41.3,53.46c-2.99-0.81-5.97-1.64-8.96-2.47c-4.14-1.15-8.29-2.3-12.43-3.46c-2.47-0.69-4.94-1.39-7.41-2.08
			c-2.28-0.63-4.56-1.26-6.84-1.89c-1.68-0.46-3.37-0.93-5.15-1.42c0.17,0.45,0.3,0.82,0.43,1.18c0.78,2.13,1.55,4.26,2.33,6.39
			c0.07,0.2,0.15,0.35,0.4,0.38c3.25,0.43,6.51,0.86,9.76,1.31c3.04,0.42,6.08,0.85,9.12,1.27c3.19,0.44,6.39,0.87,9.59,1.3
			c2.87,0.39,5.74,0.79,8.61,1.19c0.7,0.1,0.7,0.1,0.86-0.58c0.04-0.15,0.05-0.32,0.11-0.46C41.87,53.72,41.69,53.57,41.3,53.46z"/>
		<path class="st0" d="M42.35,50.21c-3.29-1.57-6.59-3.11-9.89-4.67c-2.94-1.39-5.88-2.79-8.83-4.18
			c-3.37-1.59-6.75-3.18-10.12-4.77c-1.43-0.67-2.86-1.34-4.28-2.02c-0.26-0.13-0.41-0.15-0.43,0.23c-0.07,1.89-0.17,3.78-0.25,5.72
			c-0.09,0.34,0.08,0.51,0.46,0.61c0.63,0.17,1.28,0.33,1.89,0.55c1.43,0.52,2.89,0.94,4.33,1.41c2.52,0.82,5.06,1.59,7.59,2.39
			c2.79,0.88,5.58,1.76,8.37,2.65c2.57,0.81,5.14,1.63,7.71,2.44c1.13,0.36,2.27,0.72,3.41,1.07c0.12,0.04,0.32,0.21,0.41-0.02
			c0.13-0.32,0.29-0.66,0.28-0.98C42.98,50.36,42.58,50.32,42.35,50.21z"/>
		<path class="st0" d="M35.16,19.07c1.68,2.14,3.35,4.3,5.04,6.45c2.94,3.75,5.89,7.5,8.84,11.24c0.96,1.22,1.92,2.44,2.87,3.66
			c0.18,0.24,0.32,0.32,0.57,0.07c0.24-0.24,0.52-0.45,0.8-0.65c0.3-0.2,0.33-0.37,0.11-0.69c-1.43-2.08-2.84-4.18-4.26-6.27
			c-3.37-4.96-6.74-9.92-10.11-14.88c-1.45-2.14-2.91-4.28-4.36-6.41c-1.51-2.22-3.01-4.44-4.53-6.68
			c-0.14,0.09-0.16,0.19-0.19,0.28c-0.52,1.49-1.02,2.99-1.57,4.47c-0.15,0.42-0.1,0.7,0.17,1.04
			C30.76,13.47,32.96,16.27,35.16,19.07z"/>
		<path class="st0" d="M39.94,13.2c2.24,3.65,4.49,7.31,6.74,10.96c2.87,4.67,5.73,9.35,8.6,14.02c0.33,0.54,0.34,0.54,0.87,0.23
			c0.16-0.09,0.32-0.21,0.49-0.28c0.34-0.14,0.34-0.32,0.18-0.63c-1.36-2.59-2.72-5.19-4.06-7.78c-1.99-3.84-3.98-7.69-5.97-11.53
			c-0.58-1.12-1.17-2.24-1.75-3.36c-1.61-3.09-3.23-6.18-4.84-9.27c-0.74-1.42-1.48-2.85-2.23-4.28c-0.05-0.1-0.07-0.22-0.2-0.27
			c-0.16,0.01-0.15,0.16-0.19,0.25c-0.62,1.53-1.24,3.06-1.86,4.58c-0.08,0.19-0.08,0.34,0.04,0.52
			C37.15,8.64,38.54,10.92,39.94,13.2z"/>
		<path class="st0" d="M57.5,17.8c0.79,3.04,1.59,6.08,2.38,9.12c0.8,3.08,1.61,6.16,2.4,9.24c0.07,0.29,0.17,0.42,0.49,0.38
			c0.47-0.05,0.94-0.07,1.42-0.09c0.21-0.01,0.27-0.08,0.23-0.29c-0.39-2.14-0.76-4.29-1.15-6.43c-0.35-1.93-0.71-3.86-1.05-5.8
			c-0.45-2.53-0.9-5.05-1.35-7.58c-0.39-2.16-0.77-4.32-1.16-6.48c-0.33-1.82-0.65-3.63-0.99-5.51c-0.09,0.06-0.14,0.07-0.16,0.1
			c-1.04,1.55-2.09,3.1-3.13,4.64c-0.09,0.13-0.1,0.25-0.06,0.4C56.08,12.27,56.78,15.04,57.5,17.8z"/>
		<path class="st0" d="M40.24,57.1c-0.6-0.04-1.2-0.08-1.8-0.14c-1.98-0.19-3.97-0.38-5.95-0.57c-1.3-0.13-2.6-0.25-3.9-0.37
			c-1.98-0.19-3.97-0.38-5.95-0.57c-1.33-0.13-2.66-0.25-3.98-0.38c-1.91-0.19-3.83-0.38-5.74-0.56c-1.67-0.16-3.34-0.32-5.01-0.49
			c-0.52-0.05-0.55-0.04-0.64,0.47c-0.19,1.1-0.37,2.21-0.58,3.3c-0.08,0.39,0.02,0.49,0.42,0.49c4.04,0.03,8.08-0.02,12.11,0.07
			c3.62,0.08,7.24,0.02,10.86,0.08c3.29,0.05,6.58,0.01,9.87,0.01c0.62,0.09,0.62,0.09,0.74-0.53c0.01-0.07,0.01-0.14,0.03-0.21
			C40.82,57.28,40.62,57.13,40.24,57.1z"/>
		<path class="st0" d="M51.58,19.42c1.44,3.66,2.89,7.31,4.33,10.96c0.89,2.24,1.77,4.48,2.65,6.73c0.1,0.26,0.24,0.37,0.52,0.28
			c0.41-0.13,0.82-0.26,1.24-0.37c0.23-0.06,0.28-0.18,0.21-0.41c-0.22-0.65-0.41-1.31-0.61-1.97c-0.95-3.11-1.9-6.22-2.85-9.33
			c-1.04-3.4-2.08-6.79-3.12-10.19c-0.69-2.25-1.37-4.49-2.08-6.81c-0.08,0.09-0.13,0.12-0.16,0.17c-0.77,1.67-1.53,3.34-2.3,5.01
			c-0.07,0.14-0.05,0.27,0,0.41C50.13,15.74,50.85,17.58,51.58,19.42z"/>
		<path class="st0" d="M73.91,37.35c0.29,0.13,0.58,0.25,0.86,0.4c0.32,0.18,0.44,0.08,0.53-0.25c0.76-2.93,1.53-5.85,2.3-8.78
			c0.99-3.77,1.99-7.54,2.99-11.31c0.03-0.11,0.12-0.23,0.01-0.32c-0.1-0.08-0.22,0.01-0.32,0.05c-0.79,0.29-1.59,0.57-2.38,0.87
			c-0.85,0.32-1.89,0.47-1.76,1.78c0,0.04-0.01,0.08-0.02,0.13c-0.38,2.7-0.75,5.39-1.13,8.09c-0.28,1.99-0.57,3.97-0.85,5.96
			c-0.14,1.02-0.28,2.04-0.41,3.02C73.65,37.21,73.78,37.29,73.91,37.35z"/>
		<path class="st0" d="M64.71,21.58c0.13,1.34,0.24,2.69,0.37,4.03c0.22,2.23,0.45,4.45,0.67,6.68c0.12,1.23,0.24,2.46,0.35,3.68
			c0.02,0.25,0.13,0.35,0.39,0.34c0.27-0.01,0.55-0.01,0.82,0.03c0.39,0.07,0.53-0.02,0.52-0.45c-0.07-2.51-0.12-5.03-0.17-7.54
			c-0.06-2.64-0.12-5.28-0.18-7.93c-0.04-2.01-0.07-4.02-0.11-6.03c0-0.11,0.03-0.23-0.06-0.32c-0.09-0.03-0.14,0.03-0.19,0.08
			c-0.9,0.89-1.79,1.79-2.69,2.68c-0.17,0.16-0.16,0.35-0.14,0.56C64.44,18.78,64.58,20.18,64.71,21.58z"/>
		<path class="st0" d="M70.82,36.61c1.01,0.14,1.06,0.11,1.11-0.88c0.13-2.26,0.25-4.53,0.38-6.79c0.05-0.92,0.09-1.83,0.17-2.75
			c0.18-2.07,0.29-4.15,0.4-6.23c0.07-1.33,0.15-2.66,0.25-3.99c0.05-0.62,0-1.25,0.13-1.93c-0.13,0.05-0.16,0.05-0.18,0.07
			c-0.89,0.94-1.77,1.88-2.67,2.82c-0.13,0.13-0.11,0.29-0.11,0.44c-0.02,0.96-0.04,1.91-0.06,2.87c-0.03,1.29-0.02,2.58-0.06,3.88
			c-0.07,2.37-0.01,4.74-0.09,7.11c-0.05,1.49-0.02,2.99-0.03,4.48C70.05,36.5,70.04,36.5,70.82,36.61z"/>
		<path class="st0" d="M77.91,39.22c0.35,0.21,0.46,0.11,0.61-0.23c0.91-2.08,1.85-4.14,2.78-6.21c1.37-3.04,2.73-6.07,4.1-9.1
			c0.11-0.24,0.07-0.32-0.2-0.35c-0.88-0.11-1.76-0.24-2.66-0.37c-0.24-0.08-0.27,0.12-0.32,0.28c-0.19,0.56-0.38,1.11-0.57,1.67
			c-1.45,4.23-2.91,8.47-4.36,12.7C76.93,38.68,76.94,38.66,77.91,39.22z"/>
		<path class="st0" d="M88.23,30.56c-0.37-0.79-0.73-1.59-1.1-2.38c-0.08-0.16-0.09-0.46-0.26-0.46c-0.23-0.01-0.27,0.29-0.37,0.47
			c-2.03,3.7-4.05,7.4-6.09,11.1c-0.64,1.16-0.6,0.81,0.36,1.63c0.14,0.12,0.25,0.16,0.31,0.06l0,0l0.94-1.27
			c0.02-0.03,0.04-0.06,0.07-0.09c0.44-0.63,0.9-1.26,1.35-1.89c1.58-2.22,3.17-4.44,4.75-6.66c0.06-0.08,0.14-0.14,0.14-0.28
			C88.3,30.71,88.27,30.64,88.23,30.56z"/>
		<ellipse class="st0" cx="65.58" cy="60.38" rx="20.45" ry="18.92"/>
	</g>
	<path class="st1" d="M94.75,79.89c0,0,0.54-16.82,0-19.14h2.5c0,0,8.62,13.5,8.98,15.28l-0.24-15.28h2.02l0.24,19.14h-2.02
		l-9.57-16.17l0.42,16.17H94.75z"/>
	<path class="st1" d="M115.33,66.03c0,0,1.19,4.51,0.48,13.85h2.79V65.5C118.6,65.5,116.16,66.03,115.33,66.03z"/>
	<path class="st1" d="M125.68,59.14c0,0,1.13,12.54,0.36,20.75h2.91c0,0-0.42-19.08,0-20.93L125.68,59.14z"/>
	<circle class="st1" cx="117.25" cy="61.53" r="1.92"/>
	<path class="st1" d="M173.72,66.03c0,0,1.19,4.51,0.48,13.85H177V65.5C177,65.5,174.56,66.03,173.72,66.03z"/>
	<circle class="st1" cx="175.64" cy="61.53" r="1.92"/>
	<path class="st1" d="M148.1,73.11c0,0,1.19-8.09-5.05-8.09s-6.3,7.67-6.01,9.63c0.3,1.96,1.84,5.23,5.53,5.23s4.34-1.24,4.34-1.24
		v-2.38c0,0-1.85,1.43-4.34,1.43s-3.69-2.74-3.57-4.58H148.1z M142.56,66.99c3.21,0,3.39,4.34,3.39,4.34h-6.84
		C139.12,71.33,139.35,66.99,142.56,66.99z"/>
	<path class="st1" d="M163.79,60.74h-3.09l-7.14,19.14h2.85c0.12-1.49,1.67-6.3,1.67-6.3h7.61c0,0,1.84,5.71,1.9,6.3h2.74
		C170.04,77.8,163.79,60.74,163.79,60.74z M158.68,71.74c0.12-0.18,3.27-9.46,3.27-9.28c0,0.18,3.33,9.28,3.33,9.28H158.68z"/>
	<path class="st1" d="M186.33,65.74c-1.11,0.81-2.04,1.9-2.47,2.45c-0.11-1.6-0.2-2.69-0.2-2.69l-2.85,0.42
		c1.37,3.27,0.59,13.97,0.59,13.97c0,0.28,2.26-0.06,2.62,0c0.3-2.31,0.15-6.5-0.03-9.76c0.38-0.87,1.15-1.96,2.83-2.31
		c2.85-0.59,3.33,0.48,3.33,0.48l0.77-2.56C190.91,65.74,187.88,64.61,186.33,65.74z"/>
	<g>
		<path class="st1" d="M101.73,51.53c0,0.1-0.1,2.43-2.99,2.43c-0.94,0-1.65-0.24-2.11-0.72c-0.65-0.67-0.61-1.64-0.61-1.65l0-5.57
			h-1.34v5.52c-0.01,0.21-0.01,1.58,0.97,2.61c0.72,0.76,1.76,1.15,3.09,1.15c4.17,0,4.33-3.69,4.33-3.75V45.4h-1.34L101.73,51.53z"
			/>
		<rect x="105.38" y="38.58" class="st1" width="1.34" height="11.44"/>
		<path class="st1" d="M147.84,47.63c0,1.26-1.42,1.65-1.72,1.72h-2.69c-0.64,0-1.16-0.52-1.16-1.16V38.13h-1.34v10.05
			c0,0.64-0.52,1.16-1.16,1.16h-3.24c0.17-0.32,0.29-0.67,0.37-1.05c0.26-1.23,0.02-2.59-0.63-3.54c-0.99-1.45-2.89-2.39-4.84-2.39
			c-2.39,0-4.06,0.87-5.08,1.64v-5.87h-1.34v10.05c0,0.64-0.52,1.16-1.16,1.16H121c-0.64,0-1.16-0.52-1.16-1.16v-5.15h-1.34v5.15
			c0,0.64-0.52,1.16-1.16,1.16h-2.8c-1.4,0-1.83-0.47-1.86-0.73v-1.79h-0.02v-3.97h-1.34v7.63l0.01,0.1
			c0.01,0.09,0.26,2.14-2.36,3.21l0.51,1.24c2.84-1.16,3.33-3.48,3.18-4.59v-0.08c0.5,0.22,1.13,0.33,1.87,0.33h31.73l0.06-0.01
			c0.99-0.18,2.87-1.05,2.87-3.05v-9.5h-1.34V47.63z M126.35,45.82c0.45-0.51,2.07-2.11,5.08-2.11c1.52,0,2.98,0.71,3.73,1.8
			c0.44,0.64,0.61,1.65,0.43,2.51c-0.09,0.41-0.29,0.96-0.76,1.33h-8.48V45.82z"/>
		<path class="st1" d="M183.97,47.32c0,1.5-1.54,1.75-1.82,1.78h-1.79c-0.64,0-1.16-0.52-1.16-1.16v-5.35h-1.34v5.35
			c0,0.64-0.52,1.16-1.16,1.16h-2.71c-0.64,0-1.16-0.52-1.16-1.16v-5.08h-1.34v5.08c0,0.64-0.52,1.16-1.16,1.16h-6.24
			c-0.98,0-1.34-0.43-1.46-0.62v-9.91h-1.34v12c0,3.14-2.26,3.38-2.96,3.38c-2.49,0-2.82-1.6-2.85-1.87v-5.57h-1.34v5.61l0,0.06
			c0.1,1.08,1.1,3.11,4.19,3.11c3.39,0,4.3-2.97,4.3-4.72v-0.42c0.38,0.17,0.85,0.29,1.46,0.29h18.14l0.03,0
			c1.06-0.1,3.06-0.87,3.06-3.12v-9.19h-1.34V47.32z"/>
		<rect x="187.94" y="38.13" class="st1" width="1.34" height="12.49"/>
		<rect x="177.86" y="39.29" class="st1" width="1.34" height="1.03"/>
		<rect x="170.63" y="51.96" class="st1" width="1.34" height="1.83"/>
		<rect x="173.26" y="51.96" class="st1" width="1.34" height="1.83"/>
		<rect x="117.18" y="51.96" class="st1" width="1.34" height="1.83"/>
		<rect x="98.65" y="42.28" class="st1" width="1.34" height="1.23"/>
		<rect x="119.81" y="51.96" class="st1" width="1.34" height="1.83"/>
	</g>
</g>
</svg>
