<?xml version="1.0" encoding="utf-8"?>
<!-- Generator: Adobe Illustrator 25.4.1, SVG Export Plug-In . SVG Version: 6.00 Build 0)  -->
<svg version="1.1" id="Layer_2" xmlns="http://www.w3.org/2000/svg" xmlns:xlink="http://www.w3.org/1999/xlink" x="0px" y="0px"
	 viewBox="0 0 304.9 80" style="enable-background:new 0 0 304.9 80;" xml:space="preserve">
<style type="text/css">
	.st0{fill:#3DAF29;}
</style>
<path class="st0" d="M49.39,0c3.94,0,7.5,0.26,10.67,0.78c3.14,0.5,5.83,1.45,8.01,2.79c2.2,1.36,3.89,3.23,5.08,5.62
	c1.17,2.4,1.75,5.46,1.75,9.19c0,2.2-0.31,4.35-0.98,6.45c-0.65,2.09-1.65,3.96-2.92,5.62c-1.29,1.65-2.83,3.01-4.62,4.12
	c-1.8,1.1-3.88,1.8-6.22,2.09v0.21c3.73,1.02,6.6,2.99,8.62,5.88c2.03,2.89,3.03,6.25,3.03,10.06c0,4.26-0.84,8-2.48,11.23
	c-1.64,3.22-3.88,5.9-6.65,8.02c-2.78,2.14-5.97,3.76-9.55,4.84c-3.6,1.1-7.39,1.65-11.35,1.65H0L16.39,0L49.39,0z M41.03,65.12
	c3.98,0,7.22-1.06,9.76-3.17c2.5-2.13,3.77-5.28,3.77-9.46c0-2.06-0.41-3.67-1.26-4.85c-0.83-1.16-1.9-2.06-3.23-2.7
	c-1.32-0.62-2.78-1-4.38-1.15c-1.63-0.14-3.2-0.22-4.75-0.22H23.99l-4.63,21.54L41.03,65.12z M46.01,31.81
	c3.15,0,5.87-0.86,8.19-2.59c2.31-1.72,3.45-4.31,3.45-7.75c0-3.08-0.81-5.19-2.47-6.33c-1.65-1.11-3.87-1.7-6.65-1.7H30.27
	l-3.84,18.37L46.01,31.81z M101.3,21.71L89.21,78.56H73.6l11.97-56.85L101.3,21.71z M123.85,21.71l-1.76,7.97h0.21
	c5.07-6.31,11.7-9.47,19.92-9.47c11.07,0,16.61,5.09,16.61,15.28c0,0.59-0.08,1.34-0.23,2.25c-0.15,0.93-0.31,1.85-0.49,2.81
	c-0.18,0.95-0.37,1.86-0.56,2.7c-0.17,0.83-0.33,1.52-0.38,2.01l-7.03,33.31h-15.61l6.91-33.3c0.12-0.86,0.34-2.03,0.61-3.5
	c0.26-1.46,0.38-2.61,0.38-3.41c0-1.68-0.8-3.08-2.36-4.18c-1.59-1.1-3.28-1.65-5.13-1.65c-2.34,0-4.41,0.45-6.21,1.37
	c-1.8,0.91-3.35,2.11-4.62,3.57c-1.29,1.48-2.34,3.15-3.18,5.06c-0.87,1.9-1.5,3.84-1.92,5.82l-6.39,30.22H97.14l11.76-56.85
	L123.85,21.71z M200.6,21.71l-2.43,10.42h-11.11l-5.82,28.29L180.91,62l-0.13,1.05c0,1.04,0.18,1.83,0.51,2.39l1.25,1.25l1.71,0.49
	l1.83,0.06c1.89,0,3.76-0.11,5.6-0.33l-2.66,11.97c-1.61,0.16-3.21,0.28-4.83,0.4c-1.62,0.1-3.26,0.17-4.94,0.17
	c-1.85,0-3.65-0.17-5.46-0.5c-1.81-0.32-3.41-0.91-4.84-1.75c-1.41-0.85-2.57-2-3.41-3.46c-0.85-1.47-1.24-3.38-1.15-5.73
	c0-0.73,0.07-1.56,0.22-2.47c0.15-0.91,0.32-1.89,0.56-2.91l6.36-30.49h-10.22l2.41-10.42h10.02l3.51-17.24h15.62l-3.52,17.24
	L200.6,21.71z M213.15,54.91v2.3c0,3.3,1.04,5.97,3.07,8.02c2.07,2.06,5.22,3.08,9.47,3.08c1.56,0,2.92-0.22,4.13-0.71
	c1.21-0.47,2.28-1.09,3.19-1.81c0.93-0.72,1.72-1.58,2.43-2.52c0.69-0.95,1.32-1.87,1.92-2.75h15.61c-1.24,3.23-2.72,6.06-4.4,8.48
	c-1.68,2.42-3.7,4.46-6.06,6.11c-2.34,1.65-5.08,2.88-8.19,3.69C231.19,79.6,227.6,80,223.48,80c-3.82,0-7.28-0.51-10.38-1.53
	c-3.14-1.04-5.78-2.61-7.96-4.68c-2.21-2.1-3.91-4.69-5.12-7.76c-1.22-3.07-1.82-6.66-1.82-10.77c0-4.54,0.73-8.91,2.2-13.14
	c1.47-4.2,3.52-7.92,6.2-11.2c2.69-3.26,5.95-5.87,9.84-7.81c3.88-1.94,8.27-2.92,13.08-2.92c3.99,0,7.58,0.52,10.85,1.55
	c3.26,1.03,6.04,2.59,8.37,4.68c2.32,2.08,4.09,4.68,5.39,7.8c1.28,3.11,1.91,6.71,1.91,10.8c0,2.78-0.3,5.73-0.88,8.89h-41.91
	L213.15,54.91z M240.58,39.72c-0.25-1.44-0.74-2.73-1.47-3.89c-0.76-1.17-1.8-2.13-3.2-2.81c-1.4-0.71-3.22-1.06-5.5-1.06
	c-2.2,0-4.15,0.34-5.82,0.99c-1.68,0.66-3.16,1.55-4.41,2.64c-1.25,1.11-2.29,2.37-3.14,3.85c-0.85,1.45-1.57,3-2.15,4.6h26.06
	C240.96,42.59,240.84,41.15,240.58,39.72 M282.47,21.71l-2.31,10.21l0.22,0.22c1.77-3.97,4.43-6.97,7.98-8.98
	c3.54-2.01,7.42-3.04,11.59-3.04c1.61,0,3.23,0.12,4.85,0.35l-3.2,15.19c-1.09-0.22-2.2-0.44-3.28-0.66c-1.1-0.21-2.2-0.33-3.3-0.33
	c-3,0-5.55,0.51-7.64,1.55c-2.11,1.03-3.87,2.42-5.29,4.18c-1.43,1.75-2.56,3.76-3.4,5.99c-0.84,2.24-1.53,4.56-2.02,6.99
	l-5.29,25.19h-15.53l11.79-56.85H282.47z M87.33,12.88L90.19,0h15.72l-2.85,12.88H87.33z"/>
</svg>
