<?xml version="1.0" encoding="utf-8"?>
<!-- Generator: Adobe Illustrator 25.4.1, SVG Export Plug-In . SVG Version: 6.00 Build 0)  -->
<svg version="1.1" id="Layer_2" xmlns="http://www.w3.org/2000/svg" xmlns:xlink="http://www.w3.org/1999/xlink" x="0px" y="0px"
	 viewBox="0 0 239.27 80" style="enable-background:new 0 0 239.27 80;" xml:space="preserve">
<style type="text/css">
	.st0{fill:#3DAF29;}
</style>
<g>
	<g>
		<path class="st0" d="M1.75,79.77l2.71-12.95h2.66L4.87,77.61h6.59l-0.45,2.17H1.75z"/>
		<path class="st0" d="M14.67,70.39h2.54l-1.96,9.38h-2.54L14.67,70.39z M16.76,66.55h2.7L16.6,69.2h-1.69L16.76,66.55z"/>
		<path class="st0" d="M19.74,70.39h2.4l-0.25,1.22c0.6-0.52,1.16-0.89,1.68-1.11c0.52-0.22,1.07-0.33,1.65-0.33
			c0.77,0,1.38,0.22,1.82,0.66c0.45,0.44,0.67,1.03,0.67,1.76c0,0.33-0.1,0.95-0.29,1.87l-1.1,5.31h-2.54l1.11-5.33
			c0.17-0.8,0.25-1.27,0.25-1.42c0-0.32-0.1-0.58-0.29-0.76c-0.19-0.19-0.46-0.28-0.8-0.28c-0.37,0-0.78,0.16-1.24,0.47
			c-0.45,0.31-0.81,0.72-1.07,1.24c-0.19,0.37-0.4,1.11-0.64,2.24l-0.8,3.85h-2.54L19.74,70.39z"/>
		<path class="st0" d="M37.93,75.86h-6.36c-0.01,0.1-0.01,0.18-0.01,0.23c0,0.62,0.18,1.13,0.53,1.51c0.36,0.38,0.79,0.57,1.3,0.57
			c0.84,0,1.5-0.44,1.97-1.31l2.27,0.38c-0.44,0.91-1.03,1.6-1.77,2.05c-0.74,0.46-1.57,0.68-2.49,0.68c-1.26,0-2.29-0.4-3.08-1.2
			c-0.79-0.8-1.18-1.85-1.18-3.17c0-1.28,0.36-2.43,1.07-3.43c0.97-1.36,2.36-2.03,4.16-2.03c1.15,0,2.06,0.36,2.74,1.06
			s1.02,1.7,1.02,2.98C38.11,74.83,38.05,75.38,37.93,75.86z M35.79,74.32c0.01-0.11,0.01-0.2,0.01-0.26c0-0.69-0.16-1.22-0.47-1.56
			c-0.31-0.35-0.73-0.52-1.25-0.52s-0.99,0.2-1.41,0.59c-0.42,0.39-0.7,0.98-0.84,1.75H35.79z"/>
		<path class="st0" d="M42.44,73.05l-2.47-0.21c0.28-0.84,0.78-1.49,1.48-1.96c0.7-0.47,1.64-0.71,2.8-0.71
			c1.21,0,2.1,0.24,2.68,0.73s0.87,1.08,0.87,1.78c0,0.28-0.03,0.58-0.08,0.9c-0.05,0.32-0.23,1.15-0.53,2.51
			c-0.25,1.12-0.37,1.9-0.37,2.35c0,0.4,0.07,0.85,0.21,1.33h-2.47c-0.1-0.34-0.16-0.69-0.19-1.06c-0.37,0.41-0.8,0.73-1.28,0.95
			c-0.48,0.22-0.97,0.33-1.46,0.33c-0.78,0-1.42-0.26-1.93-0.76c-0.51-0.51-0.76-1.16-0.76-1.97c0-0.9,0.28-1.61,0.83-2.15
			c0.56-0.54,1.55-0.86,2.98-0.97c1.21-0.1,2.01-0.22,2.42-0.36c0.11-0.35,0.16-0.64,0.16-0.85c0-0.27-0.11-0.5-0.33-0.68
			c-0.22-0.18-0.54-0.27-0.97-0.27c-0.45,0-0.81,0.09-1.07,0.28C42.71,72.44,42.53,72.7,42.44,73.05z M44.85,75.4
			c-0.15,0.04-0.36,0.08-0.61,0.11c-1.27,0.15-2.1,0.38-2.49,0.67c-0.28,0.21-0.42,0.5-0.42,0.86c0,0.29,0.11,0.54,0.32,0.75
			c0.21,0.2,0.49,0.3,0.84,0.3c0.38,0,0.74-0.09,1.08-0.28c0.34-0.19,0.59-0.42,0.76-0.72c0.17-0.29,0.32-0.75,0.45-1.37L44.85,75.4
			z"/>
		<path class="st0" d="M48.6,77.15l2.46-0.39c0.22,0.52,0.49,0.89,0.81,1.1c0.32,0.22,0.77,0.32,1.33,0.32
			c0.58,0,1.04-0.13,1.39-0.39c0.24-0.18,0.36-0.39,0.36-0.65c0-0.17-0.06-0.32-0.19-0.46c-0.13-0.13-0.48-0.29-1.05-0.48
			c-1.53-0.51-2.48-0.91-2.85-1.2C50.29,74.55,50,73.95,50,73.2c0-0.74,0.28-1.38,0.83-1.92c0.77-0.75,1.92-1.12,3.44-1.12
			c1.21,0,2.12,0.22,2.74,0.66c0.62,0.44,1.01,1.04,1.18,1.79l-2.34,0.41c-0.12-0.34-0.32-0.6-0.6-0.77
			c-0.38-0.23-0.83-0.34-1.36-0.34s-0.91,0.09-1.14,0.26c-0.23,0.18-0.35,0.38-0.35,0.61c0,0.24,0.12,0.43,0.35,0.58
			c0.15,0.09,0.62,0.26,1.42,0.49c1.24,0.36,2.06,0.71,2.48,1.06c0.59,0.49,0.88,1.08,0.88,1.77c0,0.89-0.37,1.66-1.12,2.32
			c-0.75,0.65-1.8,0.98-3.16,0.98c-1.36,0-2.4-0.25-3.14-0.75C49.36,78.75,48.86,78.05,48.6,77.15z"/>
		<path class="st0" d="M67.6,73.05l-2.47-0.21c0.28-0.84,0.78-1.49,1.48-1.96c0.7-0.47,1.64-0.71,2.8-0.71
			c1.21,0,2.1,0.24,2.68,0.73c0.58,0.49,0.87,1.08,0.87,1.78c0,0.28-0.03,0.58-0.08,0.9c-0.05,0.32-0.23,1.15-0.53,2.51
			c-0.25,1.12-0.37,1.9-0.37,2.35c0,0.4,0.07,0.85,0.21,1.33h-2.47c-0.1-0.34-0.16-0.69-0.19-1.06c-0.37,0.41-0.8,0.73-1.28,0.95
			c-0.48,0.22-0.97,0.33-1.46,0.33c-0.78,0-1.42-0.26-1.93-0.76c-0.51-0.51-0.76-1.16-0.76-1.97c0-0.9,0.28-1.61,0.83-2.15
			c0.56-0.54,1.55-0.86,2.98-0.97c1.21-0.1,2.01-0.22,2.42-0.36c0.11-0.35,0.16-0.64,0.16-0.85c0-0.27-0.11-0.5-0.33-0.68
			c-0.22-0.18-0.54-0.27-0.97-0.27c-0.45,0-0.81,0.09-1.07,0.28C67.87,72.44,67.69,72.7,67.6,73.05z M70.01,75.4
			c-0.15,0.04-0.36,0.08-0.61,0.11c-1.27,0.15-2.1,0.38-2.49,0.67c-0.28,0.21-0.42,0.5-0.42,0.86c0,0.29,0.11,0.54,0.32,0.75
			c0.21,0.2,0.49,0.3,0.84,0.3c0.38,0,0.74-0.09,1.08-0.28c0.34-0.19,0.59-0.42,0.76-0.72c0.17-0.29,0.32-0.75,0.45-1.37L70.01,75.4
			z"/>
		<path class="st0" d="M83.22,75.86h-6.36c-0.01,0.1-0.01,0.18-0.01,0.23c0,0.62,0.18,1.13,0.53,1.51c0.36,0.38,0.79,0.57,1.3,0.57
			c0.84,0,1.5-0.44,1.97-1.31l2.27,0.38c-0.44,0.91-1.03,1.6-1.77,2.05c-0.74,0.46-1.57,0.68-2.49,0.68c-1.26,0-2.29-0.4-3.08-1.2
			c-0.79-0.8-1.18-1.85-1.18-3.17c0-1.28,0.36-2.43,1.07-3.43c0.97-1.36,2.36-2.03,4.16-2.03c1.15,0,2.06,0.36,2.74,1.06
			c0.68,0.71,1.02,1.7,1.02,2.98C83.39,74.83,83.34,75.38,83.22,75.86z M81.08,74.32c0.01-0.11,0.01-0.2,0.01-0.26
			c0-0.69-0.16-1.22-0.47-1.56c-0.31-0.35-0.73-0.52-1.25-0.52s-0.99,0.2-1.41,0.59c-0.42,0.39-0.7,0.98-0.84,1.75H81.08z
			 M80.82,66.55h2.7l-2.86,2.65h-1.69L80.82,66.55z"/>
		<path class="st0" d="M85.97,70.39h2.37l-0.38,1.82c0.88-1.36,1.84-2.04,2.87-2.04c0.37,0,0.76,0.09,1.18,0.27l-0.97,2.08
			c-0.23-0.08-0.47-0.12-0.73-0.12c-0.44,0-0.88,0.17-1.33,0.49c-0.45,0.33-0.8,0.77-1.06,1.32s-0.5,1.42-0.75,2.62l-0.62,2.94H84
			L85.97,70.39z"/>
		<path class="st0" d="M100.32,75.86h-6.36c-0.01,0.1-0.01,0.18-0.01,0.23c0,0.62,0.18,1.13,0.53,1.51c0.36,0.38,0.79,0.57,1.3,0.57
			c0.84,0,1.5-0.44,1.97-1.31l2.27,0.38c-0.44,0.91-1.03,1.6-1.77,2.05c-0.74,0.46-1.57,0.68-2.49,0.68c-1.26,0-2.29-0.4-3.08-1.2
			c-0.79-0.8-1.18-1.85-1.18-3.17c0-1.28,0.36-2.43,1.07-3.43c0.97-1.36,2.36-2.03,4.16-2.03c1.15,0,2.06,0.36,2.74,1.06
			s1.02,1.7,1.02,2.98C100.5,74.83,100.44,75.38,100.32,75.86z M98.19,74.32c0.01-0.11,0.01-0.2,0.01-0.26
			c0-0.69-0.16-1.22-0.47-1.56c-0.31-0.35-0.73-0.52-1.25-0.52s-0.99,0.2-1.41,0.59c-0.42,0.39-0.7,0.98-0.84,1.75H98.19z"/>
		<path class="st0" d="M104.83,73.05l-2.47-0.21c0.28-0.84,0.78-1.49,1.48-1.96c0.7-0.47,1.64-0.71,2.8-0.71
			c1.21,0,2.1,0.24,2.68,0.73c0.58,0.49,0.87,1.08,0.87,1.78c0,0.28-0.03,0.58-0.08,0.9c-0.05,0.32-0.23,1.15-0.53,2.51
			c-0.25,1.12-0.37,1.9-0.37,2.35c0,0.4,0.07,0.85,0.21,1.33h-2.47c-0.1-0.34-0.16-0.69-0.19-1.06c-0.37,0.41-0.8,0.73-1.28,0.95
			c-0.48,0.22-0.97,0.33-1.46,0.33c-0.78,0-1.42-0.26-1.93-0.76c-0.51-0.51-0.76-1.16-0.76-1.97c0-0.9,0.28-1.61,0.83-2.15
			c0.56-0.54,1.55-0.86,2.98-0.97c1.21-0.1,2.01-0.22,2.42-0.36c0.11-0.35,0.16-0.64,0.16-0.85c0-0.27-0.11-0.5-0.33-0.68
			c-0.22-0.18-0.54-0.27-0.97-0.27c-0.45,0-0.81,0.09-1.07,0.28C105.1,72.44,104.93,72.7,104.83,73.05z M107.24,75.4
			c-0.15,0.04-0.36,0.08-0.61,0.11c-1.27,0.15-2.1,0.38-2.49,0.67c-0.28,0.21-0.42,0.5-0.42,0.86c0,0.29,0.11,0.54,0.32,0.75
			c0.21,0.2,0.49,0.3,0.84,0.3c0.38,0,0.74-0.09,1.08-0.28c0.34-0.19,0.59-0.42,0.76-0.72c0.17-0.29,0.32-0.75,0.45-1.37
			L107.24,75.4z"/>
		<path class="st0" d="M110.99,77.15l2.46-0.39c0.22,0.52,0.49,0.89,0.81,1.1c0.32,0.22,0.77,0.32,1.33,0.32
			c0.58,0,1.04-0.13,1.39-0.39c0.24-0.18,0.36-0.39,0.36-0.65c0-0.17-0.06-0.32-0.19-0.46c-0.13-0.13-0.48-0.29-1.05-0.48
			c-1.53-0.51-2.48-0.91-2.85-1.2c-0.57-0.46-0.86-1.06-0.86-1.8c0-0.74,0.28-1.38,0.83-1.92c0.77-0.75,1.92-1.12,3.44-1.12
			c1.21,0,2.12,0.22,2.74,0.66c0.62,0.44,1.01,1.04,1.18,1.79l-2.34,0.41c-0.12-0.34-0.32-0.6-0.6-0.77
			c-0.38-0.23-0.83-0.34-1.36-0.34s-0.91,0.09-1.14,0.26c-0.23,0.18-0.35,0.38-0.35,0.61c0,0.24,0.12,0.43,0.35,0.58
			c0.15,0.09,0.62,0.26,1.42,0.49c1.24,0.36,2.06,0.71,2.48,1.06c0.59,0.49,0.88,1.08,0.88,1.77c0,0.89-0.37,1.66-1.12,2.32
			c-0.75,0.65-1.8,0.98-3.16,0.98c-1.36,0-2.4-0.25-3.14-0.75C111.76,78.75,111.25,78.05,110.99,77.15z"/>
		<path class="st0" d="M135.08,79.77h-2.4l0.21-1.02c-0.46,0.44-0.91,0.76-1.36,0.95c-0.45,0.19-0.95,0.29-1.51,0.29
			c-0.97,0-1.76-0.33-2.36-0.99c-0.6-0.66-0.91-1.64-0.91-2.94c0-1.5,0.42-2.86,1.27-4.07c0.85-1.21,1.97-1.82,3.37-1.82
			c1.26,0,2.21,0.5,2.84,1.5l1.02-4.85h2.54L135.08,79.77z M129.22,75.95c0,0.67,0.17,1.2,0.51,1.57c0.34,0.38,0.76,0.57,1.25,0.57
			c0.46,0,0.89-0.16,1.29-0.47c0.4-0.31,0.72-0.8,0.95-1.44s0.36-1.27,0.36-1.86c0-0.68-0.18-1.23-0.55-1.64
			c-0.37-0.42-0.79-0.63-1.26-0.63c-0.74,0-1.35,0.41-1.83,1.24C129.46,74.1,129.22,74.99,129.22,75.95z"/>
		<path class="st0" d="M146.6,75.86h-6.36c-0.01,0.1-0.01,0.18-0.01,0.23c0,0.62,0.18,1.13,0.53,1.51c0.36,0.38,0.79,0.57,1.3,0.57
			c0.84,0,1.5-0.44,1.97-1.31l2.27,0.38c-0.44,0.91-1.03,1.6-1.77,2.05c-0.74,0.46-1.57,0.68-2.49,0.68c-1.26,0-2.29-0.4-3.08-1.2
			c-0.79-0.8-1.18-1.85-1.18-3.17c0-1.28,0.36-2.43,1.07-3.43c0.97-1.36,2.36-2.03,4.16-2.03c1.15,0,2.06,0.36,2.74,1.06
			s1.02,1.7,1.02,2.98C146.78,74.83,146.72,75.38,146.6,75.86z M144.46,74.32c0.01-0.11,0.01-0.2,0.01-0.26
			c0-0.69-0.16-1.22-0.47-1.56c-0.31-0.35-0.73-0.52-1.25-0.52c-0.52,0-0.99,0.2-1.41,0.59s-0.7,0.98-0.84,1.75H144.46z"/>
		<path class="st0" d="M161.96,75.1l2.69,0.41c-0.52,1.46-1.31,2.57-2.36,3.34c-1.05,0.77-2.28,1.15-3.68,1.15
			c-1.58,0-2.82-0.48-3.72-1.43c-0.89-0.95-1.34-2.34-1.34-4.15c0-1.47,0.3-2.82,0.9-4.04c0.6-1.22,1.43-2.16,2.49-2.81
			c1.06-0.65,2.22-0.97,3.46-0.97c1.4,0,2.54,0.38,3.4,1.13c0.87,0.75,1.38,1.77,1.53,3.07l-2.55,0.25
			c-0.14-0.75-0.41-1.3-0.82-1.64c-0.4-0.34-0.94-0.51-1.61-0.51c-0.74,0-1.42,0.22-2.06,0.67c-0.64,0.45-1.15,1.15-1.53,2.1
			c-0.38,0.95-0.57,1.9-0.57,2.85c0,1.04,0.25,1.84,0.75,2.4c0.5,0.57,1.12,0.85,1.86,0.85c0.69,0,1.32-0.22,1.89-0.67
			C161.25,76.65,161.67,75.98,161.96,75.1z"/>
		<path class="st0" d="M169.2,73.05l-2.47-0.21c0.28-0.84,0.78-1.49,1.48-1.96c0.7-0.47,1.64-0.71,2.8-0.71
			c1.21,0,2.1,0.24,2.68,0.73s0.87,1.08,0.87,1.78c0,0.28-0.03,0.58-0.08,0.9c-0.05,0.32-0.23,1.15-0.53,2.51
			c-0.25,1.12-0.37,1.9-0.37,2.35c0,0.4,0.07,0.85,0.21,1.33h-2.47c-0.1-0.34-0.16-0.69-0.19-1.06c-0.37,0.41-0.8,0.73-1.28,0.95
			c-0.48,0.22-0.97,0.33-1.46,0.33c-0.78,0-1.42-0.26-1.93-0.76c-0.51-0.51-0.76-1.16-0.76-1.97c0-0.9,0.28-1.61,0.83-2.15
			c0.56-0.54,1.55-0.86,2.98-0.97c1.21-0.1,2.01-0.22,2.42-0.36c0.11-0.35,0.16-0.64,0.16-0.85c0-0.27-0.11-0.5-0.33-0.68
			c-0.22-0.18-0.54-0.27-0.97-0.27c-0.45,0-0.81,0.09-1.07,0.28C169.48,72.44,169.3,72.7,169.2,73.05z M171.62,75.4
			c-0.15,0.04-0.36,0.08-0.61,0.11c-1.27,0.15-2.1,0.38-2.49,0.67c-0.28,0.21-0.42,0.5-0.42,0.86c0,0.29,0.11,0.54,0.32,0.75
			c0.21,0.2,0.49,0.3,0.84,0.3c0.38,0,0.74-0.09,1.08-0.28c0.34-0.19,0.59-0.42,0.76-0.72c0.17-0.29,0.32-0.75,0.45-1.37
			L171.62,75.4z"/>
		<path class="st0" d="M177.69,70.39h2.4l-0.25,1.22c0.6-0.52,1.16-0.89,1.68-1.11c0.52-0.22,1.07-0.33,1.65-0.33
			c0.77,0,1.38,0.22,1.82,0.66c0.45,0.44,0.67,1.03,0.67,1.76c0,0.33-0.1,0.95-0.29,1.87l-1.1,5.31h-2.54l1.11-5.33
			c0.17-0.8,0.25-1.27,0.25-1.42c0-0.32-0.1-0.58-0.29-0.76c-0.19-0.19-0.46-0.28-0.8-0.28c-0.37,0-0.78,0.16-1.24,0.47
			c-0.45,0.31-0.81,0.72-1.07,1.24c-0.19,0.37-0.4,1.11-0.64,2.24l-0.8,3.85h-2.54L177.69,70.39z"/>
		<path class="st0" d="M190.32,73.05l-2.47-0.21c0.28-0.84,0.78-1.49,1.48-1.96c0.7-0.47,1.64-0.71,2.8-0.71
			c1.21,0,2.1,0.24,2.68,0.73s0.87,1.08,0.87,1.78c0,0.28-0.03,0.58-0.08,0.9c-0.05,0.32-0.23,1.15-0.53,2.51
			c-0.25,1.12-0.37,1.9-0.37,2.35c0,0.4,0.07,0.85,0.21,1.33h-2.47c-0.1-0.34-0.16-0.69-0.19-1.06c-0.37,0.41-0.8,0.73-1.28,0.95
			c-0.48,0.22-0.97,0.33-1.46,0.33c-0.78,0-1.42-0.26-1.93-0.76c-0.51-0.51-0.76-1.16-0.76-1.97c0-0.9,0.28-1.61,0.83-2.15
			c0.56-0.54,1.55-0.86,2.98-0.97c1.21-0.1,2.01-0.22,2.42-0.36c0.11-0.35,0.16-0.64,0.16-0.85c0-0.27-0.11-0.5-0.33-0.68
			c-0.22-0.18-0.54-0.27-0.97-0.27c-0.45,0-0.81,0.09-1.07,0.28C190.59,72.44,190.42,72.7,190.32,73.05z M192.73,75.4
			c-0.15,0.04-0.36,0.08-0.61,0.11c-1.27,0.15-2.1,0.38-2.49,0.67c-0.28,0.21-0.42,0.5-0.42,0.86c0,0.29,0.11,0.54,0.32,0.75
			c0.21,0.2,0.49,0.3,0.84,0.3c0.38,0,0.74-0.09,1.08-0.28c0.34-0.19,0.59-0.42,0.76-0.72c0.17-0.29,0.32-0.75,0.45-1.37
			L192.73,75.4z"/>
		<path class="st0" d="M198.63,70.39H201l-0.38,1.82c0.88-1.36,1.84-2.04,2.87-2.04c0.37,0,0.76,0.09,1.18,0.27l-0.97,2.08
			c-0.23-0.08-0.47-0.12-0.73-0.12c-0.44,0-0.88,0.17-1.33,0.49c-0.45,0.33-0.8,0.77-1.06,1.32s-0.5,1.42-0.75,2.62l-0.62,2.94
			h-2.54L198.63,70.39z"/>
		<path class="st0" d="M205.81,70.39h2.54l-1.96,9.38h-2.54L205.81,70.39z M206.55,66.82h2.54l-0.48,2.3h-2.54L206.55,66.82z"/>
		<path class="st0" d="M212.46,73.05l-2.47-0.21c0.28-0.84,0.78-1.49,1.48-1.96c0.7-0.47,1.64-0.71,2.8-0.71
			c1.21,0,2.1,0.24,2.68,0.73c0.58,0.49,0.87,1.08,0.87,1.78c0,0.28-0.03,0.58-0.08,0.9c-0.05,0.32-0.23,1.15-0.53,2.51
			c-0.25,1.12-0.37,1.9-0.37,2.35c0,0.4,0.07,0.85,0.21,1.33h-2.47c-0.1-0.34-0.16-0.69-0.19-1.06c-0.37,0.41-0.8,0.73-1.28,0.95
			c-0.48,0.22-0.97,0.33-1.46,0.33c-0.78,0-1.42-0.26-1.93-0.76c-0.51-0.51-0.76-1.16-0.76-1.97c0-0.9,0.28-1.61,0.83-2.15
			c0.56-0.54,1.55-0.86,2.98-0.97c1.21-0.1,2.01-0.22,2.42-0.36c0.11-0.35,0.16-0.64,0.16-0.85c0-0.27-0.11-0.5-0.33-0.68
			c-0.22-0.18-0.54-0.27-0.97-0.27c-0.45,0-0.81,0.09-1.07,0.28C212.73,72.44,212.55,72.7,212.46,73.05z M214.87,75.4
			c-0.15,0.04-0.36,0.08-0.61,0.11c-1.27,0.15-2.1,0.38-2.49,0.67c-0.28,0.21-0.42,0.5-0.42,0.86c0,0.29,0.11,0.54,0.32,0.75
			c0.21,0.2,0.49,0.3,0.84,0.3c0.38,0,0.74-0.09,1.08-0.28c0.34-0.19,0.59-0.42,0.76-0.72c0.17-0.29,0.32-0.75,0.45-1.37
			L214.87,75.4z"/>
		<path class="st0" d="M218.62,77.15l2.46-0.39c0.22,0.52,0.49,0.89,0.81,1.1c0.32,0.22,0.77,0.32,1.33,0.32
			c0.58,0,1.04-0.13,1.39-0.39c0.24-0.18,0.36-0.39,0.36-0.65c0-0.17-0.06-0.32-0.19-0.46c-0.13-0.13-0.48-0.29-1.05-0.48
			c-1.53-0.51-2.48-0.91-2.85-1.2c-0.57-0.46-0.86-1.06-0.86-1.8c0-0.74,0.28-1.38,0.83-1.92c0.77-0.75,1.92-1.12,3.44-1.12
			c1.21,0,2.12,0.22,2.74,0.66c0.62,0.44,1.01,1.04,1.18,1.79l-2.34,0.41c-0.12-0.34-0.32-0.6-0.6-0.77
			c-0.38-0.23-0.83-0.34-1.36-0.34c-0.53,0-0.91,0.09-1.14,0.26c-0.23,0.18-0.35,0.38-0.35,0.61c0,0.24,0.12,0.43,0.35,0.58
			c0.15,0.09,0.62,0.26,1.42,0.49c1.24,0.36,2.06,0.71,2.48,1.06c0.59,0.49,0.88,1.08,0.88,1.77c0,0.89-0.37,1.66-1.12,2.32
			c-0.75,0.65-1.8,0.98-3.16,0.98c-1.36,0-2.4-0.25-3.14-0.75C219.38,78.75,218.88,78.05,218.62,77.15z"/>
	</g>
	<path class="st0" d="M38.77,0c3.09,0,5.89,0.2,8.38,0.61C49.62,1,51.73,1.75,53.44,2.8c1.73,1.06,3.05,2.54,3.99,4.41
		c0.92,1.88,1.37,4.29,1.37,7.22c0,1.73-0.25,3.41-0.77,5.06c-0.51,1.64-1.29,3.1-2.29,4.41c-1.01,1.29-2.22,2.36-3.63,3.24
		c-1.41,0.86-3.04,1.41-4.88,1.64v0.17c2.93,0.8,5.18,2.35,6.77,4.62c1.59,2.27,2.38,4.91,2.38,7.9c0,3.35-0.66,6.28-1.95,8.82
		c-1.29,2.53-3.04,4.63-5.22,6.29c-2.18,1.68-4.69,2.95-7.5,3.8c-2.83,0.86-5.8,1.29-8.91,1.29H0L12.87,0L38.77,0z M32.21,51.12
		c3.12,0,5.67-0.83,7.66-2.49c1.96-1.67,2.96-4.15,2.96-7.43c0-1.62-0.32-2.88-0.99-3.8c-0.65-0.91-1.49-1.62-2.54-2.12
		c-1.04-0.49-2.19-0.79-3.44-0.9c-1.28-0.11-2.52-0.17-3.73-0.17H18.83L15.2,51.12L32.21,51.12z M36.12,24.97
		c2.47,0,4.61-0.68,6.43-2.03c1.81-1.35,2.71-3.38,2.71-6.09c0-2.42-0.64-4.07-1.94-4.97c-1.29-0.87-3.03-1.33-5.22-1.33H23.76
		l-3.02,14.42L36.12,24.97z M79.52,17.04l-9.49,44.63H57.77l9.4-44.63L79.52,17.04z M97.22,17.04l-1.38,6.25h0.17
		c3.98-4.95,9.19-7.43,15.64-7.43c8.69,0,13.04,4,13.04,11.99c0,0.46-0.06,1.05-0.18,1.76c-0.11,0.73-0.25,1.46-0.39,2.2
		c-0.14,0.74-0.29,1.46-0.44,2.12c-0.14,0.65-0.26,1.2-0.3,1.58l-5.52,26.15h-12.25l5.42-26.14c0.1-0.68,0.26-1.59,0.48-2.75
		c0.21-1.15,0.3-2.05,0.3-2.67c0-1.32-0.63-2.41-1.85-3.28c-1.25-0.86-2.58-1.29-4.02-1.29c-1.84,0-3.47,0.35-4.87,1.08
		c-1.41,0.72-2.63,1.65-3.63,2.8c-1.01,1.16-1.84,2.47-2.5,3.97c-0.68,1.5-1.18,3.01-1.5,4.57l-5.01,23.72H76.25l9.23-44.63
		L97.22,17.04z M157.47,17.04l-1.91,8.18h-8.72l-4.57,22.21l-0.25,1.24l-0.1,0.82c0,0.81,0.14,1.44,0.4,1.87l0.98,0.98l1.34,0.39
		l1.44,0.05c1.48,0,2.95-0.09,4.4-0.26l-2.08,9.4c-1.26,0.12-2.52,0.22-3.79,0.31c-1.27,0.08-2.56,0.13-3.88,0.13
		c-1.45,0-2.86-0.13-4.28-0.39c-1.42-0.25-2.67-0.72-3.8-1.37c-1.11-0.67-2.02-1.57-2.67-2.72c-0.67-1.15-0.98-2.65-0.91-4.5
		c0-0.57,0.06-1.22,0.17-1.94c0.11-0.72,0.25-1.48,0.44-2.28l4.99-23.94h-8.02l1.89-8.18h7.86l2.76-13.54h12.27l-2.76,13.54
		L157.47,17.04z M167.32,43.1v1.81c0,2.59,0.81,4.69,2.41,6.3c1.63,1.62,4.09,2.41,7.43,2.41c1.23,0,2.29-0.18,3.24-0.56
		c0.95-0.37,1.79-0.86,2.5-1.42c0.73-0.56,1.35-1.24,1.91-1.98c0.54-0.74,1.04-1.46,1.51-2.16h12.25c-0.97,2.53-2.14,4.75-3.45,6.65
		c-1.32,1.9-2.9,3.5-4.75,4.8c-1.83,1.29-3.99,2.26-6.43,2.9c-2.46,0.64-5.27,0.95-8.51,0.95c-3,0-5.71-0.4-8.15-1.2
		c-2.46-0.82-4.54-2.05-6.25-3.67c-1.74-1.65-3.07-3.68-4.02-6.09c-0.96-2.41-1.43-5.23-1.43-8.45c0-3.56,0.57-7,1.72-10.32
		c1.15-3.3,2.77-6.22,4.87-8.79c2.11-2.56,4.67-4.61,7.72-6.13c3.05-1.52,6.49-2.29,10.27-2.29c3.13,0,5.95,0.41,8.52,1.21
		c2.56,0.81,4.75,2.03,6.57,3.67c1.82,1.63,3.21,3.67,4.23,6.13c1,2.45,1.5,5.26,1.5,8.48c0,2.18-0.23,4.5-0.69,6.98h-32.9
		L167.32,43.1z M188.86,31.18c-0.2-1.13-0.58-2.14-1.16-3.05c-0.59-0.92-1.41-1.67-2.51-2.2c-1.1-0.55-2.53-0.83-4.32-0.83
		c-1.73,0-3.26,0.27-4.57,0.78c-1.32,0.52-2.48,1.21-3.46,2.07c-0.98,0.87-1.8,1.86-2.46,3.02c-0.67,1.14-1.23,2.35-1.69,3.61h20.46
		C189.15,33.43,189.06,32.3,188.86,31.18 M221.74,17.04l-1.82,8.02l0.17,0.17c1.39-3.11,3.48-5.47,6.27-7.05
		c2.78-1.58,5.82-2.38,9.1-2.38c1.27,0,2.54,0.09,3.81,0.28l-2.52,11.93c-0.86-0.18-1.72-0.34-2.58-0.52
		c-0.87-0.16-1.72-0.26-2.59-0.26c-2.36,0-4.36,0.4-6,1.22c-1.65,0.81-3.03,1.9-4.15,3.28c-1.12,1.37-2.01,2.95-2.67,4.7
		c-0.66,1.76-1.2,3.58-1.58,5.49l-4.15,19.77h-12.19l9.26-44.63H221.74z M68.56,10.11L70.8,0h12.34L80.9,10.11H68.56z"/>
</g>
</svg>
