<svg width="80" height="80" viewBox="0 0 80 80" fill="none" xmlns="http://www.w3.org/2000/svg">
<path d="M0 0H80V80H0V0Z" fill="white"/>
<path d="M1.14844 1.4248H77.7889V79.772H1.14844V1.4248Z" fill="white"/>
<path d="M34.5141 37.6206C35.1119 33.1483 30.148 33.7479 30.148 33.7479C30.3561 31.4638 34.1222 26.4989 39.2807 27.8895C44.4485 29.2834 44.8434 34.8383 44.8434 34.8383C49.4668 10.4401 69.1674 3.83542 77.7493 2.0928V1.4939H1.46875V78.4658H64.9945C29.2198 72.2755 34.5141 37.6206 34.5141 37.6206Z" fill="#312667"/>
<path d="M61.0255 43.8655C53.9726 40.3016 44.25 41.7805 44.25 41.7805C46.2719 70.229 68.376 77.0223 75.2611 78.4659H77.7544V5.07764C52.1159 16.9915 61.0255 43.8655 61.0255 43.8655Z" fill="#E6001F"/>
</svg>
