<svg width="305" height="80" viewBox="0 0 305 80" fill="none" xmlns="http://www.w3.org/2000/svg">
<path d="M0 0H80V80H0V0Z" fill="white"/>
<path d="M1.14844 1.4248H77.7889V79.772H1.14844V1.4248Z" fill="white"/>
<path d="M34.5141 37.6206C35.1119 33.1483 30.148 33.7479 30.148 33.7479C30.3561 31.4638 34.1222 26.4989 39.2807 27.8895C44.4485 29.2834 44.8434 34.8383 44.8434 34.8383C49.4668 10.4401 69.1674 3.83542 77.7493 2.0928V1.4939H1.46875V78.4658H64.9945C29.2198 72.2755 34.5141 37.6206 34.5141 37.6206Z" fill="#312667"/>
<path d="M61.0255 43.8655C53.9726 40.3016 44.25 41.7805 44.25 41.7805C46.2719 70.229 68.376 77.0223 75.2611 78.4659H77.7544V5.07764C52.1159 16.9915 61.0255 43.8655 61.0255 43.8655Z" fill="#E6001F"/>
<path d="M133.9 8.03847C134.316 8.18167 134.611 8.35918 134.779 8.59299C134.94 8.81115 135.037 9.14118 135.037 9.55772V32.4128C135.037 32.8402 134.94 33.1848 134.779 33.4018C134.611 33.6278 134.317 33.809 133.9 33.9481V34.6112H141.406V33.9481C140.993 33.8258 140.705 33.6453 140.525 33.4055C140.355 33.1837 140.273 32.8391 140.273 32.4121V9.55772C140.273 9.14155 140.355 8.81078 140.514 8.57696C140.674 8.34799 140.98 8.16377 141.405 8.03847V7.38513H133.899V8.03847H133.9ZM297.777 7.2699V7.89266C298.18 8.03847 298.461 8.21001 298.618 8.42406C298.783 8.63513 298.856 8.94614 298.856 9.36045V23.0061C298.856 24.5846 298.783 25.747 298.644 26.4988C298.498 27.2547 298.23 27.8793 297.833 28.3992C296.768 29.7551 295.674 30.4338 293.06 30.4338C290.457 30.4338 289.368 29.7551 288.289 28.3992C287.885 27.8793 287.618 27.2547 287.464 26.4988C287.324 25.747 287.249 24.5846 287.249 23.0061V9.36008C287.249 8.94652 287.331 8.62768 287.489 8.41959C287.653 8.18876 287.935 8.0243 288.315 7.89266V7.2699H281.174V7.89266C281.589 8.03884 281.859 8.21039 282.024 8.42444C282.18 8.63551 282.264 8.94652 282.264 9.36082V24.6887C282.264 26.6028 282.478 28.2567 282.904 29.6372C283.344 31.0368 284.129 32.1451 285.231 32.961C287.19 34.3594 289.226 35.0557 292.897 35.0557C297.932 35.0557 300.491 33.7799 302.107 31.183C303.028 29.7316 303.472 27.5709 303.472 24.6898V9.3597C303.472 8.94614 303.566 8.63439 303.707 8.42332C303.872 8.21039 304.152 8.03847 304.55 7.89154V7.2699H297.777ZM107.633 23.4197L107.852 22.8957L107.633 23.4197ZM124.917 19.9792L120.169 8.32189C120.222 8.58889 120.303 8.87305 120.441 9.17511L124.917 19.9792Z" fill="#312667"/>
<path d="M129.641 31.3348L124.918 19.9792L120.442 9.17513C120.317 8.90255 120.226 8.61595 120.17 8.32153L119.17 5.87559L117.741 2.36125C117.042 1.54308 116.389 2.36125 116.389 2.36125L114.933 5.87559L107.852 22.8954L107.633 23.4197L104.303 31.7233C103.976 32.5303 103.704 33.077 103.449 33.3593C103.208 33.639 102.846 33.8396 102.359 33.9485V34.6112H110.349V33.9481C109.561 33.7102 109.17 33.2814 109.17 32.6586C109.17 32.3271 109.28 31.8781 109.496 31.3161L111.13 27.2349H122.082L123.754 31.3157C123.987 31.9031 124.118 32.3271 124.118 32.634C124.118 33.3504 123.715 33.7904 122.917 33.9481V34.6112H131.86V33.9481C131.359 33.84 130.976 33.6058 130.678 33.2635C130.382 32.926 130.031 32.2857 129.641 31.3348V31.3348ZM112.728 23.3197L116.651 13.0803L120.561 23.3197H112.728ZM213.488 24.0402L213.278 24.5157H213.292L213.488 24.0402ZM229.076 21.3701L224.735 10.7175C224.79 10.964 224.866 11.2265 224.979 11.498L229.076 21.3701Z" fill="#312667"/>
<path d="M233.404 31.7521L229.078 21.3701L224.981 11.4976C224.877 11.245 224.795 10.9838 224.737 10.7171L223.835 8.48524L222.523 5.28191C221.887 4.53273 221.285 5.28191 221.285 5.28191L219.95 8.48524L213.49 24.0402L213.294 24.5157L210.246 32.1052C209.954 32.8361 209.689 33.3347 209.466 33.6039C209.235 33.8616 208.91 34.0313 208.477 34.1376V34.7447H215.771V34.1376C215.051 33.9194 214.701 33.5182 214.701 32.9487C214.701 32.6597 214.786 32.2491 214.998 31.7282L216.473 28.0076H226.482L228.012 31.7282C228.238 32.26 228.348 32.6694 228.348 32.9338C228.348 33.5961 227.984 33.9869 227.26 34.1387V34.7454H235.405V34.1387C234.973 34.032 234.608 33.8281 234.338 33.5122C234.061 33.1975 233.741 32.6053 233.403 31.7521H233.404ZM217.941 24.4142L221.537 15.0821L225.099 24.4142H217.941ZM260.988 24.0402L260.794 24.5157H260.8L260.988 24.0402ZM276.582 21.3701L272.245 10.7171C272.285 10.9636 272.368 11.2262 272.483 11.4976L276.582 21.3701Z" fill="#312667"/>
<path d="M280.892 31.752L276.583 21.3701L272.483 11.4976C272.369 11.2261 272.285 10.964 272.245 10.7171L271.332 8.48523L270.033 5.2819C269.386 4.53272 268.795 5.2819 268.795 5.2819L267.461 8.48523L260.986 24.0402L260.8 24.5157L257.741 32.1052C257.451 32.8361 257.187 33.3347 256.97 33.6039C256.739 33.8616 256.415 34.0313 255.989 34.1376V34.7447H263.273V34.1376C262.552 33.9194 262.192 33.5182 262.192 32.9487C262.192 32.6597 262.29 32.2491 262.496 31.7282L263.977 28.0076H273.987L275.517 31.7282C275.743 32.26 275.843 32.6694 275.843 32.9338C275.843 33.5961 275.479 33.9869 274.763 34.1387V34.7454H282.923V34.1387C282.467 34.032 282.112 33.8281 281.839 33.5122C281.575 33.1975 281.259 32.6053 280.892 31.752V31.752ZM265.442 24.4142L269.035 15.0821L272.604 24.4142H265.442ZM255.58 27.0988C255.065 27.4837 254.788 27.8506 254.076 28.3391C252.108 29.6641 250.01 30.3331 247.787 30.3331C245.17 30.3331 243.091 29.5436 241.54 27.9875C239.69 26.1535 238.783 23.7728 238.783 20.8052C238.783 17.8528 239.69 15.4699 241.54 13.6396C243.091 12.0857 245.17 11.2895 247.787 11.2895C250.01 11.2895 252.109 11.9526 254.076 13.2921C254.188 13.3506 254.256 13.4107 254.36 13.4778L254.375 13.5486H255.456V7.18675H254.44C254.291 8.39163 252.482 7.59658 252.482 7.59658L252.489 7.60404C252.259 7.5082 252.036 7.41572 251.818 7.34635C250.523 6.90109 248.963 6.6684 247.163 6.6684C242.222 6.6684 238.537 8.50462 236.094 12.1659C234.477 14.6092 233.659 17.49 233.659 20.8026C233.659 23.2343 234.103 25.4487 235.02 27.4691C235.797 29.2293 236.874 30.7034 238.23 31.8844C240.564 33.928 243.516 34.9572 247.133 34.9572C248.958 34.9572 250.523 34.7283 251.843 34.2614C252.781 33.928 253.9 33.3656 255.156 32.6008C255.156 32.6 256.075 26.7244 255.578 27.0973L255.58 27.0988ZM206.775 33.4018C206.618 33.1837 206.535 32.8391 206.535 32.4128L202.658 11.4491L202.07 7.74351L201.774 5.87558L201.195 2.29002C201.195 2.29002 200.924 1.72953 200.332 2.19418L198.648 5.87558L197.944 7.41683L196.171 11.2877L190.889 20.6243L184.747 9.55773L184.045 7.96166L183.116 5.87633L181.477 2.1953C180.882 1.73065 180.562 2.25758 180.562 2.25758L179.962 5.8767L179.649 7.78005L179.311 9.84301C179.311 9.84301 179.326 9.85793 179.351 9.88925L175.18 32.414C175.064 32.9495 174.996 33.2031 174.826 33.4357C174.66 33.6472 174.459 33.8102 174.037 33.9504V34.613H181.882V33.95C181.443 33.8098 181.156 33.6233 180.992 33.4033C180.839 33.1784 180.752 32.841 180.752 32.4151L183.121 16.8459L190.903 31.6611L198.554 16.9683L200.531 32.4147C200.531 32.8421 200.447 33.1866 200.293 33.4085C200.109 33.6423 199.817 33.8288 199.403 33.9511V34.6142H207.664V33.9511C207.234 33.809 206.939 33.6285 206.774 33.4014L206.775 33.4018ZM166.687 33.5174C166.529 33.3414 166.325 33.0774 166.073 32.7298C166.016 32.65 165.949 32.5572 165.888 32.4583C165.862 32.4188 165.838 32.3744 165.8 32.3271L161.32 24.1536L160.277 22.2689C160.957 22.0171 161.603 21.6856 162.181 21.2683C164.101 19.8762 165.35 17.625 165.35 15.0809C165.35 11.1195 162.332 7.85874 158.478 7.4847C158.221 7.45247 157.962 7.43566 157.703 7.43436H153.739C153.48 7.43718 153.221 7.45399 152.964 7.4847H146.004V8.10038C146.396 8.24246 146.683 8.41811 146.845 8.62731C146.999 8.85031 147.083 9.14342 147.083 9.56743V32.703C147.083 33.1057 146.999 33.4055 146.845 33.6215C146.684 33.8396 146.397 34.0104 146.004 34.1484V34.7749H153.143V34.1484C152.732 34.0216 152.464 33.8612 152.304 33.6394C152.144 33.4085 152.065 33.1057 152.065 32.7033V25.0176H152.054V18.6557H152.065V11.9668H157.383C157.516 11.9817 157.667 12.029 157.854 12.0962C159.052 12.8341 159.859 14.1561 159.859 15.6798C159.859 18.0024 157.988 19.8856 155.658 19.8856L153.086 19.9005L154.693 22.7264L159.824 31.6804C161.487 34.6839 163.838 34.7283 163.838 34.7283L168.018 34.7745H169.018C168.51 34.735 167.05 33.8963 166.687 33.5167V33.5174ZM130.339 69.8422H142.986L143.734 68.1462H128.184C128.184 68.1462 129.134 66.967 129.483 66.5232L122.863 65.0935C122.863 65.0935 122.165 67.2788 122.048 68.1462H111.563V69.8422H121.118C120.27 71.4531 119.781 72.4302 118.394 73.6615C117.034 74.8989 115.475 75.8718 114.081 76.6985C112.679 77.5096 110.459 77.9941 110.129 78.2152L110.107 78.7667C111.808 78.6821 115.241 78.7444 119.372 77.0457C121.144 76.3077 124.464 75.0547 127.054 70.7211C127.517 71.643 128.494 73.1413 128.949 73.8312C129.393 74.4965 131.947 76.9816 134.585 77.7938C135.337 78.0325 138.226 79.2739 139.679 78.6205C140.443 78.2812 140.026 76.6997 141.042 75.9822C141.78 75.4851 142.458 75.0242 143.44 74.8358L143.433 74.3138C138.863 73.8569 137.123 73.4684 134.658 72.5585C132.81 71.8727 130.647 70.5183 130.337 69.8422H130.339ZM105.042 46.5123C105.042 46.5123 104.67 45.7952 105.379 45.7952C106.083 45.7952 109.833 46.6529 111.492 47.9749C113.145 49.301 113.228 50.9634 112.344 52.6251C111.442 54.2786 111.065 54.2786 111.065 54.2786C111.065 54.2786 110.584 55.0323 109.69 53.9874C108.79 52.9522 108.222 49.8689 105.042 46.5123V46.5123ZM101.679 55.121C101.679 55.121 101.392 54.3182 102.249 54.4658C103.111 54.6008 106.181 55.0826 108.023 56.4188C109.878 57.7352 110.164 59.4841 108.983 61.3401C108.983 61.3401 107.228 64.5102 106.404 62.454C106.403 62.4529 104.947 58.5321 101.679 55.121H101.679Z" fill="#312667"/>
<path d="M102.267 67.2139C102.267 67.2139 101.383 66.015 102.957 66.2734C102.957 66.2734 104.67 66.5822 105.553 66.967C105.553 66.967 107.065 67.79 108.022 65.8393L114.141 54.335L114.65 55.4813L110.787 68.3021C110.787 68.3021 110.04 70.817 110.729 72.8404C110.729 72.8404 111.524 75.9822 109.088 78.2152C109.088 78.2152 107.951 79.78 107.192 77.5097C107.193 77.5097 105.554 70.886 102.267 67.2135V67.2139ZM133.572 64.1471C133.489 64.1993 133.553 64.1694 133.572 64.1471V64.1471Z" fill="white"/>
<path d="M142.022 49.4479L140.847 49.4442L127.241 49.4628V49.4442L127.432 48.2397C127.764 47.8653 129.169 46.6764 129.169 46.6764L129.321 45.9828L122.01 45.9902C122.106 48.679 122.106 48.679 122.044 49.4643H119.226L113.727 47.9074V67.3537L119.226 66.3994V65.18C120.512 64.9335 122.908 64.1165 124.896 61.6515V64.957L129.333 64.6027V60.8986C130.946 62.5245 132.274 64.1728 132.274 64.1728C133.602 66.8741 134.69 64.4014 134.69 64.4014C134.806 64.2014 134.898 63.9887 134.964 63.7674V67.3537L140.556 66.3994V51.4997C140.908 51.1909 141.782 50.4704 141.92 50.2627C142.046 50.0986 142.021 49.4498 142.021 49.4498L142.022 49.4479ZM119.227 63.7447V59.3182H121.884C121.798 59.9984 121.37 62.1027 119.227 63.7447ZM119.227 58.0327V54.6239C120.637 55.5682 121.445 57.0292 122.084 58.0327H119.227ZM124.896 56.609C123.488 53.8818 120.019 54.3327 119.227 54.4778V53.9508L124.896 53.7099V56.609ZM119.227 53.2714V51.292H127.857C125.531 51.9677 121.831 52.9641 119.227 53.271V53.2714ZM129.334 57.2869V53.516L131.934 53.4123C130.905 55.6006 129.937 56.7432 129.334 57.2869ZM134.965 62.4846C134.316 60.5014 130.618 59.6982 129.67 59.5225V59.3588H134.965V62.4846ZM134.965 58.098H130.968C132.159 57.5219 134.06 56.3129 134.965 55.7102V58.098ZM134.965 55.0479L132.192 53.4004L133.937 53.3333C133.937 53.3333 134.888 53.4742 134.078 52.4756C133.777 52.1042 133.471 51.6798 133.197 51.2927H134.965V55.0479ZM164.288 47.4342L158.342 46.1886V78.5221H164.288V60.7621H169.319V62.7598L174.577 61.6075V47.426L164.288 47.4342ZM169.318 57.9943V58.8535H164.287V55.0483H169.318V57.9943ZM169.318 49.741V53.139H164.287V49.3125H169.318L169.318 49.741ZM195.55 47.4342V47.4267L183.599 47.4342L177.584 46.1886V62.5308L182.847 61.3886V60.7621H188.343V72.739H188.317C188.317 72.739 188.511 73.7928 187.805 73.7928C187.089 73.7928 179.58 73.273 179.58 73.273L179.478 73.7454C179.478 73.7454 183.173 75.9233 184.307 77.1501C184.307 77.1501 184.779 79.1012 187.001 79.1012C187.001 79.1012 189.085 79.1456 191.029 78.3047C192.745 77.557 194.355 76.1075 194.355 73.3002V49.9927C194.795 48.9292 196.312 47.9268 196.312 47.9268L196.364 47.4334H195.551L195.55 47.4342ZM188.344 57.9943V58.8535H182.848V55.0483H188.344V57.9943ZM188.344 49.741V53.139H182.848V49.3125H188.344V49.741ZM249.335 73.5571C249.335 73.5571 247.766 72.3444 247.651 69.0225C247.651 69.0225 247.335 68.6119 246.863 68.9815C246.863 68.9815 246.431 72.344 245.831 73.2983C245.831 73.2983 245.378 73.8499 244.916 73.4158C244.733 73.2114 244.637 72.9086 244.637 72.51V57.7889C244.916 56.6078 246.756 55.5107 246.756 55.5107L246.782 54.8436H239.339L239.317 54.8585L236.427 54.8361L231.417 53.7383V63.522C231.417 64.6527 231.402 65.8613 231.372 67.1143C231.368 67.2075 231.354 67.3086 231.354 67.394C231.247 68.6813 230.494 75.6108 226.921 78.2775C226.921 78.2775 226.356 78.8697 226.951 78.9562C227.543 79.0602 236.614 77.5652 236.365 66.0627C236.407 65.4134 236.427 64.763 236.428 64.1124V56.7406H239.42L239.413 73.741C239.413 73.741 239.03 77.7901 243.007 78.0478H246.916C246.916 78.0478 248.951 78.0739 249.877 75.2781C249.878 75.2792 250.237 74.1061 249.335 73.5545L249.335 73.5571Z" fill="#312667"/>
<path d="M249.401 52.9052L250.261 50.8329H240.603C240.603 50.5764 240.603 50.1535 240.657 49.4438C240.776 47.7381 242.726 47.1124 242.726 47.1124V46.3498H235.316V50.834H221.229V49.7973C221.229 47.866 223.223 47.0859 223.223 47.0859V46.3803H216.064V50.9642L212.172 50.18V60.8792H208.868V62.7065H212.172V66.8801C212.172 66.8801 211.602 73.0992 210.006 75.9822C210.006 75.9822 208.927 78.0157 208.529 78.4065C208.529 78.4065 208.054 79.4178 209.222 78.9599C209.222 78.9599 215.042 77.1681 216.59 70.1726C216.745 69.5759 216.834 69.0449 216.901 68.6257C216.996 67.9765 217.02 67.0856 217.085 66.147L217.136 64.831C218.218 66.091 218.956 69.7683 218.956 69.7683C219.098 71.04 220.133 70.4717 220.133 70.4717C221.397 69.643 221.983 68.8883 222.262 68.3543V72.8527L222.149 73.7701C222.149 73.7701 221.941 74.4294 221.156 74.4294H216.672C216.672 74.4294 216.515 74.6218 216.719 74.7796C216.719 74.7796 219 76.2977 219.369 77.8244C219.369 77.8244 219.869 79.2094 221.043 79.0475C221.043 79.0475 226.766 78.8029 226.891 73.2528L226.921 62.7076H229.693L230.124 60.8803H226.922L226.945 52.9059H249.399L249.401 52.9052ZM222.262 52.9783V56.1671C221.382 54.97 218.577 53.5612 217.354 52.9783H222.262ZM217.135 55.073C218.417 56.7127 218.809 59.4457 218.809 59.4457C218.998 59.8239 219.042 60.8162 219.848 60.2479C220.394 59.8641 221.672 59.0374 222.261 58.0663V60.8803H217.135V55.073ZM217.135 63.1823V62.7069H222.261V66.6553C221.382 64.8567 218.258 63.5847 217.135 63.1823ZM279.252 68.9591H268.685V66.5893H297.499V68.9591H286.348V76.1205H303.398L302.543 78.2249H263.072V76.1205H279.251V68.9591H279.252ZM303.94 50.6733H285.482V48.9467C285.682 47.7034 287.509 47.1124 287.509 47.1124C287.794 46.7316 287.546 46.3498 287.546 46.3498H280.157V50.6744H268.912L263.981 49.2507V59.0165L269.576 57.9817V52.6255H296.506V57.7445L301.886 57.0486V53.3952C301.886 53.3952 302.442 51.8204 303.82 51.5273C303.819 51.5265 304.171 51.2293 303.942 50.6729L303.94 50.6733Z" fill="#312667"/>
<path d="M274.792 53.5851C274.792 53.5851 272.704 62.3597 264.431 64.5636C264.431 64.5636 264.243 65.3244 264.678 65.3922C264.678 65.3922 276.235 66.0821 279.648 57.4358C279.648 57.4358 280.155 55.8505 281.408 56.1679C281.408 56.1679 281.732 55.5455 281.546 55.4161L274.792 53.5851ZM292.261 54.3712L284.581 54.3339V61.4203C284.581 61.4203 284.642 65.3549 288.096 65.4075H297.233C297.233 65.4075 300.212 65.3553 301.313 61.3719C301.313 61.3719 298.508 60.8647 298.135 57.9164L297.056 60.9091C297.056 60.9091 296.953 61.2365 296.472 61.2365H290.561C290.561 61.2365 290.178 61.1477 290.178 60.8144V56.6922C290.178 56.6922 290.884 55.2158 292.261 54.9902C292.261 54.9909 292.585 54.4651 292.261 54.3704V54.3712Z" fill="#312667"/>
</svg>
