<?xml version="1.0" encoding="utf-8"?>
<!-- Generator: Adobe Illustrator 25.4.1, SVG Export Plug-In . SVG Version: 6.00 Build 0)  -->
<svg version="1.1" id="Layer_1" xmlns="http://www.w3.org/2000/svg" xmlns:xlink="http://www.w3.org/1999/xlink" x="0px" y="0px"
	 viewBox="0 0 134.3 80" style="enable-background:new 0 0 134.3 80;" xml:space="preserve">
<style type="text/css">
	.st0{fill:#0A4F9D;}
</style>
<path class="st0" d="M76.4,16.6l48.5-2.9l1.8-2.7H81.6c-1.6,0-3.1,0.9-3.8,2.4L76.4,16.6z"/>
<path class="st0" d="M71.6,27.4l46.1-2.9l1.8-2.7H76.8c-1.6,0-3.1,0.9-3.8,2.4L71.6,27.4z"/>
<path class="st0" d="M66.7,38.2l19.9-3l1.8-2.7H71.9c-1.6,0-3.1,0.9-3.8,2.5L66.7,38.2z"/>
<path class="st0" d="M76,73.3l1.2-2.1c-5.3-3.6-24.1-11-42.4-8.7l2.8,5C50.3,67.3,61.9,67.8,76,73.3"/>
<path class="st0" d="M134.3,0H74.2c-8.8,0-17.7,5.7-20.5,13c-4.4-3.6-11.5-7.5-22.1-7.5C13,5.5,5,16.5,0,27.5h9.6
	C9.2,31.2,8.8,35.6,9,37.7c0.4,3.1,1.2,7.2,1.2,7.2l0.5,2.4c6.4-0.2,9.1,0.1,12.7,0.4l1.8-4.2c0.6-1.6,1.6-3,2.9-4.2l2.9-2.8
	l3.4,2.8c-1.7,3.3-2.6,8.1-3.1,11.8c-7.4,0.8-15.3,4.5-15.3,4.5l13,24.1h19.6l-1.4-2.1c-0.8-1.1-2-1.9-3.3-2.1l-11.1-1.8l-8.4-14.9
	c4-1.9,10.9-2.7,10.9-2.7c0.5-7.2,1.8-12.6,5.2-18.8l-6-5.2l1-1.6c0.5-0.8,0.5-1.7,0.2-2.5l-0.3-0.6c0,0-8.7,7.6-11.2,10.2
	c-2.1,2.2-3.3,5.1-3.3,5.1c-1.5-0.1-4.5-0.1-6.2-0.2c-0.2-1.2-0.7-3.9-0.7-5.5c0-5.2,1.3-12.6,1.5-14.7H9.8
	c3.8-4.9,11-10.8,21.9-10.8c11.3,0,17.6,5,20.6,8.3c-0.2,1.2-0.5,2.6-0.7,4c0,0.1-2.1,11.1-2.5,13.1h1.5c1,0,1.8-0.6,2.1-1.6
	c1.8-6.6,6.2-18.5,6.3-18.6c3.4-7.2,8.4-10.3,15.4-10.6c11.8-0.6,58.2-3.3,58.3-3.3L134.3,0z"/>
</svg>
