<?xml version="1.0" encoding="utf-8"?>
<!-- Generator: Adobe Illustrator 25.4.1, SVG Export Plug-In . SVG Version: 6.00 Build 0)  -->
<svg version="1.1" id="Layer_1" xmlns="http://www.w3.org/2000/svg" xmlns:xlink="http://www.w3.org/1999/xlink" x="0px" y="0px"
	 viewBox="0 0 351.6 80" style="enable-background:new 0 0 351.6 80;" xml:space="preserve">
<style type="text/css">
	.st0{fill:#0A4F9D;}
</style>
<g>
	<path class="st0" d="M293.8,16.6l48.5-2.9l1.8-2.7H299c-1.6,0-3.1,0.9-3.8,2.4L293.8,16.6z M289,27.4l46.1-2.9l1.8-2.7h-42.7
		c-1.6,0-3.1,0.9-3.8,2.4L289,27.4z M284.1,38.2l19.9-3l1.8-2.7h-16.5c-1.6,0-3.1,0.9-3.8,2.5L284.1,38.2z M293.3,73.3l1.2-2.1
		c-5.3-3.6-24.1-11-42.4-8.7l2.8,5C267.7,67.3,279.3,67.8,293.3,73.3 M155.4,69c0,6.8,4.2,11,10.6,11c4.7,0,8.9-2.1,9.8-7.2
		l-0.4-0.4h-5.1l-0.4,0.4c-0.4,1.3-1.7,2.1-3.8,2.1c-3,0-4.7-2.1-4.7-5.9s1.7-5.9,4.7-5.9c2.1,0,3.4,0.9,3.8,2.1l0.4,0.4h5.1
		l0.4-0.4c-0.9-5.1-5.1-7.2-9.8-7.2C159.6,57.9,155.4,62.2,155.4,69 M139.6,66.4c0-0.8,0.6-3.5,3.9-3.5c3.2,0,3.9,2.8,3.9,3.5v0.1
		l-0.5,0.5h-6.9L139.6,66.4L139.6,66.4z M133.3,69c0,5.9,3.4,11,10.6,11c6.4,0,8.5-3.8,8.9-6.4l-0.4-0.4h-5.1l-0.4,0.4
		c-0.4,0.8-1.7,1.3-3,1.3c-3.4,0-4.2-2.5-4.2-3.4l0.4-0.4h13.2l0.4-0.4V69c0-5.9-3.4-11-10.2-11C136.7,57.9,133.3,63,133.3,69
		 M70.1,69c0-3.8,1.7-5.9,4.7-5.9s4.7,2.1,4.7,5.9s-1.7,5.9-4.7,5.9C71.8,74.9,70.1,72.8,70.1,69 M64.1,69c0,6.8,4.2,11,10.6,11
		c6.4,0,10.6-4.2,10.6-11c0-6.8-4.2-11-10.6-11C68.4,57.9,64.1,62.2,64.1,69 M18.6,31.6l-0.4,0.4H11l-0.4-0.4l3.8-10.2h0.4
		L18.6,31.6z M28.8,43.5l0.4-0.4L17.8,14.2l-0.4-0.4h-5.6l-0.4,0.4L0,43.1l0.4,0.4h5.5l0.4-0.4l2.1-5.5l0.9-0.4h10.6l0.9,0.4
		l2.1,5.5l0.4,0.4h3.8H28.8z M35.9,18.9l0.4-0.4v-4.2l-0.4-0.4h-5.1l-0.4,0.4v4.2l0.4,0.4H35.9z M35.9,43.5l0.4-0.4V22.7l-0.4-0.4
		h-5.1l-0.4,0.4v20.4l0.4,0.4H35.9z M53.9,27.4l0.4-0.4v-4.2l-0.4-0.4h-2.6c-3.8,0-4.7,1.7-4.7,1.7h-0.4l-0.4-1.3l-0.4-0.4h-4.7
		l-0.4,0.4v20.4l0.4,0.4h5.1l0.4-0.4V32.9c0-3.8,1.3-5.5,4.7-5.5L53.9,27.4L53.9,27.4z M41.6,64.7c0-5.9,2.5-10.2,8.5-10.2
		c3.4,0,5.5,1.3,6.4,3.8l0.4,0.4H62l0.4-0.4c-0.8-5.5-5.5-8.9-12.3-8.9c-9.3,0-14.4,6.4-14.4,15.3S40.8,80,50.1,80
		c6.8,0,11.5-3.4,12.3-9.3L62,70.3h-5.1l-0.4,0.4c-0.9,3-3,4.2-6.4,4.2C44.2,74.9,41.6,70.7,41.6,64.7 M68.7,43.5l0.4-0.4V14.2
		l-0.4-0.4h-5.1l-0.4,0.4v28.9l0.4,0.4H68.7z M77.6,32.9c0-3.8,1.7-5.9,4.7-5.9c2.1,0,3.4,0.9,3.8,2.1l0.4,0.4h5.1l0.4-0.4
		c-0.8-5.1-5.1-7.2-9.8-7.2c-6.4,0-10.6,4.2-10.6,11c0,6.8,4.2,11,10.6,11c4.7,0,8.9-2.1,9.8-7.2l-0.4-0.4h-5.1l-0.4,0.4
		c-0.4,1.3-1.7,2.1-3.8,2.1C79.3,38.9,77.6,36.7,77.6,32.9 M93.8,60.1l-0.4-1.3L93,58.4h-4.7l-0.4,0.4v20.4l0.4,0.4h5.1l0.4-0.4
		V68.6c0-3.8,1.7-5.5,4.7-5.5c2.5,0,3.4,1.7,3.4,3.8v12.3l0.4,0.4h5.1l0.4-0.4V66.5c0-5.1-3-8.5-8.1-8.5c-3,0-4.7,1.3-5.5,2.1
		L93.8,60.1L93.8,60.1z M107.7,30.4l-0.5,0.5h-6.9l-0.5-0.5l0,0c0-0.8,0.6-3.5,3.9-3.5C107,26.8,107.7,29.6,107.7,30.4L107.7,30.4z
		 M113.5,35l0.4-0.4v-1.7c0-5.9-3.4-11-10.2-11c-6.8,0-10.2,5.1-10.2,11c0,5.9,3.4,11,10.6,11c6.4,0,8.5-3.8,8.9-6.4l-0.4-0.4h-5.1
		l-0.4,0.4c-0.4,0.8-1.7,1.3-3,1.3c-3.4,0-4.2-2.5-4.2-3.4l0.4-0.4H113.5z M122.3,43.5l0.4-0.4V14.2l-0.4-0.4h-5.1l-0.4,0.4v28.9
		l0.4,0.4H122.3z M122.7,57.9c-3,0-4.7,1.3-5.5,2.1h-0.4l-0.4-1.3l-0.4-0.4h-4.7l-0.4,0.4v20.4l0.4,0.4h5.1l0.4-0.4V68.5
		c0-3.8,1.7-5.5,4.7-5.5c2.5,0,3.4,1.7,3.4,3.8v12.3l0.4,0.4h5.1l0.4-0.4V66.4C130.8,61.3,127.8,57.9,122.7,57.9 M138.3,35.9
		c0,1.7-1.7,3-3.9,3c-2.5,0-3-1.2-3-2.2c0-1.8,1.3-2.6,3.9-2.6c1.7,0,2.6,0.4,2.6,0.4l0,0l0.5,0.5L138.3,35.9L138.3,35.9z
		 M143.7,43.5l0.4-0.4V31.6c0-6.4-2.1-9.8-8.9-9.8s-8.9,3.8-8.9,6.4l0.4,0.4h5.1l0.4-0.4c0.4-1.3,1.7-1.3,3-1.3c2.5,0,3,0.4,3,2.5
		v0.4l-0.4,0.4c0,0-1.3-0.4-3-0.4c-3.4,0-9.3,0.9-9.3,7.2c0,4.2,3,6.8,7.6,6.8c3,0,4.7-1.7,4.7-1.7h0.4l0.4,0.8l0.4,0.4h4.7V43.5z
		 M167.4,43.5l0.4-0.4V30.4c0-5.1-3-8.5-8.1-8.5c-3,0-4.7,1.3-5.5,2.1h-0.4l-0.4-1.3l-0.4-0.4h-4.7l-0.4,0.4v20.4l0.4,0.4h5.1
		l0.4-0.4V32.5c0-3.8,1.7-5.5,4.7-5.5c2.5,0,3.4,1.7,3.4,3.8v12.3l0.4,0.4H167.4z M185.6,32.9c0,3.4-1.3,5.9-4.7,5.9
		s-4.7-2.5-4.7-5.9c0-3.4,1.3-5.9,4.7-5.9S185.6,29.5,185.6,32.9 M191.1,43.5l0.4-0.4V14.2l-0.4-0.4H186l-0.4,0.4V24h-0.4
		c0,0-1.7-2.1-5.5-2.1c-5.1,0-9.3,4.2-9.3,11c0,6.8,4.2,11,9.3,11c3.8,0,5.5-2.1,5.5-2.1h0.4l0.4,1.3l0.4,0.4H191.1z M191.9,79.6
		l0.4-0.4v-4.3l-0.4-0.4h-3.8c-0.9,0-1.3-0.4-1.3-1.3v-9.3l0.4-0.4h4.7l0.4-0.4v-4.2l-0.4-0.4h-4.7l-0.4-0.4v-3.8l-0.4-0.4h-5.1
		l-0.4,0.4V58l-0.4,0.4h-3l-0.4,0.4v4.2l0.4,0.4h3l0.4,0.4v9.3c0,4.7,3.4,6.4,7.2,6.4L191.9,79.6L191.9,79.6z M351.6,0h-60.1
		c-8.8,0-17.7,5.7-20.5,13c-4.4-3.6-11.5-7.5-22.1-7.5c-18.6,0-26.6,11-31.6,22h9.6c-0.4,3.8-0.8,8.1-0.5,10.2
		c0.4,3.1,1.2,7.2,1.2,7.2l0.5,2.4c6.4-0.2,9.1,0.1,12.7,0.4l1.8-4.2c0.6-1.6,1.6-3,2.9-4.2l2.9-2.8l3.4,2.8
		c-1.7,3.3-2.6,8.1-3.1,11.8c-7.4,0.8-15.3,4.5-15.3,4.5l13,24.1h19.6l-1.4-2.1c-0.8-1.1-2-1.9-3.3-2.1l-11.1-1.8l-8.4-14.9
		c4-1.9,10.9-2.7,10.9-2.7c0.5-7.2,1.8-12.6,5.2-18.8l-6-5.2l1-1.6c0.5-0.8,0.5-1.7,0.2-2.5l-0.3-0.6c0,0-8.7,7.6-11.2,10.2
		c-2.1,2.2-3.3,5.1-3.3,5.1c-1.5-0.1-4.5-0.1-6.2-0.2c-0.2-1.2-0.7-3.9-0.7-5.5c0-5.2,1.3-12.6,1.5-14.7h-5.7
		c3.8-4.9,11-10.8,21.9-10.8c11.3,0,17.6,5,20.6,8.3c-0.2,1.2-0.5,2.6-0.7,4c0,0.1-2.1,11.1-2.5,13.1h1.5c1,0,1.8-0.6,2.1-1.6
		c1.8-6.6,6.2-18.5,6.3-18.6c3.4-7.2,8.4-10.3,15.4-10.6c11.8-0.6,58.2-3.3,58.3-3.3L351.6,0z"/>
</g>
</svg>
