<?xml version="1.0" encoding="utf-8"?>
<!-- Generator: Adobe Illustrator 25.4.1, SVG Export Plug-In . SVG Version: 6.00 Build 0)  -->
<svg version="1.1" id="Layer_1" xmlns="http://www.w3.org/2000/svg" xmlns:xlink="http://www.w3.org/1999/xlink" x="0px" y="0px"
	 viewBox="0 0 514.18 80" style="enable-background:new 0 0 514.18 80;" xml:space="preserve">
<style type="text/css">
	.st0{fill:#231F20;}
</style>
<g>
	<polygon class="st0" points="42.27,42.87 35.54,72.82 42.8,72.82 49.53,42.87 	"/>
	<path class="st0" d="M55.27,42.87l1.44,2.57l-6.12,27.37h7.26l6.05-27.22h2.27c4.18,0,5.92,2.43,5.6,6.05
		c-0.27,3.24-2.66,6.79-9.98,7.56l5.9,10.36c1.52,2.64,2.19,3.25,6.2,3.25h3.86l-8.09-12.7c4.34-0.67,9.06-3.39,9.6-8.24
		c0.65-5.57-3.35-9-10.13-9L55.27,42.87z"/>
	<path class="st0" d="M99.28,42.87l1.89,3.48l-5.9,26.47h3.78l4.99-22l11.27,18.75c1.24,2.11,2.35,3.25,5.82,3.25l6.73-29.94h-3.78
		l-4.69,20.72l-10.21-17.54c-1.47-2.53-2.22-3.18-5.37-3.18H99.28z"/>
	<path class="st0" d="M134.59,42.87l-6.73,29.94H151c-0.43-2.06-1.35-2.87-4.01-2.87h-11.12l2.5-11.04h11.42l0.68-3.02h-11.49
		l2.27-10.13h10.59c2.66,0,3.57-0.81,4.01-2.87H134.59z"/>
	<path class="st0" d="M158.49,42.87l4.61,29.94h3.48l10.36-17.84l2.5,17.84h3.48l18-29.94h-3.86l-12.48,20.95l-2.42-19.66
		c-0.11-0.92-0.89-1.29-1.81-1.29h-4.99l0.98,7.11l-7.86,13.84l-2.95-19.66c-0.11-0.92-0.89-1.29-1.81-1.29L158.49,42.87z"/>
	<path class="st0" d="M216.33,42.87c0.43,2.06,1.35,2.87,4.01,2.87h13.46l-21.32,21.47c-1.84,1.87-3.07,3.07-3.18,5.6h27.67
		c-0.43-2.05-1.32-2.86-3.93-2.87h-14.06l20.57-21.17c2.6-2.78,3.18-4.2,3.4-5.9H216.33L216.33,42.87z"/>
	<path class="st0" d="M248.54,42.87l-6.65,29.94h23.06c-0.44-2.06-1.35-2.87-4.01-2.87h-11.12l2.5-11.04h11.42l0.68-3.02h-11.49
		l2.27-10.13h10.59c2.66,0,3.58-0.81,4.01-2.87H248.54z"/>
	<path class="st0" d="M307.98,42.87l-6.73,29.94h20.11c-0.43-2.06-1.43-2.87-4.08-2.87h-8.09l6.05-27.07H307.98z"/>
	<path class="st0" d="M361.66,42.87l1.97,3.48l-5.97,26.47h3.86l4.91-22l11.27,18.75c1.26,2.11,2.42,3.25,5.9,3.25l6.65-29.94h-3.78
		l-4.61,20.72l-10.28-17.54c-1.46-2.53-2.22-3.18-5.37-3.18H361.66z"/>
	<path class="st0" d="M408.24,42.87h-10.21h-1.97l1.36,2.57l-6.12,27.37h11.04c9.87,0,19.07-5.48,20.64-14.97
		C424.56,48.46,417.8,42.87,408.24,42.87z M415.5,57.85c-1.2,7.73-7.41,12.25-14.29,12.25h-2.04l5.52-24.42h1.97
		C413.54,45.67,416.69,50.21,415.5,57.85z"/>
	<path class="st0" d="M26.24,40.23l-3.63,0L0,72.82h4.08l5.6-7.94h13.38l0.6,3.71c0.43,2.93,1.2,4.23,4.61,4.23h3.4L26.24,40.23z
		 M11.87,61.78l8.77-12.48l1.97,12.48H11.87z"/>
	<path class="st0" d="M290.66,42.87h-3.63l-20.26,29.94h4.08l5.37-7.94h12.17l0.76,3.71c0.66,2.9,1.35,4.23,4.76,4.23h3.48
		L290.66,42.87z M278.26,61.78l7.03-10.51l2.34,10.51H278.26z"/>
	<path class="st0" d="M346.99,42.87h-3.63l-20.19,29.94h4.01l5.37-7.94h12.17l0.83,3.71c0.65,2.9,1.35,4.23,4.76,4.23h3.48
		L346.99,42.87z M334.67,61.78l7.03-10.51l2.34,10.51H334.67z"/>
	<path class="st0" d="M483.33,0c-9.07,0-17.46,6.44-22.23,11.12c-16.97,16.55-25.94,27.75-25.94,27.75h75.61l3.4-7.56h-61.02
		c0,0,4.61-6.31,14.52-15.65c2.49-2.33,9.01-8.17,15.65-8.17c4.36,0,7.79,2.73,7.79,6.43c0,3.66-3.1,4.69-3.1,4.69
		c0.32-1.56-0.73-5.82-4.84-5.82c-4.26,0-6.05,3.25-6.05,5.44c0,4.5,4.1,7.71,8.85,7.71c9.14,0,13.38-6.5,13.38-12.78
		C499.36,6.82,493.18,0,483.33,0z"/>
	<path class="st0" d="M433.88,42.8c0,0,3.97,11.41,9.22,22.31c4.46,9.28,11.84,14.9,20.87,14.9c8.48,0,14.22-6.45,14.22-12.63
		c0-6.99-5.32-11.57-11.64-11.57c-6.75,0-8.17,5.07-8.17,6.35c0,2.95,2.47,5.67,5.6,5.67c4.92,0,5.29-3.93,5.29-3.93
		s1.51,0.97,1.51,3.48c0,2.41-2.04,5.52-6.81,5.52c-3.8,0-9.38-2-13.23-10.13c-4.53-9.52-4.84-12.33-4.84-12.33h59.66l3.4-7.64
		H433.88z"/>
</g>
</svg>
