<?xml version="1.0" encoding="utf-8"?>
<!-- Generator: Adobe Illustrator 25.4.1, SVG Export Plug-In . SVG Version: 6.00 Build 0)  -->
<svg version="1.1" id="Layer_1" xmlns="http://www.w3.org/2000/svg" xmlns:xlink="http://www.w3.org/1999/xlink" x="0px" y="0px"
	 viewBox="0 0 78.7 80" style="enable-background:new 0 0 78.7 80;" xml:space="preserve">
<style type="text/css">
	.st0{fill:#E8492A;}
	.st1{fill:#3F4998;}
</style>
<path class="st0" d="M6.8,53.8c0,0,0.5,20.2,11.9,24.3c0,0-5.1-6.9-4.9-13.9c0,0,12.4,15.7,21.1,15.7s16.2-13.9,16.4-32.8
	c0,0-3.1,14-7.6,20.3c-4.5,6.3-6.8,5.9-7.7,5.9c-0.9,0-5.6-0.3-14-9.8c-0.6,0.2-5.4,0.8-5.4,0.8S7.6,53.5,6.8,53.8z"/>
<path class="st1" d="M6.8,50.6l8.9,11.2c0,0,1.2,1.8,3.2,1.5c2-0.3,0.7-4.8-0.7-7.3c-1.5-2.5-5.7-8.3-6.9-9.4s-3-0.5-3.5,0
	C7.3,46.9,6.1,48.4,6.8,50.6z"/>
<circle class="st0" cx="38.5" cy="64.3" r="4.6"/>
<path class="st1" d="M12.1,44.6c0,0,6.3,9.8,7.4,11.5s2.7,5.7,5.3,5.9c2.6,0.2,1.8-4.6,1.6-6.5s-1.1-6.1-2.8-7.5s-5.2-6.9-6.2-7.8
	c-1-0.9-2.5-1.6-4.1-0.7S10.7,42.5,12.1,44.6z"/>
<path class="st1" d="M18.5,38.2c0.1,0.2,7.8,10.3,8.8,11.9c1.1,1.6,2.8,6.1,3.5,7.8c0.7,1.6,2,0.9,2.2-0.5c0.2-1.3,0.3-7.7-0.6-10.6
	c-0.9-2.9-1.9-4.5-3.4-6.2c-1.5-1.7-5.7-7.3-5.7-7.3s-2-1.5-4.3,0.3C16.8,35.5,18.5,38.2,18.5,38.2z"/>
<path class="st1" d="M26.7,35.3l8.7,11.2c0,0-0.8,10,1.9,9.9c2.7-0.1,3.2-6.8,3-10.7s-0.3-4.3-1.3-5.5c-0.9-1.1-7.3-10-7.3-10
	s-2.4-1.3-4.4,0.5S26.7,35.3,26.7,35.3z"/>
<path class="st1" d="M35,32.3c0,0-0.6-0.1,0.4,1.2s6.9,8.9,6.9,8.9l-0.7,13.4c0,0,4.8,1.1,5.7-5.2c0.9-6.3,3.8-14.2,7.1-18.3
	s8.2-6.6,10.8-6.6c2.6,0,2.6,1.3,2.3,1.9c-0.3,0.6-2,1.3-3.3,1.9c-1.3,0.6-8.4,3.9-10.1,13.6c-1.7,9.7-1.8,17.9-2.9,21.2
	s-3.9,10.8-8.6,15.1c0,0,1.8,1.4,11.2-2.6c9.4-4,16-9.4,20.7-17.5s4.7-20.1,3.5-26.7c-1.1-6.6-6.3-17-12.8-22.4S50.4,0,39.5,0
	S17,5.5,9.7,15.2S0.7,33.7,0.1,39S0.6,53,5.6,58.6c0,0-5.6-11-3.3-21s5.5-17.9,13.6-24.8s17.2-7.8,24.5-7.8s16,2.8,22.7,9.2
	s11.4,16.8,11.3,24.1c-0.1,7.3-0.6,15.4-5.7,23.3c-5.1,7.9-13.4,13.9-21,15.4c0,0,6.2-5.1,7.4-12.6c1.1-7.5,0.5-15.2,2.4-20.5
	c1.8-5.3,5-9.4,7.1-11.1c2.1-1.7,5.6-3.7,5.7-4.4c0.1-0.7-0.2-3.7-2.6-4.6c-2.5-0.9-6.2,0.1-8.5,1.5c-2.3,1.4-6.9,4.6-8.2,7
	c-1.3,2.5-4.6,7.1-5.4,12.2s-0.3,7-1.8,6.9v-9.7L35,32.3z"/>
</svg>
