<?xml version="1.0" encoding="utf-8"?>
<!-- Generator: Adobe Illustrator 25.4.1, SVG Export Plug-In . SVG Version: 6.00 Build 0)  -->
<svg version="1.1" id="Layer_1" xmlns="http://www.w3.org/2000/svg" xmlns:xlink="http://www.w3.org/1999/xlink" x="0px" y="0px"
	 viewBox="0 0 415.7 80" style="enable-background:new 0 0 415.7 80;" xml:space="preserve">
<style type="text/css">
	.st0{fill:#3F4998;}
	.st1{fill:#E8492A;}
</style>
<g>
	<path class="st0" d="M24.1,31.8v18.6L11.7,34.7c0,0-1.9-2.9-5.6-2.9S0,35.1,0,37.3c0,1,0,2.3,0,3.4v2.7v25.5h7.1V49.4l12.3,15.7
		c0,0,2.6,3.8,6.1,3.8c3.4,0,5.7-2.5,5.7-8.9h0V31.8H24.1z"/>
	<path class="st1" d="M56.8,31.8c-9.9,0-17.9,8.3-17.9,18.6c0,1.9,0.3,3.7,0.8,5.5c2.1-1.5,7.8-5.3,11.4-7.4
		c0.5-5.4,2.9-9.5,5.7-9.5c1.8,0,3.4,1.7,4.5,4.3c2.1-0.4,7-1.2,11.4-1.4C69.7,35.9,63.7,31.8,56.8,31.8z"/>
	<path class="st0" d="M74.6,50.3c0,10.3-8,18.6-17.9,18.6c-8,0-14.8-5.5-17.1-13.1c2.1-1.5,7.8-5.3,11.4-7.4
		c-0.1,0.8-0.1,1.5-0.1,2.4c0,6.5,2.6,11.8,5.8,11.8c3.2,0,5.8-5.3,5.8-11.8c0-2.9-0.5-5.5-1.3-7.6c2.1-0.4,7-1.2,11.4-1.4
		C73.9,44.4,74.6,47.3,74.6,50.3z"/>
	<path class="st0" d="M77.7,32h11.9l8.8,25.7l9.8-26h6.2l-11.6,32c0,0-2,5.6-6.7,5.6s-6.6-4.9-7.5-7.5C87.6,59.2,77.7,32,77.7,32z"
		/>
	<path class="st0" d="M137.5,69.1h11.9c0,0-9.9-27.2-10.8-29.8c-0.9-2.6-2.8-7.5-7.5-7.5c-4.7,0-6.7,5.6-6.7,5.6l-11.6,32h6.2l2-5.3
		h14.8L137.5,69.1z M123,58.6l5.7-15.2l5.2,15.2H123z"/>
	<path class="st1" d="M173.3,53.8c0,0,0.5,20.2,11.9,24.3c0,0-5.1-6.9-4.9-13.9c0,0,12.4,15.7,21.1,15.7c8.7,0,16.2-13.9,16.4-32.8
		c0,0-3.1,14-7.6,20.3c-4.5,6.3-6.8,5.9-7.7,5.9s-5.6-0.3-14-9.8c-0.6,0.2-5.4,0.8-5.4,0.8S174,53.5,173.3,53.8z"/>
	<path class="st0" d="M173.3,50.6l8.9,11.2c0,0,1.2,1.8,3.2,1.5c2-0.3,0.7-4.8-0.7-7.3c-1.5-2.5-5.7-8.3-6.9-9.4
		c-1.1-1.1-3-0.5-3.5,0C173.7,46.9,172.6,48.4,173.3,50.6z"/>
	<circle class="st1" cx="205" cy="64.3" r="4.6"/>
	<path class="st0" d="M178.5,44.6c0,0,6.3,9.8,7.4,11.5c1.1,1.6,2.7,5.7,5.3,5.9c2.6,0.2,1.8-4.6,1.6-6.5c-0.3-2-1.1-6.1-2.8-7.5
		s-5.2-6.9-6.2-7.8s-2.5-1.6-4.1-0.7S177.2,42.5,178.5,44.6z"/>
	<path class="st0" d="M185,38.2c0.1,0.2,7.8,10.3,8.8,11.9c1.1,1.6,2.8,6.1,3.5,7.8s2,0.9,2.2-0.5c0.2-1.3,0.3-7.7-0.6-10.6
		s-1.9-4.5-3.4-6.2c-1.5-1.7-5.7-7.3-5.7-7.3s-2-1.5-4.3,0.3C183.2,35.5,185,38.2,185,38.2z"/>
	<path class="st0" d="M193.1,35.3l8.7,11.2c0,0-0.8,10,1.9,9.9c2.7-0.1,3.2-6.8,3-10.7s-0.3-4.3-1.3-5.5c-0.9-1.1-7.3-10-7.3-10
		s-2.4-1.3-4.4,0.5S193.1,35.3,193.1,35.3z"/>
	<path class="st0" d="M201.5,32.3c0,0-0.6-0.1,0.4,1.2c1,1.3,6.9,8.9,6.9,8.9L208,55.8c0,0,4.8,1.1,5.7-5.2s3.8-14.2,7.1-18.3
		s8.2-6.6,10.8-6.6s2.6,1.3,2.3,1.9c-0.3,0.6-2,1.3-3.3,1.9c-1.3,0.6-8.4,3.9-10.1,13.6s-1.8,17.9-2.9,21.2
		c-1,3.3-3.9,10.8-8.6,15.1c0,0,1.8,1.4,11.2-2.6c9.4-4,16-9.4,20.7-17.5c4.8-8.1,4.7-20.1,3.5-26.7s-6.3-17-12.8-22.4
		C225.2,4.9,216.8,0,206,0c-10.8,0-22.5,5.5-29.8,15.2s-9.1,18.5-9.6,23.8S167,53,172,58.6c0,0-5.6-11-3.3-21s5.5-17.9,13.6-24.8
		c8.2-6.9,17.2-7.8,24.5-7.8s16,2.8,22.7,9.2s11.4,16.8,11.3,24.1s-0.6,15.4-5.7,23.3s-13.4,13.9-21,15.4c0,0,6.2-5.1,7.4-12.6
		s0.5-15.2,2.4-20.5c1.8-5.3,5-9.4,7.1-11.1s5.6-3.7,5.7-4.4c0.1-0.7-0.2-3.7-2.6-4.6c-2.5-0.9-6.2,0.1-8.5,1.5
		c-2.3,1.4-6.9,4.6-8.2,7c-1.3,2.5-4.6,7.1-5.4,12.2s-0.3,7-1.8,6.9v-9.7L201.5,32.3z"/>
	<circle class="st0" cx="317" cy="25.9" r="4.2"/>
	<circle class="st0" cx="322.1" cy="35.1" r="4.2"/>
	<circle class="st0" cx="397.8" cy="31" r="7.1"/>
	<circle class="st0" cx="311.7" cy="35.2" r="4.2"/>
	<path class="st0" d="M343.6,31.5c0,0-9.5-0.2-14.9,9.4c-5.2,9.1,1.8,18.3,3.8,20.6h-54.2c0,0-1.5,0.1-1.5-1.7V27.4h-9.8v32.3v3.6
		c0,0-0.2,4.7,5,5.5c0.6,0.1,1.2,0.1,1.8,0h69.2h9.5c0,0,6.5,0.2,6.5-6s0-18.7,0-18.7S356.7,31.5,343.6,31.5z M343,59.5
		c-2.8,0-5.2-4.9-5.2-10.9s2.3-10.9,5.2-10.9c2.8,0,5.2,4.9,5.2,10.9S345.8,59.5,343,59.5z"/>
	<path class="st1" d="M377.3,31.5c0,0-11-0.2-13.7,10.4c-1.5,5.7-1.2,10.4,0.1,13.9c1.7-1.5,4.6-3.7,9.4-6.3c0-0.3,0-0.5,0-0.8
		c0-6,2.3-10.9,5.2-10.9c2.2,0,4,2.8,4.8,6.9c3.8-1.5,7.1-2.3,9.9-2.6C391.8,40,386.7,31.5,377.3,31.5z"/>
	<path class="st0" d="M415.7,31v30.7c0,0-0.7,6.4-5.8,6.4s-8.7-6.1-11.3-9.2c-1.6-1.9-4-4.9-5.5-6.8v17.2c0,4.7-5.3,4.7-5.3,4.7
		h-22.5v-6.2h18.1l-0.3-3.6c0,0-9,1.9-15.2-2.5c-1.7-1.2-3.3-3.2-4.3-6c1.7-1.5,4.6-3.7,9.4-6.3c0.2,5.6,2.4,10.1,5.1,10.1
		c2.8,0,5.2-4.9,5.2-10.9c0-1.4-0.1-2.8-0.4-4c3.8-1.5,7.1-2.3,9.9-2.6c0.1,0.3,0.2,0.4,0.2,0.4L406,59.5V36.1L415.7,31z"/>
</g>
</svg>
