<svg width="80" height="80" viewBox="0 0 80 80" fill="none" xmlns="http://www.w3.org/2000/svg">
<g clip-path="url(#clip0_709_1192)">
<path d="M40.4153 24.9657C39.6063 23.9609 38.6046 23.1106 37.4489 22.4536C35.985 23.2652 34.3285 23.6903 32.6334 23.6903C30.9384 23.6903 29.3203 23.2652 27.8179 22.4536C26.6622 23.072 25.6606 23.9222 24.8516 24.9657C27.1245 26.5502 29.8597 27.4005 32.6334 27.4005C35.5227 27.4005 38.2194 26.5116 40.4153 24.9657Z" fill="black"/>
<path d="M32.676 0C29.0162 0 25.5491 1.42995 23.0065 4.01932C20.4254 6.57005 19 10.087 19 13.7198C19 16.9275 20.1172 20.0193 22.159 22.4928C22.4286 22.1836 22.6983 21.8744 23.0065 21.5652C23.5844 20.9855 24.2393 20.4444 24.8942 19.9807C23.4688 18.2029 22.6983 16 22.6983 13.7198C22.6983 11.0531 23.7385 8.50242 25.6261 6.64734C27.4753 4.75362 30.0179 3.71014 32.676 3.71014V1.85507V0ZM32.676 0V3.71014C35.3342 3.71014 37.8768 4.75362 39.7259 6.64734C41.6136 8.50242 42.6538 11.0531 42.6538 13.7198C42.6538 16 41.8833 18.2029 40.4579 19.9807C39.6489 20.9855 38.6473 21.8357 37.4915 22.4928C38.6473 23.1111 39.6489 23.9614 40.4579 25.0048C41.4595 24.3092 42.3841 23.4589 43.1931 22.4928C45.2349 20.0193 46.3521 16.9275 46.3521 13.7198C46.3521 10.087 44.9267 6.6087 42.3456 4.01932C39.7645 1.42995 36.2973 0 32.676 0V0Z" fill="#FFED00"/>
<path d="M32.676 17.5464C29.7867 17.5464 27.1286 18.4353 24.8942 19.9812C23.8926 20.6768 22.968 21.5271 22.159 22.4932C20.1172 24.928 19 28.0585 19 31.2662C19 34.4739 20.1172 37.5657 22.159 40.0391C22.4286 40.3483 22.6983 40.6961 23.0065 40.9667C23.5844 41.5464 24.2007 42.0488 24.8942 42.5126C27.822 44.5609 31.4818 45.3725 35.026 44.7541C36.9907 44.4063 38.8399 43.6333 40.4964 42.5126C39.6874 41.5077 38.6858 40.6575 37.5301 40.0005C36.0661 40.8121 34.3711 41.2758 32.676 41.2372C30.981 41.2372 29.3244 40.8121 27.8605 40.0005C27.0515 39.5367 26.3196 38.9957 25.6261 38.3387C25.3565 38.0681 25.1253 37.7976 24.8942 37.5271C23.4688 35.7493 22.6983 33.5464 22.6983 31.2662C22.6983 28.5995 23.7385 26.0488 25.6261 24.1937C26.281 23.5367 27.0515 22.957 27.8605 22.4932C29.3244 21.6817 30.981 21.2565 32.676 21.2565C34.3711 21.2565 35.9891 21.6817 37.4915 22.4932C38.6473 21.8749 39.6489 21.0246 40.4579 19.9812C38.1464 18.3966 35.4498 17.5464 32.676 17.5464Z" fill="#00A6EB"/>
<path d="M42.3101 39.0715C42.6183 39.3807 42.888 39.6898 43.1576 39.999C45.4691 37.2164 46.5863 33.6609 46.2395 30.0667C44.9682 30.2599 43.7355 30.7237 42.6183 31.3807C42.6183 33.6222 41.8478 35.7478 40.4609 37.4869C41.1158 37.9507 41.7708 38.4918 42.3101 39.0715Z" fill="black"/>
<path d="M40.4219 24.9657C41.0383 25.7386 41.5391 26.6275 41.9243 27.5551C43.0415 27.014 44.2358 26.6662 45.43 26.4343C44.8907 25.0043 44.1202 23.6517 43.1186 22.4536C42.3866 23.4198 41.462 24.27 40.4219 24.9657Z" fill="white"/>
<path d="M32.676 35.0532C29.9023 35.0532 27.1671 35.9035 24.8942 37.488C25.1253 37.7585 25.3565 38.0677 25.6261 38.2996C26.281 38.9566 27.013 39.5363 27.8605 39.9614C29.3244 39.1498 31.0195 38.7247 32.7146 38.7247C34.4096 38.7247 36.0661 39.1498 37.5301 39.9614C37.6456 39.8841 37.7612 39.8455 37.8383 39.7682V39.8841V40.116C38.8399 40.7344 39.7259 41.5073 40.4579 42.4349C41.0743 43.2078 41.5751 44.0967 41.9603 45.0242C43.0775 44.5218 44.2718 44.1354 45.5045 43.9421C44.5414 41.3141 42.7693 39.0339 40.4579 37.4107C38.185 35.9035 35.4498 35.0532 32.676 35.0532ZM22.159 40.0001C20.1172 42.4735 19 45.5653 19 48.773C19 53.2561 21.1959 57.4687 24.8942 60.0581C25.7032 59.0532 26.7048 58.203 27.8605 57.546C27.0515 57.0822 26.281 56.5025 25.6261 55.8455C25.3565 55.575 25.1253 55.3044 24.8942 55.0339C23.4688 53.2561 22.6983 51.0532 22.6983 48.773C22.6983 46.4928 23.4688 44.2899 24.8942 42.5122C24.2393 42.0484 23.5844 41.5073 23.0065 40.9276C22.6983 40.6571 22.4286 40.3479 22.159 40.0001Z" fill="#E60004"/>
<path d="M39.7259 73.3918C37.8768 75.2855 35.3342 76.329 32.676 76.329C30.0179 76.329 27.4753 75.2855 25.6261 73.3918C23.7385 71.4981 22.6983 68.986 22.6983 66.3193C22.6983 64.0391 23.4688 61.8362 24.8942 60.0585C23.8926 59.3628 22.968 58.5126 22.159 57.5464C20.1172 59.9812 19 63.1116 19 66.2807C19 69.9135 20.4254 73.3918 23.0065 75.9812C25.5491 78.5705 29.0548 80.0005 32.676 80.0005C36.4514 80.0005 39.88 78.4546 42.3456 75.9812C43.7324 74.5899 44.8111 72.928 45.5045 71.073C44.2718 70.8797 43.0775 70.4933 41.9603 69.9908C41.421 71.2662 40.689 72.4256 39.7259 73.3918Z" fill="#00A6EB"/>
<path d="M32.6725 52.5996C29.8987 52.5996 27.1635 53.4498 24.8906 55.0344C25.1218 55.3049 25.3529 55.5755 25.6226 55.846C26.2775 56.503 27.048 57.0827 27.857 57.5465C29.7447 56.503 31.9405 56.1165 34.0593 56.387C35.2536 56.5416 36.4093 56.9281 37.488 57.5465L37.7191 57.4305V57.5851V57.6624C38.4511 58.0875 39.1445 58.6286 39.7609 59.2083C41.6101 61.0634 42.6502 63.5755 42.6887 66.2035C43.8059 66.8605 45.0387 67.2856 46.31 67.4788C46.6567 63.4595 45.2313 59.4788 42.342 56.6189C40.3002 54.5706 37.7191 53.2566 34.8684 52.7928C34.1364 52.6383 33.4044 52.5996 32.6725 52.5996Z" fill="#FFED00"/>
<path d="M34.1791 38.8784C34.1406 39.2262 34.1406 39.6127 34.1406 39.9605C34.1406 40.347 34.1791 40.7721 34.1791 41.1586C35.3349 40.9654 36.4906 40.5789 37.4922 39.9992C36.4521 39.4195 35.3349 39.033 34.1791 38.8784Z" fill="white"/>
<path d="M47.7738 26.2415C45.7706 26.2415 43.7673 26.7052 41.9182 27.5555C38.6821 29.1014 36.1781 31.8453 34.9453 35.2463C36.1781 35.4395 37.3338 35.826 38.451 36.3671C39.26 34.2801 40.7239 32.541 42.6116 31.3816C43.7288 30.7245 44.9616 30.2608 46.2329 30.0675C49.3918 29.5651 52.5508 30.6086 54.7852 32.8888C56.6729 34.7439 57.713 37.2946 57.713 39.9613C57.713 42.6279 56.6729 45.1787 54.7852 47.0337C54.0918 47.7294 53.2828 48.3091 52.3967 48.8115C50.9713 49.5845 49.3533 49.9709 47.6968 49.9709C47.196 49.9709 46.6951 49.9323 46.1943 49.855C46.1173 51.0917 45.8476 52.2898 45.4238 53.4878C46.1558 53.6038 46.9263 53.6811 47.6968 53.6811C50.5475 53.6811 53.1672 52.7922 55.3631 51.3236C56.095 50.8212 56.7499 50.2801 57.3663 49.6618C57.636 49.3912 57.8671 49.1207 58.0983 48.8502C60.2171 46.3767 61.3728 43.2463 61.3728 39.9613C61.3728 36.3284 59.9474 32.8502 57.3663 30.2608C54.8622 27.6714 51.3951 26.2415 47.7738 26.2415Z" fill="#00A6EB"/>
<path d="M39.9925 46.2217C39.3761 45.4488 38.8753 44.5599 38.4901 43.671C37.3729 44.2121 36.2171 44.5599 34.9844 44.7918C35.5237 46.2217 36.2942 47.5357 37.2573 48.7338C37.4884 48.4633 37.7581 48.1928 37.9892 47.9222C38.6056 47.2652 39.2991 46.6855 39.9925 46.2217ZM39.954 51.2072C40.5704 51.6324 41.2638 52.0575 41.9572 52.3667C42.381 51.2845 42.6121 50.1251 42.6121 48.9271C41.6105 49.5068 40.7245 50.2797 39.954 51.2072Z" fill="white"/>
<path d="M37.8006 39.8457C37.685 39.9231 37.6078 39.9617 37.4922 40.0391C37.6078 40.1164 37.7235 40.1551 37.8006 40.2325C37.8006 40.1551 37.8006 40.0778 37.8006 40.0004C37.8006 39.9231 37.8006 39.8844 37.8006 39.8457Z" fill="#E60004"/>
<path d="M47.665 43.865C45.7003 43.865 43.7355 44.2901 41.9634 45.1017C40.1528 45.9519 38.5348 47.15 37.2635 48.6959C36.2233 49.894 35.4143 51.2853 34.875 52.7925C36.1078 52.9858 37.302 53.3722 38.4192 53.8747C38.92 52.5993 39.6905 51.4785 40.6536 50.5123C41.27 49.894 41.9249 49.3916 42.6954 48.9664V48.8119C42.6954 48.7346 42.6954 48.6573 42.6954 48.58C42.811 48.6573 42.9265 48.7346 43.0421 48.7732C44.0822 48.2321 45.1994 47.8457 46.3552 47.6911C48.474 47.3819 50.6699 47.7684 52.5575 48.8119C53.7133 48.1935 54.7534 47.3433 55.5624 46.3384C53.1739 44.7152 50.4772 43.865 47.665 43.865ZM58.182 48.8119C57.9509 49.0824 57.6812 49.3529 57.4501 49.6234C56.8337 50.2418 56.1788 50.7829 55.4468 51.2853C56.8722 53.0631 57.6427 55.266 57.6427 57.5462C57.6427 58.7442 57.4501 59.9423 57.0263 61.0631L60.455 62.4157C61.0328 60.9085 61.341 59.2853 61.341 57.5848C61.341 54.3771 60.2238 51.2853 58.182 48.8119Z" fill="black"/>
<path d="M34.062 56.3873C34.0234 56.7738 34.0234 57.1603 34.0234 57.5467C34.0234 57.9332 34.062 58.2811 34.062 58.6675C34.1775 59.9429 34.4472 61.141 34.8324 62.3004C36.7972 67.711 41.9209 71.2666 47.6609 71.2666C51.2822 71.2666 54.7494 69.8366 57.3305 67.2472C58.7173 65.8559 59.7575 64.2327 60.4509 62.4163L57.0223 61.0637C56.5215 62.4163 55.751 63.6144 54.7108 64.6192C52.515 66.8608 49.356 67.9042 46.2741 67.4405C45.0028 67.2472 43.77 66.8221 42.6528 66.1651C41.9209 65.74 41.2274 65.1989 40.6496 64.6192C38.8004 62.7641 37.7603 60.2521 37.7217 57.624C36.566 57.0057 35.3333 56.5806 34.062 56.3873Z" fill="#E60004"/>
<path d="M37.6844 57.6617C37.6844 57.6231 37.6844 57.5844 37.6844 57.5844C37.6844 57.5457 37.6844 57.4684 37.6844 57.4297C37.6073 57.4684 37.5302 57.507 37.4531 57.5457L37.6844 57.6617Z" fill="#FFED00"/>
<path d="M42.6578 48.7728V48.9275C42.7734 48.8502 42.8891 48.8115 43.0047 48.7342C42.8891 48.6568 42.7734 48.6181 42.6578 48.5408C42.6192 48.6181 42.6578 48.6955 42.6578 48.7728Z" fill="#15416A"/>
</g>
<defs>
<clipPath id="clip0_709_1192">
<rect width="80" height="80" fill="white"/>
</clipPath>
</defs>
</svg>
