<svg width="290" height="80" viewBox="0 0 290 80" fill="none" xmlns="http://www.w3.org/2000/svg">
<g clip-path="url(#clip0_709_1130)">
<path d="M254.066 69.9909C252.101 69.759 250.83 69.5658 249.829 69.3725C249.174 69.2179 248.634 69.1407 248.634 69.2179C248.634 69.2566 248.557 69.1406 248.48 68.9474C248.365 68.6769 248.403 68.4836 248.711 67.9812C248.904 67.6334 249.135 67.3629 249.212 67.3629C249.289 67.3629 249.636 67.4788 249.983 67.6334C251.215 68.1745 253.642 68.445 253.912 68.0585C254.105 67.7493 253.719 67.5561 252.756 67.4402C251.562 67.2856 250.483 66.6672 250.175 65.8943C249.674 64.6962 250.252 63.4981 251.562 62.9184C253.065 62.2614 253.18 62.2228 255.106 62.2614C257.842 62.3001 260.692 62.8411 260.808 63.3435C260.846 63.4595 260.692 63.8073 260.5 64.0778C260.114 64.6576 259.806 64.6962 258.574 64.3097C257.302 63.9233 256.301 63.8846 255.992 64.1165C255.723 64.3484 255.723 64.3484 255.954 64.5416C256.108 64.6576 256.532 64.7735 256.878 64.8508C258.805 65.1213 259.768 66.1648 259.537 67.6721C259.46 68.0585 259.305 68.5609 259.19 68.7542C258.843 69.2952 257.572 69.8363 256.301 69.9909C255.145 70.0682 254.914 70.1068 254.066 69.9909ZM83.5973 69.4498C83.79 69.1793 84.4834 68.2518 85.0998 67.3629C85.7162 66.474 86.4481 65.5078 86.6793 65.16C86.9104 64.8121 87.4883 64.0778 87.912 63.4595L88.721 62.3387H91.6489C93.8447 62.3387 94.6152 62.3774 94.6923 62.532C94.8464 62.7638 95.7709 69.6431 95.6554 69.7977C95.6168 69.875 94.4996 69.9136 93.1898 69.9136H90.8013L90.6472 69.3339L90.5317 68.7928H88.6825H86.8334L86.4481 69.3725L86.0629 69.9522H83.2892L83.5973 69.4498ZM90.1079 65.8943V64.9281L89.6071 65.5078C89.3374 65.817 88.9522 66.2807 88.7981 66.474L88.4899 66.8605H90.1079V65.8943ZM109.408 69.875C109.408 69.8363 110.063 68.1358 110.872 66.0875L112.336 62.3774H114.802C116.15 62.3774 117.267 62.4547 117.344 62.4933C117.383 62.5706 116.921 63.8073 116.343 65.2373C115.726 66.6672 115.033 68.3291 114.802 68.9088L114.378 69.9522H111.913C110.487 69.9522 109.408 69.9136 109.408 69.875ZM129.402 69.6044C129.479 69.4112 130.057 67.9426 130.712 66.2807C131.367 64.6576 131.984 63.073 132.099 62.8025L132.33 62.3387L136.106 62.3774C138.186 62.416 140.112 62.4933 140.343 62.532C141.037 62.6865 141.884 63.6527 142 64.387C142.192 65.6624 141.306 67.015 140.112 67.4015C139.804 67.4788 139.534 67.6334 139.534 67.6721C139.534 67.7107 139.65 68.1745 139.842 68.7155C139.997 69.2179 140.112 69.6817 140.112 69.759C140.112 69.8363 139.188 69.875 137.993 69.875H135.874L135.489 69.0247C135.258 68.5609 135.027 68.1745 134.95 68.1358C134.873 68.1358 134.642 68.5223 134.411 68.9861L134.025 69.875H129.21L129.402 69.6044ZM136.915 66.1648C137.377 66.0102 137.839 65.3532 137.839 64.8894C137.839 64.503 137.57 64.2711 137.107 64.2711C136.761 64.2711 136.683 64.387 136.337 65.1986C136.144 65.701 135.951 66.1648 135.951 66.2035C135.951 66.358 136.414 66.3194 136.915 66.1648ZM153.788 69.875C153.788 69.7977 154.867 67.0537 155.098 66.5126C155.522 65.5851 156.6 62.6865 156.6 62.532C156.6 62.3774 157.217 62.3387 159.104 62.3387C160.491 62.3387 161.647 62.416 161.686 62.4547C161.724 62.532 161.262 63.8073 160.607 65.2759L159.451 67.9812H161.185C163.149 67.9812 163.034 67.8653 162.418 69.1793L162.109 69.875H157.949C155.637 69.9522 153.788 69.9136 153.788 69.875ZM176.71 69.1793L178.097 65.6624C178.675 64.1551 179.253 62.8025 179.33 62.6479C179.484 62.3774 179.715 62.3774 181.872 62.3774C183.721 62.3774 184.261 62.416 184.299 62.5706C184.338 62.6865 183.683 64.3484 182.874 66.3194L181.371 69.875L178.867 69.9136L176.363 69.9522L176.71 69.1793ZM199.67 66.5513L201.134 62.8798C201.211 62.7252 201.25 62.5319 201.211 62.4933C201.173 62.3001 205.179 62.3774 205.372 62.5706C205.449 62.6865 205.68 63.5754 205.911 64.5803C206.142 65.5851 206.335 66.474 206.412 66.5899C206.45 66.6672 206.874 65.7783 207.375 64.5803L208.223 62.416H210.149C212.383 62.416 212.345 62.3774 211.69 63.8073C211.15 65.044 210.611 66.3194 210.11 67.5561C209.648 68.6769 209.224 69.6817 209.147 69.759C209.032 69.8749 208.454 69.9522 207.144 69.9522H205.295L204.717 67.7107L204.139 65.4691L203.253 67.5175C202.791 68.6382 202.328 69.6817 202.251 69.759C202.174 69.8749 201.596 69.9522 200.21 69.9522H198.283L199.67 66.5513ZM224.557 69.7977L226.059 66.0102L227.523 62.3387H231.761C236.499 62.3387 236.384 62.3001 235.883 63.3435L235.575 63.9233L233.803 63.9619L232.03 64.0006L231.684 64.7735L231.337 65.5464H233.071C234.689 65.5464 234.804 65.5851 234.727 65.817C234.689 65.9716 234.573 66.2035 234.535 66.3194C234.457 66.5513 234.265 66.5899 232.685 66.5899H230.913L230.605 67.2469C230.451 67.6334 230.297 67.9426 230.297 67.9812C230.297 68.0199 231.029 68.0199 231.953 68.0199C232.878 68.0199 233.61 68.0585 233.61 68.1358C233.61 68.2131 233.456 68.6382 233.263 69.0634L232.916 69.875H228.679C226.406 69.9522 224.518 69.875 224.557 69.7977ZM69.0738 59.7493C66.1074 59.6334 65.0673 59.4788 63.1411 58.8991C59.828 57.9329 57.324 56.0392 56.3994 53.8363C55.3207 51.2856 55.3592 49.8943 56.4379 47.4981C57.3625 45.4498 59.5198 43.3242 62.178 41.817L62.7558 41.5078L61.8698 40.9667C61.369 40.6575 60.7911 40.3097 60.56 40.1551C60.3288 40.0005 60.0977 39.8073 60.0977 39.6914C60.0977 39.4595 61.7542 39.3435 66.3386 39.3049C67.9566 39.3049 69.5746 39.2276 69.8828 39.1503C70.191 39.073 71.3082 38.9571 72.3098 38.8798C80.9392 38.1841 86.6022 40.0392 88.7981 44.2904C89.6841 45.9909 89.9153 48.6189 89.3374 49.9716C88.4899 51.8653 88.1432 52.4836 87.2957 53.4498C86.7563 54.0682 86.294 54.5706 86.217 54.5706C86.1785 54.5706 85.9088 54.7252 85.6776 54.9571C84.9842 55.5754 82.8269 56.9281 82.1334 57.1986C81.7867 57.3532 81.0162 57.6624 80.4769 57.8943C79.1286 58.5126 76.4704 59.1696 73.9663 59.5175C72.8491 59.672 71.809 59.8266 71.6934 59.8653C71.5778 59.8266 70.3836 59.788 69.0738 59.7493ZM72.3868 54.3001C73.5811 53.6817 74.3516 52.8315 75.1606 51.1696C75.9311 49.6237 76.3163 48.1165 76.3163 46.5706C76.3163 44.9474 76.0852 44.3677 75.2762 43.9039C74.3131 43.3629 73.1959 43.7107 71.8475 44.9861C71.3082 45.4885 70.191 47.1503 69.9984 47.6914C69.9213 47.8846 69.7672 48.3097 69.6131 48.6189C69.1123 49.7397 69.0353 50.2034 69.0353 51.7493C69.0353 53.2566 69.0738 53.3339 69.4205 53.7976C70.2295 54.7252 71.2697 54.8798 72.3868 54.3001ZM270.593 59.015C268.205 58.8991 265.893 58.2807 264.005 57.3532C263.004 56.8508 262.503 56.4643 261.54 55.4595C260.846 54.7638 260.23 54.0682 260.153 53.8749C260.076 53.6817 259.883 53.2179 259.691 52.8315C258.419 50.1262 259.228 47.189 262.002 44.1358C262.503 43.5561 264.429 41.9716 264.622 41.9716C264.66 41.9716 265.046 41.7397 265.469 41.4691L266.201 40.9667L264.66 40.0392L263.119 39.1117L267.858 39.0344C272.288 38.9571 272.712 38.9184 273.983 38.6092C275.254 38.2614 275.601 38.2614 278.914 38.2614H282.458L284.924 38.8798C287.389 39.4981 289.123 40.1551 289.585 40.6575C289.817 40.8894 289.817 41.0054 289.662 41.4691C289.393 42.358 287.813 45.3339 287.698 45.3339C287.544 45.2952 285.694 44.5223 284.231 43.8653C282.767 43.2083 280.995 43.2469 278.028 43.9812C276.256 44.4063 275.023 44.9861 274.022 45.759C272.442 47.0344 271.864 48.387 271.98 50.3967C272.173 53.0633 274.445 54.1455 278.606 53.5271C280.455 53.2566 282.613 52.7928 283.768 52.445C284.654 52.1745 285.001 52.1745 285.001 52.4836C285.001 52.7155 283.422 56.9667 283.229 57.16C283.075 57.3532 281.765 57.8556 280.263 58.2421C278.991 58.5899 274.253 59.131 272.943 59.0923C272.173 59.131 271.364 59.0923 270.593 59.015ZM200.287 58.6672C200.325 58.5126 200.518 58.0489 200.71 57.6624C200.903 57.2759 201.365 56.0778 201.789 55.0344C202.213 53.9909 202.598 53.0633 202.675 52.9088C202.752 52.7928 203.754 50.358 204.871 47.5368L206.951 42.3967L204.101 40.9281C202.521 40.1165 201.211 39.4208 201.134 39.3435C201.057 39.2662 207.414 39.189 215.234 39.1503C227.677 39.073 229.603 39.073 230.644 39.2662C233.764 39.846 235.228 41.16 236.075 44.0585C236.807 46.6092 235.536 49.3919 232.878 51.2083C231.876 51.8653 229.449 52.8315 228.448 52.9474C228.101 52.9861 225.173 53.0633 222.014 53.102L216.236 53.2179L214.887 55.9619L213.539 58.7059L212.576 58.7445C212.036 58.7445 209.032 58.8218 205.911 58.8605C200.21 58.9764 200.171 58.9377 200.287 58.6672ZM221.552 48.4257C222.284 48.0778 222.631 47.7687 223.17 47.0344C223.517 46.5706 223.594 46.3387 223.594 45.6431C223.594 44.1745 222.785 43.5947 220.781 43.5947H220.049L219.549 44.6382C219.163 45.4885 218.817 46.3387 218.47 47.189L217.892 48.6962H219.433C220.666 48.6962 221.128 48.6189 221.552 48.4257ZM92.1882 58.474C92.2267 58.3194 93.6521 54.8025 95.3087 50.5899C97.0037 46.416 98.3521 42.7832 98.3521 42.5899C98.3521 42.1648 98.3521 42.1648 94.8078 40.3484L92.7661 39.3049L103.052 39.2662C108.715 39.2276 113.376 39.2662 113.376 39.2662C113.415 39.3049 112.182 42.358 110.68 46.0295C109.177 49.7397 107.906 52.8701 107.829 53.0247C107.752 53.2952 107.867 53.2952 112.49 53.2952C115.11 53.2952 117.306 53.3339 117.421 53.4112C117.537 53.4885 117.498 53.7204 117.267 54.2614C117.075 54.6479 116.612 55.8073 116.189 56.8508L115.418 58.7059H103.745C92.7275 58.7445 92.1112 58.7445 92.1882 58.474ZM124.78 58.7059C124.78 58.6672 125.357 57.0827 126.089 55.1503L127.399 51.6334L125.28 46.8798L123.162 42.1261L120.388 40.7735C118.847 40.0392 117.614 39.3822 117.614 39.3435C117.614 39.3049 121.698 39.2662 126.706 39.2662H135.797L136.876 41.8556C137.454 43.2856 138.07 44.7155 138.186 45.0247C138.34 45.3339 138.533 45.7976 138.61 46.0295C138.764 46.4547 138.764 46.4547 139.11 46.1841C139.303 46.0295 140.536 45.0247 141.884 43.9039C144.042 42.0875 144.273 41.8556 144.042 41.701C143.772 41.5078 141.191 40.1165 140.305 39.6914C139.997 39.5368 139.765 39.3822 139.804 39.3822C139.842 39.3435 143.233 39.3049 147.393 39.2276L154.944 39.1503L154.289 39.7687C153.942 40.1165 151.477 42.3194 148.857 44.6769C144.658 48.387 143.541 49.4305 141.268 51.4788C140.96 51.7493 140.574 52.4836 140.074 53.5658C139.688 54.4933 139.265 55.4208 139.188 55.6141C139.11 55.8073 138.764 56.6189 138.417 57.3532L137.801 58.7445L131.329 58.7832C127.707 58.7445 124.78 58.7059 124.78 58.7059ZM154.944 58.6286C154.944 58.5513 156.408 54.8798 158.18 50.4353C159.952 45.9909 161.454 42.2421 161.493 42.0875C161.531 41.8943 161.069 41.5464 159.297 40.5803C158.064 39.8846 156.986 39.2662 156.909 39.2276C156.716 39.0344 175.747 39.073 176.094 39.2276C176.248 39.3049 176.402 39.5368 176.44 39.7687C176.479 40.0005 176.98 41.5078 177.48 43.131L178.444 46.0682L179.984 44.7155C182.643 42.3967 183.182 41.8556 183.105 41.6237C183.028 41.5078 182.912 41.4305 182.797 41.3918C182.681 41.3918 181.602 40.8894 180.447 40.3097L178.328 39.2276H188.806C194.585 39.2276 199.285 39.2662 199.285 39.3435C199.285 39.4595 198.707 40.8894 198.322 41.7783C198.206 42.0102 196.627 45.8363 194.816 50.2807C193.006 54.7252 191.465 58.4353 191.388 58.5513C191.272 58.7059 189.77 58.7445 184.684 58.7445C181.063 58.7445 178.097 58.7059 178.058 58.6672C178.02 58.6286 178.444 57.2759 178.983 55.6527C179.522 54.0295 179.946 52.7155 179.946 52.6769C179.907 52.6382 178.174 54.1841 174.013 57.9716C173.551 58.3967 173.32 58.5513 173.243 58.3967C172.896 57.1986 171.201 52.1745 171.124 52.0585C171.047 51.9426 170.469 53.0634 169.699 54.8025C169.159 55.9619 168.658 57.0827 168.119 58.2035L167.888 58.7059H161.416C157.872 58.7445 154.944 58.6672 154.944 58.6286ZM236.422 58.6286C236.422 58.5126 236.923 57.2373 237.347 56.1938C237.809 55.073 242.779 42.2421 242.74 42.2421C242.702 42.2421 241.507 41.5851 240.005 40.7735C238.541 40.0005 237.27 39.3049 237.193 39.2276C237.116 39.1503 241.238 39.1117 247.209 39.1117C253.527 39.1117 257.418 39.1503 257.456 39.2662C257.495 39.3435 257.495 39.5368 257.418 39.6527C257.341 39.8073 255.569 44.0585 253.488 49.16C251.408 54.2614 249.636 58.474 249.559 58.5899C249.443 58.7445 247.941 58.7832 242.894 58.7832C239.35 58.7445 236.422 58.6672 236.422 58.6286Z" fill="#15416A"/>
<path d="M21.4153 24.9657C20.6063 23.9609 19.6046 23.1106 18.4489 22.4536C16.985 23.2652 15.3285 23.6903 13.6334 23.6903C11.9384 23.6903 10.3203 23.2652 8.81791 22.4536C7.66219 23.072 6.66057 23.9222 5.85156 24.9657C8.12448 26.5502 10.8597 27.4005 13.6334 27.4005C16.5227 27.4005 19.2194 26.5116 21.4153 24.9657Z" fill="black"/>
<path d="M13.676 0C10.0162 0 6.54909 1.42995 4.0065 4.01932C1.42539 6.57005 0 10.087 0 13.7198C0 16.9275 1.1172 20.0193 3.15897 22.4928C3.42864 22.1836 3.69831 21.8744 4.0065 21.5652C4.58436 20.9855 5.23927 20.4444 5.89418 19.9807C4.46879 18.2029 3.69831 16 3.69831 13.7198C3.69831 11.0531 4.73846 8.50242 6.62613 6.64734C8.47529 4.75362 11.0179 3.71014 13.676 3.71014V1.85507V0ZM13.676 0V3.71014C16.3342 3.71014 18.8768 4.75362 20.7259 6.64734C22.6136 8.50242 23.6538 11.0531 23.6538 13.7198C23.6538 16 22.8833 18.2029 21.4579 19.9807C20.6489 20.9855 19.6473 21.8357 18.4915 22.4928C19.6473 23.1111 20.6489 23.9614 21.4579 25.0048C22.4595 24.3092 23.3841 23.4589 24.1931 22.4928C26.2349 20.0193 27.3521 16.9275 27.3521 13.7198C27.3521 10.087 25.9267 6.6087 23.3456 4.01932C20.7645 1.42995 17.2973 0 13.676 0V0Z" fill="#FFED00"/>
<path d="M13.676 17.5464C10.7867 17.5464 8.12857 18.4353 5.89418 19.9812C4.89255 20.6768 3.96797 21.5271 3.15897 22.4932C1.1172 24.928 0 28.0585 0 31.2662C0 34.4739 1.1172 37.5657 3.15897 40.0391C3.42864 40.3483 3.69831 40.6961 4.0065 40.9667C4.58436 41.5464 5.20074 42.0488 5.89418 42.5126C8.822 44.5609 12.4818 45.3725 16.026 44.7541C17.9907 44.4063 19.8399 43.6333 21.4964 42.5126C20.6874 41.5077 19.6858 40.6575 18.5301 40.0005C17.0661 40.8121 15.3711 41.2758 13.676 41.2372C11.981 41.2372 10.3244 40.8121 8.86053 40.0005C8.05152 39.5367 7.31956 38.9957 6.62613 38.3387C6.35646 38.0681 6.12532 37.7976 5.89418 37.5271C4.46879 35.7493 3.69831 33.5464 3.69831 31.2662C3.69831 28.5995 4.73845 26.0488 6.62613 24.1937C7.28104 23.5367 8.05152 22.957 8.86053 22.4932C10.3244 21.6817 11.981 21.2565 13.676 21.2565C15.3711 21.2565 16.9891 21.6817 18.4915 22.4932C19.6473 21.8749 20.6489 21.0246 21.4579 19.9812C19.1464 18.3966 16.4498 17.5464 13.676 17.5464Z" fill="#00A6EB"/>
<path d="M23.3101 39.0715C23.6183 39.3807 23.888 39.6898 24.1576 39.999C26.4691 37.2164 27.5863 33.6609 27.2395 30.0667C25.9682 30.2599 24.7355 30.7237 23.6183 31.3807C23.6183 33.6222 22.8478 35.7478 21.4609 37.4869C22.1158 37.9507 22.7708 38.4918 23.3101 39.0715Z" fill="black"/>
<path d="M21.4219 24.9657C22.0383 25.7386 22.5391 26.6275 22.9243 27.5551C24.0415 27.014 25.2358 26.6662 26.43 26.4343C25.8907 25.0043 25.1202 23.6517 24.1186 22.4536C23.3866 23.4198 22.462 24.27 21.4219 24.9657Z" fill="white"/>
<path d="M13.676 35.0532C10.9023 35.0532 8.1671 35.9034 5.89418 37.4879C6.12532 37.7585 6.35647 38.0677 6.62613 38.2995C7.28104 38.9565 8.013 39.5363 8.86053 39.9614C10.3244 39.1498 12.0195 38.7247 13.7146 38.7247C15.4096 38.7247 17.0661 39.1498 18.5301 39.9614C18.6456 39.8841 18.7612 39.8454 18.8383 39.7681V39.8841V40.116C19.8399 40.7343 20.7259 41.5073 21.4579 42.4348C22.0743 43.2078 22.5751 44.0966 22.9603 45.0242C24.0775 44.5218 25.2718 44.1353 26.5045 43.9421C25.5414 41.314 23.7693 39.0338 21.4579 37.4107C19.185 35.9034 16.4498 35.0532 13.676 35.0532ZM3.15897 40C1.1172 42.4735 0 45.5652 0 48.773C0 53.2561 2.19587 57.4686 5.89418 60.058C6.70318 59.0532 7.70481 58.2029 8.86053 57.5459C8.05152 57.0822 7.28104 56.5024 6.62613 55.8454C6.35647 55.5749 6.12532 55.3044 5.89418 55.0338C4.46879 53.2561 3.69831 51.0532 3.69831 48.773C3.69831 46.4928 4.46879 44.2899 5.89418 42.5121C5.23927 42.0483 4.58436 41.5073 4.0065 40.9276C3.69831 40.657 3.42864 40.3479 3.15897 40Z" fill="#E60004"/>
<path d="M27.2715 47.6527C26.1157 47.8073 24.9985 48.1938 23.9584 48.7348C24.9985 49.3145 26.1157 49.6624 27.2715 49.8556C27.31 49.5078 27.31 49.1213 27.31 48.7735C27.31 48.387 27.31 48.0392 27.2715 47.6527ZM18.6806 57.6624C18.6806 58.8604 18.9117 60.0972 19.374 61.2179C20.106 60.8701 20.7994 60.4836 21.4543 60.0199C21.2232 59.7493 20.992 59.4788 20.7224 59.2083C20.106 58.6286 19.4126 58.0875 18.6806 57.6624ZM21.4158 55.0344C22.4174 55.73 23.342 56.5803 24.151 57.5464C25.1526 56.3484 25.9616 54.9571 26.501 53.4885C25.2682 53.2952 24.1125 52.9088 22.9568 52.3677C22.6101 53.3339 22.0707 54.2228 21.4158 55.0344ZM15.8298 62.3001C15.4061 61.1406 15.1364 59.9039 15.0593 58.6672C12.9405 58.9764 10.7447 58.5899 8.85698 57.5078C8.04797 57.9716 7.27749 58.5513 6.62258 59.2083C6.35291 59.4788 6.12177 59.7493 5.89062 60.0199C8.77993 62.0682 12.3627 62.8798 15.8298 62.3001Z" fill="white"/>
<path d="M20.7259 73.3918C18.8768 75.2855 16.3342 76.329 13.676 76.329C11.0179 76.329 8.47529 75.2855 6.62613 73.3918C4.73846 71.4981 3.69831 68.986 3.69831 66.3193C3.69831 64.0391 4.46879 61.8362 5.89418 60.0585C4.89255 59.3628 3.96798 58.5126 3.15897 57.5464C1.1172 59.9812 0 63.1116 0 66.2807C0 69.9135 1.42539 73.3918 4.0065 75.9812C6.54909 78.5705 10.0548 80.0005 13.676 80.0005C17.4514 80.0005 20.88 78.4546 23.3456 75.9812C24.7324 74.5899 25.8111 72.928 26.5045 71.073C25.2718 70.8797 24.0775 70.4933 22.9603 69.9908C22.421 71.2662 21.689 72.4256 20.7259 73.3918Z" fill="#00A6EB"/>
<path d="M13.6725 52.5995C10.8987 52.5995 8.16354 53.4498 5.89062 55.0343C6.12177 55.3049 6.35291 55.5754 6.62258 55.8459C7.27749 56.5029 8.04797 57.0826 8.85698 57.5464C10.7447 56.5029 12.9405 56.1165 15.0593 56.387C16.2536 56.5416 17.4093 56.928 18.488 57.5464L18.7191 57.4305V57.5851V57.6624C19.4511 58.0875 20.1445 58.6285 20.7609 59.2082C22.6101 61.0633 23.6502 63.5754 23.6887 66.2034C24.8059 66.8604 26.0387 67.2855 27.31 67.4788C27.6567 63.4595 26.2313 59.4788 23.342 56.6189C21.3002 54.5706 18.7191 53.2566 15.8684 52.7928C15.1364 52.6382 14.4044 52.5995 13.6725 52.5995Z" fill="#FFED00"/>
<path d="M15.1791 38.8784C15.1406 39.2262 15.1406 39.6127 15.1406 39.9605C15.1406 40.347 15.1791 40.7721 15.1791 41.1586C16.3349 40.9654 17.4906 40.5789 18.4922 39.9992C17.4521 39.4195 16.3349 39.033 15.1791 38.8784Z" fill="white"/>
<path d="M28.7738 26.2414C26.7706 26.2414 24.7673 26.7052 22.9182 27.5554C19.6821 29.1013 17.1781 31.8453 15.9453 35.2462C17.1781 35.4395 18.3338 35.8259 19.451 36.367C20.26 34.28 21.7239 32.5409 23.6116 31.3815C24.7288 30.7245 25.9616 30.2607 27.2329 30.0675C30.3918 29.5651 33.5508 30.6085 35.7852 32.8887C37.6729 34.7438 38.713 37.2945 38.713 39.9612C38.713 42.6279 37.6729 45.1786 35.7852 47.0337C35.0918 47.7293 34.2828 48.309 33.3967 48.8114C31.9713 49.5844 30.3533 49.9709 28.6968 49.9709C28.196 49.9709 27.6951 49.9322 27.1943 49.8549C27.1173 51.0916 26.8476 52.2897 26.4238 53.4878C27.1558 53.6037 27.9263 53.681 28.6968 53.681C31.5475 53.681 34.1672 52.7921 36.3631 51.3235C37.095 50.8211 37.7499 50.28 38.3663 49.6617C38.636 49.3912 38.8671 49.1206 39.0983 48.8501C41.2171 46.3767 42.3728 43.2462 42.3728 39.9612C42.3728 36.3284 40.9474 32.8501 38.3663 30.2607C35.8622 27.6713 32.3951 26.2414 28.7738 26.2414Z" fill="#00A6EB"/>
<path d="M20.9925 46.2217C20.3761 45.4488 19.8753 44.5599 19.4901 43.671C18.3729 44.2121 17.2171 44.5599 15.9844 44.7918C16.5237 46.2217 17.2942 47.5357 18.2573 48.7338C18.4884 48.4633 18.7581 48.1928 18.9892 47.9222C19.6056 47.2652 20.2991 46.6855 20.9925 46.2217ZM20.954 51.2072C21.5704 51.6324 22.2638 52.0575 22.9572 52.3667C23.381 51.2845 23.6121 50.1251 23.6121 48.9271C22.6105 49.5068 21.7245 50.2797 20.954 51.2072Z" fill="white"/>
<path d="M23.6158 48.9279C23.6158 50.0873 23.3847 51.2853 22.9609 52.3675C24.0781 52.8699 25.2339 53.2564 26.5052 53.4882C26.9289 52.3288 27.1986 51.1308 27.2756 49.8554C26.1199 49.6622 25.0027 49.3143 23.9626 48.7346C23.847 48.7733 23.7314 48.8506 23.6158 48.9279Z" fill="white"/>
<path d="M18.8006 39.8458C18.685 39.9231 18.6078 39.9618 18.4922 40.0392C18.6078 40.1165 18.7235 40.1552 18.8006 40.2325C18.8006 40.1552 18.8006 40.0778 18.8006 40.0005C18.8006 39.9231 18.8006 39.8844 18.8006 39.8458Z" fill="#E60004"/>
<path d="M28.665 43.8649C26.7003 43.8649 24.7355 44.29 22.9634 45.1016C21.1528 45.9519 19.5348 47.15 18.2635 48.6958C17.2233 49.8939 16.4143 51.2852 15.875 52.7925C17.1078 52.9857 18.302 53.3722 19.4192 53.8746C19.92 52.5992 20.6905 51.4785 21.6536 50.5123C22.27 49.8939 22.9249 49.3915 23.6954 48.9664V48.8118C23.6954 48.7345 23.6954 48.6572 23.6954 48.5799C23.811 48.6572 23.9265 48.7345 24.0421 48.7731C25.0822 48.2321 26.1994 47.8456 27.3552 47.691C29.474 47.3818 31.6699 47.7683 33.5575 48.8118C34.7133 48.1934 35.7534 47.3432 36.5624 46.3384C34.1739 44.7152 31.4772 43.8649 28.665 43.8649ZM39.182 48.8118C38.9509 49.0823 38.6812 49.3529 38.4501 49.6234C37.8337 50.2417 37.1788 50.7828 36.4468 51.2852C37.8722 53.063 38.6427 55.2659 38.6427 57.5461C38.6427 58.7442 38.4501 59.9422 38.0263 61.063L41.455 62.4157C42.0328 60.9084 42.341 59.2852 42.341 57.5847C42.341 54.377 41.2238 51.2852 39.182 48.8118Z" fill="black"/>
<path d="M15.062 56.3873C15.0234 56.7738 15.0234 57.1603 15.0234 57.5467C15.0234 57.9332 15.062 58.2811 15.062 58.6675C15.1775 59.9429 15.4472 61.141 15.8324 62.3004C17.7972 67.711 22.9209 71.2666 28.6609 71.2666C32.2822 71.2666 35.7494 69.8366 38.3305 67.2472C39.7173 65.8559 40.7575 64.2327 41.4509 62.4163L38.0223 61.0637C37.5215 62.4163 36.751 63.6144 35.7108 64.6192C33.515 66.8608 30.356 67.9042 27.2741 67.4405C26.0028 67.2472 24.77 66.8221 23.6528 66.1651C22.9209 65.74 22.2274 65.1989 21.6496 64.6192C19.8004 62.7641 18.7603 60.2521 18.7217 57.624C17.566 57.0057 16.3333 56.5806 15.062 56.3873Z" fill="#E60004"/>
<path d="M18.6844 57.6617C18.6844 57.623 18.6844 57.5843 18.6844 57.5843C18.6844 57.5457 18.6844 57.4683 18.6844 57.4296C18.6073 57.4683 18.5302 57.507 18.4531 57.5457L18.6844 57.6617Z" fill="#FFED00"/>
<path d="M23.6578 48.7728V48.9275C23.7734 48.8502 23.8891 48.8115 24.0047 48.7342C23.8891 48.6568 23.7734 48.6181 23.6578 48.5408C23.6192 48.6181 23.6578 48.6955 23.6578 48.7728Z" fill="#15416A"/>
</g>
<defs>
<clipPath id="clip0_709_1130">
<rect width="289.778" height="80" fill="white"/>
</clipPath>
</defs>
</svg>
