<?xml version="1.0" encoding="utf-8"?>
<!-- Generator: Adobe Illustrator 25.4.1, SVG Export Plug-In . SVG Version: 6.00 Build 0)  -->
<svg version="1.1" id="Layer_1" xmlns="http://www.w3.org/2000/svg" xmlns:xlink="http://www.w3.org/1999/xlink" x="0px" y="0px"
	 viewBox="0 0 151.23 80" style="enable-background:new 0 0 151.23 80;" xml:space="preserve">
<style type="text/css">
	.st0{fill:#0D2B60;}
	.st1{fill:#D6430D;}
	.st2{fill:#F5A300;}
	.st3{fill:#AABC14;}
</style>
<g>
	<path class="st0" d="M151.17,73.66c0.51,1.75-2.22,4.67-2.21,6.25c-0.53,0-1.06,0-1.59,0c0.3-1.03,0.64-1.82,1.1-2.94
		c0.49-1.16,1.98-3.25,0.12-3.68c-3.76-0.86-4.02,4.54-5.39,6.62c-0.49,0-0.98,0-1.47,0c1.01-2.46,2.02-4.93,3.06-7.35
		c0.41,0,0.82,0,1.23,0c0.47-0.02,0.05,0.1,0.12,0.37C147.73,72.55,150.74,72.2,151.17,73.66z"/>
	<path class="st0" d="M141.98,70.73c0,0.12,0,0.24,0,0.37c-0.61,0.69-1.92,0.69-2.7,1.22C139.35,71.51,141.09,70.71,141.98,70.73z"
		/>
	<path class="st0" d="M141.98,73.54c-0.38-0.87-2.28-1.04-3.31-0.98c-3.85,0.22-4.73,3.15-5.27,6.37c1.54,1.5,5.08,1.31,6.62-0.12
		C140.81,78.08,142.47,74.65,141.98,73.54z M135.12,78.81c-0.09-2.83,1.91-6.82,5.27-5.02C140.03,76.66,138.64,80.29,135.12,78.81z"
		/>
	<path class="st0" d="M134.88,71.09c-0.1,0.31-0.33,0.48-0.37,0.86c-0.53,0-1.06,0-1.59,0c0.16-0.33,0.33-0.65,0.49-0.98
		C134.07,71.14,134.15,70.95,134.88,71.09z"/>
	<path class="st0" d="M132.67,72.56c0.49,0,0.98,0,1.47,0c-0.87,2.56-2.02,4.84-2.94,7.35c-0.53,0-1.06,0-1.59,0
		C130.66,77.49,131.68,75.04,132.67,72.56z"/>
	<path class="st0" d="M127.4,72.56c1.41-0.05,3.84,0.09,3.31,1.96c-0.49,0-0.98,0-1.47,0c-0.43,0.07,0.12-0.84-0.37-0.98
		c-2.57-0.92-3.75,0.61-4.53,2.45c-0.33,0.77-1,1.89-0.86,2.45c0.38,1.43,3.79,0.79,4.17-0.49c0.49,0,0.98,0,1.47,0
		c-0.46,2.25-5.66,2.65-7.11,0.98C122.53,75.82,123.45,72.7,127.4,72.56z"/>
	<path class="st0" d="M121.77,73.79c0.42,1.81-2.22,4.42-2.21,6.13c-0.57,0-1.14,0-1.72,0c0.59-1.33,1.11-2.73,1.72-4.04
		c-4.29-1.46-7.26,4.52-2.08,3.06c-0.52,1.87-4.28,0.89-4.41-0.25c-0.32-2.81,3.34-3.92,6.74-3.55c0.2-0.37,0.4-0.77,0.25-1.23
		c-0.59-1.76-3.89,0.91-4.04-0.86C117.73,72.57,121.36,72.01,121.77,73.79z"/>
	<path class="st0" d="M114.17,70.97c0.35,0.28-0.2,0.69-0.25,0.98c-0.49,0-0.98,0-1.47,0c0.08-0.37,0.26-0.64,0.37-0.98
		C113.28,71.08,113.85,71.07,114.17,70.97z"/>
	<path class="st0" d="M112.21,72.56c0.49,0,0.98,0,1.47,0c-1.02,2.45-2.03,4.91-3.06,7.35c-0.49,0-0.98,0-1.47,0
		C110.11,77.4,111.15,74.97,112.21,72.56z"/>
	<path class="st0" d="M109.27,72.81c0.49,0,0.98,0,1.47,0c-1.95,2.42-3.99,4.75-6,7.11c-0.65,0-1.31,0-1.96,0
		c0.15-2.35,0.31-4.67,0.49-6.98c0.49,0,0.98,0,1.47,0c-0.06,1.94-0.31,3.69-0.37,5.64C105.92,77.05,107.62,74.63,109.27,72.81z"/>
	<path class="st0" d="M97.02,71.46c0.29,0.08,0.89-0.15,0.98,0.12c-1.85,2.97-4.18,5.45-6.13,8.33c0.53,0,1.06,0,1.59,0
		c0.68-0.64,0.98-2.24,2.08-2.57c0.96-0.29,2.21,0.1,3.43,0.12c-0.01,0.84,0.07,1.78-0.12,2.45c0.53,0,1.06,0,1.59,0
		c0.05-2.93,0.15-5.81,0.25-8.7C100.04,70.78,97.29,70.4,97.02,71.46z M98.98,76.36c-0.94,0-1.88,0-2.82,0
		c0.83-1.41,1.95-2.55,2.82-3.92C99.25,73.53,99.1,75.25,98.98,76.36z"/>
	<path class="st0" d="M85.51,76.6c0.23-1.28,1.36-2.24,0.61-3.31c-0.94-1.35-5.23-0.76-6.49,0.49c-0.52,0.52-2.16,3.91-1.96,4.9
		c0.45,2.19,7.21,1.47,7.23-0.86c-0.49,0-0.98,0-1.47,0c-0.39,1.19-3.04,1.94-4.17,0.86c-0.18-0.68,0.21-1.61,0.61-2.08
		C81.75,76.6,83.63,76.6,85.51,76.6z M84.65,73.79c0.13,0.99-0.33,1.39-0.49,2.08c-1.35,0-2.7,0-4.04,0
		C80.27,73.89,82.83,72.56,84.65,73.79z"/>
	<path class="st0" d="M77.05,70.85c-0.34,0.52-0.44,1.27-0.86,1.72c-1.99,0.1-4.29-0.24-5.76,1.23c-0.66,0.66-2.24,4.01-1.96,5.02
		c0.39,1.42,3.38,1.27,4.9,0.74c-0.45,0.64,0.99,0.27,1.47,0.37c1.23-3.1,2.9-6.41,3.8-9.43C78.18,70.67,77.65,70.79,77.05,70.85z
		 M70.07,78.81c0.34-2.98,1.37-6.3,5.88-5.51C74.87,75.82,74.16,80.5,70.07,78.81z"/>
	<path class="st0" d="M61.99,73.91c0.31,1.75-2.16,4.2-2.21,6c-0.57,0-1.14,0-1.72,0c0.57-1.35,1.12-2.72,1.72-4.04
		c-2.82-0.32-5.16,0.46-4.9,2.82c0.38,0.73,2.1,0.55,2.82,0.25c-0.48,1.84-4.28,0.92-4.41-0.25c-0.3-2.74,3.26-3.93,6.62-3.55
		c0.36-0.23,0.53-0.75,0.37-1.23c-0.58-1.74-3.9,0.9-4.04-0.86C58.06,72.53,61.66,72.04,61.99,73.91z"/>
	<path class="st0" d="M53.04,73.66c0.53,1.77-2.19,4.7-2.21,6.25c-0.53,0-1.06,0-1.59,0c0.5-2.16,2.05-3.9,2.08-6.13
		c-4.27-1.99-4.89,3.6-6.25,6.13c-0.49,0-0.98,0-1.47,0c1.04-2.44,2.03-4.91,3.06-7.35c0.41,0,0.82,0,1.23,0
		c0.41-0.08,0.2,0.25,0.12,0.37C49.59,72.53,52.61,72.21,53.04,73.66z"/>
	<path class="st0" d="M44.1,73.54c0.77,1.72-2.14,4.8-2.21,6.37c-0.53,0-1.06,0-1.59,0c0.5-1.34,1.1-2.58,1.59-3.92
		c-4.07-1.81-7.25,4.42-1.96,2.94c-0.54,1.79-4.12,0.95-4.41-0.12c-0.22-0.82,0.47-2.09,0.98-2.57c1.13-1.07,3.55-1.17,5.64-1.1
		c1.57-1.99-2.21-2.25-3.19-1.23c0.03-0.48-0.52-0.38-0.49-0.86C40.17,72.61,43.44,72.06,44.1,73.54z"/>
	<path class="st0" d="M35.28,70.97c0.51,0.17,0.76-0.03,1.47,0c-0.02,0.43-0.35,0.55-0.37,0.98c-0.49,0-0.98,0-1.47,0
		C34.89,71.47,35.18,71.31,35.28,70.97z"/>
	<path class="st0" d="M34.55,72.56c0.49,0,0.98,0,1.47,0c-0.84,2.59-2.01,4.85-2.94,7.35c-0.49,0-0.98,0-1.47,0
		C32.46,77.34,33.64,75.09,34.55,72.56z"/>
	<path class="st0" d="M32.46,72.81c0.45,0,0.9,0,1.35,0c-1.91,2.46-3.98,4.76-6,7.11c-0.64-0.06-1.52,0.13-1.96-0.12
		c0.2-2.25,0.37-4.53,0.49-6.86c0.49,0,0.98,0,1.47,0c-0.05,1.95-0.23,3.77-0.37,5.64C29.08,77.1,30.68,74.53,32.46,72.81z"/>
	<path class="st0" d="M25.73,70.97c0.27,0.2-0.17,0.72-0.25,0.98c-0.49,0-0.98,0-1.47,0c0.02-0.35,0.23-0.51,0.25-0.86
		C24.83,70.88,25.17,71.19,25.73,70.97z"/>
	<path class="st0" d="M23.64,72.56c0.49,0,0.98,0,1.47,0c-0.83,2.6-2,4.86-2.94,7.35c-0.49,0-0.98,0-1.47,0
		C21.57,77.35,22.76,75.11,23.64,72.56z"/>
	<path class="st0" d="M22.54,70.48c0.21-0.04,0.23,0.1,0.25,0.25c-1.37,2.96-2.63,6.03-3.8,9.19c-0.53,0-1.06,0-1.59,0
		c1.17-3.04,2.46-5.95,3.68-8.94C21.44,70.68,22.22,70.81,22.54,70.48z"/>
	<path class="st0" d="M14.82,72.69c-1.39,0.09-2.41,0.28-3.19,0.98c-0.6,0.55-2.4,4.01-2.08,5.15c0.57,2.07,5.71,0.96,6.74-0.12
		c0.36-0.38,0.97-1.7,1.23-2.33C18.68,73.56,18.01,72.48,14.82,72.69z M11.15,78.69c0.12-2.62,1.99-6.74,5.39-4.9
		C16.14,76.4,14.71,80.68,11.15,78.69z"/>
	<path class="st0" d="M10.05,71.95c-0.55-1.93-5.34-0.86-7.47-0.98c-0.03,0.09,0,0.24-0.12,0.25c-0.06,0.51,0.86,0.04,0.86,0.49
		C2.27,74.5,1.07,77.14,0,79.91c4.31,0.07,8.89,0.4,8.94-3.8c-0.08-0.49-0.6-0.54-0.74-0.98C9.28,74.63,10.4,73.19,10.05,71.95z
		 M1.84,78.93c0.34-1.17,0.81-2.21,1.35-3.19c1.61,0.07,3.64-0.29,4.29,0.74C7.34,79.05,4.56,78.96,1.84,78.93z M3.55,74.77
		c0.29-1.06,0.86-1.83,1.1-2.94c1.43,0.08,3.33-0.31,3.92,0.61C8.57,74.88,6.13,74.9,3.55,74.77z"/>
	<path class="st0" d="M117.35,63.81c0,0-1.67-13.91-1.96-16.33c-0.93-7.68-1.36-12.21-2.07-13.14c-2.47-0.51-5.84-0.12-8.7-0.24
		c-0.25,0.61-1.67,1.2-1.23,1.72c0.39-0.07,1.67-0.27,1.96,0.37c-0.43,1.53-1.68,2.69-2.7,3.8c-6.71,7.33-13.49,14.59-20.21,22.17
		c-0.51,0.58-1.33,1.1-1.23,1.59c1.31,0,2.61,0,3.92,0c3.61-3.91,20.53-22.69,22.66-24.62c0.32,3.19,3.06,24.62,3.06,24.62
		L117.35,63.81z"/>
	<path class="st0" d="M84.9,48.06c-0.56-4.25-9.61-4.28-14.09-4.04c-5.24,0.28-10.43,1.29-12.99,4.41c-1.17,1.43-1.73,3.37-2.7,5.64
		c-0.78,1.84-2.05,4.12-1.72,5.88c0.68,3.53,7.01,3.8,11.52,3.8c5.11,0,9.85-0.66,12.86-2.45c2.89-1.71,3.81-4.25,5.27-7.6
		C83.77,52.07,85.16,50.05,84.9,48.06z M76.44,53.33c-1.18,2.77-1.8,5.31-4.04,6.74c-2.62,1.67-10.43,2.64-12.86-0.37
		c-0.09-2.1,1.05-3.99,1.84-5.76c0.78-1.76,1.33-3.72,2.45-5.02c1.67-1.94,4.83-2.79,8.45-2.82c2-0.01,5.37,0.24,5.88,1.96
		C78.61,49.58,77.03,51.96,76.44,53.33z"/>
	<path class="st0" d="M55,39.24c-0.41-3.22-5.73-4.57-7.11-4.66c-7.55-0.45-18.11-0.63-26.83-0.49c-0.1,0.64-0.58,0.89-0.61,1.59
		c0.75,0.05,2.33-0.11,2.57,0.98c0.18,0.82-0.84,2.5-1.23,3.43c-3.21,7.88-6.77,16.35-9.68,23.64c12.76-0.19,32.14,1.76,38.22-6
		c0.78-1,1.55-2.43,1.72-3.92c0.51-4.54-3.58-4.57-6.98-5.39c3.32-0.75,6.86-2.38,8.58-4.9C54.4,42.44,55.19,40.71,55,39.24z
		 M45.2,53.45c0.31,2.68-2.2,5.37-4.04,6.49c-4.94,3.01-14.43,1.57-21.81,1.96c1.79-4.05,3.32-8.36,5.27-12.25
		C28.65,49.9,44.53,47.67,45.2,53.45z M43.98,45.98c-4.33,2.49-12.92,1.9-18.62,1.96c1.48-4.12,3.18-8.01,4.78-12.01
		c0.09-0.11,0.22-0.19,0.37-0.25c3.25,0.08,6.49-0.1,10.05,0c2.87,0.08,6.75,0.46,7.47,2.45C49.2,41.38,45.97,44.83,43.98,45.98z"/>
	<path class="st1" d="M139.01,0c0,0-4.03,1.36-6.81,6.21c-2.64,4.61-7.95,19.11-9.42,25.32c-1.03,4.36-4.62,9.62-5.63,11.62
		c-4.66,9.23-9.31,10.67-11.08,10.75c-5.06,0.24-7.54-3.27-7.54-3.27l2.89-0.24c0,0,2.09,1.98,5.2,0.14
		c3.48-2.07,6.1-8.22,8.06-13.12c2.79-6.97,5.66-18.09,7.02-20.8c5.99-11.87,8.38-13.11,11.27-14.86C135.94-0.05,139.01,0,139.01,0z
		"/>
	<path class="st1" d="M136.32,2.4C134.88,3.4,133,5.8,133,5.8s3.2-5.36,6.67-4.87c4.66,0.65,7.35,9.8,7.35,9.8s-3.43-5.29-6.37-7.7
		C139.46,2.04,137.53,1.55,136.32,2.4z"/>
	<path class="st2" d="M142.5,11.35c0,0-4.52,0.54-7.3,5.39c-2.64,4.61-3.87,6.56-6.7,12.25c-2,4.01-6.34,13.87-7.35,15.87
		c-4.66,9.23-8.74,10.26-10.51,10.34c-5.06,0.24-8.11-2.86-8.11-2.86l2.89-0.24c0,0,2.13,1.7,4.82-0.49
		c5.23-4.25,8.31-14.63,11.73-21.32c1.91-3.73,4.5-8.68,6.29-11.13c3.1-4.27,6.01-6.7,9.5-7.68
		C139.61,10.97,142.5,11.35,142.5,11.35z"/>
	<path class="st2" d="M136.32,15.95c0,0,2.75-4.27,6.21-3.69c4.27,0.72,7.13,10.52,7.13,10.52s-4.5-8.05-8.11-9.58
		C139.42,12.3,136.32,15.95,136.32,15.95z"/>
	<path class="st3" d="M138.69,28.42c0,0-4.03,0.49-6.37,4.3c-1.4,2.27-6.72,11.54-6.72,11.54s-3.99,5.63-5.36,7.4
		c-1.91,2.45-5.28,4.52-7.05,4.6c-4.68,0.22-6.34-2.48-6.34-2.48l2.15-0.16c0,0,2.1,1.14,4,0.11c2.76-1.5,5.98-7.06,7.62-9.64
		c1.43-2.26,4.14-6.44,5.88-8.93c1.63-2.34,5.02-5.62,8.49-6.64C136.39,28.11,138.69,28.42,138.69,28.42z"/>
	<path class="st3" d="M133.99,31.38c0,0,2.21-2.54,4.19-2.25c3.12,0.47,4.57,7.23,4.57,7.23s-2.37-5.39-4.82-6.53
		C136.49,29.16,133.99,31.38,133.99,31.38z"/>
</g>
</svg>
