<?xml version="1.0" encoding="utf-8"?>
<!-- Generator: Adobe Illustrator 25.4.1, SVG Export Plug-In . SVG Version: 6.00 Build 0)  -->
<svg version="1.1" id="Layer_2_00000159471598350358213750000014612203606435250611_"
	 xmlns="http://www.w3.org/2000/svg" xmlns:xlink="http://www.w3.org/1999/xlink" x="0px" y="0px" viewBox="0 0 284.4 80"
	 style="enable-background:new 0 0 284.4 80;" xml:space="preserve">
<style type="text/css">
	.st0{fill:#01B89C;}
	.st1{fill:#00ADEF;}
	.st2{fill:#323471;}
</style>
<polygon class="st0" points="271.1,0.6 284.4,0.6 200.1,80 187.6,80 "/>
<polygon class="st1" points="247.9,0 261.2,0 176.9,79.4 164.3,79.4 "/>
<g>
	<path class="st2" d="M46.2,21.5h-12c-9.8,0-21.2,8.2-24.9,18L1.2,60.9c-3.8,9.8,1.5,18,11.2,18h12c9.8,0,21.2-8.2,24.9-18l8.1-21.5
		C61.2,29.7,55.9,21.5,46.2,21.5z M41.2,60.9c-2,5.2-8.2,9.5-13.5,9.5h-12c-5.2,0-8.2-4.4-6.2-9.5l7.9-21.5c2-5.2,8.2-9.5,13.5-9.5
		h12c5.2,0,8.2,4.4,6.2,9.5L41.2,60.9z"/>
	<path class="st2" d="M160.9,55l-2.1,5.6c-2,5.2-8.3,9.8-13.6,9.8h-12.4c-5.2,0-8.1-4.8-6.1-9.8l7.8-21.1c2-5.2,8.3-9.8,13.6-9.8
		h14.8l3.2-8.2h-14.8c-9.8,0-21.2,8.2-24.9,18l-7.8,21.1c-3.8,9.8,1.5,18,11.2,18h12.4c9.8,0,21.2-8.2,24.9-18l2.1-5.6H160.9z"/>
	<path class="st2" d="M91.2,56.3L91.2,56.3c9.3,0,20.6-6.4,24.1-15.6l1.3-3.5c3.5-9.2-0.5-15.6-9.7-15.6H80h-4.2L54.4,78.4h8.2
		c0,0,15.8-41.8,18.3-48.8c5.7,0,20.3,0,20.3,0c6.8,0,7.7,5.7,7.1,7.4l-1.3,3.5c-0.6,1.8-5.7,7.4-12.7,7.4h-6.4h-2.9h-3.8l-1.9,4.9
		l2.3,5.3l11.1,20.4h10.5L92,58.2L91.2,56.3z"/>
</g>
</svg>
