<?xml version="1.0" encoding="utf-8"?>
<!-- Generator: Adobe Illustrator 25.4.1, SVG Export Plug-In . SVG Version: 6.00 Build 0)  -->
<svg version="1.1" id="Layer_2_00000159471598350358213750000014612203606435250611_"
	 xmlns="http://www.w3.org/2000/svg" xmlns:xlink="http://www.w3.org/1999/xlink" x="0px" y="0px" viewBox="0 0 757.2 80"
	 style="enable-background:new 0 0 757.2 80;" xml:space="preserve">
<style type="text/css">
	.st0{fill:#01B89C;}
	.st1{fill:#00ADEF;}
	.st2{fill:#323471;}
	.st3{fill:#595757;}
</style>
<g>
	<polygon class="st0" points="271.1,0.6 284.4,0.6 200.1,80 187.6,80 	"/>
	<polygon class="st1" points="247.9,0 261.2,0 176.9,79.4 164.3,79.4 	"/>
	<g>
		<path class="st2" d="M46.2,21.5h-12c-9.8,0-21.2,8.2-24.9,18L1.2,60.9c-3.8,9.8,1.5,18,11.2,18h12c9.8,0,21.2-8.2,24.9-18
			l8.1-21.5C61.2,29.7,55.9,21.5,46.2,21.5z M41.2,60.9c-2,5.2-8.2,9.5-13.5,9.5h-12c-5.2,0-8.2-4.4-6.2-9.5l7.9-21.5
			c2-5.2,8.2-9.5,13.5-9.5h12c5.2,0,8.2,4.4,6.2,9.5L41.2,60.9z"/>
		<path class="st2" d="M160.9,55l-2.1,5.6c-2,5.2-8.3,9.8-13.6,9.8h-12.4c-5.2,0-8.1-4.8-6.1-9.8l7.8-21.1c2-5.2,8.3-9.8,13.6-9.8
			h14.8l3.2-8.2h-14.8c-9.8,0-21.2,8.2-24.9,18l-7.8,21.1c-3.8,9.8,1.5,18,11.2,18h12.4c9.8,0,21.2-8.2,24.9-18l2.1-5.6H160.9z"/>
		<path class="st2" d="M91.2,56.3L91.2,56.3c9.3,0,20.6-6.4,24.1-15.6l1.3-3.5c3.5-9.2-0.5-15.6-9.7-15.6H80h-4.2L54.4,78.4h8.2
			c0,0,15.8-41.8,18.3-48.8c5.7,0,20.3,0,20.3,0c6.8,0,7.7,5.7,7.1,7.4l-1.3,3.5c-0.6,1.8-5.7,7.4-12.7,7.4h-6.4h-2.9h-3.8l-1.9,4.9
			l2.3,5.3l11.1,20.4h10.5L92,58.2L91.2,56.3z"/>
	</g>
	<g>
		<path class="st3" d="M323.2,50.2c0,7.4-6.1,13.4-13.5,13.4s-13.5-5.8-13.5-13.4c0-7.3,6.1-13.4,13.5-13.4
			C317.2,36.8,323.2,42.9,323.2,50.2 M299.1,50.2c0,5.8,4.8,10.7,10.6,10.7c5.8,0,10.6-4.9,10.6-10.7s-4.7-10.7-10.6-10.7
			S299.1,44.4,299.1,50.2z"/>
		<path class="st3" d="M336.9,63.2H334v-26h3.8c4.9,0,9.5,1.3,9.5,7.1c0,4-2.5,6.7-6.4,7.1L349,63h-3.5l-7.8-11.4h-0.8V63.2
			 M336.9,49.2h0.9c3.3,0,6.4-0.6,6.4-4.7c0-4.3-3.2-4.7-6.6-4.7h-0.8V49.2z"/>
		<rect x="359.6" y="37.2" class="st3" width="2.9" height="25.9"/>
		<polygon class="st3" points="374.5,37.2 387.9,37.2 387.9,40 377.4,40 377.4,47.6 387.6,47.6 387.6,50.3 377.4,50.3 377.4,60.4 
			387.9,60.4 387.9,63.2 374.5,63.2 		"/>
		<polygon class="st3" points="399.8,36.2 419.9,57.3 419.9,37.2 422.8,37.2 422.8,64.4 402.7,43.3 402.7,63.2 399.8,63.2 		"/>
		<polygon class="st3" points="441.9,63.2 439.1,63.2 439.1,40 432.8,40 432.8,37.2 448.3,37.2 448.3,40 441.9,40 		"/>
		<path class="st3" d="M459.3,55.9l-3.2,7.3h-3.3l12-27.1l11.6,27.1h-3.3l-3-7.3H459.3 M464.7,42.8l-4.4,10.3h8.7L464.7,42.8z"/>
		<polygon class="st3" points="489.1,60.4 496.1,60.4 496.1,63.2 486,63.2 486,37.2 489.1,37.2 		"/>
		<path class="st3" d="M527.2,55.9l-3.2,7.3h-3.2l11.9-27.1l11.6,27.1H541l-3-7.3H527.2 M532.7,42.8l-4.4,10.3h8.7L532.7,42.8z"/>
		<rect x="554.2" y="37.2" class="st3" width="2.9" height="25.9"/>
		<path class="st3" d="M572,63.2h-2.9v-26h3.8c4.9,0,9.5,1.3,9.5,7.1c0,4-2.5,6.7-6.4,7.1l8.2,11.6h-3.5l-7.8-11.4H572V63.2
			 M572,49.2h0.9c3.3,0,6.4-0.6,6.4-4.7c0-4.3-3.2-4.7-6.6-4.7h-0.9L572,49.2L572,49.2z"/>
		<path class="st3" d="M612,37.2h4.3c4.8,0,8.6,1.8,8.6,6.9c0,2.1-0.8,3.9-2.5,5c3.2,0.8,4.9,3.5,4.9,6.6c0,5.2-4.2,7.2-9.2,7.2
			h-5.9V37.2 M614.9,48.7h1.1c3.3,0,5.9-0.4,5.9-4.4c0-3.9-2.5-4.4-5.9-4.4h-1.1V48.7 M614.9,60.4h2.9c3.3,0,6.6-0.8,6.6-4.8
			s-3.9-4.7-6.9-4.7h-2.5V60.4L614.9,60.4z"/>
		<path class="st3" d="M641.1,63.2h-2.9v-26h3.8c4.9,0,9.5,1.3,9.5,7.1c0,4-2.5,6.7-6.4,7.1l8.2,11.6h-3.5l-7.8-11.4h-0.8
			L641.1,63.2 M641.1,49.2h0.9c3.3,0,6.4-0.6,6.4-4.7c0-4.3-3.2-4.7-6.6-4.7H641L641.1,49.2L641.1,49.2z"/>
		<rect x="663.7" y="37.2" class="st3" width="2.9" height="25.9"/>
		<path class="st3" d="M678.7,37.2h4.9c3.9,0,6.9,0.5,10.1,3.2c3,2.5,4.3,5.9,4.3,9.8c0,3.8-1.4,7.1-4.3,9.6
			c-3.2,2.8-6.1,3.3-10.2,3.3h-4.8L678.7,37.2 M683.6,60.4c3.2,0,5.7-0.5,8.1-2.6c2.1-2,3.3-4.8,3.3-7.6c0-3-1.1-5.7-3.4-7.7
			c-2.4-2.1-5-2.5-7.9-2.5h-2.1v20.4H683.6z"/>
		<path class="st3" d="M732.8,50.1c0.1,3.5-0.3,6.3-2.6,9.1c-2.4,2.8-5.9,4.4-9.6,4.4c-7.2,0-13.4-5.9-13.4-13.4
			c0-7.3,5.9-13.5,13.5-13.5c4.5,0,8.2,2,11,5.6l-2.1,2c-2.1-3-5.2-4.9-8.8-4.9c-5.8,0-10.6,5-10.6,10.9c0,2.8,1.1,5.4,3,7.3
			c1.9,1.9,4.7,3.3,7.3,3.3c4.5,0,9.2-3.3,9.2-8.1H722v-2.6H732.8L732.8,50.1z"/>
		<polygon class="st3" points="743.8,37.2 757.2,37.2 757.2,40 746.7,40 746.7,47.6 756.9,47.6 756.9,50.3 746.7,50.3 746.7,60.4 
			757.2,60.4 757.2,63.2 743.8,63.2 		"/>
	</g>
</g>
</svg>
