<?xml version="1.0" encoding="utf-8"?>
<!-- Generator: Adobe Illustrator 25.4.1, SVG Export Plug-In . SVG Version: 6.00 Build 0)  -->
<svg version="1.1" id="Layer_1" xmlns="http://www.w3.org/2000/svg" xmlns:xlink="http://www.w3.org/1999/xlink" x="0px" y="0px"
	 viewBox="0 0 72.67 80" style="enable-background:new 0 0 72.67 80;" xml:space="preserve">
<style type="text/css">
	.st0{fill-rule:evenodd;clip-rule:evenodd;fill:#EC1C24;}
</style>
<path class="st0" d="M72.08,20.08c-0.8-0.6-2.21,0.2-4.42-0.6c-0.6-0.2-2.21-1-2.61-1c0.2-0.6,0.4-1.41,0.4-2.01
	c-0.2-0.6-0.8-0.8-1.2-1.2l-3.21-1.81c-4.82-2.81-3.61-4.62-5.22-4.62c-0.4,0-1.2,0.4-1.41,0.6c-0.2,0.2-0.4,0.4-0.6,0.6
	c-0.2,0.2-0.2,0.6-0.4,0.8c-1.2-0.8-1.2-1.2-3.41-2.01l-1.81-0.6c-2.81-0.8-3.41-2.21-4.62-0.4c-0.4,0.6-0.4,1.2-0.4,2.01
	c-2.01,0,0-0.6-4.42,0h-1.2c-0.8,0-1.81,0.4-3.41,0.2h-0.4h-0.2c-0.4,0-0.6,0.4-0.6,0.8c-0.2,1.41,0,1.81,0.2,3.21
	c-2.61,0-4.22,0.6-6.83,0.6c-1,1.61,0,3.61,1,5.22c0.2,0.4,0.4,0.6,0.6,1c-0.6,0.2-1,0.4-1.81,0.4c-1,0.2-0.8,0.4-0.6,1.2l0.6,2.81
	c0,0.2,0.2,0.6,0.2,0.8c0.8,3.41,1.81,6.63,3.61,9.44c0.8,1.41,1.61,2.81,2.41,4.02c3.81,5.22,2.21,3.61,6.02,1.41l0.6-0.4
	c0.2-0.2,0.4-0.2,0.6-0.2c1.41-0.6,2.61-1,4.02-1.2c2.21-0.4,3.61-0.4,5.62,0.2c0.6,0.2,1,0.2,1.41,0.4
	c3.01,1.2,5.62,2.81,7.43,5.62c0.4,0.8,1,1.61,1.41,2.41c2.61,5.82,1,13.45-3.81,17.47l-4.22,2.81c-1.41,0.8-2.81,1.2-4.42,1.61
	c-0.2,0-1.61,0.2-1.81,0.2c-0.6,0-0.4-0.6-0.4-1.41c1.41-0.4,2.41-0.4,4.02-0.8c0.4-0.2,0.4-0.2,0.6-0.2c0.2,0,0.4-0.2,0.6-0.2
	c6.02-2.81,9.03-10.24,6.83-16.66c-0.2-0.6-0.6-1.2-0.8-1.81c-2.01-3.61-5.02-5.62-9.03-6.83c-2.01-0.6-4.82-0.4-6.83,0.4
	c-1.2,0.4-2.41,1-3.41,1.81c-1,0.8-2.41,2.21-3.01,2.41c-1-0.6-2.81-2.61-3.61-3.81c-0.2-0.4-0.4-0.6-0.6-0.8
	c-1.41-1.61-2.41-3.61-3.41-5.42l-1.41-3.01c-1.41-3.01-2.61-7.03-3.21-10.24l-0.6-3.81v-1.41c-0.4-2.21-0.4-5.02-0.4-7.43
	c0-0.8,0.2-0.8,0.2-1.41c0-0.8,0.2-4.02,0.4-4.62l0.8-4.22c-0.6,0-0.4-0.2-1-0.2c-1.41-0.2-3.21-0.4-4.62,0.2
	c-0.8,0.4-1.81,1-2.41,1.61c-2.01,2.01-3.21,5.22-3.21,8.03v0c0,2.01-0.2,4.22,0.2,6.22c0.2,1.41,0.4,2.81,1,4.22
	c1.2,3.61,1.2,4.02,2.81,7.63c0.4,0.8,0.8,1.61,1.2,2.41c0.2,0.4,0.4,0.6,0.6,1.2l2.01,3.21l0.2,0.2l1.2,1.81c0.4,0.4,0.4,0.6,0.8,1
	l2.41,2.81c0.4,0.6,1.2,1.2,1.81,1.81l1.61,1.61c0.6,0.6,1.2,1,1.81,1.61c1,1,3.21,2.21,3.81,3.21l-0.6,1.41
	c-1.81-1-3.61-2.21-5.22-3.41l-8.03-7.43l-0.2-0.2l-4.62-6.02l-1.81-3.41c-0.2-0.4-0.4-0.8-0.6-1.2c-1.41-2.61-3.41-8.03-3.41-10.64
	c-1,0-2.01,0.4-2.81,0.8c-0.6,0.4-0.8,0.8-1.2,1.2c-3.01,3.81-1.81,9.03,0.4,13.05c1.81,3.21,4.62,6.22,7.43,8.63
	c0.09,0.09,0.12,0.12,0.13,0.13c-0.01-0.01-0.02-0.02-0.03-0.03c0.02,0.02,0.05,0.05,0.1,0.1l0.2,0.2c3.81,3.21,5.42,4.02,9.64,6.42
	c2.41,1.41,5.22,2.41,7.63,3.61c0.2,0.2,0.4,0.2,0.6,0.2c0.4,0.2,1,0.4,1.41,0.4c-0.4,1,0.6,1.81-1,1.41
	c-2.21-0.6-4.62-1.2-6.83-2.01l-4.22-1.61c-2.61-1.2-5.22-2.41-7.63-4.02c-0.4-0.2-0.6-0.4-0.8-0.6c-2.01-1.2-3.81-2.81-5.62-4.62
	c-0.6-0.6-2.41-2.41-2.61-3.41c-0.8,0-1.2,1-1.61,1.41c-0.2,0.4-0.4,0.6-0.4,1.2c0,0.2-0.2,0.4-0.2,0.6c-0.4,1.41-0.2,3.41,0.4,4.62
	c0.6,1.61,1.81,3.01,3.21,4.22c0.2,0.2,0.4,0.4,0.6,0.6s0.4,0.4,0.8,0.4c1,0.6,1.81,1.2,3.01,1.81c2.01,1,4.02,1.61,6.22,2.21
	c1.61,0.4,3.61,0.8,5.22,1l2.21,0.2c2.01,0.2,5.02,0.2,7.03,0.2c2.21-0.2,1.81-0.6,2.21,1c0.2,0.4,0.2,0.2,0.2,0.6
	c-0.8,0-0.6,0.2-1,0.2c-0.6,0-0.8,0-1.41,0.2c-2.01,0.4-6.22,0.6-8.23,0.6c-4.22,0-9.24-1-12.65-2.41c-1-0.4-2.01-0.8-3.01-1.41
	c-0.6-0.4-1.2-1-1.81-1c0,0.2-0.2,0.6-0.2,0.8c-0.6,2.21,0,4.82,1.81,6.22c0.2,0.2,0.4,0.2,0.6,0.6c2.81,2.61,6.83,3.01,10.64,3.01
	c1,0,1.61-0.2,2.21-0.2c1-0.2,1.41-0.2,2.41-0.4c0.2,0,0.8-0.2,1-0.2c2.81-0.8,4.22-1.2,7.23-2.41h0.2c1-0.4,2.41-1.2,3.41-1.41
	c0.4,0.4,0.6,1.2,1,1.61c-0.2,0.2-0.2,0.2-0.4,0.4s-0.4,0.2-0.6,0.4c-0.4,0.2-0.8,0.4-1.2,0.8c-0.4,0.2-0.6,0.4-1,0.6l-2.41,1.2
	c-0.4,0.2-0.8,0.4-1.41,0.6l-0.6,0.2c-2.81,1-5.22,1.61-8.23,1.81c-0.6,0-0.8,0.2-1.61,0.2c-1,0-2.61-0.2-3.41-0.4
	c-0.6-0.2-0.8-0.4-1.41-0.2c0,0.8,0.4,1.81,0.6,2.41c0.4,0.8,0.8,1.41,1.41,1.81c2.61,1.81,6.22,1.61,9.03,0.8l1.81-0.6
	c1.41-0.6,3.01-1.41,4.22-2.21c1.81-1.41,3.61-2.81,5.22-4.42c0.4-0.4,1-1.41,1.81-1.61l1,1c-0.2,0.6-1,1.41-1.41,1.81
	c-0.2,0.4-0.4,0.6-0.8,0.8l-3.21,3.21c-1.61,1.41-3.61,2.61-5.42,3.41l-3.41,1c-0.8,0.2-0.6,0-1.41,0.4
	c1.61,2.41,2.61,2.81,5.42,2.81c3.41,0,7.03-4.02,8.83-6.42c0.2-0.2,0.4-0.6,0.6-0.8l1.81-3.01c0.4-0.6,0.6-1.61,1-2.01l1.41,0.6
	c-0.2,0.6,0,0-0.2,0.4c-1,3.01-2.41,5.82-4.42,8.23c-1.81,2.21-4.42,3.01-4.62,3.41c0.4,1.41,4.02,2.61,7.03-0.2l0.4-0.4
	c0.8-0.8,1.41-1.81,1.81-2.81c0.2-0.2,0.2-0.6,0.4-0.8c0.6-1.2,1.2-3.81,1.41-5.02c0.2-0.8,0.2-1.41,0.2-2.21
	c0.6,0,0.8,0.2,1.41,0.2c0,2.21,0,4.42-0.4,6.63c0,0.2-0.2,0.8-0.4,1.2v0.2c0,0,0,0.2-0.2,0.2c-0.6,1.2-1.41,2.01-2.01,3.21
	c0.8,0.4,2.01,0.4,3.01,0.2c0.4-0.2,0.4,0,0.8-0.2c0.8-0.4,1.61-1,2.01-1.81c0.6-1.41,0.4-3.01,0.4-4.42s-1-2.01,0.6-2.21
	c0.6,0,0.6,0,1.2-0.2l3.41-0.8c2.41-0.8,4.42-1.81,6.42-3.21c1-0.6,2.01-1.81,2.81-2.81c2.01-2.81,2.41-4.22,3.41-7.43
	c0.6-1.41,0.2-0.8,1.41-1.2c0.8-0.2,0.8-1,0.6-1.81c-0.2-0.6,0-0.6-0.4-0.8c-0.4-0.4-0.4-0.2-0.6-0.6c-0.4-0.6-0.8-1.2-0.8-2.21
	c0-1.2,0.4-1,1-1.41c2.01-1.41,0.8-2.21-0.6-3.21c-1.61-1-2.41-2.21-2.81-4.02c-0.2-1-0.2-2.21,0.2-3.01c1.41,0,2.61,1,4.42-0.2
	c1.2-0.8,1.41-3.01,1.41-4.42c-0.6,0-0.6,0.2-1,0.4c-1.2,0.6-3.21,0.4-4.02-0.8c-0.4-0.6-0.4-1.81-0.2-3.01
	c0.2-1.41,1.81-3.61,3.41-3.61c1,0,2.01,0,2.61,0.8c0.2,0.2,0.4,1.2,0.6,1.61c1.2,0,2.21-2.41,2.61-3.41c0-0.4,0-0.4,0.2-0.8
	c0.4-1.61,0-0.8,0-1.81C72.28,21.88,73.29,21.08,72.08,20.08z M48.59,16.26c-0.4,0-1,0.8-1,1.41c0,1.2,0.2,0.8,0.2,1.61
	c-0.4,0-0.6,0-1-0.6c-0.6-0.8-0.4-1-0.4-1.81h0c0-0.4,0.2-0.6,0.2-0.8c1.2-2.01,4.22-1,4.22,0.6C50.2,16.46,49.8,16.26,48.59,16.26z
	"/>
</svg>
