<?xml version="1.0" encoding="utf-8"?>
<!-- Generator: Adobe Illustrator 25.4.1, SVG Export Plug-In . SVG Version: 6.00 Build 0)  -->
<svg version="1.1" id="Layer_1" xmlns="http://www.w3.org/2000/svg" xmlns:xlink="http://www.w3.org/1999/xlink" x="0px" y="0px"
	 viewBox="0 0 401.52 80" style="enable-background:new 0 0 401.52 80;" xml:space="preserve">
<style type="text/css">
	.st0{fill-rule:evenodd;clip-rule:evenodd;fill:#EC1C24;}
</style>
<path class="st0" d="M258.38,10.04c0,2.01-0.2,4.22,0.2,6.22c0.2,1.41,0.4,2.81,1,4.22c1.2,3.61,1.2,4.02,2.81,7.63
	c0.4,0.8,0.8,1.61,1.2,2.41c0.2,0.4,0.4,0.6,0.6,1.2l2.01,3.21l0.2,0.2l1.2,1.81c0.4,0.4,0.4,0.6,0.8,1l2.41,2.81
	c0.4,0.6,1.2,1.2,1.81,1.81l1.61,1.61c0.6,0.6,1.2,1,1.81,1.61c1,1,3.21,2.21,3.81,3.21l-0.6,1.41c-1.81-1-3.61-2.21-5.22-3.41
	l-8.03-7.43l-0.2-0.2l-4.62-6.02l-1.81-3.41c-0.2-0.4-0.4-0.8-0.6-1.2c-1.41-2.61-3.41-8.03-3.41-10.64c-1,0-2.01,0.4-2.81,0.8
	c-0.6,0.4-0.8,0.8-1.2,1.2c-3.01,3.81-1.81,9.03,0.4,13.05c1.81,3.21,4.62,6.22,7.43,8.63c0.4,0.4-0.2-0.2,0.2,0.2l0.2,0.2
	c3.81,3.21,5.42,4.02,9.64,6.42c2.41,1.41,5.22,2.41,7.63,3.61c0.2,0.2,0.4,0.2,0.6,0.2c0.4,0.2,1,0.4,1.41,0.4
	c-0.4,1,0.6,1.81-1,1.41c-2.21-0.6-4.62-1.2-6.83-2.01l-4.22-1.61c-2.61-1.2-5.22-2.41-7.63-4.02c-0.4-0.2-0.6-0.4-0.8-0.6
	c-2.01-1.2-3.81-2.81-5.62-4.62c-0.6-0.6-2.41-2.41-2.61-3.41c-0.8,0-1.2,1-1.61,1.41c-0.2,0.4-0.4,0.6-0.4,1.2
	c0,0.2-0.2,0.4-0.2,0.6c-0.4,1.41-0.2,3.41,0.4,4.62c0.6,1.61,1.81,3.01,3.21,4.22c0.2,0.2,0.4,0.4,0.6,0.6s0.4,0.4,0.8,0.4
	c1,0.6,1.81,1.2,3.01,1.81c2.01,1,4.02,1.61,6.22,2.21c1.61,0.4,3.61,0.8,5.22,1l2.21,0.2c2.01,0.2,5.02,0.2,7.03,0.2
	c2.21-0.2,1.81-0.6,2.21,1c0.2,0.4,0.2,0.2,0.2,0.6c-0.8,0-0.6,0.2-1,0.2c-0.6,0-0.8,0-1.41,0.2c-2.01,0.4-6.22,0.6-8.23,0.6
	c-4.22,0-9.24-1-12.65-2.41c-1-0.4-2.01-0.8-3.01-1.41c-0.6-0.4-1.2-1-1.81-1c0,0.2-0.2,0.6-0.2,0.8c-0.6,2.21,0,4.82,1.81,6.22
	c0.2,0.2,0.4,0.2,0.6,0.6c2.81,2.61,6.83,3.01,10.64,3.01c1,0,1.61-0.2,2.21-0.2c1-0.2,1.41-0.2,2.41-0.4c0.2,0,0.8-0.2,1-0.2
	c2.81-0.8,4.22-1.2,7.23-2.41h0.2c1-0.4,2.41-1.2,3.41-1.41c0.4,0.4,0.6,1.2,1,1.61c-0.2,0.2-0.2,0.2-0.4,0.4
	c-0.2,0.2-0.4,0.2-0.6,0.4c-0.4,0.2-0.8,0.4-1.2,0.8c-0.4,0.2-0.6,0.4-1,0.6l-2.41,1.2c-0.4,0.2-0.8,0.4-1.41,0.6l-0.6,0.2
	c-2.81,1-5.22,1.61-8.23,1.81c-0.6,0-0.8,0.2-1.61,0.2c-1,0-2.61-0.2-3.41-0.4c-0.6-0.2-0.8-0.4-1.41-0.2c0,0.8,0.4,1.81,0.6,2.41
	c0.4,0.8,0.8,1.41,1.41,1.81c2.61,1.81,6.22,1.61,9.03,0.8l1.81-0.6c1.41-0.6,3.01-1.41,4.22-2.21c1.81-1.41,3.61-2.81,5.22-4.42
	c0.4-0.4,1-1.41,1.81-1.61l1,1c-0.2,0.6-1,1.41-1.41,1.81c-0.2,0.4-0.4,0.6-0.8,0.8l-3.21,3.21c-1.61,1.41-3.61,2.61-5.42,3.41
	l-3.41,1c-0.8,0.2-0.6,0-1.41,0.4c1.61,2.41,2.61,2.81,5.42,2.81c3.41,0,7.03-4.02,8.83-6.42c0.2-0.2,0.4-0.6,0.6-0.8l1.81-3.01
	c0.4-0.6,0.6-1.61,1-2.01l1.41,0.6c-0.2,0.6,0,0-0.2,0.4c-1,3.01-2.41,5.82-4.42,8.23c-1.81,2.21-4.42,3.01-4.62,3.41
	c0.4,1.41,4.02,2.61,7.03-0.2l0.4-0.4c0.8-0.8,1.41-1.81,1.81-2.81c0.2-0.2,0.2-0.6,0.4-0.8c0.6-1.2,1.2-3.81,1.41-5.02
	c0.2-0.8,0.2-1.41,0.2-2.21c0.6,0,0.8,0.2,1.41,0.2c0,2.21,0,4.42-0.4,6.63c0,0.2-0.2,0.8-0.4,1.2v0.2c0,0,0,0.2-0.2,0.2
	c-0.6,1.2-1.41,2.01-2.01,3.21c0.8,0.4,2.01,0.4,3.01,0.2c0.4-0.2,0.4,0,0.8-0.2c0.8-0.4,1.61-1,2.01-1.81
	c0.6-1.41,0.4-3.01,0.4-4.42c0-1.41-1-2.01,0.6-2.21c0.6,0,0.6,0,1.2-0.2l3.41-0.8c2.41-0.8,4.42-1.81,6.42-3.21
	c1-0.6,2.01-1.81,2.81-2.81c2.01-2.81,2.41-4.22,3.41-7.43c0.6-1.41,0.2-0.8,1.41-1.2c0.8-0.2,0.8-1,0.6-1.81
	c-0.2-0.6,0-0.6-0.4-0.8c-0.4-0.4-0.4-0.2-0.6-0.6c-0.4-0.6-0.8-1.2-0.8-2.21c0-1.2,0.4-1,1-1.41c2.01-1.41,0.8-2.21-0.6-3.21
	c-1.61-1-2.41-2.21-2.81-4.02c-0.2-1-0.2-2.21,0.2-3.01c1.41,0,2.61,1,4.42-0.2c1.2-0.8,1.41-3.01,1.41-4.42c-0.6,0-0.6,0.2-1,0.4
	c-1.2,0.6-3.21,0.4-4.02-0.8c-0.4-0.6-0.4-1.81-0.2-3.01c0.2-1.41,1.81-3.61,3.41-3.61c1,0,2.01,0,2.61,0.8
	c0.2,0.2,0.4,1.2,0.6,1.61c1.2,0,2.21-2.41,2.61-3.41c0-0.4,0-0.4,0.2-0.8c0.4-1.61,0-0.8,0-1.81c0-0.4,1-1.2-0.2-2.21
	c-0.8-0.6-2.21,0.2-4.42-0.6c-0.6-0.2-2.21-1-2.61-1c0.2-0.6,0.4-1.41,0.4-2.01c-0.2-0.6-0.8-0.8-1.2-1.2l-3.21-1.81
	c-4.82-2.81-3.61-4.62-5.22-4.62c-0.4,0-1.2,0.4-1.41,0.6c-0.2,0.2-0.4,0.4-0.6,0.6c-0.2,0.2-0.2,0.6-0.4,0.8
	c-1.2-0.8-1.2-1.2-3.41-2.01l-1.81-0.6c-2.81-0.8-3.41-2.21-4.62-0.4c-0.4,0.6-0.4,1.2-0.4,2.01c-2.01,0,0-0.6-4.42,0h-1.2
	c-0.8,0-1.81,0.4-3.41,0.2h-0.4h-0.2c-0.4,0-0.6,0.4-0.6,0.8c-0.2,1.41,0,1.81,0.2,3.21c-2.61,0-4.22,0.6-6.83,0.6
	c-1,1.61,0,3.61,1,5.22c0.2,0.4,0.4,0.6,0.6,1c-0.6,0.2-1,0.4-1.81,0.4c-1,0.2-0.8,0.4-0.6,1.2l0.6,2.81c0,0.2,0.2,0.6,0.2,0.8
	c0.8,3.41,1.81,6.63,3.61,9.44c0.8,1.41,1.61,2.81,2.41,4.02c3.81,5.22,2.21,3.61,6.02,1.41l0.6-0.4c0.2-0.2,0.4-0.2,0.6-0.2
	c1.41-0.6,2.61-1,4.02-1.2c2.21-0.4,3.61-0.4,5.62,0.2c0.6,0.2,1,0.2,1.41,0.4c3.01,1.2,5.62,2.81,7.43,5.62
	c0.4,0.8,1,1.61,1.41,2.41c2.61,5.82,1,13.45-3.81,17.47l-4.22,2.81c-1.41,0.8-2.81,1.2-4.42,1.61c-0.2,0-1.61,0.2-1.81,0.2
	c-0.6,0-0.4-0.6-0.4-1.41c1.41-0.4,2.41-0.4,4.02-0.8c0.4-0.2,0.4-0.2,0.6-0.2s0.4-0.2,0.6-0.2c6.02-2.81,9.03-10.24,6.83-16.66
	c-0.2-0.6-0.6-1.2-0.8-1.81c-2.01-3.61-5.02-5.62-9.03-6.83c-2.01-0.6-4.82-0.4-6.83,0.4c-1.2,0.4-2.41,1-3.41,1.81
	c-1,0.8-2.41,2.21-3.01,2.41c-1-0.6-2.81-2.61-3.61-3.81c-0.2-0.4-0.4-0.6-0.6-0.8c-1.41-1.61-2.41-3.61-3.41-5.42l-1.41-3.01
	c-1.41-3.01-2.61-7.03-3.21-10.24l-0.6-3.81v-1.41c-0.4-2.21-0.4-5.02-0.4-7.43c0-0.8,0.2-0.8,0.2-1.41c0-0.8,0.2-4.02,0.4-4.62
	l0.8-4.22c-0.6,0-0.4-0.2-1-0.2c-1.41-0.2-3.21-0.4-4.62,0.2c-0.8,0.4-1.81,1-2.41,1.61C259.58,4.02,258.38,7.23,258.38,10.04
	L258.38,10.04z M0,64.65l12.85,0.2c1-0.2,1-1.2,1.41-2.01l4.42-12.85c4.22-12.45,3.41-10.84,9.44-10.84c0,1,0,0.8-0.2,1.61
	L23.89,53.8c-0.2,0.6-0.4,1-0.6,1.61l-2.01,6.42c-1.2,3.81-1,2.81,11.84,2.81c2.21,0,2.41-3.21,3.21-5.62
	c0.6-2.01,6.22-19.07,6.22-20.08h5.02c0.8,1.2,1,0.8,0.4,2.81L44.77,52.2c-0.4,1-0.6,2.01-1,3.01c-1,2.81-2.21,6.42-2.21,9.24
	c2.41,0.6,10.04,0.2,12.85,0.2c1.2,0,1.41-1.61,1.61-2.61L59.02,52c0.8-2.21,1.61-4.42,2.21-6.63c1.41-4.42,3.61-9.03,2.61-13.65
	c-1.61-6.63-7.23-6.02-11.44-6.02c-1.41,0-2.41-0.2-4.02-0.2c-8.03,0-21.48-0.4-28.31,0.2c-5.02,0.4-8.63,4.42-10.64,8.83
	c-0.8,1.61-4.02,12.25-5.22,15.46l-0.2,0.4v0.2C3.41,53.6,0,62.04,0,64.65z M195.34,36.54c-6.42,0-9.24-1.2-15.86,3.41
	c-4.62,3.21-9.24,9.84-9.24,15.46c0,3.01,0,4.82,2.01,7.43c1.81,2.21,5.82,2.81,8.63,1.81l1.61-0.6c0.8-0.4,1.61-1,2.41-1.61
	c0.2-0.2,0.4-0.4,0.6-0.4l0.2-0.2l0.2-0.2l0.2-0.2c1-1,2.01-2.41,2.21-4.02c-1.61,0-9.84,3.81-5.82-7.03
	c0.4-1.41,1.41-3.01,2.21-3.81c1-0.8,2.01-2.01,3.61-2.41c7.03-1.41,2.41,7.03,1.2,12.05l-2.01,6.83c-0.2,1-0.4,1.81,0.6,1.81
	c2.81,0,10.04,0.2,12.45-0.2c0.2-0.6,0.4-1.41,0.8-2.21l7.83-26.1c0.6-2.01,2.61-8.43,2.61-9.64c-2.21-0.6-9.24-0.2-11.84-0.2
	c-1.2,0-1.41,0.6-1.81,1.81c-0.4,1-0.4,1.81-0.8,2.81c-0.2,0.6-0.2,0.8-0.4,1.2C196.14,33.33,195.34,35.74,195.34,36.54z
	 M61.63,56.82c0-2.41,0.6-4.22,1.41-6.22l1.2-2.61c2.01-3.81,5.62-7.23,9.44-9.24c5.02-2.41,9.64-2.41,15.06-1.2
	c0.6,0.2,1.41,0.4,1.81,0.6c5.62,1.81,6.22,0.6,8.63,1.2c0,1,0.6,0,0,1.61l-7.63,24.29c-1,0-0.8,0.2-1.61,0.2h-4.62
	c-7.03,0-7.63,0.8-6.22-3.01c0.4-1,0.4-1.81,0.8-2.81l2.61-8.23c0.4-1,0.6-1.81,0.8-2.81c0.6-2.01,0.6-4.02-2.21-4.02
	c-3.21,0-1-0.2-2.21,0.4l-2.81,2.21c-0.6,0.6-1,1.2-1.2,1.81l-0.2,0.4c-0.8,1.41-2.01,4.62-1.81,6.22c0,0.8,0.4,1.61,1,2.21
	c2.61,2.21,6.63-1.41,6.02,1c-0.2,0.6-0.6,1.41-1,2.01c-0.4,0.4-0.8,1-1.2,1.41l-1,1l-0.2,0.2c-1.41,1.2-2.21,1.61-3.81,2.01
	c-2.41,0.8-4.42,0.4-6.63-0.4C62.64,63.44,61.63,60.03,61.63,56.82L61.63,56.82z M138.73,39.75l-6.22,19.67
	c-0.6,2.01-2.41,6.02-0.8,6.02h11.44c1,0,1.41-2.81,1.81-4.22l2.81-9.03c0.6-2.21,0.6-2.81,3.41-2.81c0.8,0,2.01-0.2,2.61,0
	c0.8,0.2,1.2,0.8,1.2,1.61l-3.01,9.64c0,0.2,0,0.4-0.2,0.6c-0.6,2.21-1.81,4.22-0.4,4.22c1.81,0,11.24,0.4,12.25-0.2
	c0.4-0.2,0,0,0.4-0.4l0.2-0.4c0.2-0.4,0.2-0.6,0.4-1.2l3.61-11.64c1.2-4.02,0-9.24-4.62-11.44c-0.6-0.2-1.2-0.6-2.01-0.8
	c-4.02-1.2-8.83-0.4-12.85,0.6c-0.8,0.2,0,0-0.6,0.2h-0.2l-2.01,0.2C143.75,40.35,144.15,39.75,138.73,39.75L138.73,39.75z
	 M321.82,56.01c0,3.01,0.2,5.82,2.61,8.03c5.22,4.62,15.06-0.8,15.06-6.02c-0.8,0-8.83,3.21-6.42-5.22l1-2.41
	c0.2-0.4,0.8-1.61,1-2.01l0.4-0.6c1.41-1.61,2.81-3.21,5.62-3.21c4.22,0,1.41,6.02,1.2,7.23l-2.21,7.23c0,0.4-0.2,0.6-0.4,1.2
	c-0.6,1.81-2.01,5.22-0.6,5.22h11.44c1,0,1.2-1.61,1.61-2.41c0.4-1.2,0.6-2.21,1-3.21s0.6-2.01,1-3.01l5.02-16.26
	c0-1.81-2.81-0.2-7.43-1.61c-1.2-0.4-2.21-0.8-3.41-1c-0.6-0.2-1.41-0.2-2.01-0.4c-4.02-0.8-9.44-0.2-12.85,1.81l-4.62,3.41
	l-0.2,0.2l-2.81,3.21c-1.81,2.41-2.21,3.61-3.21,6.22C322.22,53,321.82,55.01,321.82,56.01L321.82,56.01z M206.78,53.4
	c0-3.61,4.02-8.23,7.43-10.44c2.21-1.61,3.41-2.01,5.82-3.01h0.2c1.2-0.4,2.41-0.8,3.61-1c1.41-0.2,2.41-0.6,3.81-0.6
	c12.25,0,17.47,10.04,10.24,18.67c-0.2,0.2-0.2,0.2-0.4,0.6c-5.42,6.02-16.06,9.64-23.49,6.83c-1.61-0.6-2.01-0.8-3.21-1.81
	C206.58,59.43,206.78,57.42,206.78,53.4L206.78,53.4z M107.41,26.3l-4.22,14.25c-0.4,1.61-1,3.41-1.41,5.02l-5.02,16.86
	c-0.2,0.8-0.8,2.01,0.6,2.01h11.44c1,0,1.2-1.41,1.61-2.81l9.64-32.52c0.2-1,0.6-1.61,0.6-2.81C118.05,25.7,110.42,26.1,107.41,26.3
	z M382.45,38.95c-1.61,0-1.2,0.2-2.21,0.2c0,0.8-2.21,7.23-2.61,9.03l-0.2,0.4c0,0.2-0.2,0.4-0.2,0.6l-3.01,9.84
	c-0.2,0.8,0,0.2-0.2,0.8l-0.2,0.4c0,0.2-0.2,0.4-0.2,0.6c-1.81,5.62-3.01,4.42,10.64,4.42c1.81,0,2.41-3.01,3.01-5.62l2.01-6.63
	c1.41-4.82,4.02-3.61,6.42-3.61l5.82-7.23c0-1.41-1.2-2.21-2.21-2.81c-2.61-1.2-7.83-0.8-10.84-0.2
	C384.26,39.75,386.47,38.95,382.45,38.95L382.45,38.95z M355.75,64.04c0-0.8,1.61-5.42,2.01-6.63l3.61-11.44
	c0.2-0.6,0.2-0.8,0.6-1.61c1.61-4.62,0.6-5.22,4.42-5.22c1,0,0.4,0.2,1.2,0.2c0.4,0,0.6-0.2,1.2-0.2l4.02,0.2
	c4.02,0,4.62-1.81,2.41,5.42l-6.02,19.67c-0.4,0.8-1.2,0.6-1.81,0.6c-2.01-0.2-4.22,0-6.22,0
	C358.56,64.85,355.75,65.25,355.75,64.04L355.75,64.04z M114.03,64.44l3.01-9.84c0.2-1.2,0.6-2.21,1-3.01c0.4-1.2,0.6-2.21,1-3.41
	l2.01-6.42c0.4-1.2,0.4-2.21,1.81-2.21c13.85,0,12.45-0.8,11.24,3.01l-6.83,21.68c-0.2,0.4-0.4,1-1.2,1h-11.24
	C114.43,65.45,114.03,65.05,114.03,64.44z M137.92,30.72c0-2.21-2.81-4.02-5.02-4.02c-4.02,0-6.02,0-9.24,3.41c-1,1-1.2,2.21-1,3.61
	c0.2,1.61,1.2,2.41,2.21,3.01c2.41,1.2,6.22,0.8,8.43-0.2C135.51,35.33,137.92,32.92,137.92,30.72z M363.98,32.72
	c0-4.62,8.23-8.03,12.85-5.62c2.81,1.41,3.41,3.61,1.41,6.22C374.42,38.75,363.98,38.35,363.98,32.72L363.98,32.72z M218.23,52.4
	c0,2.01,0,2.81,2.41,3.61c3.41,1.2,8.83-1.41,9.03-5.02c0.2-4.22-6.63-4.42-9.44-1.61C219.43,49.99,218.23,50.99,218.23,52.4z
	 M294.12,16.86c0-0.4,0.2-0.6,0.2-0.8c1.2-2.01,4.22-1,4.22,0.6c-0.6-0.2-1-0.4-2.21-0.4c-0.4,0-1,0.8-1,1.41
	c0,1.2,0.2,0.8,0.2,1.61c-0.4,0-0.6,0-1-0.6C293.91,17.87,294.12,17.67,294.12,16.86L294.12,16.86z"/>
</svg>
