<?xml version="1.0" encoding="utf-8"?>
<!-- Generator: Adobe Illustrator 25.4.1, SVG Export Plug-In . SVG Version: 6.00 Build 0)  -->
<svg version="1.1" id="Layer_1" xmlns="http://www.w3.org/2000/svg" xmlns:xlink="http://www.w3.org/1999/xlink" x="0px" y="0px"
	 viewBox="0 0 401.4 80" style="enable-background:new 0 0 401.4 80;" xml:space="preserve">
<style type="text/css">
	.st0{fill:#E3000F;}
	.st1{fill:#2F2483;}
</style>
<g>
	<path class="st0" d="M220.7,63.7c0,0-5.9-11.4-5.6-13.4c0.3-2,0.3-2.7,3.1-3.7c2.7-1,8.8-6.2,8.8-13.9c0-7.6-2.2-18.5-16.3-18.5
		c-14.1,0-33.3,0-33.3,0l-11,46.6L142.9,0L92.4,62.2l8.3-32.7h16.6l3.4-15.1H52.6c0,0-21.4-1.4-25.6,19.2
		c-4.2,20.5,24.2,20.5,24.2,27.3c0,0,1.7,2.9-7.5,2.9c-9.2,0-31.5-0.2-31.5-0.2L0,79.7h50.5c0,0,17.7-1.8,22.1-14
		c-1.3,7.8-2.4,14-2.4,14h33.6l12.7-16.8l-6.6-11h15.6c0,0,9-11.9,9.5-11.4c0.5,0.5,5.1,11.4,5.1,11.4h14.6l-10.7,11.4l6.4,16.4
		h33.6l5.6-27.6l2.9-0.2l13.1,27.8h41l10.7-15.9H220.7z M77.6,36.8c-0.7,3.6-2.4,13.8-4.1,23.3c0-0.1,0-0.2,0-0.2
		c0-17.5-14.9-21.2-19.3-23.1c-4.4-1.9-7.1-6.9,1.4-6.9c8.5,0,19.5,0,19.5,0S79,29.3,77.6,36.8z M190.2,46.9l3.4-16.8
		c0,0,11.9-0.7,11.9,7.6S190.2,46.9,190.2,46.9z"/>
	<polygon class="st0" points="306.4,39.2 320.2,15.3 322.6,22.9 330.9,22.9 323.8,27.7 327.3,38.9 318.6,31.4 	"/>
	<polygon class="st1" points="307.7,22.8 315.9,22.8 313.3,27.3 	"/>
	<g>
		<polygon class="st1" points="307.2,78.6 317.4,78.6 323.8,44.2 314,44.2 		"/>
		<path class="st1" d="M296.2,43.5c-7,0-60.8,0-60.8,0l-5.2,9.3h53.9c0,0,8-0.4,7.5,4.2s-5.9,2.5-12.3,3.1
			c-6.4,0.5-13.7,1.5-15.4,9.2c-1.7,7.7,4.7,10.7,9.9,10.7c5.3,0,10.2-2.4,13.7-5.6c0,0,0.4,3.6,0.8,4.1h9.7c0,0-0.8-1.9,0-6.4
			c0.8-4.5,3.3-16.1,3.6-18.1C302,52,303.2,43.5,296.2,43.5z M288.9,67.4c-0.3,1.9-1.4,5.8-6,6.5c-4.7,0.8-7.5-0.3-7.7-3
			c-0.3-2.7,1.4-4.8,3.6-5.2c0.3,0,6.4-1.3,8.2-1.2C288.7,64.7,289.2,65.5,288.9,67.4z"/>
		<path class="st1" d="M361.2,43.9c0,0-11.6-0.7-19,11.6l2.1-11.3h-9.8l-6.8,34.3h10.2l2.4-12.7c0.1-0.3,4.7-13.3,18.7-13.3
			c14,0,34.9,0,34.9,0l7.5-8.6H361.2z"/>
	</g>
</g>
</svg>
