<?xml version="1.0" encoding="utf-8"?>
<!-- Generator: Adobe Illustrator 25.4.1, SVG Export Plug-In . SVG Version: 6.00 Build 0)  -->
<svg version="1.1" id="Layer_1" xmlns="http://www.w3.org/2000/svg" xmlns:xlink="http://www.w3.org/1999/xlink" x="0px" y="0px"
	 viewBox="0 0 65.8 80" style="enable-background:new 0 0 65.8 80;" xml:space="preserve">
<style type="text/css">
	.st0{fill:#0B2286;}
</style>
<g>
	<path class="st0" d="M21.2,70.2c-1.8,2.1-3,3.5-3,3.5C19.2,72.6,20.2,71.4,21.2,70.2z"/>
	<path class="st0" d="M16.2,80c0.7-0.7,1.4-1.4,2.1-2.1C16.9,79.2,16.2,80,16.2,80z"/>
	<path class="st0" d="M39.9,25.7c0,0-6.2-8.8-12.7-9.8c-6.5-1-17.5,1.6-17.5,1.6s6.2,1.3,10.7,5.3s7.6,9.5,15.1,11.4
		c0,0-5.1,0.9-10.3-4c-5.2-4.9-7.5-7.2-11.4-8.7S3.5,19.7,0,20.5c0,0,9.4,3.2,15.5,6.5c6.1,3.2,9.2,9.8,13.7,11.2
		c4.5,1.4,7.2,0.7,7.2,0.7s-1.7,2.9-0.9,7.6c0,0-6.9,14.3-14.3,23.7c3.8-4.5,10.2-12.3,13-17.7c0,0-7.3,15.8-15.9,25.4
		c4.8-5,16.5-18.1,20.1-29c0,0,14.5-5.3,10.5-20.3c0,0,2.4-1.6,3-2.8l14,3.1L53,21.2c0,0-1.5-5.3-4.8-5.3c-3.3,0-6.8,7.4-6.8,7.4
		L39.9,25.7z M49.4,20.3c0.4,0,0.7,0.3,0.7,0.7s-0.3,0.7-0.7,0.7c-0.4,0-0.7-0.3-0.7-0.7S49,20.3,49.4,20.3z"/>
	<path class="st0" d="M31.7,0c0,0-2.9,12.8,4.4,18.6c0,0-3.7-6.8-3.2-12.6c0,0,4.7,12.4,6.7,14.6c0,0,2.5-4.7,4.6-5.7
		C44.2,14.9,36.4,1.3,31.7,0z"/>
</g>
</svg>
