<?xml version="1.0" encoding="utf-8"?>
<!-- Generator: Adobe Illustrator 25.4.1, SVG Export Plug-In . SVG Version: 6.00 Build 0)  -->
<svg version="1.1" id="Layer_1" xmlns="http://www.w3.org/2000/svg" xmlns:xlink="http://www.w3.org/1999/xlink" x="0px" y="0px"
	 viewBox="0 0 346.3 80" style="enable-background:new 0 0 346.3 80;" xml:space="preserve">
<style type="text/css">
	.st0{fill:#0B2286;}
</style>
<g>
	<path class="st0" d="M242.8,56.2c0.5,0,0.9-0.4,0.9-0.9V27.4c0-0.5-0.4-0.9-0.9-0.9c-0.5,0-0.9,0.4-0.9,0.9v27.8
		C241.8,55.7,242.3,56.2,242.8,56.2z"/>
	<path class="st0" d="M163.9,35.9c0.5,0,0.9-0.4,0.9-0.9c0-0.5-0.4-0.9-0.9-0.9h-9.1v-6.6c0-0.5-0.4-0.9-0.9-0.9
		c-0.5,0-0.9,0.4-0.9,0.9v18.7c0,10.5,8.7,9.8,8.7,9.8h2.3c0.5,0,0.9-0.4,0.9-0.9c0-0.5-0.4-0.9-0.9-0.9h-2.3c-6.8,0-6.8-8-6.8-8
		V35.9H163.9z"/>
	<path class="st0" d="M104.2,34.2c-0.5,0-0.9,0.4-0.9,0.9v20.1c0,0.5,0.4,0.9,0.9,0.9c0.5,0,0.9-0.4,0.9-0.9V35.2
		C105.2,34.6,104.8,34.2,104.2,34.2z"/>
	<path class="st0" d="M104.2,28.3c-0.5,0-0.9,0.4-0.9,0.9c0,0.5,0.4,0.9,0.9,0.9c0.5,0,0.9-0.4,0.9-0.9
		C105.2,28.7,104.8,28.3,104.2,28.3z"/>
	<path class="st0" d="M80.5,33.8c-4.3,0-6.6,1.7-7.8,3.6v-9.9c0-0.5-0.4-0.9-0.9-0.9c-0.5,0-0.9,0.4-0.9,0.9v27.8
		c0,0.5,0.4,0.9,0.9,0.9c0.5,0,0.9-0.4,0.9-0.9V41.1c0,0,1.2-5.4,7.7-5.4c6.4,0,8.4,4.9,8.4,6.5v12.9c0,0.5,0.4,0.9,0.9,0.9
		s0.9-0.4,0.9-0.9V41.7c0-0.1,0-0.2-0.1-0.3C90.3,40,88.6,33.8,80.5,33.8z"/>
	<path class="st0" d="M129.6,33.8c-10.8,0-10.8,7.9-10.8,7.9v13.5c0,0.5,0.4,0.9,0.9,0.9h0c0.5,0,0.9-0.4,0.9-0.9V41.7
		c0,0,0.6-5.8,8.5-5.8c7.9,0,9.6,5,9.6,5.8v13.5c0,0.5,0.4,0.9,0.9,0.9c0.5,0,0.9-0.4,0.9-0.9V41.7
		C140.6,41.7,140.4,33.8,129.6,33.8z"/>
	<path class="st0" d="M301.1,33.8c-10.8,0-10.8,7.9-10.8,7.9v13.5c0,0.5,0.4,0.9,0.9,0.9c0.5,0,0.9-0.4,0.9-0.9V41.7
		c0,0,0.6-5.8,8.5-5.8s9.6,5,9.6,5.8v13.5c0,0.5,0.4,0.9,0.9,0.9s0.9-0.4,0.9-0.9V41.7C312.1,41.7,312,33.8,301.1,33.8z"/>
	<path class="st0" d="M191.4,34.2H186c0,0-8.6,0.5-8.6,6.8c0,6.1,0,6.2,0,6.2l0,0c0,0,0,0,0,0c0,9.3,9,8.7,9,8.7h9.4
		c0.5,0,0.9-0.4,0.9-0.9c0-0.5-0.4-0.9-0.9-0.9h-9.4c-6.1,0-6.9-4.8-7-6.1h19.2c0.5,0,0.9-0.4,0.9-0.9v-5.4
		C199.4,41.7,198.4,34.2,191.4,34.2z M197.6,46.1h-18.3v-4c0-1.6,0.6-3.1,1.7-4.2c1-1,2.6-1.9,4.9-1.9h5.1h0.3h1
		c0,0,5.3,1.5,5.3,5.6C197.6,44.1,197.6,45.5,197.6,46.1z"/>
	<path class="st0" d="M228.2,36c-1.4-1.2-3.2-2.2-6.1-2.2c-10.8,0-10.8,7.9-10.8,7.9v13.5c0,0.5,0.4,0.9,0.9,0.9s0.9-0.4,0.9-0.9
		V41.7c0,0,0.6-5.8,8.5-5.8c3.3,0,5.2,1.2,6.2,2.6c0,0,0.4,0.6,0.4,0.6c0.1,0.1,0.3,0.3,0.8,0c0.6-0.4,0.7-0.8,0.6-1.2
		C229.4,37.3,228.7,36.5,228.2,36z"/>
	<path class="st0" d="M269.1,33.9H260c-0.5,0-0.9,0.4-0.9,0.9c0,0.5,0.4,0.9,0.9,0.9h9.2c2.5,0,4.4,1,5.8,3.1
		c0.9,1.4,1.3,2.8,1.3,3.2v0.2h-13c0,0,0,0-0.1,0c-2.4,0.2-6.8,1.6-6.8,5.6c0,5.4,2.5,8.8,6.6,8.8h6.9c0,0,0.1,0,0.1,0
		c2.8-0.4,8.1-2.5,8.1-7.7v-7c0-0.1,0-0.1,0-0.2C277.6,39,275.2,33.9,269.1,33.9z M276.3,48.9c0,2-1.1,3.6-3.1,4.7
		c-1.5,0.8-3,1.1-3.3,1.2h-6.9c-4.2,0-4.7-4.9-4.7-6.9c0-3.2,4.7-3.7,5.1-3.8h13V48.9z"/>
	<path class="st0" d="M301.4,69.8c0.2,0,0.4-0.2,0.4-0.4c0-0.2-0.2-0.4-0.4-0.4h-3.5v-2.5c0-0.2-0.2-0.4-0.4-0.4
		c-0.2,0-0.4,0.2-0.4,0.4v7.2v0c0,4,3.3,3.8,3.3,3.8h0.9c0.2,0,0.4-0.2,0.4-0.4c0-0.2-0.2-0.4-0.4-0.4h-0.9c-2.6,0-2.6-3-2.6-3v-3.9
		H301.4z"/>
	<path class="st0" d="M341.2,69c-4.1,0-4.1,3-4.1,3v5.2c0,0.2,0.2,0.4,0.4,0.4s0.4-0.2,0.4-0.4v-5.2c0,0,0.2-2.2,3.2-2.2
		c3,0,3.7,1.9,3.7,2.2v5.2c0,0.2,0.2,0.4,0.4,0.4s0.4-0.2,0.4-0.4v-5.2C345.4,72.1,345.3,69,341.2,69z"/>
	<path class="st0" d="M324.2,69c-3.2,0-3.9,1.9-4.1,2.7c0,0,0,0.1,0,0.2v2.7c0,0,0,0,0,0h0c0,0,0.1,3,4.2,3c4.1,0,4.1-3,4.1-3v0
		c0,0,0,0,0,0v-2.7c0-0.1,0-0.1-0.1-0.2C328.2,70.9,327.4,69,324.2,69z M324.4,76.8c-3,0-3.7-1.9-3.7-2.2c0,0,0,0,0,0c0,0,0,0,0,0
		v-2.5c0,0,0.2-2.2,3.2-2.2c3,0,3.7,1.9,3.7,2.2v2.5c0,0,0,0,0,0l0,0C327.7,74.6,327.5,76.8,324.4,76.8z"/>
	<path class="st0" d="M242.4,69.1h-3.5c-0.2,0-0.4,0.2-0.4,0.4c0,0.2,0.2,0.4,0.4,0.4h3.5c0.9,0,1.7,0.4,2.2,1.2
		c0.4,0.5,0.5,1.1,0.5,1.2v0.1h-5c0,0,0,0,0,0c-0.9,0.1-2.6,0.6-2.6,2.2c0,2.1,1,3.4,2.5,3.4h2.7c0,0,0,0,0,0c1.1-0.2,3.1-1,3.1-2.9
		v-2.7c0,0,0,0,0-0.1C245.7,71,244.7,69.1,242.4,69.1z M245.1,74.8c0,0.8-0.4,1.4-1.2,1.8c-0.6,0.3-1.2,0.4-1.3,0.4H240
		c-1.6,0-1.8-1.9-1.8-2.7c0-1.2,1.8-1.4,1.9-1.4h5V74.8z"/>
	<path class="st0" d="M285,69.1h-3.5c-0.2,0-0.4,0.2-0.4,0.4c0,0.2,0.2,0.4,0.4,0.4h3.5c0.9,0,1.7,0.4,2.2,1.2
		c0.4,0.5,0.5,1.1,0.5,1.2v0.1h-5c0,0,0,0,0,0c-0.9,0.1-2.6,0.6-2.6,2.2c0,2.1,1,3.4,2.5,3.4h2.7c0,0,0,0,0,0c1.1-0.2,3.1-1,3.1-2.9
		v-2.7c0,0,0,0,0-0.1C288.3,71,287.3,69.1,285,69.1z M287.7,74.8c0,0.8-0.4,1.4-1.2,1.8c-0.6,0.3-1.2,0.4-1.3,0.4h-2.6
		c-1.6,0-1.8-1.9-1.8-2.7c0-1.2,1.8-1.4,1.9-1.4h5V74.8z"/>
	<path class="st0" d="M345.4,26.6c-0.5,0-0.9,0.4-0.9,0.9V37c-0.6-0.6-1.3-1.2-2.2-1.6c-1.5-0.8-3.7-1.1-5.3-1.1h-5
		c-2.2,0-4.2,1.3-5.7,3.7c-1,1.7-1.6,3.6-1.6,5.6v4.9c0,2.8,1.6,5.1,4.7,6.6c1.3,0.6,2.8,1,4.3,1h4.9c2,0,3.9-0.9,5.5-2.5
		c1.5-1.5,2.3-3.5,2.3-5.7v-6.6c0-0.1,0-0.2,0-0.3V27.5C346.3,27,345.9,26.6,345.4,26.6z M344.5,41.3
		C344.5,41.3,344.5,41.3,344.5,41.3v6.6c0,1.7-0.6,3.2-1.8,4.3c-1.3,1.3-2.7,1.9-4.2,1.9h-4.9c-1.2,0-2.4-0.3-3.4-0.8
		c-1.7-0.8-3.7-2.4-3.7-5v-4.9c0-1.7,0.5-3.3,1.3-4.6c1.2-1.9,2.6-2.8,4.2-2.8h5c1.4,0,3.3,0.3,4.4,0.9c1.5,0.8,3,2.3,3.1,4V41.3z"
		/>
	<path class="st0" d="M271.2,69.1c-0.2,0-0.4,0.2-0.4,0.4v7.7c0,0.2,0.2,0.4,0.4,0.4c0.2,0,0.4-0.2,0.4-0.4v-7.7
		C271.6,69.3,271.4,69.1,271.2,69.1z"/>
	<path class="st0" d="M271.2,66.9c-0.3,0-0.5,0.2-0.5,0.5c0,0.3,0.2,0.5,0.5,0.5s0.5-0.2,0.5-0.5C271.7,67.1,271.5,66.9,271.2,66.9z
		"/>
	<path class="st0" d="M310.7,69.1c-0.2,0-0.4,0.2-0.4,0.4v7.7c0,0.2,0.2,0.4,0.4,0.4c0.2,0,0.4-0.2,0.4-0.4v-7.7
		C311.1,69.3,310.9,69.1,310.7,69.1z"/>
	<path class="st0" d="M310.7,66.9c-0.3,0-0.5,0.2-0.5,0.5c0,0.3,0.2,0.5,0.5,0.5s0.5-0.2,0.5-0.5C311.2,67.1,311,66.9,310.7,66.9z"
		/>
	<path class="st0" d="M262.4,68.8c-0.2-0.1-0.4,0-0.5,0.2l-2.8,7.1l0,0.1c0,0.1-0.2,0.8-0.9,0.8c-0.8,0-1-0.6-1-0.7L254,69
		c-0.1-0.2-0.3-0.3-0.5-0.2c-0.2,0.1-0.3,0.3-0.2,0.5l3.2,7.3c0.1,0.4,0.6,1.1,1.7,1.1c1.1,0,1.5-0.9,1.6-1.4l2.8-7.1
		C262.7,69.1,262.6,68.9,262.4,68.8z"/>
	<path class="st0" d="M25.5,67.4c-0.8,1-1.4,1.6-1.4,1.6C24.6,68.5,25,68,25.5,67.4z"/>
	<path class="st0" d="M23.1,72c0.3-0.3,0.7-0.7,1-1C23.5,71.6,23.1,72,23.1,72z"/>
	<path class="st0" d="M34.4,46.3c0,0-3-4.2-6-4.6c-3.1-0.5-8.3,0.8-8.3,0.8s3,0.6,5.1,2.5c2.1,1.9,3.6,4.5,7.2,5.4
		c0,0-2.4,0.4-4.9-1.9c-2.5-2.3-3.6-3.4-5.4-4.1s-4.9-0.9-6.6-0.5c0,0,4.4,1.5,7.3,3.1c2.9,1.5,4.4,4.6,6.5,5.3
		c2.1,0.7,3.4,0.3,3.4,0.3s-0.8,1.4-0.4,3.6c0,0-3.3,6.8-6.8,11.2c1.8-2.1,4.8-5.8,6.2-8.4c0,0-3.4,7.5-7.6,12
		c2.3-2.4,7.8-8.6,9.5-13.8c0,0,6.9-2.5,5-9.6c0,0,1.1-0.8,1.4-1.3l6.6,1.5l-6.1-3.6c0,0-0.7-2.5-2.3-2.5c-1.6,0-3.2,3.5-3.2,3.5
		L34.4,46.3z M38.9,43.7c0.2,0,0.4,0.2,0.4,0.4c0,0.2-0.2,0.4-0.4,0.4c-0.2,0-0.4-0.2-0.4-0.4C38.5,43.9,38.7,43.7,38.9,43.7z"/>
	<path class="st0" d="M30.5,34.1c0,0-1.4,6.1,2.1,8.8c0,0-1.8-3.2-1.5-6c0,0,2.2,5.9,3.2,6.9c0,0,1.2-2.2,2.2-2.7
		C36.4,41.2,32.7,34.7,30.5,34.1z"/>
	<path class="st0" d="M0,0l8.4,80h75.8c0,0-35.2-48.4-46.5-63.7C26.4,1.1,0,0,0,0z M46.6,46.6l6.8,3.9l-6-1.3
		c0,0-0.7,15.6-16.4,14.4c0,0-4.8,9.6-9,9.6c-2.9,0,0.6-2.9,1.8-4.6c1.2-1.7,3.4-5.5,3.4-5.5s-5.2-2.6-6.9-4.6
		c-1.7-2.1-4.4-6.4-2.5-12.4c0,0-4.5-1.9-4.3-2.4c0.2-0.5,2.8-1.4,4.3-1.7c1.5-0.3,2-0.5,2-0.5s3.3-3.9,9.6-5.7c0,0-0.2-3,0.5-3.1
		c0.8-0.1,3.7,2.7,4,3.1C34,35.9,44.3,37.2,46.6,46.6z"/>
</g>
</svg>
