<?xml version="1.0" encoding="utf-8"?>
<!-- Generator: Adobe Illustrator 25.4.1, SVG Export Plug-In . SVG Version: 6.00 Build 0)  -->
<svg version="1.1" id="Layer_1" xmlns="http://www.w3.org/2000/svg" xmlns:xlink="http://www.w3.org/1999/xlink" x="0px" y="0px"
	 viewBox="0 0 240.63 80" style="enable-background:new 0 0 240.63 80;" xml:space="preserve">
<style type="text/css">
	.st0{fill-rule:evenodd;clip-rule:evenodd;fill:#DE3232;}
	.st1{fill:#00559C;}
</style>
<g>
	<path class="st0" d="M70.65,41.5L70.33,31.4c0-0.36-0.32-0.4-0.44-0.04l-4.61,10.23c-0.2,0.4-0.04,0.8,0.28,0.76h4.61
		C70.53,42.31,70.69,41.99,70.65,41.5 M62.87,76.83c-1.48,2.77-5.05,3.93-7.86,2.57c-15.2-7.22-28.55-17.32-39.66-29.67h13.83
		l1.2-5.01h-8.74c-0.24,0-0.44,0-0.72-0.04c-1.32-0.16-2.09-0.72-2.49-1.4c-0.44-0.68-0.6-1.44-0.48-2.05
		c0.04-0.16,0.48-2.09,0.48-2.25v-0.04l1.32-5.21c0.6-2.41,2.65-3.85,5.33-3.93h8.98l1.16-4.97h-6.18l-7.78,2.93l0.76-2.93h-1.12
		c-2.49-0.04-4.21,0.2-5.45,0.76c-1.08,0.52-1.96,1.36-2.29,2.61L9.58,42.87C6.45,38.9,3.6,34.81,0.92,30.48
		c-1.68-2.65-1-6.34,1.68-8.14C23.01,8.42,47.15,0.56,71.89,0c3.17-0.08,5.89,2.45,6.18,5.61c0.52,6.42,0.56,12.87,0.04,19.29H64.91
		L52.44,49.64h9.1l1.48-3.29c0.12-0.32,0.28-0.44,0.72-0.44h6.54c0.12,0,0.4,0.04,0.4,0.36l0.08,3.37h2.97
		C71.21,59.07,67.56,68.21,62.87,76.83z M45.87,49.73h-14.8l1.16-5.01h9.54c3.29,0,4.85-2.85,2.57-4.45
		c-2.33-1.6-3.77-2.85-6.05-4.49c-4.57-3.25-2.45-10.83,5.25-10.87h13.91l-1.16,4.97h-9.38c-2.53-0.04-3.13,2.81-1.44,3.85
		l5.97,4.45C56.37,41.91,53.49,49.73,45.87,49.73z"/>
	<path class="st1" d="M165.12,28.51c-0.96,0-1.8,0.16-2.49,0.44c-0.64,0.28-1.16,0.72-1.6,1.32l0,0h-0.04
		c-0.08,0.16-0.2,0.36-0.32,0.52c-0.08,0.2-0.2,0.44-0.28,0.64c-0.44,1.24-0.68,5.89-0.68,8.06c0,1.28,0.12,2.37,0.32,3.25
		c0.24,0.84,0.52,1.52,0.92,2c0.36,0.48,0.92,0.8,1.6,1.04c0.68,0.24,1.6,0.36,2.61,0.36h8.82v3.65h-9.06
		c-0.96,0-1.8-0.04-2.53-0.12c-0.12,0-0.28-0.04-0.36-0.04c-0.64-0.08-1.16-0.2-1.64-0.32h-0.04c-0.12-0.04-0.28-0.08-0.44-0.16
		c-0.12-0.04-0.32-0.12-0.44-0.2c-0.8-0.32-1.56-0.8-2.29-1.36c-0.64-0.52-1.24-1.12-1.68-1.76c-0.52-0.68-0.92-1.4-1.24-2.25l0,0
		c-0.08-0.24-0.2-0.48-0.28-0.72c-0.04-0.24-0.12-0.48-0.24-0.76c-0.32-1.28-0.44-2.73-0.44-4.33c0-2.17,0.24-4.05,0.68-5.69
		c0.52-1.64,1.24-3.01,2.17-4.05l0,0c0.28-0.28,0.6-0.56,0.92-0.84c0.32-0.24,0.64-0.48,1-0.72c1.8-1.08,4.17-1.64,7.02-1.64h8.9
		v3.65h-8.86 M96.63,28.51c-0.96,0-1.8,0.16-2.49,0.44c-0.68,0.28-1.24,0.72-1.6,1.32H92.5l0,0c-0.08,0.16-0.2,0.36-0.32,0.52
		c-0.08,0.2-0.2,0.44-0.28,0.64c-0.44,1.24-0.68,5.89-0.68,8.06c0,1.28,0.08,2.37,0.32,3.25c0.24,0.84,0.52,1.52,0.92,2
		c0.36,0.48,0.92,0.8,1.6,1.04c0.68,0.24,1.52,0.36,2.61,0.36h8.74v3.65h-9.02c-0.96,0-1.8-0.04-2.53-0.12
		c-0.12,0-0.28-0.04-0.36-0.04c-0.64-0.08-1.16-0.2-1.64-0.32h-0.04c-0.12-0.04-0.32-0.08-0.44-0.16c-0.12-0.04-0.32-0.12-0.44-0.2
		c-0.8-0.32-1.56-0.8-2.29-1.36c-0.64-0.52-1.24-1.12-1.68-1.76c-0.52-0.68-0.92-1.4-1.24-2.25l0,0c-0.08-0.24-0.2-0.48-0.28-0.72
		c-0.04-0.24-0.12-0.48-0.24-0.76c-0.32-1.28-0.44-2.73-0.44-4.33c0-2.17,0.24-4.05,0.68-5.69c0.52-1.64,1.24-3.01,2.17-4.05l0,0
		c0.28-0.28,0.6-0.56,0.92-0.84c0.32-0.24,0.64-0.48,1-0.72c1.8-1.08,4.17-1.64,7.02-1.64h8.86v3.65h-8.78V28.51z M115.08,46.24
		h13.75v3.65h-21.25v-3.85l14.44-17.48h-14.44V24.9h21.25v3.89L115.08,46.24z M182.65,25.38v10.15h8.26V24.86h6.05v24.98h-6.05
		V39.14h-8.26v10.71h-6.05V24.86h6.05V25.38z M142.55,28.51c-0.96,0-1.76,0.16-2.49,0.44c-0.64,0.28-1.16,0.72-1.56,1.32l0,0
		c-0.16,0.16-0.24,0.36-0.32,0.52c-0.08,0.2-0.2,0.44-0.28,0.64c-0.28,0.64-0.44,2.33-0.56,4.01h14.03v3.65h-14.16
		c0,0.12,0,0.24,0,0.4c0,1.28,0.08,2.37,0.28,3.25c0.24,0.84,0.56,1.52,0.92,2c0.4,0.48,0.92,0.8,1.6,1.04
		c0.72,0.24,1.56,0.36,2.61,0.36h8.78v3.65h-9.06c-0.96,0-1.76-0.04-2.53-0.12c-0.08,0-0.24-0.04-0.36-0.04
		c-0.64-0.08-1.16-0.2-1.64-0.32c-0.2-0.04-0.32-0.08-0.44-0.16h-0.16c-0.12-0.04-0.28-0.12-0.44-0.2c-0.76-0.32-1.52-0.8-2.29-1.36
		c-0.64-0.52-1.16-1.12-1.68-1.76c-0.52-0.68-0.92-1.4-1.24-2.25l0,0c-0.08-0.24-0.16-0.48-0.24-0.72c-0.08-0.24-0.2-0.48-0.24-0.76
		c-0.32-1.28-0.52-2.73-0.52-4.33c0-2.17,0.24-4.05,0.72-5.69c0.44-1.64,1.16-3.01,2.17-4.05l0,0c0.28-0.28,0.56-0.56,0.84-0.84
		c0.36-0.24,0.68-0.48,1.04-0.72c1.8-1.08,4.13-1.64,6.98-1.64h8.9v3.65h-8.66V28.51z"/>
	<path class="st1" d="M206.02,58.63c-0.96,0-1.8,0.16-2.49,0.44c-0.64,0.28-1.16,0.72-1.6,1.32l0,0c-0.12,0.16-0.24,0.36-0.32,0.52
		c-0.12,0.2-0.24,0.44-0.28,0.64c-0.28,0.64-0.44,2.33-0.56,4.05h14.03v3.61h-14.16c0,0.12,0,0.24,0,0.36
		c0,1.28,0.08,2.37,0.28,3.25c0.24,0.84,0.52,1.52,0.92,2c0.4,0.48,0.92,0.84,1.56,1.08c0.68,0.24,1.6,0.36,2.61,0.36h8.82v3.65
		h-9.06c-0.96,0-1.76-0.04-2.53-0.12c-0.12,0-0.24-0.04-0.36-0.04c-0.64-0.08-1.16-0.2-1.64-0.32l0,0c-0.2-0.04-0.32-0.12-0.52-0.16
		c-0.12-0.04-0.32-0.12-0.44-0.2c-0.76-0.36-1.52-0.8-2.29-1.36c-0.64-0.52-1.16-1.12-1.68-1.76c-0.48-0.68-0.92-1.44-1.2-2.25
		v-0.04c-0.08-0.24-0.2-0.44-0.24-0.68c-0.08-0.24-0.2-0.48-0.24-0.76c-0.36-1.28-0.52-2.73-0.52-4.33c0-2.17,0.24-4.05,0.72-5.69
		c0.44-1.64,1.16-3.01,2.17-4.05l0,0c0.28-0.28,0.56-0.56,0.88-0.84c0.32-0.24,0.68-0.52,1-0.72c1.8-1.08,4.17-1.64,7.02-1.64h8.9
		v3.65h-8.78 M91.82,61.63l-2.89,7.66h5.93L91.82,61.63z M89.38,54.98h5.65l0.08,0.32l10.27,23.98l0.28,0.72H99l-0.12-0.32
		l-2.61-6.74h-8.7l-2.53,6.74L84.92,80h-6.46l0.32-0.68l10.19-23.98l0.08-0.32h0.32V54.98z M112.51,79.96h-5.77V54.98h6.26v24.98
		H112.51z M136.45,68.01L136.45,68.01z M151.41,79.96c-1.08,0-2.09-0.04-2.93-0.16c-0.08,0-0.28-0.04-0.36-0.04h-0.04
		c-0.76-0.12-1.48-0.28-2.25-0.56c-0.12-0.08-0.32-0.16-0.44-0.24c-1.08-0.56-2.09-1.44-2.81-2.45c-0.56-0.68-0.92-1.44-1.12-2.25
		c-0.16-0.56-0.32-1.2-0.4-1.96c-0.08-0.76-0.16-1.64-0.16-2.57V54.98h6.06V70.9c0,0.68,0.04,1.28,0.04,1.76
		c0.12,1.64,0.64,2.77,2.21,3.33c0.88,0.28,1.8,0.32,2.73,0.32h6.46c0,1.2,0,2.45,0,3.65H151.41z M146.36,79.36L146.36,79.36z
		 M146.32,79.36L146.32,79.36L146.32,79.36L146.32,79.36z M165.84,79.96h-5.77V54.98h6.26v24.98H165.84z M170.18,54.98h6.66
		l0.12,0.24l8.86,15.56l-0.2-15.28l-0.04-0.52h6.18v24.98h-6.62l-0.2-0.24l-9.34-16.44l0.24,16.2V80h-6.18V54.98H170.18z
		 M227.6,58.87c-2.45,0-4.53,1.08-4.49,3.57c0,1.16,0.64,3.13,3.49,3.21h5.93c1.4,0,2.85,0.12,4.17,0.56
		c0.8,0.28,1.48,0.64,2.05,1.12c1.68,1.48,1.88,2.69,1.88,4.97l0,0c0,2.17-0.48,4.37-2.17,5.81c-1.44,1.24-3.69,1.84-6.66,1.84
		h-13.91c0-1.76,0-2.09,0-3.85h12.75c2.81,0,3.81-1.88,3.93-3.17c0.08-1.68-0.68-3.69-3.49-3.69h-5.65c-2.13,0-4.65-0.32-6.34-1.76
		l0,0c-1.32-1.12-2.09-2.97-2.09-4.65c0-2.17,0.44-4.45,2.17-5.97c1.8-1.56,4.45-1.88,6.74-1.88h13.71c0,1.76,0,2.13,0,3.89
		L227.6,58.87L227.6,58.87z M128.15,58.63h-5.65v8.3h5.65c1.6,0,2.65-0.32,3.21-0.96c0.04-0.08,0.12-0.16,0.2-0.28
		c0.04-0.08,0.08-0.2,0.16-0.32c0.24-0.6,0.4-1.48,0.4-2.61c0-1.52-0.28-2.61-0.76-3.17c-0.28-0.32-0.64-0.52-1.12-0.68
		C129.63,58.71,128.95,58.63,128.15,58.63z M116.92,54.98h12.39c1.48,0,2.81,0.16,3.89,0.44c1.12,0.32,2.05,0.76,2.77,1.4h0.04l0,0
		c0.2,0.16,0.4,0.36,0.6,0.56c0.12,0.2,0.32,0.44,0.44,0.68c0.76,1.16,1.12,2.73,1.12,4.57c0,0.96-0.16,1.84-0.32,2.65
		c-0.24,0.8-0.6,1.52-1.04,2.17l0,0c-0.12,0.2-0.28,0.36-0.4,0.48c-0.12,0.16-0.28,0.32-0.44,0.44c-0.64,0.6-1.44,1-2.37,1.32
		l5.69,9.46l0.4,0.76h-6.82l-0.16-0.24l-5.13-9.14h-5.13v9.42h-6.06V54.98H116.92z"/>
</g>
</svg>
