<?xml version="1.0" encoding="utf-8"?>
<!-- Generator: Adobe Illustrator 25.4.1, SVG Export Plug-In . SVG Version: 6.00 Build 0)  -->
<svg version="1.1" xmlns="http://www.w3.org/2000/svg" xmlns:xlink="http://www.w3.org/1999/xlink" x="0px" y="0px"
	 viewBox="0 0 135.5 80" style="enable-background:new 0 0 135.5 80;" xml:space="preserve">
<style type="text/css">
	.st0{fill-rule:evenodd;clip-rule:evenodd;fill:#015EA9;}
</style>
<g id="Layer_2">
</g>
<g id="Layer_1">
	<path class="st0" d="M41,60.2C13,46.9,14.3,22.8,14.5,20.1c4-1,7.6,4.9,7.6,4.9c2.5-5.8-4.2-7.2-4.2-7.2c2.5-1.9,7.2-3,11.5-2
		c4.3,1,7.3,7.8,7.3,7.8c1.3-3,3.7-12.3-0.8-14.1S20.4,12,20.4,12c3.8-9.6,10.1-5.8,10.1-5.8S29,0,24.2,0s-8.9,10.3-8.9,10.3
		s-1.4-6.7-6.9-6.7c-5.5,0-6.7,8.1-6.7,8.1c7-5.5,9.4,1,9.4,1C0.4,11,0,23.1,0,23.1c3.5-5.6,8.4-4.6,8.4-4.6
		c-4.3,3.9-2.1,9.2-2.1,9.2c0.6-3.9,3.5-5.2,4.8-5.6c-0.3,10.2,3.2,28.8,29.3,41.6c37.6,18.5,95.1,16.2,95.1,16.2
		C108.2,79.9,70.7,74.3,41,60.2z"/>
</g>
</svg>
