<?xml version="1.0" encoding="utf-8"?>
<!-- Generator: Adobe Illustrator 25.4.1, SVG Export Plug-In . SVG Version: 6.00 Build 0)  -->
<svg version="1.1" xmlns="http://www.w3.org/2000/svg" xmlns:xlink="http://www.w3.org/1999/xlink" x="0px" y="0px"
	 viewBox="0 0 280.9 80" style="enable-background:new 0 0 280.9 80;" xml:space="preserve">
<style type="text/css">
	.st0{fill-rule:evenodd;clip-rule:evenodd;fill:#015EA9;}
	.st1{fill-rule:evenodd;clip-rule:evenodd;fill:#F13039;}
</style>
<g id="Layer_2">
</g>
<g id="Layer_1">
	<g>
		<path class="st0" d="M45.5,52.8l2-9c0,0,2.5,8.1,10.3,8.1s9.6-5.9,9.4-8.1s-1.3-5.3-6.8-7.8s-14.9-5.6-14.9-15.2S52.8,5.4,61,5.4
			s11.6,3.8,11.6,3.8l-2.8,6.8c0,0-2.1-6.7-9-6.7s-7.3,6-7.3,8.1s2.3,6,8.8,8.5s14,8.3,12.7,14.7s-5.5,15.3-14.7,15.3
			S45.5,52.8,45.5,52.8z"/>
		<path class="st0" d="M107.7,54.3h11.1l-18.3-49h-4.8l-20,49h6l5.4-14.1h15.4L107.7,54.3z M88.6,36.4l6.4-16.6l6.1,16.6H88.6z"/>
		<path class="st0" d="M267.8,54.3h11.1l-18.3-49h-4.8l-20,49h6l5.4-14.1h15.4L267.8,54.3z M248.7,36.4l6.4-16.6l6.1,16.6H248.7z"/>
		<polygon class="st0" points="124.1,54.3 130.1,54.3 133,22.8 148.8,54.3 150.9,54.3 167.2,22.8 171,54.3 181,54.3 175.4,6.5 
			169.8,6.5 153.1,39.6 136.8,6.5 131.6,6.5 		"/>
		<path class="st0" d="M210.7,5.4c-15,0-27.1,11.3-27.1,25.3s12.1,25.3,27.1,25.3s27.1-11.3,27.1-25.3S225.7,5.4,210.7,5.4z
			 M210.7,51.8c-8.9,0-16.1-9.5-16.1-21.2s7.2-21.2,16.1-21.2s16.1,9.5,16.1,21.2S219.6,51.8,210.7,51.8z"/>
		<path class="st0" d="M41,60.2C13,46.9,14.3,22.8,14.5,20.1c4-1,7.6,4.9,7.6,4.9c2.5-5.8-4.2-7.2-4.2-7.2c2.5-1.9,7.2-3,11.5-2
			c4.3,1,7.3,7.8,7.3,7.8c1.3-3,3.7-12.3-0.8-14.1S20.4,12,20.4,12c3.8-9.6,10.1-5.8,10.1-5.8S29,0,24.2,0s-8.9,10.3-8.9,10.3
			s-1.4-6.7-6.9-6.7c-5.5,0-6.7,8.1-6.7,8.1c7-5.5,9.4,1,9.4,1C0.4,11,0,23.1,0,23.1c3.5-5.6,8.4-4.6,8.4-4.6
			c-4.3,3.9-2.1,9.2-2.1,9.2c0.6-3.9,3.5-5.2,4.8-5.6c-0.3,10.2,3.2,28.8,29.3,41.6c37.6,18.5,95.1,16.2,95.1,16.2
			C108.2,79.9,70.7,74.3,41,60.2z"/>
		<rect x="200.1" y="61.7" class="st1" width="3.3" height="17.1"/>
		<path class="st1" d="M188.8,61.7l-5.5,17.1h3.5l1.3-4.9h5.2l1.3,4.9h3.7l-5.2-17.1H188.8z M188.7,71.4l1.9-7.4l2,7.4H188.7z"/>
		<path class="st1" d="M246.9,61.7l-5.5,17.1h3.5l1.3-4.9h5.2l1.3,4.9h3.7l-5.2-17.1H246.9z M246.8,71.4l1.9-7.4l2,7.4H246.8z"/>
		<path class="st1" d="M214.2,70.5C214.2,70.5,214.1,70.5,214.2,70.5C214.1,70.5,214.2,70.5,214.2,70.5c0.4,0,3.6,0.1,3.6-4.2
			c0-4.6-4.7-4.6-4.7-4.6H210h-3.3v17.1h3.3V72c0,0,2.5-0.6,3.8,1.5c1.3,2.1,2,5.3,2,5.3h3.4C217,71.1,214.5,70.5,214.2,70.5z
			 M212.2,69.6H210v-5.5c1.2,0,4.9-0.3,4.9,2.6C215,69.7,212.2,69.6,212.2,69.6z"/>
		<polygon class="st1" points="238.2,61.7 235.4,75.2 232.4,61.7 229.2,61.7 226.1,75.2 223.2,61.7 219.5,61.7 224.4,78.8 
			227.3,78.8 230.6,66.1 233.8,78.8 236.7,78.8 241.6,61.7 		"/>
		<polygon class="st1" points="262.6,70.1 259.5,61.7 255.8,61.7 260.8,72.1 260.8,78.8 263.8,78.8 263.8,72.1 269.1,61.7 
			265.7,61.7 		"/>
		<path class="st1" d="M276.3,68.6c-1.6-0.8-3-1.1-3-2.7c0-1.7,1.9-1.8,3.1-1.8s3.1,0.7,3.1,0.7l0.6-2.7c0,0-3.2-0.5-4.6-0.5
			s-5.1,0.9-5.1,4.7c0,3.8,3.4,5.3,5.1,6c1.7,0.7,2.3,1.5,2.3,2.6c0,1.1-1.3,1.8-3.2,1.8s-3.8-0.7-3.8-0.7l-0.7,2.8
			c0,0,3.2,0.7,4.7,0.7s6-0.5,6-4.7S277.9,69.3,276.3,68.6z"/>
	</g>
</g>
</svg>
