<?xml version="1.0" encoding="utf-8"?>
<!-- Generator: Adobe Illustrator 25.4.1, SVG Export Plug-In . SVG Version: 6.00 Build 0)  -->
<svg version="1.1" id="Layer_1" xmlns="http://www.w3.org/2000/svg" xmlns:xlink="http://www.w3.org/1999/xlink" x="0px" y="0px"
	 viewBox="0 0 124.22 80" style="enable-background:new 0 0 124.22 80;" xml:space="preserve">
<style type="text/css">
	.st0{fill:#004FA3;}
</style>
<path id="path7129" class="st0" d="M44.89,80c-6.21-5.17-13.51-10.09-14.09-20.35c-0.34-6.06,2.24-9.39,2.47-14.83
	c0.38-9.09-1.79-14.36-7.17-19.24c-1.29,1.08-2.43,1.81-4.24,1.61c-6.14-0.67-6.4-8.09-12.28-8.63c-2.49-0.24-3.73,1.01-4.87,2.55
	l-2.25-2.29l2.73-2.81L0.92,16L0,12.56c2.24,0.31,3.59-0.97,3.73-2.77h45.58c-3.18,0.76-4.68,4.35-7.92,4.86
	c-2.05,0.2-3.34-0.4-4.84-1.47c-0.27,0-0.56,0.27-0.56,0.55c0,1.09,3.31,2.01,4.41,1.99c5.57-0.12,6.63-5.94,13-5.94h70.82
	l-10.05,8.88c-0.9,0.8-2.08,1.07-3.13,1.07l-67.4,0.02l1.74,1.89l65.6,0.01l-10.5,8.9c-0.9,0.76-2.22,1.03-3.4,1.03H54.81l1.75,1.88
	H97.3l-10.38,8.66c-1.1,0.91-2.71,1.11-4.14,1.11H60.43l1.75,1.96H83.5l-10.29,8.96c-0.83,0.73-2.02,1.1-3.13,1.1h-5.13
	c0.03,1.81,1.89,1.83,2.97,1.73h2.84L44.89,80z M26.65,8.23c-0.47-0.33-1.48-2.83-1.29-4.38C25.6,1.9,27.19-0.02,29.16,0
	c2.27,0.04,4.02,1.47,6.58,1.5c1.08,0.02,2.01-0.75,2.65-1.09c-0.47,2.24-1.77,4.79-4.11,5.4c-1.87,0.48-4.32-0.33-5.93,0.33
	C27.43,6.5,26.85,7.73,26.65,8.23"/>
</svg>
