<?xml version="1.0" encoding="utf-8"?>
<!-- Generator: Adobe Illustrator 25.4.1, SVG Export Plug-In . SVG Version: 6.00 Build 0)  -->
<svg version="1.1" id="Layer_1" xmlns="http://www.w3.org/2000/svg" xmlns:xlink="http://www.w3.org/1999/xlink" x="0px" y="0px"
	 viewBox="0 0 294.58 80" style="enable-background:new 0 0 294.58 80;" xml:space="preserve">
<style type="text/css">
	.st0{fill:#004FA3;}
	.st1{fill:#ED4425;}
</style>
<g>
	<path id="path7083" class="st0" d="M166.97,9.94l-11.99,32.07L142.88,9.94h-15.2v48.5h10.87v-29l11.64,29h9.33l11.78-29v29h10.89
		V9.94H166.97z M191.92,58.44h10.88V9.94h-10.88V58.44z M231.25,26.39l11.51,32.05h11.94l-17.71-48.5h-10.8l-19.26,48.5h11.94
		L231.25,26.39z M255.57,9.94v9.84h14.06v38.66h10.88V19.79h14.07V9.94H255.57z"/>
	<polygon id="polyline7085_00000151517210040340611510000005961060049460600968_" class="st1" points="221.49,56.98 233.56,56.98 
		237.5,46.51 225.45,46.51 	"/>
	<polygon id="polyline7087_00000179630286322729977810000016827627379236202920_" class="st0" points="127.68,76.7 129.61,76.7 
		129.61,67.8 129.63,67.8 132.84,76.7 134.5,76.7 137.7,67.8 137.77,67.8 137.77,76.7 139.67,76.7 139.67,65.16 136.85,65.16 
		133.75,74.21 133.71,74.21 130.52,65.16 127.68,65.16 	"/>
	<path id="path7089" class="st0" d="M146.57,64.88c-3.47,0-5.55,2.77-5.55,6.05c0,3.31,2.08,6.05,5.55,6.05
		c3.45,0,5.52-2.75,5.52-6.05C152.09,67.65,150.02,64.88,146.57,64.88 M146.57,66.54c2.46,0,3.5,2.17,3.5,4.39
		c0,2.22-1.04,4.41-3.5,4.41c-2.51,0-3.53-2.19-3.53-4.41C143.04,68.71,144.06,66.54,146.57,66.54"/>
	<polygon id="polyline7091_00000129909973394263946660000004993837398807659959_" class="st0" points="153.39,76.7 155.33,76.7 
		155.33,68.24 155.37,68.24 160.63,76.7 162.78,76.7 162.78,65.16 160.83,65.16 160.83,73.67 160.8,73.67 155.54,65.16 
		153.39,65.16 	"/>
	<path id="path7093_00000108268816051843511180000008862461316898943921_" class="st0" d="M174.77,70.62h-4.92v1.55h3.09
		c-0.02,1.95-1.16,3.2-3.25,3.17c-2.46,0-3.49-2.19-3.49-4.41c0-2.2,1.03-4.39,3.49-4.39c1.47,0,2.79,0.77,2.99,2.26h1.97
		c-0.31-2.57-2.44-3.93-4.97-3.93c-3.45,0-5.53,2.77-5.53,6.08c0,3.28,2.08,6.02,5.53,6.02c1.42,0,2.41-0.38,3.5-1.62l0.31,1.33
		h1.27V70.62z"/>
	<path id="path7095" class="st0" d="M181.43,64.88c-3.46,0-5.55,2.77-5.55,6.05c0,3.31,2.1,6.05,5.55,6.05
		c3.45,0,5.54-2.75,5.54-6.05C186.97,67.65,184.88,64.88,181.43,64.88 M181.43,66.54c2.49,0,3.5,2.17,3.5,4.39
		c0,2.22-1.01,4.41-3.5,4.41c-2.5,0-3.5-2.19-3.5-4.41C177.93,68.71,178.94,66.54,181.43,66.54"/>
	<polygon id="polyline7097_00000170982734144391060780000003699838841350266507_" class="st0" points="188.35,76.7 196.25,76.7 
		196.25,74.96 190.38,74.96 190.38,65.16 188.35,65.16 	"/>
	<rect id="rect7099" x="197.17" y="65.16" class="st0" width="2.02" height="11.53"/>
	<path id="path7101" class="st0" d="M205.31,67.15l1.79,4.99h-3.52L205.31,67.15z M199.86,76.7h2.07l1.09-3.03h4.61l1.09,3.03h2.16
		l-4.46-11.55h-2.15L199.86,76.7z"/>
	<polygon id="polyline7103_00000065795311745398253090000004415141233821709737_" class="st0" points="211.45,76.7 213.36,76.7 
		213.36,68.24 213.41,68.24 218.68,76.7 220.82,76.7 220.82,65.16 218.89,65.16 218.89,73.67 218.86,73.67 213.59,65.16 
		211.45,65.16 	"/>
	<path id="path7105" class="st0" d="M230.88,67.15h0.05l1.75,4.99h-3.52L230.88,67.15z M225.43,76.7h2.07l1.08-3.03h4.61l1.09,3.03
		h2.17L232,65.14h-2.14L225.43,76.7z"/>
	<rect id="rect7107" x="237.11" y="65.16" class="st0" width="2" height="11.53"/>
	<path id="path7109" class="st0" d="M243.13,66.8h3.29c1.09,0,2.03,0.31,2.03,1.77c0,1.23-0.7,1.85-1.98,1.85h-3.34V66.8z
		 M241.14,76.7h1.99v-4.73h3c1.89,0,2.3,0.91,2.3,3.04c0,0.55,0,1.2,0.31,1.68h2.17c-0.42-0.46-0.62-1.68-0.62-3.03
		c0-1.82-1.04-2.35-1.71-2.45v-0.02c0.36-0.16,1.9-0.7,1.9-2.92c0-1.96-1.29-3.11-3.84-3.11h-5.49V76.7H241.14z"/>
	<polygon id="polyline7111_00000070082635114874883750000003090570950687616907_" class="st0" points="252.04,76.7 259.93,76.7 
		259.93,74.96 254.07,74.96 254.07,65.16 252.04,65.16 	"/>
	<rect id="rect7113" x="260.87" y="65.16" class="st0" width="2.01" height="11.53"/>
	<polygon id="polyline7115_00000018213933201288631290000017744776587165206159_" class="st0" points="264.8,76.7 266.73,76.7 
		266.73,68.24 266.77,68.24 272.04,76.7 274.18,76.7 274.18,65.16 272.23,65.16 272.23,73.67 272.2,73.67 266.95,65.16 264.8,65.16 
			"/>
	<polygon id="polyline7117_00000116929170404677555230000012246470483511749504_" class="st0" points="276.1,76.7 284.54,76.7 
		284.54,74.96 278.11,74.96 278.11,71.61 283.94,71.61 283.94,69.91 278.11,69.91 278.11,66.9 284.44,66.9 284.44,65.16 
		276.1,65.16 	"/>
	<path id="path7127_00000112616709214580485370000009872422523335584659_" class="st0" d="M285.14,72.86
		c0.05,2.88,2.17,4.13,4.81,4.13c2.32,0,4.63-1.01,4.63-3.61c0-1.2-0.75-2.49-2.26-2.94c-0.61-0.2-3.2-0.85-3.35-0.89
		c-0.81-0.22-1.37-0.7-1.37-1.5c0-1.15,1.18-1.5,2.11-1.5c1.4,0,2.4,0.55,2.52,2.03h2c0-2.42-2-3.69-4.44-3.69
		c-2.07,0-4.2,1.11-4.2,3.41c0,1.2,0.56,2.39,2.54,2.92c1.58,0.44,2.62,0.65,3.44,0.97c0.49,0.16,0.97,0.55,0.97,1.42
		c0,0.87-0.68,1.75-2.46,1.75c-1.62,0-2.92-0.7-2.92-2.49H285.14z"/>
	<path id="path7129" class="st0" d="M44.89,80c-6.21-5.17-13.51-10.09-14.09-20.35c-0.34-6.06,2.24-9.39,2.47-14.83
		c0.38-9.09-1.79-14.36-7.17-19.24c-1.29,1.08-2.43,1.81-4.24,1.61c-6.14-0.67-6.4-8.09-12.28-8.63c-2.49-0.24-3.73,1.01-4.87,2.55
		l-2.25-2.29l2.73-2.81L0.92,16L0,12.56c2.24,0.31,3.59-0.97,3.73-2.77h45.58c-3.18,0.76-4.68,4.35-7.92,4.86
		c-2.05,0.2-3.34-0.4-4.84-1.47c-0.27,0-0.56,0.27-0.56,0.55c0,1.09,3.31,2.01,4.41,1.99c5.57-0.12,6.63-5.94,13-5.94h70.82
		l-10.05,8.88c-0.9,0.8-2.08,1.07-3.13,1.07l-67.4,0.02l1.74,1.89l65.6,0.01l-10.5,8.9c-0.9,0.76-2.22,1.03-3.4,1.03H54.81
		l1.75,1.88H97.3l-10.38,8.66c-1.1,0.91-2.71,1.11-4.14,1.11H60.43l1.75,1.96H83.5l-10.29,8.96c-0.83,0.73-2.02,1.1-3.13,1.1h-5.13
		c0.03,1.81,1.89,1.83,2.97,1.73h2.84L44.89,80z M26.65,8.23c-0.47-0.33-1.48-2.83-1.29-4.38C25.6,1.9,27.19-0.02,29.16,0
		c2.27,0.04,4.02,1.47,6.58,1.5c1.08,0.02,2.01-0.75,2.65-1.09c-0.47,2.24-1.77,4.79-4.11,5.4c-1.87,0.48-4.32-0.33-5.93,0.33
		C27.43,6.5,26.85,7.73,26.65,8.23"/>
</g>
</svg>
