<?xml version="1.0" encoding="utf-8"?>
<!-- Generator: Adobe Illustrator 25.4.1, SVG Export Plug-In . SVG Version: 6.00 Build 0)  -->
<svg version="1.1" id="Layer_1" xmlns="http://www.w3.org/2000/svg" xmlns:xlink="http://www.w3.org/1999/xlink" x="0px" y="0px"
	 viewBox="0 0 91.8 80" style="enable-background:new 0 0 91.8 80;" xml:space="preserve">
<style type="text/css">
	.st0{fill:#456AA1;}
	.st1{fill:#9CCBDB;}
	.st2{fill:#77B8B5;}
</style>
<g>
	<path id="path943" class="st0" d="M69.6,0.1L87.9,0c2.2,0,4.7-0.2,3.7,3L66.9,80H3c-4.1,0-3.4-2.1-1.8-3.9L69.6,0.1z"/>
	<path id="path945" class="st1" d="M43.5,58.9c-0.6,0.4-1.1,0.5-2.6,0.5c-2.3,0-4.3-1.9-4.3-4.5c0-3.8,3.8-8.1,9.4-8.1
		c6,0,8.7,3.6,11.4,6.9c2.9,3.5,5.7,5.2,7.5,5.2c2.2,0,4.6-0.8,6.9-1.5c-2.1,3-5.6,5.8-9.3,5.8c-3.4,0-6.7-2.6-9.2-5.6
		c-1.6-1.9-3.4-4-7.2-4c-2.6,0-4.4,1.5-4.4,2.7C41.6,57.5,42.3,58.3,43.5,58.9z"/>
	<path id="path945-6" class="st2" d="M46.2,59.7c0.6-0.4,1.1-0.5,2.6-0.5c2.3,0,4.3,1.9,4.3,4.5c0,3.8-3.8,8.1-9.4,8.1
		c-6,0-8.7-3.6-11.4-6.9c-2.9-3.5-5.7-5.2-7.5-5.2c-2.2,0-4.6,0.8-6.9,1.5c2.1-3,5.6-5.8,9.3-5.8c3.4,0,6.7,2.6,9.2,5.6
		c1.6,1.9,3.4,4,7.2,4c2.6,0,4.4-1.5,4.4-2.7C48.1,61.2,47.4,60.4,46.2,59.7z"/>
</g>
</svg>
