<?xml version="1.0" encoding="utf-8"?>
<!-- Generator: Adobe Illustrator 25.4.1, SVG Export Plug-In . SVG Version: 6.00 Build 0)  -->
<svg version="1.1" id="Layer_1" xmlns="http://www.w3.org/2000/svg" xmlns:xlink="http://www.w3.org/1999/xlink" x="0px" y="0px"
	 viewBox="0 0 352.7 80" style="enable-background:new 0 0 352.7 80;" xml:space="preserve">
<style type="text/css">
	.st0{fill:#456AA1;}
	.st1{fill:#9CCBDB;}
	.st2{fill:#77B8B5;}
</style>
<g id="layer1">
	<g id="text849" transform="matrix(0.48923424,0,0,0.48923424,122.46515,-63.527929)">
		<path id="path851" class="st0" d="M-236.9,286.4l0.8,6.7h2.7l-2.9-21.1h-3.1l-10.9,21.1h2.8l3.4-6.7H-236.9z M-243.3,284.3
			l3.2-6.1c0.6-1.3,1.2-2.6,1.7-3.9h0.1c0.1,1.3,0.3,2.8,0.4,3.9l0.8,6.1L-243.3,284.3z"/>
		<path id="path853" class="st0" d="M-228,293l2.9-15.2h-2.6l-2.9,15.2H-228z M-225.7,275.3c1,0,1.7-0.7,1.8-1.8
			c0-0.9-0.6-1.6-1.5-1.6c-0.9,0-1.7,0.8-1.7,1.8C-227.2,274.6-226.6,275.3-225.7,275.3L-225.7,275.3z"/>
		<path id="path855" class="st0" d="M-220.8,293l1.3-6.7c0.7-3.5,2.7-6.3,4.9-6.3c0.3,0,0.5,0,0.7,0.1l0.5-2.6
			c-0.2,0-0.5-0.1-0.7-0.1c-2,0-3.7,1.6-4.6,3.6h-0.1c0.2-1.2,0.3-2.2,0.4-3.3h-2.3c-0.2,1.4-0.4,3.4-0.8,5.4l-1.8,9.8L-220.8,293z"
			/>
		<path id="path857" class="st0" d="M-210.8,293l4.3-22.2h-2.6l-4.2,22.2H-210.8z"/>
		<path id="path859" class="st0" d="M-203.7,293l2.9-15.2h-2.6l-2.9,15.2H-203.7z M-201.4,275.3c1,0,1.7-0.7,1.8-1.8
			c0-0.9-0.6-1.6-1.5-1.6c-0.9,0-1.7,0.8-1.7,1.8C-202.9,274.6-202.3,275.3-201.4,275.3L-201.4,275.3z"/>
		<path id="path861" class="st0" d="M-196.5,293l1.4-7.4c0.7-3.8,3.3-6,5.2-6c1.8,0,2.4,1.1,2.4,2.7c0,0.6-0.1,1.3-0.2,1.9l-1.7,8.7
			h2.6l1.7-8.8c0.2-0.8,0.3-1.8,0.3-2.4c0-3.2-2-4.2-3.9-4.2c-2.2,0-4.3,1.2-5.6,3.3h-0.1l0.4-3h-2.3c-0.2,1.3-0.4,2.7-0.7,4.4
			l-2,10.7L-196.5,293z"/>
		<path id="path863" class="st0" d="M-171.8,290.2c-0.9,0.5-2.3,1.1-4.1,1.1c-1.6,0-2.8-0.7-3.4-2c-0.3-0.8-0.4-2.2-0.3-2.9
			c5.6,0.1,10.1-1,10.1-4.9c0-2.2-1.6-3.9-4.4-3.9c-4.9,0-8.3,5.2-8.3,9.7c0,3.4,1.8,6.1,5.8,6.1c2,0,3.9-0.6,5-1.2L-171.8,290.2z
			 M-172,281.5c0,2.3-3.2,2.9-7.3,2.9c0.6-2.4,2.5-4.8,4.9-4.8C-172.9,279.6-172,280.2-172,281.5L-172,281.5z"/>
		<path id="path865" class="st0" d="M-153.9,277.5c-4.9,0-8.4,4.6-8.4,9.6c0,3.4,2.1,6.2,5.9,6.2c5.1,0,8.4-4.9,8.4-9.5
			C-147.9,280.6-149.8,277.5-153.9,277.5z M-154.1,279.6c2.7,0,3.5,2.5,3.5,4.2c0,3.5-2.3,7.5-5.4,7.5c-2.2,0-3.6-1.8-3.6-4.3
			C-159.6,283.6-157.4,279.6-154.1,279.6L-154.1,279.6z"/>
		<path id="path867" class="st0" d="M-143.2,293l2.5-13.1h3.4l0.4-2.1h-3.4l0.1-0.7c0.4-2.5,1.4-4.5,3.5-4.5c0.6,0,1.1,0.1,1.5,0.3
			l0.6-2.1c-0.3-0.2-1-0.4-2.1-0.4c-1.3,0-2.7,0.5-3.6,1.3c-1.4,1.2-2.1,3.2-2.5,5.3l-0.2,0.8h-2l-0.4,2.1h2l-2.5,13.1L-143.2,293z"
			/>
		<path id="path869" class="st0" d="M-127.6,275.1l-0.5,2.8h-2.2l-0.4,2h2.2l-1.5,7.7c-0.2,1.1-0.3,2-0.3,2.9c0,1.5,0.9,2.9,3.2,2.9
			c0.8,0,1.5-0.1,2-0.3l0.1-2.1c-0.3,0.1-0.8,0.1-1.2,0.1c-1,0-1.4-0.6-1.4-1.5c0-0.8,0.1-1.6,0.3-2.4l1.4-7.4h3.6l0.4-2h-3.6
			l0.7-3.6L-127.6,275.1z"/>
		<path id="path871" class="st0" d="M-119.1,293l1.4-7.6c0.6-3.4,3.2-5.8,5.2-5.8c1.7,0,2.3,1.1,2.3,2.5c0,0.8-0.1,1.5-0.2,2.1
			l-1.7,8.7h2.6l1.7-8.9c0.2-0.8,0.3-1.8,0.3-2.6c0-3-2-4.1-3.8-4.1c-2.3,0-4.1,1.2-5.4,3h-0.1l1.9-9.8h-2.6l-4.2,22.2L-119.1,293z"
			/>
		<path id="path873" class="st0" d="M-94.5,290.2c-0.9,0.5-2.3,1.1-4.1,1.1c-1.6,0-2.8-0.7-3.4-2c-0.3-0.8-0.4-2.2-0.3-2.9
			c5.6,0.1,10.1-1,10.1-4.9c0-2.2-1.6-3.9-4.4-3.9c-4.9,0-8.3,5.2-8.3,9.7c0,3.4,1.8,6.1,5.8,6.1c2,0,3.9-0.6,5-1.2L-94.5,290.2z
			 M-94.7,281.5c0,2.3-3.2,2.9-7.3,2.9c0.6-2.4,2.5-4.8,4.9-4.8C-95.6,279.6-94.7,280.2-94.7,281.5L-94.7,281.5z"/>
		<path id="path875" class="st0" d="M-70.8,290.2c-1.2,0.6-2.9,0.9-4.5,0.9c-4.7,0-6.4-3.1-6.4-6.9c0-3.2,1.3-6.2,3.2-8
			c1.6-1.5,3.9-2.4,6-2.4c1.9,0,3.4,0.4,4.2,0.9l0.8-2.1c-0.6-0.4-2.2-1-4.6-1c-3.1,0-5.8,1-8,2.9c-2.9,2.4-4.5,6.2-4.5,10.2
			c0,5.4,3.2,8.8,8.6,8.8c2.4,0,4.3-0.5,5.5-1L-70.8,290.2z"/>
		<path id="path877" class="st0" d="M-57.4,290.2c-0.9,0.5-2.3,1.1-4.1,1.1c-1.6,0-2.8-0.7-3.4-2c-0.3-0.8-0.4-2.2-0.3-2.9
			c5.6,0.1,10.1-1,10.1-4.9c0-2.2-1.6-3.9-4.4-3.9c-4.9,0-8.3,5.2-8.3,9.7c0,3.4,1.8,6.1,5.8,6.1c2,0,3.9-0.6,5-1.2L-57.4,290.2z
			 M-57.6,281.5c0,2.3-3.2,2.9-7.3,2.9c0.6-2.4,2.5-4.8,4.9-4.8C-58.5,279.6-57.6,280.2-57.6,281.5L-57.6,281.5z"/>
		<path id="path879" class="st0" d="M-51.2,293l1.4-7.4c0.7-3.8,3.3-6,5.2-6c1.8,0,2.4,1.1,2.4,2.7c0,0.6-0.1,1.3-0.2,1.9l-1.7,8.7
			h2.6l1.7-8.8c0.2-0.8,0.3-1.8,0.3-2.4c0-3.2-2-4.2-3.9-4.2c-2.2,0-4.3,1.2-5.6,3.3h-0.1l0.4-3H-51c-0.2,1.3-0.4,2.7-0.7,4.4
			l-2,10.7L-51.2,293z"/>
		<path id="path881" class="st0" d="M-33.1,275.1l-0.5,2.8h-2.2l-0.4,2h2.2l-1.5,7.7c-0.2,1.1-0.3,2-0.3,2.9c0,1.5,0.9,2.9,3.2,2.9
			c0.8,0,1.5-0.1,2-0.3l0.1-2.1c-0.3,0.1-0.8,0.1-1.2,0.1c-1,0-1.4-0.6-1.4-1.5c0-0.8,0.1-1.6,0.3-2.4l1.4-7.4h3.6l0.4-2H-31
			l0.7-3.6L-33.1,275.1z"/>
		<path id="path883" class="st0" d="M-24.6,293l1.3-6.7c0.7-3.5,2.7-6.3,4.9-6.3c0.3,0,0.5,0,0.7,0.1l0.5-2.6
			c-0.2,0-0.5-0.1-0.7-0.1c-2,0-3.7,1.6-4.6,3.6h-0.1c0.2-1.2,0.3-2.2,0.4-3.3h-2.3c-0.2,1.4-0.4,3.4-0.8,5.4l-1.8,9.8L-24.6,293z"
			/>
		<path id="path885" class="st0" d="M-5.3,293c-0.1-1.7,0.2-4.4,0.7-7l1.5-7.9c-1-0.3-2.6-0.6-4.1-0.6c-6.6,0-10.5,5.6-10.5,10.8
			c0,2.9,1.7,5,4.4,5c2.2,0,4.2-1.1,5.9-4.3h0.1c-0.2,1.6-0.3,3-0.3,3.9L-5.3,293z M-6.9,284.4c-0.8,4-3.3,6.9-5.5,6.9
			c-2,0-2.6-1.7-2.6-3.4c0-4.2,3.2-8.3,7.1-8.3c0.9,0,1.4,0.1,1.8,0.2L-6.9,284.4z"/>
		<path id="path887" class="st0" d="M1.2,293l4.3-22.2H2.9L-1.4,293H1.2z"/>
		<path id="path889" class="st0" d="M11.6,293h2.6l1.6-8.5c0.7,0.1,1.4,0.2,2.2,0.2c2.4,0,4.8-0.7,6.4-2c1.4-1.2,2.5-3.1,2.5-5.5
			c0-1.7-0.5-2.9-1.5-3.8c-1.2-1.1-3.1-1.6-5.2-1.6c-1.7,0-3.4,0.2-4.6,0.5L11.6,293z M17.7,274.1c0.5-0.1,1.3-0.2,2.3-0.2
			c2.4,0,4.2,1,4.2,3.5c0,3-2.4,5.2-6,5.2c-0.8,0-1.3-0.1-2.1-0.2L17.7,274.1z"/>
		<path id="path891" class="st0" d="M39.2,293c-0.1-1.7,0.2-4.4,0.7-7l1.5-7.9c-1-0.3-2.6-0.6-4.1-0.6c-6.6,0-10.5,5.6-10.5,10.8
			c0,2.9,1.7,5,4.4,5c2.2,0,4.2-1.1,5.9-4.3h0.1c-0.2,1.6-0.3,3-0.3,3.9L39.2,293z M37.6,284.4c-0.8,4-3.3,6.9-5.5,6.9
			c-2,0-2.6-1.7-2.6-3.4c0-4.2,3.2-8.3,7.1-8.3c0.9,0,1.4,0.1,1.8,0.2L37.6,284.4z"/>
		<path id="path893" class="st0" d="M53.2,290.4c-0.8,0.4-2,0.8-3.5,0.8c-2.5,0-3.8-1.6-3.8-4c0-3.6,2.5-7.5,6.4-7.5
			c1.1,0,2,0.3,2.6,0.6l0.8-2.1c-0.5-0.3-1.8-0.7-3.2-0.7c-5.5,0-9.3,4.8-9.3,9.9c0,3.2,1.9,5.9,5.8,5.9c2,0,3.6-0.6,4.4-0.9
			L53.2,290.4z"/>
		<path id="path895" class="st0" d="M58.9,293l2.9-15.2h-2.6L56.3,293H58.9z M61.2,275.3c1,0,1.7-0.7,1.8-1.8c0-0.9-0.6-1.6-1.5-1.6
			c-0.9,0-1.7,0.8-1.7,1.8C59.7,274.6,60.3,275.3,61.2,275.3L61.2,275.3z"/>
		<path id="path897" class="st0" d="M77.4,270.5l-4.4,0c-1.3,0-2.7,0.5-3.6,1.3c-1.4,1.2-2.1,3.2-2.5,5.3l-0.2,0.8h-2l-0.4,2.1h2
			L63.9,293l2.6,0l2.5-13.1h3.4l0.4-2.1h-3.4l0.1-0.7c0.4-2.5,1.4-4.5,3.5-4.5l4.2,0L77.4,270.5z"/>
		<path id="path899" class="st0" d="M75,293l2.9-15.2h-2.6L72.4,293H75z"/>
		<path id="path901" class="st0" d="M89.7,290.4c-0.8,0.4-2,0.8-3.5,0.8c-2.5,0-3.8-1.6-3.8-4c0-3.6,2.5-7.5,6.4-7.5
			c1.1,0,2,0.3,2.6,0.6l0.8-2.1c-0.5-0.3-1.8-0.7-3.2-0.7c-5.5,0-9.3,4.8-9.3,9.9c0,3.2,1.9,5.9,5.8,5.9c2,0,3.6-0.6,4.4-0.9
			L89.7,290.4z"/>
	</g>
	<g id="text941" transform="matrix(0.48923424,0,0,0.48923424,122.46515,-63.527929)">
		<path id="path967" class="st0" d="M-202,185.7l1.5,6.3c1.4,5.8,2.8,10.8,4.2,15.2c1.4,4.3,4.9,14.3,10.6,30
			c0.5-2,1.6-6.4,3.2-13.2c2.1-8.9,3.5-14.4,4.2-16.7c2-6.7,4-11.6,5.8-14.7c1.9-3.1,4-5.4,6.3-6.8c2.3-1.4,4.9-2.1,7.8-2.1
			c2.3,0,4.1,0.5,5.4,1.4c1.3,0.9,1.9,2,1.9,3.2c0,0.9-0.3,1.7-1,2.4c-0.6,0.7-1.4,1-2.3,1c-0.6,0-1.4-0.2-2.3-0.5
			c-1.8-0.7-2.9-1.1-3.2-1.2c-0.6-0.1-1.4-0.2-2.1-0.2c-1.8,0-3.3,0.6-4.5,1.8c-2.2,2.1-4.7,7.3-7.4,15.7
			c-2.7,8.4-6.1,21.8-10.2,40.3l-1.8,8.1c-4.1-9.1-6.9-15.5-8.3-19.3c-1.9-5.1-4.2-11.5-6.7-19.3l-6-18.7
			c-0.7,4.3-2.4,11.6-5.1,21.9c-2.6,10.2-4.2,16.1-4.7,17.7c-1.7,4.9-3.4,8.6-5.4,11.2c-1.9,2.6-4,4.5-6.2,5.7
			c-2.2,1.2-4.7,1.8-7.4,1.8c-3.4,0-6.2-0.8-8.3-2.3c-1.7-1.1-2.5-2.5-2.5-4.3c0-0.8,0.3-1.4,0.9-2c0.6-0.6,1.4-0.9,2.2-0.9
			c1.1,0,2.3,0.6,3.6,1.8c2.3,2.1,4.4,3.2,6.3,3.2c2.1,0,4.1-0.9,6.1-2.8c3-2.8,5.8-8.7,8.5-17.7c3.3-10.9,6.5-24.6,9.6-41.3
			c-1.3,0-3.7,0.4-7.3,1.1c-3.6,0.7-6.6,1.7-9,3.1c-2.4,1.3-4.2,3-5.5,5.1c-1.3,2.1-1.9,4.3-1.9,6.6c0,1.2,0.2,2.3,0.5,3.5
			c0.2,0.8,0.7,1.8,1.4,2.9c0.8,1.3,1.2,2.3,1.2,3c0,0.9-0.3,1.6-1,2.2c-0.6,0.6-1.4,0.9-2.3,0.9c-1.4,0-2.5-0.7-3.5-2.1
			c-1-1.4-1.5-3.6-1.5-6.5c0-4.8,1.2-8.9,3.6-12.3c2.5-3.4,5.7-6,9.8-7.7c2.6-1.1,7.6-2.1,15-3.1C-207,186.8-204.4,186.3-202,185.7
			L-202,185.7z"/>
		<path id="path969" class="st0" d="M-128.8,204.5l3.6-0.8l-4.1,13.7c-1.6,5.4-3.2,11.7-4.6,18.8c-0.8,3.9-1.2,6.3-1.2,7.5
			s0.5,1.7,1.4,1.7c0.6,0,1.5-0.4,2.8-1.1c2.2-1.3,4.4-3,6.4-5l1.7,2.1c-4.1,3.8-6.7,6-7.9,6.8c-2.3,1.6-4.5,2.8-6.6,3.5
			c-1.4,0.5-2.7,0.8-4,0.8c-0.9,0-1.6-0.2-2.1-0.6c-0.5-0.4-0.7-1.1-0.7-1.9c0-0.5,0.1-1.3,0.4-2.2l2.2-7.4
			c-3.1,3.7-6.8,6.9-11.1,9.6c-2.6,1.7-5.1,2.5-7.3,2.5c-2.1,0-3.7-0.7-4.8-2.2c-1.5-2-2.3-4.6-2.3-7.8c0-3.8,1-8.1,3-12.8
			c2.1-4.7,4.8-8.9,8.2-12.8c3.4-3.8,7-6.6,10.8-8.4c2.9-1.4,6.7-2.1,11.3-2.1c1.2,0,2.3,0.1,3.5,0.2L-128.8,204.5z M-135.5,212.7
			c-1.9-0.4-3.6-0.6-4.9-0.6c-3.2,0-6.1,0.9-8.5,2.7c-2.4,1.8-4.7,5-6.8,9.6c-2.1,4.6-3.1,9.2-3.1,13.9c0,2.5,0.4,4.2,1.2,5.3
			c0.8,1.1,1.9,1.6,3.2,1.6c2.5,0,5.2-1.3,8-4c2.8-2.7,4.9-6.6,6.3-11.6L-135.5,212.7z"/>
		<path id="path971" class="st0" d="M-83.8,206.8h7.7l-5.1,18.9c-3,11-4.5,17.2-4.5,18.7c0,0.7,0.2,1.2,0.5,1.6
			c0.3,0.4,0.7,0.5,1.1,0.5c0.6,0,1.3-0.3,2.2-0.8c1.2-0.8,3.4-2.9,6.8-6.3l1.8,2c-7.3,7.5-12.6,11.3-16,11.3c-1.2,0-2.1-0.5-3-1.4
			c-0.8-0.9-1.2-2.1-1.2-3.7c0-1.9,0.4-4.4,1.2-7.5c-3.2,3.7-7.2,6.9-11.9,9.7c-3.1,1.8-5.9,2.8-8.2,2.8c-1.3,0-2.3-0.4-3-1.2
			c-0.7-0.8-1.1-2.1-1.1-4c0-1.4,0.2-2.9,0.5-4.5c0.5-2.3,1.7-6.8,3.6-13.7c2.4-8.7,3.6-13.9,3.6-15.6c0-1-0.4-1.5-1.1-1.5
			c-0.6,0-1.5,0.3-2.7,1c-1.1,0.6-3,2.3-5.7,4.8l-2.4-1.9c4.8-4.3,8.5-7.2,11-8.5c2.6-1.4,4.6-2.1,6.2-2.1c0.9,0,1.6,0.3,2.1,1
			c0.5,0.6,0.8,1.6,0.8,2.9c0,2.5-1.3,8.6-3.9,18.3c-2.3,8.8-3.5,13.8-3.5,15c0,0.8,0.2,1.4,0.7,1.9c0.5,0.5,1,0.8,1.6,0.8
			c2,0,4.9-1.7,8.6-5c3.7-3.4,6.2-7.2,7.3-11.4L-83.8,206.8z"/>
		<path id="path973" class="st0" d="M-60.6,250.9h-8.1l3.8-14.6c1.8-7.1,3.4-13.9,4.8-20.3c0.3-1.6,0.5-2.6,0.5-3
			c0-0.9-0.4-1.3-1.2-1.3c-0.5,0-1.4,0.4-2.5,1.1c-1.1,0.7-3.1,2.5-6.1,5.5l-1.7-1.9c3.5-3.7,6.9-6.5,10.3-8.3
			c3.5-1.9,6.1-2.8,8-2.8c0.6,0,1.2,0.2,1.5,0.5c0.4,0.3,0.6,0.7,0.6,1.1c0,0.5-0.2,1.7-0.7,3.7l-2.3,9.7
			c3.6-5.7,7.8-10.6,12.3-14.7c2.2-1.9,4-2.9,5.5-2.9c1.1,0,2,0.4,2.7,1.1c0.7,0.7,1.1,1.5,1.1,2.4c0,1-0.4,1.8-1.1,2.5
			c-0.7,0.7-2.4,1.5-5.2,2.4c-2.7,0.9-4.9,2-6.5,3.2c-1.7,1.3-3.5,3.2-5.5,5.8c-2,2.6-3.4,4.9-4.2,6.8c-0.8,1.9-2,6.4-3.6,13.4
			L-60.6,250.9z"/>
		<path id="path975" class="st0" d="M-2,206.8h7.7l-5.1,18.9c-3,11-4.5,17.2-4.5,18.7c0,0.7,0.2,1.2,0.5,1.6
			c0.3,0.4,0.7,0.5,1.1,0.5c0.6,0,1.3-0.3,2.2-0.8c1.2-0.8,3.4-2.9,6.8-6.3l1.8,2c-7.3,7.5-12.6,11.3-16,11.3c-1.2,0-2.1-0.5-3-1.4
			c-0.8-0.9-1.2-2.1-1.2-3.7c0-1.9,0.4-4.4,1.2-7.5c-3.2,3.7-7.2,6.9-11.9,9.7c-3.1,1.8-5.9,2.8-8.2,2.8c-1.3,0-2.3-0.4-3-1.2
			c-0.7-0.8-1.1-2.1-1.1-4c0-1.4,0.2-2.9,0.5-4.5c0.5-2.3,1.7-6.8,3.6-13.7c2.4-8.7,3.6-13.9,3.6-15.6c0-1-0.4-1.5-1.1-1.5
			c-0.6,0-1.5,0.3-2.7,1c-1.1,0.6-3,2.3-5.7,4.8l-2.4-1.9c4.8-4.3,8.5-7.2,11-8.5c2.6-1.4,4.6-2.1,6.2-2.1c0.9,0,1.6,0.3,2.1,1
			c0.5,0.6,0.8,1.6,0.8,2.9c0,2.5-1.3,8.6-3.9,18.3c-2.3,8.8-3.5,13.8-3.5,15c0,0.8,0.2,1.4,0.7,1.9c0.5,0.5,1,0.8,1.6,0.8
			c2,0,4.9-1.7,8.6-5c3.7-3.4,6.2-7.2,7.3-11.4L-2,206.8z"/>
		<path id="path977" class="st0" d="M95.1,248.5l-0.5,3.1c-1.3,0.1-2.4,0.2-3.4,0.2c-1.4,0-3.1-0.1-5.1-0.3
			c-3.4-0.4-5.5-0.5-6.4-0.5c-1.5,0-3.8,0.2-7,0.7c1.1-2.8,2.1-5.8,2.8-8.9c0.5-2.2,1.1-6,1.7-11.4c-4.2,0-10.8,0.1-19.6,0.3
			c-9.2,14-15.9,22.8-20.2,26.4c-4.3,3.6-8.3,5.4-12.2,5.4c-2,0-3.5-0.4-4.5-1.2c-1-0.8-1.5-1.7-1.5-3c0-0.9,0.3-1.7,0.9-2.3
			c0.6-0.6,1.3-0.9,2.2-0.9c0.5,0,1.2,0.1,2.1,0.3c2.2,0.5,3.6,0.8,4.3,0.8c2.4,0,5.1-1.4,8-4.1c4.8-4.5,11.8-13.9,21.1-28.1
			c10.5-16.2,19.1-27.9,25.6-35.3c-8.9,0.8-14.5,1.6-16.7,2.3c-3,1-5.3,2.4-6.8,4.3c-1.5,1.9-2.3,3.9-2.3,5.8c0,0.6,0.2,1.6,0.7,2.8
			c0.5,1.3,0.8,2.3,0.8,2.9c0,0.8-0.3,1.5-0.9,2.1c-0.6,0.6-1.4,0.9-2.2,0.9c-1.2,0-2.2-0.5-3-1.4c-0.7-0.9-1.1-2.3-1.1-4.2
			c0-2.6,0.7-5.1,2-7.5c1.4-2.5,3.3-4.5,5.8-6.1c2.5-1.7,5.7-2.9,9.5-3.8c1.9-0.5,5.4-0.9,10.3-1.2c4.3-0.4,6.9-0.7,8-1
			c1.7-0.5,3.3-1.4,4.9-2.8c-1.1,4.4-1.9,8.3-2.3,11.6l-4.2,31.3L83.3,248c2.7,0.7,5.1,1,7.2,1C92,249,93.5,248.8,95.1,248.5
			L95.1,248.5z M77.7,227.3c1.7-14.6,3.5-25.3,5.2-32.1c-4.6,6.1-7.4,9.9-8.5,11.5l-13.9,20.6c3,0.1,7.3,0.2,12.8,0.2
			C74.7,227.5,76.2,227.4,77.7,227.3L77.7,227.3z"/>
		<path id="path979" class="st0" d="M124.8,182.1c1.1,0,2,0.4,2.8,1.1c0.7,0.7,1.1,1.7,1.1,2.8c0,1.6-0.6,3-1.7,4.2
			c-1.1,1.2-2.3,1.8-3.7,1.8c-1.1,0-2-0.4-2.7-1.1c-0.7-0.8-1.1-1.7-1.1-3c0-1.6,0.5-3,1.6-4.1C122.1,182.7,123.4,182.1,124.8,182.1
			L124.8,182.1z M103.5,217.9l-2.4-1.8c3.6-4,6.9-6.8,9.8-8.4c3-1.7,5.5-2.5,7.6-2.5c1.2,0,2,0.3,2.7,0.8c0.6,0.5,0.9,1.2,0.9,2.1
			c0,1-1.2,5.5-3.5,13.3c-3.8,12.8-5.7,20.5-5.7,23.2c0,0.5,0.1,0.9,0.4,1.3c0.3,0.3,0.5,0.5,0.8,0.5c1.2,0,4.1-2.2,8.9-6.7l2.1,2.1
			c-4.9,4.7-8.5,7.6-10.8,8.9c-2.3,1.3-4.1,1.9-5.6,1.9c-1.3,0-2.3-0.4-3-1.2c-0.7-0.8-1.1-1.9-1.1-3.3c0-4.5,2.7-15.5,8.1-33.1
			c0.3-0.8,0.4-1.6,0.4-2.2c0-0.7-0.3-1.1-1-1.1c-0.7,0-1.6,0.3-2.5,0.9C108.7,213,106.7,214.8,103.5,217.9L103.5,217.9z"/>
		<path id="path981" class="st0" d="M137.1,250.9h-8.1l3.8-14.6c1.8-7.1,3.4-13.9,4.8-20.3c0.3-1.6,0.5-2.6,0.5-3
			c0-0.9-0.4-1.3-1.2-1.3c-0.5,0-1.4,0.4-2.5,1.1c-1.1,0.7-3.1,2.5-6.1,5.5l-1.7-1.9c3.5-3.7,6.9-6.5,10.3-8.3
			c3.5-1.9,6.1-2.8,8-2.8c0.6,0,1.2,0.2,1.5,0.5c0.4,0.3,0.6,0.7,0.6,1.1c0,0.5-0.2,1.7-0.7,3.7l-2.3,9.7
			c3.6-5.7,7.8-10.6,12.3-14.7c2.2-1.9,4-2.9,5.5-2.9c1.1,0,2,0.4,2.7,1.1c0.7,0.7,1.1,1.5,1.1,2.4c0,1-0.4,1.8-1.1,2.5
			c-0.7,0.7-2.4,1.5-5.2,2.4c-2.7,0.9-4.9,2-6.5,3.2c-1.7,1.3-3.5,3.2-5.5,5.8c-2,2.6-3.4,4.9-4.2,6.8c-0.8,1.9-2,6.4-3.6,13.4
			L137.1,250.9z"/>
		<path id="path983" class="st0" d="M181.6,237.8l1.8,1.9c-2.8,3.2-6.2,6.1-10,8.7c-3.8,2.6-7,3.9-9.5,3.9c-1.1,0-2-0.4-2.8-1.3
			c-0.7-0.8-1.1-2-1.1-3.5c0-2.9,1.1-8.9,3.4-18l5.8-23.8c2.1-8.6,3.9-14.3,5.4-17.3c2.2-4.4,5.4-7.9,9.5-10.3
			c4.1-2.5,8.4-3.7,13-3.7c1.6,0,2.8,0.4,3.6,1.1c0.9,0.7,1.4,1.6,1.4,2.7c0,1.2-0.4,2.1-1.3,2.9c-0.9,0.7-2.1,1.1-3.8,1.1
			c-1.1,0-2.6-0.2-4.6-0.5c-1.7-0.3-3.3-0.4-4.8-0.4c-1.5,0-2.6,0.3-3.4,0.9c-1,0.9-2,2.7-2.9,5.5c-0.8,2.8-2.2,8.3-4.1,16.5
			l-5.4,22.7c-2.7,11.4-4,17.3-4,17.8c0,1.2,0.4,1.7,1.2,1.7c0.8,0,1.9-0.5,3.5-1.4C175.6,243.2,178.6,240.8,181.6,237.8
			L181.6,237.8z"/>
		<path id="path985" class="st0" d="M207.5,182.1c1.1,0,2,0.4,2.8,1.1c0.7,0.7,1.1,1.7,1.1,2.8c0,1.6-0.6,3-1.7,4.2
			c-1.1,1.2-2.3,1.8-3.7,1.8c-1.1,0-2-0.4-2.7-1.1c-0.7-0.8-1.1-1.7-1.1-3c0-1.6,0.5-3,1.6-4.1C204.8,182.7,206.1,182.1,207.5,182.1
			L207.5,182.1z M186.2,217.9l-2.4-1.8c3.6-4,6.9-6.8,9.8-8.4c3-1.7,5.5-2.5,7.6-2.5c1.2,0,2,0.3,2.7,0.8c0.6,0.5,0.9,1.2,0.9,2.1
			c0,1-1.2,5.5-3.5,13.3c-3.8,12.8-5.7,20.5-5.7,23.2c0,0.5,0.1,0.9,0.4,1.3c0.3,0.3,0.5,0.5,0.8,0.5c1.2,0,4.1-2.2,8.9-6.7l2.1,2.1
			c-4.9,4.7-8.5,7.6-10.8,8.9c-2.3,1.3-4.1,1.9-5.6,1.9c-1.3,0-2.3-0.4-3-1.2c-0.7-0.8-1.1-1.9-1.1-3.3c0-4.5,2.7-15.5,8.1-33.1
			c0.3-0.8,0.4-1.6,0.4-2.2c0-0.7-0.3-1.1-1-1.1c-0.7,0-1.6,0.3-2.5,0.9C191.4,213,189.4,214.8,186.2,217.9L186.2,217.9z"/>
		<path id="path987" class="st0" d="M211.4,218l-1.8-1.9c4.6-4.4,8.3-7.3,11-8.8c2.7-1.4,5.1-2.2,7-2.2c0.8,0,1.4,0.2,1.8,0.5
			c0.4,0.3,0.6,0.7,0.6,1.1c0,0.3-0.1,0.9-0.3,1.7l-2.4,10.9c3.7-4.1,8.3-7.9,13.9-11.4c3-1.8,5.4-2.8,7.3-2.8
			c1.4,0,2.5,0.5,3.3,1.4c0.8,0.9,1.2,2.2,1.2,3.9c0,1.1-0.2,2.4-0.5,3.8c-0.6,2.3-2.1,7.4-4.5,15.3c-2.3,7.4-3.5,12.2-3.5,14.7
			c0,0.7,0.1,1.3,0.3,1.6c0.2,0.4,0.5,0.5,0.9,0.5c1,0,2.7-1,4.9-3c1.6-1.4,3.2-2.8,4.8-4l1.4,1.9c-3.3,3.7-6.8,6.6-10.3,8.9
			c-2.3,1.4-4.1,2.2-5.6,2.2c-1.4,0-2.4-0.5-3.2-1.5c-0.8-1-1.1-2.6-1.1-4.8c0-3.2,2-11.2,6-24c1.2-4.5,1.8-7.2,1.8-8
			c0-1.1-0.7-1.7-2-1.7c-1.4,0-3.3,0.8-5.6,2.3c-3.4,2.2-6.2,4.9-8.5,7.9c-1.4,1.9-2.7,5.1-3.6,9.3l-4.4,18.9h-8.1
			c1.5-5.4,2.8-10.6,4-15.5l4.8-20.6c0.2-0.8,0.3-1.4,0.3-1.8c0-1-0.4-1.5-1.1-1.5c-0.6,0-1.4,0.4-2.5,1.1
			C215.5,214.1,213.4,215.9,211.4,218L211.4,218z"/>
		<path id="path989" class="st0" d="M287.9,237.3l1.8,2.4c-8.8,8.4-16.4,12.6-22.7,12.6c-2.6,0-4.5-0.9-5.9-2.6
			c-1.3-1.7-2-4.5-2-8.3c0-7.7,2.3-15.4,7-23.1c5.3-8.7,11.6-13,18.9-13c2.6,0,4.5,0.6,5.8,1.9c1.4,1.3,2.1,3,2.1,5.2
			c0,2.3-0.8,4.7-2.4,6.9c-1.6,2.3-4.5,4.6-8.7,7.1c-2.1,1.2-6.6,3.3-13.4,6.4c-0.3,1.9-0.5,3.8-0.5,5.6c0,2.6,0.4,4.3,1.2,5.4
			c0.8,1,2,1.5,3.6,1.5c1.5,0,3.1-0.4,4.9-1.2C279.9,243,283.3,240.7,287.9,237.3z M269,229.5c5.8-2.6,10.2-5.4,13.1-8.4
			c2-2.1,3-4.2,3-6.2c0-1.6-0.4-2.8-1.2-3.7c-0.8-0.9-1.8-1.4-3.1-1.4c-1.3,0-2.6,0.5-3.9,1.5c-1.7,1.3-3.1,3.4-4.3,6.1
			C270.8,221.3,269.7,225.3,269,229.5L269,229.5z"/>
		<path id="path991" class="st0" d="M319.8,205.3c3.2,0,5.7,0.6,7.4,1.9c1.8,1.2,2.7,2.7,2.7,4.3c0,1-0.4,1.8-1.1,2.5
			c-0.7,0.7-1.6,1.1-2.7,1.1c-0.7,0-1.3-0.1-1.8-0.4c-0.5-0.3-1.2-1.1-2.2-2.3c-1.8-2.3-3.5-3.5-5.2-3.5c-1.5,0-2.8,0.6-4,1.7
			c-1.1,1.1-1.7,2.5-1.7,4.2c0,1.5,0.4,2.9,1.1,4.3c0.7,1.4,2.5,3.6,5.5,6.7c4,4.3,6,8.3,6,12.1c0,3.8-1.6,7.2-4.9,10.1
			c-3.2,2.8-7.4,4.3-12.6,4.3c-4.3,0-7.5-0.9-9.6-2.6c-2.1-1.8-3.1-3.9-3.1-6.5c0-1.3,0.4-2.3,1.2-3.1c0.8-0.8,1.8-1.2,2.9-1.2
			c1,0,1.9,0.3,2.6,1c0.7,0.6,1.1,1.4,1.1,2.3c0,0.4,0,0.8-0.1,1.4c0,0.5-0.1,0.9-0.1,1.2c0,1.2,0.5,2.2,1.5,3c1,0.8,2.3,1.2,4,1.2
			c1.9,0,3.7-0.3,5.1-1c1.5-0.7,2.6-1.7,3.5-3c0.8-1.4,1.2-2.7,1.2-4.1c0-1.3-0.4-2.6-1.2-3.9c-0.8-1.3-2.5-3.4-5.2-6.4
			c-3.8-4.2-5.6-8.2-5.6-12.1c0-3.5,1.4-6.6,4.3-9.3C311.7,206.7,315.4,205.3,319.8,205.3L319.8,205.3z"/>
	</g>
	<path id="path943" class="st0" d="M336,0.1L349.8,0c1.7,0,3.5-0.1,2.8,2.2L334.1,60h-47.9c-3.1,0-2.6-1.6-1.3-2.9L336,0.1z"/>
	<path id="path945" class="st1" d="M316.5,44.2c-0.4,0.3-0.8,0.4-2,0.4c-1.8,0-3.2-1.4-3.2-3.4c0-2.9,2.9-6.1,7.1-6.1
		c4.5,0,6.5,2.7,8.5,5.1c2.2,2.6,4.2,3.9,5.6,3.9c1.6,0,3.4-0.6,5.2-1.1c-1.6,2.2-4.2,4.3-7,4.3c-2.6,0-5-1.9-6.9-4.2
		c-1.2-1.4-2.5-3-5.4-3c-2,0-3.3,1.1-3.3,2C315.1,43.1,315.6,43.7,316.5,44.2z"/>
	<path id="path945-6" class="st2" d="M318.5,44.8c0.4-0.3,0.8-0.4,2-0.4c1.8,0,3.2,1.4,3.2,3.4c0,2.9-2.9,6.1-7.1,6.1
		c-4.5,0-6.5-2.7-8.5-5.1c-2.2-2.6-4.2-3.9-5.6-3.9c-1.6,0-3.4,0.6-5.2,1.1c1.6-2.2,4.2-4.3,7-4.3c2.6,0,5,1.9,6.9,4.2
		c1.2,1.4,2.5,3,5.4,3c2,0,3.3-1.1,3.3-2C319.9,45.9,319.4,45.3,318.5,44.8z"/>
</g>
</svg>
