<svg width="80" height="80" viewBox="0 0 80 80" fill="none" xmlns="http://www.w3.org/2000/svg">
<path d="M79.9905 20.1426C79.9905 20.1426 50.8253 22.2222 27.1592 26.7615C27.1592 26.7615 25.3372 27.0992 24.1382 27.334C24.1382 27.334 28.3536 26.6408 29.6967 28.1815C31.1026 29.7937 33.1817 33.8366 16.448 48.1959C10.9044 52.9466 4.71608 57.1841 0 60.1984L10.9786 58.4654C16.0856 53.7102 29.5778 42.9589 41.5658 36.8085C61.8657 26.3959 77.8302 20.866 79.8957 20.2387C80.0443 20.194 79.9905 20.1426 79.9905 20.1426Z" fill="url(#paint0_linear_709_2438)"/>
<path d="M79.9905 20.1426C79.9905 20.1426 50.8253 22.2222 27.1592 26.7615C27.1592 26.7615 25.3372 27.0992 24.1382 27.334C24.1382 27.334 28.3536 26.6408 29.6967 28.1815C31.1026 29.7937 33.1817 33.8366 16.448 48.1959C10.9044 52.9466 4.71608 57.1841 0 60.1984L10.9786 58.4654C16.0856 53.7102 29.5778 42.9589 41.5658 36.8085C61.8657 26.3959 77.8302 20.866 79.8957 20.2387C80.0443 20.194 79.9905 20.1426 79.9905 20.1426Z" fill="#D81E05"/>
<path d="M7.23456 31.1152L17.2508 32.5866C36.1106 24.0177 35.2304 33.4106 35.2304 33.4106L42.0954 24.2771C37.0798 25.005 32.0048 25.8323 27.1573 26.7614C27.1573 26.7614 25.3353 27.0991 24.1363 27.3339L7.23225 31.0447L7.2071 31.0526C7.18996 31.057 7.17969 31.0637 7.17969 31.0816C7.17969 31.0962 7.1911 31.1062 7.2071 31.1107C7.21968 31.1129 7.23456 31.1152 7.23456 31.1152Z" fill="url(#paint1_linear_709_2438)"/>
<path d="M7.23456 31.1152L17.2508 32.5866C36.1106 24.0177 35.2304 33.4106 35.2304 33.4106L42.0954 24.2771C37.0798 25.005 32.0048 25.8323 27.1573 26.7614C27.1573 26.7614 25.3353 27.0991 24.1363 27.3339L7.23225 31.0447L7.2071 31.0526C7.18996 31.057 7.17969 31.0637 7.17969 31.0816C7.17969 31.0962 7.1911 31.1062 7.2071 31.1107C7.21968 31.1129 7.23456 31.1152 7.23456 31.1152Z" fill="#D81E05"/>
<defs>
<linearGradient id="paint0_linear_709_2438" x1="36.6012" y1="24.5381" x2="42.3428" y2="52.153" gradientUnits="userSpaceOnUse">
<stop stop-color="white"/>
<stop offset="0.2184" stop-color="#FCFCFC"/>
<stop offset="0.3937" stop-color="#F2F2F2"/>
<stop offset="0.5541" stop-color="#E1E2E2"/>
<stop offset="0.7047" stop-color="#C9CACC"/>
<stop offset="0.7247" stop-color="#C6C7C8"/>
</linearGradient>
<linearGradient id="paint1_linear_709_2438" x1="7.12361" y1="28.8441" x2="42.1917" y2="28.8441" gradientUnits="userSpaceOnUse">
<stop stop-color="white"/>
<stop offset="0.0886" stop-color="#FBFBFB"/>
<stop offset="0.1804" stop-color="#EEEFEF"/>
<stop offset="0.2737" stop-color="#DADADB"/>
<stop offset="0.368" stop-color="#BDBDBE"/>
<stop offset="0.4622" stop-color="#98999A"/>
<stop offset="0.5" stop-color="#87888A"/>
</linearGradient>
</defs>
</svg>
