<svg width="582" height="80" viewBox="0 0 582 80" fill="none" xmlns="http://www.w3.org/2000/svg">
<path fill-rule="evenodd" clip-rule="evenodd" d="M344.432 76.859C342.154 78.857 339.051 79.9991 335.477 79.9991C329.662 79.9991 326.731 78.3111 325.196 74.7125C321.903 78.5644 317.879 79.9991 312.138 79.9991C303.275 79.9991 297.285 75.372 297.285 67.4301C297.285 58.8463 304.915 54.7171 315.256 51.5268L316.029 51.291C321.226 49.686 325.266 47.8998 325.266 43.4692V41.2703C325.266 34.6539 322.229 31.1842 316.654 31.1842C312.319 31.1842 310.52 33.2149 309.989 37.6346C309.717 39.9383 308.745 42.6919 305.393 42.6919C302.615 42.6919 300.818 41.0279 300.818 38.4578C300.818 32.6647 307.511 28.5747 317.453 28.5747C329.662 28.5747 334.409 33.4551 334.409 43.4277V67.8647C334.409 74.3151 335.481 76.597 338.521 76.597C340.067 76.597 341.554 76.0904 343.069 74.9833L344.432 76.859ZM325.375 62.9799V49.9502C323.449 51.0551 321.626 52.0072 319.866 52.9265C312.466 56.7697 307 60.0102 307 67.7337C307 72.9088 310.498 76.8153 315.184 76.8153C321.748 76.8153 325.375 71.793 325.375 62.9799Z" fill="#D81E05"/>
<path d="M23.5984 45.1814H47.5331L35.6411 15.1063L23.5984 45.1814ZM48.7407 48.2363H22.3734L20.2924 53.4355C17.7485 59.7832 16.1916 65.3886 16.1806 68.4326C16.1632 73.2802 19.6089 75.4114 26.2559 76.3133V78.3069H0V76.2303C7.78243 75.7783 11.3199 65.952 19.8251 45.2054L38.3619 0H40.8075L64.1702 57.3834C69.0396 69.341 71.6076 76.0054 78.9358 76.2303V78.3069H47.0833V76.2369C53.2848 75.8984 56.5165 74.1842 56.5296 70.3454C56.5362 68.3234 55.4728 65.2576 53.7368 60.8794L48.7407 48.2363Z" fill="#D81E05"/>
<path d="M126.746 30.2679H109.663V32.4254H110.517C117.668 32.4254 117.895 34.7902 117.895 47.3548V61.6685C117.895 66.1536 117.718 69.3002 115.371 72.08C112.993 74.9099 109.453 76.7136 105.896 76.7136C99.3541 76.7136 96.0372 72.187 96.0372 63.4765V30.2679H78.5508V32.4254H79.4046C86.5559 32.4254 86.7809 34.7902 86.7809 47.3548V63.0572C86.7809 73.947 91.4189 80 102.772 80C109.17 80 113.447 78.0784 117.895 74.054C117.895 75.1021 117.895 79.465 117.895 79.465L120.568 79.0807C125.298 78.4059 129.763 77.7617 134.115 77.2792L134.371 77.2508V75.4799L134.104 75.4602C128.556 75.0322 127.043 72.9643 127.043 65.8304V30.2679H126.746Z" fill="#D81E05"/>
<path d="M145.273 41.8162C145.273 50.6206 152.516 53.5488 160.22 57.8396C165.408 60.7591 169.107 63.8686 169.107 68.7577C169.107 73.5857 165.792 77.0468 160.824 77.0468C153.487 77.0468 149.131 73.2407 146.218 62.3903L146.159 62.1719H144.633V79.2107H146.087L146.174 79.0841C147.292 77.5141 148.234 76.8415 149.317 76.8415C149.821 76.8415 150.601 77.1953 151.588 77.6407C153.658 78.5797 157.016 79.999 161.501 79.999C170.98 79.999 177.579 73.7561 177.579 65.1591C177.579 60.9862 175.955 57.7588 173.214 55.0053C170.723 52.4963 166.86 50.2952 162.525 47.9849C156.424 44.6462 152.387 42.5455 152.387 37.7547C152.387 33.7433 155.662 31.2977 159.896 31.2977C165.855 31.2977 170.275 35.6256 172.02 43.8098L172.07 44.0369H173.612V29.3652H172.112L172.035 29.5442C171.518 30.7955 170.928 31.2824 169.937 31.2824C169.441 31.2824 168.69 30.9505 167.736 30.5334C165.855 29.708 162.932 28.5747 159.442 28.5747C151.358 28.5769 145.273 34.1298 145.273 41.8162Z" fill="#D81E05"/>
<path d="M217.447 76.0121C214.903 78.6564 211.342 79.9972 206.804 79.9972C197.804 79.9972 193.556 75.9094 193.556 67.9611C193.556 60.5083 193.984 33.1061 193.984 33.1061H187.805V30.4027L188.047 30.3634C194.563 29.2782 198.135 25.5747 200.786 17.3927L200.852 17.1918H202.867H203.158L203.042 30.2695H215.476V33.1082H203.035L202.815 64.6485V66.0067C202.815 72.7192 204.71 76.4859 210.189 76.4859C212.48 76.4859 214.275 75.809 215.91 74.2433L217.447 76.0121Z" fill="#D81E05"/>
<path d="M237.424 28.8367C232.743 30.4351 227.784 31.6121 222.255 32.4397L222.01 32.4746V34.2346L222.279 34.2542C228.262 34.6866 229.902 36.7785 229.902 43.9954V61.1063C229.902 73.8521 229.902 76.1471 222.525 76.1471H221.785V78.3088H248.633V76.1471H247.663C243.322 76.1471 241.42 75.4658 240.394 73.542C239.248 71.3846 239.158 67.3536 239.158 61.4469V51.7494C239.158 40.4601 243.44 33.1078 247.438 33.1078C249.371 33.1078 250.301 34.2892 251.288 35.7871C252.341 37.3834 253.535 39.1936 256.114 39.1936C258.784 39.1936 260.575 37.4904 260.575 34.9574C260.575 31.0334 257.138 28.579 252.057 28.579C246.678 28.579 242.08 31.3893 238.929 37.759C238.9 34.1822 238.756 31.8763 238.481 29.3171L238.459 29.1337L237.512 28.8127L237.424 28.8367Z" fill="#D81E05"/>
<path d="M270.598 10.3248C270.598 13.4955 272.901 15.797 276.076 15.797C279.299 15.797 281.551 13.5457 281.551 10.3248C281.551 7.40752 278.992 4.84613 276.076 4.84613C273.157 4.84613 270.598 7.40752 270.598 10.3248Z" fill="#D81E05"/>
<path d="M280.502 28.7959C275.462 30.2131 270.209 31.3551 263.966 32.4011L263.723 32.4404V34.196L263.994 34.2135C269.975 34.648 271.613 36.7421 271.613 43.9546V61.107C271.613 73.8528 271.613 76.1478 264.239 76.1478H263.496V78.3096H289.103V76.1478H288.361C281.079 76.1478 280.873 74.0078 280.873 61.107V28.6911L280.502 28.7959Z" fill="#D81E05"/>
<path d="M364.461 28.8389C359.773 30.4395 354.814 31.6142 349.296 32.4418L349.049 32.4768V34.2368L349.313 34.2564C355.301 34.6888 356.934 36.7807 356.934 43.9976V61.1084C356.934 73.8543 356.934 76.1493 349.564 76.1493H348.824V78.311H374.429V76.1493H373.68C366.405 76.1493 366.195 74.0093 366.195 61.1084V46.1244C366.195 42.5062 366.381 39.2941 368.608 36.6126C370.984 33.787 374.523 32.0968 378.078 32.0968C384.62 32.0968 387.939 36.5121 387.939 45.2226V61.1106C387.939 74.0093 387.734 76.1514 380.565 76.1514H379.823V78.3132H405.43V76.1514H404.688C397.432 76.1514 397.202 73.7691 397.202 61.1106V45.1112C397.202 34.6997 392.84 28.579 381.675 28.579C375.373 28.579 370.829 30.2713 366.14 34.5905C366.046 33.6472 365.505 29.1315 365.505 29.1315L364.553 28.8105L364.461 28.8389Z" fill="#D81E05"/>
<path d="M581.76 0.0767517C581.76 0.0767517 526.042 4.1383 480.83 13.0038C480.83 13.0038 477.35 13.6633 475.059 14.1218C475.059 14.1218 483.112 12.768 485.678 15.777C488.364 18.9258 492.336 26.8218 460.368 54.866C449.777 64.1443 437.955 72.4202 428.945 78.3072L449.919 74.9226C459.675 65.6357 485.451 44.638 508.353 32.6258C547.134 12.2898 577.633 1.48956 581.578 0.264548C581.862 0.177204 581.76 0.0767517 581.76 0.0767517Z" fill="url(#paint0_linear_715_249)"/>
<path d="M581.76 0.0767517C581.76 0.0767517 526.042 4.1383 480.83 13.0038C480.83 13.0038 477.35 13.6633 475.059 14.1218C475.059 14.1218 483.112 12.768 485.678 15.777C488.364 18.9258 492.336 26.8218 460.368 54.866C449.777 64.1443 437.955 72.4202 428.945 78.3072L449.919 74.9226C459.675 65.6357 485.451 44.638 508.353 32.6258C547.134 12.2898 577.633 1.48956 581.578 0.264548C581.862 0.177204 581.76 0.0767517 581.76 0.0767517Z" fill="#D81E05"/>
<path d="M442.777 21.5045L461.912 24.3782C497.942 7.6429 496.26 25.9875 496.26 25.9875L509.375 8.14951C499.793 9.57104 490.098 11.1869 480.837 13.0015C480.837 13.0015 477.357 13.661 475.066 14.1195L442.772 21.367L442.724 21.3823C442.691 21.391 442.672 21.4041 442.672 21.439C442.672 21.4674 442.694 21.4871 442.724 21.4958C442.748 21.5002 442.777 21.5045 442.777 21.5045Z" fill="url(#paint1_linear_715_249)"/>
<path d="M442.777 21.5045L461.912 24.3782C497.942 7.6429 496.26 25.9875 496.26 25.9875L509.375 8.14951C499.793 9.57104 490.098 11.1869 480.837 13.0015C480.837 13.0015 477.357 13.661 475.066 14.1195L442.772 21.367L442.724 21.3823C442.691 21.391 442.672 21.4041 442.672 21.439C442.672 21.4674 442.694 21.4871 442.724 21.4958C442.748 21.5002 442.777 21.5045 442.777 21.5045Z" fill="#D81E05"/>
<defs>
<linearGradient id="paint0_linear_715_249" x1="498.868" y1="8.66145" x2="510.311" y2="62.4937" gradientUnits="userSpaceOnUse">
<stop stop-color="white"/>
<stop offset="0.2184" stop-color="#FCFCFC"/>
<stop offset="0.3937" stop-color="#F2F2F2"/>
<stop offset="0.5541" stop-color="#E1E2E2"/>
<stop offset="0.7047" stop-color="#C9CACC"/>
<stop offset="0.7247" stop-color="#C6C7C8"/>
</linearGradient>
<linearGradient id="paint1_linear_715_249" x1="442.565" y1="17.069" x2="509.559" y2="17.069" gradientUnits="userSpaceOnUse">
<stop stop-color="white"/>
<stop offset="0.0886" stop-color="#FBFBFB"/>
<stop offset="0.1804" stop-color="#EEEFEF"/>
<stop offset="0.2737" stop-color="#DADADB"/>
<stop offset="0.368" stop-color="#BDBDBE"/>
<stop offset="0.4622" stop-color="#98999A"/>
<stop offset="0.5" stop-color="#87888A"/>
</linearGradient>
</defs>
</svg>
