<?xml version="1.0" encoding="utf-8"?>
<!-- Generator: Adobe Illustrator 25.4.1, SVG Export Plug-In . SVG Version: 6.00 Build 0)  -->
<svg version="1.1" id="Layer_1" xmlns="http://www.w3.org/2000/svg" xmlns:xlink="http://www.w3.org/1999/xlink" x="0px" y="0px"
	 viewBox="0 0 205.7 80" style="enable-background:new 0 0 205.7 80;" xml:space="preserve">
<style type="text/css">
	.st0{fill:#C91930;}
	.st1{fill:#F8CA06;}
	.st2{fill:#202D5D;}
</style>
<g>
	<path class="st0" d="M68.8,80c0,0,35.5-11.5,49.3-19.9c0,0,31.8,19.9,87.5,19.9H68.8z"/>
	<path class="st1" d="M73.4,76.2c0,0,28-15.1,40.1-32.1c0,0,34.2-9.9,71-44C184.5,0,138.1,54.8,73.4,76.2z"/>
	<path class="st2" d="M0,50.5c0,0,37.6-10.9,65.9,25.7c0,0,20-4.6,43.6-32.7c0,0-16.7,5.8-27.4,2.2s-7.7-12.4-15.9-14.9
		S24.3,34.1,0,50.5z"/>
</g>
</svg>
