<?xml version="1.0" encoding="utf-8"?>
<!-- Generator: Adobe Illustrator 25.4.1, SVG Export Plug-In . SVG Version: 6.00 Build 0)  -->
<svg version="1.1" id="Layer_1" xmlns="http://www.w3.org/2000/svg" xmlns:xlink="http://www.w3.org/1999/xlink" x="0px" y="0px"
	 viewBox="0 0 146.4 80" style="enable-background:new 0 0 146.4 80;" xml:space="preserve">
<style type="text/css">
	.st0{fill:#C91930;}
	.st1{fill:#F8CA06;}
	.st2{fill:#202D5D;}
</style>
<g>
	<path class="st0" d="M48.3,52.8c0,0,23.4-7.6,32.5-13.1c0,0,21,13.1,57.7,13.1H48.3z"/>
	<path class="st1" d="M51.3,50.2c0,0,18.4-10,26.4-21.2c0,0,22.5-6.6,46.8-29C124.6,0,94,36.1,51.3,50.2z"/>
	<path class="st2" d="M2.9,33.3c0,0,24.8-7.2,43.5,16.9c0,0,13.2-3,28.7-21.5c0,0-11,3.8-18.1,1.4s-5.1-8.2-10.5-9.8
		C41.2,18.6,19,22.5,2.9,33.3z"/>
	<g>
		<polygon class="st0" points="29.2,72.9 22.9,72.9 22.9,67.3 21.7,67.3 21.7,79.8 22.9,79.8 22.9,74.2 29.2,74.2 29.2,79.8 
			30.5,79.8 30.5,67.3 29.2,67.3 		"/>
		<rect x="57.3" y="67.3" class="st0" width="1.3" height="12.5"/>
		<rect x="87.6" y="67.3" class="st0" width="1.3" height="12.5"/>
		<polygon class="st0" points="104,67.3 102.7,67.3 102.7,78.5 102.7,79.8 104,79.8 109.7,79.8 109.7,78.5 104,78.5 		"/>
		<rect x="112.1" y="67.3" class="st0" width="1.3" height="12.5"/>
		<polygon class="st0" points="124.8,77.9 117.8,67.3 116.5,67.3 116.5,79.8 117.8,79.8 117.8,69.2 124.8,79.8 126.1,79.8 
			126.1,67.3 124.8,67.3 		"/>
		<path class="st0" d="M38.4,67.3h-1.1h-0.2l-4.6,12.5h1.3l1.4-3.8h5.3l1.4,3.8h1.3l-4.6-12.5H38.4z M35.7,74.7l2.2-5.9l2.2,5.9
			H35.7z"/>
		<polygon class="st0" points="4.1,67.3 0,67.3 0,68.6 4.1,68.6 4.1,79.8 5.4,79.8 5.4,68.6 9.6,68.6 9.6,67.3 5.4,67.3 		"/>
		<path class="st0" d="M66.5,67.3h-1.1h-0.2l-4.6,12.5H62l1.4-3.8h5.3l1.4,3.8h1.3l-4.6-12.5H66.5z M63.8,74.7l2.2-5.9l2.2,5.9H63.8
			z"/>
		<path class="st0" d="M81,67.3h-1.1h-0.2l-4.6,12.5h1.3l1.4-3.8H83l1.4,3.8h1.3l-4.6-12.5H81z M78.2,74.7l2.2-5.9l2.2,5.9H78.2z"/>
		<polygon class="st0" points="129.2,67.3 129.2,68.6 129.2,72.7 129.2,74 129.2,78.5 129.2,79.8 130.5,79.8 136.4,79.8 136.4,78.5 
			130.5,78.5 130.5,74 135.4,74 135.4,72.7 130.5,72.7 130.5,68.6 136.4,68.6 136.4,67.3 130.5,67.3 		"/>
		<path class="st0" d="M99.8,71.1c0-3-1.8-3.8-3.4-3.8h-2.9h-1.3v1.2v4.8v1.2v5.2h1.3v-5.2H95l3.8,5.2h1.4l-3.5-5.3
			C97.4,74.4,99.8,73.6,99.8,71.1z M93.5,68.5h2.9c0,0,2,0.2,2,2.3c0,2.1-1.5,2.4-2,2.4h-2.9V68.5z"/>
		<path class="st0" d="M49.8,67.3h-3.3h-0.4h-0.9v12.5h0.9h0.4h2.8c0,0,0.1,0,0.2,0h0.3v0c1.3-0.1,4.8-0.9,4.8-6.1
			C54.6,67.4,49.8,67.3,49.8,67.3z M49.8,78.5h-3.3v-10h3.3c0,0,3.6,0.5,3.6,5.1C53.3,78.4,49.8,78.5,49.8,78.5z"/>
		<path class="st0" d="M142.8,72.7c-1.2-0.3-2.8-1.1-2.8-2.2c0-1.1,1.1-2.5,2.7-2.5c1.6,0,3.2,1,3.2,1v-1.3c0,0-2-0.8-3.2-0.8
			c-1.2,0-4.1,0.8-4.1,3.7c0,2.9,3.4,3.4,4.6,3.7s1.7,1.1,1.7,2.3c0,1.2-1.1,2.1-2.9,2.1s-3.3-0.9-3.3-0.9v1.3c0,0,1.4,0.9,3.3,0.9
			c0.9,0,4.5-0.4,4.5-3.3S144,73,142.8,72.7z"/>
		<path class="st0" d="M11.9,73.5c0-4,2.9-5.2,4.6-5.2c1.7,0,2.4,0.5,2.4,0.5v-1.3c0,0-0.9-0.5-2.5-0.5c-1.6,0-6,1.1-6,6.7
			c0,5.5,3.9,6.4,5.6,6.4c1.7,0,3.1-0.5,3.1-0.5v-1.3c0,0-1.1,0.5-3,0.5C14.3,78.7,11.9,77.6,11.9,73.5z"/>
	</g>
</g>
</svg>
