<?xml version="1.0" encoding="utf-8"?>
<!-- Generator: Adobe Illustrator 25.4.1, SVG Export Plug-In . SVG Version: 6.00 Build 0)  -->
<svg version="1.1" id="Layer_1" xmlns="http://www.w3.org/2000/svg" xmlns:xlink="http://www.w3.org/1999/xlink" x="0px" y="0px"
	 viewBox="0 0 127.18 80" style="enable-background:new 0 0 127.18 80;" xml:space="preserve">
<style type="text/css">
	.st0{fill:#E82B21;}
</style>
<g id="Clip-9">
</g>
<g id="Clip-2">
</g>
<path id="Rectangle_55" class="st0" d="M77.44,30.6h10.22v10.23H77.44V30.6z"/>
<path id="Rectangle_56" class="st0" d="M67.22,42.06h9.76v9.76h-9.76V42.06z"/>
<path id="Rectangle_57" class="st0" d="M79.62,53.36h7.74v7.75h-7.74V53.36z"/>
<path id="Path_99" class="st0" d="M87.35,80.24v-5.52h-6.03L87.35,80.24z"/>
<path id="Path_100" class="st0" d="M77.43,71.21v-6.85h-7.43v0.08L77.43,71.21z"/>
<path id="Path_101" class="st0" d="M67.22,61.9v-8.99h-9.76v0.11L67.22,61.9z"/>
<path id="Path_102" class="st0" d="M127.18,0.52V0.24h-14.71v4.69C117.05,2.52,122.04,1.02,127.18,0.52z"/>
<path id="Path_103" class="st0" d="M97.14,19.92h-8.38v9.75h3.78C93.75,26.28,95.29,23.01,97.14,19.92z"/>
<path id="Path_115" class="st0" d="M107.06,8.46c-2.52,1.99-4.78,4.28-6.75,6.81h-0.38V8.6H88.46V19.3h-11.3v10.99H66.78v11.15
	h-9.76v11L0,0.4h37.79v5.89l5.57,0.03V0.4h15.18v6.77l7.12-0.04V0.4h13.63v7.2l8.52-0.05L87.67,0.4h12.55v8.05L107.06,8.46z
	 M48.02,17.9h7.12v-7.13h-7.12V17.9z M33.61,10.93h-6.06v6.06h6.06V10.93z M44.61,21.62H37.8v6.81h6.81V21.62z M55.76,31.38H47.4
	v8.36h8.36V31.38z M66.6,20.7h-8.65v8.65h8.65V20.7z M76.83,10.16h-8.22v8.22h8.22V10.16z"/>
</svg>
