<?xml version="1.0" encoding="utf-8"?>
<!-- Generator: Adobe Illustrator 25.4.1, SVG Export Plug-In . SVG Version: 6.00 Build 0)  -->
<svg version="1.1" id="Layer_1" xmlns="http://www.w3.org/2000/svg" xmlns:xlink="http://www.w3.org/1999/xlink" x="0px" y="0px"
	 viewBox="0 0 53.03 80.27" style="enable-background:new 0 0 53.03 80.27;" xml:space="preserve">
<style type="text/css">
	.st0{fill:url(#path57_00000109003477996988226040000000805028609333965185_);}
	.st1{fill:url(#path74_00000174585076106621540070000012296719326067412109_);}
	.st2{fill:url(#path87_00000078766992274495658420000000769314451780401594_);}
	.st3{fill:url(#path104_00000077305385166920859920000017691477704098172067_);}
	.st4{fill:#B5CA30;}
</style>
<g id="g108">
	
		<linearGradient id="path57_00000002357359872637812100000015895737923860168125_" gradientUnits="userSpaceOnUse" x1="332.6815" y1="-15.9324" x2="393.8881" y2="-15.9324" gradientTransform="matrix(0.6623 0 0 -0.6623 -220.2683 48.9626)">
		<stop  offset="0" style="stop-color:#00AACB"/>
		<stop  offset="0.2524" style="stop-color:#00A7C8"/>
		<stop  offset="0.4552" style="stop-color:#009EBE"/>
		<stop  offset="0.6406" style="stop-color:#008EAD"/>
		<stop  offset="0.8158" style="stop-color:#017895"/>
		<stop  offset="0.9823" style="stop-color:#015C77"/>
		<stop  offset="1" style="stop-color:#015973"/>
	</linearGradient>
	<path id="path57" style="fill:url(#path57_00000002357359872637812100000015895737923860168125_);" d="M19.72,39.73
		c0,0.38,0.19,0.57,0.57,0.76c3.81,3.81,7.82,7.82,11.63,11.63c2.29,2.29,3.81,4.96,5.15,7.82c0.95,2.1,1.91,4.38,2.48,6.67
		c0.19,0.57,0.19,1.33,0.38,2.1c0.38,0.95,0.38,2.1,0.57,3.05c0.19,1.33,0.38,2.67,0.38,4c0,1.14,0,2.1,0,3.24v0.19
		c0,0.19,0,0.57-0.19,0.76c-0.38,0.19-0.57-0.19-0.76-0.38c-1.72-1.72-3.62-3.62-5.34-5.34c-4-4-8.01-8.01-12.01-12.01
		c-2.86-2.86-5.72-5.91-8.77-8.77c-4.38-4.38-8.58-8.58-12.96-12.96c-0.19-0.19-0.76-0.38-0.38-0.76c0.57-0.19,1.52-0.38,2.29-0.38
		c3.05-0.38,6.29-0.38,9.34-0.19c1.14,0,2.29,0,3.24,0.19C16.86,39.35,18.19,39.54,19.72,39.73z"/>
	
		<linearGradient id="path74_00000113347477909379428880000003831649148830324401_" gradientUnits="userSpaceOnUse" x1="332.7383" y1="43.7897" x2="393.7509" y2="43.7897" gradientTransform="matrix(0.6623 0 0 -0.6623 -220.2683 48.9626)">
		<stop  offset="0" style="stop-color:#D5DD26"/>
		<stop  offset="0.2404" style="stop-color:#D2DB27"/>
		<stop  offset="0.4335" style="stop-color:#C8D429"/>
		<stop  offset="0.6101" style="stop-color:#B7C82E"/>
		<stop  offset="0.7769" style="stop-color:#9FB834"/>
		<stop  offset="0.9355" style="stop-color:#81A33B"/>
		<stop  offset="1" style="stop-color:#72993F"/>
	</linearGradient>
	<path id="path74" style="fill:url(#path74_00000113347477909379428880000003831649148830324401_);" d="M19.72,39.73
		c-1.33-0.19-2.86-0.38-4.19-0.57c-1.14-0.19-2.29-0.19-3.24-0.19c-3.24,0-6.29-0.19-9.53,0.38c-0.95,0.19-1.72,0.19-2.67,0.57
		c-0.19-0.19,0-0.19,0-0.19c0.95-0.95,2.1-2.1,3.05-3.05c0.95-0.95,1.91-1.91,2.86-2.67c0.95-0.95,1.91-2.1,3.05-3.05
		c0.57-0.57,1.14-1.14,1.72-1.72c1.52-1.52,3.05-3.05,4.38-4.57c2.1-2.1,4.19-4.19,6.48-6.48c3.62-3.62,7.24-7.24,10.87-10.87
		c2.29-2.29,4.57-4.57,6.86-6.86l0.19-0.19c0.19-0.19,0.38-0.38,0.57-0.19c0.19,0,0.38,0.38,0.38,0.57c0,0.57,0,1.33,0,1.91
		c0,1.91,0,3.81-0.19,5.72s-0.57,3.62-0.95,5.34c-0.57,2.29-1.33,4.38-2.29,6.48c-1.72,3.81-4.19,6.86-7.24,9.72
		c-3.24,3.24-6.48,6.48-9.72,9.72C19.91,39.54,19.72,39.54,19.72,39.73z"/>
	
		<linearGradient id="path87_00000085225640244105246320000006912228770482674349_" gradientUnits="userSpaceOnUse" x1="392.644" y1="3.1401" x2="402.2527" y2="19.7828" gradientTransform="matrix(0.6623 0 0 -0.6623 -220.2683 48.9626)">
		<stop  offset="0" style="stop-color:#00AACB"/>
		<stop  offset="0.1857" style="stop-color:#00A2C2"/>
		<stop  offset="0.4884" style="stop-color:#008BAA"/>
		<stop  offset="0.8684" style="stop-color:#016782"/>
		<stop  offset="1" style="stop-color:#015973"/>
	</linearGradient>
	<path id="path87" style="fill:url(#path87_00000085225640244105246320000006912228770482674349_);" d="M52.5,39.54
		c0.19,0,0.19,0.19,0.38,0.19c0.19,0.19,0.19,0.38,0,0.57c-0.57,0.57-1.33,1.14-1.91,1.91c-1.14,1.14-2.29,2.29-3.43,3.43
		c-0.95,0.95-1.91,1.91-3.05,3.05c-0.57,0.57-0.95,0.57-1.52,0c-2.67-2.67-5.53-5.34-8.2-8.2c-0.19-0.19-0.57-0.57,0-0.76
		c1.33,0.19,2.67-0.38,4-0.76c1.33-0.38,2.67-0.76,4-1.14c2.67-0.57,5.34-0.57,7.82,0.57c0.57,0.19,0.95,0.57,1.52,0.76l0,0
		C52.31,39.54,52.31,39.54,52.5,39.54z"/>
	
		<linearGradient id="path104_00000106130016314354355530000016694947105673002645_" gradientUnits="userSpaceOnUse" x1="385.2085" y1="20.4546" x2="411.4898" y2="20.4546" gradientTransform="matrix(0.6623 0 0 -0.6623 -220.2683 48.9626)">
		<stop  offset="0" style="stop-color:#72993F"/>
		<stop  offset="0.0645" style="stop-color:#81A33B"/>
		<stop  offset="0.2231" style="stop-color:#9FB834"/>
		<stop  offset="0.3899" style="stop-color:#B7C82E"/>
		<stop  offset="0.5665" style="stop-color:#C8D429"/>
		<stop  offset="0.7596" style="stop-color:#D2DB27"/>
		<stop  offset="1" style="stop-color:#D5DD26"/>
	</linearGradient>
	<path id="path104" style="fill:url(#path104_00000106130016314354355530000016694947105673002645_);" d="M52.31,39.35
		c-0.57-0.19-0.95-0.57-1.52-0.76c-2.48-1.14-5.15-1.14-7.82-0.57c-1.33,0.38-2.67,0.76-4,1.14c-1.33,0.38-2.67,0.76-4,0.76
		c0.57-0.76,1.14-1.33,1.91-1.91c2.1-2.29,4.38-4.38,6.67-6.67c0.57-0.57,0.57-0.57,0.95,0c2.48,2.67,4.96,5.15,7.62,7.62
		C52.12,39.16,52.31,39.16,52.31,39.35z"/>
	<path id="path106" class="st4" d="M52.5,39.54c0,0-0.19,0-0.19-0.19C52.31,39.35,52.31,39.54,52.5,39.54z"/>
</g>
</svg>
