<?xml version="1.0" encoding="utf-8"?>
<!-- Generator: Adobe Illustrator 25.4.1, SVG Export Plug-In . SVG Version: 6.00 Build 0)  -->
<svg version="1.1" id="Layer_1" xmlns="http://www.w3.org/2000/svg" xmlns:xlink="http://www.w3.org/1999/xlink" x="0px" y="0px"
	 viewBox="0 0 425.03 80.27" style="enable-background:new 0 0 425.03 80.27;" xml:space="preserve">
<style type="text/css">
	.st0{fill:#72993F;}
	.st1{fill:#007C96;}
	.st2{fill:url(#path57_00000057828336210941239990000008242815875991592344_);}
	.st3{fill:url(#path74_00000159443866990144139500000002827960510153800835_);}
	.st4{fill:url(#path87_00000133490207358092357010000005884695246977611403_);}
	.st5{fill:url(#path104_00000013167098869077845180000005665434003425296265_);}
	.st6{fill:#B5CA30;}
</style>
<g id="layer1" transform="translate(122.18642,-276.04809)">
	<g id="g110" transform="matrix(0.23365761,0,0,0.23365761,-122.61998,275.18356)">
		<g id="g40">
			<g id="g28">
				<path id="path12" class="st0" d="M1706.6,300.88c-8.03,1.61-28.11,1.61-34.54,0c-1.61-1.61-1.61-4.02-1.61-6.43
					c0-8.03,0-16.06,0-24.9c0-25.7,0-52.21,0-77.91c0-10.44,1.61-20.08,4.82-29.72c4.82-13.65,13.65-24.1,26.51-32.13
					c11.24-6.43,23.29-9.64,36.14-12.05c11.24-1.61,22.49-1.61,33.73-1.61c8.84,0,17.67,1.61,26.51,4.02
					c3.21,0.8,7.23,2.41,10.44,4.02c13.65,7.23,16.06,20.08,6.43,31.32c-0.8,0.8-1.61,0.8-2.41,1.61c-1.61-0.8-3.21-0.8-4.82-1.61
					c-10.44-4.82-21.69-8.03-33.73-8.84c-12.05-0.8-23.29,0-34.54,2.41c-16.87,3.21-28.92,14.46-30.52,35.34c0,3.21,0,6.43,0,9.64
					c0,32.13,0,65.06,0,97.19C1707.4,294.46,1707.4,297.67,1706.6,300.88z"/>
				<path id="path14" class="st0" d="M1601.38,300.08c-2.41-4.82-1.61-8.03-1.61-12.05c0-50.6,0-101.2,0-151.8c0-2.41,0-4.82,0-6.43
					c0.8-10.44,5.62-16.06,16.06-16.87c4.82,0,10.44-0.8,15.26,1.61c4.82,1.61,4.82,2.41,5.62,7.23c0,1.61,0,3.21,0,4.82
					c0,53.81,0,107.63,0,161.44c0,12.05,0,12.05-11.24,12.05c-5.62,0-10.44,0-16.06,0C1606.2,300.08,1603.79,300.08,1601.38,300.08z
					"/>
				<path id="path16" class="st0" d="M1549.97,300.08c-3.21,0-6.43,0-10.44,0c-2.41,0-4.02-1.61-4.82-4.02
					c-1.61-4.82-4.02-10.44-5.62-15.26c-4.82-13.65-9.64-27.31-13.65-40.96c-0.8-2.41-1.61-4.82-2.41-7.23
					c-3.21-9.64-10.44-13.65-20.08-14.46c-1.61,0-3.21,0-4.82,0c-24.1,0-48.19,0-73.09,0c-3.21,0-7.23,0.8-10.44,1.61
					c-6.43,1.61-10.44,5.62-12.85,11.24c-0.8,2.41-1.61,4.02-2.41,6.43c-6.43,17.67-12.05,35.34-18.47,53.01
					c-3.21,10.44-2.41,9.64-14.46,9.64c-4.02,0-7.23,0-11.24,0c-7.23-0.8-12.05-7.23-9.64-14.46c0.8-3.21,2.41-6.43,3.21-9.64
					c24.1-61.85,48.19-123.69,73.09-185.54c4.82-12.05,9.64-24.1,14.46-36.14c0.8-2.41,2.41-5.62,3.21-7.23
					c11.24-17.67,37.75-16.87,47.39,1.61c1.61,2.41,2.41,4.82,3.21,8.03c28.92,73.89,57.83,148.59,87.55,223.29
					c1.61,3.21,2.41,6.43,2.41,9.64c0.8,6.43-4.02,11.24-10.44,12.05C1556.4,300.08,1553.19,300.08,1549.97,300.08L1549.97,300.08
					L1549.97,300.08z M1450.38,194.86c8.84,0,16.87,0,25.7,0c1.61,0,4.02,0,5.62,0c6.43-0.8,10.44-5.62,10.44-12.05
					c0-1.61-0.8-4.02-1.61-5.62c-10.44-28.11-20.88-56.22-30.52-84.34c-0.8-1.61-1.61-3.21-2.41-4.82c-3.21-4.02-8.03-4.02-11.24,0
					c-0.8,1.61-1.61,3.21-2.41,5.62c-10.44,27.31-20.88,55.42-31.32,82.73c-0.8,3.21-1.61,5.62-1.61,8.84
					c0.8,4.02,4.02,8.03,8.03,8.84c1.61,0,4.02,0,5.62,0C1433.51,194.86,1441.54,194.86,1450.38,194.86z"/>
				<path id="path18" class="st0" d="M1015.85,231.81c0-16.87,0-32.93,0-49.8c0-12.05,3.21-22.49,9.64-32.93
					c8.03-14.46,20.88-22.49,36.14-27.31c9.64-3.21,20.08-4.02,29.72-4.02c9.64,0,19.28,0.8,28.11,4.02
					c11.24,3.21,21.69,8.84,29.72,17.67c7.23,8.03,11.24,6.43,17.67,0c12.85-13.65,29.72-20.08,48.19-20.88
					c13.65-0.8,26.51,0,39.36,4.02c21.69,7.23,36.14,20.88,41.77,42.57c1.61,5.62,2.41,12.05,2.41,18.47c0,34.54,0,69.07,0,103.61
					c0,0.8,0,2.41,0,3.21c0,4.82-2.41,7.23-7.23,7.23c-8.03,0-16.06,0-24.9,0c-4.82,0-5.62-0.8-5.62-5.62c0-2.41,0-4.82,0-6.43
					c0-28.92,0-57.83,0-87.55c0-7.23-0.8-14.46-3.21-21.69c-2.41-8.03-7.23-13.65-14.46-17.67c-16.87-9.64-40.16-8.03-54.62,5.62
					c-7.23,6.43-10.44,14.46-12.05,24.1c-0.8,6.43-1.61,12.85-1.61,19.28c0,26.51,0,52.21,0,78.71c0,11.24-1.61,12.05-12.05,12.05
					c-6.43,0-12.05,0-18.47,0c-5.62,0-6.43-0.8-6.43-6.43c0-2.41,0-4.82,0-6.43c0-24.1,0-48.19,0-72.29c0-7.23,0-14.46-0.8-21.69
					c-2.41-17.67-10.44-29.72-28.11-35.34c-12.05-4.02-23.29-3.21-34.54,1.61c-12.85,5.62-19.28,16.87-20.88,30.52
					c-0.8,7.23-0.8,13.65-0.8,20.88c0,25.7,0,51.4,0,77.11c0,12.85,0,12.85-12.85,12.85c-5.62,0-12.05,0-17.67,0
					c-4.02,0-5.62-1.61-6.43-6.43c0-2.41,0-4.82,0-6.43C1015.85,266.35,1015.85,248.68,1015.85,231.81L1015.85,231.81
					L1015.85,231.81z"/>
				<path id="path20" class="st0" d="M831.11,158.72c-12.85-10.44-11.24-25.7,2.41-32.93c8.03-4.82,17.67-6.43,26.51-7.23
					c12.85-0.8,25.7-0.8,37.75,0c14.46,0.8,28.11,4.02,40.16,11.24c20.08,10.44,29.72,28.11,32.13,49.8c0.8,4.82,0.8,8.84,0.8,13.65
					c0,31.32,0,61.85,0,93.17c0,11.24,0,11.24-12.05,12.05c-9.64,0.8-19.28,1.61-28.92,2.41c-1.61,0-2.41,0-4.02,0
					c-17.67,0-35.34,0.8-53.01,0c-13.65-0.8-27.31-4.02-40.16-9.64c-5.62-2.41-10.44-5.62-14.46-10.44
					c-4.02-4.02-7.23-8.84-9.64-15.26c-4.82-14.46-4.82-29.72,0.8-44.18c3.21-9.64,9.64-16.06,18.47-21.69
					c8.84-5.62,19.28-8.03,29.72-9.64c8.84-1.61,17.67-1.61,26.51-1.61c13.65,0,27.31,0,41.77,1.61c8.03,0.8,9.64-0.8,8.03-8.84
					c-3.21-18.47-13.65-29.72-32.93-32.13c-13.65-2.41-28.11-2.41-41.77,0c-6.43,0.8-12.85,3.21-19.28,6.43
					C836.73,156.31,834.32,157.11,831.11,158.72z M933.12,271.16c0-0.8,0.8-1.61,0.8-2.41c0-15.26,0-30.52,0-45.78
					c0-3.21-1.61-4.82-4.82-5.62c-5.62-0.8-12.05-1.61-17.67-2.41c-10.44,0-20.08,0-30.52,0c-6.43,0-12.05,1.61-18.47,3.21
					c-14.46,4.82-22.49,19.28-18.47,34.54c1.61,8.03,6.43,13.65,13.65,16.87c4.02,1.61,8.84,3.21,13.65,4.02
					c17.67,3.21,34.54,2.41,52.21,0C927.5,273.57,930.71,272.77,933.12,271.16L933.12,271.16z"/>
				<path id="path22" class="st0" d="M769.27,295.26c-2.41,0.8-3.21,0.8-4.02,0.8c-9.64,0-18.47,0-28.11,0
					c-4.02,0-4.82-0.8-4.82-4.82c0-1.61,0-4.02,0-5.62c0-73.89,0-147.79,0-221.68c0-4.02,0.8-8.03,0.8-12.05
					c0.8-6.43,5.62-9.64,11.24-11.24c6.43-1.61,13.65-1.61,20.08,0.8c4.02,1.61,4.82,2.41,5.62,6.43c0,2.41,0,4.82,0,6.43
					c0,76.3,0,153.41,0,229.71C769.27,288.03,769.27,291.24,769.27,295.26z"/>
				<path id="path24" class="st0" d="M647.18,190.84c2.41-14.46-3.21-28.92-16.06-35.34c-4.02-2.41-8.84-4.02-13.65-4.82
					c-13.65-3.21-27.31-3.21-40.96-1.61c-9.64,1.61-18.47,4.02-27.31,8.84c-1.61,0.8-2.41,0.8-4.02,1.61
					c-10.44-8.03-12.05-22.49-1.61-30.52c3.21-2.41,7.23-4.82,11.24-5.62c7.23-2.41,14.46-4.02,22.49-4.02c10.44,0,20.88,0,31.32,0
					c12.05,0,23.29,2.41,34.54,7.23c12.05,4.82,23.29,12.05,30.52,23.29c7.23,10.44,11.24,22.49,11.24,35.34
					c0.8,12.05,0,24.9,0,36.95c0,20.88,0,42.57,0,63.45c0,2.41,0,4.82,0,6.43c0,4.02-1.61,5.62-6.43,6.43
					c-4.82,0.8-10.44,1.61-15.26,1.61c-25.7,2.41-52.21,3.21-77.91,1.61c-12.85-0.8-26.51-4.02-38.55-9.64
					c-18.47-8.84-27.31-23.29-27.31-42.57c0-6.43,0-13.65,1.61-20.08c3.21-12.85,10.44-22.49,21.69-28.92
					c8.84-4.82,18.47-7.23,28.11-8.84c11.24-1.61,21.69-1.61,32.93-1.61c11.24,0,22.49-0.8,33.73,1.61
					C642.36,190.84,644.77,190.84,647.18,190.84z M647.18,271.97c2.41-4.02,2.41-7.23,2.41-10.44c0-11.24,0-22.49,0-33.73
					c0-1.61,0-3.21,0-4.82c-0.8-4.02-1.61-4.82-4.82-5.62c-6.43-0.8-12.05-1.61-18.47-2.41c-8.84,0-17.67,0-27.31,0
					c-5.62,0-10.44,0.8-16.06,1.61c-14.46,3.21-24.9,12.05-24.1,31.32c0.8,8.84,4.82,15.26,12.05,20.08
					c3.21,1.61,6.43,3.21,9.64,4.02c8.03,2.41,16.87,3.21,24.9,3.21c9.64,0,20.08,0,29.72-1.61
					C639.15,273.57,643.16,272.77,647.18,271.97z"/>
				<path id="path26" class="st0" d="M299.4,243.05c2.41,0.8,4.02,1.61,5.62,2.41c16.06,8.84,33.73,15.26,52.21,17.67
					c8.03,1.61,16.06,2.41,24.1,2.41c11.24,0.8,23.29-0.8,34.54-3.21c6.43-1.61,12.05-4.02,16.87-7.23
					c16.06-11.24,18.47-40.16-1.61-51.4c-8.03-4.82-16.87-6.43-25.7-8.84c-18.47-3.21-36.95-6.43-54.62-10.44
					c-11.24-2.41-21.69-5.62-31.32-11.24s-18.47-12.05-24.1-21.69c-4.82-7.23-7.23-15.26-8.03-24.1s-0.8-17.67,1.61-26.51
					c4.02-16.06,13.65-28.11,27.31-36.95C326.7,57.51,337.95,53.5,350,51.09c12.85-2.41,26.51-3.21,39.36-2.41
					c13.65,0,26.51,0.8,39.36,4.02c11.24,2.41,21.69,5.62,31.32,12.05c4.02,2.41,7.23,5.62,10.44,8.84
					c4.82,4.82,5.62,10.44,4.02,16.87c-2.41,6.43-5.62,12.05-11.24,16.06c-0.8-0.8-1.61-0.8-2.41-0.8
					c-13.65-10.44-28.92-16.06-44.98-20.08c-13.65-3.21-28.11-4.02-41.77-3.21c-7.23,0.8-14.46,2.41-21.69,3.21
					c-1.61,0-3.21,0.8-4.82,1.61c-15.26,6.43-22.49,17.67-20.08,33.73c0.8,6.43,4.02,12.05,9.64,16.87
					c4.82,3.21,9.64,5.62,15.26,8.03c8.84,3.21,18.47,4.82,28.11,6.43c16.87,3.21,33.73,6.43,50.6,10.44
					c11.24,2.41,22.49,7.23,32.93,13.65c16.87,10.44,24.9,25.7,25.7,44.98c0.8,12.05-0.8,23.29-6.43,34.54
					c-8.03,16.06-20.88,27.31-37.75,33.73c-12.05,4.82-24.9,8.03-38.55,8.84c-4.82,0-10.44,1.61-15.26,1.61
					c-29.72,0-57.83-4.82-85.14-16.06c-4.02-1.61-8.03-4.02-12.05-5.62c-6.43-3.21-10.44-8.03-6.43-18.47
					C289.76,254.3,293.77,248.67,299.4,243.05z"/>
			</g>
			<g id="g38">
				<path id="path30" class="st1" d="M966.85,84.82c-2.41,1.61-4.02,2.41-4.82,3.21c-3.21,2.41-7.23,3.21-11.24,4.02
					c-9.64,0.8-20.08,0.8-29.72,0c-2.41,0-4.82-0.8-7.23-1.61c-2.41-0.8-4.82-3.21-5.62-6.43c-0.8-3.21,0-6.43,4.02-8.84
					c4.02,0.8,8.03,4.02,12.85,2.41c2.41-2.41,1.61-4.82,1.61-7.23c0-10.44,0-21.69,0-32.13c0-3.21,0-6.43,0.8-9.64
					c0.8-4.02,2.41-5.62,6.43-5.62c2.41,0,4.82,0,8.03,1.61c0,1.61,0.8,4.02,0.8,7.23c0,11.24,0,21.69,0,32.93c0,2.41,0,4.82,0,6.43
					c0,5.62,2.41,7.23,8.03,6.43c4.02-0.8,7.23-3.21,8.03-8.03c0.8-3.21,0.8-7.23,0.8-11.24c0-13.65,0-27.31,0-41.77
					c0-2.41,0-4.82,0-6.43c0.8-4.02,2.41-6.43,6.43-6.43c1.61,0,3.21,0,4.02,0c0.8,0,2.41,0.8,3.21,0.8
					c1.61,3.21,0.8,6.43,0.8,10.44c0,14.46,0,29.72,0,44.18c0,2.41,0,5.62,0.8,8.03c0.8,6.43,4.02,9.64,10.44,10.44
					c1.61,0,4.02,0,5.62,0c30.52,0,61.85,0,92.37,0c2.41,0,4.82,0,7.23-0.8c5.62-0.8,8.84-4.02,9.64-8.84
					c0.8-2.41,0.8-4.82,0.8-7.23c0-6.43,0-12.05,0-18.47c0-1.61,0-4.02,0-5.62s1.61-3.21,3.21-3.21c3.21-0.8,6.43-0.8,10.44,0.8
					c0,1.61,0.8,4.02,0.8,6.43c0,6.43,0,13.65,0,20.08c0,3.21,0.8,6.43,1.61,9.64c1.61,4.82,4.82,7.23,10.44,7.23
					c4.82,0,8.84-1.61,10.44-6.43c0.8-3.21,1.61-5.62,1.61-8.84c0-6.43,0-13.65,0-20.08c0-1.61,0-3.21,0-4.82
					c0-2.41,1.61-4.02,4.02-4.02c3.21,0,6.43,0,8.84,0c2.41,2.41,2.41,4.82,2.41,6.43c0,6.43,0,12.05,0,18.47
					c0,4.02,0,7.23,0.8,11.24c0.8,4.82,4.82,8.03,10.44,8.84c5.62,0,9.64-1.61,11.24-6.43c0.8-2.41,0.8-4.82,0.8-7.23
					c0-7.23,0-14.46,0-20.88c0-1.61,0-4.02,0-5.62s1.61-3.21,3.21-3.21c4.02-0.8,7.23-0.8,11.24,0.8c0,1.61,0.8,4.02,0.8,6.43
					c0,6.43,0,12.05,0,18.47c0,2.41,0,4.82,0,6.43c0.8,8.03,4.02,12.05,12.05,12.05c12.05,0,24.1,0,35.34,0
					c8.03,0,11.24-4.02,12.05-11.24c0-3.21,0-6.43,0-9.64c0-12.05,0-24.9,0-36.95c0-3.21,0-6.43,0-9.64c0-4.02,2.41-6.43,6.43-6.43
					c1.61,0,3.21,0,4.82,0c1.61,0,3.21,1.61,3.21,3.21s0,3.21,0,4.82c0,17.67,0,35.34,0,53.01c0,2.41,0,4.82,0,6.43
					c0,8.84-8.03,16.87-16.87,18.47c-4.02,0.8-8.03,0.8-12.05,0.8c-7.23,0-15.26,0-22.49,0c-0.8,0-2.41,0-3.21,0
					c-9.64,0-20.08-0.8-28.11-8.03c-6.43,4.02-12.85,7.23-20.08,7.23c-7.23,0-13.65-2.41-19.28-7.23
					c-13.65,10.44-26.51,10.44-38.55,0.8c-0.8,0-0.8,0-1.61,0c-7.23,5.62-16.06,7.23-24.9,7.23c-8.03,0-16.06,0-23.29,0
					c-20.08,0-39.36,0-59.44,0.8c-1.61,0-4.02,0-5.62,0C984.52,92.85,974.88,92.05,966.85,84.82L966.85,84.82z"/>
				<path id="path32" class="st1" d="M851.99,46.27c0.8-0.8,0.8-0.8,1.61-0.8c8.03-12.85,20.88-13.65,33.73-11.24
					c11.24,2.41,16.06,10.44,16.06,18.47c0,6.43,0,13.65,0,20.08c0,10.44-8.84,17.67-17.67,18.47c-5.62,0.8-10.44,0.8-16.06,0
					c-9.64-1.61-16.06-7.23-17.67-16.87c-0.8-2.41,0-4.82-0.8-6.43c-1.61-7.23-8.03-11.24-15.26-8.84
					c-4.02,1.61-6.43,4.82-7.23,8.84c-0.8,2.41,0,5.62,0,8.03c0,3.21,0,6.43,0,10.44c0,4.82-1.61,5.62-6.43,6.43
					c-0.8,0-2.41,0-3.21,0c-4.02,0-5.62-1.61-5.62-5.62c0-7.23-0.8-14.46,0-20.88c0.8-11.24,7.23-17.67,17.67-20.88
					c4.82-0.8,9.64-1.61,15.26,0C847.98,45.47,849.59,45.47,851.99,46.27z M867.26,62.33c0,2.41,0,4.82,0.8,7.23
					c0.8,4.82,4.02,7.23,8.84,8.03c5.62,0.8,9.64-1.61,11.24-6.43c1.61-5.62,1.61-11.24,0-17.67c-1.61-4.82-5.62-7.23-11.24-6.43
					c-4.82,0.8-8.03,3.21-8.84,8.03C867.26,57.51,867.26,59.92,867.26,62.33z"/>
				<path id="path34" class="st1" d="M1294.56,91.25c-5.62,1.61-9.64,1.61-14.46,0c0-1.61-0.8-4.02-0.8-5.62
					c0-23.29,0-46.59,0-69.88c0-0.8,0-2.41,0-3.21c0.8-6.43,8.03-10.44,13.65-6.43c0.8,0.8,1.61,1.61,1.61,2.41
					c0,1.61,0,3.21,0,4.82c0,23.29,0,47.39,0,70.68C1295.36,86.43,1295.36,88.84,1294.56,91.25L1294.56,91.25z"/>
				<path id="path36" class="st1" d="M1617.44,93.66l-21.69-21.69c-0.8-0.8-0.8-1.61,0-2.41l21.69-21.69c0.8-0.8,1.61-0.8,2.41,0
					l21.69,21.69c0.8,0.8,0.8,1.61,0,2.41l-21.69,21.69C1619.05,94.46,1618.24,94.46,1617.44,93.66z"/>
			</g>
		</g>
		<g id="g108">
			
				<linearGradient id="path57_00000052084202443530554920000008525472959259157164_" gradientUnits="userSpaceOnUse" x1="1425.6447" y1="-66.5319" x2="1485.9056" y2="-66.5319" gradientTransform="matrix(0.6623 0 0 -0.6623 -942.0689 215.6989)">
				<stop  offset="0" style="stop-color:#00AACB"/>
				<stop  offset="0.2524" style="stop-color:#00A7C8"/>
				<stop  offset="0.4552" style="stop-color:#009EBE"/>
				<stop  offset="0.6406" style="stop-color:#008EAD"/>
				<stop  offset="0.8158" style="stop-color:#017895"/>
				<stop  offset="0.9823" style="stop-color:#015C77"/>
				<stop  offset="1" style="stop-color:#015973"/>
			</linearGradient>
			<path id="path57" style="fill:url(#path57_00000052084202443530554920000008525472959259157164_);" d="M84.94,176.39
				c0,1.61,0.8,2.41,2.41,3.21c16.06,16.06,32.93,32.93,49,49c9.64,9.64,16.06,20.88,21.69,32.93c4.02,8.84,8.03,18.47,10.44,28.11
				c0.8,2.41,0.8,5.62,1.61,8.84c1.61,4.02,1.61,8.84,2.41,12.85c0.8,5.62,1.61,11.24,1.61,16.87c0,4.82,0,8.84,0,13.65v0.8
				c0,0.8,0,2.41-0.8,3.21c-1.61,0.8-2.41-0.8-3.21-1.61c-7.23-7.23-15.26-15.26-22.49-22.49c-16.87-16.87-33.73-33.73-50.6-50.6
				c-12.05-12.05-24.1-24.9-36.95-36.95C41.57,215.74,23.9,198.07,5.43,179.6c-0.8-0.8-3.21-1.61-1.61-3.21
				c2.41-0.8,6.43-1.61,9.64-1.61c12.85-1.61,26.51-1.61,39.36-0.8c4.82,0,9.64,0,13.65,0.8C72.89,174.78,78.52,175.58,84.94,176.39
				z"/>
			
				<linearGradient id="path74_00000112610441699534169360000012018138125402675374_" gradientUnits="userSpaceOnUse" x1="1425.8835" y1="185.1157" x2="1485.9536" y2="185.1157" gradientTransform="matrix(0.6623 0 0 -0.6623 -942.0689 215.6989)">
				<stop  offset="0" style="stop-color:#D5DD26"/>
				<stop  offset="0.2404" style="stop-color:#D2DB27"/>
				<stop  offset="0.4335" style="stop-color:#C8D429"/>
				<stop  offset="0.6101" style="stop-color:#B7C82E"/>
				<stop  offset="0.7769" style="stop-color:#9FB834"/>
				<stop  offset="0.9355" style="stop-color:#81A33B"/>
				<stop  offset="1" style="stop-color:#72993F"/>
			</linearGradient>
			<path id="path74" style="fill:url(#path74_00000112610441699534169360000012018138125402675374_);" d="M84.94,176.39
				c-5.62-0.8-12.05-1.61-17.67-2.41c-4.82-0.8-9.64-0.8-13.65-0.8c-13.65,0-26.51-0.8-40.16,1.61c-4.02,0.8-7.23,0.8-11.24,2.41
				c-0.8-0.8,0-0.8,0-0.8c4.02-4.02,8.84-8.84,12.85-12.85s8.03-8.03,12.05-11.24c4.02-4.02,8.03-8.84,12.85-12.85
				c2.41-2.41,4.82-4.82,7.23-7.23c6.43-6.43,12.85-12.85,18.47-19.28c8.84-8.84,17.67-17.67,27.31-27.31
				c15.26-15.26,30.52-30.52,45.78-45.78c9.64-9.64,19.28-19.28,28.92-28.92l0.8-0.8c0.8-0.8,1.61-1.61,2.41-0.8
				c0.8,0,1.61,1.61,1.61,2.41c0,2.41,0,5.62,0,8.03c0,8.03,0,16.06-0.8,24.1c-0.8,8.03-2.41,15.26-4.02,22.49
				c-2.41,9.64-5.62,18.47-9.64,27.31c-7.23,16.06-17.67,28.92-30.52,40.96c-13.65,13.65-27.31,27.31-40.96,40.96
				C85.74,175.58,84.94,175.58,84.94,176.39z"/>
			
				<linearGradient id="path87_00000052782818543630081840000015229590021269918125_" gradientUnits="userSpaceOnUse" x1="1678.3047" y1="13.8329" x2="1687.7649" y2="30.2185" gradientTransform="matrix(0.6623 0 0 -0.6623 -942.0689 215.6989)">
				<stop  offset="0" style="stop-color:#00AACB"/>
				<stop  offset="0.1857" style="stop-color:#00A2C2"/>
				<stop  offset="0.4884" style="stop-color:#008BAA"/>
				<stop  offset="0.8684" style="stop-color:#016782"/>
				<stop  offset="1" style="stop-color:#015973"/>
			</linearGradient>
			<path id="path87" style="fill:url(#path87_00000052782818543630081840000015229590021269918125_);" d="M223.09,175.58
				c0.8,0,0.8,0.8,1.61,0.8c0.8,0.8,0.8,1.61,0,2.41c-2.41,2.41-5.62,4.82-8.03,8.03c-4.82,4.82-9.64,9.64-14.46,14.46
				c-4.02,4.02-8.03,8.03-12.85,12.85c-2.41,2.41-4.02,2.41-6.43,0c-11.24-11.24-23.29-22.49-34.54-34.54c-0.8-0.8-2.41-2.41,0-3.21
				c5.62,0.8,11.24-1.61,16.87-3.21c5.62-1.61,11.24-3.21,16.87-4.82c11.24-2.41,22.49-2.41,32.93,2.41
				c2.41,0.8,4.02,2.41,6.43,3.21l0,0C222.29,175.58,222.29,175.58,223.09,175.58z"/>
			
				<linearGradient id="path104_00000059287611202632392670000003172431124468393914_" gradientUnits="userSpaceOnUse" x1="1646.9742" y1="86.7897" x2="1672.8496" y2="86.7897" gradientTransform="matrix(0.6623 0 0 -0.6623 -942.0689 215.6989)">
				<stop  offset="0" style="stop-color:#72993F"/>
				<stop  offset="0.0645" style="stop-color:#81A33B"/>
				<stop  offset="0.2231" style="stop-color:#9FB834"/>
				<stop  offset="0.3899" style="stop-color:#B7C82E"/>
				<stop  offset="0.5665" style="stop-color:#C8D429"/>
				<stop  offset="0.7596" style="stop-color:#D2DB27"/>
				<stop  offset="1" style="stop-color:#D5DD26"/>
			</linearGradient>
			<path id="path104" style="fill:url(#path104_00000059287611202632392670000003172431124468393914_);" d="M222.29,174.78
				c-2.41-0.8-4.02-2.41-6.43-3.21c-10.44-4.82-21.69-4.82-32.93-2.41c-5.62,1.61-11.24,3.21-16.87,4.82
				c-5.62,1.61-11.24,3.21-16.87,3.21c2.41-3.21,4.82-5.62,8.03-8.03c8.84-9.64,18.47-18.47,28.11-28.11c2.41-2.41,2.41-2.41,4.02,0
				c10.44,11.24,20.88,21.69,32.13,32.13C221.49,173.98,222.29,173.98,222.29,174.78z"/>
			<path id="path106" class="st6" d="M223.09,175.58c0,0-0.8,0-0.8-0.8C222.29,174.78,222.29,175.58,223.09,175.58z"/>
		</g>
	</g>
</g>
</svg>
