<?xml version="1.0" encoding="utf-8"?>
<!-- Generator: Adobe Illustrator 25.4.1, SVG Export Plug-In . SVG Version: 6.00 Build 0)  -->
<svg version="1.1" id="Layer_1" xmlns="http://www.w3.org/2000/svg" xmlns:xlink="http://www.w3.org/1999/xlink" x="0px" y="0px"
	 viewBox="0 0 351.3 80" style="enable-background:new 0 0 351.3 80;" xml:space="preserve">
<style type="text/css">
	.st0{fill:#EC1C24;}
</style>
<g>
	<path class="st0" d="M242.4,80h-76.3c0,0-79-65.2-128.2-79.3c0,0,39.7-3.8,72.5,6s51.9,21.8,64.8,29.2C188,43.4,242.4,80,242.4,80z
		"/>
	<path class="st0" d="M155.6,80H0c0,0,9-11.8,24.8-3.7l69.7-0.4c0,0,8.8,1.2,9.8-2.4H93.2v-1.8c0,0,9.8-0.3,15.5-0.5
		c5.7-0.3,22.3-2.4,27.5-6.4C136.2,64.7,145.5,78.4,155.6,80z"/>
	<path class="st0" d="M190.2,41.4c0,0,44.2,32.4,65.8,38.6h84.8l1.7-2.1H329c0,0-9.7-7.7-17.3-7.4c-7.6,0.3-13.9,5.6-13.9,5.6h-41.7
		c0,0-10.5-3.2-13.7-11.3c-3.2-8.1,21.4-28,45.3-38S351.3,3,351.3,3S288-0.5,250.8,12.4S201.9,33.3,190.2,41.4z"/>
</g>
</svg>
