<?xml version="1.0" encoding="utf-8"?>
<!-- Generator: Adobe Illustrator 25.4.1, SVG Export Plug-In . SVG Version: 6.00 Build 0)  -->
<svg version="1.1" id="Layer_1" xmlns="http://www.w3.org/2000/svg" xmlns:xlink="http://www.w3.org/1999/xlink" x="0px" y="0px"
	 viewBox="0 0 242.1 80" style="enable-background:new 0 0 242.1 80;" xml:space="preserve">
<style type="text/css">
	.st0{fill:#EC1C24;}
</style>
<g>
	<path class="st0" d="M169.4,53.4h-51c0,0-52.8-43.5-85.7-52.9c0,0,26.5-2.6,48.4,4S115.8,19,124.4,24S169.4,53.4,169.4,53.4z"/>
	<path class="st0" d="M111.4,53.4H7.5c0,0,6-7.9,16.6-2.5l46.6-0.3c0,0,5.9,0.8,6.6-1.6h-7.4v-1.2c0,0,6.6-0.2,10.4-0.4
		c3.8-0.2,14.9-1.6,18.4-4.3C98.5,43.2,104.7,52.4,111.4,53.4z"/>
	<path class="st0" d="M134.5,27.6c0,0,29.5,21.6,44,25.8h56.7l1.2-1.4h-9.1c0,0-6.5-5.1-11.5-5c-5.1,0.2-9.3,3.7-9.3,3.7h-27.8
		c0,0-7-2.1-9.1-7.5c-2.1-5.4,14.3-18.7,30.2-25.4S242.1,2,242.1,2S199.8-0.3,175,8.3S142.4,22.2,134.5,27.6z"/>
	<path class="st0" d="M0,74.3L3.4,74c0,0-0.1,3.1,3,3.1s4-1.7,4-2.5s-0.5-1.7-2.9-2.2S2,70.9,2,67.6s3.3-5.3,7.5-5.3
		s5.3,2.4,5.2,5.1l-3.5,0.1c0,0,0.2-2.5-2.5-2.5s-3.6,1.3-3.4,2.2s0.6,1.3,3.4,2.1c2.8,0.8,5.1,1.2,5.1,4.7s-3.3,6-7.5,6
		S-0.3,78.3,0,74.3z"/>
	<path class="st0" d="M210.1,74.3l3.3-0.3c0,0-0.1,3.1,3,3.1c3.1,0,4-1.7,4-2.5s-0.5-1.7-2.9-2.2c-2.4-0.4-5.5-1.5-5.5-4.8
		s3.3-5.3,7.5-5.3c4.2,0,5.3,2.4,5.2,5.1l-3.5,0.1c0,0,0.2-2.5-2.5-2.5s-3.6,1.3-3.4,2.2c0.2,0.9,0.6,1.3,3.4,2.1
		c2.8,0.8,5.1,1.2,5.1,4.7s-3.3,6-7.5,6C212.2,80,209.8,78.3,210.1,74.3z"/>
	<path class="st0" d="M226.2,74.3l3.3-0.3c0,0-0.1,3.1,3,3.1c3.1,0,4-1.7,4-2.5s-0.5-1.7-2.9-2.2s-5.5-1.5-5.5-4.8s3.3-5.3,7.5-5.3
		c4.2,0,5.3,2.4,5.2,5.1l-3.5,0.1c0,0,0.2-2.5-2.5-2.5s-3.6,1.3-3.4,2.2c0.2,0.9,0.6,1.3,3.4,2.1c2.8,0.8,5.1,1.2,5.1,4.7
		s-3.3,6-7.5,6C228.3,80,225.9,78.3,226.2,74.3z"/>
	<polygon class="st0" points="19.3,79.8 15.9,79.8 19.3,62.7 22.6,62.7 21.1,70.3 29.6,62.7 34.1,62.7 26.6,69.6 31.3,79.8 
		26.9,79.8 23.6,71.8 20.4,74.5 	"/>
	<polygon class="st0" points="34.7,62.7 39.1,72.5 37.7,79.8 41,79.8 42.5,72.5 50.5,62.7 46.6,62.7 41.5,69.3 38.7,62.7 	"/>
	<polygon class="st0" points="50.9,62.7 51.5,79.8 55.1,79.8 61.2,66.9 62.1,79.8 65.6,79.8 73,62.7 69.6,62.7 64.9,74.5 64,62.7 
		60,62.7 54.6,74.4 54.3,62.7 	"/>
	<path class="st0" d="M82.1,62.7h-3.5l-10,17h3.8l2.1-3.9h6.7l0.8,3.9h3.8L82.1,62.7z M76.1,73l3.5-6.3l1.1,6.3H76.1z"/>
	<path class="st0" d="M104,66.6c0.6-3.7-3.9-3.9-3.9-3.9h-9.1l-3.5,17h3.5l1.5-7.2c2.9-0.4,3.8,1.9,3.8,1.9l2.5,5.4h4.1
		c0,0-1.2-2.8-1.9-4.7s-2.4-3-2.4-3C100.8,72.1,103.4,70.3,104,66.6z M100.5,67.6c-0.6,2.2-2.1,2.3-3.4,2.3s-4.2,0-4.2,0l1-4.5h4.5
		C98.5,65.3,101.1,65.4,100.5,67.6z"/>
	<path class="st0" d="M193.1,66.6c0.6-3.7-3.9-3.9-3.9-3.9h-9.1l-3.5,17h3.5l1.5-7.2c2.9-0.4,3.8,1.9,3.8,1.9l2.5,5.4h4.1
		c0,0-1.2-2.8-1.9-4.7s-2.4-3-2.4-3C189.9,72.1,192.5,70.3,193.1,66.6z M189.6,67.6c-0.6,2.2-2.1,2.3-3.4,2.3c-1.3,0-4.2,0-4.2,0
		l1-4.5h4.5C187.6,65.3,190.3,65.4,189.6,67.6z"/>
	<path class="st0" d="M115.8,62.7h-7.4l-3.4,17c0,0,0.4,0,6.7,0c6.4,0,9.1-5.2,9.4-11.2C121.4,62.5,115.8,62.7,115.8,62.7z
		 M117.7,68.9c-0.2,3.3-1,8-5.9,8h-2.9l2.2-11.4h4C115.1,65.5,117.9,65.6,117.7,68.9z"/>
	<polygon class="st0" points="141.7,79.8 142.2,76.9 133,76.9 133.8,72.1 142.2,72.1 142.6,69.3 134.5,69.3 135.2,65.5 144.1,65.5 
		144.7,62.7 132.4,62.7 129,79.8 	"/>
	<polygon class="st0" points="206.7,79.8 207.2,76.9 198,76.9 198.9,72.1 207.2,72.1 207.6,69.3 199.6,69.3 200.2,65.5 209.1,65.5 
		209.7,62.7 197.4,62.7 194,79.8 	"/>
	<polygon class="st0" points="143.2,79.8 147.3,79.8 152.1,73.7 154.9,79.8 159,79.8 154.8,70.8 161.6,62.7 157.6,62.7 153.4,67.7 
		151,62.7 147,62.7 150.4,70.3 	"/>
	<path class="st0" d="M171.6,62.7c-2.4,0-7.4,0-7.4,0l-3.4,17h3.4l1.4-6.6h4.2c0,0,5.1,0.2,6.3-4.8C177.2,63.4,174,62.7,171.6,62.7z
		 M172.7,67.9c-0.6,2.4-4,2.4-4,2.4h-2.6l1-4.8h3.6C170.6,65.5,173.3,65.5,172.7,67.9z"/>
</g>
</svg>
