<?xml version="1.0" encoding="utf-8"?>
<!-- Generator: Adobe Illustrator 25.4.1, SVG Export Plug-In . SVG Version: 6.00 Build 0)  -->
<svg version="1.1" id="Layer_1" xmlns="http://www.w3.org/2000/svg" xmlns:xlink="http://www.w3.org/1999/xlink" x="0px" y="0px"
	 viewBox="0 0 179.3 80" style="enable-background:new 0 0 179.3 80;" xml:space="preserve">
<style type="text/css">
	.st0{fill-rule:evenodd;clip-rule:evenodd;fill:#CFD1D1;}
</style>
<g>
	<path class="st0" d="M86.3,72.4c2.5,1.2,5.2,1.2,7.8-0.8c2.9-2.2,3.4-5.3,2.4-8.5C93.1,66.1,89.8,69.3,86.3,72.4L86.3,72.4z"/>
	<path class="st0" d="M92.7,56.4H77.1c-0.9,3.2,0.5,7.1,3.4,10.8c0.9,1.1,1.9,2.2,2.9,3.1l0.2-0.1c1-0.8,2.1-1.7,3-2.5
		c2.8-2.6,5.7-5.1,8.6-7.7c-0.6-1-1.2-2-1.9-2.9C93.1,56.9,92.9,56.6,92.7,56.4z"/>
	<path class="st0" d="M108.2,58.2c0.4,1,1.1,1.8,2.4,1.7c0.6-0.1,1.1-0.4,1.6-0.7c0.2-0.2,0.3-0.2,0.5,0c0.4,0.6,0.5,0.6-0.1,1
		c-2.5,2-5,3.9-7.5,5.9c-0.2,0.2-0.4,0.2-0.5-0.1c0,0,0,0,0,0c-0.4-0.5-0.4-0.5,0-1c0.6-0.7,0.9-1.6,1-2.6c0-0.7,0-1.4-0.2-2.1
		c-0.2-1.3-0.5-2.6-0.9-3.9h-0.5l-2.3,2.1l-0.5,0.5c1.4,5-0.1,10.4-5.3,14.6c-4.7,3.8-9.9,4.2-14.3,2.2l-0.2,0.1
		c-15.8,8.8-19.3-7.4-8.6-18.5c-7.5,13.9-4.3,21.3,5.1,16.5c0.1,0,0.2-0.1,0.3-0.1c-1-0.8-1.8-1.7-2.6-2.6
		c-3.5-4.4-4.6-9.8-2.3-14.6H36.2L0,80l133.5,0L147,56.5h-39.4C107.8,57,108,57.6,108.2,58.2z"/>
	<path class="st0" d="M134.3,30.2L134.3,30.2l0.8,1c1,1.3,2.1,2.6,3.1,4c0.3,0.4,0.7,0.7,1.1,0.9c0.7,0.4,1.4,0.3,2.1,0
		c0.6-0.3,1.2-0.7,1.8-1.1c0.2-0.1,0.2-0.1,0.3,0c0.5,0.6,0.5,0.6-0.1,1.1c-3.6,2.8-7.2,5.6-10.7,8.4c-0.3,0.2-0.4,0.2-0.6-0.1
		c-0.4-0.5-0.4-0.5,0.1-1c0.5-0.4,1-0.9,1.4-1.5c0.6-0.9,0.4-1.7,0-2.5c-1.2-1.8-2.6-3.4-3.9-5.1l-0.1-0.2l0,0
		c-2.9,2.5-5.8,5-8.7,7.5l0,0c1.9,1,3.8,2.1,5.8,3.1c0.7,0.4,1.5,0.6,2.3,0.5c0.6-0.1,1.3-0.3,1.8-0.7c0.2-0.1,0.2-0.1,0.3,0
		c0.6,0.7,0.6,0.7-0.1,1.3c-2.4,1.9-4.8,3.8-7.3,5.7l25.9,0l13.3-23.4h-26.2C135.9,28.9,135.1,29.5,134.3,30.2z"/>
	<path class="st0" d="M78,50.8c6.8-5.2,13.7-4.1,18.7,0.8h6.5c-0.2-0.9-0.5-1.8-0.7-2.6c-0.3-1.1-0.6-2.3-0.9-3.4
		c-0.4-1.6-0.9-3.3-1.3-4.9c-0.4-1.6-0.8-3.3-1.4-4.9c-0.2-0.6,0-0.9,0.4-1.2c1.1-0.8,2.1-1.6,3.1-2.4c0.2-0.1,0.3-0.2,0.5-0.1
		c1.4,0.8,2.8,1.5,4.2,2.3l3,1.6c1.4,0.8,2.8,1.5,4.2,2.3c0.9,0.5,1.7,0.9,2.6,1.4l0.6,0.3l0.2,0.1l0.2,0.1c3.2-2.8,6.5-5.6,9.7-8.4
		l0,0l-0.7-0.9l-2.1-2.7H83.1L44.3,51.6l32.7,0C77.3,51.3,77.6,51.1,78,50.8z"/>
	<path class="st0" d="M121.4,51.6c0.1-0.2,0.3-0.5,0.4-0.7c0.2-0.5-0.1-1.3-0.6-1.7c-1.1-0.7-2.2-1.3-3.2-1.9
		c-0.6-0.4-1.2-0.7-1.8-1.1l-0.3-0.2l-0.1,0c-2.1,1.9-4.3,3.7-6.4,5.6L121.4,51.6z"/>
	<path class="st0" d="M81.9,51.6h3.6C84.4,51.3,83.1,51.3,81.9,51.6z"/>
	<path class="st0" d="M112.5,44.1c-3.2-1.9-6.3-3.7-9.5-5.6c0.3,1.3,0.6,2.6,1,3.9c0.5,1.8,0.9,3.6,1.4,5.4c0.2,0.9,0.5,1.7,0.7,2.6
		l0,0c2.3-2,4.6-4,6.9-6l-0.1-0.1L112.5,44.1z"/>
	<path class="st0" d="M129.5,0l-39,23.6l30.6-0.1l-0.4-0.5c-0.3-0.4-0.7-0.7-1.1-0.9c-0.8-0.5-1.6-0.2-2.3,0.2c-0.5,0.3-1,0.6-1.5,1
		c-0.1,0.1-0.2,0.1-0.3,0c-0.6-0.6-0.6-0.6,0.1-1.1c3.6-2.8,7.1-5.6,10.7-8.4c0.3-0.2,0.4-0.2,0.6,0.1c0,0.1,0.1,0.2,0.2,0.2
		c0.2,0.2,0.2,0.3-0.1,0.5c-0.6,0.5-1.1,1-1.6,1.6c-0.6,0.8-0.5,1.7,0,2.5c0.3,0.5,0.6,0.9,0.9,1.3l2.8,3.5l8.2,0c2.3-2,4.7-4,7-6
		c0,1.6-0.2,2.9-0.2,4.5l-1.8,1.5l23.3,0L179.3,0L129.5,0z M164,2.6L164,2.6L164,2.6L164,2.6L164,2.6L164,2.6L164,2.6L164,2.6
		L164,2.6L164,2.6L164,2.6L164,2.6L164,2.6L164,2.6L164,2.6L164,2.6L164,2.6L164,2.6L164,2.6L164,2.6L164,2.6L164,2.6L164,2.6
		L164,2.6v0.1v0l0,0l0,0l0,0v0l0,0v0l0,0v0l0,0v0v0v0l0,0l0,0v0v0v0v0v0l0,0l0,0l0,0l0,0l0,0v0v0v0l0,0v0v0l0,0v0l0,0v0v0v0v0v0v0
		l0,0v0v0v0v0v0l0,0v0l0,0v0v0l0,0l0,0l0,0v0l0,0l0,0l0,0l0,0l0,0v0l0,0l0,0v0l0,0l0,0v0l0,0l0,0l0,0l0,0l0,0l0,0l0,0l0,0l0,0l0,0
		l0,0l0,0l0,0l0,0v0l0,0l0,0l0,0l0,0l0,0l0,0v0l0,0l0,0v0l0,0l0,0l0,0l0,0v0l0,0l0,0v0l0,0l0,0l0,0l0,0l0,0l0,0l0,0l0,0l0,0l0,0l0,0
		l0,0l0,0l0,0l0,0l0,0v0l0,0l0,0l0,0l0,0l0,0l0,0l0,0l0,0l0,0l0,0l0,0l0,0l0,0l0,0l0,0v0l0,0l0,0l0,0l0,0l0,0l0,0l0,0l0,0l0,0l0,0
		l0,0l0,0l0,0l-3.5,3.1l0.1,2.2v0l0,0l0,0l0,0l0,0v0l0,0l0,0l0,0l0,0l0,0l0,0l0,0l0,0l0,0l0,0l0,0l0,0l0,0l0,0l0,0l0,0l0,0l0,0l0,0
		l0,0l0,0l0,0l0,0l0,0l0,0l0,0l0,0l0,0l0,0l0,0l0,0l0,0l0,0l0,0l0,0l0,0l0,0l0,0l0,0l0,0l0,0v0v0l0,0l0,0l0,0l0,0l0,0l0,0l0,0l0,0
		l0,0l0,0l0,0l0,0h0l0,0l0,0h0v0l0,0v0l0,0h0l0,0h0l0,0l0,0h0l0,0l0,0l0,0l0,0l0,0h0l0,0h0l0,0h0l0,0h0l0,0l0,0l0,0l0,0l0,0l0,0h0
		l0,0l0,0l0,0h0l0,0l0,0l0,0l0,0l0,0l0,0l0,0l0,0l0,0l0,0l0,0l0,0l0,0l0,0l0,0l0,0l0,0l0,0h0.1l0,0h0l0,0l0,0l0,0l0,0l0,0l0,0l0,0
		l0,0l0,0l0,0l0,0l0,0l0,0l0,0l0,0l0,0l0,0l0,0l0,0l0,0l0,0l0,0l0,0l0,0l0,0l0,0l0,0l0,0l0,0l0,0l0,0l0,0l0,0l0,0l0,0l0,0l0,0l0,0
		l0,0l0,0l0,0l0,0l0,0l0,0l0,0l0,0l0,0l0,0l0,0l0,0l0,0l0,0l0,0l0,0l0,0l0,0l0,0l0,0l0,0l0,0l0,0l0,0l0,0l0,0l0,0l0,0l0,0l0,0l0,0
		l0,0l0,0l0,0l0,0l0,0l0,0l0,0l0,0l0,0l0,0l0,0l0,0l0,0l0,0l0,0l0,0l0,0l0,0l0,0l0,0l0,0l0,0h0l0,0l0,0l0,0l0,0l0,0l0,0l0,0l0,0l0,0
		l0,0l0,0l0,0l0,0l0,0l0,0l0,0l0,0l0,0l0,0l0,0l0,0l0,0l0,0l0,0l0,0l0,0l0,0l0,0l0,0l0,0l0,0l0,0l0,0l0,0l0,0l0,0l0,0l0,0l0,0l0,0
		l0,0l0,0l0,0l0,0l0,0l0,0l0,0l0,0l0,0l0,0l0,0l-0.1,0.1h0h0l0,0l0,0h0v0l0,0h0h0h0v0l0,0v0l0,0l0,0l0,0l0,0l0,0l0,0l0,0l0,0l0,0
		l0,0l0,0l0,0l0,0l0,0l0,0l-0.1,0l0,0l0,0l0,0l0,0l0,0l0,0l0,0l0,0l0,0l0,0l0,0l0,0l0,0l0,0l0,0l0,0l0,0l0,0l0,0l0,0l0,0l0,0l0,0
		l0,0l0,0l0,0l0,0l0,0l0,0l0,0h0l0,0h-0.1l0,0l-0.2,1h0h0h0l0,0l0,0h0h0h0l0,0h0h0h0h0h0h0h0h0h0l0,0l0,0h0h0h0h0h0l0,0l0.5,8.5
		c0,0,0,0,0,0c0,0,0,0,0,0c0,0,0,0,0,0c0,0,0,0,0,0c0,0,0,0,0,0l-0.9,0.9l-2.1-7l-1.5-2.3l-0.1,0.1l-0.1,0.1l-0.1,0l-0.1,0.1
		l-0.1,0.1l-0.1,0.1l-0.1,0.1l-0.1,0.1l-0.1,0.1l-0.1,0.1l-0.1,0.1l-0.1,0.1l-0.1,0.1l-0.1,0.1l-0.1,0.1l-0.1,0.1l-0.1,0.1l-0.1,0.1
		l-0.1,0.1l-0.1,0.1l0,0l0,0l0,0l0,0l0,0l0,0l0,0l0,0l0,0l0,0l0,0l0,0l0,0l0,0l0,0l0,0l0,0l0,0l0,0l0,0l0,0l0,0l0,0l0,0l0,0l0,0l0,0
		h0l0,0l0,0l0,0l0,0h0l0,0h0l0,0l0,0l-0.1,0.1l-0.1,0.1l-0.2,0.1l-0.1,0.1l0,0h0l0,0h0l0,0h0h0h0l0,0l0,0h0h0h0l0,0h0h0h0l0,0h0h0h0
		l0,0h0h0l0,0l0.2,4.5v0l0,0v0.3l0,0v0l0,0l0,0v0l0,0l0,0l0,0l0,0l0,0l0,0l0,0l0,0l0,0l0,0l0,0l0,0l0,0l0,0l0,0l0,0l0,0l0,0l0,0l0,0
		l0,0l0,0l0,0l0,0l0,0l0,0l0,0l0,0l0,0l0,0l-0.8,0.7l-1.7-3.9h0l0,0l0,0l0,0l0,0l0,0l0,0l0,0l0,0l0,0h0l0,0l0,0l0,0l0,0l0,0l0,0h0
		l0,0l0,0h0l0,0h0l0,0l0,0h0l0,0h0l0,0l0,0h0l0,0h0l0,0l0,0h0h0l0,0h0l-0.1-0.1l0,0h0h0h0l0,0h0h0h0h0h0h0h0h0h0h0h0h0h0h0h0l0,0h0
		h0h0h0h0l-0.4,0.7h0h0h0h0h0l0,0l0,0l0,0l0,0l0,0l0,0l0,0l0,0l0,0l0,0l0,0l0,0l0,0l0,0l0,0l0,0h0l0,0l0,0l0,0l0,0l0,0l0,0l0,0h0
		l0,0h0l0,0h0l0,0l0,0l0,0l-0.1-0.1l0,0l0,0h0l0,0h0l0,0h0l0,0h0l0,0h0l0,0l0,0l0,0l0,0l0,0l0,0l0,0l0,0l0,0v0l0,0l0,0l0,0l0,0l0,0
		l0,0l0,0l0,0l0,0l0,0l0,0l0,0l0,0l-0.1-0.1l0,0l0,0l0,0l0,0l0,0l0,0l0,0l0,0l0,0l0,0l0,0l0,0v0l0,0v0l0,0l0,0l0,0l0,0l0,0l0,0l0,0
		l0,0l0,0l0,0v0l0,0l0,0l0,0l0,0l0,0l0,0l0,0l0,0l0,0l0,0l0,0l0,0v0l0,0l0,0v0l0,0v0h0v0l0,0v0l0,0l0.2-0.2v0l0,0v0l0,0h0v0h0v0l0,0
		h0v0h0l0,0l0,0h0l0,0l0,0h0l0,0l0,0l0-0.1l0,0v0l0,0l0,0l0,0l0,0l0,0l0,0l0,0v0l0,0l0,0l0,0l0,0l0,0l0,0h0l0,0l0,0l0,0l0,0h0l0,0
		l0,0l0,0l0,0l0,0l0,0h0l0,0l0,0l0,0h0l0,0l0,0l0,0l0,0l0,0l0,0l-3.3-2.6l0.8-0.7l0,0l0,0l0,0l0,0l0,0l0,0l0,0l0,0l0,0h0l0,0l0,0
		l0,0h0l0,0h0.1l0,0h0.1l4.5,0.7l0,0l0,0l0,0v0l0,0l0,0l0,0v0l0,0l0,0l0,0l0,0l0,0l0,0l0,0l0,0l0,0v0l0,0l0,0l0.2-0.1v0l0,0l0,0l0,0
		l0.1-0.1l0.1-0.1l0.1-0.1l0.1-0.1l0,0l0,0l0,0l0,0v0l0,0l0,0l0,0l0,0l0,0l0,0l0,0l0,0l0,0l0,0l0,0l0,0l0,0l0,0l0,0l0,0l0,0l0,0l0,0
		l0,0l0,0l0,0l0,0l0,0l0,0l0,0l0,0l0,0l0,0l0,0l0,0l0,0l0,0l0.1-0.1l0.1-0.1l0.1-0.1l0.1-0.1l0.1-0.1l0.1-0.1l0.1-0.1l0.1-0.1
		l0.1-0.1l0.1-0.1l0.1-0.1l0.1-0.1l0.1-0.1l0.1-0.1l0.1-0.1l0.1-0.1l0.1-0.1l0.1-0.1l0.1-0.1l0.1-0.1L150.4,9l-6.7-2.9l0.8-0.7
		c0,0,0,0,0,0c0,0,0,0,0,0h0h0c0,0,0,0,0,0l8.4,1.5l0,0l0,0h0l0,0l0,0v0l0,0l0,0h0v0v0h0v0v0l0,0v0v0h0v0v0h0l0,0h0v0h0l0,0v0l0,0v0
		l0,0l0,0l0,0l0,0l0,0l0,0h0l0,0l0,0l0,0l0,0v0l0,0l0,0l0,0l0,0l0,0l0,0l0,0l0,0l0,0l0,0l0,0l0,0l0,0l0,0l0,0l0,0l0,0l0,0l0,0l0,0
		l0,0l0,0l0,0l0,0l0,0l0,0l0,0l0,0l0,0l0.1-0.1l0,0l0,0l0,0l0,0l0,0l0,0l0,0l0,0l0,0l0.4-0.4l0,0l0,0l0,0l0,0l0,0h0h0l0,0l0,0l0,0
		l0,0l0,0l0,0h0h0l0,0h0h0l0.1-0.1l0,0l0,0l0,0l0,0l0,0l0,0l0,0h0l0,0l0,0l0,0h0l0,0l0,0h0l0,0l0,0h0l0,0l0,0h0l0,0l0,0l0,0l0,0l0,0
		l0,0l0,0l0,0l0,0l0,0l0,0l0,0l0,0l0,0l0,0l0,0l0,0l0,0l0,0h0.1l0,0l0,0l0,0l0,0l0,0l0,0l0,0l0,0l0,0l0,0l0,0l0,0l0,0l0,0l0,0l0,0
		l0,0l0,0l0,0l0,0l0,0l0,0l0,0l0,0l0,0l0,0l0,0l0,0l0,0l0,0l0,0l0,0l0,0l0,0l0,0l0,0l0,0l0,0l0,0l0,0l0,0l0,0l0,0l0,0l0,0l0,0l0,0
		l0,0l0,0l0,0l0,0l0,0l0,0l0,0l0,0l0,0l0,0l0,0l0,0l0,0l0,0l0,0l0,0l0,0l0,0l0,0l0,0l0,0l0,0l0,0l0,0l0,0l0,0l0,0l0,0l0,0l0,0l0,0
		l0,0l0,0l0,0l0,0l0,0l0,0l0,0l0,0l0,0l0,0l0,0l0,0l0,0l0,0l0,0l0,0l0,0l0,0l0,0l0,0l0,0l0,0l0,0l0,0l0,0l0,0l0,0l0,0l0,0l0,0l0,0
		l0,0l0,0l0,0l0,0l0,0l0,0l0,0l0,0l0,0l0,0l0,0l0,0l0,0l0,0l0,0l0,0l0,0l0,0l0,0l0,0l0,0l0,0l0,0l0,0l0,0l0,0l0,0l0,0l0,0l0,0l0,0
		l0,0l0,0l0,0l0,0l0,0l0,0l0,0l0,0l0,0l0,0l0,0l0,0l0,0l0,0l0,0l0,0l0,0l0,0l0,0l0,0l0,0l0,0l0,0l0,0l0,0l0,0l0,0l0,0l0,0l0,0l0,0
		l0,0l0,0l0,0l0,0h0h0v0l0,0l0,0l0,0h0h0l0,0l0,0h0l0,0h0l0,0l0,0l0,0l0,0l0,0h0l0,0l0,0l0,0h0h0l0,0l0,0l0,0l0,0l0,0h0l0,0l0,0l0,0
		l0,0l0,0l0,0l0,0l0,0l0,0l0,0l0,0l0,0l0,0l0,0l0,0l0,0l0,0l0,0l0,0l0,0l0,0l0,0l0,0l0,0l0,0l0,0l0,0l0,0h0l0,0l0,0l0,0h0l0,0l0,0
		l0,0l0,0h0l2.2,0.4l3.5-3.1l0,0l0,0l0,0l0,0h0l0,0l0,0l0,0l0,0l0,0l0,0l0,0l0.3,1h0l0,0l0,0l0,0l0,0l0,0l0,0l0,0l0,0l0,0l0,0l0,0
		l0,0l0,0l0,0l0,0l0,0l0,0l0,0l0,0h0l0,0l0,0l0,0l0,0l0,0l0,0h0l0,0l0,0l0,0l0,0l0,0l0,0h0l0,0l0,0h0l0,0h0l0,0l0,0h0l0,0l0,0l0,0
		l0,0l0,0l0,0l0,0l0,0h0l0,0h0l0,0l0,0h0l0,0l0,0h0l0,0h0l0,0h0h0h0l0,0h0l0,0l0,0h0l0,0h0h0l0,0l0,0h0l0,0h0l0,0h0h0l0,0h0h0l0,0h0
		l0,0h0h0h0h0h0h0h0h0h0h0h0h0h0h0h0h0h0h0h0h0h0h0l0,0l0,0h0h0h0h0h0h0h0h0l0,0h0.1l0,0l0,0l0,0l0,0h0l0,0h0h0.1l0,0l0,0h0h0.3l0,0
		l0,0h0l0,0h0l0,0l0,0h0l0,0h0l0,0h0l0,0h0l0,0l0,0l0,0h0l0,0l0,0l0,0l0,0l0,0l0,0l0,0h0.1l0,0l0,0l0,0l0,0l0,0l0,0l0,0l0,0l0,0l0,0
		l0,0l0,0v0l0,0l0,0l0,0v0l0,0l0,0l0,0v0l0,0L164,2.6L164,2.6L164,2.6L164,2.6L164,2.6z"/>
</g>
</svg>
