<?xml version="1.0" encoding="utf-8"?>
<!-- Generator: Adobe Illustrator 25.4.1, SVG Export Plug-In . SVG Version: 6.00 Build 0)  -->
<svg version="1.1" id="Layer_1" xmlns="http://www.w3.org/2000/svg" xmlns:xlink="http://www.w3.org/1999/xlink" x="0px" y="0px"
	 viewBox="0 0 426 80" style="enable-background:new 0 0 426 80;" xml:space="preserve">
<style type="text/css">
	.st0{fill:#211F1F;}
	.st1{fill-rule:evenodd;clip-rule:evenodd;fill:#CFD1D1;}
</style>
<g>
	<path class="st0" d="M199.4,49.7c-3.9,0-7.1-1.1-9.7-3.2c-2.5-2-4.4-4.7-5.4-7.7c-1-2.9-1.5-6-1.4-9.1l0,0c0.1-3,0.5-5.9,1.2-8.8
		c1-4.1,2.5-7.7,4.4-10.8c1.9-3,4.4-5.5,7.4-7.4C198.9,0.9,202.5,0,206,0c5.1,0,9.3,1.9,12.4,5.7c3,3.7,4.5,8.7,4.4,14.8
		c-0.1,5-1.2,9.9-3.2,14.4c-2.1,4.7-4.9,8.4-8.3,10.9C207.9,48.4,203.7,49.7,199.4,49.7z M193.2,29.6c-0.1,2.8,0.6,5.2,2,7.1
		c1.2,1.7,3.1,2.7,5.2,2.7c1.8,0,3.6-0.7,5.3-2.2c1.8-1.5,3.4-3.9,4.6-7.1c1.2-3,1.9-6.2,2-9.5c0.1-3.3-0.6-5.8-2-7.6
		c-1.3-1.7-3-2.6-5.1-2.6c-3.4,0-6.1,1.9-8.4,5.8C194.5,20.2,193.2,24.9,193.2,29.6"/>
	<path class="st0" d="M260.8,48.9h-9.8l5-25.7l-10.1,25.7h-9.6l-0.5-26.2l-4.6,26.2h-9.7l9.3-48.1h13.6l0.5,26.2l10.6-26.2h13.7
		L260.8,48.9z"/>
	<path class="st0" d="M299.1,48.9h-9.3l-8.6-26.7l-5.2,26.7h-9.9l9.3-48.1h9.3l8.6,26.6l5.2-26.6h9.9L299.1,48.9z"/>
	<path class="st0" d="M314.7,48.9h-10.5l9.3-48.1h10.5L314.7,48.9z"/>
	<path class="st0" d="M367.9,48.9h-10.1l-1.1-10h-13.2l-4.8,10h-11l23.7-48.1h10.8L367.9,48.9z M348.4,28.7h7.3l-1.3-12.4
		L348.4,28.7z"/>
	<path class="st0" d="M379.9,48.9h-10.5l9.3-48.1h10.5L379.9,48.9z"/>
	<path class="st0" d="M422.3,48.9h-11.2l-0.2-1c-0.6-2.5-1.9-6.5-3.8-11.9c-1.2-3.4-2.3-4.8-3-5.4c-0.3-0.2-1-0.6-3.1-0.6h-2.2
		l-3.7,18.8h-10.5l9.3-48.1h18.1c3.1,0,5.5,0.4,7.3,1.2c1.9,0.9,3.4,2.4,4.5,4.5c1.1,2.1,1.6,4.6,1.5,7.5c-0.1,4.1-1.2,7.6-3.4,10.3
		c-1.8,2.3-4.4,3.9-7.6,4.7c0.6,0.9,1.2,1.9,1.6,2.8c1.7,3.6,3.6,8.8,5.7,15.3L422.3,48.9z M400.7,20.7h2.6c5,0,7.1-0.4,7.9-0.8
		c1.1-0.5,2.1-1.3,2.7-2.3c0.7-1,1-2.2,1.1-3.4c0-1.6-0.6-2.3-1.1-2.7c-0.1-0.1-0.8-0.5-3.7-0.5h-7.6L400.7,20.7z"/>
	<polygon class="st0" points="409.3,79.6 409.3,58.7 413.6,58.7 413.6,76.1 424.1,76.1 424.1,79.6 	"/>
	<rect x="188.7" y="58.5" class="st0" width="4.3" height="21.1"/>
	<polygon class="st0" points="197,79.6 197,58.5 201.1,58.5 209.8,72.7 209.8,58.5 213.8,58.5 213.8,79.6 209.5,79.6 201,65.8 
		201,79.6 	"/>
	<polygon class="st0" points="223,79.6 223,62.1 216.8,62.1 216.8,58.5 233.5,58.5 233.5,62.1 227.3,62.1 227.3,79.6 	"/>
	<polygon class="st0" points="236.3,79.6 236.3,58.5 251.9,58.5 251.9,62.1 240.5,62.1 240.5,66.8 251.1,66.8 251.1,70.3 
		240.5,70.3 240.5,76.1 252.3,76.1 252.3,79.6 	"/>
	<path class="st0" d="M260.2,67.4h3.2c2,0,3.3-0.1,3.8-0.3c0.5-0.1,0.9-0.5,1.2-0.9c0.3-0.5,0.5-1,0.4-1.6c0-0.6-0.2-1.2-0.6-1.7
		c-0.4-0.5-1-0.8-1.6-0.8c-0.3,0-1.4-0.1-3.1-0.1h-3.3V67.4z M255.9,79.6V58.5h9c2.3,0,3.9,0.2,4.9,0.6c1,0.4,1.9,1.1,2.5,2
		c0.6,1,0.9,2.1,0.9,3.3c0,1.6-0.5,2.9-1.4,3.9c-0.9,1-2.3,1.7-4.2,1.9c0.8,0.5,1.6,1.1,2.3,1.8c0.9,1.1,1.7,2.2,2.4,3.4l2.6,4.1
		h-5.1l-3.1-4.6c-0.7-1.1-1.4-2.1-2.3-3.1c-0.4-0.4-0.8-0.7-1.3-0.9c-0.7-0.2-1.4-0.3-2.2-0.2h-0.9v8.8L255.9,79.6z"/>
	<polygon class="st0" points="277.2,79.6 277.2,58.5 281.3,58.5 290,72.7 290,58.5 293.9,58.5 293.9,79.6 289.7,79.6 281.1,65.8 
		281.1,79.6 	"/>
	<path class="st0" d="M309.6,71.3l-2.9-7.8l-2.8,7.8H309.6z M317.5,79.6h-4.6l-1.8-4.8h-8.5l-1.8,4.8h-4.5l8.2-21.1h4.5L317.5,79.6z
		"/>
	<polygon class="st0" points="322.3,79.6 322.3,62.1 316,62.1 316,58.5 332.8,58.5 332.8,62.1 326.6,62.1 326.6,79.6 	"/>
	<rect x="335.4" y="58.5" class="st0" width="4.3" height="21.1"/>
	<path class="st0" d="M347.2,69.1c0,2.4,0.6,4.2,1.7,5.4c2.1,2.3,5.7,2.5,8.1,0.4c0.1-0.1,0.2-0.2,0.3-0.3c1.1-1.2,1.6-3.1,1.6-5.5
		c0-2.4-0.5-4.2-1.6-5.4c-1.1-1.2-2.5-1.8-4.2-1.8s-3.2,0.6-4.3,1.8C347.7,64.8,347.2,66.6,347.2,69.1 M342.8,69.2
		c0-2.1,0.3-4,1-5.4c0.5-1.1,1.1-2.1,2-2.9c0.8-0.8,1.7-1.5,2.7-1.9c1.4-0.6,3-0.9,4.5-0.8c3.1,0,5.6,1,7.5,2.9
		c1.9,1.9,2.8,4.6,2.8,8.1c0,3.4-0.9,6.1-2.8,8s-4.3,2.9-7.4,2.9c-3.1,0-5.6-1-7.5-2.9S342.8,72.6,342.8,69.2L342.8,69.2z"/>
	<polygon class="st0" points="366.6,79.6 366.6,58.5 370.8,58.5 379.4,72.7 379.4,58.5 383.4,58.5 383.4,79.6 379.1,79.6 
		370.6,65.8 370.6,79.6 	"/>
	<path class="st0" d="M399.1,71.3l-2.9-7.8l-2.8,7.8H399.1z M406.9,79.6h-4.6l-1.8-4.8H392l-1.8,4.8h-4.5l8.2-21.1h4.5L406.9,79.6z"
		/>
	<path class="st1" d="M83.4,70.3c2.4,1.2,5,1.1,7.5-0.7c2.8-2.1,3.3-5.1,2.4-8.2C90,64.3,86.7,67.3,83.4,70.3L83.4,70.3z"/>
	<path class="st1" d="M89.5,54.9h-15c-0.9,3.1,0.5,6.9,3.2,10.4c0.9,1.1,1.8,2.1,2.8,3l0.2-0.1c0.9-0.8,2-1.6,2.9-2.4
		c2.7-2.5,5.5-4.9,8.3-7.4c-0.6-1-1.2-1.9-1.9-2.8C89.9,55.4,89.7,55.1,89.5,54.9z"/>
	<path class="st1" d="M104.5,56.7c0.3,1,1.1,1.8,2.3,1.6c0.6-0.1,1.1-0.4,1.5-0.7c0.2-0.2,0.3-0.2,0.5,0c0.4,0.6,0.4,0.6-0.1,1
		c-2.4,1.9-4.8,3.8-7.2,5.7c-0.2,0.2-0.4,0.2-0.5-0.1c0,0,0,0,0,0c-0.4-0.5-0.4-0.5,0-0.9c0.6-0.7,0.9-1.6,1-2.5
		c0-0.7,0-1.4-0.2-2.1c-0.2-1.3-0.5-2.6-0.9-3.8h-0.4l-2.2,2l-0.5,0.5c1.3,4.9-0.1,10.1-5.1,14.1c-4.6,3.7-9.5,4.1-13.8,2.2
		l-0.1,0.1c-15.3,8.5-18.6-7.2-8.3-17.9c-7.3,13.5-4.2,20.5,5,15.9c0.1,0,0.2-0.1,0.3-0.1c-0.9-0.8-1.8-1.6-2.5-2.6
		c-3.4-4.3-4.4-9.5-2.2-14.1H35L0,77.7l129,0L142.1,55H104C104.1,55.5,104.3,56.1,104.5,56.7z"/>
	<path class="st1" d="M129.7,29.6L129.7,29.6l0.8,1c1,1.3,2,2.6,3,3.8c0.3,0.3,0.6,0.6,1,0.8c0.7,0.4,1.4,0.3,2,0
		c0.6-0.3,1.1-0.7,1.7-1c0.1-0.1,0.2-0.1,0.3,0c0.5,0.6,0.5,0.6-0.1,1c-3.5,2.7-6.9,5.4-10.4,8.1c-0.3,0.2-0.4,0.2-0.6-0.1
		c-0.4-0.5-0.4-0.5,0.1-0.9c0.5-0.4,1-0.9,1.4-1.4c0.6-0.8,0.4-1.7,0-2.4c-1.1-1.7-2.5-3.3-3.8-4.9l-0.1-0.2l0,0
		c-2.8,2.4-5.6,4.8-8.5,7.2l0,0c1.9,1,3.7,2.1,5.6,3c0.7,0.4,1.5,0.5,2.2,0.5c0.6-0.1,1.2-0.3,1.7-0.7c0.1-0.1,0.2-0.1,0.3,0
		c0.6,0.7,0.6,0.7-0.1,1.2c-2.3,1.8-4.7,3.7-7,5.5l25,0l12.9-22.6H132C131.2,28.3,130.5,28.9,129.7,29.6z"/>
	<path class="st1" d="M75.3,49.5c6.5-5,13.3-4,18,0.7h6.3c-0.2-0.9-0.4-1.7-0.7-2.6c-0.3-1.1-0.6-2.2-0.9-3.3
		c-0.4-1.6-0.9-3.2-1.2-4.7s-0.8-3.2-1.3-4.8c-0.2-0.6,0-0.9,0.4-1.2c1-0.7,2-1.5,3-2.3c0.2-0.1,0.3-0.2,0.5-0.1
		c1.4,0.7,2.7,1.5,4.1,2.2l2.9,1.5c1.4,0.7,2.7,1.5,4.1,2.2c0.8,0.5,1.7,0.9,2.5,1.3l0.6,0.3l0.2,0.1l0.2,0.1
		c3.1-2.7,6.2-5.4,9.4-8.1l0,0l-0.7-0.9l-2-2.6H80.3L42.8,50.2l31.6,0C74.7,50,75,49.8,75.3,49.5z"/>
	<path class="st1" d="M117.3,50.3c0.1-0.2,0.3-0.4,0.4-0.7c0.2-0.5-0.1-1.3-0.6-1.6c-1-0.7-2.1-1.3-3.1-1.9c-0.6-0.3-1.1-0.7-1.7-1
		l-0.3-0.2l-0.1,0c-2.1,1.8-4.1,3.6-6.2,5.4L117.3,50.3z"/>
	<path class="st1" d="M79.2,50.3h3.5C81.5,50,80.3,50,79.2,50.3z"/>
	<path class="st1" d="M108.7,43.1c-3.1-1.8-6.1-3.6-9.2-5.4c0.3,1.3,0.6,2.5,0.9,3.8c0.4,1.7,0.9,3.5,1.3,5.2
		c0.2,0.8,0.5,1.7,0.7,2.5l0,0c2.2-1.9,4.5-3.9,6.7-5.8l-0.1,0L108.7,43.1z"/>
	<path class="st1" d="M125.1,0.4L87.4,23.2l29.6-0.1l-0.4-0.5c-0.3-0.3-0.6-0.6-1-0.9c-0.8-0.5-1.5-0.2-2.2,0.2
		c-0.5,0.3-1,0.6-1.4,0.9c-0.1,0.1-0.2,0.1-0.3,0c-0.5-0.6-0.5-0.6,0.1-1.1c3.5-2.7,6.9-5.4,10.3-8.1c0.3-0.2,0.4-0.2,0.5,0.1
		c0,0.1,0.1,0.2,0.2,0.2c0.2,0.2,0.1,0.3-0.1,0.5c-0.6,0.5-1.1,1-1.5,1.6c-0.6,0.8-0.5,1.6,0,2.4c0.3,0.4,0.6,0.9,0.9,1.2l2.7,3.4
		l8,0c2.3-1.9,4.5-3.8,6.8-5.8c0,1.5-0.2,2.8-0.2,4.3l-1.7,1.4l22.5,0l13.1-22.7L125.1,0.4z M158.4,2.9L158.4,2.9L158.4,2.9
		L158.4,2.9L158.4,2.9L158.4,2.9L158.4,2.9L158.4,2.9L158.4,2.9L158.4,2.9L158.4,2.9L158.4,2.9L158.4,2.9L158.4,2.9L158.4,2.9
		L158.4,2.9L158.4,2.9L158.4,2.9L158.4,2.9L158.4,2.9L158.4,2.9L158.4,2.9L158.4,2.9L158.4,2.9v0.1v0l0,0l0,0l0,0v0l0,0v0l0,0v0l0,0
		v0v0v0l0,0l0,0v0v0v0v0v0l0,0l0,0l0,0l0,0l0,0v0v0v0l0,0v0v0l0,0v0l0,0v0v0v0v0v0v0l0,0v0v0v0v0v0l0,0v0l0,0v0v0l0,0l0,0l0,0v0l0,0
		l0,0l0,0l0,0l0,0v0l0,0l0,0v0l0,0l0,0v0l0,0l0,0l0,0l0,0l0,0l0,0l0,0l0,0l0,0l0,0l0,0l0,0l0,0l0,0v0l0,0l0,0l0,0l0,0l0,0l0,0v0l0,0
		l0,0v0l0,0l0,0l0,0l0,0v0l0,0l0,0v0l0,0l0,0l0,0l0,0l0,0l0,0l0,0l0,0l0,0l0,0l0,0l0,0l0,0l0,0l0,0l0,0v0l0,0l0,0l0,0l0,0l0,0l0,0
		l0,0l0,0l0,0l0,0l0,0l0,0l0,0l0,0l0,0v0l0,0l0,0l0,0l0,0l0,0l0,0l0,0l0,0l0,0l0,0l0,0l0,0l0,0l-3.4,3l0.1,2.2v0l0,0l0,0l0,0l0,0v0
		l0,0l0,0l0,0l0,0l0,0l0,0l0,0l0,0l0,0l0,0l0,0l0,0l0,0l0,0l0,0l0,0l0,0l0,0l0,0l0,0l0,0l0,0l0,0l0,0l0,0l0,0l0,0l0,0l0,0l0,0l0,0
		l0,0l0,0l0,0l0,0l0,0l0,0l0,0l0,0l0,0l0,0v0v0l0,0l0,0l0,0l0,0l0,0l0,0l0,0l0,0l0,0l0,0l0,0l0,0h0l0,0l0,0h0v0l0,0v0l0,0h0l0,0h0
		l0,0l0,0h0l0,0l0,0l0,0l0,0l0,0h0l0,0h0l0,0h0l0,0h0l0,0l0,0l0,0l0,0l0,0l0,0h0l0,0l0,0l0,0h0l0,0l0,0l0,0l0,0l0,0l0,0l0,0l0,0l0,0
		l0,0l0,0l0,0l0,0l0,0l0,0l0,0l0,0l0,0h0.1l0,0h0l0,0l0,0l0,0l0,0l0,0l0,0l0,0l0,0l0,0l0,0l0,0l0,0l0,0l0,0l0,0l0,0l0,0l0,0l0,0l0,0
		l0,0l0,0l0,0l0,0l0,0l0,0l0,0l0,0l0,0l0,0l0,0l0,0l0,0l0,0l0,0l0,0l0,0l0,0l0,0l0,0l0,0l0,0l0,0l0,0l0,0l0,0l0,0l0,0l0,0l0,0l0,0
		l0,0l0,0l0,0l0,0l0,0l0,0l0,0l0,0l0,0l0,0l0,0l0,0l0,0l0,0l0,0l0,0l0,0l0,0l0,0l0,0l0,0l0,0l0,0l0,0l0,0l0,0l0,0l0,0l0,0l0,0l0,0
		l0,0l0,0l0,0l0,0l0,0l0,0l0,0l0,0l0,0h0l0,0l0,0l0,0l0,0l0,0l0,0l0,0l0,0l0,0l0,0l0,0l0,0l0,0l0,0l0,0l0,0l0,0l0,0l0,0l0,0l0,0l0,0
		l0,0l0,0l0,0l0,0l0,0l0,0l0,0l0,0l0,0l0,0l0,0l0,0l0,0l0,0l0,0l0,0l0,0l0,0l0,0l0,0l0,0l0,0l0,0l0,0l0,0l0,0l0,0l0,0l0,0l-0.1,0.1
		h0h0l0,0l0,0h0v0l0,0h0h0h0v0l0,0v0l0,0l0,0l0,0l0,0l0,0l0,0l0,0l0,0l0,0l0,0l0,0l0,0l0,0l0,0l0,0l-0.1,0l0,0l0,0l0,0l0,0l0,0l0,0
		l0,0l0,0l0,0l0,0l0,0l0,0l0,0l0,0l0,0l0,0l0,0l0,0l0,0l0,0l0,0l0,0l0,0l0,0l0,0l0,0l0,0l0,0l0,0l0,0h0l0,0h-0.1l0,0l-0.1,0.9h0h0h0
		l0,0l0,0h0h0h0l0,0h0h0h0h0h0h0h0h0h0l0,0l0,0h0h0h0h0h0l0,0l0.5,8.2c0,0,0,0,0,0c0,0,0,0,0,0c0,0,0,0,0,0c0,0,0,0,0,0c0,0,0,0,0,0
		l-0.8,0.9l-2-6.8l-1.5-2.2l-0.1,0.1l-0.1,0.1l-0.1,0l-0.1,0.1l-0.1,0l-0.1,0.1l-0.1,0.1l-0.1,0.1l-0.1,0.1l-0.1,0l-0.1,0l-0.1,0.1
		l-0.1,0l-0.1,0.1l-0.1,0l-0.1,0.1l-0.1,0l-0.1,0.1l-0.1,0l-0.1,0l0,0l0,0l0,0l0,0l0,0l0,0l0,0l0,0l0,0l0,0l0,0l0,0l0,0l0,0l0,0l0,0
		l0,0l0,0l0,0l0,0l0,0l0,0l0,0l0,0l0,0l0,0l0,0h0l0,0l0,0l0,0l0,0h0l0,0h0l0,0l0,0l-0.1,0l-0.1,0.1l-0.2,0.1l-0.1,0.1l0,0h0l0,0h0
		l0,0h0h0h0l0,0l0,0h0h0h0l0,0h0h0h0l0,0h0h0h0l0,0h0h0l0,0l0.2,4.4v0l0,0v0.3l0,0v0l0,0l0,0v0l0,0l0,0l0,0l0,0l0,0l0,0l0,0l0,0l0,0
		l0,0l0,0l0,0l0,0l0,0l0,0l0,0l0,0l0,0l0,0l0,0l0,0l0,0l0,0l0,0l0,0l0,0l0,0l0,0l0,0l0,0l-0.8,0.7l-1.6-3.8h0l0,0l0,0l0,0l0,0l0,0
		l0,0l0,0l0,0l0,0h0l0,0l0,0l0,0l0,0l0,0l0,0h0l0,0l0,0h0l0,0h0l0,0l0,0h0l0,0h0l0,0l0,0h0l0,0h0l0,0l0,0h0h0l0,0h0l-0.1-0.1l0,0h0
		h0h0l0,0h0h0h0h0h0h0h0h0h0h0h0h0h0h0h0l0,0h0h0h0h0h0l-0.4,0.7h0h0h0h0h0l0,0l0,0l0,0l0,0l0,0l0,0l0,0l0,0l0,0l0,0l0,0l0,0l0,0
		l0,0l0,0l0,0h0l0,0l0,0l0,0l0,0l0,0l0,0l0,0h0l0,0h0l0,0h0l0,0l0,0l0,0l-0.1-0.1l0,0l0,0h0l0,0h0l0,0h0l0,0h0l0,0h0l0,0l0,0l0,0
		l0,0l0,0l0,0l0,0l0,0l0,0v0l0,0l0,0l0,0l0,0l0,0l0,0l0,0l0,0l0,0l0,0l0,0l0,0l0,0l-0.1-0.1l0,0l0,0l0,0l0,0l0,0l0,0l0,0l0,0l0,0
		l0,0l0,0l0,0v0l0,0v0l0,0l0,0l0,0l0,0l0,0l0,0l0,0l0,0l0,0l0,0v0l0,0l0,0l0,0l0,0l0,0l0,0l0,0l0,0l0,0l0,0l0,0l0,0v0l0,0l0,0v0l0,0
		v0h0v0l0,0v0l0,0l0.2-0.2v0l0,0v0l0,0h0v0h0v0l0,0h0v0h0l0,0l0,0h0l0,0l0,0h0l0,0l0,0l0-0.1l0,0v0l0,0l0,0l0,0l0,0l0,0l0,0l0,0v0
		l0,0l0,0l0,0l0,0l0,0l0,0h0l0,0l0,0l0,0l0,0h0l0,0l0,0l0,0l0,0l0,0l0,0h0l0,0l0,0l0,0h0l0,0l0,0l0,0l0,0l0,0l0,0l-3.2-2.5l0.8-0.7
		l0,0l0,0l0,0l0,0l0,0l0,0l0,0l0,0l0,0h0l0,0l0,0l0,0h0l0,0h0.1l0,0h0.1l4.3,0.7l0,0l0,0l0,0v0l0,0l0,0l0,0v0l0,0l0,0l0,0l0,0l0,0
		l0,0l0,0l0,0l0,0v0l0,0l0,0l0.2-0.1v0l0,0l0,0l0,0l0.1-0.1l0.1-0.1L145,13l0.1-0.1l0,0l0,0l0,0l0,0v0l0,0l0,0l0,0l0,0l0,0l0,0l0,0
		l0,0l0,0l0,0l0,0l0,0l0,0l0,0l0,0l0,0l0,0l0,0l0,0l0,0l0,0l0,0l0,0l0,0l0,0l0,0l0,0l0,0l0,0l0,0l0,0l0,0l0,0l0.1-0.1l0.1,0l0.1-0.1
		l0.1-0.1l0.1-0.1l0.1-0.1l0.1-0.1l0.1-0.1l0.1-0.1l0.1,0l0.1-0.1l0.1,0l0.1-0.1l0.1-0.1l0.1-0.1l0.1-0.1l0.1-0.1l0.1,0l0.1-0.1
		l0.1-0.1l-2-1.7l-6.5-2.8l0.8-0.7c0,0,0,0,0,0c0,0,0,0,0,0h0h0c0,0,0,0,0,0l8.1,1.5l0,0l0,0h0l0,0l0,0v0l0,0l0,0h0v0v0h0v0v0l0,0v0
		v0h0v0v0h0l0,0h0v0h0l0,0v0l0,0v0l0,0l0,0l0,0l0,0l0,0l0,0h0l0,0l0,0l0,0l0,0v0l0,0l0,0l0,0l0,0l0,0l0,0l0,0l0,0l0,0l0,0l0,0l0,0
		l0,0l0,0l0,0l0,0l0,0l0,0l0,0l0,0l0,0l0,0l0,0l0,0l0,0l0,0l0,0l0,0l0,0l0-0.1l0,0l0,0l0,0l0,0l0,0l0,0l0,0l0,0l0,0l0.4-0.4l0,0l0,0
		l0,0l0,0l0,0h0h0l0,0l0,0l0,0l0,0l0,0l0,0h0h0l0,0h0h0l0.1-0.1l0,0l0,0l0,0l0,0l0,0l0,0l0,0h0l0,0l0,0l0,0h0l0,0l0,0h0l0,0l0,0h0
		l0,0l0,0h0l0,0l0,0l0,0l0,0l0,0l0,0l0,0l0,0l0,0l0,0l0,0l0,0l0,0l0,0l0,0l0,0l0,0l0,0l0,0h0.1l0,0l0,0l0,0l0,0l0,0l0,0l0,0l0,0l0,0
		l0,0l0,0l0,0l0,0l0,0l0,0l0,0l0,0l0,0l0,0l0,0l0,0l0,0l0,0l0,0l0,0l0,0l0,0l0,0l0,0l0,0l0,0l0,0l0,0l0,0l0,0l0,0l0,0l0,0l0,0l0,0
		l0,0l0,0l0,0l0,0l0,0l0,0l0,0l0,0l0,0l0,0l0,0l0,0l0,0l0,0l0,0l0,0l0,0l0,0l0,0l0,0l0,0l0,0l0,0l0,0l0,0l0,0l0,0l0,0l0,0l0,0l0,0
		l0,0l0,0l0,0l0,0l0,0l0,0l0,0l0,0l0,0l0,0l0,0l0,0l0,0l0,0l0,0l0,0l0,0l0,0l0,0l0,0l0,0l0,0l0,0l0,0l0,0l0,0l0,0l0,0l0,0l0,0l0,0
		l0,0l0,0l0,0l0,0l0,0l0,0l0,0l0,0l0,0l0,0l0,0l0,0l0,0l0,0l0,0l0,0l0,0l0,0l0,0l0,0l0,0l0,0l0,0l0,0l0,0l0,0l0,0l0,0l0,0l0,0l0,0
		l0,0l0,0l0,0l0,0l0,0l0,0l0,0l0,0l0,0l0,0l0,0l0,0l0,0l0,0l0,0l0,0l0,0l0,0l0,0l0,0l0,0l0,0l0,0l0,0l0,0l0,0l0,0l0,0l0,0l0,0l0,0
		l0,0l0,0l0,0l0,0l0,0l0,0l0,0l0,0l0,0l0,0l0,0h0h0v0l0,0l0,0l0,0h0h0l0,0l0,0h0l0,0h0l0,0l0,0l0,0l0,0l0,0h0l0,0l0,0l0,0h0h0l0,0
		l0,0l0,0l0,0l0,0h0l0,0l0,0l0,0l0,0l0,0l0,0l0,0l0,0l0,0l0,0l0,0l0,0l0,0l0,0l0,0l0,0l0,0l0,0l0,0l0,0l0,0l0,0l0,0l0,0l0,0l0,0l0,0
		l0,0h0l0,0l0,0l0,0h0l0,0l0,0l0,0l0,0h0l2.1,0.4l3.4-3l0,0l0,0l0,0l0,0h0l0,0l0,0l0,0l0,0l0,0l0,0l0,0l0.3,1h0l0,0l0,0l0,0l0,0l0,0
		l0,0l0,0l0,0l0,0l0,0l0,0l0,0l0,0l0,0l0,0l0,0l0,0l0,0l0,0h0l0,0l0,0l0,0l0,0l0,0l0,0h0l0,0l0,0l0,0l0,0l0,0l0,0h0l0,0l0,0h0l0,0h0
		l0,0l0,0h0l0,0l0,0l0,0l0,0l0,0l0,0l0,0l0,0h0l0,0h0l0,0l0,0h0l0,0l0,0h0l0,0h0l0,0h0h0h0l0,0h0l0,0l0,0h0l0,0h0h0l0,0l0,0h0l0,0h0
		l0,0h0h0l0,0h0h0l0,0h0l0,0h0h0h0h0h0h0h0h0h0h0h0h0h0h0h0h0h0h0h0h0h0h0l0,0l0,0h0h0h0h0h0h0h0h0l0,0h0.1l0,0l0,0l0,0l0,0h0l0,0h0
		h0.1l0,0l0,0h0h0.2l0,0l0,0h0l0,0h0l0,0l0,0h0l0,0h0l0,0h0l0,0h0l0,0l0,0l0,0h0l0,0l0,0l0,0l0,0l0,0l0,0l0,0h0.1l0,0l0,0l0,0l0,0
		l0,0l0,0l0,0l0,0l0,0l0,0l0,0l0,0v0l0,0l0,0l0,0v0l0,0l0,0l0,0v0l0,0L158.4,2.9L158.4,2.9L158.4,2.9L158.4,2.9L158.4,2.9z"/>
</g>
</svg>
