<?xml version="1.0" encoding="utf-8"?>
<!-- Generator: Adobe Illustrator 25.4.1, SVG Export Plug-In . SVG Version: 6.00 Build 0)  -->
<svg version="1.1" id="Layer_1" xmlns="http://www.w3.org/2000/svg" xmlns:xlink="http://www.w3.org/1999/xlink" x="0px" y="0px"
	 viewBox="0 0 309.68 80" style="enable-background:new 0 0 309.68 80;" xml:space="preserve">
<style type="text/css">
	.st0{fill:#727171;}
	.st1{fill:#E60013;}
</style>
<g>
	<path id="_58848160" class="st0" d="M257.86,76.26c-1.54,2.78-4.55,3.73-7.57,3.73c-3.98,0-7.67-1.64-8.84-5.77
		c-0.27-0.9-0.3-1.81-0.38-2.74h4.39c0.07,0.63,0.17,1.24,0.41,1.84c0.78,1.91,2.51,2.71,4.49,2.71c1.51,0,3.78-0.64,3.78-2.51
		c0-0.4-0.13-0.67-0.3-1.03c-0.5-1.01-2.34-1.72-3.32-2.11c-2.01-0.84-4.55-1.75-6.26-3.06c-1.61-1.24-2.41-2.98-2.41-4.99
		c0-4.55,3.96-6.94,8.11-6.94c2.98,0,6.13,1.28,7.44,4.16c0.5,1.07,0.63,2.08,0.71,3.25h-4.39c0.03-2.21-1.78-3.49-3.85-3.49
		c-1.48,0-3.46,0.81-3.46,2.56c0,1.67,2.08,2.28,3.36,2.78c2.01,0.8,4.83,1.7,6.57,2.95c1.74,1.24,2.44,3.02,2.44,5.13
		C258.76,73.95,258.46,75.19,257.86,76.26L257.86,76.26L257.86,76.26z M229.01,59.74v5.57h9.41v3.88h-9.41v6.44h10.72v3.88h-15.29
		l0,0V55.85h14.92v3.89H229.01z M201.58,55.85h4.87l9.62,16.66V55.85h4.32v23.67h-4.56l0,0l-9.92-16.65v16.65h-4.33L201.58,55.85z
		 M192.94,55.85h4.56v23.67h-4.56V55.85z M190.26,75.63v3.88H175.3l0,0V55.85h4.66v19.78H190.26z M167.73,79.51l-4.83-9.05l-3.28,0
		v9.05l-4.55,0V55.85h6.4c1.91,0,3.93-0.06,5.73,0.61c2.98,1.08,4.6,3.56,4.6,6.67c0,3.02-1.44,5.3-4.19,6.57l5.43,9.82
		L167.73,79.51L167.73,79.51L167.73,79.51L167.73,79.51z M165.31,60.18c-1.01-0.47-2.41-0.44-3.52-0.44h-2.18v6.84h2.98
		c2.41,0,4.53-0.67,4.53-3.52C167.13,61.75,166.53,60.71,165.31,60.18L165.31,60.18z M146.41,55.85h4.55v23.67h-4.55V55.85z
		 M139.27,79.51l-1.48-4.93h-8.35l-1.47,4.93h-4.69l8-23.67h4.63l8.05,23.67H139.27L139.27,79.51L139.27,79.51L139.27,79.51z
		 M133.61,61.05l-3.02,9.64h6.07L133.61,61.05z M107.92,79.53l-1.48-4.93H98.1l-1.48,4.93h-4.69l8.01-23.66l4.62,0l8.05,23.66
		L107.92,79.53L107.92,79.53L107.92,79.53L107.92,79.53z M102.25,61.07l-3.02,9.64h6.08L102.25,61.07z M71.44,55.87h4.86l9.62,16.66
		V55.87h4.32v23.66h-4.55l0,0l-9.93-16.66v16.66h-4.32V55.87z M65.06,79.53l-1.48-4.93h-8.35l-1.47,4.93h-4.69l8.01-23.66l4.62,0
		l8.05,23.66L65.06,79.53L65.06,79.53L65.06,79.53L65.06,79.53z M59.39,61.07l-3.02,9.64h6.06L59.39,61.07z M42.15,55.87h4.56v23.66
		h-4.56V55.87z M38.13,76.27C36.58,79.06,33.57,80,30.55,80c-3.99,0-7.67-1.65-8.85-5.77c-0.26-0.9-0.3-1.81-0.37-2.76l4.39,0
		c0.07,0.64,0.17,1.24,0.4,1.86c0.77,1.91,2.51,2.71,4.49,2.71c1.51,0,3.79-0.64,3.79-2.51c0-0.41-0.13-0.68-0.3-1.04
		c-0.5-1.01-2.34-1.71-3.32-2.11c-2.01-0.84-4.55-1.74-6.27-3.05c-1.61-1.24-2.41-2.98-2.41-4.99c0-4.57,3.96-6.94,8.11-6.94
		c2.98,0,6.13,1.27,7.44,4.16c0.5,1.07,0.63,2.07,0.7,3.25h-4.39c0.03-2.21-1.78-3.49-3.86-3.49c-1.47,0-3.45,0.81-3.45,2.56
		c0,1.67,2.08,2.27,3.35,2.78c2.02,0.81,4.83,1.71,6.58,2.96c1.75,1.24,2.45,3.01,2.45,5.12C39.03,73.97,38.73,75.2,38.13,76.27
		L38.13,76.27L38.13,76.27z M15.99,79.53l-1.47-4.93H6.17l-1.48,4.93H0l8.01-23.66l4.63,0l8.04,23.66L15.99,79.53L15.99,79.53
		L15.99,79.53L15.99,79.53z M10.33,61.07l-3.02,9.64h6.07L10.33,61.07L10.33,61.07z"/>
	<path id="_58854632" class="st1" d="M250.52,23.5c0,0.83,0.12,1.67,0.45,2.46c1.44,3.58,5.11,5.78,9.78,3.91
		c1.11-0.45,31.98-12.89,31.98-12.89s-12.15,30.83-12.61,31.98c-1.77,4.42,0.36,8.42,3.97,9.76c0.79,0.3,1.64,0.44,2.46,0.43
		c2.95-0.01,5.57-1.76,6.84-5.23c0.19-0.53,15.39-42.28,15.73-43.28c0.2-0.59,0.54-1.99,0.56-2.95c0.01-2.07-0.76-4.01-2.23-5.48
		c-1.47-1.45-3.39-2.21-5.44-2.2c-0.98,0-1.79,0.18-3.01,0.56c-0.74,0.24-39.93,14.83-43.29,16.08
		C252.36,17.89,250.51,20.56,250.52,23.5L250.52,23.5L250.52,23.5z"/>
</g>
</svg>
