<?xml version="1.0" encoding="utf-8"?>
<!-- Generator: Adobe Illustrator 25.4.1, SVG Export Plug-In . SVG Version: 6.00 Build 0)  -->
<svg version="1.1" xmlns="http://www.w3.org/2000/svg" xmlns:xlink="http://www.w3.org/1999/xlink" x="0px" y="0px"
	 viewBox="0 0 62.6 80" style="enable-background:new 0 0 62.6 80;" xml:space="preserve">
<style type="text/css">
	.st0{fill:#185080;}
	.st1{fill:#F6B23A;}
</style>
<g id="Layer_1">
</g>
<g id="Layer_2">
	<path class="st0" d="M17.8,64.1c0,0,2.2,0.1,0.8,2c-1.4,1.9-10,8.7-14.4,10.8c0,0,8.2-0.8,15.9-6.1s11.1-8.2,14.8-8.8
		s13.7-3.4,17.8-9.1c0,0-10,5.3-12.7,5s0.7-2.4,3.4-4.1c2.7-1.7,12.7-12.4,15-22.6c0,0-0.5-0.6-1.4,1.1
		c-0.9,1.7-11.3,13.3-13.6,13.1c-2.4-0.2,0.5-3.2,3.5-7.4C50,33.9,62.2,13.8,62.6,0c0,0-8.3,21.4-17.8,31.8S27,52.6,21.1,54.3
		C15.1,56,5.3,52.7,4.2,59.1c0,0-2.1,2.6-1.3,4.6c0,0,2.8-3.1,4.8-3C7.7,60.7,12.7,65,17.8,64.1z"/>
	<path class="st1" d="M0,79.8c0,0,6.9-0.4,13.4-2.9c6.6-2.5,23-11.5,39.1-4.4c0,0-6.1-0.8-12.9-0.9C29.1,71.4,14.5,81.7,0,79.8z"/>
</g>
</svg>
