<?xml version="1.0" encoding="utf-8"?>
<!-- Generator: Adobe Illustrator 25.4.1, SVG Export Plug-In . SVG Version: 6.00 Build 0)  -->
<svg version="1.1" xmlns="http://www.w3.org/2000/svg" xmlns:xlink="http://www.w3.org/1999/xlink" x="0px" y="0px"
	 viewBox="0 0 390.2 80" style="enable-background:new 0 0 390.2 80;" xml:space="preserve">
<style type="text/css">
	.st0{fill:#185080;}
	.st1{fill:#F6B23A;}
</style>
<g id="Layer_1">
</g>
<g id="Layer_2">
	<g>
		<path class="st0" d="M10.4,40.9H0v12.2h7v-6.6h3.4c1.4,0,2.9,0.7,2.9,3.6c0,1.6-0.4,2.3-0.7,2.7c-0.1,0.2-2.8,6-10.2,6H0v8.9h7
			v-8.9h4.4c0,0,9,0.9,9-8.8S10.4,40.9,10.4,40.9z"/>
		<path class="st1" d="M12.7,52.8c-0.1,0.2-2.8,6-10.2,6H0v-5.7h12.1C12.1,53.2,12.4,53.1,12.7,52.8z"/>
		<rect x="112.9" y="40.9" class="st0" width="6.7" height="26.8"/>
		<path class="st0" d="M44.7,67.7l-8.4-11c3.1-1,5.9-3.1,5.9-7.2c0-9.1-9.2-8.6-9.2-8.6h-3.6h-6.7v26.8h6.7v-10c0.1,0,0.3,0,0.4,0
			l6.6,10H44.7z M29.3,52.8v-6.7c3,0,5.9,0.2,5.9,3.5c0,3.2-3.4,3.2-3.4,3.2H29.3z"/>
		<path class="st0" d="M59.4,40c-8.1,0-14.7,6.4-14.7,14.4c0,7.9,6.6,14.4,14.7,14.4c8.1,0,14.7-6.4,14.7-14.4
			C74.1,46.4,67.5,40,59.4,40z M59.4,61.8c-4.2,0-7.6-3.3-7.6-7.4s3.4-7.4,7.6-7.4c4.2,0,7.6,3.3,7.6,7.4S63.6,61.8,59.4,61.8z"/>
		<polygon class="st0" points="92.2,46.7 92.2,40.9 83.6,40.9 76.9,40.9 76.9,46.7 76.9,51.1 76.9,57.1 76.9,67.7 83.6,67.7 
			83.6,57.1 91.5,57.1 91.5,51.1 83.6,51.1 83.6,46.7 		"/>
		<polygon class="st0" points="101.6,61.8 101.6,40.9 94.9,40.9 94.9,61.8 94.9,67.7 101.6,67.7 110.1,67.7 110.1,61.8 		"/>
		<path class="st0" d="M150.7,52.9h-6.5h-7.4v5.2h5.5c0,0,0.4,1.4-0.6,2.6c-1.3,1.3-2.9,2.1-4.7,2.1c-4.1,0-7.1-4.3-7.1-8.5
			c0-4.2,2.8-8.3,6.9-8.3c2.6,0,5,1.7,6.4,4.1l6.1-2.5c-2.3-4.7-6.9-7.9-12.5-7.9c-7.9,0-14.4,6.6-14.4,14.7
			c0,8.1,6.4,14.7,14.4,14.7c7.9,0,14-6.6,14-14.7C150.8,53.9,150.8,53.4,150.7,52.9z"/>
		<polygon class="st0" points="170.6,40.9 170.6,51.1 160.1,51.1 160.1,40.9 153.3,40.9 153.3,67.7 160.1,67.7 160.1,56.8 
			170.6,56.8 170.6,67.7 177.3,67.7 177.3,40.9 		"/>
		<polygon class="st0" points="198.3,40.9 192.5,40.9 185.8,40.9 180,40.9 180,46.6 185.8,46.6 185.8,67.7 192.5,67.7 192.5,46.6 
			198.3,46.6 		"/>
		<path class="st0" d="M221.6,64.1c0,0,2.2,0.1,0.8,2c-1.4,1.9-10,8.7-14.4,10.8c0,0,8.2-0.8,15.9-6.1s11.1-8.2,14.8-8.8
			s13.7-3.4,17.8-9.1c0,0-10,5.3-12.7,5s0.7-2.4,3.4-4.1c2.7-1.7,12.7-12.4,15-22.6c0,0-0.5-0.6-1.4,1.1
			c-0.9,1.7-11.3,13.3-13.6,13.1s0.5-3.2,3.5-7.4S265.9,13.8,266.3,0c0,0-8.3,21.4-17.8,31.8s-17.8,20.8-23.8,22.5
			c-5.9,1.7-15.8-1.6-16.8,4.8c0,0-2.1,2.6-1.3,4.6c0,0,2.8-3.1,4.8-3C211.4,60.7,216.5,65,221.6,64.1z"/>
		<path class="st1" d="M203.7,79.8c0,0,6.9-0.4,13.4-2.9c6.6-2.5,23-11.5,39.1-4.4c0,0-6.1-0.8-12.9-0.9
			C232.8,71.4,218.3,81.7,203.7,79.8z"/>
		<g>
			<rect x="360.2" y="40.9" class="st0" width="2.4" height="26.8"/>
			<path class="st0" d="M297.2,40.9H296L285,67.7h2.4l3.8-9.3H302l3.8,9.3h2.4L297.2,40.9L297.2,40.9z M292,56.5l4.6-11.3l4.6,11.3
				H292z"/>
			<polygon class="st0" points="266.3,40.9 266.3,43 279.7,43 263.7,67.7 282.3,67.7 282.3,65.4 268.3,65.4 284.1,40.9 			"/>
			<path class="st0" d="M387.5,67.7h2.4l-11.1-26.8l0,0h-1.1l-11.1,26.8h2.4l3.8-9.3h10.8L387.5,67.7z M373.7,56.5l4.6-11.3
				l4.6,11.3H373.7z"/>
			<path class="st0" d="M351.3,53.8L351.3,53.8c1.5-0.6,4.4-2.3,4.4-6c0-5.1-4.2-6.9-7.3-6.9H344h-1.2h-1.2v26.8h2.4v0h4.7
				c2,0,8.2-0.5,8.2-7.2S351.3,53.8,351.3,53.8z M348.4,42.8c0,0,5.1,0.5,5.1,4.9s-4,5.2-4,5.2H344V42.8H348.4z M348.7,65.8H344v-11
				h6.3c3.6,0,4.2,5.4,4.2,5.4C354.5,66.3,348.7,65.8,348.7,65.8z"/>
			<polygon class="st0" points="324.2,63.8 313.8,40 310.3,67.7 312.6,67.7 314.6,47.5 324.2,68.5 333.5,47.5 335.7,67.7 
				338.2,67.7 334.7,40 			"/>
		</g>
	</g>
</g>
</svg>
