<?xml version="1.0" encoding="utf-8"?>
<!-- Generator: Adobe Illustrator 25.4.1, SVG Export Plug-In . SVG Version: 6.00 Build 0)  -->
<svg version="1.1" id="Layer_1" xmlns="http://www.w3.org/2000/svg" xmlns:xlink="http://www.w3.org/1999/xlink" x="0px" y="0px"
	 viewBox="0 0 638.1 80" style="enable-background:new 0 0 638.1 80;" xml:space="preserve">
<style type="text/css">
	.st0{fill:#E12122;}
</style>
<g>
	<path id="path3441" d="M511.5,20h20.6l12.1,20.2L556.4,20h20.5l-23.4,34.8V80h-18.6V54.9L511.5,20z"/>
	<path id="path3445" d="M615.4,70.1h-21.1l-2.9,9.9h-19L595,20h20.3l22.5,60h-19.5L615.4,70.1z M611.6,57.1L605,35.6l-6.6,21.5
		H611.6z"/>
	<path id="path3449" d="M21.9,40.9L4.2,79.4l27.5,0.1l10.8-27L21.9,40.9z"/>
	<path id="path3461" d="M40.3,0L29.8,23l23.6,1.1l5.5,10.6c0,0,6.4-17.3,19.2-15.6L69.7,0L40.3,0z"/>
	<path id="path3465" d="M111.9,21.1L87,20.9c0,0-13.7,1.9-18.6,14.8l-9.7,25.1c0,0-7.1,20.3-26.4,18.6c0,0,25.1,5.8,37.4-20.5
		L78.1,80h27.2L83,29.8C83,29.8,87.6,22.8,111.9,21.1"/>
	<path id="path3469" class="st0" d="M0,21.1h54.7l3.8,8.7c0,0,7.8-19,26.7-9.5c0,0-15.7-2.1-20.8,13.1l-9.5,23.8l-7.4-18.6L0,21.1z"
		/>
	<path id="path3473" class="st0" d="M0.2,31.4h26l16.3,21.1L0.2,31.4z"/>
	<path id="path3477" d="M169.3,70.1h-21.1l-2.9,9.9h-19l22.6-60h20.3l22.5,60h-19.5L169.3,70.1z M165.4,57.1l-6.6-21.5l-6.6,21.5
		H165.4z"/>
	<path id="path3479" d="M201.9,20h18.6v60h-18.6V20z"/>
	<path id="path3491" d="M237.7,80V20.1h31c5.8,0,10.1,0.5,13.2,1.5c3,1,5.5,2.8,7.4,5.5c1.8,2.7,2.8,5.9,2.8,9.7
		c0,3.3-0.7,6.2-2.2,8.6c-1.4,2.4-3.4,4.4-5.9,5.9c-1.6,1-3.8,1.7-6.6,2.4c2.2,0.7,3.8,1.5,4.9,2.2c0.7,0.5,1.7,1.6,2.9,3.2
		c1.3,1.6,2.2,2.9,2.6,3.7l9.1,17.3h-21l-10-18.3c-1.3-2.4-2.4-3.9-3.4-4.6c-1.3-0.9-2.9-1.4-4.6-1.4h-1.7V80L237.7,80z M256.3,44.4
		h7.9c0.9,0,2.5-0.3,5-0.8c1.2-0.3,2.2-0.9,3-1.9c0.8-1,1.2-2.2,1.2-3.5c0-1.9-0.6-3.5-1.9-4.5c-1.2-1.1-3.6-1.6-7-1.6h-8.2
		L256.3,44.4z"/>
	<path id="path3495" d="M306.3,20h18.6v22.7L344.4,20h24.7l-21.9,22.6L370.1,80h-22.9l-12.6-24.6l-9.7,10V80h-18.6V20z"/>
	<path id="path3499" d="M379.8,20h49.8v12.8h-31.1v9.6h28.8v12.2h-28.8v11.8h32V80h-50.7V20z"/>
	<path id="path3503" d="M444.1,20h17.4l22.6,33.1V20h17.5v60h-17.5l-22.5-32.9V80h-17.5L444.1,20z"/>
</g>
</svg>
