<?xml version="1.0" encoding="utf-8"?>
<!-- Generator: Adobe Illustrator 25.4.1, SVG Export Plug-In . SVG Version: 6.00 Build 0)  -->
<svg version="1.1" id="Layer_1" xmlns="http://www.w3.org/2000/svg" xmlns:xlink="http://www.w3.org/1999/xlink" x="0px" y="0px"
	 viewBox="0 0 101.32 80" style="enable-background:new 0 0 101.32 80;" xml:space="preserve">
<style type="text/css">
	.st0{fill:#BC3C24;}
	.st1{fill:#3C4393;}
</style>
<g id="Clip-9">
</g>
<g id="Clip-2">
</g>
<path class="st0" d="M40.56,5.42c-21.87,0-39.6,16.69-39.6,37.29c0,5.11,1.09,9.98,3.07,14.42C1.45,51.93,0,46.13,0,40
	C0,17.9,18.76,0,41.9,0C56.36,0,69.1,6.99,76.63,17.61c0.21,0.3,0.42,0.6,0.62,0.91c-1.58,0.81-3.04,1.7-4.37,2.64
	c-0.22-0.29-0.44-0.58-0.68-0.86C64.99,11.26,53.5,5.42,40.56,5.42z"/>
<path class="st0" d="M83.8,40c0,22.09-18.75,40-41.9,40c-0.23,0-0.45-0.01-0.67-0.01c21.55-0.34,38.92-16.89,38.92-37.27
	c0-4.84-0.98-9.45-2.74-13.68c-0.15-0.34-0.29-0.68-0.45-1.01c0.09-0.04,0.18-0.07,0.26-0.11c0.14-0.05,0.23-0.09,0.29-0.12
	c0.59-0.35,1.29-0.16,2.1,0.07c0.29,0.08,0.62,0.17,0.98,0.23c0.3,0.06,0.7-0.26,1.09-0.69c0.14,0.39,0.27,0.79,0.38,1.18
	C83.2,32.2,83.8,36.03,83.8,40z"/>
<path class="st1" d="M101.13,14.04c-0.98-1.63-5.27-1.94-11.48-0.83c-4.94,0.88-9.3,2.44-13.02,4.4c-1.59,0.83-3.07,1.74-4.42,2.69
	c-5.11,3.6-8.5,7.89-9.93,11.68c-2.17,5.76-6.47,9.01-7.52,9.75c-0.51-0.23-1.04-0.51-1.61-0.87c-7.16-4.54-12.9-4.95-13.14-4.96
	c-12.43-0.76-21.41,2.9-26.75,6.12c-5.8,3.49-8.62,7.12-8.74,7.27l-0.92,1.2l1.47-0.32c17.42-3.83,30.43,0.29,34.16,1.71
	c-1.08,0.45-2.62,0.9-4.23,1.38c-2.02,0.6-4.32,1.28-6.23,2.09c-2.34,0.99-3.48,2.05-3.5,3.23c-0.02,1.06,0.91,2.04,2.75,2.9
	c1.72,0.8,3.1,0.91,4.31,1c1.25,0.1,2.32,0.18,3.54,1.02c0.57,0.39,1.04,0.74,1.44,1.04c0.9,0.67,1.45,1.08,1.95,1.08
	c0.13,0,0.26-0.03,0.39-0.09c0.69-0.33,0.74-1.31,0.87-3.92c0.01-0.13,0.01-0.27,0.01-0.39c0.03-1.35,0.05-2.42,8.58-2.74
	c8.71-0.33,11.55-3.58,13.26-5.52c0.24-0.28,0.46-0.53,0.68-0.74c1.85-1.85,5.37-4.97,7.05-5.79c1.3-0.64,2.11,0.75,2.2,0.91
	l0.59,1.1l0.41-1.18c0.45-1.28,0.55-3.4-0.62-5.17c-0.6-0.9-1.73-1.97-3.76-2.42c1.12-5.25,3.96-8.83,8.47-10.62
	c0.07-0.03,0.14-0.06,0.21-0.09c0.22-0.09,0.37-0.15,0.45-0.19c0.2-0.12,0.71,0.02,1.25,0.17c0.32,0.09,0.67,0.18,1.05,0.26
	c0.62,0.12,1.2-0.18,1.69-0.59c0.44-0.39,0.81-0.89,1.05-1.26c0.65,0.32,1.84,0.71,3.38,0.26c0.84-0.25,1.22-0.76,1.38-1.15
	c0.16-0.38,0.2-0.79,0.17-1.17c0.37,0.12,0.83,0.18,1.39,0.14c0.76-0.05,1.11-0.42,1.27-0.73c0.13-0.26,0.18-0.56,0.15-0.86
	c0.56,0.24,1.15,0.29,1.67-0.11c0.32-0.24,0.49-0.58,0.47-0.95c-0.01-0.1-0.03-0.18-0.06-0.28c0.28,0.04,0.58,0.08,0.91,0.12
	c0.28,0.03,1.12,0.11,1.35-0.53c0.06-0.16,0.18-0.5-0.43-1.19c0.53-0.01,1.08-0.12,1.61-0.43c0.66-0.38,0.73-0.87,0.71-1.12
	c-0.04-0.4-0.31-0.76-0.68-1.08c0.21-0.06,0.43-0.14,0.65-0.23c0.76-0.33,0.9-0.79,0.9-1.1c0-0.1-0.02-0.21-0.05-0.3
	c1.47,0.04,2.6-0.41,3.1-1.05C101.37,15.1,101.42,14.54,101.13,14.04z M71.78,42.68c0.68,1.02,0.83,2.2,0.72,3.16
	c-0.68-0.59-1.68-1-2.88-0.41c-1.99,0.97-5.81,4.46-7.35,6c-0.23,0.23-0.47,0.5-0.73,0.8c-1.69,1.92-4.24,4.83-12.47,5.14
	c-8.63,0.32-9.6,1.47-9.64,3.82c0,0.12,0,0.24-0.01,0.36c-0.06,1.23-0.12,2.49-0.26,2.92c-0.25-0.12-0.73-0.47-1.19-0.82
	c-0.41-0.3-0.89-0.66-1.47-1.06c-1.46-1.01-2.74-1.11-4.08-1.22c-1.17-0.09-2.39-0.19-3.93-0.9c-1.37-0.64-2.12-1.31-2.12-1.88
	c0.01-0.31,0.29-1.16,2.83-2.24c1.85-0.78,4.11-1.46,6.11-2.05c2.41-0.71,4.49-1.33,5.55-2.03l0.82-0.54l-0.89-0.42
	c-0.15-0.07-3.76-1.75-10.02-2.88c-2.92-0.53-6.71-0.97-11.17-0.97c-3.91,0-8.34,0.34-13.13,1.28c1.29-1.35,3.76-3.63,7.4-5.82
	c5.2-3.12,13.94-6.68,26.06-5.93c0.06,0,5.69,0.41,12.62,4.8c4.69,2.97,7.57,1.49,10.11,0.18c1.54-0.8,3-1.54,4.84-1.42
	C69.47,40.68,70.95,41.42,71.78,42.68z M100.14,14.89c-0.41,0.51-2,0.97-4.12,0.29c-0.29-0.09-0.59,0.06-0.69,0.34
	c-0.1,0.28,0.04,0.59,0.32,0.7c0.48,0.19,0.99,0.5,1.16,0.69c-0.04,0.03-0.1,0.07-0.2,0.11c-0.87,0.38-1.58,0.31-2,0.2
	c-0.2-0.09-0.37-0.15-0.52-0.21c-0.26-0.1-0.56,0.01-0.68,0.27c-0.13,0.26-0.04,0.56,0.2,0.71c0.02,0.01,0.23,0.14,0.59,0.25
	c0.92,0.41,1.72,0.93,1.79,1.14c0,0-0.03,0.05-0.16,0.12c-1.39,0.8-3.19-0.34-3.21-0.34c-0.25-0.17-0.59-0.1-0.76,0.16
	c-0.17,0.25-0.1,0.59,0.15,0.76c0.72,0.48,1.42,1.03,1.81,1.42c-1.29-0.14-1.95-0.36-2.25-0.49c-0.13-0.09-0.25-0.15-0.33-0.2
	c-0.23-0.14-0.54-0.08-0.7,0.13c-0.17,0.21-0.15,0.52,0.03,0.72c0.05,0.06,0.18,0.17,0.43,0.29c0.47,0.32,0.87,0.71,0.86,0.88
	c-0.4,0.3-1.3-0.43-1.69-0.89c-0.18-0.22-0.51-0.26-0.73-0.09c-0.23,0.16-0.3,0.48-0.15,0.73c0.28,0.46,0.59,1.29,0.44,1.59
	c-0.05,0.1-0.23,0.12-0.37,0.14c-1.29,0.09-1.71-0.53-1.78-0.64c-0.01-0.02-0.01-0.04-0.02-0.04c-0.14-0.26-0.45-0.37-0.73-0.24
	c-0.26,0.13-0.38,0.45-0.26,0.72c0,0.01,0.01,0.02,0.03,0.05c0.15,0.31,0.51,1.25,0.26,1.84c-0.1,0.25-0.33,0.43-0.68,0.53
	c-1.75,0.51-2.87-0.35-2.91-0.39c-0.12-0.1-0.29-0.14-0.46-0.11c-0.16,0.03-0.29,0.13-0.37,0.28c-0.19,0.36-0.46,0.76-0.76,1.1
	c-0.38,0.43-0.79,0.75-1.09,0.69c-0.35-0.07-0.68-0.15-0.98-0.23c-0.81-0.23-1.51-0.42-2.1-0.07c-0.06,0.03-0.15,0.07-0.29,0.12
	c-0.09,0.04-0.18,0.07-0.26,0.11c-4.86,1.95-7.92,5.81-9.11,11.46c-0.09-0.01-0.17-0.03-0.26-0.03c-2.14-0.14-3.81,0.71-5.42,1.54
	c-1.86,0.96-3.65,1.88-6.16,1.19c1.69-1.28,5.31-4.5,7.3-9.81c1.36-3.64,4.64-7.76,9.58-11.21c1.34-0.94,2.8-1.83,4.37-2.64
	c3.6-1.88,7.82-3.38,12.6-4.23c7.25-1.29,9.93-0.36,10.33,0.32C100.21,14.66,100.26,14.73,100.14,14.89z"/>
</svg>
