<?xml version="1.0" encoding="utf-8"?>
<!-- Generator: Adobe Illustrator 25.4.1, SVG Export Plug-In . SVG Version: 6.00 Build 0)  -->
<svg version="1.1" id="Layer_1" xmlns="http://www.w3.org/2000/svg" xmlns:xlink="http://www.w3.org/1999/xlink" x="0px" y="0px"
	 viewBox="0 0 406.47 80" style="enable-background:new 0 0 406.47 80;" xml:space="preserve">
<style type="text/css">
	.st0{fill:#3C4393;}
	.st1{fill:#BC3C24;}
</style>
<g id="Clip-9">
</g>
<g id="Clip-2">
</g>
<g>
	<path class="st0" d="M149.98,45.92l6.91-21.07h35.95c0,0-1.55,4.96-6.83,6.43c0,0,4.55,2.11-1.38,14.64h-11.22l4.31-13.18h-12.04
		l-4.64,13.18H149.98z"/>
	<path class="st1" d="M192.84,21.28h-38.23l5.21-7.4h25.95C185.77,13.88,192.84,13.96,192.84,21.28z"/>
	<polygon class="st1" points="150.91,21.28 153.18,13.75 141.33,13.75 139.04,21.28 	"/>
	<path class="st1" d="M128.54,21.28l-1.82-7.4H114.2c0,0-2.9,3.43-6.25,7.4H128.54z"/>
	<path class="st0" d="M137.95,24.86l-4.72,15.45l-3.8-15.45h-24.5c-3.61,4.29-6.92,8.23-6.99,8.38h20.65l3.5,12.69h21.39l6.35-21.07
		H137.95z"/>
	<path class="st1" d="M260.92,21.28h-37.7l5.12-7.4h26.6C254.94,13.88,260.92,14.28,260.92,21.28z"/>
	<polygon class="st1" points="262.63,21.28 267.87,13.88 296.54,13.88 294.1,21.28 	"/>
	<path class="st0" d="M218.34,45.92l6.59-21.07h35.01c0,0-2.44,7.69-11.1,7.69c-8.66,0-15.49,0-15.49,0l-3.9,13.38H218.34z"/>
	<polygon class="st0" points="303.57,24.86 287.64,42.91 289.1,37.3 272.02,37.3 273.36,33.15 290.57,33.15 292.52,24.86 
		264.58,24.86 257.75,45.92 300.45,45.92 310.57,32.91 318.02,32.91 320.94,45.92 333.63,45.92 328.42,24.86 	"/>
	<polygon class="st1" points="372.55,21.28 377.8,13.88 406.47,13.88 404.03,21.28 	"/>
	<polygon class="st0" points="367.67,45.92 374.5,24.86 402.44,24.86 400.49,33.15 383.29,33.15 381.94,37.3 399.02,37.3 
		396.78,45.92 	"/>
	<polygon class="st1" points="327.53,21.28 325.7,13.88 313.26,13.88 306.73,21.28 	"/>
	<path class="st1" d="M338.51,21.28h29.16l3.17-7.4h-25.25C345.59,13.88,338.51,14.77,338.51,21.28z"/>
	<path class="st0" d="M337.54,24.86h12.08c0,0-2.32,3.54-3.54,8.17c-1.22,4.64,2.81,4.51,4.15,4.51s12.69,0,12.69,0l-2.68,8.38
		h-15.37c0,0-11.96,0.16-10-11.43C334.85,34.49,335.34,30.1,337.54,24.86z"/>
	<path class="st1" d="M40.56,5.42c-21.87,0-39.6,16.69-39.6,37.29c0,5.11,1.09,9.98,3.07,14.42C1.45,51.93,0,46.13,0,40
		C0,17.9,18.76,0,41.9,0C56.36,0,69.1,6.99,76.63,17.61c0.21,0.3,0.42,0.6,0.62,0.91c-1.58,0.81-3.04,1.7-4.37,2.64
		c-0.22-0.29-0.44-0.58-0.68-0.86C64.99,11.26,53.5,5.42,40.56,5.42z"/>
	<path class="st1" d="M83.8,40c0,22.09-18.75,40-41.9,40c-0.23,0-0.45-0.01-0.67-0.01c21.55-0.34,38.92-16.89,38.92-37.27
		c0-4.84-0.98-9.45-2.74-13.68c-0.15-0.34-0.29-0.68-0.45-1.01c0.09-0.04,0.18-0.07,0.26-0.11c0.14-0.05,0.23-0.09,0.29-0.12
		c0.59-0.35,1.29-0.16,2.1,0.07c0.29,0.08,0.62,0.17,0.98,0.23c0.3,0.06,0.7-0.26,1.09-0.69c0.14,0.39,0.27,0.79,0.38,1.18
		C83.2,32.2,83.8,36.03,83.8,40z"/>
	<path class="st0" d="M101.13,14.04c-0.98-1.63-5.27-1.94-11.48-0.83c-4.94,0.88-9.3,2.44-13.02,4.4c-1.59,0.83-3.07,1.74-4.42,2.69
		c-5.11,3.6-8.5,7.89-9.93,11.68c-2.17,5.76-6.47,9.01-7.52,9.75c-0.51-0.23-1.04-0.51-1.61-0.87c-7.16-4.54-12.9-4.95-13.14-4.96
		c-12.43-0.76-21.41,2.9-26.75,6.12c-5.8,3.49-8.62,7.12-8.74,7.27l-0.92,1.2l1.47-0.32c17.42-3.83,30.43,0.29,34.16,1.71
		c-1.08,0.45-2.62,0.9-4.23,1.38c-2.02,0.6-4.32,1.28-6.23,2.09c-2.34,0.99-3.48,2.05-3.5,3.23c-0.02,1.06,0.91,2.04,2.75,2.9
		c1.72,0.8,3.1,0.91,4.31,1c1.25,0.1,2.32,0.18,3.54,1.02c0.57,0.39,1.04,0.74,1.44,1.04c0.9,0.67,1.45,1.08,1.95,1.08
		c0.13,0,0.26-0.03,0.39-0.09c0.69-0.33,0.74-1.31,0.87-3.92c0.01-0.13,0.01-0.27,0.01-0.39c0.03-1.35,0.05-2.42,8.58-2.74
		c8.71-0.33,11.55-3.58,13.26-5.52c0.24-0.28,0.46-0.53,0.68-0.74c1.85-1.85,5.37-4.97,7.05-5.79c1.3-0.64,2.11,0.75,2.2,0.91
		l0.59,1.1l0.41-1.18c0.45-1.28,0.55-3.4-0.62-5.17c-0.6-0.9-1.73-1.97-3.76-2.42c1.12-5.25,3.96-8.83,8.47-10.62
		c0.07-0.03,0.14-0.06,0.21-0.09c0.22-0.09,0.37-0.15,0.45-0.19c0.2-0.12,0.71,0.02,1.25,0.17c0.32,0.09,0.67,0.18,1.05,0.26
		c0.62,0.12,1.2-0.18,1.69-0.59c0.44-0.39,0.81-0.89,1.05-1.26c0.65,0.32,1.84,0.71,3.38,0.26c0.84-0.25,1.22-0.76,1.38-1.15
		c0.16-0.38,0.2-0.79,0.17-1.17c0.37,0.12,0.83,0.18,1.39,0.14c0.76-0.05,1.11-0.42,1.27-0.73c0.13-0.26,0.18-0.56,0.15-0.86
		c0.56,0.24,1.15,0.29,1.67-0.11c0.32-0.24,0.49-0.58,0.47-0.95c-0.01-0.1-0.03-0.18-0.06-0.28c0.28,0.04,0.58,0.08,0.91,0.12
		c0.28,0.03,1.12,0.11,1.35-0.53c0.06-0.16,0.18-0.5-0.43-1.19c0.53-0.01,1.08-0.12,1.61-0.43c0.66-0.38,0.73-0.87,0.71-1.12
		c-0.04-0.4-0.31-0.76-0.68-1.08c0.21-0.06,0.43-0.14,0.65-0.23c0.76-0.33,0.9-0.79,0.9-1.1c0-0.1-0.02-0.21-0.05-0.3
		c1.47,0.04,2.6-0.41,3.1-1.05C101.37,15.1,101.42,14.54,101.13,14.04z M71.78,42.68c0.68,1.02,0.83,2.2,0.72,3.16
		c-0.68-0.59-1.68-1-2.88-0.41c-1.99,0.97-5.81,4.46-7.35,6c-0.23,0.23-0.47,0.5-0.73,0.8c-1.69,1.92-4.24,4.83-12.47,5.14
		c-8.63,0.32-9.6,1.47-9.64,3.82c0,0.12,0,0.24-0.01,0.36c-0.06,1.23-0.12,2.49-0.26,2.92c-0.25-0.12-0.73-0.47-1.19-0.82
		c-0.41-0.3-0.89-0.66-1.47-1.06c-1.46-1.01-2.74-1.11-4.08-1.22c-1.17-0.09-2.39-0.19-3.93-0.9c-1.37-0.64-2.12-1.31-2.12-1.88
		c0.01-0.31,0.29-1.16,2.83-2.24c1.85-0.78,4.11-1.46,6.11-2.05c2.41-0.71,4.49-1.33,5.55-2.03l0.82-0.54l-0.89-0.42
		c-0.15-0.07-3.76-1.75-10.02-2.88c-2.92-0.53-6.71-0.97-11.17-0.97c-3.91,0-8.34,0.34-13.13,1.28c1.29-1.35,3.76-3.63,7.4-5.82
		c5.2-3.12,13.94-6.68,26.06-5.93c0.06,0,5.69,0.41,12.62,4.8c4.69,2.97,7.57,1.49,10.11,0.18c1.54-0.8,3-1.54,4.84-1.42
		C69.47,40.68,70.95,41.42,71.78,42.68z M100.14,14.89c-0.41,0.51-2,0.97-4.12,0.29c-0.29-0.09-0.59,0.06-0.69,0.34
		c-0.1,0.28,0.04,0.59,0.32,0.7c0.48,0.19,0.99,0.5,1.16,0.69c-0.04,0.03-0.1,0.07-0.2,0.11c-0.87,0.38-1.58,0.31-2,0.2
		c-0.2-0.09-0.37-0.15-0.52-0.21c-0.26-0.1-0.56,0.01-0.68,0.27c-0.13,0.26-0.04,0.56,0.2,0.71c0.02,0.01,0.23,0.14,0.59,0.25
		c0.92,0.41,1.72,0.93,1.79,1.14c0,0-0.03,0.05-0.16,0.12c-1.39,0.8-3.19-0.34-3.21-0.34c-0.25-0.17-0.59-0.1-0.76,0.16
		c-0.17,0.25-0.1,0.59,0.15,0.76c0.72,0.48,1.42,1.03,1.81,1.42c-1.29-0.14-1.95-0.36-2.25-0.49c-0.13-0.09-0.25-0.15-0.33-0.2
		c-0.23-0.14-0.54-0.08-0.7,0.13c-0.17,0.21-0.15,0.52,0.03,0.72c0.05,0.06,0.18,0.17,0.43,0.29c0.47,0.32,0.87,0.71,0.86,0.88
		c-0.4,0.3-1.3-0.43-1.69-0.89c-0.18-0.22-0.51-0.26-0.73-0.09c-0.23,0.16-0.3,0.48-0.15,0.73c0.28,0.46,0.59,1.29,0.44,1.59
		c-0.05,0.1-0.23,0.12-0.37,0.14c-1.29,0.09-1.71-0.53-1.78-0.64c-0.01-0.02-0.01-0.04-0.02-0.04c-0.14-0.26-0.45-0.37-0.73-0.24
		c-0.26,0.13-0.38,0.45-0.26,0.72c0,0.01,0.01,0.02,0.03,0.05c0.15,0.31,0.51,1.25,0.26,1.84c-0.1,0.25-0.33,0.43-0.68,0.53
		c-1.75,0.51-2.87-0.35-2.91-0.39c-0.12-0.1-0.29-0.14-0.46-0.11c-0.16,0.03-0.29,0.13-0.37,0.28c-0.19,0.36-0.46,0.76-0.76,1.1
		c-0.38,0.43-0.79,0.75-1.09,0.69c-0.35-0.07-0.68-0.15-0.98-0.23c-0.81-0.23-1.51-0.42-2.1-0.07c-0.06,0.03-0.15,0.07-0.29,0.12
		c-0.09,0.04-0.18,0.07-0.26,0.11c-4.86,1.95-7.92,5.81-9.11,11.46c-0.09-0.01-0.17-0.03-0.26-0.03c-2.14-0.14-3.81,0.71-5.42,1.54
		c-1.86,0.96-3.65,1.88-6.16,1.19c1.69-1.28,5.31-4.5,7.3-9.81c1.36-3.64,4.64-7.76,9.58-11.21c1.34-0.94,2.8-1.83,4.37-2.64
		c3.6-1.88,7.82-3.38,12.6-4.23c7.25-1.29,9.93-0.36,10.33,0.32C100.21,14.66,100.26,14.73,100.14,14.89z"/>
	<g>
		<path class="st1" d="M222.78,68.53c0,0.28-0.11,0.52-0.31,0.72c-0.21,0.2-0.47,0.29-0.77,0.29c-0.3,0-0.56-0.1-0.77-0.29
			c-0.21-0.19-0.31-0.43-0.31-0.72c0-0.28,0.1-0.52,0.31-0.72c0.21-0.2,0.47-0.29,0.77-0.29c0.3,0,0.56,0.1,0.77,0.29
			C222.67,68,222.78,68.24,222.78,68.53z"/>
		<path class="st1" d="M226.99,68.53c0,0.28-0.11,0.52-0.31,0.72c-0.21,0.2-0.47,0.29-0.77,0.29c-0.3,0-0.56-0.1-0.77-0.29
			c-0.21-0.19-0.31-0.43-0.31-0.72c0-0.28,0.1-0.52,0.31-0.72c0.21-0.2,0.47-0.29,0.77-0.29c0.3,0,0.56,0.1,0.77,0.29
			C226.88,68,226.99,68.24,226.99,68.53z"/>
		<path class="st1" d="M231.21,68.53c0,0.28-0.11,0.52-0.31,0.72c-0.21,0.2-0.47,0.29-0.77,0.29c-0.3,0-0.56-0.1-0.77-0.29
			c-0.21-0.19-0.31-0.43-0.31-0.72c0-0.28,0.1-0.52,0.31-0.72c0.21-0.2,0.47-0.29,0.77-0.29c0.3,0,0.56,0.1,0.77,0.29
			C231.1,68,231.21,68.24,231.21,68.53z"/>
		<path class="st1" d="M241.48,60.79c0,0.04-0.01,0.1-0.04,0.18c-0.03,0.08-0.06,0.15-0.09,0.22l-5.63,11.83
			c-0.07,0.15-0.15,0.24-0.24,0.28c-0.09,0.04-0.28,0.06-0.56,0.06c-0.25,0-0.42-0.02-0.51-0.06c-0.09-0.04-0.14-0.11-0.14-0.2
			c0-0.04,0.01-0.09,0.04-0.15c0.03-0.06,0.06-0.12,0.09-0.19l1.96-4.08l-3.87-7.49c-0.03-0.07-0.06-0.13-0.1-0.2
			c-0.04-0.07-0.05-0.13-0.05-0.2c0-0.2,0.25-0.3,0.76-0.3c0.25,0,0.42,0.02,0.52,0.05c0.1,0.03,0.17,0.1,0.22,0.19l3.22,6.44
			l2.98-6.32c0.07-0.13,0.16-0.23,0.27-0.28c0.11-0.05,0.31-0.08,0.6-0.08C241.29,60.49,241.48,60.59,241.48,60.79z"/>
		<path class="st1" d="M251.2,64.97c0,0.7-0.11,1.33-0.34,1.9c-0.23,0.57-0.53,1.05-0.92,1.45c-0.39,0.4-0.85,0.71-1.39,0.93
			c-0.54,0.22-1.12,0.32-1.76,0.32c-0.64,0-1.22-0.11-1.76-0.32c-0.54-0.22-1-0.52-1.39-0.93c-0.39-0.4-0.7-0.89-0.91-1.45
			c-0.22-0.57-0.33-1.2-0.33-1.9s0.11-1.33,0.33-1.9s0.52-1.05,0.91-1.45c0.39-0.4,0.85-0.71,1.39-0.93
			c0.54-0.22,1.12-0.32,1.76-0.32c0.64,0,1.22,0.11,1.76,0.32c0.54,0.22,1,0.52,1.39,0.93c0.39,0.4,0.7,0.89,0.92,1.45
			C251.08,63.64,251.2,64.27,251.2,64.97z M249.74,64.97c0-0.47-0.06-0.92-0.19-1.33c-0.12-0.42-0.31-0.78-0.56-1.1
			c-0.25-0.32-0.56-0.57-0.93-0.76c-0.37-0.19-0.79-0.28-1.27-0.28c-0.48,0-0.9,0.09-1.26,0.28c-0.36,0.19-0.67,0.44-0.92,0.76
			c-0.25,0.32-0.44,0.68-0.57,1.1c-0.12,0.42-0.18,0.86-0.18,1.33s0.06,0.92,0.18,1.33s0.31,0.78,0.57,1.1
			c0.25,0.32,0.56,0.57,0.92,0.76c0.36,0.19,0.78,0.28,1.26,0.28c0.48,0,0.9-0.09,1.27-0.28s0.68-0.44,0.93-0.76
			c0.25-0.32,0.44-0.68,0.56-1.1C249.68,65.89,249.74,65.44,249.74,64.97z"/>
		<path class="st1" d="M261.52,69.01c0,0.15-0.04,0.26-0.11,0.32c-0.03,0.03-0.07,0.05-0.13,0.08s-0.19,0.04-0.39,0.04
			c-0.2,0-0.34-0.01-0.41-0.04c-0.07-0.03-0.12-0.05-0.15-0.08c-0.07-0.07-0.11-0.17-0.11-0.32v-0.97
			c-0.77,1.02-1.84,1.53-3.22,1.53c-0.58,0-1.08-0.08-1.51-0.24c-0.43-0.16-0.78-0.39-1.05-0.68c-0.28-0.29-0.48-0.63-0.61-1.03
			c-0.13-0.4-0.2-0.84-0.2-1.32v-5.37c0-0.15,0.04-0.26,0.11-0.32c0.04-0.03,0.11-0.05,0.18-0.08c0.08-0.03,0.22-0.04,0.42-0.04
			s0.34,0.01,0.41,0.04c0.07,0.03,0.13,0.05,0.17,0.08c0.07,0.07,0.11,0.18,0.11,0.32v5.15c0,1.57,0.77,2.36,2.3,2.36
			c0.38,0,0.73-0.07,1.06-0.22s0.63-0.35,0.88-0.6c0.25-0.25,0.45-0.53,0.6-0.86c0.14-0.32,0.22-0.66,0.22-1.01v-4.82
			c0-0.15,0.04-0.26,0.11-0.32c0.04-0.03,0.11-0.05,0.19-0.08c0.08-0.03,0.22-0.04,0.42-0.04c0.2,0,0.34,0.01,0.41,0.04
			c0.07,0.03,0.13,0.05,0.17,0.08c0.07,0.07,0.11,0.18,0.11,0.32V69.01z"/>
		<path class="st1" d="M270.14,61.06c0,0.07-0.01,0.14-0.03,0.23s-0.05,0.18-0.1,0.27c-0.06,0.11-0.12,0.2-0.18,0.28
			c-0.07,0.08-0.14,0.12-0.23,0.12c-0.07,0-0.15-0.02-0.24-0.06c-0.09-0.04-0.17-0.07-0.26-0.1c-0.09-0.03-0.2-0.06-0.33-0.09
			c-0.13-0.03-0.3-0.05-0.5-0.05c-0.3,0-0.59,0.09-0.87,0.26c-0.28,0.18-0.52,0.41-0.74,0.71c-0.22,0.3-0.39,0.64-0.51,1.04
			c-0.12,0.4-0.18,0.82-0.18,1.26v4.08c0,0.15-0.04,0.26-0.11,0.32c-0.04,0.03-0.11,0.05-0.19,0.08c-0.08,0.03-0.22,0.04-0.42,0.04
			c-0.2,0-0.34-0.01-0.41-0.04c-0.07-0.03-0.13-0.05-0.17-0.08c-0.07-0.07-0.11-0.17-0.11-0.32v-7.93c0-0.19,0.04-0.32,0.13-0.4
			c0.03-0.03,0.08-0.05,0.16-0.08c0.08-0.03,0.18-0.05,0.29-0.08c0.22-0.04,0.38-0.06,0.48-0.06c0.13,0,0.22,0.02,0.26,0.06
			c0.06,0.05,0.09,0.15,0.09,0.28v1.21c0.03-0.05,0.1-0.16,0.23-0.33c0.12-0.17,0.29-0.34,0.51-0.52c0.22-0.18,0.48-0.34,0.79-0.48
			c0.31-0.14,0.67-0.21,1.08-0.21c0.38,0,0.73,0.07,1.06,0.2C269.98,60.79,270.14,60.92,270.14,61.06z"/>
		<path class="st1" d="M285.03,64.83c0,0.73-0.1,1.38-0.29,1.97c-0.2,0.59-0.47,1.08-0.84,1.49c-0.36,0.41-0.8,0.73-1.3,0.95
			c-0.51,0.22-1.06,0.33-1.67,0.33c-0.78,0-1.4-0.12-1.85-0.35c-0.45-0.24-0.83-0.55-1.15-0.94v4.52c0,0.15-0.04,0.26-0.11,0.32
			c-0.04,0.03-0.11,0.05-0.19,0.08c-0.08,0.03-0.22,0.04-0.42,0.04c-0.2,0-0.34-0.01-0.41-0.04c-0.07-0.03-0.13-0.05-0.17-0.08
			c-0.07-0.07-0.11-0.18-0.11-0.32V61.08c0-0.19,0.04-0.32,0.13-0.4c0.03-0.03,0.08-0.05,0.16-0.08c0.08-0.03,0.18-0.05,0.29-0.08
			c0.22-0.04,0.38-0.06,0.48-0.06c0.13,0,0.22,0.02,0.26,0.06c0.06,0.05,0.09,0.15,0.09,0.28v1.01c0.33-0.47,0.76-0.83,1.29-1.07
			c0.53-0.24,1.12-0.36,1.77-0.36c0.65,0,1.23,0.11,1.74,0.33c0.51,0.22,0.93,0.53,1.27,0.92c0.34,0.39,0.6,0.86,0.77,1.4
			C284.94,63.57,285.03,64.17,285.03,64.83z M283.53,64.89c0-0.44-0.05-0.87-0.16-1.27c-0.11-0.4-0.28-0.76-0.5-1.08
			c-0.23-0.32-0.52-0.57-0.88-0.75c-0.36-0.18-0.8-0.27-1.33-0.27c-0.49,0-0.92,0.1-1.28,0.3c-0.36,0.2-0.66,0.46-0.89,0.79
			c-0.23,0.32-0.4,0.68-0.51,1.08c-0.11,0.4-0.16,0.8-0.16,1.2c0,0.47,0.05,0.92,0.16,1.35c0.11,0.43,0.28,0.81,0.51,1.13
			c0.23,0.32,0.53,0.58,0.88,0.77c0.35,0.19,0.78,0.28,1.27,0.28c0.51,0,0.94-0.1,1.3-0.29c0.36-0.19,0.66-0.45,0.9-0.78
			c0.24-0.32,0.41-0.7,0.52-1.12C283.47,65.81,283.53,65.36,283.53,64.89z"/>
		<path class="st1" d="M295.13,64.75c0,0.36-0.25,0.54-0.74,0.54h-5.95c0.07,0.93,0.37,1.66,0.9,2.2c0.53,0.54,1.21,0.81,2.03,0.81
			c0.38,0,0.68-0.02,0.92-0.06c0.24-0.04,0.48-0.09,0.73-0.16c0.19-0.07,0.37-0.14,0.54-0.22c0.17-0.08,0.32-0.12,0.43-0.12
			c0.14,0,0.28,0.11,0.41,0.34c0.06,0.11,0.11,0.2,0.14,0.26c0.04,0.07,0.05,0.13,0.05,0.2c0,0.07-0.03,0.13-0.08,0.2
			c-0.05,0.07-0.18,0.15-0.4,0.26c-0.3,0.15-0.68,0.28-1.14,0.39c-0.46,0.11-1.01,0.17-1.66,0.17c-0.65,0-1.24-0.11-1.77-0.32
			c-0.53-0.22-0.98-0.52-1.37-0.93c-0.38-0.4-0.68-0.89-0.89-1.45c-0.21-0.57-0.31-1.2-0.31-1.92c0-0.7,0.1-1.33,0.3-1.9
			c0.2-0.57,0.49-1.05,0.86-1.44c0.37-0.4,0.81-0.7,1.31-0.92c0.51-0.22,1.06-0.32,1.67-0.32c1.27,0,2.26,0.39,2.96,1.16
			C294.78,62.31,295.13,63.38,295.13,64.75z M293.59,64.23c-0.03-0.87-0.27-1.56-0.72-2.05c-0.45-0.49-1.04-0.74-1.78-0.74
			c-0.75,0-1.35,0.24-1.79,0.73c-0.44,0.48-0.73,1.17-0.86,2.06H293.59z"/>
		<path class="st1" d="M304.49,69.07c0,0.08-0.05,0.15-0.14,0.21c-0.09,0.06-0.19,0.1-0.27,0.13c-0.19,0.07-0.38,0.1-0.56,0.1
			c-0.13,0-0.24-0.06-0.33-0.18c-0.09-0.13-0.16-0.3-0.22-0.48c-0.03-0.11-0.05-0.19-0.08-0.25s-0.05-0.14-0.08-0.25
			c-0.42,0.43-0.88,0.74-1.39,0.94c-0.51,0.19-1.09,0.29-1.76,0.29c-0.39,0-0.77-0.05-1.13-0.15c-0.36-0.1-0.68-0.26-0.95-0.46
			c-0.27-0.21-0.49-0.48-0.65-0.81c-0.17-0.33-0.25-0.73-0.25-1.2c0-0.97,0.3-1.68,0.89-2.12c0.59-0.44,1.43-0.71,2.52-0.81
			l2.67-0.22v-0.3c0-0.62-0.18-1.11-0.54-1.48c-0.36-0.37-0.96-0.56-1.78-0.56c-0.54,0-1,0.06-1.4,0.18
			c-0.4,0.12-0.76,0.27-1.08,0.44c-0.07,0.04-0.13,0.07-0.19,0.09c-0.05,0.02-0.12,0.03-0.21,0.03c-0.16,0-0.29-0.13-0.39-0.38
			c-0.06-0.11-0.09-0.19-0.11-0.24c-0.01-0.05-0.02-0.11-0.02-0.16c0-0.07,0.03-0.13,0.1-0.19c0.06-0.06,0.18-0.13,0.36-0.21
			c0.42-0.19,0.85-0.34,1.29-0.46c0.44-0.12,1.02-0.18,1.73-0.18c1.26,0,2.19,0.3,2.8,0.91c0.29,0.27,0.5,0.61,0.64,1.02
			c0.14,0.41,0.21,0.93,0.21,1.56v3.84c0,0.27,0.03,0.49,0.09,0.68s0.1,0.31,0.13,0.39C304.46,68.9,304.49,69,304.49,69.07z
			 M302.78,65.72v-0.89l-2.41,0.22c-0.74,0.07-1.3,0.24-1.67,0.52c-0.38,0.28-0.57,0.71-0.57,1.29c0,0.58,0.17,1,0.5,1.25
			c0.33,0.26,0.73,0.38,1.19,0.38c0.23,0,0.52-0.03,0.86-0.1c0.34-0.07,0.67-0.2,0.98-0.4c0.31-0.2,0.58-0.48,0.79-0.85
			C302.67,66.79,302.78,66.31,302.78,65.72z"/>
		<path class="st1" d="M313.66,68.53c0,0.07-0.03,0.13-0.1,0.2c-0.07,0.07-0.21,0.15-0.42,0.26c-0.29,0.15-0.63,0.28-1.01,0.4
			c-0.38,0.12-0.84,0.18-1.38,0.18c-0.56,0-1.1-0.09-1.61-0.27c-0.51-0.18-0.95-0.46-1.34-0.84c-0.38-0.38-0.68-0.85-0.9-1.43
			c-0.22-0.58-0.33-1.26-0.33-2.06c0-0.67,0.1-1.29,0.3-1.86c0.2-0.57,0.49-1.05,0.87-1.45s0.83-0.72,1.35-0.95
			c0.52-0.23,1.11-0.34,1.76-0.34c0.48,0,0.86,0.03,1.15,0.1c0.29,0.07,0.56,0.15,0.8,0.24c0.33,0.12,0.54,0.23,0.63,0.31
			c0.09,0.09,0.13,0.16,0.13,0.23c0,0.07-0.02,0.14-0.05,0.22c-0.04,0.08-0.07,0.17-0.1,0.26c-0.06,0.11-0.12,0.2-0.17,0.27
			c-0.06,0.07-0.14,0.11-0.26,0.11c-0.09,0-0.18-0.02-0.27-0.06c-0.09-0.04-0.21-0.09-0.34-0.16c-0.22-0.09-0.44-0.17-0.66-0.24
			c-0.22-0.07-0.53-0.1-0.9-0.1c-0.42,0-0.8,0.09-1.14,0.26c-0.34,0.18-0.63,0.42-0.88,0.73c-0.25,0.31-0.43,0.67-0.56,1.08
			c-0.13,0.41-0.2,0.86-0.2,1.34c0,1,0.24,1.81,0.73,2.43c0.48,0.63,1.15,0.94,2.01,0.94c0.35,0,0.63-0.03,0.86-0.09
			c0.22-0.06,0.44-0.14,0.64-0.23c0.16-0.07,0.29-0.13,0.4-0.2c0.11-0.07,0.22-0.1,0.34-0.1c0.12,0,0.2,0.04,0.26,0.11
			s0.12,0.16,0.17,0.25c0.06,0.07,0.11,0.14,0.15,0.22C313.64,68.38,313.66,68.46,313.66,68.53z"/>
		<path class="st1" d="M322.98,64.75c0,0.36-0.25,0.54-0.74,0.54h-5.95c0.07,0.93,0.37,1.66,0.9,2.2c0.53,0.54,1.21,0.81,2.03,0.81
			c0.38,0,0.68-0.02,0.92-0.06c0.24-0.04,0.48-0.09,0.73-0.16c0.19-0.07,0.37-0.14,0.54-0.22c0.17-0.08,0.32-0.12,0.43-0.12
			c0.14,0,0.28,0.11,0.41,0.34c0.06,0.11,0.11,0.2,0.14,0.26c0.04,0.07,0.05,0.13,0.05,0.2c0,0.07-0.03,0.13-0.08,0.2
			c-0.05,0.07-0.18,0.15-0.4,0.26c-0.3,0.15-0.68,0.28-1.14,0.39c-0.46,0.11-1.01,0.17-1.66,0.17c-0.65,0-1.24-0.11-1.77-0.32
			c-0.53-0.22-0.98-0.52-1.37-0.93c-0.38-0.4-0.68-0.89-0.89-1.45c-0.21-0.57-0.31-1.2-0.31-1.92c0-0.7,0.1-1.33,0.3-1.9
			c0.2-0.57,0.49-1.05,0.86-1.44c0.37-0.4,0.81-0.7,1.31-0.92c0.51-0.22,1.06-0.32,1.67-0.32c1.27,0,2.26,0.39,2.96,1.16
			C322.64,62.31,322.98,63.38,322.98,64.75z M321.44,64.23c-0.03-0.87-0.27-1.56-0.72-2.05c-0.45-0.49-1.04-0.74-1.78-0.74
			c-0.75,0-1.35,0.24-1.79,0.73c-0.44,0.48-0.73,1.17-0.86,2.06H321.44z"/>
		<path class="st1" d="M326.96,67.42c0,0.09-0.02,0.19-0.05,0.27c-0.04,0.09-0.07,0.19-0.1,0.29l-1.04,3.07
			c-0.06,0.16-0.14,0.26-0.25,0.29c-0.11,0.03-0.29,0.05-0.55,0.05c-0.2,0-0.34-0.02-0.4-0.07c-0.06-0.05-0.1-0.1-0.1-0.17
			c0-0.05,0.01-0.11,0.02-0.18c0.01-0.07,0.04-0.15,0.06-0.26l0.76-3.15c0.04-0.16,0.13-0.27,0.25-0.33
			c0.12-0.06,0.34-0.09,0.64-0.09c0.29,0,0.49,0.03,0.6,0.08C326.91,67.27,326.96,67.33,326.96,67.42z"/>
		<path class="st1" d="M343.26,64.97c0,0.7-0.11,1.33-0.34,1.9c-0.23,0.57-0.53,1.05-0.92,1.45c-0.39,0.4-0.85,0.71-1.39,0.93
			c-0.54,0.22-1.12,0.32-1.76,0.32c-0.64,0-1.22-0.11-1.76-0.32c-0.54-0.22-1-0.52-1.39-0.93c-0.39-0.4-0.7-0.89-0.91-1.45
			c-0.22-0.57-0.33-1.2-0.33-1.9s0.11-1.33,0.33-1.9c0.22-0.57,0.52-1.05,0.91-1.45c0.39-0.4,0.85-0.71,1.39-0.93
			c0.54-0.22,1.12-0.32,1.76-0.32c0.64,0,1.22,0.11,1.76,0.32c0.54,0.22,1,0.52,1.39,0.93c0.39,0.4,0.7,0.89,0.92,1.45
			C343.14,63.64,343.26,64.27,343.26,64.97z M341.8,64.97c0-0.47-0.06-0.92-0.19-1.33c-0.12-0.42-0.31-0.78-0.56-1.1
			c-0.25-0.32-0.56-0.57-0.93-0.76c-0.37-0.19-0.79-0.28-1.27-0.28s-0.9,0.09-1.26,0.28c-0.36,0.19-0.67,0.44-0.92,0.76
			c-0.25,0.32-0.44,0.68-0.57,1.1c-0.12,0.42-0.18,0.86-0.18,1.33s0.06,0.92,0.18,1.33c0.12,0.42,0.31,0.78,0.57,1.1
			c0.25,0.32,0.56,0.57,0.92,0.76c0.36,0.19,0.78,0.28,1.26,0.28s0.9-0.09,1.27-0.28c0.37-0.19,0.68-0.44,0.93-0.76
			c0.25-0.32,0.44-0.68,0.56-1.1C341.74,65.89,341.8,65.44,341.8,64.97z"/>
		<path class="st1" d="M353.58,69.01c0,0.15-0.04,0.26-0.11,0.32c-0.03,0.03-0.07,0.05-0.13,0.08c-0.06,0.03-0.19,0.04-0.39,0.04
			c-0.2,0-0.34-0.01-0.41-0.04c-0.07-0.03-0.12-0.05-0.15-0.08c-0.07-0.07-0.11-0.17-0.11-0.32v-0.97
			c-0.77,1.02-1.84,1.53-3.22,1.53c-0.58,0-1.08-0.08-1.51-0.24c-0.43-0.16-0.78-0.39-1.05-0.68c-0.28-0.29-0.48-0.63-0.61-1.03
			c-0.13-0.4-0.2-0.84-0.2-1.32v-5.37c0-0.15,0.04-0.26,0.11-0.32c0.04-0.03,0.11-0.05,0.18-0.08c0.08-0.03,0.22-0.04,0.42-0.04
			c0.2,0,0.34,0.01,0.41,0.04c0.07,0.03,0.13,0.05,0.17,0.08c0.07,0.07,0.11,0.18,0.11,0.32v5.15c0,1.57,0.77,2.36,2.3,2.36
			c0.38,0,0.73-0.07,1.06-0.22s0.63-0.35,0.88-0.6c0.25-0.25,0.45-0.53,0.6-0.86c0.14-0.32,0.22-0.66,0.22-1.01v-4.82
			c0-0.15,0.04-0.26,0.11-0.32c0.04-0.03,0.11-0.05,0.19-0.08c0.08-0.03,0.22-0.04,0.42-0.04c0.2,0,0.34,0.01,0.41,0.04
			c0.07,0.03,0.13,0.05,0.17,0.08c0.07,0.07,0.11,0.18,0.11,0.32V69.01z"/>
		<path class="st1" d="M362.2,61.06c0,0.07-0.01,0.14-0.03,0.23s-0.05,0.18-0.1,0.27c-0.06,0.11-0.12,0.2-0.18,0.28
			c-0.07,0.08-0.14,0.12-0.23,0.12c-0.07,0-0.15-0.02-0.24-0.06c-0.09-0.04-0.17-0.07-0.26-0.1c-0.09-0.03-0.2-0.06-0.33-0.09
			c-0.13-0.03-0.3-0.05-0.5-0.05c-0.3,0-0.59,0.09-0.87,0.26c-0.28,0.18-0.52,0.41-0.74,0.71c-0.22,0.3-0.39,0.64-0.51,1.04
			c-0.12,0.4-0.18,0.82-0.18,1.26v4.08c0,0.15-0.04,0.26-0.11,0.32c-0.04,0.03-0.11,0.05-0.19,0.08c-0.08,0.03-0.22,0.04-0.42,0.04
			c-0.2,0-0.34-0.01-0.41-0.04c-0.07-0.03-0.13-0.05-0.17-0.08c-0.07-0.07-0.11-0.17-0.11-0.32v-7.93c0-0.19,0.04-0.32,0.13-0.4
			c0.03-0.03,0.08-0.05,0.16-0.08c0.08-0.03,0.18-0.05,0.29-0.08c0.22-0.04,0.38-0.06,0.48-0.06c0.13,0,0.22,0.02,0.26,0.06
			c0.06,0.05,0.09,0.15,0.09,0.28v1.21c0.03-0.05,0.1-0.16,0.23-0.33c0.12-0.17,0.29-0.34,0.51-0.52c0.22-0.18,0.48-0.34,0.79-0.48
			c0.31-0.14,0.67-0.21,1.08-0.21c0.38,0,0.73,0.07,1.06,0.2C362.04,60.79,362.2,60.92,362.2,61.06z"/>
		<path class="st1" d="M376.65,60.47c0,0.11-0.06,0.2-0.17,0.26c-0.13,0.07-0.26,0.13-0.39,0.19c-0.13,0.06-0.25,0.12-0.37,0.19
			c-0.12,0.07-0.24,0.14-0.36,0.23c-0.12,0.09-0.24,0.19-0.36,0.29c0.19,0.23,0.34,0.49,0.45,0.78c0.11,0.29,0.16,0.61,0.16,0.96
			c0,0.4-0.09,0.78-0.27,1.13c-0.18,0.35-0.43,0.65-0.76,0.91c-0.33,0.26-0.72,0.45-1.17,0.6c-0.46,0.14-0.96,0.21-1.51,0.21
			c-0.17,0-0.36-0.01-0.55-0.04c-0.2-0.03-0.37-0.05-0.53-0.08c-0.2,0.07-0.38,0.18-0.54,0.32c-0.16,0.15-0.24,0.32-0.24,0.52
			c0,0.23,0.11,0.41,0.33,0.56c0.22,0.14,0.63,0.27,1.24,0.37l1.52,0.24c1.16,0.19,2.01,0.48,2.54,0.87c0.54,0.39,0.8,0.95,0.8,1.68
			c0,0.87-0.39,1.54-1.18,2.01c-0.79,0.46-1.88,0.7-3.27,0.7c-1.39,0-2.44-0.24-3.15-0.73c-0.71-0.48-1.06-1.08-1.06-1.8
			c0-0.57,0.16-1.03,0.47-1.38c0.31-0.36,0.76-0.67,1.34-0.94c-0.64-0.32-0.96-0.76-0.96-1.31c0-0.26,0.09-0.51,0.26-0.77
			c0.17-0.26,0.45-0.46,0.83-0.63c-0.48-0.23-0.87-0.55-1.18-0.95c-0.31-0.4-0.47-0.9-0.47-1.49c0-0.4,0.09-0.78,0.26-1.13
			c0.17-0.35,0.42-0.65,0.75-0.91c0.33-0.26,0.72-0.46,1.18-0.61c0.46-0.15,0.99-0.22,1.59-0.22c0.49,0,0.93,0.04,1.3,0.13
			c0.38,0.09,0.72,0.22,1.02,0.39c0.17-0.23,0.4-0.45,0.68-0.68c0.28-0.22,0.53-0.39,0.75-0.49c0.09-0.04,0.16-0.07,0.22-0.1
			s0.12-0.04,0.2-0.04c0.07,0,0.14,0.02,0.21,0.06c0.06,0.04,0.13,0.11,0.21,0.22C376.58,60.22,376.65,60.38,376.65,60.47z
			 M374.93,70.81c0-0.47-0.17-0.81-0.51-1.02c-0.34-0.21-0.78-0.36-1.31-0.45l-1.87-0.32c-0.04-0.01-0.13-0.03-0.27-0.04
			c-0.14-0.01-0.24-0.03-0.31-0.06c-0.38,0.15-0.72,0.37-1.03,0.66c-0.31,0.29-0.47,0.65-0.47,1.08c0,0.31,0.08,0.57,0.24,0.79
			c0.16,0.22,0.38,0.39,0.65,0.52c0.28,0.13,0.59,0.24,0.95,0.3s0.72,0.1,1.1,0.1c0.36,0,0.71-0.03,1.05-0.08
			c0.34-0.05,0.64-0.14,0.91-0.27c0.27-0.13,0.48-0.29,0.64-0.48C374.86,71.33,374.93,71.09,374.93,70.81z M374.24,63.38
			c0-0.57-0.2-1.02-0.61-1.37s-0.99-0.52-1.76-0.52c-0.78,0-1.38,0.18-1.8,0.52c-0.42,0.35-0.63,0.81-0.63,1.37
			c0,0.57,0.21,1.02,0.62,1.36c0.41,0.34,1.01,0.51,1.79,0.51c0.75,0,1.34-0.17,1.76-0.52C374.03,64.38,374.24,63.93,374.24,63.38z"
			/>
		<path class="st1" d="M386.39,64.97c0,0.7-0.11,1.33-0.34,1.9c-0.23,0.57-0.53,1.05-0.92,1.45c-0.39,0.4-0.85,0.71-1.39,0.93
			c-0.54,0.22-1.12,0.32-1.76,0.32c-0.64,0-1.22-0.11-1.76-0.32c-0.54-0.22-1-0.52-1.39-0.93c-0.39-0.4-0.7-0.89-0.91-1.45
			c-0.22-0.57-0.33-1.2-0.33-1.9s0.11-1.33,0.33-1.9c0.22-0.57,0.52-1.05,0.91-1.45c0.39-0.4,0.85-0.71,1.39-0.93
			c0.54-0.22,1.12-0.32,1.76-0.32c0.64,0,1.22,0.11,1.76,0.32c0.54,0.22,1,0.52,1.39,0.93c0.39,0.4,0.7,0.89,0.92,1.45
			C386.27,63.64,386.39,64.27,386.39,64.97z M384.93,64.97c0-0.47-0.06-0.92-0.19-1.33c-0.12-0.42-0.31-0.78-0.56-1.1
			c-0.25-0.32-0.56-0.57-0.93-0.76c-0.37-0.19-0.79-0.28-1.27-0.28c-0.48,0-0.9,0.09-1.26,0.28c-0.36,0.19-0.67,0.44-0.92,0.76
			c-0.25,0.32-0.44,0.68-0.57,1.1c-0.12,0.42-0.18,0.86-0.18,1.33s0.06,0.92,0.18,1.33c0.12,0.42,0.31,0.78,0.57,1.1
			c0.25,0.32,0.56,0.57,0.92,0.76c0.36,0.19,0.78,0.28,1.26,0.28c0.48,0,0.9-0.09,1.27-0.28s0.68-0.44,0.93-0.76
			c0.25-0.32,0.44-0.68,0.56-1.1S384.93,65.44,384.93,64.97z"/>
		<path class="st1" d="M395.84,69.07c0,0.08-0.05,0.15-0.14,0.21c-0.09,0.06-0.19,0.1-0.27,0.13c-0.19,0.07-0.38,0.1-0.56,0.1
			c-0.13,0-0.24-0.06-0.33-0.18c-0.09-0.13-0.16-0.3-0.22-0.48c-0.03-0.11-0.05-0.19-0.08-0.25s-0.05-0.14-0.08-0.25
			c-0.42,0.43-0.88,0.74-1.39,0.94c-0.51,0.19-1.09,0.29-1.76,0.29c-0.39,0-0.77-0.05-1.13-0.15c-0.36-0.1-0.68-0.26-0.95-0.46
			c-0.27-0.21-0.49-0.48-0.65-0.81c-0.17-0.33-0.25-0.73-0.25-1.2c0-0.97,0.3-1.68,0.89-2.12c0.59-0.44,1.43-0.71,2.52-0.81
			l2.67-0.22v-0.3c0-0.62-0.18-1.11-0.54-1.48c-0.36-0.37-0.96-0.56-1.78-0.56c-0.54,0-1,0.06-1.4,0.18
			c-0.4,0.12-0.76,0.27-1.08,0.44c-0.07,0.04-0.13,0.07-0.19,0.09c-0.05,0.02-0.12,0.03-0.21,0.03c-0.16,0-0.29-0.13-0.39-0.38
			c-0.06-0.11-0.09-0.19-0.11-0.24c-0.01-0.05-0.02-0.11-0.02-0.16c0-0.07,0.03-0.13,0.1-0.19c0.06-0.06,0.18-0.13,0.36-0.21
			c0.42-0.19,0.85-0.34,1.29-0.46c0.44-0.12,1.02-0.18,1.73-0.18c1.26,0,2.19,0.3,2.8,0.91c0.29,0.27,0.5,0.61,0.64,1.02
			c0.14,0.41,0.21,0.93,0.21,1.56v3.84c0,0.27,0.03,0.49,0.09,0.68s0.1,0.31,0.13,0.39C395.81,68.9,395.84,69,395.84,69.07z
			 M394.12,65.72v-0.89l-2.41,0.22c-0.74,0.07-1.3,0.24-1.67,0.52c-0.38,0.28-0.57,0.71-0.57,1.29c0,0.58,0.17,1,0.5,1.25
			c0.33,0.26,0.73,0.38,1.19,0.38c0.23,0,0.52-0.03,0.86-0.1c0.34-0.07,0.67-0.2,0.98-0.4c0.31-0.2,0.58-0.48,0.79-0.85
			C394.01,66.79,394.12,66.31,394.12,65.72z"/>
		<path class="st1" d="M399.88,69.01c0,0.15-0.04,0.26-0.11,0.32c-0.04,0.03-0.11,0.05-0.19,0.08c-0.08,0.03-0.22,0.04-0.42,0.04
			c-0.2,0-0.34-0.01-0.41-0.04s-0.13-0.05-0.17-0.08c-0.07-0.07-0.11-0.17-0.11-0.32V56.39c0-0.19,0.04-0.32,0.13-0.4
			c0.03-0.03,0.08-0.05,0.16-0.08c0.08-0.03,0.18-0.05,0.29-0.08c0.22-0.04,0.38-0.06,0.48-0.06c0.13,0,0.22,0.02,0.26,0.06
			c0.06,0.05,0.09,0.15,0.09,0.28V69.01z"/>
	</g>
</g>
</svg>
