<?xml version="1.0" encoding="utf-8"?>
<!-- Generator: Adobe Illustrator 25.4.1, SVG Export Plug-In . SVG Version: 6.00 Build 0)  -->
<svg version="1.1" id="Layer_1" xmlns="http://www.w3.org/2000/svg" xmlns:xlink="http://www.w3.org/1999/xlink" x="0px" y="0px"
	 viewBox="0 0 121.29 80" style="enable-background:new 0 0 121.29 80;" xml:space="preserve">
<style type="text/css">
	.st0{fill:#674EC8;}
</style>
<g>
	<path class="st0" d="M118.3,0.08h-8.13c-7.21,0-11.56,2.97-14.83,10.18L79.69,44.97l-9.2-21.04c-0.82-1.97-0.9-4.12,0-6.16l2-4.55
		c3.12-7.29,6.01-9.43,10.41-10.33C82.5,0.67,81.07,0,77.57,0H66.24c-6.9,0-11.94,2.89-14.83,10.18l-13.68,34.8L25.67,10.33
		C23.24,3.2,18.15,0.08,10.92,0.08H2.86c-2.05,0-3.5,1.66-2.58,4.17l27.43,70.21C29.53,79.1,30.6,80,35.69,80s8.9-2.27,11.63-8.56
		l10.87-25l12.14,28.02c2,4.5,2.89,5.54,8,5.54c5.01,0,8.49-2.2,11.45-8.56l31.17-67.19C122.03,1.81,120.42,0.08,118.3,0.08z"/>
</g>
</svg>
