<?xml version="1.0" encoding="utf-8"?>
<!-- Generator: Adobe Illustrator 25.4.1, SVG Export Plug-In . SVG Version: 6.00 Build 0)  -->
<svg version="1.1" id="Layer_1" xmlns="http://www.w3.org/2000/svg" xmlns:xlink="http://www.w3.org/1999/xlink" x="0px" y="0px"
	 viewBox="0 0 300.54 80" style="enable-background:new 0 0 300.54 80;" xml:space="preserve">
<style type="text/css">
	.st0{fill:#674EC8;}
</style>
<g>
	<path class="st0" d="M102.02,1.61h-3.56c-5,0-8.94,3.93-8.94,8.92v44.62c0,1.43,0.8,2.22,2.23,2.22h5.79c3.93,0,6.7-2.81,6.7-6.74
		V3.79C104.2,2.34,103.45,1.61,102.02,1.61z M230.91,1.55c-4.61,0-8.81,1.64-11.04,4.09C216.84,2.61,210.79,0,204.46,0
		c-16.24,0-29.41,13.19-29.41,29.43c0,16.26,13.17,29.43,29.41,29.43c5.68,0,10.31-1.81,13.98-4.79
		c-0.21,9.08-5.58,13.44-16.31,15.13c-1.48,0.21-2.32,1.39-1.64,2.99c2.23,4.98,6.22,7.81,10.9,7.81c8.49,0,19.23-6.38,21.23-19.98
		c0.32-2.34,0.53-6.33,0.59-9.4V3.73C233.14,2.29,232.35,1.55,230.91,1.55z M204.46,44.62c-8.27,0-15.03-6.79-15.03-15.13
		c0-8.4,6.75-15.14,15.03-15.14c8.35,0,14.71,6.79,14.71,15.14C219.17,37.83,212.81,44.62,204.46,44.62z M140.36,0
		c-14.51,0-25.98,7.6-25.98,22.11v32.99c0,1.43,0.8,2.21,2.23,2.21h5.79c3.93,0,6.7-2.81,6.7-6.74V23.8c0-6.27,3.5-9.56,11.2-9.56
		c7.76,0,11.15,3.29,11.15,9.56v31.23c0,1.43,0.81,2.22,2.24,2.22l5.79,0.02c3.88,0,6.68-2.82,6.68-6.75V22
		C166.22,7.59,154.86,0,140.36,0z M271.11,0c-16.24,0-29.41,13.19-29.41,29.43c0,16.26,13.17,29.43,29.41,29.43
		c16.26,0,29.43-13.17,29.43-29.43C300.54,13.19,287.37,0,271.11,0z M271.11,44.62c-8.27,0-15.03-6.79-15.03-15.13
		c0-8.4,6.76-15.14,15.03-15.14c8.29,0,15.03,6.79,15.03,15.14C286.14,37.83,279.46,44.62,271.11,44.62z M82.68,1.55H77
		c-5.04,0-8.08,2.07-10.36,7.11L55.7,32.93l-6.43-14.71c-0.57-1.38-0.63-2.88,0-4.31l1.39-3.18c2.18-5.09,4.2-6.59,7.27-7.22
		c-0.27-1.55-1.27-2.02-3.72-2.02H46.3c-4.83,0-8.34,2.02-10.37,7.11l-9.56,24.32L17.94,8.72c-1.7-4.99-5.25-7.17-10.31-7.17H2
		c-1.43,0-2.45,1.16-1.81,2.91l19.17,49.07c1.27,3.25,2.02,3.88,5.57,3.88s6.22-1.59,8.13-5.99l7.6-17.48l8.49,19.59
		c1.39,3.14,2.02,3.88,5.59,3.88c3.5,0,5.93-1.54,8-5.99L84.54,4.47C85.29,2.77,84.16,1.55,82.68,1.55z"/>
</g>
</svg>
