<?xml version="1.0" encoding="utf-8"?>
<!-- Generator: Adobe Illustrator 25.4.1, SVG Export Plug-In . SVG Version: 6.00 Build 0)  -->
<svg version="1.1" id="Layer_1" xmlns="http://www.w3.org/2000/svg" xmlns:xlink="http://www.w3.org/1999/xlink" x="0px" y="0px"
	 viewBox="0 0 203 80" style="enable-background:new 0 0 203 80;" xml:space="preserve">
<style type="text/css">
	.st0{fill:#1F2225;}
	.st1{fill:#31ADD1;}
</style>
<g>
	<path class="st0" d="M0,22.2h14.2c8.4,0,13.7,4.8,13.7,12v0.1c0,8-6.5,12.3-14.4,12.3H6.3v11.5H0V22.2z M13.7,40.8
		c4.8,0,7.8-2.7,7.8-6.4v-0.1c0-4.2-3-6.4-7.8-6.4H6.3v12.9H13.7z"/>
	<path class="st0" d="M43.4,21.9h5.8l15.8,36.2h-6.7l-3.6-8.7h-17l-3.7,8.7h-6.5L43.4,21.9z M52.4,43.8l-6.2-14.4l-6.2,14.4H52.4z"
		/>
	<path class="st0" d="M68.2,52.9l3.8-4.5c3.4,3,6.9,4.7,11.3,4.7c3.9,0,6.4-1.8,6.4-4.5v-0.1c0-2.6-1.4-3.9-8.1-5.5
		c-7.6-1.9-12-4.1-12-10.7v-0.1c0-6.2,5.1-10.4,12.3-10.4c5.2,0,9.4,1.6,13,4.5l-3.4,4.8c-3.2-2.4-6.5-3.7-9.7-3.7
		c-3.7,0-5.8,1.9-5.8,4.3v0.1c0,2.8,1.6,4,8.5,5.6c7.6,1.9,11.5,4.6,11.5,10.5v0.1c0,6.7-5.3,10.7-12.8,10.7
		C77.7,58.6,72.6,56.7,68.2,52.9z"/>
	<path class="st0" d="M171.7,22.2h5.8L196.8,47V22.2h6.2v35.9h-5.3l-19.8-25.6v25.6h-6.2V22.2z"/>
	<g>
		<path class="st0" d="M120.4,52.9c-6.9,0-11.9-5.7-11.9-12.8V40c0-7,5-12.7,11.9-12.7c4.1,0,7.2,1.8,10.1,4.5l0.1-0.1l2.6-5.9
			c-3.1-2.6-6.9-4.3-12.6-4.3c-10.9,0-18.5,8.4-18.5,18.6v0.1c0,9.8,7.1,17.7,16.8,18.4l2.5-5.8C121,52.9,120.7,52.9,120.4,52.9z"/>
	</g>
	<polygon class="st0" points="150.3,23.4 147.3,30.8 152.9,43.8 141.8,43.8 139.4,49.4 155.2,49.4 158.8,58.1 165.5,58.1 	"/>
	<path class="st1" d="M156.2,0c-2.5,0-4.6,2-4.6,4.6c0,1.6,0.9,3,2.1,3.8l-5.7,13.5h-4.3L122.5,71c-0.3-0.1-0.7-0.1-1-0.1
		c-2.5,0-4.6,2-4.6,4.6s2,4.6,4.6,4.6s4.6-2,4.6-4.6c0-1.6-0.9-3-2.1-3.8l5.7-13.5h4.9L155.1,9c0.3,0.1,0.7,0.1,1,0.1
		c2.5,0,4.6-2,4.6-4.6C160.8,2,158.7,0,156.2,0z"/>
</g>
</svg>
