<?xml version="1.0" encoding="utf-8"?>
<!-- Generator: Adobe Illustrator 25.4.1, SVG Export Plug-In . SVG Version: 6.00 Build 0)  -->
<svg version="1.1" xmlns="http://www.w3.org/2000/svg" xmlns:xlink="http://www.w3.org/1999/xlink" x="0px" y="0px"
	 viewBox="0 0 80 80" style="enable-background:new 0 0 80 80;" xml:space="preserve">
<style type="text/css">
	.st0{fill:#0C0C11;}
	.st1{fill:url(#SVGID_1_);}
	.st2{fill:#FFFDFE;}
</style>
<g id="Layer_1">
	<path class="st0" d="M-382.1-885.5c-0.7-0.1-1.8,0-2.5,0c0.5-0.4,1.2-0.7,1.6-0.5c0.1,0,0.1,0,0.2,0.1
		C-382.6-885.8-382.3-885.6-382.1-885.5z"/>
	<g id="text835">
	</g>
</g>
<g id="Layer_2">
	<radialGradient id="SVGID_1_" cx="50.4065" cy="28.8248" r="27.7345" gradientUnits="userSpaceOnUse">
		<stop  offset="0" style="stop-color:#FFFFFF"/>
		<stop  offset="6.410760e-03" style="stop-color:#FFFCFE"/>
		<stop  offset="0.1719" style="stop-color:#F6BBD9"/>
		<stop  offset="0.3348" style="stop-color:#EF82BA"/>
		<stop  offset="0.4909" style="stop-color:#E954A1"/>
		<stop  offset="0.639" style="stop-color:#E4308D"/>
		<stop  offset="0.777" style="stop-color:#E1167F"/>
		<stop  offset="0.9012" style="stop-color:#DF0676"/>
		<stop  offset="0.9997" style="stop-color:#DE0173"/>
	</radialGradient>
	<circle class="st1" cx="40" cy="40" r="40"/>
	<g>
		<rect x="37.4" y="25.1" class="st2" width="5.4" height="29"/>
		<path class="st2" d="M66.9,45c-1.2-1.9-2.6-2.9-3.8-3.4c3-0.7,7.1-2.7,7.1-8c0-8.1-6.9-8.6-9.5-8.6c-1.9,0-5.7,0-7.4,0h-0.9h-4.5
			v29h5.4V42.1h1.8c2.8,0,4,1.7,4,1.7l6.8,10.4h6.6C72.5,54.1,69.7,49.3,66.9,45z M53.3,30.1h7.5c0,0,3.9-0.4,3.9,3.4
			c0,3.8-2.7,3.9-4.4,3.9c-1.3,0-5.2,0-6.9,0V30.1z"/>
		<path class="st2" d="M17.9,25.1l-10.4,29h5.7l2.2-6.5h11.1l2.2,6.5h6.1L24,25.1H17.9z M17.2,42.5l3.8-11.2l3.8,11.2H17.2z"/>
	</g>
</g>
</svg>
