<?xml version="1.0" encoding="utf-8"?>
<!-- Generator: Adobe Illustrator 25.4.1, SVG Export Plug-In . SVG Version: 6.00 Build 0)  -->
<svg version="1.1" xmlns="http://www.w3.org/2000/svg" xmlns:xlink="http://www.w3.org/1999/xlink" x="0px" y="0px"
	 viewBox="0 0 223.5 80" style="enable-background:new 0 0 223.5 80;" xml:space="preserve">
<style type="text/css">
	.st0{fill:#0C0C11;}
	.st1{fill:url(#SVGID_1_);}
	.st2{fill:#DE0173;}
	.st3{fill:#FFFDFE;}
</style>
<g id="Layer_1">
	<path class="st0" d="M-238.6-885.5c-0.7-0.1-1.8,0-2.5,0c0.5-0.4,1.2-0.7,1.6-0.5c0.1,0,0.1,0,0.2,0.1
		C-239.1-885.8-238.8-885.6-238.6-885.5z"/>
	<g id="text835">
	</g>
</g>
<g id="Layer_2">
	<g>
		<radialGradient id="SVGID_1_" cx="193.9098" cy="28.8248" r="27.7345" gradientUnits="userSpaceOnUse">
			<stop  offset="0" style="stop-color:#FFFFFF"/>
			<stop  offset="6.410760e-03" style="stop-color:#FFFCFE"/>
			<stop  offset="0.1719" style="stop-color:#F6BBD9"/>
			<stop  offset="0.3348" style="stop-color:#EF82BA"/>
			<stop  offset="0.4909" style="stop-color:#E954A1"/>
			<stop  offset="0.639" style="stop-color:#E4308D"/>
			<stop  offset="0.777" style="stop-color:#E1167F"/>
			<stop  offset="0.9012" style="stop-color:#DF0676"/>
			<stop  offset="0.9997" style="stop-color:#DE0173"/>
		</radialGradient>
		<circle class="st1" cx="183.5" cy="40" r="40"/>
		<g>
			<rect x="80.8" y="25.6" class="st2" width="5.4" height="29"/>
			<polygon class="st2" points="108.5,45 97.1,25.6 91.6,25.6 91.6,54.6 97.1,54.6 97.1,35.8 108.5,54.6 113.6,54.6 113.6,25.6 
				108.5,25.6 			"/>
			<polygon class="st2" points="139.5,25.6 131.3,25.6 125.9,25.6 117.6,25.6 117.6,30.5 125.9,30.5 125.9,54.6 131.3,54.6 
				131.3,30.5 139.5,30.5 			"/>
			<path class="st2" d="M39.7,25.6h-7h-5.4v29h5.4v-11c1.6,0,3.6,0,5.3,0c3.1,0,10.2-0.5,10.2-9.3S39.7,25.6,39.7,25.6z M37.3,38.8
				h-4.6v-8.3c1.4,0,3.6,0,4.3,0c1.1,0,5.7-0.1,5.7,4.3C42.7,39.2,37.3,38.8,37.3,38.8z"/>
			<path class="st2" d="M68.5,42.1c3-0.7,7.1-2.7,7.1-8c0-8.1-6.9-8.6-9.5-8.6c-1.9,0-5.7,0-7.4,0h-0.9h-4.5v29h5.4V42.5h1.8
				c2.8,0,4,1.7,4,1.7l6.8,10.4h6.6c0,0-2.9-4.8-5.6-9.1C71,43.6,69.7,42.6,68.5,42.1z M58.7,30.5h7.5c0,0,3.9-0.4,3.9,3.4
				s-2.7,3.9-4.4,3.9c-1.3,0-5.2,0-6.9,0V30.5z"/>
			<path class="st2" d="M13.5,36.9c-2.4-0.7-5.2-1.6-6.4-2.5C5.9,33.4,6,30,10.9,30c5,0,5.2,4.1,5.2,4.1h5.7c-0.6-8.4-8-9-10.9-9
				C8,25,1,26.5,1,33.4s8.2,8.5,11.5,9.2c3.3,0.7,4.5,2.2,4.5,3.7c0,1.5-1.1,4-5.9,4s-5.7-5.6-5.7-5.6L0,45.3
				c1.1,7.5,6.2,9.9,11.3,9.9s11.3-2.5,11.3-9.3S15.9,37.6,13.5,36.9z"/>
		</g>
		<g>
			<rect x="180.9" y="25.1" class="st3" width="5.4" height="29"/>
			<path class="st3" d="M210.4,45c-1.2-1.9-2.6-2.9-3.8-3.4c3-0.7,7.1-2.7,7.1-8c0-8.1-6.9-8.6-9.5-8.6c-1.9,0-5.7,0-7.4,0h-0.9
				h-4.5v29h5.4V42.1h1.8c2.8,0,4,1.7,4,1.7l6.8,10.4h6.6C216.1,54.1,213.2,49.3,210.4,45z M196.8,30.1h7.5c0,0,3.9-0.4,3.9,3.4
				c0,3.8-2.7,3.9-4.4,3.9c-1.3,0-5.2,0-6.9,0V30.1z"/>
			<path class="st3" d="M161.4,25.1l-10.4,29h5.7l2.2-6.5H170l2.2,6.5h6.1l-10.9-29H161.4z M160.7,42.5l3.8-11.2l3.8,11.2H160.7z"/>
		</g>
	</g>
</g>
</svg>
