<?xml version="1.0" encoding="utf-8"?>
<!-- Generator: Adobe Illustrator 25.4.1, SVG Export Plug-In . SVG Version: 6.00 Build 0)  -->
<svg version="1.1" id="Layer_4" xmlns="http://www.w3.org/2000/svg" xmlns:xlink="http://www.w3.org/1999/xlink" x="0px" y="0px"
	 viewBox="0 0 404.51 80.27" style="enable-background:new 0 0 404.51 80.27;" xml:space="preserve">
<style type="text/css">
	.st0{fill:#38418C;}
	.st1{fill:#BCBCBC;}
</style>
<g id="Layer_1_00000054261967609420979400000001690335293928106166_">
	<g id="airblue">
		<path id="blue" class="st0" d="M149.08,0h21.82v27.27c6.49-6.87,13.01-7.27,16.36-7.27c9.27,0,23.87,4.88,23.87,29.39
			c0,20.5-10.47,30.59-23.87,30.59c-3.83,0-13.37-2.5-16.36-9.09v7.27h-21.82V0z M170.9,48.79c0,4.57,0.88,7.88,2.64,9.93
			c1.64,2,4.11,3.13,6.69,3.08c2.49,0,8.82-2.06,8.82-13.23c0-9.52-6.15-12.21-8.51-12.21c-2.66-0.08-5.21,1.04-6.95,3.05
			C171.79,41.5,170.9,44.63,170.9,48.79L170.9,48.79z M223.59,0h21.82v78.18h-21.82V0z M321.79,78.18h-23.64v-9.09
			c-2.85,7.43-9.54,10.9-18.66,10.9c-6.11,0-10.88-1.79-14.33-5.38c-3.45-3.59-5.18-9.12-5.19-16.58V21.81h23.64v30.91
			c0,6.25,4.84,9.09,7.27,9.09c2.65,0,7.28-2.82,7.28-9.09V21.81h23.64V78.18z M396.33,54.55h-41.82c0.39,3.53,1.53,7.07,3.02,8.8
			c2.01,2.44,5.03,3.82,8.2,3.73c2.13,0,4.22-0.56,6.07-1.62c1.47-0.97,2.75-2.19,3.78-3.62l21.34,2c-3.27,5.77-7.2,9.9-11.81,12.4
			c-4.61,2.5-11.22,3.75-19.84,3.76c-7.48,0-13.37-1.07-17.67-3.21c-4.3-2.14-7.86-5.55-10.68-10.22
			c-2.82-4.67-4.23-10.15-4.23-16.45c0-8.97,2.83-16.23,8.49-21.78c5.66-5.55,13.48-8.32,23.45-8.32c8.09,0,12.66,1.24,17.34,3.73
			c4.6,2.41,8.33,6.18,10.68,10.81c2.45,4.72,3.67,10.86,3.67,18.43L396.33,54.55z M376.33,45.46c-0.43-4.22-1.97-7.55-3.82-9.37
			s-4.27-2.74-7.28-2.74c-3.29-0.1-6.42,1.45-8.34,4.13c-1.32,1.72-2.04,4.58-2.4,7.98L376.33,45.46z"/>
		<path id="air" class="st1" d="M49.07,54.65V41.68c0-4.32-0.16-7.32-0.51-8.97c-0.46-2.42-1.5-4.69-3.02-6.61
			c-1.43-1.75-3.68-3.2-6.74-4.35c-3.06-1.15-7.03-1.73-11.92-1.73c-4.23-0.08-8.44,0.61-12.42,2.04c-3.73,1.36-6.59,3.29-8.57,5.79
			c-1.98,2.5-3.39,5.78-4.22,9.85l9.49,1.3c1.04-4.07,2.65-6.91,4.83-8.51c2.18-1.6,5.55-2.41,10.11-2.41c4.88,0,8.57,1.1,11.05,3.3
			c1.84,1.62,2.76,4.42,2.76,8.38c0,0.36,0,1.21-0.05,2.54c-3.7,1.3-9.47,2.41-17.3,3.35c-2.91,0.31-5.8,0.79-8.65,1.46
			c-2.49,0.68-4.85,1.75-6.99,3.19c-2.09,1.44-3.81,3.36-5.01,5.6c-1.29,2.36-1.94,5.01-1.91,7.7c0,4.79,1.7,8.72,5.09,11.8
			C8.47,78.46,12.72,80,19.02,80c7.63,0,14.35-2.48,21.08-8.37c0.33,2.7,0.73,4.54,1.74,6.56h10.9c-1.22-2.2-2.61-3.97-3.02-6.37
			C49.31,69.42,49.07,63.7,49.07,54.65z M39.84,53.46c0,4.29-0.52,7.53-1.56,9.73c-1.38,2.86-3.62,5.21-6.4,6.73
			c-3.06,1.67-6.49,2.52-9.98,2.46c-3.78,0-6.64-0.86-8.6-2.59c-3.2-2.8-3.88-7.52-1.59-11.11c0.93-1.41,2.27-2.51,3.83-3.16
			c1.67-0.72,4.49-1.36,8.46-1.94c7.05-1.02,12.33-2.24,15.85-3.68L39.84,53.46z M72.69,78.2h9.1V21.82h-9.08L72.69,78.2z
			 M72.69,10.9h9.1V1.85h-9.08L72.69,10.9z M127.26,20.01c-5.01,0-8.69,3.24-10.9,7.27v-5.45h-9.09V78.2h9.11V49.09
			c0-8.46,1.41-20,10.9-20c3.63,0,6.84,3.72,6.84,3.72l4.07-9.16C138.18,23.65,133.31,20.01,127.26,20.01z"/>
		<path class="st0" d="M387.84,8.23c0.7,0.69,1.63,1.09,2.61,1.13c1.11,0,1.74-0.51,1.74-1.28s-0.64-1.08-1.56-1.47l-1.36-0.6
			c-1.02-0.41-2.04-1.19-2.04-2.66c0-1.59,1.4-2.81,3.34-2.81c1.15,0,2.26,0.46,3.08,1.27l-0.92,1.13
			c-0.59-0.55-1.36-0.85-2.17-0.85c-0.95,0-1.56,0.44-1.56,1.18s0.76,1.07,1.59,1.4l1.34,0.56c1.19,0.51,2.04,1.25,2.04,2.7
			c0,1.62-1.34,2.96-3.56,2.96c-1.34,0-2.63-0.53-3.59-1.47L387.84,8.23z M395.67,0.74h1.93l1.8,4.92l0.66,1.89h0.09l0.66-1.89
			l1.76-4.92h1.95v9.98h-1.66V6.14c0-0.93,0.14-2.26,0.23-3.17h-0.06l-0.83,2.29l-1.72,4.53h-0.82l-1.72-4.53l-0.79-2.27h-0.03
			c0.08,0.92,0.21,2.24,0.21,3.17v4.58h-1.64V0.74z"/>
	</g>
</g>
</svg>
