<?xml version="1.0" encoding="utf-8"?>
<!-- Generator: Adobe Illustrator 25.4.1, SVG Export Plug-In . SVG Version: 6.00 Build 0)  -->
<svg version="1.1" id="Layer_1" xmlns="http://www.w3.org/2000/svg" xmlns:xlink="http://www.w3.org/1999/xlink" x="0px" y="0px"
	 viewBox="0 0 76.7 80" style="enable-background:new 0 0 76.7 80;" xml:space="preserve">
<style type="text/css">
	.st0{fill:#F5A218;}
</style>
<path class="st0" d="M16.7,80c2.7-4.7,5.5-9.3,8.2-14c2.6-4.4,5.2-8.7,7.8-13.1c5.4-9.1,4-17.4-3.6-24.9
	C20.5,19.7,12.2,11.2,3.9,2.7C2.7,1.5,1.6,0.6,0,0.2c1.6-0.3,3.1-0.4,4.6,0.5C16.4,7.2,28.3,13.6,40,20.1c9.6,5.3,19.3,6.4,29.5,2
	c2.4-1,4.4-0.9,6.5,0.7c1,0.8,0.9,1.1,0.1,1.8c-6.2,6-12.4,12.1-18.6,18.2c-8.9,8.7-17.7,17.3-26.6,26c-2.9,2.8-5.8,5.7-8.8,8.5
	C20.6,78.8,18.6,79.3,16.7,80z"/>
</svg>
