<?xml version="1.0" encoding="utf-8"?>
<!-- Generator: Adobe Illustrator 25.4.1, SVG Export Plug-In . SVG Version: 6.00 Build 0)  -->
<svg version="1.1" xmlns="http://www.w3.org/2000/svg" xmlns:xlink="http://www.w3.org/1999/xlink" x="0px" y="0px"
	 viewBox="0 0 453.38 80" style="enable-background:new 0 0 453.38 80;" xml:space="preserve">
<style type="text/css">
	.st0{fill-rule:evenodd;clip-rule:evenodd;fill:#DC2C2B;}
</style>
<g id="Layer_2">
</g>
<g id="Layer_1">
	<g id="_x31_170">
		<g id="Main-Page" transform="translate(-135.000000, -20.000000)">
			<g id="Header">
				<g id="logo-pegasus" transform="translate(135.000000, 20.000000)">
					<g id="a">
						<path id="path-1_00000005264445341442520080000003503693960320156554_" class="st0" d="M413.28,5.19
							C418.8,2.17,424.48,0,431.12,0c3.76,0,7.82,0.7,12.33,2.33c12.49,4.51,7.66,3.57,8.59,3.96c0.93,0.4,1.87,1,0.98,3.29
							c-0.89,2.29-1.56,6.85-2.48,7.9c-0.91,1.05-2.2,0.87-3.34-0.56c-1.13-1.42-4.18-6.53-7.72-7.5c-3.54-0.96-8.02-3.56-15.2,0.3
							c-7.16,3.86-0.66,16.75,2.16,19.17c2.81,2.42,11.93,15.89,12.73,19.39c0.8,3.49,3.17,13.16-4.32,19.71
							c-7.5,6.55-12.63,10.37-28.2,10.67c0,0-4.46-0.12-6.5-0.7c-2.04-0.58-1.87-1.41-3.91-1.37c-2.04,0.04-4.64,0.3-5.37,0.1
							c-0.75-0.19-1.68-0.59-1.33-1.83c0.35-1.25,2.51-5.63,2.51-5.63s0.71-1.88,2.17-2.94c1.46-1.06,0.73-0.84,2.63,1.81
							c1.89,2.64,3.95,3.23,5.25,3.82c1.31,0.59,8.36,0.87,11.31-0.23c2.95-1.08,5.68-4.24,5.83-6.52
							c0.14-2.27,0.29-5.17-5.56-11.46c-5.85-6.3-12.3-15.88-12.61-24.14S404.64,9.9,413.28,5.19L413.28,5.19z M292.57,3.23
							c3.69-1.52,6.87-2,9.62-2c3.54,0,6.34,0.81,8.54,1.23c3.91,0.76,7.08,2.55,9.32,3.34c2.24,0.78,2.05,0.79,4.12,1.99
							c2.05,1.2,0.6,3.49,0.6,3.49s-1.23,4.16-1.94,6.03c-0.71,1.88-0.51,2.49-1.81,2.31c-0.25-0.03-0.43-0.02-0.58-0.01
							c-0.63,0.03-0.63,0.08-2.63-3.23c-2.48-4.08-6.6-7.31-15.13-7.14c-8.52,0.16-9.55,5.97-9.3,10.52
							c0.27,4.54,7.08,13.5,10.68,18.39c3.6,4.89,7.41,11.22,8.22,15.96c0.82,4.74-0.77,10.14-4.22,14.75
							c-3.45,4.61-11.92,8.29-15.24,9.39c-3.32,1.1-12.57,1.9-14.99,1.74c-2.41-0.16-6.7-1.53-8-1.92
							c-0.75-0.22-2.44-0.15-4.08-0.08c-1.23,0.05-2.43,0.1-3.15,0.02c-1.68-0.17-0.79-3.29-0.79-3.29l2.87-5.85l-26.31,0.51
							c-1.31-0.38-0.59-2.05,0.5-3.72c1.09-1.68,0.49-4.14,0.49-4.14l-4.93-19.13l-18.17,0.36c0,0-13.55,22.16-14.46,23.63
							c-0.91,1.46-0.35,1.46-0.35,1.46c2.07,1.82-0.7,2.08-0.7,2.08l-10.75,0.21c-1.49-0.38-0.59-2.06,0.51-2.91
							c1.1-0.85,2.36-3.36,2.36-3.36L229,4.87c0,0,20.39-0.6,21.5-0.41c1.12,0.18,1.14,2.04,0.61,3.08
							c-0.54,1.05-0.16,1.66-0.16,1.66s12.32,52.87,12.89,54.1c0.58,1.23,0.02,1.44,1.7,2.04c1.68,0.59,1.14,1.83,1.14,1.83
							c0.91-1.26,3.21,3.45,3.96,4.47c0.76,1.02,3.92,1.58,6.16,2.16c2.24,0.58,6.86,0.27,11.26-2.5c4.41-2.78,3.79-6.69,2.06-10.58
							c-1.73-3.89-10.57-12.6-13.05-16.89c-2.48-4.29-6.55-15.58-1.7-25.8C280.22,7.81,284.09,6.69,292.57,3.23L292.57,3.23z
							 M229.27,22.02l-8.32,13.18l11.49-0.23L229.27,22.02L229.27,22.02z M155.12,10.45c9.03-5.06,15.95-7.13,23.57-7.13
							c0.45,0,0.9,0.01,1.35,0.02c8.16,0.26,11.13,0.4,14.67,1.58c3.54,1.17,4.66,1.76,6.52,1.94c0.39,0.04,0.8,0.02,1.2,0
							c1.45-0.07,2.64-0.15,1.81,2.63c-1.06,3.53-4.16,6.91-5.08,6.92c-0.92,0.02-0.74,0.43-1.87-0.78
							c-1.13-1.22-4.35-5.5-7.32-6.06c-2.97-0.56-9.84-0.63-14.44,1.52c-4.6,2.16-11.18,7.65-15.17,13.72
							c-3.98,6.08-7.93,14.21-8.96,19.61c-1.03,5.39-2.4,12.44,0.25,15.9c2.65,3.46,7.1,3.38,8.94,2.93
							c1.85-0.45,8.46-4.51,10.99-8.48c2.54-3.98,4.85-9.81,5.39-11.06c0.53-1.25,0.33-2.28-0.43-3.09
							c-0.75-0.82-1.88-1.62-1.89-2.44c-0.02-0.83,0.52-2.08,0.52-2.08l23.91-0.46c0,0,2.44,1.8,0.07,4.34c0,0-2.56,1.91-3.28,3.37
							c-0.72,1.46-3.55,10.4-3.9,11.65c-0.36,1.25-1.89,9.54-4.25,12.49c-2.36,2.94-2,2.93-2,2.93l-14.08,0.28
							c0,0,0.69-3.32-2.8-1.6c-3.49,1.72-9.58,4.32-13.1,4.39c-3.52,0.07-11.33-2.05-14.15-3.85c-2.81-1.81-7.32-6.06-9.07-10.57
							c-1.74-4.52-2.43-13.39,1.87-22.98C138.69,26.47,145.56,15.8,155.12,10.45z M377.05,4.97l25.11-0.49c0,0,3.51,0.32,1.29,3.7
							c0,0-13.4,30.41-14.77,32.99s-7.97,18.17-16.5,23.04c-8.53,4.86-15.53,7.99-23.92,8.88c-9.12,0.97-19.32-0.01-26.64-7.31
							c-7.31-7.3-2.97-21.68-0.94-27c2.02-5.33,10.63-27.42,10.63-27.42s0.7-0.8,0.15-1.77c-0.54-0.97-0.93-3.5,0.82-3.93
							c1.75-0.43,2.8-0.06,2.8-0.06l23.71-0.46c0,0,3.7,0.71,0.07,4.11c0,0-0.89-0.37-2.56,4.74c-1.68,5.13-15.38,38.88-15.38,38.88
							s-3.02,9.07,1.23,11.14c3.89,1.95,8.63,0.68,11.02-2.96C355.38,57.68,377.05,4.97,377.05,4.97z M92.77,7.08
							c0,0,37.41-0.91,45.02-0.91c0.52,0,0.91,0,1.13,0.01c3.4,0.15,1.75,3.14,1.75,3.14s-1.1,2.12-2.02,3.83
							c-0.92,1.7-2.84,0.05-2.84,0.05c-1.15-1.25-1.72-0.81-1.72-0.81l-18.72,0.36l-8.75,21.47c0,0,15.13-0.3,16.83-0.32
							c1.7-0.04,2.04-2.16,2.04-2.16c3.38-2.17,2.51,3.12,1.8,6.51c-0.7,3.38-2,4.89-3.33,4.91c-1.33,0.03-1.73-1.65-1.94-2.91
							c-0.21-1.26-1.35-1.45-1.35-1.45l-16.07,0.32L93.86,64.21c0,0,29.7-0.37,29.88-0.58c0.71-0.82,1.66-2.56,1.66-2.56
							c3.95-1.76,3.24,1.2,2.92,4.58c-0.33,3.38-4.06,6.62-4.06,6.62l-57.68,1.12c-2.08,0.03-1.54-1.66-1.54-1.66
							S88.39,16.65,89.48,14.1c1.1-2.55-1.37-2.71-2.51-3.54c-1.15-0.82,1.27-3.4,1.27-3.4L92.77,7.08L92.77,7.08z M21.2,7.39
							l51.15-0.99c0,0,7.85,2.54,8.93,12.06c1.08,9.52-3.79,19.15-11.17,23.03c-7.38,3.87-12.2,4.8-17.79,4.9L36.14,46.7l-8.6,20.91
							c0,0,3.59,3.24-0.1,4.77L0.65,72.9c0,0-1.13-0.6-0.4-2.07c0.72-1.47,22.76-54.98,22.76-54.98s2.4-1.71,0.13-3.73
							c0,0-2.63-1.4-2.82-1.61C19.36,9.48,21.2,7.39,21.2,7.39z M39.36,38.56c0,0,0.8,0.1,2.02,0.1c1.99,0,5.11-0.28,7.63-1.75
							c2.36-1.37,6.25-4.68,7.67-8.65c1.08-3.01,2.49-7.31,0.39-10.59c-1.62-2.53-2.47-3.26-5.45-3.83
							c-1.48-0.28-2.42,0.05-2.42,0.05L39.36,38.56z"/>
					</g>
				</g>
			</g>
		</g>
	</g>
</g>
</svg>
