<?xml version="1.0" encoding="utf-8"?>
<!-- Generator: Adobe Illustrator 25.4.1, SVG Export Plug-In . SVG Version: 6.00 Build 0)  -->
<svg version="1.1" id="Layer_1" xmlns="http://www.w3.org/2000/svg" xmlns:xlink="http://www.w3.org/1999/xlink" x="0px" y="0px"
	 viewBox="0 0 231.06 80" style="enable-background:new 0 0 231.06 80;" xml:space="preserve">
<style type="text/css">
	.st0{fill:#231F20;}
</style>
<g id="Clip-9">
</g>
<g id="Clip-2">
</g>
<g>
	<path class="st0" d="M0,18.25c0-1.19,0.38-4.13,4.21-4.13c0.38,0,1.3,0,2.21,0.46c2.1,1.01,2.1,2.76,2.1,5.51
		c3.67-4.4,8.26-6.42,14.15-6.42c11.75,0,20.46,8.99,20.46,24.68c0,11.38-4.97,24.77-19.45,24.77c-7.63,0-11.21-3.02-15.16-6.52
		v19.18c0,1.2-0.35,4.22-4.31,4.22c-0.73,0-1.46-0.18-2.1-0.46C0.28,78.54,0,77.16,0,75.78L0,18.25 M21.66,20.74
		c-8.64,0-13.3,6.6-13.3,17.15c0,10.64,4.4,18.44,13.21,18.44c4.85,0,7.98-2.47,9.73-4.86c2.57-3.49,3.13-8.63,3.13-12.93
		C34.43,33.67,34.05,20.74,21.66,20.74z"/>
	<path class="st0" d="M86.91,56.42c-5.6,6.14-12.48,6.7-16.88,6.7c-4.78,0-11.4-0.64-16.62-6.42c-5.67-6.24-5.86-14.69-5.86-18.07
		c0-4.4,0.45-12.12,5.67-18.08c5.7-6.32,13.33-6.87,17.26-6.87c13.49,0,22.49,8.63,22.49,24.31C92.96,42.11,92.51,50.18,86.91,56.42
		 M80.86,51.37c3.2-4.13,3.39-9.99,3.39-12.84c0-8.9-2.94-17.79-14.13-17.79c-2.5,0-7.35,0.36-10.83,5.22
		c-2.4,3.49-3.13,8.35-3.13,12.67c0,4.67,0.82,9.72,3.39,13.02c1.84,2.29,5.42,4.68,10.64,4.68C74.34,56.33,78.36,54.68,80.86,51.37
		z"/>
	<path class="st0" d="M106.43,22.75c1.74-5.23,6.99-8.63,12.41-8.63c0.99,0,5.04,0,5.04,4.13c0,3.22-2.57,3.77-3.86,3.95
		c-2.28,0.36-4.69,0.73-7.16,2.29c-6.05,4.22-6.05,10.64-6.05,16.15v18.25c0,1.48-0.28,3.85-4.21,3.85c-3.77,0-4.14-2.57-4.14-3.85
		V17.97c0-1.1,0.38-3.85,4.05-3.85c3.58,0,3.93,2.75,3.93,3.85V22.75"/>
	<path class="st0" d="M135.89,21.83h-4.87c-1.01,0-3.48-0.36-3.48-3.58c0-3.3,2.47-3.58,3.48-3.58h4.97V3.93
		c0-1.19,0.35-3.93,4.12-3.93c3.96,0,4.21,2.65,4.21,3.93v10.74h5.7c1.11,0,3.48,0.28,3.48,3.58c0,3.22-2.47,3.58-3.48,3.58h-5.7
		v23.3c0,5.51,0.09,6.16,0.38,7.25c0.64,2.66,2.38,3.12,4.87,3.31c2.19,0.08,4.5,0.28,4.5,3.48c0,3.22-2.94,3.58-5.42,3.58
		c-12.76,0-12.76-6.88-12.76-14.03L135.89,21.83"/>
	<path class="st0" d="M164.71,40.72c0.17,4.13,1.08,7.8,3.58,10.84c3.11,3.85,6.88,4.49,10.55,4.49c7.25,0,9.82-3.75,11.47-6.32
		c1.46-2.48,1.93-3.4,3.96-3.4c2,0,4.76,1.19,4.76,3.85c0,0.37,0,0.64-0.09,0.91c-0.35,1.75-1.93,3.77-2.92,4.87
		c-6.33,7.15-14.6,7.15-17.17,7.15c-5.98,0-12.03-1.19-16.72-6.42c-4.12-4.68-6.05-11.29-6.05-17.89c0-11.57,6.24-25.06,22.49-25.06
		c2.03,0,4.05,0.19,5.96,0.65c4.14,1.01,7.72,3.02,10.57,6.88c3.01,4.22,4.59,10.19,4.59,15.32c0,3.85-2.94,4.13-4.15,4.13
		L164.71,40.72 M191.03,33.85c-0.35-6.06-3.67-12.76-12.38-12.76c-1.93,0-5.7,0.18-8.9,3.02c-3.67,3.22-4.5,7.62-4.97,9.73
		L191.03,33.85L191.03,33.85z"/>
	<path class="st0" d="M213.62,22.75c1.77-5.23,6.99-8.63,12.41-8.63c0.99,0,5.04,0,5.04,4.13c0,3.22-2.57,3.77-3.86,3.95
		c-2.29,0.36-4.66,0.73-7.16,2.29c-6.05,4.22-6.05,10.64-6.05,16.15v18.25c0,1.48-0.28,3.85-4.21,3.85c-3.77,0-4.15-2.57-4.15-3.85
		V17.97c0-1.1,0.38-3.85,4.05-3.85c3.58,0,3.93,2.75,3.93,3.85L213.62,22.75"/>
</g>
</svg>
