<?xml version="1.0" encoding="utf-8"?>
<!-- Generator: Adobe Illustrator 25.4.1, SVG Export Plug-In . SVG Version: 6.00 Build 0)  -->
<svg version="1.1" xmlns="http://www.w3.org/2000/svg" xmlns:xlink="http://www.w3.org/1999/xlink" x="0px" y="0px"
	 viewBox="0 0 224.6 80" style="enable-background:new 0 0 224.6 80;" xml:space="preserve">
<style type="text/css">
	.st0{clip-path:url(#SVGID_00000114763401074342069690000000350604125834046653_);}
	.st1{fill:#C5C6C8;}
	.st2{clip-path:url(#SVGID_00000062193578745531341240000014578678560283843466_);}
	.st3{clip-path:url(#SVGID_00000042698586925254689540000014971835910772184255_);}
	.st4{fill:#FFFFFF;}
	.st5{clip-path:url(#SVGID_00000034051025590931252930000006277690268609950620_);}
	.st6{fill:#9B9C9E;}
</style>
<g id="Layer_2">
</g>
<g id="Layer_1">
	<g>
		<g>
			<g>
				<defs>
					<rect id="SVGID_1_" width="224.6" height="80"/>
				</defs>
				<clipPath id="SVGID_00000045620446504151905800000001191751949558976141_">
					<use xlink:href="#SVGID_1_"  style="overflow:visible;"/>
				</clipPath>
				<g style="clip-path:url(#SVGID_00000045620446504151905800000001191751949558976141_);">
					<path class="st1" d="M3.9,3.4C2.7,28.8,1.5,54.3,0.3,79.7c55.6-1.1,111.2-2.3,166.8-3.4c18.1,1.1,36.1,2.2,54.2,3.4V3.4
						C163.3,3.7,105.4,4,47.5,4.3C33,4,18.5,3.7,3.9,3.4"/>
				</g>
			</g>
			<g>
				<defs>
					<rect id="SVGID_00000039838188332686993680000018063141443905613717_" width="224.6" height="80"/>
				</defs>
				<clipPath id="SVGID_00000158028751443247503260000002538257095827238016_">
					<use xlink:href="#SVGID_00000039838188332686993680000018063141443905613717_"  style="overflow:visible;"/>
				</clipPath>
				<g style="clip-path:url(#SVGID_00000158028751443247503260000002538257095827238016_);">
					<path class="st1" d="M0.1,79.9l0-0.2l1.4-28.4c0.8-16,1.5-32,2.3-47.9l0-0.2l12.8,0.3c10.3,0.2,20.6,0.4,31,0.7l174-0.9v76.8
						l-0.2,0L167,76.6L0.1,79.9z M4.1,3.6C3.4,19.5,2.6,35.4,1.9,51.3L0.5,79.5L167,76.1l54,3.4V3.6L47.5,4.5
						c-10.3-0.2-20.6-0.4-31-0.7L4.1,3.6z"/>
				</g>
			</g>
			<g>
				<defs>
					<rect id="SVGID_00000036931655689214928520000015891770014527659136_" width="224.6" height="80"/>
				</defs>
				<clipPath id="SVGID_00000061464514537458190710000001415660686484554902_">
					<use xlink:href="#SVGID_00000036931655689214928520000015891770014527659136_"  style="overflow:visible;"/>
				</clipPath>
				<g style="clip-path:url(#SVGID_00000061464514537458190710000001415660686484554902_);">
					<path class="st4" d="M5.5,0.3C4.8,25.7,4.1,51.2,3.4,76.6c55.6-0.6,111.2-1.2,166.8-1.8c18.1,0.6,36.2,1.2,54.2,1.8V0.3
						C166.4,0.6,108.5,0.9,50.6,1.2C35.6,0.9,20.5,0.6,5.5,0.3"/>
				</g>
			</g>
			<g>
				<defs>
					<rect id="SVGID_00000168082022515900730420000005652855980417154206_" width="224.6" height="80"/>
				</defs>
				<clipPath id="SVGID_00000074410174710117724650000000303165607578139541_">
					<use xlink:href="#SVGID_00000168082022515900730420000005652855980417154206_"  style="overflow:visible;"/>
				</clipPath>
				<g style="clip-path:url(#SVGID_00000074410174710117724650000000303165607578139541_);">
					<path class="st1" d="M3.1,76.9l0-0.2c0.6-20.6,1.1-41.2,1.7-61.8L5.3,0.1L50.6,1c57.9-0.3,115.8-0.6,173.7-0.9l0.2,0v76.8
						l-0.2,0L170.1,75L3.1,76.9z M5.7,0.5L5.3,14.9c-0.6,20.5-1.1,41-1.7,61.5l166.5-1.8l54,1.8V0.5C166.3,0.8,108.4,1.1,50.6,1.4
						L5.7,0.5z"/>
				</g>
			</g>
		</g>
		<g>
			<path class="st6" d="M78.4,54.7c0,3.3-1.4,5.6-4.2,7.1c-2.2,1.2-5.4,1.8-9.5,1.8c-4.1,0-7.3-0.6-9.5-1.9c-2.7-1.6-4-4-4-7.4V27.9
				c0-3.3,1.3-5.7,3.9-7.3c2.3-1.4,5.5-2,9.6-2c4,0,7.2,0.6,9.5,1.8c2.8,1.5,4.2,3.8,4.2,7.1v16.8H62.8v10.2c0,0.7,0.2,1.3,0.5,1.7
				c0.3,0.4,0.8,0.6,1.5,0.6c0.7,0,1.1-0.2,1.5-0.6c0.3-0.4,0.5-0.9,0.5-1.7v-8.2h11.6C78.4,46.4,78.4,54.7,78.4,54.7z M66.8,37.7
				V27.6c0-0.7-0.2-1.3-0.5-1.6c-0.3-0.4-0.8-0.5-1.5-0.5c-0.5,0-1,0.2-1.4,0.5c-0.4,0.4-0.6,0.9-0.6,1.6v10.1H66.8z"/>
		</g>
		<g>
			<path class="st6" d="M190,54.7c0,3.3-1.4,5.6-4.2,7.1c-2.2,1.2-5.4,1.8-9.5,1.8c-4.1,0-7.3-0.6-9.5-1.9c-2.7-1.6-4-4-4-7.4V27.9
				c0-3.3,1.3-5.7,3.9-7.3c2.3-1.4,5.5-2,9.6-2c4,0,7.2,0.6,9.5,1.8c2.8,1.5,4.2,3.8,4.2,7.1v16.8h-15.5v10.2c0,0.7,0.2,1.3,0.5,1.7
				c0.3,0.4,0.8,0.6,1.5,0.6c0.7,0,1.1-0.2,1.5-0.6c0.3-0.4,0.5-0.9,0.5-1.7v-8.2H190L190,54.7L190,54.7z M178.4,37.7V27.6
				c0-0.7-0.2-1.3-0.5-1.6c-0.3-0.4-0.8-0.5-1.5-0.5c-0.5,0-1,0.2-1.4,0.5c-0.4,0.4-0.6,0.9-0.6,1.6v10.1H178.4z"/>
		</g>
		<g>
			<path class="st6" d="M108.7,54.7c0,3.3-1.3,5.7-4,7.1c-2.2,1.2-5.3,1.8-9.4,1.8c-4.2,0-7.4-0.6-9.6-1.9c-2.7-1.6-4.1-4-4.1-7.4
				V27.9c0-3.3,1.4-5.7,4.1-7.3c2.3-1.3,5.5-2,9.6-2c3.8,0,6.9,0.8,9.5,2.3c2.6,1.5,3.9,3.7,3.9,6.6V54.7z M97.1,54.6v-27
				c0-0.7-0.2-1.3-0.5-1.6c-0.3-0.4-0.8-0.5-1.5-0.5c-0.5,0-1,0.2-1.4,0.5c-0.4,0.4-0.6,0.9-0.6,1.6v27c0,0.7,0.2,1.3,0.5,1.7
				c0.3,0.4,0.8,0.6,1.5,0.6c0.7,0,1.1-0.2,1.5-0.6C96.9,55.9,97.1,55.3,97.1,54.6"/>
		</g>
		<g>
			<path class="st6" d="M206.2,28.2c0,1.5-0.7,2.6-2.1,3.3c-1.2,0.6-2.8,0.9-4.9,0.9c-2,0-3.6-0.3-4.7-0.8c-1.4-0.7-2.1-1.8-2.1-3.3
				V24h5.8v4.3c0,0.3,0.1,0.6,0.3,0.8c0.2,0.2,0.4,0.3,0.7,0.3c0.3,0,0.5-0.1,0.7-0.3c0.2-0.2,0.2-0.4,0.2-0.8v-1.6
				c0-1.4-0.4-2.3-1.1-2.7c-1.1-0.5-2.1-0.9-3-1.4c-1.4-0.6-2.3-1.2-2.8-1.7c-0.5-0.5-0.7-1.2-0.7-2.2v-2.7c0-1.5,0.7-2.6,2-3.3
				c1.1-0.6,2.7-0.9,4.8-0.9c2,0,3.6,0.3,4.6,0.8c1.3,0.7,2,1.7,2,3.3v4h-5.7V16c0-0.3-0.1-0.5-0.3-0.7c-0.2-0.2-0.4-0.3-0.7-0.3
				c-0.3,0-0.5,0.1-0.7,0.2c-0.2,0.2-0.3,0.4-0.3,0.7v1.9c0,0.8,0.4,1.5,1.3,1.9l2.3,1c1.6,0.7,2.7,1.3,3.1,1.6
				c0.8,0.7,1.2,1.6,1.2,2.7L206.2,28.2L206.2,28.2z"/>
		</g>
		<g>
			<polygon class="st6" points="152.2,18.9 152.2,53.1 160.8,53.1 160.8,63.2 140.7,63.2 140.7,18.9 			"/>
		</g>
		<g>
			<path class="st6" d="M21.5,18.9l11.5,0c3.8,0,5.6,0.2,7.9,0.7c2.1,0.4,3.6,1.4,4.7,2.4c1,1.1,1.7,2.4,2.1,3.9
				c0.4,1.5,0.6,3.9,0.6,7v4.4c0,3.2-0.4,5.6-1.1,7.1c-0.7,1.5-2,2.6-3.9,3.4c-1.9,0.8-4.4,1.2-7.5,1.2h-2.6v14.4H21.5L21.5,18.9
				L21.5,18.9z M33.1,39.9c0,2.1,1.8,2,1.8,2c2.2,0.1,2.2-2,2.2-2V27.5c-0.1-2.4-2-2.1-2-2.1c-2.1,0.2-1.9,2.1-1.9,2.1L33.1,39.9z"
				/>
		</g>
		<g>
			<path class="st6" d="M111.6,18.9l11.5,0c3.8,0,5.6,0.2,7.9,0.7c2.1,0.4,3.6,1.4,4.7,2.4c1,1.1,1.7,2.4,2.1,3.9
				c0.4,1.5,0.6,3.9,0.6,7v4.4c0,3.2-0.4,5.6-1.1,7.1c-0.7,1.5-2,2.6-3.9,3.4c-1.9,0.8-4.4,1.2-7.5,1.2h-2.6v14.4h-11.6
				C111.6,63.3,111.6,18.9,111.6,18.9z M123.1,39.9c0.1,2.1,1.8,2,1.8,2c2.2,0.1,2.2-2,2.2-2V27.5c-0.1-2.4-2-2.1-2-2.1
				c-2.1,0.2-1.9,2.1-1.9,2.1L123.1,39.9z"/>
		</g>
	</g>
</g>
</svg>
