<?xml version="1.0" encoding="utf-8"?>
<!-- Generator: Adobe Illustrator 25.4.1, SVG Export Plug-In . SVG Version: 6.00 Build 0)  -->
<svg version="1.1" id="Layer_1" xmlns="http://www.w3.org/2000/svg" xmlns:xlink="http://www.w3.org/1999/xlink" x="0px" y="0px"
	 viewBox="0 0 31.83 80" style="enable-background:new 0 0 31.83 80;" xml:space="preserve">
<style type="text/css">
	.st0{fill:#ED1C24;}
	.st1{fill:#B49142;}
	.st2{fill:#254AA5;}
</style>
<path class="st0" d="M31.8,38.51c0.06,0.2-0.04,0.37,0.03,0.53c0,0.3,0.01,0.6,0.01,0.9c-0.06,1.42-0.15,2.82-0.15,4.24
	c0,1.32-0.06,2.22-0.06,3.08c0.01,0.22-0.04,1.42-0.03,1.63c0.01,0.73-0.15,1.4-0.24,2.09c-0.29,2.26-1.37,4.26-3.08,5.77
	c-0.61,0.53-1.23,0.98-1.91,1.37c-0.21,0.1-0.43,0.21-0.64,0.32c-0.02,0-0.04,0.01-0.07,0.01h-0.09c-0.35-0.22-0.7-0.45-1.05-0.66
	c-0.74-0.43-1.59-0.75-2.47-0.88c-0.42-0.06-0.91-0.12-1.37-0.06c-2.77,0.35-5.57,2.49-6.84,4.95c-0.39,0.74-0.68,1.49-0.85,2.36
	c-0.1,0.61-0.11,1.38-0.04,2.03c0.22,2.38,1.08,4.33,2.74,5.98c0.88,0.87,1.79,1.58,2.77,2.24c0.36,0.22,0.73,0.45,1.08,0.68
	c0.04,0.02,0.06,0.02,0.06,0.07h0.04v0.03c-1.46-0.05-3.12-0.89-4.22-1.65c-0.81-0.57-1.59-1.1-2.31-1.84
	c-0.4-0.4-0.73-0.85-1.04-1.3c-0.35-0.52-0.73-1.04-1-1.6c-0.76-1.59-1.19-3.59-1.07-5.6c0.08-1.2,0.35-2.32,0.72-3.37
	c0.21-0.59,0.54-1.11,0.86-1.64c1.63-2.67,4.49-4.35,6.97-6.03c1.6-1.07,3.2-2.16,4.8-3.24c1.53-1.04,3.06-2.05,4.38-3.44
	c1.2-1.28,2.16-2.77,2.87-4.3C30.89,40.54,31.55,39.18,31.8,38.51"/>
<path class="st1" d="M31.56,31.46c0.06,0.18,0.04,0.44,0.04,0.66v1.44c0,0.92-0.04,2.04-0.14,2.9c-0.25,1.95-1.14,3.44-2.11,5.03
	c-0.34,0.55-0.72,1.04-1.07,1.57c-0.32,0.46-0.66,0.94-1.06,1.35c-0.65,0.67-1.36,1.28-2.08,1.83c-1.15,0.86-2.26,1.7-3.48,2.43
	c-1.24,0.75-2.42,1.59-3.61,2.39c-2.55,1.71-5.18,3.68-6.95,6.29c-0.51,0.74-0.85,1.57-1.17,2.39c-0.5,1.3-0.78,2.84-0.68,4.43
	c0.09,1.44,0.53,2.74,1.04,3.97c0.34,0.79,0.73,1.56,1.25,2.28c0.58,0.85,1.37,1.64,2.18,2.33c0.83,0.7,1.65,1.35,2.54,1.93
	c0.12,0.09,1.25,0.63,1.39,0.63c0,0.01-0.79-0.14-0.79-0.12c-1.61-0.33-3.12-1.2-4.33-2.19c-2.96-2.44-4.94-5.8-5.11-9.73
	c-0.07-1.37,0.01-2.71,0.45-3.86c1.81-4.68,6.21-8.3,10.2-11.29c1.39-1.06,2.78-2.12,4.18-3.17c0.9-0.68,1.8-1.36,2.7-2.04
	c0.27-0.27,0.53-0.53,0.81-0.79c1.44-1.44,2.7-2.96,3.72-4.63c0.29-0.48,0.59-0.95,0.84-1.45c0.44-0.91,0.79-1.91,0.99-2.93
	C31.38,32.58,31.53,32.03,31.56,31.46"/>
<path class="st2" d="M31.13,0c0.26,0,0.52,0,0.67,0.22c0.18,0.25,0.09,0.98,0.09,1.35c0.01,1.83,0.09,19.89,0.09,21.03
	c0.03,1.25-0.01,2.77-0.03,4.04c-0.05,3.42-1.22,6.48-2.71,9.18c-0.57,1.02-1.04,2.06-1.85,2.96c-0.57,0.64-1.15,1.28-1.78,1.88
	c-1.25,1.16-2.56,2.19-3.88,3.2c-1.37,1.14-2.74,2.28-4.11,3.4c-0.96,0.72-1.93,1.45-2.85,2.26c-0.59,0.52-1.15,1.06-1.74,1.6
	c-0.6,0.55-1.15,1.19-1.72,1.78c-1.7,1.75-3.22,3.74-3.94,6c-0.26,0.79-0.44,1.55-0.56,2.41c-0.1,0.74-0.03,1.55,0.02,2.29
	c0.24,3.8,2,7.17,4.97,9.48c0.93,0.72,1.9,1.36,2.96,1.82c0.21,0.09,0.6,0.33,0.83,0.33v0.03c-3.57-0.44-6.77-1.69-9.51-3.75
	c-0.53-0.38-1-0.84-1.47-1.3c-3.38-3.38-5.04-8.17-4.54-13.37c0.23-2.42,0.8-4.68,1.75-6.73c1.61-3.48,4.24-6.28,7.19-8.95
	c0.65-0.54,1.3-1.07,1.94-1.61c1.11-0.88,2.19-1.79,3.29-2.73c0.51-0.44,1.01-0.88,1.52-1.32c1.48-1.39,3.02-2.74,4.38-4.26
	c1.64-1.86,3.22-3.74,4.58-5.73c0.82-1.2,1.56-2.44,2.3-3.67c0.58-0.95,1.06-1.96,1.51-2.98c1.59-3.63,2.61-7.86,2.75-12.2
	c0.05-1.38-0.05-2.68-0.24-3.93c-0.08-0.43-0.15-0.86-0.23-1.3c-0.06-0.3-0.15-0.63-0.11-0.96C30.74,0.22,30.93,0.1,31.13,0"/>
</svg>
