<?xml version="1.0" encoding="utf-8"?>
<!-- Generator: Adobe Illustrator 25.4.1, SVG Export Plug-In . SVG Version: 6.00 Build 0)  -->
<svg version="1.1" id="Layer_1" xmlns="http://www.w3.org/2000/svg" xmlns:xlink="http://www.w3.org/1999/xlink" x="0px" y="0px"
	 viewBox="0 0 90.63 80" style="enable-background:new 0 0 90.63 80;" xml:space="preserve">
<style type="text/css">
	.st0{fill:#254AA5;}
	.st1{fill:#ED1C24;}
	.st2{fill:#B49142;}
</style>
<g transform="matrix(.806662 0 0 .806662 54.5065 -60.2036)">
	<path class="st0" d="M-20.77,127.13v23.59c0.26,0,0.88-0.35,1.16-0.47c0.36-0.16,0.78-0.26,1.19-0.28
		c1.03-0.06,2.05,0.08,3.04,0.12c1.91,0.06,3.33-0.45,4.63-1.56c0.58-0.5,0.99-1.12,1.35-1.73c1.64-2.82,0.71-5.89-1.31-8.1
		c-0.43-0.48-1.17-1.27-1.73-1.5c0-0.11,0.26-0.39,0.32-0.5c0.11-0.22,0.17-0.45,0.22-0.69c0.33-1.56-0.3-3.07-1.18-4.17
		c-0.85-1.05-2-1.58-3.18-2.01c-0.56-0.19-1.13-0.36-1.7-0.54c-0.41-0.12-0.85-0.23-1.23-0.46c-0.4-0.24-0.72-0.58-1.02-0.95
		c-0.18-0.23-0.38-0.47-0.48-0.76H-20.77z M-17.21,132.83c1.06,0.56,2.47,1.5,2.21,2.97c-0.08,0.42-0.26,0.8-0.56,1.1
		c-0.28,0.26-0.64,0.44-0.99,0.57c-0.14,0.05-0.29,0.1-0.44,0.15c-0.07,0-0.02,0.11-0.01,0.16c0.07,0.5,0.25,0.94,0.57,1.3
		c0.25,0.26,0.58,0.39,0.88,0.57c0.92,0.6,2.05,1.03,2.68,2c0.87,1.33,0.66,3.5-0.69,4.45c-0.3,0.21-0.63,0.37-0.97,0.48
		c-0.2,0.05-0.39,0.11-0.59,0.16c-0.1,0.01-0.22,0.01-0.34,0.04c-0.56-0.02-1.13-0.03-1.7-0.04v-0.05c-0.09,0-0.05-0.25-0.05-0.33
		v-2.94L-17.21,132.83z M22.39,133.83c-0.38,0.43-0.87,0.74-1.29,1.12c-0.55,0.48-1.09,0.96-1.65,1.43v0.05h-0.05v0.05
		c0.23,0,0.38,0.32,0.43,0.49c0.06,0.22,0.02,0.53,0.02,0.78v9.54c0,0.61,0.12,2.57-0.16,2.94v0.05h-0.05v0.04h2.9
		c0-0.07-0.08-0.15-0.11-0.21c-0.06-0.16-0.09-0.32-0.09-0.49c-0.06-1.14-0.01-2.25-0.01-3.43c0.05,0,0.05-0.01,0.05,0.05
		c0.17,0,0.38,0.18,0.5,0.27c0.97,0.67,1.56,1.59,1.74,2.74c0.05,0.29,0.08,0.74-0.05,0.99c0,0.05,0.01,0.05-0.05,0.05v0.04h2.9
		c0-0.41-0.08-0.78-0.15-1.16c-0.29-1.42-0.88-2.82-2.01-3.79c-0.17-0.14-0.33-0.29-0.53-0.37v-0.08c0.16,0,0.37-0.24,0.49-0.33
		c1.07-0.88,1.66-2.19,1.71-3.6h-1.91c-0.24,0-0.58-0.04-0.74,0.07c0,0.01,0,0.01,0,0.01h-0.02c0.03,0.13,0.04,0.25,0.07,0.37v0.5
		c-0.09,0.68-1.15,1.8-1.8,2.06v0.05h-0.08v-7.53C22.48,136.09,22.55,134.01,22.39,133.83L22.39,133.83z M39.76,133.83
		c-0.98,0.85-1.96,1.7-2.95,2.55c-0.06,0-0.04,0.03-0.04,0.09c0.21,0,0.36,0.34,0.4,0.49c0,0.29,0.01,0.59,0.01,0.88v9.49
		c0,0.61,0.13,2.53-0.16,2.89v0.05h-0.03v0.04h2.91c0-0.05,0-0.04-0.06-0.04c-0.02-0.1-0.06-0.21-0.09-0.3
		c-0.02-0.15-0.04-0.3-0.06-0.44c0-1.12-0.01-2.23-0.01-3.35h0.08c0,0.07,0.14,0.12,0.2,0.15c1.12,0.62,1.99,1.81,2.04,3.16
		c0.01,0.26,0.02,0.53-0.07,0.74c0,0.05,0.01,0.05-0.05,0.05v0.04h2.9c0-1.66-0.83-3.65-1.94-4.76c-0.23-0.22-0.47-0.45-0.75-0.56
		v-0.08c0.19,0,0.45-0.28,0.59-0.41c1.01-0.94,1.56-2.09,1.6-3.52c-0.34,0-2.51-0.05-2.62,0.05c-0.03,0.01,0.09,0.78,0.05,0.98
		c-0.16,0.65-1.16,1.76-1.8,1.99v0.05h-0.09v-7.77v-1.73C39.81,134.3,39.83,134.01,39.76,133.83L39.76,133.83z M6.01,140.93
		c-0.26,0.09-0.54,0.11-0.78,0.23c-0.19,0.09-0.39,0.21-0.59,0.3v0.04H4.6c0-0.13-0.24-0.45-0.35-0.49
		c-0.21-0.09-0.53-0.05-0.77-0.05h-1.4c-0.2,0.01-0.41,0.02-0.62,0.02c-0.04,0.02-0.09,0.04-0.13,0.06
		c-0.04,0.12,0.21,0.43,0.23,0.59c0,0.32,0.01,0.64,0.01,0.95v7.69h0.04c0,0.07,0.19,0.04,0.26,0.04h2.41v-4.54
		c0-0.4-0.08-1.16,0.06-1.47c0.21-0.48,0.82-0.79,1.33-0.67c0.31,0.07,0.67,0.36,0.76,0.67c0.11,0.35,0.04,0.86,0.04,1.26v3.14
		c0,0.37-0.07,0.87,0.05,1.18c0.07,0.19,0.26,0.35,0.46,0.4c0.25,0.06,0.56,0.03,0.83,0.04h1.78v-0.04c-0.21,0-0.33-0.44-0.35-0.59
		c-0.01-0.38-0.02-0.74-0.02-1.11v-1.7v-1.91c0-1.03,0.03-2-0.43-2.79c-0.14-0.26-0.41-0.5-0.63-0.69
		c-0.27-0.24-0.55-0.41-0.89-0.49C6.86,140.92,6.43,140.93,6.01,140.93L6.01,140.93z M-4.48,140.96c-0.28,0-0.57,0.01-0.83,0.01
		c-0.18,0.06-0.35,0.1-0.53,0.15c-0.31,0.12-0.72,0.44-0.91,0.73c-0.76,1.09-0.77,2.68-1.03,4.04c-0.05,0.38-0.11,0.77-0.15,1.16
		c-0.04,0.31-0.09,0.67-0.05,0.99c0.08,0.53,0.38,1.01,0.78,1.38c0.78,0.71,2.11,1.03,3.25,0.84c0.16-0.03,0.32-0.08,0.46-0.16
		c0.12-0.08,0.25-0.25,0.41-0.25c0.17-0.01,0.25,0.18,0.36,0.27c0.11,0.09,0.24,0.15,0.39,0.18c0.83,0.01,1.66,0,2.49,0.01v-0.04
		c-0.44,0-0.48-1.58-0.44-1.95c0.06-0.61,0.03-1.28,0.03-1.93v-2.97c0-0.52-0.09-1.22,0.02-1.7c0.05-0.23,0.23-0.53,0.39-0.7v-0.05
		h-2.04c-0.24,0-0.55-0.04-0.74,0.05c-0.17,0.07-0.24,0.25-0.29,0.41h-0.05v-0.05c-0.08,0-0.18-0.11-0.25-0.15
		c-0.16-0.09-0.34-0.16-0.5-0.2C-3.94,140.97-4.2,140.96-4.48,140.96L-4.48,140.96z M13.85,140.96c-0.28,0-0.56,0.01-0.83,0.01
		c-0.17,0.06-0.34,0.1-0.53,0.15c-0.35,0.14-0.75,0.44-0.96,0.76c-0.72,1.09-0.72,2.56-0.97,3.87c-0.14,0.69-0.32,1.61-0.22,2.35
		c0.04,0.32,0.21,0.63,0.4,0.88c0.75,0.96,1.99,1.41,3.28,1.32c0.51-0.05,0.97-0.21,1.45-0.29v1.95c-0.01,0.26,0.03,0.54-0.04,0.76
		c-0.03,0.13-0.09,0.24-0.19,0.34c-0.28,0.28-0.56,0.29-0.89,0.46c-0.9,0-2.55,0.1-3.08-0.53h-0.04v-0.05
		c-0.08,0-0.05,0.25-0.05,0.33v3.15h0.05c0-0.52,1.54-0.43,1.95-0.48c0.76-0.09,1.57-0.02,2.31-0.18c0.86-0.18,1.72-0.8,2.07-1.63
		c0.56-1.28,0.47-2.9,0.47-4.46v-5.33v-1.65c0-0.31-0.03-0.67,0.04-0.95c0.06-0.26,0.24-0.47,0.33-0.71c0.07,0,0.06-0.02,0.06-0.08
		h-1.92c-0.26,0-0.59-0.04-0.81,0.05c-0.19,0.05-0.27,0.24-0.32,0.41c-0.1,0-0.25-0.17-0.34-0.22c-0.14-0.05-0.28-0.1-0.43-0.15
		C14.41,140.98,14.13,140.96,13.85,140.96L13.85,140.96z M31.76,140.96c-0.32,0-0.64,0.01-0.95,0.01c-0.11,0.04-0.22,0.06-0.33,0.08
		c-1.17,0-1.97,1-2.26,1.99c-0.21,0.71-0.25,1.53-0.33,2.27c-0.08,0.73-0.21,1.6-0.11,2.39c0.13,0.9,0.76,1.76,1.58,2.18
		c1.08,0.55,2.84,0.57,4.05,0.22c0.89-0.26,1.67-0.96,2-1.83c0.43-1.06,0.06-2.94-0.08-4.07c-0.05-0.44-0.1-0.89-0.23-1.28
		c-0.15-0.47-0.42-0.95-0.8-1.31C33.69,141.03,32.72,140.95,31.76,140.96z M-3.99,143.09c0.43,0,0.84,0,1.08,0.33
		c0.12,0.17,0.16,3.69,0.05,3.99c-0.11,0.31-0.41,0.63-0.7,0.78c-0.11,0.05-0.22,0.08-0.33,0.13c-0.5,0-0.89-0.18-1.08-0.62
		c-0.13-0.3-0.1-0.59-0.08-0.94c0.01-1.05,0.15-2.69,0.69-3.44C-4.26,143.18-4.12,143.15-3.99,143.09L-3.99,143.09z M14.31,143.09
		c0.39,0,0.88-0.03,1.08,0.3c0.14,0.2,0.14,3.86,0.02,4.14c-0.2,0.43-0.52,0.61-0.89,0.88c-0.45,0-0.75-0.05-1.02-0.4
		c-0.58-0.8-0.09-3.98,0.44-4.68C14.05,143.19,14.16,143.16,14.31,143.09L14.31,143.09z M31.43,143.2c0.38,0,0.72,0,0.97,0.27
		c0.44,0.47,0.41,1.6,0.44,2.29c0.02,0.3,0.06,0.65,0.02,0.95c-0.03,0.41-0.14,0.8-0.32,1.15c-0.15,0.27-0.4,0.38-0.62,0.55
		c-0.38,0-0.69-0.01-0.94-0.27c-0.62-0.62-0.48-1.97-0.44-2.88c0.03-0.61,0.05-1.29,0.37-1.76C31.05,143.32,31.24,143.3,31.43,143.2
		z M-22.76,144.41c-0.11,0.28-0.3,0.55-0.48,0.8c-0.87,1.14-2.17,1.49-3.42,1.97c-0.81,0.3-1.6,0.71-2.31,1.23
		c-2.39,1.71-3.3,4.52-3.76,7.33c-0.14,0.87-0.29,1.75-0.29,2.68h-0.03c0,0.06-0.49,0.04-0.57,0.08c-0.21,0-0.49-0.04-0.67,0.03
		c-0.78,0-1.48,0.01-2.12-0.21c-0.43-0.14-0.78-0.42-1.21-0.57v-0.03h-0.03c0,1.43,0.53,2.41,1.73,3.11
		c0.37,0.21,0.79,0.42,1.25,0.46c0.4,0.04,0.82,0,1.21-0.02c0,0.28-0.26,0.89-0.36,1.16c-0.71,1.88-2.1,3.35-3.9,4.27
		c-0.41,0.21-0.84,0.46-1.3,0.61v0.08c0.12,0.06,0.24,0.1,0.36,0.16c0.19,0.07,0.36,0.14,0.55,0.2c0.79,0.18,1.71,0.26,2.61,0.2
		c3.61-0.28,5.13-3.59,5.35-6.88c0.72,0,1.46-0.19,2.2-0.12c0.31,0.03,0.63,0.07,0.91,0.18c0.2,0.08,0.39,0.16,0.57,0.22
		c0-0.33-0.18-0.7-0.28-0.99c-0.53-1.38-1.64-1.75-3.03-1.93c0.1-0.66,0.21-1.31,0.32-1.98c0.32-1.75,0.95-6.09,3.21-6.16V166
		c0,0.38,0.05,0.85-0.04,1.19c-0.06,0.26-0.25,0.57-0.5,0.7c0,0.07,0.38,0.05,0.46,0.05h4.07v-0.05c-0.2,0-0.36-0.27-0.4-0.42
		c-0.14-0.44-0.07-1.05-0.07-1.56v-3.59v-12.31v-4C-22.72,145.54-22.63,144.82-22.76,144.41L-22.76,144.41z M-20.02,153.77v0.05
		c-0.3,0-0.61,0.17-0.82,0.34c-1.46,1.17-0.58,3.65,1.35,3.39c2.03-0.26,2.34-3.11,0.42-3.69
		C-19.36,153.78-19.67,153.77-20.02,153.77z M24.38,158.41c-0.15,0.06-0.3,0.13-0.46,0.2c-0.1,0.01-0.19,0.03-0.29,0.05h-1.74
		c-0.22,0-0.52-0.03-0.7,0.05c-0.83,0-1.63,0.41-2.09,1.04c-0.96,1.27-0.1,2.74,0.97,3.63c0.71,0.58,1.46,0.84,1.73,1.81
		c0.07,0.24,0.04,0.46-0.13,0.63c-0.41,0.4-1.6-0.16-1.95-0.41c-0.19-0.16-0.37-0.32-0.55-0.48v-0.04c-0.1,0-0.08,0.17-0.08,0.25
		c0,1.03,0,2.07,0,3.1h0.08c0-0.05,0.01-0.06,0.05-0.08c0.35-0.23,0.8-0.21,1.28-0.21h1.62c0.23-0.01,0.47-0.02,0.7-0.02
		c0.61-0.13,1.16-0.54,1.53-1.05c1.34-1.91-0.33-3.48-1.66-4.73c-0.3-0.29-0.89-0.53-0.89-1.01c0-0.16,0.04-0.26,0.18-0.34
		c0.13-0.09,0.31-0.13,0.48-0.08c0.48,0.13,0.63,0.42,1.28,0.42c0.16,0,0.31-0.02,0.43-0.08c0.16-0.06,0.24-0.2,0.28-0.35
		C24.48,160.46,24.51,158.5,24.38,158.41L24.38,158.41z M16.76,158.58c-0.67,0.01-1.3,0.05-1.44,0.19
		c-0.29,0.28-0.19,0.89-0.19,1.32v3.35c0,0.69,0.09,1.52-0.18,2.07c-0.23,0.48-0.42,0.49-0.82,0.74c-0.65,0-1.01-0.64-1.18-1.16
		c-0.17-0.52-0.15-1.35-0.2-1.93c-0.11-1.31-0.23-2.62-0.34-3.92c0.01-0.25,0.13-0.49,0.35-0.59v-0.05h-2.74
		c-0.19,0.13-0.35,0.24-0.43,0.47c-0.1,0.3-0.03,0.67,0.01,0.98c0.09,0.7,0.18,1.4,0.28,2.09c0.29,1.56,0.28,4.19,1.44,5.24
		c0.22,0.19,0.46,0.31,0.73,0.44c0.35,0.17,0.73,0.33,1.17,0.35c0.57,0.03,1.33,0.09,1.83-0.16h0.08v1.4
		c-0.02,0.68-0.02,1.19-0.56,1.58c-0.25,0.18-0.54,0.18-0.81,0.32c-0.8,0-1.85,0.02-2.33-0.66h-0.05v-0.05
		c-0.07,0-0.02,0.23-0.02,0.29v2.89h0.07c0-0.07,0.08-0.07,0.13-0.08c0.25-0.11,0.57-0.08,0.87-0.08c0.49-0.01,1.03-0.02,1.54-0.05
		c0.35-0.01,0.74-0.02,1.07-0.11c1-0.26,2.35-1.17,2.77-2.18c0.44-1.08,0.3-2.51,0.3-3.83v-5.62v-1.94c0-0.32-0.05-0.7,0.04-0.98
		c0.04-0.13,0.13-0.23,0.25-0.29v-0.05C18.12,158.6,17.43,158.58,16.76,158.58L16.76,158.58z M6.75,158.59
		c-0.16,0-0.32,0.03-0.43,0.08c-0.17,0.07-0.22,0.22-0.3,0.35v0.03H5.99c0-0.07-0.13-0.12-0.19-0.15c-0.61-0.35-1.36-0.3-2.15-0.3
		c-0.19,0.06-0.38,0.12-0.57,0.18c-0.28,0.11-0.66,0.38-0.85,0.63c-0.24,0.32-0.44,0.71-0.54,1.1c-0.3,1.16-0.43,2.39-0.61,3.59
		c-0.08,0.54-0.23,1.23-0.08,1.77c0.14,0.54,0.52,1.02,0.98,1.39c0.66,0.52,2.15,0.83,3.08,0.61c0.17-0.03,0.31-0.07,0.44-0.16
		c0.11-0.07,0.21-0.22,0.35-0.22c0.18-0.01,0.24,0.17,0.35,0.27c0.11,0.09,0.23,0.14,0.36,0.16c0.32,0.01,0.63,0.02,0.95,0.02h1.57
		v-0.03c-0.07,0-0.11-0.09-0.15-0.14c-0.33-0.54-0.27-1.29-0.27-2.01v-4.21c0.01-0.7,0.02-1.4,0.04-2.11
		c0.04-0.25,0.22-0.59,0.39-0.78v-0.05H7.23C7.08,158.6,6.91,158.59,6.75,158.59L6.75,158.59z M-20.28,158.6
		c-0.23,0.15-0.35,0.28-0.42,0.55c-0.01,0.23-0.02,0.46-0.04,0.69v5.91c0,0.48,0.08,1.47-0.07,1.85c-0.05,0.12-0.12,0.19-0.21,0.29
		h-0.06v0.05h3.37v-0.05c-0.65,0-0.49-1.43-0.49-1.93v-4.67c-0.01-0.68-0.13-1.5-0.02-2.19c0.03-0.18,0.1-0.37,0.27-0.46v-0.05
		H-20.28z M-16.87,158.6c0.29,0.44,0.16,1.81,0.16,2.45c0,2.14,0,4.26,0,6.4c-0.02,0.16-0.06,0.29-0.16,0.41v0.04h-0.05v0.05h3
		v-0.05c-0.28,0-0.21-1.61-0.21-1.93v-1.94c0-0.4-0.07-0.87,0.02-1.24c0.18-0.74,0.79-1.27,1.51-1.46c0.49-0.13,1.19,0.07,1.53,0.35
		h0.05c-0.09-0.7-0.18-1.41-0.28-2.12c-0.03-0.17-0.02-0.42-0.11-0.56c-0.12-0.18-0.35-0.26-0.54-0.32
		c-0.87-0.25-1.46,0.27-2.02,0.8c-0.4,0-0.29-0.56-0.29-0.87L-16.87,158.6z M-10.36,158.6c0.11,0.11,0.21,0.2,0.26,0.34
		c0.12,0.36,0.05,0.8,0.08,1.19c0.04,0.74,0.08,1.48,0.13,2.22c0.13,2.12,0.8,3.56,2.4,4.87c0.27,0.23,0.54,0.53,0.85,0.67
		c0,0.06,0.04,0.05,0.11,0.05c0.11-0.28,0.21-0.58,0.32-0.87c0.26-0.62,0.5-1.25,0.76-1.86c0.12-0.28,0.24-0.57,0.37-0.87
		c0.07-0.11,0.2-0.2,0.35-0.18c0.1,0.02,0.18,0.1,0.25,0.18c0.24,0.38,0.36,0.86,0.54,1.26c0.33,0.74,0.69,1.56,0.92,2.33h0.08
		c0-0.05,0.04-0.05,0.08-0.08c0.4-0.26,0.76-0.6,1.12-0.91c0.19-0.19,0.4-0.37,0.6-0.55c0.34-0.43,0.62-0.92,0.87-1.4
		c0.66-1.27,0.65-3.3,0.73-4.86c0.01-0.4,0-0.79,0.08-1.15c0.03-0.15,0.12-0.27,0.26-0.34v-0.05h-2.45c-0.36,0-0.77-0.04-1.06,0.08
		c-0.03,0.05,0.1,0.15,0.14,0.2c0.27,0.32,0.21,2.12,0.12,2.6c-0.06,0.31-0.13,0.63-0.19,0.92H-2.7c-0.1-0.19-0.21-0.39-0.32-0.59
		c-0.32-0.59-0.64-1.21-1.07-1.76c-0.2-0.26-0.44-0.49-0.64-0.76c-0.58,0-1.81,2.61-2.15,3.05v0.05h-0.05
		c-0.07-0.31-0.13-0.63-0.2-0.95c-0.09-0.63-0.08-1.38-0.01-2.02c0.02-0.12,0.03-0.25,0.05-0.36c0.04-0.15,0.16-0.29,0.28-0.39
		v-0.03h0.06v-0.05H-10.36z M4.94,160.71c0.37,0,0.82,0,1.04,0.28c0.06,0.09,0.09,0.19,0.11,0.3v2.56c0,0.38,0.09,0.94-0.07,1.26
		c-0.12,0.28-0.37,0.54-0.64,0.69c-0.11,0.05-0.21,0.1-0.32,0.15c-0.37,0-0.7-0.07-0.92-0.35c-0.61-0.81-0.11-3.92,0.41-4.63
		C4.65,160.84,4.8,160.78,4.94,160.71z"/>
	<path class="st1" d="M-28.15,122.38c0.08,0.24-0.04,0.46,0.04,0.66c0,0.38,0.01,0.74,0.01,1.12c-0.07,1.76-0.18,3.5-0.18,5.25
		c0,1.63-0.08,2.76-0.08,3.81c0.01,0.28-0.05,1.76-0.04,2.03c0.01,0.9-0.18,1.73-0.29,2.59c-0.35,2.8-1.69,5.28-3.82,7.16
		c-0.76,0.66-1.53,1.21-2.37,1.69c-0.26,0.13-0.53,0.26-0.8,0.4c-0.03,0.01-0.05,0.02-0.09,0.02h-0.11
		c-0.43-0.28-0.87-0.55-1.31-0.82c-0.92-0.53-1.97-0.93-3.06-1.09c-0.52-0.07-1.13-0.15-1.7-0.07c-3.43,0.44-6.91,3.09-8.48,6.14
		c-0.48,0.92-0.85,1.85-1.05,2.93c-0.13,0.75-0.14,1.72-0.05,2.51c0.28,2.96,1.35,5.36,3.4,7.41c1.09,1.08,2.22,1.96,3.44,2.78
		c0.44,0.28,0.9,0.56,1.34,0.84c0.04,0.02,0.08,0.02,0.08,0.09h0.05v0.04c-1.81-0.06-3.86-1.11-5.23-2.05
		c-1-0.7-1.97-1.37-2.86-2.29c-0.49-0.49-0.9-1.05-1.28-1.61c-0.44-0.65-0.9-1.29-1.24-1.99c-0.95-1.97-1.48-4.45-1.32-6.94
		c0.1-1.49,0.43-2.88,0.9-4.18c0.26-0.73,0.67-1.38,1.06-2.04c2.02-3.3,5.57-5.4,8.64-7.47c1.98-1.33,3.96-2.68,5.95-4.01
		c1.9-1.29,3.79-2.54,5.43-4.27c1.49-1.58,2.68-3.44,3.56-5.33C-29.27,124.89-28.45,123.2-28.15,122.38"/>
	<path class="st2" d="M-28.45,113.63c0.08,0.22,0.05,0.54,0.05,0.82v1.78c0,1.14-0.05,2.53-0.18,3.6c-0.31,2.42-1.42,4.26-2.62,6.24
		c-0.42,0.68-0.89,1.29-1.33,1.95c-0.4,0.57-0.82,1.16-1.32,1.67c-0.81,0.83-1.69,1.59-2.58,2.26c-1.43,1.06-2.8,2.1-4.31,3.01
		c-1.54,0.92-3,1.97-4.48,2.97c-3.16,2.12-6.42,4.56-8.62,7.8c-0.63,0.92-1.05,1.94-1.45,2.97c-0.62,1.61-0.97,3.52-0.84,5.49
		c0.11,1.79,0.66,3.4,1.29,4.92c0.43,0.98,0.91,1.94,1.54,2.82c0.72,1.05,1.7,2.03,2.7,2.88c1.02,0.87,2.05,1.67,3.15,2.4
		c0.15,0.11,1.55,0.78,1.72,0.78c0,0.01-0.98-0.18-0.98-0.15c-2-0.41-3.87-1.49-5.37-2.71c-3.67-3.02-6.12-7.18-6.34-12.06
		c-0.09-1.7,0.01-3.36,0.56-4.78c2.24-5.8,7.7-10.28,12.65-13.99c1.73-1.31,3.45-2.63,5.18-3.93c1.11-0.84,2.23-1.69,3.35-2.53
		c0.33-0.33,0.66-0.66,1-0.98c1.78-1.78,3.35-3.67,4.62-5.74c0.36-0.59,0.73-1.18,1.04-1.8c0.54-1.12,0.97-2.36,1.22-3.63
		C-28.67,115.02-28.48,114.34-28.45,113.63"/>
	<path class="st0" d="M-28.98,74.63c0.33,0,0.65,0,0.83,0.27c0.22,0.31,0.12,1.22,0.12,1.68c0.02,2.27,0.12,24.66,0.12,26.07
		c0.03,1.55-0.01,3.43-0.04,5c-0.06,4.24-1.51,8.03-3.36,11.38c-0.71,1.26-1.29,2.55-2.29,3.68c-0.71,0.8-1.43,1.59-2.21,2.33
		c-1.54,1.44-3.17,2.71-4.81,3.97c-1.7,1.41-3.39,2.82-5.09,4.22c-1.19,0.9-2.39,1.8-3.53,2.81c-0.74,0.65-1.43,1.32-2.16,1.98
		c-0.75,0.68-1.42,1.47-2.14,2.21c-2.11,2.17-4,4.63-4.88,7.43c-0.32,0.98-0.55,1.92-0.69,2.99c-0.12,0.92-0.04,1.93,0.02,2.84
		c0.29,4.71,2.47,8.89,6.17,11.75c1.15,0.89,2.35,1.69,3.66,2.26c0.26,0.11,0.75,0.41,1.03,0.41v0.04
		c-4.42-0.54-8.39-2.1-11.79-4.65c-0.65-0.48-1.24-1.04-1.82-1.61c-4.2-4.19-6.25-10.13-5.63-16.58c0.28-3,0.99-5.8,2.17-8.35
		c1.99-4.32,5.26-7.79,8.91-11.1c0.81-0.67,1.61-1.33,2.4-1.99c1.38-1.1,2.72-2.22,4.08-3.38c0.63-0.55,1.25-1.09,1.88-1.63
		c1.83-1.73,3.74-3.39,5.43-5.29c2.03-2.3,3.99-4.63,5.67-7.1c1.01-1.49,1.94-3.02,2.86-4.54c0.72-1.18,1.31-2.43,1.87-3.69
		c1.97-4.51,3.24-9.74,3.41-15.13c0.06-1.72-0.07-3.33-0.3-4.88c-0.09-0.53-0.19-1.07-0.29-1.61c-0.08-0.37-0.19-0.78-0.14-1.19
		C-29.47,74.9-29.22,74.76-28.98,74.63"/>
</g>
</svg>
