<?xml version="1.0" encoding="utf-8"?>
<!-- Generator: Adobe Illustrator 25.4.1, SVG Export Plug-In . SVG Version: 6.00 Build 0)  -->
<svg version="1.1" id="Layer_1" xmlns="http://www.w3.org/2000/svg" xmlns:xlink="http://www.w3.org/1999/xlink" x="0px" y="0px"
	 viewBox="0 0 98.6 80" style="enable-background:new 0 0 98.6 80;" xml:space="preserve">
<style type="text/css">
	.st0{fill-rule:evenodd;clip-rule:evenodd;fill:#090B92;}
	.st1{fill-rule:evenodd;clip-rule:evenodd;fill:#E30613;}
</style>
<path class="st0" d="M37.9,18c0,0,3.5-4.5,9.6-7.7h23.9c-2.6,3-5.2,7.7-5.2,7.7H37.9L37.9,18z"/>
<path class="st1" d="M30.7,27.9c0,0,0.8-3,3.9-5.9h29.8c-1.7,2.7-2.4,5.9-2.4,5.9L30.7,27.9L30.7,27.9z"/>
<path class="st0" d="M26.8,37.5c0,0,0.5-4.1,2.2-6.1h32c-1.1,3.2-1.2,6.1-1.2,6.1H26.8L26.8,37.5z"/>
<path class="st0" d="M25.3,46.6c0,0,0-2.1,0.7-3.5h33.4c-0.4,1.9-0.2,3.5-0.2,3.5L25.3,46.6L25.3,46.6z"/>
<path class="st0" d="M24.5,55.5c0,0-0.2-1.7,0.3-2.7h34.7c0,1.2,0.3,2.6,0.3,2.6L24.5,55.5L24.5,55.5z"/>
<path class="st0" d="M26.7,65.4l-0.5-1.3l34.9,0c0.2,1,0.4,1.4,0.4,1.4L26.7,65.4L26.7,65.4z"/>
<path class="st0" d="M98.6,70.4c-2.5,0.2-4.8,0.5-6.9,0.9c-7.6,1.7-11.9,5-13.9,7v0c-0.9,0.9-1.3,1.5-1.4,1.6l0,0L0,70.4H98.6z"/>
<path class="st0" d="M50.3,8.8C60.7,3.2,72.4,0.1,84.8,0c-4.7,2.6-8.9,5.4-12.1,8.8H50.3L50.3,8.8z"/>
</svg>
