<?xml version="1.0" encoding="utf-8"?>
<!-- Generator: Adobe Illustrator 25.4.1, SVG Export Plug-In . SVG Version: 6.00 Build 0)  -->
<svg version="1.1" id="Layer_1" xmlns="http://www.w3.org/2000/svg" xmlns:xlink="http://www.w3.org/1999/xlink" x="0px" y="0px"
	 viewBox="0 0 182 80" style="enable-background:new 0 0 182 80;" xml:space="preserve">
<style type="text/css">
	.st0{fill-rule:evenodd;clip-rule:evenodd;fill:#090B92;}
	.st1{fill-rule:evenodd;clip-rule:evenodd;fill:#E30613;}
	.st2{fill:#B1B5B5;}
	.st3{fill:#FFFFFF;}
	.st4{fill:#E30613;}
	.st5{fill:#090B92;}
</style>
<g>
	<path class="st0" d="M34.1,16.2c0,0,3.1-4,8.7-6.9h21.5c-2.4,2.7-4.6,6.9-4.6,6.9H34.1L34.1,16.2z"/>
	<path class="st1" d="M27.6,25.1c0,0,0.7-2.7,3.5-5.3h26.8c-1.5,2.4-2.1,5.3-2.1,5.3L27.6,25.1L27.6,25.1z"/>
	<path class="st0" d="M24.1,33.8c0,0,0.5-3.7,2-5.4h28.8c-1,2.9-1.1,5.4-1.1,5.4H24.1L24.1,33.8z"/>
	<path class="st0" d="M22.7,41.9c0,0,0-1.9,0.6-3.2h30c-0.4,1.7-0.2,3.2-0.2,3.2L22.7,41.9L22.7,41.9z"/>
	<path class="st0" d="M22,49.9c0,0-0.1-1.5,0.2-2.4h31.2c0,1.1,0.3,2.4,0.3,2.4L22,49.9L22,49.9z"/>
	<path class="st0" d="M24,58.8l-0.4-1.2l31.4,0c0.2,0.9,0.3,1.2,0.3,1.2L24,58.8L24,58.8z"/>
	<path class="st0" d="M88.7,63.3c-2.3,0.1-4.3,0.4-6.2,0.8c-6.9,1.5-10.7,4.5-12.5,6.3v0c-0.8,0.8-1.2,1.4-1.3,1.5l0,0L0,63.3H88.7z
		"/>
	<path class="st0" d="M45.2,7.9c9.4-5,19.8-7.9,31-7.9c-4.2,2.3-8,4.9-10.9,7.9H45.2L45.2,7.9z"/>
	<path class="st2" d="M172.4,65.4c-18.5,3.9-28.8,12.5-29.6,13.4c-0.8,1-1.9,1.2-3.4,1.2c-1.5,0-70.7-8.1-70.7-8.1l0,0
		c0.3-0.5,5.4-7.7,20-8.6h-5.3c0,0,84.9-0.6,88.5-0.6C175.4,62.8,172.4,65.4,172.4,65.4z"/>
	<path class="st3" d="M156.7,64.3c-13.7,3.7-24.3,13.6-24.3,13.6L70,70.5v0c1.8-1.8,5.7-4.8,12.5-6.3
		C82.5,64.2,156.1,64.5,156.7,64.3z"/>
	<path class="st3" d="M135.2,78.3c0,0,4.9,1,5.5,0.7c0.5-0.2,3.4-2.9,5.2-4c1.7-1.2,13.2-7.6,19.4-8.9c6.2-1.3,6.2-1.9,6.2-1.9
		h-10.5C160.9,64.2,144.4,69,135.2,78.3z"/>
	<g>
		<path class="st4" d="M87.1,9.3L66.7,37.7h9.6l3.1-4.4c3.8,0,14,0,17.8,0l1.6,4.4h9.4l-10-28.4H87.1z M84.6,26l6.7-9.5l3.4,9.5
			H84.6z"/>
		<polygon class="st4" points="111.7,37.7 120.1,37.7 125.4,9.3 116.7,9.3 		"/>
		<path class="st4" d="M164.9,15.3c-0.1-1.8-1.1-6-7.3-6c-5.4,0-14.8,0-17,0h-0.5h-8.2l-5.1,28.4h8.4l1.4-7.4h11.6
			c0,0,5.2-0.6,4.6,3c-0.5,3.6-0.7,4.4-0.7,4.4h8.6l1.3-6.6c0,0,0.4-4-3.2-4.6c0,0,3.7-1.1,4.6-3.9
			C164.4,19.7,164.9,17.1,164.9,15.3z M155.7,18.8c-0.5,2.6-1.2,4.7-4.3,4.7c-2.6,0-10.9,0-13.4,0l1.4-7.3v0h13.4
			C152.7,16.2,156.1,16.2,155.7,18.8z"/>
	</g>
	<g>
		<path class="st5" d="M68.2,49.2c-1.7-0.8-4.4-1.1-4.4-2.5c0-1.4,3.1-1.6,3.1-1.6c2.1,0,3.8,1.6,3.8,1.6l0.7-3.2c0,0-1.3-1-4.8-1
			c-3.5,0-5.9,2.9-5.9,4.9c0,2,2.3,3.3,4.1,3.6c1.7,0.4,2.5,1.1,2.5,1.7c0,0.6-1.2,2-3.6,2c-2.4,0-4.2-2.1-4.2-2.1l-0.6,3.3
			c0,0,1.1,1.3,4.9,1.3c3.8,0,6.3-3.7,6.5-4.6C70.4,51.6,69.9,50,68.2,49.2z"/>
		<path class="st5" d="M76,44.6L69,57h2.3l1.8-3h4.8l0.6,3h2.6l-2.8-12.4H76z M74.4,51.8l2.3-4l0.8,4H74.4z"/>
		<polygon class="st5" points="84.1,44.6 81.8,57 84,57 86.4,44.6 		"/>
		<path class="st5" d="M96.1,44.6l-1.4,7.6l-3.6-7.6h-0.5H90h-1.6L86,57h2.2l1.6-8.4c1,2,4,8.4,4,8.4h2.2l0.3-1.4v0l2.1-11H96.1z"/>
		<polygon class="st5" points="103.9,44.6 99.7,44.6 99.2,47 103.5,47 101.6,57 103.9,57 105.8,47 109.9,47 110.4,44.6 106.2,44.6 
					"/>
		<polygon class="st5" points="111.1,51.6 116,51.6 116.5,50.1 111.5,50.1 		"/>
		<path class="st5" d="M126.8,42.6h-2.7L121.5,57h2.6l0.9-4.5h2.5c0,0,5.8,0.1,7.2-5.1C136,42.1,128.3,42.6,126.8,42.6z M131,48.7
			c-0.4,0.4-2,1.5-3.8,1.5c-0.8,0-1.4,0-1.8,0l1-5.1l0.2,0.1c0,0,2.4-0.4,4,0.3C132.1,46.2,131.4,48.3,131,48.7z"/>
		<polygon class="st5" points="135.9,44.6 133.7,57 136.1,57 138.4,44.6 		"/>
		<polygon class="st5" points="148.2,46.7 148.7,44.6 142.4,44.6 141.4,44.6 139.9,44.6 137.7,57 140.1,57 146.5,57 147,54.8 
			140.5,54.8 141,51.7 146.8,51.7 147.4,49.5 141.5,49.5 142,46.7 		"/>
		<polygon class="st5" points="181.4,46.7 182,44.6 175.6,44.6 174.6,44.6 173.2,44.6 170.9,57 173.3,57 179.8,57 180.3,54.8 
			173.7,54.8 174.3,51.7 180.1,51.7 180.6,49.5 174.7,49.5 175.2,46.7 		"/>
		<path class="st5" d="M155.3,44.6h-2.3h-2.4L148.3,57h2.4l0.7-3.8c0.4,0,0.9,0,1.6,0c0.2,0,0.4,0,0.7-0.1l2.2,3.9h3.1l-2.9-5
			c1.3-0.8,2.6-2.1,2.9-3.9C159.6,44.7,155.3,44.6,155.3,44.6z M156.5,48.6c-0.8,2.5-3.1,2.6-3.2,2.5c-0.1-0.1-1.6,0-1.6,0l0.8-4.6
			C154.1,46.6,157.2,46.8,156.5,48.6z"/>
		<path class="st5" d="M166.8,44.6h-2.3H162L159.8,57h2.4l0.7-3.8c0.4,0,0.9,0,1.6,0c0.2,0,0.4,0,0.7-0.1l2.2,3.9h3.1l-2.9-5
			c1.3-0.8,2.6-2.1,2.9-3.9C171.1,44.7,166.8,44.6,166.8,44.6z M168.1,48.6c-0.8,2.5-3.1,2.6-3.2,2.5c-0.1-0.1-1.6,0-1.6,0l0,0
			l0.8-4.6C165.6,46.6,168.7,46.8,168.1,48.6z"/>
	</g>
</g>
</svg>
