<?xml version="1.0" encoding="utf-8"?>
<!-- Generator: Adobe Illustrator 25.4.1, SVG Export Plug-In . SVG Version: 6.00 Build 0)  -->
<svg version="1.1" id="Layer_1" xmlns="http://www.w3.org/2000/svg" xmlns:xlink="http://www.w3.org/1999/xlink" x="0px" y="0px"
	 viewBox="0 0 107.4 80" style="enable-background:new 0 0 107.4 80;" xml:space="preserve">
<style type="text/css">
	.st0{fill:#B39A32;}
</style>
<path id="path3355" class="st0" d="M70.85,0.69c3.4-0.84,6.85,0.26,10.29,0.06c0.75,0.38,0.9,1.35,0.36,1.96
	c-2.12,1.63-3.88,3.7-6,5.33c-0.27,0.59-0.58,1.19-0.58,1.85c0.11,2.8,0.03,5.61,0.06,8.41c-0.04,1.44,0.15,2.9-0.24,4.31
	c-0.17,0.94-0.77,1.72-1.37,2.44c-1.09,1.34-2.26,2.66-3.67,3.68c-0.51,0.39-1.16,0.37-1.6-0.1c0.24-1.5,1.07-2.87,1.04-4.41
	c-0.16-3.47,0.07-6.95-0.13-10.41c0.05-1.12,0.44-2.25,1.22-3.07c1.49-1.48,2.99-2.96,4.45-4.47c-0.05-0.14-0.14-0.43-0.19-0.57
	c-2.19-0.2-4.44-0.41-6.59,0.22c-0.85,0.3-1.57,0.9-2.44,1.12c-0.82,0.25-1.32-1-0.74-1.51c1.18-1.18,2.38-2.35,3.71-3.37
	C69.15,1.56,69.89,0.89,70.85,0.69z"/>
<path id="path3357" class="st0" d="M47.77,1.11c0.51-0.46,1.47-0.74,1.93-0.08c0.21,0.63-0.09,1.27-0.41,1.8
	c-0.56,0.95-0.95,2.06-0.84,3.18c0.05,1.82,2.25,3.05,3.87,2.45c1.79-1.03,3.21-2.59,4.56-4.14c0.53-0.63,1.45-1.04,2.25-0.7
	c1.74,0.68,3.16,2.04,4.16,3.6c1.52,2.48,2.54,5.32,2.65,8.25c0.06,1.84-0.36,3.72-1.4,5.26c-1.17,1.56-2.81,2.68-4.06,4.16
	c-0.34,0.36-0.17,0.83-0.05,1.24c0.91,0.43,1.81,0.88,2.79,1.14c-0.1,0.14-0.19,0.29-0.28,0.44c0.21-0.05,0.39-0.14,0.56-0.28
	c3.37,1.39,6.8,2.81,9.65,5.12c2.17,1.65,3.71,4.26,3.69,7.02c-0.13,3.07-1.02,6.13-2.7,8.72c-1.93,3.18-4.86,5.61-7.98,7.57
	c-5.97,3.6-12.76,5.6-19.6,6.78c-3.39,0.6-6.83,0.84-10.27,1.07c0.79,2.05,2.54,3.57,4.57,4.33c2.56,1.01,5.34,1.22,8.07,1.32
	c1.8,0.2,3.6-0.07,5.4-0.06c2.22-0.04,4.43-0.23,6.65-0.33c6.73-0.6,13.43-2.18,19.57-5.06c3.54-1.74,7.09-3.95,9.22-7.38
	c1.46-2.31,1.7-5.35,0.58-7.85c-0.91-1.87-2.62-3.17-4.4-4.16c-2.32-1.19-4.68-2.29-6.97-3.53l0.1-0.26c0.08-0.2,0.16-0.4,0.23-0.6
	c-0.43-0.2-0.79-0.51-1.06-0.91c0.15-0.19,0.3-0.39,0.46-0.58c-0.06-0.41-0.08-0.82-0.01-1.23c0.02-0.05,0.05-0.17,0.07-0.22
	c1.18-0.89,2.05-2.11,3.13-3.11c1.04-0.94,1.97-2,2.8-3.12c0.66-1.03,0.44-2.31,0.16-3.42c-0.59-2.29-2.14-4.14-3.49-6.01
	c-0.45-0.52-0.98-1.23-1.74-1.18c-0.84,0.28-1.79,0.57-2.63,0.14c-0.07-0.25-0.15-0.49-0.22-0.74c0.08-0.24,0.15-0.47,0.23-0.71
	c1.15-0.81,2.09-1.86,3.17-2.75c1.03-0.95,2.11-1.84,3.11-2.82c0.66-0.66,1.86-0.6,2.5,0.07c1.77,1.64,3.52,3.39,4.66,5.54
	c0.98,1.92,1.43,4.25,0.65,6.32c-0.65,1.83-2.1,3.19-3.24,4.72c-0.7,0.9-1.17,1.95-1.89,2.82c-0.36,0.46-0.73,1.08-0.44,1.67
	c0.38,0.98,1.42,1.43,2.14,2.13c3.17,2.76,6.04,6.22,6.92,10.43c0.78,3.53-0.23,7.23-2.11,10.25c-2.87,4.4-6.21,8.62-10.6,11.59
	c-4.19,2.86-8.94,4.75-13.56,6.79c-5.73,2.54-11.93,4.03-18.2,4.22c-3.09,0.06-6.21-0.25-9.2-1.05c-2.91-0.85-5.91-2.21-7.69-4.77
	c-1.31-1.8-1.68-4.15-1.23-6.31c0.24-1.37,0.88-2.62,1.37-3.91c-3.49-0.35-7.01-0.51-10.43-1.35c-2.73-0.63-5.39-1.69-7.69-3.31
	c-1.4-1.02-2.82-2.19-3.43-3.86c-0.77-2-0.47-4.19,0.01-6.21c0.33-1.18,0.58-2.42,1.38-3.39c-0.68-0.51-1.56-0.32-2.34-0.39
	c-1.71-0.16-3.46-0.23-5.08-0.85c-0.97-0.35-1.85-0.9-2.69-1.49c-0.94-0.64-1.96-1.24-2.62-2.19c-0.66-1.26-0.61-2.86,0.13-4.08
	c0.66-0.98,1.65-1.66,2.5-2.46c1.44-1.4,2.97-2.7,4.43-4.07c1.14-0.97,2.11-2.17,3.45-2.87c1.63-0.87,3.47-1.37,5.33-1.36
	c2.45,0.01,4.9-0.02,7.36,0.02c1.51,0.06,2.14-1.94,3.69-1.75c0.24,0.35,0.45,0.72,0.64,1.09c-0.14,0.27-0.22,0.58-0.45,0.8
	c-1.26,1.26-2.54,2.5-3.77,3.79c-1.32,1.38-3.18,2.28-5.1,2.28c-3.7,0.01-7.4,0-11.09,0c-1.2,0.67-2.11,2.1-1.7,3.49
	c0.35,1.57,2.06,2.43,3.57,2.36c14.1,0,28.2,0,42.3,0c1.41-0.09,2.84,0.26,4.23-0.12c0.94-0.12,1.61-1.18,2.62-0.82
	c0.09,0.32,0.19,0.64,0.29,0.96c-0.35,0.67-0.96,1.12-1.48,1.64c-1.37,1.32-2.79,2.57-4.12,3.92c-1.18,1.25-2.9,1.9-4.6,1.99
	c-10.93,0.05-21.86-0.05-32.78,0.05c-0.26,0.62-0.7,1.3-0.43,1.99c0.45,0.83,1.08,1.57,1.82,2.16c2.31,1.82,5.21,2.67,8.04,3.3
	c5.89,1.21,11.93,1.28,17.91,1.23c5.13,0.04,10.28-0.07,15.37-0.8c3.2-0.47,6.41-1.17,9.33-2.61c1.54-0.83,3.11-1.83,4.02-3.38
	c1.28-2.03,1.4-4.84,0.11-6.89c-1.41-1.91-3.63-2.91-5.64-4.05c-4.23-2.39-8.97-3.55-13.54-5.09c-0.65-0.37-1.04-0.99-1.21-1.71
	c0.23-0.66,0.46-1.39,1.06-1.81c0.83-0.58,1.69-1.13,2.44-1.82c1.81-1.41,3.69-2.83,4.98-4.76c0.88-1.24,0.55-2.9-0.03-4.19
	c-1.11-2.23-2.02-4.65-3.82-6.43c-0.7-0.62-1.43-1.33-2.42-1.37c-1.58,1.5-3.21,2.95-4.7,4.55c-0.53,0.39-0.94,1.15-1.66,1.13
	c-0.82-0.25-0.86-1.23-0.86-1.95c-1.32-0.69-2.83-1.64-3.04-3.25c-0.4-1.86,0.04-3.83,1.05-5.42C45.46,3.25,46.58,2.13,47.77,1.11z"
	/>
<path id="path3366" class="st0" d="M49.21,15.06c0.44-0.4,1.01-0.17,1.45,0.09c0.05,1.22-1.1,2.14-1.01,3.38
	c0.03,3.71-0.02,7.42,0.03,11.13c0.19,0.9,0.16,1.9-0.41,2.67c-1.28,1.38-2.72,2.61-3.9,4.07c-0.08,0-0.25,0-0.33,0
	c-0.48-0.04-0.94,0.1-1.39,0.24c-0.2-0.12-0.4-0.24-0.6-0.35c0.34-1.09,0.8-2.18,0.77-3.35c-0.22-2.67-0.07-5.35-0.11-8.02
	c0.05-1.33-0.21-2.73,0.31-4c0.39-1.27,1.53-2.05,2.4-2.98C47.31,16.95,48.37,16.11,49.21,15.06z"/>
<path id="path3369" class="st0" d="M103.4,28.64c0.28-0.15,0.6-0.04,0.9-0.05c0.92,0.97,1.82,1.96,2.73,2.94
	c0.43,0.42,0.45,1.11,0.2,1.62c-0.53,0.68-1.19,1.24-1.73,1.91c-0.57,0.62-1.12,1.49-2.09,1.34c-1.09-0.92-1.88-2.13-2.95-3.06
	c-0.62-0.22-1.5-0.28-1.96,0.28c-0.75,0.77-1.46,1.58-2.2,2.36c-0.4,0.46-1.16,0.53-1.58,0.07c-0.82-0.84-1.59-1.73-2.38-2.6
	c-0.15-0.18-0.3-0.36-0.46-0.54c-0.03-0.45-0.04-0.95,0.32-1.29c0.84-0.98,1.71-1.94,2.64-2.83c0.83-0.64,1.68,0.26,2.16,0.89
	c0.88,0.84,1.56,2,2.69,2.51C101.2,31.37,101.97,29.61,103.4,28.64z"/>
<path id="path3372" class="st0" d="M98.55,36.29c0.44-0.43,1.25-0.62,1.7-0.11c0.85,0.87,1.66,1.79,2.49,2.68
	c0.5,0.49,0.44,1.37-0.04,1.86c-0.83,0.9-1.68,1.78-2.52,2.67c-0.27,0.32-0.73,0.25-1.09,0.23c-0.68-0.47-1.13-1.19-1.76-1.72
	c-0.58-0.88-1.91-1.63-1.3-2.86C96.88,38.13,97.76,37.25,98.55,36.29z"/>
<path id="path3375" class="st0" d="M43.04,36.29c0.2,0.12,0.4,0.23,0.6,0.35c0.45-0.14,0.91-0.28,1.39-0.24l0.2,0.1
	c-0.55,0.53-1.08,1.5-1.99,1.15C42.59,37.46,42.82,36.74,43.04,36.29z"/>
<path id="path3377" class="st0" d="M78.97,40.97c-1.33-0.7-1.49-2.68-0.28-3.57c-0.07,0.41-0.05,0.82,0.01,1.23
	c-0.16,0.19-0.31,0.39-0.46,0.58c0.27,0.39,0.63,0.7,1.06,0.91c-0.08,0.2-0.16,0.4-0.23,0.6L78.97,40.97z"/>
<path id="path3380" class="st0" d="M13.56,58.53C13.67,58.65,13.67,58.65,13.56,58.53z"/>
<g id="_x23_fdfbfcff">
</g>
</svg>
