<?xml version="1.0" encoding="utf-8"?>
<!-- Generator: Adobe Illustrator 25.4.1, SVG Export Plug-In . SVG Version: 6.00 Build 0)  -->
<svg version="1.1" id="Layer_1" xmlns="http://www.w3.org/2000/svg" xmlns:xlink="http://www.w3.org/1999/xlink" x="0px" y="0px"
	 viewBox="0 0 135.1 80" style="enable-background:new 0 0 135.1 80;" xml:space="preserve">
<style type="text/css">
	.st0{fill:#C7920F;}
	.st1{fill:url(#SVGID_1_);}
	.st2{fill:url(#SVGID_00000096779495334880538080000004822803449328363667_);}
	.st3{fill:url(#SVGID_00000070811366070753786240000008236742884692911802_);}
	.st4{fill:url(#SVGID_00000160155226894831679060000008722607039827408061_);}
	.st5{fill:url(#SVGID_00000158712391915671090560000004558249472850085041_);}
	.st6{fill:url(#SVGID_00000090264367042876741310000007000101689258517151_);}
	.st7{fill:url(#SVGID_00000115511061266779253440000002488765052796955023_);}
	.st8{fill:url(#SVGID_00000155119014722967359930000010612120028984267442_);}
	.st9{fill:url(#SVGID_00000084532206787308038850000009785034557000301709_);}
	.st10{fill:#0A58A2;}
</style>
<g>
	<path class="st0" d="M0,34.2c0,0,7.8,0.2,13.1,1.5c5.3,1.2,15.6,3.8,20.6,6.3c5,2.5,7.5,3.6,10.9,3.6s4.8-1,8.7-1.2
		s7.5,0.4,9.7,1.9c0,0,0.8-4.9-0.9-7s-9.6-1-11.4-0.7c0,0-6.6,1-9.2,0.7c-2.7-0.3-4.9-1.7-8.2-2.7C30.1,35.5,15,29.4,0,34.2z"/>
	<path class="st0" d="M44,24.8c0,0,0.7,2.3,1.9,2.9c1.2,0.6,3.3,0.2,4-0.1c0.7-0.4,1-0.4,1-0.4s-0.4,1.4,0.4,2.1
		C52,30,52.7,31,54,31c1.2,0,3-1.8,4.6-2.7s2.1-1.2,2.7-1.2c0.6,0,1.6,0.7,1.9,1.5c0.3,0.8,1.2,5.5,1.1,6.9c-0.1,1.4,1,0.5,1.5-0.5
		c0.5-1,0.8-4.6,0.1-6.4c-0.7-1.8-1.4-2.5-1.4-2.5s2.5-0.4,3.7-0.2c1.2,0.3,1.8,0.3,1.9,1.2c0,0,0,4.5,0.4,6.1
		c0.5,1.6,2,3.8,3.4,4.6c1.3,0.8,3.4,1.5,5.3,1.1s4.2-3.3,5.1-4.6c0.9-1.3,5-7,7-8.6c2-1.6,4.3-2.4,6.5-3c2.2-0.6,9.5-2.9,14.7-6.8
		S123.9,5,125,3.7s1.4-2.2,1.4-2.2L125,0c0,0-7.9,8.1-11.4,10s-8.7,4.9-8.7,4.9l-15,6c0,0-8.5,9.6-8.6,9.7c-0.1,0.1-5.2,2.4-5.2,2.4
		s-3.3-0.8-3.3-2.8s0.3-5.3-0.5-6.6c-0.8-1.3-2.2-1.3-5.2-0.7c-3,0.6-5.1-0.4-5.6-0.3s-1.6,0.8-1.1,1.2c0.5,0.4,0.3,0.8-0.5,0.8
		c-0.8,0-1.7,0-1.6-1.1c0.1-1,0.5-2.3-1.1-3.4c-1.6-1.1-3.8-1.3-3.8-1.3s0.2,2.3,0,2.9c-0.2,0.6-0.3,1.7,0,2.5c0,0-2.1-3.2-5-2.5
		c-1.9,0.5-0.6,2.3-0.6,2.3S44.6,23.2,44,24.8z"/>
	<path class="st0" d="M67.4,35.1c0,0-1.9,5.4-0.6,9.4c1.3,4,5.3,8.5,7.9,10.4c2.6,1.8,6.4,3.7,6.4,3.7L80.3,60
		c0,0-14.5-4.9-16.6-13.9S67.4,35.1,67.4,35.1z"/>
	<path class="st0" d="M22.8,41.2c0,0,4.7,14.5,19.9,20.6s24.4-2.5,25.3-3.6c0.9-1.1,1-1.6,0-2.6s-2.4-2.9-2.8-2.5c0,0-5,4.4-9.9,5.9
		c-4.9,1.5-12.9,0.2-18.7-4.2S23.6,42.9,22.8,41.2z"/>
	<path class="st0" d="M76.3,64.4c0,0,0-0.2,0.4-0.2s1.4,0.6,1.4,0.6s-0.2,4.1-0.2,5.6c0,1.6,1.1,4.8,1.4,4.8s0.9-0.2,2,0
		c1.1,0.2,1.6,0.8,2.1,0.9c0.5,0.2,0.4-0.1,1.2-0.7c0.8-0.6,1-1,1.5-0.8c0.5,0.2,0.7,0.8,1.1,0.9c0.4,0.1,0.4-0.6,0.9-1
		c0.5-0.4,0.9-0.8,1.8-0.6c0.8,0.2,1.4,1.2,2,1c0.7-0.2,0.7-1,1.7-1.4c1-0.4,1.7-0.4,2.4-0.7s1.8-1.1,2.1-1.5s0.4-0.4,0.3-1.2
		c-0.1-0.8,0-1.9,0.8-2.1c0.8-0.2,2.1,0.4,2.2-0.2c0.1-0.7-0.7-2.5-1.3-3.5c-0.6-0.9-1.1-1.6-0.6-1.7c0.5-0.1,2.1,0.8,2.7,0.9
		c0.6,0.1,1.6-0.2,1.3-0.9c-0.3-0.7-1.7-1.4-2.5-2.1c-0.8-0.7-1.3-1.5-0.9-1.8s0.6-0.3,0.3-0.7s-2.8-1.9-4.5-2.7
		c-1.7-0.8-2.8-1.1-3-1.5c-0.2-0.4,0.7-1.8,0.7-1.8s8.5,3.6,9.9,4.3s3.9,1.7,3.9,2.2s-0.8,1.2-0.9,1.2s-0.2,1.4-0.2,2.3
		c0,0.9,0.1,2.8-0.4,3.7c-0.5,0.9-1.6,1.2-1.7,1.5c-0.1,0.3,0.3,2.1-0.1,2.9c-0.4,0.8-2.6,0.9-3,1.2s0.1,1.9-0.7,2.6
		c-0.8,0.8-1.2,1.5-2.5,2c-1.4,0.5-3.2,1.1-3.8,1.6c-0.6,0.5-1.6,1.7-2,1.8c-0.4,0.1-1.5,0.2-1.8,0c-0.4-0.2-0.5-0.7-0.8-0.7
		c-0.3,0-0.4,0.2-0.8,0.7c-0.5,0.5-1,0.9-1.7,0.8c-0.7-0.1-1.3-0.1-1.6-0.5c-0.3-0.4-0.3-0.6-0.6-0.4c-0.3,0.2-0.3,0.8-1.3,0.7
		c-1-0.1-1.9-0.7-2.2-1.1c-0.4-0.3-0.6-0.5-0.9-0.5c-0.3,0-0.2,0.5-1.3,0.3c-1.1-0.2-2.1-0.9-2.6-1.7c-0.5-0.8-1.5-2.5-1.6-4.2
		c-0.2-1.7,0.3-4.7,0.4-5.4S76.3,64.4,76.3,64.4z"/>
	<path class="st0" d="M91.7,44.8L91.1,46c0,0,2.2,1.7,4.3,2.4s6.5,1.1,11.5-1.5c5-2.7,15.2-13.3,16.1-14.3s5.3-7.6,6.1-9.1
		c0.8-1.5,3.6-8.2,3.9-9.3s1.8-5.1,2-6.4c0.2-1.2,0.1-2.5-0.2-2.4s-1.5,1-1.7,1.4c0,0-2.8,6.2-4.1,7.9c-1.3,1.7-7.3,10.4-7.8,11
		c-0.5,0.6-7.1,9-8.1,10.1c-1,1.1-3.1,3.4-3.8,4c-0.7,0.6-3,2.9-5,3.8c-2,1-3.5,1.6-5.8,1.8C96.2,45.7,91.7,44.8,91.7,44.8z"/>
	<path class="st0" d="M89.9,41.8c-0.1,0.2-1.1,2-1.1,2S90.9,45,95,45c4.1,0,7.3-2,10.4-4.9s7.6-8.4,8-9c0.4-0.6,0.9-1.5,0.3-2
		c-0.5-0.5-2.1-0.4-3.4,0c-1.3,0.4-1.8,1.8-2.1,2.3c-0.3,0.5-6.4,7.2-7.3,8c0,0-1.8,1.3-3.4,2.1c-1.6,0.8-3.1,1.1-4.4,1.1
		C91.8,42.5,89.9,41.8,89.9,41.8z"/>
	<linearGradient id="SVGID_1_" gradientUnits="userSpaceOnUse" x1="6.86" y1="38.8473" x2="62.1246" y2="38.8473">
		<stop  offset="5.496279e-04" style="stop-color:#146336"/>
		<stop  offset="0.4909" style="stop-color:#14341A"/>
		<stop  offset="0.9965" style="stop-color:#146336"/>
	</linearGradient>
	<path class="st1" d="M6.9,33.8c-0.2,0,10.9,1.4,13.8,2.2c2.8,0.8,12.9,5,16.5,6.3c3.6,1.3,6.4,1.7,10,1.4
		c3.6-0.3,11.7-1.5,14.7,0.6c0,0,0.7-2.6,0-3.5s-1.9-2-5.6-1.8c0,0-7.7,0.5-9.5,0.8c-1.8,0.3-3,0.4-6.1,0.2c-3-0.2-4.6-0.7-7-1.9
		C31.4,36.9,18.2,31.9,6.9,33.8z"/>
	
		<linearGradient id="SVGID_00000018218232986783031860000006128131916974668714_" gradientUnits="userSpaceOnUse" x1="27.3255" y1="56.3311" x2="66.8279" y2="56.3311">
		<stop  offset="5.496279e-04" style="stop-color:#146336"/>
		<stop  offset="0.4909" style="stop-color:#14341A"/>
		<stop  offset="0.9965" style="stop-color:#146336"/>
	</linearGradient>
	<path style="fill:url(#SVGID_00000018218232986783031860000006128131916974668714_);" d="M27.3,49.5c0,0,8.7,8.3,16.9,10.3
		c8.2,2,11.5-0.3,14.7-2.2s5-3.5,5.6-3.3c0.6,0.2,2.7,1.5,2.2,2.2c-0.4,0.7-4.8,6.4-15,6.6C41.6,63.3,31,54.7,27.3,49.5z"/>
	
		<linearGradient id="SVGID_00000128485700657510853190000017792940476932690312_" gradientUnits="userSpaceOnUse" x1="63.7267" y1="48.9015" x2="77.9786" y2="48.9015">
		<stop  offset="5.496279e-04" style="stop-color:#146336"/>
		<stop  offset="0.4909" style="stop-color:#14341A"/>
		<stop  offset="0.9965" style="stop-color:#146336"/>
	</linearGradient>
	<path style="fill:url(#SVGID_00000128485700657510853190000017792940476932690312_);" d="M65.1,39.2c0,0-0.5,3.6,1.3,7
		C68.3,49.7,78,58.6,78,58.6S65.5,51.8,64,44.7C62.9,39.2,65.1,39.2,65.1,39.2z"/>
	
		<linearGradient id="SVGID_00000031198182286636458690000004933741583725141638_" gradientUnits="userSpaceOnUse" x1="62.8115" y1="30.2307" x2="65.3901" y2="30.2307">
		<stop  offset="5.496279e-04" style="stop-color:#146336"/>
		<stop  offset="0.4909" style="stop-color:#14341A"/>
		<stop  offset="0.9965" style="stop-color:#146336"/>
	</linearGradient>
	<path style="fill:url(#SVGID_00000031198182286636458690000004933741583725141638_);" d="M62.8,26.7c0,0,2.5,2.8,2.2,7.1
		c0,0,0.9-2.1,0-4.7C64.2,26.5,62.8,26.7,62.8,26.7z"/>
	
		<linearGradient id="SVGID_00000062872730948448288630000018386073645218333874_" gradientUnits="userSpaceOnUse" x1="61.0187" y1="19.555" x2="124.9636" y2="19.555">
		<stop  offset="5.496279e-04" style="stop-color:#146336"/>
		<stop  offset="0.4909" style="stop-color:#14341A"/>
		<stop  offset="0.9965" style="stop-color:#146336"/>
	</linearGradient>
	<path style="fill:url(#SVGID_00000062872730948448288630000018386073645218333874_);" d="M61,23c0,0,0.5,2.2,3.1,1.9
		c2.5-0.3,4-0.9,5.2-0.2s1.6,1.5,1.4,3.4c-0.2,1.9-0.6,5.2,1.2,7c1.8,1.8,4.3,2.6,6,2.5s3.5-2,4.8-3.8s5-7.6,7.2-9.3s4.6-2.9,8.4-4
		c3.8-1.1,9.2-2.5,15.6-7.3c6.4-4.9,11-11.6,11-11.6s-8.6,7.6-14,10.6s-10.6,4.5-14.6,5.4c-4.1,0.9-5.7,1.4-7.8,3.1
		c-2.1,1.7-5.4,8.1-7,9.3c-1.6,1.2-3.6,3.6-6.3,3.3c-2.7-0.3-3.5-1.9-3.7-3.4c-0.2-1.5,0.3-4.6-0.7-5.9s-2.8-1.2-4.3-0.9
		C65.1,23,63,24,61,23z"/>
	
		<linearGradient id="SVGID_00000145036282912778304940000009906502985281024157_" gradientUnits="userSpaceOnUse" x1="44.6563" y1="24.8985" x2="62.1246" y2="24.8985">
		<stop  offset="5.496279e-04" style="stop-color:#146336"/>
		<stop  offset="0.4909" style="stop-color:#14341A"/>
		<stop  offset="0.9965" style="stop-color:#146336"/>
	</linearGradient>
	<path style="fill:url(#SVGID_00000145036282912778304940000009906502985281024157_);" d="M51.4,28.6c0,0,1,1.6,2.7,1.4
		c1.7-0.1,3.1-1.9,4-2.7c0.9-0.8,1.4-0.8,2.4-1.1c1-0.3,1.7-1,1.7-1l-0.5-0.6c0,0-1.1,1-2.3,1s-1.9-0.5-2.1-1.6s0.2-1.9-0.5-3
		s-2.8-1.3-2.8-1.3s-0.4,2.8,0.6,3.9c1,1.1,2.2,0.8,2.2,2c0,0,0.2,0.4-1.5,0.1s-2.1,0-2.7-0.4c-0.5-0.4-1.8-3.6-4.5-2.6
		c0,0,0.4,2.2,2.6,2.7c0,0-0.5,0.2-1.6,0.2c-1.1,0-1.1-0.1-2.1-0.6c-1-0.5-2.3,0-2.3,0s1,1.9,2.2,2.1s2.1-0.6,2.9-0.9
		c0.9-0.2,2.2-0.2,3.2-0.1c1,0.1,2.3,0.6,3.1,0.6c0.7,0,1.2,0,1.2,0s-0.5,0.8-1.1,1.1c-0.6,0.2-0.9-0.3-2-0.2
		C53.1,27.6,51.4,28.6,51.4,28.6z"/>
	
		<linearGradient id="SVGID_00000168830197523173135440000007074525688989069737_" gradientUnits="userSpaceOnUse" x1="75.8422" y1="65.9465" x2="106.2718" y2="65.9465">
		<stop  offset="5.496279e-04" style="stop-color:#146336"/>
		<stop  offset="0.4909" style="stop-color:#14341A"/>
		<stop  offset="0.9965" style="stop-color:#146336"/>
	</linearGradient>
	<path style="fill:url(#SVGID_00000168830197523173135440000007074525688989069737_);" d="M76.2,66.7c0,0,0,6.2,1,7.9
		c1,1.7,1.2,2.1,2.1,1.9c1-0.2,2-0.7,2.8-0.2s1.1,1.4,1.6,1.2c0.5-0.2,1.3-1.6,1.8-1.8c0.5-0.2,0.2,1.2,0.6,1.6s0.8,0.9,1.4-0.2
		c0.6-1.1,0.2-2.1,1.3-2.5c1.1-0.4,2.3,1.4,2.9,1.5c0.6,0.1,0.7-1.1,1.3-1.4s2.3-0.8,3.2-1.2s2.8-1.6,3-2.4c0.2-0.8-0.1-2,0.4-2.2
		c0.5-0.2,1.9,0.1,2.4-0.2s0.7-1.2,0.6-1.9c-0.2-0.6-1.3-2.3-1.1-2.6c0.2-0.3,1.1,0.2,1.9,0s1.3-1.1,1.3-1.8c0-0.8-1.1-1.7-2-2.6
		c-1-0.8-1.6-1.5-0.7-1.5c0.9,0,2.5,0.2,1.3-0.6c-1.2-0.8-8.9-4.6-8.9-4.7s7.8,3,9.4,3.6c1.6,0.6,2.9,1.3,2.6,1.9
		c-0.3,0.6-0.9,0.8-0.9,0.8s0.9,4.3,0,5.6c-0.9,1.3-1.7,1.2-1.7,1.2s0.5,2.7-0.5,3.6c-1,0.9-2.3,0.6-2.3,0.6s0.1,2.7-3,4.2
		c-3.2,1.6-4.8,1.9-5.4,2.9s-1.4,0.7-2-0.1c-0.6-0.8-1.1-2.1-1.3-1.2s-0.5,2.1-1,2.4c-0.5,0.3-2.4,0.1-2.8-0.9
		c-0.5-1-0.6,0.4-1.3,0.9s-1.6-0.6-2.1-1s-1.1-0.4-2.1-0.4s-1.6,0-2.3-1s-1.2-2-1.4-3.9C75.7,70.5,75.9,67.5,76.2,66.7z"/>
	
		<linearGradient id="SVGID_00000029759396717107559730000001701518887007583663_" gradientUnits="userSpaceOnUse" x1="90.8313" y1="36.4893" x2="112.8127" y2="36.4893">
		<stop  offset="5.496279e-04" style="stop-color:#146336"/>
		<stop  offset="0.4909" style="stop-color:#14341A"/>
		<stop  offset="0.9965" style="stop-color:#146336"/>
	</linearGradient>
	<path style="fill:url(#SVGID_00000029759396717107559730000001701518887007583663_);" d="M90.9,43.3c0,0,3.5,0.9,6,0.2
		c2.5-0.6,5-1.7,7.6-4.3c2.6-2.7,6-6.3,6.5-7.1c0.5-0.8,1.4-1.9,1.5-2.2c0.2-0.3,0.8-0.8-0.4-0.7c-1.1,0-1.9,0.2-2.3,0.5
		c0,0-1.9,2.8-2.4,3.4c-0.5,0.6-3.8,4.4-4.6,5.2c-0.9,0.8-3.5,2.7-4.5,3.1c-1,0.4-2.8,1.2-4.2,1.4C92.7,43,90.3,42.9,90.9,43.3z"/>
	
		<linearGradient id="SVGID_00000029021068843177024060000015430135481354688926_" gradientUnits="userSpaceOnUse" x1="92.3967" y1="27.2785" x2="134.4125" y2="27.2785">
		<stop  offset="5.496279e-04" style="stop-color:#146336"/>
		<stop  offset="0.4909" style="stop-color:#14341A"/>
		<stop  offset="0.9965" style="stop-color:#146336"/>
	</linearGradient>
	<path style="fill:url(#SVGID_00000029021068843177024060000015430135481354688926_);" d="M93.6,46.1c0,0-1.8-0.5-1,0
		s2.7,1.6,6.4,1.6s7.1-1.7,8.6-2.6c1.5-0.9,7.6-6.3,8.9-7.5c1.2-1.1,5.9-6.5,7.1-8s3.1-4.3,3.5-5c0.3-0.6,3.3-5.8,4.2-8.1
		c0.9-2.3,3.1-8.2,3.2-8.8c0.1-0.6-0.2-1.1-0.4-0.7c0,0-3.1,6.4-4.7,8.7c-1.6,2.3-6.7,9.8-8.7,12.2c-2,2.4-6.3,7.8-7.2,9
		c-0.9,1.1-5.2,5.7-6.7,6.5c-1.5,0.8-4.5,2.4-5.9,2.7C99.3,46.3,94.2,46.2,93.6,46.1z"/>
	<path class="st10" d="M66.1,25.4c0,0-0.6,0-0.2,0.6c0.4,0.6,0.4,1.4,0.6,1.3c0.2-0.1,0.4-0.8,0.3-1.2
		C66.8,25.6,66.3,25.3,66.1,25.4z"/>
</g>
</svg>
