<?xml version="1.0" encoding="utf-8"?>
<!-- Generator: Adobe Illustrator 25.4.1, SVG Export Plug-In . SVG Version: 6.00 Build 0)  -->
<svg version="1.1" id="Layer_1" xmlns="http://www.w3.org/2000/svg" xmlns:xlink="http://www.w3.org/1999/xlink" x="0px" y="0px"
	 viewBox="0 0 119.6 80" style="enable-background:new 0 0 119.6 80;" xml:space="preserve">
<style type="text/css">
	.st0{fill:#C7920F;}
	.st1{fill:url(#SVGID_1_);}
	.st2{fill:url(#SVGID_00000076570318482233340440000003920575840692739714_);}
	.st3{fill:url(#SVGID_00000057133725343257325140000000976772561669181586_);}
	.st4{fill:url(#SVGID_00000121241527063063419000000006773215940460929214_);}
	.st5{fill:url(#SVGID_00000166644865491184695950000018369895828885156531_);}
	.st6{fill:url(#SVGID_00000133524645195304144110000007324738286983689370_);}
	.st7{fill:url(#SVGID_00000073692630657334169190000002535202338162176384_);}
	.st8{fill:url(#SVGID_00000101094215727923280050000008973504665449513344_);}
	.st9{fill:url(#SVGID_00000150090959370502793490000008138339348166466472_);}
	.st10{fill:#0A58A2;}
	.st11{fill:#153219;}
</style>
<g>
	<path class="st0" d="M9,47.3c0,0,5.6,0.2,9.4,1.1c3.8,0.9,11.2,2.7,14.8,4.5c3.6,1.8,5.3,2.6,7.8,2.6c2.5,0,3.4-0.7,6.2-0.9
		c2.8-0.2,5.4,0.3,6.9,1.3c0,0,0.6-3.5-0.7-5c-1.2-1.5-6.9-0.7-8.1-0.5c0,0-4.7,0.7-6.6,0.5c-1.9-0.2-3.5-1.2-5.8-1.9
		C30.5,48.2,19.7,43.9,9,47.3z"/>
	<path class="st0" d="M40.4,40.5c0,0,0.5,1.7,1.4,2.1s2.3,0.2,2.9-0.1c0.5-0.3,0.7-0.3,0.7-0.3s-0.3,1,0.3,1.5s1.1,1.3,2,1.2
		c0.9,0,2.2-1.3,3.3-2c1.1-0.7,1.5-0.9,1.9-0.8c0.4,0,1.2,0.5,1.4,1.1c0.2,0.6,0.9,3.9,0.8,4.9c-0.1,1,0.7,0.4,1-0.4
		c0.4-0.7,0.6-3.3,0.1-4.5c-0.5-1.3-1-1.8-1-1.8s1.8-0.3,2.6-0.1c0.8,0.2,1.3,0.2,1.4,0.8c0,0,0,3.2,0.3,4.3
		c0.3,1.1,1.5,2.7,2.4,3.3c0.9,0.6,2.4,1.1,3.8,0.8c1.4-0.3,3-2.4,3.6-3.3s3.6-5,5-6.1c1.4-1.1,3.1-1.7,4.6-2.1
		c1.6-0.4,6.8-2.1,10.5-4.9c3.7-2.8,8.1-7.7,8.9-8.6s1-1.6,1-1.6l-1-1.1c0,0-5.7,5.8-8.1,7.2c-2.5,1.4-6.2,3.5-6.2,3.5l-10.7,4.3
		c0,0-6.1,6.9-6.2,6.9c-0.1,0.1-3.7,1.7-3.7,1.7s-2.4-0.6-2.4-2c0-1.4,0.2-3.8-0.3-4.7c-0.6-0.9-1.6-0.9-3.7-0.5
		c-2.1,0.4-3.6-0.3-4-0.2c-0.4,0.1-1.1,0.6-0.8,0.8c0.4,0.3,0.2,0.6-0.4,0.6s-1.2,0-1.1-0.8s0.3-1.7-0.8-2.4s-2.7-0.9-2.7-0.9
		s0.1,1.6,0,2.1s-0.2,1.2,0,1.8c0,0-1.5-2.3-3.6-1.8c-1.4,0.4-0.4,1.6-0.4,1.6S40.8,39.5,40.4,40.5z"/>
	<path class="st0" d="M57.2,47.9c0,0-1.3,3.8-0.4,6.7c0.9,2.9,3.8,6.1,5.7,7.4c1.8,1.3,4.6,2.7,4.6,2.7l-0.6,1
		c0,0-10.3-3.5-11.8-9.9S57.2,47.9,57.2,47.9z"/>
	<path class="st0" d="M25.3,52.3c0,0,3.3,10.3,14.2,14.8s17.4-1.8,18.1-2.6c0.7-0.8,0.7-1.1,0-1.9c-0.7-0.7-1.7-2-2-1.8
		c0,0-3.6,3.2-7.1,4.2c-3.5,1.1-9.2,0.1-13.4-3S25.8,53.5,25.3,52.3z"/>
	<path class="st0" d="M63.5,68.8c0,0,0-0.2,0.3-0.1c0.3,0,1,0.4,1,0.4s-0.1,2.9-0.1,4s0.8,3.4,1,3.4c0.2,0,0.6-0.1,1.4,0
		c0.8,0.1,1.2,0.5,1.5,0.7c0.4,0.1,0.3-0.1,0.9-0.5c0.6-0.4,0.7-0.7,1.1-0.6c0.4,0.1,0.5,0.6,0.8,0.6s0.3-0.5,0.7-0.7
		c0.4-0.3,0.7-0.6,1.3-0.4c0.6,0.2,1,0.8,1.4,0.7s0.5-0.7,1.2-1c0.7-0.3,1.2-0.3,1.7-0.5s1.3-0.8,1.5-1.1c0.2-0.3,0.3-0.3,0.2-0.9
		c-0.1-0.6,0-1.4,0.6-1.5c0.5-0.1,1.5,0.3,1.6-0.2c0-0.5-0.5-1.8-0.9-2.5c-0.4-0.7-0.8-1.2-0.4-1.2s1.5,0.6,1.9,0.6s1.2-0.1,1-0.6
		c-0.2-0.5-1.2-1-1.8-1.5c-0.6-0.5-0.9-1-0.7-1.3c0.3-0.2,0.4-0.2,0.2-0.5c-0.2-0.3-2-1.4-3.2-1.9c-1.2-0.6-2-0.8-2.1-1.1
		s0.5-1.3,0.5-1.3s6.1,2.5,7.1,3.1c1,0.5,2.8,1.2,2.8,1.5c0,0.4-0.6,0.9-0.6,0.9s-0.2,1-0.2,1.6c0,0.6,0.1,2-0.3,2.6
		c-0.4,0.6-1.1,0.8-1.2,1.1s0.2,1.5-0.1,2.1c-0.3,0.6-1.9,0.6-2.1,0.8c-0.3,0.2,0.1,1.3-0.5,1.9c-0.6,0.5-0.8,1.1-1.8,1.4
		c-1,0.4-2.3,0.8-2.7,1.1s-1.1,1.2-1.4,1.3s-1,0.1-1.3,0c-0.3-0.1-0.4-0.5-0.6-0.5s-0.3,0.1-0.6,0.5c-0.3,0.4-0.7,0.6-1.2,0.6
		s-0.9-0.1-1.1-0.4c-0.2-0.3-0.2-0.4-0.4-0.3c-0.2,0.2-0.2,0.6-1,0.5c-0.7-0.1-1.3-0.5-1.6-0.8c-0.3-0.2-0.5-0.4-0.7-0.3
		c-0.2,0-0.2,0.4-0.9,0.2c-0.8-0.1-1.5-0.7-1.9-1.2c-0.4-0.5-1-1.8-1.2-3c-0.1-1.2,0.2-3.4,0.3-3.9C63.1,70.4,63.5,68.8,63.5,68.8z"
		/>
	<path class="st0" d="M74.5,54.9l-0.5,0.8c0,0,1.6,1.2,3.1,1.7c1.5,0.5,4.7,0.8,8.2-1.1c3.6-1.9,10.9-9.5,11.5-10.2s3.8-5.4,4.4-6.5
		c0.6-1.1,2.6-5.9,2.8-6.6s1.3-3.7,1.5-4.5c0.2-0.9,0.1-1.8-0.1-1.7c-0.2,0-1.1,0.7-1.2,1c0,0-2,4.4-2.9,5.7
		c-0.9,1.2-5.2,7.5-5.5,7.9c-0.4,0.4-5.1,6.4-5.8,7.2s-2.2,2.4-2.7,2.9c-0.5,0.5-2.1,2.1-3.6,2.7c-1.4,0.7-2.5,1.1-4.2,1.3
		C77.7,55.5,74.5,54.9,74.5,54.9z"/>
	<path class="st0" d="M73.2,52.7c-0.1,0.1-0.8,1.4-0.8,1.4s1.5,0.9,4.4,0.9s5.2-1.4,7.4-3.5c2.3-2.1,5.4-6,5.7-6.4s0.6-1,0.2-1.4
		c-0.4-0.4-1.5-0.3-2.4,0s-1.3,1.3-1.5,1.6c-0.2,0.3-4.5,5.1-5.2,5.7c0,0-1.3,0.9-2.4,1.5c-1.2,0.6-2.2,0.8-3.2,0.8
		S73.2,52.7,73.2,52.7z"/>
	<linearGradient id="SVGID_1_" gradientUnits="userSpaceOnUse" x1="13.9066" y1="50.5982" x2="53.3907" y2="50.5982">
		<stop  offset="5.496279e-04" style="stop-color:#146336"/>
		<stop  offset="0.4909" style="stop-color:#14341A"/>
		<stop  offset="0.9965" style="stop-color:#146336"/>
	</linearGradient>
	<path class="st1" d="M13.9,47c-0.1,0,7.8,1,9.8,1.6c2,0.6,9.2,3.6,11.8,4.5c2.6,0.9,4.5,1.2,7.1,1c2.6-0.2,8.3-1.1,10.5,0.4
		c0,0,0.5-1.9,0-2.5s-1.4-1.5-4-1.3c0,0-5.5,0.4-6.8,0.6c-1.3,0.2-2.2,0.3-4.3,0.1s-3.3-0.5-5-1.4C31.4,49.2,22,45.7,13.9,47z"/>
	
		<linearGradient id="SVGID_00000003798530842468416130000006986323287684746131_" gradientUnits="userSpaceOnUse" x1="28.5283" y1="63.0896" x2="56.751" y2="63.0896">
		<stop  offset="5.496279e-04" style="stop-color:#146336"/>
		<stop  offset="0.4909" style="stop-color:#14341A"/>
		<stop  offset="0.9965" style="stop-color:#146336"/>
	</linearGradient>
	<path style="fill:url(#SVGID_00000003798530842468416130000006986323287684746131_);" d="M28.5,58.2c0,0,6.2,6,12.1,7.4
		c5.9,1.4,8.2-0.2,10.5-1.5s3.6-2.5,4-2.3s1.9,1.1,1.6,1.6c-0.3,0.5-3.4,4.6-10.7,4.7C38.7,68.1,31.1,61.9,28.5,58.2z"/>
	
		<linearGradient id="SVGID_00000000903224368385034940000007048047129439459235_" gradientUnits="userSpaceOnUse" x1="54.5354" y1="57.7815" x2="64.7177" y2="57.7815">
		<stop  offset="5.496279e-04" style="stop-color:#146336"/>
		<stop  offset="0.4909" style="stop-color:#14341A"/>
		<stop  offset="0.9965" style="stop-color:#146336"/>
	</linearGradient>
	<path style="fill:url(#SVGID_00000000903224368385034940000007048047129439459235_);" d="M55.5,50.8c0,0-0.4,2.6,0.9,5
		s8.2,8.8,8.2,8.8s-8.9-4.9-10-9.9C54,50.9,55.5,50.8,55.5,50.8z"/>
	
		<linearGradient id="SVGID_00000016793356270988123120000003869568405306888881_" gradientUnits="userSpaceOnUse" x1="53.8815" y1="44.442" x2="55.7238" y2="44.442">
		<stop  offset="5.496279e-04" style="stop-color:#146336"/>
		<stop  offset="0.4909" style="stop-color:#14341A"/>
		<stop  offset="0.9965" style="stop-color:#146336"/>
	</linearGradient>
	<path style="fill:url(#SVGID_00000016793356270988123120000003869568405306888881_);" d="M53.9,41.9c0,0,1.8,2,1.6,5.1
		c0,0,0.6-1.5,0-3.4C54.9,41.8,53.9,41.9,53.9,41.9z"/>
	
		<linearGradient id="SVGID_00000170238315150558661220000013901876633031279034_" gradientUnits="userSpaceOnUse" x1="52.6006" y1="36.8147" x2="98.2864" y2="36.8147">
		<stop  offset="5.496279e-04" style="stop-color:#146336"/>
		<stop  offset="0.4909" style="stop-color:#14341A"/>
		<stop  offset="0.9965" style="stop-color:#146336"/>
	</linearGradient>
	<path style="fill:url(#SVGID_00000170238315150558661220000013901876633031279034_);" d="M52.6,39.3c0,0,0.4,1.6,2.2,1.3
		s2.9-0.6,3.7-0.2s1.1,1.1,1,2.5c-0.1,1.3-0.4,3.7,0.9,5c1.3,1.3,3.1,1.9,4.3,1.8c1.2-0.1,2.5-1.4,3.4-2.7c0.9-1.3,3.6-5.4,5.1-6.7
		c1.5-1.2,3.3-2.1,6-2.9s6.6-1.8,11.1-5.2c4.6-3.5,7.9-8.3,7.9-8.3s-6.1,5.4-10,7.5c-3.9,2.1-7.5,3.2-10.5,3.8
		c-2.9,0.6-4.1,1-5.6,2.2c-1.5,1.2-3.9,5.8-5,6.6c-1.1,0.8-2.6,2.6-4.5,2.4s-2.5-1.4-2.6-2.4c-0.1-1.1,0.2-3.3-0.5-4.2
		c-0.7-0.9-2-0.8-3.1-0.7C55.5,39.3,54,40,52.6,39.3z"/>
	
		<linearGradient id="SVGID_00000034800539857647754090000015577629061750459063_" gradientUnits="userSpaceOnUse" x1="40.9104" y1="40.6324" x2="53.3907" y2="40.6324">
		<stop  offset="5.496279e-04" style="stop-color:#146336"/>
		<stop  offset="0.4909" style="stop-color:#14341A"/>
		<stop  offset="0.9965" style="stop-color:#146336"/>
	</linearGradient>
	<path style="fill:url(#SVGID_00000034800539857647754090000015577629061750459063_);" d="M45.7,43.3c0,0,0.7,1.1,1.9,1
		c1.2-0.1,2.2-1.3,2.9-1.9c0.6-0.6,1-0.6,1.7-0.8c0.7-0.2,1.2-0.7,1.2-0.7L53,40.5c0,0-0.8,0.7-1.6,0.7S50,40.8,49.9,40
		c-0.1-0.8,0.2-1.3-0.3-2.1c-0.5-0.8-2-0.9-2-0.9s-0.3,2,0.4,2.8c0.7,0.8,1.5,0.6,1.6,1.4c0,0,0.1,0.3-1.1,0.1
		c-1.2-0.2-1.5,0-1.9-0.3s-1.3-2.6-3.2-1.9c0,0,0.3,1.6,1.8,1.9c0,0-0.4,0.1-1.2,0.2c-0.8,0-0.8-0.1-1.5-0.5c-0.7-0.4-1.6,0-1.6,0
		s0.7,1.4,1.6,1.5s1.5-0.5,2.1-0.6c0.6-0.2,1.6-0.1,2.3-0.1c0.7,0.1,1.7,0.4,2.2,0.4s0.8,0,0.8,0s-0.4,0.6-0.8,0.8s-0.7-0.2-1.5-0.2
		C46.9,42.6,45.7,43.3,45.7,43.3z"/>
	
		<linearGradient id="SVGID_00000166657341827428182470000010268949612216827793_" gradientUnits="userSpaceOnUse" x1="63.1913" y1="69.9594" x2="84.9319" y2="69.9594">
		<stop  offset="5.496279e-04" style="stop-color:#146336"/>
		<stop  offset="0.4909" style="stop-color:#14341A"/>
		<stop  offset="0.9965" style="stop-color:#146336"/>
	</linearGradient>
	<path style="fill:url(#SVGID_00000166657341827428182470000010268949612216827793_);" d="M63.4,70.5c0,0,0,4.4,0.7,5.6
		c0.7,1.2,0.8,1.5,1.5,1.4c0.7-0.1,1.4-0.5,2-0.2c0.6,0.3,0.8,1,1.1,0.8c0.4-0.1,0.9-1.1,1.3-1.3s0.2,0.9,0.4,1.2
		c0.3,0.3,0.6,0.7,1-0.1s0.2-1.5,0.9-1.8c0.8-0.3,1.6,1,2.1,1c0.4,0.1,0.5-0.8,0.9-1c0.4-0.2,1.6-0.6,2.3-0.9c0.6-0.3,2-1.1,2.2-1.7
		c0.1-0.6-0.1-1.4,0.3-1.6c0.4-0.1,1.3,0,1.7-0.1c0.4-0.2,0.5-0.9,0.4-1.3c-0.1-0.4-1-1.6-0.8-1.9c0.1-0.2,0.8,0.2,1.3,0
		c0.5-0.2,0.9-0.8,0.9-1.3c0-0.5-0.8-1.2-1.4-1.8c-0.7-0.6-1.2-1.1-0.5-1c0.7,0,1.8,0.2,0.9-0.4c-0.9-0.6-6.4-3.3-6.4-3.4
		c0-0.1,5.6,2.1,6.7,2.6c1.1,0.5,2.1,0.9,1.9,1.3s-0.6,0.5-0.6,0.5s0.6,3.1,0,4S83,70.1,83,70.1s0.3,2-0.4,2.6
		c-0.7,0.6-1.7,0.4-1.7,0.4s0.1,1.9-2.2,3s-3.4,1.3-3.9,2.1c-0.5,0.8-1,0.5-1.4-0.1s-0.8-1.5-0.9-0.8c-0.2,0.7-0.4,1.5-0.7,1.7
		c-0.4,0.2-1.7,0.1-2-0.6c-0.3-0.7-0.4,0.3-0.9,0.6c-0.5,0.3-1.1-0.4-1.5-0.7c-0.4-0.3-0.8-0.3-1.5-0.3c-0.7,0-1.1,0-1.7-0.7
		c-0.5-0.8-0.9-1.4-1-2.8C63.1,73.2,63.2,71.1,63.4,70.5z"/>
	
		<linearGradient id="SVGID_00000075841258051102247360000005474050620378045108_" gradientUnits="userSpaceOnUse" x1="73.9004" y1="48.9136" x2="89.6051" y2="48.9136">
		<stop  offset="5.496279e-04" style="stop-color:#146336"/>
		<stop  offset="0.4909" style="stop-color:#14341A"/>
		<stop  offset="0.9965" style="stop-color:#146336"/>
	</linearGradient>
	<path style="fill:url(#SVGID_00000075841258051102247360000005474050620378045108_);" d="M74,53.8c0,0,2.5,0.6,4.3,0.2
		c1.8-0.5,3.5-1.2,5.4-3.1s4.3-4.5,4.6-5.1c0.4-0.5,1-1.3,1.1-1.6c0.1-0.2,0.6-0.5-0.3-0.5c-0.8,0-1.4,0.1-1.6,0.4
		c0,0-1.3,2-1.7,2.4c-0.4,0.4-2.7,3.1-3.3,3.7s-2.5,1.9-3.2,2.2c-0.7,0.3-2,0.9-3,1C75.2,53.6,73.6,53.5,74,53.8z"/>
	
		<linearGradient id="SVGID_00000137812260133471831500000006914930307912571797_" gradientUnits="userSpaceOnUse" x1="75.0188" y1="42.3329" x2="105.0372" y2="42.3329">
		<stop  offset="5.496279e-04" style="stop-color:#146336"/>
		<stop  offset="0.4909" style="stop-color:#14341A"/>
		<stop  offset="0.9965" style="stop-color:#146336"/>
	</linearGradient>
	<path style="fill:url(#SVGID_00000137812260133471831500000006914930307912571797_);" d="M75.9,55.8c0,0-1.3-0.4-0.7,0
		c0.5,0.4,1.9,1.1,4.6,1.1s5.1-1.2,6.1-1.9c1.1-0.7,5.5-4.5,6.3-5.3c0.9-0.8,4.2-4.7,5.1-5.7c0.9-1,2.2-3.1,2.5-3.6
		c0.2-0.5,2.4-4.2,3-5.8c0.6-1.6,2.2-5.9,2.3-6.3c0-0.4-0.1-0.8-0.3-0.5c0,0-2.2,4.5-3.3,6.2c-1.1,1.7-4.8,7-6.2,8.7
		c-1.4,1.7-4.5,5.6-5.2,6.4c-0.7,0.8-3.7,4-4.8,4.6c-1.1,0.6-3.2,1.7-4.2,1.9C80,56,76.3,55.9,75.9,55.8z"/>
	<path class="st10" d="M56.3,41c0,0-0.4,0-0.1,0.4c0.3,0.4,0.3,1,0.4,0.9c0.1-0.1,0.3-0.5,0.2-0.9S56.4,41,56.3,41z"/>
	<path class="st11" d="M102,26.5c-0.1,0-0.2,0-0.2,0c-0.2-0.1-0.3-0.2-0.3-0.4c-0.1-0.4,0.1-0.7,0.5-1.3c0.4-0.6,1-1.4,1.5-2.6
		c0.1-0.3,0.3-0.6,0.4-1c-4.2-1.5-10.9-4.4-13.6-5.6c-0.8,1.3-1.3,2.5-1.5,3.2c-0.3,0.9-0.6,1.7-1.2,1.7c-0.5,0-0.8-0.5-1-1
		c-0.6-1.3,0.4-4,0.8-5.1c-0.5-0.3-1.5-0.8-1.8-1c-0.3-0.2-0.5-0.6-0.4-0.9c0.1-0.4,0.5-0.6,1-0.6c0.1,0,0.2,0,0.3,0
		c0.5,0.1,1.4,0.4,1.9,0.6C91.2,8,96.1,4.7,98.7,4c1-0.2,1.8-0.4,2.6-0.4c1.8,0,3.3,0.6,4.8,1.8c2.6,2.2,2.6,6.6,2.5,8.4
		c-0.1,1.5-0.7,3.8-1.5,5.9c0.7,0.5,1,0.9,1,1.4c0,0.3-0.1,0.5-0.4,0.7c-0.1,0.1-0.3,0.1-0.5,0.1c0,0,0,0,0,0c-0.2,0-0.6-0.1-1-0.2
		c-0.1,0.1-0.1,0.3-0.2,0.4C105.1,23.7,102.9,26.5,102,26.5z M91.6,13.7c3.1,1,10.6,3.6,11.9,4.1c0.3,0.1,0.7,0.3,1.2,0.6
		c0.6-2.6,1.1-5.3,1.2-6.2c0.1-1-0.3-5-4.3-5.4c-0.2,0-0.3,0-0.5,0c-3.5,0-7.3,4-9.2,6.4C91.8,13.5,91.7,13.6,91.6,13.7z"/>
	<path class="st0" d="M101.3,4.2c1.6,0,3,0.5,4.5,1.7c2.2,1.9,2.4,5.7,2.3,8c-0.1,1.7-0.8,4.1-1.6,6.1c0.9,0.6,1.4,1.2,0.9,1.5
		c-0.1,0-0.1,0.1-0.3,0.1c-0.3,0-0.7-0.1-1.2-0.2c-0.1,0.2-0.2,0.5-0.4,0.7c-1.1,1.8-3,4-3.5,4c0,0,0,0-0.1,0
		c-0.4-0.2,0.8-1.2,2-3.6c0.2-0.4,0.4-0.9,0.6-1.5c-4.3-1.5-12.1-4.9-14.4-5.9c-0.9,1.4-1.5,2.8-1.8,3.6c-0.2,0.8-0.5,1.4-0.8,1.4
		c-0.2,0-0.3-0.2-0.6-0.7c-0.6-1.4,1-5.1,1-5.1s-1.7-0.9-2.1-1.2c-0.4-0.3-0.1-0.6,0.4-0.6c0.1,0,0.1,0,0.2,0
		c0.6,0.1,2.2,0.8,2.2,0.8c2.6-4.6,7.5-8,10.1-8.7C99.7,4.3,100.5,4.2,101.3,4.2 M105,19.1c0.7-2.7,1.3-5.8,1.4-6.8
		c0.1-1.5-0.6-5.4-4.7-5.9c-0.2,0-0.3,0-0.5,0c-4,0-8,4.6-9.6,6.6c-0.2,0.3-0.5,0.6-0.7,0.9c2.3,0.8,11.1,3.7,12.5,4.3
		C103.8,18.5,104.4,18.8,105,19.1 M101.3,3.2c-0.8,0-1.7,0.1-2.7,0.4C96,4.2,91.1,7.5,88.3,12c-0.6-0.2-1.3-0.5-1.7-0.5
		c-0.1,0-0.3,0-0.4,0c-0.7,0-1.3,0.4-1.4,0.9c-0.1,0.4,0,1,0.5,1.4c0.3,0.2,1,0.6,1.5,0.9c-0.1,0.4-0.3,0.8-0.4,1.3
		c-0.5,1.7-0.6,2.9-0.2,3.7c0.2,0.4,0.6,1.3,1.4,1.3c1,0,1.3-1.1,1.6-2.1c0.2-0.6,0.6-1.6,1.3-2.7c2.8,1.2,8.8,3.8,12.8,5.3
		c-0.1,0.2-0.2,0.4-0.2,0.5c-0.5,1.1-1.1,2-1.5,2.5c-0.5,0.7-0.8,1.1-0.6,1.7c0.1,0.3,0.3,0.6,0.6,0.7c0.1,0.1,0.3,0.1,0.4,0.1
		c0.3,0,0.8,0,2.2-1.6c0.8-0.9,1.6-1.9,2.1-2.8c0,0,0,0,0-0.1c0.3,0.1,0.5,0.1,0.7,0.1c0.3,0,0.6-0.1,0.8-0.2
		c0.4-0.3,0.6-0.7,0.6-1.1c0-0.6-0.4-1.1-0.9-1.5c0.8-2.1,1.3-4.3,1.4-5.7c0.1-1.9,0.1-6.4-2.6-8.7C104.9,3.9,103.2,3.2,101.3,3.2
		L101.3,3.2z M92.3,13.5c3.2-4,6.3-6.1,8.8-6.1c0.1,0,0.3,0,0.4,0c3.6,0.4,4,3.9,3.9,4.9c-0.1,0.8-0.5,3.2-1,5.5
		c-0.3-0.1-0.6-0.3-0.7-0.3C102.4,16.9,95.7,14.6,92.3,13.5L92.3,13.5z"/>
	<path class="st11" d="M113.3,21.5c-0.1,0-0.2,0-0.2,0c-0.4-0.1-2.4-0.8-2.9-1.6c-0.5-0.8,0-1.4,0.4-1.7c0.2-0.2,0.7-0.7,1.1-0.7
		c0.1,0,0.1,0,0.2,0c0.5,0,1.7,0.3,2.5,0.9c1,0.6,1.3,1.4,0.9,2.3C114.8,21.3,113.8,21.5,113.3,21.5L113.3,21.5z"/>
	<path class="st0" d="M111.8,17.9c0.4,0,1.4,0.3,2.2,0.8c0.9,0.6,1,1.1,0.7,1.7c-0.2,0.5-1,0.7-1.4,0.7c-0.1,0-0.1,0-0.2,0
		c-0.4-0.1-2.2-0.8-2.6-1.4c-0.4-0.6,0.3-1.1,0.3-1.1S111.4,18,111.8,17.9C111.7,17.9,111.7,17.9,111.8,17.9 M111.8,17
		c-0.1,0-0.2,0-0.3,0c-0.5,0.1-1,0.5-1.3,0.8c-0.6,0.5-1,1.5-0.5,2.3c0.6,1,2.9,1.8,3.3,1.8c0.1,0,0.2,0,0.3,0
		c0.8,0,1.9-0.4,2.3-1.2c0.3-0.8,0.4-1.9-1-2.8C113.6,17.3,112.4,17,111.8,17L111.8,17z"/>
	<path class="st11" d="M113.2,32.9c-0.8,0-1.2-0.4-1.4-0.7c-0.8-1.2-0.5-2.7,1-4.5l0.1-0.1c0.2-0.2,0.4-0.5,0.7-0.7c0,0,0,0,0,0
		c0,0-0.1,0-0.1,0c-0.1,0-0.3,0-0.4-0.1c-0.1,0.1-0.2,0.2-0.5,0.4c-1.3,1.2-2.3,1.9-3.2,2.1c-0.2,0.1-0.5,0.1-0.7,0.1
		c-0.7,0-1.3-0.2-1.7-0.7c-0.4-0.4-0.6-0.9-0.5-1.5c0.1-1.6,2.5-5.1,3.2-5.6c0.3-0.2,0.5-0.3,0.8-0.3c0.4,0,0.6,0.2,0.8,0.4
		c1.1,1,1,1.4,1,1.5c-0.1,0.4-0.7,1.2-1.7,2.3c-1,1.1-1.3,1.8-1.3,2.1c0.2,0,0.3-0.1,0.4-0.2c0.4-0.2,1.5-0.9,2.1-1.4
		c0.2-0.2,0.6-0.6,0.9-1c0.5-0.7,0.8-1,1.1-1.1c0.2-0.1,0.4-0.2,0.7-0.2c0.2,0,0.3,0,0.6,0.1c0.5,0.1,0.9,0.3,1.1,0.7
		c0.1,0.2,0.1,0.4,0.1,0.6c0,0.1-0.1,0.3-0.4,0.7c0.5,0.3,1.2,0.6,1.4,0.8c0.1,0.1,0.2,0.3,0.1,0.5c0,0.4-0.4,0.6-0.8,0.9
		c-0.2,0.1-0.4,0.3-0.5,0.4c-0.1,0.1-0.2,0.3-0.4,0.5c-0.4,0.5-1.5,1.7-1.6,2.1c0,0.1,0,0.1,0,0.1h0c0,0,0,0,0.1,0
		c0.1,0,0.2,0,0.4-0.1c0.7-0.2,2.4-1.6,2.8-2l0.1-0.1c0.4-0.4,0.7-0.7,1.1-0.7h0l0,0c0.4,0.1,0.6,0.4,0.7,0.5
		c0.1,0.2,0.3,0.5-1.1,1.8C117.5,31,115,32.9,113.2,32.9C113.2,32.9,113.2,32.9,113.2,32.9z"/>
	<path class="st0" d="M110.3,21.6c0.3,0,0.4,0.2,0.4,0.2s0.9,0.8,0.9,1.1c-0.1,0.3-0.7,1.1-1.6,2.1c-0.9,1-1.4,1.9-1.4,2.5
		c0,0.3,0.1,0.4,0.3,0.4c0.2,0,0.5-0.1,0.8-0.2c0.5-0.2,1.7-1,2.2-1.5c0.6-0.5,1.5-1.9,1.9-2c0.2-0.1,0.3-0.1,0.5-0.1
		c0.1,0,0.3,0,0.5,0.1c0.6,0.1,0.9,0.5,0.8,0.6c0,0.1-0.5,0.7-0.7,1c0.5,0.2,1.5,0.7,1.8,1c0.3,0.3-0.8,0.8-1.1,1.2
		c-0.3,0.4-2.1,2.3-2.1,2.8c0,0.4,0.2,0.6,0.6,0.6c0.2,0,0.3,0,0.6-0.1c0.8-0.3,2.6-1.7,3-2.1c0.4-0.4,0.7-0.7,0.9-0.7c0,0,0,0,0,0
		c0.2,0,0.3,0.2,0.4,0.3c0.1,0.1-0.4,0.7-1,1.3c-0.5,0.5-2.9,2.3-4.5,2.3c-0.4,0-0.8-0.1-1-0.5c-1.1-1.6,0.7-3.6,1-4
		c0.3-0.4,1.1-1.1,1.2-1.4c0.1-0.1,0-0.2,0-0.4c-0.3,0.1-0.7,0.2-1,0.2c-0.1,0-0.2,0-0.2,0c-0.1-0.1-0.1-0.1-0.2-0.1
		c-0.1,0-0.3,0.1-0.8,0.6c-0.7,0.7-1.9,1.7-3,2c-0.2,0.1-0.4,0.1-0.6,0.1c-0.9,0-1.8-0.5-1.8-1.7c0.1-1.4,2.4-4.8,3-5.3
		C110,21.7,110.2,21.6,110.3,21.6 M110.3,20.7L110.3,20.7c-0.4,0-0.7,0.1-1.1,0.4c-0.7,0.6-3.3,4.1-3.4,6c0,0.7,0.2,1.4,0.7,1.9
		c0.5,0.5,1.2,0.8,2,0.8c0.3,0,0.6,0,0.9-0.1c0.7-0.2,1.4-0.6,2.2-1.2c-0.7,1.2-1,2.6-0.2,3.9c0.4,0.6,1,0.9,1.8,0.9
		c2,0,4.8-2.2,5.1-2.5c1.2-1.1,1.5-1.8,1.1-2.4c-0.2-0.4-0.6-0.7-1.1-0.8c0,0-0.1,0-0.1,0c-0.5,0-0.9,0.4-1.4,0.8l-0.1,0.1
		c-0.3,0.3-1.2,1-1.9,1.4c0.3-0.4,0.6-0.7,0.8-0.9c0.2-0.2,0.3-0.4,0.4-0.5c0.1-0.1,0.3-0.2,0.4-0.3c0.5-0.3,0.9-0.7,1-1.2
		c0-0.3-0.1-0.6-0.3-0.8c-0.1-0.1-0.3-0.3-1-0.7c0.1-0.2,0.2-0.3,0.2-0.4c0.1-0.3,0.1-0.7-0.1-1c-0.3-0.5-0.8-0.8-1.4-0.9
		c-0.2,0-0.5-0.1-0.7-0.1c-0.3,0-0.6,0.1-0.9,0.2c-0.4,0.2-0.7,0.5-1.3,1.3c-0.3,0.3-0.6,0.8-0.8,0.9c-0.4,0.3-0.8,0.6-1.2,0.9
		c0.2-0.2,0.4-0.5,0.6-0.7c1.7-1.8,1.8-2.3,1.9-2.5c0.2-0.8-0.6-1.5-1.1-1.9C111.2,21,110.8,20.7,110.3,20.7L110.3,20.7z"/>
	<path class="st11" d="M66.6,15.6c-0.1,0-0.2,0-0.3,0c-1-0.1-1.6-1.1-1.8-2.9c-0.1-0.9,0.3-2.3,0.7-3.2c-0.1,0-0.2-0.1-0.3-0.1
		c-0.4-0.2-0.4-0.5-0.4-0.6c0-0.3,0.3-0.6,0.8-0.7l0.1,0l0.1,0c0,0,1,0,1.7,0c0.5,0,0.7,0.2,0.8,0.4c0.2,0.3,0.1,0.7-0.1,1.2
		c-0.1,0.2-0.2,0.3-0.3,0.4c-0.1,0.1-0.2,0.2-0.4,0.6c-0.3,0.8-0.4,2.6-0.1,2.8c0.2,0,0.7-0.8,0.9-1.1c0.1-0.2,0.2-0.3,0.3-0.5
		c0.4-0.5,0.6-1.2,0.7-2c0-0.3,0.1-1,0.8-1c0,0,0.1,0,0.2,0c0.1,0,0.1,0,0.2,0c0,0,0.1,0,0.1,0c0,0,0,0,0.1,0c0,0,0-0.1,0.1-0.1
		c0.1-0.2,0.3-0.6,0.8-1c0.5-0.5,0.9-0.7,1.3-0.7c0.3,0,0.5,0.2,0.6,0.3c0.3,0.5,0,1.6-0.2,2.2c0.2-0.2,0.4-0.4,0.7-0.5
		c0.4-0.2,0.8-0.3,1.3-0.3c0.3,0,0.9,0,1.1,0.5c0.2,0.3,0.1,0.8-0.3,2c-0.1,0.2-0.1,0.4-0.2,0.6c-0.2,0.8-0.2,1.3-0.1,1.5
		c0,0,0,0,0,0c0,0,0,0,0,0c0.4,0,1.3-1.2,1.6-1.6c0.1-0.1,0.1-0.2,0.2-0.3c0.2-0.2,0.3-0.4,0.4-0.5c0.3-0.4,0.5-0.7,0.9-0.7
		c0.1,0,0.2,0,0.2,0c0.5,0.2,0.7,0.7,0.5,1.2c-0.1,0.4-1.5,2.2-2,2.7c-0.3,0.4-1.1,1.1-2.2,1.1c-0.3,0-0.7-0.1-1-0.2
		c-0.5-0.2-0.8-0.5-1-0.9c-0.3-0.7-0.2-1.6,0-2.1c-0.2,0.3-0.4,0.9-0.6,1.5l0,0.1c-0.2,1-0.4,1.5-0.8,1.6c-0.1,0-0.2,0-0.3,0
		c-0.4,0-0.9-0.1-1.3-0.4c-0.4-0.3-0.5-1-0.4-1.6c-0.2,0.3-0.4,0.6-0.5,0.8C68.5,15.1,67.6,15.6,66.6,15.6L66.6,15.6z"/>
	<path class="st0" d="M72.6,7.5c0.2,0,0.2,0.1,0.2,0.1c0.2,0.3,0,1.3-0.3,2.2c-0.4,0.9-0.5,1.4-0.3,1.5c0,0,0,0,0,0
		c0.2,0,1.1-1.4,1.8-1.8c0.4-0.2,0.7-0.3,1.1-0.3c0.4,0,0.7,0.1,0.7,0.2c0.1,0.3-0.3,1.5-0.6,2.2c-0.2,0.7-0.5,2,0.3,2.1
		c0,0,0.1,0,0.1,0c0.7,0,1.7-1.4,2.2-2.1c0.5-0.6,0.7-1,0.9-1c0,0,0,0,0.1,0c0.2,0.1,0.3,0.4,0.2,0.6c-0.1,0.2-1.4,2-1.9,2.6
		c-0.4,0.4-1,1-1.9,1c-0.3,0-0.6,0-0.9-0.2c-1.4-0.5-0.7-2.7-0.5-3.1c0.1-0.2,0-0.3-0.1-0.3c-0.1,0-0.3,0.1-0.5,0.2
		c-0.5,0.2-0.9,1.4-1,2c-0.1,0.6-0.3,1.3-0.5,1.3c0,0-0.1,0-0.2,0c-0.3,0-0.7-0.1-1-0.3c-0.4-0.3-0.2-1.8-0.1-2.2
		c0.1-0.4,0-0.7-0.1-0.7c0,0,0,0,0,0c-0.2,0.1-0.9,1.4-1.4,2.2c-0.5,0.7-1.2,1.3-2.1,1.3c-0.1,0-0.1,0-0.2,0c-1-0.1-1.3-1.4-1.4-2.5
		c-0.1-1,0.5-2.6,0.8-3.2C66,8.9,65.6,9.2,65.2,9c-0.4-0.2,0.4-0.5,0.4-0.5s1,0,1.7,0c0.7,0,0.5,0.5,0.3,0.9c-0.2,0.4-0.4,0.4-0.6,1
		c-0.3,0.7-0.6,3.1,0.1,3.4c0.1,0,0.1,0.1,0.2,0.1c0.6,0,1.2-1.1,1.6-1.7c0.5-0.7,0.7-1.5,0.8-2.3c0.1-0.5,0.1-0.6,0.4-0.6
		c0.1,0,0.2,0,0.3,0c0,0,0.1,0,0.1,0c0.6,0,0.3-0.4,1.2-1.3C72.1,7.6,72.4,7.5,72.6,7.5 M72.6,6.6c-0.5,0-1,0.3-1.6,0.8
		c-0.5,0.4-0.7,0.8-0.8,1c0,0,0,0,0,0c-0.1,0-0.1,0-0.2,0c-0.8,0-1.2,0.5-1.3,1.4c-0.1,0.5-0.2,1.2-0.6,1.8
		c-0.1,0.1-0.2,0.3-0.3,0.5c-0.1,0.1-0.2,0.2-0.2,0.4c0-0.6,0.1-1.4,0.3-1.7c0.1-0.3,0.2-0.4,0.3-0.5c0.1-0.1,0.2-0.2,0.3-0.5
		c0.4-0.8,0.3-1.3,0.1-1.6C68.3,8,68,7.6,67.2,7.6c-0.7,0-1.6,0-1.7,0l-0.1,0l-0.1,0c-0.9,0.3-1.1,0.8-1.2,1.1c0,0.2,0,0.7,0.6,1
		c-0.4,1-0.7,2.1-0.6,3c0.2,2,1,3.1,2.2,3.3c0.1,0,0.2,0,0.3,0c1,0,2-0.5,2.7-1.4c0.1,0.3,0.2,0.5,0.5,0.7c0.5,0.3,1.1,0.5,1.6,0.5
		c0.2,0,0.3,0,0.4-0.1c0.5-0.1,0.8-0.6,0.9-1.2c0.2,0.5,0.7,0.8,1.2,1c0.4,0.1,0.8,0.2,1.2,0.2c1.3,0,2.1-0.8,2.5-1.3
		c0.5-0.5,1.9-2.4,2.1-2.9c0.3-0.7-0.1-1.5-0.8-1.8c-0.1-0.1-0.3-0.1-0.4-0.1c-0.6,0-1,0.5-1.2,0.9c-0.1,0.1-0.2,0.3-0.4,0.5
		c-0.1,0.1-0.1,0.2-0.2,0.3c-0.2,0.2-0.5,0.7-0.8,1c0-0.2,0.1-0.3,0.1-0.6c0.1-0.2,0.1-0.4,0.2-0.6c0.4-1.2,0.6-1.8,0.3-2.3
		c-0.3-0.5-0.8-0.7-1.5-0.7c-0.4,0-0.8,0.1-1.2,0.2c0.1-0.5,0-1.1-0.2-1.4C73.5,6.9,73.1,6.6,72.6,6.6L72.6,6.6
		C72.6,6.6,72.6,6.6,72.6,6.6L72.6,6.6z M75.5,12.9L75.5,12.9C75.5,12.9,75.5,12.9,75.5,12.9L75.5,12.9z"/>
	<path class="st11" d="M29.7,21.8c-0.4,0-0.7-0.1-1-0.2c-0.2-0.1-1.7-1-2.8-3.8c-0.7-2.1,0.5-3.6,1.3-4.1c0.7-0.5,1.4-0.7,2.1-0.7
		c0.8,0,1.3,0.3,1.6,0.5c0.7,0.4,1.5,1.5,2,2.6c0.5,1.1,0.5,2.6,0.3,3.2c-0.2,0.7-0.8,1.4-1.7,2C31,21.6,30.3,21.8,29.7,21.8
		C29.7,21.8,29.7,21.8,29.7,21.8z M28.7,15.2c-0.1,0-0.2,0-0.4,0.2c0,0-0.3,0.3,0,1c0.7,1.6,1.2,2.2,1.4,2.5
		c0.2,0.2,0.6,0.4,0.8,0.4c0.1,0,0.2,0,0.3-0.1c0,0,0.1-0.1,0.1-0.2c0.1-0.2,0-0.7-0.3-1.2c-0.5-0.8-1.3-1.9-1.6-2.2l-0.1-0.1
		C29,15.4,28.8,15.2,28.7,15.2z"/>
	<path class="st0" d="M29.3,13.5c0.6,0,1.1,0.2,1.4,0.4c0.5,0.3,1.4,1.3,1.8,2.3s0.5,2.4,0.3,2.8c-0.1,0.5-0.6,1.2-1.5,1.8
		c-0.6,0.4-1.2,0.5-1.7,0.5c-0.3,0-0.6-0.1-0.8-0.2c-0.5-0.3-1.7-1.3-2.5-3.5c-0.8-2.3,1.1-3.5,1.1-3.5
		C28.2,13.7,28.8,13.5,29.3,13.5 M30.6,19.8c0.2,0,0.4,0,0.6-0.1c0.5-0.3,0.5-1.2,0-2c-0.5-0.8-1.3-2-1.6-2.3
		c-0.2-0.2-0.5-0.5-0.8-0.5c-0.2,0-0.4,0.1-0.7,0.3c0,0-0.6,0.4-0.2,1.6c0.5,1.1,1,2.2,1.5,2.7C29.8,19.6,30.2,19.8,30.6,19.8
		 M29.3,12.6c-0.8,0-1.6,0.3-2.4,0.8c-0.9,0.6-2.3,2.3-1.4,4.6c0.8,2.3,2.1,3.6,3,4.1c0.3,0.2,0.7,0.3,1.2,0.3
		c0.8,0,1.5-0.2,2.2-0.7c0.9-0.6,1.6-1.4,1.9-2.3c0.2-0.7,0.2-2.2-0.4-3.5c-0.5-1-1.4-2.3-2.2-2.8C30.8,12.9,30.2,12.6,29.3,12.6
		L29.3,12.6z M28.7,15.8C28.7,15.8,28.7,15.8,28.7,15.8c0.1,0,0.1,0.1,0.1,0.1c0,0,0.1,0.1,0.1,0.1c0.3,0.3,1,1.3,1.5,2.1
		c0.2,0.3,0.2,0.6,0.2,0.8c0,0,0,0,0,0c-0.1,0-0.3-0.1-0.5-0.2c-0.2-0.1-0.6-0.7-1.3-2.3C28.6,16,28.6,15.8,28.7,15.8L28.7,15.8z"/>
	<path class="st11" d="M10.9,33.5c-0.4,0-0.8,0-1.1-0.1c-1.9-0.4-2.9-1.6-2.7-3.4c0.2-1.5,1.5-2.5,1.5-2.5l0.3-0.2L9,27.3
		c0,0,0.1,0,0.1,0c0.4,0,0.8,0.3,0.8,0.8l0.1,0.1l-0.3,0.4c0,0,0,0,0,0.1C9.2,29.3,8.9,30,9,30.3c0.3,0.9,1.3,1.1,2.1,1.1l0,0
		c1.4,0,5.2-0.8,7-1.7c2.3-1.1,4.1-2.3,5.3-3.6c1.5-1.5,1.8-1.9,1.6-2.4c-0.2-0.7-1-1.1-1.7-1.3c-0.1,0-0.3-0.1-0.6-0.1
		c-0.8,0-2.1,0.3-3.8,0.9c-1.5,0.5-9.6,3.3-12.4,4.1c-1.1,0.3-2.1,0.4-2.8,0.4c-1.3,0-2.2-0.4-2.8-1.4c-0.9-1.4-0.8-3.9,0.1-5.8
		C2.1,18.8,4,16.3,5,15.1c0.9-1,4.1-4.3,6.6-5.9c2.2-1.4,4.1-2.1,5.9-2.1c0.1,0,0.2,0,0.2,0c0.9,0,1.8,0.5,2.4,1.2
		c0.4,0.5,0.7,1.1,0.7,1.6c-0.1,1-0.7,2.5-2.1,3.5l-0.1,0l-0.1,0c0,0-0.2,0.1-0.4,0.1c-0.3,0-0.6-0.1-0.8-0.3
		c-0.4-0.5-0.3-1.3,0.2-1.9c0.4-0.4,0.7-0.9,0.6-1.1c0-0.1-0.4-0.3-0.9-0.3c-0.1,0-0.1,0-0.2,0c-0.5,0.1-6,2.5-9,6.3
		c-0.3,0.4-0.7,0.8-1,1.2c-2.6,3.2-4.2,5.3-3.3,7.5c0.1,0.2,0.3,0.5,1,0.5c1.4,0,3.8-1,6.4-2.2c2.4-1,4.9-2.1,6.9-2.5
		c2.2-0.4,3.6-0.6,4.7-0.6c1.6,0,2.3,0.5,3.1,1.2c1.6,1.3,1.5,3.5,1,4.6c-0.6,1.1-3.9,4-7.2,5.5C16.9,32.6,13.2,33.5,10.9,33.5
		C10.9,33.5,10.9,33.5,10.9,33.5z"/>
	<path class="st0" d="M17.5,7.5c0.1,0,0.2,0,0.2,0c1.5,0.1,2.7,1.4,2.7,2.2c-0.1,0.9-0.7,2.2-1.9,3.2c0,0-0.1,0-0.2,0
		c-0.1,0-0.3,0-0.5-0.2c-0.3-0.3-0.2-0.9,0.2-1.2c0.4-0.4,0.8-1,0.8-1.5c0-0.4-0.7-0.7-1.3-0.7c-0.1,0-0.2,0-0.3,0
		c-0.6,0.1-6.2,2.6-9.3,6.4c-3.1,3.9-5.5,6.4-4.4,9.2c0.2,0.5,0.7,0.8,1.4,0.8c2.9,0,9.1-3.8,13.4-4.7c2.2-0.4,3.6-0.6,4.6-0.6
		c1.4,0,2,0.4,2.8,1.1c1.4,1.1,1.4,3.1,0.8,4c-0.5,1-3.7,3.8-6.9,5.3c-2.7,1.3-6.4,2.2-8.6,2.2c-0.4,0-0.7,0-1-0.1
		c-2-0.4-2.5-1.7-2.4-2.9c0.1-1.3,1.3-2.2,1.3-2.2l0,0c0.1,0,0.1-0.1,0.2-0.1c0.2,0,0.3,0.2,0.3,0.3c0,0.1,0,0.1,0,0.2l0,0
		c0,0,0,0,0,0c0,0,0,0,0,0c-0.2,0.3-1,1.4-0.7,2.1c0.2,0.8,1,1.4,2.5,1.4c0,0,0,0,0.1,0c1.5,0,5.4-0.8,7.2-1.7
		c1.8-0.9,3.9-2.1,5.5-3.7c1.6-1.5,2-2.1,1.8-2.9c-0.2-0.8-1-1.3-2-1.6c-0.2-0.1-0.4-0.1-0.7-0.1c-1.1,0-2.7,0.5-4,1
		c-1.6,0.6-9.7,3.3-12.4,4c-1.1,0.3-2,0.4-2.7,0.4c-1.1,0-1.9-0.4-2.4-1.1c-0.8-1.3-0.7-3.6,0.2-5.4c0.9-1.8,2.9-4.3,3.7-5.4
		c0.9-1,4.1-4.2,6.5-5.8C14.1,8.1,16,7.5,17.5,7.5 M17.5,6.6L17.5,6.6c-1.8,0-3.9,0.7-6.1,2.2c-2.6,1.7-5.9,5-6.7,6
		c-1,1.2-3,3.8-3.8,5.6c-1,2.1-1.1,4.7-0.1,6.3c0.6,1.1,1.7,1.6,3.2,1.6c0.8,0,1.7-0.1,2.9-0.5c0.3-0.1,0.7-0.2,1.2-0.3
		c-0.5,0.5-1.2,1.3-1.3,2.5c-0.2,2,1,3.5,3.1,3.9c0.3,0.1,0.7,0.1,1.2,0.1c2.4,0,6.2-1,9-2.3c3.3-1.5,6.7-4.5,7.4-5.7
		c0.8-1.5,0.6-3.8-1.1-5.2c-0.9-0.8-1.7-1.3-3.4-1.3c-1.1,0-2.5,0.2-4.8,0.7c-2.1,0.4-4.6,1.5-7,2.6c-2.4,1-4.9,2.1-6.2,2.1
		c-0.5,0-0.5-0.1-0.5-0.2c-0.8-1.9,0.6-3.7,3.3-7c0.3-0.4,0.7-0.8,1-1.2c2.8-3.6,8-5.9,8.7-6.1c0,0,0.1,0,0.1,0c0.1,0,0.2,0,0.3,0
		c-0.1,0.2-0.2,0.4-0.4,0.5c-0.7,0.7-0.8,1.8-0.2,2.5c0.3,0.3,0.7,0.5,1.2,0.5c0.3,0,0.5-0.1,0.5-0.1l0.1,0l0.1-0.1
		c1.5-1.1,2.2-2.8,2.3-3.9c0-0.6-0.2-1.3-0.8-1.9c-0.7-0.8-1.7-1.3-2.8-1.3C17.6,6.6,17.6,6.6,17.5,6.6L17.5,6.6z M9.6,26.9
		c3.6-1.1,8.5-2.8,9.7-3.2c1.7-0.6,2.9-0.9,3.7-0.9c0.2,0,0.4,0,0.4,0.1c0.8,0.3,1.3,0.6,1.4,1c0.1,0.2-0.2,0.6-1.5,2
		c-1.2,1.2-3,2.4-5.2,3.5c-1.7,0.9-5.4,1.6-6.8,1.6l0,0c-0.6,0-1.4-0.1-1.6-0.7c0-0.2,0.2-0.7,0.6-1.3c0,0,0,0,0-0.1l0,0l0.5-0.7
		l-0.3-0.3C10.2,27.4,9.9,27.1,9.6,26.9L9.6,26.9z"/>
	<path class="st11" d="M36.6,20.4c-0.8,0-1.7-0.7-2-1.4c-0.4-0.8-2-6.1-2.1-6.5c-0.2-0.7,0.4-1.2,1-1.4c0.3-0.1,0.6-0.2,0.8-0.2
		c1.4,0,1.6,1.8,1.9,3.7c0.1,0.4,0.1,0.8,0.2,1.2c0.2,0.8,0.3,1.3,0.4,1.5c0.1-0.9,0.2-3.3,0.2-4.3c0-0.4,0-0.8,0-0.9
		c0-0.4,0-1,0.6-1.1c0,0,0.1,0,0.6,0c0.3,0,0.6,0,0.9,0c0.8,0,0.8,0.6,0.8,1.3c0,0.3,0,0.8,0,1.4c0.1,1.3,0.4,2.2,1,2.4
		c0,0,0.1,0,0.1,0c0,0,0.1-0.1,0.2-0.6c0.1-0.2,0-1.6,0-2.4c0-1.1,0-1.6,0-1.8c0.1-0.4,0.4-0.5,0.6-0.6c0-0.4-0.2-1.4-0.3-2.2
		c-0.3,0.1-0.7,0.2-1.1,0.3c-0.1,0-0.1,0-0.2,0c-0.4,0-0.7-0.2-0.8-0.5c-0.1-0.3-0.1-0.9,0.1-1.1C39.8,7,40.1,7,41,6.8
		c0.1,0,0.1,0,0.2,0c-0.1-0.1-0.1-0.2-0.3-0.3c-0.3-0.3-0.4-0.7-0.3-1.1c0.2-0.5,0.8-1.1,1.7-1.2c0,0,0.1,0,0.1,0
		c0.9,0,1.3,0.9,1.5,1.6c0.4-0.1,0.8-0.2,1.1-0.2c0.4,0,0.7,0.3,0.8,0.7c0.1,0.4-0.1,0.9-0.5,1.1c-0.2,0.1-0.8,0.2-1.2,0.3
		c0.2,1.3,0.8,5.4,1.1,6.9c0.1,0.3,0.1,0.4,0.1,0.5c0.1-0.2,0.3-0.5,0.4-0.6c0.2-0.3,0.4-1.8,0.6-2.7c0.1-0.8,0.2-1.3,0.3-1.6
		c0.1-0.3,0.2-0.4,0.3-0.5c0,0,0-0.1,0-0.2c0.1-0.6-0.4-6.2-0.6-7c-0.1-0.7,0.1-1.8,0.9-2c0.2-0.1,0.4-0.1,0.5-0.1
		c0.6,0,1.1,0.4,1.5,1.1c0.3,0.6,0.3,2.2,0.2,4.5c0,1-0.1,2.1,0,2.5c0,0.3,0.1,0.6,0.1,0.8c0.7-1.4,1.7-2.2,2.8-2.3c0,0,0.1,0,0.1,0
		c0.4,0,0.6,0.2,0.8,0.3c0.4,0.4,0.3,1.1,0.1,2c-0.1,0.6-0.2,1.2-0.2,1.8c0.1,1.2,0.2,1.6,0.3,1.8c0,0,0,0,0,0
		c0.4-0.4,1-2.7,1.2-3.6c0.1-0.5,0.2-0.6,0.2-0.7c0.1-0.2,0.3-0.4,0.6-0.4c0.1,0,0.1,0,0.2,0c0.2-1.2,0.8-3.6,2.8-3.7
		c0.1,0,0.1,0,0.2,0c2.1,0,2.9,2,3,3l0,0l0,0c0,1-0.8,2.3-1.6,2.6c-0.4,0.2-1,0.3-2,0.3c0,0.6-0.1,1.6,0,2.3
		c0.1,0.6,0.4,0.7,0.6,0.7c0,0,0,0,0,0c0.2,0,0.5-0.1,0.9-0.2c0.7-0.2,1.5-2,1.9-2.8c0.2-0.3,0.3-0.6,0.4-0.8c0.5-0.9,1.3-1,1.7-1.1
		c0,0,0.1,0,0.1,0c0.3-0.1,0.4-0.1,0.6-0.1c0.4,0,0.5,0.2,0.6,0.3c0.2,0.3,0,0.6-0.1,0.8l0,0c-0.1,0.2-0.2,0.4-0.4,0.6
		c-0.2,0.2-0.3,0.4-0.5,0.7c-0.3,0.5-2,3.1-2.1,3.3c-0.7,0.8-1.8,1.8-2.9,1.9c-0.1,0-0.3,0-0.4,0h0c-0.9,0-1.7-0.5-2.4-1.4
		c-0.5-0.6-0.6-1.4-0.7-2.1c-0.1,0.2-0.2,0.4-0.2,0.5c-0.5,1-1.1,1.8-1.8,2.1c-0.2,0.1-0.5,0.2-0.7,0.2c-0.6,0-1.1-0.3-1.6-1
		c-0.4-0.6-0.5-1.7-0.5-3.1c0,0,0,0,0,0c-0.5,0.8-0.5,1.1-0.5,1.8c0,0.1,0,0.2,0,0.4c0,1.7-0.1,2.6-0.3,3c-0.1,0.2-0.3,0.6-1,0.6
		c-0.3,0-0.8-0.1-1.1-0.3c-0.4-0.2-0.5-0.7-0.5-1.4c-0.1,0.4-0.3,0.8-0.4,1l0,0.1c-0.3,0.7-0.8,1-1.7,1c-0.2,0-0.3,0-0.5,0
		c-0.8-0.1-1.5-0.8-2-2c0,0.4,0,0.7,0,0.9c-0.1,0.7-1,1.6-2.2,1.9c-0.1,0-0.2,0-0.3,0c-0.8,0-1.4-0.6-1.8-1.1
		c-0.2,0.9-0.6,2.4-1.3,2.8C37.1,20.3,36.9,20.4,36.6,20.4z M58.9,8.6c0.4,0,0.4-0.1,0.5-0.2l0-0.1c0.1-0.2,0-0.8-0.1-1
		C59.2,7.4,59,8,58.8,8.6C58.9,8.6,58.9,8.6,58.9,8.6z"/>
	<path class="st0" d="M48,0.9c0.3,0,0.7,0.2,1.1,0.8c0.5,0.9-0.1,5.7,0.1,6.8c0.2,1.1,0.5,2.3,0.5,2.3c0.6-1.9,1.7-3.2,3-3.3
		c0,0,0.1,0,0.1,0c1.2,0,0.2,2,0.3,3.7c0.1,1.4,0.3,2.3,0.7,2.3c0.1,0,0.2-0.1,0.4-0.2c0.7-0.6,1.4-4.2,1.5-4.4
		c0-0.1,0.1-0.1,0.1-0.1c0.2,0,0.6,0.3,0.6,0.3s0.1-3.8,2.5-3.9c0.1,0,0.1,0,0.2,0c2.2,0,2.5,2.6,2.5,2.6c0,0.8-0.7,1.9-1.3,2.2
		c-0.4,0.2-1.3,0.2-1.9,0.2c-0.2,0-0.4,0-0.4,0s-0.2,1.7,0,2.9c0.1,0.8,0.5,1,1,1c0.3,0,0.7-0.1,1.1-0.2c1.1-0.4,2.1-3.1,2.6-3.8
		c0.4-0.8,1.1-0.8,1.5-0.9C64.4,9,64.5,9,64.6,9c0.4,0,0.2,0.3,0.1,0.5c-0.2,0.3-0.5,0.7-0.9,1.2c-0.3,0.6-2,3.1-2.1,3.2
		c-0.6,0.7-1.7,1.6-2.6,1.7c-0.1,0-0.2,0-0.4,0c-0.7,0-1.4-0.3-2.1-1.3c-0.8-1.1-0.6-2.7-0.7-3.2c0-0.1,0-0.1-0.1-0.1
		c-0.2,0-0.6,1.1-0.9,1.8c-0.4,0.9-0.9,1.6-1.5,1.9C53.4,15,53.2,15,53.1,15c-0.4,0-0.8-0.3-1.2-0.8c-0.6-0.7-0.4-3.5-0.4-4.1
		c0-0.2,0-0.2-0.1-0.2c-0.1,0-0.3,0.6-0.8,1.4c-0.6,1.1-0.5,1.3-0.6,2.4c0,1-0.1,2.4-0.2,2.9c-0.1,0.2-0.3,0.3-0.6,0.3
		c-0.3,0-0.6-0.1-0.9-0.2c-0.5-0.3-0.1-2.5-0.3-3.2c0-0.3-0.1-0.4-0.2-0.4c-0.1,0-0.2,0.4-0.3,0.9c-0.1,0.8-0.6,2.1-0.9,2.7
		c-0.2,0.4-0.5,0.7-1.2,0.7c-0.1,0-0.3,0-0.5,0c-1.1-0.1-1.6-1.5-1.8-2.3c-0.2-0.7-0.3-1.2-0.5-1.2c0,0,0,0-0.1,0
		c-0.2,0.1-0.1,2.1-0.2,2.7c-0.1,0.5-0.8,1.3-1.8,1.5c-0.1,0-0.2,0-0.3,0c-0.9,0-1.5-0.9-1.6-1.3c-0.1-0.3-0.2-0.5-0.3-0.5
		c-0.1,0-0.1,0.1-0.1,0.3c-0.1,0.6-0.6,2.9-1.2,3.3c-0.1,0.1-0.3,0.1-0.5,0.1c-0.6,0-1.3-0.6-1.6-1.1c-0.4-0.7-1.9-5.8-2.1-6.4
		c-0.2-0.6,0.7-0.9,0.7-0.9c0.2-0.1,0.5-0.2,0.6-0.2c1.2,0,1.3,2.4,1.7,4.6c0.3,1.7,0.5,2.2,0.8,2.2c0.1,0,0.2-0.1,0.3-0.2
		c0.4-0.3,0.3-5,0.3-5.7c0-0.7,0.1-0.6,0.3-0.7c0.1,0,0.3,0,0.5,0s0.6,0,0.9,0c0.6,0,0.3,0.2,0.4,2.2s0.8,2.7,1.3,2.9
		c0.1,0,0.2,0,0.2,0c0.4,0,0.6-0.4,0.7-0.9c0.1-0.5,0-3.8,0.1-4.2c0.1-0.4,0.6-0.1,0.6-0.5c0-0.4-0.4-3-0.4-3S41,8.3,40.4,8.4
		c0,0-0.1,0-0.1,0c-0.5,0-0.5-0.8-0.3-0.9c0.1-0.1,1.5-0.3,1.7-0.4c0.2-0.1,0-0.6-0.4-1c-0.5-0.4,0.1-1.4,1.1-1.5c0,0,0,0,0.1,0
		c1,0,1.1,1.8,1.1,1.8s1.1-0.3,1.5-0.3s0.5,0.7,0.1,0.9c-0.3,0.1-1.5,0.4-1.5,0.4s0.8,5.5,1.1,7.3c0.1,0.7,0.3,1,0.5,1
		c0.3,0,0.6-0.5,0.9-0.9c0.4-0.7,0.7-3.8,0.9-4.3c0.2-0.5,0.3-0.2,0.4-0.8C47.7,9,47.1,3.1,47,2.5c-0.1-0.6,0.1-1.4,0.6-1.5
		C47.7,1,47.8,0.9,48,0.9 M58.9,9c0.8,0,0.8-0.3,0.9-0.5C60,8.3,60,6.8,59.4,6.8c0,0,0,0,0,0c-0.7,0.1-1,2.2-1,2.2
		C58.5,9,58.8,9,58.9,9 M48,0L48,0c-0.2,0-0.4,0-0.7,0.1c-0.6,0.2-1.4,1.1-1.2,2.6c0.1,0.7,0.6,6.1,0.6,6.8
		c-0.1,0.1-0.2,0.3-0.4,0.6c-0.1,0.3-0.2,0.8-0.3,1.7c-0.1,0.5-0.2,1.4-0.4,2c-0.3-1.6-0.7-4.3-0.9-5.7C45,8,45.4,7.9,45.6,7.8
		c0.6-0.3,0.9-0.9,0.7-1.6c-0.1-0.6-0.6-1-1.3-1c-0.2,0-0.5,0-0.8,0.1c-0.3-0.9-0.9-1.6-1.8-1.6c0,0-0.1,0-0.2,0
		c-1,0.1-1.8,0.7-2.1,1.5c-0.1,0.4-0.1,0.9,0.1,1.2c-0.5,0.1-0.8,0.2-1,0.4c-0.4,0.4-0.4,1.2-0.2,1.6c0.2,0.5,0.7,0.8,1.2,0.8
		c0.1,0,0.1,0,0.2,0c0.2,0,0.4-0.1,0.6-0.1c0.1,0.5,0.1,1,0.2,1.3c-0.3,0.2-0.5,0.5-0.5,0.8c-0.1,0.3-0.1,0.7,0,1.9
		c0,0.7,0,1.8,0,2.2c-0.2-0.3-0.4-0.9-0.4-1.7c0-0.6,0-1,0-1.4c0-0.6,0-1.7-1.2-1.8c-0.3,0-0.6,0-0.9,0c-0.4,0-0.6,0-0.7,0
		c-1,0.1-1,1.1-1,1.6c0,0.2,0,0.5,0,1c0,0.1,0,0.1,0,0.2c-0.3-1.6-0.8-2.9-2.2-2.9c-0.3,0-0.6,0.1-1,0.3c-0.9,0.3-1.6,1-1.3,2
		c0,0.1,1.7,5.7,2.2,6.6c0.4,0.8,1.4,1.6,2.4,1.6c0.4,0,0.7-0.1,1-0.3c0.6-0.4,1-1.4,1.2-2.3c0.4,0.3,0.9,0.6,1.5,0.6
		c0.1,0,0.3,0,0.4,0c1.1-0.2,2-0.9,2.4-1.8c0.5,0.6,1,0.9,1.7,1c0.2,0,0.4,0,0.6,0c1.2,0,1.7-0.6,2-1.1c0.1,0.1,0.2,0.2,0.4,0.3
		c0.4,0.2,0.9,0.3,1.3,0.3c0.7,0,1.2-0.3,1.4-0.9c0.1-0.3,0.2-0.8,0.3-2.3c0.1,0.1,0.1,0.3,0.2,0.4c0.6,0.8,1.3,1.1,2,1.1
		c0.3,0,0.6-0.1,0.9-0.2c0.6-0.3,1.2-0.9,1.6-1.6c0.1,0.3,0.3,0.6,0.5,0.9c0.8,1.1,1.7,1.6,2.8,1.6c0.2,0,0.3,0,0.5,0
		c1.2-0.2,2.5-1.2,3.2-2.1c0.2-0.2,1.9-2.9,2.2-3.4c0.1-0.2,0.3-0.4,0.4-0.6c0.2-0.2,0.3-0.4,0.4-0.7l0,0c0.1-0.3,0.4-0.8,0-1.3
		c-0.1-0.2-0.4-0.5-1-0.5c-0.2,0-0.4,0-0.7,0.1c0,0-0.1,0-0.1,0c-0.4,0.1-1.1,0.2-1.7,0.9c0.2-0.5,0.4-1,0.3-1.4l0,0l0,0
		c-0.2-1.2-1.1-3.4-3.5-3.4c-0.1,0-0.2,0-0.2,0c-1.4,0.1-2.4,1-2.9,2.7c-0.1,0.4-0.2,0.7-0.3,1c-0.4,0.1-0.6,0.3-0.8,0.6
		c-0.1,0.1-0.1,0.3-0.2,0.8c-0.2,0.9-0.4,1.6-0.6,2.2c0-0.1,0-0.2,0-0.3c0-0.6,0.1-1.2,0.1-1.7c0.2-1,0.3-1.8-0.2-2.4
		c-0.2-0.2-0.5-0.5-1.1-0.5c0,0-0.1,0-0.1,0C51.6,6.6,50.7,7.2,50,8c0-0.5,0-1.3,0.1-2c0.1-2.4,0.1-4-0.2-4.7C49.3,0.2,48.5,0,48,0
		L48,0z M58.8,11.1c1.3,0,1.7-0.2,1.8-0.3c0.3-0.2,0.7-0.5,1-0.9c-0.1,0.1-0.1,0.3-0.2,0.5c-0.3,0.6-1.2,2.4-1.6,2.6
		c-0.3,0.1-0.6,0.2-0.8,0.2c0,0,0,0,0,0c0,0,0-0.1-0.1-0.3C58.8,12.3,58.8,11.6,58.8,11.1L58.8,11.1z"/>
	<path class="st11" d="M64.6,8.6c-0.5,0-0.9-0.2-1.1-0.7c-0.2-0.5,0.1-1,0.3-1.2c0.1-0.2,0.3-0.5,0.9-0.5c0.4,0,1.1,0.2,1.4,0.6l0,0
		l0,0c0,0.1,0.2,0.4,0.1,0.8c-0.1,0.4-0.6,0.8-1.3,1C64.9,8.6,64.8,8.6,64.6,8.6z"/>
	<path class="st0" d="M64.7,6.7c0.4,0,0.9,0.2,1,0.4c0,0,0.1,0.2,0.1,0.4c-0.1,0.2-0.4,0.5-0.9,0.6c-0.1,0-0.2,0-0.3,0
		c-0.3,0-0.5-0.1-0.6-0.4c-0.1-0.3,0.3-0.9,0.3-0.9C64.3,6.7,64.5,6.7,64.7,6.7 M64.7,5.7c-0.7,0-1.1,0.3-1.3,0.7
		c-0.2,0.3-0.5,1-0.3,1.6c0.2,0.6,0.8,1,1.5,1c0.2,0,0.3,0,0.5-0.1c0.7-0.2,1.4-0.6,1.6-1.3c0.1-0.5-0.1-1-0.2-1.1l0,0l0,0
		C66.2,5.9,65.3,5.7,64.7,5.7L64.7,5.7z"/>
</g>
</svg>
