<?xml version="1.0" encoding="utf-8"?>
<!-- Generator: Adobe Illustrator 25.4.1, SVG Export Plug-In . SVG Version: 6.00 Build 0)  -->
<svg version="1.1" xmlns="http://www.w3.org/2000/svg" xmlns:xlink="http://www.w3.org/1999/xlink" x="0px" y="0px"
	 viewBox="0 0 95.85 80" style="enable-background:new 0 0 95.85 80;" xml:space="preserve">
<style type="text/css">
	.st0{fill:#531670;}
	.st1{fill:#551971;}
	.st2{fill:#E11527;}
</style>
<g id="Layer_2">
</g>
<g id="Layer_1">
	<path class="st0" d="M84.21,46.66c-1.69-3.11-3.25-5.96-4.79-8.81c-2.13-3.93-4.24-7.88-6.38-11.81c-1.17-2.14-1.2-4.28,0.01-6.39
		c3.64-6.4,7.31-12.78,10.94-19.12c0.4,0.02,0.5,0.24,0.61,0.44c3.32,5.89,6.64,11.78,9.97,17.66c1.4,2.47,1.75,5.1,0.62,7.67
		C92.1,33.29,87.85,39.65,84.21,46.66z"/>
	<path class="st1" d="M41.25,57.41c-0.08-0.76,0.24-1.56-0.22-2.28c-0.49-2.45-1.58-4.67-2.75-6.85c-2.66-4.98-5.33-9.94-8-14.92
		c-0.02-0.34-0.28-0.47-0.53-0.61c-0.49-1.61-1.42-3-2.29-4.43c-0.15-0.39-0.11-0.87-0.52-1.16C23.3,20.41,19.68,13.64,16.01,6.9
		c-0.71-1.3-1.21-2.72-2.23-3.83c0-0.31,0.02-0.63-0.28-0.84c-0.21-0.4-0.39-0.8-0.62-1.18c-0.19-0.31-0.4-0.31-0.57,0.04
		c-0.35,0.49-0.69,0.99-1.04,1.48l0,0h0c-0.58,1-1.1,2.05-1.76,2.99C6.02,10.51,2.14,15.22,0,21c0,1.4,0,2.8,0,4.2
		c0.41,0.08,0.42,0.45,0.5,0.74c0.64,2.23,1.71,4.27,2.85,6.27c0.09,0.35,0.3,0.61,0.58,0.82c0.13,0.34,0.23,0.71,0.4,1.02
		c4.27,7.67,8.55,15.34,12.83,23.01c0.04,0.32,0.2,0.55,0.48,0.7c0,0,0,0,0,0c0.28,0.53,0.56,1.07,0.85,1.6
		c3.7,6.67,7.4,13.34,11.21,20.22c1.04-1.7,1.98-3.18,2.87-4.69c2.51-4.25,5.32-8.33,7.59-12.73c0.31-0.22,0.27-0.54,0.25-0.86h0
		l0,0C41.19,60.11,41.28,58.77,41.25,57.41z"/>
	<path class="st0" d="M76.39,52.31c-1.52-3.41-3.39-6.64-5.15-9.92C65.04,30.86,58.81,19.34,52.6,7.82
		c-0.49-0.35-0.88,0.01-1.28,0.2c-1.38,0.67-2.72,1.43-4.04,2.21c-2.28,1.34-4.74,2.38-6.82,4.05c-3.51,4.24-5.4,8.79-2.78,14.22
		c0.16,0.39,0.33,0.79,0.49,1.18c0.61,1.24,1.12,2.53,1.97,3.63c0.01,0.24,0.08,0.44,0.31,0.56c4.24,8.01,8.75,15.87,13.19,23.76
		c0.17,0.3,0.34,0.6,0.51,0.9c0.12,0.26,0.24,0.52,0.35,0.77c0.35,0.58,0.69,1.17,1.04,1.75c0,0,0,0,0,0
		c3.5,6.31,7,12.63,10.5,18.94c0.49-0.22,0.62-0.65,0.83-0.99c2.88-4.69,5.67-9.43,8.63-14.06C78.13,60.84,78.34,56.68,76.39,52.31z
		 M54.65,57.72c0-0.01-0.01-0.02-0.01-0.04c0.04-0.1,0.09-0.19,0.17-0.27C54.74,57.52,54.69,57.62,54.65,57.72z"/>
	<path class="st2" d="M66.29,0.07c-0.17,0.09-0.65,0-0.85,0c-0.34,0-0.67,0-1.01,0c-0.65,0-1.29,0-1.94,0.01
		c-1.29,0.01-2.58,0.01-3.87,0.01c-2.51,0-5.02-0.03-7.54-0.08c-0.08,0-0.15,0-0.23,0C50.39,0,49.81-0.06,49.49,0.36
		c-1.48,2.01-2.69,4.2-4.08,6.28c-1.21,1.81-2.43,3.61-3.63,5.42c-0.23,0.38-0.46,0.75-0.69,1.14c-0.11,0.19-0.44,1.02-0.63,1.09
		c2.27-0.82,4.2-2.29,6.33-3.37c1.95-1,3.87-2.06,5.8-3.09c0.89-0.82,2.17-1.03,3.01-1.92C59.19,4.24,62.51,2.13,66.29,0.07z"/>
</g>
</svg>
