<?xml version="1.0" encoding="utf-8"?>
<!-- Generator: Adobe Illustrator 25.4.1, SVG Export Plug-In . SVG Version: 6.00 Build 0)  -->
<svg version="1.1" id="Layer_4" xmlns="http://www.w3.org/2000/svg" xmlns:xlink="http://www.w3.org/1999/xlink" x="0px" y="0px"
	 viewBox="0 0 89.43 80.27" style="enable-background:new 0 0 89.43 80.27;" xml:space="preserve">
<style type="text/css">
	.st0{fill:#FF5000;}
</style>
<path class="st0" d="M0.03,52.02c0.23-12.28,4.32-23.54,9.37-34.5c2.13-4.61,4.59-9.08,7.06-13.53c1.06-1.91,2.16-4.42,5.17-2.94
	c2.45,1.2,3.6,4.83,2.39,7.36c-0.89,1.85-2.05,3.57-3.03,5.38C15.43,24.01,10.66,34.6,9.24,46.26c-0.54,4.41-0.47,9.2,0.65,13.46
	c2.46,9.29,12.98,13.41,22.68,9.32c7.08-2.98,12.34-8.37,17.19-14.08c13.02-15.3,22.47-32.81,31.12-50.82
	c0.94-1.95,1.24-5.14,4.78-3.85c3.16,1.15,4.71,4.89,3.18,8.06c-3.15,6.53-6.34,13.05-9.82,19.4c-7.52,13.7-15.96,26.81-26.9,38.09
	c-6.03,6.22-12.77,11.43-21.44,13.43C14.95,82.91,1.16,72.36,0.04,55.91C-0.05,54.62,0.03,53.32,0.03,52.02z"/>
<path class="st0" d="M56.67,24.8c-3.79,0.06-6.6-2.68-6.6-6.43c0-3.58,2.54-6.25,5.99-6.32c3.56-0.07,6.6,2.91,6.65,6.54
	C62.77,22.09,60.19,24.74,56.67,24.8z"/>
<path class="st0" d="M40.78,18.83c-0.03,3.59-2.54,6.06-6.12,6.02c-3.66-0.04-6.64-3.06-6.54-6.63c0.09-3.28,3.04-6.14,6.32-6.13
	C38.02,12.1,40.81,15.06,40.78,18.83z"/>
</svg>
