<?xml version="1.0" encoding="utf-8"?>
<!-- Generator: Adobe Illustrator 25.4.1, SVG Export Plug-In . SVG Version: 6.00 Build 0)  -->
<svg version="1.1" id="Layer_4" xmlns="http://www.w3.org/2000/svg" xmlns:xlink="http://www.w3.org/1999/xlink" x="0px" y="0px"
	 viewBox="0 0 444.83 80.27" style="enable-background:new 0 0 444.83 80.27;" xml:space="preserve">
<style type="text/css">
	.st0{fill:#FF5000;}
</style>
<g>
	<path class="st0" d="M0.03,52.02c0.23-12.28,4.32-23.54,9.37-34.5c2.13-4.61,4.59-9.08,7.06-13.53c1.06-1.91,2.16-4.42,5.17-2.94
		c2.45,1.2,3.6,4.83,2.39,7.36c-0.89,1.85-2.05,3.57-3.03,5.38C15.43,24.01,10.66,34.6,9.24,46.26c-0.54,4.41-0.47,9.2,0.65,13.46
		c2.46,9.29,12.98,13.41,22.68,9.32c7.08-2.98,12.34-8.37,17.19-14.08c13.02-15.3,22.47-32.81,31.12-50.82
		c0.94-1.95,1.24-5.14,4.78-3.85c3.16,1.15,4.71,4.89,3.18,8.06c-3.15,6.53-6.34,13.05-9.82,19.4c-7.52,13.7-15.96,26.81-26.9,38.09
		c-6.03,6.22-12.77,11.43-21.44,13.43C14.95,82.91,1.16,72.36,0.04,55.91C-0.05,54.62,0.03,53.32,0.03,52.02z"/>
	<path class="st0" d="M56.67,24.8c-3.79,0.06-6.6-2.68-6.6-6.43c0-3.58,2.54-6.25,5.99-6.32c3.56-0.07,6.6,2.91,6.65,6.54
		C62.77,22.09,60.19,24.74,56.67,24.8z"/>
	<path class="st0" d="M40.78,18.83c-0.03,3.59-2.54,6.06-6.12,6.02c-3.66-0.04-6.64-3.06-6.54-6.63c0.09-3.28,3.04-6.14,6.32-6.13
		C38.02,12.1,40.81,15.06,40.78,18.83z"/>
</g>
<g id="layer1">
	<g id="text849" transform="matrix(1.508358,0,0,1.508358,-77.174029,6.6451234)">
		<path id="path892" class="st0" d="M124.93,39.41c6.12,0,11.01-2.32,12.01-8.52c1.75-11.01-11.8-10-11.23-14.2
			c0.26-1.49,1.79-2.1,3.84-2.1c2.58,0,5.24,0.83,7.65,2.36l1.09-7.12c-2.58-1.44-5.46-2.23-8.61-2.23c-5.64,0-10.66,2.49-11.58,8.3
			c-1.62,10.48,11.66,9.96,11.01,14.11c-0.22,1.57-2.27,2.23-4.46,2.23c-2.75,0-5.68-0.92-7.91-2.36l-1.22,7.47
			C118.33,38.76,121.26,39.41,124.93,39.41z"/>
		<path id="path894" class="st0" d="M136.75,38.8h7.16l1.18-7.34h1.57l2.53,7.34h7.51l-3.67-10.05l7.12-10.92h-7.99l-4.54,7.47
			h-1.57l2.71-17.08h-7.16L136.75,38.8z"/>
		<path id="path896" class="st0" d="M171.55,17.83l-4.5,12.14l-1.62-12.14h-7.56l4.72,20.88c-0.87,1.75-1.44,2.49-2.23,3.06
			c-0.92,0.57-1.97,0.83-3.45,0.52l-0.96,6.12c3.1,0.79,5.77,0.39,7.91-0.96c1.97-1.27,3.54-3.23,4.76-5.94l11.05-23.68
			L171.55,17.83z"/>
		<path id="path898" class="st0" d="M189.27,39.41c7.34,0,11.58-3.06,12.67-10.18l3.36-21.01h-7.56l-3.15,19.96
			c-0.44,2.75-2.05,4.06-4.67,4.06c-2.32,0-3.49-1.05-3.06-3.71l3.23-20.31h-7.51l-3.28,20.62
			C178.22,35.61,182.5,39.41,189.27,39.41L189.27,39.41z"/>
		<path id="path900" class="st0" d="M217.61,17.22c-2.62,0-4.28,1.31-5.29,2.66l0.31-2.05h-6.47l-4.85,30.58h7.16l1.79-11.18
			c0.83,1.18,2.36,2.18,4.72,2.18c4.72,0,7.6-4.32,8.56-10.7C224.51,22.81,223.12,17.22,217.61,17.22L217.61,17.22z M214.82,23.38
			c1.79,0,2.23,1.88,1.75,4.89c-0.52,3.45-1.53,4.98-3.28,4.98c-1,0-1.79-0.61-2.14-1.53l1.09-6.86
			C212.89,23.99,213.77,23.38,214.82,23.38L214.82,23.38z"/>
	</g>
	<g id="text849-8" transform="matrix(1.508358,0,0,1.508358,-77.174029,6.6451234)">
		<path id="path875" class="st0" d="M231.83,38.8h2.71l4.06-8.17h12.63l1.4,8.17h2.58l-5.42-30.58h-2.84L231.83,38.8z M239.74,28.23
			l6.64-13.41c0.61-1.31,1.09-2.36,1.62-3.63c0.17,1.22,0.26,2.36,0.48,3.54l2.36,13.5H239.74z"/>
		<path id="path877" class="st0" d="M263.59,13.11c0.83,0,1.66-0.44,1.83-1.49c0.13-1.14-0.61-1.83-1.57-1.83
			c-0.83,0-1.62,0.52-1.79,1.53C261.88,12.5,262.63,13.11,263.59,13.11z M258.17,38.8h2.45l3.32-20.97h-2.45L258.17,38.8z"/>
		<path id="path879" class="st0" d="M266.08,38.8h2.49l2.05-12.71c1.75-4.59,4.81-6.47,8.21-6.2l0.44-2.49
			c-3.41-0.13-6.42,1.05-8.26,4.41l0.66-3.98h-2.27L266.08,38.8z"/>
		<path id="path881" class="st0" d="M285.86,6.91h-2.45l-5.07,31.89h2.45L285.86,6.91z"/>
		<path id="path883" class="st0" d="M291.8,13.11c0.83,0,1.66-0.44,1.83-1.49c0.13-1.14-0.61-1.83-1.57-1.83
			c-0.83,0-1.62,0.52-1.79,1.53C290.1,12.5,290.84,13.11,291.8,13.11L291.8,13.11z M286.38,38.8h2.45l3.32-20.97h-2.45L286.38,38.8z
			"/>
		<path id="path885" class="st0" d="M293.23,38.8h2.49l2.32-14.63c1.18-2.32,3.54-4.54,6.33-4.54c2.49,0,4.19,1.53,3.63,4.98
			l-2.23,14.2h2.49l2.23-14.15c0.7-4.41-1.7-7.3-5.46-7.3c-2.93,0-5.24,1.4-6.68,3.41l0.48-2.93h-2.27L293.23,38.8z"/>
		<path id="path887" class="st0" d="M321.13,39.28c1.66,0,3.45-0.31,5.15-1.09l0.39-2.4c-1.75,0.83-3.45,1.18-5.33,1.18
			c-4.15,0-6.47-2.32-6.07-7.43h13.63c1.83-6.95-0.26-12.19-5.85-12.19c-5.11,0-9.09,4.15-10.14,10.79
			C311.87,34.91,314.8,39.28,321.13,39.28L321.13,39.28z M315.63,27.35c0.61-2.75,2.62-7.65,7.34-7.65c3.54,0,4.81,3.01,3.93,7.65
			H315.63z"/>
		<path id="path889" class="st0" d="M340.4,17.35c-3.76,0-6.9,1.75-7.43,5.11c-1.14,7.16,10.35,6.12,9.52,11.27
			c-0.39,2.32-2.58,3.28-5.46,3.28c-2.36,0-4.41-0.57-6.03-1.75l-0.39,2.36c1.53,1.09,3.76,1.66,6.47,1.66c3.8,0,7.21-1.4,7.82-5.2
			c1.18-7.3-10.35-6.03-9.52-11.23c0.39-2.18,2.53-3.28,5.15-3.28c1.97,0,3.63,0.48,5.15,1.53l0.39-2.32
			C344.55,17.87,342.58,17.35,340.4,17.35z"/>
	</g>
</g>
</svg>
