<?xml version="1.0" encoding="utf-8"?>
<!-- Generator: Adobe Illustrator 25.4.1, SVG Export Plug-In . SVG Version: 6.00 Build 0)  -->
<svg version="1.1" xmlns="http://www.w3.org/2000/svg" xmlns:xlink="http://www.w3.org/1999/xlink" x="0px" y="0px"
	 viewBox="0 0 537.95 80" style="enable-background:new 0 0 537.95 80;" xml:space="preserve">
<style type="text/css">
	.st0{fill-rule:evenodd;clip-rule:evenodd;fill:#3D4194;}
	.st1{fill-rule:evenodd;clip-rule:evenodd;fill:#F6B83A;}
	.st2{fill-rule:evenodd;clip-rule:evenodd;fill:#ED373B;}
	.st3{fill-rule:evenodd;clip-rule:evenodd;fill:#373535;}
</style>
<g id="Layer_2">
</g>
<g id="Layer_1">
	<g>
		<path class="st0" d="M0,70.81h71.22L83.91,0L0,70.81z"/>
		<path class="st1" d="M74.1,30.93l0.59-23.15l-1.95,1.64L72.2,31.13l-2.62,9.63h0c0,0-0.01,0-0.01,0l0.01,0l-4.49-8.21l-2.4-14.64
			L61,19.33l2.12,13.22v10.34l0.06-0.02c-0.03,0.02-0.07,0.02-0.1,0.04l0.05-0.02l-6.2-7.27l-5.33-8.34l-1.43,1.21l5.1,7.98
			l2.42,9.29l0.07-0.03c-0.05,0.03-0.09,0.06-0.13,0.09l0.07-0.05l-8.28-5.6l-5.24-6.61l-1.4,1.18l5.19,6.55l4.67,8.34l-9.51-3.8
			l-6.97-5.49l-1.4,1.19l7.18,5.66l6.58,6.94l0.06-0.07c-0.03,0.04-0.07,0.08-0.1,0.13l0.04-0.06l-10.32-1.78l-10.69-4.71l-1.5,1.27
			l11.29,4.98l7.88,5.54l0.05-0.09c-0.03,0.07-0.06,0.13-0.1,0.2l0.04-0.11l-10.15-0.71l-15.64-4.23l-1.62,1.37l16.66,4.51
			l8.59,4.61l-10.07,1.19L7.25,64.69l-1.93,1.63l27.33,1.55l9.3,2.59l35.01-29L74.1,30.93z"/>
		<path class="st2" d="M40.24,70.81h71.22L124.15,0L40.24,70.81z"/>
		<path class="st3" d="M146.24,70.81h-6.89l6.96-33.43h13.54c2.41,0,4.31,0.29,5.71,0.86c1.4,0.57,2.51,1.51,3.33,2.83
			c0.82,1.31,1.23,2.88,1.23,4.71c0,1.69-0.32,3.33-0.97,4.92c-0.65,1.6-1.45,2.87-2.39,3.83c-0.95,0.96-1.96,1.68-3.05,2.18
			c-1.09,0.49-2.56,0.87-4.4,1.13c-1.07,0.15-3.08,0.23-6.03,0.23h-4.38L146.24,70.81z M150.05,52.5h2.1c3.59,0,5.99-0.23,7.19-0.68
			c1.2-0.45,2.15-1.18,2.84-2.17c0.69-0.99,1.04-2.09,1.04-3.28c0-0.8-0.18-1.45-0.53-1.97c-0.35-0.51-0.85-0.88-1.49-1.12
			c-0.64-0.23-2.07-0.35-4.28-0.35h-4.88L150.05,52.5z M176.65,70.81h-6.51l6.95-33.43h6.51l-2.48,11.93
			c1.5-1.18,2.89-2.03,4.19-2.55c1.3-0.52,2.69-0.78,4.17-0.78c1.99,0,3.56,0.57,4.72,1.72c1.16,1.15,1.74,2.65,1.74,4.5
			c-0.04,0.96-0.27,2.47-0.68,4.5l-3.05,14.11h-6.51l3.07-14.39c0.32-1.56,0.51-2.57,0.56-3.02c0-0.83-0.26-1.5-0.77-2
			c-0.52-0.5-1.22-0.75-2.11-0.75c-1.13,0-2.21,0.38-3.24,1.15c-1.35,1.01-2.37,2.25-3.07,3.71c-0.38,0.81-0.87,2.71-1.49,5.71
			L176.65,70.81z M203.35,46.57h6.51l-5.04,24.24h-6.51L203.35,46.57z M205.26,37.37h6.51l-1.23,5.93h-6.51L205.26,37.37z
			 M211.02,70.81l6.96-33.43h6.51l-6.96,33.43H211.02z M228.79,46.57h6.51l-5.04,24.24h-6.51L228.79,46.57z M230.7,37.37h6.51
			l-1.23,5.93h-6.51L230.7,37.37z M241.35,46.57h6.21l-0.5,2.48c1.32-1.1,2.55-1.89,3.7-2.36c1.15-0.47,2.38-0.71,3.7-0.71
			c2.53,0,4.55,0.87,6.09,2.63c1.54,1.75,2.3,4.37,2.3,7.84c0,4.38-1.33,8.07-4,11.09c-2.29,2.58-4.99,3.86-8.11,3.86
			c-3.21,0-5.64-1.29-7.29-3.87L240.9,80h-6.51L241.35,46.57z M245.24,60.48c0,1.91,0.46,3.39,1.38,4.44c0.92,1.06,2,1.58,3.25,1.58
			c1.08,0,2.12-0.39,3.12-1.18c1.01-0.79,1.84-2.1,2.5-3.93c0.66-1.83,0.99-3.53,0.99-5.09c0-1.82-0.43-3.22-1.3-4.2
			c-0.86-0.97-1.97-1.46-3.3-1.46c-1.25,0-2.38,0.45-3.41,1.34c-1.02,0.89-1.82,2.21-2.38,3.94
			C245.52,57.66,245.24,59.18,245.24,60.48L245.24,60.48z M269.59,46.57h6.21l-0.49,2.48c1.32-1.1,2.55-1.89,3.7-2.36
			c1.15-0.47,2.38-0.71,3.7-0.71c2.53,0,4.55,0.87,6.09,2.63c1.54,1.75,2.3,4.37,2.3,7.84c0,4.38-1.33,8.07-4,11.09
			c-2.28,2.58-4.99,3.86-8.11,3.86c-3.21,0-5.64-1.29-7.29-3.87L269.13,80h-6.51L269.59,46.57z M273.48,60.48
			c0,1.91,0.46,3.39,1.38,4.44c0.92,1.06,2,1.58,3.25,1.58c1.08,0,2.12-0.39,3.12-1.18c1-0.79,1.84-2.1,2.49-3.93
			c0.66-1.83,0.99-3.53,0.99-5.09c0-1.82-0.43-3.22-1.3-4.2c-0.87-0.97-1.97-1.46-3.31-1.46c-1.25,0-2.38,0.45-3.41,1.34
			c-1.03,0.89-1.82,2.21-2.38,3.94C273.76,57.66,273.48,59.18,273.48,60.48L273.48,60.48z M297.99,46.57h6.51l-5.04,24.24h-6.51
			L297.99,46.57z M299.9,37.37h6.51l-1.24,5.93h-6.51L299.9,37.37z M310.77,46.57h6.21l-0.63,3.2c1.57-1.36,3.04-2.34,4.4-2.92
			c1.36-0.58,2.8-0.87,4.31-0.87c2.02,0,3.61,0.58,4.78,1.74c1.16,1.16,1.74,2.71,1.74,4.62c-0.02,0.85-0.3,2.45-0.83,4.81
			l-2.94,13.66h-6.51l2.93-13.7c0.43-2.05,0.66-3.28,0.69-3.69c0-0.86-0.26-1.54-0.76-2.04c-0.51-0.49-1.21-0.74-2.11-0.74
			c-0.98,0-2.07,0.41-3.26,1.21c-1.2,0.81-2.14,1.88-2.82,3.21c-0.51,0.95-1.08,2.88-1.71,5.79l-2.02,9.95h-6.51L310.77,46.57z
			 M357.39,60.73h-16.3c-0.02,0.26-0.02,0.46-0.02,0.6c0,1.62,0.46,2.93,1.37,3.92c0.91,1,2.02,1.49,3.33,1.49
			c2.15,0,3.83-1.11,5.04-3.34l5.86,0.96c-1.14,2.35-2.65,4.11-4.55,5.28c-1.9,1.17-4.03,1.76-6.39,1.76c-3.24,0-5.87-1.03-7.89-3.1
			c-2.03-2.06-3.04-4.8-3.04-8.2c0-3.32,0.91-6.28,2.74-8.87c2.49-3.51,6.05-5.26,10.67-5.26c2.95,0,5.29,0.92,7.03,2.76
			c1.74,1.84,2.61,4.41,2.61,7.72C357.85,58.04,357.7,59.46,357.39,60.73L357.39,60.73z M351.92,56.72
			c0.02-0.29,0.02-0.52,0.02-0.66c0-1.81-0.4-3.16-1.2-4.06c-0.8-0.9-1.87-1.35-3.21-1.35c-1.35,0-2.55,0.51-3.61,1.54
			c-1.06,1.02-1.79,2.54-2.16,4.54H351.92z M392.52,63.39H379.3l-4.07,7.41h-7.09l18.87-33.43h7.74l5.38,33.43h-6.51L392.52,63.39z
			 M391.7,57.84l-1.98-13.42l-7.37,13.42H391.7z M409.05,46.57h6.51l-5.04,24.24h-6.51L409.05,46.57z M410.97,37.37h6.51l-1.24,5.93
			h-6.51L410.97,37.37z M421.4,46.57h6.13l-0.96,4.6c2.29-3.46,4.77-5.19,7.44-5.19c0.94,0,1.95,0.23,3.04,0.7L434.52,52
			c-0.61-0.21-1.24-0.32-1.92-0.32c-1.14,0-2.3,0.43-3.47,1.29c-1.18,0.86-2.1,2-2.76,3.43c-0.66,1.43-1.31,3.7-1.96,6.81
			l-1.54,7.59h-6.51L421.4,46.57z M434.64,70.81l6.95-33.43h6.51l-6.96,33.43H434.64z M452.4,46.57h6.51l-5.04,24.24h-6.51
			L452.4,46.57z M454.31,37.37h6.51l-1.23,5.93h-6.51L454.31,37.37z M465.19,46.57h6.21l-0.63,3.2c1.57-1.36,3.04-2.34,4.4-2.92
			c1.36-0.58,2.8-0.87,4.31-0.87c2.02,0,3.61,0.58,4.78,1.74c1.16,1.16,1.74,2.71,1.74,4.62c-0.02,0.85-0.3,2.45-0.83,4.81
			l-2.94,13.66h-6.51l2.93-13.7c0.42-2.05,0.66-3.28,0.69-3.69c0-0.86-0.26-1.54-0.76-2.04c-0.5-0.49-1.21-0.74-2.11-0.74
			c-0.98,0-2.07,0.41-3.26,1.21c-1.2,0.81-2.14,1.88-2.82,3.21c-0.51,0.95-1.08,2.88-1.71,5.79l-2.02,9.95h-6.5L465.19,46.57z
			 M511.8,60.73h-16.3c-0.02,0.26-0.02,0.46-0.02,0.6c0,1.62,0.45,2.93,1.36,3.92c0.91,1,2.02,1.49,3.33,1.49
			c2.15,0,3.83-1.11,5.03-3.34l5.86,0.96c-1.14,2.35-2.65,4.11-4.55,5.28c-1.9,1.17-4.03,1.76-6.39,1.76c-3.23,0-5.87-1.03-7.89-3.1
			c-2.03-2.06-3.04-4.8-3.04-8.2c0-3.32,0.91-6.28,2.74-8.87c2.49-3.51,6.05-5.26,10.68-5.26c2.95,0,5.29,0.92,7.02,2.76
			c1.74,1.84,2.61,4.41,2.61,7.72C512.26,58.04,512.11,59.46,511.8,60.73L511.8,60.73z M506.33,56.72c0.01-0.29,0.02-0.52,0.02-0.66
			c0-1.81-0.4-3.16-1.2-4.06c-0.8-0.9-1.87-1.35-3.21-1.35s-2.55,0.51-3.61,1.54c-1.06,1.02-1.79,2.54-2.17,4.54H506.33z
			 M513.19,64.09l6.3-0.99c0.56,1.33,1.26,2.26,2.11,2.81c0.84,0.55,1.99,0.82,3.43,0.82c1.5,0,2.7-0.34,3.6-1.01
			c0.63-0.46,0.94-1.02,0.94-1.68c0-0.44-0.16-0.84-0.48-1.19c-0.33-0.33-1.24-0.75-2.71-1.23c-3.96-1.31-6.4-2.35-7.35-3.11
			c-1.47-1.19-2.21-2.74-2.21-4.66c0-1.92,0.72-3.57,2.14-4.96c1.99-1.94,4.95-2.9,8.87-2.9c3.12,0,5.48,0.57,7.08,1.71
			c1.6,1.15,2.61,2.69,3.03,4.64l-6,1.06c-0.32-0.89-0.84-1.55-1.56-2c-0.98-0.6-2.16-0.9-3.53-0.9c-1.38,0-2.37,0.23-2.97,0.69
			c-0.6,0.46-0.91,0.98-0.91,1.58c0,0.61,0.3,1.11,0.91,1.51c0.38,0.24,1.6,0.67,3.67,1.28c3.19,0.93,5.33,1.84,6.41,2.75
			c1.52,1.26,2.28,2.79,2.28,4.57c0,2.3-0.96,4.3-2.89,5.99c-1.94,1.69-4.65,2.54-8.17,2.54c-3.5,0-6.2-0.64-8.11-1.92
			C515.17,68.2,513.88,66.41,513.19,64.09L513.19,64.09z"/>
	</g>
</g>
</svg>
