<?xml version="1.0" encoding="utf-8"?>
<!-- Generator: Adobe Illustrator 25.4.1, SVG Export Plug-In . SVG Version: 6.00 Build 0)  -->
<svg version="1.1" id="Layer_2" xmlns="http://www.w3.org/2000/svg" xmlns:xlink="http://www.w3.org/1999/xlink" x="0px" y="0px"
	 viewBox="0 0 79.64 80" style="enable-background:new 0 0 79.64 80;" xml:space="preserve">
<style type="text/css">
	.st0{fill:#FDD300;}
</style>
<path class="st0" d="M39.75,0C17.75,0.04-0.04,18.02,0,40.06c0.08,22.11,17.94,40,39.92,39.94c22-0.06,39.79-18.04,39.73-40.15
	C79.58,17.81,61.71-0.06,39.75,0z M66.34,67.52c-6.8,6.63-16.13,10.76-26.36,10.8C18.91,78.38,1.83,61.24,1.75,40.13
	C1.73,18.97,18.72,1.81,39.81,1.75c10.23-0.04,19.58,4,26.4,10.65c4.15,3.92,7.37,8.82,9.43,14.32l-9.39,0.02l-43.79,0.13v7.73
	c4.04,0.91,8.04,2.17,11.83,3.85c-6.99-1.89-14.34-2.67-22.67-2.65h-0.29v9.94l2.29-2.32c20.55,0.44,39.12,8.99,52.69,22.57
	c0.29,0.25,0.57,0.48,0.8,0.74C66.88,67.03,66.63,67.26,66.34,67.52z M67.66,66.19l-0.04-7.62c0-0.13,0.06-0.13,0.06-0.13
	c-0.06,0-0.06-0.06-0.06-0.06v-0.06c-0.42-0.67-0.84-1.33-1.33-2c-6.17-8.88-14.27-16.38-23.75-21.75l23.68-0.04l11.33-0.04
	c0.27,1.81,0.38,3.56,0.38,5.45C77.98,50.04,74.08,59.26,67.66,66.19z"/>
</svg>
