<?xml version="1.0" encoding="utf-8"?>
<!-- Generator: Adobe Illustrator 25.4.1, SVG Export Plug-In . SVG Version: 6.00 Build 0)  -->
<svg version="1.1" id="Layer_2" xmlns="http://www.w3.org/2000/svg" xmlns:xlink="http://www.w3.org/1999/xlink" x="0px" y="0px"
	 viewBox="0 0 287.1 80" style="enable-background:new 0 0 287.1 80;" xml:space="preserve">
<style type="text/css">
	.st0{fill:#FDD300;}
	.st1{fill:#0062B0;}
</style>
<path class="st0" d="M39.75,0C17.75,0.04-0.04,18.02,0,40.06c0.08,22.11,17.94,40,39.92,39.94c22-0.06,39.79-18.04,39.73-40.15
	C79.58,17.81,61.71-0.06,39.75,0z M66.34,67.52c-6.8,6.63-16.13,10.76-26.36,10.8C18.91,78.38,1.83,61.24,1.75,40.13
	C1.73,18.97,18.72,1.81,39.81,1.75c10.23-0.04,19.58,4,26.4,10.65c4.15,3.92,7.37,8.82,9.43,14.32l-9.39,0.02l-43.79,0.13v7.73
	c4.04,0.91,8.04,2.17,11.83,3.85c-6.99-1.89-14.34-2.67-22.67-2.65h-0.29v9.94l2.29-2.32c20.55,0.44,39.12,8.99,52.69,22.57
	c0.29,0.25,0.57,0.48,0.8,0.74C66.88,67.03,66.63,67.26,66.34,67.52z M67.66,66.19l-0.04-7.62c0-0.13,0.06-0.13,0.06-0.13
	c-0.06,0-0.06-0.06-0.06-0.06v-0.06c-0.42-0.67-0.84-1.33-1.33-2c-6.17-8.88-14.27-16.38-23.75-21.75l23.68-0.04l11.33-0.04
	c0.27,1.81,0.38,3.56,0.38,5.45C77.98,50.04,74.08,59.26,67.66,66.19z"/>
<path class="st1" d="M215.51,18.53L215.6,52c-1.33,2.48-4.65,3.49-7.24,3.49c-6.86,0-9.81-2.15-9.87-10.72l-0.02-26.17l-9.77,0.04
	l0.11,27.05c0,14.02,8.46,18.21,18.91,18.38c7.35,0.13,13.47-2.84,16.97-6.36c0.46-0.46,0.74-1.09,0.74-1.77l-0.11-37.35
	L215.51,18.53z"/>
<path class="st1" d="M286.25,60.67l-13.14-41.96h-9.52l-14.4,44.13h9.22l2.42-8.15c3.35,0.32,10.38,1.16,16.59,7.94l0.06,0.19h7.2
	C285.79,62.84,286.59,61.75,286.25,60.67z M262.95,47.41l0.69-2.38c0.69-2.21,1.26-4.11,2.34-8.17c0.51-2.02,1.45-5.77,2.08-8.42
	c0.82,4.23,1.2,5.33,1.77,7.73c0.51,2.21,1.01,4.42,2.4,8.86l1.81,6.19C270.23,49.03,266.34,48.02,262.95,47.41z"/>
<path class="st1" d="M233.96,62.84h6.72c1.66,0,3.03-1.37,3.03-3.03V18.72h-9.75C233.96,18.72,233.96,62.84,233.96,62.84z"/>
<path class="st1" d="M99.03,62.8h8.88V43.12h6.78c2.46,0,4.46-2,4.46-4.46v-2.78h-11.24V25.75h9.85c2.4,0,4.42-1.77,4.76-4.15
	l0.44-3.05H99.03V62.8z"/>
<path class="st1" d="M136.5,18.53h-9.07V62.8h19.09c2.46,0,4.59-1.73,5.09-4.13l0.69-3.26H136.5
	C136.5,55.41,136.5,18.53,136.5,18.53z"/>
<path class="st1" d="M166.86,30.76c-0.76,1.71-1.54,3.54-2.36,5.54c-0.55-1.83-1.28-3.71-2.23-5.66l-5.64-12.11h-10.08
	c-0.25,0-0.42,0.27-0.32,0.51l13.45,25.54v18.21h6.63c1.45,0,2.63-1.18,2.63-2.65V44.55l14.11-26.06h-10.48L166.86,30.76z"/>
</svg>
