<?xml version="1.0" encoding="utf-8"?>
<!-- Generator: Adobe Illustrator 25.4.1, SVG Export Plug-In . SVG Version: 6.00 Build 0)  -->
<svg version="1.1" id="Layer_1" xmlns="http://www.w3.org/2000/svg" xmlns:xlink="http://www.w3.org/1999/xlink" x="0px" y="0px"
	 viewBox="0 0 525 80" style="enable-background:new 0 0 525 80;" xml:space="preserve">
<style type="text/css">
	.st0{fill:#FCC30B;}
	.st1{fill:#203669;}
</style>
<g>
	<path class="st0" d="M0,59.3c0,0,84.9-1.7,128.7-10.6S203.5,31.3,221,19l-54.4-7.7L0,59.3z"/>
	<path class="st1" d="M5.1,77.1l54.7-16.5c0,0,34.3-1.3,62-6.5s62.4-15.6,77.3-22l23.1,5.2c0,0-48.2,21.5-98.4,29.9
		S34.9,76.7,5.1,77.1z"/>
	<g>
		<path class="st1" d="M250.3,14.5c-7.6-1.3-7.8-3.3-7.8-4.4c0-1.2,1.3-3.4,7.5-3.4c6.3,0,10,3.1,10,3.1V2.4c0,0-4.2-2.4-11.3-2.4
			s-14,3.6-14,10.9c0,7.3,6.7,9.5,12.1,10.3c5.4,0.8,7.7,3.4,7.7,5.4s-2.6,3.5-8.3,3.5c-5.8,0-11.5-3.5-11.5-3.5v8
			c0,0,7.2,2.8,13.5,2.8c6.3,0,14.3-3.9,14.3-10.8C262.6,19.8,257.9,15.7,250.3,14.5z"/>
		<polygon class="st1" points="491.2,0.4 491.2,15.3 477.2,15.3 477.2,0.4 468.9,0.4 468.9,37.4 477.2,37.4 477.2,21.7 491.2,21.7 
			491.2,37.4 499.6,37.4 499.6,0.4 		"/>
		<path class="st1" d="M377.6,0.4h-6.1h-2.2l-13.5,37h8.3l2.8-7.6h15.4l2.8,7.6h8.3l-13.5-37H377.6z M369.1,23.4l5.3-14.6l5.3,14.6
			H369.1z"/>
		<polygon class="st1" points="268.4,7.5 279.5,7.5 279.5,37.4 287.8,37.4 287.8,7.5 299.6,7.5 299.6,0.4 268.4,0.4 		"/>
		<polygon class="st1" points="441.8,0.4 430.6,0.4 430.6,7.5 441.8,7.5 441.8,37.4 450.1,37.4 450.1,7.5 462.1,7.5 462.1,0.4 
			450.1,0.4 		"/>
		<path class="st1" d="M345,16.2c0,0,5.2-1.9,5.2-7.1c0-5.2-5.8-8.6-10.6-8.6c-3.7,0-7.4,0-8.9,0H330h-7.6v37h8.3h8.9
			c0,0,11.8-0.4,11.8-10.8C351.4,26.6,351.6,19,345,16.2z M337.3,6c0,0,3.8,0.1,3.8,4.1c0,4-4.3,3.7-4.3,3.7h-6V6H337.3z
			 M338.4,30.4h-7.7V19.8h7.7c0,0,4.4,0.7,4.4,5.7S338.4,30.4,338.4,30.4z"/>
		<path class="st1" d="M419.6,19.2c0,0,5.6-1.7,5.6-7.9s-3.9-10.8-12.1-10.8h-6h-0.7h-7.7v37h8.3V22.6h3.1c0,0,7.5,0.2,10.6,14.8
			h9.6C430.4,37.4,427.5,24.3,419.6,19.2z M411.9,17h-4.8V6.7h4.9c0,0,5-0.1,5,5.2C416.9,17.2,411.9,17,411.9,17z"/>
	</g>
	<polygon class="st1" points="340.5,44.8 338.8,44.8 328.1,73.4 317.8,44.8 315.4,44.8 313.5,44.8 311.1,44.8 311.1,79.3 
		315.4,79.3 315.4,50.2 325.9,79.3 325.9,79.3 330.2,79.3 330.2,79.3 340.5,51.6 340.5,79.3 344.9,79.3 344.9,44.8 343.1,44.8 	"/>
	<path class="st1" d="M422,44.8h-4.3v21.6c0,2.3-1.2,9.4-10.4,9.4c-9.2,0-8.6-9.4-8.6-9.4V44.8h-4.3v21.6
		c0,13.8,13.1,13.5,13.1,13.5c15.5,0,14.5-13.5,14.5-13.5V44.8z"/>
	<polygon class="st1" points="465,63.5 484.9,63.5 484.9,59.2 465,59.2 465,49.1 486.3,49.1 486.3,44.8 465,44.8 460.9,44.8 
		460.7,44.8 460.7,79.3 460.9,79.3 465,79.3 486.9,79.3 486.9,75 465,75 	"/>
	<polygon class="st1" points="381.6,44.8 380.2,44.8 369.5,73.4 359.3,44.8 356.9,44.8 355,44.8 352.6,44.8 352.6,79.3 356.9,79.3 
		356.9,50.2 367.3,79.3 367.3,79.3 371.6,79.3 371.7,79.3 381.6,52.6 381.6,79.3 386,79.3 386,44.8 384.6,44.8 	"/>
	<polygon class="st1" points="439.4,44.8 427.6,44.8 427.6,49.1 439.4,49.1 439.4,79.3 443.7,79.3 443.7,49.1 455.5,49.1 
		455.5,44.8 443.7,44.8 	"/>
	<path class="st1" d="M517.6,67.7c0,0-3.1-3.5-5.5-4c0,0,0,0,0,0c3.4-0.6,10.1-2.6,10.1-9.6c0-9.3-10.1-9.4-12-9.4h-11.9h-4.3v3.8
		v11.5V64v15.3h4.3V64h7.5c0.6,0,3.6,0.3,6.8,5.2c3.6,5.4,6.5,10.1,6.5,10.1h6.2L517.6,67.7z M498.4,60.1V48.6h11.9
		c0,0,7.1-0.2,7.1,5.4c0,5.5-7.1,6.1-7.1,6.1H498.4z"/>
	<path class="st1" d="M287.8,44.2c-9.5,0-17.1,8-17.1,17.9c0,9.9,7.7,17.9,17.1,17.9c9.5,0,17.1-8,17.1-17.9
		C305,52.2,297.3,44.2,287.8,44.2z M287.8,76c-6.6,0-12-6.2-12-13.9s5.4-13.9,12-13.9c6.6,0,12,6.2,12,13.9S294.5,76,287.8,76z"/>
	<path class="st1" d="M251.8,47.9c3.8,0,6.7-0.5,12.3,4.4l-0.1-5.3c-4.3-2.3-7.3-2.9-12.4-2.9c-9.5,0-16.6,8-16.6,17.9
		c0,9.9,7.1,18,16.6,18c4.4,0,8.4-1.7,11.5-4l0.7-5.2c-2.2,3.1-8.4,5.2-12.2,5.2c-6.6,0-12-6.2-12-13.9S243.8,47.9,251.8,47.9z"/>
</g>
</svg>
