<?xml version="1.0" encoding="utf-8"?>
<!-- Generator: Adobe Illustrator 25.4.1, SVG Export Plug-In . SVG Version: 6.00 Build 0)  -->
<svg version="1.1" id="Layer_2_00000159471598350358213750000014612203606435250611_"
	 xmlns="http://www.w3.org/2000/svg" xmlns:xlink="http://www.w3.org/1999/xlink" x="0px" y="0px" viewBox="0 0 120.5 80"
	 style="enable-background:new 0 0 120.5 80;" xml:space="preserve">
<style type="text/css">
	.st0{opacity:0.2;fill:#FCB619;}
	.st1{opacity:0.5;fill:#FCB619;}
	.st2{opacity:0.6;fill:#FCB619;}
	.st3{opacity:0.8;fill:#FCB619;}
	.st4{fill:#FCB619;}
	.st5{fill:#3D561A;}
</style>
<path class="st0" d="M98.9,72.6c-1,1.5-2.2,2.9-3.4,4.2H28c-1.2-1.3-2.4-2.7-3.4-4.2H98.9z"/>
<path class="st1" d="M103,65.7c-0.7,1.5-1.5,2.9-2.3,4.2H22.8c-0.5-0.8-1-1.6-1.4-2.4c0.7-0.5,1.6-1.2,2.5-1.8h44.7
	c0.1,0.1,0.1,0.3,0.2,0.4c0.5,0.7,1.4,1.1,2.3,1.1c0.5,0,1.3-0.1,2.1-0.8c0.2-0.1,0.7-0.4,1.3-0.7H103z"/>
<path class="st2" d="M17.6,58h3.3c-0.3,0.2-0.6,0.4-0.8,0.6c-0.4,0.4-1,0.9-1.6,1.5c0,0-0.1,0.1-0.1,0.1C18,59.5,17.8,58.8,17.6,58z
	"/>
<path class="st2" d="M57.3,58H72c-1,0.5-1.7,1.3-2,2.1c-0.1,0.3-0.3,0.7-0.5,1.1c-0.2,0.4-0.3,0.7-0.4,1H46.9c0.4,0,0.8-0.1,1.2-0.2
	C52.4,61.4,55.2,59.6,57.3,58z"/>
<path class="st2" d="M105.9,58c-0.4,1.4-0.8,2.8-1.4,4.2H81.2c0.2-0.1,0.4-0.3,0.5-0.4c0.6-0.5,3.2-1.4,5.3-2.1
	c1.5-0.5,3.1-1.1,4.6-1.7H105.9z"/>
<path class="st3" d="M29.3,53.7c1.3,0,2.2-0.2,2.9-0.4c-0.1,0.2-0.4,0.4-0.7,0.6H16.7c-0.3-1.3-0.4-2.7-0.5-4.1h6.4
	c0.8,2.2,2.8,3.6,5.8,4C28.6,53.7,28.9,53.7,29.3,53.7z"/>
<path class="st3" d="M107.4,49.7c-0.1,1.4-0.3,2.8-0.5,4.1h-5c0.6-0.4,1.1-1.1,1.5-2.2c0.2-0.6,0.5-1.2,1-1.9H107.4z"/>
<path class="st4" d="M70.8,14.6c-1.3,0.1-1.5,0.9-1.6,1.2c-0.1,0.3,0.1,1.2,0.1,1.2c0.4,1.9,5,5.2,6.8,5.8c0.3,0.1,0.7,0.2,1.2,0.3
	c2.3,0.7,5.8,1.7,9,1.8c4.1,0.2,8.1,0.6,8.8,0.9l0,0l0,0.1c0,0.2-0.4,0.9-1.6,2C93.6,28,84.9,35.2,76.9,38
	c-6.2,2.2-13.2,3.6-18.7,3.6c-1.1,0-2.1-0.1-3.1-0.2c-3.1-0.4-7-0.8-10.5-0.8c-3.5,0-6,0.4-7.6,1.4c-1.6,0.9-2.6,1.9-3.3,2.9h-1.3
	c-0.1-0.6-0.4-1.3-0.8-1.9c-0.6-0.8-1.5-1.3-2.5-1.4c-0.2,0-0.3,0-0.5,0c-2,0-4.3,1.3-5.6,3.3h-7c0-1.4,0.1-2.8,0.3-4.2
	C18.8,17.8,38.2,0,61.7,0C74.8,0,86.6,5.5,95,14.3h-0.3l-3.1,0c-5.1,0-11.3-0.3-13.6-0.9c-1.4-0.4-2.7-1.4-3.7-2.3
	c-1-0.8-1.8-1.5-2.9-1.5l-0.3,0l-0.1,0c-0.9,0.2-1.6,1-1.7,1.9C69.3,12.5,70,13.6,70.8,14.6"/>
<path class="st4" d="M105.5,32.2c0.2,0.7,0.4,1.4,0.6,2.1c-0.8,0-1.7,0.2-2.3,0.3c-0.8,0.2-2.1,0.8-4.1,1.7
	c-0.1,0.1-0.3,0.1-0.4,0.2c0.5-1,0.9-2.1,1.2-2.6c0.4-0.5,1.1-1.5,3.7-1.6C104.7,32.3,105.1,32.3,105.5,32.2z"/>
<g>
	<path class="st5" d="M115.3,25.9c-1.7-0.8-6.7-1.1-8.6-2.5c-1.9-1.3-3.7-5.1-5.9-6.2c-2.2-1.1-4.8-0.9-9-0.9
		c-4.1,0-11.4-0.2-14.3-0.9c-3-0.8-5.2-3.8-6.1-3.7c-0.8,0.2,2.5,3.9,4,4.4c1.5,0.5,5.4,1.3,9.4,1.4c4,0.2,10.1,0.4,10.9,1
		c0.8,0.6,1.4,1.2,1.3,1.9c-0.1,0.7-0.3,1.5-1.5,1.6c-1.3,0.1-3.6-0.2-6.1-0.4c-2.6-0.2-6.9-0.4-11.2-1.7c-4.3-1.2-6.3-3.7-6.8-3.3
		c-0.5,0.4,3.5,3.9,5.4,4.4c1.9,0.5,6.1,1.9,9.8,2.1c3.7,0.1,8.3,0.6,9.4,1c1.1,0.3,1.5,1.2,1.3,2.2c-0.1,1-1.1,2.1-2.3,3.2
		c-1.2,1-9.5,7.7-17.3,10.4c-7.8,2.8-16.6,4.2-22.6,3.5c-6-0.7-13.8-1.5-16.9,0.3c-3,1.7-3.5,4-4.7,5.2c-1.1,1.2-1.9,1.4-2.7,1.4
		c-0.7,0-2.1,0.4-1.7-1.6c0.4-1.9,1.5-2.2,1.6-2.7c0.1-0.6-0.1-2.3-1.7-2.5c-1.6-0.2-4.5,1.6-4.7,3.8c-0.2,2.3,1.3,4.1,4.3,4.5
		c3.1,0.2,3.9-0.8,4.5-0.8c0.6,0.1,1.4,0.3,1.4,1.6c0,1.2-0.6,2.4-2.8,3.4c-2.2,1-7.9,2.1-10.2,4.2c-2.3,2.1-8.9,8.3-11.6,10
		c-3.1,2-6.5,3.1-7.3,3.2c-0.7,0.2-0.7,2.1-1.3,2.1c-0.6,0.1-1.9,4.5-0.9,4.5c1.1,0,3.3-1.5,6.4-4.8C8,73.5,17.1,68.4,19,66.8
		c2-1.5,7.1-6,13.5-5.5c3.4,0.1,8.7-0.1,15.3-1.1c6.5-1,9.4-5.1,12-6c2.7-0.9,17.2-0.6,22-1.1c4.8-0.6,10.5-3.4,12.1-4.9
		c1.6-1.4,1.9-3.7,2.9-4.6c1.1-1,5-3.3,6.1-2.4c1.1,1-3.3,5.9-4.7,7.4c-1.4,1.4-3,3.1-6.5,4.2c-3.5,1-10.6,3.7-12.1,4.1
		c-1.4,0.4-2,2.5-3,2.8c-1,0.3-3.8-1.2-4.9,1.2c-0.3,0.7-1.3,2.7-1.5,3.4c-0.2,0.6,0.7,1.5,1.9,0.6c1.2-0.9,6.7-3.1,8.3-4.5
		c1.7-1.5,8.9-3.1,13.9-5.6c5-2.5,6.5-1.4,7.2-3.7c0.8-2.3,3.2-4.9,4.5-8c1.3-3.1,4.2-4,4.1-5.6c-0.2-1.6-4.2-1.3-5.8-0.9
		c-1.7,0.4-7.8,3.7-8.1,3.2c-0.3-0.5,2.2-5.8,2.7-6.8c0.6-1,1.9-2.4,5.3-2.6c3.4,0,5.2-1.2,8.2-1.1c3,0.1,7.2-0.9,7.3-1.8
		C119.8,26.6,117,26.8,115.3,25.9z"/>
</g>
<path class="st4" d="M85.2,19.6c0.8,0.1,1.6,0.3,2.4,0.3c0.9,0.1,1.7-0.1,2.4-0.1c-1-0.2-3-0.9-6.3-0.5
	C83.9,19.3,85.2,19.6,85.2,19.6z"/>
</svg>
