<?xml version="1.0" encoding="utf-8"?>
<!-- Generator: Adobe Illustrator 25.4.1, SVG Export Plug-In . SVG Version: 6.00 Build 0)  -->
<svg version="1.1" id="Layer_2_00000159471598350358213750000014612203606435250611_"
	 xmlns="http://www.w3.org/2000/svg" xmlns:xlink="http://www.w3.org/1999/xlink" x="0px" y="0px" viewBox="0 0 295.4 80"
	 style="enable-background:new 0 0 295.4 80;" xml:space="preserve">
<style type="text/css">
	.st0{opacity:0.2;fill:#FCB619;}
	.st1{opacity:0.5;fill:#FCB619;}
	.st2{opacity:0.6;fill:#FCB619;}
	.st3{opacity:0.8;fill:#FCB619;}
	.st4{fill:#FCB619;}
	.st5{fill:#3D561A;}
	.st6{fill:#333333;}
</style>
<g>
	<path class="st0" d="M273.7,72.6c-1,1.5-2.2,2.9-3.4,4.2h-67.4c-1.2-1.3-2.4-2.7-3.4-4.2H273.7z"/>
	<path class="st1" d="M277.9,65.7c-0.7,1.5-1.5,2.9-2.3,4.2h-77.9c-0.5-0.8-1-1.6-1.4-2.4c0.7-0.5,1.6-1.2,2.5-1.8h44.7
		c0.1,0.1,0.1,0.3,0.2,0.4c0.5,0.7,1.4,1.1,2.3,1.1c0.5,0,1.3-0.1,2.1-0.8c0.2-0.1,0.7-0.4,1.3-0.7H277.9z"/>
	<path class="st2" d="M192.5,58h3.3c-0.3,0.2-0.6,0.4-0.8,0.6c-0.4,0.4-1,0.9-1.6,1.5c0,0-0.1,0.1-0.1,0.1
		C192.9,59.5,192.7,58.8,192.5,58z"/>
	<path class="st2" d="M232.2,58h14.7c-1,0.5-1.7,1.3-2,2.1c-0.1,0.3-0.3,0.7-0.5,1.1c-0.2,0.4-0.3,0.7-0.4,1h-22.1
		c0.4,0,0.8-0.1,1.2-0.2C227.2,61.4,230.1,59.6,232.2,58z"/>
	<path class="st2" d="M280.7,58c-0.4,1.4-0.8,2.8-1.4,4.2H256c0.2-0.1,0.4-0.3,0.5-0.4c0.6-0.5,3.2-1.4,5.3-2.1
		c1.5-0.5,3.1-1.1,4.6-1.7H280.7z"/>
	<path class="st3" d="M204.1,53.7c1.3,0,2.2-0.2,2.9-0.4c-0.1,0.2-0.4,0.4-0.7,0.6h-14.8c-0.3-1.3-0.4-2.7-0.5-4.1h6.4
		c0.8,2.2,2.8,3.6,5.8,4C203.5,53.7,203.8,53.7,204.1,53.7z"/>
	<path class="st3" d="M282.2,49.7c-0.1,1.4-0.3,2.8-0.5,4.1h-5c0.6-0.4,1.1-1.1,1.5-2.2c0.2-0.6,0.5-1.2,1-1.9H282.2z"/>
	<path class="st4" d="M245.7,14.6c-1.3,0.1-1.5,0.9-1.6,1.2c-0.1,0.3,0.1,1.2,0.1,1.2c0.4,1.9,5,5.2,6.8,5.8
		c0.3,0.1,0.7,0.2,1.2,0.3c2.3,0.7,5.8,1.7,9,1.8c4.1,0.2,8.1,0.6,8.8,0.9l0,0l0,0.1c0,0.2-0.4,0.9-1.6,2
		c-0.1,0.1-8.7,7.3-16.7,10.1c-6.2,2.2-13.2,3.6-18.7,3.6c-1.1,0-2.1-0.1-3.1-0.2c-3.1-0.4-7-0.8-10.5-0.8c-3.5,0-6,0.4-7.6,1.4
		c-1.6,0.9-2.6,1.9-3.3,2.9h-1.3c-0.1-0.6-0.4-1.3-0.8-1.9c-0.6-0.8-1.5-1.3-2.5-1.4c-0.2,0-0.3,0-0.5,0c-2,0-4.3,1.3-5.6,3.3h-7
		c0-1.4,0.1-2.8,0.3-4.2c2.6-22.8,22-40.6,45.5-40.6c13.1,0,24.9,5.5,33.2,14.3h-0.3l-3.1,0c-5.1,0-11.3-0.3-13.6-0.9
		c-1.4-0.4-2.7-1.4-3.7-2.3c-1-0.8-1.8-1.5-2.9-1.5l-0.3,0l-0.1,0c-0.9,0.2-1.6,1-1.7,1.9C244.2,12.5,244.8,13.6,245.7,14.6"/>
	<path class="st4" d="M280.3,32.2c0.2,0.7,0.4,1.4,0.6,2.1c-0.8,0-1.7,0.2-2.3,0.3c-0.8,0.2-2.1,0.8-4.1,1.7
		c-0.1,0.1-0.3,0.1-0.4,0.2c0.5-1,0.9-2.1,1.2-2.6c0.4-0.5,1.1-1.5,3.7-1.6C279.5,32.3,279.9,32.3,280.3,32.2z"/>
	<g>
		<path class="st5" d="M290.1,25.9c-1.7-0.8-6.7-1.1-8.6-2.5c-1.9-1.3-3.7-5.1-5.9-6.2c-2.2-1.1-4.8-0.9-9-0.9
			c-4.1,0-11.4-0.2-14.3-0.9c-3-0.8-5.2-3.8-6.1-3.7c-0.8,0.2,2.5,3.9,4,4.4c1.5,0.5,5.4,1.3,9.4,1.4c4,0.2,10.1,0.4,10.9,1
			c0.8,0.6,1.4,1.2,1.3,1.9c-0.1,0.7-0.3,1.5-1.5,1.6c-1.3,0.1-3.6-0.2-6.1-0.4c-2.6-0.2-6.9-0.4-11.2-1.7c-4.3-1.2-6.3-3.7-6.8-3.3
			c-0.5,0.4,3.5,3.9,5.4,4.4c1.9,0.5,6.1,1.9,9.8,2.1c3.7,0.1,8.3,0.6,9.4,1c1.1,0.3,1.5,1.2,1.3,2.2c-0.1,1-1.1,2.1-2.3,3.2
			c-1.2,1-9.5,7.7-17.3,10.4c-7.8,2.8-16.6,4.2-22.6,3.5c-6-0.7-13.8-1.5-16.9,0.3c-3,1.7-3.5,4-4.7,5.2c-1.1,1.2-1.9,1.4-2.7,1.4
			c-0.7,0-2.1,0.4-1.7-1.6c0.4-1.9,1.5-2.2,1.6-2.7c0.1-0.6-0.1-2.3-1.7-2.5c-1.6-0.2-4.5,1.6-4.7,3.8c-0.2,2.3,1.3,4.1,4.3,4.5
			c3.1,0.2,3.9-0.8,4.5-0.8c0.6,0.1,1.4,0.3,1.4,1.6c0,1.2-0.6,2.4-2.8,3.4c-2.2,1-7.9,2.1-10.2,4.2c-2.3,2.1-8.9,8.3-11.6,10
			c-3.1,2-6.5,3.1-7.3,3.2c-0.7,0.2-0.7,2.1-1.3,2.1c-0.6,0.1-1.9,4.5-0.9,4.5c1.1,0,3.3-1.5,6.4-4.8c1.2-1.7,10.3-6.9,12.3-8.4
			c2-1.5,7.1-6,13.5-5.5c3.4,0.1,8.7-0.1,15.3-1.1c6.5-1,9.4-5.1,12-6c2.7-0.9,17.2-0.6,22-1.1c4.8-0.6,10.5-3.4,12.1-4.9
			c1.6-1.4,1.9-3.7,2.9-4.6c1.1-1,5-3.3,6.1-2.4c1.1,1-3.3,5.9-4.7,7.4c-1.4,1.4-3,3.1-6.5,4.2c-3.5,1-10.6,3.7-12.1,4.1
			c-1.4,0.4-2,2.5-3,2.8c-1,0.3-3.8-1.2-4.9,1.2c-0.3,0.7-1.3,2.7-1.5,3.4c-0.2,0.6,0.7,1.5,1.9,0.6c1.2-0.9,6.7-3.1,8.3-4.5
			c1.7-1.5,8.9-3.1,13.9-5.6c5-2.5,6.5-1.4,7.2-3.7c0.8-2.3,3.2-4.9,4.5-8c1.3-3.1,4.2-4,4.1-5.6c-0.2-1.6-4.2-1.3-5.8-0.9
			c-1.7,0.4-7.8,3.7-8.1,3.2c-0.3-0.5,2.2-5.8,2.7-6.8c0.6-1,1.9-2.4,5.3-2.6c3.4,0,5.2-1.2,8.2-1.1c3,0.1,7.2-0.9,7.3-1.8
			C294.7,26.6,291.9,26.8,290.1,25.9z"/>
	</g>
	<g>
		<g>
			<path class="st5" d="M0,45.8l0.3-1.2l0.4-2l0.3-1.7l2.3-14.8c0.2-0.9,0.3-1.8,0.4-2.5c0.1-0.8,0.1-1.5,0.1-2.3H13
				c2.4,0,4.3,0.5,5.7,1.5c1.3,1,2,2.5,2,4.3c0,1.7-0.4,3.2-1.3,4.6c-0.9,1.3-2.1,2.4-3.8,3.1c-1.3,0.6-3.2,0.9-5.6,0.9H7.6
				l-0.8,5.2c-0.2,1-0.3,1.8-0.4,2.5c-0.1,0.7-0.1,1.5-0.1,2.3H0z M9.3,24.4l-1.3,8l1.3,0.1c1.8,0,3.1-0.4,4-1.2
				c1-0.9,1.5-2.1,1.5-3.6c0-2.2-1.4-3.3-4.1-3.3H9.3z"/>
		</g>
		<g>
			<path class="st5" d="M19.2,45.8l0.3-1.2l0.7-3.7l1.2-7.4c0.2-1.3,0.3-2.3,0.3-3.1l-0.1-1.9h5.3l0.2,1l-0.1,0.8
				c1.1-1.5,2.5-2.2,4.3-2.2h0.5L31.2,32l-1.1-0.1c-2.2,0-3.6,1.4-4,4.3l-0.7,4.8c-0.1,0.8-0.2,1.6-0.3,2.6
				c-0.1,0.9-0.2,1.7-0.2,2.3H19.2z"/>
		</g>
		<g>
			<path class="st5" d="M46.1,35.2l-10.3,3.9c0,1.2,0.4,2.3,1.1,3.1c0.7,0.8,1.5,1.2,2.5,1.2c1.4,0,2.9-0.7,4.3-2.1l1.3,1.9
				c-0.3,0.3-0.5,0.5-0.6,0.6c-0.3,0.2-0.6,0.4-0.7,0.5c-1.9,1.2-4,1.8-6.2,1.8c-4.7,0-7-2.5-7-7.5c0-2.9,0.9-5.4,2.8-7.5
				C35,29.1,37.3,28,40,28c1.9,0,3.4,0.5,4.5,1.6c1.1,1.1,1.7,2.6,1.7,4.5L46.1,35.2z M39.5,30.8c-1,0-1.8,0.5-2.5,1.6
				c-0.4,0.6-0.7,1.2-0.9,1.9c-0.2,0.7-0.3,1.5-0.3,2.3l4.4-1.7c0.7-0.3,1.1-0.9,1.1-1.8c0-0.7-0.2-1.3-0.5-1.7
				C40.4,31,40,30.8,39.5,30.8z"/>
		</g>
		<g>
			<path class="st5" d="M62.3,28.6l-0.6,3.8c-1.1-1-2.3-1.6-3.5-1.6c-1.6,0-2.9,0.8-4.1,2.3c-1.1,1.5-1.7,3.3-1.7,5.5
				c0,1.4,0.3,2.5,1,3.3c0.6,0.8,1.5,1.2,2.6,1.2c0.7,0,1.5-0.2,2.1-0.5c0.7-0.3,1.3-0.7,2-1.3l1.2,2.3c-2.5,1.6-4.9,2.4-7.3,2.4
				c-2.2,0-3.9-0.6-5.1-1.8C47.6,43,47,41.3,47,39.2c0-3,1.1-5.6,3.4-7.8c2.3-2.2,5-3.3,8.1-3.3C59.8,28.1,61,28.3,62.3,28.6z"/>
		</g>
		<g>
			<path class="st5" d="M61.9,45.8l0.7-3.2l0.4-2l1.2-7.4l0.2-1.6l0.3-3h5.4l-1.9,12.4c-0.1,0.7-0.2,1.5-0.3,2.3
				c-0.1,0.8-0.2,1.7-0.3,2.6H61.9z M65.1,24.2c0.2-1.7,1.4-2.5,3.6-2.5c1,0,1.8,0.2,2.2,0.5c0.4,0.3,0.6,0.9,0.6,1.7
				c0,0.8-0.3,1.5-0.9,2.1c-0.6,0.5-1.3,0.8-2.3,0.8c-1.2,0-2-0.2-2.5-0.5c-0.5-0.3-0.7-0.9-0.7-1.6v-0.2V24.2z"/>
		</g>
		<g>
			<path class="st5" d="M69.9,44.8l0.9-4.4l1,1c1.4,1.3,3,1.9,4.5,1.9c0.7,0,1.4-0.2,2-0.6c0.6-0.4,0.8-0.9,0.8-1.5
				c0-0.6-0.5-1.2-1.6-1.7l-1-0.5c-0.8-0.4-1.6-0.9-2.4-1.4c-1.3-0.8-1.9-1.9-1.9-3.1c0-1.8,0.8-3.3,2.4-4.5
				c1.6-1.2,3.5-1.8,5.8-1.8c0.7,0,1.4,0,2.1,0.1c0.7,0.1,1.5,0.3,2.6,0.5l-0.5,4.1c-0.8-0.6-1.6-1.1-2.3-1.5
				c-1-0.4-1.9-0.6-2.7-0.6c-0.6,0-1.1,0.2-1.5,0.5c-0.4,0.4-0.6,0.8-0.6,1.3c0,0.6,0.6,1.2,1.9,1.9l1,0.5c1.4,0.7,2.5,1.4,3.1,2.1
				c0.6,0.7,0.9,1.6,0.9,2.6c0,1.9-0.8,3.5-2.4,4.7c-1.6,1.2-3.7,1.8-6.2,1.8c-0.6,0-1.2,0-1.8-0.1s-1.2-0.2-1.8-0.4
				c-0.3-0.1-0.7-0.2-1.1-0.4C70.8,45.1,70.4,45,69.9,44.8z"/>
		</g>
		<g>
			<path class="st5" d="M85.6,45.8l0.7-3.2l0.4-2l1.2-7.4l0.2-1.6l0.3-3h5.4l-1.9,12.4c-0.1,0.7-0.2,1.5-0.3,2.3
				c-0.1,0.8-0.2,1.7-0.3,2.6H85.6z M88.8,24.2c0.2-1.7,1.4-2.5,3.6-2.5c1,0,1.8,0.2,2.2,0.5c0.4,0.3,0.6,0.9,0.6,1.7
				c0,0.8-0.3,1.5-0.9,2.1c-0.6,0.5-1.3,0.8-2.3,0.8c-1.2,0-2-0.2-2.5-0.5c-0.5-0.3-0.7-0.9-0.7-1.6v-0.2V24.2z"/>
		</g>
		<g>
			<path class="st5" d="M94.9,40.7l-0.1-1.2c0-3.4,0.9-6.2,2.7-8.3c1.8-2.1,4.1-3.2,7-3.2c2.1,0,3.7,0.6,4.9,1.9
				c1.2,1.2,1.8,2.9,1.8,5c0,3.3-0.9,6-2.7,8.1c-1.8,2.1-4.1,3.1-6.9,3.1c-1.8,0-3.3-0.5-4.5-1.4C95.9,43.8,95.2,42.5,94.9,40.7z
				 M101,34.1c-0.7,2.1-1,4.2-1,6.3c0,2,0.7,3,2,3c1.3,0,2.3-1,3-3.1c0.3-1.1,0.6-2.1,0.7-3.1c0.2-1,0.2-2.1,0.2-3.2c0-2-0.7-3-2-3
				C102.7,30.9,101.7,32,101,34.1z"/>
		</g>
		<g>
			<path class="st5" d="M111.9,45.8c0.5-2.3,0.9-4.1,1.1-5.2l1.1-7.1c0.2-1.5,0.4-2.5,0.4-3.2c0.1-0.6,0.1-1.2,0.1-1.8h5.4l-0.3,1.6
				c1.7-1.3,3.4-2,4.9-2c1.5,0,2.6,0.4,3.5,1.1c0.8,0.7,1.3,1.7,1.3,2.9c0,0.3,0,0.5,0,0.8c-0.1,0.4-0.1,0.7-0.1,0.9l-1.1,6.9
				l-0.4,3l-0.2,2.1H122l0.5-2.2l0.6-2.9l1.2-6.9V33c0-1.1-0.6-1.7-1.9-1.7c-1,0-2,0.5-2.9,1.6l-1.2,7.7l-0.6,5.2H111.9z"/>
		</g>
		<g>
			<path class="st5" d="M138.1,45.8l0.3-0.6l1.4-2.6l0.9-1.6l9-18.1l-0.1-1.5h5.8l3.4,19.6l0.3,1.7l0.8,3.2H153v-0.5
				c0-1.6-0.1-3.1-0.4-4.4l-0.3-1.5h-7.1l-0.8,1.5c-0.4,0.7-1,2.3-2,4.9H138.1z M150.6,27.6l-4.1,8.6l5.3,0L150.6,27.6z"/>
		</g>
		<g>
			<path class="st5" d="M160.9,45.8l0.7-3.2l0.4-2l1.2-7.4l0.2-1.6l0.3-3h5.4l-1.9,12.4c-0.1,0.7-0.2,1.5-0.3,2.3
				c-0.1,0.8-0.2,1.7-0.3,2.6H160.9z M164.1,24.2c0.2-1.7,1.4-2.5,3.6-2.5c1,0,1.8,0.2,2.2,0.5c0.4,0.3,0.6,0.9,0.6,1.7
				c0,0.8-0.3,1.5-0.9,2.1c-0.6,0.5-1.3,0.8-2.3,0.8c-1.2,0-2-0.2-2.5-0.5c-0.5-0.3-0.7-0.9-0.7-1.6v-0.2V24.2z"/>
		</g>
		<g>
			<path class="st5" d="M170.1,45.8l0.3-1.2l0.7-3.7l1.2-7.4c0.2-1.3,0.3-2.3,0.3-3.1l-0.1-1.9h5.3l0.2,1l-0.1,0.8
				c1.1-1.5,2.5-2.2,4.3-2.2h0.5l-0.6,3.9l-1.1-0.1c-2.2,0-3.6,1.4-4,4.3l-0.7,4.8c-0.1,0.8-0.2,1.6-0.3,2.6
				c-0.1,0.9-0.2,1.7-0.2,2.3H170.1z"/>
		</g>
	</g>
	<g>
		<path class="st6" d="M57.2,49.8h3.1l0.1,0.2l0.4,1.2L61,52l0.9,2.5l2.3-3.3c0.1-0.2,0.3-0.4,0.4-0.6c0.1-0.2,0.3-0.5,0.5-0.8H67
			l-0.5,0.7l-0.6,0.7L65.3,52l-3,4.2l-0.4,2.4c-0.1,0.4-0.1,0.8-0.2,1.2s-0.1,0.7-0.1,1H59c0.1-0.2,0.1-0.6,0.2-1.1
			c0.1-0.3,0.1-0.7,0.2-1.1l0.4-2.3L58.2,52l-0.3-0.7L57.2,49.8z"/>
		<path class="st6" d="M63.8,58.4l0-0.5c0-1.5,0.4-2.7,1.2-3.7c0.8-0.9,1.8-1.4,3.1-1.4c0.9,0,1.7,0.3,2.2,0.8
			c0.5,0.5,0.8,1.3,0.8,2.2c0,1.5-0.4,2.7-1.2,3.6c-0.8,0.9-1.8,1.4-3.1,1.4c-0.8,0-1.5-0.2-2-0.6S63.9,59.2,63.8,58.4z M66.5,55.5
			c-0.3,0.9-0.4,1.9-0.4,2.8c0,0.9,0.3,1.3,0.9,1.3c0.6,0,1-0.5,1.3-1.4c0.1-0.5,0.2-0.9,0.3-1.4c0.1-0.4,0.1-0.9,0.1-1.4
			c0-0.9-0.3-1.3-0.9-1.3C67.2,54.1,66.8,54.6,66.5,55.5z"/>
		<path class="st6" d="M76,60c-0.8,0.6-1.5,0.9-2.2,0.9c-0.6,0-1.1-0.2-1.5-0.5c-0.4-0.3-0.6-0.7-0.6-1.3c0-0.2,0-0.3,0-0.5
			c0-0.1,0.1-0.2,0.1-0.3l0.5-3.1l0.2-1.3l0.1-1h2.5l-0.5,2.3l-0.5,3.1c0,0.1,0,0.2,0,0.3c0,0.5,0.3,0.7,0.9,0.7
			c0.4,0,0.8-0.2,1.3-0.7l0.5-3.4l0.2-1.3l0.1-1h2.6l-0.3,1l-0.3,1.3l-0.5,3.2l-0.2,1.4c0,0.1,0,0.3,0,0.4c0,0.2,0,0.3,0,0.4h-2.4
			L76,60z"/>
		<path class="st6" d="M90.2,53.6l1-0.7l0.7,0.4l-0.3,0.8l-0.2,1.1l-0.7,4.1l-0.1,0.6c0,0.3,0,0.6,0.1,0.8h-2.3l0-0.4
			c0-0.2,0-0.3,0-0.4c-0.7,0.6-1.3,0.9-2.1,0.9c-0.7,0-1.2-0.3-1.6-0.8c-0.4-0.5-0.6-1.2-0.6-2.1c0-1.4,0.4-2.7,1.3-3.7
			c0.8-1,1.8-1.5,3-1.5c0.5,0,0.9,0.1,1.1,0.2C89.8,53.1,90,53.3,90.2,53.6z M87.3,59.4c0.3,0,0.7-0.2,1.2-0.6l0.6-3.6l0-0.5
			c0-0.6-0.3-0.8-0.8-0.8c-0.6,0-1,0.4-1.3,1.1c-0.4,1-0.5,1.9-0.5,2.9C86.4,58.9,86.7,59.4,87.3,59.4z"/>
		<path class="st6" d="M92.1,60.7l0.1-0.5l0.3-1.6l0.5-3.3c0.1-0.6,0.1-1,0.1-1.4L93.2,53h2.4l0.1,0.4l0,0.4c0.5-0.7,1.1-1,1.9-1
			h0.2l-0.3,1.8L97,54.5c-1,0-1.6,0.6-1.8,1.9l-0.3,2.1c-0.1,0.3-0.1,0.7-0.2,1.1c-0.1,0.4-0.1,0.8-0.1,1H92.1z"/>
		<path class="st6" d="M104.1,56l-4.6,1.7c0,0.5,0.2,1,0.5,1.4c0.3,0.3,0.7,0.5,1.1,0.5c0.6,0,1.3-0.3,1.9-0.9l0.6,0.9
			c-0.1,0.1-0.2,0.2-0.3,0.3c-0.1,0.1-0.2,0.2-0.3,0.2c-0.8,0.5-1.8,0.8-2.8,0.8c-2.1,0-3.1-1.1-3.1-3.4c0-1.3,0.4-2.4,1.2-3.3
			c0.8-0.9,1.8-1.4,3-1.4c0.8,0,1.5,0.2,2,0.7s0.7,1.1,0.7,2L104.1,56z M101.1,54c-0.4,0-0.8,0.2-1.1,0.7c-0.2,0.3-0.3,0.6-0.4,0.9
			c-0.1,0.3-0.1,0.7-0.1,1l2-0.8c0.3-0.1,0.5-0.4,0.5-0.8c0-0.3-0.1-0.6-0.2-0.8C101.6,54.1,101.4,54,101.1,54z"/>
		<path class="st6" d="M108.9,53h2.6l0.2,2.3l0.3,2.8l2-5.1h1.9l0.3,5.1l1.2-2.6l1-2.5h1.7c-0.6,1.5-1.1,2.7-1.6,3.6
			c-0.6,1.3-1.3,2.7-2.1,4h-1.9l-0.5-4.4l-1.9,4.4l-1.9,0c-0.4-1.7-0.7-3.1-0.8-4S109.1,54.5,108.9,53z"/>
		<path class="st6" d="M119.2,60.7c0.1-0.5,0.3-1.2,0.5-2.1l0-0.1l1-6.5c0.1-0.6,0.2-1.1,0.2-1.4c0-0.3,0-0.5,0-0.8h2.4l-0.6,3.9
			c0.7-0.6,1.5-0.9,2.3-0.9c0.6,0,1.1,0.2,1.4,0.5c0.4,0.3,0.5,0.7,0.5,1.2l0,0.6l-0.5,3.4c-0.1,0.3-0.1,0.7-0.1,1s-0.1,0.7-0.1,0.9
			l0,0.2h-2.5l0.1-0.5l0.2-0.9l0.2-0.7l0.5-3.2l0-0.3c0-0.2-0.1-0.4-0.2-0.5c-0.2-0.1-0.4-0.2-0.6-0.2c-0.4,0-0.9,0.2-1.3,0.6
			l-0.6,3.7c-0.1,0.5-0.1,0.9-0.2,1.2c0,0.3-0.1,0.6-0.1,0.9H119.2z"/>
		<path class="st6" d="M126,63.6l0.3-1.7c0.4,0.2,0.7,0.3,1,0.3c0.4,0,0.8-0.2,1.2-0.5c0.4-0.3,0.5-0.7,0.5-1.2c0-0.1,0-0.2,0-0.3
			c0-0.1-0.1-0.3-0.1-0.6c-0.3-1.1-0.5-2.1-0.6-2.9c-0.2-1-0.3-2.2-0.5-3.7h2.5l0.2,2.5c0,0.4,0.1,0.7,0.1,1.1
			c0.1,0.4,0.1,0.9,0.3,1.6c0.2-0.5,0.5-1,0.7-1.6c0.2-0.4,0.4-0.8,0.5-1.2L133,53h1.7c-0.6,1.5-1.1,2.8-1.5,3.7
			c-0.6,1.3-1.1,2.3-1.7,3.2c-0.5,0.9-1.1,1.7-1.7,2.4c-0.8,0.9-1.7,1.4-2.8,1.4C126.6,63.8,126.3,63.7,126,63.6z"/>
		<path class="st6" d="M138.4,53h2.6l0.2,2.3l0.3,2.8l2-5.1h1.9l0.3,5.1l1.2-2.6l1-2.5h1.7c-0.6,1.5-1.1,2.7-1.6,3.6
			c-0.6,1.3-1.3,2.7-2.1,4H144l-0.5-4.4l-1.9,4.4l-1.9,0c-0.4-1.7-0.7-3.1-0.8-4C138.8,55.7,138.6,54.5,138.4,53z"/>
		<path class="st6" d="M155.8,56l-4.6,1.7c0,0.5,0.2,1,0.5,1.4c0.3,0.3,0.7,0.5,1.1,0.5c0.6,0,1.3-0.3,1.9-0.9l0.6,0.9
			c-0.1,0.1-0.2,0.2-0.3,0.3c-0.1,0.1-0.2,0.2-0.3,0.2c-0.8,0.5-1.8,0.8-2.8,0.8c-2.1,0-3.1-1.1-3.1-3.4c0-1.3,0.4-2.4,1.2-3.3
			c0.8-0.9,1.8-1.4,3-1.4c0.8,0,1.5,0.2,2,0.7s0.7,1.1,0.7,2L155.8,56z M152.9,54c-0.4,0-0.8,0.2-1.1,0.7c-0.2,0.3-0.3,0.6-0.4,0.9
			c-0.1,0.3-0.1,0.7-0.1,1l2-0.8c0.3-0.1,0.5-0.4,0.5-0.8c0-0.3-0.1-0.6-0.2-0.8C153.3,54.1,153.1,54,152.9,54z"/>
		<path class="st6" d="M160.5,54.1l0.2-1.1h1.2l0.1-0.5c0.1-0.9,0.5-1.6,1.2-2.1c0.7-0.5,1.5-0.8,2.5-0.8c0.5,0,0.9,0.1,1.3,0.2
			l-0.3,1.7c-0.4-0.4-0.8-0.6-1.2-0.6c-0.4,0-0.7,0.1-1,0.4c-0.3,0.3-0.4,0.6-0.4,0.9c0,0.3,0,0.5,0.1,0.8h1.7l-0.2,1.1H164
			l-0.7,4.4l-0.1,0.7l-0.2,1.4h-2.5l0.1-0.2l0.4-1.9l0.7-4.4H160.5z"/>
		<path class="st6" d="M164.9,60.7l0.1-0.3l0.2-1.2l0.2-0.8l1-6.5c0-0.2,0-0.3,0-0.3c0,0,0-0.2,0.1-0.4l0.1-1.4h2.4l-1.4,8.7
			l-0.1,0.7l-0.1,1.1l0,0.3H164.9z"/>
		<path class="st6" d="M167.2,63.6l0.3-1.7c0.4,0.2,0.7,0.3,1,0.3c0.4,0,0.8-0.2,1.2-0.5c0.4-0.3,0.5-0.7,0.5-1.2c0-0.1,0-0.2,0-0.3
			c0-0.1-0.1-0.3-0.1-0.6c-0.3-1.1-0.5-2.1-0.6-2.9c-0.2-1-0.3-2.2-0.5-3.7h2.5l0.2,2.5c0,0.4,0.1,0.7,0.1,1.1
			c0.1,0.4,0.1,0.9,0.3,1.6c0.2-0.5,0.5-1,0.7-1.6c0.2-0.4,0.4-0.8,0.5-1.2l0.9-2.4h1.7c-0.6,1.5-1.1,2.8-1.5,3.7
			c-0.6,1.3-1.1,2.3-1.7,3.2c-0.5,0.9-1.1,1.7-1.7,2.4c-0.8,0.9-1.7,1.4-2.8,1.4C167.8,63.8,167.5,63.7,167.2,63.6z"/>
	</g>
	<path class="st4" d="M260.1,19.6c0.8,0.1,1.6,0.3,2.4,0.3c0.9,0.1,1.7-0.1,2.4-0.1c-1-0.2-3-0.9-6.3-0.5
		C258.8,19.3,260.1,19.6,260.1,19.6z"/>
</g>
</svg>
