<?xml version="1.0" encoding="utf-8"?>
<!-- Generator: Adobe Illustrator 25.4.1, SVG Export Plug-In . SVG Version: 6.00 Build 0)  -->
<svg version="1.1" id="Layer_4" xmlns="http://www.w3.org/2000/svg" xmlns:xlink="http://www.w3.org/1999/xlink" x="0px" y="0px"
	 viewBox="0 0 77.27 80.27" style="enable-background:new 0 0 77.27 80.27;" xml:space="preserve">
<style type="text/css">
	.st0{fill:#740054;}
	.st1{fill:#F58220;}
	.st2{fill:#004A2A;}
	.st3{fill:#D83A4E;}
	.st4{fill:#FFFFFF;}
	.st5{fill:#B99765;}
</style>
<g>
	<path class="st0" d="M27.55,80C12.36,80,0,67.16,0,51.37c0-6.46,2.01-12.54,5.81-17.58l1.24,0.93c-3.6,4.77-5.5,10.53-5.5,16.65
		c0,14.93,11.66,27.08,26,27.08c11.32,0,21.27-7.55,24.76-18.8l1.48,0.46C50.1,72.01,39.56,80,27.55,80z"/>
</g>
<g>
	<path class="st0" d="M33.81,72.68c-4.63,0-8.6-1.48-11.5-4.3c-3.31-3.22-5.14-8.07-5.14-13.66c0-0.64,0.03-1.25,0.09-1.9l1.54,0.15
		c-0.06,0.6-0.08,1.16-0.08,1.75c0,5.17,1.66,9.63,4.67,12.55c2.77,2.69,6.48,3.99,11.05,3.85c7.14,0,13.39-5,15.22-12.17l1.5,0.38
		c-2.01,7.85-8.87,13.33-16.7,13.33C34.24,72.67,34.02,72.68,33.81,72.68z"/>
</g>
<g>
	<path class="st1" d="M14.58,14.39c16.71-2.57,17.05,1.42,17.05,1.42s-1.07,7.52-1.07,7.61v-0.49c0,0-0.45,0.68-1.1,0.34
		C26.09,21.63,13.08,14.62,14.58,14.39"/>
</g>
<g>
	<path class="st2" d="M29.69,23.33c0,0-0.24-0.09-0.21-0.4c1.01-8.42-4.61-4.21-4.94-4.49c-0.62,0-1.13-0.53-1.13-1.18v-0.03
		c0,0-2.2-1.9-1.89-3.62c0.01-0.04-0.98-0.58-2.95,0.26c-0.09,0.04-0.39,0.77,0.77,2.25c0.06,0.03-0.68,0.37-0.63,0.77
		c0,0.09,2.39,4.17,7.66,6.49C26.44,23.42,29.69,23.33,29.69,23.33"/>
</g>
<g>
	<path class="st0" d="M26.9,24.17c0.12-0.5,1.7-0.65,2.68-0.65c14.76,0,26.78,12.47,26.78,27.85c0,3.13-0.42,6.78-1.16,10.15
		c-0.06-0.34-9.85-3.53-9.61-4.02c0.24-0.49,8.33-7.18,1.9-21.79C47.31,35.28,35.46,38.03,26.9,24.17"/>
</g>
<g>
	<path class="st3" d="M47.72,77.49c5.74-6.34,8.63-17.33,8.63-26.12c0-14.89-11.69-27.17-25.79-27.95
		c5.06-5.88,13.03-9.78,21.06-9.78c6.87,0,12.71,3.65,17.52,8.08c-7.91-2.72-14.19-3.19-19.49-2.75c15.17,0,27.61,13.12,27.61,29.28
		c0,16.16-12.35,29.28-27.52,29.28C49.27,77.52,48.2,77.52,47.72,77.49"/>
</g>
<g>
	<path class="st0" d="M49.95,0C30.7,2.26,30.35,23.24,30.56,23.06c9.07-8.73,19.49-9.87,19.49-9.5C50.04,13.9,51.69,7.8,49.95,0"/>
</g>
<g>
	<path class="st4" d="M23.41,17.41c0-0.57,0.45-1.03,0.99-1.03c0.55,0,0.99,0.46,0.99,1.03c0,0.57-0.45,1.03-0.99,1.03
		C23.86,18.44,23.41,17.98,23.41,17.41"/>
</g>
<g>
	<path class="st4" d="M24.41,18.59c-0.63,0-1.14-0.53-1.14-1.18s0.51-1.18,1.14-1.18c0.63,0,1.14,0.53,1.14,1.18
		S25.04,18.59,24.41,18.59z M24.41,16.52c-0.47,0-0.85,0.4-0.85,0.89c0,0.49,0.38,0.89,0.85,0.89c0.47,0,0.84-0.4,0.84-0.89
		C25.25,16.92,24.87,16.52,24.41,16.52z"/>
</g>
<g>
	<path class="st5" d="M71.22,22.53c-4.7-4.69-12.18-9.66-19.26-9.66c-8.41,0-16.52,3.83-21.71,10.24l0.75,0.65
		c5-6.19,12.83-9.88,20.96-9.88c6.06,0,12.49,3.86,17.05,7.93L71.22,22.53z"/>
</g>
<g>
	<path class="st5" d="M55.86,51.37c0,8.1-2.66,19.22-8.61,25.79l-0.32,0.31l1.28,0.1c5.95-6.81,8.63-18.01,8.63-26.2
		c0-7.57-2.84-14.68-7.99-20.04c-5.15-5.36-12-8.31-19.27-8.31c-0.9,0-2.63,0.06-3.63,0.2l0.02,0.18l0.04,0l0.85,0.74
		c0.86-0.07,1.96-0.11,2.72-0.11c7.01,0,13.61,2.85,18.59,8.02C53.13,37.21,55.86,44.08,55.86,51.37"/>
</g>
</svg>
