<?xml version="1.0" encoding="utf-8"?>
<!-- Generator: Adobe Illustrator 25.4.1, SVG Export Plug-In . SVG Version: 6.00 Build 0)  -->
<svg version="1.1" id="Layer_4" xmlns="http://www.w3.org/2000/svg" xmlns:xlink="http://www.w3.org/1999/xlink" x="0px" y="0px"
	 viewBox="0 0 348.79 80.27" style="enable-background:new 0 0 348.79 80.27;" xml:space="preserve">
<style type="text/css">
	.st0{fill:#740054;}
	.st1{fill:#F58220;}
	.st2{fill:#004A2A;}
	.st3{fill:#D83A4E;}
	.st4{fill:#FFFFFF;}
	.st5{fill:#B99765;}
</style>
<g>
	<g>
		<path class="st0" d="M27.55,80C12.36,80,0,67.16,0,51.37c0-6.46,2.01-12.54,5.81-17.58l1.24,0.93c-3.6,4.77-5.5,10.53-5.5,16.65
			c0,14.93,11.66,27.08,26,27.08c11.32,0,21.27-7.55,24.76-18.8l1.48,0.46C50.1,72.01,39.56,80,27.55,80z"/>
	</g>
	<g>
		<path class="st0" d="M33.81,72.68c-4.63,0-8.6-1.48-11.5-4.3c-3.31-3.22-5.14-8.07-5.14-13.66c0-0.64,0.03-1.25,0.09-1.9
			l1.54,0.15c-0.06,0.6-0.08,1.16-0.08,1.75c0,5.17,1.66,9.63,4.67,12.55c2.77,2.69,6.48,3.99,11.05,3.85
			c7.14,0,13.39-5,15.22-12.17l1.5,0.38c-2.01,7.85-8.87,13.33-16.7,13.33C34.24,72.67,34.02,72.68,33.81,72.68z"/>
	</g>
	<g>
		<path class="st1" d="M14.58,14.39c16.71-2.57,17.05,1.42,17.05,1.42s-1.07,7.52-1.07,7.61v-0.49c0,0-0.45,0.68-1.1,0.34
			C26.09,21.63,13.08,14.62,14.58,14.39"/>
	</g>
	<g>
		<path class="st2" d="M29.69,23.33c0,0-0.24-0.09-0.21-0.4c1.01-8.42-4.61-4.21-4.94-4.49c-0.62,0-1.13-0.53-1.13-1.18v-0.03
			c0,0-2.2-1.9-1.89-3.62c0.01-0.04-0.98-0.58-2.95,0.26c-0.09,0.04-0.39,0.77,0.77,2.25c0.06,0.03-0.68,0.37-0.63,0.77
			c0,0.09,2.39,4.17,7.66,6.49C26.44,23.42,29.69,23.33,29.69,23.33"/>
	</g>
	<g>
		<path class="st0" d="M26.9,24.17c0.12-0.5,1.7-0.65,2.68-0.65c14.76,0,26.78,12.47,26.78,27.85c0,3.13-0.42,6.78-1.16,10.15
			c-0.06-0.34-9.85-3.53-9.61-4.02c0.24-0.49,8.33-7.18,1.9-21.79C47.31,35.28,35.46,38.03,26.9,24.17"/>
	</g>
	<g>
		<path class="st3" d="M47.72,77.49c5.74-6.34,8.63-17.33,8.63-26.12c0-14.89-11.69-27.17-25.79-27.95
			c5.06-5.88,13.03-9.78,21.06-9.78c6.87,0,12.71,3.65,17.52,8.08c-7.91-2.72-14.19-3.19-19.49-2.75
			c15.17,0,27.61,13.12,27.61,29.28c0,16.16-12.35,29.28-27.52,29.28C49.27,77.52,48.2,77.52,47.72,77.49"/>
	</g>
	<g>
		<path class="st0" d="M49.95,0C30.7,2.26,30.35,23.24,30.56,23.06c9.07-8.73,19.49-9.87,19.49-9.5C50.04,13.9,51.69,7.8,49.95,0"/>
	</g>
	<g>
		<path class="st4" d="M23.41,17.41c0-0.57,0.45-1.03,0.99-1.03c0.55,0,0.99,0.46,0.99,1.03c0,0.57-0.45,1.03-0.99,1.03
			C23.86,18.44,23.41,17.98,23.41,17.41"/>
	</g>
	<g>
		<path class="st4" d="M24.41,18.59c-0.63,0-1.14-0.53-1.14-1.18s0.51-1.18,1.14-1.18c0.63,0,1.14,0.53,1.14,1.18
			S25.04,18.59,24.41,18.59z M24.41,16.52c-0.47,0-0.85,0.4-0.85,0.89c0,0.49,0.38,0.89,0.85,0.89c0.47,0,0.84-0.4,0.84-0.89
			C25.25,16.92,24.87,16.52,24.41,16.52z"/>
	</g>
	<g>
		<path class="st5" d="M71.22,22.53c-4.7-4.69-12.18-9.66-19.26-9.66c-8.41,0-16.52,3.83-21.71,10.24l0.75,0.65
			c5-6.19,12.83-9.88,20.96-9.88c6.06,0,12.49,3.86,17.05,7.93L71.22,22.53z"/>
	</g>
	<g>
		<path class="st5" d="M55.86,51.37c0,8.1-2.66,19.22-8.61,25.79l-0.32,0.31l1.28,0.1c5.95-6.81,8.63-18.01,8.63-26.2
			c0-7.57-2.84-14.68-7.99-20.04c-5.15-5.36-12-8.31-19.27-8.31c-0.9,0-2.63,0.06-3.63,0.2l0.02,0.18l0.04,0l0.85,0.74
			c0.86-0.07,1.96-0.11,2.72-0.11c7.01,0,13.61,2.85,18.59,8.02C53.13,37.21,55.86,44.08,55.86,51.37"/>
	</g>
	<g>
		<path class="st0" d="M97.13,63.56c6.86-11.53,13.17-23.54,19.57-35.44h12.55c2.94,11.64,6.73,23.7,10.21,35.44h-11.11l-2.54-10.2
			h-12.25l-4.98,10.2H97.13z M124.59,45.92l-2.54-10.15h-0.1l-5.13,10.15H124.59z"/>
	</g>
	<g>
		<path class="st0" d="M139.59,63.65h-11.3l-0.02-0.07l-2.52-10.13h-12.12l-4.98,10.2H96.97l0.08-0.14
			c5.83-9.8,11.36-20.11,16.7-30.08c0.96-1.78,1.91-3.57,2.87-5.35l0.03-0.05h12.68l0.02,0.07c2.25,8.91,5.04,18.18,7.73,27.15
			c0.82,2.72,1.66,5.54,2.48,8.28L139.59,63.65z M128.43,63.47h10.91c-0.8-2.71-1.64-5.48-2.44-8.17
			c-2.69-8.94-5.47-18.19-7.71-27.09h-12.42c-0.95,1.77-1.9,3.53-2.85,5.3c-5.32,9.92-10.82,20.19-16.62,29.95h11.23l4.98-10.2
			h12.38l0.02,0.07L128.43,63.47z M124.71,46.02h-8.04l0.07-0.13l5.15-10.2h0.23l0.02,0.07L124.71,46.02z M116.97,45.83h7.5
			l-2.49-9.93L116.97,45.83z"/>
	</g>
	<g>
		<path class="st0" d="M142.98,37.05h9.46l-2.72,26.51h-9.46L142.98,37.05z M143.96,27.49h9.46l-0.64,6.27h-9.46L143.96,27.49z"/>
	</g>
	<g>
		<path class="st0" d="M165.59,39.92l0.09,0.11c1.71-2.13,3.61-3.61,6.4-3.61c0.65,0,1.39,0.05,2.01,0.26l-0.18,8.55
			c-0.87-0.27-1.74-0.53-2.58-0.53c-2.99,0-6.02,1.86-6.53,6.85l-1.23,12.01h-9.46l2.72-26.51h9.06L165.59,39.92z"/>
	</g>
	<g>
		<path class="st0" d="M163.65,63.65H154l0.01-0.1l2.73-26.6h9.25l-0.3,2.91c2.03-2.49,3.94-3.55,6.39-3.55
			c0.84,0,1.51,0.09,2.04,0.27l0.06,0.02l0,0.07L174,45.35l-0.12-0.04c-0.85-0.26-1.73-0.53-2.56-0.53c-3.6,0-6,2.53-6.44,6.77
			L163.65,63.65z M154.2,63.47h9.28l1.22-11.93c0.66-6.44,5.24-6.94,6.62-6.94c0.82,0,1.67,0.25,2.5,0.5l0.18-8.36
			c-0.5-0.16-1.13-0.24-1.92-0.24c-2.42,0-4.31,1.07-6.32,3.58l-0.07,0.09l-0.19-0.22l0.29-2.81h-8.88L154.2,63.47z"/>
	</g>
	<g>
		<polygon class="st0" points="192.54,28.13 204.89,28.13 215.28,51.18 215.38,51.18 217.74,28.13 226.91,28.13 223.27,63.56 
			211.07,63.56 200.49,40.93 200.39,40.93 198.07,63.56 188.9,63.56 		"/>
	</g>
	<g>
		<path class="st0" d="M230.77,37.05h9.46l-2.72,26.51h-9.46L230.77,37.05z M231.75,27.49h9.46l-0.64,6.27h-9.46L231.75,27.49z"/>
	</g>
	<g>
		<path class="st0" d="M259.83,60.11l-0.11,0.1c-2.15,3.03-5.09,3.99-8.87,3.99c-5.98,0-9.07-2.87-8.53-8.08l1.96-19.07h9.46
			l-1.46,14.18c-0.27,2.6,0.66,4.67,3.4,4.67c2.54,0,4.8-2.12,5.36-7.54l1.16-11.32h9.46l-2.72,26.51h-9.46L259.83,60.11z"/>
	</g>
	<g>
		<path class="st0" d="M274.82,66.85c3.07,1.17,6.31,2.07,10.25,2.07c5.38,0,5.72-3.29,6.27-8.71c-2.69,2.44-5.3,3.61-8.64,3.61
			c-6.43,0-10.37-5.2-9.61-12.7c1.03-9.99,8.09-14.71,17.9-14.71c4.08,0,8.1,0.64,12.1,1.43l-2.97,28.9
			c-0.45,4.36-2.81,9.4-12.82,9.4c-4.24,0-8.45-0.64-12.53-1.7L274.82,66.85z M292.96,44.44c-1.02-0.27-1.9-0.43-2.79-0.43
			c-4.29,0-7.16,2.82-7.59,7.01c-0.32,3.08,1.12,5.58,3.86,5.58c2.89,0,5.48-2.02,6.1-8.02L292.96,44.44z"/>
	</g>
	<g>
		<path class="st0" d="M307.56,37.05h9.46l-2.72,26.51h-9.46L307.56,37.05z M308.54,27.49H318l-0.64,6.27h-9.46L308.54,27.49z"/>
	</g>
	<g>
		<path class="st0" d="M329.62,40.87l0.09,0.11c3.24-3.4,6.55-4.57,10.28-4.57c5.38,0,9.42,2.39,8.72,9.19l-1.84,17.96h-9.46
			l1.45-14.13c0.24-2.34-0.51-4.73-3.5-4.73c-2.54,0-5.82,1.86-6.62,9.62l-0.95,9.24h-9.46l2.72-26.51h8.96L329.62,40.87z"/>
	</g>
</g>
</svg>
