<?xml version="1.0" encoding="utf-8"?>
<!-- Generator: Adobe Illustrator 25.4.1, SVG Export Plug-In . SVG Version: 6.00 Build 0)  -->
<svg version="1.1" id="Layer_1" xmlns="http://www.w3.org/2000/svg" xmlns:xlink="http://www.w3.org/1999/xlink" x="0px" y="0px"
	 viewBox="0 0 143.4 80" style="enable-background:new 0 0 143.4 80;" xml:space="preserve">
<style type="text/css">
	.st0{fill:#CC181B;}
</style>
<path class="st0" d="M142.9,2c1.8-0.9-2.5-1-4.5-1.5c-13.6-4.3-26.3,26-40.9,30.5c-4.2,1-15.4-5.3,1.5-17c1.5-1,0.9-2.5-1.1-1.7
	C71.2,20.1,19.6-1.6,0,0.6C37.2,21,104.7,44.9,61.9,54.3C74,56.3,78.4,55,78.4,55C67.7,63.7,43,73.3,28.1,78.6
	c-1.5,0.5-4.2,1.8,0.3,1.2C122.7,57.6,100.8,21,142.9,2z"/>
</svg>
