<?xml version="1.0" encoding="utf-8"?>
<!-- Generator: Adobe Illustrator 25.4.1, SVG Export Plug-In . SVG Version: 6.00 Build 0)  -->
<svg version="1.1" id="Layer_1" xmlns="http://www.w3.org/2000/svg" xmlns:xlink="http://www.w3.org/1999/xlink" x="0px" y="0px"
	 viewBox="0 0 572.4 80" style="enable-background:new 0 0 572.4 80;" xml:space="preserve">
<style type="text/css">
	.st0{fill:#CC181B;}
</style>
<g>
	<path class="st0" d="M156.4,20.2c-0.2,0-0.3,0.1-0.4,0.1c0,0,0,0,0,0c-16.2,0.7-17.8,10.2-18.3,17.3c-0.4,7.1-4.9,10.8-11,11.8
		c-0.3,0-0.4,0.2-0.7,0.2c-1.7,0.2-3,1.5-3,3.2c0,1.4,1,2.6,2.3,3.1c0.1,0,0.2,0.1,0.4,0.1c0.2,0.1,0.5,0.1,0.7,0.1
		c0.2,0,0.4-0.1,0.6-0.1c3.1,0.1,16.9-1.7,17.5-18.4c0-3.4,0.9-11.1,11.4-10.9c0.2,0,0.3,0,0.4,0c0,0,0,0,0.1,0c0,0,0.1,0,0.1,0
		c0.4,0,0.8-0.1,1.1-0.2c1.2-0.5,2.1-1.6,2.1-3C159.7,21.7,158.2,20.2,156.4,20.2z"/>
	<path class="st0" d="M227.4,50.7l-1.8-1.5l0,0l-7.5-6.2c0,0,9.7-2,9.2-11.6c0-10.8-11-11.5-11-11.5h-17.5c-2.2,0-2.9,2.1-2.9,2.1
		v30.7h0c0,1.8,1.6,3.2,3.5,3.2s3.4-1.4,3.5-3.2h0v-26h13.4c4.1,0.8,4.1,4.7,4.1,4.7s0.3,4.5-4.1,5.1h-6.9c-0.3-0.1-0.5-0.1-0.8-0.1
		c-2.1,0-3.7,1.5-3.7,3.3c0,0.9,0.5,1.8,1.2,2.4l0,0.1l11.1,9l0,0l5.1,4.2c0,0,0,0,0,0l0.8,0.6l0.1-0.1c0.5,0.2,1,0.4,1.6,0.4
		c1.9,0,3.4-1.5,3.4-3.3C228.2,52.1,227.8,51.4,227.4,50.7L227.4,50.7z"/>
	<path class="st0" d="M192.9,23.6c0-1.9-1.6-3.5-3.5-3.5c-1.9,0-3.5,1.6-3.5,3.5h0v17.1c0,8.7-8.6,8.7-8.6,8.7s-8.9,0-8.9-8.7V23.6
		h0c0-1.9-1.6-3.5-3.5-3.5c-1.9,0-3.5,1.6-3.5,3.5c0,0,0,0,0,0c0,0.1-0.2,16.2,0,17.1c0,16,16,16,16,16s15.6,0.1,15.6-16
		C192.8,24.7,192.9,23.6,192.9,23.6L192.9,23.6z"/>
	<path class="st0" d="M271.8,35.7c0-16-16-16-16-16s-15.6-0.1-15.6,16c0.2,16,0,17.1,0,17.1h0.1c0,1.9,1.6,3.5,3.5,3.5
		c1.9,0,3.5-1.6,3.5-3.5h0V35.7c0-8.7,8.6-8.7,8.6-8.7s8.9,0,8.9,8.7v17.1h0c0,1.9,1.6,3.5,3.5,3.5c1.9,0,3.5-1.6,3.5-3.5
		c0,0,0,0,0,0C271.8,52.7,272,36.5,271.8,35.7z"/>
	<path class="st0" d="M237.3,23.6v-0.1l0,0c-0.1-1.8-1.6-3.3-3.4-3.3c-1.9,0-3.4,1.5-3.4,3.3l0,0v0.1c0,0,0,0,0,0s0,0,0,0v29.2
		c0,0,0,0,0,0c0,0,0,0,0,0v0.5h0.1c0.2,1.7,1.6,3,3.4,3c1.7,0,3.1-1.3,3.4-3h0.1V23.8C237.3,23.7,237.3,23.7,237.3,23.6
		C237.3,23.7,237.3,23.6,237.3,23.6z"/>
	<path class="st0" d="M290.6,19.7c0,0-15.6-0.1-15.6,16c0.2,16,0,17.1,0,17.1h0.1c0,1.9,1.6,3.5,3.5,3.5c1.9,0,3.5-1.6,3.5-3.5h0
		V35.7c0-8.7,8.6-8.7,8.6-8.7s8.9,0,8.9,8.7v3.4h-11.7v0.1c-1.8,0.1-3.2,1.6-3.2,3.4c0,1.8,1.4,3.3,3.2,3.4V46h11.7v6.7h0
		c0,1.9,1.6,3.5,3.5,3.5c1.9,0,3.5-1.6,3.5-3.5h0c0,0,0.2-16.2,0-17.1C306.6,19.7,290.6,19.7,290.6,19.7z"/>
	<path class="st0" d="M335.4,19.9c0,0-4.2,0-7.4,2.7c-3.2-2.7-7.6-2.7-7.6-2.7s-10.8,0-10.8,11v18.9h0V53h0.1
		c0.2,1.8,1.6,3.2,3.5,3.2c1.8,0,3.3-1.4,3.5-3.2h0.1v-0.3c0,0,0,0,0,0s0,0,0,0v-1h0V31c0-3.9,3.7-3.9,3.7-3.9s4.1-0.1,4.1,3.9v19.9
		h0V53h0.1c0.1,1.8,1.6,3.3,3.5,3.3s3.4-1.5,3.5-3.3h0.1v-1.2h0V31c0-3.9,3.7-3.9,3.7-3.9s4.1-0.1,4.1,3.9v19h0v2.8c0,0,0,0,0,0
		c0,1.9,1.5,3.5,3.4,3.5c1.9,0,3.4-1.6,3.4-3.5h0v-1.1h0V30.9C346.4,19.9,335.4,19.9,335.4,19.9z"/>
	<path class="st0" d="M377.8,19.4c0,0-15.6-0.1-15.6,16c0.2,16,0,17.1,0,17.1h0.1c0,1.9,1.6,3.5,3.5,3.5c1.9,0,3.5-1.6,3.5-3.5h0
		V35.4c0-8.7,8.6-8.7,8.6-8.7s8.9,0,8.9,8.7v3.4H375v0.1c-1.8,0.1-3.2,1.6-3.2,3.4c0,1.8,1.4,3.3,3.2,3.4v0.1h11.7v6.7h0
		c0,1.9,1.6,3.5,3.5,3.5c1.9,0,3.5-1.6,3.5-3.5h0c0,0,0.2-16.2,0-17.1C393.8,19.4,377.8,19.4,377.8,19.4z"/>
	<path class="st0" d="M438.9,50.7l-1.8-1.5l0,0l-7.5-6.2c0,0,9.7-2,9.2-11.6c0-10.8-11-11.5-11-11.5h-17.5c-2.2,0-2.9,2.1-2.9,2.1
		v30.7h0c0,1.8,1.6,3.2,3.5,3.2c1.9,0,3.4-1.4,3.5-3.2h0v-26h13.4c4.1,0.8,4.1,4.7,4.1,4.7s0.3,4.5-4.1,5.1H421
		c-0.3-0.1-0.5-0.1-0.8-0.1c-2.1,0-3.7,1.5-3.7,3.3c0,0.9,0.5,1.8,1.2,2.4l0,0.1l11.1,9l0,0l5.1,4.2c0,0,0,0,0,0l0.8,0.6l0.1-0.1
		c0.5,0.2,1,0.4,1.6,0.4c1.9,0,3.4-1.5,3.4-3.3C439.7,52.1,439.4,51.4,438.9,50.7L438.9,50.7z"/>
	<path class="st0" d="M403.4,23.4c0,0,0-0.1,0-0.1v-0.1l0,0c-0.1-1.8-1.6-3.3-3.4-3.3c-1.9,0-3.4,1.5-3.4,3.3l0,0v29.8h0.1
		c0.2,1.7,1.6,3,3.4,3c1.7,0,3.1-1.3,3.3-3h0.1v-0.5c0,0,0,0,0,0c0,0,0,0,0,0V23.5C403.4,23.5,403.4,23.4,403.4,23.4z"/>
	<path class="st0" d="M474.8,19.6c-1.8,0-3.3,1.4-3.5,3.2h-0.1v1.3h0v20.8c0,3.9-3.7,3.9-3.7,3.9s-4.1,0.1-4.1-3.9V24.1h0v-1.2h-0.1
		c-0.1-1.8-1.6-3.3-3.5-3.3c-1.9,0-3.4,1.4-3.5,3.3h-0.1v1.2h0v20.8c0,3.9-3.7,3.9-3.7,3.9s-4.1,0.1-4.1-3.9v-19h0v-2.8h0
		c0-1.9-1.5-3.4-3.4-3.4c-1.9,0-3.5,1.5-3.5,3.4h0v1.1h0V45c0,11,11,11,11,11s4.2,0,7.4-2.7c3.2,2.7,7.6,2.7,7.6,2.7
		s10.8,0,10.8-11.1V26h0v-3.1h-0.1C478.1,21.1,476.7,19.6,474.8,19.6z"/>
	<path class="st0" d="M497.1,19.4c0,0-15.6-0.1-15.6,16c0.2,16,0,17.1,0,17.1h0.1c0,1.9,1.6,3.5,3.5,3.5c1.9,0,3.5-1.6,3.5-3.5h0
		V35.4c0-8.7,8.6-8.7,8.6-8.7s8.9,0,8.9,8.7v3.4h-11.7v0.1c-1.8,0.1-3.2,1.6-3.2,3.4c0,1.8,1.4,3.3,3.2,3.4v0.1H506v6.7h0
		c0,1.9,1.6,3.5,3.5,3.5s3.5-1.6,3.5-3.5h0c0,0,0.2-16.2,0-17.1C513,19.4,497.1,19.4,497.1,19.4z"/>
	<path class="st0" d="M543.3,19.3c-1.9,0-3.5,1.6-3.5,3.5c0,0,0,0,0,0h0v2.6h0c-0.7,9-8.6,9.1-8.6,9.1s-8.9,0-8.9-10.2h0v-1.4h0
		c0,0,0,0,0,0c0-1.9-1.6-3.5-3.6-3.5c-2,0-3.6,1.6-3.6,3.5c0,0,0,0,0,0v2.5h0.1c0.5,11.3,7.9,14.9,12.5,16v11.2c0,0,0,0,0,0
		c0,0,0,0,0,0v0.2h0c0.1,1.8,1.6,3.2,3.4,3.2c1.8,0,3.3-1.4,3.4-3.2h0.1V41.4c4.4-1.1,11.6-4.6,12.1-15.9h0.1v-1.2c0,0,0,0,0,0h0
		v-1.4h0c0,0,0,0,0,0C546.8,20.9,545.2,19.3,543.3,19.3z"/>
	<path class="st0" d="M559.8,30.5c-2.1-0.2-2-2.5-2-2.5s0-2.1,2-2.1c1.2,0,1.9,0.3,2.2,0.8l0,0.1c0.2,0.7,0.5,1.3,1.1,1.7l0.1,0.1
		c0.5,0.4,1.2,0.6,1.9,0.6c1.8,0,3.2-1.4,3.3-3.2c0,0,0,0,0,0c0,0,0,0,0,0c0,0,0,0,0,0c0-0.5-0.1-1-0.3-1.4
		c-1.5-5.7-8.4-5.8-8.4-5.8s-9.6,0-9.6,9.4c0,6.5,4.4,9.1,9.6,9.7c6.3,0.7,5.4,6.1,5.4,6.1s0,5.3-5.4,5.3s-5.6-5.3-5.6-5.3l0,0
		c0,0,0,0,0-0.1c0-2.1-1.6-3.7-3.6-3.7c-2,0-3.6,1.7-3.6,3.7c0,0.1,0,0.1,0,0.2l0,0c0,0,0,12.3,12.9,12.3
		c12.9,0,12.5-12.4,12.5-12.4S573.9,32.9,559.8,30.5z"/>
	<path class="st0" d="M142.9,2c1.8-0.9-2.5-1-4.5-1.5c-13.6-4.3-26.3,26-40.9,30.5c-4.2,1-15.4-5.3,1.5-17c1.5-1,0.9-2.5-1.1-1.7
		C71.2,20.1,19.6-1.6,0,0.6C37.2,21,104.7,44.9,61.9,54.3C74,56.3,78.4,55,78.4,55C67.7,63.7,43,73.3,28.1,78.6
		c-1.5,0.5-4.2,1.8,0.3,1.2C122.7,57.6,100.8,21,142.9,2z"/>
</g>
</svg>
