<?xml version="1.0" encoding="utf-8"?>
<!-- Generator: Adobe Illustrator 25.4.1, SVG Export Plug-In . SVG Version: 6.00 Build 0)  -->
<svg version="1.1" id="Layer_1" xmlns="http://www.w3.org/2000/svg" xmlns:xlink="http://www.w3.org/1999/xlink" x="0px" y="0px"
	 viewBox="0 0 436.73 80" style="enable-background:new 0 0 436.73 80;" xml:space="preserve">
<style type="text/css">
	.st0{fill:#BF1B3C;}
</style>
<g>
	<path class="st0" d="M289.66,28.75c0.15,0.15,0.3,0.31,0.45,0.45c1.04,0.97,2.32,1.71,3.63,1.71c1.57,0,3.22-2.3,3.22-4.18
		c0-5.06-4.13-6.69-6.85-5.38c-0.15,0.07-0.3,0.16-0.45,0.24c-0.17,0.11-0.33,0.25-0.49,0.38c-0.81,0.74-1.36,1.84-1.36,3.31
		c0,0.73,0.53,1.84,1.36,2.9C289.33,28.38,289.5,28.59,289.66,28.75z"/>
	<path class="st0" d="M433.66,60.98c-5.92-1.86-12.06-5.27-13.76-5.98c-6.95-2.9-10.6-5.56-16.1-10.26
		c-13.36-11.4-22.74,2.56-39.24,11.45c-4.22,2.28-6.17,2.87-4.84-2.98c0.96-4.21,2.97-5.36,2.98-10.1c0.04-4.17-4.3-7.04-7.5-4.43
		c-4.24,3.5-14.74,14.82-23.56,20.52c-2.7,1.75-5.21,3.36-6.95-0.64c-1.07-2.47-1.5-4.63-0.01-7.63c1.02-2.09,3.61-4.01,3.61-6.5
		c0-1.24-3.25-4.63-5.58-4.64c-2.17-0.01-3.44,2.19-4.82,2.98c-3.11-2.17-3.84-4.63-8.96-4.67c-0.81-0.01-1.71,0.19-2.69,0.56
		c-5.53,2.16-13.05,9.94-16.14,17.04c-0.17,0.37-0.31,0.74-0.45,1.1c-0.17,0.5-0.34,0.99-0.49,1.48c-0.54,1.95-0.66,3.8-0.21,5.38
		c0.07,0.23,0.13,0.44,0.21,0.65c0.15,0.34,0.32,0.66,0.49,0.96c0.14,0.21,0.28,0.39,0.45,0.58c1.26,1.45,3.5,2.18,7.31,2.21
		c3.98,0.03,6.51-0.53,8.83-1.63c1.53-0.73,2.97-1.71,4.68-2.9c2.34-1.63,3.07-3.35,4.91-0.56c0.71,1.07,1.43,2.42,2.16,3.54
		c5.04,7.99,22.28-6.31,29.24-11.69c2.73-2.1,1.92-0.94,1.9,2.03c-0.02,4.97,2.41,8.22,5.9,10.36c4.05,2.49,7.14,0.82,10.93-1.04
		c7.82-3.82,16.58-11.58,22.9-14.47c5.45-2.47,6.64-1.76,11.4,1.6c7.68,5.37,16.5,11.35,25.57,14.58
		c5.69,2.01,10.17-0.37,10.87-2.97V63.5C436.43,62.49,435.46,61.57,433.66,60.98z M306.26,55.72c-0.83,0.62-1.68,1.19-2.58,1.64
		c-3.88,1.97-5.32,1.02-2.2-2.84c1.32-1.63,2.96-3.62,4.78-5.21c0.18-0.16,0.36-0.31,0.54-0.45
		C316.49,41.12,312.88,50.63,306.26,55.72z"/>
	<path class="st0" d="M239.92,20.98c-0.67,0.12-1.32,0.41-1.87,0.85c-0.21,0.17-0.41,0.36-0.59,0.57c-0.58,0.71-0.95,1.69-0.95,2.88
		c0,0.59,0.36,1.46,0.95,2.34c0.18,0.25,0.37,0.52,0.59,0.77c0.54,0.64,1.17,1.22,1.87,1.69c0.78,0.5,1.65,0.82,2.52,0.82
		c1.57,0,3.22-2.3,3.22-4.18C245.65,22.32,242.52,20.52,239.92,20.98z"/>
	<path class="st0" d="M289.18,46.15c0.19-0.36,0.35-0.72,0.49-1.08c0.18-0.41,0.33-0.81,0.45-1.22c0.28-0.9,0.43-1.8,0.43-2.7
		c0-0.35-0.16-0.64-0.43-0.91c-0.12-0.12-0.27-0.23-0.45-0.35c-0.13-0.11-0.3-0.21-0.49-0.33c-0.36-0.22-0.76-0.47-1.21-0.75
		c-3.06-2.01-4.69-2.22-6.96,0.73c-2.56,3.32-5.79,9.27-7.77,14c-0.21,0.51-0.41,1.01-0.59,1.5c-0.23,0.59-0.44,1.16-0.6,1.67
		c-0.38,1.2-0.6,2.2-0.6,2.87c0,1.11,0.21,2.18,0.6,3.2c0.16,0.45,0.36,0.89,0.6,1.3c0.18,0.34,0.38,0.65,0.59,0.96
		c1.56,2.25,3.91,3.76,6.08,3.76c8.9,0,3.37-5.89,3.37-10.37C282.69,55.02,286.94,50.71,289.18,46.15z"/>
	<path class="st0" d="M272.65,42.83c0.23-0.51,0.41-0.98,0.59-1.45c0.38-1.03,0.6-1.93,0.6-2.66c0-0.91-0.22-1.68-0.6-2.3
		c-0.18-0.28-0.36-0.53-0.59-0.75c-0.19-0.18-0.39-0.33-0.6-0.47c-0.95-0.63-2.21-0.94-3.66-0.94c-3.5,0-4.14,2.69-4.83,5.13
		c-1.68,6.01-7.4,12.19-11.65,15.66c-2.08,1.71-2.25,1.96-0.87-0.52l3.22-5.77c1.68-2.58,4.83-12.1-2.18-11.16l-4.34,1.12
		c-2.55,1.46-1.84,1.53-2.57,4.27c-0.97,3.64-3.31,6.42-5.26,9.4c-0.7,1.06-1.33,2.15-1.87,3.3c-0.22,0.5-0.42,1-0.59,1.53
		c-0.38,1.18-0.59,2.43-0.59,3.81c0,1.06,0.21,2,0.59,2.86c0.17,0.37,0.37,0.73,0.59,1.06c0.5,0.71,1.13,1.35,1.87,1.88
		c1.81,1.31,4.25,2,6.74,2c6.53,0,20.46-15.32,25.4-24.82C272.26,43.6,272.46,43.21,272.65,42.83z"/>
	<path class="st0" d="M229.69,15.37c3.07-4.78,5.98-7.61,7.24-4.16c0.17,0.45,0.34,0.85,0.53,1.18c0.18,0.34,0.39,0.63,0.59,0.88
		c0.6,0.69,1.24,0.96,1.87,0.92c1.97-0.11,3.81-3.27,3.4-6.16c-0.28-2.01-1.54-4.04-3.4-5.42c-0.57-0.41-1.2-0.78-1.87-1.08
		c-0.19-0.07-0.38-0.15-0.59-0.22c-0.86-0.28-1.79-0.46-2.77-0.46c-1.72,0-3.4,0.66-5,1.81c-1.66,1.2-3.24,2.92-4.77,4.99
		c-7.02,9.55-12.46,26.59-16.05,33.53c-2.52-1.72-3.95-4.6-6.74-4.6c-0.61,0-1.28,0.15-2.03,0.45c-0.96,0.38-2.04,1-3.15,1.79
		c-6.52,4.62-14.82,15.17-15.88,19.86c-11.8,4.28-5.82-9.78-3.52-15.77c3.68-9.57,9.99-20.4,16.56-23.77
		c0.64-0.33,1.69-1.06,2.83-1.99c1.04-0.83,2.15-1.84,3.15-2.91c1.75-1.84,3.14-3.83,3.14-5.32c0-5.36-1.2-7.7-3.14-8.02
		c-0.91-0.15-1.96,0.13-3.15,0.76c-8.54,4.59-22.93,27.3-24.45,29.88c-4.05,6.76-14.2,21.33-22.85,26.4
		c-5.53,3.23-7.49-0.82-3.2-7.15c2.69-3.98,6.18-4.75,6.18-6.57c0-5.05-4.7-5.94-7.85-4c-1.23,0.76-1.91,0.78-4.1,2.76
		c-1.54-3.39-5.51-5.76-9.83-5.76c-1.43,0-3.34,0.68-5.43,1.86c-8.14,4.5-19.4,16.1-19.87,21.77c-3.68,0-7.8,0.44-8.84-4.31
		c-1.37-6.35,3.61-17.7,4.39-19.97c1.26-3.61,2.08-6.46-1.43-8.76c-6.49-4.24-16.03,5.56-21.36,9.38c-3.49,2.48-6.37,4.62-7.36,5.39
		c-3.56,2.76-11.97,10.05-18.34,13.72c-5.55,3.2-6.3,2.56-4.09-3.44c2.54-6.92,7.61-14.33,7.61-19.73c0-15.08-13.48-1.99-18.86-0.5
		c3.48-5.1,12.16-19.12,15.86-23.91c2.12-2.76,3.05-6.02,0.56-7.62C52.53,0.33,51.49,0.01,50.54,0h-0.1
		c-2.29,0.04-4.08,1.9-5.9,4.05C33.05,17.55,0,71.23,0,76.9c0,1.43,1.82,2.24,3.69,2.75c4.4,1.22,6.78-0.87,9.12-4.73
		c6.72-11.05,13.57-25.26,25.81-33.23c6.2-4.02,5.65-2.51,3.06,3.62c-1.33,3.12-2.77,5.79-3.68,9.43
		c-3.18,12.67,6.85,17.55,16.78,11.2c8.34-5.32,21.22-16.64,28.94-22.22c5.55-4.03,3.74-1.25,3.14,4.18
		c-0.93,8.54,0.42,17.27,7.53,20.2c6.02,2.49,16.39,0.73,22.43-0.88c3.39-0.93,6.19-2.09,8.6-3.22c2.81-1.29,5.08-2.54,7.09-3.24
		c2.55,9.83,9.53,8.78,15.96,4.48c5.85-3.89,13.22-9.84,15.48-11.4c-0.02,15.61,6.93,17.88,17.98,11.86
		c2.42,1.67,3.72,3.45,7.85,3.45h2.24c1.09,0,2.96-0.67,4.94-1.57c1.06-0.47,2.14-1,3.15-1.53c0.6-0.32,1.18-0.63,1.7-0.93
		c2.94-1.67,3.07-1.34,5.96,0.68c13.19,9.21,7.57-3.22,7.54-8.63c-0.06-7.36,1.61-14.78,4.45-22.11c0.48-1.24,2.56-6.08,5.16-11.19
		C226.42,20.94,228.09,17.89,229.69,15.37z M131.2,47.37c-1.68,1.77-3.67,3.54-5.77,5.04c-1.28,0.92-2.61,1.75-3.94,2.41
		c-4.11,2.09-5.63,1.07-2.32-3c1.69-2.1,3.87-3.95,6.26-5.36c0.9-0.52,1.83-0.97,2.78-1.36C132.92,43.2,135.74,42.59,131.2,47.37z
		 M202.14,48.84c-0.54,1.37-1.23,2.83-2.03,4.27c-0.95,1.71-2.01,3.41-3.15,4.93c-0.45,0.62-0.92,1.21-1.39,1.76
		c-3.03,3.53-5.69,2.73-4.13-2.33c1.05-3.42,3-6.77,5.52-9.35c0.12-0.14,0.25-0.25,0.37-0.38c0.97-0.95,1.93-1.77,2.78-2.32
		C202.46,43.89,203.93,44.29,202.14,48.84z"/>
	<path class="st0" d="M224.93,67.87c0.99,0.6,2.06,0.93,3.08,0.93c0.63,0,1.19-0.03,1.68-0.09c6.47-0.74,1.68-6.12,1.68-10.28
		c0-3.21,3.76-7.22,6.09-11.47c0.21-0.4,0.42-0.78,0.59-1.17c0.72-1.52,1.2-3.07,1.2-4.64c0-0.61-0.48-1.02-1.2-1.48l-0.59-0.36
		c-0.26-0.17-0.53-0.32-0.8-0.49c-3.06-2.01-4.69-2.22-6.97,0.73c-1.48,1.93-3.21,4.76-4.77,7.72c-2.61,4.91-4.78,10.18-4.78,12.33
		C220.15,63.12,222.32,66.35,224.93,67.87z"/>
</g>
</svg>
