<?xml version="1.0" encoding="utf-8"?>
<!-- Generator: Adobe Illustrator 25.4.1, SVG Export Plug-In . SVG Version: 6.00 Build 0)  -->
<svg version="1.1" id="Layer_1" xmlns="http://www.w3.org/2000/svg" xmlns:xlink="http://www.w3.org/1999/xlink" x="0px" y="0px"
	 viewBox="0 0 344.6 80" style="enable-background:new 0 0 344.6 80;" xml:space="preserve">
<style type="text/css">
	.st0{fill:#D62047;}
	.st1{fill:url(#SVGID_1_);}
	.st2{fill:#FF5C00;}
	.st3{fill:#009DD8;}
	.st4{fill:url(#SVGID_00000124131621125882707470000005392435558366386568_);}
	.st5{fill:url(#SVGID_00000018953671288490615940000008970975892147484545_);}
</style>
<g>
	<path class="st0" d="M343,2.5c0,0.1-1,1.2-2.8,1.2C338,3.7,237,3.9,236,3.9l-1.1,0l2.7,22.1h0.1l1.8,15.4h0.2l0.8,7.5h13.2v3.3
		h39.9l0,0c0.1,0,3.3-0.3,6.8-1.6c4.8-1.9,7.8-4.9,8.9-8.8l0.1-0.3h0.3c0,0,0,0,0,0c0.3,0,3.1-0.1,6.2-1.8c3-1.7,7-5.3,9-13l0.1-0.5
		c3-0.1,9.2-1.2,12.8-7.6c4.5-8,6.8-14.8,6.9-15.1l0-0.7c0-0.5-0.5-0.8-0.9-0.6L343,2.5z"/>
	<linearGradient id="SVGID_1_" gradientUnits="userSpaceOnUse" x1="289.83" y1="-10.8695" x2="289.83" y2="35.801">
		<stop  offset="0" style="stop-color:#F7C414"/>
		<stop  offset="1" style="stop-color:#EF7D0E"/>
	</linearGradient>
	<path class="st1" d="M236,4.9l2.4,20.2h85c0,0,9,1,13.5-7.1s6.8-14.9,6.8-14.9s-1.3,1.6-3.5,1.6S236,4.9,236,4.9z"/>
	<path class="st2" d="M238.7,26.4l1.6,14.1h69.3c0,0,10.6,0.2,14.3-14.1H238.7z"/>
	<path class="st3" d="M240.6,41.5l0.7,6.5h13.3v3.3h38.9c0,0,12.5-1,14.8-9.8H240.6z"/>
	<path class="st0" d="M251.3,50.7H239l-5.4-41.8h-14.1h-0.2h-35.8l-22.3,30.4l-0.7-31.3h-12h-2.2h-30.9l-37,35.8v17.7h30.5l-7.9,18
		h22l20-52.1l-4.5,52.1h22.2l30-39.7l-16.9,39.7h20.9l6-14.6h17.5l1.1,14.5l1.7,0.1c5.9,0.3,9.9,0.4,12.7,0.4c5.5,0,6-0.4,6.5-0.9
		c0.4-0.4,0.6-0.9,0.6-1.4c0-0.7-0.3-8.9-0.4-12.9h11.2V50.7z M205.6,50.3L216.5,25l1.2,25.3H205.6z M98.1,45l21.8-21.4L112.8,45
		H98.1z"/>
	<path class="st0" d="M93.8,26.9l22.4-21.8H11.8C6.3,5.2,2,1.6,1.9,1.6L0,0l0.3,2.4c1,7.3,3.8,17,11.3,21.8c2.7,1.8,5.3,2.4,7,2.6
		l0.1,0.4c3.1,14.7,16.9,16.3,19.6,16.5l0,0.1c1.2,3.4,3.9,6,7.8,7.4c2.9,1.1,5.4,1.1,5.5,1.1h25.2v-9.2l16.9-16.2H93.8z"/>
	<path class="st3" d="M39.2,43.4h36.7v7.9H51.7C51.7,51.4,41.9,51.1,39.2,43.4z"/>
	<path class="st2" d="M19.6,27h72.6L75.9,42.7H38.7C38.7,42.7,23,42.7,19.6,27z"/>
	
		<linearGradient id="SVGID_00000153687370141609993580000010289936659182827665_" gradientUnits="userSpaceOnUse" x1="57.5574" y1="-10.8695" x2="57.5574" y2="35.801">
		<stop  offset="0" style="stop-color:#F7C414"/>
		<stop  offset="1" style="stop-color:#EF7D0E"/>
	</linearGradient>
	<path style="fill:url(#SVGID_00000153687370141609993580000010289936659182827665_);" d="M1.3,2.3c0,0,4.6,3.8,10.6,3.8
		s102,0,102,0L93.4,26h-73C20.4,26,4.8,27.1,1.3,2.3z"/>
	
		<linearGradient id="SVGID_00000060712211982638769520000014925978435746692753_" gradientUnits="userSpaceOnUse" x1="164.8578" y1="-1.3458" x2="164.8578" y2="65.7286">
		<stop  offset="0" style="stop-color:#F7C414"/>
		<stop  offset="1" style="stop-color:#EF7D0E"/>
	</linearGradient>
	<path style="fill:url(#SVGID_00000060712211982638769520000014925978435746692753_);" d="M249.4,52.6h-12.1l-5.4-41.8h-47.5
		L159.4,45l-0.7-35h-42.4L80.3,44.7v15h31.5l-7.9,18h17.8L146,14.1l-5.5,63.6h19.2l38.8-51.3l-21.9,51.3h16.7l6-14.6h20.5l1.1,14.6
		c0,0,17.7,0.8,17.7,0c0-0.8-0.5-14.8-0.5-14.8h11.2V52.6z M114.2,46.9H93.4l30.7-30.2L114.2,46.9z M202.7,52.2L218,16.7l1.7,35.5
		H202.7z"/>
</g>
</svg>
