<?xml version="1.0" encoding="utf-8"?>
<!-- Generator: Adobe Illustrator 25.4.1, SVG Export Plug-In . SVG Version: 6.00 Build 0)  -->
<svg version="1.1" id="Layer_1" xmlns="http://www.w3.org/2000/svg" xmlns:xlink="http://www.w3.org/1999/xlink" x="0px" y="0px"
	 viewBox="0 0 191.9 80" style="enable-background:new 0 0 191.9 80;" xml:space="preserve">
<style type="text/css">
	.st0{fill:#FF6900;}
	.st1{fill:#D62047;}
	.st2{fill:url(#SVGID_1_);}
	.st3{fill:#FF5C00;}
	.st4{fill:#009DD8;}
	.st5{fill:url(#SVGID_00000009550492422369426470000016627218075977653633_);}
	.st6{fill:url(#SVGID_00000175287670955215246830000009252519770264224958_);}
	.st7{fill:#D51734;}
</style>
<g>
	<g>
		<polygon class="st0" points="25.2,0.3 13.5,12.1 12.8,14.5 19.2,14.5 17.9,18.3 21,18.3 22.2,14.5 24.5,14.5 25.2,12.3 22.9,12.3 
			24.9,6.3 21.8,6.3 19.9,12.3 14.6,12.3 26,0.3 		"/>
		<polygon class="st0" points="42.8,11.1 41.8,13.6 50.1,13.6 50.9,11.1 		"/>
		<path class="st0" d="M37.7,0.3c-1.4,0-5.3,0.4-7.9,7.2c0,0-1.9,4.8-0.8,8.5c1.2,3.7,5.8,2.4,7,1.5c1.2-1,3.6-3.7,4.7-7.3
			c1.1-3.7,0.7-6.7,0.2-7.8C40.4,1.3,39.1,0.3,37.7,0.3z M38.8,3.5c0,0.1-3.4,11.5-4,12.5c-0.6,1-1.1,1.6-2.3,1.6
			c-1.2,0-1.3-1.3-1.1-2.4c0.2-1.1,3.5-11.3,3.9-12.1C35.6,2.3,36.1,1,37.7,1C39.4,1,38.8,3.5,38.8,3.5z"/>
		<path class="st0" d="M73.5,17.6c-0.5,0-1.4-0.3-1-1.7c0.5-1.9,4.4-13.7,4.4-13.7S78,1,79.5,1l0.1-0.3H73l-9.2,11.8L62.4,0.7h-6.9
			l-0.1,0.4c0,0,2.8,0.1,2.2,1.9c-0.6,1.8-4,12.7-4,12.7s-0.7,1.9-2.4,1.9h-0.6v0.6h6.1v-0.6h-0.4c0,0-2,0-1.6-2s4.1-12.2,4.1-12.2
			l1.7,14.5h0.6L71.9,3.7l-3.6,11.9c0,0-0.4,2.1-2.8,2.1h-0.7v0.6h9.6v-0.6H73.5z"/>
		<path class="st0" d="M83.9,16.2c0,0,3.7-12.4,4.2-13.6c0.5-1.3,2.6-1.3,2.6-1.3H91V0.6h-9.6v0.6h1.2c1.7,0,1.2,1.3,1.2,1.3
			S80.3,14.2,79.7,16c-0.6,1.5-2.1,1.7-2.5,1.7h-0.8v0.6H86v-0.6h-0.8C83.5,17.6,83.9,16.2,83.9,16.2z"/>
		<path class="st0" d="M159.6,16.2c0,0,3.7-12.4,4.2-13.6c0.5-1.3,2.6-1.3,2.6-1.3h0.4V0.6h-9.6v0.6h1.2c1.7,0,1.2,1.3,1.2,1.3
			s-3.5,11.6-4.2,13.4c-0.6,1.5-2.1,1.7-2.5,1.7h-0.8v0.6h9.6v-0.6h-0.8C159.2,17.6,159.6,16.2,159.6,16.2z"/>
		<path class="st0" d="M100,16.7c-3.2,1-4.6,0.6-4.7,0.3c0-0.3-0.4-0.4-0.1-1.4c0.7-2.4,3.6-12,4-13.1c0.5-1.3,2.6-1.3,2.6-1.3h0.4
			V0.6h-9.6v0.6h1.2c1.7,0,1.2,1.3,1.2,1.3S91.5,14.2,90.9,16c-0.6,1.5-2.1,1.7-2.5,1.7h-0.8v0.6h15.6l2.2-4.9h-0.5
			C104.9,13.4,103.2,15.7,100,16.7z"/>
		<path class="st0" d="M119,0.6h-8.3v0.6h1.2c1.7,0,1.2,1.3,1.2,1.3s-3.5,11.6-4.2,13.4c-0.6,1.5-2.1,1.7-2.5,1.7h-0.8v0.6h15.6v0
			c0.5,0,0.9,0,0.9,0l2.2-4.9h-0.5c0,0-2.6,2.3-5.8,3.3c-3.2,1-4.6,0.6-4.7,0.3c0-0.3-0.4-0.4-0.1-1.4c0.3-1,1-3.5,1.8-6
			c0.8,0,2.3,0,3.5,0c1.8,0,1.4,2.8,1.4,2.8c0,0,0.5,0,0.5,0l2-6.8h-0.5c0,0-0.1,0.1-0.9,1.3c-0.8,1.2-2.8,1.4-2.8,1.4h-3
			c0.8-2.7,1.6-5.2,1.8-5.8c0.1-0.4,0.5-0.7,0.8-0.9c0.2-0.1,0.8-0.3,2.6-0.1c2.2,0.2,3.6,1.2,3.8,1.5c0.2,0.3,0.4,1.3,0.3,1.8h0.5
			l1.4-4.3h-6.3H119z"/>
		<path class="st0" d="M150.8,17.6c-0.5,0-1.3-0.5-1.3-1.2c0-0.7,0.5-16.2,0.5-16.2h-0.4l-3,3.2c0,0-11,11.9-12.3,13.1
			c-0.9,0.8-1.5,1-1.8,1.1h-0.6v0.6h5.8v-0.6H137c-1.3,0-0.9-1.4-0.6-1.8c0.1-0.1,1.5-1.7,3.2-3.5c1,0,4.3,0,5.9,0
			c0,1.3,0,2.4,0,3.1c0,1.8-1.5,2.1-1.9,2.2h-0.8v0.6h8V17.6C150.9,17.6,150.9,17.6,150.8,17.6z M140.4,11.6
			c2.5-2.6,5.2-5.5,5.2-5.5s0,2.8,0,5.5H140.4z"/>
		<path class="st0" d="M180.2,16.2c-0.6-1.3-2-6.6-2-6.6s5.2-1.4,5.2-4.8c0-3.4-3.3-4.3-5.4-4.3h-9.6v0.6h1.2c1.7,0,1.2,1.3,1.2,1.3
			s-3.5,11.6-4.2,13.4c-0.6,1.5-2.1,1.7-2.5,1.7h-0.8v0.6h9.6v-0.6h-0.8c-1.7,0-1.3-1.5-1.3-1.5s1-3.3,2-6.6c0.3,0,1.1,0.1,1.2,0.3
			c0.1,0.3,2.8,8.4,2.8,8.4h6v-0.5C182.7,17.7,180.8,17.6,180.2,16.2z M176.1,8.6c-1,0.5-2.5,0.4-3.1,0.3c0.9-2.9,1.7-5.7,2-6.3
			c0.2-0.5,0.6-0.7,1-0.9c0.1,0,1-0.2,1.6,0.2c0.7,0.4,1.5,1.4,1.3,2.9C178.7,6.1,177.4,7.9,176.1,8.6z"/>
	</g>
	<path class="st1" d="M190.9,21.1c0,0-0.6,0.7-1.5,0.7c-1.2,0-57.5,0.1-58,0.1l-0.6,0l1.5,12.3h0.1l1,8.6h0.1l0.5,4.2h7.3v1.8h22.2
		l0,0c0.1,0,1.8-0.1,3.8-0.9c2.6-1,4.4-2.7,4.9-4.9l0-0.1h0.1c0,0,0,0,0,0c0.2,0,1.7,0,3.5-1c1.7-0.9,3.9-3,5-7.2l0.1-0.3
		c1.7-0.1,5.1-0.7,7.1-4.2c2.5-4.5,3.8-8.2,3.8-8.4l0-0.4c0-0.3-0.3-0.4-0.5-0.3L190.9,21.1z"/>
	<linearGradient id="SVGID_1_" gradientUnits="userSpaceOnUse" x1="161.3454" y1="13.6713" x2="161.3454" y2="39.6523">
		<stop  offset="0" style="stop-color:#F7C414"/>
		<stop  offset="1" style="stop-color:#EF7D0E"/>
	</linearGradient>
	<path class="st2" d="M131.4,22.4l1.4,11.3H180c0,0,5,0.5,7.5-3.9c2.5-4.5,3.8-8.3,3.8-8.3s-0.7,0.9-1.9,0.9S131.4,22.4,131.4,22.4z
		"/>
	<path class="st3" d="M132.9,34.4l0.9,7.9h38.6c0,0,5.9,0.1,8-7.9H132.9z"/>
	<path class="st4" d="M133.9,42.8l0.4,3.6h7.4v1.8h21.7c0,0,6.9-0.5,8.3-5.4H133.9z"/>
	<path class="st1" d="M139.9,48h-6.8l-3-23.3h-7.8h-0.1h-20L89.7,41.6l-0.4-17.4h-6.7h-1.2H64.2L43.6,44.1V54h17l-4.4,10h12.3
		l11.1-29l-2.5,29h12.3L106.1,42L96.7,64h11.6l3.4-8.1h9.7L122,64l0.9,0c3.3,0.2,5.5,0.2,7,0.2c3.1,0,3.4-0.2,3.6-0.5
		c0.2-0.2,0.3-0.5,0.3-0.8c0-0.4-0.2-5-0.2-7.2h6.2V48z M114.5,47.7l6.1-14.1l0.7,14.1H114.5z M54.6,44.8l12.1-11.9l-3.9,11.9H54.6z
		"/>
	<path class="st1" d="M52.2,34.7l12.4-12.1H6.6c-3.1,0-5.5-2-5.5-2L0,19.7l0.2,1.4c0.6,4.1,2.1,9.4,6.3,12.1c1.5,1,3,1.3,3.9,1.4
		l0,0.2c1.7,8.2,9.4,9.1,10.9,9.2l0,0.1c0.7,1.9,2.2,3.3,4.3,4.1c1.6,0.6,3,0.6,3.1,0.6h14v-5.1L52.2,34.7L52.2,34.7z"/>
	<path class="st4" d="M21.8,43.9h20.4v4.4H28.8C28.8,48.3,23.3,48.2,21.8,43.9z"/>
	<path class="st3" d="M10.9,34.7h40.4l-9.1,8.7H21.6C21.6,43.5,12.8,43.5,10.9,34.7z"/>
	
		<linearGradient id="SVGID_00000142892598828378186190000009805939018348377267_" gradientUnits="userSpaceOnUse" x1="32.0416" y1="13.6713" x2="32.0416" y2="39.6523">
		<stop  offset="0" style="stop-color:#F7C414"/>
		<stop  offset="1" style="stop-color:#EF7D0E"/>
	</linearGradient>
	<path style="fill:url(#SVGID_00000142892598828378186190000009805939018348377267_);" d="M0.7,21c0,0,2.6,2.1,5.9,2.1
		s56.8,0,56.8,0L52,34.2H11.4C11.4,34.2,2.7,34.8,0.7,21z"/>
	
		<linearGradient id="SVGID_00000183959448840849473770000014240465591715881864_" gradientUnits="userSpaceOnUse" x1="91.7747" y1="18.9731" x2="91.7747" y2="56.3127">
		<stop  offset="0" style="stop-color:#F7C414"/>
		<stop  offset="1" style="stop-color:#EF7D0E"/>
	</linearGradient>
	<path style="fill:url(#SVGID_00000183959448840849473770000014240465591715881864_);" d="M138.8,49h-6.7l-3-23.3h-26.4l-14,19
		l-0.4-19.5H64.7l-20,19.3V53h17.6l-4.4,10h9.9l13.5-35.4L78.2,63h10.7l21.6-28.6L98.3,63h9.3l3.4-8.1h11.4L123,63
		c0,0,9.9,0.5,9.9,0c0-0.5-0.3-8.2-0.3-8.2h6.2V49z M63.6,45.8H52L69.1,29L63.6,45.8z M112.8,48.8l8.5-19.8l1,19.8H112.8z"/>
	<g>
		<path class="st3" d="M58.6,80l0.6-3.3l0.5,0c0,0.5,0.1,0.8,0.1,1c0.1,0.4,0.3,0.7,0.5,1c0.2,0.3,0.5,0.5,0.8,0.6
			c0.3,0.1,0.6,0.2,1,0.2c0.6,0,1.1-0.2,1.5-0.6c0.4-0.4,0.5-0.8,0.5-1.3c0-0.6-0.7-1.4-2-2.4c-1.3-1-2-1.9-2-2.8
			c0-0.8,0.3-1.5,0.9-2s1.4-0.8,2.4-0.8c0.3,0,0.6,0,0.9,0.1c0.2,0,0.4,0.1,0.5,0.1l0.4,0.1c0.1,0,0.2,0,0.3,0.1c0.1,0,0.2,0,0.2,0
			c0.2,0,0.3,0,0.4-0.1c0.1-0.1,0.2-0.2,0.3-0.3h0.5l-0.6,3l-0.4-0.1L65.8,72c-0.1-0.5-0.2-0.9-0.5-1.2C65,70.3,64.5,70,63.7,70
			c-0.6,0-1.1,0.2-1.3,0.6c-0.2,0.3-0.3,0.6-0.3,0.9c0,0.3,0.1,0.6,0.3,0.9c0.1,0.1,0.3,0.3,0.5,0.5l1.4,1.1
			c0.5,0.4,0.9,0.8,1.2,1.3c0.3,0.5,0.5,1,0.5,1.6c0,0.8-0.3,1.5-1,2.1c-0.7,0.6-1.6,1-2.7,1c-0.3,0-0.6,0-0.9-0.1
			c-0.3-0.1-0.6-0.1-0.9-0.2l-0.4-0.1c-0.1,0-0.2-0.1-0.3-0.1c-0.1,0-0.1,0-0.2,0c-0.2,0-0.3,0-0.4,0.1c-0.1,0.1-0.2,0.2-0.3,0.4
			H58.6z"/>
		<path class="st3" d="M67.9,78.3c0-0.2,0.1-0.3,0.2-0.6l1-3.4c0,0,0-0.1,0-0.1c0,0,0-0.1,0-0.1c0-0.2-0.1-0.3-0.2-0.4
			c-0.1,0-0.4-0.1-0.7-0.1v-0.4c0.3,0,0.7-0.1,1.3-0.1c0.6-0.1,1-0.1,1.2-0.2l0.7-0.1l-1.2,4.2c-0.1,0.4-0.2,0.6-0.2,0.8
			c-0.1,0.4-0.1,0.6-0.1,0.7s0,0.2,0.1,0.2c0.1,0,0.1,0,0.2,0c0.2,0,0.4-0.1,0.6-0.4c0.2-0.3,0.5-0.5,0.6-0.8l0.4,0.2
			c-0.5,0.7-0.9,1.2-1.2,1.4c-0.5,0.4-0.9,0.6-1.5,0.6c-0.3,0-0.6-0.1-0.8-0.3c-0.2-0.2-0.3-0.4-0.3-0.8
			C67.8,78.7,67.8,78.5,67.9,78.3z M71.6,69.8c0.2,0.2,0.3,0.4,0.3,0.7s-0.1,0.5-0.3,0.7c-0.2,0.2-0.5,0.3-0.8,0.3
			c-0.3,0-0.5-0.1-0.8-0.3c-0.2-0.2-0.3-0.4-0.3-0.7s0.1-0.5,0.3-0.7c0.2-0.2,0.5-0.3,0.8-0.3C71.2,69.5,71.4,69.6,71.6,69.8z"/>
		<path class="st3" d="M72.2,79.7l1.4-4.8c0.1-0.2,0.1-0.3,0.1-0.5c0.1-0.2,0.1-0.4,0.1-0.4c0-0.2-0.1-0.3-0.2-0.3
			c-0.1,0-0.4-0.1-0.7-0.1v-0.4c0.7,0,1.2-0.1,1.5-0.1c0.4,0,0.9-0.1,1.6-0.3l-0.9,2.8l0,0c0,0,0.1-0.2,0.5-0.7
			c0.3-0.5,0.7-0.8,1-1.1c0.3-0.3,0.6-0.5,1-0.7c0.3-0.2,0.7-0.3,1-0.3c0.3,0,0.6,0.1,0.9,0.3c0.2,0.2,0.4,0.5,0.4,0.9
			c0,0.4-0.2,1.2-0.7,2.5c-0.5,1.3-0.7,2-0.7,2.1c0,0.1,0,0.2,0.1,0.2c0.1,0,0.1,0.1,0.2,0.1c0.1,0,0.3-0.2,0.6-0.5
			c0.1-0.2,0.3-0.4,0.5-0.6l0.4,0.2c-0.4,0.6-0.7,1-1,1.3c-0.5,0.5-1,0.7-1.5,0.7c-0.3,0-0.5-0.1-0.8-0.2c-0.2-0.2-0.3-0.4-0.3-0.7
			c0-0.2,0.1-0.5,0.2-0.9s0.2-0.8,0.4-1.3l0.7-2.2c0-0.1,0-0.1,0-0.1c0,0,0-0.1,0-0.1c0-0.1,0-0.2-0.1-0.2c-0.1,0-0.2-0.1-0.3-0.1
			c-0.3,0-0.7,0.2-1.1,0.7c-0.4,0.5-0.7,0.9-1,1.4c-0.3,0.5-0.5,1-0.7,1.6c-0.2,0.5-0.4,1.2-0.7,2.1H72.2z"/>
		<path class="st3" d="M82.5,74.4c1-1,2-1.5,3.1-1.5c0.6,0,1,0.1,1.4,0.4c0.3,0.3,0.5,0.6,0.5,0.9c0,0.3-0.1,0.6-0.3,0.8
			c-0.2,0.2-0.4,0.3-0.7,0.3c-0.2,0-0.4-0.1-0.6-0.2c-0.2-0.1-0.3-0.3-0.3-0.6c0-0.1,0-0.2,0-0.2c0-0.1,0.1-0.1,0.2-0.3l0.1-0.1
			c0-0.1,0.1-0.1,0.1-0.1c0,0,0-0.1,0-0.1c0-0.1,0-0.1-0.1-0.2c-0.1,0-0.2-0.1-0.3-0.1c-0.6,0-1.1,0.6-1.6,1.7
			c-0.5,1-0.7,1.8-0.7,2.6c0,0.3,0.1,0.6,0.2,0.9c0.2,0.4,0.5,0.6,1,0.6c0.3,0,0.7-0.1,1-0.4c0.3-0.2,0.6-0.6,0.9-1l0.4,0.3
			c-0.5,0.7-0.9,1.1-1.3,1.4c-0.6,0.4-1.2,0.6-2,0.6c-0.6,0-1.1-0.2-1.6-0.6c-0.5-0.4-0.7-1-0.7-1.7C81.1,76.5,81.6,75.4,82.5,74.4z
			"/>
		<path class="st3" d="M89.6,74.4c1-1,2-1.6,3.1-1.6c0.5,0,0.9,0.1,1.2,0.3c0.3,0.2,0.5,0.6,0.5,1c0,0.6-0.4,1.2-1.1,1.8
			c-0.8,0.6-1.7,0.9-3,1.1c0,0.2-0.1,0.3-0.1,0.4c0,0.1,0,0.2,0,0.3c0,0.3,0,0.5,0.1,0.7c0.2,0.3,0.5,0.5,1,0.5
			c0.4,0,0.8-0.2,1.1-0.6c0.2-0.2,0.4-0.5,0.7-0.8l0.5,0.3c-0.4,0.6-0.8,1.1-1.1,1.4c-0.6,0.5-1.2,0.7-2,0.7c-0.6,0-1.1-0.2-1.6-0.6
			c-0.5-0.4-0.7-1-0.7-1.7C88.2,76.5,88.6,75.4,89.6,74.4z M92.9,73.5c-0.1-0.1-0.2-0.2-0.4-0.2c-0.4,0-0.7,0.3-1.1,0.8
			c-0.4,0.6-0.7,1.3-1,2.4c0.9-0.2,1.6-0.6,2-1.1c0.4-0.6,0.6-1,0.6-1.5C93,73.8,92.9,73.6,92.9,73.5z"/>
		<path class="st3" d="M98.9,79.4c0.5,0,1-0.1,1.3-0.2c0.3-0.1,0.5-0.4,0.6-0.9l2-6.8c0-0.1,0-0.2,0-0.2c0-0.1,0-0.1,0-0.2
			c0-0.2-0.1-0.3-0.2-0.4c-0.1-0.1-0.3-0.1-0.6-0.1c-0.1,0-0.3,0-0.5,0c-0.1,0-0.3,0-0.5,0.1l0-0.3c1.2-0.2,2-0.3,2.3-0.4
			c0.4-0.1,1-0.2,2-0.4l-2.5,8.3c0,0.2-0.1,0.3-0.1,0.5c0,0.2-0.1,0.3-0.1,0.4c0,0.3,0.1,0.5,0.4,0.5c0.2,0.1,0.5,0.1,1.1,0.1v0.3
			h-5.5V79.4z"/>
		<path class="st3" d="M114,74.7c-0.4,1.1-1.1,2.1-2.1,3c-0.9,0.8-1.8,1.3-2.9,1.7c-0.6,0.2-1.4,0.4-2.4,0.6l-0.1-0.4
			c1.3-0.4,2.3-1,3.2-1.9c0.5-0.5,1-1.1,1.2-1.8c-0.2,0.1-0.3,0.1-0.5,0.2c-0.1,0-0.3,0-0.5,0c-0.6,0-1.2-0.2-1.7-0.6
			c-0.5-0.4-0.7-1-0.7-1.8c0-1.1,0.4-2.1,1.2-2.9c0.8-0.8,1.7-1.2,2.7-1.2c1,0,1.7,0.3,2.2,0.9c0.5,0.6,0.7,1.4,0.7,2.4
			C114.4,73.4,114.3,74,114,74.7z M112.4,70.3c-0.1-0.2-0.3-0.3-0.7-0.3c-0.7,0-1.2,0.7-1.7,2.1c-0.3,1-0.5,1.7-0.5,2.3
			c0,0.4,0.1,0.7,0.3,0.8c0.2,0.2,0.4,0.2,0.7,0.2c0.4,0,0.6-0.1,0.7-0.3c0.1-0.2,0.4-0.6,0.6-1.4c0.2-0.6,0.4-1.1,0.4-1.6
			c0.1-0.5,0.1-0.9,0.1-1.2C112.6,70.8,112.6,70.5,112.4,70.3z"/>
		<path class="st3" d="M116.7,78.6c0.3,0.5,0.6,0.7,0.9,0.7c0.5,0,1-0.2,1.4-0.7c0.5-0.5,0.7-1.1,0.7-1.8c0-0.7-0.3-1.4-1-1.9
			c-0.7-0.5-1.6-0.8-2.7-0.8l2.1-4.4h4.5l-0.6,1.6h-4.1l-0.5,1.1c1.1,0.2,1.9,0.4,2.4,0.7c1,0.6,1.5,1.5,1.5,2.8
			c0,1.1-0.5,2-1.4,2.8c-0.9,0.7-2,1.1-3.3,1.1c-0.6,0-1.1-0.1-1.5-0.3c-0.4-0.2-0.6-0.5-0.6-0.9c0-0.2,0.1-0.4,0.3-0.6
			c0.2-0.2,0.4-0.2,0.7-0.2C116,77.9,116.3,78.1,116.7,78.6z"/>
		<path class="st3" d="M130,74.7c-0.4,1.1-1.1,2.1-2.1,3c-0.9,0.8-1.8,1.3-2.9,1.7c-0.6,0.2-1.4,0.4-2.4,0.6l-0.1-0.4
			c1.3-0.4,2.3-1,3.2-1.9c0.5-0.5,1-1.1,1.2-1.8c-0.2,0.1-0.3,0.1-0.5,0.2c-0.1,0-0.3,0-0.5,0c-0.6,0-1.2-0.2-1.7-0.6
			c-0.5-0.4-0.7-1-0.7-1.8c0-1.1,0.4-2.1,1.2-2.9c0.8-0.8,1.7-1.2,2.7-1.2c1,0,1.7,0.3,2.2,0.9c0.5,0.6,0.7,1.4,0.7,2.4
			C130.3,73.4,130.2,74,130,74.7z M128.4,70.3c-0.1-0.2-0.3-0.3-0.7-0.3c-0.7,0-1.2,0.7-1.7,2.1c-0.3,1-0.5,1.7-0.5,2.3
			c0,0.4,0.1,0.7,0.3,0.8c0.2,0.2,0.4,0.2,0.7,0.2c0.4,0,0.6-0.1,0.7-0.3c0.1-0.2,0.4-0.6,0.6-1.4c0.2-0.6,0.4-1.1,0.4-1.6
			c0.1-0.5,0.1-0.9,0.1-1.2C128.6,70.8,128.5,70.5,128.4,70.3z"/>
	</g>
	<g>
		<polygon class="st7" points="26,0.1 14.4,11.8 13.6,14.1 20,14.1 18.8,17.9 21.8,17.9 23,14.1 25.3,14.1 26,12 23.8,12 25.7,6 
			22.6,6 20.7,12 15.4,12 26.8,0.1 		"/>
		<polygon class="st7" points="43.6,10.7 42.6,13.2 50.9,13.2 51.7,10.7 		"/>
		<path class="st7" d="M38.5,0.1c-1.4,0-5.3,0.4-7.8,7.1c0,0-1.9,4.7-0.8,8.4c1.2,3.7,5.8,2.4,7,1.4c1.2-0.9,3.6-3.6,4.7-7.2
			c1.1-3.6,0.7-6.6,0.2-7.7C41.2,1,39.9,0.1,38.5,0.1z M39.6,3.2c0,0.1-3.4,11.4-4,12.3c-0.6,1-1.1,1.6-2.3,1.6s-1.3-1.2-1.1-2.3
			c0.2-1.1,3.5-11.2,3.9-12c0.3-0.8,0.8-2.1,2.4-2.1C40.2,0.8,39.6,3.2,39.6,3.2z"/>
		<path class="st7" d="M74.3,17.2c-0.5,0-1.4-0.3-1-1.7C73.7,13.7,77.6,2,77.6,2s1.1-1.2,2.6-1.2l0.1-0.3h-6.6l-9.2,11.6L63.2,0.5
			h-6.8l-0.1,0.4c0,0,2.8,0.1,2.2,1.9c-0.6,1.8-4,12.5-4,12.5s-0.7,1.9-2.4,1.9h-0.6v0.6h6.1v-0.6H57c0,0-2,0-1.6-1.9
			c0.4-1.9,4.1-12,4.1-12l1.7,14.3h0.6L72.7,3.4l-3.6,11.7c0,0-0.4,2.1-2.8,2.1h-0.7v0.6h9.6v-0.6H74.3z"/>
		<path class="st7" d="M84.6,15.7c0,0,3.7-12.2,4.2-13.4C89.3,1.1,91.4,1,91.4,1h0.4V0.4h-9.6V1h1.2c1.7,0,1.2,1.3,1.2,1.3
			s-3.5,11.5-4.2,13.2c-0.6,1.5-2.1,1.6-2.5,1.7h-0.8v0.6h9.6v-0.6h-0.8C84.3,17.2,84.6,15.7,84.6,15.7z"/>
		<path class="st7" d="M160.3,15.7c0,0,3.7-12.2,4.2-13.4c0.5-1.2,2.6-1.3,2.6-1.3h0.4V0.4h-9.6V1h1.2c1.7,0,1.2,1.3,1.2,1.3
			s-3.5,11.5-4.2,13.2c-0.6,1.5-2.1,1.6-2.5,1.7h-0.8v0.6h9.6v-0.6h-0.8C159.9,17.2,160.3,15.7,160.3,15.7z"/>
		<path class="st7" d="M100.8,16.2c-3.2,0.9-4.6,0.6-4.7,0.3c0-0.3-0.4-0.4-0.1-1.3c0.7-2.3,3.6-11.8,4-12.9
			c0.5-1.2,2.6-1.3,2.6-1.3h0.4V0.4h-9.6V1h1.2c1.7,0,1.2,1.3,1.2,1.3s-3.5,11.5-4.2,13.2c-0.6,1.5-2.1,1.6-2.5,1.7h-0.8v0.6h15.6
			l2.2-4.8h-0.5C105.6,13,103.9,15.3,100.8,16.2z"/>
		<path class="st7" d="M119.7,0.4h-8.3V1h1.2c1.7,0,1.2,1.3,1.2,1.3s-3.5,11.5-4.2,13.2c-0.6,1.5-2.1,1.6-2.5,1.7h-0.8v0.6H122v0
			c0.5,0,0.9,0,0.9,0L125,13h-0.5c0,0-2.6,2.3-5.7,3.2c-3.2,0.9-4.6,0.6-4.7,0.3c0-0.3-0.4-0.4-0.1-1.3c0.3-1,1-3.4,1.8-5.9
			c0.8,0,2.3,0,3.5,0c1.8,0,1.4,2.7,1.4,2.8c0,0,0.5,0,0.5,0l2-6.7h-0.5c0,0-0.1,0.1-0.9,1.3c-0.8,1.2-2.8,1.4-2.8,1.4h-3
			c0.8-2.7,1.6-5.2,1.8-5.7c0.1-0.4,0.5-0.7,0.8-0.8c0.2-0.1,0.8-0.3,2.6-0.1c2.2,0.2,3.6,1.2,3.8,1.5c0.2,0.3,0.4,1.3,0.3,1.8h0.5
			l1.4-4.2H121H119.7z"/>
		<path class="st7" d="M151.5,17.2c-0.5,0-1.3-0.5-1.3-1.2c0-0.7,0.5-16,0.5-16h-0.4l-3,3.2c0,0-11,11.7-12.3,13
			c-0.9,0.8-1.5,1-1.8,1.1h-0.6v0.6h5.8v-0.6h-0.7c-1.3,0-0.9-1.4-0.6-1.8c0.1-0.1,1.5-1.6,3.2-3.4c1,0,4.3,0,5.9,0c0,1.3,0,2.4,0,3
			c0,1.8-1.5,2.1-1.9,2.1h-0.8v0.6h7.9V17.2C151.6,17.2,151.6,17.2,151.5,17.2z M141.1,11.2c2.5-2.6,5.1-5.4,5.1-5.4s0,2.8,0,5.4
			H141.1z"/>
		<path class="st7" d="M180.8,15.8c-0.6-1.3-2-6.5-2-6.5S184,8,184,4.6c0-3.4-3.3-4.2-5.4-4.2H169V1h1.2c1.7,0,1.2,1.3,1.2,1.3
			s-3.5,11.5-4.2,13.2c-0.6,1.5-2.1,1.6-2.5,1.7H164v0.6h9.6v-0.6h-0.8c-1.7,0-1.3-1.5-1.3-1.5s1-3.2,2-6.5c0.3,0,1.1,0.1,1.2,0.3
			c0.1,0.3,2.8,8.3,2.8,8.3h6v-0.5C183.4,17.3,181.4,17.1,180.8,15.8z M176.7,8.2c-1,0.5-2.5,0.4-3.1,0.3c0.9-2.9,1.7-5.7,2-6.2
			c0.2-0.4,0.6-0.7,1-0.9c0.1,0,1-0.2,1.6,0.2c0.7,0.4,1.5,1.3,1.3,2.8C179.3,5.8,178,7.6,176.7,8.2z"/>
	</g>
</g>
</svg>
