<?xml version="1.0" encoding="utf-8"?>
<!-- Generator: Adobe Illustrator 25.4.1, SVG Export Plug-In . SVG Version: 6.00 Build 0)  -->
<svg version="1.1" id="Layer_1" xmlns="http://www.w3.org/2000/svg" xmlns:xlink="http://www.w3.org/1999/xlink" x="0px" y="0px"
	 viewBox="0 0 80 80" style="enable-background:new 0 0 80 80;" xml:space="preserve">
<style type="text/css">
	.st0{fill-rule:evenodd;clip-rule:evenodd;fill:#EEEEEE;}
	.st1{fill-rule:evenodd;clip-rule:evenodd;fill:#B4D4EF;}
	.st2{fill-rule:evenodd;clip-rule:evenodd;fill:#6CABDD;}
	.st3{fill-rule:evenodd;clip-rule:evenodd;fill:#D5A5CB;}
	.st4{fill-rule:evenodd;clip-rule:evenodd;fill:#D9E4A1;}
	.st5{fill-rule:evenodd;clip-rule:evenodd;fill:#221E20;}
	.st6{fill-rule:evenodd;clip-rule:evenodd;fill:#8C2F87;}
	.st7{fill-rule:evenodd;clip-rule:evenodd;fill:#8DBF44;}
</style>
<g id="Estrella" transform="translate(99.282984, 0.000000)">
	<polygon id="Fill-12" class="st0" points="-65,11.4 -53.6,11.4 -53.6,0 -65,0 	"/>
	<polygon id="Fill-13" class="st1" points="-65,22.9 -53.6,22.9 -53.6,11.4 -65,11.4 	"/>
	<polygon id="Fill-14" class="st2" points="-65,34.3 -53.6,34.3 -53.6,22.9 -65,22.9 	"/>
	<polygon id="Fill-15" class="st1" points="-76.4,34.3 -65,34.3 -65,22.9 -76.4,22.9 	"/>
	<polygon id="Fill-16" class="st3" points="-76.4,57.1 -65,57.1 -65,45.7 -76.4,45.7 	"/>
	<polygon id="Fill-17" class="st1" points="-53.6,34.3 -42.1,34.3 -42.1,22.9 -53.6,22.9 	"/>
	<polygon id="Fill-18" class="st4" points="-53.6,57.1 -42.1,57.1 -42.1,45.7 -53.6,45.7 	"/>
	<polygon id="Fill-19" class="st5" points="-65,45.7 -53.6,45.7 -53.6,34.3 -65,34.3 	"/>
	<polygon id="Fill-20" class="st6" points="-65,57.1 -53.6,57.1 -53.6,45.7 -65,45.7 	"/>
	<polygon id="Fill-21" class="st3" points="-65,68.6 -53.6,68.6 -53.6,57.1 -65,57.1 	"/>
	<polygon id="Fill-22" class="st0" points="-65,80 -53.6,80 -53.6,68.6 -65,68.6 	"/>
	<polygon id="Fill-23" class="st0" points="-99.3,45.7 -87.9,45.7 -87.9,34.3 -99.3,34.3 	"/>
	<polygon id="Fill-24" class="st3" points="-87.9,45.7 -76.4,45.7 -76.4,34.3 -87.9,34.3 	"/>
	<polygon id="Fill-25" class="st6" points="-76.4,45.7 -65,45.7 -65,34.3 -76.4,34.3 	"/>
	<polygon id="Fill-26" class="st7" points="-53.6,45.7 -42.1,45.7 -42.1,34.3 -53.6,34.3 	"/>
	<polygon id="Fill-27" class="st4" points="-42.1,45.7 -30.7,45.7 -30.7,34.3 -42.1,34.3 	"/>
	<polygon id="Fill-28" class="st0" points="-30.7,45.7 -19.3,45.7 -19.3,34.3 -30.7,34.3 	"/>
</g>
</svg>
