<?xml version="1.0" encoding="utf-8"?>
<!-- Generator: Adobe Illustrator 25.4.1, SVG Export Plug-In . SVG Version: 6.00 Build 0)  -->
<svg version="1.1" id="Layer_1" xmlns="http://www.w3.org/2000/svg" xmlns:xlink="http://www.w3.org/1999/xlink" x="0px" y="0px"
	 viewBox="0 0 330.2 80" style="enable-background:new 0 0 330.2 80;" xml:space="preserve">
<style type="text/css">
	.st0{fill-rule:evenodd;clip-rule:evenodd;fill:#221E20;}
	.st1{fill-rule:evenodd;clip-rule:evenodd;fill:#EEEEEE;}
	.st2{fill-rule:evenodd;clip-rule:evenodd;fill:#B4D4EF;}
	.st3{fill-rule:evenodd;clip-rule:evenodd;fill:#6CABDD;}
	.st4{fill-rule:evenodd;clip-rule:evenodd;fill:#D5A5CB;}
	.st5{fill-rule:evenodd;clip-rule:evenodd;fill:#D9E4A1;}
	.st6{fill-rule:evenodd;clip-rule:evenodd;fill:#8C2F87;}
	.st7{fill-rule:evenodd;clip-rule:evenodd;fill:#8DBF44;}
</style>
<g id="Page-1">
	<g id="Desktop-HD" transform="translate(-165.000000, -12.000000)">
		<g id="Header_x2F_Brand_x5F_header_x2F_Account">
			<g id="Header_x2F_Brand_x5F_header">
				<g id="Logo_00000011002849730650056330000016635655651339967418_" transform="translate(165.000000, 12.000000)">
					<g id="Group" transform="translate(0.000000, 6.054054)">
						<path id="Fill-10" class="st0" d="M221.1,38.1c-1.7-1.7-4.3-2.9-6.9-2.9c-1.8,0-4.1,1-4.1,3.1c0,5.5,18.6,1.2,18.6,13.8
							c0,8.7-8.7,11.3-16.3,11.3c-5.2,0-10.4-1.2-14.1-4.9l6.4-6.4c2.1,2.1,5,3.5,8.3,3.5c2.5,0,5-0.9,5-2.7
							c0-5.9-18.6-1.2-18.6-13.9c0-8,7.4-11.6,14.8-11.6c4.7,0,9.8,1.1,13.1,4.5L221.1,38.1z"/>
						<polygon id="Fill-5" class="st0" points="86.6,62.5 97.5,62.5 97.5,9.2 86.6,9.2 						"/>
						<path id="Fill-7" class="st0" d="M123.3,36.7c-5.5,0-8.7,3.5-8.7,8.7c0,5.1,3.3,8.7,8.7,8.7c5.4,0,8.7-3.5,8.7-8.7
							C132,40.2,128.7,36.7,123.3,36.7L123.3,36.7z M142,62.5h-10V58h-0.1c-1.7,2.5-5.9,5.4-10.8,5.4c-10.5,0-17.4-7.3-17.4-17.7
							c0-9.5,6.1-18.3,16.1-18.3c4.5,0,8.7,1.2,11.2,4.5h0.2v-3.7H142V62.5z"/>
						<path id="Fill-8_00000099625708577450456640000014588589377149271705_" class="st0" d="M150.6,28.2h10.9v5.5h0.1
							c2.3-4.2,5.4-6.3,10.2-6.3c1.2,0,2.6,0.1,3.6,0.4v9.7c-1.5-0.4-3.1-0.7-4.7-0.7c-8.3,0-9.3,4.7-9.3,11.5v14.3h-10.9V28.2z"/>
						<path id="Combined-Shape" class="st0" d="M192.3,28.2v34.3h-10.9V28.2H192.3z M192.3,9.2v10.7h-10.9V9.2H192.3z"/>
						<path id="Fill-3_00000116922010648253215760000011494779939378902175_" class="st0" d="M60.9,54.1c5.4,0,8.7-3.5,8.7-8.7
							c0-5.2-3.3-8.7-8.7-8.7c-5.5,0-8.7,3.5-8.7,8.7C52.2,50.5,55.4,54.1,60.9,54.1 M60.9,27.4c10.9,0,19.6,7.1,19.6,18
							s-8.7,18-19.6,18c-10.9,0-19.6-7.1-19.6-18S50,27.4,60.9,27.4"/>
						<polygon id="Fill-2" class="st0" points="0,28.2 11.8,28.2 20.7,51.5 20.9,51.5 29.1,28.2 40.1,28.2 26.2,62.5 14.6,62.5 
													"/>
					</g>
					<g id="Estrella" transform="translate(99.282984, 0.000000)">
						<polygon id="Fill-12" class="st1" points="185.2,11.4 196.6,11.4 196.6,0 185.2,0 						"/>
						<polygon id="Fill-13" class="st2" points="185.2,22.9 196.6,22.9 196.6,11.4 185.2,11.4 						"/>
						<polygon id="Fill-14" class="st3" points="185.2,34.3 196.6,34.3 196.6,22.9 185.2,22.9 						"/>
						<polygon id="Fill-15" class="st2" points="173.8,34.3 185.2,34.3 185.2,22.9 173.8,22.9 						"/>
						<polygon id="Fill-16" class="st4" points="173.8,57.1 185.2,57.1 185.2,45.7 173.8,45.7 						"/>
						<polygon id="Fill-17" class="st2" points="196.6,34.3 208.1,34.3 208.1,22.9 196.6,22.9 						"/>
						<polygon id="Fill-18" class="st5" points="196.6,57.1 208.1,57.1 208.1,45.7 196.6,45.7 						"/>
						<polygon id="Fill-19" class="st0" points="185.2,45.7 196.6,45.7 196.6,34.3 185.2,34.3 						"/>
						<polygon id="Fill-20" class="st6" points="185.2,57.1 196.6,57.1 196.6,45.7 185.2,45.7 						"/>
						<polygon id="Fill-21" class="st4" points="185.2,68.6 196.6,68.6 196.6,57.1 185.2,57.1 						"/>
						<polygon id="Fill-22" class="st1" points="185.2,80 196.6,80 196.6,68.6 185.2,68.6 						"/>
						<polygon id="Fill-23" class="st1" points="150.9,45.7 162.3,45.7 162.3,34.3 150.9,34.3 						"/>
						<polygon id="Fill-24" class="st4" points="162.3,45.7 173.8,45.7 173.8,34.3 162.3,34.3 						"/>
						<polygon id="Fill-25" class="st6" points="173.8,45.7 185.2,45.7 185.2,34.3 173.8,34.3 						"/>
						<polygon id="Fill-26" class="st7" points="196.6,45.7 208.1,45.7 208.1,34.3 196.6,34.3 						"/>
						<polygon id="Fill-27" class="st5" points="208.1,45.7 219.5,45.7 219.5,34.3 208.1,34.3 						"/>
						<polygon id="Fill-28" class="st1" points="219.5,45.7 230.9,45.7 230.9,34.3 219.5,34.3 						"/>
					</g>
				</g>
			</g>
		</g>
	</g>
</g>
</svg>
