<?xml version="1.0" encoding="utf-8"?>
<!-- Generator: Adobe Illustrator 25.4.1, SVG Export Plug-In . SVG Version: 6.00 Build 0)  -->
<svg version="1.1" id="Layer_1" xmlns="http://www.w3.org/2000/svg" xmlns:xlink="http://www.w3.org/1999/xlink" x="0px" y="0px"
	 viewBox="0 0 278.3 80" style="enable-background:new 0 0 278.3 80;" xml:space="preserve">
<style type="text/css">
	.st0{fill:#263672;}
</style>
<path class="st0" d="M204,29.5c2.8-6.5,10.6-5.1,10.6-5.1s3.4,0,33.3,0S278.3,0,278.3,0s-33.4,0-56.3,0s-34.7,15.7-37,18.9
	c-2.3,3.1-5.2,9.6-5.2,9.6s-8.1,21.6-9.3,27.2c-1.2,5.7,0,11,0,11c-2.5-0.8-9.2-15.3-9.2-15.3s-17-44.9-18.8-48.8
	c-1.8-3.9-3.4-2.3-3.4-2.3c-12.5,1.2-24.1,13.7-24.1,13.7S90.4,35.9,72.9,52C55.4,68.1,46.5,68.4,46.5,68.4s0,0,2.9-5.8
	c2.9-5.8,10.4-32.3,14.3-36c4-3.7,11.3-2.5,17.6-2c6.3,0.5,15.3-1.2,21.6-8.2c6.3-7,6.7-16,6.7-16s-48.7,0-74.1,0S4.8,14.1,4.5,14.3
	C4.1,14.5,0,24.5,0,24.5l38.6-0.2L19.5,80c0,0,26.7,0,33.7,0s16.6-2.3,23.9-6.4c7.2-4.1,20.8-4.2,20.8-4.2h41.2
	c2.1,11.9,15,10.6,15,10.6s41.6,0,67.2,0s31.9-11.6,31.9-11.6l4.7-13.3c0,0-55.5,0-59.6,0s-2.5-4-2.5-4S201.2,36,204,29.5z
	 M103.1,53l21.1-20.1l7.7,20.1H103.1z"/>
</svg>
