<?xml version="1.0" encoding="utf-8"?>
<!-- Generator: Adobe Illustrator 25.4.1, SVG Export Plug-In . SVG Version: 6.00 Build 0)  -->
<svg version="1.1" id="Layer_1" xmlns="http://www.w3.org/2000/svg" xmlns:xlink="http://www.w3.org/1999/xlink" x="0px" y="0px"
	 viewBox="0 0 217.7 80" style="enable-background:new 0 0 217.7 80;" xml:space="preserve">
<style type="text/css">
	.st0{fill:#263672;}
	.st1{fill:#253775;}
	.st2{fill:#263572;}
</style>
<g>
	<path class="st0" d="M71.6,80c-0.3-1.1,0-1.6,1.2-1.5c1.6,0.1,3.2,0.1,4.8,0.1c0.7,0,1.7,0.1,1.8-0.8c0.2-1-0.9-1.1-1.6-1.3
		c-1.6-0.4-3.2-0.7-4.8-1.1c-1.5-0.4-2.4-1.5-2.2-2.7c0.2-1.3,1-1.9,2.7-1.9c2.3,0,4.6,0,6.9,0c0.3,0,0.9-0.3,1,0.3
		c0.1,0.5-0.2,0.9-0.6,1.2c-0.4,0.2-0.8,0.2-1.3,0.2c-1.9,0-3.8,0.1-5.7,0.1c-0.5,0-1.2-0.3-1.3,0.4c0,0.7,0.7,0.6,1.2,0.7
		c1.9,0.5,3.9,0.9,5.8,1.4c1.3,0.3,2.2,1,2.4,2.4c0.1,1.2-0.7,1.9-1.5,2.5C77.5,80,74.5,80,71.6,80z"/>
	<path class="st0" d="M167.8,80c-1.1-0.6-1.6-1.5-1.5-2.8c0-1.4,0-2.8,0-4.1c0-1.6,0.9-2.4,2.4-2.4c1.9,0,3.9,0,5.8,0
		c0.4,0,0.9,0.1,1.2,0.3c0.5,0.3,1.1,0.8,1,1.4c-0.1,0.6-0.9,0.3-1.3,0.3c-2,0-4,0.1-6,0c-1,0-1.4,0.4-1.4,1.4c0,1,0,2,0,3
		c-0.1,1,0.3,1.5,1.4,1.5c1.1-0.1,2.2,0,3.4,0c1.9,0,2,0,1.9-1.9c0-0.8,0.1-1.2,1.1-1.2c0.8,0,1,0.3,1,1c0,1.4,0.1,2.8-1.3,3.6
		C173,80,170.4,80,167.8,80z"/>
	<path class="st0" d="M163.6,80h-1.6c-0.3-1.6-0.1-3.2-0.2-4.9c-0.1-2-0.6-2.5-2.6-2.5c-1.4,0-2.8,0-4.1,0c-0.7,0-1,0.2-1,1
		c0.1,2.1,0,4.3,0,6.4h-1.8c0-2.9,0-5.8-0.1-8.6c0-0.6,0.3-0.7,0.8-0.7c2.5,0,4.9,0,7.4,0c1.9,0.1,3,1.4,3.1,3.6
		C163.7,76.2,163.6,78.1,163.6,80z"/>
	<path class="st0" d="M68,80h-1.6c-0.3-1.6-0.1-3.2-0.2-4.9c-0.1-2-0.6-2.5-2.6-2.5c-1.4,0-2.8,0-4.1,0c-0.7,0-1,0.2-1,1
		c0.1,2.1,0,4.3,0,6.4h-1.8c0-2.9,0-5.8-0.1-8.6c0-0.6,0.3-0.7,0.8-0.7c2.5,0,4.9,0,7.4,0c1.9,0.1,3,1.4,3.1,3.6
		C68,76.2,68,78.1,68,80z"/>
	<path class="st0" d="M126.6,80c-1.1-0.6-1.6-1.5-1.5-2.8c0-1.3,0-2.6,0-3.9c0-1.9,0.8-2.7,2.7-2.7c2.2,0,4.3,0,6.5,0
		c0.8,0,1,0.2,0.9,0.9c0,0.6,0,1.2-0.9,1.1c-2-0.1-4,0-6,0c-1,0-1.4,0.3-1.4,1.3c0.1,1.1,0,2.2,0,3.2c0,0.9,0.4,1.2,1.2,1.2
		c1.8,0,3.6,0.1,5.4,0c1.3-0.1,1.8,0.3,1.5,1.6C132.3,80,129.4,80,126.6,80z"/>
	<path class="st1" d="M102.4,80c0-2.8,0.1-5.6,0-8.4c0-1,0.4-1,1.1-1c0.8,0,1,0.2,1,1c-0.1,2.8-0.1,5.6-0.1,8.4
		C103.8,80,103.1,80,102.4,80z"/>
	<path class="st0" d="M26.1,71.8c0-0.6,0.1-1.1-0.9-1.1c-3.8,0.1-7.5,0.1-11.3,0c-0.9,0-0.9,0.5-0.9,1.1c0,0.6,0,1,0.9,1
		c1.4-0.1,2.8,0,4.3,0c0.8,0,0.4,0.6,0.4,1c0.1,2.1,0.1,4.2,0.1,6.2c0.6,0,1.2,0,1.8,0c0-2.1,0.1-4.2,0-6.3c0-0.7,0.2-1,0.9-0.9
		c1.2,0.1,2.5,0,3.8,0C26.1,72.8,26.1,72.4,26.1,71.8z"/>
	<path class="st2" d="M53.9,73.5c0-2-0.8-2.8-2.8-2.8c-2.2,0-4.5,0-6.7,0c-0.8,0-1,0.3-1,1c0,0.9,0.5,1.1,1.3,1.1c2,0,4.1,0,6.1,0
		c0.5,0,1.4-0.4,1.4,0.8c0,1.2-0.9,0.8-1.5,0.9c-1.8,0.1-3.5,0-5.3,0.1c-1.5,0.1-2.3,0.9-2.5,2.4c-0.2,1.4,0.3,2.4,1.5,3.1
		c3.1,0,6.2,0,9.3,0c0.3-0.3,0.2-0.7,0.2-1.1C53.9,77.1,54,75.3,53.9,73.5z M50.8,78.4c-1.5,0-3,0-4.5,0c-0.6,0-1.4-0.1-1.4-1
		c0-0.9,0.7-1,1.4-1c0.8,0,1.6,0,2.5,0c0.7,0,1.4,0,2.1,0c0.7,0,1.2,0,1.2,1C52,78.4,51.5,78.4,50.8,78.4z"/>
	<path class="st2" d="M99.9,73.2c0-1.7-0.8-2.4-2.5-2.5c-2.4-0.1-4.8,0-7.1,0c-0.6,0-0.8,0.1-0.8,0.8c0,0.9,0.3,1.4,1.3,1.3
		c2.2,0,4.3,0,6.5,0c0.6,0,1,0.1,1,0.8c0,0.7-0.4,0.8-1,0.8c-1.9,0-3.7,0-5.6,0.1c-1.8,0.1-2.7,1-2.8,2.7c-0.1,1.2,0.5,2.1,1.5,2.8
		c3.2,0,6.4,0,9.6,0C99.9,77.7,99.9,75.4,99.9,73.2z M97.1,78.4c-1.6-0.1-3.3,0-4.9,0c-0.7,0-1.4-0.1-1.4-1c0-0.9,0.7-0.9,1.4-0.9
		c0.8,0,1.6,0,2.5,0c0.8,0,1.6,0,2.3,0c0.7-0.1,1,0.2,1,1C98,78,98,78.4,97.1,78.4z"/>
	<path class="st0" d="M149.9,76.8c-0.1-1.2,0-2.5,0-3.7c0-1.6-0.9-2.4-2.4-2.4c-2.3,0-4.7,0-7,0c-1.6,0-2.4,0.9-2.4,2.4
		c0,1.2,0.1,2.4,0,3.6c-0.1,1.3,0.2,2.4,1.3,3.3c3.1,0,6.2,0,9.3,0C149.6,79.2,150,78.1,149.9,76.8z M147,78.4c-1,0-2.1,0-3.1,0
		c-1,0-2,0-3,0c-0.7,0-1.1-0.4-1.1-1.1c0-1.2,0-2.4,0-3.6c0-0.7,0.4-1,1.1-1c2.1,0,4.1,0,6.2,0c0.8,0,1.1,0.3,1.1,1.1
		c0,1.2,0,2.3,0,3.5C148.2,78.1,147.9,78.5,147,78.4z"/>
	<path class="st0" d="M190.9,76.9c-0.1-1.2,0-2.5,0-3.7c0-1.6-0.8-2.5-2.5-2.5c-2.3,0-4.6,0-6.9,0c-1.6,0-2.4,0.8-2.4,2.4
		c-0.1,1.3,0,2.7,0,4c-0.1,1.3,0.3,2.3,1.4,2.9c3,0,6.1,0,9.1,0C190.6,79.2,191,78.2,190.9,76.9z M189.3,77.3c0,0.8-0.4,1.1-1.2,1.1
		c-1,0-2,0-3,0c-1,0-2,0-3,0c-0.8,0-1.2-0.3-1.2-1.1c0-1.2,0-2.3,0-3.5c0-0.8,0.3-1.2,1.2-1.2c2,0,4.1,0,6.1,0
		c0.7,0,1.1,0.3,1.1,1.1C189.3,74.9,189.3,76.1,189.3,77.3z"/>
	<path class="st2" d="M38.7,76.4c1.4-0.7,1.8-2.1,1.3-3.5c-0.4-1.4-1.5-2.1-3.3-2.2c-2.2-0.1-4.4,0-6.6-0.1c-1,0-1.3,0.3-1.3,1.3
		c0,2.7,0,5.4-0.1,8.1c0.7,0,1.4,0,2.1,0c0-2.8,0-2.8,2.8-2.8c0.1,0,0.2,0,0.3,0c2.5,0,2.9,0.3,3.7,2.8c0.7,0,1.4,0,2.1,0
		c-0.4-0.8-0.8-1.6-1.3-2.4C38,77.1,38,76.8,38.7,76.4z M37,75.2c-1.8,0.1-3.7,0.1-5.5,0c-1,0-0.4-0.9-0.5-1.4c-0.1-0.4-0.2-1,0.6-1
		c0.9,0,1.8,0,2.7,0c0,0,0,0,0,0c0.9,0,1.8,0,2.7,0c0.7,0,1.2,0.4,1.2,1.1C38.2,74.7,37.7,75.1,37,75.2z"/>
	<path class="st2" d="M116.7,76.4c0.8-0.3,1.2-1,1.4-1.9c0.5-2.1-0.9-3.8-3.3-3.9c-2.2-0.1-4.5,0-6.7-0.1c-0.9,0-1.2,0.2-1.2,1.1
		c0,2.7,0,5.5,0,8.2c0.7,0,1.4,0,2.1,0c-0.1-2.8-0.1-2.8,2.6-2.8c0,0,0.1,0,0.1,0c2.9,0,2.9,0,4,2.8c0.7,0,1.4,0,2.1,0
		c-0.4-0.8-0.9-1.6-1.3-2.3C116,77.1,115.9,76.8,116.7,76.4z M114.9,75.2c-1.8,0-3.6,0.1-5.4,0c-1.1,0-0.5-1-0.6-1.5
		c-0.1-0.5-0.1-1,0.7-0.9c0.9,0,1.7,0,2.6,0c0,0,0,0,0,0c0.9,0,1.8,0,2.7,0c0.7,0,1.3,0.4,1.3,1.2C116.1,74.7,115.7,75.2,114.9,75.2
		z"/>
	<path class="st0" d="M159.6,23.1c2.2-5.1,8.3-4,8.3-4s2.6,0,26,0S217.7,0,217.7,0s-26.1,0-44.1,0s-27.1,12.3-28.9,14.8
		c-1.8,2.5-4.1,7.5-4.1,7.5s-6.3,16.9-7.3,21.3c-0.9,4.4,0,8.6,0,8.6c-2-0.7-7.2-12-7.2-12S112.9,5.1,111.5,2s-2.7-1.8-2.7-1.8
		C99.1,1.2,90,11,90,11S70.7,28.1,57,40.7C43.4,53.3,36.4,53.5,36.4,53.5s0,0,2.3-4.5c2.3-4.5,8.1-25.3,11.2-28.2
		c3.1-2.9,8.9-2,13.8-1.6c4.9,0.4,12-0.9,16.9-6.4c4.9-5.5,5.3-12.5,5.3-12.5s-38.1,0-58,0S3.8,11,3.5,11.2c-0.3,0.2-3.5,8-3.5,8
		L30.2,19L15.3,62.6c0,0,20.9,0,26.4,0s13-1.8,18.7-5c5.7-3.2,16.3-3.3,16.3-3.3h32.2c1.7,9.3,11.7,8.3,11.7,8.3s32.5,0,52.6,0
		s25-9,25-9l3.7-10.4c0,0-43.5,0-46.7,0c-3.2,0-2-3.1-2-3.1S157.4,28.2,159.6,23.1z M80.7,41.4l16.5-15.7l6,15.7H80.7z"/>
</g>
</svg>
