<?xml version="1.0" encoding="utf-8"?>
<!-- Generator: Adobe Illustrator 25.4.1, SVG Export Plug-In . SVG Version: 6.00 Build 0)  -->
<svg version="1.1" id="Layer_1" xmlns="http://www.w3.org/2000/svg" xmlns:xlink="http://www.w3.org/1999/xlink" x="0px" y="0px"
	 viewBox="0 0 524.2 80" style="enable-background:new 0 0 524.2 80;" xml:space="preserve">
<style type="text/css">
	.st0{fill:#373536;}
	.st1{fill:#DE1F2B;}
</style>
<g>
	<path class="st0" d="M0,79.1h9l4.6-9.2h23.6l4.7,9.2h8.7L25.3,29.6L0,79.1z M17.4,62.1l7.7-15.6l8,15.6H17.4z"/>
	<path class="st0" d="M206.7,79.1h9l4.6-9.2h23.6l4.7,9.2h8.7L232,29.6L206.7,79.1z M224.1,62.1l7.7-15.6l8,15.6H224.1z"/>
	<rect x="58.7" y="30.3" class="st0" width="7.8" height="48.9"/>
	<polygon class="st0" points="154.7,30.3 146.9,30.3 146.9,71.6 146.9,79.1 154.7,79.1 179.6,79.1 179.6,71.6 154.7,71.6 	"/>
	<rect x="190.6" y="30.3" class="st0" width="7.8" height="48.9"/>
	<rect x="265.5" y="30.3" class="st0" width="7.8" height="48.9"/>
	<polygon class="st0" points="425.4,30.3 425.4,64.5 399.3,30.3 391.5,30.3 391.5,79.1 399.3,79.1 399.3,44.9 425.4,79.1 
		433.3,79.1 433.3,30.3 	"/>
	<path class="st0" d="M115.6,46c0-15.4-16-15.7-18.4-15.7H87.1h-7.8v7.6v16.8v7.6v16.8h7.8V62.3h8.1l11.9,16.8h10.3l-13.3-18.3
		C109.3,59.1,115.6,55,115.6,46z M87.1,37.9h10.1c0,0,9.7-0.5,9.7,8.3s-9.7,8.6-9.7,8.6H87.1V37.9z"/>
	<path class="st0" d="M355.1,29.8c-13.7,0-24.9,11.1-24.9,24.9c0,13.7,11.1,24.9,24.9,24.9s24.9-11.1,24.9-24.9
		C379.9,41,368.8,29.8,355.1,29.8z M355.1,71.8c-9.4,0-17-7.6-17-17s7.6-17,17-17s17,7.6,17,17S364.5,71.8,355.1,71.8z"/>
	<path class="st0" d="M300.2,49.2c-5.4-1.8-5.4-5-5.6-5.5c-0.1-0.5-0.3-6.6,7.6-6.6s13.5,5,13.5,5l4.6-6.5c-5.2-4.1-12.6-6-15.5-6
		s-18.8,0.1-18.8,13.5c0,13.4,13.4,15.1,19.7,16.3c6.3,1.2,7.4,4.5,7.4,7.2c0,2.7-2.8,5.5-10,5.5c-7.2,0-13.8-6.4-13.8-6.4l-5.3,6.4
		c7,6,17.2,7.8,18.9,7.8c1.7,0,18.9,0.4,18.9-14.1S305.7,51,300.2,49.2z"/>
	<path class="st1" d="M460.9,43c0,0,5.5-4.7,15.1-7l10.2-17.4l10.2,17c0,0,9.2,2.3,15.1,7.4L486.2,0L460.9,43z"/>
	<path class="st1" d="M449.7,62.1c0,0,15.3-16.6,32.3-16.6c17,0,30.2,16.6,30.2,16.6h11.3c0,0-12.5-23.2-37.3-23.2
		C461.4,38.9,449.7,61,449.7,62.1z"/>
</g>
</svg>
