<?xml version="1.0" encoding="utf-8"?>
<!-- Generator: Adobe Illustrator 25.4.1, SVG Export Plug-In . SVG Version: 6.00 Build 0)  -->
<svg version="1.1" id="Layer_1" xmlns="http://www.w3.org/2000/svg" xmlns:xlink="http://www.w3.org/1999/xlink" x="0px" y="0px"
	 viewBox="0 0 196.31 80.27" style="enable-background:new 0 0 196.31 80.27;" xml:space="preserve">
<style type="text/css">
	.st0{fill-rule:evenodd;clip-rule:evenodd;fill:#F02137;}
</style>
<path class="st0" d="M109.49,36.34h14.4c0-0.04,0-0.08,0.01-0.12c0.04-0.59,0.1-1.17,0.18-1.74c0.02-0.19,0.06-0.38,0.09-0.56
	c0.06-0.38,0.11-0.76,0.18-1.14c0.04-0.22,0.09-0.44,0.14-0.66c0.07-0.34,0.14-0.68,0.22-1.01c0.06-0.23,0.12-0.45,0.18-0.68
	c0.09-0.32,0.17-0.64,0.27-0.95c0.07-0.23,0.15-0.45,0.23-0.68c0.1-0.31,0.21-0.61,0.32-0.91c0.08-0.23,0.18-0.45,0.27-0.67
	c0.12-0.3,0.24-0.59,0.37-0.89c0.1-0.22,0.2-0.44,0.3-0.65c0.14-0.29,0.28-0.58,0.43-0.86c0.11-0.21,0.23-0.43,0.34-0.64
	c0.16-0.28,0.32-0.57,0.48-0.85c0.12-0.21,0.25-0.41,0.38-0.61c0.18-0.28,0.36-0.56,0.55-0.83c0.13-0.2,0.27-0.39,0.41-0.59
	c0.2-0.28,0.4-0.55,0.61-0.82c0.14-0.19,0.28-0.37,0.43-0.56c0.22-0.28,0.45-0.55,0.69-0.82c0.15-0.17,0.3-0.35,0.45-0.52
	c0.25-0.28,0.51-0.56,0.78-0.83c0.15-0.16,0.3-0.32,0.45-0.47c0.29-0.29,0.59-0.58,0.9-0.86c0.14-0.13,0.28-0.27,0.42-0.4
	c0.35-0.32,0.72-0.64,1.09-0.95c0.11-0.09,0.21-0.18,0.32-0.27c0.99-0.81,2.03-1.6,3.15-2.36c7.92-5.42,19.01-9.45,33.24-12.09
	l-54.75-0.31C116.87,0,116.72,0,116.58,0C92.7,0,61.42,11.33,48.35,36.34H109.49L109.49,36.34z"/>
<path class="st0" d="M127.29,36.48l-0.06,3.35h-0.01l0.02,0.25c0.32,5.7,5.82,12.56,18.2,19.7c9.39-3.49,16.1-12.51,16.1-23.11
	c0-11.79-8.28-21.64-19.34-24.08C132.93,18.74,127.93,26.72,127.29,36.48z"/>
<path class="st0" d="M141.89,60.09c-0.59-0.34-1.15-0.68-1.71-1.02c-0.12-0.08-0.25-0.15-0.37-0.23c-0.5-0.31-0.98-0.62-1.46-0.93
	c-0.17-0.11-0.34-0.22-0.51-0.33c-0.44-0.29-0.87-0.58-1.29-0.87c-0.19-0.13-0.37-0.26-0.56-0.38c-0.39-0.28-0.77-0.55-1.14-0.83
	c-0.2-0.14-0.39-0.29-0.58-0.43c-0.35-0.27-0.69-0.53-1.02-0.8c-0.2-0.16-0.39-0.31-0.58-0.47c-0.31-0.26-0.61-0.51-0.9-0.77
	c-0.19-0.17-0.38-0.34-0.57-0.5c-0.27-0.25-0.54-0.49-0.8-0.74c-0.19-0.18-0.37-0.36-0.55-0.53c-0.24-0.24-0.47-0.48-0.7-0.72
	c-0.18-0.19-0.35-0.37-0.51-0.56c-0.21-0.23-0.41-0.47-0.61-0.7c-0.16-0.19-0.32-0.39-0.47-0.58c-0.18-0.23-0.36-0.45-0.52-0.68
	c-0.15-0.2-0.29-0.41-0.43-0.61c-0.15-0.22-0.3-0.43-0.44-0.65c-0.13-0.21-0.26-0.43-0.38-0.64c-0.12-0.21-0.24-0.41-0.35-0.62
	c-0.12-0.23-0.22-0.45-0.33-0.68c-0.09-0.2-0.19-0.39-0.27-0.59c-0.1-0.24-0.18-0.48-0.27-0.73c-0.06-0.18-0.14-0.36-0.19-0.54
	c-0.08-0.27-0.15-0.55-0.21-0.82c-0.03-0.15-0.08-0.29-0.11-0.44c-0.08-0.42-0.14-0.84-0.18-1.26h-8.72h-5.35h-0.18H0l196.31,39.9
	C172.91,74.24,154.37,67.31,141.89,60.09z"/>
</svg>
