<?xml version="1.0" encoding="utf-8"?>
<!-- Generator: Adobe Illustrator 25.4.1, SVG Export Plug-In . SVG Version: 6.00 Build 0)  -->
<svg version="1.1" id="Layer_1" xmlns="http://www.w3.org/2000/svg" xmlns:xlink="http://www.w3.org/1999/xlink" x="0px" y="0px"
	 viewBox="0 0 680.6 80.27" style="enable-background:new 0 0 680.6 80.27;" xml:space="preserve">
<style type="text/css">
	.st0{fill-rule:evenodd;clip-rule:evenodd;fill:#F02137;}
	.st1{fill:#F02137;}
</style>
<path class="st0" d="M109.49,36.34h14.4c0-0.04,0-0.08,0.01-0.12c0.04-0.59,0.1-1.17,0.18-1.74c0.02-0.19,0.06-0.38,0.09-0.56
	c0.06-0.38,0.11-0.76,0.18-1.14c0.04-0.22,0.09-0.44,0.14-0.66c0.07-0.34,0.14-0.68,0.22-1.01c0.06-0.23,0.12-0.45,0.18-0.68
	c0.09-0.32,0.17-0.64,0.27-0.95c0.07-0.23,0.15-0.45,0.23-0.68c0.1-0.31,0.21-0.61,0.32-0.91c0.08-0.23,0.18-0.45,0.27-0.67
	c0.12-0.3,0.24-0.59,0.37-0.89c0.1-0.22,0.2-0.44,0.3-0.65c0.14-0.29,0.28-0.58,0.43-0.86c0.11-0.21,0.23-0.43,0.34-0.64
	c0.16-0.28,0.32-0.57,0.48-0.85c0.12-0.21,0.25-0.41,0.38-0.61c0.18-0.28,0.36-0.56,0.55-0.83c0.13-0.2,0.27-0.39,0.41-0.59
	c0.2-0.28,0.4-0.55,0.61-0.82c0.14-0.19,0.28-0.37,0.43-0.56c0.22-0.28,0.45-0.55,0.69-0.82c0.15-0.17,0.3-0.35,0.45-0.52
	c0.25-0.28,0.51-0.56,0.78-0.83c0.15-0.16,0.3-0.32,0.45-0.47c0.29-0.29,0.59-0.58,0.9-0.86c0.14-0.13,0.28-0.27,0.42-0.4
	c0.35-0.32,0.72-0.64,1.09-0.95c0.11-0.09,0.21-0.18,0.32-0.27c0.99-0.81,2.03-1.6,3.15-2.36c7.92-5.42,19.01-9.45,33.24-12.09
	l-54.75-0.31C116.87,0,116.72,0,116.58,0C92.7,0,61.42,11.33,48.35,36.34H109.49L109.49,36.34z"/>
<path class="st0" d="M127.29,36.48l-0.06,3.35h-0.01l0.02,0.25c0.32,5.7,5.82,12.56,18.2,19.7c9.39-3.49,16.1-12.51,16.1-23.11
	c0-11.79-8.28-21.64-19.34-24.08C132.93,18.74,127.93,26.72,127.29,36.48z"/>
<path class="st0" d="M141.89,60.09c-0.59-0.34-1.15-0.68-1.71-1.02c-0.12-0.08-0.25-0.15-0.37-0.23c-0.5-0.31-0.98-0.62-1.46-0.93
	c-0.17-0.11-0.34-0.22-0.51-0.33c-0.44-0.29-0.87-0.58-1.29-0.87c-0.19-0.13-0.37-0.26-0.56-0.38c-0.39-0.28-0.77-0.55-1.14-0.83
	c-0.2-0.14-0.39-0.29-0.58-0.43c-0.35-0.27-0.69-0.53-1.02-0.8c-0.2-0.16-0.39-0.31-0.58-0.47c-0.31-0.26-0.61-0.51-0.9-0.77
	c-0.19-0.17-0.38-0.34-0.57-0.5c-0.27-0.25-0.54-0.49-0.8-0.74c-0.19-0.18-0.37-0.36-0.55-0.53c-0.24-0.24-0.47-0.48-0.7-0.72
	c-0.18-0.19-0.35-0.37-0.51-0.56c-0.21-0.23-0.41-0.47-0.61-0.7c-0.16-0.19-0.32-0.39-0.47-0.58c-0.18-0.23-0.36-0.45-0.52-0.68
	c-0.15-0.2-0.29-0.41-0.43-0.61c-0.15-0.22-0.3-0.43-0.44-0.65c-0.13-0.21-0.26-0.43-0.38-0.64c-0.12-0.21-0.24-0.41-0.35-0.62
	c-0.12-0.23-0.22-0.45-0.33-0.68c-0.09-0.2-0.19-0.39-0.27-0.59c-0.1-0.24-0.18-0.48-0.27-0.73c-0.06-0.18-0.14-0.36-0.19-0.54
	c-0.08-0.27-0.15-0.55-0.21-0.82c-0.03-0.15-0.08-0.29-0.11-0.44c-0.08-0.42-0.14-0.84-0.18-1.26h-8.72h-5.35h-0.18H0l196.31,39.9
	C172.91,74.24,154.37,67.31,141.89,60.09z"/>
<path class="st1" d="M280.58,26.5c11.54,0,20.1,10.78,17.74,22.12h-26.26c0,4.09,4.71,6.98,8.31,6.98h17.59v7.65H279.2v-0.05
	c-9.37-0.71-16.75-8.64-16.75-18.32C262.45,34.72,270.57,26.5,280.58,26.5z M289.73,41.22c0.3-11.4-18.33-11.11-17.75,0H289.73z
	 M623.41,26.5c11.53,0,20.09,10.78,17.74,22.12h-26.26c0,4.09,4.71,6.98,8.31,6.98h17.59v7.65h-18.75v-0.05
	c-9.37-0.71-16.75-8.64-16.75-18.32C605.28,34.72,613.39,26.5,623.41,26.5z M632.56,41.22c0.29-11.4-18.33-11.11-17.75,0H632.56z
	 M563.74,11.74c4.07,0,7.38,2.3,7.38,5.12c0,2.83-3.3,5.13-7.38,5.13c-4.07,0-7.38-2.3-7.38-5.13
	C556.37,14.03,559.67,11.74,563.74,11.74z M504.11,11.74c4.07,0,7.38,2.3,7.38,5.12c0,2.83-3.31,5.13-7.38,5.13
	c-4.07,0-7.38-2.3-7.38-5.13C496.74,14.03,500.04,11.74,504.11,11.74z M645.84,55.8h20.26c1.79,0,3.1-0.28,3.92-0.84
	c0.82-0.56,1.23-1.46,1.23-2.69c0-1.23-0.41-2.13-1.25-2.69c-0.84-0.57-2.14-0.86-3.91-0.86h-8.3c-4.91,0-8.24-0.74-9.98-2.24
	c-1.72-1.5-2.59-4.17-2.59-8c0-3.89,1.05-6.76,3.13-8.6c2.1-1.83,5.33-2.75,9.72-2.75h20.64v7.55h-16.96c-2.76,0-4.56,0.24-5.4,0.72
	c-0.83,0.48-1.24,1.34-1.24,2.57c0,1.12,0.37,1.95,1.1,2.47c0.73,0.53,1.88,0.79,3.45,0.79h8.7c3.98,0,7.02,0.93,9.1,2.77
	c2.1,1.84,3.14,4.51,3.14,8c0,3.35-0.93,6.08-2.79,8.19c-1.85,2.1-4.24,3.15-7.17,3.15h-24.81V55.8z M572.37,27.14h16.91
	c5.11,0,8.76,1.02,10.94,3.07c2.19,2.05,3.28,5.44,3.28,10.18v22.96h-8.99V41.56c0-2.7-0.4-4.46-1.18-5.27
	c-0.79-0.8-2.37-1.2-4.75-1.2h-7.22v28.26h-8.99V27.14z M568.62,63.24h-9.34V27.03h9.34V63.24z M554.66,63.24h-9.28V13.9h9.28V63.24
	z M513.03,27.03h16.73c3.91,0,6.65,0.67,8.23,2.03c1.57,1.35,2.36,3.73,2.36,7.09v6.05h-9.5v-4.67c0-1.41-0.26-2.36-0.79-2.84
	c-0.53-0.48-1.72-0.72-3.58-0.72h-3.49v29.27h-9.96V27.03z M508.48,63.24h-9.34V27.03h9.34V63.24z M463.1,14.24h10.86l20.78,49.01
	h-11.4l-4.46-11.67h-21.17l-4.35,11.67h-10.87L463.1,14.24z M468.13,23.98L461,42.84h14.52L468.13,23.98z M377.08,27.14h36.65
	c5.3,0,9.13,1.04,11.48,3.11c2.34,2.09,3.52,5.47,3.52,10.14v22.96h-9.61V41.63c0-2.66-0.4-4.41-1.2-5.27
	c-0.81-0.85-2.46-1.27-4.96-1.27h-5.35v28.26h-9.75V35.09H386.7v28.26h-9.62V27.14z M339,14.01h9.88v13.13h8.83
	c5.54,0,9.56,1.04,12.04,3.14c2.48,2.09,3.72,5.46,3.72,10.12v22.96h-10.02V41.5c0-2.49-0.48-4.18-1.42-5.08
	c-0.94-0.89-2.68-1.34-5.22-1.34h-7.93v28.26H339V14.01z M302.2,55.7h19.81c1.76,0,3.04-0.28,3.84-0.84c0.8-0.56,1.2-1.46,1.2-2.69
	c0-1.23-0.41-2.13-1.22-2.69c-0.82-0.57-2.09-0.86-3.82-0.86h-8.11c-4.8,0-8.06-0.75-9.76-2.25c-1.69-1.5-2.53-4.17-2.53-8
	c0-3.89,1.02-6.76,3.06-8.59c2.05-1.84,5.21-2.75,9.5-2.75h20.18v7.55h-16.59c-2.7,0-4.46,0.24-5.28,0.72
	c-0.81,0.48-1.22,1.34-1.22,2.57c0,1.12,0.36,1.95,1.07,2.47c0.72,0.53,1.85,0.79,3.38,0.79h8.51c3.89,0,6.87,0.93,8.9,2.77
	c2.05,1.85,3.08,4.51,3.08,8c0,3.35-0.91,6.08-2.73,8.19c-1.81,2.1-4.15,3.15-7.01,3.15H302.2V55.7z M246.83,38.1
	c0-5.73-1.19-9.96-3.57-12.7c-2.4-2.73-6.06-4.1-11.01-4.1c-4.94,0-8.6,1.37-10.97,4.1c-2.37,2.74-3.57,6.97-3.57,12.7
	c0,5.71,1.19,9.95,3.57,12.69c2.37,2.75,6.03,4.12,10.97,4.12C243.18,54.91,246.83,48.18,246.83,38.1z M232.25,63.24
	c-9.18,0-15.97-2.06-20.37-6.17c-4.39-4.11-6.59-10.44-6.59-18.96c0-8.53,2.2-14.85,6.6-18.94c4.39-4.08,11.18-6.14,20.36-6.14
	c9.16,0,15.94,2.05,20.33,6.14c4.4,4.09,6.6,10.41,6.6,18.94c0,3.56-0.39,6.75-1.18,9.57c-0.75,2.72-1.86,5.07-3.31,7.06h8.02v8.5
	H232.25"/>
</svg>
