<?xml version="1.0" encoding="utf-8"?>
<!-- Generator: Adobe Illustrator 25.4.1, SVG Export Plug-In . SVG Version: 6.00 Build 0)  -->
<svg version="1.1" id="Layer_1" xmlns="http://www.w3.org/2000/svg" xmlns:xlink="http://www.w3.org/1999/xlink" x="0px" y="0px"
	 viewBox="0 0 108.9 80" style="enable-background:new 0 0 108.9 80;" xml:space="preserve">
<style type="text/css">
	.st0{fill:#C22727;}
	.st1{fill:url(#SVGID_1_);}
	.st2{fill:url(#SVGID_00000167383118748007798120000012637063799585332914_);}
</style>
<g>
	<path class="st0" d="M77.2,53.5c-4.7,7.1-12.8,11.7-22,11.7c-14.5,0-26.3-11.6-26.3-25.9c0-14.3,11.8-25.9,26.3-25.9
		c6.6,0,12.6,2.4,17.2,6.3l8.4-10.6C73.9,3.4,64.9,0,55.2,0c-22.1,0-40,17.6-40,39.3s17.9,39.3,40,39.3c14.7,0,27.5-7.8,34.5-19.4
		L77.2,53.5z"/>
	<radialGradient id="SVGID_1_" cx="26.7272" cy="52.967" r="24.9643" gradientUnits="userSpaceOnUse">
		<stop  offset="0" style="stop-color:#F3E01A"/>
		<stop  offset="0.7445" style="stop-color:#F7AC1B"/>
	</radialGradient>
	<polygon class="st1" points="35,48.4 39.1,29.2 24.1,42.1 6.6,31.8 14,50.3 0,64 19.5,62.1 27.8,80 32.2,60.7 51.9,59.1 	"/>
	
		<radialGradient id="SVGID_00000071557795450473418920000011272289887957964707_" cx="133.1466" cy="-13.8203" r="142.3024" gradientUnits="userSpaceOnUse">
		<stop  offset="0" style="stop-color:#67A240"/>
		<stop  offset="0.7445" style="stop-color:#186331"/>
	</radialGradient>
	<path style="fill:url(#SVGID_00000071557795450473418920000011272289887957964707_);" d="M36.6,48c0,0,13.8-3.4,15.6-4.1
		c1.8-0.7,4.6-3.1,4.6-3.1s0.1,1.4-0.4,2.1c0,0,6.5-0.4,9.7-4.1c0,0,0.3,1.1,0,1.6c0,0,3.1-0.2,7.6-3.5c4.6-3.3,3.4-0.7,3.1,0
		c-0.4,0.7-2.2,4-2.4,5c0,0-8.4,5.9-9.4,8.7c0,0,9.6-3.3,13.6-3.7c0,0,1.6,0,2.7-1.4c1.1-1.4,4.5-5.3,5.4-6.7c0.9-1.4,2.6-5,4.3-9.8
		c1.7-4.8,3.3-7.6,5.8-10.3c2.6-2.6,12-12.6,12-12.6l-0.3-0.6c0,0-0.2,0.2-0.5,0.4c-0.2,0.2-3.4,3.1-5,3.7s-3.6,0.2-6.5,3.2
		c0,0-1,1.4-2.6,4c-1.6,2.6-6.5,4.1-9.6,4.7c-3.1,0.6-13.9,2.2-25.3,9.1S36.6,48,36.6,48z"/>
</g>
</svg>
