<?xml version="1.0" encoding="utf-8"?>
<!-- Generator: Adobe Illustrator 25.4.1, SVG Export Plug-In . SVG Version: 6.00 Build 0)  -->
<svg version="1.1" id="Layer_1" xmlns="http://www.w3.org/2000/svg" xmlns:xlink="http://www.w3.org/1999/xlink" x="0px" y="0px"
	 viewBox="0 0 567 80" style="enable-background:new 0 0 567 80;" xml:space="preserve">
<style type="text/css">
	.st0{fill:#C22727;}
	.st1{fill:#186331;}
	.st2{fill:url(#SVGID_1_);}
	.st3{fill:url(#SVGID_00000178926477553111573200000005969069670987202453_);}
</style>
<path class="st0" d="M75.6,54.1C71,61,63.1,65.6,54,65.6c-14.2,0-25.8-11.4-25.8-25.4c0-14,11.5-25.4,25.8-25.4
	c6.4,0,12.3,2.3,16.9,6.2l8.2-10.4c-6.8-5.6-15.5-9-25.1-9c-21.6,0-39.1,17.2-39.1,38.5S32.4,78.7,54,78.7c14.4,0,27-7.6,33.7-19
	L75.6,54.1z"/>
<g>
	<path class="st1" d="M149.9,69.3c-12.4-2.5-22.1-15.4-22.1-30c0-14.6,10.4-24.4,21-27.8c10.6-3.4,18.1,1.6,18.1,1.6l1.8-8.4
		c0,0,0.5-2.9-15.4-1.6c-16,1.3-27.1,11.1-30.9,19.6s-8.6,23.7,2,39.7s24.3,16,32.2,15.3c7.9-0.7,14.9-1.1,14.9-1.1l1.6-9
		C173.1,67.5,162.3,71.9,149.9,69.3z"/>
	<path class="st1" d="M486.4,69.3c-12.4-2.5-22.1-15.4-22.1-30c0-14.6,10.4-24.4,21-27.8c10.6-3.4,18.1,1.6,18.1,1.6l1.8-8.4
		c0,0,0.5-2.9-15.4-1.6c-16,1.3-27.1,11.1-30.9,19.6s-8.6,23.7,2,39.7s24.3,16,32.2,15.3s14.9-1.1,14.9-1.1l1.6-9
		C509.6,67.5,498.8,71.9,486.4,69.3z"/>
	<path class="st1" d="M220.5,50.5c0.2-6.3,1.8-20.5-7.7-26.2c-9.5-5.7-32.9-1.3-32.9-1.3l-0.9,9c0,0,12.8-4.1,21.6-2.3
		c8.8,1.8,11.5,3.4,10.4,14.4c0,0-5.7-1.1-16.7,1.1c-11,2.2-18,10.1-18,18.3s6.1,15.4,17.1,15.4c11,0,18-6.8,18-6.8
		c-0.2,2.2,1.1,4.9,1.1,4.9h9.3C219.6,74.6,220.4,56.8,220.5,50.5z M211,66.1c0,0-7.4,5.6-16.3,4.3c-9-1.3-9.3-7.2-8.3-11.3
		c1.1-4.1,8.4-10.1,24.6-8.3C211,50.8,210.7,60.2,211,66.1z"/>
	<path class="st1" d="M361.2,50.5c0.2-6.3,1.8-20.5-7.7-26.2c-9.5-5.7-32.9-1.3-32.9-1.3l-0.9,9c0,0,12.8-4.1,21.6-2.3
		c8.8,1.8,11.5,3.4,10.4,14.4c0,0-5.7-1.1-16.7,1.1s-18,10.1-18,18.3s6.1,15.4,17.1,15.4c11,0,18-6.8,18-6.8
		c-0.2,2.2,1.1,4.9,1.1,4.9h9.3C360.3,74.6,361,56.8,361.2,50.5z M351.7,66.1c0,0-7.4,5.6-16.3,4.3c-9-1.3-9.3-7.2-8.3-11.3
		c1.1-4.1,8.4-10.1,24.6-8.3C351.7,50.8,351.3,60.2,351.7,66.1z"/>
	<path class="st1" d="M309.8,39.3c0.4-9.2-2.3-15-14-18c-11.7-2.9-22.6,8-22.6,8s0.4-5.2-12.8-8c-13.1-2.7-21.2,7.4-21.2,7.4
		c0.2-3.1-1.3-7.4-1.3-7.4l-9.9,1.7c0,0,2.2,8.6,2.9,19c0.7,10.4-1.1,34.7-1.1,34.7h9.9c0.9-5.7,0.4-41.9,0.4-41.9
		c10.8-8.8,25.3-8.3,25.9,7.9c0.5,16.2-1.3,34-1.3,34h11c-1.3-9.5,0-41.5,0-41.5c3.8-6.3,12.8-6.8,19.8-4.7c7,2.2,4.9,16.2,4.9,16.2
		c0.4,9.2-0.9,30-0.9,30h10.4C309.9,76.7,309.5,48.5,309.8,39.3z"/>
	<ellipse transform="matrix(0.9732 -0.2298 0.2298 0.9732 8.5457 87.0481)" class="st1" cx="378.1" cy="6.8" rx="6.8" ry="6.8"/>
	<path class="st1" d="M371.3,23.7c0,0,1.6,12,2,25.1c0.4,13-1.1,27.9-1.1,27.9h9.9c-0.9-9.7,0-54.4,0-54.4L371.3,23.7z"/>
	<path class="st1" d="M419.6,21.9c-3.1-1.4-8.4-0.3-11.7,2.2c-2.1,1.7-4.6,5.1-6,7.2c0-5.6-0.1-9.4-0.1-9.4L391,23.3
		c0,0,2.7,12.4,3.1,25.5c0.4,13-1.1,27.9-1.1,27.9h9.9c-0.5-5.2-0.8-20.5-0.9-33.6c0.2-2.6,1.1-6.9,5.3-9.8
		c6.3-4.4,15.2-2.6,16.4-1.3l3.2-8.7C426.9,23.2,422.6,23.3,419.6,21.9z"/>
	<path class="st1" d="M424.9,44.6c0,0,0,5.7-0.6,7.1c0,0,22.1-0.3,24.3-0.4c0,0,1-6.2,0-7.5L424.9,44.6z"/>
	<path class="st1" d="M540.3,20.5c-12.6,0.5-25.7,12.3-26.6,28.7C512.5,70.1,525.6,79,540.3,79C555,79,567,65.7,567,49.2
		C567,32.8,555,19.9,540.3,20.5z M540.3,71.7c-9.3,0-16.8-6.7-16.9-22.4c0-14.7,8.9-21.2,16.9-21.6c9.3-0.5,16.9,9.2,16.9,21.6
		C557.2,61.7,549.6,71.7,540.3,71.7z"/>
</g>
<radialGradient id="SVGID_1_" cx="26.1677" cy="53.5329" r="24.4417" gradientUnits="userSpaceOnUse">
	<stop  offset="0" style="stop-color:#F3E01A"/>
	<stop  offset="0.7445" style="stop-color:#F7AC1B"/>
</radialGradient>
<polygon class="st2" points="34.3,49.1 38.3,30.2 23.6,42.9 6.5,32.8 13.7,51 0,64.3 19.1,62.5 27.2,80 31.5,61.1 50.8,59.6 "/>
<radialGradient id="SVGID_00000047018146166904116350000007478460132884986277_" cx="130.3593" cy="-11.8563" r="139.3234" gradientUnits="userSpaceOnUse">
	<stop  offset="0" style="stop-color:#67A240"/>
	<stop  offset="0.7445" style="stop-color:#186331"/>
</radialGradient>
<path style="fill:url(#SVGID_00000047018146166904116350000007478460132884986277_);" d="M35.9,48.7c0,0,13.5-3.3,15.3-4
	c1.8-0.7,4.6-3,4.6-3s0.1,1.3-0.4,2.1c0,0,6.4-0.4,9.5-4c0,0,0.3,1,0,1.6c0,0,3-0.1,7.5-3.4c4.5-3.2,3.4-0.7,3,0s-2.1,3.9-2.3,4.9
	c0,0-8.3,5.7-9.3,8.5c0,0,9.4-3.3,13.3-3.6c0,0,1.5,0,2.6-1.3c1.1-1.3,4.4-5.1,5.3-6.6s2.6-4.9,4.3-9.6c1.7-4.7,3.2-7.5,5.7-10.1
	s11.7-12.3,11.7-12.3l-0.3-0.6c0,0-0.2,0.1-0.5,0.4c-0.2,0.2-3.3,3.1-4.9,3.6c-1.5,0.5-3.5,0.1-6.3,3.1c0,0-1,1.4-2.6,3.9
	s-6.4,4-9.4,4.6c-3.1,0.5-13.6,2.2-24.8,8.9S35.9,48.7,35.9,48.7z"/>
</svg>
