<?xml version="1.0" encoding="utf-8"?>
<!-- Generator: Adobe Illustrator 25.4.1, SVG Export Plug-In . SVG Version: 6.00 Build 0)  -->
<svg version="1.1" id="Layer_1" xmlns="http://www.w3.org/2000/svg" xmlns:xlink="http://www.w3.org/1999/xlink" x="0px" y="0px"
	 viewBox="0 0 95.87 80" style="enable-background:new 0 0 95.87 80;" xml:space="preserve">
<style type="text/css">
	.st0{fill:url(#SVGID_1_);}
</style>
<linearGradient id="SVGID_1_" gradientUnits="userSpaceOnUse" x1="47.9363" y1="87.04" x2="47.9363" y2="44.9361">
	<stop  offset="0.2112" style="stop-color:#00247E"/>
	<stop  offset="1" style="stop-color:#DC021F"/>
</linearGradient>
<path class="st0" d="M83.11,28.49c0,0,4.88,15.86,1.93,25.32c-2.95,9.46-10.62,14.84-21.24,17.78c-10.62,2.94-14.41,6.65-14.41,6.65
	V67.63c0,0,13.77,1.79,19.4-12.92c5.63-14.71-2.11-25.58,6.37-39.52c0,0-15.19,4.35-15.19,19.31s0.3,22.64-2.6,26.35
	c-2.9,3.71-4.22,5.37-7.97,5.37V9.9c0-6.64,13.92-6.4,13.2-0.01c-0.2,1.78-1.43,3.85-3.39,3.85c-3.33,0-5.8-2.13-5.8-2.13
	s1.36,5.37,5.71,5.37s7.67-3.58,7.67-6.91C66.78,6.75,64.56,0,57.15,0s-9.21,6.06-9.21,6.06S46.15,0,38.73,0s-9.64,6.75-9.64,10.07
	c0,3.33,3.33,6.91,7.67,6.91s5.71-5.37,5.71-5.37s-2.47,2.13-5.8,2.13c-1.96,0-3.19-2.07-3.39-3.85c-0.72-6.39,13.2-6.63,13.2,0.01
	v56.32c-3.75,0-5.07-1.66-7.97-5.37c-2.9-3.71-2.6-11.38-2.6-26.35S20.72,15.19,20.72,15.19c8.47,13.94,0.74,24.81,6.37,39.52
	s19.4,12.92,19.4,12.92v10.62c0,0-3.79-3.71-14.41-6.65c-10.62-2.94-18.29-8.31-21.24-17.78c-2.95-9.46,1.93-25.32,1.93-25.32
	S0,32.58,0,49.85s16.98,22.77,28.19,23.28c11.2,0.51,18.3,6.87,18.3,6.87h2.9c0,0,7.1-6.36,18.3-6.87
	c11.2-0.51,28.19-6.01,28.19-23.28S83.11,28.49,83.11,28.49z"/>
</svg>
