<?xml version="1.0" encoding="utf-8"?>
<!-- Generator: Adobe Illustrator 25.4.1, SVG Export Plug-In . SVG Version: 6.00 Build 0)  -->
<svg version="1.1" id="Layer_1" xmlns="http://www.w3.org/2000/svg" xmlns:xlink="http://www.w3.org/1999/xlink" x="0px" y="0px"
	 viewBox="0 0 392.31 80" style="enable-background:new 0 0 392.31 80;" xml:space="preserve">
<style type="text/css">
	.st0{fill:url(#SVGID_1_);}
	.st1{fill:#B80023;}
</style>
<g>
	<linearGradient id="SVGID_1_" gradientUnits="userSpaceOnUse" x1="47.9363" y1="87.04" x2="47.9363" y2="44.9361">
		<stop  offset="0.2112" style="stop-color:#00247E"/>
		<stop  offset="1" style="stop-color:#DC021F"/>
	</linearGradient>
	<path class="st0" d="M83.11,28.49c0,0,4.88,15.86,1.93,25.32c-2.95,9.46-10.62,14.84-21.24,17.78
		c-10.62,2.94-14.41,6.65-14.41,6.65V67.63c0,0,13.77,1.79,19.4-12.92c5.63-14.71-2.11-25.58,6.37-39.52c0,0-15.19,4.35-15.19,19.31
		s0.3,22.64-2.6,26.35c-2.9,3.71-4.22,5.37-7.97,5.37V9.9c0-6.64,13.92-6.4,13.2-0.01c-0.2,1.78-1.43,3.85-3.39,3.85
		c-3.33,0-5.8-2.13-5.8-2.13s1.36,5.37,5.71,5.37s7.67-3.58,7.67-6.91C66.78,6.75,64.56,0,57.15,0s-9.21,6.06-9.21,6.06
		S46.15,0,38.73,0s-9.64,6.75-9.64,10.07c0,3.33,3.33,6.91,7.67,6.91s5.71-5.37,5.71-5.37s-2.47,2.13-5.8,2.13
		c-1.96,0-3.19-2.07-3.39-3.85c-0.72-6.39,13.2-6.63,13.2,0.01v56.32c-3.75,0-5.07-1.66-7.97-5.37c-2.9-3.71-2.6-11.38-2.6-26.35
		S20.72,15.19,20.72,15.19c8.47,13.94,0.74,24.81,6.37,39.52s19.4,12.92,19.4,12.92v10.62c0,0-3.79-3.71-14.41-6.65
		c-10.62-2.94-18.29-8.31-21.24-17.78c-2.95-9.46,1.93-25.32,1.93-25.32S0,32.58,0,49.85s16.98,22.77,28.19,23.28
		c11.2,0.51,18.3,6.87,18.3,6.87h2.9c0,0,7.1-6.36,18.3-6.87c11.2-0.51,28.19-6.01,28.19-23.28S83.11,28.49,83.11,28.49z"/>
	<g>
		<rect x="231.86" y="28.32" class="st1" width="3.41" height="31.63"/>
		<polygon class="st1" points="276.03,28.32 272.61,28.32 272.61,59.95 273.64,59.95 276.03,59.95 293.76,59.95 293.76,57.45 
			276.03,57.45 		"/>
		<rect x="298.79" y="28.32" class="st1" width="3.41" height="31.63"/>
		<polygon class="st1" points="330.26,54.07 310.98,28.32 307.57,28.32 307.57,59.95 310.98,59.95 310.98,33.69 330.26,59.95 
			333.67,59.95 333.67,28.32 330.26,28.32 		"/>
		<polygon class="st1" points="339.21,28.32 339.21,30.82 339.21,42.89 339.21,45.38 339.21,57.45 339.21,59.95 342.62,59.95 
			363.14,59.95 363.14,57.45 342.62,57.45 342.62,45.38 363.14,45.38 363.14,42.89 342.62,42.89 342.62,30.82 363.14,30.82 
			363.14,28.32 342.62,28.32 		"/>
		<path class="st1" d="M259.01,45.97c0.72,0,8.38-1.53,8.38-9.27c0-7.74-8.38-8.38-8.38-8.38h-14.02h-1.71h-1.71v31.63h3.41V45.97
			h8.61l11.77,13.98h3.58l-11.7-13.98H259.01z M244.99,43.47V30.82h14.02c1.75,0,4.65,1.59,4.65,6.33s-4.65,6.33-4.65,6.33H244.99z"
			/>
		<path class="st1" d="M211.22,28.32c0,0-13.13,31.04-13.47,31.63h3.67l3.99-9.38h15.45l3.84,9.38h3.75l-13.39-31.63H211.22z
			 M206.47,48.07l6.8-16l6.56,16H206.47z"/>
		<path class="st1" d="M379.48,41.79c-5.34-1.28-8.28-3.39-8.28-5.88s2.69-5.56,7.03-5.56c4.35,0,9.34,3.71,9.72,6.4h2.75
			c0,0-0.9-8.83-12.02-8.83c-11.13,0-11.13,7.8-11.06,8.83c0.06,1.02,1.34,5.12,10.04,7.93c8.7,2.81,10.68,4.54,10.68,6.65
			c0,2.11-2.69,6.71-6.71,6.71s-11.32-1.34-13.37-5.05l-1.6-1.92c0,0-0.38,3.77,3.9,6.65c4.28,2.88,8.7,2.69,11.51,2.49
			c2.81-0.19,10.23-2.94,10.23-8.7S384.82,43.07,379.48,41.79z"/>
		<path class="st1" d="M142.5,39.05c0-3.56,0-7.13,0-10.73h-3.41v21.01c0,0-0.26,8.67-6.57,8.67c-6.31,0-8.27-4.01-8.27-4.01h-1.02
			c0,0.85,2.64,6.31,10.57,6.31c3.23,0,5.84-1.77,7.3-4.6c1.48-2.85,1.49-6.07,1.42-9.2C142.46,44.02,142.5,41.53,142.5,39.05z"/>
		<path class="st1" d="M163.6,56.8c-6.59,0-11.93-5.82-11.93-12.99s5.34-12.99,11.93-12.99c3.66,0,7.37,2.87,8.24,6.33h2.8
			c-1.45-5.67-6.69-9.48-12.66-9.48c-8.45,0-15.31,7.23-15.31,16.14s6.85,16.14,15.31,16.14c6.5,0,12.04-2.44,14.26-9.04h-1.86
			C172.53,54.82,167.89,56.8,163.6,56.8z"/>
	</g>
</g>
</svg>
