<svg width="452" height="80" viewBox="0 0 452 80" fill="none" xmlns="http://www.w3.org/2000/svg">
<path fill-rule="evenodd" clip-rule="evenodd" d="M111.764 79.99L46.444 13.946C37.752 5.196 25.94 0 13.648 0H0L1.02 2.666L5.568 14.63L30.284 79.99H111.764Z" fill="url(#paint0_linear_709_2754)"/>
<path fill-rule="evenodd" clip-rule="evenodd" d="M40.5142 55.212C40.6502 56.166 41.4002 56.984 42.3542 57.12C55.8882 59.234 69.0182 64.82 80.4462 74.024C80.5142 74.092 80.5822 74.092 80.7202 74.092C80.7902 74.092 80.9262 74.024 80.9942 73.956C81.1302 73.82 81.1302 73.546 80.9942 73.41C73.1022 65.096 63.3742 58.416 52.5582 54.054L49.2222 52.69C47.5222 52.01 46.3662 50.304 46.3662 48.396C46.5702 41.308 63.3062 42.736 65.0062 39.332L65.2762 38.718C61.8062 35.784 57.7242 33.538 53.2362 32.308C53.1662 32.514 53.0962 33.328 53.9822 34.828C55.0022 36.468 52.8942 39.056 49.8322 36.262L49.5602 36.058C26.9782 15.2 9.97219 26 0.992188 2.62399L5.54819 14.544C14.4602 29.812 37.9282 31.424 40.5142 55.212Z" fill="white"/>
<path fill-rule="evenodd" clip-rule="evenodd" d="M53.9759 34.8C54.3099 35.336 54.3079 36.034 54.0359 36.57C53.7519 37.122 53.1799 37.504 52.4219 37.504V43.08C54.8699 42.4 57.6619 41.92 59.9719 41.444V38.308C59.9719 38.308 56.2199 38.548 53.9759 34.798V34.8Z" fill="url(#paint1_linear_709_2754)"/>
<path fill-rule="evenodd" clip-rule="evenodd" d="M45.0703 57.6C57.5903 59.98 69.7663 65.436 80.3783 73.956C56.6383 53.712 45.8883 57.324 45.0723 57.596L45.0703 57.6Z" fill="url(#paint2_linear_709_2754)"/>
<path fill-rule="evenodd" clip-rule="evenodd" d="M0.992188 2.66L5.55219 14.588C14.4622 29.856 37.9322 31.492 40.5162 55.28C37.8642 24.88 24.5962 29.38 10.3122 15.612C6.63819 12.952 3.51219 9.136 0.992188 2.66Z" fill="url(#paint3_linear_709_2754)"/>
<path fill-rule="evenodd" clip-rule="evenodd" d="M94.3457 45.686C94.3457 34.726 105.426 26.28 121.866 26.28C138.236 26.28 149.386 34.726 149.386 45.266C149.386 49.946 147.294 53.852 143.322 57.066H153.076L150.776 61.042C149.312 63.558 147.5 65.092 143.596 65.002L121.376 65.092C104.864 65.092 94.3438 56.506 94.3438 45.688L94.3457 45.686ZM121.798 56.296C130.782 56.296 138.446 51.828 138.446 45.686C138.446 39.542 130.852 35.074 121.796 35.074C112.806 35.074 105.142 39.542 105.142 45.686C105.142 51.826 112.806 56.296 121.794 56.296H121.798ZM167.998 58L163.874 65H153.074L171.12 33.82C172.514 31.374 174.604 29.42 178.646 29H182.686C186.796 29.42 188.816 31.306 190.21 33.82L208.254 65H197.246L192.998 58H167.998ZM189.162 51L181.152 36.47C180.942 36.122 180.802 36.05 180.524 36.05C180.244 36.05 180.104 36.122 179.898 36.47L171.958 51H189.162ZM259.998 65H250.052L221.998 41.426V65H211.998V29H218.214C221.28 29.42 222.882 30.26 224.624 31.724L249.998 53.014V29H259.998V65ZM293.998 65H283.998V37H263.998V29H313.998V37H293.998V65ZM319.998 58L316.026 65H305.226L323.272 33.82C324.664 31.374 326.752 29.42 330.796 29H334.836C338.944 29.42 340.964 31.306 342.356 33.82L360.402 65H349.398L344.998 58H319.998ZM341.384 51L333.374 36.47C333.164 36.122 333.024 36.05 332.746 36.05C332.466 36.05 332.326 36.122 332.12 36.47L324.18 51H341.386H341.384ZM362.912 62.228L365.352 54.48C372.316 56.714 379.702 57.62 386.392 57.62C397.328 57.62 400.044 56.366 400.044 54.97C400.044 54.41 399.696 53.99 398.79 53.71C397.676 53.364 394.68 52.736 385.69 51.27C375.8 49.664 371.27 48.826 367.998 47.29C364.724 45.754 362.702 43.31 362.702 39.75C362.702 37.03 364.026 34.866 366.186 33.12C370.018 30.188 376.496 29 383.534 29C392.66 29 400.322 29.77 408.822 31.864L409.588 32.074L407.568 39.614C398.094 37.588 392.798 37.03 385.554 36.89C380.468 36.82 376.984 37.238 375.104 37.798C374.058 38.144 373.64 38.632 373.64 39.192C373.64 39.752 373.99 40.168 375.036 40.518C376.15 40.866 378.032 41.358 387.784 42.89C398.304 44.636 401.788 45.334 404.714 46.45C408.684 47.986 411.054 50.778 411.054 54.27C411.054 58.666 407.64 61.95 401.718 63.762C398.094 64.882 393.148 65.508 387.644 65.508C378.936 65.578 369.74 64.46 363.818 62.508L362.912 62.228Z" fill="black"/>
<defs>
<linearGradient id="paint0_linear_709_2754" x1="70.8114" y1="79.6908" x2="40.1043" y2="-8.46131" gradientUnits="userSpaceOnUse">
<stop stop-color="#BE0000"/>
<stop offset="0.3898" stop-color="#DE0000"/>
<stop offset="0.768" stop-color="#F60000"/>
<stop offset="1" stop-color="#FF0000"/>
</linearGradient>
<linearGradient id="paint1_linear_709_2754" x1="56.5675" y1="38.939" x2="56.5675" y2="35.4619" gradientUnits="userSpaceOnUse">
<stop stop-color="white" stop-opacity="0"/>
<stop offset="0.51203" stop-color="#E0E0E0" stop-opacity="0.262"/>
<stop offset="0.66549" stop-color="#C5C5C5" stop-opacity="0.549"/>
<stop offset="0.82415" stop-color="#B5B5B5" stop-opacity="0.805"/>
<stop offset="1" stop-color="#AFAFAF"/>
</linearGradient>
<linearGradient id="paint2_linear_709_2754" x1="45.0841" y1="65.5963" x2="76.8645" y2="65.5963" gradientUnits="userSpaceOnUse">
<stop stop-color="white" stop-opacity="0"/>
<stop offset="0.08391" stop-color="#F1F1F1" stop-opacity="0.093"/>
<stop offset="0.24826" stop-color="#D4D4D4" stop-opacity="0.325"/>
<stop offset="0.44531" stop-color="#C0C0C0" stop-opacity="0.555"/>
<stop offset="0.7032" stop-color="#B3B3B3" stop-opacity="0.781"/>
<stop offset="1" stop-color="#AFAFAF"/>
</linearGradient>
<linearGradient id="paint3_linear_709_2754" x1="10.8558" y1="28.9048" x2="40.4585" y2="28.9048" gradientUnits="userSpaceOnUse">
<stop stop-color="white" stop-opacity="0"/>
<stop offset="0.28583" stop-color="#EDEDED" stop-opacity="0.282"/>
<stop offset="0.886" stop-color="#BDBDBD" stop-opacity="0.848"/>
<stop offset="1" stop-color="#AFAFAF"/>
</linearGradient>
</defs>
</svg>
