<?xml version="1.0" encoding="utf-8"?>
<!-- Generator: Adobe Illustrator 25.4.1, SVG Export Plug-In . SVG Version: 6.00 Build 0)  -->
<svg version="1.1" xmlns="http://www.w3.org/2000/svg" xmlns:xlink="http://www.w3.org/1999/xlink" x="0px" y="0px"
	 viewBox="0 0 353.07 80" style="enable-background:new 0 0 353.07 80;" xml:space="preserve">
<style type="text/css">
	.st0{clip-path:url(#SVGID_00000086664047038095320500000013219731715147625363_);}
	.st1{fill:#0C803D;}
	.st2{fill:#54B149;}
	.st3{fill:#CDD745;}
</style>
<g id="Layer_2">
</g>
<g id="Layer_1">
	<g>
		<g>
			<defs>
				<path id="SVGID_1_" d="M334.65,19.6h16.73c1.45,0,2.24,1.71,1.27,2.79l-22.8,25.86c1.04,2.31,2.09,4.62,3.17,6.93
					c3.17,6.93,6.33,13.86,9.5,20.79c1.01,2.16,0.37,3.17-1.97,3.17c-5.4,0-10.8,0-16.21,0c-2.5,0-2.91-0.26-3.84-2.61
					c-2.68-6.97-5.36-13.93-8.05-20.86c-0.19-0.52-0.41-1.01-0.75-1.75c-1.19,6.74-2.31,13.19-3.43,19.63
					c-0.19,1.08-0.37,2.2-0.6,3.28c-0.3,1.45-1.38,2.31-2.87,2.31c-4.84,0-9.69,0-14.53,0c-1.75,0-2.53-0.93-2.24-2.68
					c2.05-11.77,4.14-23.55,6.22-35.32c2.16-12.41,4.36-24.81,6.48-37.18c0.04-0.26,0.07-0.48,0.15-0.75
					c0.41-1.86,2.05-3.17,3.95-3.17h13.86c1.27,0,2.27,1.08,2.16,2.31c0,0.19-0.04,0.37-0.07,0.56l-7.41,40.87l18.85-23.02
					C332.79,20.01,333.68,19.6,334.65,19.6z M273.63,79.09c2.05,0,2.98-0.82,3.35-2.76c1.56-8.79,3.17-17.55,4.66-26.34
					c0.78-4.55,1.86-9.02,1.79-13.67c-0.19-8.46-4.88-14.53-13.15-16.43c-7.82-1.83-15.72-1.53-23.55,0.11
					c-4.43,0.93-8.23,3.09-11.14,6.67c-2.79,3.5-4.43,7.53-5.25,11.85c-1.6,8.27-3.02,16.54-4.47,24.81
					c-0.78,4.36-1.56,8.68-2.24,13.04c-0.34,2.05,0.34,2.72,2.42,2.72c4.69,0,9.39,0,14.12,0c1.68,0,2.76-0.86,3.05-2.46
					c1.68-9.57,3.35-19.11,5.03-28.69c0.52-3.02,1.04-6.04,1.71-9.02c0.52-2.31,1.94-3.99,4.43-4.17c2.12-0.15,4.28-0.15,6.41-0.04
					c2.16,0.15,3.09,1.3,3.09,3.5c0,0.52,0,1.04-0.07,1.53c-1.15,6.56-2.31,13.08-3.46,19.63c-1.01,5.74-2.01,11.44-2.98,17.17
					c-0.3,1.75,0.45,2.53,2.2,2.53c2.38,0,4.73,0,7.12,0C268.97,79.09,271.32,79.09,273.63,79.09z M207.69,0.04
					c-0.82,0-1.6,0.26-2.2,0.86c-0.34,0.3-0.56,0.67-0.67,1.19c-0.52,3.17-1.15,6.3-1.64,9.46c-0.26,1.68,0.45,2.42,2.16,2.42
					c5.22,0.04,10.43,0.04,15.65,0c1.64,0,2.61-0.82,2.91-2.42c0.56-3.02,1.08-6.04,1.64-9.05V2.46c0.22-1.3-0.82-2.46-2.12-2.46
					L207.69,0.04z M208.21,79.09c2.5,0,3.46-0.78,3.87-3.2c3.17-17.88,6.3-35.77,9.46-53.65c0.3-1.64-0.48-2.61-2.16-2.65
					c-4.84-0.04-9.69-0.04-14.53,0c-1.68,0-2.76,1.01-3.05,2.65c-0.07,0.48-0.19,1.01-0.26,1.49c-2.01,11.33-4.02,22.69-6,34.01
					c-1.08,6.22-2.2,12.44-3.24,18.66c-0.3,1.83,0.45,2.65,2.27,2.65c2.38,0,4.73,0,7.12,0C203.85,79.09,206.01,79.09,208.21,79.09z
					 M176.76,0.04c-1.01,0-2.01,0.45-2.57,1.3c-0.37,0.56-0.6,1.23-0.71,2.01c-0.45,3.17-1.08,6.3-1.64,9.46
					c-3.73,21.16-7.49,42.32-11.21,63.52c-0.34,1.83,0.45,2.76,2.27,2.76c4.73,0,9.5,0,14.23,0c1.86,0,2.83-0.78,3.17-2.61
					c0.86-4.66,1.68-9.31,2.5-13.97c2.09-11.85,4.17-23.69,6.3-35.54c1.42-8.05,2.87-16.09,4.28-24.14c0.19-0.97,0.11-1.83-0.6-2.42
					C192.45,0.15,192,0,191.55,0L176.76,0.04z M144.54,0.04c-0.82,0-1.6,0.26-2.2,0.86c-0.34,0.3-0.56,0.67-0.67,1.19
					c-0.52,3.17-1.15,6.3-1.64,9.46c-0.26,1.68,0.45,2.42,2.16,2.42c5.22,0.04,10.43,0.04,15.65,0c1.64,0,2.61-0.86,2.91-2.42
					c0.56-3.02,1.08-6.04,1.64-9.05V2.46c0.22-1.3-0.82-2.46-2.12-2.46L144.54,0.04z M145.1,79.09c2.46,0,3.43-0.82,3.87-3.24
					c3.17-17.88,6.3-35.77,9.46-53.65c0.26-1.56-0.48-2.61-2.05-2.61c-4.88-0.04-9.76-0.04-14.68,0c-1.68,0-2.76,1.01-3.05,2.68
					c-0.07,0.48-0.19,1.01-0.26,1.49c-2.01,11.33-4.02,22.69-6.04,34.01c-1.08,6.18-2.16,12.33-3.24,18.52
					c-0.34,1.97,0.41,2.76,2.42,2.76c2.31,0,4.66,0,6.97,0C140.7,79.09,142.9,79.09,145.1,79.09z M112.39,34.2
					c0.45,0,9.02,0,12.78,0c1.83,0,2.76-0.78,3.09-2.57c0.48-2.65,0.97-5.29,1.42-7.97c0.67-3.87,0.48-4.1-3.43-4.1
					c-3.76,0-7.53,0-11.4,0c0.67-3.69,1.3-7.26,1.94-10.84c0.41-2.31-0.45-3.2-2.68-2.83c-4.81,0.82-9.61,1.64-14.42,2.46
					c-2.12,0.37-2.83,1.12-3.2,3.2c-0.89,5.07-1.79,10.13-2.68,15.24c-2.16,12.29-4.51,24.59-6.37,36.92
					c-1.12,7.38,1.64,13.45,10.02,15.39c6.82,1.6,13.67,0.82,20.49-0.34c1.34-0.22,2.05-1.15,2.27-2.5
					c0.45-2.61,0.89-5.22,1.38-7.82c0.41-2.38-0.11-3.05-2.57-3.05c-3.13-0.04-9.35-0.04-9.35-0.04s-1.04,0.11-1.86-0.82
					c-0.48-0.56-0.15-1.75-0.15-1.75L112.39,34.2z M69.1,0.04c-0.82,0-1.6,0.26-2.2,0.86c-0.34,0.3-0.56,0.67-0.67,1.19
					c-0.52,3.17-1.15,6.3-1.64,9.46c-0.26,1.68,0.45,2.42,2.16,2.42c5.22,0.04,10.43,0.04,15.65,0c1.64,0,2.61-0.86,2.91-2.42
					c0.56-3.02,1.08-6.04,1.64-9.05V2.46C87.16,1.15,86.12,0,84.82,0H69.1V0.04z M69.69,79.09c2.46,0,3.43-0.82,3.84-3.28
					c3.13-17.85,6.3-35.69,9.43-53.5c0.3-1.75-0.45-2.72-2.2-2.72c-4.81,0-9.57,0-14.38,0c-1.75,0-2.83,0.97-3.17,2.72
					c-2.05,11.44-4.06,22.87-6.07,34.31c-1.15,6.59-2.31,13.19-3.43,19.78c-0.34,1.9,0.41,2.72,2.31,2.72c2.31,0,4.66,0,6.97,0
					C65.22,79.09,67.46,79.09,69.69,79.09z M51.47,3.39c-6.22-1.45-12.56-1.53-18.85-0.78C27.3,3.24,22.27,4.77,17.79,7.86
					C11.5,12.22,7.85,18.4,5.39,25.45c-2.12,6.07-2.98,12.44-4.21,18.74c-1.01,5.14-1.6,10.28-0.82,15.5
					c0.89,6,3.46,11.03,8.27,14.83c4.4,3.46,9.54,4.99,14.98,5.36c5.77,0.37,11.51-0.11,17.14-1.6c1.83-0.48,2.83-1.38,3.13-3.35
					c0.56-3.76,1.34-7.49,2.01-11.25c0.41-2.35-0.07-2.87-2.42-2.76c-0.26,0-0.56,0.04-0.82,0.07c-4.43,0.48-8.9,0.86-13.37,0.75
					c-5.1-0.07-7.75-2.76-7.97-7.86c-0.19-4.17,0.67-8.23,1.45-12.29c0.86-4.47,1.42-9.02,3.13-13.26
					c2.35-5.77,5.66-7.97,11.88-7.94c4.4,0.04,8.72,0.52,13.08,0.86c1.97,0.15,2.53-0.34,2.91-2.35c0.45-2.42,1.27-6.97,1.64-9.43
					c0.3-2.16,0.56-3.2,0.04-4.4C54.86,3.99,53.04,3.76,51.47,3.39z"/>
			</defs>
			<clipPath id="SVGID_00000046335352865983337010000013331728530408814517_">
				<use xlink:href="#SVGID_1_"  style="overflow:visible;"/>
			</clipPath>
			<g style="clip-path:url(#SVGID_00000046335352865983337010000013331728530408814517_);">
				<rect x="-11.34" y="-25.26" class="st1" width="390.06" height="116.16"/>
				<polygon class="st2" points="278.69,90.9 334.88,-25.26 297.81,-25.26 				"/>
				<polygon class="st3" points="280.93,90.9 322.66,40.68 311.67,90.9 				"/>
			</g>
		</g>
	</g>
</g>
</svg>
