<?xml version="1.0" encoding="utf-8"?>
<!-- Generator: Adobe Illustrator 25.4.1, SVG Export Plug-In . SVG Version: 6.00 Build 0)  -->
<svg version="1.1" id="Layer_1" xmlns="http://www.w3.org/2000/svg" xmlns:xlink="http://www.w3.org/1999/xlink" x="0px" y="0px"
	 viewBox="0 0 99.7 80" style="enable-background:new 0 0 99.7 80;" xml:space="preserve">
<style type="text/css">
	.st0{filter:url(#Adobe_OpacityMaskFilter);}
	.st1{fill-rule:evenodd;clip-rule:evenodd;fill:#FFFFFF;}
	.st2{mask:url(#mask-2_00000076570119337080270490000002614506146583511709_);fill-rule:evenodd;clip-rule:evenodd;fill:#5DA850;}
	.st3{fill-rule:evenodd;clip-rule:evenodd;fill:#5DA850;}
	.st4{fill-rule:evenodd;clip-rule:evenodd;fill:#1B4778;}
	.st5{filter:url(#Adobe_OpacityMaskFilter_00000030461039133685455330000006894412264201683847_);}
	.st6{mask:url(#mask-4_00000101785360695303619950000004383437334620965789_);fill-rule:evenodd;clip-rule:evenodd;fill:#54B7DC;}
</style>
<g id="Clip-9">
</g>
<g>
	<g id="Group-3" transform="translate(613.064000, 0.984000)">
		<g id="Clip-2">
		</g>
		<defs>
			<filter id="Adobe_OpacityMaskFilter" filterUnits="userSpaceOnUse" x="-555.58" y="-0.98" width="18.75" height="52.27">
				<feColorMatrix  type="matrix" values="1 0 0 0 0  0 1 0 0 0  0 0 1 0 0  0 0 0 1 0"/>
			</filter>
		</defs>
		
			<mask maskUnits="userSpaceOnUse" x="-555.58" y="-0.98" width="18.75" height="52.27" id="mask-2_00000076570119337080270490000002614506146583511709_">
			<g class="st0">
				<polygon id="path-1_00000119099789070849877840000001164546974696093086_" class="st1" points="-555.58,-0.98 -536.83,-0.98 
					-536.83,51.29 -555.58,51.29 				"/>
			</g>
		</mask>
		<path id="Fill-1" class="st2" d="M-539-0.94c0.33-0.06,1.36-0.05,1.36-0.05c0.22,16.86,0.6,33.71,0.82,50.57
			c-6.07,0.11-12.11,0.72-18.1,1.7c-0.16-13.53-0.53-27.06-0.66-40.59c2.9-2.61,5.63-5.4,8.6-7.93c2.12-2,3.74-2.22,6.35-3.23
			C-540.22-0.62-539.2-0.9-539-0.94"/>
	</g>
	<path id="Fill-4" class="st3" d="M82.82,0h5.29c0.51,1.73,0.61,3.56,0.07,5.3C84.84,18.37,81.79,31.53,78,44.49
		c0.01-14.72,0.9-29.69,1.11-44.42C80.4,0.02,81.59,0.08,82.82,0"/>
	<path id="Fill-5" class="st3" d="M33.37,37.75c7.04-8.07,13.94-16.27,21.74-23.63c-0.2,12.9-0.16,25.81-0.3,38.72
		c-2.74,0.5-5.45,1.1-8.17,1.73c0.12-9.96,0.29-19.91,0.12-29.87c-1.4,10.08-1.15,20.29-2.28,30.4c-6.15,1.62-12.19,3.66-18.02,6.18
		c0.67-5.53,0.52-11.15,1.29-16.66C29.23,42.05,31.49,40.03,33.37,37.75"/>
	<path id="Fill-6" class="st3" d="M0.76,77.83c7.31-8.65,14.29-17.55,21.38-26.37c0.5,3.74,0.84,7.49,1.15,11.25
		C15,66.48,7.55,71.82,0.76,77.83"/>
	<path id="Fill-7" class="st4" d="M58.14,52.27c5.99-0.98,12.03-1.59,18.1-1.7c-1.89,4.03-3.94,8.23-7.59,10.98
		c-7.78,6.01-17.38,8.91-26.79,11.2c-12.83,3.62-26.16,4.5-39.3,6.24C1.92,78.91,0.64,78.76,0,78.68l0.76-0.85
		C7.55,71.82,15,66.48,23.28,62.71c1.05-0.49,2.12-0.96,3.19-1.41c5.83-2.53,11.87-4.56,18.02-6.18c0.54-0.13,1.62-0.4,2.15-0.53
		c2.71-0.63,5.43-1.24,8.17-1.73C55.63,52.7,57.31,52.41,58.14,52.27"/>
	<defs>
		
			<filter id="Adobe_OpacityMaskFilter_00000014636686482398298820000009534582227793841793_" filterUnits="userSpaceOnUse" x="2.56" y="50.57" width="97.14" height="29.43">
			<feColorMatrix  type="matrix" values="1 0 0 0 0  0 1 0 0 0  0 0 1 0 0  0 0 0 1 0"/>
		</filter>
	</defs>
	
		<mask maskUnits="userSpaceOnUse" x="2.56" y="50.57" width="97.14" height="29.43" id="mask-4_00000101785360695303619950000004383437334620965789_">
		<g style="filter:url(#Adobe_OpacityMaskFilter_00000014636686482398298820000009534582227793841793_);">
			<polygon id="path-3_00000016043308558579187890000008951625048006685569_" class="st1" points="-227.61,25.11 99.7,25.11 
				99.7,79.97 -227.61,79.97 			"/>
		</g>
	</mask>
	<path id="Fill-10" class="st6" d="M76.24,50.57c7.9,0.01,15.71,1.17,23.46,2.58v0.28c-7.94,5.62-16.19,10.86-25.09,14.84
		C52.15,78.26,26.95,82,2.56,78.99c13.14-1.73,26.47-2.62,39.3-6.24c9.41-2.3,19-5.2,26.79-11.2C72.3,58.8,74.34,54.6,76.24,50.57"
		/>
</g>
</svg>
