<?xml version="1.0" encoding="utf-8"?>
<!-- Generator: Adobe Illustrator 25.4.1, SVG Export Plug-In . SVG Version: 6.00 Build 0)  -->
<svg version="1.1" id="Layer_1" xmlns="http://www.w3.org/2000/svg" xmlns:xlink="http://www.w3.org/1999/xlink" x="0px" y="0px"
	 viewBox="0 0 328.09 80" style="enable-background:new 0 0 328.09 80;" xml:space="preserve">
<style type="text/css">
	.st0{filter:url(#Adobe_OpacityMaskFilter);}
	.st1{fill-rule:evenodd;clip-rule:evenodd;fill:#FFFFFF;}
	.st2{mask:url(#mask-2_00000076570119337080270490000002614506146583511709_);fill-rule:evenodd;clip-rule:evenodd;fill:#5DA850;}
	.st3{fill-rule:evenodd;clip-rule:evenodd;fill:#5DA850;}
	.st4{fill-rule:evenodd;clip-rule:evenodd;fill:#1B4778;}
	.st5{filter:url(#Adobe_OpacityMaskFilter_00000144319256150946452310000017968521711415780253_);}
	.st6{mask:url(#mask-4_00000068672501454353453950000010001741060666034575_);fill-rule:evenodd;clip-rule:evenodd;fill:#5E8155;}
	.st7{filter:url(#Adobe_OpacityMaskFilter_00000109748357166589794890000017541451318028862382_);}
	.st8{mask:url(#mask-4_00000101785360695303619950000004383437334620965789_);fill-rule:evenodd;clip-rule:evenodd;fill:#54B7DC;}
	.st9{filter:url(#Adobe_OpacityMaskFilter_00000132767908637547708920000003044261137717189269_);}
	.st10{mask:url(#mask-4_00000080927579076841931700000002706216668127879590_);fill-rule:evenodd;clip-rule:evenodd;fill:#1B4778;}
	.st11{filter:url(#Adobe_OpacityMaskFilter_00000018929749638634477660000009654979687887760574_);}
	.st12{mask:url(#mask-4_00000150084729919244729840000016042878223334245261_);fill-rule:evenodd;clip-rule:evenodd;fill:#1B4778;}
</style>
<g id="Bamboo-Airways-logo">
	<g id="Group-3" transform="translate(613.064000, 0.984000)">
		<g id="Clip-2">
		</g>
		<defs>
			<filter id="Adobe_OpacityMaskFilter" filterUnits="userSpaceOnUse" x="-327.95" y="-0.98" width="18.75" height="52.27">
				<feColorMatrix  type="matrix" values="1 0 0 0 0  0 1 0 0 0  0 0 1 0 0  0 0 0 1 0"/>
			</filter>
		</defs>
		
			<mask maskUnits="userSpaceOnUse" x="-327.95" y="-0.98" width="18.75" height="52.27" id="mask-2_00000076570119337080270490000002614506146583511709_">
			<g class="st0">
				<polygon id="path-1_00000119099789070849877840000001164546974696093086_" class="st1" points="-327.95,-0.98 -309.19,-0.98 
					-309.19,51.29 -327.95,51.29 				"/>
			</g>
		</mask>
		<path id="Fill-1" class="st2" d="M-311.37-0.94c0.33-0.06,1.36-0.05,1.36-0.05c0.22,16.86,0.6,33.71,0.82,50.57
			c-6.07,0.11-12.11,0.72-18.1,1.7c-0.16-13.53-0.53-27.06-0.66-40.59c2.9-2.61,5.63-5.4,8.6-7.93c2.12-2,3.74-2.22,6.35-3.23
			C-312.59-0.62-311.57-0.9-311.37-0.94"/>
	</g>
	<path id="Fill-4" class="st3" d="M310.46,0h5.29c0.51,1.73,0.61,3.56,0.07,5.3c-3.34,13.07-6.39,26.23-10.18,39.18
		c0.01-14.72,0.9-29.69,1.11-44.42C308.03,0.02,309.22,0.08,310.46,0"/>
	<path id="Fill-5" class="st3" d="M261.01,37.75c7.04-8.07,13.94-16.27,21.74-23.63c-0.2,12.9-0.16,25.81-0.3,38.72
		c-2.74,0.5-5.45,1.1-8.17,1.73c0.12-9.96,0.29-19.91,0.12-29.87c-1.4,10.08-1.15,20.29-2.28,30.4c-6.15,1.62-12.19,3.66-18.02,6.18
		c0.67-5.53,0.52-11.15,1.29-16.66C256.86,42.05,259.12,40.03,261.01,37.75"/>
	<path id="Fill-6" class="st3" d="M228.39,77.83c7.31-8.65,14.29-17.55,21.38-26.37c0.5,3.74,0.84,7.49,1.15,11.25
		C242.63,66.48,235.19,71.82,228.39,77.83"/>
	<path id="Fill-7" class="st4" d="M285.78,52.27c5.99-0.98,12.03-1.59,18.1-1.7c-1.89,4.03-3.94,8.23-7.59,10.98
		c-7.78,6.01-17.38,8.91-26.79,11.2c-12.83,3.62-26.16,4.5-39.3,6.24c-0.64-0.08-1.92-0.23-2.56-0.31l0.76-0.85
		c6.8-6.01,14.24-11.35,22.53-15.13c1.05-0.49,2.12-0.96,3.19-1.41c5.83-2.53,11.87-4.56,18.02-6.18c0.54-0.13,1.62-0.4,2.15-0.53
		c2.71-0.63,5.43-1.24,8.17-1.73C283.27,52.7,284.94,52.41,285.78,52.27"/>
	<g id="Group-13" transform="translate(0.060000, 54.983847)">
		<g id="Clip-9">
		</g>
		<defs>
			
				<filter id="Adobe_OpacityMaskFilter_00000166677020769976196880000012221453469413240995_" filterUnits="userSpaceOnUse" x="92.61" y="-18.58" width="5.85" height="22.34">
				<feColorMatrix  type="matrix" values="1 0 0 0 0  0 1 0 0 0  0 0 1 0 0  0 0 0 1 0"/>
			</filter>
		</defs>
		
			<mask maskUnits="userSpaceOnUse" x="92.61" y="-18.58" width="5.85" height="22.34" id="mask-4_00000068672501454353453950000010001741060666034575_">
			<g style="filter:url(#Adobe_OpacityMaskFilter_00000166677020769976196880000012221453469413240995_);">
				<polygon id="path-3_00000013169557631516830590000012220958218435602320_" class="st1" points="-0.03,-29.87 327.27,-29.87 
					327.27,24.99 -0.03,24.99 				"/>
			</g>
		</mask>
		<path id="Fill-8" class="st6" d="M92.61-18.58c1.95,0.04,3.9,0.05,5.85,0.04c-0.04,7.44-0.04,14.87,0,22.3
			c-1.86-0.32-5.12,0.64-5.72-1.83C92.48-4.89,92.7-11.74,92.61-18.58"/>
		<defs>
			
				<filter id="Adobe_OpacityMaskFilter_00000142886211223265716530000009480899625199080080_" filterUnits="userSpaceOnUse" x="230.14" y="-4.41" width="97.14" height="29.43">
				<feColorMatrix  type="matrix" values="1 0 0 0 0  0 1 0 0 0  0 0 1 0 0  0 0 0 1 0"/>
			</filter>
		</defs>
		
			<mask maskUnits="userSpaceOnUse" x="230.14" y="-4.41" width="97.14" height="29.43" id="mask-4_00000101785360695303619950000004383437334620965789_">
			<g style="filter:url(#Adobe_OpacityMaskFilter_00000142886211223265716530000009480899625199080080_);">
				<polygon id="path-3_00000016043308558579187890000008951625048006685569_" class="st1" points="-0.03,-29.87 327.27,-29.87 
					327.27,24.99 -0.03,24.99 				"/>
			</g>
		</mask>
		<path id="Fill-10" class="st8" d="M303.81-4.41c7.9,0.01,15.71,1.17,23.46,2.58v0.28c-7.94,5.62-16.19,10.86-25.09,14.84
			c-22.46,9.98-47.66,13.72-72.05,10.71c13.14-1.73,26.47-2.62,39.3-6.24c9.41-2.3,19-5.2,26.79-11.2
			C299.87,3.82,301.92-0.38,303.81-4.41"/>
		<defs>
			
				<filter id="Adobe_OpacityMaskFilter_00000004521087941216165000000015779144333721858701_" filterUnits="userSpaceOnUse" x="125.22" y="-29.87" width="29.42" height="30.08">
				<feColorMatrix  type="matrix" values="1 0 0 0 0  0 1 0 0 0  0 0 1 0 0  0 0 0 1 0"/>
			</filter>
		</defs>
		
			<mask maskUnits="userSpaceOnUse" x="125.22" y="-29.87" width="29.42" height="30.08" id="mask-4_00000080927579076841931700000002706216668127879590_">
			<g style="filter:url(#Adobe_OpacityMaskFilter_00000004521087941216165000000015779144333721858701_);">
				<polygon id="path-3_00000061436422474733836290000017558075139692911006_" class="st1" points="-0.03,-29.87 327.27,-29.87 
					327.27,24.99 -0.03,24.99 				"/>
			</g>
		</mask>
		<path id="Fill-11" class="st10" d="M138.72-12.09c-2.01,0-4.03,0.01-6.04-0.01c-0.46,0-0.62,0.15-0.61,0.61
			c0.02,1.79,0.01,3.58,0.01,5.37c0,0.75,0.05,0.8,0.78,0.8c3.61,0,7.23,0.01,10.84-0.01c0.49,0,0.98-0.07,1.47-0.14
			c2-0.29,3.24-2.75,2.3-4.69c-0.65-1.34-1.73-1.94-3.18-1.94C142.43-12.09,140.57-12.09,138.72-12.09z M138.58-24.38
			c-1.98,0-3.96,0.01-5.95-0.01c-0.4,0-0.57,0.13-0.57,0.56c0.02,1.9,0.01,3.8,0,5.71c0,0.41,0.14,0.57,0.56,0.57
			c3.93-0.01,7.86,0.01,11.8-0.02c0.9-0.01,1.75-0.32,2.38-0.98c1.75-1.85,1.04-4.65-0.98-5.49c-0.49-0.2-1.05-0.32-1.57-0.33
			C142.35-24.41,140.47-24.38,138.58-24.38z M152-14.89c0.56,0.76,1.16,1.44,1.59,2.2c1.01,1.77,1.28,3.68,0.85,5.68
			c-0.69,3.2-2.77,5.17-5.71,6.35c-1.5,0.6-3.06,0.86-4.67,0.86c-5.1,0-10.2,0.01-15.3-0.02c-0.65,0-1.32-0.17-1.95-0.37
			c-1.16-0.37-1.54-1.32-1.57-2.43c-0.03-1.31-0.01-2.62-0.01-3.93c0-6.8,0-13.59,0-20.39c0-1.36,0.5-2.16,1.75-2.61
			c0.53-0.19,1.12-0.28,1.69-0.29c5.33-0.02,10.65-0.08,15.97,0.01c3.35,0.06,6.25,1.3,8.37,4.02c1.13,1.46,1.68,3.11,1.61,4.98
			c-0.06,1.91-0.65,3.59-1.83,5.06C152.54-15.43,152.24-15.14,152-14.89L152-14.89z"/>
		<defs>
			
				<filter id="Adobe_OpacityMaskFilter_00000162344861042846911570000016598324894180046503_" filterUnits="userSpaceOnUse" x="-0.06" y="-29.86" width="29.28" height="30.07">
				<feColorMatrix  type="matrix" values="1 0 0 0 0  0 1 0 0 0  0 0 1 0 0  0 0 0 1 0"/>
			</filter>
		</defs>
		
			<mask maskUnits="userSpaceOnUse" x="-0.06" y="-29.86" width="29.28" height="30.07" id="mask-4_00000150084729919244729840000016042878223334245261_">
			<g style="filter:url(#Adobe_OpacityMaskFilter_00000162344861042846911570000016598324894180046503_);">
				<polygon id="path-3_00000127039734894771683050000009256731302555735691_" class="st1" points="-0.03,-29.87 327.27,-29.87 
					327.27,24.99 -0.03,24.99 				"/>
			</g>
		</mask>
		<path id="Fill-12" class="st12" d="M13.27-12.09c-2.02,0-4.03,0.01-6.05-0.01c-0.46,0-0.62,0.15-0.61,0.61
			C6.63-9.7,6.62-7.9,6.62-6.11c0,0.75,0.05,0.79,0.79,0.79c3.79,0,7.58,0.02,11.37-0.02c0.59-0.01,1.21-0.16,1.75-0.39
			c1.45-0.62,2.09-2.35,1.76-3.72c-0.41-1.69-1.71-2.68-3.5-2.65C16.95-12.07,15.11-12.09,13.27-12.09z M13.1-17.56
			c1.92,0,3.84,0,5.76,0c0.03,0,0.06,0,0.1,0c1.97-0.18,3.06-1.1,3.35-2.84c0.36-2.15-1.08-3.94-3.39-3.97
			c-3.89-0.04-7.77-0.01-11.66-0.01c-0.59,0-0.63,0.04-0.63,0.62c0,1.84,0,3.68,0,5.52c0,0.65,0.03,0.68,0.67,0.68
			C9.23-17.56,11.16-17.56,13.1-17.56z M26.57-14.89c0.57,0.77,1.19,1.47,1.64,2.26c0.67,1.16,0.94,2.44,0.97,3.8
			c0.05,2.02-0.56,3.76-1.81,5.31c-1.06,1.31-2.41,2.22-3.96,2.84c-1.63,0.65-3.34,0.89-5.1,0.89C13.31,0.2,8.31,0.21,3.3,0.2
			c-0.83,0-1.62-0.16-2.33-0.59C0.31-0.78-0.06-1.33-0.06-2.14c0.01-8.45,0.01-16.89,0.01-25.34c0-1.07,0.77-2,1.86-2.15
			c0.83-0.11,1.68-0.21,2.52-0.21c4.93-0.02,9.85-0.06,14.78,0.01c3,0.04,5.69,1.03,7.83,3.23c1.13,1.16,1.97,2.53,2.18,4.12
			c0.36,2.8-0.21,5.37-2.37,7.4C26.66-15,26.6-14.91,26.57-14.89L26.57-14.89z"/>
	</g>
	<path id="Fill-14" class="st4" d="M96.65,25.14c6.32,0,12.64,0,18.95,0c0.76,0,0.76,0,0.76,0.73c0,9.52,0,19.03,0,28.55
		c0,0.76,0,0.76-0.78,0.76c-0.96,0-1.92,0.03-2.88-0.01c-0.8-0.03-1.58-0.21-2.25-0.7c-0.88-0.65-0.98-1.62-0.98-2.58
		c-0.02-4.14-0.01-8.29-0.01-12.43c0-2.24,0-4.48,0-6.72c0-0.72-0.05-0.77-0.76-0.77c-8.89,0-17.79,0-26.68,0
		c-0.69,0-0.71,0.02-0.71,0.74c0,7.23,0,14.46,0,21.69c0,0.77,0,0.77-0.76,0.77c-0.96,0-1.92,0.04-2.88-0.01
		c-0.91-0.05-1.81-0.22-2.5-0.91c-0.45-0.45-0.67-0.98-0.67-1.63c0.01-4.75,0-9.5,0-14.25c0-3.55,0.03-7.1-0.02-10.65
		c-0.02-1.23,0.97-2.29,2.02-2.41c0.65-0.07,1.3-0.17,1.95-0.18C84.53,25.14,90.59,25.14,96.65,25.14"/>
	<path id="Fill-15" class="st4" d="M187.93,40.15c0-1.44-0.04-2.88,0.01-4.32c0.04-1.28-0.45-2.31-1.32-3.16
		c-1.84-1.79-4.15-2.52-6.63-2.71c-1.2-0.09-2.42,0.06-3.62,0.18c-1.83,0.19-3.48,0.89-4.92,2.03c-1.17,0.93-1.91,2.09-1.88,3.68
		c0.05,2.91,0.03,5.82,0.01,8.73c-0.01,1.2,0.45,2.16,1.26,3c1.37,1.42,3.12,2.14,4.99,2.54c1.77,0.38,3.57,0.39,5.38,0.08
		c1.83-0.32,3.51-0.94,4.94-2.11c1.12-0.91,1.85-2.04,1.8-3.58C187.9,43.06,187.93,41.61,187.93,40.15z M194.71,40.13
		c0,1.85,0.04,3.71-0.01,5.56c-0.04,1.59-0.73,2.96-1.69,4.18c-1.64,2.11-3.83,3.47-6.27,4.47c-1.93,0.79-3.94,1.29-6.03,1.34
		c-1.66,0.04-3.33,0.12-4.97-0.07c-4-0.45-7.57-1.96-10.47-4.83c-1.21-1.2-2.03-2.66-2.39-4.34c-0.15-0.71-0.2-1.46-0.2-2.19
		c-0.02-2.73-0.01-5.47-0.01-8.2c0-3.17,1.31-5.66,3.78-7.62c1.52-1.2,3.17-2.14,4.97-2.79c0.97-0.35,1.99-0.54,2.99-0.78
		c2.14-0.5,4.31-0.51,6.47-0.33c3.42,0.28,6.61,1.3,9.42,3.33c1.63,1.18,3,2.57,3.81,4.45c0.39,0.9,0.62,1.83,0.61,2.82
		c-0.01,1.66,0,3.33,0,4.99C194.73,40.13,194.72,40.13,194.71,40.13L194.71,40.13z"/>
	<path id="Fill-16" class="st4" d="M227.04,40.17c0-1.47-0.04-2.94,0.01-4.41c0.04-1.2-0.44-2.14-1.22-2.96
		c-1.84-1.91-4.22-2.63-6.75-2.84c-1.18-0.1-2.39,0.06-3.57,0.18c-1.73,0.17-3.3,0.82-4.7,1.84c-1.38,1-2.2,2.3-2.19,4.08
		c0.02,2.77,0.01,5.53,0,8.3c0,1.32,0.47,2.43,1.41,3.33c1.82,1.76,4.1,2.48,6.54,2.67c1.24,0.1,2.52-0.03,3.77-0.18
		c1.8-0.22,3.45-0.9,4.86-2.05c1.16-0.96,1.95-2.11,1.86-3.74C226.98,42.99,227.04,41.58,227.04,40.17z M233.84,40.15
		c0,1.79,0.03,3.58-0.01,5.37c-0.03,1.35-0.52,2.58-1.26,3.7c-1.63,2.46-3.99,3.99-6.65,5.09c-1.94,0.8-3.96,1.32-6.07,1.37
		c-1.73,0.04-3.49,0.14-5.2-0.08c-3.97-0.51-7.53-2-10.37-4.93c-1.27-1.31-2.13-2.86-2.33-4.71c-0.06-0.59-0.11-1.18-0.12-1.76
		c-0.01-2.7,0.04-5.41-0.02-8.11c-0.07-3.31,1.38-5.81,3.91-7.8c1.65-1.29,3.47-2.27,5.46-2.88c1.24-0.37,2.54-0.64,3.83-0.76
		c1.65-0.15,3.32-0.24,4.97-0.12c3.56,0.25,6.86,1.35,9.73,3.53c1.72,1.3,3.17,2.85,3.79,4.98c0.25,0.86,0.33,1.79,0.37,2.69
		c0.06,1.47,0.02,2.94,0.02,4.41C233.86,40.15,233.85,40.15,233.84,40.15L233.84,40.15z"/>
	<path id="Fill-17" class="st4" d="M51.54,31.26c-0.19,0.28-0.32,0.43-0.4,0.61c-0.8,1.78-1.6,3.57-2.39,5.35
		c-0.56,1.26-1.1,2.54-1.66,3.8c-0.17,0.39-0.01,0.49,0.34,0.49c2.69,0,5.37,0,8.06,0c0.47,0,0.54-0.16,0.35-0.6
		c-0.79-1.75-1.56-3.51-2.34-5.27C52.86,34.23,52.23,32.83,51.54,31.26z M69.32,55.17c-1.84,0-3.57,0.09-5.28-0.03
		c-1.42-0.1-2.39-0.98-2.95-2.32c-0.77-1.83-1.62-3.63-2.41-5.44c-0.14-0.32-0.35-0.42-0.67-0.41c-0.59,0.01-1.18,0-1.78,0
		c-3.71,0-7.42,0.01-11.13-0.01c-0.48,0-0.73,0.16-0.93,0.62c-1.02,2.38-2.09,4.74-3.14,7.11c-0.15,0.35-0.35,0.53-0.79,0.52
		c-1.13-0.04-2.27,0.01-3.41-0.03c-0.42-0.01-0.86-0.12-1.24-0.29c-1.04-0.45-1.33-1.39-0.81-2.56c1.11-2.46,2.2-4.93,3.3-7.4
		c0.93-2.09,1.88-4.17,2.8-6.27c1.08-2.44,2.15-4.89,3.22-7.34c0.53-1.21,1.04-2.43,1.6-3.62c0.53-1.12,1.51-1.73,2.63-2.15
		c1.52-0.58,3.1-0.61,4.67-0.4c1.45,0.2,2.86,0.67,3.78,1.92c0.44,0.59,0.72,1.31,1.03,1.98c0.66,1.45,1.3,2.9,1.95,4.36
		c0.85,1.92,1.69,3.84,2.54,5.77c0.92,2.09,1.85,4.18,2.77,6.27c0.86,1.95,1.73,3.89,2.6,5.84c0.49,1.09,0.97,2.18,1.45,3.27
		C69.21,54.74,69.25,54.92,69.32,55.17L69.32,55.17z"/>
	<path id="Fill-18" class="st4" d="M50.28,67.72c0,1.01-0.05,2.02,0.01,3.02c0.09,1.51-0.75,2.43-1.97,2.98
		c-2.03,0.92-4.06,0.9-6.03-0.26c-0.14-0.08-0.42-0.05-0.58,0.04c-2.2,1.15-4.39,1.22-6.53-0.14c-0.92-0.58-1.4-1.41-1.38-2.56
		c0.05-2.08,0.01-4.16,0.02-6.24c0-0.69,0.3-0.98,0.99-1c1.35-0.02,1.35-0.02,1.35,1.34c0,1.93,0.01,3.87-0.01,5.8
		c-0.01,0.54,0.19,0.92,0.62,1.21c1.05,0.7,2.45,0.62,3.48,0.01c0.43-0.25,0.55-0.65,0.55-1.14c-0.01-1.93-0.01-3.87,0-5.8
		c0-0.28,0.02-0.62,0.17-0.83c0.18-0.25,0.49-0.47,0.79-0.57c0.29-0.1,0.63,0,0.95-0.03c0.43-0.04,0.55,0.16,0.54,0.56
		c-0.01,2.06-0.01,4.13-0.01,6.19c0,1.35,0.33,1.71,1.65,2.02c0.89,0.21,1.67,0.02,2.43-0.4c0.41-0.23,0.6-0.58,0.6-1.06
		c-0.01-2.05-0.01-4.09,0.01-6.14c0.01-0.87,0.32-1.16,1.21-1.16c1.16-0.01,1.16-0.01,1.16,1.17
		C50.28,65.74,50.28,66.73,50.28,67.72"/>
	<path id="Fill-19" class="st4" d="M25.39,65.48C25.39,65.48,25.39,65.48,25.39,65.48c-0.64,0-1.28,0-1.92,0
		c-0.31,0-0.47,0.12-0.47,0.46c0.01,0.72,0.01,1.44,0,2.16c0,0.28,0.13,0.42,0.4,0.42c1.26,0,2.52,0.03,3.78-0.02
		c0.8-0.03,1.44-0.8,1.41-1.54c-0.04-0.82-0.68-1.45-1.53-1.46C26.51,65.47,25.95,65.48,25.39,65.48z M31.03,74.1
		c-0.94,0.09-1.82,0.24-2.52-0.23c-0.44-0.29-0.67-0.9-0.96-1.38c-0.31-0.52-0.6-1.05-0.89-1.58c-0.19-0.34-0.47-0.51-0.86-0.51
		c-0.75,0-1.5,0.01-2.25,0c-0.42-0.01-0.56,0.17-0.55,0.58c0.02,0.88-0.01,1.76,0.01,2.64c0.01,0.42-0.15,0.6-0.57,0.55
		c-0.03,0-0.06,0-0.1,0c-1.29-0.05-1.77-0.22-1.74-1.75c0.05-2.49,0.01-4.99,0.01-7.48c0-1.05,0.29-1.35,1.32-1.35
		c1.82,0,3.64,0,5.47,0c1.54,0,2.89,1,3.43,2.44c0.48,1.3-0.19,2.93-1.3,3.64c-0.72,0.47-0.71,0.46-0.29,1.19
		C29.83,71.89,30.39,72.94,31.03,74.1L31.03,74.1z"/>
	<path id="Fill-20" class="st4" d="M86.84,66.15c-0.8,0.52-1.98,0.78-2.74-0.06c-0.5-0.56-1.23-0.79-1.98-0.83
		c-0.99-0.05-1.99-0.09-2.89,0.45c-0.41,0.24-0.69,0.57-0.62,1.09c0.07,0.5,0.39,0.77,0.86,0.83c0.8,0.1,1.61,0.23,2.41,0.23
		c1.54,0,3,0.19,4.2,1.25c1.22,1.08,1.05,2.64,0.05,3.74c-0.77,0.85-1.8,1.18-2.92,1.38c-1.14,0.2-2.27,0.18-3.38-0.04
		c-1.61-0.33-3.01-1.03-3.71-2.67c1.25-0.68,1.92-0.74,2.93,0.18c0.87,0.79,2.04,0.83,3.17,0.74c0.5-0.04,0.99-0.21,1.47-0.37
		c0.53-0.17,0.89-0.68,0.85-1.1c-0.04-0.47-0.52-0.96-1.07-1.01c-1.24-0.11-2.48-0.15-3.71-0.24c-0.85-0.06-1.68-0.28-2.37-0.79
		c-1.72-1.27-1.63-3.51,0.18-4.68c1.06-0.69,2.25-0.9,3.51-0.92c1.45-0.02,2.83,0.19,4.08,0.95C85.9,64.73,86.52,65.29,86.84,66.15"
		/>
	<path id="Fill-21" class="st4" d="M58.06,65.82c-0.12,0.14-0.17,0.18-0.19,0.24c-0.41,0.93-0.81,1.86-1.23,2.78
		c-0.17,0.36-0.06,0.51,0.32,0.51c0.72,0,1.43,0.01,2.15,0c0.43-0.01,0.53-0.19,0.35-0.58c-0.28-0.64-0.56-1.27-0.86-1.91
		C58.44,66.52,58.26,66.2,58.06,65.82z M58.05,71.29c-0.69,0-1.37,0.01-2.06,0c-0.31,0-0.5,0.1-0.62,0.4
		c-0.27,0.66-0.59,1.31-0.86,1.96c-0.15,0.35-0.36,0.54-0.76,0.5c-0.32-0.03-0.64-0.01-0.96-0.06c-0.6-0.09-0.82-0.49-0.58-1.04
		c0.62-1.41,1.27-2.81,1.89-4.21c0.62-1.39,1.23-2.79,1.84-4.19c0.29-0.66,0.81-1.04,1.51-1.07c0.56-0.02,1.14,0.02,1.7,0.13
		c0.51,0.1,0.82,0.48,1.03,0.97c1.31,2.99,2.64,5.98,3.97,8.97c0.19,0.41,0.06,0.5-0.33,0.5c-1.93,0.04-2.06-0.04-2.77-1.79
		c-0.44-1.09-0.44-1.09-1.61-1.09C58.97,71.29,58.51,71.29,58.05,71.29L58.05,71.29z"/>
	<path id="Fill-22" class="st4" d="M7.08,65.89c-0.14,0.1-0.26,0.15-0.3,0.23c-0.42,0.92-0.84,1.85-1.23,2.79
		c-0.09,0.22,0.01,0.42,0.29,0.43c0.78,0.01,1.57,0.02,2.35-0.01c0.1,0,0.29-0.25,0.27-0.31C8.01,67.98,7.55,66.96,7.08,65.89z
		 M11.99,74.16c-0.94,0.18-1.51-0.38-1.85-1.31c-0.12-0.34-0.34-0.66-0.43-1.01c-0.12-0.45-0.39-0.56-0.81-0.55
		c-1.3,0.02-2.59,0.03-3.89-0.01c-0.43-0.01-0.64,0.18-0.78,0.53c-0.24,0.57-0.5,1.14-0.73,1.71c-0.18,0.45-0.45,0.72-0.98,0.64
		c-0.3-0.04-0.61-0.01-0.91-0.07c-0.52-0.1-0.71-0.41-0.51-0.91c0.38-0.94,0.78-1.88,1.2-2.8c0.87-1.94,1.76-3.88,2.61-5.83
		c0.24-0.54,0.67-0.78,1.16-0.9c0.7-0.17,1.45-0.23,2.11,0.13c0.34,0.19,0.71,0.49,0.87,0.83c0.8,1.71,1.54,3.46,2.31,5.19
		c0.54,1.22,1.08,2.44,1.63,3.66c0.27,0.59,0.23,0.68-0.43,0.71C12.41,74.16,12.26,74.16,11.99,74.16L11.99,74.16z"/>
	<path id="Fill-23" class="st4" d="M75.74,63.58c-0.45,0.61-0.81,1.11-1.19,1.59c-1.1,1.44-2.2,2.89-3.33,4.32
		c-0.3,0.39-0.45,0.77-0.43,1.27c0.03,0.94,0,1.89,0.01,2.83c0.01,0.36-0.11,0.55-0.49,0.53c-0.11,0-0.22,0.02-0.34,0.02
		c-1.34,0-1.56-0.22-1.56-1.54c0-0.64,0.04-1.28-0.02-1.92c-0.03-0.33-0.14-0.7-0.34-0.96c-1.24-1.66-2.51-3.3-3.75-4.96
		c-0.16-0.22-0.29-0.57-0.23-0.82c0.09-0.38,0.5-0.33,0.84-0.39c0.97-0.16,1.56,0.27,2.09,1.04c0.69,1.01,1.47,1.97,2.22,2.94
		c0.27,0.36,0.42,0.36,0.7-0.01c0.79-1.03,1.58-2.05,2.34-3.09c0.43-0.58,0.93-0.93,1.69-0.88C74.49,63.61,75.04,63.58,75.74,63.58"
		/>
	<path id="Fill-24" class="st4" d="M17.52,68.83c0,1.57,0,3.13,0,4.7c0,0.56-0.08,0.65-0.65,0.63c-1.61-0.05-1.83-0.31-1.81-1.81
		c0.03-2.51,0.01-5.02,0.01-7.53c0-0.93,0.31-1.24,1.23-1.24c1.41,0.01,1.2-0.2,1.21,1.21C17.53,66.14,17.52,67.48,17.52,68.83"/>
</g>
</svg>
