<?xml version="1.0" encoding="utf-8"?>
<!-- Generator: Adobe Illustrator 25.4.1, SVG Export Plug-In . SVG Version: 6.00 Build 0)  -->
<svg version="1.1" id="Layer_2_00000159471598350358213750000014612203606435250611_"
	 xmlns="http://www.w3.org/2000/svg" xmlns:xlink="http://www.w3.org/1999/xlink" x="0px" y="0px" viewBox="0 0 309 80"
	 style="enable-background:new 0 0 309 80;" xml:space="preserve">
<style type="text/css">
	.st0{fill:#00AF40;}
	.st1{fill:#FDDB00;}
</style>
<path id="path8080" class="st0" d="M306.1,79.9l2.9,0l-1.3-0.3l-2.5-0.5l-2-0.4l-2.6-0.5c-12.3-2.2-22.3-4.8-22.3-4.8
	c-21.2-6.2-34.6-19-39-24c-4.4-4.9-13.3-14.5-13.3-14.5c-19.2-22.1-39.5-20.6-39.5-20.6h-6.9c-1.3,0-2,0-2,0l-10.5,0h-58.2l-0.7,0
	h-2l1.5,0.4l2.3,0.5l2,0.4l2.6,0.5c12.3,2.2,22.3,4.8,22.3,4.8c21.2,6.2,34.6,19,39,24c4.4,4.9,13.3,14.5,13.3,14.5
	C208.5,81.4,228.8,80,228.8,80h6.9c1.3,0,2,0,2,0l10.5,0l57.3-0.1L306.1,79.9z"/>
<path id="path8084" class="st1" d="M243.6,67.6l3,0l-1.4-0.3l-2.5-0.5l-2.1-0.4l-2.7-0.5c-12.7-2.3-23-4.9-23-4.9
	c-21.9-6.4-35.7-19.6-40.2-24.7c-4.5-5.1-13.8-15-13.8-15C141.1-1.5,120.2,0,120.2,0H113c-1.3,0-2,0-2,0l-10.8,0H40.1l-0.7,0h-2
	l1.5,0.4l2.4,0.5l2.1,0.4l2.7,0.5c12.7,2.3,23,4.9,23,4.9c21.9,6.4,35.7,19.6,40.2,24.7c4.5,5.1,13.8,15,13.8,15
	c19.8,22.8,40.7,21.3,40.7,21.3h7.1c1.3,0,2,0,2,0l10.8,0l59.1-0.1L243.6,67.6z"/>
<path id="path8088" class="st0" d="M199.9,79.9l2.9,0l-1.3-0.3l-2.5-0.5l-2-0.4l-2.6-0.5C182,76.1,172,73.5,172,73.5
	c-21.2-6.2-34.6-19-39-24c-4.4-4.9-13.3-14.5-13.3-14.5C100.5,13,80.2,14.4,80.2,14.4h-6.9c-1.3,0-2,0-2,0l-10.5,0H2.6l-0.7,0H0
	l1.5,0.4l2.3,0.5l2,0.4l2.6,0.5c12.3,2.2,22.3,4.8,22.3,4.8c21.2,6.2,34.6,19,39,24c4.3,4.9,13.3,14.5,13.3,14.5
	C102.3,81.4,122.6,80,122.6,80h6.9c1.3,0,2,0,2,0l10.5,0l57.3-0.1L199.9,79.9z"/>
</svg>
