<?xml version="1.0" encoding="utf-8"?>
<!-- Generator: Adobe Illustrator 25.4.1, SVG Export Plug-In . SVG Version: 6.00 Build 0)  -->
<svg version="1.1" id="Layer_2_00000159471598350358213750000014612203606435250611_"
	 xmlns="http://www.w3.org/2000/svg" xmlns:xlink="http://www.w3.org/1999/xlink" x="0px" y="0px" viewBox="0 0 782 80"
	 style="enable-background:new 0 0 782 80;" xml:space="preserve">
<style type="text/css">
	.st0{fill:#00AF40;}
	.st1{fill:#FDDB00;}
	.st2{fill:#65646A;}
</style>
<path id="path8080" class="st0" d="M306.1,79.9l2.9,0l-1.3-0.3l-2.5-0.5l-2-0.4l-2.6-0.5c-12.3-2.2-22.3-4.8-22.3-4.8
	c-21.2-6.2-34.6-19-39-24c-4.4-4.9-13.3-14.5-13.3-14.5c-19.2-22.1-39.5-20.6-39.5-20.6h-6.9c-1.3,0-2,0-2,0l-10.5,0h-58.2l-0.7,0
	h-2l1.5,0.4l2.3,0.5l2,0.4l2.6,0.5c12.3,2.2,22.3,4.8,22.3,4.8c21.2,6.2,34.6,19,39,24c4.4,4.9,13.3,14.5,13.3,14.5
	C208.5,81.4,228.8,80,228.8,80h6.9c1.3,0,2,0,2,0l10.5,0l57.3-0.1L306.1,79.9z"/>
<path id="path8084" class="st1" d="M243.6,67.6l3,0l-1.4-0.3l-2.5-0.5l-2.1-0.4l-2.7-0.5c-12.7-2.3-23-4.9-23-4.9
	c-21.9-6.4-35.7-19.6-40.2-24.7c-4.5-5.1-13.8-15-13.8-15C141.1-1.5,120.2,0,120.2,0H113c-1.3,0-2,0-2,0l-10.8,0H40.1l-0.7,0h-2
	l1.5,0.4l2.4,0.5l2.1,0.4l2.7,0.5c12.7,2.3,23,4.9,23,4.9c21.9,6.4,35.7,19.6,40.2,24.7c4.5,5.1,13.8,15,13.8,15
	c19.8,22.8,40.7,21.3,40.7,21.3h7.1c1.3,0,2,0,2,0l10.8,0l59.1-0.1L243.6,67.6z"/>
<path id="path8088" class="st0" d="M199.9,79.9l2.9,0l-1.3-0.3l-2.5-0.5l-2-0.4l-2.6-0.5C182,76.1,172,73.5,172,73.5
	c-21.2-6.2-34.6-19-39-24c-4.4-4.9-13.3-14.5-13.3-14.5C100.5,13,80.2,14.4,80.2,14.4h-6.9c-1.3,0-2,0-2,0l-10.5,0H2.6l-0.7,0H0
	l1.5,0.4l2.3,0.5l2,0.4l2.6,0.5c12.3,2.2,22.3,4.8,22.3,4.8c21.2,6.2,34.6,19,39,24c4.3,4.9,13.3,14.5,13.3,14.5
	C102.3,81.4,122.6,80,122.6,80h6.9c1.3,0,2,0,2,0l10.5,0l57.3-0.1L199.9,79.9z"/>
<path id="path8092" class="st2" d="M309.4,14.3h12V57h21v10h-32.9L309.4,14.3z"/>
<path id="path8096" class="st2" d="M375.5,44.6l-3.3-11.2c-0.9-3.1-1.9-7-2.7-10.2h-0.2c-0.8,3.1-1.6,7.1-2.4,10.2l-3.1,11.2H375.5z
	 M362.2,53.5L358.4,67H346l16.1-52.7h15.6L394.1,67h-12.8l-4.1-13.5H362.2z"/>
<path id="path8100" class="st2" d="M401.6,54.7c3.2,1.6,8.1,3.3,13.2,3.3c5.5,0,8.4-2.3,8.4-5.7c0-3.3-2.5-5.2-8.8-7.4
	c-8.8-3-14.5-7.9-14.5-15.6c0-9,7.5-15.9,19.9-15.9c5.9,0,10.3,1.2,13.5,2.7l-2.7,9.6c-2.1-1-5.9-2.5-11-2.5c-5.2,0-7.7,2.3-7.7,5.1
	c0,3.4,3,4.8,9.8,7.4c9.3,3.4,13.7,8.3,13.7,15.7c0,8.8-6.8,16.3-21.3,16.3c-6,0-12-1.6-14.9-3.2L401.6,54.7z"/>
<path id="path8104" class="st2" d="M474.8,44.7h-19.4v12.5H477V67h-33.6V14.3H476v9.8h-20.6V35h19.4V44.7z"/>
<path id="path8108" class="st2" d="M497,37.7h4.7c5.9,0,9.5-3,9.5-7.6c0-4.8-3.3-7.3-8.8-7.4c-2.9,0-4.5,0.2-5.4,0.4L497,37.7z
	 M485.2,15c3.8-0.6,9.5-1.1,15.9-1.1c7.8,0,13.3,1.2,17,4.1c3.1,2.5,4.9,6.2,4.9,11c0,6.7-4.8,11.3-9.3,13v0.2c3.7,1.5,5.7,5,7,9.9
	C522.3,58.1,524,65,525,67h-12.2c-0.9-1.5-2.1-5.8-3.7-12.3c-1.4-6.6-3.7-8.4-8.5-8.4H497V67h-11.8L485.2,15z"/>
<path id="path8112" class="st2" d="M574.3,44.1L569.6,30c-1.2-3.4-2-6.6-2.7-9.6h-0.2c-0.8,3.1-1.6,6.3-2.7,9.5l-4.9,14.2H574.3z
	 M557.7,49.4L552,67h-7l17.9-52.7h8.2L589,67h-7.3L576,49.4H557.7z"/>
<path id="path8114" class="st2" d="M596.3,29.2h6.9V67h-6.9V29.2z M604,18.5c0.1,2.3-1.6,4.2-4.4,4.2c-2.4,0-4.1-1.9-4.1-4.2
	c0-2.4,1.8-4.3,4.3-4.3C602.3,14.2,604,16.1,604,18.5"/>
<path id="path8118" class="st2" d="M614.6,41c0-4.5-0.1-8.3-0.3-11.8h6l0.2,7.4h0.3c1.7-5.1,5.9-8.3,10.5-8.3c0.8,0,1.3,0.1,2,0.2
	V35c-0.7-0.2-1.4-0.2-2.3-0.2c-4.8,0-8.3,3.7-9.2,8.8c-0.2,0.9-0.3,2-0.3,3.2V67h-6.8L614.6,41z"/>
<path id="path8120" class="st2" d="M640.5,11.5h6.9V67h-6.9V11.5z"/>
<path id="path8122" class="st2" d="M659,29.2h6.9V67H659V29.2z M666.6,18.5c0.1,2.3-1.6,4.2-4.4,4.2c-2.4,0-4.1-1.9-4.1-4.2
	c0-2.4,1.8-4.3,4.3-4.3C665,14.2,666.6,16.1,666.6,18.5"/>
<path id="path8126" class="st2" d="M677.3,39.4c0-3.9-0.1-7.1-0.3-10.2h6.1l0.4,6.3h0.2c1.9-3.6,6.3-7.1,12.5-7.1
	c5.2,0,13.4,3.1,13.4,16.1V67h-6.9V45.2c0-6.1-2.3-11.2-8.8-11.2c-4.5,0-8.1,3.2-9.2,7c-0.3,0.9-0.5,2-0.5,3.2V67h-6.9L677.3,39.4z"
	/>
<path id="path8130" class="st2" d="M744.7,44.4c0.1-4.4-1.8-11.2-9.5-11.2c-7,0-10,6.4-10.6,11.2H744.7z M724.5,49.4
	c0.2,9.3,6.1,13.1,13,13.1c4.9,0,7.9-0.9,10.5-2l1.2,4.9c-2.4,1.1-6.6,2.3-12.6,2.3c-11.7,0-18.6-7.7-18.6-19.1
	c0-11.4,6.7-20.4,17.8-20.4c12.4,0,15.6,10.9,15.6,17.8c0,1.4-0.2,2.5-0.2,3.2H724.5z"/>
<path id="path8134" class="st2" d="M758.9,60c2,1.3,5.6,2.7,9.1,2.7c5,0,7.4-2.5,7.4-5.6c0-3.3-2-5.1-7-7c-6.8-2.4-10-6.2-10-10.7
	c0-6.1,4.9-11.1,13.1-11.1c3.8,0,7.2,1.1,9.3,2.3l-1.7,5c-1.5-0.9-4.2-2.2-7.7-2.2c-4.1,0-6.3,2.3-6.3,5.2c0,3.1,2.3,4.5,7.2,6.4
	c6.6,2.5,9.9,5.8,9.9,11.4c0,6.6-5.2,11.3-14.2,11.3c-4.1,0-8-1-10.6-2.6L758.9,60z"/>
</svg>
