<?xml version="1.0" encoding="utf-8"?>
<!-- Generator: Adobe Illustrator 25.4.1, SVG Export Plug-In . SVG Version: 6.00 Build 0)  -->
<svg version="1.1" xmlns="http://www.w3.org/2000/svg" xmlns:xlink="http://www.w3.org/1999/xlink" x="0px" y="0px"
	 viewBox="0 0 59.1 80" style="enable-background:new 0 0 59.1 80;" xml:space="preserve">
<style type="text/css">
	.st0{fill:#02234F;}
</style>
<g id="Layer_2">
</g>
<g id="Layer_1">
	<g>
		<path id="path851" class="st0" d="M0.9,80L0,59.4c-1-23.6,16.5-28.9,28.8-36.1C44,14.4,49.2,8.7,52.8,1.4c1-2.1,3-1.6,3.5,0
			c1.7,6.4-1.9,15.2-19.6,25.7C4.5,46.3,13,45,13,45c5.5-5.9,13.1-10.1,20.9-13.3c11.5-4.8,19-10.7,22.7-18.4c1.5-3.2,2.6-0.6,2.6,1
			c0,4.7-2.9,15.9-23.6,24.3c-8.4,3.4-16.4,7.7-23.8,13.7c-1.2,0.9-1.1,2.4,0.8,0.8c6.1-3.6,10.4-6.5,16.8-8.2
			c10-2.7,15.6-6.5,19.6-10.8c1.4-1.4,2.6-2,2,1.5c-1.2,6.2-9,11.2-19,14.4c-9.2,3-17.1,7.3-24,13.4c-1.1,0.9,0,2,0.8,1.5
			c4.2-2.6,8.4-5.2,13.2-7.3c5.5-2.4,11.7-4,14.8-7c2-2,4.3-1.3,2.1,1.7c-3.3,4.6-7.4,8.4-15.4,10.5C12.9,65.6,6,71.9,0.9,80L0.9,80
			z"/>
	</g>
</g>
</svg>
