<?xml version="1.0" encoding="utf-8"?>
<!-- Generator: Adobe Illustrator 25.4.1, SVG Export Plug-In . SVG Version: 6.00 Build 0)  -->
<svg version="1.1" xmlns="http://www.w3.org/2000/svg" xmlns:xlink="http://www.w3.org/1999/xlink" x="0px" y="0px"
	 viewBox="0 0 615.9 80" style="enable-background:new 0 0 615.9 80;" xml:space="preserve">
<style type="text/css">
	.st0{fill:#D1222A;}
	.st1{fill:#02234F;}
</style>
<g id="Layer_2">
</g>
<g id="Layer_1">
	<g id="layer1">
		<g id="text849" transform="matrix(0.7749117,0,0,0.74235351,29.640651,-87.93045)">
			<path id="path853" class="st0" d="M120,138.4c-11.6,0-22.3,4.1-30,11.4c-8.8,8.3-13.6,19.8-13.6,32.6c0,12.8,4.9,24.2,13.6,32.5
				c7.7,7.2,18.4,11.4,30,11.4c11.5,0,22.4-4.1,30.1-11.4c8.8-8.2,13.6-19.7,13.6-32.5c0-12.8-4.9-24.3-13.6-32.6
				C142.5,142.6,131.6,138.4,120,138.4z M308,138.4c-3.1,6.8-7.2,13.3-12.7,19.3l2.5,2.4c0.7,0.6,1.1,1.3,1.1,1.9
				c0,0.4-0.1,0.9-0.4,1.4l-18.4,42.2c-4,9.1-6.5,14.7-14.5,15.6v3.3h29.6v-3.3c-6.9-0.5-10.8-4.6-10.8-11.4c0-1.8,0.2-3.6,0.7-4.9
				l1.5-5.1h29.5l4,10.1c1.1,2.7,1.8,4.7,1.8,5.9c0,3-1.8,4.5-5.4,4.9l-3.7,0.4v3.4h40.6v-3.4h-0.4c-5.2,0-7.5-2.8-10.2-9.2
				l-31.3-73.5H308z M397.5,138.4c-11.5,0-22.4,4.1-30,11.4c-8.8,8.3-13.6,19.8-13.6,32.6c0,12.8,4.9,24.2,13.6,32.5
				c7.6,7.2,18.5,11.4,30,11.4c17.5,0,27.4-5.9,29.6-5.9c1.4,0,1.7,0.6,2.3,1.9l1.4,3h2.7v-28.4H431c-10.2,17.2-20.5,25.7-32.1,25.7
				c-15.2,0-23.1-13.4-23.1-40c0-25.8,9.1-40.2,23.1-40.2c10.7,0,21.7,8.8,30.4,25.8h2.7v-27.4h-2c-1.2,3-2.4,4.5-3.7,4.5
				c-1.7,0-3.4-1.2-6.2-2.2C412.8,140,405.6,138.4,397.5,138.4z M-38.3,140.1v3.1h0.9c5.1,0,8.2,0.9,9.5,4v57.1
				c0,10.3-3.6,16.1-10.4,16.8v3.4h25v-3.4c-6.5-0.2-10.5-6.2-10.5-16.8v-51.8l29.1,72h4l30.3-73.5v63.7c0,4.6-2.1,5.9-8.3,6.2
				l-3.4,0.1v3.4h41.9v-3.4l-2.6-0.1c-6-0.4-8.2-1.4-8.2-6.2v-65.5c0-4.7,2.1-5.8,8.2-6.2l2.6-0.2v-2.8H40.3l-24.4,58.8l-24-58.8
				H-38.3z M170.3,140.1v3.1h0.8c6.5,0,9.6,3,9.6,9.2v52.1c0,10.4-3.2,15.8-10.4,16.7v3.3h27.8v-3.3c-9.1-0.4-13.5-5.8-13.5-16.7
				v-52.2l61.8,73.8h4.1v-66.2c0-10.4,3.3-15.8,10.5-16.7v-3.1h-27.8v3.1c8.8,0.5,13.5,6.2,13.5,16.9v37l-47.9-57H170.3z M120,142.2
				c14.7,0,21.8,13.4,21.8,40.2c0,26.1-8.3,40-21.8,40c-14.3,0-21.8-13.2-21.8-39C98.2,156.3,106.3,142.2,120,142.2z M301.8,164.4
				l12.8,31.8h-26.2L301.8,164.4z"/>
			<path id="path863" class="st1" d="M483.5,138.4c-3.1,6.8-7.2,13.3-12.7,19.3l2.5,2.4c0.7,0.6,1.1,1.3,1.1,1.9
				c0,0.4-0.1,0.9-0.4,1.4l-18.4,42.2c-4,9.1-6.5,14.7-14.5,15.6v3.3h29.6v-3.3c-6.9-0.5-10.8-4.6-10.8-11.4c0-1.8,0.2-3.6,0.7-4.9
				l1.5-5.1h29.5l4,10.1c1.1,2.7,1.8,4.7,1.8,5.9c0,3-1.8,4.5-5.4,4.9l-3.7,0.4v3.4h40.6v-3.4h-0.4c-5.2,0-7.5-2.8-10.2-9.2
				l-31.3-73.5H483.5z M536.1,140.1v2.8l2.5,0.2c6,0.4,8.2,1.4,8.2,6.2v65.5c0,4.7-2.1,5.8-8.2,6.2l-2.5,0.1v3.4H577v-3.4l-2.5-0.1
				c-6-0.4-8.2-1.4-8.2-6.2v-65.5c0-4.7,2.1-5.8,8.2-6.2l2.5-0.2v-2.8H536.1z M583.2,140.1v2.8l2.5,0.2c6,0.4,8.2,1.4,8.2,6.2v65.5
				c0,4.7-2.1,5.8-8.2,6.2l-2.5,0.1v3.4h40.8v-3.4l-3-0.1c-5.9-0.2-8.2-1.2-8.2-6.2v-29.5h3c4.6,0,6.4,1.3,9.8,7.5l17.8,31.8h25.1
				v-3.4h-0.7c-3.2,0-4.4-1.7-6-4.3l-17.8-26.8c-3.3-4.9-6.2-7.6-11.8-8.1c14.6-2.7,22.2-9.7,22.2-20.3c0-7.7-4.1-14.5-11.1-18.1
				c-6.4-3.4-14.1-3.6-23.5-3.6l-1.9,0L583.2,140.1z M619.5,143.3c8.6,0,14.5,7.3,14.5,19.8c0,12.8-5.4,18.6-17.3,18.6h-3.9v-32.3
				C612.8,145.1,614.7,143.3,619.5,143.3z M477.3,164.4l12.8,31.8h-26.2L477.3,164.4z"/>
		</g>
		<path id="path851" class="st1" d="M559.3,77.7l-0.8-20c-1-22.9,16-28.1,28-35.1c14.7-8.6,19.8-14.2,23.3-21.2c1-2.1,3-1.6,3.4,0
			c1.7,6.2-1.9,14.7-19.1,25c-31.3,18.7-23,17.4-23,17.4c5.3-5.8,12.7-9.8,20.3-12.9c11.2-4.7,18.4-10.4,22.1-17.9
			c1.5-3.1,2.5-0.6,2.5,1c0,4.6-2.8,15.5-22.9,23.6c-8.1,3.3-15.9,7.5-23.1,13.3c-1.1,0.9-1.1,2.4,0.8,0.7c6-3.5,10.1-6.3,16.3-8
			c9.7-2.6,15.1-6.3,19.1-10.5c1.3-1.3,2.6-1.9,1.9,1.4c-1.1,6-8.8,10.9-18.5,14c-8.9,2.9-16.6,7.1-23.3,13c-1,0.9,0,1.9,0.8,1.4
			c4.1-2.5,8.1-5.1,12.8-7.1c5.3-2.3,11.4-3.9,14.4-6.8c2-1.9,4.2-1.3,2,1.7c-3.2,4.5-7.2,8.1-14.9,10.2
			C571,63.8,564.3,69.9,559.3,77.7L559.3,77.7z"/>
	</g>
</g>
</svg>
