<?xml version="1.0" encoding="utf-8"?>
<!-- Generator: Adobe Illustrator 25.4.1, SVG Export Plug-In . SVG Version: 6.00 Build 0)  -->
<svg version="1.1" id="Layer_1" xmlns="http://www.w3.org/2000/svg" xmlns:xlink="http://www.w3.org/1999/xlink" x="0px" y="0px"
	 viewBox="0 0 135.7 80" style="enable-background:new 0 0 135.7 80;" xml:space="preserve">
<style type="text/css">
	.st0{fill:#90183B;}
</style>
<path class="st0" d="M117.5,0c-12.8,0-26.6,8.7-31.6,21.9c-3.5,9.2-4,24.4,8.7,35.5c0.3-5.5-0.2-10.9,2-16.8
	c8.8-23.1,24-29.8,39.1-33.4C133.9,3.2,128.7,0,117.5,0z"/>
<path class="st0" d="M22.5,3.5C15.5,3.8,7,5.8,0,8.3C23.4,8,40,22.6,51.6,42.2c7.1,12,16.7,21.7,28.3,29.7
	c-6.6,0.2-13.3,0.2-20.5-4.2c-5.1-3.1-10.9-6.1-19.4-6.4c-6.4-0.3-11.8,2.5-15.9,6.2c12.7-2.6,21.5,1.1,29.8,5.2
	c8.6,4.3,17.7,7.4,28.7,7.3c13.5-0.1,22-4,28.3-9.4c-3.3-0.6-18.2,2.4-40-35C61.3,19,49.3,4.6,25.3,3.6C24.4,3.5,23.5,3.5,22.5,3.5
	L22.5,3.5z"/>
</svg>
