<?xml version="1.0" encoding="utf-8"?>
<!-- Generator: Adobe Illustrator 25.4.1, SVG Export Plug-In . SVG Version: 6.00 Build 0)  -->
<svg version="1.1" id="Layer_1" xmlns="http://www.w3.org/2000/svg" xmlns:xlink="http://www.w3.org/1999/xlink" x="0px" y="0px"
	 viewBox="0 0 516.1 80" style="enable-background:new 0 0 516.1 80;" xml:space="preserve">
<style type="text/css">
	.st0{fill:#90183B;}
</style>
<g id="layer1">
	<path id="path9438" class="st0" d="M117.5,0c-12.8,0-26.6,8.7-31.6,21.9c-3.5,9.2-4,24.4,8.7,35.5c0.3-5.5-0.2-10.9,2-16.8
		c8.8-23.1,24-29.8,39.1-33.4C133.9,3.2,128.7,0,117.5,0z M22.5,3.5C15.5,3.8,7,5.8,0,8.3C23.4,8,40,22.6,51.6,42.2
		c7.1,12,16.7,21.7,28.3,29.7c-6.6,0.2-13.3,0.2-20.5-4.2c-5.1-3.1-10.9-6.1-19.4-6.4c-6.4-0.3-11.8,2.5-15.9,6.2
		c12.7-2.6,21.5,1.1,29.8,5.2c8.6,4.3,17.7,7.4,28.7,7.3c13.5-0.1,22-4,28.3-9.4c-3.3-0.6-18.2,2.4-40-35C61.3,19,49.3,4.6,25.3,3.6
		C24.4,3.5,23.5,3.5,22.5,3.5L22.5,3.5z M428.5,26c-1.9-0.1-4.4,1.2-5.1,2.9l-12.1,31.8h9l8-21l1,1.1L443.8,57l1,1.1l0,0.1l2.3,2.5
		c0.4,0.4,0.9,0.6,1.5,0.6c1.9,0.1,4.4-1.2,5.1-2.9l12.1-31.8h-9l-8,21l-1-1.1l-14.5-16.2l-1-1.1l0-0.1l-2.3-2.5
		C429.6,26.3,429.1,26.1,428.5,26L428.5,26z M129.7,26.7c-7.2,0-14.1,4.4-16.2,9.9c-2.4,6.4,1.1,10.1,8.6,10.1h7.4h15.6
		c1.8,0,2.3,2.1,1.9,3.2c-0.4,1.1-2.5,3.6-4.4,3.6h-34.5l-2.7,7.2h34.5c7.2,0,14.4-5.2,16.5-10.8c2.4-6.4-1-10.4-8.5-10.4h-15.6
		h-7.4c-1.8,0-2.4-1.8-2-2.8c0.4-1.1,2.1-2.7,4.1-2.7h33.2l2.7-7.2L129.7,26.7z M168,26.7l-13,34.1h9l5.7-15l17.3,15h12.3l-19-16.9
		l32.3-17.1h-12.3l-29.1,15.2l5.8-15.2H168z M212.9,26.7L225,50.1l-4,10.6h9l4-10.6l30-23.4h-11l-20.7,16.2l-0.6,1.8h-0.2l0.8-1.8
		l-8.4-16.2H212.9z M267,26.7l-2.7,7.2h16.1l-10.2,26.8h9l10.2-26.8h16.1l2.7-7.2L267,26.7z M310.5,26.7l-13,34.1h9l10.2-26.8h21.9
		c6.1,0,9.2,1.6,7.9,4.8c-2.2,5.7-7.2,5.8-12,5.8h-19.3l-2.7,7.2h16.6l7.7,9H349l-8.4-9.7c8.2-1.6,12.7-5.7,15.2-12.3
		c2.7-7.1-3-12.1-14.5-12.1h-21.9H310.5z M393,26.7c-3.4,0-6.2,2.4-9.2,5.1l-32.8,29h11.1l27.1-23.9l2.8,7.5h-9.2l-8.5,7.5h20.5
		l3.3,8.9h11.1l-10.8-29C397.3,29.1,396.4,26.7,393,26.7z M483,26.7c-7.2,0-14.1,4.4-16.2,9.9c-2.4,6.4,1.1,10.1,8.6,10.1h7.4h15.6
		c1.8,0,2.3,2.1,1.9,3.2c-0.4,1.1-2.5,3.6-4.4,3.6h-34.5l-2.7,7.2h34.5c7.2,0,14.4-5.2,16.5-10.8c2.4-6.4-1-10.4-8.5-10.4h-15.6
		h-7.4c-1.8,0-2.4-1.8-2-2.8c0.4-1.1,2.1-2.7,4.1-2.7h33.2l2.7-7.2L483,26.7z M170.7,43.4l1.4,0.2l-1.6,0.3L170.7,43.4z"/>
</g>
</svg>
