<?xml version="1.0" encoding="utf-8"?>
<!-- Generator: Adobe Illustrator 25.4.1, SVG Export Plug-In . SVG Version: 6.00 Build 0)  -->
<svg version="1.1" id="Layer_1" xmlns="http://www.w3.org/2000/svg" xmlns:xlink="http://www.w3.org/1999/xlink" x="0px" y="0px"
	 viewBox="0 0 446.55 80" style="enable-background:new 0 0 446.55 80;" xml:space="preserve">
<style type="text/css">
	.st0{fill:#FDB827;}
	.st1{fill:#003263;}
</style>
<g>
	<polygon class="st0" points="181.6,3.63 175.21,3.65 175.89,0 198.31,0 171.44,19.25 173.77,9.39 	"/>
	<path class="st1" d="M403.81,52.15c-1.98,9.36,4.71,12.72,12.23,12.72c6.72,0,14.01-2.04,20.8-3.96l-6.31,16.81
		c-6.81,1.44-13.7,2.28-20.32,2.28c-18.13,0-32.76-5.77-27.73-29.42c1.36-6.37,9.49-33.37,39.82-33.37c18.7,0,27,9.24,23.46,25.93
		c-0.64,3-1.51,6-2.72,9.01L403.81,52.15 M425.17,41.22c1.48-6.97-0.5-10.57-5.97-10.57c-6.16,0-10.72,5.4-12.39,10.57H425.17z
		 M383.85,37.26c-4.31-1.68-8.96-2.88-13.86-2.88c-8.79,0-15.52,5.41-17.51,14.77c-1.92,9,1.66,13.69,10.21,13.69
		c4.79,0,9.94-1.2,14.75-2.88l-6.53,17.89c-5.9,1.45-11.75,2.17-17.46,2.17c-18.58,0-26.94-10.57-22.73-30.38
		c1.35-6.36,8.37-32.41,37.11-32.41c7.42,0,13.3,0.72,18.78,2.28L383.85,37.26 M288.22,26.45l0.17,0.24
		c6.86-7.09,14.55-9.48,23.34-9.48c11.17,0,19.92,4.44,16.8,19.08l-10.58,42.26H295.5c2.9-10.45,6.16-20.89,8.37-31.33
		c1.25-5.88,0.69-11.29-5.93-11.29c-5.81,0-10.59,4.2-13.38,9.85c-3.29,6.37-9.81,32.77-9.81,32.77h-22.69l16.15-59.9h22.23
		L288.22,26.45 M206.74,20.92c9.47-2.16,18.92-3.72,27.7-3.72c18.01,0,22.59,6.36,20.47,16.33l-11.51,45.02h-21.89
		c2.8-8.88,5.05-17.89,7.4-26.77c-4.88,3.12-18.1,3.6-19.6,10.68c-0.8,3.72,2.17,4.8,5.25,4.8c2.06,0,4.18-0.36,6.27-1.08
		l-6.54,13.09c-3.18,0.48-6.2,0.72-9.28,0.72c-20.86,0-17.73-15.85-17.44-17.18c5.37-25.33,42.61-17.53,44.85-28.09
		c0.84-3.96-2.98-4.81-6.05-4.81c-7.98,0-17.02,2.77-25.03,5.65L206.74,20.92 M156.84,78.69l14.61-58.91l21.88,0.18l-14.61,58.73
		L156.84,78.69z M126.53,78.69l19.55-78.57h21.52l-19.21,78.56L126.53,78.69z M96.62,78.56L116.17,0h21.52L118.5,78.56L96.62,78.56z
		 M54.65,0.01L0,78.52h25.43l16.39-23.42l26.1,0.33l2.57,23.08h25.43L84.98,9.72l8.36-9.7L54.65,0.01z M64.57,17.86l2.9,21.3h-17.4
		L64.57,17.86z"/>
</g>
</svg>
