<svg width="273" height="80" viewBox="0 0 273 80" fill="none" xmlns="http://www.w3.org/2000/svg">
<g clip-path="url(#clip0_709_1279)">
<path fill-rule="evenodd" clip-rule="evenodd" d="M210.756 11.4359L231.32 10.2071C220.461 9.84343 214.016 9.84343 211.985 10.0566L208.95 10.7086C208.586 11.0723 209.238 11.298 210.756 11.4359Z" fill="#74838E"/>
<path fill-rule="evenodd" clip-rule="evenodd" d="M206.202 16.5769L240.007 15.8496L207.28 14.696C202.929 14.4076 200.547 14.696 200.183 15.4985C199.543 16.5769 201.637 16.9405 206.202 16.5769Z" fill="#74838E"/>
<path fill-rule="evenodd" clip-rule="evenodd" d="M194.252 23.0975L245.299 21.2919L199.318 20.7151C195.845 20.7151 194.039 21.0787 194.039 21.806L194.252 23.0975Z" fill="#74838E"/>
<path fill-rule="evenodd" clip-rule="evenodd" d="M197.665 29.8928L248.913 27.5856L193.376 26.7079C191.934 26.8583 191.132 27.222 190.981 27.9367C190.781 29.5417 192.95 30.1185 197.665 29.8928Z" fill="#74838E"/>
<path d="M189.037 34.6074C189.326 33.2281 191.207 32.6513 194.83 32.6513L218 33.3088L217.702 35.0749L190.266 35.761C189.401 35.6858 188.975 35.1842 189.037 34.6074Z" fill="#74838E"/>
<path d="M250.943 34.2437L221.5 34.98L221 33.3088L250.943 34.2437Z" fill="#74838E"/>
<path fill-rule="evenodd" clip-rule="evenodd" d="M189.765 41.9184L208.95 41.7053L211.621 38.6582H192.436C189.539 38.6582 188.235 39.3103 188.599 40.6143C188.674 41.3416 189.037 41.8432 189.765 41.9184Z" fill="#74838E"/>
<path fill-rule="evenodd" clip-rule="evenodd" d="M194.041 48.364L206.204 47.4988L207.797 44.7527L193.539 44.9659C190.793 44.9659 189.414 45.5427 189.414 46.6336C189.414 47.4988 189.778 48.0129 190.43 48.0882L194.041 48.364Z" fill="#74838E"/>
<path fill-rule="evenodd" clip-rule="evenodd" d="M195.919 54.1564L226.828 52.9275L224.659 50.7582L194.828 50.9714L191.718 51.335C191.355 51.6234 191.204 52.0623 191.355 52.7144C191.568 54.0059 193.16 54.52 195.919 54.1564Z" fill="#74838E"/>
<path fill-rule="evenodd" clip-rule="evenodd" d="M230.972 57.9937L200.2 57.7805C196.439 57.7805 194.771 58.2194 194.846 59.2978C195.21 60.6771 197.304 61.0407 201.291 60.6771L232.852 59.9498L230.972 57.9937Z" fill="#74838E"/>
<path fill-rule="evenodd" clip-rule="evenodd" d="M234.791 64.2877L201.7 63.9993C200.973 63.9993 200.609 64.2877 200.609 64.8645C200.609 65.9554 202.929 66.4569 207.481 66.1685L238.039 65.0776L234.791 64.2877Z" fill="#74838E"/>
<path fill-rule="evenodd" clip-rule="evenodd" d="M213.937 70.6577L232.043 70.0809L213.071 69.3537C210.538 68.99 209.234 69.2032 209.234 70.0809L213.937 70.6577Z" fill="#74838E"/>
<path fill-rule="evenodd" clip-rule="evenodd" d="M265.425 2.82124C258.842 5.64256 246.027 13.1034 227.055 25.4169C236.823 19.9874 245.801 15.7868 254.127 12.7523L268.973 7.82438L271.87 8.03754C272.447 8.40118 271.582 8.90275 269.55 9.49209C266.077 10.583 259.632 13.2538 250.215 17.6049C239.356 22.5328 233.124 26.0062 231.318 28.1755L243.845 28.4639C242.027 30.7084 239.857 31.9372 237.325 32.0877L234.93 32.1629C237.688 36.652 242.177 39.1849 248.321 39.5485L252.522 39.7617L252.735 43.0219L235.143 44.7523L252.158 45.8432C252.384 48.3761 252.309 49.6802 251.945 49.6802H234.779L250.566 51.9999L249.626 56.0501L235.368 57.141L248.033 58.5078L245.061 62.5579L237.312 63.5736L243.318 64.8777L236.723 69.4419C232.02 64.7397 228.472 60.7523 226.227 57.7805L221.588 51.3354L215.218 52.7147C220.798 48.7397 223.757 45.6927 224.271 43.8871C224.133 40.4137 223.908 38.094 223.544 36.7899L221.224 39.1723C220.861 35.699 220.284 33.5297 219.707 32.652L218.842 35.3354L215.005 38.6708L217.751 38.4576C216.083 47.7241 212.321 53.6551 206.39 56.0501L202.917 52.4263L205.312 50.257L201.688 51.3479L200.961 50.257C204.51 44.3886 207.256 40.2633 209.425 37.8808L219.92 28.3259C225.864 23.398 231.293 19.2727 236.434 16.025C249.851 7.88707 259.557 2.74601 265.425 0.576727C267.745 -0.288477 268.685 -0.150546 268.108 0.789893L265.425 2.82124Z" fill="#7A003C"/>
<path fill-rule="evenodd" clip-rule="evenodd" d="M166.812 73.2663V71.3729C166.812 70.3948 168.091 69.3666 170.599 68.351L171.979 67.6613V74.7334H174.963V67.0093L174.524 66.8212C174.449 66.6331 174.524 66.4575 174.7 66.2694C174.988 66.0187 175.79 65.4669 177.145 64.5516V76.7146H142.9C142.9 77.8431 142.461 78.7585 141.546 79.3729L139.615 79.9873C139.001 79.9873 138.374 79.6613 137.722 79.072C137.358 78.7459 137.433 78.5579 137.834 78.5202C138.75 78.8086 139.477 78.7083 140.016 78.1942C140.568 77.8306 140.819 77.3541 140.819 76.7021L140.932 70.7334L140.355 70.5202C140.204 70.3698 140.28 70.1942 140.568 70.0061L142.938 68.2632L143.013 74.7083H145.747V67.1723C145.095 66.8839 145.095 66.445 145.747 65.9685L148.004 64.3635V70.4199C148.606 69.8431 149.471 69.5296 150.549 69.5296H158.85C159.753 69.5296 160.593 69.818 161.396 70.445C162.198 71.097 162.599 72.0124 162.599 73.1785L162.574 74.7083H169.847V73.2538H166.812V73.2663ZM129.082 65.6425V74.7209H135.753V72.1754C135.026 71.9999 134.95 71.6237 135.565 71.0845L137.859 69.4795V76.7271H122.336L122.624 73.3039C122.624 72.6519 123.276 71.8118 124.631 70.8964C125.433 70.3447 126.16 69.9184 126.812 69.6174L126.925 68.7397C126.374 68.5641 126.198 68.376 126.374 68.1879L129.082 65.6425ZM169.872 70.5328C168.894 70.8212 168.417 71.1848 168.417 71.7365H169.872V70.5328ZM124.555 74.7209H126.888V71.8494L125.107 72.7522C124.555 73.1158 124.38 73.8055 124.555 74.7209ZM123.979 64.3384C124.894 64.3384 125.295 64.7021 125.295 65.3541C125.295 65.9058 124.894 66.1942 123.979 66.1942C123.289 66.1942 122.925 65.9058 122.925 65.3541C122.925 64.7021 123.289 64.3384 123.979 64.3384ZM126.812 64.3384C127.728 64.3384 128.154 64.7021 128.154 65.3541C128.154 65.9058 127.715 66.1942 126.812 66.1942C126.16 66.1942 125.797 65.9058 125.797 65.3541C125.797 64.7021 126.16 64.3384 126.812 64.3384ZM131.189 77.4544C132.029 77.4544 132.468 77.818 132.468 78.4701C132.468 79.0218 132.029 79.3102 131.189 79.3102C130.461 79.3102 130.098 79.0218 130.098 78.4701C130.098 77.818 130.461 77.4544 131.189 77.4544ZM134.173 77.4544C135.013 77.4544 135.452 77.818 135.452 78.4701C135.452 79.0218 135.013 79.3102 134.173 79.3102C133.446 79.3102 133.082 79.0218 133.082 78.4701C133.082 77.818 133.446 77.4544 134.173 77.4544ZM167.515 64.1503C168.417 64.1503 168.819 64.514 168.819 65.166C168.819 65.7177 168.417 66.0061 167.515 66.0061C166.825 66.0061 166.461 65.7177 166.461 65.166C166.449 64.514 166.812 64.1503 167.515 64.1503ZM170.461 64.1503C171.339 64.1503 171.74 64.514 171.74 65.166C171.74 65.7177 171.339 66.0061 170.461 66.0061C169.809 66.0061 169.446 65.7177 169.446 65.166C169.433 64.514 169.797 64.1503 170.461 64.1503ZM160.417 74.7209H148.016V72.6017C148.367 71.9873 148.906 71.6613 149.696 71.6613H158.8C159.678 71.6613 160.154 71.8494 160.33 72.2757L160.443 73.2914L160.417 74.7209ZM181.095 64.6268V76.7271H178.838V66.9967C178.624 67.072 178.474 66.9967 178.436 66.8086L178.624 66.2569L181.095 64.6268Z" fill="#7A003C"/>
<path fill-rule="evenodd" clip-rule="evenodd" d="M74.0033 56.0007H82.4422L65.5644 18.2327H62.4296L45.9531 56.0007H50.8559L55.6459 44.264H69.2133L74.0033 56.0007ZM57.0503 40.8157L62.4296 27.6371L67.8089 40.8157H57.0503Z" fill="#7A003C"/>
<path fill-rule="evenodd" clip-rule="evenodd" d="M136.214 56.0007H144.653L127.775 18.2327H124.641L108.164 56.0007H113.067L117.857 44.264H131.424L136.214 56.0007ZM119.261 40.8157L124.641 27.6371L130.02 40.8157H119.261Z" fill="#7A003C"/>
<path fill-rule="evenodd" clip-rule="evenodd" d="M81.1797 18.2327H109.769V22.8095H99.5621V56.0007H91.4493V22.8095H81.1797V18.2327Z" fill="#7A003C"/>
<path fill-rule="evenodd" clip-rule="evenodd" d="M42.5078 37.6056C42.5078 26.383 32.9906 17.2795 21.2539 17.2795C9.51724 17.2795 0 26.383 0 37.6056C0 48.8407 9.51724 57.9441 21.2539 57.9441C22.3072 57.9441 23.348 57.8438 24.3636 57.7059L35.674 67.9002L41.7053 63.0726L29.7555 56.2388C37.2665 53.104 42.5078 45.9441 42.5078 37.6056ZM21.2539 54.3078C13.4545 54.3078 7.1348 46.8344 7.1348 37.6056C7.1348 28.3767 13.4545 20.9034 21.2539 20.9034C29.0533 20.9034 35.373 28.3767 35.373 37.6056C35.373 46.8344 29.0533 54.3078 21.2539 54.3078Z" fill="#7A003C"/>
<path fill-rule="evenodd" clip-rule="evenodd" d="M166.912 38.3955C170.85 37.593 176.517 33.894 176.517 26.4582C176.517 19.0225 167.74 18.22 167.74 18.22H157.596H154.486H151V55.988H157.596V39.198H159.84L170.687 55.5868H180.003L166.912 38.3955ZM157.583 36.0632V20.2388H166.097C166.097 20.2388 170.674 22.8093 170.674 27.5491C170.674 32.2889 168.668 36.0632 165.771 36.0632C162.887 36.0632 157.583 36.0632 157.583 36.0632Z" fill="#7A003C"/>
<path d="M48.5025 63.4359H50.3207L55.1358 75.7619H53.3176L51.9759 72.0503H46.7596L45.3803 75.7619H43.6875L48.5025 63.4359ZM47.2737 70.671H51.4493L49.3928 64.928H49.3552L47.2737 70.671Z" fill="#4F616E"/>
<path d="M56.4141 63.4359H58.0567V75.7619H56.4141V63.4359Z" fill="#4F616E"/>
<path d="M60.8125 63.4359H66.6181C68.9379 63.4359 70.3674 64.7023 70.3674 66.671C70.3674 68.1632 69.7153 69.3795 68.2232 69.7933V69.8309C69.6526 70.1067 69.9536 71.16 70.0664 72.3638C70.1667 73.5675 70.104 74.9218 70.7937 75.7619H68.963C68.499 75.2603 68.7623 73.9312 68.5116 72.7274C68.336 71.5237 68.0476 70.4954 66.4551 70.4954H62.4551V75.7619H60.8125V63.4359ZM65.8658 69.1161C67.3956 69.1161 68.7122 68.7149 68.7122 66.9218C68.7122 65.718 68.0601 64.8152 66.5178 64.8152H62.4426V69.1161H65.8658Z" fill="#4F616E"/>
<path d="M83.4759 75.7619H81.758L78.9367 65.4045H78.8991L76.0527 75.7619H74.3474L71.1875 63.4359H72.8678L75.2878 73.6929H75.3254L78.0841 63.4359H79.8646L82.5982 73.6929H82.6358L85.1436 63.4359H86.7862L83.4759 75.7619Z" fill="#4F616E"/>
<path d="M91.2604 63.4359H93.0785L97.8936 75.7619H96.0754L94.7337 72.0503H89.5174L88.1381 75.7619H86.4453L91.2604 63.4359ZM90.0315 70.671H94.2071L92.1506 64.928H92.113L90.0315 70.671Z" fill="#4F616E"/>
<path d="M102.908 70.7212V75.7619H101.265V70.7212L96.5 63.4359H98.4561L102.155 69.3042L105.766 63.4359H107.635L102.908 70.7212Z" fill="#4F616E"/>
<path d="M116.142 67.0475C115.954 65.2921 114.775 64.5272 113.082 64.5272C111.703 64.5272 110.323 65.0287 110.323 66.6337C110.323 68.151 112.292 68.3767 114.273 68.8281C116.242 69.2795 118.211 69.9692 118.211 72.3892C118.211 75.0099 115.64 76.0632 113.396 76.0632C110.637 76.0632 108.305 74.709 108.305 71.7121H109.86C109.86 73.7811 111.59 74.6839 113.446 74.6839C114.925 74.6839 116.568 74.22 116.568 72.4394C116.568 70.7466 114.599 70.4582 112.631 70.0193C110.662 69.593 108.681 69.0162 108.681 66.7591C108.681 64.2513 110.913 63.1479 113.157 63.1479C115.678 63.1479 117.596 64.3391 117.697 67.0475H116.142Z" fill="#4F616E"/>
</g>
<defs>
<clipPath id="clip0_709_1279">
<rect width="272.05" height="80" fill="white"/>
</clipPath>
</defs>
</svg>
