<?xml version="1.0" encoding="utf-8"?>
<!-- Generator: Adobe Illustrator 25.4.1, SVG Export Plug-In . SVG Version: 6.00 Build 0)  -->
<svg version="1.1" id="Layer_1" xmlns="http://www.w3.org/2000/svg" xmlns:xlink="http://www.w3.org/1999/xlink" x="0px" y="0px"
	 viewBox="0 0 106.61 80" style="enable-background:new 0 0 106.61 80;" xml:space="preserve">
<style type="text/css">
	.st0{fill:#F28E00;}
</style>
<path id="path15097" class="st0" d="M28.99,8.39c5-0.69,17.72-2.48,22.2-3.48c4.49-1,29.35-4.66,42.21-4.87
	c12.86-0.22,12.09,0.63,12.47,2.99c0.39,2.35,1.5,3.18-0.1,5.41c-1.61,2.23-4.37,3.17-8.21,4.77c-7.11,2.93-38.52,11.2-42.75,13.31
	c6.49-0.32,15.97-2.12,25.34-2.39c6.24-0.18,7.12,1.2,7.63,3.96c0.51,2.77,0.87,4.26-3.36,5.97c-4.21,1.71-9.21,3.5-19.17,6.38
	c-13.71,3.97-22.07,5.97-32.54,10.33c5.75,0.52,15.11-0.31,22.6,0.01c11.24,0.48,11.87,1.71,12.15,5.03c0.27,3.33,0.52,4.3-4.09,6.4
	c-4.61,2.11-12.96,4.24-17.7,5.24c-4.75,1-22.37,4.78-25.8,5.68c-2.99,0.78-5.62,4.32-10.35,5.93c-5.27,1.79-7.57,1.08-9.25-2.71
	c-1.23-2.76,2.22-5.29,6.59-6.56c4.36-1.27,17.2-4.13,22.69-5.55c5.49-1.43,16.39-4.45,20.06-5.88c-4.83,0.04-16.91,0.24-25.89,0.43
	c-5.38,0.1-7.43-0.15-8.32-4.17c-0.9-4,0.84-5.41,5.7-6.97c4.86-1.56,12.18-4.9,16.91-6.46c4.74-1.56,17.85-6.24,21.6-7.1
	c-8.87-0.21-29,4.24-34.19,5.36c-3.99,0.86-4.51-0.54-6.03-3.34c-1.53-2.78,0.43-4.65,2.87-5.23c2.99-0.71,9.02-3.65,17.19-6.91
	c6.62-2.64,16.01-5.42,22.93-7.77c6.57-2.24,17.71-6.01,21.27-7.51c-2.87-0.02-16.05,1.93-24.67,3.1
	c-8.6,1.17-23.36,4.19-25.59,5.03c-2.25,0.85-4.84,0.54-6.36-2.87C25.51,10.56,26.86,8.67,28.99,8.39"/>
</svg>
