<?xml version="1.0" encoding="utf-8"?>
<!-- Generator: Adobe Illustrator 25.4.1, SVG Export Plug-In . SVG Version: 6.00 Build 0)  -->
<svg version="1.1" id="Layer_4" xmlns="http://www.w3.org/2000/svg" xmlns:xlink="http://www.w3.org/1999/xlink" x="0px" y="0px"
	 viewBox="0 0 144.89 80.27" style="enable-background:new 0 0 144.89 80.27;" xml:space="preserve">
<style type="text/css">
	.st0{fill:#003E69;}
	.st1{fill:#CF003D;}
	
		.st2{clip-path:url(#SVGID_00000163765067192179161310000007193149097088847288_);fill:url(#rect29_00000073698954479981503440000014136205942488254880_);}
</style>
<g>
	<path id="path4" class="st0" d="M49.15,54.48c-6.28-9.28-15.34-14.62-24.8-14.62H0l17.26,25.47c6.28,9.28,15.34,14.62,24.8,14.62
		h24.35L49.15,54.48z"/>
	<path id="path6" class="st1" d="M117.94,0c-10.45,0-22.02,8.21-31.57,22.47l-26.86,40L71.35,80h3.32
		c10.45,0,22.02-8.21,31.57-22.47L144.89,0H117.94z"/>
	<g id="g31" transform="matrix(0.82330891,0,0,0.82330891,-18.253246,-185.93937)">
		<g>
			<defs>
				<path id="SVGID_1_" d="M165.42,225.84c-12.69,0-26.74,9.97-38.34,27.29l-32.63,48.58l14.43,21.3h4.03
					c12.69,0,26.74-9.97,38.34-27.29l46.9-69.88H165.42z"/>
			</defs>
			<clipPath id="SVGID_00000160903238205790975070000002349673119896852920_">
				<use xlink:href="#SVGID_1_"  style="overflow:visible;"/>
			</clipPath>
			
				<linearGradient id="rect29_00000038371142952745302270000012868139229353433223_" gradientUnits="userSpaceOnUse" x1="178.0989" y1="-62.9015" x2="262.9402" y2="34.2219" gradientTransform="matrix(0.8233 0 0 -0.8233 -40.634 268.7526)">
				<stop  offset="0" style="stop-color:#AE4904"/>
				<stop  offset="0.5" style="stop-color:#E99D01"/>
				<stop  offset="1" style="stop-color:#F5AD00"/>
			</linearGradient>
			
				<rect id="rect29" x="94.45" y="225.84" style="clip-path:url(#SVGID_00000160903238205790975070000002349673119896852920_);fill:url(#rect29_00000038371142952745302270000012868139229353433223_);" width="103.7" height="97.11"/>
		</g>
	</g>
</g>
</svg>
