<?xml version="1.0" encoding="utf-8"?>
<!-- Generator: Adobe Illustrator 25.4.1, SVG Export Plug-In . SVG Version: 6.00 Build 0)  -->
<svg version="1.1" id="Layer_4" xmlns="http://www.w3.org/2000/svg" xmlns:xlink="http://www.w3.org/1999/xlink" x="0px" y="0px"
	 viewBox="0 0 244.65 80.27" style="enable-background:new 0 0 244.65 80.27;" xml:space="preserve">
<style type="text/css">
	.st0{enable-background:new    ;}
	.st1{fill:#F3AC00;}
	.st2{fill:#003E69;}
	.st3{fill:#CF003D;}
	
		.st4{clip-path:url(#SVGID_00000087394124080882416810000006869006838945725856_);fill:url(#rect29_00000004537806747349992000000007988331306344561333_);}
</style>
<g class="st0">
	<path class="st1" d="M11.55,43.4h1.93v8.42c0,1.46-0.17,2.63-0.5,3.49c-0.33,0.86-0.93,1.56-1.79,2.1c-0.87,0.54-2,0.81-3.41,0.81
		c-1.37,0-2.48-0.24-3.35-0.71s-1.49-1.15-1.86-2.04c-0.37-0.89-0.56-2.11-0.56-3.65V43.4h1.93v8.41c0,1.27,0.12,2.2,0.35,2.8
		c0.24,0.6,0.64,1.06,1.21,1.39c0.57,0.32,1.27,0.49,2.1,0.49c1.42,0,2.43-0.32,3.03-0.96c0.6-0.64,0.9-1.88,0.9-3.71V43.4z"/>
	<path class="st1" d="M16.47,57.98V43.4h1.79v8.31l4.24-4.3h2.32l-4.04,3.92l4.44,6.64h-2.21l-3.49-5.4l-1.26,1.21v4.19H16.47z"/>
	<path class="st1" d="M26.63,57.98V47.42h1.61v1.6c0.41-0.75,0.79-1.24,1.14-1.48c0.35-0.24,0.73-0.36,1.15-0.36
		c0.6,0,1.22,0.19,1.84,0.58l-0.62,1.66c-0.44-0.26-0.88-0.39-1.31-0.39c-0.39,0-0.74,0.12-1.05,0.35
		c-0.31,0.24-0.53,0.56-0.67,0.98c-0.2,0.64-0.3,1.33-0.3,2.09v5.53H26.63z"/>
	<path class="st1" d="M40.32,56.67c-0.66,0.56-1.3,0.96-1.91,1.19c-0.61,0.23-1.27,0.35-1.97,0.35c-1.16,0-2.05-0.28-2.67-0.85
		c-0.62-0.57-0.93-1.29-0.93-2.17c0-0.52,0.12-0.99,0.35-1.42c0.24-0.43,0.54-0.77,0.92-1.03c0.38-0.26,0.81-0.45,1.29-0.59
		c0.35-0.09,0.88-0.18,1.59-0.27c1.45-0.17,2.51-0.38,3.19-0.62c0.01-0.25,0.01-0.4,0.01-0.47c0-0.73-0.17-1.24-0.51-1.54
		c-0.46-0.4-1.14-0.61-2.04-0.61c-0.84,0-1.46,0.15-1.86,0.44s-0.7,0.82-0.89,1.57l-1.75-0.24c0.16-0.75,0.42-1.35,0.79-1.81
		c0.36-0.46,0.89-0.82,1.58-1.06c0.69-0.25,1.49-0.37,2.4-0.37c0.9,0,1.63,0.11,2.2,0.32c0.56,0.21,0.98,0.48,1.24,0.8
		c0.27,0.32,0.45,0.73,0.56,1.22c0.06,0.31,0.09,0.86,0.09,1.65v2.39c0,1.66,0.04,2.72,0.11,3.16c0.08,0.44,0.23,0.86,0.45,1.27
		h-1.87C40.49,57.61,40.37,57.17,40.32,56.67z M40.17,52.68c-0.65,0.27-1.62,0.49-2.92,0.68c-0.74,0.11-1.26,0.23-1.56,0.36
		c-0.31,0.13-0.54,0.33-0.71,0.58c-0.17,0.26-0.25,0.54-0.25,0.85c0,0.48,0.18,0.87,0.54,1.19c0.36,0.32,0.89,0.48,1.59,0.48
		c0.69,0,1.3-0.15,1.84-0.45c0.54-0.3,0.93-0.71,1.18-1.24c0.19-0.4,0.29-1,0.29-1.79V52.68z"/>
	<path class="st1" d="M44.76,45.46V43.4h1.79v2.06H44.76z M44.76,57.98V47.42h1.79v10.56H44.76z"/>
	<path class="st1" d="M49.28,57.98V47.42h1.61v1.5c0.78-1.16,1.9-1.74,3.36-1.74c0.64,0,1.22,0.11,1.76,0.34
		c0.53,0.23,0.93,0.53,1.2,0.9c0.27,0.37,0.45,0.81,0.56,1.32c0.07,0.33,0.1,0.91,0.1,1.74v6.49h-1.79v-6.42
		c0-0.73-0.07-1.27-0.21-1.64c-0.14-0.36-0.39-0.65-0.74-0.87c-0.35-0.22-0.77-0.32-1.25-0.32c-0.76,0-1.42,0.24-1.97,0.73
		c-0.55,0.48-0.83,1.4-0.83,2.75v5.77H49.28z"/>
	<path class="st1" d="M67.83,54.58l1.85,0.23c-0.29,1.08-0.83,1.92-1.62,2.52c-0.79,0.6-1.8,0.89-3.02,0.89
		c-1.54,0-2.77-0.48-3.67-1.43c-0.9-0.95-1.36-2.29-1.36-4c0-1.78,0.46-3.16,1.37-4.14c0.92-0.98,2.1-1.47,3.56-1.47
		c1.41,0,2.57,0.48,3.46,1.44c0.89,0.96,1.34,2.31,1.34,4.06c0,0.11,0,0.27-0.01,0.48h-7.88c0.07,1.16,0.39,2.05,0.98,2.66
		c0.59,0.62,1.33,0.92,2.21,0.92c0.66,0,1.22-0.17,1.68-0.52C67.19,55.88,67.56,55.33,67.83,54.58z M61.96,51.68h5.9
		c-0.08-0.89-0.3-1.55-0.68-2c-0.57-0.69-1.31-1.03-2.22-1.03c-0.82,0-1.51,0.28-2.07,0.83C62.33,50.03,62.02,50.76,61.96,51.68z"/>
</g>
<g id="g8" transform="matrix(0.82330891,0,0,0.82330891,-18.253246,-185.93937)">
	<path id="path4" class="st2" d="M213.59,294.83c-6.93-10.25-16.94-16.15-27.39-16.15h-26.89l19.07,28.13
		c6.93,10.25,16.94,16.15,27.39,16.15h26.89L213.59,294.83z"/>
	<path id="path6" class="st3" d="M289.56,234.66c-11.54,0-24.32,9.06-34.87,24.81l-29.67,44.18l13.07,19.36h3.66
		c11.54,0,24.32-9.06,34.87-24.81l42.69-63.54H289.56z"/>
</g>
<g id="g31" transform="matrix(0.82330891,0,0,0.82330891,-18.253246,-185.93937)">
	<g>
		<defs>
			<path id="SVGID_1_" d="M289.56,234.66c-11.54,0-24.32,9.06-34.87,24.81l-29.67,44.18l13.12,19.36h3.66
				c11.54,0,24.32-9.06,34.87-24.81l42.64-63.54H289.56z"/>
		</defs>
		<clipPath id="SVGID_00000083084402818824552730000011855816027874004868_">
			<use xlink:href="#SVGID_1_"  style="overflow:visible;"/>
		</clipPath>
		
			<linearGradient id="rect29_00000165204020184201940150000012566752842596955580_" gradientUnits="userSpaceOnUse" x1="335.4342" y1="-63.174" x2="412.5784" y2="25.138" gradientTransform="matrix(0.8233 0 0 -0.8233 -40.634 268.7526)">
			<stop  offset="0" style="stop-color:#AE4904"/>
			<stop  offset="0.5" style="stop-color:#E99D01"/>
			<stop  offset="1" style="stop-color:#F5AD00"/>
		</linearGradient>
		
			<rect id="rect29" x="225.03" y="234.66" style="clip-path:url(#SVGID_00000083084402818824552730000011855816027874004868_);fill:url(#rect29_00000165204020184201940150000012566752842596955580_);" width="94.3" height="88.3"/>
	</g>
</g>
<g id="g47" transform="matrix(0.82330891,0,0,0.82330891,-18.253246,-185.93937)">
	<path id="path33" class="st2" d="M44.16,265.86c-0.94,1.04-1.93,1.83-3.07,2.48c-1.14,0.64-2.28,1.14-3.37,1.49
		c-1.14,0.35-2.18,0.59-3.17,0.74c-0.99,0.15-1.83,0.2-2.48,0.2c-2.18,0-3.91-0.3-5.2-0.94s-2.28-1.44-2.97-2.48
		c-0.69-0.99-1.14-2.13-1.39-3.37s-0.35-2.48-0.35-3.66c-0.05-2.23,0.3-4.06,0.99-5.55c0.69-1.49,1.63-2.62,2.82-3.52
		c1.19-0.89,2.62-1.49,4.26-1.88c1.63-0.35,3.47-0.54,5.4-0.54h7.28v-0.54c0-0.45-0.05-0.84-0.15-1.19
		c-0.1-0.35-0.35-0.64-0.69-0.89c-0.35-0.25-0.84-0.45-1.54-0.54c-0.69-0.1-1.63-0.15-2.77-0.15c-0.4,0-0.99,0-1.68,0.05
		s-1.49,0.1-2.33,0.15c-0.84,0.05-1.68,0.1-2.48,0.2c-0.84,0.1-1.58,0.15-2.23,0.2c-0.59,0.1-1.09,0.15-1.44,0.15s-0.64,0-0.89-0.1
		s-0.4-0.25-0.5-0.5c-0.1-0.25-0.2-0.54-0.3-0.99l-0.99-4.41c-0.15-0.69-0.05-1.29,0.25-1.78s1.14-0.99,2.48-1.49
		c0.84-0.3,1.78-0.59,2.87-0.84s2.18-0.4,3.27-0.54c1.09-0.15,2.18-0.25,3.27-0.3c1.04-0.05,1.98-0.1,2.77-0.1
		c3.47,0,6.24,0.3,8.27,0.89c2.08,0.59,3.66,1.49,4.8,2.58c1.14,1.14,1.88,2.53,2.23,4.21c0.35,1.68,0.54,3.62,0.54,5.79v8.87
		c0,1.49,0.15,2.38,0.54,2.72c0.35,0.35,1.04,0.59,2.08,0.74c0.64,0.1,1.04,0.2,1.24,0.4c0.2,0.15,0.3,0.5,0.3,0.99v5.65
		c0,0.59-0.2,1.04-0.64,1.34c-0.4,0.3-0.99,0.5-1.63,0.69c-0.84,0.25-1.63,0.4-2.48,0.45s-1.68,0.1-2.62,0.1
		c-0.89,0-1.73-0.05-2.58-0.2c-0.84-0.1-1.63-0.35-2.33-0.69s-1.34-0.84-1.88-1.44c-0.54-0.59-0.99-1.39-1.24-2.43H44.16z
		 M42.63,256.75h-4.51c-0.89,0-1.58,0.2-2.08,0.64c-0.5,0.4-0.74,1.14-0.74,2.23c0,0.69,0.15,1.19,0.45,1.44
		c0.3,0.3,0.84,0.4,1.63,0.4c0.79,0,1.68-0.15,2.67-0.5c0.99-0.35,1.88-0.74,2.58-1.14V256.75z"/>
	<path id="path35" class="st2" d="M91.26,260.12c1.09,0,1.68,0.59,1.68,1.73v6.69c0,1.09-0.54,1.68-1.68,1.68H64.47
		c-0.69,0-1.14-0.15-1.29-0.4c-0.2-0.3-0.3-0.64-0.3-1.19v-5.45c0-0.35,0.05-0.79,0.15-1.29c0.1-0.5,0.45-1.09,1.09-1.78
		l12.73-14.16H65.51c-1.09,0-1.63-0.59-1.63-1.73v-6.69c0-1.09,0.54-1.63,1.63-1.63h25.36c0.69,0,1.14,0.15,1.34,0.4
		c0.2,0.3,0.3,0.64,0.3,1.19v5.5c0,0.4-0.05,0.84-0.15,1.34c-0.1,0.5-0.5,1.09-1.09,1.73l-12.63,14.07H91.26z"/>
	<path id="path37" class="st2" d="M118.4,267.25l-0.15-0.05c-1.73,1.34-3.57,2.28-5.45,2.77c-1.88,0.54-3.47,0.79-4.75,0.79
		c-2.53,0-4.51-0.4-5.89-1.19c-1.39-0.79-2.43-1.88-3.07-3.17c-0.69-1.29-1.04-2.77-1.19-4.41c-0.1-1.63-0.15-3.32-0.15-5v-19.41
		c0-0.3,0.1-0.64,0.25-1.04c0.15-0.4,0.59-0.64,1.34-0.64h9.76c0.64,0,1.09,0.15,1.29,0.5c0.25,0.3,0.35,0.69,0.35,1.19v16.99
		c0,1.78,0.3,2.92,0.99,3.42c0.64,0.5,1.49,0.74,2.58,0.74c0.79,0,1.49-0.15,2.18-0.4c0.64-0.25,1.34-0.5,1.98-0.74v-20.06
		c0-0.3,0.1-0.64,0.25-1.04c0.15-0.4,0.59-0.64,1.34-0.64h9.76c0.64,0,1.09,0.15,1.34,0.5c0.25,0.3,0.35,0.69,0.35,1.19v31
		c0,0.45-0.1,0.84-0.35,1.19c-0.25,0.35-0.69,0.5-1.34,0.5h-9.76c-0.74,0-1.19-0.2-1.34-0.64c-0.15-0.4-0.25-0.74-0.25-1.04v-1.29
		L118.4,267.25z"/>
	<path id="path39" class="st2" d="M151.39,241.05l0.15,0.15c0.69-0.74,1.49-1.44,2.33-2.13c0.89-0.64,1.78-1.24,2.67-1.73
		c0.89-0.5,1.78-0.89,2.58-1.19c0.84-0.35,1.58-0.54,2.23-0.64c0.99-0.15,1.63-0.1,2.03,0.05s0.64,0.79,0.79,1.83l1.04,8.57
		c0.05,0.35,0.05,0.69,0.05,0.94c0,0.25-0.05,0.45-0.2,0.64c-0.15,0.15-0.4,0.3-0.74,0.4c-0.35,0.1-0.84,0.25-1.49,0.4
		c-2.18,0.4-4.11,0.84-5.84,1.24c-1.73,0.4-3.62,0.99-5.65,1.63v17.33c0,0.3-0.1,0.64-0.25,1.04c-0.15,0.4-0.59,0.64-1.34,0.64H140
		c-0.64,0-1.09-0.15-1.34-0.5c-0.25-0.35-0.35-0.69-0.35-1.19v-31c0-0.45,0.1-0.84,0.35-1.19c0.25-0.3,0.69-0.5,1.34-0.5h9.76
		c0.74,0,1.19,0.2,1.34,0.64c0.15,0.4,0.25,0.74,0.25,1.04v3.52L151.39,241.05z"/>
	<path id="path41" class="st2" d="M191.6,266.26c-0.99,0.59-2.03,1.14-3.02,1.68c-1.04,0.54-2.08,0.99-3.27,1.44
		c-1.14,0.4-2.38,0.74-3.66,0.99c-1.29,0.25-2.67,0.4-4.21,0.4c-3.12,0-5.4-0.79-6.78-2.33c-1.39-1.54-2.08-3.86-2.08-6.88
		c0-3.91,0.99-6.83,2.92-8.67c1.98-1.83,5.1-2.77,9.41-2.77h10.7v-3.07c0-1.39-0.15-2.53-0.4-3.52c-0.25-0.94-0.69-1.73-1.39-2.38
		c-0.64-0.59-1.58-1.09-2.72-1.39c-1.14-0.3-2.62-0.45-4.36-0.45c-1.49,0-3.12,0.05-4.9,0.2c-1.78,0.15-3.52,0.3-5.1,0.5
		c-0.64,0.05-0.99-0.1-1.04-0.5l-0.3-1.24c0-0.45,0.25-0.79,0.74-1.04c0.74-0.3,1.58-0.5,2.58-0.69c0.99-0.2,1.98-0.35,2.97-0.45
		c0.99-0.1,1.98-0.2,2.92-0.25s1.78-0.05,2.53-0.05c2.58,0,4.66,0.25,6.24,0.74c1.58,0.5,2.82,1.24,3.71,2.23s1.49,2.23,1.83,3.71
		c0.35,1.49,0.5,3.22,0.5,5.2v16.99c0,0.64,0.05,1.14,0.15,1.49c0.1,0.35,0.25,0.59,0.45,0.79s0.5,0.3,0.84,0.4
		c0.35,0.05,0.84,0.15,1.44,0.15c0.5,0,0.74,0.2,0.74,0.64v1.39c0,0.25-0.05,0.4-0.2,0.54c-0.15,0.15-0.4,0.25-0.84,0.35
		c-2.28,0.25-3.86,0.05-4.85-0.5c-0.99-0.54-1.54-1.78-1.63-3.66H191.6z M191.65,253.48h-11.19c-1.19,0-2.28,0.1-3.22,0.35
		c-0.99,0.25-1.78,0.64-2.48,1.24c-0.69,0.59-1.24,1.39-1.58,2.43c-0.35,0.99-0.54,2.28-0.54,3.86c0,2.28,0.45,3.86,1.34,4.7
		c0.89,0.84,2.53,1.24,4.85,1.24c0.99,0,2.13-0.15,3.37-0.5c1.24-0.3,2.48-0.69,3.66-1.19c1.19-0.45,2.28-0.94,3.32-1.44
		c0.99-0.5,1.83-0.89,2.48-1.29L191.65,253.48z"/>
	<path id="path43" class="st2" d="M209.98,228.27c0,0.69-0.15,1.29-0.4,1.78c-0.3,0.5-0.94,0.74-1.93,0.74
		c-1.04,0-1.73-0.25-1.98-0.74c-0.25-0.5-0.4-1.09-0.4-1.78s0.15-1.29,0.45-1.73s0.94-0.69,1.88-0.69c0.99,0,1.58,0.2,1.88,0.64
		C209.83,226.93,209.98,227.53,209.98,228.27 M205.77,237.58c0-0.4,0.1-0.69,0.25-0.84c0.15-0.15,0.45-0.2,0.79-0.2h1.73
		c0.35,0,0.59,0.05,0.74,0.2c0.1,0.15,0.15,0.4,0.15,0.84v31.6c0,0.4-0.05,0.69-0.15,0.84c-0.1,0.15-0.35,0.2-0.74,0.2h-1.73
		c-0.35,0-0.64-0.05-0.79-0.2c-0.15-0.15-0.25-0.4-0.25-0.84V237.58z"/>
	<path id="path45" class="st2" d="M232.61,240.01c-0.94,0.2-1.83,0.45-2.72,0.74c-0.89,0.35-1.78,0.64-2.58,0.99
		c-0.84,0.35-1.58,0.69-2.23,0.99c-0.69,0.35-1.19,0.59-1.54,0.74v25.65c0,0.69-0.35,1.04-1.04,1.04h-1.88
		c-0.4,0-0.64-0.05-0.74-0.2c-0.1-0.15-0.2-0.4-0.2-0.84v-31.6c0-0.69,0.3-1.04,0.89-1.04h1.83c0.4,0,0.64,0.05,0.79,0.2
		c0.15,0.15,0.25,0.4,0.25,0.84v3.02c0.3-0.25,0.79-0.54,1.44-0.99c0.64-0.4,1.39-0.84,2.18-1.24s1.63-0.84,2.58-1.24
		c0.89-0.4,1.78-0.74,2.72-0.99c0.25-0.1,0.4-0.1,0.45,0c0.05,0.1,0.15,0.25,0.15,0.5l0.3,2.33
		C233.3,239.56,233.1,239.86,232.61,240.01"/>
</g>
</svg>
