<?xml version="1.0" encoding="utf-8"?>
<!-- Generator: Adobe Illustrator 25.4.1, SVG Export Plug-In . SVG Version: 6.00 Build 0)  -->
<svg version="1.1" id="Layer_1" xmlns="http://www.w3.org/2000/svg" xmlns:xlink="http://www.w3.org/1999/xlink" x="0px" y="0px"
	 viewBox="0 0 81.83 80" style="enable-background:new 0 0 81.83 80;" xml:space="preserve">
<style type="text/css">
	.st0{fill:#FEFEFE;}
	.st1{fill-rule:evenodd;clip-rule:evenodd;fill:url(#path27_00000046300443382058577460000008272193567876974467_);}
	.st2{fill-rule:evenodd;clip-rule:evenodd;fill:#EA3639;}
	.st3{fill-rule:evenodd;clip-rule:evenodd;fill:url(#path33_00000067925702000364214220000003203398479343479191_);}
</style>
<path id="path25" class="st0" d="M22.11,74.84l1.6-0.94l4.69-4.03L31.66,68l2.76-1.49l1.99-1.77L42.48,60l4.91-4.3l2.54-3.86
	c0,0,3.69-4.25,3.75-4.41c0.06-0.17,3.04-4.47,3.04-4.47l3.58-6.51l2.98-5.57l1.21-3.81l2.1-4.8l2.1-6.35l1.43-2.76l1.49-2.92
	l2.26-3.64l3.86-4.69l-3.8,0.28l-2.76,0.83L64.83,4.7l-5.52,2.32l-6.07,3.09L47,13.53l-5.46,4.36l-5.85,6.45l-1.71,3.26l-3.64,10.37
	l-2.21,5.24L25.64,51l-0.27,5.63l0.5,3.26l-0.11,1.99l0.35,2.28l0.33,1.14l-0.18,1.58c0,0-0.84,1.1-0.88,1.32
	c-0.04,0.22-1.43,3.31-1.43,3.31l-1.73,2.61l-0.96,1.21L22.11,74.84L22.11,74.84z"/>
<radialGradient id="path27_00000139285996978059083140000001535494257840602028_" cx="3268.8679" cy="-5766.6182" r="352.1353" gradientTransform="matrix(0.0475 0 0 0.048 -130.5289 324.6268)" gradientUnits="userSpaceOnUse">
	<stop  offset="0" style="stop-color:#FEC32F"/>
	<stop  offset="0.0588" style="stop-color:#FEC32F"/>
	<stop  offset="0.5294" style="stop-color:#FEFEFE"/>
	<stop  offset="1" style="stop-color:#FEFEFE"/>
</radialGradient>
<path id="path27" style="fill-rule:evenodd;clip-rule:evenodd;fill:url(#path27_00000139285996978059083140000001535494257840602028_);" d="
	M48.13,56.13c-0.91-4.28-5.75-7.79-10.03-7.86c0,0-0.07,0-0.14,0c-2.67,0-5.4,0.28-9.48,2.8c1.05-0.28,2.67,0.07,3.65,0.56
	c-1.82-0.28-3.37-0.21-4.49,0.63c0,1.82,0.56,3.72,0.84,5.54c2.32,2.25,5.97,4.49,9.48,4.98c0.63,0.07,1.26,0.07,1.9,0.07
	c2.1-0.14,4.28-1.27,5.96-2.74c0.91-0.84,1.75-1.69,2.32-2.67C48.41,57.05,48.27,56.56,48.13,56.13L48.13,56.13z M25.88,52.7
	c-0.7,1.75-1.55,4.63-2.74,5.89c0.49-0.98,1.97-5.47,1.83-6.45c-1.47,1.19-3.09,2.24-4.56,3.09c-2.17,1.26-4.07,2.11-5.05,2.32
	c-0.7,1.75-1.47,4.35-1.61,6.81c-0.14,1.61,0.21,3.23,0.84,4.56c0.91,2.04,1.54,3.58,4.63,2.53c0.42-0.14,0.84-0.28,1.19-0.42
	c2.74-1.13,4.84-3.02,6.11-7.3c0.07-0.28,0.21-0.63,0.28-1.05c0.63-2.53,0.21-4.7-0.28-6.94C26.3,54.73,26.09,53.75,25.88,52.7
	L25.88,52.7z M24.06,50.52c-0.7-0.35-3.65,0.35-3.37,0.28c0.56-0.21,3.3-1.4,2.24-1.68c-0.84-0.63-1.69-1.26-2.53-1.83
	c-2.25-1.68-4.35-3.3-6.31-5.54c-2.88,0.14-6.74,2.18-9.97,4.35c-3.09,2.1-5.4,4.49-3.02,6.67c4.56,4.28,8.77,4.49,12.28,3.86
	c1.96-0.35,4.77-1.69,7.02-3.09C22.16,52.41,23.64,51.29,24.06,50.52L24.06,50.52z M20.41,45.89c0.98,0.7,2.18,1.47,3.58,2.39
	c0-0.07,0-0.07,0-0.07c-1.12-0.56-1.4-4.14-1.54-5.33c0.35,1.55,1.34,4.35,2.88,5.12c-0.7-4.28-0.63-8.49,1.2-12.42
	c0.07-0.21,0.21-0.42,0.28-0.7c-0.07-0.21-0.14-0.49-0.28-0.77c-1.34-3.16-3.23-5.54-5.75-7.16c-0.14-0.07-0.21-0.14-0.35-0.14
	c-1.26-0.77-2.74-1.33-4.28-1.75c-1.19-0.21-2.03-0.7-2.66-0.35c-0.49,0.21-0.84,1.05-1.19,1.89c-2.18,5.19-0.42,11.02,3.3,15.02
	C16.69,42.87,17.88,44.06,20.41,45.89L20.41,45.89z M26.52,39.01c-0.49,2.88-0.35,5.33,0,7.44c0.14,0.7,0.28,1.34,0.42,1.97
	c0.14-0.35,1.19-4.42,2.67-5.76c-1.19,1.9-1.68,4.28-1.82,6.53c0.49,0.21,0.63,0.07,1.12,0c2.25-1.12,4.7-2.1,7.23-2.31
	c0.7-0.49,1.26-0.98,1.83-1.54c2.52-2.31,4.07-4.98,4.49-7.86c0.21-1.97-0.07-3.86-0.84-6.25c-0.42-1.68,0-1.82-3.65-2.11h-0.21
	c-3.93-0.28-9.82,2.39-11.16,9.33C26.58,38.66,26.52,38.87,26.52,39.01L26.52,39.01z"/>
<path class="st2" d="M48.49,56.07L48.49,56.07c-1.61-4.56-5.61-8.49-10.53-9.13c-0.49-0.07-1.05-0.14-1.54-0.07
	c0.56-0.42,1.05-0.84,1.54-1.26c2.74-2.39,4.42-5.26,4.7-8.35c0.21-1.75-0.21-3.51-0.77-5.54c-0.28-0.7-0.07-1.68-0.77-2.25
	c-0.63-0.42-2.18-0.56-3.09-0.63h-0.07c-3.37-0.35-7.23,0.14-10.95,5.83c-0.14-0.35-0.35-0.77-0.49-1.12
	c-1.26-2.81-3.09-4.98-5.4-6.53c-0.21-0.14-0.49-0.28-0.7-0.42c-1.34-0.84-2.81-1.4-4.42-1.75c-0.98-0.28-1.75-0.56-2.39-0.49
	c-0.7,0.14-1.12,0.91-1.54,1.82c-2.1,5.82-1.4,10.6,1.89,15.37c-2.46,0.21-6.74,2.1-9.89,4.35C1.9,47.37,0.21,48.98,0,50.6v0.7
	c0.07,0.64,0.42,1.27,1.05,1.9c5.05,4.49,8.98,5.4,14.18,4.42c-0.84,1.75-1.4,3.93-1.69,6.18c-0.21,1.9,0.28,3.86,0.84,5.34
	c0.7,2.03,1.75,3.3,4.49,2.74c0.56-0.14,1.05-0.28,1.55-0.49c2.87-1.05,4.84-3.3,6.1-5.83c1.26-2.53,1.82-5.26,1.89-7.3
	c2.95,1.9,5.61,4.28,9.54,4.77c0.63,0.07,1.33,0.07,2.04,0.07c1.54-0.07,3.58-0.98,5.33-2.32c1.34-0.98,2.67-2.25,3.09-3.51
	C48.56,56.84,48.56,56.42,48.49,56.07z M37.75,29.12L37.75,29.12l0.21,0c3.65,0.28,3.23,0.42,3.65,2.11
	c0.77,2.39,1.05,4.28,0.84,6.24c-0.42,2.88-1.96,5.55-4.49,7.86c-0.56,0.56-1.12,1.05-1.83,1.55c-2.52,0.21-4.98,1.19-7.23,2.31
	c-0.49,0.07-0.63,0.21-1.12,0c0.14-2.25,0.63-4.63,1.82-6.53c-1.47,1.33-2.53,5.4-2.67,5.75c-0.14-0.63-0.28-1.26-0.42-1.96
	c-0.35-2.1-0.49-4.56,0-7.44c0-0.14,0.07-0.35,0.07-0.56C27.93,31.51,33.83,28.84,37.75,29.12z M12.28,26.6L12.28,26.6
	c0.35-0.84,0.7-1.68,1.2-1.89c0.63-0.35,1.47,0.14,2.67,0.35c1.54,0.42,3.02,0.98,4.28,1.75c0.14,0,0.21,0.07,0.35,0.14
	c2.52,1.61,4.42,4,5.75,7.16c0.14,0.28,0.21,0.56,0.28,0.77c-0.07,0.28-0.21,0.49-0.28,0.7c-1.83,3.93-1.9,8.14-1.19,12.42
	c-1.54-0.77-2.53-3.58-2.88-5.12c0.14,1.19,0.42,4.77,1.55,5.33c0,0,0,0,0,0.07c-1.4-0.91-2.6-1.69-3.58-2.39
	c-2.53-1.83-3.72-3.02-4.84-4.28C11.86,37.61,10.11,31.79,12.28,26.6z M13.4,56.63L13.4,56.63c-3.51,0.63-7.72,0.42-12.28-3.86
	c-2.39-2.18-0.07-4.56,3.02-6.67c3.23-2.18,7.09-4.21,9.97-4.35c1.96,2.24,4.07,3.86,6.32,5.54c0.84,0.56,1.68,1.2,2.52,1.83
	c1.05,0.28-1.68,1.47-2.25,1.68c-0.28,0.07,2.67-0.63,3.37-0.28c-0.42,0.77-1.89,1.89-3.65,3.02C18.18,54.95,15.37,56.28,13.4,56.63
	z M26.81,62.67L26.81,62.67c-0.07,0.42-0.21,0.77-0.28,1.05c-1.26,4.28-3.37,6.17-6.1,7.3c-0.35,0.14-0.77,0.28-1.19,0.42
	c-3.09,1.05-3.72-0.49-4.63-2.53c-0.63-1.33-0.98-2.95-0.84-4.56c0.14-2.46,0.91-5.05,1.61-6.81c0.98-0.21,2.88-1.05,5.05-2.32
	c1.47-0.84,3.09-1.89,4.56-3.09c0.14,0.98-1.33,5.47-1.82,6.45c1.19-1.26,2.03-4.14,2.74-5.89c0.21,1.05,0.42,2.04,0.63,3.02
	C27.02,57.96,27.44,60.14,26.81,62.67z M48.14,57.47L48.14,57.47c-0.56,0.98-1.4,1.83-2.31,2.67c-1.69,1.47-3.86,2.6-5.97,2.74
	c-0.63,0-1.26,0-1.9-0.07c-3.51-0.49-7.16-2.74-9.48-4.98c-0.28-1.83-0.84-3.72-0.84-5.54c1.12-0.84,2.67-0.91,4.49-0.63
	c-0.98-0.49-2.6-0.84-3.65-0.56c4.07-2.53,6.81-2.8,9.48-2.8c0.07,0,0.14,0,0.14,0c4.28,0.07,9.12,3.58,10.03,7.86
	C48.28,56.56,48.42,57.05,48.14,57.47z"/>
<linearGradient id="path33_00000173843732671955727010000001427324648729556115_" gradientUnits="userSpaceOnUse" x1="2871.6338" y1="-3371.9421" x2="3775.9778" y2="-2666.9365" gradientTransform="matrix(0.0475 0 0 -0.0475 -130.622 -93.0584)">
	<stop  offset="0" style="stop-color:#24A859"/>
	<stop  offset="0.0941" style="stop-color:#5BB852"/>
	<stop  offset="0.1882" style="stop-color:#24A859"/>
	<stop  offset="1" style="stop-color:#92C84B"/>
</linearGradient>
<path id="path33" style="fill-rule:evenodd;clip-rule:evenodd;fill:url(#path33_00000173843732671955727010000001427324648729556115_);" d="
	M30.25,63.02c0.07,0-0.07,0.21,0.07,0.21c0.42-0.91,0.91-1.83,1.47-2.74c-0.56-0.35-1.12-0.77-1.75-1.12
	c-0.49-0.42-1.05-0.77-1.61-1.12c0,0.28-0.07,0.63-0.07,0.98c0.56,1.12,1.26,2.18,1.69,3.3C30.11,62.67,30.18,62.81,30.25,63.02
	L30.25,63.02z M33.69,61.61c-0.56,0.07-1.05,0.14-1.55,0.21c-0.63,1.33-1.33,2.6-1.96,3.86c2.25,0.35,3.72,0.07,5.61-1.05
	c-0.21,0.14-0.35,0.42-0.49,0.7c-1.89,1.05-3.3,1.47-5.26,1.82c-0.35,0.07-0.7,0.14-1.12,0.21c-1.89,2.38-3.93,4.63-6.24,6.53
	c1.33-1.61,2.74-3.3,4.14-4.91l-1.48,1.26c1.12-1.55,3.72-4.21,3.72-6.32c-0.21-0.63-0.63-1.55-1.05-2.6
	c-0.49,2.31-1.54,4.84-3.23,6.88c-0.28,0.7-0.63,1.4-0.98,2.04c-1.75,3.15-4.21,5.54-6.6,6.53h-0.07v1.19c0,1.12,0,1.89,0.84,2.04
	h0.07l0.07-0.07c0.84-2.39,4.07-4.42,8.07-7.02c1.05-0.7,2.17-1.4,3.37-2.18c0.14-0.14,0.35-0.21,0.49-0.35
	c2.6-1.75,5.19-3.79,7.86-6.04c0.56-0.42,1.05-0.84,1.62-1.26c-0.56,0-1.05,0-1.62-0.07C36.35,62.81,34.95,62.24,33.69,61.61
	L33.69,61.61z M81.76,0c-0.63,0.14-1.26,0.21-1.89,0.28c-1.62,0.28-3.37,0.56-6.25,1.4c-1.19,0.35-2.45,0.7-3.72,1.05
	C65.13,4,60,5.4,54.18,8.35c-5.69,2.88-11.51,6.88-16.28,12.21c-0.35,0.42-0.7,0.84-1.05,1.26c-2.04,2.53-3.86,5.26-5.34,8.21
	c1.12-0.7,2.32-1.05,3.44-1.2c0-1.12,0.14-2.74,0.77-2.74c-0.28,0.91-0.35,1.82-0.28,2.67c0.84-0.07,1.69-0.07,2.45,0
	c0.07,0.07,0.07,0.07,0.14,0.07c0.91,0.07,2.46,0.21,3.09,0.63c0.7,0.56,0.49,1.54,0.77,2.25c0.56,2.03,0.98,3.79,0.77,5.54
	c0,0.28-0.07,0.49-0.07,0.7c0.49-1.12,0.84-2.39,0.84-3.72c-0.42-2.11-1.33-3.44-2.1-6.32c-0.77-2.95-0.42-6.39,1.05-9.82
	c-0.49,2.03-0.77,3.79-0.28,5.89c0.49,2.1,1.89,4.84,2.39,6.39c0.49,1.61,0.35,1.89,0.63,2.88c0.84-1.61,2.17-3.58,2.6-5.26
	c0.21-1.47-0.14-3.02-0.14-3.93c-0.07-0.84-0.42-2.25-0.63-4.21c-0.21-2.88-0.14-6.11,1.4-6.39c-0.35,0.77-0.63,0.77-0.84,2.32
	c-0.14,1.47,1.61,6.95,2.1,10.39c0.98-1.61,2.1-3.23,3.16-4.77c-0.35-3.72-1.26-9.19,2.32-11.72c-0.98,1.54-1.34,2.39-1.48,4
	c0,0.63-0.07,5.12,0.56,5.82c1.26-1.33,2.53-2.6,3.86-3.79c0.14-0.21,0.42-0.56,0.49-0.7c0.35-3.16,0.07-6.04,2.6-8.07
	c-0.42,0.63-1.05,1.26-1.19,2.11c-0.14,0.84-0.21,3.93,0.42,4.49c1.33-1.26,2.74-2.6,4.14-3.79c0.28-1.12,0.42-2.1,0.84-3.02
	c0.49-1.12,0.91-1.69,2.1-2.11c-1.33,1.05-2.03,2.17-1.12,3.93c1.96-1.47,3.65-2.6,5.19-3.65c0.14-0.91,0.56-1.69,1.47-2.04
	c-0.21,0.21-0.49,0.49-0.63,0.84c-0.07,0.21-0.07,0.49-0.07,0.77c0.91-0.56,1.82-0.98,2.88-1.4c-1.12,0.7-2.18,1.4-3.3,2.03
	c-1.05,0.77-2.04,1.62-3.16,2.46c0.7,0,2.18,0.07,2.74-0.07c0.63-0.07,0.98-0.35,1.48-0.49c-0.63,0.42-0.84,1.05-1.89,1.19
	c-0.99,0.14-2.25,0.14-3.37,0.21c-1.62,1.12-3.02,2.6-4.28,4.07c1.68,0.49,4.28,0.14,5.4-0.28c1.19-0.42,1.19-0.56,1.82-1.12
	c-1.19,2.53-6.39,2.53-8.42,2.53c-0.63,0.77-3.93,3.23-3.93,4.21c3.02,0.21,6.46,0.28,9.33-0.49c-3.16,1.68-7.16,1.75-10.74,1.96
	c-1.26,0.63-2.95,3.58-3.79,4.7c3.09,0,7.23,0.35,9.19,0.28c2.03-0.07,1.89-0.56,2.88-0.77c-1.2,1.47-4.56,1.54-6.11,1.61
	c-1.33,0-2.8-0.07-4,0.14c-1.19,0.21-2.18,0.56-3.3,0.77c-1.19,1.82-2.38,3.65-3.58,5.54c1.4-0.14,2.53-0.28,4.21-0.35
	c1.62,0,3.37,0.21,4.77,0.14c1.89,0,3.58-0.28,5.9-1.26c-2.32,1.82-4.84,2.53-7.79,2.67c-1.4,0.14-6.17-0.49-8.42,0.98
	c-0.7,1.47-1.48,2.95-2.25,4.42c1.4,0.07,2.74,0.21,4.14,0.35c2.74,0.49,5.19,0.98,7.65,0.42c0.7-0.21,1.4-0.42,2.11-0.84
	c0,0.7-3.02,1.82-3.72,1.89c-1.54,0.28-3.15,0.07-4.7,0.14c-2.32,0.07-4.56,0.14-6.88,0.28c-0.77,1.69-1.62,3.37-2.46,5.12
	c3.3,0.49,8.7,1.4,10.67,1.12c1.89-0.28,1.83-0.98,2.18-0.63c-0.7,0.49-1.47,0.77-2.32,1.05c-1.4,0.56-2.6,0.42-4.21,0.42
	c-2.32-0.07-4.56-0.28-6.81-0.42c-0.07,0.07-0.14,0.21-0.21,0.35c2.95,0.98,5.4,3.09,7.09,5.75c0.28-0.07,0.56-0.14,0.84-0.21
	c-0.14,0.21-0.42,0.35-0.7,0.49c0.35,0.56,0.63,1.12,0.91,1.69c0.49-0.63,1.05-1.26,1.61-1.89c2.04-2.46,3.93-5.05,5.75-7.58
	c2.46-3.44,4.42-6.59,6.24-10.18c1.76-3.58,3.3-7.37,4.91-11.86c1.97-5.61,3.79-10.53,6.11-14.45c2.31-3.93,5.12-6.95,9.05-8.98
	L81.76,0L81.76,0z M38.04,46.95c0.49-0.91,0.99-1.89,1.4-2.8c-0.42,0.49-0.98,0.98-1.55,1.47c-0.42,0.42-0.98,0.84-1.47,1.26
	c0.49-0.07,0.98,0,1.47,0.07C37.97,46.95,38.04,46.95,38.04,46.95z"/>
</svg>
