<?xml version="1.0" encoding="utf-8"?>
<!-- Generator: Adobe Illustrator 25.4.1, SVG Export Plug-In . SVG Version: 6.00 Build 0)  -->
<svg version="1.1" id="Layer_1" xmlns="http://www.w3.org/2000/svg" xmlns:xlink="http://www.w3.org/1999/xlink" x="0px" y="0px"
	 viewBox="0 0 220.92 80" style="enable-background:new 0 0 220.92 80;" xml:space="preserve">
<style type="text/css">
	.st0{fill:#FEFEFE;}
	.st1{fill-rule:evenodd;clip-rule:evenodd;fill:url(#path27_00000000189716972505838870000004329577884709712043_);}
	.st2{fill-rule:evenodd;clip-rule:evenodd;fill:#3660AB;}
	.st3{fill-rule:evenodd;clip-rule:evenodd;fill:#EA3639;}
	.st4{fill-rule:evenodd;clip-rule:evenodd;fill:url(#path33_00000049182053623930035070000008194270730314493073_);}
</style>
<g id="lao-airlines-seeklogo.com.eps" transform="matrix(.49475059 0 0 .49475059 9.4636608 -1019.8498)">
	<path id="path25" class="st0" d="M306.7,2212.61l3.24-1.9l9.48-8.14l6.58-3.79l5.58-3.01l4.02-3.57l12.27-9.59l9.93-8.7l5.13-7.81
		c0,0,7.47-8.59,7.58-8.92c0.11-0.34,6.14-9.04,6.14-9.04l7.25-13.16l6.02-11.26l2.45-7.7l4.24-9.71l4.24-12.83l2.9-5.58l3.02-5.91
		l4.57-7.36l7.81-9.48l-7.69,0.56l-5.58,1.67l-12.83,3.46l-11.15,4.68l-12.27,6.25l-12.61,6.91l-11.04,8.81l-11.82,13.03l-3.46,6.6
		l-7.36,20.97l-4.46,10.6l-5.02,15.72l-0.55,11.38l1,6.58l-0.22,4.02l0.7,4.61l0.67,2.31l-0.37,3.2c0,0-1.71,2.23-1.78,2.68
		c-0.08,0.45-2.9,6.69-2.9,6.69l-3.49,5.28l-1.94,2.45L306.7,2212.61L306.7,2212.61z"/>
	
		<radialGradient id="path27_00000132802417227066584640000000053633830094394534_" cx="6869.1011" cy="-9594.2568" r="352.1353" gradientTransform="matrix(0.0475 0 0 0.048 -14.2644 2618.4932)" gradientUnits="userSpaceOnUse">
		<stop  offset="0" style="stop-color:#FEC32F"/>
		<stop  offset="0.0588" style="stop-color:#FEC32F"/>
		<stop  offset="0.5294" style="stop-color:#FEFEFE"/>
		<stop  offset="1" style="stop-color:#FEFEFE"/>
	</radialGradient>
	
		<path id="path27" style="fill-rule:evenodd;clip-rule:evenodd;fill:url(#path27_00000132802417227066584640000000053633830094394534_);" d="
		M359.29,2174.8c-1.85-8.65-11.63-15.74-20.28-15.88c0,0-0.15,0-0.29,0c-5.39,0-10.92,0.57-19.15,5.67
		c2.13-0.57,5.39,0.15,7.38,1.14c-3.68-0.57-6.81-0.43-9.08,1.28c0,3.68,1.13,7.51,1.7,11.21c4.68,4.54,12.06,9.08,19.15,10.07
		c1.28,0.15,2.55,0.15,3.83,0.15c4.25-0.29,8.64-2.56,12.05-5.54c1.85-1.7,3.55-3.41,4.68-5.39
		C359.86,2176.64,359.57,2175.65,359.29,2174.8L359.29,2174.8z M314.32,2167.85c-1.42,3.54-3.12,9.36-5.54,11.91
		c1-1.98,3.98-11.06,3.69-13.04c-2.98,2.41-6.24,4.54-9.22,6.24c-4.39,2.55-8.22,4.26-10.21,4.68c-1.42,3.55-2.98,8.79-3.26,13.76
		c-0.29,3.26,0.43,6.52,1.71,9.22c1.84,4.11,3.12,7.24,9.36,5.11c0.85-0.28,1.7-0.56,2.41-0.85c5.53-2.28,9.79-6.1,12.35-14.75
		c0.14-0.57,0.42-1.28,0.56-2.13c1.28-5.11,0.43-9.51-0.56-14.04C315.17,2171.96,314.75,2169.97,314.32,2167.85L314.32,2167.85z
		 M310.63,2163.45c-1.42-0.72-7.38,0.71-6.81,0.56c1.13-0.42,6.67-2.83,4.54-3.4c-1.7-1.28-3.41-2.55-5.11-3.69
		c-4.54-3.4-8.79-6.66-12.76-11.2c-5.82,0.28-13.62,4.4-20.14,8.79c-6.25,4.25-10.92,9.08-6.1,13.48c9.22,8.65,17.73,9.08,24.82,7.8
		c3.97-0.71,9.64-3.41,14.18-6.24C306.8,2167.28,309.78,2165.01,310.63,2163.45L310.63,2163.45z M303.25,2154.09
		c1.99,1.42,4.4,2.98,7.24,4.82c0-0.15,0-0.15,0-0.15c-2.27-1.14-2.84-8.37-3.12-10.78c0.71,3.12,2.7,8.79,5.81,10.35
		c-1.41-8.65-1.28-17.16,2.42-25.11c0.14-0.43,0.42-0.85,0.56-1.42c-0.14-0.43-0.29-0.99-0.56-1.56c-2.7-6.38-6.53-11.2-11.63-14.47
		c-0.28-0.14-0.43-0.28-0.72-0.28c-2.55-1.56-5.53-2.69-8.65-3.55c-2.41-0.42-4.11-1.42-5.38-0.71c-1,0.43-1.71,2.13-2.42,3.83
		c-4.4,10.49-0.85,22.27,6.67,30.35C295.74,2147.99,298.15,2150.4,303.25,2154.09L303.25,2154.09z M315.6,2140.19
		c-0.99,5.81-0.72,10.78,0,15.03c0.28,1.42,0.56,2.7,0.85,3.98c0.28-0.71,2.41-8.94,5.39-11.64c-2.41,3.84-3.4,8.65-3.68,13.19
		c0.99,0.43,1.28,0.15,2.27,0c4.54-2.26,9.5-4.25,14.61-4.68c1.42-0.99,2.55-1.98,3.69-3.12c5.1-4.68,8.22-10.07,9.08-15.88
		c0.42-3.98-0.14-7.8-1.7-12.62c-0.85-3.4,0-3.69-7.38-4.26h-0.43c-7.94-0.56-19.85,4.82-22.55,18.87
		C315.74,2139.48,315.6,2139.9,315.6,2140.19L315.6,2140.19z"/>
	<path id="path29" class="st2" d="M103.57,2117.51l3.55,1.42l4.11-0.14l0.56-1.42c-1.28,0-2.41-0.28-3.26-0.99
		c-0.85-0.71-1.13-1.56-0.85-2.41c0.56-1.42,1.42-2.27,2.83-2.83c1.13-0.28,2.7-0.57,5.11-0.57c1.56,0,2.84,0.14,3.55,0.43
		c1.14,0.42,1.42,1.13,0.99,2.27c-0.28,1.13-0.99,1.98-2.13,2.7c-0.99,0.85-2.41,1.28-3.97,1.42l-0.56,1.56l3.55-0.29l2.98-0.42
		l1.28-0.57l1.56-0.57l0.71-0.43c0.14-0.14,0.57-0.57,0.99-1.13c0.28-0.29,0.43-0.57,0.57-0.85c0.14-0.14,0.28-0.43,0.43-0.85
		c0.28-1.13,0-2.13-0.85-3.12c-1.14-1.14-2.55-1.56-4.4-1.56h-8.79c-1.85,0-3.83,0.43-5.82,1.28c-1.85,0.85-2.98,1.99-3.41,3.26
		C101.72,2115.38,102.15,2116.66,103.57,2117.51L103.57,2117.51z M86.55,2133.25c0,1.28,0.28,2.13,0.85,2.7
		c0.71,0.85,1.84,1.28,3.26,1.28c0.85,0,1.56-0.14,2.13-0.42c0.71-0.29,0.99-0.71,1.28-1.28l0.14-0.71c0-0.85-0.71-1.7-1.99-2.84
		c-0.57-0.56-0.85-0.99-0.85-1.56c0-0.43,0.28-0.71,0.85-1.13c0.57-0.43,1.14-0.57,1.56-0.57c1.13,0,1.99,0.14,2.55,0.71
		c0.57,0.42,0.71,1.27,0.71,2.27l0.14,0.57c-0.14,0.57-0.14,0.99-0.28,1.42c-0.14,0.28-0.28,0.71-0.57,0.99
		c-1.28,1.28-2.84,2.7-4.82,4.11l-2.7,2.13c-0.99,1.13-1.84,2.27-2.27,3.69c-0.85,2.55-0.42,4.54,1.42,5.96
		c1.98,1.42,5.53,2.27,10.64,2.27c3.97,0,7.23-0.43,9.79-1.42c2.84-0.99,5.11-2.69,6.81-5.25l1.42-3.97l4.54-12.63l1.27-1.41
		l1.7-0.71h-12.77l1.7,0.71l0.43,1.13l-4.54,12.91l-1.56,4.26c-0.28,0.99-1.42,1.85-3.26,2.83c-1.85,0.99-3.4,1.42-4.68,1.42
		c-2.27,0-3.83-0.28-4.54-1.14c-0.99-0.85-0.99-2.55-0.14-5.1l1-1.56c0.28-0.57,0.71-0.85,0.85-1.14c0.28-0.14,0.43-0.42,0.57-0.56
		c0.57-0.57,0.99-0.85,0.99-0.99c0.43-0.29,0.85-0.85,1.56-1.42l1.7-1.85c0.14-0.42,0.42-0.85,0.57-1.13
		c0.14-0.28,0.14-0.57,0.28-0.71l0.14-0.85l0.29-0.99c0.28-1.98-0.43-3.4-2.13-4.54c-1.56-0.99-3.55-1.56-5.96-1.56
		c-0.71,0-1.56,0.14-2.27,0.43c-0.71,0.14-1.42,0.43-2.27,0.99c-1.7,0.99-2.84,2.13-3.26,3.4L86.55,2133.25L86.55,2133.25z
		 M32.79,2137.37c0.85,0,1.56,0,1.98-0.28c0.71-0.28,1.13-0.71,1.42-1.42l0.14-0.71c0-0.71-0.28-1.28-1-1.85
		c-1.27-1.27-1.98-1.98-1.98-2.41c0.14-0.42,0.43-0.85,0.99-1.13c0.57-0.42,0.99-0.71,1.56-0.71c0.99,0,1.84,0.28,2.27,0.85
		c0.43,0.57,0.57,1.28,0.57,2.41l-3.12,8.94l-3.4,9.36l-1.28,1.14l-2.13,0.71h12.76l-1.28-0.71l-0.71-1.14l2.41-6.24l2.13-6.1
		l0.57-1.56l0.28-0.57l0.14-0.57l0.14-0.29c0.28-0.85,0.43-1.56,0.57-1.99c0.28-1.84-0.57-3.4-2.55-4.4
		c-0.85-0.43-1.85-0.71-2.98-0.99c-0.99-0.28-2.13-0.28-3.55-0.28c-1.42,0-2.98,0.43-4.54,1.28c-1.7,0.99-2.84,2.13-3.26,3.55
		c-0.14,0.43-0.28,0.71-0.28,1.13c0,1.28,0.14,2.13,0.71,2.84C30.09,2136.94,31.23,2137.37,32.79,2137.37L32.79,2137.37z
		 M-12.89,2152.11c0.57,0.15,1.28,0.28,2.13,0.28c2.55,0,4.96-0.42,7.38-1.28c2.69-1.13,4.68-2.55,5.67-4.54l0.57-1.28l4.68-13.33
		c0.28-0.85,1.28-1.41,2.7-1.98c1.28-0.43,2.41-0.71,3.41-0.71c1.13,0,2.13,0.28,2.69,0.99c0.57,0.57,0.71,1.28,0.43,2.27
		l-2.41,6.53l-4.12,11.35l-1.28,1.14l-2.27,0.71h12.77l-1.13-0.71l-0.14-1.14l0.14-0.71V2149l5.81-15.75c0.71-1.84,0-3.4-2.13-4.54
		c-1.84-1.13-4.11-1.7-6.81-1.7c-2.84,0-5.81,0.71-8.8,1.99c-0.14-0.57-0.71-0.99-1.7-1.28c-0.99-0.28-2.13-0.43-3.55-0.43
		c-1.56,0-3.12,0-4.68,0.14l-1.99,0.28c2.41,1.13,3.83,1.98,4.26,2.7c0.57,0.85,0.71,2.41,0.28,4.4l-2.27,6.67l-2.13,6.1
		c-0.42,0.57-0.85,1.14-1.28,1.42c-0.28,0.42-0.71,0.71-0.99,0.99c-0.85,0.57-1.85,0.85-2.98,0.85c-0.43,0-0.85-0.15-1.14-0.58
		c-0.28-0.28-0.28-0.71,0-1.13c0.14-0.42,1.14-0.99,2.7-1.56c1.56-0.56,2.84-1.56,3.55-2.69l0.14-0.57
		c0.28-0.71,0.14-1.13-0.28-1.56c-0.42-0.28-1.13-0.42-1.98-0.42c-1.56,0-2.84,0.42-4.25,1.28c-0.85,0.56-1.85,1.56-2.7,2.69
		l-0.71,1.28c-0.42,1.28-0.14,2.55,0.85,3.41C-13.88,2151.55-13.45,2151.84-12.89,2152.11L-12.89,2152.11z M80.87,2141.05
		c0.28-1.14,0.85-2.55,1.42-4.54c0.71-1.99,1.13-3.26,1.28-3.69l0.14-0.43c0.14-0.43,0.28-0.85,0.42-1.42
		c0.29-0.57,0.43-1.14,0.57-1.84l1.42-1.13l1.7-0.57H75.06l1.7,0.57l0.43,1.13l-4.11,11.63l-2.27,6.25
		c-0.14,0.42-0.57,0.85-1.28,1.28c-0.42,0.28-0.85,0.42-1.28,0.56c-0.42,0.15-0.85,0.28-1.28,0.28c-1.56,0-2.83-0.42-3.83-1.13
		c-1-0.72-1.28-1.56-0.85-2.56l2.55-7.23l1.13-3.26l0.43-0.99l0.14-0.43c0-0.14,0-0.28,0.14-0.71c0.28-1.85-0.57-3.26-2.55-4.4
		c-0.85-0.42-1.85-0.71-2.98-0.99c-0.99-0.14-2.13-0.29-3.55-0.29c-1.42,0-2.98,0.43-4.54,1.28c-1.7,1-2.84,2.13-3.26,3.55
		c-0.14,0.43-0.28,0.85-0.28,1.14c0,1.28,0.14,2.13,0.85,2.84c0.57,0.85,1.7,1.13,3.26,1.13c0.85,0,1.56,0,2.13-0.28
		c0.57-0.29,0.99-0.71,1.27-1.28l0.15-0.85c0-0.57-0.28-1.28-1-1.84c-1.28-1.13-1.98-1.99-1.84-2.41c0-0.43,0.28-0.85,0.85-1.13
		c0.57-0.43,0.99-0.71,1.56-0.71c0.99,0,1.84,0.29,2.27,0.99c0.43,0.43,0.57,1.13,0.57,2.27l-2.27,6.38l-2.98,8.23
		c-0.28,0.99-1.14,2.12-2.55,2.98c-1.13,0.85-2.41,1.56-4.11,2.13l0.43,0.71h5.67c0.85,0,1.7-0.15,2.55-0.42
		c0.99-0.57,2.41-1.42,3.97-2.84c1.13,1.13,2.27,1.99,3.4,2.55c0.99,0.42,2.13,0.71,3.55,0.71c2.98,0,5.39-0.42,7.23-1.14
		c1.85-0.85,3.27-2.12,4.12-3.97L80.87,2141.05L80.87,2141.05z M223.29,2150.56c2.41,1.28,5.53,1.84,9.5,1.84
		c5.25,0,9.22-0.71,12.06-2.27c3.54-1.84,6.24-5.25,7.94-9.93l0.43-1l0.42-0.99c0.71-1.84,0.99-3.4,0.85-4.68
		c-0.15-1.98-0.99-3.55-2.7-4.68c-2.13-1.42-5.38-2.13-9.78-2.13c-3.98,0-7.09,0.57-9.65,1.56c-1.99,0.85-4.11,2.41-6.67,4.82
		l-0.71,1.85l-1.28,1.13l-2.13,0.71h12.91l-1.28-0.71l-0.71-1.13l0.15-0.28l0.42-0.85c0.71-1.13,1.7-2.27,2.84-3.12
		c1.56-1.27,3.41-1.84,5.53-1.84c2.98,0,4.82,0.71,5.53,2.13c0.43,0.99,0.28,2.13-0.28,3.69l-2.83,8.23l-2.41,4.54
		c-1.28,1.42-3.97,2.41-7.66,2.83h-0.99c-1.7,0-3.12-0.28-4.39-0.99c-1.28-0.56-1.99-1.27-2.13-2.26l0.28-1
		c0-0.28,0.29-0.71,0.71-1.42l0.99-1.56c0.42-0.14,0.99-0.28,1.7-0.57c0.57-0.14,0.99-0.29,1.28-0.29c0.57-0.14,1.14-0.14,1.71-0.14
		c0.56,0,1.28,0.14,1.84,0.14c0.28,0.14,0.57,0.43,1,0.71c0.28,0.43,0.42,0.71,0.28,1c0,0.14-0.14,0.28-0.28,0.28l-0.72,0.29h-0.71
		c-0.29,0-0.57,0-0.99-0.14c-0.85-0.14-1.42-0.28-1.7-0.28h-0.85c-0.14,0-0.57,0.14-1.14,0.43c-0.56,0.14-0.99,0.43-1.41,0.71
		c-0.42,0.28-0.57,0.71-0.71,1c-0.14,0.14-0.14,0.42,0,0.71l0.42,0.57c0.71,0.57,1.56,0.85,2.41,0.85c0.72,0,1.28,0,1.85-0.28
		l2.41-0.85c0.85-0.28,1.56-0.71,2.27-1.28c0.57-0.57,0.99-1.13,1.28-1.7c0.42-1.13,0.15-1.98-0.85-2.98
		c-0.99-0.85-2.84-1.56-5.39-1.85l-2.98,0.14c-1.98,0-3.97,0.57-5.67,1.99c-1.28,0.85-2.27,1.98-2.7,3.26
		C219.74,2147.15,220.59,2149.14,223.29,2150.56L223.29,2150.56z M173.5,2136.94l-1.28-0.71l-0.71-0.99l0.29-0.71l0.14-0.57
		l0.42-0.85c0.28-0.85,1.28-1.84,2.98-2.69c1.98-1.13,3.69-1.7,5.39-1.7c2.41,0,4.4,0.57,5.96,1.56c1.42,0.99,1.98,1.99,1.7,2.98
		l-1.42,3.83l-3.12,8.65v0.71c-0.28,0.71-0.85,1.13-1.7,1.42c-0.57,0.15-0.99-0.28-0.99-1.13v-2.13c-0.15-1.13-0.28-1.84-0.43-2.27
		c-0.29-0.57-0.57-1.13-0.99-1.56c-0.42-0.57-0.99-0.99-1.7-1.42c-0.85-0.28-1.56-0.57-2.13-0.57c-0.42,0-1.56-0.14-3.12-0.14
		c-1.28,0-2.55,0.14-3.97,0.57l-1.13,0.29l-1.98,0.71c-0.85,0.28-1.56,0.71-2.13,0.99c-1,0.71-1.7,0.99-1.85,1.28
		c-0.57,0.42-0.85,0.99-1.13,1.56l-0.85,2.55c-0.57,1.56,0,2.84,1.7,3.98c1.56,1.28,3.97,1.84,6.81,1.84c1.56,0,3.26-0.56,4.96-1.42
		c1.84-0.99,2.98-2.27,3.55-3.69l0.14-1.13c0-1.14-0.28-1.99-0.71-2.7c-0.71-0.71-1.84-1.13-3.4-1.13c-0.85,0-1.42,0.14-2.13,0.57
		c-0.57,0.43-0.99,0.85-1.28,1.56l-0.14,0.85c0,0.99,0.43,1.71,1.56,2.27c0.99,0.43,1.56,0.85,1.42,1.42c0,0.28-0.28,0.71-0.85,1.13
		c-0.71,0.43-1.14,0.57-1.56,0.57c-1.13,0-1.84-0.28-2.27-0.99c-0.28-0.15-0.28-0.43-0.42-0.85c0-0.42-0.14-0.85-0.14-1.42l1.7-4.68
		c0.14-0.28,0.57-0.57,1.28-0.99c1.13-0.71,1.99-1.13,2.55-1.28c0.57-0.14,1.13-0.28,1.7-0.28c0.57,0,1.14,0.14,1.7,0.57l0.28,0.14
		l0.71,0.85c0.29,0.29,0.43,0.43,0.71,0.71c0.15,0.42,0.15,0.71,0.28,0.85l0.43,3.12c0,0.57,0,0.99-0.15,1.56
		c0,0.42-0.28,0.99-0.42,1.7l0.14,0.56c0.15,0.58,0.28,1,0.57,1.14c0.28,0.28,0.71,0.57,1.42,0.71c0.71,0.15,1.13,0.15,1.42,0.15
		c0.29,0.14,0.85,0.14,1.56,0.14l1.42-0.14l1.28-0.28c1.28-0.29,2.41-0.85,3.41-1.42c0.28-0.29,0.71-0.57,1.13-1.14l1.14-2.55
		l4.54-12.34c0.57-1.98,0.14-3.55-1.56-4.68c-1.42-1.13-3.55-1.84-6.24-2.27c-1.14-0.28-2.13-0.43-3.41-0.43
		c-1.14-0.14-2.41-0.14-3.68-0.14c-4.68,0-8.66,1-12.06,2.84c-2.41,1.42-3.83,2.7-4.25,3.97l-0.43,1.28l-1.28,1.14l-1.98,0.71
		L173.5,2136.94L173.5,2136.94z M204.42,2137.37c0.85,0,1.56,0,1.99-0.28c0.71-0.28,1.14-0.71,1.28-1.42l0.14-0.71
		c0-0.71-0.28-1.28-0.85-1.85c-1.42-1.27-1.98-1.98-1.98-2.41c0-0.42,0.42-0.85,0.85-1.13c0.57-0.42,1.14-0.71,1.56-0.71
		c1.14,0,1.98,0.28,2.41,0.85c0.28,0.57,0.56,1.28,0.56,2.41l-3.26,8.94l-3.12,9.36l-1.28,1.14l-2.26,0.71h12.62l-1.28-0.71
		l-0.57-1.14l2.27-6.24l2.27-6.1l0.57-1.56l0.15-0.57l0.28-0.57l0.15-0.29c0.29-0.85,0.42-1.56,0.42-1.99
		c0.42-1.84-0.42-3.4-2.55-4.4c-0.85-0.43-1.85-0.71-2.84-0.99c-0.99-0.28-2.27-0.28-3.55-0.28c-1.56,0-3.11,0.43-4.54,1.28
		c-1.7,0.99-2.69,2.13-3.26,3.55c-0.14,0.43-0.14,0.71-0.14,1.13c-0.15,1.28,0.14,2.13,0.71,2.84
		C201.86,2136.94,203,2137.37,204.42,2137.37L204.42,2137.37z M123.85,2131.97c-0.14,0.43-0.28,0.85-0.28,1.14
		c0,1.28,0.14,2.13,0.71,2.84c0.71,0.85,1.84,1.13,3.4,1.13c0.85,0,1.56,0,1.99-0.28c0.71-0.29,1.14-0.71,1.28-1.28l0.14-0.85
		c0.14-0.57-0.14-1.28-0.85-1.84c-1.28-1.13-1.98-1.99-1.98-2.41c0.14-0.43,0.42-0.85,0.99-1.13c0.57-0.43,0.99-0.71,1.42-0.71
		c1.14,0,1.99,0.29,2.41,0.99c0.42,0.43,0.56,1.13,0.56,2.27l-2.27,6.38l-2.98,8.23c-0.28,0.99-1.13,2.12-2.55,2.98
		c-1.13,0.85-2.41,1.56-4.11,2.13l0.43,0.71h5.53c0.99,0,1.85-0.15,2.7-0.42c0.99-0.57,2.41-1.42,3.97-2.84
		c1.13,1.13,2.27,1.99,3.4,2.55c0.99,0.42,2.13,0.71,3.55,0.71c2.98,0,5.39-0.42,7.23-1.14c1.84-0.85,3.26-2.12,4.11-3.97l2.27-6.1
		c0.28-1.14,0.85-2.55,1.42-4.54c0.71-1.99,1.14-3.26,1.28-3.69l0.14-0.43c0.14-0.43,0.28-0.85,0.43-1.42
		c0.28-0.57,0.43-1.14,0.57-1.84l1.42-1.13l1.7-0.57H149.1l1.7,0.57l0.43,1.13l-4.11,11.63l-2.27,6.25
		c-0.14,0.42-0.57,0.85-1.42,1.28c-0.28,0.28-0.71,0.42-1.13,0.56c-0.43,0.15-0.85,0.28-1.28,0.28c-1.56,0-2.83-0.42-3.83-1.13
		c-0.99-0.72-1.27-1.56-0.99-2.56l2.7-7.23l1.13-3.26l0.43-0.99l0.14-0.43c0-0.14,0-0.28,0.14-0.71c0.29-1.85-0.56-3.26-2.55-4.4
		c-1-0.42-1.85-0.71-2.98-0.99c-0.99-0.14-2.13-0.28-3.55-0.28s-2.98,0.43-4.54,1.28C125.41,2129.42,124.28,2130.56,123.85,2131.97
		L123.85,2131.97z M148.53,2181.05c-0.14,0-0.43-0.14-0.57-0.14c-0.85-0.28-1.56-0.42-2.27-0.42c-1.28,0-2.27,0.28-3.26,0.99
		c-1.13,0.71-2.27,1.98-3.55,3.97h-0.14l0.99-4.54h-7.94l-4.68,22.84h8.51l1.7-8.51c0.57-2.7,1.42-4.68,2.41-5.82
		c0.99-1.14,2.27-1.85,3.97-1.85c0.57,0,1.13,0.14,1.7,0.28l2.55-5.39L148.53,2181.05L148.53,2181.05z M162.01,2201.76l-0.43,1.98
		h8.51l4.68-22.84h-8.51L162.01,2201.76L162.01,2201.76z M222.43,2190.42h-8.23c0.43-1.71,1.14-2.84,1.99-3.69
		c0.71-0.57,1.42-0.99,2.12-1.13c0.28,0,0.42-0.15,0.71-0.15c1,0,1.85,0.42,2.41,0.99c0.71,0.57,1.13,1.42,1.13,2.55
		C222.57,2189.56,222.43,2189.99,222.43,2190.42L222.43,2190.42z M219.17,2180.49h-0.85c-1.56,0-2.84,0.28-4.11,0.56
		c-1.42,0.43-2.83,1.28-4.39,2.41c-1.42,1.28-2.55,2.84-3.41,4.54c-0.85,1.85-1.28,3.68-1.28,5.82c0,2.84,0.85,5.39,2.69,7.38
		c1.85,1.98,4.97,3.12,9.37,3.12c0.42,0,0.71-0.15,1.13-0.15c2.55,0,4.54-0.56,6.25-1.42c1.98-0.99,3.68-2.55,4.81-4.82l-8.08-0.85
		c-0.85,1.14-1.84,1.7-2.98,1.99c-0.28,0-0.57,0.14-0.99,0.14c-2.41,0-3.68-1.56-3.97-4.68h16.88c0.43-2.12,0.57-3.68,0.57-4.54
		c0-2.69-0.85-4.96-2.69-6.81C226.26,2181.33,223.29,2180.49,219.17,2180.49L219.17,2180.49z M247.25,2189.43
		c-1.98-0.28-3.26-0.57-3.68-0.99c-0.57-0.28-0.71-0.72-0.71-1.28c0-0.56,0.28-0.99,0.71-1.42c0.57-0.28,1.42-0.57,2.41-0.57
		c1.7,0,2.69,0.71,2.98,2.13l7.95-0.85c-0.42-2.27-1.42-3.83-2.98-4.68c-1.56-0.85-3.83-1.28-6.81-1.28c-2.55,0-4.82,0.28-6.53,0.99
		c-1.84,0.85-3.12,1.84-3.97,3.11c-0.85,1.28-1.28,2.55-1.28,3.84c0,1.7,0.57,2.98,1.7,4.11c1.14,0.99,3.41,1.85,6.67,2.42
		c1.42,0.14,2.41,0.42,2.98,0.71c0.43,0.14,0.72,0.71,0.72,1.42c0,0.71-0.28,1.28-0.99,1.7c-0.85,0.43-1.56,0.72-2.55,0.72
		c-1.99,0-3.12-0.99-3.55-2.84l-8.38,0.71c0.29,2.55,1.28,4.25,2.84,5.25c1.71,1.14,4.26,1.71,7.81,1.71c4.25,0,7.51-0.85,9.64-2.55
		c2.12-1.7,3.12-3.69,3.12-5.96c0-1.7-0.56-3.12-1.55-4.11C252.64,2190.69,250.51,2189.99,247.25,2189.43L247.25,2189.43z
		 M196.05,2180.49c-3.41,0-6.25,1.28-8.51,3.97l-0.14-0.14l0.85-3.41h-7.95l-4.82,22.84h8.51l2.13-9.93
		c0.42-2.27,1.13-3.97,2.13-5.25c0.85-1.14,1.99-1.7,3.26-1.7c1.13,0,1.7,0.56,1.7,1.84c0,0.29-0.28,1.85-0.85,4.4l-2.12,10.64h8.37
		l2.69-12.48c0.43-2.69,0.71-4.54,0.71-5.39c0-1.55-0.42-2.84-1.42-3.83C199.6,2180.91,198.03,2180.49,196.05,2180.49
		L196.05,2180.49z M119.74,2172.26l-1.28,5.96h8.51l1.28-5.96H119.74z M168.11,2172.26l-1.28,5.96h8.51l1.28-5.96H168.11
		L168.11,2172.26z M162.29,2172.26h-8.36l-5.96,28.51l-0.57,2.98h8.51l6.1-29.51L162.29,2172.26z M54.06,2195.8
		c-0.71,1.42-1.7,2.27-2.98,2.42c-0.28,0.14-0.43,0.14-0.71,0.14c-0.99,0-1.98-0.42-2.55-1.28c-0.71-0.85-1.13-1.84-1.13-3.12
		c0-1.71,0.43-3.41,1.42-5.11c0.71-1.42,1.7-2.27,2.98-2.42c0.28-0.14,0.71-0.14,0.99-0.14c0.85,0,1.7,0.28,2.41,0.85
		c0.71,0.72,0.99,1.71,0.99,3.12C55.48,2192.4,55.06,2194.24,54.06,2195.8L54.06,2195.8z M52.36,2180.49h-1.27
		c-2.27,0.14-4.4,0.71-6.24,1.7c-1.99,1.28-3.69,2.98-4.68,5.11c-1.14,2.13-1.7,4.39-1.7,6.67c0,2.98,0.85,5.38,2.7,7.37
		c1.84,1.99,4.82,2.98,8.65,2.98c0.42,0,0.85-0.15,1.28-0.15c2.55-0.14,4.68-0.71,6.38-1.85c2.13-1.27,3.69-2.98,4.68-5.1
		c1.13-2.27,1.56-4.4,1.56-6.53c0-2.69-0.85-5.1-2.7-7.23C59.17,2181.48,56.33,2180.49,52.36,2180.49L52.36,2180.49z
		 M113.21,2203.75h8.51l4.68-22.84h-8.51L113.21,2203.75L113.21,2203.75z M23.71,2198.22c-0.57,0.42-1.28,0.85-1.84,0.99
		c-0.43,0.14-0.85,0.28-1.42,0.28c-0.71,0-1.28-0.28-1.84-0.72c-0.43-0.28-0.71-0.98-0.71-1.7c0-0.71,0.43-1.28,0.99-1.84
		c0.43-0.28,1.42-0.57,2.98-1c0.99-0.14,2.41-0.42,3.97-0.71C25.41,2195.66,24.7,2197.23,23.71,2198.22z M32.79,2182.04
		c-1.42-0.99-4.4-1.55-8.8-1.55h-2.13c-2.7,0.14-4.82,0.71-6.24,1.7c-1.85,1.13-2.98,2.84-3.55,4.96l7.94,0.85
		c0.43-0.99,0.85-1.7,1.56-1.98c0,0,0.14-0.15,0.28-0.15c0.57-0.14,1.28-0.28,1.98-0.28c0.99,0,1.7,0.14,2.27,0.42
		c0.57,0.42,0.85,0.85,0.85,1.42c0,0.43-0.14,0.85-0.28,1.56c-0.71,0.28-2.41,0.57-4.82,0.85c-2.84,0.28-4.96,0.57-6.53,0.99
		c-1.7,0.28-2.98,0.99-4.11,2.13c-0.99,0.99-1.56,2.55-1.56,4.54c0,1.84,0.57,3.4,1.84,4.68c1.13,1.42,3.12,2.13,5.96,2.13
		c1.56,0,2.98-0.42,4.4-0.99c0.99-0.57,2.13-1.28,2.98-2.27c0,0.85,0.14,1.7,0.28,2.69h8.37c-0.43-1.14-0.57-2.13-0.57-3.12
		c0-1.28,0.28-3.4,0.99-6.52c0.85-3.26,1.13-5.67,1.13-7.09C35.06,2184.88,34.35,2183.18,32.79,2182.04L32.79,2182.04z
		 M93.5,2191.83l3.12-6.81l2.13-4.54l0.99,11.34H93.5z M95.06,2172.26l-17.16,31.49h10.07l2.41-5.25h9.93l0.43,5.25h9.22
		l-4.82-31.49H95.06z M-3.24,2172.26h-9.5l-6.38,31.49H5.41l1.56-7.66H-8.21L-3.24,2172.26z"/>
	<path id="path31" class="st3" d="M359.31,2177.5c-1.14,1.98-2.84,3.69-4.68,5.39c-3.41,2.98-7.81,5.25-12.06,5.54
		c-1.28,0-2.55,0-3.83-0.15c-7.09-0.99-14.47-5.53-19.15-10.07c-0.57-3.69-1.7-7.52-1.7-11.21c2.27-1.71,5.39-1.85,9.08-1.28
		c-1.98-0.99-5.25-1.71-7.38-1.14c8.23-5.11,13.76-5.67,19.15-5.67c0.14,0,0.28,0,0.28,0c8.65,0.14,18.44,7.23,20.28,15.88
		C359.6,2175.67,359.88,2176.66,359.31,2177.5L359.31,2177.5z M316.19,2188c-0.15,0.85-0.43,1.56-0.57,2.13
		c-2.55,8.65-6.81,12.48-12.34,14.75c-0.72,0.28-1.56,0.56-2.41,0.85c-6.24,2.13-7.51-0.99-9.36-5.11c-1.28-2.69-1.98-5.95-1.7-9.21
		c0.28-4.97,1.84-10.21,3.26-13.76c1.99-0.42,5.82-2.13,10.21-4.68c2.98-1.7,6.24-3.82,9.21-6.24c0.29,1.99-2.69,11.06-3.68,13.05
		c2.41-2.55,4.11-8.37,5.53-11.91c0.42,2.13,0.85,4.11,1.28,6.1C316.61,2178.5,317.47,2182.89,316.19,2188L316.19,2188z
		 M289.09,2175.8c-7.09,1.28-15.6,0.85-24.82-7.8c-4.82-4.4-0.14-9.22,6.1-13.48c6.52-4.4,14.33-8.51,20.14-8.79
		c3.97,4.53,8.22,7.8,12.77,11.2c1.7,1.14,3.4,2.42,5.1,3.69c2.13,0.56-3.4,2.98-4.54,3.4c-0.56,0.15,5.39-1.28,6.81-0.56
		c-0.85,1.55-3.83,3.83-7.38,6.1C298.74,2172.4,293.07,2175.1,289.09,2175.8L289.09,2175.8z M286.82,2115.09
		c0.71-1.7,1.42-3.4,2.41-3.83c1.28-0.71,2.98,0.28,5.39,0.71c3.12,0.85,6.1,1.98,8.65,3.55c0.28,0,0.42,0.14,0.71,0.28
		c5.1,3.26,8.93,8.08,11.63,14.47c0.28,0.57,0.42,1.14,0.57,1.56c-0.15,0.57-0.43,0.99-0.57,1.42c-3.69,7.95-3.83,16.46-2.41,25.11
		c-3.12-1.56-5.11-7.24-5.82-10.35c0.28,2.41,0.85,9.64,3.12,10.78c0,0,0,0,0,0.15c-2.84-1.85-5.25-3.41-7.23-4.82
		c-5.11-3.69-7.52-6.1-9.79-8.66C285.98,2137.37,282.43,2125.59,286.82,2115.09L286.82,2115.09z M338.31,2120.2h0.43
		c7.38,0.57,6.52,0.85,7.38,4.26c1.56,4.82,2.13,8.65,1.7,12.62c-0.85,5.82-3.97,11.21-9.08,15.89c-1.14,1.14-2.27,2.13-3.69,3.12
		c-5.1,0.42-10.07,2.41-14.61,4.68c-0.99,0.15-1.28,0.42-2.27,0c0.29-4.54,1.28-9.36,3.68-13.19c-2.98,2.69-5.11,10.92-5.39,11.63
		c-0.28-1.27-0.56-2.55-0.85-3.97c-0.71-4.25-0.99-9.22,0-15.03c0-0.28,0.14-0.71,0.14-1.14
		C318.46,2125.03,330.37,2119.63,338.31,2120.2L338.31,2120.2z M360.02,2174.67c-3.26-9.22-11.34-17.17-21.27-18.44
		c-0.99-0.14-2.13-0.28-3.12-0.14c1.14-0.85,2.13-1.7,3.12-2.55c5.53-4.82,8.94-10.64,9.51-16.88c0.42-3.55-0.43-7.09-1.56-11.2
		c-0.57-1.42-0.15-3.4-1.56-4.54c-1.28-0.85-4.4-1.13-6.25-1.28h-0.14c-6.81-0.71-14.61,0.28-22.13,11.78
		c-0.28-0.71-0.71-1.56-0.99-2.27c-2.55-5.68-6.25-10.07-10.92-13.19c-0.42-0.28-0.99-0.57-1.42-0.85c-2.7-1.7-5.68-2.83-8.94-3.55
		c-1.98-0.56-3.55-1.13-4.82-0.99c-1.42,0.28-2.27,1.84-3.12,3.69c-4.25,11.77-2.84,21.42,3.83,31.06c-4.97,0.43-13.61,4.25-20,8.8
		c-4.4,2.98-7.81,6.24-8.23,9.5v1.42c0.15,1.28,0.85,2.56,2.13,3.83c10.21,9.08,18.15,10.92,28.65,8.94
		c-1.7,3.55-2.84,7.95-3.41,12.48c-0.42,3.83,0.57,7.8,1.71,10.78c1.42,4.11,3.55,6.67,9.08,5.53c1.13-0.29,2.13-0.57,3.12-0.99
		c5.81-2.13,9.78-6.67,12.34-11.78c2.55-5.11,3.68-10.64,3.83-14.75c5.96,3.83,11.35,8.65,19.29,9.65c1.28,0.15,2.69,0.15,4.11,0.15
		c3.12-0.15,7.23-1.98,10.78-4.68c2.7-1.98,5.39-4.54,6.25-7.09C360.16,2176.23,360.16,2175.38,360.02,2174.67L360.02,2174.67z
		 M-17.99,2165.17h279.42v-1.98H-17.99V2165.17z"/>
	
		<linearGradient id="path33_00000114046168481917348010000018241746710960355979_" gradientUnits="userSpaceOnUse" x1="6066.2036" y1="-4754.0933" x2="6970.5479" y2="-4049.0876" gradientTransform="matrix(0.0475 0 0 -0.0475 -14.4561 1971.1537)">
		<stop  offset="0" style="stop-color:#24A859"/>
		<stop  offset="0.0941" style="stop-color:#5BB852"/>
		<stop  offset="0.1882" style="stop-color:#24A859"/>
		<stop  offset="1" style="stop-color:#92C84B"/>
	</linearGradient>
	
		<path id="path33" style="fill-rule:evenodd;clip-rule:evenodd;fill:url(#path33_00000114046168481917348010000018241746710960355979_);" d="
		M323.14,2188.71c0.15,0-0.14,0.43,0.15,0.43c0.85-1.85,1.85-3.69,2.98-5.54c-1.13-0.71-2.27-1.56-3.55-2.27
		c-0.99-0.85-2.13-1.56-3.26-2.27c0,0.57-0.15,1.28-0.15,1.98c1.14,2.27,2.55,4.4,3.41,6.67C322.86,2188,323,2188.29,323.14,2188.71
		L323.14,2188.71z M330.09,2185.87c-1.13,0.15-2.13,0.28-3.12,0.43c-1.28,2.69-2.69,5.25-3.97,7.8c4.54,0.71,7.51,0.14,11.35-2.13
		c-0.42,0.28-0.71,0.85-0.99,1.42c-3.83,2.12-6.67,2.98-10.64,3.68c-0.71,0.15-1.42,0.29-2.27,0.43
		c-3.83,4.82-7.95,9.36-12.62,13.19c2.69-3.26,5.53-6.67,8.37-9.93l-2.98,2.55c2.27-3.12,7.52-8.51,7.52-12.77
		c-0.43-1.28-1.28-3.12-2.13-5.25c-0.99,4.68-3.12,9.78-6.52,13.9c-0.57,1.42-1.28,2.84-1.98,4.12
		c-3.55,6.38-8.51,11.21-13.34,13.19h-0.14v2.41c0,2.27,0,3.83,1.7,4.11h0.14l0.15-0.14c1.7-4.83,8.23-8.94,16.31-14.18
		c2.12-1.42,4.39-2.84,6.81-4.4c0.29-0.28,0.71-0.42,0.99-0.71c5.25-3.55,10.5-7.66,15.88-12.2c1.14-0.85,2.13-1.71,3.27-2.55
		c-1.14,0-2.13,0-3.27-0.15C335.48,2188.29,332.64,2187.15,330.09,2185.87L330.09,2185.87z M427.25,2061.34
		c-1.28,0.28-2.55,0.42-3.82,0.57c-3.27,0.57-6.81,1.13-12.63,2.84c-2.41,0.71-4.96,1.42-7.51,2.13
		c-9.64,2.55-20.01,5.39-31.77,11.35c-11.49,5.82-23.26,13.9-32.91,24.68c-0.71,0.85-1.42,1.7-2.12,2.55
		c-4.12,5.11-7.81,10.64-10.78,16.6c2.27-1.42,4.68-2.13,6.95-2.42c0-2.27,0.29-5.53,1.56-5.53c-0.57,1.85-0.71,3.69-0.57,5.39
		c1.7-0.14,3.41-0.14,4.96,0c0.15,0.14,0.15,0.14,0.28,0.14c1.85,0.15,4.97,0.43,6.25,1.28c1.42,1.14,0.99,3.12,1.56,4.54
		c1.13,4.11,1.98,7.66,1.56,11.2c0,0.57-0.15,1-0.15,1.42c0.99-2.27,1.7-4.82,1.7-7.51c-0.85-4.26-2.69-6.95-4.25-12.77
		c-1.56-5.96-0.85-12.91,2.13-19.86c-0.99,4.11-1.56,7.66-0.57,11.91c0.99,4.25,3.83,9.78,4.82,12.91c0.99,3.26,0.71,3.83,1.28,5.81
		c1.7-3.26,4.39-7.23,5.25-10.64c0.43-2.98-0.28-6.1-0.28-7.94c-0.14-1.7-0.85-4.54-1.28-8.51c-0.42-5.82-0.28-12.34,2.84-12.91
		c-0.71,1.56-1.28,1.56-1.7,4.68c-0.29,2.98,3.26,14.04,4.25,20.99c1.98-3.26,4.25-6.53,6.38-9.65c-0.71-7.52-2.55-18.58,4.68-23.69
		c-1.99,3.12-2.7,4.82-2.98,8.08c0,1.28-0.14,10.35,1.14,11.77c2.55-2.7,5.11-5.25,7.8-7.66c0.29-0.43,0.85-1.13,0.99-1.42
		c0.71-6.38,0.15-12.2,5.25-16.31c-0.85,1.28-2.13,2.55-2.41,4.26c-0.29,1.7-0.42,7.94,0.85,9.08c2.69-2.55,5.53-5.25,8.37-7.66
		c0.57-2.27,0.85-4.25,1.7-6.1c0.99-2.27,1.85-3.41,4.25-4.26c-2.69,2.13-4.11,4.4-2.27,7.94c3.97-2.98,7.38-5.25,10.5-7.38
		c0.28-1.85,1.13-3.41,2.98-4.11c-0.42,0.43-0.99,0.99-1.28,1.7c-0.14,0.43-0.14,1-0.14,1.56c1.85-1.13,3.68-1.98,5.81-2.83
		c-2.27,1.42-4.4,2.83-6.67,4.11c-2.13,1.56-4.12,3.27-6.38,4.97c1.42,0,4.4,0.14,5.53-0.14c1.28-0.14,1.99-0.71,2.98-0.99
		c-1.28,0.85-1.71,2.13-3.83,2.41c-1.99,0.28-4.54,0.28-6.81,0.43c-3.27,2.27-6.1,5.25-8.65,8.23c3.4,0.99,8.65,0.28,10.92-0.57
		c2.41-0.85,2.41-1.14,3.68-2.27c-2.41,5.11-12.91,5.11-17.02,5.11c-1.28,1.56-7.94,6.53-7.94,8.51c6.1,0.43,13.05,0.57,18.87-0.99
		c-6.38,3.4-14.47,3.55-21.71,3.97c-2.55,1.28-5.95,7.24-7.65,9.51c6.24,0,14.61,0.71,18.58,0.57c4.11-0.14,3.82-1.13,5.82-1.56
		c-2.42,2.98-9.22,3.12-12.35,3.26c-2.69,0-5.67-0.14-8.08,0.28c-2.41,0.43-4.4,1.14-6.67,1.56c-2.41,3.69-4.82,7.38-7.23,11.21
		c2.84-0.29,5.11-0.57,8.51-0.71c3.27,0,6.81,0.42,9.64,0.28c3.83,0,7.24-0.56,11.92-2.55c-4.68,3.69-9.79,5.1-15.75,5.39
		c-2.83,0.28-12.48-0.99-17.01,1.98c-1.42,2.98-2.98,5.96-4.55,8.94c2.84,0.14,5.53,0.43,8.37,0.71c5.54,1,10.5,1.99,15.46,0.85
		c1.42-0.43,2.84-0.85,4.26-1.7c0,1.42-6.1,3.69-7.52,3.83c-3.12,0.57-6.38,0.14-9.5,0.28c-4.68,0.14-9.22,0.28-13.9,0.57
		c-1.56,3.41-3.27,6.81-4.97,10.35c6.67,1,17.59,2.84,21.56,2.27c3.83-0.56,3.69-1.98,4.4-1.27c-1.42,0.98-2.98,1.55-4.68,2.12
		c-2.83,1.13-5.25,0.85-8.51,0.85c-4.68-0.15-9.22-0.57-13.76-0.85c-0.14,0.14-0.28,0.42-0.42,0.71
		c5.95,1.98,10.92,6.25,14.32,11.63c0.57-0.14,1.14-0.28,1.71-0.42c-0.29,0.42-0.85,0.72-1.42,0.99c0.71,1.14,1.28,2.27,1.85,3.41
		c0.99-1.28,2.12-2.55,3.26-3.83c4.12-4.97,7.95-10.21,11.63-15.32c4.97-6.95,8.94-13.33,12.62-20.57
		c3.55-7.23,6.67-14.89,9.93-23.97c3.98-11.34,7.66-21.27,12.35-29.22c4.68-7.94,10.35-14.04,18.3-18.16L427.25,2061.34
		L427.25,2061.34z M338.88,2156.23c0.99-1.84,1.99-3.83,2.84-5.67c-0.85,0.99-1.98,1.98-3.12,2.98c-0.85,0.85-1.98,1.7-2.98,2.55
		c0.99-0.15,1.98,0,2.98,0.14C338.74,2156.23,338.88,2156.23,338.88,2156.23z"/>
</g>
</svg>
