<?xml version="1.0" encoding="utf-8"?>
<!-- Generator: Adobe Illustrator 25.2.1, SVG Export Plug-In . SVG Version: 6.00 Build 0)  -->
<svg version="1.1" id="Layer_1" xmlns="http://www.w3.org/2000/svg" xmlns:xlink="http://www.w3.org/1999/xlink" x="0px" y="0px"
	 viewBox="0 0 99.64 80" style="enable-background:new 0 0 99.64 80;" xml:space="preserve">
<style type="text/css">
	.st0{fill:#CE2031;}
	.st1{fill:#DF641D;}
</style>
<g>
	<path class="st0" d="M75.84,74.8c0,0-2.08-14.12-7.88-23.2c-5.79-9.07-13.38-4.31-13.38-4.31c0.44-1.8,0.99-3.52,1.64-5.14
		c0.01-0.01,0.02-0.03,0.03-0.06c0.76-1.88,1.66-3.63,2.65-5.26c8.79-14.38,25.59-19.53,29.14-17.2c4.31,2.82,2.09,9.81,2.09,9.81
		c6.83-2.68,9.07,1.34,9.07,1.34C103.5,55.47,75.84,74.8,75.84,74.8z"/>
	<path class="st0" d="M58.74,49.67c-5.8,0-8.92,5.2-8.92,5.2s-3.12-5.2-8.92-5.2S30.2,59.04,26.33,76.28l6.1,3.72
		c0,0,5.95-7.29,17.4-7.29S67.22,80,67.22,80l6.1-3.72C69.45,59.04,64.54,49.67,58.74,49.67z"/>
	<path class="st0" d="M45.06,47.29c0,0-0.9-0.56-2.31-0.93c-2.69-0.7-7.26-0.71-11.07,5.24c-5.8,9.07-7.88,23.2-7.88,23.2
		S-3.86,55.47,0.46,30.79c0,0,2.23-4.02,9.07-1.34c0,0-2.23-6.99,2.08-9.81c3.36-2.2,12.94,0.68,25.57,13.35
		C40.3,36.11,43.87,42.36,45.06,47.29z"/>
	<path class="st0" d="M72.12,21.27c-4.23,2.98-8.13,6.85-11.43,10.67c-6.59,7.59-10.86,15-10.86,15s-3.7-6.42-9.52-13.42
		c-3.58-4.32-7.97-8.85-12.79-12.25c0,0,2.09-21.26,13.38-21.26c0,0,5.65-0.6,8.93,6.69c3.27-7.28,8.92-6.69,8.92-6.69
		C70.04,0.01,72.12,21.27,72.12,21.27z"/>
</g>
<path class="st1" d="M61.35,29.63c-0.46,1.05-0.63,1.8-0.66,2.31c-6.59,7.59-10.86,15-10.86,15s-3.7-6.42-9.52-13.42
	c0.09-0.09,0.15-0.13,0.15-0.13s0.85-0.56,0.19-1.45c-0.67-0.89-1.53-0.86-2.19-2.19c-0.67-1.34-0.3-1.97,0.18-2.01
	c0.48-0.03,1.49,0.97,2.05,2.57c0.56,1.6,1.15,2.19,1.93,1.97c0.78-0.22,1.49-1.48,1.15-3.45s0.34-3.04,1.27-2.27
	c0.93,0.78,0.07,2.15,1.3,2.86c1.23,0.7,2.41-0.15,2.19-2.16c-0.23-2.01-0.38-4.27,0.89-4.35c1.26-0.07,1,3.16,0.7,4.31
	c-0.3,1.15,0.37,2.45,1.34,2.15c0.97-0.3,1-1.45,1.97-2.56c0.97-1.12,1.68-0.45,2.09-0.52c0.41-0.07,1.6-2.56,2.75-2.12
	c1.15,0.45,0.59,3.23,0.59,3.23S62.46,27.11,61.35,29.63z"/>
</svg>
