<?xml version="1.0" encoding="utf-8"?>
<!-- Generator: Adobe Illustrator 25.2.1, SVG Export Plug-In . SVG Version: 6.00 Build 0)  -->
<svg version="1.1" id="Layer_1" xmlns="http://www.w3.org/2000/svg" xmlns:xlink="http://www.w3.org/1999/xlink" x="0px" y="0px"
	 viewBox="0 0 325.1 80" style="enable-background:new 0 0 325.1 80;" xml:space="preserve">
<style type="text/css">
	.st0{fill:#CE2031;}
	.st1{fill:#DF641D;}
	.st2{fill:#0F1636;}
</style>
<g>
	<g>
		<path class="st0" d="M75.84,74.8c0,0-2.08-14.12-7.88-23.2c-5.79-9.07-13.38-4.31-13.38-4.31c0.44-1.8,0.99-3.52,1.64-5.14
			c0.01-0.01,0.02-0.03,0.03-0.06c0.76-1.88,1.66-3.63,2.65-5.26c8.79-14.38,25.59-19.53,29.14-17.2c4.31,2.82,2.09,9.81,2.09,9.81
			c6.83-2.68,9.07,1.34,9.07,1.34C103.5,55.47,75.84,74.8,75.84,74.8z"/>
		<path class="st0" d="M58.74,49.67c-5.8,0-8.92,5.2-8.92,5.2s-3.12-5.2-8.92-5.2S30.2,59.04,26.33,76.28l6.1,3.72
			c0,0,5.95-7.29,17.4-7.29S67.22,80,67.22,80l6.1-3.72C69.45,59.04,64.54,49.67,58.74,49.67z"/>
		<path class="st0" d="M45.06,47.29c0,0-0.9-0.56-2.31-0.93c-2.69-0.7-7.26-0.71-11.07,5.24c-5.8,9.07-7.88,23.2-7.88,23.2
			S-3.86,55.47,0.46,30.79c0,0,2.23-4.02,9.07-1.34c0,0-2.23-6.99,2.08-9.81c3.36-2.2,12.94,0.68,25.57,13.35
			C40.3,36.11,43.87,42.36,45.06,47.29z"/>
		<path class="st0" d="M72.12,21.27c-4.23,2.98-8.13,6.85-11.43,10.67c-6.59,7.59-10.86,15-10.86,15s-3.7-6.42-9.52-13.42
			c-3.58-4.32-7.97-8.85-12.79-12.25c0,0,2.09-21.26,13.38-21.26c0,0,5.65-0.6,8.93,6.69c3.27-7.28,8.92-6.69,8.92-6.69
			C70.04,0.01,72.12,21.27,72.12,21.27z"/>
	</g>
	<path class="st1" d="M61.35,29.63c-0.46,1.05-0.63,1.8-0.66,2.31c-6.59,7.59-10.86,15-10.86,15s-3.7-6.42-9.52-13.42
		c0.09-0.09,0.15-0.13,0.15-0.13s0.85-0.56,0.19-1.45c-0.67-0.89-1.53-0.86-2.19-2.19c-0.67-1.34-0.3-1.97,0.18-2.01
		c0.48-0.03,1.49,0.97,2.05,2.57c0.56,1.6,1.15,2.19,1.93,1.97c0.78-0.22,1.49-1.48,1.15-3.45s0.34-3.04,1.27-2.27
		c0.93,0.78,0.07,2.15,1.3,2.86c1.23,0.7,2.41-0.15,2.19-2.16c-0.23-2.01-0.38-4.27,0.89-4.35c1.26-0.07,1,3.16,0.7,4.31
		c-0.3,1.15,0.37,2.45,1.34,2.15c0.97-0.3,1-1.45,1.97-2.56c0.97-1.12,1.68-0.45,2.09-0.52c0.41-0.07,1.6-2.56,2.75-2.12
		c1.15,0.45,0.59,3.23,0.59,3.23S62.46,27.11,61.35,29.63z"/>
	<g>
		<path class="st2" d="M298.51,48.83c3.27-0.07,6.29-1.3,9.41-2.05c1.27-0.31,3.23-0.39,3.4-1.63c0.21-1.56-1.5-2.53-2.86-3.32
			c-0.29-0.17-0.56-0.38-0.87-0.49c-1.87-0.73-2.2-1.87-1.08-3.53c1.1-1.63,1.47-3.25,0.34-5.17c-0.82-1.38-0.35-2.6,1.28-3.5
			c1.58-0.87,3.01-2.57,2.41-4.27c-0.54-1.52-2.47-2.24-4.35-2.18c-0.46,5.43-5.49,9.56-10.86,8.72c0.08,0.84,0.05,1.4,0.19,1.91
			c1.71,6.25,1.78,6.26,0.25,12C295.09,47.87,296.05,48.87,298.51,48.83z"/>
		<path class="st2" d="M295.59,18.24c1.76,0.51,1.77,1.61,1.19,3.06c-0.36,0.91-0.63,1.9-0.7,2.87c-0.1,1.28-0.42,3.29,0.96,3.45
			c1.47,0.16,3.68-0.3,3.66-2.81c0.4-1.33,0.41-2.66-0.02-3.99c0.67-0.79-1.57-2.69,0.4-2.48c4.23,0.47,6.65-2.61,9.89-4.05
			c0.37-0.07,0.74-0.14,1.11-0.2c2.24,0.83,0.34,1.58-0.13,2.18c-0.58,0.76-1.6,1.37-1.12,2.44c0.48,1.07,1.63,0.79,2.58,0.73
			c1.56,0.38,3.11,0.33,4.66-0.01c1.78-0.19,4.13,1.03,5.15-1.03c0.98-1.96-0.9-3.51-2.09-4.88c-1.16-1.35-2.89-0.65-4.4-0.63
			c-3.04-0.06-6.08-0.12-9.13-0.18c-3.21-0.5-5.81-3.03-9.31-3c1.84,4.36,1.84,4.37-2.44,5.62c-0.76,0.22-1.67,0.36-1.67,1.25
			C294.18,17.32,294.76,18,295.59,18.24z"/>
		<path class="st2" d="M289.14,30.76c1.03-2.63,0.87-5.28,0.11-7.94c0,0,0,0,0,0c-0.18-1.08-0.29-2.17-0.55-3.22
			c-0.15-0.62,0.46-1.7-0.8-1.77c-0.84-0.04-1.64,0.42-1.8,1.2c-0.78,3.83-2.38,7.63-0.54,11.59
			C286.68,33.04,287.85,33.1,289.14,30.76z"/>
		<path class="st2" d="M233.97,33.14c1.28,0.9,0.07,2.4-0.22,3.63c-0.1,0.42-0.33,0.82-0.41,1.24c-0.3,1.61-0.03,3.45,1.39,4.01
			c1.65,0.65,1.74-1.47,2.46-2.43c1.04-1.44,0.49-2.88,0-4.32c0,0,0,0,0,0c0.25-1.69,1.18-0.53,1.89-0.48
			c1.42,0.09,2.39-0.14,1.57-1.97c-0.35-0.79-1.74-1.99,0.19-2.58c1.42-0.44,2.47-0.01,3.07,1.62c1.07,2.9,0.15,5.64-0.35,8.42
			c-0.07,0.39-0.79,0.72-1.27,0.95c-0.93,0.44-2.7-0.32-2.76,1.12c-0.05,1.24,1.29,2.24,2.33,3.08c2.69,2.16,3.31,1.99,4.59-1.23
			c1.51-3.8,2.94-7.63,5.24-11.05c1-1.49,1.93-3.16,4.22-3.63c-0.23,2.77,0.06,5.31,0.67,7.77c0.73,2.99,1.65,5.97,5.32,6.73
			c1.77,0.66,3.55,0.65,5.33,0.03c2.96-0.39,5.66-1.41,8.08-3.17l0,0v0c1.16-1.68,1.15-3.37,0.05-5.07c0,0,0,0,0,0c0,0,0,0,0,0
			c0.09-1.35-1.13-2.29-1.86-2.14c-0.86,0.18-1.86,1.33-2.16,2.27c-0.83,2.58-2.49,4.29-4.77,5.56c-1.11,0.01-2.21,0.03-3.32,0.04
			c0,0,0,0,0,0c0,0,0,0,0,0c-3.22-0.71-5.15-3.37-4.47-6.45c0.4-1.82,1.09-3.59,1.69-5.37c0.59-1.72,0.63-3.2-1.25-4.2
			c-2.2-1.17-1.97-2.51-0.23-3.98c0.67-0.57,1.25-1.27,1.76-1.99c0.94-1.32,0.51-3.27-0.65-3.27c-3.14,0-3.01-1.8-2.91-3.86
			c0.09-1.75-0.8-2.27-2.44-2.29c-1.5-0.02-2.45,0.09-2.64,1.96c-0.25,2.51-0.57,5.08-2.28,7.16c-1.45,1.77-1.78,3.22,0.98,4.03
			c1.25,0.36,2.27,0.98,1.44,2.64c-1.37,2.77-2.43,5.72-5.09,7.63c-1.73-1.38-0.59-3.22-0.75-4.83c-0.34-3.47,0.89-7.03-0.58-10.44
			c-2.21-1.38-4.59-2.66-3.55-5.96c0.4-1.27-0.98-0.96-1.42-1.28c-0.72-0.52-2.24-0.61-2.66,0.29c-0.66,1.44-2.32,2.79-1.12,4.7
			c-0.65,0.73-0.91,1.31,0.48,1.35c1.19,0.04,2.38,0.14,3.57,0.21c0,0,0,0,0,0c0,0,0,0,0,0c2.2,2.24,0.61,5.44,2.01,7.88
			c-0.43,0.05-0.86,0.09-1.29,0.14c-0.83-0.44-1.01-1.32-1.47-2.02c-1.15-1.72-2.68-2.19-4.46-0.76c-0.05,1.05-0.11,2.11-0.16,3.16
			c-0.77,1.03-0.14,2.6-1.34,3.46c-2.73,0.61-5.45,1.25-8.18,1.83c-1.06,0.22-2.62,0.18-2.36,1.61c0.22,1.16,1.15,2.58,2.69,2.54
			c1.51-0.04,3.38-0.08,4.42-0.93C231.97,33.66,233.17,32.58,233.97,33.14z"/>
		<path class="st2" d="M164.73,21.21c0.05-2.09-2.62-0.95-4.03-1.13c-6.08-0.78-8.07-3.53-6.62-9.54c0.16-0.64,0.29-1.29,0.46-1.93
			c0.78-3.04-0.47-4.92-3.4-5.78c-1.78-0.53-3.58-1.06-5.48-0.48c1.88,6.03,1.88,6.03-4.73,8.25c1.2,2.49,1.19,2.54,3.63,3
			c1.09,0.2,2.14,0.59,2.13,1.69c-0.02,1.55-1.5,0.76-2.32,0.99c-1.17,0.32-2.4,0.41-3.61,0.61c-2.05,0.44-0.48,1.71-0.6,2.59
			c-0.17,1.63,0.67,3.62-1.7,4.46c-3.33,1.19-6.63,2.72-10.23,1.01c-0.99-0.47-1.82-0.32-2.28,0.54c-1.01,1.86-1.88,3.89-0.72,5.95
			c1.11,1.98,3.04,1.49,4.75,0.99c4.78-1.37,9.26-3.53,14.77-5.99c-2.86,4.21-4.42,8.03-3.94,12.35c-0.33,1.77-0.36,3.54-0.01,5.31
			c-0.03,1.82-0.65,4.36,2.21,4.14c2.17-0.17,3.26,0.93,4.59,1.99c1.47,1.17,2.81,2.52,4.35,3.6c1.2,0.84,2.38,1,2.9-0.94
			c0.66-2.45,1.57-4.85,1.28-7.46c0.49-2.22,0.47-4.43,0-6.65c-0.05-1.21,0.02-2.44-0.17-3.62c-1.17-7.28-1.73-7.67-8.63-6.38
			c-0.14,0.03-0.33-0.21-0.65-0.43c0.81-2.26,2.63-3.42,4.74-4.2c2.84-1.06,5.84-1.2,8.84-1.42
			C161.89,22.61,164.68,23.43,164.73,21.21z M149.43,37.74c0.07-0.34,0.83-0.69,1.32-0.77c0.8-0.13,0.77,0.55,0.79,1.03
			c-0.1,0.62-0.2,1.29-0.94,1.13C149.93,38.99,149.28,38.46,149.43,37.74z M146.74,41.13c1.22,0.91,2.61,1.6,3.97,2.31
			c1.35,0.7,1.62,1.86,1.13,3.07c-0.6,1.5-1.75,0.78-2.8,0.42c-2.37-0.82-4.77-1.55-4.58-5.68c-0.03,0.21-0.27-0.72,0.56-1.13
			C146,39.64,146.18,40.72,146.74,41.13z"/>
		<path class="st2" d="M208.53,32.63c-2.1-0.95-4.39-1.88-6.86-1.13c-0.01,0-0.01,0-0.02,0.01c0,0,0.01,0,0.01-0.01
			c-1.33,0.01-2.66,0.02-4,0.03c-0.67-0.45-2.22,0.26-1.88-1.56c0.22-1.13,0.62-1.81,1.86-1.84c0.77-0.02,1.64,0.05,2.29-0.27
			c1.44-0.71,4.33,0.95,4.28-1.51c-0.04-1.76-2.93-1.52-4.46-1.46c-4.04,0.17-4.58-2.21-3.19-5.35c2.33-5.26-1.45-12.68-6.97-13.98
			c0,0,0,0,0,0c-1-0.36-1.51-0.04-1.42,1.06c0,0,0,0,0,0c-0.37,1.02-0.44,2.35-1.15,3c-3.16,2.94-2.96,6.63-2.85,10.41
			c0.09,3.31,0.01,6.63,0.01,9.95c0,1.17-0.23,2.47,1.37,2.85c-0.22,0.6-0.45,1.21-0.67,1.82c-0.08,0.3-0.3,0.4-0.58,0.43h-0.01
			c0.2-0.14,0.39-0.29,0.59-0.43c-2.4,0.33-2.4,0.33-1.98,1.44c0,0,0,0,0,0.01c0.18,0.38,0.54,0.78,0.52,1.15
			c-0.1,1.33,2.07,2.98-0.17,3.9c-2.05,0.84-3.59,0.04-4.08-2.43c-0.14-0.71-0.26-2.9-2.17-1.28c0,0,0,0.01,0,0.01
			c0,0,0-0.01-0.01-0.01c-0.18,1.9-0.88,3.83,0.48,5.6c0,0,0,0,0,0c0,0,0,0,0,0.01c0.72,3.37,2.69,4.02,5.73,2.74
			c2.91-1.22,5.96-2.01,9.08-2.47c0,0,0,0,0,0c1.33,0,2.66,0,3.99,0.01c0,0,0,0,0,0c2.43,0.4,3.23,3.67,6.04,3.37c0,0,0,0,0,0
			c1,0.18,2.26,1.55,2.78-0.58c0,0,0,0,0,0c0,0,0,0,0,0c2.39-1.86,3.74-4.55,4.5-7.24C210.18,36.94,211.59,34.02,208.53,32.63z
			 M193.16,19.3c-0.14,0.77-0.6,1.09-1.37,0.99c-0.52-0.07-0.81-0.38-0.64-0.85c0.21-0.64,0.66-1.14,1.42-1.09
			C193.12,18.41,193.16,18.87,193.16,19.3z M190.87,11.68c1.29,0.11,1.39,1.5,1.78,2.39c0.05,1.11-0.6,1.15-1.3,0.93
			c-1.07-0.35-2.77-0.1-2.72-1.76C188.66,12.24,189.93,11.6,190.87,11.68z M192.87,23.07c0.65-0.17,0.85,0.61,0.66,1.16
			c-0.87,2.42-3.32,1.42-5.32,3.12C188.86,23.7,191.04,23.57,192.87,23.07z M185.69,32.83c0.05-0.06,0.11-0.12,0.17-0.17
			c-0.06,0.03-0.12,0.06-0.17,0.09c0.72-1.84,4.87-4.25,6.37-3.59c0.36,0.15,0.76,0.56,0.83,0.91c0.19,0.86-0.36,1.48-1.06,1.88
			C189.9,33.05,187.82,33.14,185.69,32.83z M193.73,38.4c-0.36,0.4-1.31,1.11-2.28,0.54c-1.37-0.82-1.22-1.85-0.49-2.98
			c0.67-0.25,0.79-1.65,1.94-0.93C193.79,36.01,194.87,37.09,193.73,38.4z M203.64,37.32c-0.44,1.3-0.92,2.59-1.38,3.89
			c-0.5,0.68-0.68,1.77-1.94,1.5c-2.08-0.11-3.5-0.87-3.29-3.27c0.6-2.05-0.48-3.67-1.37-5.33l0.15-0.14l-0.09-0.18
			c2.84-0.78,5.71-0.08,8.56-0.1C205.72,35.19,204.02,36.15,203.64,37.32z"/>
		<path class="st2" d="M241.38,75.09c-0.97-0.1-1.26-0.4-1.91-2.14l-3.08-8.12c-0.34-0.89-0.7-1.82-0.99-2.71
			c-0.04-0.14-0.2-0.18-0.34-0.18c-0.25,0.26-0.63,0.63-1.17,0.77c0.07,0.32-0.07,0.71-0.38,1.43l-2.3,5.46
			c-0.95,2.26-1.58,3.58-1.98,4.51c-0.32,0.73-0.81,0.95-1.35,0.99l-0.74,0.06c-0.14,0.1-0.09,0.42,0.05,0.51
			c0.61-0.02,1.42-0.06,2.16-0.06c1.06,0.02,1.76,0.02,2.34,0.06c0.2-0.08,0.2-0.4,0.05-0.51l-0.74-0.06
			c-0.54-0.04-0.65-0.16-0.65-0.4c0-0.22,0.16-0.77,0.5-1.68l0.79-2.12c0.16-0.42,0.29-0.49,0.86-0.49h3.4
			c0.68,0,0.77,0.06,0.92,0.51l0.99,2.75c0.18,0.49,0.29,0.85,0.29,1.07c0,0.2-0.32,0.32-0.79,0.36l-0.65,0.06
			c-0.16,0.1-0.13,0.42,0.05,0.51c0.65-0.02,1.51-0.06,2.59-0.06c1.01,0,1.8,0.02,2.72,0.06c0.11-0.08,0.16-0.4,0-0.51L241.38,75.09
			z M235.57,69.59h-2.77c-0.63,0-0.65-0.02-0.47-0.49l1.42-3.52c0.25-0.61,0.47-1.09,0.54-1.19h0.05c0.13,0.24,0.34,0.79,0.52,1.27
			l1.22,3.29C236.27,69.51,236.22,69.59,235.57,69.59z"/>
		<path class="st2" d="M247.75,62.74l0.56-0.04c0.13-0.08,0.09-0.44-0.05-0.51c-1.13,0.04-1.89,0.06-2.79,0.06
			c-0.95,0-1.71-0.02-2.84-0.06c-0.14,0.06-0.18,0.42-0.05,0.51l0.56,0.04c1.33,0.1,1.37,0.44,1.37,2.59v7.2
			c0,2.14-0.05,2.43-1.37,2.57l-0.56,0.06c-0.14,0.12-0.09,0.44,0.05,0.51c1.13-0.04,1.89-0.06,2.84-0.06c0.9,0,1.67,0.02,2.79,0.06
			c0.14-0.06,0.18-0.42,0.05-0.51l-0.56-0.06c-1.33-0.14-1.37-0.43-1.37-2.57v-7.2C246.37,63.18,246.42,62.84,247.75,62.74z"/>
		<path class="st2" d="M264.47,75.43c-0.61-0.04-1.17-0.26-1.55-0.57c-1.53-1.15-2.72-2.77-4.53-5.38
			c-0.11-0.16-0.22-0.36-0.11-0.48c1.13-0.4,2.81-1.46,2.81-3.38c0-1.41-0.79-2.32-1.87-2.83c-1.04-0.5-2.36-0.61-3.76-0.61
			c-2.21,0-3.76,0.06-5.02,0.16c-0.18,0.08-0.18,0.4-0.02,0.51l0.72,0.08c0.92,0.1,0.99,0.44,0.99,2.36v7.26
			c0,2.12-0.05,2.39-1.35,2.53l-0.56,0.06c-0.13,0.14-0.09,0.44,0.05,0.51c1.06-0.04,1.87-0.06,2.81-0.06c0.9,0,1.67,0.02,2.68,0.06
			c0.14-0.06,0.18-0.4,0.05-0.51l-0.47-0.06c-1.31-0.16-1.35-0.4-1.35-2.53v-2.55c0-0.42,0.04-0.44,1.06-0.44
			c0.9,0,1.26,0.2,1.6,0.65c0.7,0.91,1.62,2.3,2.21,3.05c1.6,2.04,2.75,2.55,4.66,2.55c0.43,0,0.79-0.04,0.99-0.1
			C264.61,75.64,264.59,75.47,264.47,75.43z M255.6,68.97c-1.15,0-1.49-0.04-1.55-0.1c-0.07-0.08-0.07-0.3-0.07-0.67v-4.73
			c0-0.57,0.07-0.65,1.46-0.65c2.5,0,3.6,1.52,3.6,3.11c0,1.37-0.52,2.08-1.13,2.51C257.27,68.88,256.41,68.97,255.6,68.97z"/>
		<path class="st2" d="M275.66,72.7c-0.45,1.03-1.04,1.76-1.49,2c-0.36,0.18-0.83,0.26-2.75,0.26c-1.78,0-2.21-0.24-2.45-0.46
			c-0.41-0.38-0.47-0.91-0.47-2.18v-7.03c0-2.12,0.04-2.45,1.37-2.55l0.54-0.04c0.13-0.08,0.09-0.44-0.05-0.51
			c-1.13,0.04-1.89,0.06-2.77,0.06c-0.9,0-1.67-0.02-2.93-0.06c-0.13,0.06-0.18,0.42-0.05,0.51l0.56,0.04
			c1.42,0.1,1.46,0.42,1.46,2.55v7.28c0,2.12-0.05,2.4-1.35,2.53l-0.68,0.06c-0.13,0.12-0.09,0.44,0.05,0.51
			c1.26-0.04,1.98-0.06,2.93-0.06h2.07c2.32,0,4.46,0.02,5.61,0.06c0.32-0.55,0.95-2.61,0.95-2.83
			C276.22,72.68,275.8,72.6,275.66,72.7z"/>
		<path class="st2" d="M282.33,62.74l0.56-0.04c0.13-0.08,0.09-0.44-0.05-0.51c-1.13,0.04-1.89,0.06-2.79,0.06
			c-0.95,0-1.71-0.02-2.84-0.06c-0.14,0.06-0.18,0.42-0.05,0.51l0.56,0.04c1.33,0.1,1.37,0.44,1.37,2.59v7.2
			c0,2.14-0.05,2.43-1.37,2.57l-0.56,0.06c-0.14,0.12-0.09,0.44,0.05,0.51c1.13-0.04,1.89-0.06,2.84-0.06c0.9,0,1.67,0.02,2.79,0.06
			c0.14-0.06,0.18-0.42,0.05-0.51l-0.56-0.06c-1.33-0.14-1.37-0.43-1.37-2.57v-7.2C280.95,63.18,281,62.84,282.33,62.74z"/>
		<path class="st2" d="M297.97,62.26c-0.75,0-1.42-0.02-2.33-0.06c-0.16,0.06-0.18,0.38-0.04,0.51l0.34,0.04
			c0.79,0.1,1.11,0.22,1.22,0.4c0.37,0.61,0.39,3.23,0.39,4.18v4.32c0,0.42,0,0.75-0.08,0.85h-0.04c-0.93-0.97-1.89-2.1-3.26-3.66
			l-1.91-2.2c-0.65-0.75-2.98-3.42-3.37-4.45c-0.26,0.04-0.59,0.06-0.91,0.06c-0.36,0-1.4,0-2.23-0.06
			c-0.16,0.08-0.16,0.38-0.04,0.51l0.34,0.04c0.47,0.06,0.95,0.2,1.22,0.49c0.41,0.47,0.43,0.89,0.43,1.46v5.84
			c0,0.97,0.02,3.44-0.26,4.16c-0.1,0.22-0.41,0.34-0.87,0.4l-0.53,0.06c-0.12,0.12-0.1,0.4,0.04,0.51
			c0.69-0.04,1.22-0.06,2.05-0.06c0.73,0,1.42,0.02,2.31,0.06c0.14-0.1,0.16-0.34,0.04-0.51l-0.61-0.06
			c-0.49-0.04-0.89-0.16-1.01-0.38c-0.34-0.61-0.35-3.23-0.35-4.18v-4.41c0-0.61,0.02-1.07,0.1-1.31h0.04
			c0.41,0.44,1.76,2.1,2.29,2.73l4.58,5.34c1.72,2,2.29,2.71,2.53,3.05c0.22,0,0.34-0.1,0.37-0.22c-0.06-0.53-0.06-2.93-0.06-3.54
			v-4.83c0-0.93-0.04-3.44,0.3-4.16c0.08-0.16,0.47-0.32,1.11-0.42l0.28-0.04c0.12-0.12,0.12-0.4-0.04-0.51
			C299.33,62.24,298.82,62.26,297.97,62.26z"/>
		<path class="st2" d="M313.82,72.7c-0.59,1.05-1.19,1.76-1.6,1.96c-0.5,0.22-1.15,0.3-2.88,0.3c-1.98,0-2.45-0.22-2.72-0.46
			c-0.36-0.34-0.43-1.03-0.43-2.1v-2.85c0-0.53,0.07-0.55,0.74-0.55h1.31c0.88,0,1.42,0.02,1.73,0.1c0.45,0.1,0.61,0.4,0.7,0.77
			l0.2,0.79c0.11,0.12,0.5,0.12,0.59-0.02c0-0.44-0.09-1.21-0.09-1.94c0-0.77,0.09-1.56,0.09-2.04c-0.09-0.14-0.47-0.14-0.59-0.02
			l-0.18,0.83c-0.11,0.5-0.27,0.63-0.54,0.71c-0.27,0.08-0.97,0.12-1.91,0.12h-1.31c-0.68,0-0.74,0-0.74-0.57v-4.04
			c0-0.77,0-0.81,0.68-0.81h1.62c0.99,0,1.71,0.02,2.18,0.12c1.17,0.26,1.37,0.97,1.71,1.92c0.11,0.12,0.47,0.08,0.56-0.04
			c-0.09-0.89-0.23-2.34-0.36-2.69c-0.27,0.06-1.6,0.06-3.04,0.06h-4.23c-0.92,0-1.69-0.02-2.66-0.06
			c-0.13,0.06-0.18,0.42-0.05,0.51l0.36,0.04c1.33,0.14,1.37,0.44,1.37,2.55v7.28c0,2.12-0.11,2.43-1.4,2.53l-0.74,0.06
			c-0.13,0.12-0.09,0.44,0.05,0.51c1.33-0.04,2.09-0.06,3.06-0.06h2.03c2,0,4.01,0.02,6.03,0.06c0.29-0.55,0.86-2.1,1.01-2.81
			C314.29,72.66,313.98,72.6,313.82,72.7z"/>
		<path class="st2" d="M322.03,68.3l-1.92-1.01c-0.89-0.47-2.04-1.31-2.04-2.49c0-0.93,0.5-2.24,2.85-2.24
			c2.3,0,2.95,1.31,3.26,2.28c0.12,0.12,0.5,0.06,0.6-0.06c0-0.85-0.22-1.98-0.43-2.47c-0.19,0-0.53-0.04-0.84-0.12
			c-0.62-0.14-1.49-0.26-2.23-0.26c-3.12,0-4.89,1.56-4.89,3.48c0,1.66,1.39,2.81,2.59,3.48l2.28,1.25
			c1.75,0.95,1.97,1.94,1.97,2.83c0,1.21-0.98,2.32-3,2.32c-2.78,0-3.77-1.98-4.13-3.01c-0.1-0.12-0.46-0.08-0.58,0.06
			c0.05,0.95,0.36,2.38,0.65,2.83c0.46,0.22,1.73,0.75,3.74,0.75c3.12,0,5.11-1.52,5.11-3.74C325.03,70.26,323.54,69.09,322.03,68.3
			z"/>
		<path class="st2" d="M137.8,68.86c0-3.56-2.37-6.93-7.08-6.93c-4.2,0-7.26,3.09-7.26,7.13c0,2.89,1.65,5.3,4.37,6.31
			c0.73,0.28,1.47,0.4,2,0.48c0.57,0.1,0.88,0.03,1.37,0.75c0.55,0.81,0.33,0.73,1.09,1.73c0.8,1.05,2.37,0.75,3.3,0.75
			c0.71,0,1.08-0.38,1.74-0.74c0.06-0.1,0.15-0.34,0.03-0.36c-0.29,0.12-0.63,0.2-0.84,0.2c-0.47,0-1.16,0.13-1.91-0.11
			c-1.01-0.42-1.02-0.57-1.68-1.73c-0.12-0.12-0.09-0.62-0.05-0.72C135.72,74.77,137.8,72.2,137.8,68.86z M130.99,75.29
			c-4.02,0-5.49-3.88-5.49-6.87c0-4.43,2.75-5.86,4.87-5.86c3.9,0,5.38,3.6,5.38,6.93C135.76,73.47,133.44,75.29,130.99,75.29z"/>
		<path class="st2" d="M144.26,62.74l0.51-0.04c0.12-0.08,0.08-0.44-0.04-0.51c-1.02,0.04-1.71,0.06-2.53,0.06
			c-0.86,0-1.55-0.02-2.57-0.06c-0.12,0.06-0.16,0.42-0.04,0.51l0.51,0.04c1.2,0.1,1.24,0.44,1.24,2.59v7.2
			c0,2.14-0.04,2.43-1.24,2.57l-0.51,0.06c-0.12,0.12-0.08,0.44,0.04,0.51c1.02-0.04,1.71-0.06,2.57-0.06
			c0.82,0,1.51,0.02,2.53,0.06c0.12-0.06,0.16-0.42,0.04-0.51l-0.51-0.06c-1.2-0.14-1.24-0.43-1.24-2.57v-7.2
			C143.02,63.18,143.06,62.84,144.26,62.74z"/>
		<path class="st2" d="M158.6,62.26c-0.73,0-1.37-0.02-2.25-0.06c-0.15,0.06-0.17,0.38-0.04,0.51l0.32,0.04
			c0.76,0.1,1.07,0.22,1.18,0.4c0.36,0.61,0.38,3.23,0.38,4.18v4.32c0,0.42,0,0.75-0.08,0.85h-0.04c-0.9-0.97-1.83-2.1-3.15-3.66
			l-1.85-2.2c-0.63-0.75-2.88-3.42-3.26-4.45c-0.25,0.04-0.57,0.06-0.88,0.06c-0.34,0-1.36,0-2.16-0.06
			c-0.15,0.08-0.15,0.38-0.04,0.51l0.32,0.04c0.46,0.06,0.92,0.2,1.18,0.49c0.4,0.47,0.42,0.89,0.42,1.46v5.84
			c0,0.97,0.02,3.44-0.25,4.16c-0.1,0.22-0.4,0.34-0.84,0.4l-0.52,0.06c-0.11,0.12-0.1,0.4,0.04,0.51c0.67-0.04,1.18-0.06,1.99-0.06
			c0.71,0,1.37,0.02,2.23,0.06c0.13-0.1,0.15-0.34,0.04-0.51l-0.59-0.06c-0.48-0.04-0.86-0.16-0.97-0.38
			c-0.32-0.61-0.34-3.23-0.34-4.18v-4.41c0-0.61,0.02-1.07,0.1-1.31h0.04c0.4,0.44,1.7,2.1,2.21,2.73l4.43,5.34
			c1.66,2,2.21,2.71,2.44,3.05c0.21,0,0.32-0.1,0.36-0.22c-0.06-0.53-0.06-2.93-0.06-3.54v-4.83c0-0.93-0.04-3.44,0.29-4.16
			c0.08-0.16,0.46-0.32,1.07-0.42l0.27-0.04c0.11-0.12,0.11-0.4-0.04-0.51C159.91,62.24,159.42,62.26,158.6,62.26z"/>
		<path class="st2" d="M173.83,70.22c-1.2,0-2.33-0.02-2.92-0.06c-0.14,0.06-0.16,0.42,0,0.5l0.9,0.1c1.26,0.14,1.33,0.26,1.33,1.96
			v0.81c0,0.65-0.1,1.01-0.2,1.15c-0.22,0.34-0.98,0.61-2.24,0.61c-4.1,0-6.12-3.05-6.12-6.93c0-3.03,1.73-5.82,5.69-5.82
			c2.08,0,3.61,0.69,4.18,2.87c0.12,0.12,0.49,0.1,0.55-0.06c-0.18-1.21-0.31-2.26-0.31-2.93c-0.24,0.04-0.88-0.1-1.26-0.18
			c-0.35-0.08-1.43-0.3-2.59-0.3c-3.08,0-5.1,0.95-6.47,2.36c-1.26,1.33-1.84,3.07-1.84,4.79c0,1.78,0.65,3.38,1.88,4.59
			c1.57,1.58,3.79,2.24,6.22,2.24c1.1,0,2.57-0.24,3.65-0.53c0.39-0.1,0.76-0.18,1-0.18c0.08-0.06,0.08-0.18,0.02-0.24
			c-0.37-0.14-0.49-0.63-0.49-1.43V72.4c0-1.03,0.02-1.6,0.88-1.7l0.33-0.04c0.14-0.12,0.12-0.42-0.02-0.5
			C175.32,70.2,174.63,70.22,173.83,70.22z"/>
		<path class="st2" d="M186.93,62.8c-1.23-0.49-2.57-0.61-4.16-0.61c-1.61,0-3.14,0.06-4.75,0.16c-0.19,0.08-0.17,0.4-0.02,0.51
			l0.42,0.06c0.79,0.12,0.89,0.55,0.89,1.96v7.68c0,2.12-0.04,2.36-1.13,2.53l-0.44,0.06c-0.11,0.12-0.08,0.44,0.04,0.51
			c0.89-0.04,1.57-0.06,2.36-0.06c0.66,0,1.87,0.16,3.08,0.16c1.46,0,3.01-0.26,4.24-0.97c2.16-1.25,3.31-3.46,3.31-6.02
			C190.77,66.1,189.48,63.79,186.93,62.8z M183.56,75.13c-1.19,0-1.91-0.2-2.33-0.83c-0.32-0.49-0.38-1.13-0.38-2.2v-7.46
			c0-0.91,0.04-1.41,0.19-1.54c0.15-0.12,0.76-0.28,1.87-0.28c4.96,0,5.96,3.76,5.96,5.98C188.88,72.56,187.23,75.13,183.56,75.13z"
			/>
		<path class="st2" d="M205.19,75.09c-0.88-0.1-1.14-0.4-1.73-2.14l-2.79-8.12c-0.31-0.89-0.63-1.82-0.9-2.71
			c-0.04-0.14-0.18-0.18-0.31-0.18c-0.22,0.26-0.57,0.63-1.06,0.77c0.06,0.32-0.06,0.71-0.35,1.43l-2.08,5.46
			c-0.86,2.26-1.43,3.58-1.79,4.51c-0.29,0.73-0.73,0.95-1.22,0.99l-0.67,0.06c-0.12,0.1-0.08,0.42,0.04,0.51
			c0.55-0.02,1.28-0.06,1.96-0.06c0.96,0.02,1.59,0.02,2.12,0.06c0.18-0.08,0.18-0.4,0.04-0.51l-0.67-0.06
			c-0.49-0.04-0.59-0.16-0.59-0.4c0-0.22,0.14-0.77,0.45-1.68l0.71-2.12c0.14-0.42,0.27-0.49,0.77-0.49h3.08
			c0.61,0,0.69,0.06,0.84,0.51l0.9,2.75c0.16,0.49,0.27,0.85,0.27,1.07c0,0.2-0.29,0.32-0.71,0.36l-0.59,0.06
			c-0.14,0.1-0.12,0.42,0.04,0.51c0.59-0.02,1.37-0.06,2.35-0.06c0.92,0,1.63,0.02,2.47,0.06c0.1-0.08,0.14-0.4,0-0.51L205.19,75.09
			z M199.93,69.59h-2.51c-0.57,0-0.59-0.02-0.43-0.49l1.28-3.52c0.22-0.61,0.43-1.09,0.49-1.19h0.04c0.12,0.24,0.31,0.79,0.47,1.27
			l1.1,3.29C200.56,69.51,200.52,69.59,199.93,69.59z"/>
		<path class="st2" d="M213.95,61.93c-3.87,0-6.68,3.09-6.68,7.13c0,3.64,2.51,6.85,6.68,6.85c3.62,0,6.51-2.97,6.51-7.05
			C220.46,65.31,218.29,61.93,213.95,61.93z M214.2,75.29c-3.7,0-5.05-3.88-5.05-6.87c0-4.43,2.53-5.86,4.48-5.86
			c3.58,0,4.95,3.6,4.95,6.93C218.59,73.47,216.45,75.29,214.2,75.29z"/>
	</g>
</g>
</svg>
