<?xml version="1.0" encoding="utf-8"?>
<!-- Generator: Adobe Illustrator 25.4.1, SVG Export Plug-In . SVG Version: 6.00 Build 0)  -->
<svg version="1.1" id="Layer_1" xmlns="http://www.w3.org/2000/svg" xmlns:xlink="http://www.w3.org/1999/xlink" x="0px" y="0px"
	 viewBox="0 0 295.72 80" style="enable-background:new 0 0 295.72 80;" xml:space="preserve">
<style type="text/css">
	.st0{fill:#0E327C;}
</style>
<g>
	<path class="st0" d="M159.97,25.31c0,0-2.9,2.06-1.59,2.81c1.31,0.75,4.31-0.56,7.59-1.41s10.87-2.15,22.3-2.15
		c11.43,0,24.45,0.94,23.61-1.5c-0.84-2.44-4.03-4.31-7.4-6C201.1,15.38,175.05,16.41,159.97,25.31z"/>
	<path class="st0" d="M295.34,46.76c0,0-6.46,4.87-10.4,5.81c-3.93,0.94-7.12,0.66-5.34-2.53s3.93-7.31,7.4-10.77
		s2.15-4.97,1.31-6.93c-0.84-1.97-1.41-4.59-4.31-2.06c0,0-4.97-3.11-9.74-1.93c-4.78,1.18-14.43,6.8-15.74,14.2
		c-1.31,7.4,7.96,8.24,10.96,5.81c0,0-2.9,4.22-7.12,5.81c-4.22,1.59-5.62,1.97-5.81,0.19c-0.19-1.78-0.04-5.13-4.8-3.88l0,0
		c0.79-0.84,1.24-1.37,1.24-1.37l-0.75-3.75c0,0-10.02,9.74-13.77,7.96c-3.75-1.78,1.12-7.96,3.19-10.4
		c2.06-2.44,6.56-6.18,7.31-8.15c0.75-1.97,1.41-6.09-0.56-6.65c-1.97-0.56-6.37,3.28-8.99,5.62s-13.86,13.4-17.61,15.36
		c-3.75,1.97-6.56,3.93-6.56,1.78c0-2.15,0.84-4.78,3.28-6.84c2.44-2.06,5.9-3.75,8.34-6.65c2.44-2.9,4.4-6.18,2.25-6.93
		c-2.15-0.75-9.84,0-13.3,5.15s-5.25,9.37-5.25,9.37s-10.12,8.81-13.3,7.49c-3.19-1.31-1.69-4.12-0.37-5.9
		c1.31-1.78,7.4-7.4,8.06-10.02c0.66-2.62-2.81-7.31-2.81-7.31s-7.31,3.93-13.58,9.46c-6.28,5.53-9.74,7.78-9.74,7.78
		s6.75-8.81,7.12-13.49c0.37-4.68-2.25-5.71-7.31-2.9c-5.06,2.81-16.21,13.58-18.74,16.02c-2.53,2.44-3.37,3.93-3.93,3.65
		c-0.56-0.28-1.41-1.22,0.66-3.65c2.06-2.44,8.99-9.84,9.27-11.52c0.28-1.69-1.22-3.75-5.62-2.44c-4.4,1.31-10.12,8.71-11.43,12.65
		l-18.27,15.93c0,0,11.71-17.71,13.12-20.05c1.41-2.34,4.22-4.78,2.25-10.49c0,0-0.84-2.06-4.03,0.94
		c-3.19,3-15.55,14.71-18.27,16.96c-2.72,2.25-6.84,4.4-7.49,3.09c-0.66-1.31-0.28-3.09,2.25-5.34c2.53-2.25,9.74-7.49,10.87-11.05
		c1.12-3.56,0.66-4.89-1.03-6.71c-1.69-1.82-5.43,1.84-7.21,3.15c-1.78,1.31-10.28,8.89-10.77,14.71c0,0-9.65,7.78-12.18,8.81
		c-2.53,1.03-4.59,1.59-6.46,0c-1.87-1.59-5.06-7.21-8.15-7.21c0,0,1.97-3.84,7.03-6.46c5.06-2.62,6.37-3.56,8.15-2.53
		c1.78,1.03,2.06,1.69,3.93,0.47c1.87-1.22,3.84-1.87,4.03-3c0.19-1.12,0.47-4.12-2.25-6c-2.72-1.87-7.59,1.03-10.77,3.37
		c-3.19,2.34-15.83,11.71-17.8,13.58c-1.97,1.87-2.81,2.62-2.81,2.62l-0.09-2.34c0,0,5.25-5.06,8.34-7.59
		c3.09-2.53,6.93-5.9,6.84-7.68c-0.09-1.78-2.06-2.53-6.56-1.41c-4.5,1.12-7.96,3.28-10.4,8.24s-3,6.09-4.12,6.75
		c-1.12,0.66-10.87,8.9-12.46,6.65c-1.59-2.25,7.03-14.8,8.71-17.33c1.69-2.53,8.9-11.52,0-17.52c0,0-11.9,10.68-19.39,14.71
		s-15.64,4.03-15.74,0.19C27.97,28.4,30.6,22.03,39.31,16.6c8.71-5.43,20.98-4.4,20.98-4.4s-1.59,3.75,0.47,3.93
		c2.06,0.19,6.93-1.87,11.15-7.03c4.22-5.15-13.3-12.55-30.63-3.56S18.04,24.65,19.82,32.52c1.78,7.87,7.68,9.84,11.99,9.27
		c4.31-0.56,16.3-7.4,16.3-7.4s-9.93,9.37-18.83,12.93c-8.9,3.56-8.24-0.37-12.83-0.66c-4.59-0.28-13.49,7.31-13.49,7.31
		s-4.59,3.75-2.34,6.46c2.25,2.72,6.46,3.84,14.24,1.12c7.78-2.72,29.32-16.21,36.25-24.26c0,0-11.24,16.02-7.49,22.76
		c3.75,6.75,17.99-2.15,23.14-7.4c0,0-0.19,8.06,4.68,8.34c4.87,0.28-0.09-3.65,7.03-8.62c0,0,5.43,10.74,11.05,10.74
		s10.68-4.09,20.05-12.15c0,0,0.75,4.59,3.19,6.65c2.44,2.06,3.19,2.44,4.87,1.59s13.12-9.93,13.12-9.93s-10.68,18.55-11.99,20.7
		s-1.97,4.03-1.31,6.09c0.66,2.06,1.41,4.78,3.09,3.65c1.69-1.12,11.05-11.9,12.37-13.3c1.31-1.41,14.92-16.49,14.92-16.49
		s-0.03,10.87,4.38,10.87c4.4,0,8.06-6.65,9.46-8.06c1.41-1.41,10.59-11.62,11.52-11.62c0.94,0,1.12,0.56,0,2.44
		s-9.37,13.12-6.18,15.74c3.19,2.62,4.5,2.23,8.15-0.66c3.65-2.9,16.58-15.07,16.58-15.07s-8.15,11.15-5.71,16.3
		c2.44,5.15,9.18,1.22,11.24-0.28c2.06-1.5,11.9-8.52,11.9-8.52s-0.56,9.37,5.9,9.37c6.46,0,14.71-10.3,14.71-10.3
		s-6.09,13.21,2.44,13.21c5.51,0,12.59-5.95,16.9-10.16c-1.23,3.51,0.53,9.03,5.49,9.03c6.84,0,16.58-9.65,16.58-9.65
		s-5.25,10.59,4.03,10.59c0.56-0.19,3.01,0.75,20.52-12.37L295.34,46.76z M278.48,38.14c-0.94,2.25-6.65,9.18-10.77,7.47
		s0.37-7.47,0.37-7.47c1.78-3.23,6.37-5.43,8.71-5.43C279.13,32.71,279.41,35.89,278.48,38.14z"/>
	<path class="st0" d="M143.05,16.63c0.12-0.31,0.78-6.78,0.78-6.78l1.41,6.54c0,0,7.09,1.11,6.99,1.14
		c-0.09,0.03-6.99,1.19-6.99,1.19l-0.87,7.24l-1.09-7.12c0,0,1.03-1.22,0.97-1.31C144.17,17.44,143.05,16.63,143.05,16.63z"/>
	<path class="st0" d="M139.77,21.75c0.12-0.16,3.4-3.84,3.4-3.84l-1-1.34l-0.97,1l1-0.31l0.34,0.5L139.77,21.75z"/>
	<polygon class="st0" points="139.11,21.47 135.4,17.75 136.8,16.78 136.43,17.75 	"/>
	<path class="st0" d="M137.11,16.56l0.1-0.06l0.49-0.31c0,0,2.19-0.12,2.06,0c-0.12,0.12-2.51,1.28-2.51,1.28l0.95-0.91H137.11z"/>
	<path class="st0" d="M140.05,16.39l0.56,0.41l-1.06,0.67l-1.11,0.19l-0.92,0.69l1.72,2.15l-0.66-2.05h0.87l0.06,3.02l0.62-1.41
		c0,0,0.06-1.69,0.16-1.66c0.09,0.03,0.72,0.06,0.72,0.06v0.97l0.62-1.72l-1.22-0.12l0.75-0.66l0.47-0.55l-0.41-0.26h-1.06
		L140.05,16.39z"/>
	<path class="st0" d="M41.53,68.43c0,0,6.81,1.66,6.9,1.53c0.09-0.12,3.22-6.06,3.22-6.06l-1.28,6.65c0,0,6.46,3.53,6,3.5
		c-0.47-0.03-6.5-1.31-6.5-1.31s-3.47,6.09-3.4,5.9s0.91-5.15,0.91-5.15l1.59-1.62l-2.18-1.5l-1.12,0.37l1.25,1.31
		c0,0,0.56-0.09,0.56-0.22c0-0.12-0.94-0.91-0.94-0.91l0.37-0.06l1.44,1l-3.75,4.09l-0.12-4.03l1,1.97l0.91-1.78l-1.59-0.22
		l0.78-0.62l-1-0.63l-0.97,0.63l0.69,0.56l-1.31,0.19l0.84,1.97l-1.62-1.28l2,2.84l-3.93-3.43l1.37-0.84l0.06,0.53l1.56-0.75
		c0,0-0.34-0.28-0.44-0.25s-0.66,0.16-0.66,0.16l0.84-0.5l1.5-0.09L41.53,68.43z"/>
	<path class="st0" d="M252.62,68.55c0,0-6.99,0.54-7.06,0.4c-0.07-0.14-2.2-6.5-2.2-6.5l0.19,6.77c0,0-6.95,2.44-6.48,2.48
		c0.47,0.04,6.62-0.25,6.62-0.25s2.44,6.57,2.41,6.37s-0.06-5.23-0.06-5.23l-1.31-1.86l2.4-1.13l1.05,0.55l-1.44,1.09
		c0,0-0.54-0.18-0.52-0.31c0.02-0.12,1.07-0.74,1.07-0.74l-0.36-0.12l-1.58,0.75l3.04,4.64l0.77-3.96l-1.3,1.78l-0.61-1.9l1.61,0.04
		l-0.67-0.74l1.09-0.46l0.85,0.77l-0.77,0.44l1.26,0.4l-1.15,1.81l1.81-1l-2.43,2.48l4.44-2.76l-1.22-1.05l-0.15,0.51l-1.42-0.99
		c0,0,0.38-0.22,0.47-0.18s0.62,0.26,0.62,0.26l-0.75-0.63l-1.46-0.33L252.62,68.55z"/>
	<path class="st0" d="M104.44,8c-0.56,0.47-1.1,0.81-1.61,1c-0.52,0.2-1.07,0.29-1.66,0.29c-0.98,0-1.73-0.24-2.25-0.72
		s-0.79-1.09-0.79-1.83c0-0.44,0.1-0.83,0.3-1.19c0.2-0.36,0.46-0.65,0.78-0.87c0.32-0.22,0.68-0.38,1.08-0.49
		c0.3-0.08,0.74-0.15,1.34-0.23c1.22-0.15,2.11-0.32,2.69-0.52c0.01-0.21,0.01-0.34,0.01-0.39c0-0.61-0.14-1.05-0.43-1.3
		c-0.39-0.34-0.96-0.51-1.72-0.51c-0.71,0-1.23,0.12-1.57,0.37s-0.59,0.69-0.75,1.32l-1.47-0.2c0.13-0.63,0.35-1.14,0.66-1.53
		s0.75-0.69,1.33-0.9S101.63,0,102.39,0c0.76,0,1.38,0.09,1.85,0.27c0.47,0.18,0.82,0.4,1.05,0.67c0.22,0.27,0.38,0.61,0.47,1.03
		c0.05,0.26,0.08,0.72,0.08,1.39v2.01c0,1.4,0.03,2.29,0.1,2.66c0.06,0.37,0.19,0.73,0.38,1.07h-1.57
		C104.58,8.78,104.48,8.42,104.44,8z M104.31,4.63c-0.55,0.22-1.37,0.41-2.46,0.57c-0.62,0.09-1.06,0.19-1.31,0.3
		c-0.26,0.11-0.45,0.27-0.59,0.49c-0.14,0.21-0.21,0.45-0.21,0.72c0,0.4,0.15,0.74,0.46,1c0.3,0.27,0.75,0.4,1.34,0.4
		c0.58,0,1.1-0.13,1.55-0.38c0.45-0.25,0.78-0.6,1-1.04c0.16-0.34,0.24-0.84,0.24-1.51V4.63z"/>
	<path class="st0" d="M143.36,8c-0.56,0.47-1.1,0.81-1.61,1c-0.52,0.2-1.07,0.29-1.66,0.29c-0.98,0-1.73-0.24-2.25-0.72
		c-0.52-0.48-0.79-1.09-0.79-1.83c0-0.44,0.1-0.83,0.3-1.19c0.2-0.36,0.46-0.65,0.78-0.87c0.32-0.22,0.68-0.38,1.08-0.49
		c0.3-0.08,0.74-0.15,1.34-0.23c1.22-0.15,2.11-0.32,2.69-0.52c0.01-0.21,0.01-0.34,0.01-0.39c0-0.61-0.14-1.05-0.43-1.3
		c-0.39-0.34-0.96-0.51-1.72-0.51c-0.71,0-1.23,0.12-1.57,0.37s-0.59,0.69-0.75,1.32l-1.47-0.2c0.13-0.63,0.35-1.14,0.66-1.53
		s0.75-0.69,1.33-0.9S140.55,0,141.32,0c0.76,0,1.38,0.09,1.85,0.27c0.47,0.18,0.82,0.4,1.05,0.67c0.22,0.27,0.38,0.61,0.47,1.03
		c0.05,0.26,0.08,0.72,0.08,1.39v2.01c0,1.4,0.03,2.29,0.1,2.66c0.06,0.37,0.19,0.73,0.38,1.07h-1.57
		C143.51,8.78,143.41,8.42,143.36,8z M143.24,4.63c-0.55,0.22-1.37,0.41-2.46,0.57c-0.62,0.09-1.06,0.19-1.31,0.3
		c-0.26,0.11-0.45,0.27-0.59,0.49c-0.14,0.21-0.21,0.45-0.21,0.72c0,0.4,0.15,0.74,0.46,1c0.3,0.27,0.75,0.4,1.34,0.4
		c0.58,0,1.1-0.13,1.55-0.38s0.78-0.6,1-1.04c0.16-0.34,0.24-0.84,0.24-1.51V4.63z"/>
	<path class="st0" d="M209.59,8c-0.56,0.47-1.1,0.81-1.61,1c-0.52,0.2-1.07,0.29-1.66,0.29c-0.98,0-1.73-0.24-2.25-0.72
		c-0.52-0.48-0.79-1.09-0.79-1.83c0-0.44,0.1-0.83,0.3-1.19c0.2-0.36,0.46-0.65,0.78-0.87c0.32-0.22,0.68-0.38,1.08-0.49
		c0.3-0.08,0.74-0.15,1.34-0.23c1.22-0.15,2.11-0.32,2.69-0.52c0.01-0.21,0.01-0.34,0.01-0.39c0-0.61-0.14-1.05-0.43-1.3
		c-0.39-0.34-0.96-0.51-1.72-0.51c-0.71,0-1.23,0.12-1.57,0.37s-0.59,0.69-0.75,1.32l-1.47-0.2c0.13-0.63,0.35-1.14,0.66-1.53
		s0.75-0.69,1.33-0.9S206.79,0,207.55,0c0.76,0,1.38,0.09,1.85,0.27c0.47,0.18,0.82,0.4,1.05,0.67c0.22,0.27,0.38,0.61,0.47,1.03
		c0.05,0.26,0.08,0.72,0.08,1.39v2.01c0,1.4,0.03,2.29,0.1,2.66c0.06,0.37,0.19,0.73,0.38,1.07h-1.57
		C209.74,8.78,209.64,8.42,209.59,8z M209.47,4.63c-0.55,0.22-1.37,0.41-2.46,0.57c-0.62,0.09-1.06,0.19-1.31,0.3
		s-0.45,0.27-0.59,0.49c-0.14,0.21-0.21,0.45-0.21,0.72c0,0.4,0.15,0.74,0.46,1c0.3,0.27,0.75,0.4,1.34,0.4
		c0.58,0,1.1-0.13,1.55-0.38c0.45-0.25,0.78-0.6,1-1.04c0.16-0.34,0.24-0.84,0.24-1.51V4.63z"/>
	<path class="st0" d="M112.3,9.14V0.25h3.33c0.68,0,1.22,0.09,1.63,0.27s0.73,0.46,0.96,0.83c0.23,0.37,0.35,0.77,0.35,1.17
		c0,0.38-0.1,0.74-0.31,1.07c-0.21,0.34-0.52,0.61-0.93,0.81c0.54,0.16,0.95,0.43,1.24,0.81c0.29,0.38,0.43,0.83,0.43,1.35
		c0,0.42-0.09,0.8-0.26,1.16c-0.18,0.36-0.39,0.63-0.65,0.83c-0.26,0.19-0.58,0.34-0.97,0.44s-0.87,0.15-1.43,0.15H112.3z
		 M113.48,3.99h1.92c0.52,0,0.9-0.03,1.12-0.1c0.3-0.09,0.52-0.24,0.68-0.44c0.15-0.21,0.23-0.46,0.23-0.78
		c0-0.3-0.07-0.55-0.21-0.78s-0.34-0.38-0.61-0.46c-0.26-0.08-0.71-0.12-1.35-0.12h-1.78V3.99z M113.48,8.09h2.21
		c0.38,0,0.65-0.01,0.8-0.04c0.27-0.05,0.5-0.13,0.68-0.24c0.18-0.11,0.33-0.28,0.45-0.49c0.12-0.22,0.18-0.47,0.18-0.75
		c0-0.33-0.08-0.62-0.25-0.86c-0.17-0.24-0.41-0.42-0.71-0.52c-0.3-0.1-0.73-0.15-1.3-0.15h-2.06V8.09z"/>
	<path class="st0" d="M125.98,0.25v6.99l4.67-6.99h1.21v8.89h-1.13V2.16l-4.67,6.98h-1.21V0.25H125.98z"/>
	<path class="st0" d="M231.18,0.25v6.99l4.67-6.99h1.21v8.89h-1.13V2.16l-4.67,6.98h-1.21V0.25H231.18z"/>
	<path class="st0" d="M151.1,9.14V0.25h1.18v4.41l4.41-4.41h1.59l-3.73,3.6l3.89,5.29h-1.55l-3.17-4.5l-1.46,1.42v3.08H151.1z"/>
	<path class="st0" d="M161.75,4.81c0-1.48,0.38-2.63,1.13-3.47c0.75-0.83,1.73-1.25,2.92-1.25c0.78,0,1.48,0.2,2.11,0.59
		s1.11,0.94,1.43,1.64s0.49,1.5,0.49,2.39c0,0.9-0.17,1.71-0.52,2.42c-0.35,0.71-0.84,1.25-1.47,1.62
		c-0.63,0.37-1.32,0.55-2.05,0.55c-0.8,0-1.51-0.2-2.14-0.61c-0.63-0.4-1.1-0.96-1.43-1.66S161.75,5.59,161.75,4.81z M162.9,4.83
		c0,1.07,0.27,1.92,0.82,2.53c0.55,0.62,1.24,0.92,2.06,0.92c0.84,0,1.54-0.31,2.08-0.93c0.54-0.62,0.82-1.51,0.82-2.65
		c0-0.72-0.12-1.36-0.35-1.89s-0.57-0.96-1.02-1.26c-0.45-0.3-0.95-0.45-1.51-0.45c-0.79,0-1.47,0.29-2.05,0.86
		S162.9,3.49,162.9,4.83z"/>
	<path class="st0" d="M175.54,9.14V0.25h1.91l2.27,5.07c0.21,0.59,0.36,1.02,0.46,1.32c0.11-0.32,0.28-0.8,0.51-1.42l2.3-4.96h1.71
		v8.89h-1.22V1.7l-2.79,6.22h-1.15l-2.78-6.34v7.57H175.54z"/>
	<path class="st0" d="M217,9.14V0.25h1.27V3.9h4.98V0.25h1.27v8.89h-1.27V4.95h-4.98v4.19H217z"/>
	<path class="st0" d="M248.98,9.14V5.2h-1.36c-0.3,0-0.52,0.01-0.65,0.04c-0.18,0.04-0.36,0.12-0.54,0.24s-0.37,0.31-0.6,0.59
		c-0.22,0.28-0.51,0.69-0.85,1.22l-1.18,1.85h-1.48l1.55-2.42c0.31-0.47,0.63-0.87,0.98-1.18c0.16-0.15,0.4-0.29,0.71-0.44
		c-0.85-0.12-1.48-0.39-1.89-0.82c-0.41-0.43-0.61-0.96-0.61-1.59c0-0.49,0.12-0.94,0.37-1.34s0.58-0.69,0.99-0.85
		c0.41-0.16,1.01-0.24,1.81-0.24h3.94v8.89H248.98z M248.98,1.24h-2.81c-0.66,0-1.14,0.14-1.45,0.41c-0.31,0.27-0.46,0.62-0.46,1.04
		c0,0.29,0.08,0.55,0.24,0.8s0.39,0.42,0.69,0.53c0.3,0.11,0.72,0.17,1.26,0.17h2.53V1.24z"/>
	<rect x="183.48" y="0.25" class="st0" width="1.22" height="8.89"/>
	<rect x="190.91" y="0.25" class="st0" width="1.22" height="8.89"/>
	
		<rect x="194" y="-2.84" transform="matrix(-1.836970e-16 1 -1 -1.836970e-16 195.4817 -193.7483)" class="st0" width="1.22" height="7.41"/>
	<rect x="197.1" y="0.25" class="st0" width="1.22" height="8.89"/>
</g>
</svg>
