<?xml version="1.0" encoding="utf-8"?>
<!-- Generator: Adobe Illustrator 25.4.1, SVG Export Plug-In . SVG Version: 6.00 Build 0)  -->
<svg version="1.1" xmlns="http://www.w3.org/2000/svg" xmlns:xlink="http://www.w3.org/1999/xlink" x="0px" y="0px"
	 viewBox="0 0 88.6 80" style="enable-background:new 0 0 88.6 80;" xml:space="preserve">
<style type="text/css">
	.st0{fill:#B49968;}
	.st1{fill:#050505;}
	.st2{fill:#209763;}
	.st3{fill:#080707;}
	.st4{fill:#E90929;}
	.st5{fill:#2B2A29;}
</style>
<g id="Layer_1">
</g>
<g id="Layer_2">
	<path class="st0" d="M15.4,0c0.8,0.7,1.5,1.3,2.2,1.9c0.2,0.2,0.4,0.3,0.6,0c0.7-0.6,1.3-1.2,2-1.8c0.2,0.1,0.1,0.2,0.1,0.3
		c0,0.8-0.1,1.5-0.1,2.3c0,0.6,0,0.6,0.5,0.7c0.8,0.1,1.5,0.2,2.3,0.4c0.1,0,0.2,0.1,0.4,0.1c-0.8,0.6-1.5,1.1-2.3,1.6
		c-0.3,0.2-0.3,0.3-0.1,0.6c0.5,0.8,0.9,1.6,1.4,2.5c-0.5-0.1-1-0.3-1.5-0.4c-0.4-0.1-0.8-0.2-1.2-0.4c-0.4-0.1-0.5,0-0.6,0.3
		c-0.3,0.8-0.7,1.7-1.1,2.6c-0.3-0.8-0.6-1.4-0.9-2c-0.4-1-0.4-1-1.4-0.7c-0.7,0.2-1.3,0.4-2,0.6c0,0-0.1,0-0.1,0
		c0-0.2,0.1-0.3,0.2-0.4c0.4-0.7,0.7-1.4,1.2-2.1C15,5.8,15,5.7,14.7,5.6c-0.6-0.4-1.3-0.9-1.9-1.4c-0.1-0.1-0.3-0.2-0.5-0.4
		c1-0.2,1.8-0.3,2.7-0.5c0.4-0.1,0.6-0.2,0.5-0.6C15.4,1.9,15.4,1,15.4,0z"/>
	<path class="st0" d="M88.6,21.4c-0.2-0.5-0.3-1-0.5-1.5c-0.1-0.2-0.3-0.4-0.5-0.3c-0.7,0.2-1.4,0.3-2.1,0.6c-0.1,0-0.3,0-0.4,0.1
		c0,0,0,0-0.1,0c-0.5,0.2-0.6-0.1-0.7-0.5c-0.1-0.3-0.1-0.5-0.3-0.7c0,0,0,0.1,0,0.1c0,0,0-0.1,0-0.1c-0.1-0.4-0.3-0.7-0.4-1.1
		c-0.2-0.7-0.1-0.9,0.6-1c0.5-0.1,0.6-0.3,0.5-0.8c-0.1-0.4-0.3-0.9-0.4-1.3c-1.4-4.8-2.9-9.6-4.3-14.4c-0.1-0.4-0.2-0.4-0.5-0.2
		c-1.9,1.3-3.8,2.5-5.7,3.7c-4.9,3.3-9.9,6.5-15,9.5c-3.1,1.8-6.1,3.8-9,5.9c-0.1,0.1-0.2,0.1-0.3,0.3c-0.1,0.1-0.2,0.2-0.3,0.3
		c0,0-0.1,0.1-0.1,0.1c-0.1,0.1-0.2,0.2-0.4,0.3c-0.3,0.2-0.7,0.3-1,0.2c-0.1-0.1-0.2-0.1-0.2-0.1c-0.1,0-0.1,0-0.2,0H47
		c0,0,0,0,0,0c0,0,0,0,0,0c-0.2-0.2-0.6-0.2-0.9-0.3c-0.2-0.2-0.5-0.1-0.7-0.1c0,0,0,0,0,0c-0.4,0-0.8-0.1-1.1-0.1
		c-0.1,0-0.2,0-0.3,0c-0.2-0.1-0.4-0.1-0.6-0.1c-0.5-0.1-1-0.3-1.5-0.4c-0.2-0.1-0.3-0.3-0.5-0.3c-0.4-0.3-0.8-0.6-1.2-0.9
		c-0.4-0.3-0.7-0.7-1-1.1c-0.5-0.6-1.2-0.8-1.9-0.8c-0.3,0-0.4,0.1-0.5,0.4c-0.1,0.7-0.2,1.4-0.5,2.1c-0.1,0.5,0,1,0,1.5
		c0,0.1,0,0.3,0,0.4c0,0.1,0.1,0.2,0.1,0.2c0,0.1,0,0.1,0,0.2c0,0,0,0,0,0c0,0.2,0,0.4,0,0.6c0,6.9,0,13.9,0,20.8
		c-0.2,0.2-0.1,0.4-0.1,0.6c0,0.1,0,0.2,0.1,0.3c0,0.7,0,1.4,0,2.2c0,6.4,0,12.8,0,19.2c-0.2,0.2-0.1,0.4-0.1,0.6
		c0,0.1,0,0.2,0.1,0.3c0,2.4,0,4.7,0,7.1c0,0,0,0,0,0.1c-0.1,0.1-0.2,0.3-0.1,0.5c0,0,0,0.1,0.1,0.1c0,0,0,0,0,0c0,0,0,0,0,0
		c-0.3,0.2-0.2,0.5-0.2,0.7c0,0,0.1,0.1,0.1,0.1c0,0.1,0,0.2-0.1,0.3c-0.1,0.1-0.1,0.1-0.2,0.2c-0.1,0.1-0.1,0.2-0.2,0.3
		c-0.6,1.6-1.8,2.6-3.4,3.1c-1,0.3-2.1,0.3-3.2,0.3c-0.2,0-0.5-0.1-0.7,0.1c0.3,0.1,0.6,0.1,0.9,0.1c0.8,0,1.5,0.1,2.3,0.4
		c0.6,0.3,1.3,0.5,2,0.7c0.6,0.2,1.2,0.4,1.7,0c1.9-1.5,4-2.8,5.9-4.3c1.4-1.1,2.5-2.6,3.2-4.2c0.5-1.1,1.1-2.2,1.8-3.2
		c0.4-0.5,0.8-0.9,1.4-1c0.9-0.2,1.8-0.3,2.7-0.5c2.6-0.5,5.2-1,7.8-1.5c0.9-0.2,1.5-0.7,1.8-1.6c0.5-1.3,1-2.6,1.5-3.9
		c0.3-0.8,0.8-1.3,1.5-1.7c1.3-0.7,2.6-1.5,3.9-2.3c0.3-0.2,0.3-0.3,0.1-0.5c-0.8-1-1.6-2-2.4-3c-3-3.7-6.1-7.2-9.2-10.7
		c-1.4-1.5-2.7-3-4.1-4.5c-0.2-0.2-0.2-0.3,0.1-0.4c2.3-0.7,4.5-1.4,6.8-2.1c3.4-1,6.8-2,10.2-3.1c4.1-1.2,8.1-2.5,12.2-3.4
		c1.5-0.3,2.9-0.9,4-1.9c1.3-1.2,2.6-2.5,3.8-3.7C88.5,21.8,88.6,21.6,88.6,21.4z M49.7,19.8C49.7,19.8,49.7,19.8,49.7,19.8
		C49.7,19.8,49.7,19.8,49.7,19.8C49.7,19.8,49.7,19.8,49.7,19.8z"/>
	<path class="st1" d="M19.3,75.1c-3.9,0-7.8,0-11.8,0c0,0,0,0,0,0C11.5,75.1,15.4,75.1,19.3,75.1C19.3,75.1,19.3,75.1,19.3,75.1z"/>
	<path class="st2" d="M30.9,23.5c-0.8-1.5-2-2.7-2.8-4.3c0,0.2,0,0.3,0,0.5c0,16.3,0,32.6,0,48.9c0,0.2,0,0.4,0,0.6
		c-0.1,1.5-0.6,2.9-1.5,4c-1.1,1.3-2.4,2.1-4,2.6c-0.4,0.1-0.8,0.1-1.2,0.2c-0.1,0-0.3,0-0.4,0c0.3,0.1,0.5,0.2,0.8,0.1
		c1.1,0.1,2.3,0,3.4-0.2c1.6-0.3,3-0.9,4.1-2.1c1.3-1.4,1.7-3.2,1.7-5.1c0-6.2,0-12.5,0-18.7c0-8.6,0-17.2,0-25.8
		C31,23.9,31,23.7,30.9,23.5z"/>
	<path class="st3" d="M26.9,64.6c0-0.2,0-0.4,0-0.6c0-16.5,0-32.9,0-49.4c0-0.4-0.1-0.6-0.5-0.6c-4.7,0-9.3,0-14,0c-1.5,0-3,0-4.5,0
		c-0.4,0-0.5,0.1-0.5,0.5c0,0.4,0,0.9,0,1.3c0,1.1,0,2.2,0,3.3c0,0.2-0.1,0.4-0.1,0.6c0,0.1,0,0.1,0,0.2c0,0,0,0.1,0.1,0.1
		c0,0,0,0.1,0,0.1c0,0,0,0,0,0c0,0-0.1,0.1-0.1,0.1c0,0.1,0,0.1,0,0.2c0,0.2,0,0.4,0.1,0.6c0,0-0.1,0.1-0.1,0.1c0,0.1,0,0.1,0,0.2
		c0,0.6,0,0.6,0.6,0.6c1.7,0,3.5,0,5.2-0.1c1.6,0,3.2,0,4.9,0c0.5,0,0.5,0,0.5,0.5c0,14.6,0,29.1,0,43.7c0,0.3,0,0.5-0.1,0.8
		c-0.3,0.5-0.8,0.5-1.2,0.5c-2.1,0-4.2,0-6.2,0c-0.5,0-1.1,0-1.6,0c-0.6,0-0.8-0.3-0.9-0.9c0-0.3,0-0.6-0.1-0.9c0.1-0.3,0.1-0.7,0-1
		c0.1-0.2,0.1-0.5,0-0.7h0l0,0c0.1-0.1,0.1-0.3,0.1-0.5c0-2.9,0-5.7,0-8.6c0-0.3-0.1-0.4-0.4-0.4c-2.5,0-5,0-7.5,0
		C0.1,54.6,0,54.7,0,55c0,3.9,0,7.9,0,11.8c0,0.3,0,0.6,0.1,0.9c0,0.4,0.1,0.8,0.1,1.2c0.7,4,3.5,6.3,7.4,6.4c3.7,0.1,7.4,0,11.2,0
		c0.8,0,1.7-0.2,2.5-0.4c3-0.9,4.9-3.2,5.3-6c0,0,0,0,0,0c0.1-0.4,0.1-0.7,0.2-1.1C26.9,66.8,26.8,65.7,26.9,64.6z"/>
	<path class="st4" d="M36.3,15.3c-0.3-1.5-1.1-2.5-2.7-2.9c-1-0.2-2-0.2-3,0c-1.5,0.4-2.5,1.6-2.7,3.1c-0.2,1.6,0.3,2.9,1,4.3
		c0.4,0.7,0.8,1.3,1.3,1.9c0.8,1.1,1.6,2.3,1.9,3.7c0.2-0.7,0.6-1.4,0.9-2c0.7-1.4,1.8-2.6,2.6-4C36.3,18.1,36.6,16.7,36.3,15.3z
		 M33.4,16.6c0.2,0.3,0.3,0.6,0.5,0.9c-0.2-0.1-0.4-0.1-0.6-0.2c-0.2,0-0.3-0.1-0.5-0.1c-0.1-0.1-0.2,0-0.2,0.1
		c-0.1,0.3-0.3,0.6-0.4,1c-0.1-0.3-0.2-0.5-0.3-0.8c-0.2-0.4-0.2-0.4-0.5-0.3c-0.2,0.1-0.5,0.1-0.7,0.2c0,0,0,0,0,0
		c0-0.1,0-0.1,0.1-0.2c0.1-0.3,0.3-0.5,0.4-0.8c0.1-0.1,0.1-0.1,0-0.2c-0.2-0.2-0.5-0.3-0.7-0.5c-0.1,0-0.1-0.1-0.2-0.1
		c0.4-0.1,0.7-0.1,1-0.2c0.1,0,0.2-0.1,0.2-0.2c0-0.3,0-0.7-0.1-1.1c0.3,0.3,0.6,0.5,0.8,0.7c0.1,0.1,0.1,0.1,0.2,0
		c0.3-0.2,0.5-0.5,0.8-0.7c0.1,0,0,0.1,0,0.1c0,0.3,0,0.6-0.1,0.9c0,0.2,0,0.2,0.2,0.3c0.3,0,0.6,0.1,0.9,0.1c0,0,0.1,0,0.1,0
		c-0.3,0.2-0.6,0.4-0.9,0.6C33.4,16.4,33.4,16.5,33.4,16.6z"/>
	<path class="st3" d="M36.4,72.5c0-2,0-4,0-5.9c0-0.8,0-1.6,0-2.4c0-9.5,0-19,0-28.4c0-1.7,0-3.5,0-5.2c0-1.9,0-3.8,0-5.6
		c0-1.2,0-2.4,0-3.6c0,0,0-0.1,0-0.1c0,0,0,0,0,0c0-0.1,0-0.3-0.1-0.4c0-0.1,0-0.2,0-0.4c0-0.5,0.1-1-0.1-1.5
		c-0.1,0.2-0.2,0.4-0.3,0.7c-0.1,0.1-0.2,0.2-0.2,0.3c-0.1,0.1-0.1,0.3-0.2,0.4c-0.1,0.1-0.1,0.2-0.1,0.3c-0.1,0.4-0.4,0.6-0.7,0.9
		c-0.4,0.6-0.8,1.3-1.2,1.9c-0.1,0.2-0.2,0.5-0.2,0.7c0,11.9,0,23.9,0,35.8c0,3.9,0,7.7,0,11.6c0,1.7-0.7,3-1.9,4
		c-1.3,1-2.8,1.5-4.4,1.7c-1.3,0.2-2.6,0.1-3.9,0c-0.2-0.2-0.5,0-0.7-0.2c-0.2,0-0.4-0.2-0.6,0c0.2,0.1,0.4,0.1,0.5,0.2
		c0.1,0,0.3,0.1,0.4,0.1c1.9,0.6,3.8,1.1,5.8,1.3c0.2,0,0.4,0,0.6,0c1,0,1.9,0,2.9-0.2c1.3-0.3,2.5-0.9,3.3-2c0.3-0.5,0.5-1,0.8-1.6
		c0.1-0.2,0.3-0.3,0.1-0.5c0-0.3,0.1-0.5,0.1-0.8c0,0,0.1-0.1,0-0.1c0-0.2,0-0.3,0.1-0.4C36.4,72.8,36.4,72.7,36.4,72.5z"/>
	<path class="st5" d="M51.2,48.4c0.5,1.3,0.9,2.6,1.4,4c0.5,1.3,0.9,2.7,1.4,4c0,0.1,0,0.2,0.2,0.2c0.2-0.6,0.4-1.2,0.6-1.8
		c0.7-2.1,1.4-4.1,2-6.2c0.1-0.2,0.1-0.2,0.3-0.2c0.7,0,1.3,0,2,0c0.3,0,0.2,0.2,0.2,0.3c-0.4,1.3-0.9,2.5-1.4,3.8
		c-0.8,2.2-1.6,4.4-2.4,6.7c-0.1,0.4-0.3,0.6-0.8,0.6c-0.5-0.1-1,0-1.5,0c-0.3,0-0.4-0.1-0.5-0.4c-1-2.7-1.9-5.4-2.9-8.2
		c-0.3-0.8-0.6-1.7-0.9-2.5c-0.1-0.3,0-0.4,0.3-0.4c0.6,0,1.2,0,1.8,0C51,48.4,51.1,48.3,51.2,48.4c-0.6,0.1-1.3,0-1.7,0
		C49.9,48.4,50.5,48.6,51.2,48.4z"/>
	<path class="st5" d="M49.7,59.4c-0.1-0.3-0.2-0.6-0.3-0.8c-1.2-3.1-2.5-6.1-3.7-9.2c-0.4-1.1-0.4-1.1-1.6-1.1
		c-0.4,0-0.9-0.1-1.3,0.1c0,0,0,0,0,0c0,0,0,0,0,0c0,0,0,0,0,0c0,0,0,0,0,0c0,0.1-0.1,0.1-0.1,0.2c-0.8,2-1.6,4.1-2.4,6.1
		c-0.6,1.5-1.2,3-1.8,4.5c-0.1,0.4-0.1,0.5,0.3,0.4c0.5,0,1.1,0,1.7,0c0.2,0,0.3-0.1,0.4-0.3c0.2-0.7,0.5-1.3,0.7-2
		c0.1-0.2,0.2-0.3,0.5-0.3c1.3,0,2.6,0,3.9,0c0.3,0,0.4,0.1,0.5,0.3c0.2,0.7,0.5,1.3,0.7,1.9c0.1,0.2,0.1,0.3,0.3,0.3
		c0.7,0,1.3,0,2,0C49.7,59.7,49.8,59.6,49.7,59.4z M43.8,48.5c-0.3,0-0.6,0-1,0C43.2,48.5,43.5,48.5,43.8,48.5z M45.2,55.1
		c-0.8,0-1.6,0-2.5,0c0,0-0.1,0-0.1-0.1c0.5-1.3,0.9-2.6,1.4-3.9c0,0,0.1,0,0.1,0c0.5,1.3,0.9,2.5,1.4,3.8
		C45.4,55,45.3,55.1,45.2,55.1z"/>
</g>
</svg>
