<?xml version="1.0" encoding="utf-8"?>
<!-- Generator: Adobe Illustrator 25.4.1, SVG Export Plug-In . SVG Version: 6.00 Build 0)  -->
<svg version="1.1" id="Layer_1" xmlns="http://www.w3.org/2000/svg" xmlns:xlink="http://www.w3.org/1999/xlink" x="0px" y="0px"
	 viewBox="0 0 123.32 80" style="enable-background:new 0 0 123.32 80;" xml:space="preserve">
<style type="text/css">
	.st0{fill-rule:evenodd;clip-rule:evenodd;fill:#F5D85A;}
	.st1{fill-rule:evenodd;clip-rule:evenodd;fill:#FA2811;}
	.st2{fill:none;stroke:#CC1920;stroke-width:0.2835;stroke-linecap:round;stroke-linejoin:round;stroke-miterlimit:2.2926;}
	.st3{fill-rule:evenodd;clip-rule:evenodd;fill:#FFFFFF;}
	.st4{fill:none;stroke:#AA1318;stroke-width:0.216;stroke-linecap:round;stroke-linejoin:round;stroke-miterlimit:2.2926;}
	.st5{fill:#03124D;}
	.st6{fill:none;stroke:#03124D;stroke-width:0.7087;stroke-linecap:round;stroke-linejoin:round;stroke-miterlimit:2.2926;}
	.st7{fill:#FA2811;}
	.st8{fill:#FFFFFF;}
	.st9{fill-rule:evenodd;clip-rule:evenodd;fill:#03124D;}
	
		.st10{fill-rule:evenodd;clip-rule:evenodd;fill:#FFFFFF;stroke:#FFFFFF;stroke-width:0.216;stroke-linecap:round;stroke-linejoin:round;stroke-miterlimit:2.2926;}
	.st11{fill-rule:evenodd;clip-rule:evenodd;fill:#AA1318;}
	.st12{fill:#231F20;}
	.st13{fill-rule:evenodd;clip-rule:evenodd;fill:#A3070B;}
</style>
<g id="g1248" transform="translate(172.9158,590.7075)">
</g>
<g id="g1252" transform="translate(203.0896,564.0146)">
</g>
<g id="g1256" transform="translate(202.1028,559.5876)">
</g>
<g id="g1260" transform="translate(477.4399,437.4863)">
</g>
<g id="g1264" transform="translate(507.6138,410.7935)">
</g>
<g id="g1268" transform="translate(506.627,406.3665)">
</g>
<g id="g1272" transform="translate(376.8486,590.7075)">
</g>
<g id="g1276" transform="translate(407.0225,564.0146)">
</g>
<g id="g1280" transform="translate(406.0356,559.5876)">
</g>
<path class="st0" d="M65.07,40.52c-4.63-0.05-8.85-1.93-11.21-4.59c-3.78-4.26-4.47-11.06-4.06-18.76
	c7.77-10.75,22.77-10.74,30.55,0c0.41,7.7-0.28,14.51-4.06,18.76C73.92,38.6,69.7,40.47,65.07,40.52"/>
<path class="st1" d="M65.07,38.66c-1.51,0.02-3.18-0.4-4.69-1.26c-4.63,0.54-6.66-2.61-6.64-5.71c-3.09-0.57-1.11-3.17-1.5-5.91
	c-0.46-3.23-0.73-6.27,1.56-6.94c1.08-0.32,2.62,1.29,2.36,2.4l0.48-2.06c1.01-4.36,5.07-5.48,8.44-5.52
	c3.35-0.05,6.98,1.53,8.34,5.53l0.42,1.58c0.28-1.46,0.75-3,2.4-2.64c2.69,0.59,1.83,4.23,1.38,7.96c-0.3,2.52,1.86,4.9-1.26,5.32
	c0.68,2.81-2.41,6.26-6.4,5.98C68.04,38.55,66.25,38.64,65.07,38.66"/>
<path class="st2" d="M65.07,38.66c-1.51,0.02-3.18-0.4-4.69-1.26c-4.63,0.54-6.66-2.61-6.64-5.71c-3.09-0.57-1.11-3.17-1.5-5.91
	c-0.46-3.23-0.73-6.27,1.56-6.94c1.08-0.32,2.62,1.29,2.36,2.4l0.48-2.06c1.01-4.36,5.07-5.48,8.44-5.52
	c3.35-0.05,6.98,1.53,8.34,5.53l0.42,1.58c0.28-1.46,0.75-3,2.4-2.64c2.69,0.59,1.83,4.23,1.38,7.96c-0.3,2.52,1.86,4.9-1.26,5.32
	c0.68,2.81-2.41,6.26-6.4,5.98C68.04,38.55,66.25,38.64,65.07,38.66z"/>
<path class="st3" d="M59.47,35.82c-1.94,0.38-2.74-1.32-2.36-2.34l1.68-4.49c0.22-0.6,1.09-0.94,1.77-0.94
	c1.54,0,1.49,0.71,4.52,0.74c3.03-0.03,2.98-0.74,4.52-0.74c0.68,0,1.55,0.33,1.77,0.94l1.68,4.49c0.38,1.02-0.42,2.69-2.36,2.34
	C65.55,34.89,64.19,34.9,59.47,35.82"/>
<path class="st4" d="M59.47,35.82c-1.94,0.38-2.74-1.32-2.36-2.34l1.68-4.49c0.22-0.6,1.09-0.94,1.77-0.94
	c1.54,0,1.49,0.71,4.52,0.74c3.03-0.03,2.98-0.74,4.52-0.74c0.68,0,1.55,0.33,1.77,0.94l1.68,4.49c0.38,1.02-0.42,2.69-2.36,2.34
	C65.55,34.89,64.19,34.9,59.47,35.82z"/>
<path class="st5" d="M60.35,37.51c-0.42,0.08-0.87,0.12-1.38,0.11c-0.43-0.01-0.84-0.06-1.22-0.15c-1.37-0.32-2.46-1.1-3.18-2.08
	c-0.73-0.98-1.11-2.15-1.08-3.27c0.01-0.29,0.05-0.58,0.11-0.86l2.44-10.54c0.02-0.1,0.12-0.16,0.22-0.14
	c0.06,0.01,0.1,0.05,0.12,0.09c0.37,0.63,0.74,1.16,1.13,1.52c0.37,0.34,0.77,0.53,1.22,0.51c0.3-0.02,0.61-0.11,0.94-0.21
	c0.53-0.15,1.13-0.33,1.91-0.29c0.55,0.03,1.17,0.27,1.71,0.63c0.53,0.36,0.99,0.83,1.2,1.32c0.03,0.05,0.02,0.12-0.01,0.17
	c-0.26,0.53-0.89,1.12-1.66,1.57c-0.7,0.42-1.52,0.73-2.28,0.79c-0.11,0.01-0.23,0.01-0.34,0c-1.12-0.05-2.11-0.7-2.83-1.66
	c-0.65-0.86-1.09-1.98-1.23-3.12l-2.18,9.44c-0.06,0.26-0.09,0.52-0.1,0.79c-0.03,1.04,0.32,2.13,1,3.05
	c0.68,0.91,1.69,1.63,2.97,1.93c0.36,0.08,0.74,0.13,1.14,0.14c1.68,0.05,2.75-0.57,3.7-1.11c1.99-1.14,2.76-1.14,4.76,0
	c0.95,0.54,2.02,1.15,3.7,1.11c0.4-0.01,0.78-0.06,1.14-0.14c1.29-0.29,2.29-1.02,2.97-1.93c0.68-0.91,1.03-2.01,1-3.04
	c-0.01-0.27-0.04-0.54-0.1-0.79l-2.18-9.44c-0.14,1.15-0.58,2.26-1.23,3.12c-0.72,0.96-1.71,1.61-2.83,1.66h0c-0.11,0-0.23,0-0.34,0
	c-0.76-0.06-1.58-0.37-2.28-0.79c-0.76-0.46-1.39-1.05-1.66-1.57c-0.03-0.05-0.03-0.11-0.01-0.17c0.22-0.49,0.67-0.96,1.2-1.32
	c0.54-0.36,1.16-0.6,1.71-0.63c0.78-0.04,1.38,0.14,1.91,0.29c0.34,0.1,0.65,0.19,0.94,0.21c0.46,0.02,0.85-0.17,1.22-0.51
	c0.39-0.36,0.75-0.88,1.12-1.52c0.02-0.05,0.07-0.08,0.12-0.1c0.1-0.02,0.2,0.04,0.22,0.14l2.44,10.54c0.06,0.28,0.1,0.57,0.11,0.86
	c0.03,1.12-0.35,2.3-1.08,3.27c-0.73,0.98-1.81,1.76-3.18,2.08c-0.38,0.09-0.79,0.14-1.22,0.15c-0.4,0.01-0.77-0.01-1.11-0.06
	c-0.01,0.01-0.02,0.02-0.04,0.03c-0.69,0.36-1.56,0.7-2.47,0.93c-0.82,0.21-1.68,0.34-2.46,0.34c-0.83-0.01-1.67-0.13-2.47-0.35
	C61.81,38.27,61.04,37.93,60.35,37.51"/>
<path class="st6" d="M60.35,37.51c-0.42,0.08-0.87,0.12-1.38,0.11c-0.43-0.01-0.84-0.06-1.22-0.15c-1.37-0.32-2.46-1.1-3.18-2.08
	c-0.73-0.98-1.11-2.15-1.08-3.27c0.01-0.29,0.05-0.58,0.11-0.86l2.44-10.54c0.02-0.1,0.12-0.16,0.22-0.14
	c0.06,0.01,0.1,0.05,0.12,0.09c0.37,0.63,0.74,1.16,1.13,1.52c0.37,0.34,0.77,0.53,1.22,0.51c0.3-0.02,0.61-0.11,0.94-0.21
	c0.53-0.15,1.13-0.33,1.91-0.29c0.55,0.03,1.17,0.27,1.71,0.63c0.53,0.36,0.99,0.83,1.2,1.32c0.03,0.05,0.02,0.12-0.01,0.17
	c-0.26,0.53-0.89,1.12-1.66,1.57c-0.7,0.42-1.52,0.73-2.28,0.79c-0.11,0.01-0.23,0.01-0.34,0c-1.12-0.05-2.11-0.7-2.83-1.66
	c-0.65-0.86-1.09-1.98-1.23-3.12l-2.18,9.44c-0.06,0.26-0.09,0.52-0.1,0.79c-0.03,1.04,0.32,2.13,1,3.05
	c0.68,0.91,1.69,1.63,2.97,1.93c0.36,0.08,0.74,0.13,1.14,0.14c1.68,0.05,2.75-0.57,3.7-1.11c1.99-1.14,2.76-1.14,4.76,0
	c0.95,0.54,2.02,1.15,3.7,1.11c0.4-0.01,0.78-0.06,1.14-0.14c1.29-0.29,2.29-1.02,2.97-1.93c0.68-0.91,1.03-2.01,1-3.04
	c-0.01-0.27-0.04-0.54-0.1-0.79l-2.18-9.44c-0.14,1.15-0.58,2.26-1.23,3.12c-0.72,0.96-1.71,1.61-2.83,1.66h0c-0.11,0-0.23,0-0.34,0
	c-0.76-0.06-1.58-0.37-2.28-0.79c-0.76-0.46-1.39-1.05-1.66-1.57c-0.03-0.05-0.03-0.11-0.01-0.17c0.22-0.49,0.67-0.96,1.2-1.32
	c0.54-0.36,1.16-0.6,1.71-0.63c0.78-0.04,1.38,0.14,1.91,0.29c0.34,0.1,0.65,0.19,0.94,0.21c0.46,0.02,0.85-0.17,1.22-0.51
	c0.39-0.36,0.75-0.88,1.12-1.52c0.02-0.05,0.07-0.08,0.12-0.1c0.1-0.02,0.2,0.04,0.22,0.14l2.44,10.54c0.06,0.28,0.1,0.57,0.11,0.86
	c0.03,1.12-0.35,2.3-1.08,3.27c-0.73,0.98-1.81,1.76-3.18,2.08c-0.38,0.09-0.79,0.14-1.22,0.15c-0.4,0.01-0.77-0.01-1.11-0.06
	c-0.01,0.01-0.02,0.02-0.04,0.03c-0.69,0.36-1.56,0.7-2.47,0.93c-0.82,0.21-1.68,0.34-2.46,0.34c-0.83-0.01-1.67-0.13-2.47-0.35
	C61.81,38.27,61.04,37.93,60.35,37.51z"/>
<path class="st7" d="M62.87,36.46c-0.58,0.34-1.22,0.69-2,0.92c0.57,0.32,1.19,0.57,1.83,0.75c0.77,0.22,1.57,0.33,2.37,0.34
	c0.75,0,1.58-0.12,2.37-0.32c0.72-0.18,1.42-0.44,2.02-0.72c-0.88-0.22-1.57-0.61-2.2-0.98C65.39,35.4,64.74,35.39,62.87,36.46"/>
<path class="st8" d="M57.26,22.46c-0.27-0.25-0.52-0.56-0.77-0.94v0c0.08,1.19,0.52,2.38,1.19,3.27c0.66,0.88,1.54,1.47,2.54,1.51h0
	c0.09,0,0.2,0,0.3-0.01c0.7-0.05,1.46-0.34,2.12-0.74c0.67-0.4,1.22-0.9,1.48-1.35c-0.2-0.39-0.58-0.78-1.03-1.08
	c-0.48-0.32-1.03-0.55-1.51-0.57c-0.72-0.04-1.29,0.13-1.79,0.28c-0.36,0.11-0.69,0.21-1.03,0.22
	C58.19,23.09,57.71,22.87,57.26,22.46"/>
<path class="st8" d="M72.86,22.46c-0.44,0.41-0.92,0.63-1.49,0.6c-0.34-0.02-0.67-0.11-1.03-0.22c-0.51-0.15-1.08-0.32-1.8-0.28
	c-0.48,0.03-1.03,0.25-1.51,0.57c-0.45,0.3-0.83,0.69-1.03,1.08c0.25,0.45,0.81,0.95,1.48,1.35c0.66,0.39,1.42,0.68,2.12,0.74
	c0.1,0.01,0.2,0.01,0.3,0h0c1-0.04,1.89-0.63,2.54-1.51c0.67-0.89,1.11-2.07,1.19-3.26v-0.01C73.38,21.9,73.13,22.21,72.86,22.46"/>
<path class="st9" d="M60.42,34.15c-1.34,0.18-1.06-0.81-0.8-1.5l1.14-3.08c0.15-0.41,0.75-0.64,1.21-0.64
	c1.05,0,1.02,0.29,3.09,0.31c2.08-0.02,2.04-0.31,3.09-0.31c0.46,0,1.06,0.23,1.21,0.64l1.14,3.08c0.26,0.69,0.56,1.75-0.78,1.56
	C65.97,33.69,64.18,33.63,60.42,34.15"/>
<path class="st10" d="M68.06,31.28l1.44,2.01h-1.44V31.28z M66.59,32.49h1.06v0.8h-1.06V32.49z M65.23,32.49h1.06v0.8h-1.06V32.49z
	 M63.81,32.49h1.06v0.8h-1.06V32.49z M62.44,32.49h1.06v0.8h-1.06V32.49z M62.05,31.28l-1.44,2.01h1.44V31.28z"/>
<path class="st10" d="M67.72,31l1.26-1.25h-1.26V31z M66.43,30.25h0.93v-0.5h-0.93V30.25z M65.23,30.25h0.94v-0.5h-0.94V30.25z
	 M63.99,30.25h0.93v-0.5h-0.93V30.25z M62.78,30.25h0.93v-0.5h-0.93V30.25z M62.45,31l-1.26-1.25h1.26V31z"/>
<path class="st1" d="M64.98,30.97c0.99,0,2.3,0.58,2.63,1.2h-5.16C62.87,31.57,64,30.97,64.98,30.97"/>
<path class="st3" d="M56.7,19.34c0.63,0.58,1.26,1,1.99,1.03c0.93,0.03,1.87-0.45,2.79-0.34c2.06,0.25,3.22,2.14,3.19,3.96
	c-0.57-1.06-1.88-1.95-3.15-1.98c-1.21-0.03-2.06,0.58-2.81,0.55c-0.83-0.03-1.74-1.14-2.25-2.17C56.55,19.92,56.63,19.7,56.7,19.34
	"/>
<path class="st3" d="M73.43,19.32c-0.63,0.58-1.27,1-2,1.03c-0.93,0.03-1.87-0.45-2.79-0.34c-2.06,0.25-3.23,2.14-3.2,3.96
	c0.58-1.06,1.88-1.94,3.15-1.98c1.22-0.03,2.07,0.58,2.82,0.55c0.83-0.03,1.74-1.14,2.25-2.17C73.58,19.89,73.5,19.68,73.43,19.32"
	/>
<path class="st5" d="M60.73,22.6c0.45,0,0.86,0.18,1.15,0.48c0.29,0.29,0.48,0.7,0.48,1.15c0,0.45-0.18,0.86-0.48,1.15
	c-0.29,0.29-0.7,0.48-1.15,0.48c-0.45,0-0.86-0.18-1.15-0.48c-0.29-0.29-0.48-0.7-0.48-1.15c0-0.45,0.18-0.86,0.48-1.15
	C59.87,22.78,60.28,22.6,60.73,22.6z M61.62,23.34c-0.23-0.23-0.54-0.37-0.89-0.37s-0.66,0.14-0.89,0.37
	c-0.23,0.23-0.37,0.54-0.37,0.89c0,0.35,0.14,0.66,0.37,0.89c0.23,0.23,0.54,0.37,0.89,0.37s0.66-0.14,0.89-0.37
	c0.23-0.23,0.37-0.54,0.37-0.89C61.99,23.88,61.85,23.56,61.62,23.34"/>
<path class="st9" d="M60.73,23.83c0.22,0,0.4,0.18,0.4,0.39c0,0.22-0.18,0.4-0.4,0.4c-0.22,0-0.39-0.18-0.39-0.4
	C60.34,24.01,60.51,23.83,60.73,23.83"/>
<path class="st5" d="M69.42,22.55c-0.45,0-0.86,0.18-1.15,0.48s-0.48,0.7-0.48,1.15c0,0.45,0.18,0.86,0.48,1.15s0.7,0.48,1.15,0.48
	s0.86-0.18,1.15-0.48c0.29-0.29,0.48-0.7,0.48-1.15c0-0.45-0.18-0.86-0.48-1.15C70.28,22.74,69.87,22.55,69.42,22.55z M68.53,23.29
	c0.23-0.23,0.54-0.37,0.89-0.37c0.35,0,0.66,0.14,0.89,0.37c0.23,0.23,0.37,0.54,0.37,0.89c0,0.35-0.14,0.66-0.37,0.89
	c-0.23,0.23-0.54,0.37-0.89,0.37c-0.35,0-0.66-0.14-0.89-0.37c-0.23-0.23-0.37-0.54-0.37-0.89C68.17,23.84,68.31,23.52,68.53,23.29"
	/>
<path class="st9" d="M69.42,23.79c-0.22,0-0.39,0.18-0.39,0.4c0,0.22,0.17,0.39,0.39,0.39c0.22,0,0.39-0.18,0.39-0.39
	C69.81,23.97,69.64,23.79,69.42,23.79"/>
<path class="st11" d="M53.83,23.63c0.25-0.71,0.8-0.72,0.75-2.11c-0.08-0.73-1.12-0.72-1.32,0.18c-0.09,2.1-0.24,6.78-0.02,6.32
	C53.46,27.55,53.56,24.29,53.83,23.63"/>
<path class="st11" d="M75.93,23.63c-0.25-0.71-0.8-0.72-0.76-2.11c0.09-0.73,1.12-0.72,1.32,0.18c0.09,2.1,0.24,6.78,0.03,6.32
	C76.3,27.55,76.2,24.29,75.93,23.63"/>
<path class="st9" d="M65.21,14.07c0.44,0.38,0.81,0.95,1.07,1.58c0.27,0.65,0.43,1.37,0.43,2.03c0,0.66-0.18,1.43-0.46,2.11
	c-0.28,0.69-0.66,1.3-1.06,1.61c-0.07,0.06-0.17,0.05-0.24-0.01c-0.41-0.33-0.8-0.94-1.09-1.64c-0.28-0.66-0.46-1.42-0.46-2.09
	c0-0.71,0.13-1.42,0.4-2.06c0.25-0.59,0.63-1.13,1.15-1.55C65.03,13.99,65.14,14,65.21,14.07"/>
<path class="st3" d="M65.93,15.8c-0.22-0.53-0.51-1.01-0.86-1.35c-0.41,0.37-0.71,0.82-0.92,1.31c-0.25,0.59-0.37,1.25-0.37,1.92
	c0,0.62,0.17,1.32,0.43,1.95c0.24,0.58,0.55,1.09,0.88,1.4c0.31-0.29,0.6-0.79,0.83-1.35c0.26-0.64,0.43-1.36,0.43-1.97
	C66.33,17.07,66.18,16.4,65.93,15.8"/>
<path class="st9" d="M65.06,16.29c0.35,0,0.66,0.16,0.88,0.43c0.22,0.26,0.35,0.61,0.35,1c0,0.38-0.13,0.74-0.35,0.99
	c-0.22,0.26-0.53,0.43-0.88,0.43c-0.34,0-0.66-0.17-0.88-0.43c-0.22-0.26-0.35-0.61-0.35-0.99c0-0.39,0.14-0.74,0.35-1
	C64.4,16.46,64.72,16.29,65.06,16.29"/>
<path class="st3" d="M65.66,16.96c-0.15-0.18-0.37-0.3-0.6-0.3c-0.23,0-0.44,0.11-0.6,0.3c-0.16,0.19-0.26,0.46-0.26,0.75
	c0,0.29,0.1,0.56,0.26,0.75c0.15,0.18,0.37,0.29,0.6,0.29c0.23,0,0.44-0.11,0.6-0.29c0.16-0.19,0.26-0.46,0.26-0.75
	C65.92,17.42,65.82,17.15,65.66,16.96"/>
<path class="st9" d="M65.08,17.48c0.15,0,0.27,0.12,0.27,0.28s-0.12,0.28-0.27,0.28c-0.15,0-0.27-0.13-0.27-0.28
	S64.93,17.48,65.08,17.48"/>
<path class="st5" d="M64.67,3.9l0.25-0.33c0.01-0.02,0.03-0.04,0.05-0.06c0.09-0.06,0.2-0.03,0.26,0.05
	c0.11,0.16,0.22,0.31,0.32,0.46c1.02,1.44,2.04,2.89,2.04,4.6c0,0.63-0.32,1.3-0.8,1.82c-0.47,0.51-1.09,0.87-1.71,0.9h-0.07
	c-0.61,0-1.26-0.31-1.76-0.77c-0.51-0.46-0.87-1.08-0.9-1.69V8.81C62.35,6.97,63.55,5.38,64.67,3.9"/>
<path class="st8" d="M65.07,3.98l-0.11,0.14c-1.08,1.43-2.24,2.98-2.24,4.69v0.05h0c0.02,0.5,0.33,1.02,0.77,1.42
	c0.44,0.4,1,0.68,1.51,0.68l0.06,0c0.51-0.02,1.04-0.33,1.45-0.78c0.42-0.45,0.7-1.04,0.7-1.57c0-1.59-0.99-2.99-1.97-4.38
	L65.07,3.98"/>
<path class="st5" d="M64.75,6.17l0.11-0.15c0.01-0.02,0.03-0.04,0.05-0.06c0.08-0.06,0.2-0.03,0.26,0.05l0.14,0.22
	c0.46,0.68,0.93,1.37,0.93,2.19c0,0.32-0.15,0.66-0.38,0.91c-0.23,0.26-0.53,0.44-0.84,0.45h-0.03c-0.3,0-0.62-0.15-0.86-0.38
	c-0.24-0.23-0.42-0.54-0.43-0.85V8.53l0-0.02C63.69,7.63,64.24,6.87,64.75,6.17"/>
<path class="st7" d="M65.01,6.44c-0.46,0.64-0.94,1.32-0.94,2.07v0.02c0.01,0.21,0.14,0.43,0.32,0.59c0.18,0.17,0.4,0.29,0.6,0.29
	h0.02c0.2-0.01,0.41-0.14,0.58-0.33c0.17-0.2,0.29-0.44,0.29-0.67C65.87,7.71,65.44,7.07,65.01,6.44"/>
<path class="st5" d="M55.3,7.57l0.03-0.34c0-0.02,0-0.04,0.01-0.06c0.03-0.08,0.12-0.11,0.2-0.08c0.15,0.07,0.29,0.12,0.42,0.18
	c1.33,0.57,2.68,1.15,3.4,2.35c0.27,0.44,0.33,1.05,0.22,1.62c-0.11,0.56-0.39,1.08-0.82,1.36l-0.05,0.03
	c-0.43,0.26-1.02,0.32-1.57,0.22c-0.55-0.11-1.07-0.38-1.35-0.8v0l-0.02-0.03l-0.01-0.01C55,10.73,55.16,9.1,55.3,7.57"/>
<path class="st8" d="M55.62,7.46L55.6,7.6c-0.14,1.47-0.29,3.05,0.44,4.25l0,0.01l0.02,0.03c0.23,0.34,0.68,0.58,1.15,0.67
	c0.48,0.09,0.99,0.04,1.35-0.18h0l0.04-0.02c0.35-0.23,0.59-0.68,0.68-1.17c0.1-0.5,0.05-1.03-0.18-1.4
	c-0.68-1.11-1.98-1.68-3.26-2.23L55.62,7.46"/>
<path class="st5" d="M56.34,9.13l0.01-0.15c0-0.02,0-0.04,0.02-0.06c0.03-0.08,0.12-0.11,0.2-0.08l0.19,0.09
	c0.62,0.28,1.24,0.56,1.59,1.14c0.14,0.22,0.17,0.52,0.12,0.8c-0.05,0.28-0.18,0.54-0.39,0.68h0l-0.01,0l-0.02,0.01
	c-0.21,0.13-0.5,0.15-0.77,0.1c-0.27-0.06-0.53-0.2-0.67-0.41l0,0l0-0.01l-0.01-0.02C56.22,10.61,56.28,9.85,56.34,9.13"/>
<path class="st7" d="M56.63,9.21c-0.05,0.65-0.09,1.34,0.23,1.86l0.01,0.01l0,0.01c0.09,0.14,0.28,0.24,0.48,0.28
	c0.2,0.04,0.41,0.03,0.55-0.06l0.01,0l0.01-0.01c0.14-0.09,0.23-0.27,0.26-0.48c0.03-0.21,0.01-0.43-0.09-0.59
	C57.79,9.74,57.21,9.47,56.63,9.21"/>
<path class="st5" d="M50.22,11.95l-0.02-0.34c0-0.02,0-0.04,0.01-0.06c0.02-0.08,0.11-0.13,0.19-0.1c0.15,0.04,0.3,0.08,0.44,0.12
	c1.4,0.39,2.8,0.78,3.69,1.87c0.32,0.4,0.47,1,0.43,1.58c-0.03,0.57-0.24,1.12-0.62,1.46l-0.05,0.04c-0.38,0.31-0.96,0.45-1.52,0.42
	c-0.56-0.03-1.11-0.23-1.45-0.61l0,0L51.3,16.3l-0.01-0.01C50.34,15.12,50.28,13.48,50.22,11.95"/>
<path class="st8" d="M50.51,11.8l0.01,0.14c0.06,1.48,0.12,3.06,1,4.15l0.03,0.03c0.27,0.31,0.74,0.48,1.23,0.51
	c0.49,0.03,0.99-0.09,1.31-0.35l0.04-0.03c0.32-0.28,0.49-0.75,0.52-1.25c0.03-0.51-0.09-1.03-0.37-1.37
	c-0.83-1.01-2.18-1.39-3.54-1.77L50.51,11.8"/>
<path class="st5" d="M51.45,13.36l-0.01-0.15c0-0.02,0-0.04,0.01-0.06c0.02-0.08,0.11-0.12,0.19-0.1l0.2,0.06
	c0.65,0.19,1.31,0.39,1.73,0.91c0.17,0.2,0.24,0.5,0.23,0.78c-0.01,0.28-0.11,0.55-0.3,0.72h0l-0.02,0.02
	c-0.19,0.15-0.47,0.22-0.75,0.2c-0.28-0.02-0.55-0.13-0.72-0.32l-0.02-0.02C51.54,14.83,51.49,14.07,51.45,13.36"/>
<path class="st7" d="M51.76,13.39c0.04,0.65,0.09,1.34,0.48,1.81l0.01,0.01c0.11,0.13,0.31,0.2,0.51,0.22
	c0.2,0.02,0.4-0.03,0.53-0.14l0.01,0l0-0.01c0.12-0.11,0.19-0.3,0.2-0.51c0.01-0.22-0.05-0.43-0.16-0.58
	C52.97,13.76,52.36,13.57,51.76,13.39"/>
<path class="st5" d="M74.2,7.65l-0.03-0.34c0-0.02,0-0.04-0.01-0.06c-0.03-0.08-0.12-0.11-0.2-0.08c-0.15,0.06-0.28,0.12-0.42,0.18
	c-1.33,0.57-2.67,1.15-3.4,2.35c-0.27,0.44-0.33,1.05-0.22,1.62c0.11,0.56,0.39,1.08,0.82,1.36l0.05,0.03
	c0.43,0.26,1.02,0.32,1.57,0.22c0.55-0.11,1.08-0.38,1.35-0.8l0,0l0.02-0.03l0.01-0.01C74.5,10.8,74.34,9.17,74.2,7.65"/>
<path class="st8" d="M73.88,7.53l0.01,0.14c0.14,1.47,0.3,3.05-0.44,4.25l0,0.01l-0.02,0.03c-0.23,0.34-0.68,0.58-1.15,0.67
	c-0.48,0.09-0.99,0.04-1.35-0.18l-0.04-0.02c-0.35-0.24-0.59-0.69-0.69-1.17c-0.1-0.5-0.05-1.03,0.18-1.4
	c0.68-1.11,1.98-1.67,3.26-2.23L73.88,7.53"/>
<path class="st5" d="M73.16,9.2l-0.01-0.15c0-0.02,0-0.05-0.02-0.06c-0.03-0.08-0.12-0.11-0.2-0.08L72.74,9
	c-0.62,0.28-1.24,0.56-1.59,1.14c-0.14,0.22-0.17,0.52-0.12,0.8c0.05,0.28,0.18,0.54,0.4,0.68v0l0,0l0.01,0l0.01,0.01
	c0.21,0.13,0.5,0.15,0.77,0.09c0.27-0.06,0.53-0.2,0.67-0.41v0l0.02-0.02C73.27,10.68,73.21,9.92,73.16,9.2"/>
<path class="st7" d="M72.86,9.28c0.05,0.65,0.09,1.34-0.23,1.86l-0.01,0.02c-0.09,0.14-0.28,0.24-0.48,0.28
	c-0.2,0.04-0.4,0.03-0.54-0.06l-0.01-0.01l-0.01,0c-0.14-0.09-0.23-0.28-0.26-0.48c-0.04-0.21-0.01-0.43,0.08-0.59
	C71.71,9.8,72.29,9.54,72.86,9.28"/>
<path class="st5" d="M79.28,12.02l0.01-0.34c0-0.02,0-0.04,0-0.06c-0.02-0.08-0.11-0.13-0.19-0.11c-0.15,0.05-0.3,0.09-0.45,0.13
	c-1.4,0.39-2.8,0.78-3.69,1.87c-0.32,0.4-0.47,1-0.44,1.58c0.03,0.57,0.25,1.12,0.63,1.46l0.04,0.04h0
	c0.38,0.31,0.96,0.45,1.52,0.42c0.56-0.03,1.12-0.23,1.45-0.61v0l0.02-0.03l0.01-0.01C79.16,15.19,79.22,13.55,79.28,12.02"/>
<path class="st8" d="M78.98,11.86l-0.01,0.15c-0.06,1.48-0.12,3.06-1.01,4.15l0,0.01l-0.02,0.02c-0.28,0.31-0.75,0.48-1.23,0.51
	c-0.49,0.03-0.99-0.09-1.31-0.35l-0.04-0.03c-0.32-0.28-0.49-0.76-0.52-1.25c-0.03-0.51,0.09-1.03,0.37-1.37
	c0.82-1.01,2.18-1.39,3.53-1.77L78.98,11.86"/>
<path class="st5" d="M78.05,13.43l0.01-0.15c0-0.02,0-0.04,0-0.06c-0.03-0.08-0.11-0.12-0.19-0.1l-0.2,0.06
	c-0.65,0.2-1.31,0.39-1.74,0.92c-0.16,0.2-0.24,0.5-0.23,0.78c0.01,0.28,0.11,0.55,0.3,0.72L76,15.6l0.02,0.01
	c0.19,0.15,0.47,0.22,0.75,0.2c0.28-0.02,0.55-0.13,0.72-0.32v0l0.01-0.01l0.01-0.02C77.96,14.91,78.01,14.14,78.05,13.43"/>
<path class="st7" d="M77.74,13.46c-0.04,0.65-0.09,1.34-0.47,1.81l-0.02,0.02c-0.11,0.13-0.31,0.2-0.51,0.22
	c-0.2,0.02-0.4-0.03-0.53-0.13l-0.01,0l-0.01-0.01c-0.12-0.11-0.19-0.3-0.2-0.51c-0.01-0.22,0.05-0.43,0.16-0.58
	C76.53,13.83,77.14,13.65,77.74,13.46"/>
<path class="st12" d="M61.81,40.84c-0.68-0.13-1.34-0.29-1.98-0.49c-1.17-0.36-2.26-0.83-3.15-1.37c-0.39-0.21-0.78-0.43-1.18-0.66
	c-0.83-0.09-1.9-0.16-2.88-0.21c-1.09-0.05-2.08-0.08-2.53-0.05c-0.19,0.01-0.4,0.03-0.62,0.05c-1.4,0.13-3.52,0.32-5.65-0.99
	c-0.06-0.04-0.1-0.11-0.09-0.18c0.01-0.1,0.1-0.17,0.2-0.16c2.32,0.25,3.56,0.06,4.27-0.06c0.27-0.04,0.46-0.07,0.63-0.07
	c0.11,0,0.3,0,0.55,0c0.92,0,2.64,0,3.95,0.15c-0.58-0.35-1.36-0.59-2.34-0.74c-1.35-0.2-3.05-0.21-5.08-0.07
	c-0.27,0.02-0.56,0.04-0.85,0.07c-2.12,0.19-4.25,0.37-6.28-1.71h0c-0.05-0.05-0.07-0.12-0.05-0.18c0.03-0.1,0.13-0.15,0.23-0.12
	c2.25,0.68,4.12,0.54,6.09,0.38c0.23-0.02,0.46-0.04,0.72-0.06c1.29-0.09,2.47-0.03,3.58,0.14c0.89,0.14,1.74,0.35,2.55,0.61
	c-0.64-0.75-1.58-1.34-2.84-1.71c-1.46-0.43-3.33-0.6-5.64-0.43c-1.51,0.11-3.23,0.16-4.81-0.18c-1.6-0.34-3.04-1.08-3.93-2.55
	c-0.03-0.05-0.04-0.12-0.01-0.17c0.05-0.09,0.15-0.13,0.25-0.09c1.25,0.59,2.61,0.89,3.97,1.05c1.37,0.15,2.74,0.16,3.99,0.16
	c1.28,0,2.57,0.05,3.88,0.27c1.17,0.2,2.37,0.54,3.6,1.11c-0.41-0.71-1.34-1.34-2.74-1.85c-1.65-0.59-3.95-1-6.84-1.15
	c-0.42-0.02-0.83-0.03-1.26-0.05c-2.85-0.08-5.98-0.16-7.6-3.17c-0.03-0.05-0.04-0.12-0.01-0.18c0.05-0.09,0.15-0.13,0.25-0.09
	c1.28,0.61,2.65,0.97,4.05,1.16c1.4,0.2,2.84,0.22,4.25,0.18c1.55-0.05,3.06,0.22,4.56,0.71c1.34,0.43,2.66,1.03,3.98,1.72
	c-0.51-0.84-1.77-1.85-3.54-2.6c-1.64-0.69-3.71-1.15-6.03-1.01c-2.11,0.12-4.61-0.03-6.66-0.94c-1.57-0.7-2.88-1.84-3.55-3.63
	c-0.02-0.05-0.02-0.1,0.01-0.15c0.05-0.09,0.16-0.13,0.25-0.08c1.37,0.72,2.95,1.42,4.57,1.88c1.3,0.37,2.61,0.58,3.86,0.52
	c2.12-0.1,3.99,0.13,5.81,0.78c1.68,0.6,3.32,1.55,5.09,2.93c-0.4-1-1.55-2.31-3.54-3.41c-1.76-0.98-4.17-1.79-7.3-2.09
	c-0.55-0.05-1.13-0.08-1.73-0.12c-3.88-0.23-8.32-0.48-8.92-6.24c0-0.05,0.02-0.11,0.06-0.15c0.08-0.07,0.19-0.07,0.26,0
	c1.58,1.66,2.79,2.65,4.11,3.24c1.32,0.6,2.76,0.8,4.82,0.91c3.17,0.16,5.56,0.67,7.48,1.56c1.75,0.81,3.1,1.94,4.3,3.39
	c-0.2-1.46-1.08-2.86-2.76-4.05c-1.74-1.23-4.33-2.23-7.91-2.86c-0.71-0.12-1.49-0.21-2.29-0.29c-4.31-0.47-9.26-1-8.75-7.88
	c0-0.05,0.03-0.1,0.07-0.13c0.08-0.06,0.2-0.05,0.26,0.03c1.6,2.01,3.33,3.34,5.2,4.23c1.87,0.89,3.86,1.33,5.98,1.57
	c2.55,0.28,4.58,0.91,6.25,1.79c1.48,0.78,2.66,1.77,3.65,2.88c-0.18-1.22-0.99-2.48-2.27-3.58c-1.44-1.25-3.46-2.29-5.88-2.89
	c-1.11-0.28-2.34-0.44-3.61-0.6c-3.51-0.46-7.21-0.94-9.03-3.89C26.81,8.2,26.5,7.29,26.4,6.16V6.15c-0.1-1.12-0.01-2.46,0.32-4.08
	c0.2-0.97,0.51-1.59,0.83-1.87c0.17-0.14,0.34-0.21,0.51-0.2c0.18,0.01,0.34,0.1,0.48,0.27c0.26,0.31,0.44,0.9,0.46,1.77
	c0.16,6.98,5.81,7.66,10.27,8.19l0.16,0.02c2.95,0.35,5.55,1.32,7.38,2.79c1.72,1.38,2.75,3.22,2.75,5.42v0.01
	c-0.05,2.11-0.05,4.13,0.11,6.02c0.15,1.88,0.45,3.62,1,5.18c0.55,1.55,1.17,3.14,1.98,4.56c0.8,1.42,1.79,2.68,3.06,3.6
	c0.01,0,0.02,0.01,0.02,0.01c0.33,0.28,0.71,0.55,1.14,0.8c1.25,0.65,2.48,1.15,3.67,1.49c0.49,0.14,0.97,0.25,1.44,0.34
	c1,0.18,2.03,0.28,3.03,0.26c0.01,0,0.02,0,0.03,0h0.05c0.01,0,0.02,0,0.02,0c1.01,0.02,2.03-0.08,3.03-0.26
	c0.48-0.09,0.95-0.2,1.44-0.34c1.19-0.34,2.41-0.84,3.67-1.49c0.43-0.26,0.82-0.52,1.15-0.8c0,0,0.01-0.01,0.02-0.01
	c1.27-0.92,2.26-2.18,3.06-3.6c0.81-1.43,1.43-3.01,1.98-4.56c0.55-1.56,0.85-3.3,1-5.18c0.15-1.89,0.15-3.91,0.11-6.02v-0.01
	c-0.01-2.2,1.03-4.03,2.75-5.42c1.83-1.48,4.43-2.44,7.38-2.79l0.16-0.02c4.46-0.54,10.11-1.21,10.27-8.19
	c0.02-0.87,0.2-1.47,0.46-1.77c0.14-0.17,0.3-0.26,0.48-0.27c0.17-0.01,0.35,0.05,0.51,0.2c0.32,0.28,0.64,0.9,0.83,1.87
	c0.33,1.62,0.42,2.95,0.32,4.08l0,0.01c-0.1,1.13-0.4,2.05-0.88,2.81c-1.82,2.95-5.52,3.43-9.03,3.89c-1.26,0.16-2.5,0.32-3.61,0.6
	c-2.41,0.6-4.44,1.64-5.88,2.89c-1.28,1.11-2.08,2.36-2.27,3.58c0.99-1.11,2.17-2.1,3.65-2.88c1.66-0.88,3.7-1.51,6.25-1.79
	c2.12-0.23,4.11-0.68,5.98-1.57c1.86-0.89,3.6-2.22,5.2-4.23c0.06-0.08,0.18-0.09,0.26-0.03c0.04,0.03,0.07,0.08,0.07,0.13
	c0.52,6.88-4.44,7.41-8.75,7.88c-0.8,0.09-1.58,0.17-2.29,0.29c-3.58,0.62-6.17,1.63-7.91,2.86c-1.69,1.19-2.57,2.59-2.76,4.05
	c1.2-1.46,2.55-2.58,4.3-3.39c1.92-0.89,4.32-1.4,7.49-1.56c2.06-0.1,3.5-0.31,4.82-0.91c1.32-0.59,2.53-1.58,4.11-3.24
	c0.07-0.07,0.18-0.08,0.26,0c0.04,0.04,0.06,0.1,0.06,0.15c-0.6,5.76-5.05,6.02-8.92,6.24c-0.6,0.04-1.18,0.07-1.73,0.12
	c-3.13,0.31-5.54,1.12-7.3,2.09c-1.99,1.1-3.13,2.4-3.54,3.41c1.77-1.38,3.41-2.33,5.09-2.93c1.82-0.65,3.69-0.88,5.81-0.78
	c1.24,0.06,2.56-0.15,3.85-0.52c1.61-0.46,3.2-1.15,4.57-1.88c0.09-0.05,0.2-0.01,0.25,0.08c0.03,0.05,0.03,0.1,0.01,0.15
	c-0.67,1.8-1.97,2.94-3.55,3.63c-2.05,0.91-4.55,1.06-6.66,0.94c-2.31-0.14-4.38,0.32-6.03,1.01c-1.77,0.74-3.03,1.76-3.54,2.6
	c1.33-0.69,2.65-1.29,3.98-1.72c1.5-0.49,3.01-0.76,4.56-0.71c1.41,0.05,2.84,0.02,4.25-0.18c1.4-0.19,2.77-0.55,4.05-1.16
	c0.09-0.04,0.2,0,0.25,0.09c0.03,0.06,0.02,0.12-0.01,0.18c-1.61,3-4.75,3.09-7.6,3.17c-0.42,0.01-0.84,0.02-1.26,0.05
	c-2.89,0.15-5.19,0.55-6.84,1.15c-1.4,0.5-2.32,1.13-2.74,1.85c1.23-0.57,2.42-0.91,3.6-1.11c1.31-0.22,2.59-0.27,3.88-0.27
	c1.25,0,2.62-0.01,3.99-0.16c1.36-0.15,2.72-0.46,3.97-1.05c0.09-0.04,0.2,0,0.25,0.09c0.03,0.06,0.02,0.12-0.01,0.17
	c-0.89,1.46-2.33,2.2-3.93,2.55c-1.57,0.34-3.3,0.29-4.81,0.18c-2.31-0.17-4.19-0.01-5.64,0.43c-1.26,0.38-2.2,0.96-2.84,1.71
	c0.81-0.26,1.66-0.48,2.55-0.61c1.11-0.17,2.29-0.23,3.58-0.14c0.26,0.02,0.49,0.04,0.72,0.06c1.97,0.16,3.85,0.31,6.09-0.38
	c0.1-0.03,0.2,0.02,0.23,0.12c0.02,0.07,0,0.14-0.04,0.18c-2.03,2.09-4.15,1.9-6.28,1.71c-0.29-0.03-0.58-0.05-0.85-0.07
	c-2.03-0.14-3.73-0.13-5.08,0.07c-0.98,0.15-1.76,0.39-2.34,0.74c1.32-0.15,3.03-0.15,3.95-0.15c0.25,0,0.44,0,0.55,0
	c0.16,0,0.36,0.03,0.63,0.07c0.71,0.11,1.95,0.3,4.27,0.06c0.1-0.01,0.19,0.06,0.2,0.16c0.01,0.08-0.03,0.15-0.09,0.18
	c-2.12,1.31-4.26,1.12-5.65,0.99c-0.23-0.02-0.43-0.04-0.62-0.05c-0.46-0.03-1.45,0-2.53,0.05c-0.98,0.05-2.05,0.12-2.88,0.21
	c-0.4,0.24-0.79,0.46-1.18,0.66c-0.9,0.53-1.98,1-3.15,1.37c-0.64,0.2-1.3,0.37-1.98,0.49c-1.1,0.22-2.18,0.31-3.24,0.28
	C63.99,41.14,62.92,41.05,61.81,40.84"/>
<path class="st5" d="M55.17,37.91c-1.18-0.93-2.11-2.14-2.86-3.49c-0.82-1.45-1.46-3.05-2.01-4.62c-0.56-1.59-0.86-3.37-1.02-5.28
	c-0.15-1.9-0.15-3.93-0.11-6.06c0.01-2.08-0.97-3.81-2.61-5.13c-1.77-1.43-4.31-2.37-7.2-2.71l-0.16-0.02
	c-4.6-0.55-10.43-1.25-10.6-8.55c-0.02-0.78-0.17-1.3-0.37-1.54c-0.07-0.08-0.14-0.13-0.22-0.14c-0.08,0-0.16,0.03-0.25,0.11
	c-0.27,0.23-0.53,0.78-0.71,1.66c-0.32,1.58-0.42,2.88-0.32,3.97c0.1,1.08,0.38,1.94,0.83,2.66c1.73,2.8,5.35,3.27,8.77,3.71
	c1.28,0.17,2.52,0.33,3.65,0.61c2.47,0.61,4.55,1.69,6.03,2.97c1.55,1.34,2.45,2.92,2.43,4.41c0,0.1-0.08,0.18-0.18,0.18
	c-0.06,0-0.11-0.03-0.14-0.07c-1.03-1.26-2.28-2.36-3.91-3.22s-3.61-1.48-6.11-1.75c-2.15-0.24-4.19-0.69-6.1-1.6
	c-1.8-0.85-3.47-2.11-5.03-3.96c-0.23,6.07,4.41,6.57,8.44,7.01c0.81,0.09,1.6,0.17,2.32,0.3c3.64,0.63,6.28,1.66,8.06,2.92
	c2.02,1.43,2.94,3.15,2.96,4.94c0,0.1-0.08,0.18-0.18,0.18c-0.06,0-0.11-0.03-0.15-0.07c-1.25-1.64-2.67-2.89-4.54-3.75
	c-1.88-0.87-4.23-1.37-7.35-1.53c-2.11-0.11-3.59-0.32-4.95-0.94c-1.26-0.57-2.4-1.46-3.84-2.92c0.8,4.91,4.91,5.15,8.5,5.36
	c0.6,0.03,1.18,0.07,1.74,0.12c3.19,0.31,5.65,1.14,7.44,2.14c2.47,1.37,3.7,3.08,3.87,4.21c0.02,0.1-0.05,0.2-0.15,0.21
	c-0.06,0.01-0.11-0.01-0.15-0.05c-1.91-1.54-3.65-2.59-5.42-3.22c-1.78-0.63-3.6-0.86-5.68-0.76c-1.29,0.06-2.64-0.15-3.97-0.53
	c-1.47-0.42-2.91-1.03-4.19-1.68c0.67,1.43,1.81,2.37,3.15,2.97c1.98,0.88,4.42,1.03,6.49,0.91c2.37-0.14,4.51,0.32,6.19,1.04
	c2.22,0.94,3.69,2.31,3.97,3.31c0.03,0.1-0.03,0.2-0.13,0.23c-0.05,0.02-0.1,0.01-0.14-0.01c-1.48-0.78-2.94-1.47-4.4-1.95
	c-1.46-0.47-2.94-0.74-4.44-0.69c-1.43,0.05-2.88,0.02-4.31-0.18c-1.24-0.17-2.46-0.47-3.62-0.95c1.59,2.34,4.41,2.41,6.99,2.49
	c0.43,0.01,0.86,0.02,1.27,0.05c2.92,0.15,5.26,0.57,6.95,1.17c1.8,0.65,2.87,1.51,3.15,2.53c0.03,0.1-0.03,0.2-0.13,0.23
	c-0.05,0.02-0.09,0.01-0.13-0.01c-1.35-0.69-2.66-1.08-3.94-1.3c-1.29-0.22-2.55-0.26-3.81-0.26c-1.27,0-2.65,0-4.03-0.16
	c-1.18-0.14-2.36-0.38-3.48-0.82c0.83,1.02,2.02,1.57,3.32,1.85c1.53,0.33,3.23,0.28,4.71,0.17c2.36-0.17,4.28-0.01,5.78,0.44
	c1.59,0.48,2.72,1.28,3.39,2.34c0.05,0.09,0.03,0.2-0.06,0.26c-0.05,0.03-0.12,0.03-0.17,0.01c-0.95-0.34-1.95-0.62-3.03-0.78
	c-1.08-0.17-2.24-0.22-3.5-0.13c-0.22,0.02-0.48,0.04-0.72,0.06c-1.78,0.14-3.49,0.28-5.49-0.19c1.74,1.42,3.58,1.26,5.43,1.09
	c0.28-0.03,0.55-0.05,0.85-0.07c2.05-0.14,3.78-0.13,5.16,0.07c1.4,0.21,2.44,0.61,3.08,1.26c0.08,0.08,0.07,0.19,0,0.26
	c-0.05,0.05-0.11,0.06-0.16,0.05h0c-1.31-0.24-3.5-0.25-4.58-0.25c-0.25,0-0.45,0-0.55,0c-0.13,0-0.32,0.03-0.56,0.06
	c-0.63,0.1-1.66,0.26-3.45,0.14c1.75,0.78,3.46,0.63,4.63,0.52c0.24-0.02,0.45-0.04,0.64-0.05c0.46-0.03,1.46,0,2.57,0.05
	C53.49,37.77,54.4,37.83,55.17,37.91"/>
<path class="st5" d="M74.92,37.91c1.18-0.93,2.11-2.14,2.86-3.49c0.82-1.45,1.46-3.05,2.01-4.62c0.56-1.59,0.86-3.37,1.02-5.28
	c0.15-1.9,0.15-3.93,0.11-6.06c-0.01-2.08,0.97-3.81,2.61-5.13c1.77-1.43,4.31-2.37,7.2-2.71l0.16-0.02
	c4.6-0.55,10.43-1.25,10.6-8.55c0.02-0.78,0.17-1.3,0.37-1.54c0.07-0.08,0.14-0.13,0.21-0.14c0.08,0,0.16,0.03,0.25,0.11
	c0.27,0.23,0.53,0.78,0.71,1.66c0.32,1.58,0.42,2.88,0.32,3.97c-0.1,1.08-0.38,1.94-0.83,2.66c-1.73,2.8-5.35,3.27-8.77,3.71
	c-1.28,0.17-2.52,0.33-3.65,0.61c-2.47,0.61-4.55,1.69-6.03,2.97c-1.55,1.34-2.45,2.92-2.43,4.41c0,0.1,0.08,0.18,0.18,0.18
	c0.06,0,0.11-0.03,0.14-0.07c1.03-1.26,2.28-2.36,3.91-3.22c1.62-0.86,3.61-1.48,6.11-1.75c2.15-0.24,4.19-0.69,6.1-1.6
	c1.79-0.85,3.47-2.11,5.03-3.96c0.23,6.07-4.41,6.57-8.44,7.01c-0.81,0.09-1.6,0.17-2.32,0.3c-3.64,0.63-6.28,1.66-8.06,2.92
	c-2.02,1.43-2.94,3.15-2.96,4.94c0,0.1,0.08,0.18,0.18,0.18c0.06,0,0.11-0.03,0.15-0.07c1.25-1.64,2.67-2.89,4.54-3.75
	c1.88-0.87,4.23-1.37,7.35-1.53c2.11-0.11,3.59-0.32,4.95-0.94c1.26-0.57,2.4-1.46,3.83-2.92c-0.79,4.91-4.9,5.15-8.5,5.36
	c-0.6,0.03-1.18,0.07-1.74,0.12c-3.19,0.31-5.65,1.14-7.44,2.14c-2.47,1.37-3.71,3.08-3.87,4.21c-0.02,0.1,0.05,0.2,0.15,0.21
	c0.06,0.01,0.11-0.01,0.15-0.05c1.91-1.54,3.65-2.59,5.42-3.22c1.78-0.63,3.6-0.86,5.68-0.76c1.29,0.06,2.64-0.15,3.97-0.53
	c1.47-0.42,2.91-1.03,4.19-1.68c-0.67,1.43-1.81,2.37-3.15,2.97c-1.98,0.88-4.42,1.03-6.49,0.91c-2.37-0.14-4.51,0.32-6.19,1.04
	c-2.22,0.94-3.69,2.31-3.97,3.31c-0.03,0.1,0.03,0.2,0.12,0.23c0.05,0.02,0.1,0.01,0.14-0.01c1.48-0.78,2.94-1.47,4.4-1.95
	c1.46-0.47,2.94-0.74,4.44-0.69c1.43,0.05,2.88,0.02,4.31-0.18c1.24-0.17,2.46-0.47,3.62-0.95c-1.59,2.34-4.41,2.41-6.99,2.49
	c-0.43,0.01-0.86,0.02-1.27,0.05c-2.92,0.15-5.26,0.57-6.95,1.17c-1.8,0.65-2.87,1.51-3.15,2.53c-0.03,0.1,0.03,0.2,0.13,0.23
	c0.05,0.02,0.09,0.01,0.13-0.01c1.35-0.69,2.66-1.08,3.94-1.3c1.29-0.22,2.55-0.26,3.81-0.26c1.27,0,2.65,0,4.03-0.16
	c1.18-0.14,2.36-0.38,3.48-0.82c-0.83,1.02-2.02,1.57-3.32,1.85c-1.53,0.33-3.23,0.28-4.71,0.17c-2.36-0.17-4.28-0.01-5.78,0.44
	c-1.6,0.48-2.72,1.28-3.39,2.34c-0.06,0.09-0.03,0.2,0.06,0.26c0.05,0.03,0.12,0.03,0.17,0.01c0.95-0.34,1.95-0.62,3.03-0.78
	c1.08-0.17,2.24-0.22,3.5-0.13c0.22,0.02,0.48,0.04,0.72,0.06c1.78,0.14,3.49,0.28,5.49-0.19c-1.74,1.42-3.58,1.26-5.43,1.09
	c-0.28-0.03-0.55-0.05-0.85-0.07c-2.05-0.14-3.78-0.13-5.16,0.07c-1.4,0.21-2.44,0.61-3.08,1.26c-0.07,0.08-0.07,0.19,0,0.26
	c0.05,0.05,0.11,0.06,0.16,0.05h0c1.31-0.24,3.5-0.25,4.58-0.25c0.25,0,0.45,0,0.55,0c0.13,0,0.32,0.03,0.56,0.06
	c0.63,0.1,1.66,0.26,3.45,0.14c-1.75,0.78-3.46,0.63-4.63,0.52c-0.24-0.02-0.45-0.04-0.64-0.05c-0.46-0.03-1.46,0-2.57,0.05
	C76.6,37.77,75.69,37.83,74.92,37.91"/>
<path class="st13" d="M7.44,42.93h115.88L102.7,80H0L7.44,42.93"/>
<path class="st9" d="M113.9,59.68L102.7,80H0l4.03-20.32H113.9"/>
</svg>
