<?xml version="1.0" encoding="utf-8"?>
<!-- Generator: Adobe Illustrator 25.4.1, SVG Export Plug-In . SVG Version: 6.00 Build 0)  -->
<svg version="1.1" id="Layer_1" xmlns="http://www.w3.org/2000/svg" xmlns:xlink="http://www.w3.org/1999/xlink" x="0px" y="0px"
	 viewBox="0 0 271.83 80" style="enable-background:new 0 0 271.83 80;" xml:space="preserve">
<style type="text/css">
	.st0{fill-rule:evenodd;clip-rule:evenodd;fill:#F5D85A;}
	.st1{fill-rule:evenodd;clip-rule:evenodd;fill:#FA2811;}
	.st2{fill:none;stroke:#CC1920;stroke-width:0.2835;stroke-linecap:round;stroke-linejoin:round;stroke-miterlimit:2.2926;}
	.st3{fill-rule:evenodd;clip-rule:evenodd;fill:#FFFFFF;}
	.st4{fill:none;stroke:#AA1318;stroke-width:0.216;stroke-linecap:round;stroke-linejoin:round;stroke-miterlimit:2.2926;}
	.st5{fill:#03124D;}
	.st6{fill:none;stroke:#03124D;stroke-width:0.7087;stroke-linecap:round;stroke-linejoin:round;stroke-miterlimit:2.2926;}
	.st7{fill:#FA2811;}
	.st8{fill:#FFFFFF;}
	.st9{fill-rule:evenodd;clip-rule:evenodd;fill:#03124D;}
	
		.st10{fill-rule:evenodd;clip-rule:evenodd;fill:#FFFFFF;stroke:#FFFFFF;stroke-width:0.216;stroke-linecap:round;stroke-linejoin:round;stroke-miterlimit:2.2926;}
	.st11{fill-rule:evenodd;clip-rule:evenodd;fill:#AA1318;}
	.st12{fill:#231F20;}
	.st13{fill-rule:evenodd;clip-rule:evenodd;fill:#A3070B;}
</style>
<g id="g1248" transform="translate(172.9158,590.7075)">
</g>
<g id="g1252" transform="translate(203.0896,564.0146)">
</g>
<g id="g1256" transform="translate(202.1028,559.5876)">
</g>
<g id="g1260" transform="translate(477.4399,437.4863)">
</g>
<g id="g1264" transform="translate(507.6138,410.7935)">
</g>
<g id="g1268" transform="translate(506.627,406.3665)">
</g>
<g id="g1272" transform="translate(376.8486,590.7075)">
</g>
<g id="g1276" transform="translate(407.0225,564.0146)">
</g>
<g id="g1280" transform="translate(406.0356,559.5876)">
</g>
<g id="surface1">
	<path class="st0" d="M64.6,40.23c-4.59-0.05-8.78-1.92-11.13-4.56c-3.75-4.23-4.44-10.98-4.03-18.62
		c7.72-10.67,22.61-10.66,30.32,0c0.4,7.65-0.28,14.4-4.03,18.63C73.38,38.32,69.2,40.18,64.6,40.23"/>
	<path class="st1" d="M64.6,38.37c-1.5,0.02-3.15-0.4-4.66-1.25c-4.6,0.53-6.61-2.6-6.6-5.67c-3.07-0.57-1.1-3.15-1.49-5.86
		c-0.46-3.2-0.72-6.22,1.55-6.89c1.07-0.31,2.6,1.28,2.34,2.38l0.47-2.04c1-4.33,5.03-5.44,8.38-5.48c3.33-0.05,6.93,1.52,8.28,5.49
		l0.42,1.57c0.28-1.45,0.75-2.98,2.38-2.62c2.67,0.59,1.81,4.2,1.37,7.9c-0.3,2.5,1.84,4.87-1.25,5.29c0.67,2.79-2.4,6.21-6.35,5.93
		C67.55,38.27,65.77,38.36,64.6,38.37"/>
	<path class="st2" d="M64.6,38.37c-1.5,0.02-3.15-0.4-4.66-1.25c-4.6,0.53-6.61-2.6-6.6-5.67c-3.07-0.57-1.1-3.15-1.49-5.86
		c-0.46-3.2-0.72-6.22,1.55-6.89c1.07-0.31,2.6,1.28,2.34,2.38l0.47-2.04c1-4.33,5.03-5.44,8.38-5.48c3.33-0.05,6.93,1.52,8.28,5.49
		l0.42,1.57c0.28-1.45,0.75-2.98,2.38-2.62c2.67,0.59,1.81,4.2,1.37,7.9c-0.3,2.5,1.84,4.87-1.25,5.29c0.67,2.79-2.4,6.21-6.35,5.93
		C67.55,38.27,65.77,38.36,64.6,38.37z"/>
	<path class="st3" d="M59.04,35.56c-1.92,0.37-2.72-1.31-2.34-2.32l1.66-4.46c0.22-0.6,1.09-0.93,1.76-0.93
		c1.53,0,1.48,0.7,4.49,0.73c3.01-0.03,2.96-0.73,4.49-0.73c0.67,0,1.54,0.33,1.76,0.93l1.66,4.46c0.37,1.01-0.42,2.67-2.34,2.32
		C65.07,34.64,63.73,34.65,59.04,35.56"/>
	<path class="st4" d="M59.04,35.56c-1.92,0.37-2.72-1.31-2.34-2.32l1.66-4.46c0.22-0.6,1.09-0.93,1.76-0.93
		c1.53,0,1.48,0.7,4.49,0.73c3.01-0.03,2.96-0.73,4.49-0.73c0.67,0,1.54,0.33,1.76,0.93l1.66,4.46c0.37,1.01-0.42,2.67-2.34,2.32
		C65.07,34.64,63.73,34.65,59.04,35.56z"/>
	<path class="st5" d="M59.92,37.24c-0.41,0.08-0.87,0.12-1.37,0.11c-0.43-0.01-0.83-0.06-1.21-0.15c-1.36-0.32-2.44-1.09-3.16-2.06
		s-1.1-2.14-1.07-3.25c0.01-0.29,0.04-0.58,0.11-0.86l2.42-10.47c0.02-0.1,0.12-0.16,0.22-0.14c0.06,0.01,0.1,0.05,0.12,0.09
		c0.37,0.63,0.73,1.15,1.12,1.51c0.37,0.34,0.76,0.52,1.21,0.5c0.3-0.01,0.6-0.1,0.94-0.21c0.53-0.15,1.12-0.33,1.9-0.29
		c0.54,0.03,1.16,0.27,1.69,0.63c0.53,0.36,0.98,0.82,1.19,1.31c0.03,0.05,0.02,0.12-0.01,0.16c-0.26,0.52-0.89,1.11-1.64,1.56
		c-0.7,0.42-1.51,0.73-2.27,0.78c-0.11,0.01-0.22,0.01-0.34,0c-1.12-0.04-2.09-0.69-2.81-1.64c-0.64-0.86-1.08-1.96-1.22-3.1
		l-2.17,9.38c-0.06,0.25-0.09,0.52-0.1,0.78c-0.03,1.03,0.32,2.12,1,3.02c0.67,0.9,1.67,1.62,2.95,1.92
		c0.36,0.08,0.74,0.13,1.14,0.14c1.66,0.04,2.73-0.56,3.67-1.1c1.97-1.13,2.74-1.14,4.72,0c0.94,0.54,2.01,1.15,3.67,1.1
		c0.4-0.01,0.78-0.06,1.14-0.14c1.28-0.29,2.27-1.02,2.95-1.92c0.67-0.91,1.03-1.99,1-3.02c-0.01-0.27-0.04-0.53-0.1-0.79
		l-2.17-9.38c-0.14,1.14-0.58,2.24-1.22,3.1c-0.72,0.96-1.69,1.6-2.81,1.64h0c-0.11,0-0.22,0-0.34,0c-0.75-0.06-1.57-0.37-2.27-0.78
		c-0.76-0.45-1.38-1.04-1.64-1.56c-0.03-0.05-0.03-0.11-0.01-0.16c0.21-0.48,0.66-0.96,1.19-1.31c0.53-0.36,1.15-0.6,1.69-0.63
		c0.78-0.04,1.37,0.14,1.9,0.29c0.34,0.1,0.64,0.19,0.94,0.21c0.45,0.02,0.85-0.16,1.21-0.5c0.39-0.36,0.75-0.88,1.12-1.51
		c0.02-0.05,0.07-0.08,0.12-0.1c0.1-0.02,0.2,0.04,0.22,0.14l2.42,10.47c0.06,0.28,0.1,0.57,0.1,0.86C76.1,33,75.72,34.17,75,35.13
		c-0.72,0.97-1.79,1.75-3.16,2.06c-0.38,0.09-0.78,0.14-1.21,0.15c-0.4,0.01-0.76-0.01-1.1-0.06c-0.01,0.01-0.02,0.02-0.04,0.03
		c-0.69,0.36-1.55,0.69-2.45,0.93c-0.81,0.21-1.66,0.34-2.45,0.33c-0.83-0.01-1.66-0.13-2.45-0.35
		C61.36,37.99,60.6,37.66,59.92,37.24"/>
	<path class="st6" d="M59.92,37.24c-0.41,0.08-0.87,0.12-1.37,0.11c-0.43-0.01-0.83-0.06-1.21-0.15c-1.36-0.32-2.44-1.09-3.16-2.06
		c-0.72-0.97-1.1-2.14-1.07-3.25c0.01-0.29,0.04-0.58,0.11-0.86l2.42-10.47c0.02-0.1,0.12-0.16,0.22-0.14
		c0.06,0.01,0.1,0.05,0.12,0.09c0.37,0.63,0.73,1.15,1.12,1.51c0.37,0.34,0.76,0.52,1.21,0.5c0.3-0.01,0.6-0.1,0.94-0.21
		c0.53-0.15,1.12-0.33,1.9-0.29c0.54,0.03,1.16,0.27,1.69,0.63c0.53,0.36,0.98,0.82,1.19,1.31c0.03,0.05,0.02,0.12-0.01,0.16
		c-0.26,0.52-0.89,1.11-1.64,1.56c-0.7,0.42-1.51,0.73-2.27,0.78c-0.11,0.01-0.22,0.01-0.34,0c-1.12-0.04-2.09-0.69-2.81-1.64
		c-0.64-0.86-1.08-1.96-1.22-3.1l-2.17,9.38c-0.06,0.25-0.09,0.52-0.1,0.78c-0.03,1.03,0.32,2.12,1,3.02
		c0.67,0.9,1.67,1.62,2.95,1.92c0.36,0.08,0.74,0.13,1.14,0.14c1.66,0.04,2.73-0.56,3.67-1.1c1.97-1.13,2.74-1.14,4.72,0
		c0.94,0.54,2.01,1.15,3.67,1.1c0.4-0.01,0.78-0.06,1.14-0.14c1.28-0.29,2.27-1.02,2.95-1.92c0.67-0.91,1.03-1.99,1-3.02
		c-0.01-0.27-0.04-0.53-0.1-0.79l-2.17-9.38c-0.14,1.14-0.58,2.24-1.22,3.1c-0.72,0.96-1.69,1.6-2.81,1.64h0c-0.11,0-0.22,0-0.34,0
		c-0.75-0.06-1.57-0.37-2.27-0.78c-0.76-0.45-1.38-1.04-1.64-1.56c-0.03-0.05-0.03-0.11-0.01-0.16c0.21-0.48,0.66-0.96,1.19-1.31
		c0.53-0.36,1.15-0.6,1.69-0.63c0.78-0.04,1.37,0.14,1.9,0.29c0.34,0.1,0.64,0.19,0.94,0.21c0.45,0.02,0.85-0.16,1.21-0.5
		c0.39-0.36,0.75-0.88,1.12-1.51c0.02-0.05,0.07-0.08,0.12-0.1c0.1-0.02,0.2,0.04,0.22,0.14l2.42,10.47c0.06,0.28,0.1,0.57,0.1,0.86
		C76.1,33,75.72,34.17,75,35.13c-0.72,0.97-1.79,1.75-3.16,2.06c-0.38,0.09-0.78,0.14-1.21,0.15c-0.4,0.01-0.76-0.01-1.1-0.06
		c-0.01,0.01-0.02,0.02-0.04,0.03c-0.69,0.36-1.55,0.69-2.45,0.93c-0.81,0.21-1.66,0.34-2.45,0.33c-0.83-0.01-1.66-0.13-2.45-0.35
		C61.36,37.99,60.6,37.66,59.92,37.24z"/>
	<path class="st7" d="M62.41,36.2c-0.58,0.33-1.21,0.69-1.98,0.91c0.57,0.31,1.18,0.57,1.82,0.75c0.76,0.21,1.56,0.33,2.35,0.34
		c0.75,0,1.57-0.12,2.35-0.32c0.72-0.18,1.41-0.43,2-0.71c-0.87-0.22-1.55-0.61-2.19-0.97C64.92,35.14,64.27,35.13,62.41,36.2"/>
	<path class="st8" d="M56.85,22.3c-0.27-0.24-0.52-0.56-0.77-0.93v0c0.08,1.18,0.51,2.36,1.18,3.24c0.66,0.87,1.53,1.46,2.52,1.5h0
		c0.09,0,0.19,0,0.3-0.01c0.69-0.05,1.45-0.34,2.11-0.73c0.67-0.4,1.21-0.9,1.46-1.34c-0.19-0.39-0.58-0.78-1.02-1.07
		c-0.48-0.32-1.03-0.54-1.5-0.57c-0.72-0.04-1.28,0.13-1.78,0.28c-0.36,0.11-0.69,0.21-1.03,0.22
		C57.77,22.93,57.29,22.71,56.85,22.3"/>
	<path class="st8" d="M72.33,22.3c-0.44,0.4-0.92,0.63-1.48,0.6c-0.34-0.01-0.67-0.11-1.02-0.22c-0.5-0.15-1.07-0.31-1.78-0.28
		c-0.47,0.03-1.02,0.24-1.5,0.57c-0.45,0.3-0.82,0.68-1.02,1.07c0.25,0.45,0.8,0.94,1.46,1.34c0.66,0.39,1.41,0.68,2.11,0.73
		c0.1,0.01,0.2,0.01,0.3,0h0c0.99-0.04,1.87-0.63,2.52-1.5c0.67-0.88,1.1-2.06,1.18-3.24v-0.01C72.85,21.74,72.6,22.05,72.33,22.3"
		/>
	<path class="st9" d="M59.98,33.91c-1.33,0.18-1.05-0.8-0.79-1.49l1.14-3.05c0.15-0.41,0.74-0.63,1.2-0.63
		c1.05,0,1.01,0.28,3.07,0.31c2.06-0.02,2.03-0.31,3.07-0.31c0.46,0,1.05,0.22,1.2,0.63l1.14,3.05c0.26,0.69,0.55,1.73-0.77,1.55
		C65.49,33.44,63.72,33.39,59.98,33.91"/>
	<path class="st10" d="M67.57,31.06l1.43,1.99h-1.43V31.06z M66.1,32.26h1.05v0.79H66.1V32.26z M64.75,32.26h1.06v0.79h-1.06V32.26z
		 M63.34,32.26h1.06v0.79h-1.06V32.26z M61.98,32.26h1.05v0.79h-1.05V32.26z M61.6,31.06l-1.43,1.99h1.43V31.06z"/>
	<path class="st10" d="M67.23,30.78l1.25-1.24h-1.25V30.78z M65.94,30.03h0.93v-0.49h-0.93V30.03z M64.76,30.03h0.93v-0.49h-0.93
		V30.03z M63.52,30.03h0.93v-0.49h-0.93V30.03z M62.33,30.03h0.93v-0.49h-0.93V30.03z M62,30.78l-1.25-1.24H62V30.78z"/>
	<path class="st1" d="M64.51,30.74c0.98,0,2.29,0.58,2.61,1.19H62C62.41,31.34,63.54,30.74,64.51,30.74"/>
	<path class="st3" d="M56.29,19.2c0.63,0.57,1.25,1,1.98,1.02c0.93,0.03,1.85-0.44,2.77-0.33c2.05,0.25,3.2,2.12,3.17,3.93
		c-0.57-1.06-1.86-1.93-3.13-1.96c-1.2-0.03-2.05,0.57-2.79,0.55c-0.82-0.03-1.72-1.13-2.24-2.16
		C56.14,19.77,56.22,19.56,56.29,19.2"/>
	<path class="st3" d="M72.9,19.18c-0.63,0.57-1.26,1-1.98,1.02c-0.92,0.03-1.85-0.44-2.77-0.33c-2.05,0.25-3.2,2.12-3.17,3.93
		c0.57-1.06,1.87-1.93,3.13-1.96c1.21-0.03,2.05,0.57,2.8,0.55c0.82-0.03,1.72-1.13,2.23-2.16C73.05,19.75,72.97,19.54,72.9,19.18"
		/>
	<path class="st5" d="M60.29,22.43c0.45,0,0.85,0.18,1.15,0.47c0.29,0.29,0.47,0.7,0.47,1.14c0,0.45-0.18,0.85-0.47,1.15
		c-0.29,0.29-0.7,0.47-1.15,0.47c-0.45,0-0.85-0.18-1.14-0.47c-0.29-0.29-0.47-0.7-0.47-1.15c0-0.45,0.18-0.85,0.47-1.14
		C59.44,22.61,59.84,22.43,60.29,22.43z M61.17,23.17c-0.22-0.22-0.54-0.37-0.88-0.37c-0.34,0-0.66,0.14-0.88,0.37
		c-0.23,0.22-0.37,0.54-0.37,0.88c0,0.35,0.14,0.66,0.37,0.88c0.22,0.23,0.54,0.37,0.88,0.37c0.34,0,0.66-0.14,0.88-0.37
		c0.22-0.22,0.37-0.54,0.37-0.88C61.54,23.7,61.4,23.39,61.17,23.17"/>
	<path class="st9" d="M60.29,23.66c0.22,0,0.39,0.18,0.39,0.39c0,0.22-0.18,0.39-0.39,0.39c-0.21,0-0.39-0.18-0.39-0.39
		C59.9,23.83,60.07,23.66,60.29,23.66"/>
	<path class="st5" d="M68.92,22.39c-0.45,0-0.85,0.18-1.14,0.47c-0.29,0.29-0.48,0.7-0.48,1.15c0,0.45,0.18,0.85,0.48,1.14
		c0.29,0.29,0.7,0.47,1.14,0.47c0.45,0,0.85-0.18,1.15-0.47c0.29-0.29,0.47-0.7,0.47-1.14c0-0.45-0.18-0.85-0.47-1.15
		C69.77,22.57,69.36,22.39,68.92,22.39z M68.03,23.13c0.23-0.22,0.54-0.37,0.88-0.37c0.34,0,0.66,0.14,0.88,0.37
		c0.22,0.22,0.37,0.54,0.37,0.88c0,0.34-0.14,0.66-0.37,0.88c-0.22,0.23-0.54,0.37-0.88,0.37c-0.34,0-0.66-0.14-0.88-0.37
		c-0.22-0.22-0.36-0.54-0.36-0.88C67.67,23.66,67.81,23.35,68.03,23.13"/>
	<path class="st9" d="M68.92,23.62c-0.22,0-0.39,0.18-0.39,0.39c0,0.21,0.17,0.39,0.39,0.39c0.22,0,0.39-0.18,0.39-0.39
		C69.31,23.79,69.14,23.62,68.92,23.62"/>
	<path class="st11" d="M53.44,23.45c0.24-0.71,0.79-0.72,0.75-2.09c-0.08-0.72-1.11-0.72-1.31,0.18c-0.09,2.09-0.24,6.74-0.02,6.27
		C53.07,27.35,53.17,24.11,53.44,23.45"/>
	<path class="st11" d="M75.38,23.45c-0.25-0.71-0.79-0.72-0.75-2.09c0.09-0.72,1.11-0.72,1.31,0.18c0.09,2.09,0.24,6.74,0.03,6.27
		C75.75,27.35,75.64,24.11,75.38,23.45"/>
	<path class="st9" d="M64.73,13.97c0.43,0.38,0.8,0.94,1.06,1.57c0.27,0.64,0.42,1.36,0.42,2.02c0,0.65-0.18,1.42-0.45,2.09
		c-0.28,0.69-0.66,1.29-1.05,1.6c-0.07,0.06-0.17,0.05-0.24-0.01c-0.4-0.33-0.8-0.94-1.09-1.63c-0.27-0.66-0.45-1.4-0.45-2.07
		c0-0.71,0.13-1.41,0.4-2.05c0.25-0.59,0.63-1.12,1.14-1.54C64.56,13.89,64.67,13.9,64.73,13.97"/>
	<path class="st3" d="M65.45,15.68c-0.22-0.53-0.51-1-0.86-1.34c-0.4,0.37-0.71,0.81-0.92,1.3c-0.25,0.59-0.37,1.24-0.37,1.9
		c0,0.62,0.17,1.31,0.43,1.93c0.24,0.57,0.55,1.08,0.87,1.39c0.3-0.29,0.6-0.79,0.82-1.34c0.25-0.64,0.42-1.35,0.42-1.96
		C65.85,16.94,65.7,16.28,65.45,15.68"/>
	<path class="st9" d="M64.59,16.18c0.34,0,0.65,0.16,0.87,0.42c0.22,0.25,0.35,0.6,0.35,0.99c0,0.38-0.13,0.73-0.35,0.99
		C65.24,18.84,64.93,19,64.59,19c-0.34,0-0.65-0.16-0.87-0.43c-0.21-0.25-0.35-0.6-0.35-0.99c0-0.39,0.13-0.73,0.35-0.99
		C63.94,16.34,64.25,16.18,64.59,16.18"/>
	<path class="st3" d="M65.18,16.84c-0.15-0.18-0.36-0.3-0.59-0.3c-0.23,0-0.44,0.11-0.59,0.3c-0.16,0.19-0.26,0.45-0.26,0.75
		c0,0.29,0.1,0.56,0.26,0.75c0.15,0.18,0.36,0.29,0.59,0.29c0.23,0,0.44-0.11,0.59-0.29c0.16-0.19,0.26-0.46,0.26-0.75
		C65.44,17.29,65.34,17.03,65.18,16.84"/>
	<path class="st9" d="M64.61,17.35c0.15,0,0.27,0.12,0.27,0.28c0,0.15-0.12,0.28-0.27,0.28c-0.15,0-0.27-0.13-0.27-0.28
		C64.34,17.48,64.46,17.35,64.61,17.35"/>
	<path class="st5" d="M64.2,3.87l0.25-0.33c0.01-0.02,0.03-0.04,0.05-0.06c0.09-0.06,0.2-0.03,0.26,0.05
		c0.11,0.16,0.22,0.31,0.32,0.45c1.01,1.43,2.03,2.87,2.03,4.56c0,0.62-0.32,1.29-0.79,1.81c-0.46,0.51-1.08,0.87-1.7,0.89h-0.07
		c-0.6,0-1.25-0.31-1.75-0.76c-0.51-0.46-0.87-1.07-0.89-1.67V8.74C61.9,6.92,63.09,5.34,64.2,3.87"/>
	<path class="st8" d="M64.6,3.95l-0.1,0.14c-1.07,1.42-2.23,2.96-2.23,4.65V8.8h0c0.02,0.5,0.33,1.02,0.77,1.41
		c0.44,0.4,0.99,0.67,1.5,0.67l0.06,0c0.51-0.02,1.03-0.33,1.44-0.77c0.42-0.45,0.69-1.03,0.69-1.55c0-1.58-0.98-2.97-1.96-4.35
		L64.6,3.95"/>
	<path class="st5" d="M64.28,6.13l0.11-0.15c0.01-0.02,0.03-0.04,0.05-0.06c0.08-0.06,0.2-0.03,0.25,0.05l0.14,0.21
		c0.46,0.68,0.93,1.36,0.93,2.18c0,0.31-0.15,0.65-0.38,0.91c-0.22,0.25-0.53,0.43-0.83,0.45h-0.03c-0.3,0-0.61-0.15-0.85-0.38
		c-0.24-0.23-0.42-0.54-0.43-0.84V8.47l0-0.02C63.23,7.57,63.77,6.82,64.28,6.13"/>
	<path class="st7" d="M64.54,6.4c-0.46,0.63-0.94,1.31-0.94,2.06v0.02c0.01,0.21,0.13,0.42,0.31,0.59c0.18,0.17,0.4,0.28,0.6,0.28
		h0.02c0.2-0.01,0.41-0.14,0.57-0.33c0.17-0.19,0.28-0.44,0.28-0.66C65.39,7.66,64.97,7.02,64.54,6.4"/>
	<path class="st5" d="M54.9,7.52l0.03-0.34c0-0.02,0-0.04,0.01-0.06c0.03-0.07,0.12-0.11,0.2-0.08c0.15,0.07,0.28,0.12,0.42,0.18
		c1.32,0.57,2.66,1.15,3.38,2.33c0.27,0.44,0.33,1.05,0.22,1.61c-0.11,0.55-0.39,1.07-0.81,1.35l-0.05,0.03
		c-0.42,0.26-1.01,0.32-1.56,0.22c-0.55-0.11-1.06-0.38-1.34-0.79v0l-0.02-0.03l-0.01-0.01C54.6,10.65,54.75,9.03,54.9,7.52"/>
	<path class="st8" d="M55.22,7.41L55.2,7.55c-0.14,1.46-0.29,3.03,0.44,4.22l0,0.01l0.02,0.03c0.22,0.34,0.67,0.57,1.15,0.66
		c0.48,0.09,0.99,0.04,1.34-0.18h0l0.04-0.02c0.35-0.23,0.58-0.68,0.68-1.16c0.1-0.49,0.05-1.02-0.18-1.39
		c-0.67-1.11-1.96-1.66-3.24-2.21L55.22,7.41"/>
	<path class="st5" d="M55.93,9.07l0.01-0.15c0-0.02,0-0.04,0.01-0.06c0.03-0.08,0.12-0.11,0.2-0.08l0.19,0.09
		c0.61,0.28,1.23,0.56,1.58,1.13c0.14,0.22,0.17,0.52,0.12,0.8c-0.05,0.28-0.18,0.53-0.39,0.67h0l-0.01,0l-0.01,0.01
		c-0.21,0.13-0.49,0.15-0.76,0.1c-0.27-0.06-0.52-0.2-0.66-0.41l0,0l0-0.01l-0.01-0.01C55.81,10.53,55.87,9.77,55.93,9.07"/>
	<path class="st7" d="M56.22,9.15c-0.05,0.64-0.09,1.33,0.22,1.85L56.46,11l0,0.01c0.09,0.14,0.28,0.24,0.47,0.28
		c0.2,0.04,0.4,0.03,0.54-0.06l0.01,0l0.01-0.01c0.13-0.09,0.22-0.27,0.26-0.47c0.03-0.21,0.01-0.43-0.09-0.59
		C57.37,9.67,56.79,9.4,56.22,9.15"/>
	<path class="st5" d="M49.85,11.86l-0.01-0.34c0-0.02,0-0.04,0.01-0.06c0.02-0.08,0.1-0.13,0.19-0.1c0.15,0.04,0.3,0.08,0.44,0.12
		c1.39,0.39,2.78,0.78,3.66,1.85c0.32,0.4,0.47,0.99,0.43,1.57c-0.03,0.56-0.24,1.11-0.62,1.45l-0.04,0.04
		c-0.38,0.31-0.96,0.45-1.51,0.42c-0.56-0.03-1.11-0.23-1.43-0.6l0,0l-0.02-0.03l-0.01-0.01C49.97,15.01,49.91,13.38,49.85,11.86"/>
	<path class="st8" d="M50.15,11.71l0.01,0.14c0.06,1.46,0.12,3.04,1,4.12l0.03,0.03c0.27,0.31,0.74,0.48,1.22,0.5
		c0.49,0.03,0.98-0.09,1.3-0.35l0.04-0.03c0.31-0.28,0.49-0.75,0.52-1.24c0.03-0.5-0.09-1.02-0.37-1.36c-0.82-1-2.17-1.38-3.51-1.75
		L50.15,11.71"/>
	<path class="st5" d="M51.08,13.26l-0.01-0.15c0-0.02,0-0.04,0.01-0.06c0.02-0.08,0.11-0.12,0.19-0.1l0.2,0.06
		c0.64,0.19,1.3,0.39,1.72,0.91c0.16,0.2,0.24,0.49,0.23,0.78c-0.01,0.28-0.11,0.55-0.3,0.72h0l-0.02,0.02
		c-0.19,0.15-0.47,0.22-0.74,0.2c-0.27-0.02-0.55-0.13-0.71-0.31l-0.02-0.02C51.16,14.73,51.12,13.97,51.08,13.26"/>
	<path class="st7" d="M51.38,13.3c0.04,0.64,0.09,1.33,0.47,1.8l0.01,0.01c0.11,0.13,0.31,0.2,0.51,0.22
		c0.2,0.01,0.4-0.03,0.53-0.13l0.01,0l0-0.01c0.12-0.11,0.19-0.3,0.19-0.5c0.01-0.21-0.04-0.43-0.16-0.57
		C52.58,13.66,51.98,13.48,51.38,13.3"/>
	<path class="st5" d="M73.66,7.59l-0.03-0.34c0-0.02,0-0.04-0.01-0.06c-0.03-0.07-0.12-0.11-0.2-0.08
		c-0.15,0.06-0.28,0.12-0.42,0.18c-1.32,0.57-2.65,1.14-3.38,2.33c-0.27,0.44-0.33,1.05-0.22,1.61c0.11,0.55,0.39,1.07,0.81,1.35
		l0.05,0.03c0.42,0.26,1.01,0.32,1.55,0.21c0.55-0.1,1.07-0.38,1.34-0.79l0,0l0.02-0.03L73.18,12C73.96,10.72,73.8,9.1,73.66,7.59"
		/>
	<path class="st8" d="M73.34,7.48l0.01,0.14c0.14,1.46,0.3,3.03-0.43,4.22l0,0.01l-0.02,0.03c-0.23,0.34-0.67,0.57-1.15,0.66
		c-0.48,0.09-0.99,0.04-1.34-0.18l-0.04-0.02c-0.35-0.24-0.58-0.68-0.68-1.16c-0.1-0.49-0.04-1.02,0.18-1.39
		c0.68-1.1,1.96-1.66,3.24-2.21L73.34,7.48"/>
	<path class="st5" d="M72.63,9.14l-0.01-0.15c0-0.02,0-0.04-0.01-0.06c-0.03-0.07-0.12-0.11-0.2-0.07l-0.19,0.09
		c-0.61,0.28-1.23,0.56-1.58,1.13c-0.13,0.22-0.17,0.52-0.12,0.8c0.05,0.28,0.18,0.53,0.39,0.67v0l0,0l0.01,0l0.01,0.01
		c0.21,0.13,0.5,0.15,0.76,0.09c0.27-0.06,0.52-0.2,0.66-0.4v0l0.01-0.02C72.74,10.6,72.68,9.85,72.63,9.14"/>
	<path class="st7" d="M72.33,9.22c0.05,0.64,0.09,1.33-0.22,1.85l-0.01,0.01c-0.09,0.14-0.28,0.24-0.48,0.28
		c-0.19,0.04-0.4,0.03-0.54-0.06l-0.01-0.01l-0.01,0c-0.14-0.09-0.23-0.27-0.26-0.47c-0.04-0.21-0.01-0.43,0.08-0.59
		C71.19,9.73,71.77,9.47,72.33,9.22"/>
	<path class="st5" d="M78.71,11.94l0.01-0.34c0-0.02,0-0.04,0-0.06c-0.02-0.08-0.1-0.13-0.19-0.1c-0.15,0.04-0.3,0.09-0.44,0.13
		c-1.39,0.39-2.78,0.78-3.66,1.85c-0.32,0.4-0.47,0.99-0.43,1.57c0.03,0.56,0.24,1.11,0.62,1.45l0.04,0.04h0
		c0.38,0.31,0.96,0.45,1.51,0.42c0.56-0.03,1.11-0.23,1.44-0.6v0l0.02-0.03l0.01-0.01C78.58,15.08,78.65,13.45,78.71,11.94"/>
	<path class="st8" d="M78.41,11.78l-0.01,0.15c-0.06,1.46-0.12,3.04-1,4.12l0,0.01l-0.02,0.02c-0.27,0.31-0.74,0.48-1.22,0.5
		c-0.49,0.03-0.98-0.09-1.3-0.35l-0.04-0.03c-0.31-0.28-0.49-0.75-0.52-1.24c-0.03-0.51,0.09-1.02,0.37-1.36
		c0.82-1,2.17-1.38,3.51-1.76L78.41,11.78"/>
	<path class="st5" d="M77.48,13.33l0.01-0.15c0-0.02,0-0.04,0-0.06c-0.03-0.08-0.11-0.12-0.19-0.1l-0.2,0.06
		c-0.65,0.19-1.3,0.39-1.72,0.91c-0.16,0.2-0.24,0.49-0.23,0.78c0.01,0.28,0.11,0.55,0.3,0.72l0.01,0.01l0.01,0.01
		c0.19,0.15,0.47,0.22,0.74,0.2c0.27-0.02,0.54-0.13,0.71-0.31v0l0.01-0.01l0.01-0.01C77.4,14.8,77.44,14.04,77.48,13.33"/>
	<path class="st7" d="M77.17,13.37c-0.04,0.64-0.09,1.33-0.47,1.8l-0.01,0.01c-0.11,0.13-0.31,0.2-0.51,0.21
		c-0.2,0.01-0.4-0.03-0.53-0.13l-0.01,0l-0.01-0.01c-0.12-0.11-0.19-0.3-0.19-0.5c-0.01-0.21,0.04-0.43,0.16-0.57
		C75.98,13.73,76.58,13.55,77.17,13.37"/>
	<path class="st12" d="M61.36,40.54c-0.67-0.13-1.33-0.29-1.96-0.49c-1.16-0.36-2.24-0.83-3.13-1.36c-0.39-0.21-0.78-0.42-1.17-0.66
		c-0.82-0.09-1.88-0.16-2.86-0.21c-1.08-0.05-2.06-0.07-2.51-0.05c-0.19,0.01-0.39,0.03-0.62,0.05c-1.39,0.13-3.5,0.32-5.61-0.98
		c-0.06-0.04-0.1-0.1-0.09-0.18c0.01-0.1,0.1-0.17,0.2-0.16c2.3,0.24,3.53,0.06,4.24-0.06c0.27-0.04,0.46-0.07,0.62-0.07
		c0.11,0,0.3,0,0.54,0c0.91,0,2.62,0,3.93,0.15c-0.57-0.35-1.35-0.59-2.32-0.73c-1.34-0.19-3.03-0.21-5.04-0.07
		c-0.27,0.01-0.55,0.04-0.84,0.07c-2.11,0.19-4.22,0.37-6.23-1.7h0c-0.04-0.05-0.07-0.12-0.04-0.18c0.03-0.1,0.13-0.15,0.23-0.12
		c2.23,0.68,4.09,0.53,6.05,0.37c0.23-0.02,0.46-0.04,0.72-0.06c1.28-0.09,2.45-0.03,3.55,0.13c0.89,0.13,1.73,0.34,2.53,0.61
		c-0.64-0.75-1.57-1.33-2.82-1.7c-1.45-0.43-3.31-0.59-5.6-0.42c-1.49,0.11-3.21,0.16-4.77-0.18c-1.59-0.34-3.02-1.08-3.9-2.53
		c-0.03-0.05-0.04-0.12-0.01-0.17c0.04-0.09,0.15-0.13,0.25-0.09c1.24,0.58,2.59,0.88,3.94,1.04c1.36,0.15,2.72,0.16,3.96,0.16
		c1.27,0,2.55,0.04,3.85,0.27c1.16,0.2,2.35,0.54,3.57,1.11c-0.41-0.71-1.33-1.33-2.72-1.83c-1.64-0.59-3.93-0.99-6.8-1.14
		c-0.41-0.02-0.83-0.03-1.25-0.04c-2.83-0.07-5.94-0.16-7.54-3.14c-0.03-0.05-0.04-0.12-0.01-0.18c0.04-0.09,0.15-0.13,0.25-0.09
		c1.27,0.61,2.63,0.96,4.02,1.15c1.39,0.19,2.82,0.22,4.21,0.18c1.54-0.05,3.04,0.22,4.53,0.7c1.33,0.43,2.64,1.02,3.96,1.7
		c-0.51-0.83-1.76-1.84-3.52-2.58c-1.63-0.69-3.69-1.14-5.98-1c-2.1,0.12-4.58-0.03-6.61-0.93c-1.56-0.69-2.86-1.82-3.52-3.61
		c-0.01-0.05-0.01-0.1,0.01-0.15c0.04-0.09,0.16-0.13,0.25-0.08c1.36,0.72,2.93,1.41,4.54,1.86c1.29,0.37,2.59,0.58,3.83,0.52
		c2.11-0.1,3.96,0.13,5.77,0.77c1.67,0.6,3.3,1.54,5.06,2.91c-0.4-1-1.54-2.29-3.51-3.38c-1.75-0.97-4.14-1.78-7.24-2.08
		c-0.54-0.05-1.12-0.08-1.72-0.12c-3.85-0.22-8.26-0.48-8.86-6.2c0-0.05,0.01-0.11,0.06-0.15c0.07-0.07,0.19-0.07,0.26,0
		c1.57,1.65,2.77,2.63,4.08,3.21c1.31,0.59,2.74,0.8,4.79,0.9c3.14,0.16,5.52,0.66,7.43,1.55c1.73,0.81,3.08,1.92,4.27,3.37
		c-0.19-1.45-1.07-2.84-2.74-4.02c-1.73-1.22-4.3-2.22-7.86-2.84c-0.71-0.12-1.48-0.21-2.28-0.29c-4.27-0.46-9.2-1-8.68-7.83
		c0-0.05,0.03-0.1,0.07-0.13c0.08-0.06,0.19-0.05,0.26,0.03c1.58,2,3.31,3.32,5.16,4.2c1.85,0.88,3.84,1.32,5.94,1.55
		c2.53,0.28,4.55,0.91,6.2,1.78c1.47,0.78,2.64,1.76,3.63,2.86c-0.18-1.21-0.98-2.46-2.25-3.55c-1.43-1.24-3.44-2.27-5.83-2.87
		c-1.1-0.27-2.33-0.43-3.58-0.6c-3.48-0.46-7.16-0.94-8.97-3.86c-0.47-0.76-0.77-1.66-0.87-2.79V6.1c-0.1-1.12-0.01-2.44,0.32-4.05
		c0.19-0.96,0.5-1.58,0.82-1.86c0.16-0.14,0.34-0.21,0.51-0.19c0.18,0.01,0.33,0.1,0.47,0.27c0.25,0.3,0.43,0.9,0.45,1.76
		c0.16,6.93,5.77,7.6,10.2,8.13l0.16,0.02c2.93,0.35,5.51,1.31,7.33,2.77c1.71,1.37,2.73,3.2,2.73,5.38v0.01
		c-0.04,2.09-0.04,4.1,0.1,5.98c0.15,1.87,0.44,3.6,0.99,5.14c0.54,1.54,1.16,3.11,1.96,4.53c0.79,1.4,1.78,2.66,3.04,3.57
		c0.01,0,0.01,0.01,0.02,0.01c0.33,0.28,0.71,0.54,1.14,0.8c1.24,0.65,2.46,1.14,3.64,1.48c0.48,0.14,0.96,0.25,1.43,0.34
		c0.99,0.18,2.01,0.28,3.01,0.26c0.01,0,0.01,0,0.03,0h0.04c0.01,0,0.01,0,0.02,0c1,0.01,2.02-0.08,3.01-0.26
		c0.47-0.09,0.95-0.2,1.43-0.34c1.18-0.34,2.4-0.83,3.64-1.48c0.43-0.25,0.81-0.52,1.14-0.8c0,0,0.01-0.01,0.02-0.01
		c1.26-0.91,2.24-2.17,3.04-3.57c0.8-1.42,1.42-2.99,1.96-4.53c0.55-1.55,0.84-3.28,0.99-5.14c0.15-1.88,0.15-3.88,0.1-5.98v-0.01
		c-0.01-2.18,1.02-4,2.73-5.38c1.81-1.46,4.4-2.42,7.33-2.77l0.16-0.02c4.43-0.53,10.04-1.2,10.2-8.13c0.02-0.87,0.2-1.46,0.45-1.76
		c0.14-0.16,0.3-0.25,0.47-0.27c0.17-0.01,0.34,0.05,0.51,0.19c0.32,0.28,0.63,0.9,0.82,1.86c0.33,1.61,0.42,2.93,0.32,4.05l0,0.01
		c-0.1,1.12-0.4,2.03-0.87,2.79c-1.81,2.93-5.48,3.41-8.97,3.86c-1.25,0.16-2.48,0.32-3.58,0.6c-2.39,0.59-4.41,1.63-5.83,2.87
		c-1.27,1.1-2.07,2.34-2.25,3.55c0.98-1.11,2.16-2.08,3.63-2.86c1.65-0.87,3.67-1.5,6.2-1.78c2.1-0.23,4.08-0.67,5.94-1.55
		c1.85-0.88,3.57-2.2,5.16-4.2c0.06-0.08,0.18-0.09,0.26-0.03c0.04,0.03,0.07,0.08,0.07,0.13c0.51,6.83-4.41,7.36-8.68,7.83
		c-0.79,0.09-1.57,0.17-2.28,0.29c-3.55,0.62-6.13,1.62-7.86,2.84c-1.68,1.18-2.55,2.57-2.74,4.02c1.19-1.45,2.54-2.56,4.27-3.37
		c1.91-0.89,4.29-1.39,7.43-1.55c2.04-0.1,3.48-0.31,4.78-0.9c1.31-0.59,2.51-1.57,4.08-3.21c0.07-0.07,0.18-0.07,0.26,0
		c0.04,0.04,0.06,0.1,0.06,0.15c-0.6,5.72-5.01,5.97-8.86,6.2c-0.59,0.04-1.17,0.07-1.72,0.12c-3.11,0.3-5.5,1.11-7.24,2.08
		c-1.97,1.09-3.11,2.39-3.51,3.38c1.76-1.37,3.39-2.32,5.06-2.91c1.81-0.64,3.66-0.87,5.77-0.77c1.23,0.06,2.54-0.15,3.82-0.52
		c1.6-0.45,3.17-1.15,4.54-1.86c0.09-0.05,0.2-0.01,0.25,0.08c0.03,0.05,0.03,0.1,0.01,0.15c-0.66,1.78-1.96,2.91-3.52,3.61
		c-2.03,0.9-4.51,1.06-6.61,0.93c-2.3-0.13-4.35,0.31-5.98,1c-1.76,0.74-3.01,1.75-3.52,2.58c1.32-0.68,2.63-1.28,3.96-1.7
		c1.49-0.48,2.99-0.75,4.53-0.7c1.4,0.04,2.82,0.02,4.22-0.18c1.39-0.19,2.75-0.54,4.02-1.15c0.09-0.04,0.2,0,0.25,0.09
		c0.03,0.06,0.02,0.12-0.01,0.18c-1.6,2.98-4.72,3.07-7.54,3.14c-0.42,0.01-0.84,0.02-1.25,0.04c-2.87,0.15-5.15,0.55-6.8,1.14
		c-1.39,0.5-2.31,1.12-2.72,1.83c1.22-0.57,2.4-0.91,3.57-1.11c1.3-0.22,2.57-0.27,3.85-0.27c1.24,0,2.6-0.01,3.96-0.16
		c1.35-0.15,2.7-0.45,3.94-1.04c0.09-0.04,0.2,0,0.24,0.09c0.03,0.06,0.02,0.12-0.01,0.17c-0.88,1.45-2.32,2.19-3.9,2.53
		c-1.56,0.33-3.28,0.29-4.77,0.18c-2.3-0.17-4.16-0.01-5.6,0.42c-1.25,0.37-2.18,0.95-2.82,1.7c0.8-0.26,1.64-0.47,2.53-0.61
		c1.1-0.17,2.28-0.23,3.55-0.13c0.26,0.02,0.49,0.04,0.72,0.06c1.96,0.16,3.82,0.3,6.05-0.37c0.1-0.03,0.2,0.02,0.23,0.12
		c0.02,0.07,0,0.13-0.04,0.18c-2.01,2.07-4.12,1.89-6.23,1.7c-0.28-0.03-0.57-0.05-0.84-0.07c-2.01-0.14-3.7-0.13-5.04,0.07
		c-0.97,0.15-1.75,0.39-2.32,0.73c1.31-0.15,3.01-0.15,3.93-0.15c0.25,0,0.43,0,0.54,0c0.16,0,0.36,0.03,0.62,0.07
		c0.71,0.11,1.94,0.3,4.24,0.06c0.1-0.01,0.19,0.06,0.2,0.16c0.01,0.08-0.03,0.15-0.09,0.18c-2.11,1.3-4.23,1.11-5.61,0.98
		c-0.22-0.02-0.43-0.04-0.61-0.05c-0.45-0.03-1.43,0-2.51,0.05c-0.97,0.04-2.03,0.12-2.86,0.21c-0.39,0.24-0.78,0.45-1.17,0.66
		c-0.89,0.53-1.97,1-3.13,1.36c-0.63,0.2-1.29,0.36-1.96,0.49c-1.09,0.21-2.17,0.3-3.21,0.28C63.53,40.84,62.46,40.75,61.36,40.54"
		/>
	<path class="st5" d="M54.77,37.63c-1.17-0.92-2.09-2.13-2.84-3.46c-0.82-1.44-1.45-3.03-1.99-4.59c-0.55-1.58-0.86-3.34-1.01-5.24
		c-0.15-1.88-0.15-3.9-0.1-6.02c0.01-2.06-0.97-3.79-2.59-5.09c-1.76-1.42-4.28-2.35-7.14-2.69l-0.16-0.02
		c-4.57-0.55-10.35-1.24-10.52-8.49c-0.02-0.77-0.16-1.29-0.37-1.53c-0.07-0.08-0.14-0.13-0.21-0.13c-0.07,0-0.16,0.03-0.25,0.11
		c-0.27,0.23-0.53,0.77-0.7,1.65c-0.32,1.57-0.41,2.86-0.31,3.94c0.1,1.07,0.38,1.93,0.82,2.64c1.72,2.78,5.31,3.24,8.71,3.69
		c1.27,0.17,2.51,0.33,3.62,0.6c2.45,0.61,4.51,1.68,5.98,2.95c1.54,1.33,2.43,2.9,2.42,4.38c0,0.1-0.08,0.18-0.18,0.18
		c-0.06,0-0.11-0.03-0.14-0.07c-1.02-1.25-2.27-2.34-3.88-3.2c-1.61-0.85-3.59-1.46-6.07-1.74c-2.14-0.24-4.16-0.69-6.06-1.59
		c-1.78-0.85-3.45-2.09-4.99-3.93c-0.22,6.03,4.38,6.53,8.38,6.96c0.81,0.09,1.59,0.17,2.3,0.3c3.61,0.63,6.23,1.65,8,2.9
		c2.01,1.42,2.92,3.13,2.94,4.9c0,0.1-0.08,0.18-0.18,0.18c-0.06,0-0.11-0.03-0.15-0.07c-1.24-1.63-2.65-2.87-4.5-3.73
		c-1.87-0.87-4.2-1.36-7.29-1.52c-2.09-0.1-3.56-0.32-4.92-0.93c-1.25-0.56-2.39-1.45-3.81-2.9c0.79,4.88,4.87,5.12,8.44,5.32
		c0.6,0.03,1.17,0.07,1.73,0.12c3.17,0.31,5.61,1.13,7.39,2.12c2.45,1.36,3.67,3.06,3.84,4.18c0.01,0.1-0.05,0.19-0.15,0.21
		c-0.06,0.01-0.11-0.01-0.15-0.04c-1.9-1.53-3.62-2.57-5.38-3.2c-1.76-0.63-3.57-0.85-5.63-0.75c-1.28,0.06-2.62-0.15-3.94-0.53
		c-1.46-0.41-2.88-1.02-4.16-1.66c0.67,1.42,1.8,2.35,3.13,2.95c1.97,0.87,4.39,1.02,6.44,0.9c2.36-0.14,4.47,0.32,6.15,1.03
		c2.2,0.93,3.66,2.29,3.94,3.28c0.03,0.1-0.03,0.2-0.13,0.22c-0.05,0.01-0.1,0.01-0.14-0.01c-1.46-0.78-2.92-1.46-4.37-1.93
		c-1.45-0.47-2.91-0.73-4.41-0.68c-1.42,0.04-2.86,0.02-4.28-0.18c-1.23-0.17-2.44-0.46-3.59-0.94c1.58,2.32,4.38,2.4,6.94,2.47
		c0.43,0.01,0.86,0.02,1.26,0.04c2.9,0.15,5.23,0.56,6.9,1.16c1.78,0.64,2.85,1.5,3.13,2.51c0.03,0.1-0.03,0.2-0.13,0.22
		c-0.04,0.01-0.09,0.01-0.13-0.01c-1.34-0.69-2.64-1.07-3.91-1.29c-1.28-0.22-2.53-0.26-3.79-0.26c-1.26,0-2.63,0-4-0.16
		c-1.17-0.13-2.34-0.37-3.45-0.81c0.83,1.02,2.01,1.56,3.3,1.84c1.52,0.33,3.21,0.28,4.67,0.17c2.34-0.17,4.25-0.01,5.74,0.44
		c1.58,0.47,2.7,1.27,3.37,2.32c0.05,0.09,0.03,0.2-0.06,0.25c-0.05,0.03-0.12,0.03-0.17,0.01c-0.94-0.34-1.94-0.61-3.01-0.78
		c-1.08-0.16-2.23-0.22-3.47-0.13c-0.22,0.02-0.47,0.04-0.72,0.06c-1.77,0.14-3.47,0.28-5.45-0.19c1.73,1.41,3.56,1.25,5.39,1.09
		c0.28-0.03,0.55-0.05,0.85-0.07c2.04-0.14,3.76-0.13,5.12,0.07c1.39,0.21,2.42,0.61,3.06,1.25c0.07,0.07,0.07,0.19,0,0.26
		c-0.04,0.04-0.1,0.06-0.16,0.05h0c-1.3-0.24-3.48-0.24-4.55-0.24c-0.25,0-0.45,0-0.55,0c-0.13,0-0.31,0.03-0.56,0.06
		c-0.63,0.1-1.65,0.26-3.43,0.14c1.74,0.78,3.44,0.62,4.6,0.51c0.24-0.02,0.45-0.04,0.63-0.05c0.46-0.03,1.45,0,2.55,0.05
		C53.1,37.5,54.01,37.56,54.77,37.63"/>
	<path class="st5" d="M74.38,37.63c1.17-0.92,2.09-2.13,2.84-3.46c0.82-1.44,1.45-3.03,1.99-4.59c0.56-1.58,0.86-3.34,1.01-5.24
		c0.15-1.88,0.15-3.9,0.1-6.02c-0.01-2.06,0.97-3.79,2.59-5.09c1.76-1.42,4.28-2.35,7.14-2.69l0.16-0.02
		c4.57-0.55,10.35-1.24,10.52-8.49c0.02-0.77,0.16-1.29,0.37-1.53c0.07-0.08,0.14-0.13,0.21-0.13c0.07,0,0.16,0.03,0.25,0.11
		c0.27,0.23,0.53,0.77,0.7,1.65c0.32,1.57,0.41,2.86,0.31,3.94c-0.1,1.07-0.38,1.93-0.82,2.64c-1.72,2.78-5.31,3.24-8.71,3.69
		c-1.27,0.17-2.51,0.33-3.62,0.6c-2.45,0.61-4.51,1.68-5.98,2.95c-1.54,1.33-2.43,2.9-2.42,4.38c0,0.1,0.08,0.18,0.18,0.18
		c0.06,0,0.11-0.03,0.14-0.07c1.02-1.25,2.27-2.34,3.88-3.2c1.61-0.85,3.59-1.46,6.07-1.74c2.14-0.24,4.16-0.69,6.06-1.59
		c1.78-0.85,3.45-2.09,4.99-3.93c0.22,6.03-4.38,6.53-8.38,6.96c-0.81,0.09-1.59,0.17-2.3,0.3c-3.61,0.63-6.23,1.65-8,2.9
		c-2.01,1.42-2.92,3.13-2.94,4.9c0,0.1,0.08,0.18,0.18,0.18c0.06,0,0.11-0.03,0.15-0.07c1.24-1.63,2.65-2.87,4.5-3.73
		c1.87-0.87,4.2-1.36,7.29-1.52c2.09-0.1,3.56-0.32,4.92-0.93c1.25-0.56,2.39-1.45,3.81-2.9c-0.79,4.88-4.87,5.12-8.44,5.32
		c-0.6,0.03-1.17,0.07-1.73,0.12c-3.17,0.31-5.61,1.13-7.39,2.12c-2.45,1.36-3.68,3.06-3.84,4.18c-0.01,0.1,0.05,0.19,0.15,0.21
		c0.06,0.01,0.11-0.01,0.15-0.04c1.9-1.53,3.62-2.57,5.38-3.2c1.76-0.63,3.57-0.85,5.63-0.75c1.28,0.06,2.62-0.15,3.94-0.53
		c1.46-0.41,2.88-1.02,4.16-1.66c-0.67,1.42-1.8,2.35-3.13,2.95c-1.97,0.87-4.39,1.02-6.44,0.9c-2.36-0.14-4.47,0.32-6.15,1.03
		c-2.2,0.93-3.66,2.29-3.94,3.28c-0.03,0.1,0.03,0.2,0.12,0.22c0.05,0.01,0.1,0.01,0.14-0.01c1.46-0.78,2.92-1.46,4.37-1.93
		c1.45-0.47,2.91-0.73,4.41-0.68c1.42,0.04,2.86,0.02,4.28-0.18c1.23-0.17,2.44-0.46,3.59-0.94c-1.58,2.32-4.38,2.4-6.94,2.47
		c-0.43,0.01-0.86,0.02-1.26,0.04c-2.9,0.15-5.23,0.56-6.9,1.16c-1.78,0.64-2.85,1.5-3.13,2.51c-0.03,0.1,0.03,0.2,0.13,0.22
		c0.04,0.01,0.09,0.01,0.13-0.01c1.34-0.69,2.64-1.07,3.91-1.29c1.28-0.22,2.53-0.26,3.79-0.26c1.26,0,2.63,0,4-0.16
		c1.17-0.13,2.34-0.37,3.45-0.81c-0.83,1.02-2.01,1.56-3.3,1.84c-1.52,0.33-3.2,0.28-4.67,0.17c-2.34-0.17-4.25-0.01-5.74,0.44
		c-1.58,0.47-2.7,1.27-3.37,2.32c-0.06,0.09-0.03,0.2,0.06,0.25c0.05,0.03,0.12,0.03,0.17,0.01c0.94-0.34,1.94-0.61,3.01-0.78
		c1.08-0.16,2.23-0.22,3.47-0.13c0.22,0.02,0.47,0.04,0.72,0.06c1.77,0.14,3.47,0.28,5.45-0.19c-1.73,1.41-3.56,1.25-5.39,1.09
		c-0.28-0.03-0.55-0.05-0.85-0.07c-2.04-0.14-3.76-0.13-5.12,0.07c-1.39,0.21-2.42,0.61-3.06,1.25c-0.07,0.07-0.07,0.19,0,0.26
		c0.04,0.04,0.1,0.06,0.16,0.05h0c1.3-0.24,3.48-0.24,4.55-0.24c0.25,0,0.45,0,0.55,0c0.13,0,0.31,0.03,0.56,0.06
		c0.63,0.1,1.65,0.26,3.43,0.14c-1.74,0.78-3.44,0.62-4.6,0.51c-0.24-0.02-0.45-0.04-0.63-0.05c-0.46-0.03-1.45,0-2.55,0.05
		C76.05,37.5,75.14,37.56,74.38,37.63"/>
	<path class="st13" d="M7.39,42.62h115.04l-20.48,36.8H0L7.39,42.62"/>
	<path class="st9" d="M113.07,59.25l-11.12,20.17H0l4-20.17H113.07"/>
	<path class="st5" d="M136.47,4.9h6.68l9.24,23.02l4.33-23.02h6.57l-6.51,33.61h-7.06l-8.81-22.7l-4.46,22.7h-6.76L136.47,4.9z
		 M176.79,79.69l12.85-64.8h6.59l-0.41,2.67c3.13-3.34,4.82-3.52,7.17-3.7c4.87-0.37,9.17,3.85,8.56,12.38
		c-0.55,7.64-5.59,12.87-11.47,13.3c-2.7,0.19-5.52-0.62-8.04-2.66l-8.32,42.81H176.79z M193.83,25.96
		c-1.5,5.34,0.96,8.23,4.14,8.63c2.97,0.37,5.9-2.4,6.83-7.42c0.93-5.02-1.28-7.83-3.91-7.83
		C198.39,19.34,195.33,20.62,193.83,25.96z M222.2,21.28l-6.35,0.01c1.21-5.39,6.31-7.81,11.64-7.73c6.61,0.1,10.99,2.36,9.32,10.23
		l-1.95,9.22c-0.24,1.15-0.36,2.05-0.37,2.7c-0.01,0.65-0.34,1.78-0.13,2.79h-6.33c-0.34-1.22-0.3-1.48-0.21-2.73
		c-1.47,1.61-4.82,3.02-7.96,3.03c-3.52,0.01-7.04-1.75-6.77-6.93c0.52-10.03,12.27-7.29,16.07-9.03c4.16-1.91,1.21-5.26-1.99-5.06
		C225.51,17.88,222.79,18.48,222.2,21.28z M229.88,26.29c-2.68,1.02-9.97-0.01-10.34,4.49c-0.19,2.32,1.86,3.33,3.57,3.33
		C226.32,34.12,229.54,30.76,229.88,26.29z M243.97,5.32h6.31l-6.93,33.19h-5.83L243.97,5.32z M139.95,53.13l-6.62,13.66h8.21
		L139.95,53.13z M130.73,72.16l-3.65,7.53h-7.92l18.19-33.8h7.94l4.75,33.8h-7l-0.88-7.53H130.73z M155.93,55.7h6.57l-5.05,24h-6.29
		L155.93,55.7z M157.94,45.89h6.48l-1.04,5.45h-6.48L157.94,45.89z M191.49,55.7h6.57l-5.05,24h-6.29L191.49,55.7z M193.5,45.89
		h6.48l-1.03,5.45h-6.48L193.5,45.89z M166.17,55.77l6.02-0.07l-0.65,3.55c1.97-3.33,4.01-3.55,7.7-3.55l-1.5,6.76
		c-2.65-0.44-6.2-0.11-7.13,4.05l-2.95,13.18h-6.51L166.17,55.77z M249.26,71.01l5.79,0.06c-0.69,5.99,7.37,4.28,8.05,1.63
		c0.81-3.14-3.59-3.91-4.84-4.59c-3-1.65-6.66-2.7-6.28-6.81c0.89-9.59,19.23-9.6,19.85-0.16l-5.66,0.03c0-0.36-0.73-3.21-3.97-3.02
		c-3.75,0.22-4.8,3.76,0.68,5.62c5.33,1.8,7.81,5.14,7.02,8.55c-1.27,5.46-5.84,7.39-10.48,7.39
		C253.9,79.69,248.14,77.31,249.26,71.01z M229.88,68.87c-1.74,5.81,7.2,9.5,10.7,3.14l6.26-0.01c-2.39,5.74-6.6,8.01-12.8,8.01
		c-7.02,0-11.99-4.88-10.37-13.27c1.28-6.6,5.55-11.81,13.84-11.81c9.81,0,12.11,6.32,10.45,13.94L229.88,68.87z M241.72,64.54
		c1.2-7.76-9.86-6.02-10.24,0H241.72z M167.44,28.53c-1.74,5.81,7.2,9.5,10.7,3.14l6.26-0.01c-2.39,5.74-6.42,7.89-12.62,7.89
		c-7.02,0-12.18-4.76-10.56-13.16c1.28-6.6,5.55-12.02,13.84-12.02c9.81,0,12.11,6.54,10.45,14.16L167.44,28.53z M179.28,24.2
		c1.2-7.76-9.86-6.02-10.24,0H179.28z M201.89,55.68l6.37,0.01l-0.78,3.55c7.36-8.24,15.62-3.18,13.96,5.18l-3.02,15.27h-6.14
		l2.61-13.21c0.26-1.3,1.3-6.07-2.47-6.06c-4.26,0.01-5.64,2.35-6.71,7.73l-2.28,11.53h-6.3L201.89,55.68"/>
</g>
</svg>
