<?xml version="1.0" encoding="utf-8"?>
<!-- Generator: Adobe Illustrator 25.4.1, SVG Export Plug-In . SVG Version: 6.00 Build 0)  -->
<svg version="1.1" id="Layer_1" xmlns="http://www.w3.org/2000/svg" xmlns:xlink="http://www.w3.org/1999/xlink" x="0px" y="0px"
	 viewBox="0 0 110.9 80" style="enable-background:new 0 0 110.9 80;" xml:space="preserve">
<style type="text/css">
	.st0{fill-rule:evenodd;clip-rule:evenodd;fill:#2E3092;}
</style>
<path class="st0" d="M54,76.2c-1.5,0.4-3.2,0.4-4.8,0.4c-20.2,0-36.8-16.4-36.8-36.5c0-7.2,2.1-13.9,5.7-19.3
	c5.9,5.9,10.1,12.4,13.9,18.7c2.5,4.8,5.9,6.5,10.3,8.6c0.2-0.4,0.6-0.6,1.1-0.6c0.6,0,1.1,0.6,1.1,1.3c0,0,0,0.2,0,0.4
	c0.6,0.4,1.5,0.8,2.3,1.2l6.9-6.5c-1.1-0.4-2.1-0.8-3-1.3c-0.2,0.4-0.6,0.6-1,0.6c-0.6,0-1.1-0.4-1.1-1.1c0-0.2,0-0.2,0-0.4
	c-8.2-4-14.3-9-19.3-14.3C22.5,20.4,17.4,13,8.8,8.4H0c6.1,2.9,11.1,6.3,15.3,9.9C11.3,24.6,9,32.1,9,40.1C9,62.2,27.1,80,49.1,80
	c1.7,0,3.4,0,4.8-0.2c10.5-1.3,19.9-6.7,26.2-14.7c0.8,0.6,1.7,1.2,2.7,1.9l5-3.4L65.3,55l24.4,6.9l7.8-4.6
	c-12-0.2-23.1-1.5-31.1-5.5c11.1,2.5,23.1,3.1,35.5,2.9l9-6.5c-16.4,3.4-32.5,2.9-49.1-1.9L54,54.6c7.6,5,15.3,5,23.1,8.8
	C71.4,70.4,63.2,75,54,76.2z M54,52.1l5.9-5.7l-4.4-2.3l-2.1,2.1c0.4,0.2,0.6,0.8,0.6,1.2v0.1c0,1-0.9,2-1.9,2
	c-0.6,0-1.3-0.4-1.5-0.8l-2.5,2.1l4.4,2.7L54,52.1z M54,41.8l6.5,2.7c1.7-2.7,1.7-2.7,4.4-1.7c20.8,8.2,36.3,7.6,45.1-1.1
	c-7.1,3.6-14.3,4.8-21.6,4.2c0.4-1.9,0.4-4,0.4-5.9C88.8,19.7,73.7,2.7,54,0.4C52.5,0.2,50.8,0,49.1,0C38,0,27.9,4.6,20.6,11.8
	c-2.1-1.5-4.4-2.3-7.3-1.9c9,4.2,13,16,23.1,13.2c-5.7-2.1-9.5-6.1-13-9C30,7.6,39.1,3.4,49.1,3.4c1.7,0,3.4,0.2,4.8,0.4
	c17.8,2.5,31.7,17.9,31.7,36.3c0,1.9-0.2,3.8-0.4,5.4c-8.4-1-16.8-4.8-25.4-9.4c-2.3-1.3-4.4-1.7-5.9-0.8c-1.5,0.6-2.5,2.3-3,5
	L54,41.8"/>
</svg>
