<?xml version="1.0" encoding="utf-8"?>
<!-- Generator: Adobe Illustrator 25.4.1, SVG Export Plug-In . SVG Version: 6.00 Build 0)  -->
<svg version="1.1" id="Layer_1" xmlns="http://www.w3.org/2000/svg" xmlns:xlink="http://www.w3.org/1999/xlink" x="0px" y="0px"
	 viewBox="0 0 729.5 80" style="enable-background:new 0 0 729.5 80;" xml:space="preserve">
<style type="text/css">
	.st0{fill-rule:evenodd;clip-rule:evenodd;fill:#2E3092;}
</style>
<g>
	<path class="st0" d="M60.1,56.1h-7.8l5.5-9.7V32.6h8.2v8l7.6-8h7.1l-2.7,2.7L66.2,46.8l-4.6,9.2H60.1z M249.3,43.7h1
		c1.3,0,3-1.3,3.6-2.5l0.4-1.2c0.6-1.3,0-2.5-1.3-2.5h-6.3l-2.9,6.3H249.3z M249.3,32.6h8c4.2,0,6.9,1.9,4.6,6.7l-2.5,4.8
		c-1.2,2.1-2.3,3.8-6.3,4l0.8,8h-8l-1.1-8h-3.1l-3.8,8h-8.6l1.3-2.1l11.1-21.4H249.3z M230.6,34.6l1.1-2.1h-8.4l-12.8,23.5h8.6
		L230.6,34.6z M198.7,50.8l0.2-0.6h-6.9l-4.2,5.9H181l2.7-3.8l14.1-19.7h12.6l-6.1,23.5h-7.6L198.7,50.8z M198.7,46.4h1.2l2.7-10.1
		l-4,5l-4.2,5H198.7z M183.7,38l2.7-5.4h-5.7l-7.1,14.9l-0.4-14.9h-9.4l-11.6,23.5h5.7l7.2-14.9l0.4,14.9h9.5L183.7,38z M139.8,50.8
		l0.2-0.6h-6.9l-4.2,5.9h-6.5l2.7-3.8l14.1-19.7h12.4l-5.9,23.5H138L139.8,50.8z M139.8,46.4h1.5l2.7-10.1l-4.2,5l-4,5H139.8z
		 M125.2,37.6l2.7-5h-8.4l-12,21.8l-0.8,1.7h8.4L125.2,37.6z M107.5,39.3c1.3-2.5,1.3-4.4,0-5.5c-0.8-0.8-2.5-1.2-4.6-1.2H87.4
		l-9.5,18.3l-2.7,5.3h8.6l3.8-8h3.1l0.8,8h8l-0.6-8c4-0.2,5-1.9,6.1-4L107.5,39.3z M94.9,43.7H96c1.5,0,3.1-1.3,3.8-2.5l0.4-1.2
		c0.6-1.3,0-2.5-1.5-2.5h-6.3l-2.7,6.3H94.9z M60.1,26.5l0.2-0.2l7.6-0.2v-7.6H55.6C37.4,41.6,18.9,56.3,0,55.9l0.2,6.5h27.1
		L60.1,26.5"/>
	<path class="st0" d="M361.2,76.2c-1.5,0.4-3.2,0.4-4.8,0.4c-20.2,0-36.8-16.4-36.8-36.5c0-7.2,2.1-13.9,5.7-19.3
		c5.9,5.9,10.1,12.4,13.9,18.7c2.5,4.8,5.9,6.5,10.3,8.6c0.2-0.4,0.6-0.6,1.1-0.6c0.6,0,1.1,0.6,1.1,1.3c0,0,0,0.2,0,0.4
		c0.6,0.4,1.5,0.8,2.3,1.2l6.9-6.5c-1.1-0.4-2.1-0.8-3-1.3c-0.2,0.4-0.6,0.6-1,0.6c-0.6,0-1.1-0.4-1.1-1.1c0-0.2,0-0.2,0-0.4
		c-8.2-4-14.3-9-19.3-14.3C329.7,20.4,324.6,13,316,8.4h-8.8c6.1,2.9,11.1,6.3,15.3,9.9c-4,6.3-6.3,13.9-6.3,21.8
		c0,22.1,18.1,39.9,40.1,39.9c1.7,0,3.4,0,4.8-0.2c10.5-1.3,19.9-6.7,26.2-14.7c0.8,0.6,1.7,1.2,2.7,1.9l5-3.4L372.5,55l24.4,6.9
		l7.8-4.6c-12-0.2-23.1-1.5-31.1-5.5c11.1,2.5,23.1,3.1,35.5,2.9l9-6.5c-16.4,3.4-32.5,2.9-49.1-1.9l-7.8,8.2c7.6,5,15.3,5,23.1,8.8
		C378.6,70.4,370.4,75,361.2,76.2z M361.2,52.1l5.9-5.7l-4.4-2.3l-2.1,2.1c0.4,0.2,0.6,0.8,0.6,1.2v0.1c0,1-0.9,2-1.9,2
		c-0.6,0-1.3-0.4-1.5-0.8l-2.5,2.1l4.4,2.7L361.2,52.1z M361.2,41.8l6.5,2.7c1.7-2.7,1.7-2.7,4.4-1.7c20.8,8.2,36.3,7.6,45.1-1.1
		c-7.1,3.6-14.3,4.8-21.6,4.2c0.4-1.9,0.4-4,0.4-5.9c0-20.4-15.1-37.4-34.8-39.7C359.7,0.2,358,0,356.4,0
		c-11.1,0-21.2,4.6-28.6,11.8c-2.1-1.5-4.4-2.3-7.3-1.9c9,4.2,13,16,23.1,13.2c-5.7-2.1-9.5-6.1-13-9c6.7-6.5,15.7-10.7,25.8-10.7
		c1.7,0,3.4,0.2,4.8,0.4c17.8,2.5,31.7,17.9,31.7,36.3c0,1.9-0.2,3.8-0.4,5.4c-8.4-1-16.8-4.8-25.4-9.4c-2.3-1.3-4.4-1.7-5.9-0.8
		c-1.5,0.6-2.5,2.3-3,5L361.2,41.8"/>
	<path class="st0" d="M464.5,27.9h6.1l-1.3-4h-6.1L464.5,27.9z M581,47.7h3.6l-1.7-6.9h-5.5l1.7,6.9H581z M581,34.4h7.8l3.8,12.4
		h10.9l-4-12.4h9.2l4,12.4h13.7l-4.2-12.4h9.7l3.6,12.4h11.3l-3.4-12.4h8.2l4,12.4H669l-9-26.7h14.3c18.7,19.3,37.2,33.2,55.2,38
		v3.8h-25.6l-33-33.4l9.2,27.1h-84.4l2.3,7.1h-8l-2.7-7.1h-12.6L568,34.4H581z M476.3,47.7h4l-1.9-6.9h-6.3l1.9,6.9H476.3z
		 M476.3,34.4h7.3l3.6,12.4h44.5l-2.9-7.3h8l5,16.2c-31.9,0-44.9,0-65.5,0c-2.3,0-4.4,0-6.7,0l-6.9-21.2H476.3z M476.3,23.9h1.7
		l1.5,4h-6.1l-1.5-4H476.3z M557.3,34.4h-6.9l7.2,21.2h-7.2l1.7,6.3H567L557.3,34.4z M501.7,62.2h6.3l-1.5-4.2h-6.1L501.7,62.2z
		 M510.5,62.2h6.1l-1.2-4.2h-6.1L510.5,62.2"/>
</g>
</svg>
