<?xml version="1.0" encoding="utf-8"?>
<!-- Generator: Adobe Illustrator 25.4.1, SVG Export Plug-In . SVG Version: 6.00 Build 0)  -->
<svg version="1.1" id="Layer_1" xmlns="http://www.w3.org/2000/svg" xmlns:xlink="http://www.w3.org/1999/xlink" x="0px" y="0px"
	 viewBox="0 0 212.5 80" style="enable-background:new 0 0 212.5 80;" xml:space="preserve">
<style type="text/css">
	.st0{fill:#25407B;}
	.st1{fill:#D42B3F;}
</style>
<g>
	<path id="path14" class="st0" d="M74.6,49.1c0,0-19.1-8.7-18.8-13.5c0-0.5,0.3-0.9,0.7-1.3c0,0,10-11,29.3-18.7
		c15.6-6.3,19.3-5.8,19.3-5.8c-0.3,7.2,4.4,12.8,11.8,15.4c0,0,29.2-9.3,45.7-10.6c19.9-1.6,27.1,5.8,27.1,5.8s16.5,1,22,4.3
		c0,0,0.7,0.6,0.7,0.8c0,0.1-0.1,0.1-0.3,0.1c-0.9,0-4-0.7-8.4-0.2c-10.6,1.1-29.7,3.5-35.4,6.6c0,0-30.7,48.6-168.4,47.9
		C0,80,42.6,70.7,74.6,49.1"/>
	<path id="path16" class="st1" d="M107.8,1.5c1.2-0.1,4.1,0.4,4.7,2.1c0,0-4.5-2.7-61.1,15.3C33.7,24.5,6.9,5.8,0.1,0
		C0.1,0,21.5,5.6,107.8,1.5"/>
</g>
</svg>
