<?xml version="1.0" encoding="utf-8"?>
<!-- Generator: Adobe Illustrator 25.4.1, SVG Export Plug-In . SVG Version: 6.00 Build 0)  -->
<svg version="1.1" id="Layer_1" xmlns="http://www.w3.org/2000/svg" xmlns:xlink="http://www.w3.org/1999/xlink" x="0px" y="0px"
	 viewBox="0 0 465.1 80" style="enable-background:new 0 0 465.1 80;" xml:space="preserve">
<style type="text/css">
	.st0{fill:#25407B;}
	.st1{fill:#D42B3F;}
</style>
<g id="g10" transform="matrix(1.3333333,0,0,-1.3333333,0,212.2)">
	<g id="g12" transform="scale(0.1)">
		<path id="path14" class="st0" d="M555.3,1223.8c0,0-142.5,65.1-139.8,100.7c0.4,3.6,2.1,6.9,5.6,9.8c0,0,74.2,81.8,218.1,139.4
			c116.1,46.6,143.6,43.4,143.6,43.4c-2-53.3,32.4-95.3,88-114.7c0,0,217.6,69.3,340.5,79.2c148.3,12.1,202.1-43.2,202.1-43.2
			s123.2-7.1,164.1-32.4c0,0,5.2-4.2,5-6.3c-0.1-0.7-0.8-1.1-2.5-1.1c-6.8-0.1-29.4,4.8-62.5,1.3c-79-8.5-221.3-25.9-263.3-49.3
			c0,0-228.5-362.1-1254.2-356.9C0,993.7,317.5,1062.9,555.3,1223.8"/>
		<path id="path16" class="st1" d="M802.9,1578.3c9.1,0.5,30.4-3.1,34.9-15.3c0,0-33.4,20-454.9-113.9
			C250.7,1407.3,51.5,1546,0.5,1589.4C0.5,1589.4,159.9,1547.4,802.9,1578.3"/>
		<path id="path18" class="st0" d="M1845.4,1506.9h-0.6l-27.2-80.2h54.6L1845.4,1506.9z M1799.5,1376.4l-17.4-43.8h-69.5l97.1,252.3
			h71.6l95-252.3h-69.9l-16.4,43.8H1799.5"/>
		<path id="path20" class="st0" d="M2096.2,1332.6h-65.6v196.8h-66.9v55.4h199.6v-55.4h-67.1V1332.6"/>
		<path id="path22" class="st0" d="M2259.1,1388.1h78.7v-55.6h-144.2v252.2h65.5V1388.1"/>
		<path id="path24" class="st0" d="M2497,1506.9h-0.7l-27.1-80.2h54.5L2497,1506.9z M2451.1,1376.4l-17.4-43.8h-69.6l97.1,252.3
			h71.5l95.1-252.3h-70l-16.4,43.8H2451.1"/>
		<path id="path26" class="st0" d="M2659.1,1584.9h65.7l120-154.2h0.6v154.2h65.7v-252.3h-65.7l-120.1,154.5h-0.5v-154.5h-65.7
			V1584.9"/>
		<path id="path28" class="st0" d="M3073.6,1332.6H3008v196.8H2941v55.4h199.6v-55.4h-67V1332.6"/>
		<path id="path30" class="st0" d="M3244.8,1332.7h-65.5v252.2h65.5V1332.7"/>
		<path id="path32" class="st0" d="M3478.9,1500.3c-13.3,18-35.1,27.7-57.6,27.7c-40,0-67.1-30.7-67.1-69.9
			c0-39.7,27.3-68.6,68-68.6c21.5,0,43,10.4,56.7,26.8v-78.7c-21.8-6.7-37.4-11.7-57.8-11.7c-35.2,0-68.7,13.5-94.7,37.1
			c-27.8,25.2-40.6,58-40.6,95.4c0,34.5,13.1,67.6,37.2,92.3c24.7,25.5,60.6,40.8,96,40.8c21,0,40.4-4.7,59.9-12.6L3478.9,1500.3"/>
		<path id="path34" class="st0" d="M1845.4,1172.4h-0.6l-27.2-80.3h54.6L1845.4,1172.4z M1799.5,1041.9l-17.4-43.8h-69.5l97.1,252.2
			h71.6l95-252.2h-69.9l-16.4,43.8H1799.5"/>
		<path id="path36" class="st0" d="M2096.2,998.2h-65.6v252.2h65.6V998.2"/>
		<path id="path38" class="st0" d="M2250.3,1137.3h6.3c21.5,0,45.5,4,45.5,31.4c0,27.5-24.1,31.5-45.5,31.5h-6.3V1137.3z
			 M2394.4,998.2h-81.6l-61.8,97h-0.6v-97h-65.6v252.2h98c49.9,0,87.7-23.8,87.7-77.6c0-34.8-19.5-64.9-55.2-71.3L2394.4,998.2"/>
		<path id="path40" class="st0" d="M2518.8,1087.4h0.7l52.9,163h52.1l49.4-163h0.7l47.5,163h68.2l-80.6-252.2h-66.9l-44.2,146.1
			h-0.6l-49.5-146.1H2482l-75.3,252.2h68.2L2518.8,1087.4"/>
		<path id="path42" class="st0" d="M2924.9,1172.4h-0.6l-27.1-80.3h54.5L2924.9,1172.4z M2879.1,1041.9l-17.5-43.8h-69.5l96.9,252.2
			h71.6l95-252.2h-70l-16.4,43.8H2879.1"/>
		<path id="path44" class="st0" d="M3039.1,1250.4h78.6l47.1-68.6l47.2,68.6h78.7l-93.1-131.1V998.2h-65.4v121.1L3039.1,1250.4"/>
		<path id="path46" class="st0" d="M3451.8,1185.4c-12.1,10-27.4,16.7-43.5,16.7c-12,0-28-7-28-21c0-14.8,17.7-20.4,29-24.1l16.7-5
			c35.2-10.3,62.2-28.1,62.2-68.9c0-25.1-6-50.8-26-67.9c-19.8-16.7-46.3-23.7-71.7-23.7c-31.7,0-62.8,10.6-88.5,28.7l28,52.9
			c16.5-14.5,35.7-26.1,58.3-26.1c15.4,0,31.7,7.7,31.7,25.4c0,18.4-25.7,24.8-39.8,28.8c-41.2,11.7-68.3,22.4-68.3,71.2
			c0,51.2,36.5,84.7,87,84.7c25.5,0,56.5-8.1,79-20.8L3451.8,1185.4"/>
	</g>
</g>
</svg>
