<?xml version="1.0" encoding="utf-8"?>
<!-- Generator: Adobe Illustrator 25.4.1, SVG Export Plug-In . SVG Version: 6.00 Build 0)  -->
<svg version="1.1" id="Layer_1" xmlns="http://www.w3.org/2000/svg" xmlns:xlink="http://www.w3.org/1999/xlink" x="0px" y="0px"
	 viewBox="0 0 214.4 80" style="enable-background:new 0 0 214.4 80;" xml:space="preserve">
<style type="text/css">
	.st0{fill:#C2B8A0;}
	.st1{fill:#005787;}
</style>
<g>
	<g>
		<path class="st0" d="M40,25.9h14.4v-8.1H40C25.8,17.8,26,32,26,32v23.7h8.7V32C34.7,26.7,40,25.9,40,25.9z"/>
		<path class="st0" d="M63.2,49.6V25.9h-8.7v23.7c0,5.3-5.3,6.1-5.3,6.1H34.7v8.1h14.4C63.3,63.8,63.2,49.6,63.2,49.6z"/>
	</g>
	<polygon class="st1" points="55.7,15.8 63.8,23.9 63.8,15.8 	"/>
	<g>
		<path class="st1" d="M5.4,20.7L5.4,20.7L0,17v5.5v2.7v38.5h8V32.7c0-0.9,0.3-7.2,6.6-7.2c5.2,0,6.1,0,6.2,0c0,0,5.4-0.1,5.4-4
			c0-3.9,0-4.2,0-4.2H14.1C14.1,17.2,8.8,17.4,5.4,20.7z"/>
		<path class="st1" d="M154.8,16.9c-20.4,0-18.4,18.6-18.4,18.6v28.2h8V35.5c0,0-0.7-10.6,10.2-10.6c10.9,0,11.1,10.6,11.1,10.6
			v28.2h8V35.5C173.7,35.5,175.2,16.9,154.8,16.9z"/>
		<path class="st1" d="M84.7,56.3c-4.9,0-4.5-5.4-4.5-5.4V25.3h6.1c2.1,0,3.9-1.7,3.9-3.9v-4.1h-9.9v-12c0-2.1-1.7-3.9-3.9-3.9h-4.1
			v49.5c0,13,9.4,12.7,9.4,12.7s0.9,0,4.8,0c3.9,0,4.3-2.1,4.3-4.1C90.7,57.6,89.7,56.3,84.7,56.3z"/>
		<path class="st1" d="M113.3,17H98.4c0,0.1,0,0.8,0,4.2c0,4.8,5.4,4,5.4,4c0,0,0.3,0,8.3,0c8.5,0,9.5,8.4,9.5,8.4V34
			c-2.8-2-6.3-3.2-10.1-3.2c-9.4,0-16.9,7.4-16.9,16.4s7.6,16.4,16.9,16.4c4.5,0,8.6-1.7,11.6-4.4l6.5,4.4v-30
			C129.5,18.1,113.3,17,113.3,17z M112.1,55.7c-5.2,0-9.4-3.9-9.4-8.8c0-4.8,4.2-8.8,9.4-8.8s9.4,3.9,9.4,8.8
			C121.5,51.8,117.3,55.7,112.1,55.7z"/>
	</g>
	<path class="st1" d="M214.1,33.6c0-15.5-16.2-16.6-16.2-16.6h-14.9c0,0.1,0,0.8,0,4.2c0,4.8,5.4,4,5.4,4c0,0,0.3,0,8.3,0
		c8.5,0,9.5,8.4,9.5,8.4V34c-2.8-2-6.3-3.2-10.1-3.2c-9.4,0-16.9,7.4-16.9,16.4s7.6,16.4,16.9,16.4c4.5,0,8.6-1.7,11.6-4.4l6.5,4.4
		V33.6z M196.6,55.7c-5.2,0-9.4-3.9-9.4-8.8c0-4.8,4.2-8.8,9.4-8.8s9.4,3.9,9.4,8.8C206.1,51.8,201.8,55.7,196.6,55.7z"/>
	<g>
		<polygon class="st1" points="62.7,67.7 53.5,67.7 53.5,69.8 57,69.8 57,80 59.3,80 59.3,69.8 62.7,69.8 		"/>
		<path class="st1" d="M31.7,76.6c0,0,0,1.6-1.5,1.6c-1.5,0-2-2-2-2l-1.9,0.5c0,0,0.7,3.4,3.9,3.4c3.2,0,3.6-3.4,3.6-3.4v-8.9h-2.2
			V76.6z"/>
		<polygon class="st1" points="41.1,67.7 39.6,67.7 39.6,80 41.1,80 41.8,80 48.6,80 48.6,77.7 41.8,77.7 41.8,74.3 47.9,74.3 
			47.9,72.5 41.8,72.5 41.8,70 48.6,70 48.6,67.7 41.8,67.7 		"/>
	</g>
	<g>
		<path class="st0" d="M143.3,4c-1.3-0.9-2.8-1-4.4-0.3c-1.2,0.5-2,1.2-2,1.3l1.1,1.2c0,0,0.7-0.6,1.6-1c1.1-0.5,2.1-0.4,2.9,0.1
			c1.7,1.2,1.9,3,1.9,4h-31.4v-6h-1.6v6h-8.9c-0.7,0-1.3-0.3-1.7-1c-0.3-0.5-0.4-1.1-0.4-1.7V3.2h-1.6v3.3c0,0.9,0.2,1.8,0.7,2.5
			c0.7,1.2,1.8,1.8,3.1,1.8h43.3l0.1-0.6C145.8,10.1,146.6,6.2,143.3,4z"/>
		<path class="st0" d="M104.3,3.1c0.5,0,0.8-0.4,0.8-0.8s-0.4-0.8-0.8-0.8c-0.5,0-0.8,0.4-0.8,0.8S103.8,3.1,104.3,3.1z"/>
		<path class="st0" d="M107.6,3.1c0.5,0,0.8-0.4,0.8-0.8s-0.4-0.8-0.8-0.8c-0.5,0-0.8,0.4-0.8,0.8S107.1,3.1,107.6,3.1z"/>
		<path class="st0" d="M175.3,0c-0.5,0-0.8,0.4-0.8,0.8s0.4,0.8,0.8,0.8c0.5,0,0.8-0.4,0.8-0.8S175.8,0,175.3,0z"/>
		<path class="st0" d="M195.4,1.7c0.5,0,0.8-0.4,0.8-0.8S195.9,0,195.4,0s-0.8,0.4-0.8,0.8S195,1.7,195.4,1.7z"/>
		<path class="st0" d="M198.9,0c-0.5,0-0.8,0.4-0.8,0.8s0.4,0.8,0.8,0.8c0.5,0,0.8-0.4,0.8-0.8S199.4,0,198.9,0z"/>
		<path class="st0" d="M174.5,8.4c0,0.3-0.1,0.5-0.2,0.7c-0.2,0.2-0.5,0.2-0.5,0.2c0,0,0,0,0,0l-19.8,0c-0.5,0-0.9-0.1-1.1-0.4
			c-0.3-0.3-0.3-0.8-0.3-0.8c0,0,0,0,0,0l0-8.1H151v8c0,0.3,0,1.2,0.7,2c0.5,0.6,1.3,0.9,2.3,0.9h19.7c0,0,0.1,0,0.1,0
			c0.3,0,1-0.1,1.6-0.6c0.3-0.3,0.7-0.9,0.7-1.9V3.7h-1.6V8.4z"/>
		<path class="st0" d="M198,8.4c0,0.3-0.1,0.5-0.2,0.7c-0.2,0.2-0.5,0.2-0.5,0.2c0,0,0,0,0,0l-16.3,0c-0.5,0-0.9-0.1-1.1-0.4
			c-0.3-0.3-0.3-0.8-0.3-0.8l0-8.1h-1.6v8c0,0.3,0,1.2,0.7,2c0.5,0.6,1.3,0.9,2.3,0.9h16.2c0,0,0.1,0,0.1,0c0.3,0,1-0.1,1.6-0.6
			c0.3-0.3,0.7-0.9,0.7-1.9V3.7H198V8.4z"/>
		<path class="st0" d="M212.8,3.2v7c0,0.5-0.1,1-0.3,1.3c-0.4,0.7-1,0.8-1.4,0.8h-0.9V14h0.9c1.2,0,2.1-0.6,2.7-1.6
			c0.4-0.6,0.6-1.4,0.6-2.1v-7H212.8z"/>
		<path class="st0" d="M208.8,6.7L208.8,6.7c-0.1-1.2-1-3.4-3.4-3.4c-2.6,0-3.7,2.1-3.7,4c0,1.1,0.4,2.1,1.1,2.8
			c0.7,0.6,1.6,1,2.6,0.9c0.7,0,1.3-0.2,1.8-0.4c0,1.5-2,2.2-2,2.2l0.2,0.8l0.2,0.8c0.1,0,3.1-1,3.1-3.7V7.8c0-0.2,0-0.3,0-0.4V6.7z
			 M207.2,7.7c0,0.3-0.1,0.8-0.4,1.1c-0.3,0.3-0.8,0.5-1.4,0.5c-0.6,0-1.1-0.1-1.5-0.5c-0.5-0.5-0.6-1.1-0.6-1.6
			c0-0.4,0.1-2.4,2.1-2.4c1.5,0,1.7,1.5,1.8,1.8V7.7z"/>
	</g>
</g>
</svg>
