<?xml version="1.0" encoding="utf-8"?>
<!-- Generator: Adobe Illustrator 25.4.1, SVG Export Plug-In . SVG Version: 6.00 Build 0)  -->
<svg version="1.1" id="Layer_1" xmlns="http://www.w3.org/2000/svg" xmlns:xlink="http://www.w3.org/1999/xlink" x="0px" y="0px"
	 viewBox="0 0 105.34 80" style="enable-background:new 0 0 105.34 80;" xml:space="preserve">
<style type="text/css">
	.st0{fill:#E11027;}
</style>
<g>
	<path class="st0" d="M49.12,13.54c0,0-2.08-0.06-3.41,0.62c0,0,4.78,1.28,7.06,6.8c2.35-5.52,7.06-6.8,7.06-6.8
		c-1.28-0.68-3.38-0.62-3.38-0.62c-0.21-0.71-1.01-1.28-1.01-1.28c0.65-0.74,1.87-1.54,1.87-1.54L52.8,0l-4.45,10.72
		c0,0,1.22,0.8,1.84,1.54C50.13,12.26,49.32,12.82,49.12,13.54"/>
	<path class="st0" d="M20.62,77.09C20.77,78.6,20.8,80,20.8,80h63.73c0,0,0.06-1.31,0.18-2.76c0.15-1.51,0.33-2.7,0.33-2.7H20.32
		C20.29,74.57,20.53,75.81,20.62,77.09"/>
	<path class="st0" d="M103.23,40.55L103.23,40.55c2.2-0.74,1.93-3.18,1.93-3.18c-0.47-2.79-3.44-2.37-3.44-2.37
		c1.87-2.2,0.42-3.89,0.42-3.89c-1.42-1.78-3.71-0.62-3.71-0.62c1.04-2.32-0.33-3.47-0.33-3.47c-1.84-1.57-3.74,0.06-3.74,0.06
		c-0.06-2.23-1.66-2.79-1.66-2.79c-1.93-0.8-3.35,0.92-3.35,0.92c-1.4-3.89-4.13-1.93-4.81-1.6c-0.65,0.36-0.74-0.03-0.74-0.03
		c-0.12-4.69-4.1-2.91-4.1-2.91c1.07-2.32-0.8-3.65-0.8-3.65c-2.05-1.25-3.74,0.5-3.74,0.5c-0.21-3.09-2.49-2.17-3.21-1.9
		c-0.68,0.15-2.2,0.24-2.2,0.24c-4.75-0.59-6.44-0.33-6.44-0.33c-5.73-0.12-10.63,9.41-10.63,9.41v0.06l-0.09-0.09
		c0,0-4.9-9.53-10.63-9.41c0,0-1.75-0.27-6.44,0.33c0,0-1.45-0.06-2.2-0.24c-0.74-0.27-3.03-1.19-3.21,1.9c0,0-1.69-1.75-3.74-0.5
		c0,0-1.87,1.34-0.8,3.65c0,0-3.98-1.78-4.1,2.91c0,0-0.03,0.39-0.74,0.03c-0.62-0.33-3.38-2.26-4.78,1.6c0,0-1.42-1.75-3.32-0.92
		c0,0-1.63,0.56-1.69,2.79c0,0-1.9-1.63-3.74-0.06c0,0-1.34,1.16-0.36,3.47c0,0-2.23-1.16-3.62,0.62c0,0-1.48,1.69,0.42,3.89
		c0,0-3.03-0.42-3.44,2.37c0,0-0.24,2.43,1.9,3.18c0,0-2.46,1.16-2.05,3.12c0,0,0.15,1.99,2.73,2.37c0,0-2.17,1.42-1.28,3.41
		c0,0,0.86,2.32,3.62,1.66c0,0-1.07,2.4,0.56,3.47c0,0,1.51,1.31,3.38,0.03c0,0,0.98-0.36,1.37,0.33c0,0,0.71,1.1-0.77,2.76
		c0,0,8.01-0.65,10.21,12.29h65.54c2.17-12.94,10.3-12.29,10.3-12.29c-1.51-1.63-0.8-2.76-0.8-2.76c0.39-0.68,1.37-0.33,1.37-0.33
		c1.87,1.25,3.41-0.03,3.41-0.03c1.54-1.1,0.56-3.47,0.56-3.47c2.76,0.65,3.65-1.66,3.65-1.66c0.8-1.99-1.34-3.41-1.34-3.41
		c2.61-0.39,2.7-2.37,2.7-2.37C105.75,41.71,103.23,40.55,103.23,40.55z M18.81,59.76c-0.77-0.56-0.53-1.16-0.53-1.16
		c1.93-2.02,2.11-3.18,2.11-3.18c-1.66-1.28-5.79-0.95-5.79-0.95c0.65-2.88,2.55-4.78,2.55-4.78c-5.82-2.73-5.67-8.73-5.67-8.73
		c0-10.75,10.12-10.6,10.12-10.6c-0.65,2.11-0.24,4.13,0.06,4.96c0.33,0.8,1.01,1.66,2.26,5.52c1.22,3.8,0.39,7.54,0.39,7.54
		c4.3,1.19,6.23,3.65,6.23,3.65c-2.49,1.72-2.49,3.5-2.49,3.5c2.11,1.01,4.84,0.45,4.84,0.45c-0.18,2.67-3.03,2.97-3.03,2.97
		c-3.5,0.47-6.14-2.64-6.14-2.64C23.65,60.53,19.64,60.29,18.81,59.76z M28.57,68.04l-5.55-2.05l5.64-2.58l5.82,1.96L28.57,68.04z
		 M40.83,67.24c-1.19,0-2.17-0.95-2.17-2.14c0-1.13,0.98-2.08,2.17-2.08c1.19,0,2.08,0.92,2.08,2.08
		C42.91,66.29,42.02,67.24,40.83,67.24z M43.18,54.68L43.18,54.68c0,0-1.28,3.38-4.63,3.56c0,0-2.88,0.15-3.59-2.67
		c0,0,2.49-0.62,3.35-2.35c0,0-0.95-1.93-4.42-1.93c0,0-0.03-1.84,4.22-5.88c0,0-2.82-1.16-5.55-7.27
		C29.82,32,31.99,27.1,32.73,26.06c0.68-1.01,2.29-2.97,4.57-4.24c0,0,1.69-1.04,3.62-1.25c0,0,1.37-0.18,2.79,1.51
		c1.34,1.72,2.94,3.71,3.77,7.81c0,0,0.8,4.57,0.33,7.51c-0.45,2.91-0.92,4.63-2.61,6.38c0,0,4.33,1.63,6.38,4.84
		c0,0-3.41,1.1-4.1,3.09c0,0,0.83,1.13,3.89,1.75c0,0-0.12,2.46-3.03,3.09C48.34,56.55,44.9,56.91,43.18,54.68z M52.74,67.24
		l-5.67-2.32l5.67-2.29l5.79,2.29L52.74,67.24z M64.7,67.24c-1.19,0-2.14-0.95-2.14-2.14c0-1.17,0.96-2.12,2.13-2.12
		c1.17,0,2.11,0.95,2.12,2.12C66.81,66.29,65.89,67.24,64.7,67.24z M66.96,58.24c-3.38-0.18-4.6-3.56-4.6-3.56
		c-1.72,2.23-5.22,1.87-5.22,1.87c-2.85-0.62-3.03-3.09-3.03-3.09c3.12-0.62,3.89-1.75,3.89-1.75c-0.68-1.99-4.07-3.09-4.07-3.09
		c2.02-3.21,6.35-4.84,6.35-4.84c-1.69-1.75-2.17-3.47-2.61-6.38c-0.45-2.94,0.33-7.51,0.33-7.51c0.89-4.1,2.43-6.09,3.77-7.81
		c1.42-1.72,2.85-1.51,2.85-1.51c1.87,0.24,3.62,1.25,3.62,1.25c2.26,1.28,3.83,3.27,4.57,4.24c0.68,1.04,2.88,5.94,0.15,12.08
		c-2.73,6.12-5.55,7.27-5.55,7.27c4.22,4.04,4.22,5.88,4.22,5.88c-3.5,0-4.42,1.93-4.42,1.93c0.86,1.72,3.32,2.35,3.32,2.35
		C69.87,58.36,66.96,58.24,66.96,58.24z M76.93,68.04l-5.94-2.7l5.85-1.93l5.55,2.55L76.93,68.04z M88.3,49.48L88.3,49.48
		c0,0,1.9,1.99,2.61,4.81c0,0-4.13-0.33-5.79,0.95c0,0,0.15,1.16,2.08,3.21c0,0,0.36,0.59-0.5,1.16c-0.8,0.5-4.84,0.77-4.96-3.47
		c0,0-2.61,3.15-6.14,2.7c0,0-2.79-0.36-2.97-3c0,0,2.67,0.53,4.81-0.45c0,0-0.06-1.75-2.52-3.44c0,0,1.93-2.49,6.26-3.65
		c0,0-0.83-3.77,0.39-7.57c1.28-3.8,1.9-4.72,2.23-5.55c0.36-0.77,0.77-2.79,0.12-4.93c0,0,10.09-0.21,10.15,10.6
		C94.03,40.82,94.12,46.84,88.3,49.48z"/>
</g>
</svg>
