<?xml version="1.0" encoding="utf-8"?>
<!-- Generator: Adobe Illustrator 25.4.1, SVG Export Plug-In . SVG Version: 6.00 Build 0)  -->
<svg version="1.1" id="Layer_1" xmlns="http://www.w3.org/2000/svg" xmlns:xlink="http://www.w3.org/1999/xlink" x="0px" y="0px"
	 viewBox="0 0 1074.26 80" style="enable-background:new 0 0 1074.26 80;" xml:space="preserve">
<style type="text/css">
	.st0{fill:#E11027;}
</style>
<g>
	<path class="st0" d="M675.56,27.46c2.49-0.5,5.61-1.46,7.02-2.82c1.33-1.3,2.57-3.12,2.21-5.06c-0.77-2.27-2.65,1.33-4.34,0.41
		c-0.83-0.58,1.33-2.68,2.68-2.24c0.39-0.44,0.64-1.08,0.69-1.6c-0.33-0.39-1.02-0.47-1.44-0.22c-1.8,0.99-3.34,2.57-3.18,5.03
		c0.33,2.79,2.98-0.58,4.42,0.22C681.97,24.28,677.86,25.41,675.56,27.46 M813.6,38.67c-0.5,0.55-0.88,1.24-1.16,1.88
		c-0.44,0.94-0.36,2.71,0.55,3.31c0.99,0.58,2.96,0.19,3.92-1.82c0.55,0.25,1.05,0.44,2.02,0.08c1.6-0.72,1.55-3.31,1.55-4.97
		c-0.75,0.64-0.22,1.96-1.16,2.57c-0.91,0.52-1.74-0.47-1.74-1.16c-0.5,0.77-0.86,2.21-1.91,2.73c-0.61,0.33-1.52,0.61-2.1,0.11
		C812.72,40.55,813.88,39.53,813.6,38.67 M841.17,18.15c-16.05,4.89-33.26,10.22-50.03,13.95l-1.71,4.17
		c16.85-4.67,34.14-9.31,50.39-15.47L841.17,18.15L841.17,18.15z M1022,12.6c0,0-1.93-0.06-3.18,0.58c0,0,4.45,1.19,6.57,6.33
		c2.18-5.14,6.57-6.33,6.57-6.33c-1.19-0.64-3.15-0.58-3.15-0.58c-0.19-0.66-0.94-1.19-0.94-1.19c0.61-0.69,1.74-1.44,1.74-1.44
		l-4.2-9.97l-4.14,9.97c0,0,1.13,0.75,1.71,1.44C1022.94,11.41,1022.19,11.93,1022,12.6 M125.54,65.41
		c-5.88-9.36-10-19.7-14.03-29.7h-8.09c-0.17,0-0.19,0.06-0.19,0.17c0,0.28,2.98,1.08,2.24,5c-1.13,5.94-3.81,12.43-11.08,27.1
		c-0.06,0.11-0.5,0.94-0.58,1.13c-0.06,0.08-0.08,0.14,0.58,0.14h6.63c0.17,0,0.22-0.08,0.22-0.19c0-0.61-2.82-0.61-2.35-2.73
		c0.64-2.38,2.76-6.66,4.25-10h10.91c2.1,3.95,3.92,8.12,6.41,11.82v0.03c0.19,0.3,0.5,0.83,0.69,0.97
		c0.25,0.17,1.08,0.14,1.52,0.14c1.05,0.03,6.52,0,6.52,0c0.14,0,0.19-0.08,0.19-0.19C129.38,68.54,127.56,68.45,125.54,65.41
		 M104.19,53.84c2.73-6.52,3.67-11.85,3.67-11.85c1.88,3.56,4.89,11.85,4.89,11.85S104.19,53.84,104.19,53.84z M591.75,73.67
		c2.96-1.44,6.19-1.85,9.25-2.71c2.49-1.52,2.79-4.39,3.67-6.82c-2.82,1.46-6.22,1.82-9.25,2.85
		C592.42,67.82,592.58,71.49,591.75,73.67 M620.18,27.9c-1.52-1.35-3.67-2.46-5.41-3.29c-0.99,1.49-2.29,3.37-2.62,5.44
		c1.77,1.46,3.59,2.27,5.44,3.37C619.13,31.3,619.74,29.17,620.18,27.9 M541.26,34.92c14.89-3.01,29.61-6.63,43.98-10.77
		c1.6-0.55,5.5-1.1,5.25-3.54C574.8,24.78,559,28.51,543.11,31.8l-0.94,1.35C541.84,33.56,540.65,34.81,541.26,34.92 M639.16,58.12
		l0.17-2.73c0.5-5.47-6.24-7.71-7.49-12.57c0.19-1.55,0.91-2.82,1.93-3.98c2.29-2.18,5.06-2.87,8.29-1.93
		c3.73,1.22,5.03,4.83,5.55,8.37c-2.9,13.15-17.49,19.5-27.85,24.89l0.97-0.06c6.74-0.88,11.44-1.91,16.71-3.76
		c5.36-1.99,9.06-8.15,10.86-13.23c2.15-6.3,3.29-15.5-1.46-20.97c-2.6-2.57-6.99-3.67-10.3-2.02c-3.54,1.52-6.22,5.28-6.63,9.28
		C628.96,46.96,633.27,53.73,639.16,58.12 M644.29,70.36c5.39-0.08,13.76-1.33,16.8-2.54c5.52-2.98,7.43-8.07,8.7-14.12
		c1.02-5.06-0.41-8.29,3.01-10.58c1.38-0.83,0.8-3.54,1.13-5.61c-0.19-0.28-0.52-0.52-0.86-0.52c-4.03,1.35-3.78,5.58-4.31,9.12
		c-2.04,12.27-12.79,20.11-22.68,23.48C646.09,69.59,644.29,70.36,644.29,70.36z M562.55,41.8c0.5,2.65,4.17,0.97,5.39-1.19
		c0.25,0.41,0.52,0.64,1.05,0.75c0.52,0.03,1.41-0.08,1.96-1.52c0.39-0.94,0.55-2.32-0.08-3.59l-0.22,1.41
		c-0.15,0.74-0.79,1.29-1.55,1.33c-0.8,0.03-0.64-0.91-0.75-1.35c-0.94,0.33-0.64,1.77-2.38,2.68c-0.61,0.33-1.69,0.69-2.15-0.11
		c-0.41-0.88,0.3-1.63,0.39-2.38C563.08,38.56,562.42,40.28,562.55,41.8 M504.18,69.28c1.66-0.36,2.79-1.3,3.92-3.51
		c3.18-6.71,4.94-15.06,10.58-16.33c0.88,0.72,0.66,2.1,0.94,3.31c1.82,9.06,10.8,13.29,18.09,14.86c25.25,5,49.31-2.15,68.56-18.73
		l0.3-0.22c-1.1,6.19,2.73,8.56,5.64,8.04c4.03-0.69,5.66-5.33,7.04-8.29c0.86-1.99,1.44-3.45,1.82-4.81
		c0.36-1.13,0.64-2.21,0.88-3.31l-0.97,0.58c-2.71,2.07-3.23,5.72-5.69,8.04c-0.97,0.88-2.49,1.46-3.92,1.05
		c-1.85-0.64-2.32-2.27-2.38-3.95c0.03-1.52,0.36-3.04,0.36-3.98l0.03-0.52h-0.03l0.03-0.36c-15.47,13.18-33.73,20.75-54.2,21.6
		c-12.51-0.19-25.39-1.46-32.82-11.99c-1.33-2.29-1.85-5-2.46-7.54c-1.93-0.75-4.12,1.05-5.47,2.29
		c-5.25,4.83-5.44,12.13-10.41,16.91c-2.49,1.35-6.74-1.3-6.69-5.44c0.14-5.8,4.06-10.47,8.7-14.28
		c7.27-5.91,13.31-13.51,14.67-22.04c-3.34,1.49-7.43,2.1-11.16,2.9c-2.04,0.94-2.38,3.7-3.07,6.74c2.98-0.97,6.66-1.41,10-2.38
		l0.03,0.17c-3.07,7.43-10.94,10.17-16.35,15.94c-5.28,5.64-6.6,14.67-3.51,20.99C498.49,68.65,500.9,69.64,504.18,69.28
		 M857.94,66.85c-2.73,1.33-6.22,1.82-9.25,2.68c-2.85,0.97-2.9,4.72-3.81,6.99c2.73-1.22,5.94-1.77,8.87-2.57
		C856.56,72.79,856.83,69.28,857.94,66.85 M371.09,66.35c-0.19-1.55-0.41-8.81-0.5-12.6l0.08-16.91c0,0,0.06-0.88-0.22-1.02
		c-0.3-0.14-1.08-0.08-1.52-0.08h-6.49c-0.14,0-0.19,0.06-0.19,0.17c0,0.61,2.07,0.64,2.32,2.76c0.19,1.55,0.41,8.81,0.5,12.57
		l-0.06,14.25c-0.03,1.1-0.03,2.43-0.03,2.71c-0.03,0.22,0,0.83,0.22,0.97c0.25,0.19,1.05,0.14,1.49,0.14h6.49
		c0.14,0,0.19-0.08,0.19-0.19C373.41,68.51,371.31,68.45,371.09,66.35 M995.48,71.74c0.14,1.41,0.17,2.71,0.17,2.71h59.31
		c0,0,0.06-1.22,0.17-2.57c0.14-1.41,0.3-2.51,0.3-2.51H995.2C995.17,69.39,995.4,70.55,995.48,71.74 M907.3,69.28h0.39
		c6.71,0.14,12.87,0.58,18.95-1.93c5.22-2.9,7.1-7.68,8.54-12.43c4.03-13.65,0-27.87-10.44-37.15c-2.87,8.7,0.69,17.6,1.44,26.08
		c0.5,2.9,0.06,6.19,0.75,9.01c3.09-8.81,0.72-17.38-0.86-25.52L926,26.74c5.17,6.57,9.03,12.79,8.54,20.75
		C933.19,61.63,917.61,65.17,907.3,69.28 M177.03,35.75h-6.49c-0.17,0-0.22,0.06-0.22,0.17c0,0.61,2.07,0.64,2.32,2.76
		c0.22,1.55,0.28,8.81,0.39,12.57L173,64.5c0,0-0.06,2.4-0.86,4.78c-1.05,3.15-6.05,6.63-9.78,6.63c-5.47,0-12.35-2.49-9.42-12.02
		c-0.94-0.33-1.27,1.05-2.71,1.6c-3.76,1.33-9.72,1.27-13.76,0c-0.08-4.34-0.14-8.09-0.14-12.43V36.91c0,0,0.08-0.88-0.17-1.02
		c-0.3-0.14-1.08-0.08-1.52-0.08h-6.46c-0.17,0-0.22,0.06-0.22,0.17c0,0.61,2.07,0.64,2.35,2.76c0.08,0.77,0.19,3.01,0.3,5.52
		c0.11,8.26,0.3,17.15-0.22,25.11h19.81c0,0-0.44,5.47,1.55,7.87c2.73,3.31,7.32,3.2,11.69,1.96c6.46-1.96,14.64-7.4,15.19-14.17
		c0.11-3.65,0.11-7.43,0.11-11.19l0.08-16.91c0,0,0.06-0.88-0.19-1.02C178.25,35.69,177.47,35.75,177.03,35.75 M1072.36,37.73
		c2.04-0.69,1.8-2.96,1.8-2.96c-0.44-2.6-3.2-2.21-3.2-2.21c1.74-2.04,0.39-3.62,0.39-3.62c-1.33-1.66-3.45-0.58-3.45-0.58
		c0.97-2.15-0.3-3.23-0.3-3.23c-1.71-1.46-3.48,0.06-3.48,0.06c-0.06-2.07-1.55-2.6-1.55-2.6c-1.8-0.75-3.12,0.86-3.12,0.86
		c-1.3-3.62-3.84-1.8-4.48-1.49c-0.61,0.33-0.69-0.03-0.69-0.03c-0.11-4.36-3.81-2.71-3.81-2.71c0.99-2.15-0.75-3.4-0.75-3.4
		c-1.91-1.16-3.48,0.47-3.48,0.47c-0.19-2.87-2.32-2.02-2.98-1.77c-0.64,0.14-2.04,0.22-2.04,0.22c-4.42-0.55-5.99-0.3-5.99-0.3
		c-5.33-0.11-9.89,8.76-9.89,8.76v0.06l-0.08-0.08c0,0-4.56-8.87-9.89-8.76c0,0-1.63-0.25-5.99,0.3c0,0-1.35-0.06-2.04-0.22
		c-0.69-0.25-2.82-1.1-2.98,1.77c0,0-1.57-1.63-3.48-0.47c0,0-1.74,1.24-0.75,3.4c0,0-3.7-1.66-3.81,2.71c0,0-0.03,0.36-0.69,0.03
		c-0.58-0.3-3.15-2.1-4.45,1.49c0,0-1.33-1.63-3.09-0.86c0,0-1.52,0.52-1.57,2.6c0,0-1.77-1.52-3.48-0.06c0,0-1.24,1.08-0.33,3.23
		c0,0-2.07-1.08-3.37,0.58c0,0-1.38,1.57,0.39,3.62c0,0-2.82-0.39-3.2,2.21c0,0-0.22,2.27,1.77,2.96c0,0-2.29,1.08-1.91,2.9
		c0,0,0.14,1.85,2.54,2.21c0,0-2.02,1.33-1.19,3.18c0,0,0.8,2.15,3.37,1.55c0,0-0.99,2.24,0.52,3.23c0,0,1.41,1.22,3.15,0.03
		c0,0,0.91-0.33,1.27,0.3c0,0,0.66,1.02-0.72,2.57c0,0,7.46-0.61,9.5,11.44h60.99c2.02-12.04,9.59-11.44,9.59-11.44
		c-1.41-1.52-0.75-2.57-0.75-2.57c0.36-0.64,1.27-0.3,1.27-0.3c1.74,1.16,3.18-0.03,3.18-0.03c1.44-1.02,0.52-3.23,0.52-3.23
		c2.57,0.61,3.4-1.55,3.4-1.55c0.75-1.85-1.24-3.18-1.24-3.18c2.43-0.36,2.51-2.21,2.51-2.21
		C1074.71,38.81,1072.36,37.73,1072.36,37.73 M993.79,55.61c-0.72-0.52-0.5-1.08-0.5-1.08c1.8-1.88,1.96-2.96,1.96-2.96
		c-1.55-1.19-5.39-0.88-5.39-0.88c0.61-2.68,2.38-4.45,2.38-4.45c-5.41-2.54-5.28-8.12-5.28-8.12c0-10,9.42-9.86,9.42-9.86
		c-0.61,1.96-0.22,3.84,0.06,4.61c0.3,0.75,0.94,1.55,2.1,5.14c1.13,3.54,0.36,7.02,0.36,7.02c4.01,1.1,5.8,3.4,5.8,3.4
		c-2.32,1.6-2.32,3.26-2.32,3.26c1.96,0.94,4.5,0.41,4.5,0.41c-0.17,2.49-2.82,2.76-2.82,2.76c-3.26,0.44-5.72-2.46-5.72-2.46
		C998.3,56.33,994.57,56.1,993.79,55.61 M1002.88,63.31l-5.17-1.91l5.25-2.4l5.41,1.82C1008.38,60.83,1002.88,63.31,1002.88,63.31z
		 M1014.29,62.57c-1.1,0-2.02-0.88-2.02-1.99c0-1.05,0.91-1.93,2.02-1.93c1.1,0,1.93,0.86,1.93,1.93
		C1016.23,61.68,1015.4,62.57,1014.29,62.57 M1016.47,50.88c0,0-1.19,3.15-4.31,3.31c0,0-2.68,0.14-3.34-2.49
		c0,0,2.32-0.58,3.12-2.18c0,0-0.88-1.8-4.12-1.8c0,0-0.03-1.71,3.92-5.47c0,0-2.62-1.08-5.17-6.77
		c-2.54-5.72-0.52-10.28,0.17-11.24c0.64-0.94,2.13-2.76,4.25-3.95c0,0,1.57-0.97,3.37-1.16c0,0,1.27-0.17,2.6,1.41
		c1.24,1.6,2.73,3.45,3.51,7.27c0,0,0.75,4.25,0.3,6.99c-0.41,2.71-0.86,4.31-2.43,5.94c0,0,4.03,1.52,5.94,4.5
		c0,0-3.18,1.02-3.81,2.87c0,0,0.77,1.05,3.62,1.63c0,0-0.11,2.29-2.82,2.87C1021.28,52.62,1018.08,52.96,1016.47,50.88
		 M1025.37,62.57l-5.28-2.15l5.28-2.13l5.39,2.13L1025.37,62.57z M1036.5,62.57c-1.1,0-1.99-0.88-1.99-1.99
		c0-1.09,0.89-1.97,1.98-1.97c1.09,0,1.97,0.88,1.97,1.97C1038.46,61.68,1037.61,62.57,1036.5,62.57 M1038.6,54.2
		c-3.15-0.17-4.28-3.31-4.28-3.31c-1.6,2.07-4.86,1.74-4.86,1.74c-2.65-0.58-2.82-2.87-2.82-2.87c2.9-0.58,3.62-1.63,3.62-1.63
		c-0.64-1.85-3.78-2.87-3.78-2.87c1.88-2.98,5.91-4.5,5.91-4.5c-1.57-1.63-2.02-3.23-2.43-5.94c-0.41-2.73,0.3-6.99,0.3-6.99
		c0.83-3.81,2.27-5.66,3.51-7.27c1.33-1.6,2.65-1.41,2.65-1.41c1.74,0.22,3.37,1.16,3.37,1.16c2.1,1.19,3.56,3.04,4.25,3.95
		c0.64,0.97,2.68,5.52,0.14,11.24c-2.54,5.69-5.17,6.77-5.17,6.77c3.92,3.76,3.92,5.47,3.92,5.47c-3.26,0-4.12,1.8-4.12,1.8
		c0.8,1.6,3.09,2.18,3.09,2.18C1041.31,54.31,1038.6,54.2,1038.6,54.2 M1047.88,63.31l-5.52-2.51l5.44-1.8l5.17,2.38
		C1052.97,61.38,1047.88,63.31,1047.88,63.31z M1058.46,46.05c0,0,1.77,1.85,2.43,4.48c0,0-3.84-0.3-5.39,0.88
		c0,0,0.14,1.08,1.93,2.98c0,0,0.33,0.55-0.47,1.08c-0.75,0.47-4.5,0.72-4.61-3.23c0,0-2.43,2.93-5.72,2.51c0,0-2.6-0.33-2.76-2.79
		c0,0,2.49,0.5,4.48-0.41c0,0-0.06-1.63-2.35-3.2c0,0,1.8-2.32,5.83-3.4c0,0-0.77-3.51,0.36-7.04c1.19-3.54,1.77-4.39,2.07-5.17
		c0.33-0.72,0.72-2.6,0.11-4.59c0,0,9.39-0.19,9.45,9.86C1063.79,37.98,1063.88,43.59,1058.46,46.05 M438.13,35.91
		c0,0.61,2.15,0.77,2.43,2.27c1.41,7.51,0.86,24.23,0.86,24.23c-9.2-7.68-16.68-17.04-24.23-26.35c-0.44-0.41-1.66-0.3-2.38-0.3h-5
		c-0.14,0-0.19,0.06-0.19,0.17c-0.06,0.64,1.27,0.55,2.71,2.24c0.77,0.99,1.3,2.15,1.35,3.18c0.22,3.51,0.08,5.99-0.03,10.03
		c-0.08,4.03-0.64,16.38-0.64,16.82c-0.03,0.22-0.03,0.83,0.22,0.97c0.25,0.19,1.05,0.14,1.52,0.14h3.98c0.14,0,0.19-0.08,0.19-0.19
		c0.03-0.61-2.07-0.64-2.35-2.73c-0.11-1.1-0.25-5.06-0.39-8.59c-0.08-4.59,0.03-8.18,0.3-12.27c7.65,8.92,25.11,25.44,26.3,26.38
		c0.75,0.55,0.83,0.14,0.83,0.14c0.8-11.33,0.39-24.67,1.1-36.27h-6.44C438.19,35.75,438.13,35.8,438.13,35.91 M407.53,65.41
		c-5.88-9.36-10-19.7-14.01-29.7h-8.12c-0.14,0-0.22,0.06-0.22,0.17c0,0.28,3.01,1.08,2.24,5c-1.13,5.94-3.81,12.43-11.1,27.1
		c-0.06,0.11-0.47,0.94-0.58,1.13c-0.03,0.08-0.06,0.14,0.61,0.14h6.63c0.14,0,0.22-0.08,0.22-0.19c0-0.61-2.82-0.61-2.38-2.73
		c0.66-2.38,2.76-6.66,4.25-10h10.94c2.1,3.95,3.92,8.12,6.41,11.82v0.03c0.22,0.3,0.52,0.83,0.72,0.97
		c0.25,0.17,1.08,0.14,1.52,0.14c1.08,0.03,6.49,0,6.49,0c0.17,0,0.22-0.08,0.22-0.19C411.37,68.54,409.57,68.45,407.53,65.41
		 M386.17,53.84c2.71-6.52,3.65-11.85,3.65-11.85c1.91,3.56,4.89,11.85,4.89,11.85L386.17,53.84L386.17,53.84z M723.55,51.71
		c1.68-11.44-3.07-22.65-9.28-29.97c-1.1,6.16-0.28,22.71,1.08,32.96c3.48-7.49-0.14-15.17,0.5-23.04c2.04,3.01,3.18,6.08,4.42,9.45
		c2.04,5.52,0.72,12.9-3.67,17.62c-2.68,2.87-6.49,4.53-10.06,3.34c-1.35-0.44-2.57-1.88-2.57-1.88s0.97-2.38,2.07-6.33
		c2.07-8.65,0.52-16.1-5.14-25.5c-4.7,9.7-5.61,22.65-1.85,32.46c-3.87,4.09-8.95,2.04-9.97,0.44c5.08-9.39,4.01-22.68-2.04-32.51
		c-4.42,8.81-6.08,21.46-2.87,32.4c-5,4.64-11.1,7.1-16.91,9.89c7.43-0.41,13.81-0.97,19.09-5c1.88,2.18,4.17,3.92,7.07,3.92
		c3.43,0,6.46-2.27,8.26-3.92c3.92,4.09,9.53,3.51,12.13,1.99C719.82,64.53,722.64,57.96,723.55,51.71 M686.83,57.68
		c-3.34-5.52-2.51-13.87,0-19.53C689.79,43.65,691.92,52.35,686.83,57.68 M700.73,38.31c3.34,4.92,5.5,12.6,0.99,19.01
		C698.11,52.65,698.93,44.25,700.73,38.31 M350.87,35.91c-0.03,0.61,2.15,0.77,2.43,2.27c1.44,7.51,0.86,24.23,0.86,24.23
		c-9.2-7.68-16.68-17.04-24.23-26.35c-0.44-0.41-1.66-0.3-2.35-0.3h-5c-0.17,0-0.19,0.06-0.22,0.17c-0.03,0.64,1.3,0.55,2.73,2.24
		c0.77,0.99,1.27,2.15,1.35,3.18c0.19,3.51,0.06,5.99-0.03,10.03c-0.08,4.03-0.66,16.38-0.66,16.82c0,0.22-0.03,0.83,0.19,0.97
		c0.25,0.19,1.08,0.14,1.49,0.14h4.06c0.11,0,0.19-0.08,0.19-0.19c0-0.61-2.07-0.64-2.35-2.73c-0.11-1.1-0.28-5.06-0.39-8.59
		c-0.08-4.59,0.03-8.18,0.3-12.27c7.65,8.92,25.11,25.44,26.3,26.38c0.77,0.55,0.8,0.14,0.8,0.14c0.83-11.33,0.39-24.67,1.1-36.27
		h-6.41C350.93,35.75,350.87,35.8,350.87,35.91 M209.96,36.27c-7.76-1.41-16.74-0.3-21.85,4.81c-4.72,4.7-6.33,20.75,3.07,25.91
		c5.72,3.18,14.56,2.93,20.19-0.36c8.34-4.89,9.17-15.22,6.66-23.43C216.81,39.09,213.38,37.1,209.96,36.27 M212.5,61.82
		c-0.39,0.47-0.77,0.83-1.24,1.1c-4.92,3.26-15.8,1.38-19.12-2.98c-1.66-2.4-2.21-6.05-2.13-9.48c-0.03-2.6,0.28-5.77,1.77-8.23
		c3.29-5.17,16.68-2.9,20.36,1.88C215.54,49.14,214.21,59.56,212.5,61.82 M288.49,45.17c-3.18-10.99-17.49-9.42-29.14-9.42h-4.12
		c-2.29,0,0.47,0.44,0.94,2.29c0.33,13.23,0.06,24.06,0.06,24.06c-0.03,1.16-0.03,2.32-0.03,3.48c-0.17,2.49-2.38,3.37-3.98,2.35
		c-5.3-4.17-6.82-11.41-11.27-14.34c2.29-1.44,4.83-3.09,6.27-5.58c1.27-2.82,1.35-7.07-1.08-9.34c-1.96-2.15-5.77-2.9-10.28-2.9
		h-12.24c-2.49,0,0.99,0.55,0.99,2.82c0.44,10.52,0.06,30.72,0.06,30.72h8.26c0.03-0.83-2.1-0.91-2.4-2.15
		c0,0-0.17-11.19-0.19-11.88c0-0.75,0.64-0.75,0.64-0.75c2.27-0.11,4.06-0.44,5.33,1.24c1.27,1.66,6.38,13.07,13.23,15.03
		c0.88,0.22,1.77,0.33,2.68,0.3c2.51,0.08,4.89-0.83,6.93-2.13c8.29,0.41,17.38,1.74,24.14-3.48
		C290.4,60.61,290.21,52.46,288.49,45.17 M231.31,51.1c-0.58-0.06-0.86-0.47-0.86-0.97V39.61c3.81-1.27,9.64-1.35,11.41,1.52
		c1.46,2.35,1.41,7.1-0.33,8.81C239.3,51.85,232.03,51.22,231.31,51.1 M281.09,63.18c-4.09,3.54-13.4,1.93-19.09,1.35V39.97
		c2.29-0.77,3.7-0.83,7.73-0.66c4.31,0.17,10.17,1.49,12.4,5.28C284.77,48.87,285.57,59.34,281.09,63.18 M320.21,65.41
		c-5.88-9.36-10-19.7-14.06-29.7h-8.09c-0.14,0-0.22,0.06-0.22,0.17c0,0.28,3.01,1.08,2.24,5c-1.13,5.94-3.78,12.43-11.1,27.1
		c-0.06,0.11-0.5,0.94-0.58,1.13c-0.03,0.08-0.06,0.14,0.61,0.14h6.63c0.17,0,0.19-0.08,0.19-0.19c0-0.61-2.82-0.61-2.35-2.73
		c0.66-2.38,2.79-6.66,4.25-10h10.94c2.1,3.95,3.92,8.12,6.38,11.82v0.03c0.22,0.3,0.52,0.83,0.72,0.97
		c0.25,0.17,1.08,0.14,1.52,0.14c1.08,0.03,6.52,0,6.52,0c0.14,0,0.19-0.08,0.19-0.19C324.05,68.54,322.22,68.45,320.21,65.41
		 M298.83,53.84c2.73-6.52,3.67-11.85,3.67-11.85c1.88,3.56,4.92,11.85,4.92,11.85S298.83,53.84,298.83,53.84z M85.21,67.02
		l-0.14-9.81c5.36-6.6,10.52-13.59,12.76-21.44h-5.8c-2.51,0,0.97,0.55,0.97,2.82c-0.44,4.81-5.11,10.69-9.23,15.55L72.92,35.8
		h-8.15c-0.14,0-0.19,0.06-0.19,0.17c-0.03,0.64,1.57,0.39,3.04,2.46c4.21,6.17,8.11,12.54,11.71,19.09c0,3.45,0.11,11.8,0.11,11.8
		h8.18C87.58,68.12,85.43,68.34,85.21,67.02 M57.14,36.27c-7.76-1.41-16.71-0.3-21.82,4.81c-4.06,4.06-5.83,16.49-0.22,23.18h-0.03
		l0.06,0.06c0.14,0.19,0.3,0.36,0.47,0.55c0.22,0.28,0.39,0.61,0.3,0.88c-1.05,3.07-5.08,3.01-6.41,2.18
		c-5.3-4.17-6.85-11.41-11.3-14.34c2.32-1.44,4.86-3.09,6.3-5.58c1.27-2.82,1.35-7.07-1.05-9.34c-1.93-2.15-5.8-2.9-10.28-2.9H0.9
		c-2.49,0,0.97,0.55,0.97,2.82c0.47,10.52,0.11,30.72,0.11,30.72h8.23c0.03-0.83-2.07-0.91-2.4-2.15c0,0-0.17-11.19-0.17-11.88
		c-0.03-0.75,0.58-0.75,0.58-0.75c2.27-0.11,4.09-0.44,5.33,1.24c1.27,1.66,6.38,13.07,13.23,15.03c4.14,1.02,8.56-0.83,11.57-3.2
		l0.36-0.36c5.75,2.96,14.28,2.65,19.81-0.55c8.37-4.89,9.17-15.22,6.66-23.43C63.99,39.09,60.6,37.1,57.14,36.27 M8.61,51.1
		C8,51.05,7.72,50.64,7.72,50.14V39.61c3.81-1.27,9.67-1.35,11.44,1.52c1.44,2.35,1.41,7.1-0.3,8.81
		C16.59,51.85,9.35,51.22,8.61,51.1 M59.93,61.82c-0.36,0.47-0.77,0.83-1.27,1.1c-4.92,3.26-15.77,1.38-19.12-2.98
		c-1.63-2.4-2.18-6.05-2.13-9.48c-0.03-2.6,0.3-5.77,1.74-8.23c3.31-5.17,16.74-2.9,20.39,1.88C62.97,49.14,61.65,59.56,59.93,61.82
		 M874.71,52.76c1.24,2.62,2.62,5.06,5.64,5.99c2.51,0.83,6.96-1.1,9.59-10.91c1.27,2.04,1.88,3.73,3.76,5.44
		c8.18,7.98,14.48-4.53,21.91-5.86c0.88-1.77,1.35-4.2,1.46-6.1c-2.57,0.08-4.97,2.07-7.98,1.24c-0.88-0.3-1.93-0.72-1.99-2.02
		c1.24-12.29-0.97-24.92-9.48-33.4c-3.84,10.55,1.52,21.41,2.04,32.02c2.35-7.46,0.55-15.14-0.8-22.29
		c5.72,7.82,7.15,17.29,6.22,27.6c-0.88,5.55-5.91,5.25-8.15,3.67c-8.81-6.91-7.6-20.8-11.77-28.98c-2.04,4.03-0.47,8.45,0.44,12.35
		c1.19,4.92,4.86,14.5-0.41,19.25c-3.34,2.98-7.04,0.61-8.31-2.38c-3.23-7.85-4.01-16.13-5.64-24.61l-0.83-0.69
		c-0.5,1.82-1.02,4.01-0.8,6.1c0.52,3.9,2.24,13.95,4.12,20.58c-2.46,5.86-6.05,6.74-7.87,6.35c-4.06-1.77-2.85-6.55-2.93-9.97
		c-9.2,5.14-18.67,10.66-26.35,12.96c-18.12,5.5-40.61,9.64-58.7,1.05c-6.55-3.2-11.99-9.48-11.88-17.07
		c-0.11-0.8-0.94-1.22-1.8-1.13c-7.4,2.71-8.95,10.8-11.35,17.07c-2.62,6.8-8.89,2.18-9.42-0.47c-0.83-9.92,8.81-16.13,14.45-22.6
		c4.03-4.64,6.1-10.14,6.6-16.57c-3.09,1.96-7.57,2.73-10.97,3.87c-2.07,1.08-1.88,4.83-2.51,7.02l9.83-3.04l0.3-0.17
		c-3.51,9.42-15.88,12.51-18.73,22.9c-1.38,5.22-1.49,13.51,2.51,17.4c1.66,1.38,4.81,2.73,7.24,1.27
		c4.86-4.72,3.9-11.52,7.85-16.57c1.24-1.57,2.98-3.65,4.56-3.04l0.88,4.72c2.38,9.36,12.49,14.59,21.08,16.49
		c22.02,3.62,44.23-1.52,62.84-10.64c3.95-1.85,7.27-4.39,11.08-6.16c0.3,5.11,2.13,8.81,5.25,9.42
		C868.02,63.26,871.58,60.97,874.71,52.76 M877.25,23.45c1.55-7.18,1.35-15.25,2.24-22.38l-0.77,0.19l-0.52,3.2
		c-1.66,13.01-14.48,16.96-23.95,23.65c4.01-0.97,8.01-2.18,11.71-3.54c4.75-1.77,8.43-5.99,10.88-9.7
		C877.16,17.24,875.73,20.39,877.25,23.45"/>
</g>
</svg>
