<?xml version="1.0" encoding="utf-8"?>
<!-- Generator: Adobe Illustrator 25.4.1, SVG Export Plug-In . SVG Version: 6.00 Build 0)  -->
<svg version="1.1" id="Layer_1" xmlns="http://www.w3.org/2000/svg" xmlns:xlink="http://www.w3.org/1999/xlink" x="0px" y="0px"
	 viewBox="0 0 337.66 80" style="enable-background:new 0 0 337.66 80;" xml:space="preserve">
<style type="text/css">
	.st0{fill:#898587;}
	.st1{fill:#CF1A2E;}
</style>
<g id="Clip-9">
</g>
<g id="Clip-2">
</g>
<g>
	<g>
		<path class="st0" d="M98.59,24.04c4.23-1.69,6.96-5.18,6.96-10.78v-0.48c0-9.04-6.91-11.94-14.85-11.94
			c-3.76,0-7.42,0.26-10.11,0.69c-1.03,0.16-1.65,0.53-1.65,1.59v36.36c0,0.58,0.46,1.06,1.03,1.06h5.16c0.57,0,0.98-0.48,0.98-1.06
			V25.15c1.19,0.05,3.25,0.21,4.59,0.21h0.72l7.42,14.11c0.26,0.53,0.46,1.06,1.03,1.06h6.29c0.41,0,0.62-0.26,0.62-0.63
			c0-0.1,0-0.26-0.1-0.42L98.59,24.04z M98.44,13.26c0,4.65-2.42,6.13-7.73,6.13c-0.88,0-3.76-0.11-4.59-0.16V7.35
			c0.93-0.11,3.51-0.21,4.59-0.21c5.16,0,7.73,1.69,7.73,5.65V13.26z"/>
		<path class="st0" d="M122.01,10.36c-8.1,0-12.32,5.6-12.32,13.16v4.28c0,7.56,4.23,13.16,12.32,13.16s12.32-5.6,12.32-13.16v-4.28
			C134.33,15.96,130.1,10.36,122.01,10.36z M127.53,27.79c0,4.33-1.91,7.13-5.52,7.13c-3.61,0-5.52-2.8-5.52-7.13v-4.28
			c0-4.33,1.91-7.13,5.52-7.13c3.61,0,5.52,2.8,5.52,7.13V27.79z"/>
		<path class="st0" d="M162.18,10.73h-5.26c-0.52,0-0.93,0.42-1.03,0.9l-5.57,22.72c0,0,0,0-0.15,0c-0.05,0-0.15,0-0.26,0h-0.05
			c-0.31,0-0.52-0.26-0.72-1.16l-5.21-21.51c-0.1-0.48-0.52-0.95-0.98-0.95h-5.21c-0.67,0-0.98,0.32-0.98,0.85
			c0,0.1,0,0.21,0.05,0.37l6.75,24.2c1.13,4.01,2.99,4.39,4.49,4.39h0.77l-0.41,1.58c-0.72,2.75-1.86,3.38-4.07,3.38
			c-1.44,0-4.38-0.26-5.83-0.32c-0.05,0-0.05,0-0.1,0c-0.57,0-1.03,0.37-1.03,0.95v3.38c0,0.53,0.52,0.74,1.08,0.9
			c1.19,0.37,3.76,0.69,5.47,0.69c7.01,0,8.92-2.53,10.52-8.3l8.61-30.86c0.05-0.1,0.05-0.21,0.05-0.32
			C163.11,11.15,162.7,10.73,162.18,10.73z"/>
		<path class="st0" d="M176.73,10.36c-3.56,0-6.55,0.42-8.61,0.85c-0.67,0.16-0.98,0.53-0.98,1.11v3.38c0,0.74,0.41,0.9,0.93,0.9
			c0.05,0,0.15,0,0.26,0c1.7-0.21,5.1-0.42,8.4-0.42c3.04,0,4.54,0.85,4.54,4.28v2.33h-3.25c-8.97,0-12.58,3.12-12.58,9.14v0.21
			c0,7.13,4.64,8.82,8.92,8.82c2.47,0,4.9-0.84,7.27-2.32v0.85c0,0.58,0.46,1.06,1.03,1.06h4.38c0.57,0,1.03-0.48,1.03-1.06V20.45
			C188.07,13.69,184.05,10.36,176.73,10.36z M181.27,33.92c-1.5,0.85-3.4,1.48-5.26,1.48c-2.58,0-3.71-0.69-3.71-3.28v-0.21
			c0-2.96,1.03-4.49,5.72-4.49h3.25V33.92z"/>
		<path class="st0" d="M200.87,0.32h-4.8c-0.57,0-1.03,0.48-1.03,1.06v38.05c0,0.58,0.46,1.11,1.03,1.11h4.8
			c0.57,0,0.98-0.53,0.98-1.11V1.37C201.85,0.79,201.43,0.32,200.87,0.32z"/>
		<path class="st0" d="M231.5,1.58c-1.71-0.26-3.8-0.74-10.17-0.74c-6.96,0-12.37,1.85-12.37,10.83v27.8c0,0.58,0.48,1.06,1.07,1.06
			h5.25c0.59,0,1.07-0.48,1.07-1.06V23.3h14.51c0.59,0,1.07-0.48,1.07-1.06v-3.81c0-0.58-0.48-1.06-1.07-1.06h-14.51v-5.71
			c0-3.49,1.12-4.54,4.23-4.54h10.92c0.59,0,1.07-0.48,1.07-1.06V2.69C232.57,1.96,232.3,1.69,231.5,1.58z"/>
		<path class="st0" d="M242.6,0.32h-4.57c-0.54,0-0.98,0.48-0.98,1.06v38.05c0,0.58,0.44,1.11,0.98,1.11h4.57
			c0.54,0,0.93-0.53,0.93-1.11V1.37C243.54,0.79,243.14,0.32,242.6,0.32z"/>
		<path class="st0" d="M255.83,10.73h-4.53c-0.54,0-0.98,0.48-0.98,1.06v27.64c0,0.58,0.44,1.11,0.98,1.11h4.53
			c0.54,0,0.98-0.53,0.98-1.11V11.78C256.82,11.2,256.37,10.73,255.83,10.73z"/>
		<path class="st0" d="M255.98,0h-4.77c-0.54,0-1.03,0.48-1.03,1.06v4.65c0,0.58,0.49,1.06,1.03,1.06h4.77
			c0.54,0,0.98-0.48,0.98-1.06V1.06C256.97,0.48,256.52,0,255.98,0z"/>
		<path class="st0" d="M281.22,14.6c-2.02-2.09-4.41-3.14-7.1-3.14c-3.45,0-6.3,1.41-8.47,4.19c-2.15,2.75-3.24,6.35-3.24,10.69
			c0,4.22,0.96,7.64,2.85,10.14c1.92,2.54,4.53,3.83,7.78,3.83c3.59,0,6.33-1.54,8.18-4.6v2.7c0,5.84-2.48,8.68-7.58,8.68
			c-2.58,0-5.24-0.69-7.91-2.04l-0.53-0.27l-0.67,5.35l0.32,0.11c2.82,1.01,5.81,1.52,8.88,1.52c4.46,0,7.8-1.24,9.95-3.68
			c1.21-1.39,2.05-3.2,2.49-5.37c0.43-2.12,0.64-5.43,0.64-9.83V12.08h-5.59V14.6z M281.22,19.35v11.32
			c-2.3,2.88-4.76,4.34-7.32,4.34c-3.78,0-5.61-2.87-5.61-8.78c0-3.17,0.6-5.68,1.78-7.48c1.16-1.76,2.72-2.62,4.77-2.62
			C277.12,16.13,279.26,17.22,281.22,19.35z"/>
		<path class="st0" d="M307.95,10.36c-3.49,0-5.56,0.74-7.43,1.96V1.37c0-0.58-0.44-1.06-0.98-1.06h-4.53
			c-0.54,0-0.98,0.48-0.98,1.06v38.05c0,0.58,0.44,1.11,0.98,1.11h4.53c0.54,0,0.98-0.53,0.98-1.11V18.07
			c2.07-1.16,4.03-1.8,5.7-1.8c3.3,0,4.03,1.16,4.03,5.76v17.38c0,0.58,0.44,1.11,0.98,1.11h4.52c0.54,0,0.98-0.53,0.98-1.11V22.04
			C316.76,15.54,314.74,10.36,307.95,10.36z"/>
		<path class="st0" d="M336.63,35.51h-2.61c-1.77,0-1.92-0.32-1.92-2.96V15.96h4.43c0.54,0,0.98-0.48,0.98-1.06v-3.12
			c0-0.58-0.44-1.06-0.98-1.06h-4.43V5.28c0-0.53-0.34-0.79-0.79-0.79c-0.05,0-0.15,0-0.2,0l-4.57,0.85
			c-0.54,0.11-0.98,0.48-0.98,1.06v4.33h-4.62c-0.54,0-0.98,0.48-0.98,1.06v2.38c0,0.58,0.44,0.95,0.98,1.06l4.62,0.74v16.59
			c0,7.08,2.26,8.4,7.82,8.4c1.08,0,2.16-0.16,3.34-0.37c0.64-0.11,0.94-0.42,0.94-0.95V36.3
			C337.66,35.77,337.27,35.51,336.63,35.51z"/>
	</g>
	<g>
		<path class="st0" d="M92.55,79.82h-1.6c-0.24,0-0.41-0.18-0.46-0.38l-1.76-5.84h-7.01L80,79.44c-0.05,0.2-0.27,0.38-0.49,0.38
			h-1.6c-0.27,0-0.46-0.18-0.46-0.41c0-0.05,0-0.13,0.03-0.18l5.01-16.52c0.46-1.55,1.73-1.93,2.76-1.93c1,0,2.27,0.36,2.73,1.9
			l5.01,16.55c0.03,0.05,0.03,0.13,0.03,0.18C93.01,79.64,92.85,79.82,92.55,79.82z M85.76,63.25c-0.08-0.28-0.24-0.46-0.51-0.46
			c-0.3,0-0.46,0.18-0.54,0.46l-2.46,8.35h5.98L85.76,63.25z"/>
		<path class="st0" d="M99.86,63.63h-1.38c-0.3,0-0.54-0.23-0.54-0.51v-2.03c0-0.28,0.24-0.51,0.54-0.51h1.38
			c0.3,0,0.54,0.23,0.54,0.51v2.03C100.4,63.4,100.16,63.63,99.86,63.63z M99.81,79.82h-1.3c-0.3,0-0.54-0.23-0.54-0.51V66.37
			c0-0.28,0.24-0.51,0.54-0.51h1.3c0.3,0,0.54,0.23,0.54,0.51v12.94C100.35,79.59,100.11,79.82,99.81,79.82z"/>
		<path class="st0" d="M112.5,67.62c-1.24,0-2.38,0.3-3.73,1.07v10.63c0,0.25-0.24,0.51-0.54,0.51h-1.33
			c-0.27,0-0.51-0.23-0.51-0.51V66.37c0-0.28,0.22-0.51,0.51-0.51h1.27c0.3,0,0.51,0.23,0.51,0.51v0.53
			c1.35-0.89,2.6-1.22,3.82-1.22c0.38,0,0.57,0.15,0.57,0.46v1.04C113.07,67.46,112.88,67.62,112.5,67.62z"/>
		<path class="st0" d="M119.84,79.82h-1.41c-0.27,0-0.49-0.23-0.49-0.51V61.22c0-0.25,0.19-0.48,0.49-0.48h1.41
			c0.27,0,0.49,0.2,0.49,0.48v18.09C120.32,79.57,120.13,79.82,119.84,79.82z"/>
		<path class="st0" d="M128.5,63.63h-1.38c-0.3,0-0.54-0.23-0.54-0.51v-2.03c0-0.28,0.24-0.51,0.54-0.51h1.38
			c0.3,0,0.54,0.23,0.54,0.51v2.03C129.04,63.4,128.79,63.63,128.5,63.63z M128.44,79.82h-1.3c-0.3,0-0.54-0.23-0.54-0.51V66.37
			c0-0.28,0.24-0.51,0.54-0.51h1.3c0.3,0,0.54,0.23,0.54,0.51v12.94C128.98,79.59,128.74,79.82,128.44,79.82z"/>
		<path class="st0" d="M145.87,79.82h-1.3c-0.3,0-0.54-0.23-0.54-0.51v-8.35c0-2.56-0.92-3.35-2.98-3.35
			c-1.14,0-2.41,0.41-3.65,0.99v10.71c0,0.25-0.24,0.51-0.54,0.51h-1.33c-0.27,0-0.51-0.23-0.51-0.51V66.37
			c0-0.28,0.22-0.51,0.51-0.51h1.35c0.3,0,0.51,0.23,0.51,0.51v0.48c1.49-0.79,2.71-1.17,4.3-1.17c3.25,0,4.71,1.9,4.71,5.28v8.35
			C146.41,79.59,146.17,79.82,145.87,79.82z"/>
		<path class="st0" d="M163.08,73.55h-9.07v0.36c0,3.02,1.27,4.14,3.76,4.14c1.57,0,3.57-0.1,4.82-0.28c0.05,0,0.08,0,0.14,0
			c0.22,0,0.43,0.1,0.43,0.36v0.86c0,0.33-0.11,0.51-0.54,0.58c-1.54,0.28-3.03,0.43-4.84,0.43c-3.11,0-6.14-1.37-6.14-6.09v-2.28
			c0-3.63,2.14-5.94,6.01-5.94c3.95,0,5.95,2.34,5.95,5.94V73C163.6,73.33,163.41,73.55,163.08,73.55z M161.19,71.63
			c0-2.87-1.16-3.98-3.55-3.98c-2.33,0-3.63,1.24-3.63,3.98v0.23h7.17V71.63z"/>
		<path class="st0" d="M173.23,80c-1,0-2.95-0.08-4.28-0.38c-0.35-0.08-0.57-0.23-0.57-0.51v-0.89c0-0.23,0.22-0.38,0.49-0.38
			c0.05,0,0.08,0,0.11,0c1.3,0.15,3.27,0.28,4.25,0.28c1.76,0,2.68-0.43,2.68-1.8c0-0.76-0.49-1.24-2.03-2.11l-2.73-1.52
			c-1.65-0.94-2.76-2.03-2.76-3.63c0-2.64,2.11-3.38,4.9-3.38c1.52,0,2.95,0.13,4.22,0.33c0.35,0.05,0.51,0.23,0.51,0.51v0.84
			c0,0.3-0.19,0.43-0.46,0.43c-0.03,0-0.05,0-0.08,0c-0.95-0.08-2.68-0.2-4.19-0.2c-1.52,0-2.52,0.18-2.52,1.47
			c0,0.76,0.62,1.24,1.87,1.93l2.68,1.5c2.25,1.24,2.98,2.33,2.98,3.83C178.29,78.91,176.26,80,173.23,80z"/>
	</g>
	<path class="st1" d="M0,40.53h10.1l45.45-28.7L18.56,40.95h4.62l6.9-6.72c0,0-1.21,6.72,5.62,6.72s10.88,0,10.88,0L64.22,1.3H48.36
		c0,0-5.33-0.5-11.02,5.05S9.32,34.93,9.32,34.93S5.19,39.5,0,40.53z"/>
</g>
</svg>
