<?xml version="1.0" encoding="utf-8"?>
<!-- Generator: Adobe Illustrator 25.4.1, SVG Export Plug-In . SVG Version: 6.00 Build 0)  -->
<svg version="1.1" xmlns="http://www.w3.org/2000/svg" xmlns:xlink="http://www.w3.org/1999/xlink" x="0px" y="0px"
	 viewBox="0 0 469.5 80" style="enable-background:new 0 0 469.5 80;" xml:space="preserve">
<style type="text/css">
	.st0{fill-rule:evenodd;clip-rule:evenodd;fill:#0033A0;}
	.st1{fill-rule:evenodd;clip-rule:evenodd;fill:#D90012;}
	.st2{fill-rule:evenodd;clip-rule:evenodd;fill:#F2A800;}
	.st3{fill:#0033A0;}
</style>
<g id="Layer_2">
</g>
<g id="Layer_1">
	<g id="Layer_x0020_1">
		<g id="_627372176">
			<path class="st0" d="M387,25.1c6.1-7.2,15.1-11.8,25.1-12.1l34,34h23.3l-47-47h-0.9c-25.6,0-46.4,20.4-47,46l0,1h4.5l0.1-1.4
				c0.5-8.4,7.4-15,15.9-15h0.9h8.7v-8.7h-5.4C394.8,21.9,390.6,23.1,387,25.1z M12.5,25.1c6.1-7.2,15.1-11.8,25.1-12.1l34,34h23.3
				l-47-47H47C21.5,0,0.6,20.4,0,46l0,1h4.5l0.1-1.4c0.5-8.4,7.4-15,15.9-15h0.9h30.7l-8.7-8.7H24.6C20.2,21.9,16.1,23.1,12.5,25.1z
				 M119.8,21.9c2.5,0,4.4-2,4.4-4.4c0-2.5-2-4.4-4.4-4.4H80.4v8.9L119.8,21.9z M81.8,30.6L71.5,20.4V0h52.7
				c8.5,0,15.3,6.9,15.3,15.3c0,8.5-6.8,15.3-15.3,15.3L140.6,47h-23.3l-16.4-16.4L81.8,30.6z M152.9,22.1V47H144V0h10.1l35.5,35.5
				L178,47.2L152.9,22.1z M196.7,47H212V0h-10.1l-22.3,22.3l11.7,11.7l5.4-5.4V47z M231.8,0h52.7v13h-48.2c-2.5,0-4.4,2-4.4,4.4
				s2,4.4,4.4,4.4h48.2v8.7h-50c-1.4,0-2.6,1.2-2.6,2.6s1.2,2.6,2.6,2.6h50V47H229c-6.9,0-12.6-5.6-12.6-12.6c0-3.5,1.5-6.7,3.8-9
				c-2.4-2.7-3.8-6.2-3.8-10.1C216.5,6.9,223.3,0,231.8,0z M298,22.3V47h-9V0h10.2l47,47h-23.5L298,22.3z M345.8,43.4V0h-15.3v28
				L345.8,43.4z M352.4,0h15.4v47h-15.4V0z M406.8,21.9h11l8.7,8.7h-19.8V21.9z"/>
			<g>
				<path class="st1" d="M397.1,0h-22.5v8h11.6C389.5,4.9,393.1,2.2,397.1,0z"/>
				<path class="st0" d="M386.2,8h-11.6v8h4.7C381.3,13.1,383.6,10.4,386.2,8z"/>
				<path class="st2" d="M379.3,16h-4.7v8C375.9,21.1,377.5,18.5,379.3,16z"/>
			</g>
			<path class="st3" d="M41.1,78.3l-0.5,1.5h-3.1l3.7-10.2h3.1l3.7,10.2H45l-0.5-1.5H41.1z M41.9,76.2h2l-1-3L41.9,76.2z M82.2,69.5
				v10.2h-3.1V69.5H82.2z M117.4,76.2v3.5h-3.1V69.5h4.9c1.4,0,2.5,0.3,3.2,0.8c0.7,0.5,1.1,1.3,1.1,2.3c0,1.2-0.6,2-1.7,2.5
				c0.5,0.2,0.9,0.5,1.1,0.8c0.2,0.3,0.3,0.8,0.4,1.3c0,0.5,0.1,1,0.1,1.4c0,0.5,0.1,0.8,0.3,1.1h-3.2c-0.1-0.3-0.1-0.7-0.2-1.4
				c0-0.7-0.2-1.2-0.4-1.6c-0.2-0.3-0.7-0.5-1.3-0.5H117.4z M117.4,72v2h1.7c0.9,0,1.3-0.3,1.3-1c0-0.4-0.1-0.6-0.3-0.7
				c-0.2-0.1-0.5-0.2-1-0.2H117.4z M164.6,75.9c-0.1,0.8-0.3,1.6-0.8,2.2c-0.4,0.6-1,1.1-1.6,1.4c-0.7,0.3-1.4,0.5-2.3,0.5
				c-1.5,0-2.7-0.5-3.7-1.5c-1-1-1.5-2.3-1.5-3.7c0-1.1,0.2-2,0.6-2.8c0.4-0.8,1-1.5,1.8-1.9c0.8-0.5,1.6-0.7,2.6-0.7
				c0.9,0,1.6,0.2,2.3,0.5c0.7,0.3,1.3,0.8,1.7,1.4c0.4,0.6,0.7,1.3,0.7,2.1h-3c-0.1-0.5-0.2-0.8-0.5-1.1s-0.7-0.4-1.2-0.4
				c-0.6,0-1.1,0.3-1.4,0.8c-0.4,0.5-0.5,1.2-0.5,2.1c0,0.9,0.2,1.5,0.6,2c0.4,0.5,0.9,0.7,1.5,0.7c0.4,0,0.8-0.1,1.1-0.4
				c0.3-0.3,0.4-0.7,0.5-1.2H164.6z M195.6,74.6c0-0.8,0.1-1.5,0.4-2.2c0.2-0.7,0.6-1.2,1-1.7c0.4-0.5,1-0.8,1.6-1.1
				c0.6-0.3,1.4-0.4,2.1-0.4c0.8,0,1.5,0.1,2.2,0.4c0.6,0.3,1.2,0.6,1.6,1.1c0.5,0.5,0.8,1,1.1,1.7c0.2,0.7,0.4,1.4,0.4,2.2
				c0,1.1-0.2,2-0.6,2.8c-0.4,0.8-1,1.5-1.8,1.9c-0.8,0.4-1.7,0.7-2.7,0.7c-1.5,0-2.8-0.5-3.7-1.5C196.1,77.5,195.6,76.2,195.6,74.6
				z M198.7,74.6c0,0.9,0.2,1.5,0.6,2.1s0.9,0.8,1.5,0.8c0.6,0,1.1-0.2,1.5-0.8c0.4-0.5,0.6-1.2,0.6-2.1c0-0.9-0.2-1.5-0.6-2
				c-0.4-0.5-0.9-0.8-1.5-0.8c-0.6,0-1.1,0.3-1.5,0.8C198.9,73.1,198.7,73.8,198.7,74.6z M248.7,69.5v10.2h-2.8v-6l-1.5,6h-2.3
				l-1.5-6v6h-2.8V69.5h4.1l1.4,5.5l1.4-5.5H248.7z M283.9,76.6v3.1h-3.1V69.5h4.8c0.7,0,1.2,0,1.6,0.1c0.4,0.1,0.7,0.3,1.1,0.5
				c0.4,0.3,0.8,0.7,1.1,1.3c0.3,0.5,0.4,1.1,0.4,1.7c0,1.1-0.3,1.9-1,2.6c-0.7,0.6-1.6,0.9-2.8,0.9H283.9z M283.9,72v2.2h1.5
				c0.4,0,0.7-0.1,0.9-0.3c0.2-0.2,0.3-0.5,0.3-0.8c0-0.4-0.1-0.6-0.3-0.8c-0.2-0.2-0.5-0.3-0.9-0.3H283.9z M323.6,78.3l-0.5,1.5
				h-3.1l3.7-10.2h3.1l3.7,10.2h-3.2l-0.5-1.5H323.6z M324.3,76.2h2l-1-3L324.3,76.2z M370.8,69.5v10.2h-3.1l-2.2-3.8
				c-0.3-0.4-0.5-1-0.9-1.7v5.4h-3.1V69.5h3.1l2.2,3.7c0.2,0.2,0.5,0.8,0.9,1.7v-5.4H370.8z M408.4,76v3.7h-3V76l-3.7-6.5h3.4
				l1.8,3.9l1.9-3.9h3.4L408.4,76z"/>
		</g>
	</g>
</g>
</svg>
