<?xml version="1.0" encoding="utf-8"?>
<!-- Generator: Adobe Illustrator 25.4.1, SVG Export Plug-In . SVG Version: 6.00 Build 0)  -->
<svg version="1.1" id="Layer_2" xmlns="http://www.w3.org/2000/svg" xmlns:xlink="http://www.w3.org/1999/xlink" x="0px" y="0px"
	 viewBox="0 0 260.5 80" style="enable-background:new 0 0 260.5 80;" xml:space="preserve">
<style type="text/css">
	.st0{fill-rule:evenodd;clip-rule:evenodd;fill:#003A87;}
	.st1{fill:#003A87;}
	.st2{fill-rule:evenodd;clip-rule:evenodd;fill:#FFFFFF;}
</style>
<g>
	<path class="st0" d="M108.66,34.96l1-2.39c0.13-0.39,0.56-0.78,0.91-0.78h26.58c0.56,0,0.87,0.56,0.69,0.96l-1.09,2.61
		c-0.26,0.61-0.65,1-1.39,1.09h-5.34c-0.3,0-0.96,0.56-1.09,0.96l-8.12,19.63c-0.13,0.43-0.87,1.17-1.39,1.17h-10.68
		c-0.52,0-1.09-0.56-0.87-1.13l8.56-20.11c0.09-0.17-0.39-0.52-0.48-0.52h-6.21C109.01,36.44,108.32,35.74,108.66,34.96"/>
	<path class="st0" d="M144.67,48.9l-2.91,4.34h3l-0.61,3.56c-0.13,0.96-0.09,1.35,0.78,1.35h7.64c0.74,0,1.65-0.61,1.78-1.35
		l4.08-24.06c0.09-0.65-0.3-0.96-0.83-0.96h-14.77c-0.48,0-1.09,0.3-1.3,0.69l-16.55,24.36c-0.26,0.43,0.13,1.3,0.91,1.3h9.16
		c1.35,0,1.82-0.17,2.74-1.3l8.64-13.33l-0.83,5.39H144.67"/>
	<path class="st0" d="M172.9,50.81l2.04-4.78h0.52c0.48,0,1.04-0.48,1.22-0.96l3.13-7.38c0.17-0.35-0.13-0.91-0.48-0.91h-1.95
		l-8.99,21.37h-10.73c-0.74,0-1.65-0.61-1.39-1.39l10.12-23.97c0.43-1.04,1.13-1,1.61-1h21.41c2.08,0,3.69,2.04,2.78,4.34
		l-4.47,10.47c-0.48,1.3-2.13,2.52-3.74,2.52c1.13,0.91,1.56,3.95,1,5.3l-0.96,2.39c-0.26,0.65-1.26,1.35-1.95,1.35h-8.77
		c-0.69,0-1.39-0.96-1.09-1.65l1.61-3.74c0.43-1.04-0.35-1.91-0.61-1.91L172.9,50.81"/>
	<path class="st0" d="M238,43.21l-0.26-10.47c0-0.48-0.74-0.96-1.13-0.96h-8.9c-0.65,0-1.22,0-1.65,0.91l-10.08,23.84
		c-0.48,1.09,0.3,1.65,1.09,1.65h9.25c0.91,0,1.91-0.65,2.3-1.56l3.95-9.42l0.78,9.64c0.04,1.48,1.69,0.78,2.3,0l7.69-10.16
		l-3.95,9.95c-0.48,1.3,0.87,1.56,1.61,1.56h8.47c0.78,0,1.65-0.69,1.95-1.48l9.08-23.54c0.22-0.69-0.26-1.39-0.83-1.39h-12.03
		c-0.69,0-1.39,0.39-1.82,0.96L238,43.21"/>
	<path class="st0" d="M221.93,35.61l-8.17,19.46c-0.69,1.65-2.95,3.08-4.78,3.08h-17.68c-1.87,0-3.69-3.34-2.95-5.21l8.34-19.8
		c0.48-1,1.87-1.39,3.04-1.39h20.07C221.28,31.79,222.45,34.44,221.93,35.61 M207.82,36.92h1.04c0.35,0,0.74,0.87,0.56,1.22
		l-5.78,13.77c-0.26,0.56-0.96,1.09-1.65,1.09h-0.91c-0.39,0-0.91-0.83-0.74-1.22l5.78-13.64
		C206.38,37.52,207.08,36.92,207.82,36.92z"/>
	<path class="st1" d="M108.19,67.54l-0.52,0.09v-6.34h1c0.61,0,1.09,0.17,1.43,0.52c0.35,0.35,0.56,0.78,0.56,1.35
		c0,0.48-0.13,0.87-0.39,1.22c-0.26,0.3-0.65,0.52-1.09,0.61l1.91,2.39l-0.48,0.35l-2.43-3.17h0.43c0.48,0,0.83-0.13,1.04-0.35
		c0.26-0.22,0.39-0.56,0.39-0.96c0-0.43-0.13-0.74-0.39-0.96c-0.26-0.26-0.56-0.35-1.04-0.35h-0.43L108.19,67.54"/>
	<path class="st1" d="M114.48,62.5c0.56-0.52,1.17-0.78,1.95-0.78s1.39,0.26,1.91,0.78c0.52,0.52,0.78,1.17,0.78,1.95
		c0,0.78-0.26,1.39-0.78,1.95c-0.52,0.52-1.13,0.78-1.91,0.78c-0.74,0-1.39-0.26-1.91-0.78c-0.52-0.52-0.78-1.17-0.78-1.95
		C113.75,63.67,114.01,63.02,114.48,62.5 M113.44,65.71c0.17,0.43,0.43,0.78,0.74,1.09s0.65,0.52,1.04,0.65
		c0.39,0.17,0.78,0.22,1.22,0.22s0.87-0.09,1.22-0.22c0.39-0.13,0.74-0.35,1-0.65c0.3-0.3,0.56-0.65,0.74-1.09
		c0.17-0.43,0.26-0.83,0.26-1.3c0-0.48-0.09-0.91-0.26-1.3c-0.17-0.43-0.43-0.78-0.74-1.04c-0.3-0.3-0.65-0.52-1-0.65
		c-0.39-0.17-0.78-0.22-1.22-0.22s-0.87,0.09-1.22,0.22c-0.39,0.13-0.74,0.35-1.04,0.65c-0.3,0.3-0.56,0.65-0.74,1.09
		c-0.17,0.43-0.26,0.83-0.26,1.3C113.18,64.89,113.27,65.32,113.44,65.71z"/>
	<polyline class="st1" points="122.43,67.71 121.87,67.58 123.17,61.11 125.3,66.32 127.43,61.11 128.69,67.58 128.17,67.71 
		127.21,62.93 125.3,67.71 123.34,62.93 122.43,67.71 	"/>
	<path class="st1" d="M134.72,64.54h-2.26l1.13-2.26L134.72,64.54 M132.2,65.06h2.78l1.3,2.56l0.52-0.17l-3.17-6.3l-3.26,6.34
		l0.52,0.17L132.2,65.06z"/>
	<polyline class="st1" points="139.54,67.54 139.02,67.67 139.02,61.19 143.24,66.23 143.24,61.32 143.76,61.19 143.76,67.67 
		139.54,62.63 139.54,67.54 	"/>
	<polyline class="st1" points="147.32,67.54 146.75,67.62 146.75,61.32 147.32,61.24 147.32,67.54 	"/>
	<path class="st1" d="M153.92,64.54h-2.26l1.13-2.26L153.92,64.54 M151.4,65.06h2.78l1.3,2.56l0.52-0.17l-3.17-6.3l-3.26,6.34
		l0.52,0.17L151.4,65.06z"/>
	<polyline class="st1" points="158.74,67.54 158.22,67.67 158.22,61.19 162.39,66.23 162.39,61.32 162.95,61.19 162.95,67.67 
		158.74,62.63 158.74,67.54 	"/>
	<path class="st1" d="M173.85,64.54h-2.26l1.13-2.26L173.85,64.54 M171.34,65.06h2.78l1.3,2.56l0.56-0.17l-3.17-6.3l-3.26,6.34
		l0.52,0.17L171.34,65.06z"/>
	<polyline class="st1" points="178.72,67.54 178.15,67.62 178.15,61.32 178.72,61.24 178.72,67.54 	"/>
	<path class="st1" d="M182.28,67.54l-0.56,0.09v-6.34h1.04c0.61,0,1.09,0.17,1.43,0.52c0.35,0.35,0.56,0.78,0.56,1.35
		c0,0.48-0.13,0.87-0.39,1.22c-0.26,0.3-0.65,0.52-1.09,0.61l1.91,2.39l-0.52,0.35l-2.39-3.17h0.43c0.43,0,0.83-0.13,1.09-0.35
		c0.26-0.22,0.39-0.56,0.39-0.96c0-0.43-0.13-0.74-0.39-0.96c-0.26-0.26-0.61-0.35-1.09-0.35h-0.43L182.28,67.54"/>
	<polyline class="st1" points="193.57,67.54 193.01,67.62 193.01,61.85 191.31,61.85 191.44,61.32 195.18,61.32 195.18,61.85 
		193.57,61.85 193.57,67.54 	"/>
	<path class="st1" d="M198.26,67.54l-0.56,0.09v-6.34h1.04c0.61,0,1.09,0.17,1.48,0.52c0.35,0.35,0.52,0.78,0.52,1.35
		c0,0.48-0.13,0.87-0.43,1.22c-0.26,0.3-0.61,0.52-1.09,0.61l1.91,2.39l-0.48,0.35l-2.43-3.17h0.43c0.48,0,0.78-0.13,1.04-0.35
		c0.26-0.22,0.39-0.56,0.39-0.96c0-0.43-0.13-0.74-0.39-0.96c-0.26-0.26-0.61-0.35-1.04-0.35h-0.43v5.6"/>
	<path class="st1" d="M207.25,64.54h-2.21l1.13-2.26L207.25,64.54 M204.73,65.06h2.78l1.3,2.56l0.56-0.17l-3.21-6.3l-3.26,6.34
		l0.52,0.17L204.73,65.06z"/>
	<polyline class="st1" points="212.07,67.54 211.55,67.67 211.55,61.19 215.77,66.23 215.77,61.32 216.29,61.19 216.29,67.67 
		212.07,62.63 212.07,67.54 	"/>
	<path class="st1" d="M219.02,66.58l0.48-0.35c0.17,0.3,0.39,0.52,0.65,0.69s0.52,0.22,0.87,0.22c0.39,0,0.74-0.13,1-0.35
		s0.39-0.52,0.39-0.87c0-0.61-0.52-1.04-1.52-1.35c-0.09,0-0.17-0.04-0.22-0.04c-0.52-0.13-0.87-0.35-1.13-0.61
		c-0.26-0.26-0.39-0.61-0.39-1.04c0-0.48,0.17-0.87,0.56-1.17c0.35-0.35,0.78-0.48,1.3-0.48c0.35,0,0.65,0.04,0.91,0.17
		c0.3,0.09,0.52,0.3,0.83,0.56l-0.39,0.43c-0.26-0.26-0.48-0.39-0.69-0.48c-0.22-0.09-0.43-0.13-0.69-0.13
		c-0.35,0-0.65,0.13-0.87,0.35c-0.26,0.22-0.39,0.48-0.39,0.83c0,0.22,0.04,0.39,0.13,0.52c0.09,0.17,0.22,0.3,0.43,0.39
		c0.17,0.09,0.43,0.17,0.78,0.3c0.22,0.04,0.39,0.09,0.48,0.13c0.48,0.17,0.83,0.35,1.04,0.65c0.22,0.3,0.35,0.61,0.35,1
		c0,0.52-0.22,0.96-0.56,1.3c-0.39,0.35-0.87,0.52-1.43,0.52c-0.39,0-0.78-0.13-1.09-0.3C219.5,67.23,219.24,66.93,219.02,66.58"/>
	<path class="st1" d="M227.93,62.28c0.3,0.3,0.43,0.65,0.43,1.13s-0.13,0.87-0.43,1.13c-0.3,0.26-0.69,0.43-1.22,0.43h-0.48v-3.13
		h0.48C227.19,61.85,227.62,61.98,227.93,62.28 M226.23,65.49h0.48c0.65,0,1.22-0.17,1.61-0.56c0.39-0.39,0.61-0.91,0.61-1.52
		c0-0.61-0.22-1.13-0.61-1.52c-0.39-0.39-0.96-0.56-1.61-0.56h-1.04v6.34l0.56-0.09L226.23,65.49L226.23,65.49z"/>
	<path class="st1" d="M232.66,62.5c0.52-0.52,1.17-0.78,1.91-0.78c0.74,0,1.39,0.26,1.91,0.78c0.52,0.52,0.78,1.17,0.78,1.95
		c0,0.78-0.26,1.39-0.78,1.95c-0.52,0.52-1.17,0.78-1.91,0.78c-0.78,0-1.39-0.26-1.91-0.78c-0.52-0.52-0.78-1.17-0.78-1.95
		C231.88,63.67,232.14,63.02,232.66,62.5 M231.57,65.71c0.17,0.43,0.43,0.78,0.74,1.09c0.3,0.3,0.65,0.52,1,0.65
		c0.39,0.17,0.78,0.22,1.22,0.22s0.83-0.09,1.22-0.22c0.39-0.13,0.74-0.35,1-0.65c0.35-0.3,0.56-0.65,0.74-1.09
		c0.22-0.43,0.3-0.83,0.3-1.3c0-0.48-0.09-0.91-0.3-1.3c-0.17-0.43-0.43-0.78-0.74-1.04c-0.3-0.3-0.65-0.52-1.04-0.65
		c-0.39-0.17-0.78-0.22-1.22-0.22s-0.87,0.09-1.22,0.22c-0.39,0.13-0.74,0.35-1,0.65c-0.35,0.3-0.61,0.65-0.74,1.09
		c-0.17,0.43-0.3,0.83-0.3,1.3C231.31,64.89,231.4,65.32,231.57,65.71z"/>
	<path class="st1" d="M241.09,67.54l-0.56,0.09v-6.34h1.04c0.61,0,1.09,0.17,1.43,0.52c0.35,0.35,0.52,0.78,0.52,1.35
		c0,0.48-0.13,0.87-0.39,1.22c-0.26,0.3-0.65,0.52-1.09,0.61l1.95,2.39l-0.52,0.35l-2.39-3.17h0.43c0.48,0,0.78-0.13,1.04-0.35
		c0.26-0.22,0.39-0.56,0.39-0.96c0-0.43-0.13-0.74-0.39-0.96c-0.22-0.26-0.56-0.35-1.04-0.35h-0.43V67.54"/>
	<polyline class="st1" points="248.03,67.54 247.47,67.62 247.47,61.85 245.78,61.85 245.91,61.32 249.64,61.32 249.64,61.85 
		248.03,61.85 248.03,67.54 	"/>
	<path class="st0" d="M74.09,0.04l-0.52,0.17l-0.52,0.3l-0.48,0.39l-0.96,0.87l-0.91,0.96L0.48,77.09l-0.3,0.48L0,78.05l0.04,0.48
		l0.22,0.43l0.35,0.39l0.43,0.35l0.48,0.22l0.61,0.04h64.32l0.65-0.04l0.56-0.13l0.56-0.3l0.56-0.35l0.52-0.39l0.43-0.48l0.39-0.52
		L101.5,2.82l0.17-0.56l0.04-0.48l-0.04-0.48l-0.13-0.43c0-0.04-0.3-0.35-0.3-0.35l-0.39-0.26l-0.43-0.22
		c-0.04,0-0.56-0.04-0.56-0.04H74.61L74.09,0.04"/>
	<path class="st0" d="M107.62,0.04c0,0-0.04,0.04-0.04,0.13h0.09c0,0-33.53,79.78-33.57,79.83h4.6c0.09-0.04,33.7-79.83,33.7-79.83
		L107.62,0.04"/>
	<path class="st2" d="M58.46,27.88c10.47,0,18.94,8.56,18.94,18.98c0,10.51-8.47,19.07-18.94,19.07c-10.51,0-19.11-8.56-19.11-19.07
		C39.39,36.4,47.95,27.88,58.46,27.88 M50.73,51.86c-1.52-0.17-2.39-0.43-3.65-0.3c-1.43,0.13-3.39,1.39-4.6,2.74
		c-1.04-2.26-1.61-4.78-1.61-7.47c0-9.64,7.86-17.55,17.59-17.55c4.13,0,8.03,1.52,11.07,4L50.73,51.86z M57.24,53.03l16.2,2.95
		c1.65-2.69,2.52-5.73,2.52-9.12c0-5.12-2.26-9.77-5.82-13.03L57.24,53.03z M58.02,55.72l8.17,6.69l-15.11-7.47
		c-1.39-0.39-2.74-0.48-4-0.52c-1.48-0.04-2.82,0.17-4.34,0.43c2.95,5.69,8.9,9.6,15.77,9.6c5.99,0,11.38-3.08,14.55-7.86
		L58.02,55.72z"/>
</g>
</svg>
