<?xml version="1.0" encoding="utf-8"?>
<!-- Generator: Adobe Illustrator 25.4.1, SVG Export Plug-In . SVG Version: 6.00 Build 0)  -->
<svg version="1.1" id="Layer_1" xmlns="http://www.w3.org/2000/svg" xmlns:xlink="http://www.w3.org/1999/xlink" x="0px" y="0px"
	 viewBox="0 0 80 80" style="enable-background:new 0 0 80 80;" xml:space="preserve">
<style type="text/css">
	.st0{fill-rule:evenodd;clip-rule:evenodd;fill:#F2A448;}
	.st1{fill:#302C85;}
</style>
<path class="st0" d="M40,80C17.97,80,0,62.03,0,40C0,17.97,17.97,0,40,0c22.03,0,40,17.97,40,40C80,62.03,62.03,80,40,80L40,80z"/>
<path class="st1" d="M48.75,40.19c-4.29,0-12.63-4.68-12.79-7.82c0.34-9.74,14.69-15.64,24.77-16.71l-0.01-0.95
	c-14.28-1.21-25.35,0.86-32.9,14.9c-3.21-1.15-6.96-1.08-10.62,0.2l-0.52,0.18l0.25,0.49c0.86,1.65,1.99,3.33,4.39,4.53
	c-8.68,9.37-8.53,10.78-7.54,20.67c0.15,1.52,0.33,3.25,0.49,5.24l0.95,0.02c1.07-9.01,5.76-19.86,12.33-22.3
	c1.02-0.08,2.95,0.74,4.82,1.53c1.46,0.62,2.96,1.25,4.21,1.55c3.34,0.79,6.89,1.21,10.25,1.59l0.24,0.03l0.16-0.18
	c0.36-0.4,0.64-0.73,0.92-1.05c0.3-0.34,0.59-0.68,0.97-1.11l0.71-0.8l-1.07,0.01C48.77,40.19,48.76,40.19,48.75,40.19z"/>
</svg>
