<?xml version="1.0" encoding="utf-8"?>
<!-- Generator: Adobe Illustrator 25.4.1, SVG Export Plug-In . SVG Version: 6.00 Build 0)  -->
<svg version="1.1" id="Layer_1" xmlns="http://www.w3.org/2000/svg" xmlns:xlink="http://www.w3.org/1999/xlink" x="0px" y="0px"
	 viewBox="0 0 535.33 80" style="enable-background:new 0 0 535.33 80;" xml:space="preserve">
<style type="text/css">
	.st0{fill-rule:evenodd;clip-rule:evenodd;fill:#302C85;}
	.st1{fill-rule:evenodd;clip-rule:evenodd;fill:#F2A448;}
	.st2{fill:#302C85;}
</style>
<polygon class="st0" points="106.36,1.92 127.85,1.92 121.04,30.95 150.4,1.92 178.98,1.92 146.83,30.9 162.09,78.75 135.61,78.75 
	128.36,47.14 114.24,59.99 109.84,78.75 88.34,78.75 106.36,1.92 "/>
<path class="st0" d="M194.07,41.11l-20.15-2.15c1.72-3.56,3.58-6.37,5.6-8.41c2.01-2.04,4.58-3.81,7.76-5.31
	c2.27-1.09,5.24-1.93,8.86-2.52c3.63-0.59,7.48-0.89,11.53-0.89c6.5,0,11.64,0.36,15.38,1.07c3.76,0.72,6.65,2.22,8.68,4.49
	c1.44,1.57,2.31,3.79,2.63,6.67c0.29,2.9,0.1,5.63-0.59,8.26l-6.47,24.58c-0.69,2.61-1.05,4.67-1.11,6.15
	c-0.04,1.49,0.19,3.38,0.72,5.69h-20.35c-0.44-1.43-0.68-2.52-0.74-3.27c-0.06-0.75,0.02-1.93,0.19-3.54
	c-3.55,2.7-6.89,4.62-9.99,5.76c-4.25,1.54-8.9,2.31-13.97,2.31c-6.75,0-11.47-1.54-14.17-4.62c-2.69-3.06-3.44-6.85-2.25-11.36
	c1.11-4.24,3.28-7.71,6.53-10.43c3.25-2.74,8.42-4.76,15.55-6.08c8.57-1.61,14.14-2.74,16.73-3.38c2.57-0.65,5.36-1.5,8.33-2.54
	c0.69-2.63,0.63-4.45-0.19-5.51c-0.83-1.04-2.62-1.57-5.4-1.57c-3.55,0-6.35,0.57-8.43,1.68C197.12,37.07,195.56,38.72,194.07,41.11
	L194.07,41.11z M209.93,52.33c-3.26,1.05-6.62,1.98-10.05,2.79c-4.7,1.14-7.8,2.29-9.26,3.4c-1.53,1.16-2.47,2.47-2.86,3.93
	c-0.44,1.68-0.2,3.04,0.7,4.12c0.92,1.05,2.52,1.59,4.84,1.59c2.42,0,4.8-0.57,7.2-1.72c2.38-1.16,4.22-2.58,5.53-4.22
	c1.31-1.67,2.3-3.83,2.99-6.48L209.93,52.33L209.93,52.33z"/>
<path class="st0" d="M250.51,23.1h18.8l-1.98,8.12c3.55-3.4,6.86-5.8,9.96-7.25c3.11-1.43,6.61-2.15,10.51-2.15
	c4.19,0,7.31,0.79,9.36,2.36c2.06,1.57,3.48,3.92,4.28,7.03c4.05-3.63,7.54-6.12,10.48-7.42c2.92-1.31,6.29-1.97,10.12-1.97
	c5.64,0,9.62,1.77,11.91,5.33c2.31,3.54,2.52,9.09,0.68,16.63l-8.55,34.95h-20.19l7.75-31.7c0.62-2.52,0.62-4.4-0.01-5.62
	c-0.88-1.91-2.33-2.88-4.34-2.88c-2.37,0-4.52,0.91-6.41,2.72c-1.9,1.82-3.32,4.74-4.3,8.76l-7.02,28.71h-20.2l7.5-30.66
	c0.6-2.45,0.86-4.1,0.82-4.97c-0.1-1.39-0.56-2.52-1.4-3.38c-0.85-0.86-1.98-1.29-3.4-1.29c-2.32,0-4.44,0.93-6.37,2.77
	c-1.94,1.86-3.43,4.9-4.46,9.12l-6.94,28.41h-20.19L250.51,23.1L250.51,23.1z"/>
<path class="st0" d="M413.01,66.07h-26.13l-6.76,12.68h-23.43l47.11-76.83h25.01l8.69,76.83h-24L413.01,66.07L413.01,66.07z
	 M412.36,49.45l-1.3-27.62L396,49.45H412.36L412.36,49.45z"/>
<path class="st0" d="M467.46,1.92h19.2l-3.38,14.52h-19.2L467.46,1.92L467.46,1.92z M462.52,23.1h19.2l-12.97,55.65h-19.2
	L462.52,23.1L462.52,23.1z"/>
<path class="st0" d="M495.18,23.1h18.48l-2.18,9.1c2.73-3.94,5.22-6.65,7.46-8.14c2.24-1.49,4.76-2.24,7.54-2.24
	c2.92,0,5.86,0.98,8.86,2.93l-9.76,15.21c-2.06-1.06-3.8-1.57-5.15-1.57c-2.59,0-4.87,1.16-6.84,3.45
	c-2.82,3.26-5.3,9.34-7.44,18.25l-4.47,18.66h-19.84L495.18,23.1L495.18,23.1z"/>
<path class="st1" d="M38.97,77.95C17.51,77.95,0,60.44,0,38.98C0,17.51,17.51,0,38.97,0c21.47,0,38.98,17.51,38.98,38.98
	C77.95,60.44,60.44,77.95,38.97,77.95L38.97,77.95z"/>
<path class="st2" d="M47.5,39.16c-4.18,0-12.31-4.56-12.46-7.62c0.33-9.49,14.32-15.24,24.14-16.29l-0.01-0.92
	c-13.91-1.18-24.7,0.84-32.05,14.51c-3.13-1.12-6.78-1.05-10.35,0.19l-0.51,0.18l0.25,0.48c0.84,1.61,1.94,3.24,4.28,4.42
	c-8.46,9.13-8.32,10.51-7.34,20.14c0.15,1.48,0.32,3.17,0.48,5.11l0.92,0.02c1.05-8.78,5.61-19.35,12.01-21.73
	c0.99-0.08,2.88,0.72,4.69,1.49c1.42,0.6,2.89,1.22,4.1,1.51c3.25,0.77,6.72,1.18,9.98,1.55l0.24,0.03l0.16-0.18
	c0.35-0.39,0.62-0.71,0.89-1.03c0.29-0.33,0.57-0.66,0.94-1.08l0.69-0.78l-1.04,0.01C47.53,39.16,47.52,39.16,47.5,39.16z"/>
</svg>
