<?xml version="1.0" encoding="utf-8"?>
<!-- Generator: Adobe Illustrator 25.4.1, SVG Export Plug-In . SVG Version: 6.00 Build 0)  -->
<svg version="1.1" id="Layer_4" xmlns="http://www.w3.org/2000/svg" xmlns:xlink="http://www.w3.org/1999/xlink" x="0px" y="0px"
	 viewBox="0 0 577.84 80.27" style="enable-background:new 0 0 577.84 80.27;" xml:space="preserve">
<style type="text/css">
	.st0{fill:#1DB898;}
</style>
<g id="레이어_2">
	<g id="Layer_1_00000056399467847583645330000006011231207919363998_">
		<polygon class="st0" points="28.82,2.45 0,77.52 20.64,77.52 39.48,25.58 57.76,77.52 78.4,77.52 50.14,2.45 		"/>
		<rect x="90.31" y="2.45" class="st0" width="19.67" height="75.07"/>
		<path class="st0" d="M183.98,36.95c4.7-8.5,2.73-20.25-0.99-25.02s-9.84-9.48-23.1-9.48h-28.57v75.07h19.67V48.47l19.67,29.05
			h22.87l-23.21-30.79C176.08,45.61,181.07,42.04,183.98,36.95z M162.06,34.31c-4.52,2.6-11.08,1.88-11.08,1.88V17.42
			c3.3-0.29,6.62,0.07,9.78,1.06c3.44,1.08,5.73,4.32,5.59,7.92C166.61,29.65,164.93,32.75,162.06,34.31z"/>
		<path class="st0" d="M248.08,29.22c-3.85-1.3-5.79-3.52-5.51-6.49c0.51-3.26,3.16-5.77,6.44-6.11c7.28-1.07,15.18,4.57,15.18,4.57
			l7.41-14.41c-7.52-4.66-16.31-6.86-25.14-6.28c-14.97,0.83-23.51,11.14-24.17,22.87c-0.6,9.57,3.84,17.81,17,22.36
			c4.7,1.62,11.74,2.94,14.08,6.47c3.06,4.49,0,12.32-11.07,10.56c-7.57-1.23-14.83-7.3-14.83-7.3l-8.27,15.48
			c8.84,6.23,19.56,9.21,30.35,8.46c25.55-2.01,28.27-25.76,23.28-35.43S255.83,31.85,248.08,29.22z"/>
		<polygon class="st0" points="311.2,47.96 332.26,47.96 332.26,31.58 311.33,31.58 311.33,18.35 333.51,18.35 333.51,2.45 
			291.92,2.45 291.92,77.52 334.55,77.52 334.55,61.1 311.2,61.1 		"/>
		<path class="st0" d="M389.97,0c-22.73,0-40.99,17.1-40.99,39.76c0,23.63,16.56,40.24,40.99,40.24c24.44,0,41.08-16.66,41.08-40.24
			C431.05,17.1,412.72,0,389.97,0z M389.97,61.24c-11.74,0.08-21.31-9.38-21.39-21.12c-0.08-11.74,9.38-21.31,21.12-21.39
			c11.64-0.08,21.18,9.23,21.39,20.87c0.29,11.66-8.92,21.34-20.58,21.63C390.33,61.24,390.15,61.24,389.97,61.24z"/>
		<path class="st0" d="M494.95,46.76c0,13.27-7.57,15.73-12.6,15.73c-5.03,0-13.72-1.76-13.72-16.1V2.41h-19.51v44.51
			c0,23.21,13.09,32.62,33.43,32.62c19.99,0,31.92-11.21,31.92-31.67V2.45h-19.51V46.76z"/>
		<polygon class="st0" points="555.21,61.21 555.21,2.45 535.81,2.45 535.81,77.52 577.84,77.52 577.84,69.14 577.84,61.21 		"/>
	</g>
</g>
</svg>
