<?xml version="1.0" encoding="utf-8"?>
<!-- Generator: Adobe Illustrator 25.4.1, SVG Export Plug-In . SVG Version: 6.00 Build 0)  -->
<svg version="1.1" id="Layer_1" xmlns="http://www.w3.org/2000/svg" xmlns:xlink="http://www.w3.org/1999/xlink" x="0px" y="0px"
	 viewBox="0 0 97.8 80" style="enable-background:new 0 0 97.8 80;" xml:space="preserve">
<style type="text/css">
	.st0{fill-rule:evenodd;clip-rule:evenodd;fill:#E22125;}
	.st1{fill-rule:evenodd;clip-rule:evenodd;fill:url(#path524_00000065766055833481649500000007897458139060625825_);}
</style>
<path id="path506" class="st0" d="M15.6,37.8c-0.7-9.3,4.4-18.9,11.5-26.2C40.3,8.7,53.8,12,63.3,21.7l0.3,0.3
	c3.5-4.7,6.9-10.4,7.9-15.8c-6.5-3.9-14.3-6-22.5-5.4c-8.5,0.5-16.4,3.8-22.6,9.1C12,14.6,1,27.5-0.5,43.5c-0.1,0.9-0.1,1.9-0.2,2.8
	h0c7.2,8,25.3,6.7,29.1,5.5l0,0C21.6,53,16.5,49.2,15.6,37.8L15.6,37.8z M90.4,43.5c0.8-8.9-1.4-17.4-5.7-24.3c2.2-3,4.2-6,6.2-8.8
	c6.6-9.4,7.4-8.6,6.7-9.5C96.9,0,87.7-2,79.7,5.9c-1.2,1.2-2.4,2.4-3.6,3.7l0,0L76,9.8l0,0l-0.2,0.2l0,0l-0.1,0.2l0,0l-0.1,0.1
	l-0.1,0.1l-0.1,0.1l-0.1,0.1l-0.1,0.1l-0.1,0.1l-0.1,0.1L75,10.9L74.9,11l-0.1,0.1l0,0l-0.1,0.2l0,0l-0.2,0.2l0,0l-0.2,0.2l0,0
	l-0.1,0.2l0,0L74,12l0,0.1l-0.1,0.1l-0.1,0.1l-0.1,0.1l-0.1,0.1l-0.1,0.1l-0.2,0.2l-0.1,0.1l0,0L73,13.1l0,0l-0.2,0.2l0,0l-0.2,0.2
	l0,0l-0.2,0.2l0,0l-0.1,0.2l0,0L72.2,14l-0.1,0.1L72,14.2l-0.1,0.1l-0.1,0.1l-0.3,0.3l0,0.1l-0.1,0.2l0,0l-0.2,0.2l0,0L71,15.3l0,0
	l-0.2,0.2l0,0l-0.1,0.2l0,0l-0.1,0.1L70.4,16l-0.1,0.1l-0.1,0.1l-0.1,0.1l-0.1,0.1L70,16.5l-0.1,0.1l-0.1,0.1l-0.1,0.2l0,0L69.5,17
	l0,0l-0.2,0.2v0l-0.2,0.2l0,0L69,17.6l0,0l-0.1,0.2l-0.1,0.1L68.6,18l-0.1,0.1l-0.1,0.1l-0.1,0.1l-0.1,0.1l-0.1,0.1l-0.1,0.1
	L68,18.7l0,0L67.8,19l0,0l-0.2,0.2l0,0l-0.2,0.2l0,0l-0.2,0.2l0,0l-0.1,0.2l0,0.1L66.9,20l-0.1,0.1l-0.1,0.1l-0.1,0.1l-0.1,0.1
	l-0.1,0.1l-0.1,0.1l-0.1,0.1l0,0.1l-0.1,0.2l0,0l-0.5,0.6l0,0l-0.1,0.1l-0.1,0.1l0,0l0,0l0,0l0,0l0,0l-0.9,1l0,0l-0.7,0.8l-0.2,0.2
	c-0.6,0.7-1.2,1.4-1.8,2l0,0l-0.2,0.2c-2.8,3.2-5.7,6.3-8.6,9.3l0,0C35.3,53.6,22.1,55.1,15.3,55.7C10.2,56.2,4.7,55.8,0,54.2
	C1.1,60.3,3.7,66,7.4,70.8c1.5,1.9,3.2,3.5,5,4.9c9.7,0.4,18.4-1.3,18.4-1.3c-1.9,1.8-6.5,3.5-11.1,4.8c5.5,1.5,11.5,1,17-1.6
	c9.1-4.3,13.6-10.9,19.3-18.7c5.1-6.9,10.6-14.6,16.2-22.4c1.7,5,2.4,10.5,1.9,16.1c-0.7,7.9-3.7,15-8.3,20.7
	c-0.4,0.5-0.4,1.2,0,1.8c0.4,0.5,1.1,0.7,1.7,0.4C80,69.9,89.1,58,90.4,43.5"/>
<g id="g508" transform="matrix(0.35277777,0,0,-0.35277777,80.52359,397.06819)">
	<g id="g510">
		<g id="g516">
			
				<linearGradient id="path524_00000133516075137400648520000009141398254009023144_" gradientUnits="userSpaceOnUse" x1="-260.4469" y1="-156.3782" x2="-259.4077" y2="-156.3782" gradientTransform="matrix(-27.2771 -31.4636 30.9764 -26.8547 -2271.3396 -11323.5078)">
				<stop  offset="0" style="stop-color:#BD2423"/>
				<stop  offset="1" style="stop-color:#DD2C1B"/>
			</linearGradient>
			
				<path id="path524" style="fill-rule:evenodd;clip-rule:evenodd;fill:url(#path524_00000133516075137400648520000009141398254009023144_);" d="
				M-45.8,1060.6c-5.9-6.6-10.3-11.6-10.6-12c0,0,0,0,0,0c-17.2-19.3-35-37.8-54.4-52.1c-3.6-2.7-7.2-5.2-10.8-7.4l21.1-66.2
				c10,10.9,20.8,21.7,31.2,35.7c14.3,19.5,30.2,41.4,46.1,63.5C-28.1,1036.3-35.9,1049.5-45.8,1060.6"/>
		</g>
	</g>
</g>
</svg>
