<?xml version="1.0" encoding="utf-8"?>
<!-- Generator: Adobe Illustrator 25.4.1, SVG Export Plug-In . SVG Version: 6.00 Build 0)  -->
<svg version="1.1" id="Layer_1" xmlns="http://www.w3.org/2000/svg" xmlns:xlink="http://www.w3.org/1999/xlink" x="0px" y="0px"
	 viewBox="0 0 473.8 80" style="enable-background:new 0 0 473.8 80;" xml:space="preserve">
<style type="text/css">
	.st0{fill-rule:evenodd;clip-rule:evenodd;fill:#26386D;}
	.st1{fill-rule:evenodd;clip-rule:evenodd;fill:#E22125;}
	.st2{fill-rule:evenodd;clip-rule:evenodd;fill:url(#path524_00000168802822469389392800000005194499607035054215_);}
</style>
<g id="layer1" transform="translate(-90.755318,-197.90578)">
	<path id="path504" class="st0" d="M252.4,203.9L237.9,246c-2.3,7.3-5.1,8.4-10.6,8.4c-6.4,0-8-2.3-5.6-9.5l11.9-34.9
		c1.1-3.9,1.2-6-3-6h-14.5c-3.5,12.6-9.4,26.8-13.7,39.4c-3.7,10.7,1.7,22.6,13.9,22.7c4.4,0,8.8,0,13.2,0c8.5,0,13.7,0.1,20.3-6
		c4.4-4.1,6.6-11.3,8.8-17.6c4.4-12.8,8.8-25.7,13.3-38.5C265.5,203.9,259,203.9,252.4,203.9L252.4,203.9z M413,257.5l7.1-20.5
		l-5.1,0c-8.9,0-14.5,1.8-16.8,10.2c-1.8,6.6,0.1,10.2,7,10.4C407.8,257.5,410.4,257.5,413,257.5L413,257.5z M467.7,243.3
		c0.8-3.6-0.4-6.3-4.7-6.3c-6,0-8.9,2.4-11.2,7.8c4.7,0,9.4,0,14.1,0C466.8,244.8,467.5,244.2,467.7,243.3L467.7,243.3z M450.5,252
		c0.3,3.2,2.5,5.2,5.9,5.4c6.5,0.3,13.1,0,19.6,0c-2.8,8.1-2.8,8.1-9.1,8.1c-7.6,0-16.7,0.1-18-0.2c-9.3-1.8-12.6-10.2-10.9-18.9
		c1-5.2,3.6-9.8,7.9-13c4-3,9.1-4.6,14.7-4.6h6.7c8.2,0,14.2,3.8,14.2,12.6c0,2.5-0.8,5.7-1.9,8.3c-0.6,1.4-1.9,2.2-3.5,2.2
		C467.5,252,459,252,450.5,252L450.5,252z M533.6,265.6c-12.3,0.1-18.3-7-16.1-18.9c2.3-12.6,11.7-17.8,23.1-17.8
		c3.8,0,8.8-0.2,12.5,0.7c9.6,2.3,13,9.9,10.8,19.2c-2.8,11.7-11.5,16.8-22.7,16.8C538.7,265.6,536.1,265.6,533.6,265.6L533.6,265.6
		z M535.7,257.5c1.9,0.1,4.1,0.2,6.1,0c4.8-0.5,7.3-5.2,8.6-9.3c1.5-4.6,1-10.2-5-11c-0.8-0.1-1.9-0.1-3-0.1
		c-7.2,0-10.2,3.9-11.9,10.8C529.4,252.1,530.5,257.1,535.7,257.5L535.7,257.5z M482.4,262.6l7.5-21.7c2.8-8.5,6-12,16-12h13.8
		c-0.3,1.9-2,7.9-4.4,8.1c-2.4,0.1-5.4-0.2-7.6,0.3c-1.7,0.4-2.6,1.3-3.4,3.4l-8.6,24.9h-11.4C483,265.6,482,263.7,482.4,262.6
		L482.4,262.6z M396.7,265.6c-10.7-0.3-13.1-10.8-11.8-18.5c2.2-12.9,12.6-18.2,25.4-18.2h23c2,0,3.2,1.2,2.4,3.4l-11.6,33.3
		l-11.1-8.1l-2.8,8.1C405.7,265.6,401.2,265.6,396.7,265.6L396.7,265.6z M334.8,216.9h13.6l-12.9,37.2c-0.8,2.4-2.6,7-1.8,9
		c1.3,3.3,4.3,2.8,7.2,2.8h10l17-49.1h9.4c4.4,0,6.3,0.3,7.7-0.9c2-1.7,4.1-8.5,4.6-12.1h-50.9L334.8,216.9z M305.9,256.2l31.5-52.3
		c-6.8,0-13.5,0-20.3,0l-26.3,44.3l-2.5-38.9c0-3.3-0.9-5.4-4.9-5.4h-10l-1.2,14.7l1.8,37.9c0.1,7.2,5.8,10.2,13.6,10.2
		C296.2,266.7,300.9,263.7,305.9,256.2"/>
	<path id="path506" class="st1" d="M106.4,235.7c-0.7-9.3,4.4-18.9,11.5-26.2c13.2-2.9,26.7,0.5,36.1,10.2l0.3,0.3
		c3.5-4.7,6.9-10.4,7.9-15.8c-6.5-3.9-14.3-6-22.5-5.4c-8.5,0.5-16.4,3.8-22.6,9.1c-14.4,4.7-25.3,17.5-26.8,33.5
		c-0.1,0.9-0.1,1.9-0.2,2.8h0c7.2,8,25.3,6.7,29.1,5.5l0,0C112.4,250.9,107.2,247.1,106.4,235.7L106.4,235.7z M181.2,241.4
		c0.8-8.9-1.4-17.4-5.7-24.3c2.2-3,4.2-6,6.2-8.8c6.6-9.4,7.4-8.6,6.7-9.5c-0.7-0.9-10-2.9-17.9,4.9c-1.2,1.2-2.4,2.4-3.6,3.7l0,0
		l-0.2,0.2l0,0l-0.2,0.2l0,0l-0.1,0.2l0,0l-0.1,0.1l-0.1,0.1l-0.1,0.1l-0.1,0.1l-0.1,0.1l-0.1,0.1l-0.1,0.1l-0.1,0.1l-0.1,0.1
		l-0.1,0.1l0,0l-0.1,0.2l0,0l-0.2,0.2l0,0l-0.2,0.2l0,0l-0.1,0.2l0,0l-0.1,0.1l0,0.1l-0.1,0.1l-0.1,0.1l-0.1,0.1l-0.1,0.1l-0.1,0.1
		l-0.2,0.2l-0.1,0.1l0,0l-0.1,0.2l0,0l-0.2,0.2l0,0l-0.2,0.2l0,0l-0.2,0.2l0,0l-0.1,0.2l0,0l-0.1,0.1l-0.1,0.1l-0.1,0.1l-0.1,0.1
		l-0.1,0.1l-0.3,0.3l0,0.1l-0.1,0.2l0,0l-0.2,0.2l0,0l-0.2,0.2l0,0l-0.2,0.2l0,0l-0.1,0.2l0,0l-0.1,0.1l-0.1,0.1l-0.1,0.1l-0.1,0.1
		l-0.1,0.1l-0.1,0.1l-0.1,0.1l-0.1,0.1l-0.1,0.1l-0.1,0.2l0,0l-0.2,0.2l0,0l-0.2,0.2v0l-0.2,0.2l0,0l-0.2,0.2l0,0l-0.1,0.2l-0.1,0.1
		l-0.1,0.1l-0.1,0.1l-0.1,0.1l-0.1,0.1l-0.1,0.1l-0.1,0.1l-0.1,0.1l-0.1,0.1l0,0l-0.1,0.2l0,0l-0.2,0.2l0,0l-0.2,0.2l0,0l-0.2,0.2
		l0,0l-0.1,0.2l0,0.1l-0.1,0.1l-0.1,0.1l-0.1,0.1l-0.1,0.1l-0.1,0.1l-0.1,0.1l-0.1,0.1l-0.1,0.1l0,0.1l-0.1,0.2l0,0l-0.5,0.6l0,0
		l-0.1,0.1l-0.1,0.1l0,0l0,0l0,0l0,0l0,0l-0.9,1l0,0l-0.7,0.8l-0.2,0.2c-0.6,0.7-1.2,1.4-1.8,2l0,0l-0.2,0.2
		c-2.8,3.2-5.7,6.3-8.6,9.3l0,0c-17.6,18.2-30.7,19.6-37.5,20.2c-5.2,0.5-10.6,0.2-15.3-1.5c1.1,6.2,3.7,11.8,7.4,16.7
		c1.5,1.9,3.2,3.5,5,4.9c9.7,0.4,18.4-1.3,18.4-1.3c-1.9,1.8-6.5,3.5-11.1,4.8c5.5,1.5,11.5,1,17-1.6c9.1-4.3,13.6-10.9,19.3-18.7
		c5.1-6.9,10.6-14.6,16.2-22.4c1.7,5,2.4,10.5,1.9,16.1c-0.7,7.9-3.7,15-8.3,20.7c-0.4,0.5-0.4,1.2,0,1.8c0.4,0.5,1.1,0.7,1.7,0.4
		C170.7,267.8,179.8,255.9,181.2,241.4"/>
	<g id="g508" transform="matrix(0.35277777,0,0,-0.35277777,80.52359,397.06819)">
		<g id="g510">
			<g id="g516">
				
					<linearGradient id="path524_00000138551423623956764590000005768203317129617811_" gradientUnits="userSpaceOnUse" x1="-3.1879" y1="-717.3706" x2="-2.1487" y2="-717.3706" gradientTransform="matrix(-27.2771 -31.4636 30.9764 -26.8547 22380.7363 -18855.5117)">
					<stop  offset="0" style="stop-color:#BD2423"/>
					<stop  offset="1" style="stop-color:#DD2C1B"/>
				</linearGradient>
				
					<path id="path524" style="fill-rule:evenodd;clip-rule:evenodd;fill:url(#path524_00000138551423623956764590000005768203317129617811_);" d="
					M211.5,499.6c-5.9-6.6-10.3-11.6-10.6-12c0,0,0,0,0,0c-17.2-19.3-35-37.8-54.4-52.1c-3.6-2.7-7.2-5.2-10.8-7.4l21.1-66.2
					c10,10.9,20.8,21.7,31.2,35.7c14.3,19.5,30.2,41.4,46.1,63.5C229.1,475.4,221.4,488.5,211.5,499.6"/>
			</g>
		</g>
	</g>
</g>
</svg>
