<?xml version="1.0" encoding="utf-8"?>
<!-- Generator: Adobe Illustrator 25.4.1, SVG Export Plug-In . SVG Version: 6.00 Build 0)  -->
<svg version="1.1" id="Layer_1" xmlns="http://www.w3.org/2000/svg" xmlns:xlink="http://www.w3.org/1999/xlink" x="0px" y="0px"
	 viewBox="0 0 307.75 80" style="enable-background:new 0 0 307.75 80;" xml:space="preserve">
<style type="text/css">
	.st0{fill-rule:evenodd;clip-rule:evenodd;fill:#007AB3;}
	.st1{fill:#007AB3;}
	.st2{fill:#003568;}
	.st3{fill-rule:evenodd;clip-rule:evenodd;fill:#3ABCDA;}
	.st4{fill-rule:evenodd;clip-rule:evenodd;fill:#003568;}
</style>
<path class="st0" d="M114.85,9.17l11.4,11.4l-6.78,23.88l-8.64-8.48l-5.14-20.54L114.85,9.17z"/>
<path class="st1" d="M133.96,38.57h12.86L136.53,48l-17.07-3.55L133.96,38.57z"/>
<path class="st2" d="M136.53,48l-15.43,4.23l-18,9.49l16.36-17.26L136.53,48z"/>
<path class="st3" d="M110.82,53.57l-15.43,3l7.71,5.14L110.82,53.57z"/>
<path class="st4" d="M133.96,38.57h12.86L140.3,36L133.96,38.57z"/>
<path class="st4" d="M144.56,40.63l2.25,2.25v-4.32L144.56,40.63z"/>
<path class="st3" d="M133.96,38.57l-7.71-18l-6.78,23.88L133.96,38.57z"/>
<path class="st4" d="M105.68,15.43l2.57-12.86L97.96,0L105.68,15.43z"/>
<path class="st3" d="M114.85,9.17l-6.6-6.6l-2.57,12.86L114.85,9.17z"/>
<path class="st2" d="M63.32,27.36c0.31,0,0.56,0.25,0.56,0.56v3.39c0,0.31-0.25,0.56-0.56,0.56l-6.6-0.01v17.31
	c0.04,2.12,0.57,2.98,3.09,2.98h3.16c0.5-0.01,0.91,0.39,0.92,0.89c0,0,0,0,0,0v2.69c0,0.5-0.41,0.9-0.92,0.9h-3.38
	c-5.02-0.02-7.83-2.19-7.83-7.3V21.47c0-0.5,0.41-0.9,0.91-0.9c0,0,0,0,0,0h2.11c0.45,0.02,0.83,0.35,0.91,0.8l0.83,4.77l-2.84,0.38
	c-0.22,0.04-0.38,0.24-0.34,0.47c0,0,0,0.01,0,0.01c0.04,0.23,0.26,0.39,0.49,0.36L63.32,27.36z M42.97,35.88
	c-0.22-2.76-1.8-4.01-4.58-4.02H26.88c-0.31,0-0.56-0.25-0.56-0.55c0,0,0,0,0,0v-3.38c0-0.31,0.25-0.56,0.55-0.56c0,0,0,0,0,0H38.4
	c6.34,0,9.57,3.61,9.57,9.04v12.92c0,5.12-2.82,7.31-7.83,7.31h-6.91c-5.49,0-8.89-2.86-8.89-7.61c0-5.87,5.31-9.86,18.67-11.9
	l3.05-0.41c0.22-0.04,0.37-0.24,0.34-0.47c0,0,0-0.01,0-0.01c-0.04-0.23-0.26-0.39-0.49-0.36L42.97,35.88z M33.44,52.14h6.5
	c2.49,0,3.03-0.91,3.06-3.04v-7.76c-12.04,2-13.7,5.08-13.7,7.54C29.3,50.93,30.56,52.14,33.44,52.14L33.44,52.14z M84.23,35.88
	c-0.22-2.76-1.8-4.01-4.58-4.02H68.14c-0.31,0-0.56-0.25-0.56-0.56v-3.38c0-0.31,0.25-0.56,0.56-0.56h11.52
	c6.34,0,9.57,3.61,9.57,9.04v12.92c0,5.12-2.82,7.31-7.83,7.31h-6.91c-5.49,0-8.89-2.86-8.89-7.61c0-5.87,5.31-9.86,18.67-11.9
	l3.05-0.41c0.22-0.04,0.38-0.24,0.34-0.47c0,0,0-0.01,0-0.01c-0.04-0.23-0.26-0.39-0.49-0.36L84.23,35.88z M74.69,52.14h6.5
	c2.49,0,3.03-0.91,3.06-3.04v-7.76c-12.04,2-13.7,5.08-13.7,7.54C70.56,50.93,71.81,52.14,74.69,52.14L74.69,52.14z M0,35.04
	c0-4.24,3.96-7.67,8.86-7.67l11.47-0.01c0.31,0,0.56,0.25,0.56,0.56v3.38c0,0.31-0.25,0.55-0.56,0.55H8.59c-2,0-3.63,1.21-3.63,2.94
	c0,1.79,0.83,2.69,5.95,4.08C18,40.79,22.2,42.6,22.2,48.19c0,4.66-4.37,8.44-9.76,8.44H1.35c-0.31,0-0.56-0.25-0.56-0.56V52.7
	c0-0.31,0.25-0.56,0.55-0.56c0,0,0,0,0,0h11.34c2.47,0,4.54-1.58,4.54-3.71c0-2.38-1.98-3.52-7.12-4.92C4.36,41.95,0,40.33,0,35.04z
	"/>
<g transform="translate(138.939 6.213)">
	<path class="st2" d="M110.96,37.06c3.98-2.12,5.63-4.89,5.63-8.29c0-4.75-3.4-7.61-8.9-7.61h-6.5c-5.01,0-7.84,2.19-7.84,7.31
		v21.19c0,0.67,0.11,0.77,0.77,0.77h3.44c0.67,0,0.77-0.1,0.77-0.77V41.9h-2.92c-0.23,0.03-0.45-0.12-0.49-0.35
		c-0.04-0.22,0.1-0.44,0.32-0.48c0.01,0,0.01,0,0.02,0l3.06-0.41c2.71-0.39,5.4-0.97,8.03-1.75l5.84,10.83
		c0.17,0.34,0.31,0.68,0.68,0.68h4.58c0.21,0.02,0.39-0.14,0.41-0.35c0-0.02,0-0.04,0-0.06c0.01-0.1-0.02-0.19-0.07-0.27
		L110.96,37.06z M98.33,28.69c0.03-2.13,0.58-3.04,3.06-3.04h6.08c2.88,0,4.14,1.2,4.14,3.26c0,2.45-1.25,5.53-13.29,7.54
		L98.33,28.69z"/>
	<path class="st2" d="M157.5,32.66c-5.13-1.38-5.96-2.29-5.96-4.08c0-1.73,1.64-2.94,3.63-2.94h10.5c0.3,0,0.55-0.24,0.56-0.55
		v-3.38c0-0.3-0.25-0.55-0.56-0.55h-10.23c-5.34,0-8.86,3.43-8.86,7.67c0,5.29,4.36,6.91,10.12,8.47c5.15,1.4,7.13,2.54,7.13,4.92
		c0,2.14-2.08,3.71-4.55,3.71h-11.35c-0.31,0-0.56,0.25-0.56,0.56v3.38c0,0.31,0.25,0.55,0.56,0.55h11.1c5.4,0,9.77-3.78,9.77-8.44
		c0-5.6-4.2-7.4-11.31-9.32"/>
	<path class="st2" d="M62.34,26.67c0-3.28-2.19-5.52-6.95-5.52H42.66c-0.4,0-0.73,0.33-0.73,0.73v3.02c0,0.4,0.32,0.73,0.73,0.73
		c0,0,0,0,0.01,0h12.97c0.77,0,1.44,0.28,1.44,1.14c0,2.71-17.16,8.89-17.16,17.9c0,3.15,1.99,5.74,7.28,5.74h14.43
		c0.4,0,0.73-0.33,0.73-0.73v-3.04c0-0.4-0.33-0.73-0.73-0.73l0,0H46.81c-0.85-0.09-1.5-0.8-1.49-1.66
		C45.32,38.17,62.34,33.73,62.34,26.67"/>
	<path class="st2" d="M27.16,21.15H15.62c-0.31,0-0.55,0.25-0.55,0.55c0,0,0,0,0,0v3.38c0,0.31,0.25,0.56,0.55,0.56h11.52
		c2.78,0.01,4.36,1.25,4.59,4.02h2.94c0.23-0.03,0.45,0.12,0.49,0.35c0.04,0.22-0.09,0.43-0.31,0.47c-0.01,0-0.02,0-0.03,0
		l-3.06,0.41c-13.38,2.04-18.69,6.02-18.69,11.89c0,4.76,3.4,7.61,8.9,7.61h6.92c5.01,0,7.84-2.2,7.84-7.32V30.2
		C36.73,24.77,33.5,21.16,27.16,21.15 M31.76,42.89c-0.03,2.13-0.58,3.03-3.06,3.04h-6.5c-2.88,0-4.14-1.21-4.14-3.26
		c0-2.44,1.67-5.53,13.71-7.53L31.76,42.89z"/>
	<path class="st2" d="M79.82,21.15H75.1c-6.35,0-9.58,3.61-9.58,9.04v11.2c0,5.43,3.23,9.04,9.58,9.04h4.73
		c6.35,0,9.58-3.61,9.58-9.04v-11.2C89.4,24.76,86.16,21.15,79.82,21.15 M84.42,35.13v6.29c0,2.79-1.49,4.51-4.61,4.51h-4.72
		c-3.11,0-4.61-1.72-4.61-4.51V30.16c0-2.79,1.5-4.51,4.61-4.51h4.72c3.12,0,4.61,1.72,4.61,4.51V35.13z"/>
	<path class="st2" d="M143.85,28.76c0-4.75-3.4-7.61-8.9-7.61h-5.18c-6.35,0-9.59,3.61-9.59,9.04v11.2c0,5.42,3.23,9.04,9.59,9.04
		h11.52c0.31,0,0.56-0.25,0.56-0.56v-3.38c0-0.31-0.25-0.55-0.56-0.55h-11.52c-2.78-0.01-4.36-1.25-4.58-4.02
		c0,0-0.03-0.47-0.03-1.02v-0.22C138.54,38.62,143.86,34.64,143.85,28.76 M125.17,33.93L125.17,33.93l0.01-3.77
		c0-2.79,1.49-4.51,4.61-4.51h4.96c2.88,0,4.14,1.2,4.14,3.26c0,2.45-1.67,5.53-13.72,7.54L125.17,33.93z"/>
</g>
<g transform="translate(216.777 36.975)">
	<path class="st2" d="M28.93,25.32c-0.19-0.77-0.9-1.3-1.7-1.27c-0.81-0.03-1.53,0.51-1.72,1.3L20.43,42.1
		c-0.02,0.08-0.03,0.17-0.03,0.26c-0.02,0.26,0.17,0.49,0.43,0.51c0.02,0,0.04,0,0.05,0h0.32c0.23-0.02,0.43-0.18,0.51-0.4l2-6.62
		h6.96l2.05,6.62c0.06,0.23,0.27,0.4,0.51,0.41h0.3c0.25,0.03,0.48-0.15,0.51-0.4c0-0.03,0-0.06,0-0.09c0-0.1-0.02-0.19-0.05-0.28
		L28.93,25.32z M24.09,34.52l2.68-8.86c0.07-0.25,0.16-0.38,0.46-0.38c0.23,0,0.37,0.13,0.46,0.41l2.65,8.84H24.09z"/>
	<g transform="translate(14.731 0.06)">
		<path class="st2" d="M22.45,24.05L22.45,24.05c0.36,0,0.66,0.29,0.66,0.66l0,0v1.68c0,0.36-0.29,0.66-0.66,0.66l0,0
			c-0.36,0-0.66-0.29-0.66-0.65v-1.68C21.79,24.35,22.09,24.05,22.45,24.05z"/>
		<path class="st2" d="M22.45,29.28L22.45,29.28c0.36,0,0.66,0.29,0.66,0.66l0,0v12.21c0,0.36-0.29,0.66-0.66,0.66c0,0,0,0,0,0l0,0
			c-0.36,0-0.65-0.3-0.66-0.66V29.94C21.79,29.58,22.08,29.28,22.45,29.28C22.45,29.28,22.45,29.28,22.45,29.28z"/>
	</g>
	<path class="st2" d="M45.74,29.22c-1.19,0-2.35,0.37-3.32,1.04v-0.31c0.02-0.31-0.21-0.59-0.53-0.61c-0.01,0-0.03,0-0.04,0h-0.2
		c-0.32,0-0.57,0.26-0.56,0.58c0,0.01,0,0.02,0,0.03v12.33c0.01,0.32,0.27,0.58,0.59,0.59h0.15c0.32-0.01,0.58-0.27,0.59-0.59V31.51
		c0.97-0.69,2.13-1.07,3.32-1.09c0.22,0,0.79,0,0.79-0.51v-0.2C46.54,29.22,45.96,29.22,45.74,29.22z"/>
	<path class="st2" d="M49.56,24.25h-0.25c-0.31,0.01-0.55,0.27-0.54,0.58c0,0,0,0.01,0,0.01v17.45c-0.02,0.31,0.22,0.57,0.53,0.59
		c0,0,0.01,0,0.01,0h0.25c0.31-0.01,0.55-0.27,0.54-0.58c0,0,0-0.01,0-0.01V24.83C50.12,24.52,49.88,24.26,49.56,24.25
		C49.57,24.25,49.57,24.25,49.56,24.25z"/>
	<g transform="translate(30.344 0.06)">
		<path class="st2" d="M23.92,24.05L23.92,24.05c0.37,0,0.66,0.3,0.66,0.66v1.68c0,0.37-0.3,0.66-0.66,0.66h0
			c-0.37,0-0.66-0.3-0.66-0.66v-1.68C23.26,24.35,23.56,24.05,23.92,24.05z"/>
		<path class="st2" d="M23.92,29.28L23.92,29.28c0.37,0,0.66,0.3,0.66,0.66v12.2c0,0.37-0.3,0.66-0.66,0.66h0
			c-0.37,0-0.66-0.3-0.66-0.66v-12.2C23.26,29.58,23.56,29.28,23.92,29.28z"/>
	</g>
	<path class="st2" d="M63.38,29.22c-1.34,0.04-2.66,0.36-3.87,0.95v-0.21c0.02-0.31-0.21-0.59-0.53-0.61c-0.01,0-0.03,0-0.04,0h-0.2
		c-0.32,0-0.57,0.26-0.56,0.58c0,0.01,0,0.02,0,0.04v12.33c0.01,0.32,0.27,0.58,0.59,0.59h0.15c0.32-0.01,0.58-0.27,0.59-0.59V31.39
		c1.18-0.59,2.47-0.92,3.79-0.97c2.14,0,3.22,1.23,3.22,3.64v8.22c0,0.32,0.25,0.58,0.56,0.59h0.17c0.32,0,0.59-0.26,0.59-0.59
		v-8.22C67.85,30.99,66.22,29.22,63.38,29.22z"/>
	<path class="st2" d="M75.45,29.22c-3.16,0-5.12,2.31-5.12,6.03v1.63c0,4.07,1.91,6.13,5.69,6.13c1.26-0.02,2.51-0.16,3.74-0.42
		c0.41-0.08,0.56-0.24,0.56-0.59v-0.17c0.01-0.25-0.18-0.46-0.43-0.47c-0.02,0-0.04,0-0.06,0c-0.03,0-0.07,0.01-0.1,0.02
		c-0.02,0.01-0.05,0.01-0.07,0.01c-1.2,0.25-2.42,0.39-3.64,0.42c-2.16,0-4.36-0.59-4.36-4.93v-0.4h8.25c0.32,0,0.59-0.26,0.59-0.59
		v-0.67C80.5,31.36,78.71,29.22,75.45,29.22z M79.17,35.26h-7.51v-0.01c0-2.2,0.66-4.83,3.79-4.83c2.54,0,3.72,1.53,3.72,4.81
		L79.17,35.26z"/>
	<path class="st2" d="M87.76,35.77l-1.66-0.92c-1.59-0.88-2.34-1.48-2.34-2.47c0-1.63,1.07-1.96,2.68-1.96
		c1.05,0.02,2.1,0.1,3.14,0.24l0.3,0.04h0.07c0.27,0.04,0.52-0.14,0.56-0.41c0.01-0.03,0.01-0.07,0-0.1v-0.2
		c0-0.17-0.08-0.46-0.62-0.54l-0.17-0.02c-1.12-0.14-2.26-0.21-3.39-0.2c-2.48,0-3.9,1.15-3.9,3.16c0,1.81,1.27,2.64,3.06,3.62
		l1.58,0.87c2.06,1.13,2.56,1.64,2.56,2.6c0,1.65-0.9,2.36-3.03,2.36c-1.22-0.04-2.44-0.17-3.64-0.4h-0.15
		c-0.25-0.03-0.48,0.14-0.51,0.39c0,0.02,0,0.05,0,0.07v0.27c0,0.33,0.31,0.44,0.64,0.51c1.19,0.21,2.4,0.33,3.61,0.35
		c2.88,0,4.4-1.23,4.4-3.56C90.97,37.69,89.64,36.81,87.76,35.77z"/>
</g>
</svg>
