<?xml version="1.0" encoding="utf-8"?>
<!-- Generator: Adobe Illustrator 25.4.1, SVG Export Plug-In . SVG Version: 6.00 Build 0)  -->
<svg version="1.1" id="Layer_1" xmlns="http://www.w3.org/2000/svg" xmlns:xlink="http://www.w3.org/1999/xlink" x="0px" y="0px"
	 viewBox="0 0 109.1 80" style="enable-background:new 0 0 109.1 80;" xml:space="preserve">
<style type="text/css">
	.st0{fill:url(#SVGID_1_);}
	.st1{fill:url(#SVGID_00000115492162511251580220000013349299242585543855_);}
	.st2{fill:url(#SVGID_00000008863173727121987810000008883959000274712978_);}
	.st3{fill:url(#SVGID_00000137099650736762537290000016246704188430410137_);}
	.st4{fill:url(#SVGID_00000032649664022089148160000015026748592441998732_);}
	.st5{fill:url(#SVGID_00000129205260572771434020000000590382967883859356_);}
	.st6{fill:url(#SVGID_00000163795477348575083300000000301005817243003579_);}
	.st7{fill:url(#SVGID_00000049222251590320218650000000061082801788068014_);}
	.st8{fill:url(#SVGID_00000009570305196516425170000000204904695274633605_);}
	.st9{fill:url(#SVGID_00000085224458289720500000000002077729244344785593_);}
	.st10{fill:#F6A513;}
</style>
<g>
	<linearGradient id="SVGID_1_" gradientUnits="userSpaceOnUse" x1="73.6912" y1="69.3034" x2="73.6912" y2="38.694">
		<stop  offset="4.062557e-03" style="stop-color:#F49915"/>
		<stop  offset="0.4048" style="stop-color:#F28F16"/>
		<stop  offset="0.9978" style="stop-color:#F08518"/>
	</linearGradient>
	<rect x="72" y="46.6" class="st0" width="3.4" height="18.6"/>
	
		<linearGradient id="SVGID_00000055695983696028627050000017054787383127288722_" gradientUnits="userSpaceOnUse" x1="102.4782" y1="69.3034" x2="102.4782" y2="38.694">
		<stop  offset="4.062557e-03" style="stop-color:#F49915"/>
		<stop  offset="0.4048" style="stop-color:#F28F16"/>
		<stop  offset="0.9978" style="stop-color:#F08518"/>
	</linearGradient>
	<polygon style="fill:url(#SVGID_00000055695983696028627050000017054787383127288722_);" points="109.1,50 109.1,46.6 99.3,46.6 
		95.8,46.6 95.8,50 95.8,53.6 95.8,57 95.8,61.7 95.8,65.1 99.3,65.1 109.1,65.1 109.1,61.7 99.3,61.7 99.3,57 108.4,57 108.4,53.6 
		99.3,53.6 99.3,50 	"/>
	
		<linearGradient id="SVGID_00000042700192886979786650000002505449512186702477_" gradientUnits="userSpaceOnUse" x1="42.9301" y1="69.3034" x2="42.9301" y2="38.694">
		<stop  offset="4.062557e-03" style="stop-color:#F49915"/>
		<stop  offset="0.4048" style="stop-color:#F28F16"/>
		<stop  offset="0.9978" style="stop-color:#F08518"/>
	</linearGradient>
	<polygon style="fill:url(#SVGID_00000042700192886979786650000002505449512186702477_);" points="46.7,46.6 46.7,59.6 39.2,46.6 
		35.7,46.6 35.7,65.1 39.2,65.1 39.2,52.5 46.5,65.1 46.7,65.1 49.9,65.1 50.1,65.1 50.1,46.6 	"/>
	
		<linearGradient id="SVGID_00000056401301700228984840000005758464553876276098_" gradientUnits="userSpaceOnUse" x1="24.8682" y1="69.3034" x2="24.8682" y2="38.694">
		<stop  offset="4.062557e-03" style="stop-color:#F49915"/>
		<stop  offset="0.4048" style="stop-color:#F28F16"/>
		<stop  offset="0.9978" style="stop-color:#F08518"/>
	</linearGradient>
	<path style="fill:url(#SVGID_00000056401301700228984840000005758464553876276098_);" d="M28.4,46.6v12.9c0,0-0.1,2.9-3.7,2.9
		c-3.6,0-3.5-2.9-3.5-2.9V46.6h-3.4v12.9c0,6.2,6.8,6.1,6.8,6.1c7.1,0,7.1-6.1,7.1-6.1V46.6H28.4z"/>
	
		<linearGradient id="SVGID_00000086684070164736273860000012008928872016938630_" gradientUnits="userSpaceOnUse" x1="61.9201" y1="69.3034" x2="61.9201" y2="38.694">
		<stop  offset="4.062557e-03" style="stop-color:#F49915"/>
		<stop  offset="0.4048" style="stop-color:#F28F16"/>
		<stop  offset="0.9978" style="stop-color:#F08518"/>
	</linearGradient>
	<path style="fill:url(#SVGID_00000086684070164736273860000012008928872016938630_);" d="M63.4,56.8C63.4,56.8,63.4,56.8,63.4,56.8
		c1.4-0.1,5.3-0.7,5.3-4.7c0-4.8-3.5-5.6-5.1-5.6h-6.2h-3.4v3.1v4.7v3.1v7.7h3.4v-7.7h2.2c0.4,0,1.6,0.4,3.1,2.7c1.9,3,3.2,5,3.2,5
		h4.2C69.9,65.1,66.2,57.5,63.4,56.8z M57.3,54.3v-4.7h6.2c0,0,1.5,0.1,1.5,2.3s-1.6,2.4-2.1,2.4H57.3z"/>
	
		<linearGradient id="SVGID_00000156564399331932203270000011453046279545361056_" gradientUnits="userSpaceOnUse" x1="85.3607" y1="69.3034" x2="85.3607" y2="38.694">
		<stop  offset="4.062557e-03" style="stop-color:#F49915"/>
		<stop  offset="0.4048" style="stop-color:#F28F16"/>
		<stop  offset="0.9978" style="stop-color:#F08518"/>
	</linearGradient>
	<path style="fill:url(#SVGID_00000156564399331932203270000011453046279545361056_);" d="M85.3,49c0,0,3.3,0.1,3.3,2.8h3.5
		c0,0-0.1-5.7-6.5-5.7c-6.4,0-6.8,4-6.8,5.6s1,3.9,4.3,4.9s6,1.1,6,3.2s-2.2,2.6-3.4,2.6c-1.2,0-3.4-0.2-4.2-3.6l-3.4,0.4
		c0,0,0.5,6.3,7.3,6.3c6.8,0,7.2-4.7,7.2-5.6c0,0,0.2-4.2-3.5-5.4c-3.8-1.2-4.9-1.5-5.7-1.8S82,51.8,82,51S82.6,49,85.3,49z"/>
	
		<linearGradient id="SVGID_00000051348885558081129260000011004679923496111258_" gradientUnits="userSpaceOnUse" x1="7.2203" y1="69.3034" x2="7.2203" y2="38.694">
		<stop  offset="4.062557e-03" style="stop-color:#F49915"/>
		<stop  offset="0.4048" style="stop-color:#F28F16"/>
		<stop  offset="0.9978" style="stop-color:#F08518"/>
	</linearGradient>
	<path style="fill:url(#SVGID_00000051348885558081129260000011004679923496111258_);" d="M7.2,49c0,0,3.3,0.1,3.3,2.8H14
		c0,0-0.1-5.7-6.5-5.7s-6.8,4-6.8,5.6s1,3.9,4.3,4.9s6,1.1,6,3.2s-2.2,2.6-3.4,2.6s-3.4-0.2-4.2-3.6L0,59.2c0,0,0.5,6.3,7.3,6.3
		s7.2-4.7,7.2-5.6c0,0,0.2-4.2-3.5-5.4S6,53,5.2,52.7s-1.4-1-1.4-1.7S4.5,49,7.2,49z"/>
	
		<linearGradient id="SVGID_00000065767383723271233700000004604838634379630470_" gradientUnits="userSpaceOnUse" x1="30.8643" y1="-1.5887" x2="30.8643" y2="46.1444">
		<stop  offset="3.513058e-03" style="stop-color:#E84E23"/>
		<stop  offset="0.2556" style="stop-color:#EB5F20"/>
		<stop  offset="0.7238" style="stop-color:#EF7B1A"/>
		<stop  offset="0.9978" style="stop-color:#F08518"/>
	</linearGradient>
	<path style="fill:url(#SVGID_00000065767383723271233700000004604838634379630470_);" d="M11.6,26.8c0,0,14.5-3.1,25.6,5
		c0,0,7.7,5.6,9.5,14.8h3.4c0,0-2.4-11.5-10-16.1S25,23,11.6,26.8z"/>
	
		<linearGradient id="SVGID_00000052077886599657041110000013492180016128478105_" gradientUnits="userSpaceOnUse" x1="24.7502" y1="-1.5887" x2="24.7502" y2="46.1444">
		<stop  offset="3.513058e-03" style="stop-color:#E84E23"/>
		<stop  offset="0.2556" style="stop-color:#EB5F20"/>
		<stop  offset="0.7238" style="stop-color:#EF7B1A"/>
		<stop  offset="0.9978" style="stop-color:#F08518"/>
	</linearGradient>
	<path style="fill:url(#SVGID_00000052077886599657041110000013492180016128478105_);" d="M8.4,30.9c0,0-1.2-8,3.2-11.7
		s7.6-4,10.5-4s18.3,0.3,20.3-3.9c0,0-4.7,1.1-12.4,1.1s-11-0.4-12.7-0.1c-1.8,0.3-6.9,1.1-9.1,5.7S7.2,30.2,8.4,30.9z"/>
	
		<linearGradient id="SVGID_00000105401674093524937200000000611176267514344074_" gradientUnits="userSpaceOnUse" x1="70.1254" y1="-1.5887" x2="70.1254" y2="46.1444">
		<stop  offset="3.513058e-03" style="stop-color:#E84E23"/>
		<stop  offset="0.2556" style="stop-color:#EB5F20"/>
		<stop  offset="0.7238" style="stop-color:#EF7B1A"/>
		<stop  offset="0.9978" style="stop-color:#F08518"/>
	</linearGradient>
	<path style="fill:url(#SVGID_00000105401674093524937200000000611176267514344074_);" d="M31.1,11c-0.1,0.2,7.4-6.4,21.6-6.2
		S91.7,14,99.3,18.7c0,0-17.5-5.5-23.9-4.4c0,0,12.4,4,21.2,12.1s12.6,20.2,12.6,20.2V17.6c0,0-18.6-14.6-38.7-16.9
		S36.6,1.9,31.1,11z"/>
	<g>
		<path class="st10" d="M27.9,71.5c-0.2,0-0.4,0.1-0.5,0.3l-0.1,0.7c-0.3-0.4-0.9-0.8-1.6-0.8c-1.1,0-2,0.9-2.6,2.4
			c-0.2,0.6-0.4,2.2,0.2,3c0.2,0.3,0.6,0.5,1,0.5c0.7,0,1.5-0.3,2.1-0.8l-0.1,0.6c0,0.2,0.1,0.4,0.3,0.5c0,0,0.1,0,0.1,0
			c0.2,0,0.4-0.1,0.4-0.3l0.5-2.7c0,0,0,0,0,0c0,0,0,0,0,0l0.5-2.7C28.2,71.8,28.1,71.6,27.9,71.5z M24.3,76.8
			c-0.2,0-0.3-0.1-0.3-0.2c-0.4-0.5-0.2-1.7-0.1-2.3c0.2-0.7,0.8-1.9,1.8-1.9c0.8,0,1.3,0.9,1.4,1.2l-0.2,0.9
			C26.6,76,25.3,76.8,24.3,76.8z"/>
		<path class="st10" d="M35.2,71.5c-0.2,0-0.4,0.1-0.5,0.3l-1.1,5.5c0,0.2,0.1,0.4,0.3,0.5c0,0,0.1,0,0.1,0c0.2,0,0.4-0.1,0.4-0.3
			l1.1-5.5C35.6,71.8,35.4,71.6,35.2,71.5z"/>
		<path class="st10" d="M78.6,71.7c-0.2-0.1-0.4,0.1-0.5,0.3c0,0-0.5,1.7-1.3,3.1c-0.2,0.4-0.5,0.9-0.9,1.4c-0.4-1-0.6-3.2-0.6-4.5
			c0-0.2-0.2-0.4-0.4-0.4c-0.2,0-0.4,0.2-0.4,0.4c0,0.7,0.1,4,0.9,5.3c-0.8,1.1-1.6,2.1-1.7,2.2c-0.1,0.2-0.1,0.4,0.1,0.6
			C73.9,80,74,80,74.1,80c0.1,0,0.2-0.1,0.3-0.1c0.1-0.1,2.4-2.9,3.1-4.4c0.8-1.5,1.3-3.2,1.3-3.3C78.9,71.9,78.8,71.7,78.6,71.7z"
			/>
		<path class="st10" d="M44.8,71.8c-0.3-0.3-1-0.2-1.6,0.2c-0.1,0.1-0.3,0.2-0.4,0.3l0.1-0.4c0-0.2-0.1-0.4-0.3-0.5
			c-0.2,0-0.4,0.1-0.5,0.3l-0.5,2.4c0,0,0,0,0,0l-0.6,3c0,0.2,0.1,0.4,0.3,0.5c0,0,0.1,0,0.1,0c0.2,0,0.4-0.1,0.4-0.3l0.6-3
			c0.2-0.4,0.7-1.4,1.2-1.7c0.2-0.1,0.4-0.2,0.5-0.2c0.1,0.2,0.2,0.3,0.4,0.3c0.2,0,0.4-0.1,0.4-0.3c0,0,0,0,0,0
			C45.1,72.2,45,72,44.8,71.8z"/>
		<path class="st10" d="M35.7,69.7c-0.2-0.1-0.5,0-0.7,0.2c-0.2,0.3-0.1,0.6,0.1,0.7c0.2,0.1,0.5,0,0.7-0.2
			C36,70.2,35.9,69.8,35.7,69.7z"/>
		<path class="st10" d="M68.2,71.5c-0.2,0-0.4,0.1-0.5,0.3l-0.1,0.7c-0.3-0.4-0.9-0.8-1.6-0.8c-1.1,0-2,0.9-2.6,2.4
			c-0.2,0.6-0.4,2.2,0.2,3c0.2,0.3,0.6,0.5,1,0.5c0.7,0,1.5-0.3,2.1-0.8l-0.1,0.6c0,0.2,0.1,0.4,0.3,0.5c0,0,0.1,0,0.1,0
			c0.2,0,0.4-0.1,0.4-0.3l0.5-2.7c0,0,0,0,0,0c0,0,0,0,0,0l0.5-2.7C68.5,71.8,68.4,71.6,68.2,71.5z M67.2,74.6
			c-0.3,1.4-1.5,2.2-2.6,2.2c-0.2,0-0.3-0.1-0.3-0.2c-0.4-0.5-0.2-1.7-0.1-2.3c0.2-0.7,0.8-1.9,1.8-1.9c0.8,0,1.3,0.9,1.4,1.2
			L67.2,74.6C67.2,74.6,67.2,74.6,67.2,74.6z"/>
		<path class="st10" d="M57.7,71.7c-0.2-0.1-0.4,0.1-0.5,0.3c-0.4,1.6-1.6,3.5-2.2,4.4c-0.1-0.9-0.2-2.6-0.3-3.2c0-0.3,0-0.6,0-0.7
			c0-0.2-0.1-0.6-0.4-0.7c-0.4-0.1-0.6,0.3-0.7,0.5c-0.1,0.1-0.2,0.5-0.5,1c-0.3,0.7-1.1,2.3-1.6,3c-0.2-0.9-0.4-2.8-0.4-4.5
			c0-0.2-0.2-0.4-0.4-0.4c-0.2,0-0.4,0.2-0.4,0.4c0.3,5.2,0.7,5.4,0.9,5.5c0.6,0.3,1-0.4,2.6-3.7c0.1-0.1,0.1-0.2,0.2-0.4
			c0.2,3.5,0.4,3.9,0.6,4.1c0.1,0.1,0.2,0.1,0.3,0.1c0,0,0,0,0,0c0.7-0.1,2.6-3.7,3.1-5.4C58,72,57.9,71.8,57.7,71.7z"/>
		<path class="st10" d="M87.8,72.1c-0.7-0.6-1.9-0.5-2.6-0.1c-0.5,0.3-0.7,0.7-0.8,1.2c0,0.6,0.3,1.1,0.9,1.5
			c0.1,0.1,0.2,0.1,0.3,0.2c0.6,0.4,0.9,0.6,0.9,1.1c0,0.5-0.4,0.8-0.9,0.9c-0.6,0.1-1.3-0.1-1.5-0.4c-0.1-0.2-0.4-0.2-0.6-0.1
			c-0.2,0.1-0.2,0.4-0.1,0.6c0.4,0.6,1.3,0.7,1.9,0.7c0.1,0,0.3,0,0.4,0c0.9-0.1,1.5-0.7,1.6-1.6c0.1-1-0.7-1.5-1.3-1.9
			C86,74.1,85.9,74,85.8,74c-0.3-0.2-0.6-0.5-0.5-0.8c0-0.2,0.1-0.4,0.3-0.5c0.5-0.3,1.3-0.3,1.7,0c0.2,0.1,0.4,0.1,0.6,0
			C88,72.5,87.9,72.2,87.8,72.1z"/>
	</g>
</g>
</svg>
