<?xml version="1.0" encoding="utf-8"?>
<!-- Generator: Adobe Illustrator 25.4.1, SVG Export Plug-In . SVG Version: 6.00 Build 0)  -->
<svg version="1.1" id="Layer_1" xmlns="http://www.w3.org/2000/svg" xmlns:xlink="http://www.w3.org/1999/xlink" x="0px" y="0px"
	 viewBox="0 0 80 80" style="enable-background:new 0 0 80 80;" xml:space="preserve">
<style type="text/css">
	.st0{fill:#BED600;}
	.st1{fill:#FFFFFF;}
</style>
<g>
	<path class="st0" d="M80,40.01C80,62.11,62.1,80,40.01,80C17.92,80,0,62.11,0,40.01S17.92,0,40.01,0C62.1,0,80,17.91,80,40.01"/>
	<path class="st1" d="M37.1,19.13c-6.3,0-10.39,0.35-13.35,1.45c-4.97,1.94-8.41,6-8.41,11.33c0,4.44,2.07,7.66,8.06,11.36
		c6.39,3.87,7.66,5.15,7.66,7.49c0,2.55-2.5,5.46-8.94,5.46c-2.25,0-5.63-0.31-7.8-0.84l-1.03-0.26c-0.58,1.54-1.88,5.19-2.28,6.52
		l1.02,0.3c1.95,0.62,6.56,1.11,9.87,1.11c11.01,0,17.57-6.65,17.57-13.61c0-4.28-1.94-7.53-8.51-11.63
		c-3.29-2.03-4.97-3.34-5.99-4.36c-0.83-1.06-0.92-1.85-0.92-2.69c0-0.8,0.18-1.71,0.7-2.39c0.57-0.83,1.61-1.36,3.02-1.8
		c1.45-0.48,4.14-0.49,8.32-0.49H40l2.78-6.95L37.1,19.13L37.1,19.13z M66.53,19.13H46.96l-2.78,6.95h6.49c4.37,0,5.2-0.09,6.3-0.09
		c-1.58,3.62-11.12,27.92-11.12,27.92h8.07c0,0,12.07-30.25,13.35-33.43C67.63,19.78,67.45,19.13,66.53,19.13z"/>
</g>
</svg>
