<?xml version="1.0" encoding="utf-8"?>
<!-- Generator: Adobe Illustrator 25.4.1, SVG Export Plug-In . SVG Version: 6.00 Build 0)  -->
<svg version="1.1" id="Layer_1" xmlns="http://www.w3.org/2000/svg" xmlns:xlink="http://www.w3.org/1999/xlink" x="0px" y="0px"
	 viewBox="0 0 248.77 80" style="enable-background:new 0 0 248.77 80;" xml:space="preserve">
<style type="text/css">
	.st0{fill:#747679;}
	.st1{fill:#BED600;}
	.st2{fill:#FFFFFF;}
</style>
<g>
	<g>
		<path class="st0" d="M126.41,19.13h6.7v6.01h-6.7V19.13z M126.41,28.64h6.7v25.28h-6.7V28.64z"/>
		<path class="st0" d="M143.31,32.68h0.15c1.53-2.86,3.25-4.34,6.21-4.34c0.74,0,1.18,0.05,1.58,0.2v5.86h-0.15
			c-4.38-0.44-7.54,1.87-7.54,7.19v12.32h-6.7V28.64h6.45V32.68z"/>
		<path class="st0" d="M164.3,19.13h6.7v6.01h-6.7V19.13z M164.3,28.64h6.7v25.28h-6.7V28.64z"/>
		<path class="st0" d="M181.29,32.09h0.15c1.72-2.71,4.04-4.14,7.49-4.14c5.22,0,8.72,3.94,8.72,9.46v16.51h-6.7V38.39
			c0-2.71-1.58-4.63-4.39-4.63c-2.96,0-5.12,2.37-5.12,5.81v14.34h-6.7V28.64h6.55L181.29,32.09L181.29,32.09z"/>
		<path class="st0" d="M200.41,41.25c0-7.49,5.07-13.3,12.47-13.3c8.13,0,12.47,6.21,12.47,15.22h-18.33
			c0.49,3.89,2.66,6.31,6.45,6.31c2.61,0,4.14-1.18,4.88-3.1h6.6c-0.94,4.48-4.93,8.28-11.43,8.28
			C205.14,54.65,200.41,48.79,200.41,41.25z M207.11,38.54h11.23c-0.2-3.2-2.32-5.42-5.37-5.42
			C209.42,33.12,207.7,35.24,207.11,38.54z"/>
		<path class="st0" d="M226.88,45.74h6.21c0.44,2.91,2.51,4.19,5.52,4.19c2.96,0,4.63-1.13,4.63-2.91c0-2.41-3.2-2.66-6.65-3.35
			c-4.53-0.89-8.97-2.12-8.97-7.64c0-5.47,4.53-8.08,10.3-8.08c6.65,0,10.35,3.3,10.84,8.38h-6.06c-0.3-2.71-2.02-3.7-4.88-3.7
			c-2.61,0-4.34,0.99-4.34,2.81c0,2.17,3.35,2.37,6.95,3.1c4.24,0.89,8.92,2.07,8.92,7.98c0,5.07-4.34,8.13-10.64,8.13
			C231.37,54.65,227.28,51.11,226.88,45.74z"/>
		<path class="st0" d="M110.6,19.13h-7.8L88.7,53.91h7.98l2.61-7.14h14.39l2.66,7.14h8.03L110.6,19.13z M101.21,40.91l5.17-14.78
			l5.32,14.78L101.21,40.91L101.21,40.91z"/>
		<rect x="153.85" y="19.13" class="st0" width="6.7" height="34.78"/>
	</g>
	<g>
		<path class="st1" d="M80,40.01C80,62.11,62.1,80,40.01,80C17.92,80,0,62.11,0,40.01S17.92,0,40.01,0C62.1,0,80,17.91,80,40.01"/>
		<path class="st2" d="M37.1,19.13c-6.3,0-10.39,0.35-13.35,1.45c-4.97,1.94-8.41,6-8.41,11.33c0,4.44,2.07,7.66,8.06,11.36
			c6.39,3.87,7.66,5.15,7.66,7.49c0,2.55-2.5,5.46-8.94,5.46c-2.25,0-5.63-0.31-7.8-0.84l-1.03-0.26c-0.58,1.54-1.88,5.19-2.28,6.52
			l1.02,0.3c1.95,0.62,6.56,1.11,9.87,1.11c11.01,0,17.57-6.65,17.57-13.61c0-4.28-1.94-7.53-8.51-11.63
			c-3.29-2.03-4.97-3.34-5.99-4.36c-0.83-1.06-0.92-1.85-0.92-2.69c0-0.8,0.18-1.71,0.7-2.39c0.57-0.83,1.61-1.36,3.02-1.8
			c1.45-0.48,4.14-0.49,8.32-0.49H40l2.78-6.95L37.1,19.13L37.1,19.13z M66.53,19.13H46.96l-2.78,6.95h6.49
			c4.37,0,5.2-0.09,6.3-0.09c-1.58,3.62-11.12,27.92-11.12,27.92h8.07c0,0,12.07-30.25,13.35-33.43
			C67.63,19.78,67.45,19.13,66.53,19.13z"/>
	</g>
</g>
</svg>
