<?xml version="1.0" encoding="utf-8"?>
<!-- Generator: Adobe Illustrator 25.4.1, SVG Export Plug-In . SVG Version: 6.00 Build 0)  -->
<svg version="1.1" id="Layer_1" xmlns="http://www.w3.org/2000/svg" xmlns:xlink="http://www.w3.org/1999/xlink" x="0px" y="0px"
	 viewBox="0 0 85.4 80" style="enable-background:new 0 0 85.4 80;" xml:space="preserve">
<style type="text/css">
	
		.st0{clip-path:url(#SVGID_00000101094652540472297100000015695395109946250923_);fill:url(#SVGID_00000095312243031459661070000007322771788485829804_);}
	.st1{fill-rule:evenodd;clip-rule:evenodd;}
	.st2{fill-rule:evenodd;clip-rule:evenodd;fill:#FFFFFF;}
</style>
<g>
	<g>
		<g>
			<defs>
				<polygon id="SVGID_1_" points="5.4,80 85.4,80 5.4,0 				"/>
			</defs>
			<clipPath id="SVGID_00000075125675492383692970000004712017429317862836_">
				<use xlink:href="#SVGID_1_"  style="overflow:visible;"/>
			</clipPath>
			
				<linearGradient id="SVGID_00000124157776993332891030000012701592823213639811_" gradientUnits="userSpaceOnUse" x1="-668.5667" y1="-298.0103" x2="-668.2264" y2="-298.0103" gradientTransform="matrix(235.1206 0 0 235.1206 157199.2031 70108.3594)">
				<stop  offset="0" style="stop-color:#F58220"/>
				<stop  offset="1" style="stop-color:#FFCB05"/>
			</linearGradient>
			
				<rect x="5.4" style="clip-path:url(#SVGID_00000075125675492383692970000004712017429317862836_);fill:url(#SVGID_00000124157776993332891030000012701592823213639811_);" width="80" height="80"/>
		</g>
	</g>
	<path class="st1" d="M56.9,63.4l1-1.3l1.2-1.5l1.6-1.9l1.9-2.1l2.1-2.2l1.1-1.1l1.1-1l1.1-1l1.2-0.9l1.5-0.9l1.3-0.8l1.5-1.1
		l1.6-1.4l1.6-1.6l0.8-0.9l0.8-1l0.7-1c0.9-1.5,1.6-2.9,2.3-4.4l0.6-1.5l0.4-1.3l0.3-1.3l0.2-1.2l0.1-1l0.1-0.9l-0.1-1.2l-0.1-1
		l-0.1-0.3L82.3,27L82,26.7l-0.4-0.2l-0.5-0.1h-0.5l-0.5,0.2l-0.5,0.3l-0.9,0.8l-0.6,0.5l-0.5,0.7l-0.3,0.1L76.8,29l-0.6,0.2
		l-0.6,0.2L75,29.8l-0.6,0.5l-0.6,0.5l-0.5,0.6l-0.5,0.8h-0.1l-0.3,0.1l-0.7,0.3l-0.4,0.3l-0.5,0.4l-0.5,0.5L70,34.4l-0.3,0.1
		l-0.3,0.1L68.7,35l-0.4,0.3l-0.5,0.4l-0.4,0.5L67.1,37l-0.7,0.6l-0.3,0.3l-0.7,0.8l-0.5,0.6L64.4,40l-0.5,0.9l-0.5,1l0,0L63.4,42
		l-0.2,0.2l-4.3,3.4c-1.9,1.6-3.7,3.2-5.6,5L51.8,52l-1.5,1.5L49,55.1l-1.3,1.6c-0.5,0-0.9,0.1-1.3,0.3c-0.9-1.3-2.2-3-3.2-4.4
		l-2.3-3l-3-3.7l-1.7-2l-1.9-2.1L31.8,40l-2.1-2.2l-2.2-2.1l-2.3-2.1l-2.3-2l-2.4-1.9L19.8,28l-0.7-1.2l-0.9-1.4l-1-1.5L16,22.3
		l-1.4-1.6l-1.5-1.5l-5.5-5L6,12.5l-0.9-1.1l-0.6-0.7l-0.5-0.5L3.4,9.7H3.3L3.2,9.7L3,9.6L2.8,9.5L2.5,9.4L2.2,9.5L1.9,9.5L1.6,9.6
		L1.3,9.9L1,10.2l-0.5,0.6l-0.3,0.8l-0.2,0.8L0,13.2l0.1,1l0.3,1.1l0.3,0.8L1,17l-0.3,0.6l-0.2,0.6L0.5,19l-0.1,0.9l0.1,1l0.2,1.1
		l0.2,0.6l0.2,0.6l0.3,0.6l0.4,0.6l-0.1,0.7v0.6l0.1,0.9l0.1,0.6l0.2,0.6l0.3,0.7l0.4,0.7l0.6,0.7l0.8,0.7l0.1,0.8L4.5,32l0.2,0.6
		l0.4,0.8l0.6,0.8L6.5,35L7,35.4l0.6,0.4l0.6,0.3l0.7,0.3l0.5,0.8l0.3,0.4l0.3,0.4l0.5,0.5l0.7,0.6l0.8,0.6l1,0.6l1.2,0.5l0.6,0.7
		l1,1.1l0.9,0.9l0.9,0.8l0.5,0.5l0.8,0.9l2,2.6l2.3,3l2,2.8l1,1.6l1.8,2.8l0.8,1l0.8,0.9l0.5,0.5c-1.3,0.3-2.6,0.7-3.9,0.9
		c-3,0.4-5.8,0.1-8.6-0.8l-2-0.6l-0.4-0.1c-0.5-0.1-0.7-0.2-0.4,0.4l0.2,0.3l0.3,0.3l0.6,0.7l1,1.1l0.7,0.6l0.8,0.7l0.9,0.7l0.9,0.7
		l0.6,0.4l0.6,0.3l0.6,0.3h0.1l0.3,0.1h0.6l1.5,0.3l1.5-0.3l0.4-0.1l1,0.5l2.5,1.2l1.6,0.8L33,70l1.9,0.6l1.9,0.5l2.7,0.6l1.3,0.2
		l1.5,0.2l1.7,0.1l2.1,0.1h2.8l3.4-0.1h0.6l1.6,0.1l2.1,0.1l1.1,0.2l1.1,0.2l1,0.2l0.9,0.1l0.9,0.1h0.8H64l1.6-0.2l1-0.1h1.2
		l1.5,0.2l2.2,0.3l0.4,0.1l0.3,0.3l0.2,0.3l0.1,0.3l0.1,0.4l0.1,0.2l0.2,0.1h0.2l0.3-0.2l0.3-0.2l0.3-0.3l0.3-0.3l0.2-0.4l0.2-0.4
		l0.1-0.5v-0.5l-0.1-0.4l-0.1-0.4l-0.2-0.3l-0.3-0.3l-0.3-0.2l-0.4-0.2l-0.5-0.1l-0.5-0.1l-0.6-0.1L71.2,70l-1-0.5l-0.9-0.6
		l-0.7-0.5l-0.7-0.5l-0.6-0.3l-0.3-0.1l-0.2-0.1l-0.1-0.2L66.5,67l-0.2-0.2l-0.2-0.3l-0.3-0.3l-0.5-0.4l-0.7-0.4L63.8,65l-0.7-0.2
		l-0.6-0.1h-0.6h-1.3l-0.6-0.1l-0.6-0.1l-0.6-0.2l-0.5-0.2L56.9,63.4z"/>
	<path class="st2" d="M56,62.9c-1.3-1-2.5-2.3-4.3-2c1.6,0.2,2.3,1.2,3.4,2.3l0.9,0.7l0.6,0.4l0.6,0.3l0.5,0.2l0.5,0.2l0.5,0.1
		l0.9,0.2l2,0.1l1.2,0.2l0.6,0.1l0.6,0.2l0.6,0.3l0.5,0.3l0.4,0.3l0.3,0.3l0.3,0.5l0.1,0.2l0.4,0.1l0.5,0.2l0.5,0.3l0.4,0.3l0.4,0.3
		l0.4,0.2l0.9,0.5l0.6,0.2l0.6,0.2l1.3,0.3l0.6,0.2l0.5,0.3l0.2,0.2l0.2,0.2l0.1,0.2l0.1,0.3v0.3l-0.1,0.3l-0.3,0.6l-0.3,0.4
		l-0.1,0.2v-0.1l-0.1-0.2l-0.2-0.3l-0.3-0.4l-0.2-0.2l-0.2-0.1l-0.6-0.2l-0.8-0.1l-1-0.2l-1-0.2l-0.9-0.1L67,71.7h-0.9l-2.4,0.1
		h-1.5l-1.6-0.1l-3.2-0.5l-2-0.2l-2.7-0.2l-1.5-0.1h-1.3l-2.6,0.1h-2.7l-1.5-0.1l-1.7-0.1l-1.8-0.2l-1.9-0.3l-1.9-0.5l-1.8-0.5
		l-1.7-0.6l-1.5-0.6l-1.3-0.6l-1-0.5l-0.9-0.4L26.8,66l-1.7-0.6L23.8,65l-0.5-0.1l0.7,0.3l0.6,0.3l0.6,0.4l-1.9,0.3
		c-1,0.1-1.1-0.1-2-0.6L20.5,65l-0.8-0.7L19,63.5l-1.7-1.7c4.9,1.7,9.5,1.2,14.4-0.4l-0.8-0.8l-0.8-0.9l-0.8-1l-0.7-1l-1.4-2.1
		l-1.2-1.9l-0.9-1.3l-1-1.5l-2.3-3.1L19.7,45l-0.8-0.9l-0.5-0.5l-0.9-0.8l-0.8-0.4l-0.9-1l1,0.1h1l1-0.1l-1.2-0.1l-1-0.2l-0.9-0.2
		l-0.9-0.3L14.2,40l-0.7-0.3l-0.6-0.3L12.4,39l-0.9-0.7l-0.6-0.6l-0.5-0.6l0.5,0.1l0.6,0.1h1.2l0.9-0.1H14l-1.4-0.2l-1.2-0.3
		l-1.1-0.3l-0.9-0.4l-0.8-0.5l-0.7-0.5l-0.6-0.5l-0.5-0.5l-0.4-0.5L6.1,33l-0.4-0.8l-0.2-0.6l-0.1-0.2L6,31.6l0.6,0.2L7.8,32
		l1.5,0.2L8,31.7l-1.1-0.5L6,30.7l-0.8-0.6l-0.6-0.6l-0.5-0.6l-0.4-0.6l-0.3-0.5l-0.2-0.5l-0.3-0.6l-0.1-0.8v-0.5v-0.2l0.5,0.3
		l0.6,0.3l1.3,0.6l1.1,0.4l0.5,0.2l-1.2-0.8l-1-0.8l-0.9-0.8L2.8,24l-0.5-0.8l-0.4-0.8l-0.3-0.8l-0.2-0.7l-0.1-0.6v-0.6v-0.5
		l0.1-0.4l0.1-0.6L1.6,18L2,18.4l0.3,0.4l0.9,0.7l0.9,0.6l0.9,0.5l0.8,0.4l0.6,0.2L7,21.5l-1.2-0.7l-1-0.8l-0.9-0.8l-0.8-0.8
		l-0.6-0.9L2,16.7l-0.4-0.9L1.3,15L1,14.2L1,13.5v-0.7L1,12.2l0.1-0.5l0.2-0.4l0.4-0.6l0.2-0.2l0.2-0.1l0.3-0.1l0.2,0.1h0.1l0.4,0.4
		l0.5,0.5l0.6,0.7l1,1L7,14.7l5.4,5l0.8,0.8l0.8,0.8l1.5,1.7l1.3,1.7l1,1.6l0.9,1.5l0.6,1.1l0.5,1l2.4,1.9l2.3,2l2.3,2.1l2.1,2.2
		l2.1,2.2l2,2.1l1.9,2.1l1.7,2l3,3.7l2.3,3c1.2,1.6,2.3,3.1,3.1,4.6c1.5,1.3,3,2.7,4.1,4.2c0.8-0.1,1.5-0.1,2.2,0
		c-0.7-0.3-1.2-0.5-2-0.7c-1-1.6-2-2.8-3.4-4.1c0.6-0.2,1.5-0.2,2-0.2c0.6-1.7,11.7-12.5,15.3-14.4c0.6-1,1.7-3.5,3.2-4.8
		C66,38.9,66,39.4,66.1,40c0.5-1.6,1.4-3.7,3.2-4.8c-0.2,0.6-0.1,1.2,0.1,1.7c0.2-1.7,1.6-3.5,3.1-4.2c-0.1,0.6-0.1,1.2,0.1,1.7
		c-0.1-2.1,2.2-5,4.4-5.1c-0.2,0.8-0.3,1.5-0.3,2.3c0.8-2.4,1.5-3.4,3.5-4.6c0.6-0.3,1.2,0.1,1.2,0.7c-0.2,4.9-1.6,10.3-4.5,14.3
		c-2.3,3.1-5.5,5.4-8.6,7.4c-0.5,0.3-0.8,0.6-1.2,0.9C63.1,54.5,59,58.7,56,62.9"/>
	<polygon class="st1" points="63.6,68.2 63.2,68 63,68 62.5,67.9 61.5,68 61,68.2 60.9,68.2 60.9,68.2 61.3,68.2 61.9,68.2 
		62.4,68.2 62.4,68.3 62.4,68.6 62.5,68.8 62.6,68.9 62.8,69 63.1,69 63.3,69 63.4,69 63.5,68.9 63.6,68.7 63.7,68.6 63.7,68.5 
		63.9,68.5 64,68.6 64.2,68.7 64,68.5 63.8,68.3 	"/>
</g>
</svg>
