<?xml version="1.0" encoding="utf-8"?>
<!-- Generator: Adobe Illustrator 25.4.1, SVG Export Plug-In . SVG Version: 6.00 Build 0)  -->
<svg version="1.1" id="Layer_1" xmlns="http://www.w3.org/2000/svg" xmlns:xlink="http://www.w3.org/1999/xlink" x="0px" y="0px"
	 viewBox="0 0 402.6 80" style="enable-background:new 0 0 402.6 80;" xml:space="preserve">
<style type="text/css">
	.st0{fill-rule:evenodd;clip-rule:evenodd;fill:#F37021;}
	.st1{fill-rule:evenodd;clip-rule:evenodd;}
	
		.st2{clip-path:url(#SVGID_00000021841936066000980560000005367103487665740432_);fill:url(#SVGID_00000168802434291036087400000003408625462648870273_);}
	.st3{fill-rule:evenodd;clip-rule:evenodd;fill:#FFFFFF;}
</style>
<path class="st0" d="M332.1,43.4c2.8,0.4,5.6,0.3,8.6,0c1,11.5,3.9,24.5,7.2,35.5c-4-0.3-7.8-0.3-11.5,0c-0.3-3.7-0.7-7.4-1.3-11.1
	h-5.9l-7.4,0.1c-2.2,3.7-4.3,7.4-6.5,11c-1.9-0.1-4-0.1-6.2,0C317.5,67.7,324.9,55.5,332.1,43.4 M324.4,63.6l5.1,0.1l4.9-0.1
	c-0.7-4-1.5-8-2.2-12C329.6,55.6,327,59.6,324.4,63.6"/>
<path class="st0" d="M358.5,43.4c2.9,0.3,6.1,0.5,10.5,0c-2.9,11.9-5,23.4-6.8,35.5c-3.3-0.3-6.8-0.3-10.5,0
	C354.9,67.1,356.9,55.5,358.5,43.4"/>
<path class="st0" d="M376.9,43.4c4.8,0.2,9.6-0.2,14.4-0.1c6.4,0.1,12.5,2.8,11.3,9.4c-1,5.7-5.1,7.8-10.6,9
	c2.4,6.1,6.7,11.9,10.5,17.2c-4.4-0.2-8.4-0.2-12.3,0c-2.1-5.6-4.4-10.1-7.4-15.2c-1,5.1-1.7,10.1-2.4,15.2c-3.6-0.2-7.1-0.2-10.3,0
	C373.1,67.2,375.1,55.4,376.9,43.4 M383.5,59.9c5.5,0.5,8.3-1.1,9.4-6.5c0.9-5-1.4-6.7-6.9-5.9L383.5,59.9z"/>
<path class="st1" d="M92.5,77.9c0.5-0.7,0.9-1.5,1.3-2.4c0.4-0.9,0.7-1.9,1-2.9c0.7,1.6,1.8,2.9,3.2,3.7c1.4,0.9,2.9,1.3,4.7,1.3
	c2.5,0,4.5-0.7,6.1-2.1c1.6-1.4,2.4-3.2,2.5-5.5c0.1-1.1-0.3-2.2-1-3c-0.7-0.9-2.3-2-4.8-3.5c-3.2-1.8-5.3-3.4-6.2-4.6
	c-0.9-1.2-1.4-2.6-1.4-4.3c0.1-3.3,1.3-6,3.7-8.2c2.4-2.2,5.4-3.3,8.9-3.3c1,0,2.1,0.1,3.3,0.3c1.1,0.2,2.5,0.6,3.8,1.1
	c-0.4,0.7-0.8,1.6-1.1,2.4c-0.3,0.9-0.5,1.7-0.7,2.5l-0.4,0.2c-0.6-1.4-1.3-2.5-2.4-3.2c-1-0.7-2.2-1.1-3.7-1.1c-2,0-3.6,0.6-5,1.8
	c-1.4,1.3-2.1,2.8-2.1,4.6c-0.1,2.4,2,4.8,6.1,7.1c0.2,0.1,0.3,0.1,0.3,0.2c3.1,1.7,5.1,3.2,6,4.3c0.9,1.1,1.3,2.6,1.3,4.2
	c-0.1,3.6-1.6,6.5-4.3,8.8c-2.8,2.4-6.3,3.6-10.6,3.6c-1.7,0-3.3-0.2-4.8-0.6C94.9,79.1,93.6,78.6,92.5,77.9 M142.8,45.1
	c-4,0-7.3,1.9-10,5.7s-4.1,8.7-4.2,14.6c-0.1,3.9,0.6,6.9,2.2,9c1.6,2.1,3.9,3.1,6.9,3.1c4,0,7.4-1.9,10.2-5.7
	c2.8-3.8,4.3-8.6,4.4-14.3c0.1-4-0.7-7.1-2.3-9.2C148.5,46.2,146,45.1,142.8,45.1 M122.7,64.4c0.2-6.2,2.1-11.3,6-15.3
	c3.8-4,8.6-6,14.3-6c5,0,8.8,1.4,11.6,4.1c2.8,2.8,4.1,6.5,3.9,11.4c-0.2,6-2.2,11-6.3,15.2c-4,4.1-8.9,6.2-14.6,6.2
	c-4.6,0-8.3-1.4-11-4.2C123.9,72.8,122.6,69.1,122.7,64.4 M198.8,43.8c-1.7,7.8-3.2,14.6-4.3,20.3c-1.1,5.7-2,10.7-2.7,15
	c-0.5-0.1-1-0.1-1.4-0.2c-0.5-0.1-0.9-0.1-1.4-0.1c-0.5,0-0.9,0-1.3,0.1c-0.5,0.1-0.9,0.1-1.3,0.2c0.2-1.1,0.5-2.5,0.9-4.4
	c0.1-0.5,0.2-0.8,0.2-1c-2,2-4,3.4-6,4.4c-2,0.9-4,1.4-6.2,1.4c-3.3,0-5.9-0.8-7.7-2.5c-1.8-1.7-2.6-4-2.6-7
	c0.1-1.4,0.6-5.1,1.8-11.1c1.1-6,2-11.1,2.7-15.2c0.7,0.1,1.3,0.2,1.7,0.2c0.4,0.1,0.8,0.1,1.1,0.1c0.4,0,0.7-0.1,1.1-0.1
	c0.4-0.1,1-0.1,1.9-0.2c-1.6,6.5-2.8,11.9-3.7,16.2s-1.3,7.3-1.3,9.1c-0.1,2.3,0.6,4,1.8,5.2c1.3,1.2,3.2,1.8,5.7,1.8
	c2.4,0,4.5-0.7,6.4-2.1c1.8-1.4,3.2-3.3,4.1-5.8c0.6-1.8,1.3-4.5,2.1-8.4c0.7-3.8,1.6-9.1,2.6-16c0.8,0.1,1.4,0.2,1.8,0.2
	c0.4,0.1,0.7,0.1,1.1,0.1c0.3,0,0.7-0.1,1.1-0.1C197.4,44,198,43.9,198.8,43.8 M203,79.1c1.9-8.5,3.4-15.6,4.5-21.1
	c1.1-5.5,2-10.3,2.6-14.3c0.5,0.1,1,0.1,1.4,0.2c0.5,0.1,0.9,0.1,1.3,0.1c0.5,0,0.9,0,1.3-0.1c0.4-0.1,0.8-0.1,1.3-0.2
	c-0.2,0.9-0.3,1.8-0.5,2.7c-0.2,0.9-0.3,1.8-0.5,2.6c2-2,4-3.4,5.9-4.4c2-0.9,4-1.4,6.2-1.4c3.4,0,6,0.8,7.8,2.5
	c1.8,1.7,2.6,4,2.6,6.9c-0.1,1.4-0.6,5.1-1.8,11.1c-1.1,6-2.1,11.1-2.7,15.2c-0.7-0.1-1.3-0.2-1.7-0.2c-0.4-0.1-0.7-0.1-1.1-0.1
	c-0.6,0-1.5,0.1-2.7,0.2c-0.2,0-0.3,0-0.4,0.1c1.8-7.7,3-13.4,3.8-17.3c0.7-3.8,1.1-6.5,1.1-8.2c0.1-2.2-0.6-3.9-1.8-5.1
	c-1.3-1.1-3.2-1.8-5.6-1.8c-2.4,0-4.5,0.7-6.3,2.1c-1.8,1.4-3.2,3.3-4,5.7c-0.7,2.2-1.5,5.3-2.3,9.3c-0.8,4-1.6,9-2.5,15.2
	c-0.5-0.1-0.9-0.2-1.4-0.2c-0.5-0.1-1-0.1-1.6-0.1c-0.5,0-1,0-1.6,0.1C203.9,79,203.5,79,203,79.1 M268.7,79.1
	c0.1-0.4,0.2-1.4,0.5-2.9c0.2-1.5,0.4-2.7,0.6-3.6c-1.6,2.5-3.4,4.3-5.3,5.5c-2,1.2-4.2,1.8-6.7,1.8c-4.3,0-7.7-1.4-10.1-4.1
	c-2.4-2.8-3.5-6.6-3.4-11.5c0.2-6.1,2-11.1,5.4-15.2s7.6-6.1,12.6-6.1c2.9,0,5.3,0.6,7.2,1.8c1.9,1.2,3.3,3.1,4.4,5.6l2.7-14.5
	c0.6-3,1-5.6,1.3-7.7c0.3-2.1,0.5-3.8,0.6-5.3c0.5,0.1,0.9,0.1,1.4,0.2c0.5,0.1,0.9,0.1,1.4,0.1c0.5,0,1,0,1.6-0.1
	c0.5-0.1,1-0.1,1.6-0.2c-2.4,10.7-4.5,20.8-6.2,30.3s-3.1,18.1-4,25.8c-0.5-0.1-1-0.1-1.4-0.2c-0.5-0.1-0.9-0.1-1.4-0.1
	c-0.5,0-1,0-1.4,0.1C269.6,79,269.1,79.1,268.7,79.1 M263.5,45.5c-3.6,0-6.7,1.8-9.2,5.6c-2.6,3.7-4,8.3-4.1,13.7
	c-0.1,3.8,0.6,6.8,2.2,9c1.6,2.2,3.7,3.3,6.5,3.3c3.7,0,6.9-2,9.4-5.9c2.5-3.9,3.9-9,4-15.1c0.1-3.3-0.7-5.9-2.2-7.8
	C268.5,46.5,266.4,45.5,263.5,45.5 M282.1,77.9c0.5-0.7,0.9-1.5,1.3-2.4c0.4-0.9,0.7-1.9,1-2.9c0.7,1.6,1.8,2.9,3.2,3.7
	s2.9,1.3,4.7,1.3c2.5,0,4.5-0.7,6.1-2.1c1.6-1.4,2.4-3.2,2.5-5.5c0.1-1.1-0.3-2.2-1-3c-0.7-0.9-2.3-2-4.8-3.5
	c-3.2-1.8-5.3-3.4-6.2-4.6c-0.9-1.2-1.4-2.6-1.4-4.3c0.1-3.3,1.3-6,3.7-8.2c2.4-2.2,5.4-3.3,8.9-3.3c1,0,2.1,0.1,3.3,0.3
	c1.1,0.2,2.5,0.6,3.8,1.1c-0.4,0.7-0.8,1.6-1.1,2.4c-0.3,0.9-0.5,1.7-0.6,2.5l-0.4,0.2c-0.6-1.4-1.3-2.5-2.4-3.2
	c-1-0.7-2.2-1.1-3.7-1.1c-2,0-3.6,0.6-5,1.8c-1.4,1.3-2.1,2.8-2.1,4.6c-0.1,2.4,2,4.8,6.1,7.1c0.2,0.1,0.3,0.1,0.3,0.2
	c3.1,1.7,5.1,3.2,6,4.3c0.9,1.1,1.3,2.6,1.3,4.2c-0.1,3.6-1.6,6.5-4.3,8.8c-2.8,2.4-6.3,3.6-10.6,3.6c-1.7,0-3.3-0.2-4.8-0.6
	C284.5,79.1,283.2,78.6,282.1,77.9"/>
<g>
	<g>
		<defs>
			<polygon id="SVGID_1_" points="5.3,79.2 84.5,79.2 5.3,0 			"/>
		</defs>
		<clipPath id="SVGID_00000059991320937937520490000005576222108723405237_">
			<use xlink:href="#SVGID_1_"  style="overflow:visible;"/>
		</clipPath>
		
			<linearGradient id="SVGID_00000098180149913758880530000008065205421460357769_" gradientUnits="userSpaceOnUse" x1="-668.5669" y1="-298.012" x2="-668.2301" y2="-298.012" gradientTransform="matrix(235.1206 0 0 235.1206 157199.2031 70108.3594)">
			<stop  offset="0" style="stop-color:#F58220"/>
			<stop  offset="1" style="stop-color:#FFCB05"/>
		</linearGradient>
		
			<rect x="5.3" style="clip-path:url(#SVGID_00000059991320937937520490000005576222108723405237_);fill:url(#SVGID_00000098180149913758880530000008065205421460357769_);" width="79.2" height="79.2"/>
	</g>
</g>
<path class="st1" d="M56.3,62.8l1-1.3l1.2-1.5l1.6-1.9l1.8-2.1l2.1-2.2l1.1-1.1l1.1-1l1.1-1l1.1-0.9l1.5-0.9l1.3-0.8l1.4-1.1
	l1.6-1.4l1.6-1.6l0.7-0.9l0.7-1l0.7-1c0.9-1.4,1.6-2.9,2.3-4.4l0.6-1.5l0.4-1.3l0.3-1.3l0.2-1.1l0.1-1l0.1-0.9l-0.1-1.2l-0.1-1
	l-0.1-0.3l-0.2-0.3l-0.3-0.3l-0.4-0.2l-0.5-0.1h-0.5l-0.5,0.2l-0.5,0.3l-0.9,0.7l-0.6,0.5l-0.5,0.7l-0.3,0.1L76,28.7l-0.6,0.2
	l-0.6,0.2l-0.6,0.3l-0.6,0.5l-0.6,0.5l-0.5,0.6l-0.5,0.7H72l-0.3,0.1L71,32.2l-0.4,0.3l-0.5,0.4l-0.5,0.5l-0.4,0.6L69,34.2l-0.3,0.1
	l-0.6,0.4L67.7,35l-0.5,0.4L66.8,36l-0.4,0.6l-0.7,0.6l-0.3,0.3l-0.7,0.8l-0.5,0.6l-0.5,0.7l-0.5,0.9l-0.5,1l0,0l-0.1,0.1l-0.2,0.2
	l-4.2,3.3c-1.9,1.6-3.7,3.2-5.5,4.9l-1.4,1.4L49.8,53l-1.4,1.6l-1.3,1.6c-0.5,0-0.9,0.1-1.3,0.3c-0.9-1.3-2.2-3-3.2-4.3l-2.2-2.9
	l-3-3.6l-1.7-2l-1.8-2.1l-2.4-1.9l-2.1-2.2l-2.2-2.1L25,33.2l-2.3-2l-2.4-1.9l-0.8-1.6l-0.7-1.2L18,25.2l-1-1.5l-1.2-1.6l-1.4-1.6
	L12.9,19l-5.4-5l-1.6-1.6l-0.9-1.1l-0.6-0.7l-0.5-0.5L3.3,9.6H3.3L3.2,9.6L3,9.5L2.8,9.4L2.5,9.3L2.2,9.4L1.9,9.4L1.6,9.5L1.3,9.8
	L1,10.1l-0.5,0.6l-0.3,0.7l-0.2,0.8L0,13l0.1,1l0.3,1.1L0.6,16L1,16.8l-0.3,0.6l-0.2,0.6l-0.1,0.7l-0.1,0.9l0.1,1l0.2,1.1l0.2,0.6
	l0.2,0.6l0.3,0.6L1.8,24l-0.1,0.7v0.6l0.1,0.9l0.1,0.6l0.2,0.6l0.3,0.7l0.4,0.7l0.6,0.7l0.7,0.7L4.2,31l0.2,0.6l0.2,0.6L5.1,33
	l0.6,0.8l0.8,0.9L6.9,35l0.6,0.4l0.6,0.3l0.7,0.3l0.5,0.8l0.3,0.4l0.3,0.4l0.5,0.5l0.7,0.6l0.8,0.6l1,0.6l1.2,0.5l0.6,0.7l1,1.1
	l0.9,0.9l0.9,0.8l0.5,0.5l0.7,0.9l2,2.5l2.2,3l2,2.8l1,1.6l1.8,2.8l0.7,1l0.8,0.9l0.5,0.5c-1.3,0.3-2.6,0.7-3.9,0.9
	c-3,0.4-5.7,0.1-8.6-0.8l-2-0.6l-0.4-0.1c-0.5-0.1-0.7-0.2-0.4,0.4l0.2,0.3l0.3,0.3l0.6,0.7l1,1.1l0.7,0.6l0.7,0.7l0.9,0.7l0.9,0.7
	l0.6,0.4l0.6,0.3l0.6,0.3h0.1l0.3,0.1h0.6l1.5,0.3l1.5-0.3l0.4-0.1l1,0.5l2.5,1.2l1.6,0.7l1.7,0.7l1.8,0.6l1.8,0.5l2.6,0.6l1.3,0.2
	l1.4,0.2l1.7,0.1l2.1,0.1h2.8l3.4-0.1h0.6l1.6,0.1l2.1,0.1L57,72l1.1,0.2l1,0.2l0.9,0.1l0.9,0.1h0.8h1.6l1.6-0.2l1-0.1H67l1.5,0.2
	l2.2,0.3l0.4,0.1l0.3,0.3l0.2,0.3l0.1,0.3l0.1,0.4l0.1,0.2l0.2,0.1h0.2l0.3-0.2l0.3-0.2l0.3-0.3l0.3-0.3l0.2-0.4l0.2-0.4l0.1-0.5
	v-0.5l-0.1-0.4l-0.1-0.4l-0.2-0.3l-0.3-0.3L73,69.9l-0.4-0.2l-0.5-0.1l-0.5-0.1L71,69.4l-0.6-0.2l-1-0.5l-0.9-0.6l-0.7-0.5l-0.7-0.5
	l-0.6-0.3l-0.3-0.1L66,66.7l-0.1-0.2l-0.1-0.2l-0.2-0.2l-0.2-0.3l-0.3-0.3l-0.5-0.4l-0.7-0.4l-0.7-0.3l-0.7-0.2L61.9,64h-0.6H60
	L59.3,64l-0.6-0.1l-0.6-0.2l-0.5-0.2L56.3,62.8z"/>
<path class="st3" d="M55.4,62.3c-1.3-1-2.5-2.2-4.2-2c1.6,0.2,2.3,1.2,3.4,2.2l0.9,0.7l0.6,0.4l0.6,0.3l0.5,0.2l0.5,0.2l0.5,0.1
	l0.9,0.2l2,0.1l1.1,0.2l0.6,0.1l0.6,0.2l0.6,0.3l0.5,0.3l0.4,0.3l0.3,0.3l0.3,0.5l0.1,0.2l0.4,0.1l0.5,0.2l0.5,0.3l0.4,0.3l0.4,0.3
	l0.4,0.2l0.9,0.5l0.6,0.2l0.6,0.2l1.3,0.3l0.6,0.2l0.5,0.3l0.2,0.2l0.2,0.2l0.1,0.2l0.1,0.3v0.3L73.1,72l-0.3,0.6l-0.3,0.4l-0.1,0.2
	v-0.1l-0.1-0.2l-0.2-0.3l-0.3-0.4l-0.2-0.2l-0.2-0.1l-0.6-0.2L70,71.5l-1-0.2l-1-0.2L67.2,71L66.3,71h-0.9l-2.4,0.1h-1.5L60,71
	l-3.2-0.5l-2-0.2l-2.6-0.2l-1.4-0.1h-1.3l-2.6,0.1h-2.7l-1.5-0.1L41,69.9l-1.8-0.2l-1.9-0.3l-1.8-0.5l-1.8-0.5L32,67.8l-1.5-0.6
	l-1.3-0.6l-1-0.5l-0.9-0.4l-0.9-0.4l-1.7-0.6l-1.3-0.4l-0.5-0.1l0.7,0.3l0.6,0.3l0.6,0.4l-1.9,0.3c-1,0.1-1.1-0.1-2-0.6l-0.9-0.6
	l-0.7-0.7l-0.7-0.7l-1.7-1.7c4.8,1.7,9.4,1.2,14.3-0.4L30.6,60l-0.7-0.9l-0.7-1l-0.7-1L27,55l-1.2-1.9l-0.9-1.3l-1-1.5l-2.3-3
	l-2.1-2.6l-0.8-0.9l-0.5-0.5l-0.9-0.8l-0.7-0.4l-0.9-1l1,0.1h1l1-0.1l-1.1-0.1l-1-0.2l-0.9-0.2l-0.9-0.3L14,39.6l-0.7-0.3l-0.6-0.3
	l-0.5-0.3l-0.9-0.7l-0.6-0.6l-0.5-0.6l0.5,0.1l0.6,0.1h1.2l0.9-0.1h0.3l-1.4-0.2l-1.2-0.3l-1.1-0.3l-0.9-0.4L8.5,35l-0.7-0.5
	l-0.6-0.5l-0.5-0.5l-0.4-0.5l-0.3-0.5l-0.4-0.8l-0.2-0.6l-0.1-0.2l0.5,0.2l0.6,0.2l1.3,0.3l1.4,0.2l-1.3-0.5l-1.1-0.5l-0.9-0.5
	l-0.7-0.6l-0.6-0.6L4,28.7l-0.4-0.6l-0.3-0.5L3.1,27l-0.3-0.6l-0.1-0.8v-0.5v-0.2l0.5,0.3l0.6,0.3l1.3,0.6l1.1,0.4l0.5,0.2l-1.2-0.7
	l-1-0.7l-0.9-0.7l-0.7-0.8L2.3,23l-0.4-0.7l-0.3-0.7l-0.2-0.7l-0.1-0.6v-0.6v-0.5l0.1-0.4l0.1-0.6l0.1-0.2L2,18.3l0.3,0.4l0.9,0.7
	L4,20l0.9,0.5l0.8,0.4l0.6,0.2l0.6,0.2l-1.1-0.7l-1-0.7l-0.9-0.8l-0.7-0.8l-0.6-0.9L2,16.5l-0.4-0.9l-0.3-0.9L1,14L1,13.3v-0.7
	L1,12.1l0.1-0.5l0.2-0.4l0.4-0.6l0.2-0.2l0.2-0.1l0.3-0.1l0.2,0.1h0.1l0.4,0.4l0.5,0.5l0.6,0.7l1,1l1.7,1.6l5.3,5l0.8,0.8l0.8,0.8
	l1.4,1.7l1.3,1.7l1,1.6l0.9,1.4l0.6,1.1l0.5,1l2.4,1.9l2.3,2l2.2,2.1l2.1,2.2l2.1,2.2l2,2.1l1.8,2.1l1.7,2l3,3.6l2.2,2.9
	c1.2,1.6,2.3,3,3.1,4.6c1.5,1.3,3,2.7,4,4.2c0.7-0.1,1.4-0.1,2.2,0c-0.7-0.3-1.2-0.5-2-0.7c-1-1.6-2-2.8-3.3-4
	c0.6-0.2,1.5-0.2,2-0.2c0.6-1.7,11.6-12.4,15.1-14.2c0.6-1,1.7-3.4,3.2-4.7c-0.2,0.6-0.2,1.1-0.1,1.7c0.5-1.6,1.4-3.7,3.2-4.7
	c-0.2,0.6-0.1,1.1,0.1,1.7c0.2-1.7,1.6-3.5,3-4.2c-0.1,0.6-0.1,1.1,0.1,1.7c-0.1-2.1,2.2-4.9,4.3-5.1c-0.2,0.7-0.3,1.5-0.3,2.2
	c0.8-2.4,1.5-3.3,3.4-4.6c0.6-0.3,1.2,0.1,1.1,0.7c-0.2,4.8-1.6,10.2-4.4,14.1c-2.2,3-5.4,5.3-8.6,7.3c-0.5,0.3-0.7,0.6-1.1,0.9
	C62.5,54,58.4,58.1,55.4,62.3"/>
<polygon class="st1" points="62.9,67.5 62.6,67.4 62.4,67.3 61.9,67.3 60.9,67.4 60.4,67.5 60.3,67.5 60.3,67.5 60.6,67.5 
	61.3,67.5 61.8,67.5 61.7,67.7 61.8,67.9 61.9,68.1 62,68.2 62.1,68.3 62.4,68.3 62.7,68.3 62.8,68.3 62.9,68.2 63,68.1 63.1,67.9 
	63.1,67.8 63.2,67.8 63.3,67.9 63.5,68 63.3,67.8 63.2,67.6 "/>
</svg>
