<?xml version="1.0" encoding="utf-8"?>
<!-- Generator: Adobe Illustrator 25.4.1, SVG Export Plug-In . SVG Version: 6.00 Build 0)  -->
<svg version="1.1" id="Layer_2" xmlns="http://www.w3.org/2000/svg" xmlns:xlink="http://www.w3.org/1999/xlink" x="0px" y="0px"
	 viewBox="0 0 121.99 80" style="enable-background:new 0 0 121.99 80;" xml:space="preserve">
<style type="text/css">
	.st0{fill:#FFFFFF;}
	.st1{fill:#D92632;}
	.st2{fill:#FFB221;}
	.st3{fill:#008A43;}
	.st4{fill:#010101;}
	.st5{fill:#163683;}
</style>
<g>
	<path class="st0" d="M34.18,0H16.46H0l31.09,80h47.4h43.5L34.18,0z M4.09,2.8h14.55H33.1l25.39,23.13l-21.96-0.05l-23.49-0.06
		L4.09,2.8z M13.51,27.04l25.64,2.22l25.4,2.2l18.24,16.62L62.26,59.07L32.21,75.15L13.51,27.04z M76.32,77.2H33l-0.15-0.4
		L64.7,62.21l22.37-10.24l27.69,25.23H76.32z"/>
	<polygon class="st1" points="4.09,2.8 33.1,2.8 58.48,25.93 13.03,25.82 	"/>
	<circle class="st2" cx="22.74" cy="14.83" r="6.83"/>
	<path class="st3" d="M13.51,27.04c0.75-0.17,51.04,4.42,51.04,4.42l18.24,16.62L32.21,75.15l35.46-33.26L13.51,27.04z"/>
	<polygon class="st2" points="13.51,27.04 67.67,41.89 32.21,75.15 31.43,73.16 45.18,48.37 14,28.31 	"/>
	<polygon class="st4" points="14,28.31 31.43,73.16 45.18,48.37 	"/>
	<polygon class="st5" points="114.76,77.2 87.07,51.97 32.85,76.8 33,77.2 	"/>
</g>
</svg>
