<?xml version="1.0" encoding="utf-8"?>
<!-- Generator: Adobe Illustrator 26.0.2, SVG Export Plug-In . SVG Version: 6.00 Build 0)  -->
<svg version="1.1" id="Layer_1" xmlns="http://www.w3.org/2000/svg" xmlns:xlink="http://www.w3.org/1999/xlink" x="0px" y="0px"
	 viewBox="0 0 602 80" style="enable-background:new 0 0 602 80;" xml:space="preserve">
<style type="text/css">
	.st0{clip-path:url(#SVGID_00000134252211933735858820000011814291852087589044_);}
	.st1{fill:#FFFFFF;}
	.st2{fill:#D92632;}
	.st3{fill:#FFB221;}
	.st4{fill:#008A43;}
	.st5{fill:#010101;}
	.st6{fill:#163683;}
</style>
<g>
	<defs>
		<rect id="SVGID_1_" x="0.1" width="643" height="80"/>
	</defs>
	<clipPath id="SVGID_00000165941443162000473630000018295030952047266995_">
		<use xlink:href="#SVGID_1_"  style="overflow:visible;"/>
	</clipPath>
	<g style="clip-path:url(#SVGID_00000165941443162000473630000018295030952047266995_);">
		<path class="st1" d="M34.2,0H16.5H0l31.1,80h47.4H122L34.2,0z M4.1,2.8h14.5h14.5l25.4,23.1l-22-0.1L13,25.8L4.1,2.8z M13.5,27
			l25.6,2.2l25.4,2.2l18.2,16.6l-20.5,11L32.2,75.2L13.5,27z M76.3,77.2H33l-0.2-0.4l31.9-14.6L87.1,52l27.7,25.2H76.3z"/>
		<path class="st2" d="M4.1,2.8h29l25.4,23.1L13,25.8L4.1,2.8z"/>
		<path class="st3" d="M22.7,21.7c3.8,0,6.8-3.1,6.8-6.8S26.5,8,22.7,8s-6.8,3.1-6.8,6.8S19,21.7,22.7,21.7z"/>
		<path class="st4" d="M13.5,27c0.8-0.2,51,4.4,51,4.4l18.2,16.6L32.2,75.2l35.5-33.3L13.5,27z"/>
		<path class="st3" d="M13.5,27l54.2,14.9L32.2,75.2l-0.8-2l13.7-24.8L14,28.3L13.5,27z"/>
		<path class="st5" d="M14,28.3l17.4,44.9l13.8-24.8L14,28.3z"/>
		<path class="st6" d="M114.8,77.2L87.1,52L32.8,76.8l0.1,0.4H114.8z"/>
		<path class="st6" d="M272.2,63c0-1.6,0.7-2.3,1.2-3.7l0.9-2.5c0.2-0.5,0.2-0.7,0.5-1.2h10.4c0.2,0.5,0.2,0.7,0.5,1.2
			c0.5,0.9,0.7,1.4,0.9,2.3c0.7,1.4,1.2,2.1,1.2,3.5c0.2,0.2,0.2,0.2,0.2,0.4c0,0.9-0.2,1.2-0.7,1.9h9.3c-3-2.1-3.2-4.6-4.9-8.1
			c-0.5-0.9-0.7-1.6-1.2-2.3c-0.7-1.9-1.4-3.7-2.6-6c-1.9-4.2-2.8-6.7-4.6-10.9c-0.9-2.3-1.6-3.5-2.6-6c-2.6,6.7-4.2,10.2-6.7,16.9
			c-1.2,2.3-1.9,3.9-2.6,6c-0.5,0.7-0.7,1.4-0.9,2.3c-1.4,3.5-2.1,5.8-5.1,8.1h7.4C272.5,64.4,272.2,63.7,272.2,63z M279.9,43.1
			l3.9,9.5h-7.6L279.9,43.1z"/>
		<path class="st6" d="M208.8,43.8c0.7-0.2,1.1-0.5,1.8-0.5h4.1v18c0,1.6-0.5,2.5-1.4,3.4h7.3c-0.5-0.5-0.7-0.9-0.9-1.6
			c-0.2-0.7-0.5-0.9-0.5-1.6v-18c1.8,0,2.7-0.2,4.3,0c0.9,0,1.6,0,2.5,0.7c0.2,0.2,0.5,0.5,0.7,0.7l0.9-3.9h-21.5l0.9,3.9
			C207.6,44.3,208.1,44.1,208.8,43.8z"/>
		<path class="st6" d="M230.7,64.8h7.4c-0.9-0.9-1.4-1.8-1.4-3.2v-7.1c0-0.2,0-0.2,0-0.4h11.7v7.5c0,0.7-0.2,1.1-0.5,1.6
			c-0.2,0.7-0.5,1.1-0.9,1.6h7.4c-0.5-0.5-0.7-0.9-1.2-1.6c0-0.7-0.2-0.9-0.2-1.6V44.3c0-0.7,0.2-0.9,0.2-1.4
			c0.2-0.9,0.5-1.4,1.2-1.8H247c0.7,0.5,0.9,0.9,1.2,1.8c0,0.4,0.2,0.7,0.2,1.4v6.8h-11.7v-6.8c0-1.4,0.5-2.3,1.4-3.2h-7.4
			c0.7,0.7,0.9,1.1,1.2,2c0,0.4,0.2,0.7,0.2,1.4v16.9C232.1,63,231.9,63.9,230.7,64.8z"/>
		<path class="st6" d="M135.8,62.4h-1.3c-1.1,0-1.6,0-2.5-0.5c-2.3-0.7-3.2-1.8-4.6-3.4l-1.8,4.8c1.6,0.9,2.7,1.2,4.6,1.6
			c1.1,0.2,1.8,0.4,3.2,0.4s2.3,0.2,3.7,0c2.7-0.2,4.3-0.4,6.6-2.1c2.3-1.6,3.2-3.4,3.4-6.2V56c0-0.5-0.2-1.2-0.2-1.6
			c-0.9-3.2-3.4-5.3-6.6-6.9c-2.5-1.2-4.1-1.8-6.4-3.2c-1.4-0.9-2.1-1.8-2.1-3.4c0-0.2,0-0.5,0-0.5c0.2-1.8,1.4-3,3-3.7
			c0.7-0.2,1.1-0.4,2.1-0.4h1.4c1.1,0,1.8,0.2,3,0.7c1.1,0.4,1.8,0.9,2.5,1.8c0.5,0.7,0.7,1.2,1.1,1.6l1.6-4.4
			c0-0.2-0.2-0.2-0.2-0.2c-0.5-0.2-0.5-0.2-0.9-0.5c-0.9-0.7-1.4-0.7-2.5-1.2c-0.7-0.2-1.4-0.2-2.1-0.5h-6.4
			c-0.9,0.2-1.4,0.5-2.3,0.7c-3.2,1.2-5.3,3.2-5.5,6.7v0.7c0,4.4,3,6.7,6.8,8.5c2.5,1.4,3.9,1.8,6.2,3.4c0.2,0.2,0.7,0.5,0.9,0.7
			c0.7,0.9,1.1,1.8,1.1,3C141.6,60.4,138.8,62.4,135.8,62.4z"/>
		<path class="st6" d="M151.9,58.3c1.6,3.8,3.8,5.9,7.6,6.8c1.2,0.5,1.9,0.5,3.1,0.5h2.3c1.2,0,1.9,0,3.1-0.5c4-1.2,6.4-3.3,7.8-7.3
			c0.2-0.9,0.5-1.6,0.7-2.6v-0.9c0.2-0.2,0.2-0.5,0.2-0.9V51c0-1.7-0.2-2.6-0.9-4.2c-1.4-4.2-4.2-6.8-8.5-7.7
			c-0.9-0.2-1.4-0.2-2.3-0.2h-2.3c-0.9,0-1.2,0-2.1,0.2c-0.7,0.2-1.4,0.2-2.1,0.7c-2.1,0.7-3.1,1.4-4.5,3c-1.2,1.7-1.9,2.8-2.3,4.9
			c-0.5,1.4-0.7,2.1-0.7,3.3v3.3c0.2,0.5,0.2,0.9,0.5,1.4C151.5,56.6,151.5,57.3,151.9,58.3z M155.9,51c0-1.2,0.2-1.9,0.7-3.1
			c0.5-1.6,0.9-2.8,2.1-4.2c0.7-0.9,1.4-1.2,2.4-1.6c0.7-0.2,1.2-0.5,1.9-0.5h1.4c0.5,0,0.7,0,1.2,0.2c1.2,0.2,1.6,0.7,2.6,1.4
			c1.2,0.9,1.7,1.9,2.3,3.3c0.2,1.2,0.5,1.7,0.7,2.8c0,0.5,0.2,0.7,0.2,1.4v3c0,0.2,0,0.2-0.2,0.5c0,0.7,0,0.9-0.2,1.7
			c-0.9,3.8-3.3,7-7.3,7c-3.8,0-6.4-3-7.3-6.8c0-0.7-0.2-1.2-0.2-1.9c-0.2-0.2-0.2-0.5-0.2-0.9V51L155.9,51z"/>
		<path class="st6" d="M348.1,63c-0.2,0.9-0.5,1.4-1.2,1.8h7.4c-0.5-0.5-0.7-0.9-1.2-1.8c0-0.4-0.2-0.7-0.2-1.4V44.3
			c0-0.7,0.2-0.9,0.2-1.4c0.2-0.9,0.5-1.4,1.2-1.8h-7.4c0.7,0.7,0.9,1.1,1.2,2c0,0.4,0.2,0.7,0.2,1.1v17.3
			C348.3,62,348.1,62.5,348.1,63z"/>
		<path class="st6" d="M477.3,63.7c-0.2,0.7-0.4,1.2-0.9,1.9h6.7c-0.4-0.7-0.6-1.2-1.1-1.9c0-0.4-0.2-0.9-0.2-1.4V45.1
			c0-0.7,0.2-0.9,0.2-1.4c0.2-0.9,0.4-1.4,1.1-1.9h-6.7c0.6,0.7,0.9,1.2,1.1,2.1v18.3C477.6,62.7,477.6,63.2,477.3,63.7z"/>
		<path class="st6" d="M513.6,45l5.4,19.7h4l4.2-12.2l4.2,12.2h4l5.4-19.1c0.5-1.6,0.9-2.7,2.3-3.6h-5.6c0,0,1.2,0.5,0.5,2.5
			c-0.7,3.6-4,14.1-4,14.1l-6.6-16.8l-5.6,16.8c0,0-4.2-14.1-4.2-15c0-0.5,0-1.4,0.9-1.8h-7.3C512.9,43.2,513.4,44.4,513.6,45z"/>
		<path class="st6" d="M490.2,63.4c-0.2,0.7-0.5,1.2-1.2,1.8h7.4c-0.7-0.7-0.9-1.2-1.2-1.8c-0.2-0.4-0.2-0.9-0.2-1.6V44.3
			c1.4,0,2.1-0.2,3.5,0c2.1,0,3.9,1.6,3.9,3.7v1.2c0,0.9-0.2,1.4-0.7,2.1c-0.4,0.9-0.9,1.2-1.9,1.8c-0.9,0.5-1.4,0.7-2.5,0.9
			c0.2,0.5,0.5,0.7,0.9,1.2c0.5,0.9,0.9,1.4,1.6,2.3c1.4,2.1,2.1,3.2,3.5,5.1c1.2,1.6,1.6,2.5,3,3.7c0.9,0.9,1.4,1.4,2.3,1.8
			c0.9,0.2,1.6,0.5,2.5,0.5h3.7c-0.2-0.5-0.7-0.5-1.2-0.9c-0.9-0.7-1.6-1.2-2.5-2.1c-1.4-1.4-2.1-2.3-3.2-3.7
			c-2.1-3-3.2-4.6-5.5-7.6c0.9-0.5,1.4-0.5,2.3-1.2c0.7-0.5,0.9-0.9,1.6-1.8c0.5-0.9,0.7-1.6,0.7-2.8v-1.4c-0.2-3.2-3.2-5.3-6.7-5.3
			h-11.3c0.7,0.5,0.9,0.9,1.2,1.6c0.2,0.7,0.2,0.9,0.2,1.4V62C490.4,62.5,490.4,62.9,490.2,63.4z"/>
		<path class="st6" d="M547.2,65.5c-0.7-0.5-0.7-0.9-0.7-1.6c0-1.2,0.2-1.9,0.7-2.8c0.5-1.2,0.7-1.9,1.2-2.8h8.5
			c0.5,0.9,0.7,1.6,1.2,2.8c0.5,0.9,0.9,1.6,0.9,2.8c0,0.7-0.5,0.9-0.9,1.6h8c-1.2-0.9-1.6-1.6-2.3-3c-0.7-1.2-0.9-1.9-1.6-3.3
			c-1.2-2.3-1.7-3.7-3.1-6.3c-0.9-1.9-1.4-3-2.3-4.9c-0.7-1.6-1.2-2.3-1.9-4c-0.2-0.9-0.5-1.4-0.9-2.1c-0.2-0.7-0.5-0.9-0.7-1.6
			c-0.2,0.9-0.7,1.6-1.2,2.6c-0.7,1.4-0.9,2.3-1.6,3.7c-1.2,2.6-1.9,3.7-2.8,6.3c-0.9,2.3-1.7,3.7-2.8,6.1c-1.2,2.6-1.9,4.2-3.8,6.5
			L547.2,65.5L547.2,65.5z M552.6,48.7l3.1,6.7h-6.1L552.6,48.7z"/>
		<path class="st6" d="M565.4,44.2c0.7,0.9,5.1,8.8,5.7,10.4c0,0,0,7.2,0,8.1c0,0.7,0.2,1.9-0.7,2.8h6c-0.9-0.9-0.9-1.9-0.9-2.8
			c0-0.7,0-8.1,0-8.1s3.5-6.3,4.6-8.1c1.2-2.1,1.4-2.8,3.7-4.6h-6c0.5,0.2,0.5,0.5,0.5,0.9c0.2,0.7-0.2,1.4-0.7,2.1
			c-0.5,0.9-3.9,7-3.9,7s-3.2-5.6-3.7-6.7c-0.5-0.9-0.7-1.2-0.7-1.9c0-0.7,0.2-0.9,0.5-1.4h-6.7C564,42.3,564.7,43,565.4,44.2z"/>
		<path class="st6" d="M592.8,63.2h-1.2c-0.9,0-1.2-0.2-2.1-0.4c-1.7-0.5-2.4-1.4-3.5-2.8l-1.4,3.7c1.4,0.7,2.1,1.2,3.8,1.4
			c0.9,0.2,1.4,0.2,2.4,0.5h2.8c2.1-0.2,3.5-0.5,5.2-1.6c1.9-1.4,2.6-2.8,2.8-4.8c0-0.5,0-0.5,0-0.9c-0.2-3.2-2.4-5.1-5.4-6.5
			c-2.1-0.9-3.3-1.4-5-2.5c-1.2-0.7-1.9-1.4-1.9-2.8c0,0,0-0.2,0.2-0.2c0-1.4,0.9-2.3,2.4-2.8c0.5-0.2,0.9-0.5,1.4-0.5h1.2
			c0.9,0,1.6,0.2,2.4,0.7c0.9,0.2,1.4,0.7,2.1,1.4c0.2,0.5,0.5,0.7,0.7,1.2l1.4-3.2c0-0.2-0.2-0.2-0.2-0.2c-0.2-0.2-0.5-0.2-0.7-0.5
			c-0.7-0.5-1.2-0.5-1.9-0.7c-0.7-0.2-1.2-0.2-1.9-0.5h-5c-0.7,0.2-1.2,0.2-1.9,0.5c-2.4,0.9-4,2.5-4.3,5.1v0.7
			c0,3.2,2.4,5.1,5.4,6.5c1.9,0.9,3.1,1.4,5,2.8c0.9,0.7,1.7,1.4,1.7,2.8C597.3,61.6,595.2,63.2,592.8,63.2z"/>
		<path class="st6" d="M387.4,64.8c-0.5-0.2-0.7-0.9-0.7-1.6c0-1.2,0.5-1.9,0.9-2.8c0.5-1.2,0.7-1.9,1.2-3h8.7
			c0.5,1.2,0.7,1.9,1.2,2.8c0.5,1.2,0.9,1.9,0.9,3c0,0.7-0.2,1.2-0.9,1.6h8.2c-1.2-0.9-1.6-1.6-2.3-2.8c-0.7-1.4-0.9-2.1-1.7-3.5
			c-0.7-1.6-1.4-2.8-1.9-4.2c-0.5-0.7-0.7-1.4-1.2-2.3c-1.2-2.1-1.7-3-2.6-5.1c-0.7-1.6-1.2-2.6-1.9-4.2c-0.5-0.7-0.7-1.2-0.9-2.1
			c-0.5-0.7-0.5-0.9-0.9-1.6c-0.2,0.9-0.7,1.6-1.2,2.6c-0.7,1.4-0.9,2.3-1.7,4c-1.2,2.6-1.9,4-2.8,6.5c-0.5,0.9-0.9,1.6-1.2,2.3
			c-0.5,1.2-1.2,2.3-1.7,3.7c-1.4,2.8-2.1,4.4-4,6.8L387.4,64.8L387.4,64.8z M390.2,54.3l2.8-6.8l3,6.8v0.2h-6.1L390.2,54.3z"/>
		<path class="st6" d="M448.4,63c0-1.6,0.7-2.3,1.2-3.7l0.9-2.5c0.2-0.5,0.2-0.7,0.4-1.2h10.5c0.2,0.5,0.2,0.7,0.5,1.2
			c0.5,0.9,0.7,1.4,0.9,2.3c0.7,1.4,1.2,2.1,1.2,3.5c0.2,0.2,0.2,0.2,0.2,0.4c0,0.9-0.2,1.2-0.7,1.9h9.3c-3-2.1-3.3-4.6-4.9-8.1
			c-0.4-0.9-0.7-1.6-1.2-2.3c-0.7-1.9-1.4-3.7-2.6-6c-1.9-4.2-2.8-6.7-4.6-10.9c-0.9-2.3-1.6-3.5-2.6-6c-2.6,6.7-4.2,10.2-6.7,16.9
			c-1.2,2.3-1.9,3.9-2.6,6c-0.5,0.7-0.7,1.4-0.9,2.3c-1.4,3.5-2.1,5.8-5.1,8.1h7.4C448.6,64.4,448.4,63.7,448.4,63z M456.1,43.1
			l3.9,9.5h-7.6L456.1,43.1z"/>
		<path class="st6" d="M359.9,58.4c0.7,1.6,1.2,2.3,2.6,3.4c1.2,0.9,1.6,1.6,3.3,2.3c1.4,0.5,2.1,0.7,3.5,1.2c0.9,0,1.4,0.2,2.1,0.2
			h3.3c0.5,0,0.9-0.2,1.6-0.2c0.7-0.2,1.4-0.2,2.3-0.5c0.2-0.2,0.2-0.2,0.9-0.5c0.2-0.2,0-0.5,0.2-0.9c0.2-0.7,0.2-1.2,0.7-2.1
			c-1.9,0.7-3,1.4-4.9,1.4h-2.1c-1.4,0-2.1-0.2-3.5-0.7c-3-1.2-4.6-3-5.3-6c-0.2-0.7-0.5-1.2-0.5-1.6v-2.7c0-1.2,0.2-1.8,0.5-2.7
			c1.4-3.7,4.2-6,8.1-6h1.6c2.1,0,3.5,0.7,5.1,1.8c0.5,0.5,0.5,0.9,0.9,1.4l1.4-4.1c-0.7-0.2-1.2-0.5-1.9-0.7
			c-1.2-0.5-1.9-0.7-3-0.9c-0.9,0-1.4-0.2-2.3-0.2h-3.3c-0.9,0-1.4,0.2-2.1,0.5c-1.2,0.2-1.9,0.2-3,0.7c-2.6,1.2-4.2,2.5-5.6,4.8
			c-0.7,1.2-0.9,1.8-1.4,3c-0.2,0.9-0.5,1.4-0.5,2.3v2.5c0,0.2,0,0.4,0,0.4c0.2,0.5,0.2,0.7,0.2,1.4
			C359.2,56.8,359.5,57.5,359.9,58.4z"/>
		<path class="st6" d="M321.2,63.1c-0.2,0.9-0.5,1.4-0.9,1.8h7.6c-0.7-0.5-0.9-0.9-1.2-1.6c-0.2-0.7-0.2-1.2-0.2-1.8V43.6
			c1.4,0,2.1-0.2,3.6,0c2.4,0,4.3,1.6,4.3,3.7v1.4c0,0.7-0.2,1.2-0.7,2.1c-0.5,0.9-0.9,1.2-1.9,1.8c-0.9,0.5-1.7,0.7-2.9,0.9
			c0.2,0.5,0.5,0.7,0.9,1.2c0.7,1.2,0.9,1.6,1.7,2.5c1.4,2.1,2.1,3.2,3.6,5.3c1.2,1.6,1.7,2.5,3.3,3.7c0.9,0.9,1.4,1.4,2.6,1.8
			c0.9,0.2,1.7,0.5,2.6,0.5h4c-0.5-0.5-0.9-0.5-1.4-0.9c-0.9-0.7-1.7-1.2-2.6-2.1c-1.4-1.4-2.1-2.3-3.3-3.9
			c-2.1-2.8-3.3-4.4-5.2-6.9c-0.2-0.2-0.5-0.4-0.7-0.9c0.9-0.5,1.4-0.5,2.4-1.2c0.7-0.5,1.2-0.9,1.7-1.8c0.5-1.2,0.7-1.8,0.7-3
			c0.2-0.5,0-0.7,0-1.4c0-3.2-3.3-5.3-6.9-5.3h-11.9c0.5,0.5,0.7,0.9,0.9,1.6c0.2,0.7,0.2,0.9,0.2,1.4V62
			C321.5,62.5,321.5,62.7,321.2,63.1z"/>
		<path class="st6" d="M409.3,63c-0.2,0.9-0.5,1.4-0.9,1.8h6.1c-0.5-0.5-0.7-0.9-1.1-1.6c0-0.7-0.2-0.9-0.2-1.4V47l5.9,7.5l8,10.3
			h3.7V44.3c0-1.4,0.5-2.3,1.4-3.2h-6.1c0.5,0.5,0.7,0.9,0.9,1.6c0.2,0.7,0.2,0.9,0.2,1.6v13.2l-2.3-3l-10.7-13.4h-5.7
			c0.9,0.9,1.1,1.8,1.1,3.4v17.3C409.5,62.3,409.5,62.5,409.3,63z"/>
		<path class="st6" d="M300,63.2c-0.2,0.7-0.5,1.1-1.2,1.6h7.6c-0.9-0.9-1.2-1.8-1.4-3.2v-7.7h6.9c1.2,0,2.1,0.2,2.8,0.7
			c0.2,0.2,0.5,0.5,0.7,0.7V50c-0.5,0.2-0.5,0.2-0.7,0.5c-1.2,0.7-1.7,0.7-2.8,0.7H305v-7.1h7.6c1.4,0,2.6,0.2,3.6,1.4l1.2-4.3
			h-18.5c0.7,0.7,0.9,1.1,1.2,2c0.2,0.4,0.2,0.7,0.2,1.1v17.3C300.2,62.3,300,62.5,300,63.2z"/>
		<path class="st6" d="M181.7,44.3v12.1c0,1.4,0,2.3,0.5,3.4c0.5,1.4,0.9,2.1,1.9,3.2c0.5,0.4,0.9,0.9,1.6,1.1
			c0.5,0.5,0.9,0.7,1.6,0.9c1.2,0.2,1.9,0.4,3.2,0.4h2.8c1.6,0,2.3-0.2,3.7-0.7c1.2-0.5,1.9-0.9,2.8-2.1c1.2-1.4,1.6-2.3,1.9-4.1
			c0.2-0.7,0.2-1.1,0.2-2.1v-2.1c0.2-3.6,0-6.2,0.2-10.3c0-1.4,0.2-2.3,1.2-3.2h-6.5c0.7,0.5,0.9,1.1,1.2,2.1c0,0.2,0.2,0.7,0.2,0.9
			v12.6c0,0.9-0.2,1.6-0.5,2.5c-0.2,0.9-0.5,1.4-1.2,2.3c-0.5,0.7-0.9,0.9-1.9,1.1c-0.7,0.2-0.9,0.4-1.6,0.4h-1.4
			c-0.7,0-1.2-0.2-1.9-0.4c-0.9-0.5-1.4-0.7-1.9-1.4c-0.7-0.7-0.9-1.4-1.2-2.3c-0.2-0.7-0.2-1.1-0.2-1.8V44.3c0-1.4,0.5-2.3,1.2-3.2
			h-7.4c0.5,0.5,0.7,0.9,0.9,1.6C181.5,43.4,181.7,43.6,181.7,44.3z"/>
	</g>
</g>
</svg>
