<?xml version="1.0" encoding="utf-8"?>
<!-- Generator: Adobe Illustrator 25.4.1, SVG Export Plug-In . SVG Version: 6.00 Build 0)  -->
<svg version="1.1" id="Layer_2_00000159471598350358213750000014612203606435250611_"
	 xmlns="http://www.w3.org/2000/svg" xmlns:xlink="http://www.w3.org/1999/xlink" x="0px" y="0px" viewBox="0 0 81.3 80"
	 style="enable-background:new 0 0 81.3 80;" xml:space="preserve">
<style type="text/css">
	.st0{fill:none;}
	.st1{fill:#F04923;}
	.st2{fill:#FDB913;}
</style>
<path class="st0" d="M0,0"/>
<path class="st1" d="M27.6,42.5c0,0-4.3-18,5.5-20.8c9.8-2.9,11.3,1.5,11.3,1.5l0.3,2.4l2.6-1.2L48,28c0,0,7.5-1.3,6.6,2
	c-0.9,3.3-13.8,6.4-15.6,13.9c0,0,19.5-13.1,28.5-10.4c9.1,2.7,5.4,6.6,5.4,6.6l2,1.6l-2.4,2.2l4.1,7.3c0,0-0.1,7.4-11.2,11.2
	l-14.9-7.5c0,0,14,10.8,9.7,18.8c-4.4,8-9.2,4.6-9.2,4.6l-2.4-4l-1.9,3.3L45,76.4c0,0-12.1,3.8-13.3,3.2c-1.2-0.6-2.6-11.3,1.3-16.8
	c3.9-5.4-0.3,0.7-0.3,0.7s-9.6,5.1-13.5,13.2c-3.9,8.1-11-1.4-11-1.4l0.6-3l-1.9,0l-5.4-1.9c0,0-4.8-13.7,1.9-20.4
	c6.7-6.7,5.1-3.7,5.1-3.7l-1.6-3.5l3.2,0.5c0,0,3.3-9.8,5.5-10.1C18,33,25.4,49.8,31.6,51.1C37.9,52.3,28.3,46.3,27.6,42.5"/>
<path class="st2" d="M68.1,19.9c-0.6-1-2.4-0.6-4,0.9c-0.4,0.3-0.7,0.7-0.9,1.1c0.1-0.5,0.1-0.9-0.1-1.2c-0.5-0.8-1.9-0.5-3.2,0.7
	c-1.3,1.2-2,2.9-1.5,3.7c0.5,0.8,1.9,0.5,3.2-0.7c0.2-0.2,0.4-0.5,0.6-0.7c-0.1,0.4-0.2,0.7-0.2,1c-9.9,14.7-18.5,22.7-22.2,25.8
	c-0.9-1.7-3.7-6.9-5.2-10c1,4.5,1.2,13.7,1.2,13.7L30,53.6c0,0,0.6,2.8-1,2.1c-1.6-0.6-6.3-4.1-7-3c-0.7,1.1,5.6,3.5,2.2,3.1
	c-3.5-0.4-9.8,3.4-9.8,3.4c10.3-1.6,12.4-1.6,12.4-1.6l6-0.1c0.2,2.1,3.5,2.6,4.7,2.8c1.3,0.2,0.8-3.8,2.4-2.2
	c1.6,1.6,3.9,8.5,3.9,8.5c0.3-1.8-1.1-9.9-1.1-9.9s1.4,2.1,2.4,3.1c0.9,1,2.7,0.1,2.8-2.6c0.1-2.7-5.5-3.1-2.9-5.4
	c2.6-2.3,8.8,2.1,9.7,0.9c0.9-1.2-1.9-4.6-1.9-4.6c0.9-0.4,11.3-4.3,11.3-4.3c-4.8-0.1-14.8,3.5-20.2,5.7c3.7-6,12-15.3,17.8-21.5
	c-0.1,0.4,0,0.7,0.1,1c0.5,0.8,1.9,0.5,3.2-0.7c1.3-1.2,2-2.9,1.5-3.7c0-0.1-0.1-0.1-0.2-0.2C67.9,22.8,68.7,20.9,68.1,19.9
	 M73.8,5.7c1.3-1.2,2-2.9,1.5-3.7c-0.5-0.8-1.9-0.5-3.2,0.8c-1.3,1.2-2,2.9-1.5,3.7C71.1,7.2,72.5,6.9,73.8,5.7 M64.9,14.2
	c1-1,1.6-2.3,1.2-2.9c-0.4-0.6-1.5-0.4-2.5,0.6s-1.6,2.3-1.2,2.9C62.7,15.4,63.9,15.1,64.9,14.2 M81.2,0.3c-0.4-0.6-1.5-0.4-2.5,0.6
	c-1,1-1.6,2.3-1.2,2.9c0.4,0.6,1.5,0.4,2.5-0.6C81,2.3,81.5,1,81.2,0.3 M72.8,18.4c-1.3,1.2-2,2.9-1.5,3.7c0.5,0.8,1.9,0.5,3.2-0.7
	c1.3-1.2,2-2.9,1.5-3.7C75.5,16.8,74.1,17.2,72.8,18.4 M74.2,9.8c-0.6-1-2.4-0.6-4,0.9c-1.6,1.5-2.5,3.6-1.9,4.6
	c0.6,1,2.4,0.6,4-0.9C74,12.8,74.8,10.8,74.2,9.8 M34.7,40.4c-0.2-1-0.5-1.8-0.8-2.2C33.4,37.5,33.8,38.6,34.7,40.4"/>
</svg>
