<?xml version="1.0" encoding="utf-8"?>
<!-- Generator: Adobe Illustrator 25.4.1, SVG Export Plug-In . SVG Version: 6.00 Build 0)  -->
<svg version="1.1" id="Layer_2_00000159471598350358213750000014612203606435250611_"
	 xmlns="http://www.w3.org/2000/svg" xmlns:xlink="http://www.w3.org/1999/xlink" x="0px" y="0px" viewBox="0 0 379.8 80"
	 style="enable-background:new 0 0 379.8 80;" xml:space="preserve">
<style type="text/css">
	.st0{fill:none;}
	.st1{fill:#00B1EB;}
	.st2{fill:#F04923;}
	.st3{fill:#FDB913;}
	.st4{fill-rule:evenodd;clip-rule:evenodd;fill:#2D5FA9;}
</style>
<g>
	<path class="st0" d="M0,0"/>
	<path class="st1" d="M75.1,66.2c0,0,153.4-2.3,304.6-0.3C379.7,65.9,222.4,68.9,75.1,66.2"/>
	<path class="st2" d="M24.6,37.9c0,0-3.9-16,4.9-18.6c8.8-2.6,10.1,1.4,10.1,1.4l0.3,2.1l2.3-1.1l0.5,3.2c0,0,6.7-1.2,5.9,1.8
		c-0.8,2.9-12.3,5.8-13.9,12.4c0,0,17.4-11.7,25.4-9.3c8.1,2.4,4.8,5.9,4.8,5.9l1.8,1.4l-2.1,2l3.7,6.5c0,0-0.1,6.6-10,10l-13.3-6.7
		c0,0,12.5,9.6,8.6,16.8c-3.9,7.1-8.3,4.1-8.3,4.1l-2.1-3.6l-1.7,3l-1.5-0.9c0,0-10.8,3.4-11.8,2.9c-1-0.5-2.3-10.1,1.2-15
		c3.5-4.8-0.2,0.6-0.2,0.6s-8.5,4.5-12,11.7c-3.5,7.2-9.8-1.2-9.8-1.2l0.5-2.7l-1.7,0l-4.8-1.7c0,0-4.3-12.3,1.7-18.2
		c6-6,4.6-3.3,4.6-3.3l-1.5-3.2l2.9,0.4c0,0,3-8.8,4.9-9c2-0.3,8.5,14.8,14.1,15.9C33.8,46.7,25.2,41.3,24.6,37.9"/>
	<path class="st3" d="M60.8,17.8c-0.5-0.9-2.1-0.5-3.5,0.8c-0.3,0.3-0.6,0.6-0.8,0.9c0.1-0.4,0.1-0.8-0.1-1.1
		c-0.4-0.7-1.7-0.4-2.8,0.7c-1.2,1.1-1.7,2.6-1.3,3.3c0.4,0.7,1.7,0.4,2.8-0.7c0.2-0.2,0.4-0.4,0.6-0.6c-0.1,0.3-0.2,0.6-0.2,0.9
		c-8.9,13.1-16.5,20.2-19.8,23c-0.8-1.5-3.3-6.2-4.7-8.9c0.9,4,1.1,12.3,1.1,12.3l-5.3-0.5c0,0,0.6,2.5-0.8,1.9
		c-1.4-0.5-5.6-3.7-6.2-2.7c-0.6,1,5,3.2,1.9,2.8c-3.1-0.4-8.8,3.1-8.8,3.1c9.1-1.4,11.1-1.5,11.1-1.5l5.4-0.1
		c0.2,1.9,3.1,2.3,4.2,2.5c1.1,0.2,0.7-3.4,2.1-2c1.4,1.4,3.5,7.6,3.5,7.6c0.3-1.6-0.9-8.8-0.9-8.8s1.3,1.9,2.1,2.7
		c0.8,0.9,2.4,0.1,2.5-2.3c0.1-2.4-4.9-2.7-2.6-4.8c2.3-2,7.9,1.8,8.7,0.8c0.8-1.1-1.7-4.1-1.7-4.1c0.8-0.4,10.1-3.8,10.1-3.8
		c-4.3-0.1-13.2,3.1-18,5c3.3-5.3,10.7-13.6,15.9-19.2c-0.1,0.3,0,0.6,0.1,0.9c0.4,0.7,1.7,0.4,2.8-0.7c1.2-1.1,1.8-2.6,1.3-3.3
		c0-0.1-0.1-0.1-0.1-0.2C60.6,20.3,61.3,18.6,60.8,17.8 M65.9,5C67,4,67.6,2.5,67.2,1.8c-0.4-0.7-1.7-0.4-2.8,0.7
		C63.2,3.5,62.6,5,63,5.7C63.4,6.4,64.7,6.1,65.9,5 M57.9,12.6c0.9-0.9,1.4-2,1.1-2.6c-0.3-0.6-1.3-0.3-2.3,0.5
		c-0.9,0.9-1.4,2-1.1,2.6C56,13.8,57,13.5,57.9,12.6 M72.4,0.3c-0.3-0.6-1.3-0.3-2.3,0.5c-0.9,0.9-1.4,2-1.1,2.6
		c0.3,0.6,1.3,0.3,2.3-0.5C72.3,2.1,72.7,0.9,72.4,0.3 M65,16.4c-1.2,1.1-1.7,2.6-1.3,3.3c0.4,0.7,1.7,0.4,2.8-0.7
		c1.2-1.1,1.7-2.6,1.3-3.3C67.4,15,66.1,15.3,65,16.4 M66.2,8.7c-0.5-0.9-2.1-0.5-3.5,0.8c-1.4,1.4-2.2,3.2-1.7,4.1
		c0.5,0.9,2.1,0.5,3.5-0.8C66,11.5,66.7,9.6,66.2,8.7 M31,36.1c-0.2-0.9-0.4-1.6-0.7-2C29.8,33.5,30.2,34.5,31,36.1"/>
	<path class="st4" d="M100.1,69.8H99l-4,9.8h1.1l1.1-3.3h4.4l1.1,3.3h1.1L100.1,69.8z M97.5,75.6l1.8-5.1l1.8,5.1H97.5z"/>
	<rect x="109.2" y="72.7" class="st4" width="0.7" height="6.9"/>
	<rect x="108.8" y="69.8" class="st4" width="1.1" height="1.1"/>
	<path class="st4" d="M116.8,79.6h-0.7v-6.9h0.7v1.1c0.4-1.1,1.1-1.5,2.2-1.5v1.1c-1.8-0.4-2.2,1.1-2.2,2.5V79.6L116.8,79.6z"/>
	<path class="st4" d="M139.3,72.7c-0.4-1.8-1.5-2.2-3.3-2.2c-2.2,0-3.3,1.8-3.3,4c0,2.2,0.7,4.4,3.6,4.4c1.5,0,2.5-1.1,2.9-2.5h1.1
		c-0.7,1.8-1.8,3.6-4.4,3.6c-2.9,0-4-2.5-4-5.1c0-4,1.8-5.4,4.4-5.4c1.8,0,3.3,1.1,3.6,3.3L139.3,72.7L139.3,72.7z"/>
	<path class="st4" d="M151.3,78.5v-4c0-1.5-1.1-2.2-2.5-2.2c-1.5,0-2.5,0.7-2.9,2.2h0.7c0.4-1.1,1.1-1.5,2.2-1.5
		c1.5,0,1.8,0.7,1.8,1.5c0,0.4,0,0.7-0.4,0.7c-0.4,0-0.7,0.4-1.1,0.4v0H148c-1.5,0.4-2.5,1.1-2.5,2.2c0,1.5,1.1,1.8,2.5,1.8
		c1.1,0,1.8-0.4,2.5-1.1c0,0.7,0,1.1,0.7,1.1h0.7v-0.7C151.7,79.3,151.3,78.9,151.3,78.5z M150.6,77.1c0,1.5-1.5,1.8-2.5,1.8
		c-0.7,0-1.5-0.4-1.5-1.1c0-1.1,0.7-1.5,1.8-1.5c0.7,0,1.5,0,2.2-0.4V77.1z"/>
	<rect x="157.5" y="69.8" class="st4" width="1.1" height="9.8"/>
	<polygon class="st4" points="166.5,72 168,69.8 169.1,69.8 167.3,72 	"/>
	<path class="st4" d="M167.3,78.9c-1.5,0-2.2-1.1-2.2-2.5h5.4c0-2.5-1.5-4-3.3-4c-1.8,0-3.3,1.8-3.3,3.6c0,2.2,1.1,3.6,3.3,3.6
		c1.8,0,2.5-0.7,2.9-2.2h-0.7C169.1,78.5,168.4,78.9,167.3,78.9z M167.3,73.1c1.5,0,2.2,1.1,2.2,2.5h-4.4
		C165.1,74.2,165.8,73.1,167.3,73.1z"/>
	<path class="st4" d="M181.4,69.8v4c-0.4-1.1-1.5-1.5-2.5-1.5c-2.2,0-2.9,1.8-2.9,3.6c0,2.2,0.7,3.6,2.9,3.6c1.1,0,2.2-0.4,2.5-1.5
		v1.5h0.7v-9.8H181.4z M178.9,78.9c-1.1,0-2.2-0.7-2.2-2.5c0-1.8,0.7-3.3,2.2-3.3c1.5,0,2.5,1.5,2.5,2.9
		C181.4,77.8,180.7,78.9,178.9,78.9z"/>
	<path class="st4" d="M190.9,72.4c-1.8,0-2.9,1.8-2.9,3.6c0,2.5,1.5,3.6,2.9,3.6c2.2,0,3.3-1.5,3.3-3.6
		C194.1,74.2,193.1,72.4,190.9,72.4z M190.9,78.9c-1.5,0-2.2-1.1-2.2-2.9c0-1.5,0.7-2.9,2.2-2.9c1.8,0,2.5,1.5,2.5,2.9
		C193.4,77.5,192.7,78.9,190.9,78.9z"/>
	<path class="st4" d="M200.7,79.6h-0.7v-6.9h0.7v0.7c0.7-0.7,1.1-1.1,2.2-1.1c0.7,0,1.5,0.4,2.2,1.1c0.4,0.4,0.4,1.1,0.4,1.5v4.7
		h-0.7v-4.7c0-1.1-0.7-1.8-1.8-1.8c-1.1,0-1.8,0.7-2.2,1.5V79.6z"/>
	<rect x="211.6" y="72.7" class="st4" width="0.7" height="6.9"/>
	<rect x="211.6" y="69.8" class="st4" width="0.7" height="1.1"/>
	<path class="st4" d="M221,78.9c-1.5,0-2.2-1.1-2.2-2.5h0h5.4c0-2.5-1.1-4-3.3-4c-1.8,0-2.9,1.8-2.9,3.6c0,2.2,0.7,3.6,2.9,3.6
		c1.8,0,2.9-0.7,3.3-2.2h-1.1C223.2,78.5,222.1,78.9,221,78.9z M221,73.1c1.5,0,2.5,1.1,2.5,2.5h-4.7
		C218.8,74.2,219.9,73.1,221,73.1z"/>
	<rect x="238.1" y="69.8" class="st4" width="1.1" height="9.8"/>
	<path class="st4" d="M246.1,79.6h-0.7v-6.9h0.7v0.7c0.7-0.7,1.5-1.1,2.5-1.1c0.7,0,1.5,0.4,1.8,1.1c0.4,0.4,0.4,1.1,0.4,1.5v4.7
		h-0.7v-4.7c0-1.1-0.4-1.8-1.8-1.8c-0.7,0-1.5,0.7-1.8,1.5c-0.4,0.4-0.4,0.7-0.4,1.5V79.6L246.1,79.6z"/>
	<path class="st4" d="M259.5,79.6h-1.1c-0.7,0-1.1-0.4-1.1-1.1v-5.1h-1.1v-0.7h1.1v-2.2h0.7v2.2h1.5v0.7h-1.5v4.7
		c0,0.7,0,0.7,0.7,0.7h0.7V79.6z"/>
	<path class="st4" d="M267.5,78.9c-1.5,0-2.2-1.1-2.2-2.5h5.4c0-2.5-1.5-4-3.3-4c-1.8,0-3.3,1.8-3.3,3.6c0,2.2,1.1,3.6,3.3,3.6
		c1.8,0,2.5-0.7,2.9-2.2h-0.7C269.3,78.5,268.6,78.9,267.5,78.9z M267.5,73.1c1.5,0,2.2,1.1,2.2,2.5h-4.4
		C265.3,74.2,266,73.1,267.5,73.1z"/>
	<path class="st4" d="M276.9,79.6h-0.7v-6.9h0.7v1.1c0.7-1.1,1.5-1.5,2.5-1.5v1.1c-1.8-0.4-2.5,1.1-2.5,2.5V79.6L276.9,79.6z"/>
	<path class="st4" d="M285.6,79.6h-0.7v-6.9h0.7v0.7c0.7-0.7,1.1-1.1,2.2-1.1c0.7,0,1.5,0.4,2.2,1.1c0.4,0.4,0.4,1.1,0.4,1.5v4.7
		h-0.7v-4.7c0-1.1-0.7-1.8-1.8-1.8s-1.8,0.7-2.2,1.5V79.6z"/>
	<path class="st4" d="M301.6,78.5v-4c0-1.5-1.1-2.2-2.5-2.2c-1.5,0-2.5,0.7-2.9,2.2h0.7c0.4-1.1,1.1-1.5,2.2-1.5s1.8,0.7,1.8,1.5
		c0,0.4,0,0.7-0.4,0.7c-0.4,0-0.7,0.4-1.1,0.4v0h-1.1c-1.5,0.4-2.5,1.1-2.5,2.2c0,1.5,1.1,1.8,2.5,1.8c0.7,0,1.8-0.4,2.5-1.1
		c0,0.7,0,1.1,0.7,1.1h0.7v-0.7C301.6,79.3,301.6,78.9,301.6,78.5z M300.9,77.1c0,1.5-1.5,1.8-2.5,1.8c-0.7,0-1.5-0.4-1.5-1.1
		c0-1.1,0.7-1.5,1.8-1.5c0.7,0,1.5,0,2.2-0.4V77.1z"/>
	<path class="st4" d="M310.3,79.6h-1.1c-0.7,0-1.1-0.4-1.1-1.1v-5.1h-1.1v-0.7h1.1v-2.2h0.7v2.2h1.5v0.7h-1.5v4.7
		c0,0.7,0,0.7,0.7,0.7h0.7V79.6z"/>
	<rect x="315.8" y="72.7" class="st4" width="0.7" height="6.9"/>
	<rect x="315.8" y="69.8" class="st4" width="0.7" height="1.1"/>
	<path class="st4" d="M325.2,72.4c-2.2,0-3.3,1.8-3.3,3.6c0,2.5,1.5,3.6,3.3,3.6c2.2,0,3.3-1.5,3.3-3.6
		C328.5,74.2,327.4,72.4,325.2,72.4z M325.2,78.9c-1.5,0-2.2-1.1-2.2-2.9c0-1.5,0.7-2.9,2.2-2.9c1.8,0,2.5,1.5,2.5,2.9
		C327.8,77.5,327,78.9,325.2,78.9z"/>
	<path class="st4" d="M335,79.6h-1.1v-6.9h1.1v0.7c0.4-0.7,1.1-1.1,2.2-1.1c0.7,0,1.5,0.4,2.2,1.1c0.4,0.4,0.4,1.1,0.4,1.5v4.7h-1.1
		v-4.7c0-1.1-0.4-1.8-1.5-1.8s-1.8,0.7-2.2,1.5V79.6z"/>
	<path class="st4" d="M351,78.5v-4c0-1.5-1.1-2.2-2.5-2.2s-2.9,0.7-2.9,2.2h0.7c0.4-1.1,1.1-1.5,2.2-1.5s1.8,0.7,1.8,1.5
		c0,0.4,0,0.7-0.4,0.7s-0.7,0.4-1.1,0.4v0h-1.1c-1.8,0.4-2.5,1.1-2.5,2.2c0,1.5,1.1,1.8,2.5,1.8c0.7,0,1.8-0.4,2.5-1.1
		c0,0.7,0,1.1,0.7,1.1h0.7v-0.7C351,79.3,351,78.9,351,78.5z M350.3,77.1c0,1.5-1.5,1.8-2.5,1.8c-0.7,0-1.5-0.4-1.5-1.1
		c0-1.1,0.7-1.5,1.8-1.5c0.7,0,1.5,0,2.2-0.4V77.1z"/>
	<rect x="357.2" y="69.8" class="st4" width="0.7" height="9.8"/>
	<path class="st4" d="M111.7,26.6L80.5,61.1h13.4l6.2-6.9h20.3l2.5,6.5h15.3c0,0-9.4-33.8-9.4-34.1H111.7L111.7,26.6z M106.3,47.7
		l11.3-14.5l2.5,14.5H106.3L106.3,47.7z M156.4,25.9l-2.2,6.5h12.7l2.2-6.5H156.4z M289.3,60.4l13.4,0.4l10.9-34.9h-12.7L289.3,60.4
		z M279.1,37.1c-9.4-1.8-23.6-2.9-29.1,6.5h12.3c0.4-1.1,1.8-2.9,3.3-3.3c1.5-0.4,5.1-1.1,6.5,0.7c1.1,1.5-1.1,4.7-1.1,4.7
		c-9.4-0.4-19.6-0.7-25.8,6.2c-1.1,1.5-2.2,3.3-0.7,5.8c1.8,4,6.5,3.6,10.5,3.6c4.7,0.4,9.1-1.8,12.3-3.6c0,0-0.4,2.2-0.4,2.9h12.3
		c2.2-8.7,5.4-19.2,5.4-19.2C283.8,37.5,280.2,37.5,279.1,37.1L279.1,37.1z M265.7,55.3c-1.8,0.7-4.7,1.8-6.9,0.7
		c-1.1-1.1-1.8-2.9-0.4-4c3.3-2.2,6.9-2.9,11.3-2.5C269.7,52,267.5,54.2,265.7,55.3z M378.3,39c-4.7-5.1-14.9-2.5-21.8,0.4l0.7-2.9
		h-12.7l-7.3,24h12.7c0,0,2.5-16,9.4-18.9c2.5-0.7,6.5-0.7,6.9,2.2c0.4,0-4,16.7-4,16.7h13.1c0,0,3.3-11.6,3.6-12
		C380.1,44.8,380.4,42.6,378.3,39L378.3,39z M187.6,41.9l1.5-5.1H176l-7.3,24h13.1l4.4-12c2.5-4,8-5.4,13.1-5.1
		c1.5-2.5,1.8-5.1,2.5-7.6C196.7,36.1,190.5,37.9,187.6,41.9L187.6,41.9z M241.7,44.8c-0.4-4.7-5.8-7.3-5.8-7.3
		c-10.9-4-22.5-1.8-30.5,6.2c-2.5,2.5-4.4,6.9-3.3,11.3c0.7,4,5.4,5.8,8.4,6.2c10.9,0.7,24,0.7,29.4-9.4h-13.4
		c-0.7,1.8-2.2,3.6-3.6,4.4c-2.2,0.4-5.4,1.1-6.9-1.1c-0.7-4.7,1.1-9.4,4-12.7c2.5-1.5,5.8-1.8,8.3,0c1.1,1.5,0.4,2.5,0.4,2.5H241.7
		L241.7,44.8z M145.5,60.8h12.7l7.6-24h-13.4L145.5,60.8L145.5,60.8z M324.9,25.2l-2.2,6.9h12.7l1.8-6.9H324.9z M314,60.4h12.7
		l7.6-24h-13.4L314,60.4z"/>
</g>
</svg>
