<?xml version="1.0" encoding="utf-8"?>
<!-- Generator: Adobe Illustrator 25.4.1, SVG Export Plug-In . SVG Version: 6.00 Build 0)  -->
<svg version="1.1" id="Layer_1" xmlns="http://www.w3.org/2000/svg" xmlns:xlink="http://www.w3.org/1999/xlink" x="0px" y="0px"
	 viewBox="0 0 80 80" style="enable-background:new 0 0 80 80;" xml:space="preserve">
<style type="text/css">
	.st0{fill:#3E4095;}
</style>
<path id="path11" class="st0" d="M40,0.07c2.45,0,4.83,0.2,7.21,0.6C36.96,9.45,29.22,14.68,34.12,35.44
	c5.29,22.81-6.74,24.73-16.73,34.25h40.93c6.94-5.55,15.54-13.16,13.49-24.99c-1.59-9.26,2.58-13.75,6.21-17.12
	C79.34,31.47,80,35.64,80,40c0,22.02-17.98,40-40,40C17.98,79.93,0,61.95,0,40S17.98,0,40,0V0.07L40,0.07L40,0.07L40,0.07z
	 M59.77,5.36c1.12,0.6,2.12,1.32,3.11,1.98c-3.83,2.91-7.93,6.02-10.98,9.59c-12.83,14.81,4.89,31.21-9.59,45.49
	c4.17-9.39,3.83-17.39,1.72-30.74C42.58,22.74,50.25,12.5,59.9,5.36L59.77,5.36L59.77,5.36z M70.94,14.74
	c0.66,0.86,1.39,1.79,2.05,2.64c-5.49,3.83-13.02,7.54-12.23,18.12c0.93,12.63-0.53,22.15-6.48,27.31
	c4.3-8.66,4.89-19.31,3.37-29.75C56.26,24.07,63.01,20.17,70.94,14.74L70.94,14.74L70.94,14.74L70.94,14.74L70.94,14.74z"/>
</svg>
