<?xml version="1.0" encoding="utf-8"?>
<!-- Generator: Adobe Illustrator 25.4.1, SVG Export Plug-In . SVG Version: 6.00 Build 0)  -->
<svg version="1.1" id="Layer_1" xmlns="http://www.w3.org/2000/svg" xmlns:xlink="http://www.w3.org/1999/xlink" x="0px" y="0px"
	 viewBox="0 0 296.97 80" style="enable-background:new 0 0 296.97 80;" xml:space="preserve">
<style type="text/css">
	.st0{fill:#3E4095;}
	.st1{fill:#F58634;}
</style>
<g>
	<path id="path11" class="st0" d="M40,0.07c2.45,0,4.83,0.2,7.21,0.6C36.96,9.45,29.22,14.68,34.12,35.44
		c5.29,22.81-6.74,24.73-16.73,34.25h40.93c6.94-5.55,15.54-13.16,13.49-24.99c-1.59-9.26,2.58-13.75,6.21-17.12
		C79.34,31.47,80,35.64,80,40c0,22.02-17.98,40-40,40C17.98,79.93,0,61.95,0,40S17.98,0,40,0V0.07L40,0.07L40,0.07L40,0.07z
		 M59.77,5.36c1.12,0.6,2.12,1.32,3.11,1.98c-3.83,2.91-7.93,6.02-10.98,9.59c-12.83,14.81,4.89,31.21-9.59,45.49
		c4.17-9.39,3.83-17.39,1.72-30.74C42.58,22.74,50.25,12.5,59.9,5.36L59.77,5.36L59.77,5.36z M70.94,14.74
		c0.66,0.86,1.39,1.79,2.05,2.64c-5.49,3.83-13.02,7.54-12.23,18.12c0.93,12.63-0.53,22.15-6.48,27.31
		c4.3-8.66,4.89-19.31,3.37-29.75C56.26,24.07,63.01,20.17,70.94,14.74L70.94,14.74L70.94,14.74L70.94,14.74L70.94,14.74z"/>
	<path id="path13" class="st1" d="M114.98,2.05h4.76l-8.66,24.13h6.02c0.4,0.13,0.73-0.07,1.06-0.73l7.67-21.16h4.63l-7.93,22.02
		c-0.86,2.71-2.58,3.97-5.02,3.83h-24.4l9.32-25.85h4.89l-7.93,21.95h6.88l8.66-24.13L114.98,2.05L114.98,2.05L114.98,2.05
		L114.98,2.05L114.98,2.05L114.98,2.05z M141.88,2.78l0.93-0.86h5.22l-0.66,0.86h17.52l-1.59,4.3H144l-4.76,5.42h6.55l1.39-3.83
		h4.63l-1.39,3.83h10.71l-1.59,4.3h-10.78l-3.77,10.45c-0.53,2.05-1.72,2.98-3.37,2.78h-5.55l1.26-3.37h2.71
		c0.2,0.07,0.4-0.07,0.46-0.33l3.5-9.59h-12.1l1.39-3.83l5.36-5.88h-3.24l1.59-4.3h4.89V2.78L141.88,2.78L141.88,2.78L141.88,2.78z
		 M131.24,26.31l5.82-7.67h4.63l-7.6,9.85c-0.66,1.12-1.65,1.59-2.71,1.52h-4.3l1.26-3.37h2.12c0.4,0.07,0.66-0.07,0.86-0.33H131.24
		L131.24,26.31L131.24,26.31L131.24,26.31z M149.42,28.5l0.4-9.98h4.43l-0.13,7.54c0,0.46,0.2,0.66,0.6,0.6h1.52l-1.26,3.37h-3.97
		c-1.39,0.07-1.92-0.4-1.72-1.52H149.42L149.42,28.5L149.42,28.5z M170.45,3.31h2.91l0.79-1.26h3.83l-0.66,1.26h6.02l-8.53,23.8
		h0.46c0.46,0.07,0.79-0.13,1.06-0.73l6.55-18.12h11.7l-6.61,18.45c-0.13,0.33,0,0.46,0.4,0.46h0.33l-1.26,3.37h-1.59
		c-2.12,0-2.78-0.93-1.98-2.91l5.69-15.8h-4.17l-5.62,15.54c-0.73,2.05-2.12,3.11-4.03,3.11h-2.12l0.93-2.71
		c-0.79,1.92-2.25,2.78-4.3,2.71h-3.64l1.26-3.37h2.45c0.66,0.07,1.26-0.26,1.52-1.12l2.58-7.21h-6.15l-3.17,8.6
		c-0.73,1.92-1.92,2.84-3.57,2.91h-1.98l1.26-3.44h0.46c0.33,0,0.6-0.26,0.73-0.73l2.64-7.4h-0.86l1.32-3.57h0.93l4.3-11.97
		L170.45,3.31L170.45,3.31L170.45,3.31L170.45,3.31L170.45,3.31L170.45,3.31z M184.2,3.31h4.17l0.4-1.12h4.03l-0.4,1.12h5.22
		l-1.32,3.57h-13.42L184.2,3.31z M172.76,6.81l-2.98,8.26h5.88l2.98-8.26C178.64,6.81,172.76,6.81,172.76,6.81z M172.03,11.44
		l1.19-3.24h3.11l-0.53,1.52c-0.2,0.66-0.13,0.93,0.26,0.86h0.33l-1.19,3.24h-1.72c-1.65,0.07-2.18-0.66-1.52-2.31L172.03,11.44
		L172.03,11.44L172.03,11.44z M167.6,23.34l1.26-3.37h3.11l-0.6,1.72c-0.26,0.46-0.2,0.73,0.2,0.73h0.33l-1.19,3.24h-1.59
		C167.47,25.79,166.94,24.99,167.6,23.34L167.6,23.34z M214.41,2.58l0.4-1.26h5.02l-0.33,1.26h11.57l-2.78,5.69h-4.17l0.79-2.31
		h-18.84l-0.86,2.45h-4.56l2.12-5.82h11.7L214.41,2.58L214.41,2.58z M207.54,9.79l1.39-2.31h4.76l-2.71,4.76
		c-1.06,1.92-2.71,2.71-5.22,2.45h-7.4l1.39-3.83h5.82C206.35,10.91,207.01,10.58,207.54,9.79L207.54,9.79L207.54,9.79L207.54,9.79
		L207.54,9.79z M215.87,12.23l0.73-4.76h4.56v2.45c-0.07,0.86,0.4,1.32,1.52,1.26h5.02l-1.26,3.44h-8c-2.12,0.13-2.98-0.6-2.58-2.31
		l0,0C215.87,12.23,215.87,12.23,215.87,12.23z M208.33,19.31h-11.31l1.32-3.57h27.31l-1.32,3.57h-11.37l-2.58,7.14h11.7l-1.26,3.44
		h-28.17l1.26-3.44h11.83L208.33,19.31L208.33,19.31z M238.41,6.68l1.59-4.3h17.19c0.4,0,0.73,0.33,1.06,0.93l1.39,4.43
		c0.33,1.12,0.86,1.59,1.59,1.52h0.86l-1.59,4.3h-3.24c-1.32,0.07-2.12-0.53-2.45-1.98l-1.39-4.03c-0.2-0.53-0.53-0.86-1.06-0.86
		L238.41,6.68L238.41,6.68L238.41,6.68L238.41,6.68z M232.53,12.69h1.39c0.6,0.13,1.32-0.26,2.18-1.26l2.98-3.24h5.69l-6.02,6.74
		c-1.45,1.39-2.98,2.12-4.76,2.12h-2.91l1.59-4.43L232.53,12.69L232.53,12.69L232.53,12.69z M232,24.79l13.16-13.69h5.82
		l-12.89,13.69h10.71l-1.59,4.3H227.9l1.59-4.3h2.58H232L232,24.79z M250.18,27.64l-2.91-9.39h5.69l2.25,6.74
		c0,0.26,0.2,0.33,0.6,0.33h0.46l-1.39,3.7h-2.45c-1.26-0.07-1.98-0.53-2.31-1.52L250.18,27.64L250.18,27.64z M291.64,5.82h-22.88
		l1.39-3.83h27.57l-8.53,23.67c-0.79,2.91-2.45,4.3-4.89,4.03h-2.91l1.32-3.57h1.12c0.4,0.07,0.66-0.13,0.86-0.73l6.88-19.57H291.64
		L291.64,5.82L291.64,5.82L291.64,5.82L291.64,5.82L291.64,5.82z M266.84,11.83l1.39-3.7h20.76l-1.32,3.7h-20.76H266.84
		L266.84,11.83z M280.99,17.65h-11.37l-2.58,7.27h10.58c0.46,0.07,0.79-0.13,1.06-0.73L280.99,17.65L280.99,17.65L280.99,17.65
		L280.99,17.65L280.99,17.65L280.99,17.65z M278.81,28.43h-17.85l5.36-14.74h20.56l-4.36,12.1c-0.6,1.92-1.85,2.78-3.7,2.71
		L278.81,28.43L278.81,28.43L278.81,28.43z"/>
	<path id="path15" class="st0" d="M108.03,45.42c1.06-3.31-0.4-4.96-4.3-4.96c-1.59,0-2.84,0.33-3.97,1.06
		c-1.52,0.86-2.58,2.12-3.24,3.77c-0.66,1.92,0,3.17,1.98,3.77l2.98,0.66c1.32,0.26,2.05,0.6,2.38,1.06
		c0.33,0.4,0.33,1.06,0.07,1.79c-0.66,1.72-2.38,2.58-5.16,2.64c-2.78-0.07-3.77-1.32-2.98-3.7h-2.05c-0.66,1.79-0.6,3.11,0.26,3.97
		c0.6,0.86,1.98,1.39,4.23,1.39c1.72,0,3.37-0.33,4.76-1.06c1.45-0.73,2.38-1.92,2.91-3.5c0.79-2.25,0.13-3.7-1.98-4.3l-4.1-1.06
		c-1.19-0.2-1.59-0.79-1.19-1.98c0.6-1.79,2.12-2.64,4.5-2.71c2.45,0.13,3.44,1.19,2.78,3.17h1.98L108.03,45.42L108.03,45.42
		L108.03,45.42L108.03,45.42L108.03,45.42z M122.05,47.34h-8.2l2.25-6.41h-2.12l-5.55,15.74h2.12l2.58-7.34h8.2l-2.58,7.34h2.12
		l5.55-15.74h-2.12L122.05,47.34L122.05,47.34L122.05,47.34z M135.87,52.1l-0.07,4.5h2.31l-0.13-15.74h-2.38L124.17,56.6h2.12
		l3.24-4.5H135.87L135.87,52.1z M130.84,50.18l4.89-6.94h0.07l-0.13,6.94H130.84L130.84,50.18z M152.73,53.55L152.73,53.55
		l-3.44-12.69h-2.58l-5.55,15.74h2.05l4.43-12.69h0.07l3.5,12.69h2.38l5.55-15.74h-2.05l-4.43,12.69H152.73L152.73,53.55z
		 M158.28,56.6h6.35c2.45,0,4.56-0.93,6.28-2.78c1.39-1.39,2.45-3.17,3.24-5.29c0.73-2.18,0.86-3.9,0.26-5.29
		c-0.6-1.59-2.05-2.38-4.23-2.38h-6.41l-5.55,15.74C158.21,56.6,158.28,56.6,158.28,56.6z M165.29,42.64h3.97
		c3.11,0.13,3.97,2.12,2.64,6.08c-1.52,3.9-3.77,5.95-6.74,6.08h-4.1l4.3-12.17L165.29,42.64L165.29,42.64L165.29,42.64z
		 M190.28,48.79c-1.65,4.03-4.23,6.08-7.74,6.35c-3.44-0.2-4.5-2.25-3.31-6.35c1.65-4.17,4.23-6.35,7.8-6.48
		C190.48,42.51,191.54,44.69,190.28,48.79L190.28,48.79z M192.4,48.79c0.73-2.31,0.79-4.36,0.07-6.08
		c-0.79-1.52-2.45-2.25-4.76-2.25c-2.12,0-4.03,0.53-5.75,1.72c-2.25,1.65-3.9,3.83-4.89,6.61c-0.66,2.18-0.73,4.03-0.2,5.69
		c0.79,1.59,2.51,2.38,5.02,2.38c2.38,0,4.56-0.73,6.41-2.25c1.79-1.59,3.17-3.5,4.03-5.82L192.4,48.79L192.4,48.79L192.4,48.79z
		 M204.89,53.55L204.89,53.55l-3.44-12.69h-2.58l-5.55,15.74h2.05l4.43-12.69h0.07l3.5,12.69h2.38l5.55-15.74h-2.05l-4.43,12.69
		H204.89L204.89,53.55L204.89,53.55z M219.64,49.98h4.76c-0.6,1.92-1.65,3.31-3.17,4.17c-1.19,0.66-2.38,1.06-3.64,1.06
		c-3.5,0-4.43-2.18-2.91-6.48c1.59-4.03,4.1-6.21,7.4-6.41c2.51,0.07,3.77,1.19,3.57,3.37h2.05c0.53-3.24-1.12-4.89-4.83-5.16
		c-4.63,0.2-8.07,2.91-10.31,8.13c-1.06,2.78-1.06,4.96,0.13,6.61c0.73,1.12,2.18,1.65,4.3,1.65c2.25-0.07,4.23-0.79,5.95-2.25
		l-0.2,1.98h1.39l2.91-8.4h-6.88l-0.6,1.79L219.64,49.98L219.64,49.98L219.64,49.98z"/>
	<path id="path17" class="st0" d="M106.51,72.99l-0.07,4.5h2.31l-0.13-15.74h-2.38L94.81,77.49h2.12l3.24-4.5
		C100.17,72.99,106.51,72.99,106.51,72.99z M101.55,71.07l4.89-6.94h0.07l-0.13,6.94H101.55L101.55,71.07z M119.93,61.82h-2.12
		l-5.55,15.74h2.12L119.93,61.82z M124.03,70.74h5.16c1.92,0,2.51,0.93,1.85,2.78c-0.6,1.92-0.93,3.24-1.06,3.97h2.64l0.13-0.33
		c-0.46-0.2-0.53-0.73-0.2-1.59l0.79-2.78c0.6-1.65,0.33-2.64-0.79-2.98c1.79-0.79,2.91-2.05,3.57-3.77c0.6-1.65,0.4-2.78-0.46-3.37
		c-0.6-0.53-1.72-0.86-3.31-0.86h-7.34l-5.55,15.74h2.12L124.03,70.74L124.03,70.74L124.03,70.74z M126.55,63.54h5.36
		c1.92,0,2.51,0.86,1.92,2.64c-0.6,1.85-2.05,2.71-4.17,2.71h-4.96L126.55,63.54L126.55,63.54L126.55,63.54z M143.93,61.82h-2.12
		l-5.55,15.74h10.12l0.66-1.92h-8L143.93,61.82L143.93,61.82z M157.62,61.82h-2.12l-5.55,15.74h2.12L157.62,61.82z M168.46,74.58
		L168.46,74.58l-3.44-12.69h-2.58l-5.55,15.74h2.05l4.43-12.69h0.07l3.5,12.69h2.38l5.55-15.74h-2.05l-4.43,12.69H168.46
		L168.46,74.58L168.46,74.58z M186.45,75.64h-9.45l1.85-5.22h8.53l0.66-1.92h-8.53l1.72-4.89h9.26l0.6-1.79h-11.44l-5.55,15.74
		h11.57l0.66-1.92H186.45L186.45,75.64L186.45,75.64z M205.16,66.45c1.06-3.31-0.4-4.96-4.3-4.96c-1.59,0-2.84,0.33-3.97,1.06
		c-1.52,0.86-2.58,2.12-3.24,3.77c-0.66,1.92,0,3.17,1.98,3.77l2.98,0.66c1.32,0.26,2.05,0.6,2.38,1.06
		c0.33,0.4,0.33,1.06,0.07,1.79c-0.66,1.72-2.38,2.58-5.16,2.64c-2.78-0.07-3.77-1.32-2.98-3.7h-2.05c-0.66,1.79-0.6,3.11,0.26,3.97
		c0.6,0.86,1.98,1.39,4.23,1.39c1.72,0,3.37-0.33,4.76-1.06c1.45-0.73,2.38-1.92,2.91-3.5c0.79-2.25,0.13-3.7-1.98-4.3l-4.1-1.06
		c-1.19-0.2-1.59-0.79-1.19-1.98c0.6-1.79,2.12-2.64,4.5-2.71c2.45,0.13,3.44,1.19,2.78,3.17h1.98L205.16,66.45L205.16,66.45
		L205.16,66.45L205.16,66.45L205.16,66.45z"/>
</g>
</svg>
