<?xml version="1.0" encoding="utf-8"?>
<!-- Generator: Adobe Illustrator 25.4.1, SVG Export Plug-In . SVG Version: 6.00 Build 0)  -->
<svg version="1.1" id="Layer_1" xmlns="http://www.w3.org/2000/svg" xmlns:xlink="http://www.w3.org/1999/xlink" x="0px" y="0px"
	 viewBox="0 0 158.7 80" style="enable-background:new 0 0 158.7 80;" xml:space="preserve">
<style type="text/css">
	.st0{fill:#172980;}
</style>
<g>
	<path class="st0" d="M115.6,55.3L63.7,19.8H0l49.5,9.5L61,38.6l-10.7,6.9c-0.3-1.9-0.6-3.8-0.6-5.8c0-0.1,0-0.2,0-0.3l-9.6,3.6
		c0,0,5.2,2,8.8,3.4L32.6,57h105.6l-12.2-9.3L115.6,55.3z"/>
	<path class="st0" d="M80.1,27.5l15.3,10.9l10-5.6l3.6-1c0.6,2.3,1,4.7,1,7.2c3-1.2,9.1-4,9.1-4l-8.1-3.8L158.7,18H94.5L80.1,27.5z"
		/>
	<path class="st0" d="M50.8,31.7l-10.6,2.7l9.7,4.2C49.9,36.2,50.2,33.9,50.8,31.7z"/>
	<path class="st0" d="M51.6,69.1l9.4-5c-1.8-1.5-3.4-3.2-4.8-5.1L51.6,69.1z"/>
	<path class="st0" d="M61,75.8l7.4-7c-2-0.9-4-2-5.7-3.3L61,75.8z"/>
	<path class="st0" d="M73.5,80l4.9-9c-2.5-0.1-4.8-0.5-7.1-1.2L73.5,80z"/>
	<path class="st0" d="M86.8,79.7l1.3-9.8c-2.2,0.7-4.6,1-7,1.2L86.8,79.7z"/>
	<path class="st0" d="M90.8,69l7,7.4L97,65.5C95.1,66.9,93,68.1,90.8,69z"/>
	<path class="st0" d="M98.7,64.2l7.9,4.5l-3.9-8.5C101.5,61.6,100.2,63,98.7,64.2z"/>
	<path class="st0" d="M110,41.1c-0.1,2.1-0.4,4.1-0.8,6.1c2.5-0.4,8.9-1.7,8.9-1.7L110,41.1z"/>
	<path class="st0" d="M82.3,0l-3.8,8.4c0.5,0,0.9-0.1,1.4-0.1c2,0,3.9,0.2,5.7,0.6L82.3,0z"/>
	<path class="st0" d="M70.8,9.8c2-0.7,4.1-1.1,6.3-1.3l-4.1-8L70.8,9.8z"/>
	<path class="st0" d="M69.5,10.3l-6.7-7l1.1,9.8C65.6,12,67.5,11.1,69.5,10.3z"/>
	<path class="st0" d="M53.7,9.3l4.1,9.1c1.3-1.5,2.7-2.8,4.3-4L53.7,9.3z"/>
	<path class="st0" d="M101.5,5.8l-7.4,6.3c2,1.1,3.8,2.5,5.5,4L101.5,5.8z"/>
	<path class="st0" d="M86.6,9.2c2.1,0.5,4.2,1.3,6.1,2.2l-0.3-10L86.6,9.2z"/>
</g>
</svg>
