<?xml version="1.0" encoding="utf-8"?>
<!-- Generator: Adobe Illustrator 25.4.1, SVG Export Plug-In . SVG Version: 6.00 Build 0)  -->
<svg version="1.1" id="Layer_1" xmlns="http://www.w3.org/2000/svg" xmlns:xlink="http://www.w3.org/1999/xlink" x="0px" y="0px"
	 viewBox="0 0 576.9 80" style="enable-background:new 0 0 576.9 80;" xml:space="preserve">
<style type="text/css">
	.st0{fill:#FFDC00;}
	.st1{fill:#172980;}
</style>
<g>
	<path class="st0" d="M382.8,10.6c-1.2,0.2-8.2,3.7-10,4.7c-6,2.8-44.8,42.5-44.8,42.5s-4,5-11.8,8.9c-7.8,3.9-23.2,4-23.2,4H1.9
		v4.6h350c0,0,9.3-0.9,15.9-3.7c6.5-2,15.7-11.1,15.7-11.1l39.2-39.9c0,0,5-4.1,7.3-5.3c2.3-1.2,13.8-3.5,13.8-3.5h133V8.3H403.2
		C403.2,8.3,385.5,9.3,382.8,10.6L382.8,10.6z"/>
	<path class="st1" d="M430,15.3c-2.3,1.2-7.3,5.3-7.3,5.3l-39.2,39.9c0,0-9.2,9-15.7,11.1c-6.5,2.8-15.9,3.7-15.9,3.7H1.9v4.6h400.3
		c0,0,23.2,3.4,37.7-16.5c18.4-17.8,34.1-40.2,48.6-44.2c5-2.2,17.9-3.7,17.9-3.7h70.6v-3.5h-133C443.9,11.8,432.3,14.1,430,15.3z
		 M342.8,4.8c0,0-12.1,0.5-18,2.8c-4.9,1.5-12.4,7.1-12.4,7.1l-36.6,36.9c0,0-9.2,8.6-15.3,11.6c-6.1,2.9-13.7,2.9-13.7,2.9H1.9v4.6
		H293c0,0,15.4-0.1,23.2-4c7.8-3.9,11.8-8.9,11.8-8.9s38.8-39.7,44.8-42.5c1.8-1,8.7-4.4,10-4.7c2.7-1.3,20.4-2.3,20.4-2.3h173.7
		V4.8H342.8z M546.8,55.1l-27.3-18.7H486l26,5l6.1,4.9l-5.6,3.6c-0.2-1-0.3-2-0.3-3.1c0-0.1,0-0.1,0-0.2l-5.1,1.9c0,0,2.7,1,4.6,1.8
		l-8.6,5.6h55.6l-6.4-4.9L546.8,55.1z M528.2,40.5l8.1,5.7l5.3-2.9l1.9-0.5c0.3,1.2,0.5,2.5,0.5,3.8c1.6-0.7,4.8-2.1,4.8-2.1l-4.2-2
		l25.1-7h-33.7L528.2,40.5z M512.7,42.8l-5.6,1.4l5.1,2.2C512.3,45.1,512.4,43.9,512.7,42.8z M513.1,62.4l4.9-2.6
		c-0.9-0.8-1.8-1.7-2.5-2.7L513.1,62.4z M518.1,65.9l3.9-3.7c-1.1-0.5-2.1-1-3-1.7L518.1,65.9z M524.6,68.2l2.6-4.7
		c-1.3-0.1-2.5-0.3-3.7-0.7L524.6,68.2z M531.7,68l0.7-5.1c-1.2,0.3-2.4,0.6-3.7,0.6L531.7,68z M533.8,62.3l3.7,3.9l-0.4-5.7
		C536,61.3,534.9,61.9,533.8,62.3z M537.9,59.8l4.2,2.4l-2.1-4.5C539.4,58.5,538.7,59.2,537.9,59.8z M543.9,47.7
		c-0.1,1.1-0.2,2.2-0.4,3.2c1.3-0.2,4.7-0.9,4.7-0.9L543.9,47.7z M529.3,26.1l-2,4.4c0.2,0,0.5,0,0.7,0c1,0,2,0.1,3,0.3L529.3,26.1z
		 M523.3,31.2c1.1-0.3,2.2-0.6,3.3-0.7l-2.2-4.2L523.3,31.2z M522.5,31.5l-3.5-3.7l0.6,5.2C520.5,32.4,521.5,31.9,522.5,31.5z
		 M514.3,31l2.2,4.8c0.7-0.8,1.4-1.5,2.3-2.1L514.3,31z M539.4,29.1l-3.9,3.3c1,0.6,2,1.3,2.9,2.1L539.4,29.1z M531.6,30.9
		c1.1,0.3,2.2,0.7,3.2,1.2l-0.2-5.3L531.6,30.9z M123.8,56.1h4V41.9h-4V56.1z M83.8,51.2l-6.6-9.3h-5.3v14.1h4V45.7l7.4,10.3h4.6
		V41.9h-4C83.8,41.9,83.8,51.2,83.8,51.2z M193.9,56.1l8.7-14h-4l-3.2,5.2L191,42l-4.8-0.1l7,8.8l-3.3,5.3H193.9z M151,56.1h5.3
		l2.1-9.7l2.1,9.7h5.5l4.2-14.1h-4l-3,10.2L161,41.9h-5.1l-2.2,9.8l-2.9-9.8h-4L151,56.1z M185.3,56V41.8H172v3.3h4.4L169.8,56
		l4.5,0.1l1.7-2.7h5.3V56H185.3z M178,50l3-4.9h0.3V50H178z M120,56V41.8h-13.4v3.3h4.4L104.5,56l4.5,0.1l1.7-2.7h5.3V56H120z
		 M112.7,50l3-4.9h0.3V50H112.7z M68.1,56V41.8H54.8v3.3h4.4L52.6,56l4.5,0.1l1.7-2.7h5.3V56H68.1z M60.8,50l3-4.9h0.3V50H60.8z
		 M212.4,56.1c1.6-0.2,4.7-1.5,4.7-4.7c0-3.3-2.7-4-4.4-4c-0.1,0-5.2,0-6.1,0c-0.3-0.1-1-0.6-1-1c0-0.6,0.6-1,0.9-1.2h9.2v-3.2h-9.6
		l-0.6,0.1c-1.2,0.5-3.3,1.7-3.3,4.3c0,2.6,2.1,3.8,3.6,4l0.1,0h6.2c0,0,0.9,0.1,0.9,1.1c0,1-0.8,1.3-1.1,1.4h-10v3.4h10.2
		L212.4,56.1z M11.1,56.1c1.6-0.2,4.7-1.5,4.7-4.7c0-3.3-2.7-4-4.4-4c-0.1,0-5.2,0-6.1,0c-0.3-0.1-1-0.6-1-1c0-0.6,0.6-1,0.9-1.2
		h9.2v-3.2H4.9L4.3,42C3.1,42.5,1,43.7,1,46.3c0,2.6,2.1,3.8,3.6,4l0.1,0H11c0,0,0.9,0.1,0.9,1.1c0,1-0.8,1.3-1.1,1.4h-10v3.4h10.2
		L11.1,56.1z M46.7,56c1.8-0.4,5.2-2.4,5.2-7.5c0-5.3-3.5-6.5-5.3-6.6h-9.7v14.1h9.7L46.7,56z M40.8,53v-7.7H46
		c0.4,0,2.4,0.4,2.4,3.3c0,3-1.4,4.2-2,4.4H40.8z M18,41.9c0,0,0,7.3,0,10.9c0,3.6,4,3.2,4,3.2h11.1V41.9h-4v11.2h-5.8
		c-0.7,0-1.3-0.6-1.3-1.3c0,0,0,0,0,0l0,0v-9.8L18,41.9L18,41.9z M131.5,56.1h4v-4.4h3.8l2.5,4.3h4.7l-3-5.1
		c1.4-0.8,2.4-2.1,2.4-4.4c0-3.7-2.8-4.6-5.8-4.6v0h-8.8V56.1z M135.5,45.4h4.7v0c1.3,0,1.9,0.4,1.9,1.5c0,0.9-0.4,1.3-1.4,1.4h-5.3
		C135.5,48.3,135.5,45.4,135.5,45.4z M216.7,10.3l-2.1,4.1l-0.3,10.7l-0.4,3.8l2.1-5L216.7,10.3z M202.2,4.3l-2.4-2.2l-2.5,3
		l2.2,2.1L202.2,4.3z M178.9,26.8c0,0-4.3,3.6-9,5.2c-0.3-0.1-0.1,0.5-0.1,0.5s2.8,0,6.2-1c3.4-1,4.7-5.1,4.7-5.1s4-0.1,6.1-0.4
		c11.4-2.4,22.5-10.4,22.2-11.6c-0.1-0.3-7.5,0.4-7.4-0.2c0.2-1.4,8.8-4.1,8.8-4.1c4-1.4,7.3-9.1,7.3-9.1l-0.9-1c0,0-2.1,5-4.5,6.5
		c-2.8,2-9,3.6-10.8,5.1c-1.7,1.5-2.8,4.5-2.8,4.5l5.5,0.5c0,0-9.2,6-10.2,5.5c-0.3-0.3,3-4.5,2.7-5.8c0.3-1.9-2.2-1.6-2.8-1.5
		s-4.5,3.7-4.5,3.7l0.8-7.2c0,0,0.2-7.2,0-7.2c-0.9-0.1-2.4,4.1-2.4,4.1s-0.1,6.8-0.2,9.9c-0.1,3.1-1.9,4.1-1.9,4.1
		s-2.1,2.6-4.2,1.4c0,0,0.5-3.8-1.5-4.1c-2.1-0.3-4.5,4-4.4,4.8C175.6,25.9,178.9,26.8,178.9,26.8z M191.9,17.9
		c0.4-0.1,2.2-0.1,2.3,0.6c0.1,0.7-2.5,2.6-2.5,2.6s-5.1,2.5-5.3,2C187.4,22.4,191.5,18,191.9,17.9z M154.4,28.6
		c0,0,4.4,1.6,9.2,0.1c0.6-0.2,8.1-2.2,8.6-11.1c-1.7-2.5-7.9,4.1-7.9,4.1l0.7-5.2l0.3-9.7l-2.1,2.9c0,0-0.4,11-0.5,12.4
		c-0.1,1.4-1.9,4.1-2.4,4.8c-0.4,0.7-6,1.2-6,1.2L154.4,28.6z M167.5,20.7c0.4-0.1,1.9-0.4,2.1,0.8c0.1,0.3-1.7,2-1.7,2l-2.1,0.8
		c0,0-3.6,1.9-3.5,1.4C162.8,25.2,167,20.9,167.5,20.7z M150,18c0,0-1,10.5-1.2,10.8c-0.2,0.3,0.6,1.9,0.6,1.9s2.8-6.4,2.4-11.9
		c0.1-0.7,1.1-4.5,1-4.7C151.6,13.9,150,18,150,18z M129.8,25.8c0,0,1.1,0.5,1,0.7c-0.2,0.8-8.4,5.1-8.4,5.1s3.1,0.2,5.6-0.2
		c2.5-0.4,4.2-5,4.2-5s1.6-0.1,2.3-0.2c9.3-3.8,11.4-8.2,11.4-8.2l-0.1-0.3c0,0-7.2,0.1-7.2-0.3c0.3-1.1,2.2-1.8,7.4-3.4
		c7.8-2.4,9.7-11.1,9.7-11.1l-0.4-0.6c0,0-3,5.9-6.7,8c-3.7,2.1-9,3.6-9,3.6s-4.2,4.6-3.9,5.2c0.3,0.6,6.7,0.8,6.7,0.8
		s-7.9,5.2-9,4.3c0,0,1.3-3.9-1.6-4.5c-2-0.1-4,3.7-4.1,4.2C127.3,25.4,129.8,25.8,129.8,25.8z M94.7,26.3c0,0,6.4,4.2,12.6,3.4
		c11.5,0.1,17.9-10,17.9-10l1-5.6l-2.6,3.6v2.2c0,0-5.6,6.1-13.8,6.4s-13.2-3.4-13.2-3.4l-7.5,7.6l0.5,0.5L94.7,26.3z M141.6,29.4
		c0.1,0.6,3-1.6,2.6-2.3c-0.3-0.7-2.2-2.6-2.4-2.3c0,0-1.9,2.5-2.1,2.7C139.5,27.7,141.6,28.9,141.6,29.4z M39.3,10.9
		c0.1,0.6,2.9-1.6,2.6-2.3c-0.3-0.7-2.2-2.6-2.4-2.3c0,0-1.9,2.5-2.1,2.7C37.2,9.2,39.3,10.4,39.3,10.9z M112,33.9
		c0,0,1.5,2.1,1.9,2.1c0.4-0.1,2.9-2.4,2.8-2.7c-0.1-0.2-1.9-2.3-1.9-2.3s-2.6,2.9-2.8,2.7c-0.3-0.2-1.6-2.3-1.9-2.1
		c-0.3,0.2-3.2,2.4-3.1,2.7c0.1,0.3,2,2.1,2.3,2C109.5,36.4,112,33.9,112,33.9z M34.1,33.9c0.4-0.1,2.9-2.4,2.8-2.7
		c-0.1-0.2-1.9-2.3-1.9-2.3s-2.6,2.9-2.8,2.7c-0.3-0.2-1.6-2.3-1.9-2.1c-0.3,0.2-3.2,2.4-3.1,2.7c0.1,0.3,2,2.1,2.3,2
		c0.3-0.1,2.7-2.5,2.7-2.5S33.7,33.9,34.1,33.9z M97.3,18.3c0.3-0.1,2.8-2.8,2.8-3.2c-0.1-0.4-1.9-1.9-1.9-1.9s2.7-2.4,2.4-2.9
		c-0.3-0.5-2-2-2.3-1.9c-0.2,0.1-3,2.4-2.7,2.7c0.3,0.3,2.4,1.6,2.1,1.9c-0.2,0.3-2.5,2.4-2.3,2.8C95.6,16.2,97,18.3,97.3,18.3z
		 M5.8,17C6,17,8.6,14.3,8.6,13.9C8.5,13.5,6.7,12,6.7,12S9.3,9.5,9.1,9s-2-2-2.3-1.9C6.5,7.3,3.8,9.6,4,9.9
		c0.3,0.3,2.3,1.6,2.1,1.9c-0.2,0.3-2.5,2.4-2.3,2.8C4.1,15,5.5,17.1,5.8,17z M114.5,14c0,0,0.1,0.5,1.2,0.5c1.1,0,2.7-3.3,2.7-3.3
		l-0.5-1.1c0,0-1.4,2.4-1.9,2.4c-0.5,0.1-0.8-1.6-0.8-1.6s-1.2,2.7-2.3,2.1c-0.5-0.3,0.4-2.7,0.4-2.7s-3.1,2.6-2,4.3
		C112.2,16,114.5,14,114.5,14z M22.3,13.5c0,0,0.1,0.5,1.2,0.5c1.1,0,2.7-3.3,2.7-3.3l-0.5-1.1c0,0-1.4,2.4-1.9,2.4
		c-0.5,0.1-0.8-1.6-0.8-1.6s-1.2,2.7-2.3,2.1c-0.5-0.3,0.4-2.7,0.4-2.7s-3.1,2.6-2,4.3C19.9,15.4,22.3,13.5,22.3,13.5z M83.7,32.8
		l-0.1,1.5c0,0,0.2-0.2,1-1.5c0.9-1.2,1-10.1,1-10.1l0.5-4.9c0,0-2.2,3.2-2.4,3.7C83.5,22,83.7,32.8,83.7,32.8z M62.8,23.3
		c0,0,0.4-0.1,0.1,0.4c-0.4,1.1-8.8,5.9-8.8,5.9s5.8-0.7,6.7-1.4c0.8-0.6,3.7-4.6,3.7-4.6l3.4-2.2c0,0,1.9,0.6,2.5,0.5
		c0.5-0.1,2-1.5,2-1.5s1.4,0.7,2.1,0.6c0.7-0.1,1.7-1.7,1.7-1.7s1.1,1,2.1,0.8c3.4-0.6,5.1-5.6,5.1-5.6l2-11.6l-2.3,3.8
		c0,0-1,7.4-0.8,7.4c0.2,0-1.6,2.8-2.7,2.9s-1.4-1.1-1.4-1.1l-2.1,2.3c0,0-1.7,0.6-1.8,0.1c-0.1-0.5,0.2-1.3,0.2-1.3s-3,3.7-4.4,2.1
		c0.1-0.3,0.5-1.5,0.5-1.5s-4.2,3.6-5,3.2c0,0,0.5-4.6-1.3-4.6c-2.4,0.1-4.2,4.6-4.4,4.9C59.7,23.7,62.8,23.3,62.8,23.3z M53.4,23.7
		c-0.3,1.1-7.6,6-7.6,6l4.9-0.7c0,0,3.8-2.5,4.6-7.8s-3.4-5-3.4-5l-1.7,3.5C50.2,19.7,53.7,20.2,53.4,23.7z M47.9,6.9l0.5-2.3
		c0,0-2.5,3.6-2.6,5.1c-0.1,1.5-0.2,7.7-0.2,7.7l-0.8,4.8c0,0,2-2.5,2.8-6.8C47.8,14.2,47.9,6.9,47.9,6.9z M4.5,25.3
		c0,0,5.2,3.9,13.1,3.6c10.5-0.4,17.2-7.4,17.2-7.4s1.3,1.5,2.8,1.4c3.1-0.4,4.4-5.6,4.4-5.6v-1c0,0-2.2,3.8-3.4,4
		c-1.3,0.2-1.9-1.4-2.9-1.2c0,0-6.3,5.7-15.7,6.4c-9.3,0.7-14-4-14-4L0,29l1-0.1L4.5,25.3z"/>
</g>
</svg>
