<?xml version="1.0" encoding="utf-8"?>
<!-- Generator: Adobe Illustrator 25.4.1, SVG Export Plug-In . SVG Version: 6.00 Build 0)  -->
<svg version="1.1" id="Layer_1" xmlns="http://www.w3.org/2000/svg" xmlns:xlink="http://www.w3.org/1999/xlink" x="0px" y="0px"
	 viewBox="0 0 124.57 80" style="enable-background:new 0 0 124.57 80;" xml:space="preserve">
<style type="text/css">
	.st0{fill:#162D66;}
	.st1{fill:#74BA24;}
	.st2{fill:#FFFFFF;}
</style>
<g>
	<path class="st0" d="M124.57,0H95.59C76.77,19.72,30.98,80,0,80h95.04L124.57,0z"/>
	<path class="st1" d="M0,80h95.04l6.57-17.72C98.94,65.52,84.79,75.54,0,80"/>
	<path class="st1" d="M124.57,0H95.59c-4.12,4.35-9.47,10.59-15.7,17.71c5.46-6.24,29.08-9.13,41.55-9.13L124.57,0z"/>
	<path class="st2" d="M74.87,48.35c0,1.34,0.11,1.78,0.89,1.78c0.34,0,0.68-0.11,0.89-0.11c0.12,0,0.12,0.11,0.12,0.22
		c0,0.56-0.22,0.34-1.45,0.67c-1.45,0.34-2.12,0.78-2.23,0.78c-0.11,0-0.22-0.11-0.22-0.22c0-0.11,0.22-0.44,0.22-1
		c0.11-1,0.22-3.57,0.22-7.57v-0.89c0-2.12,0-3.34-0.33-3.57c-0.22-0.22-0.9-0.33-2.01-0.33c-1.45,0-2.45,0.11-3.12,0.44
		c-0.56,0.22-0.67,0.67-0.89,0.67c-0.11,0-0.22-0.11-0.22-0.22v-0.44v-1.11V37.1c0-0.22,0-0.34,0.33-0.34
		c0.34,0,2.23,0.11,5.91,0.11c4.79,0,7.57-0.11,8.13-0.11c0.22,0,0.33,0.11,0.33,0.22c0,0.67-0.11,0.67-0.56,0.67
		c-2,0.11-3.9,0.22-5.79,0.56C74.99,43.12,74.87,46.57,74.87,48.35"/>
	<path class="st2" d="M87.46,44.23c-1,0.11-2,0.11-2.9,0.11v1c0.56-0.11,1.22-0.11,2.01-0.11h1.34c1.67,4.01,2.56,6.01,2.9,6.01
		c0.22,0,0.67-0.56,1.45-1.11c0.89-0.67,1.34-0.79,1.34-0.89c0-0.11-0.22-0.34-0.22-0.34c-0.22,0-0.44,0.34-0.77,0.34
		c-1.45,0-2.56-2.68-4.79-8.47c-1.56-3.91-1.67-5.58-2.01-5.58c-0.22,0-0.89,0.22-1.22,0.56v3.56c0.22-0.56,0.44-1,0.56-1.34
		C86.02,40.89,86.8,42.9,87.46,44.23 M84.57,44.34h-1.34h-1.67c1.45-2.12,2.35-3.79,3.01-5.02v-3.56c-0.22,0.11-0.34,0.22-0.34,0.22
		v0.33c0,1.01-1.44,4.02-4.34,9.03c-2.35,4.01-3.57,5.8-3.57,6.13c0,0.11,0,0.22,0.22,0.22c0.45,0,1.23-1.9,3.34-4.57
		c1-1.34,2.23-1.78,4.68-1.78L84.57,44.34z"/>
	<path class="st2" d="M93.81,42.01v-1.9c0-2.34,0-3.23-0.56-3.23c-0.22,0-0.33,0.11-0.33,0.11c-0.12,0-0.22-0.11-0.22-0.22
		c0-0.22,0.33-0.22,0.89-0.45c1.23-0.45,1.67-0.89,1.9-0.89c0,0,0.22,0.11,0.22,0.34c0,0.22-0.22,2.56-0.22,8.47
		c0,2,0,3.9,0.11,5.68c1.34,0.33,2.79,0.33,4.47,0.33c1.89,0,2.78-0.11,2.9-0.11c0.11,0,0.11,0,0.11,0.11
		c0,1.01-2.34,1.12-7.24,1.12h-2.23C93.81,49.69,93.81,46.69,93.81,42.01"/>
</g>
</svg>
