<?xml version="1.0" encoding="utf-8"?>
<!-- Generator: Adobe Illustrator 25.4.1, SVG Export Plug-In . SVG Version: 6.00 Build 0)  -->
<svg version="1.1" id="Layer_1" xmlns="http://www.w3.org/2000/svg" xmlns:xlink="http://www.w3.org/1999/xlink" x="0px" y="0px"
	 viewBox="0 0 83.42 80" style="enable-background:new 0 0 83.42 80;" xml:space="preserve">
<style type="text/css">
	.st0{fill:#231F20;}
	.st1{fill:#162D66;}
	.st2{fill:#74BA24;}
	.st3{fill:#FFFFFF;}
</style>
<g>
	<path class="st0" d="M7.22,78.55c-0.15,0-0.35,0.1-0.55,0.1c-0.55,0-0.55-0.35-0.55-1.2c0-1.25,0-3.51,0.1-6.82
		c1.21-0.2,2.46-0.35,3.66-0.4c0.3,0,0.4,0,0.4-0.4c0-0.15-0.05-0.15-0.2-0.15c-0.4,0-2.16,0.05-5.22,0.05
		c-2.31,0-3.56-0.05-3.76-0.05c-0.2,0-0.2,0.05-0.2,0.2v0.2v0.75v0.25c0,0.15,0.06,0.2,0.15,0.2c0.1,0,0.2-0.3,0.55-0.45
		c0.4-0.25,1.05-0.3,1.96-0.3c0.75,0,1.15,0.05,1.3,0.2c0.2,0.2,0.2,1,0.2,2.41v0.6c0,2.71-0.05,4.41-0.1,5.07
		c-0.05,0.4-0.2,0.6-0.2,0.7c0,0.1,0.1,0.15,0.2,0.15c0.05,0,0.45-0.3,1.4-0.55c0.8-0.2,0.95-0.05,0.95-0.4
		C7.32,78.55,7.32,78.55,7.22,78.55z"/>
	<path class="st0" d="M13.64,78.85c-0.45-0.2-0.65-0.7-0.65-1.5c0-0.45,0.05-1.05,0.05-1.71c0-1.35-0.3-1.96-1.55-1.96
		c-0.25,0-0.45,0-0.6,0.05v0v0c-0.75,0.05-1.1,0.3-1.1,0.9c0,0.05,0.05,0.1,0.05,0.1c0.2,0,0.5-0.2,1.05-0.2v0h0.1
		c0.75,0,1.1,0.46,1.1,1.41v0.15c-0.45,0.05-0.85,0.15-1.2,0.3v0c-1.55,0.45-2.36,1.26-2.36,2.16c0,0.65,0.4,1,1.16,1
		c0.4,0,0.8-0.1,1.2-0.3V78.8c-0.15,0.04-0.3,0.04-0.5,0.04c-0.45,0-0.75-0.3-0.75-0.7c0-0.55,0.45-1.01,1.26-1.35v0
		c0.3-0.15,0.75-0.25,1.2-0.35l0,0v0.25c0,1.2-0.55,1.91-1.2,2.11v0.45c0.4-0.2,0.75-0.45,1.1-0.85c0.1,0.81,0.45,1.15,1.1,1.15
		c0.5,0,1.15-0.25,1.15-0.45C14.25,78.85,14,79.05,13.64,78.85z"/>
	<path class="st0" d="M17.61,76.09c-0.95-0.1-1.51-0.15-1.51-0.81c0-0.55,0.4-0.9,1.11-0.9c0.8,0,1.25,0.3,1.4,0.3
		c0.1,0,0.25-0.4,0.25-0.65c0-0.1-0.55-0.35-1.3-0.35c-1.3,0-2.16,0.95-2.16,2.11c0,1,0.55,1.35,1.66,1.35h0.65
		c0.5,0,0.75,0.2,0.75,0.55c0,0.7-0.8,1.41-2.01,1.41c-0.8,0-1.2-0.3-1.2-0.96v-0.1c0-0.1-0.05-0.15-0.15-0.15
		c-0.2,0-0.25,0.15-0.25,0.7v0.15c0,0.4,0,0.55,0.2,0.6v0c0.15,0.1,0.75,0.25,1.66,0.25c1.7,0,2.81-0.85,2.81-2.06
		C19.51,76.39,18.81,76.19,17.61,76.09z"/>
	<path class="st0" d="M23.23,76.09c-0.96-0.1-1.51-0.15-1.51-0.81c0-0.55,0.4-0.9,1.11-0.9c0.85,0,1.25,0.3,1.4,0.3
		c0.15,0,0.25-0.4,0.25-0.65c0-0.1-0.55-0.35-1.25-0.35c-1.3,0-2.21,0.95-2.21,2.11c0,1,0.55,1.35,1.71,1.35h0.65
		c0.5,0,0.75,0.2,0.75,0.55c0,0.7-0.8,1.41-2.06,1.41c-0.75,0-1.15-0.3-1.15-0.96v-0.1c0-0.1-0.05-0.15-0.2-0.15
		c-0.2,0-0.2,0.15-0.2,0.7v0.15c0,0.4,0,0.55,0.15,0.6v0c0.15,0.1,0.8,0.25,1.65,0.25c1.76,0,2.86-0.85,2.86-2.06
		C25.18,76.39,24.43,76.19,23.23,76.09z"/>
	<path class="st0" d="M27.94,73.69c-0.15,0-0.45,0.2-1.05,0.4c-0.5,0.15-0.8,0.15-0.8,0.3s0.05,0.25,0.15,0.25
		c0.1,0,0.2-0.05,0.35-0.05c0.45,0,0.45,0.35,0.45,1.1v3.26c0,0.45,0,0.7,0.1,0.7c0,0,0.3-0.1,0.75-0.25
		c0.1-0.05,0.15-0.15,0.15-0.25V78.9l0-2.95c0-1.26,0.1-1.96,0.1-2.06C28.14,73.79,27.99,73.69,27.94,73.69z"/>
	<path class="st0" d="M32.3,78.6c-0.1,0-0.3,0.15-0.6,0.15c-0.3,0-0.3-0.35-0.3-1.46v-0.75c0-3.46,0-5.47,0.15-6.02
		c0.15-0.45,0.6-0.5,0.6-0.65c0-0.15-0.1-0.2-0.15-0.2c-0.1,0-0.45,0.15-1.15,0.35c-0.45,0.1-0.5,0.05-0.5,0.25
		c0,0.1,0.05,0.7,0.05,1.91c0,0.3,0.05,0.7,0.05,1.25l0,3.56c0,2.06-0.25,2.61-0.25,2.71c0,0.1,0.1,0.2,0.25,0.2
		c0.15,0,0.4-0.35,1.15-0.65C32.1,79,32.41,79,32.41,78.8C32.41,78.7,32.35,78.6,32.3,78.6z"/>
	<path class="st0" d="M35.01,73.69c-0.1,0-0.4,0.2-1,0.4c-0.55,0.15-0.8,0.15-0.8,0.3s0.05,0.25,0.15,0.25c0.1,0,0.2-0.05,0.3-0.05
		c0.45,0,0.5,0.35,0.5,1.1v3.26c0,0.45,0,0.7,0.1,0.7c0,0,0.3-0.1,0.7-0.25c0.15-0.05,0.2-0.15,0.2-0.25V78.9v-2.95
		c0-1.26,0.05-1.96,0.05-2.06C35.22,73.79,35.11,73.69,35.01,73.69z"/>
	<path class="st0" d="M50.07,78.14c-0.1,0-0.25,0.15-0.51,0.15c-0.9,0-1.6-1.76-3.06-5.62c-1.01-2.61-1.05-3.81-1.26-3.81
		c-0.15,0-0.55,0.26-0.8,0.4v0c-0.15,0.1-0.2,0.15-0.2,0.2c0,0,0.05,0.1,0.05,0.2c0,0.7-0.95,2.71-2.81,6.07
		c-1.46,2.66-2.31,3.91-2.31,4.07c0,0.1,0.05,0.2,0.15,0.2c0.3,0,0.81-1.26,2.11-3.11c0.65-0.9,1.45-1.15,3.01-1.2l0-0.6h-0.8h-1.05
		c0.85-1.45,1.46-2.61,1.86-3.41v0c0.15-0.35,0.25-0.65,0.35-0.9c0.6,1.96,1.1,3.31,1.51,4.21l0,0c-0.65,0.05-1.26,0.05-1.86,0.1
		v0.6h1.3c0.2,0,0.45-0.05,0.8-0.05c1.1,2.66,1.71,4.01,1.91,4.01c0.15,0,0.35-0.3,0.9-0.75c0.55-0.4,0.8-0.5,0.8-0.55
		C50.16,78.24,50.11,78.14,50.07,78.14z"/>
	<path class="st0" d="M52.22,73.69c-0.15,0-0.45,0.2-1.05,0.4c-0.5,0.15-0.8,0.15-0.8,0.3s0.05,0.25,0.15,0.25
		c0.1,0,0.2-0.05,0.35-0.05c0.45,0,0.45,0.35,0.45,1.1v3.26c0,0.45,0,0.7,0.1,0.7c0,0,0.3-0.1,0.7-0.25c0.15-0.05,0.2-0.15,0.2-0.25
		V78.9l0-2.95c0-1.26,0.1-1.96,0.1-2.06C52.42,73.79,52.27,73.69,52.22,73.69z"/>
	<path class="st0" d="M57.49,73.68h-0.05l0,0c-0.3,0-1.01,0.35-1.71,1.3v-0.6c0-0.36,0.05-0.5,0.05-0.6c0-0.05-0.1-0.1-0.2-0.1
		c-0.05,0-0.5,0.35-1.35,0.7c-0.45,0.15-0.65,0.15-0.65,0.3s0.05,0.25,0.1,0.25c0.1,0,0.35-0.2,0.7-0.2c0.36,0,0.4,0.35,0.4,1.46
		v0.7c0,1.76-0.1,2.56-0.1,2.66c0,0.1,0,0.1,0.05,0.1c0.1,0,0.85-0.4,0.9-0.5c0.05-0.1,0-1.05,0.1-2.81c0.05-1,0.1-1.31,1.15-1.41
		c0.6-0.05,0.65,0.05,0.65-0.3v-0.75C57.54,73.68,57.54,73.68,57.49,73.68z"/>
	<path class="st0" d="M60.9,78.6c-0.1,0-0.3,0.15-0.6,0.15c-0.3,0-0.3-0.35-0.3-1.46v-0.75c0-3.46,0-5.47,0.15-6.02
		c0.15-0.45,0.6-0.5,0.6-0.65c0-0.15-0.1-0.2-0.15-0.2c-0.1,0-0.45,0.15-1.15,0.35c-0.45,0.1-0.5,0.05-0.5,0.25
		c0,0.1,0.05,0.7,0.05,1.91c0,0.3,0.05,0.7,0.05,1.25l0,3.56c0,2.06-0.25,2.61-0.25,2.71c0,0.1,0.1,0.2,0.25,0.2
		c0.15,0,0.4-0.35,1.15-0.65C60.7,79,61,79,61,78.8C61,78.7,60.95,78.6,60.9,78.6z"/>
	<path class="st0" d="M63.61,73.69c-0.1,0-0.4,0.2-1,0.4c-0.55,0.15-0.8,0.15-0.8,0.3s0.05,0.25,0.15,0.25c0.1,0,0.2-0.05,0.3-0.05
		c0.45,0,0.5,0.35,0.5,1.1v3.26c0,0.45,0,0.7,0.1,0.7c0,0,0.3-0.1,0.7-0.25c0.15-0.05,0.2-0.15,0.2-0.25V78.9l0-2.95
		c0-1.26,0.05-1.96,0.05-2.06C63.81,73.79,63.71,73.69,63.61,73.69z"/>
	<path class="st0" d="M71.33,78.6c-0.15,0-0.3,0.1-0.45,0.1c-0.2,0-0.25-0.05-0.25-0.25c0-0.4,0.05-1.15,0.05-2.21
		c0-1.6-0.3-2.46-1.3-2.46c-0.45,0-1.3,0.25-2.3,0.85c-0.2-0.6-0.6-0.95-0.76-0.95c-0.05,0-0.25,0.2-0.8,0.45
		c-0.3,0.15-0.5,0.15-0.5,0.25c0,0.15,0.05,0.2,0.15,0.2h0.25c0.55,0,0.75,0.6,0.75,1.76l0,3.01c0,0.15,0.05,0.25,0.15,0.25h0.05
		l0.75-0.3c0-0.6,0.05-1.71,0.05-3.31c0-0.35-0.05-0.65-0.05-0.85c0.4-0.4,0.85-0.65,1.26-0.65c1,0,1.35,0.85,1.35,2.55
		c0,1.71-0.25,2.41-0.25,2.51c0,0.05,0.05,0.15,0.15,0.15c0.1,0,0.35-0.25,0.95-0.5c0.6-0.2,0.85-0.15,0.85-0.4
		C71.43,78.7,71.38,78.6,71.33,78.6z"/>
	<path class="st0" d="M77.1,77.44c-0.1,0-0.15,0.2-0.35,0.4c-0.45,0.55-0.95,0.85-1.71,0.85c-0.3,0-0.55-0.05-0.75-0.15v0
		c-0.55-0.25-0.85-0.8-0.95-1.6c0.35-0.1,0.65-0.2,0.95-0.3v0c1.41-0.5,2.16-1.05,2.16-1.46c0-0.9-0.65-1.5-1.61-1.5
		c-0.2,0-0.35,0.05-0.55,0.1v0c-1.15,0.3-2.01,1.55-2.01,3.16c0,1.45,0.7,2.41,2.01,2.61v0c0.2,0.05,0.35,0.05,0.55,0.05
		c1.1,0,1.26-0.15,1.51-0.5C77,78.3,77.3,77.8,77.3,77.65C77.3,77.55,77.2,77.44,77.1,77.44z M73.29,76.09c0-0.95,0.45-1.6,1.01-1.8
		v0c0.1,0,0.2-0.05,0.3-0.05c0.4,0,0.7,0.36,0.7,0.76c0,0.5-0.35,0.95-1,1.2v0c-0.3,0.1-0.6,0.2-1.01,0.25V76.09z"/>
	<path class="st0" d="M80.57,76.09c-0.95-0.1-1.51-0.15-1.51-0.81c0-0.55,0.4-0.9,1.1-0.9c0.85,0,1.31,0.3,1.46,0.3
		c0.1,0,0.25-0.4,0.25-0.65c0-0.1-0.6-0.35-1.3-0.35c-1.3,0-2.21,0.95-2.21,2.11c0,1,0.55,1.35,1.7,1.35h0.65
		c0.5,0,0.76,0.2,0.76,0.55c0,0.7-0.81,1.41-2.01,1.41c-0.8,0-1.2-0.3-1.2-0.96v-0.1c0-0.1-0.05-0.15-0.2-0.15
		c-0.2,0-0.2,0.15-0.2,0.7v0.15c0,0.4,0,0.55,0.15,0.6l0,0c0.2,0.1,0.8,0.25,1.66,0.25c1.76,0,2.86-0.85,2.86-2.06
		C82.52,76.39,81.77,76.19,80.57,76.09z"/>
	<polygon class="st0" points="62.35,72.78 63.36,73.63 63.91,72.78 62.9,72.03 	"/>
	<polygon class="st0" points="51.07,72.78 52.07,73.63 52.62,72.78 51.62,72.03 	"/>
	<polygon class="st0" points="33.76,72.78 34.77,73.63 35.32,72.78 34.31,72.03 	"/>
	<polygon class="st0" points="26.79,72.78 27.79,73.63 28.34,72.78 27.34,72.03 	"/>
	<path class="st0" d="M68.52,60.24c0,0,1.8-0.3,1.96-1.45l0,0c0,0,0.25,1.35,0.95,2.41c0.9,1.25,2.81,2.21,8.38,1.15v0
		c0.6-0.1,1.3-0.25,2.01-0.4c0.55-0.15,1.61-1.71,1.61-1.71s-0.25-2.41-3.62-1.05v0c-0.9,0.4-2.05,1.05-3.51,2.16
		c0,0-4.66,0.7-5.37-4.21c0,0-0.25-0.05-0.3,0.3c-0.1,0.35-1.05,1.85-2.71,1.35l-0.8-0.81l-0.75,1.3c0,0,1.51,1.15,1.1,1.81
		c-0.45,0.75-6.32,4.61-7.67,1.45l-0.4,1.01c0,0,0.1,1.96,2.56,1.46C64.36,64.45,68.07,62.55,68.52,60.24z M79.81,60.19L79.81,60.19
		c0.85-0.25,1.76-0.3,2.31,0.45c0,0-0.8,0.45-2.31,0.7v0c-0.65,0.1-1.4,0.15-2.3,0.1C77.5,61.44,78.61,60.59,79.81,60.19z"/>
	<path class="st0" d="M76.7,60.89l0.15,0c0,0,0.95-0.1,0.15-5.87c0,0,0.8-0.7,0.85-1.2c0,0-1.05-0.8-1.2-1.51l-0.85,1.1
		C75.8,53.42,77,58.73,76.7,60.89z"/>
	<path class="st0" d="M64.51,60.19l-0.81-8.43l-0.9,1.35l0.85,8.93C63.66,62.05,64.51,61.19,64.51,60.19z"/>
	<path class="st0" d="M38.12,62.2c1.37-0.19,2.64-0.45,3.52-0.64c0.08,0.11,2.31,3.15,5.66,3.1c0,0,9.98,0.81,13.8-3.36
		c0,0,1.51-1.45-0.75-3.81l0,0l-0.65,1.4c0,0,1.15,1.36,0.95,1.81c0,0-1.96,1.71-6.22,2.31c-4.2,0.64-9.87,0.69-11.97-1.63
		c0.21-0.05,0.34-0.08,0.34-0.08c0.25-0.1,1.05-1.86,1.05-1.86l-0.2-4.86c3.91,3.26,2.56,7.38,2.56,7.38
		c0.5-0.85,0.75-1.71,0.85-2.46v-1.21c-0.35-3.51-3.76-6.02-3.86-6.02c-0.1-0.05-0.65,1.45-0.65,1.45c0.1,0.3,0.9,6.07,0.55,6.32
		c-0.35,0.25-2.61,0.6-2.61,0.6c0.4-0.45,0.75-0.95,0.75-0.95s-0.4-2.36-3.11-1.05l0,1.1c0.65-0.25,1.41-0.3,1.86,0.45
		c0,0-0.65,0.4-1.86,0.65V62.2z"/>
	<path class="st0" d="M36.52,59.69c-0.12,0.1-0.26,0.21-0.39,0.31c0.11-0.8,0.11-2.23-0.26-4.83c0,0,0.8-0.75,0.8-1.2
		c0,0-1-0.81-1.2-1.51l-0.85,1.1c0,0,1,4.44,0.99,6.85c-0.26,0.2-0.53,0.41-0.83,0.63l0,0c0,0-1.76-0.1-2.01-0.45
		c-0.5-0.85-0.65-2.96-0.65-2.96c-0.2-3.91-0.9-6.07-0.9-6.07l-0.45,1.1c0.25,0.35,0.6,5.17,0.6,5.17c0.15,4.91,1.55,4.41,1.55,4.41
		c1.2,0.35,3.26,0.2,5.22-0.05v-1.35c-0.5,0.1-1.15,0.15-1.86,0.1c0,0,0.91-0.85,1.86-1.21v-1.1v0
		C37.67,58.89,37.12,59.19,36.52,59.69z"/>
	<path class="st0" d="M30.25,58.33l-0.8,1.05l0.1,1.01c0,0-1.05,0.25-0.85-1.2v-0.61c0,0-0.6,2.21-2.76,2.01l0.3-1.1
		c0,0-2.06,1.71-3.96,0.3c0,0-0.4-0.51-0.4-0.65c0.05-0.15-1.25,1.96-2.21,1.05c-1-0.9-1.2-8.42-1.2-8.42l-0.7,1.25l0.3,4.57
		c0,0-0.85,2.06-3.36,2.06l-0.9,1.1c0,0,0.1,0.5,0.2,0.5c0.15,0,2.46,0.5,2.26,1.05C16.05,62.9,5.42,66.11,0,62.04
		c0,0,1.15,3.86,9.73,3.31c0,0,7.88-0.9,7.88-3.51c0-0.6-0.8-1.26-1.45-1.51c0,0,1.95-1.26,2.1-2.41c0,0-0.1,3.81,1.6,3.81
		c1.15,0,1.46-0.75,1.46-0.95c0-0.2,0.4-0.1,0.4-0.1l0,0c0.4,1.86,2.56,0.95,2.56,0.95c2.51,1.15,3.66-0.65,3.66-0.65
		c0.45,1.15,1.51,0.65,1.51,0.65C31,60.79,30.25,58.33,30.25,58.33z"/>
	<path class="st0" d="M25.83,53.92l-1.35,0.6l0.2,0.35c2.16-0.35,2.26-1.71,2.06-2.11c-0.15-0.4-2.41,0.1-2.41,0.1l-0.45,1.05
		l0.1-0.05C25.58,53.47,25.83,53.92,25.83,53.92z"/>
	<polygon class="st0" points="73.14,51.81 67.37,53.47 66.52,54.57 72.54,52.86 	"/>
	<polygon class="st0" points="59.35,55.77 57.79,54.97 56.99,56.13 58.44,56.88 	"/>
	<polygon class="st0" points="23.13,63.85 21.97,63.25 21.12,64.4 22.57,65.16 23.17,64.4 24.28,65.01 25.23,63.9 23.68,63.1 	"/>
	<polygon class="st0" points="17.46,65.66 18.56,66.21 19.46,65.11 17.96,64.3 17.4,65.05 16.25,64.46 15.4,65.61 16.86,66.36 	"/>
	<polygon class="st0" points="70.08,63.85 68.92,63.25 68.12,64.4 69.53,65.15 70.13,64.45 71.23,65.05 72.18,63.95 70.63,63.1 	"/>
</g>
<path class="st1" d="M76.18,0H60.25C49.9,10.84,24.72,43.98,7.69,43.98h52.25L76.18,0z"/>
<path class="st2" d="M7.69,43.98h52.25l3.61-9.74C62.09,36.02,54.31,41.53,7.69,43.98"/>
<path class="st2" d="M76.18,0H60.25c-2.26,2.39-5.2,5.82-8.63,9.74c3-3.43,15.99-5.02,22.85-5.02L76.18,0z"/>
<path class="st3" d="M48.86,26.58c0,0.74,0.06,0.98,0.49,0.98c0.19,0,0.37-0.06,0.49-0.06c0.06,0,0.06,0.06,0.06,0.12
	c0,0.31-0.12,0.19-0.8,0.37c-0.8,0.19-1.16,0.43-1.22,0.43c-0.06,0-0.12-0.06-0.12-0.12c0-0.06,0.12-0.24,0.12-0.55
	C47.94,27.2,48,25.79,48,23.59V23.1c0-1.16,0-1.84-0.18-1.96c-0.12-0.12-0.49-0.18-1.1-0.18c-0.8,0-1.35,0.06-1.72,0.24
	c-0.31,0.12-0.37,0.37-0.49,0.37c-0.06,0-0.12-0.06-0.12-0.12V21.2v-0.61V20.4c0-0.12,0-0.19,0.18-0.19c0.19,0,1.22,0.06,3.25,0.06
	c2.63,0,4.16-0.06,4.47-0.06c0.12,0,0.18,0.06,0.18,0.12c0,0.37-0.06,0.37-0.31,0.37c-1.1,0.06-2.14,0.12-3.18,0.31
	C48.92,23.71,48.86,25.61,48.86,26.58"/>
<path class="st3" d="M55.78,24.32c-0.55,0.06-1.1,0.06-1.59,0.06v0.55c0.31-0.06,0.67-0.06,1.1-0.06h0.73
	c0.92,2.21,1.41,3.31,1.59,3.31c0.12,0,0.37-0.31,0.8-0.61c0.49-0.37,0.73-0.43,0.73-0.49c0-0.06-0.12-0.19-0.12-0.19
	c-0.12,0-0.24,0.19-0.43,0.19c-0.8,0-1.41-1.47-2.63-4.65c-0.86-2.15-0.92-3.07-1.1-3.07c-0.12,0-0.49,0.12-0.67,0.31v1.96
	c0.12-0.31,0.24-0.55,0.31-0.73C54.98,22.48,55.41,23.58,55.78,24.32 M54.19,24.38h-0.74h-0.92c0.8-1.16,1.29-2.08,1.66-2.76v-1.96
	C54.06,19.72,54,19.79,54,19.79v0.18c0,0.55-0.79,2.21-2.39,4.96c-1.29,2.2-1.96,3.19-1.96,3.37c0,0.06,0,0.12,0.12,0.12
	c0.25,0,0.68-1.04,1.84-2.51c0.55-0.73,1.22-0.98,2.57-0.98L54.19,24.38z"/>
<path class="st3" d="M59.27,23.09v-1.04c0-1.29,0-1.78-0.31-1.78c-0.12,0-0.18,0.06-0.18,0.06c-0.06,0-0.12-0.06-0.12-0.12
	c0-0.12,0.18-0.12,0.49-0.25c0.68-0.25,0.92-0.49,1.04-0.49c0,0,0.12,0.06,0.12,0.19c0,0.12-0.12,1.41-0.12,4.65
	c0,1.1,0,2.14,0.06,3.12c0.74,0.18,1.53,0.18,2.46,0.18c1.04,0,1.53-0.06,1.59-0.06c0.06,0,0.06,0,0.06,0.06
	c0,0.55-1.29,0.61-3.98,0.61h-1.22C59.27,27.32,59.27,25.67,59.27,23.09"/>
</svg>
