<?xml version="1.0" encoding="utf-8"?>
<!-- Generator: Adobe Illustrator 25.4.1, SVG Export Plug-In . SVG Version: 6.00 Build 0)  -->
<svg version="1.1" id="Layer_1" xmlns="http://www.w3.org/2000/svg" xmlns:xlink="http://www.w3.org/1999/xlink" x="0px" y="0px"
	 viewBox="0 0 281.29 80" style="enable-background:new 0 0 281.29 80;" xml:space="preserve">
<style type="text/css">
	.st0{fill:#C41230;}
	
		.st1{clip-path:url(#SVGID_00000131369314616488396310000016661722322279768999_);fill:url(#XMLID_00000025419717452467137050000002991976205996187025_);}
</style>
<g>
	<path id="XMLID_99_" class="st0" d="M122.43,41.7l-6.47,2.02c-0.16-1.29-0.57-2.27-1.21-2.83c-0.65-0.65-1.54-0.97-2.67-0.97
		c-0.81,0-1.62,0.24-2.27,0.73c-0.65,0.49-1.13,1.05-1.38,1.78c-0.24,0.81,0.08,1.62,0.81,2.18c0.73,0.65,1.78,1.21,2.99,1.78
		c1.21,0.57,2.43,1.21,3.56,1.94c1.21,0.73,2.1,1.62,2.67,2.75c0.65,1.13,0.73,2.43,0.32,4.13c-0.81,2.75-2.43,4.94-4.69,6.31
		c-2.27,1.46-4.94,2.18-8.01,2.18c-1.46,0-2.75-0.16-4.05-0.49c-1.21-0.4-2.35-1.13-3.24-2.27c-0.89-1.13-1.62-2.91-2.1-5.18
		l6.88-1.62c-0.08,1.29,0.24,2.35,0.89,3.16c0.65,0.81,1.7,1.13,3.08,1.21c1.05,0,2.02-0.24,2.75-0.65c0.73-0.4,1.21-1.05,1.46-1.78
		c0.24-1.05,0-1.94-0.73-2.59c-0.73-0.65-1.7-1.21-2.99-1.78c-1.21-0.57-2.43-1.13-3.64-1.86c-1.21-0.73-2.1-1.62-2.67-2.75
		c-0.65-1.13-0.65-2.67-0.16-4.53c0.57-1.78,1.38-3.24,2.67-4.37c1.21-1.13,2.67-2.02,4.29-2.59c1.62-0.57,3.32-0.89,5.02-0.89
		c2.67,0,4.77,0.65,6.23,1.94C121.3,37.9,122.11,39.6,122.43,41.7 M134.57,41.78l-4.37,15.38c0.97,1.38,2.18,2.02,3.72,2.02
		c0.97,0.08,1.94-0.32,2.83-1.29c0.89-0.89,1.78-2.75,2.59-5.42l1.7-5.99c0.73-2.75,0.89-4.53,0.49-5.42
		c-0.4-0.89-1.13-1.29-2.1-1.29C137.89,39.76,136.27,40.49,134.57,41.78z M129.15,35.47h6.64l-0.97,3.4
		c1.05-0.89,2.35-1.78,3.97-2.59c1.62-0.81,3.24-1.21,4.94-1.29c2.75,0,4.53,0.97,5.18,2.83c0.73,1.86,0.57,4.61-0.49,8.25
		l-1.94,6.8c-0.97,3.64-2.43,6.39-4.21,8.25s-4.05,2.83-6.8,2.83c-0.97,0-1.86-0.24-2.83-0.73c-0.97-0.49-2.1-1.29-3.48-2.43
		l-4.45,15.62h-7.2L129.15,35.47z M191.46,45.1h-7.12l0.32-1.21c0.32-1.05,0.16-1.94-0.49-2.43c-0.57-0.57-1.54-0.81-2.83-0.81
		c-1.29,0-2.35,0.24-3.24,0.81s-1.54,1.38-1.86,2.43l-3.16,11.17c-0.32,1.05-0.16,1.94,0.49,2.43c0.57,0.57,1.54,0.81,2.83,0.81
		c1.29,0,2.35-0.24,3.32-0.81c0.89-0.57,1.54-1.38,1.86-2.43l0.49-1.78h7.2c-1.13,3.8-2.83,6.47-5.34,8.17
		c-2.43,1.7-5.5,2.51-9.06,2.51c-3.64,0-6.15-0.81-7.69-2.51c-1.54-1.7-1.7-4.37-0.73-8.09l2.18-7.85c1.05-3.72,2.83-6.39,5.34-8.09
		c2.43-1.7,5.5-2.51,9.06-2.51c3.56,0,6.07,0.81,7.53,2.43C192.03,39.03,192.35,41.62,191.46,45.1z M217.03,51.01h-15.62l-1.05,3.72
		c-0.32,1.38-0.24,2.43,0.32,3.08c0.57,0.65,1.54,0.97,2.75,0.97c1.46,0,2.67-0.4,3.56-1.13c0.89-0.73,1.46-1.7,1.78-2.75h7.12
		c-0.97,2.91-2.67,5.18-5.02,6.72c-2.35,1.62-5.34,2.43-8.98,2.43c-3.48,0-5.99-0.89-7.53-2.67c-1.54-1.78-1.94-4.21-1.05-7.28
		l2.59-9.14c0.89-3.08,2.67-5.5,5.18-7.28c2.51-1.78,5.58-2.67,8.98-2.67c3.4,0.08,5.83,0.89,7.45,2.59
		c1.62,1.7,2.02,4.05,1.21,6.88L217.03,51.01z M202.87,45.75h8.42l0.4-1.54c0.32-1.21,0.32-2.27-0.16-2.91
		c-0.49-0.73-1.46-1.05-2.91-1.05c-1.46,0-2.59,0.4-3.48,1.05c-0.89,0.73-1.54,1.7-1.86,2.91L202.87,45.75z M259.84,51.01h-15.62
		l-1.05,3.72c-0.4,1.38-0.24,2.43,0.32,3.08c0.57,0.65,1.54,0.97,2.75,0.97c1.54,0,2.67-0.4,3.56-1.13c0.89-0.73,1.46-1.7,1.78-2.75
		h7.2c-0.97,2.91-2.67,5.18-5.02,6.72c-2.35,1.62-5.34,2.43-8.98,2.43c-3.48,0-5.91-0.89-7.53-2.67c-1.54-1.78-1.86-4.21-1.05-7.28
		l2.59-9.14c0.89-3.08,2.67-5.5,5.18-7.28c2.51-1.78,5.58-2.67,8.98-2.67c3.4,0.08,5.83,0.89,7.45,2.59
		c1.62,1.7,2.02,4.05,1.21,6.88L259.84,51.01z M245.76,45.75h8.42l0.4-1.54c0.32-1.21,0.32-2.27-0.16-2.91
		c-0.49-0.73-1.46-1.05-2.91-1.05c-1.46,0-2.59,0.4-3.48,1.05c-0.89,0.73-1.54,1.7-1.86,2.91L245.76,45.75z M268.02,41.94h-3.72
		l1.46-5.26h3.72l2.75-9.71h7.2l-2.75,9.71h4.61l-1.46,5.26h-4.61l-4.05,14.32c-0.16,0.73-0.08,1.21,0.49,1.54
		c0.49,0.32,1.21,0.49,2.18,0.49c0.49,0,0.97,0,1.46-0.08l-1.54,5.42c-1.46,0.16-2.83,0.24-4.21,0.24c-2.35,0-4.13-0.4-5.26-1.29
		s-1.46-2.27-0.89-4.29L268.02,41.94z M223.02,54.89l5.1-17.97l2.83-9.95h7.2l-2.83,9.95l-8.66,29.86
		c-1.05,3.64-2.83,6.31-5.26,8.01s-5.5,2.51-9.06,2.51c-3.64,0-6.15-0.81-7.69-2.51c-1.46-1.7-1.7-4.37-0.73-8.09h7.2l-0.57,1.7
		c-0.24,1.05-0.16,1.94,0.49,2.43c0.57,0.57,1.54,0.81,2.83,0.81s2.35-0.24,3.32-0.81c0.89-0.57,1.54-1.38,1.86-2.43l0.65-2.27
		L223.02,54.89z M157.47,35.47h7.2l-7.93,28h-7.2L157.47,35.47z M165.4,32.88h-7.12l1.62-5.91h7.2L165.4,32.88z"/>
	<g id="XMLID_121_">
		<g>
			<defs>
				<path id="SVGID_1_" d="M76.47,50.52c0.32-1.62,2.1-3.4,3.97-4.05c1.86-0.57,3.08,0.24,2.67,1.86c-0.32,1.62-2.1,3.4-3.97,3.97
					C77.36,52.95,76.14,52.14,76.47,50.52 M31.72,9.98C33.9,4.07,40.7-0.38,46.77,0.03c5.83,0.4,8.58,5.26,6.31,10.68
					c-2.18,5.42-8.42,9.71-14.24,9.63C32.85,20.34,29.53,15.72,31.72,9.98 M49.44,19.85c1.7-4.29,6.64-7.61,10.92-7.53
					c4.13,0.16,5.99,3.56,4.29,7.61c-1.7,3.97-6.39,7.28-10.52,7.36C49.92,27.38,47.74,24.06,49.44,19.85 M64.41,28.43
					c1.38-3.16,4.94-5.66,8.01-5.66c2.99,0,4.29,2.43,2.91,5.42c-1.38,2.99-4.77,5.5-7.77,5.58C64.49,33.85,63.03,31.51,64.41,28.43
					 M74.85,34.42c1.05-2.35,3.8-4.29,5.99-4.37c2.18-0.08,3.08,1.7,2.02,4.05c-1.05,2.27-3.64,4.21-5.91,4.29
					C74.85,38.46,73.8,36.68,74.85,34.42 M82.54,38.79c0.81-1.78,2.91-3.32,4.61-3.4c1.7-0.08,2.35,1.29,1.46,2.99
					c-0.81,1.7-2.83,3.24-4.53,3.32C82.38,41.86,81.65,40.49,82.54,38.79 M0.48,77.15c-1.86-3.64,1.86-9.39,8.25-12.62
					c6.23-3.16,12.46-2.51,13.92,1.21c1.38,3.64-2.18,8.9-8.01,12.06C8.65,80.95,2.34,80.71,0.48,77.15 M25.16,71.81
					c-1.13-2.83,1.78-7.12,6.39-9.47c4.53-2.35,8.9-1.86,9.71,0.97c0.89,2.75-1.94,6.88-6.23,9.14
					C30.66,74.8,26.21,74.56,25.16,71.81 M46.61,67.19c-0.65-2.18,1.62-5.42,4.94-7.2c3.32-1.78,6.39-1.38,6.88,0.81
					c0.49,2.1-1.62,5.26-4.86,6.96C50.33,69.62,47.17,69.38,46.61,67.19 M62.06,63.96c-0.4-1.7,1.38-4.13,3.8-5.5
					c2.51-1.38,4.69-1.05,5.02,0.65c0.32,1.62-1.38,4.05-3.8,5.42C64.73,65.82,62.47,65.57,62.06,63.96 M73.55,61.53
					c-0.24-1.29,1.13-3.24,2.99-4.29c1.86-1.05,3.56-0.81,3.72,0.49c0.16,1.29-1.13,3.16-2.99,4.21
					C75.5,62.98,73.8,62.82,73.55,61.53 M10.43,44.29c0.16-5.18,5.83-10.76,12.54-12.38c6.47-1.54,11.25,1.29,10.84,6.23
					c-0.4,4.86-5.66,10.03-11.9,11.81C15.53,51.74,10.35,49.31,10.43,44.29 M33.25,46.31c0.32-3.8,4.53-7.93,9.23-9.23
					c4.61-1.21,7.93,0.81,7.45,4.53c-0.49,3.64-4.37,7.53-8.9,8.9C36.49,51.9,32.93,50.04,33.25,46.31 M52.68,48.18
					c0.4-2.83,3.48-5.91,6.88-6.88c3.32-0.97,5.58,0.57,5.18,3.32c-0.49,2.67-3.4,5.66-6.72,6.72
					C54.7,52.38,52.27,51.01,52.68,48.18 M66.43,49.55c0.4-2.1,2.75-4.45,5.18-5.26c2.51-0.73,4.13,0.32,3.72,2.43
					c-0.4,2.1-2.67,4.37-5.1,5.1C67.73,52.71,66.03,51.66,66.43,49.55"/>
			</defs>
			<clipPath id="SVGID_00000028323922615037667770000009756321974925620918_">
				<use xlink:href="#SVGID_1_"  style="overflow:visible;"/>
			</clipPath>
			
				<linearGradient id="XMLID_00000159454277873240601640000010203447772004707775_" gradientUnits="userSpaceOnUse" x1="1.982" y1="79.2377" x2="2.696" y2="79.2377" gradientTransform="matrix(-91.844 -37.107 -37.107 91.844 3204.0796 -7148.4336)">
				<stop  offset="0" style="stop-color:#FFDD00"/>
				<stop  offset="1" style="stop-color:#F58220"/>
			</linearGradient>
			
				<polygon id="XMLID_122_" style="clip-path:url(#SVGID_00000028323922615037667770000009756321974925620918_);fill:url(#XMLID_00000159454277873240601640000010203447772004707775_);" points="
				117.66,11.03 11.4,-31.94 -29.62,69.54 76.71,112.51 			"/>
		</g>
	</g>
</g>
</svg>
