<?xml version="1.0" encoding="utf-8"?>
<!-- Generator: Adobe Illustrator 25.4.1, SVG Export Plug-In . SVG Version: 6.00 Build 0)  -->
<svg version="1.1" id="Layer_1" xmlns="http://www.w3.org/2000/svg" xmlns:xlink="http://www.w3.org/1999/xlink" x="0px" y="0px"
	 viewBox="0 0 80 80" style="enable-background:new 0 0 80 80;" xml:space="preserve">
<style type="text/css">
	.st0{fill:#FADF06;}
</style>
<path id="path8230" class="st0" d="M40,0C17.9,0,0,17.9,0,40c0,10.6,4.1,20.2,10.8,27.3C45.9,65.9,49,59.8,49,59.8
	c6.7-6.2-10.4-11.2-10.4-11.2c-18.3-4.3-30.4-12-30.4-12C-4,29.4,8.4,21.1,8.4,21.1c19.4-8.9,36.5-7.7,36.5-7.7l-3.3-2.6l3.7-0.2v-1
	l1.6,0.2l1,1.2l5.7-0.2l-3.1,2.4L49,16.2l-2.4-1.8c-21,3.7-25.9,8.2-25.9,8.2C11.1,32.1,29.5,37,29.5,37c12.2,2.8,32.4,11,32.4,11
	c12.7,5.7,3.5,14.7,3.5,14.7C59,70.2,42.3,76.9,34.8,79.7c1.7,0.2,3.4,0.3,5.2,0.3c22.1,0,40-17.9,40-40C80,17.9,62.1,0,40,0"/>
</svg>
