<?xml version="1.0" encoding="utf-8"?>
<!-- Generator: Adobe Illustrator 25.4.1, SVG Export Plug-In . SVG Version: 6.00 Build 0)  -->
<svg version="1.1" id="Layer_1" xmlns="http://www.w3.org/2000/svg" xmlns:xlink="http://www.w3.org/1999/xlink" x="0px" y="0px"
	 viewBox="0 0 350.9 80" style="enable-background:new 0 0 350.9 80;" xml:space="preserve">
<style type="text/css">
	.st0{fill:#0094D3;}
	.st1{fill:#FADF06;}
</style>
<g id="g8160">
	<g id="g8166" transform="translate(1056.0549,727.24)">
		<path id="path8168" class="st0" d="M-955.6-675.5c0.4,0.6,0.8,1.1,1.4,1.4c0.6,0.4,1.3,0.6,2,0.8c0.7,0.1,1.5,0.2,2.3,0.2
			c0.6,0,1.3,0,1.9-0.1c0.7-0.1,1.3-0.3,1.9-0.5c0.6-0.2,1-0.6,1.4-1.1s0.6-1.1,0.6-1.8c0-1-0.4-1.8-1.1-2.3
			c-0.8-0.5-1.7-0.9-2.9-1.3c-1.1-0.3-2.4-0.6-3.7-0.9c-1.3-0.3-2.6-0.6-3.7-1.1c-1.1-0.5-2.1-1.1-2.9-2c-0.8-0.9-1.1-2-1.1-3.6
			c0-1.2,0.3-2.2,0.8-3.1c0.5-0.9,1.2-1.6,2.1-2.1c0.8-0.5,1.8-0.9,2.8-1.2c1.1-0.3,2.1-0.4,3.1-0.4c1.3,0,2.6,0.1,3.7,0.3
			c1.1,0.2,2.1,0.6,3,1.2c0.9,0.6,1.6,1.3,2.1,2.3c0.5,1,0.8,2.2,0.9,3.6h-3.9c-0.1-0.8-0.3-1.4-0.6-1.9c-0.3-0.5-0.8-0.9-1.3-1.2
			c-0.5-0.3-1.1-0.5-1.7-0.7c-0.6-0.1-1.3-0.2-1.9-0.2c-0.6,0-1.2,0-1.8,0.1c-0.6,0.1-1.1,0.3-1.6,0.5c-0.5,0.2-0.9,0.5-1.2,0.9
			c-0.3,0.4-0.5,0.9-0.5,1.5c0,0.7,0.2,1.2,0.7,1.7c0.5,0.4,1.1,0.8,1.8,1.1c0.7,0.3,1.6,0.5,2.5,0.7c0.9,0.2,1.8,0.4,2.7,0.6
			c1,0.2,1.9,0.5,2.9,0.8c0.9,0.3,1.8,0.7,2.5,1.2c0.7,0.5,1.3,1.1,1.7,1.9c0.4,0.8,0.7,1.7,0.7,2.8c0,1.4-0.3,2.6-0.9,3.6
			c-0.6,0.9-1.4,1.7-2.3,2.3c-1,0.6-2,1-3.3,1.2c-1.2,0.2-2.4,0.3-3.6,0.3c-1.3,0-2.6-0.1-3.8-0.4c-1.2-0.3-2.2-0.7-3.2-1.4
			c-0.9-0.6-1.6-1.4-2.2-2.5c-0.5-1-0.9-2.3-0.9-3.7h3.9C-956.2-676.9-956-676.1-955.6-675.5"/>
	</g>
	<g id="g8170" transform="translate(1065.2451,738.241)">
		<path id="path8172" class="st0" d="M-941.9-714v12.5h0.1c0.3-0.7,0.7-1.4,1.3-1.9c0.6-0.5,1.2-0.9,1.9-1.2
			c0.7-0.3,1.4-0.6,2.2-0.7c0.7-0.2,1.5-0.2,2.2-0.2c1.6,0,2.9,0.2,3.9,0.6c1,0.4,1.9,1,2.5,1.8c0.6,0.8,1.1,1.7,1.4,2.7
			c0.3,1.1,0.4,2.2,0.4,3.5v15.6h-3.9v-16c0-1.5-0.4-2.6-1.3-3.5c-0.9-0.9-2-1.3-3.5-1.3c-1.2,0-2.2,0.2-3.1,0.5
			c-0.9,0.4-1.6,0.9-2.2,1.6c-0.6,0.7-1,1.5-1.3,2.4c-0.3,0.9-0.4,1.9-0.4,3v13.4h-3.9V-714H-941.9z"/>
	</g>
	<g id="g8174" transform="translate(1080.8313,724.9136)">
		<path id="path8176" class="st0" d="M-918.6-667.4c-1,0-1.8-0.3-2.4-0.8c-0.6-0.6-0.9-1.5-0.9-2.8c-1.1,1.3-2.3,2.2-3.7,2.8
			c-1.4,0.6-3,0.8-4.6,0.8c-1.1,0-2.1-0.1-3-0.3c-0.9-0.2-1.8-0.6-2.5-1.1c-0.7-0.5-1.3-1.2-1.7-2.1c-0.4-0.8-0.6-1.9-0.6-3
			c0-1.3,0.2-2.4,0.7-3.3c0.5-0.9,1.1-1.6,1.8-2.1c0.7-0.5,1.6-0.9,2.6-1.2c1-0.3,1.9-0.5,3-0.7c1.1-0.2,2.1-0.4,3-0.5
			c1-0.1,1.8-0.3,2.5-0.5c0.7-0.2,1.3-0.5,1.7-0.9c0.4-0.4,0.6-0.9,0.6-1.7c0-0.9-0.2-1.5-0.5-2.1c-0.3-0.5-0.7-0.9-1.2-1.2
			c-0.5-0.3-1.1-0.5-1.7-0.6c-0.6-0.1-1.2-0.1-1.9-0.1c-1.7,0-3,0.3-4.1,0.9c-1.1,0.6-1.7,1.8-1.8,3.5h-3.9c0.1-1.5,0.4-2.7,0.9-3.7
			c0.6-1,1.3-1.8,2.2-2.5c0.9-0.6,2-1.1,3.2-1.4c1.2-0.3,2.4-0.4,3.8-0.4c1.1,0,2.1,0.1,3.2,0.2c1.1,0.2,2,0.5,2.9,0.9
			c0.9,0.5,1.5,1.1,2.1,2c0.5,0.9,0.8,2,0.8,3.3v12.2c0,0.9,0.1,1.6,0.2,2c0.1,0.4,0.5,0.6,1.1,0.6c0.3,0,0.7-0.1,1.2-0.2v3
			C-916.5-667.6-917.4-667.4-918.6-667.4 M-924.1-679.3c-0.8,0.2-1.6,0.3-2.5,0.4c-0.9,0.1-1.7,0.2-2.6,0.4
			c-0.9,0.1-1.7,0.4-2.4,0.7c-0.7,0.3-1.3,0.7-1.7,1.3c-0.4,0.6-0.7,1.3-0.7,2.3c0,0.6,0.1,1.2,0.4,1.6c0.3,0.4,0.6,0.8,1,1.1
			c0.4,0.3,0.9,0.5,1.5,0.6c0.6,0.1,1.1,0.2,1.7,0.2c1.3,0,2.4-0.2,3.3-0.5c0.9-0.3,1.7-0.8,2.2-1.3c0.6-0.5,1-1.1,1.3-1.7
			c0.3-0.6,0.4-1.2,0.4-1.8v-4C-922.6-679.8-923.3-679.5-924.1-679.3"/>
	</g>
	<g id="g8178" transform="translate(1084.4504,734.6194)">
		<path id="path8180" class="st0" d="M-913.2-701.3v5h0.1c0.9-1.9,2.1-3.3,3.5-4.3c1.4-0.9,3.1-1.3,5.2-1.3v4.1
			c-1.6,0-2.9,0.2-4,0.6c-1.1,0.4-2,1.1-2.7,1.9c-0.7,0.8-1.2,1.8-1.5,3c-0.3,1.2-0.5,2.5-0.5,4.1v10.5h-3.9v-23.7H-913.2z"/>
	</g>
	<g id="g8182" transform="translate(1090.4055,734.6194)">
		<path id="path8184" class="st0" d="M-904.3-701.3v3.2h0.1c0.6-1.3,1.7-2.3,3-2.9c1.4-0.6,2.9-0.9,4.5-0.9c1.8,0,3.4,0.3,4.8,1
			c1.4,0.7,2.5,1.6,3.4,2.7c0.9,1.1,1.6,2.5,2,4c0.5,1.5,0.7,3.1,0.7,4.8c0,1.7-0.2,3.3-0.7,4.8c-0.4,1.5-1.1,2.8-2,3.9
			c-0.9,1.1-2,2-3.4,2.6c-1.4,0.6-2.9,1-4.7,1c-0.6,0-1.2-0.1-1.9-0.2c-0.7-0.1-1.4-0.3-2.1-0.6c-0.7-0.3-1.4-0.6-2-1.1
			c-0.6-0.5-1.2-1.1-1.6-1.8h-0.1v12.2h-3.9v-32.7H-904.3z M-890.3-692.9c-0.3-1.1-0.7-2-1.3-2.8c-0.6-0.8-1.4-1.5-2.3-2
			c-0.9-0.5-2-0.7-3.3-0.7c-1.3,0-2.4,0.3-3.3,0.8c-0.9,0.5-1.7,1.2-2.2,2c-0.6,0.8-1,1.8-1.3,2.9c-0.3,1.1-0.4,2.2-0.4,3.3
			c0,1.2,0.1,2.3,0.4,3.4c0.3,1.1,0.7,2,1.3,2.9c0.6,0.8,1.4,1.5,2.3,2c0.9,0.5,2.1,0.8,3.4,0.8c1.3,0,2.5-0.3,3.4-0.8
			c0.9-0.5,1.6-1.2,2.2-2.1c0.6-0.9,0.9-1.8,1.2-2.9c0.2-1.1,0.4-2.2,0.4-3.4C-889.9-690.8-890-691.8-890.3-692.9"/>
	</g>
	<g id="g8186" transform="translate(1110.6228,724.9136)">
		<path id="path8188" class="st0" d="M-874.1-667.4c-1,0-1.8-0.3-2.4-0.8c-0.6-0.6-0.9-1.5-0.9-2.8c-1.1,1.3-2.3,2.2-3.7,2.8
			c-1.4,0.6-3,0.8-4.6,0.8c-1.1,0-2.1-0.1-3-0.3c-0.9-0.2-1.8-0.6-2.5-1.1c-0.7-0.5-1.3-1.2-1.7-2.1c-0.4-0.8-0.6-1.9-0.6-3
			c0-1.3,0.2-2.4,0.7-3.3c0.5-0.9,1.1-1.6,1.8-2.1c0.7-0.5,1.6-0.9,2.6-1.2c1-0.3,1.9-0.5,3-0.7c1.1-0.2,2.1-0.4,3-0.5
			c1-0.1,1.8-0.3,2.5-0.5c0.7-0.2,1.3-0.5,1.7-0.9c0.4-0.4,0.6-0.9,0.6-1.7c0-0.9-0.2-1.5-0.5-2.1c-0.3-0.5-0.7-0.9-1.2-1.2
			c-0.5-0.3-1.1-0.5-1.7-0.6c-0.6-0.1-1.2-0.1-1.9-0.1c-1.7,0-3,0.3-4.1,0.9c-1.1,0.6-1.7,1.8-1.8,3.5h-3.9c0.1-1.5,0.4-2.7,0.9-3.7
			c0.6-1,1.3-1.8,2.2-2.5c0.9-0.6,2-1.1,3.2-1.4c1.2-0.3,2.4-0.4,3.8-0.4c1.1,0,2.1,0.1,3.2,0.2c1.1,0.2,2,0.5,2.9,0.9
			c0.9,0.5,1.5,1.1,2.1,2c0.5,0.9,0.8,2,0.8,3.3v12.2c0,0.9,0.1,1.6,0.2,2s0.5,0.6,1.1,0.6c0.3,0,0.7-0.1,1.2-0.2v3
			C-872-667.6-873-667.4-874.1-667.4 M-879.6-679.3c-0.8,0.2-1.6,0.3-2.5,0.4c-0.9,0.1-1.7,0.2-2.6,0.4c-0.9,0.1-1.7,0.4-2.4,0.7
			c-0.7,0.3-1.3,0.7-1.7,1.3c-0.4,0.6-0.7,1.3-0.7,2.3c0,0.6,0.1,1.2,0.4,1.6c0.3,0.4,0.6,0.8,1,1.1c0.4,0.3,0.9,0.5,1.5,0.6
			c0.6,0.1,1.1,0.2,1.7,0.2c1.3,0,2.4-0.2,3.3-0.5c0.9-0.3,1.7-0.8,2.2-1.3c0.6-0.5,1-1.1,1.3-1.7c0.3-0.6,0.4-1.2,0.4-1.8v-4
			C-878.2-679.8-878.8-679.5-879.6-679.3"/>
	</g>
</g>
<path id="path8190" class="st0" d="M242.2,24.3h3.9v4.8h-3.9V24.3z M246.1,57h-3.9V33.3h3.9V57z"/>
<g id="g8194">
	<g id="g8200" transform="translate(1117.9565,734.6194)">
		<path id="path8202" class="st0" d="M-863.2-701.3v5h0.1c0.9-1.9,2.1-3.3,3.5-4.3c1.4-0.9,3.1-1.3,5.2-1.3v4.1
			c-1.6,0-2.9,0.2-4,0.6c-1.1,0.4-2,1.1-2.7,1.9c-0.7,0.8-1.2,1.8-1.5,3c-0.3,1.2-0.5,2.5-0.5,4.1v10.5h-3.9v-23.7H-863.2z"/>
	</g>
</g>
<path id="path8204" class="st0" d="M269.7,57h-3.9V24.3h3.9V57z"/>
<path id="path8206" class="st0" d="M275.1,24.3h3.9v4.8h-3.9V24.3z M278.9,57h-3.9V33.3h3.9V57z"/>
<path id="path8218" class="st0" d="M287.7,33.3v3.8h0.1c1.6-2.9,4.2-4.3,7.7-4.3c1.6,0,2.9,0.2,3.9,0.6c1,0.4,1.9,1,2.5,1.8
	c0.6,0.8,1.1,1.7,1.4,2.7c0.3,1.1,0.4,2.2,0.4,3.5V57h-3.9V41c0-1.5-0.4-2.6-1.3-3.5c-0.9-0.9-2-1.3-3.5-1.3c-1.2,0-2.2,0.2-3.1,0.6
	c-0.9,0.4-1.6,0.9-2.2,1.6c-0.6,0.7-1,1.5-1.3,2.4c-0.3,0.9-0.4,1.9-0.4,3V57h-3.9V33.3H287.7z"/>
<path id="path8222" class="st0" d="M325.4,55.5c-1.8,1.3-4,2-6.7,2c-1.9,0-3.5-0.3-4.9-0.9c-1.4-0.6-2.6-1.5-3.5-2.6
	c-0.9-1.1-1.7-2.4-2.1-3.9c-0.5-1.5-0.7-3.2-0.8-5c0-1.8,0.3-3.5,0.8-5c0.5-1.5,1.3-2.8,2.3-3.9c1-1.1,2.2-2,3.5-2.6
	c1.4-0.6,2.9-0.9,4.5-0.9c2.1,0,3.9,0.4,5.2,1.3c1.4,0.9,2.5,2,3.3,3.3c0.8,1.3,1.4,2.8,1.7,4.4c0.3,1.6,0.4,3.1,0.4,4.5h-17.7
	c0,1,0.1,2,0.4,3c0.3,0.9,0.7,1.8,1.3,2.5c0.6,0.7,1.4,1.3,2.3,1.7c0.9,0.4,2.1,0.6,3.3,0.6c1.6,0,3-0.4,4.1-1.1
	c1.1-0.8,1.8-1.9,2.1-3.5h3.8C328.3,52.1,327.2,54.1,325.4,55.5 M324.5,40.3c-0.3-0.8-0.8-1.5-1.4-2.1c-0.6-0.6-1.3-1.1-2.1-1.4
	c-0.8-0.3-1.7-0.5-2.7-0.5c-1,0-1.9,0.2-2.7,0.5c-0.8,0.4-1.5,0.8-2.1,1.4c-0.6,0.6-1,1.3-1.4,2.1c-0.3,0.8-0.5,1.7-0.6,2.6h13.6
	C325,42,324.8,41.1,324.5,40.3"/>
<path id="path8226" class="st0" d="M335.3,51.7c0.4,0.6,0.8,1.1,1.4,1.4c0.6,0.4,1.3,0.6,2,0.8c0.8,0.1,1.5,0.2,2.3,0.2
	c0.6,0,1.3,0,1.9-0.1c0.7-0.1,1.3-0.3,1.9-0.5c0.6-0.2,1-0.6,1.4-1.1c0.4-0.5,0.5-1.1,0.5-1.8c0-1-0.4-1.8-1.1-2.3
	c-0.8-0.5-1.7-0.9-2.9-1.3c-1.1-0.3-2.4-0.6-3.7-0.9c-1.3-0.3-2.6-0.6-3.7-1.1c-1.1-0.5-2.1-1.1-2.9-2c-0.8-0.9-1.1-2-1.1-3.6
	c0-1.2,0.3-2.2,0.8-3.1c0.5-0.9,1.2-1.6,2.1-2.1c0.8-0.5,1.8-0.9,2.8-1.2c1.1-0.3,2.1-0.4,3.1-0.4c1.3,0,2.6,0.1,3.7,0.3
	c1.1,0.2,2.1,0.6,3,1.2c0.9,0.6,1.6,1.3,2.1,2.3c0.5,1,0.8,2.2,0.9,3.6H346c-0.1-0.8-0.3-1.4-0.6-1.9c-0.3-0.5-0.8-0.9-1.3-1.2
	c-0.5-0.3-1.1-0.5-1.7-0.7c-0.6-0.1-1.3-0.2-1.9-0.2c-0.6,0-1.2,0-1.8,0.1c-0.6,0.1-1.1,0.3-1.6,0.5c-0.5,0.2-0.9,0.5-1.2,0.9
	c-0.3,0.4-0.5,0.9-0.5,1.5c0,0.7,0.2,1.2,0.7,1.7c0.5,0.4,1.1,0.8,1.8,1.1c0.7,0.3,1.6,0.5,2.5,0.7c0.9,0.2,1.8,0.4,2.8,0.6
	c1,0.2,1.9,0.5,2.9,0.8c0.9,0.3,1.8,0.7,2.5,1.2c0.7,0.5,1.3,1.1,1.7,1.9c0.4,0.8,0.7,1.7,0.7,2.8c0,1.4-0.3,2.6-0.9,3.6
	c-0.6,0.9-1.4,1.7-2.3,2.3c-1,0.6-2,1-3.3,1.2c-1.2,0.2-2.4,0.3-3.6,0.3c-1.3,0-2.6-0.1-3.8-0.4c-1.2-0.3-2.2-0.7-3.2-1.4
	c-0.9-0.6-1.6-1.4-2.2-2.5c-0.5-1-0.9-2.3-0.9-3.7h3.9C334.7,50.4,334.9,51.1,335.3,51.7"/>
<path id="path8230" class="st1" d="M40,0C17.9,0,0,17.9,0,40c0,10.6,4.1,20.2,10.8,27.3C45.9,65.9,49,59.8,49,59.8
	c6.7-6.2-10.4-11.2-10.4-11.2c-18.3-4.3-30.4-12-30.4-12C-4,29.4,8.4,21.1,8.4,21.1c19.4-8.9,36.5-7.7,36.5-7.7l-3.3-2.6l3.7-0.2v-1
	l1.6,0.2l1,1.2l5.7-0.2l-3.1,2.4L49,16.2l-2.4-1.8c-21,3.7-25.9,8.2-25.9,8.2C11.1,32.1,29.5,37,29.5,37c12.2,2.8,32.4,11,32.4,11
	c12.7,5.7,3.5,14.7,3.5,14.7C59,70.2,42.3,76.9,34.8,79.7c1.7,0.2,3.4,0.3,5.2,0.3c22.1,0,40-17.9,40-40C80,17.9,62.1,0,40,0"/>
</svg>
