<?xml version="1.0" encoding="utf-8"?>
<!-- Generator: Adobe Illustrator 25.4.1, SVG Export Plug-In . SVG Version: 6.00 Build 0)  -->
<svg version="1.1" id="Layer_1" xmlns="http://www.w3.org/2000/svg" xmlns:xlink="http://www.w3.org/1999/xlink" x="0px" y="0px"
	 viewBox="0 0 1248.7 80" style="enable-background:new 0 0 1248.7 80;" xml:space="preserve">
<style type="text/css">
	.st0{fill:#0C0C11;}
	.st1{clip-path:url(#SVGID_00000002365694480749514530000003754364768923624124_);}
	.st2{fill:#4E5C73;}
	.st3{fill:#D4E4F1;}
	.st4{clip-path:url(#SVGID_00000157292629089815443590000010418448136446684858_);}
	.st5{clip-path:url(#SVGID_00000009552205424864312420000003641527591307551618_);}
	.st6{clip-path:url(#SVGID_00000156554159688214912740000004204726133899133605_);}
	.st7{clip-path:url(#SVGID_00000002357611935751127870000009834170354009650320_);}
	.st8{clip-path:url(#SVGID_00000163050863295165383900000004562913886109462683_);}
	.st9{clip-path:url(#SVGID_00000129197807443888144130000009327472780671180429_);}
	.st10{clip-path:url(#SVGID_00000026861776950918679140000015010235847032642746_);}
	.st11{clip-path:url(#SVGID_00000013178948926734615260000014204402692464583067_);}
	.st12{clip-path:url(#SVGID_00000054262290192420920600000010662287444670139833_);}
	.st13{clip-path:url(#SVGID_00000056413048297701073580000015445044224206259131_);}
	.st14{clip-path:url(#SVGID_00000049932017604929764970000015957007837723380921_);}
	.st15{clip-path:url(#SVGID_00000104671875658489795250000017687371532702047381_);}
</style>
<path class="st0" d="M84.9-885.5c-0.7-0.1-1.8,0-2.5,0c0.5-0.4,1.2-0.7,1.6-0.5c0.1,0,0.1,0,0.2,0.1
	C84.4-885.8,84.7-885.6,84.9-885.5z"/>
<g>
	<defs>
		<polygon id="SVGID_1_" points="120.8,2 93.9,2 141.9,78.3 168.7,78.3 		"/>
	</defs>
	<clipPath id="SVGID_00000172441532305399126210000012415293843310868148_">
		<use xlink:href="#SVGID_1_"  style="overflow:visible;"/>
	</clipPath>
	<g style="clip-path:url(#SVGID_00000172441532305399126210000012415293843310868148_);">
		<rect x="-11" y="40" class="st2" width="1274.7" height="41.3"/>
		<rect x="-11" y="33.7" class="st3" width="1274.7" height="3.4"/>
		<rect x="-11" y="28.5" class="st3" width="1274.7" height="2.7"/>
		<g>
			<rect x="-11" y="24.7" class="st3" width="1274.7" height="2.4"/>
			<rect x="-11" y="-0.7" class="st3" width="1274.7" height="24.8"/>
		</g>
	</g>
</g>
<g>
	<defs>
		<polygon id="SVGID_00000052104950369577179830000009086999154234557866_" points="962.6,2 935.8,2 983.6,78.3 1010.6,78.3 		"/>
	</defs>
	<clipPath id="SVGID_00000118397368740000256150000009536387243102877839_">
		<use xlink:href="#SVGID_00000052104950369577179830000009086999154234557866_"  style="overflow:visible;"/>
	</clipPath>
	<g style="clip-path:url(#SVGID_00000118397368740000256150000009536387243102877839_);">
		<rect x="-11" y="40" class="st2" width="1274.7" height="41.3"/>
		<rect x="-11" y="33.7" class="st3" width="1274.7" height="3.4"/>
		<rect x="-11" y="28.5" class="st3" width="1274.7" height="2.7"/>
		<g>
			<rect x="-11" y="24.7" class="st3" width="1274.7" height="2.4"/>
			<rect x="-11" y="-0.7" class="st3" width="1274.7" height="24.8"/>
		</g>
	</g>
</g>
<g>
	<defs>
		<polygon id="SVGID_00000078027589345874028460000009405174490062338487_" points="1106.1,2 1079.3,2 1127.1,78.3 1154.1,78.3 		
			"/>
	</defs>
	<clipPath id="SVGID_00000160891649632603084420000018011408553342298292_">
		<use xlink:href="#SVGID_00000078027589345874028460000009405174490062338487_"  style="overflow:visible;"/>
	</clipPath>
	<g style="clip-path:url(#SVGID_00000160891649632603084420000018011408553342298292_);">
		<rect x="-11" y="40" class="st2" width="1274.7" height="41.3"/>
		<rect x="-11" y="33.7" class="st3" width="1274.7" height="3.4"/>
		<rect x="-11" y="28.5" class="st3" width="1274.7" height="2.7"/>
		<g>
			<rect x="-11" y="24.7" class="st3" width="1274.7" height="2.4"/>
			<rect x="-11" y="-0.7" class="st3" width="1274.7" height="24.8"/>
		</g>
	</g>
</g>
<g>
	<defs>
		<polygon id="SVGID_00000099629127483064682970000010534804289139949696_" points="256.3,66.5 216.4,66.5 201.2,42.1 231.5,42.1 
			224.8,31.5 194.4,31.5 194.4,31.5 182.6,12.5 222.3,12.5 215.8,2 176,2 172.5,2 149.1,2 197,78.3 223.9,78.3 263.8,78.3 		"/>
	</defs>
	<clipPath id="SVGID_00000099633216442512412650000012134946766938662280_">
		<use xlink:href="#SVGID_00000099629127483064682970000010534804289139949696_"  style="overflow:visible;"/>
	</clipPath>
	<g style="clip-path:url(#SVGID_00000099633216442512412650000012134946766938662280_);">
		<rect x="-11" y="40" class="st2" width="1274.7" height="41.3"/>
		<rect x="-11" y="33.7" class="st3" width="1274.7" height="3.4"/>
		<rect x="-11" y="28.5" class="st3" width="1274.7" height="2.7"/>
		<g>
			<rect x="-11" y="24.7" class="st3" width="1274.7" height="2.4"/>
			<rect x="-11" y="-0.7" class="st3" width="1274.7" height="24.8"/>
		</g>
	</g>
</g>
<g>
	<defs>
		<polygon id="SVGID_00000155838281111481340820000013230139545686112680_" points="1064.8,78.3 1038,78.3 990,2 1013.4,2 1017,2 
			1056.7,2 1063.3,12.5 1023.5,12.5 1035.4,31.5 1035.4,31.5 1065.8,31.5 1072.4,42.1 1042.1,42.1 		"/>
	</defs>
	<clipPath id="SVGID_00000180362639244021708840000012209203299231183507_">
		<use xlink:href="#SVGID_00000155838281111481340820000013230139545686112680_"  style="overflow:visible;"/>
	</clipPath>
	<g style="clip-path:url(#SVGID_00000180362639244021708840000012209203299231183507_);">
		<rect x="-11" y="40" class="st2" width="1274.7" height="41.3"/>
		<rect x="-11" y="33.7" class="st3" width="1274.7" height="3.4"/>
		<rect x="-11" y="28.5" class="st3" width="1274.7" height="2.7"/>
		<g>
			<rect x="-11" y="24.7" class="st3" width="1274.7" height="2.4"/>
			<rect x="-11" y="-0.7" class="st3" width="1274.7" height="24.8"/>
		</g>
	</g>
</g>
<g>
	<defs>
		<path id="SVGID_00000010282805526819071860000003988221917535148690_" d="M726.4,26C709.9-3,674.9,2,657.2,2h-26.8l47.8,76.3h26.9
			L684,44.6c4,0,10.4,0,19.2,0C719.2,44.7,732.8,37.3,726.4,26z M687.4,31.5c-5.2,0-9,0-11.6,0l-12-19c1.7,0,3.7,0,6.2,0
			c13.6,0,19.2,3.9,23.4,8.1C697.3,24.5,698.3,31.5,687.4,31.5z"/>
	</defs>
	<clipPath id="SVGID_00000180346637692896954730000017196502434084286130_">
		<use xlink:href="#SVGID_00000010282805526819071860000003988221917535148690_"  style="overflow:visible;"/>
	</clipPath>
	<g style="clip-path:url(#SVGID_00000180346637692896954730000017196502434084286130_);">
		<rect x="-11" y="40" class="st2" width="1274.7" height="41.3"/>
		<rect x="-11" y="33.7" class="st3" width="1274.7" height="3.4"/>
		<rect x="-11" y="28.5" class="st3" width="1274.7" height="2.7"/>
		<g>
			<rect x="-11" y="24.7" class="st3" width="1274.7" height="2.4"/>
			<rect x="-11" y="-0.7" class="st3" width="1274.7" height="24.8"/>
		</g>
	</g>
</g>
<g>
	<defs>
		<path id="SVGID_00000163763609401954493190000010051612676728194178_" d="M343.5,78.3h28.4l-40.8-38c8.8-2.3,14.2-6.9,10-14.4
			C324.6-3,289.6,2,271.9,2h-26.8L293,78.3h26.8L297,42c2.6,0,6.4,0,11.3,0L343.5,78.3z M302,31.5c-5.2,0-9,0-11.6,0l-12-19
			c1.7,0,3.7,0,6.2,0c13.6,0,19.2,3.9,23.4,8.1C312.1,24.5,312.9,31.5,302,31.5z"/>
	</defs>
	<clipPath id="SVGID_00000072983799946829535110000007076943389290801343_">
		<use xlink:href="#SVGID_00000163763609401954493190000010051612676728194178_"  style="overflow:visible;"/>
	</clipPath>
	<g style="clip-path:url(#SVGID_00000072983799946829535110000007076943389290801343_);">
		<rect x="-11" y="40" class="st2" width="1274.7" height="41.3"/>
		<rect x="-11" y="33.7" class="st3" width="1274.7" height="3.4"/>
		<rect x="-11" y="28.5" class="st3" width="1274.7" height="2.7"/>
		<g>
			<rect x="-11" y="24.7" class="st3" width="1274.7" height="2.4"/>
			<rect x="-11" y="-0.7" class="st3" width="1274.7" height="24.8"/>
		</g>
	</g>
</g>
<g>
	<defs>
		<path id="SVGID_00000040565841401283486460000013140144821814727553_" d="M451.4,78.3h28.4l-40.8-38c8.8-2.3,14.2-6.9,10-14.4
			C432.5-3,397.5,2,379.8,2H353l47.8,76.3h26.8L404.9,42c2.6,0,6.4,0,11.3,0L451.4,78.3z M409.9,31.5c-5.2,0-9,0-11.6,0l-12-19
			c1.7,0,3.7,0,6.2,0c13.6,0,19.2,3.9,23.4,8.1C419.8,24.5,420.8,31.5,409.9,31.5z"/>
	</defs>
	<clipPath id="SVGID_00000101811360828210979080000014033279770268259757_">
		<use xlink:href="#SVGID_00000040565841401283486460000013140144821814727553_"  style="overflow:visible;"/>
	</clipPath>
	<g style="clip-path:url(#SVGID_00000101811360828210979080000014033279770268259757_);">
		<rect x="-11" y="40" class="st2" width="1274.7" height="41.3"/>
		<rect x="-11" y="33.7" class="st3" width="1274.7" height="3.4"/>
		<rect x="-11" y="28.5" class="st3" width="1274.7" height="2.7"/>
		<g>
			<rect x="-11" y="24.7" class="st3" width="1274.7" height="2.4"/>
			<rect x="-11" y="-0.7" class="st3" width="1274.7" height="24.8"/>
		</g>
	</g>
</g>
<g>
	<defs>
		<path id="SVGID_00000162320485171454312800000017088766985926618542_" d="M561.1,78.3h27.4L520.1,1.7h-41.8l23.4,76.7h22.8
			l-5.8-19h26.2L561.1,78.3z M515.7,49.5L504,10.9l32.6,38.6H515.7z"/>
	</defs>
	<clipPath id="SVGID_00000169516774578593078310000014020221761138780826_">
		<use xlink:href="#SVGID_00000162320485171454312800000017088766985926618542_"  style="overflow:visible;"/>
	</clipPath>
	<g style="clip-path:url(#SVGID_00000169516774578593078310000014020221761138780826_);">
		<rect x="-11" y="40" class="st2" width="1274.7" height="41.3"/>
		<rect x="-11" y="33.7" class="st3" width="1274.7" height="3.4"/>
		<rect x="-11" y="28.5" class="st3" width="1274.7" height="2.7"/>
		<g>
			<rect x="-11" y="24.7" class="st3" width="1274.7" height="2.4"/>
			<rect x="-11" y="-0.7" class="st3" width="1274.7" height="24.8"/>
		</g>
	</g>
</g>
<g>
	<defs>
		<path id="SVGID_00000067199464858114097490000016236313426578824382_" d="M829.1,78.3h27.4L788,1.7h-41.8l23.4,76.7h22.8l-5.8-19
			h26.2L829.1,78.3z M783.6,49.5l-11.8-38.6l32.6,38.6H783.6z"/>
	</defs>
	<clipPath id="SVGID_00000029754390571634060460000018256936006476644494_">
		<use xlink:href="#SVGID_00000067199464858114097490000016236313426578824382_"  style="overflow:visible;"/>
	</clipPath>
	<g style="clip-path:url(#SVGID_00000029754390571634060460000018256936006476644494_);">
		<rect x="-11" y="40" class="st2" width="1274.7" height="41.3"/>
		<rect x="-11" y="33.7" class="st3" width="1274.7" height="3.4"/>
		<rect x="-11" y="28.5" class="st3" width="1274.7" height="2.7"/>
		<g>
			<rect x="-11" y="24.7" class="st3" width="1274.7" height="2.4"/>
			<rect x="-11" y="-0.7" class="st3" width="1274.7" height="24.8"/>
		</g>
	</g>
</g>
<g>
	<defs>
		<path id="SVGID_00000059989903950498442610000016054839592995751847_" d="M921.3,23.3H895c0,0-6.2-13.6-20.8-13.6
			c-14.6,0,3.8,24.2,9.1,32.9s13.1,24,28.4,24s4.5-15.2,2.1-19.7h24.5c0,0,22.1,32.8-17.3,32.8c-43.1,0-62-25.8-71.1-41.7
			C840.7,22,827.5,0,864.5,0S911.7,9,921.3,23.3z"/>
	</defs>
	<clipPath id="SVGID_00000078764475707054500050000011607239746766158250_">
		<use xlink:href="#SVGID_00000059989903950498442610000016054839592995751847_"  style="overflow:visible;"/>
	</clipPath>
	<g style="clip-path:url(#SVGID_00000078764475707054500050000011607239746766158250_);">
		<rect x="-11" y="40" class="st2" width="1274.7" height="41.3"/>
		<rect x="-11" y="33.7" class="st3" width="1274.7" height="3.4"/>
		<rect x="-11" y="28.5" class="st3" width="1274.7" height="2.7"/>
		<g>
			<rect x="-11" y="24.7" class="st3" width="1274.7" height="2.4"/>
			<rect x="-11" y="-0.7" class="st3" width="1274.7" height="24.8"/>
		</g>
	</g>
</g>
<g>
	<defs>
		<path id="SVGID_00000071560837309487686820000009013241003862393775_" d="M1225.5,23.3h-26.4c0,0-6.2-13.6-20.8-13.6
			c-14.6,0,3.8,24.2,9.1,32.9c5.3,8.7,13.1,24,28.4,24c15.3,0,4.5-15.2,2.1-19.7h24.5c0,0,22.1,32.8-17.3,32.8
			c-43.1,0-62-25.8-71.1-41.7C1144.9,22,1131.8,0,1168.7,0C1205.4,0,1216,9,1225.5,23.3z"/>
	</defs>
	<clipPath id="SVGID_00000018231369203684635370000010762069943355936690_">
		<use xlink:href="#SVGID_00000071560837309487686820000009013241003862393775_"  style="overflow:visible;"/>
	</clipPath>
	<g style="clip-path:url(#SVGID_00000018231369203684635370000010762069943355936690_);">
		<rect x="-11" y="40" class="st2" width="1274.7" height="41.3"/>
		<rect x="-11" y="33.7" class="st3" width="1274.7" height="3.4"/>
		<rect x="-11" y="28.5" class="st3" width="1274.7" height="2.7"/>
		<g>
			<rect x="-11" y="24.7" class="st3" width="1274.7" height="2.4"/>
			<rect x="-11" y="-0.7" class="st3" width="1274.7" height="24.8"/>
		</g>
	</g>
</g>
<g>
	<defs>
		<path id="SVGID_00000080896419694861099330000002087908971283504564_" d="M105.1,64.2c0-22.4-53.4-35.3-69.8-42.4
			c-5.5-2.4-17.2-11.4-2.4-11.4s20.2,11,20.2,11h25.8C67.9,5.1,43.7,1.1,24.7,1.1S-1.1,6.9,0.1,12.7C4.8,34.5,51.8,44.6,66.6,50
			s19.7,19.1,3.2,19.1S48.7,55.3,48.7,55.3H23.5C31.9,71.3,54.6,80,73.2,80C87.3,80,105.1,76.8,105.1,64.2z"/>
	</defs>
	<clipPath id="SVGID_00000101085324099798491760000017072973389219887546_">
		<use xlink:href="#SVGID_00000080896419694861099330000002087908971283504564_"  style="overflow:visible;"/>
	</clipPath>
	<g style="clip-path:url(#SVGID_00000101085324099798491760000017072973389219887546_);">
		<rect x="-11" y="40" class="st2" width="1274.7" height="41.3"/>
		<rect x="-11" y="33.7" class="st3" width="1274.7" height="3.4"/>
		<rect x="-11" y="28.5" class="st3" width="1274.7" height="2.7"/>
		<g>
			<rect x="-11" y="24.7" class="st3" width="1274.7" height="2.4"/>
			<rect x="-11" y="-0.7" class="st3" width="1274.7" height="24.8"/>
		</g>
	</g>
</g>
</svg>
