<?xml version="1.0" encoding="utf-8"?>
<!-- Generator: Adobe Illustrator 25.4.1, SVG Export Plug-In . SVG Version: 6.00 Build 0)  -->
<svg version="1.1" xmlns="http://www.w3.org/2000/svg" xmlns:xlink="http://www.w3.org/1999/xlink" x="0px" y="0px"
	 viewBox="0 0 359.57 80" style="enable-background:new 0 0 359.57 80;" xml:space="preserve">
<style type="text/css">
	.st0{fill-rule:evenodd;clip-rule:evenodd;fill:#2D3A7C;}
	.st1{fill:none;}
	.st2{fill:#2D3A7C;}
	.st3{fill:#D4961A;}
	.st4{fill-rule:evenodd;clip-rule:evenodd;fill:#E62129;}
</style>
<g id="Layer_2">
</g>
<g id="Layer_1">
	<path class="st0" d="M116.75,44h86.85l0.01,0.03c0.41,0.71,0.99,1.35,1.72,1.87l0.04,0.03c0.11,0.07,0.2,0.13,0.3,0.2v0.05
		l0.4,0.17l0.05,0.03h0.01l0,0l0,0h0.01l0,0h0.01l0,0h0.01l0,0l0,0h0.01l0,0h0.01l0,0h0.01l0,0l0,0h0.01l0,0h0.01l0,0l0,0h0.01l0,0
		h0.01l0,0h0.01l0,0l0,0h0.01l0,0h0.01l0,0h0.01h0.01l0,0h0.01l0,0h0.01l0,0l0,0h0.01l0,0h0.01l0,0h0.01l0,0l0,0h0.01l0,0h0.01l0,0
		l0,0h0.01l0,0h0.01l0,0h0.01l0,0l0,0h0.01l0,0h0.01l0,0h0.01l0,0l0,0h0.01l0,0h0.01l0,0l0,0h0.01l0,0h0.01l0,0h0.01l0,0l0,0h0.01
		l0,0h0.01l0,0h0.01h0.01l0,0h0.01l0,0h0.01l0,0l0,0h0.01l0,0h0.01l0,0h0.01l0,0l0,0h0.01l0,0h0.01l0,0h0.01h0.01l0,0h0.01l0,0h0.01
		l0,0l0,0h-90.02v-2.67V44z M217.82,44h25.29v0.01l0,0v0.01v0.01v0.01v0.01l0,0v0.01v0.01v0.01v0.01v0.01v0.01l0,0v0.01v0.01l0,0
		v0.01v0.01l0,0v0.01v0.01l0,0v0.01v0.01l0,0v0.01v0.01l0,0v0.01v0.01l0,0v0.01v0.01l0,0v0.01v0.01l0,0v0.01v0.01l0,0v0.01v0.01
		v0.01l0,0v0.01v0.01l0,0v0.01v0.01l0,0v0.01v0.01l0,0v0.01v0.01l0,0v0.01v0.01l0,0v0.01v0.01l0,0v0.01v0.01l0,0v0.01v0.01l0,0v0.01
		v0.01l0,0v0.01v0.01l0,0v0.01v0.01v0.01l0,0v0.01v0.01l0,0v0.01v0.01l0,0v0.01v0.01l0,0v0.01v0.01l0,0v0.01v0.01
		c0.12,0.26,0.26,0.5,0.44,0.73v0.07l0.26,0.26c0.12,0.15,0.26,0.28,0.4,0.4l0.04,0.04l0.21,0.17l0.17,0.15h-30.7l0,0l0,0l0,0l0,0
		l0,0l0,0l0,0l0,0l0,0l0,0l0,0l0,0l0,0l0,0l0,0l0,0h0.01l0,0l0,0l0,0l0,0l0,0l0,0l0,0l0,0l0,0l0,0l0,0l0,0l0,0l0,0l0,0l0,0l0,0l0,0
		l0,0l0,0l0,0l0,0l0,0l0,0l0,0l0,0l0,0l0,0l0,0l0,0l0,0l0,0l0,0l0,0l0,0l0,0l0,0l0,0l0,0l0,0l0,0l0,0l0,0l0,0
		c1.19-0.49,2.23-1.23,3.1-2.22l0,0l0,0l0,0l0,0l0,0l0,0l0,0l0,0l0,0l0,0l0,0l0,0l0,0l0,0l0,0l0,0l0,0l0,0l0,0l0,0l0,0l0,0l0,0l0,0
		l0,0l0,0l0,0l0,0l0,0l0,0l0,0l0,0l0,0l0,0l0,0l0.01-0.01l0,0l0,0l0,0l0,0l0,0l0,0l0,0l0.01-0.01l0,0l0,0l0,0l0.03-0.03l0,0
		l0.03-0.04l0,0l0,0l0,0l0,0l0,0l0,0l0,0l0,0l0,0l0,0L217.82,44z M255.72,44h98.35v2.67H252.23h0.01l0.03-0.01l0.01-0.01l0.03-0.01
		l0.03-0.01l0.03-0.01l0.03-0.01l0.01-0.01l0.03-0.01h0.01l0.04-0.03l0,0l0.04-0.03l0,0l0.04-0.03l0,0l0.04-0.03h0.01l0.04-0.01
		l0.01-0.01l0.03-0.01l0.03-0.01l0.03-0.01l0.03-0.01l0.01-0.01l0.03-0.01l0.01-0.01l0.04-0.03h0.01l0.04-0.03l0,0l0.04-0.03l0,0
		l0.04-0.03h0.01l0.04-0.03l0.01-0.01l0.03-0.03l0.01-0.01l0.03-0.01l0.03-0.01l0.03-0.01l0.03-0.01l0.01-0.01l0.03-0.03l0.01-0.01
		l0.04-0.03l0,0l0.04-0.03l0,0l0.04-0.03l0,0l0.04-0.03l0.01-0.01l0.04-0.03l0.01-0.01l0.03-0.03l0.03-0.01l0.03-0.01l0.03-0.01
		l0.05-0.04l0.01-0.01l0.04-0.03h0.01l0.04-0.03l0,0l0.04-0.03l0,0l0.04-0.03h0.01l0.04-0.03l0.04-0.03l0,0l0.01-0.01l0.03-0.01
		l0.03-0.01l0.03-0.01l0.03-0.03l0.01-0.01l0.04-0.03l0.01-0.01l0.04-0.03l0,0l0.04-0.04l0,0l0.04-0.04l0,0l0.04-0.03l0.01-0.01
		l0.04-0.03l0.01-0.01l0.03-0.03l0.03-0.01l0.03-0.01l0.03-0.03l0.01-0.01l0.03-0.03l0.01-0.01l0.04-0.03h0.01l0.04-0.04l0,0
		l0.04-0.04l0,0l0.04-0.04h0.01l0.04-0.03l0.01-0.01l0.03-0.03l0.01-0.01l0.03-0.03l0.03-0.03l0.03-0.01l0.03-0.03l0.01-0.01
		l0.04-0.03l0.01-0.01l0.04-0.04l0,0l0.04-0.04l0.03-0.03l0.01-0.01l0.01-0.01l0.01-0.01l0.01-0.01l0,0l0,0l0.01-0.01l0.01-0.01
		l0.01-0.01l0.01-0.01l0,0l0.01-0.01l0.01-0.01l0.01-0.01l0.01-0.01l0,0l0.01-0.01l0.01-0.01l0.01-0.01l0.01-0.01l0,0l0,0l0.01-0.01
		l0.01-0.01l0.01-0.01l0.01-0.01l0,0l0.01-0.01l0.01-0.01l0.01-0.01l0.01-0.01l0,0l0.01-0.01l0.01-0.01l0.01-0.01l0.01-0.01
		l0.01-0.01l0,0l0.01-0.01l0.01-0.01l0.01-0.01l0.01-0.01l0,0l0.01-0.01l0.01-0.01l0.01-0.01l0.01-0.01l0,0l0,0l0.01-0.01l0.01-0.01
		l0.01-0.01l0.01-0.01l0,0l0.01-0.01l0.01-0.01l0.01-0.01l0.01-0.01l0,0l0.01-0.01l0.01-0.01l0.01-0.01l0.01-0.01l0,0l0,0l0.01-0.01
		l0.01-0.01L255.72,44l0.01-0.01l0,0l0.01-0.01l0.01-0.01l0.01-0.01l0.01-0.01l0,0l0.01-0.01l0.01-0.01l0.01-0.01L255.72,44z"/>
	<path class="st1" d="M245.79,41.15v3.67c-0.53-0.47-0.83-1.07-0.83-1.83C244.96,42.28,245.25,41.63,245.79,41.15z"/>
	<path class="st2" d="M336.87,34.11c-0.3,0.36-0.59,0.47-0.83,0.47c-0.17,0-0.34-0.05-0.41-0.17c-0.12-0.17-0.17-0.36-0.17-0.65
		c0-0.12,0-0.24,0.05-0.41c0-0.12,0.07-0.36,0.12-0.65l3.72-13.54c-1.65,0.3-3.25,0.54-4.79,0.71c-1.53,0.24-2.96,0.36-4.31,0.47
		l-0.05,0.95h0.36c0.59,0,1.02,0.12,1.31,0.29c0.29,0.18,0.41,0.47,0.41,0.83c0,0.17,0,0.47-0.12,0.88
		c-0.12,0.41-0.24,0.95-0.47,1.6l-0.01-0.03l-1.65,5.62c-0.29,0.94-0.53,1.83-0.65,2.6c-0.17,0.83-0.29,1.36-0.29,1.72
		c0,1.07,0.29,1.9,0.88,2.43c0.59,0.59,1.41,0.88,2.48,0.88c1.24,0,2.43-0.47,3.55-1.31c1.06-0.88,2.24-2.31,3.48-4.2l-1-0.71
		C337.75,33.04,337.22,33.75,336.87,34.11z"/>
	<path class="st2" d="M324.17,35.44c-0.65-0.65-1-1.6-1-2.84v-0.24l0.59-22.06h-3.26l-8.06,9.86v0L301.8,33.36
		c-0.95,1.12-1.66,1.9-2.31,2.31c-0.65,0.47-1.24,0.71-1.89,0.71v0.92h8.1v-0.95c-0.82-0.05-1.48-0.17-1.89-0.41
		c-0.41-0.24-0.65-0.54-0.65-0.95c0-0.29,0.11-0.65,0.29-1c0.18-0.36,0.47-0.77,0.95-1.36l2.72-3.31h5.28l3.78,0.01l-0.12,3.02
		c-0.07,1.72-0.3,2.85-0.71,3.26c-0.47,0.42-1.36,0.71-2.72,0.83v0.88h14.37v-0.88C325.7,36.44,324.77,36.09,324.17,35.44z
		 M316.14,27.62l-3.69-0.01v0h-4.02l4.02-4.96l4.05-4.96L316.14,27.62z"/>
	<path class="st2" d="M358.93,19.71c-0.41-0.53-1-0.77-1.83-0.77c-1,0-2.01,0.53-3.07,1.6c-1.06,1.06-2.36,2.96-3.96,5.67l2.07-7.03
		c-0.95,0.24-2.19,0.47-3.79,0.65c-1.53,0.24-3.25,0.41-5.2,0.53l-0.01,0.01v1h0.36c0.59,0,1.02,0.07,1.31,0.24
		c0.22,0.24,0.41,0.47,0.41,0.88c0,0.29-0.18,1-0.47,2.12l-0.12,0.36l-3.31,12.36h5.98c0.88-3.79,2.01-7.05,3.48-9.76
		c1.42-2.72,2.55-4.08,3.38-4.08c0.24,0,0.59,0.29,1.07,0.77c0.46,0.54,1.12,0.83,1.77,0.83c0.82,0,1.48-0.29,1.89-0.88
		c0.47-0.54,0.71-1.36,0.71-2.31C359.57,20.95,359.34,20.24,358.93,19.71z"/>
	<path class="st2" d="M138.97,11.59c-0.29,0.18-0.59,0.24-0.88,0.24c-0.12,0-0.83-0.24-2.31-0.77c-1.42-0.54-2.84-0.83-4.38-0.83
		c-2.6,0-4.72,0.77-6.39,2.24c-1.65,1.54-2.48,3.38-2.48,5.62c0,2.19,1.77,4.79,5.32,7.81c0.05,0.05,0.12,0.11,0.17,0.17
		c0.05,0.05,0.17,0.17,0.41,0.29c2.53,2.24,3.84,4.13,3.84,5.67c0,1.31-0.42,2.36-1.31,3.19c-0.88,0.83-1.95,1.24-3.31,1.24
		c-2.07,0-3.6-0.58-4.55-1.77c-1.02-1.17-1.54-3.01-1.54-5.44v-0.12h-1.07l-2.01,8.69h1.07c0.3-0.47,0.59-0.83,0.83-1
		c0.24-0.17,0.54-0.24,0.83-0.24c0.18,0,1.07,0.24,2.67,0.77c1.66,0.53,3.38,0.77,5.15,0.77c2.96,0,5.2-0.7,6.86-2.12
		c1.6-1.36,2.43-3.31,2.43-5.86c0-2.48-1.48-4.96-4.38-7.51c-0.36-0.3-0.59-0.47-0.77-0.59c-0.18-0.24-0.54-0.47-0.95-0.83
		c-2.41-2.07-3.6-3.79-3.6-5.15c0-1.25,0.42-2.26,1.19-3.02c0.78-0.78,1.78-1.19,3.02-1.19c1.54,0,2.72,0.53,3.67,1.65
		c0.95,1.12,1.42,2.55,1.42,4.31c0,0.12,0,0.24,0,0.41c0,0.12,0,0.24,0,0.41v0.04h1.12l1.77-7.93h-1.07
		C139.5,11.11,139.26,11.35,138.97,11.59z"/>
	<path class="st2" d="M195.78,18.94c-0.88,0-1.6,0.24-2.12,0.77c-0.59,0.47-0.88,1.12-0.88,1.83s0.41,1.48,1.24,2.19
		c0.78,0.7,1.19,1.29,1.19,1.77c0,0.54-0.42,1.48-1.19,2.78c-0.78,1.31-1.83,2.72-3.14,4.26l-1.36-13.48h-2.31l-6.21,10.41
		c-0.12-3.43-0.3-5.98-0.59-7.69c-0.24-1.72-0.53-2.6-0.88-2.6c-0.12,0-0.47,0.05-1.07,0.17c-2.19,0.42-4.33,0.78-6.33,0.95v1
		c0.12,0,0.17-0.05,0.29-0.05c0.05,0,0.11,0,0.17,0c0.95,0,1.6,0.95,1.95,2.9c0.41,1.9,0.53,5.91,0.53,12.01v2.12l0.03-0.01
		l2.72-0.12l6.5-10.7l1,10.82l2.72-0.17l1.72-1.83c2.73-2.9,4.86-5.62,6.45-8.22c1.66-2.61,2.43-4.55,2.43-5.98
		c0-0.88-0.24-1.65-0.77-2.24C197.33,19.23,196.62,18.94,195.78,18.94z"/>
	<path class="st2" d="M159.57,21.89c0-0.47-0.05-0.83-0.12-1.19v0.01h-0.01c-0.12-0.36-0.29-0.71-0.53-1
		c-0.41-0.53-1-0.77-1.83-0.77c-1,0-2.01,0.53-3.07,1.6c-1.06,1.06-2.36,2.96-3.96,5.67l2.07-7.03c-0.95,0.24-2.19,0.47-3.79,0.65
		c-1.53,0.24-3.25,0.41-5.2,0.53v1h0.36c0.59,0,1.02,0.07,1.31,0.24c0.24,0.24,0.41,0.47,0.41,0.88c0,0.29-0.18,1-0.47,2.12
		l-0.05,0.36l-3.36,12.36h5.98c0.88-3.79,2.01-7.05,3.48-9.76c1.41-2.72,2.53-4.08,3.36-4.08c0.24,0,0.59,0.29,1.07,0.77
		c0.47,0.54,1.12,0.83,1.83,0.83c0.77,0,1.41-0.29,1.89-0.88c0.24-0.29,0.41-0.71,0.53-1.12C159.5,22.72,159.57,22.31,159.57,21.89z
		"/>
	<path class="st2" d="M167.06,34.11c-0.29,0.36-0.53,0.47-0.77,0.47c-0.24,0-0.42-0.05-0.47-0.17c-0.12-0.17-0.17-0.36-0.17-0.65
		c0-0.12,0-0.24,0.05-0.41c0-0.12,0.07-0.36,0.12-0.65l3.72-13.54c-1.65,0.3-3.25,0.54-4.79,0.71c-1.53,0.24-2.96,0.36-4.31,0.47
		v0.95h0.36c0.53,0,1,0.12,1.24,0.29c0.3,0.18,0.47,0.47,0.47,0.83c0,0.17-0.05,0.47-0.17,0.88c-0.05,0.41-0.24,0.95-0.41,1.6
		l-1.72,5.62c-0.29,0.94-0.53,1.83-0.65,2.6c-0.07,0.24-0.12,0.42-0.12,0.59c-0.12,0.53-0.12,0.88-0.12,1.12
		c0,0.41,0,0.83,0.12,1.12l-0.01-0.03c0.12,0.54,0.36,1.02,0.71,1.31c0.59,0.59,1.41,0.88,2.48,0.88c1.24,0,2.43-0.47,3.55-1.31
		c1.06-0.88,2.24-2.31,3.48-4.2l-1-0.71C167.95,33.04,167.42,33.75,167.06,34.11z"/>
	<g>
		<path class="st2" d="M207.64,36.13v0.01c0,0,0,0,0,0v0c0.56-0.6,1.17-1.34,1.79-2.19c0.29-0.41,0.59-0.84,0.88-1.29l0,0
			c0,0,0,0,0,0l-0.95-0.71c-0.76,1.12-1.31,1.83-1.6,2.19c-0.01,0.01-0.01,0.01-0.02,0.01c-0.03,0.02-0.05,0.04-0.07,0.06
			c-0.01,0.01-0.02,0.02-0.03,0.03c-0.07,0.06-0.14,0.11-0.21,0.15c-0.2,0.13-0.37,0.2-0.49,0.2c-0.15,0-0.25-0.02-0.33-0.07
			c-0.03-0.01-0.05-0.03-0.08-0.05c-0.02-0.02-0.04-0.03-0.06-0.05c-0.01-0.02-0.02-0.03-0.03-0.05c-0.09-0.16-0.09-0.34-0.09-0.6
			v-0.41c0.03-0.07,0.04-0.18,0.07-0.32c0.02-0.1,0.05-0.2,0.1-0.32l1.12-4.14l1.29-4.66l1.31-4.75c0,0,0,0,0,0l0,0
			c-0.18,0.02-0.35,0.05-0.53,0.08c-0.5,0.08-1,0.15-1.48,0.23c-0.2,0.03-0.4,0.07-0.59,0.09v0c0,0,0,0,0,0v0
			c-0.35,0.05-0.68,0.1-1.02,0.15c-0.03,0-0.05,0.01-0.08,0.01c-0.13,0.02-0.26,0.03-0.39,0.04c-0.24,0.03-0.48,0.06-0.73,0.08
			c-0.64,0.1-1.28,0.18-1.92,0.25c-0.5,0.05-0.99,0.1-1.48,0.14c-0.31,0.03-0.62,0.05-0.92,0.08v0.95h0v0h0.36
			c0.3,0,0.55,0.03,0.77,0.08c0.22,0.05,0.39,0.13,0.54,0.21c0.29,0.18,0.41,0.47,0.41,0.83c0,0.11-0.03,0.28-0.06,0.49
			c-0.02,0.12-0.04,0.25-0.06,0.4c-0.03,0.09-0.06,0.19-0.09,0.3c-0.09,0.27-0.19,0.59-0.29,0.95c-0.03,0.11-0.06,0.23-0.1,0.35
			l-0.78,2.63l-0.89,3c-0.3,0.94-0.54,1.83-0.71,2.6c-0.18,0.83-0.24,1.36-0.24,1.72c0,1.07,0.29,1.9,0.88,2.42
			c0.29,0.33,0.67,0.56,1.14,0.7c0.39,0.12,0.83,0.18,1.34,0.18c1.17,0,2.36-0.47,3.48-1.31C207.13,36.59,207.36,36.36,207.64,36.13
			z"/>
		<path class="st2" d="M219.01,19.86c-1.53,0.24-3.01,0.36-4.31,0.48v0.95h0.41c0.54,0,0.9,0.12,1.19,0.29
			c0.24,0.12,0.41,0.41,0.41,0.77c0,0.18-0.07,0.47-0.12,0.83c-0.05,0.36-0.17,0.77-0.29,1.24l-3.55,14.32
			c-0.47,2.02-0.95,3.31-1.36,4.02c-0.41,0.65-0.95,1-1.6,1c-0.24,0-0.48-0.05-0.59-0.12c-0.17-0.12-0.29-0.24-0.29-0.41
			c0-0.17,0.17-0.47,0.53-1c0.3-0.54,0.47-1.02,0.47-1.42c0-0.65-0.24-1.19-0.71-1.6c-0.42-0.41-0.95-0.65-1.54-0.65v0.01h-0.01
			c-0.05,0-0.12,0-0.17,0c-0.53,0-1,0.13-1.42,0.45c-0.14,0.11-0.28,0.23-0.41,0.38c-0.47,0.59-0.71,1.31-0.71,2.19
			c0,1.06,0.54,2.01,1.54,2.72c0.36,0.24,0.78,0.47,1.19,0.59v-0.01l0.01-0.01c0.83,0.36,1.77,0.48,2.84,0.48
			c2.3,0,4.2-0.77,5.55-2.31c1.42-1.53,2.6-4.08,3.55-7.63l4.2-16.27C222.08,19.45,220.48,19.69,219.01,19.86z"/>
	</g>
	<path class="st2" d="M246.55,32.93l-0.77-0.59l-0.17-0.12c-0.12,0.18-0.29,0.47-0.53,0.83c-0.83,1.17-1.54,1.77-2.07,1.77
		c-0.17,0-0.29-0.07-0.41-0.24c-0.13-0.17-0.18-0.36-0.18-0.65c0-0.3,0.29-1.31,0.77-3.02v-0.05l2.6-9.05l0.65-2.24h-0.63h-0.01
		h-5.01l-0.59,2.24c-0.24-1-0.59-1.72-1.19-2.19c-0.59-0.47-1.42-0.71-2.43-0.71c-0.41,0-0.83,0.07-1.24,0.12v0.01h-0.01
		c-0.7,0.18-1.41,0.42-2.12,0.83c-1.17,0.65-2.3,1.53-3.36,2.72c-1.36,1.48-2.48,3.19-3.31,5.08c-0.78,1.95-1.19,3.79-1.19,5.55
		c0,1.48,0.41,2.67,1.24,3.55c0.82,0.9,2.01,1.31,3.48,1.31c1.36,0,2.65-0.41,3.84-1.24c0.48-0.36,0.95-0.78,1.42-1.31v0.01
		c0.58-0.71,1.17-1.53,1.77-2.48c-0.12,0.59-0.24,1.12-0.29,1.48c-0.05,0.41-0.05,0.71-0.05,1c0,0.82,0.3,1.48,0.83,1.89
		c0.54,0.41,1.31,0.65,2.31,0.65c1.29,0,2.41-0.41,3.48-1.24c0.83-0.66,1.6-1.54,2.43-2.67C246.03,33.82,246.32,33.41,246.55,32.93z
		 M238.52,26.14c-0.42,1.41-0.9,2.89-1.54,4.43c-0.54,1.12-1.07,2.07-1.66,2.78v-0.01c-0.11,0.12-0.24,0.24-0.29,0.36
		c-0.7,0.77-1.36,1.12-2.01,1.12c-0.47,0-0.83-0.17-1.07-0.53c-0.22-0.36-0.41-0.83-0.41-1.48c0-1,0.24-2.24,0.71-3.72
		c0.48-1.41,1.12-2.96,1.95-4.43c0.41-0.71,0.77-1.31,1.12-1.83v-0.01c0.24-0.36,0.53-0.65,0.77-0.88c0.54-0.54,1.07-0.83,1.66-0.83
		c0.42,0,0.71,0.18,0.95,0.47c0.29,0.36,0.41,0.78,0.41,1.31C239.11,23.66,238.88,24.71,238.52,26.14z"/>
	<path class="st2" d="M265.18,19.67c-0.46-0.53-1.12-0.77-2.01-0.77c-0.83,0-1.54,0.24-2.07,0.77c-0.53,0.47-0.77,1.12-0.77,1.95
		c0,0.7,0.36,1.29,1.12,1.89c0.71,0.54,1.12,1.02,1.12,1.42c0,0.47-0.24,1.29-0.71,2.36c-0.41,1.06-1.24,2.84-2.48,5.2
		c-0.3-1.31-0.66-3.07-1.07-5.26c-1-5.44-1.83-8.1-2.55-8.1c-0.05,0-0.94,0.05-2.6,0.29c-1.6,0.24-3.19,0.47-4.79,0.59v1.07
		c0.12,0,0.3,0,0.47-0.05h0.07c0.65,0,1.12,0.18,1.36,0.47c0.29,0.24,0.59,0.88,0.88,1.83c0.29,1.07,0.65,2.55,1,4.5
		c0.42,1.9,0.83,4.02,1.19,6.33c0.17,1.06,0.36,2.01,0.41,2.72c0.12,0.77,0.12,1.36,0.12,1.83c0,0.65-0.29,1.36-0.88,2.07
		c-0.54,0.77-1.07,1.12-1.54,1.12c-0.24,0-0.71-0.24-1.48-0.77c-0.77-0.47-1.48-0.71-2.12-0.71c-0.83,0-1.54,0.24-2.07,0.71
		c-0.54,0.47-0.83,1.12-0.83,1.83c0,0.77,0.3,1.36,0.83,1.83v-0.01c0.07,0.07,0.07,0.07,0.12,0.12c0.65,0.47,1.48,0.71,2.6,0.71
		c1.65,0,3.43-0.83,5.2-2.43c1.78-1.65,3.79-4.2,5.98-7.74c1.95-3.14,3.43-5.91,4.55-8.34c1.12-2.48,1.72-4.31,1.72-5.38
		C265.95,20.86,265.66,20.15,265.18,19.67z"/>
	<path class="st2" d="M287.43,32.22c-0.12,0.18-0.29,0.47-0.53,0.83c-0.83,1.17-1.54,1.77-2.07,1.77c-0.17,0-0.29-0.07-0.41-0.24
		c-0.12-0.17-0.17-0.36-0.17-0.65c0-0.3,0.29-1.31,0.77-3.02v-0.05l3.26-11.29h-5.67l-0.59,2.24c-0.24-1-0.59-1.72-1.19-2.19
		c-0.59-0.47-1.42-0.71-2.43-0.71c-0.41,0-0.83,0.07-1.24,0.12v0c0,0,0,0,0,0c0,0,0,0,0,0v0c-0.7,0.18-1.44,0.44-2.15,0.84
		c-1.17,0.65-2.3,1.53-3.36,2.72c-1.36,1.48-2.48,3.19-3.31,5.08c-0.78,1.95-1.19,3.79-1.19,5.55c0,1.48,0.41,2.67,1.24,3.55
		c0.88,0.9,2.01,1.31,3.48,1.31c1.36,0,2.65-0.41,3.84-1.24c0.47-0.36,0.95-0.78,1.42-1.31c0.58-0.71,1.19-1.52,1.78-2.47
		c-0.12,0.59-0.22,1.12-0.29,1.48c0,0.41-0.05,0.71-0.05,1c0,0.82,0.3,1.48,0.83,1.89s1.31,0.65,2.31,0.65
		c1.29,0,2.41-0.41,3.48-1.24s2.12-2.14,3.19-3.91L287.43,32.22z M280.34,26.14c-0.42,1.41-0.9,2.89-1.54,4.43
		c-0.54,1.12-1.08,2.06-1.68,2.77c-0.12,0.12-0.17,0.24-0.29,0.36c-0.7,0.77-1.36,1.12-2.01,1.12c-0.47,0-0.83-0.17-1.07-0.53
		c-0.24-0.36-0.41-0.83-0.41-1.48c0-1,0.24-2.24,0.71-3.72c0.47-1.41,1.12-2.96,1.95-4.43c0.4-0.7,0.79-1.33,1.14-1.86
		c0.24-0.35,0.52-0.64,0.76-0.88c0.54-0.54,1.07-0.83,1.66-0.83c0.42,0,0.71,0.18,0.95,0.47c0.29,0.36,0.41,0.78,0.41,1.31
		C280.94,23.66,280.7,24.71,280.34,26.14z"/>
	<path class="st2" d="M195.4,55.44l-0.01-0.03v-0.59h-3.43l-0.12,0.47c0.36,0,0.65,0.05,0.88,0.12c0.24,0.07,0.36,0.12,0.36,0.24
		c0,0.05,0,0.12-0.05,0.17c-0.05,0.12-0.29,0.36-0.65,0.71c-0.24,0.17-0.59,0.53-1.12,1c-0.59,0.53-1.19,1.06-1.83,1.65
		c-0.24-0.53-0.48-1-0.71-1.48c-0.18-0.41-0.36-0.77-0.48-1c-0.12-0.36-0.24-0.65-0.24-0.77c-0.05-0.17-0.12-0.24-0.12-0.29
		c0-0.12,0.17-0.22,0.41-0.29c0.29,0,0.65-0.05,1.24-0.05l0.12-0.47h-6.27l-0.12,0.47c0.17,0,0.36,0,0.53,0.05
		c0.18,0,0.36,0.05,0.47,0.12c0.18,0.12,0.3,0.24,0.48,0.36c0.12,0.12,0.24,0.29,0.36,0.53c0.29,0.53,0.47,1,0.65,1.36
		c0.18,0.36,0.42,0.83,0.71,1.54c0.12,0.18,0.17,0.36,0.24,0.47c0.05,0.12,0.12,0.24,0.12,0.36c0,0.05-0.07,0.12-0.07,0.17
		c-0.05,0.12-0.05,0.22-0.12,0.29l-0.41,1.54c-0.07,0.17-0.12,0.29-0.24,0.41c-0.12,0.07-0.3,0.18-0.47,0.24
		c-0.12,0-0.36,0.07-0.59,0.07c-0.29,0.07-0.53,0.07-0.65,0.07l-0.17,0.47h6.27l0.12-0.47c-0.18,0-0.36,0-0.59-0.07
		c-0.24-0.07-0.41-0.07-0.53-0.12c-0.17-0.05-0.24-0.12-0.29-0.17c-0.05-0.07-0.05-0.18-0.05-0.24s0-0.12,0-0.17
		c0-0.05,0-0.12,0.05-0.17l0.29-1.12c0.18-0.42,0.24-0.66,0.36-0.83c0.12-0.17,0.36-0.47,0.83-0.88c0.83-0.71,1.42-1.24,1.72-1.48
		c0.3-0.29,0.78-0.71,1.42-1.24c0.3-0.18,0.47-0.36,0.71-0.47c0.17-0.18,0.41-0.29,0.65-0.36C195.23,55.51,195.35,55.44,195.4,55.44
		z"/>
	<path class="st1" d="M196.11,55.32l0.12-0.47h-0.82v0.59c0.05-0.07,0.12-0.07,0.17-0.07C195.76,55.32,195.94,55.32,196.11,55.32z"
		/>
	<path class="st2" d="M217.17,59.68l-1.07,3.67h2.6l1.24-4.26c0.24-0.17,0.47-0.36,0.71-0.53c0.24-0.17,0.53-0.29,0.88-0.41
		c-0.12,0.24-0.24,0.41-0.29,0.53c-0.07,0.12-0.12,0.3-0.12,0.47c0,0.18,0.12,0.36,0.36,0.47c0.24,0.18,0.54,0.24,0.95,0.24
		c0.3,0,0.54-0.05,0.71-0.12c0.18-0.05,0.3-0.17,0.47-0.29c0.12-0.12,0.24-0.24,0.29-0.41c0.07-0.17,0.12-0.36,0.12-0.53v-0.03
		c0-0.41-0.12-0.71-0.41-0.88c-0.24-0.24-0.59-0.36-1.07-0.36c-0.41,0-0.77,0.12-1.12,0.24c-0.36,0.17-0.83,0.47-1.36,0.88h-0.05
		c-0.07-0.36-0.3-0.59-0.59-0.77c-0.29-0.17-0.77-0.29-1.36-0.29c-0.36,0-0.71,0.05-1.12,0.17c-0.36,0.05-0.78,0.17-1.19,0.29
		l-0.12,0.53c0.12,0,0.24-0.05,0.36-0.05c0.17-0.05,0.36-0.05,0.53-0.05c0.36,0,0.53,0,0.65,0.12c0.12,0.07,0.17,0.24,0.17,0.47
		c0,0.12,0,0.24-0.05,0.41C217.22,59.39,217.22,59.56,217.17,59.68z"/>
	<path class="st2" d="M210.61,62.36h0.05l0.03,0.01c0.05,0.36,0.29,0.59,0.65,0.77c0.36,0.24,0.83,0.29,1.36,0.29
		c0.41,0,0.77,0,1.12-0.12c0.29-0.07,0.71-0.18,1.24-0.36l0.12-0.53c-0.05,0.05-0.17,0.05-0.41,0.12c-0.17,0.05-0.36,0.05-0.53,0.05
		c-0.36,0-0.59-0.05-0.71-0.12c-0.12-0.07-0.17-0.24-0.17-0.47c0-0.05,0-0.24,0.05-0.41c0.07-0.18,0.12-0.36,0.12-0.47l1.12-3.67
		l-0.05-0.05l-2.55,0.05l-1.31,4.31c-0.29,0.24-0.65,0.41-1,0.53c-0.36,0.12-0.59,0.24-0.83,0.24c-0.24,0-0.47-0.05-0.59-0.17
		c-0.12-0.12-0.17-0.3-0.17-0.47c0-0.07,0.05-0.18,0.05-0.36c0.07-0.12,0.07-0.29,0.12-0.41l0.59-1.6c0.07-0.17,0.12-0.36,0.12-0.53
		c0.05-0.17,0.05-0.34,0.05-0.41c0-0.36-0.17-0.65-0.53-0.88c-0.36-0.24-0.83-0.36-1.42-0.36c-0.36,0-0.71,0.05-1.12,0.17
		c-0.36,0.05-0.77,0.17-1.24,0.29l-0.12,0.59c0.12-0.07,0.24-0.12,0.41-0.12c0.17-0.05,0.36-0.05,0.53-0.05c0.36,0,0.59,0,0.71,0.12
		c0.12,0.07,0.17,0.24,0.17,0.47c0,0.05-0.07,0.24-0.12,0.41c-0.07,0.18-0.07,0.36-0.12,0.47l-0.59,1.65
		c-0.07,0.24-0.12,0.41-0.12,0.53c-0.05,0.12-0.05,0.24-0.05,0.36c0,0.36,0.18,0.65,0.47,0.88c0.36,0.24,0.77,0.36,1.36,0.36
		c0.65,0,1.24-0.07,1.72-0.24C209.55,63.07,210.09,62.77,210.61,62.36z"/>
	<path class="st2" d="M202.79,57.92c-0.71-0.41-1.65-0.65-2.84-0.65c-0.24,0-0.47,0-0.77,0.05l-0.01,0.01
		c-0.47,0-0.95,0.12-1.36,0.24c-0.71,0.17-1.24,0.47-1.72,0.77c-0.3,0.18-0.47,0.41-0.7,0.58v0c0,0,0,0,0,0c0,0-0.01,0.01-0.01,0.01
		v0.01c-0.12,0.23-0.28,0.39-0.4,0.57c-0.24,0.47-0.36,0.95-0.36,1.48c0,0.71,0.23,1.23,0.75,1.64v0.02
		c0.12,0.05,0.17,0.11,0.24,0.17c0.71,0.47,1.6,0.71,2.72,0.71c0.3,0,0.59,0,0.83-0.07v-0.53c-0.18,0.07-0.36,0.12-0.59,0.12
		c-0.36,0-0.71-0.12-0.88-0.36c-0.22-0.17-0.29-0.53-0.29-1c0-0.36,0-0.77,0.12-1.24c0.07-0.47,0.18-0.9,0.36-1.31
		c0.24-0.47,0.47-0.83,0.83-1.07c0.18-0.12,0.36-0.17,0.47-0.24c0.24-0.12,0.41-0.12,0.65-0.12c0.36,0,0.71,0.12,0.88,0.29
		c0.24,0.24,0.29,0.59,0.29,1.07c0,0.42,0,0.83-0.12,1.31c-0.12,0.47-0.24,0.9-0.41,1.31c-0.17,0.36-0.41,0.71-0.77,0.95
		c-0.12,0.12-0.29,0.24-0.53,0.29v0.53l-0.01,0.01c0.54-0.07,1.02-0.12,1.42-0.24c0.65-0.24,1.24-0.47,1.77-0.83
		c0.42-0.36,0.83-0.77,1.07-1.24c0.24-0.42,0.36-0.9,0.36-1.42C203.79,58.99,203.44,58.4,202.79,57.92z"/>
	<path class="st2" d="M240,61.17l-0.07,0.17c-0.05,0.12-0.12,0.29-0.12,0.47c-0.05,0.12-0.05,0.29-0.05,0.41
		c0,0.24,0.05,0.41,0.24,0.59V61.17z"/>
	<path class="st2" d="M240,54.84l0.01-0.03h-9.88l-0.12,0.47c0.53,0.07,0.88,0.12,1.12,0.24c0.17,0.07,0.29,0.18,0.29,0.36
		c0,0.07,0,0.07,0,0.12c0,0.07-0.05,0.12-0.05,0.24l-1.77,5.91c-0.05,0.12-0.12,0.24-0.24,0.36c-0.12,0.12-0.3,0.18-0.47,0.24
		c-0.12,0-0.36,0.07-0.59,0.07c-0.24,0.07-0.47,0.07-0.59,0.07l-0.12,0.47h6.03l0.12-0.47c-0.53-0.05-0.88-0.12-1.12-0.17
		c-0.17-0.05-0.29-0.24-0.29-0.41c0,0,0.05-0.05,0.05-0.12c0-0.05,0-0.11,0.05-0.17l0.83-2.72h1.12c0.29,0,0.59,0,0.77,0.05
		c0.24,0.05,0.36,0.17,0.53,0.29c0.07,0.12,0.12,0.24,0.18,0.41c0.05,0.18,0.05,0.36,0.05,0.59v0.17h0.59l1.07-3.55h-0.59
		c-0.05,0.18-0.17,0.36-0.41,0.59c-0.17,0.24-0.36,0.42-0.53,0.47c-0.24,0.18-0.47,0.3-0.71,0.36c-0.24,0-0.54,0.05-0.83,0.05h-1.12
		l1.07-3.36h1.72c0.24,0,0.47,0,0.71,0c0.24,0,0.48,0.07,0.65,0.07c0.29,0.07,0.59,0.24,0.88,0.59c0.24,0.36,0.42,0.71,0.47,1.12
		h0.59l0.53-1.6V54.84z"/>
	<path class="st2" d="M271.94,62.94l0.17-0.53h-0.03c-0.12,0.05-0.24,0.05-0.47,0.12c-0.17,0.05-0.34,0.05-0.53,0.05
		c-0.3,0-0.54-0.05-0.71-0.12c-0.12-0.12-0.17-0.24-0.17-0.47c0-0.12,0-0.24,0.05-0.41c0.07-0.18,0.12-0.36,0.18-0.47l0.59-1.66
		c0.07-0.17,0.12-0.36,0.12-0.53c0-0.17,0-0.29,0-0.41c0-0.36-0.12-0.65-0.47-0.88c-0.36-0.24-0.77-0.36-1.36-0.36
		c-0.65,0-1.17,0.12-1.77,0.29c-0.53,0.18-1.07,0.47-1.6,0.83h-0.05c-0.07-0.36-0.3-0.59-0.59-0.77c-0.29-0.17-0.77-0.29-1.36-0.29
		c-0.36,0-0.71,0.05-1.12,0.17c-0.41,0.05-0.77,0.17-1.24,0.29l-0.17,0.53c0.18,0,0.3-0.05,0.47-0.05c0.17-0.05,0.36-0.05,0.53-0.05
		c0.29,0,0.53,0,0.65,0.12c0.12,0.07,0.17,0.24,0.17,0.47c0,0.12,0,0.24-0.05,0.41c-0.07,0.18-0.07,0.36-0.12,0.47l-1.12,3.67h2.6
		l1.31-4.31c0.41-0.3,0.77-0.47,1.12-0.59c0.29-0.12,0.59-0.17,0.77-0.17c0.3,0,0.47,0.05,0.59,0.17s0.17,0.24,0.17,0.41
		c0,0.12,0,0.24,0,0.36c-0.05,0.12-0.12,0.3-0.17,0.47l-0.53,1.6c-0.12,0.24-0.12,0.41-0.12,0.53c-0.05,0.18-0.05,0.3-0.05,0.36
		c0,0.36,0.17,0.65,0.53,0.88c0.36,0.24,0.83,0.36,1.48,0.36c0.36,0,0.78,0,1.07-0.12C270.99,63.23,271.41,63.11,271.94,62.94z"/>
	<path class="st1" d="M258.44,55.96c0.29,0.22,0.65,0.29,1.12,0.29c0.42,0,0.78-0.05,1.07-0.29c0.3-0.24,0.47-0.47,0.47-0.77
		c0-0.29-0.18-0.53-0.47-0.77c-0.3-0.24-0.66-0.36-1.07-0.36c-0.48,0-0.83,0.12-1.12,0.36c-0.3,0.24-0.47,0.47-0.47,0.77
		C257.97,55.48,258.15,55.72,258.44,55.96z"/>
	<path class="st2" d="M259.52,63.35c0.29-0.07,0.71-0.18,1.24-0.36l0.16-0.48c0,0,0.01,0,0.01-0.01v-0.04l-0.01,0.04c0,0,0,0,0,0
		c-0.11,0.06-0.23,0.06-0.39,0.11c-0.24,0.05-0.41,0.05-0.53,0.05c-0.36,0-0.59-0.07-0.71-0.12c-0.17-0.12-0.24-0.24-0.24-0.47
		c0-0.12,0-0.24,0.07-0.41c0.05-0.18,0.12-0.36,0.17-0.47l0.59-1.72c0.12-0.17,0.12-0.36,0.17-0.53c0-0.17,0-0.34,0-0.41
		c0-0.36-0.18-0.65-0.47-0.88c-0.36-0.24-0.83-0.36-1.48-0.36c-0.36,0-0.71,0.05-1.07,0.17c-0.41,0.05-0.83,0.17-1.24,0.29
		l-0.17,0.53c0.12,0,0.29-0.05,0.47-0.12c0.18,0,0.36-0.07,0.48-0.07c0.36,0,0.59,0.05,0.71,0.17c0.12,0.05,0.17,0.24,0.17,0.41
		s0,0.29-0.05,0.41c0,0.18-0.07,0.36-0.12,0.47l-0.65,1.77c-0.07,0.18-0.12,0.36-0.12,0.47c-0.07,0.17-0.07,0.29-0.07,0.41
		c0,0.36,0.17,0.65,0.53,0.88c0.36,0.24,0.83,0.36,1.48,0.36C258.88,63.46,259.23,63.46,259.52,63.35z"/>
	<path class="st2" d="M251.24,65.25c0.47-0.29,0.95-0.65,1.31-1.12c0.36-0.47,0.65-1.07,0.88-1.83l1.36-4.86l-0.12-0.05l-2.48,0.05
		L251,61.7c-0.29,0.24-0.65,0.41-1,0.53c-0.36,0.18-0.59,0.24-0.83,0.24c-0.29,0-0.53-0.05-0.65-0.17
		c-0.12-0.12-0.17-0.24-0.17-0.41c0-0.12,0-0.24,0.05-0.36c0-0.18,0.07-0.36,0.12-0.47l0.59-1.54c0.07-0.17,0.07-0.36,0.12-0.53
		c0-0.17,0-0.34,0-0.41c0-0.36-0.18-0.65-0.47-0.88c-0.36-0.24-0.83-0.36-1.48-0.36c-0.36,0-0.71,0.05-1.07,0.17
		c-0.41,0.05-0.83,0.17-1.24,0.29l-0.18,0.59c0.12-0.07,0.3-0.12,0.47-0.12c0.17-0.05,0.36-0.05,0.53-0.05c0.29,0,0.53,0,0.65,0.12
		c0.12,0.07,0.17,0.24,0.17,0.47c0,0.05,0,0.24-0.05,0.41c-0.05,0.18-0.12,0.36-0.12,0.47l-0.59,1.6c-0.12,0.24-0.12,0.41-0.17,0.53
		c0,0.12,0,0.24,0,0.41c0,0.29,0.18,0.59,0.47,0.88c0.29,0.24,0.77,0.36,1.36,0.36c0.59,0,1.13-0.12,1.66-0.24
		c0.47-0.17,1.02-0.47,1.66-0.88c-0.12,0.59-0.3,1.07-0.47,1.42c-0.24,0.41-0.47,0.77-0.71,1c-0.12,0.12-0.24,0.24-0.36,0.29
		c-0.12,0.07-0.24,0.17-0.36,0.24c-0.12,0.07-0.24,0.07-0.36,0.12c-0.18,0-0.29,0.05-0.36,0.05c-0.05-0.12-0.17-0.24-0.29-0.47
		c-0.12-0.18-0.3-0.36-0.47-0.47c-0.12-0.17-0.36-0.29-0.59-0.41c-0.18-0.11-0.47-0.17-0.71-0.17c-0.41,0-0.71,0.07-0.88,0.24
		c-0.24,0.17-0.36,0.41-0.36,0.65c0,0.12,0.07,0.24,0.12,0.36c0.05,0.17,0.24,0.29,0.41,0.41c0.24,0.12,0.59,0.17,1,0.29
		c0.42,0.07,0.9,0.07,1.54,0.07c0.59,0,1.12-0.05,1.72-0.17C250.24,65.66,250.76,65.48,251.24,65.25z"/>
	<polygon class="st1" points="240.01,55.55 240.18,54.84 240.01,54.84 	"/>
	<path class="st2" d="M241.32,54.85c0.12,0.07,0.24,0.12,0.29,0.24c0.05,0.05,0.12,0.17,0.12,0.29c0,0.05,0,0.12-0.07,0.17
		c0,0.05,0,0.12,0,0.17l-1.65,5.44v1.66v0.03c0.05,0.12,0.17,0.24,0.29,0.29c0.36,0.24,0.88,0.36,1.48,0.36c0.41,0,0.83,0,1.12-0.12
		c0.36-0.07,0.78-0.18,1.31-0.36l0.17-0.53c-0.12,0.07-0.24,0.07-0.48,0.12c-0.24,0.05-0.41,0.05-0.53,0.05
		c-0.36,0-0.65-0.07-0.77-0.12c-0.18-0.12-0.24-0.24-0.24-0.47c0-0.12,0.05-0.24,0.05-0.41c0.07-0.18,0.12-0.36,0.18-0.47l2.07-6.98
		l-0.05-0.12l-4.14,0.17l-0.17,0.47c0.24,0,0.41,0,0.59,0C241.08,54.78,241.2,54.78,241.32,54.85z"/>
	<path class="st2" d="M280.11,64.12c0.36-0.47,0.66-1.07,0.83-1.83l1.36-4.86l-0.12-0.05l-2.43,0.36c-0.24-0.18-0.53-0.3-0.88-0.36
		c-0.42-0.07-0.83-0.12-1.31-0.12h-0.05l-0.01,0.01c-0.65,0-1.17,0.12-1.77,0.29c-0.53,0.24-1.07,0.53-1.48,0.88
		c-0.41,0.36-0.77,0.77-1,1.24c-0.29,0.47-0.41,0.95-0.41,1.48c0,0.71,0.24,1.31,0.77,1.72c0.47,0.36,1.19,0.59,2.07,0.59
		c0.36,0,0.59-0.07,0.83-0.07c0.17-0.07,0.41-0.12,0.65-0.24c0.12,0,0.24-0.07,0.36-0.12c0.07,0,0.12-0.05,0.24-0.12
		c0.17-0.07,0.29-0.18,0.41-0.24h0.05c-0.12,0.59-0.29,1.13-0.53,1.42c-0.05,0.12-0.12,0.29-0.17,0.36h-0.03
		c-0.17,0.18-0.29,0.36-0.41,0.47c-0.24,0.17-0.41,0.29-0.65,0.41c-0.24,0.07-0.53,0.12-0.77,0.12c-0.05-0.12-0.12-0.3-0.29-0.47
		c-0.12-0.18-0.24-0.36-0.41-0.47c-0.18-0.17-0.36-0.29-0.59-0.41c-0.24-0.11-0.48-0.17-0.77-0.17c-0.36,0-0.65,0.07-0.88,0.24
		c-0.17,0.17-0.29,0.41-0.29,0.65c0,0.12,0.07,0.24,0.12,0.36c0.05,0.17,0.24,0.29,0.41,0.41c0.24,0.12,0.54,0.18,0.95,0.24
		c0.41,0.12,0.95,0.12,1.6,0.12c0.59,0,1.19-0.07,1.72-0.12c0.05-0.05,0.17-0.05,0.29-0.12v0c0.42-0.07,0.82-0.24,1.29-0.47
		C279.28,64.96,279.7,64.6,280.11,64.12z M278.44,61.99c-0.17,0.12-0.41,0.24-0.65,0.36c-0.12,0.07-0.24,0.12-0.29,0.12
		c-0.17,0.07-0.36,0.12-0.53,0.12c-0.24,0-0.41-0.05-0.59-0.12c-0.17-0.05-0.29-0.17-0.41-0.29s-0.18-0.29-0.24-0.41
		c-0.05-0.17-0.05-0.36-0.05-0.53c0-0.42,0.05-0.9,0.17-1.31c0.12-0.36,0.29-0.71,0.53-1.07c0.17-0.3,0.47-0.54,0.77-0.71
		c0.12-0.05,0.18-0.12,0.36-0.17c0.18-0.05,0.36-0.12,0.59-0.12s0.41,0.05,0.59,0.12c0.12,0.07,0.24,0.12,0.36,0.24
		c0.12,0.05,0.17,0.17,0.17,0.29c0.05,0.05,0.05,0.17,0.05,0.29L278.44,61.99z"/>
	<path class="st2" d="M292.65,62.87c-0.53-0.05-0.95-0.12-1.12-0.17c-0.17-0.05-0.29-0.24-0.29-0.41c0,0,0-0.05,0-0.12
		c0-0.05,0.05-0.11,0.05-0.17l0.71-2.31h1.12c0.29,0,0.59,0,0.88,0v-0.01c0.48-0.05,0.95-0.12,1.36-0.17
		c0.71-0.12,1.31-0.3,1.83-0.59c0.59-0.24,1.02-0.59,1.31-0.95c0.18-0.24,0.3-0.47,0.36-0.71c0.05-0.24,0.05-0.41,0.05-0.65
		c0-0.18,0-0.3-0.05-0.47l-0.01,0.01c-0.12-0.36-0.41-0.66-0.88-0.83c-0.66-0.3-1.6-0.47-2.9-0.47h-1.06l-0.03-0.03h-4.97
		l-0.12,0.47c0.48,0.07,0.83,0.12,1.07,0.24c0.24,0.07,0.36,0.18,0.36,0.36c0,0.07,0,0.07-0.05,0.12c0,0.07,0,0.12-0.05,0.24
		l-1.77,5.91c-0.07,0.12-0.12,0.24-0.24,0.36s-0.24,0.18-0.48,0.24c-0.12,0-0.29,0.07-0.53,0.07c-0.3,0.07-0.47,0.07-0.59,0.07
		l-0.17,0.47h6.1L292.65,62.87z M293.3,55.36h0.59c0.06,0,0.07,0,0.11,0c0.59,0,1.07,0.12,1.36,0.29c0.3,0.24,0.47,0.59,0.47,1
		c0,0.36-0.05,0.66-0.17,0.95c-0.12,0.3-0.29,0.59-0.53,0.83c-0.24,0.17-0.59,0.36-1,0.53c-0.07,0-0.07,0-0.12,0v0.01
		c-0.41,0.12-0.83,0.17-1.36,0.17h-0.47L293.3,55.36z"/>
	<path class="st2" d="M310.77,59.65l-1.07,3.67h2.6l1.24-4.26c0.24-0.17,0.47-0.36,0.71-0.53c0.24-0.17,0.53-0.29,0.88-0.41
		c-0.12,0.24-0.24,0.41-0.29,0.53c-0.07,0.12-0.07,0.3-0.07,0.47c0,0.18,0.05,0.36,0.29,0.47c0.24,0.18,0.54,0.24,0.95,0.24
		c0.3,0,0.54-0.05,0.71-0.12c0.18-0.05,0.29-0.17,0.47-0.29c0.12-0.12,0.24-0.24,0.29-0.41c0.05-0.17,0.12-0.36,0.12-0.53l0.01-0.03
		c0-0.41-0.12-0.71-0.41-0.88c-0.24-0.24-0.59-0.36-1-0.36c-0.42,0-0.83,0.12-1.19,0.24c-0.36,0.17-0.83,0.47-1.31,0.88h-0.05
		c-0.12-0.36-0.36-0.59-0.65-0.77c-0.29-0.17-0.77-0.29-1.36-0.29c-0.36,0-0.71,0.05-1.12,0.17c-0.36,0.05-0.78,0.17-1.19,0.29
		l-0.17,0.53c0.12,0,0.24-0.05,0.41-0.05c0.17-0.05,0.36-0.05,0.53-0.05c0.36,0,0.59,0,0.71,0.12c0.12,0.07,0.17,0.24,0.17,0.47
		c0,0.12-0.07,0.24-0.12,0.41C310.82,59.36,310.82,59.53,310.77,59.65z"/>
	<path class="st2" d="M307.72,62.57c-0.3,0-0.54,0-0.71-0.12c-0.12-0.07-0.17-0.24-0.17-0.47c0-0.05,0-0.24,0.05-0.41
		c0.07-0.18,0.12-0.36,0.12-0.47l1.19-3.67l-0.12-0.05l-2.43,0.36c-0.24-0.12-0.53-0.24-0.88-0.36c-0.36-0.07-0.78-0.12-1.19-0.12
		c-0.05,0-0.1,0-0.16,0l-0.03-0.01c-0.59,0.05-1.19,0.12-1.72,0.29c-0.53,0.24-1.07,0.53-1.48,0.88c-0.47,0.36-0.83,0.77-1.07,1.24
		c-0.12,0.24-0.24,0.54-0.29,0.83v0.23c-0.02,0.17-0.03,0.34-0.03,0.51c0,0.17,0.01,0.34,0.03,0.51v0.18
		c0.12,0.36,0.3,0.71,0.59,0.95c0.48,0.41,1.19,0.65,2.07,0.65c0.3,0,0.59-0.05,0.83-0.12c0.24-0.07,0.47-0.12,0.71-0.24
		c0.12,0,0.24-0.07,0.36-0.12V62.5c-0.24,0.05-0.42,0.05-0.59,0.05c-0.24,0-0.41,0-0.59-0.05c-0.17-0.12-0.29-0.17-0.41-0.29
		c-0.05-0.12-0.12-0.29-0.17-0.41c0-0.18-0.05-0.36-0.05-0.59c0-0.41,0.07-0.83,0.18-1.24c0.17-0.42,0.29-0.78,0.53-1.07
		c0.24-0.29,0.47-0.59,0.77-0.77c0.12-0.05,0.24-0.12,0.36-0.17v0c0.18-0.05,0.41-0.12,0.58-0.12c0.24,0,0.42,0.05,0.59,0.12
		c0.18,0.07,0.3,0.12,0.36,0.24c0.12,0.05,0.17,0.17,0.17,0.29c0.07,0.12,0.07,0.17,0.07,0.29l-1,3.26
		c-0.17,0.12-0.41,0.29-0.65,0.41c-0.05,0-0.12,0-0.12,0.07v0.51c0,0-0.01,0.01-0.01,0.01l0.01,0.01v-0.02
		c0.07-0.05,0.17-0.11,0.22-0.16c0.17-0.05,0.36-0.17,0.53-0.29h0.05c0.12,0.24,0.36,0.47,0.65,0.59c0.36,0.17,0.78,0.29,1.31,0.29
		c0.41,0,0.77-0.05,1.12-0.17c0.29-0.07,0.71-0.18,1.24-0.36l0.18-0.53c-0.12,0.05-0.24,0.05-0.48,0.12
		C308.08,62.57,307.89,62.57,307.72,62.57z"/>
	<path class="st2" d="M323.54,62.46c-0.12,0-0.3,0.07-0.59,0.12c-0.29,0.05-0.47,0.05-0.65,0.05c-0.36,0-0.59-0.07-0.77-0.12
		c-0.18-0.12-0.24-0.24-0.24-0.47c0-0.05,0-0.17,0.05-0.29c0-0.17,0.05-0.29,0.05-0.41l1-3.19h2.12l0.07-0.24l0.12-0.36h-0.11h-0.01
		h-1.99l0.53-1.83h-2.55l-0.59,1.83h-1.48l-0.18,0.59h1.48l-1,3.19c-0.07,0.18-0.12,0.36-0.12,0.47c0,0.12-0.07,0.29-0.07,0.41
		c0,0.36,0.24,0.65,0.59,0.88c0.36,0.24,0.88,0.36,1.48,0.36c0.42,0,0.83-0.07,1.31-0.12c0.47-0.12,0.95-0.24,1.36-0.36
		L323.54,62.46z"/>
	<path class="st2" d="M333.69,63.29c0.29-0.07,0.71-0.18,1.24-0.36l0.17-0.53c-0.12,0.05-0.24,0.05-0.41,0.12
		c-0.24,0.05-0.41,0.05-0.53,0.05c-0.36,0-0.59-0.05-0.71-0.12c-0.17-0.12-0.24-0.24-0.24-0.47c0-0.12,0.07-0.24,0.07-0.41
		c0.05-0.18,0.11-0.36,0.17-0.47l0.59-1.66c0.07-0.17,0.12-0.36,0.12-0.53c0-0.17,0-0.29,0-0.41c0-0.36-0.12-0.65-0.47-0.88
		c-0.29-0.24-0.77-0.36-1.36-0.36c-0.58,0-1.17,0.12-1.77,0.29c-0.54,0.18-1.07,0.47-1.54,0.83h-0.05
		c-0.12-0.36-0.36-0.59-0.65-0.77c-0.29-0.17-0.77-0.29-1.36-0.29c-0.36,0-0.71,0.05-1.12,0.17c-0.36,0.05-0.78,0.17-1.19,0.29
		l-0.05,0.17l-0.12,0.36c0,0,0.05,0,0.11,0c0.01,0,0.01,0,0.01,0v-0.01c0.06-0.04,0.16-0.05,0.28-0.05
		c0.17-0.05,0.36-0.05,0.53-0.05c0.29,0,0.53,0,0.65,0.12c0.12,0.07,0.24,0.24,0.24,0.47c0,0.12-0.07,0.24-0.12,0.41
		c-0.07,0.18-0.07,0.36-0.12,0.47l-1.12,3.67h2.6l1.31-4.31c0.41-0.3,0.77-0.47,1.12-0.59c0.36-0.12,0.59-0.17,0.77-0.17
		c0.3,0,0.47,0.05,0.59,0.17c0.12,0.12,0.17,0.24,0.17,0.41c0,0.12,0,0.24,0,0.36c-0.05,0.12-0.12,0.3-0.17,0.47l-0.53,1.6
		c-0.07,0.24-0.12,0.41-0.12,0.53c-0.05,0.18-0.05,0.3-0.05,0.36c0,0.36,0.17,0.65,0.53,0.88c0.36,0.24,0.83,0.36,1.48,0.36
		C333.04,63.41,333.4,63.41,333.69,63.29z"/>
	<path class="st2" d="M350.26,58.66c-0.07,0.12-0.12,0.3-0.12,0.47c0,0.18,0.12,0.36,0.36,0.47c0.24,0.18,0.54,0.24,0.95,0.24
		c0.3,0,0.54-0.05,0.71-0.12c0.12-0.05,0.29-0.17,0.47-0.29c0.12-0.12,0.24-0.24,0.29-0.41c0.05-0.17,0.12-0.36,0.12-0.53
		l-0.01-0.03c0-0.41-0.17-0.71-0.41-0.88c-0.24-0.24-0.59-0.36-1.07-0.36c-0.41,0-0.77,0.12-1.12,0.24
		c-0.36,0.17-0.83,0.47-1.36,0.88h-0.05c-0.07-0.36-0.3-0.59-0.59-0.77c-0.29-0.17-0.77-0.29-1.36-0.29c-0.36,0-0.77,0.05-1.12,0.17
		c-0.41,0.05-0.77,0.17-1.24,0.29l-0.17,0.53c0.18,0,0.3-0.05,0.48-0.05c0.17-0.05,0.36-0.05,0.53-0.05c0.29,0,0.53,0,0.65,0.12
		c0.12,0.07,0.18,0.24,0.18,0.47c0,0.12,0,0.24-0.07,0.41c-0.07,0.18-0.12,0.36-0.12,0.47l-1.07,3.67h2.6l1.24-4.26
		c0.24-0.17,0.47-0.36,0.71-0.53c0.24-0.17,0.53-0.29,0.88-0.41C350.43,58.37,350.31,58.54,350.26,58.66z"/>
	<path class="st2" d="M341.99,63.06c0.7-0.3,1.29-0.71,1.77-1.19l-0.53-0.41c-0.41,0.41-0.83,0.71-1.24,0.88
		c-0.47,0.17-1,0.29-1.6,0.29c-0.12,0-0.24-0.05-0.36-0.05v-0.01c-0.17,0-0.36-0.05-0.53-0.12c-0.24-0.12-0.41-0.24-0.53-0.41
		c-0.12-0.18-0.18-0.36-0.24-0.59c-0.07-0.24-0.07-0.42-0.07-0.59c0.53-0.07,1-0.07,1.36-0.12v0.01v0.01c0.07,0,0.07,0,0.12,0
		c0.41-0.05,0.88-0.17,1.48-0.29c0.71-0.18,1.31-0.42,1.72-0.71c0.41-0.29,0.65-0.71,0.65-1.12c0-0.41-0.24-0.77-0.77-1
		c-0.47-0.24-1.17-0.36-2.12-0.36c-0.36,0-0.71,0.05-1.07,0.05c-0.41,0.05-0.77,0.17-1.12,0.29c-0.66,0.17-1.19,0.47-1.66,0.77
		c-0.41,0.36-0.77,0.77-1,1.24c-0.24,0.41-0.36,0.88-0.36,1.36c0,0.36,0.07,0.71,0.24,1c0.17,0.29,0.36,0.59,0.65,0.77
		c0.36,0.24,0.71,0.42,1.19,0.59c0.47,0.11,1.07,0.17,1.66,0.17c0.17,0,0.29,0,0.41,0v0.01C340.68,63.46,341.34,63.29,341.99,63.06z
		 M339.39,58.49c0.17-0.29,0.41-0.53,0.65-0.65v0.01c0.18-0.07,0.3-0.12,0.48-0.12c0.29,0,0.53,0.12,0.65,0.29
		c0.18,0.17,0.24,0.41,0.24,0.77c0,0.36-0.07,0.59-0.24,0.83c-0.18,0.18-0.47,0.36-0.83,0.47c-0.12,0.07-0.17,0.07-0.29,0.12v-0.01
		c-0.12,0-0.3,0.05-0.47,0.05c-0.29,0.07-0.59,0.07-0.88,0.12C338.79,59.61,338.98,58.97,339.39,58.49z"/>
	<g>
		<rect x="50.68" y="34.92" class="st3" width="0" height="0"/>
		<path class="st3" d="M103.09,7.6C99.4,0.73,89.92-0.83,84.43,0.37C73.09,2.85,60.38,15.5,60.38,15.5l-5.54-3.45l9.4-6.18
			L51.9,0.66l0.03,0.01l-0.11-0.09l-0.11,0.09L39.59,5.99l10.45,5.84l-6.58,4.04c0,0-12.4-12.13-23.73-14.6
			c-5.5-1.2-14.79,0.4-18.48,7.27c-2.56,4.76-1.33,12.47,5.29,17.77c8.47,6.77,16.4,0.81,16.4,0.81
			c-2.97,0.99-10.02-0.43-14.55-3.93c-5.15-3.96-7.33-10.44-1.35-16.3C12.36,3,19.45,2.98,25.12,5.2
			c4.32,1.69,10.04,5.39,16.65,11.61l-7.28,2.76c0,0-2.89-2.35-6.17-3.36c-2.55-0.79-5.47-0.63-6.55,1.2
			c-1.03,1.23-0.43,3.94,2.77,5.58c2.49,1.27,6.28,2.13,10.34-0.35l7.57,7.07l-6.82,4.49c0,0-9.75-5.45-9.57,1.92
			c-0.04,3.9,7.23,3.95,10.62,0.72l6.65,4.44c0,0-5.46,6.96-11.1,4.7c0,0,0.05,1.75,3.89,1.91c3.84,0.16,9.71-4.68,9.71-4.68
			l5.16,6.24c-0.98,2.2-5.56,7.52-6.32,15.26c-1.34,8.24,2.23,14.74,5.43,15.2c3.52,0.51,5.15-1.54,6.26-5.66
			c-0.77,1.41-9.97,6.48-9.78-5.72c0.28-10.55,6.02-17.1,5.93-17.43c0,0,3.07,6.13,3,11.36c0.79,9.99-6.03,8.64-6.03,8.27
			c-0.09,2.07,8.78,3.92,8.39-8.36c-0.2-5.73-3.04-10.25-3.97-12.53l5.33-6.23c2.92,2.65,5.54,4.65,9.38,4.75
			c2.62,0.07,4.18-1.08,3.74-2.23c-5.65,2.26-11.6-3.81-11.6-3.81L67.68,36c3.39,3.23,11.04,3.64,11.22-0.58
			c0-8.61-12.09-2.23-12.09-2.23l-5.1-3.29l9.62-8.35c10.84,3.37,15.5-3.55,12.77-6.46c-3.96-6.12-15.17,4.56-15.17,4.56l-5.37-2.73
			C70.18,10.7,75.78,7.43,80.1,5.74c5.68-2.22,11.14-2.56,16.48,1.3c5.51,3.99,3.58,9.4,3.58,9.4c-3.85,13.39-22.83,9.47-22.83,9.47
			s12.99,6.33,21.46-0.45C105.14,20.91,105.3,11.01,103.09,7.6z M23.16,18.96c0.13-4.76,9.95,2.74,9.95,2.74
			C31.88,22.36,23.04,23.53,23.16,18.96z M34.34,35.8c0,0-5.33,4.1-6.66-0.4C26.61,30.77,36.93,36.79,34.34,35.8z M77.13,35.09
			c-1.33,4.31-6.84-0.57-6.84-0.57S78.01,31.73,77.13,35.09z M83.28,16.96c0.12,4.57-8.9,3.76-10.12,3.1
			C73.16,20.06,83.15,12.2,83.28,16.96z M45.35,6.87l6.32-3.39l0.04-0.04l0.19-0.16l0.11-0.09l0.12,0.09l5.87,3l-6.31,4L45.35,6.87z
			 M52.46,13.49l6.51,3.64l-6.64,5.56l-6.21-4.96L52.46,13.49z M50.68,34.93L50.68,34.93L50.68,34.93l-4.54-4.28l6.28-4.78
			l0.18-0.16l0.38,0.19l0.45,0.45l4.2,3.23L50.68,34.93L50.68,34.93z M37.58,22.45l6.9-3.39l5.75,4.89v0.01l-6.48,4.44L37.58,22.45z
			 M44.89,40.19l-5.83-4.37l5.66-4.01l4.95,4.41L44.89,40.19z M52.82,47.11l-0.22,0.26l-0.89-0.51l-4.27-4.66l4.36-4.49v0.01
			l5.12,4.51L52.82,47.11z M64.85,34.41L58,40.36l-4.61-3.79h-0.01l1.25-1.07l5.4-4.45L64.85,34.41z M67.5,21.23l-8.22,6.85
			l-4.78-3.88h0.6l6.65-5.74L67.5,21.23z"/>
	</g>
	<polygon class="st4" points="116.75,50.64 354.07,50.64 354.07,47.98 116.75,47.98 	"/>
</g>
</svg>
