<?xml version="1.0" encoding="utf-8"?>
<!-- Generator: Adobe Illustrator 25.4.1, SVG Export Plug-In . SVG Version: 6.00 Build 0)  -->
<svg version="1.1" xmlns="http://www.w3.org/2000/svg" xmlns:xlink="http://www.w3.org/1999/xlink" x="0px" y="0px"
	 viewBox="0 0 444.61 80" style="enable-background:new 0 0 444.61 80;" xml:space="preserve">
<style type="text/css">
	.st0{fill:#EC2127;}
</style>
<g id="Layer_2">
</g>
<g id="Layer_1">
	<g>
		<g>
			<path class="st0" d="M247.9,33.03c-3.33,8.89-6.22,18.08-8.82,27.56h13.63c2.07-5.78,3.11-12.67,6.15-17.48
				c3.48,0.44,5.85-1.85,6.82,1.33c-0.74,6-3.78,9.71-4.07,16.15h12.97c1.48-7.41,7.19-14.3,5.48-21.56
				C276.95,27.03,259.31,35.55,247.9,33.03z M219.97,33.03c-10.59,1.93-21.78,10.08-17.04,21.56c5.19,12.52,27.78,4.07,32.67-1.33
				C246.42,41.4,235.09,30.21,219.97,33.03z M214.56,48.51c-0.52-6.3,10-9.26,12.97-4.07C228.34,50.88,217.31,53.85,214.56,48.51z
				 M206.41,22.95c-0.96-3.93-5.04-3.78-9.56-2.67c-4.89,1.19-7.19,2.96-6.82,6.08C190.93,33.84,208.19,30.29,206.41,22.95z
				 M190.04,33.03c-3.7,8.45-6.3,18-8.82,27.56h13.63c2.52-9.41,5.93-17.93,8.15-27.56H190.04z M162.11,46.51
				c1.56-8.82,5.48-15.19,7.48-23.56h-14.97C153,34.88,139.51,49.4,149.14,60c7.48,1.41,17.34,0.37,25.86,0.67
				c2.15-3.26,3.85-6.96,4.07-12.15C173.67,47.62,164.41,50.51,162.11,46.51z M118.55,26.29c0.81,7.04,16.67,4.89,16.37-3.33
				C131.21,16.36,117.88,20.43,118.55,26.29z M109.73,60.66h12.97c3.48-8.67,6.08-18.23,8.82-27.56h-13.63
				C115.29,42.36,111.66,50.66,109.73,60.66z M78.39,37.77c-2.22,2.52-5.04,7.48-5.48,11.41C71.28,64,88.54,63.03,91.28,53.25
				c-1.85,0.74-5.85,1.33-6.82-0.67c-1.7-6.96,3.26-16.37,11.56-13.48c0.96,7.26-4.45,13.41-4.74,21.56h12.97
				c2.67-8.82,7.11-19.41,8.15-27.56C99.28,30.8,86.61,28.36,78.39,37.77z M52.53,35.03c1.33-3.85,3.04-7.26,3.41-12.15
				c-3.33-0.89-12-1.63-14.3,0.67c-2.96,12.37-8.96,25.19-10.22,37.04h13.63c3.48-5.56,1.56-16.37,9.56-17.48
				c4.82,3.93-2.07,11.19-2.07,16.82c3.26,1.48,9.19,0.3,13.63,0.67c0.67-6.96,7.93-16.15,5.48-23.56
				C69.28,30.21,58.53,32.06,52.53,35.03z M34.83,34.36c2-3.19,2.82-7.56,4.07-11.41H3.49c-1.04,3.78-4,8.89-3.41,12.15
				c4.07,0.44,10-0.89,12.97,0.67c-2.82,8.22-5.93,16.15-8.15,24.89h14.3c3.56-8.15,5.85-17.56,9.56-25.56
				C30.82,34.95,33.71,35.47,34.83,34.36z M356.74,21.17l-3.19-0.3l-0.67-0.3h-1.26l-1.26-0.96c0,0,1.19-1.48,0-2.22
				c0,0-8.08-3.85-8.37-6.74c0,0-2.96-1.11-2.89,1.63c0,0-0.44,0.22-0.67-0.3c0,0,0.37-0.3-4.15-2.22c0,0-2.82-0.44-3.56-1.26
				c0,0-2.22-0.22-2.22,2.89c0,0-7.48-0.22-8.96,0c0,0-1.7,0.52-0.96,3.56c0,0-5.26,2.15-6.74,0.96c0,0-1.26,3.93,1.63,5.78
				l-2.22,0.96c0,0,0.96,14.08,9.63,21.12c0,0,6.45-6.59,15.41-3.19c0,0,11.34,3.93,9.63,16.3c0,0-2,11.34-13.56,12.15
				c-0.15-0.96-0.22-1.56-0.22-1.56c13.56-1.26,12.52-13.78,12.52-13.78c-1.33-12.97-13.19-12.52-13.19-12.52
				c-7.63-0.15-10.3,4.82-10.3,4.82c-18.23-18.15-11.85-45.12-11.85-45.12c-9.71-4.3-10.89,8.67-10.89,8.67
				c-0.37,25.49,21.19,39.04,21.19,39.04l-0.67,1.26c-22.89-14.74-23.49-31.71-23.49-31.71c-5.85-0.96-6.08,6.37-6.08,6.37
				c0.15,17.63,28.89,27.56,28.89,27.56v1.63c-20.45-3.7-28.3-15.71-28.3-15.71c-1.85,0.22-2.22,4.45-2.22,4.45
				c0.89,15.93,30.52,13.41,30.52,13.41v1.93c-15.41,4-27.34-3.85-27.34-3.85c-3.63,8.37,8,10.59,8,10.59
				c8.89,1.48,20.6-4.45,20.6-4.45l0.96,1.63c-10.82,8.74-21.86,5.11-21.86,5.11c-0.15,4.89,5.48,6.08,5.48,6.08
				c8.08,1.78,17.71-9.26,17.71-9.26l1.26,0.96c-6.52,9.85-15.78,10.59-15.78,10.59c1.85,3.63,4.82,3.19,4.82,3.19
				c7.93-0.22,12.52-12.52,12.52-12.52l1.26,0.67c-2.15,9.56-9.34,11.85-9.34,11.85c0.89,1.7,3.85,1.63,3.85,1.63
				c6.59-0.37,7.41-12.82,7.41-12.82c0.59,0.15,1.63,0.3,1.63,0.3c0.67,8-2.89,10.89-2.89,10.89c3.41,1.11,4.82-0.67,4.82-0.67
				c1.33-1.11,1.33-4.52,1.04-7.04c2.37-0.22,13.63-1.7,16.89-12.45c0,0,0.81-2.59,1.26-2.89c0,0,1.48-0.07,1.63-1.63
				c0,0-0.3-1.19-0.96-1.26c0,0-1.7-1.93-1.26-2.89c0,0,0.22-0.74,1.26-1.26c0,0,1.19-0.59,0.67-1.63c0,0,0.22-0.44-2.22-1.63
				c0,0-2.07-1.63-2.22-6.08c0,0,0.15-0.96,1.63-0.3c0,0,3.41,0.96,4.15-1.63l0.3-2.89v-0.67c0,0-1.41,1.7-2.89,1.26
				c0,0-2.67-0.07-2.22-3.85c0,0,1.04-4.52,4.82-3.56c0,0,1.56,0.22,1.63,2.22c0,0,3.11-1.85,2.89-5.11l-0.3-0.3V23.4h0.3
				C357.7,23.4,358,21.47,356.74,21.17z M334.88,20.58c-1.11-0.59-1.63-1.26-1.63-1.26c-1.11-2,0.67-2.89,0.67-2.89
				c2.74-0.89,3.85,1.26,3.85,1.26C332.59,16.58,334.88,20.58,334.88,20.58z M348.37,23.1l-1.63-1.63V20.8h2.22l0.67-0.3
				L348.37,23.1z M422.75,33.69c-2.59,8.89-5.48,17.41-8.15,26.23h13.63c1.85-5.56,2.22-12.6,6.15-16.15
				c5.48,0.15,8.37-3.63,10.22-8.74C439.72,30.66,430.46,34.73,422.75,33.69z M421.42,21.62c-5.19-3.93-16.3-1.78-15.63,6.08
				C409.71,32.81,423.42,30.66,421.42,21.62z M405.05,33.03c-2.74,8.74-7.04,19.49-8.15,27.56h12.97
				c2.74-8.74,7.11-19.41,8.15-27.56H405.05z M380.52,30.36c-14.3,0.74-25.04,15.85-18.37,28.97c6.74,3.56,14.67-0.44,16.37-6.08
				c-2.3,1.04-6.74,1.11-7.48-1.33c-0.22-8.15,4.07-15.19,12.22-12.82c-0.22,8.74-3.93,14.08-5.48,21.56h13.63
				c2.59-9.34,6.22-17.63,8.15-27.56C392.23,33.84,386.97,29.99,380.52,30.36z"/>
		</g>
	</g>
</g>
</svg>
