<?xml version="1.0" encoding="utf-8"?>
<!-- Generator: Adobe Illustrator 25.4.1, SVG Export Plug-In . SVG Version: 6.00 Build 0)  -->
<svg version="1.1" id="Layer_4" xmlns="http://www.w3.org/2000/svg" xmlns:xlink="http://www.w3.org/1999/xlink" x="0px" y="0px"
	 viewBox="0 0 495.42 80.27" style="enable-background:new 0 0 495.42 80.27;" xml:space="preserve">
<style type="text/css">
	.st0{fill:#F48321;}
	.st1{fill:#3B0E61;}
</style>
<g>
	<path class="st0" d="M467.09,49.68c-2.74,3.08-6.46,4.62-11.38,4.62c-5.04,0-9.55-1.54-13.91-4.62c-4.26-3.18-6.97-6.98-8.12-11.39
		c-1.16-4.41-0.43-8.21,2.2-11.29c2.71-3.19,6.43-4.73,11.46-4.73c4.91,0,9.43,1.54,13.81,4.73c4.47,3.08,7.18,6.88,8.33,11.29
		C470.64,42.7,469.92,46.5,467.09,49.68L467.09,49.68z M494.19,38.29c-2.77-10.57-9.37-19.61-19.65-26.99
		C464.23,3.79,453.28,0,441.51,0c-11.78,0-20.73,3.79-27.12,11.29c-6.31,7.39-8.18,16.42-5.42,26.99c2.73,10.47,9.32,19.5,19.51,27
		c10.29,7.39,21.23,11.19,33.02,11.19c11.79,0,20.76-3.8,27.17-11.19C495.07,57.79,496.94,48.76,494.19,38.29L494.19,38.29z
		 M238.81,47.86l-0.97,2.64c-1.58,3.51-7.01,6.15-11.61,6.15s-9.27-1.89-12.48-5.2c-3.32-3.21-4.28-6.95-4.28-11.55
		c0-4.6,1.6-8.55,4.92-11.77c3.2-3.32,7.27-4.92,11.86-4.92c4.6,0,8.56,1.6,11.87,4.92l0.36,0.37l7.95-22.93
		C242.11,2.44,236.73,0,226.25,0c-10.9,0-20.31,3.84-28.12,11.66c-7.81,7.81-11.66,17.22-11.66,28.23
		c0,10.91,3.85,20.32,11.66,28.13c5.47,5.47,11.75,9.16,18.79,10.87C229.7,78.47,238.81,47.86,238.81,47.86L238.81,47.86z"/>
	<path class="st1" d="M60.3,0.39l26.42,76.25H112L85.64,0.56L60.3,0.39z M53.98,0.34L26.34,0.59L0,76.64h23.35l2.71-7.66
		l13.28-38.34l0.05,0.14l0.05-0.14l5.17,14.87h-0.07l6.53,18.65h0.07l4.9,12.48h24.37C80.41,76.64,53.98,0.34,53.98,0.34z
		 M141.77,41.9h-14.28l-6.24-18.14h15.62c5.64,0,11.14,4.06,12.48,9.01C150.68,37.72,147.4,41.9,141.77,41.9z M153.52,65.42
		l12.58,11.22h32.97l-25.62-23.2c3.81-5.83,4.75-12.76,2.6-20.67c-2.44-9.01-8.26-16.92-17.09-23.3
		c-8.83-6.38-18.39-9.13-28.43-9.13L91.95,0.58l26.35,76.05h21.26l-3.83-10.89h12.49C150.06,65.75,151.84,65.53,153.52,65.42z
		 M280.87,0.3l-0.04-0.1H255.5l-16.69,47.66c0,0-9.11,30.61-21.89,31.03c2.99,0.73,6.11,1.11,9.37,1.11
		c11.83,0,24.89-4.6,29.49-15.11l6.67-16.77h-0.02l5.24-15.08l15.29,43.76h24.74L281.13,0.15C281.13,0.15,280.87,0.3,280.87,0.3z
		 M370.51,41.88h-15.78l-6.32-18.27h17.13c5.72,0,11.31,4.1,12.66,9.08C379.55,37.67,376.23,41.88,370.51,41.88L370.51,41.88z
		 M402.64,53.51c3.87-5.87,4.82-12.85,2.64-20.82c-2.47-9.08-8.38-17.06-17.34-23.47c-8.96-6.42-18.65-9.19-28.84-9.19l-40.05,0.25
		l26.51,76.53h21.27l-3.7-10.89h13.92c1.86,0,3.67-0.22,5.38-0.33l12.75,11.23h33.44L402.64,53.51z M311.57,0.2H289.5l-2.05-0.02
		L314,76.8h25.28L312.79,0.18L311.57,0.2L311.57,0.2z"/>
</g>
</svg>
