<svg width="80" height="80" viewBox="0 0 80 80" fill="none" xmlns="http://www.w3.org/2000/svg">
<path d="M8.11083 76.2424C11.311 76.2424 13.9052 73.6482 13.9052 70.448C13.9052 67.2478 11.311 64.6536 8.11083 64.6536C4.91066 64.6536 2.31641 67.2478 2.31641 70.448C2.31641 73.6482 4.91066 76.2424 8.11083 76.2424Z" fill="#E5002B"/>
<path d="M69.8642 76.1168C72.9951 76.1168 75.5331 73.5788 75.5331 70.4479C75.5331 67.3171 72.9951 64.7791 69.8642 64.7791C66.7334 64.7791 64.1953 67.3171 64.1953 70.4479C64.1953 73.5788 66.7334 76.1168 69.8642 76.1168Z" fill="#E5002B"/>
<path d="M38.9974 80.0001C44.2728 80.0001 48.5494 75.7235 48.5494 70.448C48.5494 65.1726 44.2728 60.896 38.9974 60.896C33.7219 60.896 29.4453 65.1726 29.4453 70.448C29.4453 75.7235 33.7219 80.0001 38.9974 80.0001Z" fill="#E5002B"/>
<path d="M8.11057 47.6753C12.5899 47.6753 16.2211 44.044 16.2211 39.5647C16.2211 35.0854 12.5899 31.4542 8.11057 31.4542C3.63122 31.4542 0 35.0854 0 39.5647C0 44.044 3.63122 47.6753 8.11057 47.6753Z" fill="#E5002B"/>
<path d="M69.874 49.0519C75.1137 49.0519 79.3613 44.8043 79.3613 39.5647C79.3613 34.325 75.1137 30.0774 69.874 30.0774C64.6343 30.0774 60.3867 34.325 60.3867 39.5647C60.3867 44.8043 64.6343 49.0519 69.874 49.0519Z" fill="#E5002B"/>
<path d="M38.9953 50.4975C45.0334 50.4975 49.9282 45.6027 49.9282 39.5647C49.9282 33.5266 45.0334 28.6318 38.9953 28.6318C32.9573 28.6318 28.0625 33.5266 28.0625 39.5647C28.0625 45.6027 32.9573 50.4975 38.9953 50.4975Z" fill="#E5002B"/>
<path d="M69.8652 17.3711C74.6621 17.3711 78.5507 13.4824 78.5507 8.68553C78.5507 3.88864 74.6621 0 69.8652 0C65.0683 0 61.1797 3.88864 61.1797 8.68553C61.1797 13.4824 65.0683 17.3711 69.8652 17.3711Z" fill="#E5002B"/>
<path d="M38.9925 15.0023C42.4812 15.0023 45.3093 12.1742 45.3093 8.68552C45.3093 5.19688 42.4812 2.36877 38.9925 2.36877C35.5039 2.36877 32.6758 5.19688 32.6758 8.68552C32.6758 12.1742 35.5039 15.0023 38.9925 15.0023Z" fill="#E5002B"/>
<path d="M8.10639 14.3545C11.2372 14.3545 13.7753 11.8165 13.7753 8.68561C13.7753 5.55477 11.2372 3.01672 8.10639 3.01672C4.97555 3.01672 2.4375 5.55477 2.4375 8.68561C2.4375 11.8165 4.97555 14.3545 8.10639 14.3545Z" fill="#E5002B"/>
</svg>
