<?xml version="1.0" encoding="utf-8"?>
<!-- Generator: Adobe Illustrator 25.4.1, SVG Export Plug-In . SVG Version: 6.00 Build 0)  -->
<svg version="1.1" id="Layer_1" xmlns="http://www.w3.org/2000/svg" xmlns:xlink="http://www.w3.org/1999/xlink" x="0px" y="0px"
	 viewBox="0 0 66.66 80" style="enable-background:new 0 0 66.66 80;" xml:space="preserve">
<style type="text/css">
	.st0{fill-rule:evenodd;clip-rule:evenodd;fill:#007AB3;}
	.st1{fill:#007AB3;}
	.st2{fill:#003568;}
	.st3{fill-rule:evenodd;clip-rule:evenodd;fill:#3ABCDA;}
	.st4{fill-rule:evenodd;clip-rule:evenodd;fill:#003568;}
</style>
<path class="st0" d="M25.22,11.89L40,26.66l-8.79,30.95l-11.2-10.99L13.35,20L25.22,11.89z"/>
<path class="st1" d="M49.99,49.99h16.67L53.32,62.22l-22.13-4.6L49.99,49.99z"/>
<path class="st2" d="M53.32,62.22l-20,5.48L9.99,80L31.2,57.63L53.32,62.22z"/>
<path class="st3" d="M20,69.44L0,73.32l9.99,6.66L20,69.44z"/>
<path class="st4" d="M49.99,49.99h16.67l-8.45-3.33L49.99,49.99z"/>
<path class="st4" d="M63.73,52.66l2.92,2.92v-5.6L63.73,52.66z"/>
<path class="st3" d="M49.99,49.99L40,26.66l-8.79,30.95L49.99,49.99z"/>
<path class="st4" d="M13.34,20l3.33-16.67L3.33,0L13.34,20z"/>
<path class="st3" d="M25.22,11.89l-8.55-8.55L13.34,20L25.22,11.89z"/>
</svg>
