<?xml version="1.0" encoding="utf-8"?>
<!-- Generator: Adobe Illustrator 25.4.1, SVG Export Plug-In . SVG Version: 6.00 Build 0)  -->
<svg version="1.1" id="Layer_1" xmlns="http://www.w3.org/2000/svg" xmlns:xlink="http://www.w3.org/1999/xlink" x="0px" y="0px"
	 viewBox="0 0 190.3 80" style="enable-background:new 0 0 190.3 80;" xml:space="preserve">
<style type="text/css">
	.st0{fill-rule:evenodd;clip-rule:evenodd;fill:#007AB3;}
	.st1{fill:#007AB3;}
	.st2{fill:#003568;}
	.st3{fill-rule:evenodd;clip-rule:evenodd;fill:#3ABCDA;}
	.st4{fill-rule:evenodd;clip-rule:evenodd;fill:#003568;}
</style>
<path class="st0" d="M148.87,11.89l14.78,14.78l-8.79,30.95l-11.2-10.99L136.99,20L148.87,11.89z"/>
<path class="st1" d="M173.64,49.99h16.67l-13.34,12.22l-22.13-4.6L173.64,49.99z"/>
<path class="st2" d="M176.97,62.22l-20,5.48L133.64,80l21.21-22.37L176.97,62.22z"/>
<path class="st3" d="M143.64,69.44l-20,3.89l9.99,6.66L143.64,69.44z"/>
<path class="st4" d="M173.64,49.99h16.67l-8.45-3.33L173.64,49.99z"/>
<path class="st4" d="M187.38,52.66l2.92,2.92v-5.6L187.38,52.66z"/>
<path class="st3" d="M173.64,49.99l-9.99-23.33l-8.79,30.95L173.64,49.99z"/>
<path class="st4" d="M136.98,20l3.33-16.67L126.97,0L136.98,20z"/>
<path class="st3" d="M148.87,11.89l-8.55-8.55L136.98,20L148.87,11.89z"/>
<path class="st2" d="M82.07,35.46c0.4,0,0.73,0.32,0.73,0.73v4.39c0,0.4-0.32,0.73-0.73,0.73l-8.55-0.01v22.44
	c0.05,2.75,0.74,3.86,4.01,3.86h4.1c0.65-0.01,1.18,0.51,1.19,1.15l0,0v3.49c0,0.65-0.53,1.17-1.19,1.17h-4.38
	c-6.51-0.03-10.15-2.84-10.15-9.46V27.83c0-0.65,0.53-1.17,1.18-1.17l0,0H71c0.58,0.03,1.08,0.45,1.18,1.04l1.08,6.18l-3.68,0.49
	c-0.29,0.05-0.49,0.31-0.44,0.61V35c0.05,0.3,0.34,0.51,0.64,0.47L82.07,35.46z M55.7,46.51c-0.29-3.58-2.33-5.2-5.94-5.21H34.84
	c-0.4,0-0.73-0.32-0.73-0.71l0,0V36.2c0-0.4,0.32-0.73,0.71-0.73l0,0h14.94c8.22,0,12.4,4.68,12.4,11.72v16.75
	c0,6.64-3.66,9.48-10.15,9.48h-8.96c-7.12,0-11.52-3.71-11.52-9.86c0-7.61,6.88-12.78,24.2-15.42l3.95-0.53
	c0.29-0.05,0.48-0.31,0.44-0.61v-0.01c-0.05-0.3-0.34-0.51-0.64-0.47L55.7,46.51z M43.34,67.58h8.43c3.23,0,3.93-1.18,3.97-3.94
	V53.58c-15.61,2.59-17.76,6.58-17.76,9.77C37.98,66.01,39.61,67.58,43.34,67.58L43.34,67.58z M109.18,46.51
	c-0.29-3.58-2.33-5.2-5.94-5.21H88.32c-0.4,0-0.73-0.32-0.73-0.73v-4.38c0-0.4,0.32-0.73,0.73-0.73h14.93
	c8.22,0,12.4,4.68,12.4,11.72v16.75c0,6.64-3.66,9.48-10.15,9.48h-8.96c-7.12,0-11.52-3.71-11.52-9.86c0-7.61,6.88-12.78,24.2-15.42
	l3.95-0.53c0.29-0.05,0.49-0.31,0.44-0.61v-0.01c-0.05-0.3-0.34-0.51-0.64-0.47L109.18,46.51z M96.81,67.58h8.43
	c3.23,0,3.93-1.18,3.97-3.94V53.58c-15.61,2.59-17.76,6.58-17.76,9.77C91.46,66.01,93.08,67.58,96.81,67.58L96.81,67.58z M0,45.42
	c0-5.5,5.13-9.94,11.48-9.94l14.87-0.01c0.4,0,0.73,0.32,0.73,0.73v4.38c0,0.4-0.32,0.71-0.73,0.71H11.13
	c-2.59,0-4.71,1.57-4.71,3.81c0,2.32,1.08,3.49,7.71,5.29c9.19,2.49,14.63,4.83,14.63,12.08c0,6.04-5.66,10.94-12.65,10.94H1.75
	c-0.4,0-0.73-0.32-0.73-0.73v-4.37c0-0.4,0.32-0.73,0.71-0.73l0,0h14.7c3.2,0,5.88-2.05,5.88-4.81c0-3.08-2.57-4.56-9.23-6.38
	C5.65,54.37,0,52.27,0,45.42z"/>
</svg>
