<svg width="80" height="80" viewBox="0 0 80 80" fill="none" xmlns="http://www.w3.org/2000/svg">
<path d="M29.5382 73.6823H23.9898L35.1915 55.8742C35.1915 55.8742 36.8697 52.1801 34.6776 48.2818L19.0568 22.2263C19.0568 22.2263 17.6898 19.8106 19.0568 17.4934L23.6787 10.5244L42.0055 40.6895C42.0055 40.6895 46.7288 47.007 41.593 54.8318L29.5382 73.6823Z" fill="#F99F1C"/>
<path d="M42.9249 67.8285L49.8431 57.4418C49.8431 57.4418 51.8593 53.1549 57.0772 53.1549H64.4142L69.5256 61.1094C69.5256 61.1094 65.4897 60.6999 63.6794 63.5416L56.133 74.7542C56.133 74.7542 53.6696 80 47.0921 80H11.55L25.074 59.5346C25.074 59.5346 26.9872 57.1339 24.3143 53.1549L12.2847 34.0822C12.2847 34.0822 9.32436 31.2651 12.3912 26.4322L15.9053 21.1864L32.6275 47.9055C32.6275 47.9055 35.5879 51.5765 32.6275 55.9685L20.0726 75.2686H46.542C46.542 75.2686 49.5307 75.8145 52.0971 72.042L58.6781 62.0647C58.6781 62.0647 60.1724 58.7052 63.4736 57.3368H58.1527C58.1527 57.3368 55.3734 57.4383 53.2507 60.6964L47.4045 69.6063C47.4045 69.6063 45.2818 73.3823 40.5928 73.3823H31.3426L42.5096 56.301C42.5096 56.301 48.5901 48.4199 44.3199 41.1864L25.8123 11.0061C25.8123 11.0061 24.4244 8.39895 26.0217 5.97025L30.0576 0L51.128 33.4628C51.128 33.4628 54.2198 38.4742 54.2198 42.3517C54.2198 46.2257 51.7563 50.6212 50.3933 52.8434L41.1146 67.1076C41.1146 67.1076 40.0675 68.4759 40.7987 68.9939C41.5619 69.5083 42.2966 68.5774 42.9249 67.8285Z" fill="#F99F1C"/>
</svg>
