<svg width="616" height="80" viewBox="0 0 616 80" fill="none" xmlns="http://www.w3.org/2000/svg">
<g clip-path="url(#clip0_705_342)">
<path d="M537.592 79.9996L540.257 76.5807H0.882812V79.9996" fill="#FCB130"/>
<path d="M569.662 72.7448C569.662 72.7448 580.015 57.0787 581.155 55.4575C582.503 53.5634 582.503 50.4334 581.267 48.8283C580.801 47.9615 564.927 22.4238 564.927 22.4238C563.418 19.679 563.819 17.817 564.718 16.4045C566.259 14.0931 568.233 11.1076 568.233 11.1076C568.233 11.1076 586.917 40.9631 587.752 42.3114C589.822 45.7143 589.405 49.2296 587.431 52.0225C585.761 54.4623 573.771 72.7448 573.771 72.7448" fill="#FCB130"/>
<path d="M563.883 75.634C563.883 75.634 576.885 56.5169 578.008 55.0883C579.325 53.3066 579.084 50.6581 578.008 49.1493C577.511 48.2665 560.673 22.183 560.673 22.183C560.673 22.183 558.201 25.8748 557.27 27.3194C556.339 28.6998 555.793 30.4976 557.463 33.3226C557.463 33.3226 569.79 52.6966 570.239 53.5313C571.251 55.1204 571.203 58.0417 570.047 59.8395C569.164 61.3804 556.532 79.7432 556.532 79.7432H592.936C596.66 79.7432 598.699 78.3307 600.544 75.7464C602.005 73.6115 608.04 64.8315 609.02 63.451C609.902 62.0385 611.78 61.2039 612.471 61.2039H615.408L609.838 52.7127H602.422C600.641 52.7127 598.634 54.2536 597.511 55.8106C596.788 57.0465 590.657 66.1316 589.63 67.5602C588.987 68.4751 588.137 69.1493 587.254 69.1493H584.991C585.328 68.427 595.841 53.0979 597.896 49.8234C600.384 45.7785 600.914 40.4815 597.976 35.3933C596.965 33.5634 575.697 0 575.697 0C575.697 0 573.113 3.88443 571.973 5.66613C570.962 7.0626 571.09 9.03692 572.647 11.6693C572.647 11.6693 590.593 40.2568 591.459 41.573C593.53 44.7994 593.193 49.1011 591.459 52.0385C590.031 54.4141 577.671 72.9374 577.671 72.9374H586.965C590.496 72.9374 591.524 71.7656 592.326 70.5136C593.193 69.2777 599.068 60.7063 599.71 59.7753C600.336 58.9246 601.877 56.549 603.899 56.549H610.721V57.9775C607.864 58.2664 606.724 59.1172 605.761 60.4655C604.718 61.7817 597.703 71.8941 596.981 72.9695C596.034 74.3178 595.119 75.6661 592.342 75.6661" fill="#FCB130"/>
<path d="M0.433387 62.0383H18.5072C25.6661 62.0383 29.0048 57.4958 29.0048 52.6804C29.0048 47.9452 25.6661 43.3385 18.5072 43.3385H9.67897C7.70466 43.3385 6.4687 42.1988 6.4687 40.064C6.4687 37.8329 7.72071 36.7093 9.67897 36.7093H28.6035V30.8666H10.4173C3.41894 30.8666 0 34.9276 0 40.1764C0 45.3289 3.41894 49.438 10.4173 49.438H19.1653C21.2039 49.438 22.504 50.5937 22.504 52.8088C22.504 55.072 21.1878 56.2277 19.1653 56.2277H0.321027" fill="#26497F"/>
<path d="M118.025 62.1508H104.077C92.3592 62.1508 86.6289 53.7399 86.6289 46.5168C86.6289 39.2615 92.3753 30.8827 104.077 30.8827H118.09L118.057 36.6131H103.194C97.4315 36.6131 93.4507 39.9036 93.4507 46.2599C93.4507 52.7286 97.4475 56.0994 103.194 56.0994H111.204V41.7013H118.041" fill="#26497F"/>
<path d="M42.9216 30.8666H36.0195V62.0383H42.9216V30.8666Z" fill="#26497F"/>
<path d="M58.186 36.613V62.0383H51.332V30.8666H58.1699V36.0512L62.1025 30.8666H71.0271C77.1426 30.8666 80.9468 35.2486 80.9468 40.6579V62.0383H74.0126V41.4605C74.0126 39.133 72.263 36.613 69.5182 36.613" fill="#26497F"/>
<path d="M254.638 50.4332L264.397 62.0223H256.162L242.583 45.6499H250.914C253.466 45.6499 255.087 43.3385 255.087 41.1555C255.087 38.9725 253.466 36.5969 250.914 36.5969H240.288V62.0223H233.578V30.8666H251.315C257.382 30.8666 261.459 35.5857 261.459 40.995C261.459 45.2486 258.859 49.117 254.718 50.4332" fill="#26497F"/>
<path d="M275.908 36.613V42.6804H291.863V48.3626H275.908V56.3561H294.175V62.0383H269.07V30.8666H294.175V36.613" fill="#26497F"/>
<path d="M180.498 30.8666H162.777V62.0383H169.567V46.9019L173.5 52.1828H180.498C186.63 52.1828 190.739 47.2069 190.739 41.5247C190.739 35.8746 186.63 30.8666 180.498 30.8666ZM180.257 46.4043H169.567V36.5969H180.257C182.665 36.5969 184.302 39.1812 184.302 41.5247C184.302 43.9484 182.665 46.4043 180.257 46.4043Z" fill="#26497F"/>
<path d="M211.379 29.4706C202.07 29.4706 194.445 37.0628 194.445 46.4047C194.445 55.7948 202.054 63.3068 211.379 63.3068C220.802 63.3068 228.314 55.7627 228.314 46.4047C228.314 37.0628 220.802 29.4706 211.379 29.4706ZM211.379 57.0789C205.537 57.0789 200.802 52.3116 200.802 46.4047C200.802 40.5781 205.537 35.7145 211.379 35.7145C217.27 35.7145 222.086 40.562 222.086 46.4047C222.086 52.3277 217.27 57.0789 211.379 57.0789Z" fill="#26497F"/>
<path d="M143.979 30.8666H136.916L121.684 62.0383H129.196L133.241 53.0817H147.751L151.748 62.0383H159.228L143.979 30.8666ZM135.103 48.491L140.448 35.7301L145.729 48.4589L135.103 48.491Z" fill="#26497F"/>
<path d="M513.677 61.9099H531.719C538.83 61.9099 542.281 57.3031 542.281 52.5359C542.281 47.8168 538.83 43.1298 531.719 43.1298C528.669 43.1298 522.955 43.1779 522.955 43.1779C520.916 43.1779 519.632 42.0383 519.632 39.9035C519.632 37.7205 520.916 36.6129 522.955 36.6129H541.815V30.7221H523.709C516.647 30.7221 513.18 34.8473 513.18 40.0479C513.18 45.1523 516.663 49.2775 523.709 49.2775H532.345C534.448 49.2775 535.828 50.4492 535.828 52.7285C535.828 54.9275 534.448 56.1314 532.345 56.1314H513.549" fill="#26497F"/>
<path d="M356.468 30.8189H349.598V62.0067H356.468V30.8189Z" fill="#26497F"/>
<path d="M435.873 30.8189H429.02V62.0067H435.873V30.8189Z" fill="#26497F"/>
<path d="M451.09 36.5974V62.0067H444.316V30.8189H451.09V36.0196L455.087 30.8189H464.06C470.095 30.8189 473.915 35.2491 473.915 40.6103V62.0228H466.997V41.461C466.997 39.1014 465.296 36.5974 462.487 36.5974H451.09Z" fill="#26497F"/>
<path d="M386.983 50.4016L396.742 62.0228H388.523L375.008 45.6665H383.387C385.891 45.6665 387.464 43.3069 387.464 41.14C387.464 38.9409 385.891 36.6135 383.387 36.6135H372.633V62.0228H365.875V30.8189H383.724C389.775 30.8189 393.949 35.5862 393.949 40.9152C393.933 45.2652 391.284 49.1014 386.983 50.4016Z" fill="#26497F"/>
<path d="M488.7 36.6135V42.6809H504.639V48.347H488.7V56.3567L506.983 56.3085V62.0228H481.895V30.8189H506.983V36.6135" fill="#26497F"/>
<path d="M408.249 30.8189V56.3567L424.269 56.3085V62.0228H401.363V30.8189" fill="#26497F"/>
<path d="M330.081 30.8189H322.987L307.754 62.0067H315.234L319.263 53.018L333.725 53.0501L337.722 62.0067H345.266L330.081 30.8189ZM321.221 48.4594L326.518 35.6825L331.799 48.3791L321.221 48.4594Z" fill="#26497F"/>
</g>
<defs>
<clipPath id="clip0_705_342">
<rect width="615.393" height="80" fill="white"/>
</clipPath>
</defs>
</svg>
