<?xml version="1.0" encoding="utf-8"?>
<!-- Generator: Adobe Illustrator 25.4.1, SVG Export Plug-In . SVG Version: 6.00 Build 0)  -->
<svg version="1.1" id="Layer_2_00000159471598350358213750000014612203606435250611_"
	 xmlns="http://www.w3.org/2000/svg" xmlns:xlink="http://www.w3.org/1999/xlink" x="0px" y="0px" viewBox="0 0 101.4 80"
	 style="enable-background:new 0 0 101.4 80;" xml:space="preserve">
<style type="text/css">
	.st0{enable-background:new    ;}
	.st1{fill:#373435;}
	.st2{fill:#CC007B;}
</style>
<g>
	<g class="st0">
		<g>
			<g>
				<g class="st0">
					<g>
						<g>
							<path class="st1" d="M63.1,53.6v25.8h4.4V53.6c-0.7,0.2-1.5,0.2-2.3,0.2C64.6,53.9,63.8,53.8,63.1,53.6 M51,75.7
								c-1.2,0.3-2.4,0.4-3.6,0.5c-1.2,0.1-2.5,0.1-3.7,0.1c-1.7,0-3.1-0.5-4.3-1.3c-1.1-0.8-1.7-2.1-1.7-4c0-1,0.2-1.9,0.6-2.6
								c0.4-0.7,0.9-1.3,1.5-1.7c0.6-0.4,1.4-0.8,2.2-1s1.7-0.3,2.6-0.3c1.2,0,2.3,0.1,3.4,0.3c1.1,0.2,2.1,0.5,3,0.8L51,75.7
								L51,75.7z M49.4,79.6c2-0.3,4-0.8,6-1.5V59.5c0-1.6-0.3-2.9-0.9-4.1c-0.6-1.2-1.4-2.1-2.4-2.9s-2.2-1.3-3.5-1.7
								c-1.3-0.4-2.6-0.6-4-0.6c-1.8,0-3.6,0.4-5.4,1.1c-1.8,0.8-3.4,1.9-4.7,3.3l2.8,2.7c0.8-1.1,1.9-1.9,3.2-2.3
								c1.3-0.5,2.6-0.7,3.9-0.7c0.8,0,1.7,0.1,2.5,0.3c0.8,0.2,1.5,0.6,2.1,1s1.1,1,1.5,1.6c0.4,0.6,0.6,1.4,0.6,2.2v3.8
								c-2.2-0.9-4.5-1.4-6.8-1.4c-1.4,0-2.7,0.2-4,0.6c-1.3,0.4-2.4,0.9-3.4,1.7c-1,0.7-1.8,1.7-2.4,2.8c-0.6,1.1-0.9,2.5-0.9,4.1
								c0,1.6,0.3,2.9,0.8,4c0.5,1.1,1.3,2,2.1,2.8c0.9,0.7,2,1.3,3.2,1.7c1.3,0.4,2.6,0.6,4,0.6C45.5,80,47.5,79.9,49.4,79.6z
								 M88.7,54.6v-4.1c-0.4-0.1-0.8-0.1-1.3-0.2s-0.8-0.1-1.3-0.1c-1.3,0-2.5,0.2-3.8,0.6s-2.4,1-3.4,1.8s-1.9,1.8-2.5,3
								c-0.6,1.2-1,2.6-1,4.2v19.6h4.4V59.8c0-0.9,0.2-1.7,0.5-2.3c0.4-0.7,0.8-1.2,1.4-1.7c0.6-0.5,1.3-0.8,2-1
								c0.8-0.2,1.6-0.3,2.5-0.3c0.4,0,0.8,0,1.2,0C87.9,54.5,88.3,54.5,88.7,54.6z"/>
							<path class="st1" d="M0,38.8c1.5,2,3.3,3.4,5.2,4.2c2,0.8,4,1.2,6.3,1.2c1.5,0,2.9-0.2,4.3-0.6c1.4-0.4,2.6-1.1,3.7-2
								c1.1-0.9,1.9-2,2.6-3.3c0.6-1.3,1-2.8,1-4.6c0-1.5-0.3-2.8-0.9-3.9c-0.6-1.1-1.3-2-2.2-2.7c-0.9-0.7-1.9-1.3-3-1.8
								c-1.1-0.5-2.1-0.8-3.1-1c-0.3,0-0.7-0.2-1.3-0.4c-0.5-0.2-1-0.5-1.5-0.8c-0.5-0.3-0.8-0.7-1.1-1c-0.3-0.4-0.4-0.8-0.4-1.3
								c0.1-0.9,0.4-1.6,1-2c0.6-0.4,1.2-0.6,1.9-0.6c0.9,0,1.9,0.2,2.9,0.6c1,0.4,1.8,0.9,2.3,1.4l4.3-5.9
								c-1.6-1.3-3.4-2.2-5.3-2.7s-3.5-0.7-4.9-0.7c-1.8,0-3.3,0.3-4.7,0.8c-1.4,0.6-2.5,1.3-3.4,2.2c-0.9,0.9-1.6,2-2.1,3.2
								c-0.5,1.2-0.7,2.4-0.7,3.7c0,1.1,0.2,2.3,0.6,3.4c0.4,1.1,1.1,2.1,1.9,3.1c0.9,0.9,1.9,1.8,3.2,2.5c1.3,0.7,2.9,1.2,4.7,1.5
								c1.4,0.2,2.4,0.7,2.9,1.5c0.5,0.8,0.6,1.6,0.2,2.6c-0.5,0.9-1.3,1.4-2.6,1.4c-1.1,0-2.4-0.3-3.8-0.9
								c-1.4-0.6-2.7-1.5-3.9-2.7L0,38.8z"/>
							<path class="st1" d="M92.8,37.2c-0.7,0.4-1.6,0.6-2.6,0.6c-1,0.1-1.9,0-2.8-0.3c-0.9-0.3-1.6-0.7-2.2-1.3
								c-0.6-0.6-0.9-1.4-1-2.3V21.5c0.1-0.9,0.5-1.6,1.1-2.2s1.4-0.9,2.2-1.2c0.9-0.2,1.8-0.3,2.7-0.2c0.9,0.1,1.7,0.4,2.4,0.7
								L92.8,37.2L92.8,37.2z M101.4,0h-8.7v12.2c-1.6-0.7-3.4-1.1-5.3-1.1c-1.5,0-2.9,0.3-4.4,0.8c-1.4,0.5-2.7,1.2-3.8,2.2
								s-2,2.1-2.7,3.4c-0.7,1.3-1,2.9-1,4.5v11.3c0.2,2.1,0.6,3.8,1.4,5.2c0.8,1.4,1.8,2.6,3,3.4c1.2,0.9,2.6,1.5,4.1,1.9
								s3.1,0.6,4.8,0.6c2,0,4.1-0.2,6.3-0.6c2.2-0.4,4.2-1,6.2-1.8L101.4,0L101.4,0z"/>
							<path class="st1" d="M70,35.3V12.8c0-2.1-0.4-3.9-1.2-5.4C68,5.9,67,4.7,65.7,3.8c-1.3-0.9-2.8-1.6-4.4-2
								c-1.7-0.4-3.4-0.6-5.2-0.6c-2,0-4,0.3-5.9,0.7s-3.9,1.2-5.6,2v7.3h0v24.9c-1,0.4-2,0.6-3.1,0.6c-1.4,0-2.7-0.4-3.8-1.2
								c-1.1-0.8-1.6-2.1-1.6-4V11.2h-8.6v20.8c0,2.3,0.4,4.2,1.1,5.7c0.7,1.5,1.7,2.7,3,3.7s2.7,1.6,4.3,1.9s3.3,0.6,5.1,0.6
								c2.2,0,4.4-0.2,6.4-0.7c2.1-0.5,4-1,5.7-1.6v-7.7l0,0v-24c1-0.6,2.3-0.9,3.6-0.9c1.2,0,2.3,0.3,3.4,1c1,0.7,1.5,1.8,1.5,3.2
								V35c1.2-0.5,2.5-0.7,3.9-0.7C67.1,34.2,68.6,34.6,70,35.3"/>
							<path class="st2" d="M70.9,42.7c-0.6-2.5-2.9-4.4-5.6-4.4c-3.2,0-5.7,2.6-5.7,5.7c0,3.2,2.6,5.7,5.7,5.7
								c2.7,0,4.9-1.9,5.5-4.3c-0.5,0.2-1,0.4-1.5,0.4c-1.7,0.2-3.2-0.4-4.4-1.4c-0.1-0.1-0.8,0.3-0.9,0.3c-0.1-0.1,0.5-0.6,0.4-0.7
								c0.9,0.2,1.9,0.3,2.8,0.2C68.7,44,69.9,43.5,70.9,42.7"/>
						</g>
					</g>
				</g>
			</g>
		</g>
	</g>
</g>
</svg>
