<?xml version="1.0" encoding="utf-8"?>
<!-- Generator: Adobe Illustrator 25.4.1, SVG Export Plug-In . SVG Version: 6.00 Build 0)  -->
<svg version="1.1" id="Layer_1" xmlns="http://www.w3.org/2000/svg" xmlns:xlink="http://www.w3.org/1999/xlink" x="0px" y="0px"
	 viewBox="0 0 282.62 80" style="enable-background:new 0 0 282.62 80;" xml:space="preserve">
<style type="text/css">
	.st0{fill:#00529B;}
	.st1{fill:#F47920;}
	.st2{fill:url(#path66_00000094609000426827342200000002532521049105351809_);}
	.st3{fill:url(#path77_00000155858607066325637880000018088602169205999527_);}
	.st4{fill:url(#path92_00000092425878685996539460000010133433633064712123_);}
	.st5{fill:url(#path101_00000155864564109412669320000000381591901404044688_);}
	.st6{fill:url(#path120_00000101803033424884127880000017020176966288431778_);}
	.st7{fill:url(#path133_00000129178745770240607370000002096800254852233658_);}
	.st8{fill:url(#path146_00000124870558275932089240000007288826884131115429_);}
</style>
<g>
	<path id="path43" class="st0" d="M10.18,55.88l-2.2-0.96l9.14-1.11c0.16,0.26,0.32,0.5,0.51,0.74L10.18,55.88L10.18,55.88z
		 M34.71,55.88l2.21-1.02l-9.09-1.08c-0.08,0.29-0.32,0.53-0.48,0.77L34.71,55.88L34.71,55.88z M33.38,56.04l-2.77,0.93l-3.93-1.19
		l-0.34-0.11c0.13-0.1,0.24-0.21,0.34-0.35c0.17-0.13,0.3-0.32,0.45-0.45L33.38,56.04L33.38,56.04z M40.69,53.46l-2.53,1.17
		l-10.1-1.17c0.08-0.24,0.16-0.48,0.24-0.72L40.69,53.46L40.69,53.46z M41.59,53.11l3.3-2.09H27.03c0,0.75-0.11,1.39-0.35,1.94
		c-0.68,1.78-2.41,2.63-4.14,2.61c-1.7-0.05-3.43-0.93-4.2-2.55c-0.27-0.59-0.43-1.22-0.43-1.99H0l3.27,2.09l13.69-0.71
		c0.27,0.98,0.75,1.83,1.38,2.46c1.09,1.15,2.65,1.78,4.2,1.78c1.52,0.03,3.05-0.53,4.14-1.75c0.59-0.64,1.04-1.46,1.31-2.45
		L41.59,53.11L41.59,53.11z M26.68,58.54l0.35,0.64l-0.35,0.16l-0.93,0.43l-1.06-2.1c-0.67,0.23-1.4,0.37-2.15,0.39
		c-0.8,0.03-1.63-0.08-2.34-0.32l-0.9,2.03c-0.3,0.02-0.69,0-0.96-0.19c-0.14-0.08-0.27-0.21-0.32-0.4l0.32-0.54l0.77-1.38
		c-0.24-0.16-0.45-0.27-0.67-0.48l0.64-0.77c1.09,0.67,2.29,1.03,3.46,1.03c1.17,0.03,2.33-0.34,3.42-1.11l0.71,0.21l0.3,0.11
		c-0.11,0.08-0.19,0.15-0.3,0.24c-0.21,0.21-0.39,0.42-0.74,0.61L26.68,58.54L26.68,58.54z M26.68,47.66
		c0.69,0.82,1.2,1.84,1.47,3.01H27c-0.08-0.34-0.19-0.69-0.33-1.01c-0.76-2.02-2.33-3.45-4.14-4.65c-0.24-0.14-0.45-0.29-0.69-0.43
		c0.24,0.08,0.45,0.16,0.69,0.24C24.18,45.49,25.64,46.39,26.68,47.66L26.68,47.66z M23.59,55.16c0.3-0.05,0.75-0.21,1.1-0.48
		l-1.81-3.59l1.89-0.9l-1.59-1.38l-0.64,0.29l-2.74,1.25l0.8,1.81l1.3-0.58L23.59,55.16L23.59,55.16z M18.66,55.66
		c-0.11-0.08-0.22-0.18-0.32-0.27c-0.21-0.19-0.4-0.37-0.53-0.56l-6.25,1.18l2.66,0.89L18.66,55.66L18.66,55.66z M16.95,53.46
		c-0.1-0.24-0.18-0.48-0.26-0.72L4.2,53.46l2.53,1.22L16.95,53.46L16.95,53.46z"/>
	<g id="g45">
		<g id="g47">
			<path id="path49" class="st1" d="M95.44,73.94c4.12,0.65,12.01,1.67,21.68,1.88c9.65,0.24,20.99-0.32,31.7-1.92
				c10.72-1.56,20.76-4.17,27.89-6.99c7.19-2.71,11.21-6.01,11.19-6.02c0.04,0.02-4.15,3.83-11.76,7.11
				c-7.54,3.4-18.17,6.66-29.38,8.77c-11.19,2.17-22.93,3.15-32.48,3.21c-9.55,0.11-16.96-0.75-19.56-1.16
				c-8.98-1.34-15.51-3.7-19.49-5.97c-4.02-2.29-5.36-4.36-4.94-4.76c0.44-0.48,2.45,0.49,6.5,1.74
				C80.85,71.11,87.03,72.69,95.44,73.94L95.44,73.94z"/>
		</g>
	</g>
	<path id="path53" d="M267.01,6.09l-1.53,0.19l-0.98,0.09c-1.84,0.16-4.62,0.4-7.07,1.96c-2.43,1.55-5.22,4.79-7.16,7.28
		c-21.11,3.53-32.68,16.04-40.33,24.32l-4.8,5.6l0.81-0.25c14.38-13.27,27.21-20.37,39.22-21.7l0.18-0.02l1.6-2.09l3.37-4.41
		c1.38-1.25,3.3-1.69,6.12-2.01l4.92-0.31l5.82-0.41c3.33-0.45,6.18-1.21,10.1-6.6l5.34-7.21L281.99,0
		C277.09,4.85,271.74,5.51,267.01,6.09z M267.12,6.92c4.09-0.5,8.63-1.23,13.02-4.42c-1.58,2.14-3.53,4.76-3.53,4.76
		c-3.74,5.13-6.31,5.83-9.54,6.26c0,0-5.75,0.4-5.75,0.4l-4.98,0.32c-2.1,0.24-3.63,0.68-4.98,1.35c1.87-2.36,4.36-5.18,6.53-6.56
		c2.28-1.45,4.93-1.68,6.69-1.83l1.02-0.1C265.6,7.11,267.12,6.92,267.12,6.92L267.12,6.92z M249.63,16.62
		c-0.38,0.49-3.34,4.37-3.34,4.37s-1.22,1.59-1.39,1.82c-10.26,1.18-21.09,6.52-32.92,16.18C219.44,30.97,230.52,20.08,249.63,16.62
		z M265.59,7.11L265.59,7.11L265.59,7.11L265.59,7.11z"/>
	
		<linearGradient id="path66_00000083767255944077853990000001175291744605187476_" gradientUnits="userSpaceOnUse" x1="-2469.7224" y1="2628.0535" x2="-2389.7117" y2="2553.4424" gradientTransform="matrix(0.246 0 0 -0.246 821.493 675.0376)">
		<stop  offset="5.600000e-03" style="stop-color:#C4161C"/>
		<stop  offset="0.3" style="stop-color:#C93627"/>
		<stop  offset="0.5" style="stop-color:#EBB39E"/>
		<stop  offset="0.7191" style="stop-color:#C93627"/>
		<stop  offset="1" style="stop-color:#C4161C"/>
	</linearGradient>
	<path id="path66" style="fill:url(#path66_00000083767255944077853990000001175291744605187476_);" d="M205.67,45.01
		c15.26-11.16,23.47-15.58,41.6-15.75l-3.91,5.27c-0.74,1.56-1.88,1.49-3.08,1.42c-12.96-0.1-22.01,0.86-37.76,12.3L205.67,45.01
		L205.67,45.01z"/>
	
		<linearGradient id="path77_00000159467468913980581390000003933176170101936822_" gradientUnits="userSpaceOnUse" x1="-2468.885" y1="2659.9551" x2="-2334.5601" y2="2565.8997" gradientTransform="matrix(0.246 0 0 -0.246 821.493 675.0376)">
		<stop  offset="0" style="stop-color:#FFFFFF"/>
		<stop  offset="0.3427" style="stop-color:#FFFFFF"/>
		<stop  offset="0.55" style="stop-color:#FFFFFF"/>
		<stop  offset="0.9101" style="stop-color:#C2CAE3"/>
	</linearGradient>
	<path id="path77" style="fill:url(#path77_00000159467468913980581390000003933176170101936822_);" d="M205.66,44.99
		c15.36-14.17,28.18-20.55,39.46-21.8c1-1.32,4.44-5.74,5.48-7.22C224.9,20.17,213.54,37.56,205.66,44.99L205.66,44.99z"/>
	
		<linearGradient id="path92_00000145772319218169288290000012600210531427059892_" gradientUnits="userSpaceOnUse" x1="-2447.3447" y1="2624.4917" x2="-2399.0859" y2="2579.4897" gradientTransform="matrix(0.246 0 0 -0.246 821.493 675.0376)">
		<stop  offset="0.1067" style="stop-color:#00529B"/>
		<stop  offset="0.5" style="stop-color:#778EC1"/>
		<stop  offset="0.5196" style="stop-color:#728ABF"/>
		<stop  offset="0.7283" style="stop-color:#3C69AA"/>
		<stop  offset="0.8811" style="stop-color:#00589F"/>
		<stop  offset="0.9607" style="stop-color:#00529B"/>
	</linearGradient>
	<path id="path92" style="fill:url(#path92_00000145772319218169288290000012600210531427059892_);" d="M206.45,44.18
		c-0.3,0.29-1.36,1.43-1.67,1.71c9.01-6.65,16.56-13.56,35.36-16.12c0.94-1.06,3.67-4.66,4.96-6.57
		C227.97,25.52,216.76,35.09,206.45,44.18L206.45,44.18z"/>
	
		<linearGradient id="path101_00000129183581544562831790000017456231232959514294_" gradientUnits="userSpaceOnUse" x1="-2364.7117" y1="2628.0186" x2="-2336.134" y2="2610.1614" gradientTransform="matrix(0.246 0 0 -0.246 821.493 675.0376)">
		<stop  offset="5.600000e-03" style="stop-color:#C4161C"/>
		<stop  offset="0.4944" style="stop-color:#C93627"/>
		<stop  offset="1" style="stop-color:#EBB39E"/>
	</linearGradient>
	<path id="path101" style="fill:url(#path101_00000129183581544562831790000017456231232959514294_);" d="M243.03,35.14
		c0.17-0.58,0.57-1.01-1.34-2.14c-2.24-1.32-3.02-0.77-2.52-2.11c0.37-1.02,5.18-3.05,8.7-1.86
		C247.87,29.04,244.75,32.65,243.03,35.14z"/>
	
		<linearGradient id="path120_00000168087105079709942870000003455026522566851232_" gradientUnits="userSpaceOnUse" x1="329.6116" y1="-27.1613" x2="350.6196" y2="-42.9919" gradientTransform="matrix(0.9841 0.0195 0.0195 -0.9841 -73.3184 -25.5967)">
		<stop  offset="0.073" style="stop-color:#C2CAE3"/>
		<stop  offset="0.5" style="stop-color:#00529B"/>
		<stop  offset="0.545" style="stop-color:#00559E"/>
		<stop  offset="0.6155" style="stop-color:#1F5FA4"/>
		<stop  offset="0.7025" style="stop-color:#486FAE"/>
		<stop  offset="0.8028" style="stop-color:#738BBF"/>
		<stop  offset="0.9129" style="stop-color:#ABB7D9"/>
		<stop  offset="0.9494" style="stop-color:#C2CAE3"/>
	</linearGradient>
	<path id="path120" style="fill:url(#path120_00000168087105079709942870000003455026522566851232_);" d="M256.53,14.31
		c-3.51,0.47-5.73,1.35-7.14,3.12l-4.91,6.57c1.07-0.96,4.31-1.43,7.81-1.52l0.49,0.01c0.15-0.01,0.3,0,0.45-0.01
		c0.49-0.01,1.02-0.04,1.57-0.05c4.97-0.19,11.87-0.9,15.9-5.59l6.04-8.35l0.72-0.99C272.21,14.42,260.25,13.82,256.53,14.31
		L256.53,14.31z"/>
	
		<linearGradient id="path133_00000052103729744607085120000006325222427596130212_" gradientUnits="userSpaceOnUse" x1="324.0092" y1="-35.5857" x2="343.9205" y2="-50.59" gradientTransform="matrix(0.9841 0.0195 0.0195 -0.9841 -73.3184 -25.5967)">
		<stop  offset="0.0562" style="stop-color:#EBB39E"/>
		<stop  offset="0.3278" style="stop-color:#C93627"/>
		<stop  offset="0.5169" style="stop-color:#C4161C"/>
		<stop  offset="0.7472" style="stop-color:#C93627"/>
		<stop  offset="0.9607" style="stop-color:#EBB39E"/>
	</linearGradient>
	<path id="path133" style="fill:url(#path133_00000052103729744607085120000006325222427596130212_);" d="M259.44,21.62
		c-3.77,0.53-8.08,0.68-9.32,0.75c-2.11,0.09-4.92,0.77-5.7,1.71c-2.37,2.94-4.64,5.69-5.25,6.82c1.45-1.34,6.21-1.19,11.99-1.46
		c5.77-0.26,11.62-2.76,16.23-8.02l3.5-4.84C268.55,19.59,264.41,20.93,259.44,21.62z"/>
	
		<linearGradient id="path146_00000036232002484905723310000009656352765248471714_" gradientUnits="userSpaceOnUse" x1="334.6988" y1="-20.0717" x2="356.0508" y2="-36.1617" gradientTransform="matrix(0.9841 0.0195 0.0195 -0.9841 -73.3184 -25.5967)">
		<stop  offset="0" style="stop-color:#FFFFFF"/>
		<stop  offset="0.3" style="stop-color:#FFFFFF"/>
		<stop  offset="0.5056" style="stop-color:#D4D9EC"/>
		<stop  offset="0.7" style="stop-color:#FFFFFF"/>
		<stop  offset="1" style="stop-color:#FFFFFF"/>
	</linearGradient>
	<path id="path146" style="fill:url(#path146_00000036232002484905723310000009656352765248471714_);" d="M265.54,6.7
		c-1.53,0.21-5,0.15-7.88,1.99c-2.89,1.84-6.36,6.21-8.07,8.5c1.59-1.7,3.69-2.18,6.79-2.53c3.09-0.36,7.56-0.3,10.73-0.72
		c3.05-0.41,5.89-1.02,9.82-6.43l5.34-7.21C276.74,5.78,270.7,6.01,265.54,6.7L265.54,6.7z"/>
	<g id="g148">
		<polygon id="polygon150" class="st0" points="38.69,33.38 38.69,27.87 49.08,27.87 49.08,24.97 38.69,24.97 38.69,19.95 
			49.64,19.95 49.64,17.05 30.99,17.05 30.99,36.31 50.25,36.31 50.25,36.31 50.25,33.38 		"/>
		<path id="path152" class="st0" d="M61.52,36.31V19.95h4.53c1.38,0,2.65,0.1,3.81,0.88c0.84,0.6,1.38,1.46,1.38,2.52
			c0,0.89-0.32,1.8-1.48,2.54c-1.52,0.99-4.17,1.13-5.83,0.92l-0.95-0.11l7.67,9.62h8.9l-7.28-8.03c1.3-0.14,3.4-0.66,4.66-1.48
			c1.52-1.03,2.3-2.55,2.3-3.97c0-1.59-0.85-3.31-2.79-4.45c-2.3-1.3-5.44-1.34-8.34-1.34H53.78v19.26L61.52,36.31L61.52,36.31z"/>
		<polygon id="polygon154" class="st0" points="123.71,25.28 123.71,19.95 134.94,19.95 134.94,17.05 116.01,17.05 116.01,36.31 
			123.71,36.31 123.71,36.31 123.71,28.18 134.09,28.18 134.09,25.28 		"/>
		<polygon id="polygon156" class="st0" points="137.73,17.05 137.73,36.31 156.82,36.31 156.82,33.38 145.47,33.38 145.47,17.05 
			145.47,17.05 		"/>
		<polygon id="polygon158" class="st0" points="212.96,17.05 188.62,17.05 188.62,19.95 188.62,19.95 196.92,19.95 196.92,36.31 
			204.66,36.31 204.66,19.95 212.96,19.95 		"/>
		<path id="path160" class="st0" d="M172.23,16.49c-3.61,0-8.66,0.81-12.05,3.25c-2.69,1.91-3.96,4.64-3.96,6.96
			c0,2.3,1.27,5.02,3.96,6.93c3.39,2.4,8.45,3.21,12.05,3.21c3.6,0,8.69-0.81,12.08-3.21c2.69-1.91,3.93-4.63,3.93-6.93
			c0-2.32-1.24-5.05-3.93-6.96C180.92,17.31,175.83,16.53,172.23,16.49L172.23,16.49z M172.23,34.51c-1.91,0-4.17-0.42-5.84-2.51
			c-1.38-1.69-1.62-3.64-1.62-5.3c0-1.73,0.25-3.64,1.62-5.33c1.66-2.13,3.93-2.55,5.84-2.55c1.94,0,4.17,0.42,5.86,2.55
			c1.38,1.69,1.63,3.61,1.63,5.33c0,1.66-0.25,3.61-1.63,5.3C176.4,34.09,174.16,34.51,172.23,34.51L172.23,34.51z"/>
		<path id="path162" class="st0" d="M97.33,16.49c-3.6,0-8.65,0.81-12.04,3.25c-2.69,1.91-3.96,4.64-3.96,6.96
			c0,2.3,1.27,5.02,3.96,6.93c3.39,2.4,8.44,3.21,12.04,3.21c3.6,0,8.69-0.81,12.09-3.21c2.68-1.91,3.92-4.63,3.92-6.93
			c0-2.32-1.24-5.05-3.92-6.96C106.02,17.31,100.93,16.53,97.33,16.49L97.33,16.49z M97.33,34.51c-1.91,0-4.17-0.42-5.83-2.51
			c-1.38-1.69-1.63-3.64-1.63-5.3c0-1.73,0.25-3.64,1.63-5.33c1.66-2.13,3.92-2.55,5.83-2.55c1.94,0,4.17,0.42,5.86,2.55
			c1.38,1.69,1.63,3.61,1.63,5.33c0,1.66-0.25,3.61-1.63,5.3C101.5,34.09,99.27,34.51,97.33,34.51L97.33,34.51z"/>
		<path id="path164" class="st0" d="M3.85,36.31l3.04-5.59H17.6l3.28,5.59h8.66L17.81,17.05h-7.18L0,36.31H3.85L3.85,36.31z
			 M8.3,28.11l3.64-6.71h0.11L16,28.11H8.3L8.3,28.11z"/>
	</g>
	<g id="g166">
		<path id="path168" class="st0" d="M81.06,51.75l-1.71,6.33c-0.21,0.25-0.54,0.46-0.84,0.62c-0.46,0.25-0.92,0.38-1.34,0.38
			c-0.42,0-0.79-0.17-0.96-0.43c-0.12-0.21-0.25-0.54-0.08-1.13l1.55-5.77h-1.59l-1.5,5.57c-0.13,0.51-0.34,1.38,0.12,2.05
			c0.25,0.38,0.8,0.8,1.92,0.8c0.47,0,0.93-0.08,1.52-0.34c0.37-0.22,0.79-0.46,1.13-0.72L79.01,60h1.42l2.23-8.25H81.06
			L81.06,51.75z"/>
		<path id="path170" class="st0" d="M91.26,52.7c-0.38-0.5-0.84-0.75-0.93-0.79c-0.53-0.28-1.13-0.34-1.64-0.34
			c-0.54,0-1.21,0.05-1.96,0.5c-0.55,0.38-1.21,0.96-1.46,1.93c-0.22,0.71-0.13,1.25,0.12,1.59c0.29,0.38,0.79,0.58,1.22,0.71
			l0.79,0.26c0.41,0.08,0.84,0.08,1.08,0.41c0.13,0.17,0.26,0.38,0.17,0.8c-0.13,0.38-0.37,0.63-0.59,0.79
			c-0.29,0.26-0.8,0.47-1.51,0.47c-0.46,0-0.84-0.1-1.21-0.3c-0.33-0.25-0.59-0.46-0.72-0.66l-1.05,0.97
			c0.76,0.99,1.69,1.13,2.6,1.13c0.62,0,1.89-0.08,2.94-0.88c0.58-0.5,1-1.14,1.18-1.68c0.08-0.42,0.17-1.04-0.04-1.43
			c-0.3-0.58-0.97-0.83-1.34-0.92l-0.59-0.17c-0.75-0.17-1.09-0.25-1.26-0.46c-0.16-0.12-0.29-0.37-0.16-0.88
			c0.08-0.21,0.25-0.55,0.58-0.8c0.42-0.25,0.8-0.29,1.09-0.29c0.38,0,0.71,0.09,1.01,0.29c0.25,0.17,0.46,0.38,0.63,0.59
			L91.26,52.7L91.26,52.7z"/>
		<path id="path172" class="st0" d="M99.85,52.7c-0.34-0.5-0.8-0.75-0.92-0.79c-0.5-0.28-1.09-0.34-1.59-0.34
			c-0.58,0-1.21,0.05-1.97,0.5c-0.55,0.38-1.22,0.96-1.51,1.93c-0.16,0.71-0.08,1.25,0.17,1.59c0.29,0.38,0.84,0.58,1.21,0.71
			l0.75,0.26c0.42,0.08,0.84,0.08,1.13,0.41c0.13,0.17,0.25,0.38,0.13,0.8c-0.13,0.38-0.37,0.63-0.55,0.79
			c-0.29,0.26-0.79,0.47-1.51,0.47c-0.46,0-0.83-0.1-1.25-0.3c-0.34-0.25-0.55-0.46-0.71-0.66l-1.05,0.97
			c0.81,0.99,1.72,1.13,2.64,1.13c0.63,0,1.88-0.08,2.94-0.88c0.59-0.5,1.01-1.14,1.13-1.68c0.13-0.42,0.17-1.04-0.04-1.43
			c-0.25-0.58-0.92-0.83-1.34-0.92l-0.59-0.17c-0.72-0.17-1.04-0.25-1.22-0.46c-0.16-0.12-0.29-0.37-0.16-0.88
			c0.08-0.21,0.21-0.55,0.59-0.8c0.38-0.25,0.79-0.29,1.04-0.29c0.42,0,0.75,0.09,1.05,0.29c0.25,0.17,0.46,0.38,0.63,0.59
			L99.85,52.7L99.85,52.7L99.85,52.7z"/>
		<path id="path174" class="st0" d="M102.92,51.75l-0.3,1.08h0.96L101.67,60h1.59l2.22-8.25H102.92L102.92,51.75z M103.93,49.02
			c-0.13,0.58,0.21,1.04,0.76,1.04c0.58,0,1.12-0.46,1.29-1.04c0.16-0.55-0.17-1.01-0.76-1.01
			C104.69,48.02,104.1,48.47,103.93,49.02L103.93,49.02z"/>
		<path id="path176" class="st0" d="M118.49,60l1.76-6.49c0.55-0.46,1.39-0.84,2.14-0.84c0.55,0,0.84,0.21,0.96,0.46
			c0.25,0.38,0.13,1,0.04,1.26L121.89,60h1.59l1.51-5.49c0.17-0.68,0.25-1.47-0.13-2.14c-0.34-0.54-0.96-0.8-1.84-0.8
			c-0.54,0-1.46,0.13-2.47,0.8l0.17-0.62h-2.56l-0.29,1.08h0.96L116.9,60L118.49,60L118.49,60z"/>
		<path id="path178" class="st0" d="M66.07,48.1L62.85,60h1.8l1.39-5.23h1.21L68.93,60h0.13h2.05l-1.92-5.32
			c0.88-0.09,2.06-0.5,2.77-1.05c0.79-0.59,1.39-1.42,1.59-2.3c0.26-0.84,0.14-1.72-0.36-2.3c-0.67-0.84-2.02-0.92-2.98-0.92h-1.13
			H66.07L66.07,48.1L66.07,48.1z M69.06,53.41c-0.13,0-0.21,0-0.3,0h-2.34l1.05-3.93h1.59h0.8c0.25,0,1.04,0,1.46,0.42
			c0.25,0.25,0.46,0.67,0.29,1.34c-0.17,0.63-0.5,1.13-1,1.55C70.06,53.2,69.47,53.38,69.06,53.41L69.06,53.41z"/>
		<path id="path180" class="st0" d="M110.73,55.18c-1.67,0.17-3.06,0.84-3.52,2.56c-0.04,0.2-0.09,0.37-0.09,0.54v0.29
			c0.04,0.92,0.67,1.6,2.05,1.6c0.5,0,1-0.08,1.55-0.3c0.05,0,0.09-0.03,0.16-0.07c0.55-0.25,0.96-0.67,1.09-0.8h0.08l-0.29,1h1.42
			l1.47-5.32c0.21-0.84,0.41-1.68-0.05-2.3c-0.38-0.59-1.34-0.8-2.09-0.8c-0.72,0-1.35,0.09-1.81,0.21
			c-1.46,0.37-2.01,1.26-2.05,2.05l1.47,0.08c0.12-0.42,0.29-0.71,0.58-0.92c0.34-0.25,0.84-0.34,1.47-0.34
			c0.34,0,0.75,0.04,0.92,0.34c0.26,0.3,0.17,0.71,0.09,1.09l-0.3,1.04h-1.17C111.4,55.13,111.03,55.13,110.73,55.18L110.73,55.18z
			 M110.73,58.94c-0.25,0.1-0.5,0.13-0.76,0.13c-0.33,0-0.75-0.04-1-0.38c-0.21-0.3-0.26-0.59-0.13-1.01c0.08-0.33,0.25-0.67,0.67-1
			c0.25-0.17,0.59-0.38,1.22-0.46c0.21-0.05,0.46-0.09,0.76-0.09h1.17l-0.46,1.76c-0.25,0.34-0.5,0.55-0.8,0.75
			C111.15,58.79,110.94,58.91,110.73,58.94L110.73,58.94z"/>
		<path id="path182" class="st0" d="M149,51.75l-0.29,1.08h0.96L147.74,60h1.6l2.22-8.25H149L149,51.75L149,51.75z M150.47,49.02
			c-0.13,0.58,0.21,1.04,0.76,1.04c0.54,0,1.13-0.46,1.29-1.04c0.17-0.55-0.17-1.01-0.75-1.01
			C151.23,48.02,150.63,48.47,150.47,49.02L150.47,49.02z"/>
		<path id="path184" class="st0" d="M155.08,51.75L152.86,60h1.59l1.26-4.74c0.21-0.54,0.41-1.09,0.71-1.51
			c0.5-0.8,1.08-0.92,1.42-0.92c0.21,0,0.46,0.04,0.63,0.21c0.12,0.13,0.17,0.37,0.17,0.67l1.42-0.42c0.29-0.83,0-1.3-0.5-1.54
			c-0.26-0.13-0.55-0.18-0.84-0.18c-0.92,0-1.84,0.5-2.47,1.38l0.33-1.21L155.08,51.75L155.08,51.75L155.08,51.75z"/>
		<path id="path186" class="st0" d="M163.89,47.93l-2.64,9.81c-0.21,0.75-0.59,2.26,1.3,2.26h0.92l0.29-1.09h-0.46
			c-0.79,0-0.59-0.68-0.55-0.84l2.73-10.14H163.89L163.89,47.93z"/>
		<path id="path188" class="st0" d="M168.2,51.75l-0.28,1.08h0.97L166.9,60h1.63l2.22-8.25H168.2L168.2,51.75L168.2,51.75z
			 M169.67,49.02c-0.13,0.58,0.21,1.04,0.75,1.04c0.59,0,1.14-0.46,1.3-1.04c0.13-0.55-0.21-1.01-0.75-1.01
			C170.38,48.02,169.84,48.47,169.67,49.02L169.67,49.02z"/>
		<path id="path190" class="st0" d="M174.05,60l1.72-6.49c0.59-0.46,1.43-0.84,2.17-0.84c0.55,0,0.85,0.21,0.97,0.46
			c0.29,0.38,0.09,1,0.04,1.26l-1.5,5.62h1.59l1.51-5.49c0.17-0.68,0.25-1.47-0.13-2.14c-0.33-0.54-0.96-0.8-1.84-0.8
			c-0.59,0-1.43,0.13-2.47,0.8l0.17-0.62h-2.55l-0.3,1.08h0.96L172.46,60H174.05L174.05,60z"/>
		<path id="path192" class="st0" d="M198.65,52.7c-0.33-0.5-0.75-0.75-0.88-0.79c-0.54-0.28-1.08-0.34-1.59-0.34
			c-0.6,0-1.22,0.05-1.97,0.5c-0.59,0.38-1.26,0.96-1.51,1.93c-0.22,0.71-0.09,1.25,0.16,1.59c0.25,0.38,0.8,0.58,1.18,0.71
			l0.8,0.26c0.41,0.08,0.84,0.08,1.08,0.41c0.18,0.17,0.26,0.38,0.18,0.8c-0.12,0.38-0.37,0.63-0.59,0.79
			c-0.26,0.26-0.76,0.47-1.51,0.47c-0.47,0-0.8-0.1-1.22-0.3c-0.33-0.25-0.58-0.46-0.71-0.66l-1.05,0.97
			c0.75,0.99,1.68,1.13,2.6,1.13c0.67,0,1.89-0.08,2.93-0.88c0.59-0.5,1-1.14,1.17-1.68c0.13-0.42,0.17-1.04-0.03-1.43
			c-0.26-0.58-0.98-0.83-1.34-0.92l-0.59-0.17c-0.7-0.17-1.04-0.25-1.25-0.46c-0.13-0.12-0.29-0.37-0.17-0.88
			c0.08-0.21,0.2-0.55,0.59-0.8c0.41-0.25,0.83-0.29,1.09-0.29c0.42,0,0.7,0.09,1.04,0.29c0.21,0.17,0.42,0.38,0.59,0.59
			L198.65,52.7L198.65,52.7L198.65,52.7z"/>
		<path id="path194" class="st0" d="M134.86,60h1.8l1.8-2.89h4.56l0.21,2.89h2.05l-1.13-11.9h-1.47L134.86,60L134.86,60L134.86,60z
			 M139.3,55.72l3.22-5.07h0.04l0.39,5.07H139.3L139.3,55.72z"/>
		<path id="path196" class="st0" d="M184.63,56.23h4.98l0.13-0.55c0.33-1.1,0.66-2.23,0.09-3.14c-0.51-0.79-1.51-0.97-2.23-0.97
			c-1.06,0-2.08,0.38-2.89,1.09c-1.09,0.96-1.54,2.26-1.8,3.35c-0.25,0.88-0.51,2.22,0.16,3.19c0.63,0.83,1.77,0.96,2.56,0.96
			c0.64,0,1.23-0.09,1.85-0.3c0.33-0.12,0.75-0.29,1.12-0.5l-0.24-0.97c-0.39,0.17-0.67,0.3-1.1,0.39
			c-0.39,0.07-0.76,0.16-1.18,0.16c-0.62,0-1.17-0.21-1.46-0.58c-0.47-0.55-0.25-1.39-0.12-1.8L184.63,56.23L184.63,56.23
			L184.63,56.23z M184.87,55.13l0.08-0.37c0.17-0.43,0.38-1.1,0.92-1.56c0.35-0.34,0.9-0.54,1.39-0.54c0.42,0,0.83,0.13,1.05,0.38
			c0.37,0.51,0.2,1.22,0.05,1.76l-0.09,0.33L184.87,55.13L184.87,55.13L184.87,55.13z"/>
	</g>
</g>
</svg>
