<?xml version="1.0" encoding="utf-8"?>
<!-- Generator: Adobe Illustrator 25.4.1, SVG Export Plug-In . SVG Version: 6.00 Build 0)  -->
<svg version="1.1" id="Layer_1" xmlns="http://www.w3.org/2000/svg" xmlns:xlink="http://www.w3.org/1999/xlink" x="0px" y="0px"
	 viewBox="0 0 72.58 80" style="enable-background:new 0 0 72.58 80;" xml:space="preserve">
<style type="text/css">
	.st0{fill:#B09255;}
</style>
<path class="st0" d="M72.36,58.17l-0.1,0.17C65.74,69.67,53.52,77.31,39.5,77.31c-20.85,0-37.75-16.9-37.75-37.75
	c0-6.83,1.82-13.24,5-18.78l0.08-0.15l-0.04-0.14l-0.14,0.05l-0.1,0.13c-0.56,0.81-1.09,1.67-1.6,2.53
	C-5.4,41.31,0.99,64.45,19.24,74.91c18.25,10.46,41.45,4.28,51.81-13.81c0.51-0.87,0.98-1.76,1.4-2.66l0.08-0.18l-0.04-0.15
	L72.36,58.17z"/>
<path class="st0" d="M30.26,10.38c-5.37,1.14-14.39,6.67-16.3,15.83c5.79-6.83,11.81-10.42,16.43-11.26
	c-4.72,3.53-9.16,11.77-7.78,17.55c2.5-6.14,6.87-12.14,10.88-14.33c-2.27,3.75-3.02,12.8-0.84,16.79
	c0.51-5.18,2.15-11.92,4.73-15.24l0.77,6.5h-0.88l0.93,6.61h-0.73l0.77,6.61h-0.63l0.97,6.61l-3.13,1.6v0.23h8.15v-0.23l-3.13-1.6
	l-0.95,0.74l0.94-0.74l0.96-6.61h-0.63l0.77-6.61h-0.74l0.93-6.61h-0.88l0.77-6.5c2.58,3.32,4.21,10.06,4.73,15.24
	c2.18-3.99,1.43-13.04-0.84-16.79c4.01,2.19,8.38,8.19,10.89,14.33c1.37-5.78-3.06-14.02-7.78-17.55
	c4.61,0.84,10.63,4.43,16.42,11.26c-1.91-9.16-10.92-14.69-16.3-15.83c5.92-0.59,11.68,1.31,16.9,3.85
	C59.97,7.68,51.4,5.3,45.74,5.95c0.95-1.01,1.88-1.55,3.33-1.98c-2.39-1.12-6.11-0.53-7.56,1.09c0,0-0.27-3.04-2-4.23
	c-1.75,1.19-2,4.23-2,4.23c-1.46-1.63-5.17-2.21-7.56-1.09c1.44,0.43,2.36,0.97,3.33,1.98C27.6,5.3,19.03,7.68,13.36,14.23
	C18.59,11.69,24.35,9.79,30.26,10.38"/>
<path class="st0" d="M41.12,52.59c-0.45,0.29-1,0.67-1.62,1.09c-0.62-0.42-1.17-0.8-1.61-1.09c-2.4-1.61-22.69-15.19-31.46-5.58
	c8.09-3.21,20.09,2.85,29.96,8.8c-2.47,1.69-5.29,3.63-7.68,5.25c-3.79-3.68-5.2-3.09-5.54-2.94c-0.37,0.15-0.63,0.5-0.65,0.92
	c-0.01,0.56,0.42,1.02,0.96,1.04c0.54,0.01,1-0.43,1.01-0.99l-0.02-0.23c1.05,0.66,2.03,1.56,4.48,4.08
	c2.49,2.58,3.46,3.29,4.2,3.73c0.51,0.29,1.02,0.37,1.34,0.34c0.51-0.02,1.03-0.4,1.05-0.98c0.03-0.58-0.4-1.05-0.96-1.06
	c-0.55-0.01-1.01,0.43-1.01,1.01v0.1c-0.68-0.49-1.4-1.38-2.85-2.94c2.38-1.36,5.4-3.32,8.78-5.42c3.38,2.11,6.4,4.07,8.78,5.42
	c-1.44,1.56-2.17,2.45-2.85,2.94l0-0.1c0-0.58-0.46-1.02-1.02-1.01c-0.56,0-0.99,0.48-0.95,1.06c0.02,0.58,0.53,0.95,1.05,0.98
	c0.31,0.03,0.83-0.05,1.34-0.34c0.73-0.43,1.7-1.14,4.2-3.73c2.45-2.53,3.43-3.42,4.48-4.08l-0.02,0.23c0.02,0.55,0.47,1,1.01,0.99
	c0.54-0.02,0.97-0.48,0.97-1.04c-0.02-0.42-0.28-0.77-0.65-0.92c-0.34-0.15-1.75-0.73-5.55,2.94c-2.39-1.62-5.21-3.56-7.68-5.25
	c9.88-5.95,21.87-12.02,29.96-8.8C63.8,37.4,43.51,50.98,41.12,52.59"/>
<path class="st0" d="M18.47,65.24c-0.31-0.14-0.63-0.32-0.8-0.34c-0.11-0.01-0.21,0.01-0.29,0.09c-0.07,0.08-0.09,0.25-0.02,0.39
	c0.04,0.1,0.16,0.29,0.48,0.56c1.33,1.15,4,2.18,11.03-1.75c-0.22-0.21-0.43-0.44-0.67-0.68c-0.47-0.49-0.89-0.92-1.25-1.28
	C23.24,64.58,20.29,65.99,18.47,65.24"/>
<path class="st0" d="M60.53,65.24c-1.82,0.74-4.77-0.66-8.48-3.01c-0.37,0.37-0.78,0.8-1.26,1.28c-0.23,0.23-0.45,0.46-0.66,0.68
	c7.02,3.93,9.7,2.9,11.02,1.75c0.32-0.27,0.43-0.46,0.48-0.56c0.08-0.14,0.05-0.31-0.02-0.39c-0.07-0.08-0.17-0.1-0.28-0.09
	C61.17,64.93,60.85,65.11,60.53,65.24"/>
</svg>
