<?xml version="1.0" encoding="utf-8"?>
<!-- Generator: Adobe Illustrator 25.4.1, SVG Export Plug-In . SVG Version: 6.00 Build 0)  -->
<svg version="1.1" id="Layer_1" xmlns="http://www.w3.org/2000/svg" xmlns:xlink="http://www.w3.org/1999/xlink" x="0px" y="0px"
	 viewBox="0 0 271.6 80" style="enable-background:new 0 0 271.6 80;" xml:space="preserve">
<style type="text/css">
	.st0{fill:#26265D;}
	.st1{fill:#B09255;}
</style>
<g>
	<polygon class="st0" points="116.44,41.36 119.35,44.41 122.28,41.36 119.35,38.33 	"/>
	<polygon class="st0" points="104.1,3.05 101.18,0 98.24,3.05 101.18,6.09 	"/>
	<polygon class="st0" points="108.77,41.36 111.72,44.41 114.65,41.36 111.72,38.33 	"/>
	<polygon class="st0" points="111.78,3.05 108.82,0 105.89,3.05 108.82,6.09 	"/>
	<g>
		<path class="st0" d="M174.48,27.41h-10.3v-0.73c0-8.79,6.83-14.15,10.3-15.09V27.41z M253.11,6v21.47c0,1.22-0.12,2.26-0.55,2.98
			c-0.53,0.88-1.46,1.62-3.24,1.62c-1.78,0-2.72-0.74-3.26-1.62c-0.44-0.73-0.56-1.76-0.56-2.98v-15.5h-5.05v15.43h-6.31V12h-5.01
			v15.41h-6.31V11.98h-5.01v15.43h-19.36c-5.59-0.39-6.89-3.37-6.89-6.14c0-3.89,3.45-5.4,7.23-5.4h8.22v-3.89h-7.3
			c-5.93,0-10.9,2.44-10.9,8.61c0,4.02,1.8,5.84,3.37,6.82h-12.71V8.28c-10.98,1.36-19.7,9.57-19.7,23.04h14.71v4.74
			c0,1.83,0.2,5.32-2.46,5.82v2.1c1.85-0.2,4.86-1.44,6.18-3.69c1.04-1.75,1.26-3.34,1.26-7.01v-1.95h61.62
			c0.19,0.48,0.46,0.98,0.8,1.48c1.54,2.13,4.26,3.08,7.44,3.08c3.14,0,5.84-0.95,7.38-3.08c1.27-1.8,1.42-3.59,1.42-5.76V6
			L253.11,6L253.11,6z"/>
	</g>
	<rect x="265.13" y="6" class="st0" width="4.98" height="25.32"/>
	<g>
		<path class="st0" d="M143.79,11.89h-7.2v3.93h6.03c4.66,0,9.43,0.23,9.43,5.63c0,4.8-3.52,5.88-9.82,5.88h-12.09v3.92h12.99
			c7.84,0,11.68-2.4,11.68-9.78C154.81,14.04,150.26,11.89,143.79,11.89"/>
		<path class="st0" d="M106.7,27.41H96.46v-0.66c0-8.74,6.74-14.25,10.23-15.19V27.41z M119.35,27.41c0,1.25-0.14,2.26-0.57,3.02
			c-0.53,0.88-1.44,1.6-3.23,1.6c-1.76,0-2.71-0.72-3.24-1.6c-0.44-0.76-0.58-1.76-0.58-3.02V8.27
			C99.78,9.39,92.04,18.83,92.04,31.32h15.26c0.21,0.49,0.48,0.95,0.81,1.42c1.52,2.12,4.24,3.08,7.4,3.08
			c3.19,0,5.86-0.95,7.38-3.08c1.3-1.79,1.47-3.56,1.47-5.75v-16.7h-5L119.35,27.41L119.35,27.41z"/>
		<path class="st0" d="M167.29,79.69c-4.94,0-8.65-1.03-10.93-3.22c-2.02-1.88-2.96-4.02-2.96-8.29V50.32h5.35v18.61
			c0,2.74,0.42,4.3,1.73,5.71c1.41,1.52,3.85,2.35,6.8,2.35c2.94,0,5.36-0.82,6.77-2.35c1.31-1.41,1.72-2.97,1.72-5.71V50.32h5.39
			v17.85c0,4.27-0.95,6.41-2.96,8.29C175.93,78.66,172.19,79.69,167.29,79.69"/>
		<path class="st0" d="M202.28,76.58c-1.07,0-3.41-0.12-4.4-0.93c-0.81-0.7-0.83-1.85-0.83-3.57V52.14
			c8.24-0.73,17.37,1.7,17.37,12.55C214.42,73.38,208.77,76.58,202.28,76.58 M201.24,49.73c-2.64,0.07-9.14,0.35-13.87,1.72
			l0.44,2.13c1.28-0.36,2.48-0.62,3.87-0.84v26.34c7.58,0.15,10.84,0.12,14.81-0.34c6.97-0.84,13.56-6.08,13.56-14.13
			C220.05,53.27,209.92,49.56,201.24,49.73"/>
	</g>
	<rect x="227.46" y="50.32" class="st0" width="5.39" height="28.76"/>
	<g>
		<path class="st0" d="M127.88,66.58c2.74,0,7.87,0.37,11.51,3.27l-6.55-13.42L127.88,66.58z M149.9,79.08h-6.1
			c-2.15-4.36-7.77-10.69-17.09-10.07l-4.91,10.07H118l15.02-29.22h1.91L149.9,79.08z"/>
		<path class="st0" d="M248.23,66.58c2.74,0,7.87,0.37,11.5,3.28l-6.54-13.43L248.23,66.58z M270.24,79.08h-6.1
			c-2.15-4.36-7.77-10.68-17.09-10.07l-4.9,10.07h-3.8l15.01-29.23h1.92L270.24,79.08z"/>
		<path class="st0" d="M113.75,51.3c-1.54-0.81-5.39-2-9.37-1.94c-7.03,0.18-11.71,3.04-11.76,8.22c-0.03,1.02,0.19,2.32,0.82,3.44
			c3.4,5.82,17.48,4.87,17.48,11.11c0,1.78-1.7,4.71-6.54,4.71c-5.26,0-9.27-2.43-11.19-3.93l-1.39,4.22
			c1.63,0.84,6.02,2.44,12.33,2.44c2.83,0,6.04-0.76,8.39-2.59c2.28-1.79,3.31-3.99,3.31-6.72c0-10.32-18-7.73-18-14.21
			c0-1.07,0.59-1.84,0.8-2.1c0.98-1.27,3.11-2.03,5.82-2.03c2.52,0,5.17,0.85,7.8,2.94L113.75,51.3z"/>
		<path class="st1" d="M72.36,58.17l-0.1,0.17C65.74,69.67,53.52,77.31,39.5,77.31c-20.85,0-37.75-16.9-37.75-37.75
			c0-6.83,1.82-13.24,5-18.78l0.08-0.15l-0.04-0.14l-0.14,0.05l-0.1,0.13c-0.56,0.81-1.09,1.67-1.6,2.53
			C-5.4,41.31,0.99,64.45,19.24,74.91c18.25,10.46,41.45,4.28,51.81-13.81c0.51-0.87,0.98-1.76,1.4-2.66l0.08-0.18l-0.04-0.15
			L72.36,58.17z"/>
		<path class="st1" d="M30.26,10.38c-5.37,1.14-14.39,6.67-16.3,15.83c5.79-6.83,11.81-10.42,16.43-11.26
			c-4.72,3.53-9.16,11.77-7.78,17.55c2.5-6.14,6.87-12.14,10.88-14.33c-2.27,3.75-3.02,12.8-0.84,16.79
			c0.51-5.18,2.15-11.92,4.73-15.24l0.77,6.5h-0.88l0.93,6.61h-0.73l0.77,6.61h-0.63l0.97,6.61l-3.13,1.6v0.23h8.15v-0.23l-3.13-1.6
			l-0.95,0.74l0.94-0.74l0.96-6.61h-0.63l0.77-6.61h-0.74l0.93-6.61h-0.88l0.77-6.5c2.58,3.32,4.21,10.06,4.73,15.24
			c2.18-3.99,1.43-13.04-0.84-16.79c4.01,2.19,8.38,8.19,10.89,14.33c1.37-5.78-3.06-14.02-7.78-17.55
			c4.61,0.84,10.63,4.43,16.42,11.26c-1.91-9.16-10.92-14.69-16.3-15.83c5.92-0.59,11.68,1.31,16.9,3.85
			C59.97,7.68,51.4,5.3,45.74,5.95c0.95-1.01,1.88-1.55,3.33-1.98c-2.39-1.12-6.11-0.53-7.56,1.09c0,0-0.27-3.04-2-4.23
			c-1.75,1.19-2,4.23-2,4.23c-1.46-1.63-5.17-2.21-7.56-1.09c1.44,0.43,2.36,0.97,3.33,1.98C27.6,5.3,19.03,7.68,13.36,14.23
			C18.59,11.69,24.35,9.79,30.26,10.38"/>
		<path class="st1" d="M41.12,52.59c-0.45,0.29-1,0.67-1.62,1.09c-0.62-0.42-1.17-0.8-1.61-1.09c-2.4-1.61-22.69-15.19-31.46-5.58
			c8.09-3.21,20.09,2.85,29.96,8.8c-2.47,1.69-5.29,3.63-7.68,5.25c-3.79-3.68-5.2-3.09-5.54-2.94c-0.37,0.15-0.63,0.5-0.65,0.92
			c-0.01,0.56,0.42,1.02,0.96,1.04c0.54,0.01,1-0.43,1.01-0.99l-0.02-0.23c1.05,0.66,2.03,1.56,4.48,4.08
			c2.49,2.58,3.46,3.29,4.2,3.73c0.51,0.29,1.02,0.37,1.34,0.34c0.51-0.02,1.03-0.4,1.05-0.98c0.03-0.58-0.4-1.05-0.96-1.06
			c-0.55-0.01-1.01,0.43-1.01,1.01v0.1c-0.68-0.49-1.4-1.38-2.85-2.94c2.38-1.36,5.4-3.32,8.78-5.42c3.38,2.11,6.4,4.07,8.78,5.42
			c-1.44,1.56-2.17,2.45-2.85,2.94l0-0.1c0-0.58-0.46-1.02-1.02-1.01c-0.56,0-0.99,0.48-0.95,1.06c0.02,0.58,0.53,0.95,1.05,0.98
			c0.31,0.03,0.83-0.05,1.34-0.34c0.73-0.43,1.7-1.14,4.2-3.73c2.45-2.53,3.43-3.42,4.48-4.08l-0.02,0.23
			c0.02,0.55,0.47,1,1.01,0.99c0.54-0.02,0.97-0.48,0.97-1.04c-0.02-0.42-0.28-0.77-0.65-0.92c-0.34-0.15-1.75-0.73-5.55,2.94
			c-2.39-1.62-5.21-3.56-7.68-5.25c9.88-5.95,21.87-12.02,29.96-8.8C63.8,37.4,43.51,50.98,41.12,52.59"/>
		<path class="st1" d="M18.47,65.24c-0.31-0.14-0.63-0.32-0.8-0.34c-0.11-0.01-0.21,0.01-0.29,0.09c-0.07,0.08-0.09,0.25-0.02,0.39
			c0.04,0.1,0.16,0.29,0.48,0.56c1.33,1.15,4,2.18,11.03-1.75c-0.22-0.21-0.43-0.44-0.67-0.68c-0.47-0.49-0.89-0.92-1.25-1.28
			C23.24,64.58,20.29,65.99,18.47,65.24"/>
		<path class="st1" d="M60.53,65.24c-1.82,0.74-4.77-0.66-8.48-3.01c-0.37,0.37-0.78,0.8-1.26,1.28c-0.23,0.23-0.45,0.46-0.66,0.68
			c7.02,3.93,9.7,2.9,11.02,1.75c0.32-0.27,0.43-0.46,0.48-0.56c0.08-0.14,0.05-0.31-0.02-0.39c-0.07-0.08-0.17-0.1-0.28-0.09
			C61.17,64.93,60.85,65.11,60.53,65.24"/>
	</g>
</g>
</svg>
