<?xml version="1.0" encoding="utf-8"?>
<!-- Generator: Adobe Illustrator 25.4.1, SVG Export Plug-In . SVG Version: 6.00 Build 0)  -->
<svg version="1.1" id="Layer_1" xmlns="http://www.w3.org/2000/svg" xmlns:xlink="http://www.w3.org/1999/xlink" x="0px" y="0px"
	 viewBox="0 0 109.61 80" style="enable-background:new 0 0 109.61 80;" xml:space="preserve">
<style type="text/css">
	.st0{fill:#170E0A;}
	.st1{fill:#00477F;}
	.st2{fill:#FFF500;}
</style>
<g>
	<path class="st0" d="M55.64,76.05c0.82-0.4,1.61-0.85,2.39-1.3C57.25,75.21,56.45,75.65,55.64,76.05z"/>
	<path class="st1" d="M106.96,38.61c-2.01-1.24-4.51-1.43-6.78-1c-2.16,0.37-4.14,1.31-6.12,2.22c-1.97,0.87-3.98,1.69-5.93,2.64
		c-3.63,1.66-7.35,3.13-11.1,4.53c0.31-1.69,0.5-3.43,0.56-5.2c0.03-0.6,0.05-1.19,0.05-1.79c0-0.21,0-0.43-0.02-0.64
		c0-0.21,0-0.44-0.02-0.64c-0.02-0.43-0.03-0.89-0.06-1.32c-0.08-1.32-0.21-2.63-0.44-3.92c-0.15-0.87-0.31-1.74-0.5-2.59
		c-0.1-0.42-0.21-0.85-0.31-1.27c-0.32-1.29-0.71-2.55-1.18-3.77c-0.31-0.84-0.64-1.64-1-2.45c-0.18-0.4-0.35-0.81-0.55-1.19
		c-0.39-0.79-0.79-1.58-1.22-2.34c-0.21-0.37-0.42-0.74-0.64-1.1c-0.44-0.72-0.9-1.45-1.4-2.14c-0.24-0.35-0.5-0.69-0.74-1.03
		c-0.44-0.6-0.9-1.16-1.37-1.72c-0.11-0.16-0.26-0.32-0.4-0.48c-0.23-0.26-0.45-0.52-0.68-0.76c-0.27-0.32-0.56-0.63-0.87-0.93
		c-0.44-0.45-0.87-0.89-1.34-1.31c-0.37-0.35-0.76-0.69-1.14-1.03c-0.16-0.15-0.32-0.29-0.5-0.42c-0.39-0.32-0.77-0.64-1.16-0.95
		c-0.05-0.03-0.1-0.06-0.15-0.11C61.49,7.52,61,7.17,60.5,6.83c-0.39-0.27-0.79-0.55-1.21-0.81c-0.23-0.16-0.47-0.31-0.71-0.45
		c-0.42-0.26-0.84-0.5-1.27-0.74c-0.55-0.31-1.11-0.61-1.68-0.89c-0.56-0.29-1.14-0.55-1.72-0.81c-0.58-0.26-1.16-0.48-1.76-0.71
		c-0.6-0.23-1.19-0.44-1.8-0.63c-0.5-0.16-1-0.31-1.5-0.45c-0.55-0.16-1.11-0.29-1.69-0.42c-0.27-0.06-0.53-0.11-0.81-0.18
		C45.68,0.61,45,0.5,44.31,0.42c-0.34-0.06-0.68-0.11-1.02-0.15c-0.24-0.03-0.48-0.06-0.74-0.08c-0.48-0.06-0.97-0.1-1.47-0.13
		c-0.21,0-0.4-0.02-0.61-0.03C39.96,0.02,39.44,0,38.93,0h-0.21c-0.63,0-1.26,0.02-1.87,0.05H36.8c-0.11,0-0.24,0.02-0.35,0.02
		c-1.84,0.1-3.66,0.35-5.45,0.74c-0.64,0.14-1.26,0.29-1.89,0.45c-0.6,0.16-1.18,0.34-1.76,0.52c-0.03,0.02-0.05,0.02-0.08,0.03
		c-0.61,0.19-1.21,0.4-1.8,0.63c-0.6,0.23-1.18,0.45-1.76,0.71c-0.03,0.02-0.06,0.03-0.08,0.03c-0.56,0.24-1.11,0.5-1.64,0.77
		c-1.13,0.55-2.24,1.16-3.3,1.84c-0.53,0.34-1.05,0.69-1.56,1.05c-0.15,0.08-0.27,0.18-0.4,0.27c-0.31,0.23-0.63,0.45-0.92,0.69
		c-0.63,0.47-1.24,0.97-1.84,1.48c-0.42,0.35-0.84,0.72-1.24,1.11c-0.47,0.43-0.92,0.87-1.35,1.32c-0.48,0.48-0.93,0.98-1.39,1.5
		c-0.29,0.34-0.6,0.69-0.89,1.05c-1.29,1.58-2.47,3.27-3.51,5.06c-0.32,0.53-0.61,1.06-0.9,1.61c-0.03,0.05-0.05,0.1-0.08,0.14
		c-0.27,0.52-0.53,1.05-0.77,1.58c-0.23,0.47-0.44,0.95-0.64,1.43c-0.11,0.26-0.21,0.5-0.31,0.76c-0.21,0.53-0.42,1.08-0.61,1.63
		c-0.1,0.31-0.21,0.61-0.29,0.92c-0.13,0.35-0.24,0.73-0.34,1.1c-0.18,0.56-0.32,1.11-0.45,1.68c-0.15,0.6-0.29,1.18-0.4,1.77
		c-0.13,0.66-0.24,1.32-0.34,1.98c-0.08,0.55-0.16,1.1-0.21,1.66C0.08,37.03,0,38.51,0,40.01c0,0.42,0,0.85,0.03,1.27
		c0.02,0.56,0.03,1.11,0.08,1.68c0.03,0.53,0.08,1.05,0.13,1.58c0.06,0.6,0.15,1.18,0.24,1.76c0.08,0.6,0.19,1.19,0.31,1.77
		c0.13,0.64,0.27,1.29,0.44,1.93c0.11,0.48,0.24,0.95,0.39,1.4c0.08,0.34,0.18,0.66,0.29,0.98c0.1,0.32,0.19,0.63,0.31,0.93
		c0.11,0.31,0.21,0.63,0.34,0.93c0.61,1.68,1.32,3.27,2.14,4.82c0.31,0.56,0.61,1.13,0.93,1.68c0.32,0.55,0.66,1.1,1.02,1.63
		c0.34,0.52,0.69,1.03,1.06,1.55c0.02,0.02,0.02,0.03,0.03,0.05l0.92,1.21c0.13,0.16,0.24,0.32,0.37,0.47
		c0.19,0.24,0.4,0.48,0.6,0.71c0.31,0.37,0.63,0.73,0.97,1.08c0.18,0.21,0.37,0.42,0.58,0.63c0.95,1.02,1.98,1.98,3.05,2.87
		c0.29,0.24,0.58,0.48,0.87,0.71c0.29,0.24,0.58,0.48,0.89,0.69c0.37,0.29,0.76,0.56,1.16,0.84c0.43,0.31,0.89,0.61,1.35,0.92
		c0.06,0.03,0.15,0.08,0.21,0.13c0.81,0.5,1.63,0.97,2.47,1.42c0.84,0.43,1.69,0.84,2.56,1.22c0.58,0.26,1.16,0.48,1.76,0.71
		c0.02,0.02,0.02,0.02,0.03,0.02c0.55,0.21,1.1,0.4,1.66,0.58c0.1,0.03,0.19,0.06,0.29,0.08c0.45,0.16,0.9,0.29,1.37,0.42
		c0.37,0.1,0.74,0.19,1.11,0.27c0.1,0.03,0.19,0.06,0.29,0.06c0.42,0.11,0.85,0.21,1.29,0.29c0.29,0.06,0.6,0.11,0.9,0.16
		c0.29,0.05,0.58,0.1,0.87,0.13c0.58,0.1,1.18,0.18,1.77,0.23c0.27,0.03,0.55,0.06,0.82,0.06c0.4,0.05,0.79,0.06,1.19,0.08
		c0.58,0.03,1.16,0.05,1.74,0.05h0.02c0.63,0,1.26-0.02,1.87-0.05c0.53-0.03,1.06-0.06,1.58-0.11c0.47-0.05,0.93-0.1,1.4-0.16
		c0.15,0,0.29-0.03,0.42-0.06c0.4-0.05,0.79-0.11,1.19-0.18c0.19-0.02,0.39-0.06,0.56-0.1c0.45-0.08,0.89-0.18,1.34-0.27
		c0.11-0.03,0.23-0.05,0.32-0.08c0.52-0.13,1.02-0.26,1.51-0.4c0.58-0.16,1.14-0.32,1.69-0.52c1.69-0.55,3.34-1.22,4.91-2.01
		c0.47-0.23,0.93-0.47,1.39-0.73c0.34-0.19,0.68-0.39,1.02-0.58c0.06-0.03,0.13-0.06,0.19-0.11c0.05-0.03,0.11-0.06,0.16-0.08
		c0.15-0.09,0.29-0.2,0.44-0.3c0.96-0.59,1.89-1.21,2.78-1.88c0.45-0.34,0.9-0.69,1.34-1.05c0.45-0.37,0.9-0.76,1.34-1.16
		c0.35-0.31,0.71-0.63,1.05-0.97c0.24-0.23,0.47-0.45,0.69-0.71c0.4-0.39,0.77-0.77,1.11-1.16c0.18-0.18,0.34-0.35,0.47-0.53
		c0.32-0.35,0.63-0.71,0.9-1.08c0.73-0.85,1.39-1.74,2.01-2.66c0.06-0.08,0.11-0.16,0.16-0.26c0.24-0.35,0.47-0.69,0.69-1.06
		c0.27-0.44,0.55-0.89,0.81-1.34c0.79-1.35,1.5-2.76,2.11-4.21c0.16-0.35,0.31-0.73,0.45-1.08c0.45-1.1,0.84-2.22,1.18-3.37
		c3.01-1.8,6.32-3.08,9.51-4.53c2.88-1.27,5.7-2.71,8.57-4.03c1.29-0.56,2.56-1.19,3.93-1.58c2.19-0.61,4.48-0.79,6.74-0.89
		c1.66-0.08,3.3,0.15,4.95,0.21C108.81,40.07,107.95,39.23,106.96,38.61z M75.87,43.25c0,0.23-0.03,0.45-0.05,0.68
		c-0.06,0.64-0.15,1.29-0.24,1.92c-0.08,0.56-0.18,1.13-0.29,1.68c-2.13,0.53-4.33-0.21-6.07-1.43
		c-5.33-3.56-10.23-7.78-14.63-12.46c-2.64-2.72-4.88-5.87-6.49-9.31c-0.19-0.37-0.37-0.81-0.81-0.95
		c-5.83-2.53-11.67-5.08-17.51-7.56c1.9,5.01,5.49,9.3,9.84,12.39c-3.58-0.82-7.03-2.14-10.31-3.77C23.46,21.4,18,17.71,12.45,14.18
		c1.22,4.04,2.9,7.96,4.91,11.68c2.16,4.16,4.5,8.28,7.77,11.68c3.14,3.42,6.86,6.33,11.04,8.38c6.17,3.09,12.65,5.53,19.24,7.51
		c-2.85,2.06-6.24,3.22-9.62,4.03c-3.3,0.79-6.64,1.35-9.94,2.01c-3.56,0.69-7.14,1.32-10.68,2c-1.13,0.24-2.29,0.47-3.24,1.14
		c-0.53,0.39-0.26,1.22,0.21,1.53c1.37,1,3.19,0.93,4.75,0.56c2.95-0.73,5.83-1.71,8.78-2.42c4.54-1.14,9.22-1.74,13.91-1.9
		c4.16-0.18,8.35-0.13,12.44-0.98c4.33-1.05,8.02-3.71,11.7-6.12c-0.06,0.19-0.13,0.39-0.21,0.58c-0.13,0.35-0.26,0.71-0.42,1.06
		c-0.21,0.55-0.45,1.08-0.71,1.61c-0.02,0.05-0.03,0.1-0.06,0.16c-0.24,0.53-0.5,1.06-0.79,1.58c-0.23,0.44-0.47,0.87-0.71,1.29
		c-0.14,0.27-0.31,0.53-0.47,0.79c-0.23,0.37-0.45,0.73-0.68,1.08c-0.18,0.27-0.37,0.55-0.56,0.82c-0.19,0.27-0.39,0.55-0.58,0.81
		c-2.27,3.11-4.99,5.85-8.07,8.1c0,0.03-0.02,0.03-0.03,0.05c-0.23,0.18-0.47,0.34-0.71,0.5c-1.77,1.26-3.66,2.34-5.64,3.24
		c-0.4,0.21-0.82,0.4-1.26,0.56c-1.08,0.47-2.18,0.87-3.3,1.21c-0.47,0.14-0.93,0.27-1.4,0.4c-0.6,0.16-1.19,0.31-1.79,0.44
		c-0.61,0.13-1.22,0.26-1.84,0.34c-0.53,0.08-1.06,0.15-1.6,0.21c-0.21,0.02-0.44,0.05-0.64,0.06c-0.37,0.03-0.76,0.06-1.14,0.08
		c-0.29,0.03-0.56,0.05-0.85,0.05c-0.48,0.02-0.95,0.03-1.43,0.03c-1.32,0-2.64-0.06-3.93-0.21c-0.58-0.05-1.16-0.13-1.74-0.23
		c-0.61-0.08-1.22-0.19-1.84-0.34c-2.11-0.45-4.16-1.08-6.11-1.87c-0.02,0-0.03-0.02-0.05-0.02c-0.44-0.18-0.85-0.35-1.29-0.55
		c-2.11-0.97-4.12-2.13-6.01-3.45C11.83,67.45,7.07,61.41,4.28,54.33c-0.43-1.11-0.81-2.24-1.14-3.39c0,0,0-0.01,0-0.01
		c-0.99-3.46-1.53-7.13-1.53-10.92c0-1.29,0.06-2.56,0.19-3.83V36.1c0.01-0.08,0.01-0.16,0.02-0.24C3.77,17.33,18.5,2.77,36.74,1.72
		c0.08,0,0.16-0.02,0.24-0.02c0.51-0.03,1.01-0.04,1.52-0.04c0.21,0,0.43,0,0.64,0c0.87,0.01,1.72,0.05,2.58,0.11
		c0.04,0,0.08,0.01,0.12,0.01c0.09,0.01,0.19,0.01,0.28,0.02C43.09,1.9,44.05,2.03,45,2.19c0.1,0.02,0.21,0.03,0.31,0.05
		c1.05,0.19,2.1,0.42,3.12,0.7c4.21,1.16,8.12,3.06,11.62,5.56c0.34,0.26,0.69,0.52,1.03,0.77c0.95,0.74,1.87,1.51,2.76,2.34
		c0.43,0.42,0.87,0.84,1.29,1.27c0.84,0.87,1.64,1.77,2.4,2.72c0.76,0.95,1.47,1.93,2.14,2.95c0.34,0.5,0.64,1.02,0.95,1.53
		c0,0.02,0,0.02,0.02,0.03c0.61,1.05,1.18,2.13,1.71,3.24c0,0.02,0,0.03,0.02,0.03c0.27,0.55,0.52,1.11,0.73,1.69
		c0.26,0.58,0.48,1.16,0.68,1.74c0.05,0.13,0.1,0.27,0.15,0.42c0.19,0.53,0.35,1.08,0.52,1.63c0.02,0.05,0.03,0.08,0.03,0.11
		c0.18,0.6,0.34,1.19,0.47,1.79c0.06,0.23,0.11,0.47,0.16,0.69c0.13,0.58,0.24,1.16,0.34,1.74c0.02,0.05,0.03,0.11,0.03,0.18
		c0.1,0.53,0.18,1.08,0.24,1.63c0.05,0.39,0.08,0.79,0.11,1.18c0.05,0.42,0.08,0.85,0.1,1.27c0.05,0.56,0.06,1.13,0.08,1.69
		c0,0.44,0.02,0.89,0.02,1.32c0,0.47-0.02,0.92-0.03,1.39S75.92,42.8,75.87,43.25z"/>
	<path class="st2" d="M75.33,47.52c-2.14,0.52-4.35-0.21-6.11-1.43c-5.33-3.56-10.23-7.8-14.63-12.46
		c-2.64-2.74-4.88-5.87-6.49-9.31c-0.19-0.39-0.37-0.82-0.81-0.97c-5.83-2.51-11.67-5.06-17.51-7.56c1.9,5.03,5.48,9.31,9.84,12.41
		c-3.58-0.84-7.03-2.14-10.31-3.77c-5.85-3.03-11.3-6.74-16.85-10.26c1.22,4.06,2.9,7.98,4.91,11.7c2.16,4.14,4.5,8.28,7.77,11.67
		c3.14,3.42,6.86,6.33,11.04,8.39c6.17,3.08,12.65,5.53,19.24,7.49c-2.85,2.06-6.22,3.24-9.62,4.04c-3.3,0.77-6.64,1.34-9.94,2
		c-3.56,0.71-7.14,1.34-10.68,2.01c-1.13,0.24-2.29,0.47-3.24,1.14c-0.53,0.39-0.26,1.21,0.21,1.53c1.37,1,3.19,0.93,4.75,0.56
		c2.95-0.74,5.83-1.71,8.78-2.42c4.54-1.14,9.22-1.74,13.91-1.9c4.16-0.18,8.35-0.13,12.44-0.98c4.33-1.05,8.02-3.71,11.7-6.14
		c-1.21,3.51-3.01,6.78-5.14,9.8h-0.05c-2.27,3.11-4.99,5.85-8.07,8.1c-0.1,0.11-0.21,0.19-0.32,0.27
		c-4.69,3.38-10.17,5.64-15.89,6.51c-5.85,0.84-11.92,0.34-17.5-1.64c-6.78-2.4-12.81-6.85-17.18-12.57
		c-4.14-5.4-6.8-11.91-7.67-18.66c-0.82-6.77,0-13.78,2.63-20.08C7.3,18.27,12,12.31,18,8.17c5.77-4.03,12.73-6.35,19.77-6.53
		c6.69-0.21,13.41,1.5,19.19,4.85c6.45,3.71,11.7,9.39,15,16.05C75.78,30.2,76.89,39.12,75.33,47.52z"/>
</g>
</svg>
