<?xml version="1.0" encoding="utf-8"?>
<!-- Generator: Adobe Illustrator 25.4.1, SVG Export Plug-In . SVG Version: 6.00 Build 0)  -->
<svg version="1.1" id="Layer_1" xmlns="http://www.w3.org/2000/svg" xmlns:xlink="http://www.w3.org/1999/xlink" x="0px" y="0px"
	 viewBox="0 0 80.01 80" style="enable-background:new 0 0 80.01 80;" xml:space="preserve">
<style type="text/css">
	.st0{fill:#F47C2E;}
	.st1{fill:#0A3B82;}
</style>
<path class="st0" d="M32.45,26.17c-2.49,1.14-4.73,3.11-5.76,5.7c-0.68,2.23-0.5,4.92,1.22,6.65c3.48,3.62,8.5,4.97,12.69,7.52
	c1.31,0.69,2.68,1.5,3.37,2.88c1.06,1.68,0.3,4.17-1.46,5.05c-1.35,0.94-3.09,1.13-4.66,0.73c-4.1-1.33-7.47-4.8-8.37-9.07
	c-0.74-0.22-1.51-0.24-2.26-0.09c0,3.06-0.1,6.13,0.09,9.18c3.77,0.41,7.1,2.72,10.96,2.62c4.43,0.04,8.99-1.34,12.37-4.28
	c1.74-1.51,2.75-3.8,2.55-6.11c0.23-2.03-0.81-3.99-2.37-5.23c-3.72-3.04-8.27-4.75-12.47-7.02c-1.48-0.79-2.81-2.11-3.11-3.82
	c-0.04-1.46,0.95-2.99,2.37-3.43c2.28-0.97,5.03-0.8,7.17,0.47c2.13,1.49,3.37,3.85,4.21,6.25c0.73,0.49,1.65,0.3,2.46,0.21
	c-0.41-2.74-0.49-5.5-0.76-8.26c-1.53-0.24-3.06-0.47-4.54-0.89C41.62,24.1,36.76,24.41,32.45,26.17L32.45,26.17z"/>
<path class="st0" d="M55.29,42.06c-1.44-1.64-2.92-3.27-4.83-4.37c9.85-0.35,19.7-0.03,29.55-0.22c-1.7-1.4-3.46-2.72-5.22-4.05
	c-0.77-0.6-1.75-1.1-2.06-2.1c-0.49-1.3-0.81-2.66-1.31-3.96c-1.44-3.72-3.6-7.13-6.25-10.09c-0.39-0.35-0.77-0.97-1.38-0.81
	c-0.69,0.48-1.09,1.26-1.6,1.9c-1.29,1.92-2.9,3.6-4.23,5.5c-1.18,1.65-2.4,3.29-3.89,4.69c-0.15-1.76-0.52-3.64,0.13-5.34
	c0.86-1.2,2.05-2.12,3.03-3.21c3.14-3.43,6.63-6.53,9.63-10.08c-2.69,0.36-5.38,0.69-8.07,0.96c-1.36,0.17-2.53-0.68-3.69-1.25
	c-4.63-2.36-9.86-3.64-15.06-3.45c0.42,5.14,1.8,10.16,2.04,15.31c-1.25,0.05-2.49,0.05-3.74,0.02C38.11,14.34,38.15,7.17,38.19,0
	h-0.43c-1.24,1.92-2.77,3.62-4.09,5.48c-0.46,0.57-0.87,1.3-1.64,1.46c-4,1.08-7.91,2.66-11.29,5.09c-1.57,1.16-3.24,2.26-4.39,3.87
	c1.38,1.22,2.89,2.29,4.31,3.46c2.4,1.99,5.06,3.67,7.23,5.92c-0.95,0.91-1.85,1.86-2.76,2.81c-4.86-5-9.58-10.13-14.61-14.97
	c-0.15,2.72,0.5,5.39,0.56,8.1c0.04,1.56-1.04,2.81-1.66,4.17c-2.1,4.51-3.44,9.5-3.1,14.5c1.51-0.14,3.03-0.26,4.52-0.55
	c2.78-0.52,5.61-0.54,8.39-1.03c1.45-0.27,2.92-0.46,4.4-0.52c1.01,1.43,2.12,2.78,3.14,4.2C17.85,42.32,8.92,42.06,0,42.16v0.23
	c2.1,1.49,4.2,3.01,6.22,4.61c0.77,0.53,0.94,1.49,1.2,2.31c1.66,5.73,4.77,11.09,9.18,15.13c2.7-3.17,4.9-6.73,7.59-9.9
	c0.09,0.91,0.18,1.82,0.25,2.73c0.56,0.26,1.13,0.52,1.7,0.79c-4.06,4.07-8.31,7.97-12.23,12.18c2.83-0.03,5.58-0.78,8.41-0.87
	c0.51-0.02,0.98,0.21,1.44,0.42c5.25,2.81,11.24,4.44,17.23,3.97c-0.66-3.3-0.84-6.68-1.45-9.99c-0.22-1.14-0.3-2.31-0.26-3.48
	c1.27-0.17,2.54-0.23,3.82-0.18c0.21,6.62,0,13.26,0.11,19.88c1.58-2.1,3.2-4.16,4.76-6.28c0.96-1.46,2.86-1.33,4.3-1.99
	c4.55-1.93,8.75-4.77,12.13-8.38c-3.64-2.88-7.41-5.6-10.91-8.67c0.67-1.06,1.34-2.13,2-3.2c1.69,1.11,2.98,2.71,4.43,4.1
	c3.47,3.58,7,7.12,10.61,10.56c0.21-3.27-0.98-6.44-0.84-9.7c0.31-1.17,1.03-2.18,1.48-3.29c1.78-4.23,2.77-8.87,2.51-13.47
	C67.56,40.44,61.4,41.06,55.29,42.06z M54.33,31.69c1.66-0.53,3.4-0.69,5.08-1.14c1.78-0.39,3.54-0.96,5.38-1.01
	c-1.18,1.26-2.84,1.86-4.28,2.78c-2.12,1.1-3.99,2.61-6.18,3.57C54.19,34.49,54.2,33.09,54.33,31.69z M23.19,35.16
	c-1.43-0.83-2.76-1.82-4.14-2.72c-1.47-1.07-3.1-1.92-4.44-3.17c3.04,0.43,5.97,1.4,8.96,2.09C23.45,32.62,23.35,33.89,23.19,35.16z
	 M24.07,48.66c-1,0.57-2.24,0.57-3.33,0.93c-2.05,0.38-4.08,0.92-6.16,1.17c1.55-1.3,3.36-2.22,5.02-3.35
	c1.48-0.92,2.87-1.99,4.45-2.73C24.05,46,24.24,47.34,24.07,48.66z M29.62,65.73c0.13-2.32,0.73-4.57,1.11-6.86
	c0.89,0.24,1.78,0.49,2.66,0.78C32.32,61.77,31,63.78,29.62,65.73z M31.38,22.92c-0.97-2.92-1.57-5.95-2.13-8.97
	c1.84,2.64,3.61,5.32,5.47,7.94C33.66,22.38,32.55,22.75,31.38,22.92z M50.78,14.97c-0.22,2.56-1.01,5.02-1.58,7.52
	c-1.22,0.16-2.38-0.28-3.52-0.63C47.38,19.56,48.86,17.09,50.78,14.97z M49.14,63.6c-0.9-1.49-2.12-2.78-2.87-4.36
	c0.85-0.4,1.73-1.12,2.69-1.01c0.91,2.4,1.39,4.96,1.77,7.5C50.13,65.08,49.6,64.36,49.14,63.6z M57.61,49.23
	c-0.44-0.17-1.09-0.06-1.34-0.53c0-1.27,0-2.55-0.13-3.82c1.55,0.6,2.84,1.71,4.26,2.55c1.65,1.13,3.53,1.93,5.01,3.29
	C62.82,50.21,60.2,49.82,57.61,49.23z"/>
<path class="st1" d="M32.45,26.17c4.31-1.76,9.17-2.07,13.69-0.93c1.49,0.43,3.02,0.65,4.54,0.89c0.27,2.75,0.35,5.51,0.76,8.26
	c-0.82,0.09-1.73,0.28-2.46-0.21c-0.84-2.4-2.08-4.76-4.21-6.25c-2.14-1.27-4.88-1.45-7.17-0.47c-1.43,0.44-2.41,1.97-2.37,3.43
	c0.3,1.71,1.64,3.03,3.11,3.82c4.19,2.26,8.74,3.97,12.47,7.02c1.56,1.24,2.6,3.2,2.37,5.23c0.21,2.31-0.81,4.6-2.55,6.11
	c-3.37,2.94-7.94,4.32-12.37,4.28c-3.85,0.1-7.18-2.2-10.96-2.62c-0.19-3.06-0.09-6.13-0.09-9.18c0.75-0.15,1.52-0.12,2.26,0.09
	c0.9,4.27,4.27,7.74,8.37,9.07c1.57,0.4,3.31,0.21,4.66-0.73c1.76-0.88,2.53-3.37,1.46-5.05c-0.7-1.38-2.06-2.19-3.37-2.88
	c-4.19-2.55-9.21-3.9-12.69-7.52c-1.73-1.73-1.9-4.42-1.22-6.65C27.71,29.28,29.95,27.32,32.45,26.17L32.45,26.17z"/>
</svg>
