<?xml version="1.0" encoding="utf-8"?>
<!-- Generator: Adobe Illustrator 25.4.1, SVG Export Plug-In . SVG Version: 6.00 Build 0)  -->
<svg version="1.1" id="Layer_1" xmlns="http://www.w3.org/2000/svg" xmlns:xlink="http://www.w3.org/1999/xlink" x="0px" y="0px"
	 viewBox="0 0 279.29 80" style="enable-background:new 0 0 279.29 80;" xml:space="preserve">
<style type="text/css">
	.st0{fill:#F47C2E;}
	.st1{fill:#0A3B82;}
</style>
<g>
	<path class="st0" d="M29.6,0h0.34c-0.02,5.62-0.06,11.24,0.11,16.86c0.98,0.02,1.96,0.02,2.93-0.02c-0.19-4.04-1.27-7.98-1.6-12.01
		c4.08-0.15,8.18,0.86,11.81,2.71c0.91,0.45,1.82,1.12,2.89,0.98c2.11-0.21,4.22-0.47,6.33-0.76c-2.35,2.79-5.09,5.22-7.55,7.9
		c-0.77,0.86-1.7,1.58-2.38,2.52c-0.51,1.33-0.21,2.81-0.1,4.19c1.17-1.09,2.12-2.38,3.05-3.67c1.04-1.49,2.3-2.81,3.31-4.31
		c0.4-0.51,0.71-1.12,1.25-1.49c0.48-0.13,0.77,0.36,1.08,0.64c2.08,2.32,3.77,5,4.9,7.91c0.39,1.02,0.65,2.08,1.03,3.11
		c0.24,0.78,1.01,1.18,1.61,1.65c1.38,1.04,2.76,2.07,4.09,3.17c-7.72,0.15-15.45-0.1-23.16,0.17c1.5,0.86,2.66,2.14,3.79,3.43
		c4.79-0.79,9.62-1.27,14.43-1.87c0.2,3.61-0.57,7.24-1.97,10.56c-0.36,0.87-0.92,1.66-1.16,2.58c-0.11,2.56,0.82,5.05,0.65,7.61
		c-2.83-2.7-5.6-5.47-8.32-8.28c-1.13-1.09-2.14-2.35-3.47-3.22c-0.52,0.84-1.04,1.67-1.57,2.51c2.74,2.4,5.69,4.54,8.55,6.79
		c-2.65,2.83-5.94,5.06-9.51,6.57c-1.13,0.52-2.62,0.42-3.37,1.56c-1.22,1.66-2.49,3.28-3.73,4.92c-0.09-5.2,0.08-10.39-0.09-15.59
		c-1-0.04-2,0.01-2.99,0.14c-0.03,0.91,0.03,1.83,0.2,2.72c0.48,2.59,0.62,5.24,1.14,7.83c-4.69,0.37-9.39-0.91-13.51-3.11
		c-0.35-0.16-0.73-0.34-1.13-0.33c-2.21,0.07-4.37,0.66-6.59,0.68c3.07-3.3,6.4-6.35,9.58-9.55c-0.44-0.21-0.89-0.41-1.33-0.62
		c-0.06-0.71-0.13-1.43-0.2-2.14c-2.11,2.48-3.83,5.28-5.95,7.76c-3.46-3.16-5.9-7.37-7.2-11.86c-0.21-0.65-0.34-1.4-0.94-1.81
		C3.29,35.59,1.65,34.4,0,33.23v-0.18c7-0.08,14,0.12,20.99-0.12c-0.8-1.11-1.67-2.17-2.46-3.29c-1.16,0.05-2.31,0.2-3.45,0.41
		c-2.18,0.38-4.4,0.4-6.58,0.81c-1.17,0.22-2.36,0.32-3.55,0.43c-0.27-3.92,0.79-7.83,2.43-11.37c0.48-1.06,1.33-2.05,1.3-3.27
		c-0.05-2.12-0.56-4.22-0.44-6.35c3.94,3.79,7.64,7.81,11.45,11.73c0.71-0.75,1.42-1.49,2.16-2.21c-1.7-1.76-3.79-3.08-5.67-4.64
		c-1.11-0.92-2.29-1.76-3.38-2.71c0.91-1.26,2.21-2.12,3.44-3.03c2.65-1.91,5.72-3.15,8.85-3.99c0.61-0.13,0.93-0.7,1.29-1.15
		C27.43,2.84,28.63,1.51,29.6,0L29.6,0z M22.94,10.94c0.44,2.37,0.9,4.74,1.67,7.03c0.91-0.14,1.79-0.43,2.62-0.8
		C25.77,15.11,24.38,13.01,22.94,10.94L22.94,10.94z M35.81,17.14c0.9,0.27,1.81,0.62,2.76,0.49c0.45-1.96,1.07-3.89,1.24-5.89
		C38.3,13.4,37.14,15.34,35.81,17.14L35.81,17.14z M25.44,20.52c-1.96,0.9-3.71,2.44-4.52,4.47c-0.53,1.75-0.4,3.86,0.96,5.21
		c2.73,2.84,6.66,3.9,9.95,5.89c1.03,0.54,2.1,1.18,2.65,2.26c0.83,1.32,0.24,3.27-1.15,3.96c-1.06,0.73-2.42,0.89-3.65,0.57
		c-3.22-1.04-5.86-3.76-6.56-7.11c-0.58-0.17-1.18-0.19-1.77-0.07c0,2.4-0.08,4.8,0.07,7.2c2.96,0.32,5.57,2.13,8.59,2.05
		c3.47,0.03,7.05-1.05,9.7-3.35c1.36-1.18,2.16-2.98,2-4.79c0.18-1.59-0.64-3.13-1.86-4.1c-2.92-2.39-6.49-3.73-9.77-5.5
		c-1.16-0.62-2.21-1.66-2.44-2.99c-0.03-1.15,0.74-2.35,1.86-2.69c1.79-0.76,3.94-0.63,5.62,0.37c1.67,1.16,2.65,3.02,3.3,4.9
		c0.58,0.38,1.29,0.24,1.93,0.16c-0.32-2.15-0.38-4.32-0.6-6.47c-1.2-0.19-2.4-0.37-3.56-0.7C32.63,18.9,28.82,19.14,25.44,20.52
		L25.44,20.52z M11.45,22.94c1.05,0.98,2.33,1.64,3.48,2.48c1.08,0.71,2.13,1.48,3.25,2.13c0.13-0.99,0.2-1.99,0.29-2.98
		C16.13,24.04,13.84,23.28,11.45,22.94L11.45,22.94z M46.58,23.95c-1.31,0.35-2.68,0.48-3.98,0.89c-0.11,1.1-0.11,2.2,0,3.29
		c1.72-0.75,3.19-1.94,4.84-2.8c1.12-0.71,2.42-1.19,3.35-2.18C49.35,23.2,47.98,23.65,46.58,23.95L46.58,23.95z M15.37,37.16
		c-1.3,0.89-2.72,1.61-3.94,2.63c1.63-0.2,3.22-0.62,4.83-0.92c0.86-0.28,1.82-0.28,2.61-0.73c0.13-1.04-0.01-2.08-0.01-3.13
		C17.62,35.6,16.53,36.44,15.37,37.16L15.37,37.16z M44.02,35.19c0.1,1,0.1,1.99,0.1,2.99c0.2,0.37,0.71,0.28,1.05,0.41
		c2.03,0.46,4.08,0.77,6.12,1.17c-1.16-1.07-2.63-1.7-3.93-2.58C46.24,36.53,45.23,35.66,44.02,35.19L44.02,35.19z M36.28,46.44
		c0.59,1.24,1.54,2.25,2.25,3.42c0.36,0.6,0.77,1.16,1.25,1.67c-0.3-1.99-0.68-4-1.39-5.88C37.63,45.56,36.94,46.13,36.28,46.44
		L36.28,46.44z M24.09,46.15c-0.3,1.79-0.77,3.56-0.87,5.38c1.09-1.52,2.12-3.1,2.96-4.77C25.49,46.54,24.79,46.34,24.09,46.15
		L24.09,46.15z M217.73,52.74c0.68,0.01,1.35,0.02,2.03,0.01c0.16,6.33,0.06,12.66,0.09,18.99c-0.03,2.54,0.07,5.09-0.08,7.63
		c-0.68,0.13-1.38,0.14-2.06,0.02c-0.07-7.37-0.01-14.74-0.03-22.11C217.67,55.76,217.64,54.25,217.73,52.74L217.73,52.74z
		 M199.5,53.02c0.63-0.45,1.51-0.2,2.23-0.1c-0.01,1-0.01,1.99-0.01,2.99c-0.76,0.18-1.54,0.16-2.3,0.06
		C199.44,54.99,199.32,53.99,199.5,53.02L199.5,53.02z M223.96,52.86c0.72-0.08,1.45-0.09,2.18-0.02c0.09,1.07,0.15,2.17-0.05,3.23
		c-0.7,0-1.39,0-2.08,0.01C223.91,55.01,223.87,53.94,223.96,52.86L223.96,52.86z M212.12,59.98c0.72-0.13,1.45-0.1,2.18-0.14
		c0.04,0.69,0.05,1.39,0.04,2.08c-2.81-0.02-5.38,2.01-6.16,4.68c-0.58,2.11-0.22,4.33-0.31,6.49c-0.1,2.09-0.05,4.18-0.07,6.28
		c-0.7,0.09-1.41,0.09-2.11,0.01c-0.09-5.73,0.04-11.46-0.04-17.2c0-0.62,0.03-1.25,0.06-1.87c0.68-0.09,1.36-0.1,2.05-0.04
		c0.04,1.19,0.11,2.38,0.13,3.56C208.78,62.09,210.2,60.54,212.12,59.98L212.12,59.98z M182.12,64.13c1.12-2.09,3.11-3.83,5.52-4.13
		c2.27-0.2,4.96-0.25,6.63,1.57c1.61,1.79,1.25,4.4,1.26,6.62c0.2,3.75-0.1,7.51,0.28,11.25c-0.69,0.01-1.37-0.01-2.06-0.05
		c-0.1-0.67-0.22-1.34-0.34-2c-1.52,0.72-2.89,1.8-4.53,2.25c-1.42,0.39-2.99,0.56-4.43,0c-1.16-0.45-2.2-1.35-2.73-2.53
		c-0.51-1.17-0.48-2.49-0.35-3.73c0.17-1.71,1.5-3.06,2.93-3.88c2.87-1.53,6.15-1.88,9.23-2.8c0.02-1.42,0.02-3.08-1.11-4.12
		c-1.18-1.01-2.91-1.01-4.37-0.8c-1.98,0.31-3.47,1.78-4.57,3.35C183.03,64.81,182.57,64.47,182.12,64.13L182.12,64.13z
		 M188.11,70.01c-1.67,0.7-3.63,1.41-4.4,3.2c-0.46,1.35-0.29,3.08,0.93,3.99c0.87,0.97,2.3,0.85,3.47,0.7
		c1.93-0.53,3.79-1.51,5.17-2.99c0.26-2.03,0.17-4.12,0.05-6.17C191.54,68.91,189.79,69.42,188.11,70.01L188.11,70.01z
		 M235.73,60.62c1.39-0.76,3.03-0.78,4.57-0.64c2.04,0.11,3.82,1.81,4.12,3.82c0.47,2.43,0.19,4.93,0.26,7.39
		c-0.21,2.72,0.15,5.45-0.11,8.18c-0.68,0.11-1.37,0.1-2.05,0c-0.02-4.36,0.01-8.73,0-13.09c-0.06-1.25-0.26-2.6-1.09-3.6
		c-1.1-1.02-2.77-1.21-4.17-0.8c-1.5,0.39-2.66,1.48-3.77,2.51c-0.41,0.46-1.02,0.91-0.95,1.61c-0.01,4.45,0.01,8.89,0,13.34
		c-0.75,0.15-1.51,0.14-2.25-0.01c0.01-6.33,0.03-12.65-0.01-18.97c0.75-0.1,1.51-0.1,2.26-0.01c-0.01,0.83-0.01,1.67,0.05,2.5
		C233.76,62.26,234.56,61.18,235.73,60.62L235.73,60.62z M250.46,61.45c1.82-1.56,4.4-1.79,6.67-1.35c1.96,0.47,3.54,1.94,4.41,3.72
		c0.86,1.87,1.24,3.94,1.06,6c-4.33,0.19-8.67,0.04-13.01,0.08c-0.01,0.93-0.05,1.87,0.1,2.79c0.23,1.56,1.11,2.96,2.24,4.03
		c1.36,1.28,3.4,1.56,5.16,1.16c1.84-0.53,2.99-2.18,4.02-3.68c0.62,0.26,1.24,0.54,1.83,0.86c-1.09,2.06-2.75,3.82-5.05,4.59
		c-1.48,0.49-3.17,0.4-4.67,0c-1.86-0.5-3.56-1.56-4.5-3.25c-1.28-2.31-1.72-5.03-1.55-7.64C247.45,66.07,248.27,63.2,250.46,61.45
		L250.46,61.45z M253.42,61.91c-2.5,0.86-4.06,3.63-3.83,6.21c3.62,0.04,7.25,0.05,10.88-0.01c-0.06-1.65-0.65-3.26-1.6-4.61
		C257.66,61.83,255.32,61.33,253.42,61.91L253.42,61.91z M267.57,60.84c1.61-1.02,3.61-1,5.44-0.85c2.03,0.31,4.13,1.47,4.93,3.45
		c-0.46,0.32-0.91,0.68-1.42,0.91c-0.47-0.05-0.74-0.5-1.06-0.79c-1.45-1.71-4.04-2.38-6.1-1.49c-1.47,0.62-2.33,2.54-1.57,3.99
		c1.04,1.43,2.87,1.89,4.5,2.32c1.89,0.55,3.94,1.07,5.32,2.58c1.44,1.58,1.49,4.07,0.54,5.91c-0.79,1.46-2.36,2.31-3.88,2.77
		c-1.35,0.41-2.76,0.29-4.13,0c-2.19-0.46-4.16-1.84-5.33-3.77c0.53-0.37,1.06-0.72,1.6-1.07c0.94,1.16,1.97,2.36,3.43,2.84
		c1.97,0.73,4.6,0.58,5.99-1.19c1.15-1.31,1.02-3.61-0.51-4.58c-2.46-1.58-5.59-1.58-8.08-3.1
		C264.47,67.06,264.88,62.44,267.57,60.84L267.57,60.84z M199.44,60.31c0.76-0.08,1.53-0.06,2.3,0.03
		c-0.05,6.32-0.03,12.65-0.01,18.97c-0.75,0.17-1.52,0.18-2.28,0.04c-0.19-4.81-0.05-9.63-0.1-14.44
		C199.33,63.38,199.33,61.84,199.44,60.31L199.44,60.31z M223.97,60.3c0.72-0.07,1.44-0.04,2.17,0.03
		c0.17,4.16,0.02,8.33,0.07,12.49c-0.04,2.17,0.09,4.34-0.07,6.51c-0.72,0.11-1.45,0.14-2.17,0.05
		C223.95,73.02,223.95,66.66,223.97,60.3L223.97,60.3z"/>
	<path class="st1" d="M230.74,10.92c1.27-0.02,2.54-0.02,3.81,0c0.04,2.87-0.04,5.75,0.04,8.62c1.98-0.04,3.97-0.07,5.96,0
		c0.02,1.03,0.02,2.06-0.01,3.08c-1.99,0.05-3.98-0.01-5.97,0.03c-0.02,6.52-0.02,13.04,0,19.56c0.29,0.27,0.57,0.56,0.89,0.8
		c1.74,0.32,3.51-0.03,5.25,0.11c-0.03,0.96-0.03,1.92-0.01,2.88c-1.63,0.56-3.37,0.31-5.06,0.37c-1.58,0.09-3.36-0.36-4.3-1.73
		c-0.39-0.72-0.65-1.53-0.62-2.36c0.01-6.55,0.01-13.09,0-19.64c-1.45-0.01-2.89,0.02-4.33-0.02c-0.04-1.03-0.04-2.05-0.01-3.08
		c1.44-0.07,2.88-0.06,4.32-0.01C230.78,16.66,230.71,13.79,230.74,10.92L230.74,10.92z M67.36,22.62c1.11-1.98,3.3-3.1,5.47-3.51
		c1.44-0.11,2.89-0.15,4.33,0.02c2.74,0.67,5.45,2.06,7.06,4.45c-0.87,0.76-1.74,1.51-2.57,2.31c-1.31-1.7-3.05-3.26-5.25-3.59
		c-1.74-0.43-3.7-0.11-5.15,0.96c-1.08,1.1-1.58,2.99-0.67,4.34c1.16,1.41,3.02,1.85,4.66,2.45c2.84,0.82,5.87,1.56,8.14,3.57
		c2.77,2.62,2.7,7.56-0.03,10.19c-1.34,1.43-3.28,2.03-5.12,2.51c-1.26,0.11-2.53,0.06-3.79,0.04c-1.58-0.22-3.1-0.76-4.55-1.41
		c-1.66-0.84-3.06-2.11-4.28-3.5c0.85-0.89,1.94-1.48,2.88-2.26c1.14,1.45,2.5,2.8,4.28,3.42c1.37,0.67,2.93,0.58,4.41,0.52
		c1.3,0.01,2.53-0.63,3.46-1.49c0.78-0.99,1.49-2.33,1.04-3.61c-0.7-2.25-3.21-3.13-5.27-3.69c-3.2-1.08-6.97-1.64-9.09-4.56
		C66.11,27.6,66.22,24.81,67.36,22.62L67.36,22.62z M113.43,22.97c1.69-1.7,3.65-3.26,6.03-3.84c2.13-0.23,4.46-0.24,6.29,1.02
		c2.22,1.28,3.04,3.96,3.1,6.38c0.06,6.41-0.02,12.83,0.04,19.25c-1.24,0.08-2.47,0.05-3.7,0.04c-0.03-6.46,0-12.92-0.01-19.38
		c-0.07-1.43-0.5-3.1-1.89-3.79c-1.06-0.46-2.27-0.72-3.4-0.4c-2.03,0.37-3.81,1.52-5.4,2.78c-0.46,0.48-1.21,0.92-1.1,1.69
		c0.01,6.36-0.01,12.72,0.01,19.08c-1.25,0.04-2.5,0.04-3.76,0.02c-0.01-8.76-0.01-17.52,0-26.27c1.25-0.06,2.51-0.09,3.76,0.02
		C113.39,20.7,113.37,21.84,113.43,22.97L113.43,22.97z M138.63,24.9c1.28-2.98,4.07-5.27,7.29-5.8c1.44-0.12,2.89-0.1,4.33,0.02
		c2.28,0.53,4.42,1.85,5.69,3.85c0.7,0.97,1.09,2.12,1.68,3.16c-1.15,0.37-2.26,0.87-3.42,1.19c-0.73-1.71-1.58-3.59-3.36-4.44
		c-2.19-1.25-5.07-0.9-7.01,0.66c-2.03,1.78-2.57,4.56-3.02,7.09c-0.31,2.95,0.1,5.98,1.22,8.73c1.05,2.29,3.47,4.08,6.07,3.79
		c1.99,0.16,3.97-0.64,5.26-2.17c0.83-0.7,1.06-1.89,1.87-2.57c1,0.36,1.94,0.86,2.95,1.2c-1.56,2.58-3.45,5.32-6.48,6.26
		c-1.75,0.71-3.66,0.49-5.5,0.46c-2.06-0.42-4.11-1.31-5.55-2.89c-2.15-2.2-3.01-5.28-3.45-8.24c-0.02-1.74-0.05-3.48,0.02-5.22
		C137.58,28.27,137.81,26.48,138.63,24.9L138.63,24.9z M168.09,19.17c1.58-0.2,3.2-0.17,4.79-0.03c2.45,0.62,4.79,2.06,6.07,4.3
		c1.42,2.03,1.92,4.5,2.33,6.89c0.38,3.29-0.08,6.65-1.3,9.73c-1.2,2.63-3.29,5.05-6.16,5.85c-1.5,0.65-3.14,0.45-4.73,0.45
		c-3.25-0.41-6.19-2.52-7.6-5.48c-1.03-2.29-1.82-4.79-1.68-7.33c0.03-1.27-0.06-2.54,0.04-3.8c0.27-1.3,0.55-2.6,1.04-3.83
		C161.94,22.63,164.73,19.96,168.09,19.17L168.09,19.17z M169.48,22.23c-2.42,0.28-4.31,2.21-5.07,4.45
		c-0.76,1.64-0.73,3.48-0.98,5.24c-0.16,1.28,0.22,2.54,0.25,3.82c0.26,2.64,1.48,5.38,3.87,6.73c1.34,0.89,3.03,0.71,4.55,0.6
		c1.96-0.47,3.56-1.98,4.33-3.83c1.47-2.76,1.11-5.96,1.12-8.97c-0.26-2.72-1.29-5.64-3.66-7.22
		C172.56,22.32,170.97,21.89,169.48,22.23L169.48,22.23z M209.47,22.98c2.05-2.17,4.76-4.16,7.9-3.97c2.23-0.09,4.61,0.73,5.99,2.56
		c1.2,1.53,1.49,3.53,1.64,5.42c0.01,6.28,0.01,12.56-0.01,18.84c-1.27,0.02-2.54,0.02-3.81,0c-0.02-6.55-0.01-13.1-0.01-19.65
		c-0.06-1.3-0.5-2.77-1.73-3.44c-0.94-0.51-2.07-0.74-3.13-0.57c-2.64,0.43-4.95,2-6.85,3.83c-0.06,6.61,0,13.22-0.03,19.83
		c-1.25,0.02-2.5,0.03-3.75-0.02c0.01-8.74,0.02-17.48,0-26.22c1.25-0.13,2.5-0.07,3.76-0.04
		C209.47,20.68,209.47,21.83,209.47,22.98L209.47,22.98z M251.2,20.43c1.54-0.94,3.35-1.54,5.17-1.33c0.02,1.24,0.04,2.49-0.04,3.73
		c-1.36,0.07-2.82,0.12-3.95,0.98c-2.04,1.21-3.22,3.36-4.06,5.49c-0.24,0.77-0.73,1.49-0.66,2.33c0,4.73,0.01,9.46-0.01,14.19
		c-1.24,0.01-2.47,0.04-3.71-0.04c0.07-8.76-0.01-17.51,0.04-26.26c1.21-0.03,2.42-0.01,3.63-0.03c0.11,1.71-0.02,3.42,0.09,5.13
		C248.66,23.06,249.69,21.5,251.2,20.43L251.2,20.43z M25.44,20.52c3.38-1.38,7.19-1.62,10.73-0.73c1.16,0.34,2.36,0.51,3.56,0.7
		c0.22,2.16,0.27,4.32,0.6,6.47c-0.64,0.07-1.36,0.22-1.93-0.16c-0.65-1.88-1.63-3.73-3.3-4.9c-1.67-1-3.83-1.13-5.62-0.37
		c-1.12,0.34-1.89,1.54-1.86,2.69c0.23,1.34,1.28,2.37,2.44,2.99c3.29,1.78,6.85,3.11,9.77,5.5c1.22,0.97,2.04,2.51,1.86,4.1
		c0.16,1.81-0.64,3.61-2,4.79c-2.65,2.3-6.22,3.38-9.7,3.35c-3.02,0.08-5.63-1.73-8.59-2.05c-0.15-2.4-0.07-4.8-0.07-7.2
		c0.59-0.11,1.19-0.1,1.77,0.07c0.7,3.34,3.35,6.07,6.56,7.11c1.23,0.32,2.6,0.16,3.65-0.57c1.38-0.69,1.98-2.64,1.15-3.96
		c-0.55-1.08-1.62-1.72-2.65-2.26c-3.29-2-7.22-3.06-9.95-5.89c-1.35-1.36-1.49-3.46-0.96-5.21C21.73,22.95,23.48,21.42,25.44,20.52
		L25.44,20.52z M88.14,19.49c1.16,0.01,2.32,0.02,3.49-0.01c0.05,0.5,0.09,1.01,0.09,1.51c-0.02,5.83,0,11.65-0.01,17.48
		c0.06,1.46,0.41,3.08,1.61,4.03c1.15,0.89,2.7,0.63,4.05,0.56c2.41-0.61,4.55-2.06,6.21-3.89c0.05-0.32,0.08-0.65,0.07-0.98
		c-0.02-6.22-0.01-12.43,0-18.65c1.18-0.07,2.36-0.06,3.54-0.01c0.01,8.76,0.01,17.52,0,26.28c-1.18,0.02-2.36,0.02-3.54,0
		c-0.02-1.13,0.01-2.27-0.04-3.4c-0.98,0.68-1.71,1.65-2.73,2.28c-1.16,0.74-2.43,1.34-3.78,1.64c-1.49,0.04-3.07,0.22-4.46-0.44
		c-1.77-0.59-3.33-1.91-3.91-3.72c-0.3-1.04-0.71-2.08-0.64-3.18C88.13,32.5,88.02,25.99,88.14,19.49L88.14,19.49z M258.39,19.47
		c1.28,0.04,2.56,0.03,3.85,0.05c2.36,6.7,4.78,13.38,7.05,20.11c0.47-0.97,0.75-2.01,1.03-3.05c1.77-5.66,3.46-11.34,5.23-17.01
		c1.24-0.1,2.49-0.07,3.74-0.05v0.75c-1.16,3-2,6.11-3.04,9.15c-1.8,5.56-3.59,11.14-5.39,16.7c-0.56,1.52-0.88,3.14-1.71,4.55
		c-0.75,1.36-1.64,2.73-3,3.56c-2.19,1.54-5.05,1.63-7.58,1.06c-0.03-0.99-0.03-1.97-0.01-2.96c1.87,0.06,3.87,0.26,5.58-0.67
		c1.88-1.21,3.08-3.35,3.32-5.55C264.51,37.22,261.33,28.38,258.39,19.47L258.39,19.47z M183.89,19.57
		c1.25-0.13,2.51-0.06,3.76-0.04c0,6.68,0.01,13.36,0,20.03c-0.01,1.54,1.07,2.98,2.5,3.49c1.13,0.13,2.3,0.17,3.42-0.06
		c2.06-0.72,3.97-1.9,5.5-3.46c0.31-0.27,0.3-0.69,0.31-1.07c-0.01-6.31-0.02-12.61,0.01-18.92c1.27-0.07,2.54-0.05,3.81-0.01
		c0.01,8.76,0.01,17.52-0.01,26.28c-1.27,0.02-2.54,0.01-3.81,0c-0.01-1.12-0.01-2.24-0.01-3.37c-1.76,1.54-3.58,3.14-5.9,3.73
		c-2.71,0.6-5.99,0.09-7.85-2.15c-1.55-1.64-1.67-3.99-1.72-6.12C183.9,31.8,183.92,25.69,183.89,19.57L183.89,19.57z"/>
</g>
</svg>
