<?xml version="1.0" encoding="utf-8"?>
<!-- Generator: Adobe Illustrator 25.4.1, SVG Export Plug-In . SVG Version: 6.00 Build 0)  -->
<svg version="1.1" id="Layer_1" xmlns="http://www.w3.org/2000/svg" xmlns:xlink="http://www.w3.org/1999/xlink" x="0px" y="0px"
	 viewBox="0 0 496 80" style="enable-background:new 0 0 496 80;" xml:space="preserve">
<style type="text/css">
	.st0{fill-rule:evenodd;clip-rule:evenodd;fill:#F3AE00;}
	.st1{fill-rule:evenodd;clip-rule:evenodd;fill:#1F1342;}
</style>
<g>
	<path id="path14" class="st0" d="M47.21,0c-0.29,0.32-1.35,3.82-1.56,4.54l-4.61,0.01c0.22,0.45-0.08,0.06,0.38,0.46l3.29,2.34
		c-0.12,1.45-1.12,3.31-1.32,4.68c0.95-0.22,2.76-2.27,3.83-2.66c0.59,0.19,1.36,0.92,1.91,1.34c0.45,0.35,1.35,1.19,1.91,1.32
		c-0.19-1.33-1.09-3.08-1.32-4.52l0.42-0.4C50.28,7,50.4,6.91,50.57,6.79l2.58-1.89c0.17-0.19,0.1-0.06,0.24-0.34l-4.61-0.01
		C48.56,3.82,47.5,0.31,47.21,0L47.21,0z M26.94,6.38c-0.33,0.52-0.59,1.69-0.79,2.33l-0.8,2.3l-4.65,0.03
		c0.1,0.31,3.17,2.54,3.73,2.87c0.04,1.26-1.15,3.33-1.26,4.71c0.44-0.18,1.45-1.06,1.9-1.4c0.44-0.33,1.57-1.26,1.94-1.37
		c0.97,0.54,2.87,2.24,3.82,2.71c-0.06-1.23-1.21-3.26-1.38-4.66c0.54-0.4,3.53-2.57,3.73-2.91l-4.79-0.01L26.94,6.38z M67.53,6.39
		L66,10.95l-4.81,0.03l3.78,2.92c-0.13,1.29-1.39,3.64-1.36,4.69c0.45-0.2,3-2.32,3.8-2.75c0.91,0.29,2.85,2.39,3.84,2.78
		c-0.09-1.38-1.27-3.39-1.27-4.73c0.47-0.28,3.62-2.48,3.74-2.85l-4.65-0.03C68.59,10.31,67.95,7.19,67.53,6.39L67.53,6.39z
		 M12.09,21.5c-0.36,0.52-1.01,3.23-1.35,4.16c-0.19,0.52,0,0.35-0.35,0.52l-4.47,0.03c0.14,0.45,1.32,1.12,1.74,1.43
		c0.25,0.18,1.78,1.28,1.88,1.43c0.19,0.74-1.11,3.49-1.22,4.66c0.8-0.29,3.12-2.49,3.88-2.76c0.3,0.28,3.44,2.61,3.8,2.76
		l-1.42-4.58c0.27-0.38,0.61-0.54,0.93-0.77l2.33-1.78c0.11-0.09,0.29-0.25,0.28-0.48l-4.59,0L12.09,21.5z M82.36,21.51l-1.52,4.56
		l-4.66,0.01c0.35,0.93,3.02,2.08,3.62,3.04l-1.43,4.58c0.38-0.13,3.49-2.41,3.85-2.75c0.56,0.2,1.38,0.95,1.92,1.38
		c0.33,0.26,0.67,0.5,0.95,0.71c0.35,0.26,0.61,0.53,1.01,0.67c-0.11-1.14-1.41-3.94-1.22-4.66c0.12-0.16,1.5-1.15,1.81-1.37
		c0.4-0.3,1.67-1.02,1.81-1.47l-4.47-0.05c-0.3-0.07-0.26-0.21-0.5-1.02L82.36,21.51z M47.69,25.27c-3.89-0.19-7.83,2.21-8.95,6.63
		c-0.27,1.05-0.54,3.72,0.03,4.59c0.35-0.11,0.58-0.45,0.91-0.71c6.29-5.15,7.42,10.08,3.83,15.83c-2.83,4.55-8.84,7.55-13.92,5.23
		c-1.31-0.6-3.02-1.92-3.73-3.1c-0.23,0.25-1.27,2.39-2.61,4.09c-0.95,1.21-2.35,2.33-3.91,2.99c-1.95,0.82-3.57,0.9-5.87,0.51
		c-1.16-0.19-2.85-0.72-3.91-1.21c-0.55-0.25-0.84-0.51-1.41-0.26c-0.48,2.13,3.07,7.99,9.92,7.06c3.36-0.46,5.81-2.88,7.27-5.61
		c0.49-0.92,1.07-2.66,1.3-2.99c0.42,0.66,1.37,1.54,2.09,2.2c4.86,4.43,11,2.54,14.92-2.24c1.03-1.26,2.38-3.2,3.08-4.73
		c0.18-0.4,0.19-0.54,0.49-0.71c0.3,0.17,1.18,2.02,1.65,2.77c3.85,6.14,10.32,10.44,16.77,4.97c0.66-0.56,1.77-1.63,2.17-2.25
		c0.57,0.74,0.85,3.08,3.01,5.5c4.25,4.76,11.41,4.01,14.48-0.73c0.39-0.6,1.2-2.36,1-3.23c-0.76-0.33-2.87,1.09-5.19,1.45
		c-9.37,1.45-11.22-6.3-12.54-7.54c-5.36,6.82-14.06,3.67-17.63-2.16c-1.93-3.16-2.76-10.03-1.23-14.27
		c0.15-0.43,0.29-0.76,0.52-1.13c0.83-1.27,1.9-1.94,3.45-1.14c1.2,0.62,1.53,1.27,1.99,1.42c0.55-0.82,0.31-3.54,0.06-4.5
		c-0.37-1.43-0.9-2.5-1.66-3.46C52.35,26.44,50.03,25.39,47.69,25.27L47.69,25.27z M47.21,27.53c3.75,0,6.07,3.72,6.08,5.03
		c-4.71-0.46-4.81,2.51-6.08,3.28c-0.37-0.22-0.38-0.4-0.6-0.73c-0.53-0.77-0.94-1.23-1.76-1.83c-1.17-0.85-2.05-0.88-3.72-0.72
		c0.01-0.96,1.38-2.79,2.09-3.45C44.23,28.16,45.45,27.53,47.21,27.53z M6.21,42.43l-1.52,4.61L0,47.08
		c0.45,0.69,2.9,2.23,3.71,2.88c-0.02,0.94-1.07,3.59-1.35,4.69c0.65-0.13,3.52-2.81,3.94-2.77c0.31,0.04,3.5,2.73,3.88,2.71
		l-1.51-4.63c0.29-0.19,0.67-0.54,0.97-0.76c0.54-0.4,2.54-1.81,2.76-2.18L7.7,47.03L6.21,42.43z M88.3,42.43L86.73,47l-4.72,0.02
		c0.18,0.31,3.09,2.51,3.68,2.95c-0.18,1.36-1.34,3.54-1.39,4.68l3.81-2.75c0.43,0.1,0.68,0.41,1.01,0.64
		c0.35,0.25,0.65,0.49,0.94,0.71c0.39,0.3,1.58,1.32,1.99,1.41c-0.31-1.32-1.28-3.49-1.37-4.74l2.74-1.94
		c0.32-0.24,0.73-0.37,0.87-0.83c-0.91-0.31-3.33-0.01-4.51-0.13L88.3,42.43z M47.21,61.12c-0.17,0-0.34,0.07-0.51,0.24
		c-1.23,1.19-1.93,3.72-2.18,4.1c-1.33-0.06-2.32-0.07-3.06,0.75c0.64,1.8,4.12,3.55,5.74,3.55c1.07,0,2.6-0.74,3.39-1.19
		c0.9-0.52,2.02-1.37,2.36-2.37c-0.79-0.81-1.7-0.8-3.06-0.75C49.48,64.83,48.39,61.14,47.21,61.12L47.21,61.12z M67.15,62.79
		c-0.82,0.26-1.48,0.85-2.11,1.56c-0.79,0.87-1.13,1.52-1.6,2.05c-1.2-0.58-1.75-0.6-3.13-0.22c0.11,1.96,2.46,3.98,4.17,4.87
		c1.03,0.54,2.76,0.25,3.91-0.03c1.16-0.28,2.31-0.88,2.87-1.61c-0.52-1.56-2.27-1.27-2.63-1.6C68.15,67.33,68.53,63.8,67.15,62.79
		L67.15,62.79z M27.13,62.86c-0.47,0.55-0.73,1.36-0.91,2.17c-0.16,0.71-0.12,2.12-0.36,2.73c-0.52,0.22-1.03,0.15-1.59,0.44
		c-0.66,0.33-0.71,0.58-1.12,1.01c0.25,0.94,1.92,1.56,2.77,1.78c0.99,0.26,3.04,0.53,3.94,0.11c1.69-0.8,4.11-2.95,4.26-4.93
		c-1.37-0.32-1.88-0.38-3.14,0.23c-0.56-0.64-0.98-1.4-1.58-2.05C28.83,63.74,27.94,62.84,27.13,62.86L27.13,62.86z M44.65,70.58
		c-8.09,0.14-17.22,1.46-25.01,3.35l-2.74,0.7c-0.57,0.13-0.59,0.01-0.65,0.63c-0.1,0.98-0.03,3.71,0.05,4.74l7.01-1.66
		c2.17-0.55,5.16-1.06,7.41-1.36c11.35-1.52,25.41-1.63,36.66,0.62c2.37,0.47,4.76,0.89,7.16,1.54c0.69,0.19,3.02,0.87,3.56,0.85
		l0.04-5.21c-4.17-1.19-11.24-2.64-15.6-3.2C56.72,70.85,50.85,70.47,44.65,70.58L44.65,70.58z"/>
	<path id="path16" class="st1" d="M199.12,29.83c-1.4-0.04-2.81-0.03-4.21,0.02c-11.4,0.42-20.12,4.05-21.44,14.73
		c-0.79,6.37,1.8,10.15,5.99,12.14c4.41,2.1,10.41,2.45,15.84,2.25c11.59-0.44,19.94-4.03,21.42-14.84
		C218.25,33.04,208.93,30.11,199.12,29.83L199.12,29.83z M295.66,29.84c-11.35,0.34-20.38,3.81-21.87,14.34
		c-1.84,12.99,9.82,15.15,21.29,14.81c10.31-0.31,19.92-2.92,21.87-14.48C319.1,31.77,306.79,29.51,295.66,29.84z M160.85,30.26
		c-4.38,0.02-8.9,0.08-11.34,0.08c-6.95,0-13.87,0.43-17.11,4.89c-1.48,2.04-2.35,6.13-0.7,8.58c1.43,2.12,3.91,3.12,7.32,3.58
		c5.4,0.73,19.5-0.52,20.55,1.36c0.62,2.93-2.39,3.17-4.91,3.27c-2.62,0.11-5.38,0.03-8.02,0.03c-5.31,0-10.63,0.01-16-0.01
		l-0.98,5.7v0.71c7.23,0.24,14.86,0.02,22.13,0.02c6.96,0,14.07-0.3,17.18-4.78c1.5-2.16,2.43-5.92,0.87-8.51
		c-2.83-4.7-12.9-3.79-18.43-3.79c-2.52,0-8.31,0.62-9.63-1.2c-1.08-4.43,9.18-3.42,12.49-3.42c5.41,0,10.83,0.01,16.21,0l0.94-6.37
		C169.49,30.24,165.24,30.23,160.85,30.26L160.85,30.26z M469.72,30.27c-4.51-0.02-8.87-0.01-10.3,0.12l-4.21,28.07l10.47,0
		c0.17-1.75,0.51-3.57,0.78-5.33c0.14-0.9,0.26-1.74,0.4-2.66c0.08-0.53,0.03-2.23,0.71-2.4h8.58c0.52,0.14,3.64,4.71,4.01,5.23
		c0.7,0.98,1.32,1.69,1.95,2.63c0.53,0.79,1.18,1.77,1.87,2.53L496,58.36v-0.03c-0.23-0.18-0.11-0.07-0.32-0.31l-6.35-7.98
		c-0.45-0.57-1.9-2.3-2.17-2.93c3.21-0.48,6.23-2.32,7.77-4.99c0.73-1.27,0.62-2.2,1.06-3.27v-1.84c-0.72-1.69-0.59-2.53-1.8-3.67
		c-2.98-2.83-9.29-3-13.28-3C478.89,30.33,474.23,30.28,469.72,30.27L469.72,30.27z M237.32,30.34l-14.23,0.01l-4.21,28.11
		c2.01,0,9.26,0.25,10.66-0.11l1.94-17.74l3.44,8.94c0.57,1.53,2.87,8.1,3.5,8.91l10.11-0.02l5.98-8.71
		c1.46-2.16,2.79-4.47,4.33-6.55c0.29-0.39,0.5-0.79,0.76-1.16c0.35-0.5,0.43-0.45,0.71-0.9l-3.18,17.33l10.31-0.01l4.2-28.11
		l-14.14,0.03c-1.04,1.18-2.39,3.36-3.28,4.76c-2.02,3.16-8.45,12.18-9.63,14.37L237.32,30.34z M361.67,30.34l-10.66,0l-2.23,17.43
		c-0.3-0.21-0.22-0.09-0.56-0.49L335.7,30.35l-12.18,0c-0.32,0.55-0.32,1.04-0.42,1.73l-1.85,12.28c-0.7,4.59-1.6,9.53-2.1,14.1
		l10.71,0c0.31-3.66,1.26-9.9,1.81-13.97c0.21-1.55,0.23-3.8,0.91-4.49c0.35,0.85,1.04,1.66,1.62,2.44l11.87,16.02h11.4
		L361.67,30.34z M407.96,30.34l-7.14,8.87c-0.65,0.73-0.82,1.1-1.44,1.8c-2.88,3.27-7.19,8.82-10.03,12.3
		c-0.56,0.68-0.91,1.03-1.39,1.66c-0.94,1.23-1.89,2.26-2.77,3.48l11.5,0c0.55-0.85,4.24-6.14,4.86-6.28h16.83l2.81,6.28l11.74-0.01
		l-14.56-28.09L407.96,30.34z M441.62,30.34l-4.22,28.12l10.85-0.05l4.21-28.07L441.62,30.34z M298.14,36.01
		c4.25,0.2,7.86,1.88,7.77,6.59c-0.12,5.92-3.22,9.13-8.71,9.92c-5.09,0.73-12.35,0.52-12.3-6.3c0.04-6.17,3.32-9.19,8.9-9.98
		C295.24,36.04,296.72,35.94,298.14,36.01z M197.02,36.03c5.24,0.05,9.45,1.85,8.52,7.91c-0.89,5.78-3.92,8.33-10.04,8.74
		c-6.4,0.43-11.65-0.77-10.77-7.89c0.71-5.75,4.01-8.24,10-8.68C195.5,36.05,196.27,36.02,197.02,36.03L197.02,36.03z M476.23,36.73
		c2.78,0,5.5,0.05,6.85,0.28c1.51,0.26,2.7,0.62,2.16,2.46c-0.67,2.29-5.06,2.21-7.56,2.22c-2.51,0.01-7.23,0.27-9.49-0.07
		l0.77-4.87C470.6,36.77,473.45,36.73,476.23,36.73L476.23,36.73z M411.69,38.39l3.67,7.37l-9.12,0c0.26-0.74-0.04-0.1,0.4-0.74
		c0.17-0.25,0.14-0.17,0.34-0.43L411.69,38.39z"/>
</g>
</svg>
