<?xml version="1.0" encoding="utf-8"?>
<!-- Generator: Adobe Illustrator 25.4.1, SVG Export Plug-In . SVG Version: 6.00 Build 0)  -->
<svg version="1.1" id="Layer_2_00000159471598350358213750000014612203606435250611_"
	 xmlns="http://www.w3.org/2000/svg" xmlns:xlink="http://www.w3.org/1999/xlink" x="0px" y="0px" viewBox="0 0 67.6 80"
	 style="enable-background:new 0 0 67.6 80;" xml:space="preserve">
<style type="text/css">
	.st0{fill:#EC2030;}
	.st1{fill:#213970;}
</style>
<g id="Layer_2_00000172429248622265246930000016300372450464530054_">
	<g>
		<g>
			<path id="SVGID_1_" class="st0" d="M64,14.9c-4.8,7.8-12.4,15-27,20.5c-16.5,6.8-25.8,14.3-32.8,31c3-5.6,5.3-12,33.8-22.8
				c15.2-6.1,23.4-19.5,26.9-28.7C64.9,14.9,64,14.9,64,14.9z"/>
		</g>
	</g>
	<g>
		<g>
			<path id="SVGID_3_" class="st1" d="M59.8,28.5c-4.8,7.8-12.4,15-27,20.5C16.2,55.7,6.9,63.3,0,80c3-5.6,5.3-12,33.8-22.8
				C49,51.1,57.2,37.7,60.7,28.5C60.7,28.5,59.8,28.5,59.8,28.5z"/>
		</g>
	</g>
	<g>
		<g>
			<path id="SVGID_5_" class="st1" d="M40.4,22.4C24.9,28.7,16.1,35.8,9.7,51.5c2.8-5.3,4.9-11.3,31.7-21.4
				C57.3,23.7,65.1,8.8,67.6,0.3V0C63.2,8.5,56.2,16.5,40.4,22.4"/>
		</g>
	</g>
</g>
</svg>
