<?xml version="1.0" encoding="utf-8"?>
<!-- Generator: Adobe Illustrator 25.4.1, SVG Export Plug-In . SVG Version: 6.00 Build 0)  -->
<svg version="1.1" id="Layer_2_00000159471598350358213750000014612203606435250611_"
	 xmlns="http://www.w3.org/2000/svg" xmlns:xlink="http://www.w3.org/1999/xlink" x="0px" y="0px" viewBox="0 0 222.1 80"
	 style="enable-background:new 0 0 222.1 80;" xml:space="preserve">
<style type="text/css">
	.st0{fill:#262262;}
	.st1{fill:#DC3228;}
	.st2{fill:#EC2030;}
	.st3{fill:#213970;}
</style>
<g>
	<g id="Layer_1_00000095297022623553108390000001771982862824484270_">
		<polygon class="st0" points="0,54.4 0,19.2 18.3,19.2 18.3,23.6 6.9,23.6 6.9,34.2 17.1,34.2 17.1,38.5 6.9,38.5 6.9,50 18.3,50 
			18.3,54.4 		"/>
		<path class="st0" d="M33.5,54.9c-8.1,0-12.1-3.1-12.1-8.4c0-7.3,7.5-9.4,16.5-10.2v-1.5c0-3.6-2.4-4.5-5.9-4.5
			c-2.8,0-5.6,0.9-7.4,1.7l-1.5-3.6c1.9-0.9,5.5-2.1,10.1-2.1c6.1,0,10.9,2.4,10.9,9.5v17.1C41.8,54.1,38.1,54.9,33.5,54.9
			 M37.9,39.3c-6.3,0.7-10.2,2-10.2,7c0,3.6,2.3,5.1,6.2,5.1c1.5,0,3-0.3,4-0.8L37.9,39.3L37.9,39.3z"/>
		<path class="st0" d="M56.2,54.8c-3.4,0-6.4-0.9-8.2-2l1.8-4c1.1,0.8,3.1,1.6,5.5,1.6c2.7,0,4.5-1.6,4.5-3.9c0-2.3-1.3-3.5-4.3-4.5
			c-5.6-2-6.7-4.9-6.7-7.7c0-4.4,3.7-8,9.3-8c3.3,0,5.7,0.8,7.7,1.9l-1.6,3.6c-0.9-0.7-2.6-1.5-4.7-1.5c-2.7,0-4.2,1.7-4.2,3.6
			c0,2.2,1.8,3.4,4.4,4.3c5.8,2.2,7.1,4.9,7.1,8.1C66.7,51,62.6,54.8,56.2,54.8"/>
		<path class="st0" d="M80.9,54.7c-5.8,0-8.1-3.6-8.1-7.5V30.8h-3.3v-4h3.3v-6.1l6.7-1.7v7.8h4.8v4h-4.8v16.1c0,2.2,0.9,3.6,3.2,3.6
			c0.6,0,1-0.1,1.6-0.3v3.9C83.6,54.4,82.4,54.7,80.9,54.7"/>
		<path class="st0" d="M93.6,42.9c0.5,5.1,3.2,7.7,8,7.7c3.4,0,5.9-0.8,7.4-1.5l1.6,3.9c-2.1,1.1-5.3,1.9-9.7,1.9
			c-8.4,0-13.7-5.1-13.7-14.4c0-9,4.9-14.2,12.6-14.2c7.8,0,12.1,4.9,11.8,14.1L93.6,42.9z M99.6,30.2c-3.9,0-6.6,3-6.4,9.6
			l12.2-1.7C105.4,32.4,103.3,30.2,99.6,30.2"/>
		<path class="st0" d="M129.2,30.9c-2.3-0.7-4.7-0.6-6.2,0.2v23.3h-6.7V28.3c3.1-1.4,6.8-2.2,14.2-1.9L129.2,30.9z"/>
		<path class="st0" d="M150,54.4V34.9c0-2.2-1.1-4.6-5.3-4.6c-2.2,0-3.3,0.3-4.6,0.8v23.4h-6.7V28.3c2.8-1.2,6.6-2,11.5-2
			c8.8,0,11.7,4,11.7,8.4v19.6H150z"/>
		<path class="st1" d="M53.1,66.2c0.2-3.4,3.2-4.4,6.2-4.4c2.7,0,5.8,0.6,5.8,3.8v6.9c0,1.2,0.1,2.4,0.5,2.9h-3.7
			c-0.1-0.4-0.2-0.8-0.3-1.3c-1.2,1.2-2.8,1.6-4.5,1.6c-2.5,0-4.5-1.2-4.5-4c0-3,2.2-3.7,4.5-4c2.2-0.3,4.3-0.3,4.3-1.7
			c0-1.6-1.1-1.8-2.3-1.8c-1.4,0-2.3,0.6-2.4,2L53.1,66.2L53.1,66.2z M61.4,68.9c-0.6,0.5-1.9,0.6-3,0.8c-1.1,0.2-2.2,0.6-2.2,2
			c0,1.4,1.1,1.7,2.2,1.7c2.8,0,2.9-2.2,2.9-3.1V68.9z"/>
		<rect x="68" y="62.1" class="st1" width="3.6" height="13.2"/>
		<path class="st1" d="M74.5,62.1h3.4v2.5H78c0.7-1.7,2.4-2.8,4.2-2.8c0.2,0,0.6,0.1,0.8,0.1v3.4c-0.3-0.1-0.9-0.1-1.3-0.1
			c-2.7,0-3.6,1.9-3.6,4.3v6h-3.6V62.1z"/>
		<polygon class="st1" points="100.6,75.3 96.9,75.3 94.5,66.5 94.5,66.5 92.2,75.3 88.5,75.3 84.2,62.1 88.1,62.1 90.5,71.1 
			90.6,71.1 92.8,62.1 96.3,62.1 98.6,71.1 98.6,71.1 101,62.1 104.8,62.1 		"/>
		<path class="st1" d="M106.2,66.2c0.2-3.4,3.2-4.4,6.2-4.4c2.6,0,5.8,0.6,5.8,3.8v6.9c0,1.2,0.1,2.4,0.4,2.9H115
			c-0.1-0.4-0.2-0.8-0.3-1.3c-1.2,1.2-2.8,1.6-4.5,1.6c-2.5,0-4.5-1.2-4.5-4c0-3,2.2-3.7,4.5-4c2.2-0.3,4.3-0.3,4.3-1.7
			c0-1.6-1.1-1.8-2.3-1.8c-1.4,0-2.3,0.6-2.4,2L106.2,66.2L106.2,66.2z M114.5,68.9c-0.6,0.5-1.9,0.6-3,0.8c-1.1,0.2-2.2,0.6-2.2,2
			c0,1.4,1.1,1.7,2.2,1.7c2.8,0,2.9-2.2,2.9-3.1L114.5,68.9L114.5,68.9z"/>
		<path class="st1" d="M127.5,77c-0.8,2.1-2,3-4.5,3c-0.8,0-1.5,0-2.2-0.1v-3c0.7,0.1,1.4,0.1,2.1,0.1c1.2-0.1,1.7-1.4,1.2-2.5
			l-4.7-12.4h3.9l3,9.1h0l2.9-9.1h3.8L127.5,77z"/>
		<path class="st1" d="M137.1,71c0,1.6,1.3,2.2,2.8,2.2c1.1,0,2.4-0.4,2.4-1.7c0-1.1-1.5-1.5-4.1-2c-2.1-0.5-4.2-1.2-4.2-3.5
			c0-3.4,2.9-4.2,5.8-4.2c2.9,0,5.6,1,5.8,4.2h-3.4c-0.1-1.4-1.2-1.8-2.5-1.8c-0.8,0-2,0.2-2,1.2c0,1.3,2.1,1.5,4.1,2
			c2.1,0.5,4.2,1.3,4.2,3.7c0,3.5-3,4.6-6,4.6c-3.1,0-6.1-1.1-6.2-4.7L137.1,71L137.1,71z"/>
	</g>
	<g id="Layer_2_00000172429248622265246930000016300372450464530054_">
		<g>
			<g>
				<path id="SVGID_1_" class="st2" d="M218.7,14c-4.5,7.3-11.6,14.1-25.5,19.3c-15.6,6.4-24.3,13.5-30.8,29.2
					c2.8-5.3,4.9-11.3,31.8-21.4c14.3-5.8,22-18.4,25.3-27C219.5,14,218.7,14,218.7,14z"/>
			</g>
		</g>
		<g>
			<g>
				<path id="SVGID_3_" class="st3" d="M214.7,26.8c-4.5,7.3-11.6,14.1-25.5,19.3c-15.6,6.4-24.3,13.5-30.8,29.2
					c2.8-5.3,4.9-11.3,31.8-21.4c14.3-5.8,22-18.4,25.3-27C215.5,26.8,214.7,26.8,214.7,26.8z"/>
			</g>
		</g>
		<g>
			<g>
				<path id="SVGID_5_" class="st3" d="M196.5,21.1c-14.6,6-22.8,12.7-29,27.4c2.6-5,4.6-10.6,29.9-20.1c15-6,22.3-20.1,24.7-28.1V0
					C217.9,8,211.3,15.5,196.5,21.1"/>
			</g>
		</g>
	</g>
</g>
</svg>
