<?xml version="1.0" encoding="utf-8"?>
<!-- Generator: Adobe Illustrator 25.4.1, SVG Export Plug-In . SVG Version: 6.00 Build 0)  -->
<svg version="1.1" id="Layer_1" xmlns="http://www.w3.org/2000/svg" xmlns:xlink="http://www.w3.org/1999/xlink" x="0px" y="0px"
	 viewBox="0 0 80 80" style="enable-background:new 0 0 80 80;" xml:space="preserve">
<style type="text/css">
	.st0{fill-rule:evenodd;clip-rule:evenodd;fill:#37488F;}
</style>
<path class="st0" d="M10.42,34.65c0.46,1.4-0.6,2.66,0.48,3.47c0.92,0.47,2.27-0.06,3.1-1.13c0.39,0.04,0.74,0.29,1.11,0.44
	C13.91,36.08,12.42,35.06,10.42,34.65z M11.98,37.84c-0.61,0-1.12-0.51-1.12-1.12c0-0.61,0.5-1.12,1.12-1.12
	c0.62,0,1.12,0.51,1.12,1.12C13.1,37.33,12.6,37.84,11.98,37.84z"/>
<path class="st0" d="M27.26,47.65l-0.65-0.23c-0.3,0.4-0.61,0.8-0.96,1.18c0.01,0.49,35.39,11.78,46.18,15.56
	C76.95,57.43,80,49.06,80,40C80,17.97,62.03,0,40,0C17.97,0,0,17.97,0,40c0,22.03,17.97,40,40,40c8.56,0,16.5-2.72,23.02-7.34
	L18.53,53.62c-3.05-1.31-6.17-4.02-7.9-7.02c-1.72-2.97-0.59-9.03-3.54-10.68c0.9-0.68,1.8-1.14,2.67-1.41l-0.03-0.34l0.63,0.19
	c2.23-0.47,4.21,0.31,5.45,1.89l4.6,5.82c0.81-3.46-0.42-6.68-2.97-9.47c-2.77-3.03-5.56-9.65-0.33-9.45l55.5,2.22
	c-1.2,1.64-3.05,3.01-5.87,2.84l-41.75-2.5c0.39,0.46,0.76,0.94,1.11,1.43l36.57,2.96c-1.2,1.59-3.05,2.89-5.87,2.6l-29.14-2.95
	c0.24,0.48,0.46,0.97,0.66,1.46l24.49,3.03c-1.2,1.54-3.5,2.47-6.32,2.05l-17.36-2.58c0.13,0.54,0.24,1.08,0.33,1.62l14.6,2.46
	c-1.09,1.34-3.15,2.09-5.7,1.6l-8.7-1.69c0.01,0.52-0.01,1.03-0.05,1.55l9.43,2.01c-0.92,1.09-2.66,1.65-4.81,1.14l-4.9-1.16
	c-0.08,0.41-0.18,0.82-0.3,1.23l6.78,1.58c-0.92,1.07-2.66,1.59-4.81,1.04l-2.66-0.69c-0.19,0.42-0.39,0.84-0.62,1.25l4.33,1.44
	C31.16,48.06,29.41,48.41,27.26,47.65z M65.01,22.51l-47.83-0.91c0.8-1.14,2.23-2.1,5.04-2.1l48.66-0.08
	C69.67,21.11,67.83,22.56,65.01,22.51z"/>
</svg>
