<?xml version="1.0" encoding="utf-8"?>
<!-- Generator: Adobe Illustrator 25.4.1, SVG Export Plug-In . SVG Version: 6.00 Build 0)  -->
<svg version="1.1" id="Layer_1" xmlns="http://www.w3.org/2000/svg" xmlns:xlink="http://www.w3.org/1999/xlink" x="0px" y="0px"
	 viewBox="0 0 246.77 80" style="enable-background:new 0 0 246.77 80;" xml:space="preserve">
<style type="text/css">
	.st0{fill:#37488F;}
	.st1{fill-rule:evenodd;clip-rule:evenodd;fill:#37488F;}
</style>
<g>
	<g>
		<path class="st0" d="M92.1,34.09V16.87H85.7v-2.3h15.42v2.3h-6.43v17.22H92.1z"/>
		<path class="st0" d="M111.67,34.09v-2.08c-1.1,1.6-2.59,2.4-4.47,2.4c-0.83,0-1.61-0.16-2.33-0.48c-0.72-0.32-1.26-0.72-1.61-1.21
			c-0.35-0.48-0.59-1.08-0.74-1.78c-0.1-0.47-0.15-1.22-0.15-2.24v-8.76h2.39v7.85c0,1.25,0.05,2.1,0.15,2.53
			c0.15,0.63,0.47,1.13,0.96,1.48c0.49,0.36,1.09,0.54,1.8,0.54c0.72,0,1.39-0.18,2.02-0.55c0.63-0.37,1.07-0.87,1.33-1.51
			s0.39-1.56,0.39-2.76v-7.58h2.39v14.15H111.67z"/>
		<path class="st0" d="M117.52,34.09V19.95h2.15v2.14c0.55-1,1.05-1.66,1.52-1.98c0.46-0.32,0.98-0.48,1.53-0.48
			c0.81,0,1.62,0.26,2.45,0.77l-0.82,2.22c-0.58-0.35-1.17-0.52-1.75-0.52c-0.52,0-0.99,0.16-1.41,0.47
			c-0.42,0.32-0.71,0.75-0.89,1.31c-0.27,0.85-0.4,1.79-0.4,2.8v7.41H117.52z"/>
		<path class="st0" d="M126.61,34.09V14.57H129V25.7l5.65-5.75h3.09l-5.39,5.25l5.93,8.9h-2.95l-4.66-7.23L129,28.49v5.61H126.61z"
			/>
		<path class="st0" d="M140.18,34.09V19.95h2.14v1.98c0.44-0.69,1.03-1.25,1.76-1.67c0.73-0.42,1.57-0.63,2.51-0.63
			c1.04,0,1.9,0.22,2.57,0.65c0.67,0.43,1.14,1.04,1.41,1.82c1.11-1.65,2.56-2.48,4.35-2.48c1.4,0,2.47,0.39,3.22,1.17
			c0.75,0.78,1.13,1.97,1.13,3.59v9.71h-2.37v-8.91c0-0.96-0.08-1.65-0.23-2.07c-0.15-0.42-0.44-0.76-0.84-1.02
			c-0.41-0.26-0.88-0.39-1.43-0.39c-0.99,0-1.81,0.33-2.47,0.99c-0.65,0.66-0.98,1.72-0.98,3.18v8.22h-2.39V24.9
			c0-1.07-0.19-1.86-0.58-2.4c-0.39-0.53-1.03-0.8-1.91-0.8c-0.67,0-1.29,0.18-1.86,0.53c-0.57,0.36-0.98,0.87-1.24,1.56
			c-0.26,0.68-0.38,1.67-0.38,2.96v7.34H140.18z"/>
		<path class="st0" d="M172.46,29.54l2.47,0.31c-0.39,1.45-1.11,2.57-2.16,3.37c-1.05,0.8-2.4,1.2-4.03,1.2
			c-2.06,0-3.7-0.64-4.9-1.91c-1.21-1.27-1.81-3.06-1.81-5.36c0-2.38,0.61-4.23,1.83-5.54c1.22-1.31,2.8-1.97,4.75-1.97
			c1.88,0,3.42,0.64,4.62,1.93c1.19,1.29,1.79,3.1,1.79,5.43c0,0.14,0,0.36-0.01,0.64h-10.51c0.09,1.55,0.53,2.74,1.31,3.57
			c0.79,0.83,1.77,1.24,2.95,1.24c0.88,0,1.62-0.23,2.24-0.69C171.61,31.29,172.1,30.55,172.46,29.54z M164.62,25.66h7.87
			c-0.11-1.19-0.41-2.08-0.9-2.68c-0.76-0.92-1.75-1.39-2.96-1.39c-1.1,0-2.02,0.37-2.77,1.11
			C165.11,23.44,164.7,24.43,164.62,25.66z"/>
		<path class="st0" d="M177.93,34.09V19.95h2.15v2.01c1.04-1.55,2.53-2.33,4.48-2.33c0.85,0,1.63,0.15,2.34,0.46
			c0.71,0.31,1.25,0.71,1.6,1.21c0.35,0.5,0.6,1.09,0.74,1.77c0.09,0.44,0.13,1.22,0.13,2.33v8.7h-2.39v-8.6
			c0-0.98-0.09-1.71-0.28-2.19c-0.19-0.48-0.52-0.87-0.99-1.16c-0.47-0.29-1.03-0.43-1.67-0.43c-1.02,0-1.9,0.32-2.63,0.97
			c-0.74,0.65-1.11,1.88-1.11,3.69v7.73H177.93z"/>
		<path class="st0" d="M193.05,17.32v-2.76h2.39v2.76H193.05z M193.05,34.09V19.95h2.39v14.15H193.05z"/>
		<path class="st0" d="M198.12,29.87l2.36-0.37c0.13,0.95,0.5,1.68,1.11,2.18c0.61,0.51,1.45,0.76,2.54,0.76
			c1.1,0,1.91-0.22,2.44-0.67c0.53-0.45,0.8-0.97,0.8-1.58c0-0.54-0.23-0.97-0.7-1.28c-0.33-0.21-1.14-0.48-2.44-0.81
			c-1.75-0.44-2.96-0.83-3.64-1.15c-0.68-0.32-1.19-0.77-1.54-1.35c-0.35-0.57-0.52-1.21-0.52-1.9c0-0.63,0.14-1.21,0.43-1.75
			c0.29-0.54,0.68-0.98,1.17-1.34c0.37-0.27,0.88-0.51,1.52-0.7c0.64-0.19,1.33-0.29,2.06-0.29c1.11,0,2.08,0.16,2.91,0.48
			c0.84,0.32,1.45,0.75,1.85,1.3c0.4,0.55,0.67,1.28,0.82,2.19l-2.34,0.32c-0.11-0.73-0.41-1.3-0.92-1.7
			c-0.51-0.41-1.23-0.61-2.16-0.61c-1.1,0-1.88,0.18-2.35,0.55c-0.47,0.36-0.7,0.79-0.7,1.28c0,0.31,0.1,0.59,0.29,0.84
			c0.19,0.26,0.5,0.47,0.92,0.64c0.24,0.09,0.94,0.29,2.11,0.61c1.69,0.45,2.87,0.82,3.54,1.11c0.67,0.29,1.19,0.71,1.57,1.26
			c0.38,0.55,0.57,1.23,0.57,2.05c0,0.8-0.23,1.55-0.7,2.26c-0.46,0.71-1.13,1.25-2.01,1.64c-0.88,0.39-1.87,0.58-2.97,0.58
			c-1.83,0-3.23-0.38-4.19-1.15C199,32.5,198.38,31.37,198.12,29.87z"/>
		<path class="st0" d="M217.87,31.95l0.34,2.12c-0.67,0.14-1.27,0.21-1.8,0.21c-0.87,0-1.54-0.14-2.02-0.41
			c-0.48-0.27-0.81-0.64-1.01-1.09c-0.19-0.45-0.29-1.39-0.29-2.83v-8.14h-1.75v-1.86h1.75v-3.5l2.37-1.44v4.94h2.4v1.86h-2.4v8.27
			c0,0.68,0.04,1.12,0.13,1.32c0.08,0.2,0.22,0.35,0.41,0.47c0.19,0.12,0.46,0.17,0.82,0.17C217.09,32.04,217.44,32.01,217.87,31.95
			z"/>
		<path class="st0" d="M229.4,32.35c-0.88,0.75-1.74,1.29-2.55,1.6c-0.82,0.31-1.7,0.47-2.63,0.47c-1.55,0-2.74-0.38-3.57-1.14
			c-0.83-0.76-1.25-1.73-1.25-2.91c0-0.69,0.16-1.33,0.47-1.9c0.31-0.57,0.73-1.03,1.23-1.38c0.51-0.35,1.08-0.61,1.72-0.79
			c0.47-0.12,1.18-0.24,2.12-0.36c1.93-0.23,3.35-0.51,4.26-0.83c0.01-0.33,0.01-0.54,0.01-0.63c0-0.98-0.23-1.66-0.68-2.06
			c-0.61-0.54-1.52-0.81-2.72-0.81c-1.12,0-1.95,0.2-2.49,0.59c-0.53,0.4-0.93,1.09-1.19,2.1l-2.34-0.32c0.21-1,0.56-1.81,1.05-2.43
			c0.49-0.62,1.19-1.09,2.11-1.42c0.92-0.33,1.99-0.5,3.2-0.5c1.2,0,2.18,0.14,2.93,0.43c0.75,0.28,1.3,0.64,1.66,1.07
			c0.35,0.43,0.6,0.97,0.74,1.63c0.08,0.41,0.12,1.15,0.12,2.21v3.2c0,2.23,0.05,3.64,0.15,4.23c0.1,0.59,0.3,1.16,0.6,1.7h-2.49
			C229.63,33.6,229.47,33.01,229.4,32.35z M229.2,26.99c-0.87,0.36-2.17,0.66-3.9,0.91c-0.98,0.14-1.68,0.3-2.08,0.48
			c-0.41,0.18-0.72,0.44-0.94,0.78s-0.33,0.72-0.33,1.14c0,0.64,0.24,1.17,0.72,1.6c0.48,0.43,1.19,0.64,2.12,0.64
			c0.92,0,1.74-0.2,2.45-0.61c0.72-0.4,1.24-0.96,1.58-1.66c0.26-0.54,0.38-1.34,0.38-2.4V26.99z"/>
		<path class="st0" d="M235.32,34.09V19.95h2.15v2.01c1.04-1.55,2.53-2.33,4.48-2.33c0.85,0,1.63,0.15,2.34,0.46
			c0.71,0.31,1.25,0.71,1.6,1.21c0.35,0.5,0.6,1.09,0.74,1.77c0.09,0.44,0.13,1.22,0.13,2.33v8.7h-2.39v-8.6
			c0-0.98-0.09-1.71-0.28-2.19c-0.19-0.48-0.52-0.87-0.99-1.16c-0.47-0.29-1.03-0.43-1.67-0.43c-1.02,0-1.9,0.32-2.63,0.97
			c-0.74,0.65-1.11,1.88-1.11,3.69v7.73H235.32z"/>
		<path class="st0" d="M85.02,66.83l7.47-19.53h2.77l7.96,19.53h-2.93l-2.27-5.91h-8.13l-2.14,5.91H85.02z M90.63,58.81h6.59
			l-2.03-5.41c-0.62-1.64-1.08-2.99-1.38-4.05c-0.25,1.25-0.6,2.5-1.05,3.73L90.63,58.81z"/>
		<path class="st0" d="M104.99,50.06V47.3h2.39v2.76H104.99z M104.99,66.83V52.68h2.39v14.15H104.99z"/>
		<path class="st0" d="M110.98,66.83V52.68h2.15v2.14c0.55-1,1.05-1.66,1.52-1.98c0.46-0.32,0.98-0.48,1.53-0.48
			c0.81,0,1.62,0.26,2.45,0.77l-0.82,2.22c-0.58-0.35-1.17-0.52-1.75-0.52c-0.52,0-0.99,0.16-1.41,0.47
			c-0.42,0.32-0.71,0.75-0.89,1.31c-0.27,0.85-0.4,1.79-0.4,2.8v7.41H110.98z"/>
		<path class="st0" d="M120,66.83V47.3h2.39v19.53H120z"/>
		<path class="st0" d="M126.11,50.06V47.3h2.39v2.76H126.11z M126.11,66.83V52.68h2.39v14.15H126.11z"/>
		<path class="st0" d="M132.13,66.83V52.68h2.15v2.01c1.04-1.55,2.53-2.33,4.48-2.33c0.85,0,1.63,0.15,2.34,0.46
			c0.71,0.31,1.25,0.71,1.6,1.21c0.35,0.5,0.6,1.09,0.74,1.77c0.09,0.44,0.13,1.22,0.13,2.33v8.7h-2.39v-8.6
			c0-0.98-0.09-1.71-0.28-2.19c-0.19-0.48-0.52-0.87-0.99-1.16c-0.47-0.29-1.03-0.43-1.67-0.43c-1.02,0-1.9,0.32-2.63,0.97
			c-0.74,0.65-1.11,1.88-1.11,3.69v7.73H132.13z"/>
		<path class="st0" d="M156.89,62.27l2.47,0.31c-0.39,1.45-1.11,2.57-2.16,3.37c-1.05,0.8-2.4,1.2-4.03,1.2
			c-2.06,0-3.7-0.64-4.9-1.91c-1.21-1.27-1.81-3.06-1.81-5.36c0-2.38,0.61-4.23,1.83-5.54c1.22-1.31,2.8-1.97,4.75-1.97
			c1.88,0,3.42,0.64,4.62,1.93c1.19,1.29,1.79,3.1,1.79,5.43c0,0.14,0,0.36-0.01,0.64h-10.51c0.09,1.55,0.53,2.74,1.31,3.57
			c0.79,0.83,1.77,1.24,2.95,1.24c0.88,0,1.62-0.23,2.24-0.69C156.03,64.02,156.52,63.28,156.89,62.27z M149.04,58.4h7.87
			c-0.11-1.19-0.41-2.08-0.9-2.68c-0.76-0.92-1.75-1.39-2.96-1.39c-1.1,0-2.02,0.37-2.77,1.11
			C149.54,56.18,149.12,57.16,149.04,58.4z"/>
		<path class="st0" d="M161.4,62.6l2.36-0.37c0.13,0.95,0.5,1.68,1.11,2.18s1.45,0.76,2.54,0.76c1.1,0,1.91-0.22,2.44-0.67
			c0.53-0.45,0.8-0.97,0.8-1.58c0-0.54-0.23-0.97-0.7-1.28c-0.33-0.21-1.14-0.48-2.44-0.81c-1.75-0.44-2.96-0.83-3.64-1.15
			c-0.68-0.32-1.19-0.77-1.54-1.35c-0.35-0.57-0.52-1.21-0.52-1.9c0-0.63,0.14-1.21,0.43-1.75c0.29-0.54,0.68-0.98,1.17-1.34
			c0.37-0.27,0.88-0.51,1.52-0.7c0.64-0.19,1.33-0.29,2.06-0.29c1.11,0,2.08,0.16,2.91,0.48c0.84,0.32,1.45,0.75,1.85,1.3
			c0.4,0.55,0.67,1.28,0.82,2.19l-2.34,0.32c-0.11-0.73-0.41-1.3-0.92-1.7c-0.51-0.41-1.23-0.61-2.16-0.61
			c-1.1,0-1.88,0.18-2.35,0.55c-0.47,0.36-0.7,0.79-0.7,1.28c0,0.31,0.1,0.59,0.29,0.84c0.19,0.26,0.5,0.47,0.92,0.64
			c0.24,0.09,0.94,0.29,2.11,0.61c1.69,0.45,2.87,0.82,3.54,1.11c0.67,0.29,1.19,0.71,1.57,1.26c0.38,0.55,0.57,1.23,0.57,2.05
			c0,0.8-0.23,1.55-0.7,2.26c-0.46,0.71-1.13,1.25-2.01,1.64c-0.88,0.39-1.87,0.58-2.97,0.58c-1.83,0-3.23-0.38-4.19-1.15
			C162.27,65.24,161.66,64.11,161.4,62.6z"/>
	</g>
	<path class="st1" d="M10.42,34.65c0.46,1.4-0.6,2.66,0.48,3.47c0.92,0.47,2.27-0.06,3.1-1.13c0.39,0.04,0.74,0.29,1.11,0.44
		C13.91,36.08,12.42,35.06,10.42,34.65z M11.98,37.84c-0.61,0-1.12-0.51-1.12-1.12c0-0.61,0.5-1.12,1.12-1.12
		c0.62,0,1.12,0.51,1.12,1.12C13.1,37.33,12.6,37.84,11.98,37.84z"/>
	<path class="st1" d="M27.26,47.65l-0.65-0.23c-0.3,0.4-0.61,0.8-0.96,1.18c0.01,0.49,35.39,11.78,46.18,15.56
		C76.95,57.43,80,49.06,80,40C80,17.97,62.03,0,40,0C17.97,0,0,17.97,0,40c0,22.03,17.97,40,40,40c8.56,0,16.5-2.72,23.02-7.34
		L18.53,53.62c-3.05-1.31-6.17-4.02-7.9-7.02c-1.72-2.97-0.59-9.03-3.54-10.68c0.9-0.68,1.8-1.14,2.67-1.41l-0.03-0.34l0.63,0.19
		c2.23-0.47,4.21,0.31,5.45,1.89l4.6,5.82c0.81-3.46-0.42-6.68-2.97-9.47c-2.77-3.03-5.56-9.65-0.33-9.45l55.5,2.22
		c-1.2,1.64-3.05,3.01-5.87,2.84l-41.75-2.5c0.39,0.46,0.76,0.94,1.11,1.43l36.57,2.96c-1.2,1.59-3.05,2.89-5.87,2.6l-29.14-2.95
		c0.24,0.48,0.46,0.97,0.66,1.46l24.49,3.03c-1.2,1.54-3.5,2.47-6.32,2.05l-17.36-2.58c0.13,0.54,0.24,1.08,0.33,1.62l14.6,2.46
		c-1.09,1.34-3.15,2.09-5.7,1.6l-8.7-1.69c0.01,0.52-0.01,1.03-0.05,1.55l9.43,2.01c-0.92,1.09-2.66,1.65-4.81,1.14l-4.9-1.16
		c-0.08,0.41-0.18,0.82-0.3,1.23l6.78,1.58c-0.92,1.07-2.66,1.59-4.81,1.04l-2.66-0.69c-0.19,0.42-0.39,0.84-0.62,1.25l4.33,1.44
		C31.16,48.06,29.41,48.41,27.26,47.65z M65.01,22.51l-47.83-0.91c0.8-1.14,2.23-2.1,5.04-2.1l48.66-0.08
		C69.67,21.11,67.83,22.56,65.01,22.51z"/>
</g>
</svg>
