<?xml version="1.0" encoding="utf-8"?>
<!-- Generator: Adobe Illustrator 25.4.1, SVG Export Plug-In . SVG Version: 6.00 Build 0)  -->
<svg version="1.1" id="Layer_1" xmlns="http://www.w3.org/2000/svg" xmlns:xlink="http://www.w3.org/1999/xlink" x="0px" y="0px"
	 viewBox="0 0 498.5 80" style="enable-background:new 0 0 498.5 80;" xml:space="preserve">
<g id="TWIN_x5F_JET" transform="matrix(0.9916173,0,0,0.9916173,1.5870982,-0.2833245)">
	<path id="path4" d="M23.1,14.9H-1.6l5-14.6h65.8l-5,14.6H40.6L18.6,79.1H1.2L23.1,14.9z"/>
	<path id="path6" d="M124.1,79.1h-17.2l5.4-56.3H112L80.1,79.1H62.7l5-78.8H85L78.5,58h0.2l32.5-57.7h16.6l-5.6,57.5h0.2l31.6-57.5
		h17.3L124.1,79.1z"/>
	<path id="path8" d="M175.6,0.3H193l-27,78.8h-17.4L175.6,0.3z"/>
	<path id="path10" d="M203.9,0.3h17.9l14,56.1h0.2l18.6-56.1h15.9l-27,78.8h-17.3l-14.4-55.3h-0.2l-18.5,55.3h-16.2L203.9,0.3z"/>
	<path id="path12" d="M336.7,56.7c-5.6,15.5-14.9,24.3-32,24.3c-12.4,0-23.3-5.3-21.4-19.1c0.6-4.2,1.8-8.1,3-12.1h15.8
		c-1.2,3.4-2.4,6.7-2.8,9.3c-0.6,4.9,3.1,7.4,7.5,7.4c8.9,0,11-6.3,13.7-13.5l17.8-52.6h17.4L336.7,56.7z"/>
	<path id="path14" d="M371,0.3h60.2l-4.9,14.6h-42.8l-5.8,16.9h39.6l-4.6,13.5H373l-6.6,19.3h43.5l-5,14.6h-60.8L371,0.3z"/>
	<path id="path16" d="M455,14.9h-24.7l5-14.6h65.8l-5,14.6h-23.6l-21.9,64.2h-17.4L455,14.9z"/>
</g>
</svg>
