<?xml version="1.0" encoding="utf-8"?>
<!-- Generator: Adobe Illustrator 25.4.1, SVG Export Plug-In . SVG Version: 6.00 Build 0)  -->
<svg version="1.1" id="Layer_1" xmlns="http://www.w3.org/2000/svg" xmlns:xlink="http://www.w3.org/1999/xlink" x="0px" y="0px"
	 viewBox="0 0 302.8 80" style="enable-background:new 0 0 302.8 80;" xml:space="preserve">
<style type="text/css">
	.st0{fill:#002454;}
	.st1{fill:#0095D8;}
</style>
<g>
	<g id="TWIN_x5F_JET" transform="matrix(0.9916173,0,0,0.9916173,1.5870982,-0.2833245)">
		<path id="path4" d="M22.4,8.9H7.9l2.9-8.6h38.7l-2.9,8.6H32.7L19.8,46.7H9.5L22.4,8.9z"/>
		<path id="path6" d="M81.9,46.7H71.7l3.2-33.1h-0.1L56,46.7H45.7l2.9-46.4h10.2l-3.8,34h0.1l19.2-34h9.7l-3.3,33.8h0.1L99.5,0.3
			h10.2L81.9,46.7z"/>
		<path id="path8" d="M112.2,0.3h10.3l-15.9,46.4H96.3L112.2,0.3z"/>
		<path id="path10" d="M128.8,0.3h10.5l8.3,33h0.1l11-33h9.4l-15.9,46.4H142l-8.5-32.5h-0.1l-10.9,32.5h-9.5L128.8,0.3z"/>
		<path id="path12" d="M207,33.5c-3.3,9.1-8.8,14.3-18.8,14.3c-7.3,0-13.7-3.1-12.6-11.2c0.3-2.5,1.1-4.7,1.8-7.1h9.3
			c-0.7,2-1.4,4-1.6,5.5c-0.4,2.9,1.8,4.4,4.4,4.4c5.3,0,6.5-3.7,8.1-7.9l10.5-31h10.3L207,33.5z"/>
		<path id="path14" d="M227.2,0.3h35.4l-2.9,8.6h-25.2l-3.4,9.9h23.3l-2.7,7.9h-23.3l-3.9,11.4h25.6l-2.9,8.6h-35.8L227.2,0.3z"/>
		<path id="path16" d="M276.7,8.9h-14.6l2.9-8.6h38.7l-2.9,8.6h-13.9L274,46.7h-10.3L276.7,8.9z"/>
	</g>
	<polygon id="Line" points="8.6,53 302.8,53 302.7,53.8 8.5,53.8 	"/>
	<g id="Partenaire" transform="matrix(0.9916173,0,0,0.9916173,1.5870982,-0.2833245)">
		<path id="path20" d="M3.7,63.8h6.1c3,0,4.4,1.5,4.1,4.3c-0.3,1.9-2,4.9-6.6,4.9H2.7l-2.2,6.4h-2.1L3.7,63.8z M3.3,71.2h4.7
			c2.2,0,3.6-1.3,3.9-3.2c0.3-1.9-0.8-2.6-2.2-2.6H5.2L3.3,71.2z"/>
		<path id="path22" d="M14.3,71.4c0.7-2.5,3-3.7,5.4-3.7c2.2,0,4,0.6,3.7,2.9c-0.1,0.6-0.4,1.4-0.6,2l-1.1,3.1
			c-0.1,0.5-0.4,1.1-0.5,1.6c-0.1,0.5,0.1,0.7,0.5,0.7c0.2,0,0.4-0.1,0.6-0.2l-0.5,1.4c-0.3,0.2-0.8,0.3-1.2,0.3
			c-1,0-1.5-0.6-1.3-1.6l0,0c-0.9,1-2.1,1.6-4,1.6c-1.9,0-3.3-0.9-3-3.2c0.4-3.3,3.7-3.5,6.2-3.7c2-0.2,2.9-0.3,3.1-1.8
			c0.2-1.2-1.1-1.5-2.1-1.5c-1.4,0-2.9,0.6-3.3,2L14.3,71.4L14.3,71.4z M16,77.9c1.4,0,2.6-0.5,3.4-1.5c0.7-0.9,1-1.9,1.4-2.9h0
			c-0.9,0.5-2.3,0.6-3.7,0.8c-1.4,0.2-2.6,0.6-2.8,2C14,77.4,14.9,77.9,16,77.9z"/>
		<path id="path24" d="M27,68h1.7l-0.9,2.4h0c1.1-1.5,2.6-2.7,4.4-2.7c0.2,0,0.4,0,0.7,0l-0.7,2c-0.2,0-0.4,0-0.5,0
			c-0.5,0-0.7,0-1.1,0.1c-1.1,0.3-1.9,0.9-2.6,1.8c-0.6,0.7-1,1.8-1.3,2.6l-1.7,5h-1.9L27,68z"/>
		<path id="path26" d="M36.6,68h2.2l-0.6,1.6H36l-2.3,6.6c-0.1,0.3-0.1,0.5-0.2,0.7c-0.1,0.6,0.4,0.8,1,0.8c0.4,0,0.7-0.1,1.1-0.2
			l-0.6,1.7c-0.4,0.1-0.9,0.1-1.3,0.1c-1.4,0-2.5-0.4-2.3-1.8c0-0.3,0.1-0.6,0.2-0.9l2.4-7h-1.9l0.6-1.6h1.9l1.1-3.3h1.9L36.6,68z"
			/>
		<path id="path28" d="M39.7,74.2c-0.1,0.3-0.2,0.7-0.2,1c-0.2,1.7,1.1,2.7,2.6,2.7c1.6,0,2.8-0.8,3.5-2.2h1.9
			c-0.9,2.5-3.1,3.8-5.6,3.8c-3.7,0-4.4-2.6-4.2-4.5c0.6-4.3,3.7-7.3,6.7-7.3c3.3,0,4.5,1.8,4.1,5c-0.1,0.6-0.3,1.2-0.4,1.5H39.7
			L39.7,74.2z M46.7,72.6c0.3-1.6-0.2-3.2-2.2-3.2c-2.2,0-3.5,1.4-4.3,3.2H46.7z"/>
		<path id="path30" d="M52.1,68h1.8l-0.6,1.7h0c1.1-1.3,2.7-2,4.3-2c2.1,0,3,0.9,2.8,2.9c-0.1,0.5-0.3,1.3-0.6,2.2l-2.2,6.4h-1.8
			l2.3-6.6c0.1-0.4,0.4-1.4,0.5-1.7c0.1-1.1-0.7-1.6-1.8-1.6c-1,0-2.2,0.6-3,1.3c-0.7,0.6-1.2,1.5-1.6,2.4l-2.1,6.2h-1.9L52.1,68z"
			/>
		<path id="path32" d="M62.5,71.4c0.7-2.5,3-3.7,5.4-3.7c2.2,0,4,0.6,3.7,2.9c-0.1,0.6-0.4,1.4-0.6,2l-1.1,3.1
			c-0.1,0.5-0.4,1.1-0.5,1.6c-0.1,0.5,0.1,0.7,0.5,0.7c0.2,0,0.4-0.1,0.6-0.2l-0.5,1.4c-0.3,0.2-0.8,0.3-1.2,0.3
			c-1,0-1.5-0.6-1.3-1.6l0,0c-0.9,1-2.1,1.6-4,1.6c-1.9,0-3.3-0.9-3-3.2c0.4-3.3,3.7-3.5,6.2-3.7c2-0.2,2.9-0.3,3.1-1.8
			c0.2-1.2-1.1-1.5-2.1-1.5c-1.4,0-2.9,0.6-3.3,2L62.5,71.4L62.5,71.4z M64.1,77.9c1.4,0,2.6-0.5,3.4-1.5c0.7-0.9,1-1.9,1.4-2.9h0
			c-0.9,0.5-2.3,0.6-3.7,0.8c-1.4,0.2-2.6,0.6-2.8,2C62.2,77.4,63.1,77.9,64.1,77.9z"/>
		<path id="path34" d="M75.1,68H77l-3.8,11.3h-1.9L75.1,68z M77.7,66h-1.9l0.8-2.3h1.9L77.7,66z"/>
		<path id="path36" d="M79.7,68h1.7l-0.9,2.4h0c1.1-1.5,2.6-2.7,4.4-2.7c0.2,0,0.4,0,0.7,0l-0.7,2c-0.2,0-0.4,0-0.5,0
			c-0.5,0-0.7,0-1.1,0.1c-1.1,0.3-1.9,0.9-2.6,1.8c-0.6,0.7-1,1.8-1.3,2.6l-1.7,5h-1.9L79.7,68z"/>
		<path id="path38" d="M86,74.2c-0.1,0.3-0.2,0.7-0.2,1c-0.2,1.7,1.1,2.7,2.6,2.7c1.6,0,2.8-0.8,3.5-2.2h1.9
			c-0.9,2.5-3.1,3.8-5.6,3.8c-3.7,0-4.4-2.6-4.2-4.5c0.6-4.3,3.7-7.3,6.7-7.3c3.3,0,4.5,1.8,4.1,5c-0.1,0.6-0.3,1.2-0.4,1.5H86
			L86,74.2z M93,72.6c0.3-1.6-0.2-3.2-2.2-3.2c-2.2,0-3.5,1.4-4.3,3.2H93z"/>
	</g>
	<g id="FLYInGBlue" transform="matrix(0.9916173,0,0,0.9916173,1.5870982,-0.2833245)">
		<path id="path41" class="st0" d="M147.6,61.6l-6,8.2l-5.9-8.2h-4l8.3,11.1v7.7h3.2v-7.8l8.3-11L147.6,61.6L147.6,61.6z
			 M127.3,61.6h-3.2v18.7h14.4v-2.7h-11.2V61.6L127.3,61.6z M107.9,80.3h3.1v-8.2h11v-2.8h-11v-5h11.5v-2.8h-14.6V80.3L107.9,80.3z
			 M187.3,70c0,2.7,0,2.7,0,2.7c6.1,0,6.1,0,6.1,0c-0.4,3.2-3,5.3-6.7,5.3c-2.1,0-7-0.7-7-7c0-3.5,1.8-7.1,6.8-7.1
			c3.3,0,5.2,1.2,6,3.7c0,0.1,0,0.1,0,0.1c3.3,0,3.3,0,3.3,0c-0.1-0.3-0.1-0.3-0.1-0.3c-0.9-4.1-4.2-6.3-9.5-6.3
			c-4.5,0-9.8,2.6-9.8,10.1c0,4.4,2.6,9.5,10,9.5c3.7,0,5.7-1.6,6.9-2.9c0.4,2.2,0.4,2.2,0.4,2.2c0,0.1,0,0.1,0,0.1
			c2.3,0,2.3,0,2.3,0c0-10.3,0-10.3,0-10.3H187.3z M151.9,80.3h3.1V61.6h-3.1V80.3z M156.9,61.6c3.5,0,3.5,0,3.5,0c0,3,0,3,0,3
			c0.1,0,0.1,0,0.1,0c1.7-2.6,4.6-3.4,7.3-3.4c4.5,0,7.8,1.9,7.8,6.5c0,12.6,0,12.6,0,12.6c-3.5,0-3.5,0-3.5,0c0-11.9,0-11.9,0-11.9
			c0-2.8-1.8-4.3-5.5-4.3c-3.3,0-6.1,1.9-6.1,5.5c0,10.7,0,10.7,0,10.7c-3.5,0-3.5,0-3.5,0V61.6L156.9,61.6z"/>
		<path id="path43" class="st1" d="M266.8,69.5c-0.5-3.3-3.1-5.2-6.4-5.2c-3.3,0-6.2,1.9-6.7,5.2H266.8z M253.5,72.2
			c0.3,3.8,3.7,5.8,6.9,5.8c2,0,4.7-0.7,5.9-3.3c3.7,0,3.7,0,3.7,0c-1.8,4.5-5.9,6.2-9.5,6.2c-7.2,0-10.7-4.6-10.7-9.8
			c0-5.3,3.5-9.8,10.7-9.8c4.9,0,10,2.9,10,10.4c0,0.5,0,0.5,0,0.5H253.5z M218.9,77.6c0-16,0-16,0-16c-3.2,0-3.2,0-3.2,0
			c0,18.7,0,18.7,0,18.7c14.3,0,14.3,0,14.3,0c0-2.7,0-2.7,0-2.7H218.9z M207.8,77.6h-7.2v-5.7h7.5c3,0,3.4,1.8,3.4,2.7
			C211.5,76.6,210.2,77.6,207.8,77.6z M200.6,64.3h7.1c2.1,0,3,0.8,3,2.5c0,1.5-1.1,2.4-2.8,2.4c-7.3,0-7.3,0-7.3,0L200.6,64.3
			L200.6,64.3z M211.5,70.2c1.6-0.7,2.3-2,2.3-3.9c0-2.1-1-4.8-5.9-4.8h-10.5v18.7h11.1c4.2,0,6-2.8,6-5.5
			C214.6,72.5,213.6,70.9,211.5,70.2z M248.9,80c-3.6,0-3.6,0-3.6,0c0-2.8,0-2.8,0-2.8c-0.1,0-0.1,0-0.1,0c-1.7,2.6-4.7,3.5-7.3,3.5
			c-4.5,0-7.8-1.9-7.8-6.6c0-12.6,0-12.6,0-12.6c3.5,0,3.5,0,3.5,0c0,11.9,0,11.9,0,11.9c0,2.7,1.7,4.3,5.5,4.3
			c3.3,0,6.2-1.9,6.2-5.6c0-10.6,0-10.6,0-10.6c3.6,0,3.6,0,3.6,0V80z"/>
	</g>
</g>
</svg>
