<?xml version="1.0" encoding="utf-8"?>
<!-- Generator: Adobe Illustrator 25.4.1, SVG Export Plug-In . SVG Version: 6.00 Build 0)  -->
<svg version="1.1" id="Layer_1" xmlns="http://www.w3.org/2000/svg" xmlns:xlink="http://www.w3.org/1999/xlink" x="0px" y="0px"
	 viewBox="0 0 241.88 80" style="enable-background:new 0 0 241.88 80;" xml:space="preserve">
<style type="text/css">
	.st0{fill:#E41917;}
	.st1{fill:#203059;}
</style>
<g>
	<path class="st0" d="M4.75,22.29h23.77c2.33,0,4.09,0.74,4.78,4.05c0.77,3.68,0.45,6.24-3.69,6.53l-7.46,0.53
		c5.49,34.71,37.61,46.02,55.09,8.64c2.89-6.19,3.84-7.31,7.01-6.53c4.3,1.07,4.88,3.28,2.84,9.51
		c-15.12,46.08-65.93,50.7-75.9-10.84l-6.06,0.44C0.19,34.98,0,30.82,0,28.5C0,23.93,1.7,22.29,4.75,22.29"/>
	<path class="st0" d="M91.18,0C96.05,0,100,3.95,100,8.82c0,4.87-3.95,8.82-8.82,8.82c-4.87,0-8.82-3.95-8.82-8.82
		C82.36,3.95,86.31,0,91.18,0"/>
	<g>
		<g>
			<path class="st0" d="M137.99,41.39c-0.03,0.31-0.07,0.62-0.12,0.92c-0.05,0.3-0.12,0.59-0.2,0.87c-0.08,0.27-0.17,0.51-0.28,0.7
				c-0.18,0.33-0.42,0.54-0.73,0.63c-0.31,0.1-0.72,0.14-1.22,0.14h-6.78v23.21c0,0.37-0.04,0.65-0.11,0.83
				c-0.07,0.19-0.2,0.35-0.38,0.5c-0.44,0.33-1.4,0.49-2.87,0.49c-1.53,0-2.5-0.16-2.91-0.49c-0.19-0.15-0.33-0.31-0.4-0.5
				c-0.07-0.19-0.11-0.46-0.11-0.83V44.66h-7.56c-0.39,0-0.68-0.02-0.88-0.06c-0.2-0.04-0.36-0.09-0.48-0.17
				c-0.19-0.12-0.32-0.27-0.38-0.46c-0.06-0.18-0.09-0.46-0.09-0.83c0-0.27,0.01-0.56,0.04-0.88c0.03-0.32,0.07-0.63,0.12-0.93
				c0.05-0.3,0.12-0.59,0.2-0.86c0.08-0.27,0.17-0.5,0.28-0.69c0.18-0.33,0.42-0.54,0.73-0.63c0.31-0.1,0.72-0.14,1.22-0.14h21.12
				c0.39,0,0.68,0.02,0.89,0.06c0.21,0.04,0.37,0.09,0.49,0.17c0.18,0.12,0.3,0.27,0.36,0.46c0.06,0.19,0.09,0.46,0.09,0.81
				C138.03,40.78,138.02,41.08,137.99,41.39z"/>
			<path class="st0" d="M166.87,63.76c-0.47,1.3-1.2,2.42-2.2,3.37c-1,0.95-2.28,1.69-3.83,2.22c-1.56,0.53-3.42,0.8-5.6,0.8
				s-4.05-0.27-5.6-0.8c-1.56-0.53-2.83-1.27-3.83-2.22c-1-0.95-1.73-2.07-2.2-3.37c-0.47-1.3-0.7-2.71-0.7-4.23V40.65
				c0-0.37,0.04-0.65,0.11-0.84c0.07-0.19,0.21-0.36,0.4-0.49c0.41-0.33,1.39-0.49,2.91-0.49c1.47,0,2.42,0.16,2.87,0.49
				c0.18,0.13,0.3,0.3,0.38,0.49c0.07,0.19,0.11,0.47,0.11,0.84v18.78c0,0.74,0.1,1.42,0.31,2.03c0.21,0.61,0.53,1.14,0.98,1.58
				c0.44,0.44,1.02,0.77,1.72,1.01c0.7,0.24,1.55,0.36,2.55,0.36c0.99,0,1.84-0.12,2.55-0.36c0.7-0.24,1.28-0.57,1.72-1.01
				c0.44-0.44,0.77-0.96,0.98-1.58c0.21-0.61,0.31-1.29,0.31-2.03V40.65c0-0.37,0.04-0.65,0.11-0.84c0.07-0.19,0.21-0.36,0.4-0.49
				c0.41-0.33,1.39-0.49,2.91-0.49c1.47,0,2.42,0.16,2.87,0.49c0.18,0.13,0.3,0.3,0.38,0.49c0.07,0.19,0.11,0.47,0.11,0.84v18.87
				C167.57,61.05,167.34,62.47,166.87,63.76z"/>
			<path class="st0" d="M181.51,68.7c-0.08,0.19-0.21,0.35-0.39,0.5c-0.41,0.33-1.37,0.49-2.87,0.49c-1.53,0-2.5-0.16-2.91-0.49
				c-0.18-0.15-0.31-0.31-0.39-0.5c-0.08-0.19-0.12-0.46-0.12-0.83V40.65c0-0.37,0.04-0.65,0.12-0.84c0.08-0.19,0.21-0.36,0.39-0.49
				c0.41-0.33,1.39-0.49,2.91-0.49c1.5,0,2.45,0.16,2.87,0.49c0.18,0.13,0.31,0.3,0.39,0.49c0.08,0.19,0.12,0.47,0.12,0.84v27.21
				C181.63,68.23,181.59,68.51,181.51,68.7z"/>
		</g>
	</g>
	<g>
		<path class="st1" d="M213.22,40.85c-0.04,0.17-0.13,0.4-0.24,0.68c-0.12,0.25-0.25,0.5-0.4,0.76c-0.15,0.25-0.36,0.38-0.64,0.38
			c-0.24,0-0.46-0.04-0.66-0.13c-0.2-0.09-0.44-0.19-0.72-0.31c-0.34-0.15-0.7-0.26-1.07-0.34c-0.37-0.08-0.79-0.12-1.24-0.12
			c-0.76,0-1.36,0.12-1.82,0.37c-0.46,0.24-0.82,0.57-1.08,0.99c-0.26,0.41-0.43,0.9-0.52,1.47c-0.09,0.56-0.13,1.16-0.13,1.78v2.96
			h5.05c0.24,0,0.41,0,0.53,0.01c0.12,0.01,0.21,0.05,0.29,0.12c0.07,0.07,0.12,0.16,0.14,0.26c0.02,0.1,0.03,0.27,0.03,0.52
			c0,0.39-0.04,0.73-0.11,1.03c-0.07,0.3-0.16,0.54-0.24,0.7c-0.13,0.22-0.29,0.37-0.46,0.43c-0.17,0.07-0.43,0.1-0.77,0.1h-4.47
			v15.58c0,0.27-0.01,0.46-0.04,0.57s-0.1,0.23-0.22,0.34c-0.09,0.09-0.27,0.17-0.54,0.24c-0.27,0.07-0.67,0.11-1.19,0.11
			c-0.46,0-0.82-0.03-1.08-0.09c-0.26-0.06-0.43-0.13-0.52-0.22c-0.12-0.09-0.19-0.2-0.22-0.33s-0.04-0.33-0.04-0.58V52.49h-2.56
			c-0.22,0-0.4,0-0.52-0.01c-0.13-0.01-0.23-0.05-0.3-0.12c-0.07-0.07-0.12-0.16-0.14-0.26c-0.02-0.1-0.03-0.27-0.03-0.52
			c0-0.77,0.14-1.37,0.42-1.8c0.12-0.19,0.26-0.32,0.42-0.38c0.16-0.06,0.41-0.09,0.76-0.09h1.96v-3.27c0-1.08,0.14-2.09,0.41-3.01
			c0.27-0.93,0.7-1.73,1.28-2.4c0.58-0.67,1.31-1.2,2.2-1.58c0.89-0.38,1.94-0.57,3.16-0.57c0.84,0,1.57,0.06,2.17,0.17
			c0.6,0.11,1.09,0.23,1.48,0.37c0.4,0.15,0.72,0.29,0.96,0.41c0.24,0.13,0.41,0.24,0.53,0.34c0.12,0.1,0.2,0.2,0.23,0.3
			c0.04,0.1,0.06,0.19,0.06,0.28C213.28,40.52,213.26,40.68,213.22,40.85z"/>
		<path class="st1" d="M219.12,68.66c-0.03,0.13-0.1,0.23-0.22,0.32c-0.1,0.09-0.29,0.17-0.56,0.24c-0.27,0.07-0.66,0.11-1.18,0.11
			c-0.46,0-0.82-0.03-1.08-0.09c-0.26-0.06-0.43-0.13-0.52-0.22c-0.12-0.09-0.19-0.2-0.22-0.33c-0.03-0.13-0.04-0.33-0.04-0.58
			V40.31c0-0.58,0.1-0.96,0.31-1.16c0.09-0.09,0.26-0.18,0.5-0.27c0.24-0.09,0.6-0.18,1.06-0.27c0.44-0.09,0.79-0.13,1.04-0.13
			c0.13,0,0.26,0,0.39,0.01c0.13,0.01,0.23,0.03,0.3,0.08c0.12,0.09,0.19,0.2,0.22,0.33c0.03,0.13,0.04,0.33,0.04,0.58v28.59
			C219.16,68.34,219.15,68.54,219.12,68.66z"/>
		<path class="st1" d="M229.23,78.29c0,0-1.31,0-2.32,0s-0.48-1.08-0.48-1.08l4.16-9.35L222.41,51c-0.12-0.25-0.2-0.44-0.26-0.56
			c-0.05-0.12-0.08-0.27-0.08-0.44c0-0.09,0.03-0.19,0.09-0.29c0.06-0.1,0.17-0.2,0.32-0.29c0.16-0.09,0.37-0.16,0.63-0.21
			c0.27-0.05,0.6-0.08,1-0.08c0.62,0,1.09,0.06,1.41,0.17c0.32,0.11,0.55,0.33,0.7,0.66l6.27,13.38l5.38-13.2
			c0.15-0.41,0.38-0.69,0.7-0.81c0.32-0.13,0.83-0.19,1.52-0.19c0.73,0,1.2,0.07,1.43,0.22c0.23,0.15,0.34,0.32,0.34,0.51
			c0,0.18-0.03,0.35-0.09,0.51c-0.06,0.16-0.15,0.37-0.27,0.62l-8.69,20.81c-0.27,0.65-2.45,5.41-2.65,5.8
			C229.86,78.25,229.23,78.29,229.23,78.29z"/>
	</g>
</g>
</svg>
