<?xml version="1.0" encoding="utf-8"?>
<!-- Generator: Adobe Illustrator 25.4.1, SVG Export Plug-In . SVG Version: 6.00 Build 0)  -->
<svg version="1.1" id="Layer_2_00000159471598350358213750000014612203606435250611_"
	 xmlns="http://www.w3.org/2000/svg" xmlns:xlink="http://www.w3.org/1999/xlink" x="0px" y="0px" viewBox="0 0 130.3 80"
	 style="enable-background:new 0 0 130.3 80;" xml:space="preserve">
<style type="text/css">
	.st0{fill:#0063AD;}
	.st1{fill:#FFFFFF;}
	.st2{fill:#03B14D;}
</style>
<path id="path4490" class="st0" d="M57.1,41.9l3.2-6.4h41.2v6.4H57.1z"/>
<path id="path4494" class="st0" d="M117.1,79.4l-1.2-0.8l-0.6,0c-2.6-1.9-20.7-15.7-27.1-36.6c-6.9-22.6-10.2-30.5-10.2-30.5H49.8
	c0,0-0.2,1.9-1.5,6c-1.3,4-9.7,16.8-14.8,22.4c-5.1,5.5-13.9,11.4-13.9,11.4s10.3,7.7,20.9,4.6C51,52.6,59.7,31.5,62.7,22.3
	l3.4,12.5c0,0,5.1,23.4,9.1,30.1C78,69.5,83,76.1,93.3,78.6C99.9,81.2,117.1,79.4,117.1,79.4"/>
<path id="path4498" class="st1" d="M49.6,11.5h28.9l1.5,4l-4.2-2l-0.6,3.4l-2.8-3.5L70.7,16L69,13.5l-2.7,2.3l-2-2.3l-2.9,2.3
	l-2.6-2.7l-1.5,5.3l-1.2-4.8l-2,2.3l-1.5-2.7l-3.5,3L49.6,11.5z"/>
<path id="path4502" class="st0" d="M62.7,21.1l3.7,13.6c0.1,0.3,5.1,23.5,9,30c2.2,3.6,8.8,14.6,26.7,14.6c2.1,0,4.4-0.2,6.7-0.5
	l5.7-0.4C111,75.6,94,62,87.9,41.9c-6.2-20.4-9.5-28.9-10.1-30.2H50.1c-0.1,0.7-0.5,2.5-1.5,5.7c-1.4,4.2-9.9,17-14.9,22.5
	c-4.4,4.8-11.8,10-13.6,11.2c1.6,1.1,7.8,5,15,5c1.8,0,3.5-0.2,5.2-0.7c9.9-2.9,18.5-22.2,22.1-33.1L62.7,21.1z M102.2,79.9
	c-18.4,0-25.1-11.2-27.3-14.9c-4-6.6-8.9-29.2-9.1-30.2l-3.1-11.4C58.9,34.7,50.3,53.2,40.5,56c-1.7,0.5-3.5,0.7-5.4,0.7
	c-8.5,0-15.8-5.3-15.8-5.4l-0.4-0.3l0.4-0.3c0.1-0.1,8.9-5.9,13.9-11.4c5-5.4,13.4-18.1,14.7-22.3c1.3-4,1.5-5.9,1.5-5.9l0-0.3h28.8
	l0.1,0.2c0,0.1,3.4,8.2,10.2,30.5c6.7,22.2,27.1,36.6,27.3,36.7l0.8,0.5l-7.6,0.5C106.7,79.8,104.4,79.9,102.2,79.9"/>
<path id="path4506" class="st2" d="M36.6,23.6c0,0-41.6,33.1-25.1,45.4c16.5,12.3,58.4-5,58.4-5S36.5,80.2,15,77.5
	C-6.5,74.9,0.7,60.8,3,55.7C5.2,50.6,15.2,39,28.2,29.5C41.3,20.1,36.6,23.6,36.6,23.6"/>
<path id="path4510" class="st2" d="M101.8,0.6c-1,0.2-1.9,0.3-2.9,0.5c-0.6,0.1-1.2,0.2-1.9,0.4C84,4.3,72.8,9,72.8,9
	S148.2-9.9,112,36.9l-14.5,16c0,0,24.3-16.7,31-33.2C135.1,3.3,123-2,101.8,0.6"/>
</svg>
