<?xml version="1.0" encoding="utf-8"?>
<!-- Generator: Adobe Illustrator 25.4.1, SVG Export Plug-In . SVG Version: 6.00 Build 0)  -->
<svg version="1.1" id="Layer_2_00000159471598350358213750000014612203606435250611_"
	 xmlns="http://www.w3.org/2000/svg" xmlns:xlink="http://www.w3.org/1999/xlink" x="0px" y="0px" viewBox="0 0 482.2 80"
	 style="enable-background:new 0 0 482.2 80;" xml:space="preserve">
<style type="text/css">
	.st0{fill:#03B14D;}
	.st1{fill:#0063AD;}
	.st2{fill:#FFFFFF;}
</style>
<g id="layer1" transform="translate(-35.454294,-160.03433)">
	<g id="g5871">
		<path id="path4354" class="st0" d="M265.4,235.1l0.8-3.1l1.5-6.4l0.6-3c-1.7,0-3.2,0-4.5,0.1c0.1-0.5,0.2-1,0.3-1.4
			c1.8,0,3.7,0,5.8,0l3.4,0h1.8c-0.2,0.6-0.3,1.1-0.3,1.4c-1.1-0.1-2.3-0.1-3.6-0.1h-0.9l-1,4.5l-1.4,6.3l-0.3,1.7l-1,0
			C266.4,235.1,266,235.1,265.4,235.1"/>
		<path id="path4358" class="st0" d="M273.6,235.1l1.1-4.4l1.3-6l0.7-3.4l1,0c0.2,0,0.6,0,0.9,0l-0.9,3.5l-0.5,2.1
			c0.2-0.3,0.4-0.5,0.6-0.7c0.2-0.2,0.3-0.3,0.6-0.5c0.2-0.2,0.5-0.3,0.7-0.4c0.2-0.1,0.5-0.2,0.8-0.3c0.3-0.1,0.6-0.2,1-0.2
			c0.4-0.1,0.8-0.1,1.2-0.1c0.6,0,1.2,0.1,1.7,0.2c0.5,0.1,1,0.3,1.3,0.6c0.3,0.3,0.5,0.6,0.6,1.1c0.1,0.4,0.1,0.8,0,1.3
			c0,0.2-0.1,0.4-0.1,0.7c-0.1,0.4-0.2,0.9-0.4,1.5l-0.9,3.7c-0.1,0.4-0.2,0.9-0.3,1.5c-0.4,0-0.7,0-0.9,0c-0.2,0-0.6,0-1,0
			c0.2-0.7,0.5-1.9,0.9-3.4c0.4-1.6,0.6-2.7,0.8-3.3c0.1-0.5,0.1-1-0.1-1.3c-0.1-0.4-0.4-0.6-0.9-0.8c-0.4-0.2-0.9-0.3-1.5-0.3
			c-0.5,0-1,0.1-1.5,0.2c-0.4,0.1-0.8,0.3-1.2,0.6c-0.3,0.3-0.6,0.6-0.9,0.9c-0.3,0.4-0.5,0.8-0.6,1.2c-0.2,0.6-0.5,1.5-0.7,2.7
			c-0.2,0.7-0.4,1.9-0.8,3.5c-0.4,0-0.7,0-0.9,0C274.4,235.1,274.1,235.1,273.6,235.1"/>
		<path id="path4362" class="st0" d="M289.6,228.7h6.3c0.1-0.4,0.1-0.8,0.1-1c0-0.2-0.1-0.5-0.1-0.7c-0.1-0.3-0.2-0.5-0.4-0.7
			c-0.2-0.2-0.4-0.3-0.7-0.4c-0.3-0.1-0.6-0.1-1-0.1c-0.4,0-0.8,0-1.2,0.2c-0.4,0.1-0.7,0.3-1,0.4c-0.3,0.2-0.6,0.4-0.8,0.7
			c-0.2,0.3-0.4,0.5-0.6,0.7C289.9,228,289.7,228.3,289.6,228.7 M295.8,233.5c-0.1,0.4-0.3,0.8-0.5,1.4c-0.7,0.2-1.3,0.3-1.8,0.3
			c-0.5,0.1-1,0.1-1.5,0.1c-0.9,0-1.6-0.1-2.3-0.3c-0.7-0.2-1.2-0.6-1.6-1.1c-0.4-0.5-0.7-1.1-0.8-1.7c-0.1-0.7-0.1-1.3,0-2.1
			c0.2-1,0.6-1.9,1.1-2.8c0.6-0.9,1.3-1.5,2.2-2c0.9-0.5,2-0.7,3.2-0.7c0.6,0,1.2,0.1,1.8,0.3c0.6,0.2,1,0.4,1.3,0.8
			c0.3,0.4,0.5,0.8,0.6,1.4c0.1,0.5,0.1,1.1,0,1.8c0,0.2-0.1,0.5-0.2,0.7h-8c-0.1,0.4-0.2,0.7-0.2,0.9c-0.1,0.7-0.1,1.4,0.1,2
			c0.2,0.6,0.6,1.1,1.1,1.4c0.6,0.3,1.2,0.5,2,0.5C293.2,234.1,294.4,233.9,295.8,233.5"/>
		<path id="path4366" class="st0" d="M313.4,235.1l-0.7-5.1l-1.4-8.7c0.4,0,0.7,0,1,0c0.3,0,0.7,0,1,0l0.8,6.1l0.6,4.5l0.2,1.6
			c1.5-2.1,2.9-4.3,4.3-6.5c-0.3-1.9-0.6-3.8-0.9-5.6c0.4,0,0.7,0,1,0c0.3,0,0.7,0,1,0c0.1,0.7,0.1,1.3,0.2,1.7c0,0.4,0.1,1,0.2,1.7
			c0.6-0.8,1.2-2,2.1-3.4c0.4,0,0.7,0,1,0c0.3,0,0.7,0,1,0c-1.3,1.8-2.5,3.7-3.8,5.6c0.2,2.2,0.6,4.3,1,6.5l3.9-6l2.9-4.5l1-1.6
			c0.4,0,0.7,0,1,0c0.3,0,0.6,0,1,0l-4.6,6.9l-3.3,5.1l-1.2,1.9c-0.4,0-0.7,0-1.1,0c-0.4,0-0.7,0-1.1,0c-0.2-2-0.6-4-0.9-6
			c-1.4,2-2.7,4-4,6c-0.4,0-0.7,0-1.1,0C314.1,235.1,313.7,235.1,313.4,235.1"/>
		<path id="path4370" class="st0" d="M333,222.6c0.1-0.6,0.2-1.1,0.3-1.4c0.4,0,0.7,0,1,0c0.4,0,0.7,0,1,0c-0.1,0.2-0.2,0.7-0.3,1.4
			c-0.4,0-0.7,0-1,0C333.8,222.6,333.4,222.6,333,222.6 M330.2,235.1l0.7-2.6l1-4.4l0.7-3.4l1,0l1,0c-0.3,1.1-0.5,2.2-0.8,3.3
			c-0.3,1.2-0.6,2.4-0.8,3.8c-0.3,1.4-0.5,2.4-0.6,3.2c-0.4,0-0.8,0-0.9,0C331.1,235.1,330.7,235.1,330.2,235.1"/>
		<path id="path4374" class="st0" d="M335.1,235.1c1.1-4.2,1.9-7.7,2.4-10.3l1,0c0.2,0,0.5,0,0.9,0l-0.5,2c0.2-0.3,0.4-0.5,0.5-0.7
			c0.1-0.2,0.3-0.3,0.5-0.5c0.2-0.2,0.4-0.3,0.7-0.5c0.3-0.1,0.6-0.3,0.9-0.4c0.3-0.1,0.7-0.2,1-0.2c0.3,0,0.7-0.1,1-0.1
			c0.6,0,1.2,0.1,1.7,0.2c0.5,0.1,1,0.4,1.3,0.7c0.3,0.3,0.5,0.7,0.5,1.1c0,0.4,0,0.8-0.1,1.3c0,0.1,0,0.3-0.1,0.5
			c0,0.2-0.1,0.6-0.2,1l-1,4.3c-0.1,0.4-0.2,0.9-0.3,1.5c-0.3,0-0.6,0-0.9,0c-0.3,0-0.7,0-1,0c0.2-0.8,0.4-1.6,0.6-2.4l0.6-2.4
			c0.2-0.8,0.3-1.4,0.4-1.8c0.1-0.6,0.1-1.1-0.1-1.4c-0.1-0.4-0.4-0.6-0.9-0.8c-0.4-0.2-0.9-0.3-1.5-0.3c-0.8,0-1.5,0.2-2.2,0.6
			c-0.6,0.3-1.1,0.8-1.5,1.5c-0.3,0.5-0.6,1.1-0.8,2c-0.3,1.1-0.7,2.7-1.2,5.1c-0.4,0-0.7,0-0.9,0
			C335.8,235.1,335.5,235.1,335.1,235.1"/>
		<path id="path4378" class="st0" d="M358.6,226.1c-0.8-0.1-1.5-0.2-2.2-0.2c-0.7,0-1.3,0.1-1.9,0.2c-0.6,0.2-1.2,0.4-1.8,0.9
			c-0.6,0.4-1,0.9-1.4,1.6c-0.4,0.7-0.6,1.3-0.8,2c-0.1,0.7-0.1,1.3,0,1.8c0.2,0.5,0.5,0.9,0.9,1.2c0.5,0.3,1,0.4,1.7,0.4
			c0.6,0,1.1-0.1,1.6-0.3c0.5-0.2,0.9-0.5,1.3-0.9c0.4-0.4,0.8-0.9,1.1-1.4c0.2-0.4,0.4-0.9,0.6-1.7
			C357.9,229.2,358.2,228,358.6,226.1 M348.3,238.1c0.9,0.3,1.6,0.5,2.2,0.5c0.6,0.1,1.2,0.1,1.7,0.1c0.6,0,1.1-0.1,1.7-0.2
			c0.4-0.1,0.8-0.3,1.2-0.5c0.3-0.2,0.5-0.4,0.7-0.7c0.2-0.4,0.5-0.9,0.7-1.5c0.2-0.5,0.4-1.4,0.7-2.9c-0.2,0.3-0.4,0.5-0.6,0.7
			c-0.2,0.2-0.4,0.4-0.7,0.6c-0.3,0.2-0.6,0.4-0.9,0.5c-0.3,0.2-0.7,0.3-1.1,0.4c-0.4,0.1-0.9,0.1-1.3,0.1c-0.6,0-1.2-0.1-1.7-0.3
			c-0.5-0.2-1-0.5-1.3-0.8c-0.4-0.4-0.6-0.9-0.7-1.5c-0.1-0.6-0.1-1.2,0-1.9c0.2-0.9,0.5-1.8,1-2.6c0.5-0.8,1.1-1.5,1.9-2.1
			c0.8-0.6,1.6-1,2.4-1.2c0.9-0.2,1.8-0.3,2.8-0.3c1.1,0,2.4,0.1,4,0.4l-0.3,1.2L359,232c0,0.1-0.2,0.8-0.4,2.1l-0.4,2.1
			c-0.1,0.4-0.3,0.8-0.4,1.2c-0.1,0.3-0.3,0.5-0.5,0.8c-0.2,0.2-0.4,0.4-0.6,0.6c-0.2,0.2-0.5,0.4-0.7,0.5c-0.3,0.2-0.6,0.3-0.9,0.4
			c-0.4,0.1-0.8,0.2-1.3,0.3c-0.5,0.1-1,0.1-1.5,0.1c-0.7,0-1.4,0-2-0.1c-0.7-0.1-1.4-0.2-2.2-0.4l0.1-0.6
			C348.3,238.9,348.3,238.6,348.3,238.1"/>
		<path id="path4382" class="st0" d="M360.8,234.9l0.1-0.7c0-0.1,0-0.3,0.1-0.8c1,0.5,1.9,0.7,2.9,0.7c0.5,0,0.9-0.1,1.2-0.2
			c0.4-0.1,0.6-0.3,0.8-0.5c0.2-0.2,0.3-0.5,0.4-0.7c0-0.1,0-0.3,0-0.4c0-0.1-0.1-0.3-0.1-0.4c-0.1-0.1-0.2-0.3-0.3-0.4
			c-0.2-0.2-0.5-0.5-1-0.9c-0.5-0.4-0.9-0.8-1.1-1c-0.2-0.3-0.5-0.5-0.6-0.8c-0.1-0.3-0.3-0.5-0.3-0.8c0-0.3,0-0.5,0-0.8
			c0.1-0.4,0.3-0.9,0.7-1.3c0.4-0.4,0.8-0.7,1.4-0.9c0.6-0.2,1.2-0.3,1.9-0.3c0.8,0,1.7,0.1,2.6,0.3c-0.1,0.5-0.1,1-0.2,1.5
			c-0.7-0.3-1.5-0.5-2.2-0.5c-0.4,0-0.8,0-1.2,0.2c-0.4,0.1-0.7,0.3-0.9,0.5c-0.2,0.2-0.3,0.4-0.4,0.7c0,0.2,0,0.3,0,0.5
			c0,0.1,0.1,0.3,0.2,0.5c0.1,0.2,0.3,0.3,0.4,0.5c0.2,0.2,0.5,0.5,1,1c0.5,0.5,0.9,0.8,1.1,1c0.2,0.2,0.3,0.5,0.4,0.7
			c0.1,0.2,0.2,0.5,0.2,0.7c0,0.2,0,0.5,0,0.7c-0.1,0.5-0.3,0.9-0.7,1.3c-0.4,0.4-0.9,0.7-1.5,0.9c-0.6,0.2-1.3,0.3-2,0.3
			c-0.3,0-0.7,0-1.1-0.1c-0.4,0-0.7-0.1-1-0.1C361.6,235.1,361.2,235,360.8,234.9"/>
		<path id="path4386" class="st0" d="M387.8,225.9c-0.7,0-1.4,0.2-2.1,0.5c-0.7,0.3-1.2,0.9-1.6,1.6c-0.4,0.7-0.7,1.4-0.8,2.3
			c-0.1,0.7-0.1,1.4,0,1.9c0.1,0.6,0.4,1,0.9,1.4c0.5,0.4,1.1,0.5,1.9,0.5c0.5,0,1-0.1,1.5-0.3c0.5-0.2,1-0.5,1.4-0.9
			c0.4-0.4,0.8-0.9,1-1.5c0.3-0.6,0.5-1.2,0.6-1.8c0.1-0.6,0.1-1.2,0-1.7c-0.1-0.5-0.3-0.9-0.5-1.3c-0.3-0.3-0.6-0.5-1.1-0.7
			C388.7,225.9,388.3,225.9,387.8,225.9 M388.1,224.6c0.7,0,1.4,0.1,2.1,0.3c0.6,0.2,1.1,0.5,1.6,1c0.4,0.4,0.7,1,0.8,1.7
			c0.1,0.7,0.1,1.4,0,2.1c-0.1,0.8-0.4,1.6-0.8,2.3c-0.4,0.7-0.9,1.4-1.5,1.9c-0.6,0.5-1.2,0.9-2,1.1c-0.7,0.2-1.5,0.4-2.3,0.4
			c-0.8,0-1.4-0.1-2.1-0.3c-0.6-0.2-1.1-0.6-1.5-1c-0.4-0.5-0.7-1-0.8-1.7c-0.1-0.7-0.1-1.4,0-2.1c0.2-1.1,0.6-2.1,1.2-3
			c0.6-0.9,1.4-1.5,2.4-2C386.1,224.8,387.1,224.6,388.1,224.6"/>
		<path id="path4390" class="st0" d="M394,235.1l0.5-1.9l1.6-7.1h-1.3c0.1-0.3,0.2-0.8,0.3-1.3h1.4c0.1-0.6,0.2-1.1,0.3-1.4
			c0.1-0.3,0.2-0.6,0.3-0.9c0.1-0.3,0.3-0.5,0.4-0.7c0.2-0.2,0.4-0.4,0.7-0.5c0.3-0.2,0.6-0.3,1-0.3c0.4-0.1,0.8-0.1,1.2-0.1
			c0.6,0,1.2,0.1,2,0.3c0,0.4-0.1,0.8-0.1,1.3c-0.6-0.2-1.2-0.3-1.8-0.3c-0.3,0-0.5,0-0.7,0.1c-0.2,0.1-0.4,0.2-0.6,0.3
			c-0.2,0.1-0.3,0.3-0.4,0.4c-0.1,0.2-0.2,0.4-0.3,0.6c-0.1,0.2-0.1,0.5-0.2,0.9l-0.1,0.4h2.9c-0.1,0.3-0.2,0.7-0.3,1.3h-2.8
			l-1.1,5.2l-0.8,3.8c-0.4,0-0.8,0-1,0C394.7,235.1,394.4,235.1,394,235.1"/>
		<path id="path4394" class="st0" d="M415.1,227.8l3.2-2.9l2.7-2.5c0.2-0.2,0.6-0.6,1.1-1.1l1.2,0l1.2,0l-6.1,5.5l-1.1,1l0.4,0.7
			c0.1,0.2,0.8,1.2,2.1,3.1l2.5,3.6c-0.6,0-1,0-1.2,0c-0.3,0-0.7,0-1.3,0l-0.8-1.4L415.1,227.8z M411.3,235.1l1-4l1.7-7.8
			c0.1-0.4,0.2-0.9,0.3-1.3l0.1-0.7l1.1,0l1,0l-0.9,3.7l-1.8,8.3l-0.4,1.9l-1,0C412.3,235.1,411.9,235.1,411.3,235.1"/>
		<path id="path4398" class="st0" d="M426.6,222.6c0.1-0.6,0.2-1.1,0.3-1.4c0.4,0,0.7,0,1,0c0.4,0,0.7,0,1,0
			c-0.1,0.2-0.2,0.7-0.3,1.4c-0.4,0-0.7,0-1,0C427.3,222.6,427,222.6,426.6,222.6 M423.8,235.1l0.6-2.6l1-4.4l0.7-3.4l1,0l0.9,0
			c-0.3,1.1-0.5,2.2-0.8,3.3c-0.3,1.2-0.6,2.4-0.8,3.8c-0.3,1.4-0.5,2.4-0.6,3.2c-0.4,0-0.8,0-0.9,0
			C424.6,235.1,424.3,235.1,423.8,235.1"/>
		<path id="path4402" class="st0" d="M428.7,235.1c0.5-2.1,1.1-4.6,1.8-7.4c0.5-2.1,0.9-4.2,1.4-6.4l1,0c0.2,0,0.5,0,0.9,0l-1.4,6
			l-1.3,6l-0.4,1.9c-0.4,0-0.7,0-0.9,0C429.6,235.1,429.3,235.1,428.7,235.1"/>
		<path id="path4406" class="st0" d="M436.4,222.6c0.1-0.6,0.2-1.1,0.3-1.4c0.4,0,0.7,0,1,0c0.4,0,0.7,0,1,0
			c-0.1,0.2-0.2,0.7-0.3,1.4c-0.4,0-0.7,0-1,0C437.2,222.6,436.8,222.6,436.4,222.6 M433.7,235.1l0.6-2.6l1-4.4l0.7-3.4l1,0l1,0
			c-0.3,1.1-0.5,2.2-0.8,3.3c-0.3,1.2-0.6,2.4-0.8,3.8c-0.3,1.4-0.5,2.4-0.6,3.2c-0.4,0-0.8,0-1,0
			C434.5,235.1,434.2,235.1,433.7,235.1"/>
		<path id="path4410" class="st0" d="M438.5,235.1l0.4-1.5c0.1-0.3,0.2-0.8,0.4-1.5l1.4-6.2c0.1-0.5,0.2-0.9,0.2-1.2
			c0.3,0,0.6,0,0.9,0c0.3,0,0.6,0,0.9,0l-0.4,1.9c0.3-0.4,0.6-0.7,0.8-0.9c0.2-0.2,0.5-0.4,0.9-0.6c0.4-0.2,0.7-0.3,1.2-0.4
			c0.4-0.1,0.9-0.2,1.3-0.2c0.3,0,0.6,0,0.9,0.1c0.3,0.1,0.5,0.2,0.8,0.3c0.2,0.1,0.4,0.3,0.6,0.4c0.1,0.2,0.3,0.3,0.3,0.5
			c0.1,0.2,0.1,0.4,0.2,0.8c0.6-0.8,1.2-1.3,1.9-1.6c0.7-0.3,1.4-0.5,2.2-0.5c0.5,0,1,0.1,1.4,0.2c0.4,0.1,0.8,0.4,1,0.7
			c0.2,0.3,0.4,0.6,0.4,0.9c0,0.3,0,0.6,0,0.9c-0.1,0.3-0.2,0.8-0.3,1.5c-0.2,0.6-0.4,1.6-0.7,3c-0.3,1.3-0.5,2.4-0.7,3.3
			c-0.4,0-0.7,0-0.9,0c-0.2,0-0.6,0-1,0c0.2-0.9,0.5-1.9,0.7-3l0.6-2.5c0.1-0.6,0.3-1.1,0.3-1.6c0.1-0.4,0.1-0.7,0-0.9
			c0-0.2-0.1-0.4-0.3-0.6c-0.2-0.2-0.4-0.3-0.6-0.4c-0.3-0.1-0.6-0.1-0.9-0.1c-0.3,0-0.5,0-0.8,0.1c-0.2,0.1-0.5,0.2-0.7,0.3
			c-0.3,0.1-0.5,0.3-0.7,0.5c-0.2,0.2-0.4,0.4-0.6,0.6c-0.2,0.2-0.3,0.5-0.5,0.8c-0.2,0.4-0.3,0.9-0.5,1.5c-0.2,0.6-0.4,1.5-0.6,2.5
			l-0.6,2.8c-0.4,0-0.7,0-0.9,0c-0.2,0-0.5,0-1,0c0.2-0.8,0.4-1.7,0.6-2.6l0.6-2.5c0.2-0.8,0.3-1.4,0.4-1.9c0.1-0.3,0.1-0.6,0-0.9
			c0-0.2-0.1-0.5-0.3-0.7c-0.2-0.2-0.4-0.3-0.6-0.5c-0.3-0.1-0.6-0.2-0.9-0.2c-0.4,0-0.7,0.1-1,0.2c-0.3,0.1-0.7,0.3-1,0.5
			c-0.3,0.2-0.6,0.5-0.8,0.8c-0.2,0.3-0.5,0.8-0.7,1.3c-0.2,0.5-0.5,1.5-0.8,2.8c-0.3,1.4-0.5,2.5-0.7,3.4c-0.4,0-0.8,0-0.9,0
			C439.3,235.1,439,235.1,438.5,235.1"/>
		<path id="path4414" class="st0" d="M459.4,226.5c0.1-0.3,0.3-0.7,0.4-1.3c0.9-0.2,1.6-0.4,2.3-0.4c0.6-0.1,1.2-0.1,1.8-0.1
			c0.6,0,1.2,0,1.7,0.2c0.5,0.1,1,0.3,1.3,0.5c0.3,0.2,0.5,0.5,0.6,0.9c0.1,0.3,0,0.7,0,1c-0.1,0.5-0.3,1.2-0.5,2.3
			c-0.3,1.1-0.5,2.1-0.7,3.1c-0.2,0.9-0.4,1.8-0.5,2.5c-0.4,0-0.7,0-0.9,0c-0.2,0-0.6,0-1,0l0.7-2.8l0.8-3.3
			c-0.3,0.2-0.5,0.3-0.6,0.4c-0.1,0.1-0.3,0.1-0.5,0.2c-0.2,0.1-0.3,0.1-0.5,0.2c-0.2,0.1-0.6,0.2-1.1,0.3c-0.6,0.1-1,0.2-1.2,0.3
			c-0.5,0.2-0.9,0.3-1.2,0.4c-0.3,0.1-0.6,0.3-0.8,0.5c-0.2,0.2-0.4,0.4-0.5,0.5c-0.1,0.2-0.2,0.4-0.3,0.7c-0.1,0.4,0,0.7,0.2,1
			c0.2,0.3,0.4,0.5,0.7,0.6c0.3,0.1,0.7,0.2,1.2,0.2c0.3,0,0.6,0,0.9-0.1c0.3,0,0.8-0.1,1.4-0.3c-0.1,0.3-0.3,0.7-0.6,1.2
			c-0.5,0.1-1,0.1-1.3,0.2c-0.3,0-0.6,0-0.9,0c-1,0-1.7-0.1-2.2-0.3c-0.5-0.2-0.8-0.5-1-1c-0.2-0.4-0.2-0.9-0.1-1.4
			c0.1-0.3,0.2-0.6,0.3-0.8c0.1-0.3,0.3-0.5,0.5-0.7c0.2-0.2,0.5-0.4,0.8-0.6c0.3-0.2,0.7-0.4,1-0.5c0.4-0.1,0.8-0.3,1.2-0.4
			c0.5-0.1,1.2-0.3,2.2-0.5c0.3-0.1,0.6-0.1,0.8-0.2c0.2-0.1,0.4-0.1,0.6-0.2c0.2-0.1,0.3-0.1,0.5-0.2c0.1-0.1,0.3-0.2,0.4-0.3
			c0.1-0.1,0.2-0.3,0.3-0.4c0.1-0.1,0.1-0.3,0.1-0.4c0.1-0.3,0-0.6-0.2-0.8c-0.2-0.2-0.4-0.4-0.8-0.5c-0.3-0.1-0.8-0.1-1.3-0.1
			c-0.5,0-0.9,0-1.4,0.1c-0.5,0.1-0.9,0.2-1.3,0.3C460.4,226.1,460,226.3,459.4,226.5"/>
		<path id="path4418" class="st0" d="M468.6,235.1c1.1-4.2,1.9-7.7,2.4-10.3l0.9,0c0.2,0,0.5,0,0.9,0l-0.5,2
			c0.2-0.3,0.4-0.5,0.5-0.7c0.1-0.2,0.3-0.3,0.5-0.5c0.2-0.2,0.4-0.3,0.7-0.5c0.3-0.1,0.6-0.3,0.9-0.4c0.3-0.1,0.7-0.2,1-0.2
			c0.3,0,0.7-0.1,1-0.1c0.6,0,1.2,0.1,1.7,0.2c0.5,0.1,1,0.4,1.3,0.7c0.3,0.3,0.5,0.7,0.5,1.1c0.1,0.4,0,0.8,0,1.3
			c0,0.1,0,0.3-0.1,0.5c-0.1,0.2-0.1,0.6-0.2,1l-1,4.3c-0.1,0.4-0.2,0.9-0.3,1.5c-0.3,0-0.6,0-0.9,0c-0.3,0-0.7,0-1,0
			c0.2-0.8,0.4-1.6,0.6-2.4l0.6-2.4c0.2-0.8,0.3-1.4,0.4-1.8c0.1-0.6,0.1-1.1-0.1-1.4c-0.1-0.4-0.4-0.6-0.9-0.8
			c-0.4-0.2-0.9-0.3-1.5-0.3c-0.8,0-1.5,0.2-2.2,0.6c-0.6,0.3-1.1,0.8-1.5,1.5c-0.3,0.5-0.6,1.1-0.8,2c-0.3,1.1-0.7,2.7-1.1,5.1
			c-0.4,0-0.7,0-0.9,0C469.4,235.1,469.1,235.1,468.6,235.1"/>
		<path id="path4422" class="st0" d="M484.5,222.6c0.1-0.4,0.2-0.9,0.3-1.4c0.3,0,0.6,0,1,0c0.3,0,0.7,0,1,0
			c-0.1,0.3-0.2,0.8-0.3,1.4c-0.4,0-0.7,0-1,0C485.2,222.6,484.9,222.6,484.5,222.6 M486,224.8l-1,4.5l-1,4.5
			c-0.4,1.8-0.7,2.9-0.8,3.4c-0.2,0.5-0.3,0.9-0.5,1.2c-0.1,0.2-0.3,0.4-0.5,0.6c-0.2,0.2-0.4,0.4-0.7,0.5c-0.3,0.2-0.6,0.3-0.9,0.4
			c-0.4,0.1-0.9,0.1-1.4,0.1c-0.9,0-1.8-0.1-2.7-0.3c0-0.4,0.1-0.9,0.1-1.4c0.8,0.3,1.5,0.4,2.2,0.4c0.4,0,0.8-0.1,1.1-0.2
			c0.3-0.1,0.6-0.3,0.8-0.4c0.2-0.2,0.4-0.4,0.5-0.7c0.2-0.3,0.4-0.8,0.5-1.3c0.2-0.7,0.5-1.8,0.8-3.3c0.1-0.4,0.3-1.5,0.7-3.1
			c0.5-2.3,0.8-3.6,0.8-4l0.2-0.9c0.4,0,0.8,0,1,0C485.3,224.8,485.6,224.8,486,224.8"/>
		<path id="path4426" class="st0" d="M489,226.5c0.1-0.3,0.3-0.7,0.4-1.3c0.9-0.2,1.6-0.4,2.3-0.4c0.6-0.1,1.2-0.1,1.8-0.1
			c0.6,0,1.2,0,1.7,0.2c0.5,0.1,1,0.3,1.3,0.5c0.3,0.2,0.5,0.5,0.6,0.9c0.1,0.3,0,0.7,0,1c-0.1,0.5-0.3,1.2-0.5,2.3
			c-0.3,1.1-0.5,2.1-0.7,3.1c-0.2,0.9-0.4,1.8-0.5,2.5c-0.4,0-0.7,0-0.9,0c-0.2,0-0.6,0-1,0l0.7-2.8l0.8-3.3
			c-0.3,0.2-0.5,0.3-0.6,0.4c-0.1,0.1-0.3,0.1-0.5,0.2c-0.2,0.1-0.3,0.1-0.5,0.2c-0.2,0.1-0.6,0.2-1.1,0.3c-0.6,0.1-1,0.2-1.2,0.3
			c-0.5,0.2-0.9,0.3-1.2,0.4c-0.3,0.1-0.6,0.3-0.8,0.5c-0.2,0.2-0.4,0.4-0.5,0.5c-0.1,0.2-0.2,0.4-0.3,0.7c-0.1,0.4,0,0.7,0.2,1
			c0.2,0.3,0.4,0.5,0.7,0.6c0.3,0.1,0.7,0.2,1.2,0.2c0.3,0,0.6,0,0.9-0.1c0.3,0,0.8-0.1,1.3-0.3c-0.1,0.3-0.3,0.7-0.6,1.2
			c-0.5,0.1-1,0.1-1.3,0.2c-0.3,0-0.6,0-0.9,0c-1,0-1.7-0.1-2.2-0.3c-0.5-0.2-0.8-0.5-1-1c-0.2-0.4-0.2-0.9-0.1-1.4
			c0.1-0.3,0.2-0.6,0.3-0.8c0.1-0.3,0.3-0.5,0.5-0.7c0.2-0.2,0.5-0.4,0.8-0.6c0.3-0.2,0.7-0.4,1-0.5c0.4-0.1,0.8-0.3,1.2-0.4
			c0.5-0.1,1.2-0.3,2.2-0.5c0.3-0.1,0.6-0.1,0.8-0.2c0.2-0.1,0.4-0.1,0.6-0.2c0.2-0.1,0.3-0.1,0.5-0.2c0.1-0.1,0.3-0.2,0.4-0.3
			c0.1-0.1,0.2-0.3,0.3-0.4c0.1-0.1,0.1-0.3,0.1-0.4c0.1-0.3,0-0.6-0.2-0.8c-0.2-0.2-0.4-0.4-0.8-0.5c-0.4-0.1-0.8-0.1-1.3-0.1
			c-0.5,0-0.9,0-1.4,0.1c-0.5,0.1-0.9,0.2-1.3,0.3C490,226.1,489.5,226.3,489,226.5"/>
		<path id="path4430" class="st0" d="M498.2,235.1c1-3.9,1.7-7,2.1-9.3l0.2-0.9c0.4,0,0.7,0,0.9,0c0.3,0,0.6,0,0.9,0l-0.4,1.7
			c0.3-0.4,0.6-0.7,0.9-1c0.2-0.2,0.5-0.4,0.8-0.5c0.3-0.1,0.6-0.3,0.9-0.3c0.3-0.1,0.7-0.1,1-0.1c0.3,0,0.6,0,0.9,0.1
			c-0.1,0.4-0.1,0.9-0.2,1.5c-0.4-0.1-0.8-0.2-1.1-0.2c-0.4,0-0.8,0.1-1.1,0.2c-0.4,0.1-0.7,0.3-1,0.6c-0.3,0.3-0.6,0.6-0.8,1
			c-0.2,0.3-0.4,0.7-0.5,1.2c-0.2,0.5-0.4,1.3-0.6,2.6c-0.2,0.9-0.4,1.9-0.6,2.9l-0.1,0.7c-0.4,0-0.7,0-0.9,0
			C499,235.1,498.7,235.1,498.2,235.1"/>
		<path id="path4434" class="st0" d="M512.8,225.9c-0.7,0-1.4,0.2-2.1,0.5c-0.7,0.3-1.2,0.9-1.6,1.6c-0.4,0.7-0.7,1.4-0.8,2.3
			c-0.1,0.7-0.1,1.4,0,1.9c0.1,0.6,0.4,1,0.9,1.4c0.5,0.4,1.1,0.5,1.9,0.5c0.5,0,1-0.1,1.5-0.3c0.5-0.2,1-0.5,1.4-0.9
			c0.4-0.4,0.8-0.9,1-1.5c0.3-0.6,0.5-1.2,0.6-1.8c0.1-0.6,0.1-1.2,0-1.7c-0.1-0.5-0.3-0.9-0.5-1.3c-0.3-0.3-0.6-0.5-1.1-0.7
			C513.7,225.9,513.3,225.9,512.8,225.9 M513.1,224.6c0.7,0,1.4,0.1,2.1,0.3c0.6,0.2,1.1,0.5,1.6,1c0.4,0.4,0.7,1,0.8,1.7
			c0.1,0.7,0.1,1.4,0,2.1c-0.2,0.8-0.4,1.6-0.8,2.3c-0.4,0.7-0.9,1.4-1.5,1.9c-0.6,0.5-1.2,0.9-2,1.1c-0.7,0.2-1.5,0.4-2.3,0.4
			c-0.8,0-1.4-0.1-2.1-0.3c-0.6-0.2-1.1-0.6-1.5-1c-0.4-0.5-0.7-1-0.8-1.7c-0.1-0.7-0.1-1.4,0-2.1c0.2-1.1,0.6-2.1,1.2-3
			c0.6-0.9,1.4-1.5,2.4-2C511.1,224.8,512.1,224.6,513.1,224.6"/>
		<path id="path4438" class="st1" d="M261.6,170.7l-1.2,8.6h10.2l-6.3,32H277l6.6-31.9h10l1.6-8.8H261.6z"/>
		<path id="path4442" class="st1" d="M306,203.1c-1,1-1.8,1.6-2.5,1.9c0,0,0,0,0,0c-0.1,0-0.1,0-0.2,0.1c-1.3,0.5-2.3,0.3-3.1-0.2
			c-1.7-0.8-1.8-2.4-1.8-2.4l0,0c0-0.3,0-0.5,0-0.8c0-0.1,0-0.1,0-0.2c0.2-1.2,0.9-2.1,1.8-2.7c0.3-0.3,0.6-0.5,1-0.6c0,0,0,0,0.1,0
			c2.8-1.4,6.7-1.4,6.7-1.4S308.6,200.2,306,203.1 M322.6,188.3c-0.8-4.3-3.4-7.6-17-7.6c-13.7,0-16.4,7.6-16.4,7.6l10.6,1.9
			c0,0,2.6-3.1,6.9-2.8c4.3,0.3,2.6,4.5,2.6,4.5s-16.5-0.8-21.5,4.7c-5,5.5-1.9,16.5,7.4,15.9c9.3-0.6,10.8-5.7,10.8-5.7v4.6h13.3
			C318.4,207.6,323.4,192.6,322.6,188.3"/>
		<path id="path4446" class="st1" d="M322.7,211.3l5.6-30.7h11.3l-0.8,4.9c0,0,4.4-6.7,13.3-4.9c8.9,1.8,6.3,6,4.5,18
			c-1.8,12-2.2,12.7-2.2,12.7h-12.1c0,0,3.2-17.1,3.3-19.6c0.2-2.5-0.3-4-3.4-3.6c-3.1,0.4-3.8,2.4-4.1,5
			c-0.3,2.6-3.5,18.3-3.5,18.3L322.7,211.3z"/>
		<path id="path4450" class="st1" d="M362.3,188.3l1.5-7.7h28.5l-0.8,6.4l-18.1,16.9h15.4l-1.8,7.4h-30.2l1.6-7l17-15.9L362.3,188.3
			z"/>
		<path id="path4454" class="st1" d="M411.3,203.1c-1,1-1.8,1.6-2.5,1.9h0c0,0,0,0,0,0c-0.1,0-0.1,0-0.2,0.1
			c-1.3,0.5-2.3,0.3-3.1-0.2c-1.7-0.8-1.8-2.4-1.8-2.4l0,0c0-0.3,0-0.5,0-0.8c0-0.1,0-0.1,0-0.2c0.2-1.2,0.9-2.1,1.8-2.7
			c0.3-0.3,0.6-0.5,1-0.6c0,0,0,0,0.1,0c2.8-1.4,6.7-1.4,6.7-1.4S413.9,200.2,411.3,203.1 M427.9,188.3c-0.8-4.3-3.4-7.6-17-7.6
			c-13.6,0-16.4,7.6-16.4,7.6l10.6,1.9c0,0,2.6-3.1,6.9-2.8c4.3,0.3,2.6,4.5,2.6,4.5s-16.5-0.8-21.5,4.7c-5,5.5-1.9,16.5,7.4,15.9
			c9.3-0.6,10.8-5.7,10.8-5.7v4.6h13.3C423.7,207.6,428.7,192.6,427.9,188.3"/>
		<path id="path4458" class="st1" d="M428,211.3l5.6-30.7h11.3l-0.8,4.9c0,0,4.4-6.7,13.3-4.9c8.9,1.8,6.3,6,4.5,18
			c-1.8,12-2.2,12.7-2.2,12.7h-12.1c0,0,3.2-17.1,3.3-19.6c0.2-2.5-0.3-4-3.5-3.6c-3.1,0.4-3.8,2.4-4.1,5
			c-0.3,2.6-3.5,18.3-3.5,18.3L428,211.3z"/>
		<path id="path4462" class="st1" d="M462.4,211.3h12.8l5.9-30.4h-12.8L462.4,211.3z"/>
		<path id="path4466" class="st1" d="M470.3,170.7l-1.5,7.5h12.8l1.5-7.5H470.3z"/>
		<path id="path4470" class="st1" d="M500.6,203.1c-1,1-1.8,1.6-2.5,1.9c0,0,0,0,0,0c-0.1,0-0.1,0-0.2,0.1c-1.3,0.5-2.3,0.3-3.1-0.2
			c-1.7-0.8-1.8-2.4-1.8-2.4l0,0c0-0.3,0-0.5,0-0.8c0-0.1,0-0.1,0-0.2c0.2-1.2,0.9-2.1,1.8-2.7c0.3-0.3,0.6-0.5,1-0.6c0,0,0,0,0,0
			c2.8-1.4,6.7-1.4,6.7-1.4S503.2,200.2,500.6,203.1 M517.2,188.3c-0.8-4.3-3.4-7.6-17-7.6c-13.6,0-16.4,7.6-16.4,7.6l10.6,1.9
			c0,0,2.6-3.1,6.9-2.8c4.3,0.3,2.6,4.5,2.6,4.5s-16.5-0.8-21.5,4.7c-5,5.5-1.9,16.5,7.4,15.9c9.3-0.6,10.8-5.7,10.8-5.7v4.6h13.3
			C513,207.6,518,192.6,517.2,188.3"/>
		<path id="path4474" class="st1" d="M172.8,194.5l7.3-13.6l1.9,13.6H172.8z M189.9,170.7h-14.8l-20.2,40.7h10.2l4-8.8h14.1l1.3,8.8
			H197L189.9,170.7z"/>
		<path id="path4478" class="st1" d="M199.1,211.3h12.8l5.9-30.4H205L199.1,211.3z"/>
		<path id="path4482" class="st1" d="M207,170.7l-1.5,7.5h12.8l1.5-7.5H207z"/>
		<path id="path4486" class="st1" d="M215.8,211.3l5.9-30.4h11.6l-1.1,7.5c0,0,3.7-9.3,11.7-7.5l-1.8,10.1c0,0-7.9-1.5-9.6,3.5
			c-1.8,5.1-3.5,16.8-3.5,16.8H215.8z"/>
		<path id="path4490" class="st1" d="M88.9,199.3l3-6h38.5v6H88.9z"/>
		<path id="path4494" class="st1" d="M145,234.2l-1.1-0.8l-0.6,0c-2.4-1.8-19.4-14.7-25.3-34.3c-6.4-21.1-9.5-28.5-9.5-28.5H82
			c0,0-0.2,1.8-1.4,5.6c-1.2,3.8-9.1,15.7-13.9,20.9c-4.8,5.2-13,10.7-13,10.7s9.6,7.2,19.5,4.3c9.9-2.9,18.1-22.6,20.9-31.2
			l3.2,11.7c0,0,4.8,21.9,8.5,28.1c2.6,4.4,7.3,10.5,16.9,12.8C128.9,236,145,234.2,145,234.2"/>
		<path id="path4498" class="st2" d="M81.9,170.8h27l1.4,3.8l-3.9-1.9l-0.5,3.2l-2.6-3.3l-1.6,2.4l-1.5-2.3l-2.5,2.1l-1.9-2.1
			l-2.7,2.1l-2.4-2.5l-1.4,5l-1.1-4.5l-1.9,2.1l-1.4-2.5l-3.3,2.8L81.9,170.8z"/>
		<path id="path4502" class="st1" d="M94.1,179.8l3.5,12.7c0,0.2,4.8,22,8.4,28c2,3.4,8.2,13.6,25,13.6c2,0,4.1-0.1,6.3-0.4l5.4-0.3
			c-3.5-2.6-19.4-15.4-25.1-34.1c-5.8-19.1-8.9-27-9.4-28.3h-26c-0.1,0.6-0.4,2.4-1.4,5.4c-1.3,3.9-9.2,15.9-13.9,21
			c-4.2,4.5-11,9.3-12.7,10.5c1.5,1,7.3,4.7,14.1,4.7c1.7,0,3.3-0.2,4.8-0.7c9.2-2.7,17.3-20.7,20.7-31L94.1,179.8z M131.1,234.8
			c-17.2,0-23.5-10.5-25.6-13.9c-3.7-6.2-8.3-27.3-8.5-28.2L94.1,182c-3.6,10.5-11.6,27.7-20.8,30.4c-1.6,0.5-3.3,0.7-5,0.7
			c-8,0-14.7-5-14.8-5l-0.3-0.3l0.4-0.2c0.1-0.1,8.3-5.5,13-10.6c4.7-5.1,12.5-16.9,13.8-20.8c1.2-3.7,1.4-5.5,1.4-5.5l0-0.3h27
			l0.1,0.2c0,0.1,3.2,7.6,9.5,28.5c6.3,20.8,25.3,34.2,25.5,34.3l0.7,0.5l-7.1,0.5C135.2,234.6,133.1,234.8,131.1,234.8"/>
		<path id="path4506" class="st0" d="M69.7,182.1c0,0-38.9,31-23.4,42.4c15.4,11.5,54.6-4.6,54.6-4.6S69.5,235,49.5,232.6
			c-20.1-2.5-13.3-15.6-11.2-20.4c2.1-4.8,11.4-15.6,23.6-24.5C74,178.8,69.7,182.1,69.7,182.1"/>
		<path id="path4510" class="st0" d="M130.6,160.6c-0.9,0.2-1.8,0.3-2.7,0.5c-0.5,0.1-1.1,0.2-1.8,0.4c-12.1,2.6-22.5,6.9-22.5,6.9
			s70.5-17.7,36.6,26.1l-13.6,15c0,0,22.7-15.6,29-31C161.8,163.2,150.4,158.2,130.6,160.6"/>
	</g>
</g>
</svg>
