<?xml version="1.0" encoding="utf-8"?>
<!-- Generator: Adobe Illustrator 25.4.1, SVG Export Plug-In . SVG Version: 6.00 Build 0)  -->
<svg version="1.1" id="Layer_1" xmlns="http://www.w3.org/2000/svg" xmlns:xlink="http://www.w3.org/1999/xlink" x="0px" y="0px"
	 viewBox="0 0 64 80" style="enable-background:new 0 0 64 80;" xml:space="preserve">
<g>
	<path d="M10.2,80c-0.1,0-0.2,0-0.3-0.1c-0.4-0.2-9.1-5.3-9.9-15.3c-0.7-9.5,4.4-18.9,6-21.5c0.9-1.5,9-12.6,15.7-17.9
		c0.4-0.3,0.9-0.7,1.3-1.1c6.3-5,15.8-12.6,25.4-14.7C58.9,7,62.3,9.8,63.8,11.1c0.2,0.2,0.3,0.5,0.1,0.8s-0.5,0.3-0.8,0.1
		c-1.6-1.3-4.5-3.7-14.4-1.5C39.3,12.6,30,20,23.7,25c-0.5,0.4-0.9,0.7-1.4,1.1C16.3,30.9,8.2,41.7,7,43.6
		c-1.5,2.6-6.5,11.7-5.9,20.9C1.8,74,10.4,79,10.4,79c0.3,0.1,0.3,0.5,0.2,0.7C10.5,79.9,10.4,80,10.2,80z"/>
</g>
<g>
	<path d="M11.1,47.9c-0.1,0-0.2,0-0.3-0.1c-0.3-0.2-0.3-0.5-0.2-0.7c0.1-0.1,8-13,20.5-18.9c0.3-0.1,0.6,0,0.7,0.3
		c0.1,0.3,0,0.6-0.3,0.7c-12.1,5.8-19.9,18.4-20,18.5C11.4,47.8,11.2,47.9,11.1,47.9z"/>
</g>
<g>
	<path d="M18.4,79.7c-5.2,0-9.4-4.9-9.4-4.9c-0.2-0.2-0.2-0.6,0.1-0.8c0.2-0.2,0.6-0.2,0.8,0.1c0.1,0.1,5.6,6.6,11.6,3.9
		c0.3-0.1,0.6,0,0.7,0.3c0.1,0.3,0,0.6-0.3,0.7C20.7,79.5,19.5,79.7,18.4,79.7z"/>
</g>
<g>
	<path d="M41,10.2c-0.1,0-0.1,0-0.2,0c-2.3-0.9-3.5-2.1-3.4-3.5c0-3.4,7.6-6.3,8.4-6.7c0.3-0.1,0.6,0,0.7,0.3c0.1,0.3,0,0.6-0.3,0.7
		c-3,1.1-7.7,3.7-7.7,5.7c0,1.1,1.5,2,2.8,2.5c0.3,0.1,0.4,0.4,0.3,0.7C41.4,10.1,41.2,10.2,41,10.2z"/>
</g>
<g>
	<path d="M43.9,4.7c-0.3,0-0.5-0.2-0.5-0.5c0-0.3,0.2-0.6,0.5-0.6c0.2,0,3.9-0.4,5.4-0.4c0.3,0,0.5,0.3,0.5,0.6
		c0,0.3-0.2,0.5-0.6,0.5C47.7,4.3,44,4.7,43.9,4.7C43.9,4.7,43.9,4.7,43.9,4.7z"/>
</g>
<g>
	<path d="M51.9,20c-3.2,0-6-1.7-6.2-1.8c-0.2-0.2-0.3-0.5-0.2-0.7c0.2-0.2,0.5-0.3,0.7-0.2c0,0,3.6,2.2,7.1,1.5
		c3.5-0.7,6.4-2.7,7.6-4.2c0.2-0.2,0.5-0.3,0.7-0.1c0.2,0.2,0.3,0.5,0.1,0.7c-1.3,1.7-4.4,3.8-8.2,4.6C53,19.9,52.4,20,51.9,20z"/>
</g>
<g>
	<path d="M47.4,28.5c-0.8,0-1.5-0.1-2-0.4c-2.8-1.4-0.8-5.9-0.8-6.1c0.1-0.3,0.4-0.4,0.7-0.3c0.3,0.1,0.4,0.4,0.3,0.7
		c0,0-1.6,3.8,0.3,4.7c1.8,0.9,7.1-0.7,9-1.4c0.3-0.1,0.6,0,0.7,0.3c0.1,0.3,0,0.6-0.3,0.7C54.6,27,50.4,28.5,47.4,28.5z"/>
</g>
<g>
	<path d="M49.7,26.3c-0.2,0-0.4-0.1-0.5-0.3c-0.1-0.3,0-0.6,0.3-0.7c1.2-0.5,4.5-2.2,5.3-3.6c0.1-0.3,0.5-0.4,0.7-0.2
		c0.3,0.1,0.4,0.5,0.2,0.7c-1.1,1.9-5.3,3.8-5.8,4C49.8,26.3,49.7,26.3,49.7,26.3z"/>
</g>
<g>
	<path d="M18.2,26.3c-0.1,0-0.3-0.1-0.4-0.2c-0.2-0.2-0.2-0.5,0-0.8c0,0,2.8-2.8,1.2-4.5c-1.4-1.4-5,0.2-6.3,1
		c-0.3,0.1-0.6,0.1-0.7-0.2c-0.1-0.3-0.1-0.6,0.2-0.7c0.2-0.1,5.4-3.1,7.6-0.8c0.7,0.7,1.3,2,0.2,4c-0.6,1.1-1.4,1.9-1.5,2
		C18.5,26.2,18.4,26.3,18.2,26.3z"/>
</g>
<g>
	<path d="M12,19.7c-0.1,0-0.2,0-0.3-0.1c-0.2-0.2-0.3-0.5-0.1-0.8c0,0,2.8-3.4,3.4-5.1c0.1-0.3,0.4-0.4,0.7-0.3
		c0.3,0.1,0.4,0.4,0.3,0.7c-0.7,1.8-3.5,5.2-3.6,5.4C12.3,19.6,12.1,19.7,12,19.7z"/>
</g>
<g>
	<path d="M10.1,24.9c-1.1,0-2.2-0.3-2.9-1.3c-0.7-1-0.3-2.6,1.2-4.8c1-1.5,2.2-2.8,2.3-2.8c0.2-0.2,0.5-0.2,0.8,0
		c0.2,0.2,0.2,0.5,0,0.8c-1.8,2-4.1,5.2-3.4,6.3c0.9,1.3,3.6,0.7,4.5,0.3c0.3-0.1,0.6,0,0.7,0.3c0.1,0.3,0,0.6-0.3,0.7
		C12.9,24.4,11.5,24.9,10.1,24.9z"/>
</g>
</svg>
