<?xml version="1.0" encoding="utf-8"?>
<!-- Generator: Adobe Illustrator 25.4.1, SVG Export Plug-In . SVG Version: 6.00 Build 0)  -->
<svg version="1.1" id="Layer_1" xmlns="http://www.w3.org/2000/svg" xmlns:xlink="http://www.w3.org/1999/xlink" x="0px" y="0px"
	 viewBox="0 0 316.23 80" style="enable-background:new 0 0 316.23 80;" xml:space="preserve">
<style type="text/css">
	.st0{clip-path:url(#SVGID_00000172428293235715606330000012594045673073333690_);}
	.st1{clip-path:url(#SVGID_00000165201210406550820680000010058816180401321884_);}
	.st2{fill:#B2B2B2;}
	.st3{fill:#008DB6;}
	.st4{fill:#94C11F;}
	.st5{fill:#5588C7;}
	.st6{fill:#F39200;}
	.st7{fill:#00AAD2;}
	.st8{fill:#9F043E;}
	.st9{fill:#FFD500;}
	.st10{fill:#00528D;}
</style>
<g id="Clip-9">
</g>
<g id="Clip-2">
</g>
<g>
	<g id="g2542">
		<g>
			<g>
				<defs>
					<path id="SVGID_1_" d="M298.04,0c-6.32,0-10.32,2.91-15.18,8.89l0,0l-50.51,62.22C225.14,80,222.7,80,222.7,80l0,0h71.89
						l21.65-80H298.04z"/>
				</defs>
				<clipPath id="SVGID_00000059295184512847140160000015189116613512238757_">
					<use xlink:href="#SVGID_1_"  style="overflow:visible;"/>
				</clipPath>
				<g id="g2548" style="clip-path:url(#SVGID_00000059295184512847140160000015189116613512238757_);">
					<g>
						<g>
							<defs>
								<rect id="SVGID_00000115495744777501464060000012743961601132064158_" width="316.23" height="80"/>
							</defs>
							<clipPath id="SVGID_00000017482966873919113120000004527254799385066903_">
								<use xlink:href="#SVGID_00000115495744777501464060000012743961601132064158_"  style="overflow:visible;"/>
							</clipPath>
							<g id="g2554" style="clip-path:url(#SVGID_00000017482966873919113120000004527254799385066903_);">
								<path id="path2560" class="st2" d="M316.23,80H222.7v-8.89h93.53L316.23,80L316.23,80z"/>
								<path id="path2562" class="st3" d="M316.23,71.11H222.7v-8.89h93.53L316.23,71.11L316.23,71.11z"/>
								<path id="path2564" class="st4" d="M316.23,62.22H222.7v-8.89h93.53L316.23,62.22L316.23,62.22z"/>
								<path id="path2566" class="st5" d="M316.23,53.33H222.7v-8.89h93.53L316.23,53.33L316.23,53.33z"/>
								<path id="path2568" class="st6" d="M316.23,44.45H222.7v-8.89h93.53L316.23,44.45L316.23,44.45z"/>
								<path id="path2570" class="st7" d="M316.23,35.55H222.7v-8.89h93.53L316.23,35.55L316.23,35.55z"/>
								<path id="path2572" class="st8" d="M316.23,26.67H222.7v-8.89h93.53L316.23,26.67L316.23,26.67z"/>
								<path id="path2574" class="st9" d="M316.23,17.78H222.7V8.89h93.53L316.23,17.78L316.23,17.78z"/>
								<path id="path2576" class="st10" d="M316.23,8.89H222.7V0h93.53L316.23,8.89L316.23,8.89z"/>
							</g>
						</g>
					</g>
				</g>
			</g>
		</g>
	</g>
	<g id="g2586">
		<path id="path2592" class="st2" d="M56.48,31.85c-1.14,4.17-4.9,7.5-8.65,7.5H27.49l4.4-15.84h19.56
			C55.55,23.51,57.74,27.24,56.48,31.85 M51.94,59.1c-1.1,3.87-5.27,7.01-9.13,7.01H20.06l4.15-14.94h22.27
			C50.72,51.17,53.17,54.77,51.94,59.1 M62.99,44.6c8.27-3.63,11.89-8.96,12.54-17.17C76.4,16.38,67.32,8.89,55.91,8.89H19.24L0,80
			h45.88c10.62,0,21.54-8.42,24.36-18.72C72.4,53.33,69.88,47.45,62.99,44.6 M122.91,57.22c13.53-0.91,23.95-9.59,26.15-24.41
			c2.01-13.55-9.31-23.92-24.46-23.92H90.5L71.26,80h16.53l15.36-56.18h21.06c4.92,0,10.21,4.47,8.7,10
			c-1.37,5-6.61,8.99-11.11,8.99h-13.75c-3.4,0-6.15,2.8-6.15,6.19c0,0.85,0.17,1.66,0.48,2.39L117.6,80h17.22l-12.37-22.75
			C122.6,57.24,122.76,57.24,122.91,57.22 M174.15,51.34L190.4,26.6l2.98,24.74H174.15z M205.06,19c-0.84-5.71-4.87-9.45-9.56-9.99
			c-4.72-0.56-9.81,0.73-15.07,8.46L137.67,80h17.66l10.7-16.29h28.84L196.83,80h16.96L205.06,19z"/>
	</g>
</g>
</svg>
