<?xml version="1.0" encoding="utf-8"?>
<!-- Generator: Adobe Illustrator 25.4.1, SVG Export Plug-In . SVG Version: 6.00 Build 0)  -->
<svg version="1.1" xmlns="http://www.w3.org/2000/svg" xmlns:xlink="http://www.w3.org/1999/xlink" x="0px" y="0px"
	 viewBox="0 0 85.28 80" style="enable-background:new 0 0 85.28 80;" xml:space="preserve">
<style type="text/css">
	.st0{fill:#F5C300;}
	.st1{fill:#370E62;}
	.st2{fill:#B6007D;}
</style>
<g id="Layer_2">
</g>
<g id="Layer_1">
	<path class="st0" d="M83.3,49.73c-0.71-1.67-1.75-3.18-2.78-4.53c-1.03-1.35-2.38-2.54-3.65-3.49c-0.71-0.48-1.43-0.87-2.22-1.27
		c-0.4-0.24-0.79-0.4-1.19-0.56c0.4-0.24,0.79-0.4,1.19-0.64c0.71-0.32,1.43-0.79,2.22-1.27c1.27-0.95,2.62-2.14,3.65-3.49
		c1.03-1.27,2.06-2.86,2.78-4.53c0.71-1.75,1.27-3.49,1.67-5.4c0.16-1.27,0.32-2.62,0.32-3.81c0-0.56-0.08-1.19-0.08-1.83
		c-0.16-1.59-0.48-3.1-1.03-4.68c-0.48-1.59-1.19-3.02-2.06-4.37c-0.87-1.35-1.99-2.7-3.1-3.81c-1.19-1.19-2.62-2.22-3.97-3.1
		c-1.59-0.87-3.18-1.67-4.92-2.14c-1.83-0.48-3.65-0.79-5.56-0.79c-1.91-0.08-3.73,0.08-5.48,0.48s-3.33,1.03-4.84,1.91
		c-1.59,0.79-2.86,1.83-4.05,2.94c-1.11,1.11-2.14,2.46-2.94,3.89c-0.71,1.51-1.27,3.02-1.59,4.68c-0.16,0.87-0.24,1.75-0.24,2.62
		c0,0.71,0.08,1.35,0.16,2.14c-1.59-0.87-3.1-1.67-4.68-2.22c-1.99-0.56-4.05-0.95-6.35-1.03c-2.14,0-4.13,0.16-6.03,0.64
		c-1.83,0.4-3.49,1.03-5.16,1.99c-1.59,0.79-3.02,1.83-4.37,2.94c-0.95,0.71-1.91,1.67-2.78,2.54c0,0-1.35,1.27-2.06,2.14
		c-0.71,0.87-1.43,1.83-2.3,2.86l-1.75,2.22c-0.48,0.64-0.95,1.19-1.51,1.83c-0.71,0.79-1.51,1.67-2.3,2.46
		c-1.27,1.27-2.7,2.54-4.29,3.49c-0.24,0.24-0.56,0.48-0.95,0.64c-0.16,0.16-0.4,0.24-0.64,0.4C0.24,39.64,0,39.8,0,40.04
		s0.24,0.32,0.4,0.48c0.24,0.08,0.48,0.16,0.64,0.32c0.4,0.24,0.71,0.4,0.95,0.64c1.67,0.95,3.02,2.22,4.29,3.49
		c0.79,0.79,1.59,1.67,2.3,2.46c0.48,0.56,0.95,1.11,1.51,1.83l1.75,2.22c0.79,1.03,1.59,2.06,2.3,2.86
		c0.64,0.79,2.06,2.14,2.06,2.14c0.87,0.95,1.83,1.83,2.78,2.54c1.35,1.11,2.86,2.22,4.37,2.94c1.67,0.87,3.33,1.59,5.16,1.99
		c1.91,0.48,3.89,0.64,6.03,0.64c2.3-0.08,4.37-0.4,6.35-1.03c1.59-0.48,3.1-1.27,4.68-2.22c-0.08,0.71-0.16,1.35-0.16,2.14
		c0,0.87,0.08,1.75,0.24,2.62c0.24,1.67,0.79,3.18,1.59,4.68s1.83,2.78,2.94,3.89c1.19,1.11,2.54,2.22,4.05,2.94
		c1.51,0.79,3.1,1.51,4.84,1.91c1.75,0.4,3.57,0.56,5.48,0.48c1.91,0,3.73-0.32,5.56-0.79c1.75-0.56,3.33-1.19,4.92-2.14
		c1.35-0.87,2.78-1.91,3.97-3.1c1.11-1.11,2.22-2.46,3.1-3.81c0.79-1.35,1.59-2.86,2.06-4.37c0.56-1.59,0.87-3.1,1.03-4.68
		c0-0.56,0.08-1.19,0.08-1.83c0-1.19-0.16-2.54-0.32-3.81C84.65,53.22,84.09,51.47,83.3,49.73"/>
	<path class="st1" d="M78.69,51.55c-0.64-1.51-1.59-2.78-2.62-3.97c-0.95-1.11-2.3-2.22-3.57-3.02c-1.35-0.79-2.86-1.51-4.29-1.91
		c-1.67-0.48-3.26-0.71-4.92-0.71c-1.83,0-3.57,0.16-5.32,0.64c-1.35,0.32-2.78,0.79-4.05,1.43c-1.19,0.56-2.3,1.19-3.33,2.06
		c-1.03,0.71-1.99,1.51-2.94,2.22c-0.87,0.71-1.83,1.51-2.78,2.06c-0.95,0.64-2.06,1.11-3.1,1.59c-1.11,0.32-2.38,0.56-3.65,0.56
		c-1.67,0-3.33-0.32-4.92-0.95c-1.51-0.64-2.86-1.67-3.97-2.78c-1.11-1.11-2.06-2.62-2.7-4.05c-0.56-1.59-0.79-3.18-0.79-4.76
		c0-1.67,0.24-3.26,0.79-4.84c0.64-1.51,1.59-2.86,2.7-4.05c1.11-1.11,2.54-2.14,3.97-2.78c1.59-0.64,3.26-0.95,4.92-0.95
		c1.27,0,2.54,0.24,3.65,0.56c1.03,0.4,2.14,0.87,3.1,1.59c0.95,0.64,1.91,1.27,2.78,2.06c0.95,0.71,1.91,1.59,2.94,2.22
		c1.03,0.79,2.14,1.51,3.33,2.06c1.27,0.64,2.7,1.19,4.05,1.59c1.75,0.4,3.49,0.56,5.32,0.56c1.67,0,3.26-0.24,4.92-0.71
		c1.51-0.4,2.94-1.03,4.29-1.91c1.27-0.79,2.62-1.91,3.57-3.02c1.03-1.19,1.99-2.54,2.62-3.97c0.64-1.59,1.11-3.18,1.27-4.84
		c0.24-1.83,0.16-3.57-0.16-5.4c-0.32-1.67-0.87-3.18-1.75-4.76c-0.71-1.35-1.75-2.7-2.86-3.81c-1.11-1.03-2.46-2.06-3.81-2.78
		c-1.43-0.71-2.94-1.27-4.53-1.59c-1.75-0.32-3.33-0.48-5.08-0.24c-1.67,0.16-3.18,0.64-4.68,1.35c-1.35,0.71-2.7,1.67-3.73,2.78
		c-1.03,1.11-1.91,2.46-2.54,3.89c-0.56,1.35-0.95,2.94-1.03,4.53c-0.08,1.75,0.16,3.33,0.64,4.92c0,0.24,0.08,0.4,0.16,0.64
		c0,0.08,0.08,0.16,0.08,0.24c0.08,0.16,0.08,0.24,0.16,0.4c0,0,0.08,0.08,0.16,0.08c0.16,0,0.16-0.08,0.16-0.16
		c0.08-0.24,0.08-0.48,0.08-0.71c0.08-0.79,0.32-1.67,0.64-2.46c0.56-1.35,1.59-2.62,2.86-3.49c1.27-0.79,2.86-1.27,4.37-1.35
		c1.67-0.08,3.33,0.16,4.84,0.95c1.35,0.64,2.54,1.83,3.26,3.1c0.71,1.27,1.03,2.94,1.03,4.53c0,1.67-0.48,3.18-1.27,4.61
		c-0.79,1.35-2.06,2.54-3.49,3.18c-1.35,0.71-3.1,1.03-4.68,0.87c-1.11-0.16-2.22-0.48-3.18-0.87c-1.03-0.56-2.06-1.11-2.94-1.91
		c-0.95-0.71-1.99-1.59-2.86-2.38c-0.95-0.79-2.06-1.75-3.02-2.46c-1.11-0.87-2.3-1.67-3.41-2.3c-1.27-0.71-2.7-1.27-4.05-1.75
		c-1.67-0.4-3.26-0.64-4.92-0.64c-1.75,0-3.41,0.08-5.08,0.48c-1.35,0.32-2.78,0.79-4.05,1.59c-1.11,0.56-2.3,1.35-3.26,2.22
		c-1.03,0.87-1.99,1.83-2.86,2.78c-0.87,0.95-1.75,2.06-2.54,3.1c-0.71,0.95-1.59,2.06-2.38,3.02c-0.79,0.95-1.75,1.99-2.62,2.86
		c-0.87,0.95-1.91,1.83-2.94,2.46c-0.24,0.16-0.4,0.32-0.64,0.4c-0.16,0.16-0.32,0.16-0.48,0.24c-0.08,0.08-0.24,0.24-0.24,0.4
		c0,0.08,0.16,0.24,0.24,0.32l0.48,0.24c0.24,0.08,0.4,0.24,0.64,0.4c1.03,0.64,2.06,1.59,2.94,2.46c0.87,0.87,1.83,1.91,2.62,2.86
		c0.79,0.95,1.67,2.06,2.38,3.1c0.79,0.95,1.67,2.06,2.54,3.02c0.87,0.95,1.83,1.91,2.86,2.78c0.95,0.79,2.14,1.67,3.26,2.22
		c1.27,0.71,2.7,1.19,4.05,1.59c1.67,0.4,3.33,0.56,5.08,0.48c1.67,0,3.26-0.24,4.92-0.64c1.35-0.4,2.78-0.95,4.05-1.75
		c1.11-0.64,2.3-1.35,3.41-2.3c0.95-0.71,2.06-1.67,3.02-2.46c0.87-0.79,1.91-1.67,2.86-2.38c0.87-0.71,1.91-1.27,2.94-1.83
		c0.95-0.48,2.06-0.79,3.18-0.87c1.59-0.16,3.26,0.08,4.68,0.79c1.51,0.64,2.7,1.83,3.49,3.18s1.27,2.94,1.27,4.61
		c0,1.59-0.32,3.18-1.03,4.61c-0.71,1.27-1.91,2.38-3.26,3.02c-1.51,0.79-3.18,1.03-4.84,0.95c-1.59-0.08-3.1-0.56-4.37-1.35
		c-1.27-0.87-2.3-2.14-2.86-3.49c-0.32-0.79-0.56-1.67-0.64-2.46c0-0.24,0-0.48-0.08-0.71c0,0,0-0.16-0.16-0.16
		c-0.08,0-0.16,0.08-0.16,0.16c-0.08,0.08-0.08,0.16-0.16,0.32c0,0.08-0.08,0.16-0.08,0.24c-0.08,0.24-0.16,0.4-0.16,0.64
		c-0.48,1.59-0.71,3.18-0.64,4.92c0.08,1.59,0.48,3.1,1.03,4.53c0.64,1.43,1.43,2.78,2.54,3.81c1.03,1.19,2.38,2.14,3.73,2.86
		c1.51,0.71,3.02,1.19,4.68,1.35c1.75,0.24,3.33,0.16,5.08-0.24c1.59-0.24,3.02-0.79,4.53-1.59c1.35-0.71,2.7-1.75,3.81-2.78
		c1.11-1.11,2.14-2.46,2.86-3.81c0.79-1.59,1.35-3.1,1.75-4.84c0.32-1.75,0.4-3.49,0.16-5.32C79.8,54.73,79.33,53.06,78.69,51.55"/>
	<path class="st2" d="M54.95,39.88c0-0.08,0-0.16-0.08-0.16c-1.99-0.48-3.73-1.59-5.4-2.78c-1.75-1.19-3.33-2.62-5.16-3.81
		c-1.75-1.11-3.65-2.22-5.8-2.3c-1.75-0.16-3.41,0.24-4.92,1.03c-1.35,0.71-2.54,1.91-3.26,3.26c-0.79,1.35-1.19,3.02-1.19,4.68
		v0.08c0,1.67,0.4,3.26,1.19,4.68c0.71,1.35,1.91,2.54,3.26,3.26c1.51,0.79,3.18,1.19,4.92,1.11c2.14-0.16,4.05-1.19,5.8-2.38
		c1.83-1.19,3.41-2.62,5.16-3.81c1.67-1.19,3.41-2.3,5.4-2.78C54.95,39.96,54.95,39.88,54.95,39.88"/>
</g>
</svg>
