<?xml version="1.0" encoding="utf-8"?>
<!-- Generator: Adobe Illustrator 25.4.1, SVG Export Plug-In . SVG Version: 6.00 Build 0)  -->
<svg version="1.1" xmlns="http://www.w3.org/2000/svg" xmlns:xlink="http://www.w3.org/1999/xlink" x="0px" y="0px"
	 viewBox="0 0 271.4 80" style="enable-background:new 0 0 271.4 80;" xml:space="preserve">
<style type="text/css">
	.st0{fill:#F5C300;}
	.st1{fill:#370E62;}
	.st2{fill:#B6007D;}
</style>
<g id="Layer_2">
</g>
<g id="Layer_1">
	<g transform="matrix(1.05325 0 0 1.05325 -169.105 515.606)">
		<path class="st0" d="M239.64-442.33c-0.68-1.58-1.66-3.02-2.64-4.3c-0.98-1.28-2.26-2.41-3.47-3.32
			c-0.68-0.45-1.36-0.83-2.11-1.21c-0.38-0.23-0.75-0.38-1.13-0.53c0.38-0.23,0.75-0.38,1.13-0.6c0.68-0.3,1.36-0.75,2.11-1.21
			c1.21-0.9,2.49-2.04,3.47-3.32c0.98-1.21,1.96-2.71,2.64-4.3c0.68-1.66,1.21-3.32,1.58-5.13c0.15-1.21,0.3-2.49,0.3-3.62
			c0-0.53-0.08-1.13-0.08-1.73c-0.15-1.51-0.45-2.94-0.98-4.45c-0.45-1.51-1.13-2.86-1.96-4.15c-0.83-1.28-1.88-2.56-2.94-3.62
			c-1.13-1.13-2.49-2.11-3.77-2.94c-1.51-0.83-3.02-1.58-4.67-2.04c-1.73-0.45-3.47-0.75-5.28-0.75c-1.81-0.08-3.54,0.08-5.2,0.45
			s-3.17,0.98-4.6,1.81c-1.51,0.75-2.71,1.73-3.84,2.79c-1.06,1.06-2.04,2.34-2.79,3.69c-0.68,1.43-1.21,2.86-1.51,4.45
			c-0.15,0.83-0.23,1.66-0.23,2.49c0,0.68,0.08,1.28,0.15,2.04c-1.51-0.83-2.94-1.58-4.45-2.11c-1.88-0.53-3.84-0.9-6.03-0.98
			c-2.04,0-3.92,0.15-5.73,0.6c-1.73,0.38-3.32,0.98-4.9,1.88c-1.51,0.75-2.86,1.73-4.15,2.79c-0.9,0.68-1.81,1.58-2.64,2.41
			c0,0-1.28,1.21-1.96,2.04c-0.68,0.83-1.36,1.73-2.19,2.71l-1.66,2.11c-0.45,0.6-0.9,1.13-1.43,1.73
			c-0.68,0.75-1.43,1.58-2.19,2.34c-1.21,1.21-2.56,2.41-4.07,3.32c-0.23,0.23-0.53,0.45-0.9,0.6c-0.15,0.15-0.38,0.23-0.6,0.38
			c-0.15,0.08-0.38,0.23-0.38,0.45c0,0.23,0.23,0.3,0.38,0.45c0.23,0.08,0.45,0.15,0.6,0.3c0.38,0.23,0.68,0.38,0.9,0.6
			c1.58,0.9,2.86,2.11,4.07,3.32c0.75,0.75,1.51,1.58,2.19,2.34c0.45,0.53,0.9,1.06,1.43,1.73l1.66,2.11
			c0.75,0.98,1.51,1.96,2.19,2.71c0.6,0.75,1.96,2.04,1.96,2.04c0.83,0.9,1.73,1.73,2.64,2.41c1.28,1.06,2.71,2.11,4.15,2.79
			c1.58,0.83,3.17,1.51,4.9,1.88c1.81,0.45,3.69,0.6,5.73,0.6c2.19-0.08,4.15-0.38,6.03-0.98c1.51-0.45,2.94-1.21,4.45-2.11
			c-0.08,0.68-0.15,1.28-0.15,2.04c0,0.83,0.08,1.66,0.23,2.49c0.23,1.58,0.75,3.02,1.51,4.45c0.75,1.43,1.73,2.64,2.79,3.69
			c1.13,1.06,2.41,2.11,3.84,2.79c1.43,0.75,2.94,1.43,4.6,1.81s3.39,0.53,5.2,0.45c1.81,0,3.54-0.3,5.28-0.75
			c1.66-0.53,3.17-1.13,4.67-2.04c1.28-0.83,2.64-1.81,3.77-2.94c1.06-1.06,2.11-2.34,2.94-3.62c0.75-1.28,1.51-2.71,1.96-4.15
			c0.53-1.51,0.83-2.94,0.98-4.45c0-0.53,0.08-1.13,0.08-1.73c0-1.13-0.15-2.41-0.3-3.62C240.92-439.01,240.39-440.67,239.64-442.33
			"/>
		<path class="st1" d="M235.27-440.59c-0.6-1.43-1.51-2.64-2.49-3.77c-0.9-1.06-2.19-2.11-3.39-2.86c-1.28-0.75-2.71-1.43-4.07-1.81
			c-1.58-0.45-3.09-0.68-4.67-0.68c-1.73,0-3.39,0.15-5.05,0.6c-1.28,0.3-2.64,0.75-3.84,1.36c-1.13,0.53-2.19,1.13-3.17,1.96
			c-0.98,0.68-1.88,1.43-2.79,2.11c-0.83,0.68-1.73,1.43-2.64,1.96c-0.9,0.6-1.96,1.06-2.94,1.51c-1.06,0.3-2.26,0.53-3.47,0.53
			c-1.58,0-3.17-0.3-4.67-0.9c-1.43-0.6-2.71-1.58-3.77-2.64c-1.06-1.06-1.96-2.49-2.56-3.84c-0.53-1.51-0.75-3.02-0.75-4.52
			c0-1.58,0.23-3.09,0.75-4.6c0.6-1.43,1.51-2.71,2.56-3.84c1.06-1.06,2.41-2.04,3.77-2.64c1.51-0.6,3.09-0.9,4.67-0.9
			c1.21,0,2.41,0.23,3.47,0.53c0.98,0.38,2.04,0.83,2.94,1.51c0.9,0.6,1.81,1.21,2.64,1.96c0.9,0.68,1.81,1.51,2.79,2.11
			c0.98,0.75,2.04,1.43,3.17,1.96c1.21,0.6,2.56,1.13,3.84,1.51c1.66,0.38,3.32,0.53,5.05,0.53c1.58,0,3.09-0.23,4.67-0.68
			c1.43-0.38,2.79-0.98,4.07-1.81c1.21-0.75,2.49-1.81,3.39-2.86c0.98-1.13,1.88-2.41,2.49-3.77c0.6-1.51,1.06-3.02,1.21-4.6
			c0.23-1.73,0.15-3.39-0.15-5.13c-0.3-1.58-0.83-3.02-1.66-4.52c-0.68-1.28-1.66-2.56-2.71-3.62c-1.06-0.98-2.34-1.96-3.62-2.64
			c-1.36-0.68-2.79-1.21-4.3-1.51c-1.66-0.3-3.17-0.45-4.82-0.23c-1.58,0.15-3.02,0.6-4.45,1.28c-1.28,0.68-2.56,1.58-3.54,2.64
			s-1.81,2.34-2.41,3.69c-0.53,1.28-0.9,2.79-0.98,4.3c-0.08,1.66,0.15,3.17,0.6,4.67c0,0.23,0.08,0.38,0.15,0.6
			c0,0.08,0.08,0.15,0.08,0.23c0.08,0.15,0.08,0.23,0.15,0.38c0,0,0.08,0.08,0.15,0.08c0.15,0,0.15-0.08,0.15-0.15
			c0.08-0.23,0.08-0.45,0.08-0.68c0.08-0.75,0.3-1.58,0.6-2.34c0.53-1.28,1.51-2.49,2.71-3.32c1.21-0.75,2.71-1.21,4.15-1.28
			c1.58-0.08,3.17,0.15,4.6,0.9c1.28,0.6,2.41,1.73,3.09,2.94c0.68,1.21,0.98,2.79,0.98,4.3c0,1.58-0.45,3.02-1.21,4.37
			c-0.75,1.28-1.96,2.41-3.32,3.02c-1.28,0.68-2.94,0.98-4.45,0.83c-1.06-0.15-2.11-0.45-3.02-0.83c-0.98-0.53-1.96-1.06-2.79-1.81
			c-0.9-0.68-1.88-1.51-2.71-2.26c-0.9-0.75-1.96-1.66-2.86-2.34c-1.06-0.83-2.19-1.58-3.24-2.19c-1.21-0.68-2.56-1.21-3.84-1.66
			c-1.58-0.38-3.09-0.6-4.67-0.6c-1.66,0-3.24,0.08-4.82,0.45c-1.28,0.3-2.64,0.75-3.84,1.51c-1.06,0.53-2.19,1.28-3.09,2.11
			c-0.98,0.83-1.88,1.73-2.71,2.64s-1.66,1.96-2.41,2.94c-0.68,0.9-1.51,1.96-2.26,2.86c-0.75,0.9-1.66,1.88-2.49,2.71
			c-0.83,0.9-1.81,1.73-2.79,2.34c-0.23,0.15-0.38,0.3-0.6,0.38c-0.15,0.15-0.3,0.15-0.45,0.23c-0.08,0.08-0.23,0.23-0.23,0.38
			c0,0.08,0.15,0.23,0.23,0.3l0.45,0.23c0.23,0.08,0.38,0.23,0.6,0.38c0.98,0.6,1.96,1.51,2.79,2.34c0.83,0.83,1.73,1.81,2.49,2.71
			c0.75,0.9,1.58,1.96,2.26,2.94c0.75,0.9,1.58,1.96,2.41,2.86s1.73,1.81,2.71,2.64c0.9,0.75,2.04,1.58,3.09,2.11
			c1.21,0.68,2.56,1.13,3.84,1.51c1.58,0.38,3.17,0.53,4.82,0.45c1.58,0,3.09-0.23,4.67-0.6c1.28-0.38,2.64-0.9,3.84-1.66
			c1.06-0.6,2.19-1.28,3.24-2.19c0.9-0.68,1.96-1.58,2.86-2.34c0.83-0.75,1.81-1.58,2.71-2.26c0.83-0.68,1.81-1.21,2.79-1.73
			c0.9-0.45,1.96-0.75,3.02-0.83c1.51-0.15,3.09,0.08,4.45,0.75c1.43,0.6,2.56,1.73,3.32,3.02c0.75,1.28,1.21,2.79,1.21,4.37
			c0,1.51-0.3,3.02-0.98,4.37c-0.68,1.21-1.81,2.26-3.09,2.86c-1.43,0.75-3.02,0.98-4.6,0.9c-1.51-0.08-2.94-0.53-4.15-1.28
			c-1.21-0.83-2.19-2.04-2.71-3.32c-0.3-0.75-0.53-1.58-0.6-2.34c0-0.23,0-0.45-0.08-0.68c0,0,0-0.15-0.15-0.15
			c-0.08,0-0.15,0.08-0.15,0.15c-0.08,0.08-0.08,0.15-0.15,0.3c0,0.08-0.08,0.15-0.08,0.23c-0.08,0.23-0.15,0.38-0.15,0.6
			c-0.45,1.51-0.68,3.02-0.6,4.67c0.08,1.51,0.45,2.94,0.98,4.3c0.6,1.36,1.36,2.64,2.41,3.62c0.98,1.13,2.26,2.04,3.54,2.71
			c1.43,0.68,2.86,1.13,4.45,1.28c1.66,0.23,3.17,0.15,4.82-0.23c1.51-0.23,2.86-0.75,4.3-1.51c1.28-0.68,2.56-1.66,3.62-2.64
			c1.06-1.06,2.04-2.34,2.71-3.62c0.75-1.51,1.28-2.94,1.66-4.6c0.3-1.66,0.38-3.32,0.15-5.05
			C236.32-437.58,235.87-439.16,235.27-440.59"/>
		<path class="st2" d="M212.73-451.67c0-0.08,0-0.15-0.08-0.15c-1.88-0.45-3.54-1.51-5.13-2.64c-1.66-1.13-3.17-2.49-4.9-3.62
			c-1.66-1.06-3.47-2.11-5.5-2.19c-1.66-0.15-3.24,0.23-4.67,0.98c-1.28,0.68-2.41,1.81-3.09,3.09c-0.75,1.28-1.13,2.86-1.13,4.45
			v0.08c0,1.58,0.38,3.09,1.13,4.45c0.68,1.28,1.81,2.41,3.09,3.09c1.43,0.75,3.02,1.13,4.67,1.06c2.04-0.15,3.84-1.13,5.5-2.26
			c1.73-1.13,3.24-2.49,4.9-3.62c1.58-1.13,3.24-2.19,5.13-2.64C212.73-451.6,212.73-451.67,212.73-451.67"/>
		<g>
			<path class="st1" d="M383.11-428.53h18.62c-3.69-2.19-4.9-4.3-7.24-9.65c-12.82-29.7-17.34-39.96-17.34-39.96
				s-2.79,4.75-11.91,6.56c0.6,0.38,1.28,1.66,1.28,2.86c0,0.75-0.15,1.88-0.75,3.24l-12.21,27.22c-2.56,5.73-4.07,8.22-7.69,9.42
				c-2.79-1.66-3.39-3.17-3.39-8.9v-28.12c0-5.88,0.6-7.46,3.62-9.12H329.5c3.02,1.73,3.62,3.17,3.62,9.12v9.57h-23.07v-9.57
				c0-5.96,0.53-7.46,3.62-9.12h-16.66c3.09,1.73,3.62,3.17,3.62,9.12v28.12c0,5.96-0.53,7.46-3.62,9.12h16.66
				c-3.09-1.73-3.62-3.17-3.62-9.12v-12.06h23.07v12.06c0,5.88-0.6,7.46-3.69,9.12h32.87c-1.66-0.9-2.86-2.26-2.86-4
				c0-1.21,0.45-2.11,1.51-4.52l2.64-6.18h18.4l2.79,6.94c0.75,1.88,1.06,2.64,1.06,3.77C385.75-430.79,384.31-429.36,383.11-428.53
				L383.11-428.53z M365.92-448.96l6.94-16.66l6.71,16.66H365.92z"/>
			<path class="st1" d="M414.69-437.65v-28.12c0-5.96,0.6-7.39,3.54-9.12h-16.51c3.02,1.81,3.54,3.17,3.54,9.12v28.12
				c0,5.96-0.53,7.39-3.54,9.12h16.51C415.3-430.34,414.69-431.7,414.69-437.65"/>
			<path class="st1" d="M295.58-478.14c-1.73,1.36-4.45,3.17-11.76,3.17h-20.73c-4.07,0-5.73-2.41-6.48-3.84
				c-1.58,3.54-5.58,8.59-8.07,10.71h19.45v29.93c0,5.96-0.75,7.84-3.69,9.65h16.66c-3.02-1.81-3.54-3.17-3.54-9.12v-28.12
				c0-0.83-0.08-1.36-0.08-2.34h2.86c4.07,0,6.26-0.45,7.99-1.06C292.56-470.82,295.28-473.99,295.58-478.14"/>
		</g>
	</g>
</g>
</svg>
