<?xml version="1.0" encoding="utf-8"?>
<!-- Generator: Adobe Illustrator 25.4.1, SVG Export Plug-In . SVG Version: 6.00 Build 0)  -->
<svg version="1.1" id="Layer_1" xmlns="http://www.w3.org/2000/svg" xmlns:xlink="http://www.w3.org/1999/xlink" x="0px" y="0px"
	 viewBox="0 0 70.9 80" style="enable-background:new 0 0 70.9 80;" xml:space="preserve">
<style type="text/css">
	.st0{fill:#00ACC8;}
	.st1{fill:#575656;}
</style>
<path id="path5481" class="st0" d="M0,63.4C5.8,56,13.1,44.7,22.7,38.6c14.3-9.1,24.2,4.8,30.6,16.8C58.5,64.9,64,75.3,70.9,80
	c-17.4-5.2-24.2-33.9-48.6-29C13.3,52.8,6.4,59.4,0,63.4"/>
<path class="st1" d="M65.5,79.3C56.4,74.2,40.6,68,32.8,59.1c-2.1-2.4-3.4-4.7-4.2-7C46.5,53.7,53,72.5,65.5,79.3"/>
<path class="st1" d="M34.2,34.4c3.5-4.1,8.1-7.8,12.5-11.2C56.2,16,63.9,9,67,0c1.2,15.7-16.2,27-21,41.3
	C42.6,37.6,38.7,34.9,34.2,34.4"/>
</svg>
