<?xml version="1.0" encoding="utf-8"?>
<!-- Generator: Adobe Illustrator 25.4.1, SVG Export Plug-In . SVG Version: 6.00 Build 0)  -->
<svg version="1.1" id="Layer_1" xmlns="http://www.w3.org/2000/svg" xmlns:xlink="http://www.w3.org/1999/xlink" x="0px" y="0px"
	 viewBox="0 0 275.2 80" style="enable-background:new 0 0 275.2 80;" xml:space="preserve">
<style type="text/css">
	.st0{fill:#00ACC8;}
	.st1{fill:#575656;}
	.st2{fill:#818180;}
</style>
<g id="layer1" transform="translate(-121.58781,-462.40699)">
	<path id="path5481" class="st0" d="M121.6,525.8c5.8-7.4,13.1-18.7,22.7-24.8c14.3-9.1,24.2,4.8,30.6,16.8
		c5.1,9.5,10.6,19.9,17.5,24.6c-17.4-5.2-24.2-33.9-48.6-29C134.9,515.2,128,521.8,121.6,525.8"/>
	<path id="path5517" class="st1" d="M385.3,500.4c-0.6-0.5-1.2-0.8-1.8-1.1c-0.6-0.3-1.4-0.4-2.3-0.4c-0.6,0-1.1,0.1-1.6,0.3
		c-0.4,0.2-0.8,0.6-1.1,1.2c-0.3,0.6-0.5,1.4-0.7,2.3c-0.1,1-0.2,2.3-0.2,3.8c0,1.6,0.1,3,0.2,4.1c0.1,1.1,0.4,1.9,0.7,2.5
		c0.3,0.6,0.7,1,1.2,1.3c0.5,0.2,1,0.3,1.6,0.3c0.8,0,1.6-0.1,2.2-0.4c0.6-0.3,1.2-0.7,1.8-1.1L385.3,500.4L385.3,500.4z
		 M385.3,523.5v-2.3c-1.1,0.9-2.2,1.6-3.4,2.2c-1.2,0.6-2.7,0.9-4.4,0.9c-1.6,0-3-0.3-4.3-1c-1.3-0.6-2.5-1.7-3.5-3
		c-1-1.4-1.8-3.2-2.3-5.4c-0.6-2.2-0.9-4.8-0.9-7.9c0-6,1-10.4,3-13.2c2-2.8,4.8-4.2,8.5-4.2c1.7,0,3.1,0.3,4.3,0.9
		c1.2,0.6,2.2,1.3,3.1,2v-10.6l11.5-4.6v46.3L385.3,523.5L385.3,523.5z M353,523.5v-18.9c0-2.2-0.3-3.6-1-4.3
		c-0.7-0.7-1.6-1.1-2.8-1.1c-1.2,0-2.2,0.4-2.9,1.1c-0.7,0.7-1,2.1-1,4.3v19h-11.4v-33.3h11.4v2.2c1.1-0.8,2.2-1.5,3.5-2.1
		c1.3-0.6,2.9-0.9,4.9-0.9c3.7,0,6.4,1.2,8.2,3.5c1.8,2.3,2.6,5.7,2.6,10.1v20.4H353L353,523.5z M318.9,490.2h11.4v33.3h-11.4V490.2
		z M331.2,482.1c0,1.8-0.6,3.2-1.8,4.2c-1.2,1-2.8,1.5-4.8,1.5c-1.9,0-3.5-0.5-4.7-1.5c-1.2-1-1.8-2.4-1.8-4.2c0-1.6,0.6-2.9,1.8-4
		c1.2-1,2.8-1.6,4.7-1.6c2,0,3.6,0.5,4.8,1.6C330.6,479.2,331.2,480.5,331.2,482.1 M308.3,523.5h-9.3l-1.4-6.8
		c-0.2-0.9-0.4-2.1-0.7-3.4c-0.2-1.3-0.5-2.6-0.7-3.9c-0.2-1.3-0.5-2.5-0.7-3.7c-0.2-1.1-0.4-2-0.4-2.6c-0.1,0.6-0.3,1.5-0.5,2.6
		c-0.2,1.1-0.4,2.4-0.6,3.7c-0.2,1.3-0.5,2.6-0.7,3.9c-0.3,1.3-0.5,2.5-0.7,3.5l-1.4,6.7h-9l-9.4-33.3h11l1,5c0.2,1,0.4,2.1,0.6,3.4
		c0.2,1.3,0.4,2.6,0.6,3.9s0.4,2.5,0.5,3.7c0.2,1.1,0.3,2,0.4,2.6c0.1-0.6,0.3-1.5,0.5-2.6c0.2-1.1,0.4-2.4,0.7-3.7s0.5-2.6,0.8-3.9
		c0.3-1.3,0.5-2.5,0.7-3.5l1.1-4.8h9.4l1,4.8c0.2,1,0.4,2.2,0.7,3.5s0.5,2.6,0.8,3.9s0.5,2.5,0.7,3.7c0.2,1.1,0.3,2,0.5,2.6
		c0.1-0.6,0.2-1.5,0.4-2.6c0.2-1.1,0.4-2.4,0.6-3.7s0.4-2.6,0.6-3.9s0.4-2.4,0.6-3.4l0.9-5h10.9L308.3,523.5L308.3,523.5z
		 M260.3,523.5v-41.7l11.4-4.6v46.3H260.3z M244.9,490.2h11.4v33.3h-11.4V490.2z M257.3,482.1c0,1.8-0.6,3.2-1.8,4.2
		c-1.2,1-2.8,1.5-4.8,1.5c-1.9,0-3.5-0.5-4.7-1.5c-1.2-1-1.8-2.4-1.8-4.2c0-1.6,0.6-2.9,1.8-4c1.2-1,2.8-1.6,4.7-1.6
		c2,0,3.6,0.5,4.8,1.6C256.7,479.2,257.3,480.5,257.3,482.1 M230.2,509.9c-0.6-0.3-1.3-0.5-2.1-0.7c-0.8-0.2-1.7-0.3-2.8-0.3
		c-2.4,0-3.6,1.2-3.6,3.6c0,1.1,0.3,1.9,0.9,2.6c0.6,0.7,1.5,1,2.7,1c1,0,1.9-0.2,2.8-0.5c0.9-0.3,1.6-0.7,2.1-1.2V509.9z
		 M230.2,523.5v-2.2c-1.1,0.8-2.3,1.5-3.7,2.1c-1.4,0.5-2.9,0.8-4.4,0.8c-3.3,0-5.9-1-7.8-2.9c-2-1.9-2.9-4.8-2.9-8.6
		c0-1.8,0.3-3.3,0.9-4.7c0.6-1.4,1.4-2.5,2.5-3.4c1.1-0.9,2.3-1.6,3.8-2.1c1.5-0.5,3.1-0.7,4.9-0.7c1.5,0,2.8,0.1,3.9,0.4
		c1.1,0.3,2.1,0.6,3,1v-1.7c0-1.5-0.4-2.5-1.2-3.1c-0.8-0.6-2-0.9-3.5-0.9c-1.7,0-3.3,0.2-4.7,0.5c-1.4,0.4-2.9,1-4.5,1.9l-3-7.6
		c2-1,4.2-1.7,6.5-2.3c2.3-0.5,4.9-0.8,7.8-0.8c4.7,0,8.1,1.1,10.2,3.3c2.1,2.2,3.2,5.2,3.2,9.1v21.6L230.2,523.5L230.2,523.5z
		 M208.4,522.4c-1.1,0.5-2.3,1-3.7,1.3c-1.4,0.3-2.9,0.5-4.5,0.5c-3,0-5.3-0.8-6.7-2.4c-1.4-1.6-2.1-4.3-2.1-8.2v-14.5h-5.1v-8.9
		h5.1v-8.4l11.1-4.5v12.9h7.2v8.9h-7.2v12.1c0,1.3,0.2,2.1,0.7,2.6c0.5,0.5,1.2,0.7,2.2,0.7c0.8,0,1.5-0.1,2.2-0.4
		c0.7-0.3,1.5-0.7,2.4-1.3L208.4,522.4z M187.1,541.7c-9.2-5.1-24.9-11.3-32.7-20.2c-2.1-2.4-3.4-4.7-4.2-7
		C168.1,516.1,174.6,534.9,187.1,541.7 M155.8,496.8c3.5-4.1,8.1-7.8,12.5-11.2c9.4-7.2,17.1-14.2,20.2-23.2
		c1.2,15.7-16.2,27-21,41.3C164.2,500,160.2,497.3,155.8,496.8"/>
	<path id="path5521" class="st2" d="M396.4,534.6c-0.1-0.3-0.4-0.6-0.6-0.9c-0.3-0.2-0.7-0.4-1.1-0.6c-0.4-0.2-1-0.3-1.6-0.5
		c-0.3-0.1-0.6-0.1-0.8-0.2s-0.4-0.1-0.5-0.2c-0.1-0.1-0.2-0.1-0.3-0.2c-0.1-0.1-0.1-0.1-0.1-0.2c0-0.2,0.1-0.3,0.2-0.4
		c0.1-0.1,0.4-0.2,0.8-0.2c0.5,0,1,0.1,1.4,0.2c0.4,0.2,0.9,0.4,1.3,0.7l1.3-2.1c-0.5-0.4-1.1-0.6-1.7-0.8c-0.6-0.2-1.3-0.3-2.2-0.3
		c-0.6,0-1.1,0.1-1.6,0.2c-0.5,0.1-0.9,0.4-1.2,0.6c-0.3,0.3-0.6,0.6-0.8,1c-0.2,0.4-0.3,0.8-0.3,1.3c0,0.5,0.1,0.9,0.2,1.2
		c0.1,0.3,0.4,0.6,0.6,0.9c0.3,0.2,0.6,0.4,1.1,0.6c0.4,0.2,0.9,0.3,1.5,0.4c0.3,0.1,0.6,0.1,0.8,0.2c0.2,0.1,0.4,0.1,0.5,0.2
		c0.1,0.1,0.2,0.1,0.3,0.2c0.1,0.1,0.1,0.2,0.1,0.3c0,0.2-0.1,0.4-0.3,0.5c-0.2,0.1-0.5,0.1-1,0.1c-0.2,0-0.5,0-0.7-0.1
		c-0.3-0.1-0.5-0.1-0.8-0.2c-0.3-0.1-0.5-0.2-0.7-0.3c-0.2-0.1-0.4-0.2-0.6-0.4l-1.3,2.1c0.5,0.3,1.1,0.6,1.8,0.8
		c0.7,0.2,1.5,0.3,2.3,0.3c0.6,0,1.1-0.1,1.6-0.2c0.5-0.1,0.9-0.3,1.3-0.6c0.4-0.3,0.6-0.6,0.8-1c0.2-0.4,0.3-0.9,0.3-1.4
		C396.6,535.3,396.5,534.9,396.4,534.6 M367.9,538.8v-2.3h-4.9v-1.7h2.9v-2.2h-2.9v-1.3h4.8v-2.3h-7.4v9.7L367.9,538.8L367.9,538.8z
		 M339,538.8v-9.7h-2.6v2.6v0.7c0,0.3,0,0.5,0,0.7c0,0.2,0,0.5,0,0.7c0,0.2,0,0.4,0,0.5c-0.1-0.1-0.1-0.3-0.3-0.4
		c-0.1-0.2-0.3-0.4-0.4-0.6c-0.1-0.2-0.3-0.4-0.4-0.7c-0.2-0.2-0.3-0.4-0.4-0.6l-2.1-2.9h-2.4v9.7h2.6v-3v-0.7c0-0.3,0-0.5,0-0.7
		c0-0.2,0-0.5,0-0.7c0-0.2,0-0.4,0-0.5c0.1,0.1,0.2,0.3,0.3,0.5s0.3,0.4,0.4,0.6c0.1,0.2,0.3,0.4,0.4,0.7c0.1,0.2,0.3,0.4,0.4,0.5
		l2.3,3.2L339,538.8L339,538.8z M309.1,529.1h-2.7v9.7h2.7V529.1z M285.3,538.8v-2.3H281v-7.4h-2.7v9.7L285.3,538.8L285.3,538.8z
		 M254.1,533.1c-0.2,0.2-0.5,0.3-0.9,0.3h-1.6v-2.1h1.6c0.4,0,0.7,0.1,0.9,0.3s0.3,0.4,0.3,0.7C254.4,532.6,254.3,532.9,254.1,533.1
		 M257.3,538.8l-1.9-3.7c0.5-0.2,1-0.6,1.3-1.1c0.3-0.5,0.5-1.1,0.5-1.8c0-0.6-0.1-1.1-0.3-1.5c-0.2-0.4-0.4-0.7-0.8-1
		c-0.3-0.3-0.7-0.4-1.2-0.5s-1-0.2-1.5-0.2H249v9.7h2.6v-3.3h1.1l1.6,3.3L257.3,538.8L257.3,538.8z M227.5,529.1h-2.7v9.7h2.7V529.1
		z M199.8,534.9h-1.6l0.2-0.6c0.1-0.3,0.2-0.6,0.2-0.8c0.1-0.2,0.1-0.4,0.2-0.6c0.1-0.2,0.1-0.4,0.1-0.5c0-0.2,0.1-0.3,0.1-0.5
		c0,0.2,0.1,0.3,0.1,0.5c0,0.2,0.1,0.3,0.1,0.5c0.1,0.2,0.1,0.4,0.2,0.6c0.1,0.2,0.1,0.5,0.2,0.8L199.8,534.9L199.8,534.9z
		 M203.9,538.8l-3.5-9.7h-2.7l-3.5,9.7h2.9l0.5-1.7h2.9l0.5,1.7H203.9z"/>
</g>
</svg>
