<?xml version="1.0" encoding="utf-8"?>
<!-- Generator: Adobe Illustrator 25.4.1, SVG Export Plug-In . SVG Version: 6.00 Build 0)  -->
<svg version="1.1" id="Layer_1" xmlns="http://www.w3.org/2000/svg" xmlns:xlink="http://www.w3.org/1999/xlink" x="0px" y="0px"
	 viewBox="0 0 80 80" style="enable-background:new 0 0 80 80;" xml:space="preserve">
<style type="text/css">
	.st0{fill:#989B9D;}
</style>
<path class="st0" d="M56.1,38c0.3-0.1,11.3-2.2,11.3-2.2s-0.1,7.7,0,7.5c0.1-0.2,3.9-8.4,3.9-8.4l8.7-3.1c0,0-2.7-0.4-4.3,0
	c-1.6,0.4-5.3,1.3-5.3,1.3l-6.6-6.3l2.3,6.6c0,0-3.5,1.3-6.3,1.4c-2.8,0.2-4.7-0.8-5.6-1.5L56.1,38z"/>
<path d="M50,27.2c0.2-0.3,6.4-9.5,6.4-9.5s5.3,5.5,5.3,5.3c0-0.2-3.2-8.7-3.2-8.7l4-8.4c0,0-2.2,1.6-3,3s-2.8,4.7-2.8,4.7l-9.1,0.3
	l6.3,3.1c0,0-1.6,3.4-3.5,5.5c-1.9,2.1-3.9,2.8-5,2.9L50,27.2z"/>
<path d="M38,23.9c-0.1-0.3-2.2-11.3-2.2-11.3s7.7,0.1,7.5,0c-0.2-0.1-8.4-3.9-8.4-3.9L31.8,0c0,0-0.4,2.7,0,4.3
	c0.4,1.6,1.3,5.3,1.3,5.3l-6.3,6.6l6.6-2.3c0,0,1.3,3.5,1.4,6.3s-0.8,4.7-1.5,5.6L38,23.9z"/>
<path d="M27.2,30c-0.3-0.2-9.5-6.4-9.5-6.4s5.5-5.3,5.3-5.3c-0.2,0-8.7,3.2-8.7,3.2l-8.4-4c0,0,1.6,2.2,3,3c1.4,0.8,4.7,2.8,4.7,2.8
	l0.3,9.1l3.1-6.3c0,0,3.4,1.6,5.5,3.5c2.1,1.9,2.8,3.9,2.9,5L27.2,30z"/>
<path d="M23.9,42c-0.3,0.1-11.3,2.2-11.3,2.2s0.1-7.7,0-7.5c-0.1,0.2-3.9,8.4-3.9,8.4L0,48.2c0,0,2.7,0.4,4.3,0
	c1.6-0.4,5.3-1.3,5.3-1.3l6.6,6.3L14,46.5c0,0,3.5-1.3,6.3-1.4s4.7,0.8,5.6,1.5L23.9,42z"/>
<path d="M30,52.8c-0.2,0.3-6.4,9.5-6.4,9.5s-5.3-5.5-5.3-5.3s3.2,8.7,3.2,8.7l-4,8.4c0,0,2.2-1.6,3-3c0.8-1.4,2.8-4.7,2.8-4.7
	l9.1-0.3L26.2,63c0,0,1.6-3.4,3.5-5.5c1.9-2.1,3.9-2.8,5-2.9L30,52.8z"/>
<path d="M42,56.1c0.1,0.3,2.2,11.3,2.2,11.3s-7.7-0.1-7.5,0c0.2,0.1,8.4,3.9,8.4,3.9l3.1,8.7c0,0,0.4-2.7,0-4.3
	c-0.4-1.6-1.3-5.3-1.3-5.3l6.3-6.6L46.5,66c0,0-1.3-3.5-1.4-6.3c-0.2-2.8,0.8-4.7,1.5-5.6L42,56.1z"/>
<path d="M52.8,50c0.3,0.2,9.5,6.4,9.5,6.4s-5.5,5.3-5.3,5.3s8.7-3.2,8.7-3.2l8.4,4c0,0-1.6-2.2-3-3s-4.7-2.8-4.7-2.8l-0.3-9.1
	L63,53.8c0,0-3.4-1.6-5.5-3.5c-2.1-1.9-2.8-3.9-2.9-5L52.8,50z"/>
</svg>
