<?xml version="1.0" encoding="utf-8"?>
<!-- Generator: Adobe Illustrator 25.4.1, SVG Export Plug-In . SVG Version: 6.00 Build 0)  -->
<svg version="1.1" id="Layer_1" xmlns="http://www.w3.org/2000/svg" xmlns:xlink="http://www.w3.org/1999/xlink" x="0px" y="0px"
	 viewBox="0 0 282.4 80" style="enable-background:new 0 0 282.4 80;" xml:space="preserve">
<style type="text/css">
	.st0{fill:#989B9D;}
</style>
<g>
	<g>
		<path d="M151.6,31.4h-3.1H148l-6.8,21h3.5l1.5-4.8h7.3l1.5,4.8h3.5l-6.8-21H151.6z M147.5,44.1l2.5-7.9l2.5,7.9H147.5z"/>
		<polygon points="222.6,45 219.2,31.4 218.7,31.4 215.7,31.4 215.2,31.4 211.8,45 208.9,31.4 205.4,31.4 209.8,52.4 209.9,52.4 
			213.4,52.4 213.5,52.4 217.2,37.5 221,52.4 221.1,52.4 224.5,52.4 224.6,52.4 229,31.4 225.5,31.4 		"/>
		<polygon points="190.2,43.1 199.2,43.1 199.2,39.6 190.2,39.6 190.2,34.9 200,34.9 200,31.4 190.2,31.4 186.6,31.4 186.6,34.9 
			186.6,39.6 186.6,43.1 186.6,48.9 186.6,52.4 190.2,52.4 200.3,52.4 200.3,48.9 190.2,48.9 		"/>
		<rect x="234.6" y="31.4" width="3.5" height="21"/>
		<polygon points="256.2,45.5 248.9,31.4 245.4,31.4 245.4,52.4 248.9,52.4 248.9,38.2 256.2,52.4 259.8,52.4 259.8,31.4 
			256.2,31.4 		"/>
		<polygon points="105.8,31.4 100.4,31.4 100.4,34.9 105.8,34.9 105.8,52.4 109.3,52.4 109.3,34.9 114.7,34.9 114.7,31.4 
			109.3,31.4 		"/>
		<path d="M131,43.3L131,43.3c2.2-0.6,4.6-2.1,4.6-5.7c0-6.8-6.2-6.2-6.2-6.2h-5h-3.5h-0.1v3.5h0.1v5.2h-0.1v3.5h0.1v8.7h3.5v-8.7
			h2.1c1.1,0,2.3,2,2.3,2l3.9,6.8h4.4c0,0-2.5-4.6-3.4-6.3C132.8,44.4,131,43.3,131,43.3z M124.4,34.9h5c0,0,2.5,0.3,2.5,2.8
			s-2.5,2.4-2.5,2.4h-5V34.9z"/>
		<path d="M171.5,31.4h-3.2h-3.5h0v21h0h3.5h3.2c0,0,3.4,0,5.3-1.6c1.8-1.6,3-4.7,3-8.5s-0.8-6.6-2.2-8.2
			C176.2,32.5,174.7,31.4,171.5,31.4z M175.5,46.7c-0.3,0.9-1.4,2.1-4,2.1h-3.2v-14h3.2c0,0,3.8-0.2,4.4,4.1
			C176.5,43.3,175.8,45.9,175.5,46.7z"/>
		<path d="M280.2,34.1c-1.4-1.6-3-2.7-6.1-2.7h-3.2h-3.5h0v21h0h3.5h3.2c0,0,3.4,0,5.3-1.6c1.8-1.6,3-4.7,3-8.5
			S281.6,35.7,280.2,34.1z M278,46.7c-0.3,0.9-1.4,2.1-4,2.1h-3.2v-14h3.2c0,0,3.8-0.2,4.4,4.1S278.4,45.9,278,46.7z"/>
	</g>
	<path class="st0" d="M56.1,38c0.3-0.1,11.3-2.2,11.3-2.2s-0.1,7.7,0,7.5c0.1-0.2,3.9-8.4,3.9-8.4l8.7-3.1c0,0-2.7-0.4-4.3,0
		c-1.6,0.4-5.3,1.3-5.3,1.3l-6.6-6.3l2.3,6.6c0,0-3.5,1.3-6.3,1.4c-2.8,0.2-4.7-0.8-5.6-1.5L56.1,38z"/>
	<path d="M50,27.2c0.2-0.3,6.4-9.5,6.4-9.5s5.3,5.5,5.3,5.3c0-0.2-3.2-8.7-3.2-8.7l4-8.4c0,0-2.2,1.6-3,3s-2.8,4.7-2.8,4.7l-9.1,0.3
		l6.3,3.1c0,0-1.6,3.4-3.5,5.5c-1.9,2.1-3.9,2.8-5,2.9L50,27.2z"/>
	<path d="M38,23.9c-0.1-0.3-2.2-11.3-2.2-11.3s7.7,0.1,7.5,0c-0.2-0.1-8.4-3.9-8.4-3.9L31.8,0c0,0-0.4,2.7,0,4.3
		c0.4,1.6,1.3,5.3,1.3,5.3l-6.3,6.6l6.6-2.3c0,0,1.3,3.5,1.4,6.3s-0.8,4.7-1.5,5.6L38,23.9z"/>
	<path d="M27.2,30c-0.3-0.2-9.5-6.4-9.5-6.4s5.5-5.3,5.3-5.3c-0.2,0-8.7,3.2-8.7,3.2l-8.4-4c0,0,1.6,2.2,3,3
		c1.4,0.8,4.7,2.8,4.7,2.8l0.3,9.1l3.1-6.3c0,0,3.4,1.6,5.5,3.5c2.1,1.9,2.8,3.9,2.9,5L27.2,30z"/>
	<path d="M23.9,42c-0.3,0.1-11.3,2.2-11.3,2.2s0.1-7.7,0-7.5c-0.1,0.2-3.9,8.4-3.9,8.4L0,48.2c0,0,2.7,0.4,4.3,0
		c1.6-0.4,5.3-1.3,5.3-1.3l6.6,6.3L14,46.5c0,0,3.5-1.3,6.3-1.4s4.7,0.8,5.6,1.5L23.9,42z"/>
	<path d="M30,52.8c-0.2,0.3-6.4,9.5-6.4,9.5s-5.3-5.5-5.3-5.3s3.2,8.7,3.2,8.7l-4,8.4c0,0,2.2-1.6,3-3c0.8-1.4,2.8-4.7,2.8-4.7
		l9.1-0.3L26.2,63c0,0,1.6-3.4,3.5-5.5c1.9-2.1,3.9-2.8,5-2.9L30,52.8z"/>
	<path d="M42,56.1c0.1,0.3,2.2,11.3,2.2,11.3s-7.7-0.1-7.5,0c0.2,0.1,8.4,3.9,8.4,3.9l3.1,8.7c0,0,0.4-2.7,0-4.3
		c-0.4-1.6-1.3-5.3-1.3-5.3l6.3-6.6L46.5,66c0,0-1.3-3.5-1.4-6.3c-0.2-2.8,0.8-4.7,1.5-5.6L42,56.1z"/>
	<path d="M52.8,50c0.3,0.2,9.5,6.4,9.5,6.4s-5.5,5.3-5.3,5.3s8.7-3.2,8.7-3.2l8.4,4c0,0-1.6-2.2-3-3s-4.7-2.8-4.7-2.8l-0.3-9.1
		L63,53.8c0,0-3.4-1.6-5.5-3.5c-2.1-1.9-2.8-3.9-2.9-5L52.8,50z"/>
</g>
</svg>
