<?xml version="1.0" encoding="utf-8"?>
<!-- Generator: Adobe Illustrator 26.5.0, SVG Export Plug-In . SVG Version: 6.00 Build 0)  -->
<svg version="1.1" id="a" xmlns="http://www.w3.org/2000/svg" xmlns:xlink="http://www.w3.org/1999/xlink" x="0px" y="0px"
	 viewBox="0 0 509.9 80" style="enable-background:new 0 0 509.9 80;" xml:space="preserve">
<style type="text/css">
	.st0{fill:#FFFFFF;}
	.st1{fill:#C70A0C;}
</style>
<g transform="matrix(.21415904 0 0 .21415904 -10.38827 -10.388271)">
	<path class="st0" d="M186,239.4c15.6-58.8-2.2-120.4-44.9-153c-58.1,36.8-91.7,106-79.6,178.1c4,23.8,12.6,45.7,24.8,64.9
		C131.8,316.7,171.8,292.8,186,239.4 M264.4,409c96-16.1,160.7-107,144.5-202.9c-13.4-79.9-78.5-138-155.3-146.1
		c-15.5-1.6-31.5-1.2-47.7,1.5c-19.1,3.2-37,9.4-53.2,18.1c84.6,28.7,130.1,72.3,133.2,117c1.5,27.6-11.3,47.5-28.1,63.8l119.6-8.4
		c3.4-0.2,4.4,3.7,0.3,4.9L92.6,338.7c29,40,74.1,66.6,124.2,71.8C232.3,412.1,248.3,411.7,264.4,409 M254.8,49.5
		c93.9,9.8,167.2,89.2,167.2,185.7c0,103.1-83.6,186.8-186.7,186.8c-103.2,0-186.8-83.6-186.8-186.7S132.1,48.5,235.2,48.5
		C241.8,48.5,248.4,48.8,254.8,49.5"/>
	<path class="st1" d="M61.5,264.5c4,23.8,12.6,45.7,24.8,64.9c45.5-12.7,85.4-36.6,99.7-90c15.6-58.8-2.2-120.4-44.9-153
		C82.9,123.1,49.4,192.4,61.5,264.5 M409,206.1C425.1,302,360.4,392.9,264.4,409c-16.1,2.7-32.1,3.1-47.7,1.5
		c-50.1-5.2-95.2-31.8-124.2-71.8l285.3-81.8c4.1-1.2,3-5.1-0.3-4.9l-119.6,8.4c16.8-16.3,29.7-36.2,28.1-63.8
		c-3.2-44.7-48.6-88.3-133.2-117c16.3-8.6,34.1-14.8,53.2-18.1c16.1-2.7,32.2-3.1,47.7-1.5C330.5,68.1,395.6,126.2,409,206.1"/>
	<path d="M1389.5,308.5v-61.4h-61.6v61.4h-33.8V162.2h33.8v58.3h61.6v-58.3h34.1v146.3H1389.5z"/>
	<path d="M661,162.2v91.6c0,10.1,1.5,18.9,4.4,26c2.9,7.1,7.2,12.9,12.6,17.5c5.5,4.6,12.1,7.9,19.6,10c7.7,2.1,16.3,3.2,25.8,3.2
		c9.4,0,18-1.1,25.5-3.2c7.4-2.1,13.7-5.4,18.8-9.9c5-4.5,9-10.4,11.8-17.5c2.8-7.1,4.2-15.9,4.2-26v-91.6h-31.6v90.6
		c0,9.2-2.3,16.7-6.8,22.2c-4.6,5.6-12,8.4-21.8,8.4c-9.7,0-17-2.8-21.7-8.4c-4.6-5.5-6.9-12.9-6.9-22.2v-90.6L661,162.2z"/>
	<path d="M563.5,308.5v-119h-39.7v-27.3h113.5v13.1c0,7.8-6.4,14.2-14.2,14.2h-25.8v119H563.5z"/>
	<path d="M1106.8,162.2h33.8v146.3h-33.8V162.2z"/>
	<path d="M994.2,240.3l1.1,1.5l43.2,55.6c5.5,7.1,13.8,11.2,22.8,11.2h26.9l-61.9-78.7l-0.9-1.2l0.9-1.2l50.9-65.4H1042l-46.6,63.1
		l-1.2,1.5l0-2.6v-61.9h-33.8v146.3h33.8v-65.6L994.2,240.3z"/>
	<path d="M848.7,229.2h19.7c7.1,0,12.5-2,16.1-5.8c3.5-3.8,5.3-8.7,5.3-14.6c0-6.1-1.7-11.1-5.2-14.9c-3.5-3.9-8.9-5.8-16.2-5.8
		h-19.7V229.2z M916.3,308.5c-10,0-19.5-5.3-24.6-13.9l-26.3-43.4h-16.7v57.3H815V162.2h60.2c15.5,0,27.6,4,36,12
		c8.4,7.9,12.7,18.8,12.7,32.4c0,6.9-1.8,13.8-5.4,20.7c-3.6,6.7-9.9,12.3-18.8,16.4l-2,0.9l41,63.9H916.3z"/>
	<path d="M1168.4,302.3v-28c10.8,5,24.6,9.9,39,9.9c16.5,0,24.9-5.7,24.9-16.5c0-12.7-11.2-14.1-33.7-23.8
		c-15.3-6.8-29.9-17.4-29.9-41.9c0-28.5,21.8-42,51.9-42c16,0,29.6,3.8,37.3,6.6v27.3c-7.6-3.5-21.3-7.8-34.9-7.8
		c-14.8,0-21.8,5.4-21.8,14.8c0,9.9,8.4,13,23.4,18.6c19.4,9.7,41.8,13.9,41.8,46.9c0,28.5-22.7,44.1-53.1,44.1
		C1194.6,310.6,1179.8,307.3,1168.4,302.3"/>
	<path d="M2212.5,308.5V162.2h91.6v13.3c0,7.7-6.3,14-14,14h-43.8V221h49.1v24.4h-49.1v35.8h57.8v27.3H2212.5z"/>
	<path d="M1878.3,308.5V162.2h16.4c9.6,0,17.4,7.8,17.4,17.4v102.6h54v26.4H1878.3z"/>
	<path d="M1669.1,308.5V162.3h33.8l0,146.2H1669.1z"/>
	<path d="M1767.7,229.2h19.7c7.1,0,12.5-1.9,16.1-5.8c3.5-3.8,5.3-8.7,5.3-14.7c0-6.1-1.7-11.1-5.2-14.9c-3.5-3.9-8.9-5.8-16.2-5.8
		h-19.7V229.2z M1835.3,308.5c-10,0-19.5-5.3-24.6-13.9l-26.3-43.4h-16.7v57.3h-33.8V162.2h60.2c15.5,0,27.6,4,36,12
		c8.4,7.9,12.7,18.8,12.7,32.4c0,6.9-1.8,13.8-5.4,20.7c-3.5,6.7-9.9,12.2-18.8,16.4l-2,0.9l41,63.9L1835.3,308.5z"/>
	<path d="M1552.9,255.2l13.3-37c2.9-8.3,5.9-17.1,7.9-23.6h0.5c1.7,6.7,4.7,15,7.6,23.6l12.8,37H1552.9z M1594.7,162.2h-38.8
		l-55.2,146.3h24.3c6.2,0,11.6-3.9,13.6-9.8l5.7-17.2h59.3l8.7,27h36.6L1594.7,162.2z"/>
	<path d="M2331.3,302.3v-28c10.7,4.9,24.6,9.9,39,9.9c16.5,0,24.9-5.7,24.9-16.5c0-12.7-11.2-14.1-33.7-23.8
		c-15.3-6.8-29.9-17.4-29.9-42c0-28.5,21.8-42,51.9-42c16,0,29.6,3.8,37.3,6.6v27.3c-7.7-3.5-21.3-7.8-34.9-7.8
		c-14.8,0-21.8,5.4-21.8,14.8c0,9.9,8.4,13,23.4,18.6c19.4,9.7,41.8,13.9,41.8,46.9c0,28.5-22.7,44.1-53.1,44.1
		C2357.6,310.6,2342.8,307.3,2331.3,302.3"/>
	<path d="M2052.6,162.2h21c9.9,0,19.2,5.1,24.5,13.6l40.8,65.5c4.6,7.3,9.9,16.9,13.1,23.7h0.7c-0.5-6.6-0.7-15.7-0.7-22.3v-80.5
		h29.6v146.3h-37.1l-49.6-79.1c-4.6-7.3-9.5-16-12.9-22.5h-0.5c0.2,6.3,0.7,13.9,0.7,20.9v80.8h-29.6V162.2z"/>
	<path d="M1987.8,308.5V162.3h33.8v146.2H1987.8z"/>
</g>
</svg>
