<?xml version="1.0" encoding="utf-8"?>
<!-- Generator: Adobe Illustrator 25.4.1, SVG Export Plug-In . SVG Version: 6.00 Build 0)  -->
<svg version="1.1" id="Layer_2_00000159471598350358213750000014612203606435250611_"
	 xmlns="http://www.w3.org/2000/svg" xmlns:xlink="http://www.w3.org/1999/xlink" x="0px" y="0px" viewBox="0 0 101.9 80"
	 style="enable-background:new 0 0 101.9 80;" xml:space="preserve">
<style type="text/css">
	.st0{fill:#04396F;}
	.st1{fill:#A11337;}
	.st2{fill:#FFFFFF;}
	.st3{fill:#ACABB5;}
</style>
<path class="st0" d="M0,78.7c0,0,0-0.3,0.6-0.3c1.6,0,5.3,0.5,14-5.6c9.5-6.6,60.7-67.7,60.7-67.7s2.8-2.8,4.4-3.8
	C81.3,0.5,83.2,0,85.6,0h16.3L79.6,79.7L0,80V78.7z"/>
<path class="st1" d="M72.4,36.2c0,0,5.5,2.4,3.3,7.7c-2.2,5.5-25.8,8.5-27.4,12.2c-1.2,2.8,8.5,4,8.5,4s-14.2,0.2-11.5-5.8
	c2.5-5.5,25.6-7.1,28-10.1C76.6,40.2,72.4,36.2,72.4,36.2L72.4,36.2z"/>
<path class="st2" d="M63.1,66.9l0.5-5.4l-4.9-2.3l4.9-2.1l-0.6-5.4l4.3,3.3l4.3-3.1l-0.5,5.4l4.9,2.3l-4.9,2.1l0.6,5.4l-4.3-3.3
	L63.1,66.9z M78.1,52.7l-0.4-2.3l-2.3-0.4l1.7-1.4l-0.9-2.1l2.2,0.9l1.4-1.8l0.4,2.3l2.3,0.4l-1.7,1.4l0.9,2.1L79.5,51L78.1,52.7z
	 M57.7,74.8l0.1-2.5l-2.3-1l2.2-1l-0.4-2.5l2,1.4l1.9-1.5l-0.1,2.5l2.2,1l-2.2,1l0.4,2.4l-2-1.4L57.7,74.8z M62.3,37.6l0.2-2.5
	l-2.3-1l2.2-1L62,30.7l2,1.4l1.9-1.5l-0.1,2.5l2.3,1l-2.2,1l0.4,2.4l-2-1.4L62.3,37.6z M47.8,51.2l-1-2.1l-2.3,0.2l1.3-1.9l-1.5-1.9
	l2.4,0.3l0.9-2.1l1,2.2l2.4-0.2l-1.3,1.9l1.5,1.9l-2.4-0.3L47.8,51.2z"/>
<path class="st3" d="M72.4,36.2c0,0,6,2.1,3.8,7.4c-1.9,4.6-25.9,7.9-27.5,11.5c-1.2,2.8,8.2,4.9,8.2,4.9s-13.5-1.3-11.5-5.8
	C47.8,48.7,72,46.1,74.2,43C77,38.9,72.4,36.2,72.4,36.2L72.4,36.2z"/>
</svg>
