<?xml version="1.0" encoding="utf-8"?>
<!-- Generator: Adobe Illustrator 25.4.1, SVG Export Plug-In . SVG Version: 6.00 Build 0)  -->
<svg version="1.1" id="Layer_1" xmlns="http://www.w3.org/2000/svg" xmlns:xlink="http://www.w3.org/1999/xlink" x="0px" y="0px"
	 viewBox="0 0 77.4 80" style="enable-background:new 0 0 77.4 80;" xml:space="preserve">
<style type="text/css">
	.st0{fill:#D7202F;}
</style>
<path class="st0" d="M52.8,56.4l15.8-9.6l-6.1-0.4c-2.9-2.7-20,0.7-20,0.7L34.2,0l-7.1,3.7l10.1,28l-26.1,2.6l18.1,16.2L0,53.7
	l1,3.8L22.8,56L6,66.6l22.4-1.2l-14.8,8.1l3.4,2.9l23.2-11.8L49,80l11-14.1l10.3,11.4l7.1-2.6L52.8,56.4z M24.9,60.7l5.6-4.5
	l2.4,3.3L24.9,60.7z M32.9,39.3h-5.3l3.7,3.9l-0.5,2.3l-9.8-8.8h12.6L32.9,39.3z M49.7,73.5l-5.3-8.8h3l2.4,3.5l2.5-3.5h2.9
	L49.7,73.5z"/>
<path class="st0" d="M9,31.9c0,0.6,24.6-2.3,24.6-2.3L24.9,6.2c0,0-4.2,2.7-5.7,5.4l6.2,12.8h-14C11.4,24.4,9.2,27.3,9,31.9z"/>
<path class="st0" d="M12.2,21.9h9l-3.9-8.3C17.4,13.6,14.5,16.4,12.2,21.9z"/>
<polygon class="st0" points="9,36.7 9,41.6 14.5,46.6 9,46.6 9,50.5 22.8,48.6 "/>
<polygon class="st0" points="1.9,59.2 4.1,64.7 13.4,59.2 "/>
<polygon class="st0" points="7.7,69.1 11,72.4 17.7,69.1 "/>
<path class="st0" d="M29.9,73.5c0,0,2.4,3.4,3.7,3.3l3.9-3.3l3.1,5.6c0,0,2.6,0.8,3.8,0.5c1.2-0.3-5.7-12.2-5.7-12.2L29.9,73.5z"/>
<path class="st0" d="M52.3,80c1.4-1.2,7.9-10.9,7.9-10.9l7.7,9.6c0,0-3.5,0.4-3.9,0.3c-0.4-0.1-3.9-5.4-3.9-5.4L56.2,80H52.3z"/>
<path class="st0" d="M58.7,79.6l1.4-3l2.2,3C62.3,79.6,59.6,79.7,58.7,79.6z"/>
</svg>
