<?xml version="1.0" encoding="utf-8"?>
<!-- Generator: Adobe Illustrator 25.4.1, SVG Export Plug-In . SVG Version: 6.00 Build 0)  -->
<svg version="1.1" id="Layer_1" xmlns="http://www.w3.org/2000/svg" xmlns:xlink="http://www.w3.org/1999/xlink" x="0px" y="0px"
	 viewBox="0 0 238.8 80" style="enable-background:new 0 0 238.8 80;" xml:space="preserve">
<style type="text/css">
	.st0{fill:#D7202F;}
</style>
<g>
	<path class="st0" d="M50.6,54l15.1-9.2l-5.9-0.4C57.1,41.8,40.7,45,40.7,45L32.8,0L26,3.5l9.6,26.8l-25,2.5L28,48.3L0,51.4L0.9,55
		l20.9-1.4L5.7,63.7l21.5-1.2L13,70.4l3.3,2.7l22.2-11.3L47,76.6l10.5-13.5L67.4,74l6.8-2.5L50.6,54z M23.8,58.1l5.3-4.3l2.3,3.1
		L23.8,58.1z M31.5,37.6h-5.1l3.5,3.8l-0.5,2.2L20,35.1h12.1L31.5,37.6z M47.6,70.4l-5.1-8.5h2.9l2.3,3.4l2.4-3.4h2.7L47.6,70.4z"/>
	<path class="st0" d="M8.6,30.6c0,0.5,23.5-2.2,23.5-2.2L23.8,6c0,0-4,2.6-5.5,5.2l6,12.2H10.9C10.9,23.4,8.8,26.1,8.6,30.6z"/>
	<path class="st0" d="M11.7,20.9h8.6L16.6,13C16.6,13,13.9,15.7,11.7,20.9z"/>
	<polygon class="st0" points="8.6,35.1 8.6,39.8 13.9,44.6 8.6,44.6 8.6,48.4 21.9,46.6 	"/>
	<polygon class="st0" points="1.8,56.7 3.9,61.9 12.9,56.7 	"/>
	<polygon class="st0" points="7.3,66.1 10.5,69.3 16.9,66.1 	"/>
	<path class="st0" d="M28.6,70.4c0,0,2.3,3.3,3.5,3.1l3.8-3.1l3,5.3c0,0,2.5,0.8,3.6,0.5c1.2-0.3-5.5-11.7-5.5-11.7L28.6,70.4z"/>
	<path class="st0" d="M50.1,76.6c1.3-1.2,7.5-10.5,7.5-10.5l7.4,9.2c0,0-3.4,0.4-3.8,0.3c-0.4-0.1-3.7-5.2-3.7-5.2l-3.7,6.2H50.1z"
		/>
	<path class="st0" d="M56.2,76.3l1.4-2.9l2.1,2.9C59.7,76.3,57.1,76.3,56.2,76.3z"/>
	<polygon class="st0" points="113.4,0 125.4,0 98.7,45.5 133.2,45.5 128.1,53.8 81.8,53.8 	"/>
	<polygon class="st0" points="128.8,0 103.3,43.6 134,43.6 137.9,37.3 118.5,37.3 140.2,0 	"/>
	<polygon class="st0" points="132.3,53.8 163.9,0 175.7,0 142.8,53.8 	"/>
	<polygon class="st0" points="140.2,63.1 177.8,2.2 183.8,63.1 173.8,63.1 170.6,32.6 150.6,63.1 	"/>
	<polygon class="st0" points="154.8,63.1 169.3,39.3 170.6,63.1 	"/>
	<polygon class="st0" points="180.4,0 185.7,52.2 215.6,0 205,0 192.9,21.8 190.7,0 	"/>
	<polygon class="st0" points="189.8,53.2 219,0 224.6,53.2 214.2,53.2 212.1,34.1 201.5,53.2 	"/>
	<polygon class="st0" points="222.3,0 227.9,53.2 238.8,53.2 233.5,0 	"/>
	<g>
		<path class="st0" d="M115.2,77v-7.4h0L113,77h-1.1l-2.2-7.4h0V77h-1.1v-9h1.8l2.1,7.1h0.1l2-7.1h1.9v9H115.2z"/>
		<path class="st0" d="M123.2,73.8c0,0.5-0.1,1-0.2,1.4c-0.1,0.4-0.3,0.8-0.5,1.1c-0.2,0.3-0.5,0.5-0.8,0.7
			c-0.3,0.2-0.7,0.2-1.1,0.2c-0.4,0-0.7-0.1-1-0.2c-0.3-0.2-0.6-0.4-0.8-0.7c-0.2-0.3-0.4-0.7-0.5-1.1c-0.1-0.4-0.2-0.9-0.2-1.4
			c0-0.5,0.1-1,0.2-1.4c0.1-0.4,0.3-0.8,0.5-1.1c0.2-0.3,0.5-0.5,0.8-0.7c0.3-0.2,0.7-0.2,1.1-0.2s0.7,0.1,1.1,0.2
			c0.3,0.2,0.6,0.4,0.8,0.7c0.2,0.3,0.4,0.7,0.5,1.1C123.1,72.8,123.2,73.3,123.2,73.8z M122,73.8c0-0.3,0-0.7-0.1-1
			c-0.1-0.3-0.1-0.6-0.2-0.8c-0.1-0.2-0.2-0.4-0.4-0.5c-0.2-0.1-0.4-0.2-0.6-0.2c-0.2,0-0.4,0.1-0.6,0.2c-0.2,0.1-0.3,0.3-0.4,0.5
			c-0.1,0.2-0.2,0.5-0.2,0.8c-0.1,0.3-0.1,0.6-0.1,1c0,0.3,0,0.7,0.1,1c0.1,0.3,0.1,0.6,0.2,0.8c0.1,0.2,0.2,0.4,0.4,0.5
			c0.2,0.1,0.4,0.2,0.6,0.2c0.2,0,0.4-0.1,0.6-0.2c0.2-0.1,0.3-0.3,0.4-0.5c0.1-0.2,0.2-0.5,0.2-0.8C122,74.5,122,74.1,122,73.8z"/>
		<path class="st0" d="M124.2,77V76l2.8-4.5h-2.6v-0.9h3.8v0.9l-2.8,4.5h2.8V77H124.2z"/>
		<path class="st0" d="M132.6,77c0-0.2-0.1-0.4-0.1-0.6c0-0.2,0-0.4,0-0.5h0c-0.1,0.4-0.3,0.7-0.5,0.9c-0.3,0.2-0.6,0.3-1.1,0.3
			c-0.2,0-0.4,0-0.6-0.1c-0.2-0.1-0.4-0.2-0.5-0.3c-0.2-0.2-0.3-0.3-0.4-0.6c-0.1-0.2-0.2-0.5-0.2-0.9c0-0.5,0.1-0.8,0.3-1.1
			c0.2-0.3,0.4-0.5,0.7-0.7c0.3-0.2,0.6-0.3,0.9-0.3c0.3-0.1,0.6-0.1,1-0.1h0.5v-0.3c0-0.5-0.1-0.9-0.3-1.1
			c-0.2-0.2-0.5-0.3-0.8-0.3c-0.3,0-0.5,0.1-0.7,0.2c-0.2,0.1-0.4,0.3-0.6,0.5l-0.6-0.7c0.2-0.3,0.5-0.5,0.9-0.7
			c0.4-0.2,0.7-0.2,1.1-0.2c0.4,0,0.7,0.1,1,0.2c0.3,0.1,0.5,0.3,0.7,0.5c0.2,0.2,0.3,0.5,0.4,0.8c0.1,0.3,0.1,0.7,0.1,1.1v2.6
			c0,0.2,0,0.5,0,0.7c0,0.3,0,0.5,0.1,0.6H132.6z M132.4,73.8h-0.5c-0.2,0-0.4,0-0.6,0.1c-0.2,0-0.4,0.1-0.5,0.2
			c-0.2,0.1-0.3,0.2-0.4,0.4s-0.1,0.4-0.1,0.6c0,0.4,0.1,0.7,0.3,0.9c0.2,0.2,0.4,0.3,0.6,0.3c0.2,0,0.4-0.1,0.6-0.2
			c0.2-0.1,0.3-0.3,0.4-0.5c0.1-0.2,0.2-0.4,0.2-0.7c0-0.2,0.1-0.5,0.1-0.7V73.8z"/>
		<path class="st0" d="M137.1,70.8c0.3-0.3,0.7-0.4,1.1-0.4c0.2,0,0.5,0,0.6,0.1c0.2,0.1,0.3,0.2,0.5,0.3c0.1,0.1,0.2,0.3,0.3,0.4
			c0.1,0.2,0.1,0.3,0.2,0.5h0c0.1-0.2,0.1-0.3,0.2-0.5c0.1-0.2,0.2-0.3,0.4-0.4c0.2-0.1,0.3-0.2,0.5-0.3c0.2-0.1,0.4-0.1,0.7-0.1
			c0.4,0,0.7,0.1,0.9,0.2c0.2,0.1,0.4,0.3,0.5,0.6s0.2,0.5,0.3,0.8c0,0.3,0.1,0.6,0.1,0.9V77h-1.2v-4.1c0-0.2,0-0.4,0-0.5
			c0-0.2-0.1-0.4-0.1-0.5c-0.1-0.2-0.2-0.3-0.3-0.4c-0.1-0.1-0.3-0.1-0.5-0.1c-0.2,0-0.4,0-0.5,0.1s-0.3,0.2-0.4,0.4
			c-0.1,0.2-0.2,0.4-0.3,0.6c-0.1,0.2-0.1,0.5-0.1,0.8V77h-1.2v-4.1c0-0.2,0-0.4,0-0.5c0-0.2-0.1-0.4-0.1-0.5
			c-0.1-0.2-0.2-0.3-0.3-0.4c-0.1-0.1-0.3-0.1-0.5-0.1c-0.2,0-0.4,0-0.5,0.1c-0.2,0.1-0.3,0.2-0.4,0.4c-0.1,0.2-0.2,0.4-0.3,0.6
			c-0.1,0.2-0.1,0.5-0.1,0.8V77h-1.2v-4.8c0-0.3,0-0.5,0-0.8c0-0.3,0-0.6,0-0.8h1.1c0,0.2,0,0.4,0.1,0.6c0,0.2,0,0.4,0,0.5h0
			C136.6,71.3,136.8,71,137.1,70.8z"/>
		<path class="st0" d="M145.4,67.4h1.2v4.1h0c0.1-0.3,0.3-0.6,0.6-0.8c0.3-0.2,0.6-0.3,1-0.3c0.4,0,0.7,0.1,1,0.2
			c0.3,0.2,0.5,0.4,0.7,0.7c0.2,0.3,0.3,0.7,0.4,1.1c0.1,0.4,0.1,0.9,0.1,1.3c0,0.5,0,1-0.1,1.4s-0.2,0.8-0.4,1.1
			c-0.2,0.3-0.4,0.5-0.7,0.7c-0.3,0.2-0.6,0.3-0.9,0.3c-0.5,0-0.8-0.1-1.1-0.3c-0.2-0.2-0.4-0.5-0.5-0.9h0v1h-1.1V67.4z M146.5,73.8
			c0,0.3,0,0.7,0.1,1c0.1,0.3,0.1,0.6,0.2,0.8c0.1,0.2,0.3,0.4,0.4,0.5c0.2,0.1,0.4,0.2,0.6,0.2c0.2,0,0.4-0.1,0.6-0.2
			c0.2-0.1,0.3-0.3,0.4-0.5c0.1-0.2,0.2-0.5,0.2-0.8c0.1-0.3,0.1-0.6,0.1-1c0-0.3,0-0.7-0.1-1c-0.1-0.3-0.1-0.6-0.2-0.8
			c-0.1-0.2-0.2-0.4-0.4-0.5c-0.2-0.1-0.4-0.2-0.6-0.2c-0.2,0-0.4,0.1-0.6,0.2c-0.2,0.1-0.3,0.3-0.4,0.5c-0.1,0.2-0.2,0.5-0.3,0.8
			C146.5,73.1,146.5,73.4,146.5,73.8z"/>
		<path class="st0" d="M153.3,68.7c0,0.2-0.1,0.4-0.2,0.5c-0.1,0.1-0.3,0.2-0.5,0.2c-0.2,0-0.4-0.1-0.5-0.2
			c-0.1-0.1-0.2-0.3-0.2-0.5c0-0.2,0.1-0.4,0.2-0.5c0.1-0.1,0.3-0.2,0.5-0.2c0.2,0,0.4,0.1,0.5,0.2
			C153.2,68.3,153.3,68.5,153.3,68.7z M152,77v-6.4h1.2V77H152z"/>
		<path class="st0" d="M159.8,80h-1.2v-4h0c-0.1,0.3-0.3,0.6-0.6,0.8c-0.3,0.2-0.6,0.3-1,0.3c-0.4,0-0.7-0.1-1-0.3
			c-0.3-0.2-0.5-0.4-0.7-0.7c-0.2-0.3-0.3-0.7-0.4-1.1c-0.1-0.4-0.1-0.9-0.1-1.4s0-0.9,0.1-1.4c0.1-0.4,0.2-0.8,0.4-1.1
			c0.2-0.3,0.4-0.5,0.7-0.7c0.3-0.2,0.6-0.3,0.9-0.3c0.5,0,0.8,0.1,1.1,0.3c0.2,0.2,0.4,0.5,0.5,0.9h0v-1h1.1V80z M158.7,73.8
			c0-0.3,0-0.7-0.1-1c-0.1-0.3-0.1-0.6-0.2-0.8c-0.1-0.2-0.3-0.4-0.4-0.5c-0.2-0.1-0.4-0.2-0.6-0.2c-0.2,0-0.4,0.1-0.6,0.2
			c-0.2,0.1-0.3,0.3-0.4,0.5c-0.1,0.2-0.2,0.5-0.2,0.8c-0.1,0.3-0.1,0.6-0.1,1c0,0.3,0,0.7,0.1,1s0.1,0.6,0.2,0.8
			c0.1,0.2,0.2,0.4,0.4,0.5c0.2,0.1,0.4,0.2,0.6,0.2c0.2,0,0.4-0.1,0.6-0.2c0.2-0.1,0.3-0.3,0.4-0.5c0.1-0.2,0.2-0.5,0.3-0.8
			C158.6,74.4,158.7,74.1,158.7,73.8z"/>
		<path class="st0" d="M162.9,70.6v4.1c0,0.2,0,0.4,0,0.5c0,0.2,0.1,0.4,0.1,0.5c0.1,0.2,0.2,0.3,0.3,0.4c0.1,0.1,0.3,0.1,0.5,0.1
			c0.2,0,0.4,0,0.5-0.1c0.2-0.1,0.3-0.2,0.4-0.4c0.1-0.2,0.2-0.4,0.3-0.6c0.1-0.2,0.1-0.5,0.1-0.8v-3.6h1.2v4.8c0,0.3,0,0.5,0,0.8
			c0,0.3,0,0.6,0,0.8h-1.1c0-0.2,0-0.4-0.1-0.6c0-0.2,0-0.4,0-0.5h0c-0.1,0.4-0.3,0.7-0.6,0.9c-0.3,0.3-0.7,0.4-1.1,0.4
			c-0.4,0-0.7-0.1-0.9-0.2c-0.2-0.1-0.4-0.3-0.5-0.6c-0.1-0.2-0.2-0.5-0.3-0.8c0-0.3-0.1-0.6-0.1-0.9v-4.1H162.9z"/>
		<path class="st0" d="M169.3,74.1c0,0.3,0,0.6,0.1,0.9c0.1,0.3,0.1,0.5,0.3,0.7c0.1,0.2,0.3,0.3,0.4,0.5c0.2,0.1,0.4,0.2,0.6,0.2
			c0.3,0,0.6-0.1,0.7-0.3c0.2-0.2,0.3-0.4,0.4-0.6l0.9,0.5c-0.2,0.4-0.4,0.7-0.8,1c-0.3,0.3-0.8,0.4-1.3,0.4c-0.8,0-1.4-0.3-1.9-0.9
			c-0.5-0.6-0.7-1.4-0.7-2.5c0-0.5,0.1-1,0.2-1.4c0.1-0.4,0.3-0.8,0.5-1.1c0.2-0.3,0.5-0.5,0.8-0.7c0.3-0.2,0.7-0.2,1-0.2
			c0.4,0,0.8,0.1,1.1,0.2s0.5,0.4,0.7,0.7c0.2,0.3,0.3,0.6,0.4,1c0.1,0.4,0.1,0.8,0.1,1.2v0.5H169.3z M171.7,73.2
			c0-0.6-0.1-1-0.3-1.3c-0.2-0.3-0.5-0.5-0.9-0.5c-0.2,0-0.4,0.1-0.6,0.2c-0.2,0.1-0.3,0.3-0.4,0.5c-0.1,0.2-0.2,0.4-0.2,0.6
			c0,0.2-0.1,0.4-0.1,0.6H171.7z"/>
		<path class="st0" d="M181.2,77l-0.6-2.1h-2.8l-0.6,2.1H176l2.5-9h1.6l2.4,9H181.2z M179.3,69.1L179.3,69.1L178,74h2.5L179.3,69.1z
			"/>
		<path class="st0" d="M184.9,68.7c0,0.2-0.1,0.4-0.2,0.5c-0.1,0.1-0.3,0.2-0.5,0.2c-0.2,0-0.4-0.1-0.5-0.2
			c-0.1-0.1-0.2-0.3-0.2-0.5c0-0.2,0.1-0.4,0.2-0.5c0.1-0.1,0.3-0.2,0.5-0.2c0.2,0,0.4,0.1,0.5,0.2
			C184.9,68.3,184.9,68.5,184.9,68.7z M183.6,77v-6.4h1.2V77H183.6z"/>
		<path class="st0" d="M188.6,70.7c0.3-0.2,0.6-0.4,0.9-0.4c0.1,0,0.1,0,0.2,0l-0.1,1.1c0,0-0.1,0-0.1,0c0,0-0.1,0-0.1,0
			c-0.2,0-0.4,0.1-0.6,0.2c-0.2,0.1-0.3,0.3-0.4,0.5c-0.1,0.2-0.2,0.4-0.3,0.7c-0.1,0.3-0.1,0.5-0.1,0.8V77h-1.2v-4.8
			c0-0.3,0-0.5,0-0.8s0-0.6,0-0.8h1.1c0,0.2,0,0.4,0.1,0.7c0,0.2,0,0.4,0,0.7h0C188.1,71.4,188.3,71,188.6,70.7z"/>
		<path class="st0" d="M190.7,77v-9.6h1.2V77H190.7z"/>
		<path class="st0" d="M195.2,68.7c0,0.2-0.1,0.4-0.2,0.5c-0.1,0.1-0.3,0.2-0.5,0.2c-0.2,0-0.4-0.1-0.5-0.2
			c-0.1-0.1-0.2-0.3-0.2-0.5c0-0.2,0.1-0.4,0.2-0.5c0.1-0.1,0.3-0.2,0.5-0.2c0.2,0,0.4,0.1,0.5,0.2
			C195.2,68.3,195.2,68.5,195.2,68.7z M193.9,77v-6.4h1.2V77H193.9z"/>
		<path class="st0" d="M200.6,77v-4.1c0-0.2,0-0.4,0-0.5c0-0.2-0.1-0.4-0.1-0.5c-0.1-0.2-0.2-0.3-0.3-0.4c-0.1-0.1-0.3-0.1-0.5-0.1
			c-0.2,0-0.4,0-0.5,0.1c-0.2,0.1-0.3,0.2-0.4,0.4c-0.1,0.2-0.2,0.4-0.3,0.6c-0.1,0.2-0.1,0.5-0.1,0.8V77h-1.2v-4.8
			c0-0.3,0-0.5,0-0.8c0-0.3,0-0.6,0-0.8h1.1c0,0.2,0,0.4,0.1,0.6c0,0.2,0,0.4,0,0.5h0c0.1-0.4,0.3-0.7,0.6-0.9
			c0.3-0.3,0.7-0.4,1.1-0.4c0.4,0,0.7,0.1,0.9,0.2c0.2,0.1,0.4,0.3,0.5,0.6s0.2,0.5,0.3,0.8c0,0.3,0.1,0.6,0.1,0.9V77H200.6z"/>
		<path class="st0" d="M204.6,74.1c0,0.3,0,0.6,0.1,0.9c0.1,0.3,0.1,0.5,0.3,0.7c0.1,0.2,0.3,0.3,0.4,0.5c0.2,0.1,0.4,0.2,0.6,0.2
			c0.3,0,0.6-0.1,0.7-0.3c0.2-0.2,0.3-0.4,0.4-0.6l0.9,0.5c-0.2,0.4-0.4,0.7-0.8,1c-0.3,0.3-0.8,0.4-1.3,0.4c-0.8,0-1.4-0.3-1.9-0.9
			c-0.5-0.6-0.7-1.4-0.7-2.5c0-0.5,0.1-1,0.2-1.4c0.1-0.4,0.3-0.8,0.5-1.1c0.2-0.3,0.5-0.5,0.8-0.7c0.3-0.2,0.7-0.2,1-0.2
			c0.4,0,0.8,0.1,1.1,0.2c0.3,0.2,0.5,0.4,0.7,0.7c0.2,0.3,0.3,0.6,0.4,1c0.1,0.4,0.1,0.8,0.1,1.2v0.5H204.6z M207.1,73.2
			c0-0.6-0.1-1-0.3-1.3c-0.2-0.3-0.5-0.5-0.9-0.5c-0.2,0-0.4,0.1-0.6,0.2c-0.2,0.1-0.3,0.3-0.4,0.5c-0.1,0.2-0.2,0.4-0.2,0.6
			c0,0.2-0.1,0.4-0.1,0.6H207.1z"/>
		<path class="st0" d="M212.6,71.8c-0.1-0.2-0.3-0.3-0.5-0.4c-0.2-0.1-0.4-0.2-0.7-0.2c-0.3,0-0.5,0.1-0.7,0.3
			c-0.2,0.2-0.3,0.4-0.3,0.7s0.1,0.5,0.3,0.6c0.2,0.1,0.5,0.3,0.8,0.4c0.2,0.1,0.4,0.2,0.6,0.2c0.2,0.1,0.4,0.2,0.5,0.4
			c0.2,0.2,0.3,0.3,0.4,0.5c0.1,0.2,0.1,0.5,0.1,0.7c0,0.3-0.1,0.6-0.2,0.9c-0.1,0.3-0.3,0.5-0.4,0.6c-0.2,0.2-0.4,0.3-0.7,0.4
			c-0.3,0.1-0.5,0.1-0.8,0.1c-0.4,0-0.8-0.1-1.1-0.2c-0.3-0.2-0.6-0.4-0.9-0.6l0.7-0.7c0.2,0.2,0.3,0.3,0.6,0.5
			c0.2,0.1,0.5,0.2,0.8,0.2c0.3,0,0.5-0.1,0.7-0.3c0.2-0.2,0.3-0.4,0.3-0.8c0-0.2,0-0.3-0.1-0.5c-0.1-0.1-0.2-0.2-0.3-0.3
			c-0.1-0.1-0.2-0.2-0.4-0.2c-0.2-0.1-0.3-0.1-0.5-0.2c-0.2-0.1-0.3-0.1-0.5-0.2c-0.2-0.1-0.3-0.2-0.5-0.3c-0.1-0.1-0.2-0.3-0.3-0.5
			c-0.1-0.2-0.1-0.4-0.1-0.7c0-0.3,0.1-0.5,0.2-0.8c0.1-0.2,0.2-0.4,0.4-0.6c0.2-0.2,0.4-0.3,0.6-0.4c0.2-0.1,0.5-0.1,0.8-0.1
			c0.4,0,0.8,0.1,1.1,0.2c0.3,0.1,0.5,0.3,0.7,0.5L212.6,71.8z"/>
	</g>
</g>
</svg>
