<?xml version="1.0" encoding="utf-8"?>
<!-- Generator: Adobe Illustrator 25.4.1, SVG Export Plug-In . SVG Version: 6.00 Build 0)  -->
<svg version="1.1" id="Layer_2_00000159471598350358213750000014612203606435250611_"
	 xmlns="http://www.w3.org/2000/svg" xmlns:xlink="http://www.w3.org/1999/xlink" x="0px" y="0px" viewBox="0 0 83.2 80"
	 style="enable-background:new 0 0 83.2 80;" xml:space="preserve">
<style type="text/css">
	.st0{fill:#2DCCD3;}
</style>
<g>
	<path id="path7378" class="st0" d="M81.9,51.2c-1.5-2.4-2.5-3.6-3.1-4.1c-2.8-2.4-5.4-3.4-7.6-4.4c-0.4-0.2-0.8-0.4-1.8-0.7
		c-5.6-2.4-9.9-2.8-12.6-2.9h0c-1-0.1-2.5,0.1-3.1,0.2c-0.3,0-0.7,0.1-1.2,0.3c-0.3,0.1-0.6,0.2-1,0.5c0.2-0.2,0.6-0.4,1.1-0.7
		c0.7-0.3,1.1-0.4,1.1-0.4c0,0,0.1,0,0.1,0c0,0,8.9-2.3,17.7-7.2c4.6-2.6,8.4-4.7,8.1-7.1c-0.3-2.5-5.1-4.6-9.1-4.2
		c-1.5,0.1-2.6,0.6-3.7,1c-2.8,1.1-3.5,2.2-7.8,5.6c-3.9,3-4.8,3.3-6.7,5.4c-1.3,1.4-2.5,3.3-2.7,3.6c-0.3,0.3-1.3,1.2-1.1,1.7
		c0.1,0.2,0.6,0.2,1,0.6c0.1,0.1,0.4,0.8,0.6,0.9c0.3,0.3,0.5,0.1,0.6,0.4c0,0.2-0.1,0.3,0,0.5c0.1,0.3,0.1,0.3,0.2,0.5
		c0,0.1,0,0.4-0.2,0.5c-0.2,0.2-0.5,0-0.9,0.3c-0.2,0.1-0.3,0.3-0.3,0.6c0,0.2,0.1,0.5,0.4,0.6c0,0,0.1,0,0.6,0.1
		c0.6,0.1,1.2,0.8,1.3,1c0,0,0,0,0,0c4.4,6.4,21.5,11.8,21.5,11.8c0.8,0.3,8.2,2.3,9.9-0.3C83.6,54.1,82.5,52.1,81.9,51.2"/>
	<path id="path7382" class="st0" d="M54.8,48.3c-0.5-1.2-0.8-1.6-1.2-1.9c-0.5-0.5-0.8-0.6-1.3-1.1c0,0-0.1-0.1-0.1-0.2
		c-0.3-0.3-0.4-0.5-0.8-1c-0.2-0.3-0.4-0.4-0.5-0.6c-0.2-0.2-0.3-0.3-0.5-0.4c-0.4-0.2-1-0.3-1.5-0.2c-0.6,0.1-0.7,0.4-1.1,0.3
		c-0.3-0.1-0.3-0.2-0.6-0.5c-0.5-0.3-0.8-0.2-1.2-0.4c-0.5-0.2-0.9-0.9-1.1-1.4c-0.2-0.7-0.2-1.2,0.1-1.8c0.1-0.3,0.4-0.6,0.6-0.8
		c0.3-0.2,0.8-0.4,1.1-0.5c0.3-0.1,0.5-0.2,0.6-0.5c0.1-0.2,0.1-0.4,0.2-0.6c0,0,0.1-0.2,0.3-0.4c0.3-0.3,0.5-0.4,0.9-0.7
		c0.2-0.1,0.3-0.3,0.5-0.5C50.6,34.1,52,31,52,31c0.4-1,1-2.5,1.8-4.3c3.5-7.6,4.9-8,5.8-11.9c0.4-1.7,1.5-6.3-0.6-10.9
		c-0.8-1.7-1.8-3-2.6-3.8C56.3,0.1,56.1,0,55.9,0c0,0-0.4,0-0.8,0.4c-3.8,3.1-7.3,12.7-7.3,12.7c-2.2,6-3.2,8-4.3,12.4
		c-0.6,2.3-1.1,4.8-0.4,7.8c0.4,1.7,1.1,3,1,3.1c-0.3-0.5-1.6-3.2-2.9-6.2c-0.8-1.9-1-2.5-2.2-5.2c-0.6-1.6-1.2-3-2.5-5.9
		c-4.5-10.3-6-12.2-7.1-13.4C28,4,26.5,2.4,24.6,2.6c-2.5,0.3-3.8,4-4,4.5c-0.2,0.6-0.3,1.2-0.4,1.8c-0.4,3.1,0.9,5.9,1.4,7.2
		c0.2,0.4,0.4,0.8,0.7,1.2c0.6,0.9,1.4,2,2.6,3.7c1.7,2.3,4.8,5.9,5.9,7.1c0.1,0.1,0.6,0.7,1.2,1.4c0.1,0.2,0.3,0.4,0.5,0.7
		c0.4,0.6,0.8,1.2,1.3,1.9c0.7,0.9,1.5,1.8,2.5,2.6c1.3,1,2.6,1.7,3.5,2.1c-1-0.4-2.8-1.1-5.6-2.3c-2.7-1.2-5.7-2.5-9.6-4.5
		c-5.1-2.6-9.2-5-14.3-6.7c-0.1,0-2.3-0.7-5.1-0.7c-1.4,0-2.9,0-3.9,0.6c-0.3,0.2-0.6,0.4-0.8,0.7c-1.4,2.3,0.8,5.5,2,7.4
		c1.7,2.5,3.7,4.7,6.2,6.4c5.4,3.8,12,5.5,18.5,6.6c7.1,1.2,12.2,0.2,12.3,0.2c0,0,1.6-0.4,1.6-0.4c0,0,0,0.3-0.4,0.4
		c-0.9,0.3-1,0.3-1.4,0.4l0,0c-1.4,0.3-2.2,0.7-5.2,2.1c-1.2,0.5-2.9,1.2-5.3,2.2c-5.3,2.2-5.4,2.4-7.9,3.8
		c-4.9,2.7-5.7,3.6-6.5,4.2c-2.1,1.7-5.5,5.8-5.7,8.8c0,0.7,0.2,1,0.6,1.4c2,1.8,6.2,1.7,7.8,1.6c5.5-0.3,8.3-1.8,10.6-3.1
		c2.4-1.4,4.6-3.1,5-3.4c0.8-0.6,1.4-1.1,3.2-2.7c1-0.9,3.5-3.4,4.4-4.3c3.9-4,4-4.8,4.6-5.6c0.1-0.1,0.1-0.2,0.2-0.3
		c0.2-0.3,0.4-0.6,1-1.3c0.4-0.5,0.7-1,0.7-1.1c0,0.1-0.1,0.7-0.5,1.3c-0.1,0.2-0.2,0.3-0.3,0.5c-0.2,0.3-0.6,1-0.9,1.6
		c-1.1,2.1-0.8,3.4-0.7,4c1.5,6.5,2.6,16.1,8.4,22.3c2.3,2.5,4.7,3.8,7.1,2.8c0.6-0.3,1.6-4.3,1.8-10c0.3-7.6-4-14.6-6.2-19.1
		C55.5,49.9,55.2,49.1,54.8,48.3"/>
</g>
</svg>
