<?xml version="1.0" encoding="utf-8"?>
<!-- Generator: Adobe Illustrator 25.4.1, SVG Export Plug-In . SVG Version: 6.00 Build 0)  -->
<svg version="1.1" id="Layer_2_00000159471598350358213750000014612203606435250611_"
	 xmlns="http://www.w3.org/2000/svg" xmlns:xlink="http://www.w3.org/1999/xlink" x="0px" y="0px" viewBox="0 0 122.5 80"
	 style="enable-background:new 0 0 122.5 80;" xml:space="preserve">
<style type="text/css">
	.st0{fill:#2DCCD3;}
</style>
<g id="g7785" transform="translate(2.0000414,-1.4913581)">
	<path id="path7330" class="st0" d="M13.3,69.7h-1c0,0-0.1,0-0.1,0.1v10.5c0,0,0,0.1,0.1,0.1h1.8c0,0,0.1,0,0.1-0.1v-9.7
		C14.2,70.1,13.8,69.7,13.3,69.7"/>
	<path id="path7334" class="st0" d="M67.1,69.7h-1c0,0-0.1,0-0.1,0.1v10.5c0,0,0,0.1,0.1,0.1h1.8c0,0,0.1,0,0.1-0.1v-9.7
		C67.9,70.1,67.5,69.7,67.1,69.7"/>
	<path id="path7338" class="st0" d="M83.7,69.7h-1c0,0-0.1,0-0.1,0.1v10.5c0,0,0,0.1,0.1,0.1h1.8c0,0,0.1,0,0.1-0.1v-9.7
		C84.6,70.1,84.2,69.7,83.7,69.7"/>
	<path id="path7342" class="st0" d="M119.6,69.7h-1c0,0-0.1,0-0.1,0.1v10.5c0,0,0,0.1,0.1,0.1h1.8c0,0,0.1,0,0.1-0.1v-9.7
		C120.5,70.1,120.1,69.7,119.6,69.7"/>
	<path id="path7346" class="st0" d="M36.3,69.4h4.4c0.4,0,0.5-0.2,0.5-0.5v-0.5c0,0,0-0.1-0.1-0.1H30.6c0,0-0.1,0-0.1,0.1v0.9
		c0,0,0,0.1,0.1,0.1h4.2v10.9c0,0,0,0.1,0.1,0.1h1.9c0,0,0.1,0,0.1-0.1v-9.9C36.9,70,36.6,69.6,36.3,69.4"/>
	<path id="path7350" class="st0" d="M4.7,69.1c-0.3-0.6-0.5-0.7-0.8-0.7H3.6c0,0-0.1,0-0.1,0.1L-2,80.3c0,0,0,0.1,0,0.1H-1
		c0,0,0.1,0,0.1-0.1l1.7-3.8h3.9c0.3,0,0.5-0.1,0.6-0.4l0.2-0.4l2.1,4.6c0,0,0.1,0.1,0.1,0.1h2c0,0,0.1,0,0-0.1L4.7,69.1z M1.3,75.5
		l2.1-4.7l2.1,4.7H1.3z"/>
	<path id="path7354" class="st0" d="M62.1,69.7h-1.8c0,0-0.1,0-0.1,0.1v4.7h-5.1v-3.9c0-0.5-0.4-0.9-0.9-0.9h-1c0,0-0.1,0-0.1,0.1
		v10.5c0,0,0,0.1,0.1,0.1H55c0,0,0.1,0,0.1-0.1v-4.9h5.1v4.9c0,0,0,0.1,0.1,0.1h1.8c0,0,0.1,0,0.1-0.1L62.1,69.7
		C62.2,69.7,62.1,69.7,62.1,69.7"/>
	<path id="path7358" class="st0" d="M46,70.3c-0.2-0.4-0.4-0.6-0.7-0.6h-0.3c0,0-0.1,0-0.1,0.1l-4.8,10.5c0,0,0,0.1,0,0.1H41
		c0,0,0.1,0,0.1-0.1l1.5-3.4h3.4c0.3,0,0.4-0.1,0.5-0.4l0.2-0.4l1.9,4.2c0,0,0.1,0.1,0.1,0.1h1.9c0,0,0.1,0,0-0.1L46,70.3z M43.1,76
		l1.8-4l1.9,4H43.1z"/>
	<path id="path7362" class="st0" d="M80,69.7h-9.4c0,0-0.1,0-0.1,0.1v0.7c0,0,0,0.1,0.1,0.1h3.7v9.7c0,0,0,0.1,0.1,0.1h1.8
		c0,0,0.1,0,0.1-0.1v-8.9c0-0.4-0.2-0.7-0.6-0.8h4c0.3,0,0.4-0.1,0.4-0.4L80,69.7C80,69.7,80,69.7,80,69.7"/>
	<path id="path7366" class="st0" d="M115,69.7h-0.8c0,0-0.1,0-0.1,0.1v6.7c0,2.2-1.1,3.3-3.2,3.3c-2.4,0-3.2-1.4-3.2-3.3v-5.9
		c0-0.5-0.4-0.9-0.9-0.9h-1c0,0-0.1,0-0.1,0.1v6.9c0,2.4,1.8,4,5.1,4c2.7,0,4.3-1.5,4.3-4.1L115,69.7C115.1,69.7,115,69.7,115,69.7"
		/>
	<path id="path7370" class="st0" d="M29.6,81c-0.1,0-0.2,0-0.4,0c-2.7,0-5.2-3.7-6-5.6c1.5-0.4,2.3-1.4,2.3-2.7c0-1.9-1.5-3-4.1-3
		H18c0,0-0.1,0-0.1,0.1v10.5c0,0,0,0.1,0.1,0.1h1.8c0,0,0.1,0,0.1-0.1v-4.6h1.3c1.1,2.7,3.7,5.8,6.8,5.8
		C28.9,81.5,29.7,81.3,29.6,81C29.7,81,29.7,81,29.6,81 M21.2,74.8h-1.3v-4.3h1.3c1.6,0,2.2,0.9,2.2,2.1
		C23.5,74,22.9,74.8,21.2,74.8"/>
	<path id="path7374" class="st0" d="M102.1,68.4h-1c0,0-0.1,0-0.1,0.1v8.7l-6.9-8c-0.4-0.5-0.7-0.7-1.2-0.7h-0.5c0,0-0.1,0-0.1,0.1
		v11.8c0,0,0,0.1,0.1,0.1h1c0,0,0.1,0,0.1-0.1v-8.8l7.7,8.9c0,0,0.1,0.1,0.1,0.1h0.8c0,0,0.1,0,0.1-0.1L102.1,68.4
		C102.2,68.4,102.1,68.4,102.1,68.4"/>
	<path id="path7378" class="st0" d="M88.1,37.7c-1.1-1.7-1.8-2.5-2.2-2.9c-2-1.7-3.8-2.4-5.4-3.1c-0.3-0.1-0.6-0.3-1.2-0.5
		c-3.9-1.7-7-2-8.9-2.1h0c-0.7,0-1.7,0.1-2.2,0.1c-0.2,0-0.5,0.1-0.9,0.2c-0.2,0.1-0.4,0.2-0.7,0.3c0.2-0.1,0.4-0.3,0.8-0.5
		c0.5-0.2,0.8-0.3,0.8-0.3c0,0,0,0,0,0c0,0,6.3-1.6,12.5-5.1c3.2-1.8,5.9-3.4,5.7-5c-0.2-1.7-3.6-3.2-6.5-3
		c-1.1,0.1-1.8,0.4-2.6,0.7c-2,0.8-2.5,1.6-5.5,4c-2.7,2.1-3.4,2.3-4.8,3.8c-0.9,1-1.7,2.3-1.9,2.5c-0.2,0.2-1,0.8-0.7,1.2
		c0.1,0.1,0.4,0.1,0.7,0.4c0.1,0.1,0.3,0.5,0.4,0.7c0.2,0.2,0.3,0.1,0.4,0.3c0,0.1-0.1,0.2,0,0.4c0.1,0.2,0.1,0.2,0.1,0.4
		c0,0.1,0,0.3-0.1,0.4c-0.1,0.1-0.3,0-0.6,0.2c-0.2,0.1-0.2,0.2-0.2,0.4c0,0.1,0.1,0.3,0.3,0.4c0,0,0.1,0,0.4,0.1
		c0.5,0.1,0.8,0.6,0.9,0.7c0,0,0,0,0,0c3.1,4.5,15.2,8.3,15.2,8.3c0.6,0.2,5.8,1.6,7-0.2C89.3,39.8,88.5,38.3,88.1,37.7"/>
	<path id="path7382" class="st0" d="M68.9,35.6c-0.4-0.9-0.6-1.2-0.8-1.4c-0.3-0.3-0.6-0.4-0.9-0.7c0,0-0.1-0.1-0.1-0.1
		c-0.2-0.2-0.3-0.4-0.6-0.7c-0.2-0.2-0.3-0.3-0.4-0.4c-0.1-0.1-0.2-0.2-0.3-0.3c-0.3-0.1-0.7-0.2-1.1-0.1c-0.4,0.1-0.5,0.3-0.8,0.2
		c-0.2-0.1-0.2-0.2-0.4-0.3c-0.3-0.2-0.6-0.2-0.9-0.3c-0.4-0.1-0.7-0.7-0.7-1c-0.1-0.5-0.1-0.9,0.1-1.3c0.1-0.2,0.3-0.4,0.4-0.6
		c0.2-0.2,0.5-0.3,0.8-0.4c0.2,0,0.4-0.2,0.5-0.3c0.1-0.1,0.1-0.3,0.1-0.4c0,0,0.1-0.2,0.2-0.3c0.2-0.2,0.3-0.3,0.6-0.5
		c0.1-0.1,0.2-0.2,0.4-0.4c0.8-0.9,1.8-3,1.8-3c0.3-0.7,0.7-1.7,1.3-3c2.4-5.4,3.4-5.7,4.1-8.4c0.3-1.2,1.1-4.4-0.5-7.7
		c-0.6-1.2-1.3-2.1-1.8-2.7c-0.1-0.1-0.2-0.1-0.4-0.1c0,0-0.3,0-0.6,0.3c-2.7,2.2-5.1,9-5.1,9c-1.5,4.2-2.2,5.6-3,8.8
		c-0.4,1.6-0.8,3.4-0.3,5.5c0.3,1.2,0.8,2.2,0.7,2.2c-0.2-0.3-1.2-2.3-2.1-4.4c-0.6-1.3-0.7-1.7-1.5-3.7C57.4,18,57,17,56.1,15
		c-3.2-7.3-4.3-8.6-5.1-9.5c-1.1-1.2-2.2-2.4-3.5-2.2c-1.8,0.2-2.7,2.8-2.8,3.2c-0.1,0.4-0.2,0.8-0.3,1.3c-0.3,2.2,0.6,4.2,1,5.1
		c0.1,0.3,0.3,0.6,0.5,0.9c0.4,0.7,1,1.4,1.9,2.6c1.2,1.6,3.4,4.2,4.2,5c0.1,0.1,0.4,0.5,0.9,1c0.1,0.1,0.2,0.3,0.4,0.5
		c0.3,0.4,0.6,0.9,0.9,1.4c0.5,0.6,1,1.3,1.8,1.9c0.9,0.7,1.8,1.2,2.5,1.5c-0.7-0.3-2-0.8-3.9-1.6c-1.9-0.8-4-1.8-6.8-3.2
		c-3.6-1.8-6.5-3.5-10.1-4.8c-0.1,0-1.6-0.5-3.6-0.5c-1,0-2.1,0-2.8,0.4c-0.2,0.1-0.4,0.3-0.6,0.5c-1,1.6,0.5,3.9,1.4,5.2
		c1.2,1.8,2.6,3.3,4.4,4.5c3.8,2.7,8.5,3.9,13,4.7c5,0.9,8.7,0.2,8.7,0.2c0,0,1.2-0.3,1.2-0.3c0,0,0,0.2-0.3,0.3
		c-0.6,0.2-0.7,0.2-1,0.3l0,0c-1,0.2-1.5,0.5-3.7,1.5c-0.9,0.4-2.1,0.8-3.8,1.6c-3.7,1.6-3.8,1.7-5.6,2.7c-3.4,1.9-4,2.6-4.6,3
		c-1.5,1.2-3.9,4.1-4,6.2c0,0.5,0.2,0.7,0.4,1c1.4,1.3,4.4,1.2,5.5,1.1c3.9-0.2,5.9-1.3,7.5-2.2c1.7-1,3.2-2.2,3.5-2.4
		c0.5-0.4,1-0.8,2.3-1.9c0.7-0.6,2.5-2.4,3.1-3c2.7-2.9,2.8-3.4,3.3-3.9c0-0.1,0.1-0.1,0.1-0.2c0.2-0.2,0.3-0.5,0.7-1
		c0.3-0.3,0.5-0.7,0.5-0.8c0,0.1,0,0.5-0.3,0.9c-0.1,0.1-0.1,0.2-0.2,0.4c-0.2,0.2-0.4,0.7-0.6,1.1c-0.7,1.5-0.6,2.4-0.5,2.9
		c1.1,4.6,1.8,11.4,5.9,15.8c1.6,1.7,3.3,2.7,5.1,2c0.4-0.2,1.1-3.1,1.3-7.1c0.2-5.4-2.8-10.3-4.4-13.5
		C69.4,36.7,69.2,36.2,68.9,35.6"/>
</g>
</svg>
