<svg width="80" height="80" viewBox="0 0 80 80" fill="none" xmlns="http://www.w3.org/2000/svg">
<path d="M80 40C80 17.6952 62.3464 0 40 0C17.6536 0 0 17.6952 0 40C0 62.3048 17.6536 80 40 80C62.3464 80 80 62.2305 80 40Z" fill="#00D66C"/>
<path d="M57.6535 45.7247H55.4189C53.1843 45.7247 52.2159 46.9143 51.918 49.2191C51.3221 53.457 47.9701 56.3567 43.5753 56.3567C38.4357 56.3567 35.1582 52.5648 35.1582 47.1373V34.3492C35.1582 33.8288 35.0837 33.3827 34.9347 33.0109C35.3817 33.234 35.9776 33.3083 36.648 33.3083H48.417C50.6517 33.3083 51.918 32.0444 51.918 29.8139V28.773C51.918 26.5425 50.6517 25.2786 48.417 25.2786H41.7876V18.0667C41.7876 15.8362 40.5213 14.5723 38.2867 14.5723H36.648C34.4133 14.5723 33.147 15.8362 33.147 18.0667V29.8883C33.147 30.4087 33.2215 30.8548 33.3705 31.2265C32.8491 31.0035 32.2532 30.8548 31.6573 30.9291H19.7392C17.5046 30.9291 16.2383 32.1931 16.2383 34.4236V35.4645C16.2383 37.6949 17.5046 38.9589 19.7392 38.9589H26.4431V47.1373C26.4431 57.4719 33.0725 64.6838 43.5753 64.6838C53.3333 64.6838 59.7392 58.5128 60.931 49.2191C61.229 46.9143 59.6647 45.7247 57.6535 45.7247Z" fill="white"/>
</svg>
