<svg width="447" height="80" viewBox="0 0 447 80" fill="none" xmlns="http://www.w3.org/2000/svg">
<path d="M79.8513 40C79.8513 17.6952 62.2305 0 39.9257 0C17.6208 0 0 17.6952 0 40C0 62.3048 17.6208 80 39.9257 80C62.2305 80 79.8513 62.2305 79.8513 40Z" fill="#00D66C"/>
<path d="M57.5453 45.7246H55.3148C53.0843 45.7246 52.1178 46.9142 51.8204 49.219C51.2256 53.4569 47.8799 56.3566 43.4933 56.3566C38.3632 56.3566 35.0918 52.5647 35.0918 47.1372V34.3491C35.0918 33.8287 35.0174 33.3826 34.8687 33.0109C35.3148 33.2339 35.9096 33.3082 36.5788 33.3082H48.326C50.5565 33.3082 51.8204 32.0443 51.8204 29.8138V28.7729C51.8204 26.5424 50.5565 25.2785 48.326 25.2785H41.7089V18.0666C41.7089 15.8361 40.4449 14.5722 38.2145 14.5722H36.5788C34.3483 14.5722 33.0843 15.8361 33.0843 18.0666V29.8882C33.0843 30.4086 33.1587 30.8547 33.3074 31.2265C32.787 31.0034 32.1922 30.8547 31.5974 30.9291H19.7015C17.471 30.9291 16.207 32.193 16.207 34.4235V35.4644C16.207 37.6949 17.471 38.9588 19.7015 38.9588H26.3929V47.1372C26.3929 57.4718 33.01 64.6837 43.4933 64.6837C53.233 64.6837 59.6271 58.5127 60.8167 49.219C61.1141 46.9142 59.5527 45.7246 57.5453 45.7246Z" fill="white"/>
<path d="M134.645 61.1896H144.013V40.8178C144.013 33.4572 148.028 30.855 152.861 30.855C155.686 30.855 157.693 31.6728 159.626 33.3085L163.864 25.7992C161.262 23.42 157.916 22.3048 154.571 22.3048C150.11 22.3048 145.723 24.3866 143.493 28.4015L142.898 23.1227H134.719L134.645 61.1896ZM399.106 14.052C399.106 10.4089 396.281 8.55017 393.53 8.55017C390.779 8.55017 388.028 10.4089 388.028 14.052C388.028 17.7695 390.853 19.5539 393.53 19.5539C396.281 19.5539 399.106 17.7695 399.106 14.052ZM117.47 12.1933L108.102 13.1598V23.1227H101.039V31.2267H108.102V48.2528C108.102 57.3977 113.381 61.6357 121.188 61.6357C124.533 61.6357 127.359 60.8178 129.366 59.7026L126.838 52.1189C125.5 52.7137 123.79 53.1598 122.229 53.1598C119.106 53.1598 117.396 51.3754 117.396 47.7323V31.1524H127.879V23.0483H117.396L117.47 12.1933ZM204.682 23.1227H196.281L195.686 28.4015C193.53 24.907 189.366 22.3048 182.823 22.3048C172.415 22.3048 163.344 28.8476 163.344 42.0818C163.344 55.316 172.415 61.8587 182.823 61.8587C189.366 61.8587 193.53 59.3308 195.686 55.7621L196.281 61.0409H204.682V23.1227ZM388.846 23.1227V61.1896H398.214V23.1227H388.846ZM184.087 53.829C177.693 53.829 172.861 49.5167 172.861 42.1561C172.861 34.7955 177.693 30.4833 184.087 30.4833C190.481 30.4833 195.314 34.7955 195.314 42.1561C195.314 49.5167 190.556 53.829 184.087 53.829ZM337.322 23.1227H328.92L328.325 28.4015C326.243 24.907 322.006 22.3048 315.463 22.3048C305.054 22.3048 295.983 28.8476 295.983 42.0818C295.983 55.316 305.054 61.8587 315.463 61.8587C322.006 61.8587 326.169 59.3308 328.325 55.7621L328.92 61.0409H337.322C337.322 61.1896 337.322 23.1227 337.322 23.1227ZM316.652 53.829C310.258 53.829 305.426 49.5167 305.426 42.1561C305.426 34.7955 310.258 30.4833 316.652 30.4833C323.046 30.4833 327.879 34.7955 327.879 42.1561C327.954 49.5167 323.121 53.829 316.652 53.829ZM446.095 23.1227H437.693L437.098 28.4015C435.017 24.907 430.779 22.3048 424.236 22.3048C413.827 22.3048 404.756 28.8476 404.756 42.0818C404.756 55.316 413.827 61.8587 424.236 61.8587C430.779 61.8587 434.942 59.3308 437.098 55.7621L437.693 61.0409H446.095V23.1227ZM425.5 53.829C419.106 53.829 414.273 49.5167 414.273 42.1561C414.273 34.7955 419.106 30.4833 425.5 30.4833C431.894 30.4833 436.727 34.7955 436.727 42.1561C436.727 49.5167 431.894 53.829 425.5 53.829ZM368.028 61.1896L384.236 23.1227H374.496L363.344 51.2267L352.191 23.1227H341.783L357.991 61.1896H368.028ZM213.604 61.1896H222.972V40.7435C222.972 34.3494 227.136 30.7063 232.563 30.7063C238.065 30.7063 241.783 34.3494 241.783 40.7435V61.1896H251.151V39.4052C251.151 28.1041 244.087 22.3792 235.091 22.3792C229.143 22.3792 224.682 24.907 222.6 28.4758L222.006 23.197H213.604V61.1896ZM274.868 61.9331C286.615 61.9331 291.597 56.5799 291.597 49.8141C291.597 41.2639 283.567 39.1821 277.098 38.2899C273.381 37.7695 267.582 37.4721 267.582 33.7546C267.582 31.0037 270.853 29.8141 274.868 29.8141C278.511 29.8141 282.154 30.7806 285.054 33.3085L289.812 27.0632C285.649 23.4201 280.742 22.2305 275.314 22.2305C267.136 22.2305 258.139 24.9814 258.139 34.2007C258.139 42.6022 265.723 44.8327 272.638 45.7249C276.578 46.2453 282.154 46.6171 282.154 50.2602C282.154 52.9368 279.106 54.2007 275.24 54.2007C270.853 54.2007 265.054 52.565 261.485 48.9219L256.727 55.1672C261.559 60.5204 268.771 61.9331 274.868 61.9331Z" fill="#00D66C"/>
</svg>
