<?xml version="1.0" encoding="utf-8"?>
<!-- Generator: Adobe Illustrator 25.4.1, SVG Export Plug-In . SVG Version: 6.00 Build 0)  -->
<svg version="1.1" id="Layer_1" xmlns="http://www.w3.org/2000/svg" xmlns:xlink="http://www.w3.org/1999/xlink" x="0px" y="0px"
	 viewBox="0 0 90.57 80" style="enable-background:new 0 0 90.57 80;" xml:space="preserve">
<style type="text/css">
	.st0{fill:#FFE900;}
	.st1{fill:#1D1D1B;}
</style>
<path class="st0" d="M40,80c22.03,0,40-17.85,40-40C80,17.97,62.15,0,40,0C17.97,0,0,17.85,0,40S17.85,80,40,80"/>
<g>
	<path class="st1" d="M88.86,44.94l-2.28-9.11l4.05-1.01l-1.01-4.56l-4.05,1.01L84.3,26.2l-4.43,3.04l0.76,3.16L76.9,33.4
		c-1.49-1.29-3.49-2.13-6.02-2.13c-6.08,0-8.99,4.81-8.99,8.86s2.91,8.86,8.99,8.86c6.08,0,8.99-4.81,8.99-8.86
		c0-0.86-0.12-1.73-0.37-2.56l2.26-0.6l3.04,12.41l5.82-1.39l-0.13-3.42L88.86,44.94z M70.76,44.3c-2.15,0-4.05-1.77-4.05-4.18
		c0-2.41,1.77-4.18,4.05-4.18s4.05,1.77,4.05,4.18C74.81,42.53,73.04,44.3,70.76,44.3z"/>
	<path class="st1" d="M20.63,38.1c-1.27-0.38-2.53-0.89-2.53-1.65c0-0.51,0.38-1.14,1.39-1.14c1.39-0.13,1.52,0.76,1.52,1.14h4.94
		c-0.38-4.43-4.18-5.19-6.46-5.19c-3.42,0-6.46,2.15-6.46,5.7c0,2.28,1.77,3.67,3.92,4.3c3.16,1.27,4.43,1.39,4.43,2.53
		c0,0.76-0.89,1.27-1.77,1.27c-0.25,0-1.65,0-1.9-1.52h-4.94c0.51,4.43,4.3,5.57,6.84,5.57c3.67,0,6.84-2.15,6.84-5.82
		C26.46,39.75,23.42,38.86,20.63,38.1z"/>
	<path class="st1" d="M52.78,31.27c-6.08,0-8.99,4.81-8.99,8.86s2.91,8.86,8.99,8.86c6.08,0,8.99-4.81,8.99-8.86
		S58.86,31.27,52.78,31.27z M52.78,44.3c-2.15,0-4.05-1.77-4.05-4.18c0-2.41,1.77-4.18,4.05-4.18c2.15,0,4.05,1.77,4.05,4.18
		C56.84,42.53,55.06,44.3,52.78,44.3z"/>
	<path class="st1" d="M35.32,44.43c-2.41,0-3.92-1.77-3.92-4.18c0-1.14,0.38-2.28,1.14-3.04c0.76-0.76,1.77-1.27,2.91-1.14
		c1.77-0.25,2.78,1.01,3.42,2.15h5.06c-0.89-4.05-4.43-6.96-8.86-6.96c-4.94,0-8.73,3.92-8.73,8.86s3.92,8.86,8.86,8.86
		c4.56,0,7.85-3.04,8.73-6.84h-5.06C38.35,43.16,37.34,44.43,35.32,44.43z"/>
</g>
</svg>
