<?xml version="1.0" encoding="utf-8"?>
<!-- Generator: Adobe Illustrator 25.4.1, SVG Export Plug-In . SVG Version: 6.00 Build 0)  -->
<svg version="1.1" id="Layer_1" xmlns="http://www.w3.org/2000/svg" xmlns:xlink="http://www.w3.org/1999/xlink" x="0px" y="0px"
	 viewBox="0 0 73.62 80" style="enable-background:new 0 0 73.62 80;" xml:space="preserve">
<style type="text/css">
	.st0{fill:none;}
	.st1{fill:#3FBBEF;}
</style>
<g>
	<line class="st0" x1="0" y1="2.4" x2="0" y2="0"/>
</g>
<g>
	<line class="st0" x1="0" y1="80" x2="0" y2="77.6"/>
</g>
<g>
	<path id="XMLID_10_" class="st1" d="M19.13,37.15c0,0-4.51,13.09-5.36,21.59c3.15-7.48,9.1-17.85,12.67-22.78
		c-5.19-4.17-14.54-8.5-14.54-8.5s7.48-3.23,22.53-4c0,0,6.29-12.07,22.44-23.46C47.01,3.15,37.83,11.48,28.4,20.57
		C16.32,21.25,3.32,26.1,1.96,26.7C15.81,33.84,19.13,37.15,19.13,37.15"/>
	<path id="XMLID_9_" class="st1" d="M73.62,27.63c-11.73-4.76-26.27-5.95-26.27-5.95s-0.34-3.74,0.77-10.88
		c-1.36,2.98-3.91,9.35-4.34,14.11c10.54,0.85,17.77,3.23,17.77,3.23s-10.71,4.08-16.66,8.76c1.11,2.64,3.49,10.29,4.85,16.24
		c-2.3-2.13-9.27-7.82-14.28-10.8C28.82,44.89,10.37,63.08,0,80c4.51-4.68,17.6-19.55,35.45-30.27C39.11,51.86,56.03,63,56.03,63
		s-3.74-19.72-5.1-24.23C56.2,35.11,65.21,30.18,73.62,27.63"/>
</g>
</svg>
