<?xml version="1.0" encoding="utf-8"?>
<!-- Generator: Adobe Illustrator 25.4.1, SVG Export Plug-In . SVG Version: 6.00 Build 0)  -->
<svg version="1.1" id="Layer_1" xmlns="http://www.w3.org/2000/svg" xmlns:xlink="http://www.w3.org/1999/xlink" x="0px" y="0px"
	 viewBox="0 0 143.51 80" style="enable-background:new 0 0 143.51 80;" xml:space="preserve">
<style type="text/css">
	.st0{fill:none;}
	.st1{fill:#3FBBEF;}
	.st2{fill:#002855;}
</style>
<g>
	<line class="st0" x1="0" y1="2.4" x2="0" y2="0"/>
</g>
<g>
	<line class="st0" x1="0" y1="80" x2="0" y2="77.6"/>
</g>
<g>
	<g>
		<path id="XMLID_10_" class="st1" d="M19.13,37.15c0,0-4.51,13.09-5.36,21.59c3.15-7.48,9.1-17.85,12.67-22.78
			c-5.19-4.17-14.54-8.5-14.54-8.5s7.48-3.23,22.53-4c0,0,6.29-12.07,22.44-23.46C47.01,3.15,37.83,11.48,28.4,20.57
			C16.32,21.25,3.32,26.1,1.96,26.7C15.81,33.84,19.13,37.15,19.13,37.15"/>
		<path id="XMLID_9_" class="st1" d="M73.62,27.63c-11.73-4.76-26.27-5.95-26.27-5.95s-0.34-3.74,0.77-10.88
			c-1.36,2.98-3.91,9.35-4.34,14.11c10.54,0.85,17.77,3.23,17.77,3.23s-10.71,4.08-16.66,8.76c1.11,2.64,3.49,10.29,4.85,16.24
			c-2.3-2.13-9.27-7.82-14.28-10.8C28.82,44.89,10.37,63.08,0,80c4.51-4.68,17.6-19.55,35.45-30.27C39.11,51.86,56.03,63,56.03,63
			s-3.74-19.72-5.1-24.23C56.2,35.11,65.21,30.18,73.62,27.63"/>
	</g>
	<g>
		<path id="XMLID_8_" class="st2" d="M69.8,45.06h-0.17h-1.28c0,0-2.47,4.08-2.55,4.34c-0.26,0-1.79,0.09-1.79,0.09v2.21h1.62v6.55
			c0,1.45,0.43,2.64,1.11,3.4c0.77,0.77,1.79,1.19,3.06,1.19c0.6,0,1.19,0,1.79-0.09s1.11-0.17,1.53-0.34l0.09-0.09v-2.38
			l-0.26,0.09c-0.26,0.09-0.51,0.17-0.77,0.17c-0.26,0.09-0.6,0.09-0.94,0.09c-0.6,0-1.02-0.17-1.19-0.43
			c-0.17-0.26-0.34-0.77-0.34-1.36v-6.8h3.57v-2.38h-3.57v-4.25H69.8z"/>
		<path id="XMLID_7_" class="st2" d="M140.02,45.06h-0.17h-1.28c0,0-2.47,4.08-2.55,4.34c-0.26,0-1.79,0.09-1.79,0.09v2.21h1.62
			v6.55c0,1.45,0.34,2.64,1.11,3.4c0.77,0.77,1.79,1.19,3.06,1.19c0.6,0,1.19,0,1.79-0.09c0.6-0.09,1.11-0.17,1.53-0.34l0.09-0.09
			v-2.38l-0.26,0.09c-0.26,0.09-0.51,0.17-0.77,0.17c-0.26,0.09-0.6,0.09-0.94,0.09c-0.6,0-1.02-0.17-1.19-0.43
			c-0.17-0.26-0.34-0.77-0.34-1.36v-6.8h3.57v-2.38h-3.57v-4.25H140.02z"/>
		<rect id="XMLID_6_" x="96.15" y="49.31" class="st2" width="4.17" height="13.35"/>
		<path id="XMLID_5_" class="st2" d="M100.91,52.71c0.17-0.09,0.34-0.17,0.51-0.26c0.43-0.17,0.94-0.26,1.45-0.26
			c0.43,0,0.68,0.09,1.02,0.34c0.26,0.17,0.34,0.6,0.34,1.28v9.01h4.17v-9.44c0-1.62-0.34-2.72-0.94-3.4
			c-0.68-0.68-1.53-0.94-2.64-0.94c-0.94,0-1.79,0.17-2.47,0.51L100.91,52.71L100.91,52.71z"/>
		<path id="XMLID_4_" class="st2" d="M119.02,55.77c-0.6-0.68-1.62-1.28-3.15-1.7c-1.11-0.34-1.87-0.6-2.21-0.77
			c-0.26-0.17-0.43-0.43-0.43-0.77s0.17-0.51,0.51-0.77c0.43-0.17,0.94-0.34,1.62-0.34c0.6,0,1.19,0.09,1.87,0.17
			c0.26,0.09,0.51,0.09,0.77,0.17l1.02-2.13l-0.09-0.09c-0.51-0.26-1.02-0.43-1.62-0.51s-1.28-0.17-2.04-0.17
			c-1.79,0-3.06,0.34-3.91,1.11c-0.85,0.77-1.28,1.7-1.28,2.81c0,1.02,0.26,1.96,0.68,2.64c0.43,0.68,1.36,1.19,2.64,1.53
			c1.62,0.43,2.21,0.77,2.38,0.94c0.26,0.26,0.43,0.51,0.43,0.94c0,0.43-0.17,0.68-0.6,0.94c-0.43,0.26-1.11,0.43-1.96,0.43
			c-0.68,0-1.36-0.09-2.04-0.34c-0.68-0.17-1.19-0.43-1.53-0.6l-0.26-0.09l-0.09,0.09l0,0v2.81l0.09,0.09
			c0.34,0.26,0.85,0.43,1.62,0.51c0.77,0.17,1.53,0.17,2.38,0.17c2.13,0,3.66-0.43,4.59-1.28c0.94-0.85,1.45-1.87,1.45-3.15
			C119.96,57.39,119.62,56.45,119.02,55.77"/>
		<path id="XMLID_3_" class="st2" d="M93.26,50.24c-0.85-0.77-2.21-1.19-4-1.19c-1.11,0-2.04,0.09-2.89,0.26
			c-0.26,0.09-0.6,0.17-0.85,0.17l-1.36,3.06l0.09,0.09l0.17-0.09c0.51-0.26,1.02-0.43,1.7-0.6c0.6-0.17,1.36-0.26,2.21-0.26
			c0.77,0,1.28,0.17,1.7,0.43c0.34,0.26,0.6,0.6,0.6,1.02v0.94c-0.26-0.17-0.51-0.26-0.85-0.43c-0.51-0.17-1.11-0.26-1.62-0.26
			c-1.79,0-3.23,0.43-4.25,1.19c-1.11,0.85-1.62,2.04-1.62,3.49v0.26c0,1.53,0.43,2.64,1.19,3.4s2.04,1.11,3.57,1.11
			c0.68,0,1.19-0.09,1.79-0.26l1.28-2.81l-0.09-0.09c-0.43,0.26-0.85,0.43-1.36,0.43c-0.6,0-1.19-0.17-1.53-0.43s-0.6-0.77-0.6-1.62
			v-0.26c0-0.77,0.17-1.36,0.6-1.7c0.34-0.34,0.94-0.51,1.53-0.51c0.68,0,1.28,0.17,1.62,0.6c0.34,0.34,0.51,0.94,0.51,1.62v4.93h4
			v-8.76C94.62,52.28,94.11,51.01,93.26,50.24"/>
		<path id="XMLID_2_" class="st2" d="M132.11,50.24c-0.85-0.77-2.21-1.19-4.08-1.19c-1.11,0-2.04,0.09-2.89,0.26
			c-0.26,0.09-0.6,0.17-0.85,0.17l-1.36,2.98l0.09,0.09l0.17-0.09c0.43-0.26,1.02-0.43,1.7-0.6c0.6-0.17,1.36-0.26,2.21-0.26
			c0.77,0,1.28,0.17,1.7,0.43c0.34,0.26,0.6,0.6,0.6,1.02v0.94c-0.26-0.17-0.51-0.26-0.85-0.43c-0.51-0.17-1.11-0.26-1.62-0.26
			c-1.79,0-3.23,0.43-4.25,1.19c-1.11,0.85-1.62,2.04-1.62,3.49v0.26c0,1.53,0.43,2.64,1.19,3.4c0.77,0.77,2.04,1.11,3.57,1.11
			c0.68,0,1.28-0.09,1.79-0.26l1.28-2.81l-0.09-0.09c-0.43,0.26-0.85,0.43-1.36,0.43c-0.6,0-1.19-0.17-1.53-0.43
			c-0.34-0.26-0.6-0.77-0.6-1.62v-0.17c0-0.77,0.17-1.36,0.6-1.7c0.34-0.34,0.94-0.51,1.53-0.51c0.68,0,1.19,0.17,1.62,0.6
			c0.34,0.34,0.51,0.94,0.51,1.62v4.93h4v-8.76C133.48,52.28,132.96,51.01,132.11,50.24"/>
		<path id="XMLID_1_" class="st2" d="M84.08,49.82c-0.6-0.51-1.36-0.77-2.3-0.77c-0.77,0-1.53,0.26-2.13,0.6l-0.09,0.09
			c-0.43,0.26-0.77,0.68-1.02,1.11c0-0.6-0.09-1.53-0.09-1.53h-4v13.35h4.17v-8.42c0-0.85,0.43-1.53,1.19-1.96l0,0
			c0.34-0.17,0.77-0.34,1.19-0.34h0.09c0.51,0,1.02,0.17,1.45,0.51l0.17,0.17L84.08,49.82L84.08,49.82z"/>
	</g>
	<g>
		<path class="st1" d="M89.27,45.06h-3.32l-1.19-2.98h-5.78l-1.19,2.98h-3.32l5.87-14.96h3.06L89.27,45.06z M80,39.28h3.74
			l-1.87-4.93L80,39.28z"/>
		<path class="st1" d="M92.24,29.84c1.02,0,1.79,0.77,1.79,1.79c0,0.94-0.77,1.79-1.79,1.79s-1.79-0.77-1.79-1.79
			S91.31,29.84,92.24,29.84z M90.71,34.6h3.06v10.46h-3.06V34.6z"/>
		<path class="st1" d="M102.61,37.41h-0.51c-1.7,0-2.89,1.11-2.89,3.32v4.34h-3.06V34.6h2.98v0.94c0.6-0.68,1.53-1.11,2.64-1.11
			c0.34,0,0.51,0,0.85,0V37.41z"/>
	</g>
</g>
</svg>
