<?xml version="1.0" encoding="utf-8"?>
<!-- Generator: Adobe Illustrator 25.4.1, SVG Export Plug-In . SVG Version: 6.00 Build 0)  -->
<svg version="1.1" xmlns="http://www.w3.org/2000/svg" xmlns:xlink="http://www.w3.org/1999/xlink" x="0px" y="0px"
	 viewBox="0 0 138.62 80" style="enable-background:new 0 0 138.62 80;" xml:space="preserve">
<style type="text/css">
	.st0{fill:#E52725;}
</style>
<g id="Layer_2">
</g>
<g id="Layer_1">
	<polygon class="st0" points="33.97,2.94 31.73,5.11 64.36,5.11 62.19,2.94 	"/>
	<polygon class="st0" points="20.62,6.19 19.03,7.79 67.04,7.79 65.44,6.19 	"/>
	<polygon class="st0" points="18.96,8.87 21.13,11.11 43.8,11.11 46.03,8.87 	"/>
	<g>
		<path class="st0" d="M73.04,13.79l-1.6-1.6H28.03c0.38,0.26,1.6,1.6,1.6,1.6H73.04z"/>
	</g>
	<polygon class="st0" points="2.17,50.82 0,53.06 86.77,53.06 89,50.82 	"/>
	<polygon class="st0" points="0.45,54.14 2.04,55.74 114.99,55.74 113.39,54.14 	"/>
	<g>
		<path class="st0" d="M128.2,71l-2.17-2.17H87.02C89.9,70.55,92.45,71,92.45,71H128.2z"/>
	</g>
	<polygon class="st0" points="3.13,56.82 5.36,58.99 11.68,58.99 9.51,56.82 	"/>
	<polygon class="st0" points="9.13,62.83 11.3,65 17.69,65 15.45,62.83 	"/>
	<polygon class="st0" points="6.45,60.08 8.04,61.74 14.37,61.74 12.77,60.08 	"/>
	<polygon class="st0" points="12.45,66.08 14.05,67.74 20.37,67.74 18.77,66.08 	"/>
	<polygon class="st0" points="15.13,68.83 17.3,71 23.62,71 21.45,68.83 	"/>
	<polygon class="st0" points="18.45,72.08 20.05,73.74 26.37,73.74 24.77,72.08 	"/>
	<polygon class="st0" points="21.13,74.83 23.3,77 26.37,77 26.37,74.83 	"/>
	<polygon class="st0" points="24.39,78.08 26.05,79.68 26.37,80 26.37,78.08 	"/>
	<polygon class="st0" points="68.25,44.82 66.08,47.06 81.72,47.06 79.55,44.82 	"/>
	<path class="st0" d="M28.6,19.79c0.51-0.57,0.96-1.09,1.28-1.6h47.5l1.6,1.6H28.6z"/>
	<path class="st0" d="M24.33,24.13c-0.45,0.51-0.96,1.09-1.4,1.66h62.06l-1.6-1.66H24.33z"/>
	<path class="st0" d="M19.22,31.8c0.26-0.57,0.51-1.09,0.77-1.6h69.4l1.6,1.6H19.22z"/>
	<path class="st0" d="M17.88,36.14c-0.06,0.51-0.19,1.09-0.26,1.6h79.36l-1.6-1.6H17.88z"/>
	<path class="st0" d="M17.56,42.14c0.06,0.51,0.06,1.09,0.19,1.6h85.24l-1.66-1.6H17.56z"/>
	<path class="st0" d="M19.09,49.74c-0.19-0.57-0.32-1.09-0.51-1.6h88.75l1.6,1.6H19.09z"/>
	<path class="st0" d="M39.84,14.88c-0.57,0.64-1.28,1.34-1.98,2.17h-7.6c0.13-0.51-0.06-1.85-0.19-2.17H39.84z"/>
	<path class="st0" d="M34.73,20.88c-0.51,0.7-1.02,1.4-1.47,2.17h-7.92c0.77-0.77,1.47-1.53,2.17-2.17H34.73z"/>
	<path class="st0" d="M30.71,29.05c0.13-0.77,0.38-1.47,0.64-2.17h-9.26c-0.51,0.7-1.02,1.4-1.47,2.17H30.71z"/>
	<path class="st0" d="M30.45,32.88c0.06,0.7,0.19,1.47,0.45,2.17H18.13c0.19-0.77,0.38-1.47,0.7-2.17H30.45z"/>
	<path class="st0" d="M34.54,41.05c-0.7-0.77-1.28-1.47-1.79-2.17h-15.2c-0.06,0.7-0.06,1.4,0,2.17H34.54z"/>
	<path class="st0" d="M39.14,44.82c1.09,0.77,2.3,1.47,3.64,2.17H18.39c-0.19-0.77-0.32-1.47-0.45-2.17H39.14z"/>
	<path class="st0" d="M24.52,59.04c-0.5-0.64-0.5-0.64-1.34-2.15h68.32l1.53,2.15H24.52z"/>
	<path class="st0" d="M28.41,61.74c-0.7-0.45-1.4-1.02-2.11-1.6h93.09l1.6,1.6H28.41z"/>
	<path class="st0" d="M35.12,65c-1.53-0.51-3.26-1.21-5.04-2.17h25.16c0,0-3.89,2.17-4.79,2.17H35.12z"/>
	<path class="st0" d="M81.79,65c-0.89-0.83-1.53-1.6-1.85-2.17h17.56L99.66,65H81.79z"/>
	<path class="st0" d="M85.3,67.74c-0.77-0.51-1.6-1.09-2.23-1.66h42.33l1.6,1.66H85.3z"/>
	<path class="st0" d="M119.71,73.74c-2.04-0.7-4.09-1.28-5.87-1.66h17.49l1.66,1.66H119.71z"/>
	<path class="st0" d="M122.71,74.83c1.85,0.7,3.64,1.47,5.24,2.17h6.26l-2.17-2.17H122.71z"/>
	<path class="st0" d="M130.25,78.08c1.09,0.57,2.11,1.15,2.87,1.6h5.81l-1.6-1.66h-7.09V78.08z"/>
</g>
</svg>
