<?xml version="1.0" encoding="utf-8"?>
<!-- Generator: Adobe Illustrator 25.4.1, SVG Export Plug-In . SVG Version: 6.00 Build 0)  -->
<svg version="1.1" xmlns="http://www.w3.org/2000/svg" xmlns:xlink="http://www.w3.org/1999/xlink" x="0px" y="0px"
	 viewBox="0 0 382.62 80" style="enable-background:new 0 0 382.62 80;" xml:space="preserve">
<style type="text/css">
	.st0{fill:#E52725;}
</style>
<g id="Layer_2">
</g>
<g id="Layer_1">
	<g>
		<g>
			<path class="st0" d="M376.25,0.57v34.35h6.38c0,0-1.72-2.49-1.47-3.19c0.19-0.7,0-22.22,0-22.22l1.92-1.85
				C383.08,7.66,376.44,1.98,376.25,0.57"/>
			<path class="st0" d="M281.82,29.43h-14.94l0.19-0.89h14.75V29.43z M282.84,23.05c-2.75,0-13.47-0.26-13.47-0.26l-2.55-3.19
				l-0.64-18.77l-6.19,6.19l0.83,1.85l0.19,20.62h-4.28l-0.19,5.49h30.14l0.19-8.49C286.93,26.43,285.65,23.05,282.84,23.05"/>
			<path class="st0" d="M345.47,5.36c0,1.53-1.34,2.75-3,2.75c-1.66,0-3-1.21-3-2.75s1.34-2.75,3-2.75S345.47,3.89,345.47,5.36"/>
			<path class="st0" d="M296.12,29.43c0,0,1.47-3.19,2.75-3l0.19,3H296.12z M313.62,28.48h14.75v0.89h-14.94L313.62,28.48z
				 M374.08,34.92l-0.45-1.15l-0.19-33.46l-7.47,7.53l1.28,0.45l0.19,20.62l-1.53,0.45c0,0-0.45-5.24-6.38-6.38h-10.28
				c0,0-4.09-2.3-4.28-4.34c-0.19-2.04-3,5.24-9.39,9.83h25.03v0.89h-26.69l-0.64-3.19c0,0-3-3.89-3.83-3.89h-14.3l-1.47-2.3
				l-0.45-11.24l1.47-1.4L307.23,0l0.19,29.05h-3l-0.45-15.58c0,0-12.64,12.13-12.83,13.54c-0.19,1.34-0.45,7.79-0.45,7.79
				l7.47,0.26l0.19,2.55c0,0-1.92,4.34-10.02,1.34c0.45,7.09,16.86,8.24,15.58-4.15h70.17V34.92z"/>
			<path class="st0" d="M243.32,0.32v34.35h6.38c0,0-1.72-2.49-1.47-3.19c0.19-0.7,0-22.22,0-22.22l1.92-1.85
				C250.15,7.47,243.51,1.72,243.32,0.32"/>
			<path class="st0" d="M213.18,29.18h-3.19c0,0,2.11-3.45,3.19-3.19V29.18z M240.13,33.33l-0.45-32.75l-6.64,6.64l1.28,1.15v20.81
				l-3.19-0.26V13.15l-6.64,7.34l1.09,0.89l-0.45,7.98l-5.75-0.45l-0.19-15.58l-13.66,13.98l-0.26,7.53h7.47l0.19,3.19
				c0,0-5.11,5.3-10.02-0.45c-1.72,6.64,13.66,12.39,16.28-3h21.58L240.13,33.33z"/>
			<path class="st0" d="M191.35,13.6c0.06-0.06,0.06-0.13,0.06-0.19C191.35,13.34,191.35,13.41,191.35,13.6"/>
			<path class="st0" d="M125.97,24.39c0,0,2.11-3.45,3.19-3.19v3.19H125.97z M127.95,34.92l75.02,0.26l-0.83-1.15l0.19-20.18
				c0.19,1.15-7.02,6.19-7.02,6.19l1.28,1.4v7.79h-5.11c0,0-0.19-13.79-0.06-15.58c-0.57,1.21-6.13,6.45-6.13,6.45l0.83,1.85v7.53
				h-4.28c0,0,0.19-8.68,0-7.53c-0.19,1.15-5.36,3.19-5.36,3.19v3.89h-3.83v-7.09c0,1.15-5.55,2.75-5.55,2.75v4.34h-20.75V13.92
				l-6.38,6.64l1.47,1.34v7.09h-7.02l-0.64-21.07l-12.83,13.73v7.79h8.36v3.19L127.95,34.92z"/>
			<path class="st0" d="M231.38,5.87c0,1.53-1.34,2.75-3,2.75s-3-1.21-3-2.75s1.34-2.75,3-2.75C229.98,3.06,231.38,4.34,231.38,5.87
				"/>
			<path class="st0" d="M224.49,5.62c0,1.53-1.34,2.75-3,2.75s-3-1.21-3-2.75s1.34-2.75,3-2.75C223.14,2.87,224.49,4.09,224.49,5.62
				"/>
			<path class="st0" d="M202.52,5.87c0,1.53-1.34,2.75-3,2.75s-3-1.21-3-2.75s1.34-2.75,3-2.75C201.18,3.06,202.52,4.34,202.52,5.87
				"/>
			<path class="st0" d="M150.55,42.01c0,1.53-1.34,2.75-3,2.75s-3-1.21-3-2.75s1.34-2.75,3-2.75
				C149.21,39.27,150.55,40.48,150.55,42.01"/>
			<path class="st0" d="M143.53,42.01c0,1.53-1.34,2.75-3,2.75s-3-1.21-3-2.75s1.34-2.75,3-2.75
				C142.19,39.27,143.53,40.48,143.53,42.01"/>
			<path class="st0" d="M133.06,5.62c0,1.53-1.34,2.75-3,2.75c-1.66,0-3-1.21-3-2.75s1.34-2.75,3-2.75
				C131.72,2.87,133.06,4.09,133.06,5.62"/>
			<path class="st0" d="M126.03,5.62c0,1.53-1.34,2.75-3,2.75c-1.66,0-3-1.21-3-2.75s1.34-2.75,3-2.75
				C124.63,2.87,126.03,4.09,126.03,5.62"/>
		</g>
		<polygon class="st0" points="192.31,59.89 182.35,59.95 182.35,79.43 175.58,79.43 175.58,59.95 168.75,59.95 168.75,53.5 
			192.31,53.5 		"/>
		<g>
			<path class="st0" d="M192.31,53.5h6.77v15.83c0,1.4,0.32,2.49,0.96,3.32c0.64,0.77,1.6,1.21,2.75,1.21
				c1.15,0,2.04-0.38,2.75-1.15c0.64-0.77,0.96-1.92,0.96-3.32V53.57h6.77v15.45c0,1.53-0.19,3-0.57,4.34
				c-0.38,1.34-1.02,2.55-1.92,3.58c-0.89,1.02-1.79,1.72-2.68,2.17c-1.34,0.57-2.87,0.89-4.72,0.89c-1.09,0-2.23-0.06-3.45-0.26
				c-1.28-0.19-2.3-0.51-3.13-1.02c-0.83-0.51-1.6-1.28-2.3-2.23c-0.7-0.96-1.15-1.98-1.4-3c-0.45-1.66-0.64-3.13-0.64-4.41v-9.07
				V53.5H192.31z"/>
		</g>
		<polygon class="st0" points="217.72,53.5 224.04,53.5 232.21,67.87 232.21,53.5 238.6,53.5 238.6,79.43 232.21,79.43 
			224.04,65.19 224.04,79.43 217.72,79.43 		"/>
		<rect x="243.32" y="53.5" class="st0" width="6.77" height="25.92"/>
		<g>
			<path class="st0" d="M253.73,70.87l6.45-0.45c0.13,1.21,0.45,2.17,0.83,2.81c0.7,1.02,1.72,1.53,3,1.53
				c0.96,0,1.72-0.26,2.23-0.83c0.51-0.51,0.77-1.15,0.77-1.85c0-0.7-0.26-1.28-0.77-1.79s-1.66-1.02-3.45-1.47
				c-2.94-0.77-5.11-1.85-6.32-3.13c-1.28-1.34-1.92-3-1.92-4.98c0-1.34,0.32-2.62,0.96-3.77c0.64-1.21,1.66-2.11,2.94-2.81
				c1.34-0.7,3.13-1.02,5.36-1.02c2.81,0,4.92,0.64,6.38,1.85c1.47,1.21,2.36,3.19,2.62,5.87l-6.38,0.45
				c-0.19-1.15-0.51-2.04-1.09-2.55c-0.57-0.51-1.28-0.83-2.23-0.83c-0.77,0-1.4,0.19-1.79,0.57c-0.38,0.38-0.57,0.89-0.57,1.47
				c0,0.45,0.19,0.77,0.51,1.09c0.32,0.32,1.09,0.64,2.3,0.96c2.94,0.77,5.04,1.53,6.32,2.3c1.28,0.77,2.23,1.72,2.81,2.87
				c0.57,1.15,0.89,2.43,0.89,3.83c0,1.66-0.38,3.19-1.15,4.6c-0.77,1.4-1.85,2.49-3.26,3.19s-3.13,1.09-5.24,1.09
				c-3.7,0-6.32-0.83-7.73-2.55C254.75,75.66,253.92,73.49,253.73,70.87"/>
		</g>
		<path class="st0" d="M288.97,69.53l-2.36-9.32l-2.36,9.32H288.97z M290.38,75.15h-7.66l-1.09,4.28h-6.9l8.17-25.92h7.41
			l8.17,25.92h-7.02L290.38,75.15z"/>
		<rect x="300.97" y="53.5" class="st0" width="6.77" height="25.92"/>
		<g>
			<path class="st0" d="M319.43,64.04h2.81c0.32,0,0.89-0.13,1.79-0.38c0.45-0.13,0.83-0.38,1.09-0.83
				c0.26-0.45,0.45-0.96,0.45-1.53c0-0.83-0.19-1.47-0.64-1.92c-0.45-0.45-1.28-0.64-2.49-0.64h-2.94v5.3H319.43z M312.66,79.43
				V53.5h11.24c2.11,0,3.64,0.19,4.79,0.64c1.09,0.45,1.98,1.21,2.68,2.36c0.7,1.15,1.02,2.55,1.02,4.21c0,1.47-0.26,2.68-0.77,3.7
				c-0.51,1.02-1.21,1.92-2.11,2.55c-0.57,0.38-1.34,0.77-2.36,1.02c0.83,0.32,1.4,0.64,1.72,0.96c0.26,0.19,0.57,0.64,1.09,1.34
				c0.45,0.7,0.77,1.21,0.96,1.6l3.26,7.53h-7.6L323,71.51c-0.45-1.02-0.83-1.66-1.21-1.98c-0.45-0.38-1.02-0.57-1.66-0.57h-0.57
				v10.53h-6.9V79.43z"/>
		</g>
		<polygon class="st0" points="33.97,2.94 31.73,5.11 64.36,5.11 62.19,2.94 		"/>
		<polygon class="st0" points="20.62,6.19 19.03,7.79 67.04,7.79 65.44,6.19 		"/>
		<polygon class="st0" points="18.96,8.87 21.13,11.11 43.8,11.11 46.03,8.87 		"/>
		<g>
			<path class="st0" d="M73.04,13.79l-1.6-1.6H28.03c0.38,0.26,1.6,1.6,1.6,1.6H73.04z"/>
		</g>
		<polygon class="st0" points="2.17,50.82 0,53.06 86.77,53.06 89,50.82 		"/>
		<polygon class="st0" points="0.45,54.14 2.04,55.74 114.99,55.74 113.39,54.14 		"/>
		<g>
			<path class="st0" d="M128.2,71l-2.17-2.17H87.02C89.9,70.55,92.45,71,92.45,71H128.2z"/>
		</g>
		<polygon class="st0" points="3.13,56.82 5.36,58.99 11.68,58.99 9.51,56.82 		"/>
		<polygon class="st0" points="9.13,62.83 11.3,65 17.69,65 15.45,62.83 		"/>
		<polygon class="st0" points="6.45,60.08 8.04,61.74 14.37,61.74 12.77,60.08 		"/>
		<polygon class="st0" points="12.45,66.08 14.05,67.74 20.37,67.74 18.77,66.08 		"/>
		<polygon class="st0" points="15.13,68.83 17.3,71 23.62,71 21.45,68.83 		"/>
		<polygon class="st0" points="18.45,72.08 20.05,73.74 26.37,73.74 24.77,72.08 		"/>
		<polygon class="st0" points="21.13,74.83 23.3,77 26.37,77 26.37,74.83 		"/>
		<polygon class="st0" points="24.39,78.08 26.05,79.68 26.37,80 26.37,78.08 		"/>
		<polygon class="st0" points="68.25,44.82 66.08,47.06 81.72,47.06 79.55,44.82 		"/>
		<path class="st0" d="M28.6,19.79c0.51-0.57,0.96-1.09,1.28-1.6h47.5l1.6,1.6H28.6z"/>
		<path class="st0" d="M24.33,24.13c-0.45,0.51-0.96,1.09-1.4,1.66h62.06l-1.6-1.66H24.33z"/>
		<path class="st0" d="M19.22,31.8c0.26-0.57,0.51-1.09,0.77-1.6h69.4l1.6,1.6H19.22z"/>
		<path class="st0" d="M17.88,36.14c-0.06,0.51-0.19,1.09-0.26,1.6h79.36l-1.6-1.6H17.88z"/>
		<path class="st0" d="M17.56,42.14c0.06,0.51,0.06,1.09,0.19,1.6h85.24l-1.66-1.6H17.56z"/>
		<path class="st0" d="M19.09,49.74c-0.19-0.57-0.32-1.09-0.51-1.6h88.75l1.6,1.6H19.09z"/>
		<path class="st0" d="M39.84,14.88c-0.57,0.64-1.28,1.34-1.98,2.17h-7.6c0.13-0.51-0.06-1.85-0.19-2.17H39.84z"/>
		<path class="st0" d="M34.73,20.88c-0.51,0.7-1.02,1.4-1.47,2.17h-7.92c0.77-0.77,1.47-1.53,2.17-2.17H34.73z"/>
		<path class="st0" d="M30.71,29.05c0.13-0.77,0.38-1.47,0.64-2.17h-9.26c-0.51,0.7-1.02,1.4-1.47,2.17H30.71z"/>
		<path class="st0" d="M30.45,32.88c0.06,0.7,0.19,1.47,0.45,2.17H18.13c0.19-0.77,0.38-1.47,0.7-2.17H30.45z"/>
		<path class="st0" d="M34.54,41.05c-0.7-0.77-1.28-1.47-1.79-2.17h-15.2c-0.06,0.7-0.06,1.4,0,2.17H34.54z"/>
		<path class="st0" d="M39.14,44.82c1.09,0.77,2.3,1.47,3.64,2.17H18.39c-0.19-0.77-0.32-1.47-0.45-2.17H39.14z"/>
		<path class="st0" d="M24.52,59.04c-0.5-0.64-0.5-0.64-1.34-2.15h68.32l1.53,2.15H24.52z"/>
		<path class="st0" d="M28.41,61.74c-0.7-0.45-1.4-1.02-2.11-1.6h93.09l1.6,1.6H28.41z"/>
		<path class="st0" d="M35.12,65c-1.53-0.51-3.26-1.21-5.04-2.17h25.16c0,0-3.89,2.17-4.79,2.17H35.12z"/>
		<path class="st0" d="M81.79,65c-0.89-0.83-1.53-1.6-1.85-2.17h17.56L99.66,65H81.79z"/>
		<path class="st0" d="M85.3,67.74c-0.77-0.51-1.6-1.09-2.23-1.66h42.33l1.6,1.66H85.3z"/>
		<path class="st0" d="M119.71,73.74c-2.04-0.7-4.09-1.28-5.87-1.66h17.49l1.66,1.66H119.71z"/>
		<path class="st0" d="M122.71,74.83c1.85,0.7,3.64,1.47,5.24,2.17h6.26l-2.17-2.17H122.71z"/>
		<path class="st0" d="M130.25,78.08c1.09,0.57,2.11,1.15,2.87,1.6h5.81l-1.6-1.66h-7.09V78.08z"/>
	</g>
</g>
</svg>
