<?xml version="1.0" encoding="utf-8"?>
<!-- Generator: Adobe Illustrator 25.4.1, SVG Export Plug-In . SVG Version: 6.00 Build 0)  -->
<svg version="1.1" id="Layer_1" xmlns="http://www.w3.org/2000/svg" xmlns:xlink="http://www.w3.org/1999/xlink" x="0px" y="0px"
	 viewBox="0 0 69.31 80" style="enable-background:new 0 0 69.31 80;" xml:space="preserve">
<style type="text/css">
	.st0{fill:#DE0113;}
	.st1{fill:#FDE000;}
	.st2{fill:#6AB025;}
	.st3{fill:#016FBB;}
</style>
<path class="st0" d="M53.17,24.28c0,0,15.84-8.88,16.14-24.28c0,0-5.51,7.61-23.18,16.65S7.72,34.78,2.53,47.91
	c0,0-3.7,6.48-2.15,14.2s8.72,12.44,12.24,13.87s10.02,3.71,14.83,3.77s-2.28-1.4-2.28-1.4L11.3,70.01l0.9-9.17
	c0,0,7.88-12.08,8.1-12.25s16.27-7.06,16.27-7.06l3.91-5.63l2.02-2.99l3.39-3.65L53.17,24.28z"/>
<path class="st1" d="M40.33,38.78c0,0,3.34-7.06,12.85-14.5C52.9,24.45,24.52,35.45,12.2,45.16S2.09,64.79,5.02,69.01
	c2.93,4.22,12.97,9.61,22.43,10.75c0,0,3.01,0.24,4.57,0.24c1.56,0-2.11-0.56-2.11-0.56s-5.04-1.33-5.51-1.4
	c-0.47-0.07-8.87-4.29-8.87-4.29s-3.26-6.36-3.33-6.68c-0.07-0.31,4.61-12.05,4.61-12.05l10.64-5.53l8.43-2.82l2.32-3.81
	L40.33,38.78z"/>
<path class="st2" d="M39.79,80h-8.07c0,0-21.25-1.62-25.14-12.44s4.69-16.71,11.69-20.81s22.05-7.98,22.05-7.98s-1.88,3.5,0.48,6.09
	s-4.92,2.69-4.92,2.69l-12.8,4.36L15,59.04l-1.88,6.78l2.66,4.9l2.87,3.81l4.79,2.5l4.6,1.55l3.97,1.01L39.79,80z"/>
<path class="st3" d="M39.79,80c-0.34-0.13-26.34-0.72-24.92-16.46c0.54-0.62,0.16-8.17,14-12.71c0,0,8.22-2.14,16.44-3.43
	c0,0-3.29-1.33-4.5-2.53c-0.35,0.21-15.84,2.01-22.85,7.06s-8.38,8.03-8.38,11.86s1.09,9.96,11.62,13.09C31.73,80,39.79,80,39.79,80
	z"/>
</svg>
