<?xml version="1.0" encoding="utf-8"?>
<!-- Generator: Adobe Illustrator 25.4.1, SVG Export Plug-In . SVG Version: 6.00 Build 0)  -->
<svg version="1.1" id="Layer_1" xmlns="http://www.w3.org/2000/svg" xmlns:xlink="http://www.w3.org/1999/xlink" x="0px" y="0px"
	 viewBox="0 0 62.63 80" style="enable-background:new 0 0 62.63 80;" xml:space="preserve">
<style type="text/css">
	.st0{fill:#C82F26;}
	.st1{fill:#79A23D;}
</style>
<path id="path13366" class="st0" d="M7.45,10.35c0-2.87,2.32-5.19,5.19-5.19h9.47c2.87,0,5.19,2.32,5.19,5.19v11.73h5.01
	c1.96,0,3.55,1.59,3.55,3.56v5.77c0,1.96-1.59,3.55-3.55,3.55h-5.01v27.16c0,3.3,2.08,4.47,5.01,4.47c1.96,0,3.55,1.59,3.55,3.56v6
	c0,1.96-1.59,3.55-3.55,3.55C29.53,79.9,26.66,80,24.56,80C13.44,80,7.45,73.19,7.45,60.42V34.96h-3.9C1.59,34.96,0,33.37,0,31.41
	v-5.77c0-1.96,1.59-3.56,3.55-3.56h3.9"/>
<path id="path13378" class="st1" d="M60.47,6.78L60.23,6.3v0C58.3,2.56,54.4,0,49.9,0c-6.42,0-11.63,5.2-11.63,11.63
	c0,3.72,1.75,7.03,4.46,9.15v0c3.31,2.57,6.71,7.42-1.3,14.95c-1.51,1.58-0.43,2.81,0.58,3.47c2.45,1.59,4.08,1.36,6.68,0
	C55.42,35.72,67.58,21.59,60.47,6.78"/>
</svg>
