<?xml version="1.0" encoding="utf-8"?>
<!-- Generator: Adobe Illustrator 25.4.1, SVG Export Plug-In . SVG Version: 6.00 Build 0)  -->
<svg version="1.1" id="Layer_1" xmlns="http://www.w3.org/2000/svg" xmlns:xlink="http://www.w3.org/1999/xlink" x="0px" y="0px"
	 viewBox="0 0 191.82 80" style="enable-background:new 0 0 191.82 80;" xml:space="preserve">
<style type="text/css">
	.st0{fill:#C82F26;}
	.st1{fill:#79A23D;}
</style>
<g id="layer1" transform="translate(-6.4100533,-205.47362)">
	<g id="g16400" transform="translate(0.1322923,-0.1322875)">
		<path id="path13362" class="st0" d="M114.44,223.56h-6.31c-1.34,0-3.52,0.83-4.01,3.43c-1.37,6.99-2.22,14.66-3.19,21.51
			c-0.89-6.52-2.33-15.24-3.63-21.95c-0.38-1.6-1.86-2.99-4.04-2.99h-6.42c-2.17,0-3.66,1.39-4.04,2.99
			c-1.59,6.76-2.82,15.39-3.64,21.88c-0.96-6.82-1.81-14.47-3.17-21.44c-0.49-2.61-2.67-3.43-4.01-3.43h-6.31
			c-1.81,0-4.52,1.34-4.22,4.58c1.24,11.17,4.41,25.7,8.05,38.89c0.57,2.44,2.53,3.36,4.17,3.36l8.31,0c2.55,0,3.89-2.04,4.13-3.39
			l3.85-17.56h0.16l3.85,17.56c0.25,1.35,1.59,3.39,4.13,3.39l8.31,0c1.64,0,3.6-0.92,4.17-3.36c3.65-13.2,6.81-27.72,8.05-38.89
			C118.97,224.9,116.25,223.56,114.44,223.56"/>
		<path id="path13366" class="st0" d="M12.34,214.02c0-2.33,1.89-4.22,4.22-4.22h7.7c2.33,0,4.22,1.89,4.22,4.22v9.54h4.07
			c1.59,0,2.89,1.3,2.89,2.89v4.69c0,1.59-1.3,2.89-2.89,2.89h-4.07v22.08c0,2.68,1.69,3.63,4.07,3.63c1.59,0,2.89,1.3,2.89,2.89
			v4.87c0,1.59-1.3,2.89-2.89,2.89c-2.25,0.17-4.58,0.25-6.29,0.25c-9.04,0-13.91-5.53-13.91-15.92v-20.7H9.17
			c-1.59,0-2.89-1.29-2.89-2.89v-4.69c0-1.6,1.3-2.89,2.89-2.89h3.17"/>
		<path id="path13370" class="st0" d="M183.74,226.91c0.4-1.91,2.1-3.35,4.13-3.35h6.01c2.33,0,4.22,1.89,4.22,4.21
			c0,0.23-0.02,0.46-0.05,0.67c-2.13,13.04-6.79,29.17-11.03,43.04c-3.23,10.56-7.45,14.12-15.43,14.12c-1.95,0-4.08-0.03-5.75-0.12
			c-1.6,0-2.89-1.29-2.89-2.89v-5c0-1.6,1.29-2.89,2.89-2.89l-0.01,0l0.41,0c3.7,0,4.95-2.6,4.93-3.55
			c-0.02-1.55-0.33-2.25-0.65-3.46c-2.95-9.44-6.45-24.47-9.47-39.04c-0.06-0.28-0.09-0.57-0.09-0.87c0-2.33,1.89-4.21,4.21-4.21
			h6.16c1.96,0,3.61,1.34,4.08,3.14c1.59,5.84,3.23,16.87,4.53,23.65h0.16C181.22,242.78,182.56,232.32,183.74,226.91"/>
		<path id="path13374" class="st0" d="M132.58,270.96c-7.8,0-12.84-5.23-12.84-13.32c0-8.34,5.79-13.72,18.22-16.95
			c2.82-0.67,4.02-2.03,4.02-4.55c0-1.78-1.26-3.07-3-3.07c-1.56,0-2.7,0.81-3.04,2.17c-0.59,2.42-2.23,3.55-5.15,3.55h-4.08
			c-2.91,0-4.73-1.77-4.73-4.62c0-0.48,0.07-0.95,0.22-1.39c2.63-8.96,11.64-10.3,16.78-10.3c5.89,0,9.96,0.95,12.81,3.01
			c3.33,2.4,5.06,6.39,5.29,12.18c0.29,6.88,0.52,20.59,0.09,28.15c0,2.52-2.12,4.59-4.72,4.59h-5.33c-2.42,0-4.33-1.76-4.69-4.32
			C140.4,269.2,136.88,270.96,132.58,270.96 M142.26,249.51c-0.64,0.52-1.5,0.95-2.39,1.4c-2.11,1.06-4.5,2.25-4.81,5
			c-0.14,1.2,0.14,2.23,0.81,2.96c0.58,0.64,1.44,1.01,2.29,1.01c2.46,0,4.1-1.12,4.1-6.57"/>
		<path id="path13378" class="st1" d="M55.44,211.12l-0.19-0.39v0c-1.57-3.04-4.74-5.12-8.4-5.12c-5.22,0-9.45,4.23-9.45,9.45
			c0,3.02,1.42,5.71,3.63,7.44v0c2.69,2.09,5.45,6.03-1.06,12.16c-1.23,1.28-0.35,2.29,0.47,2.82c1.99,1.29,3.31,1.1,5.44,0
			C51.34,234.65,61.22,223.16,55.44,211.12"/>
	</g>
</g>
</svg>
