<?xml version="1.0" encoding="utf-8"?>
<!-- Generator: Adobe Illustrator 25.4.1, SVG Export Plug-In . SVG Version: 6.00 Build 0)  -->
<svg version="1.1" id="Layer_2_00000159471598350358213750000014612203606435250611_"
	 xmlns="http://www.w3.org/2000/svg" xmlns:xlink="http://www.w3.org/1999/xlink" x="0px" y="0px" viewBox="0 0 61.5 80"
	 style="enable-background:new 0 0 61.5 80;" xml:space="preserve">
<style type="text/css">
	.st0{fill:url(#path8794_00000132078250343335019560000012095341921486141104_);}
	.st1{fill:#341F14;}
</style>
<g>
	
		<linearGradient id="path8794_00000124864648236428852200000017476290090564748437_" gradientUnits="userSpaceOnUse" x1="-609.9401" y1="573.7388" x2="-609.9401" y2="572.6917" gradientTransform="matrix(14.0977 0 0 14.0959 8629.4971 -8021.1523)">
		<stop  offset="0" style="stop-color:#FFDD00"/>
		<stop  offset="0.25" style="stop-color:#FCCC00"/>
		<stop  offset="0.7" style="stop-color:#F4A000"/>
		<stop  offset="1" style="stop-color:#EE7F00"/>
	</linearGradient>
	<path id="path8794" style="fill:url(#path8794_00000124864648236428852200000017476290090564748437_);" d="M30.8,80
		C13.8,80,0,66.2,0,49.2c0-17,13.8-30.8,30.8-30.8c17,0,30.8,13.8,30.8,30.8S47.7,80,30.8,80L30.8,80z"/>
	<path id="path8796" class="st1" d="M43.2,58.5c-9.9,5.7-14.7,5.6-24.9-0.1c0,0.8,0,1.5,0.3,2.1c3.3,2.6,7.2,5.4,12.6,6.4
		c5.2-1.1,6.1-2.3,9.9-4.6C42.2,61.3,43.8,60.3,43.2,58.5 M24.4,65.7c-2.4,3.5-5.2,7.5-5,12.1c6.2,2.8,15.6,2.7,22.1,0.1
		c0.1-4.6-2-8.8-4.7-12.2C33.3,68,27.9,68,24.4,65.7 M20.4,45.6c-0.7,0.6-0.9,1.9-0.4,2.7c2.6-0.6,6.1-1.6,9-1.3
		c-0.4,4.6-6.2,4-9,5.7c2,2.3,5.6,0.3,8.2,1c-1.2,2.2-2.5,4.2-3.1,6.7c2.7,2.3,5,2,5.6,2c0.6,0,3.3,0.2,5.3-1.8
		c-0.5-2.5-1.4-4.8-2.9-6.9c2.8-0.9,6.6,1.6,8.3-1C40.1,52,38.4,52,37,51.4c-2.5-0.3-3-2.8-4.3-4.4c3.3-0.8,6.3,0.9,9,1.2
		c0.2-6.6-7.4-1.2-10.3-4.7c3.5-0.2,6.9-1.7,10.3-0.5c-0.1-0.7,0.4-1.7-0.4-2.1c-3.4-0.9-6.4,0.6-9.8-0.5c2.2-2.7,5.7-0.3,8.9-1.1
		c1.3-0.1,1.5-1.9,1.3-3c-2.5,2.5-6.9-0.5-10.1,0.6c0.2-0.3,0.2-0.7,0.5-1c2.3-2.9,10,0.4,9.9-4.9c0-0.4-0.1-0.8-0.2-1.2
		c-0.7-3.2-0.5-2.5-1.5-5.1c-1.5-3.6-7.1-4.8-8-6.9c-0.6-5.9-0.8-9.1-0.8-18h-0.9c0.2,6.3-0.7,11.9-1,17.9c-0.9,2.1-6.6,3.2-8,6.9
		c-1,2.7-0.9,2-1.5,5.1c-0.1,0.5-0.2,0.9-0.2,1.3c0,5,7.6,1.9,9.9,4.8l0.2,1c-3.1-1.3-6.8,1.5-9.6-1.1c-0.6,0.7-0.9,1.4-0.7,2.2
		c2.2,2.8,8.5-1.4,10.1,2.4c-2.7,0.7-6.1-0.2-9.2,0.1c-0.6,0.2-1,0.4-1.1,0.9C19.8,42,20,42.5,20.3,43c3.4-1.2,6.7,0.3,10.1,0.5
		C28,46.2,23.2,43.9,20.4,45.6"/>
</g>
</svg>
