<?xml version="1.0" encoding="utf-8"?>
<!-- Generator: Adobe Illustrator 25.4.1, SVG Export Plug-In . SVG Version: 6.00 Build 0)  -->
<svg version="1.1" id="Layer_2_00000159471598350358213750000014612203606435250611_"
	 xmlns="http://www.w3.org/2000/svg" xmlns:xlink="http://www.w3.org/1999/xlink" x="0px" y="0px" viewBox="0 0 93.2 80"
	 style="enable-background:new 0 0 93.2 80;" xml:space="preserve">
<style type="text/css">
	.st0{fill:#341F14;}
	.st1{fill:url(#path8794_00000101786812025940152630000006142193078164588431_);}
</style>
<g id="layer1" transform="translate(127.40859,73.723295)">
	<g id="g10822" transform="translate(0.13229429,-0.13229168)">
		<path id="path8782" class="st0" d="M-121.5,2.1v4.3h-0.7l-1.9-3v3h-0.7V2.1h0.7l1.9,3v-3H-121.5z M-120.7,4.3c0-1.2,1-2.1,2.1-2.1
			c1.2,0,2.1,1,2.1,2.1c0,1.2-1,2.1-2.1,2.1C-119.7,6.4-120.7,5.4-120.7,4.3 M-120,4.3c0,0.8,0.6,1.4,1.4,1.4c0.8,0,1.4-0.6,1.4-1.4
			c0-0.8-0.6-1.4-1.4-1.4C-119.3,2.9-120,3.5-120,4.3 M-115.6,5.4l0.7-0.3c0.1,0.4,0.5,0.5,0.8,0.5h0.1c0.3,0,0.7-0.2,0.7-0.5V5
			c0-0.1,0-0.2-0.1-0.3c-0.2-0.2-0.4-0.3-0.8-0.3c-0.4,0-0.8-0.1-1.1-0.6c-0.2-0.3-0.2-0.5-0.2-0.6c0-0.1,0-0.3,0.2-0.6
			c0.3-0.5,0.8-0.6,1.1-0.6c0.6,0,1.1,0.4,1.1,0.4l-0.4,0.6c0,0-0.4-0.3-0.7-0.3c-0.1,0-0.4,0-0.5,0.2c-0.1,0.1-0.1,0.2-0.1,0.2
			c0,0,0,0.1,0.1,0.2c0.1,0.1,0.3,0.2,0.5,0.2c0.6,0,1.1,0.2,1.3,0.6c0.2,0.2,0.3,0.5,0.3,0.8c0,0.1,0,0.2,0,0.3
			c-0.1,0.6-0.7,1-1.4,1.1h-0.1C-114.9,6.4-115.4,6-115.6,5.4 M-109.2,6.4h-0.7V2.1h1.7c0,0,0.4,0,0.8,0.2c0.5,0.3,0.8,0.8,0.8,1.4
			c0,0.7-0.3,1.2-0.8,1.5l-0.1,0l0.8,1.1h-0.9l-0.7-1h-0.9L-109.2,6.4L-109.2,6.4z M-109.2,4.7h0.9c0,0,0.3,0,0.5-0.1
			c0.3-0.2,0.4-0.4,0.4-0.8c0-0.4-0.2-0.7-0.4-0.8c-0.2-0.1-0.5-0.1-0.5-0.1h-0.9L-109.2,4.7L-109.2,4.7z M-101.9,6.4h-0.8l-0.3-0.9
			h-1.7l-0.3,0.9h-0.8l1.6-4.3h0.8L-101.9,6.4z M-103.3,4.8l-0.6-1.6l-0.6,1.6H-103.3z M-97.8,5.7c-0.4,0.4-0.9,0.6-1.5,0.6
			c-1.2,0-2.1-1-2.1-2.1c0-1.2,1-2.1,2.1-2.1c0.6,0,1.1,0.3,1.5,0.6l-0.5,0.5c-0.3-0.3-0.6-0.4-1-0.4c-0.8,0-1.4,0.6-1.4,1.4
			c0,0.8,0.6,1.4,1.4,1.4c0.4,0,0.7-0.2,1-0.4L-97.8,5.7z M-97,2.1l0.7,0l0,4.3l-0.7,0L-97,2.1z M-92,2.1v4.3h-0.8l-1.9-3v3h-0.7
			l0-4.3h0.8l1.9,3l0-3H-92z M-90.4,2.8V4h1.7v0.7h-1.7v0.9l2.1,0v0.7h-2.8V2.1h2.8v0.7L-90.4,2.8L-90.4,2.8L-90.4,2.8L-90.4,2.8z
			 M-87.5,5.4l0.7-0.3c0.1,0.4,0.5,0.5,0.8,0.5h0.1c0.3,0,0.7-0.2,0.7-0.5V5c0-0.1,0-0.2-0.1-0.3c-0.2-0.2-0.4-0.3-0.8-0.3
			c-0.4,0-0.8-0.1-1.1-0.6c-0.2-0.3-0.2-0.5-0.2-0.6c0-0.1,0-0.3,0.2-0.6C-86.9,2.1-86.4,2-86,2c0.6,0,1.1,0.4,1.1,0.4L-85.3,3
			c0,0-0.4-0.3-0.7-0.3c-0.1,0-0.4,0-0.5,0.2c-0.1,0.1-0.1,0.2-0.1,0.2c0,0,0,0.1,0.1,0.2c0.1,0.1,0.3,0.2,0.5,0.2
			c0.6,0,1.1,0.2,1.3,0.6c0.2,0.2,0.3,0.5,0.3,0.8c0,0.1,0,0.2,0,0.3c-0.1,0.6-0.7,1-1.4,1.1H-86C-86.7,6.3-87.3,6-87.5,5.4
			 M-81.8,4.2c0-1.2,1-2.1,2.1-2.1c1.2,0,2.1,1,2.1,2.1c0,1.2-1,2.1-2.1,2.1C-80.8,6.3-81.8,5.4-81.8,4.2 M-81,4.2
			c0,0.8,0.6,1.4,1.4,1.4c0.8,0,1.4-0.6,1.4-1.4c0-0.8-0.6-1.4-1.4-1.4C-80.4,2.8-81.1,3.4-81,4.2 M-73.3,2.1l0,4.3h-0.8l-1.9-3l0,3
			h-0.7V2.1h0.8l1.9,3v-3H-73.3z M-69.3,2.8h-1.2l0,3.5h-0.7V2.8h-1.2V2.1l3.2,0L-69.3,2.8L-69.3,2.8L-69.3,2.8z M-66.6,6.3V2h1.4
			c0.1,0,0.5,0,1,0.3c0.4,0.3,1,0.8,1,1.9c0,1.1-0.5,1.6-1,1.9c-0.5,0.3-0.9,0.3-1,0.3L-66.6,6.3z M-65.9,5.6h0.7c0,0,0.4,0,0.6-0.2
			c0.4-0.2,0.6-0.6,0.6-1.2c0-0.6-0.2-1-0.6-1.2c-0.3-0.2-0.6-0.2-0.6-0.2h-0.7L-65.9,5.6L-65.9,5.6z M-61.7,2.7V4h1.7v0.7h-1.7v0.9
			l2.1,0v0.7h-2.8V2h2.8v0.7L-61.7,2.7L-61.7,2.7L-61.7,2.7z M-58.8,5.3l0.7-0.3c0.1,0.4,0.5,0.5,0.8,0.5h0.1c0.3,0,0.7-0.2,0.7-0.5
			V4.9c0-0.1,0-0.2-0.1-0.3c-0.2-0.2-0.4-0.3-0.8-0.3c-0.4,0-0.8-0.1-1.1-0.6c-0.2-0.3-0.2-0.5-0.2-0.6c0-0.1,0-0.3,0.2-0.6
			c0.3-0.5,0.8-0.6,1.1-0.6c0.6,0,1.1,0.4,1.1,0.4L-56.7,3c0,0-0.4-0.3-0.7-0.3c-0.1,0-0.4,0-0.5,0.2c-0.1,0.1-0.1,0.2-0.1,0.2
			c0,0,0,0.1,0.1,0.2c0.1,0.1,0.3,0.2,0.5,0.2c0.6,0,1.1,0.2,1.3,0.6c0.2,0.2,0.3,0.5,0.3,0.8c0,0.1,0,0.2,0,0.3
			c-0.1,0.6-0.7,1-1.4,1.1h-0.1C-58,6.2-58.5,5.9-58.8,5.3 M-49.2,6.2H-50l-0.3-0.9H-52l-0.3,0.9h-0.8l1.6-4.3h0.8L-49.2,6.2z
			 M-50.6,4.6L-51.2,3l-0.6,1.6H-50.6L-50.6,4.6z M-48.5,2l0.7,0l0,4.3l-0.7,0L-48.5,2L-48.5,2z M-44.4,6.2h-2.5l0-4.3h0.7v3.5h1.8
			L-44.4,6.2z M-42.9,2.7v1.2h1.7v0.7h-1.7v0.9h2.1v0.7h-2.8V2h2.8v0.7L-42.9,2.7L-42.9,2.7z M-40,5.3l0.7-0.3
			c0.1,0.4,0.5,0.5,0.8,0.5h0.1c0.3,0,0.7-0.2,0.7-0.5V4.8c0-0.1,0-0.2-0.1-0.3c-0.2-0.2-0.4-0.3-0.8-0.3c-0.4,0-0.8-0.1-1.1-0.6
			c-0.2-0.3-0.2-0.5-0.2-0.6c0-0.1,0-0.3,0.2-0.6c0.3-0.5,0.8-0.6,1.1-0.6c0.6,0,1.1,0.4,1.1,0.4l-0.4,0.6c0,0-0.4-0.3-0.7-0.3
			c-0.1,0-0.4,0-0.5,0.2C-39.2,2.9-39.2,3-39.2,3c0,0,0,0.1,0.1,0.2c0.1,0.1,0.3,0.2,0.5,0.2c0.6,0,1.1,0.2,1.3,0.6
			c0.2,0.2,0.3,0.5,0.3,0.8c0,0.1,0,0.2,0,0.3c-0.1,0.6-0.7,1-1.4,1.1h-0.1C-39.2,6.2-39.8,5.9-40,5.3 M-42.1-1.9
			C-46.8-2.3-53.5-3-61.8-3.4c-4.5-0.2-9.1-0.4-13.6-0.5L-79.2-4c-0.6,0-1.3,0-1.9,0l-2,0c-2.6,0-5.3,0.1-8.1,0.2
			c-11,0.4-23.1,1.3-35.8,2.9h-0.1l0,0.3c12.7-1.3,24.8-1.9,35.8-2.1c2.8,0,5.4-0.1,8-0.1h2l1.9,0l3.7,0c4.9,0,9.5,0.1,13.6,0.2
			c8.3,0.3,15.1,0.7,19.7,1.1c4.6,0.4,7.2,0.6,7.2,0.6C-34.9-1-37.5-1.3-42.1-1.9 M-120.2-9c-0.3,0-0.5,0-0.5-0.2
			c-0.1-0.2-0.1-0.4-0.1-0.6v-2.6c0-1.8-1.2-2.7-3.5-2.7c-1,0-2,0.2-2.7,0.5h0l0.3,1.6l0.1,0c0.5-0.3,1.2-0.4,2.1-0.4
			c0.6,0,1.7,0.1,1.7,1v0.4c-0.6-0.4-1.4-0.4-1.9-0.4c-0.9,0-1.7,0.3-2.2,0.8c-0.4,0.4-0.6,1.1-0.6,1.8c0,1.5,1.4,2.3,2.6,2.3
			c0.8,0,2-0.3,2.4-1.1c0,0.4,0.2,0.6,0.4,0.8c0.4,0.3,1.1,0.4,1.9,0.2h0L-120.2-9L-120.2-9L-120.2-9z M-123-10.3
			c-0.1,0.8-1,1.1-1.6,1.1c-0.4,0-0.9-0.2-0.9-0.7c0-0.3,0-0.5,0.2-0.7c0.2-0.2,0.5-0.4,0.9-0.4c0.5,0,1.1,0.2,1.4,0.4L-123-10.3
			L-123-10.3L-123-10.3L-123-10.3L-123-10.3z M-117.4-18.2L-117.4-18.2c-0.6,0-1.3,0.4-1.3,1.2c0,0.9,0.7,1.2,1.3,1.2h0
			c0.6,0,1.2-0.4,1.2-1.2C-116.2-17.8-116.8-18.2-117.4-18.2 M-118.5-14.9h2.1v7.1h-2.1V-14.9L-118.5-14.9z M-109.9-15.2
			L-109.9-15.2c-1,0-1.7,0.4-2.1,1.1c-0.1-0.7-0.7-1.1-1.7-1.1c-0.4,0-0.8,0.1-1,0.1h0v1.3h0c0.1,0,0.1,0,0.2,0
			c0.4,0,0.5,0.3,0.5,0.9v5.1h2.1v-3.9c0-1.2,0.8-1.7,1.6-1.7c0.5,0,0.9,0.1,1.3,0.4l0,0l0.5-1.8l0,0
			C-108.8-15-109.3-15.2-109.9-15.2 M-98.5-10.5c-0.2,0.7-0.8,1.1-1.5,1.1c-0.9,0-1.8-0.7-1.8-1.9c0-1.2,0.9-1.9,1.8-1.9h0
			c0.6,0,1.2,0.4,1.4,1v0h2.1v0c-0.4-2-2.1-2.9-3.6-2.9c-1.9,0-3.9,1.3-3.9,3.8c0,1.2,0.4,2.1,1.2,2.9c0.7,0.6,1.6,1,2.6,1h0
			c1.6,0,3.3-0.9,3.6-2.9v0L-98.5-10.5z M-87.9-9c-0.3,0-0.5,0-0.5-0.2c-0.1-0.2-0.1-0.4-0.1-0.6v-2.6c0-1.8-1.2-2.7-3.5-2.7
			c-1,0-2,0.2-2.7,0.5h0l0.3,1.6l0.1,0c0.5-0.3,1.2-0.4,2.1-0.4c0.6,0,1.7,0.1,1.7,1v0.4c-0.6-0.4-1.4-0.4-1.9-0.4
			c-0.9,0-1.7,0.3-2.2,0.8c-0.4,0.4-0.6,1.1-0.6,1.8c0.1,1.5,1.4,2.3,2.6,2.3c0.8,0,2-0.3,2.4-1.1c0,0.4,0.2,0.6,0.4,0.8
			c0.4,0.3,1.1,0.4,1.9,0.2h0L-87.9-9L-87.9-9L-87.9-9z M-90.7-10.3c-0.1,0.8-1,1.1-1.6,1.1c-0.4,0-0.9-0.2-0.9-0.7
			c0-0.3,0-0.5,0.2-0.7c0.2-0.2,0.5-0.4,0.9-0.4c0.5,0,1.1,0.2,1.4,0.4L-90.7-10.3L-90.7-10.3L-90.7-10.3L-90.7-10.3L-90.7-10.3z
			 M-82.8-9.4c-0.2,0-0.4,0-0.5,0c-0.6,0-0.9-0.3-0.9-1.2v-8.2h-2.1v8.2c0,1,0.2,1.8,0.6,2.2c0.4,0.4,1,0.6,1.8,0.6
			c0.4,0,0.7,0,1.2-0.1h0L-82.8-9.4L-82.8-9.4z M-78-15.2c-1.9,0-3.7,1.2-3.8,3.7c0,1.2,0.4,2.1,1.1,2.9c0.7,0.7,1.7,1,2.9,1h0.1
			c0.9,0,1.9-0.2,2.8-0.6h0l-0.3-1.6l0,0c-0.4,0.2-1.1,0.4-1.7,0.4c-0.1,0-0.3,0-0.5,0h-0.5c-0.8-0.1-1.8-0.4-1.9-1.5h4.9v0
			c0.3-1.3,0.1-2.4-0.5-3.1C-75.9-14.8-76.8-15.2-78-15.2 M-78-13.5c0.5,0,0.9,0.1,1.2,0.4c0.2,0.2,0.3,0.4,0.3,0.8h-3
			C-79.5-13-78.8-13.5-78-13.5 M-76.3-17.7v-0.2l-1.8-0.7l-1.1,2.2v0.2h1.6L-76.3-17.7L-76.3-17.7z M-65.5-9.1c-0.3,0-0.4,0-0.5-0.1
			c-0.1-0.1-0.1-0.4-0.1-0.7v-8.7h-2.1v3.9c-0.5-0.3-1.1-0.4-1.6-0.4c-2,0-3.5,1.6-3.5,3.7c0,1,0.3,2,0.8,2.7
			c0.6,0.8,1.4,1.2,2.4,1.2h0.1c0.9,0,1.7-0.5,2.1-1.2v0c0,0.8,0.5,1.2,1.4,1.2c0.3,0,0.6,0,1-0.1h0L-65.5-9.1L-65.5-9.1L-65.5-9.1z
			 M-68.2-12.9v1.8c0,0.9-0.6,1.6-1.4,1.6c-1,0-1.5-0.7-1.5-1.9c0-1.2,0.7-1.9,1.7-1.9C-69.1-13.3-68.6-13.1-68.2-12.9 M-60.3-15.2
			L-60.3-15.2c-1.9,0-3.8,1.2-3.8,3.8s2,3.8,3.8,3.8c1.8,0,3.8-1.2,3.8-3.8S-58.5-15.2-60.3-15.2 M-58.6-11.4c0,0.6-0.2,1.1-0.5,1.4
			c-0.3,0.3-0.7,0.5-1.2,0.5h0c-0.8,0-1.7-0.6-1.7-1.9c0-1.3,0.9-1.9,1.7-1.9C-59.5-13.3-58.6-12.7-58.6-11.4 M-50.3-15.1
			c-0.8,0-1.8,0.3-2.2,1c-0.1-0.6-0.6-1-1.5-1c-0.3,0-0.7,0-1.1,0.1h0v1.4h0c0.6,0,0.6,0.2,0.6,0.9v5h2.1v-4.1c0-1,0.7-1.5,1.5-1.5
			c0.4,0,0.7,0.1,1,0.4c0.3,0.3,0.4,0.6,0.4,1.1v4.2h2.2v-4.2C-47.4-14-48.5-15.1-50.3-15.1 M-45.4-14.9h2.1v7.1h-2.1V-14.9
			L-45.4-14.9z M-44.3-18.2L-44.3-18.2c-0.6,0-1.3,0.4-1.3,1.2c0,0.9,0.7,1.2,1.3,1.2h0c0.6,0,1.2-0.4,1.2-1.2
			C-43-17.8-43.7-18.2-44.3-18.2 M-34.9-14c-0.6-0.7-1.5-1.1-2.7-1.1c-1.9,0-3.7,1.2-3.8,3.7c0,1.2,0.4,2.1,1.1,2.9
			c0.7,0.7,1.7,1,2.9,1h0.1c0.9,0,1.9-0.2,2.8-0.6h0l-0.3-1.6l0,0c-0.4,0.2-1.1,0.4-1.7,0.4c-0.1,0-0.3,0-0.5,0h-0.5
			c-0.8-0.1-1.8-0.4-1.9-1.5h4.9v0C-34.1-12.2-34.3-13.3-34.9-14 M-37.7-13.5c0.5,0,0.9,0.1,1.2,0.4c0.2,0.2,0.3,0.4,0.3,0.8h-3
			C-39.1-13-38.5-13.5-37.7-13.5"/>
		
			<linearGradient id="path8794_00000057846804541320224270000011241402919991168957_" gradientUnits="userSpaceOnUse" x1="-736.3575" y1="498.4326" x2="-736.3575" y2="497.7677" gradientTransform="matrix(14.0977 0 0 14.0959 10299.9873 -7057.4097)">
			<stop  offset="0" style="stop-color:#FFDD00"/>
			<stop  offset="0.25" style="stop-color:#FCCC00"/>
			<stop  offset="0.7" style="stop-color:#F4A000"/>
			<stop  offset="1" style="stop-color:#EE7F00"/>
		</linearGradient>
		<path id="path8794" style="fill:url(#path8794_00000057846804541320224270000011241402919991168957_);" d="M-80.9-22.8
			c-10.8,0-19.5-8.8-19.5-19.5s8.8-19.5,19.5-19.5c10.8,0,19.5,8.8,19.5,19.5S-70.2-22.8-80.9-22.8L-80.9-22.8z"/>
		<path id="path8796" class="st0" d="M-73.1-36.4c-6.3,3.6-9.3,3.5-15.8,0c0,0.5,0,1,0.2,1.3c2.1,1.7,4.6,3.4,8,4
			c3.3-0.7,3.9-1.5,6.3-2.9C-73.7-34.7-72.6-35.3-73.1-36.4 M-85-31.8c-1.5,2.2-3.3,4.8-3.2,7.7c3.9,1.8,9.9,1.7,14,0.1
			c0.1-2.9-1.2-5.6-3-7.8C-79.3-30.4-82.7-30.4-85-31.8 M-87.5-44.7c-0.4,0.4-0.5,1.2-0.2,1.7c1.7-0.4,3.8-1,5.7-0.8
			c-0.2,2.9-3.9,2.6-5.7,3.6c1.2,1.5,3.6,0.2,5.2,0.6c-0.8,1.4-1.6,2.7-2,4.3c1.7,1.5,3.2,1.3,3.5,1.3c0.4,0,2.1,0.1,3.4-1.2
			c-0.3-1.6-0.9-3.1-1.8-4.4c1.8-0.5,4.2,1,5.3-0.6c-0.9-0.5-2-0.5-2.9-0.8c-1.6-0.2-1.9-1.8-2.7-2.8c2.1-0.5,4,0.6,5.7,0.8
			c0.1-4.2-4.7-0.8-6.5-3c2.2-0.1,4.4-1.1,6.5-0.3c-0.1-0.4,0.2-1.1-0.2-1.3c-2.1-0.5-4,0.4-6.2-0.3c1.4-1.7,3.6-0.2,5.6-0.7
			c0.8-0.1,1-1.2,0.8-1.9c-1.6,1.6-4.4-0.3-6.4,0.4c0.1-0.2,0.1-0.4,0.3-0.6c1.4-1.8,6.4,0.2,6.3-3.1c0-0.2,0-0.5-0.1-0.7
			c-0.4-2-0.3-1.6-0.9-3.3c-1-2.3-4.5-3-5.1-4.4c-0.4-3.7-0.5-5.8-0.5-11.4h-0.5c0.1,4-0.4,7.6-0.6,11.3c-0.6,1.3-4.2,2-5.1,4.4
			c-0.6,1.7-0.5,1.2-0.9,3.3c-0.1,0.3-0.1,0.6-0.1,0.8c0,3.2,4.8,1.2,6.3,3l0.1,0.6c-2-0.8-4.3,1-6.1-0.7c-0.4,0.4-0.5,0.9-0.4,1.4
			c1.4,1.8,5.4-0.9,6.4,1.5c-1.7,0.4-3.8-0.1-5.9,0c-0.4,0.1-0.6,0.2-0.7,0.5c0,0.4,0.1,0.7,0.3,1.1c2.1-0.8,4.3,0.2,6.4,0.3
			C-82.7-44.2-85.7-45.7-87.5-44.7"/>
	</g>
</g>
</svg>
