<svg width="80" height="80" viewBox="0 0 80 80" fill="none" xmlns="http://www.w3.org/2000/svg">
<path d="M72.381 42.6667H35.5048C33.8286 42.6667 33.0667 43.4286 33.0667 44.8C33.0667 48.1524 34.8952 51.3524 38.5524 54.4C42.2095 57.4476 46.1714 58.9714 50.4381 58.9714C52.8762 58.9714 55.7714 58.5143 58.819 57.6C61.8667 56.6857 64.4571 55.4667 66.4381 54.0952C68.2667 52.8762 69.6381 52.2667 70.7048 52.2667C72.0762 52.2667 73.4476 53.0286 74.6667 54.7048C76.0381 56.381 76.6476 58.0571 76.6476 59.8857C76.6476 63.6952 74.3619 67.2 69.6381 70.7048C61.4095 76.9524 51.8095 80 40.9905 80C30.019 80 20.8762 76.8 13.4095 70.4C9.75238 67.2 6.85714 63.5429 4.57143 59.1238C1.52381 53.181 0 47.0857 0 40.5333C0 31.8476 2.59048 23.9238 7.92381 16.9143C12.4952 10.8191 18.2857 6.40002 25.4476 3.3524C30.781 1.06669 36.5714 0 42.6667 0C52.5714 0 60.9524 2.74286 67.9619 8.38095C71.4667 11.1238 74.2095 14.4762 76.3429 18.4381C78.781 22.8572 80 27.1238 80 31.2381C80 34.5905 79.2381 37.3333 77.8667 39.619C76.3429 41.6 74.5143 42.6667 72.381 42.6667ZM37.6381 28.0381H45.5619C48.9143 28.0381 50.5905 26.5143 50.5905 23.4667C50.5905 20.7238 49.8286 18.2857 48.1524 16.6095C46.4762 14.781 44.4952 14.0191 41.7524 14.0191C38.8571 14.0191 36.5714 15.2381 34.8952 17.5238C33.3714 19.6571 32.6095 21.7905 32.6095 24.0762C32.6095 25.6 32.9143 26.6667 33.6762 27.4286C34.4381 27.7333 35.6571 28.0381 37.6381 28.0381Z" fill="#FF6600"/>
</svg>
