<svg width="356" height="80" viewBox="0 0 356 80" fill="none" xmlns="http://www.w3.org/2000/svg">
<path d="M43.4286 43.6H21.3029C20.2971 43.6 19.84 44.0572 19.84 44.88C19.84 46.8914 20.9371 48.8114 23.1314 50.64C25.3257 52.4686 27.7029 53.3829 30.2629 53.3829C31.7257 53.3829 33.4629 53.1086 35.2914 52.56C37.12 52.0114 38.6743 51.28 39.8629 50.4571C40.96 49.7257 41.7829 49.36 42.4229 49.36C43.2457 49.36 44.0686 49.8172 44.8 50.8229C45.6229 51.8286 45.9886 52.8343 45.9886 53.9314C45.9886 56.2171 44.6171 58.32 41.7829 60.4229C36.8457 64.1714 31.0857 66 24.5943 66C18.0114 66 12.5257 64.08 8.04571 60.24C5.85143 58.32 4.11429 56.1257 2.74286 53.4743C0.914286 49.9086 0 46.2514 0 42.32C0 37.1086 1.55429 32.3543 4.75429 28.1486C7.49714 24.4914 10.9714 21.84 15.2686 20.0114C18.4686 18.64 21.9429 18 25.6 18C31.5429 18 36.5714 19.6457 40.7771 23.0286C42.88 24.6743 44.5257 26.6857 45.8057 29.0629C47.2686 31.7143 48 34.2743 48 36.7429C48 38.7543 47.5429 40.4 46.72 41.7714C45.8057 42.96 44.7086 43.6 43.4286 43.6ZM22.5829 34.8229H27.3371C29.3486 34.8229 30.3543 33.9086 30.3543 32.08C30.3543 30.4343 29.8971 28.9714 28.8914 27.9657C27.8857 26.8686 26.6971 26.4114 25.0514 26.4114C23.3143 26.4114 21.9429 27.1429 20.9371 28.5143C20.0229 29.7943 19.5657 31.0743 19.5657 32.4457C19.5657 33.36 19.7486 34 20.2057 34.4571C20.6629 34.64 21.3943 34.8229 22.5829 34.8229Z" fill="#FF6600"/>
<path d="M77.3732 18C82.8662 18 87.4437 19.3143 91.1972 21.9429C93.2113 23.3448 94.5845 24.9219 95.4084 26.7619C96.2324 28.6019 96.5986 31.0552 96.5986 34.2095L96.507 40.8686C96.507 45.5124 96.8732 48.4914 97.5141 49.8933C97.8803 50.5943 98.1549 50.9448 98.5211 51.12C98.7958 51.2952 99.5282 51.4705 100.535 51.6457C101.542 51.821 102 52.4343 102 53.5733C102 54.9752 101.359 56.5524 100.169 58.0419C98.9789 59.619 97.4225 60.9333 95.5 61.9848C93.1197 63.299 90.6479 64 88.0845 64C84.7887 64 82.2253 62.9486 80.3028 60.7581C79.662 59.9695 79.0211 59.619 78.4718 59.619C77.831 59.619 77.007 59.9695 76 60.7581C72.8873 62.9486 69.3169 64 65.3803 64C61.2606 64 57.9648 63.1238 55.4014 61.4591C53.7535 60.32 52.4718 58.9181 51.4648 57.0781C50.4577 55.3257 50 53.3981 50 51.4705C50 48.3162 51.2817 45.6 53.9366 43.2343C58.0563 39.4667 64.1901 37.5391 72.338 37.5391C74.169 37.5391 75.2676 37.3638 75.7253 37.0133C76.1831 36.6629 76.4577 35.8743 76.4577 34.6476C76.4577 31.4933 76.0916 29.1276 75.4507 27.7257C74.7183 26.3238 73.6197 25.6229 72.0634 25.6229C71.1479 25.6229 70.3239 25.8857 69.5915 26.4114C68.8592 26.9371 67.9437 27.901 66.8451 29.3905C64.0986 33.1581 61.169 35.0857 58.1479 35.0857C56.5916 35.0857 55.4014 34.6476 54.3944 33.7714C53.3873 32.8952 52.9296 31.7562 52.9296 30.3543C52.9296 28.9524 53.5704 27.4629 54.7606 26.0609C55.9507 24.659 57.5986 23.3448 59.7042 22.2933C65.2887 19.4019 71.1479 18 77.3732 18ZM74.169 44.0229C72.7958 44.0229 71.6056 44.5486 70.5986 45.6C69.5915 46.6514 69.0423 47.9657 69.0423 49.4552C69.0423 50.8572 69.4084 52.0838 70.1408 52.96C70.8732 53.8362 71.7887 54.2743 72.9789 54.2743C75.4507 54.2743 76.7324 52.259 76.7324 48.2286C76.7324 46.5638 76.5493 45.5124 76.1831 44.899C75.9084 44.3733 75.1761 44.0229 74.169 44.0229Z" fill="#FF6600"/>
<path d="M121.895 18.0874C123.386 18.0874 125.842 18.4373 129.263 19.0494C129.965 19.1369 130.491 19.2243 130.93 19.2243C131.456 19.2243 132.421 18.962 133.912 18.4373C134.614 18.1749 135.228 18 135.667 18C137.07 18 138.474 18.8745 139.877 20.6236C141.018 22.0228 141.982 23.5969 142.684 25.2585C143.386 26.9201 143.737 28.4068 143.737 29.6312C143.737 30.8555 143.298 31.8175 142.509 32.6046C141.632 33.3916 140.579 33.8289 139.351 33.8289C138.298 33.8289 137.333 33.5665 136.544 33.0418C135.754 32.5171 134.351 31.3802 132.596 29.7186C130.667 27.8821 129.088 26.9202 127.86 26.9202C126.982 26.9202 126.281 27.27 125.667 27.8821C125.053 28.4943 124.702 29.1939 124.702 30.0684C124.702 31.5551 126.105 32.8669 128.912 34.1787C134 36.4525 137.86 38.9011 140.579 41.6122C142.86 43.8859 144 46.6844 144 49.9202C144 54.1179 142.158 57.5285 138.474 60.327C135.316 62.7757 131.456 64 126.895 64C125.754 64 123.561 63.8251 120.491 63.3878C117.596 63.038 115.93 62.8631 115.579 62.8631C115.228 62.8631 114.702 62.9506 114.263 63.038C113.386 63.1255 112.772 63.2129 112.333 63.2129C110.93 63.2129 109.789 62.8631 109 62.1635C107.772 61.0266 106.632 59.2776 105.579 56.9164C104.526 54.5551 104 52.4563 104 50.7947C104 48.0837 105.053 46.6844 107.246 46.6844C108.123 46.6844 108.825 46.9468 109.526 47.4715C110.228 47.9962 111.719 49.4829 114 51.9316C115.228 53.2433 116.281 54.1179 117.07 54.6426C117.86 55.1673 118.737 55.3422 119.702 55.3422C120.667 55.3422 121.456 55.0798 122.07 54.5551C122.684 54.0304 122.947 53.3308 122.947 52.4563C122.947 51.1445 121.807 49.9202 119.439 48.7833C114.614 46.4221 111.105 43.9734 109 41.4373C106.895 38.9011 105.754 36.0152 105.754 32.692C105.754 29.1065 106.807 26.0456 109 23.5095C112.158 20.0114 116.456 18.0874 121.895 18.0874Z" fill="#FF6600"/>
<path d="M192.985 40.414L186.708 57.2245C185.138 61.3819 183.569 64.8163 182 67.4373C180.431 70.0583 178.677 72.3178 176.646 74.2157C172.585 78.0117 167.6 80 161.785 80C157.077 80 153.292 78.8251 150.431 76.3848C148.215 74.4869 147.108 72.137 147.108 69.3353C147.108 66.9854 147.846 64.9971 149.415 63.3703C150.985 61.7434 152.923 60.93 155.138 60.93C157.446 60.93 159.2 61.6531 160.677 63.1895C161.323 63.9125 161.785 64.4548 161.969 64.9971C162.154 65.5394 162.523 66.7143 162.985 68.4315C163.354 69.7872 164.092 70.5102 165.385 70.5102C166.4 70.5102 167.138 70.0583 167.877 69.2449C168.615 68.4315 168.892 67.3469 168.892 66.172C168.892 64.7259 168.062 62.2857 166.4 58.8513L154.954 35.0816C153.754 32.6414 152.831 31.105 152.277 30.4723C151.631 29.8397 150.338 29.1166 148.308 28.2128C147.662 27.9417 147.108 27.4898 146.646 26.7668C146.185 26.0437 146 25.3207 146 24.6881C146 21.9767 148.769 20.0787 154.4 19.0845C158.092 18.4519 162.338 18.0904 167.138 18.0904C170.462 18.0904 173.138 18.4519 175.077 19.0845C177.662 19.9883 178.954 21.5248 178.954 23.6939C178.954 24.5073 178.585 25.4111 177.846 26.4052C177.108 27.3994 176.831 28.3032 176.831 29.0262C176.831 29.7493 177.015 30.5627 177.292 31.3761C177.662 32.1895 178.308 33.5452 179.415 35.4431C180.615 37.6122 181.631 38.6968 182.554 38.6968C183.569 38.6968 184.585 37.7026 185.6 35.8047C186.615 33.9067 187.169 32.0991 187.169 30.2915C187.169 28.8455 186.8 27.6706 185.969 26.8571C184.769 25.5015 184.123 24.2362 184.123 23.242C184.123 21.7055 185.231 20.4402 187.354 19.4461C189.477 18.5423 192.338 18 195.938 18C202.677 18 206 19.5364 206 22.6997C206 23.8746 205.631 24.7784 204.985 25.5015C204.338 26.2245 203.046 26.8571 201.292 27.4898C199.815 28.0321 198.615 28.9359 197.692 30.2915C196.4 32.1895 194.831 35.6239 192.985 40.414Z" fill="#FF6600"/>
<path d="M245.033 0C248.498 0 252.055 0.264463 255.702 0.881543C258.62 1.32231 260.809 2.02755 262.085 2.90909C263.362 3.79064 264 4.93664 264 6.43526C264 7.40496 263.726 8.1102 263.271 8.63912C262.815 9.16805 261.812 9.78512 260.261 10.5785C258.438 11.4601 257.435 12.5179 257.161 13.7521C256.888 14.9862 256.614 19.7466 256.432 27.9449C256.34 35.9669 256.249 40.7273 256.158 42.314C256.067 43.9008 255.884 45.4876 255.611 46.9862C254.699 51.3939 252.875 54.832 250.14 57.3884C247.86 59.416 245.033 61.0909 241.477 62.2369C237.921 63.3829 234.274 64 230.353 64C226.888 64 223.422 63.5592 219.957 62.6777C216.492 61.7961 213.483 60.562 210.93 59.0634C208.833 57.8292 207.1 56.0661 205.915 53.9504C204.638 51.8347 204 49.4545 204 47.0744C204 44.0771 205.003 41.5207 206.918 39.5813C208.924 37.6419 211.386 36.584 214.304 36.584C217.222 36.584 219.684 37.3774 221.69 39.0523C223.696 40.7273 224.699 42.843 224.699 45.3113C224.699 45.9284 224.517 46.9862 224.152 48.4848C224.061 48.7493 224.061 49.1019 224.061 49.4545C224.061 50.4242 224.426 51.2176 225.155 51.8347C225.884 52.4518 226.796 52.7163 227.982 52.7163C230.079 52.7163 231.72 51.8347 232.997 49.9835C234.274 48.1322 234.912 45.7521 234.912 42.843L234.821 38.6997L234.729 27.5923C234.456 20.8926 234.274 16.9256 234.091 15.6915C233.909 14.4573 233.635 13.4876 232.997 12.7824C232.541 12.1653 232.085 11.8127 231.72 11.6364C231.356 11.4601 230.353 11.1956 228.802 10.7548C228.073 10.5785 227.435 10.2259 226.888 9.52066C226.34 8.81543 226.067 8.1102 226.067 7.31681C226.067 5.73003 226.705 4.40772 228.073 3.43802C229.441 2.46833 231.538 1.67493 234.547 1.05785C238.012 0.352614 241.477 0 245.033 0Z" fill="#FF6600"/>
<path d="M309.337 43.6H287.303C286.297 43.6 285.84 44.0572 285.84 44.88C285.84 46.8914 286.937 48.8114 289.131 50.64C291.326 52.4686 293.703 53.3829 296.263 53.3829C297.726 53.3829 299.463 53.1086 301.291 52.56C303.12 52.0114 304.674 51.28 305.863 50.4571C306.96 49.7257 307.783 49.36 308.423 49.36C309.246 49.36 310.069 49.8172 310.8 50.8229C311.623 51.8286 311.989 52.8343 311.989 53.9314C311.989 56.2171 310.617 58.32 307.783 60.4229C302.846 64.1714 297.086 66 290.594 66C284.011 66 278.526 64.08 274.046 60.24C271.851 58.32 270.114 56.1257 268.743 53.4743C266.914 49.9086 266 46.2514 266 42.32C266 37.1086 267.554 32.3543 270.754 28.1486C273.497 24.4914 276.971 21.84 281.269 20.0114C284.469 18.64 287.943 18 291.6 18C297.543 18 302.571 19.6457 306.777 23.0286C308.88 24.6743 310.526 26.6857 311.806 29.0629C313.269 31.7143 314 34.2743 314 36.7429C314 38.7543 313.543 40.4 312.72 41.7714C311.806 42.96 310.709 43.6 309.337 43.6ZM288.491 34.8229H293.246C295.257 34.8229 296.263 33.9086 296.263 32.08C296.263 30.4343 295.806 28.9714 294.8 27.9657C293.794 26.8686 292.606 26.4114 290.96 26.4114C289.223 26.4114 287.851 27.1429 286.846 28.5143C285.931 29.7943 285.474 31.0743 285.474 32.4457C285.474 33.36 285.657 34 286.114 34.4571C286.571 34.64 287.394 34.8229 288.491 34.8229Z" fill="#FF6600"/>
<path d="M342.605 29.2V44.6369C342.605 46.5108 343.037 47.9385 343.901 49.0985C344.765 50.2585 345.889 50.8831 347.272 50.8831C348.395 50.8831 349.951 50.3477 351.852 49.2769C352.284 49.0092 352.716 48.8308 353.148 48.8308C353.84 48.8308 354.531 49.2769 355.136 50.1692C355.741 51.0615 356 52.0431 356 53.0246C356 54.8985 354.963 56.7723 352.975 58.4677C348.741 62.1262 343.728 64 337.679 64C332.926 64 329.123 62.6615 326.272 59.8954C323.42 57.1292 321.951 53.4708 321.951 49.0092V27.8615C321.951 27.1477 321.864 26.7015 321.691 26.5231C321.519 26.3446 321.086 26.2554 320.395 26.2554H315.988C315.123 26.2554 314.605 26.0769 314.346 25.8092C314.086 25.5415 314 24.8277 314 23.7569V21.7046C314 20.8123 314.346 20.0985 315.037 19.6523L335.346 6.44615C335.864 6.17846 336.469 6 337.247 6H340.877C341.654 6 342.086 6.17847 342.346 6.53539C342.605 6.89231 342.691 7.60616 342.691 8.5877V14.7446C342.691 15.6369 342.864 16.2615 343.123 16.5292C343.383 16.7969 343.988 16.9754 344.938 16.9754H353.148C354.272 16.9754 354.963 17.1538 355.309 17.6C355.654 18.0462 355.827 18.8492 355.827 20.2769V22.9538C355.827 24.3815 355.654 25.4523 355.222 25.9877C354.79 26.5231 354.012 26.7908 352.975 26.7908H344.938C344.074 26.7908 343.556 26.9692 343.296 27.2369C342.778 27.7723 342.605 28.3077 342.605 29.2Z" fill="#FF6600"/>
</svg>
