<?xml version="1.0" encoding="utf-8"?>
<!-- Generator: Adobe Illustrator 25.4.1, SVG Export Plug-In . SVG Version: 6.00 Build 0)  -->
<svg version="1.1" id="Layer_1" xmlns="http://www.w3.org/2000/svg" xmlns:xlink="http://www.w3.org/1999/xlink" x="0px" y="0px"
	 viewBox="0 0 99.76 80" style="enable-background:new 0 0 99.76 80;" xml:space="preserve">
<style type="text/css">
	.st0{fill-rule:evenodd;clip-rule:evenodd;fill:#BA0C2F;}
</style>
<g>
	<path class="st0" d="M99.76,52.88c0,0-4.45,0.42-11.29,0.82c-8.14-9.16-23.13-19.66-40.76-29.1c6.35-4,12.21-6.63,16.65-6.63
		c0.17,0,0.33,0.01,0.5,0.01c11.77,0.54,11.83,23.87,11.83,23.87s12.07-25.84,1.29-38.84C76.27,0.96,73.92,0,71.07,0
		C63,0,50.94,7.67,38.13,19.7c-0.01,0-0.01,0-0.01,0c-7.42-3.62-15.15-7-22.92-9.98c0.27,0.16,8.94,5.57,19.59,13.2
		C29.04,28.6,23.2,35.1,17.55,42.12c-2.1-8.72,8.93-21.38,9.24-21.74C26.25,20.63-1.52,34.04,0.07,48.57
		c0.38,3.48,2.63,6.29,6.35,8.45c-2.03,2.93-4,5.9-5.88,8.91c0.21-0.23,3.16-3.37,7.74-7.94c6.61,3.11,16.77,4.61,28.9,4.61
		c10.82,0,23.21-1.19,36.04-3.49c0.77,1.56,1.28,3.04,1.49,4.44c1.75,11.65-21.13,16.23-21.13,16.23s29.86,2.4,39.44-8.18
		c3.65-4.02,2.13-9.67-3.02-16.08C93.26,54.7,96.51,53.82,99.76,52.88z M65.95,54.39c-18.21,0-38.4-1.56-45.69-7.9
		c6.76-6.22,14.49-12.85,21.9-18.16c10.77,8.13,22.04,17.7,28.12,26.02C68.85,54.38,67.41,54.39,65.95,54.39z"/>
</g>
</svg>
