<?xml version="1.0" encoding="utf-8"?>
<!-- Generator: Adobe Illustrator 25.4.1, SVG Export Plug-In . SVG Version: 6.00 Build 0)  -->
<svg version="1.1" id="Layer_1" xmlns="http://www.w3.org/2000/svg" xmlns:xlink="http://www.w3.org/1999/xlink" x="0px" y="0px"
	 viewBox="0 0 1273.82 80" style="enable-background:new 0 0 1273.82 80;" xml:space="preserve">
<style type="text/css">
	.st0{fill-rule:evenodd;clip-rule:evenodd;fill:#BA0C2F;}
</style>
<path class="st0" d="M44.87,80C22.64,80-6.74,74.25,1.38,49.47L17.38,0.58h26.68L29.18,45.89c-3.2,9.84,3.8,16.09,21.57,16.09
	c17.93,0,28.94-6.34,32.15-16.09L97.74,0.58h26.51l-16.01,48.89C100.27,73.9,67.63,80,44.87,80z M207.06,25.3
	c-1.81,5.54-6.47,7.52-10.37,7.52h-42.34l4.61-14.18h41.8C205.83,18.64,208.52,20.97,207.06,25.3z M212.18,0.58h-73.94l-25.58,78.08
	h26.67l9.09-27.81h20.09l14.66,27.81h34.91l-18.74-30.5l4.82,0c12.18,0,24.53-10.02,29.11-24.08C238.63,7.9,227.7,0.58,212.18,0.58z
	 M278.52,48.01l24.33-26.69l6.76,26.69H278.52z M323.61,0h-26.97l-78.35,78.66h32.72l12.78-14.1h49.82l3.5,14.1h33.21L323.61,0z
	 M355.84,78.66l25.59-78.08h26.6l-19.37,59.1h71.43l-12.83,18.98L355.84,78.66z M502.98,55.72h58.9L549.09,5.2L502.98,55.72z
	 M1197.87,78.59c-16.38,0-30.5-1.51-42.1-4.49l5.17-7.53c8.5,2.71,21.95,6.55,43.21,6.55c16.59,0,41.97-4.59,46.4-17.13
	c3.69-10.46-20.31-11.29-39.39-12.72c-16.98-1.34-35.94-1.76-41.23-10.42c-0.45-0.75-1.96-2.95,0.11-9.36
	c4.46-13.74,30.84-23.34,64.15-23.34c15.33,0,29.85,1.49,39.62,3.99l-4.89,7.52c-9.98-3.72-25.01-5.92-40.92-5.92
	c-18.45,0-45.19,4.21-48.76,15.08c-0.96,2.92-1.05,5.1,0.5,7.54c3.74,5.9,21.58,4.81,39.66,5.16c19.03,0.37,40.46,1.21,43.79,9.92
	c0.3,0.78,2.03,3.89-0.01,10.15C1256.92,72.86,1224,78.59,1197.87,78.59z M1042.59,77.28l25.19-76.49h87.85l-1.86,5.69h-79.13
	l-8.74,26.68h79.21l-1.87,5.72h-79.17l-10.7,32.71h79.12l-1.87,5.69H1042.59z M900.74,77.28L925.96,0l80.69,64.49l21.11-63.7h9.26
	l-25.39,77.34l-81.47-65.85l-20.09,64.87L900.74,77.28z M759.61,77.28l25.04-76.49h9.26l-22.33,68.19h73.67l-2.74,8.3H759.61z
	 M661.61,37.95h57.32c8.39,0,18.69-5.22,21.29-13.29c1.79-5.62,6.5-16.47-16.69-16.47h-52.29L661.61,37.95z M707.54,77.28
	l-16.66-32.01h-31.6l-10.38,32.01h-9.42l24.73-76.42h67.69c8.35,0,14.31,1.64,16.97,5.35c2.01,2.82,5,8.52,3.25,13.91
	c-4.24,13.18-14.96,23.8-25.99,23.8h-26.36l20.94,33.32L707.54,77.28z M860,77.28l24.93-76.49h9.95l-25,76.49H860z M595.7,77.28
	l25.05-76.49h9.95l-25.12,76.49H595.7z M567.05,77.28l-4.01-16.02h-64.7l-14.53,16.02h-12.14L541.51,0.9l16.08-0.1l20.29,76.31
	L567.05,77.28z"/>
</svg>
