<?xml version="1.0" encoding="utf-8"?>
<!-- Generator: Adobe Illustrator 25.4.1, SVG Export Plug-In . SVG Version: 6.00 Build 0)  -->
<svg version="1.1" xmlns="http://www.w3.org/2000/svg" xmlns:xlink="http://www.w3.org/1999/xlink" x="0px" y="0px"
	 viewBox="0 0 511.8 80" style="enable-background:new 0 0 511.8 80;" xml:space="preserve">
<style type="text/css">
	.st0{fill:url(#SVGID_1_);}
	.st1{fill:#213874;}
</style>
<g id="Layer_2">
</g>
<g id="Layer_1">
	<g>
		<linearGradient id="SVGID_1_" gradientUnits="userSpaceOnUse" x1="188.9068" y1="40" x2="-9.8373" y2="40">
			<stop  offset="0" style="stop-color:#F6A12F"/>
			<stop  offset="0.9997" style="stop-color:#EA591E"/>
		</linearGradient>
		<path class="st0" d="M0,29.7c0,0,62.6,5.2,85,17.6s9.1,27.1,5.9,32.7c0,0,58.1-61.1,84.6-80L0,29.7z"/>
		<g>
			<polygon class="st1" points="221.5,13.2 238.6,13.2 238.6,66.4 245.3,66.4 245.3,13.2 262.3,13.2 262.3,6.5 221.5,6.5 			"/>
			<rect x="451.7" y="6.5" class="st1" width="6.7" height="59.9"/>
			<path class="st1" d="M418.2,4.5l-0.1,0.2L418,4.5l-1.3,3.3l-25.3,58.6h6.7l7.6-17.9h24.7l7.6,17.9h6.7L419.5,7.8L418.2,4.5z
				 M408.4,42.3l9.7-22.9l9.7,22.9H408.4z"/>
			<path class="st1" d="M503.5,66.4h8.3l-22.1-27.7c2.9-0.2,6.2-0.8,9.1-2.3c3.6-1.8,7.8-5.8,7.8-14.1c0-15.3-14.4-15.8-14.5-15.8
				l-12,0v0h-1.6l-1.2,0v0h-3.8v59.9h6.7V38.8h1.8L503.5,66.4z M491.9,13.2c0.2,0,2.1,0.1,4,1.2c2.6,1.5,3.9,4,3.9,7.9
				c0,6.9-3.9,9.8-13.4,9.8h-6.4V13.2H491.9z"/>
			<path class="st1" d="M316.6,43.1V6.5h-6.7v37.3c0,1.9-0.5,8.6-4.8,13.1c-2.9,3-7,4.5-12.3,4.5c-6.4,0-10.9-2.8-13.5-8.6
				c-2.1-4.6-2.2-9.4-2.2-9.6V6.5h-6.7v37.7h0c0.1,2,0.6,6.5,2.6,11.1c3.7,8.4,10.5,12.8,19.7,12.8c7.2,0,13-2.2,17.2-6.6
				c5.8-6,6.6-14.2,6.7-17.3h0V44C316.6,43.5,316.6,43.3,316.6,43.1z"/>
			<path class="st1" d="M351.5,33.4c-0.5-0.2-1-0.4-1.5-0.7c-8.9-3.8-14.3-6.6-14.3-12.7c0-7.3,7.8-8.8,9.8-8.8
				c4.3,0,7.4,1.9,9.7,6.1l5.9-3.3c-3.6-6.3-8.8-9.5-15.6-9.5c-2.6,0-6.6,0.8-10.1,3.2c-4.3,2.9-6.5,7.2-6.5,12.4
				c0,10.9,9.8,15.1,18.4,18.9c0.5,0.2,1,0.4,1.5,0.7c7.2,3.1,8.4,7.6,8.9,11.5c0.2,1.5-0.3,4.8-2.5,7.3c-2.1,2.4-5.3,3.7-9.5,3.7
				c-9.9,0-12.6-9.3-12.7-9.7l-6.5,1.7c1.4,5.1,7.1,14.7,19.2,14.7c7.7,0,12.2-3.3,14.5-6c3.7-4.3,4.5-9.5,4.1-12.6
				C363.7,44.6,361.5,37.7,351.5,33.4z"/>
		</g>
	</g>
</g>
</svg>
