<svg width="80" height="80" viewBox="0 0 80 80" fill="none" xmlns="http://www.w3.org/2000/svg">
<path d="M80 0V79.9864H63.4289C66.9384 70.7947 67.72 59.4264 65.24 49.4606C62.2536 36.8056 53.9711 24.7711 42.2296 17.3417C31.1336 10.2732 17.0406 7.49942 3.18763 10.351L0.00192837 11.1358V0H80ZM22.0237 12.5402C17.7677 10.1886 12.175 9.84524 7.16268 10.705L8.93005 10.9073L9.18085 10.7828C11.5033 10.6116 13.9531 10.6933 16.12 11.1708C15.4103 11.3663 14.1873 11.7641 13.3319 12.1181C13.8189 12.301 14.4372 12.6112 14.8591 12.8845C15.7787 12.549 17.7113 12.0364 18.6524 11.8487C19.4942 12.0948 21.6553 13.0955 22.9959 14.0769C21.4035 14.2461 19.2395 14.5592 17.4946 14.9638C17.9067 15.3237 18.2558 15.7506 18.5678 16.2165C20.2593 15.9082 22.7344 15.6242 24.876 15.5425C25.957 16.4781 26.8446 17.6073 27.4453 18.7763C25.0918 18.6197 21.9644 18.6586 20.0483 18.8667C20.2457 19.21 20.5169 20.0863 20.6326 20.6115C23.0134 20.5104 26.8932 20.6864 28.5215 20.9227C29.0552 22.2046 29.3624 23.5905 29.4859 25.0376C26.7687 24.5017 23.5675 24.0505 21.0672 23.9299C21.0944 24.7342 21.0613 25.5035 20.9874 26.2572C23.9612 26.5665 26.8455 27.1043 29.6346 27.824C29.5967 29.242 29.3896 31.0082 29.0173 32.3737C26.8047 31.583 23.2642 30.5345 20.271 29.9267C19.9716 31.155 19.572 32.3649 19.0451 33.5242C21.9761 34.5045 24.8692 35.7805 27.6388 37.1548C27.1829 38.4687 26.5218 39.9421 25.9094 41.0333C23.1349 39.4734 20.2778 37.9474 17.4518 36.7405C16.5953 38.3043 15.5075 39.9733 14.4858 41.3436C17.2428 43.0203 19.8452 44.837 22.432 46.786C21.6563 47.923 20.5412 49.2865 19.8714 50.0986C17.3905 48.0348 12.3004 43.9831 12.3004 43.9831C10.8033 45.7863 9.52303 47.1342 7.63611 48.596C9.72523 50.7337 12.4579 53.7904 14.165 55.9067C13.2862 56.8287 12.4239 57.5611 11.3847 58.2778C9.31209 55.7317 6.81856 52.5125 5.36716 50.4925C3.32956 52.0914 2.08522 52.9579 0.00290739 54.0336V57.0271L3.31012 63.6444C2.55963 64.1258 1.94816 64.4186 0.984774 64.8339L0.00192837 62.9043V66.3822C12.7554 60.716 25.7373 48.2206 29.5111 34.6524C30.8935 29.9627 31.1336 23.9279 28.8744 19.5563C27.5484 16.6804 24.8692 13.9981 22.0237 12.5402ZM20.1213 10.5679C20.6764 10.7497 21.2071 10.9968 21.7389 11.2282L22.0383 11.1767C24.7622 11.6279 27.3647 12.5363 29.7007 13.8104C28.433 13.8211 27.1226 13.8016 25.8569 13.9067C26.3847 14.3784 26.9437 14.9317 27.4026 15.4404C29.1155 15.4073 30.7749 15.4443 32.4081 15.5522C34.0296 16.7426 35.6774 18.3367 36.599 19.9813C34.7033 19.5456 32.099 19.1731 29.7746 18.9718C30.0759 19.6632 30.3831 20.3761 30.6388 21.1153C33.2218 21.4946 35.7785 21.9663 38.2701 22.5965C39.0915 24.2975 39.7157 26.0899 39.984 27.9855C37.2377 27.0061 34.4233 26.0753 31.5351 25.4879C31.608 26.4206 31.6148 27.3786 31.6207 28.3229C34.5983 29.1837 37.5031 30.1834 40.3213 31.4594C40.3339 33.3735 40.1307 35.197 39.7011 36.9291C36.8702 35.516 33.98 34.1175 30.9732 33.0972C30.5921 34.7846 30.0925 36.4224 29.5092 38.0165C32.3935 39.4977 35.2535 41.0051 37.9833 42.7878C37.469 44.2535 36.7176 45.8456 35.8465 47.2704C33.1664 45.4361 30.4823 43.6534 27.6855 42.1012C26.7337 44.0804 25.5273 46.1091 24.1002 47.957C26.5918 49.9196 29.1437 51.9649 31.5449 54.1367C30.7555 55.3271 29.6958 56.7023 28.505 57.9608C26.7522 56.1129 23.8241 53.4812 21.388 51.4261C19.6663 53.5064 17.6297 55.8036 15.5785 57.5251C17.1436 59.1706 21.7904 64.7716 21.7904 64.7716C20.862 65.6985 19.7023 66.6535 18.5143 67.5074C18.5143 67.5074 13.7693 61.4192 12.6008 59.9516C9.79525 62.1778 7.55156 63.7359 4.26671 65.4816C5.56743 67.699 8.79782 73.7104 8.79782 73.7104C7.96762 74.2191 7.10146 74.6966 6.23528 75.0146C4.71 72.4821 2.8746 68.8136 1.89761 66.7206C0.953662 67.24 0.00290739 67.5755 0.00290739 67.5755V78.5217C9.89439 75.3064 19.0091 69.6247 26.723 61.3998C33.7526 53.7778 39.3142 45.5489 40.9649 35.7154C42.2821 27.8775 39.6865 20.4919 33.4648 15.5017C29.6919 12.2679 25.015 11.1426 20.1213 10.5679ZM16.8277 15.7886C12.4988 11.4111 5.85907 11.0444 0.000979019 12.4225C0.00292329 12.4206 0.000979019 12.9545 0.000979019 12.9545C1.2249 12.6948 2.81044 12.4439 4.26475 12.4488C3.31595 13.0226 2.40311 13.718 1.57874 14.3968C1.92968 14.4727 2.30202 14.5923 2.64421 14.7363C3.96534 13.7919 5.24369 12.974 6.30915 12.3924C7.6925 12.404 9.47833 12.6608 10.6429 13.1276C8.71714 13.8201 6.38402 14.8899 4.88207 15.9024C5.15816 16.0502 5.45075 16.2943 5.66656 16.518C7.51556 15.5308 10.1705 14.39 12.35 13.6937C13.3834 14.107 14.4955 14.8403 15.1255 15.4579C12.3393 16.1183 9.67079 16.8477 6.98672 17.9408C7.24531 18.2462 7.52821 18.7082 7.66237 18.9951C9.60275 18.3046 13.4077 17.1959 16.3922 16.6259C16.9395 17.2105 17.5937 18.1412 17.9281 19.0116C14.6306 19.3549 10.8704 19.9288 8.33023 20.6523C8.48967 21.0793 8.58882 21.4965 8.65687 21.8953C11.7833 21.2952 15.2237 20.8469 18.5882 20.7126C18.8876 21.6794 19.0558 22.7151 19.0626 23.7762C15.7087 23.5642 11.8678 23.7111 8.81337 24.0164C8.81337 24.4142 8.75699 25.2098 8.70547 25.7019C11.8017 25.6075 15.2635 25.6416 18.9605 26.0578C18.8283 27.0615 18.5882 28.3589 18.2655 29.4774C14.8095 28.6886 11.6617 28.3045 8.17955 28.0749C8.05512 28.7479 7.76542 29.5717 7.4417 30.2749C10.6954 30.8662 13.9453 31.7687 17.0833 32.8969C16.6507 33.9113 16.1481 34.9023 15.5979 35.871C13.2492 34.7652 9.08071 33.2062 6.34609 32.4408C5.89502 33.353 5.1387 34.596 4.38529 35.5179C6.34998 36.4759 10.117 38.6029 12.701 40.2738C12.0837 41.1014 11.3886 41.9592 10.6604 42.7188C8.15914 40.7688 5.67726 38.9365 2.96014 37.2073C2.09202 38.2042 1.01491 39.2818 0 40.1337V40.4488L6.24306 47.0973C5.54992 47.7285 4.84414 48.311 4.10434 48.8479L0 43.599V52.8616C6.33833 49.1406 12.7534 43.0329 16.361 36.5615C19.3037 31.3807 21.5318 24.3675 18.6806 18.4106C18.178 17.4896 17.6433 16.5948 16.8277 15.7886ZM35.4771 15.8547L37.3203 16.0803C39.1596 17.0354 40.853 18.3824 42.3744 19.9949C42.9354 20.6076 43.54 21.2271 43.9299 21.8962C42.4094 21.4654 40.9366 20.9422 39.3657 20.6018C39.8974 21.4372 40.2756 22.2522 40.6664 23.2063C42.4201 23.7111 44.1602 24.317 45.8634 24.9229C46.9551 26.9964 47.7523 29.2216 48.1334 31.5781C46.1687 30.5939 44.1982 29.6359 42.1752 28.8413C42.3317 29.9967 42.3754 31.1823 42.3316 32.3289C44.554 33.3423 47.0436 34.7078 48.5835 35.6969C48.6408 37.324 48.4785 40.2164 48.0012 42.0594C46.228 40.7669 43.6742 39.1086 41.6016 38.0398C41.3197 39.6377 40.5575 42.1265 39.7672 43.882C41.9282 45.3496 44.0912 46.8522 46.1376 48.6164C45.5115 50.3466 44.7076 52.0087 43.8385 53.6261C41.7873 51.8628 39.7001 50.1754 37.5293 48.5464C36.2976 50.9827 34.9356 53.1787 33.0759 55.4632C35.1622 57.3879 37.1511 59.2708 39.144 61.3336C38.168 62.7477 37.0753 64.1521 35.7999 65.4709C33.9023 63.4353 31.9502 61.3463 29.968 59.3953C27.9022 61.7771 25.5701 64.2766 23.1378 66.3248C24.2587 67.4948 26.6822 70.324 28.4447 72.8653C27.2324 73.904 26.1018 74.8814 24.8915 75.7703L19.7645 69.1501C16.5992 71.6204 13.2366 73.656 9.87397 75.4931L12.5639 79.9835H20.9029C33.6466 71.2781 45.1576 58.3508 48.705 43.9199C50.8466 35.0959 48.8129 26.0501 42.7341 19.4794C39.4852 15.9782 35.8845 14.8073 33.3423 14.0214C33.9927 14.4542 34.7402 15.1068 35.4771 15.8547ZM0.00388641 15.1194V16.661L0.866165 16.0628C1.58555 16.2282 2.40409 16.5919 2.95334 16.9479C1.95788 17.5324 0.934207 18.1081 0.0145666 18.7383V19.7051C1.24335 18.9552 2.68892 18.078 3.83313 17.4974C4.29392 17.793 4.70902 18.2316 5.03079 18.6693C3.37913 19.3287 1.07517 20.452 0.00192837 21.02V22.0168C1.8344 21.1221 3.8623 20.2264 5.79102 19.6273C6.03891 20.0669 6.29067 20.6183 6.37914 21.127C4.32988 21.5238 1.95497 22.3893 0.0136173 23.1421V24.0524C2.06774 23.3366 4.82762 22.6121 6.63677 22.3213C6.77092 22.9038 6.78841 23.6566 6.79036 24.1876C4.06643 24.4492 2.23298 24.7673 0.018453 25.2137V26.2533C1.99189 25.9898 5.2641 25.7495 6.68148 25.8021C6.54538 26.5149 6.38984 27.2541 6.11667 27.9018C4.48737 27.752 1.849 27.6314 0.0126382 27.681C4.74415e-07 27.681 0 29.0689 0 29.0747C1.79651 29.1739 3.76701 29.6145 5.34479 29.9131C5.13092 30.4645 4.72943 31.2309 4.38529 31.7853C3.15554 31.369 1.34252 30.7981 0 30.5841V33.32C0.864229 33.709 2.1173 34.3304 2.54213 34.6067C2.25632 35.0278 1.68859 35.7144 1.30655 36.0597C0.732985 35.6774 0 35.2515 0 35.2515V38.7488C1.44265 37.3298 2.86099 35.8428 3.98769 34.275C6.7787 30.2496 8.97766 25.0289 6.97409 19.9949C5.7628 17.2338 2.81919 15.5007 0.00388641 15.1194ZM46.7267 22.825C47.309 23.8141 47.8641 24.8285 48.3249 25.8643L50.5481 26.8894C52.1259 29.4628 53.3839 32.1694 54.0721 35.1182C52.8453 34.3441 51.5971 33.5398 50.346 32.8599C50.5433 34.1972 50.588 35.4032 50.622 36.8095C52.0278 37.7947 53.4966 38.8334 54.8576 40.0433C54.9879 42.5155 54.809 44.9528 54.4348 47.2402C52.9416 45.7872 51.3871 44.5064 49.8579 43.4375C49.4856 45.5519 48.7196 47.9444 47.832 50.0655C49.3952 51.3123 51.1062 52.9365 52.6042 54.5772C51.951 56.4737 51.1732 58.2321 50.238 59.9419C48.7244 58.3119 47.0728 56.6186 45.4231 55.1686C44.4101 57.1409 42.3531 60.329 40.5497 62.7818C42.1985 64.4721 43.7238 66.2412 45.2335 68.0151C44.1641 69.5148 42.9392 70.9445 41.6794 72.3333C40.1502 70.57 38.7173 68.7591 37.12 67.0396C34.7014 69.8581 32.6774 72.0474 29.7872 74.4758C31.4943 76.5484 34.0802 79.9883 34.0802 79.9883H35.5374C38.2399 77.5871 40.8453 74.8833 43.2134 72.1495C49.0452 65.0099 53.658 57.384 55.2679 48.524C57.0129 39.2322 54.5786 30.1864 48.4318 23.465L46.7267 22.825ZM52.5595 27.4778L52.5323 27.5459C55.1969 30.8244 57.3191 34.3421 58.4128 38.2567L58.3923 38.2985L56.3363 36.7414C56.5997 38.3316 56.8068 39.8089 56.8641 41.4661C57.8333 42.1985 58.893 43.1564 59.7203 44.1601C59.8612 46.859 59.8612 49.7368 59.3985 52.389C58.4759 51.1606 57.6535 50.2678 56.2108 48.8294C55.893 50.792 55.1561 53.8857 54.2695 55.9485C55.5362 57.3169 56.8223 59.0481 57.6379 60.3115C57.1626 61.9386 56.2458 64.1229 55.2679 65.9474C54.1071 64.4487 53.2847 63.236 51.7701 61.4523C50.2672 64.228 48.5028 67.0494 46.5507 69.6403C47.8738 71.2012 49.0929 72.8293 50.2449 74.4758C49.1561 76.0086 47.9778 77.5219 46.7014 78.9525C45.4969 77.2943 44.2127 75.6478 42.9596 74.01C41.2108 76.0494 39.4502 78.121 37.3213 79.9874H47.1379C53.4597 72.6504 58.0453 64.5295 59.9176 55.3465C61.8483 46.0965 60.321 36.3048 54.3628 29.3305C53.8058 28.7129 53.2273 27.9339 52.5595 27.4778ZM60.9374 40.3399C61.3223 42.1061 61.4847 43.5678 61.7073 45.8932C62.4345 46.6839 63.3074 48.029 63.3074 48.029C63.3988 50.7327 63.2462 53.4578 62.6814 56.2539L61.1911 54.4168C60.7439 56.9872 60.1081 59.3778 59.1739 61.9969L60.8217 64.8611C60.3337 66.5806 59.3965 68.9536 58.4808 70.8443C57.8625 69.8435 57.288 68.7397 56.6522 67.8653C55.1687 70.7519 53.3907 73.5607 51.4658 76.2683L53.7708 79.9864H54.3045C59.8632 71.7371 63.5874 62.6349 63.9695 52.2869C64.16 47.9551 62.801 44.1796 61.1678 40.5665L60.9374 40.3399ZM65.3489 55.1793C65.1603 56.57 65.0651 57.9763 64.8133 59.2942L64.3739 58.6951C63.9014 61.531 63.2141 64.1657 62.2323 66.7916L62.9176 68.6901C62.3606 70.5944 61.6499 72.6348 60.7361 74.7744C60.5252 74.1228 60.1159 73.3486 59.7485 72.7486C58.5177 75.2014 57.0576 77.8127 55.5935 79.9864H59.274C61.2844 76.1156 62.8447 71.9968 64.0054 67.7506C64.9727 63.7757 65.8544 59.5315 65.3654 55.1783H65.3489V55.1793ZM65.5754 65.3153C64.8036 69.3728 63.4066 74.3737 62.2391 77.944C62.0981 77.6658 61.962 77.3945 61.8483 77.0988C61.298 78.2085 60.463 79.9864 60.463 79.9864H62.3499C63.9763 76.1516 65.1214 70.6119 65.5754 65.3153ZM7.01298 76.8547C4.70999 77.9051 2.41577 78.7794 0.000979019 79.5487V79.9796H8.75798L7.01298 76.8547ZM26.1864 77.4422C25.2745 78.0947 24.1187 79.1227 22.7285 80H27.8604C27.8614 80 26.7512 78.3301 26.1864 77.4422Z" fill="#005DAA"/>
</svg>
