<svg width="458" height="80" viewBox="0 0 458 80" fill="none" xmlns="http://www.w3.org/2000/svg">
<g clip-path="url(#clip0_709_2538)">
<path d="M457.324 0V79.9864H440.746C444.257 70.7947 445.039 59.4264 442.558 49.4606C439.57 36.8056 431.284 24.7711 419.537 17.3417C408.436 10.2732 394.337 7.49942 380.478 10.351L377.291 11.1358V0H457.324ZM399.322 12.5402C395.065 10.1886 389.469 9.84524 384.455 10.705L386.223 10.9073L386.474 10.7828C388.797 10.6116 391.248 10.6933 393.416 11.1708C392.706 11.3663 391.483 11.7641 390.627 12.1181C391.114 12.301 391.733 12.6112 392.155 12.8845C393.075 12.549 395.008 12.0364 395.95 11.8487C396.792 12.0948 398.954 13.0955 400.295 14.0769C398.702 14.2461 396.537 14.5592 394.791 14.9638C395.204 15.3237 395.553 15.7506 395.865 16.2165C397.557 15.9082 400.033 15.6242 402.176 15.5425C403.257 16.4781 404.145 17.6073 404.746 18.7763C402.392 18.6197 399.263 18.6586 397.346 18.8667C397.544 19.21 397.815 20.0863 397.931 20.6115C400.313 20.5104 404.194 20.6864 405.823 20.9227C406.357 22.2046 406.664 23.5905 406.788 25.0376C404.07 24.5017 400.867 24.0505 398.365 23.9299C398.393 24.7342 398.36 25.5035 398.286 26.2572C401.261 26.5665 404.146 27.1043 406.937 27.824C406.899 29.242 406.692 31.0082 406.319 32.3737C404.106 31.583 400.563 30.5345 397.569 29.9267C397.269 31.155 396.87 32.3649 396.343 33.5242C399.275 34.5045 402.169 35.7805 404.94 37.1548C404.484 38.4687 403.823 39.9421 403.21 41.0334C400.434 39.4734 397.576 37.9474 394.748 36.7405C393.892 38.3043 392.803 39.9733 391.781 41.3436C394.539 43.0203 397.143 44.837 399.731 46.7861C398.955 47.923 397.839 49.2865 397.169 50.0986C394.687 48.0348 389.595 43.9831 389.595 43.9831C388.097 45.7863 386.816 47.1342 384.929 48.596C387.019 50.7337 389.752 53.7904 391.46 55.9067C390.581 56.8287 389.718 57.5611 388.679 58.2778C386.605 55.7317 384.111 52.5125 382.659 50.4925C380.62 52.0914 379.375 52.9579 377.292 54.0336V57.0271L380.601 63.6444C379.85 64.1259 379.238 64.4186 378.274 64.8339L377.291 62.9043V66.3822C390.05 60.716 403.038 48.2206 406.813 34.6524C408.196 29.9627 408.436 23.9279 406.176 19.5563C404.85 16.6804 402.169 13.9981 399.322 12.5402ZM397.419 10.5679C397.974 10.7497 398.505 10.9968 399.037 11.2282L399.337 11.1767C402.062 11.6279 404.666 12.5363 407.003 13.8104C405.735 13.8211 404.424 13.8016 403.157 13.9067C403.685 14.3784 404.245 14.9317 404.704 15.4404C406.417 15.4073 408.077 15.4443 409.711 15.5522C411.334 16.7426 412.982 18.3367 413.904 19.9813C412.008 19.5456 409.402 19.1731 407.077 18.9718C407.378 19.6633 407.686 20.3761 407.941 21.1153C410.525 21.4946 413.083 21.9663 415.576 22.5965C416.398 24.2975 417.022 26.0899 417.291 27.9855C414.543 27.0061 411.727 26.0754 408.838 25.4879C408.911 26.4206 408.918 27.3786 408.924 28.3229C411.903 29.1837 414.809 30.1835 417.628 31.4595C417.641 33.3735 417.437 35.197 417.008 36.9291C414.175 35.516 411.284 34.1175 408.276 33.0972C407.895 34.7846 407.395 36.4224 406.811 38.0165C409.697 39.4977 412.558 41.0051 415.289 42.7879C414.775 44.2535 414.023 45.8456 413.151 47.2704C410.47 45.4361 407.785 43.6534 404.987 42.1012C404.035 44.0804 402.828 46.1091 401.4 47.957C403.893 49.9196 406.446 51.9649 408.848 54.1367C408.058 55.3271 406.998 56.7023 405.807 57.9608C404.053 56.1129 401.124 53.4812 398.686 51.4261C396.964 53.5065 394.926 55.8036 392.874 57.5251C394.44 59.1707 399.089 64.7716 399.089 64.7716C398.16 65.6985 397 66.6535 395.811 67.5075C395.811 67.5075 391.064 61.4192 389.895 59.9516C387.089 62.1778 384.844 63.7359 381.558 65.4816C382.859 67.699 386.091 73.7104 386.091 73.7104C385.26 74.2191 384.394 74.6966 383.527 75.0147C382.001 72.4821 380.165 68.8136 379.187 66.7206C378.243 67.24 377.292 67.5755 377.292 67.5755V78.5217C387.188 75.3064 396.307 69.6247 404.024 61.3998C411.056 53.7778 416.62 45.549 418.272 35.7154C419.59 27.8775 416.993 20.4919 410.769 15.5017C406.994 12.2679 402.315 11.1426 397.419 10.5679ZM394.124 15.7886C389.793 11.4111 383.151 11.0444 377.29 12.4225C377.292 12.4206 377.29 12.9545 377.29 12.9545C378.514 12.6948 380.101 12.4439 381.556 12.4488C380.606 13.0226 379.693 13.718 378.868 14.3968C379.22 14.4727 379.592 14.5923 379.934 14.7363C381.256 13.7919 382.535 12.974 383.601 12.3924C384.985 12.4041 386.772 12.6608 387.937 13.1276C386.01 13.8201 383.676 14.8899 382.173 15.9024C382.449 16.0502 382.742 16.2943 382.958 16.518C384.808 15.5308 387.464 14.39 389.644 13.6937C390.678 14.107 391.791 14.8403 392.421 15.4579C389.634 16.1183 386.964 16.8477 384.279 17.9408C384.538 18.2462 384.821 18.7082 384.955 18.9951C386.896 18.3046 390.703 17.1959 393.688 16.6259C394.236 17.2105 394.89 18.1412 395.225 19.0116C391.926 19.3549 388.164 19.9288 385.623 20.6523C385.782 21.0793 385.882 21.4965 385.95 21.8953C389.077 21.2952 392.519 20.8469 395.885 20.7126C396.185 21.6794 396.353 22.7151 396.36 23.7762C393.005 23.5642 389.162 23.7111 386.106 24.0164C386.106 24.4142 386.05 25.2098 385.998 25.7019C389.096 25.6075 392.559 25.6416 396.258 26.0578C396.126 27.0615 395.885 28.3589 395.563 29.4774C392.105 28.6886 388.956 28.3045 385.472 28.0749C385.348 28.748 385.058 29.5717 384.734 30.2749C387.989 30.8662 391.24 31.7687 394.38 32.8969C393.947 33.9113 393.444 34.9023 392.894 35.871C390.544 34.7652 386.374 33.2062 383.638 32.4408C383.187 33.353 382.43 34.596 381.676 35.518C383.642 36.4759 387.411 38.6029 389.996 40.2738C389.378 41.1014 388.683 41.9592 387.954 42.7188C385.452 40.7688 382.969 38.9365 380.25 37.2073C379.382 38.2042 378.304 39.2818 377.289 40.1337V40.4488L383.535 47.0973C382.841 47.7285 382.135 48.311 381.395 48.8479L377.289 43.599V52.8616C383.63 49.1406 390.048 43.0329 393.657 36.5615C396.601 31.3807 398.83 24.3675 395.978 18.4106C395.475 17.4896 394.94 16.5948 394.124 15.7886ZM412.782 15.8547L414.626 16.0803C416.466 17.0354 418.16 18.3824 419.682 19.9949C420.243 20.6076 420.848 21.2271 421.238 21.8963C419.717 21.4654 418.244 20.9422 416.672 20.6018C417.204 21.4372 417.582 22.2522 417.973 23.2063C419.728 23.7111 421.469 24.317 423.173 24.9229C424.265 26.9964 425.062 29.2216 425.444 31.5781C423.478 30.5939 421.507 29.6359 419.483 28.8413C419.639 29.9967 419.683 31.1823 419.639 32.3289C421.863 33.3423 424.353 34.7078 425.894 35.6969C425.951 37.324 425.789 40.2164 425.311 42.0594C423.537 40.7669 420.982 39.1087 418.909 38.0398C418.627 39.6377 417.864 42.1265 417.074 43.882C419.236 45.3496 421.4 46.8522 423.447 48.6164C422.821 50.3466 422.016 52.0087 421.147 53.6261C419.095 51.8628 417.007 50.1754 414.835 48.5464C413.603 50.9827 412.24 53.1787 410.379 55.4632C412.467 57.3879 414.456 59.2708 416.45 61.3336C415.474 62.7477 414.381 64.1521 413.105 65.4709C411.206 63.4353 409.253 61.3463 407.27 59.3953C405.204 61.7771 402.87 64.2766 400.437 66.3248C401.558 67.4948 403.983 70.324 405.746 72.8653C404.533 73.904 403.402 74.8814 402.191 75.7703L397.062 69.1501C393.896 71.6204 390.531 73.656 387.167 75.4932L389.858 79.9835H398.201C410.95 71.2781 422.466 58.3508 426.015 43.9199C428.158 35.0959 426.123 26.0501 420.042 19.4794C416.792 15.9782 413.189 14.8073 410.646 14.0214C411.297 14.4542 412.045 15.1068 412.782 15.8547ZM377.293 15.1194V16.661L378.156 16.0628C378.875 16.2282 379.694 16.5919 380.244 16.9479C379.248 17.5324 378.224 18.1081 377.304 18.7383V19.7051C378.533 18.9552 379.979 18.078 381.124 17.4974C381.585 17.793 382 18.2316 382.322 18.6693C380.67 19.3287 378.365 20.452 377.291 21.02V22.0169C379.124 21.1221 381.153 20.2264 383.083 19.6273C383.331 20.0669 383.582 20.6183 383.671 21.127C381.621 21.5238 379.245 22.3893 377.303 23.1421V24.0524C379.358 23.3366 382.119 22.6121 383.929 22.3213C384.063 22.9038 384.08 23.6566 384.082 24.1876C381.357 24.4492 379.523 24.7673 377.308 25.2137V26.2533C379.282 25.9898 382.555 25.7495 383.973 25.8021C383.837 26.515 383.682 27.2541 383.408 27.9018C381.778 27.752 379.139 27.6315 377.302 27.6811C377.289 27.6811 377.289 29.0689 377.289 29.0747C379.086 29.1739 381.058 29.6145 382.636 29.9131C382.422 30.4645 382.021 31.2309 381.676 31.7853C380.446 31.369 378.632 30.7981 377.289 30.5841V33.32C378.154 33.709 379.407 34.3305 379.832 34.6067C379.546 35.0278 378.978 35.7144 378.596 36.0597C378.022 35.6775 377.289 35.2515 377.289 35.2515V38.7488C378.732 37.3298 380.151 35.8428 381.279 34.275C384.071 30.2496 386.271 25.0289 384.266 19.9949C383.054 17.2338 380.109 15.5007 377.293 15.1194ZM424.036 22.8251C424.619 23.8141 425.174 24.8285 425.635 25.8643L427.859 26.8894C429.438 29.4628 430.696 32.1694 431.385 35.1182C430.158 34.3441 428.909 33.5398 427.657 32.8599C427.855 34.1972 427.899 35.4032 427.933 36.8095C429.34 37.7947 430.809 38.8334 432.171 40.0433C432.301 42.5155 432.122 44.9528 431.748 47.2402C430.254 45.7872 428.699 44.5064 427.169 43.4375C426.796 45.5519 426.03 47.9444 425.142 50.0655C426.706 51.3124 428.418 52.9365 429.916 54.5772C429.263 56.4737 428.485 58.2321 427.549 59.9419C426.035 58.3119 424.382 56.6187 422.732 55.1686C421.719 57.1409 419.661 60.329 417.857 62.7818C419.506 64.4721 421.032 66.2412 422.542 68.0151C421.473 69.5148 420.247 70.9445 418.987 72.3333C417.457 70.57 416.023 68.7591 414.425 67.0396C412.006 69.8581 409.981 72.0474 407.089 74.4759C408.797 76.5484 411.384 79.9883 411.384 79.9883H412.842C415.546 77.5871 418.152 74.8834 420.521 72.1495C426.356 65.0099 430.971 57.3841 432.581 48.524C434.327 39.2322 431.892 30.1864 425.742 23.465L424.036 22.8251ZM429.872 27.4778L429.844 27.5459C432.51 30.8244 434.633 34.3421 435.727 38.2567L435.707 38.2985L433.65 36.7414C433.914 38.3316 434.121 39.8089 434.178 41.4661C435.148 42.1985 436.208 43.1565 437.035 44.1601C437.177 46.859 437.176 49.7368 436.714 52.389C435.791 51.1606 434.968 50.2678 433.525 48.8294C433.207 50.792 432.469 53.8857 431.582 55.9486C432.85 57.3169 434.136 59.0481 434.952 60.3115C434.477 61.9386 433.56 64.1229 432.581 65.9475C431.42 64.4487 430.597 63.236 429.082 61.4523C427.578 64.228 425.813 67.0494 423.86 69.6403C425.184 71.2012 426.403 72.8293 427.556 74.4759C426.467 76.0086 425.288 77.5219 424.011 78.9526C422.806 77.2943 421.521 75.6478 420.268 74.01C418.518 76.0495 416.757 78.121 414.627 79.9874H424.448C430.772 72.6504 435.36 64.5295 437.233 55.3465C439.164 46.0965 437.637 36.3048 431.676 29.3305C431.118 28.7129 430.54 27.9339 429.872 27.4778ZM438.253 40.3399C438.638 42.1061 438.801 43.5678 439.023 45.8932C439.751 46.6839 440.624 48.029 440.624 48.029C440.716 50.7327 440.563 53.4578 439.998 56.2539L438.507 54.4168C438.06 56.9873 437.424 59.3778 436.489 61.9969L438.137 64.8611C437.649 66.5806 436.712 68.9537 435.795 70.8443C435.177 69.8435 434.602 68.7397 433.966 67.8653C432.482 70.7519 430.703 73.5607 428.777 76.2683L431.083 79.9864H431.617C437.178 71.7371 440.904 62.6349 441.287 52.2869C441.477 47.9551 440.118 44.1796 438.484 40.5665L438.253 40.3399ZM442.667 55.1793C442.478 56.57 442.383 57.9763 442.131 59.2942L441.691 58.6951C441.218 61.5311 440.531 64.1657 439.549 66.7916L440.234 68.6901C439.677 70.5944 438.966 72.6348 438.052 74.7744C437.841 74.1228 437.431 73.3487 437.064 72.7486C435.832 75.2014 434.372 77.8127 432.907 79.9864H436.589C438.6 76.1156 440.161 71.9968 441.323 67.7506C442.29 63.7757 443.172 59.5315 442.683 55.1783H442.667V55.1793ZM442.893 65.3153C442.121 69.3728 440.723 74.3737 439.555 77.944C439.414 77.6659 439.278 77.3945 439.164 77.0989C438.614 78.2085 437.779 79.9864 437.779 79.9864H439.666C441.293 76.1516 442.439 70.6119 442.893 65.3153ZM384.305 76.8547C382.001 77.9051 379.706 78.7794 377.29 79.5487V79.9796H386.051L384.305 76.8547ZM403.487 77.4422C402.575 78.0948 401.418 79.1228 400.028 80H405.162C405.163 80 404.052 78.3301 403.487 77.4422Z" fill="#005DAA"/>
<path d="M312.125 30.944H321.077C330.887 30.9566 334.872 35.0667 334.872 42.5233C334.872 50.1774 330.777 54.0715 321.077 54.0871H312.125V30.944ZM300.207 21.5189V63.5083H321.344C338.749 63.4947 347.291 55.6266 347.291 42.4669C347.291 30.0152 339.598 21.5383 321.344 21.5179H300.207V21.5189Z" fill="#005DAA"/>
<path d="M277.122 21.5189V30.7193H249.796V38.1633H272.94V46.6966H249.796V54.3681H277.298V63.5083H237.91V21.5189H277.122Z" fill="#005DAA"/>
<path d="M217.124 21.5199V31.0286H201.71V63.5054H189.764V31.0286H174.375V21.5199H217.124Z" fill="#005DAA"/>
<path d="M141.086 21.5199H153.241V63.5083H141.086V31.1473V21.5199Z" fill="#005DAA"/>
<path d="M79.8614 37.2258L105.678 63.5083H114.604V21.5189H103.475V46.6966L79.0659 21.5189H68.7266V63.5083H79.8614V37.2258Z" fill="#005DAA"/>
<path d="M45.8485 44.9869C45.8504 57.8305 37.854 64.2786 23.0089 64.2786C8.12478 64.2786 0 57.8616 0 45.0618V21.5199H11.9256V45.0919C11.9362 51.4962 15.5581 54.694 23.0487 54.6697C30.4548 54.6444 33.957 51.5225 33.9628 45.1639V21.5199H45.8485V44.9869Z" fill="#005DAA"/>
</g>
<defs>
<clipPath id="clip0_709_2538">
<rect width="457.323" height="80" fill="white"/>
</clipPath>
</defs>
</svg>
