<?xml version="1.0" encoding="utf-8"?>
<!-- Generator: Adobe Illustrator 25.4.1, SVG Export Plug-In . SVG Version: 6.00 Build 0)  -->
<svg version="1.1" id="Layer_4" xmlns="http://www.w3.org/2000/svg" xmlns:xlink="http://www.w3.org/1999/xlink" x="0px" y="0px"
	 viewBox="0 0 281.23 80.27" style="enable-background:new 0 0 281.23 80.27;" xml:space="preserve">
<style type="text/css">
	.st0{fill:#582900;}
	.st1{fill:#A59C87;}
	.st2{fill:#FDB515;}
</style>
<g id="myanmar-national-airlines-2">
	<path class="st0" d="M130.98,38.11l-1.71,13.48h-4.04l1.7-13.36c0.63-4.94-0.98-6.88-4.2-6.88c-3.88,0-5.77,1.99-6.37,6.74
		l-1.71,13.48h-4.04l1.7-13.36c0.54-4.28-1.02-6.88-4.42-6.88s-5.56,2.08-6.17,6.88l-1.7,13.37h-4.04l1.77-13.89
		c0.67-5.39,4.72-10.15,10.9-10.15c3.48,0,5.67,1.54,6.78,4.28c1.83-2.6,4.78-4.18,7.95-4.28
		C129.16,27.57,131.85,31.11,130.98,38.11z M233.71,27.57c-3.18,0.1-6.13,1.68-7.96,4.28c-1.11-2.74-3.3-4.28-6.78-4.28
		c-6.18,0-10.22,4.72-10.91,10.15l-1.77,13.89h4.04l1.7-13.37c0.61-4.8,2.7-6.88,6.17-6.88c3.47,0,4.96,2.6,4.42,6.88l-1.7,13.37
		h4.04l1.71-13.48c0.61-4.76,2.49-6.74,6.37-6.74c3.22,0,4.82,1.94,4.2,6.88l-1.62,13.34h4.04l1.71-13.48
		C242.26,31.11,239.58,27.57,233.71,27.57z M194.63,27.57c-6.06,0-10.51,3.88-11.35,10.5l-1.72,13.54h3.97l1.71-13.48
		c0.61-4.81,2.89-6.79,6.42-6.79c4.19,0,5.76,1.9,5.14,6.79l-1.71,13.48h3.97l1.73-13.58C203.67,30.97,200.53,27.57,194.63,27.57
		L194.63,27.57z M178.8,36.44l-0.94,7.41c-0.61,4.76-3.6,8.21-10.22,8.21c-4.8,0-8.65-2.78-8.09-6.97
		c0.67-5.07,4.93-7.85,11.98-7.85h3.17l0.14-1.1c0.44-3.44-1.11-4.85-4.95-4.85c-2.52-0.08-5,0.74-6.97,2.31l0.43-3.4
		c1.44-1.42,3.98-2.61,7.41-2.61C176.75,27.57,179.53,30.71,178.8,36.44z M174.31,40.59h-3.22c-4.72,0-7.07,1.46-7.41,4.04
		c-0.26,2.07,1.56,3.71,4.6,3.71c3.57,0,5.21-1.42,5.64-4.81L174.31,40.59z M264.06,36.44l-0.94,7.41
		c-0.61,4.76-3.6,8.21-10.22,8.21c-4.8,0-8.65-2.78-8.09-6.97c0.67-5.07,4.93-7.85,11.98-7.85h3.17l0.14-1.1
		c0.44-3.44-1.11-4.85-4.95-4.85c-2.52-0.08-4.99,0.74-6.97,2.31l0.43-3.4c1.44-1.42,3.98-2.61,7.41-2.61
		C262,27.57,264.78,30.71,264.06,36.44L264.06,36.44z M259.56,40.59h-3.22c-4.72,0-7.07,1.46-7.41,4.04
		c-0.26,2.07,1.56,3.71,4.6,3.71c3.57,0,5.21-1.42,5.64-4.81L259.56,40.59z M281.23,28.89c-0.95-0.63-2.08-0.93-3.21-0.84
		c-4.59,0-8.21,3.48-9.04,10.01l-1.72,13.54h4.04l1.68-13.23c0.64-5.03,2.02-6.57,5.15-6.57c0.94-0.02,1.86,0.19,2.7,0.62
		L281.23,28.89z M154.35,28.03h-1.15l-1.72,13.54c-0.57,4.45-3.98,6.74-6.74,6.74c-3.67,0-5.39-1.77-4.82-6.49l1.42-11.16
		c0.22-1.77-0.51-2.6-2.62-2.6h-1.06l-1.77,13.86c-0.9,7.06,2.2,10.15,7.8,10.15c2.16,0,4.75-0.97,6.88-4.14l-0.38,3.03
		c-0.8,4.08-3.92,6.06-7.57,6.06c-3.21,0-5.06-0.67-6.42-1.82l-0.43,3.37c1.2,1.35,3.47,2.13,5.9,2.13c6,0,11.46-3.22,12.63-10.11
		l2.53-19.95C157.07,28.87,156.34,28.03,154.35,28.03z"/>
	<path class="st1" d="M189.91,68.13c-2.41,0-3.98-1.85-3.64-4.56c0.38-3.01,2.27-4.87,4.84-4.87c2.42,0,3.85,1.82,3.51,4.53
		C194.23,66.28,192.37,68.13,189.91,68.13z M190.69,60.17c-1.46,0-2.59,1.19-2.82,3.08c-0.26,2.1,0.59,3.42,2.37,3.42
		c1.53,0,2.53-1.29,2.76-3.08C193.29,61.35,192.5,60.18,190.69,60.17L190.69,60.17z M161.95,58.69c-2.33,0-4.04,1.5-4.37,4.04
		l-0.67,5.22h1.53l0.67-5.19c0.24-1.85,1.11-2.62,2.48-2.62c1.62,0,2.22,0.73,1.98,2.62l-0.67,5.19h1.53l0.67-5.24
		C165.44,60,164.23,58.69,161.95,58.69L161.95,58.69z M170.71,58.69c-1.05-0.05-2.07,0.32-2.86,1.01l-0.17,1.31
		c0.76-0.61,1.72-0.92,2.7-0.89c1.48,0,2.08,0.55,1.91,1.87l-0.05,0.42h-1.23c-2.7,0-4.37,1.07-4.62,3.03
		c-0.2,1.62,1.27,2.7,3.13,2.7c2.55,0,3.71-1.35,3.94-3.17l0.36-2.86c0.26-2.22-0.81-3.42-3.12-3.42L170.71,58.69z M171.94,64.85
		c-0.17,1.31-0.8,1.85-2.18,1.85c-1.17,0-1.88-0.63-1.77-1.43c0.13-1,1.03-1.56,2.85-1.56h1.24L171.94,64.85z M200.59,58.69
		c-2.33,0-4.04,1.5-4.38,4.04l-0.67,5.22h1.53l0.67-5.19c0.24-1.85,1.11-2.62,2.47-2.62c1.62,0,2.22,0.73,1.98,2.62l-0.67,5.19h1.53
		l0.67-5.24C204.08,60,202.86,58.69,200.59,58.69z M257.86,58.69c-2.33,0-4.04,1.5-4.37,4.04l-0.67,5.22h1.53l0.67-5.19
		c0.24-1.85,1.11-2.62,2.48-2.62c1.62,0,2.22,0.73,1.98,2.62l-0.67,5.19h1.53l0.67-5.24C261.33,60,260.11,58.69,257.86,58.69z
		 M209.16,58.69c-1.05-0.05-2.07,0.32-2.86,1.01l-0.17,1.31c0.76-0.61,1.72-0.92,2.7-0.89c1.48,0,2.08,0.55,1.91,1.87l-0.05,0.42
		h-1.23c-2.7,0-4.37,1.07-4.62,3.03c-0.2,1.62,1.27,2.7,3.13,2.7c2.55,0,3.71-1.35,3.94-3.17l0.36-2.86
		c0.25-2.22-0.82-3.43-3.13-3.43H209.16z M210.38,64.85c-0.17,1.31-0.8,1.85-2.18,1.85c-1.17,0-1.88-0.63-1.77-1.43
		c0.13-1,1.03-1.56,2.85-1.56h1.24L210.38,64.85z M242.06,59.2c-0.37-0.24-0.8-0.36-1.24-0.32c-1.77,0-3.17,1.35-3.48,3.86
		l-0.67,5.22h1.55l0.67-5.1c0.25-1.94,0.78-2.53,2.02-2.53c0.36-0.01,0.71,0.07,1.03,0.24L242.06,59.2z M246.37,66.62h-0.51
		c-0.85,0-1.39-0.32-1.25-1.46l1.04-8.23c0.1-0.8-0.31-1.19-0.94-1.19h-0.48l-1.22,9.61c-0.24,1.84,0.63,2.7,2.41,2.7
		c0.26,0,0.51-0.03,0.76-0.09L246.37,66.62z M216.94,66.62h-0.51c-0.85,0-1.39-0.32-1.25-1.46l1.04-8.23
		c0.1-0.8-0.31-1.19-0.94-1.19h-0.48l-1.22,9.61c-0.24,1.84,0.63,2.7,2.41,2.7c0.26,0,0.51-0.03,0.76-0.09L216.94,66.62z
		 M227.25,58.71c-1.05-0.05-2.07,0.32-2.86,1.01l-0.22,1.3c0.76-0.61,1.72-0.92,2.7-0.89c1.48,0,2.08,0.55,1.91,1.87l-0.05,0.42
		h-1.23c-2.7,0-4.37,1.07-4.62,3.03c-0.2,1.62,1.27,2.7,3.13,2.7c2.55,0,3.71-1.35,3.94-3.17l0.36-2.86
		c0.29-2.22-0.78-3.43-3.1-3.43L227.25,58.71z M228.48,64.87c-0.17,1.31-0.8,1.85-2.18,1.85c-1.17,0-1.88-0.63-1.77-1.43
		c0.13-1,1.03-1.56,2.85-1.56h1.24L228.48,64.87z M248.98,56.56c0.09-0.58,0.56-1.02,1.15-1.06c0.5,0,0.91,0.4,0.92,0.9
		c0,0.06,0,0.11-0.01,0.17c-0.08,0.59-0.58,1.03-1.17,1.05c-0.5,0.02-0.92-0.38-0.94-0.88c0-0.06,0-0.13,0.01-0.19L248.98,56.56z
		 M251.33,66.64h-0.43c-0.85,0-1.35-0.36-1.22-1.5l0.67-5.05c0.15-0.51-0.15-1.04-0.65-1.19c-0.11-0.03-0.23-0.04-0.34-0.03h-0.48
		l-0.82,6.48c-0.21,1.67,0.46,2.55,1.96,2.7c0.13,0.01,0.27,0.01,0.4,0c0.26-0.01,0.51-0.09,0.71-0.25L251.33,66.64z M232.8,56.55
		c0.1-0.59,0.6-1.03,1.19-1.05c0.51,0,0.92,0.41,0.92,0.92c0,0.05,0,0.1-0.01,0.15c-0.08,0.59-0.58,1.03-1.17,1.05
		c-0.51,0.01-0.93-0.39-0.94-0.9C232.78,56.67,232.79,56.61,232.8,56.55z M235.15,66.62h-0.44c-0.85,0-1.35-0.36-1.22-1.5l0.67-5.05
		c0.14-0.51-0.16-1.04-0.67-1.17c-0.09-0.02-0.18-0.04-0.28-0.03h-0.48l-0.82,6.48c-0.22,1.67,0.46,2.55,1.96,2.7
		c0.14,0.01,0.27,0.01,0.41,0c0.26-0.01,0.51-0.09,0.71-0.25L235.15,66.62z M182.78,56.55c0.1-0.59,0.6-1.03,1.19-1.05
		c0.51,0,0.92,0.41,0.92,0.92c0,0.05,0,0.1-0.01,0.15c-0.09,0.57-0.56,1-1.14,1.03c-0.5,0.03-0.93-0.35-0.97-0.85
		C182.77,56.68,182.77,56.62,182.78,56.55z M185.13,66.62h-0.44c-0.85,0-1.35-0.36-1.22-1.5l0.67-5.05
		c0.14-0.51-0.16-1.04-0.67-1.17c-0.09-0.02-0.18-0.03-0.27-0.03h-0.48l-0.82,6.48c-0.21,1.67,0.46,2.55,1.96,2.7
		c0.14,0.01,0.27,0.01,0.41,0c0.26-0.01,0.51-0.09,0.71-0.25L185.13,66.62z M269.2,66.06c-0.74,0.46-1.6,0.69-2.47,0.67
		c-1.3,0.13-2.46-0.83-2.58-2.13c-0.01-0.15-0.01-0.31,0-0.46h2.24c3.11,0,3.95-0.67,4.15-2.26c0.16-1.58-0.99-2.99-2.57-3.16
		c-0.15-0.02-0.31-0.02-0.46-0.01c-2.41,0-4.5,1.95-4.87,4.9c-0.33,2.62,1.19,4.54,3.69,4.54c0.95,0.07,1.9-0.19,2.7-0.72
		L269.2,66.06z M264.35,62.52c0.25-1.37,1.42-2.38,2.81-2.43c1.43,0,2.02,0.87,1.87,1.85c-0.09,0.67-0.49,0.88-2.7,0.92h-2.06
		L264.35,62.52z M275.46,62.72c-1.83-0.4-2.14-0.67-2.07-1.27c0.09-0.76,0.77-1.29,2.32-1.29c0.76-0.03,1.51,0.21,2.12,0.67
		l0.17-1.35c-0.57-0.6-1.39-0.91-2.22-0.85c-2.26,0-3.78,1.35-3.97,2.86c-0.18,1.35,0.55,1.94,2.21,2.3c2.02,0.44,2.3,0.76,2.2,1.52
		c-0.11,0.9-0.76,1.35-2.11,1.35c-0.97,0.05-1.91-0.33-2.57-1.02h-0.09l-0.08,0.67c-0.14,1.09,1,1.81,2.53,1.81
		c2.08,0,3.69-1.02,3.93-2.92C278.01,63.95,277.23,63.12,275.46,62.72L275.46,62.72z M179.64,67.54l0.14-1.09
		c-0.44,0.17-0.91,0.25-1.39,0.22c-0.99,0-1.43-0.55-1.27-1.84l0.57-4.51h2.88l0.19-1.46h-2.9l0.24-1.87h-0.19
		c-0.41,0.11-0.77,0.35-1.04,0.67c-0.31,0.41-0.51,0.9-0.57,1.41L175.56,65c-0.26,2.1,0.49,3.15,2.51,3.15
		C178.66,68.21,179.25,67.98,179.64,67.54L179.64,67.54z"/>
	<path class="st2" d="M35.35,33.2L35.35,33.2l0.07,0.13c0.08,0.14,0.12,0.3,0.09,0.46c-0.01,0.12-0.08,0.24-0.19,0.3
		c-0.15,0.07-0.31,0.05-0.44-0.04L22.63,21.5c-0.4-0.4-0.62-0.94-0.61-1.51c0.06-0.63,0.56-1.27,1.48-1.91
		c0.55-0.47,1.26-0.71,1.99-0.67c0.54,0.12,0.96,0.67,1.46,1.55L35.35,33.2z M14.72,34.14c-0.37-0.02-0.73,0.09-1.03,0.29
		c-0.52,0.37-0.83,1.12-0.91,2.23c-0.14,0.71,0,1.46,0.39,2.07c0.38,0.41,1.07,0.49,2.07,0.49l16.76,0.15
		c0.27,0.01,0.51-0.18,0.55-0.45c-0.01-0.18-0.14-0.34-0.31-0.4L15.28,34.2C15.09,34.17,14.9,34.15,14.72,34.14z M16.13,52.34
		c0.1,0.03,0.21,0.05,0.32,0.05l0,0c0.62-0.09,1.2-0.32,1.71-0.67l14.6-8.25c0.24-0.13,0.35-0.42,0.25-0.67
		c-0.09-0.13-0.24-0.2-0.39-0.19h-0.08l-16.85,4.72c-0.54,0.15-1,0.51-1.27,1c-0.26,0.58-0.15,1.38,0.33,2.39
		c0.49,1,0.9,1.47,1.37,1.62V52.34z M13.69,45.6c0.48,0.27,1.06,0.34,1.59,0.2l16.99-4.35c0.15-0.07,0.24-0.21,0.26-0.37
		c0-0.25-0.28-0.46-0.61-0.46h-0.15l-16.54,0.15c-1,0-1.69,0.08-2.07,0.49c-0.4,0.61-0.54,1.35-0.39,2.07
		c0.09,1.11,0.4,1.87,0.92,2.23V45.6z M32.66,15.7c-0.15-0.54-0.51-1-1-1.27c-0.21-0.09-0.44-0.14-0.67-0.13
		c-0.59,0.03-1.17,0.19-1.69,0.46c-0.91,0.44-1.45,0.9-1.6,1.35c-0.15,0.45,0.11,1.17,0.61,2.02l8.23,14.64
		c0.13,0.24,0.42,0.35,0.67,0.25c0.15-0.11,0.22-0.29,0.18-0.46L32.66,15.7z M18.17,28.29c-0.73-0.42-1.48-0.78-2.02-0.61
		s-0.94,0.67-1.35,1.59s-0.59,1.81-0.33,2.39c0.27,0.5,0.73,0.86,1.28,1.01l16.89,4.72l0,0c0.15,0.01,0.3-0.06,0.39-0.19
		c0.05-0.11,0.05-0.24,0-0.35c-0.06-0.15-0.17-0.27-0.31-0.35l-0.13-0.07l0,0L18.17,28.29z M37.4,47.41c0.01-0.16-0.06-0.31-0.2-0.4
		c-0.27-0.08-0.56,0.05-0.67,0.3l-0.08,0.13l0,0l-8.16,14.39c-0.5,0.86-0.77,1.51-0.61,2.02s0.67,0.94,1.6,1.35
		c0.52,0.28,1.1,0.43,1.69,0.46l0,0c0.23,0,0.46-0.04,0.67-0.13c0.5-0.27,0.86-0.73,1.01-1.28L37.4,47.41z M67.22,36.68
		c-0.09-1.11-0.39-1.86-0.91-2.23c-0.49-0.29-1.07-0.38-1.62-0.24l-16.99,4.34c-0.14,0.07-0.24,0.21-0.25,0.37
		c0,0.25,0.27,0.46,0.61,0.46h0.16l16.54-0.15c1,0,1.69-0.08,2.07-0.49C67.23,38.13,67.37,37.39,67.22,36.68L67.22,36.68z
		 M61.83,51.72c0.51,0.36,1.1,0.59,1.71,0.67l0,0c0.11,0,0.22-0.02,0.32-0.05c0.48-0.15,0.94-0.67,1.35-1.59
		c0.41-0.92,0.59-1.81,0.33-2.39c-0.27-0.49-0.73-0.86-1.28-1l-16.89-4.72c-0.16-0.02-0.32,0.06-0.41,0.19
		c-0.08,0.27,0.05,0.56,0.3,0.67l0.13,0.08l0,0L61.83,51.72z M40,33.79c-3.42,0-6.2,2.78-6.2,6.2c0,3.42,2.78,6.2,6.2,6.2
		c3.42,0,6.2-2.77,6.2-6.19C46.2,36.58,43.42,33.8,40,33.79z M22.01,60.01c0.06,0.63,0.56,1.27,1.48,1.91
		c0.55,0.47,1.26,0.71,1.99,0.67c0.54-0.12,0.96-0.67,1.46-1.55l8.55-14.43c0.13-0.22,0.08-0.51-0.11-0.67
		c-0.05-0.03-0.11-0.05-0.18-0.05c-0.12,0-0.23,0.04-0.32,0.11L22.62,58.5C22.22,58.9,22,59.44,22.01,60.01z M42.59,32.59
		c-0.01,0.16,0.06,0.31,0.19,0.4c0.27,0.08,0.56-0.05,0.67-0.3l0.12-0.1l0,0l8.13-14.42c0.5-0.86,0.77-1.51,0.61-2.02
		c-0.16-0.51-0.67-0.94-1.59-1.35c-0.92-0.4-1.81-0.59-2.39-0.33c-0.5,0.27-0.86,0.73-1.01,1.28L42.59,32.59z M68.51,68.54v-0.07
		c0.47-1.23,0.87-2.48,1.19-3.76c-1.38,0.68-2.95,0.88-4.46,0.57c0.34,1.21,0.15,2.7-0.57,4.46c1.28-0.32,2.53-0.72,3.76-1.19
		L68.51,68.54z M30.77,74.55c-0.88,0.9-2.28,1.48-4.15,1.73c0.92,0.96,1.89,1.86,2.91,2.7l0.05,0.04h0.07
		c1.29-0.22,2.56-0.52,3.81-0.89C31.97,76.97,31.05,75.77,30.77,74.55z M9.76,62.7c2.7,1.35,4.64,1.58,5.59,0.67l4.04-3.94
		c-1.09-0.35-2.01-1.08-2.59-2.06c-0.86-1.19-1.15-2.26-0.93-3.21c0.02-0.1,0.05-0.2,0.08-0.3l-0.3-0.07
		c-0.92-0.28-1.68-1.07-2.31-2.41c-0.56-0.99-0.73-2.16-0.49-3.27l-5.43,1.52c-1.59,0.48-2.06,3.11-2.2,5.2
		c-0.09,1.7-0.05,3.4,0.12,5.09v0.07l0.42,0.3C7.04,61.19,8.37,61.99,9.76,62.7z M47.92,73.02l-1.39-5.46
		c-0.84,0.77-1.94,1.2-3.08,1.21c-1.48,0.11-2.53-0.14-3.23-0.8c-0.07-0.07-0.14-0.14-0.21-0.22c-0.06,0.08-0.13,0.15-0.21,0.22
		c-0.67,0.67-1.76,0.92-3.24,0.8c-1.14-0.01-2.24-0.43-3.08-1.2l-1.39,5.46c-0.38,1.6,1.65,3.37,3.41,4.52l0.34,0.22
		c1.19,0.75,2.43,1.43,3.71,2.02L40,80l0.16-0.07c1.52-0.68,2.98-1.48,4.37-2.39C46.27,76.39,48.3,74.63,47.92,73.02z M63.87,27.68
		c-0.1-0.03-0.21-0.05-0.32-0.05c-0.62,0.09-1.2,0.32-1.71,0.67l-14.6,8.23c-0.25,0.13-0.35,0.42-0.25,0.67
		c0.1,0.15,0.29,0.23,0.47,0.19l16.85-4.72c0.54-0.15,1-0.51,1.27-1c0.26-0.58,0.15-1.38-0.33-2.39
		C64.76,28.3,64.35,27.82,63.87,27.68z M53.4,76.28c-1.54-0.1-3-0.71-4.15-1.73c-0.32,1.22-1.23,2.42-2.73,3.57
		c1.26,0.36,2.55,0.64,3.85,0.85h0.07l0.05-0.04C51.51,78.1,52.49,77.22,53.4,76.28z M26.59,3.72c1.87,0.25,3.27,0.83,4.15,1.73
		c0.31-1.22,1.23-2.42,2.7-3.57c-1.26-0.36-2.55-0.64-3.85-0.85h-0.07l-0.05,0.05C28.46,1.9,27.5,2.78,26.59,3.72z M56.52,5.18
		c-0.58,0-1.14,0-1.66,0.05c-2.11,0.13-4.72,0.63-5.2,2.21l-1.52,5.43c1.11-0.24,2.28-0.07,3.27,0.49c1.35,0.64,2.12,1.39,2.4,2.31
		c0.03,0.1,0.06,0.2,0.07,0.3c0.1-0.04,0.2-0.06,0.3-0.09c0.19-0.04,0.39-0.07,0.59-0.07c0.95,0.06,1.86,0.41,2.61,0.99
		c0.98,0.58,1.71,1.5,2.06,2.58l3.94-4.04c1.13-1.2,0.26-3.71-0.67-5.59c-0.77-1.52-1.66-2.97-2.65-4.35L60,5.34h-0.18
		C59.34,5.29,58.05,5.18,56.52,5.18z M49.26,5.44c0.88-0.9,2.28-1.48,4.15-1.73c-0.92-0.95-1.89-1.85-2.91-2.7l-0.05-0.04h-0.07
		c-1.3,0.21-2.58,0.49-3.85,0.85C48.03,3.03,48.97,4.23,49.26,5.44L49.26,5.44z M11.46,11.46v0.07c-0.47,1.23-0.87,2.48-1.19,3.76
		c1.75-0.72,3.25-0.92,4.46-0.58c-0.34-1.21-0.14-2.7,0.58-4.46c-1.28,0.32-2.53,0.72-3.76,1.19L11.46,11.46z M47.33,64.3
		c0.14,0.56,0.51,1.03,1.01,1.31c0.21,0.09,0.44,0.14,0.67,0.13c0.59-0.03,1.17-0.19,1.7-0.46c0.91-0.44,1.44-0.9,1.59-1.35
		c0.15-0.45-0.11-1.17-0.61-2.02l-8.23-14.67c-0.11-0.17-0.29-0.28-0.49-0.29c-0.06,0-0.12,0.02-0.18,0.05
		c-0.15,0.1-0.23,0.29-0.19,0.47L47.33,64.3z M32.08,6.98l1.39,5.46c0.84-0.76,1.94-1.19,3.07-1.21c1.48-0.11,2.53,0.15,3.24,0.8
		c0.07,0.07,0.14,0.14,0.21,0.22l0.21-0.22c0.71-0.67,1.76-0.92,3.23-0.8c1.14,0.01,2.24,0.44,3.08,1.21l1.4-5.46
		c0.38-1.6-1.64-3.37-3.38-4.51c-1.29-0.85-2.64-1.6-4.04-2.25L40.02,0l-0.16,0.07c-1.51,0.68-2.97,1.48-4.37,2.39
		C33.71,3.61,31.7,5.37,32.08,6.98z M78.94,50.51l0.04-0.05v-0.07c-0.21-1.3-0.49-2.58-0.85-3.85c-1.15,1.5-2.35,2.41-3.57,2.7
		c0.9,0.88,1.48,2.28,1.73,4.15C77.23,52.47,78.12,51.51,78.94,50.51L78.94,50.51z M25.16,5.23c-0.53,0-1.1-0.05-1.68-0.05
		c-1.14,0-2.28,0.06-3.42,0.18h-0.07l-0.1,0.14c-0.97,1.35-1.84,2.78-2.59,4.27c-0.93,1.89-1.81,4.4-0.67,5.6l3.94,4.04
		c0.35-1.08,1.08-2,2.06-2.58c1.22-0.84,2.26-1.14,3.21-0.92c0.1,0.02,0.2,0.05,0.3,0.09c0.02-0.1,0.04-0.2,0.07-0.3
		c0.28-0.92,1.07-1.67,2.4-2.31c0.99-0.56,2.16-0.73,3.27-0.49l-1.52-5.43C29.87,5.87,27.26,5.37,25.16,5.23z M79.97,40v-0.06
		c-0.69-1.55-1.51-3.05-2.44-4.47c-1.68-2.51-3.23-3.69-4.5-3.37l-5.46,1.39c0.77,0.84,1.2,1.94,1.21,3.08
		c0.11,1.48-0.15,2.53-0.8,3.23c-0.07,0.07-0.14,0.14-0.22,0.21c0.08,0.07,0.15,0.14,0.22,0.22c0.67,0.67,0.92,1.77,0.8,3.23
		c-0.01,1.14-0.44,2.23-1.21,3.07l5.46,1.39c0.13,0.03,0.26,0.05,0.4,0.05c1.19,0,2.6-1.19,4.11-3.43c0.88-1.35,1.66-2.77,2.33-4.24
		L79.97,40z M5.36,20v0.07c-0.18,1.7-0.23,3.4-0.13,5.11c0.14,2.1,0.63,4.72,2.21,5.19l5.43,1.52c-0.24-1.11-0.07-2.28,0.49-3.27
		c0.64-1.35,1.39-2.12,2.31-2.41l0.3-0.07c-0.03-0.09-0.06-0.19-0.09-0.29c-0.22-0.94,0.09-1.99,0.92-3.2
		c0.58-0.98,1.5-1.72,2.59-2.06l-4.04-3.94c-0.95-0.89-2.89-0.67-5.6,0.67c-1.52,0.77-2.98,1.66-4.35,2.65L5.36,20z M74.64,20
		l-0.05-0.04l-0.21-0.18c-1.31-0.94-2.7-1.78-4.14-2.51c-2.7-1.35-4.64-1.58-5.6-0.67l-4.04,3.94c1.09,0.35,2.01,1.08,2.59,2.06
		c0.84,1.22,1.15,2.29,0.94,3.24c-0.02,0.1-0.05,0.2-0.09,0.29l0.3,0.07c0.92,0.28,1.68,1.07,2.31,2.41
		c0.56,0.99,0.73,2.16,0.49,3.27l5.42-1.54c1.58-0.48,2.07-3.08,2.21-5.18c0.09-1.7,0.05-3.4-0.13-5.09L74.64,20z M76.28,26.59
		c-0.09,1.53-0.69,2.99-1.7,4.15c1.22,0.32,2.42,1.23,3.57,2.7c0.36-1.26,0.64-2.55,0.85-3.85v-0.07l-0.04-0.05
		C78.12,28.46,77.23,27.5,76.28,26.59L76.28,26.59z M1.06,29.5l-0.04,0.05v0.07c0.21,1.3,0.49,2.59,0.85,3.85
		c1.15-1.5,2.35-2.41,3.57-2.73c-0.89-0.86-1.47-2.28-1.72-4.16C2.78,27.51,1.89,28.48,1.06,29.5z M68.51,11.46h-0.06
		c-1.23-0.47-2.48-0.86-3.76-1.19c0.72,1.75,0.92,3.24,0.57,4.45c0.41-0.11,0.83-0.16,1.25-0.16c1.11,0.04,2.2,0.29,3.21,0.74
		c-0.32-1.28-0.72-2.53-1.19-3.76L68.51,11.46z M74.61,59.98v-0.07c0.18-1.68,0.22-3.38,0.13-5.07c-0.14-2.12-0.63-4.72-2.21-5.21
		l-5.36-1.51c0.24,1.11,0.06,2.28-0.49,3.27c-0.64,1.35-1.39,2.12-2.31,2.4c-0.1,0.03-0.2,0.06-0.3,0.07c0.04,0.1,0.06,0.2,0.09,0.3
		c0.21,0.94-0.09,1.99-0.92,3.21c-0.58,0.98-1.5,1.72-2.59,2.06l4.04,3.94c0.95,0.89,2.9,0.67,5.61-0.67
		c1.49-0.77,2.93-1.66,4.28-2.66L74.61,59.98z M54.84,74.77c0.53,0.03,1.09,0.05,1.68,0.05l0,0c1.14,0,2.28-0.06,3.41-0.18h0.07
		l0.03-0.05l0.15-0.21c0.93-1.31,1.77-2.69,2.5-4.13c0.94-1.89,1.81-4.41,0.67-5.61l-3.94-4.04c-0.35,1.09-1.08,2.01-2.06,2.59
		c-1.22,0.84-2.26,1.14-3.21,0.92c-0.1-0.02-0.2-0.05-0.3-0.09c-0.02,0.1-0.04,0.2-0.07,0.3c-0.28,0.92-1.07,1.68-2.41,2.31
		c-0.99,0.56-2.16,0.73-3.27,0.49l1.54,5.43C50.13,74.14,52.74,74.64,54.84,74.77z M66.29,45.57c0.51-0.37,0.82-1.13,0.91-2.23
		c0.07-1-0.05-1.7-0.4-2.07c-0.34-0.37-1.07-0.49-2.07-0.49l-16.77-0.15c-0.27-0.01-0.5,0.18-0.55,0.45
		c0.02,0.18,0.14,0.34,0.31,0.4l16.97,4.32c0.54,0.14,1.12,0.05,1.6-0.24L66.29,45.57z M11.46,68.54h0.06
		c1.23,0.48,2.48,0.88,3.76,1.21c-0.72-1.75-0.92-3.24-0.58-4.46c-1.21,0.34-2.7,0.14-4.46-0.58c0.32,1.28,0.72,2.53,1.19,3.76
		L11.46,68.54z M3.72,53.4c0.25-1.87,0.83-3.27,1.73-4.15c-1.22-0.32-2.42-1.23-3.57-2.7c-0.36,1.26-0.65,2.53-0.86,3.82v0.07
		l0.04,0.05C1.89,51.52,2.78,52.49,3.72,53.4z M19.89,74.44l0.14,0.19h0.07c1.14,0.12,2.28,0.18,3.42,0.18c0.58,0,1.14,0,1.66-0.05
		c2.12-0.13,4.72-0.63,5.21-2.21l1.52-5.43c-1.11,0.24-2.28,0.07-3.27-0.49c-1.35-0.64-2.12-1.39-2.4-2.31
		c-0.03-0.1-0.06-0.2-0.07-0.3c-0.1,0.04-0.2,0.06-0.3,0.09c-0.94,0.22-1.98-0.09-3.21-0.92c-0.98-0.58-1.72-1.5-2.06-2.59
		l-3.94,4.04c-1.13,1.2-0.25,3.71,0.67,5.59c0.73,1.47,1.58,2.88,2.53,4.23L19.89,74.44z M41.07,32.55c0.18-0.01,0.34-0.14,0.4-0.31
		l4.33-16.95c0.14-0.54,0.06-1.12-0.24-1.6c-0.37-0.52-1.12-0.82-2.23-0.91c-0.18,0-0.36,0-0.52,0c-0.55-0.05-1.1,0.1-1.54,0.42
		c-0.41,0.38-0.49,1.07-0.49,2.07l-0.15,16.77C40.64,32.28,40.82,32.5,41.07,32.55z M60.01,22.03c-0.57-0.02-1.12,0.2-1.52,0.61
		L45.95,34.89c-0.09,0.13-0.1,0.3-0.03,0.44c0.19,0.22,0.52,0.25,0.75,0.09l0.13-0.08l0,0l14.25-8.39c0.86-0.5,1.43-0.92,1.55-1.46
		c0.04-0.73-0.2-1.44-0.67-1.99C61.28,22.58,60.64,22.09,60.01,22.03L60.01,22.03z M38.73,13.17c-0.61-0.39-1.35-0.53-2.07-0.39
		c-1.11,0.09-1.87,0.39-2.23,0.91c-0.3,0.48-0.38,1.07-0.24,1.62l4.35,16.99c0.07,0.15,0.21,0.24,0.37,0.26
		c0.25,0,0.46-0.28,0.46-0.61v-0.17l-0.15-16.54C39.23,14.24,39.14,13.54,38.73,13.17z M53.05,61.06c0.5,0.87,0.92,1.43,1.46,1.55
		c0.08,0.01,0.17,0.01,0.25,0c0.64-0.07,1.24-0.32,1.74-0.72c0.92-0.63,1.42-1.27,1.48-1.9c0.01-0.57-0.2-1.12-0.61-1.52
		L45.11,45.95c-0.13-0.09-0.3-0.1-0.44-0.03c-0.11,0.06-0.18,0.17-0.19,0.3c-0.02,0.16,0.01,0.32,0.09,0.46l0.07,0.13l0,0
		L53.05,61.06z M0,40l0.07,0.16c0.68,1.52,1.49,2.98,2.4,4.37c1.5,2.24,2.92,3.43,4.1,3.43l0,0c0.14,0,0.27-0.02,0.4-0.05l5.46-1.39
		c-0.77-0.84-1.2-1.93-1.21-3.07c-0.11-1.48,0.15-2.53,0.8-3.23c0.07-0.08,0.14-0.15,0.22-0.22c-0.08-0.06-0.15-0.13-0.22-0.21
		c-0.67-0.67-0.92-1.77-0.8-3.23c0.01-1.14,0.44-2.24,1.21-3.08l-5.46-1.39c-0.13-0.03-0.26-0.05-0.4-0.05
		c-1.19,0-2.61,1.19-4.11,3.44c-0.91,1.39-1.7,2.85-2.39,4.37L0,40z M57.95,19.99c-0.06-0.63-0.56-1.27-1.48-1.91
		c-0.5-0.4-1.1-0.65-1.74-0.72c-0.08-0.01-0.17-0.01-0.25,0c-0.54,0.12-0.96,0.67-1.46,1.55l-8.49,14.47
		c-0.13,0.22-0.08,0.51,0.12,0.67c0.17,0.08,0.36,0.05,0.5-0.07L57.38,21.5c0.39-0.4,0.61-0.94,0.59-1.5H57.95z M59.97,57.98
		c0.63-0.06,1.27-0.56,1.9-1.48c0.47-0.55,0.72-1.26,0.67-1.99c-0.12-0.54-0.67-0.96-1.54-1.46l-14.39-8.52
		c-0.1-0.05-0.2-0.07-0.31-0.07c-0.15-0.01-0.3,0.07-0.38,0.2c-0.08,0.17-0.05,0.36,0.07,0.5L58.5,57.38c0.4,0.4,0.94,0.61,1.5,0.59
		L59.97,57.98z M41.26,66.83c0.45,0.32,1,0.47,1.54,0.42l0,0c0.16,0,0.34,0,0.53,0c1.11-0.09,1.87-0.39,2.23-0.91
		c0.29-0.48,0.38-1.07,0.23-1.62l-4.34-17.01c-0.07-0.14-0.21-0.24-0.37-0.25c-0.25,0-0.46,0.28-0.46,0.61v0.15l0.15,16.54
		C40.77,65.76,40.88,66.46,41.26,66.83z M19.99,22.02c-0.63,0.06-1.27,0.56-1.9,1.48c-0.47,0.55-0.72,1.26-0.67,1.99
		c0.12,0.54,0.67,0.96,1.55,1.46l14.41,8.52c0.1,0.04,0.2,0.07,0.31,0.07l0,0c0.15,0.01,0.3-0.06,0.38-0.19
		c0.08-0.17,0.05-0.36-0.07-0.5L21.5,22.62c-0.37-0.35-0.84-0.56-1.35-0.6H19.99z M19.99,57.97c0.57,0.02,1.12-0.2,1.52-0.61
		l12.54-12.26c0.09-0.13,0.1-0.3,0.03-0.44c-0.19-0.22-0.52-0.25-0.75-0.09l-0.13,0.08l0,0l-14.25,8.4
		c-0.86,0.5-1.43,0.92-1.55,1.46c-0.04,0.73,0.2,1.44,0.67,1.99C18.72,57.41,19.36,57.91,19.99,57.97z M38.93,47.45
		c-0.18,0.02-0.34,0.14-0.4,0.31L34.2,64.71c-0.14,0.54-0.06,1.12,0.24,1.6c0.37,0.52,1.12,0.82,2.23,0.91
		c0.72,0.14,1.46,0,2.07-0.4c0.4-0.38,0.49-1.07,0.49-2.07l0.15-16.77C39.38,47.72,39.19,47.49,38.93,47.45L38.93,47.45z"/>
</g>
</svg>
