<?xml version="1.0" encoding="utf-8"?>
<!-- Generator: Adobe Illustrator 25.4.1, SVG Export Plug-In . SVG Version: 6.00 Build 0)  -->
<svg version="1.1" id="Layer_1" xmlns="http://www.w3.org/2000/svg" xmlns:xlink="http://www.w3.org/1999/xlink" x="0px" y="0px"
	 viewBox="0 0 275 80" style="enable-background:new 0 0 275 80;" xml:space="preserve">
<style type="text/css">
	.st0{fill:#2E292C;}
	.st1{fill:#3B8771;}
	.st2{fill:#D6D8D9;}
	.st3{fill:#FFFFFF;}
</style>
<g>
	<path class="st0" d="M75.3,67.5c0.9,0,1.7,0,2.6,0c0,0,0,0,0.1,0c0,0,0,0,0,0.1c2.3,4.1,4.7,8.2,7,12.4h-1.8l-1.5-2.6H71.7
		c-0.5,0.9-1,1.8-1.5,2.6h-1.8v-0.1C70.7,75.8,73,71.6,75.3,67.5z M72.5,75.9c2.8,0,5.6,0,8.5,0c-1.3-2.3-2.6-4.6-3.9-6.9
		c-0.2,0-0.4,0-0.7,0C75.1,71.3,73.8,73.6,72.5,75.9z"/>
	<path class="st0" d="M85.8,67.5c0.6,0,1.1,0,1.7,0V80h-1.7C85.8,75.8,85.8,71.7,85.8,67.5z"/>
	<path class="st0" d="M90.1,67.5h5.4c1.2,0,2.3,0,3.5,0c0.9,0,1.8,0,2.6,0.1c0.7,0.1,1.4,0.2,1.9,0.7s0.8,1.2,0.8,1.8
		c0.1,0.6,0.1,1.2,0,1.9c0,0.6-0.1,1.2-0.5,1.7c-0.4,0.5-1,0.6-1.5,0.8c0.4,0.1,0.8,0.2,1.1,0.4c0.3,0.2,0.5,0.5,0.6,0.9
		c0.1,0.5,0.1,1,0.1,1.5c0,0.9,0,1.8,0,2.6c-0.6,0-1.1,0-1.7,0c0-0.7,0-1.4,0-2.1c0-0.5,0-1-0.1-1.5c-0.1-0.2-0.2-0.4-0.3-0.6
		c-0.2-0.2-0.3-0.3-0.6-0.4c-0.4-0.1-0.9-0.2-1.3-0.2c-1.1,0-2.2,0-3.3,0h-5.2V80h-1.7C90.1,75.8,90.1,71.7,90.1,67.5z M91.8,69
		c0,1.6,0,3.2,0,4.7c2.2,0,4.5,0,6.7,0c0.8,0,1.7,0,2.5-0.1c0.5-0.1,1.1-0.2,1.4-0.7c0.3-0.5,0.3-1.2,0.3-1.8c0-0.6-0.1-1.3-0.5-1.7
		c-0.5-0.4-1.1-0.4-1.7-0.4c-1.3-0.1-2.6,0-3.9-0.1L91.8,69z"/>
	<path class="st0" d="M113.4,67.7c1.1-0.1,2.2-0.2,3.2-0.2c1.1,0,2.2,0,3.3,0.1c0.8,0.1,1.6,0.2,2.3,0.6c0.4,0.2,0.8,0.5,1,1
		c0.3,0.6,0.3,1.4,0.3,2.1H122c0-0.5,0.1-1.1-0.2-1.5c-0.4-0.4-0.9-0.5-1.5-0.6c-0.9-0.2-1.8-0.2-2.7-0.2c-1.2,0-2.4,0-3.6,0.2
		c-0.5,0.1-1,0.2-1.5,0.5c-0.2,0.2-0.4,0.4-0.4,0.7c-0.1,0.4-0.1,0.8-0.1,1.2c0,0.3,0.1,0.6,0.3,0.9c0.2,0.2,0.5,0.3,0.8,0.4
		C114,73,115,73,116,73c1.3,0,2.7,0,4,0c0.8,0,1.6,0,2.4,0.3c0.7,0.2,1.2,0.8,1.4,1.4c0.3,0.8,0.3,1.6,0.2,2.4c-0.1,0.7-0.4,1.5-1,2
		c-0.5,0.4-1.2,0.5-1.9,0.6c-1.2,0.2-2.5,0.2-3.7,0.2c-1.2,0-2.5,0-3.8-0.1c-0.7-0.1-1.4-0.1-2-0.4c-0.5-0.3-1-0.7-1.2-1.3
		c-0.2-0.7-0.2-1.4-0.2-2.1h1.6c0,0.4,0,0.9,0.1,1.3c0,0.3,0.1,0.6,0.4,0.8c0.4,0.3,0.8,0.3,1.3,0.4c1.1,0.1,2.3,0.1,3.4,0.1
		c1,0,2.1,0,3.1-0.1c0.4,0,0.8-0.1,1.2-0.2c0.2,0,0.3-0.1,0.5-0.2c0.1-0.1,0.2-0.3,0.3-0.4c0.2-0.5,0.3-1,0.2-1.6
		c0-0.4-0.1-0.9-0.4-1.1c-0.4-0.3-1-0.4-1.6-0.4c-1.3,0-2.7,0-4,0c-1.2,0-2.5,0.1-3.7-0.2c-0.7-0.2-1.4-0.5-1.8-1.1
		c-0.5-0.7-0.6-1.5-0.5-2.3c0-0.8,0.2-1.6,0.8-2.2C111.7,68.1,112.6,67.8,113.4,67.7z"/>
	<path class="st0" d="M125.5,67.5c0.6,0,1.1,0,1.7,0c0,1.8,0,3.5,0,5.3h11.5v-5.3c0.6,0,1.1,0,1.7,0V80h-1.7c0-1.9,0-3.8,0-5.7
		h-11.5c0,1.9,0,3.8,0,5.7h-1.7C125.5,75.8,125.5,71.7,125.5,67.5z"/>
	<path class="st0" d="M142,67.5c0.6,0,1.1,0,1.7,0c0,2.9,0,5.8,0,8.7c0,0.5,0,1.1,0.3,1.5c0.2,0.3,0.6,0.4,0.9,0.5
		c1.3,0.2,2.6,0.2,3.8,0.2c1.4,0,2.9,0,4.3-0.1c0.4-0.1,0.8-0.1,1.2-0.3c0.2-0.1,0.3-0.2,0.4-0.3c0.1-0.1,0.2-0.3,0.2-0.5
		c0.1-0.5,0.1-1,0.1-1.5c0-2.7,0-5.5,0-8.2c0.6,0,1.1,0,1.7,0c0,2.6,0,5.2,0,7.8c0,0.7,0,1.4-0.1,2.1c-0.1,0.7-0.5,1.5-1.1,1.9
		c-0.5,0.3-1.1,0.5-1.6,0.5c-1.5,0.1-3,0.2-4.4,0.2c-1.3,0-2.5,0-3.8-0.1c-0.5,0-1-0.1-1.5-0.2c-0.4-0.1-0.7-0.3-1-0.5
		c-0.3-0.2-0.5-0.5-0.7-0.8c-0.3-0.6-0.4-1.4-0.4-2.1c0-1.1,0-2.3,0-3.4C142,71.1,142,69.3,142,67.5z"/>
	<path class="st0" d="M157.5,67.5c4.7,0,8.6,0,13.3,0c0,0.5,0,1,0,1.5c-2.1,0-3.8,0-5.8,0v11h-1.7c0-3.7,0-7.3,0-11l-5.8,0
		C157.5,68.5,157.5,68,157.5,67.5z"/>
	<path class="st0" d="M171.7,67.5c4.7,0,8.6,0,13.3,0c0,0.5,0,1,0,1.5c-2.1,0-3.8,0-5.8,0v11h-1.7c0-3.7,0-7.3,0-11l-5.8,0
		C171.7,68.5,171.7,68,171.7,67.5z"/>
	<path class="st0" d="M186.4,67.5c0.6,0,1.1,0,1.7,0c0,3.7,0,7.3,0,11h9.8V80h-11.5C186.4,75.8,186.4,71.7,186.4,67.5z"/>
	<path class="st0" d="M198.8,67.5c4.1,0,8.1,0,12.2,0V69h-10.5c0,1.3,0,2.5,0,3.8c3.4,0,6.7,0,10.1,0c0,0.5,0,1,0,1.5
		c-3.4,0-6.7,0-10.1,0c0,1.4,0,2.8,0,4.3H211c0,0.5,0,1,0,1.5c-4.1,0-8.1,0-12.2,0C198.8,75.8,198.8,71.7,198.8,67.5z"/>
	<path class="st0" d="M213.6,68.3h-1.1v-0.8h3.1v0.8h-1.1V71h-1V68.3z"/>
	<path class="st0" d="M219.2,71l0-1.9l-0.9,1.5h-0.4l-0.9-1.5V71h-0.9v-3.5h0.8l1.2,2l1.2-2h0.8l0,3.5H219.2z"/>
	<path class="st1" d="M0,27.5c1.4,0,2.8,0,4.1,0c0,5.8,0,11.6,0,17.4c0,1.9,0,3.9,0.1,5.8c0.1,0.6,0.1,1.2,0.4,1.7
		c0.3,0.5,0.6,1,1.2,1.2c1.2,0.6,2.6,0.6,4,0.8c2.5,0.2,5,0.2,7.5,0.2c3.1,0,4.5,0,7.6-0.3c1.2-0.1,2.5-0.2,3.6-0.7
		c0.4-0.2,0.8-0.4,1.1-0.8c0.3-0.4,0.5-0.8,0.6-1.2c0.2-1.2,0.2-2.4,0.3-3.6c0-1.9,0-3.8,0-5.8c0-4.9,0-9.9,0-14.8
		c1.4,0,2.7,0,4.1,0c0,5,0,10,0,15c0,2.9,0,5.8-0.2,8.7c-0.2,1.8-0.8,3.6-2.1,4.8c-1.1,1-2.6,1.6-4.1,1.7c-2,0.3-4.1,0.4-6.1,0.4
		c-4.1,0.2-6.6,0.1-10.8,0c-1.8-0.1-3.6-0.2-5.4-0.5c-1.1-0.2-2.1-0.6-3-1.2c-1-0.7-1.7-1.8-2.1-2.9c-0.4-1.2-0.5-2.4-0.7-3.6
		C0,47.5,0.1,45,0,42.5L0,27.5z"/>
	<path class="st1" d="M42.3,27.5c1.4,0,2.7,0,4.1,0c0,9,0,18.1,0,27.1c8.1,0,16.2,0,24.2,0c0,1.2,0,2.4,0,3.6c-9.4,0-18.9,0-28.3,0
		C42.3,48,42.3,37.7,42.3,27.5z"/>
	<path class="st1" d="M66.3,27.5c11.6,0,23.3,0,34.9,0c0,1.2,0,2.4,0,3.6H85.8c0,9,0,18.1,0,27.1c-1.4,0-2.7,0-4.1,0
		c0-9,0-18.1,0-27.1H66.3C66.3,29.9,66.3,28.7,66.3,27.5z"/>
	<path class="st1" d="M106,27.5h4.1v30.7H106C106,48,106,37.7,106,27.5z"/>
	<path class="st1" d="M117.2,27.5c2.7,0,5.5,0,8.2,0c5.6,8.7,10.3,17.4,15.8,26.1c5.5-8.7,10.1-17.4,15.5-26.1c2.7,0,5.5,0,8.2,0
		c0,10.2,0,20.5,0,30.7c-1.4,0-2.7,0-4.1,0c0-9,0-17.9,0-26.9c-0.6,0-1.1,0-1.7,0c-5.7,9-10.6,17.9-16.3,26.9c-1.1,0-2.2,0-3.3,0
		c-5.8-9-10.7-17.9-16.5-26.9c-0.6,0-1.2,0-1.8,0c0,9,0,17.9,0,26.9h-4.1C117.2,48,117.2,37.7,117.2,27.5z"/>
	<path class="st1" d="M186.7,27.5c2.2,0,4.4,0,6.5,0c5.8,10.2,11.6,20.5,17.4,30.7h-4.6c-1.2-2.2-2.4-4.3-3.6-6.5
		c-8.3,0-16.6,0-24.8,0c-1.2,2.2-2.4,4.3-3.6,6.5c-1.6,0-3.1,0-4.7,0C175.1,48,180.9,37.8,186.7,27.5z M179.6,48.1
		c7,0,13.9,0,20.9,0c-3.2-5.7-6.4-11.4-9.6-17.1c-0.6,0-1.1,0-1.7,0C186,36.8,182.8,42.5,179.6,48.1z"/>
	<path class="st1" d="M206.2,27.5c11.6,0,23.3,0,34.9,0c0,1.2,0,2.4,0,3.6c-5.1,0-10.2,0-15.3,0c0,9,0,18.1,0,27.1
		c-1.4,0-2.7,0-4.1,0c0-9,0-18.1,0-27.1h-15.4C206.2,29.9,206.2,28.7,206.2,27.5z"/>
	<path class="st1" d="M245,27.5c10,0,20.1,0,30.1,0c0,1.2,0,2.4,0,3.6c-8.7,0-17.3,0-26,0v9.4c8.3,0,16.6,0,24.9,0v3.6h-24.9
		c0,3.5,0,7,0,10.6c8.7,0,17.4,0,26,0c0,1.2,0,2.4,0,3.6H245C245,48,245,37.7,245,27.5z"/>
	<path class="st2" d="M140,0h-1.7v3.3l-12.5,3.3l12.5-1.2v2.1c-3.1,0.2-5.9,1.7-7.9,3.9l-61.3,4.4l36.5-0.8
		c-1.1,0.8-1.9,2.2-1.9,3.7c0,2.5,2.1,4.6,4.6,4.6c2.5,0,4.6-2.1,4.6-4.6c0-1.6-0.8-2.9-1.9-3.8h17.3c-0.5,1.3-0.8,2.7-0.8,4.2
		c0,6.4,5.2,11.7,11.7,11.7s11.7-5.2,11.7-11.7c0-1.5-0.3-2.9-0.8-4.2h17.3c-1.2,0.8-1.9,2.2-1.9,3.8c0,2.5,2.1,4.6,4.6,4.6
		s4.6-2.1,4.6-4.6c0-1.5-0.7-2.9-1.9-3.7l36.5,0.8l-61.3-4.4c-2-2.2-4.7-3.7-7.9-3.9V5.4l11.7,1.2L140,3.3V0z"/>
	<path class="st3" d="M128,15.8c0.6-1.9,1.6-3.6,3-5h7.3v5H128z"/>
	<path class="st3" d="M150.4,15.8H140v-5h7.3C148.7,12.2,149.8,13.9,150.4,15.8z"/>
</g>
</svg>
