<?xml version="1.0" encoding="utf-8"?>
<!-- Generator: Adobe Illustrator 25.4.1, SVG Export Plug-In . SVG Version: 6.00 Build 0)  -->
<svg version="1.1" id="Layer_1" xmlns="http://www.w3.org/2000/svg" xmlns:xlink="http://www.w3.org/1999/xlink" x="0px" y="0px"
	 viewBox="0 0 170.4 80" style="enable-background:new 0 0 170.4 80;" xml:space="preserve">
<style type="text/css">
	.st0{fill:#02026D;}
	.st1{fill:#9CA46C;}
</style>
<path class="st0" d="M169.8,66.2c-1.8-3.8-8.9-4.1-12.7-3.5c0,0,3.3-6.2,2-8.7c-1.3-2.5-2.5-1.9-2.5-1.9s6.8-4.3,6.8-8.2
	c0-3.9-5-8.9-9.1-9.5c-4.1-0.6-9.3-0.1-11.4,0.6c0,0-4.2-3.3-3-6.4c1.2-3.1,3.3-9,1.2-13.1c-2-4.1-6.7-7.4-12.9-8.1
	c-6.3-0.7-10.9,0.7-12.8,1.4c-1.8,0.7-4.7,1.8-8.7,1.8c-4,0-10.6-2.6-14.6-6.3C88.1,0.5,83.6,0,77.9,0c0,0-8.7,0.5-11.8,6.8
	C63,13,58.3,17.4,55,17.8c-3.3,0.4-5.4-0.7-7.3-1.2c-1.8-0.5-4.5-0.4-3.8,3.2c0.7,3.5,0.9,5.6,0.9,5.6L13.5,34c0,0,2.2,6.3-0.8,8.3
	c0,0,6.5,4.7,3.7,12.2c0,0,7.1-1.2,10.5,4.3c3.4,5.5-0.8,7.9-0.8,7.9s10.2-3.1,17.7,0.4c0,0,4-4.4,13.9-3.8l9.2-3.8
	c0,0,0.3-0.8,2.3-0.3c1.9,0.5,5.2-1.5,5.4-1.5c0.2,0,1.7,1.9,1.7,1.9l6.4-0.4l4.7,0.2l5.2,5.1l4.1-4.9l5.9-1.8l1.7-0.2l7.3,0
	l3.9-0.4l3.2,3.4c0,0,2.6,2.2,3,2.4c0,0,8.8-2.2,15.2,4.5c6.4,6.7,2,11.8,1.2,12.4H154c0,0,6.2-0.9,10.3-3.8
	C168.5,73.3,171.6,70,169.8,66.2z M116.9,31.1c-4.9,0.5-10.1,3.5-10.1,3.5s1.2-6.2-4.2-9c-5.4-2.8-13.9,1.1-13.9,1.1
	c-1.6-1.6-6.7-5.9-12.2-5.2C70.9,22.2,68,32.3,68,32.3C67,24.4,72.2,19,79.2,17.8c7-1.2,11.4,4.2,11.4,4.2c4.7-1.4,9.5-2.2,14.7-1.2
	c5.1,1,7.2,7.5,7.2,7.5c13.3-1.6,13.8,4.4,13.8,4.4S121.8,30.6,116.9,31.1z"/>
<path class="st1" d="M54,22.7c-2.2,0-9.7,0-9.7,0l-3.5,0.8L38,20.1h3l-1.6-1.8h-7.3v-6.1l-12.8,0.9l-0.1,5.4H1c0,0-1.4,0.6-0.9,3.2
	h3.3c0,0,6.9,6,10.1,12.3h10c-0.6,0.5-1.1,1.2-1.1,2.1c0,1.4,1.1,2.5,2.5,2.5c1.4,0,2.5-1.1,2.5-2.5c0-0.9-0.4-1.6-1.1-2.1H43
	c0,0,2-0.1,2-2.8H50l2.2,1.1V35c-0.4,0.2-0.6,0.7-0.6,1.1c0,0.8,0.6,1.4,1.4,1.4c0.8,0,1.4-0.6,1.4-1.4c0-0.6-0.3-1.1-0.8-1.3l0,0
	v-3.7l2.6-2.4c0,0,4.6-1.2,4.6-2.9C60.7,24.3,56.2,22.7,54,22.7z M10.9,23.5H5.6v-3h5.3V23.5z M17.1,23.5h-5.3v-3h5.3V23.5z
	 M23.4,23.5h-5.3v-3h5.3V23.5z M29.5,23.5h-5.3v-3h5.3V23.5z M33.1,23.5h-2.6v-3h2.6V23.5z M34.2,23.5v-3h2.6l2.2,3H34.2z"/>
<polygon class="st1" points="41.9,40.8 41.1,40.8 38.6,40.8 22.6,62.4 28.2,62.4 32.3,57.7 39.3,57.7 39.3,54.8 33.7,54.8 
	40.1,44.9 41.1,44.9 41.1,63.2 47.4,63.2 47.4,40.8 "/>
<path class="st1" d="M57.2,40.8h7.2c0,0-6.3,17.1-1.4,17.1s10.2-17.1,10.2-17.1h7.6l-4.6,18.9c0,0-0.6-1.1-2-0.9
	c-1.4,0.2-3.8,1.4-5.2,1.3l0.5-4.3c0,0-1.6,3-2.7,3.7c-1.1,0.7-9.2,3.8-9.2,3.8s-4.8-2.5-4.6-6.5S57.2,40.8,57.2,40.8z"/>
<path class="st1" d="M86.2,40.8l-4.4,20c0,0,2.9-1.6,7.6-1.2c0.2-0.1,3.7-16.2,3.7-16.2h5.6c0,0,2,0.7,2,4.4s-6.8,4.8-8.3,4.9
	c-1.5,0.2-0.5,1.5,0,2.2c0.5,0.7,4,4.9,4,4.9s1.9,0.4,3.7-0.4c1.8-0.7,3.3-1.1,4.5-0.9l-4.1-5.4c0,0,8.9-2,8.9-5.9s-4.6-6.3-4.6-6.3
	H86.2z"/>
<path class="st1" d="M111.3,57.7l3.4-14.6h-3.4l1.1-2.3h10l-4,20C118.4,60.7,115.1,57.7,111.3,57.7z"/>
<path class="st1" d="M145,58.3l-2.4-3c0,0-3.6,4-7.9,4c-4.2,0-4.6-4.9-4.6-6.4c0-1.6,1.4-5.8,7.2-8.2c5.8-2.4,4.9,0.7,4.9,1.5
	c0,0.8,0,4.2,0,4.2h2.9c0,0,1.7-4.2,1.7-7.5c0,0,0.3-1.4-0.6-1.6c-0.9-0.2-8.7-1.6-13.8,0.6c-5.1,2.2-8.7,6.2-8.7,12.7s6,7.9,11,7.9
	C139.8,62.4,145,58.3,145,58.3z"/>
<path class="st1" d="M100.7,64.4l-9.5,13.7l2.9,0.4c0.7-0.9,1.6-2.2,2.6-3.7h4.7v-1.4h-3.8c1.8-2.9,3.4-5.8,3.4-5.8h1.5v11h3.5V64.4
	H100.7z"/>
<polygon class="st1" points="109.4,78.5 112.9,78.5 116.5,64.4 110.9,64.4 109.7,66.5 112.2,66.5 "/>
<path class="st1" d="M116.9,78l4.7,0.1l2.5-11.4h2.7c0,0,2.2-0.2,2.2,2.7s-5.3,3.2-5.3,3.2s-0.8,0.2-0.5,0.7
	c0.3,0.5,3.9,5.2,3.9,5.2s0.8,1.4,2.5,1.4c1.8,0,4.1-0.8,4.3-2.8c0,0,0-0.8-0.5-0.3c-0.5,0.6-1,0.8-1.6,0c-0.6-0.8-3.1-4-3.1-4
	s5.8-1.1,5.8-3.8s-3.1-4.5-3.1-4.5h-11.6L116.9,78z"/>
</svg>
