<?xml version="1.0" encoding="utf-8"?>
<!-- Generator: Adobe Illustrator 25.4.1, SVG Export Plug-In . SVG Version: 6.00 Build 0)  -->
<svg version="1.1" id="Layer_1" xmlns="http://www.w3.org/2000/svg" xmlns:xlink="http://www.w3.org/1999/xlink" x="0px" y="0px"
	 viewBox="0 0 127.6 80" style="enable-background:new 0 0 127.6 80;" xml:space="preserve">
<style type="text/css">
	.st0{fill:#F39322;}
	.st1{fill:#282E63;}
</style>
<g>
	<path class="st0" d="M49,45.2L33.7,80V50.8l10.1-16.2c0.8,1.5,1.3,2.5,1.3,2.5S46.7,40.4,49,45.2z"/>
	<path class="st0" d="M97.5,50.8V80C95.4,71.6,85,49.8,80.7,41c-1.2-2.4-1.9-3.8-1.9-3.8s-1.2-2.4-2.9-5.4
		c-2.9-5.2-7.4-12.2-10.5-12.2c-4.8,0-11.6,14.7-11.6,14.7l-0.2,0.5l-4.9-7.8L65.4,0l15.3,24.1l4.8,7.5L97.5,50.8z"/>
	<path class="st1" d="M80.7,41c-4.3,8.9-14.8,30.6-16.9,39C62,72.7,53.9,55.4,49,45.2c-2.3-4.8-3.9-8-3.9-8s-0.5-1-1.3-2.5
		c-2.6-4.9-8.4-15.2-12.1-15.2c-4.8,0-11.6,14.7-11.6,14.7L0,80V50.8L31.7,0l17,26.9l4.9,7.8l10.2,16.2l12.1-19.1
		c1.7,3,2.9,5.4,2.9,5.4S79.5,38.6,80.7,41z"/>
	<path class="st1" d="M127.6,50.8V80l-20.1-45.8c0,0-6.8-14.7-11.6-14.7c-3,0-7.6,7-10.5,12.2l-4.8-7.5L95.9,0L127.6,50.8z"/>
</g>
</svg>
