<?xml version="1.0" encoding="utf-8"?>
<!-- Generator: Adobe Illustrator 25.4.1, SVG Export Plug-In . SVG Version: 6.00 Build 0)  -->
<svg version="1.1" id="Layer_1" xmlns="http://www.w3.org/2000/svg" xmlns:xlink="http://www.w3.org/1999/xlink" x="0px" y="0px"
	 viewBox="0 0 178.6 80" style="enable-background:new 0 0 178.6 80;" xml:space="preserve">
<style type="text/css">
	.st0{fill:#282E63;}
	.st1{fill:#B67820;}
	.st2{fill:#F39322;}
</style>
<g>
	<path class="st0" d="M1.2,64c0.2,0,0.3-0.1,0.4-0.2c0.1-0.1,0.2-0.3,0.3-0.5l3.2-7c0.1-0.2,0.2-0.3,0.2-0.4
		c0.1-0.1,0.1-0.2,0.1-0.3c0-0.1,0-0.2-0.1-0.3c-0.1,0-0.2-0.1-0.3-0.1v-0.3h3v0.3c-0.1,0-0.2,0.1-0.2,0.1c-0.1,0-0.1,0.1-0.1,0.3
		c0,0.1,0,0.2,0.1,0.3c0,0.1,0.1,0.2,0.2,0.4l3.6,7.4c0.1,0.1,0.1,0.2,0.2,0.3c0.1,0.1,0.2,0.1,0.3,0.2v0.3H8.9V64
		c0,0,0.1,0,0.2-0.1c0.1,0,0.1-0.1,0.1-0.2c0-0.1,0-0.3-0.1-0.5l-0.7-1.3H4.1l-0.6,1.3c-0.1,0.3-0.2,0.4-0.2,0.5
		c0,0.1,0.1,0.2,0.3,0.2v0.3H1.2V64z M7.8,60.6l-1.5-3.4l-1.6,3.4H7.8z"/>
	<path class="st0" d="M16.4,56.3v0.3c-0.3,0-0.4,0.1-0.4,0.3v6h4.7c0.1,0,0.3,0,0.4-0.1c0.1-0.1,0.1-0.2,0.1-0.3h0.3v1.9h-0.3
		c0-0.1,0-0.2-0.1-0.2c-0.1,0-0.2,0-0.4,0h-6.9V64c0.3,0,0.5-0.1,0.5-0.3v-6.8c0-0.2-0.2-0.3-0.5-0.3v-0.3H16.4z"/>
	<path class="st0" d="M25.3,64c0.1,0,0.2,0,0.2-0.1c0.1-0.1,0.1-0.1,0.1-0.2v-8.2c0-0.1,0-0.2-0.1-0.2c-0.1,0-0.2-0.1-0.2-0.1v-0.3
		h3.3v0.3c-0.1,0-0.1,0-0.2,0.1c-0.1,0-0.1,0.1-0.1,0.2c0,0.1,0,0.1,0.1,0.2c0,0.1,0.1,0.2,0.2,0.3l2.5,4.7l2.5-4.6
		c0.1-0.2,0.1-0.3,0.2-0.4c0-0.1,0.1-0.2,0.1-0.2c0-0.1-0.1-0.2-0.2-0.2v-0.3h3.2v0.3c-0.1,0-0.2,0-0.2,0.1c-0.1,0-0.1,0.1-0.1,0.2
		v8.2c0,0.1,0,0.2,0.1,0.2c0.1,0.1,0.2,0.1,0.2,0.1v0.3H34V64c0.3,0,0.5-0.1,0.5-0.3v-6h0l-3.5,6.7h-0.1l-3.4-6.7h0v6
		c0,0.2,0.2,0.3,0.5,0.3v0.3h-2.6V64z"/>
	<path class="st0" d="M38.6,64c0.1,0,0.3-0.1,0.3-0.2c0.1-0.1,0.2-0.2,0.2-0.3l2.6-5.9c0.1-0.2,0.1-0.3,0.2-0.4
		c0-0.1,0.1-0.2,0.1-0.3c0-0.1,0-0.1,0-0.1c0,0-0.1,0-0.1-0.1v-0.3h2.6v0.3c0,0-0.1,0-0.1,0.1c0,0-0.1,0.1-0.1,0.1
		c0,0.1,0,0.2,0.1,0.3c0.1,0.1,0.1,0.2,0.2,0.4l2.8,6.2c0.1,0.1,0.1,0.2,0.2,0.2c0.1,0,0.1,0.1,0.2,0.1v0.3h-2.5V64
		c0.1,0,0.1,0,0.2-0.1c0.1,0,0.1-0.1,0.1-0.2c0-0.1,0-0.1,0-0.2c0-0.1-0.1-0.1-0.1-0.2l-0.5-1h-3.7l-0.5,1c0,0.1-0.1,0.2-0.1,0.3
		c0,0.1,0,0.1,0,0.2c0,0.1,0,0.2,0.1,0.2c0.1,0,0.1,0,0.2,0v0.3h-2.3V64z M44.5,61l-1.4-3l-1.2,3H44.5z"/>
	<path class="st0" d="M50.3,61.5c0,0,0,0.1,0,0.2c0,0.1,0,0.1,0,0.2c0,0.2,0.1,0.3,0.3,0.5c0.2,0.2,0.5,0.3,0.8,0.4
		c0.3,0.1,0.6,0.2,0.9,0.2c0.3,0.1,0.6,0.1,0.7,0.1c0.2,0,0.4,0,0.6,0c0.2,0,0.5-0.1,0.7-0.2c0.2-0.1,0.4-0.2,0.6-0.3
		c0.2-0.1,0.2-0.3,0.2-0.6c0-0.3-0.1-0.5-0.4-0.6c-0.3-0.1-0.6-0.2-1.1-0.3c-0.4-0.1-0.9-0.1-1.4-0.2c-0.5-0.1-1-0.2-1.4-0.3
		c-0.4-0.2-0.8-0.4-1.1-0.7c-0.3-0.3-0.4-0.7-0.4-1.2c0-0.8,0.3-1.4,0.9-1.8c0.6-0.5,1.5-0.7,2.6-0.7c0.5,0,1,0,1.4,0.1
		c0.4,0.1,0.7,0.2,1,0.3c0.3,0.1,0.5,0.2,0.7,0.3c0.2,0.1,0.3,0.1,0.4,0.1c0.1,0,0.2,0,0.2,0c0,0,0.1-0.1,0.2-0.1l0.2,0.2l-0.9,1.7
		l-0.3-0.1c0-0.1,0-0.1,0-0.2c0-0.1-0.1-0.1-0.2-0.2c-0.2-0.2-0.6-0.4-1.1-0.5c-0.5-0.1-1-0.2-1.6-0.2c-0.2,0-0.5,0-0.7,0
		c-0.2,0-0.4,0.1-0.6,0.2c-0.2,0.1-0.3,0.2-0.4,0.3c-0.1,0.1-0.1,0.3-0.1,0.4c0,0.3,0.1,0.5,0.4,0.6c0.3,0.1,0.6,0.2,1.1,0.3
		c0.4,0.1,0.9,0.1,1.4,0.2c0.5,0.1,1,0.2,1.4,0.3c0.4,0.2,0.8,0.4,1.1,0.7c0.3,0.3,0.4,0.7,0.4,1.2c0,0.5-0.1,1-0.4,1.3
		c-0.3,0.3-0.6,0.6-0.9,0.8c-0.4,0.2-0.8,0.3-1.2,0.4c-0.4,0.1-0.9,0.1-1.3,0.1c-0.4,0-0.8,0-1.2-0.1c-0.4-0.1-0.7-0.2-1.1-0.3
		c-0.3-0.1-0.6-0.2-0.8-0.3c-0.2-0.1-0.4-0.1-0.4-0.1c-0.1,0-0.2,0-0.2,0.1l-0.2-0.2l0.8-2L50.3,61.5z"/>
	<path class="st0" d="M63.7,56.3c1,0,1.8,0.2,2.4,0.5c0.6,0.4,0.9,1,0.9,1.8c0,0.3-0.1,0.6-0.2,0.9c-0.1,0.3-0.3,0.5-0.5,0.7
		c-0.2,0.2-0.4,0.3-0.6,0.5c-0.2,0.1-0.5,0.2-0.7,0.3l1.7,2.6c0.1,0.1,0.2,0.2,0.3,0.3c0.1,0.1,0.2,0.1,0.4,0.2v0.3h-2.7V64
		c0.2,0,0.2-0.1,0.2-0.2c0-0.1-0.1-0.3-0.3-0.6l-1.4-2.1h-2.4v2.6c0,0.1,0,0.2,0.1,0.2c0.1,0,0.1,0.1,0.2,0.1v0.3h-2.3V64
		c0.2,0,0.3-0.1,0.3-0.3v-6.8c0-0.2-0.1-0.3-0.3-0.3v-0.3H63.7z M63.7,59.8c1.1,0,1.7-0.4,1.7-1.1c0-0.3-0.1-0.5-0.4-0.7
		c-0.3-0.2-0.7-0.3-1.3-0.3h-2.8v2.1H63.7z"/>
	<path class="st0" d="M68.8,64c0.2,0,0.3,0,0.4-0.1c0.1,0,0.1-0.1,0.1-0.2v-6.8c0-0.1,0-0.2-0.1-0.2c-0.1,0-0.2-0.1-0.4-0.1v-0.3
		h2.7v0.3c-0.3,0-0.5,0.1-0.5,0.3v6.8c0,0.2,0.2,0.3,0.5,0.3v0.3h-2.7V64z"/>
	<path class="st0" d="M73.1,64c0.1,0,0.3-0.1,0.3-0.2c0.1-0.1,0.2-0.2,0.2-0.3l2.6-5.9c0.1-0.2,0.1-0.3,0.2-0.4
		c0-0.1,0.1-0.2,0.1-0.3c0-0.1,0-0.1,0-0.1c0,0-0.1,0-0.1-0.1v-0.3H79v0.3c0,0-0.1,0-0.1,0.1c0,0-0.1,0.1-0.1,0.1
		c0,0.1,0,0.2,0.1,0.3c0.1,0.1,0.1,0.2,0.2,0.4l2.8,6.2c0.1,0.1,0.1,0.2,0.2,0.2c0.1,0,0.1,0.1,0.2,0.1v0.3h-2.5V64
		c0.1,0,0.1,0,0.2-0.1c0.1,0,0.1-0.1,0.1-0.2c0-0.1,0-0.1,0-0.2c0-0.1-0.1-0.1-0.1-0.2l-0.5-1h-3.7l-0.5,1c0,0.1-0.1,0.2-0.1,0.3
		c0,0.1,0,0.1,0,0.2c0,0.1,0,0.2,0.1,0.2c0.1,0,0.1,0,0.2,0v0.3h-2.3V64z M78.9,61l-1.4-3l-1.2,3H78.9z"/>
	<path class="st1" d="M1.7,74c-0.2,0-0.2,0.1-0.2,0.2v3.5c0,0.5,0.1,0.8,0.4,1c0.3,0.2,0.7,0.3,1.2,0.3c0.5,0,0.9-0.1,1.2-0.3
		c0.3-0.2,0.4-0.5,0.4-1v-3.5C4.7,74,4.6,74,4.4,74v-0.2h1.6V74c-0.2,0-0.2,0.1-0.2,0.2v3.4c0,0.5-0.1,0.8-0.2,1.1
		c-0.1,0.3-0.3,0.5-0.5,0.7c-0.2,0.2-0.5,0.3-0.9,0.4c-0.3,0.1-0.7,0.1-1.2,0.1s-0.9,0-1.2-0.1c-0.3-0.1-0.6-0.2-0.9-0.4
		c-0.2-0.2-0.4-0.4-0.5-0.7c-0.1-0.3-0.2-0.7-0.2-1.1v-3.4C0.3,74,0.2,74,0,74v-0.2h1.7V74z"/>
	<path class="st1" d="M12.5,79.7c0.1,0,0.2-0.1,0.2-0.2v-4.3c0-0.1-0.1-0.2-0.2-0.2v-0.2H14V75c0,0-0.1,0-0.1,0.1
		c0,0,0.1,0.1,0.2,0.3l2.5,2.9v-3.1c0-0.1-0.1-0.2-0.2-0.2v-0.2h1.3V75c-0.1,0-0.2,0.1-0.2,0.2v4.3c0,0.1,0.1,0.2,0.2,0.2v0.2h-1.3
		v-0.2c0,0,0.1,0,0.1-0.1c0,0,0-0.1-0.1-0.2c-0.1-0.1-0.1-0.2-0.2-0.3l-2.6-3.1v3.4c0,0.1,0.1,0.2,0.2,0.2v0.2h-1.3V79.7z"/>
	<path class="st1" d="M23.9,79.7c0.1,0,0.2,0,0.2,0c0,0,0.1-0.1,0.1-0.1v-4.3c0-0.1,0-0.1-0.1-0.1c0,0-0.1,0-0.2,0v-0.2h1.6V75
		c-0.2,0-0.3,0.1-0.3,0.2v4.3c0,0.1,0.1,0.2,0.3,0.2v0.2h-1.6V79.7z"/>
	<path class="st1" d="M36.1,75c-0.1,0-0.2,0.1-0.3,0.3L34.4,79c-0.1,0.2-0.1,0.3-0.2,0.4c0,0.1-0.1,0.1-0.1,0.2c0,0,0.1,0.1,0.2,0.1
		v0.2h-1.6v-0.2c0,0,0.1,0,0.1-0.1c0,0,0,0,0-0.1c0,0,0-0.1-0.1-0.2c0-0.1-0.1-0.2-0.2-0.3l-1.6-3.8c0-0.1-0.1-0.1-0.1-0.2
		c0,0-0.1-0.1-0.1-0.1v-0.2h1.5V75c-0.1,0-0.1,0.1-0.1,0.2c0,0.1,0,0.1,0.1,0.2c0,0.1,0.1,0.2,0.1,0.3l1.2,2.9l1.1-2.8
		c0.1-0.2,0.1-0.3,0.2-0.4c0-0.1,0.1-0.2,0.1-0.2c0-0.1-0.1-0.1-0.2-0.1v-0.2h1.4V75z"/>
	<path class="st1" d="M46.9,75.8c0-0.1-0.1-0.2-0.3-0.2H44v1.2h1.6c0.1,0,0.2,0,0.3,0c0.1,0,0.1-0.1,0.1-0.2h0.2v1.2h-0.2
		c0-0.1,0-0.1-0.1-0.2c-0.1,0-0.2,0-0.3,0H44V79h2.6c0.1,0,0.2,0,0.2-0.1c0.1,0,0.1-0.1,0.1-0.2h0.2V80H47c0-0.1,0-0.1-0.1-0.1
		c-0.1,0-0.1,0-0.2,0h-3.8v-0.2c0,0,0.1,0,0.1,0c0,0,0.1-0.1,0.1-0.1v-4.3c0-0.1,0-0.1-0.1-0.1c0,0-0.1,0-0.1,0v-0.2h3.7
		c0.2,0,0.3-0.1,0.3-0.2h0.2v1.3H46.9z"/>
	<path class="st1" d="M56.3,74.8c0.6,0,1.1,0.1,1.4,0.3s0.5,0.6,0.5,1.2c0,0.2,0,0.4-0.1,0.6c-0.1,0.2-0.2,0.3-0.3,0.4
		c-0.1,0.1-0.2,0.2-0.4,0.3c-0.1,0.1-0.3,0.1-0.4,0.2l1,1.7c0.1,0.1,0.1,0.1,0.2,0.2c0.1,0,0.1,0.1,0.2,0.1v0.2h-1.6v-0.2
		c0.1,0,0.1,0,0.1-0.1c0-0.1-0.1-0.2-0.2-0.4L56,77.8h-1.4v1.7c0,0.1,0,0.1,0.1,0.1c0,0,0.1,0,0.1,0v0.2h-1.4v-0.2
		c0.1,0,0.2-0.1,0.2-0.2v-4.3c0-0.1-0.1-0.2-0.2-0.2v-0.2H56.3z M56.2,77c0.7,0,1-0.2,1-0.7c0-0.2-0.1-0.3-0.2-0.5
		c-0.2-0.1-0.4-0.2-0.8-0.2h-1.6V77H56.2z"/>
	<path class="st1" d="M65,78.1C65,78.1,65,78.2,65,78.1c0,0.1,0,0.2,0,0.2c0,0.1,0.1,0.2,0.2,0.3c0.1,0.1,0.3,0.2,0.5,0.2
		c0.2,0.1,0.4,0.1,0.5,0.2c0.2,0,0.3,0.1,0.4,0.1c0.1,0,0.2,0,0.4,0c0.1,0,0.3,0,0.4-0.1c0.1-0.1,0.3-0.1,0.4-0.2
		c0.1-0.1,0.1-0.2,0.1-0.4c0-0.2-0.1-0.3-0.3-0.4c-0.2-0.1-0.4-0.1-0.6-0.2c-0.3,0-0.5-0.1-0.8-0.1c-0.3,0-0.6-0.1-0.8-0.2
		c-0.3-0.1-0.5-0.2-0.6-0.4c-0.2-0.2-0.3-0.4-0.3-0.8c0-0.5,0.2-0.9,0.5-1.2c0.4-0.3,0.9-0.4,1.5-0.4c0.3,0,0.6,0,0.8,0.1
		c0.2,0.1,0.4,0.1,0.6,0.2c0.2,0.1,0.3,0.1,0.4,0.2c0.1,0.1,0.2,0.1,0.2,0.1c0.1,0,0.1,0,0.1,0c0,0,0.1,0,0.1-0.1l0.1,0.1l-0.5,1.1
		l-0.2-0.1c0,0,0-0.1,0-0.1c0,0,0-0.1-0.1-0.1c-0.1-0.1-0.4-0.2-0.6-0.3c-0.3-0.1-0.6-0.1-1-0.1c-0.1,0-0.3,0-0.4,0
		c-0.1,0-0.2,0.1-0.3,0.1c-0.1,0-0.2,0.1-0.2,0.2c-0.1,0.1-0.1,0.2-0.1,0.3c0,0.2,0.1,0.3,0.3,0.4c0.2,0.1,0.4,0.1,0.6,0.2
		c0.3,0,0.5,0.1,0.8,0.1c0.3,0,0.6,0.1,0.8,0.2c0.3,0.1,0.5,0.2,0.6,0.4c0.2,0.2,0.3,0.5,0.3,0.8s-0.1,0.6-0.2,0.8
		c-0.1,0.2-0.3,0.4-0.6,0.5c-0.2,0.1-0.5,0.2-0.7,0.2c-0.3,0-0.5,0.1-0.7,0.1c-0.2,0-0.5,0-0.7-0.1c-0.2-0.1-0.4-0.1-0.6-0.2
		c-0.2-0.1-0.3-0.1-0.5-0.2c-0.1-0.1-0.2-0.1-0.2-0.1c0,0-0.1,0-0.1,0.1l-0.1-0.1l0.5-1.3L65,78.1z"/>
	<path class="st1" d="M74.5,79.7c0.1,0,0.1-0.1,0.2-0.1s0.1-0.1,0.1-0.2l1.5-3.8c0-0.1,0.1-0.2,0.1-0.3c0-0.1,0-0.1,0-0.2
		c0,0,0-0.1,0-0.1c0,0,0,0-0.1,0v-0.2H78V75c0,0,0,0-0.1,0c0,0,0,0,0,0.1c0,0,0,0.1,0,0.2s0.1,0.1,0.1,0.2l1.7,3.9
		c0,0.1,0.1,0.1,0.1,0.2c0,0,0.1,0.1,0.1,0.1v0.2h-1.5v-0.2c0,0,0.1,0,0.1,0c0,0,0.1-0.1,0.1-0.1c0,0,0-0.1,0-0.1c0,0,0-0.1-0.1-0.2
		l-0.3-0.7h-2.2l-0.3,0.6c0,0.1,0,0.1-0.1,0.2c0,0.1,0,0.1,0,0.1c0,0.1,0,0.1,0.1,0.1c0,0,0.1,0,0.1,0v0.2h-1.4V79.7z M77.9,77.7
		l-0.8-2l-0.7,2H77.9z"/>
	<path class="st1" d="M86.9,74.8V75c-0.2,0-0.2,0.1-0.2,0.2V79h2.8c0.1,0,0.2,0,0.2-0.1c0.1,0,0.1-0.1,0.1-0.2h0.2V80h-0.2
		c0-0.1,0-0.1-0.1-0.1c-0.1,0-0.1,0-0.2,0h-4v-0.2c0.2,0,0.3-0.1,0.3-0.2v-4.3c0-0.1-0.1-0.2-0.3-0.2v-0.2H86.9z"/>
	<path class="st1" d="M103.7,79.7c0.1,0,0.2-0.1,0.2-0.2c0.1-0.1,0.1-0.2,0.1-0.3l1.9-4.5c0-0.1,0.1-0.2,0.1-0.3
		c0-0.1,0.1-0.2,0.1-0.2c0-0.1,0-0.1-0.1-0.2c0,0-0.1-0.1-0.2-0.1v-0.2h1.7V74c0,0-0.1,0-0.1,0.1c0,0-0.1,0.1-0.1,0.2
		c0,0.1,0,0.1,0,0.2c0,0.1,0.1,0.1,0.1,0.2l2.1,4.7c0,0.1,0.1,0.1,0.1,0.2c0.1,0,0.1,0.1,0.2,0.1v0.2h-1.8v-0.2c0,0,0.1,0,0.1,0
		c0,0,0.1-0.1,0.1-0.1c0-0.1,0-0.2-0.1-0.3l-0.4-0.9h-2.5l-0.4,0.8c-0.1,0.2-0.1,0.3-0.1,0.3c0,0.1,0.1,0.1,0.2,0.1v0.2h-1.5V79.7z
		 M107.5,77.5l-0.9-2.2l-1,2.2H107.5z"/>
	<path class="st1" d="M115.4,79.7c0.1,0,0.2,0,0.2,0c0,0,0.1-0.1,0.1-0.1v-4.3c0-0.1,0-0.1-0.1-0.1c0,0-0.1,0-0.2,0v-0.2h1.6V75
		c-0.2,0-0.3,0.1-0.3,0.2v4.3c0,0.1,0.1,0.2,0.3,0.2v0.2h-1.6V79.7z"/>
	<path class="st1" d="M126,74.8c0.6,0,1.1,0.1,1.4,0.3c0.3,0.2,0.5,0.6,0.5,1.2c0,0.2,0,0.4-0.1,0.6c-0.1,0.2-0.2,0.3-0.3,0.4
		c-0.1,0.1-0.2,0.2-0.4,0.3c-0.1,0.1-0.3,0.1-0.4,0.2l1,1.7c0.1,0.1,0.1,0.1,0.2,0.2c0.1,0,0.1,0.1,0.2,0.1v0.2h-1.6v-0.2
		c0.1,0,0.1,0,0.1-0.1c0-0.1-0.1-0.2-0.2-0.4l-0.8-1.4h-1.4v1.7c0,0.1,0,0.1,0.1,0.1c0,0,0.1,0,0.1,0v0.2h-1.4v-0.2
		c0.1,0,0.2-0.1,0.2-0.2v-4.3c0-0.1-0.1-0.2-0.2-0.2v-0.2H126z M126,77c0.7,0,1-0.2,1-0.7c0-0.2-0.1-0.3-0.2-0.5
		c-0.2-0.1-0.4-0.2-0.8-0.2h-1.6V77H126z"/>
	<path class="st1" d="M135.5,74.8V75c-0.2,0-0.2,0.1-0.2,0.2V79h2.8c0.1,0,0.2,0,0.2-0.1c0.1,0,0.1-0.1,0.1-0.2h0.2V80h-0.2
		c0-0.1,0-0.1-0.1-0.1c-0.1,0-0.1,0-0.2,0h-4v-0.2c0.2,0,0.3-0.1,0.3-0.2v-4.3c0-0.1-0.1-0.2-0.3-0.2v-0.2H135.5z"/>
	<path class="st1" d="M144.2,79.7c0.1,0,0.2,0,0.2,0c0,0,0.1-0.1,0.1-0.1v-4.3c0-0.1,0-0.1-0.1-0.1c0,0-0.1,0-0.2,0v-0.2h1.6V75
		c-0.2,0-0.3,0.1-0.3,0.2v4.3c0,0.1,0.1,0.2,0.3,0.2v0.2h-1.6V79.7z"/>
	<path class="st1" d="M152.2,79.7c0.1,0,0.2-0.1,0.2-0.2v-4.3c0-0.1-0.1-0.2-0.2-0.2v-0.2h1.5V75c0,0-0.1,0-0.1,0.1
		c0,0,0.1,0.1,0.2,0.3l2.5,2.9v-3.1c0-0.1-0.1-0.2-0.2-0.2v-0.2h1.3V75c-0.1,0-0.2,0.1-0.2,0.2v4.3c0,0.1,0.1,0.2,0.2,0.2v0.2h-1.3
		v-0.2c0,0,0.1,0,0.1-0.1c0,0,0-0.1-0.1-0.2s-0.1-0.2-0.2-0.3l-2.6-3.1v3.4c0,0.1,0.1,0.2,0.2,0.2v0.2h-1.3V79.7z"/>
	<path class="st1" d="M167.4,75.8c0-0.1-0.1-0.2-0.3-0.2h-2.5v1.2h1.6c0.1,0,0.2,0,0.3,0c0.1,0,0.1-0.1,0.1-0.2h0.2v1.2h-0.2
		c0-0.1,0-0.1-0.1-0.2c-0.1,0-0.2,0-0.3,0h-1.5V79h2.6c0.1,0,0.2,0,0.2-0.1c0.1,0,0.1-0.1,0.1-0.2h0.2V80h-0.2c0-0.1,0-0.1-0.1-0.1
		c-0.1,0-0.1,0-0.2,0h-3.8v-0.2c0,0,0.1,0,0.1,0c0,0,0.1-0.1,0.1-0.1v-4.3c0-0.1,0-0.1-0.1-0.1s-0.1,0-0.1,0v-0.2h3.7
		c0.2,0,0.3-0.1,0.3-0.2h0.2v1.3H167.4z"/>
	<path class="st1" d="M174.7,78.1C174.7,78.1,174.7,78.2,174.7,78.1c0,0.1,0,0.2,0,0.2c0,0.1,0.1,0.2,0.2,0.3
		c0.1,0.1,0.3,0.2,0.5,0.2c0.2,0.1,0.4,0.1,0.5,0.2c0.2,0,0.3,0.1,0.4,0.1c0.1,0,0.2,0,0.4,0c0.1,0,0.3,0,0.4-0.1
		c0.1-0.1,0.3-0.1,0.4-0.2c0.1-0.1,0.1-0.2,0.1-0.4c0-0.2-0.1-0.3-0.3-0.4s-0.4-0.1-0.6-0.2c-0.3,0-0.5-0.1-0.8-0.1
		c-0.3,0-0.6-0.1-0.8-0.2c-0.3-0.1-0.5-0.2-0.6-0.4c-0.2-0.2-0.3-0.4-0.3-0.8c0-0.5,0.2-0.9,0.5-1.2c0.4-0.3,0.9-0.4,1.5-0.4
		c0.3,0,0.6,0,0.8,0.1c0.2,0.1,0.4,0.1,0.6,0.2c0.2,0.1,0.3,0.1,0.4,0.2c0.1,0.1,0.2,0.1,0.2,0.1c0.1,0,0.1,0,0.1,0
		c0,0,0.1,0,0.1-0.1l0.1,0.1l-0.5,1.1l-0.2-0.1c0,0,0-0.1,0-0.1c0,0,0-0.1-0.1-0.1c-0.1-0.1-0.4-0.2-0.6-0.3c-0.3-0.1-0.6-0.1-1-0.1
		c-0.1,0-0.3,0-0.4,0c-0.1,0-0.2,0.1-0.3,0.1c-0.1,0-0.2,0.1-0.2,0.2c-0.1,0.1-0.1,0.2-0.1,0.3c0,0.2,0.1,0.3,0.3,0.4
		c0.2,0.1,0.4,0.1,0.6,0.2c0.3,0,0.5,0.1,0.8,0.1c0.3,0,0.6,0.1,0.8,0.2c0.3,0.1,0.5,0.2,0.6,0.4c0.2,0.2,0.3,0.5,0.3,0.8
		s-0.1,0.6-0.2,0.8c-0.1,0.2-0.3,0.4-0.6,0.5c-0.2,0.1-0.5,0.2-0.7,0.2c-0.3,0-0.5,0.1-0.7,0.1c-0.2,0-0.5,0-0.7-0.1
		c-0.2-0.1-0.4-0.1-0.6-0.2c-0.2-0.1-0.3-0.1-0.5-0.2c-0.1-0.1-0.2-0.1-0.2-0.1c0,0-0.1,0-0.1,0.1l-0.1-0.1l0.5-1.3L174.7,78.1z"/>
	<g>
		<path class="st0" d="M118.7,64.1h-11.1v-7.7H107c-2.7,0-4.7,0.8-6.1,2.3c-2.2,2.4-1.8,5.8-1.8,6l0.1,0.5h20.5v-8.6l-1.1,0.8V64.1z
			 M106.5,64.1h-6.2c0-0.9,0.1-3.1,1.5-4.6c1.1-1.2,2.6-1.8,4.7-1.9V64.1z"/>
		<path class="st0" d="M174,64.1h-4.2v-7.6l-0.5,0c-0.1,0-7.2-0.5-8,5.6l0,2h-6.8v-1.5c0-3.2-2.8-4.3-4.3-4.4l-13,0v-1.7l-1.1,1v6.6
			h-9.8v-5.6l-1.1,1v10.2l-2.9,1h2.9h0.4h0.7v-5.6h48.9V48.6l-1.1,1V64.1z M162.4,62.2c0.3-2.1,1.5-3.5,3.6-4.2
			c1.1-0.4,2.2-0.4,2.8-0.4v6.6h-6.4V62.2z M137.1,59.3h13c0.3,0,3.3,0.4,3.3,3.3v1.5h-16.3V59.3z"/>
		<rect x="177.3" y="46.6" class="st0" width="1.1" height="18.7"/>
		<circle class="st0" cx="103.2" cy="53" r="0.9"/>
		<circle class="st0" cx="106.6" cy="53" r="0.9"/>
		<path class="st0" d="M115.4,67.8c-0.5,0-0.9,0.4-0.9,0.9s0.4,0.9,0.9,0.9s0.9-0.4,0.9-0.9S115.9,67.8,115.4,67.8z"/>
		<path class="st0" d="M118.8,67.8c-0.5,0-0.9,0.4-0.9,0.9s0.4,0.9,0.9,0.9c0.5,0,0.9-0.4,0.9-0.9S119.3,67.8,118.8,67.8z"/>
	</g>
	<path class="st2" d="M80.2,28.5l-9.6,22V32.1l6.4-10.2c0.5,0.9,0.8,1.6,0.8,1.6S78.7,25.5,80.2,28.5z"/>
	<path class="st2" d="M110.8,32.1v18.4c-1.3-5.3-7.9-19.1-10.7-24.7c-0.7-1.5-1.2-2.4-1.2-2.4s-0.7-1.5-1.8-3.4
		c-1.8-3.3-4.7-7.7-6.6-7.7c-3,0-7.3,9.3-7.3,9.3l-0.1,0.3L80,17L90.5,0l9.6,15.3l3,4.8L110.8,32.1z"/>
	<path class="st0" d="M100.2,25.9c-2.7,5.6-9.3,19.4-10.7,24.7c-1.1-4.6-6.2-15.5-9.4-22c-1.5-3-2.5-5.1-2.5-5.1s-0.3-0.6-0.8-1.6
		c-1.6-3.1-5.3-9.6-7.7-9.6c-3,0-7.3,9.3-7.3,9.3l-12.7,29V32.1L69.2,0L80,17l3.1,4.9l6.5,10.2L97.2,20c1.1,1.9,1.8,3.4,1.8,3.4
		S99.4,24.4,100.2,25.9z"/>
	<path class="st0" d="M129.9,32.1v18.4l-12.7-29c0,0-4.3-9.3-7.3-9.3c-1.9,0-4.8,4.4-6.6,7.7l-3-4.8L109.8,0L129.9,32.1z"/>
</g>
</svg>
