<?xml version="1.0" encoding="utf-8"?>
<!-- Generator: Adobe Illustrator 25.4.1, SVG Export Plug-In . SVG Version: 6.00 Build 0)  -->
<svg version="1.1" id="Layer_1" xmlns="http://www.w3.org/2000/svg" xmlns:xlink="http://www.w3.org/1999/xlink" x="0px" y="0px"
	 viewBox="0 0 80.1 80" style="enable-background:new 0 0 80.1 80;" xml:space="preserve">
<style type="text/css">
	.st0{fill:#BA9653;}
</style>
<path class="st0" d="M79.54,39.39c-0.15-0.2-4.3-5.67-12.05-10.68c0.66-2.99,0.96-5.62,1.11-7.8c0.35-5.16-0.15-8.51-0.15-8.66
	l-0.1-0.66l-0.66-0.1c-0.15,0-3.49-0.56-8.66-0.15c-2.13,0.15-4.81,0.46-7.75,1.06c-5.01-7.75-10.48-11.8-10.68-12L40.05,0
	l-0.56,0.41c-0.25,0.2-5.67,4.25-10.73,12.05c-2.99-0.66-5.62-0.96-7.8-1.11c-5.16-0.35-8.51,0.15-8.66,0.15l-0.71,0.1l-0.1,0.66
	c-0.05,0.15-0.51,3.49-0.15,8.66c0.15,2.18,0.46,4.81,1.11,7.8C4.61,33.72,0.56,39.14,0.41,39.39L0,39.95l0.41,0.56
	c0.15,0.25,4.25,5.67,12.05,10.73c-0.61,2.94-0.96,5.62-1.11,7.75c-0.35,5.16,0.1,8.51,0.15,8.66l0.1,0.71l0.71,0.1
	c0.1,0,1.92,0.25,4.86,0.25c1.11,0,2.38-0.05,3.8-0.15c2.18-0.15,4.86-0.46,7.8-1.11c5.06,7.8,10.48,11.9,10.73,12.1L40.05,80
	l0.56-0.46c0.25-0.15,5.67-4.3,10.68-12.05c2.94,0.61,5.57,0.96,7.75,1.11c1.42,0.1,2.68,0.15,3.8,0.15c2.94,0,4.76-0.25,4.86-0.25
	l0.71-0.1l0.1-0.71c0-0.15,0.51-3.49,0.15-8.66c-0.15-2.18-0.46-4.81-1.11-7.75c7.8-5.01,11.95-10.48,12.1-10.68l0.46-0.56
	L79.54,39.39z M63.65,39.95c0.81-1.72,1.52-3.44,2.08-5.11c3.04,2.13,5.06,4.1,5.97,5.06c-0.91,0.96-2.94,2.99-6.03,5.11
	C65.16,43.39,64.46,41.67,63.65,39.95 M59.04,13.16c3.65-0.25,6.38-0.05,7.59,0.05c0.3,2.89,0.96,14.33-4.86,26.33
	c-0.76,1.52-1.57,3.04-2.43,4.41c-0.66,1.01-1.32,2.03-2.03,2.94l-0.2,0.3l0.05,0.41c0.71,4.51,0.35,8.25,0.15,9.67
	c-1.42,0.2-5.11,0.56-9.67-0.15l-0.41-0.05l-0.3,0.25c-0.76,0.56-1.62,1.16-2.48,1.72c-0.81-0.35-1.67-0.71-2.48-1.16
	c1.67-1.01,3.29-2.13,4.81-3.34c4.35,1.06,7.49,0.76,7.65,0.76l0.76-0.05l0.05-0.76c0-0.15,0.3-3.29-0.76-7.59
	c1.62-2.03,3.04-4.2,4.3-6.43c0.81-1.47,1.57-3.04,2.23-4.61c4.3-10.43,3.44-19.04,3.39-19.44l-0.05-0.76l-0.76-0.1
	c-0.35-0.05-8.71-0.86-18.94,3.24c-0.81-0.51-1.67-1.01-2.53-1.47C48.66,14.43,54.84,13.47,59.04,13.16 M59.04,47.75
	c0.3-0.41,0.61-0.81,0.86-1.22c2.73,7.44,2.78,13.87,2.73,16.05c-2.18,0.1-8.56,0-16.05-2.68c0.41-0.25,0.76-0.51,1.11-0.81
	c5.97,0.86,10.38,0,10.58,0l0.61-0.1l0.1-0.61C59.09,58.13,59.9,53.67,59.04,47.75 M27.14,45.92c-1.52-1.87-2.89-3.9-4.1-5.97
	c1.16-2.08,2.53-4.1,4.05-5.97l0.3-0.35l-0.1-0.46c-0.76-2.99-0.86-5.42-0.81-6.63c1.22,0,3.65,0.05,6.63,0.81l0.46,0.1l0.35-0.3
	c1.92-1.52,3.95-2.94,6.08-4.15c2.13,1.22,4.15,2.58,6.03,4.1l0.35,0.3l0.46-0.1c2.99-0.76,5.42-0.86,6.58-0.86
	c0,1.22-0.05,3.65-0.81,6.63l-0.1,0.46l0.3,0.35c1.52,1.87,2.89,3.9,4.1,6.03c-1.22,2.13-2.58,4.15-4.1,6.08l-0.3,0.35l0.1,0.46
	c0.76,2.94,0.86,5.42,0.86,6.63c-1.22,0-3.65-0.05-6.58-0.86l-0.46-0.1l-0.35,0.3c-1.87,1.52-3.9,2.89-5.97,4.05
	c-2.13-1.22-4.15-2.58-6.03-4.1l-0.35-0.3l-0.46,0.1c-2.99,0.76-5.42,0.86-6.63,0.81c-0.05-1.22,0.05-3.65,0.81-6.63l0.1-0.46
	L27.14,45.92z M59.04,21.57l-0.1-0.61l-0.61-0.1c-0.2-0.05-4.61-0.86-10.58,0c-0.35-0.25-0.76-0.56-1.16-0.81
	c7.49-2.73,13.82-2.73,16-2.68c0.1,2.18,0.05,8.56-2.68,16c-0.25-0.41-0.56-0.81-0.86-1.22C59.9,26.18,59.09,21.77,59.04,21.57
	 M39.9,16.2c-1.72-0.81-3.39-1.52-5.06-2.08c2.13-3.04,4.15-5.01,5.11-5.92c0.96,0.91,2.94,2.89,5.06,5.92
	C43.34,14.68,41.67,15.39,39.9,16.2 M39.95,2.33c1.47,1.16,5.47,4.76,9.32,10.48c-0.76,0.2-1.57,0.41-2.38,0.66
	c-3.24-4.71-6.23-7.19-6.33-7.29l-0.61-0.51l-0.61,0.51c-0.15,0.1-3.14,2.58-6.38,7.29c-0.81-0.25-1.62-0.46-2.38-0.66
	C34.48,7.09,38.53,3.54,39.95,2.33 M13.22,13.22c2.89-0.3,14.28-0.96,26.28,4.86c1.57,0.76,3.09,1.57,4.51,2.48
	c1.01,0.61,2.03,1.32,2.89,1.97l0.3,0.25l0.35-0.05c4.51-0.71,8.25-0.35,9.67-0.15c0.2,1.42,0.56,5.11-0.15,9.67l-0.05,0.41
	l0.25,0.3c0.61,0.81,1.16,1.72,1.72,2.58c-0.35,0.86-0.71,1.67-1.16,2.48c-1.01-1.67-2.13-3.34-3.34-4.86
	c1.01-4.35,0.76-7.49,0.76-7.59l-0.05-0.76l-0.81-0.1c-0.15,0-3.24-0.3-7.59,0.76c-2.03-1.57-4.15-3.04-6.38-4.25
	c-1.52-0.81-3.09-1.57-4.71-2.23c-10.43-4.3-19.04-3.44-19.39-3.39l-0.76,0.05l-0.1,0.76c-0.05,0.35-0.86,8.71,3.24,18.94
	c-0.51,0.86-1.01,1.67-1.47,2.53c-2.84-6.58-3.85-12.76-4.1-16.96C12.91,17.22,13.11,14.43,13.22,13.22 M20.76,32.15
	c-0.25,0.35-0.51,0.76-0.76,1.11c-2.73-7.49-2.73-13.87-2.68-16c2.18-0.1,8.51-0.05,16,2.68c-0.41,0.25-0.81,0.56-1.16,0.81
	c-5.97-0.86-10.43,0-10.63,0.05l-0.61,0.1l-0.15,0.61C20.76,21.77,19.9,26.18,20.76,32.15 M14.13,45.01
	c-3.04-2.13-5.06-4.1-5.92-5.06c0.91-0.96,2.89-2.94,5.92-5.06c0.56,1.67,1.27,3.34,2.08,5.06C15.39,41.67,14.68,43.39,14.13,45.01
	 M2.33,39.95c1.16-1.47,4.76-5.47,10.48-9.32c0.2,0.76,0.41,1.57,0.66,2.38c-4.71,3.24-7.19,6.23-7.29,6.33l-0.51,0.61l0.51,0.61
	c0.1,0.15,2.58,3.09,7.34,6.38c-0.25,0.81-0.46,1.62-0.66,2.38C7.14,45.47,3.54,41.42,2.33,39.95 M20.81,66.68
	c-3.65,0.25-6.38,0.1-7.59-0.05c-0.1-1.22-0.3-3.95-0.05-7.59c0.3-4.56,1.42-11.49,4.86-18.68c0.76-1.52,1.57-3.09,2.48-4.51
	c0.61-1.01,1.27-1.97,1.92-2.89l0.25-0.3l-0.05-0.41c-0.71-4.56-0.3-8.25-0.1-9.72c1.42-0.2,5.11-0.56,9.67,0.1l0.35,0.05l0.3-0.2
	c0.81-0.61,1.67-1.16,2.53-1.72c0.86,0.35,1.72,0.76,2.58,1.16c-1.72,1.01-3.39,2.18-4.96,3.39c-4.35-1.01-7.49-0.71-7.65-0.71
	l-0.76,0.1l-0.1,0.76c0,0.15-0.3,3.29,0.71,7.65c-1.57,1.97-2.99,4.1-4.2,6.33c-0.86,1.52-1.62,3.09-2.28,4.71
	c-4.25,10.43-3.49,19.04-3.44,19.39l0.1,0.76l0.76,0.05c0.1,0,0.86,0.1,2.13,0.1c3.19,0,9.57-0.46,16.86-3.34
	c0.81,0.51,1.62,0.96,2.43,1.37C31.24,65.42,25.01,66.38,20.81,66.68 M20,46.58c0.25,0.35,0.51,0.76,0.76,1.11
	c-0.86,5.97,0,10.43,0.05,10.63l0.15,0.61l0.61,0.1c0.2,0.05,4.66,0.91,10.63,0.05c0.41,0.25,0.76,0.56,1.16,0.81
	c-7.49,2.73-13.92,2.78-16.1,2.73C17.22,60.46,17.27,54.08,20,46.58 M39.9,63.65c1.72,0.81,3.44,1.52,5.11,2.08
	c-2.13,3.04-4.1,5.06-5.06,5.97c-0.96-0.91-2.94-2.94-5.11-6.03C36.51,65.16,38.23,64.46,39.9,63.65 M39.95,77.57
	c-1.47-1.22-5.52-4.81-9.32-10.58c0.76-0.2,1.57-0.41,2.38-0.66c3.24,4.76,6.23,7.29,6.38,7.39L40,74.23l0.61-0.51
	c0.15-0.1,3.09-2.63,6.33-7.39c0.81,0.25,1.57,0.46,2.38,0.66C45.47,72.71,41.42,76.35,39.95,77.57 M66.63,66.63
	c-1.27,0.1-3.95,0.3-7.59,0.05c-4.56-0.3-11.54-1.42-18.68-4.91c-1.52-0.71-3.04-1.57-4.46-2.43c-1.01-0.61-1.97-1.32-2.94-1.97
	l-0.3-0.25l-0.41,0.05c-4.56,0.71-8.25,0.3-9.72,0.1c-0.2-1.42-0.61-5.16,0.1-9.72l0.05-0.41l-0.25-0.3
	c-0.56-0.81-1.11-1.62-1.67-2.48c0.35-0.86,0.76-1.72,1.16-2.58c1.01,1.72,2.13,3.34,3.39,4.86c-1.01,4.35-0.71,7.49-0.71,7.65
	l0.1,0.76l0.76,0.1c0.15,0,3.29,0.3,7.65-0.76c2.03,1.57,4.15,3.04,6.38,4.25c1.47,0.81,3.04,1.57,4.61,2.18
	c7.49,3.09,14.03,3.54,17.27,3.54c1.32,0,2.08-0.05,2.18-0.1l0.76-0.1l0.1-0.76c0.05-0.35,0.81-8.76-3.29-18.99
	c0.51-0.81,0.96-1.62,1.42-2.43c2.84,6.53,3.8,12.76,4.1,16.91C66.94,62.68,66.73,65.42,66.63,66.63 M66.99,49.27
	c-0.2-0.76-0.41-1.57-0.66-2.33c4.76-3.24,7.29-6.23,7.39-6.38l0.51-0.61l-0.51-0.61c-0.1-0.15-2.63-3.09-7.39-6.33
	c0.25-0.81,0.46-1.57,0.66-2.38c5.72,3.8,9.37,7.85,10.58,9.32C76.35,41.42,72.76,45.47,66.99,49.27"/>
</svg>
