<?xml version="1.0" encoding="utf-8"?>
<!-- Generator: Adobe Illustrator 25.4.1, SVG Export Plug-In . SVG Version: 6.00 Build 0)  -->
<svg version="1.1" id="Layer_1" xmlns="http://www.w3.org/2000/svg" xmlns:xlink="http://www.w3.org/1999/xlink" x="0px" y="0px"
	 viewBox="0 0 304.85 80" style="enable-background:new 0 0 304.85 80;" xml:space="preserve">
<style type="text/css">
	.st0{fill:#BA9653;}
	.st1{fill:#501C4B;}
</style>
<g>
	<path class="st0" d="M79.54,39.39c-0.15-0.2-4.3-5.67-12.05-10.68c0.66-2.99,0.96-5.62,1.11-7.8c0.35-5.16-0.15-8.51-0.15-8.66
		l-0.1-0.66l-0.66-0.1c-0.15,0-3.49-0.56-8.66-0.15c-2.13,0.15-4.81,0.46-7.75,1.06c-5.01-7.75-10.48-11.8-10.68-12L40.05,0
		l-0.56,0.41c-0.25,0.2-5.67,4.25-10.73,12.05c-2.99-0.66-5.62-0.96-7.8-1.11c-5.16-0.35-8.51,0.15-8.66,0.15l-0.71,0.1l-0.1,0.66
		c-0.05,0.15-0.51,3.49-0.15,8.66c0.15,2.18,0.46,4.81,1.11,7.8C4.61,33.72,0.56,39.14,0.41,39.39L0,39.95l0.41,0.56
		c0.15,0.25,4.25,5.67,12.05,10.73c-0.61,2.94-0.96,5.62-1.11,7.75c-0.35,5.16,0.1,8.51,0.15,8.66l0.1,0.71l0.71,0.1
		c0.1,0,1.92,0.25,4.86,0.25c1.11,0,2.38-0.05,3.8-0.15c2.18-0.15,4.86-0.46,7.8-1.11c5.06,7.8,10.48,11.9,10.73,12.1L40.05,80
		l0.56-0.46c0.25-0.15,5.67-4.3,10.68-12.05c2.94,0.61,5.57,0.96,7.75,1.11c1.42,0.1,2.68,0.15,3.8,0.15c2.94,0,4.76-0.25,4.86-0.25
		l0.71-0.1l0.1-0.71c0-0.15,0.51-3.49,0.15-8.66c-0.15-2.18-0.46-4.81-1.11-7.75c7.8-5.01,11.95-10.48,12.1-10.68l0.46-0.56
		L79.54,39.39z M63.65,39.95c0.81-1.72,1.52-3.44,2.08-5.11c3.04,2.13,5.06,4.1,5.97,5.06c-0.91,0.96-2.94,2.99-6.03,5.11
		C65.16,43.39,64.46,41.67,63.65,39.95 M59.04,13.16c3.65-0.25,6.38-0.05,7.59,0.05c0.3,2.89,0.96,14.33-4.86,26.33
		c-0.76,1.52-1.57,3.04-2.43,4.41c-0.66,1.01-1.32,2.03-2.03,2.94l-0.2,0.3l0.05,0.41c0.71,4.51,0.35,8.25,0.15,9.67
		c-1.42,0.2-5.11,0.56-9.67-0.15l-0.41-0.05l-0.3,0.25c-0.76,0.56-1.62,1.16-2.48,1.72c-0.81-0.35-1.67-0.71-2.48-1.16
		c1.67-1.01,3.29-2.13,4.81-3.34c4.35,1.06,7.49,0.76,7.65,0.76l0.76-0.05l0.05-0.76c0-0.15,0.3-3.29-0.76-7.59
		c1.62-2.03,3.04-4.2,4.3-6.43c0.81-1.47,1.57-3.04,2.23-4.61c4.3-10.43,3.44-19.04,3.39-19.44l-0.05-0.76l-0.76-0.1
		c-0.35-0.05-8.71-0.86-18.94,3.24c-0.81-0.51-1.67-1.01-2.53-1.47C48.66,14.43,54.84,13.47,59.04,13.16 M59.04,47.75
		c0.3-0.41,0.61-0.81,0.86-1.22c2.73,7.44,2.78,13.87,2.73,16.05c-2.18,0.1-8.56,0-16.05-2.68c0.41-0.25,0.76-0.51,1.11-0.81
		c5.97,0.86,10.38,0,10.58,0l0.61-0.1l0.1-0.61C59.09,58.13,59.9,53.67,59.04,47.75 M27.14,45.92c-1.52-1.87-2.89-3.9-4.1-5.97
		c1.16-2.08,2.53-4.1,4.05-5.97l0.3-0.35l-0.1-0.46c-0.76-2.99-0.86-5.42-0.81-6.63c1.22,0,3.65,0.05,6.63,0.81l0.46,0.1l0.35-0.3
		c1.92-1.52,3.95-2.94,6.08-4.15c2.13,1.22,4.15,2.58,6.03,4.1l0.35,0.3l0.46-0.1c2.99-0.76,5.42-0.86,6.58-0.86
		c0,1.22-0.05,3.65-0.81,6.63l-0.1,0.46l0.3,0.35c1.52,1.87,2.89,3.9,4.1,6.03c-1.22,2.13-2.58,4.15-4.1,6.08l-0.3,0.35l0.1,0.46
		c0.76,2.94,0.86,5.42,0.86,6.63c-1.22,0-3.65-0.05-6.58-0.86l-0.46-0.1l-0.35,0.3c-1.87,1.52-3.9,2.89-5.97,4.05
		c-2.13-1.22-4.15-2.58-6.03-4.1l-0.35-0.3l-0.46,0.1c-2.99,0.76-5.42,0.86-6.63,0.81c-0.05-1.22,0.05-3.65,0.81-6.63l0.1-0.46
		L27.14,45.92z M59.04,21.57l-0.1-0.61l-0.61-0.1c-0.2-0.05-4.61-0.86-10.58,0c-0.35-0.25-0.76-0.56-1.16-0.81
		c7.49-2.73,13.82-2.73,16-2.68c0.1,2.18,0.05,8.56-2.68,16c-0.25-0.41-0.56-0.81-0.86-1.22C59.9,26.18,59.09,21.77,59.04,21.57
		 M39.9,16.2c-1.72-0.81-3.39-1.52-5.06-2.08c2.13-3.04,4.15-5.01,5.11-5.92c0.96,0.91,2.94,2.89,5.06,5.92
		C43.34,14.68,41.67,15.39,39.9,16.2 M39.95,2.33c1.47,1.16,5.47,4.76,9.32,10.48c-0.76,0.2-1.57,0.41-2.38,0.66
		c-3.24-4.71-6.23-7.19-6.33-7.29l-0.61-0.51l-0.61,0.51c-0.15,0.1-3.14,2.58-6.38,7.29c-0.81-0.25-1.62-0.46-2.38-0.66
		C34.48,7.09,38.53,3.54,39.95,2.33 M13.22,13.22c2.89-0.3,14.28-0.96,26.28,4.86c1.57,0.76,3.09,1.57,4.51,2.48
		c1.01,0.61,2.03,1.32,2.89,1.97l0.3,0.25l0.35-0.05c4.51-0.71,8.25-0.35,9.67-0.15c0.2,1.42,0.56,5.11-0.15,9.67l-0.05,0.41
		l0.25,0.3c0.61,0.81,1.16,1.72,1.72,2.58c-0.35,0.86-0.71,1.67-1.16,2.48c-1.01-1.67-2.13-3.34-3.34-4.86
		c1.01-4.35,0.76-7.49,0.76-7.59l-0.05-0.76l-0.81-0.1c-0.15,0-3.24-0.3-7.59,0.76c-2.03-1.57-4.15-3.04-6.38-4.25
		c-1.52-0.81-3.09-1.57-4.71-2.23c-10.43-4.3-19.04-3.44-19.39-3.39l-0.76,0.05l-0.1,0.76c-0.05,0.35-0.86,8.71,3.24,18.94
		c-0.51,0.86-1.01,1.67-1.47,2.53c-2.84-6.58-3.85-12.76-4.1-16.96C12.91,17.22,13.11,14.43,13.22,13.22 M20.76,32.15
		c-0.25,0.35-0.51,0.76-0.76,1.11c-2.73-7.49-2.73-13.87-2.68-16c2.18-0.1,8.51-0.05,16,2.68c-0.41,0.25-0.81,0.56-1.16,0.81
		c-5.97-0.86-10.43,0-10.63,0.05l-0.61,0.1l-0.15,0.61C20.76,21.77,19.9,26.18,20.76,32.15 M14.13,45.01
		c-3.04-2.13-5.06-4.1-5.92-5.06c0.91-0.96,2.89-2.94,5.92-5.06c0.56,1.67,1.27,3.34,2.08,5.06C15.39,41.67,14.68,43.39,14.13,45.01
		 M2.33,39.95c1.16-1.47,4.76-5.47,10.48-9.32c0.2,0.76,0.41,1.57,0.66,2.38c-4.71,3.24-7.19,6.23-7.29,6.33l-0.51,0.61l0.51,0.61
		c0.1,0.15,2.58,3.09,7.34,6.38c-0.25,0.81-0.46,1.62-0.66,2.38C7.14,45.47,3.54,41.42,2.33,39.95 M20.81,66.68
		c-3.65,0.25-6.38,0.1-7.59-0.05c-0.1-1.22-0.3-3.95-0.05-7.59c0.3-4.56,1.42-11.49,4.86-18.68c0.76-1.52,1.57-3.09,2.48-4.51
		c0.61-1.01,1.27-1.97,1.92-2.89l0.25-0.3l-0.05-0.41c-0.71-4.56-0.3-8.25-0.1-9.72c1.42-0.2,5.11-0.56,9.67,0.1l0.35,0.05l0.3-0.2
		c0.81-0.61,1.67-1.16,2.53-1.72c0.86,0.35,1.72,0.76,2.58,1.16c-1.72,1.01-3.39,2.18-4.96,3.39c-4.35-1.01-7.49-0.71-7.65-0.71
		l-0.76,0.1l-0.1,0.76c0,0.15-0.3,3.29,0.71,7.65c-1.57,1.97-2.99,4.1-4.2,6.33c-0.86,1.52-1.62,3.09-2.28,4.71
		c-4.25,10.43-3.49,19.04-3.44,19.39l0.1,0.76l0.76,0.05c0.1,0,0.86,0.1,2.13,0.1c3.19,0,9.57-0.46,16.86-3.34
		c0.81,0.51,1.62,0.96,2.43,1.37C31.24,65.42,25.01,66.38,20.81,66.68 M20,46.58c0.25,0.35,0.51,0.76,0.76,1.11
		c-0.86,5.97,0,10.43,0.05,10.63l0.15,0.61l0.61,0.1c0.2,0.05,4.66,0.91,10.63,0.05c0.41,0.25,0.76,0.56,1.16,0.81
		c-7.49,2.73-13.92,2.78-16.1,2.73C17.22,60.46,17.27,54.08,20,46.58 M39.9,63.65c1.72,0.81,3.44,1.52,5.11,2.08
		c-2.13,3.04-4.1,5.06-5.06,5.97c-0.96-0.91-2.94-2.94-5.11-6.03C36.51,65.16,38.23,64.46,39.9,63.65 M39.95,77.57
		c-1.47-1.22-5.52-4.81-9.32-10.58c0.76-0.2,1.57-0.41,2.38-0.66c3.24,4.76,6.23,7.29,6.38,7.39L40,74.23l0.61-0.51
		c0.15-0.1,3.09-2.63,6.33-7.39c0.81,0.25,1.57,0.46,2.38,0.66C45.47,72.71,41.42,76.35,39.95,77.57 M66.63,66.63
		c-1.27,0.1-3.95,0.3-7.59,0.05c-4.56-0.3-11.54-1.42-18.68-4.91c-1.52-0.71-3.04-1.57-4.46-2.43c-1.01-0.61-1.97-1.32-2.94-1.97
		l-0.3-0.25l-0.41,0.05c-4.56,0.71-8.25,0.3-9.72,0.1c-0.2-1.42-0.61-5.16,0.1-9.72l0.05-0.41l-0.25-0.3
		c-0.56-0.81-1.11-1.62-1.67-2.48c0.35-0.86,0.76-1.72,1.16-2.58c1.01,1.72,2.13,3.34,3.39,4.86c-1.01,4.35-0.71,7.49-0.71,7.65
		l0.1,0.76l0.76,0.1c0.15,0,3.29,0.3,7.65-0.76c2.03,1.57,4.15,3.04,6.38,4.25c1.47,0.81,3.04,1.57,4.61,2.18
		c7.49,3.09,14.03,3.54,17.27,3.54c1.32,0,2.08-0.05,2.18-0.1l0.76-0.1l0.1-0.76c0.05-0.35,0.81-8.76-3.29-18.99
		c0.51-0.81,0.96-1.62,1.42-2.43c2.84,6.53,3.8,12.76,4.1,16.91C66.94,62.68,66.73,65.42,66.63,66.63 M66.99,49.27
		c-0.2-0.76-0.41-1.57-0.66-2.33c4.76-3.24,7.29-6.23,7.39-6.38l0.51-0.61l-0.51-0.61c-0.1-0.15-2.63-3.09-7.39-6.33
		c0.25-0.81,0.46-1.57,0.66-2.38c5.72,3.8,9.37,7.85,10.58,9.32C76.35,41.42,72.76,45.47,66.99,49.27"/>
	<path class="st1" d="M102.28,64.86h-4.91v3.85h4.2v1.11h-4.3c0,0,0.1,0.35,0.1,0.66v4.66h-1.22V63.8h6.43L102.28,64.86z"/>
	<path class="st1" d="M106.23,75.24c-1.27,0-1.87-0.66-1.87-2.03V62.89h1.22v10.33c0,0.71,0.2,0.96,0.71,0.96h0.61v1.11h-0.66V75.24
		z"/>
	<path class="st1" d="M111.09,77.32c-0.46,1.16-1.11,1.57-2.53,1.57h-1.11v-1.11h1.11c0.96,0,1.16-0.2,1.47-1.01l0.56-1.47
		l-3.24-8.66h1.27l2.33,6.23c0.1,0.25,0.2,0.71,0.25,1.06c0.1-0.41,0.2-0.81,0.3-1.06l2.33-6.23h1.27L111.09,77.32z"/>
	<path class="st1" d="M123.39,75.34c-1.27,0-2.23-0.46-2.23-2.33v-4.66c0-0.3,0.1-0.46,0.15-0.61h-1.57v-1.06h1.47V63.8l1.22-0.35
		v3.24h3.04l-0.35,1.06h-2.68v5.32c0,1.01,0.46,1.32,1.37,1.32c0.41,0,0.86-0.15,1.37-0.46l0.76,0.81
		C125.27,75.19,124.25,75.34,123.39,75.34"/>
	<path class="st1" d="M133.01,75.14v-5.42c0-1.82-0.76-2.28-1.77-2.28c-0.71,0-1.22,0.2-1.97,0.76l-0.81,0.56v6.38h-1.22V62.89h1.22
		v4.35l-0.1,0.56l0.76-0.56c0.81-0.56,1.47-0.86,2.18-0.86c1.72,0,2.99,0.91,2.99,3.24v5.47h-1.27V75.14z"/>
	<path class="st1" d="M137.27,71.24c0.05,2.08,0.66,3.09,2.63,3.09c1.22,0,1.97-0.41,2.38-1.22l1.06,0.41
		c-0.56,1.16-1.52,1.82-3.44,1.82c-2.68,0-3.9-1.37-3.9-4.46c0-2.84,0.96-4.46,3.95-4.46c3.14,0,3.54,2.08,3.54,4.46v0.35
		L137.27,71.24L137.27,71.24z M139.95,67.44c-1.67,0-2.53,0.66-2.63,2.78h4.91C142.23,68.51,141.82,67.44,139.95,67.44"/>
	<path class="st1" d="M155.04,75.14v-5.42c0-1.82-0.76-2.28-1.77-2.28c-0.71,0-1.16,0.2-1.97,0.76l-0.81,0.56v6.38h-1.22v-8.46h0.96
		l0.25,1.01l0.61-0.41c0.81-0.56,1.47-0.86,2.18-0.86c1.72,0,2.99,0.91,2.99,3.24v5.47L155.04,75.14L155.04,75.14z"/>
	<path class="st1" d="M159.34,71.24c0.05,2.08,0.66,3.09,2.63,3.09c1.22,0,1.97-0.41,2.38-1.22l1.06,0.41
		c-0.56,1.16-1.57,1.82-3.44,1.82c-2.68,0-3.9-1.37-3.9-4.46c0-2.84,0.96-4.46,3.95-4.46c3.14,0,3.59,2.08,3.59,4.46v0.35
		L159.34,71.24L159.34,71.24z M161.97,67.44c-1.62,0-2.53,0.66-2.63,2.78h4.91C164.25,68.51,163.85,67.44,161.97,67.44"/>
	<path class="st1" d="M175.44,75.14h-1.22l-1.72-5.62c-0.15-0.56-0.3-1.57-0.3-1.57s-0.1,1.06-0.25,1.57l-1.77,5.62h-1.22
		l-2.63-8.46h1.22l1.72,5.77c0.15,0.46,0.3,1.57,0.3,1.57s0.15-1.06,0.3-1.57l1.77-5.77h1.16l1.77,5.77
		c0.15,0.51,0.25,1.57,0.25,1.57s0.2-1.11,0.3-1.57l1.77-5.77h1.22L175.44,75.14z"/>
	<path class="st1" d="M188.76,64.15c-0.3-0.05-0.56-0.1-0.76-0.15c-0.25-0.05-0.51-0.1-0.91-0.1c-0.91,0-1.72,0.46-1.72,1.82v0.91
		h2.89L188,67.7h-2.63v7.39h-1.22v-6.68c0-0.25,0.05-0.46,0.15-0.71h-1.47v-1.06h1.32v-0.91c0-1.92,1.22-2.89,2.94-2.89
		c0.81,0,1.16,0.1,1.92,0.2L188.76,64.15z"/>
	<path class="st1" d="M190.28,71.24c0.05,2.08,0.66,3.09,2.63,3.09c1.22,0,1.97-0.41,2.38-1.22l1.06,0.41
		c-0.56,1.16-1.57,1.82-3.44,1.82c-2.68,0-3.95-1.37-3.95-4.46c0-2.84,0.96-4.46,3.95-4.46c3.14,0,3.59,2.08,3.59,4.46v0.35
		L190.28,71.24L190.28,71.24z M192.96,67.44c-1.67,0-2.53,0.66-2.63,2.78h4.91C195.24,68.51,194.84,67.44,192.96,67.44"/>
	<path class="st1" d="M199.34,71.24c0.05,2.08,0.66,3.09,2.63,3.09c1.22,0,1.97-0.41,2.38-1.22l1.06,0.41
		c-0.56,1.16-1.52,1.82-3.44,1.82c-2.73,0-3.95-1.37-3.95-4.46c0-2.84,0.96-4.46,3.95-4.46c3.14,0,3.59,2.08,3.59,4.46v0.35
		L199.34,71.24L199.34,71.24z M201.97,67.44c-1.67,0-2.53,0.66-2.63,2.78h4.96C204.25,68.51,203.85,67.44,201.97,67.44"/>
	<path class="st1" d="M209.27,75.24c-1.22,0-1.87-0.66-1.87-2.03V62.89h1.22v10.33c0,0.71,0.2,0.96,0.71,0.96h0.61v1.11h-0.66V75.24
		z"/>
	<path class="st1" d="M212.56,64.35h-1.27l-0.1-0.15v-1.22l0.1-0.15h1.27l0.1,0.15v1.22L212.56,64.35z M211.29,66.68h1.22v8.46
		h-1.22V66.68z"/>
	<path class="st1" d="M220.51,75.14v-5.42c0-1.82-0.76-2.28-1.77-2.28c-0.71,0-1.22,0.2-1.97,0.76l-0.81,0.56v6.38h-1.22v-8.46h0.96
		l0.25,1.01l0.61-0.41c0.81-0.56,1.47-0.86,2.18-0.86c1.72,0,2.99,0.91,2.99,3.24v5.47L220.51,75.14L220.51,75.14z"/>
	<path class="st1" d="M231.44,67.59h-0.61c-0.15,0-0.46,0-0.76-0.1c0.51,0.56,0.71,1.32,0.71,1.87c0,1.97-1.11,2.89-3.44,2.89
		c-0.41,0-0.61-0.05-0.96-0.1l-0.61-0.1c-0.51,0-0.71,0.3-0.71,0.66c0,0.3,0.2,0.51,0.61,0.56l3.49,0.61
		c1.82,0.3,2.23,1.27,2.23,2.33c0,2.03-1.77,2.63-4.05,2.63c-1.87,0-4.05-0.35-4.05-2.84c0-1.01,0.51-1.72,1.22-2.23
		c-0.3-0.25-0.51-0.56-0.51-1.11c0-0.56,0.3-0.91,0.86-1.22c-0.66-0.61-0.91-1.27-0.91-2.13c0-2.13,1.62-2.94,3.44-2.94
		c0.86,0,1.57,0.1,2.23,0.51l1.32-0.51h0.86L231.44,67.59z M228.91,74.94l-3.59-0.66c-0.56,0.35-0.81,1.01-0.81,1.77
		c0,1.42,0.96,1.87,2.78,1.87c2.08,0,2.78-0.66,2.78-1.67C230.03,75.49,229.72,75.09,228.91,74.94 M227.24,67.39
		c-1.37,0-2.23,0.56-2.23,1.97c0,1.52,0.96,1.87,2.23,1.87c1.37,0,2.23-0.41,2.23-1.87C229.47,68.1,228.71,67.39,227.24,67.39"/>
	<path class="st1" d="M90.23,27.24h4.96c0.61,0,0.81,0.41,0.86,0.51c2.63,4.91,11.59,20.86,11.59,20.86s9.11-16,11.8-20.91
		c0.1-0.15,0.25-0.51,0.81-0.51h2.53c0.41,0,0.61,0.46,0.41,0.76c-3.09,5.42-11.65,20.3-13.47,23.54c-0.2,0.41-0.46,0.61-0.91,0.61
		h-4.71c-0.46,0-0.76-0.3-0.96-0.66c-1.82-3.19-10.33-18.03-13.42-23.39C89.72,27.85,89.52,27.24,90.23,27.24"/>
	<path class="st1" d="M165.11,31.54c-1.32-0.71-5.27-2.78-11.29-2.78c-6.53,0-7.8,2.78-7.8,4.76c0,2.48,2.58,3.19,5.57,3.39
		c1.82,0.15,6.43,0.35,8.91,0.81c5.92,1.06,7.49,4.41,7.49,7.09c0,5.62-6.53,8-14.43,8c-6.68,0-11.49-2.13-13.42-3.19
		c-0.35-0.2-0.35-0.66-0.2-0.96c0.51-0.91,0.35-0.61,0.76-1.37c0.2-0.41,0.56-0.46,0.91-0.25c1.57,1.01,6.58,3.44,12,3.44
		c5.57,0,8.56-2.43,8.56-4.86c0-2.03-0.76-3.29-4.96-3.9c-2.23-0.3-7.19-0.3-9.72-0.91c-2.53-0.56-6.94-1.77-6.94-6.68
		c0-2.73,2.18-7.75,13.57-7.75c6.23,0,10.38,1.67,12.46,2.73c0.35,0.2,0.46,0.51,0.25,0.86c-0.35,0.56-0.46,0.81-0.81,1.37
		C165.77,31.65,165.42,31.7,165.11,31.54"/>
	<path class="st1" d="M133.06,27.24h-4.05c-0.41,0-0.76,0.35-0.76,0.76v23.29c0,0.46,0.35,0.86,0.76,0.86h4.05
		c0.41,0,0.76-0.41,0.76-0.86V28C133.82,27.59,133.47,27.24,133.06,27.24"/>
	<path class="st1" d="M192,50.84c-0.35-1.01-0.2-0.61-0.51-1.52c-0.15-0.51-0.61-0.41-0.81-0.35c-1.62,0.66-3.85,1.22-5.42,1.22
		c-4,0-6.33-1.72-6.33-5.32V30.38h11.24c0.46,0,0.86-0.35,0.86-0.76v-1.16c0-0.46-0.41-0.76-0.86-0.76h-11.24v-6.03
		c0-0.56-0.51-0.76-0.86-0.61c-0.96,0.3-2.78,0.91-3.8,1.22c-0.35,0.1-0.71,0.41-0.71,0.96v20.3c0,5.06,2.94,9.16,10.89,9.16
		c2.78,0,5.42-0.61,7.09-1.11C191.8,51.54,192.2,51.34,192,50.84"/>
	<path class="st1" d="M259.14,50.99c-2.84-2.18-9.22-6.99-9.97-7.59c4.51,0,9.82-2.58,9.82-8.25c0-6.23-6.08-7.95-8.91-7.95H231.7
		c-0.41,0-0.76,0.35-0.76,0.86v23.19c0,0.46,0.35,0.86,0.76,0.86h3.9c0.41,0,0.76-0.41,0.76-0.86v-7.65h6.03
		c0,0,6.89,5.57,9.27,7.54c0.2,0.2,1.06,0.91,1.97,0.91h5.37C259.39,52.15,259.8,51.49,259.14,50.99 M236.41,41.27V29.72h11.49
		c3.65,0,5.27,2.94,5.27,5.52c0,2.89-1.42,6.03-6.08,6.03H236.41z"/>
	<path class="st1" d="M224.46,37.47v-0.2c0-1.57-0.41-5.16-3.44-7.65c-1.06-0.86-4.3-2.89-10.58-2.89c-5.22,0-9.16,1.32-13.01,3.34
		c-0.35,0.15-0.46,0.51-0.3,0.81c0.46,1.01,0.35,0.91,0.66,1.52c0.15,0.35,0.46,0.46,0.86,0.2c1.92-1.11,6.28-3.39,11.19-3.39
		c5.97,0,9.22,2.73,9.22,6.48v2.89c-2.13-0.56-6.08-1.42-10.08-1.42c-10.18,0-13.72,3.7-13.72,7.95c0,6.18,6.13,7.7,11.54,7.7
		c4.66,0,8.86-1.06,12.15-3.54h0.1c0,1.16,0,2.08,0,2.08c0,0.46,0.35,0.86,0.76,0.86h3.85c0.46,0,0.76-0.41,0.76-0.86V37.47H224.46z
		 M207.85,50.28c-5.47,0-6.89-2.78-6.89-5.47c0-4.51,5.42-5.37,8.81-5.37c3.85,0,7.19,0.71,9.27,1.22v6.18
		C216.86,48.3,213.47,50.28,207.85,50.28"/>
	<path class="st1" d="M292.66,37.47v-0.2c0-1.57-0.35-5.16-3.44-7.65c-1.06-0.86-4.25-2.89-10.53-2.89c-5.22,0-9.16,1.32-13.01,3.34
		c-0.35,0.15-0.41,0.51-0.3,0.81c0.46,1.01,0.35,0.91,0.66,1.52c0.15,0.35,0.46,0.46,0.86,0.2c1.92-1.11,6.28-3.39,11.14-3.39
		c5.97,0,9.22,2.73,9.22,6.48v2.89c-2.13-0.56-6.08-1.42-10.03-1.42c-10.23,0-13.77,3.7-13.77,7.95c0,6.18,6.13,7.7,11.59,7.7
		c4.66,0,8.81-1.06,12.15-3.54h0.1c0,1.16,0,2.08,0,2.08c0,0.46,0.35,0.86,0.81,0.86h3.85c0.41,0,0.76-0.41,0.76-0.86V37.47H292.66z
		 M276.05,50.28c-5.47,0-6.89-2.78-6.89-5.47c0-4.51,5.42-5.37,8.81-5.37c3.85,0,7.14,0.71,9.27,1.22v6.18
		C285.01,48.3,281.62,50.28,276.05,50.28"/>
	<path class="st1" d="M235.75,19.95l-0.61-1.72h-2.38l-0.61,1.72h-1.32l2.48-6.84h1.32l2.48,6.84H235.75z M234.08,15.14l-0.1-0.56
		l-0.15,0.56l-0.71,2.03h1.67L234.08,15.14z"/>
	<polygon class="st1" points="242.13,14.18 242.13,19.95 240.86,19.95 240.86,14.18 238.89,14.18 238.89,13.11 244.05,13.11 
		244.05,14.18 	"/>
	<path class="st1" d="M248.76,19.95l-0.61-1.72h-2.38l-0.61,1.72h-1.32l2.48-6.84h1.32l2.48,6.84H248.76z M247.14,15.14l-0.15-0.56
		l-0.15,0.56l-0.71,2.03h1.67L247.14,15.14z"/>
	<polygon class="st1" points="253.16,14.18 253.16,19.95 251.9,19.95 251.9,14.18 249.92,14.18 249.92,13.11 255.14,13.11 
		255.14,14.18 	"/>
	<path class="st1" d="M259.85,19.95l-0.61-1.72h-2.38l-0.61,1.72h-1.32l2.48-6.84h1.32l2.48,6.84H259.85z M258.23,15.14l-0.15-0.56
		l-0.15,0.56l-0.71,2.03h1.67L258.23,15.14z"/>
	<path class="st1" d="M266.43,20.1c-1.42,0-2.08-0.66-2.53-1.37l1.06-0.56c0.3,0.46,0.76,0.81,1.47,0.81c1.06,0,1.37-0.46,1.37-1.06
		c0-0.46-0.2-0.76-0.81-0.86l-1.42-0.25c-0.96-0.15-1.62-0.66-1.62-1.92c0-0.96,0.66-1.97,2.48-1.97c1.42,0,2.03,0.51,2.48,1.22
		l-1.06,0.56c-0.3-0.46-0.71-0.66-1.42-0.66c-0.91,0-1.22,0.35-1.22,0.86c0,0.51,0.15,0.66,0.66,0.71l1.37,0.2
		c1.01,0.15,1.87,0.71,1.87,2.08C269.06,19.19,268.3,20.1,266.43,20.1"/>
	<rect x="270.13" y="13.11" class="st1" width="1.27" height="6.84"/>
	<path class="st1" d="M277.62,19.95l-0.61-1.72h-2.38l-0.61,1.72h-1.32l2.48-6.84h1.32l2.48,6.84H277.62z M275.95,15.14l-0.15-0.56
		l-0.15,0.56l-0.71,2.03h1.67L275.95,15.14z"/>
	<path class="st1" d="M283.24,20.1c-0.51,0-1.11-0.1-1.62-0.56l0.56-0.81c0.35,0.35,0.71,0.35,1.01,0.35c0.56,0,0.76-0.3,0.76-1.11
		v-4.81h1.27v4.81C285.22,19.49,284.46,20.1,283.24,20.1"/>
	<polygon class="st1" points="290.28,19.95 289.01,19.95 286.53,13.11 287.9,13.11 289.52,17.92 289.67,18.48 289.77,17.92 
		291.44,13.11 292.76,13.11 	"/>
	<path class="st1" d="M300.51,26.84c0.56,0,1.06,0.15,1.62,0.41c0.51,0.25,0.91,0.66,1.22,1.22c0.3,0.51,0.46,1.06,0.46,1.62
		s-0.15,1.11-0.41,1.62c-0.3,0.51-0.71,0.91-1.22,1.22c-0.51,0.3-1.06,0.46-1.62,0.46s-1.11-0.15-1.62-0.46
		c-0.51-0.3-0.91-0.71-1.22-1.22c-0.3-0.51-0.46-1.06-0.46-1.62s0.15-1.11,0.46-1.62s0.71-0.91,1.22-1.22
		C299.44,26.99,299.95,26.84,300.51,26.84 M300.51,27.39c-0.46,0-0.91,0.1-1.32,0.35c-0.46,0.25-0.76,0.56-1.01,1.01
		c-0.25,0.46-0.35,0.91-0.35,1.37c0,0.46,0.1,0.91,0.35,1.37c0.25,0.46,0.56,0.76,1.01,1.01c0.41,0.25,0.86,0.35,1.37,0.35
		c0.46,0,0.91-0.1,1.37-0.35c0.41-0.25,0.76-0.56,1.01-1.01c0.25-0.41,0.35-0.86,0.35-1.37c0-0.46-0.1-0.91-0.35-1.37
		c-0.25-0.46-0.61-0.76-1.01-1.01C301.42,27.49,300.96,27.39,300.51,27.39 M299.09,31.9v-3.49h1.22c0.41,0,0.71,0.05,0.91,0.1
		l0.46,0.35l0.15,0.51c0,0.25-0.1,0.46-0.25,0.66c-0.2,0.2-0.41,0.3-0.71,0.3l0.3,0.2c0.15,0.15,0.3,0.35,0.51,0.71l0.41,0.71h-0.76
		l-0.3-0.56c-0.25-0.46-0.46-0.71-0.61-0.81l-0.46-0.1h-0.35V32h-0.51V31.9z M299.65,29.92h0.71c0.3,0,0.56-0.05,0.66-0.15
		l0.15-0.41l-0.1-0.3l-0.25-0.2c-0.1-0.05-0.3-0.05-0.56-0.05h-0.66v1.11H299.65z"/>
</g>
</svg>
