<?xml version="1.0" encoding="utf-8"?>
<!-- Generator: Adobe Illustrator 25.4.1, SVG Export Plug-In . SVG Version: 6.00 Build 0)  -->
<svg version="1.1" id="Layer_1" xmlns="http://www.w3.org/2000/svg" xmlns:xlink="http://www.w3.org/1999/xlink" x="0px" y="0px"
	 viewBox="0 0 110.41 80" style="enable-background:new 0 0 110.41 80;" xml:space="preserve">
<style type="text/css">
	.st0{fill-rule:evenodd;clip-rule:evenodd;fill:#2E914E;}
	.st1{fill-rule:evenodd;clip-rule:evenodd;fill:#D4612B;}
	.st2{fill-rule:evenodd;clip-rule:evenodd;fill:#B81B41;}
</style>
<path class="st0" d="M17.18,67.51c16.75-0.91,34.14-9.12,41.29-24.33c4.49-9.54,10.65-16.05,18.23-18.72
	c-10.23,2.45-15.56,5.47-20.47,10.16c-7.29,6.94-5.54,8.97-15.07,19.28C31.9,63.51,20.4,66.46,17.18,67.51z"/>
<path class="st1" d="M60.92,71.08c9.47-4.98,14.93-8.97,19.7-17.03c4.7-7.99,3.36-17.74,9.53-25.17c-3.79,13.6,2.73,19.98-5.61,31.9
	C76.41,72.35,60.92,71.08,60.92,71.08z"/>
<path class="st2" d="M106.55,3.23c0.42,0,0.7,0.35,0.7,0.7c0,0.42-0.28,0.7-0.7,0.7v5.61c0.14-0.49,0.21-0.98,0.28-1.47
	c0.77-5.33,1.96-7.29,3.58-8.76c-1.4,0.14-2.81,0.98-3.86,2.03V3.23L106.55,3.23z M106.55,4.63c-0.42,0-0.7-0.28-0.7-0.7
	c0-0.35,0.28-0.7,0.7-0.7V2.03c-0.7,0.7-1.26,1.47-1.61,2.17c-1.19,0-2.94,0.98-3.58,2.94c-0.35,1.19-1.19,1.68-1.19,1.68
	s2.1-0.21,2.73-2.1c0.35-1.12,1.19-1.89,1.9-2.1c-1.68,3.23-1.19,8.83-9.96,13.74c-11.29,5.61-23.06,5.75-29.93,18.37
	c-3.09,5.68-5.47,12.62-10.8,18.37C38.77,71.79,17.03,77.74,0,79.99c21.73,0.28,48.93-4.56,67.65-17.95
	c10.8-7.78,12.62-16.12,15.98-26.01c4.14-12.06,19.49-11.64,22.92-25.8L106.55,4.63L106.55,4.63L106.55,4.63z"/>
</svg>
