<?xml version="1.0" encoding="utf-8"?>
<!-- Generator: Adobe Illustrator 25.4.1, SVG Export Plug-In . SVG Version: 6.00 Build 0)  -->
<svg version="1.1" id="Layer_1" xmlns="http://www.w3.org/2000/svg" xmlns:xlink="http://www.w3.org/1999/xlink" x="0px" y="0px"
	 viewBox="0 0 542.41 80" style="enable-background:new 0 0 542.41 80;" xml:space="preserve">
<style type="text/css">
	.st0{fill-rule:evenodd;clip-rule:evenodd;fill:#2E914E;}
	.st1{fill-rule:evenodd;clip-rule:evenodd;fill:#D4612B;}
	.st2{fill-rule:evenodd;clip-rule:evenodd;fill:#B81B41;}
	.st3{fill-rule:evenodd;clip-rule:evenodd;fill:#0085BB;}
	.st4{fill-rule:evenodd;clip-rule:evenodd;fill:#294891;}
</style>
<g>
	<path class="st0" d="M17.18,67.51c16.75-0.91,34.14-9.12,41.29-24.33c4.49-9.54,10.65-16.05,18.23-18.72
		c-10.23,2.45-15.56,5.47-20.47,10.16c-7.29,6.94-5.54,8.97-15.07,19.28C31.9,63.51,20.4,66.46,17.18,67.51z"/>
	<path class="st1" d="M60.92,71.08c9.47-4.98,14.93-8.97,19.7-17.03c4.7-7.99,3.36-17.74,9.53-25.17
		c-3.79,13.6,2.73,19.98-5.61,31.9C76.41,72.35,60.92,71.08,60.92,71.08z"/>
	<path class="st2" d="M106.55,3.23c0.42,0,0.7,0.35,0.7,0.7c0,0.42-0.28,0.7-0.7,0.7v5.61c0.14-0.49,0.21-0.98,0.28-1.47
		c0.77-5.33,1.96-7.29,3.58-8.76c-1.4,0.14-2.81,0.98-3.86,2.03V3.23L106.55,3.23z M106.55,4.63c-0.42,0-0.7-0.28-0.7-0.7
		c0-0.35,0.28-0.7,0.7-0.7V2.03c-0.7,0.7-1.26,1.47-1.61,2.17c-1.19,0-2.94,0.98-3.58,2.94c-0.35,1.19-1.19,1.68-1.19,1.68
		s2.1-0.21,2.73-2.1c0.35-1.12,1.19-1.89,1.9-2.1c-1.68,3.23-1.19,8.83-9.96,13.74c-11.29,5.61-23.06,5.75-29.93,18.37
		c-3.09,5.68-5.47,12.62-10.8,18.37C38.77,71.79,17.03,77.74,0,79.99c21.73,0.28,48.93-4.56,67.65-17.95
		c10.8-7.78,12.62-16.12,15.98-26.01c4.14-12.06,19.49-11.64,22.92-25.8L106.55,4.63L106.55,4.63L106.55,4.63z"/>
	<path class="st3" d="M98.49,55.36c-0.11,5.07,5.65,8.29,12.1,8.41c6.34,0.11,9.1-2.42,10.02-5.88
		c2.99-11.98-26.26-13.02-19.58-27.42c3.69-7.83,15.55-6.57,20.39-4.61c4.95,1.96,4.84,4.83,4.61,7.26
		c-1.27-4.38-7.37-6.68-14.63-5.42c-8.99,1.5-7.83,9.91,3.34,14.97c5.87,2.65,13.48,6.45,12.67,13.71
		c-1.27,11.98-20.97,14.51-27.88,6.8C98.14,61.69,97.45,58.93,98.49,55.36L98.49,55.36z M133.05,35.77h5.76
		c0.92,0.81,0.92,2.42,0.92,3.22c1.5-1.61,2.77-3.11,5.87-3.45c3.11-0.35,4.72,1.5,5.3,2.3c-3.69-1.38-7.49-0.8-10.71,6.8
		c-1.15,2.88-1.96,8.52-2.19,14.51c-0.23,4.49,0.46,6.45,1.5,7.49h-5.87c-0.23,0-1.61-5.07-0.46-12.56
		c1.04-7.37,1.04-8.41,1.15-11.63C134.31,38.42,134.43,37.62,133.05,35.77L133.05,35.77z"/>
	<path class="st4" d="M213.46,35.77h5.76c0.92,0.81,1.04,3.34,1.04,5.88c1.61-2.99,5.87-7.03,13.36-6.68
		c7.49,0.23,10.6,6.34,9.79,11.29c-0.81,5.07-1.96,17.97,0.69,20.39h-5.07c-1.5-1.5-1.5-4.72-1.38-10.03
		c0.23-5.41,2.65-12.55,0.12-15.55c-3.69-4.15-14.86-3.22-17.51,4.61c-1.73,5.3-1.61,7.49-1.84,13.48c-0.23,4.49,0.46,6.45,1.5,7.49
		h-5.87c-0.23,0-1.61-5.07-0.46-12.56C214.15,49.94,216.22,39.57,213.46,35.77L213.46,35.77z M307.8,35.77h5.76
		c0.92,0.81,1.04,3.34,1.04,5.88c1.61-2.99,5.87-7.03,13.36-6.68c7.38,0.23,10.6,6.34,9.79,11.29c-0.81,5.07-2.08,17.97,0.69,20.39
		h-5.18c-1.38-1.5-1.38-4.72-1.27-10.03c0.12-5.41,2.65-12.55,0-15.55c-3.68-4.15-14.74-3.22-17.39,4.61
		c-1.85,5.3-1.61,7.49-1.85,13.48c-0.23,4.49,0.47,6.45,1.5,7.49h-5.99c-0.12,0-1.5-5.07-0.47-12.56
		C308.49,49.94,310.45,39.57,307.8,35.77L307.8,35.77z"/>
	<path class="st3" d="M153.44,35.77c1.84,2.53,1.5,5.41,1.5,5.41s-1.61,11.87-1.84,16.59c-0.23,4.49-0.11,7.03,0.92,8.87h5.65
		c-1.5-1.73-1.27-5.87-1.15-9.22c0.34-5.18,0.92-10.14,1.5-14.86C160.58,37.27,156.32,36.23,153.44,35.77L153.44,35.77z
		 M156.32,24.94c1.84,0,3.46,1.5,3.46,3.34c0,1.96-1.61,3.46-3.46,3.46s-3.34-1.5-3.34-3.46C152.98,26.44,154.47,24.94,156.32,24.94
		z"/>
	<path class="st4" d="M184.66,40.72c0,0,2.77-5.3,11.63-5.76c8.87-0.46,10.83,2.08,12.21,4.61c1.5,2.53-0.92,10.94-1.15,16.24
		c-0.11,5.18-0.11,8.99,1.27,10.83h-5.64c-0.58-2.07-0.81-4.72-0.81-7.61c0-2.99,0.46-9.1,0.81-11.63
		c-0.81,1.04-3.92,2.42-7.72,3.57c-3.92,1.15-11.75,4.38-9.45,10.02c1.27,3.11,4.72,3.69,7.95,2.88c2.65-0.57,4.95-1.96,6.22-3.22
		c-0.23,0.46-0.69,1.04-1.04,1.5c-1.73,1.84-4.49,3.57-8.64,4.49c-5.3,1.04-8.98-0.46-13.59-0.69c-4.72-0.23-10.02,0.69-10.02,0.69
		s-1.27-2.3-0.92-8.07s1.5-12.9,1.5-19.24c0.23-5.88,0.35-11.52-1.15-14.4h5.64c0.34,1.38,1.27,5.99,0.92,15.21
		c-0.34,9.1-1.96,15.09-1.38,22c11.29-0.57,11.17,2.88,15.9,3.11c-1.27-0.46-2.42-1.04-3.34-2.19c-2.65-2.99-3.34-7.49,0.11-10.71
		c3.57-3.34,19.01-4.26,19.35-9.33C203.89,36,192.03,35.89,184.66,40.72z M279,40.72c0,0,2.77-5.3,11.75-5.76
		c8.87-0.46,10.71,2.08,12.21,4.61c1.38,2.53-1.04,10.94-1.15,16.24c-0.23,5.18-0.11,8.99,1.15,10.83h-5.53
		c-0.57-2.07-0.81-4.72-0.81-7.61c0-2.99,0.46-9.1,0.81-11.63c-0.92,1.04-3.91,2.54-7.83,3.68c-3.8,1.15-11.63,3.8-9.33,9.91
		c2.31,6.11,11.75,2.07,14.06-0.23c-2.88,5.3-12.56,9.21-17.4,3.68c-2.53-2.99-2.88-8.18,1.84-12.1c4.61-3.92,18.55-4.26,19.01-9.33
		C298.36,36,286.49,35.89,279,40.72L279,40.72z"/>
	<path class="st4" d="M276.35,35.08c-8.52,2.54-11.06,7.49-16.7,13.36c5.18,4.95,7.72,14.97,14.97,18.2h-6.22
		c-7.49-4.72-9.22-14.29-14.17-18.09c-0.46,4.37-0.92,9.33-0.92,11.41c0,3.22,0.23,5.53,1.27,6.68h-5.76
		c-1.03-1.73-1.03-4.72-0.81-8.53c0.34-5.99,1.16-13.36,1.27-16.59c0.11-4.95,0.34-14.98-1.04-16.59H254
		c1.04,5.99,0.81,13.94,0.7,17.28c0,1.15-0.23,3.22-0.46,5.64C260.34,43.14,262.76,35.54,276.35,35.08L276.35,35.08z"/>
	<g>
		<path class="st3" d="M520.57,58.55c0,3.59,4.18,5.98,9.24,6.27c4.79,0,6.87-1.79,7.46-4.48c2.4-8.65-20-9.56-14.92-20
			c2.98-5.98,11.94-5.08,15.53-3.58c3.87,1.49,3.87,3.58,3.57,5.37c-0.89-3.28-5.67-5.37-11.05-3.88
			c-6.87,1.79-4.48,7.16,3.28,10.44c4.19,1.79,9.26,5.09,8.66,10.46c-0.9,8.95-15.53,10.75-20.9,5.07
			C520.57,63.03,519.67,61.24,520.57,58.55L520.57,58.55z M411.29,36.46h5.67c0.89,0.89,0.89,2.39,0.89,3.29
			c1.5-1.79,2.69-3.29,5.67-3.58c2.99-0.3,4.78,1.49,5.08,2.38c-3.58-1.5-7.17-0.89-10.45,6.57c-1.2,2.7-1.79,8.37-2.09,14.34
			c-0.3,4.48,0.6,6.28,1.49,7.17h-5.97c0,0-1.49-4.78-0.3-12.24c1.19-7.16,0.89-8.36,1.19-11.35
			C412.48,39.14,412.48,38.25,411.29,36.46L411.29,36.46z M457.26,36.46h5.68c0.6,0.89,0.89,3.29,0.89,5.67
			c1.49-2.99,5.67-6.87,13.14-6.56c7.17,0.29,10.45,6.27,9.54,11.04c-0.59,5.09-2.08,17.61,0.6,20.01h-5.08
			c-1.19-1.5-1.19-4.48-1.19-9.85c0.3-5.07,2.69-12.24,0-15.23c-3.58-3.88-14.33-2.99-17.02,4.48c-1.79,5.37-1.5,7.46-1.79,13.44
			c-0.3,4.48,0.3,6.28,1.5,7.17h-5.98c0,0-1.49-4.78-0.3-12.24C457.86,50.2,459.65,40.04,457.26,36.46L457.26,36.46z M398.74,36.46
			c1.79,2.39,1.49,5.38,1.49,5.38s-1.49,11.64-1.79,16.12c-0.3,4.48-0.3,6.86,0.9,8.66h5.67c-1.49-1.5-1.49-5.68-1.19-8.96
			c0.3-5.08,0.89-9.85,1.49-14.63C405.91,37.95,401.73,36.76,398.74,36.46z M444.43,36.46c1.79,2.39,1.49,5.38,1.49,5.38
			s-1.49,11.64-1.79,16.12c-0.3,4.48-0.3,6.86,0.89,8.66h5.38c-1.49-1.5-1.2-5.68-0.89-8.96c0.3-5.08,0.89-9.85,1.2-14.63
			C451.29,37.95,447.11,36.76,444.43,36.46z M401.73,25.71c1.79,0,3.28,1.49,3.28,3.28c0,1.79-1.49,3.28-3.28,3.28
			c-1.81-0.02-3.27-1.48-3.29-3.28C398.45,27.2,399.94,25.71,401.73,25.71z M447.11,25.71c2.09,0,3.58,1.49,3.58,3.28
			c0,1.79-1.49,3.28-3.58,3.28c-1.81-0.02-3.27-1.48-3.28-3.28C443.84,27.19,445.31,25.73,447.11,25.71z M437.26,25.71
			c1.2,5.97,0.9,13.73,0.9,17.01c-0.3,3.29-1.49,14.33-1.49,17.32c0,3.28,0.29,5.38,1.19,6.57h-5.67c-0.9-1.5-0.9-4.48-0.6-8.37
			c0.3-5.67,0.9-13.14,1.2-16.12c0-4.78,0.3-14.93-1.2-16.42L437.26,25.71L437.26,25.71z M359.93,66.62h5.97
			c-0.3-1.2,0.9-8.96,4.48-13.44c3.88-4.49,9.25-3.29,11.65-2.4c-0.89-2.09-4.48-4.18-9.56-2.98c1.79-5.97,4.48-7.76,4.78-17.92
			c3.88,6.87,7.17,31.95,12.54,36.73h5.97c-7.46-7.46-8.36-30.16-15.23-40.9h-5.97C375.46,37.05,360.82,54.07,359.93,66.62z
			 M515.79,61.24c-1.5,1.49-3.28,5.96-11.05,6.27v-2.99C508.92,65.12,512.5,63.63,515.79,61.24L515.79,61.24z M504.74,35.86
			c1.19-0.29,2.09-0.29,2.69-0.29c4.18,0,11.34,2.98,9.25,9.54c-1.2,4.49-6.57,5.09-11.94,7.76v-2.39c1.38-0.52,2.69-1.22,3.89-2.09
			c3.58-2.39,4.77-5.38,3.28-7.46c-1.79-2.39-4.48-2.69-7.17-1.79L504.74,35.86L504.74,35.86L504.74,35.86z M504.74,67.51h-0.9
			c-6.57-0.3-11.34-6.27-11.64-14.03v-2.39c0-1.49,0.3-2.99,0.6-4.48c2.4-8.36,7.76-10.44,11.95-10.75v3.28
			c-1.79,0.9-3.88,2.39-5.38,4.79c-2.09,3.28-2.69,7.76-1.79,11.64c0.9-2.09,4.18-3.59,7.17-5.09v2.39c-2.09,1.2-4.18,2.7-5.97,4.78
			c-0.9,1.2,0.89,5.38,4.48,6.28c0.6,0.29,0.9,0.29,1.5,0.6L504.74,67.51L504.74,67.51L504.74,67.51z"/>
	</g>
</g>
</svg>
