<?xml version="1.0" encoding="utf-8"?>
<!-- Generator: Adobe Illustrator 25.4.1, SVG Export Plug-In . SVG Version: 6.00 Build 0)  -->
<svg version="1.1" id="Layer_1" xmlns="http://www.w3.org/2000/svg" xmlns:xlink="http://www.w3.org/1999/xlink" x="0px" y="0px"
	 viewBox="0 0 252.4 80" style="enable-background:new 0 0 252.4 80;" xml:space="preserve">
<style type="text/css">
	.st0{fill-rule:evenodd;clip-rule:evenodd;}
	.st1{fill-rule:evenodd;clip-rule:evenodd;fill:#FFFF00;}
	.st2{fill:url(#rect204_00000091709776184809337930000004503527208694915976_);}
	.st3{fill:url(#rect219_00000067226710343029394580000010208005116146495933_);}
	.st4{fill:url(#rect234_00000022527711128908295550000014757622257960508819_);}
	.st5{fill:url(#rect249_00000033354589045334519730000014757569522459189653_);}
</style>
<g>
	<path id="path185" class="st0" d="M82.9,54.1L21.5,21.9c-9.8-5.2-16.7-4.7-21.1,2C-1.1,13.2,1.7,6.2,8,2.6C15.4-1.6,23,0,30.6,2.6
		l33.3,11.2c25.8,8.8,51.5,17.6,77.3,26.4c-0.1,4.5,2.6,9.2,6.5,13.9L82.9,54.1L82.9,54.1z M132.4,80L88.7,57.1h61.7
		c1.5,1.7,3.2,3.3,4.9,5L173.7,80C159.9,80,146.1,80,132.4,80z"/>
	<path id="path187" class="st1" d="M3.7,11.5c0.2-0.5,0.4-1.1,0.7-1.6c0.9-1.7,2-2.9,3.5-4.1c1.7-1.2,3.6-2.1,5.6-2.6
		c0.6-0.1,1.2-0.3,1.8-0.4c2.8-0.3,5.5-0.1,8.3,0.5c1.9,0.4,3.7,0.9,5.5,1.5c15.4,5.1,30.7,10.3,46.1,15.5
		c21.2,7.2,42.4,14.5,63.5,21.7c0.4,3.4,2,6.6,3.8,9.4H83.6L21.7,19.1c-1.8-0.9-3.6-1.6-5.5-2.3c-0.9-0.3-1.7-0.5-2.6-0.7
		c-1.7-0.3-3.2-0.4-5-0.3c-2.2,0.3-4.2,0.8-6,2.1C2.7,15.7,3,13.6,3.7,11.5 M149.9,60.5c1,1.1,2.1,2.1,3.1,3.2l14.2,13.8H133
		L99.3,59.7h49.9C149.4,60,149.7,60.2,149.9,60.5z"/>
	<path id="path189" class="st0" d="M238.9,3.5H82.4c-15.4,0-23.1,8.8-21,23c0.6-10.8,9.2-19,19.8-19h131.4L238.9,3.5z"/>
	
		<linearGradient id="rect204_00000125587230020953468840000010039131273046474156_" gradientUnits="userSpaceOnUse" x1="-203.115" y1="-759.0991" x2="-202.3043" y2="-759.0991" gradientTransform="matrix(227.408 0 0 -10.9659 46256.0508 -8312.1719)">
		<stop  offset="0" style="stop-color:#00FF00"/>
		<stop  offset="1" style="stop-color:#FFFFFF"/>
	</linearGradient>
	<path id="rect204" style="fill:url(#rect204_00000125587230020953468840000010039131273046474156_);" d="M81,7.5
		c-7.1,0.1-13.3,3.7-16.7,9.1h139.9l48.2-9.1v0H81z"/>
	
		<linearGradient id="rect219_00000150813648856496495330000015514013638261510295_" gradientUnits="userSpaceOnUse" x1="-203.0957" y1="-758.935" x2="-202.2851" y2="-758.935" gradientTransform="matrix(210.8904 0 0 -10.9698 42894.2695 -8304.2861)">
		<stop  offset="0" style="stop-color:#FFFF00"/>
		<stop  offset="1" style="stop-color:#FFFFFF"/>
	</linearGradient>
	<path id="rect219" style="fill:url(#rect219_00000150813648856496495330000015514013638261510295_);" d="M64.3,16.5
		c-1.7,2.7-2.6,5.8-2.6,9.1h126.2l48.2-9.1H64.3z"/>
	
		<linearGradient id="rect234_00000164508122700086144520000012473223365828687767_" gradientUnits="userSpaceOnUse" x1="-203.0635" y1="-758.7625" x2="-202.2694" y2="-758.7625" gradientTransform="matrix(191.2168 0 0 -10.9698 38893.957 -8293.3232)">
		<stop  offset="0" style="stop-color:#FF0000"/>
		<stop  offset="1" style="stop-color:#FFFFFF"/>
	</linearGradient>
	<path id="rect234" style="fill:url(#rect234_00000164508122700086144520000012473223365828687767_);" d="M61.7,25.6
		c0,3.3,0.9,6.4,2.6,9.1h107.3l48.2-9.1H61.7z"/>
	
		<linearGradient id="rect249_00000142858614420569772610000016683869913520900543_" gradientUnits="userSpaceOnUse" x1="-203.0155" y1="-758.5815" x2="-202.2545" y2="-758.5815" gradientTransform="matrix(168.3891 0 0 -10.9719 34255.4062 -8283.8945)">
		<stop  offset="0" style="stop-color:#000000"/>
		<stop  offset="1" style="stop-color:#FFFFFF"/>
	</linearGradient>
	<path id="rect249" style="fill:url(#rect249_00000142858614420569772610000016683869913520900543_);" d="M64.3,34.7L64.3,34.7
		c3.3,5.4,9.5,9,16.6,9.1h74.4l48.2-9.1H64.3z"/>
	<path id="path251" class="st0" d="M13.5,5.9c1.3,0,2.3,1,2.3,2.3c0,1.3-1,2.3-2.3,2.3c-1.3,0-2.3-1-2.3-2.3
		C11.2,7,12.2,5.9,13.5,5.9"/>
	<path id="path253" class="st0" d="M115.6,64.2l19.5,7.8v-9.5l18.5,8.9l-1.4-7.4l2.2,2.3l1.2,7.9l-19.2-9.3v9.3l-17.4-7L115.6,64.2z
		 M126.2,60.8c-1.6,0-2.9,0.9-2.9,2c0,1.1,1.3,2,2.9,2c1.6,0,2.9-0.9,2.9-2C129.1,61.7,127.8,60.8,126.2,60.8z M145.7,60.8
		c-1.6,0-2.9,0.9-2.9,2c0,1.1,1.3,2,2.9,2c1.6,0,2.9-0.9,2.9-2C148.7,61.7,147.3,60.8,145.7,60.8z"/>
</g>
</svg>
