<?xml version="1.0" encoding="utf-8"?>
<!-- Generator: Adobe Illustrator 25.4.1, SVG Export Plug-In . SVG Version: 6.00 Build 0)  -->
<svg version="1.1" id="Layer_1" xmlns="http://www.w3.org/2000/svg" xmlns:xlink="http://www.w3.org/1999/xlink" x="0px" y="0px"
	 viewBox="0 0 336.5 80" style="enable-background:new 0 0 336.5 80;" xml:space="preserve">
<style type="text/css">
	.st0{fill-rule:evenodd;clip-rule:evenodd;}
	.st1{fill-rule:evenodd;clip-rule:evenodd;fill:#FFFF00;}
	.st2{fill:url(#rect204_00000084492032939938058920000002502921350248229274_);}
	.st3{fill:url(#rect219_00000066512801452885400050000002266155030766030270_);}
	.st4{fill:url(#rect234_00000122702507946035612530000009227648063040574103_);}
	.st5{fill:url(#rect249_00000039134504816566689100000017654703792276177539_);}
</style>
<g>
	<polygon id="polygon163" class="st0" points="38.1,79.3 53.2,54.6 65.7,54.6 50.6,79.3 	"/>
	<polygon id="polygon165" class="st0" points="0,79.3 4.9,70.6 21.1,62.8 11.1,62.8 16.2,54.6 50.5,54.6 45.3,62.8 28.6,70.6 
		40.6,70.6 34.5,79.3 	"/>
	<path id="path167" class="st0" d="M142.6,61.7c-2.4,0-7.1,2.3-9.4,4.4c-1.5,1.7-4.1,5.9,1.1,7.1c4.1,0.8,9.5-1.6,11.8-5.3
		C147,66.1,148.2,61.7,142.6,61.7 M134.7,45.5l-20.6,33.8h11c1.3-2.9,5.3-0.7,7.3,0c8.6,2.1,18.3-3.1,24.6-8.7
		c6.1-7.9,2.5-15.5-4.8-16c-2.9,0.1-6.1,0.5-9.6,1.9c-1.6,0.5-2.3,0.1-1.1-1.9l5.6-9.1L134.7,45.5L134.7,45.5z"/>
	<path id="path169" class="st0" d="M184.9,61.4c2.7,0,5.5,2.8,0.7,7.5c-4.8,4.9-8.8,4.1-10.3,3.7c-1.6-0.4-3.6-4.7,0-7.6
		C178.8,61.8,182.2,61.4,184.9,61.4 M194.5,54.6c-0.5,0.8-0.8,1.2-1.3,2.3c-3.7-2.7-9.5-4.1-15.2-2c-9.2,2.4-17.1,9.4-18.7,16.6
		c-0.9,4.7,3.6,7.2,8.5,7.9c3.5,0,9.6-0.7,13.6-2.5c-0.3,0.8-1.1,1.7-1.6,2.5c3.6,0,8.4,0,12.2,0c5.3-8.3,9.5-16.4,14.7-24.7
		C202.4,54.6,198.8,54.6,194.5,54.6z"/>
	<path id="path171" class="st0" d="M192.7,24.3c2.7,0,5.6,2.7,0.7,7.6c-5.1,4.8-8.8,3.9-10.3,3.5c-1.6-0.4-3.3-4.7,0-7.6
		C186.6,24.7,190,24.3,192.7,24.3 M202.3,17.3c-0.5,0.9-0.7,1.3-1.3,2.3c-3.7-2.5-9.4-4-15.2-2c-9.2,2.7-17,9.4-18.8,16.7
		c-0.8,4.7,3.7,7.1,8.7,7.7c3.5,0,9.8-0.7,13.8-2.4c-0.3,0.8-1.2,1.7-1.7,2.4c3.7,0,8,0,11.6,0l15.2-24.7
		C210.3,17.3,206.6,17.3,202.3,17.3z"/>
	<polygon id="polygon173" class="st0" points="202.3,42 217.4,17.2 230.2,17.2 214.8,42 	"/>
	<path id="path175" class="st0" d="M233.3,17.2L217.4,42h12.2l9.6-15.2c4.1-4,10-3.1,14.2-2.3l4.7-7.3c-4.8-0.7-9.5,0-14.4,2l1.3-2
		H233.3z"/>
	<path id="path177" class="st0" d="M223,61.7c-2.5,0-7.2,2.3-9.5,4.4c-1.5,1.7-4.1,5.9,0.9,7.1c4.1,0.8,9.8-1.6,11.9-5.3
		C227.3,66.1,228.3,61.7,223,61.7 M215.2,45.5l-20.7,33.8h10.7c1.3-2.9,5.5-0.7,7.5,0c2.8,0.7,2.5,0.7,3.6,0.7
		c8.3-0.8,15-4,20.8-9.4c6.1-7.9,2.7-15.5-4.5-16c-3.2,0.1-6.1,0.5-9.6,1.9c-1.7,0.5-2.5,0.1-1.2-1.9l5.6-9.1L215.2,45.5L215.2,45.5
		z"/>
	<polygon id="polygon179" class="st0" points="293.7,54.6 306.5,54.6 279,79.3 268.1,79.3 267.1,70.6 255.6,79.3 242.9,79.3 
		242.9,54.6 257.5,54.6 257.5,66.8 270.8,54.6 280.8,54.6 280.8,66.8 	"/>
	<path id="path181" class="st0" d="M314.4,62.9h10.4c-0.1-2-1.2-3.6-3.5-3.6C318.7,59.3,315.7,60.9,314.4,62.9 M322,53.9
		c-10.3,0-17.5,4.8-22,10.7c-2.1,2.8-2.8,7.8-0.5,10.6c2.4,3.3,9.1,4.1,11.8,4.1c9.1,0,18.2-4.1,20.4-7.9c-4.4,0-9.2,0-12.3,0
		c-8.2,4.7-10.4,0-9.1-2.5c8.3,0,16.8,0,24.2,0C341.6,56.3,328.5,53.9,322,53.9z"/>
	<path id="path183" class="st0" d="M110.6,79.3c-4.3,0-8,0-12.2,0c2.5-4.4,5.2-8.6,7.7-13.1c0.3-1.1,0.7-2-0.4-3.5
		c-3.5-2.5-5.9,0.1-8.5,2.4c-3.1,4.7-6.3,9.4-9.4,14.2c-4,0-7.9,0-12,0c2.7-4.3,5.2-8.6,7.6-12.8c0.7-1.7,0.5-2.7-0.5-3.7
		c-2.5-1.1-6.3-0.3-8.5,2.5l-9.1,14H53l15.2-24.7c3.5,0,6.8,0,10,0c0.4,2,1.7,2,3.3,1.6c3.6-1.6,4.9-2.5,8.2-2.5
		c7.5,0,8.3,2.7,10.6,4.7c2.9-1.9,7.3-4.7,11.5-4.7c5.2,0,11.8,2.8,8.4,9.1C116.8,68.9,114.1,73.2,110.6,79.3"/>
	<path id="path185" class="st0" d="M105.1,28.4L72.8,11.5c-5.2-2.7-8.8-2.5-11.1,1.1c-0.8-5.7,0.7-9.3,4-11.2
		c3.9-2.2,7.8-1.4,11.9,0l17.5,5.9c13.5,4.6,27.1,9.3,40.6,13.9c0,2.4,1.4,4.8,3.4,7.3L105.1,28.4L105.1,28.4z M131.1,42l-23-12
		h32.4c0.8,0.9,1.7,1.8,2.6,2.6l9.7,9.4C145.6,42,138.4,42,131.1,42z"/>
	<path id="path187" class="st1" d="M63.5,6c0.1-0.3,0.2-0.6,0.4-0.8c0.5-0.9,1-1.5,1.8-2.2c0.9-0.7,1.9-1.1,3-1.4
		c0.3-0.1,0.6-0.1,1-0.2c1.5-0.2,2.9,0,4.4,0.3c1,0.2,1.9,0.5,2.9,0.8c8.1,2.7,16.2,5.4,24.2,8.2c11.1,3.8,22.3,7.6,33.4,11.4
		c0.2,1.8,1,3.5,2,4.9h-31L73,10c-0.9-0.5-1.9-0.9-2.9-1.2c-0.5-0.1-0.9-0.3-1.4-0.4c-0.9-0.2-1.7-0.2-2.6-0.2
		c-1.1,0.1-2.2,0.4-3.2,1.1C63,8.2,63.1,7.1,63.5,6 M140.3,31.8c0.5,0.6,1.1,1.1,1.7,1.7l7.5,7.2h-18l-17.7-9.3H140
		C140.1,31.5,140.2,31.7,140.3,31.8z"/>
	<path id="path189" class="st0" d="M187.1,1.8h-82.3c-8.1,0-12.1,4.6-11,12.1c0.3-5.7,4.8-10,10.4-10h69.1L187.1,1.8z"/>
	
		<linearGradient id="rect204_00000062906007580792045260000005462131376384983181_" gradientUnits="userSpaceOnUse" x1="-202.9822" y1="-758.5796" x2="-202.5561" y2="-758.5796" gradientTransform="matrix(227.408 0 0 -10.9659 46256.0508 -8312.1719)">
		<stop  offset="0" style="stop-color:#00FF00"/>
		<stop  offset="1" style="stop-color:#FFFFFF"/>
	</linearGradient>
	<path id="rect204" style="fill:url(#rect204_00000062906007580792045260000005462131376384983181_);" d="M104.1,3.9
		c-3.7,0-7,1.9-8.8,4.8h73.5l25.4-4.8v0H104.1z"/>
	
		<linearGradient id="rect219_00000175294311775413732590000015593978895798787252_" gradientUnits="userSpaceOnUse" x1="-202.9464" y1="-758.0234" x2="-202.5203" y2="-758.0234" gradientTransform="matrix(210.8904 0 0 -10.9698 42894.2695 -8304.2861)">
		<stop  offset="0" style="stop-color:#FFFF00"/>
		<stop  offset="1" style="stop-color:#FFFFFF"/>
	</linearGradient>
	<path id="rect219" style="fill:url(#rect219_00000175294311775413732590000015593978895798787252_);" d="M95.4,8.7
		c-0.9,1.4-1.4,3-1.4,4.8h66.3l25.3-4.8H95.4z"/>
	
		<linearGradient id="rect234_00000017483461097753331500000012574467011303567529_" gradientUnits="userSpaceOnUse" x1="-202.9024" y1="-757.4586" x2="-202.485" y2="-757.4586" gradientTransform="matrix(191.2168 0 0 -10.9698 38893.957 -8293.3232)">
		<stop  offset="0" style="stop-color:#FF0000"/>
		<stop  offset="1" style="stop-color:#FFFFFF"/>
	</linearGradient>
	<path id="rect234" style="fill:url(#rect234_00000017483461097753331500000012574467011303567529_);" d="M94,13.5
		c0,1.7,0.5,3.4,1.4,4.8h56.4l25.4-4.8H94z"/>
	
		<linearGradient id="rect249_00000160898723423395930350000007345681876396107449_" gradientUnits="userSpaceOnUse" x1="-202.8466" y1="-756.8857" x2="-202.4466" y2="-756.8857" gradientTransform="matrix(168.3891 0 0 -10.9719 34255.4062 -8283.8945)">
		<stop  offset="0" style="stop-color:#000000"/>
		<stop  offset="1" style="stop-color:#FFFFFF"/>
	</linearGradient>
	<path id="rect249" style="fill:url(#rect249_00000160898723423395930350000007345681876396107449_);" d="M95.4,18.2L95.4,18.2
		c1.8,2.8,5,4.7,8.7,4.8h39.1l25.4-4.8H95.4z"/>
	<path id="path251" class="st0" d="M68.6,3.1c0.7,0,1.2,0.5,1.2,1.2c0,0.7-0.5,1.2-1.2,1.2S67.4,5,67.4,4.3
		C67.4,3.7,68,3.1,68.6,3.1"/>
	<path id="path253" class="st0" d="M122.3,33.8l10.3,4.1v-5l9.7,4.7l-0.7-3.9l1.1,1.2l0.7,4.2l-10.1-4.9V39l-9.1-3.7L122.3,33.8z
		 M127.9,32c-0.9,0-1.5,0.5-1.5,1.1c0,0.6,0.7,1.1,1.5,1.1s1.5-0.5,1.5-1.1C129.4,32.5,128.7,32,127.9,32z M138.1,32
		c-0.9,0-1.5,0.5-1.5,1.1c0,0.6,0.7,1.1,1.5,1.1c0.9,0,1.5-0.5,1.5-1.1C139.7,32.5,139,32,138.1,32z"/>
</g>
</svg>
