<?xml version="1.0" encoding="utf-8"?>
<!-- Generator: Adobe Illustrator 25.4.1, SVG Export Plug-In . SVG Version: 6.00 Build 0)  -->
<svg version="1.1" id="Layer_1" xmlns="http://www.w3.org/2000/svg" xmlns:xlink="http://www.w3.org/1999/xlink" x="0px" y="0px"
	 viewBox="0 0 98.19 80" style="enable-background:new 0 0 98.19 80;" xml:space="preserve">
<style type="text/css">
	.st0{fill:#6F2C91;}
</style>
<g id="g20536" transform="translate(520.434,36.7243)">
	<path id="path20538" class="st0" d="M-475.22,42.11c0,0.85-0.47,1.16-1.09,1.16h-5.83c-2.48,0-3.11-0.62-3.11-3.42V25.56
		c0-3.73-0.62-4.35-3.57-4.35h-17.79c-3.11,0-3.65,0.54-3.65,4.27v14.45c0,2.72-0.78,3.34-3.26,3.34h-5.9
		c-0.78,0-1.01-0.54-1.01-1.4V-8c0-0.85,0.55-1.24,1.01-1.24h5.83c2.56,0,3.34,0.55,3.34,3.5V8.08c0,3.96,0.7,4.19,3.65,4.19h17.87
		c2.8,0,3.5-0.62,3.5-3.96v-41.62c0-2.72,0.62-3.42,3.11-3.42h5.83c0.93,0,1.09,0.62,1.09,1.4V42.11z"/>
</g>
<g id="g20540" transform="translate(529.8228,53.9555)">
	<path id="path20542" class="st0" d="M-466.83-7.75c0,2.72,0.16,2.95,2.49,2.95h6.14c4.35,0,5.9-0.93,7.69-4.43l6.06-11.81
		c1.94-3.73,3.73-5.44,8.23-5.44h3.49c0.55,0,1.55,0.31,0.86,1.71l-10.1,19.73c-1.09,2.18-1.71,3.57-1.71,4.74
		c0,1.24,0.62,3.03,1.87,5.59l9.87,19.19c0.47,1.01-0.31,1.55-1.09,1.55h-3.65c-4.58,0-6.37-1.4-8.55-5.67l-5.9-11.73
		c-1.86-3.81-3.42-4.74-7.3-4.74h-6.06c-2.1,0-2.33,0.39-2.33,3.11v16.31c0,1.94-0.78,2.72-2.8,2.72h-6.45
		c-0.78,0-0.93-0.39-0.93-1.4v-67.59c0-0.78,0.31-1.16,1.01-1.16h6.68c1.79,0,2.49,0.93,2.49,2.64V-7.75z"/>
</g>
</svg>
