<?xml version="1.0" encoding="utf-8"?>
<!-- Generator: Adobe Illustrator 25.4.1, SVG Export Plug-In . SVG Version: 6.00 Build 0)  -->
<svg version="1.1" id="Layer_1" xmlns="http://www.w3.org/2000/svg" xmlns:xlink="http://www.w3.org/1999/xlink" x="0px" y="0px"
	 viewBox="0 0 323.64 80" style="enable-background:new 0 0 323.64 80;" xml:space="preserve">
<style type="text/css">
	.st0{clip-path:url(#SVGID_00000147206672553951816050000007425199012604824233_);}
	.st1{fill:#6F2C91;}
	.st2{fill:#ED1D24;}
</style>
<g id="g20492" transform="matrix(1.25,0,0,-1.25,-628.63613,188.17393)">
	<g id="g20528" transform="matrix(1.8721771,0,0,1.8721771,-426.73187,3.7361392)">
		<g>
			<defs>
				<polygon id="SVGID_1_" points="496.56,44.23 634.85,44.23 634.85,78.41 496.56,78.41 496.56,44.23 				"/>
			</defs>
			<clipPath id="SVGID_00000118394182646976154350000004258666746059683211_">
				<use xlink:href="#SVGID_1_"  style="overflow:visible;"/>
			</clipPath>
			<g id="g20530" style="clip-path:url(#SVGID_00000118394182646976154350000004258666746059683211_);">
				<g id="g20536" transform="translate(520.434,36.7243)">
					<path id="path20538" class="st1" d="M-4.56,8c0-0.36-0.2-0.5-0.46-0.5h-2.49c-1.06,0-1.33,0.27-1.33,1.46v6.11
						c0,1.59-0.27,1.86-1.53,1.86h-7.6c-1.33,0-1.56-0.23-1.56-1.83V8.93c0-1.16-0.33-1.43-1.39-1.43h-2.52
						c-0.33,0-0.43,0.23-0.43,0.6v21.31c0,0.36,0.23,0.53,0.43,0.53h2.49c1.1,0,1.43-0.23,1.43-1.49v-5.91
						c0-1.69,0.3-1.79,1.56-1.79h7.63c1.2,0,1.49,0.27,1.49,1.69v17.79c0,1.16,0.27,1.46,1.33,1.46h2.49c0.4,0,0.46-0.27,0.46-0.6V8
						z"/>
				</g>
				<g id="g20540" transform="translate(529.8228,53.9555)">
					<path id="path20542" class="st1" d="M-6.35,4.71c0-1.16,0.07-1.26,1.06-1.26h2.62c1.86,0,2.52,0.4,3.29,1.89l2.59,5.05
						c0.83,1.59,1.59,2.32,3.52,2.32h1.49c0.23,0,0.66-0.13,0.37-0.73L4.27,3.55C3.81,2.62,3.54,2.02,3.54,1.53
						c0-0.53,0.27-1.3,0.8-2.39l4.22-8.2c0.2-0.43-0.13-0.66-0.46-0.66H6.53c-1.96,0-2.72,0.6-3.65,2.42L0.35-2.29
						c-0.8,1.63-1.46,2.02-3.12,2.02h-2.59c-0.9,0-1-0.17-1-1.33v-6.97c0-0.83-0.33-1.16-1.2-1.16h-2.76c-0.33,0-0.4,0.17-0.4,0.6
						v28.88c0,0.33,0.13,0.5,0.43,0.5h2.85c0.76,0,1.06-0.4,1.06-1.13V4.71z"/>
				</g>
				<g id="g20544" transform="translate(555.3522,60.0357)">
					<path id="path20546" class="st2" d="M-11.22,3.55c-0.59-0.46-0.78-1.42-0.78-1.86c0-0.29,0.12-0.37,0.71-0.37h3.76
						c0.59,0,1-0.05,1.1,0.07c0.1,0.1,0.17,0.24,0.17,0.39c0,0.76-0.22,1.59-0.68,1.93C-7.31,4.02-7.9,4.19-9,4.19
						S-10.76,3.94-11.22,3.55 M-13.4,5.41c0.88,0.73,2.32,1.2,4.59,1.2c2.2,0,3.45-0.39,4.25-1.05c0.81-0.71,1.47-2.17,1.47-5.79
						c0-0.44-0.05-0.71-0.46-0.71h-7.7c-0.66,0-0.78-0.1-0.78-0.42c0-0.81,0.22-1.39,0.73-1.83c0.49-0.49,1.61-0.76,3.3-0.76
						c1.64,0,3.22,0.25,4.06,0.37c0.2,0.05,0.39-0.12,0.39-0.34c-0.02-0.66-0.56-1.69-1.17-2.05C-5.19-6.27-6.7-6.56-8.85-6.56
						c-2.32,0-3.96,0.46-4.84,1.25c-1,0.9-1.64,2.34-1.64,5.18C-15.33,2.87-14.47,4.55-13.4,5.41"/>
				</g>
				<g id="g20548" transform="translate(576.7582,57.4388)">
					<path id="path20550" class="st2" d="M-15.31,4.05c0.88,0,1.15,0.17,1.49,0.93l1.25,2.64c0.44,0.95,0.86,1.37,2.1,1.37h1.17
						c0.24,0,0.46-0.15,0.32-0.42l-2.05-4.35c-0.37-0.76-0.49-1.05-0.49-1.51c0-0.39,0.22-1,0.59-1.83l1.93-4.18
						C-8.86-3.6-9.06-3.77-9.3-3.77h-1.22c-1.42,0-1.78,0.39-2.17,1.34l-1.25,2.88c-0.34,0.81-0.54,1.03-1.42,1.03h-0.76
						c-0.76,0-1.08-0.15-1.37-0.78l-1.44-3.18c-0.39-0.93-0.88-1.3-2.1-1.3h-1.25c-0.27,0-0.42,0.2-0.27,0.46l2.17,4.59
						c0.34,0.76,0.49,1.17,0.49,1.59c0,0.44-0.17,0.93-0.49,1.64l-1.88,4.06c-0.15,0.27,0,0.42,0.32,0.42h1.25
						c1.39,0,1.71-0.34,2.15-1.32l1.08-2.56c0.37-0.9,0.59-1.05,1.39-1.05H-15.31z"/>
				</g>
				<g id="g20552" transform="translate(598.4046,60.0058)">
					<path id="path20554" class="st2" d="M-19.44,3.56c-0.49,0.37-1.15,0.54-2.52,0.54c-1.1,0-1.88-0.07-2.3-0.15
						c-0.37-0.05-0.49-0.2-0.49-0.78v-6.16c0-0.51,0.12-0.68,0.54-0.73c0.59-0.1,1.2-0.15,2-0.15c1.49,0,2.25,0.24,2.66,0.71
						c0.54,0.49,0.95,1.66,0.95,3.37C-18.59,2.24-19.03,3.22-19.44,3.56 M-22.25,6.64c3.1,0,4.45-0.27,5.3-1.05
						c0.86-0.76,1.49-2.44,1.49-5.18c0-3.2-0.86-4.79-1.78-5.62c-0.86-0.76-2.32-1.22-4.64-1.22c-0.88,0-1.64,0.02-2.37,0.05
						c-0.29,0.02-0.49,0-0.49-0.46v-4.27c0-0.54-0.15-0.68-0.59-0.68h-2.13c-0.27,0-0.39,0.07-0.39,0.37V5.58
						c0,0.49,0.15,0.66,0.56,0.71C-26.11,6.49-23.91,6.64-22.25,6.64"/>
				</g>
				<g id="g20556" transform="translate(607.4308,62.7834)">
					<path id="path20558" class="st2" d="M-21.17,3.03c0,0.29,0.12,0.42,0.39,0.44c1.32,0.22,3.1,0.34,4.47,0.34
						c1.49,0,2.64-0.07,3.15-0.34c0.51-0.27,0.83-1.1,0.83-2.15c0-0.19-0.15-0.34-0.34-0.34c-0.56,0.05-1.56,0.12-2.27,0.12
						c-0.73,0-1.64-0.03-2.34-0.1c-0.64-0.1-0.73-0.17-0.73-1v-8.72c0-0.27-0.12-0.39-0.44-0.39h-2.37c-0.24,0-0.34,0.1-0.34,0.39
						V3.03z"/>
				</g>
				<g id="g20560" transform="translate(625.2133,60.0357)">
					<path id="path20562" class="st2" d="M-24.56,3.55c-0.59-0.46-0.78-1.42-0.78-1.86c0-0.29,0.12-0.37,0.71-0.37h3.76
						c0.59,0,1-0.05,1.1,0.07c0.1,0.1,0.17,0.24,0.17,0.39c0,0.76-0.22,1.59-0.68,1.93c-0.37,0.29-0.95,0.46-2.05,0.46
						C-23.44,4.19-24.1,3.94-24.56,3.55 M-26.73,5.41c0.88,0.73,2.32,1.2,4.59,1.2c2.2,0,3.44-0.39,4.25-1.05
						c0.81-0.71,1.47-2.17,1.47-5.79c0-0.44-0.05-0.71-0.46-0.71h-7.7c-0.66,0-0.78-0.1-0.78-0.42c0-0.81,0.22-1.39,0.73-1.83
						c0.49-0.49,1.61-0.76,3.3-0.76c1.64,0,3.22,0.25,4.06,0.37c0.2,0.05,0.39-0.12,0.39-0.34c-0.02-0.66-0.56-1.69-1.17-2.05
						c-0.46-0.29-1.98-0.59-4.13-0.59c-2.32,0-3.96,0.46-4.84,1.25c-1,0.9-1.64,2.34-1.64,5.18C-28.66,2.87-27.81,4.55-26.73,5.41"
						/>
				</g>
				<g id="g20564" transform="translate(649.9703,63.267)">
					<path id="path20566" class="st2" d="M-29.29,2.93c0.54-0.37,0.85-1.34,0.88-2c0-0.25-0.24-0.39-0.41-0.37
						c-0.9,0.1-2.22,0.27-3.54,0.27c-1.37,0-2.3-0.12-2.61-0.34c-0.27-0.19-0.49-0.66-0.49-1.08c0-0.32,0.07-0.56,0.24-0.68
						c0.51-0.37,5.47-1.22,6.3-1.78c0.44-0.29,0.81-0.93,0.81-2.17c0-1.86-0.54-2.98-1.22-3.57c-0.71-0.56-2.05-1.03-4.59-1.03
						c-2.2,0-3.25,0.22-3.74,0.54c-0.49,0.39-0.93,1.47-0.93,1.98c0,0.29,0.2,0.44,0.42,0.42c1.07-0.15,2.47-0.34,3.98-0.34
						c1.25,0,2.1,0.12,2.44,0.34c0.32,0.24,0.42,0.56,0.42,1.03c0,0.37-0.1,0.51-0.27,0.61c-0.68,0.56-5.52,1.39-6.33,1.93
						c-0.42,0.25-0.66,1.2-0.66,1.86c0,2.1,0.56,3.22,1.32,3.86c0.76,0.61,2.17,0.95,4.5,0.95C-30.97,3.35-29.75,3.23-29.29,2.93"/>
				</g>
				<g id="g20568" transform="translate(666.0316,63.267)">
					<path id="path20570" class="st2" d="M-32.35,2.93c0.54-0.37,0.85-1.34,0.88-2c0-0.25-0.25-0.39-0.42-0.37
						c-0.9,0.1-2.22,0.27-3.54,0.27c-1.37,0-2.3-0.12-2.61-0.34c-0.27-0.19-0.49-0.66-0.49-1.08c0-0.32,0.07-0.56,0.24-0.68
						c0.51-0.37,5.47-1.22,6.3-1.78c0.44-0.29,0.81-0.93,0.81-2.17c0-1.86-0.54-2.98-1.22-3.57c-0.71-0.56-2.05-1.03-4.59-1.03
						c-2.2,0-3.25,0.22-3.74,0.54c-0.49,0.39-0.93,1.47-0.93,1.98c0,0.29,0.2,0.44,0.42,0.42c1.08-0.15,2.47-0.34,3.98-0.34
						c1.25,0,2.1,0.12,2.44,0.34c0.32,0.24,0.42,0.56,0.42,1.03c0,0.37-0.1,0.51-0.27,0.61c-0.68,0.56-5.52,1.39-6.33,1.93
						c-0.42,0.25-0.66,1.2-0.66,1.86c0,2.1,0.56,3.22,1.32,3.86c0.76,0.61,2.17,0.95,4.5,0.95C-34.04,3.35-32.82,3.23-32.35,2.93"/>
				</g>
			</g>
		</g>
	</g>
</g>
</svg>
