<?xml version="1.0" encoding="utf-8"?>
<!-- Generator: Adobe Illustrator 25.4.1, SVG Export Plug-In . SVG Version: 6.00 Build 0)  -->
<svg version="1.1" id="Layer_1" xmlns="http://www.w3.org/2000/svg" xmlns:xlink="http://www.w3.org/1999/xlink" x="0px" y="0px"
	 viewBox="0 0 568.38 80" style="enable-background:new 0 0 568.38 80;" xml:space="preserve">
<style type="text/css">
	.st0{fill:#4686BE;}
	.st1{fill:#F19A1B;}
</style>
<g>
	<path class="st0" d="M50.2,49.12c0,8.9-2.09,16.15-6.26,21.77c-4.18,5.61-9.37,8.42-15.6,8.42c-2.69,0-5.03-0.33-7.06-0.97
		c-2.02-0.65-3.94-1.61-5.77-2.89l-0.63,2.82H0V0h15.51v27.49c2.36-2.21,4.78-4.01,7.24-5.39c2.46-1.37,5.3-2.06,8.53-2.06
		c6.06,0,10.73,2.58,14,7.74C48.56,32.94,50.2,40.05,50.2,49.12z M34.16,49.51c0-5.03-0.72-8.9-2.15-11.63
		c-1.44-2.71-4-4.07-7.7-4.07c-1.43,0-2.91,0.26-4.44,0.79c-1.52,0.52-2.97,1.24-4.36,2.24V65.2c1.1,0.48,2.15,0.79,3.13,0.96
		c0.99,0.17,2.17,0.24,3.55,0.24c4.02,0,7.03-1.41,9.01-4.22C33.17,59.35,34.16,55.14,34.16,49.51z"/>
	<path class="st0" d="M90.3,72.28c-0.82,0.74-1.84,1.63-3.06,2.67c-1.21,1.03-2.36,1.86-3.43,2.46c-1.51,0.81-3.06,1.41-4.67,1.81
		c-1.62,0.4-3.38,0.61-5.31,0.61c-4.52,0-8.31-1.66-11.37-4.99c-3.06-3.32-4.58-7.59-4.58-12.74c0-4.14,0.77-7.51,2.34-10.13
		c1.54-2.62,3.75-4.68,6.62-6.2c2.82-1.51,6.33-2.58,10.52-3.23c4.19-0.62,8.53-1.1,13.03-1.42v-0.3c0-3.22-1.08-5.47-3.23-6.72
		c-2.14-1.25-5.3-1.86-9.48-1.86c-2.53,0-5.2,0.53-8.06,1.59c-2.86,1.05-4.89,1.86-6.14,2.44h-1.42V22.82
		c1.63-0.49,4.27-1.08,7.94-1.76c3.67-0.68,7.34-1.01,11.01-1.01c8.76,0,15.08,1.59,18.97,4.76c3.88,3.18,5.83,8.16,5.83,14.95
		v38.51H90.3V72.28z M90.3,63.59V51.76c-2.08,0.21-4.3,0.49-6.72,0.85c-2.4,0.35-4.23,0.77-5.47,1.24c-1.53,0.58-2.7,1.4-3.5,2.49
		c-0.8,1.11-1.2,2.54-1.2,4.33c0,1.18,0.08,2.14,0.24,2.89c0.17,0.74,0.6,1.43,1.29,2.11c0.64,0.67,1.42,1.18,2.33,1.49
		c0.91,0.33,2.32,0.48,4.24,0.48c1.53,0,3.08-0.38,4.65-1.12C87.73,65.78,89.11,64.8,90.3,63.59z"/>
	<path class="st0" d="M168.28,78.26h-15.52V50.14c0-2.28-0.1-4.57-0.29-6.84c-0.2-2.28-0.55-3.95-1.02-5.03
		c-0.57-1.23-1.41-2.15-2.49-2.72c-1.09-0.57-2.62-0.85-4.57-0.85c-1.38,0-2.8,0.26-4.23,0.81c-1.42,0.52-2.97,1.38-4.65,2.57v40.18
		H120V0h15.51v27.86c2.73-2.52,5.35-4.45,7.87-5.8c2.52-1.34,5.31-2.01,8.39-2.01c5.17,0,9.22,1.78,12.13,5.35
		c2.92,3.55,4.38,8.88,4.38,15.98V78.26z"/>
	<path class="st0" d="M211.46,72.28c-0.83,0.74-1.84,1.63-3.06,2.67c-1.21,1.03-2.36,1.86-3.44,2.46c-1.5,0.81-3.05,1.41-4.66,1.81
		c-1.61,0.4-3.37,0.61-5.3,0.61c-4.52,0-8.32-1.66-11.37-4.99c-3.06-3.32-4.59-7.59-4.59-12.74c0-4.14,0.78-7.51,2.33-10.13
		c1.56-2.62,3.77-4.68,6.63-6.2c2.83-1.51,6.33-2.58,10.52-3.23c4.19-0.62,8.52-1.1,13.03-1.42v-0.3c0-3.22-1.08-5.47-3.22-6.72
		c-2.14-1.25-5.32-1.86-9.48-1.86c-2.52,0-5.21,0.53-8.06,1.59c-2.85,1.05-4.91,1.86-6.15,2.44h-1.39V22.82
		c1.61-0.49,4.27-1.08,7.93-1.76c3.66-0.68,7.33-1.01,11.01-1.01c8.75,0,15.07,1.59,18.97,4.76c3.89,3.18,5.83,8.16,5.83,14.95
		v38.51h-15.51V72.28z M211.46,63.59V51.76c-2.07,0.21-4.31,0.49-6.72,0.85c-2.41,0.35-4.23,0.77-5.48,1.24
		c-1.53,0.58-2.7,1.4-3.5,2.49c-0.81,1.11-1.2,2.54-1.2,4.33c0,1.18,0.09,2.14,0.26,2.89c0.17,0.74,0.59,1.43,1.28,2.11
		c0.64,0.67,1.42,1.18,2.33,1.49c0.91,0.33,2.32,0.48,4.25,0.48c1.53,0,3.07-0.38,4.65-1.12C208.9,65.78,210.27,64.8,211.46,63.59z"
		/>
	<path class="st0" d="M288.21,38.08v40.18H272.7V49.92c0-2.74-0.06-5.09-0.17-7.03c-0.13-1.93-0.42-3.5-0.93-4.72
		c-0.52-1.2-1.3-2.1-2.34-2.66c-1.03-0.54-2.49-0.82-4.37-0.82c-1.51,0-2.96,0.36-4.39,1.08c-1.42,0.74-2.7,1.5-3.84,2.31v40.18
		h-15.51V21.8h15.51v6.07c2.66-2.46,5.19-4.37,7.6-5.74c2.43-1.38,5.11-2.08,8.04-2.08c3.15,0,5.95,0.83,8.38,2.5
		c2.42,1.67,4.31,4.12,5.67,7.33c3.08-3.06,6.08-5.45,8.99-7.21c2.9-1.76,5.76-2.62,8.55-2.62c5.19,0,9.13,1.83,11.82,5.51
		c2.69,3.65,4.04,8.94,4.04,15.83v36.88h-15.52V49.92c0-2.78-0.05-5.14-0.15-7.06c-0.09-1.92-0.41-3.48-0.91-4.7
		c-0.5-1.2-1.26-2.1-2.31-2.66c-1.06-0.54-2.53-0.82-4.43-0.82c-1.28,0-2.53,0.25-3.76,0.78C291.46,36,289.98,36.85,288.21,38.08z"
		/>
	<path class="st0" d="M362.95,72.28c-0.82,0.74-1.83,1.63-3.06,2.67c-1.21,1.03-2.35,1.86-3.43,2.46c-1.5,0.81-3.06,1.41-4.67,1.81
		c-1.6,0.4-3.37,0.61-5.29,0.61c-4.52,0-8.31-1.66-11.38-4.99c-3.06-3.32-4.58-7.59-4.58-12.74c0-4.14,0.77-7.51,2.34-10.13
		c1.55-2.62,3.75-4.68,6.61-6.2c2.83-1.51,6.33-2.58,10.52-3.23c4.18-0.62,8.53-1.1,13.03-1.42v-0.3c0-3.22-1.08-5.47-3.22-6.72
		c-2.15-1.25-5.31-1.86-9.49-1.86c-2.52,0-5.22,0.53-8.06,1.59c-2.86,1.05-4.9,1.86-6.15,2.44h-1.4V22.82
		c1.62-0.49,4.27-1.08,7.93-1.76c3.66-0.68,7.34-1.01,11.01-1.01c8.75,0,15.07,1.59,18.96,4.76c3.89,3.18,5.83,8.16,5.83,14.95
		v38.51h-15.51V72.28z M362.95,63.59V51.76c-2.07,0.21-4.31,0.49-6.71,0.85c-2.41,0.35-4.23,0.77-5.48,1.24
		c-1.54,0.58-2.7,1.4-3.51,2.49c-0.79,1.11-1.2,2.54-1.2,4.33c0,1.18,0.09,2.14,0.26,2.89c0.16,0.74,0.59,1.43,1.27,2.11
		c0.64,0.67,1.43,1.18,2.34,1.49c0.9,0.33,2.32,0.48,4.25,0.48c1.52,0,3.07-0.38,4.64-1.12C360.38,65.78,361.76,64.8,362.95,63.59z"
		/>
	<path class="st0" d="M434.48,60.43c0,5.86-2.24,10.6-6.7,14.18c-4.48,3.6-10.59,5.38-18.35,5.38c-4.29,0-8.19-0.46-11.67-1.41
		c-3.5-0.93-6.31-1.97-8.43-3.11V60.65h1.41c0.76,0.62,1.64,1.31,2.66,2.02c1.01,0.75,2.44,1.54,4.29,2.39
		c1.59,0.74,3.39,1.4,5.41,1.93c2.01,0.55,4.17,0.81,6.48,0.81c3,0,5.25-0.39,6.68-1.18c1.45-0.79,2.19-1.93,2.19-3.48
		c0-1.37-0.43-2.38-1.29-3c-0.86-0.62-2.48-1.23-4.86-1.8c-1.15-0.3-2.7-0.63-4.63-0.98c-1.95-0.36-3.73-0.79-5.32-1.28
		c-4.34-1.36-7.58-3.45-9.68-6.31c-2.11-2.84-3.17-6.41-3.17-10.63c0-5.48,2.19-10.03,6.6-13.65c4.39-3.62,10.39-5.43,18.01-5.43
		c3.6,0,7.05,0.42,10.36,1.27c3.3,0.86,5.88,1.77,7.74,2.75v14.26h-1.32c-2.27-1.79-4.86-3.26-7.77-4.39
		c-2.9-1.14-5.84-1.71-8.82-1.71c-2.45,0-4.53,0.41-6.23,1.2c-1.68,0.81-2.52,1.94-2.52,3.4c0,1.35,0.37,2.37,1.13,3.08
		c0.77,0.72,2.58,1.43,5.44,2.13c1.55,0.37,3.25,0.74,5.05,1.09c1.82,0.36,3.63,0.8,5.44,1.35c4.04,1.25,7.02,3.2,8.96,5.89
		C433.51,53.06,434.48,56.41,434.48,60.43z"/>
	<path class="st1" d="M473.65,72.28c-0.83,0.74-1.83,1.63-3.05,2.67c-1.22,1.03-2.36,1.86-3.43,2.46c-1.5,0.81-3.07,1.41-4.68,1.81
		c-1.6,0.4-3.38,0.61-5.29,0.61c-4.53,0-8.33-1.66-11.38-4.99c-3.06-3.32-4.59-7.59-4.59-12.74c0-4.14,0.79-7.51,2.34-10.13
		c1.56-2.62,3.76-4.68,6.62-6.2c2.82-1.51,6.34-2.58,10.53-3.23c4.18-0.62,8.52-1.1,13.01-1.42v-0.3c0-3.22-1.07-5.47-3.21-6.72
		c-2.15-1.25-5.32-1.86-9.5-1.86c-2.52,0-5.2,0.53-8.06,1.59c-2.86,1.05-4.9,1.86-6.14,2.44h-1.4V22.82
		c1.61-0.49,4.26-1.08,7.92-1.76c3.67-0.68,7.33-1.01,11.01-1.01c8.76,0,15.07,1.59,18.98,4.76c3.88,3.18,5.83,8.16,5.83,14.95
		v38.51h-15.51V72.28z M473.65,63.59V51.76c-2.08,0.21-4.3,0.49-6.71,0.85c-2.41,0.35-4.23,0.77-5.47,1.24
		c-1.54,0.58-2.7,1.4-3.51,2.49c-0.8,1.11-1.2,2.54-1.2,4.33c0,1.18,0.08,2.14,0.25,2.89c0.18,0.74,0.59,1.43,1.27,2.11
		c0.65,0.67,1.43,1.18,2.34,1.49c0.91,0.33,2.32,0.48,4.24,0.48c1.53,0,3.09-0.38,4.65-1.12C471.07,65.78,472.45,64.8,473.65,63.59z
		"/>
	<rect x="503.35" y="21.8" class="st1" width="15.51" height="56.46"/>
	<path class="st1" d="M568.38,39.39H567c-0.66-0.29-1.72-0.52-3.19-0.67c-1.45-0.14-2.68-0.22-3.65-0.22c-2.2,0-4.16,0.18-5.86,0.52
		c-1.68,0.33-3.5,0.9-5.45,1.69v37.55h-15.52V21.8h15.52v8.28c3.41-3.41,6.37-5.65,8.91-6.7c2.52-1.06,4.84-1.58,6.96-1.58
		c0.54,0,1.16,0.01,1.85,0.05c0.68,0.03,1.29,0.08,1.81,0.15V39.39z"/>
	<path class="st1" d="M518.86,8.18c0-4.28-3.46-7.75-7.76-7.75c-4.28,0-7.75,3.47-7.75,7.75c0,4.27,3.47,7.74,7.75,7.74
		C515.4,15.92,518.86,12.45,518.86,8.18z"/>
</g>
</svg>
