<?xml version="1.0" encoding="utf-8"?>
<!-- Generator: Adobe Illustrator 25.3.1, SVG Export Plug-In . SVG Version: 6.00 Build 0)  -->
<svg version="1.1" id="Layer_1" xmlns="http://www.w3.org/2000/svg" xmlns:xlink="http://www.w3.org/1999/xlink" x="0px" y="0px"
	 viewBox="0 0 536.68 80" style="enable-background:new 0 0 536.68 80;" xml:space="preserve">
<style type="text/css">
	.st0{fill:#ED4138;}
	.st1{fill:#00693A;}
	.st2{fill:#DF1804;}
	.st3{fill:#214078;}
	.st4{fill:#3487C7;}
	.st5{fill:url(#SVGID_1_);}
	.st6{fill:url(#SVGID_2_);}
	.st7{fill:#184A8A;}
	.st8{fill:url(#SVGID_3_);}
	.st9{fill:url(#SVGID_4_);}
	.st10{fill:url(#SVGID_5_);}
	.st11{fill:url(#SVGID_6_);}
	.st12{fill:#9E8266;}
	.st13{fill:#322E26;}
	.st14{fill:#332F27;}
	.st15{fill:#791722;}
	.st16{fill:url(#SVGID_7_);}
	.st17{fill:url(#SVGID_8_);}
	.st18{fill:url(#SVGID_9_);}
	.st19{fill:url(#SVGID_10_);}
	.st20{fill:url(#SVGID_11_);}
	.st21{fill:url(#SVGID_12_);}
	.st22{fill:url(#SVGID_13_);}
	.st23{fill:url(#SVGID_14_);}
	.st24{fill:url(#SVGID_15_);}
	.st25{fill:url(#SVGID_16_);}
	.st26{fill:url(#SVGID_17_);}
	.st27{fill:url(#SVGID_18_);}
	.st28{fill:url(#SVGID_19_);}
	.st29{fill:url(#SVGID_20_);}
	.st30{fill:url(#SVGID_21_);}
	.st31{fill:#222325;}
	.st32{fill:#A0925A;}
	.st33{fill:#061E34;}
	.st34{fill:#028E8F;}
	.st35{fill:#D5192C;}
	.st36{fill:#FAC201;}
	.st37{fill:url(#SVGID_22_);}
	.st38{fill:url(#SVGID_23_);}
	.st39{fill:url(#SVGID_24_);}
	.st40{fill:url(#SVGID_25_);}
	.st41{fill:#9F8A58;}
	.st42{fill:#749ED4;}
	.st43{fill:#045991;}
	.st44{fill:#1F9A8D;}
	.st45{fill:#222D68;}
	.st46{fill:#14152E;}
	.st47{fill:#62B3E4;}
	.st48{fill:#FEFEFE;}
	.st49{fill:none;}
	.st50{fill:#FC0302;}
	.st51{fill:#FE0807;}
	.st52{fill:#98684C;}
	.st53{fill:#86754D;}
	.st54{fill:#42484D;}
	.st55{fill:#41474C;}
	.st56{fill:#43494D;}
	.st57{fill:#DF073D;}
	.st58{fill:#DE023A;}
	.st59{fill:#FFFFFF;}
	.st60{fill:#6F6E6C;}
	.st61{fill:#072F67;}
	.st62{fill:#53A220;}
	.st63{fill:#FDC013;}
	.st64{fill:url(#SVGID_26_);}
	.st65{fill:url(#SVGID_27_);}
	.st66{fill:url(#SVGID_28_);}
	.st67{fill:#793A98;}
	.st68{fill:url(#SVGID_29_);}
	.st69{fill:url(#SVGID_30_);}
	.st70{fill:url(#SVGID_31_);}
	.st71{fill:url(#SVGID_32_);}
	.st72{fill:url(#SVGID_33_);}
</style>
<g>
	<path class="st63" d="M0.84,40.26c2.71-1.28,5.44-2.45,8.42-3.04c4.39-0.86,8.69-0.46,12.94,0.65c5.15,1.35,9.76,3.78,13.7,7.41
		c1.18,1.77,5.19,4.44,5.51,4.53c5.83,1.71,11.7,3.01,17.86,2.11c3.68-0.54,7.23-1.46,10.55-3.12c0.96-0.48,1.78-1.21,2.85-1.49
		c1.79,0.24,3.49-0.4,5.22-0.63c6.46-0.88,12.68-0.09,18.8,1.98c5.43,1.84,10.38,4.65,15.31,7.52c2.6,1.51,5.1,3.21,7.9,4.35
		c0.09,0.28,2.43,1.39,2.64,1.49c7.29,3.54,14.9,5.76,23.09,5.56c-2.21,1.13-4.67,1.07-7.02,1.32c-3.94,0.42-7.95,0.44-11.89,0.05
		c-6.2-0.61-12.22-2.09-17.99-4.5c-4.6-1.92-8.98-4.25-12.97-7.21c-2.21-1.64-4.42-1.72-6.88-1.02c-5.18,1.48-9.7,4.05-13.72,7.65
		c-3.34,2.99-7.27,5.11-11.59,6.45c-6.21,1.94-12.25,1.38-18.17-1.16c-0.91-0.39-1.83-0.77-2.74-1.19
		c-2.94-1.36-5.41-3.31-7.67-5.64c-4.93-5.08-10.08-9.93-15.74-14.21c-4.9-3.72-10.27-6.35-16.39-7.31
		c-0.66-0.1-1.34-0.03-2.01-0.03C0.84,40.6,0.84,40.43,0.84,40.26z M67.76,55.84c-0.49,0.11-0.63,0.06-1.46,0.32
		c-2.06,0.65-4.14,1.27-6.35,1.31c-3.96,0.08-7.51-1.39-11.08-2.79c-0.89-0.35-1.69-1.13-2.9-0.54c3.02,2.35,5.99,4.61,9.38,6.31
		c4.52,2.27,8.82,2.11,12.95-0.9c0.87-0.1,1.55-0.64,2.28-1.02c4.11-2.18,8.44-3.59,13.07-4.25c1.64-0.23,3.53-0.14,4.91-1.47
		c-0.42-0.74-1.09-0.77-1.75-0.83c-3.59-0.29-7.22-0.42-10.69,0.61C73.25,53.42,70.85,54.33,67.76,55.84z"/>
	<linearGradient id="SVGID_1_" gradientUnits="userSpaceOnUse" x1="35.5336" y1="37.8874" x2="120.3426" y2="37.8874">
		<stop  offset="0" style="stop-color:#10B48D"/>
		<stop  offset="0.0196" style="stop-color:#11B591"/>
		<stop  offset="0.1973" style="stop-color:#19BAB1"/>
		<stop  offset="0.3812" style="stop-color:#1FBECB"/>
		<stop  offset="0.5713" style="stop-color:#24C1DD"/>
		<stop  offset="0.7719" style="stop-color:#26C2E8"/>
		<stop  offset="1" style="stop-color:#27C3EB"/>
	</linearGradient>
	<path class="st5" d="M72.67,47.31c-1.07,0.28-1.89,1.02-2.85,1.49c-3.33,1.66-6.87,2.58-10.55,3.12
		c-6.16,0.91-12.03-0.4-17.86-2.11c-0.32-0.09-4.56-2.88-5.87-4.9c0.91,0.07,2.12,0.52,3.06,0.81c6.34,1.97,11.42,0.94,16.97-1.15
		c5.39-2.03,10.12-5.24,14.96-8.25c3.84-2.39,7.5-5.08,11.53-7.17c2.23-1.16,4.45-2.37,6.76-3.34c5-2.1,10.68-2.07,11.09-2.11
		c7.21-0.64,13.96,0.83,20.45,4.15c-0.48,0.39-0.9,0.29-1.28,0.28c-13.1-0.23-24.82,3.85-35.6,11.13c-1.46,0.99-2.69,2.1-4.11,3.14
		c-0.31,0.23-1.4,1.05-1.53,1.14c-0.78,0.54-1.69,1.08-2.13,1.37C74.63,45.63,73.41,46.18,72.67,47.31z"/>
	<g>
		<linearGradient id="SVGID_2_" gradientUnits="userSpaceOnUse" x1="181.0134" y1="34.2215" x2="126.6189" y2="36.3771">
			<stop  offset="0" style="stop-color:#E3068D"/>
			<stop  offset="0.2891" style="stop-color:#D30D8D"/>
			<stop  offset="0.8552" style="stop-color:#A81E8F"/>
			<stop  offset="1" style="stop-color:#9C238F"/>
		</linearGradient>
		<path class="st6" d="M195.65,1.66c-0.75-0.06-1.49,0.48-2.03,0.87c-4.44,3.19-7.28,7.47-9.19,12.58
			c-2.71,7.24-6.18,14.13-11.21,20.11c-3.38,4.02-7.49,6.92-12.6,8.35c-0.75,0.21-0.76,0.26-1.94,0.56c-0.44,0.11-0.9,0.18-1.36,0.2
			c-4.59,0.19-9.14-0.25-13.62-1.17c-5.98-1.23-11.88-2.85-17.86-4.11c-4.43-0.93-6.69-1.31-13.42-1.9
			c-0.94-0.03-1.04-0.1-2.27-0.16c-4.1-0.18-8.19-0.49-12.29,0.13c-6.34,0.95-17.63,5.61-19.77,6.58c-1.07,0.51-1.92,0.88-2.4,1.2
			c-1.06,0.72-2.28,1.27-3.02,2.39c1.79,0.24,3.49-0.4,5.22-0.63c6.46-0.88,12.68-0.09,18.8,1.98c5.43,1.84,10.38,4.65,15.31,7.52
			c2.6,1.51,4.69,2.92,7.8,4.52c1.97,0.96,2.53,1.21,2.74,1.31c7.29,3.54,14.9,5.76,23.09,5.56c1.36,0.09,2.65-0.31,3.97-0.53
			c7.89-1.32,15.44-3.65,22.41-7.63c2.23-1.27,6.81-4.58,6.99-4.73c5.17-4.41,9.42-9.54,12.49-15.63c0.53-1.05,0.44-1.75-0.18-2.74
			c-1.55-2.43-1.53-4.91,0.31-7.24c0.42-0.54,0.83-1.01,0.8-1.77c-0.1-2.35-0.03-4.71-0.24-7.04c-0.33-3.6-0.18-7.21-0.25-10.82
			c-0.01-0.48,0.06-1.03,0.12-1.52C192.45,4.87,194.04,3.3,195.65,1.66"/>
	</g>
	<linearGradient id="SVGID_3_" gradientUnits="userSpaceOnUse" x1="72.648" y1="52.2018" x2="178.9668" y2="52.2018">
		<stop  offset="0" style="stop-color:#E1038C"/>
		<stop  offset="0.6466" style="stop-color:#B7178D"/>
		<stop  offset="1" style="stop-color:#A51F8E"/>
	</linearGradient>
	<path class="st8" d="M112.4,37.19c-0.94-0.03-1.04-0.1-2.27-0.16c-4.1-0.18-8.19-0.49-12.29,0.13c-6.34,0.95-17.63,5.61-19.77,6.58
		c-1.07,0.51-1.92,0.88-2.4,1.2c-1.06,0.72-2.28,1.27-3.02,2.39c1.79,0.24,3.49-0.4,5.22-0.63c6.46-0.88,12.68-0.09,18.8,1.98
		c5.43,1.84,10.38,4.65,15.31,7.52c2.6,1.51,4.69,2.92,7.8,4.52c1.97,0.96,2.53,1.21,2.74,1.31c7.29,3.54,14.9,5.76,23.09,5.56
		c1.36,0.09,2.65-0.31,3.97-0.53c7.89-1.32,15.44-3.65,22.41-7.63c2.23-1.27,6.81-4.58,6.99-4.73
		C178.97,54.71,136.37,60.77,112.4,37.19z"/>
	<path class="st67" d="M483.52,44.41c-0.04,2.48-0.6,4.8-1.75,7.09c-1.27-0.54-1.75-1.71-2.83-2.36c0.89-2.29,1.09-4.61,1.49-7.03
		c-0.69-0.59-1.63-1.04-1.42-2.32c0.14-0.86,0.61-1.09,1.45-1.14c0-2.65,0-5.14,0-7.5c0.77-0.62,1.51-0.23,2.17-0.52
		c0.62-0.58,0.22-1.65,1.1-2.32c0.93-0.17,2-0.06,2.95,0.04c0.8,0.85-0.19,1.49,0.01,2.25c0.94,0.38,1.98-0.01,3.09,0.28
		c0.44,1.76,0.14,3.61,0.19,5.42c0.06,1.93,0.01,3.87,0.01,5.81c0,1.85,0,3.69,0,5.64c1.32-1.12,1.59-1.62,1.98-5.34
		c0.2-1.91,0.04-3.85,0.04-5.94c3.39,0,6.56,0,10.07,0c0,3.73,0,7.54,0,11.29c1.1,0.14,1.13-0.42,1.14-0.91
		c0.02-1.25,0.01-2.5,0.01-3.82c1.14-0.31,1.78,0.22,2.43,0.59c0,1.59,0.11,3.11-0.03,4.6c-0.22,2.35-1.34,3.12-4.05,3.01
		c-2.26-0.09-3.15-0.96-3.23-3.28c-0.05-1.43-0.01-2.86-0.01-4.29c0-1.34,0-2.69,0-4.02c-0.86-0.55-1.64-0.45-2.65-0.02
		c-0.12,4.09-0.23,8.28-2.9,11.81c-1.12-0.38-1.52-1.52-2.7-1.85c-1.44,1.75-3.45,1.97-5.75,1.61c-0.21-0.82-0.43-1.68-0.66-2.58
		c0.97-0.72,3.11,0.42,2.96-1.88c-0.4-0.71-0.88,0.08-1.69-0.19C484.2,46.35,484.91,44.64,483.52,44.41z M486.45,45.63
		c0.72-1.61,0.5-2.79,0.21-4.16c-1.15,0.17-2.43-0.82-3.33,1.11C485.56,42.25,485.85,43.83,486.45,45.63z M486.66,33.37
		c-1.18,0.19-2.48-0.77-3.14,0.82c0.54,0.89,1.5-0.03,2.06,0.77c0.45,0.64,0.21,1.72,1.31,1.98
		C486.89,35.85,487.03,34.77,486.66,33.37z M486.86,38.11c-0.52-0.85-1.46,0.13-2.35-0.81c-0.14-0.19,0.11-1.21-0.86-1.43
		c0,0.9,0,1.79,0,2.65C485.75,38.84,485.75,38.84,486.86,38.11z"/>
	<path class="st67" d="M452.4,33.74c-0.27-1.09-0.28-1.82-0.01-2.64c1.62-0.63,3.31-0.23,4.96-0.3c1.67-0.07,3.35-0.02,4.89-0.02
		c0.52-0.58-0.11-0.9,0.04-1.33c1.13-1.04,2.71-0.57,3.99-1.12c0.68,0.59,0.85,1.44,1.21,2.37c3.35,0,6.69,0,10.07,0
		c0.47,1.05,0.29,1.92,0.26,2.8c-1.43,0.54-2.94-0.25-4.07,0.48c-1.11,0.72-1.96,1.83-2.92,2.78c-0.51,0.52-1.38,0.66-1.63,1.7
		c2.91,0.98,5.96,1.15,9.23,1.55c-0.76,1.17-1.38,2.13-2,3.09c-1.53,0.16-2.88-0.73-4.42-0.29c-0.4,2.77,0.06,5.62-0.27,8.53
		c-1.27,0-2.41,0-3.88,0c0.26-3.16-0.4-6.26,0.49-9.44c-1.07-0.12-2.12-1.48-3.56-1.21c-1.35,0.26-2.8,0.41-3.96,1.34
		c2.45,2.4,0.07,7.29-4.81,9.8c-0.92-0.64-1.75-1.42-2.58-2.43c2.28-1.64,4.8-3.08,4.23-6.48c-1.5-0.59-2.84,0.64-4.43,0.16
		c-0.6-0.72-1.11-1.63-1.35-2.94c2.96-0.54,5.89-0.65,8.8-1.67c-1.45-1.47-2.86-2.9-4.26-4.33c-0.4-0.41-0.88-0.43-1.4-0.43
		C454.16,33.75,453.32,33.74,452.4,33.74z M461.12,33.86c2.83,3.47,3.92,3.58,6.86,0.85c0.24-0.22,0.52-0.42,0.52-0.93
		C466.08,33.75,463.66,33.62,461.12,33.86z"/>
	<path class="st67" d="M269.54,50.29c-1.63,0-3.19-0.01-4.43-0.01c0.02-1.33,0-1.68-0.01-2.49c-0.05-2.95-0.02-5.9-0.07-8.85
		c-0.02-1.04-0.22-2.05-1.49-2.32c-1.26-0.27-2.4,0.19-3.06,1.27c-0.5,0.81-0.66,1.71-0.65,2.66c0.01,2.44,0.01,4.89-0.02,7.33
		c-0.01,0.74,0,1.21,0,2.4c-1.29,0-2.83-0.06-4.3-0.06c0-5.54,0-11.07,0-16.72c1.58,0,2.46-0.06,3.49-0.06
		c0.15,0.9,0.17,1.1,0.65,1.66c1.36-1.24,2.92-2.25,4.85-2.25c1.88,0,3.28,1.09,4.48,2.55c0.7-0.58,1.24-1.11,1.86-1.52
		c2.82-1.85,6.33-1.07,7.85,1.7c0.25,0.45,0.44,0.9,0.44,1.42c0,4.36,0,8.72,0,13.21c-1.35,0-3.1,0.04-4.32,0.04
		c-0.02-1.31-0.03-1.05-0.03-1.64c0-2.44,0.01-4.89,0-7.33c0-0.84-0.04-1.68-0.07-2.53c-0.04-1.09-0.28-2.01-1.61-2.16
		c-1.29-0.15-2.87,0.24-3.27,1.35c-0.39,1.1-0.33,2.36-0.3,3.57C269.58,44.38,269.54,47.23,269.54,50.29z"/>
	<path class="st67" d="M372.61,30.78c0.84-0.61,1.63-0.48,2.37-0.41c1.85,0.17,3.54,0.09,4.14-2.14c1.3,0.22,2.44,0.42,3.57,0.62
		c0.57,0.28,0.17,0.96,0.83,1.52c2.82,0,5.91,0,8.99,0c0.41,1.91,0.05,3.57-0.43,5.16c-0.51,1.7-1.92,2.52-3.66,2.6
		c-1.77,0.08-3.54,0.02-5.4,0.02c-0.59-0.7-0.64-1.63-1.09-2.7c1.65-0.32,3.14-0.11,4.6-0.11c1.04,0,1.83-0.23,2.02-1.4
		c-1.63-0.52-8.62-0.62-12-0.17c0,1.71,0,3.45,0,5.45c6.09,0,12.2,0,18.53,0c-0.18,3.02-0.22,5.77-0.55,8.49
		c-0.25,2.05-2.09,3.53-4.26,3.63c-2.09,0.1-4.2,0.02-6.43,0.02c-0.16-1.15-0.8-2.08-0.66-3.35c1.59-0.31,3.18,0.01,4.76-0.04
		c2.1-0.07,2.64-0.58,2.74-2.73c0.04-0.91,0.21-1.83-0.12-2.96c-5.9,0-11.85,0-17.97,0C372.61,38.34,372.61,34.59,372.61,30.78z"/>
	<path class="st67" d="M201.71,27.05c1.79,0.01,3.32,0.01,4.89,0.01c-0.07,1.12-0.04,0.52-0.03,1.63c0.02,4.21,0.02,8.42,0.02,12.63
		c0,0.59-0.04,1.19,0.05,1.77c0.45,3.06,4.32,4.66,6.87,2.86c1.07-0.75,1.41-1.79,1.41-3.06c-0.02-4.46,0.01-8.92,0.05-13.39
		c0.01-0.81,0.03-0.91,0.03-2.37c1.46,0,3.29,0,4.71-0.04c0.04,0.97,0.09,1.72,0.09,2.54c-0.01,4.04-0.02,8.08-0.04,12.12
		c-0.01,0.92-0.14,1.83-0.28,2.74c-0.58,3.74-2.77,5.85-7.06,6.25c-1.68,0.16-3.35,0.07-5.01-0.37c-2.8-0.74-4.89-2.97-5.27-5.78
		C201.37,38.84,201.89,33.04,201.71,27.05z"/>
	<path class="st67" d="M449.76,33.57c0.3,1.13,0.22,2.01,0.12,3.1c-3.02,0-5.94,0-9.25,0c2.5,4.27,6.1,6.73,10.07,8.96
		c-0.74,1.21-1.78,1.92-2.74,2.9c-3.54-1.5-5.69-4.55-8.46-7.51c0,3.63,0,6.85,0,10.13c-1.36,0.47-2.58,0.31-3.99,0.18
		c0-3.33,0-6.58,0-10.44c-2.75,3.18-5.18,5.87-8.44,7.93c-0.95-0.7-1.75-1.62-2.77-2.8c3.68-2.57,7.39-5,9.71-9.27
		c-3.02,0-5.77,0-8.55,0c-0.47-1.05-0.18-1.94-0.27-3.06c3.41,0,6.66,0,10,0c0.49-1.73,0.06-3.34,0.35-4.93
		c1.26-0.31,2.41-0.16,3.64-0.13c0.62,1.55-0.11,3.21,0.56,4.94C443.05,33.57,446.39,33.57,449.76,33.57z"/>
	<path class="st67" d="M527.92,39.9c-2.12-0.97-4.24-1.94-6.31-2.89c-0.14-0.78,0.41-1.15,0.7-1.63c0.47-0.75,1.16-0.97,1.96-0.59
		c2.88,1.36,5.95,2.3,8.85,3.89c-0.22,1.15-1.06,1.89-1.55,2.77c-0.93,0.34-1.4-0.64-2.33-0.53c-0.59,0.66,0.13,1.7-0.53,2.62
		c-2.05,0-4.22,0-6.34,0c-0.8,1.24-0.25,2.41-0.55,3.81c3.8,0,7.38,0,11.08,0c0,1.23,0,2.19,0,3.23c-8.69,0-17.27,0-25.86,0
		c-0.39-1-0.14-1.91-0.22-3.07c3.67,0,7.26,0,10.91,0c0.31-1.38,0.27-2.51,0.05-3.82c-2.24,0-4.41,0-6.35,0
		c-0.95-0.73-0.32-1.65-0.8-2.3c-0.76-0.33-1.32,0.66-2.37,0.28c-0.42-0.59-0.99-1.38-1.74-2.42c3.28-1.48,6.47-2.7,9.27-4.72
		c0.98,0.58,1.85,1.05,2.37,2.13c-1.43,1.57-3.55,2.13-5.37,3.59c5.2,0,10.13,0,15.06,0C527.87,40.12,527.9,40.01,527.92,39.9z"/>
	<path class="st67" d="M325.24,26.93c2.87,0.02,3.18-0.23,4.59,0.02c0.42,0.08,0.92,1.7,1.66,3.54c2.43,6.23,4.85,12.47,7.27,18.71
		c0.09,0.23,0.19,0.74,0.26,1.16c-1.61,0.06-3.02,0-4.66,0.01c-0.84-1.95-1.32-3.17-2.28-5.23c-2.85-0.13-5.53-0.1-8.42-0.02
		c-1,1.97-1.27,2.88-2.3,5.1c-1.39,0-2.87,0-4.67,0C319.37,42.35,322.43,34.73,325.24,26.93z M324.68,40.98
		c2.13,0.28,4.02,0.2,6.06,0.08c-0.87-2.9-1.86-5.59-3.15-8.58C326.55,35.51,325.64,38.17,324.68,40.98z"/>
	<path class="st67" d="M294.52,35.33c-0.03-1.29,0.02-0.99-0.03-2c0.94,0,2.77-0.01,3.93-0.01c0.03,2.13-0.13,19.94-0.11,23.47
		c-1.29,0-2.75-0.03-4.25-0.03c0-2.6,0-5.09,0-7.46c0.18-0.69-0.75-0.03-0.99,0.13c-3.24,2.32-6.87,1.79-8.88-1.66
		c-2.17-3.71-2.32-7.74-0.18-11.52c2.29-4.02,6.23-4.49,9.73-1.43C293.85,34.92,294.37,35.25,294.52,35.33z M294.32,41.46
		c0.07-0.96-0.25-1.8-0.57-2.72c-0.72-1.32-1.34-2.08-2.82-2.13c-1.41-0.04-2.49,0.5-3.06,1.76c-1,2.23-0.97,4.54-0.14,6.82
		c0.44,1.22,1.45,1.91,2.67,2c1.25,0.09,2.26-0.61,2.89-1.69C293.98,44.34,294.29,43.04,294.32,41.46z"/>
	<path class="st67" d="M399.61,39.57c-0.42-1.37-0.02-2.73-0.3-4.23c-1.1-0.23-1.74-1.19-2.66-2.16c2.07-1.7,4.36-2.92,6.33-4.58
		c0.98-0.83,2.43-0.07,3.76-0.41c-0.08,0.59-0.13,0.9-0.19,1.41c3.35,0,6.67,0,9.8,0c0.94,0.92,0.21,1.73,0.31,2.69
		c1.23,0,2.47,0,3.83,0c0,2.5,0,4.82,0,7.28C413.54,39.57,406.6,39.57,399.61,39.57z M411.65,37.15c2.11,0.88,4.18,0.8,5.6-0.13
		C415.25,36.6,413.45,36.65,411.65,37.15z M402.98,37.21c2.52,0.84,4.35,0.73,5.56-0.25C406.58,36.67,404.78,36.57,402.98,37.21z
		 M417.05,34.54c-1.81-0.32-3.63-0.56-5.68,0.04C413.23,35.45,415.37,35.46,417.05,34.54z M408.81,34.63
		c-3.08-0.67-4.82-0.55-5.81,0.29C405.18,35.42,406.8,35.38,408.81,34.63z M412.2,32.12c-3.37-0.8-7.18-0.69-8.91,0
		C406.42,32.12,409.31,32.12,412.2,32.12z"/>
	<path class="st67" d="M247.2,50.44c0-1.12,0.03-1.39-0.09-2.1c-1.07,0.88-2.01,1.69-3.24,2.12c-3.47,1.21-7-0.77-7.19-4.39
		c-0.22-4.18-0.05-8.38-0.05-12.7c1.37,0,2.61,0,3.83,0c0.79-0.08,0.52,1.38,0.52,2.1c0.03,3.03,0.09,6.07,0.04,9.1
		c-0.04,2.1,2.09,3.24,3.91,2.3c1.25-0.65,1.87-1.61,1.86-3.02c0-2.61,0.02-5.22,0.08-7.83c0.02-0.82,0.03-1.48,0.06-2.71
		c1.29-0.03,2.82,0.03,4.24-0.06c0,5.75-0.03,11.52-0.03,17.14C249.96,50.52,248.6,50.36,247.2,50.44z"/>
	<path class="st67" d="M420.03,51.79c-1.39-0.05-2.71,0.47-3.8-0.77c-0.23-0.27-0.96-0.13-1.46-0.13c-2.86-0.01-5.73-0.03-8.59,0.01
		c-1.04,0.01-2.05-0.2-3.04,0.71c-0.67,0.62-1.92,0.23-3.04,0.13c-0.35-1.33-0.15-2.66-0.18-3.98c-0.04-1.34-0.01-2.68-0.01-3.99
		c1.79-0.5,17.2-0.62,20.11-0.18C420.48,45.41,420.52,49.33,420.03,51.79z M416.93,48.24c-3.31-0.63-11.97-0.47-13.41,0.16
		C405.13,49.16,414.84,49.17,416.93,48.24z M403.29,45.83c0.36,0.27,0.48,0.46,0.61,0.46c4.03,0.02,8.07,0.03,12.1,0.02
		c0.35,0,0.59-0.25,0.53-0.66C414.29,45.11,405.15,45.19,403.29,45.83z"/>
	<path class="st67" d="M224.47,33.33c1.3,0,2.46,0,3.45,0c0.46,0.86,0.34,0.75,0.77,1.31c2.66-2.2,3.13-2.27,5.85-0.78
		c-0.31,1.35-0.68,2.5-1.04,3.66c-3.63-0.82-4.48-0.12-4.65,3.68c-0.14,2.99-0.3,5.98-0.45,9.06c-1.36,0-2.88,0.03-4.09,0.03
		C224.26,47.49,224.47,36.23,224.47,33.33z"/>
	<path class="st67" d="M350.19,33.33c1.3,0,2.46,0,3.45,0c0.46,0.86,0.34,0.75,0.77,1.31c2.66-2.2,3.13-2.27,5.85-0.78
		c-0.31,1.35-0.68,2.5-1.04,3.66c-3.63-0.82-4.48-0.12-4.65,3.68c-0.14,2.99-0.3,5.98-0.45,9.06c-1.36,0-2.88,0.03-4.09,0.03
		C349.97,47.49,350.19,36.23,350.19,33.33z"/>
	<path class="st67" d="M507.42,30.72c3.4,0,6.65,0,9.68,0c0.76-0.65,0.06-1.33,0.69-1.96c0.93-0.28,2.16,0.01,3.1-0.56
		c0.89,0.65,0.9,1.57,1.44,2.53c3.28,0,6.69,0,10.21,0c0,1.89,0,3.53,0,5.3c-1.13,0-2.18,0-3.22,0c-0.63-0.6-0.07-1.51-0.6-2.19
		c-5.79,0-11.59,0-17.41,0c-0.72,0.52-0.09,1.45-0.69,2.2c-0.92,0.25-1.98,0.11-3.2,0.08C507.42,34.37,507.42,32.72,507.42,30.72z"
		/>
	<path class="st67" d="M302.71,33.32c1.46,0,2.71,0,4.13,0c0,5.63,0,11.2,0,16.9c-1.34,0-2.64,0-4.13,0
		C302.71,44.66,302.71,39.09,302.71,33.32z"/>
	<path class="st67" d="M423.34,40.58c0.15,0.7,0.24,1.27-0.06,1.86c-0.59,0.44-1.29,0.2-1.94,0.21c-7.43,0.02-14.85,0.01-22.28,0.01
		c-0.51,0-1.01,0.02-1.52,0c-0.74-0.03-1.04-0.5-1.03-1.17c0.01-0.69,0.4-1.08,1.11-1.09c0.25,0,0.51,0,0.76,0
		c8.1,0,16.2,0,24.3,0.01C422.86,40.42,423.02,40.5,423.34,40.58z"/>
	<path class="st67" d="M388.94,46.68c-6.6-0.01-12.95,0.02-19.1-0.02c-0.62-1.04-0.41-1.8-0.38-2.53c1.75-0.48,14.82-0.64,19.3-0.24
		c0.4,0.31,0.33,0.74,0.33,1.15C389.07,45.45,389.01,45.85,388.94,46.68z"/>
	<path class="st67" d="M495.09,31.46c0.27-0.8-0.68-1.21-0.41-2.15c0.72-0.85,1.92-0.68,3-0.76c1.09,0.76,1.3,2.01,2.1,3.12
		c1.65,0,3.39,0,5.21,0c0.19,0.99,0.24,1.78-0.08,2.53c-2.32,0.49-12.26,0.45-14.14-0.05c-0.05-0.22-0.14-0.46-0.15-0.71
		c-0.02-0.49-0.01-0.99-0.01-1.53C492.11,31.21,493.68,31.95,495.09,31.46z"/>
	<linearGradient id="SVGID_4_" gradientUnits="userSpaceOnUse" x1="42.6782" y1="56.6268" x2="90.3302" y2="56.6268">
		<stop  offset="0" style="stop-color:#A51F8E"/>
		<stop  offset="1" style="stop-color:#E1038C"/>
	</linearGradient>
	<path class="st9" d="M86.79,51.96c-3.59-0.29-7.22-0.42-10.69,0.61c-2.8,0.83-2.49,0.35-8,2.96c-0.22,0.1-0.45,0.2-0.68,0.27
		c-0.88,0.28-0.17,0.07-1.26,0.41c-2.06,0.65-4,1.09-6.21,1.13c-3.96,0.08-7.58-1.1-11.08-2.67c-2.41-1.09-4.61-3.08-6.19-3.48
		c2.84,3.17,9.28,7.55,12.67,9.24c4.52,2.27,8.5,2.23,12.95-0.58c1.91-1.08,1.45-0.91,2.28-1.35c4.11-2.18,8.44-3.59,13.07-4.25
		c1.64-0.23,4.47-0.57,6.69-1.09C88.85,52.45,87.46,52.02,86.79,51.96z"/>
	<rect x="302.62" y="26.97" class="st67" width="4.22" height="4.22"/>
	<g>
		<path class="st67" d="M341.71,33.32c1.46,0,2.71,0,4.13,0c0,5.63,0,11.2,0,16.9c-1.34,0-2.64,0-4.13,0
			C341.71,44.66,341.71,39.09,341.71,33.32z"/>
		<rect x="341.62" y="26.97" class="st67" width="4.22" height="4.22"/>
	</g>
</g>
</svg>
