<?xml version="1.0" encoding="utf-8"?>
<!-- Generator: Adobe Illustrator 25.4.1, SVG Export Plug-In . SVG Version: 6.00 Build 0)  -->
<svg version="1.1" id="Layer_1" xmlns="http://www.w3.org/2000/svg" xmlns:xlink="http://www.w3.org/1999/xlink" x="0px" y="0px"
	 viewBox="0 0 103.4 80" style="enable-background:new 0 0 103.4 80;" xml:space="preserve">
<style type="text/css">
	.st0{clip-path:url(#SVGID_00000009569783624187580980000016253260412165084804_);}
	.st1{fill:#050606;}
	.st2{fill:#FBE201;}
	.st3{fill:#EA2429;}
	.st4{fill:#FFFFFF;}
	.st5{fill:#D91F26;}
	.st6{fill:#010101;}
	.st7{fill:#FCDC00;}
	.st8{fill:#9CA69C;}
</style>
<g>
	<g>
		<g>
			<defs>
				<path id="SVGID_1_" d="M0,79.8l76-77c0,0,1.5-2.8,11.8-2.8s15.6,0,15.6,0L75.2,80H0V79.8z"/>
			</defs>
			<clipPath id="SVGID_00000087375929820319443830000015224407011059754385_">
				<use xlink:href="#SVGID_1_"  style="overflow:visible;"/>
			</clipPath>
			<g style="clip-path:url(#SVGID_00000087375929820319443830000015224407011059754385_);">
				<g>
					<path class="st1" d="M6.6,50.8L20.1,51l78.3-35.9l11.3-18.4c0,0-30.5-6.1-68.2,21.1C3.7,45,1.7,51.5,1.7,51.5L6.6,50.8z"/>
					<path class="st2" d="M5,60.9l13.4,0.2l78.3-35.9L108,6.8c0,0-30.5-6.1-68.2,21.1S0.2,61.6,0.2,61.6L5,60.9z"/>
					<path class="st3" d="M0,79.8l13.4-0.2l77-38.3l10.6-18.8c0,0-30.7-5.1-67.6,23.4S-5,80.8-5,80.8L0,79.8z"/>
					<path class="st1" d="M4,79.8h16.3L86,54.9l8.5-16.4c0,0-29,2.3-41,8.6S21.4,65.1,4,79.8z"/>
					<path class="st2" d="M41.7,81.5H16.8c0,0,25.7-22.6,69.2-26.4c43.5-4-21.4,24.9-21.4,24.9L41.7,81.5z"/>
				</g>
				<path class="st3" d="M40.7,79.7c0,0,27.4-8.8,37.3-7.8c10,1-2.3,13.3-2.3,13.3l-35-1V79.7z"/>
			</g>
		</g>
	</g>
	<g>
		<g>
			<circle class="st4" cx="64.7" cy="44.6" r="13.8"/>
		</g>
		<g>
			<g>
				<g>
					<g>
						<g>
							<path class="st5" d="M62.6,34.2l-0.8-1.7c0.3-0.3,1-0.7,1.8-0.7l-0.2,1.8L62.6,34.2z"/>
							<path class="st6" d="M62.4,34.2l-1-1.8l0,0c0.5-0.5,1-0.7,2-0.7l0,0l0,0c0,0-0.2,1.7-0.2,1.8l0,0L62.4,34.2z M61.7,32.5
								l0.8,1.5l0.8-0.3c0-0.7,0-1.5,0.2-1.7C62.6,32,62.1,32.2,61.7,32.5z"/>
						</g>
						<g>
							<path class="st7" d="M63.4,33.7l0.2-1.8c0,0,1.8-0.2,2.8,1.2l-1,1.5L63.4,33.7z"/>
							<path class="st6" d="M65.4,34.5l-2.2-0.7l0.2-2l0,0c0,0,1.8-0.2,3,1.2C66.4,33,66.4,33,65.4,34.5L65.4,34.5z M63.4,33.7
								l1.8,0.7c0.3-0.5,0.8-1.2,1-1.3c-0.8-1-2.3-1-2.7-1L63.4,33.7z"/>
						</g>
						<g>
							<path class="st5" d="M65.4,34.4l1-1.5c0.7,0.7,0.8,1.2,1,1.8L65.9,35C65.9,35,65.4,34.4,65.4,34.4z"/>
							<path class="st6" d="M65.9,35.2L65.9,35.2L65.9,35.2c-0.2-0.2-0.5-0.7-0.5-0.8l0,0l0,0l1-1.5l0,0c0.7,0.7,0.8,1.2,1,1.8l0,0
								l0,0C67.2,34.9,65.9,35.2,65.9,35.2z M65.4,34.4c0.2,0.2,0.3,0.5,0.3,0.7c0.2,0,1.2-0.3,1.3-0.3c-0.2-0.7-0.3-1-0.8-1.7
								L65.4,34.4z"/>
						</g>
						<g>
							<path class="st6" d="M62.9,57.8c0,0,1.7-2,5-1.5c-0.5-0.8-2.2-0.7-2.2-0.7s-0.5-3.8-0.2-4c0.3-0.2,2,0,2,0
								c0.2,0,0.7-0.7,0.3-1c-0.3-0.3-1.2-1.8-0.8-2.2s2.3,0.2,2.3,0.2l-5.5-7.1c0,0-0.5-2.7,0.5-4c1.3-1.2,1.2-2.3,1.2-2.3
								c-0.2-1.2-2.2-2.2-3.3-1c-0.8,1-0.3,1.7-0.3,1.7s-2,0.5-2,0.8s2.2,0,2.2,0l-0.2,1.7c0,0-4.5,4.1-1,7.6l0.2-0.2
								c0,0,1.2,1.5,2.5,1.8c1.2,1.2,1.2,1,1.2,1s0.2,2,0,2.3c-0.3-0.2-3.3-0.2-3.8,0c-0.3,0.2-2,0-1.7,2.7c0.3-0.7,0.5-1.3,0.5-1.3
								s0,1,0.3,1.3c0-1,0.3-1.7,0.3-1.7s0,1,0.3,1.2c0.2,0.2,0.2-1.7,1.5-1.5s2.3,0.2,2.3,0.2s0.5,3.7,0.3,4
								c-1-0.2-3.2,0.2-3.3,0.7c1.3,0,2,0,2,0S62.6,57.3,62.9,57.8z"/>
							<path class="st6" d="M62.9,57.9L62.9,57.9c-0.3-0.5,0.3-1.3,0.7-1.5c-0.2,0-0.5,0-1,0c-0.2,0-0.5,0-0.7,0h-0.2v-0.2
								c0.2-0.5,1.7-0.8,2.7-0.8c0.3,0,0.5,0,0.7,0c0-0.5-0.2-2.5-0.3-3.8c0,0-0.2,0-0.3,0c-0.5,0-1.2,0-1.8-0.2
								c-0.8-0.2-1.2,0.7-1.3,1.2c-0.2,0.3-0.2,0.3-0.2,0.3l0,0c-0.2-0.2-0.3-0.7-0.3-1c-0.2,0.3-0.3,0.8-0.2,1.3v0.2l-0.2-0.2
								c-0.3-0.2-0.3-0.7-0.3-1c-0.2,0.2-0.3,0.7-0.5,1l-0.2,0.2v-0.3c-0.3-2.3,0.8-2.5,1.5-2.7h0.2c0.2,0,0.8-0.2,1.3-0.2
								c1,0,2.2,0,2.3,0.2c0.2-0.3,0-1.5,0-2.2c-0.2,0-0.3-0.3-1-1c-1.2-0.3-2.2-1.5-2.5-1.8c0,0,0,0.2-0.2,0.2l0,0l0,0
								c-0.8-1-1.3-2-1.3-3.2c0-2.3,2.2-4.3,2.3-4.6l0.2-1.5c-0.3,0-1.2,0.2-1.7,0.2c-0.3,0-0.5,0-0.5-0.2c0,0,0,0,0-0.2
								c0-0.3,1.5-0.8,2-0.8c-0.2-0.2-0.3-0.8,0.3-1.7c0.3-0.3,0.8-0.5,1.5-0.5c1,0,2,0.7,2,1.5l0,0c0,0.2,0.2,1.3-1.2,2.5
								c-1,1.2-0.7,3.7-0.5,3.8l5.6,7.3h-0.2c0,0-1.2-0.3-1.8-0.3c-0.3,0-0.3,0-0.5,0c0,0,0,0,0,0.2c0,0.5,0.7,1.5,0.8,1.8
								c0.2,0.2,0.2,0.5,0,0.7C68,50.8,68,51,67.9,51c0,0-0.8-0.2-1.3-0.2c-0.3,0-0.5,0-0.7,0c-0.2,0.2-0.2,2.2,0.2,3.8
								c0,0,0,0,0.2,0c0.5,0,1.7,0,2,0.8v0.2H68c-0.3,0-0.7,0-1,0C64.4,56.3,63.1,57.8,62.9,57.9L62.9,57.9z M62.4,56.1
								c0.8,0,1.2,0.2,1.3,0.2h0.2l-0.2,0.2c-0.3,0.2-0.8,0.8-0.8,1.3c0.3-0.3,1.7-1.5,4.1-1.5c0.3,0,0.5,0,0.8,0
								c-0.5-0.5-1.5-0.5-1.8-0.5c-0.2,0-0.2,0-0.2,0l0,0l0,0c-0.2-0.8-0.5-3.8,0-4.1c0.2,0,0.3-0.2,0.7-0.2c0.7,0,1.3,0.2,1.3,0.2
								s0.2-0.2,0.3-0.3c0,0,0.2-0.3,0-0.7s-1-1.5-1-2c0-0.2,0-0.2,0.2-0.2s0.3-0.2,0.5-0.2c0.5,0,1.3,0.2,1.7,0.2l-5.5-7
								c0-0.2-0.5-2.7,0.7-4c1.2-1,1.2-2,1.2-2.2l0,0v-0.2c-0.2-0.8-1-1.5-2-1.5c-0.5,0-1,0.2-1.3,0.5c-0.7,0.8-0.2,1.5-0.2,1.5v0.2
								h-0.2c-1,0.3-2,0.7-2,0.8l0,0c0,0,0,0,0.3,0c0.7,0,1.8-0.2,1.8-0.2h0.2l-0.2,1.7l0,0c0,0-2.3,2.2-2.3,4.5
								c0,1.2,0.3,2.2,1.2,3l0,0v-0.2v0.2c0,0,1.2,1.5,2.5,1.8l0,0l0,0c0.8,0.8,1,1,1,1l0,0l0,0l0,0l0,0l0,0l0,0c0,0.3,0.2,2,0,2.3
								l0,0l0,0c-0.2,0-1.3-0.2-2.5-0.2c-0.7,0-1.2,0-1.3,0.2h-0.2c-0.5,0.2-1.7,0.3-1.3,2.2c0.3-0.7,0.5-1,0.5-1h0.2
								c0,0,0,0.7,0.2,1c0-0.8,0.3-1.5,0.3-1.5l0.2-0.2v0.2c0,0.3,0.2,1,0.3,1.2c0,0,0-0.2,0.2-0.3c0.2-0.5,0.5-1.3,1.5-1.3
								c0.8,0.2,1.5,0.2,1.8,0.2c0.2,0,0.3,0,0.3,0l0,0l0,0c0,0.3,0.5,3.7,0.3,4.1l0,0l0,0c-0.2,0-0.5,0-0.8,0c-1,0-2.2,0.2-2.5,0.5
								C62.1,56.1,62.2,56.1,62.4,56.1z"/>
						</g>
						<g>
							<path class="st8" d="M63.4,37.5c0,0-3.3,3.7-1.8,6.3c0-0.3,0-0.7,0.2-0.7l0.3,0.3c0-0.2-0.2-0.7-0.2-0.7c0.2,0,0.3,0,0.5,0.2
								c-0.2-0.2-0.2-0.3-0.3-0.5c0.2,0,0.5,0,0.7,0l-0.2-0.7h0.5C62.2,40.5,63.1,39,63.4,37.5z"/>
							<path class="st8" d="M61.6,44.1L61.4,44c-1.5-2.8,1.8-6.5,1.8-6.5h0.2c-0.2,0.3-0.2,0.7-0.3,0.8c-0.3,1.2-0.8,2.3,0,3.7v0.2
								h-0.2c-0.2,0-0.3,0-0.5,0c0,0.2,0.2,0.3,0.2,0.5v0.2h-0.7l0.3,0.5l-0.5-0.2c0,0.2,0.2,0.3,0.2,0.5l0,0l0,0l0,0
								c0,0-0.2-0.2-0.3-0.2l0,0c0,0.2,0,0.3,0,0.5L61.6,44.1z M63.2,37.8c-0.7,0.8-2.7,3.7-1.7,5.8v-0.2v-0.2l0,0h0.2l0,0l0,0l0,0
								l0,0l0,0l0.2,0.2c0-0.2-0.2-0.3-0.2-0.5v-0.2l0.5,0.2l-0.2-0.5h0.7C62.6,42,62.6,42,62.6,42l0,0l0,0h0.3
								c-0.7-1.3-0.3-2.5,0.2-3.7C63.2,38.3,63.2,38.2,63.2,37.8z"/>
						</g>
						<g>
							<path class="st8" d="M64.6,34.5c0,0,0.2,1.2-0.5,1.7c-0.2,0-0.5,0.2-0.5,0.5s0.3,0.3,0.5,0.2C64.9,36.7,65.7,35.2,64.6,34.5z
								"/>
							<path class="st8" d="M63.9,36.8L63.9,36.8c-0.2,0-0.3-0.2-0.3-0.3c0-0.3,0.2-0.3,0.3-0.5c0,0,0,0,0.2,0
								c0.7-0.3,0.5-1.5,0.5-1.5v-0.2h0.2c0.5,0.3,0.7,0.7,0.5,1.2s-0.5,1.2-1,1.2l0,0C64.1,36.8,63.9,36.8,63.9,36.8z M64.7,34.7
								c0,0.3,0,1.2-0.5,1.5c0,0,0,0-0.2,0c-0.2,0.2-0.3,0.2-0.3,0.3c0,0.2,0.2,0.2,0.2,0.2h0.2l0,0c0.3,0,0.8-0.5,0.8-1.2
								C65.1,35.4,65.1,35,64.7,34.7z"/>
						</g>
						<g>
							<path class="st4" d="M63.2,35.4c0.2,0,0.3,0.2,0.3,0.3c0,0.2-0.2,0.3-0.3,0.3s-0.3-0.2-0.3-0.3
								C62.9,35.4,63.1,35.4,63.2,35.4z"/>
						</g>
						<g>
							<path class="st5" d="M62.4,36.5c-0.2,0.2-1.2,1.2-0.2,1.5c1-0.3,0.7-0.5,0.8-0.7C63.1,37,62.6,36.8,62.4,36.5z"/>
							<path class="st6" d="M62.1,38.2L62.1,38.2c-0.3-0.2-0.5-0.3-0.5-0.5c0-0.5,0.5-1,0.7-1.2l0,0l0,0c0,0,0.2,0.2,0.3,0.2
								c0.2,0.2,0.5,0.3,0.5,0.7l0,0l0,0c0,0,0,0.2-0.2,0.2C62.9,37.8,62.9,37.8,62.1,38.2L62.1,38.2z M62.4,36.7
								c-0.2,0.2-0.5,0.7-0.5,1c0,0.2,0.2,0.3,0.3,0.3c0.7-0.2,0.7-0.3,0.7-0.3s0-0.2,0.2-0.2c0-0.2-0.2-0.3-0.3-0.5
								C62.6,36.8,62.4,36.8,62.4,36.7z"/>
						</g>
						<g>
							<path class="st8" d="M64.4,45.5c0,0.2-0.3,1,0,1.5c0.8-0.3,1.2-0.2,1.5,0C65.1,46.5,64.9,46.3,64.4,45.5z"/>
							<path class="st8" d="M64.4,47.1L64.4,47.1c-0.3-0.7-0.2-1.3,0-1.7v-0.2l0.2,0.2c0.5,0.7,0.8,1,1.5,1.5l-0.2,0.2
								c-0.2,0-0.3-0.2-0.5-0.2C65.1,47,64.7,47,64.4,47.1L64.4,47.1z M64.4,45.6c0,0.3-0.2,0.8,0,1.3c0.3-0.2,0.7-0.2,1-0.2
								C65.1,46.5,64.7,46.1,64.4,45.6z"/>
						</g>
						<g>
							<path class="st4" d="M65.7,49.1V51c0,0,0.7,0.2,0.8,0C66.9,50.8,66.6,49.6,65.7,49.1z"/>
							<path class="st4" d="M66.2,51L66.2,51c-0.3,0-0.5,0-0.5,0l0,0v-2h0.2c0.7,0.5,1.2,1.2,1.2,1.7c0,0.2-0.2,0.2-0.2,0.3
								C66.6,51,66.4,51,66.2,51z M65.7,50.8c0.2,0,0.3,0,0.5,0l0,0c0.2,0,0.3,0,0.3,0s0,0,0-0.2c0-0.3-0.3-1-0.8-1.5V50.8z"/>
						</g>
						<g>
							<path class="st8" d="M70.2,49.3c0,0-1.2-2.8-4-3.5c-2.8-0.7-2.5-3.8-2.3-4c0.2-0.3,0.2-0.7,1-0.3c0.8,0.3,4.6,2.3,5.1,2.5
								C70.7,44.1,70.2,49.5,70.2,49.3z"/>
							<path class="st6" d="M70.2,49.5L70.2,49.5L70.2,49.5c0,0-1.2-2.8-4-3.5c-1.7-0.3-2.2-1.5-2.5-2.3c-0.2-0.8,0-1.5,0-1.7l0,0
								c0-0.2,0.2-0.5,0.5-0.5c0.2,0,0.3,0,0.7,0.2c0.2,0.2,0.5,0.3,1,0.5c1.5,0.7,3.8,1.8,4.1,2c0.5,0.2,0.3,3.2,0.2,4.5
								C70.2,49.5,70.2,49.5,70.2,49.5z M64.4,41.5c-0.2,0-0.3,0.2-0.3,0.3V42c0,0-0.2,0.8,0,1.7c0.2,0.8,0.8,1.8,2.3,2.2
								c2.5,0.5,3.7,2.7,4,3.3c0.2-1,0.3-4.3,0-5l0,0c-0.5,0-2.8-1.2-4.3-2c-0.5-0.2-0.8-0.3-1-0.5C64.6,41.7,64.4,41.5,64.4,41.5z"
								/>
						</g>
						<g>
							<path class="st5" d="M67.4,45.8c0,0,3.8,2.3,2.7,4.3c1.2-0.7,0.8-2,0.8-2s1,2.3-1.3,3.5c0.2,0.2,0.3,0.2,0.3,0.2l-0.3,0.3
								c0,0-0.2,0.3,1.3-0.5c-0.3,0.3-0.5,0.5-0.5,0.5s0.2,0.3,1.2-0.5c-0.8,0.8-1,1.3-1,1.3c2.2-0.2,6.8-7.1-1.5-9.1
								c0.5,0.5,0.3,0.3,0.3,0.3L67.4,45.8z"/>
							<path class="st6" d="M70.4,53.1L70.4,53.1L70.4,53.1L70.4,53.1c0.2-0.3,0.3-0.7,0.7-0.8c-0.2,0.2-0.3,0.2-0.5,0.2
								c-0.2,0-0.2-0.2-0.2-0.2l0,0l0,0c0,0,0-0.2,0.2-0.3c-0.5,0.2-0.8,0.3-0.8,0.3h-0.2c0,0,0,0,0-0.2l0.3-0.3c0,0-0.2,0-0.3-0.2
								l0,0h0.2c1.3-0.7,1.5-1.8,1.5-2.7c0,0.3-0.3,0.8-0.8,1.2L70.2,50c0.5-0.8,0.3-2-2.5-4c-0.2-0.2-0.2-0.2-0.2-0.2l0,0l0,0
								l2-1.5c0,0-0.2-0.2-0.3-0.3L69,43.8h0.3c4.3,1.2,4.8,3.5,4.8,4.8C74,51,72,52.9,70.9,53.1l0,0L70.4,53.1L70.4,53.1z
								 M71.5,51.8L71.5,51.8c-0.3,0.5-0.7,1-0.8,1.2c1.2-0.2,2.8-2.2,3-4.3c0.2-2.2-1.3-3.8-4.3-4.6l0.2,0.2l0,0l0,0l0,0l0,0l0,0
								l0,0l-2,1.5c0,0,0,0,0.2,0c2.7,1.8,3,3.2,2.7,4c0.8-0.7,0.5-1.7,0.5-1.8H71c0,0,0.8,2.3-1.2,3.7c0.2,0.2,0.2,0,0.2,0h0.3
								L69.9,52c0.2,0,0.5-0.2,1.2-0.5v0.2c-0.3,0.2-0.3,0.5-0.3,0.5C70.5,52.3,70.9,52.3,71.5,51.8z"/>
						</g>
						<g>
							<path class="st4" d="M67.6,45.1c0.5,0.3,0.7,0.5,0.8,0.7c-0.5-0.2-1,0-1,0s-1-1-1.2-1.2c-0.2,0-1-0.5-1-0.5
								c-0.3-0.2-0.8-1.7,0.7-1.2c1.5,0.7,1.8,0.8,1.8,0.8c0.7,0.2,1.2,0.3,1.8,0.7c0.3,0.3,0.7,0.8,1,1.2c0,0-1.8-1-2.2-1
								c0.5,0.5,0.8,1,0.8,1C68.7,45.5,68.2,45.3,67.6,45.1z"/>
							<path class="st6" d="M68.4,46L68.4,46c-0.5-0.2-0.7-0.2-0.8-0.2s-0.2,0-0.2,0l0,0l0,0c-0.3-0.3-1-1-1.2-1s-0.8-0.3-1-0.5
								c-0.2-0.2-0.5-0.7-0.3-1c0-0.2,0.2-0.5,0.7-0.5c0.2,0,0.3,0,0.5,0c1.5,0.7,1.8,0.8,1.8,0.8l1.8,0.7l1.2,1.2l-0.2,0.2
								c-0.5-0.3-1.3-0.7-1.8-0.8c0.3,0.3,0.5,0.8,0.5,0.8v0.2H69c-0.5-0.2-0.8-0.2-1.3-0.3C68.2,45.6,68.4,45.6,68.4,46L68.4,46z
								 M67.6,45.8c0.2,0,0.3,0,0.7,0c-0.2-0.2-0.3-0.2-0.7-0.5l0,0v-0.2c0.5,0.2,1,0.2,1.7,0.3c-0.2-0.2-0.3-0.5-0.7-0.8l-0.2-0.2
								h0.2c0.2,0,1.3,0.5,1.8,0.8l-0.8-0.8L67.7,44c0,0-0.2,0-1.8-0.8c-0.2,0-0.3,0-0.5,0c-0.3,0-0.5,0.2-0.5,0.3
								c0,0.3,0.2,0.7,0.3,0.8c0.3,0.2,0.8,0.5,1,0.5l0,0C66.4,44.6,67.2,45.5,67.6,45.8L67.6,45.8z"/>
						</g>
						<g>
							<path class="st6" d="M60.1,36.7c0,0,1.8-0.5,2-0.3"/>
							<path class="st4" d="M60.1,36.8L60.1,36.8c0.3-0.2,1.8-0.7,2-0.5v0.2C62.1,36.3,61.1,36.5,60.1,36.8z"/>
						</g>
					</g>
				</g>
			</g>
		</g>
	</g>
</g>
</svg>
