<?xml version="1.0" encoding="utf-8"?>
<!-- Generator: Adobe Illustrator 25.4.1, SVG Export Plug-In . SVG Version: 6.00 Build 0)  -->
<svg version="1.1" id="Layer_1" xmlns="http://www.w3.org/2000/svg" xmlns:xlink="http://www.w3.org/1999/xlink" x="0px" y="0px"
	 viewBox="0 0 87.44 80" style="enable-background:new 0 0 87.44 80;" xml:space="preserve">
<style type="text/css">
	.st0{fill:url(#SVGID_1_);}
	.st1{fill:#003392;}
</style>
<linearGradient id="SVGID_1_" gradientUnits="userSpaceOnUse" x1="48.1034" y1="-7.6946" x2="38.7923" y2="60.8088">
	<stop  offset="0" style="stop-color:#003392;stop-opacity:0"/>
	<stop  offset="1" style="stop-color:#003392"/>
</linearGradient>
<path class="st0" d="M87.44,0c-0.3,0.72-0.59,1.42-0.88,2.12C80.11,17.47,73.59,32.8,66.8,48.01c-1.82,4.08-3.66,8.16-5.78,12.09
	c-1.85,3.42-4.02,6.63-6.67,9.49c-3.73,4.02-8.25,6.82-13.45,8.54c-2.64,0.87-5.35,1.42-8.12,1.67c-0.72,0.06-1.45,0.1-2.17,0.15
	c-0.09,0.01-0.17,0.04-0.26,0.06h-2.97c-0.11-0.02-0.22-0.06-0.33-0.06c-2.15-0.1-4.28-0.38-6.37-0.92
	C9.45,76.1,1.47,66.96,0.2,55.38c-0.91-8.27,1.42-16.81,4.66-24.35c4.38-10.22,8.72-20.46,13.07-30.69c0.05-0.12,0.1-0.23,0.16-0.34
	h14.58c-0.3,0.72-0.59,1.42-0.88,2.12C26.36,15,20.9,27.86,15.28,40.65c-0.72,2.13-1.35,4.28-1.69,6.51
	c-0.5,3.25-0.42,6.46,0.69,9.59c1.65,4.63,4.9,7.67,9.58,9.02c6.9,1.99,13.17,0.63,18.69-3.99c3.01-2.52,5.2-5.68,7.01-9.14
	c3.68-7.05,6.94-14.3,10.08-21.61c4.38-10.22,8.72-20.46,13.07-30.69c0.05-0.12,0.1-0.23,0.16-0.34H87.44z"/>
<g id="layer1" transform="translate(-926.15988,-427.62421)">
</g>
<path class="st1" d="M72.87,0c-0.05,0.11-0.11,0.22-0.16,0.34c-4.35,10.23-8.69,20.47-13.07,30.69c-3.13,7.31-6.4,14.56-10.08,21.61
	c-1.81,3.46-4,6.62-7.01,9.14c-5.52,4.62-11.79,5.98-18.69,3.99c-1.13-0.32-2.16-0.75-3.12-1.27c-2.1,3.93-4.24,7.99-6.37,12.05
	c1.96,1.05,4.07,1.9,6.32,2.48c2.09,0.54,4.21,0.83,6.37,0.92c0.11,0,0.22,0.04,0.33,0.06h2.97c0.09-0.02,0.17-0.05,0.26-0.06
	c0.72-0.05,1.45-0.09,2.17-0.15c2.77-0.25,5.48-0.8,8.12-1.67c5.2-1.71,9.72-4.51,13.45-8.54c2.65-2.86,4.82-6.06,6.67-9.49
	c2.12-3.94,3.96-8.01,5.78-12.09c6.79-15.21,13.3-30.53,19.75-45.89c0.29-0.7,0.58-1.39,0.88-2.12H72.87z"/>
</svg>
