<?xml version="1.0" encoding="utf-8"?>
<!-- Generator: Adobe Illustrator 25.4.1, SVG Export Plug-In . SVG Version: 6.00 Build 0)  -->
<svg version="1.1" id="Layer_1" xmlns="http://www.w3.org/2000/svg" xmlns:xlink="http://www.w3.org/1999/xlink" x="0px" y="0px"
	 viewBox="0 0 217.77 80" style="enable-background:new 0 0 217.77 80;" xml:space="preserve">
<style type="text/css">
	.st0{fill:#003392;}
</style>
<g>
	<g id="g4211" transform="translate(-25.457088,-43.627229)">
		<g id="text4166" transform="matrix(0.98062446,0,0,1.0047018,0.18863459,0.78622543)">
			<path id="path4171" class="st0" d="M89.55,88.85c0,5.47-0.61,10.25-1.82,14.34c-1.18,4.05-3.14,7.43-5.88,10.13
				c-2.72,2.68-5.92,4.93-9.12,6.49c-3.49,1.71-9.9,2.57-14.53,2.45c-4.64-0.12-11.75-0.94-15.72-2.49
				c-3.47-1.35-6.62-3.81-9.01-6.25c-2.74-2.77-4.71-6.11-5.93-10.03c-1.18-3.92-1.77-8.73-1.77-14.44l0.04-46.37l13.14,0v45.65
				c0,4.09,0.27,7.31,0.81,9.68c0.57,2.36,1.52,4.51,2.84,6.43c1.49,2.2,3.5,3.85,6.03,4.96c2.57,1.11,5.64,1.67,9.22,1.67
				c3.61,0,6.69-0.54,9.22-1.62c2.53-1.11,4.56-2.79,6.08-5.02c1.32-1.93,2.25-4.12,2.79-6.59c0.57-2.5,0.86-5.59,0.86-9.27v-45.9
				l12.76,0.01L89.55,88.85z M247.84,75.09c-1.54-0.09-4.47,0-6.99,0.12c-5.75,0.27-12.52,4.14-13.07,9.46l0.06,35.71l-12.56,0.01
				l-0.07-57.56l12.62,0.03l0.04,8.15c4.57-6.08,8.27-8.3,15.01-9.13c1.53-0.19,3.13-0.15,4.91,0.14L247.84,75.09z M205.23,120.37
				l-13.67-0.01l0-57.56l13.68,0.01L205.23,120.37z M205.24,55.85l-13.67-0.01l0-13.2h13.68L205.24,55.85z M169.02,103.36
				l-0.1-10.27l-6.8,0.5c-13.4,0.99-19.95,3.88-20.18,11.21c-0.08,2.71,0.69,4.42,2.79,6.03c2.16,1.51,3.88,1.84,7.55,1.84
				c3.34,0,6.28-0.74,9.41-2.22C164.81,108.96,167.22,105.89,169.02,103.36L169.02,103.36z M169.05,113.3
				c-3.84,6.02-10.65,9.34-19.39,8.78c-5.67-0.37-11.1-1.5-14.76-4.49c-3.67-3.03-6.13-8.53-5.8-13.27
				c1.1-15.86,14.46-17.59,35.31-18.94l4.48-0.29c0-4.02-0.36-7.07-0.8-8.86c-1.87-4.93-7.16-6.25-10.42-6.49
				c-7.99-0.36-12.83,4.09-13.58,10.38l-12.14-0.14c0.75-11.52,9.43-19.31,25.14-19.31c7.33,0,12.75,2.44,16.85,5.29
				c4.1,2.85,6.59,9.18,6.59,17.53l-0.04,36.87l-11.36,0L169.05,113.3z M124.93,120.59c-2.04,0.47-4.73,0.67-7.35,0.61
				c-3.98-0.08-6.63-1.24-8.48-2.72c-1.85-1.51-3.08-3.56-3.89-5.8c-0.68-1.88-1.3-5.44-1.3-9.54v-31.2l-8.51-0.03l0.07-9.28
				l8.36-0.04V47.47l12.71,0.04v15.16l9.25,0.07c0.3,1.88,0.08,9.13,0.08,9.13h-9.37l0.22,30.94c0.03,3.91,0.65,5.4,1.57,6.47
				c0.96,1.04,2.26,1.56,3.91,1.56c1.68,0,1.21,0.07,2.76-0.21L124.93,120.59z"/>
		</g>
	</g>
	<g id="layer1" transform="translate(-926.15988,-427.62421)">
	</g>
</g>
</svg>
