<?xml version="1.0" encoding="utf-8"?>
<!-- Generator: Adobe Illustrator 25.4.1, SVG Export Plug-In . SVG Version: 6.00 Build 0)  -->
<svg version="1.1" id="Layer_1" xmlns="http://www.w3.org/2000/svg" xmlns:xlink="http://www.w3.org/1999/xlink" x="0px" y="0px"
	 viewBox="0 0 93.61 80" style="enable-background:new 0 0 93.61 80;" xml:space="preserve">
<style type="text/css">
	.st0{fill:url(#SVGID_1_);}
	.st1{fill:url(#SVGID_00000053543465757721589950000014256624150070137274_);}
	.st2{fill:url(#SVGID_00000108302585718967732990000001124547295378806716_);}
</style>
<g>
	
		<linearGradient id="SVGID_1_" gradientUnits="userSpaceOnUse" x1="0.1155" y1="83.1316" x2="0.8717" y2="83.1316" gradientTransform="matrix(90.8841 -64.8559 -64.8559 -90.8841 5394.3828 7620.1245)">
		<stop  offset="0" style="stop-color:#20294E"/>
		<stop  offset="0.5" style="stop-color:#005695"/>
		<stop  offset="1" style="stop-color:#26B5E3"/>
	</linearGradient>
	<path class="st0" d="M66.19,5.3c-6.87,2.33-15.91,6.16-25.24,9.69c5.17,2.39,10.27,4.64,14.32,6.46
		c13.14-5.37,23.22-8.38,23.22-8.38s-1.64,4.24-8.73,14.92c3.42,1.52,7.66,3.31,10.4,4.17c10-13.75,16.38-26.31,12.1-30.6
		C91.52,0.81,90.58,0,87.79,0C84.37,0,78.18,1.22,66.19,5.3"/>
	
		<linearGradient id="SVGID_00000168077443038049373130000003343934625660144264_" gradientUnits="userSpaceOnUse" x1="-0.0809" y1="83.2007" x2="0.6754" y2="83.2007" gradientTransform="matrix(91.3342 -57.371 -57.371 -91.3342 4813.6572 7659.8765)">
		<stop  offset="0" style="stop-color:#20294E"/>
		<stop  offset="1" style="stop-color:#005F9B"/>
	</linearGradient>
	<path style="fill:url(#SVGID_00000168077443038049373130000003343934625660144264_);" d="M50.95,58.28
		c3.51,2.7,6.12,1.28,8.87-0.77c0.02-0.01-0.28,0.27-0.8,0.74c3.65-3.09,8.17-7.84,14.61-15.79c-3.4-2.05-6.8-4.08-9.57-5.73
		L50.95,58.28z"/>
	
		<linearGradient id="SVGID_00000117664339152957858600000007124630655006924674_" gradientUnits="userSpaceOnUse" x1="3.2252" y1="81.6504" x2="3.9814" y2="81.6504" gradientTransform="matrix(-81.4144 -85.7928 -85.7928 81.4144 7337.7427 -6308.5947)">
		<stop  offset="0" style="stop-color:#20294E"/>
		<stop  offset="0.3" style="stop-color:#005695"/>
		<stop  offset="0.9" style="stop-color:#26B5E3"/>
		<stop  offset="1" style="stop-color:#26B5E3"/>
	</linearGradient>
	<path style="fill:url(#SVGID_00000117664339152957858600000007124630655006924674_);" d="M3.88,2.93C3.63,2.94,3.42,2.96,3.2,2.95
		C2.92,2.93,2.41,3.35,2.41,3.35C-9.52,10.37,25.96,67.2,41.71,77.71c2.19,1.46,6.17,3.04,9.68,1.89c0.41-0.13,1.3-0.81,1.34-0.85
		c0.07-0.07,10.46-12.15,10.46-12.17c-0.13-0.96-1.1-0.39-1.22-0.3c-4.06,2.95-7.61,1.3-18.55-9.81
		C31.77,44.64,20.48,23.95,20.48,23.95l52.47,23.63c3.48,1.57,5.43,0.68,6.45,0.02c0.28-0.18,9.78-11.63,9.78-11.63
		c0.06-0.8-0.82-0.35-0.82-0.35c-3.06,1.92-5.39,0.49-10.34-1.5c-3.34-1.34-38.52-16.89-51.05-22.83C10.9,3.67,6.48,2.9,4.52,2.9
		C4.27,2.9,4.06,2.91,3.88,2.93"/>
</g>
</svg>
