<?xml version="1.0" encoding="utf-8"?>
<!-- Generator: Adobe Illustrator 25.4.1, SVG Export Plug-In . SVG Version: 6.00 Build 0)  -->
<svg version="1.1" id="Layer_1" xmlns="http://www.w3.org/2000/svg" xmlns:xlink="http://www.w3.org/1999/xlink" x="0px" y="0px"
	 viewBox="0 0 173.27 80" style="enable-background:new 0 0 173.27 80;" xml:space="preserve">
<style type="text/css">
	.st0{fill:url(#SVGID_1_);}
	.st1{fill:url(#SVGID_00000139277070251389101390000008374778154023221643_);}
	.st2{fill:url(#SVGID_00000057140820071382107690000004909238638551111868_);}
	.st3{fill:#20294E;}
</style>
<g transform="matrix(2.32596 0 0 2.32596 -338.042 -1420.74)">
	
		<linearGradient id="SVGID_1_" gradientUnits="userSpaceOnUse" x1="145.5865" y1="646.5136" x2="146.0678" y2="646.5136" gradientTransform="matrix(90.8841 -64.8559 -64.8559 -90.8841 28871.1582 68826.4375)">
		<stop  offset="0" style="stop-color:#20294E"/>
		<stop  offset="0.5" style="stop-color:#005695"/>
		<stop  offset="1" style="stop-color:#26B5E3"/>
	</linearGradient>
	<path class="st0" d="M186.9,612.27c-1.88,0.64-4.35,1.69-6.91,2.65c1.42,0.65,2.81,1.27,3.92,1.77c3.6-1.47,6.35-2.29,6.35-2.29
		s-0.45,1.16-2.39,4.08c0.94,0.42,2.1,0.91,2.84,1.14c2.74-3.76,4.48-7.2,3.31-8.37c-0.2-0.2-0.46-0.43-1.22-0.43
		C191.88,610.82,190.18,611.15,186.9,612.27"/>
	
		<linearGradient id="SVGID_00000018229936181122580350000010631215818697301915_" gradientUnits="userSpaceOnUse" x1="145.4938" y1="646.5793" x2="145.9751" y2="646.5793" gradientTransform="matrix(91.3342 -57.371 -57.371 -91.3342 23984.1367 68030.625)">
		<stop  offset="0" style="stop-color:#20294E"/>
		<stop  offset="1" style="stop-color:#005F9B"/>
	</linearGradient>
	<path style="fill:url(#SVGID_00000018229936181122580350000010631215818697301915_);" d="M182.73,626.77
		c0.96,0.74,1.67,0.35,2.43-0.21c0,0-0.08,0.07-0.22,0.2c1-0.84,2.24-2.14,4-4.32c-0.93-0.56-1.86-1.12-2.62-1.57L182.73,626.77z"/>
	
		<linearGradient id="SVGID_00000080893015122101555650000003549277447410552981_" gradientUnits="userSpaceOnUse" x1="146.7079" y1="645.7895" x2="147.1893" y2="645.7895" gradientTransform="matrix(-81.4144 -85.7928 -85.7928 81.4144 67536.2109 -39362.2383)">
		<stop  offset="0" style="stop-color:#20294E"/>
		<stop  offset="0.3" style="stop-color:#005695"/>
		<stop  offset="0.9" style="stop-color:#26B5E3"/>
		<stop  offset="1" style="stop-color:#26B5E3"/>
	</linearGradient>
	<path style="fill:url(#SVGID_00000080893015122101555650000003549277447410552981_);" d="M169.85,611.62
		c-0.07,0-0.13,0.01-0.19,0.01c-0.08,0-0.22,0.11-0.22,0.11c-3.26,1.92,6.45,17.47,10.76,20.35c0.6,0.4,1.69,0.83,2.65,0.52
		c0.11-0.04,0.35-0.22,0.37-0.23c0.02-0.02,2.86-3.33,2.86-3.33c-0.04-0.26-0.3-0.11-0.33-0.08c-1.11,0.81-2.08,0.36-5.08-2.69
		c-3.19-3.23-6.28-8.9-6.28-8.9l14.36,6.47c0.95,0.43,1.49,0.18,1.76,0.01c0.08-0.05,2.68-3.18,2.68-3.18
		c0.02-0.22-0.22-0.1-0.22-0.1c-0.84,0.52-1.48,0.13-2.83-0.41c-0.91-0.37-10.54-4.62-13.97-6.25c-4.4-2.09-5.61-2.3-6.15-2.3
		C169.96,611.61,169.9,611.61,169.85,611.62"/>
	<g>
		<path class="st3" d="M180.85,637.1c0.08,0,0.17,0,0.28-0.01c0.1-0.01,0.2,0.01,0.29,0.03c0.09,0.02,0.17,0.06,0.23,0.12
			c0.06,0.06,0.09,0.15,0.09,0.27v4.28c0,0.48-0.09,0.93-0.27,1.34c-0.18,0.4-0.43,0.75-0.73,1.05c-0.31,0.29-0.67,0.52-1.08,0.68
			c-0.41,0.16-0.86,0.25-1.33,0.25c-0.48,0-0.92-0.08-1.34-0.25c-0.42-0.17-0.78-0.39-1.09-0.68c-0.3-0.29-0.55-0.64-0.73-1.05
			c-0.18-0.41-0.27-0.85-0.27-1.34c0-0.72,0-1.43,0.01-2.14c0.01-0.71,0.01-1.42,0.01-2.14c0-0.1,0.03-0.18,0.1-0.23
			c0.07-0.05,0.15-0.09,0.25-0.11c0.1-0.02,0.2-0.03,0.3-0.04c0.1,0,0.19-0.01,0.25-0.01c0.09,0,0.2,0.03,0.32,0.09
			c0.12,0.06,0.18,0.14,0.18,0.26v4.01c0,0.31,0.04,0.59,0.13,0.86c0.09,0.27,0.22,0.51,0.39,0.72c0.17,0.21,0.38,0.37,0.63,0.5
			c0.25,0.12,0.54,0.19,0.86,0.19c0.32,0,0.6-0.06,0.85-0.19c0.25-0.12,0.46-0.29,0.63-0.49c0.17-0.2,0.3-0.44,0.39-0.72
			c0.09-0.28,0.13-0.56,0.13-0.87v-3.98c0-0.15,0.05-0.25,0.17-0.31C180.61,637.13,180.73,637.1,180.85,637.1"/>
		<path class="st3" d="M186.15,645.12c-0.56,0-1.11-0.1-1.66-0.32c-0.55-0.21-1.03-0.51-1.44-0.9c-0.03-0.03-0.06-0.08-0.08-0.13
			c-0.03-0.06-0.04-0.11-0.04-0.16c0-0.07,0.03-0.15,0.1-0.25c0.07-0.09,0.14-0.18,0.23-0.26c0.09-0.08,0.18-0.15,0.28-0.2
			c0.1-0.05,0.18-0.08,0.26-0.08c0.11,0,0.23,0.05,0.36,0.15c0.14,0.1,0.3,0.21,0.49,0.33c0.19,0.12,0.41,0.23,0.66,0.33
			c0.25,0.1,0.55,0.15,0.89,0.15c0.18,0,0.38-0.02,0.6-0.05c0.22-0.03,0.42-0.09,0.6-0.18c0.19-0.08,0.34-0.2,0.46-0.36
			c0.12-0.15,0.19-0.34,0.19-0.57c0-0.21-0.07-0.38-0.22-0.5c-0.14-0.12-0.33-0.22-0.57-0.28c-0.23-0.07-0.5-0.12-0.8-0.15
			c-0.3-0.04-0.6-0.08-0.91-0.13c-0.31-0.05-0.61-0.11-0.91-0.2c-0.3-0.08-0.57-0.2-0.8-0.36c-0.23-0.16-0.42-0.36-0.57-0.62
			c-0.14-0.25-0.22-0.58-0.22-0.97c0-0.41,0.1-0.76,0.31-1.06c0.21-0.3,0.46-0.54,0.77-0.73c0.31-0.19,0.66-0.33,1.03-0.42
			c0.38-0.09,0.74-0.14,1.08-0.14c0.24,0,0.49,0.02,0.75,0.06c0.26,0.04,0.52,0.09,0.77,0.17c0.25,0.08,0.5,0.18,0.73,0.31
			c0.23,0.13,0.44,0.28,0.61,0.45c0.03,0.02,0.05,0.05,0.06,0.12c0.02,0.06,0.02,0.11,0.02,0.14c0,0.1-0.03,0.19-0.1,0.28
			c-0.07,0.09-0.14,0.17-0.23,0.24c-0.09,0.07-0.19,0.13-0.3,0.17c-0.11,0.04-0.21,0.07-0.29,0.07c-0.08,0-0.14-0.01-0.21-0.04
			c-0.28-0.24-0.57-0.43-0.88-0.56c-0.31-0.13-0.65-0.2-1.02-0.2c-0.15,0-0.33,0.02-0.52,0.05c-0.19,0.03-0.37,0.09-0.53,0.17
			c-0.16,0.08-0.29,0.19-0.41,0.33c-0.11,0.13-0.17,0.31-0.17,0.51c0,0.29,0.12,0.49,0.37,0.61c0.25,0.12,0.55,0.21,0.92,0.27
			c0.37,0.06,0.77,0.11,1.2,0.16c0.43,0.05,0.83,0.15,1.2,0.29c0.37,0.14,0.68,0.36,0.92,0.64c0.25,0.29,0.37,0.7,0.37,1.23
			c0,0.44-0.11,0.83-0.32,1.15c-0.21,0.32-0.48,0.59-0.81,0.81c-0.33,0.21-0.69,0.37-1.1,0.47
			C186.93,645.07,186.54,645.12,186.15,645.12"/>
		<path class="st3" d="M195.98,637.24c0.14,0,0.23,0.06,0.29,0.18c0.05,0.12,0.08,0.23,0.08,0.34c0,0.06,0,0.13-0.01,0.23
			c0,0.09-0.02,0.19-0.04,0.28c-0.02,0.09-0.06,0.17-0.12,0.23c-0.05,0.06-0.13,0.09-0.23,0.09h-1.53c-0.13,0-0.24,0.03-0.32,0.08
			c-0.08,0.05-0.12,0.16-0.12,0.31l0.01,5.67c0,0.12-0.03,0.2-0.09,0.26c-0.06,0.06-0.14,0.1-0.22,0.12
			c-0.08,0.02-0.18,0.03-0.27,0.02c-0.1-0.01-0.19-0.01-0.27-0.01c-0.11,0-0.24-0.03-0.37-0.08c-0.13-0.05-0.2-0.15-0.2-0.3v-5.74
			c0-0.11-0.03-0.19-0.1-0.26c-0.05-0.04-0.17-0.07-0.36-0.08c-0.19-0.01-0.4-0.02-0.61-0.02c-0.21,0-0.41,0.01-0.58,0.01
			c-0.18,0.01-0.28,0.01-0.3,0.01c-0.16,0-0.26-0.06-0.31-0.18c-0.05-0.12-0.08-0.24-0.08-0.36v-0.24c0-0.09,0.01-0.18,0.04-0.27
			c0.02-0.08,0.06-0.15,0.12-0.21c0.05-0.06,0.13-0.09,0.23-0.09L195.98,637.24z"/>
		<path class="st3" d="M219.83,644.35c0,0.17-0.03,0.3-0.09,0.42c-0.06,0.12-0.19,0.17-0.38,0.17h-5.28c-0.07,0-0.15-0.04-0.22-0.14
			c-0.07-0.09-0.11-0.17-0.11-0.23v-7.1c0-0.11,0.03-0.2,0.09-0.26c0.06-0.06,0.13-0.1,0.22-0.12c0.09-0.02,0.18-0.04,0.28-0.04
			h0.26c0.14,0,0.26,0.03,0.37,0.08c0.11,0.05,0.19,0.15,0.25,0.3v5.48c0,0.09,0.01,0.17,0.03,0.24c0.02,0.07,0.06,0.14,0.13,0.2
			c0.12,0.15,0.28,0.22,0.47,0.22h3.55c0.1,0,0.18,0.03,0.23,0.08c0.06,0.05,0.1,0.12,0.13,0.19c0.03,0.08,0.05,0.16,0.05,0.25
			C219.83,644.19,219.83,644.27,219.83,644.35"/>
		<path class="st3" d="M161.68,640.1c-0.2,0.96-1.42,0.93-1.42,0.93h-1.63c-0.3-0.03-0.32-0.33-0.32-0.33v-1.86
			c0.01-0.2,0.15-0.2,0.15-0.2h0.28c0.42,0,0.83,0.01,1.25,0c0.47,0,1.01-0.05,1.38,0.28c0.2,0.18,0.3,0.49,0.33,0.76
			C161.72,639.82,161.71,639.97,161.68,640.1 M163.76,644.93l-1.66-2.91c0.01,0-0.07-0.15,0.04-0.22c1.65-1.07,0.91-3.11,0.91-3.11
			c-0.47-1.48-2.42-1.46-2.42-1.46h-3.22c-0.52-0.01-0.51,0.37-0.51,0.37v7.06c0,0-0.02,0.48,0.31,0.5h0.22v0c0.3,0,0.66,0,0.66,0
			c0.33-0.03,0.31-0.5,0.31-0.5v-2.03c-0.01-0.1,0.13-0.09,0.13-0.09c0.06,0,1.72-0.06,2,0.06c0.12,0.05,0.26,0.18,0.34,0.3
			c0,0,1.11,1.86,1.11,1.86c0.08,0.14,0.18,0.26,0.31,0.37c0.12,0.1,0.26,0.09,0.41,0.09c0.25-0.01,0.51,0,0.76,0
			C163.86,645.19,163.76,644.93,163.76,644.93"/>
		<path class="st3" d="M202.51,640.1c-0.2,0.96-1.42,0.93-1.42,0.93h-1.63c-0.3-0.03-0.32-0.33-0.32-0.33v-1.86
			c0.01-0.2,0.15-0.2,0.15-0.2h0.28c0.42,0,0.84,0.01,1.25,0c0.47,0,1.01-0.05,1.38,0.28c0.2,0.18,0.3,0.49,0.33,0.76
			C202.55,639.82,202.54,639.97,202.51,640.1 M204.59,644.93l-1.66-2.91c0.01,0-0.07-0.15,0.04-0.22c1.65-1.07,0.91-3.11,0.91-3.11
			c-0.47-1.48-2.42-1.46-2.42-1.46h-3.22c-0.52-0.01-0.51,0.37-0.51,0.37v7.06c0,0-0.02,0.48,0.31,0.5h0.22v0c0.3,0,0.65,0,0.65,0
			c0.33-0.03,0.31-0.5,0.31-0.5v-2.03c-0.01-0.1,0.13-0.09,0.13-0.09c0.06,0,1.73-0.06,2,0.06c0.12,0.05,0.26,0.18,0.34,0.3
			c0,0,1.11,1.86,1.11,1.86c0.08,0.14,0.18,0.26,0.31,0.37c0.12,0.1,0.26,0.09,0.41,0.09c0.25-0.01,0.5,0,0.76,0
			C204.69,645.19,204.59,644.93,204.59,644.93"/>
		<path class="st3" d="M149.93,642.16c-0.05,0.05-0.1,0.07-0.15,0.07h-0.78h-0.01h-0.79c-0.06,0-0.11-0.02-0.15-0.07
			c-0.04-0.04-0.07-0.1-0.07-0.15c0-0.02,0.04-0.13,0.12-0.33c0.08-0.2,0.16-0.41,0.26-0.65c0.09-0.23,0.18-0.45,0.27-0.66
			c0.09-0.21,0.14-0.34,0.17-0.39c0.04-0.05,0.1-0.08,0.18-0.08h0.01v0h0.01l0,0H149c0.08,0,0.14,0.02,0.18,0.08
			c0.03,0.05,0.08,0.18,0.17,0.39c0.08,0.21,0.18,0.43,0.27,0.66c0.09,0.24,0.18,0.45,0.26,0.65c0.08,0.2,0.12,0.31,0.12,0.33
			C150,642.07,149.98,642.12,149.93,642.16 M152.63,644.74l-3.05-7.28c-0.04-0.1-0.13-0.16-0.28-0.18
			c-0.13-0.02-0.23-0.03-0.31-0.04h0h0c-0.08,0-0.19,0.01-0.31,0.04c-0.14,0.02-0.24,0.08-0.28,0.18l-3.05,7.28
			c-0.01,0.01-0.01,0.03-0.01,0.06c0,0.08,0.03,0.14,0.1,0.18c0.07,0.04,0.14,0.06,0.23,0.08c0.09,0.01,0.18,0.01,0.28,0.01
			c0.1,0,0.17-0.01,0.23-0.01c0.12,0,0.25-0.01,0.39-0.05c0.15-0.03,0.25-0.12,0.31-0.25l0.43-1.03c0.03-0.06,0.08-0.12,0.14-0.17
			c0.06-0.05,0.13-0.07,0.21-0.07h2.66c0.08,0,0.15,0.02,0.22,0.07c0.06,0.05,0.11,0.11,0.14,0.17l0.43,1.03
			c0.06,0.13,0.16,0.22,0.31,0.25c0.15,0.03,0.28,0.05,0.39,0.05c0.06,0,0.13,0,0.23,0.01c0.09,0,0.19,0,0.28-0.01
			c0.09-0.01,0.17-0.04,0.23-0.08c0.07-0.03,0.1-0.09,0.1-0.18C152.64,644.77,152.64,644.75,152.63,644.74"/>
		<path class="st3" d="M171.73,642.16c-0.04,0.05-0.1,0.07-0.15,0.07h-0.79h-0.01H170c-0.06,0-0.11-0.02-0.15-0.07
			c-0.05-0.04-0.07-0.1-0.07-0.15c0-0.02,0.04-0.13,0.12-0.33c0.08-0.2,0.17-0.41,0.26-0.65c0.09-0.23,0.18-0.45,0.27-0.66
			c0.09-0.21,0.14-0.34,0.17-0.39c0.04-0.05,0.1-0.08,0.18-0.08h0.01v0h0.01l0,0h0.01c0.08,0,0.14,0.02,0.18,0.08
			c0.03,0.05,0.08,0.18,0.17,0.39c0.09,0.21,0.18,0.43,0.27,0.66c0.09,0.24,0.18,0.45,0.26,0.65c0.08,0.2,0.12,0.31,0.12,0.33
			C171.8,642.07,171.78,642.12,171.73,642.16 M174.43,644.74l-3.05-7.28c-0.04-0.1-0.13-0.16-0.28-0.18
			c-0.12-0.02-0.23-0.03-0.31-0.04h0h0c-0.08,0-0.19,0.01-0.31,0.04c-0.14,0.02-0.23,0.08-0.28,0.18l-3.05,7.28
			c-0.01,0.01-0.01,0.03-0.01,0.06c0,0.08,0.03,0.14,0.1,0.18c0.07,0.04,0.14,0.06,0.23,0.08c0.09,0.01,0.18,0.01,0.28,0.01
			c0.1,0,0.17-0.01,0.23-0.01c0.11,0,0.25-0.01,0.39-0.05c0.15-0.03,0.25-0.12,0.31-0.25l0.43-1.03c0.03-0.06,0.08-0.12,0.14-0.17
			c0.06-0.05,0.13-0.07,0.22-0.07h2.66c0.08,0,0.15,0.02,0.21,0.07c0.06,0.05,0.11,0.11,0.14,0.17l0.43,1.03
			c0.06,0.13,0.16,0.22,0.31,0.25c0.15,0.03,0.28,0.05,0.39,0.05c0.06,0,0.13,0,0.23,0.01c0.1,0,0.19,0,0.28-0.01
			c0.09-0.01,0.17-0.04,0.23-0.08c0.07-0.03,0.1-0.09,0.1-0.18C174.44,644.77,174.44,644.75,174.43,644.74"/>
		<path class="st3" d="M210.03,642.16c-0.04,0.05-0.1,0.07-0.15,0.07h-0.79h-0.01h-0.78c-0.06,0-0.11-0.02-0.15-0.07
			c-0.04-0.04-0.07-0.1-0.07-0.15c0-0.02,0.04-0.13,0.12-0.33c0.08-0.2,0.16-0.41,0.26-0.65c0.09-0.23,0.18-0.45,0.27-0.66
			c0.08-0.21,0.14-0.34,0.17-0.39c0.04-0.05,0.1-0.08,0.18-0.08h0.01v0h0.01l0,0h0.01c0.08,0,0.14,0.02,0.18,0.08
			c0.02,0.05,0.08,0.18,0.17,0.39c0.09,0.21,0.17,0.43,0.27,0.66c0.1,0.24,0.18,0.45,0.26,0.65c0.08,0.2,0.12,0.31,0.12,0.33
			C210.09,642.07,210.07,642.12,210.03,642.16 M212.73,644.74l-3.05-7.28c-0.04-0.1-0.13-0.16-0.28-0.18
			c-0.12-0.02-0.23-0.03-0.31-0.04h0h0c-0.08,0-0.19,0.01-0.31,0.04c-0.14,0.02-0.23,0.08-0.28,0.18l-3.05,7.28
			c-0.01,0.01-0.01,0.03-0.01,0.06c0,0.08,0.03,0.14,0.1,0.18c0.07,0.04,0.14,0.06,0.23,0.08c0.09,0.01,0.18,0.01,0.28,0.01
			c0.09,0,0.17-0.01,0.23-0.01c0.11,0,0.25-0.01,0.39-0.05c0.15-0.03,0.25-0.12,0.31-0.25l0.43-1.03c0.03-0.06,0.08-0.12,0.14-0.17
			c0.06-0.05,0.13-0.07,0.22-0.07h2.66c0.08,0,0.15,0.02,0.22,0.07c0.06,0.05,0.11,0.11,0.14,0.17l0.43,1.03
			c0.06,0.13,0.16,0.22,0.31,0.25c0.15,0.03,0.28,0.05,0.39,0.05c0.06,0,0.13,0,0.23,0.01c0.1,0,0.19,0,0.28-0.01
			c0.09-0.01,0.17-0.04,0.23-0.08c0.07-0.03,0.1-0.09,0.1-0.18C212.74,644.77,212.74,644.75,212.73,644.74"/>
		<path class="st3" d="M155.13,644.73c0,0.23-0.18,0.42-0.4,0.42h-0.64c-0.22,0-0.4-0.19-0.4-0.42v-7.1c0-0.23,0.18-0.42,0.4-0.42
			h0.64c0.22,0,0.4,0.19,0.4,0.42V644.73z"/>
	</g>
</g>
</svg>
