<?xml version="1.0" encoding="utf-8"?>
<!-- Generator: Adobe Illustrator 25.4.1, SVG Export Plug-In . SVG Version: 6.00 Build 0)  -->
<svg version="1.1" xmlns="http://www.w3.org/2000/svg" xmlns:xlink="http://www.w3.org/1999/xlink" x="0px" y="0px"
	 viewBox="0 0 112.57 80" style="enable-background:new 0 0 112.57 80;" xml:space="preserve">
<style type="text/css">
	.st0{fill:#006FB9;}
</style>
<g id="Layer_2">
</g>
<g id="Layer_1">
	<g>
		<path class="st0" d="M51.39,21.74c-0.52,2.06-1.2,4.3-2.06,6.53c-1.63,4.21-2.84,8.16-3.69,11.94c-0.77,3.69-1.2,6.96-1.2,9.71
			c0,2.32,0.09,4.12,0.17,5.5c0.09,1.37,0.26,2.49,0.52,3.52l-10.23,6.02c-1.12,0.69-2.15,1.2-3.27,1.63
			c-1.03,0.43-2.15,0.6-3.18,0.6c-3.27,0-5.76-1.89-7.56-5.76c-1.8-3.87-2.66-8.25-2.66-13.32c0-11.77,2.75-21.31,8.25-28.61
			s11.43-11,17.7-11c2.75,0,4.81,0.69,6.1,2.15s1.89,3.35,1.89,5.67C52.16,17.87,51.9,19.68,51.39,21.74 M79.57,38.24l-8.08,5.41
			v8.76l29.3-18.3c4.38-2.84,7.39-5.59,9.19-8.34c1.72-2.75,2.58-5.5,2.58-8.34c0-5.93-1.89-10.4-5.67-13.15
			c-3.78-2.84-9.28-4.21-16.58-4.21c-4.55,0-9.37,1.03-14.26,3.09s-9.11,4.55-12.55,7.48c-2.66-3.44-5.59-6.1-8.76-7.91
			C51.56,0.95,47.69,0,42.96,0c-12.2,0-22.43,5.24-30.59,15.81S0.09,37.89,0,50.44C0.09,61.1,1.98,68.66,5.84,73.21
			S14.69,80,20.79,80c4.12,0,8.34-1.12,12.8-3.27c4.38-2.15,9.19-5.5,14.52-9.97c2.15,4.55,5.16,7.91,8.94,10.05
			C60.92,78.97,65.56,80,70.98,80c7.73,0,14.87-2.15,21.22-6.44c6.36-4.3,11.86-8.68,16.58-13.15l-4.04-6.27l-7.65,5.67
			c-2.92,2.15-6.19,4.12-9.88,5.93c-3.69,1.8-7.3,2.75-10.83,2.75c-4.55,0-7.91-1.89-10.05-5.76c-2.15-3.87-3.18-8.76-3.18-14.87
			c0-10.83,2.41-20.11,7.22-27.84s10.4-11.6,16.84-11.6c3.44,0,5.76,0.95,6.96,2.75c1.2,1.8,1.72,3.78,1.72,6.02
			c0,4.21-1.12,7.73-3.18,10.4C90.57,30.16,86.19,33.68,79.57,38.24"/>
	</g>
</g>
</svg>
