<?xml version="1.0" encoding="utf-8"?>
<!-- Generator: Adobe Illustrator 25.4.1, SVG Export Plug-In . SVG Version: 6.00 Build 0)  -->
<svg version="1.1" xmlns="http://www.w3.org/2000/svg" xmlns:xlink="http://www.w3.org/1999/xlink" x="0px" y="0px"
	 viewBox="0 0 413.07 80" style="enable-background:new 0 0 413.07 80;" xml:space="preserve">
<style type="text/css">
	.st0{fill:#006FB9;}
</style>
<g id="Layer_2">
</g>
<g id="Layer_1">
	<g>
		<path class="st0" d="M138.6,46.75l4.47-20.02h0.6l4.64,20.02H138.6z M152.01,17.19h-16.58l-11.86,47.26h11.34l2.15-9.02h12.72
			l2.15,9.02h12.55L152.01,17.19z"/>
		<g>
			<path class="st0" d="M174.18,25.01c-1.72,0-3.09-0.52-4.21-1.46c-1.03-0.95-1.55-2.32-1.55-3.95c0-1.72,0.52-3.09,1.55-4.04
				c1.03-0.95,2.41-1.46,4.21-1.46c1.63,0,3.01,0.52,4.04,1.46s1.55,2.32,1.55,4.04s-0.52,3.01-1.55,3.95S175.81,25.01,174.18,25.01
				"/>
		</g>
		<polygon class="st0" points="214.05,64.45 214.05,17.19 241.29,17.19 241.29,25.69 225.13,25.69 225.13,36.26 239.83,36.26 
			239.83,44.68 225.13,44.68 225.13,55.77 241.46,55.77 241.46,64.45 		"/>
		<rect x="169.02" y="28.27" class="st0" width="10.31" height="36.18"/>
		<path class="st0" d="M286.06,64.45V28.27h7.13l1.37,6.02h0.26c0.86-2.41,2.15-4.12,3.95-5.33c1.8-1.2,4.3-1.72,7.39-1.46v10.57
			l-9.88,1.12v25.26H286.06z"/>
		<path class="st0" d="M187.5,64.45V28.27h7.13l1.29,6.02h0.26c0.86-2.41,2.15-4.12,3.95-5.33c1.8-1.2,4.3-1.72,7.48-1.46v10.57
			l-9.88,0.95v25.44H187.5z"/>
		<path class="st0" d="M330.14,53.62c-1.12,1.72-2.66,2.58-4.73,2.58s-3.69-0.86-4.73-2.58c-1.12-1.72-1.63-4.12-1.63-7.3
			s0.52-5.67,1.63-7.39s2.66-2.66,4.73-2.66s3.61,0.86,4.73,2.66c1.12,1.72,1.63,4.21,1.63,7.39
			C331.77,49.5,331.26,51.9,330.14,53.62 M337.7,32.74c-2.92-3.52-7.05-5.24-12.29-5.24c-5.24,0-9.28,1.72-12.29,5.24
			c-3.01,3.52-4.47,8.08-4.47,13.66c0,5.5,1.46,10.05,4.47,13.49c3.01,3.52,7.05,5.24,12.29,5.24s9.28-1.72,12.29-5.24
			c2.92-3.52,4.47-7.99,4.47-13.49C342.08,40.82,340.62,36.26,337.7,32.74"/>
		<path class="st0" d="M367,54.05c-1.12,1.46-2.41,2.15-3.95,2.15c-0.86,0-1.72-0.09-2.49-0.26c-0.77-0.17-1.63-0.69-2.58-1.46
			V38.93c0.77-0.86,1.63-1.46,2.58-1.8s1.89-0.52,2.84-0.52c1.8,0,3.18,0.69,4.04,2.15c0.86,1.46,1.29,3.78,1.29,7.13
			C368.64,49.92,368.12,52.59,367,54.05 M375.51,31.97c-2.41-3.01-5.59-4.47-9.62-4.47c-1.8,0-3.44,0.43-4.98,1.29
			c-1.55,0.86-2.84,2.23-3.95,4.21h-0.26l-1.12-4.64h-7.99v47.95h10.23V63.07c1.37,0.95,2.66,1.63,3.95,1.89
			c1.2,0.26,2.41,0.43,3.52,0.43c3.95,0,7.22-1.55,9.8-4.55c2.58-3.09,3.95-7.99,3.95-14.95C379.12,39.53,377.92,34.97,375.51,31.97
			"/>
		<path class="st0" d="M402.84,54.48c-0.86,0.77-1.72,1.46-2.75,2.06c-0.95,0.6-2.06,0.86-3.18,0.86c-1.2,0-2.15-0.34-2.75-1.03
			c-0.69-0.69-1.03-1.55-1.03-2.66c0-1.63,0.69-2.84,2.06-3.61c1.37-0.77,3.27-1.2,5.76-1.2h1.89L402.84,54.48L402.84,54.48z
			 M409.62,30.59c-2.32-2.15-6.19-3.18-11.6-3.18c-2.06,0-4.12,0.26-6.27,0.69s-4.47,1.12-6.96,1.98l1.72,7.39
			c1.98-0.69,3.78-1.2,5.41-1.55c1.63-0.34,3.09-0.52,4.3-0.52c2.41,0,4.12,0.43,5.07,1.29c0.95,0.86,1.46,1.89,1.46,3.27v2.06
			h-3.35c-5.5,0-9.54,1.12-12.29,3.27c-2.75,2.15-4.12,5.24-4.12,9.28c0,3.18,1.03,5.76,3.09,7.73c2.06,1.98,4.73,3.01,8.08,3.01
			c1.98,0,3.78-0.43,5.41-1.29c1.63-0.86,3.18-2.23,4.47-4.04h0.26l1.2,4.47h7.56V41.5C413.15,36.35,411.94,32.74,409.62,30.59"/>
		<path class="st0" d="M258.82,65.22c-3.35,0-6.02-1.12-8.08-3.27c-1.98-2.15-3.01-5.84-3.01-11.08v-22.6h10.31v20.71
			c0,2.58,0.43,4.38,1.2,5.5c0.77,1.12,1.98,1.72,3.44,1.72c1.12,0,2.06-0.26,2.92-0.77s1.46-1.46,1.98-2.66V28.27h10.31v36.18
			h-7.82l-1.12-4.73h-0.26c-1.72,2.15-3.27,3.52-4.81,4.3C262.43,64.79,260.71,65.22,258.82,65.22"/>
		<path class="st0" d="M51.39,21.74c-0.52,2.06-1.2,4.3-2.06,6.53c-1.63,4.21-2.84,8.16-3.69,11.94c-0.77,3.69-1.2,6.96-1.2,9.71
			c0,2.32,0.09,4.12,0.17,5.5c0.09,1.37,0.26,2.49,0.52,3.52l-10.23,6.02c-1.12,0.69-2.15,1.2-3.27,1.63
			c-1.03,0.43-2.15,0.6-3.18,0.6c-3.27,0-5.76-1.89-7.56-5.76s-2.66-8.25-2.66-13.32c0-11.77,2.75-21.31,8.25-28.61
			s11.43-11,17.7-11c2.75,0,4.81,0.69,6.1,2.15s1.89,3.35,1.89,5.67C52.16,17.87,51.9,19.68,51.39,21.74 M79.57,38.24l-8.08,5.41
			v8.76l29.3-18.3c4.38-2.84,7.39-5.59,9.19-8.34c1.72-2.75,2.58-5.5,2.58-8.34c0-5.93-1.89-10.4-5.67-13.15
			c-3.78-2.84-9.28-4.21-16.58-4.21c-4.55,0-9.37,1.03-14.26,3.09s-9.11,4.55-12.55,7.48c-2.66-3.44-5.59-6.1-8.76-7.91
			S47.69,0,42.96,0c-12.2,0-22.43,5.24-30.59,15.81S0.09,37.89,0,50.44C0.09,61.1,1.98,68.66,5.84,73.21S14.69,80,20.79,80
			c4.12,0,8.34-1.12,12.8-3.27c4.38-2.15,9.19-5.5,14.52-9.97c2.15,4.55,5.16,7.91,8.94,10.05C60.92,78.97,65.56,80,70.98,80
			c7.73,0,14.87-2.15,21.22-6.44s11.86-8.68,16.58-13.15l-4.04-6.27l-7.65,5.67c-2.92,2.15-6.19,4.12-9.88,5.93
			c-3.69,1.8-7.3,2.75-10.83,2.75c-4.55,0-7.91-1.89-10.05-5.76c-2.15-3.87-3.18-8.76-3.18-14.87c0-10.83,2.41-20.11,7.22-27.84
			s10.4-11.6,16.84-11.6c3.44,0,5.76,0.95,6.96,2.75c1.2,1.8,1.72,3.78,1.72,6.02c0,4.21-1.12,7.73-3.18,10.4
			C90.57,30.16,86.19,33.68,79.57,38.24"/>
	</g>
</g>
</svg>
