<?xml version="1.0" encoding="utf-8"?>
<!-- Generator: Adobe Illustrator 25.4.1, SVG Export Plug-In . SVG Version: 6.00 Build 0)  -->
<svg version="1.1" id="Layer_1" xmlns="http://www.w3.org/2000/svg" xmlns:xlink="http://www.w3.org/1999/xlink" x="0px" y="0px"
	 viewBox="0 0 40.8 80" style="enable-background:new 0 0 40.8 80;" xml:space="preserve">
<style type="text/css">
	.st0{fill-rule:evenodd;clip-rule:evenodd;fill:#071372;}
	.st1{fill-rule:evenodd;clip-rule:evenodd;fill:#00A650;}
</style>
<path class="st0" d="M13.1,29.3c-0.4-0.8-1.2-1.2-1.6-1.2c-0.6,0-1.2,0.4-1.6,1.2C11,29.4,12.1,29.3,13.1,29.3z M8.4,46.6
	c-0.8-0.8-2.1-3.3-1.9-4.9c0.1-1.9,1.3-4,2.2-5.1c-0.2-0.1-0.3-0.2-0.3-0.3c-0.3-0.4-1.6-1.9-1.6-1.9C6.5,34.2,3,33.9,3,33.9
	c-0.3,0-0.8,0.3-1.2,0.5c0,0-0.4,0.7-0.8-0.1C0.8,33.5,0,31.9,0,31.2c0.1-0.9,1-2.7,1.4-3.6c0.1-0.3,0.2-0.3,0.4-0.4
	c1-0.2,4.9-0.1,5.2-0.4C7.4,26.4,8.2,25,8.7,25s2.6-0.2,3-0.2c0.3,0,0.7,0.1,0.7-0.2c0-0.1-0.3-0.2-0.5-0.3
	c-0.7-0.4-1.3-0.8-0.9-1.4c0.3-0.5,1-1.1,2-1.7c1.8-0.9,3.8-0.9,5.4-2.5c0.7-0.7,1.4-1.6,1.6-2.2c0.2-0.5,0.1,0.4-0.2,1.3
	c-0.3,0.9-1,1.7-1.8,2.3c-1.6,1.3-3.2,1.5-4.9,2.3c-0.7,0.3-1,0.7-0.9,1c0.7,0.7,1.4,1.3,1.4,1.7c-0.1,0.5-0.3,1-1.3,0.9
	c-1-0.1-2.5-0.1-3,0.1c-0.5,0.2-1.4,1.9-1.7,1.9c-0.3,0-4.1,0.2-5.1,0.3c-0.2,0-0.4,0.2-0.4,0.5c-0.3,0.6-0.6,1.2-0.9,1.8
	c-0.1,0.2-0.1,0.4-0.1,0.6c0.2,0.7,0.5,1.3,0.7,2c0,0,0.4-0.4,0.6-0.6c0.3-0.3,4.6,0,4.6,0c1.1,1.9,2.8,3.4,4.6,3.3
	c1.1,0,2.8-1.2,2.7-3c0-1.1-0.4-2.2-0.9-2.8c-1.6,0-3.4,0.1-4.9,0.1c0.4-1.3,0.9-3.3,3-3.3c2.8,0,4.1,3.7,4.1,6
	c0,2.6-2.5,4.8-3.9,4.9c-0.3,0-0.6,0-0.8-0.1C9,41.3,7.9,40.5,8.4,46.6z M20.4,48.8c-0.7-0.8-1.5-1.6-2.2-2.3
	c0.7-0.8,1.4-1.6,2.1-2.5c0.7,0.8,1.4,1.6,2.1,2.4C21.8,47.2,21.1,48,20.4,48.8z M23.3,46.6c6.4-3.2,8.9-11,7.8-20.2
	c-0.9-7.4,0.3-12.7,3.3-16.6c1.4-1.8,2.9-3.5,4.8-4.7c-5.8,7.6-5.6,12.2-5.1,21.7c0.3,4.9-0.5,10.1-2.8,13.9
	C29.9,43.1,27.5,45.5,23.3,46.6z M21.5,36.6c0.8-0.3,1.9-1.1,2.7-2.1c1.2-1.4,1.4-3.2,1-5.2c-0.6-3.6-1.4-7.3-0.8-11
	c0.4-2.2,1.2-5.2,2.6-7.5c1.4-2.4,3.8-4,5.7-5.4c3.5-2.5,7.7-4.7,8.1-5.4c-3.3,1.5-6.9,2.6-10.1,4.4c-3.8,2.1-7.3,5.3-8.5,11.4
	c-0.6,2.9-0.7,7.6,0.1,10.3c0.9,2.6,1.2,5,0.8,7C22.9,34.3,22.3,35.3,21.5,36.6"/>
<path class="st1" d="M19.6,80c-0.3,0-0.6-2.5-0.7-2.9c-0.2-1.1-0.6-2.5-1.3-3.3c-1.1-1.4-6.6-7.3-7.7-8.4c-1.1-1.1-6.5-7.7-6.5-11.4
	c0-3.2,2.3-6.4,4.5-6.4c0.9,0,4.5,0.1,4.9,0.1c1-0.1,2-2,3.5-5.1c1.4-3,2.9-5.4,4.3-5.3c1.2,0.1,3.1,3.2,3.9,3.1
	c0.9-0.1,2.7-4,2.7-6c0-1-0.3-3.9-0.7-6.7c-0.5-4-1-7.2,0-11.1c0.6-2.3,1.8-4.8,3-6.3c3-3.8,7.8-5.9,11-8.7
	c-2.7,4.1-8,6.2-10.2,11.9c-1,2.7-1.3,6.3-1.2,8.7c0.1,2.5,0.4,6.3,0.5,9.7c0.1,3-0.1,5.3-1.4,7.5c-1.2,1.9-2.4,3.3-3,3.8
	c-2.5,2.4-3.1-1.6-5.3-1.4c-1.5,0.1-4.8,6.9-5.4,7.7c-0.5,0.6-0.8,0.7-1.7,0.7c-0.8,0-4.3,0-5.1,0.8c-0.8,0.8-1.2,1.5-1.1,2.4
	s1.1,5,4.7,8.8c2.2,2.3,4.2,5,5.5,7.1c1.4,2.3,2.8,5,3,8.2C19.9,78.3,19.9,80,19.6,80"/>
</svg>
