<?xml version="1.0" encoding="utf-8"?>
<!-- Generator: Adobe Illustrator 25.4.1, SVG Export Plug-In . SVG Version: 6.00 Build 0)  -->
<svg version="1.1" id="Layer_2_00000159471598350358213750000014612203606435250611_"
	 xmlns="http://www.w3.org/2000/svg" xmlns:xlink="http://www.w3.org/1999/xlink" x="0px" y="0px" viewBox="0 0 693.1 80"
	 style="enable-background:new 0 0 693.1 80;" xml:space="preserve">
<style type="text/css">
	.st0{fill-rule:evenodd;clip-rule:evenodd;fill:#EC6A18;}
</style>
<g>
	<path class="st0" d="M284.4,0v77.6l36.1,0.4L399,16c-32.3,0-59.2,6.8-75,28.3c6,2.4,11.6,5.8,16.9,12.2c-12.2-1-21.9,2.8-27.7,13.6
		C313.9,34.7,303.1,12.8,284.4,0L284.4,0z M79,57.5c-2.7,18,27.5,22.6,40.1,22.5c21.6-0.3,59.2-14.5,60-37c0.5-16-25.6-20.2-37-20.2
		C119.8,22.7,82.2,35.8,79,57.5L79,57.5z M124.3,64.6c-4.8-0.1-6.9-3.7-6.5-8.2c0.6-8.4,10.2-20.1,19.4-19.8
		c4.8,0.2,6.9,3.9,6.5,8.4C143,53.5,133.4,64.9,124.3,64.6L124.3,64.6z M83.2,42.9C59.2,34.5,40.8,40.6,36.9,54
		C34,63.8,48.7,65.2,74,57.2L63.6,74C47.7,81.3,0,85.8,0,59.5c0-24.9,33.8-36.2,54.4-36.7c13.6-0.3,27.3,2.3,38.1,7.3L83.2,42.9
		L83.2,42.9z M165.5,78l37.3,0.8c6-11.2,14.4-21.3,23.5-31.1c5-5.4,20.7-14.4,11.2,1l-18.9,29.7h37.1l17.7-29.3
		c11.3-18.7,2.8-26.1-16.6-25.7l-58,1.2L165.5,78L165.5,78z M492.8,20.9c11.1,0.1,21.7,1.3,32.6,2.8L492.5,78l-36.1-0.2l6.1-12.3
		c-8.8,6.2-27.7,11.8-38.5,11.6c-11.7-0.2-15-8.2-13.4-16.9C416.6,28.7,465.6,20.6,492.8,20.9L492.8,20.9z M595.4,30.5
		c-7.5-5.4-22.6-7.4-30.9-7.8c-19.8-1-41.8,3.4-46.1,16.4c-1.6,4.9,1.8,9.7,7.6,15c8,7.3,8.8,12.3-5,10.4c-4.3-0.6-8.4-2.7-11.8-5.4
		l-9.2,13.4c10.2,4.6,21.6,7,32.7,7.2c16.4,0.3,33-3.9,41.5-16.8c3.1-4.6-3-10.1-11.2-15.4c-15.3-9.9-4.6-15.4,20.5-7.4L595.4,30.5
		L595.4,30.5z M463.8,40.7c-9.2,5.6-17.3,16-13.2,21.5c2.6,1.8,7.8-1.2,13.2-5.6c8.2-6.6,16.4-16.8,14.4-19.1
		C474.4,35.9,469,37.5,463.8,40.7L463.8,40.7z M394,77.8h-37.1l33.7-54h35.5L394,77.8L394,77.8z M631.5,56.6
		c8.2-6.6,16.4-16.8,14.4-19.1c-3.6-1.6-9.2,0-14.4,3.2c-9.2,5.6-17.3,16-13.2,21.5C621,64,626.3,61,631.5,56.6L631.5,56.6z
		 M655,20.9c11.4-0.2,24.1,0.6,38.2,2.8L660.2,78l-36.1-0.2l6.6-12.8c-14.6,9.1-26.4,12.8-35.2,12.8c-9.4,0-18.3-4.7-17.8-15.4
		C579.3,31.9,631.4,21.4,655,20.9L655,20.9z"/>
</g>
</svg>
