<?xml version="1.0" encoding="utf-8"?>
<!-- Generator: Adobe Illustrator 25.4.1, SVG Export Plug-In . SVG Version: 6.00 Build 0)  -->
<svg version="1.1" xmlns="http://www.w3.org/2000/svg" xmlns:xlink="http://www.w3.org/1999/xlink" x="0px" y="0px"
	 viewBox="0 0 172.6 80" style="enable-background:new 0 0 172.6 80;" xml:space="preserve">
<style type="text/css">
	.st0{fill-rule:evenodd;clip-rule:evenodd;fill:#F4B01D;}
	.st1{fill-rule:evenodd;clip-rule:evenodd;fill:#AAD8B1;}
	.st2{fill-rule:evenodd;clip-rule:evenodd;fill:#FD5F15;}
</style>
<g id="Layer_2">
</g>
<g id="Layer_1">
	<g>
		<path class="st0" d="M115.3,36.7c-4.7-7.2-10.8-9.9-17.5-9.7c-16.7,0.3-33.2,16.8-33.2,31.6c0,6.9-0.2,16.8,14.7,21.4
			c-9.6-8.7-8.7-15.5-8.5-22.8c0.3-7.5,3.9-14.8,11.3-21.7c-5.6,7.3-8.6,14.3-9,21C72.6,66.7,75.9,79.6,89.6,80
			c3.1,0.1,7.1-1.2,9.4-2.9c-18.8,0.8-22-14.2-21.7-25.2c0.3-11,10.2-22.7,20.4-23.1C103.5,28.5,106.8,29.4,115.3,36.7L115.3,36.7z"
			/>
		<polygon class="st0" points="17.1,31.7 20.8,27.3 58.7,50.9 57.9,52.7 17.1,31.7 		"/>
		<polygon class="st0" points="34.1,15.8 37.6,13 65.4,39.2 64.3,40.8 34.1,15.8 		"/>
		<polygon class="st0" points="51.8,4.8 55.6,3.2 73.5,31.2 72.1,32.6 51.8,4.8 		"/>
		<polygon class="st0" points="70.1,0 74.3,0 83.1,25.1 81.3,25.8 70.1,0 		"/>
		<polygon class="st0" points="84.1,0.1 87.4,0.5 91.6,23.5 90.3,23.6 84.1,0.1 		"/>
		<polygon class="st0" points="98,2.9 100.8,4.2 97.2,23.5 96.1,23.2 98,2.9 		"/>
		<polygon class="st0" points="110.6,9.3 104.6,24.8 103.5,24.5 108.4,8 110.6,9.3 		"/>
		<polygon class="st0" points="118.1,16.3 109.7,27.5 108.9,27 116.7,15 118.1,16.3 		"/>
		<polygon class="st0" points="122.9,23.5 113.7,31.7 113.4,31 121.9,21.9 122.9,23.5 		"/>
		<polygon class="st0" points="124.8,29.7 116.3,35.6 116.2,34.9 124.3,28.5 124.8,29.7 		"/>
		<path class="st1" d="M0,55c11.5,5.4,23.5,8.9,35.8,8.8c31.9-0.1,35.8-16.2,95.2-9.3C104.7,51,68.2,73.7,35.8,73.8
			C22.3,73.9,6.7,65.4,0,55L0,55z"/>
		<path class="st2" d="M89.3,49.8c30-4.4,58.2-1.9,83.4,12.5c-9.4-12-21.2-20.4-34.9-22.4C121.4,37.4,105.2,44,89.3,49.8L89.3,49.8z
			"/>
	</g>
</g>
</svg>
