<?xml version="1.0" encoding="utf-8"?>
<!-- Generator: Adobe Illustrator 25.4.1, SVG Export Plug-In . SVG Version: 6.00 Build 0)  -->
<svg version="1.1" xmlns="http://www.w3.org/2000/svg" xmlns:xlink="http://www.w3.org/1999/xlink" x="0px" y="0px"
	 viewBox="0 0 312.9 80" style="enable-background:new 0 0 312.9 80;" xml:space="preserve">
<style type="text/css">
	.st0{fill-rule:evenodd;clip-rule:evenodd;fill:#F4B01D;}
	.st1{fill-rule:evenodd;clip-rule:evenodd;fill:#AAD8B1;}
	.st2{fill-rule:evenodd;clip-rule:evenodd;fill:#FD5F15;}
	.st3{fill:#FFFFFF;}
	.st4{fill:#012C61;}
</style>
<g id="Layer_2">
</g>
<g id="Layer_1">
	<g>
		<path class="st0" d="M188.3,34.3c-4.4-6.7-10.1-9.2-16.4-9.1c-15.6,0.3-31.1,15.7-31,29.5c0,6.4-0.2,15.7,13.8,20
			c-9-8.1-8.2-14.5-7.9-21.4c0.2-7,3.6-13.8,10.6-20.3c-5.2,6.8-8,13.4-8.4,19.6c-0.6,9.6,2.5,21.7,15.3,22.1
			c2.9,0.1,6.6-1.1,8.8-2.7c-17.6,0.8-20.5-13.2-20.3-23.6c0.3-10.2,9.5-21.2,19-21.6C177.3,26.7,180.4,27.5,188.3,34.3L188.3,34.3z
			"/>
		<polygon class="st0" points="96.5,29.6 100,25.6 135.4,47.6 134.6,49.3 96.5,29.6 		"/>
		<polygon class="st0" points="112.4,14.8 115.7,12.2 141.7,36.6 140.6,38.2 112.4,14.8 		"/>
		<polygon class="st0" points="128.9,4.5 132.5,3 149.2,29.2 147.9,30.5 128.9,4.5 		"/>
		<polygon class="st0" points="146,0 149.9,0 158.2,23.5 156.5,24.1 146,0 		"/>
		<polygon class="st0" points="159.1,0.1 162.2,0.5 166.2,22 164.9,22.1 159.1,0.1 		"/>
		<polygon class="st0" points="172.1,2.7 174.8,4 171.3,22 170.3,21.7 172.1,2.7 		"/>
		<polygon class="st0" points="183.9,8.7 178.3,23.2 177.3,22.9 181.8,7.5 183.9,8.7 		"/>
		<polygon class="st0" points="190.9,15.2 183.1,25.7 182.3,25.2 189.6,14 190.9,15.2 		"/>
		<polygon class="st0" points="195.4,22 186.8,29.6 186.5,29 194.4,20.5 195.4,22 		"/>
		<polygon class="st0" points="197.2,27.8 189.3,33.3 189.1,32.6 196.7,26.6 197.2,27.8 		"/>
		<path class="st1" d="M80.5,51.5c10.7,5.1,22,8.3,33.5,8.3c29.8-0.1,33.5-15.1,89-8.7c-24.6-3.3-58.7,17.9-89,18
			C101.4,69.1,86.8,61.1,80.5,51.5L80.5,51.5z"/>
		<path class="st2" d="M164,46.6c28-4.1,54.4-1.8,77.9,11.6c-8.8-11.2-19.8-19.1-32.6-21C194,35,178.9,41.1,164,46.6L164,46.6z"/>
		<polygon class="st3" points="10.6,71.6 4.8,54.8 0,54.8 8.1,77.3 13,77.3 21,54.8 16.4,54.8 		"/>
		<rect x="25.3" y="54.8" class="st3" width="4.4" height="22.6"/>
		<rect x="188.6" y="54.8" class="st3" width="4.4" height="22.6"/>
		<rect x="255.6" y="54.8" class="st3" width="4.4" height="22.6"/>
		<polygon class="st3" points="280.3,70.2 270.8,54.8 266.4,54.8 266.4,77.3 270.8,77.3 270.8,62.9 280.3,77.3 284.7,77.3 
			284.7,54.8 280.3,54.8 		"/>
		<path class="st3" d="M103,54.8h-4.4v14.9c0,0,0.6,4.3-4.4,4.3c-5,0-4.6-4.3-4.6-4.3V54.8h-4.4v14.9c0,0-0.6,8,9,8
			c9.6,0,8.8-8,8.8-8V54.8z"/>
		<polygon class="st3" points="36.5,54.8 36.5,58.4 36.5,63.8 36.5,67.4 36.5,73.7 36.5,77.3 40.9,77.3 53.2,77.3 53.2,73.7 
			40.9,73.7 40.9,67.4 52.2,67.4 52.2,63.8 40.9,63.8 40.9,58.4 53.2,58.4 53.2,54.8 40.9,54.8 		"/>
		<polygon class="st3" points="109.8,54.8 109.8,58.4 109.8,63.8 109.8,67.4 109.8,73.7 109.8,77.3 114.2,77.3 126.5,77.3 
			126.5,73.7 114.2,73.7 114.2,67.4 125.5,67.4 125.5,63.8 114.2,63.8 114.2,58.4 126.5,58.4 126.5,54.8 114.2,54.8 		"/>
		<path class="st3" d="M139.6,63.1c-3.4-0.7-3.3-2-3.4-2.5c0-0.5,0-2.2,3.9-2.2s4.2,3.2,4.2,3.2l4.5-0.1c-0.1-6.8-7-7-8.8-7
			c-1.8,0-8.2,0.7-8.2,6.4c0,5.8,6.4,6.7,9.7,7.3c3.3,0.5,3.5,2,3.6,2.7c0,0.6,0,3.5-4.6,3.5s-5-4.4-5-4.4l-4.5,0.4
			c0.6,5.1,4.4,7.6,9.5,7.6c5.2,0,8.9-2,8.9-7.5C149.4,64.9,143,63.8,139.6,63.1z"/>
		<path class="st3" d="M170.1,54.8l-8.6,22.6h4.7l1.9-5.2h9.2l2,5.2h4.8l-9.1-22.6H170.1z M169.5,68.4l3-8.5l3.4,8.5H169.5z"/>
		<path class="st3" d="M212.1,67.4c0,0,6.3-0.4,6.3-6.1s-5-6.5-7.2-6.5c-1.7,0-5.5,0-7,0h-0.7h-3.7v22.6h4.4v-9.5h2.5
			c0,0,1.7,0.1,3.6,3.1c1.9,2.9,4.2,6.4,4.2,6.4h5.6C220.1,77.3,215.5,68.3,212.1,67.4z M210.1,64.3h-5.8v-6.1l0,0h6.2
			c0,0,3.2-0.1,3.2,3C213.7,64.4,210.1,64.3,210.1,64.3z"/>
		<polygon class="st3" points="311,77.3 302.2,63.8 310.8,54.8 304.8,54.8 295.2,65.3 295.2,54.8 290.8,54.8 290.8,77.3 295.2,77.3 
			295.2,71 298.9,67.2 305.2,77.3 		"/>
		<polygon class="st3" points="239.5,60.6 234.8,58.1 234.8,77.3 250.8,77.3 250.8,73.7 239.5,73.7 		"/>
		<path class="st3" d="M80.2,66.4c0-7.6-5-11.9-11.2-11.9c-6.2,0-11.2,4.4-11.2,11.9c0,7.6,5,11.9,11.2,11.9c1.8,0,3.6-0.4,5.1-1.3
			c1.9,1.6,4.1,2.7,4.8,3l1.8-3.1c0,0-2.1-0.9-3.8-2C78.9,72.8,80.2,69.8,80.2,66.4z M62.4,66.4c0-5.1,2.9-8.1,6.6-8.1
			c3.6,0,6.6,2.9,6.6,8.1c0,2.5-0.8,4.6-2.1,6c-1.5-1-3.1-1.9-4.1-2.1L68,72.5c0,0,1.4,0.5,3,1.6c-0.6,0.2-1.3,0.4-2,0.4
			C65.3,74.5,62.4,71.6,62.4,66.4z"/>
		<g>
			<polygon class="st4" points="12.4,70.6 6.6,53.8 1.8,53.8 10,76.3 14.9,76.3 22.8,53.8 18.2,53.8 			"/>
			<rect x="27.2" y="53.8" class="st4" width="4.4" height="22.6"/>
			<rect x="190.4" y="53.8" class="st4" width="4.4" height="22.6"/>
			<rect x="257.5" y="53.8" class="st4" width="4.4" height="22.6"/>
			<polygon class="st4" points="282.2,69.2 272.7,53.8 268.3,53.8 268.3,76.3 272.7,76.3 272.7,61.9 282.2,76.3 286.6,76.3 
				286.6,53.8 282.2,53.8 			"/>
			<path class="st4" d="M104.9,53.8h-4.4v14.9c0,0,0.6,4.3-4.4,4.3c-5,0-4.6-4.3-4.6-4.3V53.8h-4.4v14.9c0,0-0.6,8,9,8
				c9.6,0,8.8-8,8.8-8V53.8z"/>
			<polygon class="st4" points="38.3,53.8 38.3,57.4 38.3,62.8 38.3,66.4 38.3,72.7 38.3,76.3 42.7,76.3 55.1,76.3 55.1,72.7 
				42.7,72.7 42.7,66.4 54.1,66.4 54.1,62.8 42.7,62.8 42.7,57.4 55.1,57.4 55.1,53.8 42.7,53.8 			"/>
			<polygon class="st4" points="111.6,53.8 111.6,57.4 111.6,62.8 111.6,66.4 111.6,72.7 111.6,76.3 116,76.3 128.4,76.3 
				128.4,72.7 116,72.7 116,66.4 127.4,66.4 127.4,62.8 116,62.8 116,57.4 128.4,57.4 128.4,53.8 116,53.8 			"/>
			<path class="st4" d="M141.4,62.1c-3.4-0.7-3.3-2-3.4-2.5c0-0.5,0-2.2,3.9-2.2c3.9,0,4.2,3.2,4.2,3.2l4.5-0.1c-0.1-6.8-7-7-8.8-7
				c-1.8,0-8.2,0.7-8.2,6.4c0,5.8,6.4,6.7,9.7,7.3c3.3,0.5,3.5,2,3.6,2.7s0,3.5-4.6,3.5s-5-4.4-5-4.4l-4.5,0.4
				c0.6,5.1,4.4,7.6,9.5,7.6s8.9-2,8.9-7.5C151.3,64,144.9,62.8,141.4,62.1z"/>
			<path class="st4" d="M172,53.8l-8.6,22.6h4.7l1.9-5.2h9.2l2,5.2h4.8l-9.1-22.6H172z M171.3,67.4l3-8.5l3.4,8.5H171.3z"/>
			<path class="st4" d="M214,66.4c0,0,6.3-0.4,6.3-6.1s-5-6.5-7.2-6.5c-1.7,0-5.5,0-7,0h-0.7h-3.7v22.6h4.4v-9.5h2.5
				c0,0,1.7,0.1,3.6,3.1c1.9,2.9,4.2,6.4,4.2,6.4h5.6C221.9,76.3,217.3,67.3,214,66.4z M211.9,63.3h-5.8v-6.1l0,0h6.2
				c0,0,3.2-0.1,3.2,3S211.9,63.3,211.9,63.3z"/>
			<polygon class="st4" points="312.9,76.3 304,62.8 312.7,53.8 306.6,53.8 297.1,64.3 297.1,53.8 292.7,53.8 292.7,76.3 
				297.1,76.3 297.1,70 300.8,66.2 307,76.3 			"/>
			<polygon class="st4" points="241.3,59.6 236.6,57.1 236.6,76.3 252.6,76.3 252.6,72.7 241.3,72.7 			"/>
			<path class="st4" d="M241.4,55c0-0.1,0-1.2,0-1.2h-1.2C240.2,53.8,241.4,55.1,241.4,55z"/>
			<path class="st4" d="M82,65.4c0-7.6-5-11.9-11.2-11.9c-6.2,0-11.2,4.4-11.2,11.9c0,7.6,5,11.9,11.2,11.9c1.8,0,3.6-0.4,5.1-1.3
				c1.9,1.6,4.1,2.7,4.8,3l1.8-3.1c0,0-2.1-0.9-3.8-2C80.8,71.8,82,68.8,82,65.4z M64.2,65.4c0-5.1,2.9-8.1,6.6-8.1
				c3.6,0,6.6,2.9,6.6,8.1c0,2.5-0.8,4.6-2.1,6c-1.5-1-3.1-1.9-4.1-2.1l-1.4,2.3c0,0,1.4,0.5,3,1.6c-0.6,0.2-1.3,0.4-2,0.4
				C67.2,73.5,64.2,70.6,64.2,65.4z"/>
		</g>
	</g>
</g>
</svg>
