<?xml version="1.0" encoding="utf-8"?>
<!-- Generator: Adobe Illustrator 25.4.1, SVG Export Plug-In . SVG Version: 6.00 Build 0)  -->
<svg version="1.1" xmlns="http://www.w3.org/2000/svg" xmlns:xlink="http://www.w3.org/1999/xlink" x="0px" y="0px"
	 viewBox="0 0 213.8 80" style="enable-background:new 0 0 213.8 80;" xml:space="preserve">
<style type="text/css">
	.st0{fill:url(#SVGID_1_);}
	.st1{fill:url(#SVGID_00000011750451244075244890000000171040961206361504_);}
	.st2{fill:#333334;}
</style>
<g id="Layer_1">
</g>
<g id="Layer_2">
	<g>
		<linearGradient id="SVGID_1_" gradientUnits="userSpaceOnUse" x1="24.9821" y1="11.9054" x2="24.9821" y2="47.1597">
			<stop  offset="0" style="stop-color:#EFB243"/>
			<stop  offset="0.3611" style="stop-color:#E88737"/>
			<stop  offset="0.4234" style="stop-color:#E57135"/>
			<stop  offset="0.5077" style="stop-color:#E15B33"/>
			<stop  offset="0.5876" style="stop-color:#DF4D32"/>
			<stop  offset="0.6575" style="stop-color:#DE4832"/>
			<stop  offset="0.7558" style="stop-color:#A05259"/>
			<stop  offset="0.8722" style="stop-color:#5C5D83"/>
			<stop  offset="0.9566" style="stop-color:#32649E"/>
			<stop  offset="0.9997" style="stop-color:#2267A8"/>
		</linearGradient>
		<path class="st0" d="M27.3,45.9c0,0-5.9,1.6-8.3-1.6C16.6,41.2,0.3,16.9,0.3,16.9s-1-1.4,0.7-1.4s17.5,0,17.5,0L50,32.6L27.3,45.9
			z"/>
		
			<linearGradient id="SVGID_00000141434011027032844560000016886858884897322422_" gradientUnits="userSpaceOnUse" x1="-9.1103" y1="21.0807" x2="51.2948" y2="41.1114">
			<stop  offset="0.6139" style="stop-color:#333334;stop-opacity:0"/>
			<stop  offset="0.9382" style="stop-color:#333334"/>
		</linearGradient>
		<path style="fill:url(#SVGID_00000141434011027032844560000016886858884897322422_);" d="M27.3,45.9c0,0-5.9,1.6-8.3-1.6
			C16.6,41.2,0.3,16.9,0.3,16.9s-1-1.4,0.7-1.4s17.5,0,17.5,0L50,32.6L27.3,45.9z"/>
		<g>
			<path class="st2" d="M167.5,51h-5.9H160l-9.9,29h7.5l1.8-5.1h10L171,80h8.1l-9.9-29H167.5z M161.4,68.8l3.1-8.9l2.9,8.9H161.4z"
				/>
			<path class="st2" d="M129.7,51h-5h-8.2v6.3v16.3V80h8.2h5c0,0,11.3-0.6,11.3-9.8v-9.4C140.9,60.8,141.3,51,129.7,51z M132.7,70.2
				c0,0-0.5,3.4-5.6,3.4h-2.4V57.4h5c0,0,3.1,0.5,3.1,3.4V70.2z"/>
			<path class="st2" d="M203,51h-5h-8.2v6.3v6.5v6.3V80h8.2v-9.8h3.4c0,0,12.3,1.3,12.3-9.4S203,51,203,51z M203,63.9h-5v-6.5h5
				c0,0,2.9,0.3,2.9,3.4C205.9,63.9,203,63.9,203,63.9z"/>
		</g>
		<path class="st2" d="M27.3,45.9c0,0,18.4-2.9,35.1-0.9s29.4,5.4,32.3,1.9c2.9-3.5,25.4-45.3,25.4-45.3s1.3-1.6-1.8-1.6
			S94.4,0.8,94.4,0.8L27.3,45.9z"/>
	</g>
</g>
</svg>
