<?xml version="1.0" encoding="utf-8"?>
<!-- Generator: Adobe Illustrator 25.4.1, SVG Export Plug-In . SVG Version: 6.00 Build 0)  -->
<svg version="1.1" id="Layer_1" xmlns="http://www.w3.org/2000/svg" xmlns:xlink="http://www.w3.org/1999/xlink" x="0px" y="0px"
	 viewBox="0 0 95.2 80" style="enable-background:new 0 0 95.2 80;" xml:space="preserve">
<style type="text/css">
	.st0{fill:#1FA249;}
	.st1{fill:#FFF300;}
</style>
<path class="st0" d="M55.8,26.9c-1.3,0.1-3.9-0.1-7.8,4s-3.3,7.3-3.3,7.3s-1.7,0.1-0.9-2.8c0.9-2.9,2.6-5.2,3.9-6.4
	C49.1,27.8,52.6,24.6,55.8,26.9z"/>
<path class="st0" d="M60,7c0,0-2.4,1.4-1.6,1.4c0.8,0.1,5.6,0.6,7.1,4.5c0.1,0,13.2-4,13.2-4l8.9,3.8c0,0,0.9,0.6,2.4-0.2
	c1.5-0.8,0.2-1.9,0.2-1.9l-2.3-1.4c0,0,0.7-0.6,0.1-1.2c-0.6-0.6-2.2,0.4-2.2,0.4L84.1,7c0,0,2-0.1,3.5-0.4C89.1,6.2,94.1,4,94.1,4
	s1.3-0.6,0.9-2s-2.8-2-4.4-1.6c-1.5,0.4-14.1,3.8-14.1,3.8S65.5,0.6,59.8,0l-2.1,1.1l13.1,4.5c0,0-0.2,1.5-2.7,2L65,4.5l-2,0.9
	l1.1,2.7C64.1,8.1,62.6,7.1,60,7z"/>
<path class="st0" d="M35.3,48.2l0-0.1c0,0,0.8-14.7,9.1-22.3c8.3-7.6,17.9-10.3,17.9-10.3l-2.7-5c0,0-25.6,6.1-28.1,30.7
	c0,0-6.4-24.3-31.4-27.1v6.5c0,0,9,0.5,15.9,6c6.9,5.6,11.4,17.3,12.7,25.8l0,0.5c-0.9,0.7-1.8,1.5-2.8,2.3
	C15.5,64.5,9,74.5,12.2,78.3c3.1,3.8,11.4,1.6,25.1-9.5C51,57.7,54.2,49.5,51.1,45.7C48.8,43,42.8,43.7,35.3,48.2z M36,67.9
	C24.8,77.6,17.6,79,15,75.9c-2.6-3.1,3.2-11.1,12-18.9c0.6-0.5,1.2-1,1.8-1.5l0.1,6.7h6.3l0.1-11.4c6.2-3.7,11.3-4.5,13.1-2.3
	C51,51.6,50.6,55.3,36,67.9z"/>
<path class="st0" d="M43.3,40.7C43.3,40.7,43.3,40.7,43.3,40.7c-0.3,0.8-2.3,6.5-3,9.9C39.5,54.4,40,62.1,40,62.1h-1.6
	c0,0-0.5-6.7,0.3-11.9C39.4,45.1,43.2,40.9,43.3,40.7z"/>
<path class="st1" d="M44.2,47.9c-0.8,4.2-0.2,14.2-0.2,14.2h-4c0,0-0.4-7.7,0.3-11.4c0.7-3.5,2.7-9.1,3-9.9c0,0,0-0.1,0-0.1
	c0,0,0,0,0,0c0.2-0.6,0.8-0.7,1.2-0.6c0.4,0.1,1.1,0.7,1.2,1.2C45.8,41.7,45,43.6,44.2,47.9z"/>
<path class="st1" d="M55.8,26.9c-1.3,0.1-3.9-0.1-7.8,4s-3.3,7.3-3.3,7.3s4.9,0,8-3.3C55.9,31.7,55.8,26.9,55.8,26.9z M51.5,33.8
	c-1.8,2.1-3.7,1.7-3.7,1.7s0.1-2.2,1.1-3.6c1-1.3,3.3-3,3.6-2.8C52.8,29.2,53.2,31.7,51.5,33.8z"/>
</svg>
