<?xml version="1.0" encoding="utf-8"?>
<!-- Generator: Adobe Illustrator 25.4.1, SVG Export Plug-In . SVG Version: 6.00 Build 0)  -->
<svg version="1.1" id="Layer_1" xmlns="http://www.w3.org/2000/svg" xmlns:xlink="http://www.w3.org/1999/xlink" x="0px" y="0px"
	 viewBox="0 0 244.9 80" style="enable-background:new 0 0 244.9 80;" xml:space="preserve">
<style type="text/css">
	.st0{fill:#1FA249;}
	.st1{fill:#FFF300;}
</style>
<g>
	<path class="st0" d="M55.8,26.9c-1.3,0.1-3.9-0.1-7.8,4s-3.3,7.3-3.3,7.3s-1.7,0.1-0.9-2.8c0.9-2.9,2.6-5.2,3.9-6.4
		C49.1,27.8,52.6,24.6,55.8,26.9z"/>
	<rect x="53.4" y="68.8" class="st1" width="186.2" height="1.7"/>
	<rect x="53.4" y="70.5" class="st0" width="186.2" height="1.7"/>
	<path class="st0" d="M75.5,38.3h-1.7L58.7,62.8c0,0-1.2,1.7-2.4,1.7h-1.5l-0.4,1.6h8.5l0.6-1.6h-2.7c0,0-1.3,0.1-0.4-1.6
		c0.3-0.5,1.4-2.4,2.8-4.6h8.1l0.9,6.1H69l-0.5,1.7h13.3v-1.7h-2L75.5,38.3z M64,57c2.6-4.3,5.7-9.4,5.7-9.4l1.4,9.4H64z"/>
	<polygon class="st1" points="99.3,40.1 102.5,40.1 102.8,38.7 89.4,38.7 88.8,40.1 92.3,40.1 86.4,64.5 83.2,64.5 82.8,66.1 
		96.5,66.1 97,64.5 93.6,64.5 	"/>
	<polygon class="st1" points="182.3,40.1 185.4,40.1 185.7,38.7 172.3,38.7 171.8,40.1 175.3,40.1 169.4,64.5 166.2,64.5 
		165.8,66.1 179.5,66.1 179.9,64.5 176.5,64.5 	"/>
	<polygon class="st0" points="227.9,40.1 231.1,40.1 231.4,38.7 218,38.7 217.4,40.1 220.9,40.1 215,64.5 211.8,64.5 211.4,66.1 
		225.1,66.1 225.6,64.5 222.2,64.5 	"/>
	<path class="st0" d="M126.5,39.9c-2.8-1.5-7.8-1.2-7.8-1.2h-13.4l-0.5,1.4h3.5l-5.9,24.4h-3.2l-0.4,1.6h13.7l0.4-1.6h-3.4l2.9-12.5
		c0.6,0,1.6,0.1,2.8,0.3c2.3,0.4,2.1,2.3,2,3.5c-0.1,1.2-0.7,3.9-0.9,6.3c-0.2,2.4,1.7,4.5,4.6,4.5c2.8,0,5.9-1.3,5.9-1.3l-0.2-1.2
		c0,0-1.3,0.3-2.3,0.3c-1,0-0.8-0.4-0.9-1.3s1.2-6.3,0.2-8.5c-1-2.3-5.5-3.1-5.5-3.1c8.9-0.8,10-5.2,10.3-5.7
		C128.6,45.2,129.3,41.4,126.5,39.9z M120.5,47.4c-0.8,3.3-4.1,3.2-4.1,3.2h-3.6l2.5-10.5h1.9h1.2c0.2,0,0.5,0,0.9,0
		c1.8,0,2.2,0.9,2.2,1.4C121.5,41.9,121.2,44.1,120.5,47.4z"/>
	<path class="st0" d="M165.3,56.8c0,0-2.3,7.7-10.3,7.7h-3.4l5.8-24.4h3.2l0.3-1.4h-13.4l-0.5,1.4h3.5l-5.9,24.4h-3.2l-0.4,1.6h12.3
		h1.5h9.6l2.4-9.3H165.3z"/>
	<path class="st0" d="M235.2,38.7l-0.4,1.6h2.9c0,0,0.6,0.1,0.3,0.4c-0.3,0.4-12.2,10.3-12.2,10.3s-0.5,0.6-0.2,1.3
		c0.3,0.7,5.3,12.1,5.3,12.1h-3.2l-0.4,1.6h14.4l0.3-1.7h-3L231.8,48l8.7-7.2c0,0,0.9-0.6,2.1-0.6c1.2,0,2.3,0,2.3,0l0.3-1.6H235.2z
		"/>
	<path class="st0" d="M212.5,40.1h2.5l0.4-1.4h-8.6l-0.4,1.4c0,0,1.4,0,2.5,0c1.1,0,0.8,1.1,0.8,1.1l-2.9,13.2L199,38.7h-10.7
		l-0.5,1.5c0,0,1.2,0,2.3,0c1.2,0,0.8,0.9,0.8,0.9s-4.8,21.1-5.1,22.3c-0.2,0.7-0.7,1-1.1,1.1h-2.6l-0.5,1.7h9.1l0.5-1.7h-2.9
		c0,0,0,0,0,0c-0.7,0-0.8-1-0.8-1l4.8-21.2l12,24.4h1.2c0,0,5.8-24.9,6-25.7C211.8,40,212.5,40.1,212.5,40.1z"/>
	<path class="st0" d="M60,7c0,0-2.4,1.4-1.6,1.4c0.8,0.1,5.6,0.6,7.1,4.5c0.1,0,13.2-4,13.2-4l8.9,3.8c0,0,0.9,0.6,2.4-0.2
		c1.5-0.8,0.2-1.9,0.2-1.9l-2.3-1.4c0,0,0.7-0.6,0.1-1.2c-0.6-0.6-2.2,0.4-2.2,0.4L84.1,7c0,0,2-0.1,3.5-0.4C89.1,6.2,94.1,4,94.1,4
		s1.3-0.6,0.9-2s-2.8-2-4.4-1.6c-1.5,0.4-14.1,3.8-14.1,3.8S65.5,0.6,59.8,0l-2.1,1.1l13.1,4.5c0,0-0.2,1.5-2.7,2L65,4.5l-2,0.9
		l1.1,2.7C64.1,8.1,62.6,7.1,60,7z"/>
	<path class="st0" d="M35.3,48.2l0-0.1c0,0,0.8-14.7,9.1-22.3c8.3-7.6,17.9-10.3,17.9-10.3l-2.7-5c0,0-25.6,6.1-28.1,30.7
		c0,0-6.4-24.3-31.4-27.1v6.5c0,0,9,0.5,15.9,6c6.9,5.6,11.4,17.3,12.7,25.8l0,0.5c-0.9,0.7-1.8,1.5-2.8,2.3
		C15.5,64.5,9,74.5,12.2,78.3c3.1,3.8,11.4,1.6,25.1-9.5C51,57.7,54.2,49.5,51.1,45.7C48.8,43,42.8,43.7,35.3,48.2z M36,67.9
		C24.8,77.6,17.6,79,15,75.9c-2.6-3.1,3.2-11.1,12-18.9c0.6-0.5,1.2-1,1.8-1.5l0.1,6.7h6.3l0.1-11.4c6.2-3.7,11.3-4.5,13.1-2.3
		C51,51.6,50.6,55.3,36,67.9z"/>
	<path class="st0" d="M43.3,40.7C43.3,40.7,43.3,40.7,43.3,40.7c-0.3,0.8-2.3,6.5-3,9.9C39.5,54.4,40,62.1,40,62.1h-1.6
		c0,0-0.5-6.7,0.3-11.9C39.4,45.1,43.2,40.9,43.3,40.7z"/>
	<path class="st1" d="M44.2,47.9c-0.8,4.2-0.2,14.2-0.2,14.2h-4c0,0-0.4-7.7,0.3-11.4c0.7-3.5,2.7-9.1,3-9.9c0,0,0-0.1,0-0.1
		c0,0,0,0,0,0c0.2-0.6,0.8-0.7,1.2-0.6c0.4,0.1,1.1,0.7,1.2,1.2C45.8,41.7,45,43.6,44.2,47.9z"/>
	<path class="st1" d="M55.8,26.9c-1.3,0.1-3.9-0.1-7.8,4s-3.3,7.3-3.3,7.3s4.9,0,8-3.3C55.9,31.7,55.8,26.9,55.8,26.9z M51.5,33.8
		c-1.8,2.1-3.7,1.7-3.7,1.7s0.1-2.2,1.1-3.6c1-1.3,3.3-3,3.6-2.8C52.8,29.2,53.2,31.7,51.5,33.8z"/>
</g>
</svg>
