<?xml version="1.0" encoding="utf-8"?>
<!-- Generator: Adobe Illustrator 25.4.1, SVG Export Plug-In . SVG Version: 6.00 Build 0)  -->
<svg version="1.1" xmlns="http://www.w3.org/2000/svg" xmlns:xlink="http://www.w3.org/1999/xlink" x="0px" y="0px"
	 viewBox="0 0 79.78 80" style="enable-background:new 0 0 79.78 80;" xml:space="preserve">
<style type="text/css">
	.st0{fill:#ED164A;}
</style>
<g id="Layer_2">
</g>
<g id="Layer_1">
	<g>
		<path id="polygon4874" class="st0" d="M26.67,66.67l13.34-13.34l13.33,13.34L40.01,80L26.67,66.67z"/>
		<path id="polygon4876" class="st0" d="M26.67,13.34L40.01,0l13.33,13.34L40.01,26.67L26.67,13.34z"/>
		<path id="polygon4878" class="st0" d="M53.34,40l13.34-13.33L80.01,40L66.68,53.33L53.34,40z"/>
		<path id="polygon4880" class="st0" d="M0,40l13.34-13.33L26.67,40L13.34,53.33L0,40z"/>
		<path id="path4882" class="st0" d="M16.3,56.3v-5.92l-2.96,2.96L16.3,56.3z M19.26,59.26l2.97,2.96V44.45l-2.97,2.97V59.26z
			 M25.19,41.49v23.7l1.48,1.48l1.48-1.48v-23.7L26.67,40L25.19,41.49z M37.04,50.37v5.92l2.97-2.97L37.04,50.37z M31.11,62.22
			l2.97-2.96V47.41l-2.97-2.97V62.22z"/>
		<path id="path4884" class="st0" d="M42.97,29.62v-5.92L40,26.67L42.97,29.62z M45.93,32.59l2.97,2.96V17.77l-2.97,2.97V32.59z
			 M51.85,14.82v23.7L53.34,40l1.48-1.48v-23.7l-1.48-1.49L51.85,14.82z M63.7,23.71v5.92l2.97-2.95L63.7,23.71z M57.78,35.55
			l2.97-2.96V20.74l-2.97-2.97V35.55z"/>
		<path id="path4886" class="st0" d="M42.97,56.3v-5.92L40,53.33L42.97,56.3z M45.93,59.26l2.97,2.96V44.45l-2.97,2.97V59.26z
			 M51.85,41.49v23.7l1.49,1.48l1.48-1.48v-23.7L53.34,40L51.85,41.49z M63.7,50.37v5.92l2.97-2.97L63.7,50.37z M57.78,62.22
			l2.97-2.96V47.41l-2.97-2.97V62.22z"/>
		<path id="path4888" class="st0" d="M16.3,29.62v-5.92l-2.96,2.97L16.3,29.62z M19.26,32.59l2.97,2.96V17.77l-2.97,2.97V32.59z
			 M25.19,14.82v23.7L26.67,40l1.48-1.48v-23.7l-1.48-1.49L25.19,14.82z M37.04,23.71v5.92l2.97-2.95L37.04,23.71z M31.11,35.55
			l2.97-2.96V20.74l-2.97-2.97V35.55z"/>
	</g>
</g>
</svg>
