<?xml version="1.0" encoding="utf-8"?>
<!-- Generator: Adobe Illustrator 25.4.1, SVG Export Plug-In . SVG Version: 6.00 Build 0)  -->
<svg version="1.1" id="Layer_1" xmlns="http://www.w3.org/2000/svg" xmlns:xlink="http://www.w3.org/1999/xlink" x="0px" y="0px"
	 viewBox="0 0 181 80" style="enable-background:new 0 0 181 80;" xml:space="preserve">
<style type="text/css">
	.st0{fill:#0C0C11;}
	.st1{fill:#0B1C54;}
</style>
<path class="st0" d="M-238.6-885.5c-0.7-0.1-1.8,0-2.5,0c0.5-0.4,1.2-0.7,1.6-0.5c0.1,0,0.1,0,0.2,0.1
	C-239.1-885.8-238.8-885.6-238.6-885.5z"/>
<g id="text835">
</g>
<g>
	<path class="st1" d="M0,25.5l1.8-1c0,0,2.3-1,2.3,1.9s0,21.5,0,21.5s-0.3,2.7-2.4,3.8L0,52.5v0.8l14.9-7.5V45l-1.3,0.5
		c0,0-2.7,1.1-2.7-1s0-22,0-22s0.2-2.4,2.3-3.6l1.6-0.9v-0.7L0,24.7V25.5z"/>
	<path class="st1" d="M39.4,25.1l-0.5,0.1c0,0-1.4,9.1-5.6,10.8l-3.7,1.6c0,0-1.7,0.4-1.7-1.2s0-21.8,0-21.8s0-2.5,2-3.5l1.2-0.4
		l0-0.7L20,14.8v0.7l1.3-0.4c0,0,1.7-0.4,1.7,1.6s0,22.8,0,22.8s-0.1,1.7-1.7,2.5L20,42.5v0.7l18.8-7.9L39.4,25.1z"/>
	<path class="st1" d="M57.7,30.6l-2.1,0.2c0,0-2,0.2-2-1.9s0-22.4,0-22.4s0.1-2,2.3-2.5l1.8-0.3V2.8L42.9,5.5v0.6l1.4-0.2
		c0,0,2.7-0.1,2.7,2.2s0,22.6,0,22.6s-0.2,1.7-2.3,2.3l-1.8,0.4V34l14.8-2.6V30.6z"/>
	<path class="st1" d="M69.8,29.2c0,0-4.1,0.4-3.2-2.8c0.2-0.9,0.8-2.6,1.5-4.5c1.6-0.1,6.4-0.4,8.5-0.5l1.7,4.6c0,0,0.8,2.1-0.8,2.5
		l-1.8,0.2v0.6l11.5-0.5v-0.7c0,0-1.5,0.2-2.2-1.4c-0.7-1.7-10-26.2-10-26.2h-0.4l-9.6,26.4c0,0-1.2,2.9-3.5,2.9v0.7l8.4-0.7V29.2z
		 M72.5,10.2l3.6,9.7l-7.4,0.5C70.4,15.6,72.5,10.2,72.5,10.2z"/>
	<path class="st1" d="M98.7,28.5c0,0-0.5,0-1.2-0.4c-0.8-0.4-2.1-1.1-2.1-2.5c0-1.4,0-22.6,0-22.6l9.1,26.9h0.3l9-24.9v22.5
		c0,0,0,2.2-2,2.2l-1.3-0.1v0.6l11.9,1.3v-0.6l-1.4-0.2c0,0-1.7,0.1-1.7-2.2s0-23.1,0-23.1s0.3-1.8,1.7-1.8c1.4,0,1.4,0,1.4,0V2.8
		l-9-0.9l-6.6,18.4l-6.5-19.6L90.9,0v0.7c0,0,3.1,0,3.1,2.5s0,22.7,0,22.7s-0.4,1.9-2.1,1.9h-1v0.7l7.7,0.6V28.5z"/>
	<path class="st1" d="M136.9,35.4c-4.4-1.6-4.4-4.7-4.4-4.7V11.5l19.1,30.2l0.8,0.2c0,0,0-22.9,0-25.2S156,15,156,15v-0.7l-9.3-3.3
		v0.8c4.2,1.4,3.9,4.6,3.9,4.6v13.3L136.9,7.6l-10.1-3.5v0.7c1.6,0.4,2.5,1.5,2.5,1.5l1.6,2.4c0,0,0,19.5,0,21.7s-2.8,1.8-2.8,1.8
		l-1.5-0.4v0.7l10.3,3.5V35.4z"/>
	<path class="st1" d="M178.6,52l-9.8-31.2l-0.3-0.2c0,0-8.7,19-9.8,21.1c-1,2-3,1.1-3,1.1v0.8l8,3.9v-0.7c-4.3-2.2-3-5.1-3-5.1
		l1.4-3.1l8.2,4.2c0.9,2.9,1.6,5.4,1.9,6.3c0.7,2.5-2.7,0.4-2.7,0.4l0,0.7l11.4,5.7v-0.7C179.3,54.2,178.6,52,178.6,52z M162.8,37.2
		l3.6-7.8c0,0,1.8,6,3.5,11.3L162.8,37.2z"/>
	<path class="st1" d="M42.3,62h2c0,0,1.1,0.1,1.1,0.9c0,0.9,0.1,15,0,14.9c-0.1-0.1-0.1,0.9-1.1,0.9h-2V80h10.4v-1.2h-2.1
		c0,0-1-0.2-1-1s0-14.9,0-14.9s0.2-0.8,1-0.8h2.1v-1.2H42.3V62z"/>
	<path class="st1" d="M38.6,77.2L31,60.3h-1.3c0,0-5.9,12.9-7.2,15.8c-1,2.3-2.6,2.6-3.2,2.7h-0.2V80h7.7v-1.2h-1.2
		c-1.7,0-1.8-2.2-1.8-2.2l1.2-2.7h7.7c0.8,1.7,1.4,3.1,1.6,3.6c0.5,1.1,0,1.3-0.4,1.4h-0.3h-2V80h9.7v-1.2
		C39,78.8,38.6,77.2,38.6,77.2z M25.6,72.5l3.3-7.4c0,0,1.8,3.9,3.3,7.4H25.6z"/>
	<path class="st1" d="M149.6,62h2c0,0,1.1,0.1,1.1,0.9c0,0.9,0.1,15,0,14.9c-0.1-0.1-0.1,0.9-1.1,0.9h-2V80H160v-1.2h-2.1
		c0,0-1-0.2-1-1s0-14.9,0-14.9s0.2-0.8,1-0.8h2.1v-1.2h-10.4V62z"/>
	<path class="st1" d="M86.8,60.8L86.4,68h1.1c0,0,1.1-5.9,4.1-5.9h0.9c0,0,1.1,0.1,1.1,0.9c0,0.9,0.1,15,0,14.9
		c-0.1-0.1-0.1,0.9-1.1,0.9h-2.2V80h11v-1.2h-2.4c0,0-1-0.2-1-1s0-14.9,0-14.9s0.2-0.8,1-0.8h0.7c0,0,3.9,0,4.4,5.9h1.3l-0.2-7.2
		H86.8z"/>
	<path class="st1" d="M73.7,77.8c-1,0-1.3-2.1-1.8-3.6c-0.5-1.5-2-4.1-4.5-4.1c0,0,6.4-0.4,6.4-4.5s-4-4.8-7.8-4.8H55.6V62h1.8
		c0,0,1.1,0.1,1.1,0.9c0,0.9,0.1,15,0,14.9c-0.1-0.1-0.1,0.9-1.1,0.9h-1.8V80H66v-1.2h-2.3c0,0-1-0.2-1-1c0-0.4,0-3.7,0-7.2h2.3
		c0,0,2.1,0.4,2.6,3.2c0.5,2.7,0.7,6.2,4.1,6.2c3.4,0,4.2-2.4,4.2-4.4h-1C75.1,75.6,74.7,77.8,73.7,77.8z M66,69.4h-3.2
		c0-3.4,0-6.5,0-6.5s0.2-0.8,1-0.8H66c0,0,3.3,0,3.3,3.4C69.3,68.3,67.3,69.2,66,69.4z"/>
	<path class="st1" d="M139.5,69.1c2.4-2.6,4.7-5.1,5.4-5.8c1.7-1.7,2.9-1.7,2.9-1.7h0.4v-1.2h-8.3v1.2h0.6c2.8,0,1.6,2.3,1.6,2.3
		s-1.6,1.8-3.5,4.1l-4-4.8c0,0-0.9-1.5,1.1-1.5h1.2v-1.2h-10.1v1.2h0.7c0.4,0,1.2,0.2,1.9,1.1c0.5,0.6,3.7,4.6,6.6,8.3
		c-1.8,2.1-3.6,4.1-4.6,5.2c-1.9,2.1-3,2.5-3.5,2.6c-2.3-0.1-2.7-1.6-2.7-1.6l-7.6-16.9h-1.3c0,0-5.9,12.9-7.2,15.8
		c-1,2.3-2.6,2.6-3.2,2.7h-0.2V80h7.7v-1.2h-1.2c-1.7,0-1.8-2.2-1.8-2.2l1.2-2.7h7.7c0.8,1.7,1.4,3.1,1.6,3.6c0.5,1.1,0,1.3-0.4,1.4
		h-0.3h-2V80h6h3.7h7.2v-1.2h-0.9c-2.2,0-1.3-2.5-1.3-2.5s1.7-1.9,3.8-4.2c2.3,2.9,4.2,5.3,4.2,5.3s0.8,1.4-0.8,1.4h-1.6V80h10.1
		v-1.2h-1.2L139.5,69.1z M112.1,72.5l3.3-7.4c0,0,1.8,3.9,3.3,7.4H112.1z"/>
</g>
</svg>
