<svg enable-background="new 0 0 92.5 80" viewBox="0 0 92.5 80" xmlns="http://www.w3.org/2000/svg"><g fill="#646b70"><path d="m64.7 79.9c-2.3 0-4.7-1.3-4.7-3.9 0-2.8 1.9-4.1 5.6-4.1h3.4c0-2.2-1.3-3.4-3.8-3.4-1.2 0-2.4.3-3.7.9l-.1.1-.5-1.2.1-.1c1.4-.7 2.9-1.1 4.4-1.1 1.7 0 3 .4 3.8 1.3.8.8 1.2 2 1.2 3.5v7.8h-1.4v-1.6c-.6.7-2 1.8-4.3 1.8m-3.2-4c0 1.5 1.4 2.7 3.3 2.7 2.1 0 4.3-1.2 4.3-3.9v-1.5h-3.3c-3.1 0-4.3.8-4.3 2.7"/><path d="m12.8 79.9c-2.3 0-4.7-1.3-4.7-3.9 0-2.8 1.9-4.1 5.6-4.1h3.5c0-2.2-1.3-3.4-3.8-3.4-1.2 0-2.4.3-3.7.9l-.1.1-.6-1.3.1-.1c1.4-.7 2.9-1.1 4.4-1.1 1.7 0 3 .4 3.8 1.3.8.8 1.2 2 1.2 3.5v7.8h-1.4v-1.6c-.5.8-2 1.9-4.3 1.9m-3.2-4c0 1.5 1.4 2.7 3.3 2.7 2.1 0 4.3-1.2 4.3-3.9v-1.5h-3.3c-3 0-4.3.8-4.3 2.7"/><path d="m86.8 79.9c-2.3 0-4.7-1.3-4.7-3.9 0-2.8 1.9-4.1 5.6-4.1h3.4c0-2.2-1.3-3.4-3.8-3.4-1.2 0-2.4.3-3.7.9l-.1.1-.5-1.3.1-.1c1.4-.7 3-1.1 4.4-1.1 1.7 0 3 .4 3.8 1.3.8.8 1.2 2 1.2 3.5v7.8h-1.4v-1.6c-.5.8-2 1.9-4.3 1.9m-3.2-4c0 1.5 1.4 2.7 3.3 2.7 2.1 0 4.3-1.2 4.3-3.9v-1.5h-3.3c-3.1 0-4.3.8-4.3 2.7"/><path d="m73.6 64.2h1.4v15.5h-1.4z"/><path d="m78.3 64.2h1.5v1.7h-1.5z"/><path d="m78.3 67.2h1.5v12.5h-1.5z"/><path d="m48.1 64.2h-1.5v15.5h1.5v-11.1h2.7v-1.4h-2.7z"/><path d="m30.8 73.3c0 3.3-1.5 5.2-4.1 5.2-3.6 0-3.6-3.3-3.6-4.7v-6.6h-1.5v7.3c0 3.5 1.7 5.4 4.9 5.4 2.5 0 3.8-1.4 4.3-2.2v2h1.5v-12.5h-1.5z"/><path d="m42.8 73.8c-.8-.5-1.8-.9-2.8-1.2h-.1c-.6-.2-1.2-.4-1.7-.6-.6-.3-1-.5-1.3-.8-.2-.2-.3-.5-.3-.9 0-.6.3-1.1.7-1.4.5-.3 1.1-.5 1.9-.5 1.1 0 2.4.4 3.6 1.1l.1.1.7-1.2-.1-.1c-1.3-.8-2.9-1.2-4.3-1.2-1.2 0-2.3.3-3 1-.8.6-1.2 1.5-1.2 2.6 0 .5.1 1 .3 1.4s.5.7.9 1c.8.5 1.8.8 2.8 1.1.7.2 1.2.4 1.8.6.6.3 1 .5 1.2.9.2.3.3.6.3 1 0 .6-.3 1.2-.8 1.6s-1.2.6-2 .6c-1.4 0-2.9-.5-4.2-1.5l-.1-.1-.8 1.2.1.1c1.4 1 3.3 1.7 5 1.7 1.2 0 2.3-.3 3.1-1s1.3-1.6 1.3-2.8c0-.5-.1-1-.3-1.4-.1-.7-.4-1-.8-1.3"/><path d="m54.4 70.1v-2.9h-1.5v12.5h1.5v-5.2c0-4.1 2.6-5.9 5.1-5.9h.1v-1.5h-.3c-2 0-3.8 1.1-4.9 3"/></g><path d="m30.2 56.2-28.5-55.8h42.9c2.9 0 4.6.6 6.6 2.2l34.8 29.1-12.1 27.3h-39.5c-1.9 0-3.2-.9-4.2-2.8z" fill="#fff"/><path d="m34 34.8s.1-.1.1-.2.1-.2 0-.3v-.1c-.1-.2.1-.4.1-.6.1 0 .2-.2.1-.2 0-.1.1-.1.1-.2-.1-.1 0-.2 0-.2-.1-.2.1-.5.1-.7 0 0 0 0 0-.1 0 0 0 0 0-.1s.1-.3.1-.4c.1-.1 0-.2.1-.3 0-.2.1-.4.1-.6 0 0-.1 0 0-.1 0-.1 0-.1 0-.2 0-.1 0-.2 0-.2v-.2c.1 0 0 0 0-.1s0-.1.1-.2c0-.1 0-.2.1-.3 0-.1 0-.1 0-.2v-.1s0 0 0-.1v-.1c.1-.2 0-.4.2-.6 0-.1.1-.3.1-.4 0-.3.1-.4.3-.6 0-.1 0-.1.1-.2 0-.3 0-.6.1-.9v-.1c0-.2.1-.3.1-.4 0-.2.3-.4.2-.6.1-.2.1-.4.2-.6.1-.1.2-.3.2-.4-.2-.2 0-.4 0-.6 0-.1.1-.1.1-.2-.1-.1.1-.2 0-.3v-.1c0-.1.1-.1 0-.1 0-.1 0-.2.1-.3 0-.2.1-.3.2-.5v-.1-.1-.1s0 0 0-.1c.1 0 0-.2.1-.2.1-.1 0-.2.1-.3 0 0 0-.1.1-.2.1 0 0-.2.1-.2 0-.1 0-.1 0-.2v-.1s.1-.1.1-.2.1-.2.1-.2c.1-.1.2-.3.2-.4.1 0 0-.2.1-.3.1-.1 0-.2 0-.3.1-.1.1-.3.2-.4 0-.1.1-.2.1-.3 0 0 0 0 0-.1 0 0 0 0 0-.1 0-.1.1-.1.1-.2.1 0 0-.1.1-.1.1-.2.2-.5.4-.8 0-.1.1-.2.1-.3.1-.1.1-.2.2-.3 0-.1 0-.1 0-.2s0 0 0-.1c.1-.2.1-.4.3-.5 0 0 0-.2.1-.1 0-.1 0-.1.1-.1-.1 0 .1-.1 0-.1.2-.2.2-.4.4-.6.1-.1.2-.3.3-.4s.1-.1.1-.1h.1c.3-.3.3-.3.3-.3s0 0 .1-.1c.1 0 .1 0 .2-.1 0-.1.1 0 0 0h.1s.1-.1 0-.1c0-.1 0 0 0-.1-.1.1.1 0 0 0 .1 0 0-.1.1-.2.1-.1-.1-.2.1-.3s0 0 0-.1c0 0 0 0 0-.1.1-.1.1-.2.2-.3.1-.2.1-.4.2-.6s.1-.3 0-.4v-.1c0-.1-.1-.3-.1-.4-.1-.1-.1-.2-.2-.4 0-.1-.1-.2-.2-.3s-.1 0-.1-.1 0 0 0-.1c-.1 0-.1-.1-.2-.1-.1-.1-.3-.1-.5-.2-.7-.3-1.4 0-1.9.5 0-.1 0-.1 0-.1v.1s-.1 0-.1.1c-.2.2-.4.5-.5.8-1.7 3.7-3 7.8-4.3 11.6-1 3.3-2 6.8-2.6 10.2-.6 2.6-1 5.3-1.3 7.9v.1c0 .1-.1.2-.1 0 0 0 0-.1-.1 0-.1-.2.1-.6-.2-.7.1-.3-.1-.7 0-1 .1-.2 0-.3 0-.5-.1-.1-.1-.1-.1-.2.1 0 0-.1 0 0-.1.1 0-.2 0-.2s0 0-.1 0c0 0 0 0-.1 0-.1.1-.1-.3 0-.3 0-.1-.1-.1 0-.1 0-.1 0-.2.1-.2.1-.2-.1-.4-.1-.5-.1-.3-.1-.8-.2-1.1.1-.1 0-.2 0-.2s.1 0 .1-.1c-.1-.2-.2-.3-.1-.6 0-.2-.2-.3-.1-.5-.1 0 0-.1-.1-.1 0-.1.1-.2 0-.3-.2 0 0-.5-.1-.5 0-.3-.1-.5-.1-.9.1 0 0-.1 0-.1 0-.1 0-.1 0-.1 0-.1 0-.1 0-.2 0-.1 0-.1 0-.1-.1-.1.1-.1 0-.2 0-.1 0-.2-.1-.2.1-.1.1-.1-.1-.2-.1-.1 0-.1 0-.2 0 0-.1-.2 0-.2 0-.1-.2 0-.1-.1v-.1c0-.1 0-.1 0-.1-.1-.1-.1-.2 0-.2-.3-.5-.3-.8-.3-1.3-.1 0 0-.1 0-.2 0-.1-.1-.4-.1-.5 0-.2 0-.5-.1-.7-.1-.3-.1-.7-.2-1-.2-.6-1-.9-1.6-.6-.7.2-.9.9-1 1.5 0 .1-.1.2-.1.3-.4 1.3-.8 2.6-1.3 3.9-.1.6-.5 1.3-.6 1.8 0 0-.1.1 0 .2-.1.4-.3.8-.5 1.2-.1.2-.1.4-.2.6-.4 1.1-.7 2.5 1 2.3 0 0 .1 0 .1-.1.2 0 .4-.4.6-.4-.1-.2.1-.2.1-.4.1-.1.1-.3.2-.5-.1-.1.1-.1.1-.1.1-.1.1-.3.1-.4s.3-.1.1-.1c0-.1.1-.2.1-.2v-.1s0-.1.1-.1c0-.1 0 0 0-.1s0 0 0-.1c-.1 0 0-.1 0-.2v-.1c-.1 0 0-.2 0-.1v-.1s.1 0 .1-.1v-.1-.1s0 0 0-.1c0 0 .1 0 0-.1 0 0 .2-.1.1-.1-.1-.1.1 0 0-.1v-.1c0 .1-.1-.2 0-.1 0 0 0-.1.1 0 0 0 0 .1 0 0 0 0-.1 0 0-.1s0 0 0-.1c0 0 .1.1.1 0v-.1s0 0 0 0 0 0 0-.1c0 0 0-.1 0-.2h.1.1.1s0 .1.1.1v.1.1c.1-.1.2-.1.1 0 0 .1-.1.1 0 .1s.1 0 0 .1v.1.1c0 .1-.1.3.1.3v.1c0 .1.1.2 0 .3h.1c.1.4.1.9.2 1.3 0 .3.1.6.1.8v.3s0 .1.1.1v.1c0 .2.1.4 0 .6.1.7.2 1.5.3 2.2.1.5.1 1 .2 1.5v.1c.1-.1 0 .1 0 .1v.3.2.1.1c0 .1.1.3.1.3v.2.2.2.2.1.1s0 .1.1.2v.1.1c.1.1-.2.5 0 .5 0 0 .1.1.1.1v.1c0 .1-.1.1-.1.2v.1h.1c.1.2 0 .4.1.5v.1c-.1 0 0 0 0 .1v.1.3s-.1.1 0 .1c.1.2.1.5.1.7v.1.1.1c0 .3.1.7.2 1v.1.1.2.2.1c0 .1 0 .2.1.3 0 .1.1.3.1.4v.2s.1.1.1.1c.1 0 .1.1.1.2.1.1.2.1.2.1.3.2.7.1 1 0h.1c.1 0 .2-.1.3-.2 0 0 0 0 0-.1.1-.2.1-.4.2-.6 0-.1 0-.2.1-.2-.1 0 0-.3 0-.4 0-.3.1-.7.2-1.1 0-.1 0-.3.1-.4 0-.2.1-.5.1-.7 0-.1 0-.1 0-.2.1-.1 0-.3.1-.3 0-.1 0-.1 0-.2 0 0 0-.1 0-.2 0-.2 0-.4.1-.6 0-.1 0-.2 0-.3v-.2c0-.1 0-.2 0-.4 0-.3.1-.7.1-1 0-.2.1-.4.1-.5v-.1c0-.2 0-.3.1-.5v-.1c.1 0 0-.1 0-.1s0 0 0-.1c0-.1 0-.1 0-.2h.1s.1-.1 0-.1c-.1-.1-.1-.1-.1-.3s0-.4.1-.7c0-.1 0-.2 0-.3s.1-.1.1-.2v-.1c.1-.1.1-.2.1-.4 0-.1.1-.2 0-.3-.1 0 0-.1 0-.1-.1 0-.1 0-.2-.1v-.1c0-.1 0-.2 0-.3 0-.1.1-.1 0-.2 0-.1 0-.2 0-.2 0-.1 0-.3.1-.4.1 0 0 0 0-.1v-.1s0 0 0-.1v-.1c.1-.1 0-.3 0-.4.1-.2 0-.4.1-.6v-.2-.1-.1-.1-.1c3.2-1.7 3.2-1.7 3.2-1.8zm6.2-7.7v.1c-.1 0 0 .1 0 .1 0 .2-.2.3-.2.4s-.1.1-.2.1v.1c0 .1-.1.1-.1.1s-.1 0-.1.1c-.1 0-.1.1-.2.1 0 0 0 .1-.1.1-.1.1-.2.1-.2.2 0 0 0 0-.1 0 0 0-.1 0-.1.1 0 0-.1 0-.1.1 0 0 0 0-.1 0s-.1 0-.1.1c-.1 0-.1 0-.2 0h-.1-.1c0-.1-.1 0-.2 0s-.1-.1-.1-.1 0 0 0-.1c0-.1-.1-.2-.1-.4 0-.1 0-.3.1-.4 0-.1 0-.1.1-.1.2-.6.9-1.2 1.6-1.3.2 0 .3-.1.5 0h.1c.1 0 .1.3.2.4.1 0 0 .2.1.2-.2-.1-.3 0-.3.1zm-1 5.7c-.3.1-.2.4 0 .6-.1.1 0 .3 0 .4-.2.5 0 .9-.3 1.4 0 .7-.1 1.4-.2 2.1v.1c0 .5-.1.9-.1 1.4v.1c-.1.1 0 .3 0 .4.1.1 0 .2 0 .2 0 .1 0 .3-.1.4 0 .2 0 .5-.1.7 0 .1-.2.3-.1.3.2-.1.1.1.1.2-.1 0-.1 0-.1-.1 0 .3-.1.1-.3.2-.4.4-1.3 1-1.8.5-.1-.1-.1-.4-.2-.5 0-.9.1-1.8.1-2.6.1-.2 0-1.2.1-1.2 0-.1 0-.2 0-.2 0-.1 0-.3 0-.4.1-.4 0-.9.1-1.3-.1-.5.1-1.2.1-1.7.2-.4.3-1.1.7-1.4 0-.1.2-.2.3-.2.5-.5 1.6-.9 1.7.1-.1 0-.1.1 0 .2 0 .2 0 .3.1.3zm3.6-3c.1 0 .1 0 0 0 .2-.1.4-.1.5-.1.3 0 .6-.2.9-.3s0 0-.1 0c0-.1 0 0 .1 0 .1.1.1-.1.2-.1h.1.1c.1-.1.5-.2.8-.1.1.1.2.1.2.2.1.1.1.2.2.3v.1.1c0 .1-.1.3 0 .4 0 .2-.2.3-.2.5-.1 0-.1.2-.2.2-.1.1-.2.2-.3.3-.1 0-.2.2-.3.2 0 .1-.1.1-.2.1s-.1 0-.1.1-.1 0-.1.1c0 0-.1.1-.1.1-.1.2-.4.4-.5.7-.1.1-.2.2-.1.3 0 0-.1.1-.1.1-.2 0 0 .2-.1.3 0 0-.1.1-.1.2-.1.1.1.2 0 .3 0 0-.1 0-.1.1 0 0 .1.1 0 .1v.1.2c-.1.3 0 .6-.1.8v.1c-.1.2 0 .5-.1.8v.8c0 .1.1.3 0 .3 0 .3 0 .7-.1 1s-.3.6-.5.9c0 0 0 0-.1 0-.1.1-.2.1-.3.2-.1.1-.3.1-.4.2 0 0 0 0-.1 0-.2.1-.5.1-.7.1-.1 0-.2-.1-.2-.1-.1 0 0-.1-.1-.2v-.1s0 0 0-.1c-.1-.4 0-.9-.1-1.2.1-.4 0-.9 0-1.2 0-.1.1-.3.1-.4s-.1-.3 0-.3v-.1-.2-.1s0 0 0-.1v-.1c.1-.2 0-.4.1-.5 0-.7.1-1.4.1-2.1.1-.4 0-.9.2-1.2 0-.2.1-.4.2-.6.1-.1.3-.3.4-.4h.1c.2-.1.4-.2.7-.3.4-.4.5-.5.4-.4zm31.4-3.3c-.1 0 0 0 0 0-.1.1-.1.2 0 .1v.1h.1c-.1.1-.2.1-.2.3 0 .1-.1-.1-.1.1s0 .2 0 .1c-.1.1-.2.4-.3.5 0 0 0 0-.1 0 0 .1-.1.1-.1.1-1.4.9-3.2 1.1-4.6 1.9-.1 0-.1 0-.1 0-.3.1-.6.2-.9.4-.4.1-.8.4-1.2.6v.1c-.1.1-.3.1-.4.2 0 0 0 0-.1 0-.1.1-.3.1-.3.2-.1 0-.2.1-.2.1-.3.1-.6.3-.8.4-.1.1-.2.1-.4.2s-.1.1-.1 0c-.1.1-.3.1-.4.3-.1 0-.1 0-.2.1 0 0 0 0-.1 0-.2.1-.5.2-.7.4-.1 0-.2.1-.3.2 0 .1-.1.1-.2.1s-.3.1-.4.2c-.3.2-.7.4-1 .6h-.1c-.8.5-1.7 1-2.5 1.5-.3.2-.6.3-.9.6 0 0-.1 0-.1.1 0 0-.1 0-.1.1s-.1 0-.1.1c-.1 0-.2.1-.2.1s0 0-.1 0c0 0 0 0-.1 0 0 0-.1 0-.1.1.1 0 0 .1 0 0h-.1v.1h-.1c-.2.1-.4.3-.6.4 0 0-.1 0-.1.1 0 0-.1.1-.1.1h-.1s-.1 0-.1.1c-.1 0-.1.1-.1.1-.1 0-.1.1-.1.1v.1h-.1c0 .2-.2.2-.3.2 0 0-.1 0-.2.2v.1c0 .1-.2.1-.1.2-.1.2 0 .1 0 .2s0 0-.1 0c0 0 0 .1 0 0v.1.1.1c-.1.2.1.1 0 .2v.1.1c-.1 0 0 .1 0 0 .1 0 0 .1 0 .2 0 0 0 .1-.1.1 0 0 0 .1 0 0 0 .1 0 .2-.1.3v.1c.1 0 .1 0 0 .1 0 .1 0 .1 0 0-.1 0 0 .2 0 .2v.1.1c-.1.1.1.1 0 .2 0 .1.1.1 0 .2v.1s-.1 0 0 .1v.1.1.1.2c0 .1.1.1 0 .1 0 0 0 .1-.1.1.1 0-.1 0-.1.1v.1s.1 0 0 0v.1c0 .1.1.1 0 .2.1 0-.1 0 0 .1v.1s-.1.2 0 .2.1 0 0 .1v.3.1.2s0 .1-.1.1-.1.1 0 .2v.1.1c0 .1-.1.1 0 .1.1 0 0 .1 0 .2-.1.1 0 .1.1 0 0 0-.1.2 0 .2v.1c.1.1.1 0 0 .1 0 0 0 .1.1.1 0 .1-.2 0-.2.1s-.1.1 0 .2v.1s-.1 0 0 .1v.1c0-.1.1 0 0 0h.1s0 .2 0 .1h-.1c-.1 0 0 0 0 .1.3.2-.1 0 0 .2v.1s0 0-.1 0c-.1.1-.1 0-.2 0 0 .1.2 0 .1 0h-.1v.1s0 .1-.1.1c0 0-.1.1 0 .1v.4s.1 0 0 0c0 .1 0 .1.1 0v.1c-.1 0-.1 0 0 .1 0 .1-.1.3 0 .1 0 .1-.2.1-.2.2-.1 0 .1.1 0 .2 0 0 .1 0 .1.1 0 0 .1.1.1.1-.1 0-.3 0-.1.2 0 0-.1 0 0 .1.1.1 0-.2.1 0 0 .1 0 .1.1.2-.1.1-.2 0-.1.2.1.1-.2.2 0 .3v.1h.1v.1c.1-.1.1 0 .1.1-.1 0 0 .1-.1.2h.2c0 .2.1.1.1.2-.1.1-.1.1 0 .1 0 0-.1 0 0 .1h.1v.2c0 .1-.1 0 0 0 0-.2-.2 0-.1.1.1 0 0 .1 0 .2-.1.1 0 0 0 .1v.1s.1 0 .1.1v-.1s.1 0 0 0v.1s0 .1 0 0v.2.1c-.1 0 0 0 0 0v.1s-.2.1 0 .2c0 0-.3 0-.2.1 0-.1.1 0 .1 0 0 .1-.2 0-.2.1s.1 0 0 0c0 .1.1.1 0 .1 0 .2.2.2.2 0 .1 0 0 .1 0 .2 0-.1 0 0 .1 0 0 0 0 0 .1.1v.1h-.1c.1 0 .1 0 .2.1.1 0 .1.1 0 .1.1-.1-.1-.1 0 0 0 .1 0 0-.1 0s.1.1 0 .1v.1h-.1c-.1 0 0-.1-.1-.1.1 0 0 .1.1.1h.1v.1h-.1c-.1 0-.1.1 0 .1h.1s-.1.1 0 .1c0 0-.1.1 0 .1h.1c0 .1 0 .1 0 0v.1s-.1.1-.1.1c-.1 0 0 .1 0 .1s.1.1.1.1c0 .1-.1 0-.1 0 0 .1-.1.2 0 .2 0 0 .1 0 .2.1 0 0 0 0-.1 0 0 .1-.1 0-.2.1-.3 1.2-2.3 1.3-2.7.2 0-.1-.1-.3-.1-.4 0-.1 0-.2 0-.2 0-.1 0-.2 0-.3-.1-.2 0-.5-.1-.7 0-.5 0-1 0-1.5.1-1.6.1-3.5.2-5 0-.1 0-.3 0-.4 0-.4 0-.7 0-1.1 0-.1 0-.2 0-.3 0-.2 0-.5 0-.7 0-.7-.1-1.4 0-2.1v-.1c0-.4 0-.9 0-1.3-.1 0-.1.1-.2.1-.1.1-.3.1-.4.2-.5.3-.9.7-1.3 1-.1.1-.3.3-.4.3-.1.1-.2.1-.3.2s0 0-.1.1c-.1.1-.3.2-.4.3-.1 0-.1.1-.1.1-.1 0-.2.1-.2.2-.3.2-.7.5-1 .8 0 .1-.1.1-.1.1-.1 0-.1.1-.2.1-.1.1-.3.2-.4.4h-.1c-.1.1-.2.2-.3.2-.2.2-.5.4-.7.6-.4.3-.8.7-1.3 1-.2.2-.4.3-.6.5-.1.1-.1.1-.2.2s-.2.2-.3.3c-.2.3-.6.5-.8.8-.1.1-.3.3-.4.4-.3.2-.6.5-.8.8-.4.3-.7.8-1.1 1.1-.1.1-.2.2-.3.3-.1.2-.3.3-.5.5 0 0-.1.1-.1.1-.1.1-.3.3-.4.3-.4.5-.8.9-1.2 1.4-.3.3-.5.6-.8.8-.1.1-.2.1-.3.2-.3.1-.7.1-1 0-.7-.2-1-.9-.9-1.5v-.1c.9-1.5 2.4-2.5 3.6-3.8.1-.1.3-.3.5-.4.4-.3.9-.8 1.3-1.1.1-.1.2-.2.3-.2.4-.4.9-.8 1.3-1.1.2-.3.5-.4.7-.7.2 0 .3-.2.4-.3 0-.1.2-.1.1-.1 1-.8 1.9-1.6 2.9-2.3.2-.1.4-.2.5-.3s.1-.1.1-.1c.1 0 .1-.1.2-.1 0-.1.2-.1.2-.2.1 0 .1-.1.2-.1.2-.1.3-.2.4-.3.3-.2.5-.4.7-.5.1 0 .2-.1.2-.2.1-.1.3-.2.4-.3.2-.1.4-.3.6-.5.6-.4 1.2-1 1.8-1.3.2-.2.5-.5.9-.6v-.1-.1-.1s0 0 0-.1c-.1 0 0-.1 0-.1 0-.1 0-.1 0-.2 0 0-.1-.1 0-.1 0-.2 0-.7-.2-.3-.2.1-.3.2-.5.3 0 .1-.1 0-.1.1-.1.1-.4 0-.5.2h-.1c-.1 0-.3.1-.1.1-.1 0-.2 0-.3 0-.2.1-.5.1-.7.1 0 0-.1 0-.2 0v.1c-.2.1-.5-.1-.7-.1-.1-.1-.3-.2-.5-.3-.2-.1-.4-.3-.4-.6 0-.1-.1-.2-.1-.3 0-.2 0-.5-.1-.7 0-1.2 0-2.4.1-3.6v-.1c0-.2.1-.4.1-.6 0-.4.2-.9.3-1.3.1-.2.2-.6.3-.8s0 0 0-.1c0 0 .1-.1.1-.1 0-.1.1-.2.1-.3s.1-.2.1-.2c.1-.2.2-.3.3-.5.2-.2.4-.4.7-.6 0-.1.1 0 .1-.1 0-.1.1-.1.1-.1.1 0 .2-.1.3-.1.3-.1.9-.4 1.1-.1.1 0 0 .2.1.2 0 .1.1.2 0 .3 0 0 0 .1-.1.1.1.1-.1.3-.1.5 0 0-.1.1-.1.1v.1s0 0-.1 0v.1s-.1.1-.1.1 0 0-.1 0c0 0-.1.1-.1.1-.1 0-.2.2-.2.3 0 .1 0 .1-.1.1 0 .1-.1.1-.1.2v.1.1c-.1-.1 0 .2-.1.1v.1.1c-.2.4-.4.9-.5 1.4-.1.1 0 .3-.1.5v.3c0 .1.1.2 0 .3-.2 1-.6 3.7 1.3 2.7 0 0 .1-.1.1-.1.8-.6.6-1.8.8-2.6 0-.2.1-.4.1-.7.1-.2 0-.6.1-.8 0-.1 0-.1 0-.2.1-.4.2-1.4.2-2 0 0 0-.1 0-.2.1-.6 0-1.3.2-1.9 0 0 0 0 0-.1 0 0 0 0 0-.1.1-.1.2-.3.4-.3h.1c.5-.2 1.2-.2 1.5.3.1.1-.1.2.1.2 0 0-.1 0 0 .1 0 .1-.1.3 0 .4-.1.1.1.2.1.3-.1 0-.1 0-.1.1.1.1-.1.3 0 .4 0 .2.1.2 0 .3 0 .1.1.3 0 .4s.1.1 0 .1c-.1-.1 0 .1 0 .1s0 .3 0 .2c.1 0 0 .1-.1.1-.1.7-.1 1.5-.2 2.3v.6c0 .3-.1.5 0 .8v.1c-.1.2-.1.3-.1.5h.1c-.1.2 0 .4-.1.5 0 0 .1 0 0 0 0 .2.1.4 0 .5 0 .2-.1.3 0 .4v.1s-.1.1 0 .1c-.1.2 0 .2 0 .4-.1.3 0 .8-.1 1.2v.1c.1 0 .2-.1.2-.1.9-.6 1.9-1.2 3-1.8.3-.2.9-.5 1.2-.7s.8-.3 1-.6c.2-.1.2 0 .5-.2.1 0 .1-.1.2-.1 0-.2.3-.2.4-.3.7-.4 1.3-.8 2.1-1.2.2 0 .4-.3.6-.4s.4-.2.6-.3c.9-.5 1.7-1 2.6-1.5.1-.1-.1-.2-.2-.2-.2-.2-.4-.4-.4-.6-.1-.9.1-2.1 0-3v-.1-.1s.1-.1 0-.1v-.1-.1c0-.3 0-.6 0-.9 0-.4 0-.8 0-1.1-.1-.3-.4-.3-.6-.3-.1-.2-.5.2-.7.2 0 .1-.2.1-.2.2-.1.1-.1.2-.2.2 0 .2-.3.2-.4.4 0 .1-.1-.1-.1 0 .1.1 0 .3-.2.3 0 .1 0 .2-.1.3v.1.1c-.1-.1 0 .2 0 .3-.1 0 .1.1 0 .2-.2.1.2.1-.1.2.1-.1 0-.1-.1 0v.1c-.1.1.3.1.1.1-.1.1.1.2-.1.2 0 0 .1 0 .1.1-.3 0-.1.2-.2.4.2.2.1.3 0 .3 0 .1-.2 0-.1.2h-.1v.1.1c0 .1.1.1.1.1v.1s-.1 0 0 .1c0 .1-.1.1 0 .1s-.1.1-.1.1c0-.3-.1 0 0 .1 0 0-.1.1 0 .1v.2.1c-.2 0-.1.4-.1.6 0 .1-.1.2 0 .2-.1.1 0 .1 0 0 0 .2-.1 0-.1.2-.1.1.1.1.1.2-.1 0-.2 0 0 .1.1.1 0 .2 0 .3.1.1-.1.2 0 .2.1.3 0 .2-.1 0 0 .2.1.3.1.4-.1 0 0 .1-.1.1s0 .1-.1.1v.2s.1 0 0 0h-.1v.2s-.2 0-.1.1h-.1s-.1.1-.1.1c-.1.1-.3.2-.4.2-.4.3-1.3.5-1.6-.2-.2-.5 0-1.2 0-1.7 0-.1 0-.1 0-.2s.1-.2 0-.3c.1-.6 0-1.2.1-1.7 0 0 0 0 0-.1 0-.2 0-.3 0-.5 0-.3 0-.7.1-.9.1-1-.1-2.2.8-2.9h.1c.5-.4 1.1-.3 1.7-.4.2 0 0 .1.4.1.4.1.9-.3 1.1-.6.6-.8 1.9-1.8 3-1.2.1 0 .1.2.2.2 0-.1.1 0 0 0 0 .1.1.2.1.3.1 0 .1-.1 0 0v.2c.1 0 .1.1.1.1h-.1c-.1.3.2.3.2.4-.1.2.1.3 0 .3h-.1s0 0-.1 0c-.1.1-.1.3 0 .4 0 .1-.1.1 0 .2 0 0 .2-.2.2-.1s-.1.2 0 .2c0 0 0 .1.1 0 0 .1-.1 0-.1.1.1.1-.1.2 0 .2 0 .1 0 .3.1.3s-.1 0-.2 0c0 .3 0 .3.2.4-.1 0-.2.2-.1.2 0 0 .1.1 0 .1-.2 0-.1.5-.1.6-.1.4.1.6.1.6-.2 0 0 0-.1.1 0 .1.1.1 0 .1v.2s.2 0 .1.1c-.1 0 0 .1 0 .2v.1c0-.1 0-.1 0 0s.1.2 0 .3c-.1 0-.1 0 0 .1 0 0 0 .1 0 0 0 0 0 0 0-.1.1 0 0 .1 0 .1-.2 0-.1 0-.1.1-.2 0-.1.1 0 .1 0 .1-.1 0-.1.1.1.1 0 .1 0 .2h.1s-.1.1 0 .1c0 .1.1.1.1.1.1.1-.1.1-.1.2s.1.1.1 0v.1.1s.1 0 0 0c-.1.1.1 0 .1.1 0 0 0 .2.1.2.2.1.6-.1.8-.1.2-.1.4-.1.5-.2h.1s.1-.1.1-.1c0-.1.1 0 .1-.1s0 0 .1-.1c.2-.1.4-.2.5-.3s.1-.1.1 0c.1-.1.3-.2.4-.2.1-.1.3-.1.4-.1.3 0 .7.1 1 .1h.1c.1 0 0 .1.1.1.1 0 .1.1.2.2s.1.2.2.3v.1c0 .1.1.1 0 .2 0 0 .1 0 .1.1 1.7.5 1.7.5 1.7.5zm-18.1 5.2c-.1-.7.1-1.4.1-2s-.1 0 0-.1c0 0 0 0 0-.1s0-.2 0-.3c0-.1 0-.2 0-.3v-.1c0-.2 0-.4.1-.6 0-.1 0-.1 0-.1v-.2-.1c.1 0 0-.3.1-.4s0 0 0-.1c0-.2.1-.3 0-.4.1 0 0 0 0-.1 0 0 0 0 0-.1v-.1c.1-.1 0-.2.1-.3 0 0 0 0 0-.1v-.1c0-.1 0-.2 0-.3 0-.1 0-.1 0-.2v-.1s0-.1 0-.2c0 0 0 0 0-.1v-.1c0-.1 0-.2 0-.2s0 0 0-.1c0-.1 0-.1 0-.1v-.2-.1-.1c0-.1.1-.3.1-.3s.1-.1.1-.1.1-.1.1-.1.1-.1.1-.1.1-.1.1-.1h.1.2s.1-.1.1 0h.2.1.1s.1 0 .1.1v.1.1.1h.1v.1.1.1s.1.1 0 .1v.1s0 .1 0 0c.1.1 0 .1-.1.1s0 .1 0 0v.1s0 .1 0 0v.1.1s.1.1 0 .1 0 .1 0 0v.2.1.3s0 .1 0 0v.1.1c0 .1-.1.2 0 .3.1.1-.1 0 0 .1v.2s-.1.1 0 .1h.1v.1s-.1.2 0 .2v.1s-.1 0 0 .1v.1c-.1.1 0 .1 0 .2h-.1v.1c-.1 0 .1.2 0 .2 0 .1 0 .3.1.3 0 0 .1.1 0 .1v.1s0 .1 0 0 0 0-.1 0c0 0 0-.1-.1 0 0 .1.1 0 .1.1 0 0 .1 0 0 .1 0 0 .1.1.1 0 .1.2 0 .1-.1.1v.2.8.1c0 .2 0 .6.1.7-.1.1-.1.1 0 .2-.1.3-.3.7-.6.9s0 0-.1 0c-.1.1-.1.1-.2.1-.4.2-.7.4-1.2.3-.1-.1-.2-.1-.3-.3.5.4.5.3.5.3zm1.5-11.8c-.1-.1 0-.3 0-.4 0 0 0 0 0-.1v-.1c0-.1.1-.2.2-.4.1 0 .1-.1.2-.2 0-.1 0 0 .1-.1s.1-.1.1-.1.1-.1.2-.1c.3-.1.7-.2 1 0 .1 0 .2-.1.2.1 0 0 .1.1.1.1.1 0 0 .2.1.2v.2c.2 0 .2.1.1.2v.1c-.3.4-.7.9-1.2 1.1-.3.1-.8 0-1-.3-.1 0-.1-.1-.1-.2z" fill="#e4274b"/><path d="m44.6.4c2.9 0 4.6.6 6.6 2.2l34.8 29-12.2 27.4h-39.4c-1.9 0-3.2-.9-4.2-2.8l-28.5-55.8zm0-.4h-43.6l28.8 56.4c1.1 2.2 2.6 3.1 4.6 3.1h39.7l12.4-27.8-35-29.3c-2.1-1.8-3.8-2.4-6.9-2.4z" fill="#cececd"/><path d="m86.5 31.6-35-29.3c-2.1-1.7-3.8-2.3-6.9-2.3h-44.6l29 56.8c1.2 2.4 3 3.5 5.4 3.5h39.3zm-56.3 24.6-28.5-55.8h42.9c2.9 0 4.6.6 6.6 2.2l34.8 29.1-12.1 27.3h-39.5c-1.9 0-3.2-.9-4.2-2.8z" fill="#cececd"/></svg>