<?xml version="1.0" encoding="utf-8"?>
<!-- Generator: Adobe Illustrator 25.4.1, SVG Export Plug-In . SVG Version: 6.00 Build 0)  -->
<svg version="1.1" xmlns="http://www.w3.org/2000/svg" xmlns:xlink="http://www.w3.org/1999/xlink" x="0px" y="0px"
	 viewBox="0 0 250.32 80" style="enable-background:new 0 0 250.32 80;" xml:space="preserve">
<style type="text/css">
	.st0{fill:#D03C2A;}
	.st1{fill:#FFFFFF;}
	.st2{fill:#A1A0A2;}
	.st3{fill:#3FA64D;}
</style>
<g id="Layer_2">
</g>
<g id="Layer_1">
	<g>
		<path class="st0" d="M211.47,1.16c21.44-0.01,38.83,17.36,38.84,38.79c0.01,21.44-17.36,38.83-38.79,38.84S172.69,61.44,172.68,40
			c0,0,0,0,0,0C172.68,18.56,190.04,1.18,211.47,1.16z M230.93,23.63c0-5.14-4.17-9.31-9.31-9.31s-9.31,4.17-9.31,9.31
			s4.17,9.31,9.31,9.31l0,0C226.77,32.94,230.93,28.77,230.93,23.63C230.93,23.63,230.93,23.63,230.93,23.63L230.93,23.63z"/>
		<path class="st1" d="M221.64,14.27c5.14,0.03,9.28,4.22,9.25,9.36s-4.22,9.28-9.36,9.25c-5.1-0.03-9.22-4.15-9.25-9.25
			c-0.03-5.14,4.11-9.33,9.25-9.36C221.56,14.27,221.6,14.27,221.64,14.27z"/>
		<path class="st2" d="M125.13,0c22.09,0,40,17.9,40,40c0,22.09-17.9,40-40,40c-22.09,0-40-17.9-40-40c0,0,0-0.01,0-0.01
			C85.17,17.92,103.06,0.03,125.13,0z M163.97,40c0.02-21.45-17.35-38.85-38.79-38.87C103.73,1.1,86.33,18.47,86.3,39.92
			s17.35,38.85,38.79,38.87c0.01,0,0.02,0,0.03,0C146.56,78.78,163.93,61.42,163.97,40L163.97,40z"/>
		<path class="st2" d="M125.13,1.16c21.44,0.01,38.82,17.39,38.81,38.83c-0.01,21.44-17.39,38.82-38.83,38.81
			C103.69,78.79,86.32,61.42,86.3,40C86.32,18.55,103.69,1.17,125.13,1.16z M162.78,40c0.01-20.79-16.83-37.65-37.62-37.67
			C104.37,2.31,87.5,19.16,87.49,39.95s16.83,37.65,37.62,37.67c0.01,0,0.02,0,0.02,0C145.9,77.57,162.72,60.76,162.78,40L162.78,40
			z"/>
		<path class="st1" d="M125.13,2.34c20.79,0,37.64,16.86,37.63,37.64c0,20.79-16.86,37.64-37.64,37.63
			c-20.78,0-37.63-16.84-37.63-37.62C87.52,19.22,104.36,2.38,125.13,2.34z M144.64,23.63c0.02-5.16-4.14-9.37-9.31-9.39
			c-5.16-0.02-9.37,4.14-9.39,9.31c-0.02,5.16,4.14,9.37,9.31,9.39c0.01,0,0.02,0,0.03,0C140.42,32.94,144.61,28.78,144.64,23.63z"
			/>
		<path class="st2" d="M135.27,14.27c5.14,0.02,9.29,4.2,9.28,9.34c-0.02,5.14-4.2,9.29-9.34,9.28c-5.11-0.02-9.25-4.15-9.28-9.25
			C125.93,18.47,130.11,14.28,135.27,14.27z"/>
		<path class="st3" d="M38.81,1.16c21.44,0,38.82,17.38,38.82,38.81c0,21.44-17.38,38.82-38.81,38.82C17.39,78.8,0.01,61.43,0,40
			C0,18.55,17.37,1.17,38.81,1.16z M58.24,23.63c0-5.14-4.17-9.31-9.31-9.31s-9.31,4.17-9.31,9.31s4.17,9.31,9.31,9.31
			C54.07,32.92,58.23,28.76,58.24,23.63z"/>
		<path class="st1" d="M48.93,14.27c5.14,0,9.31,4.17,9.31,9.31c0,5.14-4.17,9.31-9.31,9.31c-5.12,0-9.28-4.13-9.31-9.25
			C39.61,18.48,43.78,14.29,48.93,14.27z"/>
	</g>
</g>
</svg>
