<?xml version="1.0" encoding="utf-8"?>
<!-- Generator: Adobe Illustrator 25.4.1, SVG Export Plug-In . SVG Version: 6.00 Build 0)  -->
<svg version="1.1" xmlns="http://www.w3.org/2000/svg" xmlns:xlink="http://www.w3.org/1999/xlink" x="0px" y="0px"
	 viewBox="0 0 476.13 80" style="enable-background:new 0 0 476.13 80;" xml:space="preserve">
<style type="text/css">
	.st0{fill:#3FA64D;}
	.st1{fill:#D03C2A;}
	.st2{fill:#FFFFFF;}
	.st3{fill:#A1A0A2;}
</style>
<g id="Layer_2">
</g>
<g id="Layer_1">
	<g>
		<path class="st0" d="M245.48,31.23v45.01c-3.1,0.67-7.41,1.46-12.94,2.38c-5.52,0.93-12.18,1.37-20.01,1.37
			c-4.51,0.05-9.02-0.39-13.44-1.29c-3.71-0.74-7.23-2.19-10.38-4.28c-2.88-1.95-5.19-4.63-6.68-7.78c-1.55-3.18-2.3-7.11-2.3-11.75
			c0-4.45,0.87-8.23,2.67-11.32c1.73-3.04,4.21-5.59,7.19-7.41c3.19-1.91,6.68-3.27,10.32-4c3.96-0.82,8-1.23,12.04-1.22
			c2.5-0.01,4.99,0.11,7.47,0.36c1.79,0.18,3.56,0.49,5.29,0.95v-2.03c0-3.68-1.12-6.64-3.32-8.86c-2.2-2.22-6.11-3.34-11.64-3.34
			c-3.64,0-7.28,0.26-10.89,0.79c-3.17,0.43-6.28,1.17-9.3,2.23l-2.76-17.4c1.26-0.4,2.83-0.79,4.72-1.23
			c1.89-0.44,3.93-0.83,6.16-1.16s4.56-0.64,7.03-0.88S209.73,0,212.23,0c6.38,0,11.71,0.73,15.96,2.18
			c4.25,1.45,7.69,3.53,10.23,6.23c2.61,2.79,4.49,6.18,5.46,9.88C245,22.51,245.53,26.87,245.48,31.23z M224.72,62.74V46.32
			c-0.87-0.19-2.18-0.4-3.91-0.58c-3.5-0.42-7.04-0.4-10.53,0.07c-1.64,0.19-3.24,0.66-4.72,1.39c-2.78,1.25-4.51,4.07-4.37,7.11
			c0,3.38,1.15,5.73,3.42,7.03s5.42,1.96,9.39,1.96c2.12,0,4.16-0.04,6.1-0.15C221.64,63.1,223.19,62.96,224.72,62.74z"/>
		<path class="st0" d="M159.67,2.05h22.36c-4.55,15.29-9.37,29.42-14.47,42.39s-10.13,24.29-15.09,33.96h-17.94
			c-4.95-9.67-9.98-20.99-15.09-33.96c-5.11-12.97-9.94-27.1-14.48-42.39h22.93c0.98,3.77,2.13,7.86,3.44,12.26
			c1.32,4.42,2.66,8.86,4.07,13.35s2.82,8.89,4.23,13.14s2.78,8.14,4.16,11.62c1.26-3.48,2.62-7.36,4.08-11.62s2.9-8.64,4.3-13.14
			c1.4-4.48,2.78-8.93,4.07-13.35S158.7,5.82,159.67,2.05z"/>
		<rect x="81.29" y="2.05" class="st0" width="21.62" height="76.35"/>
		<path class="st0" d="M54.71,2.05h22.38C72.53,17.34,67.7,31.47,62.6,44.44S52.47,68.73,47.51,78.4H29.59
			c-4.96-9.67-9.99-20.99-15.09-33.96S4.56,17.34,0,2.05h22.93c0.97,3.77,2.11,7.85,3.43,12.25s2.68,8.84,4.09,13.35
			c1.4,4.51,2.82,8.89,4.22,13.14s2.8,8.14,4.17,11.62c1.25-3.48,2.62-7.35,4.07-11.62c1.45-4.27,2.89-8.62,4.3-13.13
			s2.78-8.93,4.07-13.36S53.75,5.82,54.71,2.05z"/>
		<path class="st1" d="M444.64,11.69c17.38-0.01,31.48,14.07,31.49,31.45c0.01,17.38-14.07,31.48-31.45,31.49
			c-17.38,0.01-31.48-14.07-31.49-31.45c0,0,0,0,0,0C413.19,25.8,427.26,11.71,444.64,11.69z M460.42,29.91
			c0-4.17-3.38-7.54-7.54-7.54s-7.54,3.38-7.54,7.54s3.38,7.54,7.54,7.54l0,0C457.04,37.45,460.42,34.08,460.42,29.91
			C460.42,29.91,460.42,29.91,460.42,29.91L460.42,29.91z"/>
		<path class="st2" d="M452.88,22.32c4.17,0.02,7.53,3.42,7.5,7.59c-0.02,4.17-3.42,7.53-7.59,7.5c-4.13-0.02-7.48-3.37-7.5-7.5
			c-0.02-4.17,3.33-7.56,7.5-7.59C452.82,22.32,452.85,22.32,452.88,22.32z"/>
		<path class="st3" d="M374.65,10.75c17.91,0,32.43,14.51,32.43,32.42c0,17.91-14.51,32.43-32.42,32.43
			c-17.91,0-32.43-14.51-32.43-32.42c0,0,0-0.01,0-0.01C342.25,25.28,356.75,10.78,374.65,10.75z M406.13,43.18
			c0.02-17.39-14.06-31.5-31.45-31.51c-17.39-0.02-31.5,14.06-31.51,31.45s14.06,31.5,31.45,31.51c0.01,0,0.02,0,0.03,0
			C392.02,74.62,406.1,60.55,406.13,43.18L406.13,43.18z"/>
		<path class="st3" d="M374.65,11.69c17.38,0,31.47,14.1,31.46,31.48c0,17.38-14.1,31.47-31.48,31.46
			c-17.37,0-31.45-14.08-31.46-31.45C343.18,25.8,357.26,11.71,374.65,11.69z M405.16,43.18c0.01-16.85-13.64-30.53-30.5-30.54
			c-16.85-0.01-30.53,13.64-30.54,30.5s13.64,30.53,30.5,30.54c0.01,0,0.01,0,0.02,0C391.48,73.64,405.12,60.01,405.16,43.18
			L405.16,43.18z"/>
		<path class="st2" d="M374.65,12.65c16.85,0,30.51,13.67,30.51,30.52c0,16.85-13.67,30.51-30.52,30.51
			c-16.85,0-30.5-13.66-30.51-30.5C344.16,26.33,357.8,12.68,374.65,12.65z M390.46,29.91c0.02-4.19-3.36-7.6-7.54-7.62
			c-4.19-0.02-7.6,3.36-7.62,7.54c-0.02,4.19,3.36,7.6,7.54,7.62c0.01,0,0.02,0,0.02,0C387.04,37.46,390.44,34.09,390.46,29.91z"/>
		<path class="st3" d="M382.87,22.32c4.17,0.01,7.53,3.4,7.52,7.57c-0.01,4.17-3.4,7.53-7.57,7.52c-4.14-0.01-7.5-3.36-7.52-7.5
			C375.3,25.73,378.68,22.33,382.87,22.32z"/>
		<path class="st0" d="M304.67,11.69c17.38,0,31.47,14.09,31.47,31.47c0,17.38-14.09,31.47-31.47,31.47
			c-17.38,0-31.47-14.08-31.47-31.45C273.2,25.8,287.29,11.7,304.67,11.69z M320.42,29.91c0-4.17-3.38-7.54-7.54-7.54
			c-4.17,0-7.54,3.38-7.54,7.54s3.38,7.54,7.54,7.54C317.03,37.44,320.41,34.07,320.42,29.91z"/>
		<path class="st2" d="M312.87,22.32c4.17,0,7.54,3.38,7.54,7.55c0,4.17-3.38,7.54-7.55,7.54c-4.15,0-7.52-3.35-7.54-7.5
			C305.32,25.73,308.69,22.33,312.87,22.32z"/>
	</g>
</g>
</svg>
