<?xml version="1.0" encoding="utf-8"?>
<!-- Generator: Adobe Illustrator 25.4.1, SVG Export Plug-In . SVG Version: 6.00 Build 0)  -->
<svg version="1.1" id="Layer_1" xmlns="http://www.w3.org/2000/svg" xmlns:xlink="http://www.w3.org/1999/xlink" x="0px" y="0px"
	 viewBox="0 0 368.8 80" style="enable-background:new 0 0 368.8 80;" xml:space="preserve">
<style type="text/css">
	.st0{fill:#152637;}
	.st1{fill:#9FCB6A;}
</style>
<g>
	<polygon class="st0" points="41,32.8 36.4,39.7 83.1,13.7 105.2,35.3 107.2,30.3 87,0 	"/>
	<path class="st1" d="M73.6,21.9l9.2-4.3l4.7,5.1c0,0-14.2,40.1-54.8,54.4C32.7,77.2,68.1,55,73.6,21.9z"/>
	<path class="st0" d="M63.6,39c0,0-21.9,41.6-49.5,38.2c-25.2-3.1-13.7-43.3,12-57.3c0,0-27.9,36.5-6,46.5
		C20.2,66.3,37.4,72.3,63.6,39z"/>
	<g>
		<polygon class="st0" points="162.7,30.4 151.2,30.4 151.2,18.5 146.1,18.5 146.1,48.6 151.2,48.6 151.2,35 162.7,35 162.7,48.6 
			167.8,48.6 167.8,18.5 162.7,18.5 		"/>
		<rect x="334.6" y="18.5" class="st0" width="5.1" height="30.1"/>
		<polygon class="st0" points="232.2,18.5 224.2,18.5 224.2,23.1 232.2,23.1 232.2,48.6 237.3,48.6 237.3,23.1 245.3,23.1 
			245.3,18.5 237.3,18.5 		"/>
		<polygon class="st0" points="248.8,18.5 247.8,18.5 247.8,48.6 248.8,48.6 252.9,48.6 266.3,48.6 266.3,44 252.9,44 252.9,35.8 
			263.8,35.8 263.8,31.3 252.9,31.3 252.9,23.1 266.3,23.1 266.3,18.5 252.9,18.5 		"/>
		<path class="st0" d="M319,18.5h-1h-4.1l-7.1,30.1h5.1l1.3-5.5h10.6l1.3,5.5h5.1l-7.1-30.1H319z M314.4,37.8l3.5-14.8h1.1l3.5,14.8
			H314.4z"/>
		<path class="st0" d="M185.2,18.5h-1h-4.1L173,48.6h5.1l1.3-5.5H190l1.3,5.5h5.1l-7.1-30.1H185.2z M180.6,37.8l3.5-14.8h1.1
			l3.5,14.8H180.6z"/>
		<path class="st0" d="M293.5,28.7c0-8-6.2-10.2-9.1-10.2h-7.5h-2h-3.1v30.1h5.1V38.2h5.9l4.8,10.4h6.4l-5.4-11.3
			C290.7,36.1,293.5,33.7,293.5,28.7z M283.9,33.6h-7v-10h7.5c0,0,3.5-0.3,3.5,4.7S285.6,33.6,283.9,33.6z"/>
		<path class="st0" d="M223.2,28.7c0-8-6.2-10.2-9.1-10.2h-7.5h-2h-3.1v30.1h5.1V38.2h5.9l4.8,10.4h6.4l-5.4-11.3
			C220.4,36.1,223.2,33.7,223.2,28.7z M213.6,33.6h-7v-10h7.5c0,0,3.5-0.3,3.5,4.7S215.4,33.6,213.6,33.6z"/>
		<path class="st0" d="M363.4,37.3c2.2-1.2,5-3.6,5-8.6c0-8-6.2-10.2-9.1-10.2h-7.5h-2h-3.1v30.1h5.1V38.2h5.9l4.8,10.4h6.4
			L363.4,37.3z M358.8,33.6h-7v-10h7.5c0,0,3.5-0.3,3.5,4.7S360.6,33.6,358.8,33.6z"/>
		<path class="st0" d="M133.3,23.1c5.3,0,6,1.5,6,1.5l2.1-4.7c0,0-2.4-2-8-2c-5.6,0-12.1,2.2-12.1,15.8s9,15,11.2,15
			c6.4,0,8.5-2,8.5-2l-1.7-4.4c0,0-1.4,0.9-6.3,0.9c-4.9,0-6.4-4-6.4-9.6S128,23.1,133.3,23.1z"/>
	</g>
	<g>
		<path class="st1" d="M187.3,55.6H186h-2.3L177.7,79h3.5l1.4-5.2h8.3l1.4,5.2h3.5l-6.1-23.4H187.3z M183.4,70.3l2.9-11h0.7l2.9,11
			H183.4z"/>
		<polygon class="st1" points="222.2,74.2 212.6,55.6 211.4,55.6 207.9,55.6 207.9,79 211.4,79 211.4,60.9 220.8,79 222.2,79 
			224.7,79 225.7,79 225.7,55.6 222.2,55.6 		"/>
		<polygon class="st1" points="129.2,55.6 123,55.6 123,58.6 129.2,58.6 129.2,79 132.7,79 132.7,58.6 139,58.6 139,55.6 
			132.7,55.6 		"/>
		<polygon class="st1" points="366.8,55.6 360.5,55.6 357,55.6 350.9,55.6 350.9,58.6 357,58.6 357,79 360.5,79 360.5,58.6 
			366.8,58.6 		"/>
		<path class="st1" d="M166.9,63.2c0-7.1-7.3-7.6-7.3-7.6h-5.8h-2.1h-1.4V79h3.5v-8.3h4.8l4.6,8.3h3.8l-5-8.8
			C164,69.5,166.9,67.6,166.9,63.2z M158.8,67.8h-5.1v-9.2h5.8c0,0,4.1-0.2,4.1,4.5S158.8,67.8,158.8,67.8z"/>
		<path class="st1" d="M340.5,63.2c0-7.1-7.3-7.6-7.3-7.6h-5.8h-2.1h-1.4V79h3.5v-8.3h4.8l4.6,8.3h3.8l-5-8.8
			C337.7,69.5,340.5,67.6,340.5,63.2z M332.5,67.8h-5.1v-9.2h5.8c0,0,4.1-0.2,4.1,4.5S332.5,67.8,332.5,67.8z"/>
		<path class="st1" d="M274.5,55.6h-5.8h-0.8h-2.7V79h3.5v-7.9h5.8c0,0,6.5,0,6.5-7.5C281.1,56.1,274.5,55.6,274.5,55.6z
			 M274.5,68.3h-5.8v-9.9h5.8c0,0,3.8,0.4,3.8,5.2C278.3,68.5,274.5,68.3,274.5,68.3z"/>
		<path class="st1" d="M302.3,54.7c-5.4,0-9.7,2.3-9.7,12.6c0,10.5,4.4,12.6,9.7,12.6c5.4,0,9.7-2.4,9.7-12.6
			C312.1,57,307.7,54.7,302.3,54.7z M302.3,76.7c-3.5,0-6.3-1.6-6.3-9.4c0-7.7,2.8-9.4,6.3-9.4c3.5,0,6.3,1.7,6.3,9.4
			C308.7,74.9,305.8,76.7,302.3,76.7z"/>
		<path class="st1" d="M250.2,66.5c-1.5-0.9-3-1.3-4.5-1.7c-1.4-0.4-2.7-0.7-3.7-1.4c-0.8-0.6-1.1-1.4-0.8-2.5
			c0.4-1.3,1.7-2.7,3.2-2.7l0.8,0c2.4,0,3.6,0,6.1,1l1.3-3.2c-3.2-1.3-4.9-1.3-7.4-1.3l-0.8,0c-2.9,0-5.6,2.2-6.5,5.1
			c-0.8,2.5,0,5,2.1,6.4c1.5,1,3.2,1.5,4.8,1.9c1.3,0.3,2.5,0.7,3.5,1.3c1.5,0.9,2.4,3.3,1.5,5c-0.9,1.5-2.9,2.1-4.5,2.1
			c-3.7,0-6-1.3-6-1.3l-1.7,3c0.1,0.1,3.1,1.7,7.7,1.7c3.3,0,6.1-1.4,7.5-3.8C254.7,73.1,253.5,68.5,250.2,66.5z"/>
	</g>
</g>
</svg>
