<?xml version="1.0" encoding="utf-8"?>
<!-- Generator: Adobe Illustrator 25.4.1, SVG Export Plug-In . SVG Version: 6.00 Build 0)  -->
<svg version="1.1" id="Layer_4" xmlns="http://www.w3.org/2000/svg" xmlns:xlink="http://www.w3.org/1999/xlink" x="0px" y="0px"
	 viewBox="0 0 704.94 80.27" style="enable-background:new 0 0 704.94 80.27;" xml:space="preserve">
<style type="text/css">
	.st0{fill:#24409A;}
	.st1{fill:#FE7611;}
</style>
<g>
	<path class="st0" d="M105.45,0.61l-3.64,15.76h-50.3c0,0-13.33,4.24-15.76,14.55h65.45l-4.24,17.58H33.33
		c0,0-2.42,11.52,10.3,15.76h50.91L92.12,80H18.79C18.79,80,0,71.52,0,56.36l6.06-31.52c0,0,4.85-18.79,25.45-24.85L105.45,0.61z"/>
	<path class="st0" d="M183.64,0.2h-49.7c-23.44,6.87-25.45,22.22-25.45,22.22L99.27,79.8l32.25-1.21l5.66-30.71h30.71L162.7,79.8
		h31.92l8.41-54.14C204.65,7.47,183.64,0.2,183.64,0.2z M170.71,31.31l-31.11,0.4c0,0-0.4-15.76,17.37-16.56
		C156.97,15.15,173.54,15.96,170.71,31.31z"/>
	<path class="st0" d="M313.64,0.91l-3.03,15.76h-51.82c0,0-13.33,2.12-14.85,16.06h44.24c0,0,15.76,4.24,16.06,23.03l-4.85,24.04
		h-95.15l4.55-15.55h62.42c0,0,3.03-13.33-8.48-16.06h-51.82c0,0-6.06-38.79,27.88-47.58L313.64,0.91z"/>
	<path class="st0" d="M385.15,0.3h31.82l-10,60c0,0-7.58,17.47-22.73,19.49h-45.15l4.85-16.46h18.79c0,0,14.85-0.61,14.85-14.85
		h-44.24c0,0-13.94-9.39-15.45-18.48l2.73-29.7h32.12l-2.12,23.03c0,0,2.12,7.88,8.18,9.09h20.91L385.15,0.3z"/>
	<path class="st1" d="M671.61,0.3h31.82l-10,60c0,0-7.58,17.47-22.73,19.49h-45.15l4.85-16.46h18.79c0,0,14.85-0.61,14.85-14.85
		H619.8c0,0-13.94-9.39-15.45-18.48l2.73-29.7h32.12l-2.12,23.03c0,0,2.12,7.88,8.18,9.09h20.91L671.61,0.3z"/>
	<path class="st1" d="M413.94,79.8l9.4-58.89c0,0,6.06-18.18,25.45-20.61h73.33l-2.42,16.36h-50.91c0,0-13.64,1.52-15.45,15.45
		h63.94l-2.12,15.76h-64.55l-4.85,31.92H413.94z"/>
	<path class="st1" d="M536.06,0.3h31.52l-8.48,54.85c0,0,0.61,7.27,9.09,8.48h36.97l-2.42,16.16h-59.7c0,0-16.06-5.25-16.06-19.49
		L536.06,0.3z"/>
</g>
</svg>
