<?xml version="1.0" encoding="utf-8"?>
<!-- Generator: Adobe Illustrator 25.3.1, SVG Export Plug-In . SVG Version: 6.00 Build 0)  -->
<svg version="1.1" id="Layer_1" xmlns="http://www.w3.org/2000/svg" xmlns:xlink="http://www.w3.org/1999/xlink" x="0px" y="0px"
	 viewBox="0 0 337.93 80" style="enable-background:new 0 0 337.93 80;" xml:space="preserve">
<style type="text/css">
	.st0{fill:#ED4138;}
	.st1{fill:#00693A;}
	.st2{fill:#DF1804;}
	.st3{fill:#214078;}
	.st4{fill:#3487C7;}
	.st5{fill:url(#SVGID_1_);}
	.st6{fill:url(#SVGID_2_);}
	.st7{fill:#184A8A;}
	.st8{fill:url(#SVGID_3_);}
	.st9{fill:url(#SVGID_4_);}
	.st10{fill:url(#SVGID_5_);}
	.st11{fill:url(#SVGID_6_);}
	.st12{fill:#9E8266;}
	.st13{fill:#322E26;}
	.st14{fill:#332F27;}
	.st15{fill:#791722;}
	.st16{fill:url(#SVGID_7_);}
	.st17{fill:url(#SVGID_8_);}
	.st18{fill:url(#SVGID_9_);}
	.st19{fill:url(#SVGID_10_);}
	.st20{fill:url(#SVGID_11_);}
	.st21{fill:url(#SVGID_12_);}
	.st22{fill:url(#SVGID_13_);}
	.st23{fill:url(#SVGID_14_);}
	.st24{fill:url(#SVGID_15_);}
	.st25{fill:url(#SVGID_16_);}
	.st26{fill:url(#SVGID_17_);}
	.st27{fill:url(#SVGID_18_);}
	.st28{fill:url(#SVGID_19_);}
	.st29{fill:url(#SVGID_20_);}
	.st30{fill:url(#SVGID_21_);}
	.st31{fill:#222325;}
	.st32{fill:#A0925A;}
	.st33{fill:#061E34;}
	.st34{fill:#028E8F;}
	.st35{fill:#D5192C;}
	.st36{fill:#FAC201;}
	.st37{fill:url(#SVGID_22_);}
	.st38{fill:url(#SVGID_23_);}
	.st39{fill:url(#SVGID_24_);}
	.st40{fill:url(#SVGID_25_);}
	.st41{fill:#9F8A58;}
	.st42{fill:#749ED4;}
	.st43{fill:#045991;}
	.st44{fill:#1F9A8D;}
	.st45{fill:#222D68;}
	.st46{fill:#14152E;}
	.st47{fill:#62B3E4;}
	.st48{fill:#FEFEFE;}
	.st49{fill:none;}
	.st50{fill:#FC0302;}
	.st51{fill:#FE0807;}
	.st52{fill:#98684C;}
	.st53{fill:#86754D;}
	.st54{fill:#42484D;}
	.st55{fill:#41474C;}
	.st56{fill:#43494D;}
	.st57{fill:#DF073D;}
	.st58{fill:#DE023A;}
	.st59{fill:#FFFFFF;}
	.st60{fill:#6F6E6C;}
	.st61{fill:#072F67;}
	.st62{fill:#53A220;}
	.st63{fill:#FDC013;}
	.st64{fill:url(#SVGID_26_);}
	.st65{fill:url(#SVGID_27_);}
	.st66{fill:url(#SVGID_28_);}
	.st67{fill:#793A98;}
	.st68{fill:url(#SVGID_29_);}
	.st69{fill:url(#SVGID_30_);}
	.st70{fill:url(#SVGID_31_);}
	.st71{fill:url(#SVGID_32_);}
	.st72{fill:url(#SVGID_33_);}
</style>
<g>
	<path class="st0" d="M271.34,11.01c2.13,0,4.26,0.01,6.4-0.01c0.33,0,0.51,0.03,0.54,0.44c0.05,0.64,0.12,1.27,0.14,1.91
		c0.06,2.48,0.19,4.96,0.25,7.44c0.04,1.62,0.1,3.24,0.19,4.86c0.11,2.02,0.14,4.05,0.21,6.07c0.05,1.36,0.22,2.72,0.23,4.09
		c0.01,2.57,0.17,5.13,0.27,7.69c0.06,1.62,0.08,3.24,0.18,4.86c0.13,1.92,0.1,3.84,0.26,5.76c0.08,0.92,0.02,1.86,0.06,2.79
		c0.09,2.23,0.19,4.45,0.28,6.68c0.04,1.06,0.03,2.13,0.11,3.19c0.12,1.62,0.1,3.24,0.2,4.85c0.04,0.64,0.02,0.65-0.63,0.65
		c-3.96,0-7.92,0-11.88,0c-0.12,0-0.24,0-0.36,0c-0.52,0.03-0.64-0.08-0.61-0.61c0.1-1.72,0.05-3.44,0.08-5.17
		c0.03-1.67,0-3.35,0.03-5.02c0.02-0.81,0.04-1.62,0.03-2.43c0-0.46-0.12-0.58-0.53-0.53c-1.26,0.14-2.53,0.06-3.8,0.07
		c-4.46,0.01-8.92,0-13.38,0c-0.24,0-0.47-0.01-0.7-0.05c-0.27-0.05-0.5,0.03-0.66,0.33c-0.91,1.65-1.86,3.28-2.76,4.94
		c-1.03,1.88-2.09,3.73-3.12,5.61c-0.48,0.87-1.01,1.71-1.45,2.61c-0.11,0.23-0.23,0.35-0.5,0.27c-0.14-0.04-0.3-0.01-0.46-0.01
		c-3.93,0-7.85,0-11.78,0c-0.1,0-0.2,0-0.3,0c-0.33-0.02-0.37-0.06-0.2-0.35c0.58-0.99,1.17-1.97,1.76-2.95
		c0.85-1.41,1.71-2.82,2.57-4.23c0.73-1.21,1.44-2.44,2.19-3.63c0.7-1.11,1.33-2.26,2.01-3.39c0.92-1.54,1.88-3.07,2.78-4.62
		c0.65-1.12,1.34-2.22,2.01-3.32c0.65-1.06,1.27-2.14,1.94-3.19c0.49-0.76,0.94-1.56,1.4-2.34c0.76-1.29,1.54-2.56,2.3-3.85
		c1.04-1.77,2.1-3.53,3.17-5.28c1.08-1.78,2.17-3.57,3.24-5.36c0.64-1.07,1.28-2.14,1.91-3.21c0.49-0.84,1.02-1.67,1.52-2.5
		c0.7-1.15,1.38-2.31,2.08-3.46c0.65-1.08,1.32-2.15,1.97-3.23c0.65-1.08,1.29-2.18,1.93-3.26c0.53-0.9,1.08-1.79,1.61-2.69
		c0.18-0.3,0.42-0.38,0.75-0.38C267.01,11.01,269.18,11,271.34,11.01C271.34,11.01,271.34,11.01,271.34,11.01z M267.66,27.45
		c0-0.65,0-1.37,0-2.1c0-0.18,0.05-0.44-0.14-0.5c-0.23-0.07-0.33,0.2-0.43,0.36c-0.23,0.37-0.4,0.77-0.62,1.15
		c-1.16,2-2.28,4.01-3.39,6.03c-1.06,1.94-2.18,3.84-3.24,5.78c-1.34,2.45-2.75,4.87-4.12,7.31c-0.74,1.31-1.47,2.62-2.2,3.92
		c-0.17,0.31-0.13,0.43,0.18,0.39c0.67-0.1,1.33,0.05,2,0.05c3.74-0.04,7.48,0.03,11.22-0.03c0.32-0.01,0.42-0.09,0.42-0.39
		c-0.01-1.06,0.03-2.13,0.06-3.19c0.08-2.74,0.05-5.47,0.09-8.21C267.56,34.52,267.58,31.02,267.66,27.45z"/>
	<path class="st0" d="M19.06,51.94c0.66-0.79,0.93-1.72,1.35-2.58c0.48-0.99,0.92-1.99,1.35-2.99c0.5-1.17,1.08-2.31,1.6-3.48
		c0.45-1.03,0.96-2.04,1.44-3.06c1.07-2.25,2.07-4.54,3.11-6.8c0.66-1.45,1.36-2.89,2.01-4.35c0.79-1.78,1.64-3.54,2.44-5.32
		c1.07-2.38,2.19-4.74,3.26-7.11c0.75-1.66,1.58-3.28,2.27-4.96c0.21-0.49,0.52-0.66,1.05-0.66c3.26,0.02,6.53,0.02,9.79,0.02
		c0.98,0,1.96,0,2.94,0c0.38,0,0.43,0.08,0.27,0.4c-0.51,1-1.06,1.99-1.53,3.01c-0.66,1.4-1.43,2.75-2.1,4.14
		c-0.84,1.74-1.76,3.45-2.63,5.18c-0.72,1.43-1.43,2.87-2.15,4.3c-0.53,1.05-1.08,2.09-1.62,3.15c-0.78,1.55-1.52,3.11-2.34,4.64
		c-0.75,1.41-1.4,2.87-2.15,4.28c-0.88,1.65-1.69,3.33-2.54,4.99c-0.96,1.88-1.91,3.75-2.87,5.63c-1.03,2.02-2.04,4.05-3.07,6.07
		c-0.89,1.76-1.81,3.5-2.67,5.27c-0.53,1.08-1.08,2.16-1.63,3.23c-0.84,1.61-1.64,3.24-2.46,4.86c-0.29,0.57-0.62,1.12-0.85,1.72
		c-0.12,0.32-0.36,0.31-0.62,0.31c-2.01,0-4.03,0-6.04,0.02c-1.62,0.02-3.23-0.05-4.85,0.01c-0.33,0.01-0.73,0.06-0.99-0.09
		c-0.28-0.16-0.09-0.59-0.17-0.9c-0.03-0.13-0.06-0.27-0.06-0.4c0-1.17-0.25-2.31-0.33-3.47C8.21,65.95,8.1,64.91,8,63.87
		c-0.17-1.61-0.29-3.22-0.47-4.83c-0.19-1.67-0.3-3.36-0.46-5.03c-0.17-1.88-0.36-3.76-0.54-5.64c-0.12-1.26-0.23-2.52-0.37-3.77
		c-0.17-1.52-0.29-3.05-0.46-4.58c-0.1-0.85-0.13-1.72-0.24-2.57c-0.19-1.6-0.31-3.22-0.46-4.83c-0.16-1.66-0.33-3.32-0.46-4.99
		c-0.12-1.55-0.3-3.09-0.45-4.63c-0.08-0.86-0.16-1.71-0.24-2.57c-0.09-0.94-0.19-1.88-0.28-2.82c-0.11-1.19-0.23-2.38-0.33-3.57
		c-0.08-0.86-0.14-1.71-0.21-2.57c-0.01-0.1-0.01-0.2-0.04-0.3c-0.14-0.44-0.06-0.55,0.42-0.55c0.98,0,1.96,0.02,2.94,0.02
		c3.18,0,6.36-0.01,9.54-0.01c0.53,0,0.53,0.01,0.56,0.52c0.14,2.29,0.29,4.58,0.42,6.87c0.11,2.02,0.24,4.04,0.38,6.06
		c0.12,1.68,0.18,3.36,0.29,5.04c0.14,2,0.2,4.01,0.34,6.02c0.15,2.29,0.3,4.58,0.42,6.87c0.11,2.05,0.22,4.11,0.39,6.16
		c0.08,0.99,0.03,1.99,0.16,2.98C18.86,51.42,18.92,51.67,19.06,51.94z"/>
	<path class="st0" d="M186.52,38.62c-4.53,0-9.06,0-13.59,0c-0.54,0-0.68,0.11-0.65,0.65c0.08,1.6,0.13,3.2,0.69,4.74
		c0.41,1.12,0.98,2.11,1.84,2.97c0.72,0.72,1.52,1.25,2.44,1.66c1.83,0.82,3.76,0.83,5.7,0.73c1.36-0.07,2.71-0.2,4.05-0.45
		c0.84-0.16,1.68-0.35,2.51-0.54c0.96-0.21,1.91-0.52,2.85-0.87c0.55-0.21,1.1-0.42,1.66-0.61c0.37-0.13,0.42-0.11,0.48,0.28
		c0.09,0.6,0.17,1.2,0.27,1.8c0.27,1.73,0.54,3.46,0.82,5.19c0.15,0.94,0.18,0.98-0.86,1.45c-1.43,0.64-2.91,1.18-4.41,1.57
		c-1.65,0.43-3.33,0.75-5.03,1c-1.24,0.18-2.48,0.25-3.72,0.39c-1.48,0.17-2.97,0.1-4.45,0.07c-1.25-0.03-2.48-0.28-3.71-0.46
		c-1.31-0.19-2.55-0.63-3.77-1.1c-1.16-0.45-2.24-1.08-3.27-1.79c-1.96-1.34-3.45-3.1-4.59-5.16c-0.81-1.45-1.35-3-1.69-4.61
		c-0.45-2.12-0.62-4.27-0.51-6.44c0.11-2.26,0.41-4.5,0.93-6.7c0.54-2.26,1.25-4.47,2.17-6.61c0.97-2.27,2.17-4.39,3.63-6.38
		c0.84-1.14,1.78-2.19,2.79-3.17c0.91-0.88,1.87-1.69,2.89-2.43c1.42-1.03,2.93-1.9,4.56-2.55c0.52-0.2,1.01-0.47,1.54-0.63
		c0.99-0.3,1.99-0.58,3.01-0.8c2.59-0.55,5.2-0.5,7.81-0.36c0.97,0.05,1.93,0.3,2.87,0.56c1.58,0.43,3.09,1.05,4.46,1.97
		c1.52,1.02,2.79,2.28,3.76,3.83c0.64,1.01,1.11,2.1,1.52,3.23c0.92,2.59,1.15,5.26,1.07,7.97c-0.05,1.75-0.33,3.48-0.58,5.21
		c-0.2,1.37-0.52,2.71-0.78,4.07c-0.13,0.71-0.39,1.39-0.59,2.09c-0.07,0.24-0.25,0.24-0.44,0.24c-0.69,0-1.39,0-2.08,0
		C194.26,38.62,190.39,38.62,186.52,38.62C186.52,38.62,186.52,38.62,186.52,38.62z M181.48,29.91c2.64,0,5.28,0,7.91,0
		c0.27,0,0.43-0.06,0.5-0.36c0.42-1.78,0.66-3.58,0.64-5.41c-0.01-1.28-0.23-2.51-0.75-3.68c-0.43-0.97-1.05-1.78-1.97-2.36
		c-0.78-0.5-1.63-0.71-2.52-0.8c-1.69-0.16-3.25,0.17-4.77,0.98c-1.31,0.69-2.38,1.6-3.33,2.71c-1,1.17-1.75,2.5-2.44,3.87
		c-0.76,1.5-1.25,3.08-1.67,4.69c-0.06,0.21,0.03,0.33,0.23,0.36c0.13,0.02,0.27,0.01,0.41,0.01
		C176.31,29.91,178.89,29.91,181.48,29.91z"/>
	<path class="st0" d="M94.83,38.61c-4.46,0-8.93,0-13.39,0c-0.12,0-0.24-0.01-0.35,0.01c-0.33,0.05-0.51,0.24-0.51,0.57
		c0.01,2.07,0.2,4.12,1.15,6c0.53,1.04,1.29,1.93,2.27,2.6c1.64,1.12,3.47,1.57,5.43,1.6c1.45,0.02,2.91-0.01,4.34-0.23
		c1.03-0.16,2.06-0.32,3.07-0.56c1.08-0.25,2.15-0.56,3.21-0.88c0.74-0.22,1.45-0.54,2.17-0.82c0.36-0.14,0.45-0.11,0.51,0.28
		c0.2,1.28,0.38,2.57,0.58,3.85c0.18,1.1,0.37,2.19,0.56,3.29c0.03,0.15,0.03,0.3,0.06,0.45c0.04,0.3-0.11,0.46-0.37,0.58
		c-0.87,0.4-1.77,0.74-2.67,1.07c-1.73,0.63-3.51,1.09-5.31,1.43c-1.34,0.25-2.69,0.45-4.05,0.56c-1.24,0.11-2.48,0.28-3.73,0.26
		c-1.35-0.02-2.7,0.05-4.04-0.17c-1.33-0.22-2.66-0.38-3.96-0.77c-1.28-0.39-2.51-0.89-3.69-1.49c-0.91-0.46-1.73-1.09-2.54-1.74
		c-1.06-0.85-1.92-1.88-2.7-2.98c-0.7-0.99-1.25-2.07-1.69-3.21c-0.8-2.06-1.18-4.22-1.36-6.41c-0.12-1.45,0-2.9,0.12-4.35
		c0.2-2.39,0.65-4.75,1.31-7.06c0.36-1.28,0.79-2.54,1.28-3.78c0.48-1.21,1.05-2.37,1.64-3.52c0.38-0.75,0.81-1.48,1.28-2.17
		c0.54-0.79,1.04-1.62,1.65-2.36c0.76-0.92,1.55-1.81,2.42-2.63c0.9-0.85,1.82-1.66,2.84-2.35c0.94-0.64,1.92-1.23,2.94-1.75
		c0.94-0.48,1.89-0.89,2.88-1.22c1.11-0.38,2.24-0.69,3.4-0.93c2.44-0.51,4.9-0.44,7.36-0.35c0.66,0.02,1.29,0.22,1.94,0.32
		c0.87,0.13,1.7,0.41,2.52,0.7c1.49,0.53,2.85,1.27,4.09,2.25c1.15,0.91,2.08,2.01,2.86,3.24c1.14,1.8,1.77,3.8,2.18,5.88
		c0.34,1.73,0.33,3.46,0.31,5.2c-0.02,1.91-0.35,3.79-0.64,5.68c-0.21,1.35-0.53,2.68-0.81,4.01c-0.11,0.54-0.33,1.06-0.47,1.6
		c-0.09,0.34-0.33,0.33-0.59,0.33c-1.59,0-3.18-0.01-4.77-0.01C100.64,38.62,97.74,38.62,94.83,38.61
		C94.83,38.61,94.83,38.61,94.83,38.61z M89.73,29.91c2.57,0,5.14,0,7.71,0c0.63,0,0.67-0.01,0.79-0.6c0.41-2,0.72-4.01,0.53-6.07
		c-0.11-1.27-0.48-2.44-1.11-3.54c-0.28-0.48-0.62-0.93-1.06-1.27c-0.87-0.67-1.87-1.05-2.97-1.14c-1.7-0.14-3.31,0.11-4.83,0.93
		c-0.61,0.33-1.2,0.69-1.72,1.13c-1.49,1.26-2.66,2.8-3.59,4.5c-0.94,1.7-1.64,3.51-2.04,5.42c-0.12,0.58-0.07,0.64,0.52,0.64
		C84.55,29.91,87.14,29.91,89.73,29.91z"/>
	<path class="st0" d="M108.25,62.74c0.42,0.24,0.71,0.56,1,0.85c0.82,0.79,1.73,1.44,2.7,2.02c1.49,0.88,3.08,1.52,4.77,1.86
		c1.25,0.26,2.53,0.4,3.82,0.4c1.49,0,2.97-0.14,4.41-0.53c1.11-0.31,2.21-0.65,3.27-1.15c1.53-0.73,2.96-1.61,4.21-2.75
		c1.28-1.16,2.23-2.55,3.02-4.08c0.72-1.42,1.23-2.92,1.7-4.43c0.66-2.09,1.08-4.23,1.52-6.37c0.33-1.62,0.67-3.23,1.01-4.85
		c0.45-2.16,0.88-4.32,1.34-6.48c0.26-1.22,0.54-2.44,0.79-3.66c0.36-1.71,0.71-3.43,1.07-5.15c0.32-1.55,0.65-3.09,0.97-4.64
		c0.27-1.27,0.57-2.53,0.82-3.8c0.39-1.95,0.84-3.89,1.24-5.83c0.21-1.02,0.43-2.03,0.63-3.05c0.06-0.32,0.21-0.45,0.55-0.45
		c4.07,0,8.15,0,12.22,0c0.84,0,0.84-0.01,0.67,0.82c-0.52,2.47-1.01,4.95-1.56,7.42c-0.25,1.15-0.48,2.31-0.75,3.46
		c-0.16,0.67-0.27,1.35-0.41,2.02c-0.3,1.4-0.6,2.8-0.89,4.2c-0.44,2.13-0.88,4.26-1.32,6.38c-0.33,1.58-0.67,3.17-1.01,4.75
		c-0.37,1.78-0.71,3.57-1.12,5.34c-0.36,1.61-0.67,3.23-1.02,4.84c-0.36,1.68-0.7,3.36-1.06,5.04c-0.47,2.17-1.08,4.31-1.89,6.38
		c-0.6,1.51-1.26,2.99-2.02,4.41c-0.46,0.85-1.02,1.66-1.58,2.46c-0.83,1.19-1.76,2.3-2.74,3.35c-0.72,0.77-1.52,1.48-2.36,2.13
		c-1.17,0.91-2.41,1.73-3.72,2.43c-0.97,0.51-1.98,0.92-3.02,1.28c-1.25,0.44-2.52,0.75-3.82,0.95c-1.69,0.26-3.38,0.4-5.09,0.2
		c-0.4-0.05-0.81-0.08-1.21-0.08c-1.08-0.02-2.11-0.27-3.14-0.52c-1.59-0.38-3.1-0.97-4.53-1.78c-1.43-0.81-2.76-1.74-3.86-2.96
		c-0.86-0.95-1.58-1.99-2.19-3.13c-0.68-1.29-1.1-2.64-1.31-4.06C108.19,64.93,108.08,63.87,108.25,62.74z"/>
	<path class="st0" d="M137.11,10.6c1.05,0,2.1,0,3.14,0c0.42,0,0.5,0.06,0.4,0.47c-0.2,0.84-0.35,1.68-0.52,2.52
		c-0.16,0.77-0.34,1.54-0.48,2.32c-0.18,1.06-0.44,2.11-0.66,3.17c-0.05,0.23-0.2,0.26-0.41,0.28c-1.42,0.09-2.83,0-4.25,0
		c-0.74,0-1.49-0.01-2.23,0c-0.53,0.01-0.59,0.08-0.7,0.58c-0.14,0.64-0.18,1.31-0.34,1.94c-0.18,0.7-0.34,1.4-0.49,2.11
		c-0.41,1.91-0.8,3.82-1.2,5.74c-0.24,1.16-0.48,2.31-0.72,3.47c-0.51,2.44-1.01,4.88-1.52,7.32c-0.28,1.35-0.59,2.7-0.85,4.06
		c-0.21,1.11-0.23,2.2,0.24,3.28c0.45,1.04,1.29,1.56,2.3,1.78c0.94,0.21,1.9,0.19,2.87-0.01c0.51-0.11,1.02-0.18,1.53-0.33
		c0.24-0.07,0.28,0.06,0.23,0.24c-0.1,0.34-0.2,0.68-0.34,1c-0.47,1.08-1,2.13-1.65,3.12c-0.89,1.35-2.07,2.4-3.36,3.3
		c-0.62,0.43-1.35,0.75-2.09,1c-0.85,0.29-1.71,0.49-2.59,0.62c-1.29,0.19-2.59,0.13-3.87-0.09c-1.23-0.21-2.38-0.65-3.42-1.32
		c-0.75-0.48-1.41-1.09-1.95-1.82c-1-1.34-1.54-2.89-1.77-4.51c-0.16-1.15-0.16-2.32-0.07-3.48c0.09-1.18,0.35-2.33,0.57-3.49
		c0.24-1.29,0.55-2.57,0.8-3.86c0.34-1.79,0.76-3.56,1.14-5.34c0.38-1.79,0.78-3.59,1.14-5.39c0.6-3.01,1.28-6,1.9-9
		c0.25-1.2,0.47-2.42,0.72-3.62c0.27-1.27,0.51-2.54,0.81-3.8c0.24-1.02,0.42-2.05,0.66-3.06c0.28-1.23,0.46-2.48,0.79-3.7
		c0.17-0.64,0.3-1.29,0.37-1.93c0.09-0.78,0.54-1.23,1.08-1.68c1.57-1.29,3.37-2.13,5.3-2.74c1.41-0.45,2.86-0.56,4.33-0.66
		c1.13-0.08,2.24,0.1,3.36,0.19c0.44,0.04,0.47,0.08,0.4,0.51c-0.12,0.68-0.26,1.36-0.42,2.03c-0.26,1.1-0.44,2.22-0.7,3.31
		c-0.22,0.93-0.37,1.88-0.61,2.81c-0.18,0.7-0.31,1.41-0.45,2.12c-0.1,0.5-0.04,0.57,0.46,0.57c1.05,0,2.1,0,3.14,0
		C137.11,10.62,137.11,10.61,137.11,10.6z"/>
	<path class="st0" d="M228.89,10.63c1.06,0,2.13-0.01,3.19,0c0.4,0,0.42,0.03,0.35,0.4c-0.25,1.21-0.52,2.41-0.77,3.61
		c-0.28,1.33-0.55,2.67-0.83,4.01c-0.01,0.05-0.01,0.1-0.02,0.15c-0.12,0.58-0.12,0.58-0.7,0.58c-1.56,0-3.11,0-4.67,0
		c-0.29,0-0.57-0.03-0.84,0.11c-0.12,0.07-0.26,0.06-0.38-0.04c-0.16-0.13-0.35-0.09-0.53-0.11c-0.29-0.03-0.43,0.12-0.48,0.39
		c-0.33,1.67-0.66,3.34-1.02,5c-0.35,1.65-0.7,3.29-1.03,4.94c-0.42,2.13-0.91,4.25-1.35,6.37c-0.33,1.58-0.59,3.18-0.96,4.75
		c-0.29,1.23-0.51,2.47-0.78,3.7c-0.27,1.24-0.26,2.5,0.36,3.65c0.25,0.46,0.65,0.85,1.15,1.1c1.17,0.57,2.4,0.61,3.65,0.4
		c0.6-0.1,1.21-0.12,1.78-0.35c0.27-0.11,0.24,0.11,0.19,0.25c-0.18,0.54-0.31,1.11-0.58,1.62c-0.37,0.71-0.72,1.44-1.17,2.11
		c-0.86,1.29-1.9,2.37-3.15,3.3c-1.05,0.78-2.2,1.29-3.42,1.65c-1.14,0.34-2.33,0.47-3.54,0.44c-1.44-0.02-2.82-0.29-4.14-0.81
		c-1.54-0.61-2.75-1.67-3.64-3.07c-1.09-1.72-1.48-3.63-1.53-5.63c-0.05-1.84,0.24-3.63,0.65-5.41c0.34-1.49,0.63-3,0.94-4.5
		c0.32-1.55,0.65-3.1,0.98-4.65c0.61-2.92,1.22-5.84,1.84-8.75c0.37-1.76,0.74-3.53,1.1-5.29c0.27-1.32,0.53-2.64,0.82-3.96
		c0.46-2.09,0.87-4.18,1.34-6.27c0.18-0.8,0.34-1.62,0.49-2.43c0.28-1.47,0.63-2.93,0.94-4.4c0.04-0.21,0.13-0.38,0.29-0.52
		c0.66-0.57,1.32-1.13,2.08-1.58c0.86-0.51,1.76-0.92,2.67-1.31c0.3-0.13,0.61-0.2,0.91-0.29c1.05-0.29,2.11-0.58,3.22-0.65
		c0.65-0.04,1.31-0.05,1.96-0.18c0.25-0.05,0.51-0.01,0.73,0.05c0.68,0.17,1.38,0.1,2.06,0.21c0.42,0.07,0.49,0.13,0.39,0.56
		c-0.61,2.8-1.21,5.6-1.82,8.4c-0.13,0.59-0.26,1.19-0.37,1.78c-0.1,0.58-0.04,0.64,0.55,0.64
		C226.83,10.64,227.86,10.64,228.89,10.63C228.89,10.64,228.89,10.63,228.89,10.63z"/>
	<path class="st0" d="M330.46,9.71c1.3-0.05,2.6,0.06,3.9,0.13c0.59,0.03,1.17,0.15,1.76,0.19c0.13,0.01,0.26,0.06,0.39,0.12
		c0.13,0.06,0.19,0.13,0.12,0.31c-0.52,1.41-0.98,2.83-1.44,4.26c-0.37,1.12-0.71,2.25-1.12,3.35c-0.16,0.43-0.24,0.88-0.41,1.3
		c-0.18,0.44-0.22,0.45-0.68,0.31c-1.78-0.56-3.6-0.89-5.48-0.81c-0.97,0.04-1.9,0.24-2.83,0.53c-0.28,0.09-0.39,0.27-0.45,0.55
		c-0.4,2.01-0.81,4.03-1.23,6.04c-0.36,1.73-0.72,3.46-1.08,5.19c-0.45,2.18-0.86,4.36-1.35,6.53c-0.49,2.19-0.88,4.39-1.38,6.57
		c-0.38,1.66-0.63,3.34-1,5c-0.54,2.42-0.99,4.85-1.52,7.27c-0.11,0.49-0.19,0.99-0.29,1.49c-0.09,0.48-0.18,0.56-0.65,0.56
		c-3.99,0-7.97,0-11.96-0.01c-0.96,0-0.96-0.01-0.76-0.96c0.39-1.83,0.77-3.66,1.15-5.49c0.42-1.99,0.83-3.98,1.24-5.98
		c0.7-3.35,1.4-6.69,2.1-10.04c0.55-2.64,1.1-5.27,1.65-7.91c0.41-1.96,0.83-3.92,1.21-5.89c0.46-2.38,1.01-4.74,1.5-7.11
		c0.08-0.4,0.15-0.79,0.24-1.19c0.06-0.25,0.18-0.42,0.4-0.54c1.1-0.62,2.29-1.04,3.48-1.47c1.02-0.36,2.05-0.66,3.1-0.91
		c1.44-0.35,2.89-0.67,4.36-0.88c0.98-0.14,1.97-0.32,2.96-0.38c1.25-0.07,2.5-0.17,3.75-0.14C330.26,9.71,330.36,9.71,330.46,9.71z
		"/>
	<path class="st0" d="M61.5,10.59c2.08,0,4.16,0,6.24,0c0.53,0,0.56,0.03,0.45,0.53c-0.19,0.93-0.38,1.85-0.59,2.77
		c-0.34,1.51-0.64,3.03-0.97,4.54c-0.31,1.41-0.6,2.82-0.89,4.24c-0.44,2.09-0.86,4.19-1.3,6.29c-0.35,1.66-0.72,3.32-1.07,4.98
		c-0.37,1.75-0.71,3.5-1.08,5.24c-0.3,1.42-0.64,2.82-0.9,4.25c-0.3,1.62-0.71,3.22-1.02,4.84c-0.25,1.3-0.54,2.6-0.82,3.91
		c-0.34,1.6-0.72,3.19-0.99,4.8c-0.05,0.31-0.2,0.6-0.22,0.93c-0.02,0.22-0.16,0.37-0.42,0.33c-0.05-0.01-0.1,0-0.15,0
		c-4.19,0-8.39,0-12.58,0c-0.4,0-0.44-0.05-0.37-0.44c0.21-1.13,0.43-2.25,0.68-3.37c0.47-2.08,0.87-4.18,1.34-6.26
		c0.46-2.02,0.83-4.05,1.26-6.08c0.36-1.69,0.72-3.39,1.07-5.09c0.2-0.95,0.4-1.91,0.61-2.86c0.29-1.31,0.53-2.64,0.82-3.96
		c0.25-1.12,0.48-2.24,0.71-3.36c0.3-1.45,0.61-2.9,0.91-4.35c0.21-0.99,0.39-1.98,0.61-2.96c0.26-1.15,0.49-2.3,0.75-3.45
		c0.37-1.68,0.71-3.36,1.04-5.04c0.06-0.33,0.2-0.46,0.53-0.46C57.27,10.59,59.39,10.59,61.5,10.59
		C61.5,10.59,61.5,10.59,61.5,10.59z"/>
	<path class="st0" d="M299.06,11.01c2.48,0,4.56,0,6.64,0c0.47,0,0.51,0.06,0.43,0.49c-0.17,0.93-0.35,1.86-0.55,2.78
		c-0.35,1.54-0.66,3.09-0.99,4.64c-0.24,1.14-0.5,2.27-0.74,3.4c-0.64,3.05-1.27,6.09-1.9,9.14c-0.43,2.06-0.85,4.12-1.29,6.17
		c-0.34,1.61-0.7,3.23-1.04,4.84c-0.27,1.27-0.5,2.54-0.77,3.81c-0.25,1.17-0.52,2.33-0.77,3.5c-0.43,2.01-0.84,4.03-1.26,6.04
		c-0.15,0.71-0.35,1.41-0.44,2.13c-0.04,0.35-0.18,0.57-0.61,0.58c-0.34,0.01-0.67,0-1.01,0c-3.3,0-6.59,0-9.89-0.01
		c-0.57,0-1.15-0.01-1.72-0.01c-0.27,0-0.37-0.07-0.3-0.4c0.38-1.8,0.72-3.6,1.1-5.4c0.3-1.47,0.65-2.92,0.92-4.39
		c0.2-1.08,0.48-2.14,0.71-3.21c0.27-1.28,0.5-2.58,0.8-3.86c0.35-1.49,0.64-3,0.96-4.49c0.3-1.38,0.53-2.78,0.84-4.16
		c0.4-1.76,0.74-3.53,1.12-5.29c0.27-1.25,0.52-2.5,0.79-3.76c0.6-2.85,1.21-5.71,1.82-8.56c0.23-1.07,0.47-2.14,0.64-3.22
		c0.03-0.21,0.13-0.42,0.2-0.62c0.06-0.18,0.21-0.19,0.37-0.19C295.24,11.05,297.35,10.98,299.06,11.01z"/>
</g>
</svg>
