<?xml version="1.0" encoding="utf-8"?>
<!-- Generator: Adobe Illustrator 25.4.1, SVG Export Plug-In . SVG Version: 6.00 Build 0)  -->
<svg version="1.1" id="Layer_1" xmlns="http://www.w3.org/2000/svg" xmlns:xlink="http://www.w3.org/1999/xlink" x="0px" y="0px"
	 viewBox="0 0 145.3 80" style="enable-background:new 0 0 145.3 80;" xml:space="preserve">
<style type="text/css">
	.st0{fill:#2E7C55;}
	.st1{fill:url(#SVGID_1_);}
	.st2{fill:#1D3386;}
	.st3{fill:url(#SVGID_00000104680208433438573980000003417475746793818293_);}
</style>
<g>
	<polygon class="st0" points="80.5,0 145.3,78.3 108.6,78.3 46.6,0 	"/>
	<linearGradient id="SVGID_1_" gradientUnits="userSpaceOnUse" x1="78.4345" y1="18.9013" x2="123.8155" y2="9.3609">
		<stop  offset="0" style="stop-color:#BCC9F8"/>
		<stop  offset="0.9995" style="stop-color:#24418E"/>
	</linearGradient>
	<polygon class="st1" points="119.4,11.5 89.8,11.2 97.2,20.2 	"/>
	<path class="st0" d="M61.5,49.6c0,0-5.7,1.4-12.4,3.1L7.5,0h39.1L61.5,49.6z"/>
	<path class="st0" d="M70.7,80L51.8,56.1c6.3-1.6,10.6-2.9,10.7-3L70.7,80z"/>
	<path class="st2" d="M32.3,56.7c-1.4,0.3-2.9,0.6-4.4,0.8L7.5,0l41.6,52.7C43.1,54.2,36.2,55.8,32.3,56.7z"/>
	<path class="st2" d="M70.7,80H35.9l-6.7-18.9c8-1.4,16.3-3.3,22.6-5L70.7,80z"/>
	
		<linearGradient id="SVGID_00000020398174449035414740000009766604334454823814_" gradientUnits="userSpaceOnUse" x1="56.4706" y1="41.7868" x2="-4.3811" y2="61.3831">
		<stop  offset="0" style="stop-color:#BCC9F8"/>
		<stop  offset="0.9995" style="stop-color:#7189C5"/>
	</linearGradient>
	<path style="fill:url(#SVGID_00000020398174449035414740000009766604334454823814_);" d="M51.8,56.1c-6.3,1.6-14.6,3.6-22.6,5
		c-10.5,1.8-20.6,2.6-25.4,0.3C-8.5,55.7,12.4,44.7,19,41c0,0-15.8,11.9-9.9,15c4.9,2.6,11.9,2.6,18.8,1.5c1.5-0.2,2.9-0.5,4.4-0.8
		c3.9-0.9,10.7-2.5,16.8-4L51.8,56.1z"/>
</g>
</svg>
