<?xml version="1.0" encoding="utf-8"?>
<!-- Generator: Adobe Illustrator 25.4.1, SVG Export Plug-In . SVG Version: 6.00 Build 0)  -->
<svg version="1.1" id="Layer_1" xmlns="http://www.w3.org/2000/svg" xmlns:xlink="http://www.w3.org/1999/xlink" x="0px" y="0px"
	 viewBox="0 0 167.4 80" style="enable-background:new 0 0 167.4 80;" xml:space="preserve">
<style type="text/css">
	.st0{fill:#25428E;}
	.st1{fill:#2E7C55;}
	.st2{fill:url(#SVGID_1_);}
	.st3{fill:#1D3386;}
	.st4{fill:url(#SVGID_00000041287217280743460060000004849543960551419528_);}
</style>
<g>
	<g>
		<polygon class="st0" points="14.2,63.4 9,71.5 8.4,63.4 4.7,63.4 0,79.6 3,79.6 6.3,68.7 6.7,75.9 8.9,75.9 13,69.2 10.1,79.6 
			13.3,79.6 17.9,63.4 		"/>
		<path class="st0" d="M24.3,67.1c-6.1,0-7.2,6.9-7.1,8.7c0.1,1.8,1.3,4.1,4.2,4.1c2.9,0,4.5-1.1,4.5-1.1l0.8-3.1
			c0,0-1.8,1.6-4.3,1.6c-2.5,0-2.3-2.5-2.2-3.1h7.1C27.5,74.2,30.4,67.1,24.3,67.1z M25.1,71.8h-4.2c0,0,0.8-2.3,2.8-2.3
			S25.1,71.8,25.1,71.8z"/>
		<path class="st0" d="M76.1,67.1c-6.1,0-7.2,6.9-7.1,8.7c0.1,1.8,1.3,4.1,4.2,4.1c2.9,0,4.5-1.1,4.5-1.1l0.8-3.1
			c0,0-1.8,1.6-4.3,1.6c-2.5,0-2.3-2.5-2.2-3.1h7.1C79.2,74.2,82.1,67.1,76.1,67.1z M76.8,71.8h-4.2c0,0,0.8-2.3,2.8-2.3
			C77.5,69.5,76.8,71.8,76.8,71.8z"/>
		<path class="st0" d="M166.7,74.2c0,0,2.9-7.1-3.1-7.1s-7.2,6.9-7.1,8.7c0.1,1.8,1.3,4.1,4.2,4.1s4.5-1.1,4.5-1.1l0.8-3.1
			c0,0-1.8,1.6-4.3,1.6c-2.5,0-2.3-2.5-2.2-3.1H166.7z M163,69.5c2,0,1.4,2.3,1.4,2.3h-4.2C160.1,71.8,161,69.5,163,69.5z"/>
		<path class="st0" d="M39.1,62.7l-1.5,5.2c-0.4-0.4-1.1-0.7-2.1-0.7c-3.5,0-5.8,4.3-6.5,7.3c-0.7,3,0.4,5.6,2.2,5.6
			c1.8,0,3.4-1.6,3.4-1.6l-0.2,1.2h3l4.8-17H39.1z M35.2,76.2c0,0-1,1-2,1c-1,0-1.7-1.6-0.9-4c0.8-2.4,2.3-3.5,3.6-3.5
			c0.7,0,0.9,0.3,1,0.7L35.2,76.2L35.2,76.2z"/>
		<polygon class="st0" points="41.5,74 47.8,74 49,70.9 42.4,70.9 		"/>
		<circle class="st0" cx="68" cy="64.3" r="1.9"/>
		<polygon class="st0" points="62.2,79.6 65.1,79.6 68.7,67.5 65.6,67.5 		"/>
		<circle class="st0" cx="122.5" cy="64.3" r="1.9"/>
		<polygon class="st0" points="120.1,67.5 116.7,79.6 119.6,79.6 123.1,67.5 		"/>
		<path class="st0" d="M143.2,66.2c1.1,0,1.9-0.9,1.9-1.9c0-1.1-0.9-1.9-1.9-1.9c-1.1,0-1.9,0.9-1.9,1.9
			C141.3,65.4,142.1,66.2,143.2,66.2z"/>
		<polygon class="st0" points="140.8,67.5 137.4,79.6 140.3,79.6 143.8,67.5 		"/>
		<polygon class="st0" points="136.1,62.8 131.4,79.6 134.3,79.6 139.2,62.8 		"/>
		<polygon class="st0" points="61.6,63.5 55.3,74.7 55.5,63.5 52.2,63.5 52.3,79.6 55.9,79.6 65.1,63.5 		"/>
		<polygon class="st0" points="91.6,75.5 91.7,67.5 89.1,67.5 84.9,75.5 85.2,67.5 82.3,67.5 82,79.6 85.1,79.6 89.2,71.4 
			89.2,79.6 92.2,79.6 98.4,67.5 95.3,67.5 		"/>
		<path class="st0" d="M101.9,79.6h3.4l1.8-3.3h4.7l0,3.3h3.2V63.5h-3.7L101.9,79.6z M111.8,73.5h-3.2l3.2-5.8L111.8,73.5z"/>
		<path class="st0" d="M131.9,71.2l1-3.7c0,0-1.9-0.6-4.5,2l0,0l0.6-2h-3l-3.4,12.1h2.9l2-7l0,0c0,0,0.6-1.8,2.5-1.8
			S131.9,71.2,131.9,71.2z"/>
		<path class="st0" d="M153.6,67.1c0,0-2.2-0.6-4.4,2.3l0.6-2h-3l-3.4,12.1h2.9l2-7l0,0l0,0l0,0c0.1-0.3,0.7-2,2.3-2.4
			c0.8-0.2,1.1,0.3,1.1,0.3s0.4,0.8-0.1,2.7s-1.7,6.5-1.7,6.5h2.8c0,0,2-6.6,2.4-8.3C155.6,69.6,155.3,67.5,153.6,67.1z"/>
	</g>
	<rect x="4" y="56.7" class="st1" width="162.4" height="1.7"/>
	<polygon class="st1" points="119.9,0 164.4,53.8 139.2,53.8 96.6,0 	"/>
	<linearGradient id="SVGID_1_" gradientUnits="userSpaceOnUse" x1="118.4769" y1="12.9845" x2="149.652" y2="6.4306">
		<stop  offset="0" style="stop-color:#BCC9F8"/>
		<stop  offset="0.9995" style="stop-color:#24418E"/>
	</linearGradient>
	<polygon class="st2" points="146.6,7.9 126.3,7.7 131.4,13.9 	"/>
	<path class="st1" d="M106.9,34.1c0,0-3.9,1-8.5,2.1L69.7,0h26.8L106.9,34.1z"/>
	<path class="st1" d="M113.1,55l-12.9-16.4c4.3-1.1,7.3-2,7.4-2.1L113.1,55z"/>
	<path class="st3" d="M86.8,39c-1,0.2-2,0.4-3,0.6L69.7,0l28.6,36.2C94.2,37.2,89.5,38.4,86.8,39z"/>
	<path class="st3" d="M113.1,55H89.3l-4.6-13c5.5-0.9,11.2-2.3,15.5-3.4L113.1,55z"/>
	
		<linearGradient id="SVGID_00000119796106284522255960000016378350710286117258_" gradientUnits="userSpaceOnUse" x1="103.3885" y1="28.706" x2="61.5856" y2="42.168">
		<stop  offset="0" style="stop-color:#BCC9F8"/>
		<stop  offset="0.9995" style="stop-color:#7189C5"/>
	</linearGradient>
	<path style="fill:url(#SVGID_00000119796106284522255960000016378350710286117258_);" d="M100.2,38.6c-4.3,1.1-10,2.5-15.5,3.4
		c-7.2,1.2-14.1,1.8-17.5,0.2c-8.4-4,5.9-11.5,10.5-14.1c0,0-10.9,8.1-6.8,10.3c3.4,1.8,8.2,1.8,12.9,1c1-0.2,2-0.4,3-0.6
		c2.7-0.6,7.4-1.7,11.5-2.7L100.2,38.6z"/>
</g>
</svg>
