<?xml version="1.0" encoding="utf-8"?>
<!-- Generator: Adobe Illustrator 25.4.1, SVG Export Plug-In . SVG Version: 6.00 Build 0)  -->
<svg version="1.1" id="Layer_2" xmlns="http://www.w3.org/2000/svg" xmlns:xlink="http://www.w3.org/1999/xlink" x="0px" y="0px"
	 viewBox="0 0 132.84 80" style="enable-background:new 0 0 132.84 80;" xml:space="preserve">
<style type="text/css">
	.st0{fill:#D99E09;}
</style>
<path class="st0" d="M66.42,72.31C65.26,72.97,56.97,80,40.47,80c-13.9,0.01-28.74-7.11-33.4-6.98c-1.64-0.07-2.95,0.26-3.99,0.72
	c-1.95,0.82-3.84-0.38-2.78-2.37c3.66-6.91,9.86-11.17,15.74-12.94c4.29-1.29,8.2-1.73,10.23,0.53
	c4.46,4.96,12.53,11.08,20.38,11.88c0.63,0.07,3.48,0.3,3.51-0.5c0.03-0.49-0.94-0.81-1.92-0.89c-8.01-0.58-22.45-9.16-30.39-25.76
	c-2.98-6.23-5.35-12.27-10.53-14.9c-1.15-0.55-1.18-2.68,1.23-3.25c1.69-0.4,12.35-1.43,24.54,4.99c5.6,2.95,6.38,5.59,6.4,7.89
	c-0.05,17.4,8.76,24.31,12.16,26.35c1.89,1.13,3.67,1.62,3.86,1.03c0.15-0.5-0.35-0.83-0.78-1.1C44.17,58.27,41.38,48.41,41.3,38.38
	c-0.08-9.93,3.6-18.52,6.21-25.56c0.39-0.99,1.62-5.19,0.57-9.07C47.28,0.84,47.92,0,49.45,0c1.67,0,3.9,2.71,4.65,3.64
	c0.6,0.7,2.54,3.07,5.48,8.87c5.82,11.5,5.86,23.51,5.86,24.98c0,8.26-2.13,9.21-5.6,10.92c-3.46,1.71-5.11,3.92-5.12,6.48
	c-0.01,2.63,1.82,5.37,5.12,6.33c2.55,0.74,4.16,0.46,4.03-0.2c-0.1-0.52-1.23-0.65-1.56-0.74c-3.47-0.94-5.77-2.72-5.77-5.39
	c0-3.33,4.1-5.77,9.88-5.77c5.78,0,9.88,2.44,9.88,5.77c0,2.67-2.3,4.45-5.77,5.39c-0.33,0.09-1.46,0.22-1.56,0.74
	c-0.13,0.67,1.48,0.95,4.03,0.2c3.29-0.96,5.12-3.7,5.11-6.33c0-2.56-1.65-4.77-5.11-6.48c-3.47-1.71-5.6-2.67-5.6-10.92
	c0-1.47,0.04-13.49,5.86-24.99c2.94-5.8,4.88-8.18,5.48-8.87C79.49,2.71,81.71,0,83.39,0c1.52,0,2.16,0.84,1.38,3.74
	c-1.04,3.88,0.19,8.08,0.57,9.07c2.61,7.05,6.29,15.63,6.21,25.56c-0.09,10.04-2.87,19.9-13.43,26.31c-0.43,0.26-0.94,0.6-0.78,1.09
	c0.19,0.6,1.96,0.12,3.85-1.02c3.41-2.04,12.21-8.95,12.16-26.35c0.01-2.31,0.8-4.95,6.4-7.89c12.19-6.42,22.85-5.39,24.54-4.99
	c2.41,0.58,2.38,2.7,1.23,3.25c-5.19,2.63-7.55,8.68-10.53,14.9c-7.94,16.61-22.38,25.19-30.39,25.77
	c-0.98,0.07-1.95,0.39-1.92,0.89c0.03,0.8,2.88,0.56,3.51,0.5c7.84-0.8,15.91-6.92,20.38-11.88c2.04-2.25,5.95-1.82,10.24-0.52
	c5.87,1.77,12.07,6.02,15.73,12.94c1.06,2-0.83,3.19-2.78,2.37c-1.03-0.45-2.35-0.79-3.99-0.72C121.1,72.89,106.26,80,92.36,80
	C75.86,80,67.58,72.97,66.42,72.31"/>
</svg>
