<?xml version="1.0" encoding="utf-8"?>
<!-- Generator: Adobe Illustrator 25.4.1, SVG Export Plug-In . SVG Version: 6.00 Build 0)  -->
<svg version="1.1" id="Layer_2" xmlns="http://www.w3.org/2000/svg" xmlns:xlink="http://www.w3.org/1999/xlink" x="0px" y="0px"
	 viewBox="0 0 652.86 80" style="enable-background:new 0 0 652.86 80;" xml:space="preserve">
<style type="text/css">
	.st0{fill:#D99E09;}
	.st1{fill:#005E80;}
</style>
<g>
	<path class="st0" d="M66.42,72.31C65.26,72.97,56.97,80,40.47,80c-13.9,0.01-28.74-7.11-33.4-6.98c-1.64-0.07-2.95,0.26-3.99,0.72
		c-1.95,0.82-3.84-0.38-2.78-2.37c3.66-6.91,9.86-11.17,15.74-12.94c4.29-1.29,8.2-1.73,10.23,0.53
		c4.46,4.96,12.53,11.08,20.38,11.88c0.63,0.07,3.48,0.3,3.51-0.5c0.03-0.49-0.94-0.81-1.92-0.89c-8.01-0.58-22.45-9.16-30.39-25.76
		c-2.98-6.23-5.35-12.27-10.53-14.9c-1.15-0.55-1.18-2.68,1.23-3.25c1.69-0.4,12.35-1.43,24.54,4.99c5.6,2.95,6.38,5.59,6.4,7.89
		c-0.05,17.4,8.76,24.31,12.16,26.35c1.89,1.13,3.67,1.62,3.86,1.03c0.15-0.5-0.35-0.83-0.78-1.1
		C44.17,58.27,41.38,48.41,41.3,38.38c-0.08-9.93,3.6-18.52,6.21-25.56c0.39-0.99,1.62-5.19,0.57-9.07C47.28,0.84,47.92,0,49.45,0
		c1.67,0,3.9,2.71,4.65,3.64c0.6,0.7,2.54,3.07,5.48,8.87c5.82,11.5,5.86,23.51,5.86,24.98c0,8.26-2.13,9.21-5.6,10.92
		c-3.46,1.71-5.11,3.92-5.12,6.48c-0.01,2.63,1.82,5.37,5.12,6.33c2.55,0.74,4.16,0.46,4.03-0.2c-0.1-0.52-1.23-0.65-1.56-0.74
		c-3.47-0.94-5.77-2.72-5.77-5.39c0-3.33,4.1-5.77,9.88-5.77c5.78,0,9.88,2.44,9.88,5.77c0,2.67-2.3,4.45-5.77,5.39
		c-0.33,0.09-1.46,0.22-1.56,0.74c-0.13,0.67,1.48,0.95,4.03,0.2c3.29-0.96,5.12-3.7,5.11-6.33c0-2.56-1.65-4.77-5.11-6.48
		c-3.47-1.71-5.6-2.67-5.6-10.92c0-1.47,0.04-13.49,5.86-24.99c2.94-5.8,4.88-8.18,5.48-8.87C79.49,2.71,81.71,0,83.39,0
		c1.52,0,2.16,0.84,1.38,3.74c-1.04,3.88,0.19,8.08,0.57,9.07c2.61,7.05,6.29,15.63,6.21,25.56c-0.09,10.04-2.87,19.9-13.43,26.31
		c-0.43,0.26-0.94,0.6-0.78,1.09c0.19,0.6,1.96,0.12,3.85-1.02c3.41-2.04,12.21-8.95,12.16-26.35c0.01-2.31,0.8-4.95,6.4-7.89
		c12.19-6.42,22.85-5.39,24.54-4.99c2.41,0.58,2.38,2.7,1.23,3.25c-5.19,2.63-7.55,8.68-10.53,14.9
		c-7.94,16.61-22.38,25.19-30.39,25.77c-0.98,0.07-1.95,0.39-1.92,0.89c0.03,0.8,2.88,0.56,3.51,0.5
		c7.84-0.8,15.91-6.92,20.38-11.88c2.04-2.25,5.95-1.82,10.24-0.52c5.87,1.77,12.07,6.02,15.73,12.94c1.06,2-0.83,3.19-2.78,2.37
		c-1.03-0.45-2.35-0.79-3.99-0.72C121.1,72.89,106.26,80,92.36,80C75.86,80,67.58,72.97,66.42,72.31"/>
	<path class="st1" d="M488.66,46.71c0-2.84,3.05-4.35,6.4-4.35c5.7,0,5.06,4.54,9.14,4.54c1.85,0,2.98-1.06,2.98-2.87
		c0-3.14-4.17-5.22-10.66-5.44c-6.21-0.2-9.44,0.9-11.66,1.76c-2.5,0.98-3.6,2.4-3.6,4.62V75.8c0,1.63,0.79,1.63,3.71,1.63
		c2.9,0,3.7,0,3.7-1.63V46.71z M301.33,52.19c0.02-11.7-10.18-13.55-17.58-13.55c-5.97,0-11.33,1.51-13.84,2.62
		c-2.49,1.1-2.7,2.48-2.7,4.75l0.02,29.83c0,1.62,0.8,1.62,3.7,1.62c2.91,0,3.71,0,3.71-1.62l-0.02-27.54
		c0-2.43,0.86-5.79,9.31-5.79c7.99,0,9.99,4.72,9.99,9.68l0.01,23.65c0,1.62,0.8,1.62,3.69,1.62c2.92,0,3.71,0,3.71-1.62
		L301.33,52.19L301.33,52.19z M466.74,75.78c0,1.62,0.8,1.62,3.69,1.62c2.91,0,3.71,0,3.71-1.62l0.03-35.12
		c0.03-2.58-3.52-1.93-5.34-0.75c-2.03,1.32-2.1,1.98-2.1,4.54L466.74,75.78L466.74,75.78z M427.55,55.06
		c1.09-2.79,8.13-21.18,8.5-22.22c0.11-0.29,0.41-0.29,0.53,0.01c0.5,1.29,7.6,19.36,8.65,22.15c0.23,0.61,0.32,1.11-0.49,1.11
		h-16.59C427.13,56.11,427.37,55.5,427.55,55.06 M448.01,61.84c2.52,5.99,5.99,14.33,5.99,14.33c0.44,1.06,0.04,1.32,4.42,1.32
		c4.64,0,4.92-0.15,4-2.21c-0.25-0.56-18.66-44.79-19.68-47.2c-1.02-2.42-1.47-2.59-5.3-2.59c-3.79,0-4.29,0.1-5.34,2.59
		c-1.07,2.54-19.55,46.96-19.78,47.52c-0.78,1.89-0.08,1.89,3.06,1.89c2.94,0,3.28-0.09,3.84-1.34l5.7-14.26
		c0.34-0.86,0.45-1.21,1.47-1.21c3.9,0,15.01,0,20.14-0.02C447.52,60.65,447.62,60.93,448.01,61.84 M474.74,28.13
		c-0.41-1.93-2.56-3.11-5.04-2.59c-2.48,0.52-3.96,2.46-3.55,4.39c0.42,1.93,2.56,3.11,5.04,2.58
		C473.68,31.99,475.15,30.05,474.74,28.13 M509.58,75.82c0,1.63,0.8,1.63,3.69,1.63c2.91,0,3.71,0,3.71-1.63L517,25.47
		c0.03-2.58-3.52-1.93-5.34-0.74c-2.02,1.32-2.09,1.98-2.09,4.54L509.58,75.82L509.58,75.82z M533.24,28.14
		c-0.42-1.93-2.56-3.11-5.04-2.58c-2.48,0.52-3.96,2.46-3.55,4.39c0.41,1.93,2.56,3.11,5.04,2.59
		C532.17,32.01,533.65,30.07,533.24,28.14 M525.24,75.8c0,1.62,0.8,1.62,3.69,1.62c2.91,0,3.71,0,3.71-1.62l0.03-35.12
		c0.03-2.58-3.52-1.93-5.35-0.75c-2.02,1.32-2.09,1.98-2.09,4.54L525.24,75.8L525.24,75.8z M574.82,52.22
		c0.02-11.7-10.18-13.55-17.57-13.55c-5.97,0-11.33,1.51-13.85,2.62c-2.49,1.1-2.7,2.48-2.7,4.75l0.02,29.83
		c0,1.62,0.8,1.62,3.7,1.62c2.91,0,3.71,0,3.71-1.62l-0.01-27.54c0-2.43,0.86-5.79,9.3-5.79c7.98,0,9.99,4.72,9.99,9.68l0.02,23.65
		c0,1.62,0.79,1.62,3.69,1.62c2.92,0,3.71,0,3.71-1.62L574.82,52.22L574.82,52.22z M652.85,67.09
		c-0.29-12.96-24.49-10.59-24.5-19.62c0-3.53,3.63-5.16,7.57-5.16c5.67,0,7.55,1.89,8.73,4.65c0.55,1.29,1.67,2.47,3.84,2.47
		c1.63,0,3.01-1.04,3.01-2.95c0-2.87-3.99-7.92-14.88-7.99c-9.02-0.06-15.12,3.38-15.13,10.5c-0.01,13.34,24.22,10.5,24.18,19.75
		c-0.02,3.82-3.58,5.59-8.75,5.64c-5.16,0.06-7.92-2.04-9.41-5.66c-0.73-1.47-1.69-2.79-3.93-2.75c-2.03,0.03-3.23,1.34-3.23,3.32
		c0,2.72,4.73,9.04,16.23,9.04C645.99,78.32,653.02,74.53,652.85,67.09 M187.02,75.8c0,1.62,0.8,1.62,3.69,1.62
		c2.91,0,3.71,0,3.71-1.62l0.02-35.12c0.03-2.58-3.52-1.93-5.34-0.75c-2.03,1.32-2.09,1.98-2.09,4.54L187.02,75.8L187.02,75.8z
		 M324.08,78.32c6.17,0.04,9.3-1.06,13.01-2.75c2.78-1.31,2.78-2.79,2.78-4.49V49.91c0-8.07-6.7-11.42-14.39-11.4
		c-12.54,0.03-17.53,5.41-17.73,8.9c-0.1,1.86,1,3.21,3.16,3.26c2.11,0.05,3.36-1.34,3.86-2.49c1.54-3.61,4.19-5.84,9.67-5.84
		c4.29,0,8.13,1.97,8.11,7.07v2.25c0,0.69,0,0.83-0.6,0.9c-11.29,1.81-25.96,5.36-25.96,15.73
		C305.98,74.74,313.72,78.32,324.08,78.32 M332.55,69.34c0,3.91-5.09,4.95-8.86,4.95c-6.65,0-9.96-2.84-9.96-6.59
		c0-6.83,8.82-9.3,18.02-11.23c0.49-0.1,0.79-0.16,0.79,0.54L332.55,69.34L332.55,69.34z M195.02,28.14
		c-0.42-1.93-2.56-3.11-5.04-2.58c-2.47,0.52-3.96,2.46-3.55,4.39c0.42,1.93,2.57,3.11,5.05,2.59
		C193.96,32.01,195.44,30.07,195.02,28.14 M394.82,75.86c0,1.62,0.79,1.61,3.7,1.62c2.9,0,3.7,0,3.7-1.62V50.76
		c0-9.99-9.37-12.05-14.92-12.05c-6.48,0-10.17,1.86-12.69,4.64c-2.69-2.93-6.29-4.64-12.6-4.64c-4.35,0-8.58,1.04-12.38,2.72
		c-2.74,1.22-2.74,2.83-2.74,4.39v30.04c0,1.62,0.81,1.62,3.7,1.62c2.9,0,3.7,0,3.7-1.62l0.01-27.98c0-4.17,3.35-5.32,7.74-5.32
		c5.47,0,8.81,2.57,8.81,9.02v24.29c0,1.62,0.8,1.62,3.71,1.62c2.9,0,3.69,0,3.69-1.62V51.1c0-4.91,2.57-8.56,8.46-8.56
		c5.72,0,8.16,3.73,8.16,8.68L394.82,75.86L394.82,75.86z M208.65,52.14c0.66-4.62,4.18-9.73,11.15-9.79
		c5.83-0.05,10.95,3.5,11.22,8.71c0.07,1.5-0.32,1.69-2.11,1.69h-19.7C208.66,52.74,208.59,52.5,208.65,52.14 M238.38,66.05
		c0-0.67-0.51-1.34-1.45-1.34c-0.85,0-1.28,0.3-1.79,1.19c-1.96,3.33-6.77,7.22-13.17,7.29c-8.64,0.08-13.64-6.13-13.42-15.73
		c0-0.33,0.14-0.61,0.64-0.62c0.5-0.01,13.53-0.02,26.67,0c2.52,0,2.56-1.67,2.56-3.04c0-7.95-7.41-15.3-18.03-15.3
		c-11.03,0-19.5,6.02-19.5,19.85c0,14.72,11,19.94,20.38,19.94C232.61,78.29,238.38,69.53,238.38,66.05 M587.41,52.13
		c0.66-4.62,4.19-9.73,11.15-9.79c5.83-0.05,10.95,3.5,11.22,8.71c0.08,1.5-0.32,1.69-2.11,1.69h-19.69
		C587.43,52.74,587.36,52.5,587.41,52.13 M617.15,66.05c0-0.67-0.51-1.34-1.45-1.34c-0.85,0-1.28,0.3-1.79,1.19
		c-1.96,3.33-6.78,7.22-13.17,7.29c-8.64,0.08-13.64-6.13-13.42-15.73c0-0.33,0.14-0.61,0.64-0.62c0.5-0.01,13.53-0.02,26.67,0
		c2.52,0,2.56-1.67,2.56-3.04c0-7.95-7.41-15.3-18.03-15.3c-11.02,0-19.5,6.02-19.5,19.85c0,14.72,11.01,19.94,20.38,19.94
		C611.38,78.29,617.15,69.53,617.15,66.05 M155.12,74.88c1.01,2.42,1.25,2.6,5.1,2.6c3.71,0,3.8-0.15,4.88-2.63
		c1.08-2.48,15.17-37.91,18.92-47.18c0.83-2.06,0.47-2.23-2.85-2.23c-2.91,0-3.18,0.17-3.73,1.42c0,0-15.79,40.39-16.13,41.32
		c-0.08,0.26-0.42,0.29-0.56-0.03c-0.51-1.15-16.54-41.4-16.54-41.4c-0.38-1.03-0.48-1.4-4.82-1.4c-4.71,0-4.4,0.45-3.46,2.78
		C136.14,28.68,154.1,72.46,155.12,74.88 M245.53,39.15c-1.73,0.03-4.09,0-4.09,0c-1.17,0-1.18,0.64-1.18,1.96
		c0,1.25,0,1.91,1.18,1.91h4.1c0.84,0,0.87,0.09,0.86,0.97c-0.02,1.85,0,24.17,0,24.17c0,8.8,4.71,9.85,9.36,9.92
		c4.61,0.06,7.63-1.3,7.57-2.92c-0.03-0.94-0.65-1.37-1.73-1.25c-0.75,0.09-1.28,0.32-2.29,0.32c-2.44,0-5.51-0.66-5.51-6.01
		l0-24.15c-0.01-0.93,0-1.05,0.93-1.05h6.67c1.16,0,1.21-0.66,1.21-1.91c0-1.3-0.04-1.97-1.21-1.97h-6.7c-0.9,0-0.89-0.09-0.89-0.87
		v-8.13c0-1.3-0.99-1.76-1.79-1.7c-0.58,0.05-1.28,0.43-2.92,1.5c-2.14,1.41-2.7,2.3-2.7,4.86v3.4
		C246.39,39.16,246.36,39.14,245.53,39.15"/>
</g>
</svg>
