<?xml version="1.0" encoding="utf-8"?>
<!-- Generator: Adobe Illustrator 25.4.1, SVG Export Plug-In . SVG Version: 6.00 Build 0)  -->
<svg version="1.1" id="Layer_2_00000159471598350358213750000014612203606435250611_"
	 xmlns="http://www.w3.org/2000/svg" xmlns:xlink="http://www.w3.org/1999/xlink" x="0px" y="0px" viewBox="0 0 112.1 80"
	 style="enable-background:new 0 0 112.1 80;" xml:space="preserve">
<style type="text/css">
	.st0{fill:#BCB9BC;}
	.st1{fill:#2A3F74;}
	.st2{fill:#E33A40;}
</style>
<path class="st0" d="M22.6,7.3c0,0-4.8,8.6,6.5,8.6s14.7-9,10.7-11.7S26.5,2,24.1,2.9c0,0,7.6-5.2,19.7-1.7s7,17.1,0.5,20.9
	S24,26.9,19.5,21.6S20.1,9,22.6,7.3z"/>
<path class="st1" d="M17.7,5.8c0,0-10.7,9-10.7,22.2c0,13.2,16.7,13.8,23,13.8s20.5-6.1,23-7.1l-4.4-4.9l2.9-1.6
	c0,0,0.8-0.5,2.2,0.4c1.4,0.9,5.3,3,5.3,3L73.2,23L55.8,5l4.1-2.4c0,0,1.3-0.8,3.3,0.3s22.6,12.3,22.6,12.3l13.9-8
	c0,0,6.7-2.8,12.3-0.2c0,0,1,5.9-5.5,10.9c-6.5,5-47.8,26.9-47.8,26.9s-15.3,7.7-35.4,7.7c-7.5,0-15.3-2.4-20-8.5
	C-2.9,35.7,0.5,24.8,6,17.1c1.6-2.2,3.4-4.3,5.4-6.1C13.4,9.1,15.6,7.6,17.7,5.8z"/>
<path class="st1" d="M60,47.3l1.5,4.2l2.5-1.8c0,0,0.7-0.6,0.7-1.4s0-4.3,0-4.3L60,47.3z"/>
<path class="st1" d="M80.5,35.7l8.3,28.1l3.5-3.1c0,0,0.8-0.6,0.8-2.5s0-29.6,0-29.6L80.5,35.7z"/>
<g>
	<path class="st2" d="M0.5,50c0,0,7.3,21.1,33.9,21.1s42-16.5,42-16.5S67.7,80,39.2,80S0.7,54.1,0.5,50z"/>
</g>
</svg>
