<?xml version="1.0" encoding="utf-8"?>
<!-- Generator: Adobe Illustrator 25.4.1, SVG Export Plug-In . SVG Version: 6.00 Build 0)  -->
<svg version="1.1" id="Layer_2_00000159471598350358213750000014612203606435250611_"
	 xmlns="http://www.w3.org/2000/svg" xmlns:xlink="http://www.w3.org/1999/xlink" x="0px" y="0px" viewBox="0 0 228.6 80"
	 style="enable-background:new 0 0 228.6 80;" xml:space="preserve">
<style type="text/css">
	.st0{fill:#BCB9BC;}
	.st1{fill:#2A3F74;}
	.st2{fill:#E33A40;}
</style>
<g>
	<path class="st0" d="M21.8,7c0,0-4.6,8.3,6.3,8.3S42.2,6.7,38.4,4S25.6,2,23.3,2.8c0,0,7.4-5.1,19.1-1.7s6.7,16.5,0.5,20.2
		s-19.6,4.5-24-0.5S19.4,8.7,21.8,7z"/>
	<path class="st1" d="M17.1,5.6c0,0-10.3,8.7-10.3,21.4C6.8,39.9,23,40.4,29,40.4s19.8-5.8,22.2-6.9L47,28.7l2.8-1.5
		c0,0,0.8-0.5,2.2,0.4c1.4,0.9,5.1,2.9,5.1,2.9l13.6-8.2L53.9,4.9l4-2.3c0,0,1.3-0.8,3.2,0.3c1.9,1.1,21.9,11.8,21.9,11.8l13.4-7.7
		c0,0,6.4-2.7,11.8-0.2c0,0,1,5.7-5.3,10.5c-6.3,4.8-46.1,26-46.1,26s-14.8,7.4-34.1,7.4c-7.3,0-14.7-2.3-19.3-8.2
		c-6.1-8-2.8-18.5,2.5-25.9c1.5-2.1,3.3-4.1,5.2-5.9C12.9,8.8,15.1,7.3,17.1,5.6z"/>
	<path class="st1" d="M58,45.7l1.5,4l2.4-1.7c0,0,0.7-0.6,0.7-1.4c0-0.8,0-4.1,0-4.1L58,45.7z"/>
	<path class="st1" d="M77.7,34.5l8,27.1l3.4-3c0,0,0.8-0.6,0.8-2.4c0-1.8,0-28.6,0-28.6L77.7,34.5z"/>
	<g>
		<path class="st2" d="M0.5,48.3c0,0,7,20.4,32.7,20.4s40.6-16,40.6-16s-8.5,24.5-36,24.5S0.7,52.2,0.5,48.3z"/>
	</g>
	<g>
		<rect x="131.9" y="29.4" class="st1" width="1.7" height="38"/>
	</g>
	<polygon class="st1" points="125.8,31.1 125.8,29.4 104.2,29.4 104.2,67.4 106,67.4 106,49.1 124.7,49.1 124.7,47.4 106,47.4 
		106,31.1 	"/>
	<path class="st1" d="M159.3,41.4c-0.1,0.2-5,13.8-8.4,23.3l-10.2-23.3l-1.6,0.7l10.9,25c-1.2,3.2-2.1,5.6-2.3,6.2
		c-0.9,2.2-2.8,4.4-4.1,4.9c-1,0.4-2.4-0.2-2.8-0.5l-0.9,1.5c0.2,0.1,1.5,0.9,3,0.9c0.4,0,0.9-0.1,1.3-0.2c1.8-0.7,4-3.2,5.1-5.9
		c1-2.4,11.1-30.7,11.6-31.9L159.3,41.4z"/>
	<path class="st2" d="M228.2,52.8L228.2,52.8l0.4,0c0-2.5-1.5-6.1-3-8c-1.6-2.1-4-3.4-6.7-3.8c-2.8-0.3-5.6,0.4-7.8,2.2
		c-3.2,2.6-5.1,6.8-5,11.3c0.1,4.4,1.9,8.3,5.1,10.7c2.1,1.6,4.6,2.4,7.1,2.4c3.7,0,7.4-1.7,9.8-4.8l-1.4-1.1
		c-3.5,4.5-10.1,5.5-14.5,2.1c-2.8-2.1-4.4-5.5-4.4-9.4c0-0.6,0-1.1,0.1-1.7H228.2z M212.2,44.6c1.8-1.4,4.2-2.1,6.5-1.8
		c2.2,0.3,4.2,1.4,5.5,3.1c0.9,1.2,1.9,3.3,2.4,5.2h-18.4C208.9,48.5,210.2,46.2,212.2,44.6z"/>
	<polygon class="st2" points="198.2,29.4 197,29.4 196.1,29.4 182.5,53.8 169.2,29.4 168.7,29.4 167.9,29.4 167,29.4 167,67.4 
		168.7,67.4 168.7,32.2 182.5,57.4 197,31.4 197,67.4 198.7,67.4 198.7,29.4 	"/>
</g>
</svg>
