<?xml version="1.0" encoding="utf-8"?>
<!-- Generator: Adobe Illustrator 25.4.1, SVG Export Plug-In . SVG Version: 6.00 Build 0)  -->
<svg version="1.1" id="Layer_1" xmlns="http://www.w3.org/2000/svg" xmlns:xlink="http://www.w3.org/1999/xlink" x="0px" y="0px"
	 viewBox="0 0 294.88 80" style="enable-background:new 0 0 294.88 80;" xml:space="preserve">
<style type="text/css">
	.st0{fill:url(#XMLID_00000144325558459483337100000016682285889814991528_);}
	.st1{fill:url(#XMLID_00000096762796756181755320000010320306922672369847_);}
</style>
<g>
	<g id="g1248" transform="translate(172.9158,590.7075)">
	</g>
	<g id="g1252" transform="translate(203.0896,564.0146)">
	</g>
	<g id="g1256" transform="translate(202.1028,559.5876)">
	</g>
	<g id="g1260" transform="translate(477.4399,437.4863)">
	</g>
	<g id="g1264" transform="translate(507.6138,410.7935)">
	</g>
	<g id="g1268" transform="translate(506.627,406.3665)">
	</g>
	<g id="g1272" transform="translate(376.8486,590.7075)">
	</g>
	<g id="g1276" transform="translate(407.0225,564.0146)">
	</g>
	<g id="g1280" transform="translate(406.0356,559.5876)">
	</g>
	
		<linearGradient id="XMLID_00000078734826958339543290000004221338779646792615_" gradientUnits="userSpaceOnUse" x1="-172.4242" y1="-210.0303" x2="-171.0893" y2="-210.0303" gradientTransform="matrix(-91.0045 -48.6444 48.6444 -91.0045 -5207.1948 -27422.7832)">
		<stop  offset="0" style="stop-color:#F69220"/>
		<stop  offset="1" style="stop-color:#ED3229"/>
	</linearGradient>
	<path id="XMLID_3_" style="fill:url(#XMLID_00000078734826958339543290000004221338779646792615_);" d="M294.87,26.96
		c-15.54-3.09-30.2-5.88-46-4.11c-29.64,3.33-23.91,54.56-59.28,57.01c-22.17,1.54-49.37-10.65-71.26-14.83
		c10.89,2.08,20.45-13.26,25.43-20.56c7.57-11.09,13.06-23.61,23.68-32.34c5.84-4.78,13.8-7.26,21.37-6.75
		c12.32,0.82,24.47,4.03,36.48,6.69c13.29,2.95,26.54,5.53,39.88,8.31c9.88,2.07,19.8,4.49,29.71,6.39"/>
	
		<linearGradient id="XMLID_00000136385928475264440900000005752663293659720627_" gradientUnits="userSpaceOnUse" x1="-172.0851" y1="-210.1802" x2="-170.7502" y2="-210.1802" gradientTransform="matrix(-98.505 -34.5533 34.5533 -98.505 -9550.8018 -26599.2109)">
		<stop  offset="0" style="stop-color:#15467A"/>
		<stop  offset="0.1581" style="stop-color:#106291"/>
		<stop  offset="0.4082" style="stop-color:#0987B1"/>
		<stop  offset="0.64" style="stop-color:#04A3C7"/>
		<stop  offset="0.8445" style="stop-color:#01B3D5"/>
		<stop  offset="1" style="stop-color:#00B9DA"/>
	</linearGradient>
	<path id="XMLID_4_" style="fill:url(#XMLID_00000136385928475264440900000005752663293659720627_);" d="M24.18,3.3
		c22.74-7.95,46.41-0.37,66.79,10.37c10.24,5.38,19.89,11.78,29.34,18.43c6.66,4.67,19.38,13.83,19.38,13.83s-4.28,6.55-8.92,11.14
		c-4.74,4.66-8.81,6.23-12.73,6.33c-0.77,0.01-1.53,0.01-2.29-0.01c-8.63-0.3-17.15-3.9-27.11-9.86C65.07,39.42,24.21-16.09,0,23.19
		C6.35,12.88,14.74,6.6,24.18,3.3z"/>
</g>
</svg>
