<?xml version="1.0" encoding="utf-8"?>
<!-- Generator: Adobe Illustrator 25.4.1, SVG Export Plug-In . SVG Version: 6.00 Build 0)  -->
<svg version="1.1" id="Layer_1" xmlns="http://www.w3.org/2000/svg" xmlns:xlink="http://www.w3.org/1999/xlink" x="0px" y="0px"
	 viewBox="0 0 308.03 80" style="enable-background:new 0 0 308.03 80;" xml:space="preserve">
<style type="text/css">
	.st0{fill:url(#XMLID_00000160174716853229453810000013237523969818865809_);}
	.st1{fill:url(#XMLID_00000027570515429637102790000005231740239606032818_);}
	.st2{fill:#231F20;}
</style>
<g id="g1248" transform="translate(172.9158,590.7075)">
</g>
<g id="g1252" transform="translate(203.0896,564.0146)">
</g>
<g id="g1256" transform="translate(202.1028,559.5876)">
</g>
<g id="g1260" transform="translate(477.4399,437.4863)">
</g>
<g id="g1264" transform="translate(507.6138,410.7935)">
</g>
<g id="g1268" transform="translate(506.627,406.3665)">
</g>
<g id="g1272" transform="translate(376.8486,590.7075)">
</g>
<g id="g1276" transform="translate(407.0225,564.0146)">
</g>
<g id="g1280" transform="translate(406.0356,559.5876)">
</g>
<g>
	
		<linearGradient id="XMLID_00000123410063092393861340000011165097034032118935_" gradientUnits="userSpaceOnUse" x1="-159.2436" y1="-209.7749" x2="-158.3367" y2="-209.7749" gradientTransform="matrix(-91.0045 -48.6444 48.6444 -91.0045 -3998.0967 -26783.5117)">
		<stop  offset="0" style="stop-color:#F69220"/>
		<stop  offset="1" style="stop-color:#ED3229"/>
	</linearGradient>
	<path id="XMLID_3_" style="fill:url(#XMLID_00000123410063092393861340000011165097034032118935_);" d="M308.09,18.32
		c-10.56-2.1-20.51-4-31.25-2.79c-20.14,2.26-16.25,37.06-40.28,38.74c-15.07,1.05-33.54-7.24-48.41-10.07
		c7.4,1.41,13.89-9.01,17.28-13.97c5.14-7.53,8.87-16.04,16.09-21.97c3.97-3.25,9.37-4.93,14.52-4.59
		c8.37,0.56,16.62,2.74,24.79,4.54c9.03,2.01,18.03,3.76,27.09,5.65c6.71,1.4,13.45,3.05,20.18,4.34"/>
	
		<linearGradient id="XMLID_00000110443798605785978780000003455269950234573480_" gradientUnits="userSpaceOnUse" x1="-159.3471" y1="-209.8736" x2="-158.4402" y2="-209.8736" gradientTransform="matrix(-98.505 -34.5533 34.5533 -98.505 -8243.1348 -26145.1211)">
		<stop  offset="0" style="stop-color:#15467A"/>
		<stop  offset="0.1581" style="stop-color:#106291"/>
		<stop  offset="0.4082" style="stop-color:#0987B1"/>
		<stop  offset="0.64" style="stop-color:#04A3C7"/>
		<stop  offset="0.8445" style="stop-color:#01B3D5"/>
		<stop  offset="1" style="stop-color:#00B9DA"/>
	</linearGradient>
	<path id="XMLID_4_" style="fill:url(#XMLID_00000110443798605785978780000003455269950234573480_);" d="M124.18,2.24
		c15.45-5.4,31.53-0.25,45.38,7.05c6.96,3.66,13.51,8,19.93,12.52c4.53,3.18,13.16,9.4,13.16,9.4s-2.91,4.45-6.06,7.57
		c-3.22,3.17-5.98,4.23-8.65,4.3c-0.52,0.01-1.04,0.01-1.55-0.01c-5.87-0.21-11.65-2.65-18.42-6.7
		c-16.01-9.59-43.78-47.3-60.22-20.62C112.07,8.75,117.77,4.49,124.18,2.24z"/>
	<path id="XMLID_5_" class="st2" d="M20.81,77.84c0,1.35-0.46,2.04-1.38,2.04c-0.68,0-1.44-0.42-2.28-1.27L3.63,65.03v14.63H0V60.4
		c0-0.5,0.13-0.92,0.4-1.29c0.26-0.36,0.65-0.53,1.14-0.53c0.68,0,1.38,0.36,2.1,1.08l13.51,13.55V58.58h3.67V77.84z"/>
	<path id="XMLID_8_" class="st2" d="M58.56,68.88c0,3.11-1,5.68-2.99,7.72c-2,2.04-4.53,3.06-7.61,3.06h-5.89
		c-3.06,0-5.6-1.02-7.6-3.06c-2-2.04-3.01-4.62-3.01-7.72c0-3.08,0.99-5.58,2.98-7.47c1.99-1.89,4.53-2.84,7.64-2.84h5.89
		c3.12,0,5.67,0.95,7.64,2.84C57.57,63.31,58.56,65.8,58.56,68.88z M54.92,69.2c0-2.05-0.65-3.71-1.96-5.01
		c-1.3-1.29-2.97-1.94-5-1.94h-5.89c-2.01,0-3.67,0.65-4.98,1.94c-1.31,1.3-1.96,2.96-1.96,5.01c0,2.02,0.65,3.65,1.96,4.9
		c1.3,1.26,2.97,1.89,4.98,1.89h5.89c2.04,0,3.7-0.63,5-1.89C54.27,72.85,54.92,71.22,54.92,69.2z"/>
	<path id="XMLID_9_" class="st2" d="M94.39,58.58L82.37,77.93C81.52,79.32,80.76,80,80.09,80c-0.66,0-1.41-0.68-2.25-2.07
		L66.05,58.58h4.71l9.41,15.65l9.5-15.65H94.39z"/>
	<path id="XMLID_12_" class="st2" d="M128.96,68.88c0,3.11-1,5.68-3,7.72c-1.99,2.04-4.53,3.06-7.61,3.06h-5.89
		c-3.07,0-5.6-1.02-7.6-3.06c-2.01-2.04-3.01-4.62-3.01-7.72c0-3.08,0.99-5.58,2.98-7.47c1.98-1.89,4.52-2.84,7.63-2.84h5.89
		c3.12,0,5.67,0.95,7.65,2.84C127.97,63.31,128.96,65.8,128.96,68.88z M125.32,69.2c0-2.05-0.65-3.71-1.95-5.01
		c-1.31-1.29-2.98-1.94-5.01-1.94h-5.89c-2.02,0-3.67,0.65-4.98,1.94c-1.31,1.3-1.96,2.96-1.96,5.01c0,2.02,0.65,3.65,1.96,4.9
		c1.31,1.26,2.96,1.89,4.98,1.89h5.89c2.04,0,3.71-0.63,5.01-1.89C124.67,72.85,125.32,71.22,125.32,69.2z"/>
	<path id="XMLID_13_" class="st2" d="M165.23,79.66l-4.72-0.03l-3.55-5.9h-9.99l2.22-3.64h5.58L151.1,64l-9.49,15.63h-4.72
		l11.45-19.05c0.28-0.49,0.69-0.94,1.2-1.36c0.61-0.47,1.17-0.71,1.66-0.71c0.53,0,1.09,0.23,1.66,0.68c0.5,0.39,0.9,0.85,1.21,1.39
		L165.23,79.66z"/>
	<rect id="XMLID_14_" x="173.74" y="58.58" class="st2" width="3.67" height="21.09"/>
	<path id="XMLID_15_" class="st2" d="M213.24,79.66h-5.43l-5.89-5.94h-7.93v-3.64h9.87c1.36,0,2.5-0.3,3.42-0.89
		c1.04-0.7,1.57-1.7,1.57-3c0-2.63-1.67-3.95-5-3.95h-12.03v17.42h-3.67V58.58h15.11c2.72,0,4.91,0.58,6.57,1.76
		c1.92,1.33,2.87,3.3,2.87,5.9c0,1.77-0.55,3.29-1.67,4.56c-1.03,1.2-2.43,2.03-4.19,2.51L213.24,79.66z"/>
</g>
</svg>
