<?xml version="1.0" encoding="utf-8"?>
<!-- Generator: Adobe Illustrator 25.4.1, SVG Export Plug-In . SVG Version: 6.00 Build 0)  -->
<svg version="1.1" id="Layer_1" xmlns="http://www.w3.org/2000/svg" xmlns:xlink="http://www.w3.org/1999/xlink" x="0px" y="0px"
	 viewBox="0 0 172.2 80" style="enable-background:new 0 0 172.2 80;" xml:space="preserve">
<style type="text/css">
	.st0{fill:#0055BB;}
</style>
<g>
	<polygon class="st0" points="172.3,61.9 172.3,57.1 162.2,57.1 162.2,50.5 171.7,50.5 171.7,45.7 162.2,45.7 162.2,39.2 
		172.2,39.2 172.2,34.4 156.8,34.4 156.8,61.9 	"/>
	<path class="st0" d="M114.8,43c0,0.8-0.1,1.8-0.4,2.3c-0.2,0.6-1,0.9-1.9,1H108v-7.1h4.3c1.1,0,2,0.5,2.2,1.3
		C114.7,41.4,114.8,42.2,114.8,43 M120.2,42.5c0-2.4-0.4-4-1.1-5.4c-0.9-1.7-3-2.7-5.7-2.7h-10.8v27.5h5.3V50.8h3.9l3.7,11.2h5.8
		l-4.5-12.5c0.9-0.2,1.9-1,2.5-2.2C119.9,46.2,120.2,44.6,120.2,42.5"/>
	<polygon class="st0" points="98.9,61.9 98.9,57.1 77.8,57.1 77.8,50.5 98,50.5 98,45.7 77.8,45.7 77.8,39.2 98.6,39.2 98.6,34.4 
		72.5,34.4 72.5,61.9 	"/>
	<polygon class="st0" points="70,34.4 64.5,34.4 59.8,55.2 55.2,34.4 49.5,34.4 56.3,61.9 63.1,61.9 	"/>
	<path class="st0" d="M29.3,79.8h-1.9l6-11.5h2.1l5.8,11.5h-2L37.9,77h-7.1L29.3,79.8z M34.9,71l-0.5-1.1L33.9,71l-2.3,4.4h5.6
		C37.2,75.4,34.9,71,34.9,71L34.9,71z"/>
	<path class="st0" d="M42.8,79.8V68.4h1.9v11.5H42.8z"/>
	<path class="st0" d="M58.1,73.5c-0.4,0.7-1.1,1.2-1.9,1.2l3.5,5.1h-2.1L54.3,75h-5.2v4.8h-1.8V68.4h7.4c1.7,0,2.8,0.5,3.3,1.3
		c0.3,0.6,0.5,1.2,0.5,1.9C58.5,72.3,58.4,72.9,58.1,73.5z M56.5,70.8c-0.3-0.5-0.9-0.8-2-0.8h-5.4v3.4h5.7c0.9,0,1.4-0.2,1.6-0.7
		c0.1-0.3,0.2-0.6,0.2-1C56.7,71.4,56.6,71.1,56.5,70.8L56.5,70.8z"/>
	<path class="st0" d="M61.2,79.8V68.4h1.8v9.8h7.9v1.7H61.2z"/>
	<path class="st0" d="M72.5,79.8V68.4h1.9v11.5H72.5z"/>
	<path class="st0" d="M86.5,79.8l-7.6-9v9h-1.8V68.4h2.1l7.6,8.9v-8.9h1.7v11.5H86.5z"/>
	<path class="st0" d="M91.1,79.8V68.4h10.6V70h-8.8v3.2h8.6v1.7h-8.6v3.3h8.9v1.7L91.1,79.8z"/>
	<path class="st0" d="M109.5,80c-3.4,0-5.2-0.8-6-2.2c-0.3-0.5-0.4-1-0.5-1.5h1.9c0,0.3,0.1,0.6,0.3,0.8c0.5,0.8,1.8,1.3,4.3,1.3
		c3,0,3.9-0.7,3.9-1.7c0-1.1-0.8-1.5-3.4-1.8c-0.5-0.1-1.5-0.2-2.1-0.2c-3.4-0.4-4.7-1.3-4.7-3.1c0-1.8,1.7-3.3,5.7-3.3
		c3.4,0,5,1,5.8,2.3c0.2,0.4,0.3,0.8,0.4,1.2h-2c0-0.2-0.1-0.5-0.3-0.7c-0.6-0.8-1.7-1.2-3.9-1.2c-2.9,0-3.8,0.5-3.8,1.5
		s0.9,1.4,3.7,1.7c0.6,0.1,1.7,0.2,2.2,0.3c3,0.3,4.3,1.3,4.3,3.2C115.3,78.7,113.6,80,109.5,80z"/>
	<path class="st0" d="M103.8,23.7c-3.9,0-6.5-0.8-8.5-2.5c-1.9-1.6-2.7-4-2.7-7c0-2.7,0.7-5.2,2.2-6.6c1.8-1.8,4.7-2.9,8.9-2.9
		c4.4,0,7,1,9,2.8c1.6,1.4,2.2,4,2.2,6.7s-0.7,5.2-2.3,6.7C110.7,22.8,108,23.7,103.8,23.7 M103.8,0c-6.2,0-10.4,1.5-13.4,4.7
		c-2.3,2.4-3.3,5.5-3.3,9.4c0,4.3,1.3,7.6,3.6,9.9c2.8,2.8,7.1,4.4,13.1,4.4c6.1,0,10.7-1.5,13.4-4.5c2.1-2.3,3.3-5.5,3.3-9.8
		c0-4.2-0.9-7.3-3.3-9.6C114.3,1.5,110,0,103.8,0"/>
	<path class="st0" d="M45.8,17h-4.6c0.7-2.9,1.7-7.1,1.9-8.2c0.2-0.9,0.5-3.2,0.5-3.2s0.3,2.3,0.4,3.2C44.3,9.9,45.2,14.3,45.8,17
		 M40.2,21.3h6.6l1.4,6.7h5.5L47.4,0.5h-7.3L33.3,28h5.4L40.2,21.3z"/>
	<path class="st0" d="M32.8,17.5h-5.6c-0.1,1.1-0.6,2.2-1.3,3.1c-1.9,2.1-4.7,3-9.1,3c-3.7,0-7.7-1-9.6-3.6c-1-1.2-1.6-3-1.6-5.7
		c0-2.4,0.4-4.2,1.4-5.5C8.5,6.3,11.9,5,16.6,5c4.7,0,7.6,1.3,9.1,3c0.8,0.9,1.3,1.9,1.4,3.1h5.6c-0.1-1.6-0.6-3.2-1.4-4.7
		C29,2.6,24.7,0,16.7,0C9.3,0,4.9,2.3,2.4,5.7C0.8,7.8,0,10.6,0,14.2c0,3.9,1,6.9,2.7,9c2.4,3.2,7.1,5.2,14.1,5.2
		c7.6,0,12-2.3,14.2-5.8C32,21.1,32.6,19.3,32.8,17.5"/>
	<path class="st0" d="M80,13.5c1.3-0.2,3.8-0.5,3.8-6.2c0-6.8-4.2-6.8-7.8-6.8H56.3V28h20.5c3.7,0,8.4,0,8.4-7.7
		C85.2,14,81.3,13.6,80,13.5z M61.6,5h14.2c1.5,0,3.1,0,3.1,3.4c0,3.5-1.4,3.5-2.6,3.5H61.6L61.6,5z M76.7,23.5H61.6v-7h15.2
		c1.9,0,3.4,0,3.4,3.5C80.2,23.5,78.8,23.5,76.7,23.5L76.7,23.5z"/>
	<path class="st0" d="M152.3,39.3c-1.8-3.1-5.4-4.9-11.6-4.9h-16.4v27.5H141c6.1,0,9.6-1.9,11.4-5.2c1.2-2,1.7-4.6,1.7-8.9
		C154.1,43.8,153.6,41.3,152.3,39.3z M147.6,54.2c-1.3,2-3.6,3-7.7,3h-10.2V39.1h10.4c3.9,0,6.2,0.9,7.5,3c0.8,1.2,1.2,3.2,1.2,5.8
		C148.7,50.7,148.5,53,147.6,54.2z"/>
</g>
</svg>
