<?xml version="1.0" encoding="utf-8"?>
<!-- Generator: Adobe Illustrator 25.4.1, SVG Export Plug-In . SVG Version: 6.00 Build 0)  -->
<svg version="1.1" xmlns="http://www.w3.org/2000/svg" xmlns:xlink="http://www.w3.org/1999/xlink" x="0px" y="0px"
	 viewBox="0 0 346.25 80" style="enable-background:new 0 0 346.25 80;" xml:space="preserve">
<style type="text/css">
	.st0{fill-rule:evenodd;clip-rule:evenodd;fill:#5B056A;}
	.st1{fill:url(#SVGID_1_);}
	.st2{fill:url(#SVGID_00000070801409073268166590000000598990602092338317_);}
	.st3{fill-rule:evenodd;clip-rule:evenodd;fill:#FFFFFF;}
</style>
<g id="Layer_2">
</g>
<g id="Layer_1">
	<g>
		<path class="st0" d="M173.42,70.71V41.26h6.47v-2.83h-6.47v-8.05h-3.1v40.33H173.42z M38.91,30.38h-3.1v3.7h3.1V30.38z
			 M267.72,34.08h-3.1v-3.7h3.1V34.08z M15.01,70.7h2.86l14.77-32.27h-3.43L16.52,66.97L3.66,38.43H0L15.01,70.7z M38.91,70.7h-3.1
			V38.43h3.1V70.7z M93.78,34.08h3.1v-3.7h-3.1V34.08z M96.88,70.7h-3.1V38.43h3.1V70.7z M182.38,70.7h3.09V30.38h-3.09V70.7z
			 M267.72,70.7h-3.1V38.43h3.1V70.7z M255.02,41.26v29.45h-3.09V41.26v-2.83v-8.05h3.09v8.05h6.48v2.83L255.02,41.26z
			 M163.61,50.79v-0.44c0-6.58-4.04-9.37-10.49-9.37c-3.4,0-6.59,0.85-9.99,2.49l-1.12-2.51c3.44-1.74,7.48-2.86,11.54-2.86
			c4.22,0,7.61,1.03,9.87,3.28c2.48,2.46,3.17,5.66,3.17,8.92V70.7h-2.98v-5.12c-0.63,1.3-4.6,5.81-12.01,5.81
			c-6.24,0-12.01-3.66-12.01-10.06v-0.12c0-10.4,11.13-10.43,14.43-10.43L163.61,50.79z M163.67,57.84
			c0,7.59-6.08,10.78-11.79,10.78c-5.26,0-9.12-3.11-9.12-7.47c0-5.63,3.9-7.61,11.65-7.61h9.26V57.84z M213.45,50.79v-0.44
			c0-6.58-4.05-9.37-10.49-9.37c-3.4,0-6.6,0.85-9.99,2.49l-1.12-2.51c3.44-1.74,7.48-2.86,11.54-2.86c4.21,0,7.61,1.03,9.87,3.28
			c2.47,2.46,3.17,5.66,3.17,8.92V70.7h-2.98v-5.12c-0.63,1.3-4.61,5.81-12.02,5.81c-6.23,0-12.01-3.66-12.01-10.06v-0.12
			c0-10.4,11.14-10.43,14.43-10.43L213.45,50.79z M213.5,57.84c0,7.59-6.08,10.78-11.79,10.78c-5.26,0-9.12-3.11-9.12-7.47
			c0-5.63,3.9-7.61,11.65-7.61h9.26V57.84z M125.38,70.7h3.1V51.82c0-9.33-4.83-13.95-12.72-13.95c-8.25,0-11.51,6.2-11.81,6.99
			v-6.43h-3.09V70.7h3.09V55c0-9.95,5.14-14.3,11.37-14.3c9.95,0,10.05,8.97,10.05,12.92L125.38,70.7z M248.09,70.7h-3.1V53.62
			c0-3.95-0.1-12.92-10.06-12.92c-6.23,0-11.37,4.35-11.37,14.3v15.7h-3.1V38.43h3.1v6.43c0.31-0.78,3.56-6.99,11.81-6.99
			c7.89,0,12.72,4.62,12.72,13.95V70.7z M74.41,80c4.62,0,8.68-1.51,11.39-4.28c2.53-2.58,3.96-6.08,3.96-11.94V38.43h-3.01v6.56
			c-1.69-3.61-6.8-7.11-13.08-7.11c-7.58,0-15.09,5.97-15.09,15.22v0.13c0,9.18,7.51,15.09,15.09,15.09
			c6.22,0,11.31-3.65,13.08-7.42v2.96c0,8.79-4.66,13.26-12.27,13.26c-5.23,0-9.01-1.89-12.7-4.5L60,75.09
			C62.08,76.88,67.42,80,74.41,80L74.41,80z M61.84,53.1c0,7.09,5.61,12.28,12.15,12.28c6.53,0,12.71-4.93,12.71-12.22v-0.13
			c0-7.42-6.2-12.2-12.73-12.2c-6.59,0-12.13,4.66-12.13,12.14L61.84,53.1z M299.46,63.22c-1.59,1.76-5.22,4.98-10.77,4.98
			c-7.35,0-13.11-6.12-13.11-13.81v-0.13c0-7.62,5.57-13.68,12.86-13.68c3.4,0,7.18,1.16,10.97,4.88l1.93-2.1
			c-2.06-2.42-6.45-5.65-12.84-5.65c-9.6,0-16.26,7.74-16.26,16.68v0.13c0,8.93,6.67,16.55,16.26,16.55
			c6.71,0,11.38-3.75,12.95-6.03L299.46,63.22z M46.21,70.7h-3.1V38.42h3.1v8.93c2.61-5.73,7.9-9.48,14.29-9.23v3.26h-0.32
			c-7.46,0-13.97,5.6-13.97,16.03V70.7z"/>
		
			<linearGradient id="SVGID_1_" gradientUnits="userSpaceOnUse" x1="11.1921" y1="82.0918" x2="11.9138" y2="82.0918" gradientTransform="matrix(51.6491 23.9658 23.9658 -51.6491 -2246.4172 3977.1821)">
			<stop  offset="0" style="stop-color:#E96E85"/>
			<stop  offset="0.02" style="stop-color:#E5566C"/>
			<stop  offset="0.05" style="stop-color:#E24256"/>
			<stop  offset="0.08" style="stop-color:#E03245"/>
			<stop  offset="0.12" style="stop-color:#DE263A"/>
			<stop  offset="0.18" style="stop-color:#DD2033"/>
			<stop  offset="0.34" style="stop-color:#DD1E31"/>
			<stop  offset="0.52" style="stop-color:#DA1E30"/>
			<stop  offset="0.65" style="stop-color:#D11D2F"/>
			<stop  offset="0.76" style="stop-color:#C11B2C"/>
			<stop  offset="0.87" style="stop-color:#AB1928"/>
			<stop  offset="0.97" style="stop-color:#8E1622"/>
			<stop  offset="1" style="stop-color:#821520"/>
		</linearGradient>
		<path class="st1" d="M346.25,0h-24.03c-7.44,0-9.26,1.22-12.22,4.46l-21.49,23.45c17.16-0.8,22.46,16.39,39.88,11.68L346.25,0z"/>
		
			<linearGradient id="SVGID_00000179642925985861252810000008184564289420708542_" gradientUnits="userSpaceOnUse" x1="19.7426" y1="81.1586" x2="20.4643" y2="81.1586" gradientTransform="matrix(-37.8254 -34.4895 -34.4895 37.8254 3882.0894 -2357.823)">
			<stop  offset="0" style="stop-color:#C52032"/>
			<stop  offset="0.84" style="stop-color:#C52032"/>
			<stop  offset="0.87" style="stop-color:#C62335"/>
			<stop  offset="0.89" style="stop-color:#C82D3E"/>
			<stop  offset="0.91" style="stop-color:#CD3D4D"/>
			<stop  offset="0.93" style="stop-color:#D35462"/>
			<stop  offset="0.94" style="stop-color:#DA727D"/>
			<stop  offset="0.96" style="stop-color:#E4969F"/>
			<stop  offset="0.98" style="stop-color:#EFC2C7"/>
			<stop  offset="0.99" style="stop-color:#FCF3F4"/>
			<stop  offset="1" style="stop-color:#FFFFFF"/>
		</linearGradient>
		<path style="fill:url(#SVGID_00000179642925985861252810000008184564289420708542_);" d="M328.4,39.59
			c-17.23,4.66-22.6-12.11-39.32-11.7L310.3,4.73c2.88-3.14,4.65-4.33,11.92-4.33h23.85L328.4,39.59l-0.01,0L328.4,39.59z"/>
		<path class="st3" d="M314.75,9.15c0,0,1.07-1.96,1.92-2.61c0,0,0.92-0.56,0.95-1.47c0,0,0.07-0.61-0.43-0.99
			c0,0-1.3-1.06-2.36,0.74c0,0-4.99,9.39-6.7,18.85c0,0-0.13,0.31-0.17-0.56l-0.76-8.23l-0.01-0.1c-0.02-0.32-0.07-0.91-0.67-0.95
			c0,0-0.79-0.14-1.25,1.03l-2.21,5.42c0,0-0.37,0.68,0.22,0.94c0,0,0.66,0.37,1.09-0.55l1.02-2.18c0.2-0.45,0.36-0.38,0.36-0.38
			c0.12,0.02,0.17,0.47,0.17,0.47l0.91,10.74c0.01,0.08,0.09,0.94,0.81,0.94c0.53,0,0.69-0.59,0.79-1.07l0.06-0.32
			c0.26-1.28,1.19-5.84,2.63-10.71C312.18,14.59,313.55,11.01,314.75,9.15L314.75,9.15z M313.28,18.45c-1.03,0.23-1.16,1.4-1.16,1.4
			l-0.63,4.64c-0.1,0.92,1.1,0.25,1.1,0.25c0.49-0.29,0.58-0.9,0.58-0.9l0.19-1.16l0.58-3.14
			C314.13,18.23,313.28,18.45,313.28,18.45L313.28,18.45z M314.94,21.82c0.05-0.54,0.39-2.96,0.39-2.96
			c0.11-1.51,0.93-1.54,0.93-1.54l0.76-0.1c0,0,0.27-0.02,0.77-0.25c0.66-0.28,0.86,0.25,0.86,0.25c0.34,0.69-0.77,1.18-0.77,1.18
			c-1.03,0.56-1.09,1.85-1.09,1.85l-0.18,1.75c-0.14,1.24-1.03,1.49-1.03,1.49C314.49,23.86,314.94,21.82,314.94,21.82L314.94,21.82
			z M314.48,16.09c0.68-0.54,0.48-0.99,0.48-0.99c-0.25-0.73-1.17,0.05-1.17,0.05c-0.77,0.55-0.5,1.09-0.5,1.09
			C313.62,16.82,314.48,16.09,314.48,16.09L314.48,16.09z M326.78,18.29c-0.15,0.99-1.03,1.18-1.03,1.18
			c-0.81,0.21-0.63-0.58-0.63-0.58l0.12-0.74l0.66-3.65c0.15-0.83,1-0.99,1-0.99c0.69-0.15,0.46,0.82,0.44,0.95
			C327.3,14.58,326.78,18.29,326.78,18.29z M327.85,11.72c0,0,0.74-0.6,0.4-1.05c0,0-0.31-0.46-1.18,0.15c0,0-0.78,0.63-0.3,1.08
			C326.76,11.9,327.22,12.33,327.85,11.72z M335.64,16.07c0.8-0.34,1.25-0.14,1.42,0.16c0.18,0.31,0.13,0.62-0.02,0.84
			c-0.25,0.37-1.11,0.66-1.78,0.85c-0.5,0.15-0.89,0.29-0.89,0.29c-1.18,0.37-2.56,0.92-2.56,0.92c-3.2,1.35-6.06,2.83-8.55,4.29
			c-0.04,0.36-0.06,0.65-0.07,0.85c0,0-0.45,5.26-0.51,6.03c0,0-0.02,0.96,0.12,1.54l0.04,0.17c0.15,0.62,0.42,1.69-0.31,2.15
			c-0.65,0.42-1.24-0.07-1.36-0.23c-0.09-0.11-0.33-0.41-0.15-1.88c0,0,0.39-3.77,0.49-4.99l0.21-2.71
			c-6.51,4.02-10.03,7.62-10.03,7.62c-0.36,0.33-1.22,1.06-1.85,0.26c-0.59-0.75,0.99-1.91,0.99-1.91c3.44-2.9,7.42-5.47,11.01-7.54
			l0.06-0.84c0,0,0.04-0.27-0.24-0.08c0,0-1.21,0.71-2.09,0.3c0,0-0.71-0.31-0.68-1.35c0,0,0-3.3,1.38-4.67c0,0,0.8-0.83,1.58-0.8
			c0.47,0.02,0.41,0.7-0.21,1.23c-0.53,0.45-0.67,1-0.84,1.64l-0.1,0.37c0,0-0.49,2.24,0.34,2.14c0,0,0.84,0.06,1.1-1.35l0.63-3.48
			l0.01-0.05c0.06-0.41,0.19-1.21,0.91-1.18c0,0,0.76,0,0.68,0.62c0,0-0.57,3.83-0.91,6.58c4.89-2.7,8.69-4.31,8.69-4.31
			c0.15-0.08,0.08-0.11,0.08-0.11c-0.59-0.2-0.31-1.5-0.31-1.5l0.29-2.62c0.01-0.65-0.78-0.26-0.78-0.26
			c-0.56,0.31-0.95,1.03-0.95,1.03c-0.33,0.45-0.53,2.74-0.53,2.74c-0.08,1.17-0.77,1.36-0.77,1.36c-0.81,0.28-0.91-0.17-0.91-0.17
			c-0.1-0.21,0.09-1.33,0.09-1.33l0.35-2.86c0.07-1.2,0.95-1.44,0.95-1.44c0.2-0.06,0.46-0.1,0.75-0.01
			c0.29,0.1,0.49,0.08,0.65,0.03c0.3-0.07,0.68-0.43,0.68-0.43c0.79-0.69,1.27-0.63,1.27-0.63c0.92-0.01,0.8,1.17,0.8,1.17
			l-0.32,3.22c-0.1,1.37,0.91,0.85,0.93,0.83L335.64,16.07z"/>
	</g>
</g>
</svg>
