<?xml version="1.0" encoding="utf-8"?>
<!-- Generator: Adobe Illustrator 25.4.1, SVG Export Plug-In . SVG Version: 6.00 Build 0)  -->
<svg version="1.1" id="Layer_1" xmlns="http://www.w3.org/2000/svg" xmlns:xlink="http://www.w3.org/1999/xlink" x="0px" y="0px"
	 viewBox="0 0 206.33 80" style="enable-background:new 0 0 206.33 80;" xml:space="preserve">
<style type="text/css">
	.st0{fill:#F60E1E;}
</style>
<path class="st0" d="M200.06,4.65c-5.71-1.79-31.42-3.75-45.88-1.43c0,0-7.85-0.54-15.53,6.61c-7.68,7.14-26.78,27.67-36.78,49.27
	c0,0-6.43,11.96,6.61,13.03c13.03,1.07,54.98-1.79,57.31-1.96c2.32-0.18,13.03-1.25,15-13.03c0,0-46.06,2.5-50.52-6.78
	c-4.46-9.28,10.72-31.42,15.45-35.7c4.73-4.28,8.48-5.36,14.01-5.36c5.53,0,15.53,0.36,22.14,3.75c0,0,4.11,6.43-5,22.49
	c0,0-1.07,2.68-5.36,1.79c-4.28-0.89-11.23-1.28-7.14-14.46c0,0-8.03-2.5-10.35,1.79c-2.32,4.28-5.89,8.3-4.64,16.38
	c0,0,11.96,5.94,29.28,3.62c0,0,11.43-0.71,15.35-6.78s11.43-21.24,12.14-25.17C206.85,8.75,205.78,6.43,200.06,4.65z"/>
<path class="st0" d="M111.52,4.11c-9.1-4.82-51.59-8.21-58.73,6.61c0,0,25.53,0.89,35.7,4.28c0,0,3.57,0,1.96,4.91
	c-1.61,4.91-12.32,31.15-24.46,43.29c0,0-21.24,2.32-33.38-5.18c0,0-3.03-7.5,5.53-18.03c8.57-10.53,14.64-7.5,16.42-6.96
	c1.79,0.54,7.14,2.14,6.61,8.03l-1.25,6.81l6.96,1.13c0,0,1.96-0.09,4.28-4.37c2.32-4.28,6.25-12.61,5.89-18.35
	c0,0,1.61-4.14-25.53-3.61c0,0-11.4-0.36-19.45,5.89s-25.9,19.28-30.9,36.6c0,0-2.68,7.5,0,9.64c2.68,2.14,11.6,6.78,34.1,4.64
	c22.49-2.14,30.35-4.64,30.35-4.64s20.89-7.14,44.45-50.52C110.09,24.28,120.62,8.93,111.52,4.11z"/>
</svg>
