<?xml version="1.0" encoding="utf-8"?>
<!-- Generator: Adobe Illustrator 25.4.1, SVG Export Plug-In . SVG Version: 6.00 Build 0)  -->
<svg version="1.1" id="Layer_1" xmlns="http://www.w3.org/2000/svg" xmlns:xlink="http://www.w3.org/1999/xlink" x="0px" y="0px"
	 viewBox="0 0 562.29 80" style="enable-background:new 0 0 562.29 80;" xml:space="preserve">
<style type="text/css">
	.st0{fill:#F60E1E;}
</style>
<g>
	<path class="st0" d="M221.84,19.91l-26.96,49.45h11.25l3.84-7.32H228c0,0,1.7,6.69,1.52,7.32h16.6l-10.53-49.45H221.84z
		 M216.4,49.01l7.77-15.98l0.8,15.98H216.4z"/>
	<path class="st0" d="M406.61,19.91l-26.96,49.45h11.25l3.84-7.32h18.03c0,0,1.7,6.69,1.52,7.32h16.6l-10.53-49.45H406.61z
		 M401.17,49.01l7.77-15.98l0.8,15.98H401.17z"/>
	<polygon class="st0" points="256.92,19.91 247.91,69.36 263.53,69.36 272.1,19.91 	"/>
	<polygon class="st0" points="469.99,19.91 466.44,39.37 453.23,39.37 456.6,19.91 441.43,19.91 432.41,69.36 448.03,69.36 
		451.82,47.49 464.96,47.49 460.98,69.36 476.6,69.36 485.16,19.91 	"/>
	<path class="st0" d="M303.07,19.91c-1.68,0-7.57,0-10.98,0h-2.5h-12.68l-9.02,49.45h15.62l3.14-18.13v0l9.89,18.13h16.69
		l-9.37-19.86c0,0,11.16,0.49,13.92-14.15C320.57,20.71,305.48,19.91,303.07,19.91z M302.27,35.71c-1.07,5-4.02,6.34-6.52,6.34
		c-1.55,0-5.06,0-7.5,0l2.15-12.41h6.77C297.18,29.64,303.34,30.71,302.27,35.71z"/>
	<path class="st0" d="M380.02,32.66l2.5-12.74h-7.14H360.2h-8.21c0,0-2.5,12.23-2.5,12.59c0,0.25,5.29,0.15,8.4,0.07l-6.71,36.8
		h15.62l6.37-36.76L380.02,32.66z"/>
	<polygon class="st0" points="480.52,69.36 496.14,69.36 504.71,19.91 489.54,19.91 	"/>
	<polygon class="st0" points="547.11,19.91 538.1,69.36 553.72,69.36 562.29,19.91 	"/>
	<path class="st0" d="M539.53,19.91h-7.14h-15.17H509c0,0-2.5,12.23-2.5,12.59c0,0.25,5.29,0.15,8.4,0.07l-6.71,36.8h15.62
		l6.37-36.76l6.84,0.05L539.53,19.91z"/>
	<path class="st0" d="M200.06,4.65c-5.71-1.79-31.42-3.75-45.88-1.43c0,0-7.85-0.54-15.53,6.61c-7.68,7.14-26.78,27.67-36.78,49.27
		c0,0-6.43,11.96,6.61,13.03c13.03,1.07,54.98-1.79,57.31-1.96c2.32-0.18,13.03-1.25,15-13.03c0,0-46.06,2.5-50.52-6.78
		c-4.46-9.28,10.72-31.42,15.45-35.7c4.73-4.28,8.48-5.36,14.01-5.36c5.53,0,15.53,0.36,22.14,3.75c0,0,4.11,6.43-5,22.49
		c0,0-1.07,2.68-5.36,1.79c-4.28-0.89-11.23-1.28-7.14-14.46c0,0-8.03-2.5-10.35,1.79c-2.32,4.28-5.89,8.3-4.64,16.38
		c0,0,11.96,5.94,29.28,3.62c0,0,11.43-0.71,15.35-6.78s11.43-21.24,12.14-25.17C206.85,8.75,205.78,6.43,200.06,4.65z"/>
	<path class="st0" d="M111.52,4.11c-9.1-4.82-51.59-8.21-58.73,6.61c0,0,25.53,0.89,35.7,4.28c0,0,3.57,0,1.96,4.91
		c-1.61,4.91-12.32,31.15-24.46,43.29c0,0-21.24,2.32-33.38-5.18c0,0-3.03-7.5,5.53-18.03c8.57-10.53,14.64-7.5,16.42-6.96
		c1.79,0.54,7.14,2.14,6.61,8.03l-1.25,6.81l6.96,1.13c0,0,1.96-0.09,4.28-4.37c2.32-4.28,6.25-12.61,5.89-18.35
		c0,0,1.61-4.14-25.53-3.61c0,0-11.4-0.36-19.45,5.89s-25.9,19.28-30.9,36.6c0,0-2.68,7.5,0,9.64c2.68,2.14,11.6,6.78,34.1,4.64
		c22.49-2.14,30.35-4.64,30.35-4.64s20.89-7.14,44.45-50.52C110.09,24.28,120.62,8.93,111.52,4.11z"/>
</g>
</svg>
