<?xml version="1.0" encoding="utf-8"?>
<!-- Generator: Adobe Illustrator 25.4.1, SVG Export Plug-In . SVG Version: 6.00 Build 0)  -->
<svg version="1.1" id="Layer_4" xmlns="http://www.w3.org/2000/svg" xmlns:xlink="http://www.w3.org/1999/xlink" x="0px" y="0px"
	 viewBox="0 0 166.51 80.27" style="enable-background:new 0 0 166.51 80.27;" xml:space="preserve">
<style type="text/css">
	.st0{fill:#028EAA;}
</style>
<g>
	<g>
		<path class="st0" d="M46.99,69.43c0.09-0.66,0.44-0.96,1.09-0.96h0.26c0.31,0,0.57,0.09,0.7,0.26c0.13,0.17,0.22,0.39,0.22,0.74
			L48.6,79c-0.04,0.31-0.13,0.57-0.31,0.74C48.12,79.91,47.86,80,47.55,80h-0.61c-0.31,0-0.57-0.09-0.7-0.26
			c-0.13-0.17-0.22-0.44-0.17-0.74L46.99,69.43z M47.03,64.72c0.09-0.87,0.61-1.27,1.66-1.27c0.52,0,0.87,0.09,1.09,0.31
			c0.22,0.22,0.31,0.52,0.26,0.92c-0.09,0.83-0.61,1.27-1.62,1.27C47.42,65.94,46.94,65.5,47.03,64.72z"/>
		<path class="st0" d="M56.51,77.82c-0.31,0-0.52-0.04-0.7-0.17c-0.17-0.13-0.31-0.31-0.39-0.52c-0.22-0.48-0.39-1.05-0.61-1.7
			c-0.22-0.66-0.44-1.4-0.7-2.18c-0.22-0.79-0.48-1.62-0.7-2.49c-0.22-0.87-0.44-1.79-0.66-2.71c-0.22-0.92-0.44-1.83-0.61-2.75
			c-0.17-0.92-0.35-1.79-0.48-2.66c-0.04-0.31,0-0.57,0.17-0.74c0.17-0.22,0.44-0.35,0.74-0.35l0.7-0.04c0.31,0,0.52,0.09,0.7,0.22
			c0.17,0.13,0.26,0.35,0.35,0.66c0.09,0.52,0.17,1.09,0.31,1.75s0.26,1.35,0.44,2.1c0.17,0.74,0.35,1.53,0.52,2.31
			c0.17,0.79,0.39,1.62,0.61,2.4s0.44,1.57,0.66,2.31c0.22,0.74,0.44,1.44,0.7,2.05h0.44c0.17-0.35,0.44-0.79,0.7-1.31
			c0.26-0.52,0.57-1.14,0.87-1.79s0.61-1.4,0.96-2.14c0.35-0.79,0.66-1.57,1-2.45c0.35-0.83,0.7-1.7,1-2.62
			c0.31-0.92,0.66-1.79,0.96-2.71c0.09-0.31,0.26-0.52,0.44-0.66c0.22-0.13,0.44-0.22,0.74-0.22l0.7,0.04c0.31,0,0.57,0.13,0.7,0.31
			c0.13,0.22,0.17,0.48,0.04,0.79c-0.26,0.79-0.57,1.62-0.92,2.49c-0.35,0.87-0.66,1.75-1.05,2.62c-0.35,0.87-0.74,1.75-1.09,2.62
			c-0.39,0.87-0.74,1.7-1.14,2.53c-0.39,0.79-0.74,1.57-1.09,2.27c-0.35,0.7-0.7,1.35-1.05,1.88c-0.17,0.26-0.31,0.44-0.52,0.52
			c-0.17,0.13-0.44,0.17-0.7,0.17h-2.05V77.82z"/>
		<path class="st0" d="M66.9,66.99c0.04-0.66,0.44-1,1.09-1h0.48c0.66,0,0.96,0.35,0.92,1l-0.52,5.98c-0.09,1,0.04,1.75,0.44,2.23
			c0.39,0.48,1,0.74,1.88,0.74c1.09,0,2.01-0.31,2.84-0.92l0.7-8.03c0.04-0.66,0.44-1,1.09-1h0.48c0.66,0,0.96,0.35,0.92,1
			l-0.87,9.83c-0.04,0.66-0.44,1-1.09,1h-0.26c-0.31,0-0.52-0.04-0.7-0.13c-0.17-0.09-0.26-0.22-0.31-0.44l-0.09-0.57
			c-0.52,0.44-1.05,0.74-1.66,1c-0.61,0.22-1.22,0.35-1.83,0.35c-0.74,0-1.35-0.09-1.88-0.31c-0.52-0.22-0.96-0.52-1.31-0.96
			c-0.35-0.39-0.57-0.92-0.7-1.48c-0.13-0.57-0.17-1.27-0.13-1.97L66.9,66.99z"/>
		<path class="st0" d="M81.62,73.01c0.09,2.01,1.27,3.01,3.45,3.01c0.31,0,0.66-0.04,1-0.09c0.35-0.09,0.7-0.17,1.09-0.35
			c0.26-0.09,0.48-0.13,0.7-0.13c0.22,0.04,0.39,0.17,0.48,0.39l0.13,0.31c0.09,0.26,0.04,0.48-0.09,0.66
			c-0.13,0.22-0.35,0.39-0.66,0.52c-0.22,0.09-0.48,0.22-0.74,0.31c-0.31,0.09-0.57,0.13-0.87,0.22c-0.31,0.04-0.57,0.09-0.87,0.13
			c-0.31,0.04-0.52,0.04-0.79,0.04c-1.88,0-3.28-0.52-4.15-1.57c-0.87-1.05-1.22-2.62-1.05-4.67c0.09-0.96,0.31-1.79,0.61-2.53
			c0.35-0.74,0.74-1.4,1.27-1.88c0.52-0.52,1.14-0.92,1.83-1.18c0.7-0.26,1.48-0.39,2.36-0.39c0.66,0,1.27,0.09,1.83,0.31
			c0.57,0.22,1.05,0.48,1.44,0.83c0.39,0.35,0.7,0.74,0.92,1.22c0.22,0.48,0.26,1,0.22,1.53c-0.09,1.09-0.52,1.97-1.22,2.53
			c-0.74,0.57-1.75,0.87-3.1,0.87h-3.8V73.01z M82.88,68.69c-0.52,0.57-0.92,1.31-1.14,2.27h3.45c0.35,0,0.66,0,0.92-0.04
			c0.26-0.04,0.48-0.09,0.66-0.22c0.17-0.09,0.31-0.22,0.39-0.39c0.09-0.17,0.13-0.35,0.17-0.57c0.04-0.35,0-0.61-0.13-0.87
			c-0.13-0.26-0.26-0.48-0.48-0.66c-0.22-0.17-0.48-0.31-0.74-0.39c-0.31-0.09-0.57-0.13-0.87-0.13
			C84.24,67.77,83.49,68.08,82.88,68.69z"/>
		<path class="st0" d="M92.4,77.82c-0.66,0-0.96-0.35-0.92-1l1.31-14.8c0.04-0.66,0.44-1,1.09-1h0.48c0.66,0,0.96,0.35,0.92,1
			l-1.31,14.8c-0.04,0.66-0.44,1-1.09,1L92.4,77.82L92.4,77.82z"/>
		<path class="st0" d="M98.95,67.29c0.57-0.52,1.27-0.92,2.01-1.18c0.74-0.26,1.57-0.39,2.45-0.39c0.61,0,1.22,0.04,1.79,0.17
			c0.61,0.13,1.27,0.31,1.97,0.57c0.48,0.17,0.7,0.57,0.66,1.14l-0.79,9.17c-0.04,0.66-0.44,1-1.09,1h-0.26
			c-0.57,0-0.92-0.17-0.96-0.57l-0.09-0.57c-0.35,0.26-0.66,0.44-0.96,0.61c-0.31,0.17-0.57,0.31-0.87,0.44
			c-0.31,0.13-0.57,0.17-0.87,0.26c-0.31,0.04-0.61,0.09-0.96,0.09c-0.7,0-1.31-0.13-1.88-0.39c-0.52-0.26-1-0.66-1.35-1.18
			c-0.35-0.52-0.61-1.14-0.79-1.88c-0.17-0.74-0.17-1.62-0.09-2.58c0.09-1,0.31-1.92,0.66-2.66C97.9,68.52,98.38,67.86,98.95,67.29z
			 M99.83,74.98c0.22,0.31,0.48,0.57,0.83,0.74c0.35,0.17,0.74,0.26,1.18,0.26c0.26,0,0.52-0.04,0.79-0.09
			c0.26-0.04,0.52-0.13,0.79-0.22c0.26-0.09,0.48-0.17,0.7-0.31c0.22-0.13,0.44-0.26,0.61-0.39l0.61-6.77
			c-0.13-0.04-0.31-0.09-0.44-0.17c-0.17-0.04-0.35-0.09-0.52-0.13c-0.17-0.04-0.39-0.04-0.57-0.09c-0.22-0.04-0.39-0.04-0.57-0.04
			c-0.57,0-1.05,0.09-1.48,0.31c-0.44,0.17-0.83,0.48-1.18,0.83c-0.35,0.35-0.61,0.79-0.83,1.31c-0.22,0.52-0.35,1.09-0.39,1.7
			C99.17,73.23,99.34,74.28,99.83,74.98z"/>
		<path class="st0" d="M117.34,68.52c0.04-0.26,0.09-0.48,0.22-0.7c0.13-0.17,0.31-0.35,0.52-0.48c0.92-0.52,1.88-0.92,2.79-1.18
			c0.92-0.26,1.83-0.39,2.71-0.39c1.27,0,2.14,0.39,2.71,1.22c0.74-0.39,1.48-0.7,2.18-0.92c0.7-0.22,1.44-0.31,2.14-0.31
			c1.27,0,2.23,0.35,2.79,1.09c0.57,0.74,0.83,1.79,0.7,3.23l-0.57,6.72c-0.04,0.66-0.44,1-1.09,1h-0.48c-0.66,0-0.96-0.35-0.92-1
			l0.57-6.51c0.04-0.44,0.04-0.79,0-1.09c-0.04-0.31-0.09-0.57-0.22-0.79c-0.13-0.22-0.31-0.35-0.52-0.48
			c-0.22-0.09-0.52-0.17-0.87-0.17c-0.22,0-0.48,0.04-0.74,0.09c-0.26,0.09-0.57,0.13-0.83,0.26c-0.31,0.09-0.57,0.22-0.83,0.35
			c-0.26,0.13-0.48,0.26-0.7,0.39c0.04,0.39,0.04,0.83,0,1.31l-0.57,6.59c-0.04,0.66-0.44,1-1.09,1h-0.48c-0.66,0-0.96-0.35-0.92-1
			l0.57-6.42c0.04-0.44,0.04-0.79,0-1.14c-0.04-0.31-0.09-0.61-0.22-0.83s-0.31-0.39-0.52-0.48c-0.22-0.13-0.48-0.17-0.83-0.17
			c-0.44,0-0.92,0.09-1.44,0.26c-0.52,0.17-1.09,0.44-1.62,0.74l-0.7,8.03c-0.04,0.66-0.44,1-1.09,1h-0.52c-0.66,0-0.96-0.35-0.92-1
			L117.34,68.52z"/>
		<path class="st0" d="M138.52,67.29c0.57-0.52,1.27-0.92,2.01-1.18c0.74-0.26,1.57-0.39,2.45-0.39c0.61,0,1.22,0.04,1.79,0.17
			c0.61,0.13,1.27,0.31,1.97,0.57c0.48,0.17,0.7,0.57,0.66,1.14l-0.79,9.17c-0.04,0.66-0.44,1-1.09,1h-0.26
			c-0.57,0-0.92-0.17-0.96-0.57l-0.09-0.57c-0.35,0.26-0.66,0.44-0.96,0.61c-0.31,0.17-0.57,0.31-0.87,0.44
			c-0.31,0.13-0.57,0.17-0.87,0.26c-0.31,0.04-0.61,0.09-0.96,0.09c-0.7,0-1.31-0.13-1.88-0.39c-0.52-0.26-1-0.66-1.35-1.18
			c-0.35-0.52-0.61-1.14-0.79-1.88c-0.17-0.74-0.17-1.62-0.09-2.58c0.09-1,0.31-1.92,0.66-2.66
			C137.42,68.52,137.9,67.86,138.52,67.29z M139.39,74.98c0.22,0.31,0.48,0.57,0.83,0.74c0.35,0.17,0.74,0.26,1.18,0.26
			c0.26,0,0.52-0.04,0.79-0.09c0.26-0.04,0.52-0.13,0.79-0.22s0.48-0.17,0.7-0.31s0.44-0.26,0.61-0.39l0.61-6.77
			c-0.13-0.04-0.31-0.09-0.44-0.17c-0.17-0.04-0.35-0.09-0.52-0.13c-0.17-0.04-0.39-0.04-0.57-0.09c-0.22-0.04-0.39-0.04-0.57-0.04
			c-0.57,0-1.05,0.09-1.48,0.31c-0.44,0.17-0.83,0.48-1.18,0.83c-0.35,0.35-0.61,0.79-0.83,1.31s-0.35,1.09-0.39,1.7
			C138.69,73.23,138.86,74.28,139.39,74.98z M143.76,64.19c-0.17,0-0.35-0.04-0.52-0.17c-0.13-0.13-0.22-0.26-0.22-0.48
			s0.13-0.44,0.39-0.74l1.66-1.92c0.26-0.31,0.52-0.44,0.79-0.44c0.17,0,0.39,0.09,0.57,0.22l0.09,0.04
			c0.31,0.22,0.44,0.44,0.39,0.7c0,0.22-0.17,0.44-0.44,0.66l-2.05,1.75c-0.13,0.13-0.26,0.22-0.39,0.26
			C143.97,64.15,143.89,64.19,143.76,64.19z"/>
		<path class="st0" d="M149.26,75.85c0.13-0.31,0.31-0.44,0.52-0.48s0.44,0,0.74,0.13c0.87,0.35,1.75,0.52,2.66,0.52
			c0.26,0,0.52-0.04,0.79-0.13s0.48-0.17,0.7-0.35c0.22-0.13,0.35-0.31,0.48-0.48c0.13-0.17,0.22-0.39,0.22-0.61
			c0-0.17,0-0.35-0.09-0.52c-0.09-0.17-0.22-0.31-0.39-0.48c-0.17-0.13-0.44-0.31-0.74-0.44s-0.7-0.31-1.14-0.48
			c-0.61-0.22-1.14-0.44-1.57-0.66c-0.44-0.22-0.79-0.44-1.05-0.7c-0.26-0.26-0.44-0.57-0.52-0.92c-0.09-0.35-0.13-0.74-0.09-1.22
			c0.04-0.52,0.17-1,0.44-1.4s0.57-0.74,0.96-1.05c0.39-0.26,0.87-0.48,1.4-0.66c0.52-0.13,1.14-0.22,1.79-0.22
			c0.17,0,0.39,0,0.66,0.04c0.22,0,0.48,0.04,0.7,0.09c0.22,0.04,0.48,0.09,0.7,0.13s0.48,0.13,0.66,0.17
			c0.13,0.04,0.31,0.13,0.44,0.22s0.22,0.17,0.31,0.26s0.13,0.22,0.13,0.35s0,0.26-0.09,0.39l-0.17,0.35
			c-0.09,0.13-0.17,0.26-0.26,0.31s-0.22,0.09-0.31,0.13c-0.13,0-0.22,0-0.35,0s-0.22-0.04-0.35-0.09
			c-0.66-0.17-1.22-0.31-1.83-0.31c-0.74,0-1.35,0.13-1.75,0.35c-0.44,0.22-0.66,0.61-0.7,1.09c0,0.17,0,0.31,0.09,0.44
			s0.17,0.26,0.31,0.35c0.13,0.09,0.31,0.22,0.52,0.26c0.17,0.09,0.39,0.13,0.61,0.22c0.79,0.22,1.44,0.44,1.97,0.7
			c0.52,0.26,0.96,0.52,1.31,0.87c0.31,0.31,0.52,0.7,0.66,1.09c0.13,0.39,0.17,0.87,0.13,1.35c-0.04,0.52-0.17,1-0.44,1.4
			c-0.26,0.44-0.57,0.79-1,1.09c-0.39,0.31-0.87,0.57-1.44,0.74c-0.52,0.17-1.14,0.26-1.75,0.26c-0.48,0-0.92-0.04-1.35-0.09
			c-0.44-0.04-0.87-0.17-1.31-0.31c-0.22-0.09-0.44-0.13-0.66-0.22s-0.39-0.17-0.52-0.31c-0.13-0.09-0.22-0.22-0.26-0.39
			c-0.04-0.13,0-0.31,0.09-0.48L149.26,75.85z"/>
		<path class="st0" d="M162.49,76.77c-0.04,0.39-0.17,0.7-0.44,0.92c-0.26,0.22-0.66,0.31-1.18,0.31c-1.05,0-1.53-0.44-1.44-1.27
			s0.61-1.22,1.62-1.22C162.05,75.5,162.58,75.9,162.49,76.77z M160.87,62.58c0.04-0.31,0.13-0.57,0.31-0.74
			c0.17-0.17,0.44-0.26,0.74-0.26h0.61c0.31,0,0.57,0.09,0.7,0.26c0.13,0.17,0.22,0.44,0.17,0.74l-1,9.52
			c-0.04,0.31-0.13,0.57-0.31,0.74c-0.17,0.17-0.44,0.26-0.74,0.26h-0.26c-0.66,0-0.96-0.31-0.92-0.96L160.87,62.58z"/>
	</g>
	<g>
		<path class="st0" d="M43.67,0.09c-4.32-0.96-8.73,6.86-13.76,15.33c-4.1,6.9-5.9,9.69-8.78,9.69c-2.62,0-3.97-2.84-6.07-8.56
			C10.13,3.06,8.52-0.66,4.63,0.13C1.75,0.7,0,4.98,0,11c0,13.1,6.51,34.76,19.21,34.76c15.28,0,27.77-28.65,27.77-39.52
			C46.99,2.97,46.07,0.61,43.67,0.09z"/>
		<path class="st0" d="M119.34,0.09c-4.32-0.96-8.73,6.86-13.76,15.33c-4.1,6.9-5.9,9.69-8.78,9.69c-2.62,0-3.97-2.84-6.07-8.56
			C85.81,3.06,84.19-0.66,80.31,0.13C77.42,0.7,75.68,4.98,75.68,11c0,13.1,6.51,34.76,19.21,34.76c15.28,0,27.77-28.65,27.77-39.52
			C122.66,2.97,121.7,0.61,119.34,0.09z"/>
		<path class="st0" d="M148.12,0c-7.29,0-14.24,6.2-23.28,25.02c-6.38,13.28-6.59,19.13-2.79,20.48
			c5.81,2.05,12.27-10.39,17.9-17.51c2.18-2.75,3.84-4.67,6.07-4.67s3.49,2.1,4.85,5.02c3.23,6.99,5.63,18.6,11.88,17.29
			c3.76-0.79,4.93-5.28,2.45-19.96C162.79,11.7,157.55,0,148.12,0z"/>
		<path class="st0" d="M62.36,0c-4.19,0-9.65,8.21-11.27,23.14s1.83,23.14,6.29,23.14c4.19,0,9.65-8.21,11.27-23.14
			C70.26,8.21,66.77,0,62.36,0z"/>
	</g>
</g>
</svg>
