<?xml version="1.0" encoding="utf-8"?>
<!-- Generator: Adobe Illustrator 25.4.1, SVG Export Plug-In . SVG Version: 6.00 Build 0)  -->
<svg version="1.1" id="Layer_1" xmlns="http://www.w3.org/2000/svg" xmlns:xlink="http://www.w3.org/1999/xlink" x="0px" y="0px"
	 viewBox="0 0 80.15 80" style="enable-background:new 0 0 80.15 80;" xml:space="preserve">
<style type="text/css">
	.st0{fill:#003B79;}
</style>
<g id="g1248" transform="translate(172.9158,590.7075)">
</g>
<g id="g1252" transform="translate(203.0896,564.0146)">
</g>
<g id="g1256" transform="translate(202.1028,559.5876)">
</g>
<g id="g1260" transform="translate(477.4399,437.4863)">
</g>
<g id="g1264" transform="translate(507.6138,410.7935)">
</g>
<g id="g1268" transform="translate(506.627,406.3665)">
</g>
<g id="g1272" transform="translate(376.8486,590.7075)">
</g>
<g id="g1276" transform="translate(407.0225,564.0146)">
</g>
<g id="g1280" transform="translate(406.0356,559.5876)">
</g>
<path class="st0" d="M72.42,0h-4.78c-1.86,0.08-3.72,0.78-5.03,2.24L44.37,21.82L1.85,67.17C0.69,68.41,0.08,70.04,0,71.66v0.63
	c0.08,1.99,1,4.02,2.64,5.55c3.09,2.88,7.88,2.88,10.67-0.06l31.06-33.25l17.32-18.55c2.31-2.24,2.93,0.7,2.93,1.7v45.06
	c0,4.03,3.49,7.26,7.81,7.26c4.26,0,7.73-3.23,7.73-7.26V7.34C80.15,3.33,76.69,0,72.42,0z"/>
<path class="st0" d="M55.11,64.31H33.62c-4.03,0-7.33,3.56-7.33,7.82c0,4.25,3.31,7.81,7.33,7.81h21.49c4.02,0,7.26-3.56,7.26-7.81
	C62.38,67.87,59.13,64.31,55.11,64.31z"/>
</svg>
