<svg width="80" height="80" viewBox="0 0 80 80" fill="none" xmlns="http://www.w3.org/2000/svg">
<g clip-path="url(#clip0_706_2564)">
<path d="M40.0008 80.0015C62.0926 80.0015 80.0015 62.0926 80.0015 40.0008C80.0015 17.909 62.0926 0 40.0008 0C17.909 0 0 17.909 0 40.0008C0 62.0926 17.909 80.0015 40.0008 80.0015Z" fill="#FFCC05"/>
<path d="M41.0549 31.1223C41.4976 30.9901 42.0126 31.0746 42.3615 31.3882C42.6566 31.6633 42.7827 32.0737 42.7842 32.4688C42.7858 36.3531 42.7858 40.2375 42.7858 44.1218C42.7642 44.7044 42.8872 45.3561 42.5275 45.8618C42.1694 46.3845 41.4162 46.5213 40.8628 46.2461C40.4124 46.0217 40.1711 45.5052 40.1772 45.0179C40.1788 40.9999 40.1772 36.9803 40.1788 32.9622C40.1834 32.6041 40.1419 32.2305 40.2679 31.8878C40.3924 31.5311 40.6891 31.2314 41.0549 31.1223Z" fill="#757575"/>
<path d="M30.706 38.4483C31.3669 37.5045 32.4706 36.9235 33.6081 36.8128C34.8162 36.6791 36.1489 36.8851 37.0866 37.7151C37.9566 38.4791 38.344 39.6504 38.4223 40.7771C38.4469 41.2198 38.5115 41.7071 38.2809 42.1098C38.1011 42.428 37.7045 42.511 37.3663 42.514C35.6878 42.5171 34.0077 42.511 32.3292 42.5171C32.4352 43.1412 32.7288 43.8099 33.3483 44.0727C34.2137 44.4416 35.1898 44.2249 36.0552 43.9651C36.3979 43.8636 36.753 43.7376 37.1158 43.7868C37.623 43.8959 37.9827 44.4401 37.9243 44.9473C37.8751 45.3347 37.5554 45.6129 37.2372 45.7974C36.6516 46.1217 35.9829 46.2508 35.325 46.3292C34.08 46.4737 32.7319 46.3769 31.6636 45.6621C30.6045 44.9781 29.9989 43.7591 29.8498 42.5325C29.6791 41.1337 29.8728 39.6181 30.706 38.4483ZM33.173 39.0294C32.5474 39.3583 32.3922 40.1207 32.3292 40.7633C33.5527 40.7648 34.7778 40.7617 36.0014 40.7648C35.9553 40.11 35.737 39.3691 35.1129 39.0401C34.518 38.745 33.7741 38.7496 33.173 39.0294Z" fill="#757575"/>
<path d="M20.5937 36.8819C21.0425 36.7558 21.5744 36.8312 21.911 37.1724C22.1969 37.4522 22.3107 37.861 22.3091 38.2515C22.3122 39.6933 22.3076 41.1351 22.3107 42.577C22.3076 43.0965 22.5197 43.6514 22.9747 43.9373C23.3744 44.1971 23.8724 44.2202 24.332 44.1664C24.7271 44.1172 25.1221 43.9312 25.3511 43.5961C25.6109 43.2287 25.6463 42.7645 25.6524 42.3295C25.6539 40.9169 25.6509 39.5042 25.6524 38.0916C25.657 37.5997 25.9537 37.1063 26.4194 36.9249C26.9267 36.7205 27.5815 36.8173 27.9381 37.2585C28.2148 37.5767 28.2686 38.0163 28.2609 38.4236C28.2517 39.724 28.2701 41.026 28.2517 42.3264C28.2256 43.4393 27.9228 44.6306 27.0758 45.4068C26.1673 46.2446 24.8639 46.4475 23.6726 46.4013C22.5735 46.3645 21.4068 46.034 20.6583 45.1824C19.9727 44.4062 19.7145 43.3425 19.7037 42.3295C19.7052 40.9169 19.7006 39.5042 19.7052 38.0916C19.7098 37.5567 20.0711 37.0325 20.5937 36.8819Z" fill="#757575"/>
<path d="M52.6182 36.8957C53.8417 36.742 55.176 36.7974 56.255 37.4599C56.9974 37.9041 57.5032 38.6727 57.7214 39.5012C57.8721 40.0499 57.9213 40.6217 57.9213 41.1889C57.9197 42.4371 57.9197 43.6852 57.9213 44.9334C57.9289 45.3469 57.7937 45.7819 57.4786 46.0616C57.0113 46.4782 56.2489 46.489 55.7631 46.097C55.4449 45.8388 55.2789 45.4222 55.2912 45.0164C55.2959 43.7667 55.2912 42.517 55.2943 41.2658C55.2974 40.7155 55.3174 40.1099 54.9823 39.6395C54.7087 39.2353 54.2122 39.0493 53.7387 39.0324C53.2715 39.0185 52.7596 39.1077 52.4091 39.4428C52.0833 39.7686 51.9695 40.2451 51.971 40.694C51.9741 42.1097 51.9695 43.5269 51.9741 44.9426C51.9757 45.2792 51.9019 45.6297 51.6913 45.9002C51.2424 46.4997 50.2479 46.5489 49.7345 46.0094C49.4778 45.7496 49.3641 45.3792 49.3656 45.0195C49.3641 44.068 49.3672 43.118 49.3656 42.1681C49.3748 41.2996 49.3072 40.4142 49.5424 39.5657C49.7376 38.7587 50.2064 38.0086 50.8951 37.5337C51.4054 37.1863 52.0079 36.9864 52.6182 36.8957Z" fill="#757575"/>
<path d="M61.0652 37.921C61.9552 37.1386 63.1665 36.7989 64.3362 36.8281C65.4814 36.8297 66.6511 37.0649 67.6549 37.6321C68.1176 37.8826 68.4634 38.3699 68.4511 38.9094C68.4511 41.5994 68.4496 44.2894 68.4527 46.9809C68.4357 48.1983 68.0453 49.4895 67.0938 50.3042C66.1377 51.1265 64.8281 51.3679 63.6015 51.3525C62.6577 51.3125 61.7062 51.0743 60.8946 50.5839C60.601 50.3964 60.3243 50.1612 60.1537 49.8523C59.8417 49.2774 60.2044 48.4581 60.8454 48.3136C61.3158 48.2398 61.7585 48.4704 62.1812 48.6425C62.7561 48.8962 63.3832 49.0391 64.015 49.0161C64.553 49.0145 65.1294 48.8808 65.5198 48.4873C65.8826 48.1107 65.9932 47.565 65.9886 47.0593C65.9871 46.5905 65.984 46.1216 65.9871 45.6513C65.2508 46.2984 64.2163 46.4552 63.2679 46.3937C62.2749 46.3322 61.3004 45.8895 60.6502 45.1271C59.7356 44.0788 59.4651 42.6185 59.5389 41.2643C59.6019 40.0146 60.0984 38.7465 61.0652 37.921ZM63.809 39.0555C63.4109 39.1246 63.022 39.2999 62.7422 39.595C62.2273 40.153 62.112 40.9492 62.112 41.6778C62.1228 42.3342 62.1735 43.0474 62.5808 43.5915C62.9667 44.0926 63.6507 44.2064 64.2455 44.1603C64.8143 44.1326 65.3753 43.8236 65.6366 43.3041C66.1254 42.3772 65.9517 41.2966 65.9856 40.2913C65.9671 39.9916 66.0747 39.6057 65.7765 39.4121C65.2201 39.0016 64.4715 38.9571 63.809 39.0555Z" fill="#757575"/>
<path d="M10.1012 37.5735C10.3779 37.0386 11.0588 36.8296 11.6214 36.9449C12.0687 37.0279 12.3869 37.4244 12.4991 37.8472C13.014 39.5857 13.5305 41.3226 14.0424 43.0627C14.07 43.1641 14.1177 43.261 14.173 43.3501C14.7126 41.5701 15.2352 39.784 15.764 37.9993C15.8639 37.6166 16.0468 37.2154 16.4219 37.0356C17.0244 36.7604 17.8529 36.9556 18.1942 37.5443C18.4124 37.9348 18.3556 38.4128 18.1988 38.8125C17.4656 40.8523 16.7477 42.8967 16.0176 44.9364C15.8639 45.3299 15.7178 45.7465 15.412 46.0524C15.0953 46.3537 14.6326 46.3829 14.2191 46.3859C13.7595 46.389 13.2477 46.346 12.8957 46.0155C12.5729 45.705 12.4023 45.2761 12.2501 44.8642C11.5261 42.8167 10.8067 40.7693 10.0796 38.7249C9.94438 38.3575 9.9121 37.9286 10.1012 37.5735Z" fill="#757575"/>
<path d="M45.6303 37.0063C46.1791 36.7881 46.8754 36.9541 47.209 37.4567C47.4072 37.7349 47.4534 38.0869 47.4518 38.4205C47.4488 40.594 47.4503 42.7675 47.4503 44.941C47.4487 45.3038 47.3596 45.6834 47.1106 45.9601C46.6417 46.5135 45.681 46.5304 45.1922 45.9939C44.957 45.7311 44.8371 45.376 44.8402 45.0255C44.8417 42.769 44.8417 40.5125 44.8402 38.256C44.8279 37.7349 45.1307 37.1954 45.6303 37.0063Z" fill="#757575"/>
<path d="M70.2407 32.043C70.6526 31.9123 71.1076 31.9123 71.5196 32.0445C72.0314 32.209 72.4372 32.6686 72.5279 33.2005C72.5848 33.657 72.5633 34.1627 72.2835 34.5501C71.7378 35.314 70.5512 35.4185 69.8072 34.8974C68.8496 34.1842 69.0448 32.3935 70.2407 32.043Z" fill="#FBFFFE"/>
</g>
<defs>
<clipPath id="clip0_706_2564">
<rect width="80" height="80" fill="white"/>
</clipPath>
</defs>
</svg>
