<svg width="247" height="80" viewBox="0 0 247 80" fill="none" xmlns="http://www.w3.org/2000/svg">
<path d="M122.561 0.236391C124.306 -0.28408 126.339 0.0500481 127.711 1.28697C128.874 2.36968 129.369 3.98892 129.375 5.54712C129.382 20.8625 129.379 36.1778 129.379 51.4932C129.295 53.7871 129.78 56.3605 128.36 58.3557C126.947 60.4151 123.978 60.958 121.8 59.8721C120.023 58.9886 119.072 56.9517 119.095 55.0272C119.101 39.185 119.095 23.3395 119.098 7.49728C119.117 6.08366 118.95 4.61542 119.451 3.26283C119.949 1.84921 121.115 0.666904 122.561 0.236391Z" fill="#747474"/>
<path d="M81.753 29.1219C84.3618 25.4015 88.7087 23.1076 93.1937 22.6738C97.9583 22.1469 103.214 22.9566 106.906 26.2304C110.334 29.244 111.863 33.8608 112.175 38.304C112.271 40.0518 112.528 41.9698 111.616 43.5569C110.906 44.8099 109.341 45.1409 108.011 45.1505C101.393 45.1633 94.7712 45.1409 88.1529 45.1601C88.5737 47.6211 89.7271 50.2588 92.1721 51.2933C95.5841 52.7455 99.433 51.8909 102.845 50.8692C104.198 50.4676 105.595 49.9697 107.028 50.1689C109.026 50.5994 110.446 52.7423 110.218 54.7471C110.026 56.2731 108.766 57.3719 107.51 58.098C105.203 59.3767 102.565 59.8875 99.9727 60.1928C95.0636 60.7646 89.7464 60.3823 85.5345 57.5615C81.361 54.8627 78.9707 50.0596 78.3828 45.2212C77.7049 39.708 78.4695 33.7355 81.753 29.1219ZM91.4813 31.4126C89.0139 32.7106 88.4035 35.7145 88.1561 38.2462C92.9817 38.2494 97.8105 38.2398 102.636 38.2494C102.453 35.6663 101.592 32.7459 99.1342 31.4512C96.7824 30.2946 93.8491 30.3074 91.4813 31.4126Z" fill="#747474"/>
<path d="M41.894 22.9461C43.6642 22.4481 45.759 22.7469 47.0858 24.093C48.2103 25.1982 48.6601 26.8078 48.6537 28.3467C48.6633 34.0334 48.6505 39.7168 48.6569 45.4002C48.644 47.45 49.4826 49.6347 51.2721 50.7656C52.8464 51.7872 54.8094 51.8804 56.6246 51.6683C58.1828 51.4724 59.7378 50.7431 60.6438 49.4194C61.6655 47.9736 61.81 46.1424 61.8293 44.4267C61.8325 38.8558 61.8261 33.2848 61.8293 27.717C61.8454 25.7765 63.0148 23.8296 64.8558 23.1163C66.8573 22.3099 69.4404 22.6922 70.8412 24.4304C71.9335 25.6866 72.1456 27.4183 72.1167 29.0246C72.0813 34.1522 72.1552 39.2831 72.0813 44.4139C71.9753 48.8025 70.7866 53.4964 67.4453 56.5614C63.863 59.8642 58.7258 60.6641 54.0255 60.481C49.6946 60.3332 45.0907 59.0321 42.1414 55.6779C39.4362 52.6193 38.421 48.4234 38.376 44.4267C38.3824 38.8558 38.3663 33.2848 38.3824 27.717C38.4081 25.6062 39.8346 23.5372 41.894 22.9461Z" fill="#747474"/>
<path d="M168.151 23.0025C172.977 22.3953 178.236 22.617 182.49 25.229C185.417 26.9832 187.408 30.0128 188.27 33.2802C188.861 35.4424 189.057 37.6978 189.06 39.9339C189.053 44.8559 189.057 49.7779 189.06 54.6999C189.089 56.3287 188.559 58.0444 187.312 59.1496C185.471 60.7945 182.461 60.8331 180.549 59.2909C179.296 58.2725 178.641 56.6307 178.689 55.0308C178.705 50.1024 178.689 45.174 178.699 40.2455C178.708 38.0737 178.789 35.6898 177.468 33.8328C176.389 32.2361 174.432 31.5035 172.565 31.4361C170.721 31.3815 168.707 31.7349 167.325 33.0553C166.04 34.3372 165.594 36.2199 165.6 37.987C165.61 43.5708 165.597 49.1546 165.61 54.7352C165.613 56.0653 165.324 57.4436 164.492 58.5134C162.725 60.8748 158.799 61.0708 156.775 58.9407C155.763 57.9191 155.313 56.454 155.322 55.0404C155.319 51.2911 155.326 47.545 155.322 43.7957C155.358 40.3708 155.091 36.8818 156.016 33.5372C156.788 30.3534 158.632 27.3976 161.35 25.5245C163.374 24.1495 165.745 23.3623 168.151 23.0025Z" fill="#747474"/>
<path d="M201.465 27.0461C204.973 23.9618 209.751 22.6221 214.361 22.7345C218.878 22.741 223.485 23.6662 227.444 25.9056C229.265 26.8951 230.631 28.8131 230.586 30.94C230.586 41.5454 230.582 52.154 230.589 62.7626C230.521 67.5625 228.982 72.6548 225.23 75.8644C221.461 79.1093 216.298 80.0603 211.46 79.996C207.74 79.8386 203.99 78.9005 200.787 76.9631C199.63 76.221 198.538 75.2957 197.867 74.0813C196.639 71.8163 198.066 68.5842 200.591 68.0155C202.448 67.7264 204.189 68.6356 205.86 69.3135C208.128 70.3127 210.602 70.8781 213.089 70.7882C215.209 70.785 217.484 70.2548 219.023 68.7063C220.453 67.2188 220.889 65.0726 220.873 63.0743C220.867 61.2237 220.857 59.3764 220.87 57.5258C217.966 60.08 213.889 60.6936 210.149 60.4526C206.233 60.2117 202.39 58.4639 199.826 55.4568C196.219 51.3219 195.152 45.5678 195.444 40.2282C195.695 35.2965 197.655 30.3006 201.465 27.0461ZM212.286 31.5183C210.715 31.7882 209.185 32.4821 208.077 33.6452C206.05 35.8427 205.59 38.9816 205.593 41.857C205.635 44.4433 205.838 47.2545 207.441 49.4007C208.96 51.3765 211.659 51.8263 214.004 51.6432C216.247 51.5339 218.461 50.3131 219.492 48.2698C221.42 44.6136 220.735 40.3535 220.87 36.3889C220.799 35.2098 221.224 33.6869 220.044 32.9223C217.847 31.303 214.898 31.1295 212.286 31.5183Z" fill="#747474"/>
<path d="M0.524212 25.6754C1.61335 23.5646 4.29923 22.7421 6.51927 23.1951C8.28308 23.5228 9.53928 25.0875 9.97943 26.7549C12.0099 33.6078 14.0468 40.4574 16.0644 47.3167C16.1737 47.7183 16.3632 48.0974 16.5817 48.4508C18.7086 41.4309 20.7712 34.3917 22.8531 27.3557C23.245 25.8489 23.9711 24.265 25.449 23.5582C27.8232 22.4755 31.0906 23.2433 32.4368 25.5629C33.2946 27.1019 33.0761 28.9846 32.4561 30.5653C29.5678 38.6069 26.7341 46.6677 23.8554 54.7125C23.2514 56.2611 22.6731 57.9093 21.4683 59.1109C20.2218 60.2964 18.3969 60.4152 16.7648 60.4281C14.9528 60.4377 12.9352 60.2707 11.5441 58.9663C10.2686 57.7422 9.60033 56.0491 8.99632 54.4266C6.14016 46.3561 3.30648 38.2791 0.437468 30.2183C-0.095854 28.7661 -0.224366 27.0762 0.524212 25.6754Z" fill="#747474"/>
<path d="M140.593 23.4393C142.755 22.5814 145.502 23.2336 146.819 25.2127C147.603 26.3083 147.783 27.6994 147.777 29.0134C147.764 37.5819 147.77 46.1536 147.773 54.7221C147.77 56.155 147.414 57.6522 146.437 58.7413C144.586 60.926 140.802 60.9871 138.874 58.8763C137.949 57.8385 137.477 56.441 137.486 55.0595C137.489 46.1633 137.493 37.2639 137.486 28.3677C137.432 26.3115 138.623 24.1814 140.593 23.4393Z" fill="#747474"/>
<path d="M237.636 3.86984C239.261 3.3558 241.054 3.3558 242.68 3.87627C244.701 4.52525 246.301 6.33405 246.654 8.432C246.876 10.2344 246.795 12.2263 245.69 13.7524C243.538 16.766 238.863 17.1772 235.926 15.1242C232.151 12.313 232.926 5.25134 237.636 3.86984Z" fill="#FBE666"/>
</svg>
