<?xml version="1.0" encoding="utf-8"?>
<!-- Generator: Adobe Illustrator 25.3.1, SVG Export Plug-In . SVG Version: 6.00 Build 0)  -->
<svg version="1.1" id="Layer_1" xmlns="http://www.w3.org/2000/svg" xmlns:xlink="http://www.w3.org/1999/xlink" x="0px" y="0px"
	 viewBox="0 0 315.04 80" style="enable-background:new 0 0 315.04 80;" xml:space="preserve">
<style type="text/css">
	.st0{fill:#ED4138;}
	.st1{fill:#00693A;}
	.st2{fill:#DF1804;}
	.st3{fill:#214078;}
	.st4{fill:#3487C7;}
	.st5{fill:url(#SVGID_1_);}
	.st6{fill:url(#SVGID_2_);}
	.st7{fill:#184A8A;}
	.st8{fill:url(#SVGID_3_);}
	.st9{fill:url(#SVGID_4_);}
	.st10{fill:url(#SVGID_5_);}
	.st11{fill:url(#SVGID_6_);}
	.st12{fill:#9E8266;}
	.st13{fill:#322E26;}
	.st14{fill:#332F27;}
	.st15{fill:#791722;}
	.st16{fill:url(#SVGID_7_);}
	.st17{fill:url(#SVGID_8_);}
	.st18{fill:url(#SVGID_9_);}
	.st19{fill:url(#SVGID_10_);}
	.st20{fill:url(#SVGID_11_);}
	.st21{fill:url(#SVGID_12_);}
	.st22{fill:url(#SVGID_13_);}
	.st23{fill:url(#SVGID_14_);}
	.st24{fill:url(#SVGID_15_);}
	.st25{fill:url(#SVGID_16_);}
	.st26{fill:url(#SVGID_17_);}
	.st27{fill:url(#SVGID_18_);}
	.st28{fill:url(#SVGID_19_);}
	.st29{fill:url(#SVGID_20_);}
	.st30{fill:url(#SVGID_21_);}
	.st31{fill:#222325;}
	.st32{fill:#A0925A;}
	.st33{fill:#061E34;}
	.st34{fill:#028E8F;}
	.st35{fill:#D5192C;}
	.st36{fill:#FAC201;}
	.st37{fill:url(#SVGID_22_);}
	.st38{fill:url(#SVGID_23_);}
	.st39{fill:url(#SVGID_24_);}
	.st40{fill:url(#SVGID_25_);}
	.st41{fill:#9F8A58;}
	.st42{fill:#749ED4;}
	.st43{fill:#045991;}
	.st44{fill:#1F9A8D;}
	.st45{fill:#222D68;}
	.st46{fill:#14152E;}
	.st47{fill:#62B3E4;}
	.st48{fill:#FEFEFE;}
	.st49{fill:none;}
	.st50{fill:#FC0302;}
	.st51{fill:#FE0807;}
	.st52{fill:#98684C;}
	.st53{fill:#86754D;}
	.st54{fill:#42484D;}
	.st55{fill:#41474C;}
	.st56{fill:#43494D;}
	.st57{fill:#DF073D;}
	.st58{fill:#DE023A;}
	.st59{fill:#FFFFFF;}
	.st60{fill:#6F6E6C;}
	.st61{fill:#072F67;}
	.st62{fill:#53A220;}
	.st63{fill:#FDC013;}
	.st64{fill:url(#SVGID_26_);}
	.st65{fill:url(#SVGID_27_);}
	.st66{fill:url(#SVGID_28_);}
	.st67{fill:#793A98;}
	.st68{fill:url(#SVGID_29_);}
	.st69{fill:url(#SVGID_30_);}
	.st70{fill:url(#SVGID_31_);}
	.st71{fill:url(#SVGID_32_);}
	.st72{fill:url(#SVGID_33_);}
</style>
<g>
	<path class="st31" d="M234.86,35.63c-3.67-1.3-7.43-1.17-11.17-1.11c-4.08,0.06-7.82,1.27-10.77,4.1
		c-3.07,2.96-4.49,6.66-3.46,10.98c0.6,2.52,3.81,4.77,6.85,5.18c2.4,0.32,4.78,0.39,7.18,0c0.62-0.1,1.03-0.26,1.18-0.86
		c0.51-1.92,1-3.85,1.56-5.97c-1.26,0-2.28,0-3.29,0c-1.02,0-2.05,0-3.2,0c0.43-1.79,0.83-3.48,1.29-5.39c2.54,0,5.06,0,7.58,0
		c2.53,0,5.07,0,7.7,0c-1.32,5.27-2.61,10.49-3.95,15.7c-0.14,0.53-0.48,0.89-1.22,1.06c-5.12,1.2-10.3,1.88-15.54,1.5
		c-3.98-0.29-7.88-1.24-11.2-3.62c-4.22-3.02-5.86-7.41-4.84-12.3c1.75-8.38,7.64-12.59,15.36-14.85c4.59-1.34,9.34-2.02,14.06-1.47
		c2.31,0.27,4.69,0.31,6.97,0.9c0.99,0.26,1.4,0.74,0.82,1.82C236.09,32.61,235.56,34.02,234.86,35.63z"/>
	<path class="st31" d="M277.44,28.84c-2.42,10.7-5.26,21.17-7.97,31.67c-2.94,0-5.8,0-8.83,0c0.89-4.51,2.22-8.84,3.31-13.39
		c-5.06,0-10,0-15.15,0c-1.4,4.3-2.15,8.93-3.44,13.37c-2.98,0-5.79,0-8.84,0c2.33-10.69,5.37-21.09,7.77-31.56
		c3.05,0,5.88,0,8.92,0c-0.98,4.13-1.92,8.06-2.88,12.06c4.96,0,9.87,0,14.95,0c1.39-3.9,1.99-8.1,3.29-12.16
		C271.5,28.84,274.46,28.84,277.44,28.84z"/>
	<path class="st31" d="M66.32,28.84c8.39,0,16.6,0,24.79,0c-0.44,1.85-0.88,3.67-1.31,5.44c-0.56,0.38-1.12,0.22-1.65,0.22
		c-4.27,0.01-8.55,0.02-12.82,0c-0.97-0.01-1.53,0.1-1.74,1.31c-0.31,1.79-1.07,3.49-1.39,5.49c4.91,0,9.79,0,14.82,0
		c-0.26,2.07-0.8,3.85-1.4,5.7c-4.95,0-9.86,0-14.83,0c-0.45,2.6-1.42,5.01-1.7,7.7c5.58,0,11.02,0,16.56,0
		c-0.56,2-1.09,3.88-1.63,5.8c-8.49,0-16.97,0-25.63,0C61.04,49.94,63.66,39.46,66.32,28.84z"/>
	<path class="st31" d="M9.2,28.87c8.25,0,16.38,0,24.62,0c-0.49,1.83-0.97,3.6-1.44,5.36c-0.4,0.44-0.92,0.27-1.39,0.27
		c-4.11,0.01-8.22,0.05-12.32-0.02c-1.3-0.02-2.08,0.19-2.34,1.65c-0.34,1.89-0.92,3.74-1.46,5.82c4.96,0,9.63,0,14.42,0
		c-0.12,2.07-0.76,3.83-1.42,5.68c-4.29,0-8.55,0.03-12.82-0.02c-1.12-0.01-1.64,0.18-1.92,1.46c-0.84,3.78-1.92,7.51-2.93,11.37
		c-2.95,0-5.89,0-8.9,0C3.93,49.92,6.56,39.42,9.2,28.87z"/>
	<path class="st31" d="M133.7,60.48c-2.97,0-5.93,0-8.92,0c2.66-10.61,5.31-21.15,7.94-31.64c8.28,0,16.32,0,24.5,0
		c-0.47,1.92-0.92,3.75-1.38,5.67c-4.69,0-9.33,0.04-13.97-0.03c-1.23-0.02-1.83,0.28-2.05,1.57c-0.33,1.91-0.88,3.79-1.38,5.88
		c4.81,0,9.43,0,14.08,0c0.38,2.07-0.84,3.68-0.95,5.42c-0.57,0.43-1.13,0.26-1.65,0.26c-3.89,0.01-7.79,0.02-11.68,0
		c-0.88,0-1.38,0.07-1.62,1.21C135.77,52.73,134.7,56.58,133.7,60.48z"/>
	<path class="st31" d="M291.24,34.85c-3.66,0-7.15,0-10.74,0c-0.03-2.17,0.92-4,1.31-6c10.34,0,20.7,0,31.16,0
		c-0.51,1.98-0.99,3.89-1.52,5.94c-3.1,0-6.17,0.09-9.23-0.04c-1.5-0.06-2.19,0.34-2.53,1.85c-1.72,7.49-3.53,14.96-5.53,22.38
		c-0.13,0.5-0.28,1-0.43,1.53c-2.94,0-5.85,0-8.86,0C286.97,52.02,289.07,43.57,291.24,34.85z"/>
	<path class="st31" d="M163.44,54.43c5.37,0,10.66,0,16,0c-0.46,2.05-0.91,4.03-1.37,6.05c-8.43,0-16.78,0-25.11,0
		c2.37-9.5,4.72-18.94,7.06-28.38c0.82-3.31,0.81-3.32,4.3-3.32c1.78,0,3.55,0,5.56,0C167.73,37.37,165.61,45.82,163.44,54.43z"/>
	<path class="st31" d="M37.94,28.86c3.05,0,5.9,0,8.85,0c-2.12,8.51-4.22,16.92-6.36,25.53c5.44,0,10.7,0,16.14,0
		c-0.91,2.1-0.83,4.27-1.77,6.13c-8.35,0-16.56,0-24.92,0C32.73,49.94,35.01,39.29,37.94,28.86z"/>
	<path class="st31" d="M182.05,60.41c2.67-10.53,5.32-20.98,8-31.51c3,0,5.95,0,8.96,0c-2.62,10.48-5.24,20.93-7.89,31.51
		C188.15,60.41,185.21,60.41,182.05,60.41z"/>
	<path class="st32" d="M165.4,9.01c-0.19-0.98-0.36-1.84-0.52-2.69c1.06-0.5,1.5,0.08,1.84,0.81c0.64,1.41,1.69,1.82,3.23,1.73
		c2.42-0.14,4.86-0.04,7.36-0.04c-0.03-2.81-0.49-5.52-0.74-8.22c0.66-0.5,1.31-0.25,1.98-0.26c1.54,2.88,3.07,5.75,4.69,8.78
		c2.04,0,4.14,0.06,6.24-0.02c2.15-0.07,4.14,0.25,5.84,1.69c-0.27,1.07-1.19,1.31-1.96,1.54c-1.49,0.45-3.03,0.69-4.6,0.67
		c-1.78-0.02-3.57,0-5.46,0c-1.57,2.95-3.32,5.81-4.63,8.85c-0.67,0.26-1.25,0.1-2.09,0.12c0.29-2.97,0.57-5.86,0.87-8.96
		c-2.94,0-5.89-0.04-8.84,0.02c-1.12,0.02-1.14,1.17-1.49,1.89c-0.45,0.91-0.89,1.61-2.14,1.05c0.17-1.01,0.34-2.04,0.52-3.08
		c-0.84-0.42-1.9-0.45-2.01-1.78C163.37,9.65,164.59,9.59,165.4,9.01z"/>
	<path class="st31" d="M112.52,45.6c-1.49-2.42-3.03-4.56-4.2-7.09c2.11-1.94,3.87-4.16,5.72-6.29c0.46-0.52,0.94-1.02,1.37-1.57
		c0.93-1.2,1.98-2.06,3.78-1.92c2.6,0.21,5.24,0.05,8.21,0.05C122.31,34.53,117.47,40.01,112.52,45.6z"/>
	<path class="st31" d="M106.04,52.87c-2.33,2.64-4.49,5.08-6.72,7.61c-3.22,0-6.57,0-10.24,0c4.08-4.65,8.03-9.14,11.98-13.64
		C102.74,48.88,104.36,50.85,106.04,52.87z"/>
	<path class="st31" d="M162.58,8.82c-0.01-0.03-0.17-0.01-0.26-0.02c-7.77,0.26-15.54-0.27-23.31,0.32
		c-3.11,0.24-6.23-0.05-9.36,0.25c-2.86,0.27-5.75,0.36-8.62,0.64c-3.96,0.39-7.88,0.92-11.71,1.96c-4.4,1.19-8.74,2.49-12.19,5.78
		c-2.52,2.41-3.6,5.39-3.57,8.67c0.03,2.91,1.03,5.71,2.19,8.39c2.89,6.68,7.33,12.32,12.18,17.64c4.16,4.56,8.84,8.59,13.69,12.41
		c6.29,4.96,12.97,9.36,19.83,13.5c0.9,0.54,1.72,1.36,2.9,1.4c0.03-0.44-0.22-0.58-0.44-0.71c-4.39-2.71-8.39-5.94-12.29-9.28
		c-4-3.43-7.8-7.09-11.18-11.14c-1.19-1.42-2.43-2.81-3.55-4.3c-3.11-4.11-6.07-8.3-8.56-12.83c-2.25-4.09-4.5-8.17-5.58-12.74
		c-0.82-3.48,0.38-6.48,2.97-8.81c2.13-1.91,4.85-2.91,7.53-3.71c6.38-1.9,13-2.65,19.61-2.84c5.92-0.17,11.85-0.57,17.78-0.4
		c3.3,0.1,6.6,0.03,9.9,0.01c0.52,0,1.07,0.16,1.64-0.23c-0.81-1.27-1.07-2.56,0.17-3.74C162.51,9.04,162.65,9.01,162.58,8.82z"/>
</g>
</svg>
