<?xml version="1.0" encoding="utf-8"?>
<!-- Generator: Adobe Illustrator 25.4.1, SVG Export Plug-In . SVG Version: 6.00 Build 0)  -->
<svg version="1.1" id="Layer_4" xmlns="http://www.w3.org/2000/svg" xmlns:xlink="http://www.w3.org/1999/xlink" x="0px" y="0px"
	 viewBox="0 0 289.77 80.27" style="enable-background:new 0 0 289.77 80.27;" xml:space="preserve">
<style type="text/css">
	.st0{fill:#949599;}
	.st1{fill:#0D3F84;}
</style>
<path class="st0" d="M184.82,78.85c0,0-0.3-4.79,2.69-10.73c0,0,9.28-11.33-14.37-30.79c0,0-13.72-10.75-15.12-17.62l10.45,8.86
	l-0.25-1.5c0,0-11.73-10.86-11.73-11.35l-0.12-3l11.35,11.6c0,0-0.67-2.1-1.75-3.17L155.62,9.48l0.3-3.25l10.93,13.48l-0.12-1.37
	c0,0-9.01-11.25-10.8-15.45l0.7-2.89c0,0,13.48,27.8,37.31,33.31c0,0,9.73,2.77,13.85,3.57c0,0,7.86,2.1,3.37,8.83L184.82,78.85z"/>
<path class="st1" d="M54.8,79.25L40.72,22.06H30.54L0,79.55h9.58l7.56-16.17l17.97-0.37l3.82,16.24H54.8z M35.18,57.54H20.06
	L30.24,38.3L35.18,57.54z M63.48,79.29l5.5-41.06h12.91l-0.75,8.23c0,0,5.09-9.58,12.13-8.83L91.33,51.1c0,0-8.7-4.09-11.31,5.29
	l-2.8,22.89L63.48,79.29z M110.33,79.29H97.6l5.69-40.01h12.58L110.33,79.29z M122.86,79.29l7.19-53.49l12.43-0.15l-4.34,30.09h2.55
	l15.57-17.07l11.52,0.15l-16.02,16.92l11.53,23.73l-16.21-0.19l-6.7-18h-3.15l-2.4,17.82L122.86,79.29z"/>
<path class="st0" d="M186.26,80l29.92-35.31c0,0,2.72-4.65,11.19-4.86c8.47-0.21,24.94-2.99,28.86-4.07
	c3.92-1.08,29.35-8.95,33.55-13.67c0,0-5.61,5.44-7.96,6.37c0,0-15.64,6.71-19.84,7.67l-1.53,1.56c0,0,16.4-4.91,16.98-5.63
	l-4.25,3.18c0,0-12.25,3.7-15.17,4.36l-2.04,1.92c0,0,12.67-3.48,13.4-3.83c0,0-3.01,2.35-3.59,2.79c0,0-11.06,2.77-11.84,3.08
	l-1.68,1.44l11.26-2.88c0,0-17.46,10.78-24.08,12.1c0,0-15.04,4.36-22.34,5.27c-7.29,0.91-10.03,5.39-12.84,7.67
	C201.48,69.43,192.27,78.89,186.26,80"/>
</svg>
