<?xml version="1.0" encoding="utf-8"?>
<!-- Generator: Adobe Illustrator 25.4.1, SVG Export Plug-In . SVG Version: 6.00 Build 0)  -->
<svg version="1.1" id="Layer_1" xmlns="http://www.w3.org/2000/svg" xmlns:xlink="http://www.w3.org/1999/xlink" x="0px" y="0px"
	 viewBox="0 0 143.8 80" style="enable-background:new 0 0 143.8 80;" xml:space="preserve">
<style type="text/css">
	.st0{fill:#5D5D5D;}
</style>
<g>
	<path class="st0" d="M100.1,60.3c11.8-3.2,23-2.5,32.2,2.6c0,0-2.9-10.8-6.6-14c0,0-5.1,2.5-14.1,0.9c0,0,16.5-7.9,24.2-19.4
		c7.7-11.5,8.2-22.4,8-24.3c-0.1-1.9-1.7-3.2-3.8-1.7c-2,1.5-10.3,7.3-10.3,7.3s4.2-0.4,2.6,1.6c-1.6,2-16.9,7.7-18.2,8.9
		c0,0,4.8,0,4.2,1.2c-0.6,1.2-7.4,2.6-8.6,3.2c-1.2,0.6-6,5.1-8.3,6.8C99.1,35.2,79.9,44.9,75.4,47c-4.5,2-14.7,7.4-17.3,10.3
		s-12.8,9-24.2,11.6c-11.4,2.6-29.6,1.3-31.2,1.3s-3.6-0.1-2.3,0.6c0,0,14.9,9.2,41.3,9.2S88.3,63.5,100.1,60.3z"/>
	<path class="st0" d="M44.9,9.4c-0.7,1.5-3.1,3.2-3.1,3.2s1.3,4.4,1.6,5.4c0,0,4.2-2.1,5.2-1.1c1,1-3.9,5.6-3.9,5.6s1.5,3.9,2,4.1
		c0.4,0.2,4.1-2.2,5.7-0.7c1.6,1.5-3.1,4.7-3.1,4.7s2.4,3.5,2.7,3.8c0.3,0.3,4.9-2.9,6.8-1.4c1.9,1.5-3.5,4.4-3.5,4.4l1.5,1.6
		c0,0,5.5-2.6,6.7-1.3c1.3,1.4-3,4.3-3,4.3l5.2,4.3c0,0,20.1-4.7,28.4-14.6c0,0-42.4-27.8-46.7-29.8s-5.2-2.3-5.7-1
		s-0.6,7.6-0.6,7.6S45.7,7.9,44.9,9.4z"/>
</g>
</svg>
