<?xml version="1.0" encoding="utf-8"?>
<!-- Generator: Adobe Illustrator 25.4.1, SVG Export Plug-In . SVG Version: 6.00 Build 0)  -->
<svg version="1.1" id="Layer_1" xmlns="http://www.w3.org/2000/svg" xmlns:xlink="http://www.w3.org/1999/xlink" x="0px" y="0px"
	 viewBox="0 0 132.7 80" style="enable-background:new 0 0 132.7 80;" xml:space="preserve">
<style type="text/css">
	.st0{fill:#5D5D5D;}
</style>
<g>
	<path class="st0" d="M77.7,24.5c4.8-1.3,9.4-1,13.1,1.1c0,0-1.2-4.4-2.7-5.7c0,0-2.1,1-5.7,0.4c0,0,6.7-3.2,9.8-7.9
		c3.1-4.7,3.3-9.1,3.3-9.9c-0.1-0.8-0.7-1.3-1.5-0.7c-0.8,0.6-4.2,3-4.2,3s1.7-0.2,1.1,0.7c-0.7,0.8-6.9,3.1-7.4,3.6
		c0,0,2,0,1.7,0.5c-0.2,0.5-3,1.1-3.5,1.3s-2.4,2.1-3.4,2.8c-0.9,0.7-8.8,4.7-10.6,5.5c-1.8,0.8-6,3-7,4.2S55.3,27,50.7,28
		c-4.6,1.1-12,0.5-12.7,0.5c-0.7,0-1.5,0-0.9,0.2c0,0,6,3.7,16.8,3.7S72.9,25.8,77.7,24.5z"/>
	<path class="st0" d="M55.2,3.8C54.9,4.4,54,5.1,54,5.1s0.5,1.8,0.7,2.2c0,0,1.7-0.9,2.1-0.5c0.4,0.4-1.6,2.3-1.6,2.3
		s0.6,1.6,0.8,1.7c0.2,0.1,1.7-0.9,2.3-0.3c0.7,0.6-1.2,1.9-1.2,1.9s1,1.4,1.1,1.6c0.1,0.1,2-1.2,2.8-0.6c0.8,0.6-1.4,1.8-1.4,1.8
		l0.6,0.6c0,0,2.2-1.1,2.7-0.5c0.5,0.6-1.2,1.7-1.2,1.7l2.1,1.8c0,0,8.2-1.9,11.5-5.9c0,0-17.2-11.3-19-12.1
		c-1.8-0.8-2.1-0.9-2.3-0.4s-0.2,3.1-0.2,3.1S55.5,3.2,55.2,3.8z"/>
	<path class="st0" d="M12.4,61.6c0,1.2-1.2,5-5.5,5s-4.9-5-4.9-5V50.5H0v11.1c0,0,0,6.7,6.8,6.7s7.6-6.7,7.6-6.7V50.5h-2V61.6z"/>
	<polygon class="st0" points="27.4,50.5 25.4,50.5 25.4,66.3 25.4,68.3 27.4,68.3 36.6,68.3 36.6,66.3 27.4,66.3 	"/>
	<polygon class="st0" points="57.4,66.3 48.6,66.3 48.6,59.9 56.3,59.9 56.3,57.9 48.6,57.9 48.6,52.5 57.4,52.5 57.4,50.5 
		48.6,50.5 46.6,50.5 46.6,52.5 46.6,57.9 46.6,59.9 46.6,66.3 46.6,68.3 48.6,68.3 57.4,68.3 	"/>
	<rect x="50.4" y="74.3" class="st0" width="0.8" height="5.7"/>
	<path class="st0" d="M43.9,74.3h-0.8h0L41,80h0.8l0.6-1.6h2.2l0.6,1.6h0.8L43.9,74.3L43.9,74.3z M42.6,77.8l0.9-2.4l0.9,2.4H42.6z"
		/>
	<polygon class="st0" points="66.2,74.3 65.4,74.3 65.4,80 66.2,80 68.9,80 68.9,79.4 66.2,79.4 	"/>
	<rect x="73.5" y="74.3" class="st0" width="0.8" height="5.7"/>
	<polygon class="st0" points="82.9,78.8 80,74.3 79.2,74.3 79.2,80 80,80 80,75.6 82.9,80 83.7,80 83.7,74.3 82.9,74.3 	"/>
	<polygon class="st0" points="79.5,68.3 81.5,68.3 81.5,50.5 79.5,50.5 79.5,65.1 70.2,50.5 68.2,50.5 68.2,68.3 70.2,68.3 
		70.2,53.6 	"/>
	<path class="st0" d="M124.6,50.5c-4.5,0-8.1,4-8.1,8.9s3.6,8.9,8.1,8.9c4.5,0,8.1-4,8.1-8.9S129.1,50.5,124.6,50.5z M124.6,66.6
		c-3.6,0-6.6-3.2-6.6-7.2c0-4,3-7.2,6.6-7.2c3.6,0,6.6,3.2,6.6,7.2C131.2,63.4,128.2,66.6,124.6,66.6z"/>
	<path class="st0" d="M98.1,50.5h-5.1v0h-0.6v17.9h2v0h3.7c6.9,0,8-4.8,8.3-5.8c0.3-1,0.7-7.3-1.5-9.6
		C102.6,50.5,98.1,50.5,98.1,50.5z M104.5,61.9c-0.9,4.4-6.5,4.4-6.5,4.4h-3.7V52.5h3.7c2.1,0,4,0.8,4.9,1.8
		C103.9,55.3,105.5,57.5,104.5,61.9z"/>
	<polygon class="st0" points="92.9,74.3 92,74.3 89.2,77.2 89.2,74.3 88.4,74.3 88.4,80 89.2,80 89.2,78 90.1,77.2 92.1,80 93,80 
		90.6,76.7 	"/>
	<path class="st0" d="M60.7,76.1c0-1.2-0.9-1.7-1.6-1.7h-2.2h-0.5h-0.3V80h0.8v-2.5h1.4l1.9,2.5h0.9l-1.9-2.5
		C59.5,77.4,60.7,77.1,60.7,76.1z M56.9,77V75h2.2c0,0,0.9-0.1,0.9,0.9c0,1-1,1-1,1H56.9z"/>
</g>
</svg>
