<?xml version="1.0" encoding="utf-8"?>
<!-- Generator: Adobe Illustrator 25.4.1, SVG Export Plug-In . SVG Version: 6.00 Build 0)  -->
<svg version="1.1" xmlns="http://www.w3.org/2000/svg" xmlns:xlink="http://www.w3.org/1999/xlink" x="0px" y="0px"
	 viewBox="0 0 127.03 80" style="enable-background:new 0 0 127.03 80;" xml:space="preserve">
<style type="text/css">
	.st0{fill-rule:evenodd;clip-rule:evenodd;fill:#00A693;}
</style>
<g id="Layer_2">
</g>
<g id="Layer_1">
	<g>
		<path class="st0" d="M14.29,28.42C10.47,32.84,2.68,41.66,0.84,51.78C-1.04,61.9,0,70.83,6.3,75.79
			c10.37,8.13,20.88,2.98,25.69-2.83L51.29,49.7c8.13-9.82,13.69-15.48,27.78-20.04c15.08-4.86,33.58-5.11,42.51-16.42
			c3.32-3.42,5.16-7.79,5.46-13.24c-12.2,5.46-43.6-2.13-66.32,28.92L30.65,69.94c-5.95,8.13-18.3,7.89-23.81,1.88
			c-4.91-5.36-3.22-12.8,0.4-19.29c3.08-5.56,7.14-9.47,13.04-13.39c5.16-3.42,10.71-7.09,13.04-12.3
			c1.34-3.03,1.14-12.25-1.29-12.75c-2.43-0.5-11.61,0.3-14.38,2.08c-2.53,1.59-2.23,4.02-2.23,6.8
			C15.43,24.65,15.48,27.08,14.29,28.42L14.29,28.42z"/>
		<path class="st0" d="M33.33,76.48l19.1-23.81c6.25-7.79,13.69-15.48,27.78-20.04c5.31-1.74,11.01-2.88,16.62-4.12l7.59-1.19
			c-2.03,11.16-9.57,17.36-22.67,19.1c-10.81,1.44-20.73,5.26-29.46,11.9c-6.99,5.31-12.65,12.75-18.5,19.74
			C31.89,80.25,31.4,78.91,33.33,76.48L33.33,76.48z"/>
		<path class="st0" d="M48.56,65.97c-5.26,6.8-1.74,16.07,8.04,12.95c4.86-1.54,6.3-5.56,8.28-9.92c2.18-4.86,8.38-7.04,14.68-3.03
			c-1.64-6.25-7.74-8.48-12.2-8.53C59.32,57.29,52.73,60.56,48.56,65.97z"/>
	</g>
</g>
</svg>
