<?xml version="1.0" encoding="utf-8"?>
<!-- Generator: Adobe Illustrator 25.4.1, SVG Export Plug-In . SVG Version: 6.00 Build 0)  -->
<svg version="1.1" xmlns="http://www.w3.org/2000/svg" xmlns:xlink="http://www.w3.org/1999/xlink" x="0px" y="0px"
	 viewBox="0 0 281.2 80" style="enable-background:new 0 0 281.2 80;" xml:space="preserve">
<style type="text/css">
	.st0{fill-rule:evenodd;clip-rule:evenodd;fill:#00A693;}
	.st1{fill:#00A693;}
</style>
<g id="Layer_2">
</g>
<g id="Layer_1">
	<g id="Layer_x0020_1">
		<g id="_2228100193104">
			<g>
				<path class="st0" d="M14.29,28.42C10.47,32.84,2.68,41.66,0.84,51.78C-1.04,61.9,0,70.83,6.3,75.79
					c10.37,8.13,20.88,2.98,25.69-2.83L51.29,49.7c8.13-9.82,13.69-15.48,27.78-20.04c15.08-4.86,33.58-5.11,42.51-16.42
					c3.32-3.42,5.16-7.79,5.46-13.24c-12.2,5.46-43.6-2.13-66.32,28.92L30.65,69.94c-5.95,8.13-18.3,7.89-23.81,1.88
					c-4.91-5.36-3.22-12.8,0.4-19.29c3.08-5.56,7.14-9.47,13.04-13.39c5.16-3.42,10.71-7.09,13.04-12.3
					c1.34-3.03,1.14-12.25-1.29-12.75c-2.43-0.5-11.61,0.3-14.38,2.08c-2.53,1.59-2.23,4.02-2.23,6.8
					C15.43,24.65,15.48,27.08,14.29,28.42L14.29,28.42z"/>
				<path class="st0" d="M33.33,76.48l19.1-23.81c6.25-7.79,13.69-15.48,27.78-20.04c5.31-1.74,11.01-2.88,16.62-4.12l7.59-1.19
					c-2.03,11.16-9.57,17.36-22.67,19.1c-10.81,1.44-20.73,5.26-29.46,11.9c-6.99,5.31-12.65,12.75-18.5,19.74
					C31.89,80.25,31.4,78.91,33.33,76.48L33.33,76.48z"/>
				<path class="st0" d="M48.56,65.97c-5.26,6.8-1.74,16.07,8.04,12.95c4.86-1.54,6.3-5.56,8.28-9.92
					c2.18-4.86,8.38-7.04,14.68-3.03c-1.64-6.25-7.74-8.48-12.2-8.53C59.32,57.29,52.73,60.56,48.56,65.97z"/>
			</g>
			<path class="st1" d="M115.72,57.39h8.63l1.24,13.54L131,57.39h8.63l-3.42,22.22h-5.36l2.63-16.96l-6.75,16.96h-4.86l-1.54-16.96
				l-2.63,16.96h-5.36L115.72,57.39L115.72,57.39z M147.07,68.7l-5.56-0.64c0.35-1.04,0.79-1.84,1.29-2.43
				c0.5-0.6,1.14-1.09,1.98-1.54c0.6-0.3,1.39-0.55,2.33-0.74c0.99-0.15,2.03-0.25,3.12-0.25c1.79,0,3.17,0.1,4.22,0.3
				s1.88,0.64,2.48,1.29c0.45,0.45,0.74,1.09,0.89,1.93c0.15,0.84,0.2,1.64,0.05,2.38l-1.09,7.09c-0.1,0.74-0.15,1.34-0.15,1.79
				c0.05,0.45,0.15,0.99,0.35,1.64h-5.56c-0.15-0.4-0.25-0.74-0.3-0.94c-0.05-0.2-0.05-0.55-0.05-1.04
				c-0.89,0.79-1.74,1.34-2.58,1.69c-1.09,0.45-2.38,0.64-3.72,0.64c-1.84,0-3.17-0.45-3.97-1.34s-1.14-1.98-0.94-3.27
				c0.2-1.24,0.69-2.23,1.49-3.03s2.18-1.39,4.07-1.74c2.28-0.45,3.77-0.79,4.46-0.99c0.69-0.2,1.44-0.45,2.18-0.74
				c0.1-0.74,0.05-1.29-0.2-1.59s-0.74-0.45-1.54-0.45c-0.94,0-1.74,0.15-2.23,0.5C147.81,67.56,147.41,68,147.07,68.7L147.07,68.7z
				 M151.68,71.97c-0.84,0.3-1.74,0.6-2.68,0.79c-1.24,0.35-2.08,0.64-2.43,0.99c-0.4,0.35-0.6,0.69-0.69,1.14
				c-0.1,0.5,0.05,0.89,0.3,1.19c0.3,0.3,0.74,0.45,1.34,0.45c0.64,0,1.29-0.15,1.93-0.5c0.6-0.35,1.09-0.74,1.39-1.24
				c0.3-0.5,0.55-1.09,0.64-1.88L151.68,71.97L151.68,71.97z M163.24,57.39h5.9l-1.24,8.18c0.94-0.89,1.84-1.49,2.68-1.88
				c0.84-0.4,1.84-0.55,2.93-0.55c1.59,0,2.78,0.5,3.57,1.54c0.74,1.04,0.99,2.58,0.64,4.71l-1.59,10.22h-5.95l1.34-8.88
				c0.15-0.99,0.1-1.74-0.2-2.13c-0.3-0.45-0.74-0.64-1.39-0.64c-0.69,0-1.34,0.3-1.88,0.84c-0.55,0.55-0.89,1.59-1.14,3.03
				l-1.19,7.74h-5.9L163.24,57.39L163.24,57.39z M186.7,68.7l-5.56-0.64c0.4-1.04,0.79-1.84,1.29-2.43c0.5-0.6,1.14-1.09,1.98-1.54
				c0.6-0.3,1.39-0.55,2.33-0.74c0.99-0.15,1.98-0.25,3.12-0.25c1.79,0,3.17,0.1,4.22,0.3s1.88,0.64,2.48,1.29
				c0.45,0.45,0.74,1.09,0.89,1.93c0.15,0.84,0.2,1.64,0.05,2.38l-1.09,7.09c-0.1,0.74-0.15,1.34-0.15,1.79
				c0.05,0.45,0.15,0.99,0.35,1.64h-5.56c-0.15-0.4-0.25-0.74-0.3-0.94c-0.05-0.2-0.05-0.55-0.05-1.04
				c-0.89,0.79-1.74,1.34-2.58,1.69c-1.09,0.45-2.38,0.64-3.72,0.64c-1.84,0-3.17-0.45-3.97-1.34s-1.14-1.98-0.94-3.27
				c0.2-1.24,0.69-2.23,1.49-3.03s2.18-1.39,4.07-1.74c2.28-0.45,3.77-0.79,4.46-0.99c0.69-0.2,1.44-0.45,2.18-0.74
				c0.1-0.74,0.05-1.29-0.2-1.59s-0.74-0.45-1.54-0.45c-0.94,0-1.74,0.15-2.23,0.5C187.39,67.56,187.04,68,186.7,68.7L186.7,68.7z
				 M191.31,71.97c-0.84,0.3-1.74,0.6-2.68,0.79c-1.24,0.35-2.08,0.64-2.43,0.99c-0.4,0.35-0.6,0.69-0.69,1.14
				c-0.1,0.5,0.05,0.89,0.3,1.19c0.3,0.3,0.74,0.45,1.34,0.45c0.64,0,1.29-0.15,1.93-0.5c0.6-0.35,1.09-0.74,1.39-1.24
				c0.3-0.5,0.55-1.09,0.64-1.88L191.31,71.97L191.31,71.97z M201.92,63.49h5.51l-0.4,2.63c0.99-1.09,1.93-1.84,2.83-2.28
				c0.89-0.45,1.98-0.69,3.17-0.69c1.64,0,2.83,0.5,3.62,1.54c0.74,0.99,0.99,2.58,0.64,4.71l-1.59,10.22h-5.95l1.34-8.88
				c0.15-0.99,0.1-1.74-0.2-2.13c-0.3-0.45-0.74-0.64-1.39-0.64c-0.69,0-1.34,0.3-1.88,0.84c-0.55,0.55-0.89,1.59-1.14,3.03
				l-1.19,7.74h-5.9L201.92,63.49L201.92,63.49z M243.19,75.94h-7.49l-1.59,3.67h-6.7l11.41-22.22h7.14l4.56,22.22h-6.89
				L243.19,75.94L243.19,75.94z M242.55,71.13l-1.14-7.99l-3.57,7.99H242.55z M255.89,57.39h5.9l-0.64,4.22h-5.9L255.89,57.39
				L255.89,57.39z M254.95,63.49h5.9l-2.48,16.12h-5.9L254.95,63.49z M264.67,63.49h5.51l-0.4,2.63c0.69-1.14,1.39-1.93,1.98-2.33
				c0.64-0.45,1.34-0.64,2.18-0.64c0.89,0,1.79,0.3,2.73,0.84l-2.48,4.41c-0.64-0.3-1.19-0.45-1.59-0.45
				c-0.79,0-1.44,0.35-1.93,0.99c-0.74,0.94-1.34,2.68-1.74,5.26l-0.84,5.41h-5.95L264.67,63.49L264.67,63.49z"/>
			<g>
				<path class="st1" d="M269.48,32.89c0.5-0.35,0.94-0.69,1.44-1.04c0.64-0.74,1.39-1.74,2.23-3.03c0.1-0.2,0.64-1.19,1.59-3.08
					c0.4-0.74,0.84-1.14,1.44-1.14c0.25,0,0.64,0.1,1.09,0.3c0.45,0.2,0.79,0.3,1.09,0.3c0.79,0,1.49-0.4,2.03-1.14
					c0.55-0.74,0.84-1.59,0.84-2.58c0-0.3-0.15-0.69-0.5-1.09c-0.3-0.45-0.6-0.64-0.74-0.64s-0.35,0.2-0.55,0.55
					c-0.4,0.74-0.64,1.19-0.74,1.24c-0.2-0.25-0.4-0.5-0.69-0.64c-0.4-0.25-0.79-0.4-1.14-0.4c-0.5,0-0.99,0.25-1.49,0.74
					c-0.3,0.3-0.55,0.64-0.79,1.09c-0.25,0.4-0.5,0.99-0.84,1.79c-0.35,0.79-0.55,1.34-0.69,1.64c-0.25,0.55-0.5,0.89-0.74,1.14
					c-0.1,0.1-0.35,0.3-0.79,0.69c-0.74,0.6-1.24,1.14-1.49,1.64c-0.25,0.5-0.35,0.99-0.35,1.54L269.48,32.89L269.48,32.89z"/>
				<path class="st0" d="M276.72,35.07c-0.35,0.55-0.64,1.14-0.94,1.74c-0.94,1.64-0.74,2.53-0.64,3.03c0,0.05,0.15,0.74,0.64,0.1
					c0.69-0.84,1.88,0.1,1.98,0.6c0.5,2.08-1.69,3.67-3.62,2.43c-0.35-0.25-0.64-0.74-0.79-1.09c-0.3-0.79-0.05-2.53,0.94-4.22
					C275.23,35.91,276.13,35.17,276.72,35.07L276.72,35.07z"/>
				<path class="st1" d="M270.72,32.49c-0.1,0.3-0.2,0.55-0.3,0.74c-0.1,0.2-0.3,0.55-0.55,0.99c-0.3,0.45-0.6,0.94-0.94,1.44
					c-0.64,0.99-1.14,1.59-1.49,1.79c-0.35,0.2-0.84,0.45-1.49,0.64c-0.3,0.1-0.94,0.35-1.98,0.69l-3.08,0.79
					c-0.25,0.05-0.5,0.1-0.74,0.1c-0.3,0.05-0.45,0-0.5-0.05c-0.05-0.1,0.15-0.25,0.55-0.5c0.4-0.25,0.64-0.4,0.74-0.45
					c0.1-0.05,0.79-0.5,2.13-1.29c0.84-0.5,1.54-0.99,2.18-1.44c1.29-0.94,2.18-1.69,2.73-2.28c0.69-0.74,1.04-1.34,1.04-1.84
					c-0.2,0.1-0.4,0.15-0.64,0.15c-0.25,0.05-0.55,0.05-0.89,0.05c-0.69-0.1-1.24-0.3-1.64-0.55c-0.6-0.4-0.89-0.89-0.89-1.49
					c0-0.45,0.4-1.59,1.24-3.37c0.25-0.55,0.55-1.09,0.99-1.59c0.55-0.69,1.09-1.09,1.54-1.09c0.74,0,1.39,0.25,1.93,0.79
					c0.69,0.74,1.04,1.44,1.04,2.23c0.05,0.25,0.05,0.69,0.05,1.24c0,0.4,0,0.79-0.05,1.14c0,0.35-0.1,0.69-0.15,1.04
					c-0.1,0.35-0.2,0.64-0.3,0.94C271.02,31.79,270.87,32.14,270.72,32.49L270.72,32.49z"/>
			</g>
			<path class="st1" d="M260.21,12.8c0.1-0.25,0.2-0.55,0.4-0.94c0.05-0.1,0.1-0.2,0.25-0.4c0.15,0.15,0.2,0.3,0.25,0.45v1.93
				l0.1,3.17l0.1,5.11c0,1.14-0.05,2.08-0.15,2.88c-0.1,0.74-0.25,1.59-0.5,2.43l-0.89,2.88c-0.4,1.04-0.74,1.79-0.94,2.13
				c-0.2,0.35-0.4,0.55-0.6,0.6l-0.25-0.35c0.15-1.04,0.3-2.08,0.4-3.08c0.1-0.99,0.2-1.79,0.25-2.28c0.1-1.79,0.15-3.32,0.1-4.71
				c-0.05-1.34-0.1-2.58-0.15-3.62l0.35-1.84L260.21,12.8L260.21,12.8z"/>
			<path class="st1" d="M251.43,16.32c0.2,0.05,0.45,0.1,0.69,0.25c0.3,0.1,0.45,0.15,0.55,0.15c0.35,0,0.64-0.1,0.89-0.35
				c0.25-0.25,0.55-0.6,0.84-1.09s0.55-0.74,0.69-0.69c0.25,0.1,0.3,0.45,0.05,1.14c-0.25,0.55-0.4,0.89-0.45,1.09
				c-0.25,0.5-0.5,0.89-0.74,1.24c-0.99,1.29-1.84,1.93-2.48,1.93C251.43,19.99,251.43,16.32,251.43,16.32z"/>
			<path class="st1" d="M250.38,47.27c0,0.5-0.05,0.84-0.15,1.09c-0.1,0.25-0.25,0.55-0.55,0.94c-0.79,1.04-1.39,1.59-1.88,1.59
				c-0.1,0-0.3-0.15-0.6-0.45c-0.3-0.3-0.55-0.55-0.79-0.84c-0.79-0.69-1.24-1.14-1.24-1.29c0-0.15,0.2-0.55,0.6-1.29
				c0.3-0.5,0.55-0.89,0.64-1.14c0.35-0.6,0.55-0.99,0.64-1.19c0.35-0.5,0.55-0.74,0.64-0.74c0.05,0,0.2,0.05,0.4,0.2
				c0.2,0.15,0.4,0.3,0.64,0.55c0.64,0.6,1.04,1.09,1.24,1.44C250.29,46.53,250.38,46.87,250.38,47.27L250.38,47.27z M248,40.87
				c0,0.5-0.05,0.84-0.15,1.04c-0.1,0.25-0.25,0.55-0.55,0.94c-0.79,1.04-1.39,1.59-1.88,1.59c-0.1,0-0.3-0.15-0.6-0.45
				c-0.3-0.3-0.55-0.55-0.79-0.84c-0.79-0.69-1.24-1.14-1.24-1.29c0-0.15,0.2-0.55,0.6-1.29c0.3-0.5,0.55-0.89,0.64-1.14
				c0.35-0.6,0.55-0.99,0.64-1.19c0.35-0.5,0.55-0.74,0.64-0.74c0.05,0,0.2,0.05,0.4,0.2c0.2,0.15,0.4,0.3,0.64,0.55
				c0.64,0.6,1.04,1.09,1.24,1.44C247.95,40.13,248,40.52,248,40.87L248,40.87z M253.06,40.87c0,0.5-0.05,0.84-0.15,1.04
				c-0.1,0.25-0.25,0.55-0.55,0.94c-0.79,1.04-1.39,1.59-1.88,1.59c-0.1,0-0.3-0.15-0.6-0.45c-0.3-0.3-0.55-0.55-0.79-0.84
				c-0.79-0.69-1.24-1.14-1.24-1.29c0-0.15,0.2-0.55,0.6-1.29c0.3-0.5,0.55-0.89,0.64-1.14c0.35-0.6,0.55-0.99,0.64-1.19
				c0.35-0.5,0.55-0.74,0.64-0.74c0.05,0,0.2,0.05,0.4,0.2c0.2,0.15,0.4,0.3,0.64,0.55c0.64,0.6,1.04,1.09,1.24,1.44
				C252.96,40.13,253.06,40.52,253.06,40.87L253.06,40.87z"/>
			<path class="st1" d="M251.53,19.89c-0.3,0-0.6-0.1-0.89-0.3c-0.3-0.2-0.55-0.3-0.84-0.35c-0.45-0.1-0.94,0.1-1.49,0.5
				s-0.79,0.79-0.79,1.19l-2.33,1.24c0.1-0.4,0.3-0.84,0.55-1.34c0.15-0.3,0.35-0.69,0.64-1.14c0.64-0.99,1.39-1.84,2.23-2.48
				c0.84-0.69,1.64-1.04,2.28-1.04l0.55,0.05c0.1,0.25,0.15,0.55,0.2,0.89c0.05,0.35,0.1,0.64,0.1,0.84c0,0.4-0.05,0.79-0.1,1.14
				C251.67,19.44,251.57,19.74,251.53,19.89L251.53,19.89z"/>
			<path class="st1" d="M235.7,44.74c0.05,0.35,0.05,0.69-0.1,1.09c-0.1,0.4-0.3,0.79-0.55,1.29c-0.25,0.5-0.6,0.94-1.04,1.34
				c-0.25,0.25-0.5,0.4-0.64,0.4c-0.1,0-0.35-0.15-0.69-0.45c-0.35-0.3-0.64-0.55-0.94-0.79c-0.3-0.2-0.55-0.4-0.74-0.64
				c-0.2-0.2-0.3-0.35-0.3-0.5c0.2-0.45,0.35-0.74,0.45-0.99c0.35-0.74,0.6-1.24,0.74-1.59c0.3-0.5,0.6-0.99,0.89-1.54
				c0.05-0.1,0.15-0.25,0.3-0.45c0.1,0.1,0.2,0.2,0.3,0.25c0.1,0.05,0.25,0.15,0.4,0.25c0.69,0.55,1.14,0.99,1.39,1.29
				C235.5,44,235.65,44.34,235.7,44.74L235.7,44.74z M240.81,44.44c0.05,0.35,0.05,0.69-0.05,1.09c-0.1,0.4-0.3,0.79-0.55,1.29
				c-0.25,0.5-0.6,0.94-1.04,1.34c-0.25,0.25-0.5,0.4-0.64,0.4c-0.1,0-0.35-0.15-0.69-0.45c-0.35-0.3-0.64-0.55-0.94-0.79
				c-0.3-0.2-0.55-0.45-0.69-0.64c-0.2-0.2-0.3-0.35-0.3-0.5c0.2-0.45,0.35-0.74,0.45-0.99c0.35-0.74,0.6-1.24,0.74-1.59
				c0.3-0.5,0.6-0.99,0.89-1.54c0.05-0.1,0.15-0.25,0.3-0.45c0.1,0.1,0.2,0.2,0.3,0.25c0.1,0.05,0.25,0.15,0.4,0.25
				c0.69,0.55,1.14,0.99,1.39,1.29S240.76,44.05,240.81,44.44L240.81,44.44z"/>
			<path class="st0" d="M197.41,27.43c4.51,16.86,40.23,3.17,46.62-4.07c0.3-0.3,0.5-0.6,0.74-0.74c0.25-0.15,0.35-0.25,0.4-0.35
				c0.2-0.25,0.3-0.4,0.4-0.45c0.35-0.35,0.6-0.55,0.74-0.6c0.15-0.05,0.35-0.1,0.55-0.1c0.25,0,0.45-0.05,0.64-0.1
				c0,0.4,0.3,0.89,0.94,1.59c0.64,0.69,0.94,1.19,0.94,1.49c0,0.55-0.35,1.14-0.94,1.84c-0.64,0.69-1.14,1.04-1.44,1.04
				c-0.15,0-0.5-0.1-1.04-0.35c-0.55-0.25-1.04-0.35-1.54-0.35c-0.55,0-0.99,0.3-1.49,0.74c-6.99,6.6-45.78,25.54-47.47,3.67
				c-0.4-5.06,0.2-10.17,0.64-15.23c0-0.15,0.3-0.94,0.74-2.38c0.5-1.44,0.89-2.53,1.14-3.27C198.11,9.62,196.62,24.5,197.41,27.43
				L197.41,27.43z"/>
			<path class="st1" d="M182.58,27.73c0.84-1.84,1.49-3.32,1.93-4.36c0.84-1.98,1.24-3.27,1.24-3.97c0-0.25-0.1-0.69-0.35-1.24
				s-0.5-1.14-0.74-1.69c-0.25-0.4-0.45-0.74-0.64-1.09c-0.2-0.35-0.3-0.6-0.25-0.74c0.35-1.04,0.6-1.88,0.79-2.43
				c0.55-1.54,0.89-2.58,1.14-3.03c0.64,0.2,1.24,0.89,1.84,2.08c0.55,1.19,0.84,2.43,0.84,3.67c0,1.29-0.35,2.93-1.09,4.91
				c-0.84,2.13-1.69,4.27-2.48,6.35c0,0.35,0.15,0.6,0.5,0.84c0.35,0.2,0.69,0.4,1.09,0.6c0.6,0.4,0.99,0.84,1.19,1.24
				s0.3,1.04,0.3,1.88c0,1.24-0.15,2.48-0.5,3.77c-0.35,1.24-0.89,2.78-1.74,4.61c-1.34,2.88-3.22,5.16-5.51,6.84
				c-0.84,0.55-1.69,0.94-2.48,1.24c-0.84,0.3-1.79,0.45-2.83,0.45c-2.38,0-4.22-0.89-5.51-2.68c-1.09-1.54-1.64-3.52-1.64-5.85
				c0-1.04,0.25-2.43,0.69-4.12s0.94-3.12,1.39-4.32c0.5-1.19,0.94-2.23,1.34-3.12c0.2-0.4,0.6-1.29,1.24-2.58
				c0.4-0.84,0.74-1.49,1.04-2.03c0.25-0.5,0.5-0.74,0.64-0.69c0.2,0.05,0.25,0.25,0.15,0.64s-0.2,0.79-0.35,1.19
				c-1.34,2.98-2.23,5.11-2.73,6.35c-0.89,2.18-1.29,3.87-1.29,5.11c0,2.28,0.69,3.92,2.08,4.91c0.99,0.69,2.33,1.04,4.02,1.04
				c2.98,0,5.46-0.84,7.44-2.48c1.69-1.44,2.58-2.93,2.58-4.51c0-0.3-0.69-0.74-2.03-1.39s-2.03-1.39-2.03-2.28
				c0-0.55,0.05-1.04,0.2-1.49C182.18,28.72,182.33,28.22,182.58,27.73L182.58,27.73z"/>
			<path class="st0" d="M158.13,27.63L158.13,27.63L158.13,27.63v0.99c0,1.24,0.25,2.18,0.74,2.83c0.2,0.25,0.4,0.5,0.64,0.64
				c0.2,0.15,0.45,0.3,0.69,0.3c0.94,0.05,0.69-3.17,1.74-3.03c0.45,0.05,0.79,0.4,1.04,0.79c0.25,0.45,0.4,0.84,0.45,1.29
				c0,1.44-0.3,2.88-0.89,4.22c-0.84,1.84-1.93,2.78-3.37,2.78c-0.79,0-1.54-0.4-2.18-1.24c-0.64-0.84-0.99-1.64-1.09-2.43
				c-0.1-0.74-0.1-1.24-0.1-1.44s0-0.35,0-0.4v-0.69c0.25-3.82,0.79-8.58,1.44-12.35c0.05-0.15,0.35-0.94,0.89-2.43
				c0.55-1.44,1.04-2.53,1.39-3.27c0.1-0.05,0.15-0.1,0.25-0.1c0.05,0.1,0,0.45-0.05,0.94l-0.25,1.54
				C158.87,20.19,158.13,23.96,158.13,27.63L158.13,27.63z"/>
			<path class="st1" d="M146.42,25.1c-1.19,1.98-1.79,3.62-1.69,5.01c0.05,0.6,0.15,1.09,0.4,1.49c0.25,0.4,0.45,0.6,0.64,0.55
				c0.2,0,0.45-0.45,0.69-1.34c0.15-0.45,0.25-0.69,0.3-0.69c0.4,0,0.74,0.25,1.14,0.84c0.25,0.4,0.4,0.84,0.4,1.29
				c0.05,1.24-0.25,2.53-0.99,3.82c-0.84,1.54-1.84,2.33-2.98,2.38c-0.74,0.05-1.39-0.25-1.98-0.94c-0.55-0.69-0.84-1.44-0.89-2.33
				c-0.1-1.39,0.3-3.08,1.14-5.01c0.64-1.54,1.64-3.32,2.93-5.26c-0.79-0.25-1.49-0.69-2.13-1.39c-0.64-0.64-0.99-1.64-1.09-2.93
				c-0.05-0.94,0.05-2.23,0.35-3.87c0.25-1.09,0.4-1.79,0.45-2.18c0.35-1.44,0.94-3.12,1.64-5.06s1.19-2.93,1.49-2.93
				c0,0.3,0.05,0.6,0.1,0.84c-0.25,0.94-0.5,1.88-0.69,2.83c-0.1,0.55-0.2,1.24-0.4,2.18c-0.15,0.94-0.25,1.64-0.2,2.13
				c0,0.35,0,0.6,0,0.74c0.05,0.89,0.25,1.54,0.6,2.03c0.35,0.6,0.94,0.94,1.79,1.09c0.2,0.05,0.45,0.1,0.74,0.05
				c0.25,0,0.45-0.05,0.64-0.05c0.2,0,0.3,0.1,0.3,0.35c0,0.4-0.05,0.79-0.2,1.29c-0.15,0.5-0.5,1.29-1.04,2.48
				c-0.4,0.79-0.79,1.49-1.19,2.18C146.62,24.8,146.52,24.95,146.42,25.1L146.42,25.1z"/>
			<path class="st1" d="M135.96,28.67c-0.2,0.79-0.35,1.39-0.45,1.84c-0.1,0.45-0.25,0.94-0.45,1.44c-0.4,1.34-0.99,2.68-1.79,4.02
				c-0.74,1.34-1.64,2.63-2.63,3.87c-1.54,1.84-3.12,3.17-4.81,4.12c-1.69,0.94-3.62,1.39-5.7,1.39c-2.38,0-4.22-0.74-5.51-2.23
				c-1.29-1.49-1.88-3.37-1.88-5.75c0-1.19,0.15-2.43,0.45-3.82c0.3-1.39,0.64-2.48,0.99-3.37c0.35-0.89,0.79-1.84,1.29-2.83
				c0.64-1.29,1.34-2.58,2.08-3.92c0.3-0.55,0.5-0.84,0.55-0.89c0.05-0.05,0.15-0.05,0.3-0.05c0.1,0.05,0.1,0.25,0.05,0.64
				c-0.05,0.4-0.1,0.69-0.2,0.94l-1.88,4.12c-0.5,1.24-0.79,2.08-0.94,2.58c-0.25,0.84-0.4,1.69-0.4,2.58
				c0,2.23,0.74,3.87,2.28,4.81c1.14,0.74,2.58,1.14,4.32,1.14c1.24,0,2.33-0.1,3.27-0.3c0.94-0.2,1.93-0.6,3.03-1.19
				c1.04-0.6,1.98-1.34,2.83-2.23c0.55-0.6,1.24-1.49,1.98-2.63c0.45-0.74,0.79-1.49,1.04-2.13c0.25-0.64,0.35-1.49,0.35-2.48
				l0.1-4.12c0-0.69,0.1-1.29,0.25-1.88c0.15-0.55,0.4-1.29,0.74-2.18l1.14-2.23c0.25-0.4,0.35-0.69,0.45-0.74
				c0.05-0.1,0.15-0.25,0.3-0.45c0.2,0.2,0.25,0.45,0.25,0.74l-0.3,1.98l-0.3,2.83c0,1.09-0.05,2.08-0.2,2.88
				C136.45,26.19,136.25,27.28,135.96,28.67L135.96,28.67z M128.66,25.74c0.05,0.15,0.05,0.35,0.05,0.64c0,0.69-0.25,1.34-0.69,1.98
				c-0.89,1.29-1.59,1.98-1.98,2.03c-0.1,0-0.25-0.1-0.5-0.3c-0.89-0.64-1.34-0.99-1.34-1.04c-0.4-0.25-0.74-0.45-1.04-0.64
				c-0.35-0.2-0.5-0.45-0.55-0.69l1.29-2.98c0.4-0.74,0.79-1.29,1.09-1.79c0.1-0.1,0.2-0.3,0.35-0.5c0.25,0.1,0.45,0.2,0.64,0.3
				c0.2,0.1,0.4,0.2,0.55,0.3c0.79,0.6,1.34,1.09,1.64,1.44C128.47,24.95,128.62,25.3,128.66,25.74L128.66,25.74z"/>
			<path class="st1" d="M189.97,44.74c0.05,0.35,0.05,0.69-0.1,1.09c-0.1,0.4-0.3,0.79-0.55,1.29c-0.25,0.5-0.6,0.94-1.04,1.34
				c-0.25,0.25-0.5,0.4-0.64,0.4c-0.1,0-0.35-0.15-0.69-0.45c-0.35-0.3-0.64-0.55-0.94-0.79c-0.3-0.2-0.55-0.4-0.74-0.64
				c-0.2-0.2-0.3-0.35-0.3-0.5c0.2-0.45,0.35-0.74,0.45-0.99c0.35-0.74,0.6-1.24,0.74-1.59c0.3-0.5,0.6-0.99,0.89-1.54
				c0.05-0.1,0.15-0.25,0.3-0.45c0.1,0.1,0.2,0.2,0.3,0.25c0.1,0.05,0.25,0.15,0.4,0.25c0.69,0.55,1.14,0.99,1.39,1.29
				C189.72,44,189.87,44.34,189.97,44.74L189.97,44.74z M195.08,44.44c0.05,0.35,0.05,0.69-0.05,1.09c-0.1,0.4-0.3,0.79-0.55,1.29
				c-0.25,0.5-0.6,0.94-1.04,1.34c-0.25,0.25-0.5,0.4-0.64,0.4c-0.1,0-0.35-0.15-0.69-0.45c-0.35-0.3-0.64-0.55-0.94-0.79
				c-0.3-0.2-0.55-0.45-0.69-0.64c-0.2-0.2-0.3-0.35-0.3-0.5c0.2-0.45,0.35-0.74,0.45-0.99c0.35-0.74,0.6-1.24,0.74-1.59
				c0.3-0.5,0.6-0.99,0.89-1.54c0.05-0.1,0.15-0.25,0.3-0.45c0.1,0.1,0.2,0.2,0.3,0.25s0.25,0.15,0.4,0.25
				c0.69,0.55,1.14,0.99,1.39,1.29C194.83,43.7,194.98,44.05,195.08,44.44L195.08,44.44z"/>
		</g>
	</g>
</g>
</svg>
