<?xml version="1.0" encoding="utf-8"?>
<!-- Generator: Adobe Illustrator 25.4.1, SVG Export Plug-In . SVG Version: 6.00 Build 0)  -->
<svg version="1.1" id="Layer_1" xmlns="http://www.w3.org/2000/svg" xmlns:xlink="http://www.w3.org/1999/xlink" x="0px" y="0px"
	 viewBox="0 0 173.33 80" style="enable-background:new 0 0 173.33 80;" xml:space="preserve">
<style type="text/css">
	.st0{fill:url(#SVGID_1_);}
</style>
<linearGradient id="SVGID_1_" gradientUnits="userSpaceOnUse" x1="86.6656" y1="2" x2="86.6656" y2="82" gradientTransform="matrix(1 0 0 -1 0 82)">
	<stop  offset="0" style="stop-color:#161998"/>
	<stop  offset="0.129" style="stop-color:#441E93"/>
	<stop  offset="0.266" style="stop-color:#6E228F"/>
	<stop  offset="0.407" style="stop-color:#90258C"/>
	<stop  offset="0.549" style="stop-color:#AB2889"/>
	<stop  offset="0.694" style="stop-color:#BE2A87"/>
	<stop  offset="0.842" style="stop-color:#C92B86"/>
	<stop  offset="1" style="stop-color:#CD2B86"/>
</linearGradient>
<path class="st0" d="M127.37,28.4h16.74l-19.83,25.93h-16.75L127.37,28.4z M126.11,25.86l-21.08,27.58
	c-0.5,0.66-0.59,1.49-0.22,2.22c0.36,0.73,1.11,1.2,1.91,1.2h18.82l21.25-27.79c0.46-0.62,0.53-1.43,0.2-2.11
	c-0.34-0.68-1.03-1.1-1.81-1.1H126.11z M65.92,12.38c0.11-0.18,0.31-0.3,0.53-0.3h10.98l1.58-9.06c0.05-0.28,0.3-0.48,0.59-0.48
	l10.28-0.01c0.19,0,0.34,0.06,0.45,0.18c0.11,0.14,0.17,0.33,0.14,0.49l-1.02,5.87l48.32,0.03c0.26,0,0.45,0.16,0.54,0.31
	c0.06,0.11,0.13,0.34-0.03,0.56l-4.36,5.7l35.81-0.01c0.21,0,0.36,0.13,0.42,0.25c0.06,0.08,0.1,0.26-0.01,0.42l-29.76,38.95
	c-0.34,0.42-0.32,1.5-0.09,1.96c0.25,0.46,1.09,1.13,1.63,1.13l20.93,0.02c0.24,0,0.39,0.13,0.45,0.2c0.11,0.13,0.16,0.31,0.14,0.47
	l-1.59,9.1c-0.05,0.28-0.3,0.48-0.59,0.48H81.61l-1.31-0.01c0.1,0.45,0.14,0.92,0.14,1.4c0,4.09-3.32,7.41-7.42,7.41
	c-4.1,0-7.42-3.32-7.42-7.41c0-4.1,3.32-7.41,7.42-7.41c2.8,0,5.24,1.55,6.51,3.84l32.46-42.54c0.52-1.1,0.26-1.49-0.02-2.14
	c-0.21-0.49-0.99-0.99-1.85-0.98H87.39l-5.81,33.14c-0.06,0.26-0.31,0.44-0.58,0.44H70.72c-0.24,0-0.39-0.13-0.45-0.2
	c-0.06-0.07-0.18-0.24-0.13-0.47l6.31-35.97L50.79,67.99c-0.23,0.4-0.66,0.66-1.14,0.66l-8.74,0.04c-0.31,0-0.57-0.22-0.6-0.49
	l-2.41-36.52L18.96,68c-0.23,0.4-0.66,0.66-1.13,0.66l-8.86-0.01c-0.3,0-0.56-0.22-0.59-0.51L2.6,12.71
	c-0.01-0.17,0.05-0.34,0.15-0.46c0.11-0.11,0.26-0.17,0.45-0.17h11.91c0.33,0,0.6,0.26,0.6,0.61l1.79,36.16l17.52-36.46
	c0.09-0.19,0.31-0.31,0.53-0.31l10.86-0.05c0.3,0,0.57,0.23,0.59,0.49l1.77,36.44L65.92,12.38z M79.1,0c-1.23,0-2.27,0.88-2.49,2.09
	L75.3,9.55h-9.24c-0.94,0-1.79,0.51-2.27,1.39l-13,27.72l-1.29-26.8c-0.11-1.3-1.21-2.31-2.52-2.31H35.16
	c-0.94,0-1.81,0.53-2.27,1.39L19.53,38.77l-1.32-26.7c0-1.39-1.14-2.52-2.53-2.52H2.53c-0.72,0-1.39,0.28-1.87,0.79
	c-0.47,0.51-0.71,1.23-0.66,1.97L5.9,68.92c0.14,1.28,1.22,2.25,2.52,2.25l9.77,0c1.2,0,2.29-0.65,2.86-1.72l14.93-28.59l1.84,28.06
	c0.15,1.28,1.23,2.25,2.51,2.25l9.7,0c1.19,0,2.3-0.66,2.86-1.73l18.14-35.56l-3.51,20.05c-0.13,0.74,0.07,1.49,0.55,2.07
	c0.48,0.57,1.19,0.9,1.94,0.9h11.5c1.19,0,2.21-0.83,2.48-2.03l5.53-31.56h19.75L79.42,62.38c-1.79-1.49-4.05-2.31-6.39-2.31
	c-5.49,0-9.97,4.47-9.97,9.96c0,5.5,4.48,9.97,9.97,9.97c5.04,0,9.34-3.85,9.92-8.83l78.81,0c1.24,0,2.28-0.88,2.49-2.09l1.8-10.26
	c0.13-0.74-0.08-1.49-0.56-2.06c-0.47-0.57-1.18-0.89-1.93-0.89l-20.44-0.02l29.8-38.98c0.51-0.76,0.55-1.67,0.13-2.45
	c-0.41-0.79-1.23-1.29-2.13-1.29h-31.89l2.02-2.64c0.53-0.79,0.58-1.76,0.14-2.6c-0.45-0.83-1.3-1.35-2.23-1.35H92.46l0.64-3.58
	c0.12-0.73-0.1-1.51-0.59-2.08C92.03,0.31,91.35,0,90.59,0H79.1z"/>
</svg>
