<?xml version="1.0" encoding="utf-8"?>
<!-- Generator: Adobe Illustrator 25.4.1, SVG Export Plug-In . SVG Version: 6.00 Build 0)  -->
<svg version="1.1" id="Layer_1" xmlns="http://www.w3.org/2000/svg" xmlns:xlink="http://www.w3.org/1999/xlink" x="0px" y="0px"
	 viewBox="0 0 437.2 80" style="enable-background:new 0 0 437.2 80;" xml:space="preserve">
<style type="text/css">
	.st0{fill:#3AB9EE;}
	.st1{fill:#0A58A2;}
</style>
<g>
	<path class="st0" d="M410.5,0.6c0,0-0.2,0.6,0,1c0.2,0.4,0.4,1.6-0.6,4.5c-1,2.9-2.4,8-2.4,8l9,11.6l-0.9,1.3L405,19.1L400.3,30
		l3.2,4.6l-0.2,1.1c0,0-4.3-2.5-4.9-2.5c0,0-2.6,5.1-2.8,16c-0.2,10.8,2.3,23.6,9.7,30.8c0,0,1.5-5.6,5-9.6s26.9-17,26.9-36.2
		S424.4,3.3,410.5,0.6z"/>
	<path class="st1" d="M387.3,61c0,0,2.4-18.8,9.8-28.2l-5.4-2.1l0.7-0.8l5.5-0.8l3.5-11.5l-12.9-1.2l0.9-1.6l14.1-2
		c0,0,3.5-7.9,4.9-10c0,0,0.8-1,1.7-1.5c0,0,0.3-0.3,0.4-0.7c0,0-14.4-3.6-26.8,6.9S363.2,41.3,387.3,61z"/>
	<g>
		<rect x="106.6" y="0.7" class="st1" width="7.3" height="54.2"/>
		<polygon class="st1" points="72.5,47.8 53.7,0.7 52.1,0.7 46.4,0.7 44.8,0.7 26.1,47.8 7.3,0.7 0,0.7 21.6,54.9 23.2,54.9 
			28.9,54.9 30.5,54.9 49.3,7.8 68.1,54.9 69.7,54.9 75.3,54.9 76.9,54.9 98.5,0.7 91.3,0.7 		"/>
		<polygon class="st1" points="188.7,48 139,0.7 135.4,0.7 128.2,0.7 128.2,54.9 135.4,54.9 135.4,7.2 185,54.9 188.7,54.9 
			196,54.9 196,0.7 188.7,0.7 		"/>
		<path class="st1" d="M259.8,0h-34.9c0,0-16.4,0.3-16.4,15.2v22.8c0,18.1,16.4,17.3,16.4,17.3h34.9c15.1,0,16.4-12,16.4-12V34v-0.4
			v-5.9h-34.9V34h27.4v9.3c0,5.5-8.8,5.8-8.8,5.8h-34.9c-10-1.1-9.2-11-9.2-11V15.2c0,0,1.2-8.9,9.2-8.9h34.9c0,0,8.8,0.8,8.8,6.3
			v4.2h7.5v-4.2C276.2,12.6,274.1,0,259.8,0z"/>
		<path class="st1" d="M350.1,42v-4.2c0,0,1.4-13.3-18-13.3H304c-10.6,0-9.3-7.4-9.3-7.4V13c0,0,0.2-6.8,9.3-6.8h28.1
			c0,0,9.7,0.3,9.7,5.8v4.2h6.8v-4.2c0,0-0.2-11.8-16.5-11.8H304c0,0-16.1-0.2-16.1,12.8v4.2c0,13.9,16.1,13.4,16.1,13.4h28.1
			c0,0,11.1-0.9,11.1,7.4V42c0,7.5-11.1,7.4-11.1,7.4H304c-10.1,0-9.3-7.4-9.3-7.4v-4.2h-6.8V42c0,13.9,16.1,13.3,16.1,13.3h28.1
			C351.6,55.3,350.1,42,350.1,42z"/>
	</g>
	<g>
		<polygon class="st0" points="48.4,64.6 47.3,64.6 47.3,79.7 49.2,79.7 49.2,72.9 61.2,72.9 61.2,71 49.2,71 49.2,66.5 61.6,66.5 
			61.6,64.6 49.2,64.6 		"/>
		<polygon class="st0" points="109.9,64.6 107.9,64.6 107.9,79.7 109.1,79.7 109.9,79.7 121.7,79.7 121.7,77.7 109.9,77.7 		"/>
		<polygon class="st0" points="141.8,64.6 140.6,64.6 140.6,79.7 141.8,79.7 142.6,79.7 155.3,79.7 155.3,77.7 142.6,77.7 
			142.6,72.9 154.8,72.9 154.8,71 142.6,71 142.6,66.5 155.3,66.5 155.3,64.6 142.6,64.6 		"/>
		<polygon class="st0" points="267.1,77.8 253.1,64.6 252.4,64.6 250.4,64.6 250.4,79.7 252.4,79.7 252.4,66.5 265.9,79.7 
			267.1,79.7 269,79.7 269,64.6 267.1,64.6 		"/>
		<polygon class="st0" points="345.4,64.6 345.4,77.8 331.4,64.6 330.7,64.6 328.7,64.6 328.7,79.7 330.7,79.7 330.7,66.5 
			344.3,79.7 345.4,79.7 347.4,79.7 347.4,64.6 		"/>
		<path class="st0" d="M222.1,64.6h-1.6h-0.3l-8.7,15.1h2l1.8-3.2h12.2l1.8,3.2h2l-8.7-15.1H222.1z M216.1,74.9l5.2-9l5.2,9H216.1z"
			/>
		<path class="st0" d="M189.6,71.6c2.6,0,2.3-3.2,2.3-3.2c0-4-3.8-3.9-3.8-3.9H177h-0.9H175v15.1h2l0,0H188c2.2,0,4.5-0.8,4.5-4.4
			C192.5,71.7,189.6,71.6,189.6,71.6z M188,66.5L188,66.5c0.5,0,1.8,0.1,1.8,2.2c0,2.5-2.2,2.3-2.2,2.3H177v-4.4H188z M188,77.7H177
			v-4.8h10.6c1,0,2.7,0.1,2.7,2.5C190.4,77.9,188,77.7,188,77.7z"/>
		<path class="st0" d="M303.4,64.2h-9c0,0-5.1-0.1-5.1,4.1v7.6c0,4.3,5.1,4.1,5.1,4.1h9c5,0,5.1-4.1,5.1-4.1v-7.6
			C308.5,64.1,303.4,64.2,303.4,64.2z M306.6,75.9c0,2.4-3.2,2.1-3.2,2.1h-9c-2.9,0-3.2-2.1-3.2-2.1v-7.6c0,0,0.1-2.1,3.2-2.1h9
			c3,0,3.2,2.1,3.2,2.1V75.9z"/>
		<path class="st0" d="M21.9,64.2h-9c0,0-5.1-0.1-5.1,4.1v7.6c0,4.3,5.1,4.1,5.1,4.1h9c5,0,5.1-4.1,5.1-4.1v-7.6
			C27,64.1,21.9,64.2,21.9,64.2z M25.1,75.9c0,2.4-3.2,2.1-3.2,2.1h-9c-2.9,0-3.2-2.1-3.2-2.1v-7.6c0,0,0.1-2.1,3.2-2.1h9
			c3,0,3.2,2.1,3.2,2.1V75.9z"/>
	</g>
</g>
</svg>
