<?xml version="1.0" encoding="utf-8"?>
<!-- Generator: Adobe Illustrator 25.4.1, SVG Export Plug-In . SVG Version: 6.00 Build 0)  -->
<svg version="1.1" id="Layer_1" xmlns="http://www.w3.org/2000/svg" xmlns:xlink="http://www.w3.org/1999/xlink" x="0px" y="0px"
	 viewBox="0 0 106.17 80" style="enable-background:new 0 0 106.17 80;" xml:space="preserve">
<style type="text/css">
	.st0{fill:#1C4E9D;}
	.st1{fill:#F9E20E;}
	.st2{fill:#FFFFFF;}
	.st3{fill:#4BA3E0;}
	.st4{fill:#87CF2E;}
</style>
<path class="st0" d="M98.12,39.95c-7.69,21.21-34.1,38.42-58.97,38.45C14.28,78.42,0.35,61.25,8.05,40.04
	C15.74,18.84,42.14,1.63,67.02,1.6C91.89,1.58,105.82,18.75,98.12,39.95"/>
<path class="st1" d="M61.28,4.57l-1.47,16.9l10.8-16.91l-6.23,17.53L78.75,6.96L68.17,23.94l16.95-12.32L70.94,26.88l18.39-8.67
	L72.5,30.72l18.56-4.43l-18.33,8.89l17.48,0.12l-18.59,4.68l15.21,4.65l-17.58,0.15l11.89,8.86l-15.36-4.39l7.77,12.48l-12.11-8.64
	l3.12,15.24l-8.02-12.29l-1.75,16.97L51.38,57.9l-6.49,17.53l1.47-16.9L35.57,75.44l6.23-17.53L27.43,73.04L38,56.06L21.05,68.38
	l14.18-15.26l-18.38,8.67l16.83-12.5l-18.57,4.42l18.34-8.9L15.97,44.7l18.59-4.68l-15.21-4.65l17.58-0.15l-11.9-8.86l15.37,4.39
	l-7.77-12.48l12.11,8.64l-3.12-15.24l8.02,12.29L51.4,6.99l3.39,15.11L61.28,4.57z"/>
<path class="st2" d="M39.05,40.01c-2.81,7.74,1.2,14.03,8.94,14.03c7.74-0.01,16.33-6.32,19.14-14.06
	c2.81-7.74-1.2-14.04-8.95-14.03C50.44,25.97,41.86,32.27,39.05,40.01 M40.32,40.01c2.55-7.04,10.36-12.78,17.41-12.79
	c7.04-0.01,10.69,5.72,8.13,12.76c-2.56,7.04-10.36,12.78-17.41,12.79C41.42,52.78,37.76,47.06,40.32,40.01"/>
<path class="st3" d="M14.83,39.98C22.36,19.22,45.12,2.25,65.94,1.69c0.34-0.01,0.68-0.02,1.02-0.02c2.9,0,5.66,0.22,8.26,0.65
	c0.99,0.17,1.96,0.37,2.95,0.6c1.49,0.36,2.93,0.8,4.3,1.29c-7.76-4.35-21.93-5.23-32.53-3.13C26.91,5.65,6.97,22.52,0,40
	L14.83,39.98z"/>
<path class="st4" d="M91.35,40.02L91.35,40.02c-7.53,20.77-30.3,37.73-51.12,38.29c-0.34,0.01-0.68,0.02-1.02,0.02
	c-2.9,0-5.66-0.23-8.26-0.65c-0.99-0.17-1.96-0.37-2.94-0.6c-1.5-0.36-2.93-0.8-4.31-1.29c7.76,4.35,21.93,5.23,32.53,3.13
	C79.26,74.35,99.2,57.48,106.16,40h0L91.35,40.02z"/>
</svg>
