<?xml version="1.0" encoding="utf-8"?>
<!-- Generator: Adobe Illustrator 25.4.1, SVG Export Plug-In . SVG Version: 6.00 Build 0)  -->
<svg version="1.1" id="Layer_1" xmlns="http://www.w3.org/2000/svg" xmlns:xlink="http://www.w3.org/1999/xlink" x="0px" y="0px"
	 viewBox="0 0 386.08 80" style="enable-background:new 0 0 386.08 80;" xml:space="preserve">
<style type="text/css">
	.st0{fill:#1C4E9D;}
	.st1{fill:#F9E20E;}
	.st2{fill:#FFFFFF;}
	.st3{fill:#4BA3E0;}
	.st4{fill:#87CF2E;}
</style>
<g>
	<path class="st0" d="M98.12,39.95c-7.69,21.21-34.1,38.42-58.97,38.45C14.28,78.42,0.35,61.25,8.05,40.04
		C15.74,18.84,42.14,1.63,67.02,1.6C91.89,1.58,105.82,18.75,98.12,39.95"/>
	<path class="st1" d="M61.28,4.57l-1.47,16.9l10.8-16.91l-6.23,17.53L78.75,6.96L68.17,23.94l16.95-12.32L70.94,26.88l18.39-8.67
		L72.5,30.72l18.56-4.43l-18.33,8.89l17.48,0.12l-18.59,4.68l15.21,4.65l-17.58,0.15l11.89,8.86l-15.36-4.39l7.77,12.48l-12.11-8.64
		l3.12,15.24l-8.02-12.29l-1.75,16.97L51.38,57.9l-6.49,17.53l1.47-16.9L35.57,75.44l6.23-17.53L27.43,73.04L38,56.06L21.05,68.38
		l14.18-15.26l-18.38,8.67l16.83-12.5l-18.57,4.42l18.34-8.9L15.97,44.7l18.59-4.68l-15.21-4.65l17.58-0.15l-11.9-8.86l15.37,4.39
		l-7.77-12.48l12.11,8.64l-3.12-15.24l8.02,12.29L51.4,6.99l3.39,15.11L61.28,4.57z"/>
	<path class="st2" d="M39.05,40.01c-2.81,7.74,1.2,14.03,8.94,14.03c7.74-0.01,16.33-6.32,19.14-14.06
		c2.81-7.74-1.2-14.04-8.95-14.03C50.44,25.97,41.86,32.27,39.05,40.01 M40.32,40.01c2.55-7.04,10.36-12.78,17.41-12.79
		c7.04-0.01,10.69,5.72,8.13,12.76c-2.56,7.04-10.36,12.78-17.41,12.79C41.42,52.78,37.76,47.06,40.32,40.01"/>
	<path class="st3" d="M14.83,39.98C22.36,19.22,45.12,2.25,65.94,1.69c0.34-0.01,0.68-0.02,1.02-0.02c2.9,0,5.66,0.22,8.26,0.65
		c0.99,0.17,1.96,0.37,2.95,0.6c1.49,0.36,2.93,0.8,4.3,1.29c-7.76-4.35-21.93-5.23-32.53-3.13C26.91,5.65,6.97,22.52,0,40
		L14.83,39.98z"/>
	<path class="st4" d="M91.35,40.02L91.35,40.02c-7.53,20.77-30.3,37.73-51.12,38.29c-0.34,0.01-0.68,0.02-1.02,0.02
		c-2.9,0-5.66-0.23-8.26-0.65c-0.99-0.17-1.96-0.37-2.94-0.6c-1.5-0.36-2.93-0.8-4.31-1.29c7.76,4.35,21.93,5.23,32.53,3.13
		C79.26,74.35,99.2,57.48,106.16,40h0L91.35,40.02z"/>
	<path class="st0" d="M156.51,29.33c0-1.59-0.77-2.79-2.3-3.63c-1.38-0.75-3.19-1.12-5.45-1.11c-1.07,0-1.91,0.08-2.52,0.23
		l-2.79,11.83c0.64,0.09,1.28,0.13,1.89,0.13c3.32,0,6.01-0.67,8.08-2C155.48,33.44,156.51,31.62,156.51,29.33 M167.2,55.02
		c-2.06,0.33-4.11,0.5-6.13,0.5c-1.87,0-3.28-0.43-4.21-1.31c-0.94-0.88-2.38-3.14-4.33-6.78c-1.84-3.43-3.33-5.63-4.48-6.58
		c-1.15-0.95-2.87-1.43-5.16-1.42l-2.85,12.27c-0.12,0.48-0.17,0.93-0.17,1.35c0,0.9,0.3,1.66,0.92,2.29l-10.78,0.01
		c1.22-0.66,1.99-1.65,2.29-2.96l6.33-27.41c0.08-0.33,0.11-0.72,0.11-1.17c0-0.78-0.35-1.37-1.03-1.79l12.84-0.01
		c4.63-0.01,8.2,0.66,10.72,2c2.29,1.22,3.44,2.85,3.45,4.88c0,2.66-1.49,4.88-4.47,6.68c-2.52,1.52-5.59,2.51-9.23,2.96
		c1.91,0.23,3.57,1.12,4.99,2.64c0.92,0.96,1.96,2.52,3.1,4.69c1.87,3.56,3.31,5.88,4.3,7C164.4,53.97,165.67,54.69,167.2,55.02
		 M209.36,32.05c-1.11,0.72-2.5,2.47-4.18,5.25l-10.71,17.96l-3.95,0l-2.77-15.4l-9.9,15.42l-3.84,0.01l-2.03-18.27
		c-0.19-1.68-0.38-2.81-0.55-3.41c-0.17-0.59-0.51-1.1-1-1.52l8.48-0.01c-0.72,0.39-1.09,1.04-1.09,1.97c0,0.48,0.04,1.08,0.12,1.79
		l1.27,11.78l10.01-15.55l3.15,0l2.82,15.45l6.75-11.29c0.99-1.67,1.49-2.86,1.49-3.54c0-0.29-0.11-0.5-0.35-0.62L209.36,32.05z
		 M229.08,35.88c-1.03-1.23-2.45-1.83-4.24-1.83c-2.94,0-5.35,1.63-7.22,4.89c-1.49,2.66-2.23,5.42-2.23,8.29
		c0,3.26,1.53,4.88,4.59,4.88c0.99,0,2.1-0.35,3.32-1.03c1.11-0.63,2.04-1.36,2.81-2.2L229.08,35.88z M236.59,32.02l-4.51,19.62
		c-0.19,0.84-0.29,1.43-0.29,1.79c0,0.9,0.77,1.49,2.29,1.79c-1.79,0.27-3.45,0.41-4.98,0.41c-1.3,0-2.18-0.06-2.63-0.17
		c-0.92-0.21-1.38-0.69-1.38-1.43v-0.99c-2.39,1.97-5.18,2.96-8.37,2.96c-2.88,0.01-5.12-0.84-6.72-2.55
		c-1.45-1.58-2.17-3.69-2.17-6.31c-0.01-3.61,1.5-7.05,4.51-10.31c3.44-3.7,7.68-5.56,12.72-5.57c2.33,0,4.3,0.58,5.91,1.74
		l2.29-0.99L236.59,32.02z M268.41,36.2c0,0.74-0.19,1.94-0.57,3.58l-2.74,11.91c-0.15,0.66-0.23,1.23-0.23,1.7
		c0,0.9,0.78,1.49,2.35,1.79c-1.83,0.27-3.9,0.41-6.19,0.41c-1.87,0-2.81-0.55-2.81-1.66c0-0.3,0.15-1.12,0.46-2.47l2.63-11.51
		c0.26-1.23,0.4-2.12,0.39-2.69c0-1.43-0.94-2.15-2.81-2.15c-2.07,0-4.42,1.06-7.04,3.18l-2.92,12.99
		c-0.23,1.02-0.34,1.72-0.34,2.11c0,0.69,0.32,1.29,0.98,1.79l-9.63,0.01c1.22-0.75,2.04-2.02,2.46-3.81l3.6-15.86
		c0.11-0.5,0.17-0.99,0.17-1.44c0-1.16-0.36-1.86-1.09-2.1l8.25-0.01l-0.57,2.42c1.18-0.84,2.58-1.57,4.18-2.2
		c1.79-0.66,3.39-0.99,4.81-0.99C266.18,31.23,268.4,32.88,268.41,36.2 M293.86,35.81c-0.92-1.22-2.32-1.83-4.19-1.83
		c-2.91,0-5.29,1.57-7.16,4.71c-1.56,2.66-2.35,5.48-2.34,8.46c0,3.26,1.53,4.88,4.59,4.88c2.1,0,4.13-1.04,6.07-3.09L293.86,35.81z
		 M303.76,20.84l-6.91,30.28c-0.18,0.84-0.28,1.57-0.28,2.2c0,0.87,0.75,1.48,2.24,1.84c-1.8,0.27-3.42,0.4-4.87,0.4
		c-1.49,0-2.52-0.09-3.1-0.26c-0.68-0.24-1.03-0.68-1.03-1.34c0-0.27,0.05-0.6,0.17-0.99c-2.51,1.97-5.29,2.96-8.31,2.96
		c-3.02,0-5.32-0.86-6.88-2.59c-1.45-1.55-2.18-3.64-2.19-6.27c0-3.73,1.56-7.23,4.69-10.48c3.43-3.58,7.58-5.38,12.43-5.39
		c1.99,0,3.61,0.4,4.88,1.2l1.88-7.88c0.19-0.81,0.29-1.38,0.29-1.7c0-0.87-0.36-1.52-1.09-1.97L303.76,20.84z M331.12,41.06
		l-3.45-13.61l-9.96,13.67c1.22,0.12,3.52,0.19,6.88,0.21C326.04,41.3,328.22,41.2,331.12,41.06 M342.66,55.11l-9.69,0.01
		c0.68-0.27,1.03-0.72,1.03-1.34c0-0.33-0.08-0.81-0.23-1.43l-2.07-8.06c-2.07-0.17-4.61-0.26-7.63-0.26
		c-3.48,0-6.38,0.09-8.71,0.28c-0.42,0.57-2.35,3.2-5.78,7.89c-0.8,1.11-1.2,1.85-1.2,2.24c0,0.27,0.23,0.51,0.69,0.72l-7.11,0.01
		c0.96-0.57,2.07-1.72,3.33-3.45l20.09-27.51c0.49-0.69,0.75-1.23,0.75-1.62c0-0.36-0.27-0.61-0.8-0.76l7.97-0.01l7.54,30.4
		C341.16,53.66,341.78,54.63,342.66,55.11 M362.86,23.74c0,0.84-0.37,1.54-1.11,2.11c-0.75,0.57-1.63,0.85-2.66,0.85
		c-1.04,0-1.92-0.28-2.67-0.85c-0.75-0.56-1.12-1.27-1.12-2.1c0-0.81,0.37-1.5,1.12-2.09c0.74-0.58,1.63-0.87,2.67-0.87
		c1.03,0,1.91,0.29,2.66,0.87C362.49,22.24,362.86,22.93,362.86,23.74 M360.47,31.89l-4.35,19.17c-0.26,1.17-0.4,1.91-0.39,2.24
		c0,0.84,0.74,1.43,2.23,1.79c-1.3,0.27-3.25,0.41-5.85,0.41c-2.02,0-3.03-0.58-3.03-1.74c-0.01-0.3,0.11-0.96,0.34-1.97l3.71-16.26
		c0.15-0.66,0.23-1.22,0.23-1.66c0-0.99-0.36-1.64-1.09-1.97L360.47,31.89z M386.08,31.73l-0.4,6c-1.26-1.31-2.81-1.96-4.64-1.96
		c-2.18,0-4.26,1-6.24,3l-3.03,12.81c-0.19,0.8-0.28,1.34-0.28,1.61c0,0.84,0.33,1.47,0.98,1.88l-9.57,0.01
		c1.26-0.66,2.08-1.84,2.46-3.54l3.71-16.12c0.15-0.66,0.23-1.24,0.23-1.75c0-0.86-0.34-1.46-1.03-1.79l8.02-0.01l-0.68,3.09
		c2.41-2.57,4.88-3.86,7.45-3.86C384.15,31.1,385.17,31.32,386.08,31.73"/>
</g>
</svg>
