<?xml version="1.0" encoding="utf-8"?>
<!-- Generator: Adobe Illustrator 25.4.1, SVG Export Plug-In . SVG Version: 6.00 Build 0)  -->
<svg version="1.1" id="Layer_1" xmlns="http://www.w3.org/2000/svg" xmlns:xlink="http://www.w3.org/1999/xlink" x="0px" y="0px"
	 viewBox="0 0 85.34 80" style="enable-background:new 0 0 85.34 80;" xml:space="preserve">
<style type="text/css">
	.st0{fill:#F3893D;}
</style>
<g>
	<path class="st0" d="M85.11,55.78c-0.52-3.26-1.76-6.23-3.64-8.93c-1-1.44-2.15-2.76-3.47-3.91c-0.79-0.7-1.64-1.33-2.56-1.87
		c-0.34-0.2-0.62-0.51-0.95-0.73c-0.3-0.21-0.31-0.35-0.01-0.58c1.08-0.84,2.15-1.7,3.23-2.56c1.97-1.58,3.76-3.33,5.02-5.55
		c1.08-1.9,1.73-3.95,2.13-6.09c0.12-0.68,0.25-1.36,0.26-2.06c-0.02-0.08,0.03-0.12,0.08-0.16c0-0.31-0.04-0.62,0.07-0.92
		c-0.1-0.3,0.02-0.6,0.02-0.9c-0.02-0.67-0.02-1.35-0.03-2.02c-0.08-0.28-0.06-0.56-0.05-0.84c-0.08-0.06-0.12-0.14-0.09-0.24
		c-0.01-0.21-0.01-0.42-0.04-0.62c-0.53-3.39-1.75-6.5-3.85-9.23c-3.84-5.01-8.96-7.78-15.2-8.43c-4.1-0.43-8.05,0.28-11.76,2.12
		c-3.39,1.68-5.85,4.26-7.34,7.75c-1.09,2.54-1.52,5.2-1.51,7.95c0,0.47,0,0.47-0.42,0.31c-1.37-0.53-2.74-1.06-4.11-1.58
		c-2.16-0.82-4.38-1.33-6.7-1.3c-2.1,0.03-4.18,0.28-6.22,0.79c-2.79,0.69-5.34,1.91-7.67,3.6c-2.77,2.01-5.02,4.53-7.19,7.14
		c-1.78,2.15-3.5,4.34-5.38,6.41C5.43,35.85,2.56,37.75,0,40c0,0.06,0,0.11,0,0.17c0.06-0.02,0.11,0,0.15,0.04
		c0.95,0.94,2.07,1.68,3.11,2.52c2.65,2.15,5.04,4.56,7.19,7.2c1.04,1.27,1.92,2.65,2.99,3.89c1.42,1.64,3,3.12,4.59,4.59
		c2.16,1.99,4.57,3.6,7.31,4.69c2.95,1.17,6.03,1.66,9.2,1.64c1.83-0.01,3.61-0.34,5.33-0.98c0.06-0.01,0.12-0.01,0.19-0.02
		c0.69-0.3,1.41-0.56,2.11-0.82c0.97-0.36,1.94-0.74,2.91-1.1c0.31-0.11,0.35-0.02,0.35,0.26c-0.01,1.19,0.05,2.38,0.24,3.56
		c0.4,2.53,1.21,4.89,2.66,7.02c2.35,3.43,5.65,5.5,9.61,6.57c3.64,0.99,7.32,1.01,11,0.24c4.15-0.87,7.72-2.76,10.59-5.93
		c2.97-3.28,4.9-7.06,5.58-11.45c0.06-0.41,0-0.86,0.23-1.24c0-1.31,0-2.61,0-3.92C85.1,56.57,85.17,56.16,85.11,55.78z
		 M79.67,69.81c-2.04,3.06-4.79,5.29-8.22,6.64c-2.82,1.11-5.74,1.51-8.76,1.21c-3.09-0.3-5.95-1.25-8.52-3
		c-2.97-2.03-5.06-4.73-6.12-8.2c-0.65-2.12-0.87-4.28-0.69-6.49c0.09-1.09,0.21-2.18,0.46-3.24c0.01-0.06,0-0.13,0-0.27
		c-0.17,0.18-0.29,0.3-0.4,0.43c-2.13,2.42-4.73,4.11-7.77,5.17c-1.39,0.49-2.81,0.77-4.27,0.91c-4.85,0.47-9.17-0.94-13.12-3.66
		c-2.95-2.03-5.3-4.66-7.34-7.59c-0.94-1.35-1.66-2.85-2.68-4.16c-1.33-1.71-2.86-3.22-4.51-4.61c0,0,0,0,0,0l-0.67-0.6
		c-0.09-0.11-0.19-0.21-0.32-0.28l-0.74-0.66C6.01,41.41,6,41.41,5.99,41.4l-0.02-0.02c0,0,0,0,0,0c-0.07-0.06-0.14-0.12-0.21-0.17
		c-0.39-0.29-0.72-0.64-1.1-0.94c-0.28-0.22-0.3-0.33,0.02-0.56c1.73-1.22,3.33-2.59,4.72-4.2c1.55-1.8,3.04-3.65,4.55-5.47
		c2.06-2.48,4.19-4.89,6.63-7.01c1.84-1.6,3.82-3,6.18-3.75c1.16-0.37,2.37-0.55,3.57-0.73c1.39-0.2,2.79-0.27,4.19-0.26
		c1.91,0.02,3.72,0.45,5.51,1.07c1.22,0.42,2.37,0.97,3.51,1.57c1.64,0.86,3.05,2,4.33,3.31c0.03,0.03,0.07,0.04,0.15,0.08
		c-0.22-0.64-0.44-1.23-0.62-1.83c-0.51-1.7-0.72-3.44-0.54-5.22c0.68-6.6,4.39-10.99,10.14-13.85c2.41-1.2,5.02-1.73,7.72-1.68
		c4.05,0.07,7.6,1.47,10.74,3.99c1.95,1.56,3.59,3.38,4.78,5.59c1.01,1.88,1.7,3.87,2.11,5.96c0.43,2.17,0.56,4.35,0.33,6.54
		c-0.5,4.84-2.36,9.03-6.13,12.24c-2.18,1.86-4.73,3.01-7.5,3.69c-1.39,0.34-2.8,0.53-4.22,0.65c-0.11,0.01-0.24-0.01-0.4,0.12
		c0.77,0.06,1.47,0.01,2.17,0.1c1.11,0.14,2.22,0.33,3.3,0.64c0.28,0.08,0.55,0.18,0.82,0.26c0,0,0,0,0,0s1.98,0.72,3.48,1.62
		c2.29,1.43,4.25,3.24,5.75,5.55c1.54,2.35,2.51,4.91,2.89,7.7C83.52,61.3,82.38,65.75,79.67,69.81z"/>
	<path class="st0" d="M74.92,46.66c-2.52-2.31-5.51-3.66-8.87-4.22c-2.31-0.39-4.62-0.32-6.92,0.11c-2.89,0.55-5.5,1.75-7.95,3.36
		c-1.95,1.28-3.77,2.74-5.7,4.05c-1.51,1.03-3.08,1.93-4.86,2.42c-2.08,0.57-4.15,0.45-6.2-0.16c-1.96-0.58-3.73-1.49-5.22-2.91
		c-2.23-2.13-3.4-4.76-3.64-7.81c-0.31-3.97,0.77-7.51,3.46-10.48c2.09-2.32,4.76-3.46,7.87-3.48c2.83-0.02,5.42,0.91,7.88,2.25
		c1.87,1.02,3.54,2.34,5.25,3.6c1.53,1.13,3.11,2.19,4.86,2.96c2.3,1,4.71,1.42,7.2,1.52c2.62,0.1,5.18-0.21,7.64-1.14
		c3.79-1.44,6.59-3.99,8.41-7.6c1.54-3.07,2.1-6.32,1.73-9.75c-0.15-1.33-0.4-2.63-0.84-3.89c-1.68-4.71-4.86-7.96-9.58-9.61
		C65,4.31,60.65,4.5,56.5,6.83c-2.46,1.38-4.34,3.35-5.56,5.91c-1.34,2.81-1.54,5.73-0.68,8.72c0.18,0.64,0.41,1.26,0.74,1.91
		c0.49-1.2,0.94-2.34,1.42-3.45c0.67-1.52,1.57-2.84,3.14-3.58c0.84-0.39,1.72-0.61,2.64-0.71c1.74-0.19,3.46-0.12,5.12,0.52
		c1.84,0.71,3.27,1.93,4.14,3.67c1.08,2.16,1.24,4.47,0.56,6.81c-1.24,4.27-5.31,6.91-10.05,5.98c-1.97-0.38-3.66-1.35-5.24-2.53
		c-1.95-1.45-3.72-3.12-5.62-4.63c-1.78-1.41-3.66-2.66-5.76-3.54c-0.4-0.17-0.8-0.31-1.21-0.43c0,0,0,0-0.01,0
		c-2.1-0.88-5.06-1.03-6.22-1.05c-0.08,0-0.17-0.01-0.25-0.01c-0.03,0-0.06,0-0.09,0c-0.1,0-0.16,0-0.16,0s0,0,0,0
		c-2.84,0.04-5.51,0.74-8,2.13c-2.92,1.63-5.28,3.9-7.4,6.44c-1.43,1.71-2.79,3.49-4.21,5.22c-1.68,2.06-3.75,3.71-5.75,5.42
		c-0.51,0.44-0.52,0.44,0,0.87c0.27,0.22,0.71,0.35,0.85,0.55c0.52,0.76,1.32,1.21,1.93,1.85c0.37,0.39,0.8,0.73,1.19,1.11
		c2.01,1.96,3.68,4.19,5.35,6.43c2.78,3.73,6.19,6.6,10.55,8.3c3.93,1.53,7.84,1.56,11.77,0.01c2.64-1.04,4.99-2.6,7.26-4.27
		c2.17-1.6,4.24-3.32,6.5-4.79c1.32-0.86,2.68-1.63,4.21-2.04c3.41-0.92,6.91,0.27,9,3.08c1.39,1.86,1.91,3.98,1.69,6.28
		c-0.27,2.88-1.63,5.09-4.16,6.52c-1.98,1.11-4.12,1.2-6.31,0.95c-2.54-0.28-4.26-1.64-5.31-3.93c-0.48-1.06-0.9-2.15-1.33-3.23
		c-0.07-0.17-0.07-0.39-0.28-0.49c-0.68,1.38-1.07,2.84-1.18,4.36c-0.41,5.58,2.93,10.34,7.72,12.62c2.84,1.35,5.83,1.72,8.93,1.21
		c4.19-0.68,7.59-2.7,10.2-6.05c1.08-1.38,1.9-2.91,2.49-4.58c0.48-1.35,0.81-2.72,0.93-4.14c0.26-2.92-0.24-5.72-1.47-8.39
		C77.69,49.9,76.52,48.12,74.92,46.66z"/>
	<path class="st0" d="M53.61,39.75c-3.11-1.86-6.11-3.87-8.96-6.12c-1.97-1.55-4.23-2.53-6.77-2.76c-2.67-0.24-4.89,0.65-6.54,2.79
		c-1.47,1.91-2.01,4.14-2.05,6.64c0.02,0.36,0.04,0.84,0.1,1.32c0.08,0.69,0.23,1.37,0.44,2.03c0.71,2.13,1.92,3.84,4.01,4.8
		c1.73,0.79,3.53,0.75,5.34,0.31c2.24-0.54,4.25-1.6,6.14-2.89c1.89-1.29,3.68-2.73,5.67-3.86c0.95-0.54,1.87-1.14,2.77-1.76
		c0.27-0.19,0.22-0.29-0.02-0.41C53.7,39.82,53.65,39.78,53.61,39.75z"/>
</g>
</svg>
