<?xml version="1.0" encoding="utf-8"?>
<!-- Generator: Adobe Illustrator 25.4.1, SVG Export Plug-In . SVG Version: 6.00 Build 0)  -->
<svg version="1.1" id="Layer_1" xmlns="http://www.w3.org/2000/svg" xmlns:xlink="http://www.w3.org/1999/xlink" x="0px" y="0px"
	 viewBox="0 0 159.34 80" style="enable-background:new 0 0 159.34 80;" xml:space="preserve">
<style type="text/css">
	.st0{fill:#F3893D;}
	.st1{fill-rule:evenodd;clip-rule:evenodd;fill:#F3893D;}
</style>
<g>
	<path class="st0" d="M33.4,45.7c1.97,0.29,3.96,0.51,5.92,0.9c2.11,0.42,4.24,0.83,6.26,1.54c7.31,2.55,9.94,7.79,7.79,15.25
		c-1.69,5.85-5.48,10.06-10.81,12.7c-9.86,4.88-20.02,5.26-30.14,0.79c-7.61-3.36-11.56-9.55-12.4-17.66
		c-0.17-1.65,0.54-3.54,1.34-5.06c0.39-0.73,2.08-1.37,2.92-1.13c1.05,0.3,1.88,1.5,2.7,2.4c0.23,0.26,0.19,0.83,0.15,1.25
		c-0.59,6.45,2.8,10.45,8.36,12.66c8.61,3.42,17.18,3.41,25.35-1.53c2.83-1.71,4.92-4.08,5.94-7.28c0.65-2.04,0.41-3.17-1.59-3.87
		c-3.16-1.1-6.45-1.91-9.75-2.52c-3.8-0.71-7.71-0.87-11.49-1.64c-4.04-0.82-5.25-4.25-2.91-7.7c0.68-1,1.54-1.95,2.48-2.7
		c4.84-3.86,10.05-7.13,15.94-9.13c1.71-0.58,3.62-0.82,5.42-0.77c3.44,0.09,5.77,3.82,4.63,7.06c-0.63,1.79-2.73,2.48-4.82,1.82
		c-0.97-0.31-2.22-0.48-3.11-0.13c-2.87,1.13-5.63,2.54-8.43,3.84C33.24,45.09,33.32,45.4,33.4,45.7z"/>
	<path class="st0" d="M84.74,54.67c-0.32,0.62-0.63,1.25-0.97,1.87c-2,3.65-3.89,7.37-6.08,10.9c-0.72,1.16-2.09,2.16-3.38,2.67
		c-2.47,0.99-4.46-0.45-4.47-3.1c-0.01-3.37,0.18-6.74,0.28-10.12c0.02-0.66,0-1.32-0.41-2.21c-0.41,0.5-0.92,0.94-1.2,1.5
		c-1.84,3.72-3.09,7.62-3.41,11.78c-0.21,2.75-1.93,4.43-4.18,4.11c-1.9-0.27-2.98-1.46-2.88-3.63c0.19-4.35,0.54-8.7,0.82-13.05
		c0.11-1.71,0.21-3.43,0.26-5.15c0.09-3.13,2.51-4.72,5.32-3.28c1.21,0.62,1.82,0.4,2.67-0.46c0.98-1,2.07-1.94,3.24-2.72
		c2.36-1.58,4.68-0.93,5.67,1.73c0.61,1.64,0.73,3.46,1.04,5.2c0.11,0.62,0.16,1.26,0.24,1.89c0.17,0.04,0.34,0.07,0.51,0.11
		c0.37-0.65,0.79-1.27,1.09-1.94c1.79-4,3.76-7.89,6.83-11.09c2.63-2.75,6.08-2.02,6.75,1.7c0.54,2.97,0.22,6.1,0.2,9.16
		c-0.04,4.9-0.42,9.81-0.13,14.69c0.23,3.92,1.49,4.69,5.34,4.67c2.63-0.01,3.84,0.94,3.92,3.09c0.09,2.42-1.11,3.47-3.77,3.7
		c-8.86,0.76-11.99-4.89-12.63-12.19c-0.23-2.62-0.04-5.28-0.04-7.93c0-0.58,0-1.16,0-1.75C85.15,54.76,84.94,54.71,84.74,54.67z"/>
	<path class="st0" d="M122.32,55.54c0.27-5.67,2.3-12.48,7.62-17.99c2.07-2.15,4.56-3.48,7.67-3.49c6.28-0.03,9.68,4.65,7.39,10.51
		c-2.68,6.87-7.48,12.08-13.67,15.96c-1.58,0.99-1.52,1.73-0.66,3.02c2.51,3.8,8,5.47,13.07,3.33c3.29-1.39,6.28-3.54,9.29-5.51
		c2.18-1.43,4.06-1.23,5.6,0.79c0.93,1.23,0.97,2.34-0.05,3.47c-5.15,5.66-15.58,10.72-23.97,8.54
		C126.7,72.11,122.28,66.03,122.32,55.54z M127.14,51.96c0.19,0.15,0.38,0.29,0.57,0.44c0.89-0.88,1.91-1.67,2.65-2.66
		c1.71-2.3,3.32-4.69,4.89-7.1c0.23-0.35,0.17-1.22-0.09-1.44c-0.31-0.26-1.01-0.13-1.51-0.03c-0.34,0.06-0.67,0.32-0.94,0.56
		C129.5,44.44,128.22,48.15,127.14,51.96z"/>
	<path class="st0" d="M108.78,66.9c1.25-8.55,2.44-17.11,3.76-25.65c0.7-4.54,1.64-9.05,2.42-13.58c0.47-2.75,1.39-3.72,3.53-3.53
		c2.28,0.21,3.63,1.81,3.26,4.43c-0.66,4.61-1.54,9.2-2.37,13.79c-1.67,9.24-3.25,18.5-3.26,27.93c0,2.18-1.32,3.4-3.48,3.42
		c-2.28,0.01-3.3-1.02-3.36-3.41c-0.02-1.11,0-2.21,0-3.32C109.1,66.95,108.94,66.93,108.78,66.9z"/>
	<path class="st0" d="M106.47,44.04c-0.83,5.4-1.62,10.81-2.5,16.2c-0.32,1.99-1.88,3.22-3.55,3.04c-1.98-0.21-3.45-1.9-3.18-3.99
		c0.54-4.26,1.28-8.5,1.88-12.75c0.19-1.33,0.22-2.69,0.29-4.04c0.14-2.66,1.58-4.14,3.84-3.94c2.29,0.21,3.31,1.64,3.1,4.34
		c-0.03,0.37-0.06,0.74-0.09,1.1C106.33,44.02,106.4,44.03,106.47,44.04z"/>
	<path class="st0" d="M100.63,34.92c-1-0.61-2.32-1-2.91-1.88c-0.6-0.89-1.03-2.72-0.54-3.3c0.72-0.86,2.31-1.11,3.57-1.32
		c0.35-0.06,1.1,0.89,1.27,1.49c0.47,1.68,1.26,1.35,1.96,0.33c0.93-1.35,1.75-2.8,2.43-4.3c0.74-1.63,2.88-2.78,4.53-2.12
		c0.35,0.14,0.76,0.88,0.67,1.24C110.59,29.49,105.78,34.55,100.63,34.92z"/>
	<g>
		<path class="st0" d="M101.37,15.61c-0.14-0.91-0.49-1.74-1.02-2.5c-0.28-0.4-0.6-0.77-0.97-1.1c-0.22-0.19-0.46-0.37-0.72-0.52
			c-0.1-0.06-0.17-0.14-0.27-0.21c-0.08-0.06-0.09-0.1,0-0.16c0.3-0.24,0.6-0.48,0.9-0.72c0.55-0.44,1.05-0.93,1.41-1.55
			c0.3-0.53,0.49-1.11,0.6-1.71c0.03-0.19,0.07-0.38,0.07-0.58c0-0.02,0.01-0.03,0.02-0.04c0-0.09-0.01-0.17,0.02-0.26
			c-0.03-0.08,0.01-0.17,0-0.25c0-0.19-0.01-0.38-0.01-0.57c-0.02-0.08-0.02-0.16-0.01-0.24c-0.02-0.02-0.03-0.04-0.03-0.07
			c0-0.06,0-0.12-0.01-0.17c-0.15-0.95-0.49-1.82-1.08-2.58c-1.07-1.4-2.51-2.18-4.25-2.36c-1.15-0.12-2.25,0.08-3.29,0.59
			c-0.95,0.47-1.64,1.19-2.05,2.17c-0.3,0.71-0.43,1.46-0.42,2.23c0,0.13,0,0.13-0.12,0.09c-0.38-0.15-0.77-0.3-1.15-0.44
			c-0.6-0.23-1.23-0.37-1.87-0.36c-0.59,0.01-1.17,0.08-1.74,0.22c-0.78,0.19-1.49,0.53-2.15,1.01c-0.77,0.56-1.41,1.27-2.01,2
			c-0.5,0.6-0.98,1.22-1.51,1.79c-0.65,0.71-1.45,1.24-2.17,1.87c0,0.02,0,0.03,0,0.05c0.02-0.01,0.03,0,0.04,0.01
			c0.27,0.26,0.58,0.47,0.87,0.71c0.74,0.6,1.41,1.28,2.01,2.02c0.29,0.36,0.54,0.74,0.84,1.09c0.4,0.46,0.84,0.87,1.29,1.28
			c0.61,0.56,1.28,1.01,2.05,1.31c0.83,0.33,1.69,0.46,2.57,0.46c0.51,0,1.01-0.1,1.49-0.27c0.02,0,0.03,0,0.05-0.01
			c0.19-0.08,0.39-0.16,0.59-0.23c0.27-0.1,0.54-0.21,0.81-0.31c0.09-0.03,0.1,0,0.1,0.07c0,0.33,0.02,0.67,0.07,1
			c0.11,0.71,0.34,1.37,0.75,1.96c0.66,0.96,1.58,1.54,2.69,1.84c1.02,0.28,2.05,0.28,3.08,0.07C98,22,99,21.47,99.81,20.58
			c0.83-0.92,1.37-1.98,1.56-3.21c0.02-0.12,0-0.24,0.06-0.35c0-0.37,0-0.73,0-1.1C101.36,15.84,101.38,15.72,101.37,15.61z
			 M99.84,19.54c-0.57,0.86-1.34,1.48-2.3,1.86c-0.79,0.31-1.61,0.42-2.45,0.34c-0.86-0.08-1.67-0.35-2.38-0.84
			c-0.83-0.57-1.42-1.32-1.71-2.29c-0.18-0.59-0.24-1.2-0.19-1.82c0.02-0.31,0.06-0.61,0.13-0.91c0-0.02,0-0.04,0-0.08
			c-0.05,0.05-0.08,0.08-0.11,0.12c-0.6,0.68-1.32,1.15-2.17,1.45c-0.39,0.14-0.79,0.22-1.2,0.25c-1.36,0.13-2.57-0.26-3.67-1.02
			c-0.83-0.57-1.48-1.31-2.05-2.12c-0.26-0.38-0.47-0.8-0.75-1.16c-0.37-0.48-0.8-0.9-1.26-1.29c0,0,0,0,0,0l-0.19-0.17
			c-0.03-0.03-0.05-0.06-0.09-0.08l-0.21-0.19c0,0,0,0-0.01,0l-0.01,0c0,0,0,0,0,0c-0.02-0.02-0.04-0.03-0.06-0.05
			c-0.11-0.08-0.2-0.18-0.31-0.26c-0.08-0.06-0.08-0.09,0-0.16c0.48-0.34,0.93-0.73,1.32-1.18c0.43-0.5,0.85-1.02,1.27-1.53
			c0.58-0.69,1.17-1.37,1.86-1.96C83.82,6,84.37,5.61,85.03,5.4c0.33-0.1,0.66-0.15,1-0.2c0.39-0.06,0.78-0.08,1.17-0.07
			c0.53,0.01,1.04,0.13,1.54,0.3c0.34,0.12,0.66,0.27,0.98,0.44c0.46,0.24,0.85,0.56,1.21,0.93c0.01,0.01,0.02,0.01,0.04,0.02
			c-0.06-0.18-0.12-0.34-0.17-0.51c-0.14-0.48-0.2-0.96-0.15-1.46c0.19-1.85,1.23-3.08,2.84-3.88c0.68-0.34,1.4-0.48,2.16-0.47
			c1.13,0.02,2.13,0.41,3.01,1.12c0.54,0.44,1.01,0.95,1.34,1.57c0.28,0.53,0.47,1.08,0.59,1.67c0.12,0.61,0.16,1.22,0.09,1.83
			c-0.14,1.36-0.66,2.53-1.72,3.43c-0.61,0.52-1.32,0.84-2.1,1.03c-0.39,0.1-0.78,0.15-1.18,0.18c-0.03,0-0.07,0-0.11,0.03
			c0.21,0.02,0.41,0,0.61,0.03c0.31,0.04,0.62,0.09,0.92,0.18c0.08,0.02,0.15,0.05,0.23,0.07c0,0,0,0,0,0s0.55,0.2,0.97,0.45
			c0.64,0.4,1.19,0.91,1.61,1.55c0.43,0.66,0.7,1.38,0.81,2.16C100.92,17.16,100.6,18.4,99.84,19.54z"/>
		<path class="st0" d="M98.51,13.06c-0.71-0.65-1.54-1.02-2.48-1.18c-0.65-0.11-1.29-0.09-1.94,0.03c-0.81,0.15-1.54,0.49-2.23,0.94
			c-0.55,0.36-1.06,0.77-1.6,1.13c-0.42,0.29-0.86,0.54-1.36,0.68c-0.58,0.16-1.16,0.13-1.74-0.04c-0.55-0.16-1.04-0.42-1.46-0.82
			c-0.62-0.6-0.95-1.33-1.02-2.19c-0.09-1.11,0.22-2.1,0.97-2.93c0.59-0.65,1.33-0.97,2.2-0.97c0.79-0.01,1.52,0.25,2.2,0.63
			c0.52,0.28,0.99,0.65,1.47,1.01c0.43,0.32,0.87,0.61,1.36,0.83c0.64,0.28,1.32,0.4,2.02,0.43c0.73,0.03,1.45-0.06,2.14-0.32
			c1.06-0.4,1.85-1.12,2.35-2.13c0.43-0.86,0.59-1.77,0.48-2.73c-0.04-0.37-0.11-0.74-0.24-1.09c-0.47-1.32-1.36-2.23-2.68-2.69
			c-1.24-0.44-2.46-0.38-3.62,0.27c-0.69,0.39-1.22,0.94-1.56,1.65c-0.37,0.79-0.43,1.6-0.19,2.44c0.05,0.18,0.12,0.35,0.21,0.53
			c0.14-0.34,0.26-0.65,0.4-0.97c0.19-0.43,0.44-0.8,0.88-1c0.23-0.11,0.48-0.17,0.74-0.2c0.49-0.05,0.97-0.03,1.43,0.14
			c0.51,0.2,0.92,0.54,1.16,1.03c0.3,0.6,0.35,1.25,0.16,1.91c-0.35,1.2-1.49,1.93-2.81,1.67c-0.55-0.11-1.02-0.38-1.47-0.71
			c-0.55-0.41-1.04-0.87-1.57-1.3c-0.5-0.4-1.02-0.74-1.61-0.99C89,6.08,88.89,6.05,88.78,6.01c0,0,0,0,0,0
			c-0.59-0.25-1.42-0.29-1.74-0.29c-0.02,0-0.05,0-0.07,0c-0.01,0-0.02,0-0.02,0c-0.03,0-0.04,0-0.04,0s0,0,0,0
			c-0.8,0.01-1.54,0.21-2.24,0.6c-0.82,0.46-1.48,1.09-2.07,1.8c-0.4,0.48-0.78,0.98-1.18,1.46c-0.47,0.58-1.05,1.04-1.61,1.52
			c-0.14,0.12-0.14,0.12,0,0.24c0.07,0.06,0.2,0.1,0.24,0.15c0.15,0.21,0.37,0.34,0.54,0.52c0.1,0.11,0.22,0.2,0.33,0.31
			c0.56,0.55,1.03,1.17,1.5,1.8c0.78,1.04,1.73,1.85,2.95,2.32c1.1,0.43,2.2,0.44,3.29,0c0.74-0.29,1.4-0.73,2.03-1.2
			c0.61-0.45,1.19-0.93,1.82-1.34c0.37-0.24,0.75-0.46,1.18-0.57c0.95-0.26,1.93,0.08,2.52,0.86c0.39,0.52,0.53,1.12,0.47,1.76
			c-0.08,0.81-0.46,1.43-1.17,1.83c-0.55,0.31-1.15,0.34-1.77,0.27c-0.71-0.08-1.19-0.46-1.49-1.1c-0.13-0.3-0.25-0.6-0.37-0.9
			c-0.02-0.05-0.02-0.11-0.08-0.14c-0.19,0.39-0.3,0.8-0.33,1.22c-0.11,1.56,0.82,2.89,2.16,3.53c0.8,0.38,1.63,0.48,2.5,0.34
			c1.17-0.19,2.13-0.76,2.86-1.69c0.3-0.39,0.53-0.81,0.7-1.28c0.13-0.38,0.23-0.76,0.26-1.16c0.07-0.82-0.07-1.6-0.41-2.35
			C99.29,13.97,98.96,13.47,98.51,13.06z"/>
		<path class="st0" d="M92.55,11.13c-0.87-0.52-1.71-1.08-2.51-1.71c-0.55-0.43-1.18-0.71-1.89-0.77c-0.75-0.07-1.37,0.18-1.83,0.78
			c-0.41,0.54-0.56,1.16-0.57,1.86c0.01,0.1,0.01,0.24,0.03,0.37c0.02,0.19,0.06,0.38,0.12,0.57c0.2,0.6,0.54,1.08,1.12,1.34
			c0.48,0.22,0.99,0.21,1.49,0.09c0.63-0.15,1.19-0.45,1.72-0.81c0.53-0.36,1.03-0.76,1.59-1.08c0.27-0.15,0.52-0.32,0.78-0.49
			c0.08-0.05,0.06-0.08-0.01-0.12C92.57,11.15,92.56,11.13,92.55,11.13z"/>
	</g>
	<path class="st1" d="M139.69,12.01l2.23-5.26l2.1,5.26H139.69z M145.12,18.47h5.85c-1.16-0.7-1.53-1.36-2.26-3.06
		c-4.02-9.35-5.45-12.61-5.45-12.61s-0.9,1.5-3.79,2.06c0.2,0.13,0.43,0.5,0.43,0.9c0,0.27-0.07,0.6-0.23,1.03l-3.83,8.61
		c-0.83,1.8-1.3,2.59-2.43,2.96c-0.9-0.5-1.06-1-1.06-2.79V6.69c0-1.86,0.17-2.33,1.13-2.86h-5.22c0.93,0.53,1.13,1,1.13,2.86v3.03
		h-7.28V6.69c0-1.86,0.2-2.33,1.16-2.86h-5.26c1,0.53,1.16,1,1.16,2.86v8.88c0,1.86-0.17,2.33-1.16,2.89h5.26
		c-0.96-0.57-1.16-1.03-1.16-2.89v-3.79h7.28v3.79c0,1.86-0.2,2.33-1.16,2.89h10.34c-0.5-0.3-0.9-0.73-0.9-1.3
		c0-0.4,0.13-0.67,0.47-1.4l0.83-2h5.79l0.87,2.23c0.27,0.57,0.37,0.83,0.37,1.2C145.98,17.74,145.52,18.17,145.12,18.47
		 M155.09,15.57V6.69c0-1.86,0.17-2.33,1.1-2.86H151c0.93,0.53,1.13,1,1.13,2.86v8.88c0,1.86-0.2,2.33-1.13,2.89h5.19
		C155.26,17.9,155.09,17.44,155.09,15.57 M117.54,2.8c-0.53,0.47-1.4,1.03-3.69,1.03h-6.55c-1.3,0-1.83-0.77-2.06-1.23
		c-0.5,1.13-1.76,2.73-2.53,3.36h6.12v9.41c0,1.9-0.27,2.49-1.16,3.09h5.22c-0.93-0.57-1.1-1.03-1.1-2.89V5.96h0.86
		c1.3,0,2-0.13,2.53-0.33C116.58,5.13,117.44,4.1,117.54,2.8"/>
</g>
</svg>
