<?xml version="1.0" encoding="utf-8"?>
<!-- Generator: Adobe Illustrator 25.4.1, SVG Export Plug-In . SVG Version: 6.00 Build 0)  -->
<svg version="1.1" xmlns="http://www.w3.org/2000/svg" xmlns:xlink="http://www.w3.org/1999/xlink" x="0px" y="0px"
	 viewBox="0 0 375.17 80" style="enable-background:new 0 0 375.17 80;" xml:space="preserve">
<style type="text/css">
	.st0{fill-rule:evenodd;clip-rule:evenodd;fill:#54AE42;}
	.st1{fill-rule:evenodd;clip-rule:evenodd;fill:#006744;}
</style>
<g id="Layer_2">
</g>
<g id="Layer_1">
	<g>
		<path class="st0" d="M224.71,21.44c-4.41,2.4-11.4,8.99-19.48,18.05c10.19,10.3,21.84,23.62,34.4,40.5
			c19.84-26.59,32.81-45.17,42.2-52.06c9.39-6.89,39.8-15.83,93.34-24.87C294.67,10.35,236.71,14.86,224.71,21.44"/>
		<path class="st1" d="M180.18,17.45C167.16,7.98,93.46,2.29,0,0c44.73,6.68,102.02,16.29,118.5,26.67
			c13.13,8.27,27.41,23.78,51.78,51.95L239.63,80C214.77,46.56,193.44,27.07,180.18,17.45"/>
	</g>
</g>
</svg>
