<?xml version="1.0" encoding="utf-8"?>
<!-- Generator: Adobe Illustrator 25.4.1, SVG Export Plug-In . SVG Version: 6.00 Build 0)  -->
<svg version="1.1" xmlns="http://www.w3.org/2000/svg" xmlns:xlink="http://www.w3.org/1999/xlink" x="0px" y="0px"
	 viewBox="0 0 273.34 80" style="enable-background:new 0 0 273.34 80;" xml:space="preserve">
<style type="text/css">
	.st0{fill-rule:evenodd;clip-rule:evenodd;fill:#54AE42;}
	.st1{fill-rule:evenodd;clip-rule:evenodd;fill:#006744;}
</style>
<g id="Layer_2">
</g>
<g id="Layer_1">
	<g>
		<path class="st0" d="M167.87,8.15c-1.68,0.91-4.33,3.41-7.4,6.86c3.87,3.91,8.3,8.97,13.07,15.39
			c7.54-10.1,12.47-17.16,16.03-19.78s15.12-6.01,35.46-9.45C194.45,3.93,172.43,5.64,167.87,8.15"/>
		<path class="st1" d="M150.95,6.63C146.01,3.03,118.01,0.87,82.5,0c16.99,2.54,38.76,6.19,45.02,10.13
			c4.99,3.14,10.41,9.03,19.67,19.74l26.35,0.52C164.09,17.69,155.99,10.29,150.95,6.63"/>
		<path class="st1" d="M227.17,42.38c-3.12-3.21-7.52-4.65-14.22-4.65c-6.67,0-11.08,1.43-14.28,4.64l-0.02,0.01
			c-3.01,3.18-4.08,7.5-4.08,16.49c0,8.99,1.07,13.3,4.06,16.46c3.23,3.24,7.64,4.67,14.31,4.67c6.71,0,11.09-1.43,14.22-4.65
			c3.43-3.52,4.08-8.51,4.08-16.48C231.25,50.89,230.6,45.89,227.17,42.38z M212.95,72.48c-2.41,0-4.26-0.24-5.71-0.72l15.81-20.94
			c0.46,2.02,0.51,4.62,0.51,7.89C223.56,68.51,223.16,72.48,212.95,72.48z M212.95,45.18c2.76,0,4.78,0.28,6.29,0.89l-16.21,21.48
			c-0.7-2.16-0.78-5.09-0.78-8.83C202.25,49.08,202.66,45.18,212.95,45.18"/>
		<path class="st1" d="M152.8,68.8c-0.81,2.5-3.62,3.62-9.08,3.62c-8.97,0-10.15-3.37-10.27-11.01c1.21,0,27.52,0,27.52,0v-1.57
			c0-6.54-0.18-11.85-2.48-15.77c-2.52-4.33-7.32-6.34-15.09-6.34c-14.76,0-17.64,7.76-17.64,21.2c0,6.42,0.5,11.45,3.01,15.09
			c2.72,3.94,7.44,5.77,14.86,5.77c10.15,0,15.75-3.61,16.65-10.76l0.04-0.21H152.8z M143.4,45.01c7.59,0,9.75,1.91,10.01,9.12
			c-1.18,0-18.67,0-19.86,0C133.89,47.34,136.44,45.01,143.4,45.01"/>
		<path class="st1" d="M273.34,59.84c0-6.54-0.19-11.85-2.47-15.77c-2.53-4.33-7.33-6.34-15.1-6.34c-14.76,0-17.64,7.76-17.64,21.2
			c0,6.42,0.52,11.45,3.03,15.09c2.7,3.94,7.42,5.77,14.86,5.77c10.15,0,15.75-3.61,16.66-10.76l0.02-0.21h-7.53
			c-0.8,2.5-3.6,3.62-9.08,3.62c-8.97,0-10.15-3.37-10.28-11.01c1.22,0,27.53,0,27.53,0V59.84z M245.93,54.13
			c0.33-6.79,2.89-9.12,9.84-9.12c7.59,0,9.75,1.91,10.01,9.12C264.61,54.13,247.13,54.13,245.93,54.13"/>
		<path class="st1" d="M67.04,79.14h7.67V39.37h-7.67V79.14"/>
		<path class="st1" d="M47.18,79.14l13.07-39.78h-8.08l-9.22,28l-9.22-28h-7.22l-9.22,28l-9.22-28H0l13.06,39.78h8.46l8.6-26.35
			l8.72,26.35H47.18"/>
		<path class="st1" d="M118.61,62.92c0,0.02,0-40.13,0-40.13h-7.68c0,0,0,15.05,0,17.02c-2.68-1.32-6.03-1.96-10.46-1.96
			c-6.62,0-11,1.42-14.19,4.62c-3.02,3.17-4.08,7.46-4.08,16.41c0,8.93,1.17,13.51,4.03,16.38c2.87,2.87,7.16,4.64,14.23,4.64
			c6.68,0,11-1.46,14.16-4.62C117.3,72.59,118.61,67.19,118.61,62.92z M100.47,45.28c10.21,0,10.61,3.88,10.61,13.43
			c0,9.48-0.43,13.67-10.61,13.67c-10.17,0-10.6-4.19-10.6-13.67C89.87,49.16,90.29,45.28,100.47,45.28"/>
		<path class="st1" d="M176.15,79.14h-7.69l-0.01-39.78h7.73v2.89c3.1-1.83,5.61-2.89,11.5-2.89c1.37,0,2.02,0.02,2.5,0.05v7.52
			c-0.69-0.1-1.66-0.16-2.5-0.16c-1.9,0-6.26,0.21-8.8,2.76c-1.79,1.78-2.75,4.71-2.75,9.84L176.15,79.14"/>
	</g>
</g>
</svg>
