<?xml version="1.0" encoding="utf-8"?>
<!-- Generator: Adobe Illustrator 25.4.1, SVG Export Plug-In . SVG Version: 6.00 Build 0)  -->
<svg version="1.1" id="Layer_1" xmlns="http://www.w3.org/2000/svg" xmlns:xlink="http://www.w3.org/1999/xlink" x="0px" y="0px"
	 viewBox="0 0 92.53 80.27" style="enable-background:new 0 0 92.53 80.27;" xml:space="preserve">
<style type="text/css">
	.st0{fill:#F35C17;}
</style>
<g>
	<polygon class="st0" points="47.05,0 49.62,0.55 50.41,1.44 50.19,3.48 49.84,19.38 48.95,19.5 46.48,13.43 45.59,7.72 45.93,2.01 
			"/>
	<polygon class="st0" points="61.95,32.28 69.45,26.88 73.48,24.99 77.41,22.4 81.11,21.51 82.12,24.42 79.08,26.67 72.36,31.6 
		70.23,31.94 66.89,33.17 63.74,33.72 	"/>
	<polygon class="st0" points="70.13,43.36 70.46,41.46 81.56,40.45 87.94,40.34 90.86,41.23 92.53,41.9 92.41,43.81 91.18,45.04 
		84.25,45.16 76.96,44.7 72.48,44.03 	"/>
	<polygon class="st0" points="59.71,58.27 60.49,57.26 61.49,58.04 61.39,61.29 64.75,67.91 66.31,72.28 66.77,73.84 66.87,79.78 
		65.31,80 62.96,76.86 61.39,77.43 60.27,76.64 60.15,72.16 59.48,71.49 59.26,61.75 	"/>
	<polygon class="st0" points="33.84,65.21 39.76,58.04 41.78,57.36 43.24,57.48 41.66,62.3 38.2,69.47 35.62,72.04 33.94,72.49 
		33.27,71.94 	"/>
	<polygon class="st0" points="1.44,56.59 6.28,54.68 15.35,53.33 20.29,53 21.28,51.99 21.28,54.46 17.15,56.71 7.94,60.4 
		2.47,61.96 0,60.17 0.12,57.15 	"/>
	<polygon class="st0" points="9.4,27.1 17.36,25.88 24.53,28.25 30.48,31.15 31.92,32.28 31.37,33.05 24.2,33.17 17.46,32.04 
		11.99,30.02 9.3,28.13 	"/>
	<path class="st0" d="M62.05,42.59l-1.11-6.16L55.9,30.6l-5.27-2.8l-7.94-1.01l-5.05,1.23l-3.12,3.36l-0.45,4.6l0.67,3.14l4.03,8.51
		l1.13,0.89l0.67,1.58l4.58,2.57l5.49,0.12l8.51-1.01l2.47-2.02l0.34-1.46l0.67-2.25L62.05,42.59z M55.35,47.39l-4.84,1.24
		l-6.72-3.59l-2.79-4.15l-1.8-3.46l1.01-3.71l2.02-1.44l7.51,1.01l2.02,1.11l2.69,4.27l1.34,5.26L55.35,47.39z"/>
</g>
</svg>
