<?xml version="1.0" encoding="utf-8"?>
<!-- Generator: Adobe Illustrator 25.4.1, SVG Export Plug-In . SVG Version: 6.00 Build 0)  -->
<svg version="1.1" id="Layer_1" xmlns="http://www.w3.org/2000/svg" xmlns:xlink="http://www.w3.org/1999/xlink" x="0px" y="0px"
	 viewBox="0 0 212.04 80.27" style="enable-background:new 0 0 212.04 80.27;" xml:space="preserve">
<style type="text/css">
	.st0{fill:#F35C17;}
</style>
<g>
	<path class="st0" d="M144.29,0l1.01,0.22l0.31,0.35l-0.09,0.8l-0.14,6.24l-0.35,0.05l-0.97-2.38l-0.35-2.24l0.13-2.24L144.29,0z
		 M150.14,12.67l2.95-2.12l1.58-0.75l1.54-1.02l1.45-0.35l0.4,1.14l-1.19,0.88l-2.64,1.94l-0.84,0.13l-1.31,0.48l-1.23,0.22
		L150.14,12.67z M153.35,17.02l0.13-0.75l4.36-0.4l2.51-0.05l1.15,0.35l0.65,0.26l-0.05,0.75l-0.48,0.48l-2.72,0.05l-2.86-0.18
		l-1.76-0.26L153.35,17.02z M149.27,22.88l0.3-0.4l0.4,0.3l-0.04,1.28l1.32,2.6l0.61,1.71l0.18,0.61l0.04,2.33l-0.61,0.09
		l-0.92-1.23l-0.61,0.22l-0.44-0.31l-0.05-1.76l-0.26-0.26l-0.09-3.82L149.27,22.88z M139.1,25.6l2.33-2.82l0.79-0.26l0.57,0.05
		l-0.62,1.89l-1.36,2.82l-1.02,1.01l-0.66,0.18l-0.26-0.22L139.1,25.6z M126.39,22.22l1.9-0.75l3.56-0.53l1.94-0.13l0.39-0.4v0.97
		l-1.62,0.88l-3.61,1.45l-2.15,0.61l-0.97-0.71l0.05-1.19L126.39,22.22z M129.51,10.64l3.13-0.48l2.82,0.93l2.33,1.14l0.57,0.44
		l-0.22,0.3l-2.82,0.05l-2.64-0.44l-2.15-0.79l-1.05-0.75L129.51,10.64z M140.6,11l-1.23,1.32l-0.18,1.81l0.26,1.23l1.58,3.34
		l0.44,0.35l0.26,0.62l1.8,1.01l2.16,0.05l3.34-0.4l0.97-0.79l0.13-0.57l0.26-0.88l-0.22-1.36l-0.44-2.42l-1.98-2.29l-2.07-1.1
		l-3.12-0.4L140.6,11z M142.4,12.67l2.95,0.4l0.79,0.44l1.05,1.67l0.53,2.06l-0.17,1.36l-1.9,0.49l-2.64-1.41l-1.09-1.63l-0.71-1.36
		l0.4-1.46L142.4,12.67z M2.14,59.35c1.72,0.86,4.96,2.08,7.85,2.08c2.45,0,3.74-1.23,3.74-2.7c0-1.47-0.98-2.51-3.74-3.86
		c-3.44-1.72-6.31-4.23-6.31-7.97c0-6.24,5.45-10.35,13.17-10.35c3.49,0,6.25,0.74,7.66,1.54l-2.08,6.25
		c-1.22-0.55-3.37-1.29-6-1.29c-2.33,0-3.86,0.98-3.86,2.63c0,1.22,1.23,2.26,3.61,3.37c3.31,1.65,6.75,4.1,6.75,8.27
		c0,6.86-5.82,10.6-13.79,10.54C5.39,67.81,1.78,66.83,0,65.54C0.07,65.44,2.14,59.35,2.14,59.35z M57.23,37.23l-3.8,20.22
		c-0.74,3.8-1.23,7.05-1.65,9.75h-7.78l0.55-4.84l-0.12-0.07c-3.06,3.92-6.68,5.58-10.29,5.58c-4.84,0-7.72-2.7-7.72-8.39
		c0-1.6,0.18-3.44,0.61-5.52l3.18-16.73h8.82l-3.06,16.06c-0.25,1.35-0.43,2.88-0.43,3.98c0,1.9,0.8,3.44,3,3.44
		c3,0,6.13-3.62,7.23-9.56l2.64-13.91H57.23z M57.16,67.2l3.8-20.23c0.74-3.79,1.23-7.04,1.6-9.74h7.79l-0.55,4.96h0.12
		c2.82-3.86,6.56-5.64,10.48-5.64c4.91,0,7.72,3.01,7.72,8.22c0,1.34-0.24,3.55-0.49,5.02L84.31,67.2h-8.82l3.13-16.61
		c0.18-1.04,0.3-2.21,0.3-3.31c0-2.14-0.73-3.61-3-3.61c-2.88,0-6.18,3.61-7.47,10.23l-2.45,13.3H57.16z M101.03,37.23l0.07,12.75
		c0.06,3.37-0.06,6.19-0.24,9.5h0.12c1.04-3.19,2.39-6.19,3.62-9.2l5.94-13.05h7.17l0.74,12.62c0.18,3.55,0.3,6.44,0.12,9.63h0.18
		c0.98-3.31,2.02-6.25,3.24-9.75l5.15-12.5h8.89L121.43,67.2h-8.27l-0.86-10.42c-0.24-3.12-0.24-6-0.24-9.55h-0.18
		c-1.59,4.23-2.27,6.44-3.55,9.13l-5.09,10.85h-8.27l-2.82-29.97H101.03z M132.89,67.2l5.7-29.97h8.76l-5.64,29.97H132.89z
		 M147.29,67.2l3.8-20.23c0.73-3.79,1.23-7.04,1.6-9.74h7.78l-0.55,4.96h0.13c2.82-3.86,6.55-5.64,10.48-5.64
		c4.9,0,7.72,3.01,7.72,8.22c-0.01,1.34-0.25,3.55-0.49,5.02l-3.31,17.41h-8.82l3.13-16.61c0.18-1.04,0.31-2.21,0.31-3.31
		c0-2.14-0.74-3.61-3.01-3.61c-2.88,0-6.18,3.61-7.47,10.23l-2.45,13.3H147.29z M202.49,43.85c-0.67-0.31-1.96-0.55-3.18-0.55
		c-5.33,0-9.13,5.94-9.13,11.58c0,3.06,1.35,5.27,4.04,5.27c2.88,0,5.76-3.25,6.75-8.27L202.49,43.85z M181.9,71.36
		c1.65,0.98,5.27,1.65,7.84,1.65c4.41,0,7.66-1.96,8.95-7.97l0.49-2.57h-0.12c-2.33,3.07-5.02,4.48-8.58,4.48
		c-5.95,0-9.56-4.85-9.62-10.73c-0.07-9.86,7.05-19.67,20.1-19.67c4.23,0,7.9,0.8,11.08,2.08l-4.53,24.69
		c-1.04,5.52-2.76,10.42-6.31,13.3c-3.25,2.58-7.6,3.37-11.58,3.37c-4.05,0-7.72-0.73-9.8-1.9L181.9,71.36z"/>
</g>
</svg>
