<?xml version="1.0" encoding="utf-8"?>
<!-- Generator: Adobe Illustrator 25.4.1, SVG Export Plug-In . SVG Version: 6.00 Build 0)  -->
<svg version="1.1" id="Layer_1" xmlns="http://www.w3.org/2000/svg" xmlns:xlink="http://www.w3.org/1999/xlink" x="0px" y="0px"
	 viewBox="0 0 82.27 80" style="enable-background:new 0 0 82.27 80;" xml:space="preserve">
<style type="text/css">
	.st0{fill-rule:evenodd;clip-rule:evenodd;fill:#D72C40;}
	
		.st1{fill-rule:evenodd;clip-rule:evenodd;fill:#FFFFFF;stroke:#425FA7;stroke-width:0.4096;stroke-linejoin:round;stroke-miterlimit:2.6131;}
	.st2{fill-rule:evenodd;clip-rule:evenodd;fill:#6E6D85;stroke:#FFFFFF;stroke-width:0.1773;stroke-miterlimit:2.6131;}
	
		.st3{fill-rule:evenodd;clip-rule:evenodd;fill:#FFEA00;stroke:#425FA7;stroke-width:0.4096;stroke-linejoin:round;stroke-miterlimit:2.6131;}
	.st4{fill-rule:evenodd;clip-rule:evenodd;fill:#FFEA00;stroke:#425FA7;stroke-width:0.4096;stroke-miterlimit:2.6131;}
	.st5{fill-rule:evenodd;clip-rule:evenodd;fill:#FFEA00;stroke:#425FA7;stroke-width:0.3184;stroke-miterlimit:2.6131;}
</style>
<path class="st0" d="M82.27,0H38.8C27.15,0,17.03,8.01,14.35,19.34L0,80h47.41c10.98,0,20.43-7.75,22.58-18.52L82.27,0z"/>
<path class="st1" d="M45.14,53.33c1.56,4.1,8.01,9.77,12.51,10.36c2.93,0.2,3.13-1.95,1.95-3.32c-3.71-4.5-5.28-6.25-7.43-11.34
	c0.59,0.39,3.71,2.15,6.25,1.17c1.17-0.39,1.17-1.76,0.78-2.54c-1.56-2.74-4.89-3.71-5.28-3.91c1.17-0.39,3.13-0.2,6.65-1.17
	c2.34-0.59,6.45-2.34,7.82-3.71c2.54-2.35,0.98-3.71-0.39-3.71c-1.17,0-2.15,0-4.3-0.2c-3.52-0.2-4.3-0.39-7.03-0.39
	c-2.74,0.19-4.5,1.37-4.69,1.17c2.34-1.56,3.13-3.32,3.71-4.49c0.78-1.56,1.37-4.69-3.32-2.54c-1.95,0.98-3.71,2.35-5.08,3.91
	c0.59-5.86,0.39-12.7-2.74-16.22c-2.15-2.15-3.52-0.39-3.52,1.37c-0.19,5.67,0.2,7.82-1.56,12.9c0,0.39-0.59,0.59-0.78,0.19
	c-2.74-2.74-5.86-5.28-7.62-5.47c-1.56-0.39-2.35,0.59-1.56,1.95c1.17,1.95,3.13,4.49,4.5,8.01c-2.15-2.54-4.89-1.95-6.06-1.76
	c-2.74,0.39-8.79,1.76-10.16,2.15c-1.37,0.78-1.17,1.95-0.98,2.35c0.59,0.78,2.15,1.17,4.89,1.76c3.71,0.78,5.08,2.15,11.33,2.93
	c-3.13,0.78-6.25,2.15-7.43,3.71c-0.39,0.78-0.39,1.76,0.98,2.15c1.37,0.59,4.3,0.78,7.04,0c-2.74,2.74-3.13,5.28-3.91,7.04
	c-0.78,1.95-1.95,4.3-3.32,6.25c-0.59,0.59-0.2,2.54,2.74,1.17c6.65-3.13,11.34-9.77,11.34-9.77s0.39,3.52,1.17,4.5
	c0.39,0.59,1.37,0.78,1.95,0C44.55,56.85,44.75,55.68,45.14,53.33L45.14,53.33z"/>
<polygon class="st2" points="42.99,46.88 46.7,44.54 47.29,39.07 43.18,35.74 37.71,38.68 37.91,44.73 42.99,46.88 "/>
<path class="st3" d="M45.72,38.29c1.56,0.59,3.13,0,3.71-1.37c0.39-1.37-0.39-2.93-1.95-3.52c-1.56-0.59-3.32,0-3.71,1.37
	C43.18,36.14,43.96,37.7,45.72,38.29L45.72,38.29z"/>
<path class="st3" d="M40.84,37.7c-1.56,0.98-3.32,0.98-3.91-0.2c-0.78-0.98,0-2.74,1.37-3.71c1.56-0.98,3.32-0.98,3.91,0.2
	C42.79,34.96,42.2,36.72,40.84,37.7L40.84,37.7z"/>
<path class="st3" d="M36.15,45.13c-1.37,0-2.54-1.37-2.54-3.13c-0.2-1.95,0.78-3.52,2.15-3.52c1.17-0.2,2.34,1.37,2.54,3.13
	C38.49,43.37,37.51,44.93,36.15,45.13L36.15,45.13z"/>
<path class="st4" d="M40.45,45.32c-1.76-0.78-3.71-0.2-4.3,0.98c-0.59,1.56,0.39,3.13,2.15,3.91c1.76,0.78,3.71,0.39,4.3-0.98
	C43.18,47.86,42.2,46.1,40.45,45.32L40.45,45.32z"/>
<path class="st3" d="M48.46,45.13c-1.37-0.19-2.15-1.95-1.95-3.91c0.39-1.95,1.76-3.52,3.13-3.13c1.37,0.19,2.35,1.95,2.15,3.91
	C51.39,43.95,50.02,45.32,48.46,45.13L48.46,45.13z"/>
<path class="st4" d="M47.68,49.82c-1.56,0.98-3.32,0.78-4.1-0.59c-0.78-1.17-0.19-3.13,1.37-3.91c1.37-0.98,3.32-0.78,4.1,0.39
	C49.63,47.08,49.24,48.84,47.68,49.82L47.68,49.82z"/>
<path class="st5" d="M41.42,45.32c-2.15-0.59-3.32-2.93-2.54-5.08c0.59-2.15,2.93-3.32,4.89-2.74c2.15,0.59,3.32,2.93,2.54,5.08
	C45.72,44.73,43.38,46.1,41.42,45.32L41.42,45.32z"/>
</svg>
