<?xml version="1.0" encoding="utf-8"?>
<!-- Generator: Adobe Illustrator 25.4.1, SVG Export Plug-In . SVG Version: 6.00 Build 0)  -->
<svg version="1.1" id="Layer_1" xmlns="http://www.w3.org/2000/svg" xmlns:xlink="http://www.w3.org/1999/xlink" x="0px" y="0px"
	 viewBox="0 0 433.96 80" style="enable-background:new 0 0 433.96 80;" xml:space="preserve">
<style type="text/css">
	.st0{fill-rule:evenodd;clip-rule:evenodd;fill:#D72C40;}
	
		.st1{fill-rule:evenodd;clip-rule:evenodd;fill:#FFFFFF;stroke:#425FA7;stroke-width:0.4096;stroke-linejoin:round;stroke-miterlimit:2.6131;}
	.st2{fill-rule:evenodd;clip-rule:evenodd;fill:#6E6D85;stroke:#FFFFFF;stroke-width:0.1773;stroke-miterlimit:2.6131;}
	
		.st3{fill-rule:evenodd;clip-rule:evenodd;fill:#FFEA00;stroke:#425FA7;stroke-width:0.4096;stroke-linejoin:round;stroke-miterlimit:2.6131;}
	.st4{fill-rule:evenodd;clip-rule:evenodd;fill:#FFEA00;stroke:#425FA7;stroke-width:0.4096;stroke-miterlimit:2.6131;}
	.st5{fill-rule:evenodd;clip-rule:evenodd;fill:#FFEA00;stroke:#425FA7;stroke-width:0.3184;stroke-miterlimit:2.6131;}
	.st6{fill-rule:evenodd;clip-rule:evenodd;fill:#003D8E;}
</style>
<g>
	<path class="st0" d="M82.27,0H38.8C27.15,0,17.03,8.01,14.35,19.34L0,80h47.41c10.98,0,20.43-7.75,22.58-18.52L82.27,0z"/>
	<path class="st1" d="M45.14,53.33c1.56,4.1,8.01,9.77,12.51,10.36c2.93,0.2,3.13-1.95,1.95-3.32c-3.71-4.5-5.28-6.25-7.43-11.34
		c0.59,0.39,3.71,2.15,6.25,1.17c1.17-0.39,1.17-1.76,0.78-2.54c-1.56-2.74-4.89-3.71-5.28-3.91c1.17-0.39,3.13-0.2,6.65-1.17
		c2.34-0.59,6.45-2.34,7.82-3.71c2.54-2.35,0.98-3.71-0.39-3.71c-1.17,0-2.15,0-4.3-0.2c-3.52-0.2-4.3-0.39-7.03-0.39
		c-2.74,0.19-4.5,1.37-4.69,1.17c2.34-1.56,3.13-3.32,3.71-4.49c0.78-1.56,1.37-4.69-3.32-2.54c-1.95,0.98-3.71,2.35-5.08,3.91
		c0.59-5.86,0.39-12.7-2.74-16.22c-2.15-2.15-3.52-0.39-3.52,1.37c-0.19,5.67,0.2,7.82-1.56,12.9c0,0.39-0.59,0.59-0.78,0.19
		c-2.74-2.74-5.86-5.28-7.62-5.47c-1.56-0.39-2.35,0.59-1.56,1.95c1.17,1.95,3.13,4.49,4.5,8.01c-2.15-2.54-4.89-1.95-6.06-1.76
		c-2.74,0.39-8.79,1.76-10.16,2.15c-1.37,0.78-1.17,1.95-0.98,2.35c0.59,0.78,2.15,1.17,4.89,1.76c3.71,0.78,5.08,2.15,11.33,2.93
		c-3.13,0.78-6.25,2.15-7.43,3.71c-0.39,0.78-0.39,1.76,0.98,2.15c1.37,0.59,4.3,0.78,7.04,0c-2.74,2.74-3.13,5.28-3.91,7.04
		c-0.78,1.95-1.95,4.3-3.32,6.25c-0.59,0.59-0.2,2.54,2.74,1.17c6.65-3.13,11.34-9.77,11.34-9.77s0.39,3.52,1.17,4.5
		c0.39,0.59,1.37,0.78,1.95,0C44.55,56.85,44.75,55.68,45.14,53.33L45.14,53.33z"/>
	<polygon class="st2" points="42.99,46.88 46.7,44.54 47.29,39.07 43.18,35.74 37.71,38.68 37.91,44.73 42.99,46.88 	"/>
	<path class="st3" d="M45.72,38.29c1.56,0.59,3.13,0,3.71-1.37c0.39-1.37-0.39-2.93-1.95-3.52c-1.56-0.59-3.32,0-3.71,1.37
		C43.18,36.14,43.96,37.7,45.72,38.29L45.72,38.29z"/>
	<path class="st3" d="M40.84,37.7c-1.56,0.98-3.32,0.98-3.91-0.2c-0.78-0.98,0-2.74,1.37-3.71c1.56-0.98,3.32-0.98,3.91,0.2
		C42.79,34.96,42.2,36.72,40.84,37.7L40.84,37.7z"/>
	<path class="st3" d="M36.15,45.13c-1.37,0-2.54-1.37-2.54-3.13c-0.2-1.95,0.78-3.52,2.15-3.52c1.17-0.2,2.34,1.37,2.54,3.13
		C38.49,43.37,37.51,44.93,36.15,45.13L36.15,45.13z"/>
	<path class="st4" d="M40.45,45.32c-1.76-0.78-3.71-0.2-4.3,0.98c-0.59,1.56,0.39,3.13,2.15,3.91c1.76,0.78,3.71,0.39,4.3-0.98
		C43.18,47.86,42.2,46.1,40.45,45.32L40.45,45.32z"/>
	<path class="st3" d="M48.46,45.13c-1.37-0.19-2.15-1.95-1.95-3.91c0.39-1.95,1.76-3.52,3.13-3.13c1.37,0.19,2.35,1.95,2.15,3.91
		C51.39,43.95,50.02,45.32,48.46,45.13L48.46,45.13z"/>
	<path class="st4" d="M47.68,49.82c-1.56,0.98-3.32,0.78-4.1-0.59c-0.78-1.17-0.19-3.13,1.37-3.91c1.37-0.98,3.32-0.78,4.1,0.39
		C49.63,47.08,49.24,48.84,47.68,49.82L47.68,49.82z"/>
	<path class="st5" d="M41.42,45.32c-2.15-0.59-3.32-2.93-2.54-5.08c0.59-2.15,2.93-3.32,4.89-2.74c2.15,0.59,3.32,2.93,2.54,5.08
		C45.72,44.73,43.38,46.1,41.42,45.32L41.42,45.32z"/>
	<path class="st6" d="M106.01,30.08c-12.06,0-20.03,6.06-20.03,15.05c0,9.38,7.98,15.05,20.03,15.05c5.75,0,9.65-1.17,12.06-2.34
		c0.56-0.39,0.74-0.78,0.37-1.37c-2.23-2.54-4.27-4.89-5.56-6.45c-0.37-0.39-0.74-0.59-0.93-0.39c-1.48,0.78-3.52,1.37-6.12,1.37
		c-3.52,0-5.38-1.56-5.75-3.13c0,0,15.4,0,22.07,0c1.11,0,1.3,0,1.48-0.59c0.19-0.98,0.37-2.15,0.37-4.1
		C124.01,35.16,116.22,30.08,106.01,30.08L106.01,30.08z M100.08,42.39c0.37-1.37,2.04-2.93,5.38-2.93c3.52,0,5.38,1.17,5.75,2.93
		H100.08L100.08,42.39z"/>
	<path class="st6" d="M153.13,32.81c-2.04-1.37-5.94-2.35-9.27-2.35c-9.83,0-16.88,5.86-16.88,14.66c0,8.99,6.12,14.66,16.88,14.66
		c3.15,0,7.23-0.59,9.65-3.13v1.56c0,0.78,0.19,0.78,0.74,0.78c4.27,0,9.65,0,13.91,0c0.56,0,0.56,0,0.56-0.78
		c0-9.97,0-26.77,0-36.94c0-0.78,0-0.78-0.56-0.78c-4.45,0-10.2,0-14.47,0c-0.37,0-0.56,0.2-0.56,0.78V32.81L153.13,32.81z
		 M147.75,40.83c3.15,0,5.57,1.76,5.57,4.5c0,2.74-2.23,4.3-5.57,4.3c-3.52,0-5.75-1.37-5.75-4.3
		C142,42.58,144.23,40.83,147.75,40.83L147.75,40.83z"/>
	<path class="st6" d="M195.05,30.08c-12.06,0-20.03,6.06-20.03,15.05c0,9.38,7.98,15.05,19.85,15.05c5.94,0,9.65-1.17,12.06-2.34
		c0.74-0.39,0.93-0.78,0.56-1.37c-2.23-2.54-4.27-4.89-5.56-6.45c-0.37-0.39-0.74-0.59-0.93-0.39c-1.48,0.78-3.52,1.37-6.12,1.37
		c-3.52,0-5.38-1.56-5.75-3.13c0,0,15.4,0,22.07,0c1.11,0,1.3,0,1.48-0.59c0.19-0.98,0.37-2.15,0.37-4.1
		C213.04,35.16,205.25,30.08,195.05,30.08L195.05,30.08z M189.11,42.39c0.37-1.37,2.04-2.93,5.38-2.93c3.52,0,5.38,1.17,5.57,2.93
		H189.11L189.11,42.39z"/>
	<path class="st6" d="M234.56,21.28c0-0.78-0.19-0.78-0.56-0.78c-4.45,0-10.57,0-15.02,0c-0.37,0-0.37,0-0.37,0.78
		c0,9.97,0,26.77,0,36.94c0,0.78,0,0.78,0.56,0.78c4.45,0,10.57,0,14.84,0c0.37,0,0.56-0.2,0.56-0.59V21.28L234.56,21.28z"/>
	<path class="st6" d="M274.44,59.39c0.56,0.78,1.48,0.78,2.04,0c5.94-10.16,10.57-17.78,16.51-27.75c0.19-0.39,0.19-0.39-0.74-0.39
		h-13.36c-0.37,0-0.56-0.2-0.74,0.19c-1.48,2.35-4.82,7.43-4.82,7.43l-5.75-7.23c-0.37-0.39-0.56-0.39-1.11-0.39
		c-0.74,0-0.93,0-1.11,0.39l-6.31,7.23c0,0-2.23-4.1-4.45-7.43c0-0.19,0-0.19-0.74-0.19h-14.28c-0.93,0-0.93,0-0.37,0.59
		c6.49,10.75,12.8,21.3,16.51,27.56c0.37,0.78,1.48,0.59,2.04,0c2.78-3.52,8.53-10.75,8.53-10.75S271.47,55.29,274.44,59.39
		L274.44,59.39z"/>
	<path class="st6" d="M313.77,30.08c-12.06,0-20.22,6.06-20.22,15.05c0,9.38,8.16,15.05,20.03,15.05c5.94,0,9.65-1.17,12.06-2.34
		c0.74-0.39,0.93-0.78,0.37-1.37c-2.04-2.54-4.08-4.89-5.38-6.45c-0.37-0.39-0.74-0.59-1.11-0.39c-1.3,0.78-3.34,1.37-6.12,1.37
		c-3.34,0-5.38-1.56-5.57-3.13c0,0,15.4,0,22.07,0c1.11,0,1.3,0,1.48-0.59c0.19-0.98,0.19-2.15,0.19-4.1
		C331.57,35.16,323.97,30.08,313.77,30.08L313.77,30.08z M307.83,42.39c0.37-1.37,1.86-2.93,5.38-2.93c3.34,0,5.38,1.17,5.57,2.93
		H307.83L307.83,42.39z"/>
	<path class="st6" d="M353.46,31.84c0-0.59-0.18-0.59-0.56-0.59c-4.45,0-10.76,0-15.21,0c-0.56,0-0.56,0-0.56,0.59
		c0,10.16,0,16.22,0,26.38c0,0.78,0.19,0.78,0.56,0.78c4.64,0,10.94,0,15.21,0c0.37,0,0.56-0.2,0.56-0.59V31.84L353.46,31.84z
		 M353.46,21.28c0-0.78-0.18-0.78-0.56-0.78c-3.52,0-11.32,0-15.21,0c-0.56,0-0.56,0.39-0.56,0.78v7.23c0,0.39,0.19,0.78,0.56,0.78
		c4.64,0,10.76,0,15.21,0c0.37,0,0.56-0.19,0.56-0.59V21.28L353.46,21.28z"/>
	<path class="st6" d="M359.77,53.92c2.41,3.71,7.98,6.25,16.51,6.25c9.83,0,18.55-4.69,18.55-10.75c0-6.06-5.01-8.4-12.61-9.18
		c-0.93-0.2-1.48-0.2-2.23-0.2c-4.45-0.39-5.56-0.59-5.56-1.76c0-0.98,1.11-1.56,3.52-1.56c2.6,0,3.89,0.78,5.19,2.15
		c0.37,0.39,0.37,0.39,0.93,0.19l9.09-2.15c0.56-0.19,0.56-0.39,0.19-0.78c-1.48-3.71-6.68-6.06-15.21-6.06
		c-10.76,0-17.81,4.1-17.81,10.75c0,6.84,8.16,8.6,12.61,8.79c0.56,0,1.3,0,1.67,0.2c3.71,0.2,4.82,0.78,4.82,1.95
		c0,1.17-1.11,1.76-3.71,1.76c-2.97,0-4.64-1.17-5.94-2.74c-0.19-0.19-0.19-0.19-0.56-0.19l-9.09,2.54
		C359.4,53.14,359.21,53.14,359.77,53.92L359.77,53.92z"/>
	<path class="st6" d="M398.91,53.92c2.41,3.71,7.98,6.25,16.32,6.25c10.02,0,18.73-4.69,18.73-10.75c0-6.06-5.19-8.4-12.8-9.18
		c-0.74-0.2-1.48-0.2-2.23-0.2c-4.27-0.39-5.38-0.59-5.38-1.76c0-0.98,0.93-1.56,3.52-1.56c2.41,0,3.71,0.78,5.01,2.15
		c0.37,0.39,0.56,0.39,0.93,0.19l9.09-2.15c0.56-0.19,0.56-0.39,0.37-0.78c-1.48-3.71-6.86-6.06-15.4-6.06
		c-10.57,0-17.62,4.1-17.62,10.75c0,6.84,7.98,8.6,12.61,8.79c0.56,0,1.11,0,1.48,0.2c3.9,0.2,5.01,0.78,5.01,1.95
		c0,1.17-1.3,1.76-3.89,1.76c-2.78,0-4.64-1.17-5.75-2.74c-0.19-0.19-0.19-0.19-0.74-0.19l-9.09,2.54
		C398.53,53.14,398.35,53.14,398.91,53.92L398.91,53.92z"/>
</g>
</svg>
