<?xml version="1.0" encoding="utf-8"?>
<!-- Generator: Adobe Illustrator 25.4.1, SVG Export Plug-In . SVG Version: 6.00 Build 0)  -->
<svg version="1.1" id="Layer_1" xmlns="http://www.w3.org/2000/svg" xmlns:xlink="http://www.w3.org/1999/xlink" x="0px" y="0px"
	 viewBox="0 0 80 80" style="enable-background:new 0 0 80 80;" xml:space="preserve">
<style type="text/css">
	.st0{fill:#CD2026;}
	.st1{fill:#FFFFFF;}
</style>
<path class="st0" d="M71.7,80H8.3C3.7,80,0,76.3,0,71.7V8.3C0,3.7,3.7,0,8.3,0h63.4C76.3,0,80,3.7,80,8.3v63.4
	C80,76.3,76.3,80,71.7,80z"/>
<path class="st1" d="M75.3,15.4c-8.4,0-14.9,0-15.9,0c-5.5,0-5.5,6.2-5.5,8.4v33.4c0,1-0.9,2.8-2.8,2.8c-1.9,0-2.8-1.9-2.8-2.8V15.4
	H31.6v41.7c0,0.9-0.9,2.8-2.8,2.8s-2.8-1.9-2.8-2.8V23.7c0-1.9,0-8.4-5.6-8.4H4.7v0.9c0,0,4.6-0.6,4.6,3.7v33.4
	c0,1.9,1.9,11.1,10.2,11.1h40.9c8.4,0,10.2-9.3,10.2-11.1V21.9c0-4.6,3.7-4.6,3.7-4.6h1V15.4z"/>
</svg>
