<?xml version="1.0" encoding="utf-8"?>
<!-- Generator: Adobe Illustrator 25.4.1, SVG Export Plug-In . SVG Version: 6.00 Build 0)  -->
<svg version="1.1" id="Layer_1" xmlns="http://www.w3.org/2000/svg" xmlns:xlink="http://www.w3.org/1999/xlink" x="0px" y="0px"
	 viewBox="0 0 341.6 80" style="enable-background:new 0 0 341.6 80;" xml:space="preserve">
<style type="text/css">
	.st0{fill:#CD2026;}
</style>
<g id="layer1">
	<g id="g825" transform="translate(1.93 6.119)">
		<path id="path6" class="st0" d="M102.3,5.6c5.5,0,9.9-2.6,9.9-5.9s-4.4-5.9-9.9-5.9c-5.5,0-9.9,2.6-9.9,5.9S96.9,5.6,102.3,5.6"/>
		<path id="path8" class="st0" d="M269.3,5.6c5.5,0,9.9-2.6,9.9-5.9s-4.4-5.9-9.9-5.9c-5.5,0-9.9,2.6-9.9,5.9S263.8,5.6,269.3,5.6"
			/>
		<path id="rect10" class="st0" d="M91.8,15.8h22.5v58.1H91.8V15.8z"/>
		<path id="rect12" class="st0" d="M255.4,15.8h23.7v58.1h-23.7V15.8z"/>
		<path id="path14" class="st0" d="M334.9,68V51.3c0-2.4-1.2-9.5-5.9-9.5c0,0,5.9-2.4,5.9-7.1V22.9c0-5.2-4.7-11.9-10.7-11.9H174.8
			c-3.6,0-9.5,2.8-9.5,8.3v5.9c0,1.4-0.8,3.3-2.4,3.6c-2.7,0.5-3.6-2.6-4.2-3.6c-0.6-1-6.1-8.7-6.5-9.5c-0.4-0.8-4.6-4.7-9.5-4.7
			c-4.9,0-71.2-0.1-74.8-0.1c-7,0-7,7.9-7,10.7v42.7c0,1.3-1.2,3.6-3.6,3.6s-3.6-2.4-3.6-3.6V11.1H32.5v53.3c0,1.2-1.2,3.6-3.6,3.6
			s-3.6-2.4-3.6-3.6V21.7c0-2.4,0-10.7-7.1-10.7H-1.9v1.2c0,0,5.9-0.8,5.9,4.7v42.7C4,62,6.4,73.9,17,73.9h52.2
			c10.7,0,13-11.9,13-14.2V19.3c0-5.9,4.7-5.9,4.7-5.9h30.8c0.7,0,4.7,0.1,4.7,5.9v40.3c0,2.4,2.4,13-4.7,13v1.2h24.9V46.6
			l-18.5-33.2l4.7-0.1l36.3,60.5h22.5V19.3c0-3.6,1.2-5.9,4.7-5.9s19-0.1,23.7-0.1c4.7,0,9.5,4,9.5,9.5s0.1,15.4,0.1,16.6
			c0,1.2-0.1,3.6-3,3.6s-3-3.6-3-3.6V22.9c0-2.4-3.6-7.1-7.1-7.1h-15.4v23.7l-4.7,2.4v17.8l4.7,2.4v11.9h22.5V62c0,0,0-3.6,3-3.6
			s3,3.6,3,3.6v2.4c0,3.6,2.3,9.5,9.4,9.5h17.8v-1.2c0,0-4.7,1.2-4.7-4.7V32.4c0-6.3-3.6-19-13-19c0,0,42.7,0.1,43.9,0.1
			s5.9-0.1,5.9,5.9v54.6h21.3V52.5c0-2.8,0-4.7,2.8-4.7c3.1,0,3.1,2.4,3.1,4.7v11.9c0,3.6,2.4,9.5,8.3,9.5h19v-1.2
			C339.7,72.7,334.9,72.7,334.9,68 M312.4,36.5c0,1.7-1.3,3-3,3s-3-1.3-3-3V18.7c0-1.7,1.3-3,3-3s3,1.3,3,3V36.5z"/>
	</g>
</g>
</svg>
