<svg width="80" height="80" viewBox="0 0 80 80" fill="none" xmlns="http://www.w3.org/2000/svg">
<path d="M57.094 2C50.2564 2 44.4444 4.36846 40 6.73692C35.5556 4.36846 30.0855 2 22.906 2C8.88889 2 0 10.7971 0 26.3613C0 44.9706 18.1197 63.2416 40 78.129C61.8803 63.5799 80 45.309 80 26.3613C80 10.7971 70.7692 2 57.094 2Z" fill="#CCCCCC"/>
<path d="M2.05078 26.6992C2.05078 45.6468 22.5636 63.5795 39.6576 75.4218C44.7858 72.0382 49.914 67.978 54.7003 63.9178C31.7944 44.9701 9.91403 27.7142 2.39266 21.6239C2.39266 22.9773 2.05078 24.6691 2.05078 26.6992Z" fill="url(#paint0_linear_706_1561)"/>
<path d="M76.2366 35.4962C59.4845 21.9622 49.57 14.8568 38.6298 8.42811C35.5529 6.73635 29.7409 4.02954 23.2452 4.02954C17.0913 4.02954 11.6212 6.05965 7.86054 9.78151C5.46738 12.15 3.75798 15.1951 3.07422 18.917C11.6212 25.0073 35.211 41.5865 58.8007 60.1959C66.664 52.7521 73.1597 44.2933 76.2366 35.4962Z" fill="url(#paint1_linear_706_1561)"/>
<path d="M71.7925 9.78151C68.0318 6.05965 62.9036 4.02954 56.7498 4.02954C50.254 4.02954 45.4677 6.05965 41.707 8.08976C48.2028 11.8116 62.2198 19.5937 76.9207 30.4209C77.2626 29.0675 77.2626 27.3758 77.2626 26.0224C77.6045 19.2553 75.5532 13.5034 71.7925 9.78151Z" fill="url(#paint2_linear_706_1561)"/>
<defs>
<linearGradient id="paint0_linear_706_1561" x1="2.20121" y1="48.5228" x2="55.0456" y2="48.5228" gradientUnits="userSpaceOnUse">
<stop stop-color="#3656CC"/>
<stop offset="0.35" stop-color="#304CB2"/>
<stop offset="0.72" stop-color="#283B80"/>
</linearGradient>
<linearGradient id="paint1_linear_706_1561" x1="9.7255" y1="6.9441" x2="69.0143" y2="48.8917" gradientUnits="userSpaceOnUse">
<stop offset="0.3" stop-color="#E61C23"/>
<stop offset="0.8" stop-color="#C3161C"/>
</linearGradient>
<linearGradient id="paint2_linear_706_1561" x1="46.6287" y1="1.74601" x2="80.5272" y2="25.7293" gradientUnits="userSpaceOnUse">
<stop stop-color="#FDBC11"/>
<stop offset="0.25" stop-color="#FCB415"/>
<stop offset="0.8" stop-color="#F89E1C"/>
</linearGradient>
</defs>
</svg>
