<?xml version="1.0" encoding="utf-8"?>
<!-- Generator: Adobe Illustrator 25.4.1, SVG Export Plug-In . SVG Version: 6.00 Build 0)  -->
<svg version="1.1" id="Layer_4" xmlns="http://www.w3.org/2000/svg" xmlns:xlink="http://www.w3.org/1999/xlink" x="0px" y="0px"
	 viewBox="0 0 89.8 80.27" style="enable-background:new 0 0 89.8 80.27;" xml:space="preserve">
<style type="text/css">
	.st0{fill:#DF1995;}
</style>
<path class="st0" d="M89.1,4.17c-2.09-3.34-9.32-0.76-12.07,0.4c-3.25,1.36-5.88,3.77-8.83,5.63c-3.32,2.09-7.09,3.41-11,3.8
	c-8.83,0.89-17.22-3.06-24.33-7.91c-1.7-1.16-3.92-1.56-5.59-2.74c-7.53-5.3-14.48-4.1-21.93,2.18C6.4,7.1,7.03,8.53,8.07,9.53
	c4.88,4.67,10.56,8.71,14.56,14.02c2.38,3.16,4.12,9.12,2.68,12.25c-2.03,4.42-7.38,6.18-12.59,2.42c-1.66-1.2-3.69-2.44-5.62-2.55
	c-2.28-0.13-5.13,0.35-6.76,1.72c-0.82,0.69-0.08,4.26,0.94,5.93c5.05,8.32,10.34,16.5,15.76,24.58c1,1.49,3.62,3.6,4.38,3.22
	c2.03-1.02,4.31-2.99,4.91-5.04c0.77-2.59-0.44-5.69-0.01-8.46c0.36-2.32,1.27-5.1,2.92-6.58c5.03-4.5,12.29-1.89,14.94,5.3
	c2.82,7.65,5.27,15.43,8.05,23.65c8.44-4.19,13.7-8.7,12.15-17.83c-0.43-2.52,0.25-5.23-0.18-7.76c-1.25-7.4-1.55-15.38,1.46-22.42
	c3.12-7.28,9.29-11.04,15.73-14.97C84.88,14.9,92.05,8.9,89.1,4.17z"/>
</svg>
