<?xml version="1.0" encoding="utf-8"?>
<!-- Generator: Adobe Illustrator 25.4.1, SVG Export Plug-In . SVG Version: 6.00 Build 0)  -->
<svg version="1.1" id="Layer_4" xmlns="http://www.w3.org/2000/svg" xmlns:xlink="http://www.w3.org/1999/xlink" x="0px" y="0px"
	 viewBox="0 0 422.36 80.27" style="enable-background:new 0 0 422.36 80.27;" xml:space="preserve">
<style type="text/css">
	.st0{fill:#DF1995;enable-background:new    ;}
	.st1{fill:#DF1995;}
</style>
<g>
	<path class="st0" d="M113.68,41.59c-0.64,0.67-1.3,1.32-1.9,2.02c-9.16,10.56-18.34,21.11-27.42,31.73
		c-1.56,1.82-3.18,2.75-5.64,2.63c-3.52-0.16-7.05,0.06-10.58,0.02c-3.38-0.03-4.43-1.18-3.77-4.37
		c3.31-16.04,6.68-32.08,10.11-48.1c0.18-0.83,0.93-1.65,1.62-2.25c1.19-1.03,2.55-1.87,3.82-2.82c4.11-3.07,4.77-7.04,1.89-11.23
		c-0.39-0.57-0.79-1.15-1.52-2.22c2.54,0,4.67,0,6.8,0c3-0.01,5.99-0.03,8.99-0.03c4.35,0.01,5.29,1.25,4.18,5.53
		c-2.07,7.97-4.16,15.94-6.22,23.91c-0.18,0.7-0.27,1.42,0.08,2.33c0.58-0.61,1.18-1.2,1.73-1.83c8.07-9.18,16.16-18.34,24.16-27.58
		c1.52-1.76,3.16-2.52,5.48-2.43c3.79,0.14,7.58,0.03,11.37,0.04c3.69,0.02,4.78,1.37,3.75,4.95c-2.42,8.42-4.94,16.81-7.42,25.22
		c-0.24,0.82-0.43,1.66-0.15,2.87c0.64-0.7,1.3-1.39,1.92-2.11c10.35-12.1,22.29-22.17,36.83-29.01c16.8-7.9,34.53-9.96,52.83-8.41
		c24.76,2.09,47.82,10.5,70.94,18.81c15.3,5.5,30.68,10.83,46.2,15.69c8.83,2.76,18.09,4.18,27.39,2.5
		c4.59-0.83,9.02-2.55,14.15-4.04c-3.84,4.45-7.24,9.02-11.28,12.93c-9.26,8.94-20.62,13.14-33.45,13.57
		c-15.24,0.51-29.69-3.3-43.88-8.16c-17.8-6.11-35.4-12.82-53.22-18.85c-14.64-4.96-29.64-8.35-45.29-7.84
		c-18.64,0.61-34,8.07-46.47,21.72c-7.17,7.86-12.76,16.78-17.33,26.32c-1.65,3.45-3.91,5.09-7.82,4.88
		c-4.22-0.23-8.46-0.01-12.69-0.08c-2.93-0.05-3.91-1.36-3.38-4.22c1.81-9.73,3.63-19.46,5.43-29.2c0.16-0.85,0.21-1.72,0.31-2.58
		C114.04,41.8,113.86,41.7,113.68,41.59z"/>
	<path class="st0" d="M20.6,80c-3.52-0.67-7.12-1.09-10.53-2.1c-2.12-0.63-4.27-1.85-5.88-3.36c-6.1-5.74-5.16-7.46,0.38-11.05
		c4.05-2.63,7.86-5.64,11.81-8.43c2.74-1.93,3.84-1.46,5.54,1.48c0.73,1.26,2.05,2.46,3.38,3.04c3.68,1.59,10.03-0.18,12.62-3.22
		c1.75-2.06,1.67-3.09-0.74-4.29c-2.51-1.25-5.18-2.17-7.77-3.26c-4.73-1.99-8.95-4.7-9.64-10.19c-0.34-2.74-0.01-5.87,1.02-8.42
		C26.57,15.9,37.74,7.99,52.56,4.93c6.09-1.26,12.38-1.43,18.19,1.09c2.85,1.24,5.32,3.56,7.62,5.75c1.7,1.62,1.12,3.58-0.75,4.95
		c-4.83,3.53-9.65,7.07-14.56,10.49c-1.75,1.22-3.44,1.1-4.68-1c-0.42-0.7-1.13-1.37-1.86-1.73c-3.79-1.88-10.38-0.34-13.06,2.97
		c-1.63,2.01-1.5,2.96,0.88,3.99c2.58,1.11,5.29,1.91,7.88,2.99c4.72,1.98,9.01,4.7,9.36,10.33c0.19,3.02-0.41,6.35-1.57,9.16
		C53.56,69.64,38.2,79.52,20.6,80z"/>
	<path class="st0" d="M192.55,29.85c-5.3,4.13-9.63,8.9-12.23,15.04c-0.81,1.92-1.44,3.97-1.79,6.02c-0.71,4.08,1.57,7.25,5.62,8.22
		c4.3,1.03,8.45,0.3,12.41-1.31c9.29-3.8,15.68-10.53,19.22-19.85c0.76-2.01,0.94-4.24,1.47-6.77c1.01,0.15,2.18,0.23,3.31,0.5
		c4.7,1.13,9.38,2.35,14.08,3.48c1.6,0.38,2.24,1,1.5,2.75c-9.27,22.11-25.31,35.79-49.42,39.44c-6.12,0.93-12.14,0.48-17.94-1.73
		c-8.36-3.19-12.94-11.12-11.65-19.95c0.18-1.21,0.37-2.43,0.56-3.64c1.18-7.23,4.88-12.38,11.71-15.64
		C176.77,32.85,184.33,30.36,192.55,29.85z"/>
	<path class="st0" d="M304.14,59.29c-7.86,8.02-16.86,13.45-27.34,16.36c-7.57,2.11-15.3,2.71-22.99,0.83
		c-11.35-2.77-16.97-11.41-14.66-23.02c0.91-4.57,3.01-8.93,4.72-13.32c0.25-0.64,1.56-1.49,2.07-1.32
		c5.34,1.74,10.61,3.66,15.72,5.47c-0.5,2.72-1.2,5.09-1.32,7.49c-0.21,4.21,2.06,6.68,6.28,7.34c6.47,1.02,12.19-1.01,17.48-4.46
		c1.47-0.96,2.64-1.16,4.32-0.56C293.47,55.91,298.6,57.48,304.14,59.29z"/>
	<path class="st0" d="M357.18,33.46c4.16-1.74,6.66-4.18,8.05-7.73c0.6-1.52,0.32-2.86-1.33-3.02c-4.1-0.4-8.23-0.54-12.36-0.62
		c-0.5-0.01-1.18,0.94-1.51,1.58c-1.06,2.11-1.9,4.35-3.04,6.41c-0.36,0.65-1.52,1.43-2.11,1.29c-4.93-1.19-9.81-2.57-15.02-3.98
		c3.15-6.78,6.04-13.16,9.11-19.45c0.36-0.74,1.68-1.44,2.55-1.43c9.86,0.06,19.72,0.26,29.58,0.44c0.69,0.01,1.39,0.22,2.07,0.39
		c8.52,2.07,12.11,8.02,10.26,16.6c-0.63,2.9-2.07,4.79-4.73,6.13C373.01,32.96,367.17,34.03,357.18,33.46z"/>
	<path class="st0" d="M332.41,64.83c-1.84,3.96-3.56,7.96-5.59,11.8c-0.44,0.84-1.99,1.49-3.06,1.54
		c-4.04,0.18-8.09,0.13-12.13,0.05c-2.96-0.06-4.16-1.87-3-4.56c1.52-3.54,3.15-7.03,4.84-10.49c0.28-0.57,1.14-1.31,1.64-1.25
		c5.48,0.7,10.94,1.55,16.4,2.37C331.73,64.34,331.94,64.55,332.41,64.83z"/>
	<path class="st0" d="M280.59,9.36c9.12-2.51,17.59-3.43,26.12-0.79c6.15,1.9,10.64,5.67,12.56,12.02c0.15,0.5,0.27,1.01,0.35,1.53
		c0.06,0.41,0.05,0.84,0.08,1.69C306.7,19,294,14.31,280.59,9.36z"/>
	<path class="st1" d="M422.12,8.12c-0.71-1.13-3.15-0.26-4.09,0.13c-1.1,0.46-1.99,1.28-2.99,1.91c-1.12,0.71-2.4,1.15-3.72,1.29
		c-2.99,0.3-5.83-1.04-8.24-2.68c-0.57-0.39-1.33-0.53-1.89-0.93c-2.55-1.8-4.9-1.39-7.42,0.74c0.36,0.54,0.57,1.02,0.92,1.36
		c1.65,1.58,3.57,2.95,4.93,4.75c0.81,1.07,1.39,3.09,0.91,4.15c-0.69,1.5-2.5,2.09-4.26,0.82c-0.56-0.41-1.25-0.83-1.9-0.86
		c-0.77-0.05-1.74,0.12-2.29,0.58c-0.28,0.23-0.03,1.44,0.32,2.01c1.71,2.82,3.5,5.58,5.34,8.32c0.34,0.5,1.23,1.22,1.48,1.09
		c0.69-0.35,1.46-1.01,1.66-1.71c0.26-0.88-0.15-1.93,0-2.86c0.12-0.79,0.43-1.73,0.99-2.23c1.7-1.52,4.16-0.64,5.06,1.79
		c0.95,2.59,1.78,5.22,2.72,8.01c2.86-1.42,4.64-2.94,4.11-6.04c-0.15-0.85,0.08-1.77-0.06-2.63c-0.42-2.51-0.52-5.21,0.49-7.59
		c1.05-2.46,3.14-3.74,5.32-5.07C420.69,11.75,423.12,9.72,422.12,8.12z"/>
</g>
</svg>
