<?xml version="1.0" encoding="utf-8"?>
<!-- Generator: Adobe Illustrator 25.4.1, SVG Export Plug-In . SVG Version: 6.00 Build 0)  -->
<svg version="1.1" id="Layer_1" xmlns="http://www.w3.org/2000/svg" xmlns:xlink="http://www.w3.org/1999/xlink" x="0px" y="0px"
	 viewBox="0 0 139.2 80" style="enable-background:new 0 0 139.2 80;" xml:space="preserve">
<style type="text/css">
	.st0{fill:#0C0C11;}
	.st1{fill:#EF383E;}
	.st2{fill:#8F0028;}
</style>
<path class="st0" d="M-238.6-885.5c-0.7-0.1-1.8,0-2.5,0c0.5-0.4,1.2-0.7,1.6-0.5c0.1,0,0.1,0,0.2,0.1
	C-239.1-885.8-238.8-885.6-238.6-885.5z"/>
<g id="text835">
</g>
<g>
	<path class="st1" d="M137.9,80c-4.9-1.7-9.8-3.2-14.5-5c-10.5-4-20.5-9.1-29-16.5C86.1,51.4,80,43,78,32c-0.6-3-0.5-6.2-0.7-9.3
		c0.3-0.2,0.5-0.4,0.8-0.7c3.8,1.3,7.8,2.4,11.4,4.1c11.4,5.4,20.9,13.3,30.1,21.8c0.4,0.4,0.9,0.8,1.3,1.2c0.1,0.1,0.3,0,1,0
		c-2.7-3.6-5-7.1-7.7-10.4C106,29,96.5,21.3,84.2,17.4c-6.2-2-12.5-2.3-18.9-2.2c-17.2,0.2-33.8,3.4-50.1,9
		c-3.1,1.1-6.5,1.7-9.8,2.1c-2.3,0.3-4.2-0.9-5.1-3.1c-0.9-2.2-0.6-4.5,1.4-6c2.2-1.6,4.5-2.9,7-3.9C26.3,7,44.2,2.5,62.7,0.7
		c13-1.3,26-1,38.6,3.3c9,3.1,15.9,8.8,21.8,15.9c12,14.6,16.9,31.5,16,50.2c-0.1,2.5-0.4,5-0.7,7.4C138.4,78.2,138.2,78.9,137.9,80
		z"/>
	<path class="st2" d="M68.9,21.8c0.3,4.1,0.6,7.7,0.8,11.6c-2.1,0-4.4,0-6.7,0c-11.4-0.1-22.6,1.8-33.5,5.1
		c-2.4,0.7-4.8,1.1-7.2-0.2c-3-1.7-3.7-5.1-1.1-7.2c2.3-1.8,5.1-3.2,7.9-4.1c8.6-2.9,17.7-3.8,26.7-4.4C60.3,22.1,64.6,22,68.9,21.8
		z"/>
	<path class="st2" d="M76.3,50.1c-6.3,0-12.6-0.2-18.8,0.1c-4.4,0.2-8.8,1.1-13.3,1.4c-1.6,0.1-3.3-0.2-4.8-0.9
		c-1.8-0.8-2.5-2.6-2.3-4.6c0.2-1.9,1.6-2.9,3.2-3.2c5.2-1,10.4-2.2,15.7-2.7c4.7-0.4,9.5-0.1,14.2-0.1c0.6,0,1.5,0.4,1.8,0.8
		C73.6,43.9,74.9,46.9,76.3,50.1z"/>
	<path class="st2" d="M91.2,65.4c-8.9,0-18.1,0.1-27.3-0.1c-1.9-0.1-4.1-1.1-5.6-2.4c-2.2-1.8-1.7-4.6,0.9-5.9
		c1.4-0.6,2.9-1.1,4.4-1.1c5.5-0.1,11,0.1,16.4,0.2c0.5,0,1.2,0.1,1.6,0.5C85,59.6,88.3,62.7,91.2,65.4z"/>
</g>
</svg>
