<svg width="80" height="80" viewBox="0 0 80 80" fill="none" xmlns="http://www.w3.org/2000/svg">
<path d="M28.5976 36.1221L21.1723 25.0809C21.1723 25.0809 17.8148 28.8259 17.1045 29.6653C16.3297 30.5046 15.6194 31.0212 14.3927 30.892C12.843 30.6338 5.86971 29.2133 5.86971 29.2133C5.86971 29.2133 5.35316 37.7362 5.22403 38.5756C5.15946 39.415 4.83662 40.5127 3.35156 41.804L28.5976 36.1221Z" fill="#00AC9D"/>
<path d="M56.8116 29.8587L65.5928 13.9104C65.5928 13.9104 59.8463 16.4285 57.9093 17.2679C56.0368 18.1073 55.2619 17.9782 54.9391 16.6222C54.6808 15.3309 53.2604 5.58111 53.1958 5C52.6793 5.58111 43.0586 15.3309 41.7027 16.6222C40.2822 17.9782 39.3782 18.1073 38.216 17.2679C36.9892 16.4285 33.3734 13.9749 33.3734 13.9749L28.7891 36.1863L56.8116 29.8587Z" fill="#00AC9D"/>
<path d="M73.0263 38.5753C73.6075 37.7359 79.9997 29.213 79.9997 29.213C79.9997 29.213 72.187 30.698 70.3791 30.8917C68.9586 31.0854 68.7649 30.5043 68.7003 29.6649C68.6358 29.213 68.3775 24.4995 68.3775 24.4995L57.0135 30.0524L30.7344 61.045L50.1693 64.0797C50.1693 64.0797 50.2339 61.1095 50.2985 58.9142C50.4276 56.7189 51.6544 56.3315 52.4292 55.8795C53.1395 55.4275 75.3508 42.6431 75.3508 42.6431L73.1555 41.4163C71.6704 40.6415 72.4452 39.4147 73.0263 38.5753Z" fill="#00AC9D"/>
<path d="M0 42.4489C0 42.4489 9.36233 53.49 9.74974 54.0066C11.945 56.6539 11.9451 57.687 9.68518 60.4634C7.87728 62.6587 6.77963 64.0792 6.77963 64.0792C6.77963 64.0792 19.8224 61.8839 21.5657 61.561C23.2445 61.3028 24.9232 61.7547 24.4713 64.0146C24.213 65.5642 22.6633 74.1518 22.6633 74.1518L30.4115 60.9799L44.0999 37.6709L2.90556 42.1261L0 42.4489Z" fill="#00467F"/>
<path d="M30.4023 60.9806L44.0907 37.6716L2.96094 42.1268L3.34835 41.804L28.5944 36.1865L28.8527 36.122L56.8106 29.8589L57.0043 30.0526L30.7251 61.0452L30.4023 60.9806Z" fill="white"/>
</svg>
