<svg width="399" height="80" viewBox="0 0 399 80" fill="none" xmlns="http://www.w3.org/2000/svg">
<path d="M81.2581 11.059L61.7217 57.1516C61.1919 58.4099 59.9999 59.2708 58.5429 59.2708H48.6754L40.1986 35.6285L29.8675 57.3503C29.3377 58.5424 28.1456 59.3371 26.7549 59.3371H17.0861L0 11.059H15.2318L24.7682 41.7874L34.437 19.4696L31.3907 10.9928H45.033L55.4303 41.7212L67.2846 10.9928L81.2581 11.059Z" fill="#00467F"/>
<path d="M119.6 11.059L118.408 17.9464C118.143 19.5358 116.686 20.7941 115.031 20.7941H98.673L97.0836 29.8007H115.693L114.501 36.6881C114.236 38.2775 112.779 39.5358 111.123 39.5358H95.428L93.7061 49.4695H112.978L111.786 56.3569C111.521 57.9463 110.064 59.2046 108.408 59.2046H77.6797L86.0903 10.9928L119.6 11.059Z" fill="#00467F"/>
<path d="M159.007 44.967C159.007 56.3577 145.034 60.0001 135.564 60.0001C127.219 60.0001 122.65 58.4107 117.484 56.159L119.471 44.9008C121.789 47.3511 129.405 50.0663 135.895 50.0663C139.537 50.0663 143.842 48.7418 143.842 45.6955C143.842 38.212 123.113 39.2054 123.113 24.8346C123.113 16.6227 130.796 10.3313 143.842 10.3313C151.392 10.3313 156.756 11.8545 159.935 13.2452L158.809 19.6028C158.61 20.9273 157.418 21.8545 156.094 21.8545C155.762 21.8545 155.431 21.7882 155.1 21.6558C151.325 20.1988 147.815 19.8015 145.034 19.8015C143.246 19.8015 137.882 20.1326 137.882 23.7088C137.948 30.7948 159.007 30.265 159.007 44.967Z" fill="#00467F"/>
<path d="M207.354 11.059L206.162 17.9464C205.897 19.5358 204.441 20.794 202.785 20.794H191.328L185.103 56.3569C184.838 57.9463 183.381 59.2045 181.725 59.2045H170.268L177.023 20.794H162.719L164.441 11.059H207.354Z" fill="#00467F"/>
<path d="M227.019 11.059L219.469 54.2377C216.754 69.6019 207.416 77.284 197.482 79.9992L189.602 70.7277C196.688 69.7343 203.111 65.7608 205.164 54.3039L212.714 11.1252L227.019 11.059Z" fill="#00467F"/>
<path d="M267.881 11.059L266.689 17.9464C266.424 19.5358 264.968 20.7941 263.312 20.7941H246.954L245.365 29.8007H263.974L262.782 36.6881C262.517 38.2775 261.06 39.5358 259.405 39.5358H243.709L241.987 49.4695H261.259L260.067 56.3569C259.802 57.9463 258.345 59.2046 256.689 59.2046H225.961L234.372 10.9928L267.881 11.059Z" fill="#00467F"/>
<path d="M314.436 11.059L313.244 17.9464C312.979 19.5358 311.522 20.794 309.867 20.794H298.41L292.185 56.3569C291.92 57.9463 290.463 59.2045 288.807 59.2045H277.35L284.105 20.794H269.734L271.456 11.059H314.436Z" fill="#00467F"/>
<path d="M346.089 31.9208L338.473 20.5963C338.473 20.5963 335.03 24.4374 334.301 25.2983C333.507 26.1592 332.778 26.689 331.52 26.5566C329.93 26.2917 322.778 24.8347 322.778 24.8347C322.778 24.8347 322.248 33.5764 322.116 34.4373C322.05 35.2983 321.718 36.4241 320.195 37.7486L346.089 31.9208Z" fill="#00AC9D"/>
<path d="M375.031 25.4966L384.037 9.13905C384.037 9.13905 378.143 11.7218 376.157 12.5828C374.236 13.4437 373.441 13.3112 373.11 11.9205C372.845 10.596 371.388 0.596025 371.322 0C370.792 0.596025 360.925 10.596 359.534 11.9205C358.077 13.3112 357.15 13.4437 355.958 12.5828C354.7 11.7218 350.991 9.20528 350.991 9.20528L346.289 31.9867L375.031 25.4966Z" fill="#00AC9D"/>
<path d="M391.659 34.4371C392.255 33.5762 398.811 24.8345 398.811 24.8345C398.811 24.8345 390.798 26.3577 388.943 26.5563C387.486 26.755 387.288 26.159 387.222 25.2981C387.155 24.8345 386.89 20.0001 386.89 20.0001L375.235 25.6954L348.281 57.4834L368.215 60.596C368.215 60.596 368.281 57.5496 368.347 55.298C368.48 53.0463 369.738 52.649 370.533 52.1854C371.261 51.7218 394.043 38.6093 394.043 38.6093L391.791 37.351C390.268 36.5563 391.063 35.298 391.659 34.4371Z" fill="#00AC9D"/>
<path d="M316.758 38.41C316.758 38.41 326.36 49.7345 326.758 50.2643C329.009 52.9796 329.009 54.0392 326.692 56.8868C324.837 59.1385 323.711 60.5954 323.711 60.5954C323.711 60.5954 337.089 58.3438 338.877 58.0127C340.599 57.7478 342.321 58.2113 341.857 60.5292C341.592 62.1186 340.003 70.9265 340.003 70.9265L347.95 57.4166L361.989 33.5094L319.738 38.0789L316.758 38.41Z" fill="#00467F"/>
<path d="M347.942 57.4174L361.982 33.5102L319.797 38.0797L320.194 37.7486L346.088 31.987L346.353 31.9208L375.029 25.4969L375.227 25.6956L348.274 57.4836L347.942 57.4174Z" fill="white"/>
</svg>
