<?xml version="1.0" encoding="utf-8"?>
<!-- Generator: Adobe Illustrator 25.4.1, SVG Export Plug-In . SVG Version: 6.00 Build 0)  -->
<svg version="1.1" id="Layer_1" xmlns="http://www.w3.org/2000/svg" xmlns:xlink="http://www.w3.org/1999/xlink" x="0px" y="0px"
	 viewBox="0 0 93.8 80" style="enable-background:new 0 0 93.8 80;" xml:space="preserve">
<style type="text/css">
	.st0{fill:#A7BF61;}
	.st1{fill:#495B5F;}
</style>
<path class="st0" d="M93.8,1C82,1,67.8,17.6,61,28.9c-6.8,11.3-16.6,21.3-30.5,24c-13.7,2.7-18.7-7.5-18.8-7.8v0
	c0.1,0.1,4.6,3.6,8.6,3.6c3.4,0,7.7-3.9,11.3-11.1c0.6-1.2,1.2-2.6,1.8-4c3.9-9.6,11.7-22.2,11.7-22.2C58.9-4.8,93.8,1,93.8,1z"/>
<path class="st1" d="M31.6,37.7c-3.6,7.1-7.9,11.1-11.3,11.1c-3.9,0-8.4-3.5-8.6-3.6c0,0,0,0,0,0c-1.5-2.3-2.4-9.5-2.3-15.2
	C9.6,24.2,0,21.9,0,21.9c7.4,0,8-6.9,13.8-6.9c5.8,0,8.6,7.5,11.8,14C27.6,33.3,30.1,36.2,31.6,37.7z"/>
<path class="st1" d="M14.8,54.5c0,0,11.6,8.8,26.9-1.2c0,0,4.8,11,9.6,14.7C51.3,68,26.8,71.8,14.8,54.5z"/>
<path class="st0" d="M52.5,68.3c0,0,8.9,9.6,12.2,11.7l5.9-17L52.5,68.3z"/>
</svg>
