<?xml version="1.0" encoding="utf-8"?>
<!-- Generator: Adobe Illustrator 25.4.1, SVG Export Plug-In . SVG Version: 6.00 Build 0)  -->
<svg version="1.1" id="Layer_1" xmlns="http://www.w3.org/2000/svg" xmlns:xlink="http://www.w3.org/1999/xlink" x="0px" y="0px"
	 viewBox="0 0 211.9 80" style="enable-background:new 0 0 211.9 80;" xml:space="preserve">
<style type="text/css">
	.st0{fill:#A7BF61;}
	.st1{fill:#495B5F;}
</style>
<g>
	<path class="st0" d="M93.8,1C82,1,67.8,17.6,61,28.9c-6.8,11.3-16.6,21.3-30.5,24c-13.7,2.7-18.7-7.5-18.8-7.8v0
		c0.1,0.1,4.6,3.6,8.6,3.6c3.4,0,7.7-3.9,11.3-11.1c0.6-1.2,1.2-2.6,1.8-4c3.9-9.6,11.7-22.2,11.7-22.2C58.9-4.8,93.8,1,93.8,1z"/>
	<path class="st1" d="M31.6,37.7c-3.6,7.1-7.9,11.1-11.3,11.1c-3.9,0-8.4-3.5-8.6-3.6c0,0,0,0,0,0c-1.5-2.3-2.4-9.5-2.3-15.2
		C9.6,24.2,0,21.9,0,21.9c7.4,0,8-6.9,13.8-6.9c5.8,0,8.6,7.5,11.8,14C27.6,33.3,30.1,36.2,31.6,37.7z"/>
	<path class="st1" d="M14.8,54.5c0,0,11.6,8.8,26.9-1.2c0,0,4.8,11,9.6,14.7C51.3,68,26.8,71.8,14.8,54.5z"/>
	<path class="st0" d="M52.5,68.3c0,0,8.9,9.6,12.2,11.7l5.9-17L52.5,68.3z"/>
	<g>
		<path class="st1" d="M85.1,20.5H74.9c0,0,1.9,0.4,1.4,2.2l-7.9,20.8c0,0-2.8,5.3-8,5.7c0,0,9.8,4.8,15-8.2
			c5.2-13,6.9-17.9,6.9-17.9S83.7,20.5,85.1,20.5z"/>
		<path class="st1" d="M86.6,20.5c1.2,0.5,0.9,2,0.9,2S82,37.5,81,40.2c-0.9,2.7-3.3,3.2-3.3,3.2h17.9l3.3-6.1
			c-2.8,4.4-7.6,4.7-7.6,4.7h-4.6l3.3-9.1c1.4,0,5,0,5,0s2.1,0.6,1.5,3.3l3.1-8.1c0,0-2.1,3.5-4.6,3.5c-1.8,0-3.5,0-4.4,0l3.4-9.6
			h5.7c2.5,0,2.6,3.4,2.6,3.4l1.5-4.8H86.6z"/>
		<path class="st1" d="M103.6,25.1c0.4-0.2,2.3-3.1,6.1-3.1h2.9l-6.8,17.8c0,0-1.1,2.4-3.4,3.6h10.3c0,0-2.2-0.5-1.1-3.2
			c1.1-2.7,7.4-18.1,7.4-18.1h3.8c0,0,2.8,0.1,2.2,3.5l2.1-5.1h-21.6L103.6,25.1z"/>
		<path class="st1" d="M159.9,20.5h-6.5c0,0,1.8,0.4,0.9,2c-0.9,1.6-6.4,9.4-6.4,9.4s-2.1-11.7-2.2-11.4
			c-0.1,0.2-10.2,11.1-10.2,11.1l-0.2-9.8c0,0,0.2-1.2,1.5-1.2l-9.3,0c0,0,0.9,0.5,0.9,1.9c0,1.4,0,20.9,0,20.9l11.3-13.3l2.2,13.3
			l14.7-21.2C156.7,22.2,157.9,20.5,159.9,20.5z"/>
		<path class="st1" d="M167.8,40.7c-0.2-2.2-1.8-20.2-1.8-20.2l-18.1,21.3c0,0-1.7,1.6-2.8,1.6h6c0,0-1.5-0.9-0.6-2.1
			c0.3-0.4,1.7-2,3.2-3.8h6.9l0.2,4c0,0-0.6,1.9-2.1,1.9h10.9C169.7,43.4,168,42.9,167.8,40.7z M154.4,36.7c2.7-3.1,5.9-6.7,5.9-6.7
			l0.3,6.7H154.4z"/>
		<path class="st1" d="M197.5,20.5h-7c0,0,1.5,0.9,0.6,2.1c-0.8,1.2-8.3,8.6-8.3,8.6l-1.8-9.2c0,0-0.1-1.4,2-1.4h-11.8
			c0,0,2.5,0.4,3,1.9c0.5,1.5,2.3,10.3,2.3,10.6c0,0.3-3.2,8.5-3.2,8.5s-1.1,1.9-2.4,1.9h9.9c0,0-1.7-0.9-1.3-2.5
			c0.4-1.6,3.6-8.3,3.7-8.5c0.1-0.2,10.2-9.9,10.2-9.9S195.6,20.5,197.5,20.5z"/>
		<path class="st1" d="M206.9,21.8c2.8,0.1,2.8,3.7,2.8,3.7l2.2-5c0,0-2.3,0-8.3,0s-9.5,5.5-9.7,8.2c-0.1,2.7,2.5,4.6,4.9,5.4
			c2.4,0.8,4,2.8,3.9,4.5c0,1.7-2.2,3.7-7.4,3.7s-3.6-6.3-3.6-6.3c-2.2,1.4-3.2,5.6-3.1,5.7c3.7,2.2,10.3,2.5,13,1.1
			c2.7-1.4,6.6-5.2,6.9-8.3c0.3-3.2-3.7-4.9-5.4-5.6c-1.7-0.7-3.5-1.4-3.1-3.9C200.5,22.4,204.1,21.7,206.9,21.8z"/>
	</g>
	<path class="st1" d="M85.8,55.6v-0.2c0.3,0,0.5-0.2,0.7-0.3c0.2-0.2,0.4-0.7,0.8-1.6l2.5-5.9h0.2l3,6.8c0.2,0.5,0.4,0.7,0.5,0.8
		c0.1,0.1,0.3,0.2,0.6,0.2v0.2h-3.1v-0.2c0.4,0,0.6-0.1,0.7-0.1c0.1,0,0.2-0.2,0.2-0.3c0-0.1,0-0.2-0.1-0.3c0-0.1-0.1-0.3-0.2-0.5
		L91.2,53h-3.2c-0.3,0.8-0.5,1.3-0.6,1.4c-0.1,0.2-0.1,0.3-0.1,0.4c0,0.2,0.1,0.3,0.2,0.4c0.1,0,0.3,0.1,0.6,0.1v0.2H85.8z M91,52.5
		l-1.4-3.3l-1.4,3.3H91z"/>
	<path class="st1" d="M100.5,55.4c0.4,0,0.7-0.1,0.8-0.2c0.1-0.1,0.2-0.3,0.2-0.7v-4.6c0-0.4-0.1-0.6-0.2-0.7
		c-0.1-0.1-0.4-0.2-0.8-0.2v-0.2h3.1v0.2c-0.4,0-0.7,0.1-0.8,0.2c-0.1,0.1-0.2,0.4-0.2,0.7v4.6c0,0.4,0.1,0.6,0.2,0.7
		c0.1,0.1,0.4,0.2,0.8,0.2v0.2h-3.1V55.4z"/>
	<path class="st1" d="M111.4,55.4c0.4,0,0.6-0.1,0.7-0.2c0.1-0.1,0.1-0.4,0.1-0.8v-4.5c0-0.4-0.1-0.6-0.2-0.7
		c-0.1-0.1-0.4-0.2-0.7-0.2v-0.2h2.9c0.6,0,1.1,0.1,1.5,0.2c0.8,0.3,1.1,0.8,1.1,1.6c0,0.5-0.2,0.9-0.5,1.2
		c-0.3,0.3-0.8,0.5-1.4,0.5l2.1,2.6c0.1,0.2,0.3,0.3,0.4,0.4c0.1,0.1,0.3,0.1,0.5,0.1v0.2h-1.7l-2.6-3.2l-0.5,0v2
		c0,0.4,0.1,0.6,0.2,0.7c0.1,0.1,0.4,0.2,0.8,0.2v0.2h-2.9V55.4z M115,51.8c0.6-0.2,0.8-0.7,0.8-1.3c0-0.6-0.2-1-0.7-1.2
		c-0.3-0.1-0.6-0.2-1.1-0.2c-0.3,0-0.5,0-0.5,0.1c-0.1,0-0.1,0.1-0.1,0.3v2.6C114.1,52,114.6,52,115,51.8z"/>
	<path class="st1" d="M125.5,55.4c0.4,0,0.6-0.1,0.7-0.2c0.1-0.1,0.2-0.3,0.2-0.7v-4.6c0-0.4-0.1-0.6-0.2-0.7
		c-0.1-0.1-0.4-0.2-0.7-0.2v-0.2h2.9v0.2c-0.4,0-0.6,0.1-0.8,0.2c-0.1,0.1-0.2,0.3-0.2,0.7v5c0,0.1,0,0.2,0.1,0.3
		c0,0.1,0.1,0.1,0.3,0.1c0.1,0,0.2,0,0.2,0c0.1,0,0.2,0,0.5,0c0.9,0,1.5-0.1,1.9-0.2c0.3-0.2,0.6-0.5,0.9-1.2h0.3l-0.5,1.8h-5.6
		V55.4z"/>
	<path class="st1" d="M138.9,55.4c0.4,0,0.7-0.1,0.8-0.2c0.1-0.1,0.2-0.3,0.2-0.7v-4.6c0-0.4-0.1-0.6-0.2-0.7
		c-0.1-0.1-0.4-0.2-0.8-0.2v-0.2h3.1v0.2c-0.4,0-0.7,0.1-0.8,0.2c-0.1,0.1-0.2,0.4-0.2,0.7v4.6c0,0.4,0.1,0.6,0.2,0.7
		c0.1,0.1,0.4,0.2,0.8,0.2v0.2h-3.1V55.4z"/>
	<path class="st1" d="M149.8,55.4c0.4,0,0.7-0.1,0.8-0.3c0.1-0.2,0.2-0.5,0.2-1v-4.6l-0.1-0.2c-0.2-0.2-0.3-0.3-0.4-0.3
		c-0.1,0-0.3-0.1-0.5-0.1v-0.2h1.8l4,5v-3.5c0-0.6-0.1-0.9-0.3-1.1c-0.1-0.1-0.4-0.2-0.7-0.2v-0.2h2.4v0.2c-0.4,0-0.7,0.1-0.8,0.3
		s-0.2,0.5-0.2,1v5.5h-0.2l-4.6-5.7v4c0,0.6,0.1,0.9,0.2,1.1c0.1,0.1,0.4,0.2,0.7,0.2v0.2h-2.4V55.4z"/>
	<path class="st1" d="M165,55.4c0.4,0,0.6-0.1,0.7-0.2c0.1-0.1,0.2-0.3,0.2-0.7v-4.6c0-0.4-0.1-0.6-0.2-0.7
		c-0.1-0.1-0.4-0.2-0.7-0.2v-0.2h5.5l0,1.5h-0.3c-0.1-0.5-0.2-0.8-0.4-0.9c-0.2-0.1-0.6-0.2-1.2-0.2h-1.4c-0.2,0-0.2,0-0.3,0.1
		c0,0-0.1,0.1-0.1,0.3v2.3h1.6c0.4,0,0.7-0.1,0.8-0.2c0.1-0.1,0.2-0.4,0.3-0.8h0.2v2.4h-0.2c-0.1-0.4-0.2-0.7-0.3-0.8
		c-0.1-0.1-0.4-0.2-0.8-0.2H167v2.6c0,0.2,0.1,0.3,0.2,0.4c0.1,0,0.5,0.1,1.2,0.1c0.7,0,1.2-0.1,1.6-0.2c0.3-0.2,0.6-0.5,0.9-1.1
		h0.3l-0.5,1.8H165V55.4z"/>
	<path class="st1" d="M178.8,53.5c0.2,0.5,0.4,0.8,0.6,1.1c0.4,0.5,0.9,0.7,1.5,0.7c0.3,0,0.6-0.1,0.9-0.3c0.2-0.2,0.4-0.5,0.4-0.9
		c0-0.3-0.1-0.6-0.4-0.9c-0.2-0.2-0.5-0.4-1-0.7L180,52c-0.3-0.2-0.5-0.3-0.6-0.5c-0.3-0.3-0.4-0.7-0.4-1.1c0-0.5,0.2-1,0.5-1.3
		c0.3-0.3,0.8-0.5,1.4-0.5c0.2,0,0.5,0.1,0.9,0.2c0.3,0.1,0.5,0.2,0.6,0.2c0.1,0,0.2,0,0.3-0.1c0-0.1,0.1-0.1,0.1-0.3h0.2l0.2,2.2
		h-0.2c-0.2-0.7-0.4-1.1-0.8-1.4c-0.4-0.3-0.7-0.4-1.1-0.4c-0.3,0-0.5,0.1-0.7,0.3s-0.3,0.4-0.3,0.7c0,0.3,0.1,0.5,0.2,0.7
		c0.2,0.2,0.4,0.4,0.8,0.6l0.9,0.6c0.6,0.4,1,0.7,1.2,1c0.2,0.3,0.3,0.6,0.3,1.1c0,0.5-0.2,1-0.6,1.4c-0.4,0.4-0.9,0.5-1.6,0.5
		c-0.3,0-0.7-0.1-1-0.2s-0.6-0.2-0.6-0.2c-0.1,0-0.2,0-0.2,0.1c0,0.1-0.1,0.2-0.1,0.2h-0.2l-0.3-2.2H178.8z"/>
</g>
</svg>
