<?xml version="1.0" encoding="utf-8"?>
<!-- Generator: Adobe Illustrator 25.3.1, SVG Export Plug-In . SVG Version: 6.00 Build 0)  -->
<svg version="1.1" id="Layer_1" xmlns="http://www.w3.org/2000/svg" xmlns:xlink="http://www.w3.org/1999/xlink" x="0px" y="0px"
	 viewBox="0 0 98.99 80" style="enable-background:new 0 0 98.99 80;" xml:space="preserve">
<style type="text/css">
	.st0{fill:#ED4138;}
	.st1{fill:#00693A;}
	.st2{fill:#DF1804;}
	.st3{fill:#214078;}
	.st4{fill:#3487C7;}
	.st5{fill:url(#SVGID_1_);}
	.st6{fill:url(#SVGID_2_);}
	.st7{fill:#184A8A;}
	.st8{fill:url(#SVGID_3_);}
	.st9{fill:url(#SVGID_4_);}
	.st10{fill:url(#SVGID_5_);}
	.st11{fill:url(#SVGID_6_);}
	.st12{fill:#9E8266;}
	.st13{fill:#322E26;}
	.st14{fill:#332F27;}
	.st15{fill:#791722;}
	.st16{fill:url(#SVGID_7_);}
	.st17{fill:url(#SVGID_8_);}
	.st18{fill:url(#SVGID_9_);}
	.st19{fill:url(#SVGID_10_);}
	.st20{fill:url(#SVGID_11_);}
	.st21{fill:url(#SVGID_12_);}
	.st22{fill:url(#SVGID_13_);}
	.st23{fill:url(#SVGID_14_);}
	.st24{fill:url(#SVGID_15_);}
	.st25{fill:url(#SVGID_16_);}
	.st26{fill:url(#SVGID_17_);}
	.st27{fill:url(#SVGID_18_);}
	.st28{fill:url(#SVGID_19_);}
	.st29{fill:url(#SVGID_20_);}
	.st30{fill:url(#SVGID_21_);}
	.st31{fill:#222325;}
	.st32{fill:#A0925A;}
	.st33{fill:#061E34;}
	.st34{fill:#028E8F;}
	.st35{fill:#D5192C;}
	.st36{fill:#FAC201;}
	.st37{fill:url(#SVGID_22_);}
	.st38{fill:url(#SVGID_23_);}
	.st39{fill:url(#SVGID_24_);}
	.st40{fill:url(#SVGID_25_);}
	.st41{fill:#9F8A58;}
	.st42{fill:#749ED4;}
	.st43{fill:#045991;}
	.st44{fill:#1F9A8D;}
	.st45{fill:#222D68;}
	.st46{fill:#14152E;}
	.st47{fill:#62B3E4;}
	.st48{fill:#FEFEFE;}
	.st49{fill:none;}
	.st50{fill:#FC0302;}
	.st51{fill:#FE0807;}
	.st52{fill:#98684C;}
	.st53{fill:#86754D;}
	.st54{fill:#42484D;}
	.st55{fill:#41474C;}
	.st56{fill:#43494D;}
	.st57{fill:#DF073D;}
	.st58{fill:#DE023A;}
	.st59{fill:#FFFFFF;}
	.st60{fill:#6F6E6C;}
	.st61{fill:#072F67;}
	.st62{fill:#53A220;}
	.st63{fill:#FDC013;}
	.st64{fill:url(#SVGID_26_);}
	.st65{fill:url(#SVGID_27_);}
	.st66{fill:url(#SVGID_28_);}
	.st67{fill:#793A98;}
	.st68{fill:url(#SVGID_29_);}
	.st69{fill:url(#SVGID_30_);}
	.st70{fill:url(#SVGID_31_);}
	.st71{fill:url(#SVGID_32_);}
	.st72{fill:url(#SVGID_33_);}
</style>
<path class="st15" d="M0.53,25.03c4.44-3.07,8.87-6.15,13.32-9.21c6.75-4.64,13.51-9.26,20.26-13.9c1.2-0.83,2.36-1.45,3.95-1.45
	C57.63,0.53,77.2,0.51,96.76,0.52c0.35,0,0.71,0.1,1.38,0.2c-1.67,3.8-3.31,7.5-4.92,11.2c-6.1,13.96-12.25,27.9-18.23,41.9
	c-1.06,2.47-2.59,4.09-4.85,5.47c-11.11,6.76-22.12,13.66-33.47,20.34c3.38-9.11,7.43-17.91,11.3-26.79
	c3.87-8.9,7.75-17.79,11.77-27.01c-19.87,0-39.48,0-59.08,0C0.61,25.56,0.57,25.3,0.53,25.03z"/>
</svg>
