<?xml version="1.0" encoding="utf-8"?>
<!-- Generator: Adobe Illustrator 25.3.1, SVG Export Plug-In . SVG Version: 6.00 Build 0)  -->
<svg version="1.1" id="Layer_1" xmlns="http://www.w3.org/2000/svg" xmlns:xlink="http://www.w3.org/1999/xlink" x="0px" y="0px"
	 viewBox="0 0 537.4 80" style="enable-background:new 0 0 537.4 80;" xml:space="preserve">
<style type="text/css">
	.st0{fill:#ED4138;}
	.st1{fill:#00693A;}
	.st2{fill:#DF1804;}
	.st3{fill:#214078;}
	.st4{fill:#3487C7;}
	.st5{fill:url(#SVGID_1_);}
	.st6{fill:url(#SVGID_2_);}
	.st7{fill:#184A8A;}
	.st8{fill:url(#SVGID_3_);}
	.st9{fill:url(#SVGID_4_);}
	.st10{fill:url(#SVGID_5_);}
	.st11{fill:url(#SVGID_6_);}
	.st12{fill:#9E8266;}
	.st13{fill:#322E26;}
	.st14{fill:#332F27;}
	.st15{fill:#791722;}
	.st16{fill:url(#SVGID_7_);}
	.st17{fill:url(#SVGID_8_);}
	.st18{fill:url(#SVGID_9_);}
	.st19{fill:url(#SVGID_10_);}
	.st20{fill:url(#SVGID_11_);}
	.st21{fill:url(#SVGID_12_);}
	.st22{fill:url(#SVGID_13_);}
	.st23{fill:url(#SVGID_14_);}
	.st24{fill:url(#SVGID_15_);}
	.st25{fill:url(#SVGID_16_);}
	.st26{fill:url(#SVGID_17_);}
	.st27{fill:url(#SVGID_18_);}
	.st28{fill:url(#SVGID_19_);}
	.st29{fill:url(#SVGID_20_);}
	.st30{fill:url(#SVGID_21_);}
	.st31{fill:#222325;}
	.st32{fill:#A0925A;}
	.st33{fill:#061E34;}
	.st34{fill:#028E8F;}
	.st35{fill:#D5192C;}
	.st36{fill:#FAC201;}
	.st37{fill:url(#SVGID_22_);}
	.st38{fill:url(#SVGID_23_);}
	.st39{fill:url(#SVGID_24_);}
	.st40{fill:url(#SVGID_25_);}
	.st41{fill:#9F8A58;}
	.st42{fill:#749ED4;}
	.st43{fill:#045991;}
	.st44{fill:#1F9A8D;}
	.st45{fill:#222D68;}
	.st46{fill:#14152E;}
	.st47{fill:#62B3E4;}
	.st48{fill:#FEFEFE;}
	.st49{fill:none;}
	.st50{fill:#FC0302;}
	.st51{fill:#FE0807;}
	.st52{fill:#98684C;}
	.st53{fill:#86754D;}
	.st54{fill:#42484D;}
	.st55{fill:#41474C;}
	.st56{fill:#43494D;}
	.st57{fill:#DF073D;}
	.st58{fill:#DE023A;}
	.st59{fill:#FFFFFF;}
	.st60{fill:#6F6E6C;}
	.st61{fill:#072F67;}
	.st62{fill:#53A220;}
	.st63{fill:#FDC013;}
	.st64{fill:url(#SVGID_26_);}
	.st65{fill:url(#SVGID_27_);}
	.st66{fill:url(#SVGID_28_);}
	.st67{fill:#793A98;}
	.st68{fill:url(#SVGID_29_);}
	.st69{fill:url(#SVGID_30_);}
	.st70{fill:url(#SVGID_31_);}
	.st71{fill:url(#SVGID_32_);}
	.st72{fill:url(#SVGID_33_);}
</style>
<g>
	<path class="st12" d="M294.69,79.23c-7.93-1.34-15.13-4.37-21.59-9.14c-0.04-0.03-0.04-0.13-0.13-0.43
		c4.12-2.7,8.3-5.43,12.49-8.18c3.35,1.64,6.71,2.91,10.33,3.56c4.24,0.76,8.44,0.88,12.73,0.42c3.74-0.4,7.24-1.36,10.64-2.93
		c3.73-1.72,7.11-3.92,9.97-6.84c1.29-1.31,2.68-2.42,4.25-3.37c5.37-3.27,10.69-6.63,16.06-9.92c0.7-0.43,1.34-1.04,2.24-1.06
		l0.11,0.1c-0.02,0.21,0.01,0.44-0.07,0.62c-3.15,6.96-5.84,14.17-10.99,20.05c-3.75,4.28-7.94,8.05-12.9,10.9
		c-6.37,3.66-13.15,6.02-20.52,6.59C307,79.63,300.28,80.08,294.69,79.23z"/>
	<path class="st12" d="M392.18,17.94c-1.61,4.45-3.19,8.8-4.89,13.48c15.46,0,30.59,0,46.1,0c-1.58,4.36-3.05,8.38-4.55,12.51
		c-15.37,0-30.66,0-46.16,0c-1.66,4.53-3.3,9.01-5.04,13.78c19.33,0,38.38,0,57.8,0c-1.84,5.05-3.57,9.79-5.32,14.58
		c-25.29,0-50.48,0-75.66,0c0.08-1.71,21.96-62.32,24.88-68.95c52.54,0,105.12,0,157.84,0c-1.78,4.87-3.52,9.62-5.3,14.46
		c-11.55,0-22.98,0-34.6,0c-6.66,18.21-13.3,36.36-19.94,54.51c-6.33,0-12.49,0-19.01,0c6.53-18.2,13.24-36.19,19.81-54.37
		C449.44,17.94,420.94,17.94,392.18,17.94z"/>
	<path class="st13" d="M238.65,72.25c-5.81,0-11.76,0-17.96,0c2.98-8.18,5.93-16.27,8.96-24.58c-8.19-9.89-16.44-19.84-24.66-29.77
		c-8.89,0-17.66,0-26.64,0c-6.61,18.07-13.23,36.18-19.87,54.34c-6.27,0-12.43,0-18.91,0c1.42-4.66,3.23-9.06,4.84-13.54
		c1.62-4.53,3.31-9.04,4.96-13.55c1.65-4.52,3.28-9.04,4.93-13.56c1.64-4.5,3.29-9,5.03-13.75c-11.6,0-22.95,0-34.61,0
		c1.83-5.02,3.56-9.78,5.3-14.54c30.34,0,60.54,0,90.84,0c7.41,9.51,14.84,19.06,22.29,28.63c1.36-0.52,2.4-1.35,3.5-2.06
		c13.33-8.54,26.65-17.09,39.95-25.66c1.04-0.67,2.07-0.99,3.32-0.99c8.71,0.05,17.42,0.02,26.13,0.02c0.61,0,1.23,0,1.89,0
		c-0.16,0.75-0.75,0.91-1.19,1.2c-21.71,14.27-43.43,28.54-65.14,42.8c-0.47,0.31-0.9,0.69-1.41,0.92c-2.63,1.18-3.81,3.35-4.7,5.99
		c-1.93,5.75-4.13,11.4-6.22,17.1C239.16,71.58,239.11,71.93,238.65,72.25z"/>
	<path class="st13" d="M90.7,3.96c-2.1,5.75-4.1,11.23-6.16,16.88c-2.87-1.52-5.7-2.78-8.75-3.52c-6.7-1.64-13.45-1.8-20.26-0.83
		c-7.14,1.01-13.94,3.03-20.31,6.44c-4.68,2.51-8.91,5.57-12.14,9.84c-1.79,2.37-3.1,4.96-3.52,7.95c-0.56,4,0.58,7.45,3.25,10.43
		c3.1,3.45,7.1,5.4,11.48,6.64c10.15,2.87,20.26,2.13,30.31-0.55c1.75-0.47,3.46-1.11,5.18-1.7c0.53-0.18,1.02-0.5,1.58-0.14
		c-0.02,1.49-4.12,13.18-5.94,16.9c-3.69,0.93-7.52,1.36-11.34,1.79c-6.22,0.69-12.46,0.95-18.71,0.48
		c-5.76-0.43-11.36-1.51-16.76-3.64C1.37,64.11-3.67,45.89,3,31.41c3.78-8.2,9.81-14.4,17.31-19.25c7.92-5.13,16.65-8.21,25.94-9.8
		c8.54-1.46,17.14-2.04,25.79-1.62C78.29,1.04,84.41,2.09,90.7,3.96z"/>
	<path class="st14" d="M101.4,3.34c6.19,0,12.13,0,18.26,0c-8.42,23.04-16.79,45.93-25.19,68.89c-6.03,0-11.98,0-18.25,0
		C84.63,49.23,93.01,26.3,101.4,3.34z"/>
	<path class="st15" d="M311.89,17.51c2.58-1.78,5.16-3.57,7.74-5.35c3.92-2.7,7.85-5.38,11.77-8.08c0.7-0.48,1.37-0.84,2.3-0.84
		c11.37,0.03,22.74,0.02,34.1,0.03c0.21,0,0.41,0.06,0.8,0.12c-0.97,2.21-1.92,4.36-2.86,6.51c-3.54,8.11-7.12,16.21-10.59,24.35
		c-0.61,1.43-1.51,2.38-2.82,3.18c-6.45,3.93-12.85,7.94-19.45,11.82c1.96-5.29,4.32-10.41,6.56-15.57
		c2.25-5.17,4.5-10.34,6.84-15.7c-11.55,0-22.94,0-34.33,0C311.93,17.82,311.91,17.66,311.89,17.51z"/>
	<path class="st12" d="M351.68,41.34c0.08-0.09,0.16-0.19,0.24-0.28c0.28,0.24,0.06,0.31-0.13,0.39
		C351.79,41.45,351.68,41.34,351.68,41.34z"/>
</g>
</svg>
