<?xml version="1.0" encoding="utf-8"?>
<!-- Generator: Adobe Illustrator 25.4.1, SVG Export Plug-In . SVG Version: 6.00 Build 0)  -->
<svg version="1.1" id="Layer_2" xmlns="http://www.w3.org/2000/svg" xmlns:xlink="http://www.w3.org/1999/xlink" x="0px" y="0px"
	 viewBox="0 0 91.35 80" style="enable-background:new 0 0 91.35 80;" xml:space="preserve">
<style type="text/css">
	.st0{fill:#BD9F5B;}
	.st1{fill:#B4B3B3;}
</style>
<g>
	<path class="st0" d="M42.8,12.73c-3.43,0-5.9-0.03-8.68,1.38c-1.09,0.53-1.85,1.09-2.79,1.76c-0.53,0.38-2.11,1.79-2.32,2.35
		c1.14,1.53,4.43,4.58,5.87,5.84l6.48,5.31c0.41-0.47,0.73-2.7,3.87-4.37c7.63-4.05,19.51-1,28.31-4.96
		c4.14-1.88,6.75-3.73,9.68-6.98c0.82-0.91,2.99-3.93,3.11-5.25c-0.12,0.03-2.99,1.53-4.17,1.97c-8.3,3.14-18.45,3.73-27.43,3.46
		C50.75,13.11,46.88,12.73,42.8,12.73z"/>
	<path class="st0" d="M28.19,17.19c0.38-0.18,2.17-2.67,5.81-4.31c2.93-1.32,5.16-1.32,8.8-1.32c3.34,0,6.51,0.26,9.68,0.41
		c7.28,0.32,12.2,0.23,19.39-0.79c6.19-0.88,13.7-2.9,17.63-7.86c0.59-0.73,1.7-2.38,1.85-3.31c-0.38,0.15-0.59,0.44-0.88,0.65
		C85.78,4.2,78.71,4.87,72.93,5.31c-7.51,0.56-15.11-0.59-22.09-1.53c-3.37-0.44-6.86-0.97-10.21-1.55
		c-3.08-0.56-7.66-1.38-10.56-0.26c-4.08,1.55-6.6,6.75-4.25,11.68C26.31,14.55,27.49,16.55,28.19,17.19z"/>
	<path class="st0" d="M42.63,30.48c0.35,0.35,1.06,0.91,1.47,1.26c2.58,2.23,6.95,6.4,9.24,8.98c0.26,0.29,0.41,0.59,0.76,0.76
		c0.06-4.25,1.88-6.1,5.34-7.6c0.73-0.32,1.35-0.67,2.2-1c6.45-2.52,13.82-5.54,17.57-11.68c0.59-0.97,1.76-3.26,1.88-4.66
		c-0.38,0.15-1.14,1-1.79,1.47s-1.2,0.91-1.94,1.35c-1.32,0.79-2.87,1.58-4.43,2.17c-9.3,3.61-20.42,0.35-27.46,5.19
		C44.39,27.43,42.86,29.07,42.63,30.48L42.63,30.48z"/>
	<path class="st1" d="M39.84,74.22c1.17-0.32,6.31-3.81,7.45-4.72c0.82-0.65,1.53-1.23,2.26-1.85c2.38-2.02,5.6-5.6,6.86-9.42
		c2.23-6.75-1.67-12.73-5.57-17.34c-1.32-1.55-3.43-3.81-4.93-5.22c-2.35-2.23-5.13-4.61-7.57-6.69c-1.53-1.29-2.99-2.52-4.37-3.76
		c-1.61-1.44-2.87-2.7-4.17-3.96c-2.11-2.11-5.54-5.84-6.22-10.06c-0.62-3.7,0.79-6.42,3.43-8.39c1.11-0.85,1.29-0.82,2.23-1.35
		l0.35-0.29c-4.61-0.59-10.65,0.65-14.35,2.2c-3.64,1.53-7.13,4.28-7.98,8.74c-1.09,5.72,2.67,11.15,5.49,15.02
		c0.5,0.7,1.14,1.53,1.85,2.35c0.35,0.41,0.62,0.76,0.97,1.14c1.76,1.99,5.31,6.01,6.98,7.63l3.99,4.34
		c2.73,2.96,6.13,6.19,8.62,9.12c2.29,2.67,5.08,5.96,6.42,9.3c1.29,3.23,1.35,7.3-0.03,10.59c-0.21,0.5-0.47,1-0.73,1.38l-0.7,0.85
		C39.87,74.1,40.01,73.87,39.84,74.22L39.84,74.22z"/>
	<path class="st1" d="M0,27.81c0,5.78,1.23,9.62,4.08,14.32c2.2,3.64,4.72,6.81,7.13,10.33c2.79,4.11,4.55,5.96,6.42,11.03
		c1.99,5.34,2.87,10.47,2.73,16.52c4.99-0.09,10.09-1.14,13.91-3.08c3.46-1.73,6.72-5.34,6.72-10.21c0-4.11-1.26-6.19-3.23-9.04
		c-1.38-2.02-4.72-6.1-6.42-7.83l-12.35-13.2c-0.53-0.56-0.88-1.03-1.38-1.47c-0.29-0.26-0.41-0.44-0.67-0.7
		c-0.21-0.26-0.5-0.5-0.7-0.73C11.94,28.9,6.42,22.5,5.75,15.67c-0.26-2.79,0.35-3.11,0.79-4.9C2.76,14.73,0,21.91,0,27.81z"/>
</g>
</svg>
