<?xml version="1.0" encoding="utf-8"?>
<!-- Generator: Adobe Illustrator 25.4.1, SVG Export Plug-In . SVG Version: 6.00 Build 0)  -->
<svg version="1.1" id="Layer_2" xmlns="http://www.w3.org/2000/svg" xmlns:xlink="http://www.w3.org/1999/xlink" x="0px" y="0px"
	 viewBox="0 0 326.47 80" style="enable-background:new 0 0 326.47 80;" xml:space="preserve">
<style type="text/css">
	.st0{fill:#BD9F5B;}
	.st1{fill:#B4B3B3;}
</style>
<g>
	<path class="st0" d="M277.75,12.73c-3.43,0-5.9-0.03-8.68,1.38c-1.09,0.53-1.85,1.09-2.79,1.76c-0.53,0.38-2.11,1.79-2.32,2.35
		c1.14,1.53,4.43,4.58,5.87,5.84l6.48,5.31c0.41-0.47,0.73-2.7,3.87-4.37c7.63-4.05,19.51-1,28.31-4.96
		c4.14-1.88,6.75-3.73,9.68-6.98c0.82-0.91,2.99-3.93,3.11-5.25c-0.12,0.03-2.99,1.53-4.17,1.97c-8.3,3.14-18.45,3.73-27.43,3.46
		C285.7,13.11,281.83,12.73,277.75,12.73z"/>
	<path class="st0" d="M263.14,17.19c0.38-0.18,2.17-2.67,5.81-4.31c2.93-1.32,5.16-1.32,8.8-1.32c3.34,0,6.51,0.26,9.68,0.41
		c7.28,0.32,12.2,0.23,19.39-0.79c6.19-0.88,13.7-2.9,17.63-7.86c0.59-0.73,1.7-2.38,1.85-3.31c-0.38,0.15-0.59,0.44-0.88,0.65
		c-4.69,3.55-11.76,4.22-17.54,4.66c-7.51,0.56-15.11-0.59-22.09-1.53c-3.37-0.44-6.86-0.97-10.21-1.55
		c-3.08-0.56-7.66-1.38-10.56-0.26c-4.08,1.55-6.6,6.75-4.25,11.68C261.27,14.55,262.44,16.55,263.14,17.19z"/>
	<path class="st0" d="M208.79,14.21c-0.41,0.53-2.81,8.1-3.3,9.49l-3.23,9.53h-3.83c0.11-1.76,1.73-3.45,0.26-5.37
		c-1.09-1.39-3.9-0.9-5.78-0.9c-1.31,0-10.43-0.15-11.48,0.15c-0.53,0.15-0.79,0.38-1.28,0.49c0.08-0.6,1.88-5.82,2.21-6.72
		c0.34-0.86,2.18-6.27,2.21-6.75h-4.99l-6.53,19.06h-3.15c0.08-1.01,2.06-5.89,2.06-6.53l-5.03-0.08l-2.21,6.57h-12.23
		c0.08-1.16,1.43-3.79,1.39-4.54h-5.74l-3.53,10.43l-4.84,0.04c-0.11,1.76-0.34,3.23,0.83,4.39c1.65,1.65,5.82,1.54,8.14-1.05
		c1.01-1.16,1.35-2.36,1.84-3.75l54.93-0.04l2.06-6.12c0.71-1.95,1.43-4.09,2.06-6.12c0.64-1.95,1.39-4.13,2.06-6.12
		c0.3-0.94,1.99-5.52,1.99-6.15C212.69,14.13,209.5,13.94,208.79,14.21z M193.14,33.53l-15.12-0.04c0.53-2.06,1.73-1.84,2.89-1.84
		h9.45C192.13,31.65,193.37,31.32,193.14,33.53z"/>
	<path class="st0" d="M97.54,14.13c-0.94,2.33-2.33,6.87-3.23,9.49l-2.85,8.37c-0.08,0.23-0.11,0.41-0.19,0.64
		c-0.15,0.38-0.04,0.3-0.3,0.53c-0.9,0.26-9.98,0.11-11.71,0.08c0.3-2.18,1.8-2.29,3.56-2.29h4.65c0.3-0.56,1.73-4.73,1.8-5.4
		c-1.65,0.08-0.04,0.53-3.08,0.53h-7.13c-3.34,0-3.64,1.91-4.58,4.77c-0.15,0.49-0.56,1.91-0.83,2.33l-6.19,0.08
		c-0.11-3.23-2.48-4.88-5.78-4.16c-2.81,0.64-4.39,2.29-5.93,4.09l-7.02,0.04c0.23-1.43,6.34-18.08,6.38-19.06l-4.99-0.04
		c-0.3,0.6-0.83,2.33-1.05,3.04c-0.86,2.81-7.2,20.79-7.2,21.5l12.27,0.04c0.38,0.83,0.3,1.91,1.8,2.89
		c2.59,1.65,6.3,0.04,8.44-1.99c0.19-0.19,0.34-0.38,0.56-0.6c0.38-0.38,0.34-0.34,0.98-0.34h28.29c0.38-0.79,0.75-2.18,1.05-3.04
		l3.15-9.15c0.71-2.21,1.43-4.01,2.06-6.08c0.34-1.01,2.03-5.44,2.03-6.23H97.54z M62.5,35.48c-1.09,2.51-4.31,2.21-3.41-0.11
		C60.02,32.89,63.51,33.15,62.5,35.48z"/>
	<path class="st0" d="M277.58,30.48c0.35,0.35,1.06,0.91,1.47,1.26c2.58,2.23,6.95,6.4,9.24,8.98c0.26,0.29,0.41,0.59,0.76,0.76
		c0.06-4.25,1.88-6.1,5.34-7.6c0.73-0.32,1.35-0.67,2.2-1c6.45-2.52,13.82-5.54,17.57-11.68c0.59-0.97,1.76-3.26,1.88-4.66
		c-0.38,0.15-1.14,1-1.79,1.47c-0.65,0.47-1.2,0.91-1.94,1.35c-1.32,0.79-2.87,1.58-4.43,2.17c-9.3,3.61-20.42,0.35-27.46,5.19
		C279.34,27.43,277.81,29.07,277.58,30.48L277.58,30.48z"/>
	<path class="st0" d="M25.99,26.06H19.2c-1.84,0-2.7,0-3.75,1.24c-0.75,0.86-2.21,5.89-2.74,7.43c-0.41,1.2-0.98,2.66-1.28,3.86
		h-6.9c0.08-1.16,1.43-4.01,1.43-4.8c-3.56,0.64-7.32,7.32-3.98,9.94c1.16,0.9,2.59,1.43,4.35,1.43c4.5,0,7.2-1.28,9.53-3.94
		c1.09-1.24,1.5-3.08,2.03-4.65c0.56-1.69,1.16-3.38,1.73-5.07l3.49-0.04c-0.04,0.86-2.25,6.23-2.29,7.17
		c5.25-0.04,10.39-0.15,15.68-0.15c3.23,0,2.81-0.94,3.9-4.01c0.34-0.98,0.68-2.03,1.01-2.96c0.23-0.68,0.98-2.4,0.9-2.96h-4.54
		l-1.84,5.07l-8.33,0.08c0.15-1.05,2.93-8.14,3.15-9.53c-0.53,0.19-1.39,1.01-2.03,1.35C27.83,25.99,27.27,26.06,25.99,26.06
		L25.99,26.06z"/>
	<path class="st0" d="M125.08,38.56l-6.9,0.04c0.11-1.35,1.16-3.34,1.46-4.73c-1.99-0.04-6.04,4.24-5.18,7.92
		c0.41,1.84,1.76,2.48,3.45,3.08c2.89,1.01,7.73-0.15,10.36-2.33c1.35-1.13,1.99-2.18,2.63-4.01c0.41-1.16,3.23-9.27,3.26-9.79
		l-5.7-0.04C128.38,28.8,125.19,37.88,125.08,38.56L125.08,38.56z"/>
	<path class="st0" d="M97.43,38.63c0.64,0,4.73,0.11,4.95-0.11c0.23-0.34,8.29-23.97,8.33-24.39h-4.99c-0.34,0.56-0.83,2.25-1.09,3
		c-0.38,1.01-0.68,1.99-1.05,3.04C102.91,22.16,97.39,38.03,97.43,38.63z"/>
	<path class="st0" d="M208.64,38.63l4.99-0.04c1.46-4.09,2.74-8.03,4.16-12.19c0.3-0.86,4.09-11.67,4.13-12.31h-4.99l-6.27,18.27
		C210.36,33.3,208.64,38.03,208.64,38.63z"/>
	<path class="st0" d="M134.01,38.63H139l4.16-12.19c0.49-1.39,4.13-11.86,4.13-12.31h-4.99c-2.21,6.08-4.09,12.34-6.27,18.27
		c-0.38,1.05-0.68,1.99-1.05,3.04C134.76,36.19,134.05,37.99,134.01,38.63z"/>
	<path class="st0" d="M77.69,22.24c-0.15-0.53-0.23-0.86,0.11-1.24c0.23-0.26,0.83-0.45,1.16-0.11
		C79.38,21.34,79.08,22.76,77.69,22.24z M76,22.24c-0.94,0.3-1.54,0.38-2.63,0.45c-0.23,0.38-0.56,1.58-0.64,2.1
		c1.46,0,3.6-0.34,5.03-0.56c1.39-0.23,2.66-0.68,3-2.48C81.48,18.11,76.27,17.55,76,22.24z M40.66,21.6
		c-3.19,1.16-2.14,6.15,1.01,4.92C44.6,25.35,43.89,20.4,40.66,21.6z M123.65,25.2c-3.53,0.68-3.19,5.7-0.04,5.18
		C126.77,29.89,126.62,24.64,123.65,25.2z M8.36,46.25c-0.68,0.34-0.79,0.34-1.24,1.01c-0.3,0.49-0.53,1.05-0.45,1.76
		c0.26,2.85,4.46,2.03,4.24-1.16C10.87,46.66,9.71,45.61,8.36,46.25z M164.06,40.92c-2.78,0.75-2.33,5.33,0.53,4.54
		C167.25,44.75,167.06,40.13,164.06,40.92z M2.92,46.21c-2.74,0.98-2.1,5.4,0.71,4.46C6.44,49.78,5.77,45.2,2.92,46.21z
		 M158.58,40.92c-2.78,0.68-2.36,5.37,0.53,4.54C161.62,44.75,161.62,40.17,158.58,40.92z"/>
	<path class="st1" d="M274.79,74.22c1.17-0.32,6.31-3.81,7.45-4.72c0.82-0.65,1.53-1.23,2.26-1.85c2.38-2.02,5.6-5.6,6.86-9.42
		c2.23-6.75-1.67-12.73-5.57-17.34c-1.32-1.55-3.43-3.81-4.93-5.22c-2.35-2.23-5.13-4.61-7.57-6.69c-1.53-1.29-2.99-2.52-4.37-3.76
		c-1.61-1.44-2.87-2.7-4.17-3.96c-2.11-2.11-5.54-5.84-6.22-10.06c-0.62-3.7,0.79-6.42,3.43-8.39c1.11-0.85,1.29-0.82,2.23-1.35
		l0.35-0.29c-4.61-0.59-10.65,0.65-14.35,2.2c-3.64,1.53-7.13,4.28-7.98,8.74c-1.09,5.72,2.67,11.15,5.49,15.02
		c0.5,0.7,1.14,1.53,1.85,2.35c0.35,0.41,0.62,0.76,0.97,1.14c1.76,1.99,5.31,6.01,6.98,7.63l3.99,4.34
		c2.73,2.96,6.13,6.19,8.62,9.12c2.29,2.67,5.08,5.96,6.42,9.3c1.29,3.23,1.35,7.3-0.03,10.59c-0.21,0.5-0.47,1-0.73,1.38l-0.7,0.85
		C274.82,74.1,274.97,73.87,274.79,74.22L274.79,74.22z"/>
	<path class="st1" d="M234.95,27.81c0,5.78,1.23,9.62,4.08,14.32c2.2,3.64,4.72,6.81,7.13,10.33c2.79,4.11,4.55,5.96,6.42,11.03
		c1.99,5.34,2.87,10.47,2.73,16.52c4.99-0.09,10.09-1.14,13.91-3.08c3.46-1.73,6.72-5.34,6.72-10.21c0-4.11-1.26-6.19-3.23-9.04
		c-1.38-2.02-4.72-6.1-6.42-7.83l-12.35-13.2c-0.53-0.56-0.88-1.03-1.38-1.47c-0.29-0.26-0.41-0.44-0.67-0.7
		c-0.21-0.26-0.5-0.5-0.7-0.73c-4.28-4.84-9.8-11.24-10.47-18.07c-0.26-2.79,0.35-3.11,0.79-4.9
		C237.71,14.73,234.95,21.91,234.95,27.81z"/>
	<path class="st1" d="M28.24,79.79l7.69,0.04l3.41-12.72c0.19-0.75,0.38-1.43,0.56-2.14c0.11-0.38,0.41-1.84,0.68-2.14
		c0.23,0.41,1.99,15.38,2.1,17h6.68l6.34-8.55c0.75-1.05,6.04-8.25,6.45-8.48c-0.11,0.98-5.85,16.02-6,17l7.69,0.04
		c0.45-1.84,2.7-8.78,3.45-11.07c0.3-0.94,3.38-10.43,3.45-11.14H58.26c-0.34,0.6-0.75,1.16-1.16,1.76c-0.41,0.6-0.79,1.13-1.2,1.73
		c-1.91,2.74-4.95,6.98-6.64,9.64c-0.45,0.68-0.38,0.68-0.75,0.79c-0.45-0.94-0.86-11.67-1.2-13.88H35.75
		c-0.94,0-0.56-0.08-1.39,2.44C32.37,66.47,30.08,73.52,28.24,79.79z"/>
	<path class="st1" d="M125.72,79.83c0.38-0.23,0.45-0.94,0.56-1.31c0.83-2.63,6.42-20.26,6.49-20.9h-7.65
		c-0.49,1.28-0.9,3-1.28,4.35l-2.44,8.55c-0.19,0.64-0.98,3.9-1.35,4.16c-0.23-0.23-0.23-0.6-0.3-0.98l-2.03-11.78
		c-0.23-1.35-0.41-2.93-0.75-4.24h-12.98l-6.83,22.14l7.65-0.04l2.51-8.59c0.38-1.43,0.83-2.85,1.24-4.28l1.09-3.83
		c0.15-0.3,0-0.19,0.38-0.3c0.34,2.06,2.48,16.32,2.85,17.03H125.72L125.72,79.83z"/>
	<path class="st1" d="M211.94,58.63c-2.25-1.24-7.2-1.01-10.21-1.01c-3.64,0-7.58-0.15-11.22,0l-6.98,22.21l7.65-0.04
		c0.71-1.05,1.31-4.99,1.99-5.85c1.39-0.11,6.57-0.19,7.43,0.26c1.88,0.94,0.15,3.15-0.3,5.63l7.69-0.04
		c0.34-1.35,1.54-4.54,1.58-5.48c0.11-2.78-3.04-2.7-3.79-2.93c-0.34-0.11-0.08,0-0.23-0.11c0.56-0.3,1.54-0.41,2.25-0.6
		c2.14-0.64,3.68-1.76,4.5-3.9C213.36,64.07,214.83,60.21,211.94,58.63z M204.62,66.21c-0.71,2.03-1.31,2.51-3.71,2.55
		c-2.03,0.04-4.13,0.04-6.19,0l1.88-5.97C204.62,62.79,206.08,62.01,204.62,66.21z"/>
	<path class="st1" d="M22.99,57.65c-3.49-0.41-8.89-0.34-12.16,0.45c-3.6,0.86-6.19,2.63-7.58,5.52c-0.68,1.35-2.89,8.33-3.15,9.83
		c-0.75,4.5,2.7,5.89,6.6,6.3c3.6,0.41,8.59,0.34,12.04-0.45c3.64-0.83,6.15-2.63,7.62-5.48c0.64-1.24,2.89-8.37,3.11-9.79
		C30.23,59.42,26.93,58.14,22.99,57.65z M20.51,67.67c-1.31,4.13-1.35,6.72-5.4,7.09c-1.43,0.11-4.8,0.19-5.93-0.38
		C7.61,73.6,8.7,71.12,9.11,69.7c0.45-1.43,0.98-3.53,1.61-4.73c0.83-1.54,1.73-2.1,3.9-2.29c1.39-0.11,4.69-0.19,5.82,0.34
		C22.13,63.81,20.93,66.4,20.51,67.67z"/>
	<path class="st1" d="M93.38,57.77l-0.34-0.11c-0.08,0-0.26,0-0.34,0c-0.23,0-0.49,0-0.71,0c-3.11,0-7.54-0.11-10.28,0
		c-0.34,0.64-0.68,0.94-1.01,1.43c-4.01,5.85-8.52,12.08-12.57,17.93c-0.53,0.75-1.69,2.18-1.91,2.85c-0.04,0,7.73,0,7.73,0
		c0.49-0.23,2.33-3.23,2.81-3.83h10.28l0.26,3.83h7.88C95.18,78.29,93.45,57.95,93.38,57.77z M79.79,71.61
		c0.45-0.83,1.16-1.69,1.61-2.4l3.26-4.8c0.26-0.45,0.49-0.71,0.79-1.2c0.19-0.3,0.71-0.94,0.79-1.09l0.56,9.57L79.79,71.61z"/>
	<path class="st1" d="M167.63,57.65h-9.38c-1.58,0-2.14-0.23-2.59,0.41l-5.07,7.2c-0.41,0.56-9.91,13.92-10.13,14.6
		c2.4,0.04,4.88,0.04,7.28,0c0.94,0,0.9-0.45,1.88-1.76c0.53-0.71,0.9-1.39,1.43-2.06h10.24l0.3,3.75c1.13,0.3,6.3,0.04,7.88,0.08
		L167.63,57.65z M154.12,71.65c0.15-0.41,2.81-4.31,3.19-4.84c0.56-0.79,1.01-1.54,1.61-2.36c0.41-0.56,1.2-1.99,1.65-2.33
		l0.53,9.53H154.12z"/>
	<polygon class="st1" points="171.34,79.83 179.07,79.87 186.01,57.69 178.32,57.65 	"/>
</g>
</svg>
