<?xml version="1.0" encoding="utf-8"?>
<!-- Generator: Adobe Illustrator 25.4.1, SVG Export Plug-In . SVG Version: 6.00 Build 0)  -->
<svg version="1.1" id="Layer_1" xmlns="http://www.w3.org/2000/svg" xmlns:xlink="http://www.w3.org/1999/xlink" x="0px" y="0px"
	 viewBox="0 0 575.95 80" style="enable-background:new 0 0 575.95 80;" xml:space="preserve">
<style type="text/css">
	.st0{fill:url(#SVGID_1_);}
	.st1{fill:#E62731;}
	.st2{fill:#46484D;}
</style>
<linearGradient id="SVGID_1_" gradientUnits="userSpaceOnUse" x1="262.151" y1="41.8798" x2="337.6302" y2="41.8798" gradientTransform="matrix(1 0 0 -1 0 82)">
	<stop  offset="0" style="stop-color:#B02224"/>
	<stop  offset="0.072" style="stop-color:#B72226"/>
	<stop  offset="0.309" style="stop-color:#CC252B"/>
	<stop  offset="0.544" style="stop-color:#DA262F"/>
	<stop  offset="0.776" style="stop-color:#E32631"/>
	<stop  offset="1" style="stop-color:#E62731"/>
</linearGradient>
<path class="st0" d="M336.61,1.92h-38.59l-35.86,49.23l19.49,26.73c0.39,0.58,1.17,0.58,1.56,0l54.38-74.42
	C337.77,2.88,337.39,1.92,336.61,1.92z"/>
<path class="st1" d="M235.64,1.92c-20.86,0-32.94,23.27-20.86,40l26.12,35.77c0.39,0.58,1.17,0.58,1.56,0l55.35-75.96h-62.18V1.92z"
	/>
<path class="st2" d="M191.59,10.38c-4.09-2.88-8.58-5.19-13.84-6.35c-5.07-1.35-10.14-1.92-15.2-1.92h-25.92
	c-0.78,0-1.56,0.58-1.56,1.54v73.27c0,0.77,0.58,1.54,1.56,1.54h25.92c5.07,0,10.14-0.77,15.2-2.12c5.07-1.54,9.75-3.85,13.84-6.92
	c4.09-3.08,7.41-7.12,9.94-11.92c2.53-4.81,3.9-10.58,3.9-17.31c0-7.12-1.36-13.27-3.9-18.08C199,17.31,195.69,13.27,191.59,10.38z
	 M187.89,52.88c-1.75,3.46-4.09,5.96-7.02,8.08c-2.92,1.92-6.04,3.46-9.75,4.23c-3.51,0.77-7.21,1.15-10.72,1.15h-11.5V13.65h11.5
	c3.51,0,7.21,0.38,10.72,1.15c3.51,0.77,6.82,2.12,9.75,4.04c2.92,1.92,5.26,4.62,7.02,8.08c1.75,3.46,2.73,7.88,2.73,13.27
	C190.62,45.19,189.64,49.62,187.89,52.88z"/>
<path class="st2" d="M423.72,1.92h-10.72c-0.78,0-1.56,0.58-1.56,1.54v55.58h-0.2L378.9,7.69c-2.14-3.46-6.24-5.77-10.33-5.77h-9.94
	c-0.78,0-1.56,0.58-1.56,1.54v73.27c0,0.77,0.59,1.54,1.56,1.54h10.72c0.78,0,1.56-0.58,1.56-1.54v-57.5h0.19l33.14,53.08
	c2.14,3.65,6.24,5.77,10.33,5.77h9.16c0.78,0,1.56-0.58,1.56-1.54V3.27C425.09,2.69,424.51,1.92,423.72,1.92z"/>
<path class="st2" d="M336.41,13.85l-11.69,15.96c-0.59,0.77-0.78,1.54-0.78,2.5v44.23c0,0.77,0.59,1.54,1.56,1.54h10.72
	c0.78,0,1.56-0.58,1.56-1.54v-62.5C337.58,13.65,336.8,13.46,336.41,13.85z"/>
<path class="st2" d="M508.32,34.81h-19.3c-0.59,0-1.36,0.38-1.75,0.77l-6.63,8.65c-0.59,0.77,0,1.73,0.78,1.73h15.01v19.42
	c-4.29,1.73-9.55,2.69-15.4,2.69c-4.29,0-8.19-0.77-11.5-2.12c-1.36-0.58-2.73-1.35-3.9-2.12c-1.75-1.15-3.31-2.31-4.68-3.85
	c-2.34-2.5-4.09-5.38-5.46-8.85c-1.36-3.46-1.95-7.12-1.95-11.35c0-3.65,0.58-6.92,1.56-10c0.2-0.38,0.2-0.58,0.39-0.96
	c1.36-3.46,3.12-6.35,5.46-8.85c2.34-2.5,5.07-4.42,8.38-5.96c3.31-1.35,7.02-2.12,11.11-2.12s7.99,0.77,11.5,2.31
	c2.54,1.15,4.88,2.31,6.43,3.85c0.59,0.58,1.75,0.38,2.14-0.19l6.43-8.46c0.59-0.77,0.39-1.73-0.39-2.12
	c-2.73-1.92-5.85-3.46-9.55-4.62C491.94,0.96,486.29,0,480.06,0c-6.04,0-11.5,0.96-16.57,2.88c-5.07,1.92-9.55,4.62-13.25,7.88
	c-1.95,1.73-3.7,3.85-5.26,5.96c-1.36,2.12-2.54,4.23-3.7,6.54c-2.14,5-3.31,10.38-3.31,16.54c0,1.15,0,2.31,0.2,3.27
	c0.39,4.62,1.36,9.04,2.92,13.08c2.15,5,4.87,9.23,8.77,12.69c3.7,3.46,8.19,6.35,13.25,8.27c5.26,1.92,10.92,2.88,17.15,2.88
	c6.04,0,11.5-0.58,16.18-1.54c4.29-0.96,8.19-2.12,11.7-3.85c0.78-0.38,1.17-1.15,1.17-1.92V35.96
	C509.88,35.38,509.29,34.81,508.32,34.81z"/>
<path class="st2" d="M39.37,44.04c4.48-1.35,7.99-3.08,11.3-6.54c3.12-3.46,4.68-8.08,4.68-13.46c0-4.04-0.78-7.5-2.34-10.19
	c-1.56-2.88-3.7-5-6.43-6.73c-2.73-1.73-5.65-2.88-9.16-3.65c-3.51-0.77-7.02-1.15-10.53-1.15H1.56C0.78,2.31,0,2.88,0,3.85v73.27
	c0,0.77,0.58,1.54,1.56,1.54h10.72c0.78,0,1.56-0.58,1.56-1.54V46.35h11.89L42.49,77.5c0.39,0.77,1.17,1.15,1.95,1.15h11.69
	c0.97,0,1.56-0.96,1.17-1.92L39.37,44.04z M36.25,32.69c-1.56,0.77-3.31,1.35-5.26,1.54c-1.95,0.38-3.9,0.38-5.85,0.38h-11.3V13.27
	h12.47c1.75,0,3.51,0.19,5.46,0.38c1.95,0.38,3.51,0.77,4.87,1.54c1.36,0.77,2.73,1.92,3.51,3.27c0.97,1.35,1.36,3.08,1.36,5.19
	c0,2.31-0.58,4.23-1.56,5.58C38.98,30.77,37.81,31.92,36.25,32.69z"/>
<path class="st2" d="M573.41,46.54c-1.36-2.5-3.31-4.62-5.46-6.15c-2.14-1.73-4.68-2.88-7.4-4.04c-2.73-0.96-5.26-1.92-7.6-2.69
	c-0.2,0-0.59-0.19-0.78-0.19c-0.39-0.19-0.78-0.19-0.97-0.38c-1.56-0.38-2.92-0.96-4.09-1.35c-1.75-0.58-3.31-1.35-4.68-2.31
	c-1.36-0.77-2.34-1.92-2.92-3.08c-0.78-1.15-1.17-2.69-1.17-4.42c0-1.92,0.39-3.46,1.17-4.81c0.78-1.35,1.95-2.31,3.31-3.27
	c1.36-0.77,2.73-1.35,4.29-1.92c1.56-0.38,3.12-0.58,4.87-0.58c2.73,0,5.46,0.58,7.99,1.92c0.98,0.38,1.95,0.96,2.73,1.54
	c0.78,0.38,1.56,0.38,2.14-0.38l5.65-7.69c0.59-0.77,0.39-1.73-0.39-2.12c-1.75-0.96-3.51-1.73-5.46-2.5
	C560.55,0.77,556.65,0,552.75,0c-3.51,0-7.02,0.38-10.33,1.35c-3.31,0.96-6.43,2.31-8.97,4.04c-2.73,1.92-4.87,4.23-6.43,6.92
	c-1.56,2.88-2.53,6.15-2.53,10c0,3.65,0.59,6.54,1.75,9.04c1.17,2.5,2.73,4.42,4.48,6.15c1.95,1.73,3.9,2.88,6.24,4.04
	c2.14,0.96,4.29,1.73,6.43,2.31c0.2,0,0.39,0.19,0.59,0.19c0,0,0,0,0.19,0c2.34,0.77,4.68,1.54,6.82,2.31
	c2.14,0.77,4.09,1.54,5.65,2.5c1.56,0.96,2.92,2.12,3.9,3.46c0.97,1.35,1.36,3.08,1.36,5c0,2.12-0.39,3.85-1.17,5.19
	c-0.78,1.35-1.95,2.5-3.31,3.46c-1.36,0.96-2.92,1.54-4.48,1.92c-1.75,0.38-3.31,0.58-4.87,0.58c-3.12,0-6.24-0.77-9.36-2.31
	c-2.53-1.15-5.07-2.88-6.43-4.04c-0.59-0.58-1.76-0.38-2.15,0.19l-5.85,7.88c-0.39,0.58-0.39,1.54,0.2,2.12
	c1.56,1.35,4.87,3.65,8.58,5c4.87,1.73,9.74,2.69,14.81,2.69c3.7,0,7.41-0.58,10.72-1.54c3.51-0.96,6.43-2.5,8.97-4.62
	c2.54-1.92,4.68-4.62,6.04-7.5c1.56-3.08,2.34-6.54,2.34-10.77C575.56,52.12,574.78,49.04,573.41,46.54z"/>
<path class="st2" d="M120.26,66.15H82.44V44.62h33.91c0.78,0,1.56-0.58,1.56-1.54v-8.46c0-0.77-0.58-1.54-1.56-1.54H82.44V13.65
	h10.72h27.09c0.78,0,1.56-0.58,1.56-1.54V3.27c0-0.77-0.58-1.54-1.56-1.54H84.2h-2.53c-7.21,0-13.06,5.77-13.06,12.88v50.58
	c0,7.12,5.85,12.88,13.06,12.88h38.59c0.78,0,1.56-0.58,1.56-1.54V67.5C121.82,66.92,121.04,66.15,120.26,66.15z"/>
</svg>
