<?xml version="1.0" encoding="utf-8"?>
<!-- Generator: Adobe Illustrator 25.4.1, SVG Export Plug-In . SVG Version: 6.00 Build 0)  -->
<svg version="1.1" xmlns="http://www.w3.org/2000/svg" xmlns:xlink="http://www.w3.org/1999/xlink" x="0px" y="0px"
	 viewBox="0 0 781 80" style="enable-background:new 0 0 781 80;" xml:space="preserve">
<style type="text/css">
	.st0{fill:#0C0C11;}
	.st1{fill:#FF00FF;}
	.st2{fill:#F6CC81;}
</style>
<g id="Layer_1">
	<path class="st0" d="M-238.6-885.5c-0.7-0.1-1.8,0-2.5,0c0.5-0.4,1.2-0.7,1.6-0.5c0.1,0,0.1,0,0.2,0.1
		C-239.1-885.8-238.8-885.6-238.6-885.5z"/>
	<g id="text835">
	</g>
</g>
<g id="Layer_2">
	<path class="st1" d="M15.7,8.3C15.7,8.3,15.7,8.3,15.7,8.3C15.7,8.3,15.7,8.3,15.7,8.3C15.7,8.3,15.7,8.3,15.7,8.3
		C15.7,8.3,15.7,8.3,15.7,8.3z"/>
	<g>
		<path class="st2" d="M45.1,5.7L0,76h10.8l14.8-24.2c2.7,0.6,7.1,1.2,13.6,1.2c9,0,12.5-5.1,13.7-7.5L58.2,76h11.3L55.6,5.7H45.1z
			 M30.3,44.2l17.4-28.4l5,28.4H30.3z"/>
		<polygon class="st2" points="90.4,5.7 75.2,76 85.4,76 100.7,5.7 		"/>
		<path class="st2" d="M138.9,5.7c-9.3,0-13.7,0-14.5,0h-0.1h-10.1L98.9,76h10.2l6.7-30.8l0,0h18.6l4.6,23.8c0,0,2,10.8,12.4,10.8
			l-7.2-37.7c0,0,14.5-5.5,14.5-19.5C158.7,8.7,149.3,5.7,138.9,5.7z M147.9,24.9c-2.7,10.7-11.8,11.5-15.6,11.5c-3,0-11.2,0-14.6,0
			l4.9-22.4l0,0h15.6C138.2,14,150.5,14.1,147.9,24.9z"/>
		<path class="st2" d="M233.5,44.6l2.1-8.9h-32.5l4.7-21.7l0,0h33.8l1.8-8.3h-33.9h-0.2h-10.1L184.1,76h4.5h5.7h35.3
			c0,0-1-8.7-12.7-8.7c-8.9,0-17.2,0-20.7,0l4.9-22.7H233.5z"/>
		<path class="st2" d="M318.4,2c0,0-8.5-6.5-17.8,3.7c-3.3,3.6-12.5,13.7-23.1,25l-12.9-25H252l17.5,33.8
			C252.6,57.6,235.6,76,235.6,76h10.9l27.3-28.1L288.4,76h12.6L282,39.4L318.4,2z"/>
		<path class="st2" d="M424.6,14.1c0,0-5.8,30.9-8.5,40s-11.1,14.7-23,14.7s-14.3-10.2-13.4-15.6s9.9-47.4,9.9-47.4h-9.9
			c0,0-9.2,41.6-10.2,48.5s1.4,23.5,22.6,23.5c21.2,0,30.1-14.4,32.8-20.7C427.6,50.9,436,5.7,436,5.7
			C426.6,5.7,424.6,14.1,424.6,14.1z"/>
		<path class="st2" d="M344.9,4c-12.9,0-28.9,10-35,28.9c-6.1,18.8-5.1,44.9,17.5,44.9c22.6,0,31.1-14.2,32.6-20h-10.2
			c0,0-4,11.3-18.9,11.3s-14.1-15.7-13.6-20.9c0.5-5.2,4.6-35.6,27.1-35.6c0,0,16.7,0,11,14.7c0,0,12.1-0.3,11.9-9.8
			C367.1,8,357.8,4,344.9,4z"/>
		<path class="st2" d="M476.6,5.7h-27.9l-15,70.3h9.9l6.7-30.9c3.7,0,10.7,0,15.6,0c0.8,0,1.8,0,2.9-0.2c0.6,3.8,2,11.7,3.7,22
			c2.5,14.9,13.2,13,13.2,13s-5.6-29.6-7.1-37.7c6.1-2.8,12-8.3,14.2-18.6C496.5,5.3,476.6,5.7,476.6,5.7z M481.8,26.4
			c-2.8,11.1-14.4,9.8-14.4,9.8h-15.2l4.8-22.4l15.8,0.2C476.6,14,484.6,15.3,481.8,26.4z"/>
		<polygon class="st2" points="555.1,76 565,76 579.9,5.7 570.2,5.7 		"/>
		<path class="st2" d="M723.1,1.1c0,0-8.5-0.7-11.5,12.2l-1.1,4.4l-0.1,0.1l-0.6,2.8l0,0l0,0l-9.3,41.6L678.7,5.7h-4.6h-1.8h-7.8
			L649.3,76h9.9l12.6-59.4L694.9,76h2.4h1.8h8.1l14.9-70.3L723.1,1.1z"/>
		<path class="st2" d="M533.4,3.9c-17.2,0-31.3,10.6-31.3,23.6s13.1,16.1,23.5,17.5c10.5,1.4,13.1,5.9,12.5,10.8
			c-0.6,4.8-3.9,12.9-20.9,12.9c-17,0-11.4-15.9-11.4-15.9c-4.8-0.3-11.5,3.9-11.5,9c0,5.1,1.5,15.9,22.2,15.9
			c20.8,0,32.5-13.4,32.5-25.9c0-12.5-13.5-15.2-25.5-17.7c-11.9-2.5-10.6-8.7-10.6-8.7c0-9.6,13.4-12.7,19-12.7
			c5.5,0,9.8,2.1,11.1,6.1c1.3,4.1-1.3,8.7-1.3,8.7c2.2-0.1,12.2-2,12.7-8.4C554.9,12.7,550.6,3.9,533.4,3.9z"/>
		<path class="st2" d="M759.9,3.9c-17.2,0-31.3,10.6-31.3,23.6s13.1,16.1,23.5,17.5c10.5,1.4,13.1,5.9,12.5,10.8
			c-0.6,4.8-3.9,12.9-20.9,12.9c-17,0-11.4-15.9-11.4-15.9c-4.8-0.3-11.5,3.9-11.5,9c0,5.1,1.5,15.9,22.2,15.9s32.5-13.4,32.5-25.9
			c0-12.5-13.5-15.2-25.5-17.7c-11.9-2.5-10.6-8.7-10.6-8.7c0-9.6,13.4-12.7,19-12.7c5.5,0,9.8,2.1,11.1,6.1
			c1.3,4.1-1.3,8.7-1.3,8.7c2.2-0.1,12.2-2,12.7-8.4C781.5,12.7,777.2,3.9,759.9,3.9z"/>
		<path class="st2" d="M637.2,7c-15.1-8.7-38.9,0.1-47.9,17.7c-9.2,18-11.1,43.3,4.8,50.3c17.3,7.6,37.4-0.6,47.5-18.1
			S652.3,15.7,637.2,7z M633.6,52.1c-6.9,11.9-11.8,19.5-32.9,15.1c-11.6-2.4-8.5-25.8-2.9-38.4c6.2-14.1,23.4-19.9,33.7-14
			C641.8,20.8,640.5,40.2,633.6,52.1z"/>
	</g>
</g>
</svg>
