<?xml version="1.0" encoding="utf-8"?>
<!-- Generator: Adobe Illustrator 25.4.1, SVG Export Plug-In . SVG Version: 6.00 Build 0)  -->
<svg version="1.1" id="Layer_1" xmlns="http://www.w3.org/2000/svg" xmlns:xlink="http://www.w3.org/1999/xlink" x="0px" y="0px"
	 viewBox="0 0 78.57 80" style="enable-background:new 0 0 78.57 80;" xml:space="preserve">
<style type="text/css">
	.st0{fill:#EB2227;}
</style>
<path class="st0" d="M68.69,17.37h0.07c4.9-0.52,9.81-4.94,9.02-10.14c-0.71-4.75-5.02-7.75-9.62-7.15
	c-2.62,0.34-5.76,1.95-7.07,4.34c-1.24,2.17-1.42,4.79-0.94,7.19C61.02,15.61,64.84,17.48,68.69,17.37"/>
<path class="st0" d="M11.08,39.68c0.56-4.87-3.03-7.11-6.33-7.97c-2.92-0.67-5.32-1.05-4.64-3.29l0.11-0.22
	c1.05-2.25,3.67-3.41,7.19-4.34c0.49-0.11,0.97-0.26,1.5-0.37c3.29-0.75,7.19-1.05,10.93-1.72c1.68-0.3,3.29-0.67,4.79-1.2
	c3.48-1.53,5.73-4.9,7.15-8.31c0.6-1.39,1.05-2.81,1.39-4.12c0.52-2.06,0.9-3.86,1.53-5.17c0.64-1.2,1.53-1.98,2.96-2.21
	c2.77-0.3,3.89,2.73,4.79,7.11c1.05,5.05,0.9,12.17,3.33,16.51c1.31,1.76,3.82,2.4,6.81,2.4c3.56,0,7.79-0.94,11.57-2.06
	c4.72-1.39,8.83-2.66,11.45-2.43c1.35,0.11,2.32,0.64,2.81,1.8c0.11,0.3,0.15,0.64,0.15,0.97c-0.56,2.73-5.32,5.91-11.38,9.62
	c-7.67,4.6-17.37,8.76-21.3,13.48c-0.67,0.9-1.09,1.91-1.24,2.96c-1.09,4.64,2.66,10.67,7,15.61c4.16,4.72,8.01,8.72,7.82,11.34
	c-0.15,0.52-0.52,1.01-1.16,1.39c-0.64,0.41-1.42,0.6-2.28,0.56c-3.44-0.11-8.57-3.37-14.19-7.52c-7.07-5.2-13.74-12.28-19.09-14.45
	c-0.49-0.15-0.97-0.26-1.46-0.26c-3.93-0.11-7.37,4.6-9.58,9.21c-1.98,4.27-3.48,7.94-5.17,7.6c-0.34-0.07-0.67-0.3-1.05-0.71
	c-0.94-1.09-1.24-2.96-1.16-5.35c0.11-2.36,0.64-5.17,1.31-8.27c1.27-5.8,3.67-12.13,4.83-17.26
	C10.75,41.81,10.97,40.73,11.08,39.68"/>
</svg>
