<?xml version="1.0" encoding="utf-8"?>
<!-- Generator: Adobe Illustrator 25.4.1, SVG Export Plug-In . SVG Version: 6.00 Build 0)  -->
<svg version="1.1" id="Layer_1" xmlns="http://www.w3.org/2000/svg" xmlns:xlink="http://www.w3.org/1999/xlink" x="0px" y="0px"
	 viewBox="0 0 264.24 80" style="enable-background:new 0 0 264.24 80;" xml:space="preserve">
<style type="text/css">
	.st0{fill:#EB2227;}
</style>
<g transform="matrix(.483543 0 0 .483543 98.6973 144.877)">
	<path class="st0" d="M-69.42-265.56h0.15c9.62-1.03,19.23-9.69,17.69-19.89c-1.39-9.32-9.84-15.19-18.86-14.02
		c-5.14,0.66-11.3,3.82-13.87,8.51c-2.42,4.26-2.79,9.4-1.83,14.09C-84.47-269.01-76.98-265.34-69.42-265.56"/>
	<path class="st0" d="M-182.38-221.81c1.1-9.54-5.95-13.95-12.4-15.63c-5.73-1.32-10.42-2.06-9.1-6.46l0.22-0.44
		c2.06-4.4,7.19-6.68,14.09-8.51c0.95-0.22,1.91-0.51,2.94-0.73c6.46-1.47,14.09-2.06,21.43-3.38c3.3-0.59,6.46-1.32,9.4-2.35
		c6.83-3.01,11.23-9.62,14.02-16.29c1.17-2.72,2.06-5.51,2.72-8.07c1.03-4.04,1.76-7.56,3.01-10.13c1.25-2.35,3.01-3.89,5.8-4.33
		c5.43-0.59,7.63,5.36,9.4,13.95c2.06,9.91,1.76,23.85,6.53,32.37c2.57,3.45,7.49,4.7,13.36,4.7c6.97,0,15.27-1.84,22.68-4.04
		c9.25-2.72,17.32-5.21,22.46-4.77c2.64,0.22,4.55,1.25,5.5,3.52c0.22,0.59,0.29,1.25,0.29,1.91c-1.1,5.36-10.42,11.6-22.31,18.86
		c-15.05,9.03-34.06,17.18-41.76,26.42c-1.32,1.76-2.13,3.74-2.42,5.8c-2.13,9.1,5.21,20.92,13.73,30.61
		c8.15,9.25,15.71,17.1,15.34,22.24c-0.29,1.03-1.03,1.98-2.28,2.72c-1.25,0.81-2.79,1.17-4.48,1.1
		c-6.75-0.22-16.81-6.61-27.82-14.75c-13.87-10.2-26.94-24.08-37.43-28.33c-0.95-0.29-1.91-0.51-2.86-0.51
		c-7.71-0.22-14.46,9.03-18.79,18.06c-3.89,8.37-6.83,15.56-10.13,14.9c-0.66-0.15-1.32-0.59-2.06-1.39
		c-1.83-2.13-2.42-5.8-2.28-10.5c0.22-4.62,1.25-10.13,2.57-16.22c2.5-11.38,7.19-23.78,9.47-33.84
		C-183.04-217.63-182.6-219.75-182.38-221.81"/>
	<path class="st0" d="M288.7-166.17h19.23l6.02-42.65c1.17-0.44,2.64-0.66,3.96-0.66c2.94,0,5.58,1.25,4.99,5.5l-5.36,37.8h19.16
		l5.36-37.95c2.28-16.29-9.03-22.24-23.27-22.24c-7.63,0-15.71,1.83-22.31,4.77L288.7-166.17z M264.62-209.18
		c2.28,0,4.92,1.61,4.55,4.33l-2.64,19.23c-0.44,3.16-3.3,4.48-5.8,4.48s-4.77-1.69-4.4-4.48l2.64-19.23
		C259.27-207.64,262.35-209.18,264.62-209.18 M237.39-185.84c-1.91,13.8,9.1,20.85,21.07,20.85c12.11,0,25.18-6.97,27.08-20.85
		l2.64-18.64c2.06-14.61-9.03-21.65-20.99-21.73c-12.11,0.15-25.18,7.19-27.23,21.73L237.39-185.84z M211.41-180.49
		c-1.1,0.37-2.42,0.59-3.67,0.59c-3.16,0-6.24-1.39-5.8-4.77l2.94-20.48c0.59-3.67,3.96-5.14,6.97-5.14c1.47,0,2.72,0.22,3.67,0.66
		L211.41-180.49z M240.18-246.84H220.8l-2.94,21.65c-2.42-0.81-4.99-1.17-7.49-1.17c-11.38,0-22.46,6.61-24.3,19.82l-2.86,20.18
		c-2.28,16.07,8.66,21.29,21.07,21.29c8.66,0,17.69-2.28,25.03-4.99L240.18-246.84z M126.56-166.17h19.23l6.02-42.65
		c1.1-0.44,2.64-0.66,3.96-0.66c2.94,0,5.58,1.25,4.99,5.5l-5.36,37.8h19.16l5.36-37.95c2.28-16.29-9.03-22.24-23.27-22.24
		c-7.63,0-15.71,1.83-22.31,4.77L126.56-166.17z M99.11-205.22c0.44-3.3,3.67-5.21,6.39-5.21c3.67,0,4.99,2.72,4.55,5.51
		c-0.66,5.95-7.05,7.41-11.74,5.36L99.11-205.22z M96.46-188.27c13.65,3.08,28.85-2.5,30.9-16.44c2.13-14.46-7.41-21.65-19.6-21.65
		s-25.32,7.78-27.38,22.53l-2.42,16.88c-2.06,14.39,9.1,21.87,20.99,21.87c6.83,0,14.9-1.25,23.12-9.54l-9.25-9.32
		C107.4-178.8,95.22-179.38,96.46-188.27 M70.41-226.29c-14.24,0-24.81,6.97-27.01,23.05l-5.14,37.14h19.23l5.14-36.92
		c0.88-6.53,10.06-7.49,15.12-5.73l2.28-16.07C75.33-226.07,72.46-226.29,70.41-226.29 M14.48-209.18c2.28,0,4.92,1.61,4.55,4.33
		l-2.64,19.23c-0.44,3.16-3.3,4.48-5.8,4.48s-4.77-1.69-4.48-4.48l2.64-19.23C9.12-207.64,12.2-209.18,14.48-209.18 M-12.75-185.84
		C-14.66-172.04-3.65-165,8.31-165c12.11,0,25.18-6.97,27.08-20.85l2.64-18.64c2.06-14.61-9.03-21.65-20.99-21.73
		c-12.04,0.15-25.18,7.19-27.23,21.73L-12.75-185.84z M-33.09-186.06c-1.61,3.45-4.55,4.92-7.19,4.92c-2.64,0-4.99-1.83-4.55-4.99
		l2.72-18.94c0.44-3.3,3.3-4.99,6.02-4.99c2.42,0,4.77,1.61,4.99,4.99l16.88-4.99c-1.69-12.62-11.6-16.15-19.6-16.15
		c-11.96,0-25.03,6.02-27.08,20.48l-2.72,19.23C-65.68-172.12-54.37-165-42.41-165c8,0,19.38-4.11,25.4-17.32L-33.09-186.06z"/>
	<path class="st0" d="M321.8-151.64c0.51-2.42,3.23-3.45,5.87-3.45c2.42,0,4.84,0.95,5.5,3.08l2.64-1.1
		c-0.95-3.23-4.33-4.7-7.71-4.7c-3.96,0-8.15,2.06-8.95,6.09c-0.59,4.62,3.08,5.8,6.75,6.53c3.16,0.66,6.09,1.32,5.36,4.62
		c-0.51,2.5-3.38,3.67-6.09,3.67c-2.5,0-4.92-1.1-5.58-3.3l-2.64,1.1c0.95,3.3,4.4,4.92,7.85,4.92c4.11,0,8.37-2.06,9.17-6.24
		c1.1-5.65-3.16-6.53-7.05-7.27C323.93-148.26,321.21-148.85,321.8-151.64 M293.4-154.72h12.04l0.37-2.72h-14.75l-3.23,22.97h14.75
		l0.37-2.72H290.9l1.03-7.41h11.08l0.37-2.72H292.3L293.4-154.72z M269.54-138.21l-9.1-19.23h-2.94l-3.23,22.97h2.72l2.57-18.42
		l8.88,18.42h3.3l3.23-22.97h-2.72L269.54-138.21z M241.36-157.44h-2.72l-3.23,22.97h2.72L241.36-157.44z M207.59-134.46h13.73
		l0.37-2.72h-11.01l2.86-20.26h-2.72L207.59-134.46z M180.65-146.35l1.17-8.37h6.09c3.01-0.07,4.99,0.95,4.48,4.18
		c-0.44,3.16-2.57,4.18-5.65,4.18H180.65z M189.9-134.46h3.3l-6.09-9.4c3.96-0.22,7.27-2.13,7.93-6.68c0.59-4.92-2.5-6.9-6.9-6.9
		h-8.73l-3.23,22.97h2.72l1.32-9.4h3.52L189.9-134.46z M163.33-157.44h-2.72l-3.23,22.97h2.72L163.33-157.44z M138.6-144.59h-7.05
		c1.69-3.45,3.3-6.61,4.92-9.98L138.6-144.59z M138.52-157.44h-3.3l-11.45,22.97h2.86l3.6-7.34h8.88l1.69,7.34h2.86L138.52-157.44z"
		/>
</g>
</svg>
