<?xml version="1.0" encoding="utf-8"?>
<!-- Generator: Adobe Illustrator 25.4.1, SVG Export Plug-In . SVG Version: 6.00 Build 0)  -->
<svg version="1.1" id="Layer_1" xmlns="http://www.w3.org/2000/svg" xmlns:xlink="http://www.w3.org/1999/xlink" x="0px" y="0px"
	 viewBox="0 0 224.5 80" style="enable-background:new 0 0 224.5 80;" xml:space="preserve">
<style type="text/css">
	.st0{fill-rule:evenodd;clip-rule:evenodd;fill:#E3032C;}
	.st1{fill-rule:evenodd;clip-rule:evenodd;fill:#87888B;}
</style>
<g id="Design">
	<g id="JSX_Homepage_Desktop_v2" transform="translate(-255.000000, -28.000000)">
		<g id="Navigation">
			<g id="jsx-logo-md" transform="translate(255.000000, 28.000000)">
				<polygon id="Fill-6" class="st0" points="198.5,47.9 193.1,41.9 187.7,47.9 161.1,77.2 171.9,77.2 193.1,53.8 214.3,77.2 
					225.1,77.2 				"/>
				<polygon id="Fill-8" class="st0" points="214.2,2.2 193.1,25.5 172,2.2 161.1,2.2 187.6,31.5 193.1,37.5 198.6,31.5 225.1,2.2 
									"/>
				<path id="Fill-1" class="st1" d="M89.8,61.5c5.5,5.7,13.1,9.4,21.1,9.4c10.1,0,16-5,16-12.5c0-7.8-5.6-10.3-12.8-13.5l-11-4.9
					c-7.1-3-15.5-8.5-15.5-19.7C87.6,8.6,97.8,0,111.7,0c9.1,0,17.2,3.9,22.6,9.5l-5.4,6c-4.7-4.3-10.2-7-17.2-7
					c-8.6,0-14.3,4.3-14.3,11.2c0,7.4,6.7,10.1,12.7,12.7l10.9,4.7c8.9,3.8,15.8,9.1,15.8,20.5c0,12.1-10,21.8-26.1,21.8
					c-10.8,0-20.1-4.4-26.8-11.4L89.8,61.5z"/>
				<path id="Fill-3" class="st1" d="M39.1,2.5c0,0-0.1,37.4-0.1,46.7c0,11.9-5.3,16.5-5.5,16.7c-6.1,6.4-16.5,6.9-23,0.9
					c-1.7-1.5-3.2-3.2-4.7-4.7L0,68.8c1.2,1.3,2,2.1,3.3,3.6c4.9,5,11.3,7.6,17.7,7.7c6.4,0.1,14.2-2.4,18.9-7.3
					c0,0,0.1-0.1,0.1-0.1c0.2-0.2,8.4-8,8.4-21.7V2.5H39.1z"/>
			</g>
		</g>
	</g>
</g>
</svg>
