<?xml version="1.0" encoding="utf-8"?>
<!-- Generator: Adobe Illustrator 25.4.1, SVG Export Plug-In . SVG Version: 6.00 Build 0)  -->
<svg version="1.1" id="Layer_1" xmlns="http://www.w3.org/2000/svg" xmlns:xlink="http://www.w3.org/1999/xlink" x="0px" y="0px"
	 viewBox="0 0 82.59 80" style="enable-background:new 0 0 82.59 80;" xml:space="preserve">
<style type="text/css">
	.st0{fill:#ED3024;}
	.st1{fill:#FFFFFF;}
</style>
<path class="st0" d="M47.02,10.91c0.07-0.01,0.12-0.02,0.17-0.04C47.13,10.88,47.07,10.9,47.02,10.91z M47.49,10.67
	c0,0.01,0,0.01,0,0.01C47.49,10.68,47.49,10.68,47.49,10.67C47.49,10.67,47.49,10.67,47.49,10.67z M11.75,78.34
	c-0.06,0.04-0.12,0.07-0.18,0.11C11.63,78.41,11.69,78.37,11.75,78.34z M10.41,43.89l0.34,0.18l-0.34,0.24
	c0.59,0.07,0.71-0.26,1.01-0.45C10.98,43.92,10.9,43.3,10.41,43.89z M38.23,14.04c0,0.01-0.01,0.02-0.01,0.02
	c0.01-0.01,0.02-0.01,0.03-0.02L38.23,14.04z M38.23,14.06c-0.11,0.06-0.23,0.12-0.36,0.18C38.01,14.2,38.17,14.19,38.23,14.06z
	 M47.49,10.68c-0.1,0.06-0.17,0.14-0.29,0.19C47.32,10.84,47.45,10.8,47.49,10.68z M47.88,10.12l-0.67-0.07l0.05,0.41L47.88,10.12z
	 M48.25,11.84l-0.03-0.07l-0.52,0.26l0.1,0.09L48.25,11.84z M47.55,12.42l-0.05-0.11L47,12.48l0.05,0.11L47.55,12.42z M43.13,14.85
	l-0.34,0.24l0.28-0.1L43.13,14.85z M47.81,11.65l-0.47,0.37l0.39-0.13C47.82,11.82,47.91,11.75,47.81,11.65z M48.47,10.42
	c-0.37,0.04-0.35,0.37-0.7,0.15c-0.12,0.01-0.21,0.05-0.28,0.1C47.51,10.83,48.36,10.87,48.47,10.42z M55.02,4.48
	c-0.06,0.03-0.08,0.07-0.09,0.12C54.97,4.56,55.01,4.52,55.02,4.48z M48.12,9.95c0.23-0.1,0.01-0.13-0.07-0.18
	C47.95,9.85,48.16,9.71,48.12,9.95z M52.23,7.11L52.2,7.04L51.67,7.3l0.11,0.09L52.23,7.11z M54.74,4.86
	c0.21-0.04,0.16-0.17,0.18-0.27C54.76,4.69,54.47,4.7,54.74,4.86z M81.42,52.41l-0.29-0.29l-0.2,0.41
	C81.08,52.46,81.3,52.27,81.42,52.41z M14.85,38.84c0.01-0.01,0.02-0.01,0.03-0.02l0.11-0.11L14.85,38.84z M51.53,7.69l-0.05-0.11
	l-0.5,0.17l0.05,0.11L51.53,7.69z M53.15,7.01l-0.09-0.05L52.7,7.16l0.09,0.05L53.15,7.01z M50.71,9.28
	c-0.49,0.04-0.88,0.47-0.74,0.76C50.79,9.75,49.79,9.51,50.71,9.28z M48.06,9.76c0.03-0.02,0.08-0.07,0.17-0.15
	C48.01,9.69,48.01,9.73,48.06,9.76z M48.5,11.63l0.3-0.32l-0.09-0.05l-0.36,0.33L48.5,11.63z M49.77,10.18l-0.78,0.39l0.55-0.19
	L49.77,10.18z M48.81,11.95l0.35-0.2l-0.09-0.06l-0.36,0.21L48.81,11.95z M14.42,74.11l0.81-0.45
	C14.91,73.63,14.66,73.95,14.42,74.11z M80.74,59.34c0.06-0.12,0.87-1.6,1.47-2.65c-0.01,0.01-0.03,0.01-0.04,0.02
	c0.15-0.57-0.96-0.32-0.21-1.1c-0.81-1.39-0.83-2.62-1.9-3.5l0.45-0.29c-0.03-0.44-0.3-0.65-0.47-0.94l-0.2,0.4
	c-0.3-0.15-0.08-0.61-0.11-0.92c-0.88-0.36-1.92-1.65-2.4-1.81c-0.3-0.65-0.8-0.9-0.82-1.62l0.06-0.04
	c-2.23-2.08-3.9-3.79-6.56-5.35c0.02-0.56-0.94-0.75-0.28-1.21l0.1,0.05l-1.36-1.16c-0.09,0.17-0.12,0.37-0.3,0.36
	c-0.96-1.48-2.44-2.89-3.81-4.17l0.04-0.06c1.05-1.42,2.38-2.91,3.77-4.44c0,0,0.01-0.01,0.01-0.02l0.23-0.26
	c1.7-1.88,3.48-3.82,4.94-5.78c4.62-5.11,9.22-10.62,6.25-15.63c-3.81-2.45-10.01-6.1-16.46-3.47c-0.04-0.1-0.13-0.17-0.14-0.25
	c-0.83,1.45-0.4-0.83-1.76-0.53c-0.56-0.4-1.4-0.41-1.68-0.86c-1.07,1.16-0.91-0.74-2.12-0.29l-0.19,0.57
	c-0.05-0.53-0.42-0.07-1.01-0.24c0.01,0.16,0.26,0.29,0.03,0.49c-0.57,0.15,0.03-0.22-0.44-0.27c-0.24,0.04-0.28,0.22-0.42,0.35
	c0.05,0.11,0.04,0.24,0.23,0.21c-0.34,0.53-0.74,0.5-1.28,0.86c0.11-0.04,0.32-0.15,0.42-0.06l-0.06,0.15
	c0.28-0.22,0.82,0.39,0.86-0.09c0.1-0.03,0.2-0.08,0.28-0.09v0c0.29-0.99,1.08,0.03,1.33,0.04c-0.23,0.01-0.28,0.18-0.44,0.24
	l-0.28-0.2c-0.46,0.41,0.29,0.07,0.04,0.37c-0.66,0.1-0.4,0.68-1.22,0.42l0.33-0.41c-0.17,0.19-0.45,0.28-0.7,0.16
	c0.02-0.02,0.03-0.05,0.05-0.08L54.7,6.48c-0.44,0.02-0.26-0.29-0.48-0.34c-0.42,0.06-0.67,0.36-0.86,0.51l0.68,0.07
	c0.26,0.71-0.91,0.39-1.06,1.08c-0.5,0.17-0.58-0.44-1.11-0.04c-0.17,0.03-0.08,0.12-0.1,0.2c0.2-0.15,0.4-0.21,0.66,0.03l-0.2,0.28
	c-1.36,0.26-0.15,1.12-1.35,1.3c0.07-0.06,0.04-0.15,0.06-0.22c-0.15,0.09-0.41,0.11-0.22,0.24c0,0,0,0,0,0
	c0,0.01,0.01,0.01,0.02,0.01c0.01,0,0.01,0.01,0.02,0.02c0.01,0,0.01,0,0.01,0c0.23,0.1,0.48-0.02,0.7-0.12
	c0.03,0.1,0.05,0.2,0.21,0.18c-0.03,0.06-0.07,0.11-0.11,0.15c-0.7,0.26-1.82,0.55-2.06,1.13l0.64-0.06
	c-0.37,0.09-0.6,0.35-0.77,0.48l0.67,0.07c0.06,0.17,0.04,0.27-0.03,0.36c-0.1,0.03-0.22,0.02-0.33-0.07
	c-0.19,0.15-0.72,0.25-0.66,0.65c0.01,0,0.02-0.01,0.02-0.01c-0.02,0.04-0.04,0.09-0.05,0.14c-0.5,0.17-0.58-0.43-1.11-0.04
	c-0.17,0.03-0.09,0.12-0.1,0.2c0.19-0.14,0.39-0.2,0.64,0.02l-1.04,0.46l-0.05-0.11c0.12-0.09,0.24-0.2,0.35-0.29l-0.35-0.09
	l-0.1,0.15l-0.01-0.03c-0.29,0.06-0.48,0.21-0.58,0.41l-0.5-0.12c-0.12-0.26,0.47-0.37,0.19-0.57c-0.68,0.06,0.14,0.17-0.16,0.35
	c-0.65,0.26-0.64-0.28-0.78-0.45c-0.36,0.02,0.2,1.69,0.52,2.85l-0.08,0.03c-0.03-0.2-0.69-0.1-0.37-0.38
	c-0.18,0.02-0.35,0.21-0.55,0.06c0.04-0.05,0.06-0.15,0.24-0.17l-0.08-0.18c-0.89,0.3-0.3-0.66-0.51-0.41l-0.32,0.28l-0.28-0.2
	c-0.01,0.13-0.27,0.26-0.16,0.35c0.18-0.02,0.2-0.11,0.25-0.17l0.5,0.13l-0.27,0.39c-0.07-0.02-0.2-0.02-0.17-0.11l-0.56,0.19
	l0.5,0.12l-0.14,0.26c-0.24,0.3-0.65,0.24-0.96,0.16c0.03-0.05-0.09-0.2-0.19-0.31c-1.87-0.66-1.22-0.53-2.42,0.17l0.6,1.03
	c-0.29,0.15-0.64,0.21-1.03,0.22c-2.39-2.22-5.19-4.93-8.27-8.26c-1.64-0.59-2.21-2.22-3.87-2.75c-0.06-3.18-3.49-3.28-5.69-4.5
	c-3.51-2.22-7.83-0.88-11.75,0.28c-4,1.05-8.6,3.24-10.15,7.93c-1.41,9.77,6.96,14,11.59,19.91c1.85,2.2,4.01,4.07,6.33,5.74
	c-0.26,0.2-0.46,0.43-0.57,0.51c0.31,0.69-2.07,1.38-1.6,1.85c-0.3,0.06-0.29,0.22-0.51,0.3c0.28-0.02,0.7-0.22,1.16-0.38
	c-0.19,0.2-0.35,0.37-0.5,0.53c-0.53,0.14-1.38,0.8-1.12,0.8c0.09-0.05,0.18-0.07,0.26-0.07c-0.1,0.07-0.2,0.14-0.32,0.21L14.8,38.9
	c-0.11-0.02-0.23,0.04-0.41,0.26l0.12,0.06l-0.03,0.04l0.21,0.11l-0.29,0.21c0.01,0,0.02,0,0.03,0c-0.43,0.22-0.74,0.6-0.89,0.72
	c0.08,0.17-0.01,0.34-0.18,0.51l-0.06,0.03l0.04-0.01c-0.52,0.5-1.75,0.97-1.4,1.32c-0.3,0.06-0.28,0.22-0.51,0.3
	c0.49-0.04,1.45-0.62,2.18-0.58c-0.02,0.09-0.04,0.19-0.17,0.19c-0.11,0.1-0.41,0.16-0.4,0.3l-0.01,0.01
	c-0.01,0.04-0.04,0.09-0.07,0.13l-0.55,0.12c-0.32-0.27-1.77,0.77-1.44,0.79c0.41-0.23,0.74,0.21,0.89-0.3l0.36,0.07
	c-0.28,0.21-0.53,0.41-0.6,0.6c-0.08,0.02-0.14,0.05-0.2,0.09c0.06-0.01,0.12-0.03,0.2-0.06c-0.02,0.05-0.02,0.1,0.01,0.14
	c-0.33,0.15-0.47,0.36-0.59,0.57c-0.1,0.03-0.2,0.06-0.3,0.07l0.08-0.11c-0.15,0.1-0.48,0.08-0.52,0.26
	c0.25-0.07,0.49-0.13,0.72-0.17c-0.14,0.25-0.27,0.48-0.67,0.62l0.16,0.07c-0.64,1.15-2.25,1.69-2.85,2.79
	c-0.85,0.37-1.03,1.27-1.69,1.8l0.43,0.06c-0.01,0.01-0.02,0.01-0.04,0.02l0.16,0.07c-0.64,1.14-2.25,1.7-2.85,2.78
	c-0.85,0.38-1.03,1.28-1.69,1.8l1.03,0.16C2.8,55,2.59,55.24,2.2,55.37c0.49-0.04,1.02-0.31,1.53-0.31l-0.77,0.98l1.72-0.59
	l-0.58,0.7l1.02-0.43c0.94-0.2,0.28,0.62,0.67,0.78c0.98-0.25,0.14,0.88,1.21,0.68l-0.61,0.63l0.28-0.09
	c0.49,0.51-0.63,1.44-0.67,1.91l-0.2-0.02c-0.44,0.45,0.14,0.46,0.28,0.62c0.11,0.26-0.35,0.37-0.52,0.56l0.6-0.08
	c-0.35,0.5-0.6,0.67-1.05,1.07l0.28-0.09c0.07,0.02,0.2,0.02,0.18,0.11c-0.01,0.13-0.23,0.2-0.34,0.24l0.09,0.18
	c-0.11,0.04-0.95,0.03-0.91,0.39c0.55,0.23,0.17-0.48,0.64-0.3c0.01,0.58-1.28,1.15-1.6,1.85c-0.41,0.65,0.01,1.01-0.99,1.65
	c-0.16,0.22-0.56,0.74-0.05,0.6l-1.08,1.59c1.03-0.14,0.18,0.83,0.56,0.95c1.25,0.08,0.23,1.35,1.44,1.19
	c-0.12,0.29-0.52,0.55-0.25,0.72c0.54-0.65,0.85,0.18,1.56-0.24c0.18,0.11,0.01,0.29-0.11,0.46l0.83-0.29
	c0.39-0.13,0.47,0.18,0.7,0.27l-0.36,0.21l0.64-0.01c-0.1,0.2-0.32,0.28-0.44,0.44c0.36-0.04,0.5-0.3,0.75-0.47
	c0.58-0.41,1.55-0.4,2.08-0.5l-0.55,0.48l1.52-0.6c0.03,0.2-0.19,0.44-0.55,0.48l0.12,0.26c0.54-0.23,0.88-0.6,1.5-0.51
	c-0.18,0.31-0.46,0.54-0.75,0.76c0.3,0.53,0.01,1.43-0.46,1.67l0.78,0.03l-0.19,0.57c0.72,0.05,0.89-0.3,1.44-0.49
	c-0.34,0.79,0.76,0.67,1.03,0.57c0.81-0.19,1.57-0.79,2.51-0.56c0.85-0.25,0.74-0.21,1.35-0.84l0.29,0.07
	c0.09-0.37,0.95-0.45,1.05-0.53l-0.22-0.05c0.55-0.06,0.21-0.53,0.9-0.39l0,0l-0.07,0.11l0.71-0.12c0.16-0.04,0.3-0.04,0.41-0.02
	c-0.85,0.34-2.12,0.33-2.53,1.2l0.58,0.01c-0.27,0.43-0.93,0.46-1.48,0.61c0.76-0.19,1.42,0.15,1.88-0.45
	c-0.39,0.55-0.54,0.94-1.44,1.21l0.81-0.19c-0.48,0.33-0.58,0.81-0.65,1.21c-0.33-0.05-0.68-0.1-0.9,0.38l0.56-0.19
	c-0.15,1.52-2.7,0.84-3.33,2.14l0.58,0.01c-0.27,0.43-0.93,0.46-1.49,0.61c0.75-0.19,1.42,0.14,1.88-0.45
	c-0.39,0.55-0.54,0.94-1.44,1.21l0.81-0.19c-0.49,0.34-0.59,0.83-0.66,1.24c1.41-0.44,2.46-1.22,3.11-2.07
	c0.92-0.53,1.94-0.96,2.38-1.83c-0.28-1.17,2.39-0.81,2.79-2.05c-0.68-0.36,0.46-0.96-0.22-1.06c0.21-0.11,0.33,0.02,0.52,0.03
	c-0.13-0.16,1.13-0.34,0.62-0.63c2.32-1.25,3.53-2.97,5.73-4.36c1.82-1.93,4.5-3.94,6.92-5.82c1.72-0.84,5.7-4.31,10.29-8.55
	c0.74,0.59,1.4,1.3,2.31,1.67c-0.29,2.51,2.61,1.92,3.18,3.27l0.2-0.4c0.15,0.86,0.84,0.84,1.36,1.16l-0.14,0.29
	c1.94,0.73,2.2,3.51,4.64,3.98c1.78,4.38,6.85,4.92,9.97,7.95c1.49-0.64,2.52,0.58,3.76,0.83c0.11-1.24,1.61,0.14,1.63-0.28
	l-0.04-0.16l1.16,0.42c-0.28-0.57-1.26-0.47-1.38-1.25c-0.56-0.78-1.97-0.68-2.3-1.46c0.07,0.02,0.19,0.05,0.21-0.05l0,0l-0.16,0.07
	c-0.02-0.01-0.04-0.02-0.06-0.02c-0.05-0.13-0.07-0.28-0.06-0.46c0.08,0.14,0.25,0.24,0.28,0.42l0.23-0.1
	c0.15,0.94,0.68,0.59,1.06,0.77c-0.4-0.46-0.89-0.82-1.33-1.31l-0.04-0.41l0.74,0l-0.32-0.87c0.77,0.09,1.81,0.74,2.18,1.64
	c1.76-0.29,3.48,1.27,4.96,2.06c0.08-0.17,0.17-0.35,0.35-0.33l0.25,0.62c0.39-0.17,0.74,0.51,1.1,0.54l0.05-0.48l0.25,0.12
	c0.3-0.49,0-0.64-0.02-1.09l1.09,0.17c-0.04-0.16-0.22-0.32-0.05-0.53c0.13-0.15,0.31,0.01,0.41,0.06
	c-0.01-0.36-0.13-1.64-0.39-2.27c0.3,0.15,0.44-1.29,1.04-0.86l-0.07-0.24l0.6-0.21c-0.01,0.14,0.06,0.25-0.04,0.34l0.1,0.05
	l0.14-0.29l-0.1-0.05c1.17-0.36,0.03-1.2,0.13-1.8l0.69,0.12c-0.51-0.75-1.08-1.1-1.21-2.09l0.19-0.13
	c-0.56,0.01-0.6-0.79-1.05-1.16l0.63-0.41l-0.11-0.41l-0.18,0.12c0.47-0.84-0.5-0.89-0.28-1.85C80.49,59.36,80.6,59.27,80.74,59.34z
	 M16.76,75.25c0.24-0.08,0.47-0.16,0.69-0.26C17.31,75.33,17.05,75.3,16.76,75.25z M45.98,16.32l0.13-0.15
	C46.11,16.31,46.07,16.37,45.98,16.32z M49.93,11.88c-0.11,0.06-0.26,0.11-0.41,0.16C49.53,11.9,49.5,11.79,49.93,11.88z
	 M49.86,12.68c-0.09,0.01-0.19,0.02-0.28,0.02l0.32-0.11C49.89,12.61,49.87,12.65,49.86,12.68z M50.06,12.53
	c-0.06-0.05-0.13-0.07-0.22-0.08c0-0.03-0.01-0.07-0.03-0.13c-0.02-0.11,0.32-0.06,0.65-0.1L50.06,12.53z M51.25,11.1
	c-0.09,0.01-0.19-0.01-0.28-0.05c0.02-0.02,0.03-0.05,0.05-0.08l-0.29,0.25c-0.42,0.02-0.28-0.26-0.45-0.33l0.26-0.02
	c-0.09-0.05-0.22-0.05-0.25-0.13c0.12-0.1,0.25-0.2,0.37-0.3c0.07-0.01,0.13-0.01,0.18,0.02l-0.06,0.15
	c0.17-0.13,0.42,0.03,0.61,0.08c-0.18,0.12-0.26,0.2,0.07,0.23C51.38,10.99,51.32,11.05,51.25,11.1z M50.84,10.28
	c0.23-0.17,0.46-0.32,0.71-0.44C51.35,10.08,51.12,10.16,50.84,10.28z M52.37,10c-0.09,0.04-0.18,0.07-0.28,0.09
	C52.17,10.01,52.27,9.98,52.37,10z M52.04,10.48l-0.12,0.17l-0.22,0.1L52.04,10.48z M51.63,10.52c0.02-0.01,0.04-0.01,0.06-0.02
	c-0.02,0.01-0.04,0.03-0.06,0.04C51.63,10.54,51.63,10.53,51.63,10.52z M51.86,11.33c-0.05,0.02-0.11,0.03-0.18,0.03
	c0.12-0.2,0.2-0.45,0.46-0.35C52.07,11.14,51.98,11.25,51.86,11.33z M52.14,10.55l0.05-0.06l-0.14-0.03l0.3-0.24l0.25,0.13
	L52.14,10.55z M53.38,7.94c-0.08-0.31,0.62,0.08,0.42-0.35c-0.02-0.17,0.73,0.03,1.05-0.25c0.06-0.08,0.11-0.16,0.13-0.25
	c-0.02,0.11-0.07,0.19-0.13,0.25C54.56,7.73,53.96,8.06,53.38,7.94z M54.48,8.82c-0.02-0.02-0.03-0.04-0.05-0.05l0.09,0.01
	L54.48,8.82z M54.96,7.81c-0.03,0.11-0.09,0.21-0.33,0.21L54.96,7.81c0.04-0.16,0.02-0.34,0.36-0.24L54.96,7.81z M56.28,7.52
	l-0.16,0.12C56.16,7.6,56.22,7.55,56.28,7.52l0.32-0.25l-0.22-0.05l0.38-0.3C57.08,7.15,56.58,7.33,56.28,7.52z M63.5,65.04
	c-0.08,0.06-0.13,0.14-0.14,0.27c-1.16-0.92-2.57-1.97-3.47-2.69c0.37-0.25-0.34-0.31-0.37-0.76c0.56,0.63,1.24,1.54,2.22,1.3
	c-0.52,0.68,0.56,0.63,0.61,0.8l0.14-0.29C63.11,63.83,63.2,64.81,63.5,65.04c0.16-0.12,0.41-0.13,0.55-0.25
	C63.79,65.1,63.62,65.14,63.5,65.04z M68.24,68.42c-0.39-0.48-1.07-0.74-1.17-1.29c-0.46,0.56-0.6-0.43-1.11-0.4l-0.1-0.19
	c0.17,0.3,1.13-0.02,0.8,0.53c0.32,0.37,1.76-0.93,1.2,0.59l0.11,0.41c0.14-0.15,0.26-0.02,0.41,0.06L68.24,68.42z M69.19,68.9
	c0-0.01,0-0.01,0-0.02l0.01,0C69.2,68.89,69.19,68.89,69.19,68.9z M12.43,77.65l-0.45,0.28l0.39-0.13L12.43,77.65z M51.01,10.96
	l0.13-0.11C51.07,10.88,51.04,10.92,51.01,10.96z M47.79,12.67c-0.03,0.02-0.07,0.05-0.1,0.08h0C47.76,12.73,47.78,12.7,47.79,12.67
	z M13.44,75.49l0.72,0.18c-0.29,0.06-0.36,0.2-0.55,0.48c0.35-0.08,0.69-0.32,0.98-0.25c-0.23,0.2,0.39,0.29-0.12,0.46
	c0.41,0.33,0.34-0.53,0.89-0.72l-0.67,0.23l0.21-0.24C14.6,75.65,14.24,75.14,13.44,75.49z M82.56,55.54
	c-0.13,0.2-0.08,0.46-0.08,0.69c0.16-0.28,0.28-0.48,0.33-0.56L82.56,55.54z M82.48,56.23c-0.08,0.14-0.17,0.29-0.27,0.46
	C82.43,56.58,82.48,56.41,82.48,56.23z M15.3,75.49c0.15-0.09,0.59-0.11,0.51-0.29l-0.56,0.19L15.3,75.49z M16.41,72.92l-0.45,0.28
	l0.39-0.13L16.41,72.92z M42.64,15.16C42.61,15.13,42.61,15.13,42.64,15.16L42.64,15.16z M15.73,73.62
	c-0.06,0.03-0.13,0.06-0.18,0.1C15.61,73.68,15.67,73.64,15.73,73.62z M16.15,74.7l0.89-0.43l-1.56,0.24L16.15,74.7z M14.42,74.11
	l-0.16,0.09C14.32,74.19,14.37,74.15,14.42,74.11z M9.31,45.57l0.39-0.13l0.69-0.45L9.31,45.57z M51.68,8.02
	c0.06-0.02,0.08-0.05,0.09-0.08C51.74,7.96,51.7,7.99,51.68,8.02L51.68,8.02z M51.03,9.21c-0.06,0.03-0.08,0.07-0.09,0.11
	C50.99,9.3,51.03,9.26,51.03,9.21z M42.64,15.16c0.02,0.03,0.06,0.07,0.11,0.11c0,0,0.01,0.01,0.02,0.01
	C42.7,15.22,42.66,15.18,42.64,15.16z M77.06,47.34c-0.1-0.09-0.2-0.19-0.31-0.28C76.79,47.22,76.86,47.34,77.06,47.34z M50.98,8.46
	c0.28-0.05,0.48-0.28,0.69-0.45l-0.35-0.09L50.98,8.46z M49.5,10.99c0.01-0.02,0.02-0.04,0.02-0.05l-0.16,0.01L49.5,10.99z
	 M76.7,46.81l-0.12,0.08c0.06,0.05,0.12,0.11,0.18,0.17C76.73,46.98,76.72,46.89,76.7,46.81z M63.02,5.49
	c0.03-0.04,0.05-0.1,0.08-0.15C63.04,5.39,63.02,5.44,63.02,5.49z M55.96,6.01l0.21-0.24l-0.15-0.04l-0.19,0.28L55.96,6.01z
	 M54.99,6.23l0.13-0.11C55.06,6.15,55.02,6.19,54.99,6.23z M55.89,5.7l0.14,0.03C55.99,5.7,55.94,5.69,55.89,5.7z M70.7,70.31
	c0.11,0.12,0.21,0.25,0.3,0.39C70.93,70.48,70.82,70.37,70.7,70.31z"/>
<g>
	<g>
		<path class="st1" d="M38.19,21.99c-0.8,0.15-1.5,0.89-1.56,1.67c-0.06,0.77,0.54,1.28,1.34,1.13c0.8-0.15,1.5-0.9,1.57-1.67
			C39.59,22.34,38.99,21.84,38.19,21.99z"/>
		<path class="st1" d="M43.85,25.42c-0.33,0.07-0.72,0.14-2.21,1.88c0.37-0.67,0.48-1.22,0.04-1.53c-0.47-0.32-1.28-0.07-1.74,0.23
			c-0.28,0.18-0.29,0.28-0.34,0.62c-0.04,0.23-0.25,0.74-0.39,1.03l-0.45,0.97c-1.72,2.99-2.67,3.81-2.96,4.15
			c-0.29,0.32-0.53,0.5-0.7,0.53c-0.13,0.03-0.18-0.07-0.17-0.23c0.02-0.24,0.11-0.58,0.31-1.02c0.33-0.74,0.84-1.84,1.25-2.58
			c0.22-0.44,0.79-1.48,0.79-1.48c0.54-1.2-0.48-1.63-1.08-1.54c-0.17,0.03-2.05,0.24-4.21,0.61c1.18-4.92,1.08-4.19,2.3-7.34
			c0.6-1.54,0.53-1.89,0.03-2.47c-0.51-0.58-0.41-1.22-0.98-1.27c-1.33-0.12-5.94,6.53-9.65,13c-1.74,0.52-3.49,1.15-5.11,1.88
			c-1.07,0.49-0.86,1.38-0.77,1.84c0.14,0.64,0.83,0.92,1.38,0.61c0.84-0.47,1.79-0.92,2.82-1.33c-0.03,0.07-0.04,0.1-0.03,0.1
			c-1.4,2.65-2.98,6.34-3.5,7.98c-0.29,0.92,0.17,1.73,0.96,2.09c0.79,0.36,1.32-0.02,1.59-1.25c0.33-1.53,2.32-6.27,4.34-10.1
			c0,0,0.01-0.02,0.02-0.04c1.22-0.39,2.45-0.74,3.61-1.05c-0.71,3.01-0.89,4.26-0.88,5.3c0.01,1.02,0.38,2.21,1.5,2.05
			c1.12-0.16,0.93-1.21,1.06-2.18c0.28-2.23,0.33-3.19,0.86-5.74c0.01,0,0.03-0.03,0.04-0.08c1.24-0.29,2.3-0.51,3.04-0.66
			c-0.1,0.23-0.22,0.47-0.35,0.73c-0.49,0.99-1.02,2.22-1.35,3.1c-0.32,0.88-0.5,1.58-0.54,2.17c-0.1,1.3,0.45,2.01,1.43,1.82
			c0.73-0.14,1.85-1.12,3.11-3.09c-0.15,0.47-0.23,0.85-0.24,1.09c-0.04,1.02,0.46,1.85,2.11,0.74c0.16-0.11,0.19-0.28,0.19-0.6
			c0.09-1.1,0.53-2.56,1.51-4.05c0.77-1.15,1.3-1.8,2.01-2.1c1.24-0.54,2.03-0.37,2.73-1.22C45.88,26.19,44.47,25.3,43.85,25.42z
			 M29.54,27.52c-0.87,0.17-1.79,0.38-2.73,0.6c1.63-2.9,3.43-5.8,5.1-8.08C31.08,22.09,30.23,24.83,29.54,27.52z"/>
	</g>
	<g>
		<path class="st1" d="M64.68,43.33c-0.36,0.58-0.68,1.07-1.13,1.57c-0.42,0.45-0.74,0.63-0.92,0.57c-0.47-0.17-0.21-0.85,0.28-1.84
			c0.23-0.47,0.55-1.07,0.84-1.59c0.42-0.68,0.5-0.87,0.53-1.11c0.04-0.35-0.18-0.58-0.82-0.84c-0.41-0.18-0.45-0.22-0.61-0.69
			c-0.23-0.59-0.73-0.88-1.34-0.79c-0.92,0.13-2.38,1.25-3.66,2.84c-0.47,0.53-2.07,2.68-2.26,2.96l-0.25,0.33
			c-0.7,0.96-0.89,1.18-1.2,1.52c-0.31,0.3-0.56,0.47-0.73,0.5c-0.12,0.02-0.18-0.08-0.15-0.24c0.03-0.24,0.14-0.58,0.35-1.01
			c0.36-0.73,0.93-1.8,1.37-2.52c0.24-0.43,0.66-1.21,0.69-1.3l0.24-0.41c0.61-1.08-0.32-1.61-1.02-1.55
			c-0.27,0.02-0.73,0.22-0.95,0.39c-0.18,0.12-0.21,0.17-0.26,0.41c-0.06,0.31-0.47,1.21-0.9,2c-0.54,0.97-1.12,2.17-1.5,3.04
			c-0.36,0.86-0.57,1.55-0.64,2.14c-0.17,1.29,0.35,2.03,1.34,1.89c0.74-0.1,1.52-0.8,2.49-1.92c0.31-0.36,0.65-0.84,0.98-1.35
			c-0.18,1.44,0.54,2.44,1.77,2.27c0.82-0.11,1.51-0.71,2.4-1.69c0.12-0.12,0.16-0.16,0.23-0.17c0.06-0.01,0.12,0.04,0.12,0.16
			L60,47.03c0.12,0.66,0.62,0.97,1.33,0.87c0.88-0.12,1.85-0.78,2.91-2.12c0.85-1.06,1.19-1.83,1.37-2.31
			C65.82,42.93,65.05,42.73,64.68,43.33z M59.65,45.1c-0.62,0.82-1.2,1.34-1.54,1.39c-0.21,0.03-0.33-0.18-0.29-0.48
			c0.09-0.75,1.31-3.01,2.21-4.13c0.61-0.78,1.26-1.33,1.55-1.37c0.23-0.03,0.32,0.09,0.28,0.4C61.78,41.57,60.49,44.03,59.65,45.1z
			"/>
		<path class="st1" d="M56.26,38.33c0.8-0.15,1.5-0.9,1.56-1.67c0.06-0.77-0.54-1.27-1.34-1.13c-0.8,0.15-1.5,0.9-1.57,1.67
			C54.86,37.98,55.46,38.48,56.26,38.33z"/>
		<path class="st1" d="M44.49,41.66c-0.11,0.02-0.23,0.03-0.34,0.05c1.18-4.93,1.08-4.2,2.31-7.35c0.6-1.54,0.53-1.89,0.02-2.48
			c-0.5-0.58-0.41-1.22-0.98-1.27c-1.33-0.12-5.92,6.5-9.62,12.96c-1.74,0.52-3.49,1.15-5.09,1.91c-1,0.47-0.8,1.37-0.7,1.82
			c0.13,0.64,0.79,0.93,1.3,0.63c0.83-0.49,1.79-0.95,2.81-1.38c-0.05,0.1-2.82,5.59-3.55,8.12c-0.27,0.92,0.17,1.74,0.96,2.09
			c0.78,0.36,1.32-0.02,1.59-1.25c0.33-1.53,2.97-7.66,4.4-10.21c1.22-0.39,2.44-0.73,3.57-1.03c0,0.02-0.88,3.56-0.89,5.36
			c0,1.02,0.38,2.21,1.5,2.05c1.12-0.16,0.94-1.21,1.06-2.18c0.28-2.23,0.33-3.19,0.85-5.73c0.02-0.01,0.04-0.05,0.06-0.12
			c0.29-0.07,0.57-0.13,0.83-0.19c1.39-0.3,1.79-0.29,1.89-1.39C46.53,41.39,44.97,41.58,44.49,41.66z M44.07,34.68
			c-0.83,2.04-1.67,4.78-2.37,7.46c-0.86,0.17-1.77,0.36-2.71,0.59C40.62,39.84,42.4,36.95,44.07,34.68z"/>
		<path class="st1" d="M46.26,50.61c-0.72,0.08-2.3-0.28-2.56-1.54c-0.1-0.41,0.5-1.5,0.62-1.69c0.21-0.33,0.55-0.13,0.65,0.03
			c0.25,0.36,1.57,1.55,2.34,0.78c0.49-0.5-0.27-1.14-0.59-1.67c-1.18-1.95,0.41-4.21,0.92-4.71c1.09-1.07,1.86-1.17,2.4-1.19
			c1.55-0.05,2.09,0.83,1.97,1.35c-0.13,0.57-0.43,0.91-0.64,1.13c-0.15,0.17-0.59,0.21-0.72,0.01c-0.33-0.48-0.52-1.13-1.48-0.74
			c-0.77,0.31-0.81,1.36-0.65,1.87c0.27,0.82,1.36,1.43,1.35,2.61C49.85,49.9,47.18,50.51,46.26,50.61z"/>
	</g>
</g>
</svg>
