<?xml version="1.0" encoding="utf-8"?>
<!-- Generator: Adobe Illustrator 25.4.1, SVG Export Plug-In . SVG Version: 6.00 Build 0)  -->
<svg version="1.1" id="Layer_2" xmlns="http://www.w3.org/2000/svg" xmlns:xlink="http://www.w3.org/1999/xlink" x="0px" y="0px"
	 viewBox="0 0 550.48 80" style="enable-background:new 0 0 550.48 80;" xml:space="preserve">
<style type="text/css">
	.st0{fill:#0079B3;}
	.st1{fill:#004B86;}
</style>
<g>
	<g>
		<path class="st0" d="M41.22,32.75C37.36,48.35,33.69,65.14,29.66,80c-0.46-4.77-2.39-9.54-4.87-13.49
			c-0.45-0.71-1.3-1.64-1.74-2.51c0,0,0-0.01-0.01-0.02c0-0.02-0.01-0.04-0.02-0.06c-0.17-0.34-0.27-0.68-0.24-0.98
			c0.18-3.86,6.33-3.03,8.89-3.58c0,0-0.01-0.01-0.03-0.02c-1.96-1.17-4.01-1.68-6.09-1.8c-0.33-0.02-0.64-0.04-0.99-0.04
			c-0.43,0-0.86,0.01-1.28,0.03c-1.39,0.07-2.78,0.27-4.17,0.5c-3.09,0.52-6.11,1.24-8.9,1.24c-2.94,0-6.88-2.39-6.52-4.68
			c0.19-1.29,2.39-3.03,0.92-4.41c-0.46-0.36-1.1-0.18-1.65-0.82c-0.28-1.56,1.47-1.84,1.56-2.85c-0.55-1.01-2.75-1.19-2.39-2.66
			c0.19-1.1,2.02-1.19,2.11-2.84c0-1.47-1.37-1.84-3.3-1.93c-2.38-1.47,0.37-4.13,1.65-6.14c0.64-1.01,1.84-4.32,3.12-4.68
			c0.28,0,1.38,1.1,2.02,1.01c0.83-0.1,1.65-0.55,2.11-0.55c1.74,0.09,1.47,1,2.57,1.46c-0.28-1.28-1.01-2.38-2.48-3.39
			c-1.1-0.73-3.39-1.47-3.3-2.85c0.09-1.1,1.1-1.55,1.1-3.11c3.3-0.46,7.71-0.1,11.47,1C28.1,24.4,33.6,29.45,41.22,32.75z"/>
	</g>
</g>
<path class="st0" d="M13.33,6.15c-0.64,0.83-1.1,1.93-1.65,2.94c1.74,0.18,4.04,0.37,5.96,0.83c11.38,2.29,15.78,10.92,25.32,14.22
	c1.38-4.59,2.75-11.19,3.94-16.06c0.37-1.38,0.64-2.2-0.09-3.12c-1.38-1.19-4.04-0.64-5.14-1.93c-0.64-0.73-0.09-1.47-0.92-1.74
	C38.1,0.37,35.34,1.93,33.6,0c-1.1,0.83-3.39,0.37-5.14,0.55c-1.19,0.09-2.29,1.65-3.12,0c-2.29,0.28-3.39,2.94-5.69,2.94
	c-0.46,0-1.01-0.46-1.47-0.37c-1.83,0-2.29,3.12-3.94,3.67C13.6,6.7,13.78,5.87,13.33,6.15"/>
<path class="st1" d="M22.78,62.94c-0.03,0.3,0.07,0.64,0.24,0.98c0.01,0.02,0.02,0.04,0.02,0.06c-2.2-3.02-3.93-5.91-3.93-5.91
	v-0.04c1.39-0.23,2.78-0.43,4.17-0.5c0.16,0,0.33-0.01,0.5-0.01c0.27-0.02,0.53-0.02,0.78-0.02c2.42,0.02,4.81,0.48,7.08,1.84
	c0.02,0.01,0.03,0.02,0.03,0.02C29.11,59.91,22.96,59.08,22.78,62.94z"/>
<path class="st1" d="M24.56,57.5c0.33,0,0.66,0.02,0.99,0.04C25.23,57.52,24.91,57.5,24.56,57.5z"/>
<path class="st1" d="M107.91,55.87L95.25,28.44c-2.48-5.23-5.14-5.5-8.62-5.5h-4.31c-0.46,0-3.3,0-3.3,0l0.83,1.74L45.62,55.6
	c-0.46,0.46-0.73,1.01-0.83,1.65v0.09c0,0.28,0.09,0.64,0.28,0.92c0.18,0.28,0.55,0.46,0.92,0.46l0,0l9.82-0.09
	c0.46,0,0.83-0.18,1.1-0.46l7.98-7.25h26.88l3.21,6.97c0.18,0.37,0.64,0.73,1.1,0.73l9.91,0.09l0,0c0.73,0,1.19-0.55,1.56-1.1
	c0.18-0.37,0.37-0.73,0.37-1.19C108,56.33,108,56.15,107.91,55.87L107.91,55.87z M107.18,56.24L107.18,56.24z M87.82,42.11H74.89
	l9.08-8.35L87.82,42.11"/>
<path class="st1" d="M110.57,55.96c-0.09,0.28-0.09,0.46,0,0.73c0.09,0.46,0.28,0.83,0.55,1.19c0.46,0.55,0.92,1.01,1.74,1.1l0,0
	l9.91-0.09c0.46,0,0.92-0.37,1.01-0.73l2.29-6.97l8.17-24.86l1.1-3.39c0,0-2.94,0-3.39,0h-4.4c-3.58,0-6.24,0.37-8.07,5.6
	L110.57,55.96L110.57,55.96z M111.31,56.33L111.31,56.33L111.31,56.33"/>
<path class="st1" d="M180.3,31.1c-0.18-1.01-0.46-1.93-1.01-2.75c-1.1-1.93-3.03-3.3-5.41-4.13c-2.48-0.83-5.41-1.28-8.9-1.28
	h-15.05c0,0,0,0-0.09,0l0,0h-1.65h-7.61c-0.09,0-0.28,0-0.37,0.09h-0.28c-0.46,0-0.92,0.28-1.01,0.73l-2.29,6.97l-8.17,24.86
	l-1.1,3.39c0,0,2.94,0,3.39,0h4.4c3.58,0,6.24-0.37,8.07-5.6l2.57-7.98h11.1c1.28,0,2.29,0.09,3.03,0.28
	c0.64,0.09,0.83,0.18,1.01,0.37c0.18,0.18,0.46,0.64,0.83,1.65l0,0l0.09,0.28c0,0,0.92,2.48,1.74,5.05
	c0.46,1.28,0.92,2.48,1.19,3.49c0.37,1.01,0.55,1.56,0.64,1.74c0.18,0.46,0.64,0.73,1.19,0.73l0,0h9.63c0.46,0,0.92-0.28,1.19-0.55
	c0.28-0.28,0.55-0.64,0.64-1.1l0.09-0.28l-3.49-8.99l-2.29-5.6c1.47-0.64,3.12-1.65,3.94-2.29c0.92-0.73,1.65-1.56,2.29-2.48
	c0.55-0.73,0.92-1.56,1.28-2.48l0,0l0.09-0.37l0,0l0.09-0.64c0.18-0.64,0.28-1.28,0.28-1.93C180.39,31.83,180.3,31.47,180.3,31.1z
	 M167.45,33.85c-0.18,0.28-0.37,0.55-0.64,0.83c-0.28,0.28-0.46,0.46-0.83,0.64c-0.37,0.18-0.73,0.37-1.19,0.55
	c-0.92,0.28-2.29,0.46-4.04,0.46h-12.2l1.47-4.5h12.66l0,0l0,0c1.1,0,2.02,0.09,2.66,0.28c1.1,0.18,1.56,0.55,1.83,0.83
	c0.09,0.18,0.18,0.28,0.28,0.46c0,0.09,0,0.18,0,0.37C167.45,33.76,167.45,33.85,167.45,33.85"/>
<path class="st1" d="M410.85,47.34L410.85,47.34c0-1.74-0.37-3.3-1.1-4.68c-0.73-1.38-1.83-2.48-3.21-3.39
	c-1.56-1.01-3.39-1.74-5.5-2.2c-2.11-0.46-4.5-0.73-7.16-0.73h-9.72c-1.1,0-2.11-0.09-2.84-0.28c-1.1-0.28-1.65-0.55-2.11-0.92
	c-0.18-0.18-0.28-0.37-0.37-0.55s-0.09-0.28-0.09-0.46c0.09-0.28,0.28-0.46,0.46-0.73c0.18-0.18,0.37-0.37,0.64-0.55
	c0.28-0.18,0.64-0.37,1.1-0.46c0.83-0.28,2.11-0.46,3.76-0.46h25.96c0.46,0,0.92-0.28,1.28-0.64c0.28-0.37,0.46-0.83,0.55-1.19
	l1.56-5.32c0.09-0.46,0-0.83-0.18-1.19c-0.18-0.37-0.64-0.64-1.1-0.64h-26.7c-2.66,0-5.05,0.18-7.34,0.64
	c-2.2,0.46-4.31,1.19-6.06,2.2l0,0c-1.65,0.92-3.03,2.02-4.22,3.39c-1.1,1.38-2.02,2.94-2.48,4.68v0.09c0,0.09-0.09,0.18-0.09,0.28
	c0,0.09,0,0.18,0,0.28v0.09c0,1.83,0.37,3.49,1.1,4.86c1.19,2.11,3.12,3.67,5.87,4.68c2.66,1.01,5.96,1.38,9.91,1.38h9.72
	c1.19,0,2.11,0.09,2.84,0.18c1.1,0.28,1.74,0.55,2.11,0.92c0.18,0.18,0.28,0.37,0.37,0.55c0.09,0.18,0.09,0.28,0.09,0.46
	c-0.09,0.28-0.28,0.46-0.37,0.73c-0.18,0.18-0.37,0.37-0.64,0.55s-0.64,0.37-1.1,0.46c-0.92,0.28-2.2,0.46-3.94,0.46h-28.99
	c-0.46,0-1.01,0.28-1.28,0.64c-0.37,0.37-0.55,0.83-0.55,1.19l-1.93,5.32c-0.09,0.46,0,0.83,0.18,1.19c0.18,0.37,0.64,0.64,1.1,0.64
	h30.18c2.57,0,5.05-0.18,7.25-0.64c3.3-0.64,6.15-1.74,8.35-3.49c1.1-0.83,2.02-1.93,2.84-3.03c0.73-1.19,1.38-2.39,1.74-3.76V47.8
	c0-0.09,0.09-0.18,0.09-0.28C410.85,47.52,410.85,47.43,410.85,47.34"/>
<path class="st1" d="M411.95,55.87c-0.09,0.18-0.09,0.46-0.09,0.64c0.09,0.46,0.28,0.83,0.55,1.19c0.46,0.55,0.92,1.01,1.74,1.1l0,0
	l9.91-0.09c0.46,0,0.92-0.28,1.01-0.73l2.2-6.97l8.07-24.86l1.1-3.39c0,0-2.94,0-3.39,0h-4.4c-3.58,0-6.24,0.37-7.98,5.6
	L411.95,55.87z M412.78,56.24L412.78,56.24"/>
<path class="st1" d="M357.73,31.01c-0.18-1.01-0.46-1.93-1.01-2.75c-1.1-1.93-2.94-3.3-5.41-4.13c-2.48-0.83-5.41-1.28-8.9-1.28
	h-15.05l0,0l0,0h-1.65h-7.61c-0.09,0-0.18,0-0.37,0h-0.28c-0.46,0-0.92,0.37-1.01,0.73l-2.2,6.97l-8.07,24.86l-1.1,3.39
	c0,0,2.94,0,3.39,0h4.4c3.58,0,6.24-0.37,7.98-5.6l2.57-7.98h11.1c1.28,0,2.29,0.09,3.03,0.28c0.64,0.09,0.83,0.18,1.01,0.37
	c0.18,0.18,0.46,0.64,0.83,1.65l0,0l0.09,0.28c0,0,0.92,2.48,1.74,4.95c0.46,1.28,0.92,2.48,1.19,3.49
	c0.37,1.01,0.55,1.56,0.64,1.74c0.18,0.46,0.64,0.73,1.19,0.73l0,0h9.54c0.46,0,0.92-0.18,1.19-0.55c0.37-0.28,0.55-0.64,0.64-1.1
	l0.09-0.28l-3.49-8.9l-2.29-5.6c1.47-0.64,3.03-1.65,3.94-2.29c0.92-0.73,1.65-1.56,2.39-2.48c0.55-0.73,0.92-1.56,1.28-2.39l0,0
	l0.09-0.37h0.09l0.09-0.64C358,33.49,358,32.84,358,32.2C357.82,31.83,357.82,31.38,357.73,31.01z M344.98,33.85
	c-0.18,0.37-0.37,0.55-0.64,0.83c-0.28,0.28-0.55,0.46-0.83,0.64c-0.37,0.18-0.73,0.37-1.19,0.55c-0.92,0.28-2.29,0.46-4.04,0.46
	h-12.2l1.47-4.5h12.66c1.1,0,2.02,0.09,2.66,0.28c1.01,0.18,1.56,0.55,1.83,0.83c0.09,0.18,0.18,0.28,0.18,0.46
	c0,0.09,0,0.18,0,0.37C344.98,33.76,344.98,33.85,344.98,33.85"/>
<path class="st1" d="M550.39,55.87l-12.66-27.52c-2.48-5.23-5.14-5.6-8.72-5.6h-4.31c-0.46,0-3.3,0-3.3,0l0.83,1.74l-34.31,31.1
	c-0.46,0.46-0.83,1.01-0.83,1.65v0.09c0,0.28,0.09,0.64,0.28,0.92c0.18,0.28,0.55,0.46,0.92,0.46l0,0l9.91-0.09
	c0.46,0,0.83-0.18,1.1-0.46l8.07-7.25h26.97l3.21,6.97c0.18,0.37,0.64,0.73,1.1,0.73l9.91,0.09l0,0c0.73,0,1.19-0.55,1.56-1.1
	c0.18-0.37,0.37-0.73,0.37-1.19C550.48,56.33,550.48,56.06,550.39,55.87L550.39,55.87z M549.66,56.15L549.66,56.15z M530.21,42.02
	h-12.94l9.17-8.35L530.21,42.02"/>
<path class="st1" d="M251.58,23.49c-0.18-0.37-0.64-0.64-1.1-0.64h-21.83c-6.06,0-11.47,0.64-16.15,2.11
	c-4.68,1.38-8.62,3.58-11.74,6.51c-2.66,2.48-4.5,5.6-5.5,9.08l0,0c0,0.09-0.09,0.18-0.09,0.28c0,0.09,0,0.18,0,0.28v0.09
	c-0.09,3.49,0.83,6.61,2.66,9.08c2.2,2.94,5.5,5.14,9.82,6.61c4.31,1.38,9.54,2.11,15.6,2.11h21.47c0.46,0,1.01-0.28,1.28-0.64
	c0.28-0.37,0.46-0.83,0.55-1.19l0.73-5.32c0.09-0.46,0-0.83-0.18-1.19c-0.18-0.37-0.64-0.64-1.1-0.64h-21.38
	c-4.13,0-7.34-0.46-9.91-1.28c-2.48-0.83-4.31-2.02-5.41-3.58c-0.83-1.19-1.28-2.48-1.28-4.13c0.55-1.65,1.38-2.94,2.57-4.13
	c1.65-1.56,3.76-2.75,6.51-3.58c2.75-0.83,6.15-1.28,10.18-1.28h21.83c0.46,0,0.92-0.28,1.28-0.64c0.37-0.37,0.46-0.83,0.55-1.19
	l0.73-5.32C251.86,24.22,251.77,23.85,251.58,23.49"/>
<path class="st1" d="M307.82,40.92L307.82,40.92c0.28-1.93,0.28-3.76-0.18-5.41c-0.37-1.65-1.19-3.21-2.29-4.5
	c-2.2-2.66-5.6-4.59-10-6.06l0,0l0,0c-3.76-1.19-8.35-1.83-13.49-2.11h-0.09h-0.09h-0.09c-5.32,0.18-10.09,0.92-14.22,2.11
	c-4.86,1.38-8.9,3.39-11.93,6.06c-1.47,1.38-2.75,2.84-3.67,4.5c-0.92,1.65-1.56,3.49-1.83,5.41l0,0l0,0
	c-0.28,1.93-0.28,3.76,0.09,5.41c0.37,1.65,1.19,3.21,2.2,4.5c2.11,2.66,5.5,4.68,10,6.06c3.85,1.19,8.44,1.83,13.67,2.11h0.09h0.09
	h0.09c5.32-0.18,10.09-0.92,14.22-2.11c4.95-1.38,8.99-3.39,11.93-6.06c1.47-1.38,2.75-2.84,3.67-4.5
	C307,44.68,307.55,42.84,307.82,40.92L307.82,40.92L307.82,40.92z M295.07,40.92c-0.18,0.92-0.37,1.74-0.83,2.48
	c-0.37,0.73-0.92,1.38-1.65,2.02c-1.38,1.28-3.49,2.39-6.51,3.3l0,0c-2.39,0.64-5.23,1.1-8.72,1.28c-2.75-0.09-5.14-0.46-7.16-0.92
	c-2.02-0.46-3.67-1.19-4.86-2.02c-1.19-0.83-2.02-1.74-2.48-2.75c-0.46-1.01-0.55-2.02-0.37-3.39c0.18-0.92,0.46-1.74,0.83-2.48
	c0.37-0.73,0.92-1.38,1.65-2.02c1.38-1.28,3.49-2.39,6.33-3.21h0.09c2.39-0.73,5.32-1.19,8.81-1.28c3.3,0.18,5.96,0.64,8.26,1.28
	c2.75,0.83,4.5,2.02,5.5,3.3c0.55,0.64,0.83,1.28,1.01,2.02C295.16,39.27,295.25,40,295.07,40.92"/>
<path class="st1" d="M490.67,23.49c-0.18-0.37-0.64-0.64-1.1-0.64h-21.83c-6.06,0-11.47,0.64-16.15,2.11
	c-4.68,1.47-8.62,3.58-11.74,6.51c-2.66,2.48-4.5,5.6-5.5,9.08l0,0c0,0.09-0.09,0.18-0.09,0.28c0,0.09,0,0.18,0,0.28v0.09
	c-0.09,3.49,0.83,6.61,2.66,9.08c2.2,2.94,5.5,5.14,9.82,6.61c4.31,1.38,9.54,2.11,15.6,2.11h18.9c0.46,0,0.92-0.28,1.28-0.64
	c0.37-0.37,7.25-6.24,7.34-6.51c0.09-0.37,0-0.83-0.18-1.19c-0.18-0.37-0.64-0.64-1.1-0.64h-24.77c-4.13,0-7.34-0.46-9.91-1.28
	c-2.48-0.83-4.31-2.02-5.41-3.58c-0.83-1.19-1.28-2.48-1.28-4.13c0.55-1.65,1.38-2.94,2.57-4.13c1.65-1.56,3.76-2.75,6.51-3.58
	s6.15-1.28,10.18-1.28h21.83c0.46,0,0.92-0.28,1.28-0.64c0.28-0.37,0.46-0.73,0.55-1.19l0.09-0.73l0.64-4.59
	C490.94,24.22,490.85,23.85,490.67,23.49"/>
</svg>
