<?xml version="1.0" encoding="utf-8"?>
<!-- Generator: Adobe Illustrator 25.4.1, SVG Export Plug-In . SVG Version: 6.00 Build 0)  -->
<svg version="1.1" id="Layer_1" xmlns="http://www.w3.org/2000/svg" xmlns:xlink="http://www.w3.org/1999/xlink" x="0px" y="0px"
	 viewBox="0 0 44.1 80" style="enable-background:new 0 0 44.1 80;" xml:space="preserve">
<style type="text/css">
	.st0{fill:#0C0C11;}
	.st1{fill:#FFCD00;}
	.st2{fill:#4C12A1;}
	.st3{fill:#00C1D4;}
</style>
<path class="st0" d="M-238.6-885.5c-0.7-0.1-1.8,0-2.5,0c0.5-0.4,1.2-0.7,1.6-0.5c0.1,0,0.1,0,0.2,0.1
	C-239.1-885.8-238.8-885.6-238.6-885.5z"/>
<path id="path911-4-99" class="st1" d="M0,51.5c1.6-1,3.3-1.8,4.9-3l11.2-8.1c9.4-6.3,18.7-11.9,27.9-11.9V35
	c-5.4,0-14.3,3.4-22.6,9.4L7.8,54.3l13.7,9.9c8.3,6,17.2,9.4,22.6,9.4V80c-9.2,0-18.6-5.6-27.9-11.9L4.9,60c-1.7-1.2-3.4-2-4.9-3
	V51.5z"/>
<path id="path911-4-9" class="st2" d="M0,37.3c1.6-1,3.3-1.8,4.9-3l11.2-8.1c9.4-6.3,18.7-11.9,27.9-11.9v6.5
	c-5.4,0-14.3,3.4-22.6,9.4L7.8,40.1L21.5,50c8.3,6,17.2,9.4,22.6,9.4v6.5c-9.2,0-18.6-5.6-27.9-11.9L4.9,45.8c-1.7-1.2-3.4-2-4.9-3
	V37.3z"/>
<g id="text835">
</g>
<path id="path911-4" class="st3" d="M0,23c1.6-1,3.3-1.8,4.9-3l11.2-8.1C25.5,5.6,34.9,0,44.1,0v6.5c-5.4,0-14.3,3.4-22.6,9.4
	L7.8,25.7l13.7,9.9c8.3,6,17.2,9.4,22.6,9.4v6.5c-9.2,0-18.6-5.6-27.9-11.9L4.9,31.5c-1.7-1.2-3.4-2-4.9-3V23z"/>
</svg>
