<?xml version="1.0" encoding="utf-8"?>
<!-- Generator: Adobe Illustrator 25.4.1, SVG Export Plug-In . SVG Version: 6.00 Build 0)  -->
<svg version="1.1" id="Layer_1" xmlns="http://www.w3.org/2000/svg" xmlns:xlink="http://www.w3.org/1999/xlink" x="0px" y="0px"
	 viewBox="0 0 208.7 80" style="enable-background:new 0 0 208.7 80;" xml:space="preserve">
<style type="text/css">
	.st0{fill:#0C0C11;}
	.st1{fill:#FFCD00;}
	.st2{fill:#4C12A1;}
	.st3{fill:#00C1D4;}
</style>
<path class="st0" d="M-74-885.5c-0.7-0.1-1.8,0-2.5,0c0.5-0.4,1.2-0.7,1.6-0.5c0.1,0,0.1,0,0.2,0.1C-74.5-885.8-74.2-885.6-74-885.5
	z"/>
<g id="layer1">
	<path id="path911-4-99" class="st1" d="M164.6,51.5c1.6-1,3.3-1.8,4.9-3l11.2-8.1c9.4-6.3,18.7-11.9,27.9-11.9V35
		c-5.4,0-14.3,3.4-22.6,9.4l-13.7,9.9l13.7,9.9c8.3,6,17.2,9.4,22.6,9.4V80c-9.2,0-18.6-5.6-27.9-11.9L169.5,60
		c-1.7-1.2-3.4-2-4.9-3V51.5z"/>
	<path id="path911-4-9" class="st2" d="M164.6,37.3c1.6-1,3.3-1.8,4.9-3l11.2-8.1c9.4-6.3,18.7-11.9,27.9-11.9v6.5
		c-5.4,0-14.3,3.4-22.6,9.4l-13.7,9.9l13.7,9.9c8.3,6,17.2,9.4,22.6,9.4v6.5c-9.2,0-18.6-5.6-27.9-11.9l-11.2-8.1
		c-1.7-1.2-3.4-2-4.9-3V37.3z"/>
	<g id="text835">
	</g>
	<g id="text835-1" transform="matrix(0.47132278,0,0,0.47132278,8.4846932,-29.575361)">
		<path id="path906" class="st2" d="M115.2,113.4H99.5l-8.6,53.2c-0.4,2.5-2.5,3.8-5,3.8s-4.6-1.3-5-3.8l-9.3-53.2H55.9l10.2,55.5
			c1.8,9.8,9.6,15.8,19.8,15.8s17.1-6,18.9-15.8l2.5-13.2L115.2,113.4z M268,184.9c20.1,0,36.4-16.4,36.4-36.4
			c0-20.1-16.2-36.4-36.4-36.4c-20,0-36.4,16.2-36.4,36.4C231.6,168.5,248,184.9,268,184.9z M268,170.9c-11.9,0-21.7-10.1-21.7-22.4
			c0-12.5,9.8-22.4,21.7-22.4c12,0,21.7,9.9,21.7,22.4C289.7,160.8,280,170.9,268,170.9z M206,183.5h14.7V85.5H206L206,183.5z
			 M194.8,143.5c-2.1-17.8-17.3-31.3-35.7-31.3c-20.1,0-36.4,16.2-36.4,36.4s16.2,36.4,36.4,36.4c15.4,0,26.9-7,33.3-17.5l-11.2-5.7
			c-4.2,6.4-11.2,10.8-21,10.8c-12.3,0-21-8.7-22.7-20.6h57.6C195.4,149.1,195.3,146.5,194.8,143.5L194.8,143.5z M159.2,122.6
			c9.9,0,18.2,6.2,20.7,15.4c0.4,1.4,0.7,3.2,0.8,4.9h-43.1C139.4,130.9,147.7,122.6,159.2,122.6L159.2,122.6z M16.4,112.1
			c-12.9,0-23.6,4.8-30.2,11.8l6.3,8.1c6-5.5,13.3-8.1,21-8.1c10.9,0,17.9,6.4,19.2,16.9c-6-1-11.9-1.4-17.6-1.4
			c-21,0-33,8.3-33,22.9c0,12.7,10.8,22.5,25.7,22.5c10.9,0,19.7-4.6,26-11.9l0.3,10.5h13.4v-39.3C47.5,124.9,35.2,112.1,16.4,112.1
			L16.4,112.1z M10.4,174.4c-8.8,0-14.7-5.6-14.7-12.9c0-8.7,7.1-13.6,19.7-13.6c5.6,0,11.5,0.8,17.3,2.1
			C32.5,164.2,23.1,174.4,10.4,174.4z"/>
	</g>
	<path id="path911-4" class="st3" d="M164.6,23c1.6-1,3.3-1.8,4.9-3l11.2-8.1C190.1,5.6,199.5,0,208.7,0v6.5
		c-5.4,0-14.3,3.4-22.6,9.4l-13.7,9.9l13.7,9.9c8.3,6,17.2,9.4,22.6,9.4v6.5c-9.2,0-18.6-5.6-27.9-11.9l-11.2-8.1
		c-1.7-1.2-3.4-2-4.9-3V23z"/>
</g>
</svg>
