<?xml version="1.0" encoding="utf-8"?>
<!-- Generator: Adobe Illustrator 25.4.1, SVG Export Plug-In . SVG Version: 6.00 Build 0)  -->
<svg version="1.1" xmlns="http://www.w3.org/2000/svg" xmlns:xlink="http://www.w3.org/1999/xlink" x="0px" y="0px"
	 viewBox="0 0 80.17 80" style="enable-background:new 0 0 80.17 80;" xml:space="preserve">
<style type="text/css">
	.st0{fill:#004193;}
	.st1{fill:#EC6C00;}
</style>
<g id="Layer_2">
</g>
<g id="Layer_1">
	<path class="st0" d="M17.98,6.8c-0.24-0.06-0.48,0-0.72,0.12c-0.72,0.48-1.44,1.02-2.17,1.62c-0.36,0.3-0.48,0.78-0.24,1.14
		l6.8,11.79l0.36,0.48c0,0.06,0,0.06,0,0l-0.48-0.36L9.68,14.8c-0.36-0.24-0.9-0.12-1.2,0.24c-0.54,0.72-1.08,1.44-1.62,2.17
		c-0.12,0.24-0.18,0.48-0.12,0.72c0.06,0.24,0.24,0.48,0.42,0.6l20.15,11.61c0.12,0.06,0.3,0.12,0.48,0.12
		c0.24,0,0.48-0.12,0.66-0.3c0.48-0.54,0.96-1.02,1.44-1.44c0.3-0.3,0.42-0.78,0.18-1.14L18.59,7.22
		C18.47,6.98,18.23,6.86,17.98,6.8"/>
	<path class="st0" d="M50.47,54.26c-13.77,1.02-32.84,4.03-46.5,3.31c1.44,2.95,3.25,5.65,5.35,8.18c1.2,1.38,2.47,2.71,3.85,3.97
		C20.63,76.33,30.2,80,40.12,80c9.98,0,19.55-3.61,26.89-10.17c3.07-2.71,5.53-5.59,7.46-8.78c1.32-2.17,2.41-4.45,3.31-6.92
		C71.88,52.99,61.83,53.41,50.47,54.26"/>
	<path class="st0" d="M17.98,6.8c-0.24-0.06-0.48,0-0.72,0.12c-0.72,0.48-1.44,1.02-2.17,1.62c-0.36,0.3-0.48,0.78-0.24,1.14
		l6.8,11.79l0.36,0.48c0,0.06,0,0.06,0,0l-0.48-0.36L9.68,14.8c-0.36-0.24-0.9-0.12-1.14,0.24C8,15.76,7.46,16.48,6.92,17.2
		c-0.12,0.18-0.18,0.48-0.12,0.72c0.06,0.24,0.24,0.48,0.42,0.6l20.15,11.61c0.12,0.06,0.3,0.12,0.48,0.12
		c0.24,0,0.48-0.12,0.66-0.3c0.48-0.54,0.96-1.02,1.44-1.44c0.3-0.3,0.42-0.78,0.18-1.14L18.59,7.22
		C18.47,7.04,18.23,6.86,17.98,6.8"/>
	<path class="st0" d="M73.32,17.92c0.06-0.24,0-0.48-0.12-0.72c-0.48-0.72-1.02-1.44-1.62-2.17c-0.3-0.36-0.78-0.42-1.14-0.24
		l-11.85,6.86l-0.48,0.36c-0.06,0-0.06,0,0,0l0.36-0.48l6.8-11.79c0.24-0.36,0.12-0.9-0.24-1.14c-0.72-0.54-1.44-1.08-2.17-1.62
		c-0.18-0.12-0.48-0.18-0.72-0.12c-0.24,0.06-0.48,0.24-0.6,0.42L49.86,27.43c-0.06,0.12-0.12,0.3-0.12,0.48
		c0,0.24,0.12,0.48,0.3,0.66c0.54,0.42,1.02,0.96,1.44,1.44c0.3,0.3,0.78,0.42,1.14,0.18l20.15-11.61
		C73.14,18.41,73.26,18.17,73.32,17.92"/>
	<path class="st0" d="M57.86,4.27c-0.06-0.24-0.24-0.42-0.48-0.54c-0.78-0.36-1.62-0.72-2.47-1.08c-0.42-0.18-0.9,0-1.14,0.36
		l-6.8,11.79l-0.24,0.54c0,0.06,0,0.06,0,0l0.06-0.6V1.2c0-0.48-0.36-0.84-0.78-0.9c-0.9-0.12-1.8-0.24-2.65-0.3
		c-0.24,0-0.48,0.06-0.66,0.24s-0.3,0.42-0.3,0.66v23.28c0,0.18,0.06,0.3,0.12,0.48c0.12,0.24,0.36,0.36,0.6,0.42
		c0.66,0.12,1.32,0.3,1.98,0.54c0.42,0.12,0.84-0.06,1.08-0.42L57.86,5.05C57.86,4.81,57.92,4.51,57.86,4.27"/>
	<path class="st0" d="M79.94,37.47c0.18-0.18,0.24-0.42,0.24-0.72c-0.06-0.9-0.18-1.8-0.3-2.65c-0.06-0.42-0.42-0.78-0.9-0.78H65.32
		l-0.6,0.06c-0.06,0-0.06,0,0,0l0.54-0.24l11.85-6.8c0.42-0.24,0.54-0.72,0.42-1.14c-0.3-0.84-0.72-1.68-1.08-2.47
		c-0.12-0.24-0.3-0.42-0.54-0.48c-0.24-0.06-0.48-0.06-0.72,0.06L55.04,33.92c-0.12,0.06-0.24,0.18-0.36,0.3
		c-0.12,0.24-0.18,0.48-0.06,0.72c0.24,0.66,0.42,1.32,0.54,1.98c0.06,0.42,0.48,0.72,0.9,0.72h23.28
		C79.52,37.77,79.76,37.65,79.94,37.47"/>
	<path class="st0" d="M4.33,22.26c-0.24,0.06-0.42,0.24-0.54,0.48c-0.36,0.78-0.72,1.62-1.08,2.47c-0.18,0.42,0,0.9,0.42,1.14
		l11.79,6.8l0.54,0.24c0.06,0,0.06,0,0,0l-0.6-0.06H1.2c-0.48,0-0.84,0.3-0.9,0.78c-0.12,0.9-0.24,1.8-0.3,2.65
		c0,0.24,0.06,0.48,0.24,0.66c0.18,0.18,0.42,0.3,0.66,0.3h23.28c0.18,0,0.3-0.06,0.48-0.12c0.24-0.12,0.36-0.36,0.42-0.6
		c0.12-0.66,0.3-1.32,0.54-1.98c0.12-0.42,0-0.84-0.42-1.08L5.05,22.32C4.81,22.2,4.57,22.2,4.33,22.26"/>
	<path class="st0" d="M37.59,0.24C37.41,0.06,37.17,0,36.87,0c-0.9,0.06-1.8,0.18-2.65,0.3c-0.48,0.06-0.78,0.42-0.78,0.9v13.65
		l0.06,0.6c0,0.06,0,0.06,0,0l-0.24-0.54l-6.8-11.79c-0.24-0.36-0.72-0.54-1.14-0.36c-0.84,0.3-1.68,0.72-2.47,1.08
		c-0.24,0.12-0.42,0.3-0.48,0.54c-0.06,0.24-0.06,0.48,0.06,0.72l11.67,20.15c0.06,0.12,0.18,0.24,0.36,0.36
		c0.24,0.12,0.48,0.18,0.78,0.06c0.66-0.24,1.32-0.42,1.98-0.54c0.42-0.06,0.72-0.48,0.72-0.9V0.96C37.83,0.6,37.77,0.36,37.59,0.24
		"/>
	<path class="st1" d="M77.65,42.83c-8.42,0-14.86,2.05-31.58,5.59c-23.64,4.99-40.42,0.9-44.27,0.36c-0.6-0.06-0.96,0.24-0.78,0.84
		c0.42,1.92,1.86,6.02,2.89,7.88c13.71,0.72,32.72-2.29,46.5-3.31c11.37-0.84,21.41-1.26,27.31-0.06c0.96-2.71,1.68-5.53,2.11-8.6
		C80.18,43.79,80,42.83,77.65,42.83"/>
	<path class="st1" d="M0.78,45.65c0.78,0.3,11.73,4.03,28.69,4.27c4.81,0.06,10.95-0.66,14.62-1.44c-1.92,0.3-6.02,0.9-11.07,0.9
		c-9.74-0.06-24.6-3.43-31.64-6.62c-0.3-0.12-0.6-0.06-0.9,0.12c-0.24,0.18-0.42,0.48-0.36,0.84c0.06,0.42,0.06,0.9,0.12,1.32
		C0.3,45.29,0.36,45.47,0.78,45.65"/>
</g>
</svg>
