<?xml version="1.0" encoding="utf-8"?>
<!-- Generator: Adobe Illustrator 25.4.1, SVG Export Plug-In . SVG Version: 6.00 Build 0)  -->
<svg version="1.1" xmlns="http://www.w3.org/2000/svg" xmlns:xlink="http://www.w3.org/1999/xlink" x="0px" y="0px"
	 viewBox="0 0 361.17 80" style="enable-background:new 0 0 361.17 80;" xml:space="preserve">
<style type="text/css">
	.st0{fill:#004193;}
	.st1{fill:#EC6C00;}
</style>
<g id="Layer_2">
</g>
<g id="Layer_1">
	<g>
		<path class="st0" d="M119.94,50.95c1.56,1.14,3.13,1.98,4.81,2.65c1.68,0.6,3.43,0.96,5.35,0.96c2.11,0,3.67-0.42,4.81-1.26
			s1.68-1.98,1.68-3.43c0-0.9-0.12-1.68-0.36-2.35c-0.24-0.66-0.66-1.26-1.2-1.8c-0.54-0.54-1.32-1.08-2.23-1.56
			c-0.9-0.48-2.05-1.02-3.31-1.62c-1.5-0.66-2.83-1.38-3.97-2.11c-1.2-0.72-2.17-1.5-3.01-2.41s-1.44-1.92-1.92-3.19
			c-0.42-1.2-0.66-2.65-0.66-4.33c0-1.74,0.3-3.31,0.96-4.75c0.66-1.38,1.5-2.59,2.65-3.49c1.14-0.96,2.53-1.68,4.15-2.17
			c1.62-0.48,3.37-0.78,5.35-0.78c1.98,0,3.85,0.24,5.59,0.78c1.74,0.48,3.19,1.14,4.39,1.92l-1.32,6.62
			c-1.14-0.9-2.41-1.68-3.85-2.29c-1.44-0.6-3.01-0.9-4.69-0.9c-1.68,0-3.07,0.42-4.15,1.2s-1.62,1.86-1.62,3.25
			c0,0.84,0.12,1.5,0.42,2.11c0.24,0.6,0.66,1.08,1.14,1.56c0.48,0.48,1.14,0.9,1.92,1.32c0.78,0.42,1.68,0.84,2.71,1.32
			c1.5,0.66,2.89,1.38,4.15,2.05c1.32,0.66,2.41,1.5,3.37,2.41c0.96,0.9,1.68,1.98,2.29,3.19c0.54,1.2,0.84,2.71,0.84,4.51
			c0,3.91-1.26,6.98-3.85,9.08c-2.59,2.17-6.14,3.19-10.71,3.19c-2.23,0-4.21-0.3-6.02-0.9c-1.8-0.6-3.31-1.26-4.57-2.11
			L119.94,50.95z"/>
		<path class="st0" d="M147.25,31.04h7.04v19.31c0,1.5,0.3,2.65,0.84,3.43c0.54,0.78,1.44,1.2,2.71,1.2c1.08,0,1.98-0.36,2.71-1.02
			s1.38-1.62,1.98-2.77V31.04h6.92v28.93h-6.74v-3.49c-0.3,0.42-0.6,0.9-1.02,1.38c-0.42,0.48-0.9,0.96-1.44,1.32
			c-0.54,0.42-1.2,0.78-1.92,1.02c-0.72,0.3-1.56,0.42-2.47,0.42c-1.56,0-2.89-0.24-3.97-0.72c-1.08-0.48-1.98-1.14-2.65-2.05
			c-0.66-0.9-1.2-1.92-1.5-3.19c-0.3-1.26-0.48-2.65-0.48-4.15L147.25,31.04L147.25,31.04z"/>
		<path class="st0" d="M173.83,30.86h6.74v3.49c0.24-0.42,0.6-0.9,1.02-1.38c0.42-0.48,0.9-0.96,1.5-1.32
			c0.54-0.42,1.2-0.78,1.92-1.02c0.72-0.3,1.56-0.42,2.47-0.42c3.13,0,5.29,0.9,6.62,2.71c1.32,1.8,1.98,4.27,1.98,7.34v19.67h-7.04
			V40.54c0-1.5-0.3-2.65-0.84-3.43c-0.54-0.84-1.44-1.2-2.71-1.2c-1.08,0-1.98,0.36-2.71,1.02c-0.72,0.66-1.38,1.62-1.98,2.77v20.27
			h-6.92V30.86H173.83z"/>
		<polygon class="st0" points="200.66,19.79 222.44,19.79 222.14,25.98 208.06,25.98 208.06,35.97 219.55,35.97 219.55,42.17 
			208.06,42.17 208.06,53.65 223.1,53.65 223.1,59.91 200.66,59.91 		"/>
		<path class="st0" d="M225.14,59.91c0.78-1.38,1.5-2.71,2.23-3.91c0.72-1.26,1.44-2.53,2.23-3.79c0.72-1.14,1.44-2.35,2.17-3.55
			c0.78-1.2,1.5-2.35,2.23-3.49c-0.78-1.2-1.5-2.41-2.23-3.61c-0.72-1.2-1.44-2.47-2.17-3.61s-1.38-2.35-1.98-3.49
			c-0.66-1.2-1.32-2.35-1.98-3.49h7.88l1.74,3.43c0.36,0.66,0.78,1.44,1.2,2.35c0.48,0.84,0.96,1.68,1.44,2.47
			c0.48-0.72,0.96-1.56,1.5-2.47c0.54-0.96,1.08-1.74,1.5-2.47c0.3-0.48,0.6-1.02,0.9-1.56c0.3-0.54,0.6-1.08,0.9-1.68h7.4
			c-0.72,1.2-1.38,2.41-2.05,3.49c-0.66,1.14-1.32,2.29-2.05,3.49c-0.66,1.14-1.38,2.29-2.11,3.43c-0.72,1.14-1.44,2.29-2.17,3.31
			c0.72,1.14,1.44,2.41,2.23,3.67c0.78,1.32,1.56,2.59,2.23,3.85c0.72,1.26,1.44,2.53,2.17,3.79c0.72,1.26,1.44,2.59,2.23,3.97
			h-7.88l-2.23-4.09l-2.83-4.93l-2.83,4.69c-0.42,0.66-0.78,1.32-1.2,2.05c-0.42,0.72-0.84,1.44-1.26,2.23h-7.22V59.91z"/>
		<path class="st0" d="M260.21,52.33c0.36,0.6,0.96,1.2,1.68,1.8c0.72,0.6,1.56,0.84,2.59,0.84c1.38,0,2.59-0.78,3.55-2.29
			c1.02-1.5,1.5-3.97,1.5-7.28c0-3.49-0.48-6.02-1.5-7.52c-0.96-1.5-2.23-2.29-3.73-2.29c-1.02,0-1.86,0.3-2.53,0.84
			c-0.66,0.54-1.2,1.08-1.56,1.56L260.21,52.33L260.21,52.33z M253.23,30.86h6.92v2.11c0.66-0.78,1.44-1.44,2.47-1.98
			s2.17-0.78,3.55-0.78c3.25,0,5.77,1.26,7.64,3.73c1.86,2.53,2.77,6.26,2.77,11.19c0,5.17-0.9,9.08-2.77,11.61
			c-1.86,2.53-4.33,3.79-7.4,3.79c-0.9,0-1.68-0.12-2.41-0.3c-0.66-0.24-1.26-0.48-1.8-0.78c-0.48-0.3-0.9-0.66-1.26-1.02
			c-0.36-0.36-0.6-0.72-0.84-1.08V71.7h-0.24h-6.74V30.86H253.23z"/>
		<path class="st0" d="M279.7,30.86h6.74v4.51c0.3-0.66,0.72-1.26,1.14-1.86c0.42-0.6,0.96-1.14,1.5-1.56
			c0.6-0.42,1.26-0.84,2.05-1.08c0.78-0.24,1.68-0.42,2.71-0.42c0.72,0,1.32,0.06,1.86,0.18l-0.66,5.95
			c-0.24-0.06-0.48-0.12-0.78-0.18c-0.24-0.06-0.6-0.06-0.96-0.06c-1.5,0-2.83,0.36-3.91,1.02c-1.08,0.66-2.05,1.8-2.83,3.43v19.07
			h-6.92V30.86H279.7z"/>
		<path class="st0" d="M311.04,41.62c-0.12-4.39-1.38-6.56-3.85-6.56c-1.2,0-2.23,0.54-3.01,1.56c-0.78,1.02-1.26,2.71-1.38,4.99
			H311.04z M317.47,57.86c-0.9,0.78-2.11,1.44-3.49,1.92c-1.38,0.48-3.19,0.72-5.41,0.72c-1.92,0-3.67-0.36-5.23-1.08
			c-1.56-0.72-2.95-1.74-4.09-3.07s-1.98-2.95-2.59-4.81s-0.96-3.91-0.96-6.14c0-4.81,1.02-8.6,3.07-11.25
			c2.05-2.65,4.81-4.03,8.36-4.03s6.2,1.14,7.94,3.43c1.8,2.29,2.65,5.35,2.65,9.26c0,0.66,0,1.32-0.06,1.98
			c-0.06,0.66-0.06,1.2-0.18,1.62h-14.86c0.06,1.2,0.24,2.35,0.66,3.37c0.42,1.02,0.96,1.86,1.68,2.65
			c0.66,0.72,1.44,1.32,2.35,1.74c0.9,0.42,1.8,0.6,2.83,0.6c2.65,0,4.93-0.9,6.8-2.65L317.47,57.86z"/>
		<path class="st0" d="M321.14,52.15c1.02,0.78,2.23,1.44,3.55,2.11c1.38,0.6,2.77,0.96,4.21,0.96c0.48,0,0.9-0.06,1.38-0.12
			s0.9-0.24,1.26-0.48c0.36-0.24,0.66-0.54,0.9-0.9c0.24-0.36,0.36-0.84,0.36-1.44c0-1.08-0.42-1.92-1.26-2.59
			c-0.84-0.66-1.92-1.2-3.25-1.74c-1.02-0.42-1.92-0.9-2.83-1.44c-0.9-0.54-1.68-1.14-2.35-1.86c-0.66-0.72-1.2-1.5-1.62-2.47
			s-0.6-2.11-0.6-3.37c0-1.32,0.3-2.53,0.84-3.61c0.54-1.08,1.32-1.98,2.23-2.71c0.9-0.72,1.98-1.32,3.19-1.68
			c1.2-0.42,2.47-0.6,3.79-0.6c1.68,0,3.19,0.18,4.45,0.54s2.41,0.78,3.43,1.32l-0.9,5.59c-0.9-0.6-1.92-1.14-3.07-1.62
			c-1.14-0.48-2.35-0.72-3.73-0.72c-0.84,0-1.62,0.24-2.41,0.72c-0.72,0.48-1.08,1.2-1.08,2.11c0,0.48,0.12,0.9,0.24,1.26
			c0.18,0.36,0.48,0.72,0.84,1.02c0.42,0.3,0.9,0.66,1.56,0.96s1.44,0.66,2.35,1.08c0.9,0.42,1.8,0.84,2.65,1.32
			c0.84,0.48,1.62,1.08,2.29,1.8c0.66,0.66,1.2,1.5,1.56,2.41c0.42,0.96,0.6,2.05,0.6,3.31c0,2.95-0.96,5.17-2.83,6.74
			c-1.92,1.56-4.45,2.41-7.7,2.41c-1.8,0-3.37-0.18-4.75-0.54c-1.38-0.36-2.71-0.9-4.03-1.56L321.14,52.15z"/>
		<path class="st0" d="M119.94,50.95c1.56,1.14,3.13,1.98,4.81,2.65c1.68,0.6,3.43,0.96,5.35,0.96c2.11,0,3.67-0.42,4.81-1.26
			s1.68-1.98,1.68-3.43c0-0.9-0.12-1.68-0.36-2.35c-0.24-0.66-0.66-1.26-1.2-1.8c-0.54-0.54-1.32-1.08-2.23-1.56
			c-0.9-0.48-2.05-1.02-3.31-1.62c-1.5-0.66-2.83-1.38-3.97-2.11c-1.2-0.72-2.17-1.5-3.01-2.41s-1.44-1.92-1.92-3.19
			c-0.42-1.2-0.66-2.65-0.66-4.33c0-1.74,0.3-3.31,0.96-4.75c0.6-1.38,1.5-2.59,2.65-3.49c1.14-0.96,2.53-1.68,4.15-2.17
			c1.62-0.48,3.37-0.78,5.35-0.78c1.98,0,3.85,0.24,5.59,0.78c1.74,0.48,3.19,1.14,4.39,1.92l-1.32,6.62
			c-1.14-0.9-2.41-1.68-3.85-2.29c-1.44-0.6-3.01-0.9-4.69-0.9c-1.68,0-3.07,0.42-4.15,1.2s-1.62,1.86-1.62,3.25
			c0,0.84,0.12,1.5,0.42,2.11c0.24,0.6,0.66,1.08,1.14,1.56c0.54,0.48,1.14,0.9,1.92,1.32c0.78,0.42,1.68,0.84,2.71,1.32
			c1.5,0.66,2.89,1.38,4.15,2.05c1.32,0.66,2.41,1.5,3.37,2.41c0.96,0.9,1.68,1.98,2.29,3.19c0.54,1.2,0.84,2.71,0.84,4.51
			c0,3.91-1.26,6.98-3.85,9.08c-2.59,2.17-6.14,3.19-10.71,3.19c-2.23,0-4.21-0.3-6.02-0.9c-1.8-0.6-3.31-1.26-4.57-2.11
			L119.94,50.95z"/>
		<path class="st0" d="M147.25,31.04h7.04v19.31c0,1.5,0.3,2.65,0.84,3.43c0.54,0.78,1.44,1.2,2.71,1.2c1.08,0,1.98-0.36,2.71-1.02
			s1.38-1.62,1.98-2.77V31.04h6.92v28.93h-6.74v-3.49c-0.3,0.42-0.6,0.9-1.02,1.38c-0.42,0.48-0.9,0.96-1.44,1.32
			c-0.54,0.42-1.2,0.78-1.92,1.02c-0.72,0.3-1.56,0.42-2.47,0.42c-1.56,0-2.89-0.24-3.97-0.72c-1.08-0.48-1.98-1.14-2.65-2.05
			c-0.66-0.9-1.2-1.92-1.5-3.19c-0.3-1.26-0.48-2.65-0.48-4.15L147.25,31.04L147.25,31.04z"/>
		<path class="st0" d="M173.83,30.86h6.74v3.49c0.24-0.42,0.6-0.9,1.02-1.38c0.42-0.48,0.9-0.96,1.5-1.32
			c0.54-0.42,1.2-0.78,1.92-1.02c0.72-0.3,1.56-0.42,2.47-0.42c3.13,0,5.29,0.9,6.62,2.71c1.32,1.8,1.98,4.27,1.98,7.34v19.67h-7.04
			V40.54c0-1.5-0.3-2.65-0.84-3.43c-0.54-0.84-1.44-1.2-2.71-1.2c-1.08,0-1.98,0.36-2.71,1.02c-0.72,0.66-1.38,1.62-1.98,2.77v20.27
			h-6.92V30.86H173.83z"/>
		<polygon class="st0" points="200.66,19.79 222.44,19.79 222.14,25.98 208.06,25.98 208.06,35.97 219.55,35.97 219.55,42.17 
			208.06,42.17 208.06,53.65 223.1,53.65 223.1,59.91 200.66,59.91 		"/>
		<path class="st0" d="M225.14,59.91c0.78-1.38,1.5-2.71,2.23-3.91c0.72-1.26,1.44-2.53,2.23-3.79c0.72-1.14,1.44-2.35,2.17-3.55
			c0.78-1.2,1.5-2.35,2.23-3.49c-0.78-1.2-1.5-2.41-2.23-3.61c-0.72-1.2-1.44-2.41-2.17-3.61c-0.72-1.14-1.38-2.35-1.98-3.49
			c-0.66-1.2-1.26-2.35-1.98-3.49h7.88l1.74,3.43c0.36,0.66,0.78,1.44,1.2,2.35c0.48,0.84,0.96,1.68,1.44,2.47
			c0.48-0.72,0.96-1.56,1.5-2.47c0.54-0.96,1.08-1.74,1.5-2.47c0.3-0.48,0.6-1.02,0.9-1.56c0.3-0.54,0.6-1.08,0.9-1.68h7.4
			c-0.72,1.2-1.38,2.41-2.05,3.49c-0.66,1.14-1.32,2.29-2.05,3.49c-0.66,1.14-1.38,2.29-2.11,3.43c-0.72,1.14-1.44,2.29-2.17,3.31
			c0.72,1.14,1.44,2.41,2.23,3.67c0.78,1.32,1.56,2.59,2.23,3.85c0.72,1.26,1.44,2.53,2.17,3.79c0.72,1.26,1.44,2.59,2.23,3.97
			h-7.88l-2.23-4.09l-2.83-4.93l-2.83,4.69c-0.42,0.66-0.78,1.32-1.2,2.05c-0.42,0.72-0.84,1.44-1.26,2.23h-7.22V59.91z"/>
		<path class="st0" d="M253.23,30.86h6.92v2.11c0.66-0.78,1.44-1.44,2.47-1.98s2.17-0.78,3.55-0.78c3.25,0,5.77,1.26,7.64,3.73
			c1.86,2.53,2.77,6.26,2.77,11.19c0,5.17-0.9,9.08-2.77,11.61c-1.86,2.53-4.33,3.79-7.4,3.79c-0.9,0-1.68-0.12-2.41-0.3
			c-0.66-0.24-1.26-0.48-1.8-0.78c-0.48-0.3-0.9-0.66-1.26-1.02c-0.36-0.36-0.6-0.72-0.84-1.08V71.7h-0.24h-6.74V30.86H253.23z
			 M260.21,52.33c0.36,0.6,0.96,1.2,1.68,1.8c0.72,0.6,1.56,0.84,2.59,0.84c1.38,0,2.59-0.78,3.55-2.29c1.02-1.5,1.5-3.97,1.5-7.28
			c0-3.49-0.48-6.02-1.5-7.52c-0.96-1.5-2.23-2.29-3.73-2.29c-1.02,0-1.86,0.3-2.53,0.84c-0.66,0.54-1.2,1.08-1.56,1.56
			L260.21,52.33L260.21,52.33z"/>
		<path class="st0" d="M279.7,30.86h6.74v4.57c0.3-0.66,0.72-1.26,1.14-1.86c0.42-0.6,0.96-1.14,1.5-1.56
			c0.6-0.42,1.26-0.84,2.05-1.08c0.78-0.3,1.68-0.42,2.71-0.42c0.72,0,1.32,0.06,1.86,0.18l-0.66,5.95
			c-0.24-0.06-0.48-0.12-0.78-0.18c-0.24-0.06-0.6-0.06-0.96-0.06c-1.5,0-2.83,0.36-3.91,1.02c-1.08,0.66-2.05,1.8-2.83,3.43v19.07
			h-6.92V30.86H279.7z"/>
		<path class="st0" d="M317.47,57.86c-0.9,0.78-2.05,1.44-3.49,1.92c-1.38,0.48-3.19,0.72-5.41,0.72c-1.92,0-3.67-0.36-5.23-1.08
			c-1.56-0.72-2.95-1.74-4.09-3.07s-1.98-2.95-2.65-4.81c-0.6-1.86-0.9-3.91-0.9-6.14c0-4.81,1.02-8.6,3.07-11.25
			c2.05-2.65,4.81-4.03,8.36-4.03s6.2,1.14,7.94,3.43c1.8,2.29,2.65,5.35,2.65,9.26c0,0.66,0,1.32-0.06,1.98
			c-0.06,0.66-0.06,1.2-0.18,1.62h-14.86c0.06,1.2,0.24,2.35,0.66,3.37c0.42,1.02,0.96,1.86,1.68,2.65c0.66,0.72,1.5,1.32,2.35,1.74
			c0.9,0.42,1.8,0.6,2.83,0.6c2.65,0,4.93-0.9,6.8-2.65L317.47,57.86z M311.04,41.62c-0.12-4.39-1.38-6.56-3.85-6.56
			c-1.2,0-2.23,0.54-3.01,1.56c-0.78,1.02-1.26,2.71-1.38,4.99H311.04z"/>
		<path class="st0" d="M321.14,52.15c1.02,0.78,2.23,1.44,3.55,2.11c1.38,0.6,2.77,0.96,4.21,0.96c0.48,0,0.9-0.06,1.38-0.12
			s0.9-0.24,1.26-0.48c0.36-0.24,0.66-0.54,0.9-0.9c0.24-0.36,0.36-0.84,0.36-1.44c0-1.08-0.42-1.92-1.26-2.59
			c-0.84-0.66-1.92-1.2-3.25-1.74c-1.02-0.42-1.92-0.9-2.83-1.44c-0.9-0.54-1.68-1.14-2.35-1.86c-0.66-0.72-1.2-1.5-1.62-2.47
			s-0.6-2.11-0.6-3.37c0-1.32,0.3-2.53,0.84-3.61c0.54-1.08,1.32-1.98,2.23-2.71c0.9-0.72,1.98-1.32,3.19-1.68
			c1.2-0.42,2.47-0.6,3.79-0.6c1.68,0,3.19,0.18,4.45,0.54s2.41,0.78,3.43,1.32l-0.9,5.59c-0.9-0.6-1.92-1.14-3.07-1.62
			c-1.14-0.48-2.35-0.72-3.73-0.72c-0.84,0-1.62,0.24-2.41,0.72c-0.72,0.48-1.08,1.2-1.08,2.11c0,0.48,0.12,0.9,0.24,1.26
			c0.18,0.36,0.48,0.72,0.84,1.02c0.42,0.3,0.9,0.66,1.56,0.96s1.44,0.66,2.35,1.08c0.9,0.42,1.8,0.84,2.65,1.32
			c0.84,0.48,1.62,1.08,2.29,1.8c0.66,0.66,1.2,1.5,1.56,2.41c0.42,0.96,0.6,2.05,0.6,3.31c0,2.95-0.96,5.17-2.83,6.74
			c-1.92,1.56-4.45,2.41-7.7,2.41c-1.8,0-3.37-0.18-4.75-0.54c-1.38-0.36-2.71-0.9-4.03-1.56L321.14,52.15z"/>
		<path class="st0" d="M342.26,52.15c1.02,0.78,2.23,1.44,3.55,2.11c1.38,0.6,2.77,0.96,4.21,0.96c0.48,0,0.9-0.06,1.38-0.12
			s0.9-0.24,1.26-0.48c0.36-0.24,0.66-0.54,0.9-0.9c0.24-0.36,0.36-0.84,0.36-1.44c0-1.08-0.42-1.92-1.26-2.59
			c-0.84-0.66-1.92-1.2-3.25-1.74c-1.02-0.42-1.92-0.9-2.83-1.44c-0.9-0.54-1.68-1.14-2.35-1.86c-0.66-0.72-1.2-1.5-1.56-2.47
			c-0.42-0.96-0.6-2.11-0.6-3.37c0-1.32,0.3-2.53,0.84-3.61c0.54-1.08,1.32-1.98,2.23-2.71c0.9-0.72,1.98-1.32,3.19-1.68
			c1.2-0.42,2.47-0.6,3.79-0.6c1.68,0,3.19,0.18,4.45,0.54c1.26,0.36,2.41,0.78,3.43,1.32l-0.9,5.59c-0.9-0.6-1.92-1.14-3.07-1.62
			c-1.14-0.48-2.35-0.72-3.73-0.72c-0.84,0-1.62,0.24-2.41,0.72c-0.72,0.48-1.08,1.2-1.08,2.11c0,0.48,0.06,0.9,0.24,1.26
			c0.18,0.36,0.48,0.72,0.84,1.02c0.36,0.3,0.9,0.66,1.56,0.96c0.6,0.3,1.38,0.66,2.35,1.08c0.9,0.42,1.8,0.84,2.65,1.32
			c0.84,0.48,1.62,1.08,2.29,1.8c0.66,0.66,1.14,1.5,1.56,2.41c0.36,0.96,0.6,2.05,0.6,3.31c0,2.95-0.96,5.17-2.89,6.74
			c-1.92,1.56-4.45,2.41-7.64,2.41c-1.8,0-3.37-0.18-4.75-0.54c-1.38-0.36-2.71-0.9-4.03-1.56L342.26,52.15z"/>
		<path class="st0" d="M17.98,6.8c-0.24-0.06-0.48,0-0.72,0.12c-0.72,0.48-1.44,1.02-2.17,1.62c-0.36,0.3-0.48,0.78-0.24,1.14
			l6.8,11.79l0.36,0.48c0,0.06,0,0.06,0,0l-0.48-0.36L9.68,14.8c-0.36-0.24-0.9-0.12-1.2,0.24c-0.54,0.72-1.08,1.44-1.62,2.17
			c-0.12,0.24-0.18,0.48-0.12,0.72c0.06,0.24,0.24,0.48,0.42,0.6l20.15,11.61c0.12,0.06,0.3,0.12,0.48,0.12
			c0.24,0,0.48-0.12,0.66-0.3c0.48-0.54,0.96-1.02,1.44-1.44c0.3-0.3,0.42-0.78,0.18-1.14L18.59,7.22
			C18.47,6.98,18.23,6.86,17.98,6.8"/>
		<path class="st0" d="M50.47,54.26c-13.77,1.02-32.84,4.03-46.5,3.31c1.44,2.95,3.25,5.65,5.35,8.18c1.2,1.38,2.47,2.71,3.85,3.97
			C20.63,76.33,30.2,80,40.12,80c9.98,0,19.55-3.61,26.89-10.17c3.07-2.71,5.53-5.59,7.46-8.78c1.32-2.17,2.41-4.45,3.31-6.92
			C71.88,52.99,61.83,53.41,50.47,54.26"/>
		<path class="st0" d="M17.98,6.8c-0.24-0.06-0.48,0-0.72,0.12c-0.72,0.48-1.44,1.02-2.17,1.62c-0.36,0.3-0.48,0.78-0.24,1.14
			l6.8,11.79l0.36,0.48c0,0.06,0,0.06,0,0l-0.48-0.36L9.68,14.8c-0.36-0.24-0.9-0.12-1.14,0.24C8,15.76,7.46,16.48,6.92,17.2
			c-0.12,0.18-0.18,0.48-0.12,0.72c0.06,0.24,0.24,0.48,0.42,0.6l20.15,11.61c0.12,0.06,0.3,0.12,0.48,0.12
			c0.24,0,0.48-0.12,0.66-0.3c0.48-0.54,0.96-1.02,1.44-1.44c0.3-0.3,0.42-0.78,0.18-1.14L18.59,7.22
			C18.47,7.04,18.23,6.86,17.98,6.8"/>
		<path class="st0" d="M73.32,17.92c0.06-0.24,0-0.48-0.12-0.72c-0.48-0.72-1.02-1.44-1.62-2.17c-0.3-0.36-0.78-0.42-1.14-0.24
			l-11.85,6.86l-0.48,0.36c-0.06,0-0.06,0,0,0l0.36-0.48l6.8-11.79c0.24-0.36,0.12-0.9-0.24-1.14c-0.72-0.54-1.44-1.08-2.17-1.62
			c-0.18-0.12-0.48-0.18-0.72-0.12c-0.24,0.06-0.48,0.24-0.6,0.42L49.86,27.43c-0.06,0.12-0.12,0.3-0.12,0.48
			c0,0.24,0.12,0.48,0.3,0.66c0.54,0.42,1.02,0.96,1.44,1.44c0.3,0.3,0.78,0.42,1.14,0.18l20.15-11.61
			C73.14,18.41,73.26,18.17,73.32,17.92"/>
		<path class="st0" d="M57.86,4.27c-0.06-0.24-0.24-0.42-0.48-0.54c-0.78-0.36-1.62-0.72-2.47-1.08c-0.42-0.18-0.9,0-1.14,0.36
			l-6.8,11.79l-0.24,0.54c0,0.06,0,0.06,0,0l0.06-0.6V1.2c0-0.48-0.36-0.84-0.78-0.9c-0.9-0.12-1.8-0.24-2.65-0.3
			c-0.24,0-0.48,0.06-0.66,0.24s-0.3,0.42-0.3,0.66v23.28c0,0.18,0.06,0.3,0.12,0.48c0.12,0.24,0.36,0.36,0.6,0.42
			c0.66,0.12,1.32,0.3,1.98,0.54c0.42,0.12,0.84-0.06,1.08-0.42L57.86,5.05C57.86,4.81,57.92,4.51,57.86,4.27"/>
		<path class="st0" d="M79.94,37.47c0.18-0.18,0.24-0.42,0.24-0.72c-0.06-0.9-0.18-1.8-0.3-2.65c-0.06-0.42-0.42-0.78-0.9-0.78
			H65.32l-0.6,0.06c-0.06,0-0.06,0,0,0l0.54-0.24l11.85-6.8c0.42-0.24,0.54-0.72,0.42-1.14c-0.3-0.84-0.72-1.68-1.08-2.47
			c-0.12-0.24-0.3-0.42-0.54-0.48c-0.24-0.06-0.48-0.06-0.72,0.06L55.04,33.92c-0.12,0.06-0.24,0.18-0.36,0.3
			c-0.12,0.24-0.18,0.48-0.06,0.72c0.24,0.66,0.42,1.32,0.54,1.98c0.06,0.42,0.48,0.72,0.9,0.72h23.28
			C79.52,37.77,79.76,37.65,79.94,37.47"/>
		<path class="st0" d="M4.33,22.26c-0.24,0.06-0.42,0.24-0.54,0.48c-0.36,0.78-0.72,1.62-1.08,2.47c-0.18,0.42,0,0.9,0.42,1.14
			l11.79,6.8l0.54,0.24c0.06,0,0.06,0,0,0l-0.6-0.06H1.2c-0.48,0-0.84,0.3-0.9,0.78c-0.12,0.9-0.24,1.8-0.3,2.65
			c0,0.24,0.06,0.48,0.24,0.66c0.18,0.18,0.42,0.3,0.66,0.3h23.28c0.18,0,0.3-0.06,0.48-0.12c0.24-0.12,0.36-0.36,0.42-0.6
			c0.12-0.66,0.3-1.32,0.54-1.98c0.12-0.42,0-0.84-0.42-1.08L5.05,22.32C4.81,22.2,4.57,22.2,4.33,22.26"/>
		<path class="st0" d="M37.59,0.24C37.41,0.06,37.17,0,36.87,0c-0.9,0.06-1.8,0.18-2.65,0.3c-0.48,0.06-0.78,0.42-0.78,0.9v13.65
			l0.06,0.6c0,0.06,0,0.06,0,0l-0.24-0.54l-6.8-11.79c-0.24-0.36-0.72-0.54-1.14-0.36c-0.84,0.3-1.68,0.72-2.47,1.08
			c-0.24,0.12-0.42,0.3-0.48,0.54c-0.06,0.24-0.06,0.48,0.06,0.72l11.67,20.15c0.06,0.12,0.18,0.24,0.36,0.36
			c0.24,0.12,0.48,0.18,0.78,0.06c0.66-0.24,1.32-0.42,1.98-0.54c0.42-0.06,0.72-0.48,0.72-0.9V0.96
			C37.83,0.6,37.77,0.36,37.59,0.24"/>
		<path class="st1" d="M77.65,42.83c-8.42,0-14.86,2.05-31.58,5.59c-23.64,4.99-40.42,0.9-44.27,0.36c-0.6-0.06-0.96,0.24-0.78,0.84
			c0.42,1.92,1.86,6.02,2.89,7.88c13.71,0.72,32.72-2.29,46.5-3.31c11.37-0.84,21.41-1.26,27.31-0.06c0.96-2.71,1.68-5.53,2.11-8.6
			C80.18,43.79,80,42.83,77.65,42.83"/>
		<path class="st1" d="M0.78,45.65c0.78,0.3,11.73,4.03,28.69,4.27c4.81,0.06,10.95-0.66,14.62-1.44c-1.92,0.3-6.02,0.9-11.07,0.9
			c-9.74-0.06-24.6-3.43-31.64-6.62c-0.3-0.12-0.6-0.06-0.9,0.12c-0.24,0.18-0.42,0.48-0.36,0.84c0.06,0.42,0.06,0.9,0.12,1.32
			C0.3,45.29,0.36,45.47,0.78,45.65"/>
	</g>
</g>
</svg>
