<?xml version="1.0" encoding="utf-8"?>
<!-- Generator: Adobe Illustrator 25.4.1, SVG Export Plug-In . SVG Version: 6.00 Build 0)  -->
<svg version="1.1" id="Layer_1" xmlns="http://www.w3.org/2000/svg" xmlns:xlink="http://www.w3.org/1999/xlink" x="0px" y="0px"
	 viewBox="0 0 264.24 80" style="enable-background:new 0 0 264.24 80;" xml:space="preserve">
<style type="text/css">
	.st0{fill:#EB2227;}
</style>
<g>
	<path class="st0" d="M65.13,16.47h0.04c0.04,0,0.04,0,0.04,0c4.65-0.5,9.3-4.68,8.55-9.62C73.08,2.34,69-0.5,64.63,0.07
		c-2.48,0.32-5.47,1.85-6.71,4.12c-1.17,2.06-1.35,4.54-0.89,6.81C57.85,14.8,61.47,16.58,65.13,16.47"/>
	<path class="st0" d="M10.51,37.62c0.53-4.61-2.87-6.74-6-7.56c-2.77-0.64-5.04-0.99-4.4-3.12c0.04-0.07,0.07-0.14,0.11-0.21
		c0.99-2.13,3.48-3.23,6.81-4.12c0.46-0.11,0.92-0.25,1.42-0.35c3.12-0.71,6.81-0.99,10.36-1.63c1.6-0.28,3.12-0.64,4.54-1.14
		c3.3-1.46,5.43-4.65,6.78-7.88c0.57-1.31,0.99-2.66,1.31-3.9c0.5-1.95,0.85-3.66,1.46-4.9c0.6-1.14,1.46-1.88,2.8-2.09
		c2.63-0.28,3.69,2.59,4.54,6.74c0.99,4.79,0.85,11.53,3.16,15.65c1.24,1.67,3.62,2.27,6.46,2.27c3.37,0,7.38-0.89,10.97-1.95
		c4.47-1.31,8.38-2.52,10.86-2.31c1.28,0.11,2.2,0.6,2.66,1.7c0.11,0.28,0.14,0.6,0.14,0.92c-0.53,2.59-5.04,5.61-10.79,9.12
		c-7.28,4.37-16.47,8.31-20.19,12.78c-0.64,0.85-1.03,1.81-1.17,2.8c-1.03,4.4,2.52,10.12,6.64,14.8c3.94,4.47,7.6,8.27,7.42,10.75
		c-0.14,0.5-0.5,0.96-1.1,1.31c-0.6,0.39-1.35,0.57-2.17,0.53c-3.27-0.11-8.13-3.19-13.45-7.13c-6.71-4.93-13.03-11.64-18.1-13.7
		c-0.46-0.14-0.92-0.25-1.38-0.25c-3.73-0.11-6.99,4.37-9.09,8.73c-1.88,4.05-3.3,7.52-4.9,7.2c-0.32-0.07-0.64-0.28-0.99-0.67
		c-0.89-1.03-1.17-2.8-1.1-5.08c0.11-2.24,0.6-4.9,1.24-7.84c1.21-5.5,3.48-11.5,4.58-16.36C10.19,39.65,10.4,38.62,10.51,37.62"/>
	<path class="st0" d="M238.3,64.53h9.3l2.91-20.62c0.57-0.21,1.28-0.32,1.92-0.32c1.42,0,2.7,0.6,2.41,2.66l-2.59,18.28h9.26
		l2.59-18.35c1.1-7.88-4.37-10.75-11.25-10.75c-3.69,0-7.6,0.89-10.79,2.31L238.3,64.53z M226.65,43.73c1.1,0,2.38,0.78,2.2,2.09
		l-1.28,9.3c-0.21,1.53-1.6,2.17-2.8,2.17s-2.31-0.82-2.13-2.17l1.28-9.3C224.06,44.47,225.55,43.73,226.65,43.73 M213.49,55.01
		c-0.92,6.67,4.4,10.08,10.19,10.08c5.86,0,12.17-3.37,13.1-10.08l1.28-9.01c0.99-7.06-4.37-10.47-10.15-10.51
		c-5.86,0.07-12.17,3.48-13.17,10.51L213.49,55.01z M200.92,57.6c-0.53,0.18-1.17,0.28-1.77,0.28c-1.53,0-3.02-0.67-2.8-2.31
		l1.42-9.9c0.28-1.77,1.92-2.48,3.37-2.48c0.71,0,1.31,0.11,1.77,0.32L200.92,57.6z M214.84,25.52h-9.37l-1.42,10.47
		c-1.17-0.39-2.41-0.57-3.62-0.57c-5.5,0-10.86,3.19-11.75,9.58l-1.38,9.76c-1.1,7.77,4.19,10.29,10.19,10.29
		c4.19,0,8.55-1.1,12.1-2.41L214.84,25.52z M159.89,64.53h9.3l2.91-20.62c0.53-0.21,1.28-0.32,1.92-0.32c1.42,0,2.7,0.6,2.41,2.66
		l-2.59,18.28h9.26l2.59-18.35c1.1-7.88-4.37-10.75-11.25-10.75c-3.69,0-7.6,0.89-10.79,2.31L159.89,64.53z M146.62,45.64
		c0.21-1.6,1.77-2.52,3.09-2.52c1.77,0,2.41,1.31,2.2,2.66c-0.32,2.87-3.41,3.58-5.68,2.59L146.62,45.64z M145.34,53.84
		c6.6,1.49,13.95-1.21,14.94-7.95c1.03-6.99-3.58-10.47-9.48-10.47s-12.24,3.76-13.24,10.9l-1.17,8.16
		c-0.99,6.96,4.4,10.58,10.15,10.58c3.3,0,7.2-0.6,11.18-4.61l-4.47-4.51C150.63,58.42,144.74,58.14,145.34,53.84 M132.74,35.46
		c-6.89,0-12,3.37-13.06,11.14l-2.48,17.96h9.3l2.48-17.85c0.43-3.16,4.86-3.62,7.31-2.77l1.1-7.77
		C135.12,35.56,133.74,35.46,132.74,35.46 M105.7,43.73c1.1,0,2.38,0.78,2.2,2.09l-1.28,9.3c-0.21,1.53-1.6,2.17-2.8,2.17
		s-2.31-0.82-2.17-2.17l1.28-9.3C103.11,44.47,104.6,43.73,105.7,43.73 M92.53,55.01c-0.92,6.67,4.4,10.08,10.19,10.08
		c5.86,0,12.17-3.37,13.1-10.08l1.28-9.01c0.99-7.06-4.37-10.47-10.15-10.51c-5.82,0.07-12.17,3.48-13.17,10.51L92.53,55.01z
		 M82.7,54.91c-0.78,1.67-2.2,2.38-3.48,2.38c-1.28,0-2.41-0.89-2.2-2.41l1.31-9.16c0.21-1.6,1.6-2.41,2.91-2.41
		c1.17,0,2.31,0.78,2.41,2.41l8.16-2.41c-0.82-6.1-5.61-7.81-9.48-7.81c-5.79,0-12.1,2.91-13.1,9.9l-1.31,9.3
		c-0.99,6.96,4.47,10.4,10.26,10.4c3.87,0,9.37-1.99,12.28-8.38L82.7,54.91z"/>
	<path class="st0" d="M254.3,71.55c0.25-1.17,1.56-1.67,2.84-1.67c1.17,0,2.34,0.46,2.66,1.49l1.28-0.53
		c-0.46-1.56-2.09-2.27-3.73-2.27c-1.92,0-3.94,0.99-4.33,2.95c-0.28,2.24,1.49,2.8,3.27,3.16c1.53,0.32,2.95,0.64,2.59,2.24
		c-0.25,1.21-1.63,1.77-2.95,1.77c-1.21,0-2.38-0.53-2.7-1.6l-1.28,0.53c0.46,1.6,2.13,2.38,3.8,2.38c1.99,0,4.05-0.99,4.44-3.02
		c0.53-2.73-1.53-3.16-3.41-3.51C255.33,73.19,254.02,72.9,254.3,71.55 M240.57,70.06h5.82l0.18-1.31h-7.13l-1.56,11.11H245
		l0.18-1.31h-5.82l0.5-3.58h5.36l0.18-1.31h-5.36L240.57,70.06z M229.03,78.05l-4.4-9.3h-1.42l-1.56,11.11h1.31l1.24-8.91l4.29,8.91
		h1.6l1.56-11.11h-1.31L229.03,78.05z M215.4,68.75h-1.31l-1.56,11.11h1.31L215.4,68.75z M199.08,79.86h6.64l0.18-1.31h-5.32
		l1.38-9.8h-1.31L199.08,79.86z M186.05,74.11l0.57-4.05h2.95c1.46-0.04,2.41,0.46,2.17,2.02c-0.21,1.53-1.24,2.02-2.73,2.02H186.05
		z M190.52,79.86h1.6l-2.95-4.54c1.92-0.11,3.51-1.03,3.83-3.23c0.28-2.38-1.21-3.34-3.34-3.34h-4.22l-1.56,11.11h1.31l0.64-4.54
		h1.7L190.52,79.86z M177.68,68.75h-1.31l-1.56,11.11h1.31L177.68,68.75z M165.71,74.96h-3.41c0.82-1.67,1.6-3.19,2.38-4.83
		L165.71,74.96z M165.68,68.75h-1.6l-5.54,11.11h1.38l1.74-3.55h4.29l0.82,3.55h1.38L165.68,68.75z"/>
</g>
</svg>
