<?xml version="1.0" encoding="utf-8"?>
<!-- Generator: Adobe Illustrator 25.4.1, SVG Export Plug-In . SVG Version: 6.00 Build 0)  -->
<svg version="1.1" xmlns="http://www.w3.org/2000/svg" xmlns:xlink="http://www.w3.org/1999/xlink" x="0px" y="0px"
	 viewBox="0 0 82.8 80" style="enable-background:new 0 0 82.8 80;" xml:space="preserve">
<style type="text/css">
	.st0{fill:#0C0C11;}
	.st1{fill:#ED3024;}
	.st2{fill:#FFFFFF;}
</style>
<g id="Layer_1">
	<path class="st0" d="M-238.6-885.5c-0.7-0.1-1.8,0-2.5,0c0.5-0.4,1.2-0.7,1.6-0.5c0.1,0,0.1,0,0.2,0.1
		C-239.1-885.8-238.8-885.6-238.6-885.5z"/>
	<g id="text835">
	</g>
</g>
<g id="Layer_2">
	<path class="st1" d="M47,10.9c0.1,0,0.1,0,0.2,0C47.1,10.9,47.1,10.9,47,10.9z M47.5,10.7C47.5,10.7,47.5,10.7,47.5,10.7
		C47.5,10.7,47.5,10.7,47.5,10.7C47.5,10.7,47.5,10.7,47.5,10.7z M11.7,78.3c-0.1,0-0.1,0.1-0.2,0.1C11.6,78.4,11.7,78.4,11.7,78.3z
		 M10.4,43.9l0.3,0.2l-0.3,0.2c0.6,0.1,0.7-0.3,1-0.5C11,43.9,10.9,43.3,10.4,43.9z M38.2,14C38.2,14.1,38.2,14.1,38.2,14
		C38.2,14.1,38.2,14.1,38.2,14L38.2,14z M38.2,14.1c-0.1,0.1-0.2,0.1-0.4,0.2C38,14.2,38.2,14.2,38.2,14.1z M47.5,10.7
		c-0.1,0.1-0.2,0.1-0.3,0.2C47.3,10.8,47.4,10.8,47.5,10.7z M47.9,10.1L47.2,10l0.1,0.4L47.9,10.1z M48.3,11.8L48.3,11.8L47.7,12
		l0.1,0.1L48.3,11.8z M47.5,12.4l-0.1-0.1L47,12.5l0,0.1L47.5,12.4z M43.1,14.9l-0.3,0.2l0.3-0.1L43.1,14.9z M47.8,11.7L47.3,12
		l0.4-0.1C47.8,11.8,47.9,11.7,47.8,11.7z M48.5,10.4c-0.4,0-0.3,0.4-0.7,0.2c-0.1,0-0.2,0.1-0.3,0.1C47.5,10.8,48.4,10.9,48.5,10.4
		z M55,4.5c-0.1,0-0.1,0.1-0.1,0.1C55,4.6,55,4.5,55,4.5z M48.1,9.9c0.2-0.1,0-0.1-0.1-0.2C48,9.9,48.2,9.7,48.1,9.9z M52.2,7.1
		L52.2,7.1l-0.6,0.2l0.1,0.1L52.2,7.1z M54.7,4.9c0.2,0,0.2-0.2,0.2-0.3C54.8,4.7,54.5,4.7,54.7,4.9z M81.4,52.4l-0.3-0.3l-0.2,0.4
		C81.1,52.5,81.3,52.3,81.4,52.4z M14.9,38.8C14.9,38.8,14.9,38.8,14.9,38.8l0.1-0.1L14.9,38.8z M51.5,7.7l-0.1-0.1L51,7.7l0,0.1
		L51.5,7.7z M53.1,7L53.1,7l-0.4,0.2l0.1,0.1L53.1,7z M50.7,9.3c-0.5,0-0.9,0.5-0.7,0.8C50.8,9.8,49.8,9.5,50.7,9.3z M48.1,9.8
		c0,0,0.1-0.1,0.2-0.1C48,9.7,48,9.7,48.1,9.8z M48.5,11.6l0.3-0.3l-0.1-0.1l-0.4,0.3L48.5,11.6z M49.8,10.2L49,10.6l0.5-0.2
		L49.8,10.2z M48.8,11.9l0.4-0.2l-0.1-0.1L48.8,11.9L48.8,11.9z M14.4,74.1l0.8-0.5C14.9,73.6,14.7,73.9,14.4,74.1z M80.7,59.3
		c0.1-0.1,0.9-1.6,1.5-2.7c0,0,0,0,0,0c0.1-0.6-1-0.3-0.2-1.1c-0.8-1.4-0.8-2.6-1.9-3.5l0.4-0.3c0-0.4-0.3-0.6-0.5-0.9l-0.2,0.4
		c-0.3-0.1-0.1-0.6-0.1-0.9c-0.9-0.4-1.9-1.7-2.4-1.8c-0.3-0.7-0.8-0.9-0.8-1.6l0.1,0c-2.2-2.1-3.9-3.8-6.6-5.3
		c0-0.6-0.9-0.7-0.3-1.2l0.1,0l-1.4-1.2c-0.1,0.2-0.1,0.4-0.3,0.4c-1-1.5-2.4-2.9-3.8-4.2l0-0.1c1.1-1.4,2.4-2.9,3.8-4.4
		c0,0,0,0,0,0l0.2-0.3c1.7-1.9,3.5-3.8,4.9-5.8c4.6-5.1,9.2-10.6,6.3-15.6c-3.8-2.4-10-6.1-16.5-3.5c0-0.1-0.1-0.2-0.1-0.3
		c-0.8,1.5-0.4-0.8-1.8-0.5c-0.6-0.4-1.4-0.4-1.7-0.9c-1.1,1.2-0.9-0.7-2.1-0.3l-0.2,0.6c0-0.5-0.4-0.1-1-0.2c0,0.2,0.3,0.3,0,0.5
		c-0.6,0.2,0-0.2-0.4-0.3c-0.2,0-0.3,0.2-0.4,0.4c0,0.1,0,0.2,0.2,0.2c-0.3,0.5-0.7,0.5-1.3,0.9c0.1,0,0.3-0.1,0.4-0.1l-0.1,0.1
		c0.3-0.2,0.8,0.4,0.9-0.1c0.1,0,0.2-0.1,0.3-0.1v0c0.3-1,1.1,0,1.3,0c-0.2,0-0.3,0.2-0.4,0.2l-0.3-0.2c-0.5,0.4,0.3,0.1,0,0.4
		c-0.7,0.1-0.4,0.7-1.2,0.4l0.3-0.4c-0.2,0.2-0.4,0.3-0.7,0.2c0,0,0,0,0-0.1l-0.3,0.2c-0.4,0-0.3-0.3-0.5-0.3
		c-0.4,0.1-0.7,0.4-0.9,0.5L54,6.7c0.3,0.7-0.9,0.4-1.1,1.1c-0.5,0.2-0.6-0.4-1.1,0c-0.2,0-0.1,0.1-0.1,0.2c0.2-0.1,0.4-0.2,0.7,0
		l-0.2,0.3c-1.4,0.3-0.1,1.1-1.4,1.3c0.1-0.1,0-0.1,0.1-0.2c-0.2,0.1-0.4,0.1-0.2,0.2c0,0,0,0,0,0c0,0,0,0,0,0c0,0,0,0,0,0
		c0,0,0,0,0,0c0.2,0.1,0.5,0,0.7-0.1c0,0.1,0.1,0.2,0.2,0.2c0,0.1-0.1,0.1-0.1,0.2c-0.7,0.3-1.8,0.5-2.1,1.1l0.6-0.1
		c-0.4,0.1-0.6,0.3-0.8,0.5l0.7,0.1c0.1,0.2,0,0.3,0,0.4c-0.1,0-0.2,0-0.3-0.1C49.5,11.9,49,12,49,12.4c0,0,0,0,0,0
		c0,0,0,0.1-0.1,0.1c-0.5,0.2-0.6-0.4-1.1,0c-0.2,0-0.1,0.1-0.1,0.2c0.2-0.1,0.4-0.2,0.6,0l-1,0.5l0-0.1c0.1-0.1,0.2-0.2,0.3-0.3
		l-0.4-0.1l-0.1,0.1l0,0c-0.3,0.1-0.5,0.2-0.6,0.4l-0.5-0.1c-0.1-0.3,0.5-0.4,0.2-0.6c-0.7,0.1,0.1,0.2-0.2,0.4
		c-0.7,0.3-0.6-0.3-0.8-0.4c-0.4,0,0.2,1.7,0.5,2.8l-0.1,0c0-0.2-0.7-0.1-0.4-0.4c-0.2,0-0.4,0.2-0.5,0.1c0-0.1,0.1-0.1,0.2-0.2
		l-0.1-0.2c-0.9,0.3-0.3-0.7-0.5-0.4l-0.3,0.3L44,14.3c0,0.1-0.3,0.3-0.2,0.3c0.2,0,0.2-0.1,0.2-0.2l0.5,0.1L44.3,15
		c-0.1,0-0.2,0-0.2-0.1L43.5,15l0.5,0.1l-0.1,0.3c-0.2,0.3-0.6,0.2-1,0.2c0,0-0.1-0.2-0.2-0.3c-1.9-0.7-1.2-0.5-2.4,0.2l0.6,1
		c-0.3,0.1-0.6,0.2-1,0.2c-2.4-2.2-5.2-4.9-8.3-8.3c-1.6-0.6-2.2-2.2-3.9-2.8c-0.1-3.2-3.5-3.3-5.7-4.5C18.5-1,14.2,0.3,10.3,1.5
		c-4,1.1-8.6,3.2-10.1,7.9c-1.4,9.8,7,14,11.6,19.9c1.9,2.2,4,4.1,6.3,5.7c-0.3,0.2-0.5,0.4-0.6,0.5c0.3,0.7-2.1,1.4-1.6,1.9
		c-0.3,0.1-0.3,0.2-0.5,0.3c0.3,0,0.7-0.2,1.2-0.4c-0.2,0.2-0.3,0.4-0.5,0.5c-0.5,0.1-1.4,0.8-1.1,0.8c0.1,0,0.2-0.1,0.3-0.1
		c-0.1,0.1-0.2,0.1-0.3,0.2l-0.1,0.1c-0.1,0-0.2,0-0.4,0.3l0.1,0.1l0,0l0.2,0.1l-0.3,0.2c0,0,0,0,0,0c-0.4,0.2-0.7,0.6-0.9,0.7
		c0.1,0.2,0,0.3-0.2,0.5l-0.1,0l0,0c-0.5,0.5-1.7,1-1.4,1.3c-0.3,0.1-0.3,0.2-0.5,0.3c0.5,0,1.5-0.6,2.2-0.6c0,0.1,0,0.2-0.2,0.2
		c-0.1,0.1-0.4,0.2-0.4,0.3l0,0c0,0,0,0.1-0.1,0.1l-0.6,0.1c-0.3-0.3-1.8,0.8-1.4,0.8c0.4-0.2,0.7,0.2,0.9-0.3l0.4,0.1
		c-0.3,0.2-0.5,0.4-0.6,0.6c-0.1,0-0.1,0.1-0.2,0.1c0.1,0,0.1,0,0.2-0.1c0,0.1,0,0.1,0,0.1c-0.3,0.2-0.5,0.4-0.6,0.6
		c-0.1,0-0.2,0.1-0.3,0.1l0.1-0.1c-0.1,0.1-0.5,0.1-0.5,0.3c0.3-0.1,0.5-0.1,0.7-0.2c-0.1,0.2-0.3,0.5-0.7,0.6l0.2,0.1
		c-0.6,1.1-2.2,1.7-2.8,2.8c-0.9,0.4-1,1.3-1.7,1.8l0.4,0.1c0,0,0,0,0,0L6.5,50c-0.6,1.1-2.2,1.7-2.8,2.8c-0.9,0.4-1,1.3-1.7,1.8
		l1,0.2c-0.2,0.3-0.4,0.5-0.8,0.6c0.5,0,1-0.3,1.5-0.3L3,56l1.7-0.6l-0.6,0.7l1-0.4c0.9-0.2,0.3,0.6,0.7,0.8c1-0.2,0.1,0.9,1.2,0.7
		l-0.6,0.6l0.3-0.1C7.1,58.2,6,59.2,6,59.6l-0.2,0c-0.4,0.4,0.1,0.5,0.3,0.6c0.1,0.3-0.3,0.4-0.5,0.6l0.6-0.1
		c-0.4,0.5-0.6,0.7-1.1,1.1l0.3-0.1c0.1,0,0.2,0,0.2,0.1c0,0.1-0.2,0.2-0.3,0.2l0.1,0.2c-0.1,0-1,0-0.9,0.4c0.6,0.2,0.2-0.5,0.6-0.3
		c0,0.6-1.3,1.2-1.6,1.9c-0.4,0.6,0,1-1,1.6c-0.2,0.2-0.6,0.7,0,0.6L1.3,68c1-0.1,0.2,0.8,0.6,0.9c1.3,0.1,0.2,1.4,1.4,1.2
		c-0.1,0.3-0.5,0.6-0.3,0.7c0.5-0.6,0.8,0.2,1.6-0.2c0.2,0.1,0,0.3-0.1,0.5l0.8-0.3C5.7,70.7,5.8,71,6,71.1l-0.4,0.2l0.6,0
		c-0.1,0.2-0.3,0.3-0.4,0.4c0.4,0,0.5-0.3,0.8-0.5c0.6-0.4,1.5-0.4,2.1-0.5l-0.6,0.5l1.5-0.6c0,0.2-0.2,0.4-0.6,0.5l0.1,0.3
		c0.5-0.2,0.9-0.6,1.5-0.5c-0.2,0.3-0.5,0.5-0.7,0.8c0.3,0.5,0,1.4-0.5,1.7l0.8,0l-0.2,0.6c0.7,0,0.9-0.3,1.4-0.5
		c-0.3,0.8,0.8,0.7,1,0.6c0.8-0.2,1.6-0.8,2.5-0.6c0.8-0.3,0.7-0.2,1.3-0.8l0.3,0.1c0.1-0.4,1-0.5,1-0.5l-0.2-0.1
		c0.5-0.1,0.2-0.5,0.9-0.4l0,0l-0.1,0.1l0.7-0.1c0.2,0,0.3,0,0.4,0C18.7,72,17.4,72,17,72.8l0.6,0c-0.3,0.4-0.9,0.5-1.5,0.6
		c0.8-0.2,1.4,0.1,1.9-0.4c-0.4,0.6-0.5,0.9-1.4,1.2l0.8-0.2c-0.5,0.3-0.6,0.8-0.7,1.2c-0.3-0.1-0.7-0.1-0.9,0.4l0.6-0.2
		c-0.1,1.5-2.7,0.8-3.3,2.1l0.6,0c-0.3,0.4-0.9,0.5-1.5,0.6c0.8-0.2,1.4,0.1,1.9-0.5c-0.4,0.6-0.5,0.9-1.4,1.2l0.8-0.2
		c-0.5,0.3-0.6,0.8-0.7,1.2c1.4-0.4,2.5-1.2,3.1-2.1c0.9-0.5,1.9-1,2.4-1.8c-0.3-1.2,2.4-0.8,2.8-2c-0.7-0.4,0.5-1-0.2-1.1
		c0.2-0.1,0.3,0,0.5,0c-0.1-0.2,1.1-0.3,0.6-0.6c2.3-1.3,3.5-3,5.7-4.4c1.8-1.9,4.5-3.9,6.9-5.8c1.7-0.8,5.7-4.3,10.3-8.5
		c0.7,0.6,1.4,1.3,2.3,1.7c-0.3,2.5,2.6,1.9,3.2,3.3l0.2-0.4c0.1,0.9,0.8,0.8,1.4,1.2l-0.1,0.3c1.9,0.7,2.2,3.5,4.6,4
		c1.8,4.4,6.9,4.9,10,7.9c1.5-0.6,2.5,0.6,3.8,0.8c0.1-1.2,1.6,0.1,1.6-0.3l0-0.2l1.2,0.4c-0.3-0.6-1.3-0.5-1.4-1.2
		c-0.6-0.8-2-0.7-2.3-1.5c0.1,0,0.2,0,0.2-0.1l0,0l-0.2,0.1c0,0,0,0-0.1,0c-0.1-0.1-0.1-0.3-0.1-0.5c0.1,0.1,0.3,0.2,0.3,0.4
		l0.2-0.1c0.1,0.9,0.7,0.6,1.1,0.8c-0.4-0.5-0.9-0.8-1.3-1.3l0-0.4l0.7,0l-0.3-0.9c0.8,0.1,1.8,0.7,2.2,1.6c1.8-0.3,3.5,1.3,5,2.1
		c0.1-0.2,0.2-0.3,0.3-0.3l0.3,0.6c0.4-0.2,0.7,0.5,1.1,0.5l0-0.5l0.3,0.1c0.3-0.5,0-0.6,0-1.1L80,71c0-0.2-0.2-0.3-0.1-0.5
		c0.1-0.2,0.3,0,0.4,0.1c0-0.4-0.1-1.6-0.4-2.3c0.3,0.1,0.4-1.3,1-0.9l-0.1-0.2l0.6-0.2c0,0.1,0.1,0.2,0,0.3l0.1,0.1l0.1-0.3l-0.1,0
		c1.2-0.4,0-1.2,0.1-1.8l0.7,0.1c-0.5-0.7-1.1-1.1-1.2-2.1l0.2-0.1c-0.6,0-0.6-0.8-1.1-1.2l0.6-0.4l-0.1-0.4l-0.2,0.1
		c0.5-0.8-0.5-0.9-0.3-1.9C80.5,59.4,80.6,59.3,80.7,59.3z M16.8,75.2c0.2-0.1,0.5-0.2,0.7-0.3C17.3,75.3,17,75.3,16.8,75.2z
		 M46,16.3l0.1-0.1C46.1,16.3,46.1,16.4,46,16.3z M49.9,11.9c-0.1,0.1-0.3,0.1-0.4,0.2C49.5,11.9,49.5,11.8,49.9,11.9z M49.9,12.7
		c-0.1,0-0.2,0-0.3,0L49.9,12.7C49.9,12.6,49.9,12.6,49.9,12.7z M50.1,12.5c-0.1-0.1-0.1-0.1-0.2-0.1c0,0,0-0.1,0-0.1
		c0-0.1,0.3-0.1,0.6-0.1L50.1,12.5z M51.2,11.1c-0.1,0-0.2,0-0.3-0.1c0,0,0,0,0-0.1l-0.3,0.2c-0.4,0-0.3-0.3-0.5-0.3l0.3,0
		c-0.1-0.1-0.2-0.1-0.3-0.1c0.1-0.1,0.2-0.2,0.4-0.3c0.1,0,0.1,0,0.2,0l-0.1,0.1c0.2-0.1,0.4,0,0.6,0.1c-0.2,0.1-0.3,0.2,0.1,0.2
		C51.4,11,51.3,11.1,51.2,11.1z M50.8,10.3c0.2-0.2,0.5-0.3,0.7-0.4C51.3,10.1,51.1,10.2,50.8,10.3z M52.4,10
		c-0.1,0-0.2,0.1-0.3,0.1C52.2,10,52.3,10,52.4,10z M52,10.5l-0.1,0.2l-0.2,0.1L52,10.5z M51.6,10.5C51.6,10.5,51.7,10.5,51.6,10.5
		C51.7,10.5,51.6,10.5,51.6,10.5C51.6,10.5,51.6,10.5,51.6,10.5z M51.9,11.3c0,0-0.1,0-0.2,0c0.1-0.2,0.2-0.5,0.5-0.3
		C52.1,11.1,52,11.2,51.9,11.3z M52.1,10.6L52.1,10.6L52.1,10.6l0.2-0.3l0.2,0.1L52.1,10.6z M53.4,7.9C53.3,7.6,54,8,53.8,7.6
		c0-0.2,0.7,0,1.1-0.2C54.9,7.3,55,7.2,55,7.1c0,0.1-0.1,0.2-0.1,0.2C54.6,7.7,54,8.1,53.4,7.9z M54.5,8.8
		C54.5,8.8,54.4,8.8,54.5,8.8L54.5,8.8L54.5,8.8z M55,7.8c0,0.1-0.1,0.2-0.3,0.2L55,7.8c0-0.2,0-0.3,0.4-0.2L55,7.8z M56.3,7.5
		l-0.2,0.1C56.2,7.6,56.2,7.6,56.3,7.5l0.3-0.3l-0.2,0l0.4-0.3C57.1,7.2,56.6,7.3,56.3,7.5z M63.5,65c-0.1,0.1-0.1,0.1-0.1,0.3
		c-1.2-0.9-2.6-2-3.5-2.7c0.4-0.2-0.3-0.3-0.4-0.8c0.6,0.6,1.2,1.5,2.2,1.3c-0.5,0.7,0.6,0.6,0.6,0.8l0.1-0.3
		C63.1,63.8,63.2,64.8,63.5,65c0.2-0.1,0.4-0.1,0.5-0.2C63.8,65.1,63.6,65.1,63.5,65z M68.2,68.4c-0.4-0.5-1.1-0.7-1.2-1.3
		c-0.5,0.6-0.6-0.4-1.1-0.4l-0.1-0.2c0.2,0.3,1.1,0,0.8,0.5c0.3,0.4,1.8-0.9,1.2,0.6l0.1,0.4c0.1-0.1,0.3,0,0.4,0.1L68.2,68.4z
		 M69.2,68.9C69.2,68.9,69.2,68.9,69.2,68.9L69.2,68.9C69.2,68.9,69.2,68.9,69.2,68.9z M12.4,77.7L12,77.9l0.4-0.1L12.4,77.7z
		 M51,11l0.1-0.1C51.1,10.9,51,10.9,51,11z M47.8,12.7C47.8,12.7,47.7,12.7,47.8,12.7L47.8,12.7C47.8,12.7,47.8,12.7,47.8,12.7z
		 M13.4,75.5l0.7,0.2c-0.3,0.1-0.4,0.2-0.6,0.5c0.4-0.1,0.7-0.3,1-0.2c-0.2,0.2,0.4,0.3-0.1,0.5c0.4,0.3,0.3-0.5,0.9-0.7l-0.7,0.2
		l0.2-0.2C14.6,75.6,14.2,75.1,13.4,75.5z M82.6,55.5c-0.1,0.2-0.1,0.5-0.1,0.7c0.2-0.3,0.3-0.5,0.3-0.6L82.6,55.5z M82.5,56.2
		c-0.1,0.1-0.2,0.3-0.3,0.5C82.4,56.6,82.5,56.4,82.5,56.2z M15.3,75.5c0.2-0.1,0.6-0.1,0.5-0.3l-0.6,0.2L15.3,75.5z M16.4,72.9
		L16,73.2l0.4-0.1L16.4,72.9z M42.6,15.2C42.6,15.1,42.6,15.1,42.6,15.2L42.6,15.2z M15.7,73.6c-0.1,0-0.1,0.1-0.2,0.1
		C15.6,73.7,15.7,73.6,15.7,73.6z M16.2,74.7l0.9-0.4l-1.6,0.2L16.2,74.7z M14.4,74.1l-0.2,0.1C14.3,74.2,14.4,74.2,14.4,74.1z
		 M9.3,45.6l0.4-0.1l0.7-0.4L9.3,45.6z M51.7,8C51.7,8,51.8,8,51.7,8C51.7,8,51.7,8,51.7,8L51.7,8z M51,9.2c-0.1,0-0.1,0.1-0.1,0.1
		C51,9.3,51,9.3,51,9.2z M42.6,15.2c0,0,0.1,0.1,0.1,0.1c0,0,0,0,0,0C42.7,15.2,42.7,15.2,42.6,15.2z M77.1,47.3
		c-0.1-0.1-0.2-0.2-0.3-0.3C76.8,47.2,76.9,47.3,77.1,47.3z M51,8.5c0.3-0.1,0.5-0.3,0.7-0.4l-0.4-0.1L51,8.5z M49.5,11
		C49.5,11,49.5,11,49.5,11l-0.1,0L49.5,11z M76.7,46.8l-0.1,0.1c0.1,0.1,0.1,0.1,0.2,0.2C76.7,47,76.7,46.9,76.7,46.8z M63,5.5
		c0,0,0.1-0.1,0.1-0.2C63,5.4,63,5.4,63,5.5z M56,6l0.2-0.2l-0.1,0L55.8,6L56,6z M55,6.2l0.1-0.1C55.1,6.1,55,6.2,55,6.2z M55.9,5.7
		l0.1,0C56,5.7,55.9,5.7,55.9,5.7z M70.7,70.3c0.1,0.1,0.2,0.3,0.3,0.4C70.9,70.5,70.8,70.4,70.7,70.3z"/>
	<g>
		<g>
			<path class="st2" d="M38.2,22c-0.8,0.1-1.5,0.9-1.6,1.7c-0.1,0.8,0.5,1.3,1.3,1.1c0.8-0.1,1.5-0.9,1.6-1.7
				C39.6,22.3,39,21.8,38.2,22z"/>
			<path class="st2" d="M43.8,25.4c-0.3,0.1-0.7,0.1-2.2,1.9c0.4-0.7,0.5-1.2,0-1.5c-0.5-0.3-1.3-0.1-1.7,0.2
				c-0.3,0.2-0.3,0.3-0.3,0.6c0,0.2-0.2,0.7-0.4,1l-0.5,1c-1.7,3-2.7,3.8-3,4.1c-0.3,0.3-0.5,0.5-0.7,0.5c-0.1,0-0.2-0.1-0.2-0.2
				c0-0.2,0.1-0.6,0.3-1c0.3-0.7,0.8-1.8,1.3-2.6c0.2-0.4,0.8-1.5,0.8-1.5c0.5-1.2-0.5-1.6-1.1-1.5c-0.2,0-2.1,0.2-4.2,0.6
				c1.2-4.9,1.1-4.2,2.3-7.3c0.6-1.5,0.5-1.9,0-2.5c-0.5-0.6-0.4-1.2-1-1.3c-1.3-0.1-5.9,6.5-9.6,13c-1.7,0.5-3.5,1.1-5.1,1.9
				c-1.1,0.5-0.9,1.4-0.8,1.8c0.1,0.6,0.8,0.9,1.4,0.6C20,32.8,21,32.4,22,32c0,0.1,0,0.1,0,0.1c-1.4,2.6-3,6.3-3.5,8
				c-0.3,0.9,0.2,1.7,1,2.1c0.8,0.4,1.3,0,1.6-1.3c0.3-1.5,2.3-6.3,4.3-10.1c0,0,0,0,0,0c1.2-0.4,2.5-0.7,3.6-1
				c-0.7,3-0.9,4.3-0.9,5.3c0,1,0.4,2.2,1.5,2.1c1.1-0.2,0.9-1.2,1.1-2.2c0.3-2.2,0.3-3.2,0.9-5.7c0,0,0,0,0-0.1
				c1.2-0.3,2.3-0.5,3-0.7c-0.1,0.2-0.2,0.5-0.3,0.7c-0.5,1-1,2.2-1.4,3.1c-0.3,0.9-0.5,1.6-0.5,2.2c-0.1,1.3,0.4,2,1.4,1.8
				c0.7-0.1,1.9-1.1,3.1-3.1c-0.1,0.5-0.2,0.9-0.2,1.1c0,1,0.5,1.9,2.1,0.7c0.2-0.1,0.2-0.3,0.2-0.6c0.1-1.1,0.5-2.6,1.5-4
				c0.8-1.1,1.3-1.8,2-2.1c1.2-0.5,2-0.4,2.7-1.2C45.9,26.2,44.5,25.3,43.8,25.4z M29.5,27.5c-0.9,0.2-1.8,0.4-2.7,0.6
				c1.6-2.9,3.4-5.8,5.1-8.1C31.1,22.1,30.2,24.8,29.5,27.5z"/>
		</g>
		<g>
			<path class="st2" d="M64.7,43.3c-0.4,0.6-0.7,1.1-1.1,1.6c-0.4,0.5-0.7,0.6-0.9,0.6c-0.5-0.2-0.2-0.8,0.3-1.8
				c0.2-0.5,0.5-1.1,0.8-1.6c0.4-0.7,0.5-0.9,0.5-1.1c0-0.3-0.2-0.6-0.8-0.8c-0.4-0.2-0.4-0.2-0.6-0.7c-0.2-0.6-0.7-0.9-1.3-0.8
				c-0.9,0.1-2.4,1.2-3.7,2.8c-0.5,0.5-2.1,2.7-2.3,3l-0.3,0.3c-0.7,1-0.9,1.2-1.2,1.5c-0.3,0.3-0.6,0.5-0.7,0.5
				c-0.1,0-0.2-0.1-0.2-0.2c0-0.2,0.1-0.6,0.4-1c0.4-0.7,0.9-1.8,1.4-2.5c0.2-0.4,0.7-1.2,0.7-1.3l0.2-0.4c0.6-1.1-0.3-1.6-1-1.6
				c-0.3,0-0.7,0.2-1,0.4c-0.2,0.1-0.2,0.2-0.3,0.4c-0.1,0.3-0.5,1.2-0.9,2c-0.5,1-1.1,2.2-1.5,3c-0.4,0.9-0.6,1.6-0.6,2.1
				c-0.2,1.3,0.4,2,1.3,1.9c0.7-0.1,1.5-0.8,2.5-1.9c0.3-0.4,0.7-0.8,1-1.3c-0.2,1.4,0.5,2.4,1.8,2.3c0.8-0.1,1.5-0.7,2.4-1.7
				c0.1-0.1,0.2-0.2,0.2-0.2c0.1,0,0.1,0,0.1,0.2l0,0.1c0.1,0.7,0.6,1,1.3,0.9c0.9-0.1,1.8-0.8,2.9-2.1c0.9-1.1,1.2-1.8,1.4-2.3
				C65.8,42.9,65,42.7,64.7,43.3z M59.6,45.1c-0.6,0.8-1.2,1.3-1.5,1.4c-0.2,0-0.3-0.2-0.3-0.5c0.1-0.7,1.3-3,2.2-4.1
				c0.6-0.8,1.3-1.3,1.6-1.4c0.2,0,0.3,0.1,0.3,0.4C61.8,41.6,60.5,44,59.6,45.1z"/>
			<path class="st2" d="M56.3,38.3c0.8-0.1,1.5-0.9,1.6-1.7c0.1-0.8-0.5-1.3-1.3-1.1c-0.8,0.1-1.5,0.9-1.6,1.7
				C54.9,38,55.5,38.5,56.3,38.3z"/>
			<path class="st2" d="M44.5,41.7c-0.1,0-0.2,0-0.3,0c1.2-4.9,1.1-4.2,2.3-7.4c0.6-1.5,0.5-1.9,0-2.5c-0.5-0.6-0.4-1.2-1-1.3
				c-1.3-0.1-5.9,6.5-9.6,13c-1.7,0.5-3.5,1.2-5.1,1.9c-1,0.5-0.8,1.4-0.7,1.8c0.1,0.6,0.8,0.9,1.3,0.6c0.8-0.5,1.8-1,2.8-1.4
				c0,0.1-2.8,5.6-3.6,8.1c-0.3,0.9,0.2,1.7,1,2.1c0.8,0.4,1.3,0,1.6-1.2c0.3-1.5,3-7.7,4.4-10.2c1.2-0.4,2.4-0.7,3.6-1
				c0,0-0.9,3.6-0.9,5.4c0,1,0.4,2.2,1.5,2.1c1.1-0.2,0.9-1.2,1.1-2.2c0.3-2.2,0.3-3.2,0.9-5.7c0,0,0-0.1,0.1-0.1
				c0.3-0.1,0.6-0.1,0.8-0.2c1.4-0.3,1.8-0.3,1.9-1.4C46.5,41.4,45,41.6,44.5,41.7z M44.1,34.7c-0.8,2-1.7,4.8-2.4,7.5
				c-0.9,0.2-1.8,0.4-2.7,0.6C40.6,39.8,42.4,37,44.1,34.7z"/>
			<path class="st2" d="M46.3,50.6c-0.7,0.1-2.3-0.3-2.6-1.5c-0.1-0.4,0.5-1.5,0.6-1.7c0.2-0.3,0.5-0.1,0.7,0
				c0.2,0.4,1.6,1.6,2.3,0.8c0.5-0.5-0.3-1.1-0.6-1.7c-1.2-1.9,0.4-4.2,0.9-4.7c1.1-1.1,1.9-1.2,2.4-1.2c1.6-0.1,2.1,0.8,2,1.3
				c-0.1,0.6-0.4,0.9-0.6,1.1c-0.1,0.2-0.6,0.2-0.7,0c-0.3-0.5-0.5-1.1-1.5-0.7c-0.8,0.3-0.8,1.4-0.6,1.9c0.3,0.8,1.4,1.4,1.3,2.6
				C49.9,49.9,47.2,50.5,46.3,50.6z"/>
		</g>
	</g>
</g>
</svg>
