<?xml version="1.0" encoding="utf-8"?>
<!-- Generator: Adobe Illustrator 25.4.1, SVG Export Plug-In . SVG Version: 6.00 Build 0)  -->
<svg version="1.1" id="Layer_1" xmlns="http://www.w3.org/2000/svg" xmlns:xlink="http://www.w3.org/1999/xlink" x="0px" y="0px"
	 viewBox="0 0 106.3 80" style="enable-background:new 0 0 106.3 80;" xml:space="preserve">
<style type="text/css">
	.st0{fill:#05931B;}
	.st1{fill:#05056B;}
</style>
<polygon class="st0" points="15.9,40.8 25.9,40.8 26.5,36.9 "/>
<rect x="14.1" y="33.4" class="st1" width="16.2" height="0.6"/>
<rect x="16.4" y="32.3" class="st1" width="16.3" height="0.6"/>
<rect x="19.6" y="31.1" class="st1" width="16.1" height="0.6"/>
<rect x="68.6" y="47.8" class="st1" width="16.4" height="0.6"/>
<rect x="70.3" y="49.2" class="st1" width="16.4" height="0.6"/>
<rect x="72.2" y="50.4" class="st1" width="16.4" height="0.6"/>
<path class="st0" d="M30.1,38h39.6c0,0,1.8,0.1,3.4-1.1c1.6-1.2,3-1.5,4-0.5c1.1,1,1.7,3,1.7,3s-3.2-0.8-4.5,0.3
	c-1.3,1.1-3.1,2.1-6.6,2.1s-33.7,0-33.7,0S30.1,41.7,30.1,38z"/>
<path class="st0" d="M30.4,37.3c0,0,38.4-0.4,39.7-0.8c1.3-0.4,3.1-1.2,4.4-3.1s4.4-5.4,7.7-5.5c3.2-0.1,10.4,1.2,10.4,1.2
	s-5-4.3-9.2-4.3c-4.2,0-8.1,5.4-10.5,6.2s-6.1,0.6-8.8,0.6c-2.7,0-20.1-1-22.2-0.9S34.1,32.6,30.4,37.3z"/>
<path class="st0" d="M32.9,49.8c0,0,6-3.8,8.2-6.2h20.2c0,0-2.8,7.5,6.4,14.3c0,0-7.1,1.3-14.3-4.4s-10.5-8.1-10.5-8.1
	S35.9,48.8,32.9,49.8z"/>
<polygon class="st1" points="7,39.5 4,39.5 3.2,37.3 2.5,39.5 0,39.5 2,41 1.1,43.5 3.4,42 5.6,43.7 4.6,41.1 "/>
<polygon class="st1" points="106.3,39.5 103.3,39.5 102.5,37.3 101.7,39.5 99.3,39.5 101.2,41 100.3,43.5 102.6,42 104.8,43.7 
	103.9,41.1 "/>
<path class="st1" d="M27.2,12.5l4.2-1.4c-1.4-1.3-3.1-2.9-3.1-2.9S27.6,10.6,27.2,12.5z"/>
<path class="st1" d="M66.3,9.9c-0.7,0.2-1.1,0.7-0.9,1.6c0.2,0.8,1.7,0.8,2.4,0.4c0.7-0.3,0.8-2.2,0.8-2.2S67.1,9.7,66.3,9.9z"/>
<path class="st1" d="M54.5,0C12.9,0,5,28.7,4.4,32c0,0,20.5-19.6,50.1-19.6S101.7,32,101.7,32S96,0,54.5,0z M52,2
	c0.4,0,0.8,0.4,0.8,0.8S52.5,3.6,52,3.6c-0.4,0-0.8-0.4-0.8-0.8S51.6,2,52,2z M36.9,13.2c0,0.1-0.4,0.1-1.7,0.5
	c-1.3,0.4-2.5,0.9-2.6,0.8c-0.1-0.2-0.2-0.2,0.2-0.4c0.4-0.2,0.6-0.7,0.4-1.1c-0.1-0.1-0.7-0.7-1.5-1.5c-1.2,0.4-3.9,1.3-4.7,1.6
	c-0.2,1-0.4,1.8-0.5,2.1c-0.1,0.7,0.6,0.5,1,0.4c0.4-0.1,0.9,0.2,0.5,0.3c-0.4,0.1-3.5,1-3.5,1v-0.3c1-0.3,1.3-1.2,1.3-1.2L28,6.5
	l0.3-0.3c0,0,6.2,5.9,6.5,6.2s0.9,0.6,1.4,0.5C36.9,12.7,36.9,13,36.9,13.2z M42.3,4c-0.2-0.6-1.2-0.6-1.8-0.3
	c-0.6,0.3-0.8,1.2-0.7,2.1c0,0.2,0.1,0.5,0.1,0.9c0.9-0.1,1.6-0.2,1.7-0.2c0.2,0,0.6,0.3,0.2,0.4c-0.2,0.1-1,0.2-1.9,0.3
	c0.2,1.6,0.6,3.9,0.8,4.4c0.3,0.7,1.4,0.3,1.4,0.3s0.1,0.3,0.1,0.4c-0.7,0.1-4,0.5-4.1,0.6c0,0,0-0.1,0-0.2c0-0.1,0.3-0.2,0.3-0.2
	c0.8-0.2,0.7-0.9,0.7-0.9S39,9.1,38.7,7.3c-0.7,0.1-1.2,0.1-1.2,0.1c-0.2,0-0.1-0.3-0.1-0.3s0.6-0.1,1.3-0.2
	c-0.1-0.4-0.1-0.8-0.1-1.1c-0.1-1.6,1.3-2.4,2.3-2.8c1-0.4,2.2-0.1,2.6,0.3s0.2,0.8,0.1,1C43.4,4.4,42.6,4.6,42.3,4z M48.1,6.8
	c-0.2-0.3-0.7-0.5-1.1-0.3c-0.5,0.2-1,0.9-1,0.9s0.1,2.8,0.2,3.5c0,0.6,1.2,0.5,1.2,0.5v0.4L44,11.9l0-0.2l0.3-0.1
	c0.3,0,0.4-0.6,0.4-0.6S44.4,7,44.4,6.8c0-0.2-0.6,0.1-0.8,0.1c-0.1,0-0.2-0.2-0.2-0.2s1.5-0.7,2-0.9c0.5-0.2,0.5,0.1,0.5,0.1l0,1.1
	c0.2-0.3,1.6-1.5,2.2-1.5c0.5,0,1,0.6,1,1.1C49,6.9,48.3,7,48.1,6.8z M53.8,11.3h-3.1l-0.1-0.3c0,0,0.2-0.1,0.5-0.1
	c0.2,0,0.3-0.4,0.3-0.4s-0.1-4-0.1-4.3c0-0.3-1,0.1-1,0.1l-0.1-0.3l2.6-1c0,0,0,4.5,0,5.2c0,0.7,1.1,0.6,1.1,0.6V11.3z M62.1,10.1
	c-0.1,0.3-1.3,1.7-3.1,1.8c-1.8,0-3.3-1.3-3.5-3c-0.2-1.8,1.3-3.4,3.7-3.4c1.6,0,2.3,0.7,2.5,1.1c0.1,0.1,0.1,0.2,0.1,0.3
	c0,0,0,0,0,0l0,0c0,0,0,0.1,0,0.1c0,0.4-0.3,0.7-0.7,0.7c-0.3,0-0.6-0.2-0.6-0.5l0,0c0,0,0,0,0,0c0,0,0-0.1,0-0.1c0,0,0,0,0,0
	c0-0.3-0.2-0.8-1.3-0.9C58,5.9,57.1,7.5,57,8.3c-0.1,0.8,0.7,2.8,2.4,2.8c1.8,0,2.5-1.2,2.5-1.2C62,9.7,62.3,9.8,62.1,10.1z
	 M69.9,13.3c0,0-1.7-0.2-1.7-0.7c0,0-1.2,0.5-2.6,0.1c-1.4-0.4-2-1.6-1.4-2.4C64.8,9.4,68.7,9,68.7,9s0.4-1.3-0.4-1.7
	s-2-0.3-2.2,0.5c0,0,0,0,0,0c-0.1,0.3-0.3,0.5-0.6,0.5c-0.4,0-0.7-0.3-0.7-0.7c0-0.1,0-0.3,0.1-0.4c0,0,0,0,0,0c0-0.1,0.8-1.2,3-0.7
	c2.2,0.5,2.2,1.8,2.1,2.7s-0.3,3.2-0.3,3.2s0,0.3,0.3,0.5L69.9,13.3z M79.8,11.6c-0.2,0.6-0.9,2.8-1.1,3.4c-0.2,0.6,0.7,1,0.7,1
	l-0.1,0.4l-3.1-1.2l0.1-0.3c0.4,0.1,0.9,0,0.9,0s0.7-2.1,1-3.2c0.3-1.1-0.2-1.6-1.1-1.8c-0.9-0.2-1.7,0.2-1.7,0.2s-1,2.7-1.2,3.3
	c-0.2,0.7,0.7,1.2,0.7,1.2l-0.1,0.3c0,0-3-1.1-3.1-1.2l0.1-0.3c0.5,0.3,1-0.4,1-0.4s0.7-2.2,0.9-2.7c0.2-0.6,0.3-1,0.3-1.4
	c0-0.3-1.1-0.3-1.1-0.3l-0.1-0.2c0,0,2.8-0.2,2.8,0c0.1,0.2-0.3,1.1-0.3,1.1s1.2-0.6,2.7-0.4C79.7,9.4,79.9,11,79.8,11.6z"/>
<path class="st0" d="M48.8,70c-0.8,0-1.2,0.5-1.5,0.9V71c0,0-0.1,1.6-0.2,3.2c0.2,0.4,0.7,0.9,1.2,1c0.9,0.2,1.6-0.2,1.6-1.3
	C49.9,72.6,50.2,70,48.8,70z"/>
<path class="st0" d="M52.7,65.7c-29.6,0-48.2-19.2-48.2-19.2S11.5,80,53.1,80c43.6,0,48.1-30.1,48.7-33.4
	C101.7,46.6,82.2,65.7,52.7,65.7z M33.9,67c0,0,0.5-1.5-0.5-2.3c-1-0.8-3.1-1.4-3.1-1.4S29.6,65,29,66.6c0.3,0.2,0.9,0.4,1.2,0.4
	c0.4,0,1.2-0.4,1.4-0.9l0.3,0.1l-1.3,3.3l-0.3-0.1c0,0,0.5-1.6-0.5-1.9c-0.4-0.1-0.7-0.3-1-0.4c-0.5,1.4-0.9,2.7-0.9,2.8
	c0,0.4,0.5,1.1,1.2,1.4c0.8,0.4,2.6,0.4,3.3,0c0.6-0.4,0.9-0.7,0.9-0.7l0.2,0.2l-1.3,2.2l-8.3-3.2l0.2-0.3c0,0,0.7,0.3,1.1-0.1
	c0.4-0.4,2.4-5.8,2.4-6.1c0-0.3,0.3-0.9-1-1.6l0.1-0.3l8.4,3.2l-1,2.5L33.9,67z M41.9,69.7c0,0.9-0.9,1.1-1.2,0.9
	c-0.3-0.2-0.3-1-0.9-0.9c-0.1,0-0.5,0.3-0.9,0.7c0.7,0.7,1.4,1.4,1.4,1.4l-1.3,1c0,0-0.6-0.7-1.2-1.4c-1.5,1.4-3.3,3.2-3.3,3.2
	c-0.6,0.3,0.2-0.5,0.2-0.5s1.5-1.7,2.7-3.1c-0.3-0.3-0.6-0.6-0.7-0.7c-0.5-0.4-0.8-0.5-1-0.4C35.4,70,35,70,35.1,69.8
	c0-0.1,0.1-0.5,0.7-0.7c0.6-0.2,1.3-0.2,1.6,0c0.1,0.1,0.5,0.4,0.9,0.8c0.1-0.1,0.2-0.2,0.3-0.3c0.9-0.8,1.7-1.3,2.4-1.3
	C41.8,68.4,42,68.8,41.9,69.7z M49,75.9c-1,0-1.6-0.6-1.9-1.2c-0.1,1.3-0.2,2.5-0.2,2.8c0,0.7,0.8,0.7,0.8,0.7v0.3l-3.7-0.3v-0.3
	c0.9,0,0.9-0.6,0.9-0.6s0.3-6.4,0.4-7.1c0.1-0.7-0.7-0.6-0.7-0.6v-0.3c2.6-0.3,2.7,0.9,2.7,0.9v0.2c0.3-0.4,0.8-0.8,1.7-0.8
	c1.4,0,3.1,0.6,3.1,2.9C52,74.6,50.9,75.9,49,75.9z M59.4,71c-0.7,0-0.9-0.5-0.9-0.5c-0.9-0.2-1.2,0.8-1.2,0.8s0,2.6,0,3.4
	c0,0.8,1.1,0.9,1.1,0.9v0.3h-3.9v-0.4c0.6-0.1,0.9-0.5,0.9-0.5s0-3.9,0-4.4c0-0.5-1.2-0.4-1.2-0.4v-0.3c0-0.1,1.1-0.3,2.1-0.3
	c1,0,1,1.1,1,1.1s1-1.5,1.9-1.5s1.2,0.6,1.2,0.9C60.3,70.4,60,71,59.4,71z M65.9,75c-1.9,0.6-3.5-1.2-3.8-2.1
	c-0.3-0.9-0.3-3.9,2.5-4.5c2.7-0.6,3.4,2.5,3.4,2.5l-4,1.1c0,0.6,1,2.3,2.1,2.1c1.1-0.2,1.7-1.4,1.7-1.4h0.4
	C68.2,72.7,67.8,74.4,65.9,75z M73.6,73.2c-0.5,0.2-1.9,0.1-2.3,0.1c-0.5,0-0.3,0.7-0.3,0.7l-0.3,0.1l-0.4-2.4c0,0,0.2,0,0.4,0
	c0.1,0.4,0.4,1,0.7,1.1c0.5,0.1,1.3,0,1.7,0c0.4,0,0.8-0.4,0.8-0.9c0-0.5-0.4-0.9-1-1c-0.6-0.1-3-0.6-3.4-1.6
	c-0.4-1,0.3-2.3,1.2-2.4c1-0.1,2.1-0.1,2.2-0.2c0.2-0.1,0.1-0.5,0.1-0.5l0.3-0.1l0.3,2.3h-0.3l-0.1-0.3c-0.3-1.2-2-0.8-2.3-0.6
	c-0.3,0.1-0.5,0.6,0.4,1.3c0.8,0.6,3,0.1,3.5,1.7C75.5,72.3,74.1,73,73.6,73.2z M80.9,70.9c-0.5,0.3-1.8,0.4-2.3,0.5
	c-0.5,0.1-0.2,0.7-0.2,0.7l-0.3,0.2l-0.7-2.4c0,0,0.2-0.1,0.4-0.1c0.2,0.4,0.6,1,0.9,1c0.5,0.1,1.3-0.1,1.7-0.2
	c0.4-0.1,0.8-0.5,0.7-1c0-0.5-0.5-0.8-1.1-0.8c-0.6,0-3-0.1-3.6-1.1c-0.5-1,0-2.3,0.9-2.5s2-0.3,2.2-0.5c0.2-0.1,0-0.5,0-0.5
	l0.3-0.2l0.6,2.3l-0.3,0L80,66c-0.5-1.2-2.1-0.5-2.3-0.3c-0.2,0.2-0.4,0.7,0.5,1.2c0.9,0.5,3-0.3,3.7,1.2
	C82.6,69.7,81.4,70.6,80.9,70.9z"/>
<path class="st0" d="M64.6,69.1c-0.9,0.2-0.8,2-0.8,2l2.5-0.6C66.1,69.8,65.5,68.9,64.6,69.1z"/>
</svg>
