<?xml version="1.0" encoding="utf-8"?>
<!-- Generator: Adobe Illustrator 25.4.1, SVG Export Plug-In . SVG Version: 6.00 Build 0)  -->
<svg version="1.1" id="Layer_1" xmlns="http://www.w3.org/2000/svg" xmlns:xlink="http://www.w3.org/1999/xlink" x="0px" y="0px"
	 viewBox="0 0 438.2 80" style="enable-background:new 0 0 438.2 80;" xml:space="preserve">
<style type="text/css">
	.st0{fill:#05056B;}
	.st1{fill:#05931B;}
</style>
<g>
	<g>
		<rect x="161.8" y="21.4" class="st0" width="3.9" height="19.4"/>
		<rect x="350" y="21.4" class="st0" width="3.9" height="19.4"/>
		<polygon class="st0" points="211.7,33.5 204.3,21.4 200.4,21.4 200.4,40.8 204.3,40.8 204.3,29.1 211.7,40.8 215.6,40.8 
			215.6,21.4 211.7,21.4 		"/>
		<polygon class="st0" points="227.9,32.9 234.6,32.9 234.6,29.1 227.9,29.1 227.9,25.3 235.7,25.3 235.7,21.4 227.9,21.4 
			224.4,21.4 224,21.4 224,40.8 224.4,40.8 227.9,40.8 235.9,40.8 235.9,37 227.9,37 		"/>
		<polygon class="st0" points="132.7,21.4 132.7,25.3 132.7,29.1 132.7,32.9 132.7,40.8 136.6,40.8 136.6,32.9 142.9,32.9 
			142.9,29.1 136.6,29.1 136.6,25.3 144.1,25.3 144.1,21.4 136.6,21.4 		"/>
		<polygon class="st0" points="289.6,32.9 296.3,32.9 296.3,29.1 289.6,29.1 289.6,25.3 297.4,25.3 297.4,21.4 289.6,21.4 286,21.4 
			285.7,21.4 285.7,40.8 286,40.8 289.6,40.8 297.6,40.8 297.6,37 289.6,37 		"/>
		<path class="st0" d="M188.6,21.4l-6.7,19.4h4.1l1.6-4.6h5.7l1.7,4.6h4.1l-7-19.4H188.6z M188.8,32.4l1.5-4.2l1.5,4.2H188.8z"/>
		<path class="st0" d="M121.2,21.4l-6.7,19.4h4.1l1.6-4.6h5.7l1.7,4.6h4.1l-7-19.4H121.2z M121.4,32.4l1.5-4.2l1.5,4.2H121.4z"/>
		<path class="st0" d="M338.5,21.4l-6.7,19.4h4.1l1.6-4.6h5.7l1.7,4.6h4.1l-7-19.4H338.5z M338.8,32.4l1.5-4.2l1.5,4.2H338.8z"/>
		<path class="st0" d="M399.8,21.4L393,40.8h4.1l1.6-4.6h5.7l1.7,4.6h4.1l-7-19.4H399.8z M400,32.4l1.5-4.2l1.5,4.2H400z"/>
		<path class="st0" d="M159,27.5c0-6.4-5.6-6.1-5.6-6.1h-3.6h-3.9v19.4h3.9v-7l0.8,0c0,0,0.2,0,0.4,0c1.2,1.8,4.7,7.1,4.7,7.1h4.8
			l-5.3-7.9C157.1,32.1,159,30.6,159,27.5z M152.9,29.9h-3.2v-4.6c1.1,0,3,0,3,0s2.4,0.2,2.4,2.4C155.1,29.9,152.9,29.9,152.9,29.9z
			"/>
		<path class="st0" d="M282.8,27.5c0-6.4-5.6-6.1-5.6-6.1h-3.6h-3.9v19.4h3.9v-7l0.8,0c0,0,0.2,0,0.4,0c1.2,1.8,4.7,7.1,4.7,7.1h4.8
			l-5.3-7.9C280.9,32.1,282.8,30.6,282.8,27.5z M276.7,29.9h-3.2v-4.6c1.1,0,3,0,3,0s2.4,0.2,2.4,2.4
			C278.9,29.9,276.7,29.9,276.7,29.9z"/>
		<path class="st0" d="M370.2,27.5c0-6.4-5.6-6.1-5.6-6.1H361h-3.9v19.4h3.9v-7l0.8,0c0,0,0.2,0,0.4,0c1.2,1.8,4.7,7.1,4.7,7.1h4.8
			l-5.3-7.9C368.4,32.1,370.2,30.6,370.2,27.5z M364.1,29.9H361v-4.6c1.1,0,3,0,3,0s2.4,0.2,2.4,2.4
			C366.3,29.9,364.1,29.9,364.1,29.9z"/>
		<path class="st0" d="M176.9,37.5c-2.8,0-5.1-2.2-5.1-5.9c0-3.8,2.4-6.8,5.1-6.8s4.1,1.1,4.1,1.1v-3.7c0,0-1.5-0.9-4-0.9
			c-2.6,0-9,1.7-9,10.2s6.7,9.7,8.3,9.7s4.1-0.3,5-0.7c0.1-0.1,0-3.7,0-3.7S179.8,37.5,176.9,37.5z"/>
		<polygon class="st0" points="248.4,21.4 244.7,27.4 241,21.4 236.4,21.4 242.5,31 236.4,40.8 240.8,40.8 244.7,34.6 248.7,40.8 
			253.1,40.8 247,31 253.1,21.4 		"/>
		<path class="st0" d="M261,21.4c-0.7,0-2,0-2.6,0h-0.4h-3.5v19.4h3.9v-7.1c0,0,3.2,0.1,3.3,0s5.7-0.2,5.7-6.1S261.9,21.4,261,21.4z
			 M260.8,29.9c-0.5,0-1.8,0-2.4,0v-4.6h2.3c0,0,2.6-0.2,2.6,2.1S261.5,29.9,260.8,29.9z"/>
		<path class="st0" d="M310.1,30.4c-1-0.9-4.4-1.7-6-2.4c-1.6-0.7-1.6-3.6,1.8-3.6c3.4,0,5.4,2,5.4,2v-3.8c0,0-1.7-1.5-5.7-1.5
			c-4,0-6.2,3.3-6.2,6.4s2.5,4.7,5.2,5.3c2.7,0.5,3.6,1.6,3.6,2.6c0,1-0.7,2.3-3.5,2.3s-5.2-1.6-5.2-1.6v3.7c0,0,1.6,1.4,5.9,1.4
			c4.3,0,6.9-3.1,6.9-6.1C312.1,32.1,311.1,31.3,310.1,30.4z"/>
		<path class="st0" d="M324.8,30.4c-1-0.9-4.4-1.7-6-2.4c-1.6-0.7-1.6-3.6,1.8-3.6c3.4,0,5.4,2,5.4,2v-3.8c0,0-1.7-1.5-5.7-1.5
			c-4,0-6.2,3.3-6.2,6.4s2.5,4.7,5.2,5.3c2.7,0.5,3.6,1.6,3.6,2.6c0,1-0.7,2.3-3.5,2.3s-5.2-1.6-5.2-1.6v3.7c0,0,1.6,1.4,5.9,1.4
			c4.3,0,6.9-3.1,6.9-6.1C326.8,32.1,325.8,31.3,324.8,30.4z"/>
		<path class="st0" d="M436.2,30.4c-1-0.9-4.4-1.7-6-2.4c-1.6-0.7-1.6-3.6,1.8-3.6s5.4,2,5.4,2v-3.8c0,0-1.7-1.5-5.7-1.5
			c-4,0-6.2,3.3-6.2,6.4s2.5,4.7,5.2,5.3c2.7,0.5,3.6,1.6,3.6,2.6c0,1-0.7,2.3-3.5,2.3s-5.2-1.6-5.2-1.6v3.7c0,0,1.6,1.4,5.9,1.4
			s6.9-3.1,6.9-6.1C438.2,32.1,437.2,31.3,436.2,30.4z"/>
		<path class="st0" d="M416.6,28.7l-4.2-7.3h-4.3l6.5,11.3c0,0-0.3,8.1,0,8.1c0.3,0,4,0,4,0v-8.1l6.6-11.3h-4.3L416.6,28.7z"/>
		<polygon class="st0" points="390.8,21.4 387.5,33.2 384.7,21.4 381.3,21.4 378.3,33.2 375,21.4 371,21.4 376.6,40.8 380.3,40.8 
			382.9,29.5 385.7,40.8 389.2,40.8 394.7,21.4 		"/>
	</g>
	<polygon class="st1" points="15.9,40.8 25.9,40.8 26.5,36.9 	"/>
	<rect x="14.1" y="33.4" class="st0" width="16.2" height="0.6"/>
	<rect x="16.4" y="32.3" class="st0" width="16.3" height="0.6"/>
	<rect x="19.6" y="31.1" class="st0" width="16.1" height="0.6"/>
	<rect x="68.6" y="47.8" class="st0" width="16.4" height="0.6"/>
	<rect x="70.3" y="49.2" class="st0" width="16.4" height="0.6"/>
	<rect x="72.2" y="50.4" class="st0" width="16.4" height="0.6"/>
	<path class="st1" d="M30.1,38h39.6c0,0,1.8,0.1,3.4-1.1c1.6-1.2,3-1.5,4-0.5c1.1,1,1.7,3,1.7,3s-3.2-0.8-4.5,0.3
		c-1.3,1.1-3.1,2.1-6.6,2.1s-33.7,0-33.7,0S30.1,41.7,30.1,38z"/>
	<path class="st1" d="M30.4,37.3c0,0,38.4-0.4,39.7-0.8c1.3-0.4,3.1-1.2,4.4-3.1s4.4-5.4,7.7-5.5c3.2-0.1,10.4,1.2,10.4,1.2
		s-5-4.3-9.2-4.3c-4.2,0-8.1,5.4-10.5,6.2s-6.1,0.6-8.8,0.6c-2.7,0-20.1-1-22.2-0.9S34.1,32.6,30.4,37.3z"/>
	<path class="st1" d="M32.9,49.8c0,0,6-3.8,8.2-6.2h20.2c0,0-2.8,7.5,6.4,14.3c0,0-7.1,1.3-14.3-4.4s-10.5-8.1-10.5-8.1
		S35.9,48.8,32.9,49.8z"/>
	<polygon class="st0" points="7,39.5 4,39.5 3.2,37.3 2.5,39.5 0,39.5 2,41 1.1,43.5 3.4,42 5.6,43.7 4.6,41.1 	"/>
	<polygon class="st0" points="106.3,39.5 103.3,39.5 102.5,37.3 101.7,39.5 99.3,39.5 101.2,41 100.3,43.5 102.6,42 104.8,43.7 
		103.9,41.1 	"/>
	<path class="st0" d="M27.2,12.5l4.2-1.4c-1.4-1.3-3.1-2.9-3.1-2.9S27.6,10.6,27.2,12.5z"/>
	<path class="st0" d="M66.3,9.9c-0.7,0.2-1.1,0.7-0.9,1.6c0.2,0.8,1.7,0.8,2.4,0.4c0.7-0.3,0.8-2.2,0.8-2.2S67.1,9.7,66.3,9.9z"/>
	<path class="st0" d="M54.5,0C12.9,0,5,28.7,4.4,32c0,0,20.5-19.6,50.1-19.6S101.7,32,101.7,32S96,0,54.5,0z M52,2
		c0.4,0,0.8,0.4,0.8,0.8S52.5,3.6,52,3.6c-0.4,0-0.8-0.4-0.8-0.8S51.6,2,52,2z M36.9,13.2c0,0.1-0.4,0.1-1.7,0.5
		c-1.3,0.4-2.5,0.9-2.6,0.8c-0.1-0.2-0.2-0.2,0.2-0.4c0.4-0.2,0.6-0.7,0.4-1.1c-0.1-0.1-0.7-0.7-1.5-1.5c-1.2,0.4-3.9,1.3-4.7,1.6
		c-0.2,1-0.4,1.8-0.5,2.1c-0.1,0.7,0.6,0.5,1,0.4c0.4-0.1,0.9,0.2,0.5,0.3c-0.4,0.1-3.5,1-3.5,1v-0.3c1-0.3,1.3-1.2,1.3-1.2L28,6.5
		l0.3-0.3c0,0,6.2,5.9,6.5,6.2s0.9,0.6,1.4,0.5C36.9,12.7,36.9,13,36.9,13.2z M42.3,4c-0.2-0.6-1.2-0.6-1.8-0.3
		c-0.6,0.3-0.8,1.2-0.7,2.1c0,0.2,0.1,0.5,0.1,0.9c0.9-0.1,1.6-0.2,1.7-0.2c0.2,0,0.6,0.3,0.2,0.4c-0.2,0.1-1,0.2-1.9,0.3
		c0.2,1.6,0.6,3.9,0.8,4.4c0.3,0.7,1.4,0.3,1.4,0.3s0.1,0.3,0.1,0.4c-0.7,0.1-4,0.5-4.1,0.6c0,0,0-0.1,0-0.2c0-0.1,0.3-0.2,0.3-0.2
		c0.8-0.2,0.7-0.9,0.7-0.9S39,9.1,38.7,7.3c-0.7,0.1-1.2,0.1-1.2,0.1c-0.2,0-0.1-0.3-0.1-0.3s0.6-0.1,1.3-0.2
		c-0.1-0.4-0.1-0.8-0.1-1.1c-0.1-1.6,1.3-2.4,2.3-2.8c1-0.4,2.2-0.1,2.6,0.3s0.2,0.8,0.1,1C43.4,4.4,42.6,4.6,42.3,4z M48.1,6.8
		c-0.2-0.3-0.7-0.5-1.1-0.3c-0.5,0.2-1,0.9-1,0.9s0.1,2.8,0.2,3.5c0,0.6,1.2,0.5,1.2,0.5v0.4L44,11.9l0-0.2l0.3-0.1
		c0.3,0,0.4-0.6,0.4-0.6S44.4,7,44.4,6.8c0-0.2-0.6,0.1-0.8,0.1c-0.1,0-0.2-0.2-0.2-0.2s1.5-0.7,2-0.9c0.5-0.2,0.5,0.1,0.5,0.1
		l0,1.1c0.2-0.3,1.6-1.5,2.2-1.5c0.5,0,1,0.6,1,1.1C49,6.9,48.3,7,48.1,6.8z M53.8,11.3h-3.1l-0.1-0.3c0,0,0.2-0.1,0.5-0.1
		c0.2,0,0.3-0.4,0.3-0.4s-0.1-4-0.1-4.3c0-0.3-1,0.1-1,0.1l-0.1-0.3l2.6-1c0,0,0,4.5,0,5.2c0,0.7,1.1,0.6,1.1,0.6V11.3z M62.1,10.1
		c-0.1,0.3-1.3,1.7-3.1,1.8c-1.8,0-3.3-1.3-3.5-3c-0.2-1.8,1.3-3.4,3.7-3.4c1.6,0,2.3,0.7,2.5,1.1c0.1,0.1,0.1,0.2,0.1,0.3
		c0,0,0,0,0,0l0,0c0,0,0,0.1,0,0.1c0,0.4-0.3,0.7-0.7,0.7c-0.3,0-0.6-0.2-0.6-0.5l0,0c0,0,0,0,0,0c0,0,0-0.1,0-0.1c0,0,0,0,0,0
		c0-0.3-0.2-0.8-1.3-0.9C58,5.9,57.1,7.5,57,8.3c-0.1,0.8,0.7,2.8,2.4,2.8c1.8,0,2.5-1.2,2.5-1.2C62,9.7,62.3,9.8,62.1,10.1z
		 M69.9,13.3c0,0-1.7-0.2-1.7-0.7c0,0-1.2,0.5-2.6,0.1c-1.4-0.4-2-1.6-1.4-2.4C64.8,9.4,68.7,9,68.7,9s0.4-1.3-0.4-1.7
		s-2-0.3-2.2,0.5c0,0,0,0,0,0c-0.1,0.3-0.3,0.5-0.6,0.5c-0.4,0-0.7-0.3-0.7-0.7c0-0.1,0-0.3,0.1-0.4c0,0,0,0,0,0
		c0-0.1,0.8-1.2,3-0.7c2.2,0.5,2.2,1.8,2.1,2.7s-0.3,3.2-0.3,3.2s0,0.3,0.3,0.5L69.9,13.3z M79.8,11.6c-0.2,0.6-0.9,2.8-1.1,3.4
		c-0.2,0.6,0.7,1,0.7,1l-0.1,0.4l-3.1-1.2l0.1-0.3c0.4,0.1,0.9,0,0.9,0s0.7-2.1,1-3.2c0.3-1.1-0.2-1.6-1.1-1.8
		c-0.9-0.2-1.7,0.2-1.7,0.2s-1,2.7-1.2,3.3c-0.2,0.7,0.7,1.2,0.7,1.2l-0.1,0.3c0,0-3-1.1-3.1-1.2l0.1-0.3c0.5,0.3,1-0.4,1-0.4
		s0.7-2.2,0.9-2.7c0.2-0.6,0.3-1,0.3-1.4c0-0.3-1.1-0.3-1.1-0.3l-0.1-0.2c0,0,2.8-0.2,2.8,0c0.1,0.2-0.3,1.1-0.3,1.1
		s1.2-0.6,2.7-0.4C79.7,9.4,79.9,11,79.8,11.6z"/>
	<path class="st1" d="M48.8,70c-0.8,0-1.2,0.5-1.5,0.9V71c0,0-0.1,1.6-0.2,3.2c0.2,0.4,0.7,0.9,1.2,1c0.9,0.2,1.6-0.2,1.6-1.3
		C49.9,72.6,50.2,70,48.8,70z"/>
	<path class="st1" d="M52.7,65.7c-29.6,0-48.2-19.2-48.2-19.2S11.5,80,53.1,80c43.6,0,48.1-30.1,48.7-33.4
		C101.7,46.6,82.2,65.7,52.7,65.7z M33.9,67c0,0,0.5-1.5-0.5-2.3c-1-0.8-3.1-1.4-3.1-1.4S29.6,65,29,66.6c0.3,0.2,0.9,0.4,1.2,0.4
		c0.4,0,1.2-0.4,1.4-0.9l0.3,0.1l-1.3,3.3l-0.3-0.1c0,0,0.5-1.6-0.5-1.9c-0.4-0.1-0.7-0.3-1-0.4c-0.5,1.4-0.9,2.7-0.9,2.8
		c0,0.4,0.5,1.1,1.2,1.4c0.8,0.4,2.6,0.4,3.3,0c0.6-0.4,0.9-0.7,0.9-0.7l0.2,0.2l-1.3,2.2l-8.3-3.2l0.2-0.3c0,0,0.7,0.3,1.1-0.1
		c0.4-0.4,2.4-5.8,2.4-6.1c0-0.3,0.3-0.9-1-1.6l0.1-0.3l8.4,3.2l-1,2.5L33.9,67z M41.9,69.7c0,0.9-0.9,1.1-1.2,0.9
		c-0.3-0.2-0.3-1-0.9-0.9c-0.1,0-0.5,0.3-0.9,0.7c0.7,0.7,1.4,1.4,1.4,1.4l-1.3,1c0,0-0.6-0.7-1.2-1.4c-1.5,1.4-3.3,3.2-3.3,3.2
		c-0.6,0.3,0.2-0.5,0.2-0.5s1.5-1.7,2.7-3.1c-0.3-0.3-0.6-0.6-0.7-0.7c-0.5-0.4-0.8-0.5-1-0.4C35.4,70,35,70,35.1,69.8
		c0-0.1,0.1-0.5,0.7-0.7c0.6-0.2,1.3-0.2,1.6,0c0.1,0.1,0.5,0.4,0.9,0.8c0.1-0.1,0.2-0.2,0.3-0.3c0.9-0.8,1.7-1.3,2.4-1.3
		C41.8,68.4,42,68.8,41.9,69.7z M49,75.9c-1,0-1.6-0.6-1.9-1.2c-0.1,1.3-0.2,2.5-0.2,2.8c0,0.7,0.8,0.7,0.8,0.7v0.3l-3.7-0.3v-0.3
		c0.9,0,0.9-0.6,0.9-0.6s0.3-6.4,0.4-7.1c0.1-0.7-0.7-0.6-0.7-0.6v-0.3c2.6-0.3,2.7,0.9,2.7,0.9v0.2c0.3-0.4,0.8-0.8,1.7-0.8
		c1.4,0,3.1,0.6,3.1,2.9C52,74.6,50.9,75.9,49,75.9z M59.4,71c-0.7,0-0.9-0.5-0.9-0.5c-0.9-0.2-1.2,0.8-1.2,0.8s0,2.6,0,3.4
		c0,0.8,1.1,0.9,1.1,0.9v0.3h-3.9v-0.4c0.6-0.1,0.9-0.5,0.9-0.5s0-3.9,0-4.4c0-0.5-1.2-0.4-1.2-0.4v-0.3c0-0.1,1.1-0.3,2.1-0.3
		c1,0,1,1.1,1,1.1s1-1.5,1.9-1.5s1.2,0.6,1.2,0.9C60.3,70.4,60,71,59.4,71z M65.9,75c-1.9,0.6-3.5-1.2-3.8-2.1
		c-0.3-0.9-0.3-3.9,2.5-4.5c2.7-0.6,3.4,2.5,3.4,2.5l-4,1.1c0,0.6,1,2.3,2.1,2.1c1.1-0.2,1.7-1.4,1.7-1.4h0.4
		C68.2,72.7,67.8,74.4,65.9,75z M73.6,73.2c-0.5,0.2-1.9,0.1-2.3,0.1c-0.5,0-0.3,0.7-0.3,0.7l-0.3,0.1l-0.4-2.4c0,0,0.2,0,0.4,0
		c0.1,0.4,0.4,1,0.7,1.1c0.5,0.1,1.3,0,1.7,0c0.4,0,0.8-0.4,0.8-0.9c0-0.5-0.4-0.9-1-1c-0.6-0.1-3-0.6-3.4-1.6
		c-0.4-1,0.3-2.3,1.2-2.4c1-0.1,2.1-0.1,2.2-0.2c0.2-0.1,0.1-0.5,0.1-0.5l0.3-0.1l0.3,2.3h-0.3l-0.1-0.3c-0.3-1.2-2-0.8-2.3-0.6
		c-0.3,0.1-0.5,0.6,0.4,1.3c0.8,0.6,3,0.1,3.5,1.7C75.5,72.3,74.1,73,73.6,73.2z M80.9,70.9c-0.5,0.3-1.8,0.4-2.3,0.5
		c-0.5,0.1-0.2,0.7-0.2,0.7l-0.3,0.2l-0.7-2.4c0,0,0.2-0.1,0.4-0.1c0.2,0.4,0.6,1,0.9,1c0.5,0.1,1.3-0.1,1.7-0.2
		c0.4-0.1,0.8-0.5,0.7-1c0-0.5-0.5-0.8-1.1-0.8c-0.6,0-3-0.1-3.6-1.1c-0.5-1,0-2.3,0.9-2.5s2-0.3,2.2-0.5c0.2-0.1,0-0.5,0-0.5
		l0.3-0.2l0.6,2.3l-0.3,0L80,66c-0.5-1.2-2.1-0.5-2.3-0.3c-0.2,0.2-0.4,0.7,0.5,1.2c0.9,0.5,3-0.3,3.7,1.2
		C82.6,69.7,81.4,70.6,80.9,70.9z"/>
	<path class="st1" d="M64.6,69.1c-0.9,0.2-0.8,2-0.8,2l2.5-0.6C66.1,69.8,65.5,68.9,64.6,69.1z"/>
</g>
</svg>
