<?xml version="1.0" encoding="utf-8"?>
<!-- Generator: Adobe Illustrator 25.4.1, SVG Export Plug-In . SVG Version: 6.00 Build 0)  -->
<svg version="1.1" id="Layer_1" xmlns="http://www.w3.org/2000/svg" xmlns:xlink="http://www.w3.org/1999/xlink" x="0px" y="0px"
	 viewBox="0 0 41.03 80" style="enable-background:new 0 0 41.03 80;" xml:space="preserve">
<style type="text/css">
	.st0{fill:#00B7AC;}
</style>
<path id="Path_96" class="st0" d="M34.5,0.21c-0.55-0.02-1.11-0.05-1.66-0.08C31.89,0.07,30.82,0,29.66,0
	C11.88,0,0.97,11.05,0.06,29.72C0.02,30.03,0,30.33,0,30.64v42.62C0,76.98,3.02,80,6.74,80c0,0,0,0,0.01,0
	c3.72,0,6.74-3.02,6.74-6.74c0,0,0,0,0,0V32.28c0-16.85,9.23-18.8,16.17-18.8c0.75,0,1.53,0.05,2.36,0.1
	c0.69,0.04,1.38,0.08,2.07,0.1c3.72,0.11,6.82-2.81,6.94-6.53c0,0,0-0.01,0-0.01C41.14,3.43,38.21,0.32,34.5,0.21
	C34.49,0.21,34.49,0.21,34.5,0.21"/>
<path id="Path_97" class="st0" d="M24.33,30.72c-3.72,0-6.73,3.01-6.73,6.72c0,0,0,0.01,0,0.01c0,3.72,3.01,6.73,6.73,6.73
	c0,0,0,0,0.01,0c3.72,0,6.74-3.01,6.74-6.73c0,0,0,0,0,0C31.06,33.73,28.05,30.72,24.33,30.72C24.33,30.72,24.33,30.72,24.33,30.72"
	/>
</svg>
