<?xml version="1.0" encoding="utf-8"?>
<!-- Generator: Adobe Illustrator 25.4.1, SVG Export Plug-In . SVG Version: 6.00 Build 0)  -->
<svg version="1.1" id="Layer_1" xmlns="http://www.w3.org/2000/svg" xmlns:xlink="http://www.w3.org/1999/xlink" x="0px" y="0px"
	 viewBox="0 0 185.47 80" style="enable-background:new 0 0 185.47 80;" xml:space="preserve">
<style type="text/css">
	.st0{fill:#00B7AC;}
</style>
<g id="Group_152" transform="translate(510.451 -332.666)">
	<path id="Path_94" class="st0" d="M-376.17,342.78c-10.36,0.04-18.21,8.07-18.39,18.75c0,0.06,0,0.11,0,0.17v0.22
		c0,0.06,0,0.11,0,0.17c0.19,10.72,8.03,18.75,18.41,18.75c1.23,0.01,2.45-0.07,3.66-0.26c2.16-0.41,3.59-2.5,3.18-4.66
		c-0.41-2.15-2.48-3.57-4.63-3.16c0,0-0.01,0-0.01,0c-0.73,0.09-1.46,0.13-2.2,0.13c-6.12,0-10.4-4.54-10.45-11.06
		c0.05-6.5,4.33-11.04,10.43-11.06c6.16,0.02,10.47,4.62,10.47,11.17v14.93c0,2.2,1.78,3.98,3.98,3.98c0,0,0,0,0,0
		c2.2,0,3.98-1.78,3.98-3.98c0,0,0,0,0,0v-14.94C-357.74,351.04-365.65,342.81-376.17,342.78"/>
	<path id="Path_95" class="st0" d="M-478.33,332.89c-2.2,0-3.98,1.78-3.98,3.98v39.03c0,2.2,1.78,3.98,3.98,3.98c0,0,0,0,0,0
		c2.2,0,3.98-1.78,3.98-3.98c0,0,0,0,0,0v-39.03C-474.35,334.67-476.14,332.89-478.33,332.89"/>
	<path id="Path_96" class="st0" d="M-490.09,332.79c-0.32-0.01-0.65-0.03-0.98-0.05c-0.56-0.03-1.19-0.07-1.88-0.07
		c-10.49,0-16.94,6.52-17.47,17.54c-0.02,0.18-0.03,0.36-0.03,0.54v25.16c0,2.2,1.78,3.98,3.98,3.98c0,0,0,0,0,0
		c2.2,0,3.98-1.78,3.98-3.98c0,0,0,0,0,0v-24.19c0-9.94,5.45-11.09,9.55-11.09c0.44,0,0.9,0.03,1.39,0.06
		c0.41,0.03,0.81,0.05,1.22,0.06c2.2,0.07,4.03-1.66,4.09-3.86c0,0,0,0,0,0C-486.17,334.69-487.9,332.85-490.09,332.79
		C-490.09,332.79-490.09,332.79-490.09,332.79"/>
	<path id="Path_97" class="st0" d="M-496.09,350.8c-2.19,0-3.97,1.78-3.97,3.97c0,0,0,0,0,0.01c0,2.19,1.78,3.97,3.97,3.97
		c0,0,0,0,0,0c2.19,0,3.98-1.78,3.98-3.97c0,0,0,0,0,0C-492.12,352.58-493.89,350.8-496.09,350.8
		C-496.09,350.8-496.09,350.8-496.09,350.8"/>
	<path id="Path_98" class="st0" d="M-436.18,342.96c-1.97-0.97-4.36-0.17-5.33,1.81c0,0,0,0,0,0l-10.4,21.09l-10.43-21.09
		c-0.98-1.97-3.36-2.78-5.33-1.8c-1.97,0.97-2.78,3.36-1.81,5.33c0,0,0,0,0,0l13.13,26.55l-5.58,11.3
		c-0.97,1.97-0.16,4.36,1.81,5.33c0.55,0.27,1.14,0.41,1.75,0.41c1.52,0,2.9-0.86,3.57-2.22l20.42-41.38
		C-433.41,346.32-434.22,343.93-436.18,342.96C-436.19,342.96-436.19,342.96-436.18,342.96"/>
	<path id="Path_99" class="st0" d="M-415.86,342.77c-9.97,0.04-17.5,8.26-17.5,19.13v14.93c0,2.2,1.78,3.98,3.98,3.98
		c2.2,0,3.98-1.78,3.98-3.98v-14.93c0-6.56,3.94-11.15,9.53-11.17c5.63,0.02,9.56,4.62,9.56,11.17v14.93c0,2.2,1.78,3.98,3.98,3.98
		c2.2,0,3.98-1.78,3.98-3.98v-14.93C-398.33,351.04-405.86,342.81-415.86,342.77"/>
	<path id="Path_100" class="st0" d="M-324.98,369.34v0.11c0,7.08-5.22,11.47-13.61,11.47c-5.01,0-9.9-1.56-13.99-4.47
		c-0.95-0.7-1.5-1.81-1.49-2.99c-0.01-2.02,1.62-3.66,3.63-3.66c0.03,0,0.06,0,0.09,0c0.81-0.01,1.61,0.24,2.27,0.72
		c2.76,2.16,6.15,3.36,9.65,3.39c3.46,0,5.53-1.37,5.53-3.66v-0.11c0-2.3-1.64-3.35-7.64-4.88c-6.97-1.78-12.31-3.74-12.31-11.32
		v-0.11c0-6.57,5.33-11.15,12.97-11.15c4.17-0.06,8.27,1.08,11.8,3.29c1.1,0.67,1.76,1.86,1.75,3.15c0.01,2.02-1.62,3.66-3.64,3.67
		c-0.03,0-0.05,0-0.08,0c-0.71,0-1.41-0.2-2.02-0.57c-2.37-1.54-5.11-2.41-7.93-2.53c-3.01,0-4.94,1.33-4.94,3.4v0.11
		c0,2.59,1.74,3.4,8.17,5.05C-329.69,360.08-324.98,362.67-324.98,369.34"/>
	<path id="Path_101" class="st0" d="M-365.42,397.31c0-0.7-0.56-1.26-1.26-1.26c-0.7,0-1.27,0.56-1.27,1.26c0,0,0,0,0,0v11.36h-4.86
		c-1.19,0-4.81,0-4.81-5.51v-5.84c0-0.7-0.57-1.26-1.26-1.26c-0.7,0-1.26,0.56-1.26,1.26v0v5.84c0,5.11,2.68,8.04,7.34,8.04h6.15
		c0.69-0.01,1.25-0.57,1.24-1.26c0,0,0,0,0,0v-0.08c0-0.05,0-0.1,0-0.15L-365.42,397.31z"/>
	<path id="Path_102" class="st0" d="M-360.79,405.85v-14.4c0-0.69-0.56-1.25-1.25-1.25c-0.69,0-1.26,0.56-1.27,1.25v14.4
		c0,0.7,0.57,1.27,1.27,1.27C-361.34,407.12-360.78,406.55-360.79,405.85"/>
	<path id="Path_103" class="st0" d="M-372.33,392.59c0.33,0,0.65-0.13,0.89-0.36c0.23-0.24,0.36-0.56,0.37-0.89
		c0-0.34-0.13-0.66-0.37-0.9c-0.24-0.23-0.56-0.36-0.89-0.37c-0.34,0-0.66,0.13-0.9,0.37c-0.24,0.24-0.37,0.56-0.37,0.9
		c0,0.33,0.13,0.66,0.37,0.89C-372.99,392.46-372.66,392.59-372.33,392.59"/>
	<path id="Path_104" class="st0" d="M-387.11,396.04c-0.7,0-1.26,0.56-1.27,1.26v7.26h-4.53c-1.19,0-4.82,0-4.82-5.51v-7.63
		c0-0.69-0.56-1.26-1.25-1.26c-0.7,0-1.27,0.57-1.27,1.26v7.62c0,5.11,2.68,8.04,7.34,8.04h5.48c0.04,0,0.08,0,0.13-0.01h0.03h0.04
		c0.04,0.01,0.08,0.01,0.13,0.01c0.69,0,1.25-0.56,1.25-1.25c0,0,0,0,0-0.01v-8.53c0-0.69-0.55-1.26-1.24-1.26
		C-387.1,396.04-387.1,396.04-387.11,396.04"/>
	<path id="Path_105" class="st0" d="M-387.19,392.6c0.34,0,0.66-0.13,0.9-0.37c0.23-0.24,0.37-0.56,0.37-0.89
		c0-0.34-0.14-0.66-0.38-0.9c-0.24-0.23-0.56-0.37-0.89-0.37c-0.34,0-0.66,0.14-0.89,0.38c-0.24,0.24-0.37,0.56-0.37,0.89
		c0,0.34,0.14,0.66,0.38,0.9C-387.85,392.47-387.53,392.6-387.19,392.6"/>
	<path id="Path_106" class="st0" d="M-404.13,396.03c-0.7,0-1.26,0.56-1.26,1.26c0,0,0,0,0,0v4.27c0,0.13-0.03,3.02-2.28,3.02h-3.84
		l0.15-0.35c0.36-0.84,0.56-1.75,0.56-2.67v-4.27c0-0.7-0.56-1.26-1.26-1.26c-0.7,0-1.26,0.56-1.27,1.26v4.27
		c0,0.13-0.03,3.02-2.28,3.02h-3.08v-7.3c0-0.69-0.57-1.25-1.26-1.25c-0.69,0-1.26,0.56-1.26,1.25v11.36h-4.75
		c-1.19,0-4.81,0-4.81-5.51v-5.84c0-0.69-0.57-1.25-1.26-1.25c-0.69,0-1.26,0.56-1.26,1.25v5.84c0,5.11,2.68,8.04,7.34,8.04h5.85
		c0.03,0,0.06,0,0.08,0c0.03,0,0.05,0,0.08,0h0.01c0.7,0,1.26-0.57,1.26-1.26v-2.79h11.21c0.05,0,0.1,0,0.16-0.01
		c3.27-0.22,4.46-3.43,4.46-5.53v-4.27C-402.87,396.59-403.44,396.03-404.13,396.03"/>
	<path id="Path_107" class="st0" d="M-349.28,409.25c-0.33,0-0.66,0.14-0.89,0.38c-0.24,0.24-0.38,0.56-0.38,0.89
		c0,0.34,0.14,0.66,0.38,0.9c0.24,0.24,0.56,0.37,0.89,0.37c0.34,0,0.66-0.14,0.89-0.38c0.23-0.24,0.37-0.56,0.37-0.89
		c0-0.34-0.13-0.66-0.37-0.89C-348.63,409.38-348.95,409.25-349.28,409.25"/>
	<path id="Path_108" class="st0" d="M-352.99,409.25c-0.34,0-0.66,0.14-0.89,0.38c-0.24,0.24-0.37,0.56-0.38,0.89
		c0.01,0.34,0.14,0.66,0.38,0.9c0.24,0.23,0.56,0.37,0.89,0.37c0.34,0,0.66-0.14,0.89-0.38c0.24-0.24,0.37-0.56,0.38-0.89
		c0-0.34-0.14-0.66-0.38-0.89C-352.33,409.38-352.65,409.24-352.99,409.25"/>
	<path id="Path_109" class="st0" d="M-332.86,393.87c-2.7-0.16-5.37,0.71-7.45,2.44l-0.1,0.09c-0.17,0.15-0.35,0.31-0.53,0.48
		l-0.42,0.38v-5.8c0-0.69-0.57-1.25-1.26-1.25c-0.69,0-1.26,0.56-1.26,1.25v10.22c0,0.03,0.01,0.05,0.01,0.07
		c0,0.03,0,0.06-0.01,0.08c0,0.34,0.14,0.67,0.38,0.91c0.24,0.24,0.55,0.37,0.89,0.38c0.34-0.01,0.66-0.14,0.9-0.38
		c0.14-0.15,0.24-0.33,0.3-0.53l0.08-0.27l0,0c0.09-0.34,0.23-0.67,0.4-0.98c0.3-0.54,0.66-1.04,1.05-1.51
		c0.35-0.4,0.74-0.78,1.15-1.12l0.1-0.09c1.59-1.3,3.62-1.95,5.67-1.81c3.68,0.13,4.42,1.63,4.42,3.99v4.17h-20.9l0.15-0.35
		c0.36-0.84,0.55-1.75,0.56-2.67v-4.33c0-0.7-0.57-1.26-1.26-1.26c0,0,0,0,0,0c-0.7,0-1.26,0.56-1.26,1.26v4.32
		c0,0.13-0.03,3.02-2.28,3.02h-2.58v-7.34c0-0.7-0.56-1.26-1.26-1.26c-0.7,0-1.26,0.56-1.26,1.26v8.73
		c-0.09,1.84-1.19,3.47-2.86,4.24c-0.65,0.25-0.98,0.97-0.74,1.63c0.26,0.65,0.98,0.97,1.64,0.73c2.21-0.95,3.83-2.91,4.34-5.26
		l0.04-0.2h28.95c0.7,0,1.26-0.57,1.26-1.27v-5.43C-325.98,396.24-328.3,394.04-332.86,393.87"/>
</g>
</svg>
