<?xml version="1.0" encoding="utf-8"?>
<!-- Generator: Adobe Illustrator 25.4.1, SVG Export Plug-In . SVG Version: 6.00 Build 0)  -->
<svg version="1.1" id="Layer_2_00000159471598350358213750000014612203606435250611_"
	 xmlns="http://www.w3.org/2000/svg" xmlns:xlink="http://www.w3.org/1999/xlink" x="0px" y="0px" viewBox="0 0 113.5 80"
	 style="enable-background:new 0 0 113.5 80;" xml:space="preserve">
<style type="text/css">
	.st0{fill:url(#path3665_00000100340544143349059730000003537543127904214400_);}
	.st1{fill:url(#path3693_00000096742744275402588380000002415152973083722888_);}
	.st2{fill:url(#path3721_00000145756047707154048680000008608641733603055758_);}
	.st3{fill:url(#path3749_00000055675274843800696910000014270835588084005558_);}
	.st4{fill:url(#path3781_00000122703166253481765170000011410351326401182350_);}
</style>
<g id="g3639">
	<g id="g3641">
		<g id="g3647">
			<g id="g3649">
				
					<linearGradient id="path3665_00000054258958926831609280000016242414262000389044_" gradientUnits="userSpaceOnUse" x1="-1707.7527" y1="590.845" x2="-1706.7535" y2="590.845" gradientTransform="matrix(115.2299 -96.6894 96.6894 115.2299 139653.9219 -233117.7344)">
					<stop  offset="0" style="stop-color:#DFDDDE"/>
					<stop  offset="0.3711" style="stop-color:#DFDDDE"/>
					<stop  offset="0.4289" style="stop-color:#868789"/>
					<stop  offset="0.4375" style="stop-color:#868789"/>
					<stop  offset="0.4648" style="stop-color:#868789"/>
					<stop  offset="1" style="stop-color:#868789"/>
				</linearGradient>
				<path id="path3665" style="fill:url(#path3665_00000054258958926831609280000016242414262000389044_);" d="M0,0l26.4,61.6
					c3.1,8,11.7,18.3,26.7,18.3l0,0c12.3,0,51.8,0,51.8,0l0,0c4.7,0,8.6-3.8,8.6-8.6l0,0c0-2.4-1-4.7-2.7-6.2l0,0L64.1,21.9
					C42,1.3,35.5,0,27,0l0,0C17.9,0,0.2,0,0,0L0,0L0,0L0,0z"/>
			</g>
		</g>
	</g>
</g>
<g id="g3667">
	<g id="g3669">
		<g id="g3675">
			<g id="g3677">
				
					<linearGradient id="path3693_00000158001755558936480520000003730803783945685413_" gradientUnits="userSpaceOnUse" x1="-1707.1495" y1="591.7758" x2="-1706.1505" y2="591.7758" gradientTransform="matrix(105.5759 -88.5889 88.5889 105.5759 127799.3594 -213650.5)">
					<stop  offset="0" style="stop-color:#F0A58A"/>
					<stop  offset="0.3359" style="stop-color:#F0A58A"/>
					<stop  offset="0.3403" style="stop-color:#F0A58A"/>
					<stop  offset="0.3984" style="stop-color:#DD1F26"/>
					<stop  offset="0.4258" style="stop-color:#DD1F26"/>
					<stop  offset="1" style="stop-color:#DD1F26"/>
				</linearGradient>
				<path id="path3693" style="fill:url(#path3693_00000158001755558936480520000003730803783945685413_);" d="M15.4,16.7
					c0,1.4,0.2,2.7,0.7,3.9l0,0l0.8,2.2l46.9,5.6l0,0l-3-2.8C38.9,5.3,33.6,5,27,5l0,0C20.6,5,15.4,10.2,15.4,16.7"/>
			</g>
		</g>
	</g>
</g>
<g id="g3695">
	<g id="g3697">
		<g id="g3703">
			<g id="g3705">
				
					<linearGradient id="path3721_00000154403791780748673120000003294188751769846964_" gradientUnits="userSpaceOnUse" x1="-1707.1582" y1="591.6611" x2="-1706.1591" y2="591.6611" gradientTransform="matrix(105.7022 -88.6949 88.6948 105.7022 127971.875 -213884.625)">
					<stop  offset="0" style="stop-color:#8EC1A0"/>
					<stop  offset="0.3359" style="stop-color:#8EC1A0"/>
					<stop  offset="0.3852" style="stop-color:#058A44"/>
					<stop  offset="0.3984" style="stop-color:#058A44"/>
					<stop  offset="0.4258" style="stop-color:#058A44"/>
					<stop  offset="1" style="stop-color:#058A44"/>
				</linearGradient>
				<path id="path3721" style="fill:url(#path3721_00000154403791780748673120000003294188751769846964_);" d="M17.7,25l13.4,34.8
					c1.1,2.9,3.1,6,5.9,8.7l0,0c5.1-5.1,12.2-11.1,20.4-17.7l0,0L26.5,35.2c-1.7-0.9,0.4-2.9,4.4-1.6l0,0l36.2,9.9
					c2.5-1.8,5-3.5,7.3-5.1l0,0L17.7,25L17.7,25L17.7,25z"/>
			</g>
		</g>
	</g>
</g>
<g id="g3723">
	<g id="g3725">
		<g id="g3731">
			<g id="g3733">
				
					<linearGradient id="path3749_00000017483044493684351000000011775565661365837191_" gradientUnits="userSpaceOnUse" x1="-1707.162" y1="591.8058" x2="-1706.163" y2="591.8058" gradientTransform="matrix(105.7592 -88.7426 88.7426 105.7592 128060.3438 -213977.3281)">
					<stop  offset="0" style="stop-color:#8B93BF"/>
					<stop  offset="0.3359" style="stop-color:#8B93BF"/>
					<stop  offset="0.3381" style="stop-color:#8B93BF"/>
					<stop  offset="0.3984" style="stop-color:#20407E"/>
					<stop  offset="0.4258" style="stop-color:#20407E"/>
					<stop  offset="1" style="stop-color:#20407E"/>
				</linearGradient>
				<path id="path3749" style="fill:url(#path3749_00000017483044493684351000000011775565661365837191_);" d="M67.7,56.4
					C58,62.7,49,68,41.4,71.9l0,0c3.3,1.8,7,3.1,11.6,3.2l0,0c12.3,0,51.8,0,51.8,0l0,0c2,0,3.6-1.6,3.6-3.6l0,0c0-1-0.4-2-1.2-2.6
					l0,0L82.8,46C78.2,49.4,73.1,52.9,67.7,56.4 M96,70.4L71.9,58.2c0,0,6.3-4.9,8.9-6.9l0,0l19.9,17.6c1.2,1.1,0,2.2-1.9,2.2l0,0
					C97.9,71.1,97,70.9,96,70.4"/>
			</g>
		</g>
	</g>
</g>
<g id="g3751">
	<g id="g3753">
		<g id="g3759">
			<g id="g3761">
				
					<linearGradient id="path3781_00000075884666464756782150000010603490339586883498_" gradientUnits="userSpaceOnUse" x1="-1707.1539" y1="591.7477" x2="-1706.1548" y2="591.7477" gradientTransform="matrix(105.6391 -88.6418 88.6418 105.6391 127904.5547 -213744.9375)">
					<stop  offset="0" style="stop-color:#DFDDDE"/>
					<stop  offset="0.2773" style="stop-color:#DFDDDE"/>
					<stop  offset="0.2777" style="stop-color:#DFDDDE"/>
					<stop  offset="0.3398" style="stop-color:#EED0AB"/>
					<stop  offset="0.4009" style="stop-color:#CB8229"/>
					<stop  offset="0.4023" style="stop-color:#CB8229"/>
					<stop  offset="0.4297" style="stop-color:#CB8229"/>
					<stop  offset="1" style="stop-color:#CB8229"/>
				</linearGradient>
				<path id="path3781" style="fill:url(#path3781_00000075884666464756782150000010603490339586883498_);" d="M26.5,35.2l30.9,15.7
					C49.2,57.4,42.1,63.5,37,68.6l0,0c1.3,1.3,2.8,2.4,4.4,3.3l0,0C48.9,68,58,62.7,67.7,56.4l0,0c5.4-3.5,10.5-7,15.1-10.4l0,0
					l-8.4-7.7c-2.4,1.7-4.9,3.3-7.3,5.1l0,0l-36.2-9.9c-0.9-0.3-1.7-0.4-2.4-0.4l0,0C26.2,33.2,25.2,34.6,26.5,35.2 M71.9,58.2
					L96,70.4c3.1,1.6,6.3,0,4.6-1.5l0,0L80.7,51.3C78.2,53.3,71.9,58.2,71.9,58.2"/>
			</g>
		</g>
	</g>
</g>
</svg>
