<?xml version="1.0" encoding="utf-8"?>
<!-- Generator: Adobe Illustrator 25.4.1, SVG Export Plug-In . SVG Version: 6.00 Build 0)  -->
<svg version="1.1" id="Layer_2_00000159471598350358213750000014612203606435250611_"
	 xmlns="http://www.w3.org/2000/svg" xmlns:xlink="http://www.w3.org/1999/xlink" x="0px" y="0px" viewBox="0 0 186.4 80"
	 style="enable-background:new 0 0 186.4 80;" xml:space="preserve">
<style type="text/css">
	.st0{fill:url(#path3665_00000054977915763946173710000000342064253209247919_);}
	.st1{fill:url(#path3693_00000044874404928974170760000014867249715575803804_);}
	.st2{fill:url(#path3721_00000003087531577833889270000017113130393386642874_);}
	.st3{fill:url(#path3749_00000088846995493884092000000004456955311323195312_);}
	.st4{fill:url(#path3781_00000164515153349676504450000008090518691533297822_);}
	.st5{fill-rule:evenodd;clip-rule:evenodd;fill:#20407E;}
</style>
<g>
	<g id="g3639">
		<g id="g3641">
			<g id="g3647">
				<g id="g3649">
					
						<linearGradient id="path3665_00000073694513182759227930000002235162352868825474_" gradientUnits="userSpaceOnUse" x1="-1707.5992" y1="590.67" x2="-1707.0027" y2="590.67" gradientTransform="matrix(115.2299 -96.6894 96.6894 115.2299 139653.9219 -233117.7344)">
						<stop  offset="0" style="stop-color:#DFDDDE"/>
						<stop  offset="0.3711" style="stop-color:#DFDDDE"/>
						<stop  offset="0.4289" style="stop-color:#868789"/>
						<stop  offset="0.4375" style="stop-color:#868789"/>
						<stop  offset="0.4648" style="stop-color:#868789"/>
						<stop  offset="1" style="stop-color:#868789"/>
					</linearGradient>
					<path id="path3665" style="fill:url(#path3665_00000073694513182759227930000002235162352868825474_);" d="M0,0l15.8,36.8
						c1.8,4.8,7,10.9,15.9,11l0,0c7.3,0,30.9,0,30.9,0l0,0c2.8,0,5.1-2.3,5.1-5.1l0,0c0-1.5-0.6-2.8-1.6-3.7l0,0L38.3,13.1
						C25.1,0.8,21.2,0,16.1,0l0,0C10.7,0,0.1,0,0,0L0,0L0,0L0,0z"/>
				</g>
			</g>
		</g>
	</g>
	<g id="g3667">
		<g id="g3669">
			<g id="g3675">
				<g id="g3677">
					
						<linearGradient id="path3693_00000088836391031822316710000012199334484267174035_" gradientUnits="userSpaceOnUse" x1="-1707.0127" y1="591.6572" x2="-1706.4161" y2="591.6572" gradientTransform="matrix(105.5759 -88.5889 88.5889 105.5759 127799.3594 -213650.5)">
						<stop  offset="0" style="stop-color:#F0A58A"/>
						<stop  offset="0.3359" style="stop-color:#F0A58A"/>
						<stop  offset="0.3403" style="stop-color:#F0A58A"/>
						<stop  offset="0.3984" style="stop-color:#DD1F26"/>
						<stop  offset="0.4258" style="stop-color:#DD1F26"/>
						<stop  offset="1" style="stop-color:#DD1F26"/>
					</linearGradient>
					<path id="path3693" style="fill:url(#path3693_00000088836391031822316710000012199334484267174035_);" d="M9.2,10
						c0,0.8,0.1,1.6,0.4,2.3l0,0l0.5,1.3l28,3.3l0,0l-1.8-1.7C23.3,3.2,20,3,16.1,3l0,0C12.3,3,9.2,6.1,9.2,10"/>
				</g>
			</g>
		</g>
	</g>
	<g id="g3695">
		<g id="g3697">
			<g id="g3703">
				<g id="g3705">
					
						<linearGradient id="path3721_00000028302592572495513040000001173722976486885564_" gradientUnits="userSpaceOnUse" x1="-1707.0212" y1="591.5038" x2="-1706.4247" y2="591.5038" gradientTransform="matrix(105.7022 -88.6949 88.6948 105.7022 127971.875 -213884.625)">
						<stop  offset="0" style="stop-color:#8EC1A0"/>
						<stop  offset="0.3359" style="stop-color:#8EC1A0"/>
						<stop  offset="0.3852" style="stop-color:#058A44"/>
						<stop  offset="0.3984" style="stop-color:#058A44"/>
						<stop  offset="0.4258" style="stop-color:#058A44"/>
						<stop  offset="1" style="stop-color:#058A44"/>
					</linearGradient>
					<path id="path3721" style="fill:url(#path3721_00000028302592572495513040000001173722976486885564_);" d="M10.6,14.9l8,20.8
						c0.7,1.7,1.9,3.6,3.5,5.2l0,0c3.1-3,7.3-6.7,12.2-10.6l0,0L15.8,21c-1-0.5,0.3-1.7,2.6-1l0,0L40.1,26c1.5-1.1,3-2.1,4.4-3.1
						l0,0L10.6,14.9L10.6,14.9L10.6,14.9z"/>
				</g>
			</g>
		</g>
	</g>
	<g id="g3723">
		<g id="g3725">
			<g id="g3731">
				<g id="g3733">
					
						<linearGradient id="path3749_00000091700054666380893820000009587292696257170078_" gradientUnits="userSpaceOnUse" x1="-1707.0249" y1="591.5032" x2="-1706.4283" y2="591.5032" gradientTransform="matrix(105.7592 -88.7426 88.7426 105.7592 128060.3438 -213977.3281)">
						<stop  offset="0" style="stop-color:#8B93BF"/>
						<stop  offset="0.3359" style="stop-color:#8B93BF"/>
						<stop  offset="0.3381" style="stop-color:#8B93BF"/>
						<stop  offset="0.3984" style="stop-color:#20407E"/>
						<stop  offset="0.4258" style="stop-color:#20407E"/>
						<stop  offset="1" style="stop-color:#20407E"/>
					</linearGradient>
					<path id="path3749" style="fill:url(#path3749_00000091700054666380893820000009587292696257170078_);" d="M40.4,33.7
						c-5.8,3.8-11.2,6.9-15.7,9.2l0,0c2,1.1,4.2,1.9,6.9,1.9l0,0c7.3,0,30.9,0,30.9,0l0,0c1.2,0,2.1-1,2.1-2.1l0,0
						c0-0.6-0.3-1.2-0.7-1.6l0,0L49.5,27.5C46.7,29.5,43.7,31.6,40.4,33.7 M57.3,42l-14.4-7.3c0,0,3.7-2.9,5.3-4.1l0,0l11.9,10.5
						c0.7,0.6,0,1.3-1.2,1.3l0,0C58.4,42.4,57.9,42.3,57.3,42"/>
				</g>
			</g>
		</g>
	</g>
	<g id="g3751">
		<g id="g3753">
			<g id="g3759">
				<g id="g3761">
					
						<linearGradient id="path3781_00000039824522884224530390000003342590747719049125_" gradientUnits="userSpaceOnUse" x1="-1707.017" y1="591.5118" x2="-1706.4204" y2="591.5118" gradientTransform="matrix(105.6391 -88.6418 88.6418 105.6391 127904.5547 -213744.9375)">
						<stop  offset="0" style="stop-color:#DFDDDE"/>
						<stop  offset="0.2773" style="stop-color:#DFDDDE"/>
						<stop  offset="0.2777" style="stop-color:#DFDDDE"/>
						<stop  offset="0.3398" style="stop-color:#EED0AB"/>
						<stop  offset="0.4009" style="stop-color:#CB8229"/>
						<stop  offset="0.4023" style="stop-color:#CB8229"/>
						<stop  offset="0.4297" style="stop-color:#CB8229"/>
						<stop  offset="1" style="stop-color:#CB8229"/>
					</linearGradient>
					<path id="path3781" style="fill:url(#path3781_00000039824522884224530390000003342590747719049125_);" d="M15.8,21l18.5,9.3
						c-4.9,3.9-9.1,7.5-12.2,10.5l0,0c0.8,0.7,1.7,1.4,2.6,2l0,0c4.5-2.3,9.9-5.5,15.7-9.2l0,0c3.2-2.1,6.3-4.2,9-6.2l0,0l-5-4.6
						c-1.4,1-2.9,2-4.4,3.1l0,0l-21.6-5.9c-0.5-0.2-1-0.2-1.5-0.2l0,0C15.6,19.8,15,20.6,15.8,21 M42.9,34.7L57.3,42
						c1.9,1,3.8,0,2.7-0.9l0,0L48.2,30.6C46.7,31.8,42.9,34.7,42.9,34.7"/>
				</g>
			</g>
		</g>
	</g>
	<g id="g3791" transform="translate(191.6006,364.6836)">
		<path id="path3793" class="st5" d="M-183.7-290.9c-0.8-0.2-1.1-0.5-1.1-1.5c0-1.2,0.5-1.3,1.3-1.2c0.7,0.1,3.4,0.6,6.6,0.6
			c3.4,0,4.1-0.6,4.1-1.8c0-1.5-0.4-1.8-4-2c-5.7-0.3-8.1-0.7-8.1-4.9c0-4.6,3.4-4.8,7.8-4.8c3.1,0,5.4,0.4,6,0.5
			c0.9,0.1,1,0.4,1,1.4c0,1.2-0.4,1.2-1.2,1.1c-0.6-0.1-3.1-0.5-5.4-0.5c-3.6,0-4.4,0.2-4.4,1.6c0,1.4,0.5,1.6,3.5,1.7
			c6.1,0.3,8.4,0.5,8.4,5.1c0,4.7-4.3,5.1-8,5.1C-180.8-290.3-183.2-290.7-183.7-290.9 M-108.5-295.9l-4.7,4.5l-0.3,0.3l-0.3,0.2
			c-0.2,0.1-0.4,0.5-1.8,0.5c-3,0-3.6-0.6-2.3-1.8l6.1-5.6c0.3-0.3,0.4-0.4,0.4-0.7c0-0.3-0.1-0.4-0.4-0.7l-6.1-5.6
			c-1.3-1.2-0.7-1.8,2.3-1.8c1.4,0,1.6,0.3,1.8,0.5l0.3,0.2l0.3,0.3l4.7,4.6c0.3,0.3,0.7,0.5,1.2,0.5c0.5,0,1-0.2,1.3-0.6l4-4.4
			c0.5-0.5,1-0.8,1.6-1c0.3-0.1,0.6-0.1,1-0.1c1.8,0,2.1,0.7,1.4,1.4l-5.9,6c-0.3,0.3-0.4,0.4-0.4,0.6c0,0.2,0.1,0.3,0.4,0.6l6.4,6
			c0.7,0.8,0.4,1.4-1.4,1.4c-0.4,0-0.8,0-1-0.1c-0.6-0.1-1-0.4-1.6-1l-4.4-4.4c-0.3-0.4-0.8-0.7-1.3-0.7
			C-107.8-296.4-108.2-296.2-108.5-295.9 M-166-295.4c0-4.2,3.5-4.4,7.9-4.4h4.7c0.2,0,0.5-0.1,0.5-0.7v-0.6c0-2.2-0.8-2.7-4.1-2.7
			c-2.9,0-5.6,0.4-6.1,0.5c-0.8,0.1-1.3,0.1-1.3-1.2c0-1,0.2-1.3,1.1-1.4c0.5-0.1,3.4-0.5,6.8-0.5c2,0,4.2,0.2,5.7,0.9
			c1.6,0.8,1.9,2.3,1.9,3.9v8.2c0,1.2-0.2,1.9-2.4,2.4c-1.9,0.4-4.5,0.6-6.6,0.6C-164.8-290.3-166-291.8-166-295.4 M-153.5-293.1
			c0.2,0,0.3-0.1,0.4-0.2c0.1-0.1,0.2-0.3,0.2-0.7v-2.9c0-0.5-0.2-0.6-0.5-0.6h-4.6c-2.9,0-3.9,0.3-3.9,2.1c0,2.2,0.7,2.7,4.3,2.7
			C-155.8-292.6-153.9-292.9-153.5-293.1 M-125.3-299.6c0.3,0,0.6-0.1,0.6-0.5c0-3.1-1.1-3.9-4.7-3.9c-3.7,0-4.7,0.8-4.7,3.9
			c0,0.4,0.2,0.5,0.5,0.5C-133.7-299.6-125.3-299.6-125.3-299.6z M-138.4-298.4c0-5.1,1.4-8,8.9-8c6.1,0,8.8,2.1,8.8,7.1
			c0,1.3-0.2,2.1-2.3,2.1h-10.8c-0.3,0-0.5,0-0.5,0.6c0,3.4,2.8,3.6,6.2,3.6c2,0,4.7-0.4,4.9-0.4c0.8-0.1,1.3-0.1,1.3,1.1
			c0,1-0.2,1.3-1.1,1.4c-0.2,0-2.5,0.5-5.4,0.5C-136-290.4-138.4-292.4-138.4-298.4 M-95-286.5v-17c0-1.2,0.2-1.9,2.1-2.3
			c1.4-0.3,3.8-0.6,6.4-0.6c7.3,0,9,2.5,9,8c0,5.5-1.6,8-8.8,8c-1.6,0-3.1-0.1-4.2-0.3c-0.3,0-0.5,0-0.5,0.5v3.6
			c0,1.3-0.2,1.8-1.9,1.8C-94.8-284.7-95-285.2-95-286.5 M-81.6-298.4c0-4.9-1.3-5.6-5-5.6c-1.9,0-3.7,0.3-4.1,0.3
			c-0.4,0.2-0.5,0.3-0.5,0.5v9.5c0,0.3,0.1,0.4,0.1,0.5c0.1,0.1,0.2,0.1,0.3,0.1c0.4,0.1,2.2,0.3,4.1,0.3
			C-82.9-292.7-81.6-293.5-81.6-298.4 M-71.1-290.6c-1.7,0-1.9-0.5-1.9-1.8v-10.7c0-1.2,0.2-2,2.4-2.4c1.9-0.4,4.9-0.8,7.3-0.8
			c0.9,0,1.2,0.3,1.2,1.3c0,0.9-0.1,1.4-1.1,1.4h-0.3c-1.2,0-3.2,0.1-5.1,0.5c-0.1,0-0.2,0.1-0.3,0.2c-0.1,0.1-0.2,0.2-0.2,0.5v10.1
			c0,1.2-0.2,1.8-1.9,1.8H-71.1L-71.1-290.6z M-38.6-290.9c-0.8-0.2-1.1-0.5-1.1-1.5c0-1.2,0.5-1.3,1.3-1.2c0.7,0.1,3.4,0.6,6.6,0.6
			c3.4,0,4.1-0.6,4.1-1.8c0-1.5-0.4-1.8-4-2c-5.7-0.3-8.1-0.7-8.1-4.9c0-4.6,3.4-4.8,7.8-4.8c3.1,0,5.4,0.4,6,0.5
			c0.9,0.1,1,0.4,1,1.4c0,1.2-0.4,1.2-1.2,1.1c-0.6-0.1-3.1-0.5-5.4-0.5c-3.6,0-4.4,0.2-4.4,1.6c0,1.4,0.5,1.6,3.5,1.7
			c6.1,0.3,8.4,0.5,8.4,5.1c0,4.7-4.3,5.1-8,5.1C-35.7-290.3-38.1-290.7-38.6-290.9 M-47.7-299.6c0.3,0,0.6-0.1,0.6-0.5
			c0-3.1-1.1-3.9-4.7-3.9c-3.7,0-4.7,0.8-4.7,3.9c0,0.4,0.2,0.5,0.5,0.5H-47.7L-47.7-299.6z M-60.8-298.4c0-5.1,1.4-8,8.9-8
			c6.1,0,8.8,2.1,8.8,7.1c0,1.3-0.2,2.1-2.3,2.1h-10.8c-0.3,0-0.5,0-0.5,0.6c0,3.4,2.8,3.6,6.2,3.6c2,0,4.7-0.4,4.9-0.4
			c0.8-0.1,1.3-0.1,1.3,1.1c0,1-0.2,1.3-1,1.4c-0.2,0-2.5,0.5-5.4,0.5C-58.4-290.4-60.8-292.4-60.8-298.4 M-19.8-290.9
			c-0.8-0.2-1.1-0.5-1.1-1.5c0-1.2,0.5-1.3,1.3-1.2c0.7,0.1,3.4,0.6,6.6,0.6c3.4,0,4.1-0.6,4.1-1.8c0-1.5-0.4-1.8-4-2
			c-5.7-0.3-8.1-0.7-8.1-4.9c0-4.6,3.4-4.8,7.8-4.8c3.1,0,5.4,0.4,6,0.5c0.9,0.1,1,0.4,1,1.4c0,1.2-0.4,1.2-1.2,1.1
			c-0.6-0.1-3.1-0.5-5.4-0.5c-3.6,0-4.4,0.2-4.4,1.6c0,1.4,0.5,1.6,3.5,1.7c6.1,0.3,8.4,0.5,8.4,5.1c0,4.7-4.3,5.1-8,5.1
			C-16.8-290.3-19.2-290.7-19.8-290.9"/>
	</g>
</g>
</svg>
