<svg width="80" height="80" viewBox="0 0 80 80" fill="none" xmlns="http://www.w3.org/2000/svg">
<path d="M0 45.7895H11.125V34.2106H0V45.7895Z" fill="#EFEEEF"/>
<path d="M11.125 45.7895H22.7798V34.2106H11.125V45.7895Z" fill="#911083"/>
<path d="M22.7734 34.2105H34.4282V23.1578H22.7734V34.2105Z" fill="#74A5CD"/>
<path d="M22.7734 45.7895H34.4282V34.2106H22.7734V45.7895Z" fill="#DA96C8"/>
<path d="M22.7734 56.8421H34.4282V45.7894H22.7734V56.8421Z" fill="#911083"/>
<path d="M34.4375 11.5789H45.5626V0H34.4375V11.5789Z" fill="#EFEEEF"/>
<path d="M34.4375 23.1579H45.5626V11.579H34.4375V23.1579Z" fill="#74A5CD"/>
<path d="M34.4375 34.2105H45.5626V23.1578H34.4375V34.2105Z" fill="#BAD5E8"/>
<path d="M34.4375 45.7895H45.5626V34.2106H34.4375V45.7895Z" fill="white"/>
<path d="M34.4375 56.8421H45.5626V45.7894H34.4375V56.8421Z" fill="#DA96C8"/>
<path d="M34.4375 68.421H45.5626V56.842H34.4375V68.421Z" fill="#911083"/>
<path d="M34.4375 80H45.5626V68.421H34.4375V80Z" fill="#EFEEEF"/>
<path d="M45.5586 34.2105H57.2135V23.1578H45.5586V34.2105Z" fill="#74A5CD"/>
<path d="M45.5586 45.7895H57.2135V34.2106H45.5586V45.7895Z" fill="#D6EE89"/>
<path d="M45.5586 56.8421H57.2135V45.7894H45.5586V56.8421Z" fill="#7FC31B"/>
<path d="M57.2109 45.7895H68.336V34.2106H57.2109V45.7895Z" fill="#7FC31B"/>
<path d="M68.3438 45.7895H79.9986V34.2106H68.3438V45.7895Z" fill="#EFEEEF"/>
</svg>
