<svg width="332" height="80" viewBox="0 0 332 80" fill="none" xmlns="http://www.w3.org/2000/svg">
<path fill-rule="evenodd" clip-rule="evenodd" d="M221.955 44.175C220.241 42.4985 217.65 41.2393 215.023 41.2393C213.204 41.2393 210.928 42.2839 210.928 44.3319C210.928 49.7895 229.565 45.5541 229.565 58.1697C229.565 66.9192 220.806 69.4596 213.217 69.4596C208.021 69.4596 202.746 68.2123 199.023 64.5336L205.425 58.1534C207.544 60.2329 210.458 61.6784 213.744 61.6784C216.223 61.6784 218.79 60.7776 218.79 58.9464C218.79 53.0193 200.165 57.783 200.165 45.0323C200.165 36.9833 207.602 33.4593 215.042 33.4593C219.711 33.4593 224.894 34.59 228.175 37.9724L221.955 44.175Z" fill="black"/>
<path fill-rule="evenodd" clip-rule="evenodd" d="M86.8984 68.6078H97.8459V15.2501H86.8984V68.6078Z" fill="black"/>
<path fill-rule="evenodd" clip-rule="evenodd" d="M123.767 42.7772C118.289 42.7772 115.017 46.3088 115.017 51.4625C115.017 56.6128 118.289 60.1401 123.767 60.1401C129.238 60.1401 132.524 56.6128 132.524 51.4625C132.524 46.3088 129.238 42.7772 123.767 42.7772ZM142.592 68.6086H132.524V64.0976H132.375C130.699 66.565 126.468 69.4593 121.505 69.4593C111.001 69.4593 104.07 62.1238 104.07 51.7468C104.07 42.2097 110.192 33.459 120.266 33.459C124.791 33.459 129.024 34.6584 131.494 37.9722H131.645V34.3044H142.592V68.6086Z" fill="black"/>
<path fill-rule="evenodd" clip-rule="evenodd" d="M151.199 34.304H162.153V39.8095H162.291C164.626 35.645 167.689 33.4598 172.504 33.4598C173.748 33.4598 175.138 33.5273 176.155 33.8106V43.486C174.621 43.0579 173.089 42.7769 171.485 42.7769C163.172 42.7769 162.153 47.4338 162.153 54.2835V68.6082H151.199V34.304Z" fill="black"/>
<path fill-rule="evenodd" clip-rule="evenodd" d="M193.025 34.3036V68.6078H182.082V34.3036H193.025ZM193.025 15.2501V25.967H182.082V15.2501H193.025Z" fill="black"/>
<path fill-rule="evenodd" clip-rule="evenodd" d="M61.1306 60.1405C66.601 60.1405 69.8811 56.6132 69.8811 51.4618C69.8811 46.3092 66.601 42.7776 61.1306 42.7776C55.659 42.7776 52.3734 46.3092 52.3734 51.4618C52.3734 56.6132 55.659 60.1405 61.1306 60.1405ZM61.1306 33.4594C72.0726 33.4594 80.8275 40.5238 80.8275 51.4618C80.8275 62.3998 72.0726 69.4597 61.1306 69.4597C50.1896 69.4597 41.4336 62.3998 41.4336 51.4618C41.4336 40.5238 50.1896 33.4594 61.1306 33.4594Z" fill="black"/>
<path fill-rule="evenodd" clip-rule="evenodd" d="M0 34.304H11.8274L20.7998 57.5994H20.943L29.2564 34.304H40.276L26.2703 68.6082H14.6714L0 34.304Z" fill="black"/>
<path d="M251.453 45.7895H262.553V34.2105H251.453V45.7895Z" fill="#EFEEEF"/>
<path d="M262.555 45.7895H274.183V34.2105H262.555V45.7895Z" fill="#911083"/>
<path d="M274.176 34.2105H285.804V23.1579H274.176V34.2105Z" fill="#74A5CD"/>
<path d="M274.176 45.7895H285.804V34.2105H274.176V45.7895Z" fill="#DA96C8"/>
<path d="M274.176 56.8421H285.804V45.7895H274.176V56.8421Z" fill="#911083"/>
<path d="M285.812 11.5789H296.913V0H285.812V11.5789Z" fill="#EFEEEF"/>
<path d="M285.812 23.1579H296.913V11.5789H285.812V23.1579Z" fill="#74A5CD"/>
<path d="M285.812 34.2105H296.913V23.1579H285.812V34.2105Z" fill="#BAD5E8"/>
<path d="M285.812 45.7895H296.913V34.2105H285.812V45.7895Z" fill="white"/>
<path d="M285.812 56.8421H296.913V45.7895H285.812V56.8421Z" fill="#DA96C8"/>
<path d="M285.812 68.4211H296.913V56.8421H285.812V68.4211Z" fill="#911083"/>
<path d="M285.812 80H296.913V68.421H285.812V80Z" fill="#EFEEEF"/>
<path d="M296.91 34.2105H308.539V23.1579H296.91V34.2105Z" fill="#74A5CD"/>
<path d="M296.91 45.7895H308.539V34.2105H296.91V45.7895Z" fill="#D6EE89"/>
<path d="M296.91 56.8421H308.539V45.7895H296.91V56.8421Z" fill="#7FC31B"/>
<path d="M308.535 45.7895H319.635V34.2105H308.535V45.7895Z" fill="#7FC31B"/>
<path d="M319.645 45.7895H331.273V34.2105H319.645V45.7895Z" fill="#EFEEEF"/>
</svg>
