<?xml version="1.0" encoding="utf-8"?>
<!-- Generator: Adobe Illustrator 25.4.1, SVG Export Plug-In . SVG Version: 6.00 Build 0)  -->
<svg version="1.1" id="Layer_1" xmlns="http://www.w3.org/2000/svg" xmlns:xlink="http://www.w3.org/1999/xlink" x="0px" y="0px"
	 viewBox="0 0 74.2 80" style="enable-background:new 0 0 74.2 80;" xml:space="preserve">
<style type="text/css">
	.st0{fill:#C2900A;}
	.st1{fill:#E52D27;}
	.st2{fill:#2B4E9C;}
	.st3{fill:#F9E115;}
	.st4{fill:#2B9E37;}
</style>
<g>
	<path class="st0" d="M47.5,18.9c-9.9-7.2-20.2-6.1-20.2-6.1c4.1,0.5,9,3.3,14,7.8c5,4.5,6.2,12.1,6.2,12.1
		c-2.9-5.6-9.6-12.5-19.4-13.6c-9.8-1.1-14.3,3-14.3,3c4.7-2.1,15.1-2.4,21.7,2.4c6.6,4.8,9.5,13.9,8.2,21.2
		c-1.3,7.3-8.5,12.1-15.6,12.1c-7.1,0-8.4-9.2-8.4-9.2c1-0.5,1.5-1.9,1.5-1.9s-1.3,0.1-2.2-0.9c-0.8-1,2.2-2.9,2.2-2.9
		c-1.4-0.6-2.2-2.7-2.2-2.7c1.5-0.2,2.3-1.9,2.3-1.9s-1.3-1.3-1.7-2.1c-0.4-0.7,0.8-3.4,1.9-4.1c1.1-0.7,0.9-2,0.9-2
		c1.2-1.2,0.5-2.3,0.5-2.3c0.7-0.6,1-3.3,0.5-2.5c-0.5,0.7-2.3,1.9-2.3,1.9s0.1-2.1-0.6-1s-2.3,1.4-2.3,1.4s-0.5-1.2-0.8-0.8
		c-0.3,0.4-1.1,0.8-2.3,0.6c-1.2-0.2-2.4-0.2-3.3,0.5c-0.9,0.7-1.7,2.2-2.8,2.4s-7.1,0.4-7.1,0.4s2.2,2.2,4.9,2.9
		c2.6,0.6,5.5,1,4.9,4.2c-0.6,3.2-3.3,2.4-7.9,5.7c-4.7,3.3-4,10.5-4,10.5c0.7,6.1,3.6,9.9,4.8,11.3c1.2,1.4,5.8,8.1,26.1,8.1
		c20.4,0,27.6-19,28.5-27.2C60.3,38.2,57.4,26.2,47.5,18.9z"/>
	<path class="st1" d="M60.9,69.7C51.1,78,42.8,80,36,80c-6.8,0-13.2-1.3-20.5-5.7c0,0,0,0,0,0c0,0,0.1,0,0.1,0c0,0,0,0,0.1,0
		c0,0,0.1,0,0.1,0.1c0,0,0.1,0,0.1,0.1c1.6,0.7,6.9,3.1,11.4,3.6c5.4,0.7,12.8,1.1,22.5-3.2c9.7-4.2,19.7-15.1,21.7-27.6
		C73.6,35,70,25.1,65,17.2c-5.1-7.8-15.7-12.8-21.8-14c-6.1-1.2-16.6-2-26.3,2.4C7.5,9.8,3.8,14.9,3.5,15.2c0,0,0,0,0,0
		c0.1-0.2,3.7-8,17.3-13c13.7-5.1,28.4-0.6,36.2,4.7c7.8,5.2,15.3,13.8,16.9,27.2C75.5,47.5,70.7,61.4,60.9,69.7z"/>
	<path class="st2" d="M63.5,53.4c-3,8-9,14.9-16.1,18.6c-7.1,3.7-15.2,6.7-25.9,3.8c5.1,0.8,12.5,1,19.3-2.2
		C52.8,68,57.8,62.5,61.5,52.8c3.7-9.7,0.5-24.2-2.9-29c-3.4-4.9-10.1-13-18.7-15.6c-3.3-1-5.7-1.7-8.1-2c0,0,0,0,0,0
		s8.1-0.7,17.1,4.8c9,5.5,14.4,15.1,15.7,21C65.9,37.8,66.5,45.4,63.5,53.4z"/>
	<path class="st3" d="M71.5,47.5c-2,12.5-12.1,23.3-21.7,27.6c-9.7,4.2-17,3.9-22.5,3.2c-4.5-0.6-9.8-2.9-11.4-3.6
		c7.7,3.5,17.2,3.7,23.5,2.4c6.4-1.3,11.5-3.1,19.6-10.5C67.1,59,68.8,47,69,43.8c0.3-3.2,1-14.1-5.8-24C56.5,10,49,6.9,43.5,5.1
		c-5.5-1.8-16-2.4-25.2,0.6C9.4,8.7,3.9,14.8,3.5,15.2c0.3-0.4,4-5.4,13.4-9.6C26.6,1.2,37.1,2,43.2,3.2c6.1,1.2,16.7,6.2,21.8,14
		C70,25.1,73.6,35,71.5,47.5z"/>
	<path class="st4" d="M69,43.8C68.8,47,67.1,59,59,66.4c-8.1,7.4-13.2,9.2-19.6,10.5c-6.3,1.3-15.7,1.1-23.5-2.4c0,0-0.1,0-0.1-0.1
		c0,0-0.1,0-0.1-0.1c0,0,0,0-0.1,0c0,0-0.1,0-0.1,0c0,0,0,0,0,0c0,0,0,0,0,0c0.2,0.1,2.6,0.9,6.1,1.4c0,0,0,0,0,0
		c10.7,2.9,18.8-0.1,25.9-3.8c7.1-3.7,13.1-10.6,16.1-18.6c3-8,2.4-15.6,1.1-21.5c-1.3-5.9-6.7-15.5-15.7-21
		c-9-5.5-17.1-4.8-17.1-4.8s0,0,0,0c-3.9-0.5-7.8-0.1-15.6,2c0,0-8.1,2.7-12.6,7.1v0c0,0,0,0,0,0c0.4-0.4,5.9-6.6,14.8-9.5
		c9.2-3,19.7-2.5,25.2-0.6c5.5,1.8,13,4.9,19.8,14.7C70,29.7,69.3,40.6,69,43.8z"/>
</g>
</svg>
