<?xml version="1.0" encoding="utf-8"?>
<!-- Generator: Adobe Illustrator 25.4.1, SVG Export Plug-In . SVG Version: 6.00 Build 0)  -->
<svg version="1.1" id="Layer_1" xmlns="http://www.w3.org/2000/svg" xmlns:xlink="http://www.w3.org/1999/xlink" x="0px" y="0px"
	 viewBox="0 0 223.3 80" style="enable-background:new 0 0 223.3 80;" xml:space="preserve">
<style type="text/css">
	.st0{fill:#C2900A;}
	.st1{fill:#E52D27;}
	.st2{fill:#2B4E9C;}
	.st3{fill:#F9E115;}
	.st4{fill:#2B9E37;}
</style>
<g>
	<g>
		<path class="st0" d="M75.3,57.6c1.5,0,2.7-1.2,2.7-2.7V24.7c0-1.5-1.2-2.7-2.7-2.7s-2.7,1.2-2.7,2.7v30.1
			C72.6,56.4,73.8,57.6,75.3,57.6z"/>
		<path class="st0" d="M54.6,33.7c-6.5,0-11.8,5.5-11.8,12.2c0,6.7,5.3,12.2,11.8,12.2c6.5,0,11.8-5.5,11.8-12.2
			C66.4,39.2,61.1,33.7,54.6,33.7z M54.6,54.7c-3.2,0-5.8-4-5.8-8.8c0-4.9,2.6-8.8,5.8-8.8c3.2,0,5.8,4,5.8,8.8
			C60.4,50.8,57.8,54.7,54.6,54.7z"/>
		<path class="st0" d="M95.1,58.1c2.6,0,4.5-0.9,5.8-2.5V56c0,0.9,0.7,1.6,1.6,1.6h2.3c0.9,0,1.6-0.7,1.6-1.6V23.6
			c0-0.9-0.7-1.6-1.6-1.6h-2.3c-0.9,0-1.6,0.7-1.6,1.6v12.8c-1.3-1.3-3.2-2.1-5.8-2.3c-6.5-0.5-11,6.1-11,12.8S88.5,58.1,95.1,58.1z
			 M95.7,37.7c2.9,0,4.8,2.6,5.2,6.6v3c-0.5,4.2-2.9,7.4-5.8,7.4c-3.2,0-5.1-4-5.1-8.8C89.9,41,92.4,37.7,95.7,37.7z"/>
		<path class="st0" d="M153.6,35.3c-4.1-2-8.3-1-10.7,1.4V36c0-0.9-0.7-1.6-1.6-1.6h-2.3c-0.9,0-1.6,0.7-1.6,1.6V56
			c0,0.9,0.7,1.6,1.6,1.6h2.3c0.9,0,1.6-0.7,1.6-1.6V44c0-0.4,0.1-5.8,4.9-5.8c3.3,0,4,3.1,4.1,5.2c0,0.1,0,0.2,0,0.4V56
			c0,0.9,0.7,1.6,1.6,1.6h2.3c0.9,0,1.6-0.7,1.6-1.6V43.7C157.4,43.7,158,37.4,153.6,35.3z"/>
		<path class="st0" d="M122.4,33.9c-11.6,0-11.4,11.7-11.3,13.8c0.1,2.1,2.4,10.4,11.1,10.4c0,0,5.9-0.1,8.8-2.7c0,0,0.7-2,0.1-2.9
			s-1.1-1.1-1.7-0.6c0,0-2.1,2.5-6.3,2.5s-6.2-4.3-6.2-7.7h15.3C132.3,46.7,134,33.9,122.4,33.9z M116.9,43.2c0,0,0.9-5.9,5.4-5.9
			c4.5,0,4.6,5.9,4.6,5.9H116.9z"/>
		<path class="st0" d="M23.8,58.1c9,0,13.2-2.2,13.2-2.2V44.7c0-1.5-1.2-2.7-2.7-2.7c-1.5,0-2.7,1.2-2.7,2.7v8.5c0,0.1,0,0.1,0,0.1
			l0,0c0,0-2.3,1.4-7,1.4S12.6,52,12.6,41.2c0-10.8,8.6-13.2,12.5-13.2s7.7,2.4,9.6,4.5l1.3-0.1c0,0,0.8-3.6,1.4-4.4
			c0,0-4-3.9-13.6-3.4C14.2,25.1,6,31.1,6.5,42.4S14.9,58.1,23.8,58.1z"/>
		<path class="st0" d="M5.3,73.2h2.2v3c-0.3,0.2-0.9,0.3-1.9,0.3c-2.5,0-4.2-1.5-4.2-4.1c0-2.6,1.7-4.1,4.3-4.1
			c1.1,0,1.8,0.2,2.4,0.4l0.3-1.1c-0.5-0.2-1.4-0.5-2.7-0.5c-3.6,0-5.8,2.2-5.8,5.3c0,1.6,0.6,3,1.5,3.8c1.1,1,2.4,1.3,4,1.3
			c1.5,0,2.7-0.3,3.3-0.6v-4.9H5.3V73.2z"/>
		<path class="st0" d="M14.3,70c-2.1,0-3.8,1.4-3.8,3.9c0,2.3,1.6,3.8,3.7,3.8c1.9,0,3.9-1.2,3.9-3.9C18,71.5,16.5,70,14.3,70z
			 M14.2,76.6c-1.4,0-2.3-1.2-2.3-2.8c0-1.4,0.7-2.8,2.4-2.8s2.3,1.6,2.3,2.8C16.6,75.5,15.5,76.6,14.2,76.6z"/>
		<rect x="19.8" y="66.7" class="st0" width="1.4" height="10.8"/>
		<path class="st0" d="M30.2,66.7h-1.4v4.4h0c-0.4-0.6-1.2-1.1-2.3-1.1c-1.9,0-3.5,1.5-3.5,3.9c0,2.2,1.4,3.7,3.3,3.7
			c1.3,0,2.2-0.6,2.6-1.4h0l0.1,1.3h1.3c0-0.5-0.1-1.2-0.1-1.9V66.7z M28.8,74.4c0,0.2,0,0.4-0.1,0.6c-0.3,1-1.1,1.6-2.1,1.6
			c-1.5,0-2.3-1.2-2.3-2.7c0-1.6,0.9-2.8,2.3-2.8c1.1,0,1.8,0.7,2,1.5c0,0.2,0.1,0.4,0.1,0.6V74.4z"/>
		<path class="st0" d="M35.6,70c-2.3,0-3.6,1.7-3.6,4c0,2.2,1.4,3.7,3.8,3.7c1.2,0,2.1-0.2,2.6-0.5l-0.2-1c-0.5,0.2-1.1,0.4-2.1,0.4
			c-1.4,0-2.6-0.7-2.7-2.5h5.4c0-0.1,0-0.3,0-0.6C38.8,72.1,38.1,70,35.6,70z M33.3,73.1c0.1-0.9,0.7-2.2,2.2-2.2
			c1.6,0,2,1.3,1.9,2.2H33.3z"/>
		<path class="st0" d="M44.4,70c-1.3,0-2.2,0.7-2.6,1.4h0l-0.1-1.2h-1.2c0,0.6,0.1,1.2,0.1,2v5.3H42v-4.4c0-0.2,0-0.5,0.1-0.6
			c0.2-0.7,1-1.4,1.9-1.4c1.3,0,1.8,1,1.8,2.2v4.2h1.4v-4.4C47.1,70.6,45.5,70,44.4,70z"/>
		<path class="st0" d="M60.6,72.4c-0.6,1.4-1,2.3-1.4,3.3h0c-0.4-1.1-0.9-2.2-1.4-3.4l-2.3-4.9h-1.8l-0.2,10.2h1.4l0.1-4.9
			c0-1.6-0.1-2.4-0.1-3.7c0.3,1.2,1.1,2.2,1.6,3.7l2.1,4.9h1.1l2.1-4.8c0.6-1.4,1.4-2.8,1.9-4h0c0,1.3-0.1,3-0.1,4.5l-0.1,4.4h1.4
			V67.3h-1.8L60.6,72.4z"/>
		<path class="st0" d="M72.4,70.1l-1.6,4.3c-0.2,0.5-0.4,1.1-0.5,1.5h0c-0.1-0.4-0.3-1-0.5-1.5L68,70.1h-1.6l2.9,6.8
			c0.1,0.2,0.1,0.3,0.1,0.3c0,0.1-0.8,2.6-0.8,2.7h1.5l1.6-4.6l2.2-5.2H72.4z"/>
		<path class="st0" d="M80.1,73c0-1.5-0.6-3-3-3c-1,0-1.9,0.3-2.6,0.7l0.3,0.9c0.6-0.3,1.3-0.5,2.1-0.5c1.6,0,1.8,1.1,1.8,1.7v0.2
			c-3.1,0-4.8,1-4.8,2.7c0,1.1,0.8,2.1,2.4,2.1c1.1,0,2-0.5,2.4-1.1h0l0.1,0.9h1.3c-0.1-0.5-0.1-1.1-0.1-1.8V73z M78.7,75
			c0,0.1,0,0.3-0.1,0.4c-0.2,0.6-0.9,1.2-1.9,1.2c-0.7,0-1.4-0.4-1.4-1.3c0-1.4,1.8-1.7,3.4-1.7V75z"/>
		<path class="st0" d="M86.3,70c-1.3,0-2.2,0.7-2.6,1.4h0l-0.1-1.2h-1.3c0,0.6,0.1,1.2,0.1,2v5.3h1.4v-4.4c0-0.2,0-0.5,0.1-0.6
			c0.2-0.7,1-1.4,1.9-1.4c1.4,0,1.8,1,1.8,2.2v4.2h1.4v-4.4C89.1,70.6,87.4,70,86.3,70z"/>
		<path class="st0" d="M100.2,70c-0.8,0-1.3,0.2-1.8,0.5c-0.3,0.2-0.6,0.5-0.9,1h0c-0.3-0.9-1.2-1.5-2.2-1.5c-1.3,0-2,0.7-2.5,1.3h0
			l-0.1-1.2h-1.3c0,0.6,0.1,1.2,0.1,2v5.3h1.4v-4.4c0-0.2,0-0.5,0.1-0.7c0.2-0.7,0.9-1.3,1.8-1.3c1.1,0,1.7,0.8,1.7,2v4.4h1.4V73
			c0-0.2,0-0.5,0.1-0.7c0.2-0.7,0.9-1.2,1.7-1.2c1.2,0,1.7,0.8,1.7,2.3v4.2h1.4v-4.3C102.8,70.6,101.2,70,100.2,70z"/>
		<path class="st0" d="M110.7,73c0-1.5-0.6-3-3-3c-1,0-1.9,0.3-2.6,0.7l0.3,0.9c0.6-0.3,1.3-0.5,2.1-0.5c1.6,0,1.8,1.1,1.8,1.7v0.2
			c-3.1,0-4.8,1-4.8,2.7c0,1.1,0.8,2.1,2.4,2.1c1.1,0,2-0.5,2.4-1.1h0l0.1,0.9h1.3c-0.1-0.5-0.1-1.1-0.1-1.8V73z M109.3,75
			c0,0.1,0,0.3-0.1,0.4c-0.2,0.6-0.9,1.2-1.9,1.2c-0.7,0-1.4-0.4-1.4-1.3c0-1.4,1.8-1.7,3.4-1.7V75z"/>
		<path class="st0" d="M114.3,71.6L114.3,71.6l-0.1-1.4H113c0,0.7,0.1,1.4,0.1,2.3v5h1.4v-3.9c0-0.2,0-0.4,0.1-0.6
			c0.2-1,0.9-1.7,1.9-1.7c0.2,0,0.3,0,0.5,0V70c-0.1,0-0.2,0-0.4,0C115.6,70,114.7,70.6,114.3,71.6z"/>
		<path class="st0" d="M125.7,67.3L122,77.5h1.5l1.1-3.2h3.9l1.2,3.2h1.5l-3.7-10.2H125.7z M124.8,73.2l1.1-3
			c0.2-0.6,0.4-1.2,0.6-1.8h0c0.2,0.6,0.3,1.2,0.6,1.9l1.1,2.9H124.8z"/>
		<rect x="132.6" y="70.1" class="st0" width="1.4" height="7.3"/>
		<path class="st0" d="M133.3,67.3c-0.5,0-0.9,0.4-0.9,0.8c0,0.5,0.4,0.8,0.9,0.8c0.6,0,0.9-0.4,0.9-0.8
			C134.2,67.6,133.8,67.3,133.3,67.3z"/>
		<path class="st0" d="M137.7,71.6L137.7,71.6l-0.1-1.4h-1.2c0,0.7,0.1,1.4,0.1,2.3v5h1.4v-3.9c0-0.2,0-0.4,0.1-0.6
			c0.2-1,0.9-1.7,1.9-1.7c0.2,0,0.3,0,0.5,0V70c-0.1,0-0.2,0-0.4,0C138.9,70,138,70.6,137.7,71.6z"/>
		<rect x="141.7" y="66.7" class="st0" width="1.4" height="10.8"/>
		<path class="st0" d="M146.3,67.3c-0.5,0-0.9,0.4-0.9,0.8c0,0.5,0.4,0.8,0.9,0.8c0.6,0,0.9-0.4,0.9-0.8
			C147.1,67.6,146.8,67.3,146.3,67.3z"/>
		<rect x="145.5" y="70.1" class="st0" width="1.4" height="7.3"/>
		<path class="st0" d="M153.2,70c-1.3,0-2.2,0.7-2.6,1.4h0l-0.1-1.2h-1.3c0,0.6,0.1,1.2,0.1,2v5.3h1.4v-4.4c0-0.2,0-0.5,0.1-0.6
			c0.2-0.7,1-1.4,1.9-1.4c1.3,0,1.8,1,1.8,2.2v4.2h1.4v-4.4C156,70.6,154.3,70,153.2,70z"/>
		<path class="st0" d="M161.4,70c-2.3,0-3.7,1.7-3.7,4c0,2.2,1.4,3.7,3.9,3.7c1.2,0,2.1-0.2,2.6-0.5l-0.2-1
			c-0.5,0.2-1.1,0.4-2.2,0.4c-1.4,0-2.7-0.7-2.7-2.5h5.5c0-0.1,0-0.3,0-0.6C164.7,72.1,164,70,161.4,70z M159.1,73.1
			c0.1-0.9,0.7-2.2,2.2-2.2c1.6,0,2,1.3,2,2.2H159.1z"/>
		<path class="st0" d="M168.9,73.2c-1-0.4-1.5-0.6-1.5-1.2c0-0.5,0.5-1,1.3-1c0.7,0,1.3,0.2,1.6,0.4l0.4-1c-0.4-0.2-1.1-0.5-1.9-0.5
			c-1.7,0-2.7,1-2.7,2.2c0,0.9,0.7,1.6,2.1,2.1c1.1,0.4,1.5,0.7,1.5,1.3c0,0.6-0.5,1.1-1.5,1.1c-0.7,0-1.5-0.3-1.9-0.5l-0.4,1
			c0.6,0.3,1.3,0.5,2.2,0.5c1.9,0,2.9-0.9,2.9-2.2C171,74.3,170.3,73.7,168.9,73.2z"/>
		<path class="st0" d="M200.9,15.9c-8.3-6.1-17-5.1-17-5.1c3.5,0.4,7.6,2.8,11.8,6.6c4.2,3.8,5.2,10.2,5.2,10.2
			c-2.4-4.7-8.1-10.5-16.3-11.5c-8.2-0.9-12,2.5-12,2.5c3.9-1.7,12.7-2,18.2,2c5.6,4,8,11.7,6.9,17.9c-1.1,6.2-7.1,10.1-13.1,10.1
			c-6,0-7.1-7.7-7.1-7.7c0.8-0.4,1.3-1.6,1.3-1.6s-1.1,0-1.8-0.8c-0.7-0.8,1.8-2.4,1.8-2.4c-1.2-0.5-1.8-2.3-1.8-2.3
			c1.3-0.2,1.9-1.6,1.9-1.6s-1.1-1.1-1.5-1.7c-0.4-0.6,0.7-2.8,1.6-3.4c0.9-0.6,0.8-1.7,0.8-1.7c1-1,0.4-2,0.4-2
			c0.6-0.5,0.8-2.8,0.4-2.1s-1.9,1.6-1.9,1.6s0.1-1.8-0.5-0.8s-1.9,1.2-1.9,1.2s-0.4-1-0.7-0.7s-0.9,0.7-1.9,0.5
			c-1-0.2-2-0.1-2.7,0.4c-0.7,0.6-1.4,1.8-2.3,2s-6,0.4-6,0.4s1.9,1.9,4.1,2.4c2.2,0.5,4.6,0.8,4.1,3.6s-2.7,2-6.7,4.8
			c-3.9,2.8-3.4,8.8-3.4,8.8c0.6,5.2,3.1,8.4,4,9.5c1,1.2,4.8,6.8,22,6.8c17.1,0,23.2-16,24-22.9C211.7,32.1,209.2,22,200.9,15.9z"
			/>
	</g>
	<path class="st1" d="M212.2,58.6c-8.2,7-15.2,8.7-21,8.7c-5.7,0-11.1-1.1-17.3-4.8c0,0,0,0,0,0c0,0,0.1,0,0.1,0c0,0,0,0,0,0
		c0,0,0.1,0,0.1,0c0,0,0.1,0,0.1,0.1c1.3,0.6,5.8,2.6,9.6,3.1c4.6,0.6,10.8,0.9,18.9-2.7c8.1-3.6,16.5-12.7,18.3-23.2
		c1.7-10.5-1.2-18.8-5.5-25.4c-4.3-6.6-13.2-10.8-18.3-11.8c-5.1-1-13.9-1.7-22.1,2c-7.9,3.5-11,7.8-11.2,8.1c0,0,0,0,0,0
		c0.1-0.2,3.1-6.8,14.5-11c11.6-4.3,23.9-0.5,30.4,3.9c6.5,4.4,12.9,11.6,14.2,22.9C224.4,39.9,220.4,51.6,212.2,58.6z"/>
	<path class="st2" d="M214.4,44.9c-2.5,6.8-7.5,12.6-13.5,15.6c-6,3.1-12.8,5.6-21.8,3.2c4.3,0.7,10.5,0.9,16.3-1.8
		c10-4.7,14.2-9.3,17.3-17.5c3.1-8.2,0.4-20.3-2.4-24.4c-2.8-4.1-8.5-11-15.8-13.1c-2.8-0.8-4.8-1.4-6.8-1.7c0,0,0,0,0,0
		s6.8-0.6,14.4,4c7.6,4.6,12.1,12.7,13.2,17.7C216.4,31.8,216.9,38.1,214.4,44.9z"/>
	<path class="st3" d="M221.1,39.9c-1.7,10.5-10.1,19.6-18.3,23.2c-8.1,3.6-14.3,3.2-18.9,2.7c-3.8-0.5-8.3-2.4-9.6-3.1
		c6.5,3,14.5,3.1,19.7,2c5.4-1.1,9.7-2.6,16.5-8.8c6.8-6.2,8.2-16.4,8.5-19c0.2-2.7,0.8-11.9-4.9-20.1c-5.7-8.3-12-10.8-16.7-12.4
		c-4.6-1.5-13.5-2-21.2,0.5c-7.4,2.5-12.1,7.6-12.4,8c0.2-0.3,3.4-4.6,11.2-8.1c8.2-3.7,17-3,22.1-2c5.1,1,14,5.2,18.3,11.8
		C219.8,21.1,222.8,29.4,221.1,39.9z"/>
	<path class="st4" d="M219,36.8c-0.2,2.7-1.7,12.8-8.5,19c-6.8,6.2-11.1,7.7-16.5,8.8c-5.3,1.1-13.2,0.9-19.7-2c0,0-0.1,0-0.1-0.1
		c0,0-0.1,0-0.1,0c0,0,0,0,0,0c0,0-0.1,0-0.1,0c0,0,0,0,0,0c0,0,0,0,0,0c0.2,0.1,2.2,0.7,5.2,1.2c0,0,0,0,0,0
		c9,2.5,15.8-0.1,21.8-3.2c6-3.1,11-8.9,13.5-15.6c2.5-6.8,2-13.1,0.9-18.1c-1.1-5-5.6-13-13.2-17.7c-7.6-4.6-14.4-4-14.4-4s0,0,0,0
		c-3.3-0.5-6.6-0.1-13.1,1.7c0,0-6.8,2.3-10.6,6v0c0,0,0,0,0,0c0.3-0.4,5-5.5,12.4-8c7.7-2.5,16.5-2.1,21.2-0.5
		c4.6,1.5,11,4.1,16.7,12.4C219.8,25,219.2,34.2,219,36.8z"/>
</g>
</svg>
