<?xml version="1.0" encoding="utf-8"?>
<!-- Generator: Adobe Illustrator 25.4.1, SVG Export Plug-In . SVG Version: 6.00 Build 0)  -->
<svg version="1.1" id="Layer_1" xmlns="http://www.w3.org/2000/svg" xmlns:xlink="http://www.w3.org/1999/xlink" x="0px" y="0px"
	 viewBox="0 0 81.05 80" style="enable-background:new 0 0 81.05 80;" xml:space="preserve">
<style type="text/css">
	.st0{fill-rule:evenodd;clip-rule:evenodd;fill:#292858;}
	.st1{fill-rule:evenodd;clip-rule:evenodd;fill:#006BAE;}
	.st2{fill-rule:evenodd;clip-rule:evenodd;fill:#0080C3;}
	.st3{fill-rule:evenodd;clip-rule:evenodd;fill:#61BEE7;}
</style>
<path class="st0" d="M68.86,9.02c-9.74,6.96-13.04,21.76-24.38,20.65c2.07,1.35,4.22,3.09,8.97,2.14
	c6.59-1.35,10.51-5.38,11.89-7.52c2.61-3.8,1.53-2.45,6.13-9.26c3.83-5.7,6.29-7.6,9.59-8.07C75.84,4.91,71.16,7.36,68.86,9.02z"/>
<path class="st0" d="M40.72,35.92c-2.15,1.19-4.68,2.22-6.29,6.96c-2.22,6.57-0.77,12.11,0.31,14.4c1.92,4.19,1.3,2.61,4.75,10.13
	c2.84,6.25,3.22,9.42,1.99,12.58c4.29-3.72,4.6-9.1,4.37-11.95C44.86,55.87,34.12,45.42,40.72,35.92z"/>
<path class="st0" d="M37.34,29.28c0.08-2.53,0.46-5.3-2.68-9.1c-4.37-5.22-9.74-6.73-12.19-6.96c-4.45-0.4-2.84-0.16-10.81-0.87
	C4.91,11.79,2.07,10.52,0,7.83c0.92,5.7,5.37,8.63,7.82,9.89C18.48,22.95,32.67,18.6,37.34,29.28z"/>
<path class="st1" d="M42.79,28.17c6.13,1.35,9.51-2.29,10.74-3.56c4.52-4.91,4.37-10.05,6.67-17.65c0.69-2.29,1.61-4.43,4.37-6.57
	C49.15,1.58,54.14,25.8,42.79,28.17z"/>
<path class="st1" d="M42.87,35.13c-4.22,4.83-2.84,9.65-2.38,11.39c1.84,6.49,6.21,9.02,11.5,14.88c1.61,1.74,2.91,3.72,3.37,7.2
	C61.88,54.2,39.11,46.45,42.87,35.13z"/>
<path class="st1" d="M28.6,23.74c-6.36-1.58-10.66,1.03-18.17,2.77c-2.3,0.55-4.6,0.79-7.74-0.63c8.74,13.14,26.61-3.32,34.28,5.62
	C35.04,25.4,30.29,24.21,28.6,23.74z"/>
<path class="st2" d="M49.15,16.46c0.46-5.14-2.76-9.81,0.61-16.46c-3.68,2.22-5.83,5.14-5.83,11.39c0,4.99,0.31,8.15,0,10.52
	c-0.46,3.24-1.23,4.51-3.22,5.7c1.23-0.08,3.37-0.95,4.06-1.5C47.01,24.45,48.85,19.62,49.15,16.46z"/>
<path class="st2" d="M56.28,44.55c-4.14-2.45-6.98-3.8-8.82-5.3c-2.53-2.06-3.14-3.32-3.14-5.7c-0.54,1.11-0.84,3.48-0.77,4.35
	c0.23,2.77,3.3,6.88,5.83,8.7c4.06,3.01,9.66,2.45,13.5,8.78C62.96,51.12,61.5,47.64,56.28,44.55z"/>
<path class="st2" d="M34.2,30.78c-2.45-1.19-7.44-0.47-10.2,0.87c-4.52,2.14-6.9,7.36-14.11,7.68c3.68,2.22,7.28,2.69,12.42-0.47
	c4.14-2.53,6.67-4.35,8.82-5.22c2.99-1.27,4.37-1.11,6.36,0C36.81,32.6,34.97,31.18,34.2,30.78z"/>
<path class="st3" d="M38.11,4.19c-2.15,3.09-4.45,5.22,0.31,15.59c0,0,2.68,5.22,0,8.7c1.07-0.4,1.99-1.5,2.61-2.37
	c0.69-1.03,1.84-3.56,1.15-7.2C41.1,12.82,36.96,11.32,38.11,4.19z"/>
<path class="st3" d="M52.07,35.45c0,0-5.75-0.24-7.28-4.35c-0.23,1.11,0.23,2.53,0.69,3.56c0.54,1.11,2.07,3.4,5.44,4.67
	c5.67,2.06,8.97-0.87,14.34,3.72C63.8,39.56,63.11,36.4,52.07,35.45z"/>
<path class="st3" d="M29.45,36.72c-4.6,3.96-3.76,8.47-10.35,10.92c3.6,0.4,6.59,1.42,12.96-7.99c0,0,3.07-4.99,7.28-4.35
	c-0.84-0.79-2.3-1.03-3.3-1.19C34.81,34.11,32.13,34.34,29.45,36.72z"/>
</svg>
