<?xml version="1.0" encoding="utf-8"?>
<!-- Generator: Adobe Illustrator 25.4.1, SVG Export Plug-In . SVG Version: 6.00 Build 0)  -->
<svg version="1.1" id="Layer_1" xmlns="http://www.w3.org/2000/svg" xmlns:xlink="http://www.w3.org/1999/xlink" x="0px" y="0px"
	 viewBox="0 0 297.14 80" style="enable-background:new 0 0 297.14 80;" xml:space="preserve">
<style type="text/css">
	.st0{fill-rule:evenodd;clip-rule:evenodd;fill:#292858;}
	.st1{fill-rule:evenodd;clip-rule:evenodd;fill:#006BAE;}
	.st2{fill-rule:evenodd;clip-rule:evenodd;fill:#0080C3;}
	.st3{fill-rule:evenodd;clip-rule:evenodd;fill:#61BEE7;}
</style>
<g>
	<path class="st0" d="M221.61,37.19h-7.28c-2.68,0-4.68-0.63-4.68-4.51c0.08-3.4,3.3-4.83,6.67-5.06c4.75-0.4,11.35,0.63,13.96,2.14
		v-6.33c-2.3-0.95-6.98-2.14-11.89-2.14c-6.36,0.08-12.73,2.45-14.26,6.01c-1.46,3.48-1.15,4.35-1.15,6.01
		c0,1.66,0.31,4.04,1.15,5.7c1.23,2.29,4.83,4.51,8.43,4.51h7.82c4.52,0,4.91,3.01,4.91,4.83c0,3.96-3.99,5.06-7.82,5.06
		c-4.06,0.08-9.66-0.47-12.81-2.06v6.57c3.22,0.71,6.13,1.5,11.89,1.5c6.82,0,11.5-1.35,14.26-6.01c1.07-1.82,1.61-6.88,0.61-9.89
		C230.28,39.8,226.44,37.19,221.61,37.19z"/>
	<path class="st0" d="M114.18,22.79c-1.38,0.87-2.3,2.93-2.3,4.83v20.65c0,0-19.86-26.43-20.01-26.67c-1.76,0-3.99,0.71-4.91,1.5
		c-1.15,0.95-1.76,2.37-1.76,5.06v31.18h6.36v-27.3l20.32,27.3h6.67V21.84C116.71,21.84,115.56,21.92,114.18,22.79z"/>
	<path class="st0" d="M192.63,22.79c-1.3,1.03-2.07,2.29-2.07,3.56v6.57c-4.52-2.22-11.89-1.58-15.41,1.5
		c-2.91,2.53-3.76,6.96-3.76,10.52c0,3.09,0.54,5.54,1.46,7.75c2.38,5.54,7.74,6.33,12.81,6.33c2.99,0,6.98-0.32,11.58-1.5V21.6
		C195.62,21.6,193.85,21.84,192.63,22.79z M190.56,52.46c-3.53,0.87-4.98,0.87-6.36,0.87c-6.06,0-6.13-6.57-6.13-8.07
		c0-5.54,1.92-7.75,6.36-7.75c2.84,0,4.45,0.47,6.13,1.5C190.56,42.97,190.56,48.98,190.56,52.46z"/>
	<path class="st0" d="M242.85,26.98c-1.46,0-2.61,0.47-3.76,1.19c-1.15,0.71-2.3,2.45-2.3,4.83v20.97c0,1.66,2.84,5.38,6.13,5.38
		h6.13v-5.7c0,0-3.53,0.08-4.37-0.63c-0.61-0.55-0.84-1.03-0.84-1.82c0-5.38-0.31-14.09-0.31-14.09h5.52v-5.38h-6.13v-4.75H242.85z"
		/>
	<path class="st0" d="M148.46,36.24c-3.22-4.43-8.59-4.83-11.58-4.83c-2.99,0-7.67,1.35-9.59,3.32c-1.92,1.98-3.45,5.14-3.45,10.52
		c0,6.96,1.61,9.42,5.52,12.26c2.15,1.58,3.91,1.82,8.43,1.82c3.07,0,5.14-0.47,6.98-1.5c3.53-1.98,6.13-4.91,6.13-13.21
		C150.76,40.75,150.14,38.54,148.46,36.24z M142.63,50.96c-1.07,1.98-2.91,3.01-5.21,3.01c-2.3,0-4.14-0.71-4.91-1.82
		c-1.15-1.5-1.99-2.14-1.99-7.2c0-2.93,0.54-4.35,1.46-5.7c1.38-2.14,3.37-2.37,5.21-2.37c1.99,0,3.53,0.71,4.68,1.5
		c1.53,1.03,2.07,4.43,2.07,7.52C143.78,48.35,143.32,49.69,142.63,50.96z"/>
	<path class="st0" d="M275.9,35.92c-2.76-3.8-9.58-4.83-15.11-4.19c-3.45,0.4-3.99,0.63-5.83,0.87v5.7
		c4.53-1.03,12.5-2.93,15.64,1.5v3.01c-8.74-1.35-15.95-1.19-17.71,5.7c-0.31,1.19-0.16,3.24,0.31,5.06c1,4.43,7.9,6.73,13.96,5.06
		c1.07-0.32,2.68-0.87,3.76-1.5c1.23,0.79,2.91,2.06,2.91,2.06h3.45V40.12C277.36,38.3,276.36,36.56,275.9,35.92z M270.46,51.83
		c-1.53,0.95-6.98,2.77-9.28,1.5c-1.15-0.63-2.07-3.09-1.15-4.51c1.38-2.14,7.67-1.35,10.43-0.87V51.83z"/>
	<path class="st0" d="M289.86,35.05v-3.32c-1.46,0-2.22-0.08-3.76,0.63c-1.53,0.63-2.61,3.8-2.61,6.01c0,5.14,0,20.97,0,20.97h6.98
		v-18.6c0.92-1.82,4.6-3.72,6.67-3.56v-5.38C294,31.81,291.16,33.16,289.86,35.05z"/>
	<path class="st0" d="M161.49,35.05v-3.32c-1.46,0-2.22-0.08-3.76,0.63c-1.53,0.63-2.61,3.8-2.61,6.01c0,5.14,0,20.97,0,20.97h6.98
		v-18.6c0.92-1.82,4.6-3.72,6.67-3.56v-5.38C165.71,31.81,162.8,33.16,161.49,35.05z"/>
	<path class="st0" d="M68.86,9.02c-9.74,6.96-13.04,21.76-24.38,20.65c2.07,1.35,4.22,3.09,8.97,2.14
		c6.59-1.35,10.51-5.38,11.89-7.52c2.61-3.8,1.53-2.45,6.13-9.26c3.83-5.7,6.29-7.6,9.59-8.07C75.84,4.91,71.16,7.36,68.86,9.02z"/>
	<path class="st0" d="M40.72,35.92c-2.15,1.19-4.68,2.22-6.29,6.96c-2.22,6.57-0.77,12.11,0.31,14.4c1.92,4.19,1.3,2.61,4.75,10.13
		c2.84,6.25,3.22,9.42,1.99,12.58c4.29-3.72,4.6-9.1,4.37-11.95C44.86,55.87,34.12,45.42,40.72,35.92z"/>
	<path class="st0" d="M37.34,29.28c0.08-2.53,0.46-5.3-2.68-9.1c-4.37-5.22-9.74-6.73-12.19-6.96c-4.45-0.4-2.84-0.16-10.81-0.87
		C4.91,11.79,2.07,10.52,0,7.83c0.92,5.7,5.37,8.63,7.82,9.89C18.48,22.95,32.67,18.6,37.34,29.28z"/>
	<path class="st1" d="M42.79,28.17c6.13,1.35,9.51-2.29,10.74-3.56c4.52-4.91,4.37-10.05,6.67-17.65c0.69-2.29,1.61-4.43,4.37-6.57
		C49.15,1.58,54.14,25.8,42.79,28.17z"/>
	<path class="st1" d="M42.87,35.13c-4.22,4.83-2.84,9.65-2.38,11.39c1.84,6.49,6.21,9.02,11.5,14.88c1.61,1.74,2.91,3.72,3.37,7.2
		C61.88,54.2,39.11,46.45,42.87,35.13z"/>
	<path class="st1" d="M28.6,23.74c-6.36-1.58-10.66,1.03-18.17,2.77c-2.3,0.55-4.6,0.79-7.74-0.63c8.74,13.14,26.61-3.32,34.28,5.62
		C35.04,25.4,30.29,24.21,28.6,23.74z"/>
	<path class="st2" d="M49.15,16.46c0.46-5.14-2.76-9.81,0.61-16.46c-3.68,2.22-5.83,5.14-5.83,11.39c0,4.99,0.31,8.15,0,10.52
		c-0.46,3.24-1.23,4.51-3.22,5.7c1.23-0.08,3.37-0.95,4.06-1.5C47.01,24.45,48.85,19.62,49.15,16.46z"/>
	<path class="st2" d="M56.28,44.55c-4.14-2.45-6.98-3.8-8.82-5.3c-2.53-2.06-3.14-3.32-3.14-5.7c-0.54,1.11-0.84,3.48-0.77,4.35
		c0.23,2.77,3.3,6.88,5.83,8.7c4.06,3.01,9.66,2.45,13.5,8.78C62.96,51.12,61.5,47.64,56.28,44.55z"/>
	<path class="st2" d="M34.2,30.78c-2.45-1.19-7.44-0.47-10.2,0.87c-4.52,2.14-6.9,7.36-14.11,7.68c3.68,2.22,7.28,2.69,12.42-0.47
		c4.14-2.53,6.67-4.35,8.82-5.22c2.99-1.27,4.37-1.11,6.36,0C36.81,32.6,34.97,31.18,34.2,30.78z"/>
	<path class="st3" d="M38.11,4.19c-2.15,3.09-4.45,5.22,0.31,15.59c0,0,2.68,5.22,0,8.7c1.07-0.4,1.99-1.5,2.61-2.37
		c0.69-1.03,1.84-3.56,1.15-7.2C41.1,12.82,36.96,11.32,38.11,4.19z"/>
	<path class="st3" d="M52.07,35.45c0,0-5.75-0.24-7.28-4.35c-0.23,1.11,0.23,2.53,0.69,3.56c0.54,1.11,2.07,3.4,5.44,4.67
		c5.67,2.06,8.97-0.87,14.34,3.72C63.8,39.56,63.11,36.4,52.07,35.45z"/>
	<path class="st3" d="M29.45,36.72c-4.6,3.96-3.76,8.47-10.35,10.92c3.6,0.4,6.59,1.42,12.96-7.99c0,0,3.07-4.99,7.28-4.35
		c-0.84-0.79-2.3-1.03-3.3-1.19C34.81,34.11,32.13,34.34,29.45,36.72z"/>
</g>
</svg>
