<?xml version="1.0" encoding="utf-8"?>
<!-- Generator: Adobe Illustrator 25.4.1, SVG Export Plug-In . SVG Version: 6.00 Build 0)  -->
<svg version="1.1" id="Layer_1" xmlns="http://www.w3.org/2000/svg" xmlns:xlink="http://www.w3.org/1999/xlink" x="0px" y="0px"
	 viewBox="0 0 67.29 80" style="enable-background:new 0 0 67.29 80;" xml:space="preserve">
<style type="text/css">
	.st0{fill:#FD0000;}
</style>
<g id="Clip-9">
</g>
<g id="Clip-2">
</g>
<g>
	<path class="st0" d="M29.28,64.5c-7.92-2.4-16.12-1.61-24.31-0.95c11.01-7.79,26.82-6.77,37.67-14.48
		c0.04,0.06,0.03,0.13-0.07,0.27C60.25,39.1,66.36,18.03,66.79,0C53.49,56.85,21.32,39.54,4.77,63.69c-1.6,0.15-3.23,0.35-4.77,0.8
		c1.42,0,2.83,0,4.25-0.01v0c5.39-0.25,31.52,1.43,23.44,9.96c-5.42,2.67-9.48-4.26-1.95-4.13c-5.24-2.41-12.3,3.83-6.18,7.55
		C32.43,85.6,46.7,70.29,29.28,64.5z M5.42,63.82c0.01,0,0.02,0,0.03,0C5.43,63.82,5.43,63.82,5.42,63.82z M9.99,63.7
		C9.99,63.71,9.99,63.71,9.99,63.7C9.98,63.71,9.99,63.7,9.99,63.7C9.99,63.7,9.99,63.7,9.99,63.7z M9.87,63.64
		c0.01,0,0.03,0.01,0.04,0.01C9.9,63.64,9.88,63.64,9.87,63.64z M9.94,63.66c0.01,0.01,0.03,0.02,0.04,0.03
		C9.97,63.68,9.95,63.67,9.94,63.66z M9.8,63.62c0.02,0,0.03,0,0.05,0.01C9.83,63.63,9.81,63.63,9.8,63.62z"/>
	<path class="st0" d="M57.85,45.87c6.46-9.41,9.38-20.75,9.11-31.77C64.21,33.66,51.72,51.93,30.19,58.1
		C41.1,58.38,51.8,54.33,57.85,45.87z"/>
	<path class="st0" d="M67.18,27.86c0.04-0.25,0.09-0.5-0.06-0.78C65.3,39.91,59.55,52.47,45.81,58
		C62.96,58.21,68.12,40.57,67.18,27.86z"/>
</g>
</svg>
