<?xml version="1.0" encoding="utf-8"?>
<!-- Generator: Adobe Illustrator 25.4.1, SVG Export Plug-In . SVG Version: 6.00 Build 0)  -->
<svg version="1.1" id="Layer_1" xmlns="http://www.w3.org/2000/svg" xmlns:xlink="http://www.w3.org/1999/xlink" x="0px" y="0px"
	 viewBox="0 0 206.4 80" style="enable-background:new 0 0 206.4 80;" xml:space="preserve">
<style type="text/css">
	.st0{fill:#FD0000;}
</style>
<g id="Clip-9">
</g>
<g id="Clip-2">
</g>
<g>
	<path class="st0" d="M205.63,47.75c-41.73-0.01-83.47-0.01-125.2,0c-0.26,0-0.56-0.21-0.77,0.28c0,0,0,0,0,0
		c-0.02,0.03-0.06,0.07-0.05,0.09c0.01,0.07,0.04,0.14,0.06,0.21c0.3,0.56,0.68,0.28,1.02,0.28c41.14,0.01,82.28,0.01,123.42,0.01
		c0.66,0,1.32-0.03,1.99-0.05c0,0,0,0,0,0c0,0,0,0,0,0c0.21,0.01,0.33-0.13,0.3-0.54C206.19,47.53,205.89,47.75,205.63,47.75z"/>
	<path class="st0" d="M205.63,27.15c-41.73-0.01-83.47-0.01-125.2,0c-0.26,0-0.56-0.21-0.77,0.28c0,0,0,0,0,0
		c-0.02,0.03-0.06,0.07-0.05,0.09c0.01,0.07,0.04,0.14,0.06,0.21c0.3,0.56,0.68,0.28,1.02,0.28c41.14,0.01,82.28,0.01,123.42,0.01
		c0.66,0,1.32-0.03,1.99-0.05c0,0,0,0,0,0c0,0,0,0,0,0c0.21,0.01,0.33-0.13,0.3-0.54C206.19,26.93,205.89,27.15,205.63,27.15z"/>
	<g>
		<path class="st0" d="M29.28,64.5c-7.92-2.4-16.12-1.61-24.31-0.95c11.01-7.79,26.82-6.77,37.67-14.48
			c0.04,0.06,0.03,0.13-0.07,0.27C60.25,39.1,66.36,18.03,66.79,0C53.49,56.85,21.32,39.54,4.77,63.69c-1.6,0.15-3.23,0.35-4.77,0.8
			c1.42,0,2.83,0,4.25-0.01v0c5.39-0.25,31.52,1.43,23.44,9.96c-5.42,2.67-9.48-4.26-1.95-4.13c-5.24-2.41-12.3,3.83-6.18,7.55
			C32.43,85.6,46.7,70.29,29.28,64.5z M5.42,63.82c0.01,0,0.02,0,0.03,0C5.43,63.82,5.43,63.82,5.42,63.82z M9.99,63.7
			C9.99,63.71,9.99,63.71,9.99,63.7C9.98,63.71,9.99,63.7,9.99,63.7C9.99,63.7,9.99,63.7,9.99,63.7z M9.87,63.64
			c0.01,0,0.03,0.01,0.04,0.01C9.9,63.64,9.88,63.64,9.87,63.64z M9.94,63.66c0.01,0.01,0.03,0.02,0.04,0.03
			C9.97,63.68,9.95,63.67,9.94,63.66z M9.8,63.62c0.02,0,0.03,0,0.05,0.01C9.83,63.63,9.81,63.63,9.8,63.62z"/>
		<path class="st0" d="M57.85,45.87c6.46-9.41,9.38-20.75,9.11-31.77C64.21,33.66,51.72,51.93,30.19,58.1
			C41.1,58.38,51.8,54.33,57.85,45.87z"/>
		<path class="st0" d="M67.18,27.86c0.04-0.25,0.09-0.5-0.06-0.78C65.3,39.91,59.55,52.47,45.81,58
			C62.96,58.21,68.12,40.57,67.18,27.86z"/>
	</g>
	<g>
		<path class="st0" d="M168.19,70.55c-2.36-1.77-1.72,2.84-2.5,4.21c-0.1,1.06-1.43,0.91-0.93-0.2c1.14-11.54,6.04-11.57-5.73-11.2
			c-0.44,0-0.64,0.16-0.71,0.56c-0.84,4.11-1.31,8.55-3.9,12c0.64-5.88,2.21-11.8,3.16-17.69c0.45-1.65-3.48,0.32-2.7-1.26
			c0.17-0.54,1.33-1.57,0.68-1.93c-1.62-0.26-3.31-0.64-3.53,1.5c-0.27,1.92-2.65,0.11-2.61,2.08c-0.77,2.16-0.27,5.66-1.81,7.16
			c-0.8-0.27-1.45,2.92-0.61,2.82c1.09,0.49-0.72,4.57-1.15,5.6c-1.65,2.38,0.6,7.46,2.06,2.58c0.96-1.29,2.02-9,2.43-3.64
			c-0.12,1.74,1.6-0.28,1.56,1.02c-0.13,1.13-0.76,1.66-1.92,1.55c-0.96-0.09-0.96-0.09-0.97,0.91c0.18,0.66-0.46,2.2,0.52,2.23
			c1.96,0.01,3.84-0.27,4.65-2.31c0.69,0.61,1.5,3.63,2.34,2.03c2.03-3.14,3.16-6.62,3.93-10.24c0.51-2.37-0.1-1.9,2.12-1.98
			c0.62-0.02,0.71,0.26,0.61,0.77c0.15,2.87-4.29,11.59,0.45,11.54c2,0.09,3.21-0.36,3.74-2.42
			C167.53,74.53,169.27,71.85,168.19,70.55z M152.65,69.54c-0.26,0.89-0.31,1.75-0.33,2.68c-1.39,0.14,0.23-3.75-1.93-2.45
			C149,68.46,153.12,68.07,152.65,69.54z M153.53,65.43c-0.06,0.36-0.33,0.36-0.61,0.37c-3.15,0.62-1.76-1.77-1.37-3.75
			c0.43,0.75,0.27,1.46,0.38,2.12C151.85,65.99,154.18,63.47,153.53,65.43z M154.16,62.23c-0.07,0.27-0.31,1.16-0.68,1.06
			c-0.04-0.48,0.2-0.88-0.26-1.23c-0.28-1.5-0.45-1.05-1.43-0.55c-0.31-1.52,1.7-1.32,2.66-0.91
			C154.51,61.22,153.71,61.64,154.16,62.23z"/>
		<path class="st0" d="M201.16,65.48c-1.87-0.75-6.65-5.59-8.05-3.35c-0.35,0.67-1.91,1.51-0.65,2.04c1.48,0.81,2.9,1.7,4.28,2.67
			c1.31,1.42-11.02,0.2-13.03,0.59c1.45-2.02,7.69-2.66,4.5-5.7c-1.24-0.86-6.43,3.85-8.77,4.15c-1.06,0.45,0.06,1.57,0.14,2.32
			c0.09,2.22,2.9-1.41,2.29,0.98c-1.32,3.45,5.77-0.19,5.69,2.25c-0.52,1.08,0.09,3.44-1.53,3.48c-2.51-0.04-5.01,0.01-7.52-0.03
			c-1.6-0.25-1.1,1.52-1.5,2.52c-0.12,0.49,0.02,0.67,0.54,0.67c6.92-0.01,13.85-0.01,20.77,0c0.93,0.4,1.68-3.42,0.71-3.17
			c-1.53-0.39-8.96,0.93-8.7-0.74c0.6-1.04-0.12-3.57,1.5-3.52c2.22-0.26,5.83,1.21,5.59-2.17c0.09-1.53,0.82-0.5,1.56-0.04
			c1.08,0.59,1.55-1.66,2.29-2.23C201.53,65.87,201.49,65.7,201.16,65.48z"/>
		<path class="st0" d="M169.32,58.18c-1.34-0.16-3.08,0.33-4.23-0.2c1.32-0.27-0.03-1.85-0.09-2.67c-0.47-1.03-2.07,0.32-2.93,0.31
			c-1.23,0.33,1.09,2.45-0.2,2.56c-1.71,0.34-4.01-1.1-3.99,1.56c-1.66,2.84,8.2,0.88,9.94,1.43c2.06,0,2.06,0,2.35-2.06
			C170.3,58.18,170.3,58.18,169.32,58.18z"/>
		<path class="st0" d="M202.11,59.9c0.03,0.73-0.1,1.32-0.32,2c0.13,1.05,0,1.2-0.99,1.2c-0.67-0.18-2.44,0.48-2.44-0.52
			c0.09-1.03,1.03-2.29-0.67-2.01c-4.56,0.05-9.18-0.06-13.71,0.23c-0.91,0.32-0.07,1.58-0.83,2.06c-0.58,0.59-1.76,0.09-2.56,0.24
			c-1.38-0.39,0.2-3.74,0.37-4.93c0.34-2.25,8.17,0.49,9.19-1.14c-0.96-2.03,0.37-1.92,2.15-2.11c2.6-0.83,0.37,3.04,2.96,2.45
			c2.3-0.04,4.58,0.18,6.87-0.01C203.09,57.21,202.36,59.41,202.11,59.9z"/>
		<path class="st0" d="M131.35,74.08c0.86,0.24,1.49-2.71,0.54-2.63c-1.49,0.33-4.04-0.69-4.99,0.51
			C125.53,75.23,129.38,73.77,131.35,74.08z"/>
		<path class="st0" d="M138.19,57.14c-0.76-0.78-3.86,0.77-2.56-1.32c0.15-0.32,0.25-0.68-0.2-0.76c-1.99-0.42-3.12-0.38-3.34,1.92
			c-0.65,0.14-1.91-0.44-2.14,0.36c-0.58,1.59-0.79,3.25-0.91,4.87c-0.63,1.85-0.89,3.78-1.06,5.62c-0.32,0.27-0.55,2.1-0.25,2.11
			c1.72,0.01,3.44,0.02,5.15,0.04c0.87-0.13,0.54,0.34,0.3,0.85c-1.16,4.13,0.31,5.19-4.56,5.06c-0.59,0.3-0.37,0.85-0.38,1.3
			c-0.06,1.94-0.04,1.96,1.9,1.9c0.59,0.14,1.05-0.09,1.6-0.25c0.68,0.26,1.45-0.33,1.74-0.76c1.94-1.55,2.25-7.04,2.8-9.56
			c1.73-2.97-5.25-0.08-5.87-1.83c0.58-1.69,0.59-3.37,1.24-5.21c0.78,0.92,0.83,2.21,2.17,1.09c0.77-0.7,0.83,0.23,0.64,0.73
			c-1.65,1.61-4.31-1.67-2.8,3.42C137.23,67.71,137.52,60.97,138.19,57.14z M135.13,61.01c-1.04,2.28-1.06-2.49-2.92-0.25
			c-0.2,0.22-0.43,0.22-0.7,0.14C130.99,59.27,136.17,59.19,135.13,61.01z"/>
		<path class="st0" d="M106.15,62.07c-1.51-0.51-9.54-5-7.07-6.6c1.52-0.73-4.48-0.72-4.43-0.08c-3.21,3.23-7.06,5.35-11.03,7.27
			c-0.52,0.24,0.73,2.59,1.05,3.03c-0.15,0.45,2.33-0.87,2.46-1.17c3.74-1.47-2.16,2.02,4.72,1.23c0.54-0.04,0.69,0.1,0.52,0.61
			c0.49,3.04-7.58-0.71-7.44,2.15c-1.3,3.98,1.38,1.39,2.42,2.6c-1.1,0.59-3.47,1.15-1.62,2.58c1.71,2.59-1.68,1.39-3.25,1.66
			c-0.79-0.16-0.94,0.7-0.88,1.3c-0.38,0.57-0.58,2.34,0.46,1.91c6.56,0.02,13.11,0.01,19.67,0.01c1.35,0.1,1.2-0.67,1.26-1.78
			c2.09-3.08-5.7-0.01-3.67-2.36c0.26-0.09,0.49-0.35,0.58-0.61c0.2-0.38,1.35-1.2,1.41-1.54c-0.12-0.44-2.77-1.27-1.35-1.47
			c2.63,0.15,2.53-0.04,2.75-2.49c1.13-1.91-6.93,0.22-6.81-1.17c-0.47-3.18,4.9,0.31,4.9-2.54c0.06-0.32-0.03-0.82,0.58-0.73
			c0.62,0.38,1.16,0.92,1.82,1.14c0.61,0.45,0.81,0.73,1.14,0.02C104.56,64.52,107.04,62.11,106.15,62.07z M91.55,71.44
			c-0.93,2.8,0.54,4.46-3.66,4.05c1.2-1.96,2.64-0.71,0.97-3.19C86.47,69.85,92.08,70.19,91.55,71.44z M98.1,70.63
			c1.11,0.42-1.53,2.26-1.89,3.02c-0.81,0.97,0.82,0.97,1.2,1.82c-1-0.25-3.03,0.61-3.14-0.54C94.87,71.99,94.29,69.96,98.1,70.63z
			 M99.28,62.23c-2.19,0.82-5.43,0.04-7.96,0.3c-1.63-0.11,1.35-1.34,1.6-1.88C97.36,57.14,94.78,58.87,99.28,62.23z"/>
		<path class="st0" d="M128.58,56.18c-3.11,0.34-5.26-1.31-5.27,2.91c-1.02,4.87-1.74,9.78-3.05,14.41
			c-0.71,0.21-0.1-0.52-0.42-0.59c0.96-4.73,1.74-8.96,2.53-13.65c1.46-4.59-0.46-2.66-3.86-3.08c-1.39-0.28-1.35,1.94-1.42,2.94
			c-0.32,1.35-0.71,2.73-0.8,4.18c-1.16,4.31-1.66,8.9-3.52,13.07c-0.63,1.08,0.67,1.91,1.14,2.82c0.66-0.37,0.6-1.84,1.23-1.92
			c0.38,0.08,0.13,0.83,0.12,1.28c0.36,1.42,3.25,0.45,3.59-0.89c0.14-0.35,0.36-0.27,0.52,0.04c1.06,2.76,1.26,0.72,2.06-0.89
			c0.55,0.85-0.4,1.96,0.52,2.38c5.12,0.58,3.94-9.04,5.2-12.46c0.42-0.3,0.06-1,0.29-1.49c0.42-0.29,0.06-1.01,0.29-1.49
			c0.44-0.2,0-0.79,0.23-1.22c0.47-0.41,0.15-0.91,0.26-1.43c0.19-0.14,0.28-0.3,0.08-0.5c0.33-0.84,0.32-1.76,0.51-2.77
			c0.17-0.09,0.25-0.21,0.12-0.39C128.99,56.87,129.55,56.1,128.58,56.18z M117.99,71.82c-0.56,1.25,0.07,4.28-1.79,4.25
			c-1.58,0.06,0.56-3.56,0.61-4.6C117.09,70.86,118.32,71.13,117.99,71.82z M119.14,65.76c-0.39,0.82,0.08,2.86-1.13,2.83
			c-1.26-0.06,0.09-2.16-0.04-2.99C118.07,64.76,119.6,64.99,119.14,65.76z M119.15,62.42c-0.92-0.38,0.09-1.8-0.08-2.56
			c0.21-1.08,1.21-1.29,1.28-0.01C119.96,60.64,120.27,62.43,119.15,62.42z M124.13,72.03c-0.53,1.22,0.09,4.03-1.69,4.06
			c-1.62-0.17,0.55-3.17,0.45-4.31C123.1,70.8,124.7,71.22,124.13,72.03z M125.34,65.85c-0.35,0.77,0.02,2.76-1.05,2.79
			c-0.49,0.04-0.73-0.08-0.61-0.58c0.42-0.89-0.07-3.17,1.38-2.93C125.6,65.18,125.39,65.56,125.34,65.85z M126.29,60.63
			c-0.13,0.62-0.36,1.11-0.35,1.76c-1.09,0.03-1.22-0.09-0.95-1.16C124.9,59.3,126.61,57.62,126.29,60.63z"/>
	</g>
	<g>
		<path class="st0" d="M80.82,40.36l1.62-0.14l-0.02,0.4c0,0.44,0.11,0.84,0.33,1.21c0.22,0.37,0.58,0.65,1.09,0.85
			c0.51,0.2,1.11,0.3,1.8,0.3c0.99,0,1.74-0.2,2.26-0.6c0.52-0.4,0.78-0.85,0.78-1.37c0-0.36-0.14-0.68-0.41-0.98
			c-0.28-0.29-1.05-0.68-2.3-1.18c-0.97-0.39-1.63-0.69-1.99-0.89c-0.56-0.34-0.97-0.7-1.23-1.1c-0.26-0.4-0.4-0.85-0.4-1.36
			c0-0.58,0.17-1.11,0.52-1.58c0.35-0.47,0.86-0.83,1.53-1.08c0.67-0.25,1.43-0.37,2.27-0.37c1,0,1.85,0.16,2.54,0.47
			c0.69,0.31,1.19,0.73,1.5,1.24s0.47,1.01,0.47,1.48c0,0.05,0,0.12-0.01,0.23L89.59,36c0-0.32-0.03-0.57-0.09-0.75
			c-0.11-0.32-0.29-0.58-0.52-0.8c-0.24-0.22-0.56-0.39-0.97-0.52c-0.41-0.13-0.87-0.2-1.38-0.2c-0.9,0-1.6,0.19-2.1,0.56
			c-0.38,0.28-0.57,0.66-0.57,1.13c0,0.28,0.08,0.53,0.24,0.75c0.16,0.22,0.44,0.44,0.85,0.65c0.29,0.15,0.98,0.45,2.08,0.89
			c0.89,0.36,1.5,0.65,1.84,0.85c0.45,0.27,0.79,0.61,1.04,1c0.24,0.39,0.36,0.83,0.36,1.33c0,0.62-0.2,1.18-0.61,1.71
			c-0.41,0.52-0.97,0.92-1.69,1.21c-0.72,0.28-1.54,0.43-2.47,0.43c-1.4,0-2.54-0.28-3.42-0.84C81.27,42.83,80.83,41.82,80.82,40.36
			z"/>
		<path class="st0" d="M97.79,42.55c-1.07,1.12-2.17,1.68-3.29,1.68c-0.69,0-1.25-0.18-1.67-0.55c-0.42-0.37-0.64-0.81-0.64-1.34
			c0-0.35,0.1-0.94,0.29-1.79l1.08-4.76h1.52l-1.2,5.27c-0.1,0.44-0.15,0.78-0.15,1.02c0,0.31,0.1,0.55,0.31,0.73
			c0.21,0.17,0.51,0.26,0.91,0.26c0.43,0,0.84-0.09,1.25-0.29c0.41-0.19,0.76-0.45,1.05-0.78c0.29-0.33,0.53-0.71,0.72-1.16
			c0.12-0.28,0.27-0.78,0.43-1.5l0.81-3.56h1.52l-1.87,8.25h-1.41L97.79,42.55z"/>
		<path class="st0" d="M100.53,47.21l2.58-11.41h1.41l-0.26,1.15c0.52-0.5,0.99-0.85,1.4-1.04c0.41-0.19,0.85-0.29,1.31-0.29
			c0.85,0,1.56,0.29,2.12,0.86c0.56,0.57,0.84,1.39,0.84,2.46c0,0.86-0.15,1.64-0.46,2.35c-0.31,0.71-0.69,1.27-1.14,1.71
			c-0.45,0.43-0.9,0.75-1.36,0.95c-0.46,0.2-0.93,0.3-1.41,0.3c-1.07,0-1.9-0.5-2.49-1.51l-1.01,4.48H100.53z M103.54,40.67
			c0,0.62,0.05,1.04,0.14,1.28c0.14,0.34,0.37,0.61,0.69,0.82c0.32,0.21,0.69,0.31,1.11,0.31c0.88,0,1.58-0.45,2.12-1.36
			c0.54-0.91,0.81-1.84,0.81-2.78c0-0.7-0.18-1.24-0.54-1.62c-0.36-0.38-0.81-0.57-1.35-0.57c-0.39,0-0.75,0.09-1.08,0.28
			s-0.64,0.47-0.92,0.85c-0.28,0.38-0.52,0.83-0.7,1.38C103.63,39.79,103.54,40.27,103.54,40.67z"/>
		<path class="st0" d="M116.89,43.02c-0.53,0.42-1.04,0.73-1.52,0.92c-0.49,0.19-1.01,0.29-1.57,0.29c-0.83,0-1.49-0.22-2-0.67
			c-0.51-0.45-0.76-1.02-0.76-1.72c0-0.46,0.11-0.87,0.34-1.22c0.23-0.35,0.53-0.64,0.91-0.85c0.38-0.21,0.84-0.37,1.38-0.46
			c0.34-0.06,0.99-0.11,1.95-0.15c0.96-0.04,1.64-0.13,2.06-0.28c0.12-0.38,0.18-0.7,0.18-0.96c0-0.33-0.13-0.58-0.39-0.77
			c-0.35-0.26-0.87-0.39-1.55-0.39c-0.64,0-1.16,0.13-1.57,0.39c-0.41,0.26-0.7,0.63-0.89,1.11l-1.54-0.12
			c0.31-0.82,0.81-1.44,1.49-1.88c0.68-0.43,1.54-0.65,2.58-0.65c1.11,0,1.98,0.24,2.63,0.73c0.49,0.36,0.74,0.83,0.74,1.41
			c0,0.44-0.07,0.95-0.21,1.53l-0.5,2.05c-0.16,0.65-0.24,1.18-0.24,1.59c0,0.26,0.06,0.63,0.19,1.12h-1.54
			C116.99,43.77,116.93,43.43,116.89,43.02z M117.46,39.86c-0.21,0.08-0.44,0.14-0.69,0.18c-0.24,0.04-0.65,0.08-1.23,0.13
			c-0.89,0.07-1.51,0.17-1.88,0.28c-0.37,0.11-0.64,0.29-0.83,0.53c-0.19,0.24-0.28,0.51-0.28,0.81c0,0.39,0.15,0.72,0.44,0.97
			c0.29,0.25,0.71,0.38,1.26,0.38c0.51,0,0.99-0.12,1.46-0.37c0.47-0.25,0.83-0.59,1.1-1.03C117.1,41.3,117.31,40.68,117.46,39.86z"
			/>
		<path class="st0" d="M120.46,44.04l1.87-8.25h1.35l-0.38,1.69c0.46-0.64,0.91-1.11,1.35-1.41c0.44-0.31,0.89-0.46,1.35-0.46
			c0.3,0,0.68,0.1,1.12,0.3l-0.62,1.31c-0.26-0.18-0.55-0.26-0.87-0.26c-0.53,0-1.08,0.27-1.64,0.82c-0.56,0.55-1,1.54-1.32,2.96
			l-0.76,3.31H120.46z"/>
		<path class="st0" d="M126.2,44.04l1.87-8.25h1.38l-0.33,1.44c0.6-0.56,1.16-0.98,1.68-1.23c0.52-0.26,1.06-0.39,1.6-0.39
			c0.72,0,1.29,0.18,1.71,0.54c0.41,0.36,0.62,0.85,0.62,1.45c0,0.31-0.07,0.79-0.22,1.44l-1.14,4.99h-1.52l1.19-5.23
			c0.12-0.51,0.18-0.88,0.18-1.13c0-0.27-0.1-0.5-0.31-0.67c-0.21-0.17-0.5-0.26-0.89-0.26c-0.78,0-1.48,0.26-2.08,0.78
			c-0.61,0.52-1.06,1.41-1.34,2.66l-0.87,3.84H126.2z"/>
		<path class="st0" d="M141.82,43.02c-0.53,0.42-1.04,0.73-1.52,0.92c-0.49,0.19-1.01,0.29-1.57,0.29c-0.83,0-1.49-0.22-2-0.67
			c-0.51-0.45-0.76-1.02-0.76-1.72c0-0.46,0.11-0.87,0.34-1.22c0.23-0.35,0.53-0.64,0.91-0.85c0.38-0.21,0.84-0.37,1.38-0.46
			c0.34-0.06,0.99-0.11,1.95-0.15c0.96-0.04,1.64-0.13,2.06-0.28c0.12-0.38,0.18-0.7,0.18-0.96c0-0.33-0.13-0.58-0.39-0.77
			c-0.35-0.26-0.87-0.39-1.55-0.39c-0.64,0-1.16,0.13-1.57,0.39c-0.41,0.26-0.7,0.63-0.89,1.11l-1.54-0.12
			c0.31-0.82,0.81-1.44,1.49-1.88c0.68-0.43,1.54-0.65,2.58-0.65c1.11,0,1.98,0.24,2.63,0.73c0.49,0.36,0.74,0.83,0.74,1.41
			c0,0.44-0.07,0.95-0.21,1.53l-0.5,2.05c-0.16,0.65-0.24,1.18-0.24,1.59c0,0.26,0.06,0.63,0.19,1.12h-1.54
			C141.91,43.77,141.85,43.43,141.82,43.02z M142.38,39.86c-0.21,0.08-0.44,0.14-0.69,0.18c-0.24,0.04-0.65,0.08-1.23,0.13
			c-0.89,0.07-1.51,0.17-1.88,0.28c-0.37,0.11-0.64,0.29-0.83,0.53c-0.19,0.24-0.28,0.51-0.28,0.81c0,0.39,0.15,0.72,0.44,0.97
			c0.29,0.25,0.71,0.38,1.26,0.38c0.51,0,0.99-0.12,1.46-0.37c0.47-0.25,0.83-0.59,1.1-1.03C142.02,41.3,142.23,40.68,142.38,39.86z
			"/>
		<path class="st0" d="M148.61,44.04l7-11.39h1.94l2.04,11.39h-1.6l-0.6-3.28h-4.99l-1.98,3.28H148.61z M153.11,39.59h4.08
			l-0.48-2.86c-0.19-1.13-0.3-2.08-0.35-2.84c-0.28,0.65-0.69,1.43-1.23,2.32L153.11,39.59z"/>
		<path class="st0" d="M160.97,44.04l1.87-8.25h1.52l-1.87,8.25H160.97z M163.19,34.25l0.36-1.59h1.52l-0.36,1.59H163.19z"/>
		<path class="st0" d="M164.86,44.04l1.87-8.25h1.35l-0.38,1.69c0.46-0.64,0.91-1.11,1.35-1.41c0.44-0.31,0.89-0.46,1.35-0.46
			c0.3,0,0.68,0.1,1.12,0.3l-0.62,1.31c-0.26-0.18-0.55-0.26-0.87-0.26c-0.53,0-1.08,0.27-1.64,0.82c-0.56,0.55-1,1.54-1.32,2.96
			l-0.76,3.31H164.86z"/>
		<path class="st0" d="M170.49,44.04l2.58-11.39h1.52l-2.58,11.39H170.49z"/>
		<path class="st0" d="M174.38,44.04l1.87-8.25h1.52l-1.87,8.25H174.38z M176.6,34.25l0.36-1.59h1.52l-0.36,1.59H176.6z"/>
		<path class="st0" d="M178.27,44.04l1.87-8.25h1.38l-0.33,1.44c0.6-0.56,1.16-0.98,1.68-1.23c0.52-0.26,1.06-0.39,1.6-0.39
			c0.72,0,1.29,0.18,1.71,0.54c0.41,0.36,0.62,0.85,0.62,1.45c0,0.31-0.07,0.79-0.22,1.44l-1.14,4.99h-1.52l1.19-5.23
			c0.12-0.51,0.18-0.88,0.18-1.13c0-0.27-0.1-0.5-0.31-0.67c-0.21-0.17-0.5-0.26-0.89-0.26c-0.78,0-1.48,0.26-2.08,0.78
			c-0.61,0.52-1.06,1.41-1.34,2.66l-0.87,3.84H178.27z"/>
		<path class="st0" d="M194.42,41.24l1.48,0.14c-0.21,0.68-0.7,1.32-1.47,1.93c-0.77,0.61-1.68,0.92-2.74,0.92
			c-0.66,0-1.27-0.14-1.82-0.42c-0.55-0.28-0.97-0.69-1.26-1.23c-0.29-0.54-0.43-1.15-0.43-1.84c0-0.9,0.23-1.78,0.68-2.62
			c0.45-0.85,1.04-1.48,1.76-1.89c0.72-0.41,1.5-0.62,2.33-0.62c1.07,0,1.92,0.31,2.56,0.92c0.64,0.61,0.96,1.44,0.96,2.5
			c0,0.4-0.04,0.82-0.12,1.24h-6.58c-0.02,0.16-0.03,0.31-0.03,0.43c0,0.77,0.19,1.36,0.58,1.77c0.38,0.41,0.85,0.61,1.41,0.61
			c0.52,0,1.04-0.16,1.54-0.47C193.75,42.29,194.14,41.83,194.42,41.24z M189.99,39.2h5.02c0.01-0.15,0.01-0.25,0.01-0.31
			c0-0.7-0.19-1.24-0.57-1.62c-0.38-0.38-0.87-0.56-1.47-0.56c-0.65,0-1.25,0.21-1.78,0.62C190.66,37.74,190.26,38.36,189.99,39.2z"
			/>
		<path class="st0" d="M197.59,41.22l1.52-0.09c0,0.4,0.07,0.75,0.2,1.03c0.13,0.28,0.38,0.52,0.75,0.7
			c0.36,0.18,0.78,0.27,1.27,0.27c0.67,0,1.18-0.12,1.52-0.37c0.34-0.25,0.5-0.54,0.5-0.88c0-0.24-0.1-0.47-0.3-0.69
			c-0.21-0.22-0.71-0.48-1.52-0.8c-0.81-0.32-1.32-0.54-1.54-0.67c-0.38-0.21-0.66-0.46-0.85-0.75c-0.19-0.29-0.29-0.62-0.29-0.99
			c0-0.65,0.28-1.21,0.84-1.68c0.56-0.47,1.35-0.7,2.36-0.7c1.12,0,1.98,0.24,2.56,0.72c0.59,0.48,0.89,1.11,0.91,1.89l-1.49,0.09
			c-0.02-0.5-0.21-0.89-0.57-1.18c-0.36-0.29-0.87-0.43-1.52-0.43c-0.53,0-0.94,0.11-1.23,0.33s-0.44,0.46-0.44,0.72
			c0,0.26,0.13,0.49,0.38,0.68c0.17,0.14,0.6,0.34,1.31,0.62c1.17,0.47,1.9,0.83,2.21,1.1c0.48,0.43,0.72,0.95,0.72,1.57
			c0,0.41-0.14,0.81-0.41,1.2c-0.27,0.39-0.69,0.71-1.25,0.94c-0.56,0.24-1.22,0.35-1.97,0.35c-1.03,0-1.91-0.24-2.64-0.71
			C197.89,43.05,197.55,42.29,197.59,41.22z"/>
	</g>
</g>
</svg>
