<?xml version="1.0" encoding="utf-8"?>
<!-- Generator: Adobe Illustrator 25.4.1, SVG Export Plug-In . SVG Version: 6.00 Build 0)  -->
<svg version="1.1" id="Layer_1" xmlns="http://www.w3.org/2000/svg" xmlns:xlink="http://www.w3.org/1999/xlink" x="0px" y="0px"
	 viewBox="0 0 122.35 80.27" style="enable-background:new 0 0 122.35 80.27;" xml:space="preserve">
<style type="text/css">
	.st0{fill-rule:evenodd;clip-rule:evenodd;fill:#E30016;}
	.st1{fill-rule:evenodd;clip-rule:evenodd;fill:#FFDD04;}
</style>
<g>
	<path class="st0" d="M0,52.21c5.1-4.33,9.2-6.13,13.38-7.2c38.8-8.87,58.76,28.49,86.68,26.25c-15.19,14.1-36.27,8.92-50.65-0.05
		C34.17,62.08,18.53,51.58,0,52.21z"/>
	<path class="st0" d="M74.21,61.58c7.59,5.49,20.82,12.16,31.47,5.09c-10.42,2.71-14.54-5.24-20.5-5.7
		C80.54,60.29,78.45,62.7,74.21,61.58z"/>
	<g>
		<path class="st0" d="M122.35,56.13c-6.89-2.73-20.13-6.55-28.37,0.01c14.71-0.23,12.64,4.25,18.48,3.49
			C117.06,59.13,118.73,56.23,122.35,56.13z"/>
	</g>
	<path class="st0" d="M85.44,60.14c10-7.2,17.85,2.51,26.45,0.8C102.38,70.88,91.87,59.44,85.44,60.14z"/>
	<path class="st1" d="M61.46,0c28.57,0.18,51.77,23.41,52.03,51.89c-1.56-0.48-13.06-3.36-22.6,3.87c-2.08,0.62-5.02,1.73-6.84,3.04
		c-2.21-0.03-6.99,0.02-10.96,1.17c-0.32-0.08-0.83-0.27-1.11-0.37c-13.57-5.84-29.41-24.24-62.45-16c-0.01,0-0.01,0-0.02,0
		C13.72,18.78,35.49-0.16,61.46,0z"/>
</g>
</svg>
