<?xml version="1.0" encoding="utf-8"?>
<!-- Generator: Adobe Illustrator 25.4.1, SVG Export Plug-In . SVG Version: 6.00 Build 0)  -->
<svg version="1.1" id="Layer_1" xmlns="http://www.w3.org/2000/svg" xmlns:xlink="http://www.w3.org/1999/xlink" x="0px" y="0px"
	 viewBox="0 0 450.07 80.27" style="enable-background:new 0 0 450.07 80.27;" xml:space="preserve">
<style type="text/css">
	.st0{fill-rule:evenodd;clip-rule:evenodd;fill:#E30016;}
	.st1{fill-rule:evenodd;clip-rule:evenodd;fill:#FFDD04;}
	.st2{fill-rule:evenodd;clip-rule:evenodd;fill:#122F66;}
</style>
<g>
	<g>
		<path class="st0" d="M0,52.21c5.1-4.33,9.2-6.13,13.38-7.2c38.8-8.87,58.76,28.49,86.68,26.25c-15.19,14.1-36.27,8.92-50.65-0.05
			C34.17,62.08,18.53,51.58,0,52.21z"/>
		<path class="st0" d="M74.21,61.58c7.59,5.49,20.82,12.16,31.47,5.09c-10.42,2.71-14.54-5.24-20.5-5.7
			C80.54,60.29,78.45,62.7,74.21,61.58z"/>
		<g>
			<path class="st0" d="M122.35,56.13c-6.89-2.73-20.13-6.55-28.37,0.01c14.71-0.23,12.64,4.25,18.48,3.49
				C117.06,59.13,118.73,56.23,122.35,56.13z"/>
		</g>
		<path class="st0" d="M85.44,60.14c10-7.2,17.85,2.51,26.45,0.8C102.38,70.88,91.87,59.44,85.44,60.14z"/>
		<path class="st1" d="M61.46,0c28.57,0.18,51.77,23.41,52.03,51.89c-1.56-0.48-13.06-3.36-22.6,3.87
			c-2.08,0.62-5.02,1.73-6.84,3.04c-2.21-0.03-6.99,0.02-10.96,1.17c-0.32-0.08-0.83-0.27-1.11-0.37
			c-13.57-5.84-29.41-24.24-62.45-16c-0.01,0-0.01,0-0.02,0C13.72,18.78,35.49-0.16,61.46,0z"/>
	</g>
	<g>
		<path class="st2" d="M144.1,55.35h-5.36L135.03,80h6.13l1.15-9.32c0,0,0.26-2.04,3.32-1.41s16.99,3.19,16.99,3.19
			s3.32,0.38,3.07,3.19c-0.26,2.81-0.64,4.34-0.64,4.34h5.24l1.15-6c0,0,1.41-4.47-4.34-5.62c-5.75-1.15-15.07-2.55-15.07-2.55
			l21.2-6.51l0.77-5.24l-30.78,9.45L144.1,55.35z"/>
		<polygon class="st2" points="175.52,80 181.4,80 185.87,55.09 179.99,55.09 		"/>
		<polygon class="st2" points="323.18,80 329.06,80 333.53,55.09 327.65,55.09 		"/>
		<polygon class="st2" points="261.8,64.03 238.55,64.03 240.15,55.09 234.28,55.09 229.81,80 235.68,80 237.79,68.25 261.04,68.25 
			258.93,80 264.81,80 269.28,55.09 263.4,55.09 		"/>
		<path class="st2" d="M315.96,55.15v-0.09h-24.21l-0.02,0.04c-3.28,0.13-6.05,2.52-6.64,5.77L281.67,80h5.88l2.11-11.75h23.25
			L310.79,80h5.88l3.43-19.12C320.6,58.1,318.67,55.53,315.96,55.15z M290.41,64.03l0.36-2.02c0.28-1.59,1.66-2.74,3.27-2.74h18.56
			c0.99,0,1.74,0.9,1.57,1.87l-0.52,2.88H290.41z"/>
		<path class="st2" d="M193.59,57.65c-1.28,3.07-2.3,6.39-2.3,6.39s-0.96,3.51,1.85,3.51h23.69c3.13,0,2.94,3.58,1.85,5.88
			c-0.86,1.83-2.81,2.08-3.57,2.11h-25.04L189.19,80h30.53c2.75,0,6.32-9.26,5.24-12.45c-0.84-2.47-3.89-2.84-5.23-2.88
			c-0.4-0.01-0.64,0-0.64,0h-20.57c0,0-2.11,0-1.53-2.17c0.57-2.17,0.83-2.94,2.94-2.94h26.7l0.89-4.47h-29.83
			C197.68,55.09,194.87,54.58,193.59,57.65z"/>
		<path class="st2" d="M369.34,55.09c-3.45,0-17.92,0-24.57,0h-3.36h-2.51L334.42,80h5.88l1.81-10.06v0L370.19,80l0.51-5.54
			l-19.25-6.56h14.65c0,0,4.17-0.43,5.36-3.87c1.19-3.45,1.53-4.9,1.53-4.9S373.85,55.09,369.34,55.09z M367.89,60.42
			c-0.51,1.44-1.02,2.47-1.02,2.47s-0.77,1.15-2.73,1.15c-1.61,0-15.92,0-20.98,0l0.56-3.1c0.31-0.76,1.29-1.8,4.33-1.8
			c4.77,0,18.48,0,18.48,0S368.4,58.98,367.89,60.42z"/>
		<path class="st2" d="M289.66,30.26c1.4,0,4.98-0.24,7.4-2.53c1.48-1.39,2.26-3.29,2.26-5.47v-7.83h-5.76v7.83
			c0,0.75-0.22,1.06-0.44,1.27c-0.86,0.82-2.84,1-3.66,0.96l-22.99-0.01v5.76h6.15v2.74c0,0.73-0.25,1.06-0.52,1.31
			c-1.41,1.3-5.05,1.47-6.58,1.35l-0.12-0.01h-23.62v5.76h23.39c0.24,0.02,0.7,0.04,1.31,0.04c2.31,0,6.75-0.36,9.51-2.9
			c1.56-1.44,2.39-3.36,2.39-5.55v-2.74h10.84C289.32,30.26,289.47,30.26,289.66,30.26z"/>
		<path class="st2" d="M195.18,28.45c0.89,0.89,2.4,1.84,4.78,1.84c2.36,0,4.16-0.91,5.49-2.17c0.98,1.1,2.38,1.99,4.33,2.44
			c1.07,0.25,2.21,0.37,3.38,0.37c3.21,0,6.57-0.92,9.01-2.56c0.87,0.94,2.4,1.91,4.96,1.91h26.95c0.06,0,0.13,0,0.2,0
			c2.42,0,6.99-1.47,8.56-7.17c0.27-0.97,1.98-4.57,0.32-6.74c-1.73-2.26-5.69-1.59-8.92-1.56c-0.31,0-0.63,0-0.95,0h-13.11l0.03,0
			l-0.08,0.01c0,0,0,0,0,0c-0.34,0-0.78-0.13-0.87-0.23c0,0-0.18-0.4,0.22-1.59c1.2-3.55,1.81-3.84,8.11-3.84h17.63V4.18h-17.63
			c-6.64,0-10.5,0.34-12.84,7.23c-1.06,3.12-1.13,5.67-0.32,6.76c1.63,2.19,5.23,1.65,5.77,1.65h13.09c0.33,0,0.66,0,0.98,0
			c1.36-0.01,2.28,0.11,2.89,0.41c0.03,0.18,0.88,0.58,0.6,1.61c-0.91,3.28-2.96,3.46-3.51,3.47l-27.11,0
			c-0.66,0-1.15-0.13-1.32-0.34c-0.17-0.22-0.23-0.65-0.23-1.08c0.05-0.23,0.09-0.47,0.11-0.71c0.34-3.63,0.68-7.82,0.68-7.86
			l-4.98-0.41c0,0.04-0.3,3.72-0.62,7.16c-0.04,0.21-0.1,0.52-0.14,0.91c-0.14,0.3-0.47,0.7-1.08,1.14
			c-1.84,1.32-5.49,2.33-8.64,1.59c-2.09-0.49-2.47-1.89-2.41-3.01c0.02-0.1,0.04-0.19,0.06-0.28l0.69-7.07l-4.97-0.48l-0.6,6.21
			c-0.05,0.24-0.09,0.49-0.12,0.74c-0.28,0.96-1.23,3.48-3.61,3.48c-0.91,0-1.19-0.31-1.3-0.42c-0.59-0.65-0.67-2.09-0.62-2.68l0,0
			c0.02-0.19,0.04-0.38,0.06-0.58c0.17-2.15,0.34-6.23,0.35-6.4l-4.99-0.2c0,0.04-0.17,4.15-0.33,6.2
			c-0.33,4.09-2.21,4.09-3.22,4.09c-1.12,0-1.7-0.53-1.99-1.16c0.44-4.7,0.81-8.72,0.81-8.78L183,14.85
			c-0.01,0.09-0.82,9.01-1.49,15.82c-0.41,4.13-4.92,4.91-5.81,5.02h-28.04v-2.86c0-1.28,0.44-1.69,0.58-1.83
			c0.7-0.67,2.07-0.76,2.47-0.74l0.1,0.01h22.5V24.5h-22.32c-0.78-0.04-4.18-0.04-6.66,2.27c-1.11,1.03-2.43,2.92-2.43,6.06v8.77
			h5.76v-0.15h28.33l0.13-0.01c3.53-0.32,10.4-2.87,11.12-10.2c0.04-0.44,0.09-0.89,0.13-1.34c0.78,0.26,1.63,0.41,2.54,0.41
			C191.17,30.3,193.36,30.03,195.18,28.45z"/>
		<polygon class="st2" points="211.16,41.45 224.11,41.45 225.47,35.69 212.52,35.69 		"/>
		<path class="st2" d="M211.16,6.05h-0.01c0.2-0.64,0.33-1.07,0.33-1.07s1.16-1.79-1.05-3.15c-2.21-1.36-1.53,0.6-3.06-0.43
			c-1.53-1.02-2.9-2.13-3.41-0.77c-0.51,1.36-1.79,3.41,0,3.75c1.79,0.34,2.85,1.67,0.49,1.67h-10.21l-1.78,5.76h16.92L211.16,6.05z
			"/>
		<polygon class="st2" points="294.82,35.69 281.88,35.69 280.52,41.45 293.46,41.45 		"/>
		<polygon class="st2" points="348.56,41.45 349.92,35.69 336.98,35.69 335.61,41.45 		"/>
		<path class="st2" d="M359.71,41.45h8.78l1.61-5.76h-15.26l-0.8,2.88c0,0-0.15,0.53-0.36,1.28l-0.45,1.6h0.01
			c-0.4,1.48-0.82,3.04-0.86,3.38c-0.09,0.68,1.02,2.47,3.58,2.38c2.55-0.09,3.07,1.62,4.17,1.11c1.11-0.51,1.7-3.41,0.6-4.09
			C359.63,43.55,357.59,41.45,359.71,41.45z"/>
		<path class="st2" d="M323.09,20.12c0.03,0,0.06,0,0.09,0h10.35l0.14,0c1.03-0.05,2.23,0.24,2.53,0.5c0,0.05,0.01,0.15-0.02,0.31
			c-0.3,1.77-0.52,3.07-0.68,3.99h-10.53v5.76h37.1c0.03,0,0.05,0,0.09,0c0.52,0,1.91-0.08,3.39-0.81c2.34-1.16,3.82-3.4,4.19-6.31
			c0.58-4.64,1.25-9.6,1.26-9.64l-5.68,0.03c-0.03,0.17-0.7,4.12-1.3,8.9c-0.17,1.35-0.78,2.05-1.82,2.08h-5.58l1.69-10.91
			l-5.83-0.02l-1.7,10.93h-9.43c0.14-0.81,0.31-1.8,0.52-3.02c0.42-2.49-0.49-4.14-1.33-5.08c-2.23-2.49-6.1-2.5-7.07-2.46h-10.28
			c-2.29,0-3.66,1.03-4.41,1.89c-1.54,1.77-1.56,4.08-1.49,5.08c-0.21,1.79-1.07,2.4-1.81,2.74c-1.04,0.47-2.14,0.44-2.16,0.44
			l-4-0.01l2.42-20.04h-5.8l-3.11,25.8h10.23c0.16,0.01,0.31,0.01,0.47,0.01c3.74,0,8.99-2.23,9.53-8.71l0.05-0.25l-0.06-0.35
			C323.01,20.7,323.04,20.34,323.09,20.12z"/>
		<polygon class="st2" points="385.04,4.3 379.19,4.3 374.6,29.85 380.45,29.85 		"/>
		<path class="st2" d="M448.69,16.5c-1.55-1.82-3.84-2.03-5.43-2.03h-24l-2.07,10.61l-6.29,0c0.33-2.03,0.54-3.42,0.55-3.55
			l0.02-0.22c0.03-0.47,0.1-2.94-1.7-4.87c-0.83-0.89-2.37-1.96-4.92-1.96h-11.1c-0.75-0.06-2.56-0.05-4.2,1.2
			c-0.93,0.71-2.1,2.08-2.39,4.54c-0.05,0.4-0.1,0.8-0.15,1.2c-0.39,3.02-0.76,5.87,0.99,7.86c0.62,0.71,1.76,1.55,3.64,1.55H404
			c-0.12,0.59-0.23,1.17-0.36,1.75c-0.6,2.85-2.72,3.1-3.43,3.1c0,0,0,0-0.01,0l-27.15,0v5.76h26.96c0.08,0,0.16,0,0.25,0
			c2.74,0,7.73-1.57,9.02-7.67c0.21-0.97,0.4-1.96,0.59-2.94h30.85c3.23,0.3,8.17-1.19,9.04-6.58
			C450.21,21.41,450.4,18.51,448.69,16.5z M405.05,25.08h-12.6c0.01-0.8,0.17-2.02,0.28-2.91c0.05-0.42,0.11-0.85,0.16-1.28
			c0.05-0.47,0.17-0.63,0.16-0.63c0.03-0.02,0.1-0.03,0.17-0.03l0.05,0.02h11.57c0.49,0,0.69,0.1,0.71,0.13
			c0.07,0.07,0.14,0.32,0.15,0.52C405.63,21.44,405.39,23.03,405.05,25.08z M430.53,25.08h-7.48l0.95-4.85h7.42L430.53,25.08z
			 M444.07,23.34c-0.28,1.73-1.94,1.84-2.87,1.76l-0.16-0.02h-4.65l0.89-4.85h5.98c0.53,0,0.85,0.04,1.02,0.08
			C444.33,20.64,444.37,21.46,444.07,23.34z"/>
	</g>
</g>
</svg>
