<?xml version="1.0" encoding="utf-8"?>
<!-- Generator: Adobe Illustrator 25.4.1, SVG Export Plug-In . SVG Version: 6.00 Build 0)  -->
<svg version="1.1" id="Layer_4" xmlns="http://www.w3.org/2000/svg" xmlns:xlink="http://www.w3.org/1999/xlink" x="0px" y="0px"
	 viewBox="0 0 125.43 80.27" style="enable-background:new 0 0 125.43 80.27;" xml:space="preserve">
<style type="text/css">
	.st0{fill-rule:evenodd;clip-rule:evenodd;fill:#E23439;}
</style>
<g>
	<path class="st0" d="M125.43,0H63.12C48,0,36.75,5.77,34.17,12.06c-2.63,6.4-11.72,28.08-14.07,33.77
		c-2.35,5.69,3.75,10.84,14.47,14.07c-4.82,3.52-10.77,7.75-16.88,12.46H2.41L0,80h41l2.41-6.83h-5.23L49.05,59.1h21.71l-8.44,14.87
		h-7.24L53.07,80h44.22l2.82-7.24h-8.84L125.43,0z M73.57,46.23H51.86c0,0,3.71-13.46,6.43-19.7c1.99-4.56,7.24-12.86,7.24-12.86
		h24.12L73.57,46.23z"/>
</g>
</svg>
