<?xml version="1.0" encoding="utf-8"?>
<!-- Generator: Adobe Illustrator 25.4.1, SVG Export Plug-In . SVG Version: 6.00 Build 0)  -->
<svg version="1.1" id="Layer_4" xmlns="http://www.w3.org/2000/svg" xmlns:xlink="http://www.w3.org/1999/xlink" x="0px" y="0px"
	 viewBox="0 0 749.92 80.27" style="enable-background:new 0 0 749.92 80.27;" xml:space="preserve">
<style type="text/css">
	.st0{fill-rule:evenodd;clip-rule:evenodd;fill:#308ECD;}
	.st1{fill-rule:evenodd;clip-rule:evenodd;fill:#FFFFFF;}
	.st2{fill-rule:evenodd;clip-rule:evenodd;fill:#E23439;}
</style>
<g>
	<g id="g24" transform="translate(368.8555,803.4258)">
		<path id="path26" class="st0" d="M-301.67-735.47h615.16l21.75-15.14l-657.1,1.16L-301.67-735.47z M-324.58-751.39l662.54-1.17
			l20.19-13.98l-702.92,0.78L-324.58-751.39z M-368.86-782.46l20.97,14.76l708.75-0.78l20.2-13.98H-368.86z"/>
	</g>
	<g id="g40" transform="translate(922.998,838.396)">
		<path id="path42" class="st1" d="M-462.08-795.29h-18.64l23.69-20.97L-462.08-795.29z M-425.19-838.4h-30.29
			c0,0-67.41,65.46-69.9,67.57c-2.5,2.11-4,3.11-5.05,3.11h-9.32l-2.72,9.32h37.67v-8.93c0,0-2.5,0.2-3.11-0.78
			c-0.55-0.88,0.6-1.93,1.55-3.11c2.69-3.33,6.99-7.38,6.99-7.38h33.79c0,0-1.19,3.53-2.33,6.6c-0.81,2.16-0.82,3.03-2.72,3.5
			c-1.51,0.37-5.83,1.16-5.83,1.16l-0.39,8.93h48.55c0,0-0.13-7.25,0-9.32c-3.43-0.19-6.54-0.02-7.38-1.94
			c-0.83-1.9-0.15-1.99,1.94-16.7C-430.76-807.28-425.19-838.4-425.19-838.4 M-711.41-793.74h-17.87c0,0,3.59-11.45,6.21-17.47
			c1.92-4.4,6.21-10.49,6.21-10.49h19.42L-711.41-793.74z M-657.43-838.4h-62.91c-16,0-26.71,5.5-29.9,12.82
			c-2.68,6.13-10.93,27.52-13.2,33.01c-2.28,5.49,1.68,10.86,12.04,13.98c-4.65,3.4-7.69,5.55-13.59,10.1h-15.14l-3.5,10.09h43.11
			l3.5-9.32h-4.27l7.77-10.1h17.47l-6.21,10.88h-6.99l-3.11,8.54h46.21l3.88-9.71h-8.54L-657.43-838.4z M-317.61-768.49
			c-2.14-0.58-2.23-2.14-1.94-4.66c0.29-2.53,10.1-65.24,10.1-65.24h-29.9c0,0-39.4,39-62.91,61.36c-1.95,1.85-8.66,9.78-20.58,9.71
			c-0.4,1.86-1.55,8.93-1.55,8.93h34.56l0.78-8.93c0,0-3.56-0.06-3.88-1.55c-0.23-1.08,0.53-1.41,2.33-3.11
			c2.07-1.96,46.6-44.27,46.6-44.27s-6.09,44.74-5.44,39.61c-0.29,2.26-1.43,4.66-2.72,6.21c-1.66,2-4.56,2.16-7.77,2.72
			c-0.39,2.2-1.55,9.32-1.55,9.32h49.32l0.39-10.09C-311.79-768.49-316.07-768.07-317.61-768.49 M-548.69-769.66
			c0.64-6.1,6.33-17.55,8.16-21.36c1.61-3.36,22.91-47.38,22.91-47.38h-33.01l-42.72,37.67l-8.54-37.67h-33.4
			c0,0-24.34,55.83-27.96,63.3c-2.49,5.13-6.88,6.71-12.82,6.99c-0.41,1.38-2.33,9.71-2.33,9.71h47.38l4.27-10.09h-6.6l20.58-48.16
			l11.65,41.55l34.95-31.07c0,0-10.1,25.97-11.65,31.07c-1.48,4.88-4.61,7.65-12.82,7.77c-0.57,1.31-4.27,8.93-4.27,8.93h46.6
			c0,0,2.39-6.77,2.72-8.15C-547-766.99-548.89-767.76-548.69-769.66"/>
	</g>
	<g id="g44" transform="translate(924.6377,836.4834)">
		<path id="path46" class="st2" d="M-462.56-792.02h-24.08l30.29-27.19L-462.56-792.02z M-429.16-835.12h-26.8
			c0,0-68.96,66.24-71.46,68.35c-2.5,2.11-3.61,1.94-4.66,1.94h-8.16l-1.94,6.99h33.01l0.39-6.6c0,0-2.11-0.19-2.72-1.16
			c-0.55-0.89-0.17-2.32,0.78-3.5c2.69-3.33,8.54-9.32,8.54-9.32h36.89c0,0-1.96,5.77-3.11,8.83c-0.81,2.16-2.38,3.91-4.27,4.37
			c-1.51,0.37-3.5,0.77-3.5,0.77l-0.78,6.6h44.66c0,0,0.26-4.53,0.39-6.6c-3.43-0.19-6.54-0.79-7.38-2.72
			c-0.83-1.9-0.15-2.77,1.94-17.47C-434.34-805.56-429.16-835.12-429.16-835.12 M-712.27-790.46h-20.97c0,0,3.59-13,6.21-19.03
			c1.92-4.4,6.99-12.43,6.99-12.43h23.3L-712.27-790.46z M-662.17-835.12h-60.2c-14.6,0-25.47,5.58-27.96,11.65
			c-2.54,6.18-11.32,27.13-13.59,32.62c-2.27,5.49,3.62,10.47,13.98,13.59c-4.65,3.4-10.4,7.49-16.31,12.04h-14.76l-2.33,7.38h39.61
			l2.33-6.6h-5.05l10.49-13.59h20.97l-8.15,14.37h-6.99l-1.94,5.82h42.72l2.72-6.99h-8.54L-662.17-835.12z M-320.81-765.22
			c-2.14-0.58-3.01-3.69-2.72-6.22c0.29-2.52,10.49-63.69,10.49-63.69h-27.18c0,0-38.63,37.83-62.14,60.2
			c-1.95,1.85-9.43,10.56-21.36,10.48c-0.4,1.86-1.17,6.6-1.17,6.6h31.07l0.78-6.21c0,0-3.18-0.45-3.5-1.94
			c-0.23-1.08,0.14-2.96,1.94-4.66c2.07-1.96,50.87-48.16,50.87-48.16s-6.88,49.2-6.22,44.08c-0.29,2.26-1.42,5.24-2.71,6.79
			c-1.66,2-4.56,2.95-7.77,3.5c-0.39,2.2-1.16,6.6-1.16,6.6h45.83l0.39-6.99C-315.37-764.83-319.26-764.8-320.81-765.22
			 M-544.5-789.3c1.61-3.36,21.75-45.44,21.75-45.44h-29.13l-44.27,38.45l-8.93-38.84h-30.29c0,0-24.59,54.88-28.22,62.36
			c-2.49,5.13-7.01,8.05-12.95,8.32c-0.41,1.38-1.94,6.6-1.94,6.6h44.27l3.11-7.38h-6.6l22.91-54.37l12.82,43.11l37.28-33.01
			c0,0-12.04,31.4-13.59,36.51c-1.49,4.88-4.61,8.43-12.82,8.54c-0.57,1.31-3.11,6.6-3.11,6.6h42.72c0,0,1.99-5.22,2.33-6.6
			c-1.42-0.44-3.31-1.6-3.11-3.5C-551.62-774.04-546.32-785.49-544.5-789.3"/>
	</g>
</g>
</svg>
