<?xml version="1.0" encoding="utf-8"?>
<!-- Generator: Adobe Illustrator 25.4.1, SVG Export Plug-In . SVG Version: 6.00 Build 0)  -->
<svg version="1.1" xmlns="http://www.w3.org/2000/svg" xmlns:xlink="http://www.w3.org/1999/xlink" x="0px" y="0px"
	 viewBox="0 0 101 80" style="enable-background:new 0 0 101 80;" xml:space="preserve">
<style type="text/css">
	.st0{fill:#EA9834;}
	.st1{fill:#6E3788;}
</style>
<g id="Layer_1">
</g>
<g id="Layer_2">
	<path class="st0" d="M101,0c-8.8,10-20.8,10.5-33.9,14C54,17.6,53.7,33.4,53.7,33.4V80l5.4-5.6c0,0,0.2-4.7,0.2-18.3
		S73.6,40,88.1,29.5C102.6,18.9,101,0,101,0z"/>
	<path class="st1" d="M33.9,14C20.8,10.5,8.8,10,0.1,0c0,0-1.6,18.9,12.9,29.5C27.5,40,41.8,42.5,41.8,56.2S42,74.4,42,74.4l5.4,5.6
		V33.4C47.4,33.4,47,17.6,33.9,14z"/>
</g>
</svg>
