<?xml version="1.0" encoding="utf-8"?>
<!-- Generator: Adobe Illustrator 25.4.1, SVG Export Plug-In . SVG Version: 6.00 Build 0)  -->
<svg version="1.1" xmlns="http://www.w3.org/2000/svg" xmlns:xlink="http://www.w3.org/1999/xlink" x="0px" y="0px"
	 viewBox="0 0 508.5 80" style="enable-background:new 0 0 508.5 80;" xml:space="preserve">
<style type="text/css">
	.st0{fill:#EA9834;}
	.st1{fill:#6E3788;}
</style>
<g id="Layer_1">
</g>
<g id="Layer_2">
	<g>
		<path class="st0" d="M99,0c-8.6,9.8-20.4,10.3-33.2,13.8c-12.8,3.5-13.2,19-13.2,19v45.7l5.3-5.4c0,0,0.2-4.6,0.2-17.9
			s14.1-15.8,28.3-26.2C100.6,18.5,99,0,99,0z"/>
		<path class="st1" d="M33.3,13.8C20.4,10.3,8.7,9.8,0.1,0c0,0-1.6,18.5,12.6,28.9C26.9,39.2,41,41.7,41,55.1S41.2,73,41.2,73
			l5.3,5.4V32.7C46.4,32.7,46.1,17.3,33.3,13.8z"/>
		<path class="st0" d="M163.4,65.6L127.6,5h-3.3L80.2,78.4h8.6L122,23.8l16.2,25.6c0,0-20.2-3.7-27.2,4.7c0,0,16.3-2.5,27.2,4
			c10.9,6.5,15.8,20.2,34.4,20.2h8.4v-2.8C181,75.6,170.5,76.7,163.4,65.6z"/>
		<path class="st1" d="M359,65.6L323.1,5h-3.3l-44.1,73.4h8.6l33.2-54.6l16.2,25.6c0,0-20.2-3.7-27.2,4.7c0,0,16.3-2.5,27.2,4
			c10.9,6.5,15.8,20.2,34.4,20.2h8.4v-2.8C376.5,75.6,366,76.7,359,65.6z"/>
		<path class="st0" d="M260.1,59.4l-52.5-45.1C197.4,5.5,186.3,5,186.3,5h-17.2v2.6c18.7,0,20.1,11,20.2,13.4v57.4h7.4V21.2
			L263.8,80h3.7V69.1V41.7V5h-7.4V59.4z"/>
		<path class="st1" d="M395.9,67.3V16.1C395.9,3.2,380.6,5,380.6,5h-10.7v2.3c12.5,0,13.4,8.8,13.4,8.8v54.3h0.4
			c2.3,9.4,14.9,8,14.9,8h10.7v-2.3C396.7,76.1,395.9,67.3,395.9,67.3z"/>
		<path class="st1" d="M487.2,67.8c-9.1-8.6-25.4-24.6-25.4-24.6s24.9-4.2,24.9-18.4S470.1,5,453.1,5h-17.6h-8.3h-3.8
			c-2.1-0.2-3.7,0-3.7,0h-12.8v2.3c12.9,0,14.9,6.2,15.1,8.9v62.2h13.5v-67h17.6c0,0,17.1,0.3,17.1,13.8S440.2,39,440.2,39L473,71.5
			c0,0,6.5,6.9,15.7,6.9c9.2,0,19.8,0,19.8,0V76C508.5,76,496.4,76.4,487.2,67.8z"/>
	</g>
</g>
</svg>
