<?xml version="1.0" encoding="utf-8"?>
<!-- Generator: Adobe Illustrator 25.4.1, SVG Export Plug-In . SVG Version: 6.00 Build 0)  -->
<svg version="1.1" id="Layer_1" xmlns="http://www.w3.org/2000/svg" xmlns:xlink="http://www.w3.org/1999/xlink" x="0px" y="0px"
	 viewBox="0 0 324.2 80" style="enable-background:new 0 0 324.2 80;" xml:space="preserve">
<style type="text/css">
	.st0{opacity:0.34;fill:#FFFFFF;}
	.st1{fill:#CEDB00;}
	.st2{fill:#FC6619;}
	.st3{fill:#C124B8;}
	.st4{fill:#FFFFFF;}
	.st5{fill:#A8228C;}
	.st6{fill:#FAD000;}
	.st7{fill:#EABE05;}
</style>
<g>
	<path class="st0" d="M68.5,80H11.5C5.1,80,0,74.9,0,68.5V11.5C0,5.1,5.1,0,11.5,0h57.1C74.9,0,80,5.1,80,11.5v57.1
		C80,74.9,74.9,80,68.5,80z"/>
	<path class="st1" d="M11.5,80h57.1C74.9,80,80,74.9,80,68.5V11.5C80,5.1,74.9,0,68.5,0L11.5,0C5.1,0,0,5.1,0,11.5l0,57.1
		C0,74.9,5.1,80,11.5,80z"/>
	<path class="st2" d="M69.1,39c0,15.9-12.9,28.8-28.8,28.8c-15.9,0-28.8-12.9-28.8-28.8c0-3.1,0.5-6.1,1.4-8.8
		c0.4-1.1,0.8-2.3,1.3-3.3c1.1-2.4,2.5-4.6,4.2-6.5c0.8-1,1.7-1.9,2.7-2.8c1.9-1.7,4-3.1,6.3-4.3h0c1-0.5,2.1-1,3.2-1.4
		c1.1-0.4,2.2-0.7,3.4-1c1.9-0.4,4-0.7,6-0.7c0.1,0,0.2,0,0.3,0C56.2,10.2,69.1,23.1,69.1,39z"/>
	<g>
		<path class="st3" d="M108.4,28.1h-2.8l-11,19.3h-1.2l-0.5,2.2h5.9l0.4-2.2h-1.9l2.2-4h7.7l1.2,4.1h-2.1l-0.5,2.2h7.4l0.5-2.1h-1.3
			L108.4,28.1z M100.7,41.1l4.4-7.7l1.8,7.7H100.7z"/>
		<path class="st3" d="M214.5,28.1h-2.8l-11,19.3h-1.2l-0.5,2.2h5.9l0.4-2.2h-1.9l2.2-4h7.7l1.2,4.1h-2.1l-0.5,2.2h7.4l0.5-2.1h-1.3
			L214.5,28.1z M206.8,41.1l4.4-7.7l1.8,7.7H206.8z"/>
		<polygon class="st3" points="126.9,30.2 127.3,28.1 118.9,28.1 118.5,30.4 120.4,30.4 117.1,47.5 115.2,47.5 114.7,49.5 
			123.2,49.5 123.5,47.3 121.5,47.3 124.7,30.2 		"/>
		<polygon class="st3" points="300.7,30.2 301.2,28.1 292.8,28.1 292.3,30.4 294.3,30.4 291,47.5 289,47.5 288.5,49.5 296.7,49.5 
			297,47.3 295.3,47.3 298.6,30.2 		"/>
		<polygon class="st3" points="245.8,28.1 238.6,28.1 238.2,30.4 240.1,30.4 237.7,43 229.9,28.1 224.9,28.1 224.4,30.4 226.3,30.4 
			223.1,47.5 221.1,47.5 220.6,49.5 227.5,49.5 227.9,47.3 226.2,47.3 228.6,34.5 228.6,34.5 236.5,49.5 239.6,49.5 240,47.3 
			243.2,30.2 245.4,30.2 		"/>
		<path class="st3" d="M144.6,33.4c0-4.3-3.1-5.3-6.7-5.3h-8.4l-0.5,2.3h1.9l-3.3,17.1h-1.9l-0.5,2.1h8.2l0.4-2.2h-1.7l1.3-7h2
			l3.8,9.2h5.1l0.3-2.1h-1.2l-4.2-7.5C139.2,39.9,144.6,37.7,144.6,33.4z M133.8,38.6l1.6-8.3h2.2c0,0,2.9,0.1,2.9,3.6
			C140.4,37.4,136,38.6,133.8,38.6z"/>
		<polygon class="st3" points="199.3,30.2 201.5,30.2 201.9,28.1 193.5,28.1 193.1,30.4 195,30.4 193.7,37.4 185.1,37.4 186.5,30.2 
			188.6,30.2 189.1,28.1 180.7,28.1 180.2,30.4 182.1,30.4 178.9,47.5 176.9,47.5 176.4,49.5 184.6,49.5 184.9,47.3 183.2,47.3 
			184.7,39.5 193.3,39.5 191.7,47.5 189.8,47.5 189.3,49.5 197.4,49.5 197.8,47.3 196.1,47.3 		"/>
		<polygon class="st3" points="317,28.1 316.5,30.4 318.5,30.4 316.1,43 308.2,28.1 303.2,28.1 302.7,30.4 304.7,30.4 301.4,47.5 
			299.5,47.5 298.9,49.5 305.9,49.5 306.2,47.3 304.5,47.3 307,34.5 307,34.5 314.9,49.5 317.9,49.5 318.3,47.3 321.6,30.2 
			323.7,30.2 324.2,28.1 		"/>
		<polygon class="st3" points="289.6,30.4 290.8,28.1 284.7,28.1 284.2,30.4 286.1,30.4 280.4,42.9 280,28.6 277.2,28.6 270.1,42.8 
			270,30.4 272.3,30.4 272.7,28.1 265.3,28.1 265.3,30.4 266.4,30.4 266.5,49.5 269.3,49.5 276.7,34.5 276.7,35 276.7,49.5 
			279.7,49.5 288.5,30.4 		"/>
		<polygon class="st3" points="257.6,47.3 250.4,47.3 253.6,30.2 255.8,30.2 256.2,28.1 247.8,28.1 247.4,30.4 249.3,30.4 246,47.5 
			244.1,47.5 243.6,49.5 257.2,49.5 259.3,49.5 260,45 258,45 		"/>
		<polygon class="st3" points="177.9,32.8 178.9,28.1 177,28.1 161.6,28.1 159.6,28.1 158.7,32.8 160.6,32.8 161.1,30.4 166.7,30.4 
			163.4,47.5 161.4,47.5 160.9,49.5 169.1,49.5 169.4,47.3 167.7,47.3 171,30.2 176.5,30.2 176,32.8 		"/>
	</g>
	<circle class="st4" cx="40.3" cy="39" r="27"/>
	<circle class="st3" cx="40.3" cy="39" r="24.9"/>
	<path class="st5" d="M46,10.9c0,0-0.2-1.3-2.1-2.4c-1.9-1.1-3.9-5.9-4-5.9v0c0,0,0,0,0,0c0,0,0,0,0,0v0c0,0.1-2.1,4.8-4,5.9
		c-1.9,1.1-2.1,2.4-2.1,2.4c1.9-0.4,4-0.7,6-0.7C42.1,10.3,44.1,10.5,46,10.9z"/>
	<path class="st5" d="M12.2,33.3c0,0-1.3,0.2-2.4,2.1c-1.1,1.9-5.9,3.9-5.9,4h0c0,0,0,0,0,0c0,0,0,0,0,0h0c0.1,0,4.8,2.1,5.9,4
		c1.1,1.9,2.4,2.1,2.4,2.1c-0.4-1.9-0.7-4-0.7-6C11.5,37.2,11.8,35.2,12.2,33.3z"/>
	<path class="st5" d="M30.6,11.9c-1.1,0.4-2.2,0.8-3.2,1.4h0l-0.5-5.4L30.6,11.9z"/>
	<path class="st5" d="M21.1,17.5c-1,0.9-1.9,1.8-2.7,2.8L15.7,15L21.1,17.5z"/>
	<path class="st5" d="M14.2,26.8c-0.5,1.1-0.9,2.2-1.3,3.3l0,0l-4.1-3.8L14.2,26.8z"/>
	<path class="st5" d="M34.5,67.1c0,0,0.2,1.3,2.1,2.4c1.9,1.1,3.9,5.9,4,5.9v0c0,0,0,0,0,0c0,0,0,0,0,0v0c0-0.1,2.1-4.8,4-5.9
		c1.9-1.1,2.1-2.4,2.1-2.4c-1.9,0.4-4,0.7-6,0.7C38.5,67.8,36.5,67.5,34.5,67.1z"/>
	<path class="st5" d="M13.2,48.7c0.4,1.1,0.8,2.2,1.4,3.2v0l-5.4,0.5L13.2,48.7z"/>
	<path class="st5" d="M18.8,58.2c0.9,1,1.8,1.9,2.8,2.7l-5.3,2.8L18.8,58.2z"/>
	<path class="st5" d="M28.1,65.1c1.1,0.5,2.2,0.9,3.3,1.3l0,0l-3.8,4.1L28.1,65.1z"/>
	<path class="st5" d="M68.4,44.8c0,0,1.3-0.2,2.4-2.1c1.1-1.9,5.9-3.9,5.9-4h0c0,0,0,0,0,0c0,0,0,0,0,0h0c-0.1,0-4.8-2.1-5.9-4
		c-1.1-1.9-2.4-2.1-2.4-2.1c0.4,1.9,0.7,4,0.7,6C69,40.8,68.8,42.8,68.4,44.8z"/>
	<path class="st5" d="M50,66.1c1.1-0.4,2.2-0.8,3.2-1.4h0l0.5,5.4L50,66.1z"/>
	<path class="st5" d="M59.4,60.5c1-0.9,1.9-1.8,2.7-2.8l2.8,5.3L59.4,60.5z"/>
	<path class="st5" d="M66.4,51.2c0.5-1.1,0.9-2.2,1.3-3.3l0,0l4.1,3.8L66.4,51.2z"/>
	<path class="st5" d="M67.4,29.3c-0.4-1.1-0.8-2.2-1.4-3.2v0l5.4-0.5L67.4,29.3z"/>
	<path class="st5" d="M61.8,19.9c-0.9-1-1.8-1.9-2.8-2.7l5.3-2.8L61.8,19.9z"/>
	<path class="st5" d="M52.5,12.9c-1.1-0.5-2.2-0.9-3.3-1.3l0,0l3.8-4.1L52.5,12.9z"/>
	<path class="st6" d="M23.8,22.3c0,0-0.3,1.5,1,1.9c1.3,0.3,1.5,0.7,1,0.8c-0.5,0-0.8-0.3-0.8-0.3s-0.1,4.1,1.7,4.8
		c0,0-0.8,2.5,0.7,3.4c1.4,1,1.9,0.8,2.3,1.5c0,0-1,0-1.5-0.4c-0.6-0.4-0.6,0.6-0.2,1.1s1,0.9,0.9,2.1c-0.1,1.2-0.9,0.8-0.6,1.5
		c0.2,0.7,0.9,0.1,0.6,0.8c-0.3,0.7-1.1-0.2-0.5,1c-0.5-1.2,0,0.4,0.7,1c0,0-0.4-0.1-0.5,0c-0.1,0.1,0.8,1.7,1.5,2.3
		c0,0-3-0.5-3.6,0.9c0,0,3.1-0.6,5,1.2c0,0-1.6-0.3-2.4,0.2c-0.8,0.6-1,0.7-1.4,0.6c-0.4-0.1-0.9-0.7-0.9-0.7s-0.2,1.1-0.1,1.6
		c0.1,0.5,0.9,0.8,1,1.3c0.2,0.5,0.6,1.4,0.8,0.8c0.2-0.6,0.3-0.9,0.4-0.7c0.1,0.2,0.1,1.3,0.2,1.6s0.6,0.5,1.7,0.4
		c0,0,0,0.7,0.7,0.9s1.3-0.2,1.7-0.6c0.4-0.4,1-0.4,1.3,0.2c0.3,0.6,0.6,0.5,1.1,0.6c0.4,0.1,1.3,0.1,0.9,0.6
		c-0.4,0.5-1,0.5-1.1,0.8c-0.1,0.2,0.7,0.2,1,0.4c0.3,0.2,1.4,1.8,1.9,2.2c0.5,0.4-0.2,0.4-0.3,0.6c-0.1,0.2,0.1,0.4,0.5,0.5
		c0.4,0.2,1.4,0.8,2,1.5s1.6,1.3,0.8,1.4c-0.8,0.1-2.3,0-2.4,0.3c-0.1,0.3,1,0.2,1.8,0.4c0.8,0.2,1.1,0.5,1.9,0.7
		c0.8,0.2,1-0.4,2.1-0.3s1.6,0.3,2.2,0c0.6-0.3,1.2-0.7,1.7-0.5c0.5,0.2,0.3,0.9,0.5,0.6c0.1-0.2,0.6-0.4,0.6-0.9
		c0,0,0.5-0.3,0.5-1.1c0-0.8-0.8-0.6-0.8-0.6s0-0.6-1.1-0.1c0,0-0.9,0.7-1.5,0.8c-0.5,0.1-1.4,0.1-2,0c-0.6-0.1-2.4-1.7-2.5-2.1
		c-0.1-0.4,0-1.8,0-1.8s1.6-0.2,2.2-0.5c0.6-0.3,1.8-0.9,1.8-0.9s1,0.9,1.4,1s1,0,1.5,0.2c0.4,0.3,1.6-0.1,1.1,0.4s-1.2,1-1.1,1.4
		c0,0.4,0.1,0,0.6-0.3s0.8-0.3,1.7-0.5c0.9-0.2,0.7-0.4,1.5-0.6c0.8-0.2,1.5-1.5,1.7-1.8s1-0.4,1.2-0.6c0.2-0.2,0.3-0.9-0.2-0.9
		c-0.5,0-1.1,0.3-1.5,0.7s-0.8,1.3-1.3,1.2c-0.4,0-1.5,0-1.6-0.1s-0.3-0.3,0.5-0.6s2.2-1.5,3.1-2.5c1-1,1.6-2.7,1.6-4.7
		s-2.5-4-3.5-4.5c-1-0.5-2.8-1.3-2.9-1.5c-0.2-0.2,0.3-0.2,0.5-0.3c0.1-0.1,0.2-0.2,0.6,0c0.3,0.3,0.8,0.6,1.6,1.1
		c0.8,0.4,1.7,0.7,2,0.9c0.3,0.2,0.6,0.4,0.7,0.2c0-0.2-1.6-1.9-1.7-2.1c-0.1-0.2,0.2-0.5,0.3-0.6c0.1,0,0.9-0.4,1-0.6
		c0.1-0.2-0.4,0.1-0.6-0.2c-0.3-0.3,0.5-0.3,0.6-0.8c0.1-0.4,0.4-1.5-0.5-2.3c-0.9-0.8-1.6-1.2-1.6-1.9s0.1-1,0.1-1.3
		s-0.8,0.3-0.9,0.7c-0.1,0.4-0.3,0.6-0.6,0.3s-0.4-0.5-0.8-1.1c-0.4-0.5-0.2-0.9,0-1.3c0.2-0.4,0.3-1.2-0.3-1.4s-0.6-0.5-0.5-1.1
		s-0.5,0.1-0.5,0.5c0,0.5,0.3,0.9,0.1,1c-0.2,0.2-1.1,0.3-0.9,1.7c0,0-0.6,0.1-0.5,1.1c0.1,1,0.5,1.9,0.2,2s-0.6-0.1-0.6,0.4
		c0,0.5-0.2,0.6-0.4,0.3s-0.3-1-0.3-1.3s-0.4,0.2-0.5,0.4c-0.1,0.2-0.3,1.3-0.2,2.5c0.1,1.3-0.3,1.1-0.5,1.1s-0.1,0.4-0.3,0.4
		s-0.4-0.5-0.8-1S44,37.6,43.9,38c0,0.4,0,1.9,0.6,2.5c0.6,0.5,1.4,0.7,0.9,1.5c-0.4,0.7-1.1,0.2-1.2-0.2s-1.3-0.3-1.3,0
		c-0.1,0.3,0.8-0.1,0.8,0.4s-0.1,1,0.1,1.5c0.1,0.5,0.4,0.7,0.9,0.7c0.4,0-0.1,0.4,0.3,0.6c0.4,0.2,1.1,0.2,0.8,0.4
		c-0.3,0.2-1.1,0.4-1.5,0.5c-0.4,0-1-0.1-1.2-0.3c-0.3-0.2-1-1-1-1.3c0-0.3,0.1-1.5,0-1.9c-0.1-0.4-0.4-0.4-0.7-0.1
		c-0.3,0.3-0.9,0.5-1.2,0.4c-0.2-0.1-0.5-0.2-0.4-0.7c0.1-0.5,0.3-1.2,0.9-1.7c0.6-0.5,0.9-1.2,1-1.3c0.1-0.1-0.3-0.2-0.7,0
		c-0.3,0.2-0.5,0.3-0.2-0.3s0.6-1.8,0.6-2.8s-0.3-2.3-1-3.2c-0.7-0.9-1.6-1.6-1.7-2.4c-0.2-0.8,0-1-0.3-0.8
		c-0.4,0.2-0.4,0.9-0.7,0.7s-0.2-0.9-1.3-1.9s-2.6-1.4-4.1-1.7c-1.5-0.4-2.3-1-2.6-1.7c-0.3-0.8-0.4-1.1-0.7-0.7s-0.7,1.1-0.7,1.6
		c0,0.5-0.6-0.8-0.6-1.2c0-0.4-0.7-0.9-1.5-1.1S24.5,22.9,23.8,22.3z"/>
	<g>
		<path class="st7" d="M43.1,47.6c-0.8,1-1.7,1.8-1.7,1.8c0,0-0.1,0.1,0,0.2c0,0,0.1,0,0.1,0c0,0,0,0,0.1,0c0,0,1-0.8,1.8-1.8
			c0.8-1.1,1.1-1.3,1.9-1.5c1-0.2,2.1-0.7,2.7-1.4c0,0,0-0.1,0-0.2c0,0-0.1,0-0.2,0c-0.5,0.6-1.6,1.1-2.5,1.3
			C44.2,46.3,43.9,46.5,43.1,47.6z"/>
		<path class="st7" d="M48.6,45.9c0.2-0.2,0.5-0.5,0.7-1c0.2-0.4,0.5-1,1-1.6c0.9-1.2,2.1-1.8,2.1-1.8c0.1,0,0.1-0.1,0.1-0.1
			s-0.1-0.1-0.1-0.1c0,0-1.2,0.6-2.2,1.9c-0.4,0.6-0.7,1.1-1,1.6c-0.3,0.5-0.5,0.8-0.7,1c-0.5,0.3-0.6,0.7-0.4,1.4
			c0.2,0.7,0.2,1.6,0.2,1.6c0,0.1,0,0.1,0.1,0.1c0,0,0,0,0,0c0.1,0,0.1,0,0.1-0.1c0,0,0-0.9-0.2-1.6C48.1,46.4,48.3,46.1,48.6,45.9z
			"/>
		<path class="st7" d="M42.9,53.2c-0.1,0-0.1,0-0.1,0.1c0,0.5,0,1.6,0.3,1.8c0,0,0,0,0,0c0,0,0.1,0,0.1-0.1c0-0.1,0-0.1-0.1-0.1
			c-0.1-0.1-0.2-0.8-0.2-1.6C43,53.2,43,53.2,42.9,53.2z"/>
		<path class="st7" d="M46.4,43.4c0.1,0,0.1,0,0.2,0c0.6-0.1,0.9-0.2,1.2-0.3c0.2-0.1,0.3-0.1,0.6-0.2c0.6-0.1,0.9-0.2,1.3-0.6
			c0.4-0.4,1-0.9,1.3-1c0.1,0,0.1-0.1,0.1-0.1c0-0.1-0.1-0.1-0.1-0.1c-0.4,0.1-1.1,0.9-1.3,1.1c-0.4,0.4-0.6,0.5-1.2,0.6
			c-0.3,0.1-0.4,0.1-0.6,0.2c-0.3,0.1-0.5,0.2-1.1,0.3c-0.9,0.1-1.3-0.6-1.3-0.6c0-0.1-0.1-0.1-0.1-0.1c-0.1,0-0.1,0.1-0.1,0.1
			C45.1,42.6,45.5,43.4,46.4,43.4z"/>
		<path class="st7" d="M45.7,42.1c0,0.1,0,0.1,0.1,0.1c0,0,0.5,0.2,1.1,0.2c0.3,0,0.6,0,0.9-0.2l0.4-0.2c0.6-0.3,0.9-0.4,1.1-0.6
			c0.3-0.2,0.7-0.5,0.9-0.7c0.1,0,0.1-0.1,0-0.1c0-0.1-0.1-0.1-0.1,0c-0.3,0.1-0.7,0.5-0.9,0.7c-0.2,0.2-0.5,0.3-1.1,0.6l-0.4,0.2
			c-0.8,0.4-1.8,0-1.8-0.1C45.8,42,45.7,42,45.7,42.1z"/>
		<path class="st7" d="M46.9,41.8c0.2,0,0.4,0,0.6-0.1c0.3-0.1,0.5-0.3,0.8-0.5c0.2-0.2,0.5-0.3,0.7-0.4c0.4-0.2,0.8-0.3,0.8-0.3
			c0.1,0,0.1-0.1,0.1-0.1c0-0.1-0.1-0.1-0.1-0.1c0,0-0.4,0.2-0.8,0.3c-0.2,0.1-0.5,0.2-0.7,0.4c-0.3,0.2-0.5,0.3-0.8,0.5
			c-0.5,0.2-1.2,0-1.2,0c-0.1,0-0.1,0-0.1,0.1c0,0.1,0,0.1,0.1,0.1C46.2,41.7,46.6,41.8,46.9,41.8z"/>
		<path class="st7" d="M54.8,47.4c0.2,0,0.5-0.1,0.7-0.3c0.9-0.6,0.7-1.1,0.7-1.1c-0.2-0.7-1.1-1-1.3-1.1c-0.1-0.2-0.6-0.4-0.9-0.5
			c-0.1,0-0.1,0-0.1,0.1c0,0.1,0,0.1,0.1,0.1c0.4,0.1,0.7,0.3,0.7,0.4c0,0.1-0.2,0.6-0.8,1c-0.2,0.1-0.3,0.2-0.5,0.2
			c-0.1,0-0.2-0.1-0.2-0.1c-0.1-0.3-0.4-0.5-0.5-0.6c0,0,0,0,0-0.1c0.1,0,0.2-0.1,0.4-0.2c0.7-0.5,0.5-1.2,0.5-1.5
			c0.2-0.2,0.2-0.4,0.2-0.4c0-0.1-0.1-0.1-0.1-0.1c-0.1,0-0.1,0.1-0.1,0.1c0,0,0,0.3-0.6,0.3c-0.5,0-0.7-0.2-0.8-0.3
			c0-0.1-0.1-0.1-0.1-0.1c0,0-0.1,0-0.1,0c0,0-0.1,0.1,0,0.1c0,0,0,0.1,0.1,0.1c0.1,0.2,0.2,0.5-0.1,1c-0.4,0.7-1.2,0.3-1.3,0.3
			c-0.1,0-0.1,0-0.1,0.1c0,0.1,0,0.1,0.1,0.1c0.2,0.1,0.4,0.1,0.6,0.1c0.2,0,0.3,0,0.5-0.1c0.1,0.1,0.2,0.2,0.4,0.3
			c0.1,0.1,0.3,0.1,0.4,0.1c0,0,0,0,0,0c-0.1,0.2-0.2,0.3-0.3,0.4c-0.5,0.3-1.2,0-1.2,0c0,0-0.1,0-0.1,0c0,0,0,0-0.1,0.1
			c-0.1,0.8-0.7,0.9-0.9,0.9c0-0.1,0-0.2,0-0.2c0-0.5,0.1-0.6,0.2-0.6c0.1,0,0.1-0.1,0.1-0.1c0-0.1-0.1-0.1-0.1-0.1
			c-0.3,0.1-0.3,0.5-0.3,0.8c0,0.1,0,0.2,0.1,0.3c0,0,0,0,0,0c0.2,0.5,0.6,1.2,0.8,1.3c0,0,0,0,0,0c0,0,0,0,0,0
			c0.1,0.1,0.2,0.5,0.1,1.3c0,0.4,0,0.8,0,1.1c0,0.2,0,0.4,0,0.5c0,0.1-0.3,0.2-0.5,0.3c-0.1,0-0.1,0-0.2,0.1
			c-0.3,0.1-0.4,0.3-0.5,0.6c-0.1,0.1-0.1,0.2-0.2,0.3c-0.2,0.2-0.6,0.1-1.7,0.1c-0.4,0-0.6-0.1-0.8-0.3c-0.1-0.1-0.1-0.3-0.1-0.4
			c0,0,0,0,0,0c0,0,0,0,0,0c0,0,0,0,0,0c0,0,0,0,0,0c0-0.2-0.3-0.5-0.8-0.8c-0.4-0.3-1-0.5-1.7-0.6c0.2-0.2,0.6-0.5,0.8-0.9
			c0.1-0.2,0.2-0.3,0.3-0.5c0,0,0.1-0.1,0.2-0.1h0c0.1,0,0.3,0.1,0.4,0.2c0.5,0.5,1.1,0.5,1.2,0.5c0,0,0,0,0,0
			c0.1,0,0.1-0.1,0.1-0.1c0-0.1,0-0.1-0.1-0.1c0,0,0,0,0,0c0,0-0.6,0-1-0.5c-0.2-0.2-0.4-0.3-0.6-0.3c0.1-0.1,0.2-0.2,0.4-0.4
			c0.1,0,0.1-0.1,0.3-0.2c0.9-0.1,1.2-0.3,1.2-0.3c0.1,0,0.1-0.1,0-0.1c0-0.1-0.1-0.1-0.1,0c0,0-0.2,0.1-0.9,0.2
			c0.3-0.3,0.6-0.6,0.8-1c0.1-0.1,0.1-0.2,0.2-0.3c0.2-0.4,0.3-0.6,0.8-0.9c0.6-0.4,0.8-0.5,0.8-0.5c0.1,0,0.1-0.1,0-0.2
			c0-0.1-0.1-0.1-0.2,0c0,0-0.2,0.1-0.8,0.5c-0.5,0.4-0.7,0.6-0.9,1c0,0.1-0.1,0.2-0.1,0.3c-0.2,0.4-0.6,0.8-1,1.2
			c-0.1,0-0.3,0-0.5,0c-0.7,0-1.1,0.2-1.4,0.4c0.3-0.9,0.6-1.4,1.5-1.9c0.3-0.1,0.6-0.2,0.9-0.3c0.7-0.2,1.2-0.4,1.6-0.9
			c0,0,0-0.1,0-0.2c0,0-0.1,0-0.2,0c-0.4,0.4-0.9,0.6-1.5,0.8c-0.3,0.1-0.6,0.2-1,0.4c-1.1,0.5-1.3,1.1-1.7,2.2
			c-0.3,0.9-1.2,1.6-1.5,1.8c-0.2,0-0.3,0.1-0.4,0.3c-0.1,0.2-0.1,0.4,0,0.6c-0.3-0.2-0.6-0.3-0.9-0.5c-0.6-0.3-0.9-0.7-1-0.9
			c0.3-0.1,0.7-0.2,1-0.5c0.2-0.2,0.6-0.5,0.9-0.9c0,0,0.1,0,0.1-0.1c0.2-0.2,0.4-0.5,0.6-0.7c0,0,0,0,0,0c0.1,0,0.1-0.1,0.1-0.1
			c0.4-0.4,0.7-0.8,0.9-1c0.6-0.4,0.9-0.4,0.9-0.4c0.1,0,0.1,0,0.1-0.1c0-0.1,0-0.1-0.1-0.1c0,0-0.4-0.1-1.1,0.4
			c-0.2,0.1-0.4,0.3-0.6,0.6c-0.4-0.4-1.9-1.8-3-2.1c-0.4-0.1-0.9-0.2-1.3-0.1c-0.4-1.1,1.2-2.7,1.3-2.7c0,0,0-0.1,0-0.2
			c0,0-0.1,0-0.2,0c-0.1,0.1-1.7,1.6-1.3,2.8c-0.2,0-0.4,0-0.6,0.1c0,0,0,0,0,0v-1.2c0-0.4-0.3-0.8-0.5-1c0,0,0,0,0.1-0.1
			c0.2-0.2,0.6-0.5,0.7-1.4c0-0.1,0-0.1,0-0.2c0,0,0,0,0,0c0,0,0-0.1,0-0.1c0.4-0.7,1.8-1.2,2.4-1.3c0.1,0,0.1-0.1,0.1-0.1
			c0,0,0,0,0,0c0,0,0,0,0-0.1c0.4-3.2-0.7-4-1.6-4.6l-0.2-0.1c-0.5-0.4-0.8-0.6-1-0.8c-0.2-0.3-0.1-2.1,0-3.1c0-0.1,0-0.1-0.1-0.1
			c-0.1,0-0.1,0-0.1,0.1c0,0.2-0.1,1.1-0.2,1.9c-0.5-2.1-1.5-3.1-2.5-3.7c-1-0.7-1.8-0.9-3.9-1.3c-2-0.4-2.5-1.4-2.5-1.4
			c0-0.1-0.1-0.1-0.1-0.1c-0.1,0-0.1,0.1-0.1,0.1c0,0,0.6,1.2,2.7,1.6c2.1,0.4,2.8,0.6,3.8,1.2c1.1,0.7,2.2,1.8,2.5,4.4
			c-0.2,0.4-0.8,1.8-0.8,2.5v-0.1c0-1.6-0.9-5-2.7-6.2c-1.2-0.8-2.2-0.8-3.2-0.8c-0.6,0-1.2,0-1.8-0.2C27,28,26.3,26.5,26,25.9
			c0-0.1-0.1-0.1-0.1-0.2c-0.3-0.5-0.7-0.7-0.8-0.7c-0.1,0-0.1,0-0.1,0.1c0,0.1,0,0.1,0.1,0.1c0,0,0.4,0.1,0.6,0.6
			c0,0,0.1,0.1,0.1,0.2c0.3,0.7,1.1,2.2,2.7,2.6c0.7,0.2,1.3,0.2,1.9,0.2c1,0,2,0,3.1,0.8c1.7,1.2,2.6,4.5,2.6,6v3.6
			c-0.4-0.1-0.8,0.1-1,0.2c-0.1-0.2-0.2-0.4-0.3-0.6c0-0.1-0.1-0.1-0.2-0.2c0-2,0-4.9-1.2-6.4c-1.1-1.4-2.4-1.9-4.2-2.1
			c-1.6-0.2-2.2-0.6-2.2-0.6c0,0-0.1,0-0.2,0s0,0.1,0,0.2c0,0,0.6,0.4,2.3,0.6c1.8,0.3,3,0.7,4.1,2.1c1.1,1.4,1.2,4.2,1.2,6.1
			c-0.4-0.2-1,0-1.3,0.1c0.1-0.9,0.2-4-0.6-4.9c-0.9-1-2.1-0.8-2.2-0.8c-0.1,0-0.1,0.1-0.1,0.1c0,0.1,0.1,0.1,0.1,0.1
			c0,0,0.3,0,0.6,0c0,0,0,0,0,0.1c0.1,0.3,0.1,0.6,0,0.8c-0.4,0.5-1.4,0.4-1.4,0.4c-0.1,0-0.1,0-0.1,0.1c0,0.1,0,0.1,0.1,0.1
			c0,0,0.1,0,0.2,0c0.4,0,1.1-0.1,1.4-0.5c0.2-0.2,0.2-0.5,0.1-0.9c0.4,0.1,0.8,0.3,1.1,0.7c0.8,1,0.6,4.7,0.5,4.9c0,0,0,0,0,0
			c0,0,0,0,0,0.1c0,0,0,0,0,0c0,0,0,0,0,0c0,0,0,0,0,0c0,0,0,0,0,0c0,0,0.5,0.5,0.2,1.1c-0.1-0.2-0.2-0.3-0.3-0.4
			c-0.3-0.3-0.6-0.6-0.8-0.6c-0.8-0.1-1.3,0.3-1.4,1.2c0,0.4,0,0.7,0.2,0.9c0.2,0.2,0.6,0.1,0.6,0.1c0.1,0,0.1-0.1,0.1-0.1
			c0-0.1-0.1-0.1-0.1-0.1c0,0-0.2,0.1-0.4-0.1c-0.1-0.1-0.2-0.4-0.2-0.7c0.1-0.8,0.5-1.1,1.2-1c0.1,0,0.4,0.2,0.7,0.5
			c0.1,0.2,0.2,0.3,0.3,0.5c0,0,0,0,0,0c0.1,0.1,0.1,0.3,0.1,0.4c0,0.4-0.2,0.6-0.4,0.9c-0.2,0.3-0.3,0.5-0.2,0.7
			c0.1,0.1,0.2,0.3,0.3,0.5c0.2,0.2,0.5,0.5,0.4,0.7c-0.7,0.1-1.1,0.5-1.2,0.7c-1-0.3-1.7-0.3-1.7-0.3c-0.1,0-0.1,0-0.1,0.1
			c0,0.1,0,0.1,0.1,0.1c0,0,1.7,0.1,3.8,1c2,0.9,3.8,1.8,5.1,2.5c0.6,0.3,1.5,0.7,2.2,0.8c-0.3,0.3-0.5,0.6-0.7,0.7c0,0,0,0,0,0
			c0,0,0,0,0,0C40.7,49,40.6,49,40.5,49c-0.4-0.1-2.3-1-3.8-1.7c-0.6-0.3-1.2-0.6-1.5-0.7c-1-0.4-3.7-1.3-3.8-1.3
			c-0.1,0-0.1,0-0.1,0.1c0,0.1,0,0.1,0.1,0.1c0,0,0.1,0,0.2,0.1c0,0-0.1,0-0.1,0.1c0,0-0.2,0.8,0.2,1.5c-0.2,0-0.7-0.1-1.3,0.1
			c-0.5,0.1-0.8,0.3-1.1,0.5c-0.3,0.2-0.5,0.3-0.8,0.3c-0.6-0.1-1.3-0.3-1.3-0.3c-0.1,0-0.1,0-0.1,0.1c0,0.1,0,0.1,0.1,0.1
			c0,0,0.7,0.2,1.3,0.3c0,0,0.1,0,0.1,0c0.3,0,0.5-0.2,0.8-0.3c0.3-0.2,0.6-0.4,1-0.5c0.8-0.2,1.3,0,1.4,0c0.1,0.1,0.1,0.2,0.2,0.2
			c0.1,0.2,0.3,0.4,0.6,0.6c-0.2,0-0.5,0.1-0.7,0.2c-0.1,0-0.3,0.1-0.5,0.2c-0.4,0.2-1,0.4-1.4,0.6c-0.8,0.2-0.9,0.5-0.9,0.6
			c0,0.1,0,0.1,0.1,0.1c0,0,0,0,0,0c0,0,0.1,0,0.1-0.1c0,0,0.1-0.2,0.7-0.4c0.5-0.2,1-0.4,1.5-0.6c0.2-0.1,0.4-0.2,0.5-0.2
			c0.5-0.2,0.8-0.2,0.8-0.2c0.3,0.3,0.5,0.7,0.8,1c-0.8-0.1-1.4,0.4-1.9,0.8c-0.4,0.4-0.8,0.5-0.8,0.5c-0.1,0-0.1,0.1-0.1,0.1
			c0,0.1,0.1,0.1,0.1,0.1c0,0,0,0,0,0c0,0,0.5-0.1,1-0.5c0.4-0.5,1.1-1,1.9-0.7c0.3,0.4,0.4,0.7,0.3,0.9c0,0.1,0,0.1,0,0.1
			c0,0,0,0,0.1,0c0,0,0.1,0,0.1-0.1c0.3-0.4-0.4-1.4-1.3-2.4c0,0,0,0,0,0c0,0,0,0,0,0c-0.2-0.3-0.5-0.6-0.8-0.9
			c-0.5-0.5-0.6-1.1-0.5-1.5c0.3,0.1,1.4,0.5,2.5,1c0.7,0.3,1.4,0.6,2,1c-0.3,0.1-0.7,0.3-0.9,0.7c-0.2,0.4-0.2,0.7,0,0.9
			c0.1,0.2,0.3,0.2,0.7,0.2l0.1,0c0.4,0,0.9-0.1,1,0.1c0,0.1,0,0.2,0,0.4c-0.1,0-0.3-0.1-0.5,0c-1,0.1-1.4,1.4-1.4,1.4
			c0,0.1,0,0.1,0.1,0.1c0.1,0,0.1,0,0.1-0.1c0,0,0.3-1.2,1.2-1.3c0.2,0,0.3,0,0.4,0c0,0,0,0.1,0.1,0.1c0,0,0,0,0.1,0
			c0,0,0.1,0,0.1,0c0.4,0.2,0.5,0.6,0.6,0.8l0,0.1c0,0.1,0.1,0.2,0.2,0.3c0.1,0.2,0.3,0.5,0.3,0.9c0,0.6,0.2,2.5,0.4,3.2
			c0.3,0.7,2.9,3.6,3.4,3.9c0.3,0.2,0.8,0.5,1.2,0.5c0,0,0.1,0,0.1,0c0.4-0.1,0.9-0.4,0.9-0.7c0-0.2,0-0.5,0-0.5
			c0-0.1-0.1-0.1-0.1-0.1c-0.1,0-0.1,0.1-0.1,0.1c0,0,0,0.2,0,0.4c0,0.2-0.4,0.5-0.7,0.5c-0.3,0-0.7-0.1-1.2-0.5
			c-0.4-0.3-3-3.1-3.3-3.8c-0.3-0.7-0.4-2.5-0.4-3.1c0-0.1,0-0.1,0-0.2c0,0,0,0,0,0c0,0,0,0,0,0c0.2,0,0.8,0,1.3-0.4
			c0.1-0.1,0.2-0.3,0.2-0.6c0.2,0.2,0.5,0.4,1,0.4c0,0.3,0,1.1,0.4,1.4c0.2,0.2,0.3,0.6,0.3,0.9c-0.1,0.1-0.3,0.2-0.6,0.1
			c-0.2-0.1-0.4-0.4-0.6-0.7c-0.1-0.2-0.2-0.4-0.4-0.5c-0.1-0.1-0.3-0.2-0.4-0.2c-0.2,0-0.2,0.2-0.2,0.2c0,0.1-0.3,1.8,0.3,2.9
			c0.6,1.1,2.1,2.5,2.2,2.6c0,0,0,0,0.1,0c0,0,0.1,0,0.1,0c0,0,0-0.1,0-0.2c0,0-1.5-1.5-2.1-2.5c-0.6-1-0.3-2.7-0.3-2.7
			c0,0,0-0.1,0.1-0.1c0,0,0.1,0,0.2,0.1c0.1,0.1,0.2,0.3,0.3,0.5c0.2,0.3,0.4,0.6,0.7,0.8c0.3,0.2,0.6,0.1,0.7,0
			c0,0.3,0,0.5,0.1,0.6c0.2,0.3,0.5,0.3,0.6,0.3c0.1,0,0.1,0,0.1-0.1c0-0.1,0-0.1-0.1-0.1c0,0-0.2,0-0.4-0.2c0-0.1-0.1-0.3-0.1-0.5
			c0-0.5-0.1-1-0.4-1.3c-0.3-0.2-0.3-0.9-0.3-1.2c0,0,0.1,0,0.1,0c0.5-0.1,0.8-0.2,0.9-0.3c0.1,0.1,0.3,0.2,0.4,0.2
			c0.1,0.1,0.3,0.2,0.4,0.2c0.2,0.1,0.3,0.2,0.5,0.3c0.1,0,0.1,0,0.2,0.1c0,0,0,0,0,0c0,0,0,0,0,0c0.4,0.2,0.6,0.4,0.7,0.9
			c0,0.3,0.2,0.5,0.4,0.6c0.3,0.2,0.6,0.2,0.9,0.2c0.3,0,0.6-0.1,0.7-0.1c0.2-0.1,0.2-0.2,0.3-0.3c0,0,0,0,0,0c0,0,0.2,0.6,1.3,0.5
			c0.3,0,0.6,0,0.9,0c0.1,0,0.2,0,0.3,0c0.3,0,0.4,0,0.5-0.2c0.1,0,0.1,0,0.2,0c0,0,0,0,0.1,0c0.1,0,0.1-0.1,0.1-0.1
			c0-0.1-0.1-0.1-0.1-0.1c-0.4,0-0.4-0.1-0.6-0.4c0-0.1-0.1-0.2-0.1-0.2c-0.1-0.2-0.4-0.4-0.5-0.6c0.2,0,0.3-0.1,0.4-0.2
			c0.1-0.1,0.2-0.2,0.3-0.4c0.1-0.2,0.2-0.4,0.4-0.5c0.1,0,0.1,0,0.2-0.1c0,0,0.4,0,0.6,0.4c0.1,0.2,0.2,0.3,0.2,0.5
			c0.1,0.3,0.2,0.5,0.5,0.6c0,0,0,0,0,0c0,0,0.1,0,0.1-0.1c0-0.1,0-0.1-0.1-0.1c-0.2,0-0.3-0.2-0.4-0.4c-0.1-0.2-0.1-0.3-0.3-0.5
			c-0.1-0.2-0.3-0.3-0.4-0.4c0.2-0.1,0.3-0.2,0.3-0.4c0-0.1,0-0.2,0-0.4c0,0,0,0,0,0c0,0,1.8,0.2,2,1.3c0,0.1,0.1,0.1,0.1,0.1
			c0,0,0,0,0,0c0.1,0,0.1-0.1,0.1-0.1c0-0.3-0.2-0.5-0.4-0.7c0-0.1-0.1-0.2-0.1-0.3c0,0,0,0,0.1,0c0.2,0,0.5-0.1,0.9-0.3
			c0.4-0.2,0.6-0.5,0.7-0.7c0,0,0,0,0-0.1c0,0,0,0,0,0c0.2,0,0.7-0.1,1-0.5c0.4-0.6,0.4-0.9,0-1.3c-0.3-0.2-0.6-0.5-0.7-0.6
			c0-0.1,0-0.1,0-0.2c0,0,0,0,0,0C54.6,47.3,54.7,47.4,54.8,47.4z M39.7,44.9c1,0.3,2.5,1.7,2.9,2c-0.1,0.1-0.1,0.2-0.2,0.3
			c-0.3,0-1.1-0.2-2.6-0.9c-0.6-0.3-1.3-0.7-2-1.1c-0.2-0.1-0.3-0.2-0.5-0.3C37.9,44.8,38.9,44.7,39.7,44.9z M37.4,43.4v1.2
			c0,0,0,0,0,0.1c-0.2,0-0.3,0-0.3,0.1c-0.6-0.4-1.2-0.7-1.8-0.9c0,0,0,0,0,0c0,0-0.4-0.9,0.2-1.4c0.1-0.1,0.1-0.1,0.2-0.1
			c0,0,0,0,0,0c0.4-0.3,0.4-0.3,0.7-0.1l0,0C36.6,42.3,37.4,42.8,37.4,43.4z M37.3,33.5c0.1,0.1,0.4,0.4,1.2,0.9l0.2,0.1
			c0.9,0.6,1.9,1.3,1.5,4.4c0,0,0,0,0,0.1c-0.2,0.1-1.1,0.3-1.7,0.7c0.2-1.7-0.9-2.8-1.5-3.4c-0.2-0.2-0.3-0.3-0.4-0.4
			C36.5,35.6,36.9,34.4,37.3,33.5z M36.3,35.9C36.4,35.9,36.4,36,36.3,35.9c0.1,0.2,0.2,0.4,0.4,0.6c0.6,0.6,1.7,1.7,1.4,3.4
			c-0.2,0.1-0.3,0.3-0.4,0.5c-0.2-0.2-0.6-0.6-1.1-0.9c-0.1-0.1-0.2-0.1-0.3-0.2V35.9z M36.1,39.5C36.2,39.5,36.2,39.5,36.1,39.5
			c0.1,0.1,0.1,0.1,0.1,0c0.1,0,0.2,0.1,0.2,0.1c0.5,0.4,1,0.8,1.2,1c0,0.1,0,0.1-0.1,0.2c-0.1,0.8-0.4,1.1-0.6,1.3
			c0,0-0.1,0.1-0.1,0.1c-0.1-0.1-0.3-0.2-0.4-0.3l0,0c-0.4-0.3-0.5-0.3-0.8,0c0-0.2-0.1-0.3-0.1-0.4c-0.1-0.2-0.1-0.3-0.1-0.6
			c0-0.4,0-0.8-0.2-1.3C35.4,39.5,35.8,39.4,36.1,39.5z M33,42.5c-0.1-0.2-0.3-0.3-0.3-0.4c0-0.1,0.1-0.3,0.2-0.5
			c0.2-0.3,0.4-0.6,0.4-1c0-0.2,0-0.3-0.1-0.5c0.4-0.6,0.1-1.1,0-1.4c0.3-0.1,1.1-0.3,1.4,0.1c0.5,0.6,0.6,1.4,0.6,2
			c0,0.2,0.1,0.4,0.1,0.6c0.1,0.2,0.1,0.4,0.1,0.6c0,0-0.1,0.1-0.1,0.1c-0.5,0.5-0.4,1.2-0.3,1.5c-0.3-0.1-0.6-0.2-0.8-0.3
			c-0.3-0.1-0.5-0.1-0.8-0.1C33.5,43,33.2,42.7,33,42.5z M39.4,47.2c-1.3-0.7-3.2-1.6-5.2-2.5c-0.7-0.3-1.4-0.5-1.9-0.7
			c0.2-0.2,0.8-0.7,1.9-0.5c1,0.2,2.3,1,3.6,1.7c0.7,0.4,1.3,0.8,2,1.1c1.1,0.6,2,0.9,2.5,1c-0.2,0.2-0.3,0.4-0.5,0.6
			C41.2,48,40.4,47.8,39.4,47.2z M43.8,48.8C43.8,48.8,43.8,48.8,43.8,48.8c0,0,0.3-0.6,1.6-0.7c0.1,0,0.1,0,0.2,0c0,0,0,0,0,0
			c-0.4,0.4-0.7,0.7-0.9,1.2c-0.2,0.4-0.7,0.8-0.9,0.9c-0.3,0-0.7-0.1-1.1-0.1C43,49.9,43.5,49.4,43.8,48.8z M31.7,45.8
			c0-0.1,0-0.1,0-0.1c0,0,0-0.1,0-0.1c0.8,0.2,2.7,0.9,3.5,1.2c0.3,0.1,0.8,0.4,1.5,0.7c1.4,0.7,3.2,1.6,3.7,1.7
			c-0.8,0.5-1.8,0.2-2.4-0.3c-0.3-0.3-0.9-0.6-1.4-1c0,0,0,0,0,0c-0.7-0.4-1.5-0.8-2.3-1.1C33.1,46.3,31.9,45.9,31.7,45.8z
			 M39.7,51.8c-0.4,0.4-1.1,0.4-1.2,0.4c0,0-0.1,0-0.1,0c-0.1-0.3-0.2-0.5-0.3-0.6c-0.1-0.1-0.1-0.2-0.1-0.2l0-0.1
			c-0.1-0.2-0.3-0.7-0.7-0.9c0.1-0.2,0.1-0.4,0-0.6c-0.2-0.3-0.7-0.2-1.2-0.2l-0.1,0c-0.2,0-0.4,0-0.5-0.1c-0.1-0.1-0.1-0.4,0.1-0.6
			c0.2-0.5,0.8-0.6,1-0.7c0.6,0.3,1,0.6,1.4,0.9c0.2,0.1,0.3,0.3,0.5,0.4c0,0,0,0,0,0c0,0,0.9,0.7,1.1,1c0.1,0.1,0.3,0.4,0.3,0.6
			c0,0,0,0.1,0,0.1c0,0,0,0,0,0c0,0.1,0,0.1,0,0.2C39.8,51.6,39.8,51.7,39.7,51.8z M42.1,51.5c0,0-0.1,0.1-0.7,0.2
			c-0.1,0-0.1,0-0.2,0c0,0,0,0,0,0c0,0,0,0,0,0c-0.7,0-1-0.4-1.1-0.6c-0.1-0.3-0.2-0.6-0.4-0.8c-0.1-0.1-0.4-0.4-0.7-0.6
			c0.2,0,0.3,0.1,0.5,0.1c0.1,0,0.1,0,0.2,0c0.1,0.2,0.3,0.7,1.1,1C41.3,51,41.7,51.2,42.1,51.5C42.1,51.4,42.1,51.5,42.1,51.5z
			 M43.2,51.9c-0.1-0.1-0.2-0.2-0.4-0.2c-0.2-0.1-0.5-0.3-0.7-0.4c-0.1-0.1-0.2-0.4-0.1-0.6c0-0.1,0.1-0.1,0.2-0.1c0,0,0,0,0,0
			c0,0,0,0,0.1,0c0,0,0,0,0.1,0c0.1,0,0.2,0,0.3,0c1.5,0,2.4,0.2,3.1,0.7c0.6,0.4,0.7,0.6,0.7,0.7c0,0,0,0,0,0
			c0,0.1-0.2,0.2-0.3,0.2c-0.6,0.2-1.7,0.5-2.3,0.2c-0.1,0-0.1-0.1-0.2-0.1C43.5,52,43.4,51.9,43.2,51.9z M49.3,53.4
			c0,0.1,0.1,0.1,0.1,0.2c0.1,0.1,0.2,0.3,0.3,0.4C49.6,54,49.5,54.1,49,54c-0.2,0-0.6,0-0.9,0c-0.9,0.1-1.1-0.4-1.1-0.4
			c0-0.1-0.1-0.1-0.1-0.1c0,0,0,0,0,0c0.1-0.2,0.1-0.4,0.1-0.4c0-0.1-0.1-0.1-0.1-0.1c-0.1,0-0.1,0.1-0.1,0.1c0,0,0,0.5-0.3,0.6
			c-0.2,0.1-1,0.2-1.5-0.1c-0.2-0.1-0.3-0.3-0.3-0.5c-0.1-0.3-0.2-0.5-0.3-0.7c0,0,0.1,0,0.1,0c0.6,0,1.2-0.2,1.7-0.4
			c0.1,0,0.2-0.1,0.2-0.1c0,0.1,0.1,0.2,0.1,0.2c0.2,0.2,0.5,0.4,1,0.4c0.4,0,0.8,0,1,0c0,0,0,0,0,0C48.7,52.8,49.1,53.1,49.3,53.4z
			 M53.5,46.4c0.1,0,0.1,0,0.2,0c0.2,0.2,0.9,0.8,0.5,1.3c-0.4,0.6-1.1,0.4-1.1,0.4c0,0,0,0-0.1,0c-0.2-0.4-0.6-0.7-0.8-0.9
			c0.3-0.1,1-0.4,1.1-0.8c0,0,0,0,0.1,0C53.4,46.4,53.5,46.4,53.5,46.4z M50.7,48.1C50.7,48.1,50.7,48.1,50.7,48.1
			C50.7,48.1,50.7,48.1,50.7,48.1C50.6,48.1,50.6,48,50.7,48.1c0.3-0.1,1-0.1,1.4-0.7c0,0,0,0,0-0.1c0.4,0.3,1.1,1,0.8,1.4
			c-0.3,0.5-1.1,0.5-1.2,0.5C51.1,48.5,50.7,48.1,50.7,48.1z M52.3,45.2c-0.2-0.1-0.3-0.2-0.4-0.3c0.1-0.1,0.2-0.2,0.2-0.3
			c0.2-0.3,0.2-0.6,0.2-0.8c0.2,0.1,0.4,0.2,0.7,0.1c0.1,0,0.3,0,0.4-0.1c0.1,0.2,0.2,0.8-0.4,1.2c-0.1,0.1-0.2,0.1-0.4,0.2
			c0,0,0,0,0,0C52.5,45.2,52.4,45.2,52.3,45.2z M52.3,46c0.2-0.1,0.3-0.2,0.4-0.4c0.1,0.1,0.4,0.3,0.5,0.6c0,0.3-0.5,0.6-0.9,0.7
			c0-0.3-0.1-0.6-0.2-0.8C52.1,46.1,52.2,46.1,52.3,46z M51.1,46.1c0.1,0,0.3,0.1,0.6,0.1c0.1,0.1,0.5,0.5,0.2,1.1
			c-0.3,0.5-1,0.5-1.3,0.5c0,0-0.1,0-0.1,0c-0.1-0.2-0.3-0.5-0.4-0.7C50.3,47,50.9,46.9,51.1,46.1z M50.9,50.5c0-0.3,0-0.6,0-0.9
			c0-0.2,0-0.7,0-1c0.4,0.4,1.2,1.3,1.6,2.4C51.8,50.6,51,50.5,50.9,50.5C50.9,50.5,50.9,50.5,50.9,50.5z M53.4,50.4
			c-0.6,0.4-0.9,0.3-0.9,0.2c-0.2-0.5-0.5-0.9-0.7-1.3c0.3,0,0.9-0.1,1.3-0.6c0-0.1,0.1-0.1,0.1-0.2c0.2,0.2,0.4,0.4,0.6,0.7
			c0.2,0.2,0.3,0.4,0.3,0.5C54,50,53.8,50.2,53.4,50.4z M55.1,48.2c0.3,0.3,0.3,0.4,0,1c-0.3,0.4-0.7,0.4-0.9,0.4
			c-0.1-0.1-0.2-0.3-0.3-0.4c-0.3-0.4-0.7-0.8-0.8-0.9c0,0,0,0,0,0c0.1,0,0.1,0,0.2,0c0.3,0,0.7-0.1,1-0.5c0,0,0-0.1,0.1-0.1
			C54.6,47.8,54.8,48,55.1,48.2z M53.9,46.2c0,0,0.1,0,0.1-0.1c0.5-0.3,0.8-0.8,0.8-1.1c0.3,0.1,0.9,0.4,1.1,0.9
			c0,0,0.1,0.4-0.6,0.9c-0.3,0.2-0.6,0.3-0.7,0.2c-0.1,0-0.2-0.1-0.2-0.1C54.3,46.7,54.1,46.4,53.9,46.2z"/>
		<path class="st7" d="M47.1,40.5c0.2,0,0.4,0,0.6,0c1,0,1.8-0.3,1.9-0.3c0.1,0,0.1-0.1,0.1-0.1c0-0.1-0.1-0.1-0.1-0.1
			c0,0-1.3,0.5-2.4,0.3c-1.1-0.2-1.8-1.7-1.8-1.7c0-0.1-0.1-0.1-0.1-0.1c-0.1,0-0.1,0.1-0.1,0.1C45.2,38.8,45.9,40.3,47.1,40.5z"/>
		<path class="st7" d="M46.3,38.7c0.1,0,0.1,0,0.1-0.1c0-0.1,0.1-0.2,0.2-0.3c0.1,0,0.1,0,0.2,0c0.1,0.1,0.2,0.2,0.2,0.3
			c0.1,0.2,0.2,0.4,0.6,0.4c0.4-0.1,0.5-0.3,0.5-0.4c0.1-0.1,0.1-0.2,0.3-0.2c0.3,0,0.5,0.3,0.7,0.6c0.2,0.2,0.3,0.4,0.5,0.5
			c0,0,0,0,0.1,0c0,0,0.1,0,0.1-0.1c0-0.1,0-0.1,0-0.1c-0.2-0.1-0.3-0.3-0.4-0.5c-0.2-0.3-0.5-0.6-0.8-0.7c-0.4-0.1-0.5,0.1-0.5,0.3
			c-0.1,0.1-0.1,0.3-0.4,0.3c-0.3,0-0.3-0.1-0.4-0.2c-0.1-0.1-0.1-0.3-0.3-0.4c-0.2-0.1-0.3,0-0.4,0c-0.2,0.1-0.3,0.4-0.3,0.4
			C46.2,38.6,46.2,38.7,46.3,38.7z"/>
		<path class="st7" d="M47.1,37.6C47.1,37.6,47.1,37.6,47.1,37.6c0.1,0,0.1,0,0.1-0.1c0-0.1,0.1-0.4,0.2-0.5c0,0,0.1-0.1,0.2,0
			c0.3,0,0.3,0.6,0.3,0.6c0,0.1,0,0.1,0.1,0.1c0.1,0,0.1,0,0.1-0.1c0-0.1,0-0.2-0.1-0.4c0,0,0,0,0-0.1c0,0,0-0.5,0.3-0.8
			c0.2-0.2,0.3-0.2,0.4-0.3c0,0,0.1,0,0.1-0.1c0.1,0,0.4,0.2,0.4,1.1c0,0.9,0,1,0.3,1.2c0.1,0.1,0.2,0.1,0.3,0.2
			c0.4,0.4,0.4,0.8,0.4,0.8c0,0.1,0,0.1,0.1,0.1c0,0,0,0,0,0c0.1,0,0.1,0,0.1-0.1c0,0,0-0.5-0.5-1c-0.1-0.1-0.2-0.2-0.3-0.3
			c-0.2-0.1-0.3-0.2-0.2-1c0-0.5-0.1-0.9-0.3-1.2c-0.1-0.1-0.2-0.1-0.2-0.2c0.1-0.3,0.1-0.7,0.1-0.9c-0.1-0.3-0.5-0.5-0.5-0.5
			c-0.1,0-0.1,0-0.1,0c0,0.1,0,0.1,0,0.1c0.2,0.1,0.4,0.2,0.4,0.4c0,0.2,0,0.8-0.1,0.9c0,0,0,0-0.1,0.1c-0.1,0-0.2,0.1-0.4,0.3
			c-0.2,0.2-0.3,0.5-0.3,0.8c-0.1-0.1-0.2-0.1-0.3-0.1c-0.1,0-0.2,0-0.3,0.1C47,37,47,37.5,47,37.5C47,37.6,47,37.6,47.1,37.6z"/>
		<path class="st7" d="M51.5,35.6c-0.1,0-0.1,0-0.1,0.1c-0.1,0.2-0.7,0.9-1.1,1.3c0,0,0,0.1,0,0.2c0,0,0.1,0,0.1,0c0,0,0.1,0,0.1,0
			c0.1-0.1,1-1,1.1-1.4C51.6,35.7,51.6,35.6,51.5,35.6z"/>
		<path class="st7" d="M52.8,38.1c0.3-0.4,0.3-0.9,0-1.1c-0.3-0.2-0.7-0.2-1.1,0.2c-0.2,0.1-0.3,0.4-0.3,0.6c0,0.2,0.1,0.4,0.2,0.6
			c0.1,0.1,0.3,0.2,0.5,0.2c0,0,0,0,0.1,0C52.4,38.5,52.6,38.4,52.8,38.1z M52.2,38.3c-0.2,0-0.3-0.1-0.4-0.1
			c-0.1-0.1-0.2-0.2-0.2-0.4c0-0.2,0.1-0.3,0.2-0.4c0.1-0.1,0.3-0.3,0.6-0.3c0.1,0,0.2,0,0.3,0.1c0.2,0.2,0.2,0.5,0,0.8
			C52.5,38.2,52.4,38.3,52.2,38.3z"/>
		<path class="st7" d="M52.7,39.9c0,0,0,0.1,0,0.2l2.3,1.9c0,0,0,0,0.1,0c0,0,0.1,0,0.1,0c0,0,0-0.1,0-0.2l-2.3-1.9
			C52.8,39.9,52.8,39.9,52.7,39.9z"/>
		<path class="st7" d="M48.6,34.3c0,0,0.4,0,0.5-0.6c0.1-0.2,0.3-0.5,0.6-0.5c0.1,0,0.4,0,0.5,0.2c0.1,0.1,0.2,0.2,0.2,0.3
			c0.3,0.4,0.6,0.8,1,1c0.2,0.1,0.3,0.3,0.5,0.6c0.2,0.3,0.5,0.6,0.8,0.7c0.4,0.2,1.5,1.3,1.5,1.5c0,0.1,0.1,0.1,0.1,0.1
			c0,0,0,0,0,0c0.1,0,0.1-0.1,0.1-0.1c0-0.3-1.2-1.6-1.7-1.7c-0.2-0.1-0.4-0.4-0.7-0.6c-0.2-0.2-0.4-0.5-0.6-0.6
			c-0.3-0.2-0.6-0.6-0.9-1c-0.1-0.1-0.2-0.2-0.2-0.3C50.3,33,50,32.9,49.7,33c-0.4,0.1-0.7,0.4-0.8,0.7c-0.1,0.4-0.3,0.4-0.3,0.4
			c-0.1,0-0.1,0-0.1,0.1C48.5,34.3,48.6,34.3,48.6,34.3z"/>
	</g>
</g>
</svg>
