<?xml version="1.0" encoding="utf-8"?>
<!-- Generator: Adobe Illustrator 25.4.1, SVG Export Plug-In . SVG Version: 6.00 Build 0)  -->
<svg version="1.1" id="Layer_1" xmlns="http://www.w3.org/2000/svg" xmlns:xlink="http://www.w3.org/1999/xlink" x="0px" y="0px"
	 viewBox="0 0 90.7 80" style="enable-background:new 0 0 90.7 80;" xml:space="preserve">
<style type="text/css">
	.st0{fill-rule:evenodd;clip-rule:evenodd;fill:#E47629;}
</style>
<g>
	<polygon class="st0" points="64,77.7 63.8,77.7 90.7,24.9 90.2,2 86.3,21 83.4,12.7 80.6,19.9 76.4,0 75.6,20.7 71.8,14.7 71.1,22 
		61.3,2.7 65.7,23.6 60.9,18.6 60.9,25.3 48.2,8.9 56.1,27.3 50.5,24.4 51.5,29.6 35.3,16.3 46.9,32.3 41.5,31.5 43.6,36.2 
		25.7,25.5 39,39.6 31.8,37.8 36,44.6 16.8,37.4 33.7,50.1 27.7,49.8 31.2,53.9 10.5,50.6 29.4,59 24.1,60.1 28.5,63.4 7,63.2 
		27.2,69.5 21.1,71 28.3,75.2 0,77.7 1.3,80 62.8,80 	"/>
</g>
</svg>
