<?xml version="1.0" encoding="utf-8"?>
<!-- Generator: Adobe Illustrator 25.4.1, SVG Export Plug-In . SVG Version: 6.00 Build 0)  -->
<svg version="1.1" id="Layer_1" xmlns="http://www.w3.org/2000/svg" xmlns:xlink="http://www.w3.org/1999/xlink" x="0px" y="0px"
	 viewBox="0 0 411.6 80" style="enable-background:new 0 0 411.6 80;" xml:space="preserve">
<style type="text/css">
	.st0{fill:#2E284F;}
	.st1{fill-rule:evenodd;clip-rule:evenodd;fill:#E47629;}
</style>
<g>
	<path id="path14" class="st0" d="M87.8,37.5l-6.1,13.8h12.2L87.8,37.5z M87.8,27.6l17.5,39.1h-5l-5-11.5h-15l-5,11.5h-5L87.8,27.6z
		 M109.8,66.7V46.3h2.5v20.3H109.8z M118.5,66.7V46.3h4.9c1.4,0,2.4,0.1,3.1,0.2c0.6,0.2,1.2,0.4,1.7,0.8c0.6,0.5,1.1,1.1,1.4,1.9
		c0.3,0.8,0.5,1.7,0.5,2.6c0,1.7-0.5,2.9-1.4,3.8c-0.9,0.9-2.3,1.3-4.2,1.3h-0.4l7.9,9.7h-3.1l-7.6-9.7H121v9.7H118.5z M121,48.4
		v6.8h1.9c1.9,0,3.2-0.2,3.9-0.7c0.7-0.5,1-1.3,1-2.5c0-1.3-0.3-2.2-1-2.7c-0.7-0.5-2-0.8-3.9-0.8H121z M163.8,46.3
		c2.5,1,4.4,2.4,5.7,4.2c1.3,1.7,1.9,3.8,1.9,6.1c0,3.5-1.1,6.2-3.4,8.4c-2.2,2.1-5.2,3.2-8.9,3.2c-3,0-5.6-0.8-7.6-2.3
		c-2-1.5-3.4-3.7-4.1-6.5l4.1-2c0.6,2.3,1.5,4,2.8,5.2c1.3,1.2,2.9,1.8,4.8,1.8c2.3,0,4.1-0.6,5.6-1.9c1.4-1.3,2.1-3,2.1-5
		c0-1.7-0.5-3.1-1.5-4.4c-1-1.2-2.5-2.3-4.5-3.1l-4.7-2c-2.5-1-4.5-2.4-5.7-4c-1.3-1.6-1.9-3.6-1.9-5.9c0-2.7,1-4.9,3-6.6
		c2-1.7,4.6-2.6,7.8-2.6c2.3,0,4.3,0.5,6,1.4c1.7,1,3,2.4,3.9,4.2l-3.8,2.4c-0.8-1.5-1.8-2.5-2.9-3.2c-1.1-0.7-2.3-1.1-3.6-1.1
		c-1.7,0-3.1,0.5-4.2,1.5c-1.1,1-1.6,2.3-1.6,3.9c0,1.3,0.4,2.5,1.3,3.5c0.8,1,2.1,1.8,3.9,2.6L163.8,46.3z M177.6,45.8h2.5v12.7
		c0,2.1,0.4,3.6,1.3,4.5c0.9,1,2.3,1.4,4.2,1.4c1.9,0,3.3-0.5,4.2-1.4c0.9-1,1.3-2.5,1.3-4.5V45.8h2.5v12.7c0,2.8-0.7,4.8-2,6.2
		c-1.3,1.4-3.4,2-6,2c-2.7,0-4.7-0.7-6-2c-1.3-1.4-2-3.4-2-6.2V45.8z M198.2,65.9V44.7L214.7,61V45.5h2.6v21.1l-16.5-16.1v15.3
		L198.2,65.9z M230.5,54.9c1.4,0.6,2.4,1.3,3.1,2.2c0.7,0.9,1,2,1,3.3c0,1.9-0.6,3.4-1.8,4.5c-1.2,1.1-2.8,1.7-4.8,1.7
		c-1.6,0-3-0.4-4.1-1.2c-1.1-0.8-1.9-2-2.2-3.5l2.2-1.1c0.3,1.2,0.8,2.2,1.5,2.8c0.7,0.6,1.6,1,2.6,1c1.2,0,2.2-0.4,3-1
		c0.8-0.7,1.1-1.6,1.1-2.7c0-0.9-0.3-1.7-0.8-2.4c-0.5-0.7-1.3-1.2-2.4-1.7l-2.5-1.1c-1.4-0.6-2.4-1.3-3.1-2.2c-0.7-0.9-1-2-1-3.2
		c0-1.4,0.5-2.6,1.6-3.6c1.1-0.9,2.5-1.4,4.2-1.4c1.2,0,2.3,0.3,3.2,0.8c0.9,0.5,1.6,1.3,2.1,2.3l-2,1.3c-0.5-0.8-1-1.4-1.6-1.8
		c-0.6-0.4-1.2-0.6-2-0.6c-0.9,0-1.7,0.3-2.3,0.8c-0.6,0.6-0.9,1.3-0.9,2.1c0,0.7,0.2,1.3,0.7,1.9c0.5,0.5,1.2,1,2.1,1.4L230.5,54.9
		z M239.5,66.7V46.3h2.5v7.8h11v-7.8h2.5v20.3H253V56.5h-11v10.2H239.5z M262.6,66.7V46.3h2.5v20.3H262.6z M270.7,65.9V44.7
		L287.2,61V45.5h2.6v21.1l-16.6-16.1v15.3L270.7,65.9z M296.8,66.7V46.3h11v2.2h-8.5v5.8h8.5v2.3h-8.5v7.8h8.5v2.3H296.8"/>
	<path class="st1" d="M407.3,72.7c-1.6-0.1-16.5-1.3-16.5-1.3s-1-3.6-6.9-3.6l-33.5,0.5l-12.7-9h-8.4v4.3l7,8l4.9,2.5L60.8,74
		l25.6-50.3L85.9,1.9L82.2,20l-2.8-7.9l-2.6,6.9L72.7,0L72,19.7L68.3,14l-0.6,7L58.3,2.6l4.2,19.9L58,17.7l0,6.3L45.9,8.5L53.4,26
		l-5.3-2.8l0.9,4.9L33.6,15.5l11,15.2L39.5,30l2,4.5L24.5,24.2l12.6,13.4L30.3,36l3.9,6.4L16,35.6l16,12.1l-5.7-0.3l3.4,4L10,48.1
		l18,8l-5,1.1l4.1,3.2L6.7,60.1l19.3,6l-5.8,1.5l6.8,4L0,74l1.2,2.2l348.6-0.1l19.6,3.9l39.5-2.2c0,0,2.7,0.1,2.7-1.7
		C411.6,74.4,408.9,72.8,407.3,72.7z"/>
</g>
</svg>
