<?xml version="1.0" encoding="utf-8"?>
<!-- Generator: Adobe Illustrator 25.4.1, SVG Export Plug-In . SVG Version: 6.00 Build 0)  -->
<svg version="1.1" id="Layer_1" xmlns="http://www.w3.org/2000/svg" xmlns:xlink="http://www.w3.org/1999/xlink" x="0px" y="0px"
	 viewBox="0 0 679.15 80" style="enable-background:new 0 0 679.15 80;" xml:space="preserve">
<style type="text/css">
	.st0{fill:#29166F;}
	.st1{fill:#007CC1;}
	.st2{fill:#76C5F0;}
	.st3{fill:#1F1A17;}
</style>
<g>
	<rect x="90.79" y="0.85" class="st0" width="12.96" height="39.17"/>
	<path class="st0" d="M75.7,0.85l-9.69,27.49L56.32,0.85H42.79c0,0,9.69,24.22,13.39,32.91c0.94,2.21,2.3,4.38,4.32,5.76
		c1.6,1.09,3.56,1.34,5.45,1.34c1.92-0.01,3.77-0.16,5.42-1.23c2.1-1.37,3.5-3.59,4.47-5.86c3.7-8.69,13.39-32.91,13.39-32.91H75.7z
		"/>
	<path class="st0" d="M32.91,40.02h13.53c0,0-9.69-24.22-13.39-32.91c-1.01-2.36-2.5-4.69-4.75-6.03c-1.63-0.98-3.6-1.14-5.46-1.07
		c-1.88,0.07-3.67,0.31-5.24,1.42c-2.03,1.43-3.12,3.52-4.21,5.68C9.69,15.81,0,40.02,0,40.02h13.53l3.06-8.68h13.25L32.91,40.02z
		 M19.8,22.22l3.41-9.69l3.41,9.69H19.8z"/>
	<path class="st0" d="M137.89,40.02h13.53c0,0-9.69-24.22-13.39-32.91c-3.7-8.69-9.83-6.98-9.83-6.98s-6.13-1.71-9.83,6.98
		c-3.7,8.69-13.39,32.91-13.39,32.91h13.53l3.06-8.68h13.25L137.89,40.02z M124.79,22.22l3.41-9.69l3.41,9.69H124.79z"/>
	<path class="st1" d="M162.45,40.02c0.14-0.43,6.98-29.2,6.98-29.2h-13.82l2.71-9.97h40.74l-2.42,9.69h-14.96l-7.12,29.49H162.45z"
		/>
	<path class="st1" d="M216.29,40.02h15.38l-7.26-11.97c7.98,0,12.82-6.55,14.1-19.23c0.87-8.65-8.12-7.98-8.12-7.98
		s-15.53,0-22.36,0s-8.12,5.7-8.12,5.7l-8.26,33.48h12.68l6.7-27.14c0,0,0.64-2.21,3.56-2.21c2.92,0,8.05,0,8.05,0
		s3.42,0.14,2.35,3.56c-1.07,3.42-2.14,4.91-6.98,4.91c-4.84,0-7.91,3.28-7.91,5.2S216.29,40.02,216.29,40.02z"/>
	<path class="st1" d="M272.98,8.04c-0.78-5.2-2.42-7.83-9.05-7.83c-6.62,0-9.54,5.27-9.54,5.27s-22.44,34.4-22.72,34.54h13.32
		l5.06-7.98h14.1l1,7.98h13.46C278.61,40.02,273.77,13.24,272.98,8.04z M255.14,22.93l6.66-10.75l1.28,10.75H255.14z"/>
	<path class="st1" d="M279.64,40.02l8.12-33.15c0,0,1.39-6.03,8.97-6.03s28.74,0,28.74,0l-2.35,9.77h-20.57c0,0-3.37-0.75-4.01,5.02
		h16.56l-2.24,9.08h-16.56l-3.85,15.31L279.64,40.02z"/>
	<path class="st1" d="M318.85,40.02l8.12-33.15c0,0,1.39-6.03,8.97-6.03c7.59,0,28.74,0,28.74,0l-2.35,9.77h-20.57
		c0,0-3.37-0.75-4.01,5.02h16.56l-2.24,9.08h-16.56l-3.85,15.31L318.85,40.02z"/>
	<polygon class="st1" points="357.74,40.02 367.78,0.84 380.28,0.84 370.67,40.02 	"/>
	<path class="st1" d="M415.97,10.61l2.78-9.77h-17.73c0,0-14-1.13-19.02,12.65c-5.02,13.78-5.98,26.53,7.8,26.53s19.55,0,19.55,0
		l2.56-9.97h-12.71c0,0-8.33,0.64-6.62-6.41c1.71-7.05,4.49-13.03,9.94-13.03C407.95,10.61,415.97,10.61,415.97,10.61z"/>
	<polygon class="st0" points="439.23,25.99 446.84,0.81 679.15,0.81 654.5,25.99 	"/>
	<path class="st1" d="M438.23,28.77l-7.31,23.72h197.63l23.21-23.7c0.01-0.01,0-0.02-0.01-0.02
		C649.06,28.98,438.23,28.77,438.23,28.77z"/>
	<polygon class="st2" points="430,55.48 422.7,79.19 602.39,79.19 625.62,55.48 	"/>
	<g>
		<path class="st3" d="M3.73,72.31v-6.29c0-2.86,3.74-3.33,4.23-3.38h7.98v-3.21H7.89l-0.12,0c-2.51,0.19-7.26,1.8-7.26,6.59v6.34
			l0,0.08c0.13,2.42,1.8,7.01,7.23,7.01h8.49v-3.21H7.75C4.22,76.24,3.78,73.03,3.73,72.31z"/>
		<path class="st3" d="M63.78,59.43c-2.36,0-3.79,2.9-4.44,4.62c-0.4,1.07-3.5,8.87-4.43,11.22c-0.93-2.34-4.02-10.15-4.43-11.22
			c-0.65-1.73-2.08-4.62-4.44-4.62c-2.02,0-2.94,1.88-2.94,3.64V79.3h3.21V63.06c0-0.02,0-0.04,0-0.07
			c0.34,0.43,0.79,1.19,1.16,2.18c0.47,1.25,4.36,11.06,4.69,11.9c0.39,1.16,1.31,2.37,2.74,2.37s2.35-1.22,2.74-2.37
			c0.33-0.84,4.22-10.64,4.69-11.9c0.37-0.99,0.82-1.76,1.16-2.18c0,0.03,0,0.05,0,0.07V79.3h3.21V63.06
			C66.73,61.31,65.8,59.43,63.78,59.43z"/>
		<path class="st3" d="M31.73,59.05h-4.67c-0.32,0-3.2,0-5.28,2.04c-1.31,1.28-1.97,3.02-1.97,5.17v6.78l0.01,0.14
			c0.21,2.35,1.94,6.8,6.94,6.8H32c5.01,0,6.73-4.45,6.94-6.81l0.01-6.93c0-2.15-0.66-3.89-1.97-5.17
			C34.9,59.05,32.03,59.05,31.73,59.05z M35.74,72.96c-0.07,0.62-0.61,3.82-3.74,3.82h-5.23c-3.13,0-3.66-3.23-3.74-3.82v-6.7
			c0-1.26,0.32-2.2,0.99-2.86c1.14-1.14,2.98-1.15,3.01-1.14h4.72c0.02-0.03,1.85,0,2.99,1.14c0.67,0.66,0.99,1.6,0.99,2.86V72.96z"
			/>
		<path class="st3" d="M88.73,64.18c0-3.76-3.53-5-5.4-5.13l-8.5,0c-2.12,0-3.26,1.68-3.26,3.26V79.3h3.21v-6.94h8.65
			c1.8,0,3.19-0.51,4.14-1.52c1.11-1.17,1.16-2.58,1.15-2.94V64.18z M85.25,68.64c-0.31,0.33-0.95,0.51-1.81,0.51h-8.65v-6.83
			c0,0,0.01-0.02,0.01-0.05c0.01,0,0.02,0,0.03,0h8.32c0.34,0.03,2.36,0.29,2.36,1.92v3.74l0,0.09
			C85.52,68.02,85.5,68.37,85.25,68.64z"/>
		<path class="st3" d="M126.6,59.59v15.78c-0.16-0.19-0.32-0.42-0.43-0.64l-0.09-0.16c-0.28-0.42-6.81-10.4-7.62-11.54
			c-0.15-0.21-0.3-0.45-0.45-0.69c-0.72-1.16-1.82-2.92-3.85-2.92c-0.78,0-1.48,0.31-1.97,0.88c-0.89,1.02-0.83,2.53-0.76,3.12V79.3
			h3.21V63.33l-0.01-0.21c0-0.02,0-0.04-0.01-0.05c0.25,0.33,0.52,0.76,0.66,0.98c0.19,0.3,0.37,0.6,0.56,0.86
			c0.61,0.86,5.15,7.77,7.5,11.36c0.33,0.62,1.58,2.72,3.63,2.72c1.03,0,1.66-0.42,2.01-0.77c0.83-0.83,0.82-1.93,0.82-2.52l0-16.1
			H126.6z"/>
		<path class="st3" d="M98.88,59.05c-1.88,0-2.82,1.59-3.12,2.63L88.21,79.3h3.5l2.09-4.87h10.04l2.02,4.87h3.48l-7.32-17.61
			C101.71,60.65,100.76,59.05,98.88,59.05z M95.17,71.22l3.59-8.38l0.08-0.23c0.01-0.04,0.03-0.09,0.05-0.13
			c0.02,0.04,0.03,0.08,0.04,0.11l3.58,8.63H95.17z"/>
		<polygon class="st3" points="147.82,59.59 141.56,69.24 135.3,59.59 131.47,59.59 139.95,72.67 139.95,79.3 143.17,79.3 
			143.17,72.67 151.65,59.59 		"/>
	</g>
</g>
</svg>
