<?xml version="1.0" encoding="utf-8"?>
<!-- Generator: Adobe Illustrator 25.4.1, SVG Export Plug-In . SVG Version: 6.00 Build 0)  -->
<svg version="1.1" id="Layer_1" xmlns="http://www.w3.org/2000/svg" xmlns:xlink="http://www.w3.org/1999/xlink" x="0px" y="0px"
	 viewBox="0 0 114.51 80" style="enable-background:new 0 0 114.51 80;" xml:space="preserve">
<style type="text/css">
	.st0{fill:#2056AE;}
</style>
<path id="path2523" class="st0" d="M41.93,42.31c-0.84-1.52-1.37-3.23-1.5-5.06c3.42-0.07,6.79-0.03,10.09,0.1L41.93,42.31z
	 M47.47,25.1c2.22-1.1,8.76-3.59,25-5.7c0,0,21.54-2.71,39.11-10.57L114.51,0C98.07,8.54,82.74,10.75,72.46,12.66
	c-9.6,1.75-19.55,2.7-27.57,6.29c-4.94,2.26-8.76,6.57-10.35,11.84c-3.76,0.22-7.43,0.59-10.9,1.18h0C10.32,33.58,0,44.92,0,58.68
	C0,66.9,3.69,74.26,9.51,79.2l0.04,0.09h0c-0.01-0.02-0.01-0.05-0.02-0.07c0,0,0,0,0,0l-0.17-0.77c-1.05-5.53,1.64-9.17,1.64-9.17
	c3.1-4.88,8.15-7.16,15.9-7.16c18.15,0,37.54,8.12,56.3,15.97l4.5,1.91l2.19-6.33c-20.29-8.45-42.1-18.21-62.99-18.21
	c-7.03,0-14.5,1.64-19.72,7.79c-0.34-1.47-0.52-3-0.52-4.57c0-10.36,7.82-18.92,17.86-20.1l0,0c3.08-0.47,6.17-0.8,9.24-1.02
	c0.34,5.31,2.85,10.03,6.65,13.28l0.01-0.01l0.02,0.03l31.96-18.45c-8.79-1-19.78-1.95-30.59-1.86
	C43.06,28.18,45.05,26.26,47.47,25.1"/>
</svg>
