<?xml version="1.0" encoding="utf-8"?>
<!-- Generator: Adobe Illustrator 25.4.1, SVG Export Plug-In . SVG Version: 6.00 Build 0)  -->
<svg version="1.1" id="Layer_1" xmlns="http://www.w3.org/2000/svg" xmlns:xlink="http://www.w3.org/1999/xlink" x="0px" y="0px"
	 viewBox="0 0 955.98 80" style="enable-background:new 0 0 955.98 80;" xml:space="preserve">
<style type="text/css">
	.st0{fill:#2056AE;}
</style>
<g id="layer1" transform="translate(-201.31753,-294.26894)">
	<g id="g2640" transform="matrix(0.27676705,0,0,0.27676705,145.86405,217.74713)">
		<path id="path2523" class="st0" d="M351.86,429.36c-3.03-5.49-4.95-11.68-5.44-18.27c12.35-0.26,24.54-0.1,36.45,0.37
			L351.86,429.36z M371.87,367.17c8.01-3.98,31.65-12.97,90.33-20.61c0,0,77.83-9.78,141.31-38.2l10.61-31.88
			c-59.42,30.85-114.79,38.84-151.92,45.75c-34.69,6.31-70.64,9.74-99.62,22.73c-17.86,8.18-31.63,23.73-37.4,42.77
			c-13.59,0.79-26.85,2.15-39.39,4.26h0c-48.12,5.83-85.41,46.8-85.41,96.5c0,29.72,13.34,56.32,34.36,74.15l0.13,0.32h0
			c-0.02-0.08-0.05-0.17-0.06-0.26c0,0,0,0.01,0,0.01l-0.61-2.78c-3.8-19.97,5.94-33.13,5.94-33.13
			c11.2-17.64,29.45-25.87,57.45-25.87c65.57,0,135.65,29.34,203.41,57.72l16.27,6.89l7.92-22.87
			c-73.31-30.53-152.11-65.81-227.6-65.81c-25.38,0-52.39,5.94-71.25,28.14c-1.23-5.3-1.89-10.83-1.89-16.51
			c0-37.43,28.25-68.37,64.55-72.64l0,0c11.13-1.7,22.28-2.89,33.38-3.68c1.23,19.19,10.29,36.25,24.02,48l0.05-0.02l0.06,0.11
			l115.48-66.67c-31.76-3.63-71.48-7.05-110.54-6.71C355.94,378.32,363.13,371.37,371.87,367.17"/>
		<path id="path2525" class="st0" d="M764.09,337.98l24.96,129.45l72.03-129.45h46.57l-33.96,178.73h-33.96l29.07-153.28
			l-84.64,153.28h-17.5l-29.07-153.28l-29.07,153.28h-24.44l33.96-178.73H764.09"/>
		<path id="path2527" class="st0" d="M957.75,451.44c0,24.38,11.06,47.4,39.62,47.4c47.08,0,62-64.73,62-100.21
			c0-27.35-13.38-42.51-38.08-42.51c-43.74,0-63.55,54.7-63.55,95.06V451.44z M919.41,443.33c0-47.12,32.16-107.78,102.14-107.78
			c42.45,0,75.89,22.47,75.89,70.41c0,40.34-23.15,113.47-100.08,113.47c-51.45,0-77.96-32.51-77.96-75.83V443.33"/>
		<path id="path2529" class="st0" d="M1163.34,337.98l81.3,128.09l24.44-128.09h24.7l-33.96,178.73h-22.38l-81.3-128.09
			l-24.44,128.09H1107l33.96-178.73H1163.34"/>
		<path id="path2531" class="st0" d="M1467.17,337.98l-4.12,20.85h-56.34l-29.84,157.88h-35.77l29.85-157.88h-56.34l3.86-20.85
			H1467.17"/>
		<path id="path2533" class="st0" d="M1602.49,337.98l-4.37,21.66h-74.86l-10.29,54.16h69.71l-4.12,21.12h-69.71l-11.06,59.57h80.52
			l-3.86,22.21h-116.8l33.96-178.73L1602.49,337.98"/>
		<path id="path2535" class="st0" d="M1659.85,337.98l81.3,128.09l24.44-128.09h24.7l-33.96,178.73h-22.38l-81.3-128.09
			l-24.44,128.09h-24.7l33.96-178.73H1659.85"/>
		<path id="path2537" class="st0" d="M1931.52,337.98l-4.38,21.66h-74.89l-10.28,54.16h69.71l-4.12,21.12h-69.71l-11.06,59.57h80.53
			l-3.86,22.21h-116.82l33.96-178.73L1931.52,337.98"/>
		<path id="path2539" class="st0" d="M2079.21,505.88c-20.33,8.94-35.49,13.54-57.63,13.54c-58.4,0-84.13-40.89-84.13-78.81
			c0-49.29,35.52-105.07,112.18-105.07c19.81,0,35.25,3.25,49.4,8.12l-6.43,20.58c-13.13-4.61-26.5-7.05-38.08-7.05
			c-49.13,0-78.73,41.43-78.73,85.31c0,24.37,13.12,46.31,40.39,52.26c10.81,2.17,20.84,2.17,32.16,0.54l9.26-48.21h-37.57
			l3.87-20.58h70.49L2079.21,505.88"/>
		<path id="path2541" class="st0" d="M2176.97,358.56l-11.83,61.48h10.81c17.49,0,29.06-0.27,38.85-5.96
			c10.29-6.51,17.23-20.04,17.23-31.69c0-24.1-21.87-23.83-44-23.83L2176.97,358.56z M2188.56,337.98c25.72,0,38.84,0.27,53.51,5.14
			c10.55,3.8,27.26,14.36,27.26,35.48c0,39.53-40.64,51.99-57.37,53.34l55.06,84.77h-40.65l-47.6-78.54h-16.98l-14.67,78.54h-35.75
			l33.96-178.73H2188.56"/>
		<path id="path2543" class="st0" d="M2323.88,451.44c0,24.38,11.07,47.4,39.62,47.4c47.09,0,62-64.73,62-100.21
			c0-27.35-13.38-42.51-38.08-42.51c-43.73,0-63.55,54.7-63.55,95.06V451.44z M2285.55,443.33c0-47.12,32.15-107.78,102.14-107.78
			c42.45,0,75.9,22.47,75.9,70.41c0,40.34-23.16,113.47-100.08,113.47c-51.45,0-77.95-32.51-77.95-75.83V443.33"/>
		<path id="path2545" class="st0" d="M2615.31,444.67h51.46l-14.67-64.99L2615.31,444.67z M2673.98,337.98l46.06,178.73h-36.79
			l-12.09-53.08h-66.37l-29.85,53.08h-27.78l105.49-178.73H2673.98"/>
		<path id="path2547" class="st0" d="M2812.9,337.98l-33.7,178.73h-36.02l33.96-178.73H2812.9"/>
		<path id="path2549" class="st0" d="M2876.6,358.56l-11.83,61.48h10.8c17.49,0,29.07-0.27,38.85-5.96
			c10.29-6.51,17.23-20.04,17.23-31.69c0-24.1-21.86-23.83-44-23.83L2876.6,358.56z M2888.17,337.98c25.73,0,38.85,0.27,53.51,5.14
			c10.55,3.8,27.27,14.36,27.27,35.48c0,39.53-40.65,51.99-57.37,53.34l55.05,84.77h-40.65l-47.59-78.54h-16.99l-14.66,78.54h-35.76
			l33.96-178.73H2888.17"/>
		<path id="path2551" class="st0" d="M3054.11,337.98l-29.84,156.52h76.66l-4.12,22.21h-112.43l33.96-178.73L3054.11,337.98"/>
		<path id="path2553" class="st0" d="M3195.85,337.98l-33.7,178.73h-36.02l33.96-178.73H3195.85"/>
		<path id="path2555" class="st0" d="M3249.96,337.98l81.3,128.09l24.44-128.09h24.71l-33.97,178.73h-22.38l-81.3-128.09
			l-24.44,128.09h-24.69l33.96-178.73H3249.96"/>
		<path id="path2557" class="st0" d="M3524.53,337.98l-4.37,21.66h-74.87L3435,413.8h69.72l-4.11,21.12h-69.73l-11.06,59.57h80.53
			l-3.86,22.21h-116.8l33.96-178.73L3524.53,337.98"/>
		<path id="path2559" class="st0" d="M3648.28,363.7c-7.98-2.71-21.35-7.05-36.79-7.05c-21.1,0-37.56,9.21-37.56,23.56
			c0,10.02,6.95,14.63,23.16,27.35l5.91,4.33c21.88,16.8,40.14,29.8,40.14,53.08c0,23.02-19.03,54.44-68.69,54.44
			c-21.87,0-39.36-4.88-55.32-12.46l7.72-19.77c12.87,5.42,28.3,11.1,46.31,11.1c27.28,0,37.05-15.16,37.05-26.27
			c0-10.28-7.46-16.51-28.04-31.67l-4.38-3.25c-21.61-15.71-37.05-27.9-37.05-49.83c0-29.51,28.3-51.72,69.72-51.72
			c14.92,0,29.84,2.44,43.99,7.85L3648.28,363.7"/>
	</g>
</g>
</svg>
