<?xml version="1.0" encoding="utf-8"?>
<!-- Generator: Adobe Illustrator 25.4.1, SVG Export Plug-In . SVG Version: 6.00 Build 0)  -->
<svg version="1.1" id="Layer_1" xmlns="http://www.w3.org/2000/svg" xmlns:xlink="http://www.w3.org/1999/xlink" x="0px" y="0px"
	 viewBox="0 0 80 80" style="enable-background:new 0 0 80 80;" xml:space="preserve">
<style type="text/css">
	.st0{fill-rule:evenodd;clip-rule:evenodd;}
	.st1{fill-rule:evenodd;clip-rule:evenodd;fill:#FFFFFF;}
	.st2{fill-rule:evenodd;clip-rule:evenodd;fill:#722B1F;}
	.st3{fill-rule:evenodd;clip-rule:evenodd;fill:#B93F2C;}
	.st4{fill-rule:evenodd;clip-rule:evenodd;fill:#EAC03F;}
</style>
<g>
	<path class="st0" d="M72.8,0.6V1C68.4,4.4,64.3,9.6,59,11.3c-5.8,4.9-13.4,8.3-17,15.3c-6.3,12.3-17.8,18.9-28,25.5
		c-2.3,1.5-2.8,2.2-4.1,1.4c-0.1-0.1-0.1-0.2-0.1-0.3c0,0,0-0.1,0.1-0.1c4.5-2.8,9-6.8,11.9-11.4c0.2-0.7,0.8-1.5,0.3-2.3
		c-0.2-0.5-1.1-0.4-1.5,0C14.4,43.5,8.1,48.9,0,47.1l4.5-3.7c1.3,0.1,3.8,0.3,5.7-1.4c6.4-5.5,11.5-12.5,18.5-16.8
		c8.6-5.4,17.8-9.6,26.5-14.7c2.6-3,3.8-7.7,8.4-8c3-0.4,6.1-0.6,8.5-2.5C72.5,0,72.8,0.3,72.8,0.6L72.8,0.6z"/>
	<path class="st1" d="M65.2,5.6c-1,1-2.5,2.8-4.3,2.5c-0.3-0.3-0.4-0.8-0.2-1.2C61.6,5.3,63.5,5.7,65.2,5.6z"/>
	<path class="st0" d="M42.3,72c1.6-0.1,3.1,1.5,4,0l0.6,0.5c1.5-0.7,3.4-1.2,5.2-0.9c0.3-0.2,0.4-0.9,0.9-0.7c1,1.2,1.6-0.8,2.4-1.1
		c0.7-0.8,2.7-0.5,2.4-1.9c0.4-1.4,1,0.7,1.6-0.3c0.8-1.6,3.1-1,3.3-2.7c0.3-0.2,0.7,0.2,1.1,0.2c0.7-1.3,2.1-2.5,3.4-3.1
		c0-0.3-0.4-0.6,0-0.9c1.2,0.2,0.8-0.8,1-1.5c0.1-1.3,2.1-2.2,1.7-3.6c0.2-0.3,0.5-0.2,0.7-0.4c-0.3-1.2,1.3-2.2,0.3-3.1
		c0-0.5,0.5-0.3,0.7-0.6c-0.5-1.3,0.7-2.3,0.3-3.3c0.2-0.2,0.3-0.3,0.5-0.4c-0.7-1.3,1.1-2.6,0.1-3.2c-0.1-0.1-0.1-0.2-0.1-0.4
		c0-0.3,0.1-0.5,0.1-0.8c0.1-0.5,0.3-1,0.4-1.6c0.2-0.6,0.4-1.2,0.6-1.8c0.1-0.2,0.1-0.5,0.1-0.7c-0.1-0.3-0.2-0.6-0.3-0.9
		c-0.2-0.4-0.5-0.8-0.6-1.2c-0.1-0.4-0.1-0.9,0-1.3c0.1-0.4,0.3-0.8,0.4-1.2c0-0.2,0.1-0.3,0.1-0.5c0-0.2-0.1-0.5-0.2-0.7
		c-0.1-0.2-0.2-0.3-0.4-0.5c-0.5-0.5-0.7-1.2-0.8-1.5c-0.1-0.3,0-0.6,0-0.9c0-0.4,0.2-0.7,0.2-1.1c0-0.1,0.1-0.3,0-0.4
		c0-0.2-0.2-0.3-0.3-0.5c-0.1-0.2-0.2-0.5-0.2-0.7c-0.1-0.3-0.2-0.5-0.2-0.8c0-0.3,0-0.7,0-1c0-0.3,0-0.6,0-0.9c0-0.2,0.1-0.4,0-0.6
		c0-0.2-0.1-0.3-0.2-0.5c-0.2-0.2-0.4-0.3-0.6-0.5c-0.2-0.2-0.3-0.3-0.5-0.5c-0.1-0.2-0.2-0.4-0.2-0.6c-0.1-0.6-0.2-1.2-0.3-1.8
		c-0.2-0.9-2.1-2.4-2.7-3.4c-1.1-1.7-1.2-2.9-1.1-4.9c1,0.3,1.6,0.4,2.3-0.4l0.4-0.4l-2.4-3.1c0.3-0.7,1.1-1.4,1.9-1.5
		c1.3,0.8,1.7,2.6,3.2,3c0.3,1.2,1,3.1,2.4,3.5c-0.1,2.1,1.3,3.9,2,5.8c0.5,0,0.9,0,1,0.4c-1.1,1.5,0.5,3.3,0.5,5.1
		c0.8,0.3,0.9,1.1,0.3,1.8c0.6,1.4,0.1,3.8,1.8,4.3c0.3,0.5-0.5,0.7-0.7,0.9l0.2,4.4c0.3,0.2,0.7,0.2,0.7,0.6
		c-1.1,0.9-0.5,3-0.9,4.3c-0.8,0.9-0.9,2.1-1.9,2.9c-0.2-1.4-1.8-0.1-2.5,0.1c-0.1,0.8,1.2,0.6,1.7,1.1l-0.1,0.4
		c-0.8,0.3-2.5-1.2-2.5,0.6c0.2,0.5-0.4,1,0.1,1.4c0.7-0.1,1.2-0.4,1.9-0.4c0.2,1.2-1.2,0.7-1.8,1.3c0.5,0.6,1,1.8,1.8,1.8l0.3-0.3
		c0.2,1.7,1.7,3.4,0.7,5.2l0.4,1L76.3,57l-1.9,4.6c0.3,0.2,0.3,0.8,0.1,1.1H74l-3.5,4.8c-0.1,0.4,0.3,0.6,0.1,1l-1.1,0l-4.3,4.2
		l-0.2,0.7H64c-1.8,1.5-4.4,2-5.5,3.9c-0.2,0.2-0.5,0-0.7-0.3l-5.3,1.7l-0.5,0.9l-1-0.5l-7.9,0.4C42.8,80,42.4,80,42.2,80l-0.3-0.4
		l-6.9-1.8c-0.3,0.1-0.6,0.3-1,0.2c0-0.5-0.4-1-0.8-1l-4.6-2.7c-0.4,0-0.9,0.6-1.1-0.1c0.2-0.2,0.1-0.5,0.1-0.7
		c-1.5-1.1-2.5-3.1-4.3-3.4c-0.4-0.3,0-0.7,0-1c-1.3-1.2-1.8-3.4-3.7-3.8l0.3-0.8l-2.1-4c-0.3,0-1.1-0.2-0.6-0.7
		c0.3-1-0.7-1.9-0.8-3l-0.9-0.4c1.1-1.2-1.1-1-0.2-2.1c0.7-0.6,1.6-1.2,2.6-1.2c0.2,0.2,0,0.5,0.2,0.7c1-0.7,2.8-1.4,2.7-2.8
		l1.1-0.9c0.4,1.8,0.6,3.7,0.4,5.6c0,0.2,0.1,0.5,0.3,0.6c1.3,0.7,1.8,1.5,1.9,3.3c0,0.7,1,0.4,1.5,0.7c0.7,0.5,0.7,1,0.9,1.8
		c0.1,0.4,0.3,0.8,0.4,1.3c0.1,0.4,0.2,0.8,0.3,1.2c0,0.1,0.1,0.3,0.2,0.4c0.2,0.2,0.5,0.4,0.8,0.6c0.4,0.3,0.8,0.5,1.1,0.8
		c0.3,0.2,0.5,0.4,0.8,0.6c0.2,0.1,0.3,0.3,0.5,0.5c0.4,0.5,0.2,0.8,0.1,1.4c0.4,0.1,0.7,0.2,1,0.3c0.4,0.2,0.9,0.4,1.3,0.6
		c0.3,0.2,0.6,0.6,0.9,0.9c0.2,0.1,0.4,0.2,0.6,0.3c0.4,0.1,0.8,0.2,1.2,0.2c0.5,0.1,1.1,0.1,1.6,0.2c0.4,0.1,0.8,0.2,1.2,0.4
		c0,0,0.9,0.4,1,0.5C41,72.3,41.3,72.1,42.3,72L42.3,72z M79.9,43.6c-1.2,0.7-0.9,2-1.4,2.9c-0.7-0.2-1.8-0.2-1.9-1.1
		c0.2,0,0.3-0.2,0.5-0.3c-0.5-0.5,0.5-0.4,0.6-0.7l1.8-2.8C80.3,41.8,80,43,79.9,43.6L79.9,43.6z M78.9,53.3c-0.2,0.3-0.5,0.8-1,0.9
		c-0.6-1.9-1.3-3.9-1.5-6.1l1,0.2L78.9,53.3z M76.9,40.3c-0.4,0.3-0.9,0-1.3-0.2l0-0.2c0.2-0.4,0.8-0.7,1.4-0.7L76.9,40.3L76.9,40.3
		L76.9,40.3z M76.9,37.1c0.3,1.1-0.9,1-1.4,1.5c-0.6-0.2-0.8-1-1-1.7l0.2-1.5C75.4,36,77.1,35.7,76.9,37.1L76.9,37.1z M76.6,34.9
		c-0.5,0.2-1.1-0.2-1.6-0.5c0.2-0.5,0.9-0.7,1.4-0.8L76.6,34.9z M76.3,31.9c0,0.7-1,0.9-1.5,1.3c-0.5-0.2-1-0.6-1.3-1.1l0.1-1.5
		C74.6,30.8,76.4,30.3,76.3,31.9L76.3,31.9z M75.9,29.9c-0.7-0.2-1.5-0.2-2.2-0.4c0.3-0.7,1.2-1,1.8-1.3
		C75.8,28.6,76,29.2,75.9,29.9L75.9,29.9z M75.3,26.5c0,0.9-1.2,1.2-2,1.5c-0.5-0.8-0.8-1.8-0.5-2.8C73.6,25.8,75.5,24.9,75.3,26.5z
		 M74.6,24.6c-0.7-0.1-1.5,0-2-0.5c0.2-0.6,0.9-1,1.5-1.4C74.3,23.2,74.6,23.9,74.6,24.6z M73.8,21.4c-0.6,0.5-1.5,2.1-2.4,0.9
		c-0.3-0.4-0.4-1-0.3-1.6C71.9,20.7,73.8,19.8,73.8,21.4L73.8,21.4z M73,19.5c-0.8-0.1-2,0.8-2.3-0.3c0.4-0.6,0.9-1.4,1.4-1.8
		C72.4,18,72.9,18.7,73,19.5L73,19.5z M71.6,15.9c-0.5,0.8-0.9,1.7-1.6,2.4c-0.9-1.1-2.3-2.1-1.9-3.5C69.3,14.8,71.4,13.8,71.6,15.9
		z M67.9,13.7l1.5-1.2l0.7,1L67.9,13.7z M75,51.7c-0.5,0.1-1.2,0.1-1.7,0.1c-0.4-0.6-0.4-1.3,0-1.9C74.1,50.1,74.6,51,75,51.7z
		 M74.8,53.8c-0.5,0.2-0.9-0.5-1.3-0.7C73.7,52.7,75.9,52.3,74.8,53.8z M74.2,54.9l-0.1,0.7H72c-0.2-0.7,0.1-1.3,0.5-1.8
		C73.2,53.8,73.7,54.5,74.2,54.9L74.2,54.9z M72.9,58.6c-0.4-0.3-0.9-1.1-1.2-1.7c0.5-0.4,1.5-0.2,2-0.1L72.9,58.6L72.9,58.6z
		 M76.9,41.8c-0.1,1.1-1.5,1.1-2.3,1.4l0.7-2.1C75.9,41.3,76.6,41.2,76.9,41.8z M48.8,76.6l-0.1,0.2l-4.1,0.1c0.7-0.9,0.7-3,2.4-2.7
		L48.8,76.6z M55.5,75c-0.9,0.4-1.9,0.7-2.8,0.9c0.2-1-0.1-2.3,0.6-3C54.3,73.2,54.8,74.3,55.5,75L55.5,75z M52,72.7
		c-0.3,1.2,0.5,3.9-1.5,3.9c-1.1-0.5-1.8-2-2.7-3C48.6,72.4,50.4,72.5,52,72.7L52,72.7z M57.9,74c-0.4,0.3-0.8,0.7-1.4,0.5
		c-0.5-0.9-2-1.6-1.7-2.7c0.9-1,2-1.7,3.2-1.9V74z M61.8,71.5c-0.8,0.8-1.8,1.6-3,2v-3.6C59.8,69.2,60.9,70.8,61.8,71.5z M63.7,70.1
		c0.1,0.5-0.5,0.4-0.8,0.8c-1.1-0.4-2.1-1.5-2.8-2.4c0.6-0.9,1.5-1.6,2.7-1.6L63.7,70.1L63.7,70.1z M66.8,67.4
		c-0.4,0.9-1.4,1.6-2.3,2.1c0-1-0.9-2.4-0.1-3.1L66.8,67.4L66.8,67.4z M68.7,65.3c-0.2,0.5-0.5,0.9-1,1.3c-0.9-0.3-2.9-0.6-2.4-1.8
		c0.6-0.8,1.4-1.6,2.5-1.7L68.7,65.3z M70.7,62.4c-0.3,0.7-0.7,1.3-1.2,1.9c-0.3-0.5-0.7-1.2-0.7-2C69.3,61.8,70.1,62.2,70.7,62.4z
		 M71.6,61.2c-0.7,0.5-1.4,0-2.2,0c-0.3-1.3,0.3-2.6,1.4-3.5C71.4,58.6,73.2,60,71.6,61.2z M40.7,76.6l-3.6-0.8
		c0.3-1,1.4-1.3,1.9-2.2C40.4,73.8,40.4,75.6,40.7,76.6z M44.9,73.6c-0.3,1.1-0.9,2.6-2,3.3c-1.8,0.2-1.4-2-2.1-3
		C40.6,73,41.6,73.3,42,73C43.1,72.9,44,73.2,44.9,73.6z M38.1,73.1c-1,0.6-1.7,3-3.2,1.8v-2.7C35.9,72.2,37.3,72.2,38.1,73.1z
		 M25.6,63.6v0.7c-1.1-0.1-3.2,0.9-3.5-0.9c1-0.7,1.8-2.6,3-1.1L25.6,63.6z M25.8,65.6c0,0.6-0.7,1-1,1.4l-1.2-1.4
		C24.1,65.3,25.2,65.3,25.8,65.6L25.8,65.6z M28.2,67.4c-0.3,0.7-1.7,0.9-2.6,0.9c-0.5-0.5,0.4-1.1,0.7-1.5
		C27,66.9,27.8,66.8,28.2,67.4L28.2,67.4z M28.6,70.6l-0.2,0.2c-0.7-0.4-1.1-0.9-1.6-1.6c0.6-0.2,1.8-0.9,2.2-0.2L28.6,70.6
		L28.6,70.6z M32.3,70.8c-0.6,0.7-1.7,1.4-2.6,1.1c-0.8-0.7,0.2-1.4,0.3-2.1C30.8,70,31.6,70.4,32.3,70.8L32.3,70.8z M33.8,74.2
		l-2.6-1.3c0.3-0.5,1.1-0.9,1.8-1.2C34,72,33.9,73.3,33.8,74.2L33.8,74.2z M19,57.5c-0.3-0.2-0.5-0.7-0.5-1.2
		c0.7,0.1,1.2-0.2,1.9-0.2L19,57.5z M23.2,59v0.5c-1.1,0-3,0.5-3.6-0.7c0.2-0.7,1.1-1.2,1.7-1.8C22.2,57.2,23,58.1,23.2,59z
		 M23.3,60.6c-0.1,0.8-1,1.4-1.5,1.9c-0.5-0.5-1-1.2-1.1-2L23.3,60.6z M20.8,55.1c-0.9,0-2.1,0.5-2.8-0.2c0.4-1.1,1.9-1.8,3-2.5
		L20.8,55.1z"/>
	<path class="st2" d="M31.9,67.3L72.1,34l0,0c0.2,0.3,0.2,0.3,0.1,0.7c-0.5,1.6-0.7,2.6,0.2,4.2c0.2,0.3,0.4,0.6,0.3,0.9
		c-0.4,1.5-1.1,3-1.2,4.6c0,0.2,0,0.4,0.1,0.6L41,70.9c-0.9-0.1-1.8-0.7-2.6-0.9c-1.2-0.4-2.3-0.3-3.5-0.6c-0.6-0.1-0.7-0.6-1.2-0.9
		c-0.5-0.4-1.2-0.7-1.8-0.9C31.9,67.5,31.9,67.4,31.9,67.3L31.9,67.3z"/>
	<path class="st3" d="M31.4,66.2c-0.8-0.9-2-1.6-3-2.3c-0.1-0.1-0.3-1.3-0.4-1.5c-0.3-1.2-0.5-2.4-1.5-3.3l42.7-35.6
		c0.2,0.6,0.7,1.1,1.2,1.4c0.1,0.1,0.1,0,0.1,0.2c-0.1,1.4,0,2.9,0.6,4.2c0,0,0.2,0.3,0.2,0.3c-0.2,1.1-0.5,1.8-0.1,2.9
		c0,0,0.1,0.1,0,0.1L31.4,66.2z"/>
	<path class="st4" d="M68.9,21.5c-0.1-0.8-0.6-1.1-1.1-1.7c-0.3-0.3-0.6-0.6-0.9-0.9c-1.4-1.6-1.9-3.5-1.9-5.6L22.7,48.8
		c0.5,2.1,0.7,4.1,0.6,6.2v0l0,0c1.2,0.8,1.8,1.8,2,3.2L68.9,21.5L68.9,21.5z"/>
</g>
</svg>
