<?xml version="1.0" encoding="utf-8"?>
<!-- Generator: Adobe Illustrator 25.4.1, SVG Export Plug-In . SVG Version: 6.00 Build 0)  -->
<svg version="1.1" id="Layer_1" xmlns="http://www.w3.org/2000/svg" xmlns:xlink="http://www.w3.org/1999/xlink" x="0px" y="0px"
	 viewBox="0 0 51.5 80" style="enable-background:new 0 0 51.5 80;" xml:space="preserve">
<style type="text/css">
	.st0{fill-rule:evenodd;clip-rule:evenodd;}
	.st1{fill-rule:evenodd;clip-rule:evenodd;fill:#FFFFFF;}
	.st2{fill-rule:evenodd;clip-rule:evenodd;fill:#722B1F;}
	.st3{fill-rule:evenodd;clip-rule:evenodd;fill:#B93F2C;}
	.st4{fill-rule:evenodd;clip-rule:evenodd;fill:#EAC03F;}
</style>
<g>
	<path class="st0" d="M46.9,0.4v0.3c-2.8,2.2-5.5,5.6-8.9,6.7c-3.7,3.1-8.7,5.3-11,9.8C23,25,15.5,29.3,9,33.5
		c-1.5,1-1.8,1.4-2.6,0.9c-0.1,0-0.1-0.1,0-0.2c0,0,0,0,0,0c2.9-1.8,5.8-4.4,7.6-7.4c0.1-0.5,0.5-1,0.2-1.5c-0.2-0.3-0.7-0.3-1,0
		c-4,2.7-8,6.1-13.3,5L2.9,28c0.9,0.1,2.5,0.2,3.7-0.9c4.1-3.6,7.4-8.1,11.9-10.8c5.6-3.5,11.5-6.2,17.1-9.5
		c1.7-1.9,2.4-4.9,5.4-5.1c2-0.3,4-0.4,5.5-1.6C46.7,0,46.9,0.2,46.9,0.4L46.9,0.4z M26.4,58.8h1l3,7.1H29L28.2,64h-2.5l-0.8,1.8
		h-1.4L26.4,58.8L26.4,58.8z M26.9,60.6l-0.7,2.1h1.5L26.9,60.6L26.9,60.6z M31,58.8h1.3v7.1H31V58.8z M35.5,58.8c0,0,0.1,0,0.1,0
		c0.1,0,0.1,0,0.1,0c0.5,0,0.9,0.1,1.3,0.2c0.4,0.2,0.7,0.4,0.9,0.8c0.2,0.3,0.3,0.8,0.4,1.3c0,0.3-0.1,0.6-0.2,0.9
		c-0.1,0.3-0.3,0.6-0.6,0.8c-0.3,0.2-0.6,0.4-1.1,0.5l1.9,2.6h-1.6L35,63.1v2.8h-1.3v-7.1L35.5,58.8L35.5,58.8L35.5,58.8z M34.9,60
		v2.1h0.8c0.8,0,1.3-0.4,1.3-1.1c0-0.4-0.1-0.6-0.4-0.7c-0.3-0.1-0.6-0.2-1-0.2H34.9z M11.5,76.1c0-0.4,0.1-0.7,0.2-1.2
		c0.2-0.4,0.4-0.8,0.7-1.2c0.3-0.4,0.7-0.7,1.2-0.9c0.5-0.2,1-0.3,1.5-0.3c0.4,0,0.9,0.1,1.3,0.3c0.5,0.2,0.9,0.4,1.3,0.8
		c0.4,0.3,0.6,0.7,0.8,1.1h-1.5c-0.5-0.6-1.2-0.9-1.9-0.9c-0.4,0-0.8,0.1-1.2,0.3c-0.4,0.2-0.7,0.5-0.9,0.9
		c-0.2,0.4-0.3,0.8-0.3,1.2c0,0.4,0.1,0.7,0.2,1c0.1,0.3,0.3,0.6,0.5,0.8c0.4,0.4,1,0.7,1.7,0.7c0.7,0,1.3-0.3,1.8-0.8h1.5
		c-0.2,0.4-0.4,0.7-0.7,1c-0.3,0.3-0.6,0.5-0.9,0.7c-0.3,0.2-0.6,0.3-1,0.4C15.7,80,15.4,80,15.1,80c-0.6,0-1.2-0.2-1.7-0.5
		c-0.5-0.3-0.9-0.8-1.3-1.3C11.7,77.6,11.6,76.9,11.5,76.1z M21,72.7c0,0,0.1,0,0.1,0c0,0,0.1,0,0.1,0c0.5,0,0.9,0.1,1.3,0.2
		s0.7,0.4,0.9,0.8c0.2,0.3,0.3,0.8,0.4,1.3c0,0.3-0.1,0.6-0.2,0.9c-0.1,0.3-0.3,0.6-0.6,0.8c-0.3,0.2-0.6,0.4-1.1,0.5l1.9,2.6h-1.6
		l-1.9-2.8v2.8h-1.3v-7.1L21,72.7L21,72.7L21,72.7z M20.4,74v2.1h0.8c0.8,0,1.3-0.4,1.3-1.1c0-0.4-0.1-0.6-0.4-0.7
		c-0.3-0.1-0.6-0.2-1-0.2L20.4,74L20.4,74z M24.5,72.7h3.8V74h-2.5v1.6h2.4v1.3h-2.4v1.6h2.5v1.3h-3.8L24.5,72.7L24.5,72.7z
		 M29.2,72.7H33V74h-2.5v1.6h2.4v1.3h-2.4v1.6H33v1.3h-3.8L29.2,72.7L29.2,72.7z M34,72.7h1.8c0.5,0,1,0.1,1.3,0.3
		c0.4,0.2,0.6,0.4,0.8,0.7c0.2,0.3,0.3,0.6,0.3,0.9c0,0.4-0.1,0.7-0.2,0.9c-0.1,0.2-0.3,0.4-0.6,0.5c0.8,0.4,1.2,1,1.2,1.8
		c0,0.3-0.1,0.6-0.3,1c-0.2,0.3-0.5,0.6-0.9,0.8c-0.4,0.2-0.9,0.3-1.4,0.3h-2V72.7z M35.3,74v1.5h0.4c0.3,0,0.5,0,0.6-0.1
		c0.2,0,0.3-0.1,0.4-0.2c0.1-0.1,0.1-0.3,0.1-0.5c0-0.4-0.4-0.7-1-0.7L35.3,74L35.3,74L35.3,74z M35.3,76.7v1.8H36
		c0.8,0,1.3-0.3,1.3-1c0-0.3-0.1-0.5-0.4-0.6c-0.2-0.2-0.5-0.2-0.8-0.2L35.3,76.7L35.3,76.7L35.3,76.7z M39.3,72.7h3.8V74h-2.5v1.6
		H43v1.3h-2.4v1.6h2.5v1.3h-3.8L39.3,72.7L39.3,72.7z M43.7,76.1c0-0.4,0.1-0.7,0.2-1.2c0.2-0.4,0.4-0.8,0.7-1.2
		c0.3-0.4,0.7-0.7,1.2-0.9c0.5-0.2,1-0.3,1.5-0.3c0.4,0,0.9,0.1,1.3,0.3c0.5,0.2,0.9,0.4,1.3,0.8c0.4,0.3,0.6,0.7,0.8,1.1h-1.5
		c-0.5-0.6-1.2-0.9-1.9-0.9c-0.4,0-0.8,0.1-1.2,0.3c-0.4,0.2-0.7,0.5-0.9,0.9c-0.2,0.4-0.3,0.8-0.3,1.2c0,0.4,0.1,0.7,0.2,1
		c0.1,0.3,0.3,0.6,0.5,0.8c0.4,0.4,1,0.7,1.7,0.7c0.7,0,1.3-0.3,1.8-0.8h1.5c-0.2,0.4-0.4,0.7-0.7,1c-0.3,0.3-0.6,0.5-0.9,0.7
		c-0.3,0.2-0.7,0.3-1,0.4C47.8,80,47.5,80,47.2,80c-0.6,0-1.2-0.2-1.7-0.5c-0.5-0.3-0.9-0.8-1.3-1.3C43.9,77.6,43.7,76.9,43.7,76.1z
		"/>
	<path class="st1" d="M42,3.6c-0.6,0.7-1.6,1.8-2.8,1.6C39,5,38.9,4.7,39.1,4.4C39.7,3.4,40.9,3.7,42,3.6z"/>
	<path class="st0" d="M27.2,46.4c1-0.1,2,1,2.6,0l0.4,0.4c1-0.5,2.2-0.8,3.4-0.6c0.2-0.2,0.3-0.6,0.6-0.5c0.6,0.8,1-0.5,1.6-0.7
		c0.5-0.5,1.7-0.3,1.5-1.3c0.3-0.9,0.6,0.4,1-0.2c0.5-1,2-0.7,2.2-1.8c0.2-0.2,0.5,0.1,0.7,0.2c0.5-0.8,1.3-1.6,2.2-2
		c0-0.2-0.3-0.4,0-0.6c0.8,0.2,0.5-0.5,0.7-1c0.1-0.9,1.4-1.4,1.1-2.3c0.1-0.2,0.4-0.2,0.5-0.3c-0.2-0.8,0.9-1.4,0.2-2
		c0-0.4,0.4-0.2,0.5-0.4c-0.4-0.8,0.4-1.5,0.2-2.2c0.1-0.1,0.2-0.2,0.4-0.3c-0.5-0.8,0.7-1.7,0.1-2.1c-0.1,0,0-0.2,0-0.2
		c0-0.2,0-0.4,0.1-0.5c0.1-0.3,0.2-0.7,0.3-1c0.1-0.4,0.3-0.8,0.4-1.2c0-0.2,0.1-0.3,0-0.5c0-0.2-0.1-0.4-0.2-0.6
		c-0.1-0.3-0.3-0.5-0.4-0.8c-0.1-0.3,0-0.6,0-0.8c0-0.3,0.2-0.5,0.2-0.8c0-0.1,0.1-0.2,0-0.3c0-0.2,0-0.3-0.1-0.4
		c-0.1-0.1-0.2-0.2-0.2-0.3c-0.3-0.3-0.4-0.8-0.5-1c-0.1-0.2,0-0.4,0-0.6c0-0.2,0.1-0.5,0.1-0.7c0-0.1,0-0.2,0-0.3
		c0-0.1-0.1-0.2-0.2-0.3c-0.1-0.2-0.1-0.3-0.1-0.5c-0.1-0.2-0.1-0.4-0.1-0.5c0-0.2,0-0.4,0-0.7c0-0.2,0-0.4,0-0.6c0-0.1,0-0.3,0-0.4
		c0-0.1-0.1-0.2-0.1-0.3c-0.1-0.1-0.3-0.2-0.4-0.3c-0.1-0.1-0.2-0.2-0.3-0.3c-0.1-0.1-0.1-0.2-0.1-0.4c-0.1-0.4-0.1-0.8-0.2-1.1
		c-0.1-0.6-1.3-1.5-1.7-2.2c-0.7-1.1-0.8-1.9-0.7-3.2c0.6,0.2,1,0.2,1.5-0.3l0.3-0.3l-1.6-2c0.2-0.5,0.7-0.9,1.3-1
		c0.9,0.5,1.1,1.7,2.1,2c0.2,0.8,0.6,2,1.6,2.3c-0.1,1.4,0.9,2.5,1.3,3.7c0.3,0,0.6,0,0.7,0.3C49,13.8,50,14.9,50,16
		c0.5,0.2,0.6,0.7,0.2,1.2c0.4,0.9,0,2.4,1.2,2.8c0.2,0.4-0.4,0.4-0.5,0.6l0.1,2.8c0.2,0.1,0.5,0.2,0.5,0.4c-0.7,0.6-0.4,2-0.6,2.8
		c-0.5,0.6-0.6,1.3-1.3,1.9c-0.2-0.9-1.2-0.1-1.6,0.1c-0.1,0.5,0.8,0.4,1.1,0.7l-0.1,0.3c-0.5,0.2-1.6-0.8-1.6,0.4
		c0.1,0.4-0.3,0.6,0.1,0.9c0.4-0.1,0.8-0.3,1.2-0.3c0.1,0.8-0.8,0.4-1.2,0.9c0.4,0.4,0.7,1.2,1.2,1.2l0.2-0.2
		c0.1,1.1,1.1,2.2,0.5,3.3l0.3,0.6l-0.6,0.4l-1.2,3c0.2,0.2,0.2,0.5,0.1,0.7h-0.4l-2.2,3.1c0,0.3,0.2,0.4,0.1,0.7l-0.7,0l-2.8,2.7
		L42,47.4h-0.8c-1.2,1-2.9,1.3-3.6,2.5c-0.2,0.1-0.4,0-0.5-0.2l-3.4,1.1l-0.4,0.6L32.7,51l-5.1,0.3c-0.1,0.2-0.3,0.3-0.5,0.2
		l-0.2-0.3l-4.5-1.2c-0.2,0.1-0.4,0.2-0.7,0.2c0-0.3-0.3-0.6-0.5-0.7l-3-1.7c-0.3,0-0.6,0.4-0.7-0.1c0.1-0.1,0.1-0.3,0.1-0.4
		c-1-0.7-1.6-2-2.8-2.2c-0.3-0.2,0-0.4,0-0.7c-0.8-0.8-1.2-2.2-2.4-2.5l0.2-0.5l-1.3-2.6c-0.2,0-0.7-0.2-0.4-0.5
		c0.2-0.7-0.4-1.3-0.5-1.9l-0.6-0.3c0.7-0.8-0.7-0.6-0.1-1.3c0.5-0.4,1-0.8,1.7-0.8c0.2,0.1,0,0.4,0.2,0.4c0.6-0.4,1.8-0.9,1.8-1.8
		l0.7-0.6c0.3,1.1,0.4,2.4,0.2,3.6c0,0.1,0.1,0.3,0.2,0.4c0.8,0.4,1.1,1,1.2,2.1c0,0.5,0.6,0.2,0.9,0.5c0.4,0.3,0.4,0.6,0.6,1.1
		c0.1,0.3,0.2,0.5,0.2,0.8c0.1,0.3,0.1,0.5,0.2,0.8c0,0.1,0,0.2,0.1,0.3c0.1,0.2,0.3,0.3,0.5,0.4c0.2,0.2,0.5,0.3,0.7,0.5
		c0.2,0.1,0.3,0.2,0.5,0.4c0.1,0.1,0.2,0.2,0.3,0.3c0.3,0.3,0.1,0.5,0.1,0.9c0.2,0.1,0.5,0.1,0.7,0.2c0.3,0.1,0.6,0.2,0.8,0.4
		c0.2,0.2,0.4,0.4,0.6,0.6c0.1,0.1,0.2,0.1,0.4,0.2c0.3,0.1,0.5,0.1,0.8,0.1c0.3,0.1,0.7,0.1,1,0.1c0.3,0.1,0.5,0.2,0.8,0.2
		c0,0,0.6,0.3,0.6,0.3C26.4,46.6,26.6,46.4,27.2,46.4L27.2,46.4z M51.5,28.1c-0.8,0.5-0.6,1.3-0.9,1.9c-0.5-0.1-1.2-0.2-1.2-0.7
		c0.2,0,0.2-0.1,0.3-0.2c-0.3-0.4,0.3-0.3,0.4-0.5l1.2-1.8C51.7,26.9,51.5,27.7,51.5,28.1L51.5,28.1z M50.8,34.3
		c-0.1,0.2-0.4,0.5-0.6,0.6c-0.4-1.3-0.9-2.5-1-3.9l0.6,0.2L50.8,34.3z M49.5,25.9c-0.3,0.2-0.6,0-0.9-0.1l0-0.1
		c0.2-0.3,0.5-0.5,0.9-0.5L49.5,25.9L49.5,25.9L49.5,25.9z M49.5,23.9c0.2,0.7-0.6,0.6-0.9,1c-0.4-0.1-0.5-0.7-0.7-1.1l0.1-1
		C48.6,23.2,49.6,23,49.5,23.9L49.5,23.9z M49.4,22.5c-0.4,0.1-0.7-0.1-1.1-0.4c0.1-0.3,0.6-0.5,0.9-0.5L49.4,22.5z M49.2,20.5
		c0,0.5-0.6,0.6-1,0.8c-0.3-0.1-0.7-0.4-0.8-0.7l0.1-1C48,19.9,49.2,19.5,49.2,20.5L49.2,20.5z M48.9,19.3c-0.5-0.1-1-0.1-1.4-0.3
		c0.2-0.5,0.8-0.7,1.2-0.9C48.8,18.4,48.9,18.8,48.9,19.3L48.9,19.3z M48.5,17.1c0,0.6-0.8,0.8-1.3,1c-0.3-0.5-0.5-1.2-0.4-1.8
		C47.4,16.6,48.6,16,48.5,17.1z M48.1,15.8c-0.5-0.1-1,0-1.3-0.4c0.1-0.4,0.6-0.7,1-0.9C47.8,14.9,48.1,15.4,48.1,15.8z M47.5,13.8
		c-0.4,0.3-1,1.4-1.5,0.6c-0.2-0.3-0.3-0.7-0.2-1C46.3,13.3,47.5,12.7,47.5,13.8L47.5,13.8z M47,12.5c-0.5-0.1-1.3,0.5-1.5-0.2
		c0.3-0.4,0.6-0.9,0.9-1.2C46.7,11.6,46.9,12,47,12.5L47,12.5z M46.1,10.3c-0.4,0.5-0.6,1.1-1.1,1.6c-0.6-0.7-1.5-1.3-1.2-2.3
		C44.6,9.5,46,8.9,46.1,10.3z M43.7,8.8l1-0.8l0.5,0.7L43.7,8.8z M48.3,33.3c-0.3,0.1-0.8,0.1-1.1,0.1c-0.3-0.4-0.3-0.9,0-1.2
		C47.7,32.3,48,32.8,48.3,33.3z M48.2,34.6c-0.3,0.1-0.6-0.3-0.8-0.4C47.5,33.9,48.9,33.7,48.2,34.6z M47.8,35.3l-0.1,0.5h-1.4
		c-0.2-0.4,0.1-0.8,0.3-1.2C47.1,34.6,47.5,35.1,47.8,35.3L47.8,35.3z M46.9,37.8c-0.3-0.2-0.6-0.7-0.8-1.1c0.3-0.3,1-0.2,1.3-0.1
		L46.9,37.8L46.9,37.8z M49.5,26.9c-0.1,0.7-1,0.7-1.5,0.9l0.5-1.3C48.9,26.6,49.4,26.5,49.5,26.9z M31.4,49.3l-0.1,0.1l-2.7,0.1
		c0.5-0.6,0.5-2,1.6-1.7L31.4,49.3z M35.8,48.3c-0.6,0.3-1.2,0.4-1.8,0.6c0.1-0.6-0.1-1.5,0.4-1.9C35,47.2,35.3,47.8,35.8,48.3
		L35.8,48.3z M33.5,46.8c-0.2,0.8,0.3,2.5-1,2.5c-0.7-0.4-1.2-1.3-1.8-1.9C31.3,46.6,32.5,46.7,33.5,46.8L33.5,46.8z M37.3,47.7
		c-0.3,0.2-0.5,0.5-0.9,0.4c-0.4-0.6-1.3-1.1-1.1-1.8c0.6-0.6,1.3-1.1,2.1-1.2V47.7z M39.8,46c-0.5,0.5-1.2,1-1.9,1.3V45
		C38.5,44.5,39.2,45.6,39.8,46z M41,45.1c0,0.3-0.4,0.3-0.5,0.5c-0.7-0.3-1.4-1-1.8-1.6c0.4-0.6,1-1,1.8-1.1L41,45.1L41,45.1z
		 M43,43.4c-0.3,0.6-0.9,1.1-1.5,1.4c0-0.7-0.6-1.6-0.1-2L43,43.4L43,43.4z M44.2,42c-0.1,0.3-0.4,0.6-0.6,0.9
		c-0.6-0.2-1.9-0.4-1.5-1.2c0.4-0.5,0.9-1,1.6-1.1L44.2,42z M45.5,40.2c-0.2,0.4-0.5,0.8-0.8,1.3c-0.2-0.4-0.5-0.8-0.5-1.3
		C44.6,39.8,45.1,40.1,45.5,40.2z M46.1,39.4c-0.4,0.3-0.9,0-1.4,0c-0.2-0.9,0.2-1.7,0.9-2.2C46,37.7,47.1,38.7,46.1,39.4z
		 M26.2,49.4l-2.3-0.5c0.2-0.6,0.9-0.9,1.3-1.4C26,47.5,26,48.7,26.2,49.4z M28.9,47.4c-0.2,0.7-0.6,1.7-1.3,2.2
		c-1.2,0.1-0.9-1.3-1.3-2C26.1,47,26.8,47.2,27,47C27.7,46.9,28.3,47.2,28.9,47.4z M24.5,47.1c-0.7,0.4-1.1,1.9-2.1,1.2v-1.7
		C23.1,46.5,24,46.5,24.5,47.1z M16.5,41v0.5c-0.7-0.1-2.1,0.6-2.3-0.6c0.6-0.4,1.2-1.7,1.9-0.7L16.5,41z M16.6,42.3
		c0,0.4-0.4,0.6-0.6,0.9l-0.8-0.9C15.6,42,16.3,42,16.6,42.3L16.6,42.3z M18.2,43.4C18,43.9,17.1,44,16.5,44c-0.3-0.4,0.3-0.7,0.5-1
		C17.4,43.1,17.9,43,18.2,43.4L18.2,43.4z M18.4,45.5l-0.2,0.1c-0.5-0.3-0.7-0.6-1-1c0.4-0.1,1.2-0.6,1.4-0.1L18.4,45.5L18.4,45.5z
		 M20.8,45.6c-0.4,0.4-1.1,0.9-1.7,0.7c-0.5-0.5,0.1-0.9,0.2-1.4C19.9,45.1,20.4,45.3,20.8,45.6L20.8,45.6z M21.8,47.8l-1.7-0.9
		c0.2-0.3,0.7-0.6,1.2-0.8C21.9,46.4,21.8,47.2,21.8,47.8L21.8,47.8z M12.2,37.1c-0.2-0.1-0.4-0.4-0.3-0.8c0.4,0.1,0.8-0.2,1.3-0.1
		L12.2,37.1z M14.9,38v0.3c-0.7,0-2,0.3-2.3-0.5c0.1-0.5,0.7-0.8,1.1-1.2C14.3,36.9,14.8,37.4,14.9,38z M15,39
		c-0.1,0.5-0.6,0.9-1,1.2c-0.3-0.4-0.7-0.8-0.7-1.3L15,39z M13.4,35.5c-0.6,0-1.4,0.4-1.8-0.1c0.3-0.7,1.2-1.2,1.9-1.6L13.4,35.5z"
		/>
	<path class="st2" d="M20.6,43.4l25.9-21.5l0,0c0.1,0.2,0.2,0.2,0.1,0.4c-0.3,1.1-0.4,1.7,0.1,2.7c0.1,0.2,0.3,0.4,0.2,0.6
		c-0.2,1-0.7,1.9-0.8,2.9c0,0.1,0,0.3,0,0.4L26.4,45.7c-0.6,0-1.1-0.4-1.7-0.6c-0.7-0.2-1.5-0.2-2.2-0.4c-0.4-0.1-0.5-0.4-0.8-0.6
		c-0.3-0.3-0.8-0.4-1.2-0.6C20.6,43.5,20.6,43.4,20.6,43.4L20.6,43.4z"/>
	<path class="st3" d="M20.2,42.6c-0.5-0.6-1.3-1-2-1.5c-0.1,0-0.2-0.8-0.2-1c-0.2-0.8-0.3-1.6-0.9-2.1l27.5-22.9
		c0.1,0.4,0.4,0.7,0.7,0.9c0.1,0.1,0.1,0,0.1,0.1c-0.1,0.9,0,1.9,0.4,2.7c0,0,0.1,0.2,0.1,0.2c-0.1,0.7-0.3,1.1,0,1.9
		c0,0,0,0.1,0,0.1L20.2,42.6z"/>
	<path class="st4" d="M44.3,13.8c-0.1-0.5-0.4-0.7-0.7-1.1c-0.2-0.2-0.4-0.4-0.6-0.6c-0.9-1-1.3-2.2-1.2-3.6L14.6,31.4
		c0.3,1.3,0.5,2.6,0.4,4v0l0,0c0.8,0.5,1.2,1.2,1.3,2.1L44.3,13.8L44.3,13.8z"/>
</g>
</svg>
