<?xml version="1.0" encoding="utf-8"?>
<!-- Generator: Adobe Illustrator 25.4.1, SVG Export Plug-In . SVG Version: 6.00 Build 0)  -->
<svg version="1.1" id="Layer_2_00000159471598350358213750000014612203606435250611_"
	 xmlns="http://www.w3.org/2000/svg" xmlns:xlink="http://www.w3.org/1999/xlink" x="0px" y="0px" viewBox="0 0 47.7 80"
	 style="enable-background:new 0 0 47.7 80;" xml:space="preserve">
<style type="text/css">
	.st0{fill:#E51F04;}
</style>
<path class="st0" d="M38.3,4.4c0,0-1.7,0.7-4.6,5.7c0,0,1.4-2.9,2.2-4.3c-5.1,3.1-10.8,7.5-14.5,13c0,0,0.1-0.2,0.5-2.7
	c0,0,0-0.1,0-0.1c0,0-2.5,3-5.7,8c-0.4,0.6-4.4,7.3-5.3,12.4c0,0,0.1-1.9,0.4-4C7.5,39.5,3.6,48.4,2,58.1c0,0,8-21,29.3-42.7
	c0,0-34.8,38.6-31,64.7C0,77.7-0.3,69.8,4.7,63.5c0.6-0.2,1.7-0.5,2.7,0.4c0,0-0.2-0.8-0.8-1.1c0,0,1.6-0.5,2.8-0.4
	c0,0-2.2-0.3-3.1-0.6c0.2,0,1.1-0.3,1.7-0.2c0,0-0.8-0.1-1.3-0.2c0.4-0.4,0.9-0.8,1.4-1.2c9.9-7.5,20.1-17,21.7-19
	c0,0-2.3,1.4-4.2,1.8c0,0,7.1-3.3,11.2-17c0.9-3,1.8-5.7,2.6-8.4l-4.8,1.7c2.8-1.7,4.6-3.2,5.7-4.3C43.2,6.9,45.8,1.1,47.7,0
	C47.7,0,43.5,1.5,38.3,4.4"/>
</svg>
