<?xml version="1.0" encoding="utf-8"?>
<!-- Generator: Adobe Illustrator 25.4.1, SVG Export Plug-In . SVG Version: 6.00 Build 0)  -->
<svg version="1.1" id="Layer_2_00000159471598350358213750000014612203606435250611_"
	 xmlns="http://www.w3.org/2000/svg" xmlns:xlink="http://www.w3.org/1999/xlink" x="0px" y="0px" viewBox="0 0 171.3 80"
	 style="enable-background:new 0 0 171.3 80;" xml:space="preserve">
<style type="text/css">
	.st0{fill:#4F5858;stroke:#4F5858;stroke-width:1.0563;stroke-linecap:round;stroke-linejoin:round;stroke-miterlimit:9.9592;}
	
		.st1{fill-rule:evenodd;clip-rule:evenodd;fill:#4F5858;stroke:#4F5858;stroke-width:1.0563;stroke-linecap:round;stroke-linejoin:round;stroke-miterlimit:9.9592;}
	.st2{fill:#4F5858;}
	.st3{fill:#E51F04;}
</style>
<g>
	<g>
		<path class="st0" d="M7.1,65.9l5.4,13.9h-1.4l-1.7-4.3H3.1l-1.7,4.3H0l5.6-13.9H7.1z M9,74.4l-2.7-7.2l-2.8,7.2H9z"/>
		<path class="st0" d="M16.2,76.3c0.1,0.5,0.3,0.9,0.6,1.3c0.3,0.4,0.6,0.7,1.1,1c0.4,0.2,0.9,0.4,1.5,0.4c0.9,0,1.6-0.2,2.1-0.7
			c0.5-0.5,0.9-1.1,1-1.9h1.2c-0.2,1.1-0.7,2-1.4,2.7c-0.7,0.6-1.7,1-3,1c-0.8,0-1.5-0.1-2.1-0.4c-0.6-0.3-1.1-0.7-1.4-1.1
			c-0.4-0.5-0.6-1.1-0.8-1.7c-0.2-0.6-0.3-1.3-0.3-2.1c0-0.7,0.1-1.3,0.3-2c0.2-0.6,0.4-1.2,0.8-1.7c0.4-0.5,0.9-0.9,1.4-1.2
			c0.6-0.3,1.2-0.5,2.1-0.5c0.8,0,1.5,0.1,2.1,0.5c0.6,0.3,1.1,0.8,1.4,1.3c0.3,0.5,0.6,1.1,0.8,1.8c0.1,0.7,0.2,1.4,0.2,2.1H16
			C16,75.3,16,75.8,16.2,76.3 M22.3,72.5c-0.1-0.4-0.4-0.8-0.6-1.1c-0.3-0.3-0.6-0.6-1-0.8c-0.4-0.2-0.8-0.3-1.3-0.3
			c-0.5,0-1,0.1-1.3,0.3c-0.4,0.2-0.7,0.5-1,0.8c-0.3,0.3-0.5,0.7-0.7,1.1c-0.1,0.4-0.3,0.9-0.3,1.3h6.5
			C22.5,73.4,22.4,72.9,22.3,72.5"/>
		<path class="st0" d="M29.9,69.8v2.3h0c0.3-0.8,0.8-1.4,1.4-1.9c0.7-0.4,1.4-0.7,2.3-0.6v1.2c-0.6,0-1.1,0-1.5,0.2
			c-0.5,0.2-0.9,0.4-1.2,0.8s-0.6,0.7-0.8,1.1c-0.2,0.4-0.3,1-0.3,1.5v5.3h-1.2V69.7L29.9,69.8L29.9,69.8L29.9,69.8z"/>
		<path class="st0" d="M44.2,69.6c0.6,0.3,1.1,0.7,1.5,1.1c0.4,0.5,0.7,1.1,0.9,1.7c0.2,0.6,0.3,1.3,0.3,2.1c0,0.7-0.1,1.4-0.3,2.1
			c-0.2,0.6-0.5,1.2-0.9,1.7c-0.4,0.5-0.9,0.9-1.5,1.1c-0.6,0.3-1.3,0.4-2.1,0.4c-0.8,0-1.4-0.1-2.1-0.4c-0.6-0.3-1.1-0.7-1.5-1.1
			c-0.4-0.5-0.7-1.1-0.9-1.7c-0.2-0.7-0.3-1.3-0.3-2.1c0-0.7,0.1-1.4,0.3-2.1c0.2-0.6,0.5-1.2,0.9-1.7c0.4-0.5,0.9-0.9,1.5-1.1
			c0.6-0.3,1.3-0.4,2.1-0.4C42.9,69.2,43.6,69.3,44.2,69.6 M40.6,70.6c-0.4,0.2-0.8,0.6-1.1,1C39.2,72,39,72.5,38.8,73
			c-0.1,0.5-0.2,1-0.2,1.6s0.1,1.1,0.2,1.6c0.1,0.5,0.4,1,0.7,1.4c0.3,0.4,0.7,0.7,1.1,1s1,0.4,1.5,0.4c0.6,0,1.1-0.1,1.5-0.4
			c0.4-0.2,0.8-0.6,1.1-1c0.3-0.4,0.5-0.9,0.7-1.4c0.1-0.5,0.2-1.1,0.2-1.6s-0.1-1-0.2-1.6c-0.1-0.5-0.4-1-0.7-1.4
			c-0.3-0.4-0.7-0.7-1.1-1c-0.4-0.2-1-0.4-1.5-0.4C41.6,70.3,41,70.4,40.6,70.6"/>
		<rect x="52.6" y="65.9" class="st1" width="1.2" height="13.9"/>
		<path class="st0" d="M60.1,68.4l2.1-2.8h1.5l-2.6,2.8H60.1z M60.6,69.8h1.2v10.1h-1.2V69.8z"/>
		<path class="st0" d="M70.4,69.8v1.7h0c0.2-0.6,0.7-1.1,1.2-1.5c0.6-0.4,1.2-0.6,2-0.6c0.7,0,1.3,0.1,1.8,0.3
			c0.5,0.2,0.9,0.4,1.1,0.8s0.5,0.8,0.6,1.2c0.1,0.5,0.2,1,0.2,1.6v6.5h-1.2v-6.3c0-0.4,0-0.8-0.1-1.2c-0.1-0.4-0.2-0.7-0.4-1
			c-0.2-0.3-0.5-0.5-0.8-0.7c-0.3-0.1-0.8-0.2-1.2-0.2c-0.5,0-1,0.1-1.3,0.3c-0.4,0.2-0.7,0.4-1,0.7c-0.3,0.3-0.5,0.7-0.6,1.1
			c-0.1,0.4-0.2,0.9-0.2,1.4v5.9h-1.2V69.8H70.4L70.4,69.8z"/>
		<path class="st0" d="M84.3,76.3c0.1,0.5,0.3,0.9,0.6,1.3c0.3,0.4,0.6,0.7,1,1c0.4,0.2,0.9,0.4,1.5,0.4c0.9,0,1.6-0.2,2.1-0.7
			c0.5-0.5,0.9-1.1,1-1.9h1.2c-0.3,1.1-0.7,2-1.4,2.7c-0.7,0.6-1.7,1-3,1c-0.8,0-1.5-0.1-2.1-0.4c-0.6-0.3-1.1-0.7-1.4-1.1
			c-0.4-0.5-0.6-1.1-0.8-1.7c-0.2-0.6-0.3-1.3-0.3-2.1c0-0.7,0.1-1.3,0.3-2c0.2-0.6,0.4-1.2,0.8-1.7c0.4-0.5,0.9-0.9,1.4-1.2
			c0.6-0.3,1.2-0.5,2.1-0.5c0.8,0,1.5,0.1,2.1,0.5c0.6,0.3,1.1,0.8,1.4,1.3c0.4,0.5,0.6,1.1,0.8,1.8c0.1,0.7,0.2,1.4,0.2,2.1h-7.7
			C84.2,75.3,84.3,75.8,84.3,76.3 M90.5,72.5c-0.1-0.4-0.4-0.8-0.6-1.1c-0.3-0.3-0.6-0.6-1-0.8c-0.4-0.2-0.8-0.3-1.3-0.3
			s-1,0.1-1.3,0.3c-0.4,0.2-0.7,0.5-1,0.8c-0.3,0.3-0.5,0.7-0.7,1.1c-0.1,0.4-0.3,0.9-0.3,1.3h6.5C90.7,73.4,90.6,72.9,90.5,72.5"/>
		<path class="st0" d="M96.8,71.1c0.2-0.4,0.5-0.8,0.9-1.1c0.4-0.3,0.8-0.5,1.2-0.6c0.5-0.1,1-0.2,1.6-0.2c0.4,0,0.9,0,1.3,0.1
			c0.4,0.1,0.9,0.2,1.2,0.5c0.3,0.2,0.6,0.6,0.9,1c0.2,0.4,0.3,1,0.3,1.7v5.3c0,0.5,0.2,0.8,0.7,0.8c0.1,0,0.3,0,0.4-0.1v1.1
			c-0.1,0-0.3,0-0.4,0h-0.4c-0.3,0-0.6,0-0.8-0.1c-0.2-0.1-0.3-0.2-0.4-0.4c-0.1-0.1-0.2-0.3-0.2-0.6c0-0.2,0-0.5,0-0.7h0
			c-0.2,0.3-0.4,0.6-0.7,0.9c-0.2,0.2-0.5,0.5-0.8,0.6c-0.3,0.2-0.6,0.3-1,0.4c-0.4,0.1-0.8,0.1-1.3,0.1c-0.5,0-0.9,0-1.3-0.1
			c-0.4-0.1-0.8-0.3-1.1-0.5c-0.3-0.2-0.6-0.5-0.7-0.9C96,77.9,96,77.4,96,76.9c0-0.7,0.1-1.2,0.5-1.7c0.3-0.4,0.7-0.7,1.2-0.9
			c0.5-0.2,1.1-0.3,1.7-0.4c0.7-0.1,1.3-0.1,2-0.2c0.2,0,0.5,0,0.7-0.1c0.2,0,0.4-0.1,0.5-0.2c0.1-0.1,0.2-0.2,0.3-0.4
			c0-0.2,0.1-0.4,0.1-0.7c0-0.4,0-0.8-0.2-1c-0.1-0.3-0.3-0.5-0.6-0.6s-0.5-0.3-0.9-0.3c-0.3,0-0.7-0.1-1-0.1
			c-0.8,0-1.4,0.2-1.9,0.6c-0.5,0.4-0.8,1-0.8,1.8h-1.2C96.4,72,96.6,71.5,96.8,71.1 M102.9,74.1c-0.1,0.1-0.2,0.2-0.4,0.3
			c-0.2,0-0.4,0.1-0.6,0.1c-0.5,0.1-1.1,0.2-1.6,0.2c-0.6,0.1-1.1,0.2-1.5,0.3c-0.5,0.1-0.8,0.3-1.1,0.6c-0.3,0.3-0.4,0.7-0.4,1.1
			c0,0.3,0,0.6,0.2,0.8c0.1,0.2,0.3,0.4,0.5,0.6c0.2,0.2,0.4,0.3,0.7,0.4c0.3,0.1,0.6,0.1,0.9,0.1c0.5,0,0.9-0.1,1.3-0.2
			c0.4-0.1,0.8-0.3,1.1-0.6c0.3-0.3,0.6-0.6,0.8-1c0.2-0.4,0.3-0.8,0.3-1.3V74.1L102.9,74.1L102.9,74.1z"/>
		<path class="st0" d="M115.9,71.5c-0.1-0.3-0.3-0.5-0.6-0.7c-0.2-0.2-0.5-0.3-0.8-0.4c-0.3-0.1-0.7-0.1-1-0.1c-0.3,0-0.6,0-0.8,0.1
			c-0.3,0-0.5,0.1-0.8,0.3c-0.2,0.1-0.4,0.3-0.6,0.5c-0.1,0.2-0.2,0.5-0.2,0.8c0,0.3,0,0.5,0.2,0.7c0.1,0.2,0.3,0.3,0.5,0.5
			c0.2,0.1,0.4,0.2,0.7,0.3c0.2,0.1,0.5,0.1,0.7,0.2l1.6,0.4c0.3,0,0.7,0.1,1.1,0.3c0.3,0.1,0.7,0.3,0.9,0.5
			c0.3,0.2,0.5,0.5,0.7,0.8c0.1,0.3,0.2,0.7,0.2,1.1c0,0.6-0.1,1-0.4,1.4c-0.2,0.4-0.6,0.7-1,1c-0.4,0.2-0.8,0.4-1.3,0.5
			c-0.5,0.1-1,0.1-1.4,0.1c-1.2,0-2.1-0.3-2.9-0.9c-0.7-0.6-1.1-1.4-1.2-2.7h1.2c0,0.8,0.3,1.5,0.9,1.9c0.6,0.4,1.2,0.6,2.1,0.6
			c0.3,0,0.6,0,0.9-0.1c0.3,0,0.6-0.2,0.9-0.3c0.3-0.1,0.5-0.3,0.7-0.6c0.2-0.2,0.3-0.5,0.3-0.9c0-0.3,0-0.5-0.2-0.8
			c-0.1-0.2-0.3-0.4-0.5-0.5c-0.2-0.1-0.4-0.2-0.7-0.3c-0.3-0.1-0.5-0.2-0.8-0.2l-1.6-0.3c-0.4-0.1-0.8-0.2-1.1-0.4
			c-0.3-0.1-0.6-0.3-0.9-0.5c-0.2-0.2-0.5-0.4-0.6-0.8c-0.1-0.3-0.2-0.7-0.2-1.1c0-0.5,0.1-1,0.3-1.3c0.2-0.4,0.5-0.7,0.9-0.9
			c0.4-0.2,0.8-0.4,1.2-0.5c0.4-0.1,0.9-0.1,1.3-0.1c0.5,0,1,0,1.4,0.2c0.4,0.1,0.8,0.3,1.1,0.6c0.3,0.3,0.6,0.6,0.8,1
			s0.3,0.9,0.3,1.4h-1.2C116.1,72.1,116,71.7,115.9,71.5"/>
	</g>
	<path class="st2" d="M40.9,22.2H26.7l-9.9,37H4.3l9.9-37H0l2.9-10.7h40.9L40.9,22.2L40.9,22.2z"/>
	<path class="st2" d="M54.1,11.5h12.7l5.1,47.7H58.9l-0.6-8.9H41.6l-5.3,8.9H23.6C23.6,59.2,54.1,11.5,54.1,11.5z M46.9,41.5h10.8
		l-0.8-16.7h-0.1L46.9,41.5z"/>
	<path class="st2" d="M109.6,41c0.7,2.2,1.5,4.4,2.5,6.5c1,2.1,1.8,4.2,2.7,5.9c1,2.1,2,4,2.9,5.9h-14.3c-0.8-1.6-1.6-3.3-2.3-5.2
		c-0.6-1.6-1.3-3.4-2-5.4c-0.7-2-1.2-4.2-1.6-6.4h-2.5h-4.2l-4.6,16.9H73.8l12.3-45.6c2.1-0.5,4-1,5.8-1.2c1.8-0.3,4-0.6,6.5-0.9
		c2.5-0.2,5.2-0.4,8.2-0.4c3.2,0,5.9,0.4,8.2,1.1s4.2,1.8,5.6,3.1c1.4,1.4,2.3,3,2.8,4.9c0.4,1.9,0.3,4.1-0.3,6.4
		c-1.1,4.1-2.9,7.3-5.3,9.5C115.2,38.5,112.6,40.1,109.6,41 M110.8,27c0.6-2.4,0.3-4.3-1-5.5c-1.3-1.2-3.4-1.9-6.4-1.9
		c-0.9,0-1.8,0-2.6,0.1c-0.8,0.1-1.5,0.2-2.1,0.3c-0.8,0.1-1.4,0.3-2,0.4l-3.5,12.8h5.9c1.9,0,3.6-0.1,5.2-0.5
		c1.6-0.3,2.9-0.9,4.1-1.8C109.5,30.2,110.3,28.8,110.8,27"/>
	<path class="st3" d="M162,4.4c0,0-1.7,0.7-4.6,5.7c0,0,1.4-2.9,2.2-4.3c-5.1,3.1-10.8,7.5-14.5,13c0,0,0.1-0.2,0.5-2.7
		c0,0,0-0.1,0-0.1c0,0-2.5,3-5.7,8c-0.4,0.6-4.4,7.3-5.3,12.4c0,0,0.1-1.9,0.4-4c-3.8,7.2-7.6,16.2-9.3,25.8c0,0,8-21,29.3-42.7
		c0,0-34.8,38.6-31,64.7c-0.2-2.3-0.6-10.2,4.4-16.5c0.6-0.2,1.7-0.5,2.7,0.4c0,0-0.2-0.8-0.8-1.1c0,0,1.6-0.5,2.8-0.4
		c0,0-2.2-0.3-3.1-0.6c0.2,0,1.1-0.3,1.7-0.2c0,0-0.8-0.1-1.3-0.2c0.4-0.4,0.9-0.8,1.4-1.2c9.9-7.5,20.1-17,21.7-19
		c0,0-2.3,1.4-4.2,1.8c0,0,7.1-3.3,11.2-17c0.9-3,1.8-5.7,2.6-8.4l-4.8,1.7c2.8-1.7,4.6-3.2,5.7-4.3c2.9-8.1,5.5-13.8,7.4-14.9
		C171.3,0,167.2,1.5,162,4.4"/>
	<path class="st2" d="M131.2,74.1c-1.6,0-3,1.3-3,3c0,1.6,1.3,3,3,3c1.6,0,3-1.3,3-3C134.1,75.4,132.8,74.1,131.2,74.1 M131.2,79.5
		c-1.4,0-2.5-1.1-2.5-2.5c0-1.4,1.1-2.5,2.5-2.5c1.4,0,2.5,1.1,2.5,2.5C133.6,78.4,132.5,79.5,131.2,79.5 M132,77.4
		c-0.1-0.1-0.2-0.2-0.3-0.2c0.3,0,0.5-0.1,0.6-0.3c0.1-0.1,0.2-0.3,0.2-0.6c0-0.2,0-0.3-0.1-0.5c-0.1-0.1-0.2-0.2-0.4-0.3
		c-0.1,0-0.4-0.1-0.7-0.1h-1.3v3.1h0.6v-1.3h0.1c0.1,0,0.2,0,0.3,0c0,0,0.1,0,0.2,0.1c0,0,0.1,0.2,0.3,0.4l0.4,0.7h0.8l-0.4-0.6
		C132.2,77.7,132.1,77.5,132,77.4 M131,76.7h-0.5v-0.8h1c0.1,0,0.2,0,0.2,0.1c0,0,0.1,0.1,0.1,0.2c0,0.1,0,0.2,0,0.2
		c0,0-0.1,0.1-0.2,0.1H131"/>
</g>
</svg>
