<?xml version="1.0" encoding="utf-8"?>
<!-- Generator: Adobe Illustrator 25.4.1, SVG Export Plug-In . SVG Version: 6.00 Build 0)  -->
<svg version="1.1" id="Layer_1" xmlns="http://www.w3.org/2000/svg" xmlns:xlink="http://www.w3.org/1999/xlink" x="0px" y="0px"
	 viewBox="0 0 103.4 80" style="enable-background:new 0 0 103.4 80;" xml:space="preserve">
<style type="text/css">
	.st0{fill:url(#SVGID_1_);}
	.st1{fill:#EA1C30;}
	.st2{fill:url(#SVGID_00000048498721654022736740000001896654103948755596_);}
	.st3{fill:url(#SVGID_00000177456334014329558490000010204293322675423414_);}
	.st4{fill:url(#SVGID_00000058564602806168446880000012040543807775238046_);}
</style>
<radialGradient id="SVGID_1_" cx="2178.5132" cy="455.2657" r="109.6591" gradientTransform="matrix(0.3756 0 0 0.3756 -766.7655 -131.0294)" gradientUnits="userSpaceOnUse">
	<stop  offset="0.46" style="stop-color:#FCE7C0"/>
	<stop  offset="0.9" style="stop-color:#D0932A"/>
	<stop  offset="1" style="stop-color:#A26B32"/>
</radialGradient>
<path class="st0" d="M94,40c0,22-19,39.8-42.5,39.8S8.9,62,8.9,40S28,0.2,51.5,0.2S94,18,94,40z"/>
<path class="st1" d="M43.6,19.4c0-4.1,3.3-7.5,7.5-7.5c4.1,0,7.5,3.3,7.5,7.5s-3.3,7.5-7.5,7.5l0,0C47,26.9,43.6,23.6,43.6,19.4
	C43.6,19.4,43.6,19.4,43.6,19.4z"/>
<path d="M60.8,21.5l4.8-0.8L61,18.1L60.8,21.5L60.8,21.5z M51,4.9l-1.5,5.3l3.6-0.3L51,4.9z M48,11l-3.3-4.5l0.3,5.7
	C44.9,12.1,48,11,48,11z M44.1,13.5l-5.8-2.6l3.3,5.2C41.6,16.1,44.1,13.5,44.1,13.5z M41.3,17.8l-4.6,1.8l5.1,1.9L41.3,17.8z
	 M58.7,7.2l-3.9,3.3l2.5,2.1L58.7,7.2z M63.5,12.1l-4.7,1.4l1.8,3.3L63.5,12.1z"/>
<path d="M103.4,25.6H91.3c-2.2-5.3-5.5-10-9.7-13.9C73.5,4.2,62.8,0,51.4,0S29.3,4.2,21.2,11.7c-4.2,3.9-7.5,8.6-9.7,13.9h-11
	L0,32.5h9.5C9,35,8.7,37.5,8.7,40c0,10.7,4.4,20.7,12.5,28.3C29.3,75.8,40,80,51.4,80s22.1-4.2,30.2-11.7S94.1,50.7,94.1,40
	c0-2.1-0.2-4.3-0.5-6.4h9.8V25.6z M51.4,0.3c18,0,33.3,10.5,39.5,25.2H62.7l-2.1-2.8L59,25.6h-3.5c3.4-2.4,4.2-7.2,1.8-10.6
	s-7.2-4.2-10.6-1.8c-3.4,2.4-4.2,7.2-1.8,10.6c0.5,0.7,1.1,1.3,1.8,1.8h-3.6l-1.4-2.4l-1.5,2.4H12C18.1,10.8,33.5,0.3,51.4,0.3z
	 M55.1,25.6h-8c-3.4-2.2-4.4-6.8-2.1-10.2s6.8-4.4,10.2-2.1c2.1,1.4,3.3,3.7,3.4,6.2C58.5,21.9,57.2,24.2,55.1,25.6z M93.8,40
	c0,21.9-19,39.6-42.4,39.6S9.1,61.8,9.1,40c0-2.5,0.3-5,0.8-7.5h7.7V39h11.5v5.4h9.8v7.1h24.3v-7.1H74v-4.9h11.5v-6h7.8
	C93.6,35.7,93.8,37.8,93.8,40L93.8,40z"/>
<linearGradient id="SVGID_00000022552876371019955510000014230597228062518702_" gradientUnits="userSpaceOnUse" x1="51.1737" y1="-157.8761" x2="51.1737" y2="-175.2808" gradientTransform="matrix(1 0 0 1 0 201.2)">
	<stop  offset="0.46" style="stop-color:#FCE7C0"/>
	<stop  offset="0.9" style="stop-color:#D0932A"/>
	<stop  offset="1" style="stop-color:#A26B32"/>
</linearGradient>
<path style="fill:url(#SVGID_00000022552876371019955510000014230597228062518702_);" d="M62.5,38.2h3.2c1.2,0,1.5,0.4,1.7,0.8
	c0.3-0.2,0.5-0.5,0.8-0.8c1.9-1.9,1.9-3.8,1.9-3.8v0l0,0l1.3-2l2.6-1.3l1.2-1.2l0.5-3.9H26.6l2.4,5.8l2.6,1.3v4.5h8.3l3.3,2.6
	l2.6,1.3l0.6,1.9h10.7l1.9-4.5L62.5,38.2z"/>
<linearGradient id="SVGID_00000034092013517110803470000010020014020133526920_" gradientUnits="userSpaceOnUse" x1="259.0781" y1="-126.9999" x2="259.0781" y2="-109.5351" gradientTransform="matrix(1 0 0 1 -208.28 152.69)">
	<stop  offset="0.14" style="stop-color:#61CAE5"/>
	<stop  offset="1" style="stop-color:#007593"/>
</linearGradient>
<path style="fill:url(#SVGID_00000034092013517110803470000010020014020133526920_);" d="M38.9,35.4l6.5,0.7l2.6,6.5l8.4,0.6
	l-0.6-6.5l8.4-3.9l0.6-7.1H36.8L38.9,35.4z"/>
<linearGradient id="SVGID_00000143611119602004282720000003538645161904711064_" gradientUnits="userSpaceOnUse" x1="259.9795" y1="-80.5773" x2="259.9795" y2="-100.7463" gradientTransform="matrix(1 0 0 1 -208.28 152.69)">
	<stop  offset="0.14" style="stop-color:#61CAE5"/>
	<stop  offset="1" style="stop-color:#007593"/>
</linearGradient>
<path style="fill:url(#SVGID_00000143611119602004282720000003538645161904711064_);" d="M49.2,53l-4.4,12.5l4.9,6.5l8.7-7.1
	l-6-13.1"/>
<path d="M36.7,25.6h28.2l-0.7,7.3l-8.4,3.9l0.6,6.5l-8.7-0.7l-2.6-6.5l-6.5-0.6L36.7,25.6z M64.6,25.9H37.2l1.9,9.3l6.5,0.6l2.6,6.5
	l8.1,0.6l-0.6-6.4l8.4-3.9L64.6,25.9z M44.7,65.6L49.1,53l0.3,0.1l-4.4,12.4l4.8,6.3l8.5-6.9l-5.9-13l0.3-0.2l6,13.2l-9,7.3
	L44.7,65.6z"/>
<path d="M56.3,61.2l-5.9,2.7L46,60.6l-0.1,0.1l4.4,7.7l6.1-7.2L56.3,61.2L56.3,61.2z"/>
</svg>
