<?xml version="1.0" encoding="utf-8"?>
<!-- Generator: Adobe Illustrator 25.4.1, SVG Export Plug-In . SVG Version: 6.00 Build 0)  -->
<svg version="1.1" id="Layer_1" xmlns="http://www.w3.org/2000/svg" xmlns:xlink="http://www.w3.org/1999/xlink" x="0px" y="0px"
	 viewBox="0 0 298.5 80" style="enable-background:new 0 0 298.5 80;" xml:space="preserve">
<style type="text/css">
	.st0{fill:url(#SVGID_1_);}
	.st1{fill:#EA1C30;}
	.st2{fill:url(#SVGID_00000137125223996736092680000017644110609463340951_);}
	.st3{fill:url(#SVGID_00000115499996578195230970000013263770346853577876_);}
	.st4{fill:url(#SVGID_00000023242385441019389760000010574179387979759263_);}
</style>
<g>
	
		<radialGradient id="SVGID_1_" cx="2178.5132" cy="455.2657" r="109.6591" gradientTransform="matrix(0.3756 0 0 0.3756 -766.7655 -131.0294)" gradientUnits="userSpaceOnUse">
		<stop  offset="0.46" style="stop-color:#FCE7C0"/>
		<stop  offset="0.9" style="stop-color:#D0932A"/>
		<stop  offset="1" style="stop-color:#A26B32"/>
	</radialGradient>
	<path class="st0" d="M94,40c0,22-19,39.8-42.5,39.8S8.9,62,8.9,40S28,0.2,51.5,0.2S94,18,94,40z"/>
	<path class="st1" d="M43.6,19.4c0-4.1,3.3-7.5,7.5-7.5c4.1,0,7.5,3.3,7.5,7.5s-3.3,7.5-7.5,7.5l0,0C47,26.9,43.6,23.6,43.6,19.4
		C43.6,19.4,43.6,19.4,43.6,19.4z"/>
	<path d="M60.8,21.5l4.8-0.8L61,18.1L60.8,21.5L60.8,21.5z M51,4.9l-1.5,5.3l3.6-0.3L51,4.9z M48,11l-3.3-4.5l0.3,5.7
		C44.9,12.1,48,11,48,11z M44.1,13.5l-5.8-2.6l3.3,5.2C41.6,16.1,44.1,13.5,44.1,13.5z M41.3,17.8l-4.6,1.8l5.1,1.9L41.3,17.8z
		 M58.7,7.2l-3.9,3.3l2.5,2.1L58.7,7.2z M63.5,12.1l-4.7,1.4l1.8,3.3L63.5,12.1z"/>
	<path d="M103.4,25.6H91.3c-2.2-5.3-5.5-10-9.7-13.9C73.5,4.2,62.8,0,51.4,0S29.3,4.2,21.2,11.7c-4.2,3.9-7.5,8.6-9.7,13.9h-11
		L0,32.5h9.5C9,35,8.7,37.5,8.7,40c0,10.7,4.4,20.7,12.5,28.3C29.3,75.8,40,80,51.4,80s22.1-4.2,30.2-11.7S94.1,50.7,94.1,40
		c0-2.1-0.2-4.3-0.5-6.4h9.8V25.6z M51.4,0.3c18,0,33.3,10.5,39.5,25.2H62.7l-2.1-2.8L59,25.6h-3.5c3.4-2.4,4.2-7.2,1.8-10.6
		s-7.2-4.2-10.6-1.8c-3.4,2.4-4.2,7.2-1.8,10.6c0.5,0.7,1.1,1.3,1.8,1.8h-3.6l-1.4-2.4l-1.5,2.4H12C18.1,10.8,33.5,0.3,51.4,0.3z
		 M55.1,25.6h-8c-3.4-2.2-4.4-6.8-2.1-10.2s6.8-4.4,10.2-2.1c2.1,1.4,3.3,3.7,3.4,6.2C58.5,21.9,57.2,24.2,55.1,25.6z M93.8,40
		c0,21.9-19,39.6-42.4,39.6S9.1,61.8,9.1,40c0-2.5,0.3-5,0.8-7.5h7.7V39h11.5v5.4h9.8v7.1h24.3v-7.1H74v-4.9h11.5v-6h7.8
		C93.6,35.7,93.8,37.8,93.8,40L93.8,40z"/>
	
		<linearGradient id="SVGID_00000069370644479570007200000013450179678934883968_" gradientUnits="userSpaceOnUse" x1="51.1737" y1="-157.8761" x2="51.1737" y2="-175.2808" gradientTransform="matrix(1 0 0 1 0 201.2)">
		<stop  offset="0.46" style="stop-color:#FCE7C0"/>
		<stop  offset="0.9" style="stop-color:#D0932A"/>
		<stop  offset="1" style="stop-color:#A26B32"/>
	</linearGradient>
	<path style="fill:url(#SVGID_00000069370644479570007200000013450179678934883968_);" d="M62.5,38.2h3.2c1.2,0,1.5,0.4,1.7,0.8
		c0.3-0.2,0.5-0.5,0.8-0.8c1.9-1.9,1.9-3.8,1.9-3.8v0l0,0l1.3-2l2.6-1.3l1.2-1.2l0.5-3.9H26.6l2.4,5.8l2.6,1.3v4.5h8.3l3.3,2.6
		l2.6,1.3l0.6,1.9h10.7l1.9-4.5L62.5,38.2z"/>
	
		<linearGradient id="SVGID_00000183210766082771481820000010897785947611782575_" gradientUnits="userSpaceOnUse" x1="259.0781" y1="-126.9999" x2="259.0781" y2="-109.5351" gradientTransform="matrix(1 0 0 1 -208.28 152.69)">
		<stop  offset="0.14" style="stop-color:#61CAE5"/>
		<stop  offset="1" style="stop-color:#007593"/>
	</linearGradient>
	<path style="fill:url(#SVGID_00000183210766082771481820000010897785947611782575_);" d="M38.9,35.4l6.5,0.7l2.6,6.5l8.4,0.6
		l-0.6-6.5l8.4-3.9l0.6-7.1H36.8L38.9,35.4z"/>
	
		<linearGradient id="SVGID_00000042698279832945918160000000353947928123947434_" gradientUnits="userSpaceOnUse" x1="259.9795" y1="-80.5773" x2="259.9795" y2="-100.7463" gradientTransform="matrix(1 0 0 1 -208.28 152.69)">
		<stop  offset="0.14" style="stop-color:#61CAE5"/>
		<stop  offset="1" style="stop-color:#007593"/>
	</linearGradient>
	<path style="fill:url(#SVGID_00000042698279832945918160000000353947928123947434_);" d="M49.2,53l-4.4,12.5l4.9,6.5l8.7-7.1
		l-6-13.1"/>
	<path d="M36.7,25.6h28.2l-0.7,7.3l-8.4,3.9l0.6,6.5l-8.7-0.7l-2.6-6.5l-6.5-0.6L36.7,25.6z M64.6,25.9H37.2l1.9,9.3l6.5,0.6
		l2.6,6.5l8.1,0.6l-0.6-6.4l8.4-3.9L64.6,25.9z M44.7,65.6L49.1,53l0.3,0.1l-4.4,12.4l4.8,6.3l8.5-6.9l-5.9-13l0.3-0.2l6,13.2
		l-9,7.3L44.7,65.6z"/>
	<path d="M56.3,61.2l-5.9,2.7L46,60.6l-0.1,0.1l4.4,7.7l6.1-7.2L56.3,61.2L56.3,61.2z"/>
	<path d="M139.9,28.4c0.3-0.3,0.6-0.7,0.6-1.1l0.6-2.5H137c-0.2,0-0.3,0-0.5,0.1c-0.1,0.1-0.3,0.2-0.4,0.3c-0.1,0.1-0.2,0.3-0.3,0.5
		l-0.7,1l0-0.2c0.1-0.2,0.1-0.3,0.1-0.5c0-0.1,0-0.2,0-0.4c0-0.4-0.2-0.8-1.2-0.8h-4.2l-0.2,0.6l0.2,0c0.4,0.2,0.5,0.4,0.5,0.5
		c0,0.1,0,0.2-0.1,0.3l-3.5,14.6l-0.1,0.5c0,0.1,0,0.2,0,0.3c0,0.4,0.2,0.9,1.2,0.9h4.2l0.1-0.7l-0.2,0c-0.4-0.2-0.5-0.4-0.5-0.5
		c0-0.3,0.1-0.6,0.2-0.9l2.3-9.4c0.1-0.4,0.2-0.9,0.4-1.3c0.1-0.3,0.3-0.5,0.5-0.8c0.2-0.2,0.4-0.3,0.7-0.4c0.4-0.1,0.7-0.1,1.1-0.1
		h1.7C139.1,28.7,139.6,28.6,139.9,28.4z"/>
	<path d="M127.2,29.6c0-0.4-0.2-0.7-0.5-0.9c-0.1-0.1-0.3-0.2-0.5-0.2c-0.3,0-0.6,0-0.9,0h-6.7l-0.6,2.2c0,0.2-0.1,0.3-0.1,0.4
		c0,0.1,0,0.2,0,0.3c0,0.3,0.1,0.6,0.4,0.8c0.4,0.1,0.7,0.2,1.1,0.2h2.5l-0.9,3.6c-0.1,0.5-0.3,1.1-0.5,1.6
		c-0.1,0.3-0.3,0.6-0.5,0.9c-0.2,0.2-0.5,0.3-0.8,0.4c-0.5,0.1-0.9,0.1-1.4,0.1c-0.7,0-1.2,0-1.5,0c-0.3,0-0.6-0.1-0.9-0.2
		c-0.4-0.1-0.7-0.4-0.9-0.7c-0.2-0.4-0.3-0.8-0.3-1.3c0-0.9,0.2-1.9,0.4-2.8c0.3-1.3,0.6-2.7,1-4c0.2-0.5,0.3-0.9,0.4-1.2
		c0.1-0.3,0.2-0.6,0.3-0.9c0.1-0.3,0.2-0.6,0.3-0.8s0.2-0.5,0.4-0.8c0.2-0.3,0.4-0.7,0.6-1c0.2-0.3,0.5-0.5,0.8-0.6
		c0.4-0.2,0.8-0.3,1.2-0.3c0.6-0.1,1.2-0.1,1.8-0.1h4c0.5,0,0.9,0,1.4-0.2c0.3-0.2,0.6-0.6,0.6-0.9l0.5-2.5h-8.6
		c-1.9,0-3.5,0.3-4.6,1c-1.2,0.7-2.2,1.8-2.7,3.2c-0.4,1-0.8,2-1.2,3.1c-0.4,1.1-0.7,2.3-1,3.5c-0.3,1.2-0.5,2.3-0.7,3.3
		c-0.2,0.9-0.3,1.8-0.3,2.7c0,0.9,0.2,1.8,0.5,2.7c0.3,0.8,0.9,1.4,1.6,1.9c0.8,0.5,1.6,0.8,2.5,0.9c1.3,0.2,2.7,0.2,4,0.2
		c1.4,0,2.5,0,3.3,0c0.7,0,1.4-0.1,2.1-0.3c0.5-0.2,0.9-0.5,1.2-0.9c0.3-0.5,0.5-1.1,0.6-1.7l2.2-9.3
		C127.2,30.2,127.2,29.9,127.2,29.6L127.2,29.6z"/>
	<path d="M188.6,20.4h-4.2l-0.2,0.7l0.2,0c0.4,0.1,0.5,0.3,0.5,0.5c0,0.3-0.1,0.6-0.2,0.9l-0.6,2.3h-2.7c-0.9,0-1.9,0.1-2.8,0.2
		c-0.8,0.1-1.5,0.4-2.2,0.7c-0.6,0.3-1.2,0.8-1.7,1.3c-0.5,0.6-1,1.3-1.4,2c-0.3,0.7-0.6,1.4-0.9,2.1c-0.3,0.8-0.5,1.7-0.7,2.5
		c-0.2,0.9-0.4,1.7-0.5,2.6c-0.1,0.8-0.2,1.5-0.2,2.3c0,0.7,0.1,1.5,0.5,2.1c0.3,0.6,0.7,1.1,1.2,1.5c0.4,0.3,0.9,0.4,1.4,0.5
		c0.7,0.1,1.3,0.2,2,0.2c0.6,0,1.1,0,1.4,0c0.3,0,0.6-0.1,0.9-0.2c0.2-0.1,0.5-0.2,0.6-0.4c0.2-0.2,0.3-0.4,0.5-0.6l0.9-1.4
		l-0.2,0.8c0,0.1-0.1,0.3-0.1,0.5c0,0.1,0,0.2,0,0.4c0,0.4,0.2,0.8,1.2,0.8h4.2l0.2-0.6l-0.2,0c-0.4-0.2-0.5-0.4-0.5-0.5
		c0-0.3,0.1-0.6,0.2-0.9l4.4-18.4c0-0.2,0.1-0.3,0.1-0.5c0-0.1,0-0.2,0-0.3C189.8,20.9,189.6,20.4,188.6,20.4z M181.3,36.7
		c-0.1,0.6-0.4,1.1-0.9,1.4c-0.4,0.3-1.1,0.4-2,0.4c-1.6,0-2.4-0.6-2.4-1.8c0-0.4,0-0.9,0.1-1.3c0.1-0.5,0.2-1.1,0.3-1.6
		c0.2-0.6,0.3-1.1,0.5-1.7c0.2-0.5,0.4-1,0.6-1.5c0.2-0.4,0.4-0.7,0.6-1c0.2-0.3,0.4-0.5,0.7-0.6c0.3-0.2,0.7-0.3,1-0.3
		c0.5-0.1,0.9-0.1,1.4-0.1h1.8L181.3,36.7z"/>
	<path d="M170.9,29.7c0.1-0.6,0.2-1,0.3-1.4c0.1-0.3,0.1-0.6,0.1-1c0-0.8-0.4-1.6-1.1-2.1c-0.4-0.3-0.9-0.4-1.4-0.5
		c-0.8-0.1-1.5-0.2-2.3-0.2c-0.6,0-1.2,0-1.6,0c-0.3,0-0.7,0.1-1,0.2c-0.3,0.1-0.5,0.3-0.7,0.5c-0.2,0.2-0.4,0.5-0.6,0.8l-0.3,0.5
		l0-0.1v-0.2c0-0.1,0-0.3,0.1-0.3c0-0.1,0-0.2,0-0.3c0-0.4-0.2-0.8-1.2-0.8h-4.2l-0.2,0.6l0.2,0c0.4,0.2,0.5,0.4,0.5,0.5
		c0,0.1,0,0.2,0,0.3l-0.1,0.4c0,0.1,0,0.1,0,0.2l-3.4,14c0,0.2-0.1,0.3-0.1,0.5c0,0.1,0,0.2,0,0.3c0,0.4,0.2,0.9,1.2,0.9h4.2
		l0.2-0.6l-0.2,0c-0.4-0.2-0.5-0.4-0.5-0.5c0-0.3,0.1-0.6,0.2-0.9l2.3-9.6c0.1-0.4,0.2-0.8,0.4-1.2c0.1-0.3,0.3-0.5,0.5-0.7
		c0.2-0.2,0.5-0.3,0.8-0.4c0.4-0.1,0.8-0.1,1.2-0.1c2,0,2,0.7,2,1c0,0.1,0,0.3,0,0.4c0,0.2-0.1,0.3-0.1,0.5l-2.5,10.6
		c0,0.1-0.1,0.3-0.1,0.5c0,0.1,0,0.2,0,0.4c0,0.4,0.2,0.8,1.2,0.8h4.2l0.2-0.6l-0.2,0c-0.4-0.2-0.5-0.4-0.5-0.5
		c0-0.3,0.1-0.6,0.2-0.9L170.9,29.7z"/>
	<path d="M153.3,25.6c-0.9-0.5-1.9-0.8-3-0.8h-7.6l-0.4,1.9l-0.1,0.5c0,0.1,0,0.2,0,0.3c0,0.5,0.2,1,1.4,1h4.3c0.4,0,0.9,0,1.3,0.2
		c0.1,0,0.2,0.2,0.2,0.4c0,0.2,0,0.4-0.1,0.6c-0.1,0.3-0.1,0.5-0.2,0.6c-0.1,0.2-0.2,0.3-0.3,0.4c-0.3,0.1-0.5,0.1-0.8,0.1h-3.3
		c-1.5,0-2.6,0.2-3.4,0.6c-0.9,0.5-1.6,1.3-2,2.2c-0.4,0.9-0.8,1.8-1,2.7c-0.3,0.9-0.4,1.9-0.4,2.8c0,1.3,0.4,2.3,1.1,2.9
		s1.9,0.9,3.5,0.9c0.7,0,1.5,0,2.2-0.2c0.5-0.2,0.9-0.5,1.2-0.9l1.1-1.6l-0.2,0.9c0,0.1,0,0.1,0,0.2c-0.1,0.2-0.1,0.4-0.1,0.6
		c0,0.4,0.2,0.8,1.2,0.8h4.1l0.2-0.6l-0.2-0.2c-0.4-0.1-0.5-0.3-0.5-0.5c0-0.3,0.1-0.6,0.2-0.9l2.7-11c0.1-0.5,0.2-0.8,0.2-1
		c0-0.2,0-0.5,0-0.7C154.4,26.9,154,26.1,153.3,25.6z M147.1,38.6h-2.6c-0.5,0-1-0.1-1.5-0.3c-0.2-0.2-0.4-0.5-0.3-0.8v-0.1
		c0-0.6,0.2-1.1,0.4-1.6c0.1-0.5,0.4-0.9,0.7-1.2c0.2-0.3,0.5-0.5,0.9-0.6c0.5-0.1,1-0.2,1.5-0.2h2.1L147.1,38.6z"/>
	<path d="M215.7,20.3h-6.9c-1.1,0-2.1,0.1-3.2,0.3c-0.8,0.2-1.6,0.5-2.3,1.1c-0.7,0.6-1.3,1.3-1.7,2.1c-0.6,1.1-1.1,2.2-1.4,3.3
		c-0.3,0.9-0.6,1.8-0.9,2.8c-0.3,0.9-0.5,1.9-0.7,2.7c-0.2,0.8-0.3,1.7-0.4,2.5c-0.1,0.7-0.1,1.4-0.2,2.1c0,1.9,0.5,3.4,1.5,4.3
		c0.3,0.2,0.5,0.4,0.9,0.6c0.4,0.2,0.8,0.3,1.2,0.4c0.6,0.1,1.3,0.2,1.9,0.2c0.8,0,1.8,0.1,3,0.1h2.4c0.6,0,1.2,0,1.7-0.1
		c0.4-0.1,0.8-0.3,1.2-0.5c0.3-0.3,0.5-0.8,0.6-1.2l0.9-3.6h-0.8l0,0.1c-0.2,0.4-0.6,0.8-1,1.1c-0.6,0.2-1.2,0.3-1.8,0.3h-3.2
		c-0.5,0-0.9,0-1.4-0.1c-0.2,0-0.5-0.1-0.7-0.2c-0.7-0.4-1-1-1-2c0-0.3,0-0.7,0.1-1.3c0-0.6,0.2-1.1,0.3-1.8
		c0.3-1.4,0.6-2.7,0.9-3.8c0.3-1,0.6-2.1,1.1-3.1c0.2-0.4,0.4-0.9,0.7-1.3c0.2-0.3,0.5-0.6,0.8-0.8c0.3-0.2,0.7-0.3,1.1-0.4
		c0.5-0.1,1.1-0.1,1.7-0.1h2.7c0.3,0,0.7,0,1,0c0.2,0,0.5-0.1,0.7-0.2c0.2-0.1,0.4-0.3,0.5-0.5c0.1-0.2,0.2-0.5,0.3-0.8L215.7,20.3z
		"/>
	<path d="M230.5,25.5c-0.9-0.5-1.9-0.8-3-0.8h-7.6l-0.4,1.9l-0.1,0.5c0,0.1,0,0.2,0,0.3c0,0.5,0.2,1,1.4,1h4.3c0.4,0,0.9,0,1.3,0.2
		c0.1,0,0.2,0.2,0.2,0.4c0,0.2,0,0.4-0.1,0.6c-0.1,0.3-0.1,0.5-0.2,0.6c-0.1,0.2-0.2,0.3-0.3,0.4c-0.3,0.1-0.5,0.1-0.8,0.1h-3.3
		c-1.5,0-2.6,0.2-3.4,0.6c-0.9,0.5-1.6,1.3-2,2.2c-0.4,0.9-0.8,1.8-1,2.7c-0.3,0.9-0.4,1.9-0.4,2.8c0,1.3,0.4,2.3,1.1,2.9
		s1.9,0.9,3.5,0.9c0.7,0,1.5,0,2.2-0.2c0.5-0.2,0.9-0.5,1.2-0.9l1.1-1.6l-0.2,0.9c0,0.1,0,0.1,0,0.2c-0.1,0.2-0.1,0.4-0.1,0.6
		c0,0.4,0.2,0.8,1.2,0.8h4.2l0.2-0.6l-0.2,0c-0.5-0.3-0.6-0.5-0.6-0.7h0c0-0.3,0.1-0.6,0.2-0.9l2.7-11c0.1-0.5,0.2-0.8,0.2-1
		c0-0.2,0-0.5,0-0.7C231.6,26.8,231.2,26,230.5,25.5z M224.3,38.5h-2.6c-0.5,0-1-0.1-1.5-0.3c-0.2-0.2-0.4-0.5-0.3-0.8v-0.1
		c0-0.6,0.2-1.1,0.4-1.6c0.1-0.5,0.4-0.9,0.7-1.2c0.2-0.3,0.5-0.5,0.9-0.6c0.5-0.1,1-0.2,1.5-0.2h2.1L224.3,38.5z"/>
	<path d="M254.8,45.7c0-0.2,0.1-0.4,0.2-0.6l11.5-19c0.1-0.2,0.2-0.4,0.2-0.6c0-0.3-0.1-0.5-0.4-0.7c-0.4-0.1-0.8-0.2-1.2-0.2h-3.6
		l-0.2,0.6l0.2,0.1c0.3,0.2,0.5,0.3,0.5,0.5c0,0.2-0.1,0.4-0.2,0.6l-4.5,7.5l-2.1-8.3c0-0.3-0.2-0.6-0.4-0.9c-0.3-0.2-0.6-0.2-1-0.2
		h-4.1l-0.2,0.7l0.2,0c0.2,0.1,0.4,0.2,0.6,0.4c0.2,0.3,0.3,0.6,0.4,1l3.3,12.5l-3.7,6c-0.1,0.2-0.2,0.5-0.3,0.8
		c0,0.4,0.2,0.9,1.2,0.9h4.1l0.2-0.7l-0.2,0C254.9,46.1,254.8,45.9,254.8,45.7L254.8,45.7z"/>
	<path d="M247.5,25.2c-0.4-0.3-0.9-0.4-1.4-0.5c-0.8-0.1-1.5-0.2-2.3-0.2c-0.6,0-1.2,0-1.6,0c-0.3,0-0.7,0.1-1,0.2
		c-0.3,0.1-0.5,0.3-0.7,0.5c-0.2,0.2-0.4,0.5-0.6,0.8l-0.3,0.5l0-0.1v-0.2c0-0.1,0-0.3,0.1-0.3c0-0.1,0-0.2,0-0.3
		c0-0.4-0.2-0.8-1.2-0.8h-4.2l-0.2,0.6l0.2,0c0.4,0.2,0.5,0.4,0.5,0.5c0,0.1,0,0.2-0.1,0.3l-0.1,0.4c0,0.1,0,0.1,0,0.2l-3.4,14
		c0,0.2-0.1,0.3-0.1,0.5c0,0.1,0,0.2,0,0.3c0,0.4,0.2,0.9,1.2,0.9h4.2l0.2-0.6l-0.2,0c-0.4-0.2-0.5-0.4-0.5-0.5
		c0-0.3,0.1-0.6,0.2-0.9l2.3-9.6c0.1-0.4,0.2-0.8,0.4-1.2c0.1-0.3,0.3-0.5,0.5-0.7c0.2-0.2,0.5-0.3,0.8-0.4c0.4-0.1,0.8-0.1,1.2-0.1
		c2,0,2,0.7,2,1c0,0.1,0,0.3,0,0.4c0,0.2-0.1,0.3-0.1,0.5l-2.5,10.6c0,0.1-0.1,0.3-0.1,0.5c0,0.1,0,0.2,0,0.4c0,0.4,0.2,0.8,1.2,0.8
		h4.3L246,42l-0.2,0c-0.4-0.2-0.5-0.4-0.5-0.5c0-0.3,0.1-0.6,0.2-0.9l2.6-10.8c0.1-0.5,0.2-1,0.3-1.4c0.1-0.3,0.1-0.6,0.1-1
		C248.6,26.5,248.2,25.7,247.5,25.2L247.5,25.2z"/>
	<path d="M297.5,25.2c-0.4-0.3-0.9-0.4-1.4-0.5c-0.8-0.1-1.5-0.2-2.3-0.2c-0.6,0-1.2,0-1.6,0c-0.3,0-0.7,0.1-1,0.2
		c-0.3,0.1-0.5,0.3-0.7,0.5c-0.2,0.2-0.4,0.5-0.6,0.8l-0.3,0.5l0-0.1v-0.2c0-0.1,0-0.3,0.1-0.3c0-0.1,0-0.2,0-0.3
		c0-0.4-0.2-0.8-1.2-0.8h-4.2l-0.2,0.6l0.2,0c0.4,0.2,0.5,0.4,0.5,0.5c0,0.1,0,0.2-0.1,0.3l-0.1,0.4c0,0.1,0,0.1,0,0.2l-3.4,14
		c0,0.2-0.1,0.3-0.1,0.5c0,0.1,0,0.2,0,0.3c0,0.4,0.2,0.9,1.2,0.9h4.2l0.2-0.6l-0.2,0c-0.4-0.2-0.5-0.4-0.5-0.5
		c0-0.3,0.1-0.6,0.2-0.9l2.3-9.6c0.1-0.4,0.2-0.8,0.4-1.2c0.1-0.3,0.3-0.5,0.5-0.7c0.2-0.2,0.5-0.3,0.8-0.4c0.4-0.1,0.8-0.1,1.2-0.1
		c2,0,2,0.7,2,1c0,0.1,0,0.3,0,0.4c0,0.2-0.1,0.3-0.1,0.5l-2.5,10.6c0,0.1-0.1,0.3-0.1,0.5c0,0.1,0,0.2,0,0.4c0,0.4,0.2,0.8,1.2,0.8
		h4.2L296,42l-0.2,0c-0.4-0.2-0.5-0.4-0.5-0.5c0-0.3,0.1-0.6,0.2-0.9l2.6-10.8c0.1-0.5,0.2-1,0.3-1.4c0.1-0.3,0.1-0.6,0.1-1
		C298.6,26.5,298.2,25.7,297.5,25.2z"/>
	<path d="M280.4,25.5c-1-0.7-2.7-1-4.9-1c-0.9,0-1.9,0-2.7,0.1c-0.8,0-1.5,0.2-2.2,0.4c-0.5,0.2-1,0.4-1.5,0.7
		c-0.4,0.3-0.8,0.7-1.2,1.1c-0.4,0.5-0.7,1.1-1,1.7c-0.4,0.8-0.7,1.6-0.9,2.4c-0.2,0.7-0.4,1.4-0.6,2.1c-0.2,0.7-0.3,1.3-0.5,2
		c-0.1,0.6-0.2,1.2-0.3,1.8c-0.1,0.5-0.1,1-0.1,1.5c0,1.7,0.6,2.9,1.8,3.6c0.6,0.3,1.2,0.5,1.9,0.7c0.9,0.1,1.7,0.2,2.6,0.2
		c2.3,0,4.1-0.3,5.4-0.8c1.3-0.5,2.4-1.6,3-2.9c0.4-0.8,0.7-1.6,1-2.4c0.3-0.9,0.6-1.8,0.8-2.8c0.3-1,0.5-1.9,0.6-2.7h0
		c0.1-0.7,0.2-1.4,0.2-2.2C282,27.3,281.5,26.2,280.4,25.5z M277,31c-0.1,0.6-0.2,1.2-0.3,1.7c-0.1,0.6-0.3,1.2-0.5,1.8
		c-0.2,0.6-0.3,1.1-0.5,1.6c-0.4,1.2-0.9,2-1.5,2.4c-0.7,0.5-1.5,0.7-2.3,0.6c-1.5,0-2.3-0.6-2.3-2c0-0.5,0.1-1,0.2-1.5
		c0.1-0.6,0.3-1.2,0.4-1.9c0.2-0.7,0.4-1.3,0.6-2c0.2-0.6,0.4-1.1,0.6-1.7c0.2-0.7,0.7-1.3,1.3-1.7c0.7-0.4,1.4-0.5,2.1-0.5
		c0.6-0.1,1.2,0.1,1.7,0.5c0.4,0.3,0.6,0.8,0.6,1.2C277.1,30.2,277,30.6,277,31z"/>
	<path d="M135.7,52c-0.5-0.5-1.4-0.6-2.5-0.6c-0.5,0-1,0-1.4,0.1c-0.4,0.1-0.8,0.2-1.2,0.3c-0.3,0.1-0.7,0.3-1,0.5
		c-0.3,0.2-0.6,0.5-0.8,0.8c-0.3,0.3-0.6,0.7-0.8,1.2c-0.2,0.5-0.5,1-0.7,1.5c-0.2,0.5-0.4,1.1-0.5,1.7c-0.1,0.5-0.2,1-0.3,1.5v0.3
		c0,0.4,0.1,0.8,0.2,1.2c0.2,0.4,0.5,0.8,0.9,1c0.3,0.2,0.7,0.3,1.1,0.3c0.6,0.1,1.1,0.1,1.7,0.1c0.6,0,1.2,0,1.8-0.1
		c0.4,0,0.8-0.2,1.1-0.3c0.1-0.1,0.2-0.1,0.3-0.2c0.1-0.1,0.1-0.2,0.2-0.3c0.1-0.1,0.1-0.3,0.2-0.4c0-0.2,0.1-0.4,0.2-0.6l0.5-1.6
		h-0.6l0,0.1c-0.1,0.2-0.3,0.3-0.5,0.4c-0.2,0.1-0.4,0.2-0.6,0.3c-0.3,0.1-0.5,0.1-0.8,0.2c-0.4,0-0.7,0-1.1,0c-1,0-1.4-0.1-1.4-0.2
		c-0.2-0.1-0.3-0.4-0.3-0.6v-0.1c0-0.1,0-0.2,0-0.3c0-0.1,0-0.2,0.1-0.3l0.2-0.6h4.2c0.4,0,0.7,0,1.1-0.1c0.2-0.1,0.4-0.2,0.6-0.5
		c0.1-0.2,0.2-0.3,0.2-0.5c0.1-0.2,0.2-0.4,0.2-0.6h0c0.1-0.2,0.1-0.5,0.2-0.8c0-0.2,0.1-0.4,0.1-0.7
		C136.5,53.2,136.2,52.4,135.7,52z M133.9,54.4c0,0.1,0,0.3-0.1,0.4c0,0.1-0.1,0.3-0.1,0.5h-3.1c0.1-0.3,0.2-0.5,0.3-0.8
		c0.1-0.2,0.3-0.4,0.5-0.6c0.2-0.1,0.4-0.2,0.6-0.3c0.3-0.1,0.5-0.1,0.8-0.1c1.1,0,1.2,0.5,1.2,0.8V54.4z"/>
	<path d="M194.8,51c0.2,0.1,0.4,0.1,0.6,0.1h1.9l0.4-1.2c0-0.1,0-0.1,0-0.2c0-0.1,0-0.1,0-0.2v0c0-0.2-0.1-0.5-0.7-0.5H195l-0.4,1.2
		c0,0.1,0,0.2-0.1,0.2v0.2C194.6,50.7,194.7,50.9,194.8,51L194.8,51z"/>
	<path d="M144.2,61.1c0,0,0-0.2,0.1-0.5l2-6.2c0.1-0.3,0.2-0.6,0.2-0.8c0-0.2,0.1-0.4,0.1-0.6c0.1-0.5-0.2-1-0.6-1.2
		c-0.3-0.2-0.5-0.3-0.8-0.3c-0.4-0.1-0.9-0.1-1.4-0.1c-0.3,0-0.6,0-0.9,0c-0.2,0-0.4,0-0.6,0.1c-0.2,0.1-0.3,0.2-0.5,0.3
		c-0.1,0.1-0.3,0.3-0.4,0.4c0,0,0-0.1,0-0.2v0c0-0.2-0.1-0.5-0.8-0.5h-2.4l-0.2,0.5l0.2,0.1c0.2,0.1,0.2,0.2,0.2,0.2
		c0,0.1,0,0.1,0,0.2l-0.1,0.2c0,0,0,0.1,0,0.1l-2.5,8c0,0.1-0.1,0.2-0.1,0.3c0,0.1,0,0.1,0,0.2v0c0,0.2,0.1,0.5,0.8,0.5h2.5l0.2-0.5
		l-0.2-0.1c-0.2-0.1-0.2-0.2-0.2-0.2c0,0,0-0.2,0.1-0.5l1.7-5.5c0.1-0.2,0.1-0.4,0.3-0.6c0.1-0.1,0.2-0.3,0.3-0.4
		c0.1-0.1,0.3-0.2,0.4-0.2c0.2,0,0.4-0.1,0.6-0.1c0.7,0,1,0.2,1,0.5v0c0,0.1,0,0.2,0,0.2c0,0.1,0,0.2-0.1,0.3l-1.9,6
		c0,0.1-0.1,0.2-0.1,0.3c0,0.1,0,0.1,0,0.2v0c0,0.2,0.1,0.5,0.8,0.5h2.4l0.2-0.5l-0.2-0.1C144.2,61.2,144.2,61.1,144.2,61.1
		L144.2,61.1z"/>
	<path d="M149,61.1c0-0.2,0.1-0.4,0.1-0.5l2.5-8c0-0.1,0.1-0.2,0.1-0.3c0-0.1,0-0.1,0-0.2v0c0-0.2-0.1-0.5-0.8-0.5h-2.5l-0.1,0.5
		l0.2,0c0.2,0.1,0.2,0.2,0.2,0.2c0,0.1,0,0.1,0,0.2l-2.6,8.3c0,0.1-0.1,0.2-0.1,0.3c0,0.1,0,0.1,0,0.2v0c0,0.2,0.1,0.5,0.8,0.5h2.4
		l0.2-0.5l-0.2-0.1C149,61.2,149,61.1,149,61.1z"/>
	<path d="M178.2,51c0.2,0.1,0.4,0.1,0.6,0.1h1.9l0.4-1.2c0-0.1,0-0.1,0-0.2c0-0.1,0-0.1,0-0.2v0c0-0.2-0.1-0.5-0.7-0.5h-2.1
		l-0.4,1.2c0,0.1,0,0.2-0.1,0.2v0.2C178,50.7,178,50.9,178.2,51L178.2,51z"/>
	<path d="M149.6,51c0.2,0.1,0.4,0.1,0.6,0.1h1.9l0.4-1.2c0-0.1,0-0.1,0-0.2c0-0.1,0-0.1,0-0.2v0c0-0.2-0.1-0.5-0.7-0.5h-2.1
		l-0.4,1.2c0,0.1,0,0.2-0.1,0.2v0.2C149.3,50.7,149.4,50.9,149.6,51L149.6,51z"/>
	<path d="M125.7,58.6c-0.3,0.3-0.7,0.5-1.1,0.6c-0.5,0.1-1,0.2-1.5,0.2c-0.5,0-0.9,0-1.3-0.2c-0.2-0.2-0.3-0.4-0.3-0.7
		c0-0.3,0.1-0.5,0.2-0.8c0.1-0.3,0.2-0.7,0.3-1.1c0.1-0.4,0.3-0.7,0.4-1.1c0.1-0.3,0.3-0.6,0.4-0.8c0.1-0.2,0.2-0.3,0.3-0.5
		c0.1-0.1,0.2-0.2,0.3-0.3c0.1-0.1,0.3-0.1,0.4-0.1c0.2,0,0.4,0,0.6,0h1.8c0.3,0,0.6-0.1,0.8-0.2c0.2-0.2,0.4-0.4,0.4-0.7l0.5-1.5
		h-3.3c-0.4,0-0.8,0-1.2,0.1c-0.3,0-0.7,0.1-1,0.3c-0.3,0.1-0.6,0.3-0.9,0.5c-0.3,0.2-0.5,0.5-0.8,0.8c-0.3,0.4-0.5,0.7-0.8,1.2
		c-0.2,0.5-0.5,1-0.6,1.5c-0.2,0.5-0.4,1.1-0.5,1.6c-0.1,0.5-0.2,1-0.3,1.5v0.3c0,0.7,0.2,1.4,0.7,1.9c0.3,0.3,0.7,0.5,1.1,0.6
		c0.6,0.1,1.3,0.2,1.9,0.2c0.6,0,1.2,0,1.7-0.1c0.4-0.1,0.7-0.2,1.1-0.3c0.4-0.2,0.6-0.6,0.7-1.1l0.6-2L125.7,58.6L125.7,58.6z"/>
	<path d="M116.6,54.3l-1.8-0.7c-0.3-0.1-0.5-0.2-0.8-0.4c-0.1-0.1-0.2-0.3-0.2-0.5c0-0.2,0.1-0.4,0.2-0.6c0.1-0.4,0.4-0.7,0.8-0.9
		c0.3-0.1,0.6-0.1,0.9-0.1h2.1c0.3,0,0.6-0.1,0.8-0.2c0.2-0.2,0.4-0.4,0.4-0.7l0.4-1.3h-4.2c-0.6,0-1.3,0.1-1.9,0.3
		c-0.5,0.2-0.9,0.5-1.3,0.8c-0.2,0.2-0.4,0.5-0.5,0.8c-0.2,0.3-0.3,0.7-0.5,1c-0.2,0.4-0.3,0.8-0.4,1.1c-0.1,0.3-0.2,0.6-0.2,1
		c-0.1,0.4,0,0.9,0.3,1.2c0.1,0.2,0.3,0.4,0.5,0.5c0.3,0.2,0.5,0.3,0.8,0.4l1.7,0.6c0.3,0.1,0.5,0.2,0.7,0.4
		c0.1,0.2,0.1,0.3,0.1,0.5c0,0.2,0,0.4-0.1,0.6c-0.1,0.2-0.1,0.4-0.2,0.6c-0.1,0.2-0.3,0.4-0.6,0.5c-0.3,0.1-0.7,0.2-1.1,0.2h-2.1
		c-0.3,0-0.6,0-0.9-0.1c-0.1-0.1-0.2-0.3-0.2-0.5v-0.3h-0.6l-0.7,2.3c0,0.1,0,0.1,0,0.2c0,0.1,0,0.1,0,0.2v0.1
		c0,0.2,0.1,0.6,0.8,0.6h4.7c1.8,0,3.1-0.9,3.8-2.6c0.1-0.2,0.2-0.4,0.3-0.7c0.1-0.3,0.2-0.5,0.2-0.8c0.1-0.2,0.1-0.5,0.2-0.7
		c0-0.2,0.1-0.4,0.1-0.6c0-0.5-0.1-0.9-0.3-1.3C117.4,54.7,117,54.4,116.6,54.3L116.6,54.3z"/>
	<path d="M215.8,51.9c-0.5-0.5-1.4-0.6-2.5-0.6c-0.5,0-1,0-1.4,0.1c-0.4,0.1-0.8,0.2-1.2,0.3c-0.3,0.1-0.7,0.3-1,0.5
		c-0.3,0.2-0.6,0.5-0.8,0.8c-0.3,0.4-0.5,0.7-0.8,1.2c-0.2,0.5-0.5,1-0.7,1.5c-0.2,0.5-0.4,1.1-0.5,1.7c-0.1,0.5-0.2,1-0.3,1.5v0.3
		c0,0.4,0.1,0.8,0.2,1.2c0.2,0.4,0.5,0.8,0.9,1c0.3,0.2,0.7,0.3,1.1,0.3c0.6,0.1,1.1,0.1,1.7,0.1c0.6,0,1.2,0,1.8-0.1
		c0.4,0,0.8-0.2,1.1-0.3c0.1-0.1,0.2-0.1,0.3-0.2c0.1-0.1,0.1-0.2,0.2-0.3c0.1-0.1,0.1-0.3,0.2-0.4c0-0.2,0.1-0.4,0.2-0.6l0.5-1.6
		h-0.6l0,0.1c-0.1,0.2-0.3,0.3-0.5,0.4c-0.2,0.1-0.4,0.2-0.6,0.3c-0.3,0.1-0.5,0.1-0.8,0.2c-0.4,0-0.7,0-1.1,0c-1,0-1.4-0.1-1.4-0.2
		c-0.2-0.2-0.3-0.4-0.3-0.7c0-0.1,0-0.2,0-0.3c0-0.1,0-0.2,0.1-0.2h0l0.2-0.6h4.2c0.4,0,0.7,0,1.1-0.1c0.2-0.1,0.4-0.2,0.6-0.5
		c0.1-0.2,0.2-0.3,0.2-0.5c0.1-0.2,0.2-0.5,0.2-0.7c0.1-0.2,0.1-0.5,0.2-0.8c0-0.2,0.1-0.4,0.1-0.7
		C216.5,53.1,216.3,52.4,215.8,51.9z M213.9,54.4c0,0.1,0,0.3-0.1,0.4c0,0.1-0.1,0.3-0.1,0.5h-3.1c0.1-0.2,0.2-0.5,0.3-0.7l0,0
		c0.1-0.2,0.3-0.4,0.5-0.6c0.2-0.1,0.4-0.2,0.6-0.3c0.3-0.1,0.5-0.1,0.8-0.1C213.8,53.5,213.9,54,213.9,54.4L213.9,54.4z"/>
	<path d="M194.2,61.1c0-0.2,0.1-0.4,0.1-0.5l2.5-8c0-0.1,0.1-0.2,0.1-0.3c0-0.1,0-0.1,0-0.2v0c0-0.2-0.1-0.5-0.8-0.5h-2.5l-0.1,0.5
		l0.2,0c0.2,0.1,0.2,0.2,0.2,0.2c0,0.1,0,0.1,0,0.2l-2.6,8.3c0,0.1-0.1,0.2-0.1,0.3c0,0.1,0,0.1,0,0.2v0c0,0.2,0.1,0.5,0.8,0.5h2.4
		l0.2-0.5l-0.2-0.1C194.2,61.2,194.2,61.1,194.2,61.1L194.2,61.1z"/>
	<path d="M155.9,51.5c-0.3,0-0.7,0.1-1,0.3c-0.3,0.1-0.6,0.3-0.9,0.5c-0.3,0.2-0.5,0.5-0.8,0.8c-0.3,0.4-0.5,0.7-0.8,1.2
		c-0.2,0.5-0.5,1-0.6,1.5c-0.2,0.5-0.4,1.1-0.5,1.6c-0.1,0.5-0.2,1-0.3,1.5v0.3c0,0.7,0.2,1.4,0.7,1.9c0.3,0.3,0.7,0.5,1.1,0.6
		c0.6,0.1,1.3,0.2,1.9,0.2c0.6,0,1.2,0,1.7-0.1c0.4-0.1,0.7-0.2,1.1-0.3c0.4-0.2,0.6-0.6,0.7-1.1l0.6-2h-0.6l0,0
		c-0.3,0.3-0.7,0.5-1.1,0.6c-0.5,0.1-1,0.2-1.5,0.2c-0.5,0-0.9,0-1.3-0.2c-0.2-0.2-0.3-0.4-0.3-0.7c0-0.3,0.1-0.5,0.2-0.8
		c0.1-0.3,0.2-0.7,0.3-1.1s0.3-0.7,0.4-1.1c0.1-0.3,0.3-0.6,0.4-0.8c0.1-0.2,0.2-0.3,0.3-0.5c0.1-0.1,0.2-0.2,0.3-0.3
		c0.1-0.1,0.3-0.1,0.4-0.1c0.2,0,0.4,0,0.6,0h1.8c0.3,0,0.6-0.1,0.8-0.2c0.2-0.2,0.4-0.4,0.4-0.7l0.5-1.5h-3.3L155.9,51.5z"/>
	<path d="M189.5,61.1c0-0.1,0-0.2,0-0.2c0-0.1,0-0.2,0.1-0.3l3.3-10.7c0-0.1,0-0.1,0-0.2s0-0.1,0-0.2v0c0-0.2-0.1-0.5-0.8-0.5h-2.4
		l-0.2,0.5l0.2,0c0.2,0,0.2,0.1,0.2,0.2v0c0,0,0,0.2-0.1,0.5l-3.3,10.6c0,0.1,0,0.2,0,0.2c0,0.1,0,0.1,0,0.2v0
		c0,0.2,0.1,0.5,0.8,0.5h2.4l0.1-0.5l-0.2,0C189.5,61.2,189.5,61.2,189.5,61.1z"/>
	<path d="M221.1,51.5c-0.6,0-1.2,0.1-1.8,0.3c-0.5,0.2-0.9,0.6-1.1,1c-0.1,0.2-0.3,0.4-0.4,0.6c-0.1,0.2-0.2,0.5-0.3,0.7
		c-0.1,0.3-0.2,0.5-0.2,0.7s-0.1,0.5-0.1,0.6c-0.1,0.9,0.5,1.5,1.5,1.8l1.7,0.5c0.2,0.1,0.4,0.1,0.5,0.2c0.1,0,0.2,0.1,0.3,0.2
		c0,0,0.1,0.1,0.1,0.1v0.2c0,0.1,0,0.3-0.1,0.4c0,0.1-0.1,0.2-0.2,0.3c-0.1,0.1-0.2,0.2-0.3,0.2c-0.2,0.1-0.5,0.1-0.7,0.1H218
		c-0.3,0-0.7,0-1-0.1c-0.2-0.1-0.3-0.2-0.3-0.4l0-0.2h-0.5l-0.6,2c-0.1,0.2-0.1,0.3-0.1,0.5v0c0,0.2,0.1,0.6,0.8,0.6h4.2
		c0.5,0,1-0.1,1.4-0.3c0.4-0.2,0.8-0.5,1.1-0.8c0.2-0.2,0.3-0.5,0.5-0.7c0.2-0.3,0.3-0.6,0.4-0.9c0.2-0.6,0.4-1.2,0.5-1.8
		c0.1-0.4-0.1-0.9-0.3-1.2c-0.4-0.4-0.8-0.6-1.4-0.7l-1.8-0.5c-0.3-0.1-0.4-0.2-0.4-0.2c0-0.1,0-0.1,0-0.2c0-0.1,0-0.2,0.1-0.3
		c0-0.1,0.1-0.2,0.2-0.3c0.1-0.1,0.2-0.1,0.4-0.2c0.3,0,0.6-0.1,0.9,0h1.8c0.3,0,0.6-0.1,0.8-0.2c0.2-0.2,0.4-0.4,0.4-0.7l0.5-1.4
		H221.1z"/>
	<path d="M204.6,60.5l2-6.2c0.1-0.3,0.2-0.6,0.2-0.8c0-0.2,0.1-0.4,0.1-0.6c0.1-0.5-0.2-1-0.6-1.2c-0.3-0.2-0.5-0.3-0.8-0.3
		c-0.4-0.1-0.9-0.1-1.4-0.1c-0.3,0-0.6,0-0.9,0c-0.2,0-0.4,0-0.6,0.1c-0.2,0.1-0.3,0.2-0.5,0.3c-0.1,0.1-0.3,0.3-0.4,0.4
		c0,0,0-0.1,0-0.2v0c0-0.2-0.1-0.5-0.8-0.5h-2.5l-0.2,0.5l0.2,0.1c0.2,0.1,0.2,0.2,0.2,0.2c0,0.1,0,0.1,0,0.2l-0.1,0.2
		c0,0,0,0.1,0,0.1l-2.4,8c0,0.1-0.1,0.2-0.1,0.3c0,0.1,0,0.1,0,0.2v0c0,0.2,0.1,0.5,0.8,0.5h2.5l0.2-0.5l-0.2-0.1
		c-0.2-0.1-0.2-0.2-0.2-0.2c0,0,0-0.2,0.1-0.5l1.7-5.5c0.1-0.2,0.1-0.4,0.3-0.6c0.1-0.1,0.2-0.3,0.3-0.4c0.1-0.1,0.3-0.2,0.4-0.2
		c0.2,0,0.4-0.1,0.6-0.1c0.7,0,1,0.2,1,0.5v0c0,0.1,0,0.2,0,0.2c0,0.1,0,0.2-0.1,0.3l-1.9,6c0,0.1-0.1,0.2-0.1,0.3
		c0,0.1,0,0.1,0,0.2v0c0,0.2,0.1,0.5,0.8,0.5h2.4l0.2-0.5l-0.2-0.1c-0.2-0.1-0.2-0.2-0.2-0.2C204.4,61,204.4,60.9,204.6,60.5
		L204.6,60.5z"/>
	<path d="M174,49.8c0-0.2,0-0.5-0.2-0.7c-0.2-0.1-0.4-0.2-0.6-0.2h-3.5l-0.2,0.5l0.2,0.1c0.1,0,0.1,0.1,0.2,0.1v0.1
		c0,0,0,0.1-0.2,0.3l-7,10.5c-0.1,0.2-0.3,0.4-0.3,0.6v0c0,0.2,0.1,0.6,0.7,0.6h2.7l0.2-0.6l-0.2,0c-0.1,0-0.3-0.1-0.3-0.2
		c0-0.1,0.1-0.2,0.2-0.3l1.3-2h3.6l-0.1,2.3c0,0.2,0,0.4,0.1,0.6c0.1,0.2,0.4,0.2,0.6,0.2h2.7l0.1-0.5l-0.2,0
		c-0.1,0-0.1-0.1-0.2-0.1c0-0.1,0-0.2,0-0.3v-0.1L174,49.8z M170.7,56.5h-2.3l2.5-4L170.7,56.5z"/>
	<path d="M177.6,61.1c0-0.2,0.1-0.4,0.1-0.5l2.5-8c0-0.1,0.1-0.2,0.1-0.3c0-0.1,0-0.1,0-0.2v0c0-0.2-0.1-0.5-0.8-0.5h-2.5L177,52
		l0.2,0c0.2,0.1,0.2,0.2,0.2,0.2c0,0.1,0,0.1,0,0.2l-2.6,8.4c0,0.1-0.1,0.2-0.1,0.3c0,0.1,0,0.1,0,0.2v0c0,0.2,0.1,0.5,0.8,0.5h2.4
		l0.2-0.5l-0.2-0.1C177.6,61.2,177.6,61.1,177.6,61.1z"/>
	<path d="M187.7,53.6c0.2-0.2,0.4-0.4,0.5-0.6l0.5-1.5h-2.5c-0.1,0-0.2,0-0.3,0.1c-0.1,0-0.2,0.1-0.2,0.2c-0.1,0.1-0.1,0.2-0.2,0.3
		l-0.2,0.3c0-0.1,0-0.1,0-0.2v0c0-0.2-0.1-0.5-0.8-0.5H182l-0.2,0.5l0.2,0.1c0.2,0.1,0.2,0.2,0.2,0.2c0,0.1,0,0.1,0,0.2l-2.6,8.3
		c0,0.1-0.1,0.2-0.1,0.3c0,0.1,0,0.1,0,0.2v0c0,0.2,0.1,0.5,0.8,0.5h2.5l0.1-0.5l-0.2,0c-0.2-0.1-0.2-0.2-0.2-0.2v0
		c0,0,0-0.2,0.1-0.5l1.7-5.3c0.1-0.2,0.2-0.5,0.3-0.7c0.1-0.2,0.2-0.3,0.3-0.4c0.1-0.1,0.3-0.1,0.4-0.2c0.2,0,0.4-0.1,0.6-0.1h1
		C187.1,53.8,187.4,53.8,187.7,53.6L187.7,53.6z"/>
</g>
</svg>
