<?xml version="1.0" encoding="utf-8"?>
<!-- Generator: Adobe Illustrator 25.4.1, SVG Export Plug-In . SVG Version: 6.00 Build 0)  -->
<svg version="1.1" id="Layer_1" xmlns="http://www.w3.org/2000/svg" xmlns:xlink="http://www.w3.org/1999/xlink" x="0px" y="0px"
	 viewBox="0 0 89.22 80" style="enable-background:new 0 0 89.22 80;" xml:space="preserve">
<style type="text/css">
	.st0{fill:#1E6D21;}
	.st1{fill:#FFFFFF;}
	.st2{fill:#F4AA00;}
</style>
<g id="g1248" transform="translate(172.9158,590.7075)">
</g>
<g id="g1252" transform="translate(203.0896,564.0146)">
</g>
<g id="g1256" transform="translate(202.1028,559.5876)">
</g>
<g id="g1260" transform="translate(477.4399,437.4863)">
</g>
<g id="g1264" transform="translate(507.6138,410.7935)">
</g>
<g id="g1268" transform="translate(506.627,406.3665)">
</g>
<g id="g1272" transform="translate(376.8486,590.7075)">
</g>
<g id="g1276" transform="translate(407.0225,564.0146)">
</g>
<g id="g1280" transform="translate(406.0356,559.5876)">
</g>
<path id="path2995" class="st0" d="M58.43,40.52c0,16.27-13.19,29.45-29.45,29.45S-0.48,56.79-0.48,40.52s13.19-29.45,29.45-29.45
	S58.43,24.25,58.43,40.52L58.43,40.52z"/>
<path id="path3786" class="st1" d="M27.83,21.3c0,2.76-2.27,5-5.07,5s-5.07-2.24-5.07-5s2.27-5,5.07-5S27.83,18.53,27.83,21.3z"/>
<path id="path3788" class="st1" d="M16.51,25.88c0,2.35-1.76,4.26-3.92,4.26s-3.92-1.91-3.92-4.26s1.76-4.26,3.92-4.26
	S16.51,23.52,16.51,25.88z"/>
<path id="path3790" class="st1" d="M9.25,33.83c0,1.69-1.26,3.05-2.81,3.05s-2.81-1.37-2.81-3.05c0-1.69,1.26-3.05,2.81-3.05
	S9.25,32.14,9.25,33.83z"/>
<path id="path3792" class="st1" d="M7.13,40.58c0,1.35-1.01,2.45-2.26,2.45s-2.26-1.1-2.26-2.45s1.01-2.45,2.26-2.45
	S7.13,39.23,7.13,40.58z"/>
<path id="path3794" class="st1" d="M6.69,46c0,1.02-0.76,1.85-1.7,1.85s-1.7-0.83-1.7-1.85s0.76-1.85,1.7-1.85S6.69,44.98,6.69,46z"
	/>
<path id="path3796" class="st1" d="M22.29,28.71C14.16,29.03,8.9,33.94,7.82,43.89c0.98,9.25,4.69,8.84,7.59,8.92
	c5.27,0.19,9.53-3.82,9.25-6.62c0.04-1.95-1.72-6.61-1.37-10.43C23.23,33.23,25.65,30.65,22.29,28.71L22.29,28.71z"/>
<path id="path3798" class="st1" d="M27.35,46.42c-1.24,3.03-3.5,7.1-6.15,7.59c-0.98,0.63-1.56,1.52-1.75,2.23
	c-1,4.39,0.18,6.18,3.28,7.62c3.32,0.89,11.08-5,11.33-8.68c0.29-2.63,0.03-5.23-2.02-8.04c-0.93-1.52-3.58-2.45-4.79-0.63"/>
<path id="path3828" class="st2" d="M33.54,30.13c2.7,0.35,7.85-2.57,6.85,4.78l-0.58,28.48L64.63,28.2
	c4.36-9.87,11.39-9.45,17.35-12.29c5-2.71,6.25-9.18,7.23-15.91c-2.96,3.81-2.73,9.3-8.68,10.85c-16.69,2.44-20.64,12.49-24.83,18.8
	l-8.12,11.94L46.31,29.4C44.55,23.43,37.29,25.96,33.54,30.13L33.54,30.13z"/>
<path id="path3830" class="st2" d="M27.8,77.09c3.91,0.34,7.79,0.65,9.03-2.56l25.73-39.54c2.84-4.49,7.08-12.24,9.79-13.08
	c0.09-0.18,2.28-1.34,3.81-1.75c0.1-0.02,3.58-1.12,3.58-1.12c0.09,0.05,5.09-1.95,8.72-6.38c-0.63,4.95-1.14,7.96-8.35,11.54
	l-4.47,2.94C64.32,36.07,54.79,58.11,43.99,73l-5.45,6.14C30.69,81.41,30.09,78.66,27.8,77.09L27.8,77.09z"/>
</svg>
