<?xml version="1.0" encoding="utf-8"?>
<!-- Generator: Adobe Illustrator 25.4.1, SVG Export Plug-In . SVG Version: 6.00 Build 0)  -->
<svg version="1.1" id="Layer_1" xmlns="http://www.w3.org/2000/svg" xmlns:xlink="http://www.w3.org/1999/xlink" x="0px" y="0px"
	 viewBox="0 0 257.51 80" style="enable-background:new 0 0 257.51 80;" xml:space="preserve">
<style type="text/css">
	.st0{fill:#1E6D21;}
	.st1{fill:#FFFFFF;}
	.st2{fill:#F4AA00;}
	.st3{font-family:'ArialMT';}
	.st4{font-size:8.654px;}
	.st5{fill-rule:evenodd;clip-rule:evenodd;fill:#1E6D21;}
</style>
<g>
	<g id="g1248" transform="translate(172.9158,590.7075)">
	</g>
	<g id="g1252" transform="translate(203.0896,564.0146)">
	</g>
	<g id="g1256" transform="translate(202.1028,559.5876)">
	</g>
	<g id="g1260" transform="translate(477.4399,437.4863)">
	</g>
	<g id="g1264" transform="translate(507.6138,410.7935)">
	</g>
	<g id="g1268" transform="translate(506.627,406.3665)">
	</g>
	<g id="g1272" transform="translate(376.8486,590.7075)">
	</g>
	<g id="g1276" transform="translate(407.0225,564.0146)">
	</g>
	<g id="g1280" transform="translate(406.0356,559.5876)">
	</g>
	<g id="g3092" transform="matrix(1.0703301,0,0,1.0703301,-160.50762,-126.51062)">
		<path id="path2995" class="st0" d="M204.55,156.06c0,15.2-12.32,27.52-27.52,27.52c-15.2,0-27.52-12.32-27.52-27.52
			s12.32-27.52,27.52-27.52C192.23,128.54,204.55,140.86,204.55,156.06L204.55,156.06z"/>
		<path id="path3786" class="st1" d="M175.97,138.09c0,2.58-2.12,4.67-4.73,4.67c-2.61,0-4.73-2.09-4.73-4.67s2.12-4.67,4.73-4.67
			C173.85,133.42,175.97,135.51,175.97,138.09z"/>
		<path id="path3788" class="st1" d="M165.38,142.37c0,2.2-1.64,3.98-3.66,3.98c-2.02,0-3.66-1.78-3.66-3.98
			c0-2.2,1.64-3.98,3.66-3.98C163.74,138.4,165.38,140.18,165.38,142.37z"/>
		<path id="path3790" class="st1" d="M158.6,149.8c0,1.58-1.18,2.85-2.63,2.85c-1.45,0-2.63-1.28-2.63-2.85
			c0-1.57,1.18-2.85,2.63-2.85C157.43,146.95,158.6,148.23,158.6,149.8z"/>
		<path id="path3792" class="st1" d="M156.62,156.11c0,1.26-0.94,2.29-2.11,2.29s-2.11-1.02-2.11-2.29c0-1.26,0.94-2.29,2.11-2.29
			S156.62,154.85,156.62,156.11z"/>
		<path id="path3794" class="st1" d="M156.21,161.18c0,0.95-0.71,1.73-1.59,1.73c-0.88,0-1.59-0.77-1.59-1.73s0.71-1.73,1.59-1.73
			C155.5,159.45,156.21,160.22,156.21,161.18z"/>
		<path id="path3796" class="st1" d="M170.78,145.02c-7.59,0.3-12.5,4.89-13.51,14.19c0.92,8.64,4.38,8.26,7.09,8.33
			c4.92,0.17,8.9-3.57,8.64-6.18c0.04-1.82-1.6-6.17-1.28-9.74C171.66,149.25,173.92,146.83,170.78,145.02L170.78,145.02z"/>
		<path id="path3798" class="st1" d="M175.51,161.57c-1.16,2.83-3.27,6.63-5.74,7.09c-0.92,0.59-1.45,1.42-1.63,2.08
			c-0.94,4.1,0.17,5.77,3.07,7.12c3.1,0.83,10.35-4.67,10.58-8.11c0.27-2.46,0.03-4.89-1.89-7.52c-0.87-1.42-3.34-2.29-4.48-0.59"/>
		<path id="path3828" class="st2" d="M181.3,146.35c2.53,0.33,7.33-2.4,6.4,4.47l-0.54,26.61l23.19-32.88
			c4.07-9.22,10.65-8.83,16.21-11.48c4.67-2.53,5.84-8.58,6.76-14.86c-2.76,3.56-2.55,8.69-8.11,10.13
			c-15.59,2.28-19.29,11.67-23.19,17.56l-7.59,11.15l-1.19-11.38C191.59,140.09,184.8,142.45,181.3,146.35L181.3,146.35z"/>
		<path id="path3830" class="st2" d="M175.94,190.22c3.65,0.32,7.28,0.61,8.44-2.39l24.04-36.94c2.65-4.2,6.62-11.43,9.14-12.22
			c0.08-0.17,2.13-1.25,3.56-1.64c0.09-0.02,3.35-1.04,3.35-1.04c0.08,0.04,4.75-1.82,8.15-5.96c-0.59,4.62-1.06,7.44-7.8,10.78
			l-4.18,2.75c-10.59,8.34-19.49,28.94-29.58,42.84l-5.1,5.73C178.64,194.26,178.08,191.69,175.94,190.22L175.94,190.22z"/>
		<g id="_x31_" transform="matrix(1.2660451,0,0,1.2660451,314.30251,200.43181)">
			<text id="_x32_" transform="matrix(0.738 0 0 0.738 -73.3238 -30.1397)" class="st0 st3 st4"> </text>
			<path id="_x33_" class="st5" d="M-60.89-35.29c2.06,0,4.12,0,6.18,0c0,0.16,0,0.33,0,0.49c-0.11,0-0.23,0-0.34,0
				c-0.23,0-0.57,0.1-0.99,0.31c-0.43,0.2-0.84,0.49-1.19,0.88c-0.35,0.39-0.81,1.01-1.32,1.88c-1.4,2.32-2.87,4.61-4.27,6.93
				c0,1.52,0,3.05,0,4.57c0,1.12,0.12,1.81,0.36,2.1c0.33,0.38,0.85,0.56,1.57,0.56c0.19,0,0.39,0,0.58,0c0,0.16,0,0.33,0,0.5
				c-2.51,0-5.02,0-7.52,0c0-0.16,0-0.33,0-0.5c0.2,0,0.42,0,0.62,0c0.74,0,1.28-0.23,1.59-0.7c0.2-0.29,0.29-0.94,0.29-1.96
				c0-1.44,0-2.88,0-4.31c-1.6-2.56-3.27-5.08-4.86-7.64c-0.56-0.91-0.97-1.45-1.16-1.68c-0.2-0.23-0.64-0.49-1.28-0.81
				c-0.17-0.1-0.43-0.13-0.75-0.13c0-0.16,0-0.33,0-0.49c2.53,0,5.05,0,7.58,0c0,0.16,0,0.33,0,0.49c-0.13,0-0.26,0-0.39,0
				c-0.41,0-0.79,0.09-1.12,0.29c-0.35,0.21-0.52,0.5-0.52,0.89c0,0.33,0.27,0.9,0.8,1.75c1.21,1.97,2.48,3.9,3.7,5.87
				c1.14-1.88,2.33-3.73,3.48-5.62c0.52-0.85,0.79-1.47,0.79-1.88c0-0.26-0.07-0.47-0.18-0.67c-0.13-0.2-0.32-0.35-0.55-0.47
				c-0.23-0.11-0.59-0.16-1.06-0.16C-60.89-34.96-60.89-35.12-60.89-35.29"/>
			<path id="_x34_" class="st5" d="M-54.14-24.74c-0.01,1.83,0.43,3.26,1.29,4.3c0.87,1.04,1.9,1.56,3.07,1.56
				c0.79,0,1.47-0.22,2.05-0.67c0.57-0.45,1.06-1.19,1.45-2.27c0.13,0.09,0.27,0.18,0.41,0.27c-0.18,1.23-0.73,2.33-1.6,3.35
				c-0.86,1.02-1.99,1.52-3.31,1.52c-1.44,0-2.68-0.57-3.68-1.73c-1.02-1.15-1.54-2.69-1.54-4.64c0-2.11,0.53-3.74,1.58-4.94
				c1.03-1.18,2.36-1.76,3.94-1.76c1.35,0,2.46,0.45,3.31,1.36c0.85,0.92,1.3,2.14,1.3,3.66C-48.63-24.74-51.38-24.74-54.14-24.74z
				 M-54.14-25.52c1.85,0,3.7,0,5.54,0c-0.04-0.79-0.13-1.34-0.27-1.66c-0.22-0.5-0.54-0.9-0.97-1.18
				c-0.43-0.29-0.89-0.43-1.36-0.43c-0.72,0-1.38,0.28-1.93,0.86C-53.71-27.35-54.05-26.55-54.14-25.52z"/>
			<path id="_x35_" class="st5" d="M-40.8-33.42c0,1.35,0,2.7,0,4.04c0.93,0,1.86,0,2.79,0c0,0.32,0,0.63,0,0.94
				c-0.93,0-1.86,0-2.79,0c0,2.66,0,5.33,0,7.98c0,0.8,0.12,1.33,0.34,1.62c0.22,0.28,0.5,0.42,0.85,0.42
				c0.29,0,0.56-0.09,0.84-0.28c0.27-0.18,0.48-0.44,0.62-0.81c0.17,0,0.34,0,0.51,0c-0.29,0.88-0.73,1.53-1.29,1.98
				c-0.56,0.45-1.13,0.67-1.72,0.67c-0.4,0-0.8-0.1-1.18-0.35c-0.38-0.23-0.67-0.55-0.85-0.98c-0.18-0.42-0.27-1.08-0.27-1.97
				c0-2.76,0-5.52,0-8.28c-0.63,0-1.26,0-1.9,0c0-0.15,0-0.29,0-0.44c0.48-0.2,0.97-0.53,1.48-1.01c0.49-0.48,0.95-1.02,1.33-1.66
				c0.19-0.34,0.49-0.97,0.83-1.87C-41.08-33.42-40.94-33.42-40.8-33.42"/>
			<path id="_x36_" class="st5" d="M-33.8-36.18c0.36,0,0.68,0.13,0.94,0.39c0.24,0.27,0.38,0.59,0.38,0.97
				c0,0.38-0.13,0.7-0.38,0.97c-0.26,0.27-0.58,0.4-0.94,0.4s-0.68-0.13-0.94-0.4c-0.26-0.27-0.39-0.59-0.39-0.97
				c0-0.38,0.13-0.7,0.39-0.97C-34.49-36.05-34.18-36.18-33.8-36.18z M-32.72-29.74c0,3.3,0,6.6,0,9.9c0,0.77,0.06,1.28,0.17,1.53
				c0.1,0.26,0.26,0.46,0.48,0.58c0.21,0.12,0.6,0.19,1.17,0.19c0,0.16,0,0.32,0,0.48c-1.94,0-3.88,0-5.82,0c0-0.16,0-0.32,0-0.48
				c0.59,0,0.98-0.06,1.18-0.18c0.2-0.12,0.37-0.31,0.49-0.58c0.12-0.27,0.17-0.78,0.17-1.55c0-1.58,0-3.16,0-4.75
				c0-1.33-0.04-2.2-0.12-2.59c-0.07-0.29-0.16-0.49-0.29-0.61c-0.13-0.11-0.32-0.16-0.54-0.16c-0.25,0-0.53,0.07-0.89,0.2
				c-0.06-0.16-0.12-0.32-0.18-0.48c1.2-0.51,2.41-1,3.61-1.51C-33.1-29.74-32.91-29.74-32.72-29.74L-32.72-29.74z"/>
			<path id="_x37_" class="st5" d="M-12.79-23.17c-2.29,0-4.57,0-6.86,0c-0.39,0.96-0.81,1.92-1.2,2.87
				c-0.3,0.72-0.44,1.24-0.44,1.59c0,0.28,0.13,0.52,0.39,0.72c0.25,0.22,0.81,0.35,1.66,0.42c0,0.16,0,0.33,0,0.5
				c-1.86,0-3.72,0-5.58,0c0-0.16,0-0.33,0-0.5c0.74-0.13,1.21-0.31,1.44-0.52c0.44-0.43,0.95-1.3,1.48-2.62
				c2.04-5.01,4.19-9.99,6.23-15.01c0.16,0,0.31,0,0.46,0c2.02,5.07,4.15,10.09,6.17,15.17c0.49,1.23,0.96,2,1.36,2.36
				c0.4,0.37,0.97,0.58,1.69,0.62c0,0.16,0,0.33,0,0.5c-2.33,0-4.66,0-6.99,0c0-0.16,0-0.33,0-0.5c0.71-0.04,1.19-0.16,1.44-0.36
				c0.25-0.2,0.36-0.46,0.36-0.75c0-0.39-0.17-1.02-0.52-1.87C-12.07-21.42-12.44-22.29-12.79-23.17L-12.79-23.17z M-13.16-24.16
				c-0.98-2.47-2.02-4.91-3.01-7.37c-1.01,2.46-2.07,4.9-3.08,7.37C-17.21-24.16-15.19-24.16-13.16-24.16z"/>
			<path id="_x38_" class="st5" d="M-1.83-36.18c0.37,0,0.69,0.13,0.95,0.39c0.24,0.27,0.38,0.59,0.38,0.97
				c0,0.38-0.13,0.7-0.38,0.97c-0.26,0.27-0.58,0.4-0.95,0.4c-0.36,0-0.68-0.13-0.94-0.4c-0.26-0.27-0.39-0.59-0.39-0.97
				s0.13-0.7,0.39-0.97C-2.52-36.05-2.21-36.18-1.83-36.18z M-0.74-29.74c0,3.3,0,6.6,0,9.9c0,0.77,0.05,1.28,0.17,1.53
				c0.1,0.26,0.26,0.46,0.48,0.58c0.21,0.12,0.6,0.19,1.16,0.19c0,0.16,0,0.32,0,0.48c-1.94,0-3.87,0-5.81,0c0-0.16,0-0.32,0-0.48
				c0.59,0,0.98-0.06,1.18-0.18c0.2-0.12,0.37-0.31,0.48-0.58c0.12-0.27,0.17-0.78,0.17-1.55c0-1.58,0-3.16,0-4.75
				c0-1.33-0.04-2.2-0.12-2.59c-0.07-0.29-0.16-0.49-0.29-0.61c-0.13-0.11-0.31-0.16-0.53-0.16c-0.25,0-0.54,0.07-0.89,0.2
				c-0.06-0.16-0.12-0.32-0.18-0.48c1.2-0.51,2.41-1,3.61-1.51C-1.13-29.74-0.94-29.74-0.74-29.74L-0.74-29.74z"/>
			<path id="_x39_" class="st5" d="M6.06-29.74c0,0.93,0,1.85,0,2.77c0.99-1.85,2.02-2.77,3.08-2.77c0.49,0,0.88,0.15,1.19,0.45
				c0.31,0.31,0.47,0.66,0.47,1.05c0,0.35-0.12,0.64-0.34,0.88C10.24-27.11,9.97-27,9.65-27c-0.3,0-0.65-0.16-1.02-0.47
				c-0.38-0.32-0.67-0.46-0.85-0.46c-0.16,0-0.33,0.1-0.51,0.27c-0.39,0.37-0.8,0.97-1.21,1.82c0,1.97,0,3.93,0,5.9
				c0,0.69,0.08,1.2,0.25,1.55c0.11,0.24,0.31,0.44,0.6,0.61c0.29,0.16,0.71,0.24,1.24,0.24c0,0.16,0,0.32,0,0.48
				c-2.04,0-4.08,0-6.13,0c0-0.16,0-0.32,0-0.48c0.62,0,1.06-0.1,1.36-0.3c0.22-0.15,0.37-0.38,0.46-0.68
				c0.04-0.15,0.07-0.59,0.07-1.3c0-1.59,0-3.18,0-4.77c0-1.44-0.03-2.28-0.08-2.57c-0.07-0.27-0.17-0.47-0.32-0.59
				c-0.15-0.12-0.35-0.19-0.57-0.19c-0.27,0-0.58,0.07-0.92,0.2c-0.04-0.16-0.09-0.32-0.13-0.48c1.2-0.51,2.42-1,3.62-1.51
				C5.69-29.74,5.88-29.74,6.06-29.74"/>
			<path id="_x31_0" class="st5" d="M15.59-36.18c0,5.44,0,10.89,0,16.33c0,0.77,0.05,1.28,0.17,1.53c0.1,0.26,0.27,0.44,0.49,0.57
				c0.22,0.13,0.66,0.2,1.27,0.2c0,0.16,0,0.32,0,0.48c-1.96,0-3.91,0-5.87,0c0-0.16,0-0.32,0-0.48c0.55,0,0.93-0.06,1.12-0.18
				c0.2-0.12,0.36-0.31,0.47-0.58c0.11-0.27,0.17-0.78,0.17-1.55c0-3.73,0-7.46,0-11.18c0-1.39-0.03-2.25-0.09-2.57
				c-0.07-0.31-0.16-0.52-0.29-0.64c-0.14-0.13-0.32-0.18-0.52-0.18c-0.22,0-0.51,0.07-0.86,0.22c-0.07-0.16-0.15-0.31-0.22-0.47
				c1.18-0.51,2.38-0.99,3.57-1.5C15.19-36.18,15.39-36.18,15.59-36.18"/>
			<path id="_x31_1" class="st5" d="M21.95-36.18c0.37,0,0.69,0.13,0.94,0.39c0.25,0.27,0.38,0.59,0.38,0.97
				c0,0.38-0.13,0.7-0.38,0.97c-0.26,0.27-0.57,0.4-0.94,0.4c-0.36,0-0.68-0.13-0.94-0.4c-0.26-0.27-0.39-0.59-0.39-0.97
				s0.13-0.7,0.39-0.97C21.25-36.05,21.57-36.18,21.95-36.18z M23.03-29.74c0,3.3,0,6.6,0,9.9c0,0.77,0.06,1.28,0.17,1.53
				c0.1,0.26,0.26,0.46,0.49,0.58c0.21,0.12,0.6,0.19,1.16,0.19c0,0.16,0,0.32,0,0.48c-1.94,0-3.87,0-5.81,0c0-0.16,0-0.32,0-0.48
				c0.59,0,0.98-0.06,1.18-0.18c0.2-0.12,0.36-0.31,0.48-0.58c0.12-0.27,0.17-0.78,0.17-1.55c0-1.58,0-3.16,0-4.75
				c0-1.33-0.04-2.2-0.12-2.59c-0.07-0.29-0.16-0.49-0.29-0.61c-0.13-0.11-0.31-0.16-0.53-0.16c-0.25,0-0.54,0.07-0.89,0.2
				c-0.06-0.16-0.13-0.32-0.18-0.48c1.2-0.51,2.4-1,3.61-1.51C22.65-29.74,22.84-29.74,23.03-29.74z"/>
			<path id="_x31_2" class="st5" d="M29.82-27.13c1.38-1.75,2.74-2.61,4.01-2.61c0.65,0,1.21,0.16,1.68,0.5s0.85,0.9,1.12,1.67
				c0.19,0.54,0.29,1.36,0.29,2.47c0,1.76,0,3.51,0,5.26c0,0.78,0.07,1.3,0.18,1.59c0.09,0.23,0.25,0.4,0.47,0.52
				c0.21,0.12,0.6,0.19,1.18,0.19c0,0.16,0,0.32,0,0.48c-1.97,0-3.95,0-5.92,0c0-0.16,0-0.32,0-0.48c0.08,0,0.16,0,0.25,0
				c0.56,0,0.95-0.1,1.18-0.27c0.22-0.17,0.37-0.43,0.46-0.76c0.04-0.14,0.05-0.55,0.05-1.27c0-1.68,0-3.36,0-5.04
				c0-1.11-0.14-1.93-0.42-2.44c-0.28-0.5-0.77-0.75-1.44-0.75c-1.03,0-2.08,0.57-3.1,1.75c0,2.16,0,4.33,0,6.49
				c0,0.83,0.05,1.34,0.14,1.55c0.12,0.26,0.29,0.44,0.51,0.56c0.21,0.12,0.64,0.19,1.29,0.19c0,0.16,0,0.32,0,0.48
				c-1.97,0-3.95,0-5.92,0c0-0.16,0-0.32,0-0.48c0.09,0,0.17,0,0.26,0c0.61,0,1.02-0.16,1.24-0.49c0.21-0.31,0.31-0.91,0.31-1.82
				c0-1.53,0-3.05,0-4.57c0-1.48-0.03-2.38-0.09-2.7c-0.07-0.32-0.17-0.53-0.3-0.66c-0.14-0.12-0.33-0.17-0.55-0.17
				c-0.25,0-0.53,0.07-0.87,0.2c-0.07-0.16-0.13-0.32-0.2-0.48c1.2-0.51,2.41-1,3.61-1.51c0.19,0,0.37,0,0.56,0
				C29.82-28.87,29.82-28,29.82-27.13"/>
			<path id="_x31_3" class="st5" d="M41.72-24.74c-0.01,1.83,0.43,3.26,1.29,4.3c0.87,1.04,1.9,1.56,3.07,1.56
				c0.79,0,1.47-0.22,2.05-0.67c0.57-0.45,1.07-1.19,1.45-2.27c0.13,0.09,0.27,0.18,0.41,0.27c-0.18,1.23-0.73,2.33-1.6,3.35
				c-0.86,1.02-1.99,1.52-3.31,1.52c-1.44,0-2.68-0.57-3.68-1.73c-1.02-1.15-1.54-2.69-1.54-4.64c0-2.11,0.53-3.74,1.58-4.94
				c1.03-1.18,2.36-1.76,3.95-1.76c1.34,0,2.45,0.45,3.31,1.36c0.85,0.92,1.29,2.14,1.29,3.66C47.24-24.74,44.48-24.74,41.72-24.74
				L41.72-24.74z M41.72-25.52c1.85,0,3.7,0,5.54,0c-0.04-0.79-0.13-1.34-0.27-1.66c-0.22-0.5-0.54-0.9-0.97-1.18
				c-0.43-0.29-0.89-0.43-1.36-0.43c-0.72,0-1.38,0.28-1.93,0.86C42.16-27.35,41.82-26.55,41.72-25.52L41.72-25.52z"/>
			<path id="_x31_4" class="st5" d="M59.33-29.74c0,1.4,0,2.8,0,4.2c-0.15,0-0.29,0-0.43,0c-0.33-1.32-0.76-2.21-1.27-2.69
				c-0.52-0.48-1.19-0.71-1.98-0.71c-0.62,0-1.1,0.16-1.48,0.49c-0.37,0.34-0.56,0.7-0.56,1.1c0,0.5,0.15,0.93,0.42,1.29
				c0.27,0.37,0.83,0.75,1.65,1.17c0.63,0.32,1.27,0.63,1.9,0.95c1.76,0.9,2.66,2.06,2.66,3.51c0,1.12-0.41,2.01-1.23,2.7
				c-0.82,0.69-1.75,1.04-2.77,1.04c-0.73,0-1.57-0.13-2.51-0.4c-0.29-0.1-0.52-0.13-0.71-0.13c-0.2,0-0.36,0.12-0.47,0.35
				c-0.14,0-0.29,0-0.43,0c0-1.47,0-2.93,0-4.4c0.15,0,0.29,0,0.43,0c0.24,1.25,0.71,2.2,1.4,2.84s1.47,0.95,2.31,0.95
				c0.6,0,1.1-0.19,1.48-0.55c0.38-0.37,0.56-0.79,0.56-1.3c0-0.62-0.21-1.14-0.63-1.56c-0.43-0.42-1.27-0.94-2.53-1.6
				c-1.26-0.65-2.1-1.22-2.48-1.75c-0.39-0.52-0.59-1.16-0.59-1.94c0-1.01,0.35-1.85,1.02-2.54c0.66-0.69,1.54-1.02,2.62-1.02
				c0.47,0,1.05,0.1,1.71,0.31c0.45,0.13,0.75,0.2,0.89,0.2s0.25-0.03,0.33-0.09c0.08-0.07,0.17-0.2,0.28-0.42
				C59.04-29.74,59.18-29.74,59.33-29.74"/>
		</g>
	</g>
</g>
</svg>
