<?xml version="1.0" encoding="utf-8"?>
<!-- Generator: Adobe Illustrator 25.4.1, SVG Export Plug-In . SVG Version: 6.00 Build 0)  -->
<svg version="1.1" id="Layer_1" xmlns="http://www.w3.org/2000/svg" xmlns:xlink="http://www.w3.org/1999/xlink" x="0px" y="0px"
	 viewBox="0 0 93.6 80" style="enable-background:new 0 0 93.6 80;" xml:space="preserve">
<style type="text/css">
	.st0{fill-rule:evenodd;clip-rule:evenodd;fill:#7DD3D9;}
	.st1{fill-rule:evenodd;clip-rule:evenodd;fill:#95BEE2;}
	.st2{fill-rule:evenodd;clip-rule:evenodd;fill:#134BB7;}
</style>
<g id="g9159" transform="matrix(3.6190714,0,0,3.6190714,-20.278513,-22.494147)">
	<g id="g8039" transform="matrix(0,0.20461111,0.35277777,0,-94.44866,233.68405)">
		<g id="g8041" transform="translate(-1099.26,318.3735)">
			<path id="path8043" class="st0" d="M8.9,34.1C12,8.8,29.1,8.3,34.9-3c0.3-0.7,1.1-1.6,1.2-2.3c0.1-0.5,0.1-1,0.3-1.5l-23.7,11
				c-15.3,8.3-25,16.2-25.2,23.8v10.5L8.9,34.1z"/>
		</g>
	</g>
	<g id="g8045" transform="matrix(0,0.20461111,0.35277777,0,-94.44866,233.68405)">
		<g id="g8047" transform="translate(-1081.6841,296.5311)">
			<path id="path8049" class="st1" d="M27.5,11.1C28.6,22.9,13.8,27.8,4.8,41c-3.6,5.2-4.7,10.5-5,13.4l37.1-7.6
				C38,30.4,49.2,31.4,53.4,23.2c1.4-2.8,0.4-5.9-0.2-11.1C52.1,2.4,78-6,78-12.4L27.5,11.1z"/>
		</g>
	</g>
	<g id="g8051" transform="matrix(0,0.20461111,0.35277777,0,-94.44866,233.68405)">
		<g id="g8053" transform="translate(-1061.7321,292.8078)">
			<path id="path8055" class="st2" d="M48.5,7.2c-16.7,10.2-1.3,17-8.9,23.8c-7.5,6.9-13.1,7.7-13.4,14.4c-0.1,1.6,0,2.7,0.1,3.3
				l31.7-6.4V-0.3C55.1,2.3,52.2,4.9,48.5,7.2"/>
		</g>
	</g>
</g>
</svg>
