<?xml version="1.0" encoding="utf-8"?>
<!-- Generator: Adobe Illustrator 25.4.1, SVG Export Plug-In . SVG Version: 6.00 Build 0)  -->
<svg version="1.1" id="Layer_1" xmlns="http://www.w3.org/2000/svg" xmlns:xlink="http://www.w3.org/1999/xlink" x="0px" y="0px"
	 viewBox="0 0 183.9 80" style="enable-background:new 0 0 183.9 80;" xml:space="preserve">
<style type="text/css">
	.st0{fill-rule:evenodd;clip-rule:evenodd;fill:#95BEE2;}
	.st1{fill-rule:evenodd;clip-rule:evenodd;fill:#134BB7;}
	.st2{fill:#7DD3D9;}
	.st3{fill-rule:evenodd;clip-rule:evenodd;fill:#7DD3D9;}
	.st4{fill:#E27906;}
	.st5{fill:#E77B03;}
</style>
<g id="g8033" transform="matrix(0,0.20121231,0.34691777,0,-33.835436,238.01848)">
	<g id="g8035" transform="translate(-1071.7804,335.3556)">
		<path id="path8037" class="st0" d="M35.3,92.4V74.5c6.9,0.3,10.3,2.8,10.3,7.5c0,3-1.2,5.7-3.7,8h10.5c2.3-2.5,3.5-5.9,3.5-9.9
			c0-4.4-2.1-7.9-6.4-10.3C45.3,67.3,39.4,66,31.8,66c-7.9,0-14.1,1.3-18.7,4s-6.9,5.9-6.9,9.8c0,4,2.1,7.1,6.1,9.3
			c4.1,2.2,9.7,3.3,16.7,3.3H35.3z M26.3,84.5c-6.8,0-10.1-1.6-10.1-4.8c0-1.4,1-2.5,2.9-3.5c1.9-1,4.3-1.6,7.2-1.8V84.5z
			 M54.8,121.3v-8.5h-7.2v-0.1c5.6-2.1,8.4-4.9,8.4-8.4c0-6.4-6.6-9.6-19.9-9.6H7.4v8.5h27.3c6.7,0,10,1.5,10,4.6
			c0,1.5-0.9,2.7-2.7,3.6c-1.8,0.9-4.3,1.4-7.5,1.4H7.4v8.5H54.8z M20.6,142.5c-1-1-1.4-2.2-1.4-3.6c0-1.8,1.2-3.3,3.5-4.3
			c2.3-1,5.5-1.6,9.5-1.6h22.6v-8.5H7.4v8.5h8.8v0.1c-6.4,1.3-9.6,3.8-9.6,7.3c0,0.9,0.2,1.6,0.6,2.1H20.6z M55.9,158.5
			c0-4.6-2.2-8.2-6.6-10.8c-4.4-2.6-10.4-3.9-18-3.9c-7.8,0-14,1.4-18.4,4.1c-4.4,2.7-6.6,6.4-6.6,11c0,4.6,2.2,8.2,6.6,10.7
			c4.4,2.6,10.3,3.9,17.5,3.9c7.9,0,14.1-1.3,18.6-4C53.6,166.8,55.9,163.1,55.9,158.5z M17.4,158.7c0-2,1.2-3.6,3.6-4.7
			c2.4-1.1,5.7-1.7,10.1-1.7c9.1,0,13.6,2.1,13.6,6.4c0,4.1-4.7,6.1-14,6.1C21.9,164.8,17.4,162.8,17.4,158.7"/>
	</g>
</g>
<g id="g8023" transform="matrix(0,0.41760882,0.72001519,0,-243.24232,482.1099)">
	<g id="g8025" transform="translate(-1071.7804,335.3556)">
		<path id="path8027" class="st1" d="M47.8,131.9c1.1-1.3,1.7-3.1,1.7-5.6c0-5.9-5.3-8.9-16-8.9H12v-4.4H1.2v4.4H-9l-4.1,8.4H1.2
			v6.1H12v-6.1h19c4.9,0,7.4,1.1,7.4,3.4c0,0.9-0.4,1.8-1.3,2.7H47.8z M48.3,117v-10.4l-16.2-3V88.6l16.2-2.9V75.3l-72.8,15.4V102
			L48.3,117z M19.5,101.5l-31.2-5.2l31.2-5.7V101.5z M48.3,143.2v-8.4h-73v8.4H48.3z M48.3,170.2v-8h-6.8v-0.1
			c5.3-1.8,7.9-4.5,7.9-8.1c0-2.7-1.3-4.7-3.9-6.3c-2.6-1.5-6-2.3-10.4-2.3c-9.1,0-14.4,3.1-15.8,9.4l-1.7,7.4
			c-5.2,0-7.7-1.6-7.7-4.9c0-3.3,1.7-6.4,5-9.3H4c-1,1.2-2,2.8-2.8,4.8c-0.8,2-1.2,3.9-1.2,5.6c0,7.8,6.7,11.7,20.1,11.7L48.3,170.2
			z M29.2,162.3H26l1.1-5c0.6-2.7,2.8-4.1,6.4-4.1c1.7,0,3,0.3,4.1,1c1.1,0.7,1.6,1.6,1.6,2.7c0,1.6-0.9,2.9-2.8,3.9
			C34.5,161.8,32.1,162.3,29.2,162.3L29.2,162.3z M48.3,192H22.1c-7.3,0-10.9-1.5-10.9-4.6c0-1.5,1-2.7,2.9-3.6
			c1.9-0.9,4.4-1.4,7.4-1.4h26.9V174H1.2v8.4h7.5v0.1c-5.7,2-8.6,4.9-8.6,8.8c0,6.1,6.5,9.1,19.4,9.1h28.8L48.3,192z M47.8,220.7
			c1.1-1.2,1.7-3.1,1.7-5.6c0-5.9-5.3-8.9-16-8.9H12v-4.4H1.2v4.4H-9l-4.1,8.4H1.2v6.1H12v-6.1h19c4.9,0,7.4,1.1,7.4,3.4
			c0,0.9-0.4,1.8-1.3,2.7L47.8,220.7z M-6.2,227.9c0-1.4-0.7-2.6-2.2-3.5c-1.5-0.9-3.3-1.4-5.4-1.4c-2.2,0-4,0.5-5.4,1.4
			c-1.4,0.9-2.1,2.1-2.1,3.5c0,1.4,0.7,2.6,2.1,3.5c1.4,0.9,3.2,1.4,5.4,1.4c2.2,0,4-0.4,5.4-1.4S-6.2,229.4-6.2,227.9z M48.3,232.1
			v-8.4H1.2v8.4H48.3z M46.6,257c1.9-1.9,2.8-4.7,2.8-8.3c0-4.2-2.2-7.6-6.6-10.2c-4.4-2.6-10-3.9-17-3.9c-8,0-14.3,1.4-18.9,4.2
			c-4.6,2.8-6.9,6.5-6.9,11.2c0,3.2,0.7,5.6,2.2,7h12.3c-2.3-1.8-3.4-3.7-3.4-5.9c0-2.4,1.2-4.3,3.7-5.8c2.4-1.4,5.8-2.1,10.1-2.1
			c4.2,0,7.4,0.7,9.8,2c2.4,1.4,3.6,3.2,3.6,5.6c0,2.1-1.1,4.2-3.4,6.2L46.6,257z"/>
	</g>
</g>
<g id="g8029" transform="matrix(0.80042454,0,0,-0.80042454,95.073102,55.079782)">
	<path id="path8031" class="st2" d="M46.5-25.7h-3.4v1.7h0c-0.8-1.3-1.9-1.9-3.4-1.9c-1.1,0-2,0.3-2.6,0.9c-0.6,0.6-1,1.5-1,2.5
		c0,2.2,1.3,3.5,4,3.9l3.1,0.4c0,1.3-0.7,1.9-2,1.9c-1.4,0-2.7-0.4-3.9-1.2v2.7c0.5,0.3,1.2,0.5,2,0.7c0.9,0.2,1.6,0.3,2.3,0.3
		c3.3,0,4.9-1.6,4.9-4.9V-25.7z M43.2-21.1v0.8l-2.1-0.3c-1.2-0.2-1.7-0.7-1.7-1.6c0-0.4,0.1-0.7,0.4-1c0.3-0.3,0.7-0.4,1.1-0.4
		c0.7,0,1.2,0.2,1.6,0.7C43-22.3,43.2-21.8,43.2-21.1z M51.3-25.7h-3.5v11.5h3.5V-25.7z M60.2-17.4c-0.4,0.2-0.9,0.3-1.5,0.3
		c-0.8,0-1.4-0.3-1.8-0.8c-0.4-0.6-0.7-1.3-0.7-2.3v-5.5h-3.5v11.5h3.5v-2.1h0c0.6,1.6,1.6,2.3,3,2.3c0.4,0,0.7,0,0.9-0.1V-17.4z
		 M79-14.2l-3.3-11.5H72L70.3-19c-0.1,0.4-0.2,0.9-0.2,1.5H70c-0.1-0.6-0.1-1.1-0.2-1.4L68-25.7h-3.7l-3.2,11.5h3.6l1.6-7.5
		c0.1-0.4,0.1-0.8,0.2-1.3h0.1c0,0.5,0.1,1,0.2,1.3l2,7.5h3.4l1.8-7.5c0-0.2,0.1-0.6,0.2-1.3h0.1c0,0.4,0.1,0.9,0.2,1.3l1.5,7.5H79z
		 M89.2-25.7h-3.4v1.7h0C85-25.4,83.9-26,82.4-26c-1.1,0-2,0.3-2.6,0.9c-0.6,0.6-1,1.5-1,2.5c0,2.2,1.3,3.5,4,3.9l3.1,0.4
		c0,1.3-0.7,1.9-2,1.9c-1.4,0-2.7-0.4-3.9-1.2v2.7c0.5,0.3,1.2,0.5,2,0.7c0.9,0.2,1.6,0.3,2.3,0.3c3.3,0,4.9-1.6,4.9-4.9V-25.7z
		 M85.9-21.1v0.8l-2.1-0.3c-1.2-0.2-1.7-0.7-1.7-1.6c0-0.4,0.1-0.7,0.4-1c0.3-0.3,0.7-0.4,1.1-0.4c0.7,0,1.2,0.2,1.6,0.7
		C85.6-22.3,85.9-21.8,85.9-21.1z M101.8-14.2l-4.7-12.4c-1.1-3-2.8-4.5-5.1-4.5c-0.9,0-1.6,0.1-2.1,0.3v2.8c0.5-0.3,1-0.4,1.5-0.4
		c0.9,0,1.5,0.4,1.9,1.3l0.6,1.4l-4.7,11.5h3.9l2.1-7c0.1-0.4,0.2-0.9,0.3-1.5h0c0.1,0.4,0.2,0.9,0.4,1.5l2.2,7H101.8z M102.1-25.4
		v2.9c0.6-0.3,1.2-0.6,1.7-0.8c0.6-0.2,1.1-0.3,1.6-0.3c0.6,0,1.1,0.1,1.5,0.3c0.4,0.2,0.5,0.4,0.5,0.8c0,0.2-0.1,0.4-0.2,0.6
		c-0.2,0.1-0.4,0.3-0.6,0.4c-0.3,0.1-0.5,0.2-0.8,0.3c-0.3,0.1-0.6,0.2-0.9,0.3c-0.5,0.2-0.9,0.4-1.2,0.6c-0.3,0.2-0.6,0.4-0.9,0.7
		c-0.2,0.3-0.4,0.6-0.5,0.9c-0.1,0.3-0.2,0.8-0.2,1.2c0,0.6,0.1,1.2,0.4,1.7s0.7,0.8,1.1,1.1c0.5,0.3,1,0.5,1.6,0.7
		c0.6,0.1,1.2,0.2,1.9,0.2c0.5,0,1,0,1.6-0.1c0.5-0.1,1-0.2,1.6-0.3v-2.7c-0.4,0.3-0.9,0.5-1.4,0.6c-0.5,0.1-1,0.2-1.5,0.2
		c-0.2,0-0.5,0-0.7-0.1c-0.2,0-0.4-0.1-0.5-0.2c-0.2-0.1-0.3-0.2-0.4-0.3c-0.1-0.1-0.1-0.3-0.1-0.4c0-0.2,0.1-0.4,0.2-0.5
		c0.1-0.1,0.3-0.3,0.5-0.4c0.2-0.1,0.5-0.2,0.7-0.3c0.3-0.1,0.5-0.2,0.8-0.3c0.5-0.2,0.9-0.3,1.3-0.5c0.4-0.2,0.7-0.4,1-0.7
		c0.3-0.3,0.5-0.6,0.6-0.9c0.1-0.4,0.2-0.8,0.2-1.3c0-0.7-0.1-1.3-0.4-1.7c-0.3-0.5-0.7-0.9-1.2-1.2c-0.5-0.3-1.1-0.5-1.7-0.7
		c-0.6-0.1-1.3-0.2-2-0.2C104.3-26,103.2-25.8,102.1-25.4"/>
</g>
<path id="path9116" class="st2" d="M136.3,63c0,0.9-0.7,1.6-1.6,1.6c0,0,0,0,0,0c-0.9,0-1.6-0.7-1.6-1.6v0c0-0.9,0.7-1.6,1.6-1.6
	C135.5,61.4,136.3,62.1,136.3,63z"/>
<g id="g9159" transform="matrix(3.6190714,0,0,3.6190714,-20.278513,-22.494147)">
	<g id="g8039" transform="matrix(0,0.20461111,0.35277777,0,-94.44866,233.68405)">
		<g id="g8041" transform="translate(-1099.26,318.3735)">
			<path id="path8043" class="st3" d="M2.3,12.8C4.4-4.6,16.1-5,20.1-12.7c0.2-0.4,0.8-1.1,0.8-1.6c0-0.3,0.1-0.7,0.2-1L4.9-7.7
				C-5.7-2.1-12.4,3.4-12.5,8.6v7.2L2.3,12.8z"/>
		</g>
	</g>
	<g id="g8045" transform="matrix(0,0.20461111,0.35277777,0,-94.44866,233.68405)">
		<g id="g8047" transform="translate(-1081.6841,296.5311)">
			<path id="path8049" class="st0" d="M9.5,3.8c0.8,8.1-9.4,11.5-15.6,20.6c-2.5,3.6-3.2,7.2-3.4,9.2L16,28.3
				c0.8-11.2,8.4-10.6,11.3-16.2c1-1.9,0.3-4-0.1-7.6C26.5-2.2,44.3-8,44.3-12.4L9.5,3.8z"/>
		</g>
	</g>
	<g id="g8051" transform="matrix(0,0.20461111,0.35277777,0,-94.44866,233.68405)">
		<g id="g8053" transform="translate(-1061.7321,292.8078)">
			<path id="path8055" class="st1" d="M17.7,2.2c-11.5,7-0.9,11.7-6.1,16.4c-5.2,4.7-9,5.3-9.2,9.9c0,1.1,0,1.8,0.1,2.3l21.8-4.4
				V-2.9C22.3-1.2,20.3,0.7,17.7,2.2"/>
		</g>
	</g>
</g>
<g id="path9161">
	<rect x="0" y="60.5" class="st4" width="132.2" height="5"/>
</g>
<g id="path9161-7">
	<rect x="137" y="60.5" class="st5" width="46.2" height="5"/>
</g>
</svg>
