<?xml version="1.0" encoding="utf-8"?>
<!-- Generator: Adobe Illustrator 25.4.1, SVG Export Plug-In . SVG Version: 6.00 Build 0)  -->
<svg version="1.1" id="Layer_1" xmlns="http://www.w3.org/2000/svg" xmlns:xlink="http://www.w3.org/1999/xlink" x="0px" y="0px"
	 viewBox="0 0 66.6 80" style="enable-background:new 0 0 66.6 80;" xml:space="preserve">
<style type="text/css">
	.st0{fill:#221B17;}
	.st1{fill:#BDAF7D;}
	.st2{fill:#C7C7C7;}
	.st3{fill:url(#SVGID_1_);}
	.st4{fill:#D0CFCF;}
	.st5{fill:#7A3238;}
	.st6{fill:url(#SVGID_00000101083881797717099930000003453664361599239562_);}
	.st7{fill:url(#SVGID_00000020396545956898299950000000149126153935389589_);}
	.st8{fill:#231B17;}
	.st9{fill:#9C8E66;}
	.st10{fill:#C8C8C8;}
	.st11{fill:#A7373C;}
	.st12{fill:url(#SVGID_00000038390999854440956310000016252390769277239719_);}
	.st13{fill:url(#SVGID_00000089544401169030764720000011155467594778829478_);}
</style>
<g>
	<polygon class="st0" points="7.8,19.5 8.9,19.5 8.9,20.8 11.3,19.5 58.4,19.5 58.4,20.2 60.2,21.6 36.1,62.9 	"/>
	<polygon class="st1" points="11.3,22.4 35.7,59.6 57.9,22.4 	"/>
	<circle class="st2" cx="34.8" cy="43.4" r="6"/>
	<circle class="st0" cx="34.8" cy="43.6" r="2.9"/>
	<path class="st2" d="M27,32.5c-0.1,0.3-0.5,0.8-1,1.3c-0.5,0.6-1.2,1.2-1.6,1.2c-0.8,0-0.5-2.9-0.5-2.9c-0.9-0.3-1.1-1.3-1.2-1.5
		c-0.1-0.2,0.5-0.1,0.9-0.2c0.3-0.1,0.2-0.7,0.2-0.7s-1.5-0.6-2.3-1c-0.8-0.3-2.1-1.1-2.6-1.5c-0.5-0.4-2.2-1.4-2.4-1.7
		c-0.2-0.2-0.6-0.6-0.2-0.7c0.2,0,0.4,0,0.6,0.1c0.2,0.1,0.4,0.1,0.5,0.2l-0.5-0.5l-0.1-0.2c-0.3-0.3,0.6-0.3,0.9-0.3
		c0.2,0,1.1,0,2.3,0.1h0c0.2,0,0.4,0.1,0.6,0.1c0.2,0,0.3,0.1,0.5,0.1c0.3,0.1,0.5,0.1,0.8,0.2c1.2,0.3,2.1,0.5,2.1,0.5s0,0,0,0
		c0.2,0,2.4-0.4,2.7-0.1c0,0,0.1,0.1,0.1,0.1c0.2,0.6,0.1,2.2,0.2,2.5c0,0.3,0.8,1.2,0.8,1.8C27.5,29.9,27.3,31.8,27,32.5z"/>
	<polygon class="st0" points="3.7,10.2 9.4,18.7 9.4,20 12.8,17.8 11.5,17.5 6.5,8.4 7.9,7.6 10,9.1 7.9,5.5 0,10.7 2.3,13.5 
		2,10.8 	"/>
	<path class="st0" d="M23.3,13.7l-0.9-0.5l-6.5-9.3L16,2.5L12.3,4l1.3,0.7l0.5,11.3l-0.2,1l2.3-1.1l-0.8-0.3l0-2.2l3.5-1.1l1.4,1.6
		l-0.5,1L23.3,13.7z M15.2,12.3c0,0-0.1-4.5-0.1-4.5l3,3.5L15.2,12.3z"/>
	<path class="st0" d="M43.9,13.5l-0.6-0.8L41.2,1.5l0.7-1.2l-4.1-0.2l0.9,1.2l-4.2,10.5l-0.6,0.8l2.6-0.1L35.7,12l0.9-2.1l3.6,0.4
		l0.6,2.1l-0.9,0.7L43.9,13.5z M37,8.9c0,0,1.8-4.1,1.8-4.1l1.3,4.4L37,8.9z"/>
	<path class="st0" d="M62.5,21.9l-0.2-1L65.4,10l1.1-0.7l-3.6-2l0.2,1.5l-8.4,7.6l-0.9,0.5l2.3,1.1L55.8,17l1.7-1.5l3.1,2l-0.4,2.1
		l-1.1,0.3L62.5,21.9z M58.4,14.8c0,0,3.4-2.9,3.4-2.9L61,16.4L58.4,14.8z"/>
	<path class="st0" d="M24.2,13.5l2.7-0.3l-1.2-0.9l-0.5-7.9c0,0,6.7,8.9,6.8,8.8S31.8,1,31.8,1l0.7-1l-3.1,0.4l1.1,1v6.1l-4.3-6.9
		l-4.1,0.3l1,0.9l1.3,10.6L24.2,13.5z"/>
	<path class="st0" d="M44.7,13.6l2.6,0.8l-0.7-1.3l2.6-7.5c0,0,2.8,10.8,2.9,10.7C52,16.2,56.6,5,56.6,5l1.1-0.6l-3-0.8l0.7,1.3
		L53,10.5l-1.3-8l-3.9-1.3l0.6,1.2l-2.9,10.3L44.7,13.6z"/>
	<path class="st0" d="M37.6,64c0,0-0.3,0.2-0.1,0.6c0.2,0.4,0.5,0.5,0.7,0.5c0.2,0,1-0.2,1.4,0s1.1,1.2,1.9,1.7s1.3,0.2,1.7,0.4
		c0.4,0.1,0.7,0.3,0.9,0.2s0-0.3-0.1-0.4c-0.1-0.1-0.4-0.2,0.7-0.1c1.1,0.1,1.8-0.2,1.8-0.5c0-0.2-0.1-0.4-0.8-0.3
		c-0.7,0.1-1.9-0.1-2.2-0.2s-0.5-0.3-0.8-0.6c-0.3-0.2-0.6-0.4-0.4-0.6c0.3-0.1,0.8-0.4,1.8-0.3c1,0.1,1.8-0.1,2.3-0.5
		c0.5-0.5,0.9-1.5,0.8-1.6s-0.3-0.3-0.5,0.1s-0.7,0.8-1,0.9c-0.3,0.1-1.2,0.2-1.4,0.1c-0.2-0.1,0.1-0.6,0.7-0.8
		c0.6-0.2,1.7-0.9,2-1.1c0.3-0.2,0.7-0.9,0.8-1.1s0-0.4-0.3-0.3c-0.3,0.2-0.9,0.8-1.2,0.9c-0.2,0.1-0.9,0.3-1.1,0.3
		c-0.1-0.1,0-0.5,0.5-0.8c0.5-0.3,1.4-0.9,1.6-1.3s0.4-0.6,0.1-0.6s-0.5,0.2-0.9,0.4c-0.4,0.2-1.1,0.9-1.2,0.6s-0.2-0.7,0.2-1.1
		c0.4-0.3,0.9-0.6,1-0.9c0.1-0.3,0.3-0.6,0-0.6s-0.4,0.3-0.7,0.5c-0.3,0.2-0.5,0.1-0.3-0.2c0.2-0.3,0.3-0.8,0.1-0.9
		c-0.1-0.1-0.4,0.3-0.6,0.4c-0.2,0.1-0.4,0.1-0.3-0.2c0.1-0.3,0.2-0.6,0.1-0.7c-0.2-0.1-0.4,0.3-0.6,0.4C44.1,56.7,44,56.5,44,56
		c0-0.5-0.2-0.9-0.4-1c-0.2-0.1-0.4-0.1-0.5,0.1c0,0.2,0.2,0.7,0.1,0.9s0.1,0.5-0.1,0.6c-0.2,0.1-0.2,0.4-0.4,0.1s0-0.5-0.1-0.8
		c-0.1-0.2-0.1-0.4-0.3-0.2c-0.2,0.2-0.2,0.4-0.2,0.7s0,0.9,0,1c0,0-0.1,0.7-0.1,1.3c-0.1,0.5-0.1,2.2,0,2.6s0,1-0.3,1.2
		c-0.2,0.2-1.2,1-1.4,1.2C40.2,63.8,38.1,64,37.6,64z"/>
	<path class="st0" d="M34.1,65.9c0,0,0.2,0.4,0.3,0.5s0.4,0,0.7,0s0.6,0.2,0.8,0.3c0.2,0.1,0.5,0.2,0.9,0s0.5-0.3,0.6-0.6
		c0.2-0.3,0.2-0.6,0-0.6c-0.2,0-0.6,0.3-0.7,0.3c-0.1,0-0.2-0.3-0.5-0.4s-0.7-0.2-0.8,0c-0.1,0.2-0.4,0.5-0.6,0.5
		c-0.1,0-0.3,0.1-0.4-0.1C34.4,65.8,34,65.6,34.1,65.9z"/>
	<path class="st0" d="M32,66.4c0,0-0.3-0.6-0.1-0.9c0.2-0.4,0.8-0.5,1-0.4c0.2,0,0.5,0.3,0.7,0.4s0.2,0.2,0.5,0.1
		c0.2-0.1,0.6-0.4,0.6-0.8c0-0.4,0-0.7-0.2-0.9c-0.3-0.2-0.3-0.3-0.7-0.1s-0.6,0.3-1.1,0.1c0,0-1.1-0.4-1.5-0.6
		c-0.4-0.3-1.2-1.2-1.4-1.5s-0.7-1.5-0.7-2.2c-0.1-0.7,0.1-1.3,0-1.8c-0.1-0.5-0.2-1.7-0.2-2.3s0-1.7,0-1.9c0-0.2-0.6,0.1-0.6,0.3
		c-0.1,0.2-0.1,0.8-0.2,1c-0.2,0.3-0.5,0.3-0.4,0s0.2-0.9,0.1-1.1c-0.1-0.2-0.4-0.3-0.5-0.1s-0.2,0.6-0.4,0.8
		c-0.2,0.2-0.2,0.4-0.3,0.6s-0.3,0.2-0.3,0.5c-0.1,0.3,0.1,0.7,0,0.8s-0.3,0-0.4-0.2s-0.6-0.4-0.6-0.1c-0.1,0.3,0,1,0.1,1.1
		c0.1,0.1,0.3,0.1,0.3,0.3c0.1,0.2-0.4,0.6-0.4,0.6c-0.1,0-0.1,0.9,0.2,1.4c0.3,0.5,0.9,0.5,1,0.6c0.1,0,0.5,0.1,0.5,0.4
		c0.1,0.3,0.2,1,0.3,1.3c0.1,0.3,0.3,0.6,0.4,0.6c0.1,0,0.2-0.4,0.3-0.7c0.1-0.3,0.2-0.6,0.4-0.4c0.2,0.3,0.3,0.6,0.1,1
		s-0.4,0.9-0.3,1c0.1,0.1,0,0.3,0.4,0.5c0.4,0.2,0.5,0.2,1,0.3c0.4,0.1,0.6,0.3,0.7,0.4c0.1,0.2,0.2,0.1,0.3,0.5s0.2,1,0.1,1.2
		c-0.2,0.2-0.4,0.5-0.6,0.7c-0.3,0.2-0.5,0.6-0.5,0.8c0,0.2-0.1,0.4,0.1,0.4c0.1,0,0.2-0.2,0.6-0.3c0.4-0.1,0.5-0.5,0.9-0.5
		c0.4,0,0.9,0.1,1.2,0c0.2-0.1,0.6-0.1,0.8-0.3c0.3-0.2,0.5-0.5,0.4-0.6c-0.1-0.1-0.5-0.1-0.7-0.1S32.2,66.6,32,66.4z"/>
	<path class="st0" d="M25.5,60.1c0,0-0.1,0.5,0,0.7s0.3,1.1,0.5,1.4c0.2,0.3,0.6,0.8,0.8,0.9s0.5-0.1,0.2-0.3
		c-0.3-0.2-0.9-0.8-1-1.1c-0.1-0.3-0.2-0.7-0.3-1C25.7,60.5,25.7,59.9,25.5,60.1z"/>
	<path class="st0" d="M27.1,64.2c0,0-0.3,0.1-0.1,0.2c0.2,0.1,0.3,0.2,0.5,0.3c0.2,0.1,0.7,0.2,0.9,0.3s0.5,0.2,0.7,0.3
		s0.4,0.1,0.6,0.2c0.2,0.1,0.4,0.2,0.5,0.2c0.1,0.1,0.2,0,0.2-0.1c0-0.1-0.1-0.2-0.3-0.3c-0.2-0.1-0.3-0.2-0.5-0.3s-0.5-0.2-0.7-0.3
		c-0.2-0.1-0.4-0.1-0.5-0.1c-0.1,0-0.3-0.1-0.4-0.2S27.3,64.2,27.1,64.2z"/>
	<polygon class="st0" points="13.1,73.5 14.7,74.7 14.7,73.9 18.4,68.7 19.4,68.4 17.3,67 17.5,68 13.8,73.2 	"/>
	<polygon class="st0" points="48.8,77.1 50.6,76.4 49.9,76 47.2,70.2 47.4,69.2 45.2,70.3 46.1,70.7 48.9,76.4 	"/>
	<path class="st0" d="M14.7,64.8l-0.1,0.8l-5.7,3.4l-1.1,0.2l1.4,1.1l0.1-0.9l1.1-0.6l1.9,1.7l-0.5,1l-0.6,0.3l1.4,1.1v-0.8l3.2-5.6
		l0.8-0.3L14.7,64.8z M12.5,70l-1.6-1.4l3.1-1.8L12.5,70z"/>
	<path class="st0" d="M22.6,73c0.9-1,0.7-2.1,0.6-2.5s-1.4-0.9-1.4-0.9l-2.1-1l0.1,0.8L16.8,75l-0.7,0.3l1.7,1v-0.8l1.2-2.1l0.3,0.2
		c0,0,0.1,1.4,0.1,2c0,0.7,0.3,1.9,0.3,1.9l1.8-1l-1-0.4c0,0-0.5-1.7-0.3-2.4C20.2,73.8,21.7,74,22.6,73z M20.1,73.2
		c-0.3,0-0.5-0.2-0.7-0.3l1.7-3c0.2,0.1,0.5,0.3,0.7,0.5c0.3,0.4,0.6,1.1-0.1,1.8C21,73,20.5,73.1,20.1,73.2z"/>
	<path class="st0" d="M40.2,74.6c0.3-1.4-0.5-2.1-0.8-2.4c-0.3-0.3-1.7-0.1-1.7-0.1l-2.3,0.3l0.5,0.6l0.4,6.4l-0.4,0.6l1.9,0
		l-0.4-0.7l0-2.4l0.3,0c0,0,0.7,1.1,1.1,1.7C39.1,79.1,40,80,40,80l1-1.7l-1,0.2c0,0-1.3-1.2-1.5-1.9C38.5,76.6,39.9,76,40.2,74.6z
		 M38.1,76.1c-0.2,0.1-0.5,0.1-0.8,0.1l0-3.4c0.2,0,0.6,0,0.9,0.1c0.5,0.2,1.1,0.6,0.9,1.6C38.8,75.4,38.5,75.8,38.1,76.1z"/>
	<path class="st0" d="M32.5,72.7h1.7l0.8,1.2l0.2-0.1l-0.1-1.8h-2.7l0,0l-1.9,0l0.7,0.7l-0.1,6.4l-0.5,0.6h1.3h0.8h2.1l0.2-2h-0.3
		L34,79.3h-1.8l0,0l0.1-3.3h0.9c0,0,0.7,0.8,0.7,0.8c0,0,0-1.9,0-1.9l-0.7,0.7h-0.9L32.5,72.7L32.5,72.7z"/>
	<path class="st0" d="M54.2,65.4l1.2-1.2l1.4,0.3l0.1-0.2l-1.3-1.2L53.7,65l0,0l-1.3,1.3l1,0.1l4.4,4.6l0.1,0.8l0.9-0.9l0.6-0.6
		l1.5-1.5l-1.3-1.5l-0.2,0.2l0.5,1.5l-1.3,1.3l0,0l-2.3-2.4l0.7-0.7c0,0,1.1,0.1,1,0.1c0,0-1.4-1.4-1.4-1.4l0,1L56,67.5l-1.8-1.9
		L54.2,65.4z"/>
	<polygon class="st0" points="39.5,72 40.2,72.4 44.3,78.3 44.6,78.2 45,71 45.2,70.3 43.6,70.9 44.3,71.2 44.2,75.4 42,72 
		42.1,71.2 	"/>
	<path class="st0" d="M29.7,73.2l0.2,0.8l0.6-1.5h-0.4c0,0-0.7-1.3-2.3-1.2c-1.6,0.1-2,1.6-2,2.2s0.6,1.7,1,2.1
		c0.4,0.5,1.2,1.3,1.3,1.6s0.2,1-0.2,1.1s-1.1,0.1-1.4-0.1c-0.3-0.2-0.5-0.5-0.5-0.5L25.9,77l-1.1,1.4l0.8,0c0,0,0.6,1.2,2.4,0.9
		c1.8-0.2,1.4-2.3,1.1-2.9c0,0-0.6-1-0.8-1.3s-0.8-1-0.8-1.2c-0.1-0.2-0.1-0.7,0.1-1s0.7-0.6,0.9-0.6s0.8,0.2,0.9,0.3
		C29.5,72.8,29.7,73.2,29.7,73.2z"/>
	<path class="st0" d="M52.9,68.7L52.1,68c0,0-1-0.1-1.5,0.4s-0.5,1.7-0.1,2.3c0.4,0.6,1.3,1.8,1.6,2.1c0.3,0.3,1.3,1.2,2,0.7
		s0.5-1.6,0.5-1.6l-0.3-0.2l0.7-0.5l0,0.6c0,0,0.4,1.2-0.6,2.2s-2.7,0.5-3.1,0.3c-0.4-0.2-1.7-1.8-2.1-2.7s-0.9-2.6,0.8-3.9
		c0,0,0.8-0.4,1.8-0.5l0.6-0.6L52.9,68.7z"/>
	<path class="st0" d="M42.8,28.8c0,0-2,1.1-1.8,2.2c0.2,1.1,1.5,1.9,2.4,1.7c0.9-0.2,1.7-0.5,2.2-0.4c0.5,0.1,3-0.2,3.5-0.4
		s1-0.8,0.9-1c-0.1-0.2-0.5-0.6-0.5-0.9s-0.1-0.8-0.4-1.1c-0.2-0.3-1.6-2.1-3.1-2.8c0,0-0.9-0.5-1.5,0
		C43.9,26.6,42.8,28.8,42.8,28.8z"/>
	<path class="st0" d="M45.9,24.8c0,0-0.2,0.3,0.1,0.5s0.8,0.1,1-0.3c0.2-0.3,0.5-0.9,0.5-1.1c0-0.1-0.5,0-0.8,0.2
		C46.4,24.4,45.9,24.8,45.9,24.8z"/>
	<path class="st0" d="M47.2,25.7c0,0,0,0.4,0.4,0.5c0.4,0.1,1-0.3,1.2-0.6s0.6-1.3,0.6-1.4c0-0.1-1.4,0.5-1.8,0.9
		C47.3,25.3,47.2,25.7,47.2,25.7z"/>
	<path class="st0" d="M48.7,27c0,0,0.5,0.3,1.2,0c0.7-0.3,1.2-1.5,1.2-1.7s-1.4,0.2-1.8,0.5C48.9,26.2,48.5,26.5,48.7,27z"/>
	<path class="st0" d="M49.7,28.3c0,0,0.7,0.3,1.3,0c0.6-0.3,1-1.1,1-1.3c0-0.2,0-0.3-0.9-0.1S49.2,27.7,49.7,28.3z"/>
	<path class="st0" d="M50.4,30c0,0,0.2,0.4,0.9,0.2c0.7-0.3,1.1-1.1,1.2-1.3s0.2-0.3-0.3-0.2c-0.4,0-1.6,0.2-1.8,0.4
		C50.2,29.3,50.2,29.7,50.4,30z"/>
	<circle class="st0" cx="18" cy="24.8" r="0.4"/>
	<path class="st0" d="M26.2,31.6c-0.1,0-0.1-0.3-0.3-0.6c-0.2-0.3-0.6-0.8-0.8-0.8c-0.2,0-0.5,0.3-0.5,0.4c0,0.1,0.3,1,0.2,1.5
		c-0.1,0.5,1.2,1,1.3,1.5c0,0.1,0,0.2,0,0.3c-0.5,0.6-1.2,1.2-1.6,1.2c-0.8,0-0.5-2.9-0.5-2.9c-0.9-0.3-1.1-1.3-1.2-1.5
		c-0.1-0.2,0.5-0.1,0.9-0.2c0.3-0.1,0.2-0.7,0.2-0.7s-1.5-0.6-2.3-1c-0.8-0.3-2.1-1.1-2.6-1.5c-0.5-0.4-2.2-1.4-2.4-1.7
		c-0.2-0.2-0.6-0.6-0.2-0.7c0.2,0,0.4,0,0.6,0.1c0,0-0.2,0.2,0,0.4c0.2,0.2,1.3,0.8,1.6,0.9c0.3,0,0.9,0.1,1.2-0.2
		c0.2-0.2,0-0.7,0.2-0.9c0.2-0.2,0.4-0.2,0.5-0.5c0.1-0.3,0.1-0.3,0.1-0.4v0c0-0.1,0.8-0.1,0.8-0.1l0.5,0.3c0,0,1.9,0.8,2.7,1.3
		c0.7,0.5,1.6,1.5,1.8,1.9c0.2,0.3,0.2,0.6-0.1,0.3c-0.3-0.3-1.1-1.1-1.7-1.5c-0.6-0.4-1.6-1-2.3-1.2c-0.7-0.2-1.3-0.1-1.3,0
		c0,0.2,0.1,0.5-0.1,0.7c-0.2,0.2-0.5,0.3-0.5,0.4c0,0.1,0.1,0.4,0.9,0.4c0.8,0,1.1,0,1.2,0.1c0.1,0.1,0.1,0.3-0.1,0.4
		c-0.2,0.1-0.5,0.1-0.7,0.1c-0.2,0-0.8,0.2-0.4,0.3c0.4,0.1,0.9,0.4,1.1,0.4c0.2,0.1,0.2,0.2,0.4,0.3c0.1,0.1,1.2,0.4,1.4,0.5
		c0.3,0.1,1.5,0.7,1.8,1c0.3,0.3,0.7,1,0.8,1.2C26.4,31.4,26.3,31.6,26.2,31.6z"/>
	<path class="st0" d="M19.7,24.2c-0.5,0-2.3,0-2.7,0.1c-0.4,0.1-0.3,0.2-0.3,0.2l-0.1-0.2c-0.3-0.3,0.6-0.3,0.9-0.3
		C17.7,24.1,18.5,24.1,19.7,24.2z"/>
	<path class="st0" d="M26.4,25.1c-0.1,0-0.3-0.1-0.6-0.1c-0.4,0-1.2,0.1-1.6,0.1c-0.4,0-0.6-0.1-0.6-0.1c0.2,0,2.4-0.4,2.7-0.1
		C26.4,25,26.4,25,26.4,25.1z"/>
	<linearGradient id="SVGID_1_" gradientUnits="userSpaceOnUse" x1="48.0689" y1="40.9344" x2="29.739" y2="23.4461">
		<stop  offset="0" style="stop-color:#FFFFFF"/>
		<stop  offset="1" style="stop-color:#000000"/>
	</linearGradient>
	<path class="st3" d="M38.3,24.6c0,10.3-2.7,17.5-2.7,17.5L34,41.3c0,0-2.4-7.2-2.4-16.6c0-3.9,0.1-7,0.3-9.2l6.2,2.1
		C38.3,19.5,38.3,21.8,38.3,24.6z"/>
	<path class="st4" d="M38.1,17.7l-6.2-2.1c0.1-0.6,0.2-1.2,0.3-1.7l5.7,1.5C38,16,38.1,16.8,38.1,17.7z"/>
	<path class="st5" d="M37.9,15.3l-5.7-1.5c0.1-0.2,0.1-0.4,0.2-0.6l5.4,1.2C37.8,14.8,37.9,15,37.9,15.3z"/>
	<path class="st4" d="M37.8,14.5l-5.4-1.2c0.1-0.2,0.1-0.4,0.2-0.6l5.1,1.2C37.7,14.1,37.7,14.3,37.8,14.5z"/>
	<path class="st5" d="M37.7,13.9l-5.1-1.2c0.1-0.3,0.2-0.5,0.4-0.7l4.4,1C37.5,13.3,37.6,13.6,37.7,13.9z"/>
	<path class="st4" d="M37.4,13L33,12c0.5-0.7,1.1-1.1,1.9-1.1C36.1,10.9,36.9,11.5,37.4,13z"/>
	
		<linearGradient id="SVGID_00000009568923214975807910000001650813481319269528_" gradientUnits="userSpaceOnUse" x1="16.7988" y1="45.5808" x2="22.7841" y2="51.8466">
		<stop  offset="0" style="stop-color:#FFFFFF"/>
		<stop  offset="1" style="stop-color:#000000"/>
	</linearGradient>
	<path style="fill:url(#SVGID_00000009568923214975807910000001650813481319269528_);" d="M16.7,49.8c8.9-5.1,16.5-6.4,16.5-6.4
		l0.2,1.7c0,0-5,5.7-13.2,10.4c-3.4,2-6.1,3.4-8.1,4.3l-1.3-6.4C12.3,52.4,14.3,51.2,16.7,49.8z"/>
	<path class="st4" d="M10.8,53.4l1.3,6.4c-0.6,0.2-1.1,0.4-1.6,0.6l-1.6-5.7C9.4,54.4,10.1,53.9,10.8,53.4z"/>
	<path class="st5" d="M8.9,54.8l1.6,5.7c-0.2,0.1-0.4,0.1-0.6,0.2l-1.6-5.3C8.4,55.1,8.7,55,8.9,54.8z"/>
	<path class="st4" d="M8.2,55.3l1.6,5.3c-0.2,0.1-0.4,0.1-0.6,0.1l-1.5-5C7.9,55.6,8.1,55.4,8.2,55.3z"/>
	<path class="st5" d="M7.8,55.7l1.5,5c-0.3,0-0.5,0.1-0.8,0l-1.3-4.4C7.3,56.2,7.5,55.9,7.8,55.7z"/>
	<path class="st4" d="M7.1,56.4l1.3,4.4c-0.9,0-1.5-0.4-1.9-1.1C6,58.6,6.1,57.6,7.1,56.4z"/>
	
		<linearGradient id="SVGID_00000080169922004356233290000014486796356615067821_" gradientUnits="userSpaceOnUse" x1="44.8812" y1="56.5962" x2="47.2192" y2="49.2081">
		<stop  offset="0" style="stop-color:#FFFFFF"/>
		<stop  offset="1" style="stop-color:#000000"/>
	</linearGradient>
	<path style="fill:url(#SVGID_00000080169922004356233290000014486796356615067821_);" d="M58.8,53.8c-0.5,1.4-1.4,4.3-1.9,6.1
		c-0.4-0.2-0.9-0.4-1.4-0.6c-1.7-0.8-3.6-1.9-6.1-3.3c-8.9-5.1-13.8-11.1-13.8-11.1l1.4-1c0,0,7.4,1.5,15.6,6.2
		C55.1,51.5,57.1,52.7,58.8,53.8z"/>
	<path class="st4" d="M60.2,54.8l-1.8,5.7c0,0,0,0-0.1,0c-0.3-0.1-0.5-0.2-0.8-0.3c-0.2-0.1-0.5-0.2-0.7-0.3
		c0.6-1.8,1.5-4.7,1.9-6.1C59.3,54.1,59.8,54.5,60.2,54.8z"/>
	<path class="st5" d="M60.8,55.3l-1.6,5.5c-0.1,0-0.2-0.1-0.4-0.1c-0.2,0-0.3-0.1-0.5-0.2l1.8-5.7c0.1,0,0.1,0.1,0.2,0.1
		C60.5,55,60.7,55.2,60.8,55.3z"/>
	<path class="st4" d="M61.3,55.7L60,60.9c0,0-0.1,0-0.1,0c-0.2,0-0.4-0.1-0.6-0.1l1.6-5.5C61,55.4,61.2,55.6,61.3,55.7z"/>
	<path class="st5" d="M61.8,56.2L60.7,61c-0.2,0-0.5,0-0.7-0.1l1.4-5.2c0.1,0.1,0.2,0.2,0.3,0.3C61.7,56.1,61.8,56.1,61.8,56.2z"/>
	<path class="st4" d="M62.9,59.8c-0.5,0.9-1.2,1.3-2.2,1.3l1.1-4.9c0.1,0.1,0.2,0.2,0.3,0.3c0.1,0.2,0.3,0.3,0.4,0.5
		c0.2,0.2,0.3,0.4,0.4,0.7C63.3,58.3,63.3,59,62.9,59.8z"/>
	<g>
		<path class="st8" d="M34.8,52.7c-1.4,0-2.7-0.3-4-0.9c-0.1-0.1-0.1-0.2-0.1-0.3c0.1-0.1,0.2-0.1,0.3-0.1c1.2,0.6,2.5,0.9,3.8,0.9
			c2,0,3.9-0.7,5.5-1.9c0.1-0.1,0.2-0.1,0.3,0c0.1,0.1,0.1,0.2,0,0.3C38.9,52,36.9,52.7,34.8,52.7z"/>
	</g>
	<g>
		<path class="st8" d="M43.7,45C43.7,45,43.7,45,43.7,45c-0.1,0-0.2-0.1-0.2-0.2c0.1-0.4,0.1-0.9,0.1-1.3c0-3.3-1.9-6.4-4.8-7.9
			c-0.1-0.1-0.1-0.2-0.1-0.3c0.1-0.1,0.2-0.1,0.3-0.1c3.1,1.6,5.1,4.7,5.1,8.3c0,0.5,0,0.9-0.1,1.4C43.9,44.9,43.8,45,43.7,45z"/>
	</g>
	<g>
		<path class="st8" d="M25.8,43.3C25.8,43.3,25.8,43.3,25.8,43.3c-0.1,0-0.2-0.1-0.2-0.2c0.1-3.7,2.5-7,5.9-8.3c0.1,0,0.2,0,0.3,0.1
			c0,0.1,0,0.2-0.1,0.3c-3.3,1.3-5.5,4.4-5.7,7.9C26,43.2,25.9,43.3,25.8,43.3z"/>
	</g>
	<g>
		<path class="st9" d="M42.5,43.7c-0.1,0-0.2-0.1-0.2-0.2c0-2.9-1.6-5.4-4.1-6.7c-0.1-0.1-0.1-0.2-0.1-0.3c0.1-0.1,0.2-0.1,0.3-0.1
			c2.7,1.4,4.4,4.1,4.4,7.1C42.8,43.6,42.7,43.7,42.5,43.7z"/>
	</g>
	<g>
		<path class="st9" d="M27,43.7c-0.1,0-0.2-0.1-0.2-0.2c0-3.3,1.9-6.1,5-7.4c0.1,0,0.2,0,0.3,0.1c0,0.1,0,0.2-0.1,0.3
			c-2.9,1.2-4.7,3.9-4.7,7C27.3,43.6,27.2,43.7,27,43.7z"/>
	</g>
	<g>
		<path class="st9" d="M34.8,51.4c-1.3,0-2.7-0.3-3.8-1c-0.1-0.1-0.1-0.2-0.1-0.3S31,50,31.1,50c1.1,0.6,2.4,0.9,3.6,0.9
			c1.6,0,3-0.5,4.3-1.4c0.1-0.1,0.2,0,0.3,0.1c0.1,0.1,0,0.2-0.1,0.3C38,50.9,36.4,51.4,34.8,51.4z"/>
	</g>
	<g>
		<g>
			<path class="st0" d="M35.6,42.1L34,41.4l0,0c0-0.1-2.4-7.3-2.4-16.6c0-3.9,0.1-6.9,0.3-9.2c0.1-0.6,0.2-1.2,0.3-1.7
				c0-0.2,0.1-0.4,0.2-0.6c0.1-0.2,0.1-0.4,0.2-0.6c0.1-0.3,0.2-0.5,0.4-0.7c0.5-0.7,1.1-1.1,1.9-1.1c1.3,0,2.1,0.7,2.6,2.1
				c0.1,0.2,0.2,0.5,0.3,0.9c0,0.2,0.1,0.4,0.1,0.6c0.1,0.3,0.1,0.6,0.1,0.8c0.1,0.7,0.2,1.4,0.2,2.3c0.1,1.7,0.2,3.9,0.2,6.9
				C38.3,34.7,35.6,42,35.6,42.1L35.6,42.1z M34,41.3l1.5,0.7c0.2-0.7,2.7-7.7,2.7-17.4c0-3-0.1-5.2-0.2-6.9l0,0
				C38,16.8,38,16,37.9,15.3c0-0.3-0.1-0.5-0.1-0.8c0-0.2-0.1-0.4-0.1-0.6c-0.1-0.4-0.2-0.7-0.3-0.9c-0.5-1.4-1.3-2.1-2.5-2.1
				c-0.8,0-1.4,0.3-1.8,1c-0.1,0.2-0.2,0.4-0.4,0.7c-0.1,0.2-0.1,0.4-0.2,0.6c-0.1,0.2-0.1,0.4-0.2,0.6c-0.1,0.5-0.2,1.1-0.3,1.6
				c-0.3,2.3-0.3,5.3-0.3,9.2C31.7,33.8,33.9,40.8,34,41.3z"/>
		</g>
		<g>
			<path class="st0" d="M8.7,60.8c-0.1,0-0.1,0-0.2,0c-0.9,0-1.5-0.4-1.9-1.1c-0.6-1.1-0.5-2.1,0.5-3.3c0.2-0.2,0.4-0.4,0.7-0.7
				c0.1-0.1,0.3-0.3,0.4-0.4c0.2-0.2,0.4-0.4,0.7-0.5c0.5-0.4,1.2-0.9,1.9-1.3c1.4-0.9,3.3-2.1,5.9-3.6l0,0l0,0
				c8.8-5.1,16.5-6.4,16.5-6.4l0.1,0l0,0.1l0.2,1.7l0,0c-0.1,0.1-5.1,5.7-13.2,10.4c-3.4,1.9-6,3.4-8.1,4.3
				c-0.6,0.2-1.1,0.4-1.6,0.6c-0.2,0.1-0.4,0.1-0.6,0.2c-0.2,0-0.4,0.1-0.6,0.1C9,60.8,8.8,60.8,8.7,60.8z M16.7,49.9
				c-2.6,1.5-4.5,2.6-5.9,3.6c-0.7,0.5-1.4,0.9-1.9,1.3c-0.2,0.2-0.4,0.3-0.7,0.5c-0.2,0.1-0.3,0.3-0.4,0.4
				c-0.3,0.3-0.5,0.5-0.7,0.7c-1,1.1-1.2,2.1-0.5,3.2c0.4,0.7,1,1,1.8,1.1c0.2,0,0.5,0,0.8,0c0.2,0,0.4-0.1,0.6-0.1
				c0.2-0.1,0.4-0.1,0.6-0.2c0.5-0.1,1-0.3,1.6-0.6c2.1-0.9,4.8-2.4,8.1-4.3C28,51,33,45.5,33.3,45.2l-0.1-1.6
				C32.4,43.7,25.1,45.1,16.7,49.9L16.7,49.9z"/>
		</g>
		<g>
			<path class="st0" d="M60.7,61.1C60.7,61.1,60.7,61.1,60.7,61.1c-0.3,0-0.5,0-0.8-0.1l-0.1,0c-0.2,0-0.4-0.1-0.6-0.1
				c-0.1,0-0.2-0.1-0.4-0.1c-0.1,0-0.3-0.1-0.5-0.2c0,0,0,0,0,0l0,0c-0.3-0.1-0.5-0.2-0.8-0.3c-0.3-0.1-0.5-0.2-0.7-0.3
				c-0.4-0.2-0.9-0.4-1.4-0.7c-1.5-0.8-3.5-1.8-6.1-3.3c-8.8-5.1-13.7-11.1-13.8-11.1l0,0l0,0l1.4-1l0,0c0.1,0,7.5,1.6,15.6,6.2
				c2.9,1.7,4.7,2.8,6.2,3.8c0.6,0.4,1,0.7,1.5,1c0.1,0,0.1,0.1,0.2,0.1c0.2,0.1,0.3,0.2,0.4,0.4l0,0c0.2,0.1,0.3,0.3,0.5,0.4
				l0.1,0.1c0.1,0.1,0.2,0.1,0.2,0.2c0,0,0.1,0.1,0.1,0.1l0,0c0.1,0.1,0.2,0.2,0.3,0.3c0.1,0.2,0.3,0.3,0.4,0.5
				c0.2,0.2,0.3,0.4,0.4,0.7c0.4,0.8,0.4,1.5,0,2.2C62.5,60.7,61.8,61.1,60.7,61.1z M35.7,44.8c0.5,0.6,5.3,6.2,13.7,11.1
				c2.6,1.5,4.5,2.6,6.1,3.3c0.5,0.2,0.9,0.5,1.4,0.6c0.2,0.1,0.5,0.2,0.7,0.3c0.3,0.1,0.5,0.2,0.8,0.3l0,0c0,0,0,0,0,0
				c0.2,0.1,0.3,0.1,0.5,0.2c0.1,0,0.2,0.1,0.4,0.1c0.2,0.1,0.4,0.1,0.6,0.1l0.1,0c0.3,0,0.5,0.1,0.7,0.1c0,0,0,0,0.1,0
				c1,0,1.7-0.4,2.1-1.2c0.4-0.7,0.4-1.4,0-2.1v0c-0.1-0.2-0.3-0.4-0.4-0.7c-0.1-0.1-0.2-0.3-0.4-0.5c-0.1-0.1-0.2-0.2-0.3-0.3l0,0
				c0,0-0.1-0.1-0.1-0.1c-0.1-0.1-0.2-0.1-0.2-0.2l-0.1-0.1c-0.1-0.1-0.3-0.3-0.5-0.4l0,0c-0.1-0.1-0.3-0.2-0.4-0.3
				c-0.1,0-0.1-0.1-0.2-0.1c-0.4-0.3-0.9-0.6-1.5-1c-1.5-1-3.3-2.1-6.2-3.7C44.7,45.6,37.5,44,37,43.9L35.7,44.8z"/>
		</g>
	</g>
	<circle class="st10" cx="34.8" cy="43.4" r="2.8"/>
	<circle class="st11" cx="34.8" cy="43.4" r="2.6"/>
	<g>
		
			<linearGradient id="SVGID_00000133523899367048134940000003916832579482840742_" gradientUnits="userSpaceOnUse" x1="1336.2935" y1="3301.9358" x2="1348.427" y2="3301.9358" gradientTransform="matrix(-0.1023 -0.9948 0.9948 -0.1023 -3112.5054 1716.5347)">
			<stop  offset="0" style="stop-color:#FFFFFF"/>
			<stop  offset="1" style="stop-color:#757575"/>
		</linearGradient>
		<path style="fill:url(#SVGID_00000133523899367048134940000003916832579482840742_);" d="M40.8,42.8c0.3,3.3-2.1,6.3-5.4,6.7
			c-3.3,0.3-6.3-2.1-6.7-5.4c-0.3-3.3,2.1-6.3,5.4-6.7C37.5,37.1,40.5,39.5,40.8,42.8z M29.2,44c0.3,3.1,3.1,5.4,6.2,5
			s5.4-3.1,5-6.2c-0.3-3.1-3.1-5.4-6.2-5C31.1,38.1,28.8,40.9,29.2,44z"/>
	</g>
	<g>
		<path class="st2" d="M34.8,49.6c-3.4,0-6.2-2.8-6.2-6.2c0-3.4,2.8-6.2,6.2-6.2c3.4,0,6.2,2.8,6.2,6.2C41,46.8,38.2,49.6,34.8,49.6
			z M34.8,37.7c-3.2,0-5.8,2.6-5.8,5.8s2.6,5.8,5.8,5.8c3.2,0,5.8-2.6,5.8-5.8S38,37.7,34.8,37.7z"/>
	</g>
	
		<linearGradient id="SVGID_00000168798437482130863600000010291465104395626627_" gradientUnits="userSpaceOnUse" x1="31.0558" y1="38.347" x2="31.6871" y2="42.5905">
		<stop  offset="0" style="stop-color:#FFFFFF"/>
		<stop  offset="1" style="stop-color:#757575"/>
	</linearGradient>
	<path style="fill:url(#SVGID_00000168798437482130863600000010291465104395626627_);" d="M30.7,44.7c0,0-0.3-1.2,0.1-2.7
		c0.5-1.5,1.8-2.4,1.8-2.4s-0.9,0.9-1.2,2c-0.3,1-0.5,2.4-0.4,2.6C31,44.5,30.8,45,30.7,44.7z"/>
</g>
</svg>
