<?xml version="1.0" encoding="utf-8"?>
<!-- Generator: Adobe Illustrator 25.4.1, SVG Export Plug-In . SVG Version: 6.00 Build 0)  -->
<svg version="1.1" id="Layer_1" xmlns="http://www.w3.org/2000/svg" xmlns:xlink="http://www.w3.org/1999/xlink" x="0px" y="0px"
	 viewBox="0 0 64.33 80.27" style="enable-background:new 0 0 64.33 80.27;" xml:space="preserve">
<style type="text/css">
	.st0{fill:#044E8A;}
	.st1{fill:#3480BD;}
	.st2{fill:#CCB283;}
</style>
<g>
	<path class="st0" d="M63.89,50.43l-0.98,0.92H29.5c3.8,0,25.71-0.09,32.59-2.2c0,0,1.76-0.73,0.55-2.88
		c0.23,0.24,0.4,0.4,0.49,0.51C65.27,49.04,63.89,50.43,63.89,50.43z"/>
	<path class="st1" d="M62.09,49.16c-7.55,2.31-33.16,2.2-33.16,2.2c-8.14-3.87-8.49-12.42-8.49-12.42v-8.95
		c0,2.01,2.25,3.98,2.25,3.98l13.98,13.63l0.4-0.52c0,0-10.17-10.69-13.4-13.86c-3.24-3.18-3.24-6.99-3.24-6.99v-9.07
		c0,2.2,1.97,3.75,1.97,3.75l26.86,26.34l0.51-0.58c0,0-21.02-21.66-24.95-25.3c-3.93-3.64-4.39-8.84-4.39-8.84V0
		c0,3.58,4.1,7.91,4.1,7.91s33.23,33.39,38.1,38.37C63.86,48.43,62.09,49.16,62.09,49.16z"/>
	<path class="st2" d="M45.81,68.74l17.1-17.38H13.46c0,0-6.52,0-8.26,5.02c0,0-4.73,0.52-5.2,6.99c0,0,3.64-3.29,6.64-0.75
		C9.65,65.15,24.21,80,24.21,80h12.65L26.17,69.02h0.99L38.3,80h14.1L41.76,68.74H45.81z M12.08,57.79H9.79c0,0,0.44-2.11,2.29-2.11
		V57.79z"/>
</g>
</svg>
