<?xml version="1.0" encoding="utf-8"?>
<!-- Generator: Adobe Illustrator 25.4.1, SVG Export Plug-In . SVG Version: 6.00 Build 0)  -->
<svg version="1.1" id="Layer_1" xmlns="http://www.w3.org/2000/svg" xmlns:xlink="http://www.w3.org/1999/xlink" x="0px" y="0px"
	 viewBox="0 0 237.99 80.27" style="enable-background:new 0 0 237.99 80.27;" xml:space="preserve">
<style type="text/css">
	.st0{fill:#044E8A;}
	.st1{fill:#3480BD;}
	.st2{fill:#31302E;}
	.st3{fill:#CCB283;}
</style>
<g>
	<path class="st0" d="M237.56,49.1l-0.95,0.9h-32.53c3.7,0,25.03-0.09,31.74-2.14c0,0,1.72-0.71,0.53-2.8
		c0.22,0.23,0.39,0.39,0.48,0.49C238.91,47.75,237.56,49.1,237.56,49.1z"/>
	<path class="st1" d="M235.82,47.87c-7.35,2.25-32.28,2.14-32.28,2.14c-7.93-3.77-8.27-12.1-8.27-12.1v-8.71
		c0,1.96,2.19,3.88,2.19,3.88l13.61,13.27l0.39-0.51c0,0-9.9-10.41-13.04-13.5c-3.15-3.09-3.15-6.81-3.15-6.81V16.7
		c0,2.14,1.91,3.65,1.91,3.65l26.16,25.65l0.5-0.56c0,0-20.47-21.09-24.29-24.63c-3.82-3.55-4.28-8.61-4.28-8.61V0
		c0,3.48,3.99,7.71,3.99,7.71s32.36,32.51,37.1,37.36C237.54,47.16,235.82,47.87,235.82,47.87z"/>
	<g>
		<path class="st2" d="M9.56,31.82c1.79,0,2.9,0.74,5.39,3.58c0.46,0.53,0.95,1.21,1.47,1.93c2.14,2.97,5.37,7.47,12.04,7.47
			c2.53,0,4.7-0.87,6.26-2.52c2.76-2.91,2.74-7.21,2.71-8.01v-2.54c1.52,0.66,2.97,0.79,3.81,0.79c0.22,0,0.4-0.01,0.53-0.02h26.52
			V19.7h-5.41v7.38H52.87V19.7h-5.41v7.38h-5.79l-0.11,0l-0.15,0.02c-0.02,0-1.58,0.11-2.65-0.88c-0.87-0.81-1.31-2.23-1.31-4.23h0
			V19.7h-5.41v14.62l0,0.13c0.03,0.75-0.13,2.96-1.24,4.11c-0.34,0.35-0.95,0.83-2.33,0.83c-3.89,0-5.63-2.42-7.64-5.22
			c-0.57-0.79-1.16-1.61-1.79-2.33c-2.6-2.97-5.1-5.42-9.46-5.42c-4.42,0-9.46,5.04-9.46,9.46h5.41
			C5.52,34.39,8.09,31.82,9.56,31.82z"/>
		<path class="st2" d="M62.58,44.12h6.78c0.05,0,0.11,0,0.18,0c1.02,0,4.52-0.19,7.12-2.69c1.24-1.19,2.72-3.37,2.72-6.99v-2.7
			c1.04,0.48,2.26,0.78,3.67,0.78h56.18v-9.73c0.02-0.64-0.03-3.59-2.24-5.91c-1.13-1.19-3.26-2.62-6.92-2.62h-9.25l9.75-10.71
			h-6.88l-15.12,16.12h21.5c1.38,0,2.38,0.3,2.97,0.91c0.78,0.79,0.78,2.02,0.78,2.02c0,0,0,0,0,0l0,4.5H83.06
			c-2.67,0-3.49-2.71-3.67-3.51V19.7h-5.41v14.74c0,1.39-0.34,2.39-1.03,3.07c-1.05,1.03-2.86,1.22-3.42,1.2l-6.94,0V44.12z"/>
		<rect x="145.15" y="3.54" class="st2" width="5.41" height="28.95"/>
		<path class="st2" d="M156.54,20.19l0,14.41c-0.01,0.42-0.18,4.11-3.29,4.11h-8.17v5.41h8.17c6.23,0,8.62-5.62,8.71-9.46V20.19
			H156.54z"/>
		<rect x="156.09" y="11.64" class="st2" width="5.41" height="5.32"/>
		<polygon class="st2" points="116.82,3.55 109.18,3.65 93.61,19.7 101.15,19.7 		"/>
		<rect x="60.97" y="55.74" class="st2" width="2.03" height="14.55"/>
		<path class="st2" d="M42.83,70.46l8.66,0.02c1.94,0,3.46-0.55,4.52-1.63c1.47-1.49,1.45-3.45,1.45-3.51v-4.27h-2.03v4.28
			c0,0.01-0.01,1.22-0.88,2.1c-0.67,0.67-1.69,1-3.05,1h-1.83v-7.31h-2.03v7.31h-4.5c-0.47-0.11-2.33-0.67-2.39-2.64
			c0-0.09-0.01-0.15-0.01-0.18l0,0c-0.04-3.25-2.34-4.42-4.5-4.42c-1.39,0-4.43,1.13-4.43,4.5c0,2.16-2.19,2.74-3.48,2.74
			c-3.34,0-3.34-2.4-3.34-3.19V55.14h-2.03v10.12c0,3.27,2.01,5.21,5.36,5.21c1.7,0,3.42-0.63,4.47-1.86
			c0.72,0.99,1.88,1.79,3.7,1.79c1.31,0,2.35-0.41,3.11-1.23c0.1-0.11,0.19-0.23,0.28-0.35C40.78,69.81,42.01,70.31,42.83,70.46z
			 M38.09,67.8c-0.36,0.38-0.88,0.57-1.61,0.57c-2.35,0-2.63-2.17-2.66-2.68c0.01-2.03,2-2.46,2.4-2.46c1.64,0,2.47,0.83,2.47,2.47
			c0,0.03,0,0.05,0,0.08l0,0C38.7,65.8,38.78,67.06,38.09,67.8z"/>
		<path class="st2" d="M5.49,73.92c-0.47,0.01-1.73,0.02-2.56-0.81c-0.6-0.59-0.9-1.54-0.9-2.83c0-3.74,3.3-3.99,3.63-4.01
			c2.53,0,3.33,0.91,4.25,1.96c0.89,1.02,1.9,2.17,4.22,2.17c3.87,0,5.38-2.65,5.63-4.06l0.02-5.21h-2.03v4.91
			c-0.12,0.46-0.77,2.32-3.62,2.32c-1.41,0-1.92-0.59-2.7-1.47c-1.03-1.18-2.32-2.65-5.81-2.65c0,0,0,0,0,0
			C3.68,64.31,0,65.65,0,70.29c0,1.85,0.51,3.28,1.5,4.27c1.33,1.31,3.08,1.4,3.84,1.4c0.06,0,0.12,0,0.17,0l5.33,0v-2.03H5.59
			L5.49,73.92z"/>
		<rect x="13.24" y="73.92" class="st2" width="2.4" height="2.03"/>
		<rect x="17.57" y="73.92" class="st2" width="2.4" height="2.03"/>
		<rect x="40.9" y="73.92" class="st2" width="2.4" height="2.03"/>
		<rect x="45.02" y="73.92" class="st2" width="2.4" height="2.03"/>
		<rect x="51.47" y="73.92" class="st2" width="2.4" height="2.03"/>
		<rect x="55.67" y="73.92" class="st2" width="2.4" height="2.03"/>
		<rect x="55.67" y="77.97" class="st2" width="2.4" height="2.03"/>
		<path class="st2" d="M92.27,61.28c-0.73-0.04-2.62-0.08-3.81,0.54v-0.56h-9.04v7.18H75.6l0-3.13c0.01-0.16,0.05-1.58-1.04-2.72
			c-0.82-0.87-2.03-1.3-3.57-1.3c-1.45,0-2.61,0.44-3.43,1.29c-1.23,1.28-1.19,2.99-1.18,3.13c0,1.92,1.23,4.76,4.61,4.76h2.59v0.41
			c0,2.52-3.13,3.03-3.26,3.05l0.3,2.01c1.73-0.25,4.99-1.63,4.99-5.06v-0.41h16.89c0.22,0,2.11,0,3.49-1.35
			c0.86-0.84,1.3-1.99,1.3-3.42c0-1.4-0.44-2.51-1.31-3.29C94.61,61.2,92.75,61.25,92.27,61.28z M73.57,68.45h-2.59
			c-2.43,0-2.58-2.28-2.59-2.77c0-0.01-0.02-1.03,0.63-1.7c0.42-0.44,1.08-0.66,1.95-0.66c0.96,0,1.66,0.22,2.09,0.66
			c0.51,0.52,0.5,1.24,0.5,1.29V68.45z M87.37,68.45h-5.92V63.3h5.94c-0.01,0.06-0.02,0.11-0.02,0.17V68.45z M94.56,67.67
			c-0.77,0.76-1.99,0.78-2.05,0.78c0,0,0,0,0,0H89.4v-4.84c0.39-0.23,1.69-0.37,2.82-0.29l0.09,0l0.08-0.01
			c0.01,0,1.41-0.12,2.22,0.62c0.43,0.39,0.64,0.97,0.64,1.78C95.24,66.58,95.02,67.22,94.56,67.67z"/>
		<path class="st2" d="M131.69,62.42c-0.73-0.77-1.75-1.16-3.04-1.16h-1.39l5.04-5.57h-2.74l-6.88,7.6h5.96
			c0.7,0,1.22,0.17,1.56,0.52c0.53,0.54,0.51,1.4,0.5,1.45v3.19h-6.86c-2.01,0-2.76-2.79-2.88-3.3v-4.01h-2.03v5.55
			c0,0.37-0.11,0.64-0.35,0.88c-0.73,0.71-2.42,0.82-2.98,0.81h-10.23v-7.23h-2.03v9.26l12.23,0c0.03,0,0.09,0,0.18,0
			c0.69,0,2.93-0.1,4.25-1.38c0.13-0.13,0.25-0.27,0.36-0.42c0.75,1.01,1.87,1.87,3.5,1.87h8.89l0-5.16
			C132.75,65.14,132.79,63.59,131.69,62.42z"/>
		<rect x="108.93" y="55.7" class="st2" width="2.17" height="2.03"/>
		<rect x="113.05" y="55.7" class="st2" width="2.17" height="2.03"/>
		<rect x="147.4" y="55.7" class="st2" width="2.17" height="2.03"/>
		<rect x="151.53" y="55.7" class="st2" width="2.17" height="2.03"/>
		<rect x="155.5" y="55.7" class="st2" width="2.17" height="2.03"/>
		<path class="st2" d="M159.44,65.83c0,0.76-0.2,1.33-0.62,1.75c-0.81,0.8-2.19,0.79-2.22,0.79h-2.96v-7.23h-2.03v7.23h-5.51v-7.23
			h-2.03v7.23h-5.55v-7.23h-2.03v10.2c0,0.83-0.22,1.43-0.67,1.85c-0.87,0.82-2.36,0.73-2.37,0.74l-0.14,2.02
			c0.02,0,0.11,0.01,0.26,0.01c0.65,0,2.39-0.12,3.63-1.27c0.88-0.82,1.32-1.94,1.32-3.35V70.4h18.05c0.01,0,0.04,0,0.07,0
			c0.42,0,2.28-0.08,3.59-1.36c0.82-0.8,1.24-1.88,1.24-3.21v-4.7h-2.03V65.83z"/>
	</g>
	<path class="st3" d="M219.96,66.93L236.61,50h-48.15c0,0-6.35,0-8.04,4.89c0,0-4.61,0.51-5.06,6.81c0,0,3.55-3.21,6.47-0.73
		c2.93,2.47,17.1,16.93,17.1,16.93h12.31l-10.41-10.69h0.96l10.85,10.69h13.73l-10.35-10.97H219.96z M187.11,56.27h-2.23
		c0,0,0.43-2.05,2.23-2.05V56.27z"/>
</g>
</svg>
