<?xml version="1.0" encoding="utf-8"?>
<!-- Generator: Adobe Illustrator 25.4.1, SVG Export Plug-In . SVG Version: 6.00 Build 0)  -->
<svg version="1.1" id="Layer_1" xmlns="http://www.w3.org/2000/svg" xmlns:xlink="http://www.w3.org/1999/xlink" x="0px" y="0px"
	 viewBox="0 0 154.69 80" style="enable-background:new 0 0 154.69 80;" xml:space="preserve">
<style type="text/css">
	.st0{fill:#BC2330;}
</style>
<path class="st0" d="M52.8,39.51c-2.78-0.14-5.63-0.28-8.49-0.42C45.22,24.59,57.95,5.96,77.53,1.3
	c24.14-5.74,44.26,8.43,50.14,24.11c-0.76,0.35-1.53,0.7-2.31,1.06C115.14,13.09,102.35,5.32,85.03,8.83
	C68.21,12.24,57.85,22.92,52.8,39.51z"/>
<path d="M0,75.05c27.73,3.6,54.67-0.49,81.23-7.92c26.49-7.41,51.6-17.79,73.01-35.64c0.15,0.17,0.3,0.33,0.45,0.5
	c-3.16,3.18-6.13,6.57-9.51,9.5c-14.53,12.64-31.61,20.74-49.61,27.1c-13.28,4.69-26.92,8.01-40.87,9.85
	c-14.31,1.88-28.67,2.4-42.96-0.32C7.78,77.36,3.91,76.08,0,75.05z"/>
<path d="M150.96,25.96c-3.97,3.24-7.74,6.77-11.96,9.66c-17.58,12.06-37.4,18.67-58.13,22.75c-11.85,2.33-23.87,3.7-35.97,2.54
	c-5.3-0.51-10.53-1.72-15.78-2.66c-0.75-0.13-1.45-0.53-2.07-0.67C71.78,60.53,112.9,49.89,150.96,25.96z"/>
<path d="M35.33,41.92c39.07,4.78,76.08-2.32,111-21.45c-2.81,2.15-5.48,4.5-8.44,6.41c-13.04,8.41-27.53,13.23-42.61,16.34
	c-13.42,2.77-27,4.39-40.71,2.87c-5.68-0.63-11.26-2.1-16.88-3.25C36.73,42.64,35.83,42.12,35.33,41.92z"/>
</svg>
