<?xml version="1.0" encoding="utf-8"?>
<!-- Generator: Adobe Illustrator 25.4.1, SVG Export Plug-In . SVG Version: 6.00 Build 0)  -->
<svg version="1.1" id="Layer_1" xmlns="http://www.w3.org/2000/svg" xmlns:xlink="http://www.w3.org/1999/xlink" x="0px" y="0px"
	 viewBox="0 0 642.19 80" style="enable-background:new 0 0 642.19 80;" xml:space="preserve">
<style type="text/css">
	.st0{fill:#BC2330;}
</style>
<g>
	<path d="M274.13,26.15c-0.51,0.63-1.18,1.19-1.51,1.91c-3.54,7.73-7.19,15.41-10.48,23.24c-2.45,5.83-6.78,6.04-12.58,4.68
		c-1.23-0.29-2.51-1.77-3.12-3.02c-2.94-5.99-5.67-12.08-8.46-18.14c-1.09-2.38-2.09-4.8-3.23-7.16c-0.28-0.58-0.96-0.97-1.45-1.45
		c-0.2,0.09-0.41,0.19-0.61,0.28c0,0.84,0,1.67,0,2.51c0,8.28-0.05,16.55,0.04,24.83c0.02,2-0.45,2.86-2.66,2.8
		c-6.42-0.18-5.46,0.68-5.49-5.46c-0.04-8.75-0.03-17.51,0.01-26.26c0-1.26,0.14-2.54,0.38-3.78c0.35-1.78,1.48-2.73,3.38-2.71
		c2.48,0.02,4.96,0.06,7.43-0.06c2.69-0.13,4.29,1.03,5.34,3.47c3.67,8.54,7.43,17.04,11.21,25.53c0.31,0.69,1.03,1.18,1.57,1.77
		c0.53-0.58,1.26-1.08,1.57-1.77c3.78-8.49,7.53-17,11.22-25.53c0.99-2.29,2.45-3.6,5.09-3.48c2.39,0.11,4.8,0.08,7.19,0.03
		c2.24-0.05,3.42,1.09,3.77,3.17c0.17,1.01,0.27,2.05,0.27,3.08c0.02,9.71-0.05,19.42,0.06,29.13c0.02,2.22-0.7,2.92-2.9,2.85
		c-6.14-0.19-5.21,0.71-5.25-5.17c-0.05-7.56-0.01-15.12-0.01-22.68c0-0.76,0-1.52,0-2.28C274.64,26.37,274.39,26.26,274.13,26.15z"
		/>
	<path d="M461.75,56.19c-4.55,0-9.13,0.32-13.64-0.08c-5.98-0.53-9.49-3.7-9.94-9.44c-0.48-6.16-0.49-12.41,0.02-18.57
		c0.48-5.8,4.96-9.48,10.98-9.6c8.31-0.17,16.63-0.18,24.93,0c6.08,0.13,10.38,3.65,10.92,9.61c0.56,6.14,0.57,12.41,0.02,18.55
		c-0.53,5.94-3.92,8.94-9.9,9.45C470.71,56.49,466.22,56.18,461.75,56.19z M461.72,26.05c0-0.02,0-0.05,0-0.07
		c-3.03,0-6.07-0.07-9.1,0.02c-4.71,0.14-6.34,1.76-6.44,6.39c-0.07,3.34-0.07,6.68,0,10.01c0.09,4.68,1.89,6.5,6.59,6.56
		c5.59,0.08,11.18,0.03,16.77,0.01c1.03,0,2.08-0.07,3.09-0.27c2.85-0.56,4.17-2.01,4.24-4.91c0.1-4.13,0.1-8.27,0.01-12.4
		c-0.07-3.51-1.59-5.14-5.09-5.31C468.43,25.93,465.07,26.05,461.72,26.05z"/>
	<path d="M367.6,18.37c4.88,0,9.75,0.05,14.63-0.03c1.75-0.03,2.61,0.33,2.54,2.35c-0.2,5.92,0.76,5.22-5.22,5.25
		c-7.6,0.03-15.19-0.01-22.79,0.02c-3.3,0.01-3.69,0.47-3.68,4.06c0.01,3.26,0.49,3.77,3.72,3.78c6.4,0.02,12.79-0.01,19.19,0.01
		c6.97,0.02,10.08,3.14,10.12,10.09c0.01,1.19,0.02,2.39,0,3.58c-0.12,5.62-3.01,8.9-8.66,9.01c-10.31,0.21-20.63,0.06-30.94,0.09
		c-1.46,0-2.04-0.67-1.96-2.05c0-0.08,0-0.16,0-0.24c0.03-6.33-0.54-5.27,5.1-5.31c8.07-0.05,16.15,0,24.22-0.02
		c3.01,0,3.72-0.76,3.75-3.87c0.03-3.7-0.52-4.46-3.6-4.48c-6.48-0.04-12.95,0.01-19.43-0.02c-6.96-0.04-10.05-3.17-10.07-10.13
		c-0.01-3.33-0.52-6.92,2.33-9.38c1.46-1.26,3.53-2.4,5.4-2.53c5.09-0.34,10.22-0.12,15.34-0.12
		C367.6,18.42,367.6,18.39,367.6,18.37z"/>
	<path d="M623.26,18.37c4.87,0,9.75,0.07,14.62-0.04c1.89-0.04,2.72,0.36,2.64,2.47c-0.23,5.83,0.9,5.11-5.28,5.14
		c-7.51,0.04-15.02-0.05-22.53,0.07c-1.17,0.02-3.16,0.67-3.33,1.38c-0.42,1.74-0.19,3.71,0.22,5.49c0.11,0.49,1.77,0.88,2.73,0.89
		c6.39,0.08,12.79,0.03,19.18,0.04c7.35,0.01,10.37,3,10.38,10.26c0,1.75,0.12,3.52-0.12,5.24c-0.62,4.52-3.58,7.12-8.66,7.2
		c-10.23,0.15-20.46,0.04-30.69,0.07c-1.29,0-1.81-0.44-1.9-1.79c-0.36-5.81-0.4-5.81,5.49-5.81c7.91,0,15.82,0.01,23.73-0.01
		c2.99-0.01,3.65-0.74,3.68-3.94c0.04-3.66-0.53-4.4-3.68-4.41c-6.55-0.04-13.11-0.02-19.66-0.01c-2.98,0-5.74-0.59-7.76-3
		c-2.47-2.95-2.66-12.93-0.31-15.96c1.54-1.98,3.54-3.19,6.13-3.2c5.03-0.01,10.07,0,15.1,0C623.26,18.42,623.26,18.39,623.26,18.37
		z"/>
	<path d="M530.23,49.15c0.09-1.55,0.18-2.39,0.18-3.23c0.01-8.35,0.06-16.71-0.03-25.06c-0.02-2.01,0.65-2.56,2.61-2.54
		c5.66,0.06,5.66-0.01,5.66,5.7c0,8.67,0.01,17.34-0.01,26.01c-0.01,5.49-1.09,6.54-6.62,6.54c-1.2,0-2.4,0-3.6,0
		c-2.4,0.01-4.17-0.94-5.66-2.93c-6.61-8.77-13.34-17.44-20.05-26.13c-0.43-0.55-1.13-0.89-2.32-1.79c0,1.56,0,2.38,0,3.2
		c0,8.35-0.05,16.71,0.04,25.06c0.02,1.95-0.56,2.64-2.58,2.62c-5.68-0.05-5.68,0.03-5.68-5.72c0-8.91-0.02-17.82,0.01-26.73
		c0.02-4.75,1.08-5.83,5.74-5.79c9.65,0.08,6.96-1.17,13.38,6.98c5.66,7.18,11.14,14.52,16.72,21.77
		C528.49,47.74,529.16,48.19,530.23,49.15z"/>
	<path d="M423.02,25.95c-0.87,0-1.73,0-2.6,0c-8.71,0-17.42-0.04-26.14,0.03c-1.96,0.02-2.71-0.59-2.65-2.6
		c0.16-6.01-0.61-4.96,4.88-4.99c10.47-0.06,20.94-0.03,31.41-0.01c3.94,0.01,4.55,1.02,5,4.96c0.61,5.35-1.29,8.38-6.33,10.67
		c-8.32,3.79-16.27,8.4-24.36,12.69c-0.7,0.37-1.24,1.02-1.86,1.54c0.12,0.25,0.24,0.49,0.37,0.74c0.85,0,1.69,0,2.54,0
		c8.79,0,17.58,0.06,26.38-0.04c2.14-0.03,3,0.49,2.94,2.77c-0.16,5.58,0.38,4.84-4.91,4.86c-10.39,0.02-20.78,0.01-31.17,0
		c-4.15,0-4.77-1.01-5.23-5.02c-0.62-5.45,1.35-8.5,6.46-10.81c8.04-3.64,15.7-8.14,23.49-12.31c0.8-0.43,1.48-1.1,2.21-1.66
		C423.31,26.5,423.17,26.22,423.02,25.95z"/>
	<path class="st0" d="M52.8,39.51c-2.78-0.14-5.63-0.28-8.49-0.42C45.22,24.59,57.95,5.96,77.53,1.3
		c24.14-5.74,44.26,8.43,50.14,24.11c-0.76,0.35-1.53,0.7-2.31,1.06C115.14,13.09,102.35,5.32,85.03,8.83
		C68.21,12.24,57.85,22.92,52.8,39.51z"/>
	<path d="M0,75.05c27.73,3.6,54.67-0.49,81.23-7.92c26.49-7.41,51.6-17.79,73.01-35.64c0.15,0.17,0.3,0.33,0.45,0.5
		c-3.16,3.18-6.13,6.57-9.51,9.5c-14.53,12.64-31.61,20.74-49.61,27.1c-13.28,4.69-26.92,8.01-40.87,9.85
		c-14.31,1.88-28.67,2.4-42.96-0.32C7.78,77.36,3.91,76.08,0,75.05z"/>
	<path d="M286.92,56.9c2.4-4.33,4.45-8.07,6.54-11.79c4.09-7.28,8.32-14.48,12.24-21.84c1.94-3.64,4.71-4.66,8.62-4.56
		c3.68,0.09,5.82,1.69,7.53,4.79c5.73,10.37,11.65,20.63,17.49,30.93c0.37,0.65,0.67,1.35,1.23,2.5c-3.16,0-5.83,0.08-8.5-0.06
		c-0.53-0.03-1.17-0.79-1.5-1.36c-5.02-8.94-9.98-17.91-15-26.85c-0.43-0.77-1.2-1.34-1.81-2c-0.52,0.66-1.13,1.25-1.53,1.97
		c-4.83,8.68-9.66,17.37-14.41,26.09c-0.87,1.59-1.89,2.36-3.76,2.23C291.87,56.78,289.66,56.9,286.92,56.9z"/>
	<path d="M541.13,55.96c0.93-1.82,1.55-3.16,2.27-4.45c5.64-10.05,11.26-20.11,16.98-30.11c2.84-4.96,11.66-5.1,14.57-0.15
		c5.79,9.87,11.38,19.86,17.04,29.8c0.82,1.44,1.61,2.89,2.7,4.84c-3.26,0-6.12,0.09-8.97-0.08c-0.52-0.03-1.05-1.1-1.43-1.77
		c-4.95-8.79-9.87-17.6-14.81-26.41c-0.38-0.67-0.78-1.33-1.42-2.4c-0.77,0.99-1.43,1.63-1.85,2.39
		c-4.96,8.97-9.87,17.96-14.84,26.93c-0.32,0.57-0.97,1.32-1.49,1.35C547.13,56.03,544.38,55.96,541.13,55.96z"/>
	<path d="M222.81,56.06c-3.16,0-5.77,0.09-8.37-0.07c-0.6-0.04-1.34-0.82-1.7-1.44c-5.04-8.93-10.02-17.89-15.03-26.83
		c-0.41-0.73-0.89-1.42-1.67-2.67c-1.37,2.3-2.52,4.13-3.56,6.02c-4.23,7.65-8.46,15.3-12.6,23c-0.79,1.46-1.74,2.08-3.4,2
		c-2.27-0.11-4.54-0.03-7.35-0.03c2.22-4.04,4.07-7.44,5.97-10.82c4.28-7.62,8.75-15.15,12.82-22.88c2.03-3.84,5.01-4.53,8.9-4.43
		c3.5,0.09,5.52,1.66,7.15,4.58c5.79,10.42,11.75,20.75,17.64,31.11C221.97,54.21,222.24,54.86,222.81,56.06z"/>
	<path d="M150.96,25.96c-3.97,3.24-7.74,6.77-11.96,9.66c-17.58,12.06-37.4,18.67-58.13,22.75c-11.85,2.33-23.87,3.7-35.97,2.54
		c-5.3-0.51-10.53-1.72-15.78-2.66c-0.75-0.13-1.45-0.53-2.07-0.67C71.78,60.53,112.9,49.89,150.96,25.96z"/>
	<path d="M35.33,41.92c39.07,4.78,76.08-2.32,111-21.45c-2.81,2.15-5.48,4.5-8.44,6.41c-13.04,8.41-27.53,13.23-42.61,16.34
		c-13.42,2.77-27,4.39-40.71,2.87c-5.68-0.63-11.26-2.1-16.88-3.25C36.73,42.64,35.83,42.12,35.33,41.92z"/>
</g>
</svg>
