<?xml version="1.0" encoding="utf-8"?>
<!-- Generator: Adobe Illustrator 25.4.1, SVG Export Plug-In . SVG Version: 6.00 Build 0)  -->
<svg version="1.1" id="Layer_1" xmlns="http://www.w3.org/2000/svg" xmlns:xlink="http://www.w3.org/1999/xlink" x="0px" y="0px"
	 viewBox="0 0 38.52 80" style="enable-background:new 0 0 38.52 80;" xml:space="preserve">
<style type="text/css">
	.st0{fill:#00758D;}
	.st1{fill:#FEE300;}
</style>
<path class="st0" d="M38.47,37.02c-0.12-0.18-0.41-0.41-0.82-0.53c-0.06,0-0.12,0-0.18,0c-0.23,0-0.29,0.29-0.29,0.29
	s-0.29-0.06-0.47-0.06c-0.06,0-0.12,0-0.18,0c-0.23,0.06-0.12,0.29-0.35,1.34c-0.23,1.05-1.11,2.51-1.28,2.51l0,0
	c-0.18,0-0.35-0.18-1.28-0.93c-0.23-0.18-0.58-0.35-0.93-0.47c-0.23-0.47-0.58-0.99-0.58-0.99v-0.12c0,0,0.18,0,0.23-0.58
	c0.06-0.53,0.06-0.82,0.06-0.82s0.88,0,0.76-1.93c-0.06-1.87-1.11-3.39-1.75-3.74c0,0-0.35-1.64-0.7-1.87c0,0-0.18-0.82-0.53-1.64
	s-0.47-1.4-0.47-1.4s0.29-0.18,0.23-0.35s-0.29-0.29-0.41-0.47s-0.35-0.82-0.35-0.82s0.06-0.58-0.12-0.88c0,0,0-1.23-0.64-2.39
	c-0.06-0.12-0.12-0.18-0.18-0.29c0.18-0.41,0.47-1.23,0.82-2.1c0.29-0.12,0.58-0.53,1.11-1.17c0.53-0.7,0.23-1.05-0.18-1.17
	c0.18-0.53,0.35-0.88,0.35-0.93c0.06-0.12,0-0.18-0.12-0.18c-0.06,0-0.12,0.06-0.18,0.12c0,0.06-0.18,0.41-0.35,0.93
	c-0.06,0-0.12,0-0.18,0c-0.06,0-0.18,0-0.23,0.06c-0.06-0.06-0.18-0.12-0.23-0.12c0.18-0.53,0.35-0.88,0.35-0.93
	c0.06-0.12,0-0.18-0.12-0.18c-0.06,0-0.12,0.06-0.18,0.12c0,0.06-0.18,0.41-0.35,0.93c-0.06,0-0.12,0-0.18,0s-0.18,0-0.23,0.06
	c-0.06-0.06-0.18-0.12-0.23-0.12c0.18-0.47,0.35-0.88,0.35-0.93c0.06-0.12,0-0.18-0.12-0.18c-0.06,0-0.12,0.06-0.18,0.12
	c0,0.06-0.18,0.41-0.35,0.93c-0.06,0-0.12,0-0.18,0c-0.29,0-0.41,0.18-0.64,0.76c-0.23,0.64-0.23,1.34-0.06,1.58
	c-0.12,0.35-0.23,0.64-0.29,0.82c-0.18-0.12-0.41-0.23-0.7-0.23c-0.53-0.06-0.82-0.06-0.93-0.06c-0.06,0-0.12,0-0.12,0
	s-0.23-1.17-0.23-4.26c-0.18-2.22-0.29-4.96-0.47-7.3c0.12-0.41,0.18-0.7,0.29-0.88c0.29-0.47,0.35-0.99,0.18-0.99l0,0
	c-0.18,0.06-0.35,0.06-0.53,0.12c-0.12-1.11-0.23-2.04-0.29-2.63l0,0l0.06-0.29c0.41,0.41,0.47,0.64,0.76,0.64l0,0
	c0.29,0,0.47-0.35,0.53-0.58c0.06-0.23-0.18-1.11-0.58-1.81C24.22,0.41,23.93,0,23.41,0l0,0c-0.53,0-0.88,0.35-0.88,1.05
	c0,0.64,0.18,0.76,0.35,0.88c0,0.06,0,0.12,0,0.12l-0.06,0.7c-0.29,0.7-0.76,1.87-1.28,3.21c0-0.18,0.06-0.35,0-0.47
	c0-0.06,0-0.12-0.06-0.12c-0.18,0-0.76,1.46-0.76,1.46s-0.12-0.18-0.23-0.18c-0.06,0-0.12,0.12-0.12,0.41
	c0,0.76-0.88,3.91-0.88,3.91l0,0c-0.35,0.88-0.58,1.46-0.64,1.58c-0.23,0.53-0.18,0.99-0.18,0.99s-0.06,0.06-0.12,0.53
	c0,0.35,0,0.41,0.06,0.41l0,0c0,0-0.29,3.21-0.35,3.85c-0.06,0.58-0.41,0.7-0.41,0.7s-0.18,0.99,0.18,1.28
	c0.18,0.12,0.29,0.18,0.35,0.18c0.06,0,0.06,0,0.06,0c0.06,0.18,0.12,0.41,0.12,0.41s-0.93,0.29-1.46,0.99c0,0-0.18,0-0.29,0
	c-0.06,0-0.12,0-0.12,0c0-0.06-0.18-0.18-0.41-0.18c-0.06,0-0.12,0-0.18,0c0,0-1.64,0.29-1.99,1.58c-0.18,0.7-0.23,1.34-0.23,1.93
	c-0.53-0.12-0.64-0.12-0.7-0.12s-0.06,0-0.06,0l-0.35-0.23c0-0.29,0-1.11,0-1.23c0-0.23,0.23-0.29,0.23-0.29
	c-0.06-0.23-0.29-0.64-0.76-0.64c-0.06,0-0.12,0-0.23,0c-0.18,0.06-0.41,0.29-0.47,0.64c0,0.35,0,0.93-0.18,1.4
	c0,0-0.12-0.06-0.29-0.06c-0.18,0-0.41,0.12-0.53,0.53c-0.18,0.82-0.58,2.8,0.18,4.85l-0.18,1.81c-0.18,0.06-0.29,0.18-0.29,0.35
	c0,0.29,0.12,0.35,0.12,0.35s-0.29,0.23-0.23,0.58c0.12,0.35,0.23,0.35,0.23,0.35s-0.06,0.29,0.06,0.53s0.29,0.23,0.29,0.23
	s-0.12,0.29,0.12,0.47c0.23,0.18,0.58,0.18,0.99,0.23c0.06,0,0.06,0,0.12,0c0.29,0,0.53-0.12,0.7-0.23c0.29,0.12,0.7,0.23,1.23,0.23
	h0.06c0.93,0,1.17-0.12,1.17-0.12l-0.23,1.05l-0.23,0.29c0,0-0.18,0.88-0.18,0.93c0,0.12,0.35,0.41,0.35,0.41s-0.35,3.15,0.29,5.66
	c0,0-0.18,0.53-0.06,0.93c0.12,0.41,0.18,0.47,0.18,0.47s0.12,1.17,0.58,1.93c0,0,0,0.7,0.35,1.81c0,0-0.23,0.06-0.12,0.64
	c0.12,0.64-0.06,1.99-0.06,1.99s-0.41-0.99-0.76-1.52c0,0,0.18-0.7-0.18-0.99c0,0-0.06-0.64-0.35-0.76c0,0,0.06-0.41-0.29-0.53
	c0,0,0.47-1.11,0.23-1.28c-0.12-0.06-0.35-0.12-0.58-0.12c-0.35,0-0.82,0.12-1.28,0.47c0,0-0.7-0.47-1.64-0.47c0,0,0,0-0.06,0
	c-0.88,0-1.34,0.35-2.28,1.52c0,0-0.29,0-0.35,0.41s-0.06,0.82,0,0.99c0.12,0.18,0.18,0.23,0.18,0.23s-0.41,0.64-0.18,1.28
	c0,0-0.12,0.7,0.23,1.11c0.35,0.41,0.7,0.47,0.99,0.47c0,0,0.12,0.29,0.53,0.29l0,0c0,0-0.06,0.88,0.53,1.05l-0.23,2.69
	c0,0-2.28,1.64-2.74,2.63c-0.47,0.99-0.12,1.64-0.12,1.64l-0.18,1.17c0,0-0.06,0-0.18,0c-0.18,0-0.53,0.12-0.82,0.64
	c0,0-0.41,0.06-0.64,0.53c0,0-0.35,0.35-1.05,0.53L3.9,63.12c0,0-0.35-0.35-0.88-0.35c-0.06,0-0.12,0-0.23,0
	c0,0-0.41-0.23-0.88-0.23c-0.23,0-0.41,0.06-0.64,0.18c0,0-0.06,0-0.12,0c-0.23,0-0.64,0.06-0.76,0.41
	c-0.18,0.47-0.18,0.76-0.18,0.76s-0.35,0.18-0.18,0.76c0.12,0.53,0.35,0.64,0.58,0.64c0.06,0,0.06,0,0.12,0c0.12,0,0.29,0,0.41,0
	c0.12,0,0.23,0,0.23,0s0.29,0.41,1.34,0.47s1.58,0.12,1.99,0.35c0.41,0.18,0.58,0.29,2.51,0.53c0.58,0.06,1.05,0.06,1.46,0.06
	c0.82,0,1.23-0.12,1.58-0.18l0,0c0.35,0,2.22,1.87,2.63,2.04c2.74,1.34,5.78,2.22,8.82,2.57l0,0c-0.12,0,0,1.46,0.06,1.64
	c0.23,0.53,0.76,0.93,1.34,1.17c0.35,0.18,0.7,0.29,0.99,0.35c0.58,0.18,0.88,0.23,0.99,0.29s0.18,0.12,0.23,0.18
	c0.64,0.93,1.23,1.69,1.69,2.86c0,0,0.29,0.88,1.52,2.28C28.6,79.94,28.72,80,28.84,80c0.18,0,0.41-0.12,0.41-0.12s0.18,0,0.35,0
	s0.35,0,0.41-0.06c0.18-0.12,0.41-0.29,0.41-0.53c0,0,0.58-0.18,0.76-0.35c0.23-0.29,0.53-0.82,0.23-1.17
	c-0.23-0.35-0.93-0.47-0.93-0.47s-0.41-0.47-0.93-0.47l0,0c0,0,0.06-0.64-0.18-1.17c-0.18-0.53-0.76-2.51-0.88-2.86
	c-0.06-0.12-0.06-0.18-0.12-0.23c0.12,0.06,0.23,0.06,0.35,0.18c0.99,0.7,2.45,0.58,2.74,0.93c0.7,0.88,1.28,1.58,1.81,2.8
	c0,0-0.29,0.41,0.23,1.23c0.35,0.53,0.64,0.64,0.76,0.64c0.06,0,0.12-0.06,0.12-0.06s0.23,0.18,0.47,0.41
	c0.06,0.06,0.18,0.06,0.29,0.06c0.23,0,0.41-0.12,0.41-0.12s0.06,0,0.18,0c0.18,0,0.47,0,0.58-0.12c0.18-0.12,0.35-0.29,0.35-0.53
	c0,0,0.41-0.18,0.53-0.41c0.12-0.23,0.35-0.64,0.12-0.99c-0.23-0.35-0.88-0.47-0.88-0.47s-0.29-0.35-0.7-0.35
	c-0.06,0-0.18,0-0.23,0.06c0,0,0.18-0.93-0.06-1.46c-0.23-0.53-0.88-2.45-1.05-2.86c-0.12-0.41-0.29-0.41-0.29-0.41
	s0.12-0.47-0.18-0.99c-0.29-0.53-0.76-0.53-0.82-0.53l0,0c0,0,0.88-0.82,0.58-2.16c-0.29-1.4-0.99-2.51-3.09-3.5
	c0,0,0.35,0,0.53-0.47c0.18-0.47,0-0.93-0.53-1.11c-0.18-0.06-0.35-0.12-0.53-0.12c-0.29,0-0.58,0.18-0.88,0.58
	c-0.47,0.76-0.12,1.46-0.12,1.46s-2.63-2.51-5.49-2.69c0,0-0.93-0.88-1.75-1.23c0,0,2.57-1.11,3.56-1.87c0,0,3.39,0.76,5.2,0.93
	c0.18,0,0.29,0,0.47,0c1.52,0,2.34-0.76,2.51-1.05c0,0,0.23-0.23,0.29-0.7c0,0,0.29-0.18,0.41-0.88c0.06-0.41-0.12-0.58-0.12-0.58
	s0.35-1.05-0.29-1.11v-0.23c-0.29,0-0.58,0.23-0.93,0.47s-0.7,0.47-1.17,0.47c-0.06,0-0.12,0-0.18,0c-1.05-0.12-4.2-1.58-4.2-1.58
	s0-0.18-0.82-0.58c-0.41-0.18-0.82-0.35-1.34-0.35c-0.47,0-1.11,0.18-1.99,0.64c0,0,1.11-4.32,0.23-6.07
	c0.41-3.27-0.12-4.44-0.12-4.44s0.47-3.97,0.12-5.61c0,0,0.18,0,0.23-0.29l1.17,4.55c0,0-0.18,0.29,0.06,0.47
	c0.12,0.06,0.29,0.12,0.41,0.12c0.23,0,0.41-0.12,0.29-0.41c-0.06-0.18-0.18-0.23-0.18-0.23l-0.76-3.91
	c0.41,0.47,0.76,0.82,1.28,1.34c0.93,0.93,1.69,1.69,2.39,1.75c0.06,0,0.06,0,0.12,0c0.53,0,0.99-0.41,1.17-0.53
	c0.23,0.23,1.17,0.41,1.75,0.41l0,0c0.35,0,0.7-0.18,0.93-0.41l0.64,0.06c0,0,0.93,0.82,1.75,0.88h0.06c0.76,0,1.52-1.11,1.87-2.28
	c0.35-1.17,0.58-1.64,0.82-1.75c0.12-0.06,0.29-0.06,0.47-0.06c0.06,0,0.12,0,0.18,0c0.06,0,0.12,0,0.18,0c0.06,0,0.06,0,0.06,0
	C38.47,37.49,38.59,37.2,38.47,37.02z M13.19,32c0-0.12-0.06-0.18-0.12-0.23l0.12-0.06c0,0,0.18-0.35-0.06-0.53
	c-0.23-0.12-0.53-0.12-0.53-0.12l0.06-1.46c0,0,0.93-1.23,1.23-2.51l0,0h0.06c0,0,0.18,0.7,0.18,2.16v2.22
	C14.24,31.36,13.65,31.71,13.19,32z M31.93,66.28c0.7,1.11,0.41,1.99,0.41,1.99c-1.46-0.93-1.99-2.8-2.69-3.62
	C29.65,64.64,31.23,65.17,31.93,66.28z M28.02,18.63c0.18-0.06,0.29-0.23,0.53-0.47c0,0.23,0.06,0.47,0.12,0.58
	c-0.29,0.76-0.58,1.46-0.76,1.87c-0.18-0.23-0.35-0.35-0.53-0.47C27.55,19.8,27.79,19.27,28.02,18.63z M27.03,18.45
	c0.18-0.06,0.29-0.23,0.53-0.47c0,0.23,0.06,0.47,0.12,0.58c-0.23,0.58-0.41,1.11-0.53,1.4c-0.18-0.12-0.29-0.12-0.29-0.12
	s-0.06-0.18-0.23-0.41C26.74,19.27,26.85,18.92,27.03,18.45z M29.25,38.77c-0.06,0.06,0,0.35,0.06,0.64
	c-0.29,0.35-0.41,0.76-0.41,0.76h-0.06c-1.17,0-3.68-3.04-4.5-4.09l-0.47-2.39c0,0,0.29-0.06,0.18-0.58
	c-0.12-0.47-0.47-0.64-0.47-0.64l-0.18-1.05l1.52-3.15c0,0,0.23,0.06,0.58,0.06c0.18,0,0.35,0,0.53-0.06c0,0,0.76,1.11,0.99,1.4
	c0.18,0.23,0.29,0.23,0.41,0.23c0.06,0,0.06,0,0.06,0l0.29,0.7c0,0-0.18,0.41,0.29,1.34c0.47,0.93,0.88,1.69,1.28,2.86
	c0.41,1.17,0.7,3.15,0.7,3.15S29.36,38.6,29.25,38.77z"/>
<g>
	<path class="st1" d="M19.03,15.77c0.06,0,0.18,0,0.18,0l0,0c0.06,0,0.12,0,0.18-0.06c0.06,0,0.12-0.06,0.18-0.06s0.12,0,0.12,0.06
		c0.12,0.23-0.35,0.35-0.53,0.35c-0.06,0.29,0.12,0.29,0.23,0.35c0.06,0.06,0.18,0.12,0.29,0.12c0.06,0,0.06,0,0.12-0.06
		c0,0,0-0.06,0.06-0.06l0,0c0.06,0,0.06,0.29,0.06,0.29l-0.06,0.06c-0.06,0-0.12-0.12-0.18-0.12h-0.06l0,0c-0.06,0-0.18,0-0.23,0
		c-0.06,0-0.18,0-0.23,0.06c0.06,0,0.12,0.12,0.12,0.18s-0.12,0.12-0.12,0.23s0,0.18,0.12,0.23c0.12,0.06,0.23,0.06,0.35,0.12
		c0.18,0.06,0.35,0.06,0.47,0.06c0.18,0,0.35-0.06,0.53-0.12c0.23-0.12,0.47-0.18,0.7-0.23c0.06,0,0.12,0,0.18-0.06
		c0,0,0-0.06,0-0.12c0-0.18,0-0.41,0.06-0.58c0.06-0.35,0.18-0.64,0.29-0.99c0.06-0.18,0.06-0.35,0.06-0.53
		c0-0.12-0.12-0.23-0.18-0.35c-0.12-0.23-0.35-0.53-0.58-0.64c-0.35-0.12-0.76-0.12-1.11-0.12c-0.06,0-0.06,0-0.12,0
		c-0.12,0-0.23,0-0.35,0.12l-0.06,0.06l0.06,0.06l0,0h0.06c0.12-0.06,0.18-0.06,0.29-0.06c0.06,0,0.18,0,0.23,0l0,0l0,0h-0.06
		c-0.12,0.06-0.23,0.12-0.29,0.23l-0.06,0.06v0.06c0,0,0,0,0.06,0h0.06c0.12-0.06,0.23-0.06,0.41-0.06c0.12,0,0.23,0,0.35,0.06
		c0.06,0.06,0.18,0.12,0.23,0.12c0.06,0,0.06,0,0.06,0c0.06,0,0.06-0.06,0.06-0.12c0.06,0,0.12,0.06,0.12,0.12
		c0,0,0.12,0.18,0.06,0.18l0,0c-0.06,0-0.06,0-0.12,0c-0.35,0-0.64,0.23-0.93,0.23c-0.06,0-0.06,0-0.12,0
		c-0.12,0-0.29-0.06-0.41-0.12s-0.18-0.18-0.23-0.29c0-0.06-0.06-0.23-0.18-0.23c0,0,0,0-0.06,0s-0.06,0.06-0.06,0.12
		c-0.12,0.35-0.18,0.7-0.29,0.99c0,0.06-0.06,0.29,0,0.35C18.97,15.77,18.97,15.77,19.03,15.77z M19.84,15.42
		C19.9,15.42,19.9,15.42,19.84,15.42L19.84,15.42c0.06-0.06,0.12,0,0.12,0c0.12,0.06,0.23,0.18,0.35,0.23
		c0.12,0.06,0.23,0.18,0.41,0.23c0.06,0.06,0.23,0.06,0.06,0.18c-0.06,0-0.12,0.06-0.18,0.06s-0.06,0-0.12,0c-0.06,0-0.06,0-0.12,0
		l0,0h-0.06c-0.06,0-0.18,0-0.23-0.06c-0.12-0.06-0.23-0.18-0.29-0.29C19.73,15.59,19.79,15.53,19.84,15.42z"/>
	<path class="st1" d="M17.22,25.81c0.06,0,0.06,0,0.12,0c0.82,0,2.04-0.7,2.28-2.1c0.23-1.23-0.7-1.64-1.34-1.64
		c-0.12,0-0.18,0-0.29,0.06c0,0-0.06,0.06-0.12,0.23c-0.12,0.23-0.29,0.41-0.47,1.05c0,0.12-0.12,0.12-0.18,0.29
		c-0.06,0.23,0.06,0.23,0.06,0.35c-0.12,0.7-0.06,1.11-0.06,1.4C17.16,25.69,17.22,25.81,17.22,25.81z"/>
	<path class="st1" d="M30.65,33.99c0.41,1.05,0.88,1.87,1.52,1.87h0.06c0.7-0.06,0.76-0.93,0.35-2.28
		c-0.35-1.34-0.88-1.87-1.58-2.16h-0.06C30.18,31.42,30.24,32.93,30.65,33.99z M31.7,33.11L31.7,33.11
		c0.12,0.06,0.06,0.12,0.06,0.23c0,0.12,0.06,0.18,0.06,0.29c0.06,0.06,0.06,0.12,0.12,0.18l0,0l0.06,0.06c0,0.06,0,0.12-0.06,0.12
		s-0.18-0.06-0.23-0.06c-0.06-0.06-0.18-0.12-0.18-0.18c-0.06-0.12-0.12-0.35,0-0.47C31.58,33.17,31.64,33.11,31.7,33.11z"/>
	<path class="st1" d="M21.65,52.61c0.06-0.7,0.06-1.46,0.18-2.16c0.06-0.58,0.12-1.11,0.18-1.69c-0.06,0-0.12-0.06-0.18-0.06
		s-0.35-0.06-0.41-0.12c0,0,0-0.06-0.06-0.06c0-0.06,0-0.29,0-0.58H21.3c-0.12,0-0.23,0-0.35,0.06c0,0.18,0,0.29-0.06,0.47v0.06
		c0,0.06-0.06,0.06-0.12,0.06l0,0c-0.06,0-0.12,0-0.18,0c-0.18-0.06-0.18-0.23-0.18-0.35v-0.06c-0.06,0-0.06,0-0.06,0
		c-0.18,0.76,0.18,5.31,0.29,6.95c0.23-0.12,0.58-0.29,0.93-0.47C21.6,54.01,21.65,53.31,21.65,52.61z"/>
	<path class="st1" d="M21.36,48.58C21.36,48.58,21.36,48.64,21.36,48.58c0.12,0.12,0.35,0.12,0.47,0.18c0.06,0,0.12,0.06,0.18,0.06
		c0-0.06,0-0.12,0-0.18c0.23,0,0.53,0.12,0.76,0.23c0.12-0.82,0.18-2.45,0.18-3.04c0-0.76,0-1.58-0.23-2.28
		c-0.06-0.18-0.12-0.29-0.18-0.41l-0.06-0.06c0,0.06-0.06,0.06-0.12,0.12c-0.18-0.18-0.53-0.47-0.64-0.64
		c-0.06-0.06-0.12-0.12-0.18-0.18c-0.23-0.12-0.47-0.23-0.7-0.29c-0.41-0.18-0.93-0.23-1.4-0.23l0,0c0,0,0.18,1.34,0.18,1.46
		c0.23,1.05,0.82,1.93,1.4,2.8c0.18,0.29,0.29,0.53,0.35,0.88c0,0.06-0.06,0.7-0.06,1.23C21.36,48.29,21.36,48.53,21.36,48.58z"/>
	<path class="st1" d="M22.41,43.09c0.06-0.06,0.06-0.06,0.12-0.12c0.47-0.7,0.47-3.21,0.41-4.26c0-0.29-0.06-0.53-0.06-0.82
		c0-0.12-0.06-0.76-0.12-0.76c-0.64-0.29-1.52-0.58-2.34-0.58c-0.47,0-0.88,0.12-1.23,0.41c-0.06,0.99,0.53,2.98,0.7,4.15
		c0.76,0.23,1.17,0.53,1.69,1.17c0.06,0.06,0.12,0.12,0.18,0.18C21.89,42.63,22.24,42.86,22.41,43.09z"/>
	<path class="st1" d="M21.95,35.15c0.06-0.06,0.12-0.06,0.18-0.12c0.12-0.06,0.23-0.12,0.35-0.12h0.06c0.06,0,0.18,0,0.23,0.06
		c0.29,0.06,0.47,0.18,0.7,0.35c-0.06-0.29-0.12-0.58-0.18-0.82c-0.06-0.35-0.12-0.64-0.18-0.99c-0.18-0.7-0.35-1.05-0.35-1.75
		c0-0.06,0-0.12,0-0.12c0-0.06-0.06-0.06-0.12-0.06c-0.18-0.12-0.35-0.18-0.53-0.29c-0.47-0.23-0.99-0.29-1.46-0.29
		c-0.35,0-0.7,0.06-1.05,0.06c-0.35,0-0.7,0.06-1.05,0.12c-0.12,0-0.41,0-0.47,0.12c-0.12,0.12-0.58,2.86,0,4.85
		c0.82-0.41,1.69-0.58,2.63-0.58c0.06,0,0.12,0,0.12,0c0.41,0,0.76,0.06,1.11,0.12c0-0.12,0-0.18,0.06-0.29
		C21.89,35.33,21.89,35.21,21.95,35.15z"/>
	<path class="st1" d="M26.68,24.18c0.47,0.12,0.82,0.18,1.28,0.18c0.12,0,0.23,0.06,0.35,0.06c0.06,0,0.18,0,0.23-0.06
		c0.12-0.06-0.12-0.7-0.12-0.7s-0.12-1.52-0.41-2.22c-0.29-0.64-0.88-1.11-1.52-1.34c-0.35-0.12-0.7-0.18-1.05-0.18h-0.06
		c-0.7,0-1.64,0.18-1.69,1.05c-0.06,0.64,0.12,1.23,0.41,1.75C24.75,23.59,25.68,24,26.68,24.18z"/>
	<path class="st1" d="M22.36,7.42c-0.12,0.35-0.12,0.64-0.18,0.99c0.23-0.35,0.47-0.82,0.64-1.46c0.12-0.58,0.35-0.88,0.64-1.05
		c-0.06-0.93-0.12-1.81-0.23-2.8c-0.06-0.06-0.12-0.06-0.12-0.06c-0.06,0-0.12,0-0.12,0.06c-0.18,0.82-0.23,1.46-0.41,2.28
		c-0.06,0.35-0.06,0.35-0.12,0.7C22.47,6.36,22.47,7.07,22.36,7.42z"/>
	<path class="st1" d="M22.76,9.87c-0.23,0.18-0.53,0.41-0.64,0.64c-0.18,0.35-0.35,0.7-0.47,1.05c0,0.06-0.06,0.12-0.12,0.18
		c-0.06,0.12-0.41,0-0.64,0c0,0.06,0,0.29-0.06,0.35c0.06,0,0.12,0.06,0.18,0.12c0.12,0.12,0.12,0.23,0.12,0.35
		c0,0.18,0,0.23-0.06,0.35c-0.12,0.12-0.23,0.23-0.41,0.29l0,0c0,0.06-0.06,0.18-0.06,0.23l0.58,0.12c0.53,0.06,1.23,0.58,1.23,1.05
		c-0.06,0.93-0.23,2.74-0.58,3.15s-1.23,0.7-1.69,0.7c0,0,0.41,0.99,1.75,0.99c0.06,0,0.12,0,0.18,0c0.12,0,0.23,0,0.29,0
		c0.35,0,0.7,0.06,0.99,0.06c0.29,0.06,0.53,0.06,0.7,0.06c0.12,0,0.18,0,0.18-0.06c-0.12-0.7-0.23-2.8-0.23-4.96
		c-0.12-1.87-0.23-3.85-0.35-6.19C23.47,8.99,23.17,9.52,22.76,9.87z"/>
	<path class="st1" d="M21.01,11.45C21.01,11.45,21.07,11.45,21.01,11.45c0.12,0,0.18,0,0.18,0c0.18-0.06,0.18-0.23,0.23-0.41
		c0.06-0.12,0.12-0.29,0.18-0.47c0.12-0.29,0.35-0.58,0.58-0.82c0.12-0.12,0.23-0.18,0.29-0.29c0.99-0.76,1.17-2.8,1.46-3.27
		c0.23-0.41,0.35-0.58,0.18-0.58h-0.06c-0.18,0.06-0.41,0.12-0.58,0.23L23.41,5.9c-0.29,0.18-0.53,0.53-0.64,1.05
		c-0.12,0.58-0.47,1.23-0.7,1.58c-0.12,0.18-0.23,0.35-0.23,0.35s0.06-0.99,0.23-1.69c0.23-0.76,0.12-1.4,0-1.64
		c-0.12-0.18-0.18-0.29-0.29-0.29c-0.06,0-0.12,0-0.18,0s-0.18,0.35-0.12,0.7c0.06,0.58-0.53,1.93-0.47,2.86
		c0.06,0.76-0.06,1.52-0.29,2.22c-0.06,0.12-0.06,0.23-0.12,0.35v0.06l0.06,0.06l0,0C20.78,11.45,20.9,11.45,21.01,11.45z"/>
	<path class="st1" d="M22.82,2.69c0,0,0.06,0,0.12,0c0.06,0,0.06,0,0.12,0c0.12,0,0.23,0.06,0.29,0.06h0.06
		c0.06,0,0.06-0.06,0.06-0.23c0-0.18,0-0.35,0-0.47c0-0.12-0.06-0.29-0.18-0.35C23.23,1.64,23.06,1.64,23,1.64s-0.12,0-0.12,0
		c-0.12,0.06-0.12,0.18-0.18,0.29c0,0.18-0.06,0.53-0.06,0.58C22.71,2.63,22.71,2.69,22.82,2.69z"/>
	<path class="st1" d="M23.11,1.34c0.06,0,0.12,0.06,0.18,0.06c0.35,0,0.58-0.29,0.53-0.47c0-0.23-0.23-0.64-0.58-0.7
		c-0.06,0-0.18-0.06-0.23-0.06c-0.18,0-0.35,0.06-0.35,0.23S22.71,1.23,23.11,1.34z"/>
	<path class="st1" d="M18.21,29.61C18.21,29.61,18.27,29.61,18.21,29.61c0.06,0,0.12,0,0.12,0s0.06,0,0.06,0.06
		c0.06,0.06,0.12,0.12,0.12,0.18c1.58-0.18,2.86-0.12,2.92-0.18c0.18-0.06,0.35-0.12,0.47-0.23c0.06,0,0.06-0.06,0.12-0.06l0,0
		c-0.18-0.18-0.29-0.47-0.23-0.7c0-0.06,0.06-0.06,0.06-0.12c0.12-0.12,0.23-0.18,0.35-0.23c0.12-0.06,0.23-0.06,0.35-0.06
		c0.06,0,0.12,0,0.18,0.06s0.18,0.06,0.23,0.12c0-0.06,0.06-0.06,0.06-0.12c0.12-0.23,0.29-0.41,0.41-0.64
		c0.06-0.06,0.06-0.12,0.12-0.18c0.35-0.7,0.88-1.87,0.58-2.57C24.05,24.7,23.76,24,23.52,24l0,0c-0.12,0-0.18,0.06-0.29,0.12
		c-0.47,0.29-0.93,0.53-1.4,0.76c-0.12,0.06-0.29,0.12-0.41,0.18c-0.29,0.12-0.58,0.23-0.82,0.29c-0.18,0.06-0.35,0.12-0.53,0.18
		c-0.18,0.06-0.29,0.12-0.47,0.12c-0.53,0.58-1.46,0.93-2.28,1.11c0,0.64,0.12,1.23,0.18,1.81c0.06,0.41,0.12,0.7,0.23,1.11l0,0
		C17.92,29.61,18.09,29.61,18.21,29.61z"/>
	<path class="st1" d="M14.01,50.39L14.01,50.39c-0.18,0.06-0.23,0.35-0.12,0.47l0.06,0.06c0.12,0.06,0.23,0.12,0.35,0.12l0,0h0.06
		l0.06-0.06c0-0.06,0-0.12-0.06-0.12C14.3,50.69,14.18,50.39,14.01,50.39z"/>
	<path class="st1" d="M14.59,50.63h0.06h0.06c0.06,0,0.06-0.06,0.12-0.12v-0.06c0-0.06-0.06-0.12-0.06-0.18
		c-0.06-0.06-0.12-0.18-0.18-0.23c-0.06-0.12-0.18-0.18-0.29-0.23h-0.06l0,0l-0.06,0.06c-0.06,0.18-0.06,0.18,0.06,0.35
		C14.36,50.28,14.41,50.45,14.59,50.63C14.53,50.57,14.53,50.63,14.59,50.63z"/>
	<path class="st1" d="M14.94,49.99L14.94,49.99c0.06,0,0.06-0.06,0.12-0.06c0-0.06,0-0.12,0-0.12c0-0.12-0.12-0.29-0.18-0.35
		c-0.06-0.06-0.06-0.12-0.12-0.18c-0.12-0.12-0.29-0.18-0.41-0.18l0,0H14.3c-0.06,0.06-0.12,0.23-0.06,0.29
		c0.06,0.06,0.12,0.12,0.18,0.12C14.59,49.58,14.76,49.75,14.94,49.99C14.94,49.93,14.94,49.99,14.94,49.99z"/>
	<path class="st1" d="M11.55,57.28c0.29,0,0.58,0.06,0.88,0.18c0.58-0.88,1.52-1.52,2.51-1.64c0.35-0.06,0.64-0.06,0.99-0.06
		c0.06,0,0.06,0,0.12,0c0.06,0,0.12,0,0.18,0s0.18,0,0.23,0.06c0.18,0.06,0.29,0.18,0.35,0.29c0.18-1.28-0.23-2.57-0.64-3.8l0,0
		c-0.06-0.18-0.12-0.41-0.23-0.58c-0.12-0.29-0.29-0.53-0.47-0.82c-0.06-0.06-0.29-0.41-0.35-0.41c0,0-0.06,0-0.06,0.06
		c0,0.23-0.06,0.53-0.12,0.76c-0.12,0.35-0.23,0.64-0.41,0.93c-0.35,0.58-0.76,1.11-1.28,1.52c-0.23,0.18-0.53,0.35-0.76,0.58
		c-0.29,0.23-0.53,0.53-0.82,0.88c-0.29,0.35-0.53,0.64-0.76,1.05c-0.18,0.35-0.29,0.82-0.23,1.23
		C10.91,57.34,11.2,57.28,11.55,57.28z"/>
	<path class="st1" d="M31.99,57.05c0.76,0,1.11-0.35,1.52-0.64c0.53-0.41,0.58-0.99,0.47-1.17c0-0.06-0.06-0.06-0.12-0.06
		c-0.18,0-0.47,0.23-0.99,0.64c-0.35,0.23-0.64,0.35-0.99,0.35c-0.29,0-0.7-0.12-1.17-0.23c-0.99-0.35-3.33-1.28-3.33-1.28
		c-0.29,0.47-0.7,0.64-0.7,0.64s2.28,1.05,4.15,1.58C31.29,56.99,31.7,57.05,31.99,57.05z"/>
	<path class="st1" d="M33.92,56.35L33.92,56.35c-0.23,0.23-0.53,0.53-0.88,0.7c-0.35,0.23-0.64,0.35-1.05,0.35
		c-0.35,0-0.76-0.06-1.34-0.23c-1.34-0.35-4.38-1.64-4.38-1.64c-0.29,0.18-1.05,0.58-1.05,0.58s0.18,0.12,1.93,0.7
		c1.69,0.58,3.27,1.17,4.67,1.17c0.06,0,0.12,0,0.23,0c1.17-0.06,1.81-0.88,1.87-1.28C34.03,56.58,33.98,56.35,33.92,56.35z"/>
	<path class="st1" d="M32.87,58.28c-0.06,0-0.47,0.18-0.88,0.18h-0.06c-0.23,0-0.82,0-1.34-0.06c-1.58-0.23-6.01-1.81-6.01-1.81
		c-0.23,0.18-1.11,0.7-1.11,0.7s4.15,1.17,6.72,1.52c0.23,0.06,0.58,0.06,0.99,0.06C31.7,58.8,32.34,58.69,32.87,58.28L32.87,58.28z
		"/>
	<path class="st1" d="M12.9,26.69L12.9,26.69c0-0.12,0-0.23-0.06-0.35c0,0,0-0.06-0.06-0.06c-0.06-0.12-0.06-0.23-0.12-0.35
		c-0.06-0.12-0.12-0.18-0.18-0.29c0-0.06,0-0.06-0.06-0.12c-0.06-0.12-0.06-0.29-0.23-0.35h-0.06c-0.06,0-0.12,0.06-0.18,0.12
		c-0.12,0.29-0.23,0.53-0.47,0.76c-0.06,0.12-0.18,0.18-0.23,0.29c0,0.06-0.12,0.35-0.06,0.41h0.06c0.12,0,0.18-0.06,0.29-0.12
		c0.18-0.18,0.29-0.35,0.53-0.41h0.06c0.12,0,0.29,0.06,0.41,0.18c0.06,0.06,0.06,0.12,0.12,0.18
		C12.78,26.63,12.84,26.69,12.9,26.69z"/>
	<path class="st1" d="M20.9,61.26c-0.99,0-1.99,0.35-2.69,0.99c0.58,0.29,1.23,0.35,1.81,0.47c0.12,0,0.18,0.06,0.29,0.06
		c0.82,0.23,1.58,0.58,2.34,0.99c0.23,0.12,0.47,0.29,0.64,0.47c0.47,0.41,0.76,1.11,1.34,1.46c0.29,0.18,0.7,0.23,1.05,0.35
		c0.41,0.18,0.82,0.35,1.17,0.58c0.29,0.18,0.64,0.82,0.82,1.11c0.29,0.41,0.47,0.88,0.7,1.28c0.47,0.64,0.82,0.88,1.52,1.11
		c0.88,0.29,1.69,0.58,2.69,0.64h0.06c0.18,0,0.41-0.06,0.47-0.23c0.06-0.12-0.06-0.29-0.12-0.35c-0.58-0.76-1.58-0.99-2.1-1.87
		c-0.58-0.93-1.11-1.87-1.58-2.86c-0.29-0.64-0.64-1.34-1.4-1.46c-0.06,0-0.18,0-0.23,0c-0.29,0-0.58,0.06-0.82,0.06
		c-0.29,0.06-0.58,0.06-0.82,0.06c-0.12,0-0.23,0-0.35,0c-1.05-0.23-1.58-0.82-1.99-1.52c-0.35-0.7-1.17-1.05-2.22-1.28
		C21.3,61.26,21.13,61.26,20.9,61.26z"/>
	<path class="st1" d="M26.21,26.86c0.99-0.64,1.99-0.93,3.21-1.05c0,0-0.12-0.47-0.76-0.53c-1.99,0.23-3.27,1.17-3.27,1.17
		S25.8,26.63,26.21,26.86z"/>
	<path class="st1" d="M14.36,48.53c-0.12,0.06-0.12,0.12-0.06,0.23c0,0.12,0.06,0.06,0.29,0.12c0.23,0.06,0.29,0.23,0.41,0.23
		c0,0,0,0,0.06,0c0.12-0.06-0.06-0.41-0.18-0.47c-0.12-0.06-0.23-0.12-0.35-0.12C14.47,48.47,14.41,48.47,14.36,48.53z"/>
	<path class="st1" d="M14.18,47.82c-0.12,0-0.18,0-0.18,0.12c0,0.06,0.06,0.18,0.12,0.23c0,0,0.06,0,0.12,0h0.06h0.06
		c0.18,0,0.29,0,0.41,0.06c0.06-0.06-0.06-0.23-0.12-0.29c-0.06-0.06-0.23-0.12-0.35-0.12C14.24,47.82,14.24,47.82,14.18,47.82z"/>
	<path class="st1" d="M14.01,47.47c0.06,0,0.06,0,0.06,0c0.06,0,0.06,0,0.12,0h0.06h0.06h0.06l0.06-0.06h-0.06H14.3
		c-0.06-0.06-0.18-0.06-0.23-0.12h-0.06c-0.06,0-0.12,0-0.18,0.06C13.71,47.42,13.89,47.47,14.01,47.47z"/>
	<path class="st1" d="M11.9,50.16c0.06-0.12-0.06-0.41-0.18-0.47c-0.23-0.12-0.47-0.23-0.76-0.23c-0.12,0-0.23,0-0.35,0.06
		c-0.06-0.18,0.64-0.23,0.7-0.23c0.18,0,0.35-0.06,0.53-0.06s0.29,0,0.47,0.06c0.29,0.12,0.53,0.18,0.82,0.29
		c0.12,0.06,0.23,0.12,0.29,0.12c0.41,0,0.47-0.53,0.47-1.28c-0.06-0.93-0.53-1.34-0.7-1.4c-0.18-0.06-0.23,0-0.41-0.12
		c-0.18-0.06,0-0.29-0.76-0.64c-0.18-0.06-0.35-0.12-0.53-0.12c-0.53,0-0.93,0.35-1.23,0.64c-0.41,0.35-0.23,0.58,0,0.7
		c-0.41,0.18-0.41,0.41-0.64,0.47C9.45,48,9.28,48,9.1,48.29s-0.23,1.93-0.12,2.16c0,0.06,0.06,0.12,0.18,0.12
		c0.18,0,0.53-0.23,0.7-0.23l0,0c0.23,0,0.12,0.29,0.29,0.41c0.06,0.06,0.18,0.06,0.29,0.06c0.23,0,0.53-0.06,0.93-0.23
		C11.55,50.51,11.84,50.39,11.9,50.16z M10.15,48.23c-0.06,0-0.06,0-0.12,0s-0.06,0-0.12,0s-0.06,0-0.12-0.06
		c-0.06-0.12,0-0.23,0.12-0.29c0.18-0.12,0.35-0.29,0.53-0.35c0.29-0.18,0.64-0.23,0.99-0.23c0.18,0,0.41,0.06,0.58,0.12
		c0.18,0.06,0.41,0.18,0.53,0.35c-0.18,0.23-0.35,0.53-0.53,0.76c-0.23,0.23-0.47,0.41-0.76,0.41l0,0c-0.06,0-0.18,0-0.23-0.06
		c-0.12-0.06-0.18-0.23-0.23-0.29C10.56,48.29,10.38,48.23,10.15,48.23z"/>
	<path class="st1" d="M11.03,47.77c0.06,0.06,0.06,0.23,0.06,0.29l0,0l0,0c0.06,0,0.06,0,0.12,0c0.18,0,0.35-0.06,0.53-0.12
		c0.06-0.06,0.12-0.06,0.12-0.18c0-0.06,0-0.06-0.06-0.12c0-0.06-0.06-0.06-0.06-0.12c-0.06,0-0.06-0.06-0.12-0.06
		c-0.12,0-0.18-0.06-0.23-0.06c-0.12,0-0.23,0-0.41,0.06c-0.06,0-0.06,0.06-0.06,0.06C10.97,47.71,11.03,47.77,11.03,47.77z"/>
	<path class="st1" d="M11.14,62.54c0.99,0.18,1.17,0.29,1.69,0.76c0.18,0.12,0.35,0.18,0.64,0.18c0.58,0,1.28-0.29,1.28-0.29
		s0-0.58-0.82-0.58c-0.76,0-1.17,0-1.34-0.58c0,0,0.06-0.18,0.58-0.18c0.18,0,0.35,0,0.58,0.06c1.05,0.18,1.34,0.41,1.99,0.93
		c0,0,0.7-0.58,0.35-1.52c-0.23-0.76-1.05-0.99-1.69-0.99c-0.18,0-0.29,0-0.47,0.06c-0.64,0.12-1.46,0-2.1,0.53
		c-0.64,0.53-0.53,0.7-1.11,0.7s-0.7,0.12-0.7,0.12S10.15,62.36,11.14,62.54z"/>
	<path class="st1" d="M8.75,62.48c0,0.06,0,0.18,0.12,0.18l0,0h0.06c0.06-0.06,0.12-0.18,0.18-0.23c0.06-0.12,0.12-0.23,0.18-0.35
		c0.06-0.06,0.23-0.18,0.23-0.23c0.12-0.23-0.18-0.29-0.35-0.29H9.1c-0.12,0-0.29,0.06-0.41,0.18c-0.06,0.12-0.06,0.23-0.06,0.29
		C8.75,62.19,8.75,62.31,8.75,62.48z"/>
	<path class="st1" d="M7.87,62.36c0.06,0.06,0.12,0.06,0.23,0.06h0.06c0.06,0,0.06,0,0.12,0s0.06-0.12,0.12-0.18
		c0.06-0.18,0.06-0.41,0.12-0.58c0-0.12,0.06-0.23,0-0.35C8.46,61.26,8.4,61.2,8.34,61.2c-0.18,0-0.41,0.29-0.47,0.41
		c-0.06,0.12-0.06,0.23-0.06,0.41C7.7,62.13,7.76,62.31,7.87,62.36z"/>
	<path class="st1" d="M2.15,62.95c0,0-0.06,0-0.12,0c-0.41,0.12-0.47,0.53-0.47,0.88c0,0.06,0,0.12,0.06,0.18h0.06l0,0
		c0.06,0,0.18-0.06,0.23-0.12s0.06-0.18,0.12-0.29C2.03,63.47,2.44,62.95,2.15,62.95z"/>
	<path class="st1" d="M3.61,63.12c-0.12-0.06-0.18-0.06-0.23-0.06c-0.06,0-0.06,0-0.12,0s-0.18,0-0.23,0.06
		c-0.18,0.06-0.53,0.41-0.35,0.58c0.06,0.06,0.12,0.06,0.18,0.06c0.23,0,0.53-0.29,0.7-0.41c0.06-0.06,0.12-0.12,0.18-0.18
		C3.61,63.18,3.61,63.18,3.61,63.12L3.61,63.12z"/>
	<path class="st1" d="M31.93,38.77c-0.23-0.35-0.64-0.7-1.11-0.7c-0.12,0-0.18,0-0.29,0.06c-0.18,0.06-0.29,0.18-0.41,0.29l0,0
		c0,0.06,0.06,0.06,0.06,0.12c0.12,0.06,0.29,0.18,0.35,0.29c0.12,0.29-0.12,0.47-0.12,0.76c0,0.12,0.06,0.23,0.18,0.23l0,0
		c0.06,0,0.12,0,0.12-0.06c0.06,0,0.12-0.06,0.12-0.06h0.06l0.06,0.06c0.12,0.12,0.23,0.18,0.35,0.18l0,0
		c0.18,0,0.29-0.12,0.47-0.12l0,0c0.06,0,0.06,0,0.12,0c0.06,0,0.06,0,0.12,0c0.12,0,0.18-0.06,0.18-0.23
		c0-0.29-0.18-0.53-0.29-0.76C31.99,38.83,31.93,38.77,31.93,38.77z"/>
	<path class="st1" d="M18.56,21.72c0.23,0,0.99,0.29,1.05,0.35c0.29,0.23,0.41,0.47,0.53,0.82c0.06,0.29,0.06,0.58,0.06,0.82
		c0,0.29-0.12,0.53-0.23,0.76c-0.06,0.18-0.06,0.23,0.06,0.23c0.12,0,0.29-0.12,0.41-0.18c0.23-0.12,0.41-0.29,0.64-0.41
		c0.47-0.23,0.88-0.53,1.28-0.88c0.18-0.12,0.41-0.29,0.58-0.41c0.23-0.18,0.23-0.18,0.18-0.47c-0.12-0.41-0.23-0.82-0.18-1.23
		c0-0.12,0.12-0.93,0.29-0.93c-1.34,0-2.74,0.35-4.03,0.7c-0.12,0-0.23,0.06-0.35,0.12c-0.23,0.12-0.29,0.53-0.35,0.76
		C18.5,21.78,18.5,21.72,18.56,21.72z"/>
	<path class="st1" d="M20.55,48.58c0.06,0,0.12,0,0.18,0l0,0c0.06,0,0.12,0,0.12-0.06v-0.06c0-0.18,0.06-0.29,0.06-0.47
		c0-0.23,0-0.47,0-0.76c-0.06-0.23-0.06-0.47-0.18-0.7c-0.06-0.12-0.12-0.29-0.18-0.35c-0.12-0.12-0.23-0.18-0.35-0.18h-0.06
		c-0.18,0-0.35,0.12-0.35,0.29c0,0.12,0.06,0.18,0.12,0.23c0.18,0.35,0.29,0.76,0.35,1.17c0.06,0.18,0.06,0.29,0.06,0.47v0.06
		C20.37,48.35,20.37,48.53,20.55,48.58z"/>
	<path class="st1" d="M22.01,48.82c-0.06,0.58-0.12,1.11-0.18,1.69c-0.06,0.7-0.12,1.4-0.18,2.16c-0.06,0.7-0.06,1.4-0.12,2.1
		c0.47-0.23,0.93-0.47,1.23-0.58c0-0.12,0.06-0.23,0.06-0.35c0.12-0.64,0.18-1.28,0.29-1.93s0.23-1.23,0.18-1.87
		c0-0.35-0.12-0.76-0.35-0.99l-0.06-0.06c-0.06-0.06-0.12-0.06-0.18-0.12c-0.23-0.12-0.47-0.18-0.76-0.23
		C22.01,48.64,22.01,48.7,22.01,48.82z"/>
	<path class="st1" d="M17.51,56.47c-0.06,0-0.06,0-0.12,0h-0.06c-0.41-0.06-0.76-0.18-1.11-0.23c-0.06,0-0.12,0-0.18,0
		c-0.06,0-0.12,0-0.12,0c-0.41,0-0.88,0.12-1.17,0.41c-0.41,0.35-0.53,0.93-0.47,1.4c0.06,0.53,0.35,0.99,0.76,1.34
		c0.35,0.29,0.7,0.53,1.05,0.82c0.53,0.53,0.93,1.17,1.11,1.87c0.23-0.47,0.29-1.05,0.18-1.58c-0.12-0.53-0.35-1.05-0.58-1.52
		c0.18,0.06,0.35,0.12,0.53,0.12c0.23,0,0.47-0.06,0.7-0.18c0.53-0.23,0.93-0.7,1.4-1.05c0.47-0.41,0.99-0.7,1.58-1.05
		c0.41-0.23,0.82-0.47,1.23-0.7c1.46-0.76,2.98-1.4,4.5-2.04c-0.47-0.23-0.88-0.41-1.4-0.41c-0.18,0-0.29,0-0.47,0.06
		c-0.64,0.12-1.17,0.47-1.75,0.76c-0.06,0.06-0.18,0.06-0.23,0.12c-0.23,0.12-0.47,0.23-0.7,0.29c-0.23,0.12-0.53,0.23-0.76,0.35
		c-0.29,0.12-0.64,0.29-0.93,0.41c-0.12,0.06-0.23,0.12-0.29,0.18c-0.29,0.18-0.64,0.23-0.99,0.35c-0.06,0-0.12,0.06-0.18,0.06
		C18.38,56.29,17.92,56.47,17.51,56.47z"/>
</g>
</svg>
