<?xml version="1.0" encoding="utf-8"?>
<!-- Generator: Adobe Illustrator 25.4.1, SVG Export Plug-In . SVG Version: 6.00 Build 0)  -->
<svg version="1.1" id="Layer_1" xmlns="http://www.w3.org/2000/svg" xmlns:xlink="http://www.w3.org/1999/xlink" x="0px" y="0px"
	 viewBox="0 0 171.09 80" style="enable-background:new 0 0 171.09 80;" xml:space="preserve">
<style type="text/css">
	.st0{fill:#FEE300;}
	.st1{fill:#00758D;}
</style>
<g>
	<g>
		<g>
			<g>
				<g>
					<path class="st0" d="M50.15,25.69h13.26c1.28,0,2.28,0.35,2.92,0.99c0.7,0.64,1.05,1.52,1.05,2.51c0,0.18,0,0.35-0.06,0.53
						c0,0.18-0.06,0.35-0.06,0.41c-0.41,2.1-1.34,3.39-2.69,3.8c0.53,0.35,0.93,0.7,1.23,1.11c0.23,0.41,0.41,0.99,0.41,1.81
						c0,0.7-0.12,1.75-0.41,3.04c-0.47,2.16-1.23,3.62-2.28,4.44c-0.93,0.7-2.34,1.11-4.32,1.11H47.87c-0.35,0-0.58-0.12-0.7-0.29
						c-0.18-0.18-0.23-0.41-0.23-0.76c0-0.12,0-0.29,0.06-0.47l3.85-16.82c0.06-0.23-0.06-0.41-0.23-0.58
						c-0.18-0.18-0.41-0.29-0.64-0.29L50.15,25.69z M55.7,41.11h1.87c0.53,0,1.05-0.23,1.28-0.47c0.18-0.23,0.41-0.7,0.58-1.52
						c0.12-0.53,0.18-0.99,0.18-1.34c0-0.64-0.53-0.99-1.23-0.99h-1.69L55.7,41.11z M57.57,32.99h2.04c0.35,0,0.7-0.12,0.88-0.29
						c0.12-0.18,0.29-0.47,0.41-0.93s0.18-0.82,0.18-1.05c0-0.53-0.47-0.76-0.99-0.76h-1.75L57.57,32.99z"/>
				</g>
				<path class="st0" d="M166.65,25.75h-13.2l-0.18,0.64c0.23,0,0.41,0.12,0.64,0.29c0.18,0.18,0.29,0.41,0.23,0.58l-3.85,16.76
					c-0.06,0.18-0.06,0.35-0.06,0.47c0,0.29,0.06,0.53,0.23,0.76c0.18,0.18,0.41,0.29,0.7,0.29h7.88l0.12-0.64
					c-0.23,0-0.47-0.06-0.58-0.18c-0.18-0.12-0.23-0.29-0.23-0.47v-0.29l1.46-6.31l1.87,6.6c0.12,0.41,0.35,0.7,0.7,0.93
					c0.35,0.23,0.76,0.41,1.28,0.41H167c1.17,0,1.87-0.47,2.04-1.34l0.7-3.27h-0.82c-0.29,0-0.53-0.06-0.76-0.23
					c-0.23-0.18-0.41-0.35-0.53-0.58l-0.99-2.63c1.17-0.29,2.04-0.82,2.69-1.64c0.64-0.82,1.11-2.04,1.52-3.8
					c0.06-0.29,0.12-0.64,0.18-1.17c0.06-0.29,0.06-0.64,0.06-0.99C171.09,27.15,169.63,25.75,166.65,25.75z M164.43,31.47
					c-0.06,0.18-0.06,0.41-0.12,0.64c-0.23,1.11-0.88,1.64-1.52,1.64h-2.04l0.82-3.56h2.04c0.47,0,0.88,0.29,0.88,0.82
					C164.43,31.12,164.43,31.3,164.43,31.47z"/>
				<path class="st0" d="M150.3,27.15l-3.91,16.88c-0.06,0.18,0.06,0.41,0.23,0.58c0.23,0.18,0.41,0.29,0.64,0.29l-0.18,0.64h-7.88
					c-0.58,0-0.93-0.29-0.93-0.93c0-0.06,0-0.23,0.06-0.47l3.91-16.88c0.06-0.18-0.06-0.41-0.23-0.58
					c-0.18-0.18-0.41-0.29-0.58-0.29l0.12-0.64h7.94c0.35,0,0.53,0.06,0.7,0.23c0.12,0.18,0.23,0.41,0.23,0.7L150.3,27.15z"/>
				<path class="st0" d="M106.38,40.93l-0.76,3.33c-0.12,0.41-0.35,0.76-0.7,0.93c-0.35,0.23-1.05,0.29-2.04,0.29h-1.93
					c-0.41,0-0.82-0.18-1.23-0.47c-0.35-0.29-0.64-0.64-0.82-1.05l-2.45-6.07l-1.99,1.87l-0.99,4.26c0,0.23,0.12,0.41,0.29,0.53
					c0.18,0.18,0.41,0.23,0.58,0.23l-0.12,0.64H86.3c-0.64,0-0.93-0.29-0.93-0.93c0-0.12,0-0.23,0.06-0.47l3.91-16.82
					c0.06-0.18-0.06-0.41-0.23-0.58c-0.23-0.18-0.41-0.29-0.64-0.29l0.18-0.64h7.88c0.58,0,0.93,0.29,0.93,0.93l-0.06,0.58
					l-0.99,3.91c0,0,0.35-0.41,0.88-0.99c0.58-0.64,2.34-2.51,2.34-2.51c0.18-0.18,0.23-0.35,0.23-0.53c0-0.18-0.06-0.35-0.18-0.47
					s-0.23-0.18-0.35-0.18l0.18-0.64h7.24c0.35,0,0.64,0.12,0.82,0.29c0.18,0.23,0.29,0.47,0.29,0.7c0,0.29-0.12,0.53-0.35,0.82
					l-5.78,5.49l2.86,7.12c0.23,0.53,0.58,0.76,1.11,0.76L106.38,40.93L106.38,40.93z"/>
				<path class="st0" d="M71,25.75h15.07l-0.64,2.8c-0.12,0.53-0.41,0.93-0.76,1.11c-0.41,0.23-0.88,0.29-1.52,0.29h-3.97
					l-0.76,3.04h4.73l-0.53,2.39c-0.12,0.41-0.35,0.76-0.76,0.99c-0.41,0.23-0.88,0.41-1.4,0.41h-1.75c-0.76,0-1.28,0.41-1.46,1.28
					l-0.64,2.8h4.61c0.29,0,0.58-0.06,0.88-0.23c0.29-0.12,0.53-0.29,0.53-0.53h0.64l-1.05,4.38c-0.12,0.41-0.29,0.64-0.64,0.76
					c-0.35,0.12-0.76,0.18-1.28,0.18H68.6c-0.35,0-0.58-0.12-0.7-0.29c-0.18-0.18-0.23-0.41-0.23-0.76c0-0.12,0-0.29,0.06-0.47
					l3.85-16.76c0.06-0.23-0.06-0.41-0.23-0.58c-0.18-0.18-0.41-0.29-0.64-0.29L71,25.75z"/>
				<path class="st0" d="M136.87,45.55h-7.36c-0.47,0-0.88-0.06-1.11-0.23c-0.23-0.18-0.35-0.47-0.41-0.82l-0.23-2.92h-4.44
					l-1.17,2.34c0,0.06,0,0.12,0,0.12s0,0.12,0,0.23c0,0.18,0.06,0.29,0.23,0.47c0.18,0.12,0.35,0.18,0.58,0.18l-0.12,0.64h-5.72
					c-0.82,0-1.17-0.29-1.17-0.93c0-0.18,0.06-0.35,0.12-0.53l8.35-16.35c0.06-0.12,0.06-0.23,0.06-0.41c0-0.23-0.12-0.41-0.29-0.58
					c-0.18-0.18-0.35-0.29-0.58-0.29l0.18-0.64h9.11c0.41,0,0.82,0.12,1.11,0.35c0.29,0.23,0.47,0.58,0.47,0.99l1.28,16.76
					c0,0.23,0.12,0.47,0.41,0.7c0.29,0.23,0.53,0.29,0.82,0.29L136.87,45.55z M127.47,32.23c0,0-1.69,3.85-1.99,4.44
					c-0.23,0.58-0.47,1.05-0.47,1.05h2.74c0,0-0.06-0.53-0.12-1.17C127.64,35.85,127.47,32.23,127.47,32.23z"/>
			</g>
		</g>
	</g>
	<g>
		<g>
			<path class="st1" d="M38.47,37.02c-0.12-0.18-0.41-0.41-0.82-0.53c-0.06,0-0.12,0-0.18,0c-0.23,0-0.29,0.29-0.29,0.29
				s-0.29-0.06-0.47-0.06c-0.06,0-0.12,0-0.18,0c-0.23,0.06-0.12,0.29-0.35,1.34c-0.23,1.05-1.11,2.51-1.28,2.51l0,0
				c-0.18,0-0.35-0.18-1.28-0.93c-0.23-0.18-0.58-0.35-0.93-0.47c-0.23-0.47-0.58-0.99-0.58-0.99v-0.12c0,0,0.18,0,0.23-0.58
				c0.06-0.53,0.06-0.82,0.06-0.82s0.88,0,0.76-1.93c-0.06-1.87-1.11-3.39-1.75-3.74c0,0-0.35-1.64-0.7-1.87
				c0,0-0.18-0.82-0.53-1.64s-0.47-1.4-0.47-1.4s0.29-0.18,0.23-0.35s-0.29-0.29-0.41-0.47s-0.35-0.82-0.35-0.82
				s0.06-0.58-0.12-0.88c0,0,0-1.23-0.64-2.39c-0.06-0.12-0.12-0.18-0.18-0.29c0.18-0.41,0.47-1.23,0.82-2.1
				c0.29-0.12,0.58-0.53,1.11-1.17c0.53-0.7,0.23-1.05-0.18-1.17c0.18-0.53,0.35-0.88,0.35-0.93c0.06-0.12,0-0.18-0.12-0.18
				c-0.06,0-0.12,0.06-0.18,0.12c0,0.06-0.18,0.41-0.35,0.93c-0.06,0-0.12,0-0.18,0c-0.06,0-0.18,0-0.23,0.06
				c-0.06-0.06-0.18-0.12-0.23-0.12c0.18-0.53,0.35-0.88,0.35-0.93c0.06-0.12,0-0.18-0.12-0.18c-0.06,0-0.12,0.06-0.18,0.12
				c0,0.06-0.18,0.41-0.35,0.93c-0.06,0-0.12,0-0.18,0s-0.18,0-0.23,0.06c-0.06-0.06-0.18-0.12-0.23-0.12
				c0.18-0.47,0.35-0.88,0.35-0.93c0.06-0.12,0-0.18-0.12-0.18c-0.06,0-0.12,0.06-0.18,0.12c0,0.06-0.18,0.41-0.35,0.93
				c-0.06,0-0.12,0-0.18,0c-0.29,0-0.41,0.18-0.64,0.76c-0.23,0.64-0.23,1.34-0.06,1.58c-0.12,0.35-0.23,0.64-0.29,0.82
				c-0.18-0.12-0.41-0.23-0.7-0.23c-0.53-0.06-0.82-0.06-0.93-0.06c-0.06,0-0.12,0-0.12,0s-0.23-1.17-0.23-4.26
				c-0.18-2.22-0.29-4.96-0.47-7.3c0.12-0.41,0.18-0.7,0.29-0.88c0.29-0.47,0.35-0.99,0.18-0.99l0,0c-0.18,0.06-0.35,0.06-0.53,0.12
				c-0.12-1.11-0.23-2.04-0.29-2.63l0,0l0.06-0.29c0.41,0.41,0.47,0.64,0.76,0.64l0,0c0.29,0,0.47-0.35,0.53-0.58
				c0.06-0.23-0.18-1.11-0.58-1.81C24.22,0.41,23.93,0,23.41,0l0,0c-0.53,0-0.88,0.35-0.88,1.05c0,0.64,0.18,0.76,0.35,0.88
				c0,0.06,0,0.12,0,0.12l-0.06,0.7c-0.29,0.7-0.76,1.87-1.28,3.21c0-0.18,0.06-0.35,0-0.47c0-0.06,0-0.12-0.06-0.12
				c-0.18,0-0.76,1.46-0.76,1.46s-0.12-0.18-0.23-0.18c-0.06,0-0.12,0.12-0.12,0.41c0,0.76-0.88,3.91-0.88,3.91l0,0
				c-0.35,0.88-0.58,1.46-0.64,1.58c-0.23,0.53-0.18,0.99-0.18,0.99s-0.06,0.06-0.12,0.53c0,0.35,0,0.41,0.06,0.41l0,0
				c0,0-0.29,3.21-0.35,3.85c-0.06,0.58-0.41,0.7-0.41,0.7s-0.18,0.99,0.18,1.28c0.18,0.12,0.29,0.18,0.35,0.18
				c0.06,0,0.06,0,0.06,0c0.06,0.18,0.12,0.41,0.12,0.41s-0.93,0.29-1.46,0.99c0,0-0.18,0-0.29,0c-0.06,0-0.12,0-0.12,0
				c0-0.06-0.18-0.18-0.41-0.18c-0.06,0-0.12,0-0.18,0c0,0-1.64,0.29-1.99,1.58c-0.18,0.7-0.23,1.34-0.23,1.93
				c-0.53-0.12-0.64-0.12-0.7-0.12s-0.06,0-0.06,0l-0.35-0.23c0-0.29,0-1.11,0-1.23c0-0.23,0.23-0.29,0.23-0.29
				c-0.06-0.23-0.29-0.64-0.76-0.64c-0.06,0-0.12,0-0.23,0c-0.18,0.06-0.41,0.29-0.47,0.64c0,0.35,0,0.93-0.18,1.4
				c0,0-0.12-0.06-0.29-0.06c-0.18,0-0.41,0.12-0.53,0.53c-0.18,0.82-0.58,2.8,0.18,4.85l-0.18,1.81c-0.18,0.06-0.29,0.18-0.29,0.35
				c0,0.29,0.12,0.35,0.12,0.35s-0.29,0.23-0.23,0.58c0.12,0.35,0.23,0.35,0.23,0.35s-0.06,0.29,0.06,0.53s0.29,0.23,0.29,0.23
				s-0.12,0.29,0.12,0.47c0.23,0.18,0.58,0.18,0.99,0.23c0.06,0,0.06,0,0.12,0c0.29,0,0.53-0.12,0.7-0.23
				c0.29,0.12,0.7,0.23,1.23,0.23h0.06c0.93,0,1.17-0.12,1.17-0.12l-0.23,1.05l-0.23,0.29c0,0-0.18,0.88-0.18,0.93
				c0,0.12,0.35,0.41,0.35,0.41s-0.35,3.15,0.29,5.66c0,0-0.18,0.53-0.06,0.93c0.12,0.41,0.18,0.47,0.18,0.47s0.12,1.17,0.58,1.93
				c0,0,0,0.7,0.35,1.81c0,0-0.23,0.06-0.12,0.64c0.12,0.64-0.06,1.99-0.06,1.99s-0.41-0.99-0.76-1.52c0,0,0.18-0.7-0.18-0.99
				c0,0-0.06-0.64-0.35-0.76c0,0,0.06-0.41-0.29-0.53c0,0,0.47-1.11,0.23-1.28c-0.12-0.06-0.35-0.12-0.58-0.12
				c-0.35,0-0.82,0.12-1.28,0.47c0,0-0.7-0.47-1.64-0.47c0,0,0,0-0.06,0c-0.88,0-1.34,0.35-2.28,1.52c0,0-0.29,0-0.35,0.41
				s-0.06,0.82,0,0.99c0.12,0.18,0.18,0.23,0.18,0.23s-0.41,0.64-0.18,1.28c0,0-0.12,0.7,0.23,1.11c0.35,0.41,0.7,0.47,0.99,0.47
				c0,0,0.12,0.29,0.53,0.29l0,0c0,0-0.06,0.88,0.53,1.05l-0.23,2.69c0,0-2.28,1.64-2.74,2.63c-0.47,0.99-0.12,1.64-0.12,1.64
				l-0.18,1.17c0,0-0.06,0-0.18,0c-0.18,0-0.53,0.12-0.82,0.64c0,0-0.41,0.06-0.64,0.53c0,0-0.35,0.35-1.05,0.53L3.9,63.12
				c0,0-0.35-0.35-0.88-0.35c-0.06,0-0.12,0-0.23,0c0,0-0.41-0.23-0.88-0.23c-0.23,0-0.41,0.06-0.64,0.18c0,0-0.06,0-0.12,0
				c-0.23,0-0.64,0.06-0.76,0.41c-0.18,0.47-0.18,0.76-0.18,0.76s-0.35,0.18-0.18,0.76c0.12,0.53,0.35,0.64,0.58,0.64
				c0.06,0,0.06,0,0.12,0c0.12,0,0.29,0,0.41,0c0.12,0,0.23,0,0.23,0s0.29,0.41,1.34,0.47s1.58,0.12,1.99,0.35
				c0.41,0.18,0.58,0.29,2.51,0.53c0.58,0.06,1.05,0.06,1.46,0.06c0.82,0,1.23-0.12,1.58-0.18l0,0c0.35,0,2.22,1.87,2.63,2.04
				c2.74,1.34,5.78,2.22,8.82,2.57l0,0c-0.12,0,0,1.46,0.06,1.64c0.23,0.53,0.76,0.93,1.34,1.17c0.35,0.18,0.7,0.29,0.99,0.35
				c0.58,0.18,0.88,0.23,0.99,0.29s0.18,0.12,0.23,0.18c0.64,0.93,1.23,1.69,1.69,2.86c0,0,0.29,0.88,1.52,2.28
				C28.6,79.94,28.72,80,28.84,80c0.18,0,0.41-0.12,0.41-0.12s0.18,0,0.35,0s0.35,0,0.41-0.06c0.18-0.12,0.41-0.29,0.41-0.53
				c0,0,0.58-0.18,0.76-0.35c0.23-0.29,0.53-0.82,0.23-1.17c-0.23-0.35-0.93-0.47-0.93-0.47s-0.41-0.47-0.93-0.47l0,0
				c0,0,0.06-0.64-0.18-1.17c-0.18-0.53-0.76-2.51-0.88-2.86c-0.06-0.12-0.06-0.18-0.12-0.23c0.12,0.06,0.23,0.06,0.35,0.18
				c0.99,0.7,2.45,0.58,2.74,0.93c0.7,0.88,1.28,1.58,1.81,2.8c0,0-0.29,0.41,0.23,1.23c0.35,0.53,0.64,0.64,0.76,0.64
				c0.06,0,0.12-0.06,0.12-0.06s0.23,0.18,0.47,0.41c0.06,0.06,0.18,0.06,0.29,0.06c0.23,0,0.41-0.12,0.41-0.12s0.06,0,0.18,0
				c0.18,0,0.47,0,0.58-0.12c0.18-0.12,0.35-0.29,0.35-0.53c0,0,0.41-0.18,0.53-0.41c0.12-0.23,0.35-0.64,0.12-0.99
				c-0.23-0.35-0.88-0.47-0.88-0.47s-0.29-0.35-0.7-0.35c-0.06,0-0.18,0-0.23,0.06c0,0,0.18-0.93-0.06-1.46
				c-0.23-0.53-0.88-2.45-1.05-2.86c-0.12-0.41-0.29-0.41-0.29-0.41s0.12-0.47-0.18-0.99c-0.29-0.53-0.76-0.53-0.82-0.53l0,0
				c0,0,0.88-0.82,0.58-2.16c-0.29-1.4-0.99-2.51-3.09-3.5c0,0,0.35,0,0.53-0.47c0.18-0.47,0-0.93-0.53-1.11
				c-0.18-0.06-0.35-0.12-0.53-0.12c-0.29,0-0.58,0.18-0.88,0.58c-0.47,0.76-0.12,1.46-0.12,1.46s-2.63-2.51-5.49-2.69
				c0,0-0.93-0.88-1.75-1.23c0,0,2.57-1.11,3.56-1.87c0,0,3.39,0.76,5.2,0.93c0.18,0,0.29,0,0.47,0c1.52,0,2.34-0.76,2.51-1.05
				c0,0,0.23-0.23,0.29-0.7c0,0,0.29-0.18,0.41-0.88c0.06-0.41-0.12-0.58-0.12-0.58s0.35-1.05-0.29-1.11v-0.23
				c-0.29,0-0.58,0.23-0.93,0.47s-0.7,0.47-1.17,0.47c-0.06,0-0.12,0-0.18,0c-1.05-0.12-4.2-1.58-4.2-1.58s0-0.18-0.82-0.58
				c-0.41-0.18-0.82-0.35-1.34-0.35c-0.47,0-1.11,0.18-1.99,0.64c0,0,1.11-4.32,0.23-6.07c0.41-3.27-0.12-4.44-0.12-4.44
				s0.47-3.97,0.12-5.61c0,0,0.18,0,0.23-0.29l1.17,4.55c0,0-0.18,0.29,0.06,0.47c0.12,0.06,0.29,0.12,0.41,0.12
				c0.23,0,0.41-0.12,0.29-0.41c-0.06-0.18-0.18-0.23-0.18-0.23l-0.76-3.91c0.41,0.47,0.76,0.82,1.28,1.34
				c0.93,0.93,1.69,1.69,2.39,1.75c0.06,0,0.06,0,0.12,0c0.53,0,0.99-0.41,1.17-0.53c0.23,0.23,1.17,0.41,1.75,0.41l0,0
				c0.35,0,0.7-0.18,0.93-0.41l0.64,0.06c0,0,0.93,0.82,1.75,0.88h0.06c0.76,0,1.52-1.11,1.87-2.28c0.35-1.17,0.58-1.64,0.82-1.75
				c0.12-0.06,0.29-0.06,0.47-0.06c0.06,0,0.12,0,0.18,0c0.06,0,0.12,0,0.18,0c0.06,0,0.06,0,0.06,0
				C38.47,37.49,38.59,37.2,38.47,37.02z M13.19,32c0-0.12-0.06-0.18-0.12-0.23l0.12-0.06c0,0,0.18-0.35-0.06-0.53
				c-0.23-0.12-0.53-0.12-0.53-0.12l0.06-1.46c0,0,0.93-1.23,1.23-2.51l0,0h0.06c0,0,0.18,0.7,0.18,2.16v2.22
				C14.24,31.36,13.65,31.71,13.19,32z M31.93,66.28c0.7,1.11,0.41,1.99,0.41,1.99c-1.46-0.93-1.99-2.8-2.69-3.62
				C29.65,64.64,31.23,65.17,31.93,66.28z M28.02,18.63c0.18-0.06,0.29-0.23,0.53-0.47c0,0.23,0.06,0.47,0.12,0.58
				c-0.29,0.76-0.58,1.46-0.76,1.87c-0.18-0.23-0.35-0.35-0.53-0.47C27.55,19.8,27.79,19.27,28.02,18.63z M27.03,18.45
				c0.18-0.06,0.29-0.23,0.53-0.47c0,0.23,0.06,0.47,0.12,0.58c-0.23,0.58-0.41,1.11-0.53,1.4c-0.18-0.12-0.29-0.12-0.29-0.12
				s-0.06-0.18-0.23-0.41C26.74,19.27,26.85,18.92,27.03,18.45z M29.25,38.77c-0.06,0.06,0,0.35,0.06,0.64
				c-0.29,0.35-0.41,0.76-0.41,0.76h-0.06c-1.17,0-3.68-3.04-4.5-4.09l-0.47-2.39c0,0,0.29-0.06,0.18-0.58
				c-0.12-0.47-0.47-0.64-0.47-0.64l-0.18-1.05l1.52-3.15c0,0,0.23,0.06,0.58,0.06c0.18,0,0.35,0,0.53-0.06c0,0,0.76,1.11,0.99,1.4
				c0.18,0.23,0.29,0.23,0.41,0.23c0.06,0,0.06,0,0.06,0l0.29,0.7c0,0-0.18,0.41,0.29,1.34c0.47,0.93,0.88,1.69,1.28,2.86
				c0.41,1.17,0.7,3.15,0.7,3.15S29.36,38.6,29.25,38.77z"/>
			<g>
				<path class="st0" d="M19.03,15.77c0.06,0,0.18,0,0.18,0l0,0c0.06,0,0.12,0,0.18-0.06c0.06,0,0.12-0.06,0.18-0.06
					s0.12,0,0.12,0.06c0.12,0.23-0.35,0.35-0.53,0.35c-0.06,0.29,0.12,0.29,0.23,0.35c0.06,0.06,0.18,0.12,0.29,0.12
					c0.06,0,0.06,0,0.12-0.06c0,0,0-0.06,0.06-0.06l0,0c0.06,0,0.06,0.29,0.06,0.29l-0.06,0.06c-0.06,0-0.12-0.12-0.18-0.12h-0.06
					l0,0c-0.06,0-0.18,0-0.23,0c-0.06,0-0.18,0-0.23,0.06c0.06,0,0.12,0.12,0.12,0.18s-0.12,0.12-0.12,0.23s0,0.18,0.12,0.23
					c0.12,0.06,0.23,0.06,0.35,0.12c0.18,0.06,0.35,0.06,0.47,0.06c0.18,0,0.35-0.06,0.53-0.12c0.23-0.12,0.47-0.18,0.7-0.23
					c0.06,0,0.12,0,0.18-0.06c0,0,0-0.06,0-0.12c0-0.18,0-0.41,0.06-0.58c0.06-0.35,0.18-0.64,0.29-0.99
					c0.06-0.18,0.06-0.35,0.06-0.53c0-0.12-0.12-0.23-0.18-0.35c-0.12-0.23-0.35-0.53-0.58-0.64c-0.35-0.12-0.76-0.12-1.11-0.12
					c-0.06,0-0.06,0-0.12,0c-0.12,0-0.23,0-0.35,0.12l-0.06,0.06l0.06,0.06l0,0h0.06c0.12-0.06,0.18-0.06,0.29-0.06
					c0.06,0,0.18,0,0.23,0l0,0l0,0h-0.06c-0.12,0.06-0.23,0.12-0.29,0.23l-0.06,0.06v0.06c0,0,0,0,0.06,0h0.06
					c0.12-0.06,0.23-0.06,0.41-0.06c0.12,0,0.23,0,0.35,0.06c0.06,0.06,0.18,0.12,0.23,0.12c0.06,0,0.06,0,0.06,0
					c0.06,0,0.06-0.06,0.06-0.12c0.06,0,0.12,0.06,0.12,0.12c0,0,0.12,0.18,0.06,0.18l0,0c-0.06,0-0.06,0-0.12,0
					c-0.35,0-0.64,0.23-0.93,0.23c-0.06,0-0.06,0-0.12,0c-0.12,0-0.29-0.06-0.41-0.12s-0.18-0.18-0.23-0.29
					c0-0.06-0.06-0.23-0.18-0.23c0,0,0,0-0.06,0s-0.06,0.06-0.06,0.12c-0.12,0.35-0.18,0.7-0.29,0.99c0,0.06-0.06,0.29,0,0.35
					C18.97,15.77,18.97,15.77,19.03,15.77z M19.84,15.42C19.9,15.42,19.9,15.42,19.84,15.42L19.84,15.42c0.06-0.06,0.12,0,0.12,0
					c0.12,0.06,0.23,0.18,0.35,0.23c0.12,0.06,0.23,0.18,0.41,0.23c0.06,0.06,0.23,0.06,0.06,0.18c-0.06,0-0.12,0.06-0.18,0.06
					s-0.06,0-0.12,0c-0.06,0-0.06,0-0.12,0l0,0h-0.06c-0.06,0-0.18,0-0.23-0.06c-0.12-0.06-0.23-0.18-0.29-0.29
					C19.73,15.59,19.79,15.53,19.84,15.42z"/>
				<path class="st0" d="M17.22,25.81c0.06,0,0.06,0,0.12,0c0.82,0,2.04-0.7,2.28-2.1c0.23-1.23-0.7-1.64-1.34-1.64
					c-0.12,0-0.18,0-0.29,0.06c0,0-0.06,0.06-0.12,0.23c-0.12,0.23-0.29,0.41-0.47,1.05c0,0.12-0.12,0.12-0.18,0.29
					c-0.06,0.23,0.06,0.23,0.06,0.35c-0.12,0.7-0.06,1.11-0.06,1.4C17.16,25.69,17.22,25.81,17.22,25.81z"/>
				<path class="st0" d="M30.65,33.99c0.41,1.05,0.88,1.87,1.52,1.87h0.06c0.7-0.06,0.76-0.93,0.35-2.28
					c-0.35-1.34-0.88-1.87-1.58-2.16h-0.06C30.18,31.42,30.24,32.93,30.65,33.99z M31.7,33.11L31.7,33.11
					c0.12,0.06,0.06,0.12,0.06,0.23c0,0.12,0.06,0.18,0.06,0.29c0.06,0.06,0.06,0.12,0.12,0.18l0,0l0.06,0.06
					c0,0.06,0,0.12-0.06,0.12s-0.18-0.06-0.23-0.06c-0.06-0.06-0.18-0.12-0.18-0.18c-0.06-0.12-0.12-0.35,0-0.47
					C31.58,33.17,31.64,33.11,31.7,33.11z"/>
				<path class="st0" d="M21.65,52.61c0.06-0.7,0.06-1.46,0.18-2.16c0.06-0.58,0.12-1.11,0.18-1.69c-0.06,0-0.12-0.06-0.18-0.06
					s-0.35-0.06-0.41-0.12c0,0,0-0.06-0.06-0.06c0-0.06,0-0.29,0-0.58H21.3c-0.12,0-0.23,0-0.35,0.06c0,0.18,0,0.29-0.06,0.47v0.06
					c0,0.06-0.06,0.06-0.12,0.06l0,0c-0.06,0-0.12,0-0.18,0c-0.18-0.06-0.18-0.23-0.18-0.35v-0.06c-0.06,0-0.06,0-0.06,0
					c-0.18,0.76,0.18,5.31,0.29,6.95c0.23-0.12,0.58-0.29,0.93-0.47C21.6,54.01,21.65,53.31,21.65,52.61z"/>
				<path class="st0" d="M21.36,48.58C21.36,48.58,21.36,48.64,21.36,48.58c0.12,0.12,0.35,0.12,0.47,0.18
					c0.06,0,0.12,0.06,0.18,0.06c0-0.06,0-0.12,0-0.18c0.23,0,0.53,0.12,0.76,0.23c0.12-0.82,0.18-2.45,0.18-3.04
					c0-0.76,0-1.58-0.23-2.28c-0.06-0.18-0.12-0.29-0.18-0.41l-0.06-0.06c0,0.06-0.06,0.06-0.12,0.12
					c-0.18-0.18-0.53-0.47-0.64-0.64c-0.06-0.06-0.12-0.12-0.18-0.18c-0.23-0.12-0.47-0.23-0.7-0.29c-0.41-0.18-0.93-0.23-1.4-0.23
					l0,0c0,0,0.18,1.34,0.18,1.46c0.23,1.05,0.82,1.93,1.4,2.8c0.18,0.29,0.29,0.53,0.35,0.88c0,0.06-0.06,0.7-0.06,1.23
					C21.36,48.29,21.36,48.53,21.36,48.58z"/>
				<path class="st0" d="M22.41,43.09c0.06-0.06,0.06-0.06,0.12-0.12c0.47-0.7,0.47-3.21,0.41-4.26c0-0.29-0.06-0.53-0.06-0.82
					c0-0.12-0.06-0.76-0.12-0.76c-0.64-0.29-1.52-0.58-2.34-0.58c-0.47,0-0.88,0.12-1.23,0.41c-0.06,0.99,0.53,2.98,0.7,4.15
					c0.76,0.23,1.17,0.53,1.69,1.17c0.06,0.06,0.12,0.12,0.18,0.18C21.89,42.63,22.24,42.86,22.41,43.09z"/>
				<path class="st0" d="M21.95,35.15c0.06-0.06,0.12-0.06,0.18-0.12c0.12-0.06,0.23-0.12,0.35-0.12h0.06c0.06,0,0.18,0,0.23,0.06
					c0.29,0.06,0.47,0.18,0.7,0.35c-0.06-0.29-0.12-0.58-0.18-0.82c-0.06-0.35-0.12-0.64-0.18-0.99c-0.18-0.7-0.35-1.05-0.35-1.75
					c0-0.06,0-0.12,0-0.12c0-0.06-0.06-0.06-0.12-0.06c-0.18-0.12-0.35-0.18-0.53-0.29c-0.47-0.23-0.99-0.29-1.46-0.29
					c-0.35,0-0.7,0.06-1.05,0.06c-0.35,0-0.7,0.06-1.05,0.12c-0.12,0-0.41,0-0.47,0.12c-0.12,0.12-0.58,2.86,0,4.85
					c0.82-0.41,1.69-0.58,2.63-0.58c0.06,0,0.12,0,0.12,0c0.41,0,0.76,0.06,1.11,0.12c0-0.12,0-0.18,0.06-0.29
					C21.89,35.33,21.89,35.21,21.95,35.15z"/>
				<path class="st0" d="M26.68,24.18c0.47,0.12,0.82,0.18,1.28,0.18c0.12,0,0.23,0.06,0.35,0.06c0.06,0,0.18,0,0.23-0.06
					c0.12-0.06-0.12-0.7-0.12-0.7s-0.12-1.52-0.41-2.22c-0.29-0.64-0.88-1.11-1.52-1.34c-0.35-0.12-0.7-0.18-1.05-0.18h-0.06
					c-0.7,0-1.64,0.18-1.69,1.05c-0.06,0.64,0.12,1.23,0.41,1.75C24.75,23.59,25.68,24,26.68,24.18z"/>
				<path class="st0" d="M22.36,7.42c-0.12,0.35-0.12,0.64-0.18,0.99c0.23-0.35,0.47-0.82,0.64-1.46c0.12-0.58,0.35-0.88,0.64-1.05
					c-0.06-0.93-0.12-1.81-0.23-2.8c-0.06-0.06-0.12-0.06-0.12-0.06c-0.06,0-0.12,0-0.12,0.06c-0.18,0.82-0.23,1.46-0.41,2.28
					c-0.06,0.35-0.06,0.35-0.12,0.7C22.47,6.36,22.47,7.07,22.36,7.42z"/>
				<path class="st0" d="M22.76,9.87c-0.23,0.18-0.53,0.41-0.64,0.64c-0.18,0.35-0.35,0.7-0.47,1.05c0,0.06-0.06,0.12-0.12,0.18
					c-0.06,0.12-0.41,0-0.64,0c0,0.06,0,0.29-0.06,0.35c0.06,0,0.12,0.06,0.18,0.12c0.12,0.12,0.12,0.23,0.12,0.35
					c0,0.18,0,0.23-0.06,0.35c-0.12,0.12-0.23,0.23-0.41,0.29l0,0c0,0.06-0.06,0.18-0.06,0.23l0.58,0.12
					c0.53,0.06,1.23,0.58,1.23,1.05c-0.06,0.93-0.23,2.74-0.58,3.15s-1.23,0.7-1.69,0.7c0,0,0.41,0.99,1.75,0.99
					c0.06,0,0.12,0,0.18,0c0.12,0,0.23,0,0.29,0c0.35,0,0.7,0.06,0.99,0.06c0.29,0.06,0.53,0.06,0.7,0.06c0.12,0,0.18,0,0.18-0.06
					c-0.12-0.7-0.23-2.8-0.23-4.96c-0.12-1.87-0.23-3.85-0.35-6.19C23.47,8.99,23.17,9.52,22.76,9.87z"/>
				<path class="st0" d="M21.01,11.45C21.01,11.45,21.07,11.45,21.01,11.45c0.12,0,0.18,0,0.18,0c0.18-0.06,0.18-0.23,0.23-0.41
					c0.06-0.12,0.12-0.29,0.18-0.47c0.12-0.29,0.35-0.58,0.58-0.82c0.12-0.12,0.23-0.18,0.29-0.29c0.99-0.76,1.17-2.8,1.46-3.27
					c0.23-0.41,0.35-0.58,0.18-0.58h-0.06c-0.18,0.06-0.41,0.12-0.58,0.23L23.41,5.9c-0.29,0.18-0.53,0.53-0.64,1.05
					c-0.12,0.58-0.47,1.23-0.7,1.58c-0.12,0.18-0.23,0.35-0.23,0.35s0.06-0.99,0.23-1.69c0.23-0.76,0.12-1.4,0-1.64
					c-0.12-0.18-0.18-0.29-0.29-0.29c-0.06,0-0.12,0-0.18,0s-0.18,0.35-0.12,0.7c0.06,0.58-0.53,1.93-0.47,2.86
					c0.06,0.76-0.06,1.52-0.29,2.22c-0.06,0.12-0.06,0.23-0.12,0.35v0.06l0.06,0.06l0,0C20.78,11.45,20.9,11.45,21.01,11.45z"/>
				<path class="st0" d="M22.82,2.69c0,0,0.06,0,0.12,0c0.06,0,0.06,0,0.12,0c0.12,0,0.23,0.06,0.29,0.06h0.06
					c0.06,0,0.06-0.06,0.06-0.23c0-0.18,0-0.35,0-0.47c0-0.12-0.06-0.29-0.18-0.35C23.23,1.64,23.06,1.64,23,1.64s-0.12,0-0.12,0
					c-0.12,0.06-0.12,0.18-0.18,0.29c0,0.18-0.06,0.53-0.06,0.58C22.71,2.63,22.71,2.69,22.82,2.69z"/>
				<path class="st0" d="M23.11,1.34c0.06,0,0.12,0.06,0.18,0.06c0.35,0,0.58-0.29,0.53-0.47c0-0.23-0.23-0.64-0.58-0.7
					c-0.06,0-0.18-0.06-0.23-0.06c-0.18,0-0.35,0.06-0.35,0.23S22.71,1.23,23.11,1.34z"/>
				<path class="st0" d="M18.21,29.61C18.21,29.61,18.27,29.61,18.21,29.61c0.06,0,0.12,0,0.12,0s0.06,0,0.06,0.06
					c0.06,0.06,0.12,0.12,0.12,0.18c1.58-0.18,2.86-0.12,2.92-0.18c0.18-0.06,0.35-0.12,0.47-0.23c0.06,0,0.06-0.06,0.12-0.06l0,0
					c-0.18-0.18-0.29-0.47-0.23-0.7c0-0.06,0.06-0.06,0.06-0.12c0.12-0.12,0.23-0.18,0.35-0.23c0.12-0.06,0.23-0.06,0.35-0.06
					c0.06,0,0.12,0,0.18,0.06s0.18,0.06,0.23,0.12c0-0.06,0.06-0.06,0.06-0.12c0.12-0.23,0.29-0.41,0.41-0.64
					c0.06-0.06,0.06-0.12,0.12-0.18c0.35-0.7,0.88-1.87,0.58-2.57C24.05,24.7,23.76,24,23.52,24l0,0c-0.12,0-0.18,0.06-0.29,0.12
					c-0.47,0.29-0.93,0.53-1.4,0.76c-0.12,0.06-0.29,0.12-0.41,0.18c-0.29,0.12-0.58,0.23-0.82,0.29c-0.18,0.06-0.35,0.12-0.53,0.18
					c-0.18,0.06-0.29,0.12-0.47,0.12c-0.53,0.58-1.46,0.93-2.28,1.11c0,0.64,0.12,1.23,0.18,1.81c0.06,0.41,0.12,0.7,0.23,1.11l0,0
					C17.92,29.61,18.09,29.61,18.21,29.61z"/>
				<path class="st0" d="M14.01,50.39L14.01,50.39c-0.18,0.06-0.23,0.35-0.12,0.47l0.06,0.06c0.12,0.06,0.23,0.12,0.35,0.12l0,0
					h0.06l0.06-0.06c0-0.06,0-0.12-0.06-0.12C14.3,50.69,14.18,50.39,14.01,50.39z"/>
				<path class="st0" d="M14.59,50.63h0.06h0.06c0.06,0,0.06-0.06,0.12-0.12v-0.06c0-0.06-0.06-0.12-0.06-0.18
					c-0.06-0.06-0.12-0.18-0.18-0.23c-0.06-0.12-0.18-0.18-0.29-0.23h-0.06l0,0l-0.06,0.06c-0.06,0.18-0.06,0.18,0.06,0.35
					C14.36,50.28,14.41,50.45,14.59,50.63C14.53,50.57,14.53,50.63,14.59,50.63z"/>
				<path class="st0" d="M14.94,49.99L14.94,49.99c0.06,0,0.06-0.06,0.12-0.06c0-0.06,0-0.12,0-0.12c0-0.12-0.12-0.29-0.18-0.35
					c-0.06-0.06-0.06-0.12-0.12-0.18c-0.12-0.12-0.29-0.18-0.41-0.18l0,0H14.3c-0.06,0.06-0.12,0.23-0.06,0.29
					c0.06,0.06,0.12,0.12,0.18,0.12C14.59,49.58,14.76,49.75,14.94,49.99C14.94,49.93,14.94,49.99,14.94,49.99z"/>
				<path class="st0" d="M11.55,57.28c0.29,0,0.58,0.06,0.88,0.18c0.58-0.88,1.52-1.52,2.51-1.64c0.35-0.06,0.64-0.06,0.99-0.06
					c0.06,0,0.06,0,0.12,0c0.06,0,0.12,0,0.18,0s0.18,0,0.23,0.06c0.18,0.06,0.29,0.18,0.35,0.29c0.18-1.28-0.23-2.57-0.64-3.8l0,0
					c-0.06-0.18-0.12-0.41-0.23-0.58c-0.12-0.29-0.29-0.53-0.47-0.82c-0.06-0.06-0.29-0.41-0.35-0.41c0,0-0.06,0-0.06,0.06
					c0,0.23-0.06,0.53-0.12,0.76c-0.12,0.35-0.23,0.64-0.41,0.93c-0.35,0.58-0.76,1.11-1.28,1.52c-0.23,0.18-0.53,0.35-0.76,0.58
					c-0.29,0.23-0.53,0.53-0.82,0.88c-0.29,0.35-0.53,0.64-0.76,1.05c-0.18,0.35-0.29,0.82-0.23,1.23
					C10.91,57.34,11.2,57.28,11.55,57.28z"/>
				<path class="st0" d="M31.99,57.05c0.76,0,1.11-0.35,1.52-0.64c0.53-0.41,0.58-0.99,0.47-1.17c0-0.06-0.06-0.06-0.12-0.06
					c-0.18,0-0.47,0.23-0.99,0.64c-0.35,0.23-0.64,0.35-0.99,0.35c-0.29,0-0.7-0.12-1.17-0.23c-0.99-0.35-3.33-1.28-3.33-1.28
					c-0.29,0.47-0.7,0.64-0.7,0.64s2.28,1.05,4.15,1.58C31.29,56.99,31.7,57.05,31.99,57.05z"/>
				<path class="st0" d="M33.92,56.35L33.92,56.35c-0.23,0.23-0.53,0.53-0.88,0.7c-0.35,0.23-0.64,0.35-1.05,0.35
					c-0.35,0-0.76-0.06-1.34-0.23c-1.34-0.35-4.38-1.64-4.38-1.64c-0.29,0.18-1.05,0.58-1.05,0.58s0.18,0.12,1.93,0.7
					c1.69,0.58,3.27,1.17,4.67,1.17c0.06,0,0.12,0,0.23,0c1.17-0.06,1.81-0.88,1.87-1.28C34.03,56.58,33.98,56.35,33.92,56.35z"/>
				<path class="st0" d="M32.87,58.28c-0.06,0-0.47,0.18-0.88,0.18h-0.06c-0.23,0-0.82,0-1.34-0.06c-1.58-0.23-6.01-1.81-6.01-1.81
					c-0.23,0.18-1.11,0.7-1.11,0.7s4.15,1.17,6.72,1.52c0.23,0.06,0.58,0.06,0.99,0.06C31.7,58.8,32.34,58.69,32.87,58.28
					L32.87,58.28z"/>
				<path class="st0" d="M12.9,26.69L12.9,26.69c0-0.12,0-0.23-0.06-0.35c0,0,0-0.06-0.06-0.06c-0.06-0.12-0.06-0.23-0.12-0.35
					c-0.06-0.12-0.12-0.18-0.18-0.29c0-0.06,0-0.06-0.06-0.12c-0.06-0.12-0.06-0.29-0.23-0.35h-0.06c-0.06,0-0.12,0.06-0.18,0.12
					c-0.12,0.29-0.23,0.53-0.47,0.76c-0.06,0.12-0.18,0.18-0.23,0.29c0,0.06-0.12,0.35-0.06,0.41h0.06c0.12,0,0.18-0.06,0.29-0.12
					c0.18-0.18,0.29-0.35,0.53-0.41h0.06c0.12,0,0.29,0.06,0.41,0.18c0.06,0.06,0.06,0.12,0.12,0.18
					C12.78,26.63,12.84,26.69,12.9,26.69z"/>
				<path class="st0" d="M20.9,61.26c-0.99,0-1.99,0.35-2.69,0.99c0.58,0.29,1.23,0.35,1.81,0.47c0.12,0,0.18,0.06,0.29,0.06
					c0.82,0.23,1.58,0.58,2.34,0.99c0.23,0.12,0.47,0.29,0.64,0.47c0.47,0.41,0.76,1.11,1.34,1.46c0.29,0.18,0.7,0.23,1.05,0.35
					c0.41,0.18,0.82,0.35,1.17,0.58c0.29,0.18,0.64,0.82,0.82,1.11c0.29,0.41,0.47,0.88,0.7,1.28c0.47,0.64,0.82,0.88,1.52,1.11
					c0.88,0.29,1.69,0.58,2.69,0.64h0.06c0.18,0,0.41-0.06,0.47-0.23c0.06-0.12-0.06-0.29-0.12-0.35c-0.58-0.76-1.58-0.99-2.1-1.87
					c-0.58-0.93-1.11-1.87-1.58-2.86c-0.29-0.64-0.64-1.34-1.4-1.46c-0.06,0-0.18,0-0.23,0c-0.29,0-0.58,0.06-0.82,0.06
					c-0.29,0.06-0.58,0.06-0.82,0.06c-0.12,0-0.23,0-0.35,0c-1.05-0.23-1.58-0.82-1.99-1.52c-0.35-0.7-1.17-1.05-2.22-1.28
					C21.3,61.26,21.13,61.26,20.9,61.26z"/>
				<path class="st0" d="M26.21,26.86c0.99-0.64,1.99-0.93,3.21-1.05c0,0-0.12-0.47-0.76-0.53c-1.99,0.23-3.27,1.17-3.27,1.17
					S25.8,26.63,26.21,26.86z"/>
				<path class="st0" d="M14.36,48.53c-0.12,0.06-0.12,0.12-0.06,0.23c0,0.12,0.06,0.06,0.29,0.12c0.23,0.06,0.29,0.23,0.41,0.23
					c0,0,0,0,0.06,0c0.12-0.06-0.06-0.41-0.18-0.47c-0.12-0.06-0.23-0.12-0.35-0.12C14.47,48.47,14.41,48.47,14.36,48.53z"/>
				<path class="st0" d="M14.18,47.82c-0.12,0-0.18,0-0.18,0.12c0,0.06,0.06,0.18,0.12,0.23c0,0,0.06,0,0.12,0h0.06h0.06
					c0.18,0,0.29,0,0.41,0.06c0.06-0.06-0.06-0.23-0.12-0.29c-0.06-0.06-0.23-0.12-0.35-0.12C14.24,47.82,14.24,47.82,14.18,47.82z"
					/>
				<path class="st0" d="M14.01,47.47c0.06,0,0.06,0,0.06,0c0.06,0,0.06,0,0.12,0h0.06h0.06h0.06l0.06-0.06h-0.06H14.3
					c-0.06-0.06-0.18-0.06-0.23-0.12h-0.06c-0.06,0-0.12,0-0.18,0.06C13.71,47.42,13.89,47.47,14.01,47.47z"/>
				<path class="st0" d="M11.9,50.16c0.06-0.12-0.06-0.41-0.18-0.47c-0.23-0.12-0.47-0.23-0.76-0.23c-0.12,0-0.23,0-0.35,0.06
					c-0.06-0.18,0.64-0.23,0.7-0.23c0.18,0,0.35-0.06,0.53-0.06s0.29,0,0.47,0.06c0.29,0.12,0.53,0.18,0.82,0.29
					c0.12,0.06,0.23,0.12,0.29,0.12c0.41,0,0.47-0.53,0.47-1.28c-0.06-0.93-0.53-1.34-0.7-1.4c-0.18-0.06-0.23,0-0.41-0.12
					c-0.18-0.06,0-0.29-0.76-0.64c-0.18-0.06-0.35-0.12-0.53-0.12c-0.53,0-0.93,0.35-1.23,0.64c-0.41,0.35-0.23,0.58,0,0.7
					c-0.41,0.18-0.41,0.41-0.64,0.47C9.45,48,9.28,48,9.1,48.29s-0.23,1.93-0.12,2.16c0,0.06,0.06,0.12,0.18,0.12
					c0.18,0,0.53-0.23,0.7-0.23l0,0c0.23,0,0.12,0.29,0.29,0.41c0.06,0.06,0.18,0.06,0.29,0.06c0.23,0,0.53-0.06,0.93-0.23
					C11.55,50.51,11.84,50.39,11.9,50.16z M10.15,48.23c-0.06,0-0.06,0-0.12,0s-0.06,0-0.12,0s-0.06,0-0.12-0.06
					c-0.06-0.12,0-0.23,0.12-0.29c0.18-0.12,0.35-0.29,0.53-0.35c0.29-0.18,0.64-0.23,0.99-0.23c0.18,0,0.41,0.06,0.58,0.12
					c0.18,0.06,0.41,0.18,0.53,0.35c-0.18,0.23-0.35,0.53-0.53,0.76c-0.23,0.23-0.47,0.41-0.76,0.41l0,0c-0.06,0-0.18,0-0.23-0.06
					c-0.12-0.06-0.18-0.23-0.23-0.29C10.56,48.29,10.38,48.23,10.15,48.23z"/>
				<path class="st0" d="M11.03,47.77c0.06,0.06,0.06,0.23,0.06,0.29l0,0l0,0c0.06,0,0.06,0,0.12,0c0.18,0,0.35-0.06,0.53-0.12
					c0.06-0.06,0.12-0.06,0.12-0.18c0-0.06,0-0.06-0.06-0.12c0-0.06-0.06-0.06-0.06-0.12c-0.06,0-0.06-0.06-0.12-0.06
					c-0.12,0-0.18-0.06-0.23-0.06c-0.12,0-0.23,0-0.41,0.06c-0.06,0-0.06,0.06-0.06,0.06C10.97,47.71,11.03,47.77,11.03,47.77z"/>
				<path class="st0" d="M11.14,62.54c0.99,0.18,1.17,0.29,1.69,0.76c0.18,0.12,0.35,0.18,0.64,0.18c0.58,0,1.28-0.29,1.28-0.29
					s0-0.58-0.82-0.58c-0.76,0-1.17,0-1.34-0.58c0,0,0.06-0.18,0.58-0.18c0.18,0,0.35,0,0.58,0.06c1.05,0.18,1.34,0.41,1.99,0.93
					c0,0,0.7-0.58,0.35-1.52c-0.23-0.76-1.05-0.99-1.69-0.99c-0.18,0-0.29,0-0.47,0.06c-0.64,0.12-1.46,0-2.1,0.53
					c-0.64,0.53-0.53,0.7-1.11,0.7s-0.7,0.12-0.7,0.12S10.15,62.36,11.14,62.54z"/>
				<path class="st0" d="M8.75,62.48c0,0.06,0,0.18,0.12,0.18l0,0h0.06c0.06-0.06,0.12-0.18,0.18-0.23
					c0.06-0.12,0.12-0.23,0.18-0.35c0.06-0.06,0.23-0.18,0.23-0.23c0.12-0.23-0.18-0.29-0.35-0.29H9.1c-0.12,0-0.29,0.06-0.41,0.18
					c-0.06,0.12-0.06,0.23-0.06,0.29C8.75,62.19,8.75,62.31,8.75,62.48z"/>
				<path class="st0" d="M7.87,62.36c0.06,0.06,0.12,0.06,0.23,0.06h0.06c0.06,0,0.06,0,0.12,0s0.06-0.12,0.12-0.18
					c0.06-0.18,0.06-0.41,0.12-0.58c0-0.12,0.06-0.23,0-0.35C8.46,61.26,8.4,61.2,8.34,61.2c-0.18,0-0.41,0.29-0.47,0.41
					c-0.06,0.12-0.06,0.23-0.06,0.41C7.7,62.13,7.76,62.31,7.87,62.36z"/>
				<path class="st0" d="M2.15,62.95c0,0-0.06,0-0.12,0c-0.41,0.12-0.47,0.53-0.47,0.88c0,0.06,0,0.12,0.06,0.18h0.06l0,0
					c0.06,0,0.18-0.06,0.23-0.12s0.06-0.18,0.12-0.29C2.03,63.47,2.44,62.95,2.15,62.95z"/>
				<path class="st0" d="M3.61,63.12c-0.12-0.06-0.18-0.06-0.23-0.06c-0.06,0-0.06,0-0.12,0s-0.18,0-0.23,0.06
					c-0.18,0.06-0.53,0.41-0.35,0.58c0.06,0.06,0.12,0.06,0.18,0.06c0.23,0,0.53-0.29,0.7-0.41c0.06-0.06,0.12-0.12,0.18-0.18
					C3.61,63.18,3.61,63.18,3.61,63.12L3.61,63.12z"/>
				<path class="st0" d="M31.93,38.77c-0.23-0.35-0.64-0.7-1.11-0.7c-0.12,0-0.18,0-0.29,0.06c-0.18,0.06-0.29,0.18-0.41,0.29l0,0
					c0,0.06,0.06,0.06,0.06,0.12c0.12,0.06,0.29,0.18,0.35,0.29c0.12,0.29-0.12,0.47-0.12,0.76c0,0.12,0.06,0.23,0.18,0.23l0,0
					c0.06,0,0.12,0,0.12-0.06c0.06,0,0.12-0.06,0.12-0.06h0.06l0.06,0.06c0.12,0.12,0.23,0.18,0.35,0.18l0,0
					c0.18,0,0.29-0.12,0.47-0.12l0,0c0.06,0,0.06,0,0.12,0c0.06,0,0.06,0,0.12,0c0.12,0,0.18-0.06,0.18-0.23
					c0-0.29-0.18-0.53-0.29-0.76C31.99,38.83,31.93,38.77,31.93,38.77z"/>
				<path class="st0" d="M18.56,21.72c0.23,0,0.99,0.29,1.05,0.35c0.29,0.23,0.41,0.47,0.53,0.82c0.06,0.29,0.06,0.58,0.06,0.82
					c0,0.29-0.12,0.53-0.23,0.76c-0.06,0.18-0.06,0.23,0.06,0.23c0.12,0,0.29-0.12,0.41-0.18c0.23-0.12,0.41-0.29,0.64-0.41
					c0.47-0.23,0.88-0.53,1.28-0.88c0.18-0.12,0.41-0.29,0.58-0.41c0.23-0.18,0.23-0.18,0.18-0.47c-0.12-0.41-0.23-0.82-0.18-1.23
					c0-0.12,0.12-0.93,0.29-0.93c-1.34,0-2.74,0.35-4.03,0.7c-0.12,0-0.23,0.06-0.35,0.12c-0.23,0.12-0.29,0.53-0.35,0.76
					C18.5,21.78,18.5,21.72,18.56,21.72z"/>
				<path class="st0" d="M20.55,48.58c0.06,0,0.12,0,0.18,0l0,0c0.06,0,0.12,0,0.12-0.06v-0.06c0-0.18,0.06-0.29,0.06-0.47
					c0-0.23,0-0.47,0-0.76c-0.06-0.23-0.06-0.47-0.18-0.7c-0.06-0.12-0.12-0.29-0.18-0.35c-0.12-0.12-0.23-0.18-0.35-0.18h-0.06
					c-0.18,0-0.35,0.12-0.35,0.29c0,0.12,0.06,0.18,0.12,0.23c0.18,0.35,0.29,0.76,0.35,1.17c0.06,0.18,0.06,0.29,0.06,0.47v0.06
					C20.37,48.35,20.37,48.53,20.55,48.58z"/>
				<path class="st0" d="M22.01,48.82c-0.06,0.58-0.12,1.11-0.18,1.69c-0.06,0.7-0.12,1.4-0.18,2.16c-0.06,0.7-0.06,1.4-0.12,2.1
					c0.47-0.23,0.93-0.47,1.23-0.58c0-0.12,0.06-0.23,0.06-0.35c0.12-0.64,0.18-1.28,0.29-1.93s0.23-1.23,0.18-1.87
					c0-0.35-0.12-0.76-0.35-0.99l-0.06-0.06c-0.06-0.06-0.12-0.06-0.18-0.12c-0.23-0.12-0.47-0.18-0.76-0.23
					C22.01,48.64,22.01,48.7,22.01,48.82z"/>
				<path class="st0" d="M17.51,56.47c-0.06,0-0.06,0-0.12,0h-0.06c-0.41-0.06-0.76-0.18-1.11-0.23c-0.06,0-0.12,0-0.18,0
					c-0.06,0-0.12,0-0.12,0c-0.41,0-0.88,0.12-1.17,0.41c-0.41,0.35-0.53,0.93-0.47,1.4c0.06,0.53,0.35,0.99,0.76,1.34
					c0.35,0.29,0.7,0.53,1.05,0.82c0.53,0.53,0.93,1.17,1.11,1.87c0.23-0.47,0.29-1.05,0.18-1.58c-0.12-0.53-0.35-1.05-0.58-1.52
					c0.18,0.06,0.35,0.12,0.53,0.12c0.23,0,0.47-0.06,0.7-0.18c0.53-0.23,0.93-0.7,1.4-1.05c0.47-0.41,0.99-0.7,1.58-1.05
					c0.41-0.23,0.82-0.47,1.23-0.7c1.46-0.76,2.98-1.4,4.5-2.04c-0.47-0.23-0.88-0.41-1.4-0.41c-0.18,0-0.29,0-0.47,0.06
					c-0.64,0.12-1.17,0.47-1.75,0.76c-0.06,0.06-0.18,0.06-0.23,0.12c-0.23,0.12-0.47,0.23-0.7,0.29c-0.23,0.12-0.53,0.23-0.76,0.35
					c-0.29,0.12-0.64,0.29-0.93,0.41c-0.12,0.06-0.23,0.12-0.29,0.18c-0.29,0.18-0.64,0.23-0.99,0.35c-0.06,0-0.12,0.06-0.18,0.06
					C18.38,56.29,17.92,56.47,17.51,56.47z"/>
			</g>
		</g>
	</g>
	<g>
		<path class="st1" d="M47.58,59.27c0-0.29,0.06-0.7,0.12-1.11h-0.06c-0.47,0.93-1.17,1.23-1.81,1.23c-0.88,0-1.46-0.7-1.46-1.69
			c0-1.69,1.17-3.5,3.5-3.5c0.53,0,1.11,0.12,1.52,0.23l-0.53,2.63c-0.12,0.76-0.23,1.69-0.23,2.28L47.58,59.27L47.58,59.27z
			 M48.05,55.18c-0.12-0.06-0.29-0.06-0.47-0.06c-1.11,0-1.99,1.23-1.99,2.39c0,0.53,0.18,0.93,0.7,0.93c0.53,0,1.23-0.7,1.46-1.99
			L48.05,55.18z"/>
		<path class="st1" d="M54.41,55.36c0,0.7-0.64,1.05-1.17,1.23v0.06c0.53,0.06,1.05,0.41,1.05,1.05c0,1.28-1.4,1.69-2.45,1.69
			c-1.17,0-1.81-0.47-1.81-1.52c0-0.93,0.41-2.57,1.28-3.27c0.41-0.29,0.88-0.47,1.52-0.47C53.77,54.19,54.41,54.6,54.41,55.36z
			 M51.26,57.23c-0.06,0.18-0.06,0.41-0.06,0.58c0,0.47,0.23,0.7,0.76,0.7c0.64,0,1.11-0.29,1.11-0.82c0-0.47-0.41-0.64-0.88-0.64
			C51.84,57.05,51.49,57.17,51.26,57.23z M51.44,56.47c0.47-0.06,0.99-0.12,1.4-0.35c0.23-0.12,0.47-0.35,0.47-0.58
			c0-0.29-0.23-0.47-0.58-0.47C51.9,55.01,51.61,55.82,51.44,56.47z"/>
		<path class="st1" d="M60.14,54.31l-0.64,3.45c-0.12,0.58-0.18,1.11-0.23,1.52h-1.05l0.12-0.88l0,0c-0.47,0.64-1.11,0.99-1.75,0.99
			c-0.7,0-1.28-0.41-1.28-1.4c0-0.29,0.06-0.53,0.12-0.88l0.53-2.8h1.17l-0.53,2.74c-0.06,0.23-0.06,0.47-0.06,0.7
			c0,0.41,0.18,0.7,0.64,0.7c0.53,0,1.23-0.64,1.4-1.69l0.41-2.45H60.14z"/>
		<path class="st1" d="M63.87,59.27c0-0.29,0.06-0.7,0.12-1.11h-0.06c-0.47,0.93-1.17,1.23-1.81,1.23c-0.88,0-1.46-0.7-1.46-1.69
			c0-1.69,1.17-3.5,3.5-3.5c0.53,0,1.11,0.12,1.52,0.23l-0.53,2.63c-0.12,0.76-0.23,1.69-0.23,2.28L63.87,59.27L63.87,59.27z
			 M64.34,55.18c-0.12-0.06-0.29-0.06-0.47-0.06c-1.11,0-1.99,1.23-1.99,2.39c0,0.53,0.18,0.93,0.7,0.93c0.53,0,1.23-0.7,1.46-1.99
			L64.34,55.18z"/>
		<path class="st1" d="M68.25,54.31l-0.41,2.1h0.18l1.87-2.1h1.4l-2.28,2.28c0.53,0.18,0.76,0.7,0.93,1.46
			c0.12,0.47,0.23,0.99,0.35,1.28h-1.17c-0.12-0.23-0.23-0.76-0.35-1.23c-0.23-0.7-0.47-0.93-0.99-0.93h-0.06l-0.41,2.16h-1.17
			l0.93-4.96L68.25,54.31L68.25,54.31z"/>
		<path class="st1" d="M76.02,56.23c0,1.69-1.17,3.15-2.86,3.15c-1.28,0-2.04-0.88-2.04-2.04c0-1.69,1.17-3.15,2.86-3.15
			C75.32,54.19,76.02,55.18,76.02,56.23z M72.34,57.34c0,0.7,0.35,1.17,0.99,1.17c0.88,0,1.46-1.23,1.46-2.22
			c0-0.53-0.23-1.17-0.93-1.17C72.87,55.12,72.34,56.41,72.34,57.34z"/>
		<path class="st1" d="M79.23,54.31l0.29,2.22c0.06,0.35,0.12,0.82,0.12,1.28l0,0c0.12-0.29,0.47-0.93,0.76-1.46l1.05-1.99h1.52
			l-0.64,4.96h-1.11l0.29-2.16c0.06-0.47,0.18-1.17,0.29-1.69h-0.06c-0.12,0.35-0.47,0.93-0.76,1.52l-1.23,2.28h-0.93l-0.29-2.22
			c-0.06-0.53-0.12-1.17-0.18-1.64H78.3c-0.12,0.53-0.29,1.23-0.41,1.75l-0.53,2.16h-1.05l1.34-4.96L79.23,54.31L79.23,54.31z"/>
		<path class="st1" d="M83.61,59.27l0.64-3.45c0.12-0.58,0.18-1.11,0.23-1.52h1.05l-0.12,0.88l0,0c0.47-0.7,1.11-0.99,1.81-0.99
			c0.7,0,1.28,0.41,1.28,1.4c0,0.23-0.06,0.58-0.12,0.82l-0.53,2.92h-1.17l0.53-2.8c0.06-0.18,0.06-0.41,0.06-0.58
			c0-0.41-0.18-0.7-0.64-0.7c-0.53,0-1.23,0.64-1.46,1.81l-0.41,2.28h-1.17L83.61,59.27L83.61,59.27z"/>
		<path class="st1" d="M92.55,59.27c0-0.29,0.06-0.7,0.12-1.11H92.6c-0.47,0.93-1.17,1.23-1.81,1.23c-0.88,0-1.46-0.7-1.46-1.69
			c0-1.69,1.17-3.5,3.5-3.5c0.53,0,1.11,0.12,1.52,0.23l-0.53,2.63c-0.12,0.76-0.23,1.69-0.23,2.28L92.55,59.27L92.55,59.27z
			 M93.01,55.18c-0.12-0.06-0.29-0.06-0.47-0.06c-1.11,0-1.99,1.23-1.99,2.39c0,0.53,0.18,0.93,0.7,0.93s1.23-0.7,1.46-1.99
			L93.01,55.18z"/>
		<path class="st1" d="M96.92,54.31l-0.35,1.93h1.87l0.35-1.93h1.17l-0.93,4.96H97.8l0.41-2.16h-1.87l-0.41,2.16h-1.17l0.99-4.96
			H96.92z"/>
		<path class="st1" d="M105.51,54.31l-0.64,3.45c-0.12,0.58-0.18,1.11-0.23,1.52h-1.05l0.12-0.88l0,0
			c-0.47,0.64-1.11,0.99-1.75,0.99c-0.7,0-1.28-0.41-1.28-1.4c0-0.29,0.06-0.53,0.12-0.88l0.53-2.8h1.17l-0.53,2.74
			c-0.06,0.23-0.06,0.47-0.06,0.7c0,0.41,0.18,0.7,0.64,0.7c0.53,0,1.23-0.64,1.4-1.69l0.47-2.45L105.51,54.31L105.51,54.31z"/>
		<path class="st1" d="M109.77,59.27h-1.17l0.35-1.99h-0.35c-0.58,0-0.93,0.29-1.23,0.93c-0.18,0.35-0.35,0.7-0.58,1.05h-1.28
			c0.29-0.41,0.47-0.88,0.7-1.28c0.29-0.53,0.7-0.93,1.23-1.05l0,0c-0.47-0.12-1.05-0.47-1.05-1.11c0-1.4,1.58-1.58,2.63-1.58
			c0.58,0,1.23,0.06,1.64,0.12L109.77,59.27z M109.42,55.07c-0.18-0.06-0.29-0.06-0.58-0.06c-0.58,0-1.17,0.18-1.17,0.82
			c0,0.47,0.58,0.7,1.05,0.7h0.47L109.42,55.07z"/>
	</g>
	<g>
		<g>
			<path class="st1" d="M114.09,51.91c0.41,0.12,0.93,0.12,1.28,0.12c0.76,0.06,1.34,0.29,1.75,0.7c0.58,0.53,0.76,1.4,0.76,2.28
				c0,1.81-0.82,4.38-3.04,4.38c-1.23,0-1.93-0.76-1.93-2.04c0-1.46,0.99-3.09,2.57-3.09c0.7,0,1.17,0.35,1.34,0.93h0.06
				c0-0.12,0-0.23,0-0.35c0-0.41-0.12-0.99-0.47-1.34c-0.35-0.35-0.82-0.47-1.46-0.53c-0.29-0.06-0.58-0.06-0.93-0.12L114.09,51.91z
				 M116.55,56.35c0-0.58-0.23-1.17-0.88-1.17c-0.93,0-1.4,1.28-1.4,2.16c0,0.58,0.23,1.11,0.88,1.11
				C116.02,58.51,116.55,57.11,116.55,56.35z"/>
			<path class="st1" d="M123.38,54.31l-0.93,4.96h-1.17l0.76-4.03h-1.4l-0.23,1.11c-0.23,1.28-0.58,2.1-1.23,2.57
				c-0.35,0.29-0.7,0.47-1.28,0.47l-0.06-0.93c0.29-0.06,0.53-0.12,0.64-0.23c0.41-0.29,0.64-0.99,0.82-1.81l0.41-2.1H123.38z"/>
			<path class="st1" d="M127.64,59.27h-1.17l0.35-1.99h-0.41c-0.58,0-0.93,0.29-1.23,0.93c-0.18,0.35-0.35,0.7-0.58,1.05h-1.28
				c0.29-0.41,0.47-0.88,0.7-1.28c0.29-0.53,0.7-0.93,1.23-1.05l0,0c-0.47-0.12-1.05-0.47-1.05-1.11c0-1.4,1.58-1.58,2.63-1.58
				c0.58,0,1.23,0.06,1.64,0.12L127.64,59.27z M127.23,55.07c-0.18-0.06-0.29-0.06-0.58-0.06c-0.58,0-1.17,0.18-1.17,0.82
				c0,0.47,0.58,0.7,1.05,0.7H127L127.23,55.07z"/>
			<path class="st1" d="M132.95,54.31l-0.35,1.93h1.87l0.35-1.93h1.17l-0.93,4.96h-1.23l0.41-2.16h-1.87l-0.41,2.16h-1.17l0.93-4.96
				H132.95z"/>
			<path class="st1" d="M139.67,59.27c0-0.29,0.06-0.7,0.12-1.11h-0.06c-0.47,0.93-1.17,1.23-1.81,1.23c-0.88,0-1.46-0.7-1.46-1.69
				c0-1.69,1.17-3.5,3.5-3.5c0.53,0,1.11,0.12,1.52,0.23l-0.53,2.63c-0.12,0.76-0.23,1.69-0.23,2.28L139.67,59.27L139.67,59.27z
				 M140.14,55.18c-0.12-0.06-0.29-0.06-0.47-0.06c-1.11,0-1.99,1.23-1.99,2.39c0,0.53,0.18,0.93,0.7,0.93s1.23-0.7,1.46-1.99
				L140.14,55.18z"/>
			<path class="st1" d="M141.54,61.31l0.99-5.14c0.12-0.58,0.23-1.34,0.29-1.87h1.05l-0.12,0.82l0,0c0.41-0.58,1.05-0.93,1.69-0.93
				c1.05,0,1.58,0.88,1.58,1.87c0,1.75-1.23,3.39-2.92,3.39c-0.47,0-0.82-0.12-0.99-0.23l0,0l-0.41,2.1H141.54z M143.29,58.22
				c0.18,0.18,0.47,0.23,0.82,0.23c0.93,0,1.69-1.23,1.69-2.34c0-0.47-0.23-0.99-0.82-0.99s-1.28,0.7-1.46,1.87L143.29,58.22z"/>
			<path class="st1" d="M152.57,56.23c0,1.69-1.17,3.15-2.86,3.15c-1.28,0-2.04-0.88-2.04-2.04c0-1.69,1.17-3.15,2.86-3.15
				C151.87,54.19,152.57,55.12,152.57,56.23z M148.9,57.28c0,0.7,0.35,1.17,0.99,1.17c0.88,0,1.46-1.23,1.46-2.22
				c0-0.53-0.23-1.17-0.93-1.17C149.48,55.12,148.9,56.35,148.9,57.28z"/>
			<path class="st1" d="M154.33,51.91c0.41,0.12,0.93,0.12,1.28,0.12c0.76,0.06,1.34,0.29,1.75,0.7c0.58,0.53,0.76,1.4,0.76,2.28
				c0,1.81-0.82,4.38-3.04,4.38c-1.23,0-1.93-0.76-1.93-2.04c0-1.46,0.99-3.09,2.57-3.09c0.7,0,1.17,0.35,1.34,0.93h0.06
				c0-0.12,0-0.23,0-0.35c0-0.41-0.12-0.99-0.47-1.34c-0.35-0.35-0.82-0.47-1.46-0.53c-0.29-0.06-0.58-0.06-0.93-0.12L154.33,51.91z
				 M156.72,56.35c0-0.58-0.23-1.17-0.88-1.17c-0.93,0-1.4,1.28-1.4,2.16c0,0.58,0.23,1.11,0.88,1.11
				C156.2,58.51,156.72,57.11,156.72,56.35z"/>
			<path class="st1" d="M161.86,59.27c0-0.29,0.06-0.7,0.12-1.11h-0.06c-0.47,0.93-1.17,1.23-1.81,1.23c-0.88,0-1.46-0.7-1.46-1.69
				c0-1.69,1.17-3.5,3.5-3.5c0.53,0,1.11,0.12,1.52,0.23l-0.53,2.63c-0.12,0.76-0.23,1.69-0.23,2.28L161.86,59.27L161.86,59.27z
				 M162.33,55.18c-0.12-0.06-0.29-0.06-0.47-0.06c-1.11,0-1.99,1.23-1.99,2.39c0,0.53,0.18,0.93,0.7,0.93
				c0.53,0,1.23-0.7,1.46-1.99L162.33,55.18z"/>
		</g>
	</g>
</g>
</svg>
