<?xml version="1.0" encoding="utf-8"?>
<!-- Generator: Adobe Illustrator 25.4.1, SVG Export Plug-In . SVG Version: 6.00 Build 0)  -->
<svg version="1.1" id="Layer_1" xmlns="http://www.w3.org/2000/svg" xmlns:xlink="http://www.w3.org/1999/xlink" x="0px" y="0px"
	 viewBox="0 0 239.3 80" style="enable-background:new 0 0 239.3 80;" xml:space="preserve">
<style type="text/css">
	.st0{fill:url(#SVGID_1_);}
	.st1{fill:url(#SVGID_00000080924200538446883670000018180242262930293683_);}
</style>
<g>
	<linearGradient id="SVGID_1_" gradientUnits="userSpaceOnUse" x1="5.361" y1="24.9192" x2="207.9038" y2="24.9192">
		<stop  offset="0" style="stop-color:#1D81C4"/>
		<stop  offset="0.1656" style="stop-color:#1D79BE"/>
		<stop  offset="0.4242" style="stop-color:#1E63AC"/>
		<stop  offset="0.4981" style="stop-color:#1E5BA6"/>
		<stop  offset="0.88" style="stop-color:#23418A"/>
		<stop  offset="0.9968" style="stop-color:#253881"/>
	</linearGradient>
	<path class="st0" d="M0,26.6c0,0,8.2-9.7,25.8-7.5s28.1,11.8,35.8,15.8s21.1,13.3,44.2,13.3S146,32.8,146,32.8s-24.9,3.1-29.4-3.9
		s1.4-14.3,8.4-14.3c7,0,20.3,7.4,35.8,18.2s28.6,17.1,37.6,17.1c9,0,14.7-6.2,14.7-6.2s-4.2,1.4-11.3,1.4c-7.1,0-20.7-7.3-25.1-11
		S144.2,9,137.7,5.3S127.1,0.7,120,0.7c0,0-20.7,2.1-20.7,19s18.4,18.7,18.4,18.7s-8.5,2.4-20.5-0.4c-12-2.8-28.8-17.9-35.2-23.5
		S41.6,0,32,0S17.5,6.8,17.5,6.8s12.4-4.6,27.1,3.7C44.6,10.6,2.2,5.5,0,26.6z"/>
	
		<linearGradient id="SVGID_00000127023909383947198050000011174631744290959797_" gradientUnits="userSpaceOnUse" x1="4.0684" y1="52.384" x2="239.3287" y2="52.384">
		<stop  offset="0" style="stop-color:#BDCF16"/>
		<stop  offset="0.1543" style="stop-color:#B5CA18"/>
		<stop  offset="0.3952" style="stop-color:#9FBD1F"/>
		<stop  offset="0.4986" style="stop-color:#93B622"/>
		<stop  offset="0.9109" style="stop-color:#77A62C"/>
		<stop  offset="0.9972" style="stop-color:#71A22E"/>
	</linearGradient>
	<path style="fill:url(#SVGID_00000127023909383947198050000011174631744290959797_);" d="M4.1,26.4c0,0,14.8,1.2,26.4,10.1
		s22.8,18.4,42,29.8c19.2,11.4,34,13.8,45.7,13.8s25.6-5.3,25.6-5.3s-34.8-0.1-51.2-17.4c0,0,17.5,4.7,47.9,4.7s46.5-3.2,65.4-1.6
		c19,1.7,33.4,5.8,33.4,5.8s-14.4-11.1-42.9-14.1c-28.5-3-57.4,0.6-92,0.6c0,0-20.6,0.2-34.6-10.6c0,0,5,11.1,15.9,19.6
		c0,0-18.5-9.6-32.2-21.1S22.3,21.3,4.1,26.4z"/>
</g>
</svg>
