<?xml version="1.0" encoding="utf-8"?>
<!-- Generator: Adobe Illustrator 25.4.1, SVG Export Plug-In . SVG Version: 6.00 Build 0)  -->
<svg version="1.1" id="Layer_1" xmlns="http://www.w3.org/2000/svg" xmlns:xlink="http://www.w3.org/1999/xlink" x="0px" y="0px"
	 viewBox="0 0 372.2 80" style="enable-background:new 0 0 372.2 80;" xml:space="preserve">
<style type="text/css">
	.st0{fill:#2B2A29;}
	.st1{fill:url(#SVGID_1_);}
	.st2{fill:url(#SVGID_00000032614694700974685500000002648678752642508220_);}
</style>
<g>
	<path class="st0" d="M148.8,13.5c-0.5-0.2-1-0.4-1.4-0.5c-0.5-0.2-0.9-0.3-1.3-0.4c-0.4-0.1-0.9-0.3-1.3-0.4
		c-0.5-0.2-0.9-0.3-1.4-0.5c-1.3-0.5-2.3-1.1-3.1-1.9c-0.8-0.8-1.2-1.8-1.2-3.1c0-0.8,0.1-1.6,0.4-2.2c0.3-0.6,0.7-1.2,1.2-1.6
		c0.5-0.4,1.1-0.8,1.8-1c0.7-0.2,1.4-0.3,2.2-0.3c1,0,1.9,0.2,2.6,0.6c0.8,0.4,1.5,0.9,2.1,1.6c0.6,0.6,1.2,1.4,1.7,2.2
		c0.5,0.8,0.9,1.7,1.2,2.5l0.1,0.2h0.9V0.6h-0.8l-0.1,0.1c-0.2,0.3-0.4,0.6-0.7,0.9c-0.1,0.2-0.2,0.3-0.3,0.3
		c-0.1,0-0.1-0.1-0.3-0.2c-0.3-0.2-0.7-0.4-1.2-0.7c-0.5-0.2-1.2-0.5-2.1-0.7c-0.8-0.2-1.9-0.3-3-0.3c-1.3,0-2.5,0.2-3.6,0.5
		c-1.2,0.3-2.2,0.8-3.1,1.5c-0.9,0.7-1.6,1.6-2.1,2.6c-0.5,1-0.8,2.3-0.8,3.7c0,0.9,0.1,1.7,0.4,2.4c0.3,0.8,0.7,1.5,1.2,2.1
		c0.5,0.6,1,1.2,1.7,1.6c0.6,0.5,1.3,0.8,2,1.1c0.6,0.2,1.1,0.4,1.5,0.6c0.4,0.1,0.8,0.3,1.2,0.4c0.4,0.1,0.8,0.3,1.3,0.4
		c0.5,0.2,1,0.3,1.6,0.6c0.6,0.2,1.2,0.5,1.7,0.8c0.5,0.3,1,0.6,1.4,1c0.4,0.4,0.7,0.8,0.9,1.3c0.2,0.5,0.3,1.1,0.3,1.8
		c0,1.7-0.6,3.1-1.7,4.1c-1.1,1-2.6,1.5-4.5,1.5c-0.6,0-1.3-0.1-2-0.3c-0.7-0.2-1.3-0.5-1.7-0.7c-0.4-0.2-0.9-0.5-1.3-1
		c-0.5-0.4-0.9-0.9-1.3-1.5c-0.4-0.6-0.8-1.2-1.2-1.8c-0.4-0.6-0.6-1.3-0.9-2l-0.1-0.2h-0.8l0.1,8.2h0.7l0.1-0.1
		c0.2-0.3,0.4-0.6,0.7-0.9c0.2-0.2,0.3-0.3,0.3-0.4c0.1,0,0.2,0.1,0.4,0.2c0.3,0.2,0.8,0.4,1.4,0.6c0.6,0.2,1.4,0.4,2.3,0.6
		c0.9,0.2,2,0.2,3.3,0.2c1.5,0,2.9-0.2,4.1-0.5c1.3-0.3,2.4-0.9,3.3-1.6c0.9-0.7,1.6-1.6,2.2-2.6c0.5-1,0.8-2.2,0.8-3.5
		c0-1.9-0.5-3.5-1.5-4.8C152,15.1,150.6,14.2,148.8,13.5z"/>
	<path class="st0" d="M191.6,6.5l0.2,0c0.3,0,0.6,0.1,0.9,0.1c0.3,0,0.6,0.1,0.8,0.2c0.2,0.1,0.4,0.2,0.6,0.4
		c0.1,0.1,0.2,0.4,0.2,0.6c0,0.2,0,0.4-0.1,0.6c-0.1,0.2-0.2,0.5-0.3,0.7c-0.1,0.2-0.2,0.5-0.4,0.7c-0.1,0.2-0.2,0.4-0.3,0.6
		c-0.2,0.3-0.5,0.8-0.8,1.4c-0.4,0.6-0.8,1.2-1.2,1.8c-0.4,0.6-0.8,1.3-1.2,1.9c-0.3,0.5-0.6,0.9-0.8,1.2c-0.3-0.5-0.6-1-0.9-1.5
		c-0.4-0.6-0.8-1.3-1.2-1.9c-0.4-0.6-0.7-1.2-1-1.7c-0.3-0.5-0.6-1-0.8-1.4c-0.3-0.6-0.7-1.1-1-1.7c-0.4-0.6-0.4-1-0.4-1.1
		c0-0.2,0.1-0.4,0.2-0.5c0.1-0.1,0.3-0.2,0.6-0.3c0.3-0.1,0.5-0.2,0.8-0.2c0.3,0,0.6-0.1,0.9-0.1l0.2,0V5.7h-9.8h-0.3h-8.7v0.8
		l0.2,0c0.5,0.1,1,0.2,1.4,0.5c0.3,0.2,0.5,0.6,0.5,1.1c0,0.3-0.1,0.7-0.4,1.1c-0.3,0.4-0.6,0.9-0.9,1.3c-0.5,0.5-1.1,1.2-1.8,1.9
		c-0.7,0.7-1.4,1.4-2.1,2.1c-0.7,0.7-1.4,1.3-2,1.9c-0.4,0.4-0.8,0.7-1.1,0.9v-4.4c0-0.5,0-1,0-1.4c0-0.4,0-0.9,0-1.4
		c0-0.8,0.1-1.5,0.3-2c0.2-0.4,0.4-0.8,0.7-1c0.3-0.2,0.6-0.4,0.9-0.4c0.4-0.1,0.8-0.1,1.1-0.2l0.2,0V5.7h-10.3v0.8l0.2,0
		c0.5,0.1,1,0.2,1.4,0.3c0.4,0.2,0.7,0.4,1,0.7c0.2,0.3,0.3,0.7,0.4,1.3c0.1,0.7,0.1,1.4,0.1,2.2V21c0,0.6,0,1.1,0,1.6
		c0,0.5,0,0.9,0,1.2c0,0.3,0,0.7,0,1.1c0,0.4,0,0.7-0.1,1c0,0.3-0.1,0.6-0.1,0.8c-0.1,0.3-0.1,0.4-0.2,0.5c-0.2,0.3-0.6,0.5-1,0.6
		c-0.5,0.2-1,0.3-1.5,0.4l-0.2,0V29h10.7v-0.8l-0.2,0c-0.2,0-0.4-0.1-0.7-0.1c-0.3,0-0.6-0.1-0.8-0.2c-0.3-0.1-0.5-0.2-0.8-0.3
		c-0.2-0.1-0.4-0.3-0.5-0.5c-0.2-0.2-0.3-0.6-0.4-1.1c-0.1-0.5-0.1-1.1-0.1-1.7c0-0.7,0-1.5,0-2.5v-3.1c0.1-0.2,0.1-0.2,0.1-0.2
		c0,0,0,0,0.1,0c0.1,0,0.2,0,0.4,0.2c0.1,0.1,0.4,0.4,1.1,1.1c1.3,1.4,2.6,2.9,3.8,4.2l3.8,4.4c0.1,0.2,0.3,0.3,0.4,0.4
		c0.1,0.1,0.2,0.1,0.3,0.2l0.1,0h7.4v-0.8l-0.2,0c-0.6,0-1.1-0.1-1.6-0.2c-0.5-0.1-0.8-0.2-1.1-0.3c0,0-0.1,0-0.3-0.2
		c-0.2-0.1-0.4-0.3-0.7-0.5c-0.2-0.2-0.5-0.4-0.8-0.7c-0.3-0.2-0.5-0.5-0.7-0.7c-0.9-1-1.8-2-2.8-3.1c-1-1.1-1.9-2.1-2.7-3
		c-0.8-0.9-1.6-1.8-2.2-2.5c-0.5-0.5-0.8-1-1-1.2c0.3-0.3,0.7-0.7,1-1.1c0.4-0.4,0.9-0.9,1.3-1.3c0.5-0.5,0.9-0.9,1.4-1.4
		c0.5-0.5,0.9-0.9,1.4-1.3c1.1-1,2.2-2,3.3-2.8c1.1-0.8,2.1-1.2,3.1-1.3l0.1,0l0.1,0c0.4,0,0.7,0.1,1,0.3c0.3,0.2,0.6,0.5,0.9,0.8
		c0.3,0.3,0.7,0.8,1,1.3c0.3,0.5,0.7,1.1,1.1,1.7c0.2,0.3,0.5,0.7,0.8,1.2c0.3,0.5,0.7,1,1,1.6c0.4,0.6,0.7,1.2,1.1,1.8
		c0.4,0.6,0.7,1.2,1,1.7c0.3,0.5,0.6,0.9,0.8,1.3c0.2,0.3,0.3,0.4,0.3,0.5c0,1.1,0,2.1,0,2.9c0,0.8,0,1.5,0,2.1c0,0.3,0,0.7,0,1
		c0,0.4,0,0.7-0.1,1c0,0.3-0.1,0.6-0.1,0.8c-0.1,0.3-0.1,0.4-0.2,0.4c-0.4,0.5-0.8,0.8-1.2,0.9c-0.4,0.1-0.9,0.2-1.4,0.3l-0.2,0V29
		h10.2v-0.8l-0.2,0c-0.5-0.1-0.9-0.2-1.4-0.3c-0.5-0.1-0.8-0.4-1.1-0.8c-0.1-0.1-0.2-0.4-0.3-1.1c0-0.6,0-1.2,0-1.8v-6.3
		c0.2-0.4,0.6-0.9,1-1.5c0.4-0.7,0.9-1.4,1.4-2.1c0.5-0.7,0.9-1.4,1.4-2.1c0.5-0.7,0.8-1.2,1.1-1.6c0.4-0.6,0.7-1.1,1.1-1.6
		c0.3-0.4,0.7-0.8,1-1.2c0.3-0.3,0.7-0.6,1.1-0.8c0.4-0.2,0.9-0.3,1.4-0.4l0.2,0V5.7h-7.8V6.5z"/>
	<path class="st0" d="M265.8,26.1c1.1,1,2.5,1.8,4.1,2.3c1.6,0.5,3.4,0.8,5.5,0.8c1,0,2.1-0.1,3.1-0.3c1-0.2,2-0.5,2.8-0.8
		c0.8-0.3,1.6-0.6,2.1-0.9c0.6-0.3,1-0.5,1.1-0.7l0.1-0.1v-4.7c0-0.5,0-2.6,0-3.1c0-0.4,0.1-0.8,0.2-0.9c0.2-0.2,0.4-0.4,0.8-0.5
		c0.4-0.1,0.8-0.2,1.1-0.3l0.2,0v-0.8h-9.8v0.8l0.2,0c1.2,0.1,2,0.4,2.4,0.9c0.3,0.3,0.5,0.8,0.6,1.3c0.1,0.6,0.1,2.9,0.1,3.6
		c0,0.7,0,1.4-0.1,2.1c-0.1,0.8-0.2,1.2-0.3,1.3c-0.5,0.7-1.1,1.3-2,1.6c-0.8,0.3-1.8,0.5-2.7,0.5c-1.4,0-2.6-0.3-3.7-0.8
		c-1.1-0.5-2-1.3-2.7-2.2c-0.7-0.9-1.3-2.1-1.7-3.4c-0.4-1.3-0.6-2.8-0.6-4.4c0-1.5,0.2-2.9,0.6-4.2c0.4-1.3,1-2.5,1.8-3.5
		c0.8-1,1.7-1.8,2.8-2.4c1.1-0.6,2.3-0.9,3.6-0.9c1.3,0,2.4,0.2,3.4,0.6c1,0.4,1.9,1,2.5,1.7c0.5,0.5,1,1.2,1.4,2
		c0.5,0.8,0.8,1.7,1,2.6l0,0.2h0.8V6.2h-0.7l-0.1,0.1c-0.3,0.4-0.5,0.7-0.7,0.9c-0.1,0.1-0.1,0.2-0.2,0.2c-0.1,0-0.2-0.1-0.4-0.3
		c-0.4-0.2-0.9-0.5-1.6-0.7c-0.7-0.3-1.5-0.5-2.5-0.7c-1-0.2-2.1-0.3-3.4-0.3c-2.1,0-4,0.3-5.5,0.9c-1.5,0.6-2.8,1.4-3.8,2.4
		c-0.7,0.7-1.3,1.5-1.8,2.3c-0.5,0.8-0.9,1.6-1.1,2.4c-0.3,0.8-0.5,1.5-0.6,2.2c-0.1,0.7-0.2,1.3-0.2,1.9c0,1.8,0.3,3.5,0.9,4.9
		C263.9,23.8,264.7,25.1,265.8,26.1z"/>
	<path class="st0" d="M310.6,28.2l-0.2,0c-0.6,0-1.1-0.1-1.6-0.2c-0.5-0.1-0.8-0.2-1.1-0.3c0,0-0.1,0-0.3-0.2
		c-0.2-0.1-0.4-0.3-0.7-0.5c-0.2-0.2-0.5-0.4-0.8-0.7c-0.3-0.2-0.5-0.5-0.7-0.7c-0.9-1-1.8-2-2.8-3.1c-1-1.1-1.9-2.1-2.7-3
		c-0.8-0.9-1.6-1.8-2.2-2.5c-0.5-0.5-0.8-1-1-1.2c0.3-0.3,0.7-0.7,1-1.1c0.4-0.4,0.9-0.9,1.3-1.3c0.5-0.5,0.9-0.9,1.4-1.4
		c0.5-0.5,0.9-0.9,1.4-1.3c1.1-1,2.2-2,3.3-2.8c1.1-0.8,2.1-1.2,3.1-1.3l0.2,0V5.8h-9v0.8l0.2,0c0.5,0.1,1,0.2,1.4,0.5
		c0.3,0.2,0.5,0.6,0.5,1.1c0,0.3-0.1,0.7-0.4,1.1c-0.3,0.4-0.6,0.9-0.9,1.3c-0.5,0.5-1.1,1.2-1.8,1.9c-0.7,0.7-1.4,1.4-2.1,2.1
		c-0.7,0.7-1.4,1.3-2,1.9c-0.4,0.4-0.8,0.7-1.1,0.9v-4.4c0-0.5,0-1,0-1.4c0-0.4,0-0.9,0-1.4c0-0.8,0.1-1.5,0.3-2
		c0.2-0.4,0.4-0.8,0.7-1c0.3-0.2,0.6-0.4,0.9-0.4c0.4-0.1,0.8-0.1,1.1-0.2l0.2,0V5.8h-10.3v0.8l0.2,0c0.5,0.1,1,0.2,1.4,0.3
		c0.4,0.2,0.7,0.4,1,0.7c0.2,0.3,0.3,0.7,0.4,1.3c0.1,0.7,0.1,1.4,0.1,2.2V21c0,0.6,0,1.1,0,1.6c0,0.5,0,0.9,0,1.2
		c0,0.3,0,0.7,0,1.1c0,0.4,0,0.7-0.1,1c0,0.3-0.1,0.6-0.1,0.8c-0.1,0.3-0.1,0.4-0.2,0.5c-0.2,0.3-0.6,0.5-1,0.6
		c-0.5,0.2-1,0.3-1.5,0.4l-0.2,0V29h10.7v-0.8l-0.2,0c-0.2,0-0.4-0.1-0.7-0.1c-0.3,0-0.6-0.1-0.8-0.2c-0.3-0.1-0.5-0.2-0.8-0.3
		c-0.2-0.1-0.4-0.3-0.5-0.5c-0.2-0.2-0.3-0.6-0.4-1.1c-0.1-0.5-0.1-1.1-0.1-1.7c0-0.7,0-1.5,0-2.5v-3.1c0.1-0.2,0.1-0.2,0.1-0.2
		c0,0,0,0,0.1,0c0.1,0,0.2,0,0.4,0.2c0.1,0.1,0.4,0.4,1.1,1.1c1.3,1.4,2.6,2.9,3.8,4.2l3.8,4.4c0.1,0.2,0.3,0.3,0.4,0.4
		c0.1,0.1,0.2,0.1,0.3,0.2l0.1,0h7.4V28.2z"/>
	<path class="st0" d="M313.4,25.9c1.1,1,2.4,1.9,3.8,2.4c1.5,0.6,3,0.9,4.6,0.9c1.6,0,3.2-0.3,4.7-0.9c1.5-0.6,2.8-1.4,3.9-2.5
		c1.1-1.1,2-2.4,2.6-3.8c0.6-1.5,1-3.1,1-4.8c0-1.5-0.3-3-0.8-4.5c-0.5-1.4-1.3-2.7-2.3-3.8c-1-1.1-2.3-2-3.7-2.6
		c-1.4-0.6-3.1-1-4.9-1c-1.7,0-3.3,0.3-4.8,0.8c-1.5,0.5-2.8,1.3-4,2.4c-1.1,1-2,2.3-2.7,3.8c-0.7,1.5-1,3.1-1,5
		c0,1.7,0.3,3.3,1,4.8C311.4,23.6,312.3,24.9,313.4,25.9z M316.2,25c-0.6-1-1.1-2.1-1.5-3.4c-0.3-1.3-0.5-2.7-0.5-4.1
		c0-1.3,0.2-2.7,0.5-4c0.3-1.3,0.8-2.5,1.4-3.5c0.6-1,1.4-1.9,2.4-2.5c1-0.6,2.1-1,3.4-1c1.3,0,2.4,0.3,3.4,1c1,0.6,1.8,1.5,2.4,2.5
		c0.6,1,1.1,2.2,1.5,3.5c0.3,1.3,0.5,2.6,0.5,3.8c0,1.3-0.2,2.6-0.5,3.9c-0.3,1.3-0.8,2.5-1.4,3.5c-0.6,1-1.4,1.9-2.4,2.5
		c-0.9,0.6-2,1-3.3,1c-1.3,0-2.4-0.3-3.4-0.9C317.7,26.8,316.9,26,316.2,25z"/>
	<path class="st0" d="M343.9,28.2l-0.2,0c-0.8,0-1.5-0.2-1.9-0.5c-0.4-0.3-0.7-0.5-0.9-0.8c-0.2-0.3-0.3-0.6-0.3-1.1
		c0-0.5,0-1.1-0.1-1.7c0-0.7,0-1.5,0-2.6v-3.3c0.2,0,0.3,0,0.5,0c0.2,0,0.5,0,0.9,0.1c0.5,0.1,1,0.3,1.4,0.7
		c0.5,0.4,0.9,0.9,1.3,1.3c0.5,0.6,0.9,1.1,1.3,1.6c0.4,0.5,0.7,0.9,1,1.4c0.3,0.5,0.6,0.9,0.9,1.4c0.3,0.5,0.7,1,1.1,1.6
		c0.3,0.5,0.6,0.8,0.7,1.1c0.2,0.3,0.3,0.4,0.4,0.6c0.1,0.1,0.2,0.2,0.3,0.3c0.1,0.1,0.2,0.2,0.4,0.4l0.1,0.1h6.8v-0.8l-0.2,0
		c-0.9-0.1-1.8-0.5-2.5-0.9c-0.7-0.5-1.5-1.3-2.2-2.3c-0.5-0.7-1.1-1.5-1.7-2.5c-0.6-0.9-1.2-1.8-1.8-2.6c-0.3-0.4-0.7-0.9-1-1.2
		c-0.2-0.3-0.5-0.5-0.7-0.6c0.6-0.2,1.1-0.5,1.6-0.7c0.7-0.3,1.2-0.8,1.7-1.3c0.5-0.5,0.9-1.1,1.2-1.7c0.3-0.7,0.4-1.4,0.4-2.2
		c0-1.3-0.3-2.4-0.9-3.3c-0.6-0.9-1.4-1.6-2.3-2.1c-0.9-0.5-2-0.8-3.1-0.9c-1.1-0.1-2.4-0.1-3.8-0.1h-2.2c-0.9,0-1.8,0-2.7,0
		c-0.9,0-1.7,0-2.4,0h-1.5v0.8l0.2,0c0.6,0.1,1,0.2,1.4,0.3c0.3,0.1,0.7,0.3,1,0.6c0.1,0.1,0.2,0.2,0.2,0.5c0.1,0.3,0.1,0.6,0.2,0.9
		c0,0.3,0.1,0.7,0.1,1.1c0,0.4,0,0.8,0,1.1v8c0,0.6,0,1.2,0,1.8c0,0.6,0,1.2,0,1.7c0,0.5,0,0.9,0,1.2c0,0.3,0,0.7,0,1
		c0,0.4,0,0.7-0.1,1c0,0.3-0.1,0.6-0.1,0.8c-0.1,0.3-0.1,0.4-0.2,0.5c-0.2,0.3-0.6,0.5-1,0.7c-0.5,0.2-1,0.3-1.5,0.4l-0.2,0V29h10.6
		V28.2z M347.6,9.2c0.5,0.8,0.8,1.7,0.8,2.7c0,0.5-0.1,1.1-0.2,1.6c-0.1,0.5-0.4,1-0.6,1.4c-0.3,0.4-0.7,0.8-1.1,1.2
		c-0.5,0.3-1,0.6-1.7,0.8c-0.7,0.2-1.4,0.4-2.1,0.4c-0.7,0.1-1.4,0.1-2.1,0.1v-3.2c0-0.9,0-1.8,0-2.7c0-0.9,0-1.8,0-2.5l0-1.1
		c0-0.3,0-0.5,0-0.6c0-0.1,0-0.2,0-0.3c0,0,0-0.1,0-0.2c0.1,0,0.3,0,0.4,0c0.3,0,0.6,0,1.1,0c0.6,0,1.2,0.1,1.7,0.2
		c0.5,0.1,1.1,0.3,1.5,0.5C346.4,7.8,347.1,8.4,347.6,9.2z"/>
	<path class="st0" d="M247.1,66.6c-0.5-0.2-0.9-0.4-1.1-0.7c-0.1-0.1-0.2-0.4-0.2-1.1c0-0.6,0-1.1,0-1.8V52.4c0-0.5,0-1,0-1.6
		c0-0.5,0-1,0-1.6c0-0.5,0-1,0-1.6c0-0.5,0.1-0.9,0.3-1.2c0.2-0.5,0.6-0.7,1-0.9c0.5-0.2,1-0.3,1.4-0.3l0.2,0v-0.8h-10v0.8l0.2,0
		c0.5,0.1,1,0.2,1.4,0.3c0.4,0.1,0.7,0.4,1,0.7c0.1,0.1,0.2,0.3,0.2,0.5c0.1,0.3,0.1,0.5,0.1,0.9c0,0.3,0,0.7,0,1v9.1
		c0,0.6,0,1.2,0,1.8c0,0.6,0,1.2,0,1.7c0,0.5,0,0.9,0,1.2c0,0.3,0,0.7,0,1c0,0.3,0,0.7-0.1,1c0,0.3-0.1,0.6-0.1,0.8
		c0,0.2-0.1,0.3-0.2,0.4c-0.3,0.3-0.6,0.6-1.1,0.8c-0.4,0.2-0.9,0.3-1.3,0.4v-0.1l-0.2,0c-0.6,0-1-0.1-1.5-0.3
		c-0.4-0.2-0.8-0.4-1-0.7c-0.3-0.3-0.5-0.5-0.7-0.8c-0.2-0.3-0.3-0.4-0.3-0.5l-0.8-1.8c-0.2-0.5-0.5-1.2-0.8-2
		c-0.6-1.6-1.2-3.3-1.9-4.9c-0.6-1.7-1.3-3.4-1.9-5.2c-0.7-1.8-1.4-3.6-2.1-5.6c-0.7-1.9-1.5-4-2.3-6.1c0,0-0.1-0.2-0.1-0.2
		c0-0.1-0.9,0-1,0c-0.2,0.1-0.5,0.5-0.6,0.7c-1.7,2.4-2.9,5.2-4,8c-0.7,1.8-1.5,3.5-2.2,5.2l-2.1,4.8c-0.7,1.6-1.3,3-1.8,4.1
		c-0.6,1.3-1.1,2.3-1.5,3c-0.5,0.8-0.7,1.1-0.9,1.2l0,0c0,0-0.1,0.1-0.8,0.5c-0.4,0.3-1,0.4-1.6,0.5l-0.2,0v0.9h8.8v-0.9l-0.2,0
		c-0.3-0.1-0.7-0.1-1.1-0.2c-0.4-0.1-0.7-0.2-1-0.3c-0.3-0.1-0.5-0.3-0.7-0.5c-0.2-0.2-0.2-0.4-0.2-0.7c0-0.5,0.3-1.5,0.8-2.9
		c0.4-0.9,0.7-1.8,1.1-2.7c0.3-0.8,0.7-1.7,1.1-2.7h10c0.4,0.9,0.7,1.9,1,2.7c0.3,0.9,0.6,1.8,0.9,2.5c0.3,0.8,0.5,1.4,0.6,1.9
		c0.1,0.5,0.2,0.9,0.2,1.1c0,0.3-0.1,0.5-0.3,0.7c-0.2,0.2-0.5,0.4-0.8,0.5c-0.3,0.1-0.6,0.2-0.9,0.3c-0.4,0.1-0.5,0.1-0.5,0.1h-0.3
		v0.9h11.5h0.3h9.8v-0.8l-0.2,0C248.1,66.9,247.7,66.8,247.1,66.6z M226.6,55.7h-8.9c0.6-1.4,1.1-2.7,1.6-3.9c0.5-1.3,1-2.5,1.5-3.5
		c0.4-1,0.8-1.9,1.1-2.6c0.2-0.4,0.3-0.8,0.4-1c0.2,0.5,0.4,1,0.6,1.6c0.3,0.9,0.7,1.9,1.2,3c0.4,1.1,0.9,2.2,1.3,3.4
		C225.8,53.6,226.3,54.7,226.6,55.7z"/>
	<path class="st0" d="M294.7,60.8c-0.2,0.6-0.5,1.2-0.8,1.8c-0.3,0.6-0.6,1.1-1,1.6c-0.4,0.5-0.8,0.9-1.4,1.3
		c-0.5,0.4-1.2,0.7-2,0.9c-0.3,0.1-0.7,0.2-1.2,0.2c-0.5,0.1-0.9,0.1-1.3,0.1c-0.4,0-0.8,0.1-1.2,0.1c-0.4,0-0.6,0-0.8,0
		c-0.4,0-0.8,0-1.2-0.1c-0.4-0.1-0.8-0.1-1.2-0.2c-0.3-0.1-0.6-0.2-0.9-0.3c-0.3-0.1-0.4-0.2-0.4-0.2c-0.2-0.3-0.3-0.7-0.3-1.2
		c0-0.6-0.1-1.3-0.1-1.9c0-0.7,0-1.4,0-1.9c0-0.6,0-1.1,0-1.7v-5.8c0-0.6,0-1.2,0-1.8l0-1.8c0-0.6,0-1.3,0-2c0-0.5,0.1-0.9,0.4-1.2
		c0.2-0.3,0.5-0.6,0.8-0.7c0.3-0.2,0.7-0.3,1-0.4c0.4-0.1,0.7-0.1,1-0.2l0.2,0v-0.8h-10.6v0.8l0.2,0c0.5,0.1,1,0.2,1.5,0.4
		c0.5,0.2,0.8,0.4,1.1,0.8c0.1,0.1,0.2,0.3,0.2,0.5c0.1,0.2,0.1,0.5,0.1,0.8c0,0.3,0,0.7,0,1v9.1c0,0.6,0,1.2,0,1.8
		c0,0.6,0,1.2,0,1.7c0,0.5,0,0.9,0,1.2c0,0.3,0,0.7,0,1c0,0.3-0.1,0.7-0.1,1c0,0.3-0.1,0.6-0.2,0.8c-0.1,0.2-0.1,0.4-0.2,0.5
		c-0.3,0.3-0.6,0.5-1.1,0.7c-0.5,0.2-1,0.3-1.5,0.4c-0.9-0.1-1.7-0.5-2.4-0.9c-0.7-0.5-1.5-1.3-2.2-2.3c-0.5-0.7-1.1-1.5-1.7-2.5
		c-0.6-0.9-1.2-1.8-1.8-2.6c-0.3-0.4-0.7-0.9-1-1.2c-0.2-0.3-0.5-0.5-0.7-0.6c0.6-0.2,1.1-0.5,1.6-0.7c0.7-0.3,1.2-0.8,1.7-1.3
		c0.5-0.5,0.9-1.1,1.2-1.7c0.3-0.7,0.4-1.4,0.4-2.2c0-1.3-0.3-2.4-0.9-3.3c-0.6-0.9-1.4-1.6-2.3-2.1c-0.9-0.5-2-0.8-3.1-0.9
		c-1.1-0.1-2.4-0.1-3.8-0.1h-2.2c-0.9,0-1.8,0-2.7,0c-0.9,0-1.7,0-2.4,0h-1.5v0.8l0.2,0c0.6,0.1,1,0.2,1.4,0.3
		c0.3,0.1,0.7,0.3,1,0.6c0.1,0.1,0.2,0.2,0.2,0.5c0.1,0.3,0.1,0.6,0.2,0.9c0,0.3,0.1,0.7,0.1,1.1c0,0.4,0,0.8,0,1.1v8
		c0,0.6,0,1.2,0,1.8c0,0.6,0,1.2,0,1.7c0,0.5,0,0.9,0,1.2c0,0.3,0,0.7,0,1c0,0.4,0,0.7-0.1,1c0,0.3-0.1,0.6-0.1,0.8
		c-0.1,0.3-0.1,0.4-0.2,0.5c-0.2,0.3-0.6,0.5-1,0.7c-0.5,0.2-1,0.3-1.5,0.4l-0.2,0v0.8h10.6v-0.8l-0.2,0c-0.8,0-1.5-0.2-1.9-0.5
		c-0.4-0.3-0.7-0.5-0.9-0.8c-0.2-0.3-0.3-0.6-0.3-1.1c0-0.5,0-1.1-0.1-1.7c0-0.7,0-1.5,0-2.6V57c0.2,0,0.3,0,0.5,0
		c0.2,0,0.5,0,0.9,0.1c0.5,0.1,1,0.3,1.4,0.7c0.5,0.4,0.9,0.9,1.3,1.3c0.5,0.6,0.9,1.1,1.3,1.6c0.4,0.5,0.7,0.9,1,1.4
		c0.3,0.5,0.6,0.9,0.9,1.4c0.3,0.5,0.7,1,1.1,1.6c0.3,0.5,0.6,0.8,0.7,1.1c0.2,0.3,0.3,0.4,0.4,0.6c0.1,0.1,0.2,0.2,0.3,0.3
		c0.1,0.1,0.2,0.2,0.4,0.4l0.1,0.1h6.3h0.5h20.2l1.2-6.9l-0.8-0.2L294.7,60.8z M256.8,52.9c0-0.9,0-1.8,0-2.7c0-0.9,0-1.8,0-2.5
		l0-1.1c0-0.3,0-0.5,0-0.6c0-0.1,0-0.2,0-0.3c0,0,0-0.1,0-0.2c0.1,0,0.3,0,0.4,0c0.3,0,0.6,0,1.1,0c0.6,0,1.2,0.1,1.7,0.2
		c0.5,0.1,1.1,0.3,1.5,0.5c1,0.5,1.7,1.1,2.2,1.9c0.5,0.8,0.8,1.7,0.8,2.7c0,0.5-0.1,1.1-0.2,1.6c-0.1,0.5-0.4,1-0.6,1.4
		c-0.3,0.4-0.7,0.8-1.1,1.2c-0.5,0.3-1,0.6-1.7,0.8c-0.7,0.2-1.4,0.4-2.1,0.4c-0.7,0.1-1.4,0.1-2.1,0.1V52.9z"/>
	<path class="st0" d="M304.6,66.6c-0.5-0.2-0.9-0.4-1.1-0.7c-0.1-0.1-0.2-0.4-0.2-1.1c0-0.6,0-1.1,0-1.8V52.4c0-0.5,0-1,0-1.6
		c0-0.5,0-1,0-1.6c0-0.5,0-1,0-1.6c0-0.5,0.1-0.9,0.3-1.2c0.2-0.5,0.6-0.7,1-0.9c0.5-0.2,1-0.3,1.4-0.3l0.2,0v-0.8h-10v0.8l0.2,0
		c0.5,0.1,1,0.2,1.4,0.3c0.4,0.1,0.7,0.4,1,0.7c0.1,0.1,0.2,0.3,0.2,0.5c0.1,0.3,0.1,0.5,0.1,0.9c0,0.3,0,0.7,0,1v9.1
		c0,0.6,0,1.2,0,1.8c0,0.6,0,1.2,0,1.7c0,0.5,0,0.9,0,1.2c0,0.3,0,0.7,0,1c0,0.3,0,0.7-0.1,1c0,0.3-0.1,0.6-0.1,0.8
		c0,0.2-0.1,0.3-0.2,0.4c-0.3,0.3-0.6,0.6-1.1,0.8c-0.4,0.2-0.9,0.3-1.4,0.4l-0.2,0v0.8h10.1v-0.8l-0.2,0
		C305.7,66.9,305.2,66.8,304.6,66.6z"/>
	<path class="st0" d="M324.5,45.3l0.2,0c1,0.1,1.8,0.4,2.3,0.7c0.5,0.3,0.9,0.8,1.1,1.3c0.2,0.4,0.3,1,0.3,1.7c0,0.8,0,1.6,0,2.4
		v10.1L313,44.5h-7.2v0.8l0.2,0c0.3,0,0.7,0.1,1.1,0.2c0.4,0.1,0.7,0.2,1,0.4c0.3,0.2,0.6,0.5,0.8,0.8c0.2,0.4,0.4,0.8,0.4,1.4
		c0,0.6,0,1.1,0,1.5v3.9c0,1.4,0,2.7,0,4c0,1.2-0.1,2.3-0.1,3.2c0,1.2-0.1,2.2-0.2,3.1c-0.1,0.8-0.3,1.4-0.6,1.8
		c-0.3,0.4-0.7,0.7-1.1,0.9c-0.5,0.2-1,0.3-1.5,0.4l-0.2,0v0.8h8.7v-0.8l-0.2,0c-0.9-0.1-1.6-0.3-2.1-0.5c-0.5-0.2-0.8-0.5-1-1
		c-0.2-0.4-0.3-1-0.4-1.8c-0.1-0.9-0.1-1.8-0.1-2.9V48c1.3,1.4,2.6,2.8,3.8,4.2c1.4,1.5,2.7,3,4.1,4.6c1.4,1.6,2.9,3.2,4.4,4.9
		c1.5,1.7,3.3,3.6,5.2,5.7c0.3,0.3,0.5,0.4,0.8,0.4c0.2,0,0.3-0.1,0.4-0.2c0.1-0.1,0.2-0.2,0.2-0.4v-2.1c0-0.8,0-1.5,0-2.3
		c0-0.8,0-1.5,0-2.3v-2c0-1.4,0-2.7,0-4c0-1.3,0.1-2.3,0.1-3.2c0-1,0.1-1.9,0.1-2.7c0.1-1,0.2-1.5,0.3-1.7c0.2-0.6,0.6-1,1-1.2
		c0.5-0.3,1.1-0.5,1.9-0.6l0.2,0v-0.8h-8.8V45.3z"/>
	<path class="st0" d="M353.2,61.2c-0.5,0.9-1,1.7-1.5,2.3c-0.5,0.6-1,1.2-1.5,1.6c-0.5,0.4-1,0.8-1.6,1c-0.5,0.2-1.2,0.4-1.8,0.5
		c-0.6,0.1-1.2,0.1-1.7,0.2c-0.6,0-1,0-1.4,0c-0.8,0-1.6-0.1-2.3-0.2c-0.8-0.1-1.1-0.4-1.2-0.5c-0.2-0.3-0.3-0.7-0.3-1.2
		c-0.1-0.6-0.1-1.2-0.1-1.9c0-0.2,0-0.5,0-0.8c0-0.3,0-0.6,0-1v-4.3c0-0.4,0-0.8,0-1h1.2c0.2,0,0.4,0,0.6,0c0.2,0,0.5,0,0.8,0
		c1.5,0.1,3,0,4.4,0.4c0.4,0.1,0.9,0.2,1.3,0.4c0.4,0.3,0.6,0.4,0.9,1.1c0.3,0.7,0.4,0.9,0.5,1.6l0,0.2h0.8v-8.2h-0.8
		c0,0,0,0.2,0,0.2c-0.1,0.7-0.3,1.4-1,1.8c-0.8,0.5-1.8,1.2-2.9,1.2c-1,0.1-1.9,0.1-2.9,0.1c-0.9,0-1.8,0.1-2.7,0.1h-0.4v-0.1
		c0-0.2,0-0.5,0-0.8c0-0.3,0-0.3,0-0.9v-2c0-1.4,0-2.6,0-3.7c0-0.9,0.1-1.5,0.1-1.9c0.2,0,0.5-0.1,0.8-0.1c0.5,0,0.9,0,1.4,0
		c1.4,0,2.6,0.1,3.5,0.2c0.9,0.1,3.1,0.5,3.5,0.7c1.5,0.7,2.8,1.3,3.2,4l0.1,0.2l0.7-0.4l-0.4-5.6h-19.8v0.8l0.2,0
		c0.6,0.1,1,0.2,1.4,0.3c0.3,0.1,0.6,0.3,0.9,0.6c0.1,0.1,0.2,0.2,0.2,0.5c0.1,0.3,0.1,0.6,0.2,0.9c0,0.3,0.1,0.7,0.1,1.1
		c0,0.4,0,0.8,0,1.2v8c0,0.6,0,1.2,0,1.8c0,0.6,0,1.2,0,1.7c0,0.5,0,0.9,0,1.2c0,0.3,0,0.7,0,1c0,0.3-0.1,0.7-0.1,1
		c-0.1,0.3-0.1,0.6-0.2,0.8c-0.1,0.2-0.1,0.4-0.2,0.5c-0.3,0.3-0.6,0.6-1,0.7c-0.4,0.2-0.9,0.3-1.4,0.4l-0.2,0v0.8h19.8l1.7-6.5
		l-0.8-0.2L353.2,61.2z"/>
	<path class="st0" d="M370.9,57.4c-0.8-1-2-1.8-3.4-2.4c-0.4-0.1-0.8-0.3-1.2-0.4c-0.4-0.1-0.7-0.2-1.1-0.4
		c-0.4-0.1-0.7-0.2-1.1-0.4c-0.4-0.1-0.8-0.3-1.2-0.4c-1-0.4-1.9-0.9-2.5-1.6c-0.6-0.6-0.9-1.5-0.9-2.5c0-0.7,0.1-1.3,0.3-1.8
		c0.2-0.5,0.5-1,0.9-1.3c0.4-0.4,0.9-0.6,1.4-0.8c0.6-0.2,1.1-0.3,1.8-0.3c0.8,0,1.5,0.2,2.1,0.5c0.6,0.3,1.2,0.7,1.7,1.3
		c0.5,0.5,1,1.1,1.4,1.8c0.4,0.7,0.7,1.4,1,2l0.1,0.2h0.8v-6.4h-0.7l-0.1,0.1c-0.2,0.2-0.3,0.5-0.5,0.7c-0.1,0.1-0.2,0.2-0.2,0.2
		c0,0-0.1-0.1-0.2-0.1c-0.2-0.2-0.6-0.3-1-0.5c-0.4-0.2-1-0.4-1.7-0.5c-0.7-0.2-1.5-0.2-2.5-0.2c-1,0-2,0.1-3,0.4
		c-0.9,0.3-1.8,0.7-2.5,1.3c-0.7,0.6-1.3,1.3-1.7,2.1c-0.4,0.9-0.7,1.9-0.7,3.1c0,0.7,0.1,1.4,0.4,2c0.2,0.6,0.6,1.2,1,1.7
		c0.4,0.5,0.9,1,1.4,1.3c0.5,0.4,1.1,0.7,1.6,0.9c0.5,0.2,0.9,0.3,1.3,0.5c0.3,0.1,0.7,0.2,1,0.3c0.3,0.1,0.7,0.2,1.1,0.4
		c0.4,0.1,0.8,0.3,1.3,0.5c0.5,0.2,1,0.4,1.4,0.6c0.4,0.2,0.8,0.5,1.1,0.8c0.3,0.3,0.5,0.7,0.7,1.1c0.2,0.4,0.3,0.9,0.3,1.5
		c0,1.4-0.4,2.5-1.4,3.3c-0.9,0.8-2.1,1.2-3.6,1.2c-0.5,0-1.1-0.1-1.6-0.3c-0.6-0.2-1-0.4-1.4-0.6c-0.3-0.2-0.7-0.4-1.1-0.8
		c-0.4-0.3-0.7-0.8-1.1-1.2c-0.3-0.5-0.7-1-0.9-1.5c-0.3-0.5-0.5-1.1-0.7-1.6l-0.1-0.2H356l0.1,6.8h0.7l0.1-0.1
		c0.2-0.2,0.4-0.5,0.6-0.7c0.1-0.2,0.2-0.2,0.2-0.3c0.1,0,0.1,0.1,0.3,0.2c0.3,0.2,0.6,0.3,1.1,0.5c0.5,0.2,1.1,0.3,1.9,0.5
		c0.7,0.1,1.7,0.2,2.7,0.2c1.2,0,2.4-0.1,3.4-0.4c1-0.3,1.9-0.7,2.7-1.3c0.8-0.6,1.4-1.3,1.8-2.1c0.4-0.8,0.6-1.8,0.6-2.8
		C372.2,59.7,371.7,58.4,370.9,57.4z"/>
	<path class="st0" d="M255,5.8v0.8l0.2,0c0.9,0.1,1.6,0.4,2.1,0.7c0.5,0.3,0.8,0.8,1,1.3c0.1,0.4,0.2,1,0.3,1.7c0,0.8,0,1.6,0,2.4
		v10.1L244.8,5.8h-6.4v0.8l0.2,0c0.3,0,0.6,0.1,1,0.2c0.3,0.1,0.6,0.2,0.9,0.4c0.3,0.2,0.5,0.5,0.7,0.8c0.2,0.4,0.3,0.8,0.4,1.4
		c0,0.6,0,1.1,0,1.5v3.9c0,1.4,0,2.7,0,4c0,1.2,0,2.3-0.1,3.2c0,1.2-0.1,2.2-0.2,3.1c-0.1,0.8-0.2,1.4-0.5,1.8
		c-0.3,0.4-0.6,0.7-1,0.9c-0.2,0.1-0.4,0.1-0.6,0.2c-0.3-0.1-0.7-0.1-0.9-0.3c-0.4-0.2-0.8-0.4-1-0.7c-0.3-0.3-0.5-0.5-0.7-0.8
		c-0.2-0.3-0.3-0.4-0.3-0.5l-0.8-1.8c-0.2-0.5-0.5-1.2-0.8-2c-0.6-1.6-1.2-3.3-1.9-4.9c-0.6-1.7-1.3-3.4-1.9-5.2
		c-0.7-1.8-1.4-3.6-2.1-5.6c-0.7-1.9-1.5-4-2.3-6.1c0,0-0.1-0.2-0.1-0.2c0-0.1-0.9,0-1,0c-0.2,0.1-0.5,0.5-0.6,0.7
		c-1.7,2.4-2.9,5.2-4,8c-0.7,1.8-1.5,3.5-2.2,5.2l-2.1,4.8c-0.7,1.6-1.3,3-1.8,4.1c-0.6,1.3-1.1,2.3-1.5,3c-0.5,0.8-0.7,1.1-0.9,1.2
		l0,0c0,0-0.1,0.1-0.8,0.5c-0.4,0.3-1,0.4-1.6,0.5l-0.2,0V29h8.8v-0.9l-0.2,0c-0.3-0.1-0.7-0.1-1.1-0.2c-0.4-0.1-0.7-0.2-1-0.3
		c-0.3-0.1-0.5-0.3-0.7-0.5c-0.2-0.2-0.2-0.4-0.2-0.7c0-0.5,0.3-1.5,0.8-2.9c0.4-0.9,0.7-1.8,1.1-2.7c0.3-0.8,0.7-1.7,1.1-2.7h10
		c0.4,0.9,0.7,1.9,1,2.7c0.3,0.9,0.6,1.8,0.9,2.5c0.3,0.8,0.5,1.4,0.6,1.9c0.1,0.5,0.2,0.9,0.2,1.1c0,0.3-0.1,0.5-0.3,0.7
		c-0.2,0.2-0.5,0.4-0.8,0.5c-0.3,0.1-0.6,0.2-0.9,0.3c-0.4,0.1-0.5,0.1-0.5,0.1h-0.3V29h11.2v0h6.7v-0.8l-0.2,0
		c-0.8-0.1-1.4-0.3-1.8-0.5c-0.4-0.2-0.7-0.5-0.9-1c-0.2-0.4-0.3-1-0.3-1.8c0-0.9-0.1-1.8-0.1-2.9V9.3c1.2,1.4,2.3,2.8,3.4,4.2
		c1.2,1.5,2.4,3,3.7,4.6c1.3,1.6,2.6,3.2,4,4.9c1.4,1.7,2.9,3.6,4.6,5.7c0.2,0.3,0.5,0.4,0.7,0.4c0.2,0,0.3-0.1,0.4-0.2
		c0.1-0.1,0.1-0.2,0.1-0.4v-2.1c0-0.8,0-1.5,0-2.3c0-0.8,0-1.5,0-2.3v-2c0-1.4,0-2.7,0-4c0-1.3,0.1-2.3,0.1-3.2c0-1,0.1-1.9,0.1-2.7
		c0-1,0.2-1.5,0.2-1.7c0.2-0.6,0.5-1,0.9-1.2c0.4-0.3,1-0.5,1.7-0.6l0.2,0V5.8H255z M218.7,17c0.6-1.4,1.1-2.7,1.6-3.9
		c0.5-1.3,1-2.5,1.5-3.5c0.4-1,0.8-1.9,1.1-2.6c0.2-0.4,0.3-0.8,0.4-1c0.2,0.5,0.4,1,0.6,1.6c0.3,0.9,0.7,1.9,1.2,3
		c0.4,1.1,0.9,2.2,1.3,3.4c0.4,1,0.8,2.1,1.2,3.1H218.7z"/>
	<linearGradient id="SVGID_1_" gradientUnits="userSpaceOnUse" x1="4.4097" y1="34.693" x2="171.0122" y2="34.693">
		<stop  offset="0" style="stop-color:#1D81C4"/>
		<stop  offset="0.1656" style="stop-color:#1D79BE"/>
		<stop  offset="0.4242" style="stop-color:#1E63AC"/>
		<stop  offset="0.4981" style="stop-color:#1E5BA6"/>
		<stop  offset="0.88" style="stop-color:#23418A"/>
		<stop  offset="0.9968" style="stop-color:#253881"/>
	</linearGradient>
	<path class="st1" d="M0,36.1c0,0,6.7-8,21.2-6.2s23.1,9.7,29.4,13c6.3,3.3,17.4,10.9,36.3,10.9s33.2-12.6,33.2-12.6
		s-20.5,2.6-24.2-3.2c-3.7-5.8,1.2-11.8,6.9-11.8c5.7,0,16.7,6.1,29.4,15c12.7,8.8,23.5,14,31,14c7.4,0,12.1-5.1,12.1-5.1
		s-3.4,1.2-9.3,1.2s-17-6-20.7-9c-3.7-3.1-26.7-20.6-32.1-23.7c-5.4-3.1-8.7-3.8-14.6-3.8c0,0-17,1.8-17,15.6s15.1,15.4,15.1,15.4
		s-7,1.9-16.8-0.4C70.1,43.1,56.3,30.7,51,26.1S34.2,14.2,26.3,14.2s-11.9,5.6-11.9,5.6s10.2-3.8,22.3,3.1
		C36.7,22.9,1.8,18.7,0,36.1z"/>
	
		<linearGradient id="SVGID_00000066488925986468906120000009385461697636588466_" gradientUnits="userSpaceOnUse" x1="3.3464" y1="57.2843" x2="196.8609" y2="57.2843">
		<stop  offset="0" style="stop-color:#BDCF16"/>
		<stop  offset="0.1543" style="stop-color:#B5CA18"/>
		<stop  offset="0.3952" style="stop-color:#9FBD1F"/>
		<stop  offset="0.4986" style="stop-color:#93B622"/>
		<stop  offset="0.9109" style="stop-color:#77A62C"/>
		<stop  offset="0.9972" style="stop-color:#71A22E"/>
	</linearGradient>
	<path style="fill:url(#SVGID_00000066488925986468906120000009385461697636588466_);" d="M3.3,35.9c0,0,12.2,1,21.7,8.3
		s18.8,15.1,34.6,24.5S87.5,80,97.2,80s21.1-4.4,21.1-4.4s-28.6-0.1-42.1-14.3c0,0,14.4,3.9,39.4,3.9s38.2-2.7,53.8-1.3
		c15.6,1.4,27.5,4.8,27.5,4.8s-11.9-9.2-35.3-11.6c-23.5-2.5-47.2,0.5-75.7,0.5c0,0-17,0.2-28.5-8.7c0,0,4.1,9.1,13.1,16.1
		c0,0-15.2-7.9-26.5-17.4S18.4,31.7,3.3,35.9z"/>
</g>
</svg>
