<?xml version="1.0" encoding="utf-8"?>
<!-- Generator: Adobe Illustrator 25.4.1, SVG Export Plug-In . SVG Version: 6.00 Build 0)  -->
<svg version="1.1" id="Layer_1" xmlns="http://www.w3.org/2000/svg" xmlns:xlink="http://www.w3.org/1999/xlink" x="0px" y="0px"
	 viewBox="0 0 414.8 80" style="enable-background:new 0 0 414.8 80;" xml:space="preserve">
<style type="text/css">
	.st0{fill-rule:evenodd;clip-rule:evenodd;fill:#231F20;}
	.st1{fill-rule:evenodd;clip-rule:evenodd;fill:#CE1F2E;}
	.st2{fill-rule:evenodd;clip-rule:evenodd;fill:#FFFFFF;filter:url(#Adobe_OpacityMaskFilter);}
	.st3{mask:url(#c_00000070092784191695943470000017638504575433930902_);fill-rule:evenodd;clip-rule:evenodd;fill:#231F20;}
	
		.st4{fill-rule:evenodd;clip-rule:evenodd;fill:#FFFFFF;filter:url(#Adobe_OpacityMaskFilter_00000069370815925352769600000013367744685317082273_);}
	.st5{mask:url(#c_00000048462974555290865060000003618853212722131365_);fill-rule:evenodd;clip-rule:evenodd;fill:#231F20;}
	
		.st6{fill-rule:evenodd;clip-rule:evenodd;fill:#FFFFFF;filter:url(#Adobe_OpacityMaskFilter_00000140713803415309042550000005287385836874775464_);}
	.st7{mask:url(#c_00000128476841014636692280000001746438057760243842_);fill-rule:evenodd;clip-rule:evenodd;fill:#231F20;}
	
		.st8{fill-rule:evenodd;clip-rule:evenodd;fill:#FFFFFF;filter:url(#Adobe_OpacityMaskFilter_00000145771693241289177700000008088295354917137052_);}
	.st9{mask:url(#c_00000048490657474205686360000011463774958234570419_);fill-rule:evenodd;clip-rule:evenodd;fill:#CE1F2E;}
	
		.st10{fill-rule:evenodd;clip-rule:evenodd;fill:#FFFFFF;filter:url(#Adobe_OpacityMaskFilter_00000054964913809621893820000005940170247158311041_);}
	.st11{mask:url(#c_00000130629455206031499910000013573307658071157420_);fill-rule:evenodd;clip-rule:evenodd;fill:#CE1F2E;}
	
		.st12{fill-rule:evenodd;clip-rule:evenodd;fill:#FFFFFF;filter:url(#Adobe_OpacityMaskFilter_00000052091976969516769320000005041091046182016684_);}
	.st13{mask:url(#c_00000102529903614959435800000012851631259023319480_);fill-rule:evenodd;clip-rule:evenodd;fill:#CE1F2E;}
</style>
<circle class="st0" cx="39.8" cy="40" r="40"/>
<path class="st1" d="M39.8,0C17.8,0,0,17.9,0,40c0,7.3,2,14.2,5.4,20.1c5.3-7.3,21.5-10.1,30-11.9l2.7-0.6c5.2-1.1,9.9-3.2,13.9-6.1
	c-3,5.2-11,16.4-27,19.8c-6.7,1.4-12.6,2-17.1,2.7c0.8,1,1.5,2,2.4,2.9c0.3,0,0.7-0.1,1-0.1c4-0.5,9-1.2,14.5-2.3
	c5.2-1.1,9.7-3,13.5-5.3c-4.5,6.6-14.6,11.9-22.9,13.2C23,77.2,31.1,80,39.8,80c22,0,39.8-17.9,39.8-40S61.7,0,39.8,0"/>
<path class="st0" d="M37.3,44.6C19.9,48.3,8.2,50.5,4.5,56.3c1.1-4.7,3.1-9,5-11.2c5.9-7,11.6-9,25.6-13.8c2.7-0.9,5.7-2,9.1-3.1
	c13.6-4.8,18.9-11.5,20.9-16.2C65.1,12.1,62.3,39.2,37.3,44.6"/>
<path class="st0" d="M236.1,22.9h-5.4v34.3h24.1v-5.5h-18.6V22.9z"/>
<path class="st0" d="M264.6,43.7c1.7-0.9,3.6-1.3,6.1-1.3h5.8c2.9,0,6.4,0.8,6.4,4.7c0,3.4-3.6,4.7-5.9,4.7h-12.4L264.6,43.7z
	 M276.5,36.8h-5.8c-2,0-4.1,0.1-6.1,1.2v-9.6h11.9c3.2,0,4.7,1.3,4.7,4C281.2,35.3,279.5,36.8,276.5,36.8z M283.9,39
	c1.8-1.3,2.8-3.7,2.8-6.6c0-5.8-4-9.5-10.2-9.5h-17.3v34.3h17.3c5.4,0,11.8-2.5,11.8-9.5C288.3,43.1,286.1,40.2,283.9,39z"/>
<path class="st0" d="M355.6,47.3l-18.4-24.3l-0.1-0.1h-6.4l0.8,1.9v32.5h5.4V31.9l18.9,25.3h5.3V22.8h-5.5L355.6,47.3z"/>
<defs>
	<filter id="Adobe_OpacityMaskFilter" filterUnits="userSpaceOnUse" x="369.5" y="22.9" width="5.4" height="34.3">
		<feColorMatrix  type="matrix" values="1 0 0 0 0  0 1 0 0 0  0 0 1 0 0  0 0 0 1 0"/>
	</filter>
</defs>
<mask maskUnits="userSpaceOnUse" x="369.5" y="22.9" width="5.4" height="34.3" id="c_00000070092784191695943470000017638504575433930902_">
	<path class="st2" d="M-1,81.6h414.8v-80H-1V81.6z"/>
</mask>
<path class="st3" d="M369.5,57.2h5.4V22.9h-5.4V57.2z"/>
<defs>
	
		<filter id="Adobe_OpacityMaskFilter_00000176022987651769408690000017969000604440012956_" filterUnits="userSpaceOnUse" x="290.2" y="22.8" width="36.2" height="34.4">
		<feColorMatrix  type="matrix" values="1 0 0 0 0  0 1 0 0 0  0 0 1 0 0  0 0 0 1 0"/>
	</filter>
</defs>
<mask maskUnits="userSpaceOnUse" x="290.2" y="22.8" width="36.2" height="34.4" id="c_00000048462974555290865060000003618853212722131365_">
	
		<path style="fill-rule:evenodd;clip-rule:evenodd;fill:#FFFFFF;filter:url(#Adobe_OpacityMaskFilter_00000176022987651769408690000017969000604440012956_);" d="
		M-1,81.6h414.8v-80H-1V81.6z"/>
</mask>
<path class="st5" d="M308.7,31.9l6.4,13.9h-5.8c-4.3,0-6.6,0.8-7.9,1.5L308.7,31.9z M310.6,22.8h-6.1l0.9,2.2l-15.2,32.2h5.9
	l1.5-2.4c0.7-1.3,3.9-3.3,9.9-3.3h10.1l2.7,5.7h6.1l-15.7-34.3L310.6,22.8z"/>
<path class="st0" d="M399,23l-0.1-0.2l-6,0.1l0.9,2l-15.2,32.2h5.9l1.5-2.4c0.7-1.3,3.9-3.3,9.9-3.3H406l2.7,5.5l0.1,0.2h6.1L399,23
	z M397.7,45.8c-4.3,0-6.6,0.8-7.9,1.5l7.3-15.4l6.4,13.9H397.7z"/>
<defs>
	
		<filter id="Adobe_OpacityMaskFilter_00000049189501444530827030000005071884258523878053_" filterUnits="userSpaceOnUse" x="190.9" y="22.8" width="36.2" height="34.4">
		<feColorMatrix  type="matrix" values="1 0 0 0 0  0 1 0 0 0  0 0 1 0 0  0 0 0 1 0"/>
	</filter>
</defs>
<mask maskUnits="userSpaceOnUse" x="190.9" y="22.8" width="36.2" height="34.4" id="c_00000128476841014636692280000001746438057760243842_">
	
		<path style="fill-rule:evenodd;clip-rule:evenodd;fill:#FFFFFF;filter:url(#Adobe_OpacityMaskFilter_00000049189501444530827030000005071884258523878053_);" d="
		M-1,81.6h414.8v-80H-1V81.6z"/>
</mask>
<path class="st7" d="M209.4,31.9l6.4,13.9H210c-4.3,0-6.6,0.8-7.9,1.5L209.4,31.9z M211.2,22.8h-6.1l0.9,2.2l-15.2,32.2h5.9l1.5-2.4
	c0.7-1.3,3.9-3.3,9.9-3.3h10.1l2.7,5.5l0.1,0.2h6.1l-15.7-34.3L211.2,22.8z"/>
<defs>
	
		<filter id="Adobe_OpacityMaskFilter_00000123443501638396867920000009922344543248634758_" filterUnits="userSpaceOnUse" x="133" y="22.9" width="5.4" height="34.3">
		<feColorMatrix  type="matrix" values="1 0 0 0 0  0 1 0 0 0  0 0 1 0 0  0 0 0 1 0"/>
	</filter>
</defs>
<mask maskUnits="userSpaceOnUse" x="133" y="22.9" width="5.4" height="34.3" id="c_00000048490657474205686360000011463774958234570419_">
	
		<path style="fill-rule:evenodd;clip-rule:evenodd;fill:#FFFFFF;filter:url(#Adobe_OpacityMaskFilter_00000123443501638396867920000009922344543248634758_);" d="
		M-1,81.6h414.8v-80H-1V81.6z"/>
</mask>
<path class="st9" d="M133,57.2h5.4V22.9H133V57.2z"/>
<defs>
	
		<filter id="Adobe_OpacityMaskFilter_00000142895979634965206210000004361082903455521432_" filterUnits="userSpaceOnUse" x="146.8" y="22.9" width="30.3" height="34.3">
		<feColorMatrix  type="matrix" values="1 0 0 0 0  0 1 0 0 0  0 0 1 0 0  0 0 0 1 0"/>
	</filter>
</defs>
<mask maskUnits="userSpaceOnUse" x="146.8" y="22.9" width="30.3" height="34.3" id="c_00000130629455206031499910000013573307658071157420_">
	
		<path style="fill-rule:evenodd;clip-rule:evenodd;fill:#FFFFFF;filter:url(#Adobe_OpacityMaskFilter_00000142895979634965206210000004361082903455521432_);" d="
		M-1,81.6h414.8v-80H-1V81.6z"/>
</mask>
<path class="st11" d="M152.3,28.4h12.5c3.6,0,5.5,1.5,5.5,4.5c0,4-3,4.9-5.5,4.9h-6.4c-2,0-4.1,0.1-6.1,1.1V28.4z M175.7,51.7h-0.5
	c-2,0-2.7-0.5-4.8-3.7l-2.5-5.1c4.9-1.4,7.6-4.8,7.6-9.8c0-6.2-4.3-10.2-10.9-10.2h-17.9v34.3h5.4V44.4c2.1-1.1,4.2-1.2,6.1-1.2h3.8
	l4,8.5c2.6,5.5,6.7,5.5,10.7,5.5h0.3v-5.6L175.7,51.7z"/>
<defs>
	
		<filter id="Adobe_OpacityMaskFilter_00000146463016564516527510000006237417150943044772_" filterUnits="userSpaceOnUse" x="92.6" y="22.8" width="36.2" height="34.4">
		<feColorMatrix  type="matrix" values="1 0 0 0 0  0 1 0 0 0  0 0 1 0 0  0 0 0 1 0"/>
	</filter>
</defs>
<mask maskUnits="userSpaceOnUse" x="92.6" y="22.8" width="36.2" height="34.4" id="c_00000102529903614959435800000012851631259023319480_">
	
		<path style="fill-rule:evenodd;clip-rule:evenodd;fill:#FFFFFF;filter:url(#Adobe_OpacityMaskFilter_00000146463016564516527510000006237417150943044772_);" d="
		M-1,81.6h414.8v-80H-1V81.6z"/>
</mask>
<path class="st13" d="M111.1,31.9l6.4,13.9h-5.8c-4.3,0-6.6,0.8-7.9,1.5L111.1,31.9z M113,22.8H107l0.9,2.2L92.6,57.2h5.9l1.5-2.4
	c0.7-1.3,3.9-3.3,9.9-3.3H120l2.7,5.5l0.1,0.2h6.1l-15.7-34.3L113,22.8z"/>
</svg>
