<?xml version="1.0" encoding="utf-8"?>
<!-- Generator: Adobe Illustrator 25.4.1, SVG Export Plug-In . SVG Version: 6.00 Build 0)  -->
<svg version="1.1" id="Layer_1" xmlns="http://www.w3.org/2000/svg" xmlns:xlink="http://www.w3.org/1999/xlink" x="0px" y="0px"
	 viewBox="0 0 371.14 80" style="enable-background:new 0 0 371.14 80;" xml:space="preserve">
<style type="text/css">
	.st0{fill:#D12149;}
</style>
<g>
	<path class="st0" d="M35.44,39.56l4.24-8.91H3.04c0,0,0.87,1.83,2.17,4.56c0.86,1.98,1.24,3.24,0.73,6.33
		C5.92,41.63,0.5,72.42,0.08,74.75c-0.43,2.44,1.04,3.59,2.96,3.59c1.84,0,30.84,0,30.84,0l-2.01-8.93H12.09l1.92-10.88h18.24
		l1.58-8.98H15.6l1.75-9.99L35.44,39.56L35.44,39.56z"/>
	<path class="st0" d="M327.18,39.56l4.25-8.91h-34.9c0,0,0.86,1.83,2.17,4.56c0.85,1.98,1.24,3.24,0.73,6.33
		c-0.01,0.09-5.45,30.88-5.87,33.22c-0.44,2.44,1.04,3.59,2.96,3.59c1.83,0,29.1,0,29.1,0l-2.01-8.93h-18.03l1.91-10.88h16.5
		l1.58-8.98h-16.49l1.76-9.99L327.18,39.56L327.18,39.56z"/>
	<path class="st0" d="M101.49,42.7c0.81-2.57,3.61-3.14,7.72-3.14h7.41l3.24-8.91c0,0-11.51,0-12.67,0
		c-4.59,0-15.09-0.43-17.34,9.79c-3.12,14.24,15.35,18.35,14.42,24.83c-0.55,3.8-4.18,4.14-9.19,4.14c-2.8,0-11.06,0-11.06,0
		l2.07,8.93h12.53c6.49,0,15.54-1.18,17.67-9.26C120.14,54.57,99.42,49.84,101.49,42.7L101.49,42.7z"/>
	<path class="st0" d="M239.76,44.73c0.61-7.81-4.27-14.07-16.5-14.07h-17.88l2.15,4.56c0.86,1.98,1.24,3.24,0.73,6.32l-6.49,36.81
		h10.73l3.15-17.87c0,0,0.79-0.11,2.99,0.01c2.95,0.17,3.44,2.25,9.39,17.86h11.75c-6.32-15.77-7.45-18.61-9.42-20.58
		C235.18,55.84,239.27,51.18,239.76,44.73L239.76,44.73z M228.99,45.65c-0.69,3.9-4.09,6.81-8.33,6.81h-3.58l2.27-12.9h4.13
		C227.45,39.56,229.59,42.18,228.99,45.65L228.99,45.65z"/>
	<polygon class="st0" points="122,30.65 125.24,39.56 136.35,39.56 129.51,78.34 140.72,78.34 147.56,39.56 160.02,39.56 
		163.26,30.65 	"/>
	<polygon class="st0" points="332.37,30.65 335.61,39.56 344.98,39.56 338.14,78.34 349.36,78.34 356.19,39.56 367.9,39.56 
		371.14,30.65 	"/>
	<path class="st0" d="M273.54,20.86c-0.4-0.03-1.08-0.09-1.6-0.14c-13.59-1.43-17.06-2.47-18.02-19.82c0,0-0.07-0.9-0.8-0.9
		c-0.74,0-0.81,0.9-0.81,0.9c-0.96,17.35-4.43,18.39-18.02,19.82c-0.51,0.05-1.2,0.11-1.6,0.14c-0.42,0.03-0.88,0.21-0.88,0.52
		c0,0.34,0.43,0.52,0.88,0.57c15,1.86,18.35,3.14,19.65,24.77c0.01,0.48,0.24,0.96,0.77,0.96c0.53,0,0.75-0.48,0.77-0.96
		c1.3-21.63,4.65-22.91,19.65-24.77c0.45-0.06,0.89-0.23,0.89-0.57C274.43,21.06,273.96,20.89,273.54,20.86L273.54,20.86z"/>
	<path class="st0" d="M274.51,30.65l2.16,4.56c0.86,1.98,1.24,3.24,0.73,6.33l-3.19,18.2c-3.09,17.71-12.15,17.73-17.76,17.73
		c-1.04,1.71,10.74,4.35,18.37,0.71c5.94-2.81,8.88-7.87,10.36-16.49c0.41-2.36,5.45-31.04,5.45-31.04L274.51,30.65L274.51,30.65z"
		/>
	<path class="st0" d="M187.56,34.24c-0.49-2.06-2.08-3.59-4.41-3.59c-2.11,0-13.78,0-13.78,0l2.25,4.77
		c0.94,2.04,0.83,3.42-0.43,5.79l-19.59,37.14h11.33l5.76-11.35h15.86l2.15,11.35h11.13C197.82,78.34,188.04,36.31,187.56,34.24
		L187.56,34.24z M173.15,58.16l7.07-13.97l2.65,13.97H173.15L173.15,58.16z"/>
	<path class="st0" d="M71.88,34.24c-0.49-2.06-2.08-3.59-4.42-3.59c-2.11,0-13.78,0-13.78,0l2.26,4.77
		c0.94,2.04,0.82,3.42-0.43,5.79l-19.6,37.14h11.33L53,66.99h15.86l2.15,11.35h11.13C82.14,78.34,72.37,36.31,71.88,34.24
		L71.88,34.24z M57.47,58.16l7.07-13.97l2.64,13.97H57.47L57.47,58.16z"/>
</g>
</svg>
