<?xml version="1.0" encoding="utf-8"?>
<!-- Generator: Adobe Illustrator 25.4.1, SVG Export Plug-In . SVG Version: 6.00 Build 0)  -->
<svg version="1.1" id="Layer_1" xmlns="http://www.w3.org/2000/svg" xmlns:xlink="http://www.w3.org/1999/xlink" x="0px" y="0px"
	 viewBox="0 0 221.76 80" style="enable-background:new 0 0 221.76 80;" xml:space="preserve">
<style type="text/css">
	.st0{fill:#D12149;}
	.st1{fill:#4C5C65;}
</style>
<g>
	<g>
		<path class="st0" d="M21.18,23.64l2.54-5.32H1.82c0,0,0.52,1.09,1.29,2.72c0.51,1.18,0.74,1.94,0.43,3.78
			c-0.01,0.05-3.25,18.45-3.5,19.85c-0.26,1.46,0.62,2.14,1.77,2.14c1.1,0,18.43,0,18.43,0l-1.2-5.34H7.22l1.14-6.5h10.9l0.94-5.37
			H9.32l1.05-5.97L21.18,23.64L21.18,23.64z"/>
		<path class="st0" d="M195.49,23.64l2.54-5.32h-20.85c0,0,0.52,1.09,1.3,2.72c0.51,1.18,0.74,1.94,0.43,3.78
			c-0.01,0.05-3.25,18.45-3.51,19.85c-0.26,1.46,0.62,2.14,1.77,2.14c1.1,0,17.39,0,17.39,0l-1.2-5.34h-10.77l1.14-6.5h9.86
			l0.94-5.37h-9.85l1.05-5.97L195.49,23.64L195.49,23.64z"/>
		<path class="st0" d="M60.64,25.51c0.48-1.53,2.16-1.87,4.61-1.87h4.43l1.94-5.32c0,0-6.88,0-7.57,0c-2.74,0-9.01-0.26-10.36,5.85
			C51.82,32.67,62.86,35.13,62.3,39c-0.33,2.27-2.5,2.47-5.49,2.47c-1.67,0-6.61,0-6.61,0l1.24,5.34h7.48
			c3.88,0,9.29-0.71,10.56-5.53C71.78,32.61,59.4,29.78,60.64,25.51L60.64,25.51z"/>
		<path class="st0" d="M143.26,26.72c0.36-4.67-2.55-8.41-9.86-8.41h-10.68l1.28,2.72c0.51,1.18,0.74,1.94,0.44,3.78l-3.88,22h6.41
			l1.88-10.68c0,0,0.47-0.06,1.79,0.01c1.77,0.1,2.05,1.34,5.61,10.67h7.02c-3.77-9.42-4.45-11.12-5.63-12.29
			C140.52,33.36,142.96,30.58,143.26,26.72L143.26,26.72z M136.82,27.28c-0.41,2.33-2.44,4.07-4.98,4.07h-2.14l1.36-7.71h2.47
			C135.9,23.64,137.18,25.2,136.82,27.28L136.82,27.28z"/>
		<polygon class="st0" points="72.89,18.32 74.83,23.64 81.47,23.64 77.38,46.81 84.08,46.81 88.17,23.64 95.61,23.64 97.55,18.32 
					"/>
		<polygon class="st0" points="198.59,18.32 200.53,23.64 206.12,23.64 202.04,46.81 208.74,46.81 212.82,23.64 219.82,23.64 
			221.76,18.32 		"/>
		<path class="st0" d="M163.44,12.46c-0.24-0.02-0.65-0.05-0.96-0.08c-8.12-0.85-10.19-1.48-10.77-11.84c0,0-0.04-0.54-0.48-0.54
			c-0.44,0-0.48,0.54-0.48,0.54c-0.57,10.37-2.65,10.99-10.77,11.84c-0.31,0.03-0.72,0.07-0.96,0.08c-0.25,0.02-0.53,0.12-0.53,0.31
			c0,0.21,0.26,0.31,0.53,0.34c8.96,1.11,10.96,1.88,11.74,14.8c0.01,0.29,0.14,0.58,0.46,0.58c0.32,0,0.45-0.29,0.46-0.58
			c0.78-12.92,2.78-13.69,11.74-14.8c0.27-0.03,0.53-0.14,0.53-0.34C163.97,12.59,163.69,12.48,163.44,12.46L163.44,12.46z"/>
		<path class="st0" d="M164.02,18.32l1.29,2.72c0.51,1.18,0.74,1.94,0.44,3.78l-1.91,10.87c-1.85,10.58-7.26,10.59-10.61,10.59
			c-0.62,1.02,6.42,2.6,10.98,0.43c3.55-1.68,5.31-4.7,6.19-9.85c0.24-1.41,3.26-18.55,3.26-18.55L164.02,18.32L164.02,18.32z"/>
		<path class="st0" d="M112.07,20.46c-0.29-1.23-1.24-2.14-2.64-2.14c-1.26,0-8.23,0-8.23,0l1.35,2.85
			c0.56,1.22,0.49,2.04-0.26,3.46L90.58,46.81h6.77l3.44-6.78h9.48l1.29,6.78h6.65C118.2,46.81,112.36,21.7,112.07,20.46
			L112.07,20.46z M103.46,34.75l4.23-8.35l1.58,8.35H103.46L103.46,34.75z"/>
		<path class="st0" d="M42.95,20.46c-0.29-1.23-1.24-2.14-2.64-2.14c-1.26,0-8.23,0-8.23,0l1.35,2.85c0.56,1.22,0.49,2.04-0.26,3.46
			L21.46,46.81h6.77l3.44-6.78h9.48l1.29,6.78h6.65C49.08,46.81,43.24,21.7,42.95,20.46L42.95,20.46z M34.34,34.75l4.23-8.35
			l1.58,8.35H34.34L34.34,34.75z"/>
	</g>
	<path class="st1" d="M66.84,61.25c3,0,5.4,2.43,5.4,5.53c0,3.07-2.39,5.53-5.4,5.53c-3,0-5.4-2.45-5.4-5.53
		C61.45,63.68,63.84,61.25,66.84,61.25L66.84,61.25z M63.97,66.78c0,1.88,1.22,3.65,2.85,3.65c1.64,0,2.88-1.7,2.88-3.6
		c0-1.9-1.22-3.67-2.86-3.67C65.27,63.15,63.97,64.85,63.97,66.78L63.97,66.78z"/>
	<path class="st1" d="M80.35,75.47h18.74v1.95H80.35V75.47L80.35,75.47z M88.4,62.73c0-1.63-0.51-2.02-0.51-2.02h3.31v3.49
		c0,4.18,3.36,6.04,6.74,6.04c0.17,0,0.15,0.09,0.06,0.18l-1.39,1.7c-2.23,0-5.44-1.28-6.66-3.72c-0.15-0.27-0.23-0.27-0.38,0
		c-1.24,2.43-4.47,3.69-6.66,3.69l-1.39-1.7c-0.08-0.09-0.11-0.18,0.06-0.18c3.3,0,6.8-1.81,6.8-6.41L88.4,62.73L88.4,62.73z
		 M88.4,62.73c0-1.63-0.51-2.02-0.51-2.02h3.31v3.49c0,4.18,3.36,6.04,6.74,6.04c0.17,0,0.15,0.09,0.06,0.18l-1.39,1.7
		c-2.23,0-5.44-1.28-6.66-3.72c-0.15-0.27-0.23-0.27-0.38,0c-1.24,2.43-4.47,3.69-6.66,3.69l-1.39-1.7
		c-0.08-0.09-0.11-0.18,0.06-0.18c3.3,0,6.8-1.81,6.8-6.41L88.4,62.73L88.4,62.73z"/>
	<path class="st1" d="M103.47,71.22c0,0.29,0.17,0.44,0.4,0.44h6.64c1.7,0,2.56-0.33,3.15-0.8v-9.22c0-1.63-0.51-2.01-0.51-2.01
		h2.97v6.5h2.67v1.95h-2.67v11.5h-2.46v-6.75c-0.86,0.62-1.87,0.78-3.97,0.78h-6.24c-1.64,0-2.46-0.82-2.46-2.68v-7.92
		c0-1.51-0.51-1.97-0.51-1.97h9.88v1.95h-6.89v3.3h6.47v1.92h-6.47V71.22L103.47,71.22z"/>
	<path class="st1" d="M123.49,63.73h-2.18V61.8h4.54v-0.52c0-1.55-0.51-1.98-0.51-1.98h3.14v2.5h4.58v1.92h-2.22
		c0.46,0.71,0.75,1.55,0.75,2.46c0,2.41-2,4.38-4.43,4.38c-2.42,0-4.41-1.97-4.41-4.38C122.73,65.27,123,64.43,123.49,63.73
		L123.49,63.73z M125.23,66.18c0,1.33,0.9,2.45,1.93,2.45c1.01,0,1.93-1.1,1.93-2.41c0-1.33-0.78-2.46-1.91-2.46
		C126.18,63.77,125.23,64.87,125.23,66.18L125.23,66.18z M132.04,70.82c2.67,0,4.83,2.06,4.83,4.6c0,2.52-2.17,4.58-4.83,4.58
		c-2.64,0-4.81-2.06-4.81-4.58C127.23,72.88,129.39,70.82,132.04,70.82L132.04,70.82z M132.04,72.81c-1.22,0-2.27,1.13-2.27,2.61
		c0,1.46,1.05,2.59,2.27,2.59c1.24,0,2.31-1.13,2.31-2.59C134.35,73.94,133.28,72.81,132.04,72.81L132.04,72.81z M140.44,63.75v2.17
		h-2.67v5.02h-2.48v-9.29c0-1.59-0.51-2.01-0.51-2.01h2.99v4.11L140.44,63.75L140.44,63.75z"/>
	<path class="st1" d="M160.36,68.04V70h-18.1v-1.97h6.91v-1.97c0-1.44-0.52-1.88-0.52-1.88h3.08v3.85H160.36L160.36,68.04z
		 M155.8,62.75c0-0.29-0.08-0.4-0.42-0.4h-11.07v-1.97h13.82c0.15,0,0.19,0.09,0.19,0.22v2.98c0,2.08-0.27,2.63-0.88,3.43H155
		c0.67-0.9,0.8-1.81,0.8-3.67L155.8,62.75L155.8,62.75z M151.3,70.84c2.65,0,4.81,2.08,4.81,4.6c0,2.5-2.16,4.55-4.81,4.55
		c-2.64,0-4.81-2.06-4.81-4.55C146.5,72.92,148.66,70.84,151.3,70.84L151.3,70.84z M151.3,72.83c-1.24,0-2.33,1.15-2.33,2.61
		c0,1.44,1.09,2.59,2.33,2.59c1.26,0,2.33-1.15,2.33-2.59C153.64,73.98,152.57,72.83,151.3,72.83L151.3,72.83z"/>
	<path class="st1" d="M75.05,79.58V61.65c0-1.67-0.51-2.01-0.51-2.01h2.96v19.94L75.05,79.58L75.05,79.58z"/>
</g>
</svg>
