<?xml version="1.0" encoding="utf-8"?>
<!-- Generator: Adobe Illustrator 25.4.1, SVG Export Plug-In . SVG Version: 6.00 Build 0)  -->
<svg version="1.1" id="Layer_1" xmlns="http://www.w3.org/2000/svg" xmlns:xlink="http://www.w3.org/1999/xlink" x="0px" y="0px"
	 viewBox="0 0 244.65 80" style="enable-background:new 0 0 244.65 80;" xml:space="preserve">
<style type="text/css">
	.st0{fill:#003E69;}
	.st1{fill:#CF003D;}
	
		.st2{clip-path:url(#SVGID_00000078014632761511546030000016924079593147901081_);fill:url(#rect29_00000098203755671475746230000012308990572761970582_);}
</style>
<g>
	<g id="g8" transform="matrix(0.8186779,0,0,0.8186779,-15.175727,-182.88939)">
		<path id="path4" class="st0" d="M211.04,292.78c-6.97-10.31-17.03-16.24-27.54-16.24h-27.04l19.18,28.29
			c6.97,10.31,17.03,16.24,27.54,16.24h27.04L211.04,292.78z"/>
		<path id="path6" class="st1" d="M287.44,232.26c-11.6,0-24.45,9.11-35.06,24.95l-29.83,44.43l13.15,19.47h3.69
			c11.6,0,24.45-9.11,35.06-24.95l42.93-63.9H287.44z"/>
	</g>
	<g id="g31" transform="matrix(0.8186779,0,0,0.8186779,-15.175727,-182.88939)">
		<g>
			<defs>
				<path id="SVGID_1_" d="M287.44,232.26c-11.6,0-24.45,9.11-35.06,24.95l-29.83,44.43l13.2,19.47h3.69
					c11.6,0,24.45-9.11,35.06-24.95l42.88-63.9H287.44z"/>
			</defs>
			<clipPath id="SVGID_00000033331195024298629730000014097678071383157381_">
				<use xlink:href="#SVGID_1_"  style="overflow:visible;"/>
			</clipPath>
			
				<linearGradient id="rect29_00000156587532243232285960000000429718649739450301_" gradientUnits="userSpaceOnUse" x1="261.1819" y1="-597.9756" x2="265.3161" y2="-597.9756" gradientTransform="matrix(0 -55.1745 55.1745 0 33262.9492 14731.6348)">
				<stop  offset="0" style="stop-color:#7B1215"/>
				<stop  offset="5.500000e-03" style="stop-color:#7B1215"/>
				<stop  offset="0.1279" style="stop-color:#880F16"/>
				<stop  offset="0.3559" style="stop-color:#AC0919"/>
				<stop  offset="0.5769" style="stop-color:#D4011C"/>
				<stop  offset="1" style="stop-color:#D4011C"/>
			</linearGradient>
			
				<rect id="rect29" x="222.55" y="232.26" style="clip-path:url(#SVGID_00000033331195024298629730000014097678071383157381_);fill:url(#rect29_00000156587532243232285960000000429718649739450301_);" width="94.83" height="88.8"/>
		</g>
	</g>
	<g id="g47" transform="matrix(0.8186779,0,0,0.8186779,-15.175727,-182.88939)">
		<path id="path33" class="st0" d="M40.66,263.64c-0.95,1.05-1.94,1.84-3.09,2.49c-1.15,0.65-2.29,1.15-3.39,1.49
			c-1.15,0.35-2.19,0.6-3.19,0.75s-1.84,0.2-2.49,0.2c-2.19,0-3.93-0.3-5.23-0.95c-1.29-0.65-2.29-1.44-2.99-2.49
			c-0.7-1-1.15-2.14-1.39-3.39c-0.25-1.25-0.35-2.49-0.35-3.69c-0.05-2.24,0.3-4.08,1-5.58c0.7-1.49,1.64-2.64,2.84-3.54
			c1.2-0.9,2.64-1.49,4.28-1.89c1.64-0.35,3.49-0.55,5.43-0.55h7.32v-0.55c0-0.45-0.05-0.85-0.15-1.2c-0.1-0.35-0.35-0.65-0.7-0.9
			c-0.35-0.25-0.85-0.45-1.54-0.55c-0.7-0.1-1.64-0.15-2.79-0.15c-0.4,0-1,0-1.69,0.05c-0.7,0.05-1.49,0.1-2.34,0.15
			c-0.85,0.05-1.69,0.1-2.49,0.2c-0.85,0.1-1.59,0.15-2.24,0.2c-0.6,0.1-1.1,0.15-1.44,0.15c-0.35,0-0.65,0-0.9-0.1
			c-0.25-0.1-0.4-0.25-0.5-0.5c-0.1-0.25-0.2-0.55-0.3-1l-1-4.43c-0.15-0.7-0.05-1.29,0.25-1.79c0.3-0.5,1.15-1,2.49-1.49
			c0.85-0.3,1.79-0.6,2.89-0.85c1.1-0.25,2.19-0.4,3.29-0.55c1.1-0.15,2.19-0.25,3.29-0.3c1.05-0.05,1.99-0.1,2.79-0.1
			c3.49,0,6.28,0.3,8.32,0.9c2.09,0.6,3.69,1.49,4.83,2.59c1.15,1.15,1.89,2.54,2.24,4.23c0.35,1.69,0.55,3.64,0.55,5.83v8.92
			c0,1.49,0.15,2.39,0.55,2.74c0.35,0.35,1.05,0.6,2.09,0.75c0.65,0.1,1.05,0.2,1.25,0.4c0.2,0.15,0.3,0.5,0.3,1v5.68
			c0,0.6-0.2,1.05-0.65,1.34c-0.4,0.3-1,0.5-1.64,0.7c-0.85,0.25-1.64,0.4-2.49,0.45c-0.85,0.05-1.69,0.1-2.64,0.1
			c-0.9,0-1.74-0.05-2.59-0.2c-0.85-0.1-1.64-0.35-2.34-0.7c-0.7-0.35-1.34-0.85-1.89-1.44c-0.55-0.6-1-1.39-1.25-2.44H40.66z
			 M39.11,254.47h-4.53c-0.9,0-1.59,0.2-2.09,0.65c-0.5,0.4-0.75,1.15-0.75,2.24c0,0.7,0.15,1.2,0.45,1.44
			c0.3,0.3,0.85,0.4,1.64,0.4c0.8,0,1.69-0.15,2.69-0.5s1.89-0.75,2.59-1.15V254.47z"/>
		<path id="path35" class="st0" d="M88.02,257.86c1.1,0,1.69,0.6,1.69,1.74v6.72c0,1.1-0.55,1.69-1.69,1.69H61.08
			c-0.7,0-1.15-0.15-1.29-0.4c-0.2-0.3-0.3-0.65-0.3-1.2v-5.48c0-0.35,0.05-0.8,0.15-1.29c0.1-0.5,0.45-1.1,1.1-1.79l12.8-14.24
			H62.12c-1.1,0-1.64-0.6-1.64-1.74v-6.72c0-1.1,0.55-1.64,1.64-1.64h25.5c0.7,0,1.15,0.15,1.34,0.4c0.2,0.3,0.3,0.65,0.3,1.2v5.53
			c0,0.4-0.05,0.85-0.15,1.34c-0.1,0.5-0.5,1.1-1.1,1.74l-12.7,14.14H88.02z"/>
		<path id="path37" class="st0" d="M115.31,265.03l-0.15-0.05c-1.74,1.34-3.59,2.29-5.48,2.79c-1.89,0.55-3.49,0.8-4.78,0.8
			c-2.54,0-4.53-0.4-5.93-1.2c-1.39-0.8-2.44-1.89-3.09-3.19c-0.7-1.29-1.05-2.79-1.2-4.43c-0.1-1.64-0.15-3.34-0.15-5.03V235.2
			c0-0.3,0.1-0.65,0.25-1.05c0.15-0.4,0.6-0.65,1.34-0.65h9.81c0.65,0,1.1,0.15,1.29,0.5c0.25,0.3,0.35,0.7,0.35,1.2v17.08
			c0,1.79,0.3,2.94,1,3.44c0.65,0.5,1.49,0.75,2.59,0.75c0.8,0,1.49-0.15,2.19-0.4c0.65-0.25,1.34-0.5,1.99-0.75v-20.17
			c0-0.3,0.1-0.65,0.25-1.05c0.15-0.4,0.6-0.65,1.34-0.65h9.81c0.65,0,1.1,0.15,1.34,0.5c0.25,0.3,0.35,0.7,0.35,1.2v31.18
			c0,0.45-0.1,0.85-0.35,1.2c-0.25,0.35-0.7,0.5-1.34,0.5h-9.81c-0.75,0-1.2-0.2-1.34-0.65c-0.15-0.4-0.25-0.75-0.25-1.05v-1.29
			L115.31,265.03z"/>
		<path id="path39" class="st0" d="M148.48,238.69l0.15,0.15c0.7-0.75,1.49-1.44,2.34-2.14c0.9-0.65,1.79-1.25,2.69-1.74
			c0.9-0.5,1.79-0.9,2.59-1.2c0.85-0.35,1.59-0.55,2.24-0.65c1-0.15,1.64-0.1,2.04,0.05c0.4,0.15,0.65,0.8,0.8,1.84l1.05,8.62
			c0.05,0.35,0.05,0.7,0.05,0.95c0,0.25-0.05,0.45-0.2,0.65c-0.15,0.15-0.4,0.3-0.75,0.4c-0.35,0.1-0.85,0.25-1.49,0.4
			c-2.19,0.4-4.13,0.85-5.88,1.25s-3.64,1-5.68,1.64v17.43c0,0.3-0.1,0.65-0.25,1.05c-0.15,0.4-0.6,0.65-1.34,0.65h-9.81
			c-0.65,0-1.1-0.15-1.34-0.5c-0.25-0.35-0.35-0.7-0.35-1.2v-31.18c0-0.45,0.1-0.85,0.35-1.2c0.25-0.3,0.7-0.5,1.34-0.5h9.81
			c0.75,0,1.2,0.2,1.34,0.65c0.15,0.4,0.25,0.75,0.25,1.05v3.54L148.48,238.69z"/>
		<path id="path41" class="st0" d="M188.93,264.04c-1,0.6-2.04,1.15-3.04,1.69c-1.05,0.55-2.09,1-3.29,1.44
			c-1.15,0.4-2.39,0.75-3.69,1c-1.29,0.25-2.69,0.4-4.23,0.4c-3.14,0-5.43-0.8-6.82-2.34c-1.39-1.54-2.09-3.88-2.09-6.92
			c0-3.93,1-6.87,2.94-8.72c1.99-1.84,5.13-2.79,9.46-2.79h10.76v-3.09c0-1.39-0.15-2.54-0.4-3.54c-0.25-0.95-0.7-1.74-1.39-2.39
			c-0.65-0.6-1.59-1.1-2.74-1.39c-1.15-0.3-2.64-0.45-4.38-0.45c-1.49,0-3.14,0.05-4.93,0.2c-1.79,0.15-3.54,0.3-5.13,0.5
			c-0.65,0.05-1-0.1-1.05-0.5l-0.3-1.25c0-0.45,0.25-0.8,0.75-1.05c0.75-0.3,1.59-0.5,2.59-0.7c1-0.2,1.99-0.35,2.99-0.45
			c1-0.1,1.99-0.2,2.94-0.25s1.79-0.05,2.54-0.05c2.59,0,4.68,0.25,6.28,0.75c1.59,0.5,2.84,1.25,3.74,2.24
			c0.9,1,1.49,2.24,1.84,3.74c0.35,1.49,0.5,3.24,0.5,5.23v17.08c0,0.65,0.05,1.15,0.15,1.49c0.1,0.35,0.25,0.6,0.45,0.8
			s0.5,0.3,0.85,0.4c0.35,0.05,0.85,0.15,1.44,0.15c0.5,0,0.75,0.2,0.75,0.65v1.39c0,0.25-0.05,0.4-0.2,0.55s-0.4,0.25-0.85,0.35
			c-2.29,0.25-3.88,0.05-4.88-0.5c-1-0.55-1.54-1.79-1.64-3.69H188.93z M188.98,251.19h-11.26c-1.2,0-2.29,0.1-3.24,0.35
			c-1,0.25-1.79,0.65-2.49,1.25c-0.7,0.6-1.25,1.39-1.59,2.44c-0.35,1-0.55,2.29-0.55,3.88c0,2.29,0.45,3.88,1.34,4.73
			c0.9,0.85,2.54,1.25,4.88,1.25c1,0,2.14-0.15,3.39-0.5c1.25-0.3,2.49-0.7,3.69-1.2c1.2-0.45,2.29-0.95,3.34-1.44
			c1-0.5,1.84-0.9,2.49-1.29L188.98,251.19z"/>
		<path id="path43" class="st0" d="M207.4,225.84c0,0.7-0.15,1.29-0.4,1.79c-0.3,0.5-0.95,0.75-1.94,0.75
			c-1.05,0-1.74-0.25-1.99-0.75c-0.25-0.5-0.4-1.1-0.4-1.79s0.15-1.29,0.45-1.74c0.3-0.45,0.95-0.7,1.89-0.7c1,0,1.59,0.2,1.89,0.65
			C207.25,224.49,207.4,225.09,207.4,225.84 M203.17,235.2c0-0.4,0.1-0.7,0.25-0.85c0.15-0.15,0.45-0.2,0.8-0.2h1.74
			c0.35,0,0.6,0.05,0.75,0.2c0.1,0.15,0.15,0.4,0.15,0.85v31.78c0,0.4-0.05,0.7-0.15,0.85c-0.1,0.15-0.35,0.2-0.75,0.2h-1.74
			c-0.35,0-0.65-0.05-0.8-0.2c-0.15-0.15-0.25-0.4-0.25-0.85V235.2z"/>
		<path id="path45" class="st0" d="M230.17,237.64c-0.95,0.2-1.84,0.45-2.74,0.75c-0.9,0.35-1.79,0.65-2.59,1
			c-0.85,0.35-1.59,0.7-2.24,1c-0.7,0.35-1.2,0.6-1.54,0.75v25.8c0,0.7-0.35,1.05-1.05,1.05h-1.89c-0.4,0-0.65-0.05-0.75-0.2
			c-0.1-0.15-0.2-0.4-0.2-0.85v-31.78c0-0.7,0.3-1.05,0.9-1.05h1.84c0.4,0,0.65,0.05,0.8,0.2c0.15,0.15,0.25,0.4,0.25,0.85v3.04
			c0.3-0.25,0.8-0.55,1.44-1c0.65-0.4,1.39-0.85,2.19-1.25c0.8-0.4,1.64-0.85,2.59-1.25c0.9-0.4,1.79-0.75,2.74-1
			c0.25-0.1,0.4-0.1,0.45,0c0.05,0.1,0.15,0.25,0.15,0.5l0.3,2.34C230.86,237.19,230.66,237.49,230.17,237.64"/>
	</g>
</g>
</svg>
