<svg width="80" height="80" viewBox="0 0 80 80" fill="none" xmlns="http://www.w3.org/2000/svg">
<path fill-rule="evenodd" clip-rule="evenodd" d="M61.5343 8.31417C59.7604 9.24881 56.1053 9.69067 54.6035 8.12118C52.9736 10.6624 56.1148 13.064 59.7369 11.718C61.8573 10.9437 64.08 9.94631 66.4074 9.62546C68.8393 9.28142 71.7548 9.62546 72.8011 10.681C63.7616 11.2274 52.1786 16.1656 43.5506 22.2478C36.8452 26.9814 32.6674 31.25 27.6246 37.9785C26.9457 38.9294 27.048 39.6455 28.2617 39.0131C34.1786 35.9976 41.8044 33.5053 48.3795 31.8615C53.634 30.5573 59.2488 29.3296 64.5963 30.7851C67.2979 31.529 69.8041 33.2844 70.7736 35.986C72.0338 39.4665 71.069 43.5864 66.9027 44.2304C64.8334 44.5419 63.471 43.7467 62.706 42.661C62.3387 42.1402 62.1549 42.1217 61.8668 42.2123L56.517 43.8467C56.2147 43.942 55.8173 44.3604 56.038 44.893C56.5309 46.1276 57.6794 47.7341 58.9419 48.6733C62.3456 51.2099 66.8026 51.4889 70.6808 49.9731C76.0329 47.8875 78.8645 42.2913 78.0694 36.3556C77.3347 30.9223 73.3777 26.4257 68.2696 24.682C63.1315 22.9196 56.0937 23.7009 50.4487 25.7631C48.9586 26.3118 48.6096 26.5373 49.4653 25.8212C53.4736 22.5639 61.5041 18.7858 68.2394 16.8585C72.8499 15.5425 77.1091 15.2333 78.3531 16.2517C79.6085 8.55369 73.2172 3.53178 65.403 5.52884C68.1511 3.78513 65.9819 -0.0137978 62.0342 3.76888e-05C55.5148 0.0373141 49.2957 3.004 43.1785 3.67128C39.7446 4.0525 35.6969 3.35738 32.9882 1.95542C32.4604 7.34701 39.0192 11.3064 45.2687 10.0021C49.6512 9.08843 53.7199 6.95407 57.7886 6.05432C61.3832 5.24288 63.2315 7.42844 61.5343 8.31417ZM27.1479 71.0326C23.651 76.2638 21.7493 76.0313 18.6035 75.6849C17.8827 75.6058 17.8922 75.7267 17.5691 76.2475L16.7389 77.5844C16.3763 78.1634 16.4018 78.2376 17.2365 78.5934C23.2093 81.0951 28.6451 80.6557 33.0533 74.0178L53.2712 43.5654C55.2847 40.536 56.1682 38.9061 58.9954 38.7759C60.7459 38.6922 61.9923 39.843 62.3339 41.2799C62.492 41.9798 62.9059 42.0216 63.3197 41.91L68.5811 40.3337C68.874 40.2523 69.0855 39.8244 69.1019 39.327C69.174 37.7576 68.2393 35.4861 66.8188 34.3748C62.8013 31.25 56.7051 32.3288 52.1785 33.1983C44.9105 34.6073 35.9966 37.4902 28.3359 41.2869C26.3388 42.2913 24.0975 43.3166 22.8676 45.1603C20.7518 48.3176 14.8395 57.4548 12.5656 60.5377C8.74333 65.6712 7.15551 65.5015 3.947 65.169C3.46805 65.1155 3.40989 65.1783 3.16808 65.5782L2.21493 67.1243C1.89398 67.6497 1.92183 67.7403 2.37056 67.9333C8.45049 70.5862 13.7536 70.5652 18.3338 63.695L27.9267 49.2894C29.3472 47.1504 31.6977 45.8764 33.4763 45.2672L19.8427 65.7433C16.3578 70.9768 14.5233 70.7327 11.3915 70.4025C10.6754 70.3211 10.666 70.4466 10.3615 70.9442L9.50833 72.3113C9.24096 72.7391 9.09449 72.9017 9.85465 73.2227C16.3578 75.9522 21.4958 75.1641 25.7504 68.7331L42.5437 43.3235C43.4249 41.9797 45.536 40.9149 47.5424 40.4894L27.1479 71.0326Z" fill="#CC0327"/>
</svg>
