<svg width="264" height="80" viewBox="0 0 264 80" fill="none" xmlns="http://www.w3.org/2000/svg">
<path fill-rule="evenodd" clip-rule="evenodd" d="M246.292 8.31417C244.518 9.24881 240.863 9.69067 239.361 8.12118C237.731 10.6624 240.873 13.064 244.495 11.718C246.615 10.9437 248.838 9.94631 251.165 9.62546C253.597 9.28142 256.513 9.62546 257.559 10.681C248.519 11.2274 236.936 16.1656 228.308 22.2478C221.603 26.9814 217.425 31.25 212.382 37.9785C211.703 38.9294 211.806 39.6455 213.02 39.0131C218.936 35.9976 226.562 33.5053 233.137 31.8615C238.392 30.5573 244.007 29.3296 249.354 30.7851C252.056 31.529 254.562 33.2844 255.531 35.9859C256.792 39.4665 255.827 43.5864 251.661 44.2304C249.591 44.5419 248.229 43.7468 247.464 42.661C247.096 42.1402 246.913 42.1217 246.625 42.2123L241.275 43.8467C240.972 43.942 240.575 44.3604 240.796 44.893C241.289 46.1276 242.437 47.7341 243.7 48.6733C247.103 51.2099 251.56 51.4889 255.439 49.9731C260.791 47.8875 263.622 42.2913 262.827 36.3556C262.093 30.9223 258.136 26.4257 253.027 24.682C247.889 22.9196 240.852 23.7009 235.207 25.7631C233.716 26.3118 233.367 26.5373 234.223 25.8212C238.231 22.5639 246.262 18.7858 252.997 16.8585C257.608 15.5425 261.867 15.2333 263.111 16.2517C264.366 8.55369 257.975 3.53178 250.161 5.52884C252.909 3.78513 250.74 -0.0137978 246.792 3.76888e-05C240.273 0.0373141 234.053 3.004 227.936 3.67128C224.502 4.0525 220.455 3.35738 217.746 1.95542C217.218 7.34701 223.777 11.3064 230.027 10.0021C234.409 9.08843 238.478 6.95407 242.546 6.05432C246.141 5.24288 247.989 7.42844 246.292 8.31417V8.31417ZM211.906 71.0326C208.409 76.2638 206.507 76.0313 203.361 75.6849C202.641 75.6058 202.65 75.7267 202.327 76.2475L201.497 77.5844C201.134 78.1634 201.16 78.2376 201.994 78.5934C207.967 81.0951 213.403 80.6557 217.811 74.0178L238.029 43.5654C240.043 40.536 240.926 38.9061 243.753 38.7759C245.504 38.6922 246.75 39.843 247.092 41.2799C247.25 41.9798 247.664 42.0216 248.078 41.91L253.339 40.3337C253.632 40.2523 253.843 39.8244 253.86 39.327C253.932 37.7576 252.997 35.4861 251.577 34.3748C247.559 31.25 241.463 32.3288 236.936 33.1983C229.668 34.6072 220.754 37.4902 213.094 41.2869C211.097 42.2913 208.855 43.3166 207.625 45.1603C205.51 48.3176 199.597 57.4548 197.323 60.5377C193.501 65.6712 191.913 65.5015 188.705 65.169C188.226 65.1155 188.168 65.1783 187.926 65.5782L186.973 67.1243C186.652 67.6497 186.68 67.7403 187.128 67.9333C193.208 70.5862 198.511 70.5652 203.092 63.695L212.684 49.2894C214.105 47.1504 216.456 45.8764 218.234 45.2672L204.601 65.7433C201.116 70.9768 199.281 70.7327 196.149 70.4025C195.433 70.3211 195.424 70.4466 195.119 70.9442L194.266 72.3113C193.999 72.7391 193.852 72.9017 194.612 73.2227C201.116 75.9522 206.254 75.1641 210.508 68.7331L227.301 43.3235C228.183 41.9797 230.294 40.9149 232.3 40.4894L211.906 71.0326V71.0326Z" fill="#CC0327"/>
<path d="M63.6531 62.884L64.3319 58.8362H60.8004L58.2615 72.6908H61.8024L63.0695 65.8809C63.2183 65.0741 64.6343 64.3813 65.2597 64.4069C66.2454 64.458 66.2571 64.9486 66.0943 65.846L64.8341 72.7H68.2681L69.6469 65.0486C69.7863 64.293 69.8514 63.5513 69.5377 62.8979C68.5077 60.7404 65.5503 60.9263 63.6531 62.884V62.884ZM79.7586 62.2063C78.1265 60.9392 75.4249 61.0438 73.4113 62.4225C73.4113 62.4225 71.1957 63.757 70.7331 67.4328C70.4913 69.3649 70.7888 71.3108 72.5046 72.2478C74.0252 73.0802 76.292 73.0616 78.1265 72.4105C78.538 72.2711 78.8705 72.1572 79.2773 71.8944L79.7191 69.5857C79.7191 69.5857 77.2314 70.5785 75.4202 70.0833C74.4414 69.8066 73.8184 68.9627 73.8974 67.9071L80.7141 67.9164C81.1697 65.8867 81.3837 63.4734 79.7586 62.2063V62.2063ZM74.4367 65.517C74.5553 64.8312 75.2714 64.2313 75.6061 64.078C75.9224 63.9384 76.6501 63.7664 77.2477 64.0569C77.6451 64.2523 77.9545 64.8986 77.88 65.517H74.4367ZM169.847 63.7161C170.564 63.5627 171.494 63.6557 172.249 63.8998C173.084 64.1835 173.635 64.6857 173.635 64.6857L174.13 61.8677C174.13 61.8677 172.744 61.2028 170.392 61.2772C167.667 61.3632 166.365 62.8117 166 63.4255C165.435 64.3531 165.291 65.4878 165.6 66.3736C166.051 67.6593 167.262 68.0662 168.548 68.3684C169.248 68.5335 171.254 68.6171 170.761 69.7517C170.55 70.2446 169.887 70.3889 169.02 70.4097C167.502 70.4352 165.988 70.119 164.891 69.224L164.423 71.8279C164.423 71.8279 164.986 72.2767 165.853 72.5557C166.711 72.8277 168.443 72.9881 169.452 72.8161C170.452 72.637 171.696 72.3324 172.737 71.3327C173.321 70.7863 174.014 69.5332 173.944 68.3544C173.891 67.35 173.302 66.5944 172.438 66.1736C171.345 65.6435 169.994 65.6876 169.034 65.0344C168.508 64.681 168.562 63.9858 169.847 63.7161V63.7161ZM58.6826 61.5797L49.3827 61.5588L48.8711 64.3441L52.8631 64.3557L46.9553 72.7L56.6644 72.6489L57.141 70.0704L52.6818 70.0984L58.6826 61.5797V61.5797ZM156.306 62.4218C156.306 62.4218 154.093 63.7586 153.63 67.4344C153.388 69.3642 153.681 71.3101 155.402 72.2471C156.929 73.0795 159.184 73.0609 161.019 72.4099C161.435 72.2727 161.772 72.1565 162.174 71.8938L162.616 69.5851C162.616 69.5851 160.138 70.5778 158.317 70.0826C157.348 69.8082 156.725 68.9619 156.806 67.9088L163.616 67.9158C164.071 65.8884 164.288 63.4727 162.665 62.2056C161.026 60.9386 158.324 61.0455 156.306 62.4219V62.4218ZM157.324 65.5187C157.457 64.8305 158.173 64.2307 158.51 64.0773C158.826 63.9378 159.543 63.768 160.14 64.0563C160.551 64.2539 160.858 64.9003 160.779 65.5187H157.324ZM40.7488 62.884L40.9255 61.5379H37.4033L35.3504 72.6908H38.8936L40.163 65.8809C40.3187 65.0741 41.7276 64.3813 42.3485 64.4069C43.3366 64.458 43.3482 64.9486 43.1832 65.846L41.9182 72.7H45.3639L46.7356 65.0486C46.8704 64.293 46.9473 63.5513 46.6334 62.8979C45.6011 60.7404 42.639 60.9263 40.7488 62.884V62.884ZM17.6722 62.884L18.351 58.8362H14.8216L12.2759 72.6908H15.8238L17.0885 65.8809C17.2444 65.0741 18.6556 64.3813 19.2788 64.4069C20.2622 64.458 20.2807 64.9486 20.1133 65.846L18.8532 72.7H22.2871L23.6682 65.0486C23.7985 64.293 23.8682 63.5513 23.5613 62.8979C22.5337 60.7404 19.5716 60.9263 17.6722 62.884V62.884ZM6.68666 61.4321C7.56085 61.2437 8.66293 61.3832 9.5929 61.6994C10.6065 62.0552 11.318 62.6853 11.318 62.6853L11.8969 59.4024C11.8969 59.4024 10.1882 58.577 7.31437 58.6724C3.96883 58.7746 2.3901 60.5579 1.93908 61.3019C1.24149 62.4365 1.03704 63.7082 1.49722 64.7498C2.04139 65.9937 3.55025 66.633 5.12194 67.0049C5.97762 67.219 8.49082 67.5096 7.93053 68.9161C7.68643 69.5276 6.80986 69.9135 5.7403 69.9322C3.91984 69.9717 1.881 69.609 0.571924 68.5465L0 71.5968C2.15762 73.2197 6.62154 73.3684 9.2768 71.827C10.8832 70.9017 11.7109 69.3044 11.6249 67.6584C11.5411 66.0564 10.3787 65.1753 8.99991 64.68C7.83051 64.257 6.4007 64.0383 5.4591 63.3316C4.85915 62.8851 4.9382 61.7808 6.68666 61.4321ZM27.426 62.4218C27.426 62.4218 25.2127 63.7586 24.75 67.4344C24.5082 69.3642 24.8011 71.3101 26.5263 72.2471C28.0445 73.0795 30.3067 73.0609 32.1388 72.4099C32.5503 72.2727 32.8851 72.1565 33.2965 71.8938L33.7407 69.5851C33.7407 69.5851 31.253 70.5778 29.4326 70.0826C28.463 69.8082 27.8399 68.9619 27.9143 67.9088L34.731 67.9158C35.1914 65.8884 35.3961 63.4727 33.7779 62.2056C32.1388 60.9386 29.4395 61.0455 27.426 62.4219V62.4218ZM28.4491 65.5187C28.5839 64.8305 29.2907 64.2307 29.6208 64.0773C29.9418 63.9378 30.6601 63.768 31.2622 64.0563C31.6668 64.2539 31.976 64.9003 31.9016 65.5187H28.449H28.4491ZM86.7249 62.884L86.9039 61.5379H83.377L81.3309 72.6908H84.8719L86.146 65.8809C86.2971 65.0741 87.7084 64.3813 88.3362 64.4069C89.3149 64.458 89.3382 64.9486 89.1661 65.846L87.9036 72.7H91.3399L92.714 65.0486C92.8581 64.293 92.9256 63.5513 92.6163 62.8979C91.5818 60.7404 88.6221 60.9263 86.7249 62.884V62.884ZM132.326 58.8847L129.79 72.6996H133.131L135.667 58.8847H132.326ZM128.468 61.4588C127.431 61.7238 126.738 62.3864 126.157 63.3327L126.087 63.3397L126.431 61.5703H123.236L121.202 72.7186L124.471 72.7L125.654 66.2993C126.536 65.0647 128.144 63.7326 129.618 64.3278L130.116 61.596C129.872 61.3959 128.944 61.3333 128.468 61.4588H128.468ZM118.034 58.8732L117.541 61.5724H120.88L121.377 58.8732H118.034ZM115.493 72.6996H118.832L120.682 62.6535H117.334L115.493 72.6996ZM146.287 62.884L146.468 61.5379H142.941L140.893 72.6908H144.436L145.713 65.8809C145.861 65.0741 147.275 64.3813 147.896 64.4069C148.879 64.458 148.895 64.9486 148.731 65.846L147.47 72.7H150.902L152.285 65.0486C152.418 64.293 152.485 63.5513 152.171 62.8979C151.148 60.7404 148.186 60.9263 146.287 62.884V62.884ZM137.887 58.8732L137.396 61.5724H140.735L141.228 58.8732H137.887ZM135.349 72.6996H138.686L140.539 62.6535H137.193L135.349 72.6996ZM106.303 58.8465L99.216 72.6987H103.096L104.403 70.083H109.423L109.771 72.6986H113.487L111.571 58.8464H106.302L106.303 58.8465ZM105.705 67.3396L108.562 61.4505L109.13 67.3396H105.705ZM22.2565 24.559H24.7116L24.1071 27.6442C23.3214 30.7923 19.6573 32.0058 16.3511 32.8289L17.7274 35.2237C22.9075 33.9984 27.4342 32.5359 28.3247 27.6861L28.9223 24.559H31.5913L30.452 30.5899C30.0754 32.5057 31.2913 33.931 33.5583 33.931H36.362C39.3032 33.931 40.8028 32.3662 42.0675 30.369L38.343 28.781L37.6037 30.1947C37.2922 30.7922 37.0085 31.2037 36.2551 31.2037H35.774C35.1205 31.2037 34.8277 30.8597 34.9137 30.3295L36.0412 24.559H38.4151L37.8291 27.6395H42.3257L43.3881 22.1015L43.4161 21.9644H18.339L18.3111 22.1015L17.2717 27.6395L21.6519 27.6279L22.2565 24.559V24.559ZM75.6878 46.54L80.2262 22.3602H75.6112L71.0657 46.54H75.6878ZM48.0598 44.2677L49.2804 47.7296L61.2658 43.5889L61.7843 40.7407L59.1571 41.4057L60.7892 32.6616H64.1975L64.6974 29.9925H61.2891L62.7514 22.1015L62.8188 21.7132H58.1967L58.1248 22.1015L56.6809 29.9925H52.0821L51.5727 32.708H56.1624L54.3093 42.6217L48.0598 44.2678V44.2677ZM155.156 31.4587L156.026 27.5598H150.901L150.234 30.5009C149.604 33.2746 145.017 34.4348 140.276 34.7486L141.29 37.0968C145.905 36.9248 153.952 36.7551 155.156 31.4587V31.4587ZM173.084 47.1168H157.654L158.763 41.216H169.976L170.527 38.0912H142.925L142.376 41.216H153.339L152.248 47.1168H137.994L137.422 50.2183H172.496L173.084 47.1168ZM133.031 24.791H125.56L126.418 22.101L126.823 20.8316L122.036 20.1945L121.827 22.101L121.531 24.791H114.728L114.238 27.4368H132.528L133.031 24.791ZM82.3143 50.7284L87.5639 22.101L87.778 20.9431H83.1629L82.9513 22.101L77.6876 50.7284H82.3143V50.7284Z" fill="black"/>
<path d="M41.3814 36.5608H30.2448L30.7634 33.9056H26.2762L25.7763 36.5608H15.272L14.7721 39.174H23.6815C20.7355 42.2777 16.9273 45.098 12.2773 47.3811L13.7259 49.9735C17.955 48.0274 22.0702 45.2909 24.7928 42.5313L23.2025 50.65H27.6827L29.1636 42.3755C31.2049 45.0608 34.8737 48.1716 38.245 50.113L40.4817 47.6787C36.9802 45.7932 32.886 42.0825 31.3003 39.174H40.8932L41.3814 36.5608ZM120.811 31.7971H123.873L120.986 47.2767C120.832 48.9181 121.779 50.1271 123.787 50.2573H127.191C129.046 50.1039 130.109 49.1832 130.672 47.7091L131.729 44.1287L128.158 42.8546L127.414 46.9512C127.231 47.9417 125.324 47.9417 125.503 46.935L128.858 29.0257H116.733L114.232 42.3315C113.576 45.8236 112.767 47.5604 109.759 49.2391L111.858 50.8688C116.22 49.3901 118.252 45.3912 118.975 41.5806L120.811 31.7971H120.811ZM169.388 32.5362C169.004 33.3593 168.272 33.9777 167.372 33.9777H165.591C164.57 33.9777 164.14 33.322 164.303 32.5362L165.31 27.6026H160.411L159.304 33.0919C158.907 35.0727 159.848 36.6212 162.382 36.6212H168.179C171.413 36.6212 172.991 34.7961 174.226 32.3735L170.336 30.5018L169.388 32.5362V32.5362Z" fill="black"/>
<path d="M161.364 23.339L161.729 22.0999L162.331 19.9981L157.156 19.3354L156.968 22.0999L156.886 23.339H142.836L141.571 29.9605H146.354L147.124 25.8826H170.834L170.231 29.4421H174.993L176.153 23.339H161.364ZM101.465 38.059L102.844 37.9008L101.64 44.3154L104.755 44.355L106.029 37.5311L107.413 37.387L105.72 46.4776C105.327 48.5119 101.437 47.303 99.8705 47.1403L100.398 50.344H104.553C107.785 50.344 109.289 48.6445 109.742 46.3265L111.514 36.8523L113.895 36.5942L114.36 34.0646L112.004 34.2087L113.869 24.2603H106.813L108.361 22.1003L109.168 20.9679L104.544 19.7079L103.555 22.1003L102.658 24.2603H99.8982L97.8546 35.1852L94.6904 35.4108L94.0277 38.9634L97.2223 38.5866L96.5736 42.0276C96.0295 44.9339 94.1138 47.6563 91.6307 49.2723L93.9604 50.7276C97.6686 48.3865 100.175 44.8711 101.168 39.6259L101.465 38.0589V38.059ZM103.537 26.9595H109.366L107.961 34.5063L106.573 34.6086L107.808 28.0988L104.69 28.0918L103.421 34.797L102.058 34.8831L103.537 26.9595V26.9595ZM16.6602 24.0866C15.0793 23.2751 13.6772 22.6404 12.1148 22.101C11.3453 21.8383 10.5455 21.5965 9.66669 21.364L9.29931 22.101L8.49738 23.7378C10.8268 24.8398 12.1381 25.9628 13.8772 27.6205L16.6602 24.0866V24.0866ZM68.0843 22.3612L65.0572 38.4407C64.0644 43.7463 62.0719 45.948 56.8477 49.3239L60.0933 50.5887C66.5057 46.1642 68.8376 43.4463 70.207 36.1599L72.818 22.3612H68.0843V22.3612ZM14.7409 32.6787C12.3926 31.472 9.78637 30.4095 7.1126 29.7074L6.03158 32.0766C8.36131 33.1832 10.2166 34.541 11.9579 36.215L14.7409 32.6787ZM13.3421 39.718L10.9566 38.03L3.36328 47.5462L6.93212 50.2014L13.3421 39.718Z" fill="black"/>
</svg>
