<?xml version="1.0" encoding="utf-8"?>
<!-- Generator: Adobe Illustrator 25.4.1, SVG Export Plug-In . SVG Version: 6.00 Build 0)  -->
<svg version="1.1" id="Layer_2" xmlns="http://www.w3.org/2000/svg" xmlns:xlink="http://www.w3.org/1999/xlink" x="0px" y="0px"
	 viewBox="0 0 239.62 80" style="enable-background:new 0 0 239.62 80;" xml:space="preserve">
<style type="text/css">
	.st0{fill:#0B3D90;}
	.st1{fill:#FF3300;}
	.st2{fill-rule:evenodd;clip-rule:evenodd;fill:#FF3300;}
</style>
<path class="st0" d="M6.02,39.92c-0.08-3.61,2.78-6.6,6.39-6.67c3.61-0.07,6.61,2.8,6.7,6.42l0,0.12c0.02,1.12,0.01,2.25-0.02,3.37
	c12.14-14.33,30.13-29.31,53.46-30.63c3.61-0.2,6.7,2.56,6.9,6.17c0.2,3.61-2.57,6.71-6.18,6.91C40.32,27.48,18.82,65,13.57,74.16
	c-0.97,1.69-1.57,2.74-2.32,3.49l-0.01-0.01c-3.07,3.1-6.15,3.19-9.3,0.04c-2.9-2.9-2.05-5.76-0.68-10.41
	c1.67-5.68,4.98-16.94,4.77-27.23L6.02,39.92L6.02,39.92z M82.3,41.24c5.17-0.58,12.65-2.05,12.88-5.65
	c-0.74-0.21-1.74-0.24-2.9-0.1h-0.03c-1.51,0.18-3.13,0.66-4.68,1.41C85.51,37.89,83.61,39.35,82.3,41.24L82.3,41.24z M108.09,33.29
	c2.15,15.71-16.7,19.91-25.67,21.02c3.08,5.49,9.72,9.91,19.32,11.19c10.29,1.36,24.81-5.76,24.85-5.77
	c3.24-1.57,7.14-0.21,8.71,3.03c1.57,3.25,0.21,7.15-3.04,8.73c-0.05,0.03-18,8.83-32.21,6.95C84.8,76.41,74.3,68.28,69.84,58.32
	c-0.91-2.03-1.57-4.15-1.97-6.31c-0.42-2.25-0.56-4.46-0.43-6.59V45.4c0.03-0.42,0.02-0.28,0.01-0.12
	c0.68-9.77,7.11-16.6,14.43-20.14c2.88-1.39,5.92-2.28,8.8-2.63v0c3.14-0.38,6.21-0.14,8.85,0.76
	C104.13,24.84,107.38,28.13,108.09,33.29L108.09,33.29z M80.55,46L80.55,46L80.55,46L80.55,46L80.55,46z M80.55,46L80.55,46
	C80.55,46,80.55,46,80.55,46C80.55,46,80.55,46,80.55,46L80.55,46z M80.53,46.27c0,0.01,0,0.02,0,0.02l0,0
	c0,0.04,0.01-0.18,0.02-0.27L80.53,46.27L80.53,46.27z M80.53,46.27L80.53,46.27L80.53,46.27L80.53,46.27z"/>
<path class="st1" d="M148.69,63.8c-2.92,2.11-6.99,1.44-9.1-1.48c-2.1-2.92-1.44-7,1.48-9.1c0.06-0.04,16.69-12.04,24.33-17.44
	c-22.07-16.43-46.82-22.92-46.9-22.94c-3.48-0.92-5.57-4.5-4.65-7.98c0.92-3.49,4.49-5.57,7.97-4.64c0.09,0.02,30.13,7.9,55.15,28
	c13.29-7.96,22.75-11.3,22.78-11.31c3.4-1.22,7.14,0.55,8.36,3.96c1.21,3.4-0.56,7.15-3.96,8.36c-0.03,0.01-6.74,2.37-16.88,8.13
	c15.14,14.63,26.83,30.92,26.87,30.97c2.1,2.92,1.44,7-1.49,9.1c-2.92,2.1-6.99,1.44-9.1-1.48c-0.04-0.06-12.34-17.18-27.76-31.46
	C169.55,48.73,148.75,63.76,148.69,63.8L148.69,63.8z"/>
<path class="st2" d="M239.02,67.06c0,3.71-3.01,6.73-6.72,6.73c-3.72,0-6.73-3.02-6.73-6.73c0-3.72,3.01-6.73,6.73-6.73
	C236.01,60.33,239.02,63.34,239.02,67.06L239.02,67.06z"/>
</svg>
