<?xml version="1.0" encoding="utf-8"?>
<!-- Generator: Adobe Illustrator 25.4.1, SVG Export Plug-In . SVG Version: 6.00 Build 0)  -->
<svg version="1.1" id="Layer_2" xmlns="http://www.w3.org/2000/svg" xmlns:xlink="http://www.w3.org/1999/xlink" x="0px" y="0px"
	 viewBox="0 0 174.62 80" style="enable-background:new 0 0 174.62 80;" xml:space="preserve">
<style type="text/css">
	.st0{fill-rule:evenodd;clip-rule:evenodd;fill:#0B3D90;}
	.st1{fill-rule:evenodd;clip-rule:evenodd;fill:#FF3300;}
	.st2{fill:#0B3D90;}
	.st3{fill:#FF3300;}
</style>
<g>
	<path class="st0" d="M33.04,71.43h-0.57l-1.01,4.77h-1.52l2.24-10.55h3.36c1.7,0,2.76,1.29,2.42,2.94
		c-0.33,1.54-1.65,2.69-3.17,2.82l1.75,4.78h-1.81L33.04,71.43L33.04,71.43z M33.45,66.84l-0.74,3.43l1.68,0.02
		c1.01,0.02,1.85-0.77,2.06-1.75c0.2-0.87-0.39-1.7-1.32-1.7H33.45L33.45,66.84z"/>
	<path class="st0" d="M42.69,76.13c-1.09,0.29-2.48,0.33-3.22-0.44c-0.65-0.69-0.9-1.85-0.64-3.07c0.39-1.86,1.62-3.93,3.82-3.93
		c2.11,0,2.53,1.49,2.07,3.87h-4.29c-0.43,1.68,0.23,2.71,1.35,2.68c0.75-0.02,1.32-0.26,2.21-0.64l0.24,0.87
		c-0.57,0.33-1.01,0.54-1.53,0.67L42.69,76.13L42.69,76.13z M40.7,71.51h2.71c0.16-0.95-0.1-1.77-0.93-1.77
		C41.58,69.74,41.01,70.56,40.7,71.51L40.7,71.51z"/>
	<path class="st0" d="M50.82,78.18c-0.9,1.23-2.76,1.68-4.1,1.72l-0.05-1.06c0.91-0.13,2.32-0.23,2.96-1.11
		c0.31-0.41,0.51-1.24,0.62-1.78c0.02-0.07,0.03-0.13,0.05-0.18c-0.74,0.39-1.42,0.59-2.25,0.59c-2.08-0.02-2.5-2.09-2.12-3.81
		c0.34-1.62,1.73-3.9,3.76-3.9c1.13,0,2.4,0.41,3.3,1.39l-1.18,5.5c-0.18,0.85-0.47,1.96-0.98,2.66L50.82,78.18L50.82,78.18z
		 M49.86,69.78c-1.29,0-2.06,1.57-2.32,2.76c-0.25,1.16-0.11,2.66,1.11,2.66c0.65,0,1.24-0.33,1.84-0.64l0.9-4.23
		C50.92,69.99,50.5,69.78,49.86,69.78L49.86,69.78z"/>
	<path class="st0" d="M54.84,69.03l1.63-0.51l-1.63,7.68h-1.52L54.84,69.03L54.84,69.03z M56.34,65.5c0.56,0,0.91,0.44,0.78,1
		c-0.11,0.56-0.65,1-1.19,1c-0.56,0-0.91-0.44-0.8-1C55.25,65.94,55.79,65.5,56.34,65.5L56.34,65.5z"/>
	<path class="st0" d="M57.53,72.36c0.41-1.96,2.07-3.75,4.21-3.74c2.14,0.02,3,1.78,2.58,3.74c-0.42,1.99-1.94,3.98-4.24,3.97
		C57.78,76.31,57.11,74.35,57.53,72.36L57.53,72.36z M59.17,72.36c-0.29,1.39-0.16,2.91,1.18,2.89c1.47-0.03,2.09-1.5,2.38-2.88
		c0.28-1.26,0.08-2.51-1.24-2.6C60.03,69.87,59.45,71.1,59.17,72.36L59.17,72.36z"/>
	<path class="st0" d="M70.42,71.21c0.19-0.96-0.28-1.48-1.21-1.47c-0.54,0.02-1.11,0.25-1.52,0.47l-1.26,5.98h-1.52l1.36-6.3
		c0.77-0.49,1.39-0.85,2.19-1.06c0.62-0.16,1.47-0.33,2.3-0.13c0.87,0.19,1.55,0.87,1.32,1.94l-1.18,5.55h-1.52L70.42,71.21
		L70.42,71.21z"/>
	<path class="st0" d="M74.96,76.32c-1.34-0.03-2.24-1.12-1.91-2.5c0.34-1.49,1.68-2.39,3.09-2.39c0.7,0,1.18,0,1.75,0l0.1-0.5
		c0.13-0.69-0.37-1.18-1.08-1.18c-0.67,0-1.19,0.16-2.06,0.55l-0.23-0.98c1.13-0.54,1.83-0.72,2.81-0.72
		c1.23-0.01,2.34,0.82,2.03,2.25l-0.88,4.15c-0.91,0.75-2.17,1.32-3.61,1.29L74.96,76.32L74.96,76.32z M76.25,72.55
		c-0.82-0.02-1.49,0.47-1.65,1.24c-0.15,0.72,0.29,1.41,1.11,1.42c0.57,0,1.17-0.29,1.44-0.49l0.46-2.16L76.25,72.55L76.25,72.55z"
		/>
	<path class="st0" d="M82.47,64.99l1.57-0.47l-2.07,9.82c-0.16,0.8,0.15,0.98,1.05,1.01l-0.21,0.94c-1.76,0.16-2.6-0.59-2.3-1.94
		L82.47,64.99L82.47,64.99z"/>
	<polygon class="st1" points="89.35,66.82 88.68,69.95 92.15,69.95 91.32,71.12 88.43,71.12 87.6,75.04 91.96,75.04 91.71,76.19 
		85.85,76.19 88.09,65.66 94.15,65.66 93.31,66.82 	"/>
	<polygon class="st1" points="96.51,73.68 94.26,76.18 92.82,76.18 96.02,72.59 94.46,69.21 96.02,68.73 97.18,71.3 99.43,68.76 
		100.55,69.17 97.69,72.37 99.49,76.18 97.67,76.18 	"/>
	<path class="st1" d="M104.47,76.39c-0.72,0.02-1.31-0.18-1.85-0.5L101.76,80l-1.39-0.54l2.01-9.47c0.08-0.08,1.31-1.32,3.76-1.35
		c2.09-0.03,2.55,1.94,2.11,4.02c-0.38,1.83-1.68,3.66-3.77,3.72V76.39L104.47,76.39z M105.69,69.78c-0.85-0.03-1.62,0.33-1.86,0.51
		l-0.96,4.43c0.36,0.25,0.96,0.57,1.6,0.52c1.37-0.08,1.86-1.4,2.12-2.63c0.26-1.22,0.37-2.76-0.9-2.81V69.78L105.69,69.78z"/>
	<path class="st1" d="M113.29,69.87c-0.69,0-1.21,0.23-1.65,0.54l-1.22,5.78h-1.52l1.31-6.09c0.62-0.56,1.29-0.94,2.03-1.19
		c0.77-0.26,1.5-0.44,2.68-0.19c-0.33,0.49-0.61,0.85-0.88,1.26C113.68,69.91,113.43,69.86,113.29,69.87L113.29,69.87z"/>
	<path class="st1" d="M118.64,76.13c-1.09,0.29-2.48,0.33-3.21-0.44c-0.65-0.69-0.9-1.85-0.64-3.07c0.39-1.86,1.62-3.93,3.82-3.93
		c2.11,0,2.53,1.49,2.07,3.87h-4.3c-0.42,1.68,0.23,2.71,1.36,2.68c0.75-0.02,1.32-0.26,2.21-0.64l0.25,0.87
		c-0.57,0.33-1.01,0.54-1.54,0.67L118.64,76.13L118.64,76.13z M116.65,71.51h2.71c0.16-0.95-0.1-1.77-0.93-1.77
		C117.53,69.74,116.96,70.56,116.65,71.51L116.65,71.51z"/>
	<path class="st1" d="M121.07,75.46l0.82-0.96c0.49,0.47,1.11,0.7,1.72,0.7c0.75,0,1.55-0.34,1.68-1.06
		c0.11-0.59-0.44-0.77-0.85-0.93c-0.19-0.08-0.41-0.2-0.6-0.28c-0.93-0.39-1.85-0.77-1.57-2.09c0.33-1.49,1.8-2.27,3.1-2.27
		c0.75,0,1.39,0.26,2.09,0.72l-0.8,1c-0.59-0.37-1.03-0.52-1.52-0.52c-0.64,0-1.29,0.33-1.42,0.93c-0.07,0.3,0.06,0.47,0.38,0.64
		c0.31,0.16,0.74,0.34,1.14,0.51c0.41,0.18,0.83,0.36,1.16,0.65c0.34,0.33,0.57,0.8,0.41,1.54c-0.37,1.65-2.09,2.37-3.45,2.37
		C122.49,76.39,121.71,76.05,121.07,75.46L121.07,75.46z"/>
	<path class="st1" d="M127.56,75.46l0.82-0.96c0.49,0.47,1.11,0.7,1.71,0.7c0.75,0,1.55-0.34,1.68-1.06
		c0.11-0.59-0.44-0.77-0.85-0.93c-0.2-0.08-0.41-0.2-0.61-0.28c-0.93-0.39-1.85-0.77-1.57-2.09c0.33-1.49,1.8-2.27,3.1-2.27
		c0.75,0,1.39,0.26,2.09,0.72l-0.8,1c-0.59-0.37-1.03-0.52-1.52-0.52c-0.64,0-1.29,0.33-1.42,0.93c-0.07,0.3,0.06,0.47,0.37,0.64
		c0.31,0.16,0.74,0.34,1.14,0.51c0.41,0.18,0.83,0.36,1.16,0.65c0.34,0.33,0.57,0.8,0.41,1.54c-0.38,1.65-2.09,2.37-3.45,2.37
		C128.98,76.39,128.19,76.05,127.56,75.46L127.56,75.46z"/>
	<path class="st2" d="M4.38,29.04c-0.06-2.63,2.02-4.8,4.65-4.85c2.63-0.05,4.81,2.04,4.87,4.67l0,0.09
		c0.02,0.82,0.01,1.64-0.02,2.45c8.83-10.42,21.92-21.32,38.89-22.28c2.63-0.15,4.88,1.86,5.02,4.49c0.14,2.63-1.87,4.88-4.5,5.03
		c-23.97,1.35-39.6,28.65-43.42,35.32c-0.7,1.23-1.14,1.99-1.69,2.54l-0.01-0.01c-2.24,2.25-4.48,2.32-6.76,0.03
		c-2.11-2.11-1.49-4.19-0.5-7.57c1.22-4.13,3.62-12.32,3.47-19.81L4.38,29.04L4.38,29.04z M59.87,30c3.76-0.43,9.2-1.49,9.37-4.11
		c-0.54-0.15-1.27-0.17-2.11-0.07h-0.02c-1.1,0.13-2.28,0.48-3.41,1.03C62.21,27.57,60.83,28.63,59.87,30L59.87,30z M78.63,24.22
		C80.2,35.64,66.48,38.7,59.96,39.51c2.24,4,7.07,7.21,14.06,8.14c7.48,0.99,18.05-4.19,18.08-4.2c2.36-1.14,5.2-0.16,6.34,2.21
		c1.14,2.36,0.15,5.2-2.21,6.35c-0.04,0.02-13.09,6.43-23.44,5.06c-11.1-1.47-18.73-7.39-21.97-14.63
		c-0.66-1.48-1.14-3.02-1.43-4.59c-0.3-1.64-0.41-3.25-0.31-4.79v-0.02c0.02-0.31,0.01-0.2,0.01-0.09
		c0.49-7.11,5.17-12.07,10.5-14.65c2.1-1.01,4.31-1.66,6.4-1.92v0c2.29-0.28,4.52-0.1,6.44,0.55
		C75.76,18.07,78.12,20.47,78.63,24.22L78.63,24.22z M58.6,33.46L58.6,33.46L58.6,33.46L58.6,33.46L58.6,33.46z M58.6,33.47
		L58.6,33.47C58.6,33.47,58.6,33.47,58.6,33.47C58.6,33.47,58.6,33.47,58.6,33.47L58.6,33.47z M58.59,33.66c0,0.01,0,0.01,0,0.02
		l0,0c0,0.03,0.01-0.13,0.01-0.19L58.59,33.66L58.59,33.66z M58.59,33.66L58.59,33.66L58.59,33.66L58.59,33.66z"/>
	<path class="st3" d="M108.17,46.42c-2.12,1.53-5.09,1.05-6.62-1.08c-1.53-2.12-1.05-5.09,1.08-6.62
		c0.04-0.03,12.14-8.76,17.7-12.68C104.27,14.08,86.26,9.36,86.21,9.35c-2.53-0.67-4.05-3.27-3.38-5.81
		c0.67-2.54,3.26-4.05,5.8-3.38c0.06,0.02,21.92,5.75,40.12,20.37c9.67-5.79,16.55-8.22,16.57-8.23c2.47-0.89,5.2,0.4,6.08,2.88
		c0.88,2.47-0.41,5.2-2.88,6.08c-0.02,0.01-4.9,1.73-12.28,5.91c11.01,10.65,19.52,22.49,19.55,22.53c1.53,2.13,1.05,5.09-1.08,6.62
		c-2.12,1.53-5.09,1.05-6.62-1.08c-0.03-0.04-8.97-12.5-20.19-22.89C123.35,35.45,108.21,46.39,108.17,46.42L108.17,46.42z"/>
	<path class="st1" d="M173.89,48.78c0,2.7-2.19,4.89-4.89,4.89c-2.7,0-4.89-2.19-4.89-4.89c0-2.7,2.19-4.89,4.89-4.89
		C171.7,43.89,173.89,46.08,173.89,48.78L173.89,48.78z"/>
</g>
</svg>
