<?xml version="1.0" encoding="utf-8"?>
<!-- Generator: Adobe Illustrator 25.4.1, SVG Export Plug-In . SVG Version: 6.00 Build 0)  -->
<svg version="1.1" xmlns="http://www.w3.org/2000/svg" xmlns:xlink="http://www.w3.org/1999/xlink" x="0px" y="0px"
	 viewBox="0 0 120.6 80" style="enable-background:new 0 0 120.6 80;" xml:space="preserve">
<style type="text/css">
	.st0{fill:#A9001D;}
</style>
<g id="Layer_1">
</g>
<g id="Layer_2">
	<path class="st0" d="M113.6,80.3h7c0,0-1.4-18.3-27.6-46c-2-2.2-4.2-4.2-6.3-6.1c7.2-4.3,13.4-7.3,16.4-8.5l-2.3-2.6
		c0,0-7.5,2.9-17.4,8.3c-1.9-1.6-3.9-3.1-5.9-4.5c10.4-5.6,19.2-9.1,21.2-9.9c0,0,0,0,0,0c0.1,0,0.1,0,0.2-0.1c0,0,0,0,0,0
		c0,0,0.1,0,0.1,0c0,0,0,0,0,0c0,0,0,0,0.1,0c0,0,0,0,0,0l-2-2.7c0,0,0,0-0.1,0c0,0,0,0,0,0c0,0,0,0-0.1,0c0,0-0.1,0-0.1,0
		c0,0,0,0-0.1,0c0,0-0.1,0-0.1,0c0,0,0,0-0.1,0c-0.1,0-0.1,0-0.2,0.1c0,0,0,0-0.1,0c-0.1,0-0.2,0.1-0.3,0.1c0,0-0.1,0-0.1,0
		c-0.1,0-0.2,0.1-0.2,0.1c0,0-0.1,0-0.1,0c-0.1,0-0.2,0.1-0.3,0.1c-0.1,0-0.1,0-0.2,0.1c-0.1,0-0.2,0.1-0.3,0.1c0,0-0.1,0-0.1,0.1
		c-0.1,0-0.3,0.1-0.4,0.1c0,0-0.1,0-0.1,0c-0.2,0.1-0.4,0.1-0.6,0.2c0,0,0,0,0,0c-0.2,0.1-0.4,0.1-0.6,0.2c-0.1,0-0.1,0-0.2,0.1
		c-0.1,0.1-0.3,0.1-0.5,0.2c-0.1,0-0.1,0.1-0.2,0.1C92.1,10,92,10,91.8,10.1c-0.1,0-0.2,0.1-0.2,0.1c-0.2,0.1-0.3,0.1-0.5,0.2
		c-0.1,0-0.1,0.1-0.2,0.1c-0.5,0.2-1,0.4-1.5,0.6c-0.1,0-0.1,0-0.2,0.1c-0.2,0.1-0.4,0.2-0.6,0.3c-0.1,0-0.2,0.1-0.3,0.1
		c-0.2,0.1-0.4,0.2-0.6,0.2c-0.1,0-0.2,0.1-0.3,0.1c-0.2,0.1-0.4,0.2-0.6,0.3c-0.1,0-0.2,0.1-0.3,0.1c-0.3,0.1-0.5,0.2-0.8,0.3
		c0,0-0.1,0-0.1,0c-0.3,0.1-0.6,0.3-1,0.4c-0.1,0-0.1,0.1-0.2,0.1c-0.3,0.1-0.5,0.2-0.8,0.3c-0.1,0-0.2,0.1-0.3,0.1
		c-0.2,0.1-0.5,0.2-0.7,0.3c-0.1,0-0.2,0.1-0.3,0.1c-0.2,0.1-0.5,0.2-0.7,0.3c-0.1,0-0.2,0.1-0.3,0.1c-0.3,0.1-0.5,0.2-0.8,0.4
		c-0.1,0-0.1,0.1-0.2,0.1c-0.4,0.2-0.7,0.3-1.1,0.5c0,0-0.1,0-0.1,0c-0.3,0.1-0.7,0.3-1,0.5c-0.1,0-0.2,0.1-0.3,0.1
		c-0.3,0.1-0.5,0.2-0.8,0.4c-0.1,0.1-0.2,0.1-0.4,0.2c-0.2,0.1-0.5,0.2-0.8,0.4c-0.1,0.1-0.3,0.1-0.4,0.2c-0.3,0.1-0.5,0.3-0.8,0.4
		c-0.1,0.1-0.2,0.1-0.3,0.2c-0.4,0.2-0.7,0.4-1.1,0.6c0,0,0,0,0,0c-2.5-1.6-5-3.1-7.5-4.4c1-0.5,2-1,2.9-1.5c0,0,0,0,0.1,0
		c1.4-0.7,2.8-1.4,4.2-2c0,0,0,0,0,0c1.4-0.6,2.7-1.2,4-1.7c0,0,0,0,0,0c6-2.4,10.9-3.9,13.9-4.6c0,0,0,0,0,0
		c0.6-0.2,1.2-0.3,1.7-0.4c0,0,0,0,0,0c0.3-0.1,0.6-0.1,0.8-0.2c0,0,0,0,0,0c0.1,0,0.2,0,0.3-0.1c0,0,0,0,0,0c0.2,0,0.3-0.1,0.4-0.1
		c0,0,0,0,0,0c0,0,0.1,0,0.1,0c0,0,0,0,0,0c0,0,0,0,0,0l-2.1-2.8c0,0,0,0,0,0c0,0,0,0,0,0c0,0-0.1,0-0.1,0c0,0,0,0,0,0
		c0,0-0.1,0-0.2,0c0,0,0,0,0,0c-0.2,0-0.6,0.1-1.1,0.2c0,0,0,0,0,0C86.5,1.4,74.3,4.2,60.3,11C43,2.7,28.5,0.3,28.5,0.3l-2.1,2.8
		c0,0,12.4,2.1,28.5,10.7c0,0,0,0,0,0c-1.2,0.7-2.5,1.4-3.7,2.1c-0.1,0-0.1,0.1-0.2,0.1c-0.5,0.3-1,0.6-1.5,0.9
		c-0.1,0.1-0.3,0.2-0.4,0.2c-0.6,0.4-1.1,0.7-1.7,1.1c0,0,0,0,0,0c-13.1-6.5-24-9.9-24-9.9l-2,2.7c0,0,9.8,3.7,21.7,10.1
		c-0.5,0.3-1,0.7-1.5,1c0,0-0.1,0.1-0.1,0.1c-0.5,0.3-0.9,0.7-1.4,1c0,0-0.1,0.1-0.1,0.1c-0.5,0.4-0.9,0.7-1.4,1.1c0,0,0,0,0,0
		c-0.5,0.4-1,0.8-1.4,1.2c-9.9-5.4-17.4-8.4-17.4-8.4l-2.3,2.6c3,1.2,9.3,4.1,16.5,8.5c-0.5,0.4-1,0.9-1.5,1.3
		c-0.1,0.1-0.3,0.2-0.4,0.4c-0.4,0.3-0.7,0.7-1.1,1c-0.2,0.2-0.3,0.3-0.5,0.5c-0.3,0.3-0.7,0.7-1,1c-0.1,0.1-0.3,0.3-0.4,0.4
		c-0.5,0.5-0.9,1-1.4,1.5C1.4,62,0,80.3,0,80.3h7c0,0,0,0,0,0c0,0,0-0.1,0-0.1c0,0,0,0,0,0c0,0,0,0,0,0c0,0,0-0.1,0-0.1
		c0,0,0,0,0-0.1c0,0,0-0.1,0-0.1c0,0,0-0.1,0-0.1c0,0,0,0,0-0.1c0,0,0-0.1,0.1-0.2c0,0,0-0.1,0-0.1c0,0,0-0.1,0.1-0.2
		c0,0,0-0.1,0-0.1c0-0.1,0-0.1,0.1-0.2c0,0,0-0.1,0-0.1c0-0.1,0-0.1,0.1-0.2c0,0,0-0.1,0-0.1c0-0.1,0.1-0.2,0.1-0.2c0,0,0-0.1,0-0.1
		c0-0.1,0.1-0.2,0.1-0.3c0,0,0-0.1,0-0.1c0-0.1,0.1-0.2,0.1-0.3c0,0,0-0.1,0-0.1c0-0.1,0.1-0.2,0.1-0.3c0,0,0-0.1,0.1-0.1
		c0-0.1,0.1-0.2,0.1-0.3c0-0.1,0-0.1,0.1-0.2c0-0.1,0.1-0.2,0.1-0.3c0-0.1,0-0.1,0.1-0.2c0-0.1,0.1-0.2,0.1-0.4c0-0.1,0-0.1,0.1-0.2
		C8.9,75.3,9,75.1,9,75c0-0.1,0-0.1,0.1-0.2c0.1-0.1,0.1-0.3,0.2-0.4c0-0.1,0.1-0.1,0.1-0.2c0.1-0.1,0.1-0.3,0.2-0.4
		c0-0.1,0.1-0.1,0.1-0.2c0.1-0.1,0.1-0.3,0.2-0.4c0-0.1,0.1-0.1,0.1-0.2c0.1-0.1,0.1-0.3,0.2-0.4c0-0.1,0.1-0.1,0.1-0.2
		c0.1-0.2,0.1-0.3,0.2-0.5c0-0.1,0.1-0.1,0.1-0.2c0.1-0.2,0.2-0.3,0.2-0.5c0-0.1,0.1-0.1,0.1-0.2c0.1-0.2,0.2-0.3,0.2-0.5
		c0-0.1,0.1-0.2,0.1-0.2c0.1-0.2,0.2-0.3,0.2-0.5c0-0.1,0.1-0.2,0.1-0.2c0.1-0.2,0.2-0.3,0.3-0.5c0-0.1,0.1-0.2,0.1-0.2
		c0.1-0.2,0.2-0.4,0.3-0.5c0-0.1,0.1-0.2,0.1-0.3c0.1-0.2,0.2-0.4,0.3-0.5c0-0.1,0.1-0.2,0.1-0.3c0.1-0.2,0.2-0.4,0.3-0.6
		c0-0.1,0.1-0.2,0.1-0.3c0.1-0.2,0.2-0.4,0.3-0.6c0-0.1,0.1-0.2,0.1-0.3c0.1-0.2,0.2-0.4,0.3-0.6c0-0.1,0.1-0.2,0.1-0.3
		c0.1-0.2,0.2-0.4,0.3-0.6c0-0.1,0.1-0.2,0.2-0.3c0.1-0.2,0.2-0.4,0.3-0.6c0.1-0.1,0.1-0.2,0.2-0.3c0.1-0.2,0.2-0.4,0.4-0.6
		c0.1-0.1,0.1-0.2,0.2-0.3c0.1-0.2,0.2-0.4,0.4-0.6c0.1-0.1,0.1-0.2,0.2-0.3c0.1-0.2,0.3-0.4,0.4-0.6c0.1-0.1,0.1-0.2,0.2-0.3
		c0.1-0.2,0.3-0.4,0.4-0.7c0.1-0.1,0.1-0.2,0.2-0.3c0.1-0.2,0.3-0.4,0.4-0.7c0.1-0.1,0.1-0.2,0.2-0.3c0.1-0.2,0.3-0.5,0.4-0.7
		c0.1-0.1,0.1-0.2,0.2-0.3c0.1-0.2,0.3-0.5,0.4-0.7c0.1-0.1,0.1-0.2,0.2-0.3c0.2-0.2,0.3-0.5,0.5-0.7c0.1-0.1,0.1-0.2,0.2-0.3
		c0.2-0.2,0.3-0.5,0.5-0.7c0.1-0.1,0.1-0.2,0.2-0.3c0.2-0.2,0.3-0.5,0.5-0.7c0.1-0.1,0.1-0.2,0.2-0.3c0.2-0.2,0.3-0.5,0.5-0.7
		c0.1-0.1,0.1-0.2,0.2-0.3c0.2-0.2,0.3-0.5,0.5-0.7c0.1-0.1,0.2-0.2,0.2-0.3c0.2-0.2,0.4-0.5,0.5-0.7c0.1-0.1,0.2-0.2,0.2-0.3
		c0.2-0.2,0.4-0.5,0.6-0.7c0.1-0.1,0.2-0.2,0.2-0.3c0.2-0.3,0.4-0.5,0.6-0.8c0.1-0.1,0.2-0.2,0.2-0.3c0.2-0.3,0.4-0.5,0.6-0.8
		c0.1-0.1,0.2-0.2,0.2-0.3c0.2-0.3,0.4-0.5,0.6-0.8c0.1-0.1,0.2-0.2,0.2-0.3c0.2-0.3,0.4-0.5,0.6-0.8c0.1-0.1,0.2-0.2,0.2-0.3
		c0.2-0.3,0.4-0.5,0.7-0.8c0.1-0.1,0.2-0.2,0.2-0.3c0.2-0.3,0.5-0.5,0.7-0.8c0.1-0.1,0.2-0.2,0.2-0.3c0.2-0.3,0.5-0.5,0.7-0.8
		c0.1-0.1,0.2-0.2,0.2-0.3c0.2-0.3,0.5-0.5,0.7-0.8c0.1-0.1,0.2-0.2,0.3-0.3c0.2-0.3,0.5-0.5,0.7-0.8c0.1-0.1,0.2-0.2,0.2-0.3
		c0.3-0.3,0.5-0.6,0.8-0.8c0.1-0.1,0.2-0.2,0.2-0.2c0.3-0.3,0.5-0.6,0.8-0.9c0.1-0.1,0.1-0.2,0.2-0.2c0.3-0.3,0.6-0.6,0.8-0.9
		c0.1-0.1,0.1-0.1,0.2-0.2c0.3-0.3,0.6-0.6,0.9-0.9c0.1-0.1,0.1-0.1,0.2-0.2c0.3-0.3,0.6-0.6,0.9-0.9c0,0,0.1-0.1,0.1-0.1
		c0.3-0.3,0.7-0.6,1-1c0,0,0.1-0.1,0.1-0.1c0.4-0.3,0.7-0.7,1.1-1v0c2,1.3,4,2.7,6,4.2c0,0,0,0,0,0C25.8,54.5,17.3,77.2,16.3,80
		c0,0,0,0,0,0.1c0,0,0,0,0,0.1c0,0,0,0,0,0c0,0.1,0,0.1,0,0.1h6.3c0,0,0,0,0-0.1c0,0,0,0,0-0.1c0.7-1.7,10.1-24,27.7-40.5
		c0,0,0,0,0,0c1.9,1.6,3.8,3.2,5.7,5C40.3,59.8,32.9,80.3,32.9,80.3H33h6.6h0.1l6-11.6c3.5-5.8,8.4-13.1,14.5-19.7
		c13.2,14.3,20.6,31.3,20.6,31.3h6.7c0,0-7.4-20.5-23.1-35.6c1.8-1.7,3.8-3.4,5.7-5C88.6,56.8,98,80.3,98,80.3h6.3
		c0,0-8.2-24.6-29.6-44.2c2-1.5,4-2.9,6-4.2C105.9,54.8,113.6,80.3,113.6,80.3z M53.3,21.2c0.6-0.4,1.1-0.8,1.7-1.1
		c0.1,0,0.1-0.1,0.2-0.1c0.6-0.4,1.1-0.7,1.7-1.1c0,0,0,0,0,0c0.5-0.3,1.1-0.7,1.6-1c0.1-0.1,0.2-0.1,0.3-0.2c0.5-0.3,1.1-0.6,1.6-1
		c0,0,0,0,0,0c2.3,1.4,4.6,2.8,7,4.5c0,0,0,0,0,0c-2.3,1.3-4.7,2.6-7,4.1c0,0,0,0,0,0C58,23.9,55.6,22.5,53.3,21.2
		C53.3,21.2,53.3,21.2,53.3,21.2z M49.5,33c-2.1-1.4-4.3-2.8-6.4-4c1.4-1.2,2.9-2.4,4.3-3.5c0,0,0,0,0,0c0.5-0.4,0.9-0.7,1.4-1.1
		c0,0,0,0,0,0c2.2,1.3,4.4,2.7,6.6,4.1C53.5,29.9,51.5,31.4,49.5,33z M60.2,40.9c-2-1.6-4-3.2-6-4.6c1-0.8,2-1.6,3-2.4c0,0,0,0,0,0
		c1-0.8,2-1.5,3.1-2.3c2.1,1.5,4.1,3,6,4.6C64.2,37.7,62.2,39.3,60.2,40.9z M71,32.9c-1.9-1.6-4-3.1-6-4.5c0,0,0,0,0,0
		c1.1-0.7,2.2-1.4,3.3-2.1c0,0,0,0,0,0c1.1-0.7,2.2-1.3,3.3-2c0,0,0,0,0,0c1.9,1.4,3.8,3,5.8,4.6C75.3,30.2,73.2,31.5,71,32.9z"/>
</g>
</svg>
