<?xml version="1.0" encoding="utf-8"?>
<!-- Generator: Adobe Illustrator 25.4.1, SVG Export Plug-In . SVG Version: 6.00 Build 0)  -->
<svg version="1.1" id="Layer_1" xmlns="http://www.w3.org/2000/svg" xmlns:xlink="http://www.w3.org/1999/xlink" x="0px" y="0px"
	 viewBox="0 0 80 80" style="enable-background:new 0 0 80 80;" xml:space="preserve">
<style type="text/css">
	.st0{fill:#0C0C11;}
	.st1{fill:#CD1025;}
</style>
<path class="st0" d="M-202.7-885.5c-0.7-0.1-1.8,0-2.5,0c0.5-0.4,1.2-0.7,1.6-0.5c0.1,0,0.1,0,0.2,0.1
	C-203.2-885.8-202.9-885.6-202.7-885.5z"/>
<path class="st1" d="M17.3,23.3L35,26.2l-0.7,10.2L12,36.4c-0.1,1.2-0.2,2.4-0.2,3.6c0,4.9,1.2,9.6,3.5,13.6l-12,2.6
	C1.2,51.2,0,45.7,0,40C0,19.1,16,2,36.4,0.1l-1,12.1C27.9,13.4,21.5,17.5,17.3,23.3z M40,80c13.5,0,25.4-6.7,32.7-17l-19.9,2
	c-3.8,2-8.2,3.1-12.8,3.1l0,0c-4.6,0-9-1.1-12.8-3.1L7.3,63C14.5,73.2,26.5,80,40,80 M44.7,12.1L43.6,0C64,1.9,80,19,80,39.9
	c0,5.7-1.2,11.2-3.4,16.2l-12-2.6c2.2-4,3.5-8.7,3.5-13.6c0-1.2-0.1-2.4-0.2-3.6l-22.3,0.1l-0.7-10.2l17.8-2.9
	C58.5,17.5,52,13.4,44.7,12.1z"/>
</svg>
