<?xml version="1.0" encoding="utf-8"?>
<!-- Generator: Adobe Illustrator 25.4.1, SVG Export Plug-In . SVG Version: 6.00 Build 0)  -->
<svg version="1.1" id="Layer_1" xmlns="http://www.w3.org/2000/svg" xmlns:xlink="http://www.w3.org/1999/xlink" x="0px" y="0px"
	 viewBox="0 0 367.6 80" style="enable-background:new 0 0 367.6 80;" xml:space="preserve">
<style type="text/css">
	.st0{fill:#0C0C11;}
	.st1{fill:#0037A2;}
	.st2{fill:#CD1025;}
</style>
<path class="st0" d="M84.9-885.5c-0.7-0.1-1.8,0-2.5,0c0.5-0.4,1.2-0.7,1.6-0.5c0.1,0,0.1,0,0.2,0.1
	C84.4-885.8,84.7-885.6,84.9-885.5z"/>
<g>
	<path class="st1" d="M17.3,10.1H12c-8.4,0-12,3.1-12,11.1v35.8c0,2.3,1.2,3.6,3.6,3.6h3.7c2.3,0,3.6-1.2,3.6-3.6V44.4h6.4
		c15.1,0,23.1-3.5,23.1-17.2C40.3,13.4,32.4,10.1,17.3,10.1z M18.5,35.1h-7.6V22.8c0-2.3,0.5-3.7,3.2-3.7h4.4c8,0,10.9,1.8,10.9,7.9
		S26.5,35.1,18.5,35.1z M61.2,21.7c-3.4,0-7.5,0.4-11.8,1.3c-2.5,0.5-3.7,1.9-3.7,4v1.5c0,2.5,1.5,3.6,3.9,3.2
		c3.6-0.7,7.2-1.2,10-1.2c5.7,0,9,1.8,9,6.1v0.6h-10c-9.4,0-15.3,2.5-15.3,11.7c0,9.1,5.8,11.6,15.3,11.6h8.8c8.4,0,12-3.1,12-11.2
		V36.6C79.5,26.2,71.7,21.7,61.2,21.7z M68.7,48.9c0,2.6-0.5,4-3.9,4h-5.7c-4.6,0-5.7-1.1-5.7-3.9c0-2.9,1-4,5.7-4h9.5L68.7,48.9
		L68.7,48.9z M108,25.6v2.3c0,2.3-1.3,3.6-3.9,3.6c-8.2,0.1-8.5,0.8-8.5,3.7V57c0,2.3-1.2,3.6-3.6,3.6h-3.8c-2.3,0-3.6-1.2-3.6-3.6
		V33.6c0-8.9,3.2-11.3,19.6-11.5C106.7,22,108,23.2,108,25.6z M127.8,21.7c-3.5,0-7.5,0.4-11.8,1.3c-2.5,0.5-3.7,1.9-3.7,4v1.5
		c0,2.5,1.5,3.6,3.9,3.2c3.6-0.7,7.2-1.2,10-1.2c5.7,0,9,1.8,9,6.1v0.6h-10.1c-9.4,0-15.3,2.5-15.3,11.7c0,9.1,5.8,11.6,15.3,11.6
		h8.8c8.4,0,12-3.1,12-11.2V36.6C146.1,26.2,138.3,21.7,127.8,21.7z M135.3,48.9c0,2.6-0.5,4-3.9,4h-5.7c-4.6,0-5.7-1.1-5.7-3.9
		c0-2.9,1-4,5.7-4h9.5L135.3,48.9L135.3,48.9z M190.1,39.6v17.3c0,2.3-1.2,3.6-3.6,3.6h-3.7c-2.3,0-3.6-1.2-3.6-3.6V39.4
		c0-6.8-2.5-8.7-8.3-8.7c-5.8,0-8.3,1.9-8.3,8.7v17.5c0,2.3-1.2,3.6-3.6,3.6h-3.7c-2.3,0-3.6-1.2-3.6-3.6V39.6c0-14,7.1-18,19.1-18
		C183.1,21.7,190.1,25.7,190.1,39.6z M212.6,21.7c-3.4,0-7.5,0.4-11.8,1.3c-2.5,0.5-3.7,1.9-3.7,4v1.5c0,2.5,1.5,3.6,3.9,3.2
		c3.6-0.7,7.2-1.2,10-1.2c5.7,0,9,1.8,9,6.1v0.6h-9.9c-9.4,0-15.3,2.5-15.3,11.7c0,9.1,5.8,11.6,15.3,11.6h8.8c8.4,0,12-3.1,12-11.2
		V36.6C230.9,26.2,223.2,21.7,212.6,21.7z M220.1,48.9c0,2.6-0.5,4-3.9,4h-5.7c-4.6,0-5.7-1.1-5.7-3.9c0-2.9,1-4,5.7-4h9.5
		L220.1,48.9L220.1,48.9z M249.2,11.5c0,3.7-2,6-6,6c-4,0-6-2.2-6-6s2-6,6-6S249.2,7.7,249.2,11.5z M248.7,25.9v31
		c0,2.3-1.2,3.6-3.6,3.6h-3.8c-2.3,0-3.6-1.2-3.6-3.6v-31c0-2.3,1.2-3.6,3.6-3.6h3.8C247.4,22.3,248.7,23.7,248.7,25.9z M278.9,25.6
		v2.3c0,2.3-1.3,3.6-3.9,3.6c-8.2,0.1-8.5,0.8-8.5,3.7V57c0,2.3-1.2,3.6-3.6,3.6H259c-2.3,0-3.6-1.2-3.6-3.6V33.6
		c0-8.9,3.2-11.3,19.6-11.5C277.5,22,278.9,23.2,278.9,25.6z"/>
	<path class="st2" d="M304.9,23.3l17.8,2.9L322,36.4l-22.3-0.1c-0.1,1.2-0.2,2.4-0.2,3.6c0,4.9,1.2,9.6,3.5,13.6l-12,2.6
		c-2.2-4.9-3.4-10.4-3.4-16.2c0-20.9,16-38,36.4-39.9l-1,12.1C315.5,13.4,309.1,17.5,304.9,23.3z M327.6,80c13.5,0,25.4-6.7,32.7-17
		l-19.9,2c-3.8,2-8.2,3.1-12.8,3.1l0,0c-4.6,0-9-1.1-12.8-3.1l-19.9-2C302.1,73.2,314.1,80,327.6,80 M332.3,12.1l-1-12.1
		c20.3,1.9,36.4,19,36.4,39.9c0,5.7-1.2,11.2-3.4,16.2l-12-2.6c2.2-4,3.5-8.7,3.5-13.6c0-1.2-0.1-2.4-0.2-3.6l-22.3,0.1l-0.7-10.2
		l17.8-2.9C346.1,17.5,339.6,13.4,332.3,12.1z"/>
</g>
</svg>
