<?xml version="1.0" encoding="utf-8"?>
<!-- Generator: Adobe Illustrator 25.4.1, SVG Export Plug-In . SVG Version: 6.00 Build 0)  -->
<svg version="1.1" id="Layer_1" xmlns="http://www.w3.org/2000/svg" xmlns:xlink="http://www.w3.org/1999/xlink" x="0px" y="0px"
	 viewBox="0 0 81 80" style="enable-background:new 0 0 81 80;" xml:space="preserve">
<style type="text/css">
	.st0{fill:#EF9827;}
	.st1{fill:url(#path3783_00000172427884225728170060000015948756769837921695_);}
	.st2{fill:url(#path3813_00000062872544101017533160000005689977203488311988_);}
	.st3{fill:url(#path3815_00000139254843106494571820000005153740008170658475_);}
	.st4{fill:url(#path3817_00000016074962384059884690000006174890504264903587_);}
	.st5{fill:url(#path3821_00000037681358200343405910000007458312350011254446_);}
</style>
<g id="flowRoot3812-1">
</g>
<g id="flowRoot3820-6">
</g>
<g id="g3168">
</g>
<g id="g3835" transform="translate(111.37769,0.41098312)">
	<path id="path2995" class="st0" d="M-30.4,39.6c0,22.1-18.1,40-40.5,40s-40.5-17.9-40.5-40s18.1-40,40.5-40S-30.4,17.5-30.4,39.6z"
		/>
	<path id="path3773" d="M-30.4,39.6c0,22.1-18.1,40-40.5,40s-40.5-17.9-40.5-40s18.1-40,40.5-40S-30.4,17.5-30.4,39.6z"/>
	
		<radialGradient id="path3783_00000134970373322451856800000005198637007726408837_" cx="-34.8951" cy="-31.4561" r="36.4122" gradientTransform="matrix(0.6404 1.6492 1.5144 -0.588 -19.0044 77.1164)" gradientUnits="userSpaceOnUse">
		<stop  offset="0" style="stop-color:#D66D02"/>
		<stop  offset="1" style="stop-color:#D66D02;stop-opacity:0"/>
	</radialGradient>
	<path id="path3783" style="fill:url(#path3783_00000134970373322451856800000005198637007726408837_);" d="M-30.4,39.6
		c0,22.1-18.1,40-40.5,40s-40.5-17.9-40.5-40s18.1-40,40.5-40S-30.4,17.5-30.4,39.6z"/>
	
		<radialGradient id="path3813_00000111891263470458256440000012438585608939862416_" cx="-34.8951" cy="-31.4561" r="36.4122" gradientTransform="matrix(0.6404 1.6492 1.5144 -0.588 -19.0044 77.1164)" gradientUnits="userSpaceOnUse">
		<stop  offset="0" style="stop-color:#D66D02"/>
		<stop  offset="1" style="stop-color:#D66D02;stop-opacity:0"/>
	</radialGradient>
	<path id="path3813" style="fill:url(#path3813_00000111891263470458256440000012438585608939862416_);" d="M-30.4,39.6
		c0,22.1-18.1,40-40.5,40s-40.5-17.9-40.5-40s18.1-40,40.5-40S-30.4,17.5-30.4,39.6z"/>
	
		<radialGradient id="path3815_00000070100316303030969290000004960777214788172434_" cx="-34.8951" cy="-31.4561" r="36.4122" gradientTransform="matrix(0.6404 1.6492 1.5144 -0.588 -19.0044 77.1164)" gradientUnits="userSpaceOnUse">
		<stop  offset="0" style="stop-color:#D66D02"/>
		<stop  offset="1" style="stop-color:#D66D02;stop-opacity:0"/>
	</radialGradient>
	<path id="path3815" style="fill:url(#path3815_00000070100316303030969290000004960777214788172434_);" d="M-30.4,39.6
		c0,22.1-18.1,40-40.5,40s-40.5-17.9-40.5-40s18.1-40,40.5-40S-30.4,17.5-30.4,39.6z"/>
	
		<radialGradient id="path3817_00000133508774083327135640000012927520981077157302_" cx="-38.1721" cy="-36.9894" r="36.4122" gradientTransform="matrix(0.5765 1.4824 1.2615 -0.4906 -20.3167 76.5041)" gradientUnits="userSpaceOnUse">
		<stop  offset="0" style="stop-color:#D66D02"/>
		<stop  offset="1" style="stop-color:#D66D02;stop-opacity:0"/>
	</radialGradient>
	<path id="path3817" style="fill:url(#path3817_00000133508774083327135640000012927520981077157302_);" d="M-30.4,39.6
		c0,22.1-18.1,40-40.5,40s-40.5-17.9-40.5-40s18.1-40,40.5-40S-30.4,17.5-30.4,39.6z"/>
	
		<radialGradient id="path3821_00000150090622433522602900000001636110143145923713_" cx="-62.4667" cy="-41.8155" r="36.4122" gradientTransform="matrix(0.7435 1.0175 0.8869 -0.6481 -11.5583 87.7493)" gradientUnits="userSpaceOnUse">
		<stop  offset="0" style="stop-color:#F7B94A"/>
		<stop  offset="1" style="stop-color:#F7B94A;stop-opacity:0"/>
	</radialGradient>
	<path id="path3821" style="fill:url(#path3821_00000150090622433522602900000001636110143145923713_);" d="M-30.4,39.6
		c0,22.1-18.1,40-40.5,40s-40.5-17.9-40.5-40s18.1-40,40.5-40S-30.4,17.5-30.4,39.6z"/>
</g>
</svg>
