<?xml version="1.0" encoding="utf-8"?>
<!-- Generator: Adobe Illustrator 25.4.1, SVG Export Plug-In . SVG Version: 6.00 Build 0)  -->
<svg version="1.1" id="Layer_1" xmlns="http://www.w3.org/2000/svg" xmlns:xlink="http://www.w3.org/1999/xlink" x="0px" y="0px"
	 viewBox="0 0 167.8 80" style="enable-background:new 0 0 167.8 80;" xml:space="preserve">
<style type="text/css">
	.st0{fill:#B3B3B3;}
	.st1{fill:#ABABAB;}
	.st2{fill:#EF9827;}
	.st3{fill:url(#path3783_00000158005448529236128610000016119830216565984907_);}
	.st4{fill:url(#path3813_00000079456828191489910020000010561900512649069983_);}
	.st5{fill:url(#path3815_00000024721213497671865380000002674747670497735325_);}
	.st6{fill:url(#path3817_00000070813096293173273930000002588074270201126290_);}
	.st7{fill:url(#path3821_00000150097146496316361260000004806999456924245411_);}
</style>
<g>
	<g id="flowRoot3812-1">
	</g>
	<g id="flowRoot3820-6">
	</g>
	<g id="g3168">
	</g>
	<path id="path3854" class="st0" d="M92.5,19.2l-4-2.8l-4.1,2.7l1.5-4.6l-3.8-3l4.9,0l1.7-4.6l1.5,4.6l4.9,0.2l-3.9,2.9L92.5,19.2z"
		/>
	<path id="path3856" class="st0" d="M50.3,22.3l-2-1.4l-2,1.3l0.7-2.3l-1.9-1.5l2.4,0l0.9-2.3l0.8,2.3l2.4,0.1l-2,1.4L50.3,22.3z"/>
	<path id="path3858" class="st0" d="M123.4,16.8l-2-1.4l-2,1.3l0.7-2.3l-1.9-1.5l2.4,0l0.9-2.3l0.8,2.3l2.4,0.1l-2,1.4L123.4,16.8z"
		/>
	<path id="path3860" class="st0" d="M160,15.2l-4.8-3.5l-5,3.3l1.8-5.7l-4.7-3.7l6-0.1l2.1-5.6l1.9,5.6l5.9,0.3l-4.8,3.5L160,15.2z"
		/>
	<g>
		<polygon points="59.8,30.6 68.7,30.6 68.7,57.1 73,57.1 73,30.6 81.9,30.6 81.9,26.3 59.8,26.3 		"/>
		<rect x="87" y="25.8" width="4.3" height="31.4"/>
		<polygon points="117.8,26.3 95.7,26.3 95.7,30.6 104.6,30.6 104.6,57.1 108.8,57.1 108.8,30.6 117.8,30.6 		"/>
		<path d="M135.8,42.1c-1.9-4.9-3.8-10-5.6-15l-0.1-0.2h-4.3l-0.1,0.2c-1.7,4.9-3.5,10-5.2,14.8c-1.7,4.8-3.5,9.8-5.2,14.7l-0.2,0.5
			h4.5l0.1-0.2c0.5-1.5,1-3,1.5-4.5c0.3-0.7,0.5-1.5,0.7-2.2h12.2c0.2,0.6,0.4,1.3,0.7,1.9c0.6,1.6,1.1,3.2,1.7,4.8l0.1,0.2h4.8
			l-0.2-0.5C139.5,51.8,137.6,46.9,135.8,42.1z M132.5,45.5h-9.1l0.2-0.7l0-0.1c0.5-1.4,1-2.9,1.5-4.3c0.5-1.4,1-2.9,1.5-4.3
			c0.5-1.6,0.9-3,1.2-4.3c0.4,1.3,0.9,2.8,1.5,4.8c0.5,1.4,0.9,2.7,1.4,4.1c0.5,1.3,0.9,2.7,1.4,4L132.5,45.5z"/>
		<path d="M162.4,26.9v22.3c-2.1-3.5-4.3-7.1-6.5-10.5c-2.3-3.8-4.8-7.7-7.1-11.6l-0.1-0.2h-4.2v30.3h4.1V34.8
			c2.1,3.6,4.4,7.2,6.5,10.6c2.3,3.8,4.7,7.7,7.1,11.6l0.1,0.2h4.2V26.9H162.4z"/>
	</g>
	<g>
		<polygon class="st1" points="118.9,77.5 114.6,60.6 114.5,60.5 113.1,60.5 108.7,77.5 104.7,60.6 104.6,60.5 103.1,60.5 107.8,80 
			109.5,80 113.8,63 118.2,80 119.8,80 124.4,60.7 124.4,60.5 123,60.5 		"/>
		<polygon class="st1" points="146.3,70.6 141.3,60.6 141.3,60.5 139.8,60.5 145.6,72.2 145.6,80 146.9,80 146.9,72.2 152.7,60.5 
			151.3,60.5 		"/>
		<rect x="79.4" y="60.5" class="st1" width="1.4" height="19.5"/>
		<path class="st1" d="M132.1,60.5L132.1,60.5L132.1,60.5l-4.7,13.2h0v0.1l-2.1,6l-0.1,0.2l1.5,0l1.8-5h8.8l1.7,4.8l0,0.1l1.5,0
			l-7-19.5L132.1,60.5z M136.8,73.7h-7.9l3.9-11.1L136.8,73.7z"/>
		<path class="st1" d="M166.4,71.6c-0.9-0.9-2.6-1.8-5-2.7c-1.7-0.6-2.9-1.2-3.5-1.8c-0.6-0.6-1-1.3-0.9-2.2c0-1.1,0.4-1.9,1.3-2.4
			c0.8-0.5,1.9-0.8,3.1-0.8c0,0,0,0,0,0c1.1,0,2.1,0.2,3,0.7c0.9,0.5,1.6,1.2,2.2,2l0.1,0.2l1.2-0.9l-0.1-0.1
			c-0.7-1.1-1.6-1.9-2.6-2.4c-1.1-0.5-2.3-0.8-3.6-0.8h0c0,0,0,0,0,0c-1.7,0-3,0.4-4.1,1.2c-1.1,0.8-1.7,2-1.8,3.6
			c0,1.1,0.4,2.1,1.2,3c0.8,0.8,2.1,1.6,4,2.2c2.1,0.7,3.6,1.5,4.4,2.2c0.8,0.7,1.2,1.4,1.2,2.2c0,1.2-0.4,2.2-1.2,2.9
			c-0.8,0.7-2,1.1-3.5,1.1c-1.2,0-2.2-0.3-3.1-0.9c-0.9-0.6-1.5-1.5-1.9-2.6l-0.1-0.2l-1.3,0.8l0.1,0.1c0.7,1.4,1.5,2.4,2.6,3.1
			c1.1,0.7,2.3,1,3.6,1c0,0,0,0,0,0c1.8,0,3.3-0.5,4.5-1.4c1.2-0.9,1.8-2.2,1.9-3.9C167.8,73.6,167.4,72.6,166.4,71.6z"/>
		<path class="st1" d="M97.9,69.8c0.9-1,1.4-2.3,1.4-3.8c0-1.5-0.5-2.8-1.3-3.8c-0.9-1-2.1-1.6-3.6-1.6l-6.3,0v0h-1.4V80h1.4v-8.6
			l4.7,0l5,8.6l1.7,0l-5-8.6C95.9,71.3,97.1,70.7,97.9,69.8z M93.7,70L93.7,70l-5.6,0v-8.2h6.2c1.1,0,1.9,0.4,2.6,1.2
			c0.6,0.8,1,1.7,1,2.9c0,1.1-0.3,2.1-1,2.9c-0.6,0.8-1.5,1.2-2.5,1.2L93.7,70L93.7,70z"/>
		<path class="st1" d="M67.2,60.5L67.2,60.5L67.2,60.5l-4.7,13.2h0v0.1l-2.1,6L60.3,80l1.5,0l1.8-5h8.8l1.7,4.8l0,0.1l1.5,0l-7-19.5
			L67.2,60.5z M71.9,73.7H64L68,62.6L71.9,73.7z"/>
	</g>
	<g id="g3835" transform="translate(111.37769,0.41098312)">
		<path id="path2995" class="st2" d="M-54.1,51.2c0,15.6-12.8,28.3-28.6,28.3s-28.6-12.7-28.6-28.3s12.8-28.3,28.6-28.3
			S-54.1,35.6-54.1,51.2z"/>
		<path id="path3773" d="M-54.1,51.2c0,15.6-12.8,28.3-28.6,28.3s-28.6-12.7-28.6-28.3s12.8-28.3,28.6-28.3S-54.1,35.6-54.1,51.2z"
			/>
		
			<radialGradient id="path3783_00000064335601516177736090000008420423478779310271_" cx="-12.9849" cy="-52.999" r="22.8818" gradientTransform="matrix(0.7204 1.8554 1.7036 -0.6615 4.0987 39.1547)" gradientUnits="userSpaceOnUse">
			<stop  offset="0" style="stop-color:#D66D02"/>
			<stop  offset="1" style="stop-color:#D66D02;stop-opacity:0"/>
		</radialGradient>
		<path id="path3783" style="fill:url(#path3783_00000064335601516177736090000008420423478779310271_);" d="M-54.1,51.2
			c0,15.6-12.8,28.3-28.6,28.3s-28.6-12.7-28.6-28.3s12.8-28.3,28.6-28.3S-54.1,35.6-54.1,51.2z"/>
		
			<radialGradient id="path3813_00000132767482845801329710000002188841875086698372_" cx="-12.9849" cy="-52.999" r="22.8818" gradientTransform="matrix(0.7204 1.8554 1.7036 -0.6615 4.0987 39.1547)" gradientUnits="userSpaceOnUse">
			<stop  offset="0" style="stop-color:#D66D02"/>
			<stop  offset="1" style="stop-color:#D66D02;stop-opacity:0"/>
		</radialGradient>
		<path id="path3813" style="fill:url(#path3813_00000132767482845801329710000002188841875086698372_);" d="M-54.1,51.2
			c0,15.6-12.8,28.3-28.6,28.3s-28.6-12.7-28.6-28.3s12.8-28.3,28.6-28.3S-54.1,35.6-54.1,51.2z"/>
		
			<radialGradient id="path3815_00000059270467237957640090000012364889452132657842_" cx="-12.9849" cy="-52.999" r="22.8818" gradientTransform="matrix(0.7204 1.8554 1.7036 -0.6615 4.0987 39.1547)" gradientUnits="userSpaceOnUse">
			<stop  offset="0" style="stop-color:#D66D02"/>
			<stop  offset="1" style="stop-color:#D66D02;stop-opacity:0"/>
		</radialGradient>
		<path id="path3815" style="fill:url(#path3815_00000059270467237957640090000012364889452132657842_);" d="M-54.1,51.2
			c0,15.6-12.8,28.3-28.6,28.3s-28.6-12.7-28.6-28.3s12.8-28.3,28.6-28.3S-54.1,35.6-54.1,51.2z"/>
		
			<radialGradient id="path3817_00000031901046348188452700000002241992470245204634_" cx="-16.6008" cy="-62.6651" r="22.8818" gradientTransform="matrix(0.6486 1.6677 1.4192 -0.5519 4.1544 43.2219)" gradientUnits="userSpaceOnUse">
			<stop  offset="0" style="stop-color:#D66D02"/>
			<stop  offset="1" style="stop-color:#D66D02;stop-opacity:0"/>
		</radialGradient>
		<path id="path3817" style="fill:url(#path3817_00000031901046348188452700000002241992470245204634_);" d="M-54.1,51.2
			c0,15.6-12.8,28.3-28.6,28.3s-28.6-12.7-28.6-28.3s12.8-28.3,28.6-28.3S-54.1,35.6-54.1,51.2z"/>
		
			<radialGradient id="path3821_00000023271624300133894920000016331775520939988158_" cx="-50.5489" cy="-66.6953" r="22.8818" gradientTransform="matrix(0.8365 1.1447 0.9978 -0.7292 8.9679 68.7036)" gradientUnits="userSpaceOnUse">
			<stop  offset="0" style="stop-color:#F7B94A"/>
			<stop  offset="1" style="stop-color:#F7B94A;stop-opacity:0"/>
		</radialGradient>
		<path id="path3821" style="fill:url(#path3821_00000023271624300133894920000016331775520939988158_);" d="M-54.1,51.2
			c0,15.6-12.8,28.3-28.6,28.3s-28.6-12.7-28.6-28.3s12.8-28.3,28.6-28.3S-54.1,35.6-54.1,51.2z"/>
	</g>
</g>
</svg>
