<svg width="176" height="176" viewBox="0 0 176 176" fill="none" xmlns="http://www.w3.org/2000/svg">
<path fill-rule="evenodd" clip-rule="evenodd" d="M67.6857 0H0L16.7378 176H176L141.732 55.8765C132.297 22.8053 102.076 0 67.6857 0ZM33.4932 120.837L29.2977 76.0332C35.2176 75.4788 40.9558 85.0594 42.1143 97.4311C43.2729 109.804 39.413 120.283 33.4932 120.837ZM54.6833 127.803L48.8267 65.2592C60.6664 64.1505 71.5756 77.2524 73.1928 94.5233C74.8101 111.794 66.523 126.694 54.6833 127.803ZM87.0287 138.423C110.708 136.205 128.025 114.349 125.708 89.6039C123.391 64.8597 102.317 46.5974 78.6378 48.8147L87.0287 138.423Z" fill="#5A2E91"/>
</svg>
