<svg xmlns="http://www.w3.org/2000/svg" xmlns:xlink="http://www.w3.org/1999/xlink" width="500" zoomAndPan="magnify" viewBox="0 0 375 374.999991" height="500" preserveAspectRatio="xMidYMid meet" version="1.0"><defs><g/></defs><g fill="#000000" fill-opacity="1"><g transform="translate(150.889272, 212.473755)"><g><path d="M 7.453125 -42.484375 L 7.453125 -58.296875 L 22.109375 -58.296875 L 22.109375 -42.484375 L 31.0625 -42.484375 L 31.0625 -31.296875 L 22.109375 -31.296875 L 22.109375 -17.8125 C 22.109375 -13.882812 23.210938 -11.921875 25.421875 -11.921875 C 25.972656 -11.921875 26.550781 -12.03125 27.15625 -12.25 C 27.769531 -12.476562 28.242188 -12.703125 28.578125 -12.921875 L 29.0625 -13.25 L 32.71875 -1.40625 C 29.5625 0.363281 25.972656 1.25 21.953125 1.25 C 19.191406 1.25 16.816406 0.765625 14.828125 -0.203125 C 12.835938 -1.171875 11.332031 -2.46875 10.3125 -4.09375 C 9.289062 -5.726562 8.554688 -7.441406 8.109375 -9.234375 C 7.671875 -11.023438 7.453125 -12.941406 7.453125 -14.984375 L 7.453125 -31.296875 L 1.328125 -31.296875 L 1.328125 -42.484375 Z M 7.453125 -42.484375 "/></g></g></g><g fill="#000000" fill-opacity="1"><g transform="translate(177.137579, 212.473755)"><g><path d="M 44.46875 -68.328125 L 44.46875 -54.65625 L 20.53125 -54.65625 L 20.53125 -41.078125 L 42.65625 -41.078125 L 42.65625 -27.40625 L 20.53125 -27.40625 L 20.53125 0 L 4.96875 0 L 4.96875 -68.328125 Z M 44.46875 -68.328125 "/></g></g></g></svg>