<svg xmlns="http://www.w3.org/2000/svg" xmlns:xlink="http://www.w3.org/1999/xlink" width="500" zoomAndPan="magnify" viewBox="0 0 375 374.999991" height="500" preserveAspectRatio="xMidYMid meet" version="1.0"><defs><g/><clipPath id="47ec4c0784"><path d="M 137.554688 181.621094 L 180.859375 181.621094 L 180.859375 197.5 L 137.554688 197.5 Z M 137.554688 181.621094 " clip-rule="nonzero"/></clipPath><clipPath id="c27f8b1da7"><path d="M 178 167.5 L 202 167.5 L 202 189 L 178 189 Z M 178 167.5 " clip-rule="nonzero"/></clipPath></defs><g fill="#000000" fill-opacity="1"><g transform="translate(150.889272, 212.473755)"><g><path d="M 7.453125 -42.484375 L 7.453125 -58.296875 L 22.109375 -58.296875 L 22.109375 -42.484375 L 31.0625 -42.484375 L 31.0625 -31.296875 L 22.109375 -31.296875 L 22.109375 -17.8125 C 22.109375 -13.882812 23.210938 -11.921875 25.421875 -11.921875 C 25.972656 -11.921875 26.550781 -12.03125 27.15625 -12.25 C 27.769531 -12.476562 28.242188 -12.703125 28.578125 -12.921875 L 29.0625 -13.25 L 32.71875 -1.40625 C 29.5625 0.363281 25.972656 1.25 21.953125 1.25 C 19.191406 1.25 16.816406 0.765625 14.828125 -0.203125 C 12.835938 -1.171875 11.332031 -2.46875 10.3125 -4.09375 C 9.289062 -5.726562 8.554688 -7.441406 8.109375 -9.234375 C 7.671875 -11.023438 7.453125 -12.941406 7.453125 -14.984375 L 7.453125 -31.296875 L 1.328125 -31.296875 L 1.328125 -42.484375 Z M 7.453125 -42.484375 "/></g></g></g><g fill="#000000" fill-opacity="1"><g transform="translate(177.137579, 212.473755)"><g><path d="M 44.46875 -68.328125 L 44.46875 -54.65625 L 20.53125 -54.65625 L 20.53125 -41.078125 L 42.65625 -41.078125 L 42.65625 -27.40625 L 20.53125 -27.40625 L 20.53125 0 L 4.96875 0 L 4.96875 -68.328125 Z M 44.46875 -68.328125 "/></g></g></g><path fill="#e4e0d7" d="M 181.222656 185.566406 L 181.21875 185.5625 Z M 181.222656 185.566406 " fill-opacity="1" fill-rule="nonzero"/><path fill="#e4e0d7" d="M 163.929688 189.59375 C 163.929688 189.589844 163.925781 189.582031 163.921875 189.578125 C 163.925781 189.585938 163.925781 189.589844 163.929688 189.59375 " fill-opacity="1" fill-rule="nonzero"/><g clip-path="url(#47ec4c0784)"><path fill="#e4e0d7" d="M 137.828125 194.742188 C 137.984375 195.121094 138.207031 195.472656 138.480469 195.773438 C 138.753906 196.074219 139.070312 196.320312 139.398438 196.523438 C 140.058594 196.921875 140.761719 197.148438 141.449219 197.296875 C 142.144531 197.445312 142.832031 197.511719 143.511719 197.542969 C 144.191406 197.570312 144.867188 197.550781 145.535156 197.511719 C 146.871094 197.425781 148.1875 197.238281 149.480469 196.984375 C 150.128906 196.855469 150.769531 196.714844 151.40625 196.558594 C 152.046875 196.402344 152.679688 196.230469 153.308594 196.046875 C 154.292969 195.761719 155.265625 195.449219 156.226562 195.117188 C 156.851562 194.898438 157.472656 194.671875 158.089844 194.441406 C 158.960938 194.113281 159.824219 193.769531 160.683594 193.421875 C 162.121094 192.832031 163.546875 192.21875 164.964844 191.59375 C 165.539062 191.339844 166.113281 191.082031 166.6875 190.824219 C 167.070312 190.65625 167.449219 190.484375 167.832031 190.3125 C 170.195312 189.242188 172.546875 188.144531 174.882812 187.019531 C 176.441406 186.265625 178.015625 185.503906 179.566406 184.726562 C 179.847656 184.585938 180.3125 184.347656 180.625 184.191406 C 180.832031 184.085938 180.871094 183.800781 180.691406 183.652344 C 180.679688 183.644531 180.667969 183.636719 180.660156 183.628906 C 180.382812 183.460938 180.039062 183.457031 179.757812 183.617188 C 179.59375 183.710938 179.421875 183.8125 179.296875 183.882812 C 177.75 184.777344 176.1875 185.640625 174.601562 186.457031 C 172.304688 187.644531 169.96875 188.753906 167.589844 189.757812 C 167.421875 189.828125 167.253906 189.898438 167.085938 189.964844 C 167.003906 190.003906 166.917969 190.039062 166.832031 190.070312 C 166.792969 190.085938 166.757812 190.101562 166.71875 190.117188 C 166.660156 190.140625 166.605469 190.164062 166.546875 190.1875 C 166.488281 190.210938 166.433594 190.234375 166.375 190.257812 C 166.332031 190.277344 166.292969 190.292969 166.25 190.308594 C 166.144531 190.351562 166.042969 190.390625 165.941406 190.433594 C 165.941406 190.433594 165.941406 190.433594 165.9375 190.433594 C 165.789062 190.492188 165.644531 190.550781 165.496094 190.609375 C 165.351562 190.664062 165.199219 190.710938 165.054688 190.765625 C 164.90625 190.824219 164.757812 190.878906 164.609375 190.921875 L 164.605469 190.925781 C 163.203125 191.507812 161.761719 191.96875 160.324219 192.429688 C 159.308594 192.757812 158.289062 193.050781 157.273438 193.359375 L 157.269531 193.359375 C 156.632812 193.550781 155.996094 193.746094 155.347656 193.890625 L 155.339844 193.894531 C 154.535156 194.136719 153.71875 194.324219 152.90625 194.523438 C 152.59375 194.597656 152.285156 194.675781 151.972656 194.746094 C 151.660156 194.816406 151.351562 194.886719 151.039062 194.953125 C 150.414062 195.085938 149.792969 195.214844 149.167969 195.328125 C 147.917969 195.558594 146.667969 195.746094 145.421875 195.839844 C 144.796875 195.890625 144.175781 195.910156 143.5625 195.898438 C 142.949219 195.886719 142.34375 195.839844 141.765625 195.730469 C 141.191406 195.621094 140.636719 195.457031 140.179688 195.199219 C 139.722656 194.9375 139.375 194.597656 139.175781 194.164062 C 138.972656 193.734375 138.925781 193.203125 138.988281 192.648438 C 139.054688 192.089844 139.234375 191.515625 139.460938 190.953125 C 139.6875 190.386719 139.972656 189.832031 140.285156 189.292969 C 140.597656 188.746094 140.941406 188.21875 141.304688 187.695312 C 142.03125 186.648438 142.832031 185.644531 143.660156 184.664062 C 144.492188 183.683594 145.363281 182.726562 146.246094 181.777344 L 146.117188 181.640625 C 145.105469 182.453125 144.121094 183.308594 143.179688 184.210938 C 142.238281 185.113281 141.335938 186.066406 140.5 187.085938 C 139.667969 188.109375 138.890625 189.199219 138.296875 190.4375 C 138.003906 191.058594 137.757812 191.71875 137.628906 192.445312 C 137.566406 192.804688 137.535156 193.183594 137.5625 193.574219 C 137.589844 193.960938 137.671875 194.363281 137.828125 194.742188 " fill-opacity="1" fill-rule="nonzero"/></g><path fill="#e4e0d7" d="M 197.152344 189.101562 C 197.152344 189.101562 197.152344 189.105469 197.152344 189.105469 C 197.152344 189.105469 197.15625 189.109375 197.15625 189.113281 L 197.171875 189.097656 C 197.164062 189.097656 197.160156 189.097656 197.152344 189.101562 " fill-opacity="1" fill-rule="nonzero"/><g clip-path="url(#c27f8b1da7)"><path fill="#e4e0d7" d="M 178.683594 180.628906 L 180.226562 181.582031 L 180.640625 181.839844 C 180.640625 181.839844 181.65625 182.46875 181.664062 182.472656 C 181.898438 182.621094 182.109375 182.804688 182.238281 183.050781 C 182.355469 183.265625 182.386719 183.507812 182.433594 183.742188 C 182.507812 184.109375 182.582031 184.476562 182.65625 184.839844 L 182.65625 184.84375 L 183.070312 186.90625 C 183.125 187.183594 183.34375 187.285156 183.558594 187.136719 C 183.773438 186.984375 183.957031 186.632812 183.964844 186.347656 L 184.015625 184.132812 L 184.042969 182.644531 L 186.199219 181.257812 L 186.355469 181.15625 L 192.484375 177.207031 L 192.539062 177.46875 L 192.542969 177.472656 L 192.566406 177.46875 L 192.953125 179.003906 L 192.957031 179.011719 L 195 188.265625 C 195.042969 188.460938 195.144531 188.589844 195.289062 188.542969 L 195.296875 188.542969 C 195.351562 188.523438 195.414062 188.5 195.472656 188.457031 L 196.4375 187.78125 C 196.664062 187.625 196.84375 187.277344 196.835938 187.003906 L 196.753906 184.410156 C 196.820312 184.398438 196.871094 184.34375 196.929688 184.300781 L 197.355469 184.003906 L 197.46875 183.925781 C 197.695312 183.769531 197.796875 183.503906 197.640625 183.28125 L 197.527344 183.117188 C 197.476562 183.042969 197.402344 182.984375 197.324219 182.941406 C 197.152344 182.851562 196.9375 182.835938 196.785156 182.941406 L 196.6875 183.011719 L 196.632812 180.753906 C 196.703125 180.742188 196.789062 180.746094 196.851562 180.703125 L 197.074219 180.546875 L 197.375 180.339844 C 197.597656 180.183594 197.65625 179.859375 197.5 179.636719 L 197.386719 179.472656 C 197.285156 179.328125 197.09375 179.222656 196.910156 179.214844 C 196.8125 179.210938 196.71875 179.230469 196.640625 179.285156 L 196.558594 179.339844 L 196.484375 176.792969 L 196.484375 176.679688 L 196.429688 174.894531 L 196.425781 174.640625 L 199.519531 172.699219 L 199.546875 172.683594 C 200.253906 172.226562 201.394531 170.980469 201.734375 170.0625 C 201.851562 169.746094 201.878906 169.472656 201.757812 169.28125 C 201.648438 169.101562 201.425781 169.011719 201.132812 168.988281 C 200.203125 168.90625 198.59375 169.492188 197.867188 169.960938 C 197.855469 169.96875 196.769531 170.785156 195.183594 171.980469 C 195.132812 172.019531 195.078125 172.058594 195.027344 172.097656 C 194.945312 172.15625 194.863281 172.21875 194.78125 172.28125 L 194.625 172.21875 L 194.523438 172.175781 L 193.101562 171.597656 L 190.386719 170.492188 L 190.46875 170.433594 C 190.695312 170.277344 190.761719 169.96875 190.605469 169.746094 L 190.492188 169.582031 C 190.332031 169.355469 190.054688 169.363281 189.832031 169.519531 L 189.308594 169.886719 C 189.25 169.929688 189.171875 169.941406 189.136719 170.003906 L 186.988281 169.101562 L 187.085938 169.035156 C 187.3125 168.875 187.390625 168.578125 187.234375 168.355469 L 187.117188 168.191406 C 186.960938 167.964844 186.625 167.894531 186.402344 168.050781 L 185.859375 168.425781 C 185.800781 168.46875 185.753906 168.523438 185.71875 168.585938 L 183.3125 167.605469 C 183.058594 167.503906 182.65625 167.53125 182.429688 167.6875 L 181.464844 168.359375 C 181.238281 168.515625 181.257812 168.785156 181.488281 168.933594 L 189.132812 173.882812 L 190.675781 174.882812 L 191.035156 175.113281 C 190.917969 175.203125 190.800781 175.292969 190.683594 175.378906 C 187.46875 177.800781 184.148438 180.304688 183 181.171875 L 181.660156 180.714844 L 180.140625 180.195312 L 179.515625 179.980469 C 179.25 179.890625 178.855469 179.9375 178.640625 180.085938 C 178.425781 180.238281 178.445312 180.480469 178.683594 180.628906 " fill-opacity="1" fill-rule="nonzero"/></g></svg>