<svg xmlns="http://www.w3.org/2000/svg" xmlns:xlink="http://www.w3.org/1999/xlink" width="500" zoomAndPan="magnify" viewBox="0 0 375 374.999991" height="500" preserveAspectRatio="xMidYMid meet" version="1.0"><defs><g/><clipPath id="9569def989"><path d="M 306 204 L 307 204 L 307 205 L 306 205 Z M 306 204 " clip-rule="nonzero"/></clipPath><clipPath id="2ebd8919bd"><path d="M 302.8125 195.75 L 316.042969 193.058594 L 318.285156 204.082031 L 305.054688 206.773438 Z M 302.8125 195.75 " clip-rule="nonzero"/></clipPath><clipPath id="6fd636026a"><path d="M 281.554688 200.074219 L 316.097656 193.046875 L 319.386719 209.214844 L 284.84375 216.246094 Z M 281.554688 200.074219 " clip-rule="nonzero"/></clipPath><clipPath id="23349af4f6"><path d="M 302 203 L 307 203 L 307 207 L 302 207 Z M 302 203 " clip-rule="nonzero"/></clipPath><clipPath id="07d275e2bc"><path d="M 302.8125 195.75 L 316.042969 193.058594 L 318.285156 204.082031 L 305.054688 206.773438 Z M 302.8125 195.75 " clip-rule="nonzero"/></clipPath><clipPath id="617d0ee31b"><path d="M 281.554688 200.074219 L 316.097656 193.046875 L 319.386719 209.214844 L 284.84375 216.246094 Z M 281.554688 200.074219 " clip-rule="nonzero"/></clipPath><clipPath id="2a62ca8a23"><path d="M 283.09375 207.640625 L 306.296875 202.921875 L 308.035156 211.476562 L 284.835938 216.199219 Z M 283.09375 207.640625 " clip-rule="nonzero"/></clipPath><clipPath id="5fea264d68"><path d="M 283.09375 207.640625 L 306.296875 202.921875 L 308.035156 211.457031 L 284.832031 216.179688 Z M 283.09375 207.640625 " clip-rule="nonzero"/></clipPath><clipPath id="513c34f1f5"><path d="M 315 205 L 316 205 L 316 206 L 315 206 Z M 315 205 " clip-rule="nonzero"/></clipPath><clipPath id="e087cbb895"><path d="M 302.8125 195.75 L 316.042969 193.058594 L 318.285156 204.082031 L 305.054688 206.773438 Z M 302.8125 195.75 " clip-rule="nonzero"/></clipPath><clipPath id="d13e89d494"><path d="M 281.554688 200.074219 L 316.097656 193.046875 L 319.386719 209.214844 L 284.84375 216.246094 Z M 281.554688 200.074219 " clip-rule="nonzero"/></clipPath><clipPath id="7982afc8a3"><path d="M 304 193 L 317 193 L 317 206 L 304 206 Z M 304 193 " clip-rule="nonzero"/></clipPath><clipPath id="072ce0cd6b"><path d="M 302.8125 195.75 L 316.042969 193.058594 L 318.285156 204.082031 L 305.054688 206.773438 Z M 302.8125 195.75 " clip-rule="nonzero"/></clipPath><clipPath id="5ec8c095e1"><path d="M 281.554688 200.074219 L 316.097656 193.046875 L 319.386719 209.214844 L 284.84375 216.246094 Z M 281.554688 200.074219 " clip-rule="nonzero"/></clipPath></defs><g fill="#000000" fill-opacity="1"><g transform="translate(67.610087, 207.808213)"><g><path d="M 7.453125 -42.484375 L 7.453125 -58.296875 L 22.109375 -58.296875 L 22.109375 -42.484375 L 31.0625 -42.484375 L 31.0625 -31.296875 L 22.109375 -31.296875 L 22.109375 -17.8125 C 22.109375 -13.882812 23.210938 -11.921875 25.421875 -11.921875 C 25.972656 -11.921875 26.550781 -12.03125 27.15625 -12.25 C 27.769531 -12.476562 28.242188 -12.703125 28.578125 -12.921875 L 29.0625 -13.25 L 32.71875 -1.40625 C 29.5625 0.363281 25.972656 1.25 21.953125 1.25 C 19.191406 1.25 16.816406 0.765625 14.828125 -0.203125 C 12.835938 -1.171875 11.332031 -2.46875 10.3125 -4.09375 C 9.289062 -5.726562 8.554688 -7.441406 8.109375 -9.234375 C 7.671875 -11.023438 7.453125 -12.941406 7.453125 -14.984375 L 7.453125 -31.296875 L 1.328125 -31.296875 L 1.328125 -42.484375 Z M 7.453125 -42.484375 "/></g></g></g><g fill="#000000" fill-opacity="1"><g transform="translate(93.858395, 207.808213)"><g><path d="M 44.46875 -68.328125 L 44.46875 -54.65625 L 20.53125 -54.65625 L 20.53125 -41.078125 L 42.65625 -41.078125 L 42.65625 -27.40625 L 20.53125 -27.40625 L 20.53125 0 L 4.96875 0 L 4.96875 -68.328125 Z M 44.46875 -68.328125 "/></g></g></g><g fill="#000000" fill-opacity="1"><g transform="translate(134.349102, 207.808213)"><g><path d="M 4.96875 0 L 4.96875 -71.21875 L 19.625 -71.21875 L 19.625 0 Z M 4.96875 0 "/></g></g></g><g fill="#000000" fill-opacity="1"><g transform="translate(152.482568, 207.808213)"><g><path d="M 6.375 -66.15625 C 8.082031 -67.875 10.125 -68.734375 12.5 -68.734375 C 14.875 -68.734375 16.914062 -67.875 18.625 -66.15625 C 20.34375 -64.445312 21.203125 -62.40625 21.203125 -60.03125 C 21.203125 -57.664062 20.34375 -55.625 18.625 -53.90625 C 16.914062 -52.195312 14.875 -51.34375 12.5 -51.34375 C 10.125 -51.34375 8.082031 -52.195312 6.375 -53.90625 C 4.664062 -55.625 3.8125 -57.664062 3.8125 -60.03125 C 3.8125 -62.40625 4.664062 -64.445312 6.375 -66.15625 Z M 4.96875 -42.484375 L 4.96875 0 L 19.625 0 L 19.625 -42.484375 Z M 4.96875 -42.484375 "/></g></g></g><g fill="#000000" fill-opacity="1"><g transform="translate(171.030052, 207.808213)"><g><path d="M 3.0625 10.4375 L 15.078125 4.5625 C 17.285156 8.195312 21.117188 10.015625 26.578125 10.015625 C 29.117188 10.015625 31.476562 9.203125 33.65625 7.578125 C 35.84375 5.953125 36.9375 3.453125 36.9375 0.078125 L 36.9375 -3.0625 C 34.34375 -0.1875 29.703125 1.25 23.015625 1.25 C 16.890625 1.25 11.835938 -0.914062 7.859375 -5.25 C 3.890625 -9.59375 1.90625 -14.910156 1.90625 -21.203125 C 1.90625 -27.492188 3.890625 -32.816406 7.859375 -37.171875 C 11.835938 -41.535156 16.890625 -43.71875 23.015625 -43.71875 C 28.484375 -43.71875 33.039062 -42.035156 36.6875 -38.671875 L 36.9375 -38.671875 L 36.9375 -42.484375 L 51.59375 -42.484375 L 51.59375 1.15625 C 51.59375 8.0625 49.300781 13.390625 44.71875 17.140625 C 40.132812 20.898438 34.085938 22.78125 26.578125 22.78125 C 14.429688 22.78125 6.59375 18.664062 3.0625 10.4375 Z M 20.328125 -28.40625 C 18.421875 -26.53125 17.46875 -24.128906 17.46875 -21.203125 C 17.46875 -18.273438 18.378906 -15.882812 20.203125 -14.03125 C 22.023438 -12.1875 24.425781 -11.265625 27.40625 -11.265625 C 30.28125 -11.265625 32.640625 -12.203125 34.484375 -14.078125 C 36.335938 -15.953125 37.265625 -18.328125 37.265625 -21.203125 C 37.265625 -24.128906 36.3125 -26.53125 34.40625 -28.40625 C 32.5 -30.28125 30.164062 -31.21875 27.40625 -31.21875 C 24.59375 -31.21875 22.234375 -30.28125 20.328125 -28.40625 Z M 20.328125 -28.40625 "/></g></g></g><g fill="#000000" fill-opacity="1"><g transform="translate(221.126092, 207.808213)"><g><path d="M 4.96875 0 L 4.96875 -71.21875 L 19.625 -71.21875 L 19.625 -38.015625 L 19.796875 -38.015625 C 23.597656 -41.816406 27.65625 -43.71875 31.96875 -43.71875 C 34.0625 -43.71875 36.144531 -43.441406 38.21875 -42.890625 C 40.289062 -42.335938 42.273438 -41.484375 44.171875 -40.328125 C 46.078125 -39.171875 47.625 -37.53125 48.8125 -35.40625 C 50 -33.28125 50.59375 -30.804688 50.59375 -27.984375 L 50.59375 0 L 35.9375 0 L 35.9375 -24.015625 C 35.9375 -26.222656 35.234375 -28.15625 33.828125 -29.8125 C 32.421875 -31.46875 30.585938 -32.296875 28.328125 -32.296875 C 26.117188 -32.296875 24.113281 -31.4375 22.3125 -29.71875 C 20.519531 -28.007812 19.625 -26.109375 19.625 -24.015625 L 19.625 0 Z M 4.96875 0 "/></g></g></g><g fill="#000000" fill-opacity="1"><g transform="translate(269.400427, 207.808213)"><g><path d="M 7.453125 -42.484375 L 7.453125 -58.296875 L 22.109375 -58.296875 L 22.109375 -42.484375 L 31.0625 -42.484375 L 31.0625 -31.296875 L 22.109375 -31.296875 L 22.109375 -17.8125 C 22.109375 -13.882812 23.210938 -11.921875 25.421875 -11.921875 C 25.972656 -11.921875 26.550781 -12.03125 27.15625 -12.25 C 27.769531 -12.476562 28.242188 -12.703125 28.578125 -12.921875 L 29.0625 -13.25 L 32.71875 -1.40625 C 29.5625 0.363281 25.972656 1.25 21.953125 1.25 C 19.191406 1.25 16.816406 0.765625 14.828125 -0.203125 C 12.835938 -1.171875 11.332031 -2.46875 10.3125 -4.09375 C 9.289062 -5.726562 8.554688 -7.441406 8.109375 -9.234375 C 7.671875 -11.023438 7.453125 -12.941406 7.453125 -14.984375 L 7.453125 -31.296875 L 1.328125 -31.296875 L 1.328125 -42.484375 Z M 7.453125 -42.484375 "/></g></g></g><g fill="#000000" fill-opacity="1"><g transform="translate(295.648731, 207.808213)"><g><path d="M 14.40625 -17.71875 C 17.0625 -17.71875 19.3125 -16.789062 21.15625 -14.9375 C 23.007812 -13.09375 23.9375 -10.847656 23.9375 -8.203125 C 23.9375 -5.609375 23.007812 -3.382812 21.15625 -1.53125 C 19.3125 0.320312 17.0625 1.25 14.40625 1.25 C 11.8125 1.25 9.585938 0.320312 7.734375 -1.53125 C 5.890625 -3.382812 4.96875 -5.609375 4.96875 -8.203125 C 4.96875 -10.847656 5.890625 -13.09375 7.734375 -14.9375 C 9.585938 -16.789062 11.8125 -17.71875 14.40625 -17.71875 Z M 14.40625 -17.71875 "/></g></g></g><g clip-path="url(#9569def989)"><g clip-path="url(#2ebd8919bd)"><g clip-path="url(#6fd636026a)"><path fill="#e4e0d7" d="M 306.921875 204.996094 L 306.917969 204.992188 Z M 306.921875 204.996094 " fill-opacity="1" fill-rule="nonzero"/></g></g></g><g clip-path="url(#23349af4f6)"><g clip-path="url(#07d275e2bc)"><g clip-path="url(#617d0ee31b)"><g clip-path="url(#2a62ca8a23)"><g clip-path="url(#5fea264d68)"><path fill="#e4e0d7" d="M 284.671875 214.640625 C 284.796875 214.828125 284.957031 214.992188 285.132812 215.125 C 285.3125 215.253906 285.511719 215.351562 285.707031 215.425781 C 286.105469 215.566406 286.503906 215.609375 286.890625 215.617188 C 287.277344 215.617188 287.652344 215.582031 288.023438 215.523438 C 288.390625 215.464844 288.75 215.378906 289.101562 215.285156 C 289.808594 215.09375 290.492188 214.851562 291.160156 214.574219 C 291.492188 214.433594 291.820312 214.289062 292.144531 214.132812 C 292.46875 213.980469 292.792969 213.820312 293.109375 213.652344 C 293.605469 213.394531 294.089844 213.121094 294.570312 212.835938 C 294.878906 212.652344 295.1875 212.464844 295.492188 212.273438 C 295.925781 212 296.351562 211.722656 296.773438 211.441406 C 297.480469 210.96875 298.175781 210.484375 298.867188 209.996094 C 299.148438 209.796875 299.429688 209.597656 299.707031 209.398438 C 299.894531 209.265625 300.078125 209.132812 300.261719 208.996094 C 301.414062 208.167969 302.554688 207.324219 303.683594 206.464844 C 304.4375 205.890625 305.195312 205.3125 305.941406 204.726562 C 306.078125 204.617188 306.300781 204.441406 306.449219 204.324219 C 306.550781 204.246094 306.539062 204.085938 306.425781 204.027344 C 306.421875 204.023438 306.414062 204.019531 306.40625 204.019531 C 306.242188 203.960938 306.054688 203.996094 305.925781 204.109375 C 305.847656 204.179688 305.761719 204.253906 305.703125 204.304688 C 304.972656 204.953125 304.230469 205.582031 303.46875 206.195312 C 302.371094 207.082031 301.238281 207.929688 300.074219 208.726562 C 299.992188 208.78125 299.910156 208.839844 299.828125 208.894531 C 299.785156 208.921875 299.742188 208.949219 299.703125 208.976562 C 299.683594 208.988281 299.664062 209.003906 299.644531 209.015625 C 299.617188 209.035156 299.589844 209.054688 299.5625 209.070312 C 299.535156 209.089844 299.507812 209.109375 299.476562 209.128906 C 299.457031 209.140625 299.4375 209.15625 299.414062 209.167969 C 299.363281 209.203125 299.3125 209.234375 299.265625 209.269531 C 299.261719 209.269531 299.261719 209.269531 299.261719 209.269531 C 299.191406 209.316406 299.117188 209.363281 299.046875 209.410156 C 298.972656 209.457031 298.898438 209.496094 298.824219 209.542969 C 298.753906 209.589844 298.679688 209.636719 298.601562 209.675781 C 297.914062 210.144531 297.191406 210.546875 296.472656 210.949219 C 295.964844 211.234375 295.449219 211.503906 294.9375 211.78125 C 294.617188 211.953125 294.296875 212.128906 293.964844 212.273438 C 293.964844 212.277344 293.964844 212.277344 293.964844 212.277344 L 293.960938 212.277344 C 293.558594 212.496094 293.140625 212.6875 292.726562 212.878906 C 292.566406 212.953125 292.410156 213.03125 292.25 213.101562 C 292.089844 213.171875 291.933594 213.246094 291.773438 213.316406 C 291.453125 213.453125 291.132812 213.589844 290.8125 213.71875 C 290.167969 213.976562 289.515625 214.214844 288.859375 214.402344 C 288.53125 214.496094 288.199219 214.574219 287.871094 214.636719 C 287.542969 214.695312 287.210938 214.738281 286.890625 214.742188 C 286.570312 214.746094 286.253906 214.71875 285.980469 214.628906 C 285.707031 214.539062 285.484375 214.394531 285.332031 214.183594 C 285.175781 213.976562 285.089844 213.699219 285.066406 213.394531 C 285.039062 213.085938 285.074219 212.761719 285.132812 212.433594 C 285.195312 212.105469 285.285156 211.777344 285.394531 211.453125 C 285.5 211.128906 285.628906 210.804688 285.765625 210.488281 C 286.039062 209.847656 286.359375 209.222656 286.699219 208.605469 C 287.039062 207.988281 287.398438 207.382812 287.769531 206.777344 L 287.683594 206.71875 C 287.230469 207.265625 286.796875 207.828125 286.390625 208.417969 C 285.984375 209.003906 285.605469 209.613281 285.269531 210.25 C 284.933594 210.886719 284.636719 211.554688 284.453125 212.285156 C 284.363281 212.648438 284.304688 213.03125 284.316406 213.433594 C 284.320312 213.632812 284.347656 213.839844 284.402344 214.046875 C 284.457031 214.25 284.546875 214.453125 284.671875 214.640625 " fill-opacity="1" fill-rule="nonzero"/></g></g></g></g></g><g clip-path="url(#513c34f1f5)"><g clip-path="url(#e087cbb895)"><g clip-path="url(#d13e89d494)"><path fill="#e4e0d7" d="M 315.839844 205.152344 C 315.839844 205.152344 315.839844 205.152344 315.839844 205.15625 C 315.839844 205.15625 315.84375 205.15625 315.84375 205.15625 L 315.851562 205.148438 C 315.847656 205.148438 315.84375 205.152344 315.839844 205.152344 " fill-opacity="1" fill-rule="nonzero"/></g></g></g><g clip-path="url(#7982afc8a3)"><g clip-path="url(#072ce0cd6b)"><g clip-path="url(#5ec8c095e1)"><path fill="#e4e0d7" d="M 305.023438 202.628906 L 305.953125 202.96875 L 306.203125 203.0625 C 306.203125 203.0625 306.816406 203.289062 306.820312 203.289062 C 306.960938 203.34375 307.09375 203.417969 307.191406 203.535156 C 307.277344 203.640625 307.320312 203.765625 307.371094 203.886719 C 307.449219 204.074219 307.53125 204.261719 307.609375 204.449219 L 307.609375 204.453125 L 308.054688 205.511719 C 308.117188 205.652344 308.246094 205.6875 308.34375 205.582031 C 308.441406 205.476562 308.5 205.269531 308.472656 205.117188 L 308.261719 203.921875 L 308.113281 203.121094 L 309.117188 202.144531 L 309.1875 202.074219 L 309.191406 202.074219 L 312.042969 199.289062 L 312.101562 199.421875 L 312.101562 199.425781 L 312.113281 199.421875 L 312.488281 200.199219 L 312.492188 200.203125 L 314.59375 204.941406 C 314.640625 205.039062 314.707031 205.097656 314.78125 205.058594 L 314.785156 205.054688 C 314.8125 205.039062 314.84375 205.019531 314.871094 204.992188 L 315.3125 204.523438 C 315.417969 204.414062 315.476562 204.207031 315.441406 204.0625 L 315.113281 202.683594 C 315.152344 202.667969 315.171875 202.636719 315.199219 202.605469 L 315.394531 202.402344 L 315.445312 202.34375 C 315.550781 202.238281 315.574219 202.085938 315.46875 201.980469 L 315.386719 201.90625 C 315.351562 201.871094 315.308594 201.847656 315.261719 201.835938 C 315.160156 201.804688 315.042969 201.820312 314.972656 201.894531 L 314.925781 201.941406 L 314.652344 200.738281 C 314.6875 200.722656 314.734375 200.714844 314.761719 200.6875 L 314.867188 200.578125 L 315.003906 200.433594 C 315.105469 200.324219 315.101562 200.148438 314.996094 200.042969 L 314.914062 199.96875 C 314.84375 199.902344 314.730469 199.867188 314.632812 199.882812 C 314.578125 199.890625 314.53125 199.910156 314.496094 199.949219 L 314.457031 199.988281 L 314.140625 198.632812 L 314.128906 198.570312 L 313.90625 197.621094 L 313.875 197.484375 L 315.320312 196.105469 L 315.332031 196.097656 C 315.664062 195.773438 316.136719 194.980469 316.21875 194.453125 C 316.25 194.269531 316.230469 194.121094 316.148438 194.03125 C 316.070312 193.945312 315.9375 193.921875 315.78125 193.941406 C 315.273438 194 314.472656 194.488281 314.136719 194.820312 C 314.132812 194.824219 313.636719 195.378906 312.917969 196.195312 C 312.894531 196.21875 312.871094 196.246094 312.847656 196.273438 C 312.8125 196.316406 312.773438 196.355469 312.738281 196.398438 L 312.648438 196.382812 L 312.585938 196.371094 L 311.761719 196.214844 L 310.1875 195.917969 L 310.222656 195.878906 C 310.328125 195.773438 310.332031 195.601562 310.222656 195.496094 L 310.144531 195.421875 C 310.035156 195.316406 309.886719 195.351562 309.785156 195.460938 L 309.542969 195.714844 C 309.515625 195.742188 309.476562 195.757812 309.464844 195.792969 L 308.214844 195.546875 L 308.261719 195.5 C 308.363281 195.390625 308.371094 195.222656 308.265625 195.117188 L 308.183594 195.042969 C 308.078125 194.941406 307.886719 194.9375 307.785156 195.046875 L 307.535156 195.308594 C 307.507812 195.335938 307.492188 195.371094 307.476562 195.40625 L 306.082031 195.144531 C 305.9375 195.117188 305.722656 195.175781 305.617188 195.285156 L 305.175781 195.75 C 305.070312 195.859375 305.109375 196 305.25 196.054688 L 309.886719 197.875 L 310.820312 198.242188 L 311.039062 198.324219 C 310.984375 198.386719 310.929688 198.445312 310.878906 198.507812 C 309.421875 200.15625 307.914062 201.859375 307.394531 202.449219 L 306.625 202.347656 L 305.757812 202.234375 L 305.398438 202.1875 C 305.246094 202.167969 305.039062 202.238281 304.941406 202.339844 C 304.839844 202.445312 304.878906 202.574219 305.023438 202.628906 " fill-opacity="1" fill-rule="nonzero"/></g></g></g></svg>