<svg xmlns="http://www.w3.org/2000/svg" xmlns:xlink="http://www.w3.org/1999/xlink" width="500" zoomAndPan="magnify" viewBox="0 0 1190.25 1685.749949" height="500" preserveAspectRatio="xMidYMid meet" version="1.0"><defs><g/><clipPath id="06f15a74d7"><path d="M 747.503906 836.027344 L 827.367188 836.027344 L 827.367188 883.132812 L 747.503906 883.132812 Z M 747.503906 836.027344 " clip-rule="nonzero"/></clipPath><clipPath id="1f9334e107"><path d="M 792.84375 836.027344 C 793.71875 836.027344 794.597656 836.027344 795.472656 836.027344 C 802.441406 836.8125 806.796875 839.433594 808.78125 843.71875 C 820.398438 843.144531 828.695312 851.25 823.699219 859.203125 C 825.410156 860.875 826.839844 862.742188 827.355469 865.25 C 827.355469 865.96875 827.355469 866.6875 827.355469 867.40625 C 825.816406 873.792969 819.203125 878.105469 808.34375 876.945312 C 805.550781 880.222656 800.578125 883.507812 792.84375 883.097656 C 788.84375 882.882812 786.0625 881.636719 783.628906 880.121094 C 781.0625 881.382812 778.285156 882.371094 774.269531 882.378906 C 764.984375 882.398438 758.769531 877.546875 758.621094 870.894531 C 752.648438 869.335938 748.605469 866.433594 747.503906 861.460938 C 747.503906 860.742188 747.503906 860.023438 747.503906 859.304688 C 748.722656 854.378906 752.542969 851.285156 758.910156 849.972656 C 758.527344 841.660156 771.265625 836.46875 781.726562 840.128906 C 784.214844 838.320312 787.742188 836.34375 792.84375 836.027344 Z M 792.84375 836.027344 " clip-rule="nonzero"/></clipPath><clipPath id="c3255839f9"><path d="M 744 852 L 824 852 L 824 900 L 744 900 Z M 744 852 " clip-rule="nonzero"/></clipPath><clipPath id="b20c7caf27"><path d="M 748.265625 845.976562 L 827.367188 856.980469 L 820.875 903.640625 L 741.777344 892.636719 Z M 748.265625 845.976562 " clip-rule="nonzero"/></clipPath><clipPath id="bb668439ad"><path d="M 793.171875 852.226562 C 794.039062 852.34375 794.910156 852.46875 795.777344 852.585938 C 802.570312 854.328125 806.523438 857.519531 807.898438 862.039062 C 819.484375 863.074219 826.585938 872.242188 820.539062 879.433594 C 822.003906 881.324219 823.160156 883.371094 823.328125 885.925781 C 823.226562 886.640625 823.128906 887.351562 823.03125 888.0625 C 820.628906 894.175781 813.480469 897.535156 802.886719 894.890625 C 799.667969 897.753906 794.292969 900.320312 786.6875 898.847656 C 782.753906 898.085938 780.171875 896.464844 777.96875 894.628906 C 775.253906 895.523438 772.367188 896.121094 768.390625 895.578125 C 759.1875 894.316406 753.703125 888.65625 754.472656 882.042969 C 748.773438 879.679688 745.167969 876.246094 744.761719 871.167969 C 744.863281 870.457031 744.960938 869.742188 745.058594 869.035156 C 746.941406 864.324219 751.15625 861.785156 757.640625 861.363281 C 758.410156 853.078125 771.738281 849.691406 781.59375 854.757812 C 784.3125 853.308594 788.074219 851.835938 793.171875 852.226562 Z M 793.171875 852.226562 " clip-rule="nonzero"/></clipPath><clipPath id="ea9723d8df"><path d="M 366 803 L 440 803 L 440 861 L 366 861 Z M 366 803 " clip-rule="nonzero"/></clipPath><clipPath id="dc050733ff"><path d="M 379.667969 790.855469 L 449.621094 829.386719 L 426.890625 870.648438 L 356.9375 832.117188 Z M 379.667969 790.855469 " clip-rule="nonzero"/></clipPath><clipPath id="58d5739ac7"><path d="M 419.378906 812.730469 C 420.144531 813.152344 420.917969 813.578125 421.683594 814 C 427.40625 818.050781 429.957031 822.445312 429.628906 827.15625 C 440.082031 832.261719 443.4375 843.363281 435.222656 847.917969 C 435.917969 850.207031 436.265625 852.535156 435.507812 854.980469 C 435.160156 855.609375 434.816406 856.238281 434.46875 856.867188 C 430.039062 861.71875 422.164062 862.308594 413.214844 856.050781 C 409.183594 857.574219 403.246094 858.050781 396.667969 853.960938 C 393.269531 851.84375 391.433594 849.410156 390.03125 846.90625 C 387.179688 846.773438 384.265625 846.296875 380.746094 844.371094 C 372.601562 839.90625 369.5 832.660156 372.578125 826.757812 C 368.101562 822.515625 365.960938 818.019531 367.394531 813.132812 C 367.742188 812.503906 368.089844 811.875 368.433594 811.246094 C 371.875 807.519531 376.71875 806.652344 382.929688 808.574219 C 386.601562 801.109375 400.261719 802.707031 407.660156 810.960938 C 410.714844 810.578125 414.753906 810.546875 419.378906 812.730469 Z M 419.378906 812.730469 " clip-rule="nonzero"/></clipPath><clipPath id="2f993c1999"><path d="M 362 825 L 397 825 L 397 882 L 362 882 Z M 362 825 " clip-rule="nonzero"/></clipPath><clipPath id="55243a074c"><path d="M 398.246094 826.578125 L 394.671875 883.144531 L 361.304688 881.035156 L 364.878906 824.46875 Z M 398.246094 826.578125 " clip-rule="nonzero"/></clipPath><clipPath id="26b80661a9"><path d="M 396.21875 858.6875 C 396.175781 859.308594 396.136719 859.933594 396.097656 860.550781 C 395.230469 865.453125 393.179688 868.421875 390.054688 869.632812 C 389.941406 877.890625 383.828125 883.402344 378.417969 879.507812 C 377.160156 880.644531 375.769531 881.574219 373.96875 881.824219 C 373.460938 881.792969 372.953125 881.761719 372.445312 881.730469 C 367.992188 880.355469 365.230469 875.476562 366.539062 867.835938 C 364.34375 865.710938 362.238281 862.042969 362.875 856.582031 C 363.207031 853.757812 364.214844 851.84375 365.394531 850.1875 C 364.617188 848.3125 364.042969 846.300781 364.214844 843.457031 C 364.617188 836.878906 368.332031 832.695312 373.050781 832.886719 C 374.421875 828.730469 376.660156 825.996094 380.230469 825.4375 C 380.742188 825.46875 381.25 825.503906 381.757812 825.535156 C 385.191406 826.617188 387.214844 829.460938 387.859375 834.03125 C 393.761719 834.132812 396.871094 843.386719 393.808594 850.632812 C 394.976562 852.476562 396.21875 855.0625 396.21875 858.6875 Z M 396.21875 858.6875 " clip-rule="nonzero"/></clipPath><clipPath id="5d65ce7f5a"><path d="M 385 629.003906 L 805.398438 629.003906 L 805.398438 874.800781 L 385 874.800781 Z M 385 629.003906 " clip-rule="nonzero"/></clipPath><clipPath id="a74a75dd53"><path d="M 665.40625 640.0625 C 643.886719 633.386719 619.417969 629.003906 595.40625 629.003906 C 571.394531 629.003906 548.289062 632.761719 526.996094 639.4375 C 526.542969 639.644531 526.089844 639.644531 525.636719 639.855469 C 445.671875 666.5625 386.777344 737.085938 385.644531 814.492188 L 385.644531 874.800781 L 805.398438 874.800781 L 805.398438 814.539062 C 804.265625 736.667969 746.277344 666.144531 665.40625 640.0625 Z M 665.40625 640.0625 " clip-rule="nonzero"/></clipPath><clipPath id="94f74c569a"><path d="M 372 804 L 406 804 L 406 870 L 372 870 Z M 372 804 " clip-rule="nonzero"/></clipPath><clipPath id="550d76ef83"><path d="M 406.761719 806.171875 L 400.207031 870.660156 L 371.34375 867.726562 L 377.898438 803.238281 Z M 406.761719 806.171875 " clip-rule="nonzero"/></clipPath><clipPath id="08004503a6"><path d="M 401.675781 856.214844 C 400.867188 864.183594 393.746094 869.988281 385.777344 869.175781 C 377.808594 868.367188 372.003906 861.25 372.8125 853.28125 L 376.429688 817.671875 C 377.242188 809.699219 384.359375 803.894531 392.328125 804.707031 C 400.300781 805.515625 406.101562 812.632812 405.292969 820.601562 Z M 401.675781 856.214844 " clip-rule="nonzero"/></clipPath><clipPath id="056ed7a6cf"><path d="M 776 832 L 810 832 L 810 897 L 776 897 Z M 776 832 " clip-rule="nonzero"/></clipPath><clipPath id="d9fdbfce2c"><path d="M 810.746094 833.683594 L 804.195312 898.171875 L 775.332031 895.238281 L 781.882812 830.75 Z M 810.746094 833.683594 " clip-rule="nonzero"/></clipPath><clipPath id="708df29060"><path d="M 805.660156 883.722656 C 804.851562 891.695312 797.734375 897.5 789.765625 896.6875 C 781.792969 895.878906 775.988281 888.761719 776.800781 880.792969 L 780.417969 845.179688 C 781.226562 837.210938 788.34375 831.40625 796.316406 832.21875 C 804.285156 833.027344 810.089844 840.144531 809.28125 848.113281 Z M 805.660156 883.722656 " clip-rule="nonzero"/></clipPath><clipPath id="ca12478e33"><path d="M 390.546875 634.867188 L 798.980469 634.867188 L 798.980469 896.917969 L 390.546875 896.917969 Z M 390.546875 634.867188 " clip-rule="nonzero"/></clipPath><clipPath id="4b7590da43"><path d="M 662.851562 645.925781 C 641.925781 639.25 618.132812 634.867188 594.785156 634.867188 C 571.433594 634.867188 548.96875 638.625 528.261719 645.300781 C 527.820312 645.507812 527.378906 645.507812 526.941406 645.71875 C 449.183594 672.425781 391.910156 742.949219 390.808594 820.71875 L 390.808594 896.917969 L 798.980469 896.917969 L 798.980469 820.773438 C 797.878906 742.53125 741.488281 672.007812 662.851562 645.925781 Z M 662.851562 645.925781 " clip-rule="nonzero"/></clipPath><clipPath id="b6e90eb53c"><path d="M 796 868 L 826 868 L 826 899 L 796 899 Z M 796 868 " clip-rule="nonzero"/></clipPath><clipPath id="481da7b7c4"><path d="M 827.351562 869.671875 L 824.316406 899.550781 L 795.453125 896.617188 L 798.488281 866.742188 Z M 827.351562 869.671875 " clip-rule="nonzero"/></clipPath><clipPath id="4eaecf1020"><path d="M 825.785156 885.097656 C 824.972656 893.066406 817.855469 898.871094 809.886719 898.0625 C 801.917969 897.253906 796.113281 890.136719 796.921875 882.164062 L 797.023438 881.171875 C 797.832031 873.203125 804.949219 867.398438 812.921875 868.207031 C 820.890625 869.015625 826.695312 876.132812 825.886719 884.105469 Z M 825.785156 885.097656 " clip-rule="nonzero"/></clipPath><clipPath id="1deeccd935"><path d="M 358 771 L 832 771 L 832 912.785156 L 358 912.785156 Z M 358 771 " clip-rule="nonzero"/></clipPath><clipPath id="e58a885da4"><path d="M 452 771 L 552 771 L 552 808 L 452 808 Z M 452 771 " clip-rule="nonzero"/></clipPath><clipPath id="26c78b0ff5"><path d="M 449.609375 793.171875 L 547.328125 763.980469 L 554.019531 786.382812 L 456.300781 815.574219 Z M 449.609375 793.171875 " clip-rule="nonzero"/></clipPath><clipPath id="92e7be5cea"><path d="M 505.082031 776.601562 C 506.152344 776.28125 507.230469 775.960938 508.300781 775.640625 C 516.9375 773.464844 522.636719 773.113281 525.671875 774.417969 C 539.804688 769.902344 550.46875 770.898438 546.113281 776.300781 C 548.445312 776.46875 550.457031 776.832031 551.441406 777.832031 C 551.542969 778.171875 551.644531 778.511719 551.746094 778.851562 C 550.769531 782.4375 543.289062 786.902344 529.839844 790.320312 C 526.882812 792.894531 521.296875 796.371094 511.742188 798.902344 C 506.820312 800.261719 503.242188 800.6875 500.046875 800.859375 C 497.085938 802.394531 493.828125 803.875 488.917969 805.347656 C 477.558594 808.753906 469.269531 808.726562 468.144531 805.628906 C 460.617188 807.074219 455.261719 807.175781 453.210938 805.222656 C 453.109375 804.882812 453.003906 804.539062 452.90625 804.199219 C 453.695312 801.421875 457.933594 798.558594 465.539062 795.609375 C 463.894531 791.8125 478.742188 784.699219 492.058594 782.609375 C 494.851562 780.839844 498.882812 778.617188 505.082031 776.601562 Z M 505.082031 776.601562 " clip-rule="nonzero"/></clipPath><clipPath id="46b2492d36"><path d="M 432 785 L 612 785 L 612 808 L 432 808 Z M 432 785 " clip-rule="nonzero"/></clipPath><clipPath id="e5ca679699"><path d="M 431.855469 793.472656 L 610.773438 781.554688 L 611.960938 799.363281 L 433.042969 811.28125 Z M 431.855469 793.472656 " clip-rule="nonzero"/></clipPath><clipPath id="89d5e31dd3"><path d="M 533.425781 786.707031 C 535.386719 786.578125 537.363281 786.445312 539.320312 786.316406 C 554.953125 785.570312 564.773438 785.90625 569.328125 787.226562 C 595.339844 785.277344 612.175781 787.21875 603.136719 790.832031 C 607.011719 791.203125 610.257812 791.695312 611.476562 792.5625 C 611.496094 792.835938 611.515625 793.105469 611.53125 793.375 C 608.25 796.007812 593.539062 798.621094 569.183594 799.804688 C 563.007812 801.457031 551.960938 803.585938 534.609375 804.433594 C 525.648438 804.949219 519.382812 804.894531 513.890625 804.6875 C 508.171875 805.546875 501.972656 806.332031 492.980469 806.933594 C 472.175781 808.328125 458.136719 807.429688 457.632812 804.945312 C 444.21875 805.25 435.085938 804.757812 432.496094 803.050781 C 432.476562 802.78125 432.457031 802.511719 432.441406 802.242188 C 435.039062 800.203125 443.527344 798.46875 457.757812 797.023438 C 456.695312 793.953125 485.09375 790.09375 508.625 789.914062 C 514.160156 788.859375 522.003906 787.589844 533.425781 786.707031 Z M 533.425781 786.707031 " clip-rule="nonzero"/></clipPath><clipPath id="8637e860ae"><path d="M 533 773 L 613 773 L 613 813 L 533 813 Z M 533 773 " clip-rule="nonzero"/></clipPath><clipPath id="9bb7b0e5ae"><path d="M 537.347656 764.828125 L 617.558594 799.824219 L 609.609375 818.050781 L 529.394531 783.054688 Z M 537.347656 764.828125 " clip-rule="nonzero"/></clipPath><clipPath id="4bef8d243c"><path d="M 582.863281 784.683594 C 583.742188 785.070312 584.625 785.453125 585.503906 785.835938 C 592.367188 789.191406 596.300781 792.109375 597.570312 794.628906 C 609.332031 799.5 615.808594 806.042969 609.941406 807.132812 C 611.378906 808.527344 612.5 809.871094 612.59375 811.066406 C 612.476562 811.34375 612.355469 811.617188 612.234375 811.894531 C 609.617188 813.683594 602.25 812.449219 591.542969 807.246094 C 588.1875 807.285156 582.605469 806.46875 574.949219 802.828125 C 570.96875 800.992188 568.386719 799.296875 566.195312 797.644531 C 563.410156 797.007812 560.453125 796.171875 556.421875 794.417969 C 547.097656 790.355469 541.675781 785.765625 542.644531 783.136719 C 536.910156 779.921875 533.339844 777.027344 533.070312 774.628906 C 533.191406 774.355469 533.3125 774.074219 533.433594 773.800781 C 535.480469 772.433594 539.839844 772.914062 546.453125 775.199219 C 547.464844 771.828125 561.125 775.40625 571.011719 781.398438 C 573.816406 781.792969 577.6875 782.574219 582.863281 784.683594 Z M 582.863281 784.683594 " clip-rule="nonzero"/></clipPath><clipPath id="f172bcb590"><path d="M 551.171875 798.148438 L 638.683594 798.148438 L 638.683594 818 L 551.171875 818 Z M 551.171875 798.148438 " clip-rule="nonzero"/></clipPath><clipPath id="02c9cb7b3a"><path d="M 600.828125 798.148438 C 601.789062 798.148438 602.753906 798.148438 603.710938 798.148438 C 611.34375 798.476562 616.113281 799.578125 618.285156 801.382812 C 631.011719 801.140625 639.566406 804.546875 634.625 807.890625 C 636.5 808.59375 638.066406 809.382812 638.628906 810.4375 C 638.628906 810.738281 638.628906 811.039062 638.628906 811.34375 C 636.945312 814.027344 629.703125 815.839844 617.808594 815.351562 C 614.75 816.730469 609.304688 818.214844 600.832031 817.941406 C 596.449219 817.851562 593.402344 817.324219 590.734375 816.6875 C 587.925781 817.21875 584.882812 817.632812 580.488281 817.636719 C 570.316406 817.644531 563.511719 815.605469 563.34375 812.808594 C 556.804688 812.152344 552.375 810.933594 551.171875 808.84375 C 551.171875 808.539062 551.171875 808.238281 551.171875 807.9375 C 552.503906 805.863281 556.691406 804.5625 563.664062 804.011719 C 563.246094 800.515625 577.191406 798.332031 588.652344 799.871094 C 591.382812 799.109375 595.242188 798.28125 600.828125 798.148438 Z M 600.828125 798.148438 " clip-rule="nonzero"/></clipPath><clipPath id="9a7e838e3d"><path d="M 550.484375 800.210938 L 637.996094 800.210938 L 637.996094 820.097656 L 550.484375 820.097656 Z M 550.484375 800.210938 " clip-rule="nonzero"/></clipPath><clipPath id="a5c150ca26"><path d="M 600.140625 800.210938 C 601.097656 800.210938 602.066406 800.210938 603.023438 800.210938 C 610.65625 800.542969 615.425781 801.644531 617.597656 803.445312 C 630.324219 803.207031 638.878906 806.613281 633.9375 809.957031 C 635.8125 810.660156 637.378906 811.445312 637.941406 812.5 C 637.941406 812.804688 637.941406 813.105469 637.941406 813.40625 C 636.257812 816.09375 629.015625 817.90625 617.121094 817.417969 C 614.058594 818.796875 608.617188 820.28125 600.140625 820.003906 C 595.761719 819.914062 592.714844 819.390625 590.046875 818.753906 C 587.238281 819.285156 584.195312 819.699219 579.796875 819.703125 C 569.625 819.710938 562.820312 817.671875 562.65625 814.875 C 556.117188 814.21875 551.6875 812.996094 550.484375 810.90625 C 550.484375 810.605469 550.484375 810.300781 550.484375 810 C 551.8125 807.929688 556 806.628906 562.976562 806.078125 C 562.554688 802.582031 576.503906 800.398438 587.964844 801.9375 C 590.691406 801.175781 594.550781 800.347656 600.140625 800.210938 Z M 600.140625 800.210938 " clip-rule="nonzero"/></clipPath><clipPath id="319c57e98a"><path d="M 547 772 L 634 772 L 634 816 L 547 816 Z M 547 772 " clip-rule="nonzero"/></clipPath><clipPath id="653058c85f"><path d="M 551.769531 763.988281 L 639.023438 802.054688 L 630.703125 821.125 L 543.453125 783.058594 Z M 551.769531 763.988281 " clip-rule="nonzero"/></clipPath><clipPath id="e196d6579f"><path d="M 601.292969 785.597656 C 602.25 786.011719 603.214844 786.433594 604.167969 786.851562 C 611.644531 790.488281 615.941406 793.621094 617.351562 796.292969 C 630.144531 801.601562 637.175781 808.554688 630.925781 809.644531 C 632.5 811.136719 633.730469 812.570312 633.851562 813.828125 C 633.726562 814.117188 633.601562 814.40625 633.472656 814.695312 C 630.671875 816.539062 622.6875 815.125 611.03125 809.484375 C 607.402344 809.472656 601.355469 808.515625 593.015625 804.578125 C 588.683594 802.585938 585.867188 800.753906 583.472656 798.984375 C 580.449219 798.269531 577.238281 797.34375 572.851562 795.433594 C 562.707031 791.015625 556.773438 786.101562 557.777344 783.34375 C 551.53125 779.871094 547.625 776.773438 547.296875 774.246094 C 547.421875 773.953125 547.550781 773.664062 547.675781 773.375 C 549.871094 771.96875 554.589844 772.542969 561.777344 775.046875 C 562.820312 771.515625 577.644531 775.492188 588.429688 781.953125 C 591.46875 782.410156 595.664062 783.292969 601.292969 785.597656 Z M 601.292969 785.597656 " clip-rule="nonzero"/></clipPath><clipPath id="15e75e6eb7"><path d="M 776 860 L 810 860 L 810 893 L 776 893 Z M 776 860 " clip-rule="nonzero"/></clipPath><clipPath id="0f15ca325b"><path d="M 816.050781 868.816406 L 787.011719 897.855469 L 771.933594 882.777344 L 800.972656 853.738281 Z M 816.050781 868.816406 " clip-rule="nonzero"/></clipPath><clipPath id="89cc9d432c"><path d="M 799.5625 885.304688 C 799.246094 885.621094 798.925781 885.941406 798.605469 886.261719 C 795.820312 888.542969 793.402344 889.292969 791.316406 888.648438 C 787.273438 893.054688 781.609375 893.550781 780.953125 889.136719 C 779.796875 889.226562 778.683594 889.148438 777.695312 888.535156 C 777.464844 888.308594 777.238281 888.078125 777.007812 887.851562 C 775.53125 885.253906 776.558594 881.472656 780.878906 877.894531 C 780.851562 875.832031 781.578125 872.945312 784.554688 870.296875 C 786.078125 868.910156 787.488281 868.296875 788.855469 867.894531 C 789.386719 866.558594 790.082031 865.234375 791.539062 863.769531 C 794.910156 860.386719 798.714844 859.671875 800.890625 861.742188 C 803.558594 860.066406 805.957031 859.519531 807.941406 860.707031 C 808.171875 860.933594 808.402344 861.164062 808.628906 861.394531 C 809.757812 863.40625 809.355469 865.78125 807.457031 868.515625 C 810.246094 871.027344 807.269531 877.316406 802.296875 879.953125 C 801.96875 881.433594 801.316406 883.347656 799.5625 885.304688 Z M 799.5625 885.304688 " clip-rule="nonzero"/></clipPath><clipPath id="9b5bbfe88d"><path d="M 753 832 L 792 832 L 792 849 L 753 849 Z M 753 832 " clip-rule="nonzero"/></clipPath><clipPath id="d2d0512d7e"><path d="M 789.976562 851.894531 L 751.425781 837.777344 L 754.023438 830.683594 L 792.570312 844.800781 Z M 789.976562 851.894531 " clip-rule="nonzero"/></clipPath><clipPath id="f6be590c7e"><path d="M 768.101562 843.882812 C 767.679688 843.730469 767.253906 843.574219 766.832031 843.417969 C 763.511719 842.070312 761.554688 840.910156 760.832031 839.917969 C 755.195312 837.953125 751.492188 835.222656 754.480469 834.96875 C 753.746094 834.417969 753.160156 833.886719 753.046875 833.421875 C 753.085938 833.3125 753.125 833.207031 753.164062 833.097656 C 754.257812 832.414062 757.683594 832.9375 762.859375 835.03125 C 764.386719 835.035156 767.023438 835.257812 770.675781 836.851562 C 772.59375 837.589844 773.867188 838.265625 774.957031 838.921875 C 776.265625 839.1875 777.660156 839.53125 779.597656 840.238281 C 784.078125 841.875 786.8125 843.699219 786.519531 844.71875 C 789.316406 846.007812 791.105469 847.15625 791.367188 848.09375 C 791.328125 848.199219 791.289062 848.308594 791.25 848.414062 C 790.390625 848.9375 788.378906 848.722656 785.234375 847.792969 C 784.964844 849.105469 778.535156 847.628906 773.6875 845.234375 C 772.386719 845.066406 770.578125 844.738281 768.101562 843.882812 Z M 768.101562 843.882812 " clip-rule="nonzero"/></clipPath><clipPath id="268bfefb48"><path d="M 740 828 L 779 828 L 779 848 L 740 848 Z M 740 828 " clip-rule="nonzero"/></clipPath><clipPath id="62dc6c9f9a"><path d="M 777.085938 849.613281 L 738.679688 830.972656 L 740.847656 826.503906 L 779.253906 845.148438 Z M 777.085938 849.613281 " clip-rule="nonzero"/></clipPath><clipPath id="66100ca2f1"><path d="M 755.289062 839.035156 C 754.867188 838.828125 754.445312 838.625 754.023438 838.417969 C 750.707031 836.71875 748.734375 835.457031 747.976562 834.59375 C 742.363281 831.933594 738.632812 829.1875 741.507812 829.660156 C 740.761719 829.105469 740.160156 828.59375 740.023438 828.238281 C 740.058594 828.171875 740.089844 828.105469 740.121094 828.039062 C 741.152344 827.796875 744.527344 828.9375 749.695312 831.582031 C 751.1875 831.925781 753.8125 832.601562 757.429688 834.621094 C 759.34375 835.574219 760.621094 836.339844 761.726562 837.050781 C 763.015625 837.53125 764.394531 838.085938 766.328125 839.023438 C 770.792969 841.1875 773.558594 843.09375 773.328125 843.753906 C 776.128906 845.292969 777.941406 846.507812 778.242188 847.230469 C 778.210938 847.296875 778.179688 847.363281 778.144531 847.433594 C 777.335938 847.609375 775.359375 847.007812 772.238281 845.644531 C 772.042969 846.511719 765.683594 844.027344 760.820312 841.242188 C 759.539062 840.832031 757.753906 840.195312 755.289062 839.035156 Z M 755.289062 839.035156 " clip-rule="nonzero"/></clipPath><clipPath id="364a7bdf5d"><path d="M 750 818 L 779 818 L 779 827 L 750 827 Z M 750 818 " clip-rule="nonzero"/></clipPath><clipPath id="9be3060829"><path d="M 779.234375 820.570312 L 778.21875 827.679688 L 749.941406 823.640625 L 750.957031 816.53125 Z M 779.234375 820.570312 " clip-rule="nonzero"/></clipPath><clipPath id="556f64e04e"><path d="M 778.664062 824.558594 C 778.652344 824.636719 778.640625 824.714844 778.628906 824.789062 C 778.070312 825.335938 776.445312 825.496094 773.847656 825.300781 C 774.042969 826.375 768.984375 827.0625 764.371094 825.289062 C 763.34375 825.296875 762.207031 825.261719 760.695312 825.089844 C 760.261719 825.03125 759.832031 824.96875 759.402344 824.90625 C 755.589844 824.222656 753.082031 823.273438 753.917969 822.417969 C 751.984375 821.890625 750.085938 821.171875 750.421875 820.523438 C 750.601562 820.191406 751.382812 820.054688 752.320312 819.96875 C 751.597656 819.632812 751.042969 819.304688 751.085938 818.953125 C 751.191406 818.132812 754.179688 818 758.171875 818.558594 C 759.183594 818.167969 760.976562 818.058594 763.972656 818.390625 C 764.402344 818.449219 764.835938 818.511719 765.265625 818.574219 C 768.207031 819.101562 770.015625 819.703125 770.722656 820.378906 C 775.710938 821.054688 778.667969 822.621094 776.339844 823.230469 C 777.394531 823.601562 778.535156 824.082031 778.664062 824.558594 Z M 778.664062 824.558594 " clip-rule="nonzero"/></clipPath><clipPath id="6e8f28983a"><path d="M 795 858 L 825 858 L 825 875 L 795 875 Z M 795 858 " clip-rule="nonzero"/></clipPath><clipPath id="9fabb88e36"><path d="M 795.460938 861.371094 L 824.601562 858.378906 L 826.085938 872.835938 L 796.945312 875.828125 Z M 795.460938 861.371094 " clip-rule="nonzero"/></clipPath><clipPath id="7079be383e"><path d="M 806.5625 873.976562 C 808.105469 874.339844 809.835938 874.503906 811.5 874.335938 C 813.164062 874.164062 814.738281 873.707031 816.160156 873.039062 C 816.191406 873.019531 816.222656 873.015625 816.25 872.996094 C 821.582031 870.359375 825.105469 864.480469 824.578125 858.582031 L 824.558594 858.382812 L 795.460938 861.371094 L 795.480469 861.570312 C 796.167969 867.488281 800.746094 872.53125 806.5625 873.976562 Z M 806.5625 873.976562 " clip-rule="nonzero"/></clipPath><clipPath id="025a2fca51"><path d="M 742 827 L 764 827 L 764 836 L 742 836 Z M 742 827 " clip-rule="nonzero"/></clipPath><clipPath id="deac15bba4"><path d="M 763.800781 829.566406 L 762.785156 836.675781 L 741.730469 833.667969 L 742.746094 826.558594 Z M 763.800781 829.566406 " clip-rule="nonzero"/></clipPath><clipPath id="b688012fc7"><path d="M 763.230469 833.558594 C 763.222656 833.632812 763.210938 833.710938 763.199219 833.789062 C 762.761719 834.351562 761.535156 834.570312 759.597656 834.46875 C 759.707031 835.527344 755.894531 836.394531 752.5 834.796875 C 751.730469 834.839844 750.878906 834.847656 749.753906 834.730469 C 749.433594 834.683594 749.113281 834.640625 748.792969 834.59375 C 745.960938 834.050781 744.117188 833.195312 744.773438 832.3125 C 743.34375 831.859375 741.894531 831.203125 742.21875 830.554688 C 742.367188 830.21875 742.957031 830.050781 743.664062 829.933594 C 743.136719 829.628906 742.730469 829.320312 742.773438 828.96875 C 742.882812 828.148438 745.125 827.910156 748.097656 828.320312 C 748.867188 827.894531 750.214844 827.726562 752.449219 827.945312 C 752.769531 827.992188 753.089844 828.039062 753.410156 828.082031 C 755.59375 828.503906 756.929688 829.039062 757.433594 829.683594 C 761.148438 830.179688 763.304688 831.628906 761.539062 832.316406 C 762.316406 832.652344 763.152344 833.089844 763.230469 833.558594 Z M 763.230469 833.558594 " clip-rule="nonzero"/></clipPath></defs><g clip-path="url(#06f15a74d7)"><g clip-path="url(#1f9334e107)"><path fill="#000000" d="M 747.503906 836.027344 L 827.367188 836.027344 L 827.367188 883.132812 L 747.503906 883.132812 Z M 747.503906 836.027344 " fill-opacity="1" fill-rule="nonzero"/></g></g><g clip-path="url(#c3255839f9)"><g clip-path="url(#b20c7caf27)"><g clip-path="url(#bb668439ad)"><path fill="#000000" d="M 748.265625 845.976562 L 827.367188 856.980469 L 820.875 903.640625 L 741.777344 892.636719 Z M 748.265625 845.976562 " fill-opacity="1" fill-rule="nonzero"/></g></g></g><g clip-path="url(#ea9723d8df)"><g clip-path="url(#dc050733ff)"><g clip-path="url(#58d5739ac7)"><path fill="#000000" d="M 379.667969 790.855469 L 449.621094 829.386719 L 426.890625 870.648438 L 356.9375 832.117188 Z M 379.667969 790.855469 " fill-opacity="1" fill-rule="nonzero"/></g></g></g><g clip-path="url(#2f993c1999)"><g clip-path="url(#55243a074c)"><g clip-path="url(#26b80661a9)"><path fill="#000000" d="M 398.246094 826.578125 L 394.671875 883.144531 L 361.304688 881.035156 L 364.878906 824.46875 Z M 398.246094 826.578125 " fill-opacity="1" fill-rule="nonzero"/></g></g></g><g clip-path="url(#5d65ce7f5a)"><g clip-path="url(#a74a75dd53)"><path fill="#ffffff" d="M 805.398438 874.800781 L 385.820312 874.800781 L 385.820312 629.003906 L 805.398438 629.003906 Z M 805.398438 874.800781 " fill-opacity="1" fill-rule="nonzero"/></g></g><g clip-path="url(#94f74c569a)"><g clip-path="url(#550d76ef83)"><g clip-path="url(#08004503a6)"><path fill="#000000" d="M 406.761719 806.171875 L 400.207031 870.660156 L 371.34375 867.726562 L 377.898438 803.238281 Z M 406.761719 806.171875 " fill-opacity="1" fill-rule="nonzero"/></g></g></g><g clip-path="url(#056ed7a6cf)"><g clip-path="url(#d9fdbfce2c)"><g clip-path="url(#708df29060)"><path fill="#000000" d="M 810.746094 833.683594 L 804.195312 898.171875 L 775.332031 895.238281 L 781.882812 830.75 Z M 810.746094 833.683594 " fill-opacity="1" fill-rule="nonzero"/></g></g></g><g clip-path="url(#ca12478e33)"><g clip-path="url(#4b7590da43)"><path fill="#000000" d="M 798.980469 896.917969 L 390.546875 896.917969 L 390.546875 634.867188 L 798.980469 634.867188 Z M 798.980469 896.917969 " fill-opacity="1" fill-rule="nonzero"/></g></g><g clip-path="url(#b6e90eb53c)"><g clip-path="url(#481da7b7c4)"><g clip-path="url(#4eaecf1020)"><path fill="#ffffff" d="M 827.351562 869.671875 L 824.316406 899.550781 L 795.453125 896.617188 L 798.488281 866.742188 Z M 827.351562 869.671875 " fill-opacity="1" fill-rule="nonzero"/></g></g></g><g clip-path="url(#1deeccd935)"><path fill="#ffffff" d="M 747.195312 907.667969 C 762.011719 908.460938 776.847656 908.570312 792.222656 909.945312 C 790.285156 911.019531 788.695312 910.890625 787.167969 910.933594 C 744.378906 912.398438 701.570312 913.128906 658.738281 913.085938 C 590.746094 913.019531 522.757812 913.171875 454.746094 912.871094 C 425.546875 912.742188 396.347656 912.160156 367.171875 911 C 366.160156 910.957031 365.085938 911.128906 364.203125 910.289062 C 378.976562 909.066406 393.746094 908.3125 408.5625 908.117188 C 408.691406 907.109375 407.808594 907.28125 407.335938 907.042969 C 400.5625 903.925781 395.207031 899.171875 391.1875 892.9375 C 390.414062 891.734375 389.46875 891.023438 388.132812 890.550781 C 381.148438 888.078125 374.332031 885.15625 367.6875 881.820312 C 366.417969 881.175781 365.128906 880.53125 363.945312 879.757812 C 362.246094 878.660156 359.96875 877.757812 360.03125 875.371094 C 360.117188 872.898438 362.613281 872.660156 364.351562 871.953125 C 366.652344 871.007812 367.042969 869.566406 365.945312 867.5 C 365.085938 865.933594 364.222656 864.363281 363.320312 862.835938 C 357.496094 852.964844 357.582031 842.796875 361.773438 832.429688 C 363.34375 828.519531 365.171875 824.734375 367.492188 821.230469 C 368.4375 819.808594 368.566406 818.714844 367.277344 817.53125 C 366.761719 817.058594 366.375 816.433594 365.945312 815.851562 C 362.355469 810.972656 364.007812 806.113281 369.878906 804.523438 C 374.289062 803.339844 378.867188 802.996094 383.382812 802.371094 C 398.648438 800.265625 414.023438 799.511719 429.398438 798.714844 C 431.976562 798.585938 434.257812 797.554688 436.558594 796.652344 C 457.867188 788.222656 479.539062 781.042969 501.859375 775.753906 C 519.75 771.515625 537.703125 770.355469 555.957031 772.074219 C 570.300781 773.429688 584.640625 774.71875 598.554688 778.71875 C 611.410156 782.417969 623.28125 788.523438 635.34375 794.15625 C 647.492188 799.835938 659.445312 805.917969 671.207031 812.347656 C 672.457031 813.035156 673.679688 813.207031 675.058594 813.164062 C 691.183594 812.714844 707.308594 812.390625 723.414062 813.101562 C 746.9375 814.132812 770.074219 817.316406 791.984375 826.582031 C 803.746094 831.570312 814.691406 837.9375 824.28125 846.472656 C 825.871094 847.890625 827.464844 849.375 828.902344 850.964844 C 831.65625 854.019531 832.410156 857.566406 830.816406 861.4375 C 829.765625 863.996094 828.515625 866.46875 827.398438 868.984375 C 824.667969 875.070312 823.828125 880.898438 828.902344 886.421875 C 831.203125 888.9375 830.429688 891.582031 827.226562 893.519531 C 823.484375 895.753906 819.25 896.613281 815.058594 897.476562 C 805.296875 899.496094 795.382812 900.164062 785.449219 900.65625 C 777.40625 901.066406 769.34375 901.171875 761.28125 901.367188 C 759.429688 901.410156 757.839844 901.820312 756.292969 902.914062 C 753.519531 904.894531 750.3125 906.097656 747.152344 907.644531 Z M 607.046875 816.003906 C 610.207031 821.230469 611.261719 826.648438 612.292969 832.066406 C 612.574219 833.507812 613.195312 834.152344 614.507812 834.644531 C 623.34375 837.914062 629.710938 843.890625 633.472656 852.558594 C 636.503906 859.546875 638.675781 866.835938 640.871094 874.101562 C 641.257812 875.433594 641.773438 876.039062 643.214844 876.039062 C 648.503906 876.039062 653.792969 876.101562 659.058594 876.273438 C 660.671875 876.316406 661.015625 875.695312 660.953125 874.230469 C 660.84375 871.824219 661.015625 869.414062 661.316406 867.007812 C 663.554688 849.417969 672.929688 837.332031 689.65625 831.65625 C 706.214844 826.023438 721.070312 830.085938 733.21875 842.386719 C 744.335938 853.652344 747.175781 867.78125 745.003906 883.113281 C 744.316406 887.972656 742.722656 892.617188 740.941406 897.367188 C 741.628906 897.433594 742.058594 897.496094 742.488281 897.496094 C 753.605469 897.625 764.699219 897.304688 775.792969 896.808594 C 783.382812 896.484375 790.976562 895.796875 798.523438 894.703125 C 799.554688 894.550781 801.339844 894.808594 800.84375 892.679688 C 800.457031 891.023438 801.210938 888.746094 798.136719 888.789062 C 794.652344 888.832031 791.148438 888.574219 787.664062 888.359375 C 784.632812 888.164062 781.621094 887.800781 778.828125 886.378906 C 775.40625 884.636719 774.441406 882.703125 775.105469 878.984375 C 775.558594 876.425781 776.394531 873.972656 777.277344 871.542969 C 780.050781 863.761719 785.664062 860.148438 793.792969 859.847656 C 801.941406 859.546875 810.089844 859.890625 818.238281 859.933594 C 819.121094 859.933594 820.175781 859.71875 820.863281 860.75 C 819.636719 861.289062 818.390625 861.394531 817.144531 861.480469 C 810.003906 861.953125 802.84375 862.234375 795.726562 863.070312 C 787.382812 864.0625 778.847656 873.15625 778.632812 881.542969 C 778.609375 882.726562 779.257812 883.304688 780.179688 883.777344 C 781.429688 884.421875 781.816406 883.457031 782.222656 882.726562 C 783.792969 879.929688 785.234375 877.046875 786.847656 874.253906 C 788.78125 870.898438 791.597656 868.878906 795.578125 868.316406 C 802.132812 867.394531 808.757812 866.964844 815.335938 866.40625 C 822.734375 865.78125 821.464844 866.75 824.195312 859.265625 C 824.28125 859.007812 824.28125 858.726562 824.367188 858.46875 C 825.292969 855.847656 824.453125 853.738281 822.433594 852 C 819.660156 849.589844 816.992188 847.054688 814.089844 844.816406 C 798.585938 832.90625 780.890625 825.765625 762.054688 821.144531 C 758.722656 820.324219 755.347656 819.660156 751.96875 818.929688 C 754.851562 820.347656 757.820312 821.292969 760.742188 822.324219 C 775.429688 827.484375 788.738281 834.945312 799.789062 846.0625 C 801.511719 847.804688 803.144531 849.675781 804.089844 852.472656 C 802.695312 851.160156 801.640625 850.105469 800.523438 849.136719 C 790.285156 840.257812 778.566406 833.808594 766.117188 828.667969 C 745.132812 820.003906 723.09375 816.949219 700.601562 816.457031 C 671.855469 815.832031 643.105469 815.574219 614.335938 816.003906 C 612.035156 816.046875 609.734375 816.003906 607.023438 816.003906 Z M 382.222656 873.929688 C 382.394531 869.308594 382.628906 865.414062 383.511719 861.589844 C 389.488281 835.292969 420.710938 822.605469 442.578125 837.914062 C 456.1875 847.441406 461.972656 861.394531 462.46875 877.648438 C 462.554688 880.339844 463.328125 880.8125 465.800781 880.855469 C 485.496094 881.199219 505.191406 881.648438 524.910156 882.144531 C 546.925781 882.703125 568.964844 883.542969 591.007812 883.5 C 594.683594 883.5 598.339844 883.199219 601.972656 882.59375 C 602.917969 882.445312 604.273438 882.421875 604.207031 881.21875 C 604.144531 880.1875 602.875 879.972656 601.886719 879.757812 C 596.273438 878.554688 590.554688 878.101562 584.835938 877.777344 C 559.980469 876.382812 535.121094 875.175781 510.265625 873.800781 C 504.203125 873.457031 498.054688 873.585938 492.117188 872.058594 C 477.324219 868.210938 468.292969 851.871094 466.917969 842.195312 C 466.25 837.570312 467.757812 834.992188 471.929688 832.820312 C 473.605469 831.957031 475.367188 831.335938 477.195312 830.882812 C 481.367188 829.828125 485.625 829.164062 489.902344 828.90625 C 491.988281 828.777344 492.355469 827.9375 492.441406 826.175781 C 492.71875 820.734375 492.589844 815.230469 493.539062 809.832031 C 493.859375 808.003906 493.582031 807.402344 491.644531 807.039062 C 473.195312 803.617188 454.574219 802.09375 435.847656 801.941406 C 419.980469 801.8125 404.195312 803.316406 388.523438 805.703125 C 383.316406 806.5 378.113281 807.382812 372.953125 808.457031 C 369.578125 809.167969 368.867188 810.476562 370.460938 813.058594 C 372.804688 816.863281 373.125 820.929688 372.910156 825.207031 C 372.589844 831.957031 370.007812 838.042969 367.320312 844.105469 C 366.394531 846.191406 365.621094 848.320312 366.074219 850.601562 C 367.988281 860.492188 374.632812 867.113281 382.265625 873.953125 Z M 543.59375 855.460938 C 543.59375 855.308594 543.59375 855.160156 543.617188 855.007812 C 543.960938 854.964844 544.304688 854.902344 544.648438 854.902344 C 557.269531 855.222656 569.871094 856.167969 582.46875 857.007812 C 592.125 857.652344 601.757812 858.511719 611.390625 859.308594 C 612.765625 859.417969 613.605469 859.308594 613.453125 857.546875 C 613.066406 852.902344 612.808594 848.257812 612.507812 843.613281 C 612.402344 841.957031 611.453125 841.097656 610.015625 840.453125 C 605.757812 838.539062 601.304688 837.226562 596.769531 836.257812 C 583.179688 833.378906 569.375 832.171875 555.527344 831.226562 C 535.894531 829.871094 516.351562 830.152344 496.890625 833.464844 C 494.742188 833.828125 494.546875 834.410156 495.148438 836.34375 C 499.042969 848.878906 506.394531 859.417969 514.113281 869.78125 C 515.125 871.15625 516.5 871.113281 517.941406 871.15625 C 547.398438 871.910156 576.859375 872.703125 606.316406 873.457031 C 608.445312 873.523438 611.175781 874.617188 612.53125 873.351562 C 614.011719 871.953125 612.851562 869.09375 613.238281 866.898438 C 613.519531 865.328125 612.851562 864.683594 611.324219 864.425781 C 599.242188 862.449219 587.09375 860.835938 574.945312 859.375 C 564.492188 858.105469 554.042969 856.773438 543.59375 855.480469 Z M 611.023438 833.464844 C 609.992188 828.066406 608.980469 823.035156 606.703125 818.304688 C 605.886719 816.605469 604.765625 816.089844 602.898438 816.132812 C 596.273438 816.242188 589.652344 816.21875 583.007812 816.15625 C 554.152344 815.917969 525.382812 814.777344 497.171875 807.984375 C 495.363281 807.554688 494.933594 808.261719 494.847656 809.769531 C 494.546875 814.414062 494.117188 819.058594 493.945312 823.703125 C 493.753906 829.097656 492.957031 828.175781 498.546875 828.21875 C 499.964844 828.21875 500.742188 827.960938 501.0625 826.304688 C 502.03125 821.144531 503.429688 819.746094 508.632812 819.273438 C 515.019531 818.691406 519.855469 820.324219 520.671875 825.421875 C 521.015625 827.507812 522.070312 827.851562 523.917969 827.808594 C 536.199219 827.464844 548.453125 827.894531 560.730469 828.304688 C 577.4375 828.863281 594.1875 829.378906 611.046875 833.464844 Z M 467.15625 908.03125 L 687.9375 908.03125 C 684.882812 906.097656 681.960938 904.207031 679.273438 901.96875 C 678.410156 901.257812 677.488281 901.300781 676.5 901.300781 C 612.1875 901.429688 547.875 901.066406 483.539062 900.3125 C 482.742188 900.3125 481.925781 900.164062 481.21875 900.699219 C 477.003906 903.730469 472.207031 905.710938 467.15625 908.054688 Z M 665.53125 894.636719 C 665.316406 892.746094 664.390625 891.453125 661.617188 891.367188 C 652.050781 891.066406 642.480469 890.488281 632.914062 889.992188 C 617.625 889.21875 602.316406 888.464844 587.027344 887.671875 C 564.320312 886.488281 541.59375 885.261719 518.886719 884.078125 C 508.609375 883.542969 498.3125 883.089844 488.03125 882.617188 C 480.164062 882.25 472.292969 881.90625 464.421875 881.542969 C 463.476562 881.5 462.46875 881.199219 462.316406 882.769531 C 461.886719 887.21875 460.941406 891.5625 459.371094 896.140625 C 468.015625 895.863281 476.3125 895.605469 484.613281 895.304688 C 485.539062 895.28125 486.378906 894.875 487 894.226562 C 490.074219 891.066406 493.839844 890.550781 498.074219 890.679688 C 527.167969 891.625 556.257812 892.402344 585.351562 893.238281 C 601.648438 893.710938 617.925781 894.292969 634.226562 894.617188 C 644.609375 894.832031 654.972656 894.660156 665.488281 894.660156 Z M 604.703125 814.390625 C 604.144531 813.617188 604.035156 813.378906 603.84375 813.207031 C 592.597656 802.929688 580.835938 793.320312 567.699219 785.515625 C 559.851562 780.847656 551.65625 777.320312 542.453125 776.460938 C 531.1875 775.40625 520.09375 776.613281 509.125 778.976562 C 488.722656 783.386719 469.195312 790.546875 449.78125 797.984375 C 449.351562 798.15625 448.621094 798.050781 448.75 799.015625 C 458.144531 798.929688 467.519531 799.339844 476.808594 800.78125 C 481.476562 801.488281 486.121094 802.523438 490.785156 803.273438 C 491.515625 803.382812 493.128906 804.566406 493.171875 802.542969 C 493.28125 798.800781 493.195312 795.0625 493.195312 791.105469 C 484.65625 792.738281 476.359375 794.328125 468.078125 795.921875 C 468.078125 795.535156 468.164062 795.449219 468.230469 795.449219 C 486.097656 791.105469 503.964844 786.71875 522.113281 783.601562 C 535.765625 781.257812 548.820312 782.523438 561.097656 789.40625 C 572.558594 795.835938 582.835938 803.855469 592.726562 812.414062 C 593.714844 813.273438 594.597656 814.390625 596.125 814.390625 C 598.789062 814.390625 601.457031 814.390625 604.679688 814.390625 Z M 512.761719 870.402344 C 504.824219 859.460938 497.214844 848.6875 493.539062 835.699219 C 493.171875 834.429688 492.460938 834.238281 491.367188 834.644531 C 488.507812 835.679688 485.625 836.601562 483.066406 838.28125 C 479.324219 840.710938 478.507812 842.839844 479.496094 847.117188 C 483.257812 863.371094 495.773438 872.210938 512.761719 870.382812 Z M 703.289062 899.863281 C 718.726562 900.121094 732.058594 887.003906 732.316406 871.351562 C 732.574219 855.160156 719.78125 841.3125 704.363281 841.117188 C 688.390625 840.925781 675.445312 853.890625 675.207031 870.339844 C 674.972656 886.574219 687.355469 899.605469 703.269531 899.863281 Z M 450.191406 871.4375 C 450.339844 869.757812 449.953125 867.824219 449.609375 865.886719 C 446.726562 850 431.570312 839.589844 416.625 843.226562 C 405.078125 846.019531 397.121094 855.695312 395.597656 868.8125 C 393.660156 885.261719 407.011719 900.3125 423.398438 900.164062 C 437.910156 900.035156 450.144531 887.066406 450.210938 871.4375 Z M 651.492188 877.628906 L 651.492188 877.5625 C 648.890625 877.5625 646.308594 877.605469 643.707031 877.5625 C 642.460938 877.542969 641.835938 877.714844 642.375 879.199219 C 643.148438 881.390625 643.730469 883.628906 644.4375 885.84375 C 644.675781 886.574219 644.847656 887.28125 645.964844 887.347656 C 651.234375 887.628906 656.5 887.992188 661.746094 888.402344 C 663.039062 888.507812 663.273438 888.058594 663.015625 886.894531 C 662.457031 884.464844 661.8125 882.035156 661.445312 879.585938 C 661.210938 877.953125 660.5 877.542969 658.972656 877.605469 C 656.480469 877.714844 653.964844 877.628906 651.449219 877.628906 Z M 550.085938 775.710938 C 555.011719 777.257812 559.246094 778.828125 563.183594 781 C 565.785156 782.417969 568.257812 783 571.265625 782.546875 C 577.566406 781.621094 583.953125 781.515625 590.707031 781.34375 C 585.050781 778.847656 557.570312 775.019531 550.085938 775.730469 Z M 626.332031 861.09375 C 624.722656 853.71875 618.164062 844.34375 613.667969 842.902344 C 614.574219 847.699219 614.679688 852.515625 614.832031 857.351562 C 614.851562 858.277344 614.59375 859.523438 615.949219 859.738281 C 619.367188 860.253906 622.808594 860.664062 626.3125 861.113281 Z M 632.613281 874.898438 C 632.460938 873.265625 631.515625 872.402344 630.613281 871.609375 C 626.375 867.867188 621 866.792969 615.777344 865.371094 C 615.496094 865.308594 615.089844 865.414062 614.851562 865.609375 C 614.550781 865.824219 614.617188 873.265625 614.875 873.523438 C 615.390625 874.015625 616.054688 873.824219 616.65625 873.867188 C 619.066406 874.015625 621.453125 874.101562 623.859375 874.253906 C 626.742188 874.445312 629.644531 874.683594 632.613281 874.898438 Z M 803.425781 888.335938 C 805.359375 893.582031 805.984375 894.011719 810.777344 893.023438 C 814.261719 892.316406 817.703125 891.410156 821.140625 890.550781 C 821.894531 890.359375 823.226562 890.53125 823.035156 889.28125 C 822.882812 888.25 821.722656 888.316406 820.820312 888.316406 C 815.121094 888.316406 809.421875 888.316406 803.425781 888.316406 Z M 820.863281 885.734375 C 820.582031 883.863281 819.679688 883.476562 818.324219 883.5 C 812.972656 883.605469 807.617188 883.648438 802.261719 883.777344 C 801.574219 883.777344 800.4375 883.347656 800.261719 884.402344 C 800.132812 885.175781 801.039062 885.734375 801.597656 886.273438 C 802.113281 886.765625 802.738281 886.746094 803.359375 886.703125 C 809.144531 886.378906 814.929688 886.058594 820.863281 885.714844 Z M 502.417969 826.605469 C 506.824219 820.625 516.070312 821.464844 519.363281 826.820312 C 518.929688 822.648438 516.800781 820.777344 512.265625 820.5625 C 505.535156 820.238281 503.429688 821.445312 502.417969 826.605469 Z M 502.417969 826.605469 " fill-opacity="1" fill-rule="nonzero"/></g><path fill="#ffffff" d="M 783.46875 850.019531 C 773.988281 850.191406 765.644531 846.792969 757.734375 842 C 751.691406 838.34375 745.886719 834.34375 740.164062 830.195312 C 739.347656 829.59375 738.058594 829.011719 738.554688 827.742188 C 738.984375 826.648438 740.25 826.992188 741.199219 827.011719 C 759.34375 827.507812 775.300781 833.914062 789.382812 845.203125 C 790.542969 846.128906 792.628906 846.96875 791.878906 848.859375 C 791.234375 850.492188 789.234375 849.933594 787.769531 850 C 786.351562 850.085938 784.910156 850 783.46875 850 Z M 789.46875 847.65625 C 787.105469 845.675781 784.78125 844.625 782.074219 844.257812 C 774.484375 843.246094 767.257812 841.632812 761.28125 836.109375 C 755.992188 831.226562 749.410156 828.839844 741.519531 829.054688 C 756.484375 838.34375 770.117188 849.570312 789.492188 847.65625 Z M 789.46875 847.65625 " fill-opacity="1" fill-rule="nonzero"/><path fill="#ffffff" d="M 646.890625 841.097656 C 652.523438 841.097656 658.652344 840.988281 664.757812 841.160156 C 667.253906 841.226562 669.078125 840.601562 670.972656 838.882812 C 693.636719 818.457031 728.316406 823.789062 743.175781 849.890625 C 747.046875 856.707031 749.003906 865.242188 748.25 872.746094 C 747.238281 869.671875 747.496094 866.8125 747.023438 864.082031 C 743.242188 842.496094 723.285156 826.496094 701.332031 827.484375 C 689.464844 828.023438 679.292969 832.539062 670.714844 840.644531 C 669.078125 842.195312 667.46875 842.882812 665.230469 842.6875 C 659.878906 842.214844 654.523438 841.933594 649.167969 841.546875 C 648.222656 841.484375 647.277344 841.203125 646.867188 841.117188 Z M 646.890625 841.097656 " fill-opacity="1" fill-rule="nonzero"/><path fill="#ffffff" d="M 376.503906 812.347656 C 405.960938 805.210938 435.675781 803.8125 465.671875 808.824219 C 464.101562 810.90625 461.863281 810.757812 459.84375 810.929688 C 452.769531 811.554688 445.71875 810.929688 438.6875 810.242188 C 426.710938 809.039062 414.734375 809.253906 402.757812 810.199219 C 394.648438 810.84375 386.566406 811.703125 378.523438 813.035156 C 377.878906 813.144531 377.191406 813.035156 376.523438 813.035156 C 376.523438 812.800781 376.523438 812.5625 376.523438 812.328125 Z M 376.503906 812.347656 " fill-opacity="1" fill-rule="nonzero"/><path fill="#ffffff" d="M 387.488281 846.75 C 396.027344 834.128906 408.175781 828.003906 423.160156 828.476562 C 439.695312 829.011719 454.769531 839.742188 460.210938 853.867188 C 452.101562 841.054688 441.933594 831.035156 425.890625 829.699219 C 410.046875 828.390625 397.230469 834.214844 387.488281 846.773438 Z M 387.488281 846.75 " fill-opacity="1" fill-rule="nonzero"/><path fill="#ffffff" d="M 678.605469 870.964844 C 678.605469 856.125 690.539062 843.441406 704.472656 843.398438 C 718.082031 843.355469 730.015625 855.933594 730.015625 870.296875 C 730.015625 885.371094 717.953125 898.011719 703.632812 897.882812 C 689.957031 897.777344 678.582031 885.542969 678.605469 870.941406 Z M 708.878906 871.351562 C 708.878906 868.726562 706.515625 866.382812 703.933594 866.425781 C 701.871094 866.46875 699.589844 868.941406 699.613281 871.09375 C 699.65625 873.671875 701.65625 875.714844 704.148438 875.695312 C 706.878906 875.695312 708.859375 873.84375 708.878906 871.328125 Z M 721.953125 868.707031 C 715.953125 873.757812 715.308594 876.746094 718.835938 880.875 C 719.824219 877.046875 720.792969 873.222656 721.953125 868.707031 Z M 707.871094 878.015625 C 707.785156 878.554688 707.613281 878.875 707.699219 879.070312 C 709.78125 883.734375 712.902344 887.777344 715.609375 892.054688 C 715.867188 892.488281 716.234375 892.722656 716.683594 892.335938 C 717.117188 891.96875 716.941406 891.519531 716.683594 891.132812 C 715.480469 889.261719 714.339844 887.347656 713.007812 885.5625 C 711.246094 883.199219 710.191406 880.296875 707.847656 878.039062 Z M 711.203125 868.640625 C 712.125 869.480469 712.578125 869.242188 712.945312 869.070312 C 717.289062 867.222656 721.628906 865.351562 725.972656 863.457031 C 726.296875 863.328125 726.664062 863.136719 726.835938 862.855469 C 726.984375 862.621094 726.898438 862.191406 726.835938 861.890625 C 726.835938 861.804688 726.359375 861.738281 726.1875 861.824219 C 721.285156 864.039062 716.382812 866.277344 711.222656 868.640625 Z M 705.160156 863.480469 C 705.503906 857.867188 705.699219 852.257812 704.449219 846.707031 C 703.675781 852.34375 704.449219 857.910156 705.160156 863.480469 Z M 718.835938 890.765625 C 716.492188 885.714844 713.71875 880.917969 709.890625 876.789062 C 712.125 881.90625 715.460938 886.335938 718.835938 890.765625 Z M 688.519531 890.1875 C 688.796875 890.378906 689.078125 890.574219 689.335938 890.746094 C 692.839844 886.53125 695.699219 881.90625 698.386719 877.15625 C 698.128906 876.984375 697.871094 876.8125 697.632812 876.640625 C 694.601562 881.15625 691.550781 885.671875 688.519531 890.1875 Z M 683.097656 863.695312 C 682.5625 863.71875 682.046875 863.589844 681.917969 864.191406 C 681.808594 864.769531 682.347656 864.921875 682.710938 865.070312 C 686.777344 866.597656 690.839844 868.082031 694.902344 869.542969 C 695.332031 869.695312 695.980469 870.144531 696.257812 869.394531 C 696.539062 868.683594 695.894531 868.535156 695.398438 868.339844 C 693.335938 867.566406 691.25 866.792969 689.183594 865.996094 C 687.121094 865.222656 685.054688 864.40625 683.078125 863.652344 Z M 690.949219 891.863281 C 692.429688 891.863281 692.882812 890.894531 693.421875 890.078125 C 695.269531 887.238281 697.160156 884.445312 698.839844 881.519531 C 699.375 880.574219 701.183594 879.328125 700.148438 878.640625 C 698.796875 877.734375 698.515625 879.972656 697.957031 880.789062 C 695.484375 884.402344 693.269531 888.164062 690.949219 891.863281 Z M 697.980469 866.941406 C 692.839844 864.363281 687.9375 863.15625 683.355469 861.15625 C 682.992188 860.984375 682.605469 861.050781 682.496094 861.460938 C 682.324219 862.210938 682.992188 862.296875 683.441406 862.46875 C 686.839844 863.78125 690.238281 865.09375 693.679688 866.339844 C 694.796875 866.75 695.851562 867.523438 697.980469 866.941406 Z M 726.144531 859.976562 C 725.996094 859.675781 725.867188 859.394531 725.714844 859.09375 C 720.597656 861.09375 715.632812 863.414062 710.902344 866.253906 C 711.007812 866.492188 711.136719 866.726562 711.246094 866.964844 C 716.210938 864.640625 721.179688 862.296875 726.125 859.976562 Z M 702.621094 864.082031 L 702.621094 846.773438 C 702.277344 846.773438 701.933594 846.816406 701.589844 846.835938 C 701.933594 852.363281 701.417969 857.933594 702.621094 864.082031 Z M 702.621094 864.082031 " fill-opacity="1" fill-rule="nonzero"/><path fill="#ffffff" d="M 399.015625 871.457031 C 399.378906 863.265625 402.132812 856.105469 408.453125 850.621094 C 417.507812 842.753906 428.492188 842.625 437.824219 850.128906 C 450.835938 860.621094 451.695312 880.746094 439.117188 891.710938 C 422.773438 905.988281 405.101562 894.636719 400.328125 880.1875 C 399.402344 877.371094 398.90625 874.445312 399.015625 871.4375 Z M 422.429688 876.554688 C 424.796875 876.597656 426.988281 874.53125 427.03125 872.210938 C 427.074219 869.757812 424.945312 867.5 422.515625 867.414062 C 420.214844 867.328125 418.152344 869.414062 418.066406 871.886719 C 418 874.039062 420.324219 876.511719 422.429688 876.554688 Z M 426.730469 878.832031 C 425.785156 879.199219 425.503906 879.371094 425.976562 880.101562 C 428.578125 884.144531 431.074219 888.25 433.632812 892.316406 C 433.890625 892.722656 434.171875 893.433594 434.816406 893.003906 C 435.4375 892.59375 434.945312 892.054688 434.6875 891.625 C 432.300781 887.757812 429.914062 883.886719 427.527344 880.035156 C 427.246094 879.585938 426.945312 879.15625 426.730469 878.832031 Z M 430.085938 869.972656 C 430.363281 870.039062 430.644531 870.210938 430.859375 870.144531 C 435.417969 868.40625 439.953125 866.621094 444.511719 864.855469 C 445.050781 864.640625 445.546875 864.320312 445.136719 863.695312 C 444.726562 863.070312 444.167969 863.542969 443.71875 863.738281 C 439.933594 865.285156 436.148438 866.835938 432.386719 868.425781 C 431.546875 868.769531 430.386719 868.726562 430.085938 869.996094 Z M 436.558594 891.820312 C 436.773438 891.667969 436.964844 891.539062 437.179688 891.390625 C 436.40625 888.808594 430.214844 879.21875 427.828125 878.101562 Z M 423.3125 848.085938 C 422.558594 853.589844 423.054688 859.050781 423.957031 864.492188 C 424.558594 858.988281 424.023438 853.523438 423.3125 848.085938 Z M 401.746094 865.222656 C 405.980469 866.726562 409.980469 868.167969 414 869.5 C 414.476562 869.652344 415.3125 870.640625 415.742188 869.4375 C 416.109375 868.382812 415.054688 868.339844 414.476562 868.125 C 411.121094 866.984375 407.765625 865.84375 404.390625 864.8125 C 403.703125 864.597656 402.863281 864.191406 401.765625 865.222656 Z M 410.496094 892.378906 C 413.980469 889.132812 418.945312 880.554688 418.496094 878.554688 C 415.742188 883.003906 412.839844 887.066406 410.496094 892.378906 Z M 420.945312 864.363281 C 421.097656 864.363281 421.246094 864.339844 421.375 864.320312 L 421.375 847.871094 C 421.226562 847.871094 421.074219 847.914062 420.945312 847.933594 L 420.945312 864.382812 Z M 444.339844 861.546875 C 444.210938 861.246094 444.082031 860.921875 443.953125 860.621094 C 439.09375 862.726562 434.257812 864.8125 429.398438 866.921875 C 429.503906 867.179688 429.613281 867.414062 429.71875 867.671875 C 434.75 866.019531 439.632812 863.953125 444.339844 861.566406 Z M 416.324219 867.09375 C 410.863281 863.847656 404.132812 861.890625 402.410156 862.921875 C 407.207031 864.210938 411.550781 866.382812 416.324219 867.09375 Z M 416.992188 878.058594 C 415.335938 878.167969 415.078125 879.414062 414.476562 880.316406 C 412.625 883.15625 410.882812 886.035156 409.097656 888.917969 C 408.820312 889.367188 408.496094 889.929688 409.011719 890.359375 C 409.464844 890.722656 409.789062 890.292969 410.023438 889.886719 C 412.347656 885.949219 414.667969 881.992188 416.992188 878.058594 Z M 416.992188 878.058594 " fill-opacity="1" fill-rule="nonzero"/><g clip-path="url(#e58a885da4)"><g clip-path="url(#26c78b0ff5)"><g clip-path="url(#92e7be5cea)"><path fill="#ffffff" d="M 449.609375 793.171875 L 547.328125 763.980469 L 553.992188 786.296875 L 456.277344 815.488281 Z M 449.609375 793.171875 " fill-opacity="1" fill-rule="nonzero"/></g></g></g><g clip-path="url(#46b2492d36)"><g clip-path="url(#e5ca679699)"><g clip-path="url(#89d5e31dd3)"><path fill="#ffffff" d="M 431.855469 793.472656 L 610.773438 781.554688 L 611.957031 799.296875 L 433.039062 811.214844 Z M 431.855469 793.472656 " fill-opacity="1" fill-rule="nonzero"/></g></g></g><g clip-path="url(#8637e860ae)"><g clip-path="url(#9bb7b0e5ae)"><g clip-path="url(#4bef8d243c)"><path fill="#ffffff" d="M 537.347656 764.828125 L 617.488281 799.792969 L 609.566406 817.949219 L 529.425781 782.984375 Z M 537.347656 764.828125 " fill-opacity="1" fill-rule="nonzero"/></g></g></g><g clip-path="url(#f172bcb590)"><g clip-path="url(#02c9cb7b3a)"><path fill="#ffffff" d="M 551.171875 798.148438 L 638.605469 798.148438 L 638.605469 817.957031 L 551.171875 817.957031 Z M 551.171875 798.148438 " fill-opacity="1" fill-rule="nonzero"/></g></g><g clip-path="url(#9a7e838e3d)"><g clip-path="url(#a5c150ca26)"><path fill="#ffffff" d="M 550.484375 800.210938 L 637.917969 800.210938 L 637.917969 820.019531 L 550.484375 820.019531 Z M 550.484375 800.210938 " fill-opacity="1" fill-rule="nonzero"/></g></g><g clip-path="url(#319c57e98a)"><g clip-path="url(#653058c85f)"><g clip-path="url(#e196d6579f)"><path fill="#ffffff" d="M 551.769531 763.988281 L 639.023438 802.054688 L 630.738281 821.050781 L 543.484375 782.984375 Z M 551.769531 763.988281 " fill-opacity="1" fill-rule="nonzero"/></g></g></g><g clip-path="url(#15e75e6eb7)"><g clip-path="url(#0f15ca325b)"><g clip-path="url(#89cc9d432c)"><path fill="#ffffff" d="M 816.050781 868.816406 L 787.011719 897.855469 L 771.992188 882.835938 L 801.03125 853.796875 Z M 816.050781 868.816406 " fill-opacity="1" fill-rule="nonzero"/></g></g></g><g clip-path="url(#9b5bbfe88d)"><g clip-path="url(#d2d0512d7e)"><g clip-path="url(#f6be590c7e)"><path fill="#ffffff" d="M 789.976562 851.894531 L 751.453125 837.789062 L 754.03125 830.75 L 792.550781 844.855469 Z M 789.976562 851.894531 " fill-opacity="1" fill-rule="nonzero"/></g></g></g><g clip-path="url(#268bfefb48)"><g clip-path="url(#62dc6c9f9a)"><g clip-path="url(#66100ca2f1)"><path fill="#ffffff" d="M 777.085938 849.613281 L 738.695312 830.980469 L 740.839844 826.5625 L 779.230469 845.199219 Z M 777.085938 849.613281 " fill-opacity="1" fill-rule="nonzero"/></g></g></g><g clip-path="url(#364a7bdf5d)"><g clip-path="url(#9be3060829)"><g clip-path="url(#556f64e04e)"><path fill="#ffffff" d="M 779.234375 820.570312 L 778.230469 827.597656 L 749.953125 823.558594 L 750.957031 816.53125 Z M 779.234375 820.570312 " fill-opacity="1" fill-rule="nonzero"/></g></g></g><g clip-path="url(#6e8f28983a)"><g clip-path="url(#9fabb88e36)"><g clip-path="url(#7079be383e)"><path fill="#ffffff" d="M 795.460938 861.371094 L 824.542969 858.386719 L 826.027344 872.84375 L 796.945312 875.828125 Z M 795.460938 861.371094 " fill-opacity="1" fill-rule="nonzero"/></g></g></g><g clip-path="url(#025a2fca51)"><g clip-path="url(#deac15bba4)"><g clip-path="url(#b688012fc7)"><path fill="#ffffff" d="M 763.800781 829.566406 L 762.796875 836.59375 L 741.769531 833.589844 L 742.773438 826.5625 Z M 763.800781 829.566406 " fill-opacity="1" fill-rule="nonzero"/></g></g></g><path fill="#000000" d="M 747.226562 911.53125 C 762.042969 912.324219 776.878906 912.429688 792.253906 913.804688 C 790.320312 914.875 788.726562 914.746094 787.199219 914.789062 C 744.410156 916.25 701.59375 916.976562 658.757812 916.933594 C 590.765625 916.871094 522.769531 917.019531 454.753906 916.722656 C 425.554688 916.59375 396.351562 916.011719 367.171875 914.855469 C 366.160156 914.8125 365.085938 914.984375 364.203125 914.148438 C 378.976562 912.925781 393.75 912.175781 408.566406 911.980469 C 408.695312 910.972656 407.8125 911.144531 407.339844 910.910156 C 400.566406 907.800781 395.210938 903.058594 391.191406 896.839844 C 390.417969 895.636719 389.46875 894.929688 388.136719 894.457031 C 381.148438 891.992188 374.332031 889.074219 367.6875 885.75 C 366.417969 885.109375 365.128906 884.464844 363.945312 883.691406 C 362.246094 882.597656 359.96875 881.699219 360.03125 879.316406 C 360.117188 876.851562 362.613281 876.613281 364.355469 875.90625 C 366.65625 874.964844 367.042969 873.527344 365.945312 871.46875 C 365.085938 869.902344 364.226562 868.335938 363.320312 866.8125 C 357.496094 856.96875 357.582031 846.824219 361.773438 836.488281 C 363.34375 832.582031 365.171875 828.808594 367.492188 825.3125 C 368.441406 823.898438 368.570312 822.804688 367.277344 821.625 C 366.761719 821.152344 366.375 820.53125 365.945312 819.949219 C 362.355469 815.082031 364.011719 810.234375 369.878906 808.648438 C 374.289062 807.46875 378.867188 807.125 383.382812 806.503906 C 398.652344 804.402344 414.027344 803.652344 429.402344 802.855469 C 431.984375 802.726562 434.261719 801.699219 436.5625 800.796875 C 457.875 792.390625 479.546875 785.226562 501.871094 779.953125 C 519.761719 775.726562 537.714844 774.566406 555.972656 776.285156 C 570.316406 777.636719 584.660156 778.921875 598.570312 782.910156 C 611.429688 786.601562 623.300781 792.691406 635.363281 798.308594 C 647.511719 803.972656 659.46875 810.042969 671.230469 816.453125 C 672.480469 817.140625 673.703125 817.3125 675.082031 817.269531 C 691.207031 816.820312 707.335938 816.496094 723.441406 817.207031 C 746.96875 818.234375 770.105469 821.410156 792.015625 830.652344 C 803.78125 835.628906 814.726562 841.976562 824.316406 850.492188 C 825.90625 851.90625 827.5 853.386719 828.9375 854.972656 C 831.691406 858.019531 832.445312 861.558594 830.851562 865.417969 C 829.800781 867.972656 828.550781 870.4375 827.433594 872.945312 C 824.703125 879.015625 823.863281 884.828125 828.9375 890.339844 C 831.238281 892.851562 830.464844 895.488281 827.261719 897.417969 C 823.519531 899.648438 819.285156 900.507812 815.089844 901.363281 C 805.328125 903.378906 795.414062 904.046875 785.480469 904.539062 C 777.4375 904.945312 769.375 905.054688 761.308594 905.246094 C 759.460938 905.289062 757.871094 905.695312 756.320312 906.789062 C 753.546875 908.765625 750.34375 909.964844 747.183594 911.507812 Z M 607.066406 820.101562 C 610.226562 825.3125 611.28125 830.71875 612.3125 836.121094 C 612.589844 837.558594 613.214844 838.203125 614.527344 838.695312 C 623.363281 841.957031 629.730469 847.917969 633.492188 856.5625 C 636.523438 863.53125 638.695312 870.800781 640.890625 878.050781 C 641.277344 879.382812 641.792969 879.980469 643.234375 879.980469 C 648.523438 879.980469 653.8125 880.046875 659.082031 880.21875 C 660.695312 880.261719 661.039062 879.636719 660.972656 878.179688 C 660.867188 875.777344 661.039062 873.375 661.339844 870.972656 C 663.578125 853.429688 672.953125 841.375 689.683594 835.714844 C 706.238281 830.09375 721.097656 834.148438 733.25 846.417969 C 744.367188 857.65625 747.203125 871.746094 745.03125 887.039062 C 744.34375 891.886719 742.753906 896.515625 740.96875 901.257812 C 741.65625 901.320312 742.085938 901.386719 742.515625 901.386719 C 753.632812 901.515625 764.730469 901.191406 775.824219 900.699219 C 783.417969 900.378906 791.007812 899.691406 798.554688 898.597656 C 799.585938 898.449219 801.371094 898.707031 800.878906 896.582031 C 800.488281 894.929688 801.242188 892.65625 798.167969 892.699219 C 794.683594 892.742188 791.179688 892.484375 787.695312 892.269531 C 784.664062 892.078125 781.652344 891.714844 778.855469 890.296875 C 775.4375 888.5625 774.46875 886.628906 775.136719 882.921875 C 775.589844 880.367188 776.425781 877.921875 777.308594 875.5 C 780.082031 867.734375 785.695312 864.132812 793.824219 863.832031 C 801.972656 863.53125 810.125 863.875 818.273438 863.917969 C 819.15625 863.917969 820.207031 863.703125 820.898438 864.734375 C 819.671875 865.269531 818.425781 865.375 817.175781 865.460938 C 810.039062 865.933594 802.875 866.210938 795.757812 867.050781 C 787.414062 868.035156 778.878906 877.109375 778.664062 885.472656 C 778.640625 886.652344 779.289062 887.230469 780.210938 887.703125 C 781.460938 888.347656 781.847656 887.382812 782.253906 886.652344 C 783.824219 883.863281 785.265625 880.988281 786.878906 878.203125 C 788.8125 874.855469 791.628906 872.839844 795.609375 872.28125 C 802.167969 871.359375 808.789062 870.929688 815.371094 870.375 C 822.769531 869.75 821.5 870.714844 824.230469 863.253906 C 824.316406 862.996094 824.316406 862.714844 824.402344 862.460938 C 825.328125 859.84375 824.488281 857.742188 822.464844 856.003906 C 819.691406 853.601562 817.027344 851.070312 814.125 848.839844 C 798.617188 836.957031 780.921875 829.835938 762.085938 825.226562 C 758.75 824.410156 755.375 823.746094 752 823.015625 C 754.878906 824.433594 757.847656 825.375 760.773438 826.40625 C 775.460938 831.554688 788.769531 838.996094 799.824219 850.085938 C 801.542969 851.820312 803.179688 853.6875 804.125 856.476562 C 802.726562 855.167969 801.671875 854.117188 800.554688 853.152344 C 790.320312 844.292969 778.597656 837.859375 766.148438 832.734375 C 745.160156 824.089844 723.121094 821.042969 700.628906 820.550781 C 671.875 819.929688 643.125 819.671875 614.355469 820.101562 C 612.054688 820.144531 609.753906 820.101562 607.042969 820.101562 Z M 382.222656 877.878906 C 382.394531 873.269531 382.632812 869.386719 383.515625 865.570312 C 389.492188 839.339844 420.714844 826.683594 442.585938 841.957031 C 456.195312 851.457031 461.980469 865.375 462.476562 881.589844 C 462.5625 884.269531 463.335938 884.742188 465.808594 884.785156 C 485.503906 885.128906 505.203125 885.578125 524.921875 886.074219 C 546.941406 886.628906 568.980469 887.464844 591.023438 887.425781 C 594.699219 887.425781 598.355469 887.125 601.988281 886.523438 C 602.9375 886.371094 604.292969 886.351562 604.226562 885.152344 C 604.160156 884.121094 602.894531 883.90625 601.902344 883.691406 C 596.292969 882.492188 590.570312 882.039062 584.851562 881.71875 C 559.992188 880.324219 535.136719 879.125 510.277344 877.75 C 504.214844 877.40625 498.0625 877.535156 492.128906 876.015625 C 477.332031 872.175781 468.300781 855.875 466.925781 846.222656 C 466.257812 841.613281 467.765625 839.039062 471.9375 836.871094 C 473.613281 836.015625 475.378906 835.394531 477.203125 834.941406 C 481.375 833.890625 485.632812 833.226562 489.914062 832.96875 C 492 832.839844 492.363281 832.003906 492.449219 830.246094 C 492.730469 824.820312 492.601562 819.328125 493.546875 813.945312 C 493.871094 812.121094 493.589844 811.523438 491.65625 811.15625 C 473.207031 807.746094 454.582031 806.222656 435.851562 806.074219 C 419.984375 805.945312 404.199219 807.445312 388.523438 809.828125 C 383.320312 810.621094 378.117188 811.5 372.957031 812.574219 C 369.578125 813.28125 368.871094 814.589844 370.460938 817.164062 C 372.804688 820.957031 373.128906 825.011719 372.914062 829.28125 C 372.589844 836.015625 370.007812 842.085938 367.320312 848.132812 C 366.398438 850.210938 365.621094 852.335938 366.074219 854.609375 C 367.988281 864.476562 374.632812 871.082031 382.265625 877.902344 Z M 543.609375 859.457031 C 543.609375 859.304688 543.609375 859.15625 543.628906 859.007812 C 543.972656 858.964844 544.316406 858.898438 544.660156 858.898438 C 557.285156 859.21875 569.886719 860.164062 582.488281 861 C 592.140625 861.644531 601.773438 862.503906 611.410156 863.296875 C 612.785156 863.402344 613.625 863.296875 613.472656 861.535156 C 613.085938 856.90625 612.828125 852.273438 612.527344 847.640625 C 612.417969 845.988281 611.472656 845.128906 610.03125 844.484375 C 605.773438 842.578125 601.324219 841.269531 596.785156 840.304688 C 583.195312 837.429688 569.390625 836.230469 555.542969 835.285156 C 535.910156 833.933594 516.363281 834.214844 496.902344 837.515625 C 494.75 837.878906 494.558594 838.460938 495.160156 840.390625 C 499.050781 852.894531 506.40625 863.402344 514.125 873.742188 C 515.136719 875.113281 516.511719 875.070312 517.953125 875.113281 C 547.414062 875.863281 576.875 876.65625 606.332031 877.40625 C 608.460938 877.472656 611.195312 878.566406 612.546875 877.300781 C 614.03125 875.90625 612.871094 873.054688 613.257812 870.867188 C 613.539062 869.300781 612.871094 868.65625 611.34375 868.398438 C 599.257812 866.425781 587.109375 864.820312 574.960938 863.359375 C 564.507812 862.09375 554.058594 860.765625 543.609375 859.476562 Z M 611.042969 837.515625 C 610.011719 832.132812 609 827.113281 606.722656 822.394531 C 605.902344 820.703125 604.785156 820.1875 602.914062 820.230469 C 596.292969 820.335938 589.667969 820.316406 583.023438 820.25 C 554.167969 820.015625 525.394531 818.878906 497.183594 812.101562 C 495.375 811.671875 494.945312 812.378906 494.859375 813.882812 C 494.558594 818.511719 494.128906 823.144531 493.957031 827.777344 C 493.761719 833.164062 492.96875 832.238281 498.558594 832.28125 C 499.976562 832.28125 500.75 832.027344 501.074219 830.375 C 502.042969 825.226562 503.4375 823.832031 508.644531 823.359375 C 515.03125 822.78125 519.867188 824.410156 520.683594 829.496094 C 521.027344 831.574219 522.082031 831.917969 523.933594 831.875 C 536.210938 831.53125 548.46875 831.960938 560.746094 832.367188 C 577.453125 832.925781 594.207031 833.441406 611.066406 837.515625 Z M 467.164062 911.894531 L 687.960938 911.894531 C 684.90625 909.964844 681.984375 908.078125 679.296875 905.847656 C 678.433594 905.140625 677.511719 905.183594 676.523438 905.183594 C 612.203125 905.3125 547.886719 904.945312 483.546875 904.195312 C 482.753906 904.195312 481.9375 904.046875 481.226562 904.582031 C 477.011719 907.605469 472.214844 909.578125 467.164062 911.917969 Z M 665.554688 898.535156 C 665.339844 896.644531 664.414062 895.359375 661.640625 895.273438 C 652.070312 894.972656 642.503906 894.394531 632.933594 893.902344 C 617.644531 893.128906 602.335938 892.378906 587.046875 891.585938 C 564.335938 890.40625 541.609375 889.183594 518.898438 888.003906 C 508.621094 887.464844 498.320312 887.015625 488.042969 886.542969 C 480.171875 886.179688 472.300781 885.835938 464.433594 885.472656 C 463.484375 885.429688 462.476562 885.128906 462.324219 886.695312 C 461.894531 891.132812 460.949219 895.464844 459.378906 900.035156 C 468.023438 899.757812 476.324219 899.5 484.625 899.199219 C 485.546875 899.175781 486.386719 898.769531 487.011719 898.125 C 490.085938 894.972656 493.847656 894.457031 498.085938 894.585938 C 527.179688 895.53125 556.273438 896.304688 585.367188 897.140625 C 601.667969 897.613281 617.945312 898.191406 634.246094 898.511719 C 644.632812 898.726562 654.996094 898.554688 665.511719 898.554688 Z M 604.722656 818.492188 C 604.160156 817.71875 604.054688 817.484375 603.859375 817.3125 C 592.613281 807.0625 580.851562 797.472656 567.714844 789.6875 C 559.863281 785.035156 551.671875 781.515625 542.46875 780.660156 C 531.199219 779.609375 520.105469 780.808594 509.136719 783.167969 C 488.730469 787.566406 469.207031 794.707031 449.789062 802.128906 C 449.359375 802.300781 448.625 802.191406 448.753906 803.15625 C 458.152344 803.070312 467.527344 803.480469 476.816406 804.917969 C 481.484375 805.625 486.128906 806.652344 490.796875 807.402344 C 491.527344 807.511719 493.140625 808.691406 493.183594 806.675781 C 493.289062 802.941406 493.203125 799.210938 493.203125 795.265625 C 484.667969 796.894531 476.367188 798.480469 468.085938 800.070312 C 468.085938 799.683594 468.171875 799.597656 468.238281 799.597656 C 486.105469 795.265625 503.976562 790.890625 522.125 787.78125 C 535.78125 785.441406 548.832031 786.707031 561.113281 793.570312 C 572.574219 799.984375 582.851562 807.984375 592.742188 816.519531 C 593.734375 817.375 594.613281 818.492188 596.140625 818.492188 C 598.808594 818.492188 601.472656 818.492188 604.699219 818.492188 Z M 512.773438 874.363281 C 504.835938 863.445312 497.226562 852.699219 493.546875 839.746094 C 493.183594 838.480469 492.472656 838.289062 491.375 838.695312 C 488.515625 839.726562 485.632812 840.648438 483.074219 842.320312 C 479.332031 844.742188 478.515625 846.867188 479.503906 851.136719 C 483.269531 867.347656 495.785156 876.164062 512.773438 874.339844 Z M 703.316406 903.746094 C 718.753906 904.003906 732.085938 890.917969 732.34375 875.304688 C 732.601562 859.15625 719.808594 845.34375 704.390625 845.152344 C 688.414062 844.957031 675.46875 857.890625 675.230469 874.296875 C 674.996094 890.492188 687.382812 903.488281 703.292969 903.746094 Z M 450.195312 875.390625 C 450.347656 873.71875 449.960938 871.789062 449.617188 869.859375 C 446.734375 854.007812 431.574219 843.628906 416.628906 847.253906 C 405.082031 850.042969 397.125 859.691406 395.597656 872.773438 C 393.664062 889.183594 407.015625 904.195312 423.402344 904.046875 C 437.917969 903.917969 450.152344 890.984375 450.21875 875.390625 Z M 651.511719 881.570312 L 651.511719 881.503906 C 648.910156 881.503906 646.332031 881.546875 643.730469 881.503906 C 642.480469 881.484375 641.859375 881.65625 642.394531 883.132812 C 643.167969 885.320312 643.75 887.550781 644.460938 889.761719 C 644.695312 890.492188 644.867188 891.199219 645.988281 891.261719 C 651.253906 891.542969 656.523438 891.90625 661.769531 892.3125 C 663.058594 892.421875 663.296875 891.96875 663.039062 890.8125 C 662.480469 888.390625 661.835938 885.964844 661.46875 883.519531 C 661.234375 881.890625 660.523438 881.484375 658.996094 881.546875 C 656.5 881.65625 653.984375 881.570312 651.46875 881.570312 Z M 550.101562 779.910156 C 555.027344 781.453125 559.261719 783.019531 563.199219 785.183594 C 565.800781 786.601562 568.273438 787.179688 571.28125 786.730469 C 577.582031 785.804688 583.96875 785.699219 590.722656 785.527344 C 585.066406 783.039062 557.585938 779.222656 550.101562 779.929688 Z M 626.355469 865.074219 C 624.742188 857.71875 618.183594 848.367188 613.6875 846.929688 C 614.589844 851.714844 614.699219 856.519531 614.847656 861.34375 C 614.871094 862.265625 614.613281 863.511719 615.96875 863.722656 C 619.386719 864.238281 622.828125 864.648438 626.332031 865.097656 Z M 632.632812 878.84375 C 632.480469 877.214844 631.535156 876.355469 630.632812 875.5625 C 626.398438 871.832031 621.019531 870.757812 615.796875 869.34375 C 615.515625 869.28125 615.105469 869.386719 614.871094 869.578125 C 614.570312 869.792969 614.632812 877.214844 614.890625 877.472656 C 615.410156 877.964844 616.074219 877.773438 616.675781 877.816406 C 619.085938 877.964844 621.472656 878.050781 623.882812 878.203125 C 626.761719 878.394531 629.664062 878.628906 632.632812 878.84375 Z M 803.457031 892.25 C 805.394531 897.484375 806.015625 897.910156 810.8125 896.925781 C 814.296875 896.21875 817.734375 895.316406 821.175781 894.457031 C 821.929688 894.265625 823.261719 894.4375 823.070312 893.191406 C 822.917969 892.164062 821.757812 892.226562 820.855469 892.226562 C 815.15625 892.226562 809.457031 892.226562 803.457031 892.226562 Z M 820.898438 889.65625 C 820.617188 887.789062 819.714844 887.402344 818.359375 887.425781 C 813.003906 887.53125 807.652344 887.574219 802.296875 887.703125 C 801.609375 887.703125 800.46875 887.273438 800.296875 888.324219 C 800.167969 889.097656 801.070312 889.65625 801.628906 890.191406 C 802.144531 890.683594 802.769531 890.664062 803.394531 890.621094 C 809.175781 890.296875 814.960938 889.976562 820.898438 889.632812 Z M 502.429688 830.675781 C 506.835938 824.710938 516.082031 825.546875 519.375 830.890625 C 518.941406 826.726562 516.8125 824.863281 512.277344 824.648438 C 505.546875 824.324219 503.4375 825.527344 502.429688 830.675781 Z M 502.429688 830.675781 " fill-opacity="1" fill-rule="nonzero"/><path fill="#000000" d="M 783.503906 854.03125 C 774.019531 854.203125 765.675781 850.8125 757.761719 846.03125 C 751.71875 842.382812 745.914062 838.394531 740.195312 834.257812 C 739.375 833.65625 738.085938 833.078125 738.582031 831.8125 C 739.011719 830.71875 740.28125 831.058594 741.226562 831.082031 C 759.375 831.574219 775.332031 837.964844 789.414062 849.226562 C 790.578125 850.148438 792.664062 850.984375 791.910156 852.871094 C 791.265625 854.503906 789.265625 853.945312 787.804688 854.007812 C 786.382812 854.09375 784.941406 854.007812 783.503906 854.007812 Z M 789.5 851.671875 C 787.136719 849.699219 784.8125 848.648438 782.105469 848.28125 C 774.511719 847.273438 767.289062 845.664062 761.308594 840.152344 C 756.019531 835.285156 749.441406 832.90625 741.546875 833.121094 C 756.515625 842.382812 770.148438 853.578125 789.523438 851.671875 Z M 789.5 851.671875 " fill-opacity="1" fill-rule="nonzero"/><path fill="#000000" d="M 646.910156 845.128906 C 652.546875 845.128906 658.671875 845.023438 664.78125 845.195312 C 667.273438 845.257812 669.101562 844.636719 670.996094 842.921875 C 693.660156 822.546875 728.34375 827.863281 743.203125 853.902344 C 747.074219 860.699219 749.03125 869.214844 748.277344 876.699219 C 747.269531 873.632812 747.527344 870.78125 747.054688 868.058594 C 743.269531 846.523438 723.3125 830.566406 701.359375 831.554688 C 689.488281 832.089844 679.316406 836.59375 670.738281 844.679688 C 669.101562 846.222656 667.488281 846.910156 665.253906 846.71875 C 659.898438 846.246094 654.546875 845.964844 649.191406 845.582031 C 648.246094 845.515625 647.296875 845.238281 646.890625 845.152344 Z M 646.910156 845.128906 " fill-opacity="1" fill-rule="nonzero"/><path fill="#000000" d="M 376.503906 816.453125 C 405.964844 809.335938 435.679688 807.941406 465.679688 812.9375 C 464.109375 815.019531 461.871094 814.867188 459.851562 815.039062 C 452.777344 815.660156 445.722656 815.039062 438.691406 814.351562 C 426.714844 813.152344 414.738281 813.367188 402.757812 814.308594 C 394.652344 814.953125 386.566406 815.8125 378.523438 817.140625 C 377.878906 817.25 377.191406 817.140625 376.523438 817.140625 C 376.523438 816.90625 376.523438 816.667969 376.523438 816.433594 Z M 376.503906 816.453125 " fill-opacity="1" fill-rule="nonzero"/><path fill="#000000" d="M 387.492188 850.769531 C 396.027344 838.179688 408.179688 832.066406 423.167969 832.539062 C 439.703125 833.078125 454.777344 843.777344 460.21875 857.871094 C 452.109375 845.085938 441.9375 835.09375 425.898438 833.761719 C 410.050781 832.453125 397.234375 838.265625 387.492188 850.792969 Z M 387.492188 850.769531 " fill-opacity="1" fill-rule="nonzero"/><path fill="#000000" d="M 678.628906 874.921875 C 678.628906 860.121094 690.5625 847.46875 704.496094 847.425781 C 718.109375 847.382812 730.042969 859.929688 730.042969 874.253906 C 730.042969 889.289062 717.980469 901.902344 703.660156 901.773438 C 689.984375 901.664062 678.609375 889.460938 678.628906 874.898438 Z M 708.90625 875.304688 C 708.90625 872.691406 706.539062 870.351562 703.960938 870.394531 C 701.894531 870.4375 699.617188 872.902344 699.636719 875.046875 C 699.679688 877.621094 701.679688 879.660156 704.175781 879.636719 C 706.90625 879.636719 708.882812 877.792969 708.90625 875.285156 Z M 721.980469 872.667969 C 715.980469 877.707031 715.335938 880.6875 718.863281 884.808594 C 719.851562 880.988281 720.820312 877.171875 721.980469 872.667969 Z M 707.894531 881.953125 C 707.808594 882.492188 707.636719 882.8125 707.722656 883.003906 C 709.808594 887.660156 712.925781 891.691406 715.636719 895.960938 C 715.894531 896.390625 716.261719 896.625 716.710938 896.238281 C 717.140625 895.875 716.96875 895.421875 716.710938 895.039062 C 715.507812 893.171875 714.367188 891.261719 713.035156 889.484375 C 711.269531 887.125 710.21875 884.226562 707.875 881.976562 Z M 711.226562 872.605469 C 712.152344 873.441406 712.605469 873.203125 712.96875 873.03125 C 717.3125 871.1875 721.65625 869.324219 726 867.433594 C 726.324219 867.304688 726.691406 867.113281 726.863281 866.835938 C 727.011719 866.597656 726.925781 866.167969 726.863281 865.871094 C 726.863281 865.785156 726.386719 865.71875 726.214844 865.804688 C 721.3125 868.015625 716.410156 870.246094 711.25 872.605469 Z M 705.1875 867.457031 C 705.53125 861.859375 705.722656 856.261719 704.476562 850.726562 C 703.703125 856.347656 704.476562 861.902344 705.1875 867.457031 Z M 718.863281 894.671875 C 716.519531 889.632812 713.746094 884.851562 709.917969 880.730469 C 712.152344 885.835938 715.484375 890.253906 718.863281 894.671875 Z M 688.542969 894.09375 C 688.820312 894.285156 689.101562 894.480469 689.359375 894.652344 C 692.863281 890.449219 695.722656 885.835938 698.414062 881.097656 C 698.15625 880.925781 697.894531 880.753906 697.660156 880.582031 C 694.628906 885.085938 691.574219 889.589844 688.542969 894.09375 Z M 683.125 867.671875 C 682.585938 867.691406 682.070312 867.5625 681.941406 868.164062 C 681.832031 868.742188 682.371094 868.894531 682.734375 869.042969 C 686.800781 870.566406 690.863281 872.046875 694.929688 873.503906 C 695.359375 873.65625 696.003906 874.105469 696.285156 873.355469 C 696.5625 872.648438 695.917969 872.496094 695.421875 872.304688 C 693.359375 871.53125 691.273438 870.757812 689.207031 869.964844 C 687.144531 869.195312 685.082031 868.378906 683.101562 867.628906 Z M 690.972656 895.765625 C 692.457031 895.765625 692.90625 894.800781 693.445312 893.988281 C 695.292969 891.15625 697.1875 888.367188 698.863281 885.449219 C 699.402344 884.507812 701.207031 883.261719 700.175781 882.578125 C 698.820312 881.675781 698.542969 883.90625 697.980469 884.722656 C 695.507812 888.324219 693.292969 892.078125 690.972656 895.765625 Z M 698.003906 870.910156 C 692.863281 868.335938 687.960938 867.132812 683.382812 865.140625 C 683.015625 864.96875 682.628906 865.03125 682.519531 865.441406 C 682.347656 866.191406 683.015625 866.277344 683.46875 866.449219 C 686.863281 867.757812 690.261719 869.066406 693.703125 870.308594 C 694.820312 870.714844 695.875 871.488281 698.003906 870.910156 Z M 726.171875 863.960938 C 726.023438 863.660156 725.894531 863.382812 725.742188 863.082031 C 720.625 865.074219 715.660156 867.390625 710.925781 870.222656 C 711.035156 870.460938 711.164062 870.695312 711.273438 870.929688 C 716.238281 868.613281 721.207031 866.277344 726.152344 863.960938 Z M 702.648438 868.058594 L 702.648438 850.792969 C 702.304688 850.792969 701.960938 850.835938 701.617188 850.855469 C 701.960938 856.367188 701.445312 861.921875 702.648438 868.058594 Z M 702.648438 868.058594 " fill-opacity="1" fill-rule="nonzero"/><path fill="#000000" d="M 399.019531 875.414062 C 399.382812 867.242188 402.136719 860.101562 408.457031 854.632812 C 417.511719 846.78125 428.5 846.652344 437.832031 854.136719 C 450.839844 864.605469 451.703125 884.679688 439.121094 895.617188 C 422.777344 909.859375 405.101562 898.535156 400.328125 884.121094 C 399.40625 881.3125 398.910156 878.394531 399.019531 875.390625 Z M 422.433594 880.496094 C 424.800781 880.539062 426.992188 878.480469 427.035156 876.164062 C 427.078125 873.71875 424.949219 871.46875 422.519531 871.382812 C 420.21875 871.296875 418.15625 873.375 418.070312 875.84375 C 418.003906 877.988281 420.328125 880.453125 422.433594 880.496094 Z M 426.734375 882.769531 C 425.789062 883.132812 425.511719 883.304688 425.984375 884.035156 C 428.585938 888.066406 431.078125 892.164062 433.636719 896.21875 C 433.898438 896.625 434.175781 897.332031 434.820312 896.902344 C 435.445312 896.496094 434.949219 895.960938 434.691406 895.53125 C 432.304688 891.671875 429.917969 887.808594 427.53125 883.972656 C 427.253906 883.519531 426.949219 883.089844 426.734375 882.769531 Z M 430.089844 873.933594 C 430.371094 873.996094 430.648438 874.167969 430.863281 874.105469 C 435.421875 872.367188 439.960938 870.585938 444.519531 868.828125 C 445.058594 868.613281 445.550781 868.292969 445.144531 867.671875 C 444.734375 867.050781 444.175781 867.519531 443.722656 867.714844 C 439.9375 869.257812 436.15625 870.800781 432.390625 872.390625 C 431.550781 872.734375 430.390625 872.691406 430.089844 873.953125 Z M 436.5625 895.722656 C 436.777344 895.574219 436.972656 895.445312 437.1875 895.296875 C 436.414062 892.722656 430.21875 883.15625 427.832031 882.039062 Z M 423.316406 852.101562 C 422.5625 857.589844 423.058594 863.039062 423.960938 868.464844 C 424.5625 862.972656 424.027344 857.527344 423.316406 852.101562 Z M 401.75 869.195312 C 405.984375 870.695312 409.984375 872.132812 414.003906 873.460938 C 414.480469 873.613281 415.316406 874.597656 415.746094 873.398438 C 416.113281 872.347656 415.058594 872.304688 414.480469 872.089844 C 411.125 870.953125 407.769531 869.816406 404.394531 868.785156 C 403.707031 868.570312 402.867188 868.164062 401.769531 869.195312 Z M 410.5 896.28125 C 413.984375 893.042969 418.953125 884.484375 418.5 882.492188 C 415.746094 886.929688 412.84375 890.984375 410.5 896.28125 Z M 420.953125 868.335938 C 421.101562 868.335938 421.253906 868.3125 421.382812 868.292969 L 421.382812 851.886719 C 421.230469 851.886719 421.082031 851.929688 420.953125 851.949219 L 420.953125 868.355469 Z M 444.347656 865.527344 C 444.21875 865.226562 444.089844 864.902344 443.960938 864.605469 C 439.101562 866.707031 434.261719 868.785156 429.402344 870.886719 C 429.511719 871.144531 429.617188 871.382812 429.726562 871.640625 C 434.757812 869.988281 439.636719 867.929688 444.347656 865.546875 Z M 416.328125 871.058594 C 410.867188 867.820312 404.136719 865.871094 402.414062 866.898438 C 407.210938 868.1875 411.554688 870.351562 416.328125 871.058594 Z M 416.996094 881.996094 C 415.339844 882.105469 415.082031 883.347656 414.480469 884.25 C 412.628906 887.082031 410.886719 889.953125 409.101562 892.828125 C 408.824219 893.277344 408.5 893.835938 409.015625 894.265625 C 409.46875 894.628906 409.792969 894.203125 410.027344 893.792969 C 412.351562 889.867188 414.671875 885.921875 416.996094 881.996094 Z M 416.996094 881.996094 " fill-opacity="1" fill-rule="nonzero"/><g fill="#ffffff" fill-opacity="1"><g transform="translate(464.439566, 762.31117)"><g><path d="M 11.359375 -33.296875 L 12.21875 -34.3125 L 21.953125 -26.140625 L 1.71875 -2.046875 L 0.6875 -2.90625 L 2.84375 -5.484375 L -23.8125 -27.875 L -25.96875 -25.296875 L -27 -26.15625 L -15.796875 -39.5 L -14.765625 -38.640625 L -17.359375 -35.546875 L 9.296875 -13.15625 L 13.609375 -18.296875 C 14.585938 -19.460938 15.3125 -20.5 15.78125 -21.40625 C 16.25 -22.320312 16.554688 -23.421875 16.703125 -24.703125 C 16.992188 -27.191406 15.210938 -30.054688 11.359375 -33.296875 Z M 11.359375 -33.296875 "/></g></g></g><g fill="#ffffff" fill-opacity="1"><g transform="translate(490.308706, 731.970327)"><g><path d="M 20.9375 -34.0625 C 27.445312 -24.507812 26.679688 -16.988281 18.640625 -11.5 C 14.179688 -8.46875 9.921875 -7.238281 5.859375 -7.8125 C 1.796875 -8.382812 -1.804688 -10.976562 -4.953125 -15.59375 L -16.5 -32.515625 L -19.265625 -30.625 L -20.015625 -31.734375 L -5.640625 -41.546875 L -4.890625 -40.4375 L -7.640625 -38.5625 L 4.3125 -21.03125 C 9.570312 -13.320312 14.773438 -11.222656 19.921875 -14.734375 C 22.035156 -16.171875 23.238281 -18.507812 23.53125 -21.75 C 23.820312 -25 22.75 -28.414062 20.3125 -32 L 8.390625 -49.484375 L 4.015625 -46.515625 L 3.265625 -47.625 L 11.796875 -53.4375 L 12.546875 -52.328125 L 9.765625 -50.4375 Z M 20.9375 -34.0625 "/></g></g></g><g fill="#ffffff" fill-opacity="1"><g transform="translate(527.981366, 706.995185)"><g><path d="M 38.875 -13.625 L 39.28125 -12.34375 L 21.71875 -6.828125 L 21.3125 -8.109375 L 24.5 -9.109375 L 11.046875 -20.890625 L 6.546875 -3.46875 L 11.734375 -5.09375 L 12.140625 -3.8125 L 0.640625 -0.203125 L 0.234375 -1.484375 L 4.828125 -2.921875 L 9.78125 -22.03125 L -6.125 -35.96875 L -9.5 -34.90625 L -9.90625 -36.1875 L 7.921875 -41.796875 L 8.328125 -40.515625 L 5.375 -39.578125 L 15.78125 -30.421875 L 19.8125 -44.125 L 14.703125 -42.515625 L 14.296875 -43.796875 L 25.796875 -47.40625 L 26.203125 -46.125 L 21.53125 -44.65625 L 16.953125 -29.328125 L 35.8125 -12.671875 Z M 38.875 -13.625 "/></g></g></g><g fill="#ffffff" fill-opacity="1"><g transform="translate(574.115382, 694.773564)"><g><path d="M 4.234375 -38.40625 L 1.8125 -37.8125 C 0.65625 -37.707031 -0.410156 -38.003906 -1.390625 -38.703125 C -2.367188 -39.398438 -2.925781 -40.492188 -3.0625 -41.984375 C -3.195312 -43.472656 -2.820312 -44.769531 -1.9375 -45.875 C -1.050781 -46.976562 0.269531 -47.609375 2.03125 -47.765625 C 3.789062 -47.929688 5.296875 -47.394531 6.546875 -46.15625 C 7.796875 -44.925781 8.515625 -43.253906 8.703125 -41.140625 C 8.890625 -39.035156 8.265625 -36.863281 6.828125 -34.625 C 5.398438 -32.382812 3.226562 -30.441406 0.3125 -28.796875 L -0.25 -29.890625 C 3.726562 -32.578125 5.613281 -35.097656 5.40625 -37.453125 C 5.34375 -38.148438 4.953125 -38.46875 4.234375 -38.40625 Z M 4.234375 -38.40625 "/></g></g></g><g fill="#ffffff" fill-opacity="1"><g transform="translate(593.584513, 692.448214)"><g><path d="M 37.5 -18.40625 L 36.171875 -18.5625 C 36.578125 -22.101562 35.820312 -25.507812 33.90625 -28.78125 C 32 -32.0625 28.9375 -33.941406 24.71875 -34.421875 C 22.375 -34.691406 20.273438 -33.539062 18.421875 -30.96875 C 16.578125 -28.394531 15.269531 -23.78125 14.5 -17.125 C 13.738281 -10.476562 13.960938 -5.691406 15.171875 -2.765625 C 16.390625 0.160156 18.628906 1.8125 21.890625 2.1875 C 25.148438 2.5625 28.015625 1.851562 30.484375 0.0625 C 32.960938 -1.71875 34.6875 -4.441406 35.65625 -8.109375 L 36.96875 -7.953125 C 35.832031 -3.628906 33.910156 -0.535156 31.203125 1.328125 C 28.503906 3.203125 25.453125 3.941406 22.046875 3.546875 C 15.429688 2.785156 10.539062 0.617188 7.375 -2.953125 C 4.21875 -6.523438 3.023438 -11.691406 3.796875 -18.453125 C 4.578125 -25.222656 6.863281 -29.960938 10.65625 -32.671875 C 14.445312 -35.378906 19.179688 -36.40625 24.859375 -35.75 C 27.910156 -35.40625 30.789062 -34.25 33.5 -32.28125 C 34.363281 -31.582031 35.09375 -31.195312 35.6875 -31.125 C 36.289062 -31.0625 36.800781 -31.285156 37.21875 -31.796875 C 37.632812 -32.316406 37.875 -32.84375 37.9375 -33.375 L 39.203125 -33.234375 Z M 37.5 -18.40625 "/></g></g></g><g fill="#ffffff" fill-opacity="1"><g transform="translate(635.583743, 697.573371)"><g><path d="M 39.5 15.390625 L 38.96875 16.625 L 22.78125 9.71875 L 23.3125 8.484375 L 26.953125 10.03125 L 26.46875 -0.265625 L 14.03125 -5.578125 L 6.8125 1.4375 L 11.6875 3.53125 L 11.15625 4.765625 L 0.625 0.265625 L 1.15625 -0.96875 L 5.28125 0.796875 L 33.8125 -27.0625 L 35.34375 -26.40625 L 36.5625 14.140625 Z M 15.140625 -6.640625 L 26.40625 -1.828125 L 25.734375 -16.96875 Z M 15.140625 -6.640625 "/></g></g></g><g fill="#ffffff" fill-opacity="1"><g transform="translate(679.053568, 716.927939)"><g><path d="M 35.171875 -17.515625 L 23.96875 -4.359375 C 27.363281 -1.472656 30.054688 -0.03125 32.046875 -0.03125 C 34.035156 -0.0390625 36.015625 -1.195312 37.984375 -3.5 C 39.960938 -5.8125 40.816406 -8.015625 40.546875 -10.109375 C 40.285156 -12.210938 38.492188 -14.679688 35.171875 -17.515625 Z M 31.3125 27.578125 L 29.0625 25.671875 C 24.8125 22.046875 22.640625 18.601562 22.546875 15.34375 C 22.429688 12.78125 23.132812 10.128906 24.65625 7.390625 C 25.289062 6.234375 25.84375 5.148438 26.3125 4.140625 C 27.332031 1.835938 27.007812 -0.0195312 25.34375 -1.4375 L 23.109375 -3.34375 L 12.59375 8.984375 L 15.140625 11.15625 L 14.265625 12.171875 L 1.53125 1.3125 L 2.40625 0.296875 L 4.953125 2.46875 L 27.53125 -24.03125 L 24.984375 -26.203125 L 25.859375 -27.21875 L 39.265625 -15.796875 C 47.921875 -8.410156 50.09375 -2.1875 45.78125 2.875 C 44.0625 4.882812 41.9375 5.894531 39.40625 5.90625 C 36.882812 5.914062 34.484375 4.953125 32.203125 3.015625 L 31.890625 3.375 C 35.285156 6.257812 35.738281 10.507812 33.25 16.125 C 31.894531 19.070312 31.140625 21.34375 30.984375 22.9375 C 30.828125 24.539062 31.226562 25.742188 32.1875 26.546875 Z M 31.3125 27.578125 "/></g></g></g><g fill="#ffffff" fill-opacity="1"><g transform="translate(714.234544, 748.299362)"><g><path d="M 2.921875 4.484375 L 2.1875 3.359375 L 15.25 -5.15625 L 15.984375 -4.03125 C 12.472656 -1.75 10.304688 1.457031 9.484375 5.59375 C 8.660156 9.726562 9.4375 13.613281 11.8125 17.25 C 12.78125 18.738281 14 19.65625 15.46875 20 C 16.945312 20.34375 18.421875 20.035156 19.890625 19.078125 C 21.535156 18.003906 22.242188 16.023438 22.015625 13.140625 C 21.847656 11.585938 21.484375 8.972656 20.921875 5.296875 C 20.359375 1.617188 20.144531 -1.097656 20.28125 -2.859375 C 20.570312 -6.335938 22.285156 -8.898438 25.421875 -10.546875 C 28.566406 -12.191406 31.582031 -12.570312 34.46875 -11.6875 C 37.351562 -10.8125 39.59375 -9.148438 41.1875 -6.703125 C 42.789062 -4.253906 43.90625 -1.835938 44.53125 0.546875 C 45.15625 2.941406 45.550781 4.269531 45.71875 4.53125 C 46.207031 5.28125 47.109375 5.226562 48.421875 4.375 L 49.15625 5.5 L 38.890625 12.203125 L 38.15625 11.078125 C 40.851562 9.316406 42.40625 6.890625 42.8125 3.796875 C 43.226562 0.703125 42.421875 -2.394531 40.390625 -5.5 C 39.492188 -6.875 38.382812 -7.691406 37.0625 -7.953125 C 35.738281 -8.210938 34.59375 -8.023438 33.625 -7.390625 C 32.65625 -6.765625 31.992188 -6.148438 31.640625 -5.546875 C 31.296875 -4.941406 31.117188 -4.171875 31.109375 -3.234375 C 31.109375 -2.296875 31.132812 -1.5 31.1875 -0.84375 C 31.238281 -0.1875 31.382812 0.816406 31.625 2.171875 C 31.875 3.523438 32.046875 4.476562 32.140625 5.03125 C 32.546875 7.675781 32.785156 9.238281 32.859375 9.71875 C 32.929688 10.207031 33.007812 10.929688 33.09375 11.890625 C 33.1875 12.847656 33.195312 13.601562 33.125 14.15625 C 33.0625 14.707031 32.988281 15.410156 32.90625 16.265625 C 32.832031 17.117188 32.644531 17.828125 32.34375 18.390625 C 32.039062 18.953125 31.679688 19.5625 31.265625 20.21875 C 30.410156 21.519531 29.128906 22.617188 27.421875 23.515625 C 24.191406 25.191406 21.140625 25.566406 18.265625 24.640625 C 15.398438 23.710938 12.882812 21.585938 10.71875 18.265625 C 8.769531 15.273438 7.597656 11.804688 7.203125 7.859375 C 7.054688 6.503906 6.828125 5.585938 6.515625 5.109375 C 5.609375 3.722656 4.410156 3.515625 2.921875 4.484375 Z M 2.921875 4.484375 "/></g></g></g></svg>