<svg width="29" height="26" viewBox="0 0 29 26" fill="none" xmlns="http://www.w3.org/2000/svg">
<path d="M10 1L1 5.5V25L10 20.5L19 25L28 20.5V1L19 5.5L10 1Z" stroke="#fff" stroke-width="1.5" stroke-linecap="round" stroke-linejoin="round"/>
<path d="M9.56436 11.4332V8.7207H12.0785V11.4332H13.6143V13.3523H12.0785V15.6654C12.0785 16.3396 12.2675 16.6759 12.6467 16.6759C12.7412 16.6759 12.8404 16.6572 12.9443 16.6196C13.0495 16.5808 13.1305 16.5419 13.1882 16.5044L13.2713 16.4481L13.8985 18.4798C13.357 18.7833 12.7412 18.9355 12.0517 18.9355C11.578 18.9355 11.1706 18.8524 10.8295 18.6862C10.4877 18.52 10.2298 18.2975 10.0549 18.0188C9.8793 17.7387 9.75333 17.4445 9.67694 17.1369C9.60189 16.8301 9.56436 16.501 9.56436 16.1506V13.3523H8.51367V11.4332H9.56436Z" fill="#848282"/>
<path d="M20.4166 7V9.34529H16.3104V11.6745H20.1057V14.0198H16.3104V18.7211H13.6407V7H20.4166Z" fill="#848282"/>
<path d="M10.524 14.796C10.524 14.7955 10.5235 14.7945 10.5229 14.7939C10.5235 14.795 10.5235 14.7955 10.524 14.796Z" fill="#E4E0D7"/>
<mask id="mask0_2872_753" style="mask-type:luminance" maskUnits="userSpaceOnUse" x="6" y="13" width="8" height="4">
<path d="M6 13.4287H13.4285V16.1526H6V13.4287Z" fill="white"/>
</mask>
<g mask="url(#mask0_2872_753)">
<path d="M6.04617 15.6791C6.07298 15.7441 6.11117 15.8044 6.15808 15.856C6.20498 15.9076 6.25926 15.9498 6.31555 15.9847C6.42879 16.053 6.54941 16.0919 6.66734 16.1173C6.78662 16.1428 6.90455 16.1542 7.02114 16.1595C7.13774 16.1642 7.25366 16.1609 7.36825 16.1542C7.59742 16.1394 7.82323 16.1073 8.04503 16.0637C8.15627 16.0416 8.26616 16.0175 8.37538 15.9907C8.48528 15.9639 8.59383 15.9344 8.70171 15.9029C8.87057 15.854 9.03743 15.8004 9.20227 15.7434C9.30948 15.7059 9.41602 15.667 9.5219 15.6275C9.67132 15.5712 9.81941 15.5122 9.96683 15.4526C10.2134 15.3514 10.458 15.2462 10.7012 15.139C10.7997 15.0955 10.8982 15.0512 10.9967 15.007C11.0624 14.9782 11.1274 14.9487 11.1931 14.9192C11.5985 14.7356 12.0019 14.5473 12.4026 14.3543C12.6699 14.225 12.94 14.0944 13.206 13.961C13.2543 13.9369 13.334 13.896 13.3876 13.8692C13.4231 13.8511 13.4298 13.8022 13.399 13.7767C13.397 13.7754 13.395 13.7741 13.3936 13.7727C13.3461 13.7439 13.2871 13.7432 13.2388 13.7707C13.2107 13.7868 13.1812 13.8042 13.1598 13.8163C12.8944 13.9697 12.6264 14.1178 12.3543 14.2579C11.9603 14.4616 11.5596 14.6519 11.1515 14.8241C11.1227 14.8361 11.0939 14.8482 11.0651 14.8596C11.051 14.8663 11.0363 14.8723 11.0215 14.8777C11.0148 14.8804 11.0088 14.883 11.0021 14.8857C10.9921 14.8897 10.9827 14.8938 10.9726 14.8978C10.9626 14.9018 10.9532 14.9058 10.9431 14.9098C10.9358 14.9132 10.9291 14.9159 10.9217 14.9186C10.9036 14.9259 10.8862 14.9326 10.8688 14.94C10.8688 14.94 10.8688 14.94 10.8681 14.94C10.8426 14.95 10.8178 14.9601 10.7924 14.9702C10.7676 14.9795 10.7414 14.9876 10.7167 14.997C10.6912 15.007 10.6657 15.0164 10.6403 15.0238L10.6396 15.0244C10.399 15.1243 10.1518 15.2033 9.90518 15.2824C9.73096 15.3387 9.55607 15.389 9.38185 15.4419H9.38118C9.27195 15.4747 9.16273 15.5082 9.0515 15.533L9.05016 15.5337C8.91212 15.5752 8.77207 15.6074 8.6327 15.6416C8.57909 15.6543 8.52615 15.6677 8.47255 15.6798C8.41894 15.6918 8.366 15.7039 8.3124 15.7153C8.20518 15.7381 8.09864 15.7602 7.99143 15.7796C7.777 15.8191 7.56257 15.8513 7.34882 15.8674C7.2416 15.8761 7.13506 15.8795 7.02986 15.8774C6.92465 15.8754 6.82079 15.8674 6.72162 15.8486C6.62312 15.8299 6.52796 15.8017 6.44956 15.7575C6.37116 15.7126 6.31153 15.6543 6.27735 15.5799C6.24251 15.5062 6.23447 15.4151 6.24519 15.3199C6.25658 15.2241 6.2874 15.1256 6.32627 15.0291C6.36513 14.932 6.41405 14.8368 6.46766 14.7443C6.52126 14.6505 6.58023 14.5601 6.64255 14.4703C6.76718 14.2907 6.90455 14.1185 7.04661 13.9503C7.18934 13.7821 7.33876 13.6179 7.4902 13.4551L7.46809 13.4316C7.29454 13.571 7.12568 13.7178 6.96419 13.8726C6.8027 14.0273 6.64791 14.1908 6.50451 14.3657C6.36178 14.5413 6.22844 14.7283 6.12658 14.9407C6.07633 15.0472 6.03411 15.1605 6.012 15.2851C6.00128 15.3467 5.99592 15.4117 6.00061 15.4787C6.0053 15.5451 6.01937 15.6141 6.04617 15.6791Z" fill="#E4E0D7"/>
</g>
<path d="M16.2228 14.7116V14.7123C16.2228 14.7123 16.2235 14.713 16.2235 14.7137L16.2262 14.7109C16.2248 14.7109 16.2241 14.7109 16.2228 14.7116Z" fill="#E4E0D7"/>
<mask id="mask1_2872_753" style="mask-type:luminance" maskUnits="userSpaceOnUse" x="12" y="11" width="6" height="4">
<path d="M12.937 11.0059H17.054V14.694H12.937V11.0059Z" fill="white"/>
</mask>
<g mask="url(#mask1_2872_753)">
<path d="M13.0547 13.258L13.3194 13.4215L13.3904 13.4658C13.3904 13.4658 13.5646 13.5736 13.566 13.5743C13.6062 13.5998 13.6424 13.6313 13.6645 13.6735C13.6846 13.7103 13.6899 13.7519 13.698 13.7921C13.7107 13.8551 13.7234 13.9181 13.7362 13.9804V13.981L13.8072 14.3348C13.8166 14.3824 13.8541 14.3998 13.891 14.3744C13.9278 14.3482 13.9593 14.2879 13.9607 14.239L13.9694 13.8591L13.9741 13.6038L14.3439 13.3659L14.3707 13.3485L15.4221 12.671L15.4315 12.7159L15.4322 12.7166L15.4362 12.7159L15.5025 12.9793L15.5032 12.9806L15.8536 14.568C15.861 14.6015 15.8784 14.6237 15.9032 14.6156H15.9046C15.9139 14.6123 15.9247 14.6082 15.9347 14.6009L16.1002 14.4849C16.1391 14.4581 16.1699 14.3985 16.1686 14.3516L16.1545 13.9067C16.1659 13.9047 16.1746 13.8953 16.1847 13.8879L16.2577 13.837L16.2771 13.8236C16.316 13.7968 16.3334 13.7512 16.3066 13.713L16.2872 13.6849C16.2785 13.6721 16.2657 13.6621 16.2523 13.6547C16.2229 13.6393 16.186 13.6366 16.1599 13.6547L16.1431 13.6668L16.1337 13.2795C16.1458 13.2775 16.1605 13.2781 16.1713 13.2708L16.2095 13.244L16.261 13.2084C16.2992 13.1816 16.3093 13.126 16.2825 13.0878L16.2631 13.0597C16.2456 13.0349 16.2128 13.0168 16.1813 13.0155C16.1646 13.0148 16.1485 13.0181 16.1351 13.0275L16.121 13.0369L16.1083 12.6V12.5806L16.0989 12.2743L16.0982 12.2308L16.6289 11.8978L16.6336 11.8951C16.7549 11.8167 16.9506 11.6029 17.0089 11.4454C17.029 11.3912 17.0337 11.3443 17.0129 11.3114C16.9941 11.2806 16.9559 11.2652 16.9057 11.2612C16.7462 11.2471 16.4701 11.3476 16.3455 11.428C16.3435 11.4294 16.1572 11.5694 15.8851 11.7745C15.8764 11.7812 15.867 11.7879 15.8583 11.7946C15.8443 11.8046 15.8302 11.8153 15.8161 11.8261L15.7893 11.8153L15.7719 11.808L15.528 11.7088L15.0623 11.5192L15.0763 11.5091C15.1152 11.4823 15.1266 11.4294 15.0998 11.3912L15.0804 11.363C15.0529 11.3242 15.0053 11.3255 14.9671 11.3523L14.8773 11.4153C14.8673 11.4227 14.8539 11.4247 14.8478 11.4354L14.4793 11.2806L14.4961 11.2692C14.5349 11.2417 14.5483 11.1908 14.5215 11.1526L14.5014 11.1245C14.4746 11.0856 14.417 11.0736 14.3788 11.1004L14.2856 11.1647C14.2756 11.1721 14.2676 11.1814 14.2615 11.1922L13.8487 11.024C13.8052 11.0065 13.7362 11.0112 13.6973 11.038L13.5318 11.1533C13.4929 11.1801 13.4963 11.2263 13.5358 11.2518L14.8472 12.1008L15.1119 12.2723L15.1735 12.3119C15.1534 12.3273 15.1333 12.3427 15.1132 12.3574C14.5617 12.7729 13.9921 13.2024 13.7951 13.3512L13.5653 13.2728L13.3046 13.1836L13.1974 13.1468C13.1519 13.1314 13.0842 13.1394 13.0473 13.1649C13.0105 13.191 13.0138 13.2326 13.0547 13.258Z" fill="#E4E0D7"/>
</g>
</svg>
